MFile 0 1 480
MTrk
0 Meta SeqName "4"
0 Tempo 461537
0 TimeSig 4/4 24 8
0 Meta SeqName "1"
0 Meta SeqName "MIDI"
0 Meta SeqName "MIDI"
0 Meta SeqName "MIDI"
0 Par ch=2 c=100 v=0
0 Par ch=2 c=101 v=0
0 Par ch=2 c=6 v=12
0 Pb ch=2 v=8192
0 Par ch=2 c=101 v=0
0 Par ch=2 c=100 v=1
0 Par ch=2 c=6 v=64
0 Par ch=2 c=38 v=0
0 Par ch=2 c=101 v=127
0 Par ch=2 c=100 v=127
0 Par ch=2 c=101 v=0
0 Par ch=2 c=100 v=2
0 Par ch=2 c=6 v=64
0 Par ch=2 c=101 v=127
0 Par ch=2 c=100 v=127
0 Par ch=2 c=93 v=0
0 Par ch=2 c=91 v=0
0 Par ch=2 c=92 v=0
0 Par ch=2 c=95 v=0
0 Meta SeqName "MIDI"
0 Meta SeqName "MIDI"
0 Par ch=4 c=100 v=0
0 Par ch=4 c=101 v=0
0 Par ch=4 c=6 v=12
0 Pb ch=4 v=8192
0 Par ch=4 c=101 v=0
0 Par ch=4 c=100 v=1
0 Par ch=4 c=6 v=64
0 Par ch=4 c=38 v=0
0 Par ch=4 c=101 v=127
0 Par ch=4 c=100 v=127
0 Par ch=4 c=101 v=0
0 Par ch=4 c=100 v=2
0 Par ch=4 c=6 v=64
0 Par ch=4 c=101 v=127
0 Par ch=4 c=100 v=127
0 Par ch=4 c=93 v=0
0 Par ch=4 c=91 v=0
0 Par ch=4 c=92 v=0
0 Par ch=4 c=95 v=0
0 Meta SeqName "MIDI"
0 Par ch=5 c=100 v=0
0 Par ch=5 c=101 v=0
0 Par ch=5 c=6 v=12
0 Pb ch=5 v=8192
0 Par ch=5 c=101 v=0
0 Par ch=5 c=100 v=1
0 Par ch=5 c=6 v=64
0 Par ch=5 c=38 v=0
0 Par ch=5 c=101 v=127
0 Par ch=5 c=100 v=127
0 Par ch=5 c=101 v=0
0 Par ch=5 c=100 v=2
0 Par ch=5 c=6 v=64
0 Par ch=5 c=101 v=127
0 Par ch=5 c=100 v=127
0 Par ch=5 c=11 v=88
0 Par ch=5 c=93 v=0
0 Par ch=5 c=91 v=0
0 Par ch=5 c=92 v=0
0 Par ch=5 c=95 v=0
0 Meta SeqName "MIDI"
0 Par ch=6 c=100 v=0
0 Par ch=6 c=101 v=0
0 Par ch=6 c=6 v=12
0 Pb ch=6 v=8192
0 Par ch=6 c=101 v=0
0 Par ch=6 c=100 v=1
0 Par ch=6 c=6 v=64
0 Par ch=6 c=38 v=0
0 Par ch=6 c=101 v=127
0 Par ch=6 c=100 v=127
0 Par ch=6 c=101 v=0
0 Par ch=6 c=100 v=2
0 Par ch=6 c=6 v=64
0 Par ch=6 c=101 v=127
0 Par ch=6 c=100 v=127
0 Par ch=6 c=93 v=0
0 Par ch=6 c=91 v=0
0 Par ch=6 c=92 v=0
0 Par ch=6 c=95 v=0
0 Meta SeqName "MIDI"
0 Par ch=7 c=100 v=0
0 Par ch=7 c=101 v=0
0 Par ch=7 c=6 v=12
0 Pb ch=7 v=8192
0 Par ch=7 c=101 v=0
0 Par ch=7 c=100 v=1
0 Par ch=7 c=6 v=64
0 Par ch=7 c=38 v=0
0 Par ch=7 c=101 v=127
0 Par ch=7 c=100 v=127
0 Par ch=7 c=101 v=0
0 Par ch=7 c=100 v=2
0 Par ch=7 c=6 v=64
0 Par ch=7 c=101 v=127
0 Par ch=7 c=100 v=127
0 Par ch=7 c=93 v=0
0 Par ch=7 c=91 v=0
0 Par ch=7 c=92 v=0
0 Par ch=7 c=95 v=0
0 Meta SeqName "MIDI"
0 Par ch=8 c=100 v=0
0 Par ch=8 c=101 v=0
0 Par ch=8 c=6 v=12
0 Pb ch=8 v=8192
0 Par ch=8 c=101 v=0
0 Par ch=8 c=100 v=1
0 Par ch=8 c=6 v=64
0 Par ch=8 c=38 v=0
0 Par ch=8 c=101 v=127
0 Par ch=8 c=100 v=127
0 Par ch=8 c=101 v=0
0 Par ch=8 c=100 v=2
0 Par ch=8 c=6 v=64
0 Par ch=8 c=101 v=127
0 Par ch=8 c=100 v=127
0 Par ch=8 c=93 v=0
0 Par ch=8 c=91 v=0
0 Par ch=8 c=92 v=0
0 Par ch=8 c=95 v=0
0 Meta SeqName "MIDI"
0 Par ch=10 c=100 v=0
0 Par ch=10 c=101 v=0
0 Par ch=10 c=6 v=12
0 Pb ch=10 v=8192
0 Par ch=10 c=101 v=0
0 Par ch=10 c=100 v=1
0 Par ch=10 c=6 v=64
0 Par ch=10 c=38 v=0
0 Par ch=10 c=101 v=127
0 Par ch=10 c=100 v=127
0 Par ch=10 c=93 v=0
0 Par ch=10 c=91 v=0
0 Par ch=10 c=92 v=0
0 Par ch=10 c=95 v=0
0 Meta SeqName "MIDI"
0 Meta SeqName "MIDI"
0 Meta SeqName "MIDI"
0 Meta SeqName "MIDI"
0 Meta SeqName "MIDI"
0 Meta Lyric "All "
0 Meta Lyric "rights"
0 Meta Lyric " re"
0 Meta Lyric "served "
0 Meta Lyric "\r"
460 Par ch=1 c=0 v=0
475 PrCh ch=1 p=29
480 Par ch=1 c=10 v=64
480 Par ch=1 c=7 v=100
480 Par ch=1 c=101 v=0
480 Par ch=1 c=6 v=12
480 Pb ch=1 v=8192
480 Par ch=1 c=101 v=0
480 Par ch=1 c=6 v=64
480 Par ch=1 c=38 v=0
480 Par ch=1 c=101 v=127
480 Par ch=1 c=101 v=0
480 Par ch=1 c=6 v=64
480 Par ch=1 c=101 v=127
480 Par ch=1 c=93 v=0
480 Par ch=1 c=91 v=0
480 Par ch=1 c=92 v=0
480 Par ch=1 c=95 v=0
480 On ch=1 n=62 v=95
480 On ch=1 n=55 v=95
480 Par ch=3 c=100 v=0
480 Par ch=3 c=101 v=0
480 Par ch=3 c=6 v=12
480 Pb ch=3 v=8192
480 Par ch=3 c=101 v=0
480 Par ch=3 c=100 v=1
480 Par ch=3 c=6 v=64
480 Par ch=3 c=38 v=0
480 Par ch=3 c=101 v=127
480 Par ch=3 c=100 v=127
480 Par ch=3 c=101 v=0
480 Par ch=3 c=100 v=2
480 Par ch=3 c=6 v=64
480 Par ch=3 c=101 v=127
480 Par ch=3 c=100 v=127
480 Par ch=3 c=93 v=0
480 Par ch=3 c=91 v=0
480 Par ch=3 c=92 v=0
480 Par ch=3 c=95 v=0
480 PrCh ch=3 p=49
480 On ch=3 n=31 v=95
520 Par ch=3 c=10 v=64
520 Par ch=3 c=7 v=127
540 Par ch=5 c=0 v=0
555 PrCh ch=5 p=48
560 Par ch=5 c=10 v=64
560 Par ch=5 c=7 v=127
580 Par ch=7 c=0 v=0
595 PrCh ch=7 p=81
600 Par ch=7 c=10 v=64
600 Par ch=7 c=7 v=85
640 Par ch=10 c=0 v=0
655 PrCh ch=10 p=0
660 Par ch=11 c=0 v=0
660 Par ch=10 c=10 v=64
660 Par ch=10 c=7 v=100
675 PrCh ch=11 p=73
680 Par ch=11 c=10 v=64
680 Par ch=11 c=7 v=117
685 Par ch=11 c=93 v=0
690 Par ch=11 c=91 v=40
720 Off ch=1 n=62 v=64
720 Off ch=1 n=55 v=64
960 On ch=1 n=62 v=95
960 On ch=1 n=55 v=95
1200 Off ch=1 n=62 v=64
1200 Off ch=1 n=55 v=64
1440 On ch=1 n=62 v=95
1440 On ch=1 n=55 v=95
1680 Off ch=1 n=62 v=64
1680 Off ch=1 n=55 v=64
1920 On ch=1 n=62 v=95
1920 On ch=1 n=55 v=95
1956 Meta Lyric "BLACK "
2160 Off ch=1 n=62 v=64
2160 Off ch=1 n=55 v=64
2400 On ch=1 n=60 v=95
2400 On ch=1 n=55 v=95
2640 Off ch=1 n=60 v=64
2640 Off ch=1 n=55 v=64
2700 Meta Lyric "EYED "
2880 On ch=1 n=60 v=95
2880 On ch=1 n=55 v=95
3120 Off ch=1 n=60 v=64
3120 Off ch=1 n=55 v=64
3360 On ch=1 n=59 v=95
3360 On ch=1 n=55 v=95
3432 Meta Lyric "PEAS"
3600 Off ch=1 n=59 v=64
3600 Off ch=1 n=55 v=64
3840 On ch=1 n=59 v=95
3840 On ch=1 n=55 v=95
4080 Off ch=1 n=59 v=64
4080 Off ch=1 n=55 v=64
4092 Meta Lyric "\r"
4320 On ch=1 n=60 v=95
4320 On ch=1 n=55 v=95
4320 Off ch=3 n=31 v=64
4320 On ch=3 n=36 v=95
4320 Meta Lyric "\"I "
4560 Off ch=1 n=60 v=64
4560 Off ch=1 n=55 v=64
4800 On ch=1 n=60 v=95
4800 On ch=1 n=55 v=95
4824 Meta Lyric "gotta "
5040 Off ch=1 n=60 v=64
5040 Off ch=1 n=55 v=64
5280 On ch=1 n=60 v=95
5280 On ch=1 n=55 v=95
5292 Meta Lyric "feeling\""
5520 Off ch=1 n=60 v=64
5520 Off ch=1 n=55 v=64
5760 On ch=1 n=60 v=95
5760 On ch=1 n=55 v=95
5976 Meta Lyric "\r"
6000 Off ch=1 n=60 v=64
6000 Off ch=1 n=55 v=64
6240 On ch=1 n=60 v=95
6240 On ch=1 n=55 v=95
6240 Meta Lyric "Melodia "
6480 Off ch=1 n=60 v=64
6480 Off ch=1 n=55 v=64
6720 On ch=1 n=60 v=95
6720 On ch=1 n=55 v=95
6744 Meta Lyric "& "
6960 Off ch=1 n=60 v=64
6960 Off ch=1 n=55 v=64
7200 On ch=1 n=60 v=95
7200 On ch=1 n=55 v=95
7200 Off ch=3 n=36 v=64
7200 On ch=3 n=38 v=95
7200 Meta Lyric "syncro "
7440 Off ch=1 n=60 v=64
7440 Off ch=1 n=55 v=64
7680 On ch=1 n=60 v=95
7680 On ch=1 n=55 v=95
7692 Meta Lyric "\r"
7920 Off ch=1 n=60 v=64
7920 Off ch=1 n=55 v=64
8160 On ch=1 n=59 v=95
8160 On ch=1 n=55 v=95
8160 Off ch=3 n=38 v=64
8160 On ch=3 n=40 v=95
8172 Meta Lyric "by Gilas"
8400 Off ch=1 n=59 v=64
8400 Off ch=1 n=55 v=64
8640 On ch=1 n=59 v=95
8640 On ch=1 n=55 v=95
8880 Off ch=1 n=59 v=64
8880 Off ch=1 n=55 v=64
8892 Meta Lyric "\r"
9120 On ch=1 n=59 v=95
9120 On ch=1 n=55 v=95
9132 Meta Lyric "www."
9360 Off ch=1 n=59 v=64
9360 Off ch=1 n=55 v=64
9600 On ch=1 n=59 v=95
9600 On ch=1 n=55 v=95
9600 Meta Lyric "miditeca."
9840 Off ch=1 n=59 v=64
9840 Off ch=1 n=55 v=64
10080 On ch=1 n=59 v=95
10080 On ch=1 n=55 v=95
10092 Meta Lyric "net"
10320 Off ch=1 n=59 v=64
10320 Off ch=1 n=55 v=64
10560 On ch=1 n=59 v=95
10560 On ch=1 n=55 v=95
10584 Meta Lyric "\r"
10800 Off ch=1 n=59 v=64
10800 Off ch=1 n=55 v=64
11040 On ch=1 n=59 v=95
11040 On ch=1 n=55 v=95
11040 Off ch=3 n=40 v=64
11040 On ch=3 n=38 v=95
11061 Meta Lyric "*"
11280 Off ch=1 n=59 v=64
11280 Off ch=1 n=55 v=64
11520 On ch=1 n=59 v=95
11520 On ch=1 n=55 v=95
11529 Meta Lyric "*"
11760 Off ch=1 n=59 v=64
11760 Off ch=1 n=55 v=64
12000 On ch=1 n=60 v=95
12000 On ch=1 n=55 v=95
12000 Off ch=3 n=38 v=64
12000 On ch=3 n=36 v=95
12021 Meta Lyric "*"
12240 Off ch=1 n=60 v=64
12240 Off ch=1 n=55 v=64
12480 On ch=1 n=60 v=95
12480 On ch=1 n=55 v=95
12489 Meta Lyric "*"
12720 Off ch=1 n=60 v=64
12720 Off ch=1 n=55 v=64
12960 On ch=1 n=60 v=95
12960 On ch=1 n=55 v=95
12993 Meta Lyric "*"
13200 Off ch=1 n=60 v=64
13200 Off ch=1 n=55 v=64
13437 Meta Lyric "*"
13440 On ch=1 n=60 v=95
13440 On ch=1 n=55 v=95
13680 Off ch=1 n=60 v=64
13680 Off ch=1 n=55 v=64
13920 On ch=1 n=60 v=95
13920 On ch=1 n=55 v=95
13929 Meta Lyric "*"
14160 Off ch=1 n=60 v=64
14160 Off ch=1 n=55 v=64
14400 On ch=1 n=60 v=95
14400 On ch=1 n=55 v=95
14640 Off ch=1 n=60 v=64
14640 Off ch=1 n=55 v=64
14880 On ch=1 n=60 v=95
14880 On ch=1 n=55 v=95
15120 Off ch=1 n=60 v=64
15120 Off ch=1 n=55 v=64
15180 Meta Lyric "\r"
15360 On ch=1 n=60 v=95
15360 On ch=1 n=55 v=95
15600 Off ch=1 n=60 v=64
15600 Off ch=1 n=55 v=64
15828 On ch=5 n=69 v=95
15840 On ch=1 n=62 v=95
15840 On ch=1 n=55 v=95
15840 Off ch=3 n=36 v=64
15840 On ch=3 n=31 v=95
16080 Off ch=1 n=62 v=64
16080 Off ch=1 n=55 v=64
16320 On ch=1 n=62 v=95
16320 On ch=1 n=55 v=95
16560 Off ch=1 n=62 v=64
16560 Off ch=1 n=55 v=64
16800 On ch=1 n=62 v=95
16800 On ch=1 n=55 v=95
17040 Off ch=1 n=62 v=64
17040 Off ch=1 n=55 v=64
17280 On ch=1 n=62 v=95
17280 On ch=1 n=55 v=95
17508 Off ch=5 n=69 v=64
17508 On ch=5 n=67 v=95
17520 Off ch=1 n=62 v=64
17520 Off ch=1 n=55 v=64
17760 On ch=1 n=60 v=95
17760 On ch=1 n=55 v=95
18000 Off ch=1 n=60 v=64
18000 Off ch=1 n=55 v=64
18240 On ch=1 n=60 v=95
18240 On ch=1 n=55 v=95
18480 Off ch=1 n=60 v=64
18480 Off ch=1 n=55 v=64
18720 On ch=1 n=59 v=95
18720 On ch=1 n=55 v=95
18960 Off ch=1 n=59 v=64
18960 Off ch=1 n=55 v=64
19200 On ch=1 n=59 v=95
19200 On ch=1 n=55 v=95
19440 Off ch=1 n=59 v=64
19440 Off ch=1 n=55 v=64
19668 Off ch=5 n=67 v=64
19668 On ch=5 n=69 v=95
19680 On ch=1 n=60 v=95
19680 On ch=1 n=55 v=95
19680 Off ch=3 n=31 v=64
19680 On ch=3 n=36 v=95
19920 Off ch=1 n=60 v=64
19920 Off ch=1 n=55 v=64
20160 On ch=1 n=60 v=95
20160 On ch=1 n=55 v=95
20400 Off ch=1 n=60 v=64
20400 Off ch=1 n=55 v=64
20640 On ch=1 n=60 v=95
20640 On ch=1 n=55 v=95
20880 Off ch=1 n=60 v=64
20880 Off ch=1 n=55 v=64
21120 On ch=1 n=60 v=95
21120 On ch=1 n=55 v=95
21348 Off ch=5 n=69 v=64
21348 On ch=5 n=67 v=95
21360 Off ch=1 n=60 v=64
21360 Off ch=1 n=55 v=64
21600 On ch=1 n=60 v=95
21600 On ch=1 n=55 v=95
21840 Off ch=1 n=60 v=64
21840 Off ch=1 n=55 v=64
22080 On ch=1 n=60 v=95
22080 On ch=1 n=55 v=95
22320 Off ch=1 n=60 v=64
22320 Off ch=1 n=55 v=64
22548 Off ch=5 n=67 v=64
22548 On ch=5 n=72 v=95
22560 On ch=1 n=60 v=95
22560 On ch=1 n=55 v=95
22560 Off ch=3 n=36 v=64
22560 On ch=3 n=38 v=95
22800 Off ch=1 n=60 v=64
22800 Off ch=1 n=55 v=64
23040 On ch=1 n=60 v=95
23040 On ch=1 n=55 v=95
23280 Off ch=1 n=60 v=64
23280 Off ch=1 n=55 v=64
23508 Off ch=5 n=72 v=64
23508 On ch=5 n=69 v=95
23520 On ch=1 n=59 v=95
23520 On ch=1 n=55 v=95
23520 Off ch=3 n=38 v=64
23520 On ch=3 n=40 v=95
23760 Off ch=1 n=59 v=64
23760 Off ch=1 n=55 v=64
24000 On ch=1 n=59 v=95
24000 On ch=1 n=55 v=95
24240 Off ch=1 n=59 v=64
24240 Off ch=1 n=55 v=64
24480 On ch=1 n=59 v=95
24480 On ch=1 n=55 v=95
24720 Off ch=1 n=59 v=64
24720 Off ch=1 n=55 v=64
24960 On ch=1 n=59 v=95
24960 On ch=1 n=55 v=95
25188 Off ch=5 n=69 v=64
25188 On ch=5 n=67 v=95
25200 Off ch=1 n=59 v=64
25200 Off ch=1 n=55 v=64
25440 On ch=1 n=59 v=95
25440 On ch=1 n=55 v=95
25680 Off ch=1 n=59 v=64
25680 Off ch=1 n=55 v=64
25920 On ch=1 n=59 v=95
25920 On ch=1 n=55 v=95
26160 Off ch=1 n=59 v=64
26160 Off ch=1 n=55 v=64
26400 On ch=1 n=59 v=95
26400 On ch=1 n=55 v=95
26400 Off ch=3 n=40 v=64
26400 On ch=3 n=38 v=95
26640 Off ch=1 n=59 v=64
26640 Off ch=1 n=55 v=64
26880 On ch=1 n=59 v=95
26880 On ch=1 n=55 v=95
27120 Off ch=1 n=59 v=64
27120 Off ch=1 n=55 v=64
27348 Off ch=5 n=67 v=64
27348 On ch=5 n=69 v=95
27360 On ch=1 n=60 v=95
27360 On ch=1 n=55 v=95
27360 Off ch=3 n=38 v=64
27360 On ch=3 n=36 v=95
27600 Off ch=1 n=60 v=64
27600 Off ch=1 n=55 v=64
27840 On ch=1 n=60 v=95
27840 On ch=1 n=55 v=95
28080 Off ch=1 n=60 v=64
28080 Off ch=1 n=55 v=64
28320 On ch=1 n=60 v=95
28320 On ch=1 n=55 v=95
28560 Off ch=1 n=60 v=64
28560 Off ch=1 n=55 v=64
28800 On ch=1 n=60 v=95
28800 On ch=1 n=55 v=95
29028 Off ch=5 n=69 v=64
29028 On ch=5 n=67 v=95
29040 Off ch=1 n=60 v=64
29040 Off ch=1 n=55 v=64
29280 On ch=1 n=60 v=95
29280 On ch=1 n=55 v=95
29520 Off ch=1 n=60 v=64
29520 Off ch=1 n=55 v=64
29760 On ch=1 n=60 v=95
29760 On ch=1 n=55 v=95
30000 Off ch=1 n=60 v=64
30000 Off ch=1 n=55 v=64
30240 On ch=1 n=60 v=95
30240 On ch=1 n=55 v=95
30240 Meta Lyric "I "
30249 On ch=11 n=67 v=127
30480 Off ch=1 n=60 v=64
30480 Off ch=1 n=55 v=64
30480 Meta Lyric "GO"
30489 Off ch=11 n=67 v=64
30489 On ch=11 n=69 v=127
30720 On ch=1 n=60 v=95
30720 On ch=1 n=55 v=95
30720 Meta Lyric "TTA "
30729 Off ch=11 n=69 v=64
30729 On ch=11 n=67 v=127
30960 Off ch=1 n=60 v=64
30960 Off ch=1 n=55 v=64
30960 Meta Lyric "FEE"
30969 Off ch=11 n=67 v=64
30969 On ch=11 n=72 v=127
31188 Off ch=5 n=67 v=64
31188 On ch=5 n=43 v=76
31200 On ch=1 n=62 v=95
31200 On ch=1 n=55 v=95
31200 Off ch=3 n=36 v=64
31200 Meta Lyric "LING "
31207 On ch=10 n=57 v=95
31209 Off ch=11 n=72 v=64
31209 On ch=11 n=71 v=127
31368 Off ch=5 n=43 v=64
31428 On ch=5 n=43 v=76
31440 Off ch=1 n=62 v=64
31440 Off ch=1 n=55 v=64
31449 Off ch=11 n=71 v=64
31608 Off ch=5 n=43 v=64
31668 On ch=5 n=43 v=76
31680 On ch=1 n=62 v=95
31680 On ch=1 n=55 v=95
31848 Off ch=5 n=43 v=64
31908 On ch=5 n=43 v=76
31920 Off ch=1 n=62 v=64
31920 Off ch=1 n=55 v=64
32088 Off ch=5 n=43 v=64
32148 On ch=5 n=43 v=76
32160 On ch=1 n=62 v=95
32160 On ch=1 n=55 v=95
32328 Off ch=5 n=43 v=64
32388 On ch=5 n=43 v=76
32400 Off ch=1 n=62 v=64
32400 Off ch=1 n=55 v=64
32568 Off ch=5 n=43 v=64
32628 On ch=5 n=43 v=76
32640 On ch=1 n=62 v=95
32640 On ch=1 n=55 v=95
32808 Off ch=5 n=43 v=64
32868 On ch=5 n=43 v=76
32880 Off ch=1 n=62 v=64
32880 Off ch=1 n=55 v=64
33048 Off ch=5 n=43 v=64
33108 On ch=5 n=43 v=76
33120 On ch=1 n=60 v=95
33120 On ch=1 n=55 v=95
33127 Off ch=10 n=57 v=64
33288 Off ch=5 n=43 v=64
33348 On ch=5 n=43 v=76
33360 Off ch=1 n=60 v=64
33360 Off ch=1 n=55 v=64
33528 Off ch=5 n=43 v=64
33588 On ch=5 n=43 v=76
33600 On ch=1 n=60 v=95
33600 On ch=1 n=55 v=95
33713 Meta Lyric "\r"
33768 Off ch=5 n=43 v=64
33828 On ch=5 n=43 v=76
33840 Off ch=1 n=60 v=64
33840 Off ch=1 n=55 v=64
34008 Off ch=5 n=43 v=64
34068 On ch=5 n=43 v=76
34080 On ch=1 n=59 v=95
34080 On ch=1 n=55 v=95
34248 Off ch=5 n=43 v=64
34308 On ch=5 n=43 v=76
34320 Off ch=1 n=59 v=64
34320 Off ch=1 n=55 v=64
34320 Meta Lyric "THAT "
34329 On ch=11 n=67 v=127
34488 Off ch=5 n=43 v=64
34548 On ch=5 n=43 v=76
34560 On ch=1 n=59 v=95
34560 On ch=1 n=55 v=95
34560 Meta Lyric "TO"
34569 Off ch=11 n=67 v=64
34569 On ch=11 n=67 v=127
34728 Off ch=5 n=43 v=64
34788 On ch=5 n=43 v=76
34800 Off ch=1 n=59 v=64
34800 Off ch=1 n=55 v=64
34800 Meta Lyric "NIGHT'S "
34809 Off ch=11 n=67 v=64
34809 On ch=11 n=72 v=127
34968 Off ch=5 n=43 v=64
35028 On ch=5 n=48 v=76
35040 On ch=1 n=60 v=95
35040 On ch=1 n=55 v=95
35141 Meta Lyric "\r"
35208 Off ch=5 n=48 v=64
35268 On ch=5 n=48 v=76
35280 Off ch=1 n=60 v=64
35280 Off ch=1 n=55 v=64
35280 Meta Lyric "GO"
35289 Off ch=11 n=72 v=64
35289 On ch=11 n=71 v=127
35448 Off ch=5 n=48 v=64
35508 On ch=5 n=48 v=76
35520 On ch=1 n=60 v=95
35520 On ch=1 n=55 v=95
35520 Meta Lyric "NNA "
35529 Off ch=11 n=71 v=64
35529 On ch=11 n=69 v=127
35688 Off ch=5 n=48 v=64
35748 On ch=5 n=48 v=76
35760 Off ch=1 n=60 v=64
35760 Off ch=1 n=55 v=64
35760 Meta Lyric "BE "
35769 Off ch=11 n=69 v=64
35769 On ch=11 n=67 v=127
35928 Off ch=5 n=48 v=64
35988 On ch=5 n=48 v=76
36000 On ch=1 n=60 v=95
36000 On ch=1 n=55 v=95
36129 Off ch=11 n=67 v=64
36168 Off ch=5 n=48 v=64
36228 On ch=5 n=48 v=76
36240 Off ch=1 n=60 v=64
36240 Off ch=1 n=55 v=64
36240 Meta Lyric "A "
36249 On ch=11 n=64 v=127
36408 Off ch=5 n=48 v=64
36468 On ch=5 n=48 v=76
36480 On ch=1 n=60 v=95
36480 On ch=1 n=55 v=95
36648 Off ch=5 n=48 v=64
36708 On ch=5 n=48 v=76
36720 Off ch=1 n=60 v=64
36720 Off ch=1 n=55 v=64
36720 Meta Lyric "GOOD "
36729 Off ch=11 n=64 v=64
36729 On ch=11 n=72 v=127
36888 Off ch=5 n=48 v=64
36948 On ch=5 n=48 v=76
36960 On ch=1 n=60 v=95
36960 On ch=1 n=55 v=95
37128 Off ch=5 n=48 v=64
37188 On ch=5 n=48 v=76
37200 Off ch=1 n=60 v=64
37200 Off ch=1 n=55 v=64
37200 Meta Lyric "NIGHT "
37209 Off ch=11 n=72 v=64
37209 On ch=11 n=71 v=127
37368 Off ch=5 n=48 v=64
37428 On ch=5 n=48 v=76
37440 On ch=1 n=60 v=95
37440 On ch=1 n=55 v=95
37449 Off ch=11 n=71 v=64
37608 Off ch=5 n=48 v=64
37625 Meta Lyric "\r"
37668 On ch=5 n=48 v=76
37680 Off ch=1 n=60 v=64
37680 Off ch=1 n=55 v=64
37848 Off ch=5 n=48 v=64
37908 On ch=5 n=48 v=76
37920 On ch=1 n=60 v=95
37920 On ch=1 n=55 v=95
38088 Off ch=5 n=48 v=64
38148 On ch=5 n=50 v=76
38160 Off ch=1 n=60 v=64
38160 Off ch=1 n=55 v=64
38160 Meta Lyric "THAT "
38169 On ch=11 n=67 v=127
38328 Off ch=5 n=50 v=64
38388 On ch=5 n=50 v=76
38400 On ch=1 n=60 v=95
38400 On ch=1 n=55 v=95
38400 Meta Lyric "TO"
38409 Off ch=11 n=67 v=64
38409 On ch=11 n=67 v=127
38568 Off ch=5 n=50 v=64
38628 On ch=5 n=50 v=76
38640 Off ch=1 n=60 v=64
38640 Off ch=1 n=55 v=64
38640 Meta Lyric "NIGHT'S "
38649 Off ch=11 n=67 v=64
38649 On ch=11 n=72 v=127
38808 Off ch=5 n=50 v=64
38868 On ch=5 n=52 v=76
38880 On ch=1 n=59 v=95
38880 On ch=1 n=55 v=95
39048 Off ch=5 n=52 v=64
39056 Meta Lyric "\r"
39108 On ch=5 n=52 v=76
39120 Off ch=1 n=59 v=64
39120 Off ch=1 n=55 v=64
39120 Meta Lyric "GO"
39129 Off ch=11 n=72 v=64
39129 On ch=11 n=71 v=127
39288 Off ch=5 n=52 v=64
39348 On ch=5 n=52 v=76
39360 On ch=1 n=59 v=95
39360 On ch=1 n=55 v=95
39360 Meta Lyric "NNA "
39369 Off ch=11 n=71 v=64
39369 On ch=11 n=69 v=127
39528 Off ch=5 n=52 v=64
39588 On ch=5 n=52 v=76
39600 Off ch=1 n=59 v=64
39600 Off ch=1 n=55 v=64
39600 Meta Lyric "BE "
39609 Off ch=11 n=69 v=64
39609 On ch=11 n=67 v=127
39768 Off ch=5 n=52 v=64
39828 On ch=5 n=52 v=76
39840 On ch=1 n=59 v=95
39840 On ch=1 n=55 v=95
39969 Off ch=11 n=67 v=64
40008 Off ch=5 n=52 v=64
40068 On ch=5 n=52 v=76
40080 Off ch=1 n=59 v=64
40080 Off ch=1 n=55 v=64
40080 Meta Lyric "A "
40089 On ch=11 n=64 v=127
40248 Off ch=5 n=52 v=64
40308 On ch=5 n=52 v=76
40320 On ch=1 n=59 v=95
40320 On ch=1 n=55 v=95
40488 Off ch=5 n=52 v=64
40548 On ch=5 n=52 v=76
40560 Off ch=1 n=59 v=64
40560 Off ch=1 n=55 v=64
40560 Meta Lyric "GOOD "
40569 Off ch=11 n=64 v=64
40569 On ch=11 n=74 v=127
40728 Off ch=5 n=52 v=64
40788 On ch=5 n=52 v=76
40800 On ch=1 n=59 v=95
40800 On ch=1 n=55 v=95
40968 Off ch=5 n=52 v=64
41028 On ch=5 n=52 v=76
41040 Off ch=1 n=59 v=64
41040 Off ch=1 n=55 v=64
41040 Meta Lyric "NIGHT "
41049 Off ch=11 n=74 v=64
41049 On ch=11 n=71 v=127
41208 Off ch=5 n=52 v=64
41268 On ch=5 n=52 v=76
41280 On ch=1 n=59 v=95
41280 On ch=1 n=55 v=95
41289 Off ch=11 n=71 v=64
41448 Off ch=5 n=52 v=64
41508 On ch=5 n=52 v=76
41520 Off ch=1 n=59 v=64
41520 Off ch=1 n=55 v=64
41688 Off ch=5 n=52 v=64
41690 Meta Lyric "\r"
41748 On ch=5 n=52 v=76
41760 On ch=1 n=59 v=95
41760 On ch=1 n=55 v=95
41928 Off ch=5 n=52 v=64
41988 On ch=5 n=50 v=76
42000 Off ch=1 n=59 v=64
42000 Off ch=1 n=55 v=64
42000 Meta Lyric "THAT "
42009 On ch=11 n=67 v=127
42168 Off ch=5 n=50 v=64
42228 On ch=5 n=50 v=76
42240 On ch=1 n=59 v=95
42240 On ch=1 n=55 v=95
42240 Meta Lyric "TO"
42249 Off ch=11 n=67 v=64
42249 On ch=11 n=67 v=127
42480 Off ch=1 n=59 v=64
42480 Off ch=1 n=55 v=64
42480 Meta Lyric "NIGHT'S "
42489 Off ch=11 n=67 v=64
42489 On ch=11 n=74 v=127
42588 Off ch=5 n=50 v=64
42708 On ch=5 n=48 v=76
42720 On ch=1 n=60 v=95
42720 On ch=1 n=55 v=95
42813 Meta Lyric "\r"
42888 Off ch=5 n=48 v=64
42948 On ch=5 n=48 v=76
42960 Off ch=1 n=60 v=64
42960 Off ch=1 n=55 v=64
42960 Meta Lyric "GO"
42969 Off ch=11 n=74 v=64
42969 On ch=11 n=71 v=127
43128 Off ch=5 n=48 v=64
43188 On ch=5 n=48 v=76
43200 On ch=1 n=60 v=95
43200 On ch=1 n=55 v=95
43200 Meta Lyric "NNA "
43209 Off ch=11 n=71 v=64
43209 On ch=11 n=69 v=127
43368 Off ch=5 n=48 v=64
43428 On ch=5 n=48 v=76
43440 Off ch=1 n=60 v=64
43440 Off ch=1 n=55 v=64
43440 Meta Lyric "BE "
43449 Off ch=11 n=69 v=64
43449 On ch=11 n=67 v=127
43608 Off ch=5 n=48 v=64
43668 On ch=5 n=48 v=76
43680 On ch=1 n=60 v=95
43680 On ch=1 n=55 v=95
43809 Off ch=11 n=67 v=64
43848 Off ch=5 n=48 v=64
43908 On ch=5 n=48 v=76
43920 Off ch=1 n=60 v=64
43920 Off ch=1 n=55 v=64
43920 Meta Lyric "A "
43929 On ch=11 n=64 v=127
44088 Off ch=5 n=48 v=64
44148 On ch=5 n=48 v=76
44160 On ch=1 n=60 v=95
44160 On ch=1 n=55 v=95
44328 Off ch=5 n=48 v=64
44388 On ch=5 n=48 v=76
44400 Off ch=1 n=60 v=64
44400 Off ch=1 n=55 v=64
44400 Meta Lyric "GOOD "
44409 Off ch=11 n=64 v=64
44409 On ch=11 n=74 v=127
44568 Off ch=5 n=48 v=64
44628 On ch=5 n=48 v=76
44640 On ch=1 n=60 v=95
44640 On ch=1 n=55 v=95
44769 Off ch=11 n=74 v=64
44808 Off ch=5 n=48 v=64
44868 On ch=5 n=48 v=76
44880 Off ch=1 n=60 v=64
44880 Off ch=1 n=55 v=64
44880 Meta Lyric "GOOD "
44889 On ch=11 n=74 v=127
45048 Off ch=5 n=48 v=64
45108 On ch=5 n=48 v=76
45120 On ch=1 n=60 v=95
45120 On ch=1 n=55 v=95
45249 Off ch=11 n=74 v=64
45288 Off ch=5 n=48 v=64
45348 On ch=5 n=48 v=76
45360 Off ch=1 n=60 v=64
45360 Off ch=1 n=55 v=64
45360 Meta Lyric "NIG"
45369 On ch=11 n=71 v=127
45528 Off ch=5 n=48 v=64
45588 On ch=5 n=48 v=76
45600 On ch=1 n=60 v=95
45600 On ch=1 n=55 v=95
45600 Meta Lyric "H"
45609 Off ch=11 n=71 v=64
45609 On ch=11 n=69 v=127
45768 Off ch=5 n=48 v=64
45828 On ch=5 n=48 v=76
45840 Off ch=1 n=60 v=64
45840 Off ch=1 n=55 v=64
45840 Meta Lyric "T "
45849 Off ch=11 n=69 v=64
45849 On ch=11 n=67 v=127
45998 Meta Lyric "\r"
46008 Off ch=5 n=48 v=64
46068 On ch=5 n=48 v=76
46080 On ch=1 n=60 v=95
46080 On ch=1 n=55 v=95
46080 Meta Lyric "A "
46089 Off ch=11 n=67 v=64
46089 On ch=11 n=67 v=127
46248 Off ch=5 n=48 v=64
46308 On ch=5 n=48 v=76
46320 Off ch=1 n=60 v=64
46320 Off ch=1 n=55 v=64
46320 Meta Lyric "FEE"
46329 Off ch=11 n=67 v=64
46329 On ch=11 n=72 v=127
46488 Off ch=5 n=48 v=64
46548 On ch=5 n=43 v=76
46556 On ch=10 n=57 v=95
46560 On ch=1 n=62 v=95
46560 On ch=1 n=55 v=95
46560 Meta Lyric "LING  "
46569 Off ch=11 n=72 v=64
46569 On ch=11 n=71 v=127
46728 Off ch=5 n=43 v=64
46788 On ch=5 n=43 v=76
46800 Off ch=1 n=62 v=64
46800 Off ch=1 n=55 v=64
46809 Off ch=11 n=71 v=64
46968 Off ch=5 n=43 v=64
47028 On ch=5 n=43 v=76
47040 On ch=1 n=62 v=95
47040 On ch=1 n=55 v=95
47208 Off ch=5 n=43 v=64
47268 On ch=5 n=43 v=76
47280 Off ch=1 n=62 v=64
47280 Off ch=1 n=55 v=64
47448 Off ch=5 n=43 v=64
47508 On ch=5 n=43 v=76
47520 On ch=1 n=62 v=95
47520 On ch=1 n=55 v=95
47688 Off ch=5 n=43 v=64
47748 On ch=5 n=43 v=76
47760 Off ch=1 n=62 v=64
47760 Off ch=1 n=55 v=64
47928 Off ch=5 n=43 v=64
47988 On ch=5 n=43 v=76
48000 On ch=1 n=62 v=95
48000 On ch=1 n=55 v=95
48168 Off ch=5 n=43 v=64
48228 On ch=5 n=43 v=76
48240 Off ch=1 n=62 v=64
48240 Off ch=1 n=55 v=64
48408 Off ch=5 n=43 v=64
48468 On ch=5 n=43 v=76
48476 Off ch=10 n=57 v=64
48480 On ch=1 n=60 v=95
48480 On ch=1 n=55 v=95
48648 Off ch=5 n=43 v=64
48680 Meta Lyric "\r"
48708 On ch=5 n=43 v=76
48720 Off ch=1 n=60 v=64
48720 Off ch=1 n=55 v=64
48888 Off ch=5 n=43 v=64
48948 On ch=5 n=43 v=76
48960 On ch=1 n=60 v=95
48960 On ch=1 n=55 v=95
49128 Off ch=5 n=43 v=64
49188 On ch=5 n=43 v=76
49200 Off ch=1 n=60 v=64
49200 Off ch=1 n=55 v=64
49368 Off ch=5 n=43 v=64
49428 On ch=5 n=43 v=76
49440 On ch=1 n=59 v=95
49440 On ch=1 n=55 v=95
49608 Off ch=5 n=43 v=64
49668 On ch=5 n=43 v=76
49680 Off ch=1 n=59 v=64
49680 Off ch=1 n=55 v=64
49680 Meta Lyric "THAT "
49689 On ch=11 n=67 v=127
49848 Off ch=5 n=43 v=64
49908 On ch=5 n=43 v=76
49920 On ch=1 n=59 v=95
49920 On ch=1 n=55 v=95
49920 Meta Lyric "TO"
49929 Off ch=11 n=67 v=64
49929 On ch=11 n=67 v=127
50088 Off ch=5 n=43 v=64
50148 On ch=5 n=43 v=76
50160 Off ch=1 n=59 v=64
50160 Off ch=1 n=55 v=64
50160 Meta Lyric "NIGHT'S "
50169 Off ch=11 n=67 v=64
50169 On ch=11 n=72 v=127
50328 Off ch=5 n=43 v=64
50388 On ch=5 n=48 v=76
50400 On ch=1 n=60 v=95
50400 On ch=1 n=55 v=95
50504 Meta Lyric "\r"
50568 Off ch=5 n=48 v=64
50628 On ch=5 n=48 v=76
50640 Off ch=1 n=60 v=64
50640 Off ch=1 n=55 v=64
50640 Meta Lyric "GO"
50649 Off ch=11 n=72 v=64
50649 On ch=11 n=71 v=127
50808 Off ch=5 n=48 v=64
50868 On ch=5 n=48 v=76
50880 On ch=1 n=60 v=95
50880 On ch=1 n=55 v=95
50880 Meta Lyric "NNA "
50889 Off ch=11 n=71 v=64
50889 On ch=11 n=69 v=127
51048 Off ch=5 n=48 v=64
51108 On ch=5 n=48 v=76
51120 Off ch=1 n=60 v=64
51120 Off ch=1 n=55 v=64
51120 Meta Lyric "BE "
51129 Off ch=11 n=69 v=64
51129 On ch=11 n=67 v=127
51288 Off ch=5 n=48 v=64
51348 On ch=5 n=48 v=76
51360 On ch=1 n=60 v=95
51360 On ch=1 n=55 v=95
51489 Off ch=11 n=67 v=64
51528 Off ch=5 n=48 v=64
51588 On ch=5 n=48 v=76
51600 Off ch=1 n=60 v=64
51600 Off ch=1 n=55 v=64
51600 Meta Lyric "A "
51609 On ch=11 n=64 v=127
51768 Off ch=5 n=48 v=64
51828 On ch=5 n=48 v=76
51840 On ch=1 n=60 v=95
51840 On ch=1 n=55 v=95
52008 Off ch=5 n=48 v=64
52068 On ch=5 n=48 v=76
52080 Off ch=1 n=60 v=64
52080 Off ch=1 n=55 v=64
52080 Meta Lyric "GOOD "
52089 Off ch=11 n=64 v=64
52089 On ch=11 n=72 v=127
52248 Off ch=5 n=48 v=64
52308 On ch=5 n=48 v=76
52320 On ch=1 n=60 v=95
52320 On ch=1 n=55 v=95
52488 Off ch=5 n=48 v=64
52548 On ch=5 n=48 v=76
52560 Off ch=1 n=60 v=64
52560 Off ch=1 n=55 v=64
52560 Meta Lyric "NIGHT "
52569 Off ch=11 n=72 v=64
52569 On ch=11 n=71 v=127
52728 Off ch=5 n=48 v=64
52788 On ch=5 n=48 v=76
52800 On ch=1 n=60 v=95
52800 On ch=1 n=55 v=95
52809 Off ch=11 n=71 v=64
52968 Off ch=5 n=48 v=64
53028 On ch=5 n=48 v=76
53040 Off ch=1 n=60 v=64
53040 Off ch=1 n=55 v=64
53208 Off ch=5 n=48 v=64
53264 Meta Lyric "\r"
53268 On ch=5 n=48 v=76
53280 On ch=1 n=60 v=95
53280 On ch=1 n=55 v=95
53448 Off ch=5 n=48 v=64
53508 On ch=5 n=50 v=76
53520 Off ch=1 n=60 v=64
53520 Off ch=1 n=55 v=64
53520 Meta Lyric "THAT "
53529 On ch=11 n=67 v=127
53688 Off ch=5 n=50 v=64
53748 On ch=5 n=50 v=76
53760 On ch=1 n=60 v=95
53760 On ch=1 n=55 v=95
53760 Meta Lyric "TO"
53769 On ch=11 n=67 v=127
53928 Off ch=5 n=50 v=64
53988 On ch=5 n=50 v=76
54000 Off ch=1 n=60 v=64
54000 Off ch=1 n=55 v=64
54000 Meta Lyric "NIGHT'S "
54009 Off ch=11 n=67 v=64
54009 On ch=11 n=72 v=127
54168 Off ch=5 n=50 v=64
54228 On ch=5 n=52 v=76
54240 On ch=1 n=59 v=95
54240 On ch=1 n=55 v=95
54356 Meta Lyric "\r"
54408 Off ch=5 n=52 v=64
54468 On ch=5 n=52 v=76
54480 Off ch=1 n=59 v=64
54480 Off ch=1 n=55 v=64
54480 Meta Lyric "GO"
54489 Off ch=11 n=72 v=64
54489 On ch=11 n=71 v=127
54648 Off ch=5 n=52 v=64
54708 On ch=5 n=52 v=76
54720 On ch=1 n=59 v=95
54720 On ch=1 n=55 v=95
54720 Meta Lyric "NNA "
54729 Off ch=11 n=71 v=64
54729 On ch=11 n=69 v=127
54888 Off ch=5 n=52 v=64
54948 On ch=5 n=52 v=76
54960 Off ch=1 n=59 v=64
54960 Off ch=1 n=55 v=64
54960 Meta Lyric "BE "
54969 Off ch=11 n=69 v=64
54969 On ch=11 n=67 v=127
55128 Off ch=5 n=52 v=64
55188 On ch=5 n=52 v=76
55200 On ch=1 n=59 v=95
55200 On ch=1 n=55 v=95
55329 Off ch=11 n=67 v=64
55368 Off ch=5 n=52 v=64
55428 On ch=5 n=52 v=76
55440 Off ch=1 n=59 v=64
55440 Off ch=1 n=55 v=64
55440 Meta Lyric "A "
55449 On ch=11 n=64 v=127
55608 Off ch=5 n=52 v=64
55668 On ch=5 n=52 v=76
55680 On ch=1 n=59 v=95
55680 On ch=1 n=55 v=95
55848 Off ch=5 n=52 v=64
55908 On ch=5 n=52 v=76
55920 Off ch=1 n=59 v=64
55920 Off ch=1 n=55 v=64
55920 Meta Lyric "GOOD "
55929 Off ch=11 n=64 v=64
55929 On ch=11 n=74 v=127
56088 Off ch=5 n=52 v=64
56148 On ch=5 n=52 v=76
56160 On ch=1 n=59 v=95
56160 On ch=1 n=55 v=95
56328 Off ch=5 n=52 v=64
56388 On ch=5 n=52 v=76
56400 Off ch=1 n=59 v=64
56400 Off ch=1 n=55 v=64
56400 Meta Lyric "NIGHT "
56409 Off ch=11 n=74 v=64
56409 On ch=11 n=71 v=127
56568 Off ch=5 n=52 v=64
56628 On ch=5 n=52 v=76
56640 On ch=1 n=59 v=95
56640 On ch=1 n=55 v=95
56649 Off ch=11 n=71 v=64
56808 Off ch=5 n=52 v=64
56868 On ch=5 n=52 v=76
56880 Off ch=1 n=59 v=64
56880 Off ch=1 n=55 v=64
57048 Off ch=5 n=52 v=64
57108 On ch=5 n=52 v=76
57120 On ch=1 n=59 v=95
57120 On ch=1 n=55 v=95
57209 Meta Lyric "\r"
57288 Off ch=5 n=52 v=64
57348 On ch=5 n=50 v=76
57360 Off ch=1 n=59 v=64
57360 Off ch=1 n=55 v=64
57360 Meta Lyric "THAT "
57369 On ch=11 n=67 v=127
57528 Off ch=5 n=50 v=64
57588 On ch=5 n=50 v=76
57600 On ch=1 n=59 v=95
57600 On ch=1 n=55 v=95
57600 Meta Lyric "TO"
57609 On ch=11 n=67 v=127
57840 Off ch=1 n=59 v=64
57840 Off ch=1 n=55 v=64
57840 Meta Lyric "NIGHT'S "
57849 Off ch=11 n=67 v=64
57849 On ch=11 n=74 v=127
57948 Off ch=5 n=50 v=64
58068 On ch=5 n=48 v=76
58080 On ch=1 n=60 v=95
58080 On ch=1 n=55 v=95
58190 Meta Lyric "\r"
58248 Off ch=5 n=48 v=64
58308 On ch=5 n=48 v=76
58320 Off ch=1 n=60 v=64
58320 Off ch=1 n=55 v=64
58320 Meta Lyric "GO"
58329 Off ch=11 n=74 v=64
58329 On ch=11 n=71 v=127
58488 Off ch=5 n=48 v=64
58548 On ch=5 n=48 v=76
58560 On ch=1 n=60 v=95
58560 On ch=1 n=55 v=95
58560 Meta Lyric "NNA "
58569 Off ch=11 n=71 v=64
58569 On ch=11 n=69 v=127
58728 Off ch=5 n=48 v=64
58788 On ch=5 n=48 v=76
58800 Off ch=1 n=60 v=64
58800 Off ch=1 n=55 v=64
58800 Meta Lyric "BE "
58809 Off ch=11 n=69 v=64
58809 On ch=11 n=67 v=127
58968 Off ch=5 n=48 v=64
59028 On ch=5 n=48 v=76
59040 On ch=1 n=60 v=95
59040 On ch=1 n=55 v=95
59169 Off ch=11 n=67 v=64
59208 Off ch=5 n=48 v=64
59268 On ch=5 n=48 v=76
59280 Off ch=1 n=60 v=64
59280 Off ch=1 n=55 v=64
59280 Meta Lyric "A "
59289 On ch=11 n=64 v=127
59448 Off ch=5 n=48 v=64
59508 On ch=5 n=48 v=76
59520 On ch=1 n=60 v=95
59520 On ch=1 n=55 v=95
59688 Off ch=5 n=48 v=64
59748 On ch=5 n=48 v=76
59760 Off ch=1 n=60 v=64
59760 Off ch=1 n=55 v=64
59760 Meta Lyric "GOOD "
59769 Off ch=11 n=64 v=64
59769 On ch=11 n=74 v=127
59928 Off ch=5 n=48 v=64
59988 On ch=5 n=48 v=76
60000 On ch=1 n=60 v=95
60000 On ch=1 n=55 v=95
60129 Off ch=11 n=74 v=64
60168 Off ch=5 n=48 v=64
60228 On ch=5 n=48 v=76
60240 Off ch=1 n=60 v=64
60240 Off ch=1 n=55 v=64
60240 Meta Lyric "GOOD "
60249 On ch=11 n=74 v=127
60408 Off ch=5 n=48 v=64
60468 On ch=5 n=48 v=76
60480 On ch=1 n=60 v=95
60480 On ch=1 n=55 v=95
60609 Off ch=11 n=74 v=64
60648 Off ch=5 n=48 v=64
60708 On ch=5 n=48 v=76
60720 Off ch=1 n=60 v=64
60720 Off ch=1 n=55 v=64
60720 Meta Lyric "NIG"
60729 On ch=11 n=71 v=127
60888 Off ch=5 n=48 v=64
60948 On ch=5 n=48 v=76
60960 On ch=1 n=60 v=95
60960 On ch=1 n=55 v=95
60960 Meta Lyric "H"
60969 Off ch=11 n=71 v=64
60969 On ch=11 n=69 v=127
61128 Off ch=5 n=48 v=64
61188 On ch=5 n=48 v=76
61200 Off ch=1 n=60 v=64
61200 Off ch=1 n=55 v=64
61200 Meta Lyric "T "
61209 Off ch=11 n=69 v=64
61209 On ch=11 n=67 v=127
61359 Meta Lyric "\r"
61368 Off ch=5 n=48 v=64
61427 Meta Lyric "A "
61428 On ch=5 n=48 v=76
61436 On ch=11 n=67 v=127
61440 On ch=1 n=60 v=95
61440 On ch=1 n=55 v=95
61449 Off ch=11 n=67 v=64
61608 Off ch=5 n=48 v=64
61667 Meta Lyric "FEE"
61668 On ch=5 n=48 v=76
61676 Off ch=11 n=67 v=64
61676 On ch=11 n=72 v=127
61680 Off ch=1 n=60 v=64
61680 Off ch=1 n=55 v=64
61848 Off ch=5 n=48 v=64
61907 Meta Lyric "LING "
61908 On ch=5 n=43 v=76
61916 Off ch=11 n=72 v=64
61916 On ch=11 n=71 v=127
61920 On ch=1 n=62 v=95
61920 On ch=1 n=55 v=95
61935 On ch=3 n=31 v=95
61935 On ch=10 n=57 v=95
61935 On ch=10 n=35 v=95
62088 Off ch=5 n=43 v=64
62148 On ch=5 n=43 v=76
62156 Off ch=11 n=71 v=64
62160 Off ch=1 n=62 v=64
62160 Off ch=1 n=55 v=64
62175 Off ch=3 n=31 v=64
62175 On ch=3 n=31 v=95
62175 Off ch=10 n=57 v=64
62175 Off ch=10 n=35 v=64
62175 On ch=10 n=42 v=95
62328 Off ch=5 n=43 v=64
62388 On ch=5 n=43 v=76
62400 On ch=1 n=62 v=95
62400 On ch=1 n=55 v=95
62415 Off ch=3 n=31 v=64
62415 On ch=3 n=31 v=95
62415 Off ch=10 n=42 v=64
62415 On ch=10 n=42 v=95
62415 On ch=10 n=38 v=95
62568 Off ch=5 n=43 v=64
62628 On ch=5 n=43 v=76
62640 Off ch=1 n=62 v=64
62640 Off ch=1 n=55 v=64
62655 Off ch=3 n=31 v=64
62655 On ch=3 n=31 v=95
62655 Off ch=10 n=42 v=64
62655 Off ch=10 n=38 v=64
62655 On ch=10 n=42 v=95
62789 Meta Lyric "\r"
62808 Off ch=5 n=43 v=64
62868 On ch=5 n=43 v=76
62880 On ch=1 n=62 v=95
62880 On ch=1 n=55 v=95
62880 Meta Lyric "WOO "
62889 On ch=11 n=81 v=85
62895 Off ch=3 n=31 v=64
62895 On ch=3 n=31 v=95
62895 Off ch=10 n=42 v=64
62895 On ch=10 n=42 v=95
62895 On ch=10 n=35 v=95
63048 Off ch=5 n=43 v=64
63108 On ch=5 n=43 v=76
63120 Off ch=1 n=62 v=64
63120 Off ch=1 n=55 v=64
63135 Off ch=3 n=31 v=64
63135 On ch=3 n=31 v=95
63135 Off ch=10 n=42 v=64
63135 Off ch=10 n=35 v=64
63135 On ch=10 n=42 v=95
63288 Off ch=5 n=43 v=64
63348 On ch=5 n=43 v=76
63360 On ch=1 n=62 v=95
63360 On ch=1 n=55 v=95
63375 Off ch=3 n=31 v=64
63375 On ch=3 n=31 v=95
63375 Off ch=10 n=42 v=64
63375 On ch=10 n=42 v=95
63375 On ch=10 n=38 v=95
63528 Off ch=5 n=43 v=64
63588 On ch=5 n=43 v=76
63600 Off ch=1 n=62 v=64
63600 Off ch=1 n=55 v=64
63615 Off ch=3 n=31 v=64
63615 On ch=3 n=31 v=95
63615 Off ch=10 n=42 v=64
63615 Off ch=10 n=38 v=64
63615 On ch=10 n=42 v=95
63768 Off ch=5 n=43 v=64
63828 On ch=5 n=43 v=76
63840 On ch=1 n=60 v=95
63840 On ch=1 n=55 v=95
63840 Meta Lyric "HOO "
63849 Off ch=11 n=81 v=64
63849 On ch=11 n=79 v=85
63855 Off ch=3 n=31 v=64
63855 On ch=3 n=31 v=95
63855 Off ch=10 n=42 v=64
63855 On ch=10 n=42 v=95
63855 On ch=10 n=35 v=95
64008 Off ch=5 n=43 v=64
64068 On ch=5 n=43 v=76
64080 Off ch=1 n=60 v=64
64080 Off ch=1 n=55 v=64
64095 Off ch=3 n=31 v=64
64095 On ch=3 n=31 v=95
64095 Off ch=10 n=42 v=64
64095 Off ch=10 n=35 v=64
64095 On ch=10 n=42 v=95
64248 Off ch=5 n=43 v=64
64308 On ch=5 n=43 v=76
64320 On ch=1 n=60 v=95
64320 On ch=1 n=55 v=95
64335 Off ch=3 n=31 v=64
64335 On ch=3 n=31 v=95
64335 Off ch=10 n=42 v=64
64335 On ch=10 n=42 v=95
64335 On ch=10 n=38 v=95
64488 Off ch=5 n=43 v=64
64548 On ch=5 n=43 v=76
64560 Off ch=1 n=60 v=64
64560 Off ch=1 n=55 v=64
64569 Off ch=11 n=79 v=64
64575 Off ch=3 n=31 v=64
64575 On ch=3 n=31 v=95
64575 Off ch=10 n=42 v=64
64575 Off ch=10 n=38 v=64
64575 On ch=10 n=42 v=95
64728 Off ch=5 n=43 v=64
64788 On ch=5 n=43 v=76
64793 Meta Lyric "\r"
64800 On ch=1 n=59 v=95
64800 On ch=1 n=55 v=95
64815 Off ch=3 n=31 v=64
64815 On ch=3 n=31 v=95
64815 Off ch=10 n=42 v=64
64815 On ch=10 n=42 v=95
64815 On ch=10 n=35 v=95
64968 Off ch=5 n=43 v=64
65028 On ch=5 n=43 v=76
65040 Off ch=1 n=59 v=64
65040 Off ch=1 n=55 v=64
65040 Meta Lyric "THAT "
65049 On ch=11 n=67 v=127
65055 Off ch=3 n=31 v=64
65055 On ch=3 n=31 v=95
65055 Off ch=10 n=42 v=64
65055 Off ch=10 n=35 v=64
65055 On ch=10 n=42 v=95
65208 Off ch=5 n=43 v=64
65268 On ch=5 n=43 v=76
65280 On ch=1 n=59 v=95
65280 On ch=1 n=55 v=95
65280 Meta Lyric "TO"
65289 Off ch=11 n=67 v=64
65289 On ch=11 n=67 v=127
65295 Off ch=3 n=31 v=64
65295 On ch=3 n=31 v=95
65295 Off ch=10 n=42 v=64
65295 On ch=10 n=42 v=95
65295 On ch=10 n=38 v=95
65448 Off ch=5 n=43 v=64
65508 On ch=5 n=43 v=76
65520 Off ch=1 n=59 v=64
65520 Off ch=1 n=55 v=64
65520 Meta Lyric "NIGHT'S "
65529 Off ch=11 n=67 v=64
65529 On ch=11 n=72 v=127
65535 Off ch=3 n=31 v=64
65535 On ch=3 n=31 v=95
65535 Off ch=10 n=42 v=64
65535 Off ch=10 n=38 v=64
65535 On ch=10 n=42 v=95
65688 Off ch=5 n=43 v=64
65748 On ch=5 n=48 v=76
65760 On ch=1 n=60 v=95
65760 On ch=1 n=55 v=95
65775 Off ch=3 n=31 v=64
65775 On ch=3 n=36 v=95
65775 Off ch=10 n=42 v=64
65775 On ch=10 n=42 v=95
65775 On ch=10 n=35 v=95
65928 Off ch=5 n=48 v=64
65945 Meta Lyric "\r"
65988 On ch=5 n=48 v=76
66000 Off ch=1 n=60 v=64
66000 Off ch=1 n=55 v=64
66000 Meta Lyric "GO"
66009 Off ch=11 n=72 v=64
66009 On ch=11 n=71 v=127
66015 Off ch=3 n=36 v=64
66015 On ch=3 n=36 v=95
66015 Off ch=10 n=42 v=64
66015 Off ch=10 n=35 v=64
66015 On ch=10 n=42 v=95
66168 Off ch=5 n=48 v=64
66228 On ch=5 n=48 v=76
66240 On ch=1 n=60 v=95
66240 On ch=1 n=55 v=95
66240 Meta Lyric "NNA "
66249 Off ch=11 n=71 v=64
66249 On ch=11 n=69 v=127
66255 Off ch=3 n=36 v=64
66255 On ch=3 n=36 v=95
66255 Off ch=10 n=42 v=64
66255 On ch=10 n=42 v=95
66255 On ch=10 n=38 v=95
66408 Off ch=5 n=48 v=64
66468 On ch=5 n=48 v=76
66480 Off ch=1 n=60 v=64
66480 Off ch=1 n=55 v=64
66480 Meta Lyric "BE "
66489 Off ch=11 n=69 v=64
66489 On ch=11 n=67 v=127
66495 Off ch=3 n=36 v=64
66495 On ch=3 n=36 v=95
66495 Off ch=10 n=42 v=64
66495 Off ch=10 n=38 v=64
66495 On ch=10 n=42 v=95
66648 Off ch=5 n=48 v=64
66708 On ch=5 n=48 v=76
66720 On ch=1 n=60 v=95
66720 On ch=1 n=55 v=95
66735 Off ch=3 n=36 v=64
66735 On ch=3 n=36 v=95
66735 Off ch=10 n=42 v=64
66735 On ch=10 n=42 v=95
66735 On ch=10 n=35 v=95
66849 Off ch=11 n=67 v=64
66888 Off ch=5 n=48 v=64
66948 On ch=5 n=48 v=76
66960 Off ch=1 n=60 v=64
66960 Off ch=1 n=55 v=64
66960 Meta Lyric "A "
66969 On ch=11 n=64 v=127
66975 Off ch=3 n=36 v=64
66975 On ch=3 n=36 v=95
66975 Off ch=10 n=42 v=64
66975 Off ch=10 n=35 v=64
66975 On ch=10 n=42 v=95
67128 Off ch=5 n=48 v=64
67188 On ch=5 n=48 v=76
67200 On ch=1 n=60 v=95
67200 On ch=1 n=55 v=95
67215 Off ch=3 n=36 v=64
67215 On ch=3 n=36 v=95
67215 Off ch=10 n=42 v=64
67215 On ch=10 n=42 v=95
67215 On ch=10 n=38 v=95
67368 Off ch=5 n=48 v=64
67428 On ch=5 n=48 v=76
67440 Off ch=1 n=60 v=64
67440 Off ch=1 n=55 v=64
67440 Meta Lyric "GOOD "
67449 On ch=11 n=72 v=127
67449 Off ch=11 n=64 v=64
67455 Off ch=3 n=36 v=64
67455 On ch=3 n=36 v=95
67455 Off ch=10 n=42 v=64
67455 Off ch=10 n=38 v=64
67455 On ch=10 n=42 v=95
67608 Off ch=5 n=48 v=64
67668 On ch=5 n=48 v=76
67680 On ch=1 n=60 v=95
67680 On ch=1 n=55 v=95
67695 Off ch=3 n=36 v=64
67695 On ch=3 n=36 v=95
67695 Off ch=10 n=42 v=64
67695 On ch=10 n=42 v=95
67695 On ch=10 n=35 v=95
67848 Off ch=5 n=48 v=64
67908 On ch=5 n=48 v=76
67920 Off ch=1 n=60 v=64
67920 Off ch=1 n=55 v=64
67920 Meta Lyric "NIGHT "
67929 On ch=11 n=71 v=127
67929 Off ch=11 n=72 v=64
67935 Off ch=3 n=36 v=64
67935 On ch=3 n=36 v=95
67935 Off ch=10 n=42 v=64
67935 Off ch=10 n=35 v=64
67935 On ch=10 n=42 v=95
68088 Off ch=5 n=48 v=64
68148 On ch=5 n=48 v=76
68160 On ch=1 n=60 v=95
68160 On ch=1 n=55 v=95
68169 Off ch=11 n=71 v=64
68175 Off ch=3 n=36 v=64
68175 On ch=3 n=36 v=95
68175 Off ch=10 n=42 v=64
68175 On ch=10 n=42 v=95
68175 On ch=10 n=38 v=95
68328 Off ch=5 n=48 v=64
68388 On ch=5 n=48 v=76
68400 Off ch=1 n=60 v=64
68400 Off ch=1 n=55 v=64
68415 Off ch=3 n=36 v=64
68415 On ch=3 n=36 v=95
68415 Off ch=10 n=42 v=64
68415 Off ch=10 n=38 v=64
68415 On ch=10 n=42 v=95
68550 Meta Lyric "\r"
68568 Off ch=5 n=48 v=64
68628 On ch=5 n=48 v=76
68640 On ch=1 n=60 v=95
68640 On ch=1 n=55 v=95
68655 Off ch=3 n=36 v=64
68655 On ch=3 n=38 v=95
68655 Off ch=10 n=42 v=64
68655 On ch=10 n=42 v=95
68655 On ch=10 n=35 v=95
68808 Off ch=5 n=48 v=64
68867 Meta Lyric "THAT "
68868 On ch=5 n=50 v=76
68876 On ch=11 n=67 v=127
68880 Off ch=1 n=60 v=64
68880 Off ch=1 n=55 v=64
68895 Off ch=3 n=38 v=64
68895 On ch=3 n=38 v=95
68895 Off ch=10 n=42 v=64
68895 Off ch=10 n=35 v=64
68895 On ch=10 n=42 v=95
69048 Off ch=5 n=50 v=64
69107 Meta Lyric "TO"
69108 On ch=5 n=50 v=76
69116 On ch=11 n=67 v=127
69120 On ch=1 n=60 v=95
69120 On ch=1 n=55 v=95
69135 Off ch=3 n=38 v=64
69135 On ch=3 n=38 v=95
69135 Off ch=10 n=42 v=64
69135 On ch=10 n=42 v=95
69135 On ch=10 n=38 v=95
69288 Off ch=5 n=50 v=64
69347 Meta Lyric "NIGHT'S "
69348 On ch=5 n=50 v=76
69356 Off ch=11 n=67 v=64
69356 On ch=11 n=72 v=127
69360 Off ch=1 n=60 v=64
69360 Off ch=1 n=55 v=64
69375 Off ch=3 n=38 v=64
69375 On ch=3 n=38 v=95
69375 Off ch=10 n=42 v=64
69375 Off ch=10 n=38 v=64
69375 On ch=10 n=42 v=95
69528 Off ch=5 n=50 v=64
69588 On ch=5 n=52 v=76
69600 On ch=1 n=59 v=95
69600 On ch=1 n=55 v=95
69615 Off ch=3 n=38 v=64
69615 On ch=3 n=40 v=95
69615 Off ch=10 n=42 v=64
69615 On ch=10 n=42 v=95
69615 On ch=10 n=35 v=95
69691 Meta Lyric "\r"
69768 Off ch=5 n=52 v=64
69827 Meta Lyric "GO"
69828 On ch=5 n=52 v=76
69836 Off ch=11 n=72 v=64
69836 On ch=11 n=71 v=127
69840 Off ch=1 n=59 v=64
69840 Off ch=1 n=55 v=64
69855 Off ch=3 n=40 v=64
69855 On ch=3 n=40 v=95
69855 Off ch=10 n=42 v=64
69855 Off ch=10 n=35 v=64
69855 On ch=10 n=42 v=95
70008 Off ch=5 n=52 v=64
70067 Meta Lyric "NNA "
70068 On ch=5 n=52 v=76
70076 Off ch=11 n=71 v=64
70076 On ch=11 n=69 v=127
70080 On ch=1 n=59 v=95
70080 On ch=1 n=55 v=95
70095 Off ch=3 n=40 v=64
70095 On ch=3 n=40 v=95
70095 Off ch=10 n=42 v=64
70095 On ch=10 n=42 v=95
70095 On ch=10 n=38 v=95
70248 Off ch=5 n=52 v=64
70307 Meta Lyric "BE "
70308 On ch=5 n=52 v=76
70316 Off ch=11 n=69 v=64
70316 On ch=11 n=67 v=127
70320 Off ch=1 n=59 v=64
70320 Off ch=1 n=55 v=64
70335 Off ch=3 n=40 v=64
70335 On ch=3 n=40 v=95
70335 Off ch=10 n=42 v=64
70335 Off ch=10 n=38 v=64
70335 On ch=10 n=42 v=95
70488 Off ch=5 n=52 v=64
70548 On ch=5 n=52 v=76
70560 On ch=1 n=59 v=95
70560 On ch=1 n=55 v=95
70575 Off ch=3 n=40 v=64
70575 On ch=3 n=40 v=95
70575 Off ch=10 n=42 v=64
70575 On ch=10 n=42 v=95
70575 On ch=10 n=35 v=95
70676 Off ch=11 n=67 v=64
70728 Off ch=5 n=52 v=64
70787 Meta Lyric "A "
70788 On ch=5 n=52 v=76
70796 On ch=11 n=64 v=127
70800 Off ch=1 n=59 v=64
70800 Off ch=1 n=55 v=64
70815 Off ch=3 n=40 v=64
70815 On ch=3 n=40 v=95
70815 Off ch=10 n=42 v=64
70815 Off ch=10 n=35 v=64
70815 On ch=10 n=42 v=95
70968 Off ch=5 n=52 v=64
71028 On ch=5 n=52 v=76
71040 On ch=1 n=59 v=95
71040 On ch=1 n=55 v=95
71055 Off ch=3 n=40 v=64
71055 On ch=3 n=40 v=95
71055 Off ch=10 n=42 v=64
71055 On ch=10 n=42 v=95
71055 On ch=10 n=38 v=95
71208 Off ch=5 n=52 v=64
71267 Meta Lyric "GOOD "
71268 On ch=5 n=52 v=76
71276 Off ch=11 n=64 v=64
71276 On ch=11 n=74 v=127
71280 Off ch=1 n=59 v=64
71280 Off ch=1 n=55 v=64
71295 Off ch=3 n=40 v=64
71295 On ch=3 n=40 v=95
71295 Off ch=10 n=42 v=64
71295 Off ch=10 n=38 v=64
71295 On ch=10 n=42 v=95
71448 Off ch=5 n=52 v=64
71508 On ch=5 n=52 v=76
71520 On ch=1 n=59 v=95
71520 On ch=1 n=55 v=95
71535 Off ch=3 n=40 v=64
71535 On ch=3 n=40 v=95
71535 Off ch=10 n=42 v=64
71535 On ch=10 n=42 v=95
71535 On ch=10 n=35 v=95
71688 Off ch=5 n=52 v=64
71747 Meta Lyric "NIGHT "
71748 On ch=5 n=52 v=76
71756 Off ch=11 n=74 v=64
71756 On ch=11 n=71 v=127
71760 Off ch=1 n=59 v=64
71760 Off ch=1 n=55 v=64
71775 Off ch=3 n=40 v=64
71775 On ch=3 n=40 v=95
71775 Off ch=10 n=42 v=64
71775 Off ch=10 n=35 v=64
71775 On ch=10 n=42 v=95
71928 Off ch=5 n=52 v=64
71988 On ch=5 n=52 v=76
71996 Off ch=11 n=71 v=64
72000 On ch=1 n=59 v=95
72000 On ch=1 n=55 v=95
72015 Off ch=3 n=40 v=64
72015 On ch=3 n=40 v=95
72015 Off ch=10 n=42 v=64
72015 On ch=10 n=42 v=95
72015 On ch=10 n=38 v=95
72168 Off ch=5 n=52 v=64
72228 On ch=5 n=52 v=76
72240 Off ch=1 n=59 v=64
72240 Off ch=1 n=55 v=64
72255 Off ch=3 n=40 v=64
72255 On ch=3 n=40 v=95
72255 Off ch=10 n=42 v=64
72255 Off ch=10 n=38 v=64
72255 On ch=10 n=42 v=95
72379 Meta Lyric "\r"
72408 Off ch=5 n=52 v=64
72468 On ch=5 n=52 v=76
72480 On ch=1 n=59 v=95
72480 On ch=1 n=55 v=95
72495 Off ch=3 n=40 v=64
72495 On ch=3 n=38 v=95
72495 Off ch=10 n=42 v=64
72495 On ch=10 n=42 v=95
72495 On ch=10 n=35 v=95
72648 Off ch=5 n=52 v=64
72707 Meta Lyric "THAT "
72708 On ch=5 n=50 v=76
72716 On ch=11 n=67 v=127
72720 Off ch=1 n=59 v=64
72720 Off ch=1 n=55 v=64
72735 Off ch=3 n=38 v=64
72735 On ch=3 n=38 v=95
72735 Off ch=10 n=42 v=64
72735 Off ch=10 n=35 v=64
72735 On ch=10 n=42 v=95
72888 Off ch=5 n=50 v=64
72947 Meta Lyric "TO"
72948 On ch=5 n=50 v=76
72956 On ch=11 n=67 v=127
72960 On ch=1 n=59 v=95
72960 On ch=1 n=55 v=95
72975 Off ch=3 n=38 v=64
72975 On ch=3 n=38 v=95
72975 Off ch=10 n=42 v=64
72975 On ch=10 n=42 v=95
72975 On ch=10 n=38 v=95
73187 Meta Lyric "NIGHT'S "
73196 Off ch=11 n=67 v=64
73196 On ch=11 n=74 v=127
73200 Off ch=1 n=59 v=64
73200 Off ch=1 n=55 v=64
73215 Off ch=3 n=38 v=64
73215 On ch=3 n=38 v=95
73215 Off ch=10 n=42 v=64
73215 Off ch=10 n=38 v=64
73215 On ch=10 n=42 v=95
73308 Off ch=5 n=50 v=64
73428 On ch=5 n=48 v=76
73440 On ch=1 n=60 v=95
73440 On ch=1 n=55 v=95
73455 Off ch=3 n=38 v=64
73455 On ch=3 n=36 v=95
73455 Off ch=10 n=42 v=64
73455 On ch=10 n=42 v=95
73455 On ch=10 n=35 v=95
73543 Meta Lyric "\r"
73608 Off ch=5 n=48 v=64
73667 Meta Lyric "GO"
73668 On ch=5 n=48 v=76
73676 Off ch=11 n=74 v=64
73676 On ch=11 n=71 v=127
73680 Off ch=1 n=60 v=64
73680 Off ch=1 n=55 v=64
73695 Off ch=3 n=36 v=64
73695 On ch=3 n=36 v=95
73695 Off ch=10 n=42 v=64
73695 Off ch=10 n=35 v=64
73695 On ch=10 n=42 v=95
73848 Off ch=5 n=48 v=64
73907 Meta Lyric "NNA "
73908 On ch=5 n=48 v=76
73916 Off ch=11 n=71 v=64
73916 On ch=11 n=69 v=127
73920 On ch=1 n=60 v=95
73920 On ch=1 n=55 v=95
73935 Off ch=3 n=36 v=64
73935 On ch=3 n=36 v=95
73935 Off ch=10 n=42 v=64
73935 On ch=10 n=42 v=95
73935 On ch=10 n=38 v=95
74088 Off ch=5 n=48 v=64
74147 Meta Lyric "BE "
74148 On ch=5 n=48 v=76
74156 Off ch=11 n=69 v=64
74156 On ch=11 n=67 v=127
74160 Off ch=1 n=60 v=64
74160 Off ch=1 n=55 v=64
74175 Off ch=3 n=36 v=64
74175 On ch=3 n=36 v=95
74175 Off ch=10 n=42 v=64
74175 Off ch=10 n=38 v=64
74175 On ch=10 n=42 v=95
74328 Off ch=5 n=48 v=64
74388 On ch=5 n=48 v=76
74400 On ch=1 n=60 v=95
74400 On ch=1 n=55 v=95
74415 Off ch=3 n=36 v=64
74415 On ch=3 n=36 v=95
74415 Off ch=10 n=42 v=64
74415 On ch=10 n=42 v=95
74415 On ch=10 n=35 v=95
74516 Off ch=11 n=67 v=64
74568 Off ch=5 n=48 v=64
74627 Meta Lyric "A "
74628 On ch=5 n=48 v=76
74636 On ch=11 n=64 v=127
74640 Off ch=1 n=60 v=64
74640 Off ch=1 n=55 v=64
74655 Off ch=3 n=36 v=64
74655 On ch=3 n=36 v=95
74655 Off ch=10 n=42 v=64
74655 Off ch=10 n=35 v=64
74655 On ch=10 n=42 v=95
74808 Off ch=5 n=48 v=64
74868 On ch=5 n=48 v=76
74880 On ch=1 n=60 v=95
74880 On ch=1 n=55 v=95
74895 Off ch=3 n=36 v=64
74895 On ch=3 n=36 v=95
74895 Off ch=10 n=42 v=64
74895 On ch=10 n=42 v=95
74895 On ch=10 n=38 v=95
75048 Off ch=5 n=48 v=64
75107 Meta Lyric "GOOD "
75108 On ch=5 n=48 v=76
75116 Off ch=11 n=64 v=64
75116 On ch=11 n=74 v=127
75120 Off ch=1 n=60 v=64
75120 Off ch=1 n=55 v=64
75135 Off ch=3 n=36 v=64
75135 On ch=3 n=36 v=95
75135 Off ch=10 n=42 v=64
75135 Off ch=10 n=38 v=64
75135 On ch=10 n=42 v=95
75288 Off ch=5 n=48 v=64
75348 On ch=5 n=48 v=76
75360 On ch=1 n=60 v=95
75360 On ch=1 n=55 v=95
75375 Off ch=3 n=36 v=64
75375 On ch=3 n=36 v=95
75375 Off ch=10 n=42 v=64
75375 On ch=10 n=42 v=95
75375 On ch=10 n=35 v=95
75476 Off ch=11 n=74 v=64
75528 Off ch=5 n=48 v=64
75587 Meta Lyric "GOOD "
75588 On ch=5 n=48 v=76
75596 On ch=11 n=74 v=127
75600 Off ch=1 n=60 v=64
75600 Off ch=1 n=55 v=64
75615 Off ch=3 n=36 v=64
75615 On ch=3 n=36 v=95
75615 Off ch=10 n=42 v=64
75615 Off ch=10 n=35 v=64
75615 On ch=10 n=42 v=95
75768 Off ch=5 n=48 v=64
75828 On ch=5 n=48 v=76
75840 On ch=1 n=60 v=95
75840 On ch=1 n=55 v=95
75855 Off ch=3 n=36 v=64
75855 On ch=3 n=36 v=95
75855 Off ch=10 n=42 v=64
75855 On ch=10 n=42 v=95
75855 On ch=10 n=38 v=95
75956 Off ch=11 n=74 v=64
76008 Off ch=5 n=48 v=64
76067 Meta Lyric "NIG"
76068 On ch=5 n=48 v=76
76076 On ch=11 n=71 v=127
76080 Off ch=1 n=60 v=64
76080 Off ch=1 n=55 v=64
76095 Off ch=3 n=36 v=64
76095 On ch=3 n=36 v=95
76095 Off ch=10 n=42 v=64
76095 Off ch=10 n=38 v=64
76095 On ch=10 n=42 v=95
76248 Off ch=5 n=48 v=64
76307 Meta Lyric "H"
76308 On ch=5 n=48 v=76
76316 Off ch=11 n=71 v=64
76316 On ch=11 n=69 v=127
76320 On ch=1 n=60 v=95
76320 On ch=1 n=55 v=95
76335 Off ch=3 n=36 v=64
76335 On ch=3 n=36 v=95
76335 Off ch=10 n=42 v=64
76335 On ch=10 n=42 v=95
76335 On ch=10 n=35 v=95
76488 Off ch=5 n=48 v=64
76547 Meta Lyric "T "
76548 On ch=5 n=48 v=76
76556 Off ch=11 n=69 v=64
76556 On ch=11 n=67 v=127
76560 Off ch=1 n=60 v=64
76560 Off ch=1 n=55 v=64
76575 Off ch=3 n=36 v=64
76575 On ch=3 n=36 v=95
76575 Off ch=10 n=42 v=64
76575 Off ch=10 n=35 v=64
76575 On ch=10 n=42 v=95
76639 Meta Lyric "\r"
76728 Off ch=5 n=48 v=64
76788 On ch=5 n=48 v=76
76796 Off ch=11 n=67 v=64
76800 On ch=1 n=60 v=95
76800 On ch=1 n=55 v=95
76800 Meta Lyric "A "
76809 On ch=11 n=67 v=127
76815 Off ch=3 n=36 v=64
76815 On ch=3 n=36 v=95
76815 Off ch=10 n=42 v=64
76815 On ch=10 n=42 v=95
76815 On ch=10 n=38 v=95
76968 Off ch=5 n=48 v=64
77028 On ch=5 n=48 v=76
77040 Off ch=1 n=60 v=64
77040 Off ch=1 n=55 v=64
77040 Meta Lyric "FEE"
77049 Off ch=11 n=67 v=64
77049 On ch=11 n=72 v=127
77055 Off ch=3 n=36 v=64
77055 On ch=3 n=36 v=95
77055 Off ch=10 n=42 v=64
77055 Off ch=10 n=38 v=64
77055 On ch=10 n=42 v=95
77208 Off ch=5 n=48 v=64
77268 On ch=5 n=43 v=76
77280 On ch=1 n=62 v=95
77280 On ch=1 n=55 v=95
77280 Meta Lyric "LING "
77289 Off ch=11 n=72 v=64
77289 On ch=11 n=71 v=127
77295 Off ch=3 n=36 v=64
77295 On ch=3 n=31 v=95
77295 Off ch=10 n=42 v=64
77295 On ch=10 n=57 v=95
77295 On ch=10 n=35 v=95
77448 Off ch=5 n=43 v=64
77508 On ch=5 n=43 v=76
77520 Off ch=1 n=62 v=64
77520 Off ch=1 n=55 v=64
77529 Off ch=11 n=71 v=64
77535 Off ch=3 n=31 v=64
77535 On ch=3 n=31 v=95
77535 Off ch=10 n=57 v=64
77535 Off ch=10 n=35 v=64
77535 On ch=10 n=42 v=95
77688 Off ch=5 n=43 v=64
77748 On ch=5 n=43 v=76
77760 On ch=1 n=62 v=95
77760 On ch=1 n=55 v=95
77775 Off ch=3 n=31 v=64
77775 On ch=3 n=31 v=95
77775 Off ch=10 n=42 v=64
77775 On ch=10 n=42 v=95
77775 On ch=10 n=38 v=95
77928 Off ch=5 n=43 v=64
77988 On ch=5 n=43 v=76
77995 Meta Lyric "\r"
78000 Off ch=1 n=62 v=64
78000 Off ch=1 n=55 v=64
78015 Off ch=3 n=31 v=64
78015 On ch=3 n=31 v=95
78015 Off ch=10 n=42 v=64
78015 Off ch=10 n=38 v=64
78015 On ch=10 n=42 v=95
78168 Off ch=5 n=43 v=64
78228 On ch=5 n=43 v=76
78240 On ch=1 n=62 v=95
78240 On ch=1 n=55 v=95
78253 Meta Lyric "WOO "
78255 Off ch=3 n=31 v=64
78255 On ch=3 n=31 v=95
78255 Off ch=10 n=42 v=64
78255 On ch=10 n=42 v=95
78255 On ch=10 n=35 v=95
78262 On ch=11 n=81 v=76
78408 Off ch=5 n=43 v=64
78468 On ch=5 n=43 v=76
78480 Off ch=1 n=62 v=64
78480 Off ch=1 n=55 v=64
78495 Off ch=3 n=31 v=64
78495 On ch=3 n=31 v=95
78495 Off ch=10 n=42 v=64
78495 Off ch=10 n=35 v=64
78495 On ch=10 n=42 v=95
78648 Off ch=5 n=43 v=64
78708 On ch=5 n=43 v=76
78720 On ch=1 n=62 v=95
78720 On ch=1 n=55 v=95
78735 Off ch=3 n=31 v=64
78735 On ch=3 n=31 v=95
78735 Off ch=10 n=42 v=64
78735 On ch=10 n=42 v=95
78735 On ch=10 n=38 v=95
78888 Off ch=5 n=43 v=64
78948 On ch=5 n=43 v=76
78960 Off ch=1 n=62 v=64
78960 Off ch=1 n=55 v=64
78975 Off ch=3 n=31 v=64
78975 On ch=3 n=31 v=95
78975 Off ch=10 n=42 v=64
78975 Off ch=10 n=38 v=64
78975 On ch=10 n=42 v=95
79128 Off ch=5 n=43 v=64
79188 On ch=5 n=43 v=76
79200 On ch=1 n=60 v=95
79200 On ch=1 n=55 v=95
79213 Meta Lyric "HOO "
79215 Off ch=3 n=31 v=64
79215 On ch=3 n=31 v=95
79215 Off ch=10 n=42 v=64
79215 On ch=10 n=42 v=95
79215 On ch=10 n=35 v=95
79222 Off ch=11 n=81 v=64
79222 On ch=11 n=79 v=76
79368 Off ch=5 n=43 v=64
79428 On ch=5 n=43 v=76
79440 Off ch=1 n=60 v=64
79440 Off ch=1 n=55 v=64
79455 Off ch=3 n=31 v=64
79455 On ch=3 n=31 v=95
79455 Off ch=10 n=42 v=64
79455 Off ch=10 n=35 v=64
79455 On ch=10 n=42 v=95
79608 Off ch=5 n=43 v=64
79668 On ch=5 n=43 v=76
79680 On ch=1 n=60 v=95
79680 On ch=1 n=55 v=95
79695 Off ch=3 n=31 v=64
79695 On ch=3 n=31 v=95
79695 Off ch=10 n=42 v=64
79695 On ch=10 n=42 v=95
79695 On ch=10 n=38 v=95
79759 Meta Lyric "\r"
79848 Off ch=5 n=43 v=64
79908 On ch=5 n=43 v=76
79920 Off ch=1 n=60 v=64
79920 Off ch=1 n=55 v=64
79935 Off ch=3 n=31 v=64
79935 On ch=3 n=31 v=95
79935 Off ch=10 n=42 v=64
79935 Off ch=10 n=38 v=64
79935 On ch=10 n=42 v=95
79942 Off ch=11 n=79 v=64
80088 Off ch=5 n=43 v=64
80148 On ch=5 n=43 v=76
80160 On ch=1 n=59 v=95
80160 On ch=1 n=55 v=95
80175 Off ch=3 n=31 v=64
80175 On ch=3 n=31 v=95
80175 Off ch=10 n=42 v=64
80175 On ch=10 n=42 v=95
80175 On ch=10 n=35 v=95
80328 Off ch=5 n=43 v=64
80388 On ch=5 n=43 v=76
80400 Off ch=1 n=59 v=64
80400 Off ch=1 n=55 v=64
80400 Meta Lyric "THAT "
80409 On ch=11 n=67 v=127
80415 Off ch=3 n=31 v=64
80415 On ch=3 n=31 v=95
80415 Off ch=10 n=42 v=64
80415 Off ch=10 n=35 v=64
80415 On ch=10 n=42 v=95
80568 Off ch=5 n=43 v=64
80628 On ch=5 n=43 v=76
80640 On ch=1 n=59 v=95
80640 On ch=1 n=55 v=95
80640 Meta Lyric "TO"
80649 Off ch=11 n=67 v=64
80649 On ch=11 n=67 v=127
80655 Off ch=3 n=31 v=64
80655 On ch=3 n=31 v=95
80655 Off ch=10 n=42 v=64
80655 On ch=10 n=42 v=95
80655 On ch=10 n=38 v=95
80808 Off ch=5 n=43 v=64
80868 On ch=5 n=43 v=76
80880 Off ch=1 n=59 v=64
80880 Off ch=1 n=55 v=64
80880 Meta Lyric "NIGHT'S "
80889 Off ch=11 n=67 v=64
80889 On ch=11 n=72 v=127
80895 Off ch=3 n=31 v=64
80895 On ch=3 n=31 v=95
80895 Off ch=10 n=42 v=64
80895 Off ch=10 n=38 v=64
80895 On ch=10 n=42 v=95
81048 Off ch=5 n=43 v=64
81108 On ch=5 n=48 v=76
81120 On ch=1 n=60 v=95
81120 On ch=1 n=55 v=95
81135 Off ch=3 n=31 v=64
81135 On ch=3 n=36 v=95
81135 Off ch=10 n=42 v=64
81135 On ch=10 n=42 v=95
81135 On ch=10 n=35 v=95
81288 Off ch=5 n=48 v=64
81331 Meta Lyric "\r"
81348 On ch=5 n=48 v=76
81360 Off ch=1 n=60 v=64
81360 Off ch=1 n=55 v=64
81360 Meta Lyric "GO"
81369 Off ch=11 n=72 v=64
81369 On ch=11 n=71 v=127
81375 Off ch=3 n=36 v=64
81375 On ch=3 n=36 v=95
81375 Off ch=10 n=42 v=64
81375 Off ch=10 n=35 v=64
81375 On ch=10 n=42 v=95
81528 Off ch=5 n=48 v=64
81588 On ch=5 n=48 v=76
81600 On ch=1 n=60 v=95
81600 On ch=1 n=55 v=95
81600 Meta Lyric "NNA "
81609 Off ch=11 n=71 v=64
81609 On ch=11 n=69 v=127
81615 Off ch=3 n=36 v=64
81615 On ch=3 n=36 v=95
81615 Off ch=10 n=42 v=64
81615 On ch=10 n=42 v=95
81615 On ch=10 n=38 v=95
81768 Off ch=5 n=48 v=64
81828 On ch=5 n=48 v=76
81840 Off ch=1 n=60 v=64
81840 Off ch=1 n=55 v=64
81840 Meta Lyric "BE "
81849 Off ch=11 n=69 v=64
81849 On ch=11 n=67 v=127
81855 Off ch=3 n=36 v=64
81855 On ch=3 n=36 v=95
81855 Off ch=10 n=42 v=64
81855 Off ch=10 n=38 v=64
81855 On ch=10 n=42 v=95
82008 Off ch=5 n=48 v=64
82068 On ch=5 n=48 v=76
82080 On ch=1 n=60 v=95
82080 On ch=1 n=55 v=95
82095 Off ch=3 n=36 v=64
82095 On ch=3 n=36 v=95
82095 Off ch=10 n=42 v=64
82095 On ch=10 n=42 v=95
82095 On ch=10 n=35 v=95
82209 Off ch=11 n=67 v=64
82248 Off ch=5 n=48 v=64
82308 On ch=5 n=48 v=76
82320 Off ch=1 n=60 v=64
82320 Off ch=1 n=55 v=64
82320 Meta Lyric "A "
82329 On ch=11 n=64 v=127
82335 Off ch=3 n=36 v=64
82335 On ch=3 n=36 v=95
82335 Off ch=10 n=42 v=64
82335 Off ch=10 n=35 v=64
82335 On ch=10 n=42 v=95
82488 Off ch=5 n=48 v=64
82548 On ch=5 n=48 v=76
82560 On ch=1 n=60 v=95
82560 On ch=1 n=55 v=95
82575 Off ch=3 n=36 v=64
82575 On ch=3 n=36 v=95
82575 Off ch=10 n=42 v=64
82575 On ch=10 n=42 v=95
82575 On ch=10 n=38 v=95
82728 Off ch=5 n=48 v=64
82788 On ch=5 n=48 v=76
82800 Off ch=1 n=60 v=64
82800 Off ch=1 n=55 v=64
82800 Meta Lyric "GOOD "
82809 Off ch=11 n=64 v=64
82809 On ch=11 n=72 v=127
82815 Off ch=3 n=36 v=64
82815 On ch=3 n=36 v=95
82815 Off ch=10 n=42 v=64
82815 Off ch=10 n=38 v=64
82815 On ch=10 n=42 v=95
82968 Off ch=5 n=48 v=64
83028 On ch=5 n=48 v=76
83040 On ch=1 n=60 v=95
83040 On ch=1 n=55 v=95
83055 Off ch=3 n=36 v=64
83055 On ch=3 n=36 v=95
83055 Off ch=10 n=42 v=64
83055 On ch=10 n=42 v=95
83055 On ch=10 n=35 v=95
83208 Off ch=5 n=48 v=64
83268 On ch=5 n=48 v=76
83280 Off ch=1 n=60 v=64
83280 Off ch=1 n=55 v=64
83280 Meta Lyric "NIGHT "
83289 Off ch=11 n=72 v=64
83289 On ch=11 n=71 v=127
83295 Off ch=3 n=36 v=64
83295 On ch=3 n=36 v=95
83295 Off ch=10 n=42 v=64
83295 Off ch=10 n=35 v=64
83295 On ch=10 n=42 v=95
83448 Off ch=5 n=48 v=64
83508 On ch=5 n=48 v=76
83520 On ch=1 n=60 v=95
83520 On ch=1 n=55 v=95
83529 Off ch=11 n=71 v=64
83535 Off ch=3 n=36 v=64
83535 On ch=3 n=36 v=95
83535 Off ch=10 n=42 v=64
83535 On ch=10 n=42 v=95
83535 On ch=10 n=38 v=95
83688 Off ch=5 n=48 v=64
83748 On ch=5 n=48 v=76
83760 Off ch=1 n=60 v=64
83760 Off ch=1 n=55 v=64
83775 Off ch=3 n=36 v=64
83775 On ch=3 n=36 v=95
83775 Off ch=10 n=42 v=64
83775 Off ch=10 n=38 v=64
83775 On ch=10 n=42 v=95
83928 Off ch=5 n=48 v=64
83988 On ch=5 n=48 v=76
84000 On ch=1 n=60 v=95
84000 On ch=1 n=55 v=95
84015 Off ch=3 n=36 v=64
84015 On ch=3 n=38 v=95
84015 Off ch=10 n=42 v=64
84015 On ch=10 n=42 v=95
84015 On ch=10 n=35 v=95
84089 Meta Lyric "\r"
84168 Off ch=5 n=48 v=64
84228 On ch=5 n=50 v=76
84240 Off ch=1 n=60 v=64
84240 Off ch=1 n=55 v=64
84240 Meta Lyric "THAT "
84249 On ch=11 n=67 v=127
84255 Off ch=3 n=38 v=64
84255 On ch=3 n=38 v=95
84255 Off ch=10 n=42 v=64
84255 Off ch=10 n=35 v=64
84255 On ch=10 n=42 v=95
84408 Off ch=5 n=50 v=64
84468 On ch=5 n=50 v=76
84480 On ch=1 n=60 v=95
84480 On ch=1 n=55 v=95
84480 Meta Lyric "TO"
84489 Off ch=11 n=67 v=64
84489 On ch=11 n=67 v=127
84495 Off ch=3 n=38 v=64
84495 On ch=3 n=38 v=95
84495 Off ch=10 n=42 v=64
84495 On ch=10 n=42 v=95
84495 On ch=10 n=38 v=95
84648 Off ch=5 n=50 v=64
84708 On ch=5 n=50 v=76
84720 Off ch=1 n=60 v=64
84720 Off ch=1 n=55 v=64
84720 Meta Lyric "NIGHT'S "
84729 Off ch=11 n=67 v=64
84729 On ch=11 n=72 v=127
84735 Off ch=3 n=38 v=64
84735 On ch=3 n=38 v=95
84735 Off ch=10 n=42 v=64
84735 Off ch=10 n=38 v=64
84735 On ch=10 n=42 v=95
84888 Off ch=5 n=50 v=64
84948 On ch=5 n=52 v=76
84960 On ch=1 n=59 v=95
84960 On ch=1 n=55 v=95
84975 Off ch=3 n=38 v=64
84975 On ch=3 n=40 v=95
84975 Off ch=10 n=42 v=64
84975 On ch=10 n=42 v=95
84975 On ch=10 n=35 v=95
85108 Meta Lyric "\r"
85128 Off ch=5 n=52 v=64
85188 On ch=5 n=52 v=76
85200 Off ch=1 n=59 v=64
85200 Off ch=1 n=55 v=64
85200 Meta Lyric "GO"
85209 Off ch=11 n=72 v=64
85209 On ch=11 n=71 v=127
85215 Off ch=3 n=40 v=64
85215 On ch=3 n=40 v=95
85215 Off ch=10 n=42 v=64
85215 Off ch=10 n=35 v=64
85215 On ch=10 n=42 v=95
85368 Off ch=5 n=52 v=64
85428 On ch=5 n=52 v=76
85440 On ch=1 n=59 v=95
85440 On ch=1 n=55 v=95
85440 Meta Lyric "NNA "
85449 Off ch=11 n=71 v=64
85449 On ch=11 n=69 v=127
85455 Off ch=3 n=40 v=64
85455 On ch=3 n=40 v=95
85455 Off ch=10 n=42 v=64
85455 On ch=10 n=42 v=95
85455 On ch=10 n=38 v=95
85608 Off ch=5 n=52 v=64
85668 On ch=5 n=52 v=76
85680 Off ch=1 n=59 v=64
85680 Off ch=1 n=55 v=64
85680 Meta Lyric "BE "
85689 Off ch=11 n=69 v=64
85689 On ch=11 n=67 v=127
85695 Off ch=3 n=40 v=64
85695 On ch=3 n=40 v=95
85695 Off ch=10 n=42 v=64
85695 Off ch=10 n=38 v=64
85695 On ch=10 n=42 v=95
85848 Off ch=5 n=52 v=64
85908 On ch=5 n=52 v=76
85920 On ch=1 n=59 v=95
85920 On ch=1 n=55 v=95
85935 Off ch=3 n=40 v=64
85935 On ch=3 n=40 v=95
85935 Off ch=10 n=42 v=64
85935 On ch=10 n=42 v=95
85935 On ch=10 n=35 v=95
86049 Off ch=11 n=67 v=64
86088 Off ch=5 n=52 v=64
86148 On ch=5 n=52 v=76
86160 Off ch=1 n=59 v=64
86160 Off ch=1 n=55 v=64
86160 Meta Lyric "A "
86169 On ch=11 n=64 v=127
86175 Off ch=3 n=40 v=64
86175 On ch=3 n=40 v=95
86175 Off ch=10 n=42 v=64
86175 Off ch=10 n=35 v=64
86175 On ch=10 n=42 v=95
86328 Off ch=5 n=52 v=64
86388 On ch=5 n=52 v=76
86400 On ch=1 n=59 v=95
86400 On ch=1 n=55 v=95
86415 Off ch=3 n=40 v=64
86415 On ch=3 n=40 v=95
86415 Off ch=10 n=42 v=64
86415 On ch=10 n=42 v=95
86415 On ch=10 n=38 v=95
86568 Off ch=5 n=52 v=64
86628 On ch=5 n=52 v=76
86640 Off ch=1 n=59 v=64
86640 Off ch=1 n=55 v=64
86640 Meta Lyric "GOOD "
86649 Off ch=11 n=64 v=64
86649 On ch=11 n=74 v=127
86655 Off ch=3 n=40 v=64
86655 On ch=3 n=40 v=95
86655 Off ch=10 n=42 v=64
86655 Off ch=10 n=38 v=64
86655 On ch=10 n=42 v=95
86808 Off ch=5 n=52 v=64
86868 On ch=5 n=52 v=76
86880 On ch=1 n=59 v=95
86880 On ch=1 n=55 v=95
86895 Off ch=3 n=40 v=64
86895 On ch=3 n=40 v=95
86895 Off ch=10 n=42 v=64
86895 On ch=10 n=42 v=95
86895 On ch=10 n=35 v=95
87048 Off ch=5 n=52 v=64
87108 On ch=5 n=52 v=76
87120 Off ch=1 n=59 v=64
87120 Off ch=1 n=55 v=64
87120 Meta Lyric "NIGHT "
87129 Off ch=11 n=74 v=64
87129 On ch=11 n=71 v=127
87135 Off ch=3 n=40 v=64
87135 On ch=3 n=40 v=95
87135 Off ch=10 n=42 v=64
87135 Off ch=10 n=35 v=64
87135 On ch=10 n=42 v=95
87288 Off ch=5 n=52 v=64
87348 On ch=5 n=52 v=76
87360 On ch=1 n=59 v=95
87360 On ch=1 n=55 v=95
87369 Off ch=11 n=71 v=64
87375 Off ch=3 n=40 v=64
87375 On ch=3 n=40 v=95
87375 Off ch=10 n=42 v=64
87375 On ch=10 n=42 v=95
87375 On ch=10 n=38 v=95
87528 Off ch=5 n=52 v=64
87588 On ch=5 n=52 v=76
87600 Off ch=1 n=59 v=64
87600 Off ch=1 n=55 v=64
87615 Off ch=3 n=40 v=64
87615 On ch=3 n=40 v=95
87615 Off ch=10 n=42 v=64
87615 Off ch=10 n=38 v=64
87615 On ch=10 n=42 v=95
87768 Off ch=5 n=52 v=64
87828 On ch=5 n=52 v=76
87840 On ch=1 n=59 v=95
87840 On ch=1 n=55 v=95
87855 Off ch=3 n=40 v=64
87855 On ch=3 n=38 v=95
87855 Off ch=10 n=42 v=64
87855 On ch=10 n=42 v=95
87855 On ch=10 n=35 v=95
87913 Meta Lyric "\r"
88008 Off ch=5 n=52 v=64
88068 On ch=5 n=50 v=76
88080 Off ch=1 n=59 v=64
88080 Off ch=1 n=55 v=64
88080 Meta Lyric "THAT "
88089 On ch=11 n=67 v=127
88095 Off ch=3 n=38 v=64
88095 On ch=3 n=38 v=95
88095 Off ch=10 n=42 v=64
88095 Off ch=10 n=35 v=64
88095 On ch=10 n=42 v=95
88248 Off ch=5 n=50 v=64
88308 On ch=5 n=50 v=76
88320 On ch=1 n=59 v=95
88320 On ch=1 n=55 v=95
88320 Meta Lyric "TO"
88329 Off ch=11 n=67 v=64
88329 On ch=11 n=67 v=127
88335 Off ch=3 n=38 v=64
88335 On ch=3 n=38 v=95
88335 Off ch=10 n=42 v=64
88335 On ch=10 n=42 v=95
88335 On ch=10 n=38 v=95
88560 Off ch=1 n=59 v=64
88560 Off ch=1 n=55 v=64
88560 Meta Lyric "NIGHT'S "
88569 Off ch=11 n=67 v=64
88569 On ch=11 n=74 v=127
88575 Off ch=3 n=38 v=64
88575 On ch=3 n=38 v=95
88575 Off ch=10 n=42 v=64
88575 Off ch=10 n=38 v=64
88575 On ch=10 n=42 v=95
88668 Off ch=5 n=50 v=64
88788 On ch=5 n=48 v=76
88800 On ch=1 n=60 v=95
88800 On ch=1 n=55 v=95
88815 Off ch=3 n=38 v=64
88815 On ch=3 n=36 v=95
88815 Off ch=10 n=42 v=64
88815 On ch=10 n=42 v=95
88815 On ch=10 n=35 v=95
88954 Meta Lyric "\r"
88968 Off ch=5 n=48 v=64
89028 On ch=5 n=48 v=76
89040 Off ch=1 n=60 v=64
89040 Off ch=1 n=55 v=64
89040 Meta Lyric "GO"
89049 Off ch=11 n=74 v=64
89049 On ch=11 n=71 v=127
89055 Off ch=3 n=36 v=64
89055 On ch=3 n=36 v=95
89055 Off ch=10 n=42 v=64
89055 Off ch=10 n=35 v=64
89055 On ch=10 n=42 v=95
89208 Off ch=5 n=48 v=64
89268 On ch=5 n=48 v=76
89280 On ch=1 n=60 v=95
89280 On ch=1 n=55 v=95
89280 Meta Lyric "NNA "
89289 Off ch=11 n=71 v=64
89289 On ch=11 n=69 v=127
89295 Off ch=3 n=36 v=64
89295 On ch=3 n=36 v=95
89295 Off ch=10 n=42 v=64
89295 On ch=10 n=42 v=95
89295 On ch=10 n=38 v=95
89448 Off ch=5 n=48 v=64
89508 On ch=5 n=48 v=76
89520 Off ch=1 n=60 v=64
89520 Off ch=1 n=55 v=64
89520 Meta Lyric "BE "
89529 Off ch=11 n=69 v=64
89529 On ch=11 n=67 v=127
89535 Off ch=3 n=36 v=64
89535 On ch=3 n=36 v=95
89535 Off ch=10 n=42 v=64
89535 Off ch=10 n=38 v=64
89535 On ch=10 n=42 v=95
89688 Off ch=5 n=48 v=64
89748 On ch=5 n=48 v=76
89760 On ch=1 n=60 v=95
89760 On ch=1 n=55 v=95
89775 Off ch=3 n=36 v=64
89775 On ch=3 n=36 v=95
89775 Off ch=10 n=42 v=64
89775 On ch=10 n=42 v=95
89775 On ch=10 n=35 v=95
89889 Off ch=11 n=67 v=64
89928 Off ch=5 n=48 v=64
89988 On ch=5 n=48 v=76
90000 Off ch=1 n=60 v=64
90000 Off ch=1 n=55 v=64
90000 Meta Lyric "A "
90009 On ch=11 n=64 v=127
90015 Off ch=3 n=36 v=64
90015 On ch=3 n=36 v=95
90015 Off ch=10 n=42 v=64
90015 Off ch=10 n=35 v=64
90015 On ch=10 n=42 v=95
90168 Off ch=5 n=48 v=64
90228 On ch=5 n=48 v=76
90240 On ch=1 n=60 v=95
90240 On ch=1 n=55 v=95
90255 Off ch=3 n=36 v=64
90255 On ch=3 n=36 v=95
90255 Off ch=10 n=42 v=64
90255 On ch=10 n=42 v=95
90255 On ch=10 n=38 v=95
90408 Off ch=5 n=48 v=64
90468 On ch=5 n=48 v=76
90480 Off ch=1 n=60 v=64
90480 Off ch=1 n=55 v=64
90480 Meta Lyric "GOOD "
90489 Off ch=11 n=64 v=64
90489 On ch=11 n=74 v=127
90495 Off ch=3 n=36 v=64
90495 On ch=3 n=36 v=95
90495 Off ch=10 n=42 v=64
90495 Off ch=10 n=38 v=64
90495 On ch=10 n=42 v=95
90648 Off ch=5 n=48 v=64
90708 On ch=5 n=48 v=76
90720 On ch=1 n=60 v=95
90720 On ch=1 n=55 v=95
90735 Off ch=3 n=36 v=64
90735 On ch=3 n=36 v=95
90735 Off ch=10 n=42 v=64
90735 On ch=10 n=42 v=95
90735 On ch=10 n=35 v=95
90849 Off ch=11 n=74 v=64
90888 Off ch=5 n=48 v=64
90948 On ch=5 n=48 v=76
90960 Off ch=1 n=60 v=64
90960 Off ch=1 n=55 v=64
90960 Meta Lyric "GOOD "
90969 On ch=11 n=74 v=127
90975 Off ch=3 n=36 v=64
90975 On ch=3 n=36 v=95
90975 Off ch=10 n=42 v=64
90975 Off ch=10 n=35 v=64
90975 On ch=10 n=42 v=95
91128 Off ch=5 n=48 v=64
91188 On ch=5 n=48 v=76
91200 On ch=1 n=60 v=95
91200 On ch=1 n=55 v=95
91215 Off ch=3 n=36 v=64
91215 On ch=3 n=36 v=95
91215 Off ch=10 n=42 v=64
91215 On ch=10 n=42 v=95
91215 On ch=10 n=38 v=95
91329 Off ch=11 n=74 v=64
91368 Off ch=5 n=48 v=64
91428 On ch=5 n=48 v=76
91440 Off ch=1 n=60 v=64
91440 Off ch=1 n=55 v=64
91440 Meta Lyric "NIG"
91449 On ch=11 n=71 v=127
91455 Off ch=3 n=36 v=64
91455 On ch=3 n=36 v=95
91455 Off ch=10 n=42 v=64
91455 Off ch=10 n=38 v=64
91455 On ch=10 n=42 v=95
91608 Off ch=5 n=48 v=64
91668 On ch=5 n=48 v=76
91680 On ch=1 n=60 v=95
91680 On ch=1 n=55 v=95
91680 Meta Lyric "H"
91689 Off ch=11 n=71 v=64
91689 On ch=11 n=69 v=127
91695 Off ch=3 n=36 v=64
91695 On ch=3 n=36 v=95
91695 Off ch=10 n=42 v=64
91695 On ch=10 n=42 v=95
91695 On ch=10 n=35 v=95
91848 Off ch=5 n=48 v=64
91908 On ch=5 n=48 v=76
91920 Off ch=1 n=60 v=64
91920 Off ch=1 n=55 v=64
91920 Meta Lyric "T "
91929 Off ch=11 n=69 v=64
91929 On ch=11 n=67 v=127
91935 Off ch=3 n=36 v=64
91935 On ch=3 n=36 v=95
91935 Off ch=10 n=42 v=64
91935 Off ch=10 n=35 v=64
91935 On ch=10 n=57 v=95
91935 On ch=10 n=38 v=95
92088 Off ch=5 n=48 v=64
92148 On ch=5 n=48 v=76
92160 On ch=1 n=60 v=95
92160 On ch=1 n=55 v=95
92169 Off ch=11 n=67 v=64
92175 Off ch=3 n=36 v=64
92175 On ch=3 n=36 v=95
92175 Off ch=10 n=57 v=64
92175 Off ch=10 n=38 v=64
92175 On ch=10 n=57 v=95
92175 On ch=10 n=38 v=95
92328 Off ch=5 n=48 v=64
92388 On ch=5 n=48 v=76
92400 Off ch=1 n=60 v=64
92400 Off ch=1 n=55 v=64
92400 On ch=1 n=64 v=95
92415 Off ch=3 n=36 v=64
92415 On ch=3 n=36 v=95
92415 Off ch=10 n=57 v=64
92415 Off ch=10 n=38 v=64
92415 On ch=10 n=57 v=95
92415 On ch=10 n=38 v=95
92568 Off ch=5 n=48 v=64
92628 On ch=5 n=50 v=95
92628 On ch=5 n=43 v=95
92655 Off ch=3 n=36 v=64
92655 On ch=3 n=31 v=95
92655 Off ch=10 n=57 v=64
92655 Off ch=10 n=38 v=64
92655 On ch=10 n=35 v=95
92675 Meta Lyric "\r"
92868 Off ch=5 n=50 v=64
92868 Off ch=5 n=43 v=64
92868 On ch=5 n=50 v=95
92868 On ch=5 n=43 v=95
92880 Off ch=1 n=64 v=64
92880 On ch=1 n=62 v=95
92880 Meta Lyric "TO"
92889 On ch=11 n=71 v=127
92895 Off ch=3 n=31 v=64
92895 On ch=3 n=31 v=95
92895 Off ch=10 n=35 v=64
92895 On ch=10 n=46 v=95
93108 Off ch=5 n=50 v=64
93108 Off ch=5 n=43 v=64
93108 On ch=5 n=50 v=95
93108 On ch=5 n=43 v=95
93120 Meta Lyric "NIGHT'S "
93129 On ch=11 n=71 v=127
93135 Off ch=3 n=31 v=64
93135 On ch=3 n=31 v=95
93135 Off ch=10 n=46 v=64
93135 On ch=10 n=38 v=95
93348 Off ch=5 n=50 v=64
93348 Off ch=5 n=43 v=64
93348 On ch=5 n=50 v=95
93348 On ch=5 n=43 v=95
93360 Off ch=1 n=62 v=64
93360 On ch=1 n=64 v=95
93360 Meta Lyric "THE "
93369 Off ch=11 n=71 v=64
93369 On ch=11 n=71 v=125
93375 Off ch=3 n=31 v=64
93375 On ch=3 n=31 v=95
93375 Off ch=10 n=38 v=64
93375 On ch=10 n=46 v=95
93588 Off ch=5 n=50 v=64
93588 Off ch=5 n=43 v=64
93588 On ch=5 n=50 v=95
93588 On ch=5 n=43 v=95
93600 Meta Lyric "NIGHT  "
93609 Off ch=11 n=71 v=64
93609 On ch=11 n=71 v=125
93615 Off ch=3 n=31 v=64
93615 On ch=3 n=31 v=95
93615 Off ch=10 n=46 v=64
93615 On ch=10 n=35 v=95
93828 Off ch=5 n=50 v=64
93828 Off ch=5 n=43 v=64
93828 On ch=5 n=50 v=95
93828 On ch=5 n=43 v=95
93840 Off ch=1 n=64 v=64
93840 On ch=1 n=62 v=95
93849 Off ch=11 n=71 v=64
93855 Off ch=3 n=31 v=64
93855 On ch=3 n=31 v=95
93855 Off ch=10 n=35 v=64
93855 On ch=10 n=46 v=95
94068 Off ch=5 n=50 v=64
94068 Off ch=5 n=43 v=64
94068 On ch=5 n=50 v=95
94068 On ch=5 n=43 v=95
94089 Off ch=11 n=71 v=64
94095 Off ch=3 n=31 v=64
94095 On ch=3 n=31 v=95
94095 Off ch=10 n=46 v=64
94095 On ch=10 n=38 v=95
94308 Off ch=5 n=50 v=64
94308 Off ch=5 n=43 v=64
94308 On ch=5 n=50 v=95
94308 On ch=5 n=43 v=95
94320 Off ch=1 n=62 v=64
94320 On ch=1 n=64 v=95
94335 Off ch=3 n=31 v=64
94335 On ch=3 n=31 v=95
94335 Off ch=10 n=38 v=64
94335 On ch=10 n=46 v=95
94548 Off ch=5 n=50 v=64
94548 Off ch=5 n=43 v=64
94548 On ch=5 n=50 v=95
94548 On ch=5 n=43 v=95
94575 Off ch=3 n=31 v=64
94575 On ch=3 n=31 v=95
94575 Off ch=10 n=46 v=64
94575 On ch=10 n=35 v=95
94703 Meta Lyric "\r"
94788 Off ch=5 n=50 v=64
94788 Off ch=5 n=43 v=64
94788 On ch=5 n=50 v=95
94788 On ch=5 n=43 v=95
94800 Off ch=1 n=64 v=64
94800 On ch=1 n=62 v=95
94800 Meta Lyric "LET'S "
94809 On ch=11 n=71 v=125
94815 Off ch=3 n=31 v=64
94815 On ch=3 n=31 v=95
94815 Off ch=10 n=35 v=64
94815 On ch=10 n=46 v=95
95028 Off ch=5 n=50 v=64
95028 Off ch=5 n=43 v=64
95028 On ch=5 n=50 v=95
95028 On ch=5 n=43 v=95
95040 Meta Lyric "LIVE "
95049 Off ch=11 n=71 v=64
95049 On ch=11 n=71 v=125
95055 Off ch=3 n=31 v=64
95055 On ch=3 n=31 v=95
95055 Off ch=10 n=46 v=64
95055 On ch=10 n=38 v=95
95268 Off ch=5 n=50 v=64
95268 Off ch=5 n=43 v=64
95268 On ch=5 n=50 v=95
95268 On ch=5 n=43 v=95
95280 Off ch=1 n=62 v=64
95280 On ch=1 n=64 v=95
95280 Meta Lyric "IT "
95289 Off ch=11 n=71 v=64
95289 On ch=11 n=69 v=125
95295 Off ch=3 n=31 v=64
95295 On ch=3 n=31 v=95
95295 Off ch=10 n=38 v=64
95295 On ch=10 n=46 v=95
95508 Off ch=5 n=50 v=64
95508 Off ch=5 n=43 v=64
95508 On ch=5 n=50 v=95
95508 On ch=5 n=43 v=95
95520 Meta Lyric "UP "
95529 Off ch=11 n=69 v=64
95529 On ch=11 n=67 v=125
95535 Off ch=3 n=31 v=64
95535 On ch=3 n=31 v=95
95535 Off ch=10 n=46 v=64
95535 On ch=10 n=35 v=95
95748 Off ch=5 n=50 v=64
95748 Off ch=5 n=43 v=64
95748 On ch=5 n=50 v=95
95748 On ch=5 n=43 v=95
95760 Off ch=1 n=64 v=64
95760 On ch=1 n=62 v=95
95769 Off ch=11 n=67 v=64
95775 Off ch=3 n=31 v=64
95775 On ch=3 n=31 v=95
95775 Off ch=10 n=35 v=64
95775 On ch=10 n=46 v=95
95988 Off ch=5 n=50 v=64
95988 Off ch=5 n=43 v=64
95988 On ch=5 n=50 v=95
95988 On ch=5 n=43 v=95
96015 Off ch=3 n=31 v=64
96015 On ch=3 n=31 v=95
96015 Off ch=10 n=46 v=64
96015 On ch=10 n=38 v=95
96228 Off ch=5 n=50 v=64
96228 Off ch=5 n=43 v=64
96228 On ch=5 n=50 v=95
96228 On ch=5 n=43 v=95
96240 Off ch=1 n=62 v=64
96240 On ch=1 n=65 v=95
96255 Off ch=3 n=31 v=64
96255 On ch=3 n=31 v=95
96255 Off ch=10 n=38 v=64
96255 On ch=10 n=46 v=95
96468 Off ch=5 n=50 v=64
96468 Off ch=5 n=43 v=64
96468 On ch=5 n=55 v=95
96468 On ch=5 n=48 v=95
96493 Meta Lyric "\r"
96495 Off ch=3 n=31 v=64
96495 On ch=3 n=36 v=95
96495 Off ch=10 n=46 v=64
96495 On ch=10 n=35 v=95
96708 Off ch=5 n=55 v=64
96708 Off ch=5 n=48 v=64
96708 On ch=5 n=55 v=95
96708 On ch=5 n=48 v=95
96720 Off ch=1 n=65 v=64
96720 On ch=1 n=64 v=95
96720 Meta Lyric "I "
96729 On ch=11 n=71 v=125
96735 Off ch=3 n=36 v=64
96735 On ch=3 n=36 v=95
96735 Off ch=10 n=35 v=64
96735 On ch=10 n=46 v=95
96948 Off ch=5 n=55 v=64
96948 Off ch=5 n=48 v=64
96948 On ch=5 n=55 v=95
96948 On ch=5 n=48 v=95
96960 Meta Lyric "GOT "
96969 Off ch=11 n=71 v=64
96969 On ch=11 n=71 v=125
96975 Off ch=3 n=36 v=64
96975 On ch=3 n=36 v=95
96975 Off ch=10 n=46 v=64
96975 On ch=10 n=38 v=95
97188 Off ch=5 n=55 v=64
97188 Off ch=5 n=48 v=64
97188 On ch=5 n=55 v=95
97188 On ch=5 n=48 v=95
97200 Off ch=1 n=64 v=64
97200 On ch=1 n=65 v=95
97200 Meta Lyric "MY "
97209 Off ch=11 n=71 v=64
97209 On ch=11 n=71 v=125
97215 Off ch=3 n=36 v=64
97215 On ch=3 n=36 v=95
97215 Off ch=10 n=38 v=64
97215 On ch=10 n=46 v=95
97428 Off ch=5 n=55 v=64
97428 Off ch=5 n=48 v=64
97428 On ch=5 n=55 v=95
97428 On ch=5 n=48 v=95
97440 Meta Lyric "MO"
97449 Off ch=11 n=71 v=64
97449 On ch=11 n=71 v=127
97455 Off ch=3 n=36 v=64
97455 On ch=3 n=36 v=95
97455 Off ch=10 n=46 v=64
97455 On ch=10 n=35 v=95
97656 Meta Lyric "NEY "
97668 Off ch=5 n=55 v=64
97668 Off ch=5 n=48 v=64
97668 On ch=5 n=55 v=95
97668 On ch=5 n=48 v=95
97680 Off ch=1 n=65 v=64
97680 On ch=1 n=64 v=95
97689 Off ch=11 n=71 v=64
97695 Off ch=3 n=36 v=64
97695 On ch=3 n=36 v=95
97695 Off ch=10 n=35 v=64
97695 On ch=10 n=46 v=95
97908 Off ch=5 n=55 v=64
97908 Off ch=5 n=48 v=64
97908 On ch=5 n=55 v=95
97908 On ch=5 n=48 v=95
97935 Off ch=3 n=36 v=64
97935 On ch=3 n=36 v=95
97935 Off ch=10 n=46 v=64
97935 On ch=10 n=38 v=95
98148 Off ch=5 n=55 v=64
98148 Off ch=5 n=48 v=64
98148 On ch=5 n=55 v=95
98148 On ch=5 n=48 v=95
98160 Off ch=1 n=64 v=64
98160 On ch=1 n=65 v=95
98175 Off ch=3 n=36 v=64
98175 On ch=3 n=36 v=95
98175 Off ch=10 n=38 v=64
98175 On ch=10 n=46 v=95
98380 Meta Lyric "\r"
98388 Off ch=5 n=55 v=64
98388 Off ch=5 n=48 v=64
98388 On ch=5 n=55 v=95
98388 On ch=5 n=48 v=95
98415 Off ch=3 n=36 v=64
98415 On ch=3 n=36 v=95
98415 Off ch=10 n=46 v=64
98415 On ch=10 n=35 v=95
98628 Off ch=5 n=55 v=64
98628 Off ch=5 n=48 v=64
98628 On ch=5 n=55 v=95
98628 On ch=5 n=48 v=95
98640 Off ch=1 n=65 v=64
98640 On ch=1 n=64 v=95
98640 Meta Lyric "LET'S "
98649 On ch=11 n=71 v=127
98655 Off ch=3 n=36 v=64
98655 On ch=3 n=36 v=95
98655 Off ch=10 n=35 v=64
98655 On ch=10 n=46 v=95
98868 Off ch=5 n=55 v=64
98868 Off ch=5 n=48 v=64
98868 On ch=5 n=55 v=95
98868 On ch=5 n=48 v=95
98880 Meta Lyric "SPEND "
98889 Off ch=11 n=71 v=64
98889 On ch=11 n=71 v=127
98895 Off ch=3 n=36 v=64
98895 On ch=3 n=36 v=95
98895 Off ch=10 n=46 v=64
98895 On ch=10 n=38 v=95
99108 Off ch=5 n=55 v=64
99108 Off ch=5 n=48 v=64
99108 On ch=5 n=55 v=95
99108 On ch=5 n=48 v=95
99120 Off ch=1 n=64 v=64
99120 On ch=1 n=65 v=95
99120 Meta Lyric "IT "
99129 Off ch=11 n=71 v=64
99129 On ch=11 n=71 v=127
99135 Off ch=3 n=36 v=64
99135 On ch=3 n=36 v=95
99135 Off ch=10 n=38 v=64
99135 On ch=10 n=46 v=95
99348 Off ch=5 n=55 v=64
99348 Off ch=5 n=48 v=64
99348 On ch=5 n=55 v=95
99348 On ch=5 n=48 v=95
99360 Meta Lyric "UP "
99369 Off ch=11 n=71 v=64
99369 On ch=11 n=71 v=127
99375 Off ch=3 n=36 v=64
99375 On ch=3 n=38 v=95
99375 Off ch=10 n=46 v=64
99375 On ch=10 n=35 v=95
99588 Off ch=5 n=55 v=64
99588 Off ch=5 n=48 v=64
99588 On ch=5 n=57 v=95
99588 On ch=5 n=50 v=95
99600 Off ch=1 n=65 v=64
99600 On ch=1 n=64 v=95
99609 Off ch=11 n=71 v=64
99615 Off ch=3 n=38 v=64
99615 On ch=3 n=38 v=95
99615 Off ch=10 n=35 v=64
99615 On ch=10 n=46 v=95
99828 Off ch=5 n=57 v=64
99828 Off ch=5 n=50 v=64
99828 On ch=5 n=57 v=95
99828 On ch=5 n=50 v=95
99855 Off ch=3 n=38 v=64
99855 On ch=3 n=38 v=95
99855 Off ch=10 n=46 v=64
99855 On ch=10 n=38 v=95
100068 Off ch=5 n=57 v=64
100068 Off ch=5 n=50 v=64
100068 On ch=5 n=57 v=95
100068 On ch=5 n=50 v=95
100080 Off ch=1 n=64 v=64
100080 On ch=1 n=67 v=95
100095 Off ch=3 n=38 v=64
100095 On ch=3 n=38 v=95
100095 Off ch=10 n=38 v=64
100095 On ch=10 n=46 v=95
100308 Off ch=5 n=57 v=64
100308 Off ch=5 n=50 v=64
100308 On ch=5 n=59 v=95
100308 On ch=5 n=52 v=95
100335 Off ch=3 n=38 v=64
100335 On ch=3 n=40 v=95
100335 Off ch=10 n=46 v=64
100335 On ch=10 n=35 v=95
100367 Meta Lyric "\r"
100548 Off ch=5 n=59 v=64
100548 Off ch=5 n=52 v=64
100548 On ch=5 n=59 v=95
100548 On ch=5 n=52 v=95
100560 Off ch=1 n=67 v=64
100560 On ch=1 n=64 v=95
100560 Meta Lyric "GO "
100569 On ch=11 n=71 v=127
100575 Off ch=3 n=40 v=64
100575 On ch=3 n=40 v=95
100575 Off ch=10 n=35 v=64
100575 On ch=10 n=46 v=95
100788 Off ch=5 n=59 v=64
100788 Off ch=5 n=52 v=64
100788 On ch=5 n=59 v=95
100788 On ch=5 n=52 v=95
100800 Meta Lyric "OUT "
100809 Off ch=11 n=71 v=64
100809 On ch=11 n=71 v=127
100815 Off ch=3 n=40 v=64
100815 On ch=3 n=40 v=95
100815 Off ch=10 n=46 v=64
100815 On ch=10 n=38 v=95
101028 Off ch=5 n=59 v=64
101028 Off ch=5 n=52 v=64
101028 On ch=5 n=59 v=95
101028 On ch=5 n=52 v=95
101040 Off ch=1 n=64 v=64
101040 On ch=1 n=67 v=95
101040 Meta Lyric "AND "
101049 Off ch=11 n=71 v=64
101049 On ch=11 n=71 v=127
101055 Off ch=3 n=40 v=64
101055 On ch=3 n=40 v=95
101055 Off ch=10 n=38 v=64
101055 On ch=10 n=46 v=95
101268 Off ch=5 n=59 v=64
101268 Off ch=5 n=52 v=64
101268 On ch=5 n=59 v=95
101268 On ch=5 n=52 v=95
101280 Meta Lyric "SMASH "
101289 Off ch=11 n=71 v=64
101289 On ch=11 n=71 v=127
101295 Off ch=3 n=40 v=64
101295 On ch=3 n=40 v=95
101295 Off ch=10 n=46 v=64
101295 On ch=10 n=35 v=95
101508 Off ch=5 n=59 v=64
101508 Off ch=5 n=52 v=64
101508 On ch=5 n=59 v=95
101508 On ch=5 n=52 v=95
101520 Off ch=1 n=67 v=64
101520 On ch=1 n=64 v=95
101529 Off ch=11 n=71 v=64
101535 Off ch=3 n=40 v=64
101535 On ch=3 n=40 v=95
101535 Off ch=10 n=35 v=64
101535 On ch=10 n=46 v=95
101604 Meta Lyric "IT "
101748 Off ch=5 n=59 v=64
101748 Off ch=5 n=52 v=64
101748 On ch=5 n=59 v=95
101748 On ch=5 n=52 v=95
101775 Off ch=3 n=40 v=64
101775 On ch=3 n=40 v=95
101775 Off ch=10 n=46 v=64
101775 On ch=10 n=38 v=95
101988 Off ch=5 n=59 v=64
101988 Off ch=5 n=52 v=64
101988 On ch=5 n=59 v=95
101988 On ch=5 n=52 v=95
102000 Off ch=1 n=64 v=64
102000 On ch=1 n=67 v=95
102015 Off ch=3 n=40 v=64
102015 On ch=3 n=40 v=95
102015 Off ch=10 n=38 v=64
102015 On ch=10 n=46 v=95
102228 Off ch=5 n=59 v=64
102228 Off ch=5 n=52 v=64
102228 On ch=5 n=59 v=95
102228 On ch=5 n=52 v=95
102255 Off ch=3 n=40 v=64
102255 On ch=3 n=40 v=95
102255 Off ch=10 n=46 v=64
102255 On ch=10 n=35 v=95
102395 Meta Lyric "\r"
102468 Off ch=5 n=59 v=64
102468 Off ch=5 n=52 v=64
102468 On ch=5 n=59 v=95
102468 On ch=5 n=52 v=95
102480 Off ch=1 n=67 v=64
102480 On ch=1 n=64 v=95
102480 Meta Lyric "LIKE "
102489 On ch=11 n=71 v=127
102495 Off ch=3 n=40 v=64
102495 On ch=3 n=40 v=95
102495 Off ch=10 n=35 v=64
102495 On ch=10 n=46 v=95
102708 Off ch=5 n=59 v=64
102708 Off ch=5 n=52 v=64
102708 On ch=5 n=59 v=95
102708 On ch=5 n=52 v=95
102720 Meta Lyric "OH "
102729 Off ch=11 n=71 v=64
102729 On ch=11 n=71 v=127
102735 Off ch=3 n=40 v=64
102735 On ch=3 n=40 v=95
102735 Off ch=10 n=46 v=64
102735 On ch=10 n=38 v=95
102948 Off ch=5 n=59 v=64
102948 Off ch=5 n=52 v=64
102948 On ch=5 n=59 v=95
102948 On ch=5 n=52 v=95
102960 Off ch=1 n=64 v=64
102960 On ch=1 n=67 v=95
102960 Meta Lyric "MY "
102969 Off ch=11 n=71 v=64
102969 On ch=11 n=71 v=127
102975 Off ch=3 n=40 v=64
102975 On ch=3 n=40 v=95
102975 Off ch=10 n=38 v=64
102975 On ch=10 n=46 v=95
103188 Off ch=5 n=59 v=64
103188 Off ch=5 n=52 v=64
103188 On ch=5 n=59 v=95
103188 On ch=5 n=52 v=95
103200 Meta Lyric "GOD "
103209 Off ch=11 n=71 v=64
103209 On ch=11 n=71 v=127
103215 Off ch=3 n=40 v=64
103215 On ch=3 n=38 v=95
103215 Off ch=10 n=46 v=64
103215 On ch=10 n=35 v=95
103428 Off ch=5 n=59 v=64
103428 Off ch=5 n=52 v=64
103428 On ch=5 n=57 v=95
103428 On ch=5 n=50 v=95
103440 Off ch=1 n=67 v=64
103440 On ch=1 n=64 v=95
103449 Off ch=11 n=71 v=64
103455 Off ch=3 n=38 v=64
103455 On ch=3 n=38 v=95
103455 Off ch=10 n=35 v=64
103455 On ch=10 n=46 v=95
103668 Off ch=5 n=57 v=64
103668 Off ch=5 n=50 v=64
103668 On ch=5 n=57 v=95
103668 On ch=5 n=50 v=95
103695 Off ch=3 n=38 v=64
103695 On ch=3 n=38 v=95
103695 Off ch=10 n=46 v=64
103695 On ch=10 n=38 v=95
103920 Off ch=1 n=64 v=64
103920 On ch=1 n=67 v=95
103935 Off ch=3 n=38 v=64
103935 On ch=3 n=38 v=95
103935 Off ch=10 n=38 v=64
103935 On ch=10 n=46 v=95
104148 Off ch=5 n=57 v=64
104148 Off ch=5 n=50 v=64
104148 On ch=5 n=55 v=95
104148 On ch=5 n=48 v=95
104175 Off ch=3 n=38 v=64
104175 On ch=3 n=36 v=95
104175 Off ch=10 n=46 v=64
104175 On ch=10 n=35 v=95
104218 Meta Lyric "\r"
104388 Off ch=5 n=55 v=64
104388 Off ch=5 n=48 v=64
104388 On ch=5 n=55 v=95
104388 On ch=5 n=48 v=95
104400 Off ch=1 n=67 v=64
104400 On ch=1 n=64 v=95
104400 Meta Lyric "JUMP "
104409 On ch=11 n=71 v=127
104415 Off ch=3 n=36 v=64
104415 On ch=3 n=36 v=95
104415 Off ch=10 n=35 v=64
104415 On ch=10 n=46 v=95
104628 Off ch=5 n=55 v=64
104628 Off ch=5 n=48 v=64
104628 On ch=5 n=55 v=95
104628 On ch=5 n=48 v=95
104640 Meta Lyric "OFF "
104649 Off ch=11 n=71 v=64
104649 On ch=11 n=71 v=127
104655 Off ch=3 n=36 v=64
104655 On ch=3 n=36 v=95
104655 Off ch=10 n=46 v=64
104655 On ch=10 n=38 v=95
104868 Off ch=5 n=55 v=64
104868 Off ch=5 n=48 v=64
104868 On ch=5 n=55 v=95
104868 On ch=5 n=48 v=95
104880 Off ch=1 n=64 v=64
104880 On ch=1 n=67 v=95
104880 Meta Lyric "THAT "
104889 Off ch=11 n=71 v=64
104889 On ch=11 n=71 v=127
104895 Off ch=3 n=36 v=64
104895 On ch=3 n=36 v=95
104895 Off ch=10 n=38 v=64
104895 On ch=10 n=46 v=95
105108 Off ch=5 n=55 v=64
105108 Off ch=5 n=48 v=64
105108 On ch=5 n=55 v=95
105108 On ch=5 n=48 v=95
105120 Meta Lyric "SO"
105129 Off ch=11 n=71 v=64
105129 On ch=11 n=71 v=127
105135 Off ch=3 n=36 v=64
105135 On ch=3 n=36 v=95
105135 Off ch=10 n=46 v=64
105135 On ch=10 n=35 v=95
105312 Meta Lyric "FA "
105348 Off ch=5 n=55 v=64
105348 Off ch=5 n=48 v=64
105348 On ch=5 n=55 v=95
105348 On ch=5 n=48 v=95
105360 Off ch=1 n=67 v=64
105360 On ch=1 n=64 v=95
105369 Off ch=11 n=71 v=64
105375 Off ch=3 n=36 v=64
105375 On ch=3 n=36 v=95
105375 Off ch=10 n=35 v=64
105375 On ch=10 n=46 v=95
105588 Off ch=5 n=55 v=64
105588 Off ch=5 n=48 v=64
105588 On ch=5 n=55 v=95
105588 On ch=5 n=48 v=95
105615 Off ch=3 n=36 v=64
105615 On ch=3 n=36 v=95
105615 Off ch=10 n=46 v=64
105615 On ch=10 n=38 v=95
105828 Off ch=5 n=55 v=64
105828 Off ch=5 n=48 v=64
105828 On ch=5 n=55 v=95
105828 On ch=5 n=48 v=95
105840 Off ch=1 n=64 v=64
105840 On ch=1 n=67 v=95
105855 Off ch=3 n=36 v=64
105855 On ch=3 n=36 v=95
105855 Off ch=10 n=38 v=64
105855 On ch=10 n=46 v=95
106068 Off ch=5 n=55 v=64
106068 Off ch=5 n=48 v=64
106080 Off ch=1 n=67 v=64
106095 Off ch=3 n=36 v=64
106095 Off ch=10 n=46 v=64
106095 On ch=10 n=35 v=95
106148 Meta Lyric "\r"
106320 Meta Lyric "LET'S "
106329 On ch=11 n=71 v=127
106560 Meta Lyric "GET "
106569 Off ch=11 n=71 v=64
106569 On ch=11 n=71 v=127
106800 Meta Lyric "GET "
106809 Off ch=11 n=71 v=64
106809 On ch=11 n=71 v=127
107049 Off ch=11 n=71 v=64
107520 Meta Lyric "OFF "
107529 On ch=11 n=71 v=127
107535 Off ch=10 n=35 v=64
107535 On ch=10 n=42 v=95
107535 On ch=10 n=38 v=95
107760 On ch=1 n=64 v=95
107769 Off ch=11 n=71 v=64
107775 Off ch=10 n=42 v=64
107775 Off ch=10 n=38 v=64
107775 On ch=10 n=42 v=95
107988 On ch=5 n=50 v=95
107988 On ch=5 n=43 v=95
108015 On ch=3 n=31 v=95
108015 Off ch=10 n=42 v=64
108015 On ch=10 n=35 v=95
108228 Off ch=5 n=50 v=64
108228 Off ch=5 n=43 v=64
108228 On ch=5 n=50 v=95
108228 On ch=5 n=43 v=95
108240 Off ch=1 n=64 v=64
108240 On ch=1 n=62 v=95
108255 Off ch=3 n=31 v=64
108255 On ch=3 n=31 v=95
108255 Off ch=10 n=35 v=64
108255 On ch=10 n=46 v=95
108468 Off ch=5 n=50 v=64
108468 Off ch=5 n=43 v=64
108468 On ch=5 n=50 v=95
108468 On ch=5 n=43 v=95
108495 Off ch=3 n=31 v=64
108495 On ch=3 n=31 v=95
108495 Off ch=10 n=46 v=64
108495 On ch=10 n=38 v=95
108495 Meta Lyric "\r"
108708 Off ch=5 n=50 v=64
108708 Off ch=5 n=43 v=64
108708 On ch=5 n=50 v=95
108708 On ch=5 n=43 v=95
108720 Off ch=1 n=62 v=64
108720 On ch=1 n=64 v=95
108720 Meta Lyric "I "
108729 On ch=11 n=76 v=127
108735 Off ch=3 n=31 v=64
108735 On ch=3 n=31 v=95
108735 Off ch=10 n=38 v=64
108735 On ch=10 n=46 v=95
108948 Off ch=5 n=50 v=64
108948 Off ch=5 n=43 v=64
108948 On ch=5 n=50 v=95
108948 On ch=5 n=43 v=95
108975 Off ch=3 n=31 v=64
108975 On ch=3 n=31 v=95
108975 Off ch=10 n=46 v=64
108975 On ch=10 n=35 v=95
109089 Off ch=11 n=76 v=64
109188 Off ch=5 n=50 v=64
109188 Off ch=5 n=43 v=64
109188 On ch=5 n=50 v=95
109188 On ch=5 n=43 v=95
109200 Off ch=1 n=64 v=64
109200 On ch=1 n=62 v=95
109200 Meta Lyric "KNOW "
109209 On ch=11 n=74 v=127
109215 Off ch=3 n=31 v=64
109215 On ch=3 n=31 v=95
109215 Off ch=10 n=35 v=64
109215 On ch=10 n=46 v=95
109428 Off ch=5 n=50 v=64
109428 Off ch=5 n=43 v=64
109428 On ch=5 n=50 v=95
109428 On ch=5 n=43 v=95
109440 Meta Lyric "THAT "
109449 Off ch=11 n=74 v=64
109449 On ch=11 n=71 v=127
109455 Off ch=3 n=31 v=64
109455 On ch=3 n=31 v=95
109455 Off ch=10 n=46 v=64
109455 On ch=10 n=38 v=95
109668 Off ch=5 n=50 v=64
109668 Off ch=5 n=43 v=64
109668 On ch=5 n=50 v=95
109668 On ch=5 n=43 v=95
109680 Off ch=1 n=62 v=64
109680 On ch=1 n=64 v=95
109680 Meta Lyric "WE'LL "
109689 Off ch=11 n=71 v=64
109689 On ch=11 n=76 v=127
109695 Off ch=3 n=31 v=64
109695 On ch=3 n=31 v=95
109695 Off ch=10 n=38 v=64
109695 On ch=10 n=46 v=95
109908 Off ch=5 n=50 v=64
109908 Off ch=5 n=43 v=64
109908 On ch=5 n=50 v=95
109908 On ch=5 n=43 v=95
109935 Off ch=3 n=31 v=64
109935 On ch=3 n=31 v=95
109935 Off ch=10 n=46 v=64
109935 On ch=10 n=35 v=95
110148 Off ch=5 n=50 v=64
110148 Off ch=5 n=43 v=64
110148 On ch=5 n=50 v=95
110148 On ch=5 n=43 v=95
110160 Off ch=1 n=64 v=64
110160 On ch=1 n=62 v=95
110160 Meta Lyric "HAVE "
110169 Off ch=11 n=76 v=64
110169 On ch=11 n=74 v=127
110175 Off ch=3 n=31 v=64
110175 On ch=3 n=31 v=95
110175 Off ch=10 n=35 v=64
110175 On ch=10 n=46 v=95
110388 Off ch=5 n=50 v=64
110388 Off ch=5 n=43 v=64
110388 On ch=5 n=50 v=95
110388 On ch=5 n=43 v=95
110400 Meta Lyric "A "
110409 Off ch=11 n=74 v=64
110409 On ch=11 n=71 v=127
110415 Off ch=3 n=31 v=64
110415 On ch=3 n=31 v=95
110415 Off ch=10 n=46 v=64
110415 On ch=10 n=38 v=95
110628 Off ch=5 n=50 v=64
110628 Off ch=5 n=43 v=64
110628 On ch=5 n=50 v=95
110628 On ch=5 n=43 v=95
110640 Off ch=1 n=62 v=64
110640 On ch=1 n=64 v=95
110640 Meta Lyric "BA"
110649 Off ch=11 n=71 v=64
110649 On ch=11 n=71 v=127
110655 Off ch=3 n=31 v=64
110655 On ch=3 n=31 v=95
110655 Off ch=10 n=38 v=64
110655 On ch=10 n=46 v=95
110760 Meta Lyric "L"
110769 Off ch=11 n=71 v=64
110769 On ch=11 n=69 v=127
110868 Off ch=5 n=50 v=64
110868 Off ch=5 n=43 v=64
110868 On ch=5 n=50 v=95
110868 On ch=5 n=43 v=95
110880 Meta Lyric "L "
110889 Off ch=11 n=69 v=64
110889 On ch=11 n=67 v=127
110895 Off ch=3 n=31 v=64
110895 On ch=3 n=31 v=95
110895 Off ch=10 n=46 v=64
110895 On ch=10 n=35 v=95
111009 Off ch=11 n=67 v=64
111057 Meta Lyric "\r"
111108 Off ch=5 n=50 v=64
111108 Off ch=5 n=43 v=64
111108 On ch=5 n=50 v=95
111108 On ch=5 n=43 v=95
111120 Off ch=1 n=64 v=64
111120 On ch=1 n=62 v=95
111135 Off ch=3 n=31 v=64
111135 On ch=3 n=31 v=95
111135 Off ch=10 n=35 v=64
111135 On ch=10 n=46 v=95
111348 Off ch=5 n=50 v=64
111348 Off ch=5 n=43 v=64
111348 On ch=5 n=50 v=95
111348 On ch=5 n=43 v=95
111360 Meta Lyric "IF "
111369 On ch=11 n=74 v=127
111375 Off ch=3 n=31 v=64
111375 On ch=3 n=31 v=95
111375 Off ch=10 n=46 v=64
111375 On ch=10 n=38 v=95
111588 Off ch=5 n=50 v=64
111588 Off ch=5 n=43 v=64
111588 On ch=5 n=50 v=95
111588 On ch=5 n=43 v=95
111600 Off ch=1 n=62 v=64
111600 On ch=1 n=65 v=95
111600 Meta Lyric "WE "
111609 Off ch=11 n=74 v=64
111609 On ch=11 n=77 v=127
111615 Off ch=3 n=31 v=64
111615 On ch=3 n=31 v=95
111615 Off ch=10 n=38 v=64
111615 On ch=10 n=46 v=95
111828 Off ch=5 n=50 v=64
111828 Off ch=5 n=43 v=64
111828 On ch=5 n=55 v=95
111828 On ch=5 n=48 v=95
111855 Off ch=3 n=31 v=64
111855 On ch=3 n=36 v=95
111855 Off ch=10 n=46 v=64
111855 On ch=10 n=35 v=95
112068 Off ch=5 n=55 v=64
112068 Off ch=5 n=48 v=64
112068 On ch=5 n=55 v=95
112068 On ch=5 n=48 v=95
112080 Off ch=1 n=65 v=64
112080 On ch=1 n=64 v=95
112080 Meta Lyric "GET "
112089 Off ch=11 n=77 v=64
112089 On ch=11 n=76 v=127
112095 Off ch=3 n=36 v=64
112095 On ch=3 n=36 v=95
112095 Off ch=10 n=35 v=64
112095 On ch=10 n=46 v=95
112308 Off ch=5 n=55 v=64
112308 Off ch=5 n=48 v=64
112308 On ch=5 n=55 v=95
112308 On ch=5 n=48 v=95
112320 Meta Lyric "DOWN "
112329 Off ch=11 n=76 v=64
112329 On ch=11 n=74 v=127
112335 Off ch=3 n=36 v=64
112335 On ch=3 n=36 v=95
112335 Off ch=10 n=46 v=64
112335 On ch=10 n=38 v=95
112428 Meta Lyric "AND "
112548 Off ch=5 n=55 v=64
112548 Off ch=5 n=48 v=64
112548 On ch=5 n=55 v=95
112548 On ch=5 n=48 v=95
112560 Off ch=1 n=64 v=64
112560 On ch=1 n=65 v=95
112569 Off ch=11 n=74 v=64
112569 On ch=11 n=77 v=127
112575 Off ch=3 n=36 v=64
112575 On ch=3 n=36 v=95
112575 Off ch=10 n=38 v=64
112575 On ch=10 n=46 v=95
112584 Meta Lyric "GO "
112788 Off ch=5 n=55 v=64
112788 Off ch=5 n=48 v=64
112788 On ch=5 n=55 v=95
112788 On ch=5 n=48 v=95
112815 Off ch=3 n=36 v=64
112815 On ch=3 n=36 v=95
112815 Off ch=10 n=46 v=64
112815 On ch=10 n=35 v=95
113028 Off ch=5 n=55 v=64
113028 Off ch=5 n=48 v=64
113028 On ch=5 n=55 v=95
113028 On ch=5 n=48 v=95
113040 Off ch=1 n=65 v=64
113040 On ch=1 n=64 v=95
113049 Off ch=11 n=77 v=64
113049 On ch=11 n=76 v=127
113052 Meta Lyric "OUT "
113055 Off ch=3 n=36 v=64
113055 On ch=3 n=36 v=95
113055 Off ch=10 n=35 v=64
113055 On ch=10 n=46 v=95
113251 Meta Lyric "\r"
113268 Off ch=5 n=55 v=64
113268 Off ch=5 n=48 v=64
113268 On ch=5 n=55 v=95
113268 On ch=5 n=48 v=95
113280 Meta Lyric "AND "
113289 Off ch=11 n=76 v=64
113289 On ch=11 n=74 v=127
113295 Off ch=3 n=36 v=64
113295 On ch=3 n=36 v=95
113295 Off ch=10 n=46 v=64
113295 On ch=10 n=38 v=95
113508 Off ch=5 n=55 v=64
113508 Off ch=5 n=48 v=64
113508 On ch=5 n=55 v=95
113508 On ch=5 n=48 v=95
113520 Off ch=1 n=64 v=64
113520 On ch=1 n=65 v=95
113529 Off ch=11 n=74 v=64
113529 On ch=11 n=76 v=127
113535 Off ch=3 n=36 v=64
113535 On ch=3 n=36 v=95
113535 Off ch=10 n=38 v=64
113535 On ch=10 n=46 v=95
113556 Meta Lyric "JUST "
113748 Off ch=5 n=55 v=64
113748 Off ch=5 n=48 v=64
113748 On ch=5 n=55 v=95
113748 On ch=5 n=48 v=95
113775 Off ch=3 n=36 v=64
113775 On ch=3 n=36 v=95
113775 Off ch=10 n=46 v=64
113775 On ch=10 n=35 v=95
113988 Off ch=5 n=55 v=64
113988 Off ch=5 n=48 v=64
113988 On ch=5 n=55 v=95
113988 On ch=5 n=48 v=95
114000 Off ch=1 n=65 v=64
114000 On ch=1 n=64 v=95
114009 Off ch=11 n=76 v=64
114009 On ch=11 n=74 v=127
114012 Meta Lyric "LOOSE "
114015 Off ch=3 n=36 v=64
114015 On ch=3 n=36 v=95
114015 Off ch=10 n=35 v=64
114015 On ch=10 n=46 v=95
114228 Off ch=5 n=55 v=64
114228 Off ch=5 n=48 v=64
114228 On ch=5 n=55 v=95
114228 On ch=5 n=48 v=95
114240 Meta Lyric "IT "
114249 Off ch=11 n=74 v=64
114249 On ch=11 n=71 v=127
114255 Off ch=3 n=36 v=64
114255 On ch=3 n=36 v=95
114255 Off ch=10 n=46 v=64
114255 On ch=10 n=38 v=95
114468 Off ch=5 n=55 v=64
114468 Off ch=5 n=48 v=64
114468 On ch=5 n=55 v=95
114468 On ch=5 n=48 v=95
114480 Off ch=1 n=64 v=64
114480 On ch=1 n=65 v=95
114480 Meta Lyric "A"
114489 Off ch=11 n=71 v=64
114489 On ch=11 n=71 v=127
114495 Off ch=3 n=36 v=64
114495 On ch=3 n=36 v=95
114495 Off ch=10 n=38 v=64
114495 On ch=10 n=46 v=95
114609 Off ch=11 n=71 v=64
114609 On ch=11 n=69 v=127
114612 Meta Lyric "L"
114708 Off ch=5 n=55 v=64
114708 Off ch=5 n=48 v=64
114708 On ch=5 n=55 v=95
114708 On ch=5 n=48 v=95
114720 Meta Lyric "L "
114729 Off ch=11 n=69 v=64
114729 On ch=11 n=67 v=127
114735 Off ch=3 n=36 v=64
114735 On ch=3 n=38 v=95
114735 Off ch=10 n=46 v=64
114735 On ch=10 n=35 v=95
114849 Off ch=11 n=67 v=64
114898 Meta Lyric "\r"
114948 Off ch=5 n=55 v=64
114948 Off ch=5 n=48 v=64
114948 On ch=5 n=57 v=95
114948 On ch=5 n=50 v=95
114960 Off ch=1 n=65 v=64
114960 On ch=1 n=64 v=95
114975 Off ch=3 n=38 v=64
114975 On ch=3 n=38 v=95
114975 Off ch=10 n=35 v=64
114975 On ch=10 n=46 v=95
115188 Off ch=5 n=57 v=64
115188 Off ch=5 n=50 v=64
115188 On ch=5 n=57 v=95
115188 On ch=5 n=50 v=95
115200 Meta Lyric "I "
115209 On ch=11 n=76 v=127
115215 Off ch=3 n=38 v=64
115215 On ch=3 n=38 v=95
115215 Off ch=10 n=46 v=64
115215 On ch=10 n=38 v=95
115428 Off ch=5 n=57 v=64
115428 Off ch=5 n=50 v=64
115428 On ch=5 n=57 v=95
115428 On ch=5 n=50 v=95
115440 Off ch=1 n=64 v=64
115440 On ch=1 n=67 v=95
115440 Meta Lyric "FEEL "
115449 On ch=11 n=79 v=127
115455 Off ch=3 n=38 v=64
115455 On ch=3 n=38 v=95
115455 Off ch=10 n=38 v=64
115455 On ch=10 n=46 v=95
115569 Off ch=11 n=76 v=64
115668 Off ch=5 n=57 v=64
115668 Off ch=5 n=50 v=64
115668 On ch=5 n=59 v=95
115668 On ch=5 n=52 v=95
115695 Off ch=3 n=38 v=64
115695 On ch=3 n=40 v=95
115695 Off ch=10 n=46 v=64
115695 On ch=10 n=35 v=95
115783 Meta Lyric "\r"
115908 Off ch=5 n=59 v=64
115908 Off ch=5 n=52 v=64
115908 On ch=5 n=59 v=95
115908 On ch=5 n=52 v=95
115920 Off ch=1 n=67 v=64
115920 On ch=1 n=64 v=95
115929 Off ch=11 n=79 v=64
115935 Off ch=3 n=40 v=64
115935 On ch=3 n=40 v=95
115935 Off ch=10 n=35 v=64
115935 On ch=10 n=46 v=95
116148 Off ch=5 n=59 v=64
116148 Off ch=5 n=52 v=64
116148 On ch=5 n=59 v=95
116148 On ch=5 n=52 v=95
116175 Off ch=3 n=40 v=64
116175 On ch=3 n=40 v=95
116175 Off ch=10 n=46 v=64
116175 On ch=10 n=38 v=95
116388 Off ch=5 n=59 v=64
116388 Off ch=5 n=52 v=64
116388 On ch=5 n=59 v=95
116388 On ch=5 n=52 v=95
116400 Off ch=1 n=64 v=64
116400 On ch=1 n=67 v=95
116400 Meta Lyric "STRESSED "
116409 On ch=11 n=79 v=127
116415 Off ch=3 n=40 v=64
116415 On ch=3 n=40 v=95
116415 Off ch=10 n=38 v=64
116415 On ch=10 n=46 v=95
116628 Off ch=5 n=59 v=64
116628 Off ch=5 n=52 v=64
116628 On ch=5 n=59 v=95
116628 On ch=5 n=52 v=95
116655 Off ch=3 n=40 v=64
116655 On ch=3 n=40 v=95
116655 Off ch=10 n=46 v=64
116655 On ch=10 n=35 v=95
116868 Off ch=5 n=59 v=64
116868 Off ch=5 n=52 v=64
116868 On ch=5 n=59 v=95
116868 On ch=5 n=52 v=95
116880 Off ch=1 n=67 v=64
116880 On ch=1 n=64 v=95
116880 Meta Lyric "OUT "
116889 Off ch=11 n=79 v=64
116889 On ch=11 n=76 v=127
116895 Off ch=3 n=40 v=64
116895 On ch=3 n=40 v=95
116895 Off ch=10 n=35 v=64
116895 On ch=10 n=46 v=95
117108 Off ch=5 n=59 v=64
117108 Off ch=5 n=52 v=64
117108 On ch=5 n=59 v=95
117108 On ch=5 n=52 v=95
117129 Off ch=11 n=76 v=64
117129 On ch=11 n=74 v=127
117132 Meta Lyric "I "
117135 Off ch=3 n=40 v=64
117135 On ch=3 n=40 v=95
117135 Off ch=10 n=46 v=64
117135 On ch=10 n=38 v=95
117348 Off ch=5 n=59 v=64
117348 Off ch=5 n=52 v=64
117348 On ch=5 n=59 v=95
117348 On ch=5 n=52 v=95
117360 Off ch=1 n=64 v=64
117360 On ch=1 n=67 v=95
117369 Off ch=11 n=74 v=64
117369 On ch=11 n=79 v=127
117375 Off ch=3 n=40 v=64
117375 On ch=3 n=40 v=95
117375 Off ch=10 n=38 v=64
117375 On ch=10 n=46 v=95
117396 Meta Lyric "WANNA "
117588 Off ch=5 n=59 v=64
117588 Off ch=5 n=52 v=64
117588 On ch=5 n=59 v=95
117588 On ch=5 n=52 v=95
117615 Off ch=3 n=40 v=64
117615 On ch=3 n=40 v=95
117615 Off ch=10 n=46 v=64
117615 On ch=10 n=35 v=95
117729 Off ch=11 n=79 v=64
117828 Off ch=5 n=59 v=64
117828 Off ch=5 n=52 v=64
117828 On ch=5 n=59 v=95
117828 On ch=5 n=52 v=95
117840 Off ch=1 n=67 v=64
117840 On ch=1 n=64 v=95
117849 On ch=11 n=76 v=127
117855 Off ch=3 n=40 v=64
117855 On ch=3 n=40 v=95
117855 Off ch=10 n=35 v=64
117855 On ch=10 n=46 v=95
117864 Meta Lyric "LET "
118068 Off ch=5 n=59 v=64
118068 Off ch=5 n=52 v=64
118068 On ch=5 n=59 v=95
118068 On ch=5 n=52 v=95
118080 Meta Lyric "IT "
118089 Off ch=11 n=76 v=64
118089 On ch=11 n=74 v=127
118095 Off ch=3 n=40 v=64
118095 On ch=3 n=40 v=95
118095 Off ch=10 n=46 v=64
118095 On ch=10 n=38 v=95
118308 Off ch=5 n=59 v=64
118308 Off ch=5 n=52 v=64
118308 On ch=5 n=59 v=95
118308 On ch=5 n=52 v=95
118320 Off ch=1 n=64 v=64
118320 On ch=1 n=67 v=95
118329 Off ch=11 n=74 v=64
118329 On ch=11 n=79 v=127
118335 Off ch=3 n=40 v=64
118335 On ch=3 n=40 v=95
118335 Off ch=10 n=38 v=64
118335 On ch=10 n=46 v=95
118344 Meta Lyric "GO "
118548 Off ch=5 n=59 v=64
118548 Off ch=5 n=52 v=64
118548 On ch=5 n=59 v=95
118548 On ch=5 n=52 v=95
118575 Off ch=3 n=40 v=64
118575 On ch=3 n=38 v=95
118575 Off ch=10 n=46 v=64
118575 On ch=10 n=35 v=95
118635 Meta Lyric "\r"
118689 Off ch=11 n=79 v=64
118788 Off ch=5 n=59 v=64
118788 Off ch=5 n=52 v=64
118788 On ch=5 n=57 v=95
118788 On ch=5 n=50 v=95
118800 Off ch=1 n=67 v=64
118800 On ch=1 n=64 v=95
118800 Meta Lyric "LET'S "
118809 On ch=11 n=76 v=127
118815 Off ch=3 n=38 v=64
118815 On ch=3 n=38 v=95
118815 Off ch=10 n=35 v=64
118815 On ch=10 n=46 v=95
119028 Off ch=5 n=57 v=64
119028 Off ch=5 n=50 v=64
119028 On ch=5 n=57 v=95
119028 On ch=5 n=50 v=95
119049 Off ch=11 n=76 v=64
119049 On ch=11 n=74 v=127
119052 Meta Lyric "GO "
119055 Off ch=3 n=38 v=64
119055 On ch=3 n=38 v=95
119055 Off ch=10 n=46 v=64
119055 On ch=10 n=38 v=95
119280 Off ch=1 n=64 v=64
119280 On ch=1 n=67 v=95
119289 Off ch=11 n=74 v=64
119289 On ch=11 n=79 v=127
119295 Off ch=3 n=38 v=64
119295 On ch=3 n=38 v=95
119295 Off ch=10 n=38 v=64
119295 On ch=10 n=46 v=95
119316 Meta Lyric "WAY "
119508 Off ch=5 n=57 v=64
119508 Off ch=5 n=50 v=64
119508 On ch=5 n=55 v=95
119508 On ch=5 n=48 v=95
119535 Off ch=3 n=38 v=64
119535 On ch=3 n=36 v=95
119535 Off ch=10 n=46 v=64
119535 On ch=10 n=35 v=95
119649 Off ch=11 n=79 v=64
119748 Off ch=5 n=55 v=64
119748 Off ch=5 n=48 v=64
119748 On ch=5 n=55 v=95
119748 On ch=5 n=48 v=95
119760 Off ch=1 n=67 v=64
119760 On ch=1 n=64 v=95
119760 Meta Lyric "O"
119769 On ch=11 n=76 v=127
119775 Off ch=3 n=36 v=64
119775 On ch=3 n=36 v=95
119775 Off ch=10 n=35 v=64
119775 On ch=10 n=46 v=95
119988 Off ch=5 n=55 v=64
119988 Off ch=5 n=48 v=64
119988 On ch=5 n=55 v=95
119988 On ch=5 n=48 v=95
119988 Meta Lyric "UT "
120009 Off ch=11 n=76 v=64
120009 On ch=11 n=74 v=127
120015 Off ch=3 n=36 v=64
120015 On ch=3 n=36 v=95
120015 Off ch=10 n=46 v=64
120015 On ch=10 n=38 v=95
120228 Off ch=5 n=55 v=64
120228 Off ch=5 n=48 v=64
120228 On ch=5 n=55 v=95
120228 On ch=5 n=48 v=95
120240 Off ch=1 n=64 v=64
120240 On ch=1 n=67 v=95
120240 Meta Lyric "SPACED "
120249 Off ch=11 n=74 v=64
120249 On ch=11 n=79 v=127
120255 Off ch=3 n=36 v=64
120255 On ch=3 n=36 v=95
120255 Off ch=10 n=38 v=64
120255 On ch=10 n=46 v=95
120468 Off ch=5 n=55 v=64
120468 Off ch=5 n=48 v=64
120468 On ch=5 n=55 v=95
120468 On ch=5 n=48 v=95
120495 Off ch=3 n=36 v=64
120495 On ch=3 n=36 v=95
120495 Off ch=10 n=46 v=64
120495 On ch=10 n=35 v=95
120609 Off ch=11 n=79 v=64
120708 Off ch=5 n=55 v=64
120708 Off ch=5 n=48 v=64
120708 On ch=5 n=55 v=95
120708 On ch=5 n=48 v=95
120720 Off ch=1 n=67 v=64
120720 On ch=1 n=64 v=95
120729 On ch=11 n=76 v=127
120732 Meta Lyric "OUT "
120735 Off ch=3 n=36 v=64
120735 On ch=3 n=36 v=95
120735 Off ch=10 n=35 v=64
120735 On ch=10 n=46 v=95
120942 Meta Lyric "\r"
120948 Off ch=5 n=55 v=64
120948 Off ch=5 n=48 v=64
120948 On ch=5 n=55 v=95
120948 On ch=5 n=48 v=95
120969 Off ch=11 n=76 v=64
120969 On ch=11 n=74 v=127
120972 Meta Lyric "AND "
120975 Off ch=3 n=36 v=64
120975 On ch=3 n=36 v=95
120975 Off ch=10 n=46 v=64
120975 On ch=10 n=38 v=95
121188 Off ch=5 n=55 v=64
121188 Off ch=5 n=48 v=64
121188 On ch=5 n=55 v=95
121188 On ch=5 n=48 v=95
121200 Off ch=1 n=64 v=64
121200 On ch=1 n=67 v=95
121209 Off ch=11 n=74 v=64
121209 On ch=11 n=79 v=127
121212 Meta Lyric "LOO"
121215 Off ch=3 n=36 v=64
121215 On ch=3 n=36 v=95
121215 Off ch=10 n=38 v=64
121215 On ch=10 n=46 v=95
121428 Off ch=5 n=55 v=64
121428 Off ch=5 n=48 v=64
121440 Off ch=1 n=67 v=64
121440 Meta Lyric "SING "
121449 Off ch=11 n=79 v=64
121449 On ch=11 n=79 v=127
121455 Off ch=3 n=36 v=64
121455 Off ch=10 n=46 v=64
121455 On ch=10 n=35 v=95
121689 Off ch=11 n=79 v=64
121689 On ch=11 n=76 v=127
121692 Meta Lyric "ALL "
121920 Meta Lyric "CON"
121929 Off ch=11 n=76 v=64
121929 On ch=11 n=74 v=127
122160 Meta Lyric "TROL "
122169 Off ch=11 n=74 v=64
122169 On ch=11 n=79 v=127
122409 Off ch=11 n=79 v=64
122970 Meta Lyric "\r"
123348 On ch=5 n=50 v=95
123348 On ch=5 n=43 v=95
123375 On ch=3 n=31 v=95
123375 Off ch=10 n=35 v=64
123375 On ch=10 n=35 v=95
123588 Off ch=5 n=50 v=64
123588 Off ch=5 n=43 v=64
123588 On ch=5 n=50 v=95
123588 On ch=5 n=43 v=95
123600 On ch=1 n=62 v=95
123600 Meta Lyric "FILL "
123609 On ch=11 n=74 v=127
123615 Off ch=3 n=31 v=64
123615 On ch=3 n=31 v=95
123615 Off ch=10 n=35 v=64
123615 On ch=10 n=46 v=95
123828 Off ch=5 n=50 v=64
123828 Off ch=5 n=43 v=64
123828 On ch=5 n=50 v=95
123828 On ch=5 n=43 v=95
123849 On ch=11 n=74 v=127
123852 Meta Lyric "UP "
123855 Off ch=3 n=31 v=64
123855 On ch=3 n=31 v=95
123855 Off ch=10 n=46 v=64
123855 On ch=10 n=38 v=95
124056 Meta Lyric "MY "
124068 Off ch=5 n=50 v=64
124068 Off ch=5 n=43 v=64
124068 On ch=5 n=50 v=95
124068 On ch=5 n=43 v=95
124080 Off ch=1 n=62 v=64
124080 On ch=1 n=64 v=95
124089 Off ch=11 n=74 v=64
124089 On ch=11 n=74 v=127
124095 Off ch=3 n=31 v=64
124095 On ch=3 n=31 v=95
124095 Off ch=10 n=38 v=64
124095 On ch=10 n=46 v=95
124308 Off ch=5 n=50 v=64
124308 Off ch=5 n=43 v=64
124308 On ch=5 n=50 v=95
124308 On ch=5 n=43 v=95
124320 Meta Lyric "CUP "
124329 Off ch=11 n=74 v=64
124329 On ch=11 n=74 v=127
124335 Off ch=3 n=31 v=64
124335 On ch=3 n=31 v=95
124335 Off ch=10 n=46 v=64
124335 On ch=10 n=35 v=95
124548 Off ch=5 n=50 v=64
124548 Off ch=5 n=43 v=64
124548 On ch=5 n=50 v=95
124548 On ch=5 n=43 v=95
124560 Off ch=1 n=64 v=64
124560 On ch=1 n=62 v=95
124569 Off ch=11 n=74 v=64
124575 Off ch=3 n=31 v=64
124575 On ch=3 n=31 v=95
124575 Off ch=10 n=35 v=64
124575 On ch=10 n=46 v=95
124788 Off ch=5 n=50 v=64
124788 Off ch=5 n=43 v=64
124788 On ch=5 n=50 v=95
124788 On ch=5 n=43 v=95
124809 Off ch=11 n=74 v=64
124815 Off ch=3 n=31 v=64
124815 On ch=3 n=31 v=95
124815 Off ch=10 n=46 v=64
124815 On ch=10 n=38 v=95
124958 Meta Lyric "\r"
125028 Off ch=5 n=50 v=64
125028 Off ch=5 n=43 v=64
125028 On ch=5 n=50 v=95
125028 On ch=5 n=43 v=95
125040 Off ch=1 n=62 v=64
125040 On ch=1 n=64 v=95
125055 Off ch=3 n=31 v=64
125055 On ch=3 n=31 v=95
125055 Off ch=10 n=38 v=64
125055 On ch=10 n=46 v=95
125268 Off ch=5 n=50 v=64
125268 Off ch=5 n=43 v=64
125268 On ch=5 n=50 v=95
125268 On ch=5 n=43 v=95
125295 Off ch=3 n=31 v=64
125295 On ch=3 n=31 v=95
125295 Off ch=10 n=46 v=64
125295 On ch=10 n=35 v=95
125508 Off ch=5 n=50 v=64
125508 Off ch=5 n=43 v=64
125508 On ch=5 n=50 v=95
125508 On ch=5 n=43 v=95
125520 Off ch=1 n=64 v=64
125520 On ch=1 n=62 v=95
125520 Meta Lyric "MO"
125529 On ch=11 n=74 v=127
125535 Off ch=3 n=31 v=64
125535 On ch=3 n=31 v=95
125535 Off ch=10 n=35 v=64
125535 On ch=10 n=46 v=95
125748 Off ch=5 n=50 v=64
125748 Off ch=5 n=43 v=64
125748 On ch=5 n=50 v=95
125748 On ch=5 n=43 v=95
125760 Meta Lyric "ZOL"
125769 Off ch=11 n=74 v=64
125769 On ch=11 n=69 v=127
125775 Off ch=3 n=31 v=64
125775 On ch=3 n=31 v=95
125775 Off ch=10 n=46 v=64
125775 On ch=10 n=38 v=95
125988 Off ch=5 n=50 v=64
125988 Off ch=5 n=43 v=64
125988 On ch=5 n=50 v=95
125988 On ch=5 n=43 v=95
126000 Off ch=1 n=62 v=64
126000 On ch=1 n=64 v=95
126000 Meta Lyric "TOV "
126009 Off ch=11 n=69 v=64
126009 On ch=11 n=67 v=127
126015 Off ch=3 n=31 v=64
126015 On ch=3 n=31 v=95
126015 Off ch=10 n=38 v=64
126015 On ch=10 n=46 v=95
126228 Off ch=5 n=50 v=64
126228 Off ch=5 n=43 v=64
126228 On ch=5 n=50 v=95
126228 On ch=5 n=43 v=95
126249 Off ch=11 n=67 v=64
126255 Off ch=3 n=31 v=64
126255 On ch=3 n=31 v=95
126255 Off ch=10 n=46 v=64
126255 On ch=10 n=35 v=95
126468 Off ch=5 n=50 v=64
126468 Off ch=5 n=43 v=64
126468 On ch=5 n=50 v=95
126468 On ch=5 n=43 v=95
126480 Off ch=1 n=64 v=64
126480 On ch=1 n=62 v=95
126495 Off ch=3 n=31 v=64
126495 On ch=3 n=31 v=95
126495 Off ch=10 n=35 v=64
126495 On ch=10 n=46 v=95
126497 Meta Lyric "\r"
126708 Off ch=5 n=50 v=64
126708 Off ch=5 n=43 v=64
126708 On ch=5 n=50 v=95
126708 On ch=5 n=43 v=95
126735 Off ch=3 n=31 v=64
126735 On ch=3 n=31 v=95
126735 Off ch=10 n=46 v=64
126735 On ch=10 n=38 v=95
126948 Off ch=5 n=50 v=64
126948 Off ch=5 n=43 v=64
126948 On ch=5 n=50 v=95
126948 On ch=5 n=43 v=95
126960 Off ch=1 n=62 v=64
126960 On ch=1 n=65 v=95
126975 Off ch=3 n=31 v=64
126975 On ch=3 n=31 v=95
126975 Off ch=10 n=38 v=64
126975 On ch=10 n=46 v=95
127188 Off ch=5 n=50 v=64
127188 Off ch=5 n=43 v=64
127188 On ch=5 n=55 v=95
127188 On ch=5 n=48 v=95
127215 Off ch=3 n=31 v=64
127215 On ch=3 n=36 v=95
127215 Off ch=10 n=46 v=64
127215 On ch=10 n=35 v=95
127428 Off ch=5 n=55 v=64
127428 Off ch=5 n=48 v=64
127428 On ch=5 n=55 v=95
127428 On ch=5 n=48 v=95
127440 Off ch=1 n=65 v=64
127440 On ch=1 n=64 v=95
127440 Meta Lyric "LOOK "
127449 On ch=11 n=74 v=127
127455 Off ch=3 n=36 v=64
127455 On ch=3 n=36 v=95
127455 Off ch=10 n=35 v=64
127455 On ch=10 n=46 v=95
127668 Off ch=5 n=55 v=64
127668 Off ch=5 n=48 v=64
127668 On ch=5 n=55 v=95
127668 On ch=5 n=48 v=95
127680 Meta Lyric "AT "
127689 On ch=11 n=74 v=127
127695 Off ch=3 n=36 v=64
127695 On ch=3 n=36 v=95
127695 Off ch=10 n=46 v=64
127695 On ch=10 n=38 v=95
127908 Off ch=5 n=55 v=64
127908 Off ch=5 n=48 v=64
127908 On ch=5 n=55 v=95
127908 On ch=5 n=48 v=95
127920 Off ch=1 n=64 v=64
127920 On ch=1 n=65 v=95
127920 Meta Lyric "HER "
127929 Off ch=11 n=74 v=64
127929 On ch=11 n=74 v=127
127935 Off ch=3 n=36 v=64
127935 On ch=3 n=36 v=95
127935 Off ch=10 n=38 v=64
127935 On ch=10 n=46 v=95
128148 Off ch=5 n=55 v=64
128148 Off ch=5 n=48 v=64
128148 On ch=5 n=55 v=95
128148 On ch=5 n=48 v=95
128160 Meta Lyric "DAN"
128169 Off ch=11 n=74 v=64
128169 On ch=11 n=74 v=127
128175 Off ch=3 n=36 v=64
128175 On ch=3 n=36 v=95
128175 Off ch=10 n=46 v=64
128175 On ch=10 n=35 v=95
128388 Off ch=5 n=55 v=64
128388 Off ch=5 n=48 v=64
128388 On ch=5 n=55 v=95
128388 On ch=5 n=48 v=95
128400 Off ch=1 n=65 v=64
128400 On ch=1 n=64 v=95
128400 Meta Lyric "CING "
128409 Off ch=11 n=74 v=64
128409 Off ch=11 n=74 v=64
128409 On ch=11 n=74 v=127
128415 Off ch=3 n=36 v=64
128415 On ch=3 n=36 v=95
128415 Off ch=10 n=35 v=64
128415 On ch=10 n=46 v=95
128628 Off ch=5 n=55 v=64
128628 Off ch=5 n=48 v=64
128628 On ch=5 n=55 v=95
128628 On ch=5 n=48 v=95
128649 Off ch=11 n=74 v=64
128655 Off ch=3 n=36 v=64
128655 On ch=3 n=36 v=95
128655 Off ch=10 n=46 v=64
128655 On ch=10 n=38 v=95
128868 Off ch=5 n=55 v=64
128868 Off ch=5 n=48 v=64
128868 On ch=5 n=55 v=95
128868 On ch=5 n=48 v=95
128880 Off ch=1 n=64 v=64
128880 On ch=1 n=65 v=95
128895 Off ch=3 n=36 v=64
128895 On ch=3 n=36 v=95
128895 Off ch=10 n=38 v=64
128895 On ch=10 n=46 v=95
129108 Off ch=5 n=55 v=64
129108 Off ch=5 n=48 v=64
129108 On ch=5 n=55 v=95
129108 On ch=5 n=48 v=95
129135 Off ch=3 n=36 v=64
129135 On ch=3 n=36 v=95
129135 Off ch=10 n=46 v=64
129135 On ch=10 n=35 v=95
129182 Meta Lyric "\r"
129348 Off ch=5 n=55 v=64
129348 Off ch=5 n=48 v=64
129348 On ch=5 n=55 v=95
129348 On ch=5 n=48 v=95
129360 Off ch=1 n=65 v=64
129360 On ch=1 n=64 v=95
129360 Meta Lyric "JUST "
129369 On ch=11 n=74 v=127
129375 Off ch=3 n=36 v=64
129375 On ch=3 n=36 v=95
129375 Off ch=10 n=35 v=64
129375 On ch=10 n=46 v=95
129588 Off ch=5 n=55 v=64
129588 Off ch=5 n=48 v=64
129600 Meta Lyric "TAKE "
129609 Off ch=11 n=74 v=64
129609 On ch=11 n=74 v=127
129615 Off ch=3 n=36 v=64
129615 Off ch=10 n=46 v=64
129840 Off ch=1 n=64 v=64
129840 Meta Lyric "IT "
129849 Off ch=11 n=74 v=64
129849 On ch=11 n=74 v=127
130089 Off ch=11 n=74 v=64
130548 On ch=5 n=57 v=95
130548 On ch=5 n=50 v=95
130560 Meta Lyric "OF"
130560 Meta Lyric "F "
130569 On ch=11 n=74 v=127
130575 On ch=3 n=38 v=95
130575 On ch=10 n=38 v=95
130788 Off ch=5 n=57 v=64
130788 Off ch=5 n=50 v=64
130788 On ch=5 n=57 v=95
130788 On ch=5 n=50 v=95
130800 On ch=1 n=67 v=95
130809 Off ch=11 n=74 v=64
130815 Off ch=3 n=38 v=64
130815 On ch=3 n=38 v=95
130815 Off ch=10 n=38 v=64
130815 On ch=10 n=46 v=95
131028 Off ch=5 n=57 v=64
131028 Off ch=5 n=50 v=64
131028 On ch=5 n=59 v=95
131028 On ch=5 n=52 v=95
131055 Off ch=3 n=38 v=64
131055 On ch=3 n=40 v=95
131055 Off ch=10 n=46 v=64
131055 On ch=10 n=35 v=95
131105 Meta Lyric "\r"
131268 Off ch=5 n=59 v=64
131268 Off ch=5 n=52 v=64
131268 On ch=5 n=59 v=95
131268 On ch=5 n=52 v=95
131280 Off ch=1 n=67 v=64
131280 On ch=1 n=64 v=95
131280 Meta Lyric "LET'S "
131289 On ch=11 n=76 v=127
131295 Off ch=3 n=40 v=64
131295 On ch=3 n=40 v=95
131295 Off ch=10 n=35 v=64
131295 On ch=10 n=46 v=95
131508 Off ch=5 n=59 v=64
131508 Off ch=5 n=52 v=64
131508 On ch=5 n=59 v=95
131508 On ch=5 n=52 v=95
131520 Meta Lyric "PAINT "
131529 Off ch=11 n=76 v=64
131529 On ch=11 n=76 v=127
131535 Off ch=3 n=40 v=64
131535 On ch=3 n=40 v=95
131535 Off ch=10 n=46 v=64
131535 On ch=10 n=38 v=95
131736 Meta Lyric "THE "
131748 Off ch=5 n=59 v=64
131748 Off ch=5 n=52 v=64
131748 On ch=5 n=59 v=95
131748 On ch=5 n=52 v=95
131760 Off ch=1 n=64 v=64
131760 On ch=1 n=67 v=95
131769 Off ch=11 n=76 v=64
131769 On ch=11 n=76 v=127
131775 Off ch=3 n=40 v=64
131775 On ch=3 n=40 v=95
131775 Off ch=10 n=38 v=64
131775 On ch=10 n=46 v=95
131988 Off ch=5 n=59 v=64
131988 Off ch=5 n=52 v=64
131988 On ch=5 n=59 v=95
131988 On ch=5 n=52 v=95
132000 Meta Lyric "TOWN "
132009 Off ch=11 n=76 v=64
132009 On ch=11 n=76 v=127
132015 Off ch=3 n=40 v=64
132015 On ch=3 n=40 v=95
132015 Off ch=10 n=46 v=64
132015 On ch=10 n=35 v=95
132228 Off ch=5 n=59 v=64
132228 Off ch=5 n=52 v=64
132228 On ch=5 n=59 v=95
132228 On ch=5 n=52 v=95
132240 Off ch=1 n=67 v=64
132240 On ch=1 n=64 v=95
132249 Off ch=11 n=76 v=64
132255 Off ch=3 n=40 v=64
132255 On ch=3 n=40 v=95
132255 Off ch=10 n=35 v=64
132255 On ch=10 n=46 v=95
132468 Off ch=5 n=59 v=64
132468 Off ch=5 n=52 v=64
132468 On ch=5 n=59 v=95
132468 On ch=5 n=52 v=95
132495 Off ch=3 n=40 v=64
132495 On ch=3 n=40 v=95
132495 Off ch=10 n=46 v=64
132495 On ch=10 n=38 v=95
132708 Off ch=5 n=59 v=64
132708 Off ch=5 n=52 v=64
132708 On ch=5 n=59 v=95
132708 On ch=5 n=52 v=95
132720 Off ch=1 n=64 v=64
132720 On ch=1 n=67 v=95
132735 Off ch=3 n=40 v=64
132735 On ch=3 n=40 v=95
132735 Off ch=10 n=38 v=64
132735 On ch=10 n=46 v=95
132948 Off ch=5 n=59 v=64
132948 Off ch=5 n=52 v=64
132948 On ch=5 n=59 v=95
132948 On ch=5 n=52 v=95
132975 Off ch=3 n=40 v=64
132975 On ch=3 n=40 v=95
132975 Off ch=10 n=46 v=64
132975 On ch=10 n=35 v=95
133188 Off ch=5 n=59 v=64
133188 Off ch=5 n=52 v=64
133196 Meta Lyric "\r"
133200 Off ch=1 n=67 v=64
133200 Meta Lyric "WE'LL "
133209 On ch=11 n=76 v=127
133215 Off ch=3 n=40 v=64
133215 Off ch=10 n=35 v=64
133440 Meta Lyric "SHUT "
133449 Off ch=11 n=76 v=64
133449 On ch=11 n=76 v=127
133680 Meta Lyric "IT "
133689 Off ch=11 n=76 v=64
133689 On ch=11 n=76 v=127
133920 Meta Lyric "DOWN "
133929 Off ch=11 n=76 v=64
133929 On ch=11 n=76 v=127
134148 On ch=5 n=57 v=95
134148 On ch=5 n=50 v=95
134160 On ch=1 n=64 v=95
134169 Off ch=11 n=76 v=64
134175 On ch=3 n=38 v=95
134175 On ch=10 n=46 v=95
134388 Off ch=5 n=57 v=64
134388 Off ch=5 n=50 v=64
134388 On ch=5 n=57 v=95
134388 On ch=5 n=50 v=95
134415 On ch=3 n=38 v=95
134415 Off ch=3 n=38 v=64
134415 On ch=10 n=38 v=95
134415 Off ch=10 n=46 v=64
134640 Off ch=1 n=64 v=64
134640 On ch=1 n=67 v=95
134655 On ch=3 n=38 v=95
134655 Off ch=3 n=38 v=64
134655 On ch=10 n=46 v=95
134655 Off ch=10 n=38 v=64
134868 Off ch=5 n=57 v=64
134868 Off ch=5 n=50 v=64
134868 On ch=5 n=55 v=95
134868 On ch=5 n=48 v=95
134895 On ch=3 n=36 v=95
134895 Off ch=3 n=38 v=64
134895 On ch=10 n=35 v=95
134895 Off ch=10 n=46 v=64
134943 Meta Lyric "\r"
135108 Off ch=5 n=55 v=64
135108 Off ch=5 n=48 v=64
135108 On ch=5 n=55 v=95
135108 On ch=5 n=48 v=95
135120 Off ch=1 n=67 v=64
135120 On ch=1 n=64 v=95
135120 Meta Lyric "LET'S "
135129 On ch=11 n=76 v=127
135135 On ch=3 n=36 v=95
135135 Off ch=3 n=36 v=64
135135 On ch=10 n=46 v=95
135135 Off ch=10 n=35 v=64
135348 Off ch=5 n=55 v=64
135348 Off ch=5 n=48 v=64
135348 On ch=5 n=55 v=95
135348 On ch=5 n=48 v=95
135360 Meta Lyric "BURN "
135369 Off ch=11 n=76 v=64
135369 On ch=11 n=76 v=127
135375 On ch=3 n=36 v=95
135375 Off ch=3 n=36 v=64
135375 On ch=10 n=38 v=95
135375 Off ch=10 n=46 v=64
135576 Meta Lyric "THE "
135588 Off ch=5 n=55 v=64
135588 Off ch=5 n=48 v=64
135588 On ch=5 n=55 v=95
135588 On ch=5 n=48 v=95
135600 Off ch=1 n=64 v=64
135600 On ch=1 n=67 v=95
135609 Off ch=11 n=76 v=64
135609 On ch=11 n=76 v=127
135615 On ch=3 n=36 v=95
135615 Off ch=3 n=36 v=64
135615 On ch=10 n=46 v=95
135615 Off ch=10 n=38 v=64
135828 Off ch=5 n=55 v=64
135828 Off ch=5 n=48 v=64
135828 On ch=5 n=55 v=95
135828 On ch=5 n=48 v=95
135840 Meta Lyric "ROOF "
135849 Off ch=11 n=76 v=64
135849 On ch=11 n=76 v=127
135855 On ch=3 n=36 v=95
135855 Off ch=3 n=36 v=64
135855 On ch=10 n=35 v=95
135855 Off ch=10 n=46 v=64
136068 Off ch=5 n=55 v=64
136068 Off ch=5 n=48 v=64
136068 On ch=5 n=55 v=95
136068 On ch=5 n=48 v=95
136080 Off ch=1 n=67 v=64
136080 On ch=1 n=64 v=95
136089 Off ch=11 n=76 v=64
136095 On ch=3 n=36 v=95
136095 Off ch=3 n=36 v=64
136095 On ch=10 n=46 v=95
136095 Off ch=10 n=35 v=64
136308 Off ch=5 n=55 v=64
136308 Off ch=5 n=48 v=64
136308 On ch=5 n=55 v=95
136308 On ch=5 n=48 v=95
136335 On ch=3 n=36 v=95
136335 Off ch=3 n=36 v=64
136335 On ch=10 n=38 v=95
136335 Off ch=10 n=46 v=64
136548 Off ch=5 n=55 v=64
136548 Off ch=5 n=48 v=64
136548 On ch=5 n=55 v=95
136548 On ch=5 n=48 v=95
136560 Off ch=1 n=64 v=64
136560 On ch=1 n=67 v=95
136575 On ch=3 n=36 v=95
136575 Off ch=3 n=36 v=64
136575 On ch=10 n=46 v=95
136575 Off ch=10 n=38 v=64
136750 Meta Lyric "\r"
136788 Off ch=5 n=55 v=64
136788 Off ch=5 n=48 v=64
136788 On ch=5 n=55 v=95
136788 On ch=5 n=48 v=95
136815 On ch=3 n=36 v=95
136815 Off ch=3 n=36 v=64
136815 On ch=10 n=35 v=95
136815 Off ch=10 n=46 v=64
137028 Off ch=5 n=55 v=64
137028 Off ch=5 n=48 v=64
137028 On ch=5 n=55 v=95
137028 On ch=5 n=48 v=95
137040 Off ch=1 n=67 v=64
137040 On ch=1 n=64 v=95
137040 Meta Lyric "AND "
137049 On ch=11 n=72 v=127
137055 On ch=3 n=36 v=95
137055 Off ch=3 n=36 v=64
137055 On ch=10 n=46 v=95
137055 Off ch=10 n=35 v=64
137268 Off ch=5 n=55 v=64
137268 Off ch=5 n=48 v=64
137268 On ch=5 n=55 v=95
137268 On ch=5 n=48 v=95
137280 Meta Lyric "THEN "
137289 Off ch=11 n=72 v=64
137289 On ch=11 n=71 v=127
137295 On ch=3 n=36 v=95
137295 Off ch=3 n=36 v=64
137295 On ch=10 n=38 v=95
137295 Off ch=10 n=46 v=64
137508 Off ch=5 n=55 v=64
137508 Off ch=5 n=48 v=64
137508 On ch=5 n=55 v=95
137508 On ch=5 n=48 v=95
137520 Off ch=1 n=64 v=64
137520 On ch=1 n=67 v=95
137520 Meta Lyric "WE'LL "
137529 Off ch=11 n=71 v=64
137529 On ch=11 n=69 v=127
137535 On ch=3 n=36 v=95
137535 Off ch=3 n=36 v=64
137535 On ch=10 n=46 v=95
137535 Off ch=10 n=38 v=64
137748 Off ch=5 n=55 v=64
137748 Off ch=5 n=48 v=64
137748 On ch=5 n=55 v=95
137748 On ch=5 n=48 v=95
137760 Meta Lyric "DO "
137769 Off ch=11 n=69 v=64
137769 On ch=11 n=67 v=127
137775 On ch=3 n=36 v=95
137775 Off ch=3 n=36 v=64
137775 On ch=10 n=35 v=95
137775 Off ch=10 n=46 v=64
137988 Off ch=5 n=55 v=64
137988 Off ch=5 n=48 v=64
137988 On ch=5 n=55 v=95
137988 On ch=5 n=48 v=95
138000 Off ch=1 n=67 v=64
138000 On ch=1 n=64 v=95
138009 Off ch=11 n=67 v=64
138009 On ch=11 n=67 v=127
138012 Meta Lyric "IT "
138015 On ch=3 n=36 v=95
138015 Off ch=3 n=36 v=64
138015 On ch=10 n=46 v=95
138015 Off ch=10 n=35 v=64
138228 Off ch=5 n=55 v=64
138228 Off ch=5 n=48 v=64
138228 On ch=5 n=55 v=95
138228 On ch=5 n=48 v=95
138249 Off ch=11 n=67 v=64
138249 On ch=11 n=64 v=127
138252 Meta Lyric "A"
138255 On ch=3 n=36 v=95
138255 Off ch=3 n=36 v=64
138255 On ch=10 n=38 v=95
138255 Off ch=10 n=46 v=64
138468 Off ch=5 n=55 v=64
138468 Off ch=5 n=48 v=64
138468 On ch=5 n=55 v=95
138468 On ch=5 n=48 v=95
138480 Off ch=1 n=64 v=64
138480 On ch=1 n=64 v=95
138489 Off ch=11 n=64 v=64
138489 On ch=11 n=72 v=127
138492 Meta Lyric "G"
138495 On ch=3 n=36 v=95
138495 Off ch=3 n=36 v=64
138495 On ch=10 n=46 v=95
138495 Off ch=10 n=38 v=64
138708 Off ch=5 n=55 v=64
138708 Off ch=5 n=48 v=64
138708 On ch=5 n=50 v=95
138708 On ch=5 n=43 v=95
138720 Meta Lyric "A"
138729 Off ch=11 n=72 v=64
138729 On ch=11 n=71 v=127
138735 On ch=3 n=31 v=95
138735 Off ch=3 n=36 v=64
138735 On ch=10 n=35 v=95
138735 Off ch=10 n=46 v=64
138828 Meta Lyric "I"
138849 Off ch=11 n=71 v=64
138849 On ch=11 n=69 v=127
138948 Off ch=5 n=50 v=64
138948 Off ch=5 n=43 v=64
138948 On ch=5 n=50 v=95
138948 On ch=5 n=43 v=95
138948 Meta Lyric "N "
138960 Off ch=1 n=64 v=64
138960 On ch=1 n=62 v=95
138969 Off ch=11 n=69 v=64
138969 On ch=11 n=67 v=127
138975 On ch=3 n=31 v=95
138975 Off ch=3 n=31 v=64
138975 On ch=10 n=46 v=95
138975 Off ch=10 n=35 v=64
139089 Off ch=11 n=67 v=64
139188 Off ch=5 n=50 v=64
139188 Off ch=5 n=43 v=64
139188 On ch=5 n=50 v=95
139188 On ch=5 n=43 v=95
139215 On ch=3 n=31 v=95
139215 Off ch=3 n=31 v=64
139215 On ch=10 n=38 v=95
139215 Off ch=10 n=46 v=64
139253 Meta Lyric "\r"
139428 Off ch=5 n=50 v=64
139428 Off ch=5 n=43 v=64
139428 On ch=5 n=50 v=95
139428 On ch=5 n=43 v=95
139440 Off ch=1 n=62 v=64
139440 On ch=1 n=64 v=95
139440 Meta Lyric "LET'S "
139449 On ch=11 n=72 v=127
139455 On ch=3 n=31 v=95
139455 Off ch=3 n=31 v=64
139455 On ch=10 n=46 v=95
139455 Off ch=10 n=38 v=64
139668 Off ch=5 n=50 v=64
139668 Off ch=5 n=43 v=64
139668 On ch=5 n=50 v=95
139668 On ch=5 n=43 v=95
139680 Meta Lyric "DO "
139689 Off ch=11 n=72 v=64
139689 On ch=11 n=71 v=127
139695 On ch=3 n=31 v=95
139695 Off ch=3 n=31 v=64
139695 On ch=10 n=35 v=95
139695 Off ch=10 n=46 v=64
139908 Off ch=5 n=50 v=64
139908 Off ch=5 n=43 v=64
139908 On ch=5 n=50 v=95
139908 On ch=5 n=43 v=95
139920 Off ch=1 n=64 v=64
139920 On ch=1 n=62 v=95
139920 Meta Lyric "IT"
139929 Off ch=11 n=71 v=64
139929 On ch=11 n=71 v=127
139935 On ch=3 n=31 v=95
139935 Off ch=3 n=31 v=64
139935 On ch=10 n=46 v=95
139935 Off ch=10 n=35 v=64
140148 Off ch=5 n=50 v=64
140148 Off ch=5 n=43 v=64
140148 On ch=5 n=50 v=95
140148 On ch=5 n=43 v=95
140169 Off ch=11 n=71 v=64
140175 On ch=3 n=31 v=95
140175 Off ch=3 n=31 v=64
140175 On ch=10 n=38 v=95
140175 Off ch=10 n=46 v=64
140210 Meta Lyric "\r"
140388 Off ch=5 n=50 v=64
140388 Off ch=5 n=43 v=64
140388 On ch=5 n=50 v=95
140388 On ch=5 n=43 v=95
140400 Off ch=1 n=62 v=64
140400 On ch=1 n=64 v=95
140400 Meta Lyric "LET'S "
140409 On ch=11 n=67 v=127
140415 On ch=3 n=31 v=95
140415 Off ch=3 n=31 v=64
140415 On ch=10 n=46 v=95
140415 Off ch=10 n=38 v=64
140628 Off ch=5 n=50 v=64
140628 Off ch=5 n=43 v=64
140628 On ch=5 n=50 v=95
140628 On ch=5 n=43 v=95
140640 Meta Lyric "DO "
140649 Off ch=11 n=67 v=64
140649 On ch=11 n=72 v=127
140655 On ch=3 n=31 v=95
140655 Off ch=3 n=31 v=64
140655 On ch=10 n=35 v=95
140655 Off ch=10 n=46 v=64
140868 Off ch=5 n=50 v=64
140868 Off ch=5 n=43 v=64
140868 On ch=5 n=50 v=95
140868 On ch=5 n=43 v=95
140880 Off ch=1 n=64 v=64
140880 On ch=1 n=62 v=95
140880 Meta Lyric "IT "
140889 Off ch=11 n=72 v=64
140889 On ch=11 n=72 v=127
140895 On ch=3 n=31 v=95
140895 Off ch=3 n=31 v=64
140895 On ch=10 n=46 v=95
140895 Off ch=10 n=35 v=64
141108 Off ch=5 n=50 v=64
141108 Off ch=5 n=43 v=64
141108 On ch=5 n=50 v=95
141108 On ch=5 n=43 v=95
141129 Off ch=11 n=72 v=64
141135 On ch=3 n=31 v=95
141135 Off ch=3 n=31 v=64
141135 On ch=10 n=38 v=95
141135 Off ch=10 n=46 v=64
141243 Meta Lyric "\r"
141348 Off ch=5 n=50 v=64
141348 Off ch=5 n=43 v=64
141348 On ch=5 n=50 v=95
141348 On ch=5 n=43 v=95
141360 Off ch=1 n=62 v=64
141360 On ch=1 n=64 v=95
141360 Meta Lyric "LET'S "
141369 On ch=11 n=72 v=127
141375 On ch=3 n=31 v=95
141375 Off ch=3 n=31 v=64
141375 On ch=10 n=46 v=95
141375 Off ch=10 n=38 v=64
141588 Off ch=5 n=50 v=64
141588 Off ch=5 n=43 v=64
141588 On ch=5 n=50 v=95
141588 On ch=5 n=43 v=95
141600 Meta Lyric "DO "
141609 Off ch=11 n=72 v=64
141609 On ch=11 n=71 v=127
141615 On ch=3 n=31 v=95
141615 Off ch=3 n=31 v=64
141615 On ch=10 n=35 v=95
141615 Off ch=10 n=46 v=64
141828 Off ch=5 n=50 v=64
141828 Off ch=5 n=43 v=64
141828 On ch=5 n=50 v=95
141828 On ch=5 n=43 v=95
141840 Off ch=1 n=64 v=64
141840 On ch=1 n=62 v=95
141840 Meta Lyric "IT "
141849 Off ch=11 n=71 v=64
141849 On ch=11 n=71 v=127
141855 On ch=3 n=31 v=95
141855 Off ch=3 n=31 v=64
141855 On ch=10 n=46 v=95
141855 Off ch=10 n=35 v=64
141935 Meta Lyric "\r"
142068 Off ch=5 n=50 v=64
142068 Off ch=5 n=43 v=64
142068 On ch=5 n=50 v=95
142068 On ch=5 n=43 v=95
142080 Meta Lyric "LET'S "
142089 Off ch=11 n=71 v=64
142089 On ch=11 n=67 v=127
142095 On ch=3 n=31 v=95
142095 Off ch=3 n=31 v=64
142095 On ch=10 n=38 v=95
142095 Off ch=10 n=46 v=64
142308 Off ch=5 n=50 v=64
142308 Off ch=5 n=43 v=64
142308 On ch=5 n=50 v=95
142308 On ch=5 n=43 v=95
142320 Off ch=1 n=62 v=64
142320 On ch=1 n=65 v=95
142320 Meta Lyric "DO "
142329 Off ch=11 n=67 v=64
142329 On ch=11 n=72 v=127
142335 Off ch=3 n=31 v=64
142335 On ch=3 n=31 v=95
142335 Off ch=10 n=38 v=64
142335 On ch=10 n=46 v=95
142548 Off ch=5 n=50 v=64
142548 Off ch=5 n=43 v=64
142548 On ch=5 n=55 v=95
142548 On ch=5 n=48 v=95
142560 Meta Lyric "IT "
142569 Off ch=11 n=72 v=64
142569 On ch=11 n=71 v=127
142575 Off ch=3 n=31 v=64
142575 On ch=3 n=36 v=95
142575 Off ch=10 n=46 v=64
142575 On ch=10 n=35 v=95
142788 Off ch=5 n=55 v=64
142788 Off ch=5 n=48 v=64
142788 On ch=5 n=55 v=95
142788 On ch=5 n=48 v=95
142800 Off ch=1 n=65 v=64
142800 On ch=1 n=64 v=95
142815 Off ch=3 n=36 v=64
142815 On ch=3 n=36 v=95
142815 Off ch=10 n=35 v=64
142815 On ch=10 n=46 v=95
143028 Off ch=5 n=55 v=64
143028 Off ch=5 n=48 v=64
143028 On ch=5 n=55 v=95
143028 On ch=5 n=48 v=95
143049 Off ch=11 n=71 v=64
143055 Off ch=3 n=36 v=64
143055 On ch=3 n=36 v=95
143055 Off ch=10 n=46 v=64
143055 On ch=10 n=38 v=95
143180 Meta Lyric "\r"
143268 Off ch=5 n=55 v=64
143268 Off ch=5 n=48 v=64
143268 On ch=5 n=55 v=95
143268 On ch=5 n=48 v=95
143280 Off ch=1 n=64 v=64
143280 On ch=1 n=65 v=95
143280 Meta Lyric "AND "
143289 On ch=11 n=72 v=127
143295 Off ch=3 n=36 v=64
143295 On ch=3 n=36 v=95
143295 Off ch=10 n=38 v=64
143295 On ch=10 n=46 v=95
143508 Off ch=5 n=55 v=64
143508 Off ch=5 n=48 v=64
143508 On ch=5 n=55 v=95
143508 On ch=5 n=48 v=95
143520 Meta Lyric "DO "
143529 Off ch=11 n=72 v=64
143529 On ch=11 n=71 v=127
143535 Off ch=3 n=36 v=64
143535 On ch=3 n=36 v=95
143535 Off ch=10 n=46 v=64
143535 On ch=10 n=35 v=95
143748 Off ch=5 n=55 v=64
143748 Off ch=5 n=48 v=64
143748 On ch=5 n=55 v=95
143748 On ch=5 n=48 v=95
143760 Off ch=1 n=65 v=64
143760 On ch=1 n=64 v=95
143760 Meta Lyric "IT"
143769 Off ch=11 n=71 v=64
143769 On ch=11 n=71 v=127
143775 Off ch=3 n=36 v=64
143775 On ch=3 n=36 v=95
143775 Off ch=10 n=35 v=64
143775 On ch=10 n=46 v=95
143988 Off ch=5 n=55 v=64
143988 Off ch=5 n=48 v=64
143988 On ch=5 n=55 v=95
143988 On ch=5 n=48 v=95
144009 Off ch=11 n=71 v=64
144015 Off ch=3 n=36 v=64
144015 On ch=3 n=36 v=95
144015 Off ch=10 n=46 v=64
144015 On ch=10 n=38 v=95
144167 Meta Lyric "\r"
144228 Off ch=5 n=55 v=64
144228 Off ch=5 n=48 v=64
144228 On ch=5 n=55 v=95
144228 On ch=5 n=48 v=95
144240 Off ch=1 n=64 v=64
144240 On ch=1 n=65 v=95
144240 Meta Lyric "AND "
144249 On ch=11 n=67 v=127
144255 Off ch=3 n=36 v=64
144255 On ch=3 n=36 v=95
144255 Off ch=10 n=38 v=64
144255 On ch=10 n=46 v=95
144468 Off ch=5 n=55 v=64
144468 Off ch=5 n=48 v=64
144468 On ch=5 n=55 v=95
144468 On ch=5 n=48 v=95
144480 Meta Lyric "DO "
144489 Off ch=11 n=67 v=64
144489 On ch=11 n=72 v=127
144495 Off ch=3 n=36 v=64
144495 On ch=3 n=36 v=95
144495 Off ch=10 n=46 v=64
144495 On ch=10 n=35 v=95
144708 Off ch=5 n=55 v=64
144708 Off ch=5 n=48 v=64
144708 On ch=5 n=55 v=95
144708 On ch=5 n=48 v=95
144720 Off ch=1 n=65 v=64
144720 On ch=1 n=64 v=95
144720 Meta Lyric "IT"
144729 Off ch=11 n=72 v=64
144729 On ch=11 n=72 v=127
144735 Off ch=3 n=36 v=64
144735 On ch=3 n=36 v=95
144735 Off ch=10 n=35 v=64
144735 On ch=10 n=46 v=95
144948 Off ch=5 n=55 v=64
144948 Off ch=5 n=48 v=64
144948 On ch=5 n=55 v=95
144948 On ch=5 n=48 v=95
144969 Off ch=11 n=72 v=64
144975 Off ch=3 n=36 v=64
144975 On ch=3 n=36 v=95
144975 Off ch=10 n=46 v=64
144975 On ch=10 n=38 v=95
145011 Meta Lyric "\r"
145188 Off ch=5 n=55 v=64
145188 Off ch=5 n=48 v=64
145188 On ch=5 n=55 v=95
145188 On ch=5 n=48 v=95
145200 Off ch=1 n=64 v=64
145200 On ch=1 n=65 v=95
145200 Meta Lyric "LET'S "
145209 On ch=11 n=69 v=127
145215 Off ch=3 n=36 v=64
145215 On ch=3 n=36 v=95
145215 Off ch=10 n=38 v=64
145215 On ch=10 n=46 v=95
145428 Off ch=5 n=55 v=64
145428 Off ch=5 n=48 v=64
145428 On ch=5 n=55 v=95
145428 On ch=5 n=48 v=95
145440 Meta Lyric "LIVE "
145449 Off ch=11 n=69 v=64
145449 On ch=11 n=67 v=127
145455 Off ch=3 n=36 v=64
145455 On ch=3 n=38 v=95
145455 Off ch=10 n=46 v=64
145455 On ch=10 n=35 v=95
145668 Off ch=5 n=55 v=64
145668 Off ch=5 n=48 v=64
145668 On ch=5 n=57 v=95
145668 On ch=5 n=50 v=95
145680 Off ch=1 n=65 v=64
145680 On ch=1 n=64 v=95
145695 Off ch=3 n=38 v=64
145695 On ch=3 n=38 v=95
145695 Off ch=10 n=35 v=64
145695 On ch=10 n=46 v=95
145788 Meta Lyric "IT "
145809 Off ch=11 n=67 v=64
145809 On ch=11 n=69 v=127
145908 Off ch=5 n=57 v=64
145908 Off ch=5 n=50 v=64
145908 On ch=5 n=57 v=95
145908 On ch=5 n=50 v=95
145920 Meta Lyric "UP"
145929 Off ch=11 n=69 v=64
145929 On ch=11 n=71 v=127
145935 Off ch=3 n=38 v=64
145935 On ch=3 n=38 v=95
145935 Off ch=10 n=46 v=64
145935 On ch=10 n=38 v=95
146049 Off ch=11 n=71 v=64
146108 Meta Lyric "\r"
146148 Off ch=5 n=57 v=64
146148 Off ch=5 n=50 v=64
146148 On ch=5 n=57 v=95
146148 On ch=5 n=50 v=95
146160 Off ch=1 n=64 v=64
146160 On ch=1 n=67 v=95
146160 Meta Lyric "AND "
146169 On ch=11 n=67 v=127
146175 Off ch=3 n=38 v=64
146175 On ch=3 n=38 v=95
146175 Off ch=10 n=38 v=64
146175 On ch=10 n=46 v=95
146388 Off ch=5 n=57 v=64
146388 Off ch=5 n=50 v=64
146388 On ch=5 n=59 v=95
146388 On ch=5 n=52 v=95
146400 Meta Lyric "DO "
146409 Off ch=11 n=67 v=64
146409 On ch=11 n=72 v=127
146415 Off ch=3 n=38 v=64
146415 On ch=3 n=40 v=95
146415 Off ch=10 n=46 v=64
146415 On ch=10 n=35 v=95
146628 Off ch=5 n=59 v=64
146628 Off ch=5 n=52 v=64
146628 On ch=5 n=59 v=95
146628 On ch=5 n=52 v=95
146640 Off ch=1 n=67 v=64
146640 On ch=1 n=64 v=95
146640 Meta Lyric "IT"
146649 Off ch=11 n=72 v=64
146649 On ch=11 n=72 v=127
146655 Off ch=3 n=40 v=64
146655 On ch=3 n=40 v=95
146655 Off ch=10 n=35 v=64
146655 On ch=10 n=46 v=95
146868 Off ch=5 n=59 v=64
146868 Off ch=5 n=52 v=64
146868 On ch=5 n=59 v=95
146868 On ch=5 n=52 v=95
146889 Off ch=11 n=72 v=64
146895 Off ch=3 n=40 v=64
146895 On ch=3 n=40 v=95
146895 Off ch=10 n=46 v=64
146895 On ch=10 n=38 v=95
147041 Meta Lyric "\r"
147108 Off ch=5 n=59 v=64
147108 Off ch=5 n=52 v=64
147108 On ch=5 n=59 v=95
147108 On ch=5 n=52 v=95
147120 Off ch=1 n=64 v=64
147120 On ch=1 n=67 v=95
147120 Meta Lyric "AND "
147129 On ch=11 n=72 v=127
147135 Off ch=3 n=40 v=64
147135 On ch=3 n=40 v=95
147135 Off ch=10 n=38 v=64
147135 On ch=10 n=46 v=95
147348 Off ch=5 n=59 v=64
147348 Off ch=5 n=52 v=64
147348 On ch=5 n=59 v=95
147348 On ch=5 n=52 v=95
147360 Meta Lyric "DO "
147369 Off ch=11 n=72 v=64
147369 On ch=11 n=71 v=127
147375 Off ch=3 n=40 v=64
147375 On ch=3 n=40 v=95
147375 Off ch=10 n=46 v=64
147375 On ch=10 n=35 v=95
147588 Off ch=5 n=59 v=64
147588 Off ch=5 n=52 v=64
147588 On ch=5 n=59 v=95
147588 On ch=5 n=52 v=95
147600 Off ch=1 n=67 v=64
147600 On ch=1 n=64 v=95
147600 Meta Lyric "IT"
147609 Off ch=11 n=71 v=64
147609 On ch=11 n=71 v=127
147615 Off ch=3 n=40 v=64
147615 On ch=3 n=40 v=95
147615 Off ch=10 n=35 v=64
147615 On ch=10 n=46 v=95
147828 Off ch=5 n=59 v=64
147828 Off ch=5 n=52 v=64
147828 On ch=5 n=59 v=95
147828 On ch=5 n=52 v=95
147849 Off ch=11 n=71 v=64
147855 Off ch=3 n=40 v=64
147855 On ch=3 n=40 v=95
147855 Off ch=10 n=46 v=64
147855 On ch=10 n=38 v=95
147947 Meta Lyric "\r"
148068 Off ch=5 n=59 v=64
148068 Off ch=5 n=52 v=64
148068 On ch=5 n=59 v=95
148068 On ch=5 n=52 v=95
148080 Off ch=1 n=64 v=64
148080 On ch=1 n=67 v=95
148080 Meta Lyric "AND "
148089 On ch=11 n=67 v=127
148095 Off ch=3 n=40 v=64
148095 On ch=3 n=40 v=95
148095 Off ch=10 n=38 v=64
148095 On ch=10 n=46 v=95
148308 Off ch=5 n=59 v=64
148308 Off ch=5 n=52 v=64
148308 On ch=5 n=59 v=95
148308 On ch=5 n=52 v=95
148320 Meta Lyric "DO "
148329 Off ch=11 n=67 v=64
148329 On ch=11 n=72 v=127
148335 Off ch=3 n=40 v=64
148335 On ch=3 n=40 v=95
148335 Off ch=10 n=46 v=64
148335 On ch=10 n=35 v=95
148548 Off ch=5 n=59 v=64
148548 Off ch=5 n=52 v=64
148548 On ch=5 n=59 v=95
148548 On ch=5 n=52 v=95
148560 Off ch=1 n=67 v=64
148560 On ch=1 n=64 v=95
148560 Meta Lyric "IT "
148569 Off ch=11 n=72 v=64
148569 On ch=11 n=72 v=127
148575 Off ch=3 n=40 v=64
148575 On ch=3 n=40 v=95
148575 Off ch=10 n=35 v=64
148575 On ch=10 n=46 v=95
148788 Off ch=5 n=59 v=64
148788 Off ch=5 n=52 v=64
148788 On ch=5 n=59 v=95
148788 On ch=5 n=52 v=95
148800 Meta Lyric "DO "
148809 Off ch=11 n=72 v=64
148809 On ch=11 n=72 v=127
148815 Off ch=3 n=40 v=64
148815 On ch=3 n=40 v=95
148815 Off ch=10 n=46 v=64
148815 On ch=10 n=38 v=95
149028 Off ch=5 n=59 v=64
149028 Off ch=5 n=52 v=64
149028 On ch=5 n=59 v=95
149028 On ch=5 n=52 v=95
149040 Off ch=1 n=64 v=64
149040 On ch=1 n=67 v=95
149040 Meta Lyric "IT "
149049 Off ch=11 n=72 v=64
149049 On ch=11 n=72 v=127
149055 Off ch=3 n=40 v=64
149055 On ch=3 n=40 v=95
149055 Off ch=10 n=38 v=64
149055 On ch=10 n=46 v=95
149268 Off ch=5 n=59 v=64
149268 Off ch=5 n=52 v=64
149268 On ch=5 n=59 v=95
149268 On ch=5 n=52 v=95
149280 Meta Lyric "DO "
149289 Off ch=11 n=72 v=64
149289 On ch=11 n=71 v=127
149295 Off ch=3 n=40 v=64
149295 On ch=3 n=38 v=95
149295 Off ch=10 n=46 v=64
149295 On ch=10 n=35 v=95
149508 Off ch=5 n=59 v=64
149508 Off ch=5 n=52 v=64
149508 On ch=5 n=57 v=95
149508 On ch=5 n=50 v=95
149520 Off ch=1 n=67 v=64
149520 On ch=1 n=64 v=95
149520 Meta Lyric "IT"
149529 Off ch=11 n=71 v=64
149529 On ch=11 n=71 v=127
149535 Off ch=3 n=38 v=64
149535 On ch=3 n=38 v=95
149535 Off ch=10 n=35 v=64
149535 On ch=10 n=46 v=95
149748 Off ch=5 n=57 v=64
149748 Off ch=5 n=50 v=64
149748 On ch=5 n=57 v=95
149748 On ch=5 n=50 v=95
149769 Off ch=11 n=71 v=64
149775 Off ch=3 n=38 v=64
149775 On ch=3 n=38 v=95
149775 Off ch=10 n=46 v=64
149775 On ch=10 n=38 v=95
149823 Meta Lyric "\r"
150000 Off ch=1 n=64 v=64
150000 On ch=1 n=67 v=95
150000 Meta Lyric "LET'S "
150009 On ch=11 n=67 v=127
150015 Off ch=3 n=38 v=64
150015 On ch=3 n=38 v=95
150015 Off ch=10 n=38 v=64
150015 On ch=10 n=46 v=95
150228 Off ch=5 n=57 v=64
150228 Off ch=5 n=50 v=64
150228 On ch=5 n=55 v=95
150228 On ch=5 n=48 v=95
150240 Meta Lyric "DO "
150249 Off ch=11 n=67 v=64
150249 On ch=11 n=72 v=127
150255 Off ch=3 n=38 v=64
150255 On ch=3 n=36 v=95
150255 Off ch=10 n=46 v=64
150255 On ch=10 n=35 v=95
150468 Off ch=5 n=55 v=64
150468 Off ch=5 n=48 v=64
150468 On ch=5 n=55 v=95
150468 On ch=5 n=48 v=95
150480 Off ch=1 n=67 v=64
150480 On ch=1 n=64 v=95
150480 Meta Lyric "IT"
150489 Off ch=11 n=72 v=64
150489 On ch=11 n=72 v=127
150495 Off ch=3 n=36 v=64
150495 On ch=3 n=36 v=95
150495 Off ch=10 n=35 v=64
150495 On ch=10 n=46 v=95
150708 Off ch=5 n=55 v=64
150708 Off ch=5 n=48 v=64
150708 On ch=5 n=55 v=95
150708 On ch=5 n=48 v=95
150729 Off ch=11 n=72 v=64
150735 Off ch=3 n=36 v=64
150735 On ch=3 n=36 v=95
150735 Off ch=10 n=46 v=64
150735 On ch=10 n=38 v=95
150865 Meta Lyric "\r"
150948 Off ch=5 n=55 v=64
150948 Off ch=5 n=48 v=64
150948 On ch=5 n=55 v=95
150948 On ch=5 n=48 v=95
150960 Off ch=1 n=64 v=64
150960 On ch=1 n=67 v=95
150960 Meta Lyric "LET'S "
150969 On ch=11 n=72 v=127
150975 Off ch=3 n=36 v=64
150975 On ch=3 n=36 v=95
150975 Off ch=10 n=38 v=64
150975 On ch=10 n=46 v=95
151188 Off ch=5 n=55 v=64
151188 Off ch=5 n=48 v=64
151188 On ch=5 n=55 v=95
151188 On ch=5 n=48 v=95
151200 Meta Lyric "DO "
151209 Off ch=11 n=72 v=64
151209 On ch=11 n=71 v=127
151215 Off ch=3 n=36 v=64
151215 On ch=3 n=36 v=95
151215 Off ch=10 n=46 v=64
151215 On ch=10 n=35 v=95
151428 Off ch=5 n=55 v=64
151428 Off ch=5 n=48 v=64
151428 On ch=5 n=55 v=95
151428 On ch=5 n=48 v=95
151440 Off ch=1 n=67 v=64
151440 On ch=1 n=64 v=95
151440 Meta Lyric "IT"
151449 Off ch=11 n=71 v=64
151449 On ch=11 n=71 v=127
151455 Off ch=3 n=36 v=64
151455 On ch=3 n=36 v=95
151455 Off ch=10 n=35 v=64
151455 On ch=10 n=46 v=95
151668 Off ch=5 n=55 v=64
151668 Off ch=5 n=48 v=64
151668 On ch=5 n=55 v=95
151668 On ch=5 n=48 v=95
151689 Off ch=11 n=71 v=64
151695 Off ch=3 n=36 v=64
151695 On ch=3 n=36 v=95
151695 Off ch=10 n=46 v=64
151695 On ch=10 n=38 v=95
151853 Meta Lyric "\r"
151908 Off ch=5 n=55 v=64
151908 Off ch=5 n=48 v=64
151908 On ch=5 n=55 v=95
151908 On ch=5 n=48 v=95
151920 Off ch=1 n=64 v=64
151920 On ch=1 n=67 v=95
151920 Meta Lyric "LET'S "
151929 On ch=11 n=67 v=127
151935 Off ch=3 n=36 v=64
151935 On ch=3 n=36 v=95
151935 Off ch=10 n=38 v=64
151935 On ch=10 n=46 v=95
152148 Off ch=5 n=55 v=64
152148 Off ch=5 n=48 v=64
152148 On ch=5 n=55 v=95
152148 On ch=5 n=48 v=95
152160 Meta Lyric "DO "
152169 Off ch=11 n=67 v=64
152169 On ch=11 n=72 v=127
152175 Off ch=3 n=36 v=64
152175 On ch=3 n=36 v=95
152175 Off ch=10 n=46 v=64
152175 On ch=10 n=35 v=95
152388 Off ch=5 n=55 v=64
152388 Off ch=5 n=48 v=64
152388 On ch=5 n=55 v=95
152388 On ch=5 n=48 v=95
152400 Off ch=1 n=67 v=64
152400 On ch=1 n=64 v=95
152400 Meta Lyric "IT"
152409 Off ch=11 n=72 v=64
152409 On ch=11 n=72 v=127
152415 Off ch=3 n=36 v=64
152415 On ch=3 n=36 v=95
152415 Off ch=10 n=35 v=64
152415 On ch=10 n=46 v=95
152628 Off ch=5 n=55 v=64
152628 Off ch=5 n=48 v=64
152628 On ch=5 n=55 v=95
152628 On ch=5 n=48 v=95
152649 Off ch=11 n=72 v=64
152655 Off ch=3 n=36 v=64
152655 On ch=3 n=36 v=95
152655 Off ch=10 n=46 v=64
152655 On ch=10 n=38 v=95
152743 Meta Lyric "\r"
152868 Off ch=5 n=55 v=64
152868 Off ch=5 n=48 v=64
152868 On ch=5 n=55 v=95
152868 On ch=5 n=48 v=95
152880 Off ch=1 n=64 v=64
152880 On ch=1 n=67 v=95
152889 On ch=11 n=67 v=127
152895 Off ch=3 n=36 v=64
152895 On ch=3 n=36 v=95
152895 Off ch=10 n=38 v=64
152895 On ch=10 n=46 v=95
152915 Meta Lyric "'CAUSE "
153108 Off ch=5 n=55 v=64
153108 Off ch=5 n=48 v=64
153108 On ch=5 n=55 v=95
153108 On ch=5 n=48 v=95
153120 Meta Lyric "I "
153129 Off ch=11 n=67 v=64
153129 On ch=11 n=67 v=127
153135 Off ch=3 n=36 v=64
153135 On ch=3 n=36 v=95
153135 Off ch=10 n=46 v=64
153135 On ch=10 n=35 v=95
153348 Off ch=5 n=55 v=64
153348 Off ch=5 n=48 v=64
153348 On ch=5 n=55 v=95
153348 On ch=5 n=48 v=95
153360 Off ch=1 n=67 v=64
153360 On ch=1 n=64 v=95
153369 Off ch=11 n=67 v=64
153369 On ch=11 n=69 v=127
153372 Meta Lyric "GO"
153375 Off ch=3 n=36 v=64
153375 On ch=3 n=36 v=95
153375 Off ch=10 n=35 v=64
153375 On ch=10 n=46 v=95
153588 Off ch=5 n=55 v=64
153588 Off ch=5 n=48 v=64
153588 On ch=5 n=55 v=95
153588 On ch=5 n=48 v=95
153609 Off ch=11 n=69 v=64
153609 On ch=11 n=67 v=127
153612 Meta Lyric "TTA "
153615 Off ch=3 n=36 v=64
153615 On ch=3 n=36 v=95
153615 Off ch=10 n=46 v=64
153615 On ch=10 n=38 v=95
153828 Off ch=5 n=55 v=64
153828 Off ch=5 n=48 v=64
153828 On ch=5 n=55 v=95
153828 On ch=5 n=48 v=95
153840 Off ch=1 n=64 v=64
153849 Off ch=11 n=67 v=64
153849 On ch=11 n=72 v=127
153852 Meta Lyric "FEE"
153855 Off ch=3 n=36 v=64
153855 On ch=3 n=36 v=95
153855 Off ch=10 n=38 v=64
153855 On ch=10 n=46 v=95
154068 Off ch=5 n=55 v=64
154068 Off ch=5 n=48 v=64
154080 On ch=1 n=62 v=95
154080 On ch=1 n=55 v=95
154080 Meta Lyric "LING"
154089 Off ch=11 n=72 v=64
154089 On ch=11 n=71 v=127
154095 Off ch=3 n=36 v=64
154095 On ch=3 n=31 v=95
154095 Off ch=10 n=46 v=64
154320 Off ch=1 n=62 v=64
154320 Off ch=1 n=55 v=64
154329 Off ch=11 n=71 v=64
154502 Meta Lyric "\r"
154560 On ch=1 n=62 v=95
154560 On ch=1 n=55 v=95
154800 Off ch=1 n=62 v=64
154800 Off ch=1 n=55 v=64
155040 On ch=1 n=62 v=95
155040 On ch=1 n=55 v=95
155040 Meta Lyric "WOO "
155049 On ch=11 n=81 v=74
155280 Off ch=1 n=62 v=64
155280 Off ch=1 n=55 v=64
155520 On ch=1 n=62 v=95
155520 On ch=1 n=55 v=95
155760 Off ch=1 n=62 v=64
155760 Off ch=1 n=55 v=64
156000 On ch=1 n=60 v=95
156000 On ch=1 n=55 v=95
156000 Meta Lyric "HOO "
156009 Off ch=11 n=81 v=64
156009 On ch=11 n=79 v=74
156240 Off ch=1 n=60 v=64
156240 Off ch=1 n=55 v=64
156480 On ch=1 n=60 v=95
156480 On ch=1 n=55 v=95
156720 Off ch=1 n=60 v=64
156720 Off ch=1 n=55 v=64
156729 Off ch=11 n=79 v=64
156960 On ch=1 n=59 v=95
156960 On ch=1 n=55 v=95
157058 Meta Lyric "\r"
157200 Off ch=1 n=59 v=64
157200 Off ch=1 n=55 v=64
157200 Meta Lyric "THAT "
157209 On ch=11 n=67 v=127
157440 On ch=1 n=59 v=95
157440 On ch=1 n=55 v=95
157440 Meta Lyric "TO"
157449 Off ch=11 n=67 v=64
157449 On ch=11 n=67 v=127
157668 Meta Lyric "NIGHT'S "
157680 Off ch=1 n=59 v=64
157680 Off ch=1 n=55 v=64
157689 Off ch=11 n=67 v=64
157689 On ch=11 n=72 v=127
157920 On ch=1 n=60 v=95
157920 On ch=1 n=55 v=95
157922 Meta Lyric "\r"
157935 Off ch=3 n=31 v=64
157935 On ch=3 n=36 v=95
158160 Off ch=1 n=60 v=64
158160 Off ch=1 n=55 v=64
158160 Meta Lyric "GO"
158169 Off ch=11 n=72 v=64
158169 On ch=11 n=71 v=127
158388 Meta Lyric "NNA "
158400 On ch=1 n=60 v=95
158400 On ch=1 n=55 v=95
158409 Off ch=11 n=71 v=64
158409 On ch=11 n=69 v=127
158640 Off ch=1 n=60 v=64
158640 Off ch=1 n=55 v=64
158640 Meta Lyric "BE "
158649 Off ch=11 n=69 v=64
158649 On ch=11 n=67 v=127
158880 On ch=1 n=60 v=95
158880 On ch=1 n=55 v=95
159009 Off ch=11 n=67 v=64
159120 Off ch=1 n=60 v=64
159120 Off ch=1 n=55 v=64
159120 Meta Lyric "A "
159129 On ch=11 n=64 v=127
159360 On ch=1 n=60 v=95
159360 On ch=1 n=55 v=95
159600 Off ch=1 n=60 v=64
159600 Off ch=1 n=55 v=64
159600 Meta Lyric "GOOD "
159609 Off ch=11 n=64 v=64
159609 On ch=11 n=72 v=127
159840 On ch=1 n=60 v=95
159840 On ch=1 n=55 v=95
160080 Off ch=1 n=60 v=64
160080 Off ch=1 n=55 v=64
160080 Meta Lyric "NIGHT "
160089 Off ch=11 n=72 v=64
160089 On ch=11 n=71 v=127
160320 On ch=1 n=60 v=95
160320 On ch=1 n=55 v=95
160329 Off ch=11 n=71 v=64
160524 Meta Lyric "\r"
160560 Off ch=1 n=60 v=64
160560 Off ch=1 n=55 v=64
160800 On ch=1 n=60 v=95
160800 On ch=1 n=55 v=95
160815 Off ch=3 n=36 v=64
160815 On ch=3 n=38 v=95
161027 Meta Lyric "THAT "
161036 On ch=11 n=67 v=127
161040 Off ch=1 n=60 v=64
161040 Off ch=1 n=55 v=64
161267 Meta Lyric "TO"
161276 On ch=11 n=67 v=127
161276 Off ch=11 n=67 v=64
161280 On ch=1 n=60 v=95
161280 On ch=1 n=55 v=95
161516 On ch=11 n=72 v=127
161516 Off ch=11 n=67 v=64
161520 Off ch=1 n=60 v=64
161520 Off ch=1 n=55 v=64
161531 Meta Lyric "NIGHT'S "
161760 On ch=1 n=59 v=95
161760 On ch=1 n=55 v=95
161775 Off ch=3 n=38 v=64
161775 On ch=3 n=40 v=95
161878 Meta Lyric "\r"
161987 Meta Lyric "GO"
161996 On ch=11 n=71 v=127
161996 Off ch=11 n=72 v=64
162000 Off ch=1 n=59 v=64
162000 Off ch=1 n=55 v=64
162236 On ch=11 n=69 v=127
162236 Off ch=11 n=71 v=64
162240 On ch=1 n=59 v=95
162240 On ch=1 n=55 v=95
162251 Meta Lyric "NNA "
162467 Meta Lyric "BE "
162476 On ch=11 n=67 v=127
162476 Off ch=11 n=69 v=64
162480 Off ch=1 n=59 v=64
162480 Off ch=1 n=55 v=64
162720 On ch=1 n=59 v=95
162720 On ch=1 n=55 v=95
162836 Off ch=11 n=67 v=64
162947 Meta Lyric "A "
162956 On ch=11 n=64 v=127
162960 Off ch=1 n=59 v=64
162960 Off ch=1 n=55 v=64
163200 On ch=1 n=59 v=95
163200 On ch=1 n=55 v=95
163427 Meta Lyric "GOOD "
163436 On ch=11 n=74 v=127
163436 Off ch=11 n=64 v=64
163440 Off ch=1 n=59 v=64
163440 Off ch=1 n=55 v=64
163680 On ch=1 n=59 v=95
163680 On ch=1 n=55 v=95
163907 Meta Lyric "NIGHT "
163916 On ch=11 n=71 v=127
163916 Off ch=11 n=74 v=64
163920 Off ch=1 n=59 v=64
163920 Off ch=1 n=55 v=64
164156 Off ch=11 n=71 v=64
164160 On ch=1 n=59 v=95
164160 On ch=1 n=55 v=95
164400 Off ch=1 n=59 v=64
164400 Off ch=1 n=55 v=64
164640 On ch=1 n=59 v=95
164640 On ch=1 n=55 v=95
164655 Off ch=3 n=40 v=64
164655 On ch=3 n=38 v=95
164729 Meta Lyric "\r"
164867 Meta Lyric "THAT "
164876 On ch=11 n=67 v=127
164880 Off ch=1 n=59 v=64
164880 Off ch=1 n=55 v=64
165107 Meta Lyric "TO"
165116 On ch=11 n=67 v=127
165116 Off ch=11 n=67 v=64
165120 On ch=1 n=59 v=95
165120 On ch=1 n=55 v=95
165356 On ch=11 n=74 v=127
165356 Off ch=11 n=67 v=64
165360 Off ch=1 n=59 v=64
165360 Off ch=1 n=55 v=64
165383 Meta Lyric "NIGHT'S "
165600 On ch=1 n=60 v=95
165600 On ch=1 n=55 v=95
165615 Off ch=3 n=38 v=64
165615 On ch=3 n=36 v=95
165769 Meta Lyric "\r"
165827 Meta Lyric "GO"
165836 On ch=11 n=71 v=127
165836 Off ch=11 n=74 v=64
165840 Off ch=1 n=60 v=64
165840 Off ch=1 n=55 v=64
166076 On ch=11 n=69 v=127
166076 Off ch=11 n=71 v=64
166079 Meta Lyric "NNA "
166080 On ch=1 n=60 v=95
166080 On ch=1 n=55 v=95
166307 Meta Lyric "BE "
166316 On ch=11 n=67 v=127
166316 Off ch=11 n=69 v=64
166320 Off ch=1 n=60 v=64
166320 Off ch=1 n=55 v=64
166560 On ch=1 n=60 v=95
166560 On ch=1 n=55 v=95
166676 Off ch=11 n=67 v=64
166787 Meta Lyric "A "
166796 On ch=11 n=64 v=127
166800 Off ch=1 n=60 v=64
166800 Off ch=1 n=55 v=64
167040 On ch=1 n=60 v=95
167040 On ch=1 n=55 v=95
167267 Meta Lyric "GOOD "
167276 On ch=11 n=74 v=127
167276 Off ch=11 n=64 v=64
167280 Off ch=1 n=60 v=64
167280 Off ch=1 n=55 v=64
167520 On ch=1 n=60 v=95
167520 On ch=1 n=55 v=95
167636 Off ch=11 n=74 v=64
167747 Meta Lyric "GOOD "
167756 On ch=11 n=74 v=127
167760 Off ch=1 n=60 v=64
167760 Off ch=1 n=55 v=64
168000 On ch=1 n=60 v=95
168000 On ch=1 n=55 v=95
168116 Off ch=11 n=74 v=64
168227 Meta Lyric "NIG"
168236 On ch=11 n=71 v=127
168240 Off ch=1 n=60 v=64
168240 Off ch=1 n=55 v=64
168476 On ch=11 n=69 v=127
168476 Off ch=11 n=71 v=64
168479 Meta Lyric "H"
168480 On ch=1 n=60 v=95
168480 On ch=1 n=55 v=95
168716 On ch=11 n=67 v=127
168716 Off ch=11 n=69 v=64
168720 Off ch=1 n=60 v=64
168720 Off ch=1 n=55 v=64
168731 Meta Lyric "T "
168891 Meta Lyric "\r"
168956 Off ch=11 n=67 v=64
168960 On ch=1 n=60 v=95
168960 On ch=1 n=55 v=95
168960 Meta Lyric "A "
168969 On ch=11 n=67 v=127
169200 Off ch=1 n=60 v=64
169200 Off ch=1 n=55 v=64
169200 Meta Lyric "FEE"
169209 Off ch=11 n=67 v=64
169209 On ch=11 n=72 v=127
169436 Par ch=5 c=11 v=7
169436 On ch=5 n=79 v=95
169440 On ch=1 n=62 v=95
169440 On ch=1 n=55 v=95
169440 Meta Lyric "LING "
169449 Off ch=11 n=72 v=64
169449 On ch=11 n=71 v=127
169455 Off ch=3 n=36 v=64
169455 On ch=3 n=31 v=95
169556 Par ch=5 c=11 v=14
169676 Par ch=5 c=11 v=20
169680 Off ch=1 n=62 v=64
169680 Off ch=1 n=55 v=64
169689 Off ch=11 n=71 v=64
169706 Par ch=6 c=7 v=20
169796 Par ch=5 c=11 v=27
169826 Par ch=6 c=7 v=27
169916 Par ch=5 c=11 v=34
169920 On ch=1 n=62 v=95
169920 On ch=1 n=55 v=95
169946 Par ch=6 c=7 v=34
170036 Par ch=5 c=11 v=41
170066 Par ch=6 c=7 v=41
170156 Par ch=5 c=11 v=47
170160 Off ch=1 n=62 v=64
170160 Off ch=1 n=55 v=64
170186 Par ch=6 c=7 v=47
170238 Meta Lyric "\r"
170276 Par ch=5 c=11 v=54
170306 Par ch=6 c=7 v=54
170396 Par ch=5 c=11 v=61
170400 On ch=1 n=62 v=95
170400 On ch=1 n=55 v=95
170400 Meta Lyric "WOO "
170409 On ch=11 n=81 v=70
170426 Par ch=6 c=7 v=61
170516 Par ch=5 c=11 v=68
170546 Par ch=6 c=7 v=68
170636 Par ch=5 c=11 v=74
170640 Off ch=1 n=62 v=64
170640 Off ch=1 n=55 v=64
170666 Par ch=6 c=7 v=74
170756 Par ch=5 c=11 v=81
170786 Par ch=6 c=7 v=81
170876 Par ch=5 c=11 v=88
170880 On ch=1 n=62 v=95
170880 On ch=1 n=55 v=95
170906 Par ch=6 c=7 v=88
171120 Off ch=1 n=62 v=64
171120 Off ch=1 n=55 v=64
171360 On ch=1 n=60 v=95
171360 On ch=1 n=55 v=95
171360 Meta Lyric "HOO "
171369 Off ch=11 n=81 v=64
171369 On ch=11 n=79 v=72
171600 Off ch=1 n=60 v=64
171600 Off ch=1 n=55 v=64
171840 On ch=1 n=60 v=95
171840 On ch=1 n=55 v=95
172080 Off ch=1 n=60 v=64
172080 Off ch=1 n=55 v=64
172089 Off ch=11 n=79 v=64
172320 On ch=1 n=59 v=95
172320 On ch=1 n=55 v=95
172494 Meta Lyric "\r"
172547 Meta Lyric "THAT "
172556 On ch=11 n=67 v=127
172560 Off ch=1 n=59 v=64
172560 Off ch=1 n=55 v=64
172787 Meta Lyric "TO"
172796 On ch=11 n=67 v=127
172796 Off ch=11 n=67 v=64
172800 On ch=1 n=59 v=95
172800 On ch=1 n=55 v=95
173036 On ch=11 n=72 v=127
173036 Off ch=11 n=67 v=64
173040 Off ch=1 n=59 v=64
173040 Off ch=1 n=55 v=64
173051 Meta Lyric "NIGHT'S "
173276 Off ch=5 n=79 v=64
173276 Par ch=5 c=11 v=7
173276 On ch=5 n=76 v=95
173280 On ch=1 n=60 v=95
173280 On ch=1 n=55 v=95
173295 Off ch=3 n=31 v=64
173295 On ch=3 n=36 v=95
173306 Par ch=6 c=7 v=7
173396 Par ch=5 c=11 v=14
173418 Meta Lyric "\r"
173426 Par ch=6 c=7 v=14
173507 Meta Lyric "GO"
173516 Par ch=5 c=11 v=20
173516 On ch=11 n=71 v=127
173516 Off ch=11 n=72 v=64
173520 Off ch=1 n=60 v=64
173520 Off ch=1 n=55 v=64
173546 Par ch=6 c=7 v=20
173636 Par ch=5 c=11 v=27
173666 Par ch=6 c=7 v=27
173756 Par ch=5 c=11 v=34
173756 On ch=11 n=69 v=127
173756 Off ch=11 n=71 v=64
173760 On ch=1 n=60 v=95
173760 On ch=1 n=55 v=95
173771 Meta Lyric "NNA "
173786 Par ch=6 c=7 v=34
173876 Par ch=5 c=11 v=41
173906 Par ch=6 c=7 v=41
173987 Meta Lyric "BE "
173996 Par ch=5 c=11 v=47
173996 On ch=11 n=67 v=127
173996 Off ch=11 n=69 v=64
174000 Off ch=1 n=60 v=64
174000 Off ch=1 n=55 v=64
174026 Par ch=6 c=7 v=47
174116 Par ch=5 c=11 v=54
174146 Par ch=6 c=7 v=54
174236 Par ch=5 c=11 v=61
174240 On ch=1 n=60 v=95
174240 On ch=1 n=55 v=95
174266 Par ch=6 c=7 v=61
174356 Par ch=5 c=11 v=68
174356 Off ch=11 n=67 v=64
174386 Par ch=6 c=7 v=68
174467 Meta Lyric "A "
174476 Par ch=5 c=11 v=74
174476 On ch=11 n=64 v=127
174480 Off ch=1 n=60 v=64
174480 Off ch=1 n=55 v=64
174506 Par ch=6 c=7 v=74
174596 Par ch=5 c=11 v=81
174626 Par ch=6 c=7 v=81
174716 Par ch=5 c=11 v=88
174720 On ch=1 n=60 v=95
174720 On ch=1 n=55 v=95
174746 Par ch=6 c=7 v=88
174947 Meta Lyric "GOOD "
174956 On ch=11 n=72 v=127
174956 Off ch=11 n=64 v=64
174960 Off ch=1 n=60 v=64
174960 Off ch=1 n=55 v=64
175200 On ch=1 n=60 v=95
175200 On ch=1 n=55 v=95
175427 Meta Lyric "NIGHT "
175436 On ch=11 n=71 v=127
175436 Off ch=11 n=72 v=64
175440 Off ch=1 n=60 v=64
175440 Off ch=1 n=55 v=64
175676 Off ch=11 n=71 v=64
175680 On ch=1 n=60 v=95
175680 On ch=1 n=55 v=95
175920 Off ch=1 n=60 v=64
175920 Off ch=1 n=55 v=64
176142 Meta Lyric "\r"
176160 On ch=1 n=60 v=95
176160 On ch=1 n=55 v=95
176175 Off ch=3 n=36 v=64
176175 On ch=3 n=38 v=95
176387 Meta Lyric "THAT "
176396 On ch=11 n=67 v=127
176400 Off ch=1 n=60 v=64
176400 Off ch=1 n=55 v=64
176627 Meta Lyric "TO"
176636 On ch=11 n=67 v=127
176636 Off ch=11 n=67 v=64
176640 On ch=1 n=60 v=95
176640 On ch=1 n=55 v=95
176876 On ch=11 n=72 v=127
176876 Off ch=11 n=67 v=64
176879 Meta Lyric "NIGHT'S "
176880 Off ch=1 n=60 v=64
176880 Off ch=1 n=55 v=64
177116 Off ch=5 n=76 v=64
177116 Par ch=5 c=11 v=7
177116 On ch=5 n=81 v=95
177120 On ch=1 n=59 v=95
177120 On ch=1 n=55 v=95
177135 Off ch=3 n=38 v=64
177135 On ch=3 n=40 v=95
177146 Par ch=6 c=7 v=7
177236 Par ch=5 c=11 v=14
177266 Par ch=6 c=7 v=14
177321 Meta Lyric "\r"
177347 Meta Lyric "GO"
177356 Par ch=5 c=11 v=20
177356 On ch=11 n=71 v=127
177356 Off ch=11 n=72 v=64
177360 Off ch=1 n=59 v=64
177360 Off ch=1 n=55 v=64
177386 Par ch=6 c=7 v=20
177476 Par ch=5 c=11 v=27
177506 Par ch=6 c=7 v=27
177596 Par ch=5 c=11 v=34
177596 On ch=11 n=69 v=127
177596 Off ch=11 n=71 v=64
177599 Meta Lyric "NNA "
177600 On ch=1 n=59 v=95
177600 On ch=1 n=55 v=95
177626 Par ch=6 c=7 v=34
177716 Par ch=5 c=11 v=41
177746 Par ch=6 c=7 v=41
177827 Meta Lyric "BE "
177836 Par ch=5 c=11 v=47
177836 On ch=11 n=67 v=127
177836 Off ch=11 n=69 v=64
177840 Off ch=1 n=59 v=64
177840 Off ch=1 n=55 v=64
177866 Par ch=6 c=7 v=47
177956 Par ch=5 c=11 v=54
177986 Par ch=6 c=7 v=54
178076 Par ch=5 c=11 v=61
178080 On ch=1 n=59 v=95
178080 On ch=1 n=55 v=95
178106 Par ch=6 c=7 v=61
178196 Par ch=5 c=11 v=68
178196 Off ch=11 n=67 v=64
178226 Par ch=6 c=7 v=68
178307 Meta Lyric "A "
178316 Par ch=5 c=11 v=74
178316 On ch=11 n=64 v=127
178320 Off ch=1 n=59 v=64
178320 Off ch=1 n=55 v=64
178346 Par ch=6 c=7 v=74
178436 Par ch=5 c=11 v=81
178466 Par ch=6 c=7 v=81
178556 Par ch=5 c=11 v=88
178560 On ch=1 n=59 v=95
178560 On ch=1 n=55 v=95
178586 Par ch=6 c=7 v=88
178787 Meta Lyric "GOOD "
178796 On ch=11 n=74 v=127
178796 Off ch=11 n=64 v=64
178800 Off ch=1 n=59 v=64
178800 Off ch=1 n=55 v=64
179040 On ch=1 n=59 v=95
179040 On ch=1 n=55 v=95
179267 Meta Lyric "NIGHT "
179276 On ch=11 n=71 v=127
179276 Off ch=11 n=74 v=64
179280 Off ch=1 n=59 v=64
179280 Off ch=1 n=55 v=64
179516 Off ch=11 n=71 v=64
179520 On ch=1 n=59 v=95
179520 On ch=1 n=55 v=95
179558 Meta Lyric "\r"
179760 Off ch=1 n=59 v=64
179760 Off ch=1 n=55 v=64
180000 On ch=1 n=59 v=95
180000 On ch=1 n=55 v=95
180015 Off ch=3 n=40 v=64
180015 On ch=3 n=38 v=95
180227 Meta Lyric "THAT "
180236 On ch=11 n=67 v=127
180240 Off ch=1 n=59 v=64
180240 Off ch=1 n=55 v=64
180467 Meta Lyric "TO"
180476 On ch=11 n=67 v=127
180476 Off ch=11 n=67 v=64
180480 On ch=1 n=59 v=95
180480 On ch=1 n=55 v=95
180716 On ch=11 n=74 v=127
180716 Off ch=11 n=67 v=64
180720 Off ch=1 n=59 v=64
180720 Off ch=1 n=55 v=64
180731 Meta Lyric "NIGHT'S "
180956 Off ch=5 n=81 v=64
180956 Par ch=5 c=11 v=7
180956 On ch=5 n=79 v=95
180960 On ch=1 n=60 v=95
180960 On ch=1 n=55 v=95
180975 Off ch=3 n=38 v=64
180975 On ch=3 n=36 v=95
180986 Par ch=6 c=7 v=7
181076 Par ch=5 c=11 v=14
181106 Par ch=6 c=7 v=14
181160 Meta Lyric "\r"
181187 Meta Lyric "GO"
181196 Par ch=5 c=11 v=20
181196 On ch=11 n=71 v=127
181196 Off ch=11 n=74 v=64
181200 Off ch=1 n=60 v=64
181200 Off ch=1 n=55 v=64
181226 Par ch=6 c=7 v=20
181316 Par ch=5 c=11 v=27
181346 Par ch=6 c=7 v=27
181427 Meta Lyric "NNA "
181436 Par ch=5 c=11 v=34
181436 On ch=11 n=69 v=127
181436 Off ch=11 n=71 v=64
181440 On ch=1 n=60 v=95
181440 On ch=1 n=55 v=95
181466 Par ch=6 c=7 v=34
181556 Par ch=5 c=11 v=41
181586 Par ch=6 c=7 v=41
181667 Meta Lyric "BE "
181676 Par ch=5 c=11 v=47
181676 On ch=11 n=67 v=127
181676 Off ch=11 n=69 v=64
181680 Off ch=1 n=60 v=64
181680 Off ch=1 n=55 v=64
181706 Par ch=6 c=7 v=47
181796 Par ch=5 c=11 v=54
181826 Par ch=6 c=7 v=54
181916 Par ch=5 c=11 v=61
181920 On ch=1 n=60 v=95
181920 On ch=1 n=55 v=95
181946 Par ch=6 c=7 v=61
182036 Par ch=5 c=11 v=68
182036 Off ch=11 n=67 v=64
182066 Par ch=6 c=7 v=68
182147 Meta Lyric "A "
182156 Par ch=5 c=11 v=74
182156 On ch=11 n=64 v=127
182160 Off ch=1 n=60 v=64
182160 Off ch=1 n=55 v=64
182186 Par ch=6 c=7 v=74
182276 Par ch=5 c=11 v=81
182306 Par ch=6 c=7 v=81
182396 Par ch=5 c=11 v=88
182400 On ch=1 n=60 v=95
182400 On ch=1 n=55 v=95
182426 Par ch=6 c=7 v=88
182627 Meta Lyric "GOOD "
182636 On ch=11 n=74 v=127
182636 Off ch=11 n=64 v=64
182640 Off ch=1 n=60 v=64
182640 Off ch=1 n=55 v=64
182880 On ch=1 n=60 v=95
182880 On ch=1 n=55 v=95
182996 Off ch=11 n=74 v=64
183107 Meta Lyric "GOOD "
183116 On ch=11 n=74 v=127
183120 Off ch=1 n=60 v=64
183120 Off ch=1 n=55 v=64
183360 On ch=1 n=60 v=95
183360 On ch=1 n=55 v=95
183476 Off ch=11 n=74 v=64
183587 Meta Lyric "NIG"
183596 On ch=11 n=71 v=127
183600 Off ch=1 n=60 v=64
183600 Off ch=1 n=55 v=64
183827 Meta Lyric "H"
183836 On ch=11 n=69 v=127
183836 Off ch=11 n=71 v=64
183840 On ch=1 n=60 v=95
183840 On ch=1 n=55 v=95
184076 On ch=11 n=67 v=127
184076 Off ch=11 n=69 v=64
184080 Off ch=1 n=60 v=64
184080 Off ch=1 n=55 v=64
184103 Meta Lyric "T "
184316 Off ch=11 n=67 v=64
184320 On ch=1 n=60 v=95
184320 On ch=1 n=55 v=95
184560 Off ch=1 n=60 v=64
184560 Off ch=1 n=55 v=64
184796 Off ch=5 n=79 v=64
184800 On ch=1 n=62 v=95
184800 On ch=1 n=55 v=95
184815 Off ch=3 n=36 v=64
184815 On ch=3 n=31 v=95
184815 On ch=7 n=67 v=95
184895 Meta Lyric "\r"
185040 Off ch=1 n=62 v=64
185040 Off ch=1 n=55 v=64
185040 Meta Lyric "TO"
185049 On ch=11 n=71 v=127
185055 Off ch=7 n=67 v=64
185055 On ch=7 n=64 v=95
185280 On ch=1 n=62 v=95
185280 On ch=1 n=55 v=95
185280 Meta Lyric "NIGHT'S "
185289 On ch=11 n=71 v=127
185295 Off ch=7 n=64 v=64
185295 On ch=7 n=59 v=95
185520 Off ch=1 n=62 v=64
185520 Off ch=1 n=55 v=64
185520 Meta Lyric "THE "
185529 Off ch=11 n=71 v=64
185529 On ch=11 n=71 v=125
185535 Off ch=7 n=59 v=64
185535 On ch=7 n=67 v=95
185760 On ch=1 n=62 v=95
185760 On ch=1 n=55 v=95
185760 Meta Lyric "NIGHT "
185769 Off ch=11 n=71 v=64
185769 On ch=11 n=71 v=125
185775 Off ch=7 n=67 v=64
185775 On ch=7 n=64 v=95
186000 Off ch=1 n=62 v=64
186000 Off ch=1 n=55 v=64
186009 Off ch=11 n=71 v=64
186015 Off ch=7 n=64 v=64
186015 On ch=7 n=59 v=95
186240 On ch=1 n=62 v=95
186240 On ch=1 n=55 v=95
186249 Off ch=11 n=71 v=64
186255 Off ch=7 n=59 v=64
186255 On ch=7 n=67 v=95
186480 Off ch=1 n=62 v=64
186480 Off ch=1 n=55 v=64
186495 Off ch=7 n=67 v=64
186495 On ch=7 n=64 v=95
186720 On ch=1 n=60 v=95
186720 On ch=1 n=55 v=95
186735 Off ch=7 n=64 v=64
186735 On ch=7 n=67 v=95
186775 Meta Lyric "\r"
186960 Off ch=1 n=60 v=64
186960 Off ch=1 n=55 v=64
186960 Meta Lyric "LET'S "
186969 On ch=11 n=71 v=125
186975 Off ch=7 n=67 v=64
186975 On ch=7 n=64 v=95
187200 On ch=1 n=60 v=95
187200 On ch=1 n=55 v=95
187200 Meta Lyric "LIVE "
187209 Off ch=11 n=71 v=64
187209 On ch=11 n=71 v=125
187215 Off ch=7 n=64 v=64
187215 On ch=7 n=59 v=95
187440 Off ch=1 n=60 v=64
187440 Off ch=1 n=55 v=64
187449 Off ch=11 n=71 v=64
187449 On ch=11 n=69 v=125
187452 Meta Lyric "IT "
187455 Off ch=7 n=59 v=64
187455 On ch=7 n=67 v=95
187680 On ch=1 n=59 v=95
187680 On ch=1 n=55 v=95
187680 Meta Lyric "UP "
187689 Off ch=11 n=69 v=64
187689 On ch=11 n=67 v=125
187695 Off ch=7 n=67 v=64
187695 On ch=7 n=64 v=95
187920 Off ch=1 n=59 v=64
187920 Off ch=1 n=55 v=64
187929 Off ch=11 n=67 v=64
187935 Off ch=7 n=64 v=64
187935 On ch=7 n=59 v=95
188160 On ch=1 n=59 v=95
188160 On ch=1 n=55 v=95
188175 Off ch=7 n=59 v=64
188175 On ch=7 n=67 v=95
188400 Off ch=1 n=59 v=64
188400 Off ch=1 n=55 v=64
188415 Off ch=7 n=67 v=64
188415 On ch=7 n=64 v=95
188640 On ch=1 n=60 v=95
188640 On ch=1 n=55 v=95
188655 Off ch=3 n=31 v=64
188655 On ch=3 n=36 v=95
188655 Off ch=7 n=64 v=64
188655 On ch=7 n=67 v=95
188717 Meta Lyric "\r"
188880 Off ch=1 n=60 v=64
188880 Off ch=1 n=55 v=64
188880 Meta Lyric "I "
188889 On ch=11 n=71 v=125
188895 Off ch=7 n=67 v=64
188895 On ch=7 n=64 v=95
189120 On ch=1 n=60 v=95
189120 On ch=1 n=55 v=95
189120 Meta Lyric "GOT "
189129 Off ch=11 n=71 v=64
189129 On ch=11 n=71 v=125
189135 Off ch=7 n=64 v=64
189135 On ch=7 n=60 v=95
189360 Off ch=1 n=60 v=64
189360 Off ch=1 n=55 v=64
189360 Meta Lyric "MY "
189369 Off ch=11 n=71 v=64
189369 On ch=11 n=71 v=125
189375 Off ch=7 n=60 v=64
189375 On ch=7 n=67 v=95
189600 On ch=1 n=60 v=95
189600 On ch=1 n=55 v=95
189600 Meta Lyric "MO"
189609 Off ch=11 n=71 v=64
189609 On ch=11 n=71 v=127
189615 Off ch=7 n=67 v=64
189615 On ch=7 n=64 v=95
189792 Meta Lyric "NEY "
189840 Off ch=1 n=60 v=64
189840 Off ch=1 n=55 v=64
189849 Off ch=11 n=71 v=64
189855 Off ch=7 n=64 v=64
189855 On ch=7 n=60 v=95
190080 On ch=1 n=60 v=95
190080 On ch=1 n=55 v=95
190095 Off ch=7 n=60 v=64
190095 On ch=7 n=67 v=95
190320 Off ch=1 n=60 v=64
190320 Off ch=1 n=55 v=64
190335 Off ch=7 n=67 v=64
190335 On ch=7 n=64 v=95
190367 Meta Lyric "\r"
190560 On ch=1 n=60 v=95
190560 On ch=1 n=55 v=95
190575 Off ch=7 n=64 v=64
190575 On ch=7 n=67 v=95
190800 Off ch=1 n=60 v=64
190800 Off ch=1 n=55 v=64
190800 Meta Lyric "LET'S "
190809 On ch=11 n=71 v=127
190815 Off ch=7 n=67 v=64
190815 On ch=7 n=64 v=95
191040 On ch=1 n=60 v=95
191040 On ch=1 n=55 v=95
191040 Meta Lyric "SPEND "
191049 Off ch=11 n=71 v=64
191049 On ch=11 n=71 v=127
191055 Off ch=7 n=64 v=64
191055 On ch=7 n=60 v=95
191268 Meta Lyric "IT "
191280 Off ch=1 n=60 v=64
191280 Off ch=1 n=55 v=64
191289 Off ch=11 n=71 v=64
191289 On ch=11 n=71 v=127
191295 Off ch=7 n=60 v=64
191295 On ch=7 n=67 v=95
191520 On ch=1 n=60 v=95
191520 On ch=1 n=55 v=95
191520 Meta Lyric "UP "
191529 Off ch=11 n=71 v=64
191529 On ch=11 n=71 v=127
191535 Off ch=3 n=36 v=64
191535 On ch=3 n=38 v=95
191535 Off ch=7 n=67 v=64
191535 On ch=7 n=64 v=95
191760 Off ch=1 n=60 v=64
191760 Off ch=1 n=55 v=64
191769 Off ch=11 n=71 v=64
191775 Off ch=7 n=64 v=64
191775 On ch=7 n=60 v=95
192000 On ch=1 n=60 v=95
192000 On ch=1 n=55 v=95
192015 Off ch=7 n=60 v=64
192015 On ch=7 n=67 v=95
192240 Off ch=1 n=60 v=64
192240 Off ch=1 n=55 v=64
192255 Off ch=7 n=67 v=64
192255 On ch=7 n=64 v=95
192446 Meta Lyric "\r"
192480 On ch=1 n=59 v=95
192480 On ch=1 n=55 v=95
192495 Off ch=3 n=38 v=64
192495 On ch=3 n=40 v=95
192495 Off ch=7 n=64 v=64
192495 On ch=7 n=67 v=95
192720 Off ch=1 n=59 v=64
192720 Off ch=1 n=55 v=64
192720 Meta Lyric "GO "
192729 On ch=11 n=71 v=127
192735 Off ch=7 n=67 v=64
192735 On ch=7 n=64 v=95
192960 On ch=1 n=59 v=95
192960 On ch=1 n=55 v=95
192960 Meta Lyric "OUT "
192969 Off ch=11 n=71 v=64
192969 On ch=11 n=71 v=127
192975 Off ch=7 n=64 v=64
192975 On ch=7 n=59 v=95
193200 Off ch=1 n=59 v=64
193200 Off ch=1 n=55 v=64
193200 Meta Lyric "AND "
193209 Off ch=11 n=71 v=64
193209 On ch=11 n=71 v=127
193215 Off ch=7 n=59 v=64
193215 On ch=7 n=67 v=95
193440 On ch=1 n=59 v=95
193440 On ch=1 n=55 v=95
193440 Meta Lyric "SMASH "
193449 Off ch=11 n=71 v=64
193449 On ch=11 n=71 v=127
193455 Off ch=7 n=67 v=64
193455 On ch=7 n=64 v=95
193680 Off ch=1 n=59 v=64
193680 Off ch=1 n=55 v=64
193689 Off ch=11 n=71 v=64
193695 Off ch=7 n=64 v=64
193695 On ch=7 n=59 v=95
193752 Meta Lyric "IT "
193920 On ch=1 n=59 v=95
193920 On ch=1 n=55 v=95
193935 Off ch=7 n=59 v=64
193935 On ch=7 n=67 v=95
194160 Off ch=1 n=59 v=64
194160 Off ch=1 n=55 v=64
194175 Off ch=7 n=67 v=64
194175 On ch=7 n=64 v=95
194364 Meta Lyric "\r"
194400 On ch=1 n=59 v=95
194400 On ch=1 n=55 v=95
194415 Off ch=7 n=64 v=64
194415 On ch=7 n=67 v=95
194640 Off ch=1 n=59 v=64
194640 Off ch=1 n=55 v=64
194640 Meta Lyric "LIKE "
194649 On ch=11 n=71 v=127
194655 Off ch=7 n=67 v=64
194655 On ch=7 n=64 v=95
194880 On ch=1 n=59 v=95
194880 On ch=1 n=55 v=95
194880 Meta Lyric "OH "
194889 Off ch=11 n=71 v=64
194889 On ch=11 n=71 v=127
194895 Off ch=7 n=64 v=64
194895 On ch=7 n=59 v=95
195120 Off ch=1 n=59 v=64
195120 Off ch=1 n=55 v=64
195120 Meta Lyric "MY "
195129 Off ch=11 n=71 v=64
195129 On ch=11 n=71 v=127
195135 Off ch=7 n=59 v=64
195135 On ch=7 n=67 v=95
195360 On ch=1 n=59 v=95
195360 On ch=1 n=55 v=95
195360 Meta Lyric "GOD "
195369 Off ch=11 n=71 v=64
195369 On ch=11 n=71 v=127
195375 Off ch=3 n=40 v=64
195375 On ch=3 n=38 v=95
195375 Off ch=7 n=67 v=64
195375 On ch=7 n=64 v=95
195600 Off ch=1 n=59 v=64
195600 Off ch=1 n=55 v=64
195609 Off ch=11 n=71 v=64
195615 Off ch=7 n=64 v=64
195615 On ch=7 n=59 v=95
195840 On ch=1 n=59 v=95
195840 On ch=1 n=55 v=95
195855 Off ch=7 n=59 v=64
195855 On ch=7 n=67 v=95
196080 Off ch=1 n=59 v=64
196080 Off ch=1 n=55 v=64
196095 Off ch=7 n=67 v=64
196095 On ch=7 n=64 v=95
196320 On ch=1 n=60 v=95
196320 On ch=1 n=55 v=95
196335 Off ch=3 n=38 v=64
196335 On ch=3 n=36 v=95
196335 Off ch=7 n=64 v=64
196335 On ch=7 n=67 v=95
196406 Meta Lyric "\r"
196560 Off ch=1 n=60 v=64
196560 Off ch=1 n=55 v=64
196560 Meta Lyric "JUMP "
196569 On ch=11 n=71 v=127
196575 Off ch=7 n=67 v=64
196575 On ch=7 n=64 v=95
196800 On ch=1 n=60 v=95
196800 On ch=1 n=55 v=95
196800 Meta Lyric "OFF "
196809 Off ch=11 n=71 v=64
196809 On ch=11 n=71 v=127
196815 Off ch=7 n=64 v=64
196815 On ch=7 n=60 v=95
197004 Meta Lyric "THAT "
197040 Off ch=1 n=60 v=64
197040 Off ch=1 n=55 v=64
197049 Off ch=11 n=71 v=64
197049 On ch=11 n=71 v=127
197055 Off ch=7 n=60 v=64
197055 On ch=7 n=67 v=95
197280 On ch=1 n=60 v=95
197280 On ch=1 n=55 v=95
197280 Meta Lyric "SO"
197289 Off ch=11 n=71 v=64
197289 On ch=11 n=71 v=127
197295 Off ch=7 n=67 v=64
197295 On ch=7 n=64 v=95
197436 Meta Lyric "FA "
197520 Off ch=1 n=60 v=64
197520 Off ch=1 n=55 v=64
197529 Off ch=11 n=71 v=64
197535 Off ch=7 n=64 v=64
197535 On ch=7 n=60 v=95
197760 On ch=1 n=60 v=95
197760 On ch=1 n=55 v=95
197775 Off ch=7 n=60 v=64
197775 On ch=7 n=67 v=95
198000 Off ch=1 n=60 v=64
198000 Off ch=1 n=55 v=64
198015 Off ch=7 n=67 v=64
198015 On ch=7 n=64 v=95
198096 Meta Lyric "\r"
198240 On ch=1 n=60 v=95
198240 On ch=1 n=55 v=95
198255 Off ch=7 n=64 v=64
198255 On ch=7 n=67 v=95
198480 Off ch=1 n=60 v=64
198480 Off ch=1 n=55 v=64
198480 Meta Lyric "LET'S "
198489 On ch=11 n=71 v=127
198495 Off ch=7 n=67 v=64
198495 On ch=7 n=64 v=95
198720 On ch=1 n=60 v=95
198720 On ch=1 n=55 v=95
198720 Meta Lyric "GET "
198729 Off ch=11 n=71 v=64
198729 On ch=11 n=71 v=127
198735 Off ch=7 n=64 v=64
198735 On ch=7 n=60 v=95
198924 Meta Lyric "GET "
198960 Off ch=1 n=60 v=64
198960 Off ch=1 n=55 v=64
198969 Off ch=11 n=71 v=64
198969 On ch=11 n=71 v=127
198975 Off ch=7 n=60 v=64
198975 On ch=7 n=67 v=95
199200 On ch=1 n=60 v=95
199200 On ch=1 n=55 v=95
199209 Off ch=11 n=71 v=64
199215 Off ch=7 n=67 v=64
199215 On ch=7 n=64 v=95
199440 Off ch=1 n=60 v=64
199440 Off ch=1 n=55 v=64
199455 Off ch=7 n=64 v=64
199455 On ch=7 n=60 v=95
199680 On ch=1 n=60 v=95
199680 On ch=1 n=55 v=95
199680 Meta Lyric "OFF "
199689 On ch=11 n=71 v=127
199695 Off ch=7 n=60 v=64
199695 On ch=7 n=67 v=95
199920 Off ch=1 n=60 v=64
199920 Off ch=1 n=55 v=64
199929 Off ch=11 n=71 v=64
199935 Off ch=7 n=67 v=64
199935 On ch=7 n=64 v=95
200160 On ch=1 n=62 v=95
200160 On ch=1 n=55 v=95
200164 On ch=5 n=69 v=95
200175 Off ch=3 n=36 v=64
200175 On ch=3 n=31 v=95
200175 Off ch=7 n=64 v=64
200175 On ch=7 n=67 v=95
200212 Meta Lyric "\r"
200400 Off ch=1 n=62 v=64
200400 Off ch=1 n=55 v=64
200400 Meta Lyric "FILL "
200409 On ch=11 n=74 v=127
200415 Off ch=7 n=67 v=64
200415 On ch=7 n=64 v=95
200640 On ch=1 n=62 v=95
200640 On ch=1 n=55 v=95
200640 Meta Lyric "UP "
200649 On ch=11 n=74 v=127
200655 Off ch=7 n=64 v=64
200655 On ch=7 n=59 v=95
200880 Off ch=1 n=62 v=64
200880 Off ch=1 n=55 v=64
200880 Meta Lyric "MY "
200889 Off ch=11 n=74 v=64
200889 On ch=11 n=74 v=127
200895 Off ch=7 n=59 v=64
200895 On ch=7 n=67 v=95
201120 On ch=1 n=62 v=95
201120 On ch=1 n=55 v=95
201120 Meta Lyric "CUP "
201129 Off ch=11 n=74 v=64
201129 On ch=11 n=74 v=127
201135 Off ch=7 n=67 v=64
201135 On ch=7 n=64 v=95
201360 Off ch=1 n=62 v=64
201360 Off ch=1 n=55 v=64
201369 Off ch=11 n=74 v=64
201375 Off ch=7 n=64 v=64
201375 On ch=7 n=59 v=95
201600 On ch=1 n=62 v=95
201600 On ch=1 n=55 v=95
201609 Off ch=11 n=74 v=64
201615 Off ch=7 n=59 v=64
201615 On ch=7 n=67 v=95
201840 Off ch=1 n=62 v=64
201840 Off ch=1 n=55 v=64
201844 Off ch=5 n=69 v=64
201844 On ch=5 n=67 v=95
201855 Off ch=7 n=67 v=64
201855 On ch=7 n=64 v=95
201959 Meta Lyric "\r"
202080 On ch=1 n=60 v=95
202080 On ch=1 n=55 v=95
202095 Off ch=7 n=64 v=64
202095 On ch=7 n=67 v=95
202320 Off ch=1 n=60 v=64
202320 Off ch=1 n=55 v=64
202320 Meta Lyric "MO"
202329 On ch=11 n=74 v=127
202335 Off ch=7 n=67 v=64
202335 On ch=7 n=64 v=95
202560 On ch=1 n=60 v=95
202560 On ch=1 n=55 v=95
202560 Meta Lyric "ZOL"
202569 Off ch=11 n=74 v=64
202569 On ch=11 n=69 v=127
202575 Off ch=7 n=64 v=64
202575 On ch=7 n=59 v=95
202788 Meta Lyric "TOV  "
202800 Off ch=1 n=60 v=64
202800 Off ch=1 n=55 v=64
202809 Off ch=11 n=69 v=64
202809 On ch=11 n=67 v=127
202815 Off ch=7 n=59 v=64
202815 On ch=7 n=67 v=95
203040 On ch=1 n=59 v=95
203040 On ch=1 n=55 v=95
203049 Off ch=11 n=67 v=64
203055 Off ch=7 n=67 v=64
203055 On ch=7 n=64 v=95
203280 Off ch=1 n=59 v=64
203280 Off ch=1 n=55 v=64
203295 Off ch=7 n=64 v=64
203295 On ch=7 n=59 v=95
203520 On ch=1 n=59 v=95
203520 On ch=1 n=55 v=95
203535 Off ch=7 n=59 v=64
203535 On ch=7 n=67 v=95
203760 Off ch=1 n=59 v=64
203760 Off ch=1 n=55 v=64
203775 Off ch=7 n=67 v=64
203775 On ch=7 n=64 v=95
203992 Meta Lyric "\r"
204000 On ch=1 n=60 v=95
204000 On ch=1 n=55 v=95
204004 Off ch=5 n=67 v=64
204004 On ch=5 n=69 v=95
204015 Off ch=3 n=31 v=64
204015 On ch=3 n=36 v=95
204015 Off ch=7 n=64 v=64
204015 On ch=7 n=67 v=95
204240 Off ch=1 n=60 v=64
204240 Off ch=1 n=55 v=64
204240 Meta Lyric "LOOK "
204249 On ch=11 n=74 v=127
204255 Off ch=7 n=67 v=64
204255 On ch=7 n=64 v=95
204480 On ch=1 n=60 v=95
204480 On ch=1 n=55 v=95
204480 Meta Lyric "AT "
204489 On ch=11 n=74 v=127
204495 Off ch=7 n=64 v=64
204495 On ch=7 n=60 v=95
204720 Off ch=1 n=60 v=64
204720 Off ch=1 n=55 v=64
204720 Meta Lyric "HER "
204729 Off ch=11 n=74 v=64
204729 On ch=11 n=74 v=127
204735 Off ch=7 n=60 v=64
204735 On ch=7 n=67 v=95
204960 On ch=1 n=60 v=95
204960 On ch=1 n=55 v=95
204960 Meta Lyric "DAN"
204969 Off ch=11 n=74 v=64
204969 On ch=11 n=74 v=127
204975 Off ch=7 n=67 v=64
204975 On ch=7 n=64 v=95
205200 Off ch=1 n=60 v=64
205200 Off ch=1 n=55 v=64
205200 Meta Lyric "CING "
205209 Off ch=11 n=74 v=64
205209 Off ch=11 n=74 v=64
205209 On ch=11 n=74 v=127
205215 Off ch=7 n=64 v=64
205215 On ch=7 n=60 v=95
205440 On ch=1 n=60 v=95
205440 On ch=1 n=55 v=95
205449 Off ch=11 n=74 v=64
205455 Off ch=7 n=60 v=64
205455 On ch=7 n=67 v=95
205680 Off ch=1 n=60 v=64
205680 Off ch=1 n=55 v=64
205684 Off ch=5 n=69 v=64
205684 On ch=5 n=67 v=95
205695 Off ch=7 n=67 v=64
205695 On ch=7 n=64 v=95
205920 On ch=1 n=60 v=95
205920 On ch=1 n=55 v=95
205935 Off ch=7 n=64 v=64
205935 On ch=7 n=67 v=95
206010 Meta Lyric "\r"
206160 Off ch=1 n=60 v=64
206160 Off ch=1 n=55 v=64
206160 Meta Lyric "JUST "
206169 On ch=11 n=74 v=127
206175 Off ch=7 n=67 v=64
206175 On ch=7 n=64 v=95
206400 On ch=1 n=60 v=95
206400 On ch=1 n=55 v=95
206400 Meta Lyric "TAKE "
206409 Off ch=11 n=74 v=64
206409 On ch=11 n=74 v=127
206415 Off ch=7 n=64 v=64
206415 On ch=7 n=60 v=95
206640 Off ch=1 n=60 v=64
206640 Off ch=1 n=55 v=64
206640 Meta Lyric "IT "
206649 Off ch=11 n=74 v=64
206649 On ch=11 n=74 v=127
206655 Off ch=7 n=60 v=64
206655 On ch=7 n=67 v=95
206880 On ch=1 n=60 v=95
206880 On ch=1 n=55 v=95
206884 Off ch=5 n=67 v=64
206884 On ch=5 n=72 v=95
206889 Off ch=11 n=74 v=64
206895 Off ch=3 n=36 v=64
206895 On ch=3 n=38 v=95
206895 Off ch=7 n=67 v=64
206895 On ch=7 n=64 v=95
207120 Off ch=1 n=60 v=64
207120 Off ch=1 n=55 v=64
207135 Off ch=7 n=64 v=64
207135 On ch=7 n=60 v=95
207360 On ch=1 n=60 v=95
207360 On ch=1 n=55 v=95
207360 Meta Lyric "OF"
207360 Meta Lyric "F "
207369 On ch=11 n=74 v=127
207375 Off ch=7 n=60 v=64
207375 On ch=7 n=67 v=95
207600 Off ch=1 n=60 v=64
207600 Off ch=1 n=55 v=64
207609 Off ch=11 n=74 v=64
207615 Off ch=7 n=67 v=64
207615 On ch=7 n=64 v=95
207802 Meta Lyric "\r"
207840 On ch=1 n=59 v=95
207840 On ch=1 n=55 v=95
207844 Off ch=5 n=72 v=64
207844 On ch=5 n=69 v=95
207855 Off ch=3 n=38 v=64
207855 On ch=3 n=40 v=95
207855 Off ch=7 n=64 v=64
207855 On ch=7 n=67 v=95
208080 Off ch=1 n=59 v=64
208080 Off ch=1 n=55 v=64
208080 Meta Lyric "LET'S "
208089 On ch=11 n=76 v=127
208095 Off ch=7 n=67 v=64
208095 On ch=7 n=64 v=95
208320 On ch=1 n=59 v=95
208320 On ch=1 n=55 v=95
208320 Meta Lyric "PAINT "
208329 Off ch=11 n=76 v=64
208329 On ch=11 n=76 v=127
208335 Off ch=7 n=64 v=64
208335 On ch=7 n=59 v=95
208524 Meta Lyric "THE "
208560 Off ch=1 n=59 v=64
208560 Off ch=1 n=55 v=64
208569 Off ch=11 n=76 v=64
208569 On ch=11 n=76 v=127
208575 Off ch=7 n=59 v=64
208575 On ch=7 n=67 v=95
208800 On ch=1 n=59 v=95
208800 On ch=1 n=55 v=95
208800 Meta Lyric "TOWN "
208809 Off ch=11 n=76 v=64
208809 On ch=11 n=76 v=127
208815 Off ch=7 n=67 v=64
208815 On ch=7 n=64 v=95
209040 Off ch=1 n=59 v=64
209040 Off ch=1 n=55 v=64
209049 Off ch=11 n=76 v=64
209055 Off ch=7 n=64 v=64
209055 On ch=7 n=59 v=95
209280 On ch=1 n=59 v=95
209280 On ch=1 n=55 v=95
209295 Off ch=7 n=59 v=64
209295 On ch=7 n=67 v=95
209520 Off ch=1 n=59 v=64
209520 Off ch=1 n=55 v=64
209524 Off ch=5 n=69 v=64
209524 On ch=5 n=67 v=95
209535 Off ch=7 n=67 v=64
209535 On ch=7 n=64 v=95
209621 Meta Lyric "\r"
209760 On ch=1 n=59 v=95
209760 On ch=1 n=55 v=95
209775 Off ch=7 n=64 v=64
209775 On ch=7 n=67 v=95
210000 Off ch=1 n=59 v=64
210000 Off ch=1 n=55 v=64
210000 Meta Lyric "WE'LL "
210009 On ch=11 n=76 v=127
210015 Off ch=7 n=67 v=64
210015 On ch=7 n=64 v=95
210240 On ch=1 n=59 v=95
210240 On ch=1 n=55 v=95
210240 Meta Lyric "SHUT "
210249 Off ch=11 n=76 v=64
210249 On ch=11 n=76 v=127
210255 Off ch=7 n=64 v=64
210255 On ch=7 n=59 v=95
210480 Off ch=1 n=59 v=64
210480 Off ch=1 n=55 v=64
210489 Off ch=11 n=76 v=64
210489 On ch=11 n=76 v=127
210492 Meta Lyric "IT "
210495 Off ch=7 n=59 v=64
210495 On ch=7 n=67 v=95
210720 On ch=1 n=59 v=95
210720 On ch=1 n=55 v=95
210720 Meta Lyric "DOWN "
210729 Off ch=11 n=76 v=64
210729 On ch=11 n=76 v=127
210735 Off ch=3 n=40 v=64
210735 On ch=3 n=38 v=95
210735 Off ch=7 n=67 v=64
210735 On ch=7 n=64 v=95
210960 Off ch=1 n=59 v=64
210960 Off ch=1 n=55 v=64
210969 Off ch=11 n=76 v=64
210975 Off ch=7 n=64 v=64
210975 On ch=7 n=59 v=95
211200 On ch=1 n=59 v=95
211200 On ch=1 n=55 v=95
211215 Off ch=7 n=59 v=64
211215 On ch=7 n=67 v=95
211440 Off ch=1 n=59 v=64
211440 Off ch=1 n=55 v=64
211455 Off ch=7 n=67 v=64
211455 On ch=7 n=64 v=95
211680 On ch=1 n=60 v=95
211680 On ch=1 n=55 v=95
211684 Off ch=5 n=67 v=64
211684 On ch=5 n=69 v=95
211693 Meta Lyric "\r"
211695 Off ch=3 n=38 v=64
211695 On ch=3 n=36 v=95
211695 Off ch=7 n=64 v=64
211695 On ch=7 n=67 v=95
211920 Off ch=1 n=60 v=64
211920 Off ch=1 n=55 v=64
211920 Meta Lyric "LET'S "
211929 On ch=11 n=76 v=127
211935 Off ch=7 n=67 v=64
211935 On ch=7 n=64 v=95
212160 On ch=1 n=60 v=95
212160 On ch=1 n=55 v=95
212160 Meta Lyric "BURN "
212169 Off ch=11 n=76 v=64
212169 On ch=11 n=76 v=127
212175 Off ch=7 n=64 v=64
212175 On ch=7 n=60 v=95
212376 Meta Lyric "THE "
212400 Off ch=1 n=60 v=64
212400 Off ch=1 n=55 v=64
212409 Off ch=11 n=76 v=64
212409 On ch=11 n=76 v=127
212415 Off ch=7 n=60 v=64
212415 On ch=7 n=67 v=95
212640 On ch=1 n=60 v=95
212640 On ch=1 n=55 v=95
212640 Meta Lyric "ROOF "
212649 Off ch=11 n=76 v=64
212649 On ch=11 n=76 v=127
212655 Off ch=7 n=67 v=64
212655 On ch=7 n=64 v=95
212880 Off ch=1 n=60 v=64
212880 Off ch=1 n=55 v=64
212889 Off ch=11 n=76 v=64
212895 Off ch=7 n=64 v=64
212895 On ch=7 n=60 v=95
213120 On ch=1 n=60 v=95
213120 On ch=1 n=55 v=95
213135 Off ch=7 n=60 v=64
213135 On ch=7 n=67 v=95
213360 Off ch=1 n=60 v=64
213360 Off ch=1 n=55 v=64
213364 Off ch=5 n=69 v=64
213364 On ch=5 n=67 v=95
213375 Off ch=7 n=67 v=64
213375 On ch=7 n=64 v=95
213600 On ch=1 n=60 v=95
213600 On ch=1 n=55 v=95
213615 Off ch=7 n=64 v=64
213615 On ch=7 n=67 v=95
213654 Meta Lyric "\r"
213840 Off ch=1 n=60 v=64
213840 Off ch=1 n=55 v=64
213840 Meta Lyric "AND "
213849 On ch=11 n=72 v=127
213855 Off ch=7 n=67 v=64
213855 On ch=7 n=64 v=95
214080 On ch=1 n=60 v=95
214080 On ch=1 n=55 v=95
214080 Meta Lyric "THEN "
214089 Off ch=11 n=72 v=64
214089 On ch=11 n=71 v=127
214095 Off ch=7 n=64 v=64
214095 On ch=7 n=60 v=95
214320 Off ch=1 n=60 v=64
214320 Off ch=1 n=55 v=64
214320 Meta Lyric "WE'LL "
214329 Off ch=11 n=71 v=64
214329 On ch=11 n=69 v=127
214335 Off ch=7 n=60 v=64
214335 On ch=7 n=67 v=95
214560 On ch=1 n=60 v=95
214560 On ch=1 n=55 v=95
214569 Off ch=11 n=69 v=64
214569 On ch=11 n=67 v=127
214572 Meta Lyric "DO "
214575 Off ch=7 n=67 v=64
214575 On ch=7 n=64 v=95
214800 Off ch=1 n=60 v=64
214800 Off ch=1 n=55 v=64
214800 Meta Lyric "IT "
214809 Off ch=11 n=67 v=64
214809 On ch=11 n=67 v=127
214815 Off ch=7 n=64 v=64
214815 On ch=7 n=60 v=95
215040 On ch=1 n=60 v=95
215040 On ch=1 n=55 v=95
215049 Off ch=11 n=67 v=64
215049 On ch=11 n=64 v=127
215052 Meta Lyric "A"
215055 Off ch=7 n=60 v=64
215055 On ch=7 n=67 v=95
215280 Off ch=1 n=60 v=64
215280 Off ch=1 n=55 v=64
215289 Off ch=11 n=64 v=64
215289 On ch=11 n=72 v=127
215295 Off ch=7 n=67 v=64
215295 On ch=7 n=64 v=95
215304 Meta Lyric "G"
215520 On ch=1 n=62 v=95
215520 On ch=1 n=55 v=95
215520 Meta Lyric "A"
215524 On ch=5 n=69 v=95
215529 Off ch=11 n=72 v=64
215529 On ch=11 n=71 v=127
215535 On ch=3 n=31 v=95
215535 Off ch=7 n=64 v=64
215535 On ch=7 n=67 v=95
215640 Meta Lyric "I"
215649 Off ch=11 n=71 v=64
215649 On ch=11 n=69 v=127
215760 Off ch=1 n=62 v=64
215760 Off ch=1 n=55 v=64
215760 Meta Lyric "N "
215769 Off ch=11 n=69 v=64
215769 On ch=11 n=67 v=127
215775 Off ch=7 n=67 v=64
215775 On ch=7 n=64 v=95
215889 Off ch=11 n=67 v=64
216000 On ch=1 n=62 v=95
216000 On ch=1 n=55 v=95
216015 Off ch=7 n=64 v=64
216015 On ch=7 n=59 v=95
216083 Meta Lyric "\r"
216240 Off ch=1 n=62 v=64
216240 Off ch=1 n=55 v=64
216240 Meta Lyric "LET'S "
216249 On ch=11 n=72 v=127
216255 Off ch=7 n=59 v=64
216255 On ch=7 n=67 v=95
216468 Meta Lyric "DO "
216480 On ch=1 n=62 v=95
216480 On ch=1 n=55 v=95
216489 Off ch=11 n=72 v=64
216489 On ch=11 n=71 v=127
216495 Off ch=7 n=67 v=64
216495 On ch=7 n=64 v=95
216720 Off ch=1 n=62 v=64
216720 Off ch=1 n=55 v=64
216720 Meta Lyric "IT"
216729 Off ch=11 n=71 v=64
216729 On ch=11 n=71 v=127
216735 Off ch=7 n=64 v=64
216735 On ch=7 n=59 v=95
216960 On ch=1 n=62 v=95
216960 On ch=1 n=55 v=95
216969 Off ch=11 n=71 v=64
216975 Off ch=7 n=59 v=64
216975 On ch=7 n=67 v=95
217009 Meta Lyric "\r"
217200 Off ch=1 n=62 v=64
217200 Off ch=1 n=55 v=64
217200 Meta Lyric "LET'S "
217204 Off ch=5 n=69 v=64
217204 On ch=5 n=67 v=95
217209 On ch=11 n=67 v=127
217215 Off ch=7 n=67 v=64
217215 On ch=7 n=64 v=95
217440 On ch=1 n=60 v=95
217440 On ch=1 n=55 v=95
217440 Meta Lyric "DO "
217444 Off ch=5 n=67 v=64
217449 Off ch=11 n=67 v=64
217449 On ch=11 n=72 v=127
217455 Off ch=3 n=36 v=64
217455 Off ch=7 n=64 v=64
217455 On ch=7 n=67 v=95
217680 Off ch=1 n=60 v=64
217680 Off ch=1 n=55 v=64
217680 Meta Lyric "IT "
217689 Off ch=11 n=72 v=64
217689 On ch=11 n=72 v=127
217695 Off ch=7 n=67 v=64
217695 On ch=7 n=64 v=95
217920 On ch=1 n=60 v=95
217920 On ch=1 n=55 v=95
217929 Off ch=11 n=72 v=64
217935 Off ch=7 n=64 v=64
217935 On ch=7 n=59 v=95
218074 Meta Lyric "\r"
218160 Off ch=1 n=60 v=64
218160 Off ch=1 n=55 v=64
218160 Meta Lyric "LET'S "
218169 On ch=11 n=72 v=127
218175 Off ch=7 n=59 v=64
218175 On ch=7 n=67 v=95
218400 On ch=1 n=59 v=95
218400 On ch=1 n=55 v=95
218400 Meta Lyric "DO "
218409 Off ch=11 n=72 v=64
218409 On ch=11 n=71 v=127
218415 Off ch=7 n=67 v=64
218415 On ch=7 n=64 v=95
218640 Off ch=1 n=59 v=64
218640 Off ch=1 n=55 v=64
218640 Meta Lyric "IT "
218649 Off ch=11 n=71 v=64
218649 On ch=11 n=71 v=127
218655 Off ch=7 n=64 v=64
218655 On ch=7 n=59 v=95
218808 Meta Lyric "\r"
218880 On ch=1 n=59 v=95
218880 On ch=1 n=55 v=95
218880 Meta Lyric "LET'S "
218889 Off ch=11 n=71 v=64
218889 On ch=11 n=67 v=127
218895 Off ch=7 n=59 v=64
218895 On ch=7 n=67 v=95
219108 Meta Lyric "DO "
219120 Off ch=1 n=59 v=64
219120 Off ch=1 n=55 v=64
219129 Off ch=11 n=67 v=64
219129 On ch=11 n=72 v=127
219135 Off ch=7 n=67 v=64
219135 On ch=7 n=64 v=95
219360 On ch=1 n=60 v=95
219360 On ch=1 n=55 v=95
219360 Meta Lyric "IT "
219364 Off ch=5 n=67 v=64
219364 On ch=5 n=69 v=95
219369 Off ch=11 n=72 v=64
219369 On ch=11 n=71 v=127
219375 Off ch=3 n=31 v=64
219375 On ch=3 n=36 v=95
219375 Off ch=7 n=64 v=64
219375 On ch=7 n=67 v=95
219600 Off ch=1 n=60 v=64
219600 Off ch=1 n=55 v=64
219615 Off ch=7 n=67 v=64
219615 On ch=7 n=64 v=95
219840 On ch=1 n=60 v=95
219840 On ch=1 n=55 v=95
219849 Off ch=11 n=71 v=64
219855 Off ch=7 n=64 v=64
219855 On ch=7 n=60 v=95
219959 Meta Lyric "\r"
220080 Off ch=1 n=60 v=64
220080 Off ch=1 n=55 v=64
220080 Meta Lyric "AND "
220089 On ch=11 n=72 v=127
220095 Off ch=7 n=60 v=64
220095 On ch=7 n=67 v=95
220320 On ch=1 n=60 v=95
220320 On ch=1 n=55 v=95
220320 Meta Lyric "DO "
220329 Off ch=11 n=72 v=64
220329 On ch=11 n=71 v=127
220335 Off ch=7 n=67 v=64
220335 On ch=7 n=64 v=95
220560 Off ch=1 n=60 v=64
220560 Off ch=1 n=55 v=64
220560 Meta Lyric "IT"
220569 Off ch=11 n=71 v=64
220569 On ch=11 n=71 v=127
220575 Off ch=7 n=64 v=64
220575 On ch=7 n=60 v=95
220800 On ch=1 n=60 v=95
220800 On ch=1 n=55 v=95
220809 Off ch=11 n=71 v=64
220815 Off ch=7 n=60 v=64
220815 On ch=7 n=67 v=95
220934 Meta Lyric "\r"
221040 Off ch=1 n=60 v=64
221040 Off ch=1 n=55 v=64
221040 Meta Lyric "AND "
221044 Off ch=5 n=69 v=64
221044 On ch=5 n=67 v=95
221049 On ch=11 n=67 v=127
221055 Off ch=7 n=67 v=64
221055 On ch=7 n=64 v=95
221280 On ch=1 n=60 v=95
221280 On ch=1 n=55 v=95
221280 Meta Lyric "DO "
221289 Off ch=11 n=67 v=64
221289 On ch=11 n=72 v=127
221295 Off ch=7 n=64 v=64
221295 On ch=7 n=67 v=95
221520 Off ch=1 n=60 v=64
221520 Off ch=1 n=55 v=64
221520 Meta Lyric "IT"
221529 Off ch=11 n=72 v=64
221529 On ch=11 n=72 v=127
221535 Off ch=7 n=67 v=64
221535 On ch=7 n=64 v=95
221760 On ch=1 n=60 v=95
221760 On ch=1 n=55 v=95
221769 Off ch=11 n=72 v=64
221775 Off ch=7 n=64 v=64
221775 On ch=7 n=60 v=95
221837 Meta Lyric "\r"
222000 Off ch=1 n=60 v=64
222000 Off ch=1 n=55 v=64
222000 Meta Lyric "LET'S "
222009 On ch=11 n=69 v=127
222015 Off ch=7 n=60 v=64
222015 On ch=7 n=67 v=95
222240 On ch=1 n=60 v=95
222240 On ch=1 n=55 v=95
222240 Meta Lyric "LIVE "
222244 Off ch=5 n=67 v=64
222244 On ch=5 n=72 v=95
222249 Off ch=11 n=69 v=64
222249 On ch=11 n=67 v=127
222255 Off ch=3 n=36 v=64
222255 On ch=3 n=38 v=95
222255 Off ch=7 n=67 v=64
222255 On ch=7 n=64 v=95
222480 Off ch=1 n=60 v=64
222480 Off ch=1 n=55 v=64
222495 Off ch=7 n=64 v=64
222495 On ch=7 n=60 v=95
222588 Meta Lyric "IT "
222609 Off ch=11 n=67 v=64
222609 On ch=11 n=69 v=127
222720 On ch=1 n=60 v=95
222720 On ch=1 n=55 v=95
222720 Meta Lyric "UP"
222729 Off ch=11 n=69 v=64
222729 On ch=11 n=71 v=127
222735 Off ch=7 n=60 v=64
222735 On ch=7 n=67 v=95
222799 Meta Lyric "\r"
222849 Off ch=11 n=71 v=64
222960 Off ch=1 n=60 v=64
222960 Off ch=1 n=55 v=64
222960 Meta Lyric "AND "
222969 On ch=11 n=67 v=127
222975 Off ch=7 n=67 v=64
222975 On ch=7 n=64 v=95
223200 On ch=1 n=59 v=95
223200 On ch=1 n=55 v=95
223200 Meta Lyric "DO "
223204 Off ch=5 n=72 v=64
223204 On ch=5 n=69 v=95
223209 Off ch=11 n=67 v=64
223209 On ch=11 n=72 v=127
223215 Off ch=3 n=38 v=64
223215 On ch=3 n=40 v=95
223215 Off ch=7 n=64 v=64
223215 On ch=7 n=67 v=95
223440 Off ch=1 n=59 v=64
223440 Off ch=1 n=55 v=64
223440 Meta Lyric "IT"
223449 Off ch=11 n=72 v=64
223449 On ch=11 n=72 v=127
223455 Off ch=7 n=67 v=64
223455 On ch=7 n=64 v=95
223680 On ch=1 n=59 v=95
223680 On ch=1 n=55 v=95
223689 Off ch=11 n=72 v=64
223695 Off ch=7 n=64 v=64
223695 On ch=7 n=59 v=95
223760 Meta Lyric "\r"
223920 Off ch=1 n=59 v=64
223920 Off ch=1 n=55 v=64
223920 Meta Lyric "AND "
223929 On ch=11 n=72 v=127
223935 Off ch=7 n=59 v=64
223935 On ch=7 n=67 v=95
224160 On ch=1 n=59 v=95
224160 On ch=1 n=55 v=95
224160 Meta Lyric "DO "
224169 Off ch=11 n=72 v=64
224169 On ch=11 n=71 v=127
224175 Off ch=7 n=67 v=64
224175 On ch=7 n=64 v=95
224400 Off ch=1 n=59 v=64
224400 Off ch=1 n=55 v=64
224400 Meta Lyric "IT"
224409 Off ch=11 n=71 v=64
224409 On ch=11 n=71 v=127
224415 Off ch=7 n=64 v=64
224415 On ch=7 n=59 v=95
224640 On ch=1 n=59 v=95
224640 On ch=1 n=55 v=95
224649 Off ch=11 n=71 v=64
224655 Off ch=7 n=59 v=64
224655 On ch=7 n=67 v=95
224762 Meta Lyric "\r"
224880 Off ch=1 n=59 v=64
224880 Off ch=1 n=55 v=64
224880 Meta Lyric "AND "
224884 Off ch=5 n=69 v=64
224884 On ch=5 n=67 v=95
224889 On ch=11 n=67 v=127
224895 Off ch=7 n=67 v=64
224895 On ch=7 n=64 v=95
225120 On ch=1 n=59 v=95
225120 On ch=1 n=55 v=95
225120 Meta Lyric "DO "
225129 Off ch=11 n=67 v=64
225129 On ch=11 n=72 v=127
225135 Off ch=7 n=64 v=64
225135 On ch=7 n=67 v=95
225360 Off ch=1 n=59 v=64
225360 Off ch=1 n=55 v=64
225360 Meta Lyric "IT "
225369 Off ch=11 n=72 v=64
225369 On ch=11 n=72 v=127
225375 Off ch=7 n=67 v=64
225375 On ch=7 n=64 v=95
225600 On ch=1 n=59 v=95
225600 On ch=1 n=55 v=95
225600 Meta Lyric "DO "
225609 Off ch=11 n=72 v=64
225609 On ch=11 n=72 v=127
225615 Off ch=7 n=64 v=64
225615 On ch=7 n=59 v=95
225840 Off ch=1 n=59 v=64
225840 Off ch=1 n=55 v=64
225840 Meta Lyric "IT "
225849 Off ch=11 n=72 v=64
225849 On ch=11 n=72 v=127
225855 Off ch=7 n=59 v=64
225855 On ch=7 n=67 v=95
226080 On ch=1 n=59 v=95
226080 On ch=1 n=55 v=95
226080 Meta Lyric "DO "
226089 Off ch=11 n=72 v=64
226089 On ch=11 n=71 v=127
226095 Off ch=3 n=40 v=64
226095 On ch=3 n=38 v=95
226095 Off ch=7 n=67 v=64
226095 On ch=7 n=64 v=95
226320 Off ch=1 n=59 v=64
226320 Off ch=1 n=55 v=64
226320 Meta Lyric "IT"
226329 Off ch=11 n=71 v=64
226329 On ch=11 n=71 v=127
226335 Off ch=7 n=64 v=64
226335 On ch=7 n=59 v=95
226560 On ch=1 n=59 v=95
226560 On ch=1 n=55 v=95
226569 Off ch=11 n=71 v=64
226575 Off ch=7 n=59 v=64
226575 On ch=7 n=67 v=95
226668 Meta Lyric "\r"
226800 Off ch=1 n=59 v=64
226800 Off ch=1 n=55 v=64
226800 Meta Lyric "LET'S "
226809 On ch=11 n=67 v=127
226815 Off ch=7 n=67 v=64
226815 On ch=7 n=64 v=95
227028 Meta Lyric "DO "
227040 On ch=1 n=60 v=95
227040 On ch=1 n=55 v=95
227044 Off ch=5 n=67 v=64
227044 On ch=5 n=69 v=95
227049 Off ch=11 n=67 v=64
227049 On ch=11 n=72 v=127
227055 Off ch=3 n=38 v=64
227055 On ch=3 n=36 v=95
227055 Off ch=7 n=64 v=64
227055 On ch=7 n=67 v=95
227280 Off ch=1 n=60 v=64
227280 Off ch=1 n=55 v=64
227280 Meta Lyric "IT"
227289 Off ch=11 n=72 v=64
227289 On ch=11 n=72 v=127
227295 Off ch=7 n=67 v=64
227295 On ch=7 n=64 v=95
227520 On ch=1 n=60 v=95
227520 On ch=1 n=55 v=95
227529 Off ch=11 n=72 v=64
227535 Off ch=7 n=64 v=64
227535 On ch=7 n=60 v=95
227671 Meta Lyric "\r"
227760 Off ch=1 n=60 v=64
227760 Off ch=1 n=55 v=64
227760 Meta Lyric "LET'S "
227769 On ch=11 n=72 v=127
227775 Off ch=7 n=60 v=64
227775 On ch=7 n=67 v=95
227988 Meta Lyric "DO "
228000 On ch=1 n=60 v=95
228000 On ch=1 n=55 v=95
228009 Off ch=11 n=72 v=64
228009 On ch=11 n=71 v=127
228015 Off ch=7 n=67 v=64
228015 On ch=7 n=64 v=95
228240 Off ch=1 n=60 v=64
228240 Off ch=1 n=55 v=64
228240 Meta Lyric "IT"
228249 Off ch=11 n=71 v=64
228249 On ch=11 n=71 v=127
228255 Off ch=7 n=64 v=64
228255 On ch=7 n=60 v=95
228480 On ch=1 n=60 v=95
228480 On ch=1 n=55 v=95
228489 Off ch=11 n=71 v=64
228495 Off ch=7 n=60 v=64
228495 On ch=7 n=67 v=95
228528 Meta Lyric "\r"
228720 Off ch=1 n=60 v=64
228720 Off ch=1 n=55 v=64
228720 Meta Lyric "LET'S "
228724 Off ch=5 n=69 v=64
228724 On ch=5 n=67 v=95
228729 On ch=11 n=67 v=127
228735 Off ch=7 n=67 v=64
228735 On ch=7 n=64 v=95
228960 On ch=1 n=60 v=95
228960 On ch=1 n=55 v=95
228960 Meta Lyric "DO "
228969 Off ch=11 n=67 v=64
228969 On ch=11 n=72 v=127
228975 Off ch=7 n=64 v=64
228975 On ch=7 n=67 v=95
229200 Off ch=1 n=60 v=64
229200 Off ch=1 n=55 v=64
229200 Meta Lyric "IT"
229209 Off ch=11 n=72 v=64
229209 On ch=11 n=72 v=127
229215 Off ch=7 n=67 v=64
229215 On ch=7 n=64 v=95
229297 Meta Lyric "\r"
229440 On ch=1 n=60 v=95
229440 On ch=1 n=55 v=95
229440 Meta Lyric "DO "
229449 Off ch=11 n=72 v=64
229449 On ch=11 n=72 v=127
229455 Off ch=7 n=64 v=64
229455 On ch=7 n=60 v=95
229680 Off ch=1 n=60 v=64
229680 Off ch=1 n=55 v=64
229680 Meta Lyric "IT "
229689 Off ch=11 n=72 v=64
229689 On ch=11 n=72 v=127
229695 Off ch=7 n=60 v=64
229695 On ch=7 n=67 v=95
229920 On ch=1 n=60 v=95
229920 On ch=1 n=55 v=95
229920 Meta Lyric "DO "
229929 Off ch=11 n=72 v=64
229929 On ch=11 n=72 v=127
229935 Off ch=7 n=67 v=64
229935 On ch=7 n=64 v=95
230160 Off ch=1 n=60 v=64
230160 Off ch=1 n=55 v=64
230160 Meta Lyric "IT "
230169 Off ch=11 n=72 v=64
230169 On ch=11 n=72 v=127
230173 On ch=10 n=57 v=95
230173 On ch=10 n=38 v=95
230175 Off ch=7 n=64 v=64
230175 On ch=7 n=60 v=95
230400 On ch=1 n=60 v=95
230400 On ch=1 n=55 v=95
230400 Meta Lyric "DO "
230409 Off ch=11 n=72 v=64
230409 On ch=11 n=72 v=127
230413 Off ch=10 n=57 v=64
230413 Off ch=10 n=38 v=64
230413 On ch=10 n=57 v=95
230413 On ch=10 n=38 v=95
230415 Off ch=7 n=60 v=64
230415 On ch=7 n=67 v=95
230640 Off ch=1 n=60 v=64
230640 Off ch=1 n=55 v=64
230640 Meta Lyric "IT"
230649 Off ch=11 n=72 v=64
230649 On ch=11 n=72 v=127
230653 Off ch=10 n=57 v=64
230653 Off ch=10 n=38 v=64
230653 On ch=10 n=57 v=95
230653 On ch=10 n=38 v=95
230655 Off ch=7 n=67 v=64
230655 On ch=7 n=64 v=95
230773 Meta Lyric "\r"
230880 On ch=1 n=50 v=95
230880 On ch=1 n=43 v=95
230880 Meta Lyric "HERE "
230884 On ch=5 n=69 v=95
230889 Off ch=11 n=72 v=64
230889 On ch=11 n=76 v=127
230893 Off ch=10 n=57 v=64
230893 Off ch=10 n=38 v=64
230893 On ch=10 n=57 v=95
230893 On ch=10 n=35 v=95
230895 On ch=3 n=31 v=95
230895 Off ch=7 n=64 v=64
230895 On ch=7 n=67 v=95
231120 Off ch=1 n=50 v=64
231120 Off ch=1 n=43 v=64
231120 On ch=1 n=50 v=95
231120 On ch=1 n=43 v=95
231120 Meta Lyric "WE "
231129 Off ch=11 n=76 v=64
231129 On ch=11 n=76 v=127
231133 Off ch=10 n=57 v=64
231133 Off ch=10 n=35 v=64
231133 On ch=10 n=42 v=95
231135 Off ch=3 n=31 v=64
231135 On ch=3 n=31 v=95
231135 Off ch=7 n=67 v=64
231135 On ch=7 n=64 v=95
231360 Off ch=1 n=50 v=64
231360 Off ch=1 n=43 v=64
231360 On ch=1 n=50 v=95
231360 On ch=1 n=43 v=95
231360 Meta Lyric "COME "
231369 Off ch=11 n=76 v=64
231369 On ch=11 n=74 v=127
231373 Off ch=10 n=42 v=64
231373 On ch=10 n=42 v=95
231373 On ch=10 n=38 v=95
231375 Off ch=3 n=31 v=64
231375 On ch=3 n=31 v=95
231375 Off ch=7 n=64 v=64
231375 On ch=7 n=59 v=95
231600 Off ch=1 n=50 v=64
231600 Off ch=1 n=43 v=64
231600 On ch=1 n=50 v=95
231600 On ch=1 n=43 v=95
231609 Off ch=11 n=74 v=64
231613 Off ch=10 n=42 v=64
231613 Off ch=10 n=38 v=64
231613 On ch=10 n=42 v=95
231615 Off ch=3 n=31 v=64
231615 On ch=3 n=31 v=95
231615 Off ch=7 n=59 v=64
231615 On ch=7 n=67 v=95
231775 Meta Lyric "\r"
231840 Off ch=1 n=50 v=64
231840 Off ch=1 n=43 v=64
231840 On ch=1 n=50 v=95
231840 On ch=1 n=43 v=95
231840 Meta Lyric "HERE "
231849 On ch=11 n=76 v=127
231853 Off ch=10 n=42 v=64
231853 On ch=10 n=42 v=95
231853 On ch=10 n=35 v=95
231855 Off ch=3 n=31 v=64
231855 On ch=3 n=31 v=95
231855 Off ch=7 n=67 v=64
231855 On ch=7 n=64 v=95
232080 Off ch=1 n=50 v=64
232080 Off ch=1 n=43 v=64
232080 On ch=1 n=50 v=95
232080 On ch=1 n=43 v=95
232080 Meta Lyric "WE "
232089 Off ch=11 n=76 v=64
232089 On ch=11 n=76 v=127
232093 Off ch=10 n=42 v=64
232093 Off ch=10 n=35 v=64
232093 On ch=10 n=42 v=95
232095 Off ch=3 n=31 v=64
232095 On ch=3 n=31 v=95
232095 Off ch=7 n=64 v=64
232095 On ch=7 n=59 v=95
232320 Off ch=1 n=50 v=64
232320 Off ch=1 n=43 v=64
232320 On ch=1 n=50 v=95
232320 On ch=1 n=43 v=95
232320 Meta Lyric "GO "
232329 Off ch=11 n=76 v=64
232329 On ch=11 n=74 v=127
232333 Off ch=10 n=42 v=64
232333 On ch=10 n=42 v=95
232333 On ch=10 n=38 v=95
232335 Off ch=3 n=31 v=64
232335 On ch=3 n=31 v=95
232335 Off ch=7 n=59 v=64
232335 On ch=7 n=67 v=95
232445 Meta Lyric "\r"
232560 Off ch=1 n=50 v=64
232560 Off ch=1 n=43 v=64
232560 On ch=1 n=50 v=95
232560 On ch=1 n=43 v=95
232564 Off ch=5 n=69 v=64
232564 On ch=5 n=67 v=95
232569 Off ch=11 n=74 v=64
232573 Off ch=10 n=42 v=64
232573 Off ch=10 n=38 v=64
232573 On ch=10 n=42 v=95
232575 Off ch=3 n=31 v=64
232575 On ch=3 n=31 v=95
232575 Off ch=7 n=67 v=64
232575 On ch=7 n=64 v=95
232800 Off ch=1 n=50 v=64
232800 Off ch=1 n=43 v=64
232800 On ch=1 n=50 v=95
232800 On ch=1 n=43 v=95
232800 Meta Lyric "WE "
232804 Off ch=5 n=67 v=64
232809 On ch=11 n=76 v=127
232813 Off ch=10 n=42 v=64
232813 On ch=10 n=42 v=95
232813 On ch=10 n=35 v=95
232815 Off ch=3 n=36 v=64
232815 Off ch=3 n=31 v=64
232815 On ch=3 n=31 v=95
232815 Off ch=7 n=64 v=64
232815 On ch=7 n=67 v=95
233040 Off ch=1 n=50 v=64
233040 Off ch=1 n=43 v=64
233040 On ch=1 n=50 v=95
233040 On ch=1 n=43 v=95
233040 Meta Lyric "GO"
233049 Off ch=11 n=76 v=64
233049 On ch=11 n=76 v=127
233053 Off ch=10 n=42 v=64
233053 Off ch=10 n=35 v=64
233053 On ch=10 n=42 v=95
233055 Off ch=3 n=31 v=64
233055 On ch=3 n=31 v=95
233055 Off ch=7 n=67 v=64
233055 On ch=7 n=64 v=95
233280 Off ch=1 n=50 v=64
233280 Off ch=1 n=43 v=64
233280 On ch=1 n=50 v=95
233280 On ch=1 n=43 v=95
233280 Meta Lyric "TTA "
233289 Off ch=11 n=76 v=64
233289 On ch=11 n=74 v=127
233293 Off ch=10 n=42 v=64
233293 On ch=10 n=42 v=95
233293 On ch=10 n=38 v=95
233295 Off ch=3 n=31 v=64
233295 On ch=3 n=31 v=95
233295 Off ch=7 n=64 v=64
233295 On ch=7 n=59 v=95
233520 Off ch=1 n=50 v=64
233520 Off ch=1 n=43 v=64
233520 On ch=1 n=50 v=95
233520 On ch=1 n=43 v=95
233520 Meta Lyric "ROCK "
233529 Off ch=11 n=74 v=64
233529 On ch=11 n=76 v=127
233533 Off ch=10 n=42 v=64
233533 Off ch=10 n=38 v=64
233533 On ch=10 n=42 v=95
233535 Off ch=3 n=31 v=64
233535 On ch=3 n=31 v=95
233535 Off ch=7 n=59 v=64
233535 On ch=7 n=67 v=95
233760 Off ch=1 n=50 v=64
233760 Off ch=1 n=43 v=64
233760 On ch=1 n=50 v=95
233760 On ch=1 n=43 v=95
233769 Off ch=11 n=76 v=64
233773 Off ch=10 n=42 v=64
233773 On ch=10 n=42 v=95
233773 On ch=10 n=35 v=95
233775 Off ch=3 n=31 v=64
233775 On ch=3 n=31 v=95
233775 Off ch=7 n=67 v=64
233775 On ch=7 n=64 v=95
234000 Off ch=1 n=50 v=64
234000 Off ch=1 n=43 v=64
234000 On ch=1 n=50 v=95
234000 On ch=1 n=43 v=95
234013 Off ch=10 n=42 v=64
234013 Off ch=10 n=35 v=64
234013 On ch=10 n=42 v=95
234015 Off ch=3 n=31 v=64
234015 On ch=3 n=31 v=95
234015 Off ch=7 n=64 v=64
234015 On ch=7 n=59 v=95
234240 Off ch=1 n=50 v=64
234240 Off ch=1 n=43 v=64
234240 On ch=1 n=50 v=95
234240 On ch=1 n=43 v=95
234253 Off ch=10 n=42 v=64
234253 On ch=10 n=42 v=95
234253 On ch=10 n=38 v=95
234255 Off ch=3 n=31 v=64
234255 On ch=3 n=31 v=95
234255 Off ch=7 n=59 v=64
234255 On ch=7 n=67 v=95
234480 Off ch=1 n=50 v=64
234480 Off ch=1 n=43 v=64
234480 On ch=1 n=50 v=95
234480 On ch=1 n=43 v=95
234493 Off ch=10 n=42 v=64
234493 Off ch=10 n=38 v=64
234493 On ch=10 n=42 v=95
234495 Off ch=3 n=31 v=64
234495 On ch=3 n=31 v=95
234495 Off ch=7 n=67 v=64
234495 On ch=7 n=64 v=95
234511 Meta Lyric "\r"
234720 Off ch=1 n=50 v=64
234720 Off ch=1 n=43 v=64
234720 On ch=1 n=55 v=95
234720 On ch=1 n=48 v=95
234720 Meta Lyric "EA"
234724 Off ch=5 n=67 v=64
234724 On ch=5 n=69 v=95
234729 On ch=11 n=76 v=127
234733 Off ch=10 n=42 v=64
234733 On ch=10 n=42 v=95
234733 On ch=10 n=35 v=95
234735 Off ch=3 n=31 v=64
234735 On ch=3 n=36 v=95
234735 Off ch=7 n=64 v=64
234735 On ch=7 n=67 v=95
234948 Meta Lyric "SY "
234960 Off ch=1 n=55 v=64
234960 Off ch=1 n=48 v=64
234960 On ch=1 n=55 v=95
234960 On ch=1 n=48 v=95
234969 Off ch=11 n=76 v=64
234969 On ch=11 n=76 v=127
234973 Off ch=10 n=42 v=64
234973 Off ch=10 n=35 v=64
234973 On ch=10 n=42 v=95
234975 Off ch=3 n=36 v=64
234975 On ch=3 n=36 v=95
234975 Off ch=7 n=67 v=64
234975 On ch=7 n=64 v=95
235188 Meta Lyric "COME "
235200 Off ch=1 n=55 v=64
235200 Off ch=1 n=48 v=64
235200 On ch=1 n=55 v=95
235200 On ch=1 n=48 v=95
235209 Off ch=11 n=76 v=64
235209 On ch=11 n=74 v=127
235213 Off ch=10 n=42 v=64
235213 On ch=10 n=42 v=95
235213 On ch=10 n=38 v=95
235215 Off ch=3 n=36 v=64
235215 On ch=3 n=36 v=95
235215 Off ch=7 n=64 v=64
235215 On ch=7 n=60 v=95
235440 Off ch=1 n=55 v=64
235440 Off ch=1 n=48 v=64
235440 On ch=1 n=55 v=95
235440 On ch=1 n=48 v=95
235449 Off ch=11 n=74 v=64
235453 Off ch=10 n=42 v=64
235453 Off ch=10 n=38 v=64
235453 On ch=10 n=42 v=95
235455 Off ch=3 n=36 v=64
235455 On ch=3 n=36 v=95
235455 Off ch=7 n=60 v=64
235455 On ch=7 n=67 v=95
235582 Meta Lyric "\r"
235680 Off ch=1 n=55 v=64
235680 Off ch=1 n=48 v=64
235680 On ch=1 n=55 v=95
235680 On ch=1 n=48 v=95
235680 Meta Lyric "EA"
235689 On ch=11 n=76 v=127
235693 Off ch=10 n=42 v=64
235693 On ch=10 n=42 v=95
235693 On ch=10 n=35 v=95
235695 Off ch=3 n=36 v=64
235695 On ch=3 n=36 v=95
235695 Off ch=7 n=67 v=64
235695 On ch=7 n=64 v=95
235908 Meta Lyric "SY "
235920 Off ch=1 n=55 v=64
235920 Off ch=1 n=48 v=64
235920 On ch=1 n=55 v=95
235920 On ch=1 n=48 v=95
235929 Off ch=11 n=76 v=64
235929 On ch=11 n=76 v=127
235933 Off ch=10 n=42 v=64
235933 Off ch=10 n=35 v=64
235933 On ch=10 n=42 v=95
235935 Off ch=3 n=36 v=64
235935 On ch=3 n=36 v=95
235935 Off ch=7 n=64 v=64
235935 On ch=7 n=60 v=95
236160 Off ch=1 n=55 v=64
236160 Off ch=1 n=48 v=64
236160 On ch=1 n=55 v=95
236160 On ch=1 n=48 v=95
236169 Off ch=11 n=76 v=64
236169 On ch=11 n=74 v=127
236172 Meta Lyric "GO "
236173 Off ch=10 n=42 v=64
236173 On ch=10 n=42 v=95
236173 On ch=10 n=38 v=95
236175 Off ch=3 n=36 v=64
236175 On ch=3 n=36 v=95
236175 Off ch=7 n=60 v=64
236175 On ch=7 n=67 v=95
236400 Off ch=1 n=55 v=64
236400 Off ch=1 n=48 v=64
236400 On ch=1 n=55 v=95
236400 On ch=1 n=48 v=95
236404 Off ch=5 n=69 v=64
236404 On ch=5 n=67 v=95
236409 Off ch=11 n=74 v=64
236413 Off ch=10 n=42 v=64
236413 Off ch=10 n=38 v=64
236413 On ch=10 n=42 v=95
236415 Off ch=3 n=36 v=64
236415 On ch=3 n=36 v=95
236415 Off ch=7 n=67 v=64
236415 On ch=7 n=64 v=95
236437 Meta Lyric "\r"
236640 Off ch=1 n=55 v=64
236640 Off ch=1 n=48 v=64
236640 On ch=1 n=55 v=95
236640 On ch=1 n=48 v=95
236640 Meta Lyric "NOW "
236649 On ch=11 n=76 v=127
236653 Off ch=10 n=42 v=64
236653 On ch=10 n=42 v=95
236653 On ch=10 n=35 v=95
236655 Off ch=3 n=36 v=64
236655 On ch=3 n=36 v=95
236655 Off ch=7 n=64 v=64
236655 On ch=7 n=67 v=95
236880 Off ch=1 n=55 v=64
236880 Off ch=1 n=48 v=64
236880 On ch=1 n=55 v=95
236880 On ch=1 n=48 v=95
236880 Meta Lyric "WE "
236889 Off ch=11 n=76 v=64
236889 On ch=11 n=76 v=127
236893 Off ch=10 n=42 v=64
236893 Off ch=10 n=35 v=64
236893 On ch=10 n=42 v=95
236895 Off ch=3 n=36 v=64
236895 On ch=3 n=36 v=95
236895 Off ch=7 n=67 v=64
236895 On ch=7 n=64 v=95
237120 Off ch=1 n=55 v=64
237120 Off ch=1 n=48 v=64
237120 On ch=1 n=55 v=95
237120 On ch=1 n=48 v=95
237120 Meta Lyric "ON "
237129 Off ch=11 n=76 v=64
237129 On ch=11 n=74 v=127
237133 Off ch=10 n=42 v=64
237133 On ch=10 n=42 v=95
237133 On ch=10 n=38 v=95
237135 Off ch=3 n=36 v=64
237135 On ch=3 n=36 v=95
237135 Off ch=7 n=64 v=64
237135 On ch=7 n=60 v=95
237360 Off ch=1 n=55 v=64
237360 Off ch=1 n=48 v=64
237360 On ch=1 n=55 v=95
237360 On ch=1 n=48 v=95
237360 Meta Lyric "TOP "
237369 Off ch=11 n=74 v=64
237369 On ch=11 n=76 v=127
237373 Off ch=10 n=42 v=64
237373 Off ch=10 n=38 v=64
237373 On ch=10 n=42 v=95
237375 Off ch=3 n=36 v=64
237375 On ch=3 n=36 v=95
237375 Off ch=7 n=60 v=64
237375 On ch=7 n=67 v=95
237600 Off ch=1 n=55 v=64
237600 Off ch=1 n=48 v=64
237600 On ch=1 n=55 v=95
237600 On ch=1 n=48 v=95
237604 Off ch=5 n=67 v=64
237604 On ch=5 n=72 v=95
237609 Off ch=11 n=76 v=64
237613 Off ch=10 n=42 v=64
237613 On ch=10 n=42 v=95
237613 On ch=10 n=35 v=95
237615 Off ch=3 n=36 v=64
237615 On ch=3 n=38 v=95
237615 Off ch=7 n=67 v=64
237615 On ch=7 n=64 v=95
237840 Off ch=1 n=55 v=64
237840 Off ch=1 n=48 v=64
237840 On ch=1 n=57 v=95
237840 On ch=1 n=50 v=95
237853 Off ch=10 n=42 v=64
237853 Off ch=10 n=35 v=64
237853 On ch=10 n=42 v=95
237855 Off ch=3 n=38 v=64
237855 On ch=3 n=38 v=95
237855 Off ch=7 n=64 v=64
237855 On ch=7 n=60 v=95
238080 Off ch=1 n=57 v=64
238080 Off ch=1 n=50 v=64
238080 On ch=1 n=57 v=95
238080 On ch=1 n=50 v=95
238093 Off ch=10 n=42 v=64
238093 On ch=10 n=42 v=95
238093 On ch=10 n=38 v=95
238095 Off ch=3 n=38 v=64
238095 On ch=3 n=38 v=95
238095 Off ch=7 n=60 v=64
238095 On ch=7 n=67 v=95
238320 Off ch=1 n=57 v=64
238320 Off ch=1 n=50 v=64
238320 On ch=1 n=57 v=95
238320 On ch=1 n=50 v=95
238333 Off ch=10 n=42 v=64
238333 Off ch=10 n=38 v=64
238333 On ch=10 n=42 v=95
238334 Meta Lyric "\r"
238335 Off ch=3 n=38 v=64
238335 On ch=3 n=38 v=95
238335 Off ch=7 n=67 v=64
238335 On ch=7 n=64 v=95
238560 Off ch=1 n=57 v=64
238560 Off ch=1 n=50 v=64
238560 On ch=1 n=59 v=95
238560 On ch=1 n=52 v=95
238560 Meta Lyric "FEEL "
238564 Off ch=5 n=72 v=64
238564 On ch=5 n=69 v=95
238569 On ch=11 n=76 v=127
238573 Off ch=10 n=42 v=64
238573 On ch=10 n=42 v=95
238573 On ch=10 n=35 v=95
238575 Off ch=3 n=38 v=64
238575 On ch=3 n=40 v=95
238575 Off ch=7 n=64 v=64
238575 On ch=7 n=67 v=95
238800 Off ch=1 n=59 v=64
238800 Off ch=1 n=52 v=64
238800 On ch=1 n=59 v=95
238800 On ch=1 n=52 v=95
238800 Meta Lyric "THE "
238809 Off ch=11 n=76 v=64
238809 On ch=11 n=76 v=127
238813 Off ch=10 n=42 v=64
238813 Off ch=10 n=35 v=64
238813 On ch=10 n=42 v=95
238815 Off ch=3 n=40 v=64
238815 On ch=3 n=40 v=95
238815 Off ch=7 n=67 v=64
238815 On ch=7 n=64 v=95
239040 Off ch=1 n=59 v=64
239040 Off ch=1 n=52 v=64
239040 On ch=1 n=59 v=95
239040 On ch=1 n=52 v=95
239040 Meta Lyric "SHOT "
239049 Off ch=11 n=76 v=64
239049 On ch=11 n=74 v=127
239053 Off ch=10 n=42 v=64
239053 On ch=10 n=42 v=95
239053 On ch=10 n=38 v=95
239055 Off ch=3 n=40 v=64
239055 On ch=3 n=40 v=95
239055 Off ch=7 n=64 v=64
239055 On ch=7 n=59 v=95
239280 Off ch=1 n=59 v=64
239280 Off ch=1 n=52 v=64
239280 On ch=1 n=59 v=95
239280 On ch=1 n=52 v=95
239289 Off ch=11 n=74 v=64
239293 Off ch=10 n=42 v=64
239293 Off ch=10 n=38 v=64
239293 On ch=10 n=42 v=95
239295 Off ch=3 n=40 v=64
239295 On ch=3 n=40 v=95
239295 Off ch=7 n=59 v=64
239295 On ch=7 n=67 v=95
239333 Meta Lyric "\r"
239520 Off ch=1 n=59 v=64
239520 Off ch=1 n=52 v=64
239520 On ch=1 n=59 v=95
239520 On ch=1 n=52 v=95
239520 Meta Lyric "BO"
239529 On ch=11 n=76 v=127
239533 Off ch=10 n=42 v=64
239533 On ch=10 n=42 v=95
239533 On ch=10 n=35 v=95
239535 Off ch=3 n=40 v=64
239535 On ch=3 n=40 v=95
239535 Off ch=7 n=67 v=64
239535 On ch=7 n=64 v=95
239760 Off ch=1 n=59 v=64
239760 Off ch=1 n=52 v=64
239760 On ch=1 n=59 v=95
239760 On ch=1 n=52 v=95
239760 Meta Lyric "DY "
239769 Off ch=11 n=76 v=64
239769 On ch=11 n=76 v=127
239773 Off ch=10 n=42 v=64
239773 Off ch=10 n=35 v=64
239773 On ch=10 n=42 v=95
239775 Off ch=3 n=40 v=64
239775 On ch=3 n=40 v=95
239775 Off ch=7 n=64 v=64
239775 On ch=7 n=59 v=95
240000 Off ch=1 n=59 v=64
240000 Off ch=1 n=52 v=64
240000 On ch=1 n=59 v=95
240000 On ch=1 n=52 v=95
240000 Meta Lyric "ROCK "
240009 Off ch=11 n=76 v=64
240009 On ch=11 n=74 v=127
240013 Off ch=10 n=42 v=64
240013 On ch=10 n=42 v=95
240013 On ch=10 n=38 v=95
240015 Off ch=3 n=40 v=64
240015 On ch=3 n=40 v=95
240015 Off ch=7 n=59 v=64
240015 On ch=7 n=67 v=95
240240 Off ch=1 n=59 v=64
240240 Off ch=1 n=52 v=64
240240 On ch=1 n=59 v=95
240240 On ch=1 n=52 v=95
240244 Off ch=5 n=69 v=64
240244 On ch=5 n=67 v=95
240249 Off ch=11 n=74 v=64
240253 Off ch=10 n=42 v=64
240253 Off ch=10 n=38 v=64
240253 On ch=10 n=42 v=95
240255 Off ch=3 n=40 v=64
240255 On ch=3 n=40 v=95
240255 Off ch=7 n=67 v=64
240255 On ch=7 n=64 v=95
240371 Meta Lyric "\r"
240480 Off ch=1 n=59 v=64
240480 Off ch=1 n=52 v=64
240480 On ch=1 n=59 v=95
240480 On ch=1 n=52 v=95
240480 Meta Lyric "ROCK "
240489 On ch=11 n=76 v=127
240493 Off ch=10 n=42 v=64
240493 On ch=10 n=42 v=95
240493 On ch=10 n=35 v=95
240495 Off ch=3 n=40 v=64
240495 On ch=3 n=40 v=95
240495 Off ch=7 n=64 v=64
240495 On ch=7 n=67 v=95
240720 Off ch=1 n=59 v=64
240720 Off ch=1 n=52 v=64
240720 On ch=1 n=59 v=95
240720 On ch=1 n=52 v=95
240720 Meta Lyric "IT "
240729 Off ch=11 n=76 v=64
240729 On ch=11 n=76 v=127
240733 Off ch=10 n=42 v=64
240733 Off ch=10 n=35 v=64
240733 On ch=10 n=42 v=95
240735 Off ch=3 n=40 v=64
240735 On ch=3 n=40 v=95
240735 Off ch=7 n=67 v=64
240735 On ch=7 n=64 v=95
240960 Off ch=1 n=59 v=64
240960 Off ch=1 n=52 v=64
240960 On ch=1 n=59 v=95
240960 On ch=1 n=52 v=95
240960 Meta Lyric "DON'T "
240969 Off ch=11 n=76 v=64
240969 On ch=11 n=74 v=127
240973 Off ch=10 n=42 v=64
240973 On ch=10 n=42 v=95
240973 On ch=10 n=38 v=95
240975 Off ch=3 n=40 v=64
240975 On ch=3 n=40 v=95
240975 Off ch=7 n=64 v=64
240975 On ch=7 n=59 v=95
241200 Off ch=1 n=59 v=64
241200 Off ch=1 n=52 v=64
241200 On ch=1 n=59 v=95
241200 On ch=1 n=52 v=95
241200 Meta Lyric "STOP "
241209 Off ch=11 n=74 v=64
241209 On ch=11 n=76 v=127
241213 Off ch=10 n=42 v=64
241213 Off ch=10 n=38 v=64
241213 On ch=10 n=42 v=95
241215 Off ch=3 n=40 v=64
241215 On ch=3 n=40 v=95
241215 Off ch=7 n=59 v=64
241215 On ch=7 n=67 v=95
241440 Off ch=1 n=59 v=64
241440 Off ch=1 n=52 v=64
241440 On ch=1 n=59 v=95
241440 On ch=1 n=52 v=95
241449 Off ch=11 n=76 v=64
241453 Off ch=10 n=42 v=64
241453 On ch=10 n=42 v=95
241453 On ch=10 n=35 v=95
241455 Off ch=3 n=40 v=64
241455 On ch=3 n=38 v=95
241455 Off ch=7 n=67 v=64
241455 On ch=7 n=64 v=95
241680 Off ch=1 n=59 v=64
241680 Off ch=1 n=52 v=64
241680 On ch=1 n=57 v=95
241680 On ch=1 n=50 v=95
241693 Off ch=10 n=42 v=64
241693 Off ch=10 n=35 v=64
241693 On ch=10 n=42 v=95
241695 Off ch=3 n=38 v=64
241695 On ch=3 n=38 v=95
241695 Off ch=7 n=64 v=64
241695 On ch=7 n=59 v=95
241909 Meta Lyric "\r"
241920 Off ch=1 n=57 v=64
241920 Off ch=1 n=50 v=64
241920 On ch=1 n=57 v=95
241920 On ch=1 n=50 v=95
241933 Off ch=10 n=42 v=64
241933 On ch=10 n=42 v=95
241933 On ch=10 n=38 v=95
241935 Off ch=3 n=38 v=64
241935 On ch=3 n=38 v=95
241935 Off ch=7 n=59 v=64
241935 On ch=7 n=67 v=95
242173 Off ch=10 n=42 v=64
242173 Off ch=10 n=38 v=64
242173 On ch=10 n=42 v=95
242175 Off ch=3 n=38 v=64
242175 On ch=3 n=38 v=95
242175 Off ch=7 n=67 v=64
242175 On ch=7 n=64 v=95
242400 Off ch=1 n=57 v=64
242400 Off ch=1 n=50 v=64
242400 On ch=1 n=55 v=95
242400 On ch=1 n=48 v=95
242400 Meta Lyric "ROUND "
242404 Off ch=5 n=67 v=64
242404 On ch=5 n=69 v=95
242409 On ch=11 n=76 v=127
242413 Off ch=10 n=42 v=64
242413 On ch=10 n=42 v=95
242413 On ch=10 n=35 v=95
242415 Off ch=3 n=38 v=64
242415 On ch=3 n=36 v=95
242415 Off ch=7 n=64 v=64
242415 On ch=7 n=67 v=95
242640 Off ch=1 n=55 v=64
242640 Off ch=1 n=48 v=64
242640 On ch=1 n=55 v=95
242640 On ch=1 n=48 v=95
242640 Meta Lyric "AND "
242649 Off ch=11 n=76 v=64
242649 On ch=11 n=76 v=127
242653 Off ch=10 n=42 v=64
242653 Off ch=10 n=35 v=64
242653 On ch=10 n=42 v=95
242655 Off ch=3 n=36 v=64
242655 On ch=3 n=36 v=95
242655 Off ch=7 n=67 v=64
242655 On ch=7 n=64 v=95
242880 Off ch=1 n=55 v=64
242880 Off ch=1 n=48 v=64
242880 On ch=1 n=55 v=95
242880 On ch=1 n=48 v=95
242880 Meta Lyric "ROUND "
242889 Off ch=11 n=76 v=64
242889 On ch=11 n=74 v=127
242893 Off ch=10 n=42 v=64
242893 On ch=10 n=42 v=95
242893 On ch=10 n=38 v=95
242895 Off ch=3 n=36 v=64
242895 On ch=3 n=36 v=95
242895 Off ch=7 n=64 v=64
242895 On ch=7 n=60 v=95
243021 Meta Lyric "\r"
243120 Off ch=1 n=55 v=64
243120 Off ch=1 n=48 v=64
243120 On ch=1 n=55 v=95
243120 On ch=1 n=48 v=95
243129 Off ch=11 n=74 v=64
243133 Off ch=10 n=42 v=64
243133 Off ch=10 n=38 v=64
243133 On ch=10 n=42 v=95
243135 Off ch=3 n=36 v=64
243135 On ch=3 n=36 v=95
243135 Off ch=7 n=60 v=64
243135 On ch=7 n=67 v=95
243360 Off ch=1 n=55 v=64
243360 Off ch=1 n=48 v=64
243360 On ch=1 n=55 v=95
243360 On ch=1 n=48 v=95
243360 Meta Lyric "UP "
243369 On ch=11 n=76 v=127
243373 Off ch=10 n=42 v=64
243373 On ch=10 n=42 v=95
243373 On ch=10 n=35 v=95
243375 Off ch=3 n=36 v=64
243375 On ch=3 n=36 v=95
243375 Off ch=7 n=67 v=64
243375 On ch=7 n=64 v=95
243600 Off ch=1 n=55 v=64
243600 Off ch=1 n=48 v=64
243600 On ch=1 n=55 v=95
243600 On ch=1 n=48 v=95
243600 Meta Lyric "AND "
243609 Off ch=11 n=76 v=64
243609 On ch=11 n=76 v=127
243613 Off ch=10 n=42 v=64
243613 Off ch=10 n=35 v=64
243613 On ch=10 n=42 v=95
243615 Off ch=3 n=36 v=64
243615 On ch=3 n=36 v=95
243615 Off ch=7 n=64 v=64
243615 On ch=7 n=60 v=95
243840 Off ch=1 n=55 v=64
243840 Off ch=1 n=48 v=64
243840 On ch=1 n=55 v=95
243840 On ch=1 n=48 v=95
243840 Meta Lyric "DOWN "
243849 Off ch=11 n=76 v=64
243849 On ch=11 n=74 v=127
243853 Off ch=10 n=42 v=64
243853 On ch=10 n=42 v=95
243853 On ch=10 n=38 v=95
243855 Off ch=3 n=36 v=64
243855 On ch=3 n=36 v=95
243855 Off ch=7 n=60 v=64
243855 On ch=7 n=67 v=95
244080 Off ch=1 n=55 v=64
244080 Off ch=1 n=48 v=64
244080 On ch=1 n=55 v=95
244080 On ch=1 n=48 v=95
244084 Off ch=5 n=69 v=64
244084 On ch=5 n=67 v=95
244089 Off ch=11 n=74 v=64
244093 Off ch=10 n=42 v=64
244093 Off ch=10 n=38 v=64
244093 On ch=10 n=42 v=95
244095 Off ch=3 n=36 v=64
244095 On ch=3 n=36 v=95
244095 Off ch=7 n=67 v=64
244095 On ch=7 n=64 v=95
244161 Meta Lyric "\r"
244320 Off ch=1 n=55 v=64
244320 Off ch=1 n=48 v=64
244320 On ch=1 n=55 v=95
244320 On ch=1 n=48 v=95
244320 Meta Lyric "A"
244329 On ch=11 n=76 v=127
244333 Off ch=10 n=42 v=64
244333 On ch=10 n=42 v=95
244333 On ch=10 n=35 v=95
244335 Off ch=3 n=36 v=64
244335 On ch=3 n=36 v=95
244335 Off ch=7 n=64 v=64
244335 On ch=7 n=67 v=95
244560 Off ch=1 n=55 v=64
244560 Off ch=1 n=48 v=64
244560 On ch=1 n=55 v=95
244560 On ch=1 n=48 v=95
244560 Meta Lyric "ROUND "
244569 Off ch=11 n=76 v=64
244569 On ch=11 n=76 v=127
244573 Off ch=10 n=42 v=64
244573 Off ch=10 n=35 v=64
244573 On ch=10 n=42 v=95
244575 Off ch=3 n=36 v=64
244575 On ch=3 n=36 v=95
244575 Off ch=7 n=67 v=64
244575 On ch=7 n=64 v=95
244788 Meta Lyric "THE "
244800 Off ch=1 n=55 v=64
244800 Off ch=1 n=48 v=64
244800 On ch=1 n=55 v=95
244800 On ch=1 n=48 v=95
244809 Off ch=11 n=76 v=64
244809 On ch=11 n=74 v=127
244813 Off ch=10 n=42 v=64
244813 On ch=10 n=42 v=95
244813 On ch=10 n=38 v=95
244815 Off ch=3 n=36 v=64
244815 On ch=3 n=36 v=95
244815 Off ch=7 n=64 v=64
244815 On ch=7 n=60 v=95
245040 Off ch=1 n=55 v=64
245040 Off ch=1 n=48 v=64
245040 On ch=1 n=55 v=95
245040 On ch=1 n=48 v=95
245049 Off ch=11 n=74 v=64
245049 On ch=11 n=76 v=127
245052 Meta Lyric "CLOCK"
245053 Off ch=10 n=42 v=64
245053 Off ch=10 n=38 v=64
245053 On ch=10 n=42 v=95
245055 Off ch=3 n=36 v=64
245055 On ch=3 n=36 v=95
245055 Off ch=7 n=60 v=64
245055 On ch=7 n=67 v=95
245280 Off ch=1 n=55 v=64
245280 Off ch=1 n=48 v=64
245280 On ch=1 n=55 v=95
245280 On ch=1 n=48 v=95
245289 Off ch=11 n=76 v=64
245293 Off ch=10 n=42 v=64
245293 On ch=10 n=42 v=95
245293 On ch=10 n=35 v=95
245295 Off ch=3 n=36 v=64
245295 On ch=3 n=36 v=95
245295 Off ch=7 n=67 v=64
245295 On ch=7 n=64 v=95
245520 Off ch=1 n=55 v=64
245520 Off ch=1 n=48 v=64
245520 On ch=1 n=55 v=95
245520 On ch=1 n=48 v=95
245533 Off ch=10 n=42 v=64
245533 Off ch=10 n=35 v=64
245533 On ch=10 n=42 v=95
245535 Off ch=3 n=36 v=64
245535 On ch=3 n=36 v=95
245535 Off ch=7 n=64 v=64
245535 On ch=7 n=60 v=95
245760 Off ch=1 n=55 v=64
245760 Off ch=1 n=48 v=64
245760 On ch=1 n=55 v=95
245760 On ch=1 n=48 v=95
245773 Off ch=10 n=42 v=64
245773 On ch=10 n=42 v=95
245773 On ch=10 n=38 v=95
245775 Off ch=3 n=36 v=64
245775 On ch=3 n=36 v=95
245775 Off ch=7 n=60 v=64
245775 On ch=7 n=67 v=95
245897 Meta Lyric "\r"
246000 Off ch=1 n=55 v=64
246000 Off ch=1 n=48 v=64
246000 On ch=1 n=55 v=95
246000 On ch=1 n=48 v=95
246013 On ch=10 n=42 v=95
246013 Off ch=10 n=42 v=64
246013 Off ch=10 n=38 v=64
246015 Off ch=3 n=36 v=64
246015 On ch=3 n=36 v=95
246015 Off ch=7 n=67 v=64
246015 On ch=7 n=64 v=95
246240 On ch=1 n=50 v=95
246240 On ch=1 n=43 v=95
246240 Off ch=1 n=55 v=64
246240 Off ch=1 n=48 v=64
246240 Meta Lyric "MON"
246244 Off ch=5 n=67 v=64
246244 On ch=5 n=69 v=95
246249 On ch=11 n=67 v=127
246253 On ch=10 n=57 v=95
246253 On ch=10 n=35 v=95
246253 Off ch=10 n=42 v=64
246255 Off ch=3 n=36 v=64
246255 On ch=3 n=31 v=95
246255 Off ch=7 n=64 v=64
246255 On ch=7 n=67 v=95
246480 On ch=1 n=50 v=95
246480 On ch=1 n=43 v=95
246480 Off ch=1 n=50 v=64
246480 Off ch=1 n=43 v=64
246493 On ch=10 n=42 v=95
246493 Off ch=10 n=57 v=64
246493 Off ch=10 n=35 v=64
246495 Off ch=3 n=31 v=64
246495 On ch=3 n=31 v=95
246495 Off ch=7 n=67 v=64
246495 On ch=7 n=64 v=95
246720 On ch=1 n=50 v=95
246720 On ch=1 n=43 v=95
246720 Off ch=1 n=50 v=64
246720 Off ch=1 n=43 v=64
246720 Meta Lyric "DAY, "
246729 Off ch=11 n=67 v=64
246729 On ch=11 n=67 v=127
246733 On ch=10 n=42 v=95
246733 On ch=10 n=38 v=95
246733 Off ch=10 n=42 v=64
246735 Off ch=3 n=31 v=64
246735 On ch=3 n=31 v=95
246735 Off ch=7 n=64 v=64
246735 On ch=7 n=59 v=95
246960 On ch=1 n=50 v=95
246960 On ch=1 n=43 v=95
246960 Off ch=1 n=50 v=64
246960 Off ch=1 n=43 v=64
246969 Off ch=11 n=67 v=64
246973 On ch=10 n=42 v=95
246973 Off ch=10 n=42 v=64
246973 Off ch=10 n=38 v=64
246975 Off ch=3 n=31 v=64
246975 On ch=3 n=31 v=95
246975 Off ch=7 n=59 v=64
246975 On ch=7 n=67 v=95
247200 On ch=1 n=50 v=95
247200 On ch=1 n=43 v=95
247200 Off ch=1 n=50 v=64
247200 Off ch=1 n=43 v=64
247200 Meta Lyric "TUES"
247209 On ch=11 n=67 v=127
247213 On ch=10 n=42 v=95
247213 On ch=10 n=35 v=95
247213 Off ch=10 n=42 v=64
247215 Off ch=3 n=31 v=64
247215 On ch=3 n=31 v=95
247215 Off ch=7 n=67 v=64
247215 On ch=7 n=64 v=95
247440 On ch=1 n=50 v=95
247440 On ch=1 n=43 v=95
247440 Off ch=1 n=50 v=64
247440 Off ch=1 n=43 v=64
247453 On ch=10 n=42 v=95
247453 Off ch=10 n=42 v=64
247453 Off ch=10 n=35 v=64
247455 Off ch=3 n=31 v=64
247455 On ch=3 n=31 v=95
247455 Off ch=7 n=64 v=64
247455 On ch=7 n=59 v=95
247680 On ch=1 n=50 v=95
247680 On ch=1 n=43 v=95
247680 Off ch=1 n=50 v=64
247680 Off ch=1 n=43 v=64
247680 Meta Lyric "DAY, "
247689 Off ch=11 n=67 v=64
247689 On ch=11 n=67 v=127
247693 On ch=10 n=42 v=95
247693 On ch=10 n=38 v=95
247693 Off ch=10 n=42 v=64
247695 Off ch=3 n=31 v=64
247695 On ch=3 n=31 v=95
247695 Off ch=7 n=59 v=64
247695 On ch=7 n=67 v=95
247920 On ch=1 n=50 v=95
247920 On ch=1 n=43 v=95
247920 Off ch=1 n=50 v=64
247920 Off ch=1 n=43 v=64
247924 Off ch=5 n=69 v=64
247924 On ch=5 n=67 v=95
247929 Off ch=11 n=67 v=64
247933 On ch=10 n=42 v=95
247933 Off ch=10 n=42 v=64
247933 Off ch=10 n=38 v=64
247935 Off ch=3 n=31 v=64
247935 On ch=3 n=31 v=95
247935 Off ch=7 n=67 v=64
247935 On ch=7 n=64 v=95
248043 Meta Lyric "\r"
248160 On ch=1 n=50 v=95
248160 On ch=1 n=43 v=95
248160 Off ch=1 n=50 v=64
248160 Off ch=1 n=43 v=64
248160 Meta Lyric "WEDNES"
248169 On ch=11 n=67 v=127
248173 On ch=10 n=42 v=95
248173 On ch=10 n=35 v=95
248173 Off ch=10 n=42 v=64
248175 Off ch=3 n=31 v=64
248175 On ch=3 n=31 v=95
248175 Off ch=7 n=64 v=64
248175 On ch=7 n=67 v=95
248400 On ch=1 n=50 v=95
248400 On ch=1 n=43 v=95
248400 Off ch=1 n=50 v=64
248400 Off ch=1 n=43 v=64
248413 On ch=10 n=42 v=95
248413 Off ch=10 n=42 v=64
248413 Off ch=10 n=35 v=64
248415 Off ch=3 n=31 v=64
248415 On ch=3 n=31 v=95
248415 Off ch=7 n=67 v=64
248415 On ch=7 n=64 v=95
248640 On ch=1 n=50 v=95
248640 On ch=1 n=43 v=95
248640 Off ch=1 n=50 v=64
248640 Off ch=1 n=43 v=64
248640 Meta Lyric "DAY "
248649 Off ch=11 n=67 v=64
248649 On ch=11 n=67 v=127
248653 On ch=10 n=42 v=95
248653 On ch=10 n=38 v=95
248653 Off ch=10 n=42 v=64
248655 Off ch=3 n=31 v=64
248655 On ch=3 n=31 v=95
248655 Off ch=7 n=64 v=64
248655 On ch=7 n=59 v=95
248880 On ch=1 n=50 v=95
248880 On ch=1 n=43 v=95
248880 Off ch=1 n=50 v=64
248880 Off ch=1 n=43 v=64
248889 Off ch=11 n=67 v=64
248889 On ch=11 n=62 v=127
248893 On ch=10 n=42 v=95
248893 Off ch=10 n=42 v=64
248893 Off ch=10 n=38 v=64
248895 Off ch=3 n=31 v=64
248895 On ch=3 n=31 v=95
248895 Off ch=7 n=59 v=64
248895 On ch=7 n=67 v=95
248904 Meta Lyric "AND "
249120 On ch=1 n=50 v=95
249120 On ch=1 n=43 v=95
249120 Off ch=1 n=50 v=64
249120 Off ch=1 n=43 v=64
249120 Meta Lyric "THURS"
249129 Off ch=11 n=62 v=64
249129 On ch=11 n=60 v=127
249133 On ch=10 n=42 v=95
249133 On ch=10 n=35 v=95
249133 Off ch=10 n=42 v=64
249135 Off ch=3 n=31 v=64
249135 On ch=3 n=31 v=95
249135 Off ch=7 n=67 v=64
249135 On ch=7 n=64 v=95
249360 On ch=1 n=50 v=95
249360 On ch=1 n=43 v=95
249360 Off ch=1 n=50 v=64
249360 Off ch=1 n=43 v=64
249373 On ch=10 n=42 v=95
249373 Off ch=10 n=42 v=64
249373 Off ch=10 n=35 v=64
249375 Off ch=3 n=31 v=64
249375 On ch=3 n=31 v=95
249375 Off ch=7 n=64 v=64
249375 On ch=7 n=59 v=95
249600 On ch=1 n=50 v=95
249600 On ch=1 n=43 v=95
249600 Off ch=1 n=50 v=64
249600 Off ch=1 n=43 v=64
249609 Off ch=11 n=60 v=64
249609 On ch=11 n=59 v=127
249612 Meta Lyric "DAY"
249613 On ch=10 n=42 v=95
249613 On ch=10 n=38 v=95
249613 Off ch=10 n=42 v=64
249615 Off ch=3 n=31 v=64
249615 On ch=3 n=31 v=95
249615 Off ch=7 n=59 v=64
249615 On ch=7 n=67 v=95
249840 On ch=1 n=50 v=95
249840 On ch=1 n=43 v=95
249840 Off ch=1 n=50 v=64
249840 Off ch=1 n=43 v=64
249849 Off ch=11 n=59 v=64
249853 On ch=10 n=42 v=95
249853 Off ch=10 n=42 v=64
249853 Off ch=10 n=38 v=64
249855 Off ch=3 n=31 v=64
249855 On ch=3 n=31 v=95
249855 Off ch=7 n=67 v=64
249855 On ch=7 n=64 v=95
249978 Meta Lyric "\r"
250080 On ch=1 n=55 v=95
250080 On ch=1 n=48 v=95
250080 Off ch=1 n=50 v=64
250080 Off ch=1 n=43 v=64
250080 Meta Lyric "FRI"
250084 Off ch=5 n=67 v=64
250084 On ch=5 n=69 v=95
250089 On ch=11 n=67 v=127
250093 On ch=10 n=42 v=95
250093 On ch=10 n=35 v=95
250093 Off ch=10 n=42 v=64
250095 Off ch=3 n=31 v=64
250095 On ch=3 n=36 v=95
250095 Off ch=7 n=64 v=64
250095 On ch=7 n=67 v=95
250320 On ch=1 n=55 v=95
250320 On ch=1 n=48 v=95
250320 Off ch=1 n=55 v=64
250320 Off ch=1 n=48 v=64
250333 On ch=10 n=42 v=95
250333 Off ch=10 n=42 v=64
250333 Off ch=10 n=35 v=64
250335 Off ch=3 n=36 v=64
250335 On ch=3 n=36 v=95
250335 Off ch=7 n=67 v=64
250335 On ch=7 n=64 v=95
250560 On ch=1 n=55 v=95
250560 On ch=1 n=48 v=95
250560 Off ch=1 n=55 v=64
250560 Off ch=1 n=48 v=64
250560 Meta Lyric "DAY, "
250569 Off ch=11 n=67 v=64
250569 On ch=11 n=67 v=127
250573 On ch=10 n=42 v=95
250573 On ch=10 n=38 v=95
250573 Off ch=10 n=42 v=64
250575 Off ch=3 n=36 v=64
250575 On ch=3 n=36 v=95
250575 Off ch=7 n=64 v=64
250575 On ch=7 n=60 v=95
250800 On ch=1 n=55 v=95
250800 On ch=1 n=48 v=95
250800 Off ch=1 n=55 v=64
250800 Off ch=1 n=48 v=64
250809 Off ch=11 n=67 v=64
250813 On ch=10 n=42 v=95
250813 Off ch=10 n=42 v=64
250813 Off ch=10 n=38 v=64
250815 Off ch=3 n=36 v=64
250815 On ch=3 n=36 v=95
250815 Off ch=7 n=60 v=64
250815 On ch=7 n=67 v=95
251040 On ch=1 n=55 v=95
251040 On ch=1 n=48 v=95
251040 Off ch=1 n=55 v=64
251040 Off ch=1 n=48 v=64
251040 Meta Lyric "SA"
251049 On ch=11 n=67 v=127
251053 On ch=10 n=42 v=95
251053 On ch=10 n=35 v=95
251053 Off ch=10 n=42 v=64
251055 Off ch=3 n=36 v=64
251055 On ch=3 n=36 v=95
251055 Off ch=7 n=67 v=64
251055 On ch=7 n=64 v=95
251268 Meta Lyric "TUR"
251280 On ch=1 n=55 v=95
251280 On ch=1 n=48 v=95
251280 Off ch=1 n=55 v=64
251280 Off ch=1 n=48 v=64
251289 Off ch=11 n=67 v=64
251289 On ch=11 n=67 v=127
251293 On ch=10 n=42 v=95
251293 Off ch=10 n=42 v=64
251293 Off ch=10 n=35 v=64
251295 Off ch=3 n=36 v=64
251295 On ch=3 n=36 v=95
251295 Off ch=7 n=64 v=64
251295 On ch=7 n=60 v=95
251520 On ch=1 n=55 v=95
251520 On ch=1 n=48 v=95
251520 Off ch=1 n=55 v=64
251520 Off ch=1 n=48 v=64
251529 Off ch=11 n=67 v=64
251529 On ch=11 n=67 v=127
251533 On ch=10 n=42 v=95
251533 On ch=10 n=38 v=95
251533 Off ch=10 n=42 v=64
251535 Off ch=3 n=36 v=64
251535 On ch=3 n=36 v=95
251535 Off ch=7 n=60 v=64
251535 On ch=7 n=67 v=95
251544 Meta Lyric "DAY, "
251760 On ch=1 n=55 v=95
251760 On ch=1 n=48 v=95
251760 Off ch=1 n=55 v=64
251760 Off ch=1 n=48 v=64
251764 Off ch=5 n=69 v=64
251764 On ch=5 n=67 v=95
251769 Off ch=11 n=67 v=64
251773 On ch=10 n=42 v=95
251773 Off ch=10 n=42 v=64
251773 Off ch=10 n=38 v=64
251775 Off ch=3 n=36 v=64
251775 On ch=3 n=36 v=95
251775 Off ch=7 n=67 v=64
251775 On ch=7 n=64 v=95
251793 Meta Lyric "\r"
251988 Meta Lyric "SA"
252000 On ch=1 n=55 v=95
252000 On ch=1 n=48 v=95
252000 Off ch=1 n=55 v=64
252000 Off ch=1 n=48 v=64
252009 On ch=11 n=67 v=127
252013 On ch=10 n=42 v=95
252013 On ch=10 n=35 v=95
252013 Off ch=10 n=42 v=64
252015 Off ch=3 n=36 v=64
252015 On ch=3 n=36 v=95
252015 Off ch=7 n=64 v=64
252015 On ch=7 n=67 v=95
252240 On ch=1 n=55 v=95
252240 On ch=1 n=48 v=95
252240 Off ch=1 n=55 v=64
252240 Off ch=1 n=48 v=64
252240 Meta Lyric "TUR"
252249 Off ch=11 n=67 v=64
252249 On ch=11 n=67 v=127
252253 On ch=10 n=42 v=95
252253 Off ch=10 n=42 v=64
252253 Off ch=10 n=35 v=64
252255 Off ch=3 n=36 v=64
252255 On ch=3 n=36 v=95
252255 Off ch=7 n=67 v=64
252255 On ch=7 n=64 v=95
252480 On ch=1 n=55 v=95
252480 On ch=1 n=48 v=95
252480 Off ch=1 n=55 v=64
252480 Off ch=1 n=48 v=64
252480 Meta Lyric "DAY "
252489 Off ch=11 n=67 v=64
252489 On ch=11 n=67 v=127
252493 On ch=10 n=42 v=95
252493 On ch=10 n=38 v=95
252493 Off ch=10 n=42 v=64
252495 Off ch=3 n=36 v=64
252495 On ch=3 n=36 v=95
252495 Off ch=7 n=64 v=64
252495 On ch=7 n=60 v=95
252708 Meta Lyric "AND "
252720 On ch=1 n=55 v=95
252720 On ch=1 n=48 v=95
252720 Off ch=1 n=55 v=64
252720 Off ch=1 n=48 v=64
252729 Off ch=11 n=67 v=64
252729 On ch=11 n=62 v=127
252733 On ch=10 n=42 v=95
252733 Off ch=10 n=42 v=64
252733 Off ch=10 n=38 v=64
252735 Off ch=3 n=36 v=64
252735 On ch=3 n=36 v=95
252735 Off ch=7 n=60 v=64
252735 On ch=7 n=67 v=95
252948 Meta Lyric "SUN"
252960 On ch=1 n=55 v=95
252960 On ch=1 n=48 v=95
252960 Off ch=1 n=55 v=64
252960 Off ch=1 n=48 v=64
252964 Off ch=5 n=67 v=64
252964 On ch=5 n=72 v=95
252969 Off ch=11 n=62 v=64
252969 On ch=11 n=60 v=127
252973 On ch=10 n=42 v=95
252973 On ch=10 n=35 v=95
252973 Off ch=10 n=42 v=64
252975 Off ch=3 n=36 v=64
252975 On ch=3 n=38 v=95
252975 Off ch=7 n=67 v=64
252975 On ch=7 n=64 v=95
253200 On ch=1 n=57 v=95
253200 On ch=1 n=50 v=95
253200 Off ch=1 n=55 v=64
253200 Off ch=1 n=48 v=64
253213 On ch=10 n=42 v=95
253213 Off ch=10 n=42 v=64
253213 Off ch=10 n=35 v=64
253215 Off ch=3 n=38 v=64
253215 On ch=3 n=38 v=95
253215 Off ch=7 n=64 v=64
253215 On ch=7 n=60 v=95
253440 On ch=1 n=57 v=95
253440 On ch=1 n=50 v=95
253440 Off ch=1 n=57 v=64
253440 Off ch=1 n=50 v=64
253440 Meta Lyric "DAY"
253449 Off ch=11 n=60 v=64
253449 On ch=11 n=59 v=127
253453 On ch=10 n=42 v=95
253453 On ch=10 n=38 v=95
253453 Off ch=10 n=42 v=64
253455 Off ch=3 n=38 v=64
253455 On ch=3 n=38 v=95
253455 Off ch=7 n=60 v=64
253455 On ch=7 n=67 v=95
253680 On ch=1 n=57 v=95
253680 On ch=1 n=50 v=95
253680 Off ch=1 n=57 v=64
253680 Off ch=1 n=50 v=64
253689 Off ch=11 n=59 v=64
253693 On ch=10 n=42 v=95
253693 Off ch=10 n=42 v=64
253693 Off ch=10 n=38 v=64
253695 Off ch=3 n=38 v=64
253695 On ch=3 n=38 v=95
253695 Off ch=7 n=67 v=64
253695 On ch=7 n=64 v=95
253740 Meta Lyric "\r"
253920 On ch=1 n=59 v=95
253920 On ch=1 n=52 v=95
253920 Off ch=1 n=57 v=64
253920 Off ch=1 n=50 v=64
253920 Meta Lyric "GET "
253924 Off ch=5 n=72 v=64
253924 On ch=5 n=69 v=95
253929 On ch=11 n=67 v=127
253933 On ch=10 n=42 v=95
253933 On ch=10 n=35 v=95
253933 Off ch=10 n=42 v=64
253935 Off ch=3 n=38 v=64
253935 On ch=3 n=40 v=95
253935 Off ch=7 n=64 v=64
253935 On ch=7 n=67 v=95
254160 On ch=1 n=59 v=95
254160 On ch=1 n=52 v=95
254160 Off ch=1 n=59 v=64
254160 Off ch=1 n=52 v=64
254160 Meta Lyric "GET "
254169 Off ch=11 n=67 v=64
254169 On ch=11 n=67 v=127
254173 On ch=10 n=42 v=95
254173 Off ch=10 n=42 v=64
254173 Off ch=10 n=35 v=64
254175 Off ch=3 n=40 v=64
254175 On ch=3 n=40 v=95
254175 Off ch=7 n=67 v=64
254175 On ch=7 n=64 v=95
254400 On ch=1 n=59 v=95
254400 On ch=1 n=52 v=95
254400 Off ch=1 n=59 v=64
254400 Off ch=1 n=52 v=64
254400 Meta Lyric "GET "
254409 Off ch=11 n=67 v=64
254409 On ch=11 n=67 v=127
254413 On ch=10 n=42 v=95
254413 On ch=10 n=38 v=95
254413 Off ch=10 n=42 v=64
254415 Off ch=3 n=40 v=64
254415 On ch=3 n=40 v=95
254415 Off ch=7 n=64 v=64
254415 On ch=7 n=59 v=95
254640 On ch=1 n=59 v=95
254640 On ch=1 n=52 v=95
254640 Off ch=1 n=59 v=64
254640 Off ch=1 n=52 v=64
254640 Meta Lyric "GET "
254649 Off ch=11 n=67 v=64
254649 On ch=11 n=67 v=127
254653 On ch=10 n=42 v=95
254653 Off ch=10 n=42 v=64
254653 Off ch=10 n=38 v=64
254655 Off ch=3 n=40 v=64
254655 On ch=3 n=40 v=95
254655 Off ch=7 n=59 v=64
254655 On ch=7 n=67 v=95
254880 On ch=1 n=59 v=95
254880 On ch=1 n=52 v=95
254880 Off ch=1 n=59 v=64
254880 Off ch=1 n=52 v=64
254880 Meta Lyric "GET "
254889 Off ch=11 n=67 v=64
254889 On ch=11 n=67 v=127
254893 On ch=10 n=42 v=95
254893 On ch=10 n=35 v=95
254893 Off ch=10 n=42 v=64
254895 Off ch=3 n=40 v=64
254895 On ch=3 n=40 v=95
254895 Off ch=7 n=67 v=64
254895 On ch=7 n=64 v=95
255120 On ch=1 n=59 v=95
255120 On ch=1 n=52 v=95
255120 Off ch=1 n=59 v=64
255120 Off ch=1 n=52 v=64
255120 Meta Lyric "WITH "
255129 Off ch=11 n=67 v=64
255129 On ch=11 n=67 v=127
255133 On ch=10 n=42 v=95
255133 Off ch=10 n=42 v=64
255133 Off ch=10 n=35 v=64
255135 Off ch=3 n=40 v=64
255135 On ch=3 n=40 v=95
255135 Off ch=7 n=64 v=64
255135 On ch=7 n=59 v=95
255360 On ch=1 n=59 v=95
255360 On ch=1 n=52 v=95
255360 Off ch=1 n=59 v=64
255360 Off ch=1 n=52 v=64
255360 Meta Lyric "US"
255369 Off ch=11 n=67 v=64
255369 On ch=11 n=67 v=127
255373 On ch=10 n=42 v=95
255373 On ch=10 n=38 v=95
255373 Off ch=10 n=42 v=64
255375 Off ch=3 n=40 v=64
255375 On ch=3 n=40 v=95
255375 Off ch=7 n=59 v=64
255375 On ch=7 n=67 v=95
255596 Meta Lyric "\r"
255600 On ch=1 n=59 v=95
255600 On ch=1 n=52 v=95
255600 Off ch=1 n=59 v=64
255600 Off ch=1 n=52 v=64
255604 Off ch=5 n=69 v=64
255604 On ch=5 n=67 v=95
255609 Off ch=11 n=67 v=64
255613 On ch=10 n=42 v=95
255613 Off ch=10 n=42 v=64
255613 Off ch=10 n=38 v=64
255615 Off ch=3 n=40 v=64
255615 On ch=3 n=40 v=95
255615 Off ch=7 n=67 v=64
255615 On ch=7 n=64 v=95
255840 On ch=1 n=59 v=95
255840 On ch=1 n=52 v=95
255840 Off ch=1 n=59 v=64
255840 Off ch=1 n=52 v=64
255840 Meta Lyric "YOU "
255849 On ch=11 n=67 v=127
255853 On ch=10 n=42 v=95
255853 On ch=10 n=35 v=95
255853 Off ch=10 n=42 v=64
255855 Off ch=3 n=40 v=64
255855 On ch=3 n=40 v=95
255855 Off ch=7 n=64 v=64
255855 On ch=7 n=67 v=95
256080 On ch=1 n=59 v=95
256080 On ch=1 n=52 v=95
256080 Off ch=1 n=59 v=64
256080 Off ch=1 n=52 v=64
256080 Meta Lyric "KNOW "
256089 Off ch=11 n=67 v=64
256089 On ch=11 n=67 v=127
256093 On ch=10 n=42 v=95
256093 Off ch=10 n=42 v=64
256093 Off ch=10 n=35 v=64
256095 Off ch=3 n=40 v=64
256095 On ch=3 n=40 v=95
256095 Off ch=7 n=67 v=64
256095 On ch=7 n=64 v=95
256320 On ch=1 n=59 v=95
256320 On ch=1 n=52 v=95
256320 Off ch=1 n=59 v=64
256320 Off ch=1 n=52 v=64
256320 Meta Lyric "WHAT "
256329 Off ch=11 n=67 v=64
256329 On ch=11 n=67 v=127
256333 On ch=10 n=42 v=95
256333 On ch=10 n=38 v=95
256333 Off ch=10 n=42 v=64
256335 Off ch=3 n=40 v=64
256335 On ch=3 n=40 v=95
256335 Off ch=7 n=64 v=64
256335 On ch=7 n=59 v=95
256560 On ch=1 n=59 v=95
256560 On ch=1 n=52 v=95
256560 Off ch=1 n=59 v=64
256560 Off ch=1 n=52 v=64
256560 Meta Lyric "WE "
256569 Off ch=11 n=67 v=64
256569 On ch=11 n=67 v=127
256573 On ch=10 n=42 v=95
256573 Off ch=10 n=42 v=64
256573 Off ch=10 n=38 v=64
256575 Off ch=3 n=40 v=64
256575 On ch=3 n=40 v=95
256575 Off ch=7 n=59 v=64
256575 On ch=7 n=67 v=95
256800 On ch=1 n=59 v=95
256800 On ch=1 n=52 v=95
256800 Off ch=1 n=59 v=64
256800 Off ch=1 n=52 v=64
256800 Meta Lyric "SAY, "
256809 Off ch=11 n=67 v=64
256809 On ch=11 n=69 v=127
256813 On ch=10 n=42 v=95
256813 On ch=10 n=35 v=95
256813 Off ch=10 n=42 v=64
256815 Off ch=3 n=40 v=64
256815 On ch=3 n=38 v=95
256815 Off ch=7 n=67 v=64
256815 On ch=7 n=64 v=95
257040 On ch=1 n=57 v=95
257040 On ch=1 n=50 v=95
257040 Off ch=1 n=59 v=64
257040 Off ch=1 n=52 v=64
257049 Off ch=11 n=69 v=64
257053 On ch=10 n=42 v=95
257053 Off ch=10 n=42 v=64
257053 Off ch=10 n=35 v=64
257055 Off ch=3 n=38 v=64
257055 On ch=3 n=38 v=95
257055 Off ch=7 n=64 v=64
257055 On ch=7 n=59 v=95
257280 On ch=1 n=57 v=95
257280 On ch=1 n=50 v=95
257280 Off ch=1 n=57 v=64
257280 Off ch=1 n=50 v=64
257280 Meta Lyric "SAY"
257289 On ch=11 n=69 v=127
257293 On ch=10 n=42 v=95
257293 On ch=10 n=38 v=95
257293 Off ch=10 n=42 v=64
257295 Off ch=3 n=38 v=64
257295 On ch=3 n=38 v=95
257295 Off ch=7 n=59 v=64
257295 On ch=7 n=67 v=95
257529 Off ch=11 n=69 v=64
257533 On ch=10 n=42 v=95
257533 Off ch=10 n=42 v=64
257533 Off ch=10 n=38 v=64
257535 Off ch=3 n=38 v=64
257535 On ch=3 n=38 v=95
257535 Off ch=7 n=67 v=64
257535 On ch=7 n=64 v=95
257560 Meta Lyric "\r"
257760 On ch=1 n=55 v=95
257760 On ch=1 n=48 v=95
257760 Off ch=1 n=57 v=64
257760 Off ch=1 n=50 v=64
257760 Meta Lyric "PAR"
257764 Off ch=5 n=67 v=64
257764 On ch=5 n=69 v=95
257769 On ch=11 n=67 v=127
257773 On ch=10 n=42 v=95
257773 On ch=10 n=35 v=95
257773 Off ch=10 n=42 v=64
257775 Off ch=3 n=38 v=64
257775 On ch=3 n=36 v=95
257775 Off ch=7 n=64 v=64
257775 On ch=7 n=67 v=95
258000 On ch=1 n=55 v=95
258000 On ch=1 n=48 v=95
258000 Off ch=1 n=55 v=64
258000 Off ch=1 n=48 v=64
258000 Meta Lyric "TY "
258009 Off ch=11 n=67 v=64
258009 On ch=11 n=67 v=127
258013 On ch=10 n=42 v=95
258013 Off ch=10 n=42 v=64
258013 Off ch=10 n=35 v=64
258015 Off ch=3 n=36 v=64
258015 On ch=3 n=36 v=95
258015 Off ch=7 n=67 v=64
258015 On ch=7 n=64 v=95
258240 On ch=1 n=55 v=95
258240 On ch=1 n=48 v=95
258240 Off ch=1 n=55 v=64
258240 Off ch=1 n=48 v=64
258240 Meta Lyric "E"
258249 Off ch=11 n=67 v=64
258249 On ch=11 n=67 v=127
258253 On ch=10 n=42 v=95
258253 On ch=10 n=38 v=95
258253 Off ch=10 n=42 v=64
258255 Off ch=3 n=36 v=64
258255 On ch=3 n=36 v=95
258255 Off ch=7 n=64 v=64
258255 On ch=7 n=60 v=95
258456 Meta Lyric "VERY "
258480 On ch=1 n=55 v=95
258480 On ch=1 n=48 v=95
258480 Off ch=1 n=55 v=64
258480 Off ch=1 n=48 v=64
258489 Off ch=11 n=67 v=64
258489 On ch=11 n=67 v=127
258493 On ch=10 n=42 v=95
258493 Off ch=10 n=42 v=64
258493 Off ch=10 n=38 v=64
258495 Off ch=3 n=36 v=64
258495 On ch=3 n=36 v=95
258495 Off ch=7 n=60 v=64
258495 On ch=7 n=67 v=95
258720 On ch=1 n=55 v=95
258720 On ch=1 n=48 v=95
258720 Off ch=1 n=55 v=64
258720 Off ch=1 n=48 v=64
258729 Off ch=11 n=67 v=64
258729 On ch=11 n=69 v=127
258732 Meta Lyric "DAY, "
258733 On ch=10 n=42 v=95
258733 On ch=10 n=35 v=95
258733 Off ch=10 n=42 v=64
258735 Off ch=3 n=36 v=64
258735 On ch=3 n=36 v=95
258735 Off ch=7 n=67 v=64
258735 On ch=7 n=64 v=95
258874 Meta Lyric "\r"
258960 On ch=1 n=55 v=95
258960 On ch=1 n=48 v=95
258960 Off ch=1 n=55 v=64
258960 Off ch=1 n=48 v=64
258960 Meta Lyric "P "
258969 Off ch=11 n=69 v=64
258969 On ch=11 n=62 v=127
258973 On ch=10 n=42 v=95
258973 Off ch=10 n=42 v=64
258973 Off ch=10 n=35 v=64
258975 Off ch=3 n=36 v=64
258975 On ch=3 n=36 v=95
258975 Off ch=7 n=64 v=64
258975 On ch=7 n=60 v=95
259200 On ch=1 n=55 v=95
259200 On ch=1 n=48 v=95
259200 Off ch=1 n=55 v=64
259200 Off ch=1 n=48 v=64
259200 Meta Lyric "P "
259209 Off ch=11 n=62 v=64
259209 On ch=11 n=62 v=127
259213 On ch=10 n=42 v=95
259213 On ch=10 n=38 v=95
259213 Off ch=10 n=42 v=64
259215 Off ch=3 n=36 v=64
259215 On ch=3 n=36 v=95
259215 Off ch=7 n=60 v=64
259215 On ch=7 n=67 v=95
259440 On ch=1 n=55 v=95
259440 On ch=1 n=48 v=95
259440 Off ch=1 n=55 v=64
259440 Off ch=1 n=48 v=64
259440 Meta Lyric "P "
259444 Off ch=5 n=69 v=64
259444 On ch=5 n=67 v=95
259449 Off ch=11 n=62 v=64
259449 On ch=11 n=62 v=127
259453 On ch=10 n=42 v=95
259453 Off ch=10 n=42 v=64
259453 Off ch=10 n=38 v=64
259455 Off ch=3 n=36 v=64
259455 On ch=3 n=36 v=95
259455 Off ch=7 n=67 v=64
259455 On ch=7 n=64 v=95
259680 On ch=1 n=55 v=95
259680 On ch=1 n=48 v=95
259680 Off ch=1 n=55 v=64
259680 Off ch=1 n=48 v=64
259680 Meta Lyric "PAR"
259689 Off ch=11 n=62 v=64
259689 On ch=11 n=67 v=127
259693 On ch=10 n=42 v=95
259693 On ch=10 n=35 v=95
259693 Off ch=10 n=42 v=64
259695 Off ch=3 n=36 v=64
259695 On ch=3 n=36 v=95
259695 Off ch=7 n=64 v=64
259695 On ch=7 n=67 v=95
259920 On ch=1 n=55 v=95
259920 On ch=1 n=48 v=95
259920 Off ch=1 n=55 v=64
259920 Off ch=1 n=48 v=64
259920 Meta Lyric "TY "
259929 Off ch=11 n=67 v=64
259929 On ch=11 n=67 v=127
259933 On ch=10 n=42 v=95
259933 Off ch=10 n=42 v=64
259933 Off ch=10 n=35 v=64
259935 Off ch=3 n=36 v=64
259935 On ch=3 n=36 v=95
259935 Off ch=7 n=67 v=64
259935 On ch=7 n=64 v=95
260160 On ch=1 n=55 v=95
260160 On ch=1 n=48 v=95
260160 Off ch=1 n=55 v=64
260160 Off ch=1 n=48 v=64
260160 Meta Lyric "E"
260169 Off ch=11 n=67 v=64
260169 On ch=11 n=67 v=127
260173 On ch=10 n=42 v=95
260173 On ch=10 n=38 v=95
260173 Off ch=10 n=42 v=64
260175 Off ch=3 n=36 v=64
260175 On ch=3 n=36 v=95
260175 Off ch=7 n=64 v=64
260175 On ch=7 n=60 v=95
260376 Meta Lyric "VERY "
260400 On ch=1 n=55 v=95
260400 On ch=1 n=48 v=95
260400 Off ch=1 n=55 v=64
260400 Off ch=1 n=48 v=64
260409 Off ch=11 n=67 v=64
260409 On ch=11 n=67 v=127
260413 On ch=10 n=42 v=95
260413 Off ch=10 n=42 v=64
260413 Off ch=10 n=38 v=64
260415 Off ch=3 n=36 v=64
260415 On ch=3 n=36 v=95
260415 Off ch=7 n=60 v=64
260415 On ch=7 n=67 v=95
260628 Meta Lyric "DAY"
260640 On ch=1 n=55 v=95
260640 On ch=1 n=48 v=95
260640 Off ch=1 n=55 v=64
260640 Off ch=1 n=48 v=64
260649 Off ch=11 n=67 v=64
260649 On ch=11 n=69 v=127
260653 On ch=10 n=42 v=95
260653 On ch=10 n=35 v=95
260653 Off ch=10 n=42 v=64
260655 Off ch=3 n=36 v=64
260655 On ch=3 n=36 v=95
260655 Off ch=7 n=67 v=64
260655 On ch=7 n=64 v=95
260880 On ch=1 n=55 v=95
260880 On ch=1 n=48 v=95
260880 Off ch=1 n=55 v=64
260880 Off ch=1 n=48 v=64
260889 Off ch=11 n=69 v=64
260893 On ch=10 n=42 v=95
260893 Off ch=10 n=42 v=64
260893 Off ch=10 n=35 v=64
260895 Off ch=3 n=36 v=64
260895 On ch=3 n=36 v=95
260895 Off ch=7 n=64 v=64
260895 On ch=7 n=60 v=95
260909 Meta Lyric "\r"
260964 Meta Lyric "AND "
261120 On ch=1 n=55 v=95
261120 On ch=1 n=48 v=95
261120 Off ch=1 n=55 v=64
261120 Off ch=1 n=48 v=64
261120 Meta Lyric "I'M "
261129 On ch=11 n=67 v=127
261133 On ch=10 n=42 v=95
261133 On ch=10 n=38 v=95
261133 Off ch=10 n=42 v=64
261135 Off ch=3 n=36 v=64
261135 On ch=3 n=36 v=95
261135 Off ch=7 n=60 v=64
261135 On ch=7 n=67 v=95
261360 On ch=1 n=55 v=95
261360 On ch=1 n=48 v=95
261360 Off ch=1 n=55 v=64
261360 Off ch=1 n=48 v=64
261369 Off ch=11 n=67 v=64
261369 On ch=11 n=72 v=127
261372 Meta Lyric "FEE"
261373 On ch=10 n=42 v=95
261373 Off ch=10 n=42 v=64
261373 Off ch=10 n=38 v=64
261375 Off ch=3 n=36 v=64
261375 On ch=3 n=36 v=95
261375 Off ch=7 n=67 v=64
261375 On ch=7 n=64 v=95
261600 On ch=1 n=50 v=95
261600 On ch=1 n=43 v=95
261600 Off ch=1 n=55 v=64
261600 Off ch=1 n=48 v=64
261600 Meta Lyric "LING "
261604 Off ch=5 n=67 v=64
261604 On ch=5 n=69 v=95
261609 Off ch=11 n=72 v=64
261609 On ch=11 n=71 v=127
261613 On ch=10 n=57 v=95
261613 On ch=10 n=35 v=95
261613 Off ch=10 n=42 v=64
261615 Off ch=3 n=36 v=64
261615 On ch=3 n=31 v=95
261615 Off ch=7 n=64 v=64
261840 On ch=1 n=50 v=95
261840 On ch=1 n=43 v=95
261840 Off ch=1 n=50 v=64
261840 Off ch=1 n=43 v=64
261849 Off ch=11 n=71 v=64
261853 On ch=10 n=42 v=95
261853 Off ch=10 n=57 v=64
261853 Off ch=10 n=35 v=64
261855 Off ch=3 n=31 v=64
261855 On ch=3 n=31 v=95
261900 Meta Lyric "\r"
262080 On ch=1 n=50 v=95
262080 On ch=1 n=43 v=95
262080 Off ch=1 n=50 v=64
262080 Off ch=1 n=43 v=64
262093 On ch=10 n=42 v=95
262093 On ch=10 n=38 v=95
262093 Off ch=10 n=42 v=64
262095 Off ch=3 n=31 v=64
262095 On ch=3 n=31 v=95
262320 On ch=1 n=50 v=95
262320 On ch=1 n=43 v=95
262320 Off ch=1 n=50 v=64
262320 Off ch=1 n=43 v=64
262333 Off ch=10 n=42 v=64
262333 Off ch=10 n=38 v=64
262333 On ch=10 n=42 v=95
262335 On ch=3 n=31 v=95
262335 Off ch=3 n=31 v=64
262560 Off ch=1 n=50 v=64
262560 Off ch=1 n=43 v=64
262560 On ch=1 n=50 v=95
262560 On ch=1 n=43 v=95
262573 On ch=10 n=42 v=95
262573 On ch=10 n=35 v=95
262573 Off ch=10 n=42 v=64
262573 Meta Lyric "WOO "
262575 Off ch=3 n=31 v=64
262575 On ch=3 n=31 v=95
262582 On ch=11 n=81 v=92
262800 Off ch=1 n=50 v=64
262800 Off ch=1 n=43 v=64
262800 On ch=1 n=50 v=95
262800 On ch=1 n=43 v=95
262813 On ch=10 n=42 v=95
262813 Off ch=10 n=42 v=64
262813 Off ch=10 n=35 v=64
262815 Off ch=3 n=31 v=64
262815 On ch=3 n=31 v=95
263040 Off ch=1 n=50 v=64
263040 Off ch=1 n=43 v=64
263040 On ch=1 n=50 v=95
263040 On ch=1 n=43 v=95
263053 On ch=10 n=42 v=95
263053 On ch=10 n=38 v=95
263053 Off ch=10 n=42 v=64
263055 Off ch=3 n=31 v=64
263055 On ch=3 n=31 v=95
263280 Off ch=1 n=50 v=64
263280 Off ch=1 n=43 v=64
263280 On ch=1 n=50 v=95
263280 On ch=1 n=43 v=95
263284 Off ch=5 n=69 v=64
263284 On ch=5 n=67 v=95
263293 On ch=10 n=42 v=95
263293 Off ch=10 n=42 v=64
263293 Off ch=10 n=38 v=64
263295 Off ch=3 n=31 v=64
263295 On ch=3 n=31 v=95
263520 Off ch=1 n=50 v=64
263520 Off ch=1 n=43 v=64
263520 On ch=1 n=50 v=95
263520 On ch=1 n=43 v=95
263533 On ch=10 n=42 v=95
263533 On ch=10 n=35 v=95
263533 Off ch=10 n=42 v=64
263533 Meta Lyric "HOO "
263535 Off ch=3 n=31 v=64
263535 On ch=3 n=31 v=95
263542 On ch=11 n=79 v=90
263542 Off ch=11 n=81 v=64
263760 Off ch=1 n=50 v=64
263760 Off ch=1 n=43 v=64
263760 On ch=1 n=50 v=95
263760 On ch=1 n=43 v=95
263773 On ch=10 n=42 v=95
263773 Off ch=10 n=42 v=64
263773 Off ch=10 n=35 v=64
263775 Off ch=3 n=31 v=64
263775 On ch=3 n=31 v=95
264000 Off ch=1 n=50 v=64
264000 Off ch=1 n=43 v=64
264000 On ch=1 n=50 v=95
264000 On ch=1 n=43 v=95
264013 On ch=10 n=42 v=95
264013 On ch=10 n=38 v=95
264013 Off ch=10 n=42 v=64
264015 Off ch=3 n=31 v=64
264015 On ch=3 n=31 v=95
264240 Off ch=1 n=50 v=64
264240 Off ch=1 n=43 v=64
264240 On ch=1 n=50 v=95
264240 On ch=1 n=43 v=95
264253 On ch=10 n=42 v=95
264253 Off ch=10 n=42 v=64
264253 Off ch=10 n=38 v=64
264255 Off ch=3 n=31 v=64
264255 On ch=3 n=31 v=95
264262 Off ch=11 n=79 v=64
264408 Meta Lyric "\r"
264480 Off ch=1 n=50 v=64
264480 Off ch=1 n=43 v=64
264480 On ch=1 n=50 v=95
264480 On ch=1 n=43 v=95
264493 On ch=10 n=42 v=95
264493 On ch=10 n=35 v=95
264493 Off ch=10 n=42 v=64
264495 Off ch=3 n=31 v=64
264495 On ch=3 n=31 v=95
264720 Off ch=1 n=50 v=64
264720 Off ch=1 n=43 v=64
264720 On ch=1 n=50 v=95
264720 On ch=1 n=43 v=95
264733 On ch=10 n=42 v=95
264733 Off ch=10 n=42 v=64
264733 Off ch=10 n=35 v=64
264733 Meta Lyric "THAT "
264735 Off ch=3 n=31 v=64
264735 On ch=3 n=31 v=95
264742 On ch=11 n=67 v=127
264960 Off ch=1 n=50 v=64
264960 Off ch=1 n=43 v=64
264960 On ch=1 n=50 v=95
264960 On ch=1 n=43 v=95
264973 On ch=10 n=42 v=95
264973 On ch=10 n=38 v=95
264973 Off ch=10 n=42 v=64
264973 Meta Lyric "TO"
264975 Off ch=3 n=31 v=64
264975 On ch=3 n=31 v=95
264982 On ch=11 n=67 v=127
264982 Off ch=11 n=67 v=64
265200 Off ch=1 n=50 v=64
265200 Off ch=1 n=43 v=64
265200 On ch=1 n=50 v=95
265200 On ch=1 n=43 v=95
265213 On ch=10 n=42 v=95
265213 Off ch=10 n=42 v=64
265213 Off ch=10 n=38 v=64
265213 Meta Lyric "NIGHT'S "
265215 Off ch=3 n=31 v=64
265215 On ch=3 n=31 v=95
265222 On ch=11 n=72 v=127
265222 Off ch=11 n=67 v=64
265440 Off ch=1 n=50 v=64
265440 Off ch=1 n=43 v=64
265440 On ch=1 n=55 v=95
265440 On ch=1 n=48 v=95
265444 Off ch=5 n=67 v=64
265444 On ch=5 n=69 v=95
265453 On ch=10 n=42 v=95
265453 On ch=10 n=35 v=95
265453 Off ch=10 n=42 v=64
265455 Off ch=3 n=31 v=64
265455 On ch=3 n=36 v=95
265512 Meta Lyric "\r"
265680 Off ch=1 n=55 v=64
265680 Off ch=1 n=48 v=64
265680 On ch=1 n=55 v=95
265680 On ch=1 n=48 v=95
265693 On ch=10 n=42 v=95
265693 Off ch=10 n=42 v=64
265693 Off ch=10 n=35 v=64
265693 Meta Lyric "GO"
265695 Off ch=3 n=36 v=64
265695 On ch=3 n=36 v=95
265702 On ch=11 n=71 v=127
265702 Off ch=11 n=72 v=64
265909 Meta Lyric "NNA "
265920 Off ch=1 n=55 v=64
265920 Off ch=1 n=48 v=64
265920 On ch=1 n=55 v=95
265920 On ch=1 n=48 v=95
265933 On ch=10 n=42 v=95
265933 On ch=10 n=38 v=95
265933 Off ch=10 n=42 v=64
265935 Off ch=3 n=36 v=64
265935 On ch=3 n=36 v=95
265942 On ch=11 n=69 v=127
265942 Off ch=11 n=71 v=64
266160 Off ch=1 n=55 v=64
266160 Off ch=1 n=48 v=64
266160 On ch=1 n=55 v=95
266160 On ch=1 n=48 v=95
266173 On ch=10 n=42 v=95
266173 Off ch=10 n=42 v=64
266173 Off ch=10 n=38 v=64
266173 Meta Lyric "BE "
266175 Off ch=3 n=36 v=64
266175 On ch=3 n=36 v=95
266182 On ch=11 n=67 v=127
266182 Off ch=11 n=69 v=64
266400 Off ch=1 n=55 v=64
266400 Off ch=1 n=48 v=64
266400 On ch=1 n=55 v=95
266400 On ch=1 n=48 v=95
266413 On ch=10 n=42 v=95
266413 On ch=10 n=35 v=95
266413 Off ch=10 n=42 v=64
266415 Off ch=3 n=36 v=64
266415 On ch=3 n=36 v=95
266542 Off ch=11 n=67 v=64
266640 Off ch=1 n=55 v=64
266640 Off ch=1 n=48 v=64
266640 On ch=1 n=55 v=95
266640 On ch=1 n=48 v=95
266653 On ch=10 n=42 v=95
266653 Off ch=10 n=42 v=64
266653 Off ch=10 n=35 v=64
266653 Meta Lyric "A "
266655 Off ch=3 n=36 v=64
266655 On ch=3 n=36 v=95
266662 On ch=11 n=64 v=127
266880 Off ch=1 n=55 v=64
266880 Off ch=1 n=48 v=64
266880 On ch=1 n=55 v=95
266880 On ch=1 n=48 v=95
266893 On ch=10 n=42 v=95
266893 On ch=10 n=38 v=95
266893 Off ch=10 n=42 v=64
266895 Off ch=3 n=36 v=64
266895 On ch=3 n=36 v=95
267120 Off ch=1 n=55 v=64
267120 Off ch=1 n=48 v=64
267120 On ch=1 n=55 v=95
267120 On ch=1 n=48 v=95
267124 Off ch=5 n=69 v=64
267124 On ch=5 n=67 v=95
267133 On ch=10 n=42 v=95
267133 Off ch=10 n=42 v=64
267133 Off ch=10 n=38 v=64
267133 Meta Lyric "GOOD "
267135 Off ch=3 n=36 v=64
267135 On ch=3 n=36 v=95
267142 On ch=11 n=72 v=127
267142 Off ch=11 n=64 v=64
267360 Off ch=1 n=55 v=64
267360 Off ch=1 n=48 v=64
267360 On ch=1 n=55 v=95
267360 On ch=1 n=48 v=95
267373 On ch=10 n=42 v=95
267373 On ch=10 n=35 v=95
267373 Off ch=10 n=42 v=64
267375 Off ch=3 n=36 v=64
267375 On ch=3 n=36 v=95
267600 Off ch=1 n=55 v=64
267600 Off ch=1 n=48 v=64
267600 On ch=1 n=55 v=95
267600 On ch=1 n=48 v=95
267613 On ch=10 n=42 v=95
267613 Off ch=10 n=42 v=64
267613 Off ch=10 n=35 v=64
267613 Meta Lyric "NIGHT "
267615 Off ch=3 n=36 v=64
267615 On ch=3 n=36 v=95
267622 On ch=11 n=71 v=127
267622 Off ch=11 n=72 v=64
267840 Off ch=1 n=55 v=64
267840 Off ch=1 n=48 v=64
267840 On ch=1 n=55 v=95
267840 On ch=1 n=48 v=95
267853 On ch=10 n=42 v=95
267853 On ch=10 n=38 v=95
267853 Off ch=10 n=42 v=64
267855 Off ch=3 n=36 v=64
267855 On ch=3 n=36 v=95
267862 Off ch=11 n=71 v=64
268080 Off ch=1 n=55 v=64
268080 Off ch=1 n=48 v=64
268080 On ch=1 n=55 v=95
268080 On ch=1 n=48 v=95
268093 On ch=10 n=42 v=95
268093 Off ch=10 n=42 v=64
268093 Off ch=10 n=38 v=64
268095 Off ch=3 n=36 v=64
268095 On ch=3 n=36 v=95
268193 Meta Lyric "\r"
268320 Off ch=1 n=55 v=64
268320 Off ch=1 n=48 v=64
268320 On ch=1 n=55 v=95
268320 On ch=1 n=48 v=95
268324 Off ch=5 n=67 v=64
268324 On ch=5 n=72 v=95
268333 On ch=10 n=42 v=95
268333 On ch=10 n=35 v=95
268333 Off ch=10 n=42 v=64
268335 Off ch=3 n=36 v=64
268335 On ch=3 n=38 v=95
268560 Off ch=1 n=55 v=64
268560 Off ch=1 n=48 v=64
268560 On ch=1 n=57 v=95
268560 On ch=1 n=50 v=95
268560 Meta Lyric "THAT "
268569 On ch=11 n=67 v=127
268573 On ch=10 n=42 v=95
268573 Off ch=10 n=42 v=64
268573 Off ch=10 n=35 v=64
268575 Off ch=3 n=38 v=64
268575 On ch=3 n=38 v=95
268800 Off ch=1 n=57 v=64
268800 Off ch=1 n=50 v=64
268800 On ch=1 n=57 v=95
268800 On ch=1 n=50 v=95
268809 Off ch=11 n=67 v=64
268809 On ch=11 n=67 v=127
268813 On ch=10 n=42 v=95
268813 On ch=10 n=38 v=95
268813 Off ch=10 n=42 v=64
268815 Off ch=3 n=38 v=64
268815 On ch=3 n=38 v=95
268824 Meta Lyric "TO"
269040 Off ch=1 n=57 v=64
269040 Off ch=1 n=50 v=64
269040 On ch=1 n=57 v=95
269040 On ch=1 n=50 v=95
269049 Off ch=11 n=67 v=64
269049 On ch=11 n=72 v=127
269053 On ch=10 n=42 v=95
269053 Off ch=10 n=42 v=64
269053 Off ch=10 n=38 v=64
269055 Off ch=3 n=38 v=64
269055 On ch=3 n=38 v=95
269076 Meta Lyric "NIGHT'S "
269280 Off ch=1 n=57 v=64
269280 Off ch=1 n=50 v=64
269280 On ch=1 n=59 v=95
269280 On ch=1 n=52 v=95
269284 Off ch=5 n=72 v=64
269284 On ch=5 n=69 v=95
269293 On ch=10 n=42 v=95
269293 On ch=10 n=35 v=95
269293 Off ch=10 n=42 v=64
269295 Off ch=3 n=38 v=64
269295 On ch=3 n=40 v=95
269375 Meta Lyric "\r"
269520 Off ch=1 n=59 v=64
269520 Off ch=1 n=52 v=64
269520 On ch=1 n=59 v=95
269520 On ch=1 n=52 v=95
269520 Meta Lyric "GO"
269529 Off ch=11 n=72 v=64
269529 On ch=11 n=71 v=127
269533 On ch=10 n=42 v=95
269533 Off ch=10 n=42 v=64
269533 Off ch=10 n=35 v=64
269535 Off ch=3 n=40 v=64
269535 On ch=3 n=40 v=95
269760 Off ch=1 n=59 v=64
269760 Off ch=1 n=52 v=64
269760 On ch=1 n=59 v=95
269760 On ch=1 n=52 v=95
269769 Off ch=11 n=71 v=64
269769 On ch=11 n=69 v=127
269772 Meta Lyric "NNA "
269773 On ch=10 n=42 v=95
269773 On ch=10 n=38 v=95
269773 Off ch=10 n=42 v=64
269775 Off ch=3 n=40 v=64
269775 On ch=3 n=40 v=95
270000 Off ch=1 n=59 v=64
270000 Off ch=1 n=52 v=64
270000 On ch=1 n=59 v=95
270000 On ch=1 n=52 v=95
270000 Meta Lyric "BE "
270009 Off ch=11 n=69 v=64
270009 On ch=11 n=67 v=127
270013 On ch=10 n=42 v=95
270013 Off ch=10 n=42 v=64
270013 Off ch=10 n=38 v=64
270015 Off ch=3 n=40 v=64
270015 On ch=3 n=40 v=95
270240 Off ch=1 n=59 v=64
270240 Off ch=1 n=52 v=64
270240 On ch=1 n=59 v=95
270240 On ch=1 n=52 v=95
270253 On ch=10 n=42 v=95
270253 On ch=10 n=35 v=95
270253 Off ch=10 n=42 v=64
270255 Off ch=3 n=40 v=64
270255 On ch=3 n=40 v=95
270369 Off ch=11 n=67 v=64
270480 Off ch=1 n=59 v=64
270480 Off ch=1 n=52 v=64
270480 On ch=1 n=59 v=95
270480 On ch=1 n=52 v=95
270480 Meta Lyric "A "
270489 On ch=11 n=64 v=127
270493 On ch=10 n=42 v=95
270493 Off ch=10 n=42 v=64
270493 Off ch=10 n=35 v=64
270495 Off ch=3 n=40 v=64
270495 On ch=3 n=40 v=95
270720 Off ch=1 n=59 v=64
270720 Off ch=1 n=52 v=64
270720 On ch=1 n=59 v=95
270720 On ch=1 n=52 v=95
270733 On ch=10 n=42 v=95
270733 On ch=10 n=38 v=95
270733 Off ch=10 n=42 v=64
270735 Off ch=3 n=40 v=64
270735 On ch=3 n=40 v=95
270960 Off ch=1 n=59 v=64
270960 Off ch=1 n=52 v=64
270960 On ch=1 n=59 v=95
270960 On ch=1 n=52 v=95
270960 Meta Lyric "GOOD "
270964 Off ch=5 n=69 v=64
270964 On ch=5 n=67 v=95
270969 Off ch=11 n=64 v=64
270969 On ch=11 n=74 v=127
270973 On ch=10 n=42 v=95
270973 Off ch=10 n=42 v=64
270973 Off ch=10 n=38 v=64
270975 Off ch=3 n=40 v=64
270975 On ch=3 n=40 v=95
271200 Off ch=1 n=59 v=64
271200 Off ch=1 n=52 v=64
271200 On ch=1 n=59 v=95
271200 On ch=1 n=52 v=95
271213 On ch=10 n=42 v=95
271213 On ch=10 n=35 v=95
271213 Off ch=10 n=42 v=64
271215 Off ch=3 n=40 v=64
271215 On ch=3 n=40 v=95
271440 Off ch=1 n=59 v=64
271440 Off ch=1 n=52 v=64
271440 On ch=1 n=59 v=95
271440 On ch=1 n=52 v=95
271440 Meta Lyric "NIGHT "
271449 Off ch=11 n=74 v=64
271449 On ch=11 n=71 v=127
271453 On ch=10 n=42 v=95
271453 Off ch=10 n=42 v=64
271453 Off ch=10 n=35 v=64
271455 Off ch=3 n=40 v=64
271455 On ch=3 n=40 v=95
271680 Off ch=1 n=59 v=64
271680 Off ch=1 n=52 v=64
271680 On ch=1 n=59 v=95
271680 On ch=1 n=52 v=95
271689 Off ch=11 n=71 v=64
271693 On ch=10 n=42 v=95
271693 On ch=10 n=38 v=95
271693 Off ch=10 n=42 v=64
271695 Off ch=3 n=40 v=64
271695 On ch=3 n=40 v=95
271920 Off ch=1 n=59 v=64
271920 Off ch=1 n=52 v=64
271920 On ch=1 n=59 v=95
271920 On ch=1 n=52 v=95
271933 On ch=10 n=42 v=95
271933 Off ch=10 n=42 v=64
271933 Off ch=10 n=38 v=64
271935 Off ch=3 n=40 v=64
271935 On ch=3 n=40 v=95
272148 Meta Lyric "\r"
272160 Off ch=1 n=59 v=64
272160 Off ch=1 n=52 v=64
272160 On ch=1 n=59 v=95
272160 On ch=1 n=52 v=95
272173 On ch=10 n=42 v=95
272173 On ch=10 n=35 v=95
272173 Off ch=10 n=42 v=64
272175 Off ch=3 n=40 v=64
272175 On ch=3 n=38 v=95
272400 Off ch=1 n=59 v=64
272400 Off ch=1 n=52 v=64
272400 On ch=1 n=57 v=95
272400 On ch=1 n=50 v=95
272400 Meta Lyric "THAT "
272409 On ch=11 n=67 v=127
272413 On ch=10 n=42 v=95
272413 Off ch=10 n=42 v=64
272413 Off ch=10 n=35 v=64
272415 Off ch=3 n=38 v=64
272415 On ch=3 n=38 v=95
272640 Off ch=1 n=57 v=64
272640 Off ch=1 n=50 v=64
272640 On ch=1 n=57 v=95
272640 On ch=1 n=50 v=95
272640 Meta Lyric "TO"
272649 Off ch=11 n=67 v=64
272649 On ch=11 n=67 v=127
272653 On ch=10 n=42 v=95
272653 On ch=10 n=38 v=95
272653 Off ch=10 n=42 v=64
272655 Off ch=3 n=38 v=64
272655 On ch=3 n=38 v=95
272889 Off ch=11 n=67 v=64
272889 On ch=11 n=74 v=127
272892 Meta Lyric "NIGHT'S "
272893 On ch=10 n=42 v=95
272893 Off ch=10 n=42 v=64
272893 Off ch=10 n=38 v=64
272895 Off ch=3 n=38 v=64
272895 On ch=3 n=38 v=95
273120 Off ch=1 n=57 v=64
273120 Off ch=1 n=50 v=64
273120 On ch=1 n=55 v=95
273120 On ch=1 n=48 v=95
273124 Off ch=5 n=67 v=64
273124 On ch=5 n=69 v=95
273133 On ch=10 n=42 v=95
273133 On ch=10 n=35 v=95
273133 Off ch=10 n=42 v=64
273135 Off ch=3 n=38 v=64
273135 On ch=3 n=36 v=95
273289 Meta Lyric "\r"
273360 Off ch=1 n=55 v=64
273360 Off ch=1 n=48 v=64
273360 On ch=1 n=55 v=95
273360 On ch=1 n=48 v=95
273360 Meta Lyric "GO"
273369 Off ch=11 n=74 v=64
273369 On ch=11 n=71 v=127
273373 On ch=10 n=42 v=95
273373 Off ch=10 n=42 v=64
273373 Off ch=10 n=35 v=64
273375 Off ch=3 n=36 v=64
273375 On ch=3 n=36 v=95
273588 Meta Lyric "NNA "
273600 Off ch=1 n=55 v=64
273600 Off ch=1 n=48 v=64
273600 On ch=1 n=55 v=95
273600 On ch=1 n=48 v=95
273609 Off ch=11 n=71 v=64
273609 On ch=11 n=69 v=127
273613 On ch=10 n=42 v=95
273613 On ch=10 n=38 v=95
273613 Off ch=10 n=42 v=64
273615 Off ch=3 n=36 v=64
273615 On ch=3 n=36 v=95
273840 Off ch=1 n=55 v=64
273840 Off ch=1 n=48 v=64
273840 On ch=1 n=55 v=95
273840 On ch=1 n=48 v=95
273840 Meta Lyric "BE "
273849 Off ch=11 n=69 v=64
273849 On ch=11 n=67 v=127
273853 On ch=10 n=42 v=95
273853 Off ch=10 n=42 v=64
273853 Off ch=10 n=38 v=64
273855 Off ch=3 n=36 v=64
273855 On ch=3 n=36 v=95
274080 Off ch=1 n=55 v=64
274080 Off ch=1 n=48 v=64
274080 On ch=1 n=55 v=95
274080 On ch=1 n=48 v=95
274093 On ch=10 n=42 v=95
274093 On ch=10 n=35 v=95
274093 Off ch=10 n=42 v=64
274095 Off ch=3 n=36 v=64
274095 On ch=3 n=36 v=95
274209 Off ch=11 n=67 v=64
274320 Off ch=1 n=55 v=64
274320 Off ch=1 n=48 v=64
274320 On ch=1 n=55 v=95
274320 On ch=1 n=48 v=95
274320 Meta Lyric "A "
274329 On ch=11 n=64 v=127
274333 On ch=10 n=42 v=95
274333 Off ch=10 n=42 v=64
274333 Off ch=10 n=35 v=64
274335 Off ch=3 n=36 v=64
274335 On ch=3 n=36 v=95
274560 Off ch=1 n=55 v=64
274560 Off ch=1 n=48 v=64
274560 On ch=1 n=55 v=95
274560 On ch=1 n=48 v=95
274573 On ch=10 n=42 v=95
274573 On ch=10 n=38 v=95
274573 Off ch=10 n=42 v=64
274575 Off ch=3 n=36 v=64
274575 On ch=3 n=36 v=95
274800 Off ch=1 n=55 v=64
274800 Off ch=1 n=48 v=64
274800 On ch=1 n=55 v=95
274800 On ch=1 n=48 v=95
274800 Meta Lyric "GOOD "
274804 Off ch=5 n=69 v=64
274804 On ch=5 n=67 v=95
274809 Off ch=11 n=64 v=64
274809 On ch=11 n=74 v=127
274813 On ch=10 n=42 v=95
274813 Off ch=10 n=42 v=64
274813 Off ch=10 n=38 v=64
274815 Off ch=3 n=36 v=64
274815 On ch=3 n=36 v=95
275040 Off ch=1 n=55 v=64
275040 Off ch=1 n=48 v=64
275040 On ch=1 n=55 v=95
275040 On ch=1 n=48 v=95
275053 On ch=10 n=42 v=95
275053 On ch=10 n=35 v=95
275053 Off ch=10 n=42 v=64
275055 Off ch=3 n=36 v=64
275055 On ch=3 n=36 v=95
275169 Off ch=11 n=74 v=64
275280 Off ch=1 n=55 v=64
275280 Off ch=1 n=48 v=64
275280 On ch=1 n=55 v=95
275280 On ch=1 n=48 v=95
275280 Meta Lyric "GOOD "
275289 On ch=11 n=74 v=127
275293 On ch=10 n=42 v=95
275293 Off ch=10 n=42 v=64
275293 Off ch=10 n=35 v=64
275295 Off ch=3 n=36 v=64
275295 On ch=3 n=36 v=95
275520 Off ch=1 n=55 v=64
275520 Off ch=1 n=48 v=64
275520 On ch=1 n=55 v=95
275520 On ch=1 n=48 v=95
275533 On ch=10 n=42 v=95
275533 On ch=10 n=38 v=95
275533 Off ch=10 n=42 v=64
275535 Off ch=3 n=36 v=64
275535 On ch=3 n=36 v=95
275649 Off ch=11 n=74 v=64
275760 Off ch=1 n=55 v=64
275760 Off ch=1 n=48 v=64
275760 On ch=1 n=55 v=95
275760 On ch=1 n=48 v=95
275760 Meta Lyric "NIG"
275769 On ch=11 n=71 v=127
275773 On ch=10 n=42 v=95
275773 Off ch=10 n=42 v=64
275773 Off ch=10 n=38 v=64
275775 Off ch=3 n=36 v=64
275775 On ch=3 n=36 v=95
276000 Off ch=1 n=55 v=64
276000 Off ch=1 n=48 v=64
276000 On ch=1 n=55 v=95
276000 On ch=1 n=48 v=95
276009 Off ch=11 n=71 v=64
276009 On ch=11 n=69 v=127
276012 Meta Lyric "H"
276013 On ch=10 n=42 v=95
276013 On ch=10 n=35 v=95
276013 Off ch=10 n=42 v=64
276015 Off ch=3 n=36 v=64
276015 On ch=3 n=36 v=95
276240 Off ch=1 n=55 v=64
276240 Off ch=1 n=48 v=64
276240 On ch=1 n=55 v=95
276240 On ch=1 n=48 v=95
276249 Off ch=11 n=69 v=64
276249 On ch=11 n=67 v=127
276253 On ch=10 n=42 v=95
276253 Off ch=10 n=42 v=64
276253 Off ch=10 n=35 v=64
276255 Off ch=3 n=36 v=64
276255 On ch=3 n=36 v=95
276264 Meta Lyric "T "
276386 Meta Lyric "\r"
276480 Off ch=1 n=55 v=64
276480 Off ch=1 n=48 v=64
276480 On ch=1 n=55 v=95
276480 On ch=1 n=48 v=95
276489 Off ch=11 n=67 v=64
276493 On ch=10 n=42 v=95
276493 On ch=10 n=38 v=95
276493 Off ch=10 n=42 v=64
276493 Meta Lyric "A "
276495 Off ch=3 n=36 v=64
276495 On ch=3 n=36 v=95
276502 On ch=11 n=67 v=127
276720 Off ch=1 n=55 v=64
276720 Off ch=1 n=48 v=64
276720 On ch=1 n=55 v=95
276720 On ch=1 n=48 v=95
276721 Meta Lyric "FEE"
276733 On ch=10 n=42 v=95
276733 Off ch=10 n=42 v=64
276733 Off ch=10 n=38 v=64
276735 Off ch=3 n=36 v=64
276735 On ch=3 n=36 v=95
276742 On ch=11 n=72 v=127
276742 Off ch=11 n=67 v=64
276960 Off ch=1 n=55 v=64
276960 Off ch=1 n=48 v=64
276960 On ch=1 n=50 v=95
276960 On ch=1 n=43 v=95
276964 Off ch=5 n=67 v=64
276964 On ch=5 n=69 v=95
276968 On ch=7 n=62 v=95
276968 On ch=7 n=55 v=95
276973 On ch=10 n=57 v=95
276973 On ch=10 n=35 v=95
276973 Off ch=10 n=42 v=64
276973 Meta Lyric "LING "
276975 Off ch=3 n=36 v=64
276975 On ch=3 n=31 v=95
276982 On ch=11 n=71 v=125
276982 Off ch=11 n=72 v=64
277200 Off ch=1 n=50 v=64
277200 Off ch=1 n=43 v=64
277200 On ch=1 n=50 v=95
277200 On ch=1 n=43 v=95
277208 Off ch=7 n=62 v=64
277208 Off ch=7 n=55 v=64
277213 On ch=10 n=42 v=95
277213 Off ch=10 n=57 v=64
277213 Off ch=10 n=35 v=64
277215 Off ch=3 n=31 v=64
277215 On ch=3 n=31 v=95
277222 Off ch=11 n=71 v=64
277440 Off ch=1 n=50 v=64
277440 Off ch=1 n=43 v=64
277440 On ch=1 n=50 v=95
277440 On ch=1 n=43 v=95
277448 On ch=7 n=62 v=95
277448 On ch=7 n=55 v=95
277453 On ch=10 n=42 v=95
277453 On ch=10 n=38 v=95
277453 Off ch=10 n=42 v=64
277455 Off ch=3 n=31 v=64
277455 On ch=3 n=31 v=95
277680 Off ch=1 n=50 v=64
277680 Off ch=1 n=43 v=64
277680 On ch=1 n=50 v=95
277680 On ch=1 n=43 v=95
277688 Off ch=7 n=62 v=64
277688 Off ch=7 n=55 v=64
277693 On ch=10 n=42 v=95
277693 Off ch=10 n=42 v=64
277693 Off ch=10 n=38 v=64
277695 Off ch=3 n=31 v=64
277695 On ch=3 n=31 v=95
277875 Meta Lyric "\r"
277920 Off ch=1 n=50 v=64
277920 Off ch=1 n=43 v=64
277920 On ch=1 n=50 v=95
277920 On ch=1 n=43 v=95
277928 On ch=7 n=62 v=95
277928 On ch=7 n=55 v=95
277933 On ch=10 n=42 v=95
277933 On ch=10 n=35 v=95
277933 Off ch=10 n=42 v=64
277935 Off ch=3 n=31 v=64
277935 On ch=3 n=31 v=95
277946 Meta Lyric "WOO "
277955 On ch=11 n=81 v=90
278160 Off ch=1 n=50 v=64
278160 Off ch=1 n=43 v=64
278160 On ch=1 n=50 v=95
278160 On ch=1 n=43 v=95
278168 Off ch=7 n=62 v=64
278168 Off ch=7 n=55 v=64
278173 On ch=10 n=42 v=95
278173 Off ch=10 n=42 v=64
278173 Off ch=10 n=35 v=64
278175 Off ch=3 n=31 v=64
278175 On ch=3 n=31 v=95
278400 Off ch=1 n=50 v=64
278400 Off ch=1 n=43 v=64
278400 On ch=1 n=50 v=95
278400 On ch=1 n=43 v=95
278408 On ch=7 n=62 v=95
278408 On ch=7 n=55 v=95
278413 On ch=10 n=42 v=95
278413 On ch=10 n=38 v=95
278413 Off ch=10 n=42 v=64
278415 Off ch=3 n=31 v=64
278415 On ch=3 n=31 v=95
278640 Off ch=1 n=50 v=64
278640 Off ch=1 n=43 v=64
278640 On ch=1 n=50 v=95
278640 On ch=1 n=43 v=95
278644 Off ch=5 n=69 v=64
278644 On ch=5 n=67 v=95
278648 Off ch=7 n=62 v=64
278648 Off ch=7 n=55 v=64
278653 On ch=10 n=42 v=95
278653 Off ch=10 n=42 v=64
278653 Off ch=10 n=38 v=64
278655 Off ch=3 n=31 v=64
278655 On ch=3 n=31 v=95
278880 Off ch=1 n=50 v=64
278880 Off ch=1 n=43 v=64
278880 On ch=1 n=50 v=95
278880 On ch=1 n=43 v=95
278888 On ch=7 n=60 v=95
278888 On ch=7 n=55 v=95
278893 On ch=10 n=42 v=95
278893 On ch=10 n=35 v=95
278893 Off ch=10 n=42 v=64
278895 Off ch=3 n=31 v=64
278895 On ch=3 n=31 v=95
278906 Meta Lyric "HOO "
278915 Off ch=11 n=81 v=64
278915 On ch=11 n=79 v=88
279120 Off ch=1 n=50 v=64
279120 Off ch=1 n=43 v=64
279120 On ch=1 n=50 v=95
279120 On ch=1 n=43 v=95
279128 Off ch=7 n=60 v=64
279128 Off ch=7 n=55 v=64
279133 On ch=10 n=42 v=95
279133 Off ch=10 n=42 v=64
279133 Off ch=10 n=35 v=64
279135 Off ch=3 n=31 v=64
279135 On ch=3 n=31 v=95
279360 Off ch=1 n=50 v=64
279360 Off ch=1 n=43 v=64
279360 On ch=1 n=50 v=95
279360 On ch=1 n=43 v=95
279368 On ch=7 n=60 v=95
279368 On ch=7 n=55 v=95
279373 On ch=10 n=42 v=95
279373 On ch=10 n=38 v=95
279373 Off ch=10 n=42 v=64
279375 Off ch=3 n=31 v=64
279375 On ch=3 n=31 v=95
279600 Off ch=1 n=50 v=64
279600 Off ch=1 n=43 v=64
279600 On ch=1 n=50 v=95
279600 On ch=1 n=43 v=95
279608 Off ch=7 n=60 v=64
279608 Off ch=7 n=55 v=64
279613 On ch=10 n=42 v=95
279613 Off ch=10 n=42 v=64
279613 Off ch=10 n=38 v=64
279615 Off ch=3 n=31 v=64
279615 On ch=3 n=31 v=95
279635 Off ch=11 n=79 v=64
279840 Off ch=1 n=50 v=64
279840 Off ch=1 n=43 v=64
279840 On ch=1 n=50 v=95
279840 On ch=1 n=43 v=95
279848 On ch=7 n=59 v=95
279848 On ch=7 n=55 v=95
279853 On ch=10 n=42 v=95
279853 On ch=10 n=35 v=95
279853 Off ch=10 n=42 v=64
279855 Off ch=3 n=31 v=64
279855 On ch=3 n=31 v=95
279987 Meta Lyric "\r"
280080 Off ch=1 n=50 v=64
280080 Off ch=1 n=43 v=64
280080 On ch=1 n=50 v=95
280080 On ch=1 n=43 v=95
280080 Meta Lyric "THAT "
280088 Off ch=7 n=59 v=64
280088 Off ch=7 n=55 v=64
280089 On ch=11 n=67 v=127
280093 On ch=10 n=42 v=95
280093 Off ch=10 n=42 v=64
280093 Off ch=10 n=35 v=64
280095 Off ch=3 n=31 v=64
280095 On ch=3 n=31 v=95
280320 Off ch=1 n=50 v=64
280320 Off ch=1 n=43 v=64
280320 On ch=1 n=50 v=95
280320 On ch=1 n=43 v=95
280320 Meta Lyric "TO"
280328 On ch=7 n=59 v=95
280328 On ch=7 n=55 v=95
280329 Off ch=11 n=67 v=64
280329 On ch=11 n=67 v=127
280333 On ch=10 n=42 v=95
280333 On ch=10 n=38 v=95
280333 Off ch=10 n=42 v=64
280335 Off ch=3 n=31 v=64
280335 On ch=3 n=31 v=95
280560 Off ch=1 n=50 v=64
280560 Off ch=1 n=43 v=64
280560 On ch=1 n=50 v=95
280560 On ch=1 n=43 v=95
280560 Meta Lyric "NIGHT'S "
280568 Off ch=7 n=59 v=64
280568 Off ch=7 n=55 v=64
280569 Off ch=11 n=67 v=64
280569 On ch=11 n=72 v=127
280573 On ch=10 n=42 v=95
280573 Off ch=10 n=42 v=64
280573 Off ch=10 n=38 v=64
280575 Off ch=3 n=31 v=64
280575 On ch=3 n=31 v=95
280800 Off ch=1 n=50 v=64
280800 Off ch=1 n=43 v=64
280800 On ch=1 n=55 v=95
280800 On ch=1 n=48 v=95
280804 Off ch=5 n=67 v=64
280804 On ch=5 n=69 v=95
280808 On ch=7 n=60 v=95
280808 On ch=7 n=55 v=95
280813 On ch=10 n=42 v=95
280813 On ch=10 n=35 v=95
280813 Off ch=10 n=42 v=64
280815 Off ch=3 n=31 v=64
280815 On ch=3 n=36 v=95
280947 Meta Lyric "\r"
281040 Off ch=1 n=55 v=64
281040 Off ch=1 n=48 v=64
281040 On ch=1 n=55 v=95
281040 On ch=1 n=48 v=95
281040 Meta Lyric "GO"
281048 Off ch=7 n=60 v=64
281048 Off ch=7 n=55 v=64
281049 Off ch=11 n=72 v=64
281049 On ch=11 n=71 v=127
281053 On ch=10 n=42 v=95
281053 Off ch=10 n=42 v=64
281053 Off ch=10 n=35 v=64
281055 Off ch=3 n=36 v=64
281055 On ch=3 n=36 v=95
281280 Off ch=1 n=55 v=64
281280 Off ch=1 n=48 v=64
281280 On ch=1 n=55 v=95
281280 On ch=1 n=48 v=95
281280 Meta Lyric "NNA "
281288 On ch=7 n=60 v=95
281288 On ch=7 n=55 v=95
281289 Off ch=11 n=71 v=64
281289 On ch=11 n=69 v=127
281293 On ch=10 n=42 v=95
281293 On ch=10 n=38 v=95
281293 Off ch=10 n=42 v=64
281295 Off ch=3 n=36 v=64
281295 On ch=3 n=36 v=95
281520 Off ch=1 n=55 v=64
281520 Off ch=1 n=48 v=64
281520 On ch=1 n=55 v=95
281520 On ch=1 n=48 v=95
281520 Meta Lyric "BE "
281528 Off ch=7 n=60 v=64
281528 Off ch=7 n=55 v=64
281529 Off ch=11 n=69 v=64
281529 On ch=11 n=67 v=127
281533 On ch=10 n=42 v=95
281533 Off ch=10 n=42 v=64
281533 Off ch=10 n=38 v=64
281535 Off ch=3 n=36 v=64
281535 On ch=3 n=36 v=95
281760 Off ch=1 n=55 v=64
281760 Off ch=1 n=48 v=64
281760 On ch=1 n=55 v=95
281760 On ch=1 n=48 v=95
281768 On ch=7 n=60 v=95
281768 On ch=7 n=55 v=95
281773 On ch=10 n=42 v=95
281773 On ch=10 n=35 v=95
281773 Off ch=10 n=42 v=64
281775 Off ch=3 n=36 v=64
281775 On ch=3 n=36 v=95
281889 Off ch=11 n=67 v=64
282000 Off ch=1 n=55 v=64
282000 Off ch=1 n=48 v=64
282000 On ch=1 n=55 v=95
282000 On ch=1 n=48 v=95
282000 Meta Lyric "A "
282008 Off ch=7 n=60 v=64
282008 Off ch=7 n=55 v=64
282009 On ch=11 n=64 v=127
282013 On ch=10 n=42 v=95
282013 Off ch=10 n=42 v=64
282013 Off ch=10 n=35 v=64
282015 Off ch=3 n=36 v=64
282015 On ch=3 n=36 v=95
282240 Off ch=1 n=55 v=64
282240 Off ch=1 n=48 v=64
282240 On ch=1 n=55 v=95
282240 On ch=1 n=48 v=95
282248 On ch=7 n=60 v=95
282248 On ch=7 n=55 v=95
282253 On ch=10 n=42 v=95
282253 On ch=10 n=38 v=95
282253 Off ch=10 n=42 v=64
282255 Off ch=3 n=36 v=64
282255 On ch=3 n=36 v=95
282480 Off ch=1 n=55 v=64
282480 Off ch=1 n=48 v=64
282480 On ch=1 n=55 v=95
282480 On ch=1 n=48 v=95
282480 Meta Lyric "GOOD "
282484 Off ch=5 n=69 v=64
282484 On ch=5 n=67 v=95
282488 Off ch=7 n=60 v=64
282488 Off ch=7 n=55 v=64
282489 Off ch=11 n=64 v=64
282489 On ch=11 n=72 v=127
282493 On ch=10 n=42 v=95
282493 Off ch=10 n=42 v=64
282493 Off ch=10 n=38 v=64
282495 Off ch=3 n=36 v=64
282495 On ch=3 n=36 v=95
282720 Off ch=1 n=55 v=64
282720 Off ch=1 n=48 v=64
282720 On ch=1 n=55 v=95
282720 On ch=1 n=48 v=95
282728 On ch=7 n=60 v=95
282728 On ch=7 n=55 v=95
282733 On ch=10 n=42 v=95
282733 On ch=10 n=35 v=95
282733 Off ch=10 n=42 v=64
282735 Off ch=3 n=36 v=64
282735 On ch=3 n=36 v=95
282960 Off ch=1 n=55 v=64
282960 Off ch=1 n=48 v=64
282960 On ch=1 n=55 v=95
282960 On ch=1 n=48 v=95
282960 Meta Lyric "NIGHT "
282968 Off ch=7 n=60 v=64
282968 Off ch=7 n=55 v=64
282969 Off ch=11 n=72 v=64
282969 On ch=11 n=71 v=127
282973 On ch=10 n=42 v=95
282973 Off ch=10 n=42 v=64
282973 Off ch=10 n=35 v=64
282975 Off ch=3 n=36 v=64
282975 On ch=3 n=36 v=95
283200 Off ch=1 n=55 v=64
283200 Off ch=1 n=48 v=64
283200 On ch=1 n=55 v=95
283200 On ch=1 n=48 v=95
283208 On ch=7 n=60 v=95
283208 On ch=7 n=55 v=95
283209 Off ch=11 n=71 v=64
283213 On ch=10 n=42 v=95
283213 On ch=10 n=38 v=95
283213 Off ch=10 n=42 v=64
283215 Off ch=3 n=36 v=64
283215 On ch=3 n=36 v=95
283407 Meta Lyric "\r"
283440 Off ch=1 n=55 v=64
283440 Off ch=1 n=48 v=64
283440 On ch=1 n=55 v=95
283440 On ch=1 n=48 v=95
283448 Off ch=7 n=60 v=64
283448 Off ch=7 n=55 v=64
283453 On ch=10 n=42 v=95
283453 Off ch=10 n=42 v=64
283453 Off ch=10 n=38 v=64
283455 Off ch=3 n=36 v=64
283455 On ch=3 n=36 v=95
283680 Off ch=1 n=55 v=64
283680 Off ch=1 n=48 v=64
283680 On ch=1 n=55 v=95
283680 On ch=1 n=48 v=95
283684 Off ch=5 n=67 v=64
283684 On ch=5 n=72 v=95
283688 On ch=7 n=60 v=95
283688 On ch=7 n=55 v=95
283693 On ch=10 n=42 v=95
283693 On ch=10 n=35 v=95
283693 Off ch=10 n=42 v=64
283695 Off ch=3 n=36 v=64
283695 On ch=3 n=38 v=95
283907 Meta Lyric "THAT "
283916 On ch=11 n=67 v=127
283920 Off ch=1 n=55 v=64
283920 Off ch=1 n=48 v=64
283920 On ch=1 n=57 v=95
283920 On ch=1 n=50 v=95
283928 Off ch=7 n=60 v=64
283928 Off ch=7 n=55 v=64
283933 On ch=10 n=42 v=95
283933 Off ch=10 n=42 v=64
283933 Off ch=10 n=35 v=64
283935 Off ch=3 n=38 v=64
283935 On ch=3 n=38 v=95
284147 Meta Lyric "TO"
284156 Off ch=11 n=67 v=64
284156 On ch=11 n=67 v=127
284160 Off ch=1 n=57 v=64
284160 Off ch=1 n=50 v=64
284160 On ch=1 n=57 v=95
284160 On ch=1 n=50 v=95
284168 On ch=7 n=60 v=95
284168 On ch=7 n=55 v=95
284173 On ch=10 n=42 v=95
284173 On ch=10 n=38 v=95
284173 Off ch=10 n=42 v=64
284175 Off ch=3 n=38 v=64
284175 On ch=3 n=38 v=95
284396 Off ch=11 n=67 v=64
284396 On ch=11 n=72 v=127
284399 Meta Lyric "NIGHT'S "
284400 On ch=1 n=57 v=95
284400 On ch=1 n=50 v=95
284400 Off ch=1 n=57 v=64
284400 Off ch=1 n=50 v=64
284408 Off ch=7 n=60 v=64
284408 Off ch=7 n=55 v=64
284413 On ch=10 n=42 v=95
284413 Off ch=10 n=42 v=64
284413 Off ch=10 n=38 v=64
284415 Off ch=3 n=38 v=64
284415 On ch=3 n=38 v=95
284640 On ch=1 n=59 v=95
284640 On ch=1 n=52 v=95
284640 Off ch=1 n=57 v=64
284640 Off ch=1 n=50 v=64
284644 Off ch=5 n=72 v=64
284644 On ch=5 n=69 v=95
284648 On ch=7 n=59 v=95
284648 On ch=7 n=55 v=95
284653 On ch=10 n=42 v=95
284653 On ch=10 n=35 v=95
284653 Off ch=10 n=42 v=64
284655 Off ch=3 n=38 v=64
284655 On ch=3 n=40 v=95
284802 Meta Lyric "\r"
284867 Meta Lyric "GO"
284876 Off ch=11 n=72 v=64
284876 On ch=11 n=71 v=127
284880 On ch=1 n=59 v=95
284880 On ch=1 n=52 v=95
284880 Off ch=1 n=59 v=64
284880 Off ch=1 n=52 v=64
284888 Off ch=7 n=59 v=64
284888 Off ch=7 n=55 v=64
284893 On ch=10 n=42 v=95
284893 Off ch=10 n=42 v=64
284893 Off ch=10 n=35 v=64
284895 Off ch=3 n=40 v=64
284895 On ch=3 n=40 v=95
285116 Off ch=11 n=71 v=64
285116 On ch=11 n=69 v=127
285120 On ch=1 n=59 v=95
285120 On ch=1 n=52 v=95
285120 Off ch=1 n=59 v=64
285120 Off ch=1 n=52 v=64
285128 On ch=7 n=59 v=95
285128 On ch=7 n=55 v=95
285131 Meta Lyric "NNA "
285133 On ch=10 n=42 v=95
285133 On ch=10 n=38 v=95
285133 Off ch=10 n=42 v=64
285135 Off ch=3 n=40 v=64
285135 On ch=3 n=40 v=95
285347 Meta Lyric "BE "
285356 Off ch=11 n=69 v=64
285356 On ch=11 n=67 v=127
285360 On ch=1 n=59 v=95
285360 On ch=1 n=52 v=95
285360 Off ch=1 n=59 v=64
285360 Off ch=1 n=52 v=64
285368 Off ch=7 n=59 v=64
285368 Off ch=7 n=55 v=64
285373 On ch=10 n=42 v=95
285373 Off ch=10 n=42 v=64
285373 Off ch=10 n=38 v=64
285375 Off ch=3 n=40 v=64
285375 On ch=3 n=40 v=95
285600 On ch=1 n=59 v=95
285600 On ch=1 n=52 v=95
285600 Off ch=1 n=59 v=64
285600 Off ch=1 n=52 v=64
285608 On ch=7 n=59 v=95
285608 On ch=7 n=55 v=95
285613 On ch=10 n=42 v=95
285613 On ch=10 n=35 v=95
285613 Off ch=10 n=42 v=64
285615 Off ch=3 n=40 v=64
285615 On ch=3 n=40 v=95
285716 Off ch=11 n=67 v=64
285827 Meta Lyric "A "
285836 On ch=11 n=64 v=127
285840 On ch=1 n=59 v=95
285840 On ch=1 n=52 v=95
285840 Off ch=1 n=59 v=64
285840 Off ch=1 n=52 v=64
285848 Off ch=7 n=59 v=64
285848 Off ch=7 n=55 v=64
285853 On ch=10 n=42 v=95
285853 Off ch=10 n=42 v=64
285853 Off ch=10 n=35 v=64
285855 Off ch=3 n=40 v=64
285855 On ch=3 n=40 v=95
286080 On ch=1 n=59 v=95
286080 On ch=1 n=52 v=95
286080 Off ch=1 n=59 v=64
286080 Off ch=1 n=52 v=64
286088 On ch=7 n=59 v=95
286088 On ch=7 n=55 v=95
286093 On ch=10 n=42 v=95
286093 On ch=10 n=38 v=95
286093 Off ch=10 n=42 v=64
286095 Off ch=3 n=40 v=64
286095 On ch=3 n=40 v=95
286307 Meta Lyric "GOOD "
286316 Off ch=11 n=64 v=64
286316 On ch=11 n=74 v=127
286320 On ch=1 n=59 v=95
286320 On ch=1 n=52 v=95
286320 Off ch=1 n=59 v=64
286320 Off ch=1 n=52 v=64
286324 Off ch=5 n=69 v=64
286324 On ch=5 n=67 v=95
286328 Off ch=7 n=59 v=64
286328 Off ch=7 n=55 v=64
286333 On ch=10 n=42 v=95
286333 Off ch=10 n=42 v=64
286333 Off ch=10 n=38 v=64
286335 Off ch=3 n=40 v=64
286335 On ch=3 n=40 v=95
286560 On ch=1 n=59 v=95
286560 On ch=1 n=52 v=95
286560 Off ch=1 n=59 v=64
286560 Off ch=1 n=52 v=64
286568 On ch=7 n=59 v=95
286568 On ch=7 n=55 v=95
286573 On ch=10 n=42 v=95
286573 On ch=10 n=35 v=95
286573 Off ch=10 n=42 v=64
286575 Off ch=3 n=40 v=64
286575 On ch=3 n=40 v=95
286787 Meta Lyric "NIGHT "
286796 Off ch=11 n=74 v=64
286796 On ch=11 n=71 v=127
286800 On ch=1 n=59 v=95
286800 On ch=1 n=52 v=95
286800 Off ch=1 n=59 v=64
286800 Off ch=1 n=52 v=64
286808 Off ch=7 n=59 v=64
286808 Off ch=7 n=55 v=64
286813 On ch=10 n=42 v=95
286813 Off ch=10 n=42 v=64
286813 Off ch=10 n=35 v=64
286815 Off ch=3 n=40 v=64
286815 On ch=3 n=40 v=95
287036 Off ch=11 n=71 v=64
287040 On ch=1 n=59 v=95
287040 On ch=1 n=52 v=95
287040 Off ch=1 n=59 v=64
287040 Off ch=1 n=52 v=64
287048 On ch=7 n=59 v=95
287048 On ch=7 n=55 v=95
287053 On ch=10 n=42 v=95
287053 On ch=10 n=38 v=95
287053 Off ch=10 n=42 v=64
287055 Off ch=3 n=40 v=64
287055 On ch=3 n=40 v=95
287280 On ch=1 n=59 v=95
287280 On ch=1 n=52 v=95
287280 Off ch=1 n=59 v=64
287280 Off ch=1 n=52 v=64
287288 Off ch=7 n=59 v=64
287288 Off ch=7 n=55 v=64
287293 On ch=10 n=42 v=95
287293 Off ch=10 n=42 v=64
287293 Off ch=10 n=38 v=64
287295 Off ch=3 n=40 v=64
287295 On ch=3 n=40 v=95
287315 Meta Lyric "\r"
287520 On ch=1 n=59 v=95
287520 On ch=1 n=52 v=95
287520 Off ch=1 n=59 v=64
287520 Off ch=1 n=52 v=64
287528 On ch=7 n=59 v=95
287528 On ch=7 n=55 v=95
287533 On ch=10 n=42 v=95
287533 On ch=10 n=35 v=95
287533 Off ch=10 n=42 v=64
287535 Off ch=3 n=40 v=64
287535 On ch=3 n=38 v=95
287747 Meta Lyric "THAT "
287756 On ch=11 n=67 v=127
287760 On ch=1 n=57 v=95
287760 On ch=1 n=50 v=95
287760 Off ch=1 n=59 v=64
287760 Off ch=1 n=52 v=64
287768 Off ch=7 n=59 v=64
287768 Off ch=7 n=55 v=64
287773 On ch=10 n=42 v=95
287773 Off ch=10 n=42 v=64
287773 Off ch=10 n=35 v=64
287775 Off ch=3 n=38 v=64
287775 On ch=3 n=38 v=95
287987 Meta Lyric "TO"
287996 Off ch=11 n=67 v=64
287996 On ch=11 n=67 v=127
288000 On ch=1 n=57 v=95
288000 On ch=1 n=50 v=95
288000 Off ch=1 n=57 v=64
288000 Off ch=1 n=50 v=64
288008 On ch=7 n=59 v=95
288008 On ch=7 n=55 v=95
288013 On ch=10 n=42 v=95
288013 On ch=10 n=38 v=95
288013 Off ch=10 n=42 v=64
288015 Off ch=3 n=38 v=64
288015 On ch=3 n=38 v=95
288236 Off ch=11 n=67 v=64
288236 On ch=11 n=74 v=127
288248 Off ch=7 n=59 v=64
288248 Off ch=7 n=55 v=64
288251 Meta Lyric "NIGHT'S "
288253 On ch=10 n=42 v=95
288253 Off ch=10 n=42 v=64
288253 Off ch=10 n=38 v=64
288255 Off ch=3 n=38 v=64
288255 On ch=3 n=38 v=95
288480 On ch=1 n=55 v=95
288480 On ch=1 n=48 v=95
288480 Off ch=1 n=57 v=64
288480 Off ch=1 n=50 v=64
288484 Off ch=5 n=67 v=64
288484 On ch=5 n=69 v=95
288488 On ch=7 n=60 v=95
288488 On ch=7 n=55 v=95
288493 On ch=10 n=42 v=95
288493 On ch=10 n=35 v=95
288493 Off ch=10 n=42 v=64
288495 Off ch=3 n=38 v=64
288495 On ch=3 n=36 v=95
288533 Meta Lyric "\r"
288707 Meta Lyric "GO"
288716 Off ch=11 n=74 v=64
288716 On ch=11 n=71 v=127
288720 On ch=1 n=55 v=95
288720 On ch=1 n=48 v=95
288720 Off ch=1 n=55 v=64
288720 Off ch=1 n=48 v=64
288728 Off ch=7 n=60 v=64
288728 Off ch=7 n=55 v=64
288733 On ch=10 n=42 v=95
288733 Off ch=10 n=42 v=64
288733 Off ch=10 n=35 v=64
288735 Off ch=3 n=36 v=64
288735 On ch=3 n=36 v=95
288956 Off ch=11 n=71 v=64
288956 On ch=11 n=69 v=127
288959 Meta Lyric "NNA "
288960 On ch=1 n=55 v=95
288960 On ch=1 n=48 v=95
288960 Off ch=1 n=55 v=64
288960 Off ch=1 n=48 v=64
288968 On ch=7 n=60 v=95
288968 On ch=7 n=55 v=95
288973 On ch=10 n=42 v=95
288973 On ch=10 n=38 v=95
288973 Off ch=10 n=42 v=64
288975 Off ch=3 n=36 v=64
288975 On ch=3 n=36 v=95
289187 Meta Lyric "BE "
289196 Off ch=11 n=69 v=64
289196 On ch=11 n=67 v=127
289200 On ch=1 n=55 v=95
289200 On ch=1 n=48 v=95
289200 Off ch=1 n=55 v=64
289200 Off ch=1 n=48 v=64
289208 Off ch=7 n=60 v=64
289208 Off ch=7 n=55 v=64
289213 On ch=10 n=42 v=95
289213 Off ch=10 n=42 v=64
289213 Off ch=10 n=38 v=64
289215 Off ch=3 n=36 v=64
289215 On ch=3 n=36 v=95
289440 On ch=1 n=55 v=95
289440 On ch=1 n=48 v=95
289440 Off ch=1 n=55 v=64
289440 Off ch=1 n=48 v=64
289448 On ch=7 n=60 v=95
289448 On ch=7 n=55 v=95
289453 On ch=10 n=42 v=95
289453 On ch=10 n=35 v=95
289453 Off ch=10 n=42 v=64
289455 Off ch=3 n=36 v=64
289455 On ch=3 n=36 v=95
289556 Off ch=11 n=67 v=64
289667 Meta Lyric "A "
289676 On ch=11 n=64 v=127
289680 On ch=1 n=55 v=95
289680 On ch=1 n=48 v=95
289680 Off ch=1 n=55 v=64
289680 Off ch=1 n=48 v=64
289688 Off ch=7 n=60 v=64
289688 Off ch=7 n=55 v=64
289693 On ch=10 n=42 v=95
289693 Off ch=10 n=42 v=64
289693 Off ch=10 n=35 v=64
289695 Off ch=3 n=36 v=64
289695 On ch=3 n=36 v=95
289920 On ch=1 n=55 v=95
289920 On ch=1 n=48 v=95
289920 Off ch=1 n=55 v=64
289920 Off ch=1 n=48 v=64
289928 On ch=7 n=60 v=95
289928 On ch=7 n=55 v=95
289933 On ch=10 n=42 v=95
289933 On ch=10 n=38 v=95
289933 Off ch=10 n=42 v=64
289935 Off ch=3 n=36 v=64
289935 On ch=3 n=36 v=95
290147 Meta Lyric "GOOD "
290156 Off ch=11 n=64 v=64
290156 On ch=11 n=74 v=127
290160 On ch=1 n=55 v=95
290160 On ch=1 n=48 v=95
290160 Off ch=1 n=55 v=64
290160 Off ch=1 n=48 v=64
290164 Off ch=5 n=69 v=64
290164 On ch=5 n=67 v=95
290168 Off ch=7 n=60 v=64
290168 Off ch=7 n=55 v=64
290173 On ch=10 n=42 v=95
290173 Off ch=10 n=42 v=64
290173 Off ch=10 n=38 v=64
290175 Off ch=3 n=36 v=64
290175 On ch=3 n=36 v=95
290400 On ch=1 n=55 v=95
290400 On ch=1 n=48 v=95
290400 Off ch=1 n=55 v=64
290400 Off ch=1 n=48 v=64
290408 On ch=7 n=60 v=95
290408 On ch=7 n=55 v=95
290413 On ch=10 n=42 v=95
290413 On ch=10 n=35 v=95
290413 Off ch=10 n=42 v=64
290415 Off ch=3 n=36 v=64
290415 On ch=3 n=36 v=95
290516 Off ch=11 n=74 v=64
290627 Meta Lyric "GOOD "
290636 On ch=11 n=74 v=127
290640 On ch=1 n=55 v=95
290640 On ch=1 n=48 v=95
290640 Off ch=1 n=55 v=64
290640 Off ch=1 n=48 v=64
290648 Off ch=7 n=60 v=64
290648 Off ch=7 n=55 v=64
290653 On ch=10 n=42 v=95
290653 Off ch=10 n=42 v=64
290653 Off ch=10 n=35 v=64
290655 Off ch=3 n=36 v=64
290655 On ch=3 n=36 v=95
290880 On ch=1 n=55 v=95
290880 On ch=1 n=48 v=95
290880 Off ch=1 n=55 v=64
290880 Off ch=1 n=48 v=64
290888 On ch=7 n=60 v=95
290888 On ch=7 n=55 v=95
290893 On ch=10 n=42 v=95
290893 On ch=10 n=38 v=95
290893 Off ch=10 n=42 v=64
290895 Off ch=3 n=36 v=64
290895 On ch=3 n=36 v=95
290996 Off ch=11 n=74 v=64
291107 Meta Lyric "NIG"
291116 On ch=11 n=71 v=127
291120 On ch=1 n=55 v=95
291120 On ch=1 n=48 v=95
291120 Off ch=1 n=55 v=64
291120 Off ch=1 n=48 v=64
291128 Off ch=7 n=60 v=64
291128 Off ch=7 n=55 v=64
291133 On ch=10 n=42 v=95
291133 Off ch=10 n=42 v=64
291133 Off ch=10 n=38 v=64
291135 Off ch=3 n=36 v=64
291135 On ch=3 n=36 v=95
291356 Off ch=11 n=71 v=64
291356 On ch=11 n=69 v=127
291359 Meta Lyric "H"
291360 On ch=1 n=55 v=95
291360 On ch=1 n=48 v=95
291360 Off ch=1 n=55 v=64
291360 Off ch=1 n=48 v=64
291368 On ch=7 n=60 v=95
291368 On ch=7 n=55 v=95
291373 On ch=10 n=42 v=95
291373 On ch=10 n=35 v=95
291373 Off ch=10 n=42 v=64
291375 Off ch=3 n=36 v=64
291375 On ch=3 n=36 v=95
291596 Off ch=11 n=69 v=64
291596 On ch=11 n=67 v=127
291600 On ch=1 n=55 v=95
291600 On ch=1 n=48 v=95
291600 Off ch=1 n=55 v=64
291600 Off ch=1 n=48 v=64
291608 Off ch=7 n=60 v=64
291608 Off ch=7 n=55 v=64
291611 Meta Lyric "T"
291613 On ch=10 n=42 v=95
291613 Off ch=10 n=42 v=64
291613 Off ch=10 n=35 v=64
291615 Off ch=3 n=36 v=64
291615 On ch=3 n=36 v=95
291785 Meta Lyric "\r"
291836 Off ch=11 n=67 v=64
291840 On ch=1 n=55 v=95
291840 On ch=1 n=48 v=95
291840 Off ch=1 n=55 v=64
291840 Off ch=1 n=48 v=64
291840 Meta Lyric "A "
291848 On ch=7 n=60 v=95
291848 On ch=7 n=55 v=95
291849 On ch=11 n=67 v=127
291853 On ch=10 n=42 v=95
291853 On ch=10 n=38 v=95
291853 Off ch=10 n=42 v=64
291855 Off ch=3 n=36 v=64
291855 On ch=3 n=36 v=95
292080 On ch=1 n=55 v=95
292080 On ch=1 n=48 v=95
292080 Off ch=1 n=55 v=64
292080 Off ch=1 n=48 v=64
292080 Meta Lyric "FEE"
292088 Off ch=7 n=60 v=64
292088 Off ch=7 n=55 v=64
292089 Off ch=11 n=67 v=64
292089 On ch=11 n=72 v=127
292093 On ch=10 n=42 v=95
292093 Off ch=10 n=42 v=64
292093 Off ch=10 n=38 v=64
292095 Off ch=3 n=36 v=64
292095 On ch=3 n=36 v=95
292320 On ch=1 n=50 v=95
292320 On ch=1 n=43 v=95
292320 Off ch=1 n=55 v=64
292320 Off ch=1 n=48 v=64
292320 Meta Lyric "LING "
292324 Off ch=5 n=67 v=64
292324 On ch=5 n=69 v=95
292329 Off ch=11 n=72 v=64
292329 On ch=11 n=71 v=127
292333 On ch=10 n=57 v=95
292333 On ch=10 n=35 v=95
292333 Off ch=10 n=42 v=64
292335 Off ch=3 n=36 v=64
292335 On ch=3 n=31 v=95
292560 On ch=1 n=50 v=95
292560 On ch=1 n=43 v=95
292560 Off ch=1 n=50 v=64
292560 Off ch=1 n=43 v=64
292569 Off ch=11 n=71 v=64
292573 On ch=10 n=42 v=95
292573 Off ch=10 n=57 v=64
292573 Off ch=10 n=35 v=64
292575 Off ch=3 n=31 v=64
292575 On ch=3 n=31 v=95
292800 On ch=1 n=50 v=95
292800 On ch=1 n=43 v=95
292800 Off ch=1 n=50 v=64
292800 Off ch=1 n=43 v=64
292813 On ch=10 n=42 v=95
292813 On ch=10 n=38 v=95
292813 Off ch=10 n=42 v=64
292815 Off ch=3 n=31 v=64
292815 On ch=3 n=31 v=95
292985 Meta Lyric "\r"
293040 On ch=1 n=50 v=95
293040 On ch=1 n=43 v=95
293040 Off ch=1 n=50 v=64
293040 Off ch=1 n=43 v=64
293053 On ch=10 n=42 v=95
293053 Off ch=10 n=42 v=64
293053 Off ch=10 n=38 v=64
293055 Off ch=3 n=31 v=64
293055 On ch=3 n=31 v=95
293280 On ch=1 n=50 v=95
293280 On ch=1 n=43 v=95
293280 Off ch=1 n=50 v=64
293280 Off ch=1 n=43 v=64
293280 Meta Lyric "WOO "
293289 On ch=11 n=81 v=87
293293 On ch=10 n=42 v=95
293293 On ch=10 n=35 v=95
293293 Off ch=10 n=42 v=64
293295 Off ch=3 n=31 v=64
293295 On ch=3 n=31 v=95
293520 On ch=1 n=50 v=95
293520 On ch=1 n=43 v=95
293520 Off ch=1 n=50 v=64
293520 Off ch=1 n=43 v=64
293533 On ch=10 n=42 v=95
293533 Off ch=10 n=42 v=64
293533 Off ch=10 n=35 v=64
293535 Off ch=3 n=31 v=64
293535 On ch=3 n=31 v=95
293760 On ch=1 n=50 v=95
293760 On ch=1 n=43 v=95
293760 Off ch=1 n=50 v=64
293760 Off ch=1 n=43 v=64
293773 On ch=10 n=42 v=95
293773 On ch=10 n=38 v=95
293773 Off ch=10 n=42 v=64
293775 Off ch=3 n=31 v=64
293775 On ch=3 n=31 v=95
294000 On ch=1 n=50 v=95
294000 On ch=1 n=43 v=95
294000 Off ch=1 n=50 v=64
294000 Off ch=1 n=43 v=64
294004 Off ch=5 n=69 v=64
294004 On ch=5 n=67 v=95
294013 On ch=10 n=42 v=95
294013 Off ch=10 n=42 v=64
294013 Off ch=10 n=38 v=64
294015 Off ch=3 n=31 v=64
294015 On ch=3 n=31 v=95
294240 On ch=1 n=50 v=95
294240 On ch=1 n=43 v=95
294240 Off ch=1 n=50 v=64
294240 Off ch=1 n=43 v=64
294240 Meta Lyric "HOO "
294249 Off ch=11 n=81 v=64
294249 On ch=11 n=79 v=87
294253 On ch=10 n=42 v=95
294253 On ch=10 n=35 v=95
294253 Off ch=10 n=42 v=64
294255 Off ch=3 n=31 v=64
294255 On ch=3 n=31 v=95
294480 On ch=1 n=50 v=95
294480 On ch=1 n=43 v=95
294480 Off ch=1 n=50 v=64
294480 Off ch=1 n=43 v=64
294493 On ch=10 n=42 v=95
294493 Off ch=10 n=42 v=64
294493 Off ch=10 n=35 v=64
294495 Off ch=3 n=31 v=64
294495 On ch=3 n=31 v=95
294720 On ch=1 n=50 v=95
294720 On ch=1 n=43 v=95
294720 Off ch=1 n=50 v=64
294720 Off ch=1 n=43 v=64
294733 On ch=10 n=42 v=95
294733 On ch=10 n=38 v=95
294733 Off ch=10 n=42 v=64
294735 Off ch=3 n=31 v=64
294735 On ch=3 n=31 v=95
294960 On ch=1 n=50 v=95
294960 On ch=1 n=43 v=95
294960 Off ch=1 n=50 v=64
294960 Off ch=1 n=43 v=64
294969 Off ch=11 n=79 v=64
294973 On ch=10 n=42 v=95
294973 Off ch=10 n=42 v=64
294973 Off ch=10 n=38 v=64
294975 Off ch=3 n=31 v=64
294975 On ch=3 n=31 v=95
295133 Meta Lyric "\r"
295200 On ch=1 n=50 v=95
295200 On ch=1 n=43 v=95
295200 Off ch=1 n=50 v=64
295200 Off ch=1 n=43 v=64
295213 On ch=10 n=42 v=95
295213 On ch=10 n=35 v=95
295213 Off ch=10 n=42 v=64
295215 Off ch=3 n=31 v=64
295215 On ch=3 n=31 v=95
295440 On ch=1 n=50 v=95
295440 On ch=1 n=43 v=95
295440 Off ch=1 n=50 v=64
295440 Off ch=1 n=43 v=64
295440 Meta Lyric "THAT "
295449 On ch=11 n=67 v=127
295453 On ch=10 n=42 v=95
295453 Off ch=10 n=42 v=64
295453 Off ch=10 n=35 v=64
295455 Off ch=3 n=31 v=64
295455 On ch=3 n=31 v=95
295680 On ch=1 n=50 v=95
295680 On ch=1 n=43 v=95
295680 Off ch=1 n=50 v=64
295680 Off ch=1 n=43 v=64
295680 Meta Lyric "TO"
295689 Off ch=11 n=67 v=64
295689 On ch=11 n=67 v=127
295693 On ch=10 n=42 v=95
295693 On ch=10 n=38 v=95
295693 Off ch=10 n=42 v=64
295695 Off ch=3 n=31 v=64
295695 On ch=3 n=31 v=95
295920 On ch=1 n=50 v=95
295920 On ch=1 n=43 v=95
295920 Off ch=1 n=50 v=64
295920 Off ch=1 n=43 v=64
295929 Off ch=11 n=67 v=64
295929 On ch=11 n=72 v=127
295932 Meta Lyric "NIGHT'S"
295933 On ch=10 n=42 v=95
295933 Off ch=10 n=42 v=64
295933 Off ch=10 n=38 v=64
295935 Off ch=3 n=31 v=64
295935 On ch=3 n=31 v=95
296160 On ch=1 n=55 v=95
296160 On ch=1 n=48 v=95
296160 Off ch=1 n=50 v=64
296160 Off ch=1 n=43 v=64
296164 Off ch=5 n=67 v=64
296164 On ch=5 n=69 v=95
296173 On ch=10 n=42 v=95
296173 On ch=10 n=35 v=95
296173 Off ch=10 n=42 v=64
296175 Off ch=3 n=31 v=64
296175 On ch=3 n=36 v=95
296201 Meta Lyric "\r"
296400 On ch=1 n=55 v=95
296400 On ch=1 n=48 v=95
296400 Off ch=1 n=55 v=64
296400 Off ch=1 n=48 v=64
296400 Meta Lyric "GO"
296409 Off ch=11 n=72 v=64
296409 On ch=11 n=71 v=127
296413 On ch=10 n=42 v=95
296413 Off ch=10 n=42 v=64
296413 Off ch=10 n=35 v=64
296415 Off ch=3 n=36 v=64
296415 On ch=3 n=36 v=95
296640 On ch=1 n=55 v=95
296640 On ch=1 n=48 v=95
296640 Off ch=1 n=55 v=64
296640 Off ch=1 n=48 v=64
296640 Meta Lyric "NNA "
296649 Off ch=11 n=71 v=64
296649 On ch=11 n=69 v=127
296653 On ch=10 n=42 v=95
296653 On ch=10 n=38 v=95
296653 Off ch=10 n=42 v=64
296655 Off ch=3 n=36 v=64
296655 On ch=3 n=36 v=95
296880 On ch=1 n=55 v=95
296880 On ch=1 n=48 v=95
296880 Off ch=1 n=55 v=64
296880 Off ch=1 n=48 v=64
296880 Meta Lyric "BE "
296889 Off ch=11 n=69 v=64
296889 On ch=11 n=67 v=127
296893 On ch=10 n=42 v=95
296893 Off ch=10 n=42 v=64
296893 Off ch=10 n=38 v=64
296895 Off ch=3 n=36 v=64
296895 On ch=3 n=36 v=95
297120 On ch=1 n=55 v=95
297120 On ch=1 n=48 v=95
297120 Off ch=1 n=55 v=64
297120 Off ch=1 n=48 v=64
297133 On ch=10 n=42 v=95
297133 On ch=10 n=35 v=95
297133 Off ch=10 n=42 v=64
297135 Off ch=3 n=36 v=64
297135 On ch=3 n=36 v=95
297249 Off ch=11 n=67 v=64
297360 On ch=1 n=55 v=95
297360 On ch=1 n=48 v=95
297360 Off ch=1 n=55 v=64
297360 Off ch=1 n=48 v=64
297360 Meta Lyric "A "
297369 On ch=11 n=64 v=127
297373 On ch=10 n=42 v=95
297373 Off ch=10 n=42 v=64
297373 Off ch=10 n=35 v=64
297375 Off ch=3 n=36 v=64
297375 On ch=3 n=36 v=95
297600 On ch=1 n=55 v=95
297600 On ch=1 n=48 v=95
297600 Off ch=1 n=55 v=64
297600 Off ch=1 n=48 v=64
297613 On ch=10 n=42 v=95
297613 On ch=10 n=38 v=95
297613 Off ch=10 n=42 v=64
297615 Off ch=3 n=36 v=64
297615 On ch=3 n=36 v=95
297840 On ch=1 n=55 v=95
297840 On ch=1 n=48 v=95
297840 Off ch=1 n=55 v=64
297840 Off ch=1 n=48 v=64
297840 Meta Lyric "GOOD "
297844 Off ch=5 n=69 v=64
297844 On ch=5 n=67 v=95
297849 Off ch=11 n=64 v=64
297849 On ch=11 n=72 v=127
297853 On ch=10 n=42 v=95
297853 Off ch=10 n=42 v=64
297853 Off ch=10 n=38 v=64
297855 Off ch=3 n=36 v=64
297855 On ch=3 n=36 v=95
298080 On ch=1 n=55 v=95
298080 On ch=1 n=48 v=95
298080 Off ch=1 n=55 v=64
298080 Off ch=1 n=48 v=64
298093 On ch=10 n=42 v=95
298093 On ch=10 n=35 v=95
298093 Off ch=10 n=42 v=64
298095 Off ch=3 n=36 v=64
298095 On ch=3 n=36 v=95
298320 On ch=1 n=55 v=95
298320 On ch=1 n=48 v=95
298320 Off ch=1 n=55 v=64
298320 Off ch=1 n=48 v=64
298320 Meta Lyric "NIGHT"
298329 Off ch=11 n=72 v=64
298329 On ch=11 n=71 v=127
298333 On ch=10 n=42 v=95
298333 Off ch=10 n=42 v=64
298333 Off ch=10 n=35 v=64
298335 Off ch=3 n=36 v=64
298335 On ch=3 n=36 v=95
298529 Meta Lyric "\r"
298560 On ch=1 n=55 v=95
298560 On ch=1 n=48 v=95
298560 Off ch=1 n=55 v=64
298560 Off ch=1 n=48 v=64
298569 Off ch=11 n=71 v=64
298573 On ch=10 n=42 v=95
298573 On ch=10 n=38 v=95
298573 Off ch=10 n=42 v=64
298575 Off ch=3 n=36 v=64
298575 On ch=3 n=36 v=95
298800 On ch=1 n=55 v=95
298800 On ch=1 n=48 v=95
298800 Off ch=1 n=55 v=64
298800 Off ch=1 n=48 v=64
298813 On ch=10 n=42 v=95
298813 Off ch=10 n=42 v=64
298813 Off ch=10 n=38 v=64
298815 Off ch=3 n=36 v=64
298815 On ch=3 n=36 v=95
299040 On ch=1 n=55 v=95
299040 On ch=1 n=48 v=95
299040 Off ch=1 n=55 v=64
299040 Off ch=1 n=48 v=64
299044 Off ch=5 n=67 v=64
299044 On ch=5 n=72 v=95
299053 On ch=10 n=42 v=95
299053 On ch=10 n=35 v=95
299053 Off ch=10 n=42 v=64
299055 Off ch=3 n=36 v=64
299055 On ch=3 n=38 v=95
299267 Meta Lyric "THAT "
299276 On ch=11 n=67 v=127
299280 On ch=1 n=57 v=95
299280 On ch=1 n=50 v=95
299280 Off ch=1 n=55 v=64
299280 Off ch=1 n=48 v=64
299293 On ch=10 n=42 v=95
299293 Off ch=10 n=42 v=64
299293 Off ch=10 n=35 v=64
299295 Off ch=3 n=38 v=64
299295 On ch=3 n=38 v=95
299507 Meta Lyric "TO"
299516 Off ch=11 n=67 v=64
299516 On ch=11 n=67 v=127
299520 On ch=1 n=57 v=95
299520 On ch=1 n=50 v=95
299520 Off ch=1 n=57 v=64
299520 Off ch=1 n=50 v=64
299533 On ch=10 n=42 v=95
299533 On ch=10 n=38 v=95
299533 Off ch=10 n=42 v=64
299535 Off ch=3 n=38 v=64
299535 On ch=3 n=38 v=95
299747 Meta Lyric "NIGHT'S"
299756 Off ch=11 n=67 v=64
299756 On ch=11 n=72 v=127
299760 On ch=1 n=57 v=95
299760 On ch=1 n=50 v=95
299760 Off ch=1 n=57 v=64
299760 Off ch=1 n=50 v=64
299773 On ch=10 n=42 v=95
299773 Off ch=10 n=42 v=64
299773 Off ch=10 n=38 v=64
299775 Off ch=3 n=38 v=64
299775 On ch=3 n=38 v=95
300000 On ch=1 n=59 v=95
300000 On ch=1 n=52 v=95
300000 Off ch=1 n=57 v=64
300000 Off ch=1 n=50 v=64
300004 Off ch=5 n=72 v=64
300004 On ch=5 n=69 v=95
300013 On ch=10 n=42 v=95
300013 On ch=10 n=35 v=95
300013 Off ch=10 n=42 v=64
300015 Off ch=3 n=38 v=64
300015 On ch=3 n=40 v=95
300077 Meta Lyric "\r"
300227 Meta Lyric "GO"
300236 Off ch=11 n=72 v=64
300236 On ch=11 n=71 v=127
300240 On ch=1 n=59 v=95
300240 On ch=1 n=52 v=95
300240 Off ch=1 n=59 v=64
300240 Off ch=1 n=52 v=64
300253 On ch=10 n=42 v=95
300253 Off ch=10 n=42 v=64
300253 Off ch=10 n=35 v=64
300255 Off ch=3 n=40 v=64
300255 On ch=3 n=40 v=95
300467 Meta Lyric "NNA "
300476 Off ch=11 n=71 v=64
300476 On ch=11 n=69 v=127
300480 On ch=1 n=59 v=95
300480 On ch=1 n=52 v=95
300480 Off ch=1 n=59 v=64
300480 Off ch=1 n=52 v=64
300493 On ch=10 n=42 v=95
300493 On ch=10 n=38 v=95
300493 Off ch=10 n=42 v=64
300495 Off ch=3 n=40 v=64
300495 On ch=3 n=40 v=95
300707 Meta Lyric "BE "
300716 Off ch=11 n=69 v=64
300716 On ch=11 n=67 v=127
300720 On ch=1 n=59 v=95
300720 On ch=1 n=52 v=95
300720 Off ch=1 n=59 v=64
300720 Off ch=1 n=52 v=64
300733 On ch=10 n=42 v=95
300733 Off ch=10 n=42 v=64
300733 Off ch=10 n=38 v=64
300735 Off ch=3 n=40 v=64
300735 On ch=3 n=40 v=95
300960 On ch=1 n=59 v=95
300960 On ch=1 n=52 v=95
300960 Off ch=1 n=59 v=64
300960 Off ch=1 n=52 v=64
300973 On ch=10 n=42 v=95
300973 On ch=10 n=35 v=95
300973 Off ch=10 n=42 v=64
300975 Off ch=3 n=40 v=64
300975 On ch=3 n=40 v=95
301076 Off ch=11 n=67 v=64
301187 Meta Lyric "A "
301196 On ch=11 n=64 v=127
301200 On ch=1 n=59 v=95
301200 On ch=1 n=52 v=95
301200 Off ch=1 n=59 v=64
301200 Off ch=1 n=52 v=64
301213 On ch=10 n=42 v=95
301213 Off ch=10 n=42 v=64
301213 Off ch=10 n=35 v=64
301215 Off ch=3 n=40 v=64
301215 On ch=3 n=40 v=95
301440 On ch=1 n=59 v=95
301440 On ch=1 n=52 v=95
301440 Off ch=1 n=59 v=64
301440 Off ch=1 n=52 v=64
301453 On ch=10 n=42 v=95
301453 On ch=10 n=38 v=95
301453 Off ch=10 n=42 v=64
301455 Off ch=3 n=40 v=64
301455 On ch=3 n=40 v=95
301667 Meta Lyric "GOOD "
301676 Off ch=11 n=64 v=64
301676 On ch=11 n=74 v=127
301680 On ch=1 n=59 v=95
301680 On ch=1 n=52 v=95
301680 Off ch=1 n=59 v=64
301680 Off ch=1 n=52 v=64
301684 Off ch=5 n=69 v=64
301684 On ch=5 n=67 v=95
301693 On ch=10 n=42 v=95
301693 Off ch=10 n=42 v=64
301693 Off ch=10 n=38 v=64
301695 Off ch=3 n=40 v=64
301695 On ch=3 n=40 v=95
301920 On ch=1 n=59 v=95
301920 On ch=1 n=52 v=95
301920 Off ch=1 n=59 v=64
301920 Off ch=1 n=52 v=64
301933 On ch=10 n=42 v=95
301933 On ch=10 n=35 v=95
301933 Off ch=10 n=42 v=64
301935 Off ch=3 n=40 v=64
301935 On ch=3 n=40 v=95
302147 Meta Lyric "NIGHT"
302156 Off ch=11 n=74 v=64
302156 On ch=11 n=71 v=127
302160 On ch=1 n=59 v=95
302160 On ch=1 n=52 v=95
302160 Off ch=1 n=59 v=64
302160 Off ch=1 n=52 v=64
302173 On ch=10 n=42 v=95
302173 Off ch=10 n=42 v=64
302173 Off ch=10 n=35 v=64
302175 Off ch=3 n=40 v=64
302175 On ch=3 n=40 v=95
302396 Off ch=11 n=71 v=64
302400 On ch=1 n=59 v=95
302400 On ch=1 n=52 v=95
302400 Off ch=1 n=59 v=64
302400 Off ch=1 n=52 v=64
302413 On ch=10 n=42 v=95
302413 On ch=10 n=38 v=95
302413 Off ch=10 n=42 v=64
302415 Off ch=3 n=40 v=64
302415 On ch=3 n=40 v=95
302640 On ch=1 n=59 v=95
302640 On ch=1 n=52 v=95
302640 Off ch=1 n=59 v=64
302640 Off ch=1 n=52 v=64
302653 On ch=10 n=42 v=95
302653 Off ch=10 n=42 v=64
302653 Off ch=10 n=38 v=64
302655 Off ch=3 n=40 v=64
302655 On ch=3 n=40 v=95
302880 On ch=1 n=59 v=95
302880 On ch=1 n=52 v=95
302880 Off ch=1 n=59 v=64
302880 Off ch=1 n=52 v=64
302893 On ch=10 n=42 v=95
302893 On ch=10 n=35 v=95
302893 Off ch=10 n=42 v=64
302895 Off ch=3 n=40 v=64
302895 On ch=3 n=38 v=95
303017 Meta Lyric "\r"
303107 Meta Lyric "THAT "
303116 On ch=11 n=67 v=127
303120 On ch=1 n=57 v=95
303120 On ch=1 n=50 v=95
303120 Off ch=1 n=59 v=64
303120 Off ch=1 n=52 v=64
303133 On ch=10 n=42 v=95
303133 Off ch=10 n=42 v=64
303133 Off ch=10 n=35 v=64
303135 Off ch=3 n=38 v=64
303135 On ch=3 n=38 v=95
303356 Off ch=11 n=67 v=64
303356 On ch=11 n=67 v=127
303360 On ch=1 n=57 v=95
303360 On ch=1 n=50 v=95
303360 Off ch=1 n=57 v=64
303360 Off ch=1 n=50 v=64
303373 On ch=10 n=42 v=95
303373 On ch=10 n=38 v=95
303373 Off ch=10 n=42 v=64
303375 Off ch=3 n=38 v=64
303375 On ch=3 n=38 v=95
303383 Meta Lyric "TO"
303596 Off ch=11 n=67 v=64
303596 On ch=11 n=74 v=127
303613 On ch=10 n=42 v=95
303613 Off ch=10 n=42 v=64
303613 Off ch=10 n=38 v=64
303615 Off ch=3 n=38 v=64
303615 On ch=3 n=38 v=95
303623 Meta Lyric "NIGHT'S "
303840 On ch=1 n=55 v=95
303840 On ch=1 n=48 v=95
303840 Off ch=1 n=57 v=64
303840 Off ch=1 n=50 v=64
303844 Off ch=5 n=67 v=64
303844 On ch=5 n=69 v=95
303853 On ch=10 n=42 v=95
303853 On ch=10 n=35 v=95
303853 Off ch=10 n=42 v=64
303855 Off ch=3 n=38 v=64
303855 On ch=3 n=36 v=95
303953 Meta Lyric "\r"
304067 Meta Lyric "GO"
304076 Off ch=11 n=74 v=64
304076 On ch=11 n=71 v=127
304080 On ch=1 n=55 v=95
304080 On ch=1 n=48 v=95
304080 Off ch=1 n=55 v=64
304080 Off ch=1 n=48 v=64
304093 On ch=10 n=42 v=95
304093 Off ch=10 n=42 v=64
304093 Off ch=10 n=35 v=64
304095 Off ch=3 n=36 v=64
304095 On ch=3 n=36 v=95
304316 Off ch=11 n=71 v=64
304316 On ch=11 n=69 v=127
304320 On ch=1 n=55 v=95
304320 On ch=1 n=48 v=95
304320 Off ch=1 n=55 v=64
304320 Off ch=1 n=48 v=64
304331 Meta Lyric "NNA "
304333 On ch=10 n=42 v=95
304333 On ch=10 n=38 v=95
304333 Off ch=10 n=42 v=64
304335 Off ch=3 n=36 v=64
304335 On ch=3 n=36 v=95
304547 Meta Lyric "BE "
304556 Off ch=11 n=69 v=64
304556 On ch=11 n=67 v=127
304560 On ch=1 n=55 v=95
304560 On ch=1 n=48 v=95
304560 Off ch=1 n=55 v=64
304560 Off ch=1 n=48 v=64
304573 On ch=10 n=42 v=95
304573 Off ch=10 n=42 v=64
304573 Off ch=10 n=38 v=64
304575 Off ch=3 n=36 v=64
304575 On ch=3 n=36 v=95
304800 On ch=1 n=55 v=95
304800 On ch=1 n=48 v=95
304800 Off ch=1 n=55 v=64
304800 Off ch=1 n=48 v=64
304813 On ch=10 n=42 v=95
304813 On ch=10 n=35 v=95
304813 Off ch=10 n=42 v=64
304815 Off ch=3 n=36 v=64
304815 On ch=3 n=36 v=95
304916 Off ch=11 n=67 v=64
305027 Meta Lyric "A "
305036 On ch=11 n=64 v=127
305040 On ch=1 n=55 v=95
305040 On ch=1 n=48 v=95
305040 Off ch=1 n=55 v=64
305040 Off ch=1 n=48 v=64
305053 On ch=10 n=42 v=95
305053 Off ch=10 n=42 v=64
305053 Off ch=10 n=35 v=64
305055 Off ch=3 n=36 v=64
305055 On ch=3 n=36 v=95
305280 On ch=1 n=55 v=95
305280 On ch=1 n=48 v=95
305280 Off ch=1 n=55 v=64
305280 Off ch=1 n=48 v=64
305293 On ch=10 n=42 v=95
305293 On ch=10 n=38 v=95
305293 Off ch=10 n=42 v=64
305295 Off ch=3 n=36 v=64
305295 On ch=3 n=36 v=95
305507 Meta Lyric "GOOD "
305516 Off ch=11 n=64 v=64
305516 On ch=11 n=74 v=127
305520 On ch=1 n=55 v=95
305520 On ch=1 n=48 v=95
305520 Off ch=1 n=55 v=64
305520 Off ch=1 n=48 v=64
305524 Off ch=5 n=69 v=64
305524 On ch=5 n=67 v=95
305533 On ch=10 n=42 v=95
305533 Off ch=10 n=42 v=64
305533 Off ch=10 n=38 v=64
305535 Off ch=3 n=36 v=64
305535 On ch=3 n=36 v=95
305760 On ch=1 n=55 v=95
305760 On ch=1 n=48 v=95
305760 Off ch=1 n=55 v=64
305760 Off ch=1 n=48 v=64
305773 On ch=10 n=42 v=95
305773 On ch=10 n=35 v=95
305773 Off ch=10 n=42 v=64
305775 Off ch=3 n=36 v=64
305775 On ch=3 n=36 v=95
305876 Off ch=11 n=74 v=64
305987 Meta Lyric "GOOD "
305996 On ch=11 n=74 v=127
306000 On ch=1 n=55 v=95
306000 On ch=1 n=48 v=95
306000 Off ch=1 n=55 v=64
306000 Off ch=1 n=48 v=64
306013 On ch=10 n=42 v=95
306013 Off ch=10 n=42 v=64
306013 Off ch=10 n=35 v=64
306015 Off ch=3 n=36 v=64
306015 On ch=3 n=36 v=95
306240 On ch=1 n=55 v=95
306240 On ch=1 n=48 v=95
306240 Off ch=1 n=55 v=64
306240 Off ch=1 n=48 v=64
306253 On ch=10 n=42 v=95
306253 On ch=10 n=38 v=95
306253 Off ch=10 n=42 v=64
306255 Off ch=3 n=36 v=64
306255 On ch=3 n=36 v=95
306356 Off ch=11 n=74 v=64
306467 Meta Lyric "NIG"
306476 On ch=11 n=71 v=127
306480 On ch=1 n=55 v=95
306480 On ch=1 n=48 v=95
306480 Off ch=1 n=55 v=64
306480 Off ch=1 n=48 v=64
306493 On ch=10 n=42 v=95
306493 Off ch=10 n=42 v=64
306493 Off ch=10 n=38 v=64
306495 Off ch=3 n=36 v=64
306495 On ch=3 n=36 v=95
306716 Off ch=11 n=71 v=64
306716 On ch=11 n=69 v=127
306719 Meta Lyric "H"
306720 On ch=1 n=55 v=95
306720 On ch=1 n=48 v=95
306720 Off ch=1 n=55 v=64
306720 Off ch=1 n=48 v=64
306733 On ch=10 n=42 v=95
306733 On ch=10 n=35 v=95
306733 Off ch=10 n=42 v=64
306735 Off ch=3 n=36 v=64
306735 On ch=3 n=36 v=95
306956 Off ch=11 n=69 v=64
306956 On ch=11 n=67 v=127
306960 On ch=1 n=55 v=95
306960 On ch=1 n=48 v=95
306960 Off ch=1 n=55 v=64
306960 Off ch=1 n=48 v=64
306971 Meta Lyric "T"
306973 On ch=10 n=42 v=95
306973 Off ch=10 n=42 v=64
306973 Off ch=10 n=35 v=64
306975 Off ch=3 n=36 v=64
306975 On ch=3 n=36 v=95
307196 Off ch=11 n=67 v=64
307200 On ch=1 n=55 v=95
307200 On ch=1 n=48 v=95
307200 Off ch=1 n=55 v=64
307200 Off ch=1 n=48 v=64
307213 On ch=10 n=42 v=95
307213 On ch=10 n=38 v=95
307213 Off ch=10 n=42 v=64
307215 Off ch=3 n=36 v=64
307215 On ch=3 n=36 v=95
307440 On ch=1 n=55 v=95
307440 On ch=1 n=48 v=95
307440 Off ch=1 n=55 v=64
307440 Off ch=1 n=48 v=64
307453 On ch=10 n=42 v=95
307453 Off ch=10 n=42 v=64
307453 Off ch=10 n=38 v=64
307455 Off ch=3 n=36 v=64
307455 On ch=3 n=36 v=95
307680 Off ch=1 n=55 v=64
307680 Off ch=1 n=48 v=64
307684 Off ch=5 n=67 v=64
307693 On ch=10 n=57 v=95
307693 On ch=10 n=35 v=95
307693 Off ch=10 n=42 v=64
307695 Off ch=3 n=36 v=64
307695 On ch=3 n=31 v=95
307841 Meta Lyric "\r"
308640 Meta Lyric "WOO "
308649 On ch=11 n=81 v=105
309600 Meta Lyric "HOO"
309609 Off ch=11 n=81 v=64
309609 On ch=11 n=79 v=105
309613 Off ch=10 n=57 v=64
309613 Off ch=10 n=35 v=64
309615 Off ch=3 n=31 v=64
310329 Off ch=11 n=67 v=64
310329 Off ch=11 n=67 v=64
310329 Off ch=11 n=67 v=64
310329 Off ch=11 n=67 v=64
310329 Off ch=11 n=79 v=64
311884 Meta Lyric "\r"
311884 Meta TrkEnd
TrkEnd
