MFile 1 11 96
MTrk
0 TimeSig 4/4 96 8
0 Tempo 480000
0 Meta TrkEnd
TrkEnd
MTrk
0 Meta TrkName "Bass"
0 Par ch=1 c=0 v=0
0 PrCh ch=1 p=35
0 Par ch=1 c=10 v=64
0 Par ch=1 c=91 v=64
0 Par ch=1 c=93 v=10
0 TimeSig 4/4 96 8
0 Tempo 480000
778 Par ch=1 c=65 v=0
780 Par ch=1 c=5 v=0
782 Par ch=1 c=101 v=0
784 Par ch=1 c=100 v=0
786 Par ch=1 c=6 v=12
3359 On ch=1 n=45 v=120
3360 Pb ch=1 v=8192
3363 Pb ch=1 v=7850
3366 Pb ch=1 v=7508
3369 Pb ch=1 v=7166
3372 Pb ch=1 v=6824
3375 Pb ch=1 v=6481
3378 Pb ch=1 v=6139
3381 Pb ch=1 v=5797
3384 Pb ch=1 v=5455
3387 Pb ch=1 v=5112
3390 Pb ch=1 v=4770
3393 Pb ch=1 v=4428
3396 Pb ch=1 v=4086
3399 Pb ch=1 v=3743
3402 Pb ch=1 v=3401
3405 Pb ch=1 v=3059
3408 Pb ch=1 v=2717
3411 Pb ch=1 v=2374
3414 Pb ch=1 v=2032
3417 Pb ch=1 v=1690
3420 Pb ch=1 v=1348
3423 Pb ch=1 v=1005
3426 Pb ch=1 v=663
3429 Pb ch=1 v=321
3431 Pb ch=1 v=1
3454 Off ch=1 n=45 v=64
4128 Pb ch=1 v=8192
4131 Pb ch=1 v=7850
4131 On ch=1 n=45 v=120
4134 Pb ch=1 v=7508
4137 Pb ch=1 v=7166
4140 Pb ch=1 v=6824
4143 Pb ch=1 v=6481
4146 Pb ch=1 v=6139
4149 Pb ch=1 v=5797
4152 Pb ch=1 v=5455
4155 Pb ch=1 v=5112
4158 Pb ch=1 v=4770
4161 Pb ch=1 v=4428
4164 Pb ch=1 v=4086
4167 Pb ch=1 v=3743
4170 Pb ch=1 v=3401
4173 Pb ch=1 v=3059
4176 Pb ch=1 v=2717
4179 Pb ch=1 v=2374
4182 Pb ch=1 v=2032
4185 Pb ch=1 v=1690
4188 Pb ch=1 v=1348
4191 Pb ch=1 v=1005
4194 Pb ch=1 v=663
4197 Pb ch=1 v=321
4199 Pb ch=1 v=1
4214 Off ch=1 n=45 v=64
4220 Pb ch=1 v=8192
4232 On ch=1 n=33 v=105
4318 Off ch=1 n=33 v=64
4372 On ch=1 n=35 v=100
4409 Off ch=1 n=35 v=64
4420 On ch=1 n=36 v=100
4456 Off ch=1 n=36 v=64
4510 On ch=1 n=38 v=100
4544 Off ch=1 n=38 v=64
4559 On ch=1 n=38 v=95
4605 Off ch=1 n=38 v=64
4753 On ch=1 n=31 v=87
4789 Off ch=1 n=31 v=64
4804 On ch=1 n=31 v=98
4857 Off ch=1 n=31 v=64
4994 On ch=1 n=33 v=100
5081 Off ch=1 n=33 v=64
5138 On ch=1 n=35 v=105
5173 Off ch=1 n=35 v=64
5187 On ch=1 n=36 v=100
5225 Off ch=1 n=36 v=64
5277 On ch=1 n=38 v=105
5309 Off ch=1 n=38 v=64
5327 On ch=1 n=38 v=98
5377 Off ch=1 n=38 v=64
5760 On ch=1 n=33 v=98
5846 Off ch=1 n=33 v=64
5904 On ch=1 n=35 v=85
5938 Off ch=1 n=35 v=64
5952 On ch=1 n=36 v=105
5985 Off ch=1 n=36 v=64
6048 On ch=1 n=38 v=100
6080 Off ch=1 n=38 v=64
6096 On ch=1 n=38 v=100
6141 Off ch=1 n=38 v=64
6288 On ch=1 n=31 v=87
6317 Off ch=1 n=31 v=64
6336 On ch=1 n=31 v=87
6399 Off ch=1 n=31 v=64
6528 On ch=1 n=33 v=98
6614 Off ch=1 n=33 v=64
6672 On ch=1 n=35 v=85
6706 Off ch=1 n=35 v=64
6720 On ch=1 n=36 v=105
6753 Off ch=1 n=36 v=64
6816 On ch=1 n=38 v=100
6848 Off ch=1 n=38 v=64
6864 On ch=1 n=38 v=100
6909 Off ch=1 n=38 v=64
7056 On ch=1 n=31 v=87
7085 Off ch=1 n=31 v=64
7104 On ch=1 n=31 v=87
7167 Off ch=1 n=31 v=64
7296 On ch=1 n=33 v=98
7382 Off ch=1 n=33 v=64
7440 On ch=1 n=35 v=85
7474 Off ch=1 n=35 v=64
7488 On ch=1 n=36 v=105
7521 Off ch=1 n=36 v=64
7584 On ch=1 n=38 v=100
7616 Off ch=1 n=38 v=64
7632 On ch=1 n=38 v=100
7677 Off ch=1 n=38 v=64
7824 On ch=1 n=31 v=87
7853 Off ch=1 n=31 v=64
7872 On ch=1 n=31 v=87
7935 Off ch=1 n=31 v=64
8064 On ch=1 n=33 v=98
8150 Off ch=1 n=33 v=64
8208 On ch=1 n=35 v=85
8242 Off ch=1 n=35 v=64
8256 On ch=1 n=36 v=105
8289 Off ch=1 n=36 v=64
8352 On ch=1 n=38 v=100
8384 Off ch=1 n=38 v=64
8400 On ch=1 n=38 v=100
8445 Off ch=1 n=38 v=64
8592 On ch=1 n=31 v=87
8621 Off ch=1 n=31 v=64
8640 On ch=1 n=31 v=87
8703 Off ch=1 n=31 v=64
8832 On ch=1 n=33 v=98
8918 Off ch=1 n=33 v=64
8976 On ch=1 n=35 v=85
9010 Off ch=1 n=35 v=64
9024 On ch=1 n=36 v=105
9057 Off ch=1 n=36 v=64
9120 On ch=1 n=38 v=100
9152 Off ch=1 n=38 v=64
9168 On ch=1 n=38 v=100
9213 Off ch=1 n=38 v=64
9360 On ch=1 n=31 v=87
9389 Off ch=1 n=31 v=64
9408 On ch=1 n=31 v=87
9471 Off ch=1 n=31 v=64
9600 On ch=1 n=33 v=98
9686 Off ch=1 n=33 v=64
9744 On ch=1 n=35 v=85
9778 Off ch=1 n=35 v=64
9792 On ch=1 n=36 v=105
9825 Off ch=1 n=36 v=64
9888 On ch=1 n=38 v=100
9920 Off ch=1 n=38 v=64
9936 On ch=1 n=38 v=100
9981 Off ch=1 n=38 v=64
10128 On ch=1 n=31 v=87
10157 Off ch=1 n=31 v=64
10176 On ch=1 n=31 v=87
10239 Off ch=1 n=31 v=64
10368 On ch=1 n=33 v=98
10454 Off ch=1 n=33 v=64
10512 On ch=1 n=35 v=85
10546 Off ch=1 n=35 v=64
10560 On ch=1 n=36 v=105
10593 Off ch=1 n=36 v=64
10656 On ch=1 n=38 v=100
10688 Off ch=1 n=38 v=64
10704 On ch=1 n=38 v=100
10749 Off ch=1 n=38 v=64
10896 On ch=1 n=31 v=87
10925 Off ch=1 n=31 v=64
10944 On ch=1 n=31 v=87
11007 Off ch=1 n=31 v=64
11136 On ch=1 n=33 v=98
11222 Off ch=1 n=33 v=64
11280 On ch=1 n=35 v=85
11314 Off ch=1 n=35 v=64
11328 On ch=1 n=36 v=105
11361 Off ch=1 n=36 v=64
11424 On ch=1 n=38 v=100
11456 Off ch=1 n=38 v=64
11472 On ch=1 n=38 v=100
11517 Off ch=1 n=38 v=64
11664 On ch=1 n=31 v=87
11693 Off ch=1 n=31 v=64
11712 On ch=1 n=31 v=87
11775 Off ch=1 n=31 v=64
11904 On ch=1 n=33 v=98
11990 Off ch=1 n=33 v=64
12048 On ch=1 n=35 v=85
12082 Off ch=1 n=35 v=64
12096 On ch=1 n=36 v=105
12129 Off ch=1 n=36 v=64
12192 On ch=1 n=38 v=100
12224 Off ch=1 n=38 v=64
12240 On ch=1 n=38 v=100
12285 Off ch=1 n=38 v=64
12432 On ch=1 n=31 v=87
12461 Off ch=1 n=31 v=64
12480 On ch=1 n=31 v=87
12543 Off ch=1 n=31 v=64
12672 On ch=1 n=33 v=98
12758 Off ch=1 n=33 v=64
12816 On ch=1 n=35 v=85
12850 Off ch=1 n=35 v=64
12864 On ch=1 n=36 v=105
12897 Off ch=1 n=36 v=64
12960 On ch=1 n=38 v=100
12992 Off ch=1 n=38 v=64
13008 On ch=1 n=38 v=100
13053 Off ch=1 n=38 v=64
13200 On ch=1 n=31 v=87
13229 Off ch=1 n=31 v=64
13248 On ch=1 n=31 v=87
13311 Off ch=1 n=31 v=64
13440 On ch=1 n=33 v=98
13526 Off ch=1 n=33 v=64
13584 On ch=1 n=35 v=85
13618 Off ch=1 n=35 v=64
13632 On ch=1 n=36 v=105
13665 Off ch=1 n=36 v=64
13728 On ch=1 n=38 v=100
13760 Off ch=1 n=38 v=64
13776 On ch=1 n=38 v=100
13821 Off ch=1 n=38 v=64
13968 On ch=1 n=31 v=87
13997 Off ch=1 n=31 v=64
14016 On ch=1 n=31 v=87
14079 Off ch=1 n=31 v=64
14208 On ch=1 n=33 v=98
14294 Off ch=1 n=33 v=64
14352 On ch=1 n=35 v=85
14386 Off ch=1 n=35 v=64
14400 On ch=1 n=36 v=105
14433 Off ch=1 n=36 v=64
14496 On ch=1 n=38 v=100
14528 Off ch=1 n=38 v=64
14544 On ch=1 n=38 v=100
14589 Off ch=1 n=38 v=64
14736 On ch=1 n=31 v=87
14765 Off ch=1 n=31 v=64
14784 On ch=1 n=31 v=87
14847 Off ch=1 n=31 v=64
14976 On ch=1 n=33 v=98
15062 Off ch=1 n=33 v=64
15120 On ch=1 n=35 v=85
15154 Off ch=1 n=35 v=64
15168 On ch=1 n=36 v=105
15201 Off ch=1 n=36 v=64
15264 On ch=1 n=38 v=100
15296 Off ch=1 n=38 v=64
15312 On ch=1 n=38 v=100
16101 Off ch=1 n=38 v=64
16128 On ch=1 n=33 v=98
16214 Off ch=1 n=33 v=64
16272 On ch=1 n=35 v=85
16306 Off ch=1 n=35 v=64
16320 On ch=1 n=36 v=105
16353 Off ch=1 n=36 v=64
16416 On ch=1 n=38 v=100
16448 Off ch=1 n=38 v=64
16464 On ch=1 n=38 v=100
16509 Off ch=1 n=38 v=64
16656 On ch=1 n=31 v=87
16685 Off ch=1 n=31 v=64
16704 On ch=1 n=31 v=87
16767 Off ch=1 n=31 v=64
16896 On ch=1 n=33 v=98
16982 Off ch=1 n=33 v=64
17040 On ch=1 n=35 v=85
17074 Off ch=1 n=35 v=64
17088 On ch=1 n=36 v=105
17121 Off ch=1 n=36 v=64
17184 On ch=1 n=38 v=100
17216 Off ch=1 n=38 v=64
17232 On ch=1 n=38 v=100
17277 Off ch=1 n=38 v=64
17424 On ch=1 n=31 v=87
17453 Off ch=1 n=31 v=64
17472 On ch=1 n=31 v=87
17535 Off ch=1 n=31 v=64
17664 On ch=1 n=33 v=98
17750 Off ch=1 n=33 v=64
17808 On ch=1 n=35 v=85
17842 Off ch=1 n=35 v=64
17856 On ch=1 n=36 v=105
17889 Off ch=1 n=36 v=64
17952 On ch=1 n=38 v=100
17984 Off ch=1 n=38 v=64
18000 On ch=1 n=38 v=100
18045 Off ch=1 n=38 v=64
18192 On ch=1 n=31 v=87
18221 Off ch=1 n=31 v=64
18240 On ch=1 n=31 v=87
18303 Off ch=1 n=31 v=64
18432 On ch=1 n=33 v=98
18518 Off ch=1 n=33 v=64
18576 On ch=1 n=35 v=85
18610 Off ch=1 n=35 v=64
18624 On ch=1 n=36 v=105
18657 Off ch=1 n=36 v=64
18720 On ch=1 n=38 v=100
18752 Off ch=1 n=38 v=64
18768 On ch=1 n=38 v=100
18813 Off ch=1 n=38 v=64
18960 On ch=1 n=31 v=87
18989 Off ch=1 n=31 v=64
19008 On ch=1 n=31 v=87
19071 Off ch=1 n=31 v=64
19200 On ch=1 n=33 v=98
19286 Off ch=1 n=33 v=64
19344 On ch=1 n=35 v=85
19378 Off ch=1 n=35 v=64
19392 On ch=1 n=36 v=105
19425 Off ch=1 n=36 v=64
19488 On ch=1 n=38 v=100
19520 Off ch=1 n=38 v=64
19536 On ch=1 n=38 v=100
19581 Off ch=1 n=38 v=64
19728 On ch=1 n=31 v=87
19757 Off ch=1 n=31 v=64
19776 On ch=1 n=31 v=87
19839 Off ch=1 n=31 v=64
19968 On ch=1 n=33 v=98
20054 Off ch=1 n=33 v=64
20112 On ch=1 n=35 v=85
20146 Off ch=1 n=35 v=64
20160 On ch=1 n=36 v=105
20193 Off ch=1 n=36 v=64
20256 On ch=1 n=38 v=100
20288 Off ch=1 n=38 v=64
20304 On ch=1 n=38 v=100
20349 Off ch=1 n=38 v=64
20496 On ch=1 n=31 v=87
20525 Off ch=1 n=31 v=64
20544 On ch=1 n=31 v=87
20607 Off ch=1 n=31 v=64
20736 On ch=1 n=33 v=98
20822 Off ch=1 n=33 v=64
20880 On ch=1 n=35 v=85
20914 Off ch=1 n=35 v=64
20928 On ch=1 n=36 v=105
20961 Off ch=1 n=36 v=64
21024 On ch=1 n=38 v=100
21056 Off ch=1 n=38 v=64
21072 On ch=1 n=38 v=100
21117 Off ch=1 n=38 v=64
21264 On ch=1 n=31 v=87
21293 Off ch=1 n=31 v=64
21312 On ch=1 n=31 v=87
21375 Off ch=1 n=31 v=64
21504 On ch=1 n=33 v=98
21590 Off ch=1 n=33 v=64
21648 On ch=1 n=35 v=85
21682 Off ch=1 n=35 v=64
21696 On ch=1 n=36 v=105
21729 Off ch=1 n=36 v=64
21792 On ch=1 n=38 v=100
21824 Off ch=1 n=38 v=64
21840 On ch=1 n=38 v=100
21885 Off ch=1 n=38 v=64
22032 On ch=1 n=31 v=87
22061 Off ch=1 n=31 v=64
22080 On ch=1 n=31 v=87
22143 Off ch=1 n=31 v=64
22272 On ch=1 n=33 v=98
22358 Off ch=1 n=33 v=64
22416 On ch=1 n=35 v=85
22450 Off ch=1 n=35 v=64
22464 On ch=1 n=36 v=105
22497 Off ch=1 n=36 v=64
22560 On ch=1 n=38 v=100
22592 Off ch=1 n=38 v=64
22608 On ch=1 n=38 v=100
22653 Off ch=1 n=38 v=64
22800 On ch=1 n=31 v=87
22829 Off ch=1 n=31 v=64
22848 On ch=1 n=31 v=87
22911 Off ch=1 n=31 v=64
23040 On ch=1 n=33 v=98
23126 Off ch=1 n=33 v=64
23184 On ch=1 n=35 v=85
23218 Off ch=1 n=35 v=64
23232 On ch=1 n=36 v=105
23265 Off ch=1 n=36 v=64
23328 On ch=1 n=38 v=100
23360 Off ch=1 n=38 v=64
23376 On ch=1 n=38 v=100
23421 Off ch=1 n=38 v=64
23568 On ch=1 n=31 v=87
23597 Off ch=1 n=31 v=64
23616 On ch=1 n=31 v=87
23679 Off ch=1 n=31 v=64
23808 On ch=1 n=33 v=98
23894 Off ch=1 n=33 v=64
23952 On ch=1 n=35 v=85
23986 Off ch=1 n=35 v=64
24000 On ch=1 n=36 v=105
24033 Off ch=1 n=36 v=64
24096 On ch=1 n=38 v=100
24128 Off ch=1 n=38 v=64
24144 On ch=1 n=38 v=100
24189 Off ch=1 n=38 v=64
24336 On ch=1 n=31 v=87
24365 Off ch=1 n=31 v=64
24384 On ch=1 n=31 v=87
24447 Off ch=1 n=31 v=64
24576 On ch=1 n=33 v=98
24672 Off ch=1 n=33 v=64
24720 On ch=1 n=35 v=85
24768 Off ch=1 n=35 v=64
24768 On ch=1 n=36 v=105
24816 Off ch=1 n=36 v=64
24864 On ch=1 n=38 v=100
24912 Off ch=1 n=38 v=64
24912 On ch=1 n=33 v=102
25008 Off ch=1 n=33 v=64
25008 Pb ch=1 v=7392
25008 On ch=1 n=37 v=105
25011 Pb ch=1 v=7493
25014 Pb ch=1 v=7594
25017 Pb ch=1 v=7694
25020 Pb ch=1 v=7795
25023 Pb ch=1 v=7896
25026 Pb ch=1 v=7997
25029 Pb ch=1 v=8098
25031 Pb ch=1 v=8192
25056 Off ch=1 n=37 v=64
25056 On ch=1 n=40 v=87
25104 Off ch=1 n=40 v=64
25104 On ch=1 n=37 v=107
25152 Off ch=1 n=37 v=64
25200 On ch=1 n=35 v=89
25248 Off ch=1 n=35 v=64
25296 On ch=1 n=33 v=98
25392 Off ch=1 n=33 v=64
25392 On ch=1 n=31 v=102
25440 Off ch=1 n=31 v=64
25440 On ch=1 n=28 v=98
25488 Off ch=1 n=28 v=64
25488 On ch=1 n=33 v=100
25584 Off ch=1 n=33 v=64
25584 On ch=1 n=31 v=100
25632 Off ch=1 n=31 v=64
25632 On ch=1 n=28 v=91
25680 Off ch=1 n=28 v=64
25680 On ch=1 n=31 v=85
25728 Off ch=1 n=31 v=64
25728 On ch=1 n=33 v=85
25776 Off ch=1 n=33 v=64
25776 Pb ch=1 v=7392
25776 On ch=1 n=37 v=105
25779 Pb ch=1 v=7493
25782 Pb ch=1 v=7594
25785 Pb ch=1 v=7694
25788 Pb ch=1 v=7795
25791 Pb ch=1 v=7896
25794 Pb ch=1 v=7997
25797 Pb ch=1 v=8098
25799 Pb ch=1 v=8192
25824 Off ch=1 n=37 v=64
25824 On ch=1 n=40 v=89
25872 Off ch=1 n=40 v=64
25872 On ch=1 n=37 v=105
25920 Off ch=1 n=37 v=64
25968 On ch=1 n=35 v=95
26016 Off ch=1 n=35 v=64
26064 On ch=1 n=33 v=98
26160 Off ch=1 n=33 v=64
26160 On ch=1 n=31 v=98
26208 Off ch=1 n=31 v=64
26208 On ch=1 n=28 v=89
26256 Off ch=1 n=28 v=64
26256 On ch=1 n=33 v=98
26352 Off ch=1 n=33 v=64
26352 On ch=1 n=31 v=98
26400 Off ch=1 n=31 v=64
26400 On ch=1 n=28 v=82
26448 Off ch=1 n=28 v=64
26448 On ch=1 n=33 v=82
26544 Off ch=1 n=33 v=64
26544 Pb ch=1 v=7392
26544 On ch=1 n=37 v=105
26547 Pb ch=1 v=7493
26550 Pb ch=1 v=7594
26553 Pb ch=1 v=7694
26556 Pb ch=1 v=7795
26559 Pb ch=1 v=7896
26562 Pb ch=1 v=7997
26565 Pb ch=1 v=8098
26567 Pb ch=1 v=8192
26592 Off ch=1 n=37 v=64
26592 On ch=1 n=40 v=87
26640 Off ch=1 n=40 v=64
26640 On ch=1 n=37 v=107
26688 Off ch=1 n=37 v=64
26736 On ch=1 n=35 v=89
26784 Off ch=1 n=35 v=64
26832 On ch=1 n=33 v=98
26928 Off ch=1 n=33 v=64
26928 On ch=1 n=31 v=102
26976 Off ch=1 n=31 v=64
26976 On ch=1 n=28 v=98
27024 Off ch=1 n=28 v=64
27024 On ch=1 n=33 v=100
27120 Off ch=1 n=33 v=64
27120 On ch=1 n=31 v=100
27168 Off ch=1 n=31 v=64
27168 On ch=1 n=28 v=91
27216 Off ch=1 n=28 v=64
27216 On ch=1 n=31 v=85
27264 Off ch=1 n=31 v=64
27264 On ch=1 n=33 v=85
27312 Off ch=1 n=33 v=64
27312 Pb ch=1 v=7392
27312 On ch=1 n=37 v=105
27315 Pb ch=1 v=7493
27318 Pb ch=1 v=7594
27321 Pb ch=1 v=7694
27324 Pb ch=1 v=7795
27327 Pb ch=1 v=7896
27330 Pb ch=1 v=7997
27333 Pb ch=1 v=8098
27335 Pb ch=1 v=8192
27360 Off ch=1 n=37 v=64
27360 On ch=1 n=40 v=89
27408 Off ch=1 n=40 v=64
27408 On ch=1 n=37 v=105
27456 Off ch=1 n=37 v=64
27504 On ch=1 n=35 v=95
27552 Off ch=1 n=35 v=64
27600 On ch=1 n=33 v=98
27696 Off ch=1 n=33 v=64
27696 On ch=1 n=31 v=98
27744 Off ch=1 n=31 v=64
27744 On ch=1 n=28 v=89
27792 Off ch=1 n=28 v=64
27792 On ch=1 n=33 v=98
27888 Off ch=1 n=33 v=64
27888 On ch=1 n=31 v=98
27936 Off ch=1 n=31 v=64
27936 On ch=1 n=28 v=82
27984 Off ch=1 n=28 v=64
27984 On ch=1 n=33 v=82
28080 Off ch=1 n=33 v=64
28080 Pb ch=1 v=7392
28080 On ch=1 n=37 v=105
28083 Pb ch=1 v=7493
28086 Pb ch=1 v=7594
28089 Pb ch=1 v=7694
28092 Pb ch=1 v=7795
28095 Pb ch=1 v=7896
28098 Pb ch=1 v=7997
28101 Pb ch=1 v=8098
28103 Pb ch=1 v=8192
28128 Off ch=1 n=37 v=64
28128 On ch=1 n=40 v=87
28176 Off ch=1 n=40 v=64
28176 On ch=1 n=37 v=107
28224 Off ch=1 n=37 v=64
28272 On ch=1 n=35 v=89
28320 Off ch=1 n=35 v=64
28368 On ch=1 n=33 v=98
28464 Off ch=1 n=33 v=64
28464 On ch=1 n=31 v=102
28512 Off ch=1 n=31 v=64
28512 On ch=1 n=28 v=98
28560 Off ch=1 n=28 v=64
28560 On ch=1 n=33 v=100
28656 Off ch=1 n=33 v=64
28656 On ch=1 n=31 v=100
28704 Off ch=1 n=31 v=64
28704 On ch=1 n=28 v=91
28752 Off ch=1 n=28 v=64
28752 On ch=1 n=31 v=85
28800 Off ch=1 n=31 v=64
28800 On ch=1 n=33 v=85
28848 Off ch=1 n=33 v=64
28848 Pb ch=1 v=7392
28848 On ch=1 n=37 v=105
28851 Pb ch=1 v=7493
28854 Pb ch=1 v=7594
28857 Pb ch=1 v=7694
28860 Pb ch=1 v=7795
28863 Pb ch=1 v=7896
28866 Pb ch=1 v=7997
28869 Pb ch=1 v=8098
28871 Pb ch=1 v=8192
28896 Off ch=1 n=37 v=64
28896 On ch=1 n=40 v=89
28944 Off ch=1 n=40 v=64
28944 On ch=1 n=37 v=105
28992 Off ch=1 n=37 v=64
29040 On ch=1 n=35 v=95
29088 Off ch=1 n=35 v=64
29136 On ch=1 n=33 v=98
29232 Off ch=1 n=33 v=64
29232 On ch=1 n=31 v=98
29280 Off ch=1 n=31 v=64
29280 On ch=1 n=28 v=89
29328 Off ch=1 n=28 v=64
29328 On ch=1 n=33 v=98
29424 Off ch=1 n=33 v=64
29424 On ch=1 n=31 v=98
29472 Off ch=1 n=31 v=64
29472 On ch=1 n=28 v=82
29520 Off ch=1 n=28 v=64
29520 On ch=1 n=33 v=82
30312 Off ch=1 n=33 v=64
31872 On ch=1 n=33 v=98
31958 Off ch=1 n=33 v=64
32016 On ch=1 n=35 v=85
32050 Off ch=1 n=35 v=64
32064 On ch=1 n=36 v=105
32097 Off ch=1 n=36 v=64
32160 On ch=1 n=38 v=100
32192 Off ch=1 n=38 v=64
32208 On ch=1 n=38 v=100
32253 Off ch=1 n=38 v=64
32400 On ch=1 n=31 v=87
32429 Off ch=1 n=31 v=64
32448 On ch=1 n=31 v=87
32511 Off ch=1 n=31 v=64
32640 On ch=1 n=33 v=98
32726 Off ch=1 n=33 v=64
32784 On ch=1 n=35 v=85
32818 Off ch=1 n=35 v=64
32832 On ch=1 n=36 v=105
32865 Off ch=1 n=36 v=64
32928 On ch=1 n=38 v=100
32960 Off ch=1 n=38 v=64
32976 On ch=1 n=38 v=100
33021 Off ch=1 n=38 v=64
33168 On ch=1 n=31 v=87
33197 Off ch=1 n=31 v=64
33216 On ch=1 n=31 v=87
33279 Off ch=1 n=31 v=64
33408 On ch=1 n=33 v=98
33494 Off ch=1 n=33 v=64
33552 On ch=1 n=35 v=85
33586 Off ch=1 n=35 v=64
33600 On ch=1 n=36 v=105
33633 Off ch=1 n=36 v=64
33696 On ch=1 n=38 v=100
33728 Off ch=1 n=38 v=64
33744 On ch=1 n=38 v=100
33789 Off ch=1 n=38 v=64
34176 On ch=1 n=33 v=98
34262 Off ch=1 n=33 v=64
34320 On ch=1 n=35 v=85
34354 Off ch=1 n=35 v=64
34368 On ch=1 n=36 v=105
34401 Off ch=1 n=36 v=64
34464 On ch=1 n=38 v=100
34496 Off ch=1 n=38 v=64
34512 On ch=1 n=38 v=100
34557 Off ch=1 n=38 v=64
34756 On ch=1 n=43 v=116
34808 Pb ch=1 v=8191
34811 Pb ch=1 v=7778
34814 Pb ch=1 v=7529
34825 Pb ch=1 v=7447
34862 Pb ch=1 v=8192
34876 Off ch=1 n=43 v=64
34944 On ch=1 n=33 v=98
35030 Off ch=1 n=33 v=64
35088 On ch=1 n=35 v=85
35122 Off ch=1 n=35 v=64
35136 On ch=1 n=36 v=105
35169 Off ch=1 n=36 v=64
35232 On ch=1 n=38 v=100
35264 Off ch=1 n=38 v=64
35280 On ch=1 n=38 v=100
35325 Off ch=1 n=38 v=64
35472 On ch=1 n=31 v=87
35501 Off ch=1 n=31 v=64
35520 On ch=1 n=31 v=87
35583 Off ch=1 n=31 v=64
35712 On ch=1 n=33 v=98
35798 Off ch=1 n=33 v=64
35856 On ch=1 n=35 v=85
35890 Off ch=1 n=35 v=64
35904 On ch=1 n=36 v=105
35937 Off ch=1 n=36 v=64
36000 On ch=1 n=38 v=100
36032 Off ch=1 n=38 v=64
36048 On ch=1 n=38 v=100
36093 Off ch=1 n=38 v=64
36240 On ch=1 n=31 v=87
36269 Off ch=1 n=31 v=64
36288 On ch=1 n=31 v=87
36351 Off ch=1 n=31 v=64
36480 On ch=1 n=33 v=98
36566 Off ch=1 n=33 v=64
36624 On ch=1 n=35 v=85
36658 Off ch=1 n=35 v=64
36672 On ch=1 n=36 v=105
36705 Off ch=1 n=36 v=64
36768 On ch=1 n=38 v=100
36800 Off ch=1 n=38 v=64
36816 On ch=1 n=38 v=100
36861 Off ch=1 n=38 v=64
37008 On ch=1 n=31 v=87
37037 Off ch=1 n=31 v=64
37056 On ch=1 n=31 v=87
37119 Off ch=1 n=31 v=64
37248 On ch=1 n=33 v=98
37334 Off ch=1 n=33 v=64
37392 On ch=1 n=35 v=85
37426 Off ch=1 n=35 v=64
37440 On ch=1 n=36 v=105
37473 Off ch=1 n=36 v=64
37536 On ch=1 n=38 v=100
37568 Off ch=1 n=38 v=64
37584 On ch=1 n=38 v=100
37629 Off ch=1 n=38 v=64
37776 On ch=1 n=31 v=87
37805 Off ch=1 n=31 v=64
37824 On ch=1 n=31 v=87
37887 Off ch=1 n=31 v=64
38016 PrCh ch=1 p=35
39068 Pb ch=1 v=3328
39116 On ch=1 n=62 v=110
39144 Pb ch=1 v=3413
39147 Pb ch=1 v=4015
39150 Pb ch=1 v=4617
39153 Pb ch=1 v=5220
39156 Pb ch=1 v=5822
39159 Pb ch=1 v=6424
39162 Pb ch=1 v=7027
39165 Pb ch=1 v=7629
39167 Pb ch=1 v=8192
39312 Off ch=1 n=62 v=64
39322 On ch=1 n=60 v=110
39495 Off ch=1 n=60 v=64
39504 On ch=1 n=57 v=110
39846 Off ch=1 n=57 v=64
39936 On ch=1 n=57 v=110
40084 Off ch=1 n=57 v=64
40091 On ch=1 n=55 v=110
40267 Off ch=1 n=55 v=64
40275 On ch=1 n=52 v=110
40684 Off ch=1 n=52 v=64
40702 On ch=1 n=50 v=110
40850 Off ch=1 n=50 v=64
40859 On ch=1 n=48 v=110
41085 Off ch=1 n=48 v=64
41086 PrCh ch=1 p=33
41088 On ch=1 n=33 v=98
41174 Off ch=1 n=33 v=64
41232 On ch=1 n=35 v=85
41266 Off ch=1 n=35 v=64
41280 On ch=1 n=36 v=105
41313 Off ch=1 n=36 v=64
41376 On ch=1 n=38 v=100
41408 Off ch=1 n=38 v=64
41424 On ch=1 n=38 v=100
41469 Off ch=1 n=38 v=64
41616 On ch=1 n=31 v=87
41645 Off ch=1 n=31 v=64
41664 On ch=1 n=31 v=87
41727 Off ch=1 n=31 v=64
41856 On ch=1 n=33 v=98
41942 Off ch=1 n=33 v=64
42000 On ch=1 n=35 v=85
42034 Off ch=1 n=35 v=64
42048 On ch=1 n=36 v=105
42081 Off ch=1 n=36 v=64
42144 On ch=1 n=38 v=100
42176 Off ch=1 n=38 v=64
42192 On ch=1 n=38 v=100
42237 Off ch=1 n=38 v=64
42384 On ch=1 n=31 v=87
42413 Off ch=1 n=31 v=64
42432 On ch=1 n=31 v=87
42495 Off ch=1 n=31 v=64
42624 On ch=1 n=33 v=98
42710 Off ch=1 n=33 v=64
42768 On ch=1 n=35 v=85
42802 Off ch=1 n=35 v=64
42816 On ch=1 n=36 v=105
42849 Off ch=1 n=36 v=64
42912 On ch=1 n=38 v=100
42944 Off ch=1 n=38 v=64
42960 On ch=1 n=38 v=100
43005 Off ch=1 n=38 v=64
43152 On ch=1 n=31 v=87
43181 Off ch=1 n=31 v=64
43200 On ch=1 n=31 v=87
43263 Off ch=1 n=31 v=64
43392 On ch=1 n=33 v=98
43478 Off ch=1 n=33 v=64
43536 On ch=1 n=35 v=85
43570 Off ch=1 n=35 v=64
43584 On ch=1 n=36 v=105
43617 Off ch=1 n=36 v=64
43680 On ch=1 n=38 v=100
43712 Off ch=1 n=38 v=64
43728 On ch=1 n=38 v=100
43773 Off ch=1 n=38 v=64
43920 On ch=1 n=31 v=87
43949 Off ch=1 n=31 v=64
43968 On ch=1 n=31 v=87
44031 Off ch=1 n=31 v=64
44160 On ch=1 n=33 v=98
44246 Off ch=1 n=33 v=64
44304 On ch=1 n=35 v=85
44338 Off ch=1 n=35 v=64
44352 On ch=1 n=36 v=105
44385 Off ch=1 n=36 v=64
44448 On ch=1 n=38 v=100
44480 Off ch=1 n=38 v=64
44496 On ch=1 n=38 v=100
44541 Off ch=1 n=38 v=64
44688 On ch=1 n=31 v=87
44717 Off ch=1 n=31 v=64
44736 On ch=1 n=31 v=87
44799 Off ch=1 n=31 v=64
44928 On ch=1 n=33 v=98
45014 Off ch=1 n=33 v=64
45072 On ch=1 n=35 v=85
45106 Off ch=1 n=35 v=64
45120 On ch=1 n=36 v=105
45153 Off ch=1 n=36 v=64
45216 On ch=1 n=38 v=100
45248 Off ch=1 n=38 v=64
45264 On ch=1 n=38 v=100
45309 Off ch=1 n=38 v=64
45456 On ch=1 n=31 v=87
45485 Off ch=1 n=31 v=64
45504 On ch=1 n=31 v=87
45567 Off ch=1 n=31 v=64
45696 On ch=1 n=33 v=98
45782 Off ch=1 n=33 v=64
45840 On ch=1 n=35 v=85
45874 Off ch=1 n=35 v=64
45888 On ch=1 n=36 v=105
45921 Off ch=1 n=36 v=64
45984 On ch=1 n=38 v=100
46016 Off ch=1 n=38 v=64
46032 On ch=1 n=38 v=100
46077 Off ch=1 n=38 v=64
46224 On ch=1 n=31 v=87
46253 Off ch=1 n=31 v=64
46272 On ch=1 n=31 v=87
46335 Off ch=1 n=31 v=64
46464 On ch=1 n=33 v=98
46560 Off ch=1 n=33 v=64
46608 On ch=1 n=35 v=85
46656 Off ch=1 n=35 v=64
46656 On ch=1 n=36 v=105
46704 Off ch=1 n=36 v=64
46752 On ch=1 n=38 v=100
46800 Off ch=1 n=38 v=64
46800 On ch=1 n=33 v=102
46896 Off ch=1 n=33 v=64
46896 Pb ch=1 v=7392
46896 On ch=1 n=37 v=105
46899 Pb ch=1 v=7493
46902 Pb ch=1 v=7594
46905 Pb ch=1 v=7694
46908 Pb ch=1 v=7795
46911 Pb ch=1 v=7896
46914 Pb ch=1 v=7997
46917 Pb ch=1 v=8098
46919 Pb ch=1 v=8192
46944 Off ch=1 n=37 v=64
46944 On ch=1 n=40 v=87
46992 Off ch=1 n=40 v=64
46992 On ch=1 n=37 v=107
47040 Off ch=1 n=37 v=64
47088 On ch=1 n=35 v=89
47136 Off ch=1 n=35 v=64
47184 On ch=1 n=33 v=98
47280 Off ch=1 n=33 v=64
47280 On ch=1 n=31 v=102
47328 Off ch=1 n=31 v=64
47328 On ch=1 n=28 v=98
47376 Off ch=1 n=28 v=64
47376 On ch=1 n=33 v=100
47472 Off ch=1 n=33 v=64
47472 On ch=1 n=31 v=100
47520 Off ch=1 n=31 v=64
47520 On ch=1 n=28 v=91
47568 Off ch=1 n=28 v=64
47568 On ch=1 n=31 v=85
47616 Off ch=1 n=31 v=64
47616 On ch=1 n=33 v=85
47664 Off ch=1 n=33 v=64
47664 Pb ch=1 v=7392
47664 On ch=1 n=37 v=105
47667 Pb ch=1 v=7493
47670 Pb ch=1 v=7594
47673 Pb ch=1 v=7694
47676 Pb ch=1 v=7795
47679 Pb ch=1 v=7896
47682 Pb ch=1 v=7997
47685 Pb ch=1 v=8098
47687 Pb ch=1 v=8192
47712 Off ch=1 n=37 v=64
47712 On ch=1 n=40 v=89
47760 Off ch=1 n=40 v=64
47760 On ch=1 n=37 v=105
47808 Off ch=1 n=37 v=64
47856 On ch=1 n=35 v=95
47904 Off ch=1 n=35 v=64
47952 On ch=1 n=33 v=98
48048 Off ch=1 n=33 v=64
48048 On ch=1 n=31 v=98
48096 Off ch=1 n=31 v=64
48096 On ch=1 n=28 v=89
48144 Off ch=1 n=28 v=64
48144 On ch=1 n=33 v=98
48240 Off ch=1 n=33 v=64
48240 On ch=1 n=31 v=98
48288 Off ch=1 n=31 v=64
48288 On ch=1 n=28 v=82
48336 Off ch=1 n=28 v=64
48336 On ch=1 n=33 v=82
48432 Off ch=1 n=33 v=64
48432 Pb ch=1 v=7392
48432 On ch=1 n=37 v=105
48435 Pb ch=1 v=7493
48438 Pb ch=1 v=7594
48441 Pb ch=1 v=7694
48444 Pb ch=1 v=7795
48447 Pb ch=1 v=7896
48450 Pb ch=1 v=7997
48453 Pb ch=1 v=8098
48455 Pb ch=1 v=8192
48480 Off ch=1 n=37 v=64
48480 On ch=1 n=40 v=87
48528 Off ch=1 n=40 v=64
48528 On ch=1 n=37 v=107
48576 Off ch=1 n=37 v=64
48624 On ch=1 n=35 v=89
48672 Off ch=1 n=35 v=64
48720 On ch=1 n=33 v=98
48816 Off ch=1 n=33 v=64
48816 On ch=1 n=31 v=102
48864 Off ch=1 n=31 v=64
48864 On ch=1 n=28 v=98
48912 Off ch=1 n=28 v=64
48912 On ch=1 n=33 v=100
49008 Off ch=1 n=33 v=64
49008 On ch=1 n=31 v=100
49056 Off ch=1 n=31 v=64
49056 On ch=1 n=28 v=91
49104 Off ch=1 n=28 v=64
49104 On ch=1 n=31 v=85
49152 Off ch=1 n=31 v=64
49152 On ch=1 n=33 v=85
49200 Off ch=1 n=33 v=64
49200 Pb ch=1 v=7392
49200 On ch=1 n=37 v=105
49203 Pb ch=1 v=7493
49206 Pb ch=1 v=7594
49209 Pb ch=1 v=7694
49212 Pb ch=1 v=7795
49215 Pb ch=1 v=7896
49218 Pb ch=1 v=7997
49221 Pb ch=1 v=8098
49223 Pb ch=1 v=8192
49248 Off ch=1 n=37 v=64
49248 On ch=1 n=40 v=89
49296 Off ch=1 n=40 v=64
49296 On ch=1 n=37 v=105
49344 Off ch=1 n=37 v=64
49392 On ch=1 n=35 v=95
49440 Off ch=1 n=35 v=64
49488 On ch=1 n=33 v=98
49632 Off ch=1 n=33 v=64
49632 On ch=1 n=31 v=98
49680 Off ch=1 n=31 v=64
49680 On ch=1 n=28 v=89
49728 Off ch=1 n=28 v=64
49776 On ch=1 n=33 v=98
49824 Off ch=1 n=33 v=64
49824 On ch=1 n=31 v=98
49872 Off ch=1 n=31 v=64
49920 On ch=1 n=33 v=100
49968 Off ch=1 n=33 v=64
49968 Pb ch=1 v=7392
49968 On ch=1 n=37 v=106
49971 Pb ch=1 v=7493
49974 Pb ch=1 v=7594
49977 Pb ch=1 v=7694
49980 Pb ch=1 v=7795
49983 Pb ch=1 v=7896
49986 Pb ch=1 v=7997
49989 Pb ch=1 v=8098
49991 Pb ch=1 v=8192
50016 Off ch=1 n=37 v=64
50016 On ch=1 n=40 v=100
50064 Off ch=1 n=40 v=64
50064 On ch=1 n=37 v=105
50112 Off ch=1 n=37 v=64
50160 On ch=1 n=35 v=100
50208 Off ch=1 n=35 v=64
50256 On ch=1 n=33 v=100
50352 Off ch=1 n=33 v=64
50352 On ch=1 n=31 v=105
50400 Off ch=1 n=31 v=64
50400 On ch=1 n=28 v=100
50448 Off ch=1 n=28 v=64
50448 On ch=1 n=33 v=101
50544 Off ch=1 n=33 v=64
50544 On ch=1 n=31 v=101
50592 Off ch=1 n=31 v=64
50592 On ch=1 n=28 v=100
50640 Off ch=1 n=28 v=64
50640 On ch=1 n=31 v=100
50688 Off ch=1 n=31 v=64
50688 On ch=1 n=33 v=100
50736 Off ch=1 n=33 v=64
50736 Pb ch=1 v=7392
50736 On ch=1 n=37 v=107
50739 Pb ch=1 v=7493
50742 Pb ch=1 v=7594
50745 Pb ch=1 v=7694
50748 Pb ch=1 v=7795
50751 Pb ch=1 v=7896
50754 Pb ch=1 v=7997
50757 Pb ch=1 v=8098
50759 Pb ch=1 v=8192
50784 Off ch=1 n=37 v=64
50784 On ch=1 n=40 v=100
50832 Off ch=1 n=40 v=64
50832 On ch=1 n=37 v=104
50880 Off ch=1 n=37 v=64
50928 On ch=1 n=35 v=104
50976 Off ch=1 n=35 v=64
51024 On ch=1 n=31 v=109
51216 Off ch=1 n=31 v=64
51216 On ch=1 n=30 v=120
51312 Off ch=1 n=30 v=64
51312 On ch=1 n=28 v=120
51408 Off ch=1 n=28 v=64
51408 On ch=1 n=29 v=100
51504 Off ch=1 n=29 v=64
51504 On ch=1 n=33 v=113
51552 Off ch=1 n=33 v=64
51552 On ch=1 n=36 v=110
51600 Off ch=1 n=36 v=64
51600 On ch=1 n=33 v=120
51648 Off ch=1 n=33 v=64
51696 On ch=1 n=31 v=115
51744 Off ch=1 n=31 v=64
51792 On ch=1 n=41 v=100
51888 Off ch=1 n=41 v=64
51888 On ch=1 n=39 v=111
51936 Off ch=1 n=39 v=64
51936 On ch=1 n=36 v=117
51984 Off ch=1 n=36 v=64
51984 On ch=1 n=41 v=120
52080 Off ch=1 n=41 v=64
52080 On ch=1 n=39 v=120
52128 Off ch=1 n=39 v=64
52128 On ch=1 n=36 v=115
52176 Off ch=1 n=36 v=64
52176 On ch=1 n=41 v=120
52224 Off ch=1 n=41 v=64
52224 Par ch=1 c=7 v=100
52224 On ch=1 n=29 v=106
52253 Par ch=1 c=7 v=99
52272 Off ch=1 n=29 v=64
52272 On ch=1 n=33 v=111
52283 Par ch=1 c=7 v=98
52313 Par ch=1 c=7 v=97
52320 Off ch=1 n=33 v=64
52320 On ch=1 n=36 v=120
52343 Par ch=1 c=7 v=96
52368 Off ch=1 n=36 v=64
52368 On ch=1 n=33 v=120
52372 Par ch=1 c=7 v=95
52402 Par ch=1 c=7 v=94
52416 Off ch=1 n=33 v=64
52432 Par ch=1 c=7 v=93
52462 Par ch=1 c=7 v=92
52464 On ch=1 n=31 v=117
52491 Par ch=1 c=7 v=91
52512 Off ch=1 n=31 v=64
52521 Par ch=1 c=7 v=90
52551 Par ch=1 c=7 v=89
52560 On ch=1 n=41 v=120
52581 Par ch=1 c=7 v=88
52610 Par ch=1 c=7 v=87
52640 Par ch=1 c=7 v=86
52656 Off ch=1 n=41 v=64
52656 On ch=1 n=39 v=117
52670 Par ch=1 c=7 v=85
52700 Par ch=1 c=7 v=84
52704 Off ch=1 n=39 v=64
52704 On ch=1 n=36 v=102
52729 Par ch=1 c=7 v=83
52752 Off ch=1 n=36 v=64
52759 Par ch=1 c=7 v=82
52789 Par ch=1 c=7 v=81
52800 On ch=1 n=41 v=120
52819 Par ch=1 c=7 v=80
52848 Off ch=1 n=41 v=64
52848 On ch=1 n=39 v=117
52848 Par ch=1 c=7 v=79
52878 Par ch=1 c=7 v=78
52896 Off ch=1 n=39 v=64
52896 On ch=1 n=36 v=102
52908 Par ch=1 c=7 v=77
52938 Par ch=1 c=7 v=76
52944 Off ch=1 n=36 v=64
52967 Par ch=1 c=7 v=75
52992 On ch=1 n=29 v=115
52997 Par ch=1 c=7 v=74
53027 Par ch=1 c=7 v=73
53040 Off ch=1 n=29 v=64
53040 On ch=1 n=33 v=113
53057 Par ch=1 c=7 v=72
53086 Par ch=1 c=7 v=71
53088 Off ch=1 n=33 v=64
53088 On ch=1 n=36 v=110
53116 Par ch=1 c=7 v=70
53136 Off ch=1 n=36 v=64
53136 On ch=1 n=33 v=120
53146 Par ch=1 c=7 v=69
53176 Par ch=1 c=7 v=68
53184 Off ch=1 n=33 v=64
53206 Par ch=1 c=7 v=67
53232 On ch=1 n=31 v=115
53235 Par ch=1 c=7 v=66
53265 Par ch=1 c=7 v=65
53280 Off ch=1 n=31 v=64
53295 Par ch=1 c=7 v=64
53325 Par ch=1 c=7 v=63
53328 On ch=1 n=41 v=100
53354 Par ch=1 c=7 v=62
53384 Par ch=1 c=7 v=61
53414 Par ch=1 c=7 v=60
53424 Off ch=1 n=41 v=64
53424 On ch=1 n=39 v=111
53444 Par ch=1 c=7 v=59
53472 Off ch=1 n=39 v=64
53472 On ch=1 n=36 v=117
53473 Par ch=1 c=7 v=58
53503 Par ch=1 c=7 v=57
53520 Off ch=1 n=36 v=64
53520 On ch=1 n=41 v=120
53533 Par ch=1 c=7 v=56
53563 Par ch=1 c=7 v=55
53592 Par ch=1 c=7 v=54
53616 Off ch=1 n=41 v=64
53616 On ch=1 n=39 v=120
53622 Par ch=1 c=7 v=53
53652 Par ch=1 c=7 v=52
53664 Off ch=1 n=39 v=64
53664 On ch=1 n=36 v=115
53682 Par ch=1 c=7 v=51
53711 Par ch=1 c=7 v=50
53712 Off ch=1 n=36 v=64
53712 On ch=1 n=41 v=120
53741 Par ch=1 c=7 v=49
53760 Off ch=1 n=41 v=64
53760 On ch=1 n=29 v=115
53771 Par ch=1 c=7 v=48
53801 Par ch=1 c=7 v=47
53808 Off ch=1 n=29 v=64
53808 On ch=1 n=33 v=113
53830 Par ch=1 c=7 v=46
53856 Off ch=1 n=33 v=64
53856 On ch=1 n=36 v=110
53860 Par ch=1 c=7 v=45
53890 Par ch=1 c=7 v=44
53904 Off ch=1 n=36 v=64
53904 On ch=1 n=33 v=120
53920 Par ch=1 c=7 v=43
53949 Par ch=1 c=7 v=42
53952 Off ch=1 n=33 v=64
53979 Par ch=1 c=7 v=41
54000 On ch=1 n=31 v=115
54009 Par ch=1 c=7 v=40
54039 Par ch=1 c=7 v=39
54048 Off ch=1 n=31 v=64
54068 Par ch=1 c=7 v=38
54096 On ch=1 n=41 v=100
54098 Par ch=1 c=7 v=37
54128 Par ch=1 c=7 v=36
54158 Par ch=1 c=7 v=35
54188 Par ch=1 c=7 v=34
54192 Off ch=1 n=41 v=64
54192 On ch=1 n=39 v=111
54217 Par ch=1 c=7 v=33
54240 Off ch=1 n=39 v=64
54240 On ch=1 n=36 v=117
54247 Par ch=1 c=7 v=32
54277 Par ch=1 c=7 v=31
54288 Off ch=1 n=36 v=64
54288 On ch=1 n=41 v=120
54307 Par ch=1 c=7 v=30
54336 Par ch=1 c=7 v=29
54366 Par ch=1 c=7 v=28
54384 Off ch=1 n=41 v=64
54384 On ch=1 n=39 v=120
54396 Par ch=1 c=7 v=27
54426 Par ch=1 c=7 v=26
54432 Off ch=1 n=39 v=64
54432 On ch=1 n=36 v=115
54455 Par ch=1 c=7 v=25
54480 Off ch=1 n=36 v=64
54480 On ch=1 n=41 v=120
54485 Par ch=1 c=7 v=24
54515 Par ch=1 c=7 v=23
54528 Off ch=1 n=41 v=64
54528 On ch=1 n=29 v=115
54545 Par ch=1 c=7 v=22
54574 Par ch=1 c=7 v=21
54576 Off ch=1 n=29 v=64
54576 On ch=1 n=33 v=113
54604 Par ch=1 c=7 v=20
54624 Off ch=1 n=33 v=64
54624 On ch=1 n=36 v=110
54634 Par ch=1 c=7 v=19
54664 Par ch=1 c=7 v=18
54672 Off ch=1 n=36 v=64
54672 On ch=1 n=33 v=120
54693 Par ch=1 c=7 v=17
54720 Off ch=1 n=33 v=64
54723 Par ch=1 c=7 v=16
54753 Par ch=1 c=7 v=15
54768 On ch=1 n=31 v=115
54783 Par ch=1 c=7 v=14
54812 Par ch=1 c=7 v=13
54816 Off ch=1 n=31 v=64
54842 Par ch=1 c=7 v=12
54864 On ch=1 n=41 v=100
54872 Par ch=1 c=7 v=11
54902 Par ch=1 c=7 v=10
54931 Par ch=1 c=7 v=9
54960 Off ch=1 n=41 v=64
54960 On ch=1 n=39 v=111
54961 Par ch=1 c=7 v=8
54991 Par ch=1 c=7 v=7
55008 Off ch=1 n=39 v=64
55008 On ch=1 n=36 v=117
55021 Par ch=1 c=7 v=6
55051 Par ch=1 c=7 v=5
55056 Off ch=1 n=36 v=64
55056 On ch=1 n=41 v=120
55080 Par ch=1 c=7 v=4
55110 Par ch=1 c=7 v=3
55140 Par ch=1 c=7 v=2
55152 Off ch=1 n=41 v=64
55152 On ch=1 n=39 v=120
55170 Par ch=1 c=7 v=1
55199 Par ch=1 c=7 v=0
55200 Off ch=1 n=39 v=64
55200 On ch=1 n=36 v=115
55248 Off ch=1 n=36 v=64
55248 On ch=1 n=41 v=120
55296 Off ch=1 n=41 v=64
55296 Meta TrkEnd
TrkEnd
MTrk
0 Meta TrkName "Guitar1"
0 Par ch=2 c=0 v=0
0 PrCh ch=2 p=26
0 Par ch=2 c=10 v=10
0 Par ch=2 c=91 v=120
0 Par ch=2 c=93 v=60
0 TimeSig 4/4 96 8
0 Tempo 480000
1920 On ch=2 n=45 v=100
1920 On ch=2 n=52 v=100
1920 On ch=2 n=57 v=100
2064 Off ch=2 n=45 v=64
2064 Off ch=2 n=52 v=64
2064 Off ch=2 n=57 v=64
2064 On ch=2 n=54 v=100
2064 On ch=2 n=59 v=100
2064 On ch=2 n=47 v=100
2112 Off ch=2 n=54 v=64
2112 Off ch=2 n=59 v=64
2112 Off ch=2 n=47 v=64
2112 On ch=2 n=55 v=100
2112 On ch=2 n=60 v=100
2112 On ch=2 n=48 v=100
2160 Off ch=2 n=55 v=64
2160 Off ch=2 n=60 v=64
2160 Off ch=2 n=48 v=64
2208 On ch=2 n=57 v=100
2208 On ch=2 n=50 v=100
2208 On ch=2 n=62 v=100
2256 Off ch=2 n=57 v=64
2256 Off ch=2 n=50 v=64
2256 Off ch=2 n=62 v=64
2256 On ch=2 n=57 v=100
2256 On ch=2 n=50 v=100
2256 On ch=2 n=62 v=100
2640 Pb ch=2 v=8192
2643 Pb ch=2 v=7930
2646 Pb ch=2 v=7668
2649 Pb ch=2 v=7406
2652 Pb ch=2 v=7144
2655 Pb ch=2 v=6882
2658 Pb ch=2 v=6620
2661 Pb ch=2 v=6358
2664 Pb ch=2 v=6096
2667 Pb ch=2 v=5834
2670 Pb ch=2 v=5572
2673 Pb ch=2 v=5310
2676 Pb ch=2 v=5048
2679 Pb ch=2 v=4786
2682 Pb ch=2 v=4524
2685 Pb ch=2 v=4262
2685 Pb ch=2 v=4192
2688 Off ch=2 n=50 v=64
2688 Off ch=2 n=57 v=64
2688 Off ch=2 n=62 v=64
2688 Pb ch=2 v=8192
2688 On ch=2 n=45 v=100
2688 On ch=2 n=52 v=100
2688 On ch=2 n=57 v=100
2832 Off ch=2 n=45 v=64
2832 Off ch=2 n=52 v=64
2832 Off ch=2 n=57 v=64
2832 On ch=2 n=47 v=100
2832 On ch=2 n=54 v=100
2832 On ch=2 n=59 v=100
2880 Off ch=2 n=47 v=64
2880 Off ch=2 n=54 v=64
2880 Off ch=2 n=59 v=64
2880 On ch=2 n=55 v=100
2880 On ch=2 n=48 v=100
2880 On ch=2 n=60 v=100
2928 Off ch=2 n=55 v=64
2928 Off ch=2 n=48 v=64
2928 Off ch=2 n=60 v=64
2976 On ch=2 n=57 v=100
2976 On ch=2 n=62 v=100
2976 On ch=2 n=50 v=100
3024 Off ch=2 n=57 v=64
3024 Off ch=2 n=62 v=64
3024 Off ch=2 n=50 v=64
3024 On ch=2 n=50 v=100
3024 On ch=2 n=57 v=100
3024 On ch=2 n=62 v=100
3214 Off ch=2 n=50 v=64
3214 Off ch=2 n=57 v=64
3214 Off ch=2 n=62 v=64
3216 On ch=2 n=43 v=100
3262 Off ch=2 n=43 v=64
3264 On ch=2 n=43 v=100
3264 On ch=2 n=50 v=100
3264 On ch=2 n=55 v=100
3456 Off ch=2 n=43 v=64
3456 Off ch=2 n=50 v=64
3456 Off ch=2 n=55 v=64
3456 On ch=2 n=52 v=100
3456 On ch=2 n=45 v=100
3456 On ch=2 n=57 v=100
3600 Off ch=2 n=52 v=64
3600 Off ch=2 n=45 v=64
3600 Off ch=2 n=57 v=64
3600 On ch=2 n=59 v=100
3600 On ch=2 n=54 v=100
3600 On ch=2 n=47 v=100
3648 Off ch=2 n=59 v=64
3648 Off ch=2 n=54 v=64
3648 Off ch=2 n=47 v=64
3648 On ch=2 n=55 v=100
3648 On ch=2 n=60 v=100
3648 On ch=2 n=48 v=100
3696 Off ch=2 n=55 v=64
3696 Off ch=2 n=60 v=64
3696 Off ch=2 n=48 v=64
3744 On ch=2 n=57 v=100
3744 On ch=2 n=50 v=100
3744 On ch=2 n=62 v=100
3792 Off ch=2 n=57 v=64
3792 Off ch=2 n=50 v=64
3792 Off ch=2 n=62 v=64
3792 On ch=2 n=57 v=100
3792 On ch=2 n=50 v=100
3792 On ch=2 n=62 v=100
4224 Off ch=2 n=50 v=64
4224 Off ch=2 n=57 v=64
4224 Off ch=2 n=62 v=64
4224 On ch=2 n=52 v=100
4224 On ch=2 n=45 v=100
4224 On ch=2 n=57 v=100
4320 Off ch=2 n=52 v=64
4320 Off ch=2 n=45 v=64
4320 Off ch=2 n=57 v=64
4368 On ch=2 n=47 v=100
4368 On ch=2 n=59 v=100
4368 On ch=2 n=54 v=100
4416 Off ch=2 n=47 v=64
4416 Off ch=2 n=59 v=64
4416 Off ch=2 n=54 v=64
4416 On ch=2 n=48 v=100
4416 On ch=2 n=55 v=100
4416 On ch=2 n=60 v=100
4464 Off ch=2 n=48 v=64
4464 Off ch=2 n=55 v=64
4464 Off ch=2 n=60 v=64
4512 On ch=2 n=50 v=100
4512 On ch=2 n=57 v=100
4512 On ch=2 n=62 v=100
4560 Off ch=2 n=50 v=64
4560 Off ch=2 n=57 v=64
4560 Off ch=2 n=62 v=64
4560 On ch=2 n=50 v=100
4560 On ch=2 n=57 v=100
4560 On ch=2 n=62 v=100
4608 Off ch=2 n=50 v=64
4608 Off ch=2 n=57 v=64
4608 Off ch=2 n=62 v=64
4752 On ch=2 n=43 v=110
4776 Off ch=2 n=43 v=64
4800 On ch=2 n=43 v=100
4800 On ch=2 n=55 v=100
4800 On ch=2 n=50 v=100
4848 Off ch=2 n=43 v=64
4848 Off ch=2 n=55 v=64
4848 Off ch=2 n=50 v=64
4992 On ch=2 n=52 v=100
4992 On ch=2 n=45 v=100
4992 On ch=2 n=57 v=100
5088 Off ch=2 n=52 v=64
5088 Off ch=2 n=45 v=64
5088 Off ch=2 n=57 v=64
5136 On ch=2 n=47 v=100
5136 On ch=2 n=59 v=100
5136 On ch=2 n=54 v=100
5184 Off ch=2 n=47 v=64
5184 Off ch=2 n=59 v=64
5184 Off ch=2 n=54 v=64
5184 On ch=2 n=48 v=100
5184 On ch=2 n=55 v=100
5184 On ch=2 n=60 v=100
5232 Off ch=2 n=48 v=64
5232 Off ch=2 n=55 v=64
5232 Off ch=2 n=60 v=64
5280 On ch=2 n=50 v=100
5280 On ch=2 n=57 v=100
5280 On ch=2 n=62 v=100
5328 Off ch=2 n=50 v=64
5328 Off ch=2 n=57 v=64
5328 Off ch=2 n=62 v=64
5328 On ch=2 n=50 v=100
5328 On ch=2 n=57 v=100
5328 On ch=2 n=62 v=100
5376 Off ch=2 n=50 v=64
5376 Off ch=2 n=57 v=64
5376 Off ch=2 n=62 v=64
5760 On ch=2 n=52 v=100
5760 On ch=2 n=45 v=100
5760 On ch=2 n=57 v=100
5856 Off ch=2 n=52 v=64
5856 Off ch=2 n=45 v=64
5856 Off ch=2 n=57 v=64
5904 On ch=2 n=47 v=100
5904 On ch=2 n=59 v=100
5904 On ch=2 n=54 v=100
5952 Off ch=2 n=47 v=64
5952 Off ch=2 n=59 v=64
5952 Off ch=2 n=54 v=64
5952 On ch=2 n=48 v=100
5952 On ch=2 n=55 v=100
5952 On ch=2 n=60 v=100
6000 Off ch=2 n=48 v=64
6000 Off ch=2 n=55 v=64
6000 Off ch=2 n=60 v=64
6048 On ch=2 n=50 v=100
6048 On ch=2 n=57 v=100
6048 On ch=2 n=62 v=100
6096 Off ch=2 n=50 v=64
6096 Off ch=2 n=57 v=64
6096 Off ch=2 n=62 v=64
6096 On ch=2 n=50 v=100
6096 On ch=2 n=57 v=100
6096 On ch=2 n=62 v=100
6144 Off ch=2 n=50 v=64
6144 Off ch=2 n=57 v=64
6144 Off ch=2 n=62 v=64
6288 On ch=2 n=43 v=110
6312 Off ch=2 n=43 v=64
6336 On ch=2 n=43 v=100
6336 On ch=2 n=55 v=100
6336 On ch=2 n=50 v=100
6384 Off ch=2 n=43 v=64
6384 Off ch=2 n=55 v=64
6384 Off ch=2 n=50 v=64
12672 On ch=2 n=64 v=64
13056 Off ch=2 n=64 v=64
13104 On ch=2 n=76 v=64
13152 Off ch=2 n=76 v=64
13152 On ch=2 n=74 v=64
13200 Off ch=2 n=74 v=64
13200 On ch=2 n=67 v=64
13248 Off ch=2 n=67 v=64
13248 On ch=2 n=74 v=64
13296 Off ch=2 n=74 v=64
13296 On ch=2 n=67 v=64
13440 Off ch=2 n=67 v=64
13440 On ch=2 n=64 v=64
13824 Off ch=2 n=64 v=64
13872 On ch=2 n=76 v=64
13920 Off ch=2 n=76 v=64
13920 On ch=2 n=74 v=64
13968 Off ch=2 n=74 v=64
13968 On ch=2 n=67 v=64
14016 Off ch=2 n=67 v=64
14016 On ch=2 n=74 v=64
14064 Off ch=2 n=74 v=64
14064 On ch=2 n=67 v=64
14208 Off ch=2 n=67 v=64
14208 On ch=2 n=64 v=64
14592 Off ch=2 n=64 v=64
14640 On ch=2 n=76 v=64
14688 Off ch=2 n=76 v=64
14688 On ch=2 n=74 v=64
14736 Off ch=2 n=74 v=64
14736 On ch=2 n=67 v=64
14784 Off ch=2 n=67 v=64
14784 On ch=2 n=74 v=64
14832 Off ch=2 n=74 v=64
14832 On ch=2 n=67 v=64
14976 Off ch=2 n=67 v=64
14976 On ch=2 n=64 v=64
15360 Off ch=2 n=64 v=64
16128 On ch=2 n=52 v=67
16128 On ch=2 n=45 v=71
16128 On ch=2 n=57 v=73
16224 Off ch=2 n=52 v=64
16224 Off ch=2 n=45 v=64
16224 Off ch=2 n=57 v=64
16272 On ch=2 n=47 v=67
16272 On ch=2 n=59 v=72
16272 On ch=2 n=54 v=70
16320 Off ch=2 n=47 v=64
16320 Off ch=2 n=59 v=64
16320 Off ch=2 n=54 v=64
16320 On ch=2 n=48 v=69
16320 On ch=2 n=55 v=70
16320 On ch=2 n=60 v=70
16368 Off ch=2 n=48 v=64
16368 Off ch=2 n=55 v=64
16368 Off ch=2 n=60 v=64
16416 On ch=2 n=50 v=67
16416 On ch=2 n=57 v=67
16416 On ch=2 n=62 v=67
16464 Off ch=2 n=50 v=64
16464 Off ch=2 n=57 v=64
16464 Off ch=2 n=62 v=64
16464 On ch=2 n=50 v=68
16464 On ch=2 n=57 v=68
16464 On ch=2 n=62 v=69
16512 Off ch=2 n=50 v=64
16512 Off ch=2 n=57 v=64
16512 Off ch=2 n=62 v=64
16656 On ch=2 n=43 v=66
16680 Off ch=2 n=43 v=64
16704 On ch=2 n=43 v=72
16704 On ch=2 n=55 v=73
16704 On ch=2 n=50 v=70
16752 Off ch=2 n=43 v=64
16752 Off ch=2 n=55 v=64
16752 Off ch=2 n=50 v=64
16896 On ch=2 n=52 v=66
16896 On ch=2 n=45 v=67
16896 On ch=2 n=57 v=72
16992 Off ch=2 n=52 v=64
16992 Off ch=2 n=45 v=64
16992 Off ch=2 n=57 v=64
17040 On ch=2 n=47 v=69
17040 On ch=2 n=59 v=71
17040 On ch=2 n=54 v=73
17088 Off ch=2 n=47 v=64
17088 Off ch=2 n=59 v=64
17088 Off ch=2 n=54 v=64
17088 On ch=2 n=48 v=71
17088 On ch=2 n=55 v=69
17088 On ch=2 n=60 v=73
17136 Off ch=2 n=48 v=64
17136 Off ch=2 n=55 v=64
17136 Off ch=2 n=60 v=64
17184 On ch=2 n=50 v=71
17184 On ch=2 n=57 v=66
17184 On ch=2 n=62 v=71
17232 Off ch=2 n=50 v=64
17232 Off ch=2 n=57 v=64
17232 Off ch=2 n=62 v=64
17232 On ch=2 n=50 v=66
17232 On ch=2 n=57 v=73
17232 On ch=2 n=62 v=66
17280 Off ch=2 n=50 v=64
17280 Off ch=2 n=57 v=64
17280 Off ch=2 n=62 v=64
17664 On ch=2 n=52 v=71
17664 On ch=2 n=45 v=73
17664 On ch=2 n=57 v=66
17760 Off ch=2 n=52 v=64
17760 Off ch=2 n=45 v=64
17760 Off ch=2 n=57 v=64
17808 On ch=2 n=47 v=70
17808 On ch=2 n=59 v=73
17808 On ch=2 n=54 v=73
17856 Off ch=2 n=47 v=64
17856 Off ch=2 n=59 v=64
17856 Off ch=2 n=54 v=64
17856 On ch=2 n=48 v=72
17856 On ch=2 n=55 v=69
17856 On ch=2 n=60 v=67
17904 Off ch=2 n=48 v=64
17904 Off ch=2 n=55 v=64
17904 Off ch=2 n=60 v=64
17952 On ch=2 n=50 v=67
17952 On ch=2 n=57 v=66
17952 On ch=2 n=62 v=71
18000 Off ch=2 n=50 v=64
18000 Off ch=2 n=57 v=64
18000 Off ch=2 n=62 v=64
18000 On ch=2 n=50 v=68
18000 On ch=2 n=57 v=68
18000 On ch=2 n=62 v=73
18048 Off ch=2 n=50 v=64
18048 Off ch=2 n=57 v=64
18048 Off ch=2 n=62 v=64
18192 On ch=2 n=43 v=66
18216 Off ch=2 n=43 v=64
18240 On ch=2 n=43 v=72
18240 On ch=2 n=55 v=67
18240 On ch=2 n=50 v=72
18288 Off ch=2 n=43 v=64
18288 Off ch=2 n=55 v=64
18288 Off ch=2 n=50 v=64
18432 On ch=2 n=52 v=66
18432 On ch=2 n=45 v=70
18432 On ch=2 n=57 v=68
18528 Off ch=2 n=52 v=64
18528 Off ch=2 n=45 v=64
18528 Off ch=2 n=57 v=64
18576 On ch=2 n=47 v=70
18576 On ch=2 n=59 v=69
18576 On ch=2 n=54 v=70
18624 Off ch=2 n=47 v=64
18624 Off ch=2 n=59 v=64
18624 Off ch=2 n=54 v=64
18624 On ch=2 n=48 v=67
18624 On ch=2 n=55 v=71
18624 On ch=2 n=60 v=72
18672 Off ch=2 n=48 v=64
18672 Off ch=2 n=55 v=64
18672 Off ch=2 n=60 v=64
18720 On ch=2 n=50 v=70
18720 On ch=2 n=57 v=67
18720 On ch=2 n=62 v=71
18768 Off ch=2 n=50 v=64
18768 Off ch=2 n=57 v=64
18768 Off ch=2 n=62 v=64
18768 On ch=2 n=50 v=70
18768 On ch=2 n=57 v=73
18768 On ch=2 n=62 v=71
18816 Off ch=2 n=50 v=64
18816 Off ch=2 n=57 v=64
18816 Off ch=2 n=62 v=64
19200 On ch=2 n=52 v=70
19200 On ch=2 n=45 v=73
19200 On ch=2 n=57 v=66
19296 Off ch=2 n=52 v=64
19296 Off ch=2 n=45 v=64
19296 Off ch=2 n=57 v=64
19344 On ch=2 n=47 v=73
19344 On ch=2 n=59 v=71
19344 On ch=2 n=54 v=68
19392 Off ch=2 n=47 v=64
19392 Off ch=2 n=59 v=64
19392 Off ch=2 n=54 v=64
19392 On ch=2 n=48 v=69
19392 On ch=2 n=55 v=68
19392 On ch=2 n=60 v=70
19440 Off ch=2 n=48 v=64
19440 Off ch=2 n=55 v=64
19440 Off ch=2 n=60 v=64
19488 On ch=2 n=50 v=67
19488 On ch=2 n=57 v=71
19488 On ch=2 n=62 v=71
19536 Off ch=2 n=50 v=64
19536 Off ch=2 n=57 v=64
19536 Off ch=2 n=62 v=64
19536 On ch=2 n=50 v=71
19536 On ch=2 n=57 v=67
19536 On ch=2 n=62 v=71
19584 Off ch=2 n=50 v=64
19584 Off ch=2 n=57 v=64
19584 Off ch=2 n=62 v=64
19728 On ch=2 n=43 v=71
19752 Off ch=2 n=43 v=64
19776 On ch=2 n=43 v=68
19776 On ch=2 n=55 v=73
19776 On ch=2 n=50 v=67
19824 Off ch=2 n=43 v=64
19824 Off ch=2 n=55 v=64
19824 Off ch=2 n=50 v=64
19968 On ch=2 n=52 v=70
19968 On ch=2 n=45 v=66
19968 On ch=2 n=57 v=70
20064 Off ch=2 n=52 v=64
20064 Off ch=2 n=45 v=64
20064 Off ch=2 n=57 v=64
20112 On ch=2 n=47 v=73
20112 On ch=2 n=59 v=71
20112 On ch=2 n=54 v=72
20160 Off ch=2 n=47 v=64
20160 Off ch=2 n=59 v=64
20160 Off ch=2 n=54 v=64
20160 On ch=2 n=48 v=69
20160 On ch=2 n=55 v=68
20160 On ch=2 n=60 v=68
20208 Off ch=2 n=48 v=64
20208 Off ch=2 n=55 v=64
20208 Off ch=2 n=60 v=64
20256 On ch=2 n=50 v=66
20256 On ch=2 n=57 v=66
20256 On ch=2 n=62 v=71
20304 Off ch=2 n=50 v=64
20304 Off ch=2 n=57 v=64
20304 Off ch=2 n=62 v=64
20304 On ch=2 n=50 v=67
20304 On ch=2 n=57 v=66
20304 On ch=2 n=62 v=72
20352 Off ch=2 n=50 v=64
20352 Off ch=2 n=57 v=64
20352 Off ch=2 n=62 v=64
20736 On ch=2 n=52 v=72
20736 On ch=2 n=45 v=71
20736 On ch=2 n=57 v=68
20832 Off ch=2 n=52 v=64
20832 Off ch=2 n=45 v=64
20832 Off ch=2 n=57 v=64
20880 On ch=2 n=47 v=70
20880 On ch=2 n=59 v=68
20880 On ch=2 n=54 v=73
20928 Off ch=2 n=47 v=64
20928 Off ch=2 n=59 v=64
20928 Off ch=2 n=54 v=64
20928 On ch=2 n=48 v=67
20928 On ch=2 n=55 v=73
20928 On ch=2 n=60 v=73
20976 Off ch=2 n=48 v=64
20976 Off ch=2 n=55 v=64
20976 Off ch=2 n=60 v=64
21024 On ch=2 n=50 v=69
21024 On ch=2 n=57 v=66
21024 On ch=2 n=62 v=73
21072 Off ch=2 n=50 v=64
21072 Off ch=2 n=57 v=64
21072 Off ch=2 n=62 v=64
21072 On ch=2 n=50 v=70
21072 On ch=2 n=57 v=72
21072 On ch=2 n=62 v=70
21120 Off ch=2 n=50 v=64
21120 Off ch=2 n=57 v=64
21120 Off ch=2 n=62 v=64
21264 On ch=2 n=43 v=66
21288 Off ch=2 n=43 v=64
21312 On ch=2 n=43 v=72
21312 On ch=2 n=55 v=72
21312 On ch=2 n=50 v=73
21360 Off ch=2 n=43 v=64
21360 Off ch=2 n=55 v=64
21360 Off ch=2 n=50 v=64
21504 On ch=2 n=52 v=70
21504 On ch=2 n=45 v=70
21504 On ch=2 n=57 v=71
21600 Off ch=2 n=52 v=64
21600 Off ch=2 n=45 v=64
21600 Off ch=2 n=57 v=64
21648 On ch=2 n=47 v=71
21648 On ch=2 n=59 v=70
21648 On ch=2 n=54 v=67
21696 Off ch=2 n=47 v=64
21696 Off ch=2 n=59 v=64
21696 Off ch=2 n=54 v=64
21696 On ch=2 n=48 v=68
21696 On ch=2 n=55 v=66
21696 On ch=2 n=60 v=66
21744 Off ch=2 n=48 v=64
21744 Off ch=2 n=55 v=64
21744 Off ch=2 n=60 v=64
21792 On ch=2 n=50 v=71
21792 On ch=2 n=57 v=66
21792 On ch=2 n=62 v=66
21840 Off ch=2 n=50 v=64
21840 Off ch=2 n=57 v=64
21840 Off ch=2 n=62 v=64
21840 On ch=2 n=50 v=66
21840 On ch=2 n=57 v=67
21840 On ch=2 n=62 v=71
21888 Off ch=2 n=50 v=64
21888 Off ch=2 n=57 v=64
21888 Off ch=2 n=62 v=64
22032 On ch=2 n=43 v=70
22056 Off ch=2 n=43 v=64
22080 On ch=2 n=43 v=66
22080 On ch=2 n=55 v=71
22080 On ch=2 n=50 v=73
22128 Off ch=2 n=43 v=64
22128 Off ch=2 n=55 v=64
22128 Off ch=2 n=50 v=64
31872 Par ch=2 c=10 v=64
31946 Pb ch=2 v=8357
31949 Pb ch=2 v=11832
31952 Pb ch=2 v=15141
31952 On ch=2 n=69 v=110
31953 On ch=2 n=76 v=110
31956 Pb ch=2 v=16383
31962 Pb ch=2 v=15472
31964 Pb ch=2 v=13652
31967 Pb ch=2 v=11915
31970 Pb ch=2 v=9433
31973 Pb ch=2 v=8192
32208 Off ch=2 n=69 v=64
32210 Off ch=2 n=76 v=64
32211 On ch=2 n=62 v=110
32211 On ch=2 n=55 v=110
32264 Off ch=2 n=62 v=64
32267 Off ch=2 n=55 v=64
32567 Pb ch=2 v=8109
32570 Pb ch=2 v=7116
32573 Pb ch=2 v=5957
32576 Pb ch=2 v=5295
32578 Pb ch=2 v=4882
32584 On ch=2 n=64 v=110
32585 On ch=2 n=67 v=110
32586 On ch=2 n=60 v=110
32587 On ch=2 n=71 v=110
32593 Pb ch=2 v=5378
32596 Pb ch=2 v=5957
32598 Pb ch=2 v=7198
32601 Pb ch=2 v=8192
32777 Off ch=2 n=71 v=64
32779 Pb ch=2 v=8026
32780 Off ch=2 n=60 v=64
32783 Off ch=2 n=67 v=64
32783 Pb ch=2 v=7447
32786 Pb ch=2 v=7116
32787 Off ch=2 n=64 v=64
32789 Pb ch=2 v=6785
32792 Pb ch=2 v=6619
32794 Pb ch=2 v=6454
32826 Pb ch=2 v=6702
32828 Pb ch=2 v=6867
32831 Pb ch=2 v=7198
32834 Pb ch=2 v=7364
32837 Pb ch=2 v=7447
32840 Pb ch=2 v=7695
32842 Pb ch=2 v=8026
32845 Pb ch=2 v=8192
32976 On ch=2 n=71 v=110
32977 On ch=2 n=64 v=110
33000 Off ch=2 n=71 v=64
33000 Off ch=2 n=64 v=64
33000 On ch=2 n=74 v=110
33001 On ch=2 n=67 v=110
33071 ChPr ch=2 v=2
33074 ChPr ch=2 v=4
33076 ChPr ch=2 v=6
33079 ChPr ch=2 v=8
33082 ChPr ch=2 v=11
33085 ChPr ch=2 v=13
33088 ChPr ch=2 v=15
33090 ChPr ch=2 v=17
33093 ChPr ch=2 v=21
33093 Par ch=2 c=1 v=1
33096 Par ch=2 c=1 v=3
33096 ChPr ch=2 v=25
33099 Par ch=2 c=1 v=6
33099 ChPr ch=2 v=28
33102 ChPr ch=2 v=31
33102 Par ch=2 c=1 v=10
33104 Par ch=2 c=1 v=12
33105 ChPr ch=2 v=34
33107 Par ch=2 c=1 v=13
33108 ChPr ch=2 v=36
33110 ChPr ch=2 v=39
33110 Par ch=2 c=1 v=15
33113 Par ch=2 c=1 v=18
33113 ChPr ch=2 v=41
33116 ChPr ch=2 v=42
33116 Par ch=2 c=1 v=20
33119 Par ch=2 c=1 v=23
33119 ChPr ch=2 v=45
33121 Par ch=2 c=1 v=27
33122 ChPr ch=2 v=47
33124 Par ch=2 c=1 v=30
33125 ChPr ch=2 v=49
33127 ChPr ch=2 v=52
33127 Par ch=2 c=1 v=33
33130 Par ch=2 c=1 v=35
33130 ChPr ch=2 v=55
33133 Par ch=2 c=1 v=37
33133 ChPr ch=2 v=56
33136 ChPr ch=2 v=59
33136 Par ch=2 c=1 v=42
33138 Par ch=2 c=1 v=45
33139 ChPr ch=2 v=60
33141 Par ch=2 c=1 v=49
33142 ChPr ch=2 v=62
33144 ChPr ch=2 v=64
33144 Par ch=2 c=1 v=51
33147 Par ch=2 c=1 v=53
33147 ChPr ch=2 v=67
33150 ChPr ch=2 v=69
33150 Par ch=2 c=1 v=58
33153 Par ch=2 c=1 v=61
33153 ChPr ch=2 v=71
33155 Par ch=2 c=1 v=62
33156 ChPr ch=2 v=73
33158 Par ch=2 c=1 v=65
33161 Par ch=2 c=1 v=68
33164 Par ch=2 c=1 v=71
33167 Par ch=2 c=1 v=74
33167 ChPr ch=2 v=72
33170 ChPr ch=2 v=70
33172 Par ch=2 c=1 v=75
33173 ChPr ch=2 v=66
33175 ChPr ch=2 v=62
33175 Par ch=2 c=1 v=77
33178 Par ch=2 c=1 v=78
33178 ChPr ch=2 v=55
33181 Par ch=2 c=1 v=80
33181 ChPr ch=2 v=52
33184 ChPr ch=2 v=48
33184 Par ch=2 c=1 v=82
33186 Par ch=2 c=1 v=83
33187 ChPr ch=2 v=44
33189 ChPr ch=2 v=37
33192 ChPr ch=2 v=29
33195 ChPr ch=2 v=21
33198 ChPr ch=2 v=17
33201 ChPr ch=2 v=13
33203 ChPr ch=2 v=8
33206 ChPr ch=2 v=5
33209 ChPr ch=2 v=3
33212 ChPr ch=2 v=1
33214 Par ch=2 c=1 v=84
33217 Par ch=2 c=1 v=85
33220 Par ch=2 c=1 v=86
33221 ChPr ch=2 v=2
33223 ChPr ch=2 v=3
33226 Par ch=2 c=1 v=87
33229 ChPr ch=2 v=1
33231 Par ch=2 c=1 v=88
33232 ChPr ch=2 v=0
33237 Par ch=2 c=1 v=90
33240 Par ch=2 c=1 v=91
33243 Par ch=2 c=1 v=92
33285 Par ch=2 c=1 v=91
33288 Par ch=2 c=1 v=87
33291 Par ch=2 c=1 v=84
33294 Par ch=2 c=1 v=76
33296 Par ch=2 c=1 v=65
33299 Par ch=2 c=1 v=45
33302 Par ch=2 c=1 v=12
33305 Off ch=2 n=74 v=64
33305 Par ch=2 c=1 v=0
33311 Off ch=2 n=67 v=64
33324 Pb ch=2 v=7860
33327 Pb ch=2 v=6454
33330 Pb ch=2 v=5626
33333 Pb ch=2 v=5130
33336 Pb ch=2 v=4882
33338 Pb ch=2 v=4716
33341 Pb ch=2 v=4633
33343 On ch=2 n=76 v=110
33344 Pb ch=2 v=4385
33344 On ch=2 n=83 v=110
33347 Pb ch=2 v=4054
33350 Pb ch=2 v=3806
33375 Pb ch=2 v=4302
33378 Pb ch=2 v=5047
33381 Pb ch=2 v=5874
33384 Pb ch=2 v=6536
33386 Pb ch=2 v=6867
33389 ChPr ch=2 v=3
33389 Pb ch=2 v=7447
33392 ChPr ch=2 v=7
33392 Pb ch=2 v=8026
33394 ChPr ch=2 v=11
33395 Pb ch=2 v=8192
33397 ChPr ch=2 v=14
33400 ChPr ch=2 v=17
33403 ChPr ch=2 v=19
33406 ChPr ch=2 v=21
33409 ChPr ch=2 v=22
33415 ChPr ch=2 v=26
33418 ChPr ch=2 v=28
33421 Par ch=2 c=1 v=2
33423 Par ch=2 c=1 v=6
33424 ChPr ch=2 v=31
33426 Par ch=2 c=1 v=11
33427 ChPr ch=2 v=33
33429 ChPr ch=2 v=35
33429 Par ch=2 c=1 v=15
33432 Par ch=2 c=1 v=20
33435 Par ch=2 c=1 v=25
33435 ChPr ch=2 v=36
33438 Par ch=2 c=1 v=28
33440 Par ch=2 c=1 v=30
33441 ChPr ch=2 v=38
33443 Par ch=2 c=1 v=31
33446 Par ch=2 c=1 v=33
33452 Par ch=2 c=1 v=34
33455 Par ch=2 c=1 v=35
33457 Par ch=2 c=1 v=37
33459 ChPr ch=2 v=35
33460 Par ch=2 c=1 v=41
33461 ChPr ch=2 v=32
33463 Par ch=2 c=1 v=43
33464 ChPr ch=2 v=29
33466 Par ch=2 c=1 v=46
33467 ChPr ch=2 v=26
33469 Par ch=2 c=1 v=52
33470 ChPr ch=2 v=22
33471 Par ch=2 c=1 v=60
33473 ChPr ch=2 v=19
33474 Par ch=2 c=1 v=65
33476 ChPr ch=2 v=15
33477 Par ch=2 c=1 v=73
33479 ChPr ch=2 v=11
33480 Par ch=2 c=1 v=77
33482 ChPr ch=2 v=5
33483 Par ch=2 c=1 v=84
33485 ChPr ch=2 v=1
33485 Par ch=2 c=1 v=88
33488 ChPr ch=2 v=0
33488 Par ch=2 c=1 v=94
33491 Par ch=2 c=1 v=100
33494 Par ch=2 c=1 v=106
33497 Par ch=2 c=1 v=111
33499 Par ch=2 c=1 v=116
33502 Par ch=2 c=1 v=120
33505 Par ch=2 c=1 v=126
33508 Par ch=2 c=1 v=127
33528 Par ch=2 c=1 v=117
33531 Par ch=2 c=1 v=100
33533 Par ch=2 c=1 v=77
33536 Par ch=2 c=1 v=50
33539 Par ch=2 c=1 v=19
33542 Par ch=2 c=1 v=0
33552 Off ch=2 n=76 v=64
33552 Off ch=2 n=83 v=64
33556 On ch=2 n=79 v=110
33556 On ch=2 n=72 v=110
33604 Par ch=2 c=1 v=4
33607 Par ch=2 c=1 v=7
33609 Par ch=2 c=1 v=11
33612 Par ch=2 c=1 v=14
33615 Par ch=2 c=1 v=19
33618 Par ch=2 c=1 v=22
33621 Par ch=2 c=1 v=26
33624 Par ch=2 c=1 v=30
33626 Par ch=2 c=1 v=33
33629 Par ch=2 c=1 v=34
33632 Par ch=2 c=1 v=36
33635 Par ch=2 c=1 v=38
33638 Par ch=2 c=1 v=43
33641 Par ch=2 c=1 v=46
33643 Par ch=2 c=1 v=50
33646 Par ch=2 c=1 v=51
33649 Par ch=2 c=1 v=53
33652 Par ch=2 c=1 v=57
33655 Par ch=2 c=1 v=61
33658 Par ch=2 c=1 v=65
33660 Par ch=2 c=1 v=70
33663 Par ch=2 c=1 v=74
33666 Par ch=2 c=1 v=77
33669 Par ch=2 c=1 v=83
33672 Par ch=2 c=1 v=88
33675 Par ch=2 c=1 v=93
33677 Par ch=2 c=1 v=99
33680 Par ch=2 c=1 v=103
33683 Par ch=2 c=1 v=106
33686 Par ch=2 c=1 v=108
33689 Par ch=2 c=1 v=112
33691 Par ch=2 c=1 v=116
33694 Par ch=2 c=1 v=119
33697 Par ch=2 c=1 v=124
33700 Par ch=2 c=1 v=127
33728 Par ch=2 c=1 v=124
33731 Par ch=2 c=1 v=100
33734 Par ch=2 c=1 v=70
33736 Par ch=2 c=1 v=38
33739 Par ch=2 c=1 v=7
33740 Off ch=2 n=79 v=64
33742 Off ch=2 n=72 v=64
33742 Par ch=2 c=1 v=0
33744 On ch=2 n=79 v=110
33744 On ch=2 n=86 v=110
33802 Par ch=2 c=1 v=3
33804 Par ch=2 c=1 v=5
33807 Par ch=2 c=1 v=9
33810 Par ch=2 c=1 v=13
33813 Par ch=2 c=1 v=18
33816 Par ch=2 c=1 v=22
33818 Par ch=2 c=1 v=26
33821 Par ch=2 c=1 v=28
33824 Par ch=2 c=1 v=31
33827 Par ch=2 c=1 v=33
33829 ChPr ch=2 v=1
33830 Par ch=2 c=1 v=35
33832 ChPr ch=2 v=2
33832 Par ch=2 c=1 v=37
33835 Par ch=2 c=1 v=39
33837 ChPr ch=2 v=5
33838 Par ch=2 c=1 v=42
33840 ChPr ch=2 v=7
33841 Par ch=2 c=1 v=45
33844 Par ch=2 c=1 v=46
33846 Par ch=2 c=1 v=49
33846 ChPr ch=2 v=9
33849 Par ch=2 c=1 v=51
33852 Par ch=2 c=1 v=53
33852 ChPr ch=2 v=12
33855 Par ch=2 c=1 v=57
33858 Par ch=2 c=1 v=60
33861 Par ch=2 c=1 v=61
33861 ChPr ch=2 v=14
33863 Par ch=2 c=1 v=62
33866 Par ch=2 c=1 v=65
33869 Par ch=2 c=1 v=67
33870 ChPr ch=2 v=16
33872 Par ch=2 c=1 v=70
33875 Par ch=2 c=1 v=71
33878 Par ch=2 c=1 v=73
33880 Par ch=2 c=1 v=74
33883 Par ch=2 c=1 v=75
33884 ChPr ch=2 v=18
33886 Par ch=2 c=1 v=76
33889 Par ch=2 c=1 v=78
33892 Par ch=2 c=1 v=80
33895 Par ch=2 c=1 v=84
33897 Par ch=2 c=1 v=85
33900 Par ch=2 c=1 v=87
33906 Par ch=2 c=1 v=90
33907 ChPr ch=2 v=17
33909 Par ch=2 c=1 v=92
33912 Par ch=2 c=1 v=93
33914 Par ch=2 c=1 v=94
33917 Par ch=2 c=1 v=96
33920 Par ch=2 c=1 v=99
33922 ChPr ch=2 v=14
33923 Par ch=2 c=1 v=101
33926 Par ch=2 c=1 v=102
33931 ChPr ch=2 v=12
33931 Par ch=2 c=1 v=103
33937 Par ch=2 c=1 v=104
33937 ChPr ch=2 v=9
33940 Par ch=2 c=1 v=106
33942 Par ch=2 c=1 v=107
33942 ChPr ch=2 v=7
33945 Par ch=2 c=1 v=108
33948 Par ch=2 c=1 v=110
33948 ChPr ch=2 v=4
33951 ChPr ch=2 v=3
33954 Par ch=2 c=1 v=111
33954 ChPr ch=2 v=1
33957 Par ch=2 c=1 v=112
33959 Par ch=2 c=1 v=114
33962 Par ch=2 c=1 v=115
33965 Par ch=2 c=1 v=116
33966 ChPr ch=2 v=0
33968 Par ch=2 c=1 v=117
33971 Par ch=2 c=1 v=118
33973 Par ch=2 c=1 v=119
33976 Par ch=2 c=1 v=120
33979 Par ch=2 c=1 v=123
33982 Par ch=2 c=1 v=124
33985 Par ch=2 c=1 v=125
33988 Par ch=2 c=1 v=127
34049 Off ch=2 n=79 v=64
34056 Off ch=2 n=86 v=64
34061 Par ch=2 c=1 v=100
34064 Par ch=2 c=1 v=66
34067 Par ch=2 c=1 v=34
34069 Par ch=2 c=1 v=5
34072 Par ch=2 c=1 v=0
34124 On ch=2 n=95 v=110
34124 On ch=2 n=88 v=110
34132 ChPr ch=2 v=1
34135 ChPr ch=2 v=7
34138 ChPr ch=2 v=5
34141 ChPr ch=2 v=1
34143 ChPr ch=2 v=0
34168 Par ch=2 c=1 v=1
34170 ChPr ch=2 v=6
34171 Par ch=2 c=1 v=3
34173 ChPr ch=2 v=11
34174 Par ch=2 c=1 v=6
34176 ChPr ch=2 v=16
34176 Par ch=2 c=10 v=0
34177 Par ch=2 c=1 v=11
34178 ChPr ch=2 v=19
34179 Par ch=2 c=1 v=14
34181 ChPr ch=2 v=22
34182 Par ch=2 c=1 v=17
34184 ChPr ch=2 v=23
34185 Par ch=2 c=1 v=19
34188 Par ch=2 c=1 v=21
34191 Par ch=2 c=1 v=25
34193 Par ch=2 c=1 v=27
34193 ChPr ch=2 v=26
34196 ChPr ch=2 v=28
34196 Par ch=2 c=1 v=31
34199 ChPr ch=2 v=29
34199 Par ch=2 c=1 v=33
34202 Par ch=2 c=1 v=35
34202 ChPr ch=2 v=32
34205 ChPr ch=2 v=33
34205 Par ch=2 c=1 v=38
34208 Par ch=2 c=1 v=41
34208 ChPr ch=2 v=36
34210 Par ch=2 c=1 v=43
34211 ChPr ch=2 v=38
34213 ChPr ch=2 v=40
34213 Par ch=2 c=1 v=46
34216 Par ch=2 c=1 v=49
34219 Par ch=2 c=1 v=51
34219 ChPr ch=2 v=42
34222 Par ch=2 c=1 v=53
34222 Par ch=2 c=10 v=64
34225 ChPr ch=2 v=45
34227 Par ch=2 c=1 v=54
34228 ChPr ch=2 v=46
34230 Par ch=2 c=1 v=57
34233 Par ch=2 c=1 v=59
34234 ChPr ch=2 v=48
34236 Par ch=2 c=1 v=61
34239 Par ch=2 c=1 v=65
34240 ChPr ch=2 v=51
34242 Par ch=2 c=1 v=67
34244 Par ch=2 c=1 v=69
34245 ChPr ch=2 v=53
34247 Par ch=2 c=1 v=73
34253 Par ch=2 c=1 v=74
34254 ChPr ch=2 v=55
34256 Par ch=2 c=1 v=75
34259 Par ch=2 c=1 v=76
34261 Par ch=2 c=1 v=78
34264 Par ch=2 c=1 v=79
34267 Par ch=2 c=1 v=80
34270 Par ch=2 c=1 v=83
34273 Par ch=2 c=1 v=84
34273 Par ch=2 c=10 v=127
34275 Par ch=2 c=1 v=86
34278 ChPr ch=2 v=53
34281 Par ch=2 c=1 v=87
34284 Par ch=2 c=1 v=88
34287 Par ch=2 c=1 v=90
34289 Par ch=2 c=1 v=92
34292 Par ch=2 c=1 v=93
34295 Par ch=2 c=1 v=94
34298 Par ch=2 c=1 v=96
34301 ChPr ch=2 v=51
34303 Par ch=2 c=1 v=98
34306 Par ch=2 c=1 v=100
34307 ChPr ch=2 v=48
34309 Par ch=2 c=1 v=101
34310 ChPr ch=2 v=46
34312 Par ch=2 c=1 v=102
34313 ChPr ch=2 v=44
34315 Par ch=2 c=1 v=104
34315 ChPr ch=2 v=42
34318 Par ch=2 c=1 v=106
34318 ChPr ch=2 v=41
34318 Par ch=2 c=10 v=64
34323 Par ch=2 c=1 v=107
34327 ChPr ch=2 v=39
34335 Par ch=2 c=1 v=108
34337 Par ch=2 c=1 v=110
34339 ChPr ch=2 v=41
34343 Par ch=2 c=1 v=111
34345 ChPr ch=2 v=42
34346 Par ch=2 c=1 v=112
34350 ChPr ch=2 v=45
34352 Par ch=2 c=1 v=114
34353 ChPr ch=2 v=46
34357 Par ch=2 c=1 v=115
34359 ChPr ch=2 v=48
34365 ChPr ch=2 v=50
34371 ChPr ch=2 v=52
34371 Par ch=2 c=10 v=0
34383 Par ch=2 c=1 v=116
34400 ChPr ch=2 v=50
34411 Par ch=2 c=1 v=117
34419 Par ch=2 c=1 v=118
34419 Par ch=2 c=10 v=64
34426 ChPr ch=2 v=51
34433 Par ch=2 c=1 v=119
34435 ChPr ch=2 v=50
34447 Par ch=2 c=1 v=120
34449 ChPr ch=2 v=51
34453 Par ch=2 c=1 v=122
34456 Par ch=2 c=1 v=123
34462 Par ch=2 c=1 v=124
34464 Par ch=2 c=1 v=125
34464 Par ch=2 c=10 v=127
34473 Par ch=2 c=1 v=126
34487 ChPr ch=2 v=53
34493 Par ch=2 c=1 v=127
34505 ChPr ch=2 v=55
34519 ChPr ch=2 v=56
34551 ChPr ch=2 v=58
34619 ChPr ch=2 v=56
34653 ChPr ch=2 v=53
34665 ChPr ch=2 v=51
34668 ChPr ch=2 v=50
34674 ChPr ch=2 v=48
34680 ChPr ch=2 v=46
34683 ChPr ch=2 v=43
34686 ChPr ch=2 v=41
34688 ChPr ch=2 v=40
34691 ChPr ch=2 v=38
34694 ChPr ch=2 v=36
34700 ChPr ch=2 v=33
34703 ChPr ch=2 v=30
34709 ChPr ch=2 v=27
34715 ChPr ch=2 v=23
34718 ChPr ch=2 v=21
34721 ChPr ch=2 v=17
34723 ChPr ch=2 v=14
34726 ChPr ch=2 v=11
34729 ChPr ch=2 v=8
34732 ChPr ch=2 v=5
34735 ChPr ch=2 v=1
34738 ChPr ch=2 v=0
34808 Off ch=2 n=95 v=64
34810 Off ch=2 n=88 v=64
34810 On ch=2 n=66 v=110
34810 On ch=2 n=59 v=110
34811 Par ch=2 c=1 v=126
34814 Par ch=2 c=1 v=116
34817 Par ch=2 c=1 v=104
34820 Par ch=2 c=1 v=88
34823 Par ch=2 c=1 v=69
34826 Par ch=2 c=1 v=44
34828 Par ch=2 c=1 v=18
34831 Par ch=2 c=1 v=0
34855 Off ch=2 n=66 v=64
34855 Off ch=2 n=59 v=64
34855 On ch=2 n=62 v=110
34855 On ch=2 n=55 v=110
34900 Off ch=2 n=62 v=64
34900 Off ch=2 n=55 v=64
34900 On ch=2 n=64 v=110
34900 On ch=2 n=57 v=110
34944 Par ch=2 c=10 v=64
34945 On ch=2 n=79 v=110
34945 On ch=2 n=72 v=110
34947 Off ch=2 n=57 v=64
34947 Off ch=2 n=64 v=64
35028 Off ch=2 n=79 v=64
35029 On ch=2 n=67 v=110
35030 Off ch=2 n=72 v=64
35031 On ch=2 n=74 v=110
35124 Par ch=2 c=1 v=4
35127 Par ch=2 c=1 v=13
35130 Par ch=2 c=1 v=23
35132 Par ch=2 c=1 v=33
35135 Par ch=2 c=1 v=44
35138 Par ch=2 c=1 v=54
35141 Par ch=2 c=1 v=65
35144 Par ch=2 c=1 v=76
35146 Par ch=2 c=1 v=88
35149 Par ch=2 c=1 v=100
35152 Par ch=2 c=1 v=110
35155 Par ch=2 c=1 v=118
35158 Par ch=2 c=1 v=125
35161 Par ch=2 c=1 v=127
35172 Pb ch=2 v=8192
35175 Pb ch=2 v=8080
35177 Par ch=2 c=1 v=114
35178 Pb ch=2 v=7968
35180 Par ch=2 c=1 v=80
35181 Pb ch=2 v=7856
35183 Par ch=2 c=1 v=0
35184 Pb ch=2 v=7744
35187 Pb ch=2 v=7632
35190 Pb ch=2 v=7519
35193 Pb ch=2 v=7407
35196 Pb ch=2 v=7295
35199 Pb ch=2 v=7183
35202 Pb ch=2 v=7071
35205 Pb ch=2 v=6958
35208 Pb ch=2 v=6846
35211 Pb ch=2 v=6734
35214 Pb ch=2 v=6622
35215 Pb ch=2 v=6554
35232 Off ch=2 n=74 v=64
35232 Pb ch=2 v=8192
35233 On ch=2 n=71 v=110
35233 On ch=2 n=64 v=110
35234 Off ch=2 n=67 v=64
35297 Off ch=2 n=71 v=64
35297 Off ch=2 n=64 v=64
35394 Par ch=2 c=10 v=0
35397 On ch=2 n=72 v=110
35397 On ch=2 n=79 v=110
35408 Off ch=2 n=72 v=64
35408 Off ch=2 n=79 v=64
35408 On ch=2 n=69 v=110
35408 On ch=2 n=76 v=110
35514 Par ch=2 c=10 v=64
35516 Off ch=2 n=69 v=64
35516 Off ch=2 n=76 v=64
35516 On ch=2 n=67 v=110
35516 On ch=2 n=74 v=110
35537 Off ch=2 n=67 v=64
35537 Off ch=2 n=74 v=64
35614 On ch=2 n=76 v=110
35614 On ch=2 n=69 v=110
35793 Off ch=2 n=69 v=64
35793 Off ch=2 n=76 v=64
35815 On ch=2 n=79 v=110
35815 On ch=2 n=72 v=110
35837 Off ch=2 n=79 v=64
35837 Off ch=2 n=72 v=64
35901 On ch=2 n=81 v=110
35901 On ch=2 n=74 v=110
35923 Off ch=2 n=81 v=64
35923 Off ch=2 n=74 v=64
35951 On ch=2 n=79 v=110
35951 On ch=2 n=72 v=110
35968 Off ch=2 n=79 v=64
35968 Off ch=2 n=72 v=64
35998 On ch=2 n=69 v=110
35998 On ch=2 n=76 v=110
36010 Off ch=2 n=69 v=64
36010 Off ch=2 n=76 v=64
36011 On ch=2 n=71 v=110
36011 On ch=2 n=64 v=110
36128 Off ch=2 n=64 v=64
36128 Off ch=2 n=71 v=64
36184 Par ch=2 c=10 v=127
36189 Par ch=2 c=10 v=126
36189 On ch=2 n=62 v=110
36189 On ch=2 n=55 v=110
36194 Par ch=2 c=10 v=125
36199 Par ch=2 c=10 v=124
36205 Par ch=2 c=10 v=123
36210 Par ch=2 c=10 v=122
36215 Par ch=2 c=10 v=121
36220 Par ch=2 c=10 v=120
36226 Par ch=2 c=10 v=119
36231 Par ch=2 c=10 v=118
36236 Par ch=2 c=10 v=117
36241 Par ch=2 c=10 v=116
36247 Par ch=2 c=10 v=115
36252 Par ch=2 c=10 v=114
36257 Par ch=2 c=10 v=113
36263 Par ch=2 c=10 v=112
36268 Par ch=2 c=10 v=111
36273 Par ch=2 c=10 v=110
36278 Par ch=2 c=10 v=109
36284 Par ch=2 c=10 v=108
36289 Par ch=2 c=10 v=107
36294 Par ch=2 c=10 v=106
36299 Par ch=2 c=10 v=105
36305 Par ch=2 c=10 v=104
36310 Par ch=2 c=10 v=103
36315 Par ch=2 c=10 v=102
36320 Par ch=2 c=10 v=101
36326 Par ch=2 c=10 v=100
36331 Par ch=2 c=10 v=99
36336 Par ch=2 c=10 v=98
36342 Par ch=2 c=10 v=97
36347 Par ch=2 c=10 v=96
36352 Par ch=2 c=10 v=95
36357 Par ch=2 c=10 v=94
36363 Par ch=2 c=10 v=93
36368 Par ch=2 c=10 v=92
36369 Pb ch=2 v=8447
36373 Par ch=2 c=10 v=91
36375 Pb ch=2 v=8576
36378 Par ch=2 c=10 v=90
36384 Par ch=2 c=10 v=89
36387 Pb ch=2 v=8832
36389 Par ch=2 c=10 v=88
36393 Pb ch=2 v=9087
36394 Par ch=2 c=10 v=87
36399 Par ch=2 c=10 v=86
36404 Pb ch=2 v=9344
36405 Par ch=2 c=10 v=85
36410 Par ch=2 c=10 v=84
36415 Par ch=2 c=10 v=83
36416 Pb ch=2 v=9600
36421 Par ch=2 c=10 v=82
36425 Pb ch=2 v=9855
36426 Par ch=2 c=10 v=81
36431 Par ch=2 c=10 v=80
36436 Par ch=2 c=10 v=79
36442 Par ch=2 c=10 v=78
36447 Par ch=2 c=10 v=77
36451 Pb ch=2 v=10111
36452 Par ch=2 c=10 v=76
36457 Par ch=2 c=10 v=75
36460 Pb ch=2 v=10240
36463 Par ch=2 c=10 v=74
36468 Par ch=2 c=10 v=73
36473 Par ch=2 c=10 v=72
36477 Pb ch=2 v=10496
36478 Par ch=2 c=10 v=71
36484 Par ch=2 c=10 v=70
36489 Pb ch=2 v=10751
36489 Par ch=2 c=10 v=69
36494 Par ch=2 c=10 v=68
36500 Par ch=2 c=10 v=67
36501 Pb ch=2 v=11008
36505 Par ch=2 c=10 v=66
36510 Par ch=2 c=10 v=65
36515 Pb ch=2 v=11263
36515 Par ch=2 c=10 v=64
36518 Off ch=2 n=55 v=64
36518 Off ch=2 n=62 v=64
36550 Pb ch=2 v=11007
36553 Pb ch=2 v=10367
36556 Pb ch=2 v=9344
36559 Pb ch=2 v=8319
36562 Pb ch=2 v=8192
36577 On ch=2 n=69 v=110
36579 On ch=2 n=64 v=110
36624 Off ch=2 n=69 v=64
36624 Off ch=2 n=64 v=64
36624 On ch=2 n=64 v=110
36624 On ch=2 n=71 v=110
36671 Off ch=2 n=64 v=64
36671 Off ch=2 n=71 v=64
36671 On ch=2 n=67 v=110
36671 On ch=2 n=74 v=110
36720 Off ch=2 n=67 v=64
36720 Off ch=2 n=74 v=64
36720 On ch=2 n=69 v=110
36720 On ch=2 n=76 v=110
36792 Pb ch=2 v=8064
36795 Pb ch=2 v=7935
36801 Pb ch=2 v=7679
36809 Pb ch=2 v=7296
36812 Pb ch=2 v=7039
36815 Pb ch=2 v=6656
36818 Pb ch=2 v=6400
36824 Pb ch=2 v=6144
36830 Pb ch=2 v=6015
36836 Pb ch=2 v=5504
36847 Pb ch=2 v=6143
36850 Pb ch=2 v=6656
36853 Pb ch=2 v=7552
36856 Pb ch=2 v=8063
36859 Pb ch=2 v=8192
36891 Pb ch=2 v=8064
36897 Pb ch=2 v=7679
36903 Pb ch=2 v=7040
36906 Pb ch=2 v=6655
36909 Pb ch=2 v=6144
36911 Pb ch=2 v=6015
36914 Pb ch=2 v=5632
36920 Pb ch=2 v=5375
36941 Pb ch=2 v=5632
36944 Pb ch=2 v=5887
36946 Pb ch=2 v=6271
36949 Pb ch=2 v=6655
36952 Pb ch=2 v=7040
36955 Pb ch=2 v=7423
36958 Pb ch=2 v=7807
36961 Pb ch=2 v=8064
36964 Pb ch=2 v=8192
37008 Pb ch=2 v=8063
37011 Pb ch=2 v=7552
37013 Pb ch=2 v=7040
37016 Pb ch=2 v=6783
37022 Pb ch=2 v=6272
37034 Pb ch=2 v=6143
37043 Pb ch=2 v=6272
37048 Pb ch=2 v=6655
37051 Pb ch=2 v=6911
37054 Pb ch=2 v=7167
37057 Pb ch=2 v=7423
37060 Pb ch=2 v=7679
37063 Pb ch=2 v=7936
37066 Pb ch=2 v=8192
37118 Pb ch=2 v=7936
37121 Pb ch=2 v=7552
37124 Pb ch=2 v=7296
37127 Pb ch=2 v=7040
37133 Pb ch=2 v=6783
37153 Pb ch=2 v=7167
37156 Pb ch=2 v=7423
37159 Pb ch=2 v=7679
37162 Pb ch=2 v=7936
37165 Pb ch=2 v=8192
37192 Off ch=2 n=69 v=64
37192 Off ch=2 n=76 v=64
37199 On ch=2 n=88 v=110
37199 On ch=2 n=81 v=110
37235 Pb ch=2 v=7808
37238 Pb ch=2 v=7551
37241 Pb ch=2 v=7167
37244 Pb ch=2 v=6912
37247 Pb ch=2 v=6656
37264 Pb ch=2 v=7167
37267 Pb ch=2 v=7551
37270 Pb ch=2 v=7935
37273 Pb ch=2 v=8192
37339 Off ch=2 n=81 v=64
37339 Off ch=2 n=88 v=64
37348 On ch=2 n=83 v=110
37348 On ch=2 n=76 v=110
37374 Off ch=2 n=83 v=64
37374 Off ch=2 n=76 v=64
37391 On ch=2 n=86 v=110
37391 On ch=2 n=79 v=110
37436 Off ch=2 n=86 v=64
37436 Off ch=2 n=79 v=64
37436 On ch=2 n=88 v=110
37436 On ch=2 n=81 v=110
37476 Off ch=2 n=88 v=64
37476 Off ch=2 n=81 v=64
37476 On ch=2 n=91 v=110
37476 On ch=2 n=84 v=110
37504 Off ch=2 n=91 v=64
37504 Off ch=2 n=84 v=64
37504 On ch=2 n=90 v=110
37504 On ch=2 n=83 v=110
37532 Off ch=2 n=90 v=64
37532 Off ch=2 n=83 v=64
37532 On ch=2 n=91 v=110
37532 On ch=2 n=84 v=110
37551 Off ch=2 n=91 v=64
37551 Off ch=2 n=84 v=64
37551 On ch=2 n=90 v=110
37551 On ch=2 n=83 v=110
37576 Off ch=2 n=90 v=64
37576 Off ch=2 n=83 v=64
37576 On ch=2 n=88 v=110
37576 On ch=2 n=81 v=110
37602 Off ch=2 n=88 v=64
37602 Off ch=2 n=81 v=64
37602 On ch=2 n=86 v=110
37602 On ch=2 n=79 v=110
37632 Off ch=2 n=86 v=64
37632 Off ch=2 n=79 v=64
37632 On ch=2 n=88 v=110
37632 On ch=2 n=81 v=110
37648 Off ch=2 n=88 v=64
37648 Off ch=2 n=81 v=64
37648 On ch=2 n=83 v=110
37648 On ch=2 n=76 v=110
37668 Off ch=2 n=83 v=64
37668 Off ch=2 n=76 v=64
37668 On ch=2 n=86 v=110
37668 On ch=2 n=79 v=110
37686 Off ch=2 n=86 v=64
37686 Off ch=2 n=79 v=64
37686 On ch=2 n=83 v=110
37686 On ch=2 n=76 v=110
37704 Off ch=2 n=83 v=64
37704 Off ch=2 n=76 v=64
37704 On ch=2 n=86 v=110
37704 On ch=2 n=79 v=110
37720 Off ch=2 n=86 v=64
37720 Off ch=2 n=79 v=64
37720 On ch=2 n=83 v=110
37720 On ch=2 n=76 v=110
37740 Off ch=2 n=83 v=64
37740 Off ch=2 n=76 v=64
37740 On ch=2 n=81 v=110
37740 On ch=2 n=74 v=110
37754 Off ch=2 n=81 v=64
37754 Off ch=2 n=74 v=64
37754 On ch=2 n=83 v=110
37754 On ch=2 n=76 v=110
37768 Off ch=2 n=83 v=64
37768 Off ch=2 n=76 v=64
37768 On ch=2 n=81 v=110
37768 On ch=2 n=74 v=110
37780 Off ch=2 n=81 v=64
37780 Off ch=2 n=74 v=64
37780 On ch=2 n=76 v=110
37780 On ch=2 n=69 v=110
37792 Off ch=2 n=76 v=64
37792 Off ch=2 n=69 v=64
37792 On ch=2 n=81 v=110
37792 On ch=2 n=74 v=110
37808 Off ch=2 n=81 v=64
37808 Off ch=2 n=74 v=64
37808 Pb ch=2 v=4915
37808 On ch=2 n=81 v=110
37808 On ch=2 n=74 v=110
37811 Pb ch=2 v=5175
37814 Pb ch=2 v=5435
37817 Pb ch=2 v=5695
37820 Pb ch=2 v=5955
37823 Pb ch=2 v=6215
37826 Pb ch=2 v=6475
37829 Pb ch=2 v=6735
37832 Pb ch=2 v=6995
37835 Pb ch=2 v=7255
37838 Pb ch=2 v=7515
37841 Pb ch=2 v=7775
37844 Pb ch=2 v=8035
37845 Pb ch=2 v=8192
37940 Pb ch=2 v=8192
37943 Pb ch=2 v=8004
37946 Pb ch=2 v=7816
37949 Pb ch=2 v=7628
37952 Pb ch=2 v=7440
37955 Pb ch=2 v=7252
37958 Pb ch=2 v=7064
37961 Pb ch=2 v=6876
37964 Pb ch=2 v=6688
37967 Pb ch=2 v=6500
37970 Pb ch=2 v=6312
37973 Pb ch=2 v=6124
37976 Pb ch=2 v=5935
37979 Pb ch=2 v=5747
37982 Pb ch=2 v=5559
37985 Pb ch=2 v=5371
37988 Pb ch=2 v=5183
37991 Pb ch=2 v=4995
37994 Pb ch=2 v=4807
37997 Pb ch=2 v=4619
37998 Off ch=2 n=81 v=64
37998 Off ch=2 n=74 v=64
38000 Pb ch=2 v=4431
38003 Pb ch=2 v=4243
38003 Pb ch=2 v=4192
38003 Meta TrkEnd
TrkEnd
MTrk
0 Meta TrkName "Guitar2"
0 Par ch=3 c=0 v=0
0 PrCh ch=3 p=26
0 Par ch=3 c=10 v=121
0 Par ch=3 c=91 v=120
0 Par ch=3 c=93 v=50
0 TimeSig 4/4 96 8
0 Tempo 480000
1920 On ch=3 n=45 v=100
1920 On ch=3 n=52 v=100
1920 On ch=3 n=57 v=100
2064 Off ch=3 n=45 v=64
2064 Off ch=3 n=52 v=64
2064 Off ch=3 n=57 v=64
2064 On ch=3 n=54 v=100
2064 On ch=3 n=59 v=100
2064 On ch=3 n=47 v=100
2112 Off ch=3 n=54 v=64
2112 Off ch=3 n=59 v=64
2112 Off ch=3 n=47 v=64
2112 On ch=3 n=55 v=100
2112 On ch=3 n=60 v=100
2112 On ch=3 n=48 v=100
2160 Off ch=3 n=55 v=64
2160 Off ch=3 n=60 v=64
2160 Off ch=3 n=48 v=64
2208 On ch=3 n=57 v=100
2208 On ch=3 n=50 v=100
2208 On ch=3 n=62 v=100
2256 Off ch=3 n=57 v=64
2256 Off ch=3 n=50 v=64
2256 Off ch=3 n=62 v=64
2256 On ch=3 n=57 v=100
2256 On ch=3 n=50 v=100
2256 On ch=3 n=62 v=100
2688 Off ch=3 n=50 v=64
2688 Off ch=3 n=57 v=64
2688 Off ch=3 n=62 v=64
2688 On ch=3 n=45 v=100
2688 On ch=3 n=52 v=100
2688 On ch=3 n=57 v=100
2832 Off ch=3 n=45 v=64
2832 Off ch=3 n=52 v=64
2832 Off ch=3 n=57 v=64
2832 On ch=3 n=47 v=100
2832 On ch=3 n=54 v=100
2832 On ch=3 n=59 v=100
2880 Off ch=3 n=47 v=64
2880 Off ch=3 n=54 v=64
2880 Off ch=3 n=59 v=64
2880 On ch=3 n=55 v=100
2880 On ch=3 n=48 v=100
2880 On ch=3 n=60 v=100
2928 Off ch=3 n=55 v=64
2928 Off ch=3 n=60 v=64
2976 Off ch=3 n=48 v=64
2976 On ch=3 n=57 v=100
2976 On ch=3 n=62 v=100
2976 On ch=3 n=50 v=100
3024 Off ch=3 n=57 v=64
3024 Off ch=3 n=62 v=64
3024 Off ch=3 n=50 v=64
3024 On ch=3 n=50 v=100
3024 On ch=3 n=57 v=100
3024 On ch=3 n=62 v=100
3214 Off ch=3 n=50 v=64
3214 Off ch=3 n=57 v=64
3214 Off ch=3 n=62 v=64
3216 On ch=3 n=43 v=100
3262 Off ch=3 n=43 v=64
3264 On ch=3 n=43 v=100
3264 On ch=3 n=50 v=100
3264 On ch=3 n=55 v=100
3456 Off ch=3 n=43 v=64
3456 Off ch=3 n=50 v=64
3456 Off ch=3 n=55 v=64
3456 On ch=3 n=52 v=100
3456 On ch=3 n=45 v=100
3456 On ch=3 n=57 v=100
3600 Off ch=3 n=52 v=64
3600 Off ch=3 n=45 v=64
3600 Off ch=3 n=57 v=64
3600 On ch=3 n=59 v=100
3600 On ch=3 n=54 v=100
3600 On ch=3 n=47 v=100
3648 Off ch=3 n=59 v=64
3648 Off ch=3 n=54 v=64
3648 Off ch=3 n=47 v=64
3648 On ch=3 n=55 v=100
3648 On ch=3 n=60 v=100
3648 On ch=3 n=48 v=100
3696 Off ch=3 n=55 v=64
3696 Off ch=3 n=60 v=64
3696 Off ch=3 n=48 v=64
3744 On ch=3 n=57 v=100
3744 On ch=3 n=50 v=100
3744 On ch=3 n=62 v=100
3792 Off ch=3 n=57 v=64
3792 Off ch=3 n=50 v=64
3792 Off ch=3 n=62 v=64
3792 On ch=3 n=57 v=100
3792 On ch=3 n=50 v=100
3792 On ch=3 n=62 v=100
4224 Off ch=3 n=50 v=64
4224 Off ch=3 n=57 v=64
4224 Off ch=3 n=62 v=64
4224 Par ch=3 c=91 v=64
9312 On ch=3 n=57 v=66
9312 On ch=3 n=62 v=82
9360 Off ch=3 n=57 v=64
9360 Off ch=3 n=62 v=64
9408 On ch=3 n=57 v=80
9408 On ch=3 n=62 v=80
9456 Off ch=3 n=57 v=64
9456 Off ch=3 n=62 v=64
9456 On ch=3 n=60 v=62
9456 On ch=3 n=55 v=72
9504 Off ch=3 n=55 v=64
9504 On ch=3 n=50 v=87
9552 Off ch=3 n=50 v=64
9552 On ch=3 n=50 v=82
9564 Off ch=3 n=60 v=64
9568 Pb ch=3 v=8192
9571 Pb ch=3 v=8814
9574 Pb ch=3 v=9436
9577 Pb ch=3 v=10058
9580 Pb ch=3 v=10680
9583 Pb ch=3 v=11302
9583 Pb ch=3 v=11468
9598 Off ch=3 n=50 v=64
9600 Pb ch=3 v=8192
13104 On ch=3 n=60 v=40
13152 Off ch=3 n=60 v=64
13152 On ch=3 n=59 v=40
13200 Off ch=3 n=59 v=64
13200 On ch=3 n=55 v=40
13248 Off ch=3 n=55 v=64
13248 On ch=3 n=59 v=40
13296 Off ch=3 n=59 v=64
13296 On ch=3 n=55 v=40
13488 Off ch=3 n=55 v=64
13872 On ch=3 n=60 v=40
13920 Off ch=3 n=60 v=64
13920 On ch=3 n=59 v=40
13968 Off ch=3 n=59 v=64
13968 On ch=3 n=55 v=40
14016 Off ch=3 n=55 v=64
14016 On ch=3 n=59 v=40
14064 Off ch=3 n=59 v=64
14064 On ch=3 n=55 v=40
14208 Off ch=3 n=55 v=64
14640 On ch=3 n=60 v=40
14688 Off ch=3 n=60 v=64
14688 On ch=3 n=59 v=40
14736 Off ch=3 n=59 v=64
14736 On ch=3 n=55 v=40
14784 Off ch=3 n=55 v=64
14784 On ch=3 n=59 v=40
14832 Off ch=3 n=59 v=64
14832 On ch=3 n=55 v=40
14976 Off ch=3 n=55 v=64
22704 On ch=3 n=60 v=40
22752 Off ch=3 n=60 v=64
22752 On ch=3 n=59 v=40
22800 Off ch=3 n=59 v=64
22800 On ch=3 n=55 v=40
22848 Off ch=3 n=55 v=64
22848 On ch=3 n=59 v=40
22896 Off ch=3 n=59 v=64
22896 On ch=3 n=55 v=40
23088 Off ch=3 n=55 v=64
23472 On ch=3 n=60 v=40
23520 Off ch=3 n=60 v=64
23520 On ch=3 n=59 v=40
23568 Off ch=3 n=59 v=64
23568 On ch=3 n=55 v=40
23616 Off ch=3 n=55 v=64
23616 On ch=3 n=59 v=40
23664 Off ch=3 n=59 v=64
23664 On ch=3 n=55 v=40
23808 Off ch=3 n=55 v=64
24240 On ch=3 n=60 v=40
24288 Off ch=3 n=60 v=64
24288 On ch=3 n=59 v=40
24336 Off ch=3 n=59 v=64
24336 On ch=3 n=55 v=40
24384 Off ch=3 n=55 v=64
24384 On ch=3 n=59 v=40
24432 Off ch=3 n=59 v=64
24432 On ch=3 n=55 v=40
24576 Off ch=3 n=55 v=64
34176 PrCh ch=3 p=29
34178 Par ch=3 c=10 v=0
34524 Pb ch=3 v=8109
34527 Pb ch=3 v=7778
34530 Pb ch=3 v=7447
34532 Pb ch=3 v=7198
34535 Pb ch=3 v=6867
34538 Pb ch=3 v=6702
34554 Pb ch=3 v=6592
34557 Pb ch=3 v=6778
34560 Pb ch=3 v=6964
34560 On ch=3 n=74 v=110
34563 Pb ch=3 v=7150
34566 Pb ch=3 v=7336
34569 Pb ch=3 v=7522
34572 Pb ch=3 v=7708
34575 Pb ch=3 v=7894
34578 Pb ch=3 v=8080
34579 Pb ch=3 v=8192
34613 Off ch=3 n=74 v=64
34625 Pb ch=3 v=7943
34628 Pb ch=3 v=7364
34631 Pb ch=3 v=6950
34634 Pb ch=3 v=6619
34637 Pb ch=3 v=6123
34640 Pb ch=3 v=5874
34642 Pb ch=3 v=5792
34652 Pb ch=3 v=6592
34655 Pb ch=3 v=6861
34657 On ch=3 n=72 v=105
34658 Pb ch=3 v=7131
34661 Pb ch=3 v=7400
34664 Pb ch=3 v=7670
34667 Pb ch=3 v=7940
34669 Pb ch=3 v=8192
34705 Off ch=3 n=72 v=64
34716 Pb ch=3 v=7529
34718 Pb ch=3 v=7033
34721 Pb ch=3 v=6371
34724 Pb ch=3 v=5792
34727 Pb ch=3 v=5461
34730 Pb ch=3 v=5130
34733 Pb ch=3 v=4964
34747 Pb ch=3 v=5543
34748 Pb ch=3 v=6592
34751 Pb ch=3 v=6861
34754 Pb ch=3 v=7131
34755 On ch=3 n=71 v=101
34757 Pb ch=3 v=7400
34760 Pb ch=3 v=7670
34763 Pb ch=3 v=7940
34765 Pb ch=3 v=8192
34794 Off ch=3 n=71 v=64
34809 Pb ch=3 v=7695
34812 Pb ch=3 v=6950
34814 Pb ch=3 v=6205
34817 Pb ch=3 v=5709
34820 Pb ch=3 v=5295
34823 Pb ch=3 v=4799
34826 Pb ch=3 v=4468
34829 Pb ch=3 v=4137
34831 Pb ch=3 v=3971
34843 Pb ch=3 v=4137
34844 Pb ch=3 v=6592
34847 Pb ch=3 v=6895
34849 On ch=3 n=69 v=97
34850 Pb ch=3 v=7199
34853 Pb ch=3 v=7503
34856 Pb ch=3 v=7807
34859 Pb ch=3 v=8110
34859 Pb ch=3 v=8192
34895 Off ch=3 n=69 v=64
34944 On ch=3 n=67 v=74
34956 Pb ch=3 v=8192
34959 Pb ch=3 v=7966
34962 Pb ch=3 v=7740
34965 Pb ch=3 v=7514
34968 Pb ch=3 v=7288
34971 Pb ch=3 v=7062
34974 Pb ch=3 v=6836
34977 Pb ch=3 v=6610
34980 Pb ch=3 v=6383
34983 Pb ch=3 v=6157
34986 Pb ch=3 v=5931
34989 Pb ch=3 v=5705
34992 Pb ch=3 v=5479
34994 Off ch=3 n=67 v=64
34995 Pb ch=3 v=5253
34995 Pb ch=3 v=5192
35016 Pb ch=3 v=8192
41520 On ch=3 n=60 v=40
41568 Off ch=3 n=60 v=64
41568 On ch=3 n=59 v=40
41616 Off ch=3 n=59 v=64
41616 On ch=3 n=55 v=40
41664 Off ch=3 n=55 v=64
41664 On ch=3 n=59 v=40
41712 Off ch=3 n=59 v=64
41712 On ch=3 n=55 v=40
41904 Off ch=3 n=55 v=64
42288 On ch=3 n=60 v=40
42336 Off ch=3 n=60 v=64
42336 On ch=3 n=59 v=40
42384 Off ch=3 n=59 v=64
42384 On ch=3 n=55 v=40
42432 Off ch=3 n=55 v=64
42432 On ch=3 n=59 v=40
42480 Off ch=3 n=59 v=64
42480 On ch=3 n=55 v=40
42624 Off ch=3 n=55 v=64
43056 On ch=3 n=60 v=40
43104 Off ch=3 n=60 v=64
43104 On ch=3 n=59 v=40
43152 Off ch=3 n=59 v=64
43152 On ch=3 n=55 v=40
43200 Off ch=3 n=55 v=64
43200 On ch=3 n=59 v=40
43248 Off ch=3 n=59 v=64
43248 On ch=3 n=55 v=40
43440 Off ch=3 n=55 v=64
43824 On ch=3 n=60 v=40
43872 Off ch=3 n=60 v=64
43872 On ch=3 n=59 v=40
43920 Off ch=3 n=59 v=64
43920 On ch=3 n=55 v=40
43968 Off ch=3 n=55 v=64
43968 On ch=3 n=59 v=40
44016 Off ch=3 n=59 v=64
44016 On ch=3 n=55 v=40
44208 Off ch=3 n=55 v=64
44592 On ch=3 n=60 v=40
44640 Off ch=3 n=60 v=64
44640 On ch=3 n=59 v=40
44688 Off ch=3 n=59 v=64
44688 On ch=3 n=55 v=40
44736 Off ch=3 n=55 v=64
44736 On ch=3 n=59 v=40
44784 Off ch=3 n=59 v=64
44784 On ch=3 n=55 v=40
44976 Off ch=3 n=55 v=64
45360 On ch=3 n=60 v=40
45408 Off ch=3 n=60 v=64
45408 On ch=3 n=59 v=40
45456 Off ch=3 n=59 v=64
45456 On ch=3 n=55 v=40
45504 Off ch=3 n=55 v=64
45504 On ch=3 n=59 v=40
45552 Off ch=3 n=59 v=64
45552 On ch=3 n=55 v=40
45696 Off ch=3 n=55 v=64
46128 On ch=3 n=60 v=40
46176 Off ch=3 n=60 v=64
46176 On ch=3 n=59 v=40
46224 Off ch=3 n=59 v=64
46224 On ch=3 n=55 v=40
46272 Off ch=3 n=55 v=64
46272 On ch=3 n=59 v=40
46320 Off ch=3 n=59 v=64
46320 On ch=3 n=55 v=40
46464 Off ch=3 n=55 v=64
46464 Meta TrkEnd
TrkEnd
MTrk
0 Meta TrkName "Vocal1"
0 Par ch=4 c=0 v=0
0 PrCh ch=4 p=73
0 Par ch=4 c=10 v=64
0 Par ch=4 c=91 v=80
0 Par ch=4 c=93 v=10
0 TimeSig 4/4 96 8
0 Tempo 480000
778 Par ch=4 c=65 v=0
780 Par ch=4 c=5 v=20
782 Par ch=4 c=101 v=0
784 Par ch=4 c=100 v=0
786 Par ch=4 c=6 v=2
6528 On ch=4 n=69 v=117
6568 Off ch=4 n=69 v=64
6577 On ch=4 n=64 v=120
6616 Off ch=4 n=64 v=64
6629 On ch=4 n=64 v=110
6694 Off ch=4 n=64 v=64
6962 On ch=4 n=62 v=117
6998 Off ch=4 n=62 v=64
7012 On ch=4 n=62 v=112
7053 Off ch=4 n=62 v=64
7057 On ch=4 n=64 v=117
7089 Off ch=4 n=64 v=64
7104 On ch=4 n=64 v=112
7144 Off ch=4 n=64 v=64
7150 On ch=4 n=62 v=115
7188 Off ch=4 n=62 v=64
7205 On ch=4 n=62 v=115
7260 Off ch=4 n=62 v=64
7349 On ch=4 n=69 v=115
7379 Off ch=4 n=69 v=64
7397 On ch=4 n=69 v=110
7425 Off ch=4 n=69 v=64
7442 On ch=4 n=69 v=103
7472 Off ch=4 n=69 v=64
7491 On ch=4 n=64 v=110
7516 Off ch=4 n=64 v=64
7535 On ch=4 n=64 v=105
7580 Off ch=4 n=64 v=64
7631 On ch=4 n=62 v=101
7715 Off ch=4 n=62 v=64
7729 On ch=4 n=64 v=108
7975 Off ch=4 n=64 v=64
8068 On ch=4 n=69 v=117
8102 Off ch=4 n=69 v=64
8114 On ch=4 n=64 v=112
8148 Off ch=4 n=64 v=64
8167 On ch=4 n=64 v=110
8217 Off ch=4 n=64 v=64
8495 On ch=4 n=62 v=112
8528 Off ch=4 n=62 v=64
8542 On ch=4 n=62 v=108
8581 Off ch=4 n=62 v=64
8589 On ch=4 n=64 v=117
8620 Off ch=4 n=64 v=64
8639 On ch=4 n=64 v=112
8682 Off ch=4 n=64 v=64
8685 On ch=4 n=62 v=112
8715 Off ch=4 n=62 v=64
8738 On ch=4 n=62 v=110
8791 Off ch=4 n=62 v=64
8878 On ch=4 n=69 v=115
8910 Off ch=4 n=69 v=64
8926 On ch=4 n=69 v=103
8955 Off ch=4 n=69 v=64
8974 On ch=4 n=69 v=108
9004 Off ch=4 n=69 v=64
9023 On ch=4 n=69 v=110
9055 Off ch=4 n=69 v=64
9069 On ch=4 n=64 v=92
9071 On ch=4 n=62 v=97
9097 Off ch=4 n=62 v=64
9100 Off ch=4 n=64 v=64
9119 On ch=4 n=64 v=101
9158 Off ch=4 n=64 v=64
9173 On ch=4 n=62 v=105
9254 Off ch=4 n=62 v=64
9274 On ch=4 n=64 v=103
9493 Off ch=4 n=64 v=64
9599 On ch=4 n=72 v=127
9600 On ch=4 n=72 v=117
9645 Off ch=4 n=72 v=64
9645 On ch=4 n=71 v=123
9647 Off ch=4 n=72 v=64
9667 Pb ch=4 v=6785
9670 Pb ch=4 v=4882
9673 Pb ch=4 v=3475
9676 Pb ch=4 v=2151
9678 Pb ch=4 v=1323
9681 Pb ch=4 v=910
9687 Off ch=4 n=71 v=64
9690 Pb ch=4 v=1075
9693 Pb ch=4 v=2647
9695 Pb ch=4 v=4882
9698 Pb ch=4 v=7612
9699 On ch=4 n=71 v=110
9702 Pb ch=4 v=8192
9768 Off ch=4 n=71 v=64
10034 On ch=4 n=69 v=120
10061 Off ch=4 n=69 v=64
10082 On ch=4 n=69 v=112
10121 Off ch=4 n=69 v=64
10127 On ch=4 n=71 v=112
10156 Off ch=4 n=71 v=64
10174 On ch=4 n=72 v=123
10219 Off ch=4 n=72 v=64
10220 On ch=4 n=71 v=112
10250 Off ch=4 n=71 v=64
10271 On ch=4 n=69 v=123
10325 Off ch=4 n=69 v=64
10410 On ch=4 n=69 v=103
10430 Off ch=4 n=69 v=64
10457 On ch=4 n=69 v=110
10477 Off ch=4 n=69 v=64
10507 On ch=4 n=69 v=112
10556 Off ch=4 n=69 v=64
10556 On ch=4 n=64 v=110
10575 Off ch=4 n=64 v=64
10603 On ch=4 n=64 v=103
10620 Off ch=4 n=64 v=64
10650 On ch=4 n=64 v=95
10696 Off ch=4 n=64 v=64
10697 On ch=4 n=62 v=95
10718 Off ch=4 n=62 v=64
10751 On ch=4 n=62 v=105
10798 On ch=4 n=64 v=101
10802 Off ch=4 n=62 v=64
11035 Off ch=4 n=64 v=64
11138 On ch=4 n=69 v=115
11185 Off ch=4 n=69 v=64
11329 On ch=4 n=69 v=112
11366 Off ch=4 n=69 v=64
11376 On ch=4 n=64 v=112
11402 Off ch=4 n=64 v=64
11425 On ch=4 n=64 v=112
11466 Off ch=4 n=64 v=64
11573 On ch=4 n=62 v=110
11593 Off ch=4 n=62 v=64
11615 On ch=4 n=62 v=108
11664 On ch=4 n=64 v=110
11665 Off ch=4 n=62 v=64
11684 Off ch=4 n=64 v=64
11711 On ch=4 n=64 v=117
11751 Off ch=4 n=64 v=64
11760 On ch=4 n=62 v=101
11784 Off ch=4 n=62 v=64
11810 On ch=4 n=62 v=105
11854 Off ch=4 n=62 v=64
11945 On ch=4 n=69 v=101
11966 Off ch=4 n=69 v=64
11993 On ch=4 n=71 v=112
12013 Off ch=4 n=71 v=64
12043 On ch=4 n=71 v=110
12101 Pb ch=4 v=8522
12104 Pb ch=4 v=9681
12107 Pb ch=4 v=10425
12109 Pb ch=4 v=11004
12112 Pb ch=4 v=11418
12115 Pb ch=4 v=11666
12118 Pb ch=4 v=11832
12135 Pb ch=4 v=11418
12138 Pb ch=4 v=9433
12141 Pb ch=4 v=8192
12181 Off ch=4 n=71 v=64
12184 On ch=4 n=69 v=105
12237 Pb ch=4 v=10674
12240 Pb ch=4 v=13404
12243 Pb ch=4 v=14314
12246 Pb ch=4 v=14893
12249 Pb ch=4 v=15307
12252 Pb ch=4 v=15555
12254 Pb ch=4 v=15969
12257 Pb ch=4 v=16134
12260 Pb ch=4 v=16299
12263 Pb ch=4 v=16383
12294 Pb ch=4 v=15472
12297 Pb ch=4 v=12907
12300 Pb ch=4 v=9267
12302 Pb ch=4 v=8192
12475 ChPr ch=4 v=1
12478 ChPr ch=4 v=2
12481 ChPr ch=4 v=3
12484 ChPr ch=4 v=5
12486 ChPr ch=4 v=6
12489 ChPr ch=4 v=8
12492 ChPr ch=4 v=13
12495 ChPr ch=4 v=19
12498 ChPr ch=4 v=24
12500 ChPr ch=4 v=31
12503 ChPr ch=4 v=36
12506 ChPr ch=4 v=40
12509 ChPr ch=4 v=46
12512 ChPr ch=4 v=54
12515 ChPr ch=4 v=62
12517 ChPr ch=4 v=71
12520 ChPr ch=4 v=79
12523 ChPr ch=4 v=88
12526 ChPr ch=4 v=95
12529 ChPr ch=4 v=101
12537 ChPr ch=4 v=100
12540 ChPr ch=4 v=97
12543 ChPr ch=4 v=94
12546 ChPr ch=4 v=90
12548 ChPr ch=4 v=88
12554 ChPr ch=4 v=87
12560 ChPr ch=4 v=86
12565 ChPr ch=4 v=85
12568 ChPr ch=4 v=84
12571 ChPr ch=4 v=79
12574 ChPr ch=4 v=69
12577 ChPr ch=4 v=46
12580 ChPr ch=4 v=13
12582 ChPr ch=4 v=0
12587 Off ch=4 n=69 v=64
12676 On ch=4 n=64 v=127
12696 Par ch=4 c=7 v=127
12699 Par ch=4 c=7 v=124
12702 Par ch=4 c=7 v=121
12705 Par ch=4 c=7 v=117
12708 Par ch=4 c=7 v=114
12711 Par ch=4 c=7 v=111
12714 Par ch=4 c=7 v=107
12717 Par ch=4 c=7 v=104
12720 Par ch=4 c=7 v=101
12723 Par ch=4 c=7 v=97
12726 Par ch=4 c=7 v=94
12729 Par ch=4 c=7 v=91
12732 Par ch=4 c=7 v=87
12735 Par ch=4 c=7 v=84
12738 Par ch=4 c=7 v=80
12741 Par ch=4 c=7 v=77
12744 Par ch=4 c=7 v=74
12747 Par ch=4 c=7 v=70
12750 Par ch=4 c=7 v=67
12753 Par ch=4 c=7 v=64
12755 Par ch=4 c=7 v=60
12756 Par ch=4 c=7 v=60
12759 Par ch=4 c=7 v=68
12762 Par ch=4 c=7 v=76
12765 Par ch=4 c=7 v=85
12768 Par ch=4 c=7 v=93
12771 Par ch=4 c=7 v=102
12774 Par ch=4 c=7 v=110
12777 Par ch=4 c=7 v=119
12779 Par ch=4 c=7 v=127
12818 On ch=4 n=67 v=92
12820 Off ch=4 n=64 v=64
12858 Off ch=4 n=67 v=64
12870 On ch=4 n=67 v=90
12954 Off ch=4 n=67 v=64
12961 On ch=4 n=69 v=86
12998 Off ch=4 n=69 v=64
13013 On ch=4 n=69 v=95
13121 Off ch=4 n=69 v=64
13447 On ch=4 n=64 v=127
13464 Par ch=4 c=7 v=127
13467 Par ch=4 c=7 v=124
13470 Par ch=4 c=7 v=121
13473 Par ch=4 c=7 v=117
13476 Par ch=4 c=7 v=114
13479 Par ch=4 c=7 v=111
13482 Par ch=4 c=7 v=107
13485 Par ch=4 c=7 v=104
13488 Par ch=4 c=7 v=101
13491 Par ch=4 c=7 v=97
13494 Par ch=4 c=7 v=94
13497 Par ch=4 c=7 v=91
13500 Par ch=4 c=7 v=87
13503 Par ch=4 c=7 v=84
13506 Par ch=4 c=7 v=80
13509 Par ch=4 c=7 v=77
13512 Par ch=4 c=7 v=74
13515 Par ch=4 c=7 v=70
13518 Par ch=4 c=7 v=67
13521 Par ch=4 c=7 v=64
13523 Par ch=4 c=7 v=60
13524 Par ch=4 c=7 v=60
13527 Par ch=4 c=7 v=68
13530 Par ch=4 c=7 v=76
13533 Par ch=4 c=7 v=85
13536 Par ch=4 c=7 v=93
13539 Par ch=4 c=7 v=102
13542 Par ch=4 c=7 v=110
13545 Par ch=4 c=7 v=119
13547 Par ch=4 c=7 v=127
13586 On ch=4 n=67 v=92
13592 Off ch=4 n=64 v=64
13626 Off ch=4 n=67 v=64
13638 On ch=4 n=67 v=90
13722 Off ch=4 n=67 v=64
13729 On ch=4 n=69 v=86
13766 Off ch=4 n=69 v=64
13781 On ch=4 n=69 v=95
13889 Off ch=4 n=69 v=64
14212 On ch=4 n=64 v=127
14232 Par ch=4 c=7 v=127
14235 Par ch=4 c=7 v=124
14238 Par ch=4 c=7 v=121
14241 Par ch=4 c=7 v=117
14244 Par ch=4 c=7 v=114
14247 Par ch=4 c=7 v=111
14250 Par ch=4 c=7 v=107
14253 Par ch=4 c=7 v=104
14256 Par ch=4 c=7 v=101
14259 Par ch=4 c=7 v=97
14262 Par ch=4 c=7 v=94
14265 Par ch=4 c=7 v=91
14268 Par ch=4 c=7 v=87
14271 Par ch=4 c=7 v=84
14274 Par ch=4 c=7 v=80
14277 Par ch=4 c=7 v=77
14280 Par ch=4 c=7 v=74
14283 Par ch=4 c=7 v=70
14286 Par ch=4 c=7 v=67
14289 Par ch=4 c=7 v=64
14291 Par ch=4 c=7 v=60
14292 Par ch=4 c=7 v=60
14295 Par ch=4 c=7 v=68
14298 Par ch=4 c=7 v=76
14301 Par ch=4 c=7 v=85
14304 Par ch=4 c=7 v=93
14307 Par ch=4 c=7 v=102
14310 Par ch=4 c=7 v=110
14313 Par ch=4 c=7 v=119
14315 Par ch=4 c=7 v=127
14343 Off ch=4 n=64 v=64
14349 On ch=4 n=67 v=97
14390 Off ch=4 n=67 v=64
14402 On ch=4 n=67 v=97
14482 Off ch=4 n=67 v=64
14492 On ch=4 n=69 v=95
14530 Off ch=4 n=69 v=64
14546 On ch=4 n=69 v=92
14635 Off ch=4 n=69 v=64
14981 On ch=4 n=64 v=127
15000 Par ch=4 c=7 v=127
15003 Par ch=4 c=7 v=124
15006 Par ch=4 c=7 v=121
15009 Par ch=4 c=7 v=117
15012 Par ch=4 c=7 v=114
15015 Par ch=4 c=7 v=111
15018 Par ch=4 c=7 v=107
15021 Par ch=4 c=7 v=104
15024 Par ch=4 c=7 v=101
15027 Par ch=4 c=7 v=97
15030 Par ch=4 c=7 v=94
15033 Par ch=4 c=7 v=91
15036 Par ch=4 c=7 v=87
15039 Par ch=4 c=7 v=84
15042 Par ch=4 c=7 v=80
15045 Par ch=4 c=7 v=77
15048 Par ch=4 c=7 v=74
15051 Par ch=4 c=7 v=70
15054 Par ch=4 c=7 v=67
15057 Par ch=4 c=7 v=64
15059 Par ch=4 c=7 v=60
15060 Par ch=4 c=7 v=60
15063 Par ch=4 c=7 v=68
15066 Par ch=4 c=7 v=76
15069 Par ch=4 c=7 v=85
15072 Par ch=4 c=7 v=93
15075 Par ch=4 c=7 v=102
15078 Par ch=4 c=7 v=110
15081 Par ch=4 c=7 v=119
15083 Par ch=4 c=7 v=127
15107 Off ch=4 n=64 v=64
15120 On ch=4 n=67 v=95
15157 Off ch=4 n=67 v=64
15171 On ch=4 n=67 v=95
15248 Off ch=4 n=67 v=64
15262 On ch=4 n=69 v=92
15299 Off ch=4 n=69 v=64
15313 On ch=4 n=69 v=95
16022 Off ch=4 n=69 v=64
16226 On ch=4 n=71 v=115
16270 On ch=4 n=69 v=112
16271 Off ch=4 n=71 v=64
16302 Off ch=4 n=69 v=64
16320 On ch=4 n=69 v=101
16366 Off ch=4 n=69 v=64
16367 On ch=4 n=67 v=92
16403 Off ch=4 n=67 v=64
16413 On ch=4 n=64 v=101
16457 Off ch=4 n=64 v=64
16470 On ch=4 n=67 v=112
16534 Off ch=4 n=67 v=64
16556 On ch=4 n=69 v=105
16629 Off ch=4 n=69 v=64
16991 On ch=4 n=71 v=112
17038 On ch=4 n=69 v=110
17043 Off ch=4 n=71 v=64
17061 Off ch=4 n=69 v=64
17086 On ch=4 n=69 v=110
17126 Off ch=4 n=69 v=64
17130 On ch=4 n=67 v=95
17163 Off ch=4 n=67 v=64
17176 On ch=4 n=64 v=97
17203 Off ch=4 n=64 v=64
17236 On ch=4 n=67 v=105
17367 Off ch=4 n=67 v=64
17371 On ch=4 n=64 v=103
17566 Off ch=4 n=64 v=64
17663 On ch=4 n=69 v=110
17705 Off ch=4 n=69 v=64
17714 On ch=4 n=64 v=112
17740 Off ch=4 n=64 v=64
17762 On ch=4 n=64 v=112
17829 Off ch=4 n=64 v=64
18098 On ch=4 n=62 v=92
18121 Off ch=4 n=62 v=64
18143 On ch=4 n=62 v=95
18191 Off ch=4 n=62 v=64
18192 On ch=4 n=64 v=110
18214 Off ch=4 n=64 v=64
18240 On ch=4 n=64 v=112
18281 Off ch=4 n=64 v=64
18285 On ch=4 n=62 v=92
18315 Off ch=4 n=62 v=64
18339 On ch=4 n=62 v=105
18383 Off ch=4 n=62 v=64
18481 On ch=4 n=69 v=97
18499 Off ch=4 n=69 v=64
18528 On ch=4 n=69 v=101
18544 Off ch=4 n=69 v=64
18570 On ch=4 n=69 v=108
18620 Off ch=4 n=69 v=64
18624 On ch=4 n=64 v=88
18643 Off ch=4 n=64 v=64
18672 On ch=4 n=64 v=90
18686 Off ch=4 n=64 v=64
18714 On ch=4 n=64 v=101
18759 Off ch=4 n=64 v=64
18767 On ch=4 n=62 v=101
18862 Off ch=4 n=62 v=64
18863 On ch=4 n=64 v=92
19117 Off ch=4 n=64 v=64
19205 On ch=4 n=69 v=110
19249 Pb ch=4 v=7167
19252 Pb ch=4 v=6588
19255 Pb ch=4 v=6092
19258 Pb ch=4 v=5761
19260 Pb ch=4 v=5099
19263 Pb ch=4 v=4519
19266 Pb ch=4 v=3940
19269 Pb ch=4 v=3527
19272 Pb ch=4 v=3113
19274 Pb ch=4 v=2699
19277 Pb ch=4 v=2534
19281 Off ch=4 n=69 v=64
19303 Pb ch=4 v=2699
19306 Pb ch=4 v=3278
19308 Pb ch=4 v=4023
19311 Pb ch=4 v=4933
19314 Pb ch=4 v=6257
19317 Pb ch=4 v=7168
19340 Pb ch=4 v=8192
19390 On ch=4 n=69 v=105
19431 Off ch=4 n=69 v=64
19441 On ch=4 n=64 v=92
19463 Off ch=4 n=64 v=64
19492 On ch=4 n=64 v=108
19554 Off ch=4 n=64 v=64
19635 On ch=4 n=62 v=97
19652 Off ch=4 n=62 v=64
19680 On ch=4 n=62 v=105
19724 On ch=4 n=64 v=103
19726 Off ch=4 n=62 v=64
19746 Off ch=4 n=64 v=64
19774 On ch=4 n=64 v=108
19812 Off ch=4 n=64 v=64
19819 On ch=4 n=62 v=95
19847 Off ch=4 n=62 v=64
19872 On ch=4 n=62 v=108
19930 Off ch=4 n=62 v=64
20022 On ch=4 n=69 v=112
20046 Off ch=4 n=69 v=64
20065 On ch=4 n=69 v=105
20093 Off ch=4 n=69 v=64
20115 On ch=4 n=69 v=112
20141 Off ch=4 n=69 v=64
20161 On ch=4 n=69 v=112
20201 Off ch=4 n=69 v=64
20208 On ch=4 n=64 v=108
20232 Off ch=4 n=64 v=64
20256 On ch=4 n=64 v=99
20276 Off ch=4 n=64 v=64
20302 On ch=4 n=64 v=112
20337 Off ch=4 n=64 v=64
20352 On ch=4 n=62 v=117
20432 Off ch=4 n=62 v=64
20453 On ch=4 n=64 v=115
20610 ChPr ch=4 v=1
20618 ChPr ch=4 v=0
20707 Off ch=4 n=64 v=64
20735 On ch=4 n=72 v=115
20786 On ch=4 n=71 v=108
20791 Off ch=4 n=72 v=64
20809 Off ch=4 n=71 v=64
20835 On ch=4 n=69 v=123
20867 Pb ch=4 v=8605
20870 Pb ch=4 v=10425
20873 Pb ch=4 v=12411
20876 Pb ch=4 v=14893
20879 Pb ch=4 v=16383
20913 ChPr ch=4 v=1
20924 ChPr ch=4 v=2
20933 ChPr ch=4 v=1
20936 ChPr ch=4 v=0
20989 Off ch=4 n=69 v=64
21045 Pb ch=4 v=15224
21048 Pb ch=4 v=13321
21051 Pb ch=4 v=12080
21054 Pb ch=4 v=10922
21057 Pb ch=4 v=10012
21059 Pb ch=4 v=8936
21062 Pb ch=4 v=8192
21168 On ch=4 n=69 v=120
21186 Off ch=4 n=69 v=64
21218 On ch=4 n=69 v=123
21263 On ch=4 n=71 v=110
21271 Off ch=4 n=69 v=64
21285 Off ch=4 n=71 v=64
21311 On ch=4 n=72 v=117
21357 On ch=4 n=71 v=95
21365 Off ch=4 n=72 v=64
21393 Off ch=4 n=71 v=64
21408 On ch=4 n=69 v=115
21484 Off ch=4 n=69 v=64
21549 On ch=4 n=72 v=126
21573 Off ch=4 n=72 v=64
21597 On ch=4 n=72 v=115
21618 Off ch=4 n=72 v=64
21642 On ch=4 n=72 v=115
21690 Off ch=4 n=72 v=64
21691 On ch=4 n=74 v=110
21716 Off ch=4 n=74 v=64
21742 On ch=4 n=74 v=117
21789 On ch=4 n=72 v=110
21793 Off ch=4 n=74 v=64
21810 Off ch=4 n=72 v=64
21838 On ch=4 n=69 v=110
21858 Off ch=4 n=69 v=64
21876 Pb ch=4 v=6288
21878 Pb ch=4 v=2151
21881 Pb ch=4 v=0
21890 On ch=4 n=69 v=110
21894 Par ch=4 c=1 v=5
21905 Par ch=4 c=1 v=3
21908 Par ch=4 c=1 v=0
21913 Pb ch=4 v=2647
21916 Pb ch=4 v=8192
21970 ChPr ch=4 v=3
21973 ChPr ch=4 v=8
21976 ChPr ch=4 v=15
21979 ChPr ch=4 v=23
21982 ChPr ch=4 v=32
21984 ChPr ch=4 v=41
21987 ChPr ch=4 v=47
21990 ChPr ch=4 v=55
21993 ChPr ch=4 v=60
21996 ChPr ch=4 v=64
21998 ChPr ch=4 v=70
22001 ChPr ch=4 v=75
22004 ChPr ch=4 v=79
22007 ChPr ch=4 v=83
22010 ChPr ch=4 v=86
22012 ChPr ch=4 v=89
22015 ChPr ch=4 v=93
22018 ChPr ch=4 v=95
22021 ChPr ch=4 v=97
22024 ChPr ch=4 v=101
22027 ChPr ch=4 v=104
22029 ChPr ch=4 v=109
22032 ChPr ch=4 v=115
22035 ChPr ch=4 v=121
22038 ChPr ch=4 v=123
22041 ChPr ch=4 v=125
22044 ChPr ch=4 v=127
22134 ChPr ch=4 v=104
22137 ChPr ch=4 v=74
22139 ChPr ch=4 v=42
22142 ChPr ch=4 v=15
22145 ChPr ch=4 v=0
22165 Off ch=4 n=69 v=64
22276 On ch=4 n=64 v=127
22296 Par ch=4 c=7 v=127
22299 Par ch=4 c=7 v=124
22302 Par ch=4 c=7 v=121
22305 Par ch=4 c=7 v=117
22308 Par ch=4 c=7 v=114
22311 Par ch=4 c=7 v=111
22314 Par ch=4 c=7 v=107
22317 Par ch=4 c=7 v=104
22320 Par ch=4 c=7 v=101
22323 Par ch=4 c=7 v=97
22326 Par ch=4 c=7 v=94
22329 Par ch=4 c=7 v=91
22332 Par ch=4 c=7 v=87
22335 Par ch=4 c=7 v=84
22338 Par ch=4 c=7 v=80
22341 Par ch=4 c=7 v=77
22344 Par ch=4 c=7 v=74
22347 Par ch=4 c=7 v=70
22350 Par ch=4 c=7 v=67
22353 Par ch=4 c=7 v=64
22355 Par ch=4 c=7 v=60
22356 Par ch=4 c=7 v=60
22359 Par ch=4 c=7 v=68
22362 Par ch=4 c=7 v=76
22365 Par ch=4 c=7 v=85
22368 Par ch=4 c=7 v=93
22371 Par ch=4 c=7 v=102
22374 Par ch=4 c=7 v=110
22377 Par ch=4 c=7 v=119
22379 Par ch=4 c=7 v=127
22408 Off ch=4 n=64 v=64
22418 On ch=4 n=67 v=92
22458 Off ch=4 n=67 v=64
22470 On ch=4 n=67 v=90
22554 Off ch=4 n=67 v=64
22561 On ch=4 n=69 v=86
22598 Off ch=4 n=69 v=64
22613 On ch=4 n=69 v=95
22721 Off ch=4 n=69 v=64
23035 On ch=4 n=64 v=127
23064 Par ch=4 c=7 v=127
23067 Par ch=4 c=7 v=124
23070 Par ch=4 c=7 v=121
23073 Par ch=4 c=7 v=117
23076 Par ch=4 c=7 v=114
23079 Par ch=4 c=7 v=111
23082 Par ch=4 c=7 v=107
23085 Par ch=4 c=7 v=104
23088 Par ch=4 c=7 v=101
23091 Par ch=4 c=7 v=97
23094 Par ch=4 c=7 v=94
23097 Par ch=4 c=7 v=91
23100 Par ch=4 c=7 v=87
23103 Par ch=4 c=7 v=84
23106 Par ch=4 c=7 v=80
23109 Par ch=4 c=7 v=77
23112 Par ch=4 c=7 v=74
23115 Par ch=4 c=7 v=70
23118 Par ch=4 c=7 v=67
23121 Par ch=4 c=7 v=64
23123 Par ch=4 c=7 v=60
23124 Par ch=4 c=7 v=60
23127 Par ch=4 c=7 v=68
23130 Par ch=4 c=7 v=76
23133 Par ch=4 c=7 v=85
23136 Par ch=4 c=7 v=93
23139 Par ch=4 c=7 v=102
23142 Par ch=4 c=7 v=110
23145 Par ch=4 c=7 v=119
23147 Par ch=4 c=7 v=127
23180 Off ch=4 n=64 v=64
23186 On ch=4 n=67 v=92
23226 Off ch=4 n=67 v=64
23238 On ch=4 n=67 v=90
23322 Off ch=4 n=67 v=64
23329 On ch=4 n=69 v=86
23366 Off ch=4 n=69 v=64
23381 On ch=4 n=69 v=95
23489 Off ch=4 n=69 v=64
23808 On ch=4 n=64 v=127
23832 Par ch=4 c=7 v=127
23835 Par ch=4 c=7 v=124
23838 Par ch=4 c=7 v=121
23841 Par ch=4 c=7 v=117
23844 Par ch=4 c=7 v=114
23847 Par ch=4 c=7 v=111
23850 Par ch=4 c=7 v=107
23853 Par ch=4 c=7 v=104
23856 Par ch=4 c=7 v=101
23859 Par ch=4 c=7 v=97
23862 Par ch=4 c=7 v=94
23865 Par ch=4 c=7 v=91
23868 Par ch=4 c=7 v=87
23871 Par ch=4 c=7 v=84
23874 Par ch=4 c=7 v=80
23877 Par ch=4 c=7 v=77
23880 Par ch=4 c=7 v=74
23883 Par ch=4 c=7 v=70
23886 Par ch=4 c=7 v=67
23889 Par ch=4 c=7 v=64
23891 Par ch=4 c=7 v=60
23892 Par ch=4 c=7 v=60
23895 Par ch=4 c=7 v=68
23898 Par ch=4 c=7 v=76
23901 Par ch=4 c=7 v=85
23904 Par ch=4 c=7 v=93
23907 Par ch=4 c=7 v=102
23910 Par ch=4 c=7 v=110
23913 Par ch=4 c=7 v=119
23915 Par ch=4 c=7 v=127
23939 Off ch=4 n=64 v=64
23949 On ch=4 n=67 v=97
23990 Off ch=4 n=67 v=64
24002 On ch=4 n=67 v=97
24082 Off ch=4 n=67 v=64
24092 On ch=4 n=69 v=95
24130 Off ch=4 n=69 v=64
24146 On ch=4 n=69 v=92
24235 Off ch=4 n=69 v=64
24577 On ch=4 n=64 v=127
24600 Par ch=4 c=7 v=127
24603 Par ch=4 c=7 v=124
24606 Par ch=4 c=7 v=121
24609 Par ch=4 c=7 v=117
24612 Par ch=4 c=7 v=114
24615 Par ch=4 c=7 v=111
24618 Par ch=4 c=7 v=107
24621 Par ch=4 c=7 v=104
24624 Par ch=4 c=7 v=101
24627 Par ch=4 c=7 v=97
24630 Par ch=4 c=7 v=94
24633 Par ch=4 c=7 v=91
24636 Par ch=4 c=7 v=87
24639 Par ch=4 c=7 v=84
24642 Par ch=4 c=7 v=80
24645 Par ch=4 c=7 v=77
24648 Par ch=4 c=7 v=74
24651 Par ch=4 c=7 v=70
24654 Par ch=4 c=7 v=67
24657 Par ch=4 c=7 v=64
24659 Par ch=4 c=7 v=60
24660 Par ch=4 c=7 v=60
24663 Par ch=4 c=7 v=68
24666 Par ch=4 c=7 v=76
24669 Par ch=4 c=7 v=85
24672 Par ch=4 c=7 v=93
24675 Par ch=4 c=7 v=102
24678 Par ch=4 c=7 v=110
24681 Par ch=4 c=7 v=119
24683 Par ch=4 c=7 v=127
24703 Off ch=4 n=64 v=64
24720 On ch=4 n=67 v=95
24757 Off ch=4 n=67 v=64
24771 On ch=4 n=67 v=111
24848 Off ch=4 n=67 v=64
24862 On ch=4 n=69 v=108
24899 Off ch=4 n=69 v=64
24913 On ch=4 n=69 v=111
25622 Off ch=4 n=69 v=64
27214 On ch=4 n=69 v=98
27228 Off ch=4 n=69 v=64
27266 On ch=4 n=71 v=100
27349 Off ch=4 n=71 v=64
27366 On ch=4 n=69 v=107
27410 Off ch=4 n=69 v=64
27413 On ch=4 n=67 v=100
27431 Off ch=4 n=67 v=64
27459 On ch=4 n=69 v=105
27476 Off ch=4 n=69 v=64
27505 On ch=4 n=69 v=100
27521 Off ch=4 n=69 v=64
27552 On ch=4 n=69 v=110
27574 Off ch=4 n=69 v=64
27651 On ch=4 n=69 v=102
27669 Off ch=4 n=69 v=64
27700 On ch=4 n=69 v=100
27718 Off ch=4 n=69 v=64
27749 On ch=4 n=69 v=110
27770 Off ch=4 n=69 v=64
27890 On ch=4 n=69 v=100
27907 Off ch=4 n=69 v=64
27938 On ch=4 n=69 v=91
27954 Off ch=4 n=69 v=64
27985 On ch=4 n=69 v=98
28003 Off ch=4 n=69 v=64
28030 On ch=4 n=73 v=105
28049 Off ch=4 n=73 v=64
28077 On ch=4 n=73 v=102
28097 Off ch=4 n=73 v=64
28124 On ch=4 n=73 v=100
28144 Off ch=4 n=73 v=64
28173 On ch=4 n=73 v=98
28194 Off ch=4 n=73 v=64
28219 On ch=4 n=73 v=100
28270 On ch=4 n=71 v=91
28278 Off ch=4 n=73 v=64
28288 Off ch=4 n=71 v=64
28317 On ch=4 n=71 v=105
28368 On ch=4 n=69 v=102
28369 Off ch=4 n=71 v=64
28474 Off ch=4 n=69 v=64
28654 On ch=4 n=69 v=95
28672 Off ch=4 n=69 v=64
28701 On ch=4 n=69 v=89
28716 Off ch=4 n=69 v=64
28742 On ch=4 n=69 v=80
28777 Off ch=4 n=69 v=64
28791 On ch=4 n=73 v=105
28810 Off ch=4 n=73 v=64
28843 On ch=4 n=73 v=102
28863 Off ch=4 n=73 v=64
28893 On ch=4 n=73 v=107
28936 Off ch=4 n=73 v=64
28939 On ch=4 n=71 v=89
28959 Off ch=4 n=71 v=64
28991 On ch=4 n=69 v=100
29082 Off ch=4 n=69 v=64
29186 On ch=4 n=72 v=102
29206 Off ch=4 n=72 v=64
29232 On ch=4 n=72 v=102
29269 Off ch=4 n=72 v=64
29279 On ch=4 n=71 v=91
29302 Off ch=4 n=71 v=64
29327 On ch=4 n=69 v=98
29347 Off ch=4 n=69 v=64
29377 On ch=4 n=69 v=105
29455 Off ch=4 n=69 v=64
29570 On ch=4 n=72 v=105
29590 Off ch=4 n=72 v=64
29616 On ch=4 n=72 v=105
29635 Off ch=4 n=72 v=64
29660 On ch=4 n=72 v=102
29680 Off ch=4 n=72 v=64
29708 On ch=4 n=72 v=105
29728 Off ch=4 n=72 v=64
29756 On ch=4 n=72 v=105
29807 On ch=4 n=71 v=95
29811 Off ch=4 n=72 v=64
29852 On ch=4 n=69 v=98
29856 Off ch=4 n=71 v=64
29907 Pb ch=4 v=10343
29910 Pb ch=4 v=13900
29913 Pb ch=4 v=16383
30000 Pb ch=4 v=13487
30003 Pb ch=4 v=9681
30006 Pb ch=4 v=8192
30121 Pb ch=4 v=7943
30122 Off ch=4 n=69 v=64
30125 Pb ch=4 v=4964
30127 Pb ch=4 v=2813
30130 Pb ch=4 v=2151
30133 Pb ch=4 v=1737
30146 On ch=4 n=72 v=105
30148 Pb ch=4 v=2399
30151 Pb ch=4 v=4054
30154 Pb ch=4 v=5461
30156 Pb ch=4 v=6702
30159 Pb ch=4 v=8191
30162 Pb ch=4 v=8192
30175 Off ch=4 n=72 v=64
30193 On ch=4 n=72 v=100
30233 Off ch=4 n=72 v=64
30681 On ch=4 n=80 v=126
30711 Pb ch=4 v=8026
30714 Pb ch=4 v=7695
30717 Pb ch=4 v=7447
30718 ChPr ch=4 v=3
30720 Pb ch=4 v=7198
30720 ChPr ch=4 v=8
30722 Pb ch=4 v=6950
30723 ChPr ch=4 v=11
30725 Pb ch=4 v=6619
30728 Pb ch=4 v=6123
30731 Pb ch=4 v=5792
30732 ChPr ch=4 v=5
30734 Pb ch=4 v=5378
30734 ChPr ch=4 v=0
30737 Pb ch=4 v=4964
30739 Pb ch=4 v=4633
30742 Pb ch=4 v=4220
30745 Pb ch=4 v=3889
30748 Pb ch=4 v=3640
30749 Off ch=4 n=80 v=64
30751 Pb ch=4 v=3392
30754 Pb ch=4 v=3061
30756 Pb ch=4 v=2813
30759 Pb ch=4 v=2730
30762 Pb ch=4 v=2482
30768 Pb ch=4 v=2399
30785 Pb ch=4 v=2482
30788 Pb ch=4 v=3144
30790 Pb ch=4 v=3889
30793 Pb ch=4 v=4882
30796 Pb ch=4 v=6040
30799 Pb ch=4 v=7364
30802 Pb ch=4 v=8192
31485 On ch=4 n=80 v=126
31525 Off ch=4 n=80 v=64
31554 On ch=4 n=76 v=115
31598 Off ch=4 n=76 v=64
31623 On ch=4 n=77 v=120
31662 Off ch=4 n=77 v=64
31684 On ch=4 n=78 v=123
31727 Off ch=4 n=78 v=64
31746 On ch=4 n=79 v=115
31786 Off ch=4 n=79 v=64
31809 On ch=4 n=80 v=117
31842 Off ch=4 n=80 v=64
31865 On ch=4 n=81 v=127
31896 ChPr ch=4 v=4
31899 ChPr ch=4 v=13
31901 ChPr ch=4 v=19
31912 ChPr ch=4 v=15
31915 Pb ch=4 v=7860
31915 ChPr ch=4 v=11
31918 Pb ch=4 v=7447
31918 ChPr ch=4 v=3
31921 ChPr ch=4 v=0
31921 Pb ch=4 v=7116
31923 Pb ch=4 v=6867
31926 Pb ch=4 v=6702
31929 Pb ch=4 v=6288
31932 Pb ch=4 v=5874
31934 Pb ch=4 v=5626
31937 Pb ch=4 v=5295
31940 Off ch=4 n=81 v=64
31940 Pb ch=4 v=5047
31943 Pb ch=4 v=4799
31946 Pb ch=4 v=4633
31949 Pb ch=4 v=4385
31980 Pb ch=4 v=4633
31983 Pb ch=4 v=4882
31986 Pb ch=4 v=5130
31988 Pb ch=4 v=5461
31991 Pb ch=4 v=5792
31994 Pb ch=4 v=6205
31997 Pb ch=4 v=6619
32000 Pb ch=4 v=7033
32002 Pb ch=4 v=7364
32005 Pb ch=4 v=7860
32008 Pb ch=4 v=8192
41092 On ch=4 n=64 v=127
41112 Par ch=4 c=7 v=127
41115 Par ch=4 c=7 v=124
41118 Par ch=4 c=7 v=121
41121 Par ch=4 c=7 v=117
41124 Par ch=4 c=7 v=114
41127 Par ch=4 c=7 v=111
41130 Par ch=4 c=7 v=107
41133 Par ch=4 c=7 v=104
41136 Par ch=4 c=7 v=101
41139 Par ch=4 c=7 v=97
41142 Par ch=4 c=7 v=94
41145 Par ch=4 c=7 v=91
41148 Par ch=4 c=7 v=87
41151 Par ch=4 c=7 v=84
41154 Par ch=4 c=7 v=80
41157 Par ch=4 c=7 v=77
41160 Par ch=4 c=7 v=74
41163 Par ch=4 c=7 v=70
41166 Par ch=4 c=7 v=67
41169 Par ch=4 c=7 v=64
41171 Par ch=4 c=7 v=60
41172 Par ch=4 c=7 v=60
41175 Par ch=4 c=7 v=68
41178 Par ch=4 c=7 v=76
41181 Par ch=4 c=7 v=85
41184 Par ch=4 c=7 v=93
41187 Par ch=4 c=7 v=102
41190 Par ch=4 c=7 v=110
41193 Par ch=4 c=7 v=119
41195 Par ch=4 c=7 v=127
41224 Off ch=4 n=64 v=64
41234 On ch=4 n=67 v=92
41274 Off ch=4 n=67 v=64
41286 On ch=4 n=67 v=90
41370 Off ch=4 n=67 v=64
41377 On ch=4 n=69 v=86
41414 Off ch=4 n=69 v=64
41429 On ch=4 n=69 v=95
41537 Off ch=4 n=69 v=64
41851 On ch=4 n=64 v=127
41880 Par ch=4 c=7 v=127
41883 Par ch=4 c=7 v=124
41886 Par ch=4 c=7 v=121
41889 Par ch=4 c=7 v=117
41892 Par ch=4 c=7 v=114
41895 Par ch=4 c=7 v=111
41898 Par ch=4 c=7 v=107
41901 Par ch=4 c=7 v=104
41904 Par ch=4 c=7 v=101
41907 Par ch=4 c=7 v=97
41910 Par ch=4 c=7 v=94
41913 Par ch=4 c=7 v=91
41916 Par ch=4 c=7 v=87
41919 Par ch=4 c=7 v=84
41922 Par ch=4 c=7 v=80
41925 Par ch=4 c=7 v=77
41928 Par ch=4 c=7 v=74
41931 Par ch=4 c=7 v=70
41934 Par ch=4 c=7 v=67
41937 Par ch=4 c=7 v=64
41939 Par ch=4 c=7 v=60
41940 Par ch=4 c=7 v=60
41943 Par ch=4 c=7 v=68
41946 Par ch=4 c=7 v=76
41949 Par ch=4 c=7 v=85
41952 Par ch=4 c=7 v=93
41955 Par ch=4 c=7 v=102
41958 Par ch=4 c=7 v=110
41961 Par ch=4 c=7 v=119
41963 Par ch=4 c=7 v=127
41996 Off ch=4 n=64 v=64
42002 On ch=4 n=67 v=92
42042 Off ch=4 n=67 v=64
42054 On ch=4 n=67 v=90
42138 Off ch=4 n=67 v=64
42145 On ch=4 n=69 v=86
42182 Off ch=4 n=69 v=64
42197 On ch=4 n=69 v=95
42305 Off ch=4 n=69 v=64
42624 On ch=4 n=64 v=127
42648 Par ch=4 c=7 v=127
42651 Par ch=4 c=7 v=124
42654 Par ch=4 c=7 v=121
42657 Par ch=4 c=7 v=117
42660 Par ch=4 c=7 v=114
42663 Par ch=4 c=7 v=111
42666 Par ch=4 c=7 v=107
42669 Par ch=4 c=7 v=104
42672 Par ch=4 c=7 v=101
42675 Par ch=4 c=7 v=97
42678 Par ch=4 c=7 v=94
42681 Par ch=4 c=7 v=91
42684 Par ch=4 c=7 v=87
42687 Par ch=4 c=7 v=84
42690 Par ch=4 c=7 v=80
42693 Par ch=4 c=7 v=77
42696 Par ch=4 c=7 v=74
42699 Par ch=4 c=7 v=70
42702 Par ch=4 c=7 v=67
42705 Par ch=4 c=7 v=64
42707 Par ch=4 c=7 v=60
42708 Par ch=4 c=7 v=60
42711 Par ch=4 c=7 v=68
42714 Par ch=4 c=7 v=76
42717 Par ch=4 c=7 v=85
42720 Par ch=4 c=7 v=93
42723 Par ch=4 c=7 v=102
42726 Par ch=4 c=7 v=110
42729 Par ch=4 c=7 v=119
42731 Par ch=4 c=7 v=127
42755 Off ch=4 n=64 v=64
42765 On ch=4 n=67 v=97
42806 Off ch=4 n=67 v=64
42818 On ch=4 n=67 v=97
42898 Off ch=4 n=67 v=64
42908 On ch=4 n=69 v=95
42946 Off ch=4 n=69 v=64
42962 On ch=4 n=69 v=92
43051 Off ch=4 n=69 v=64
43387 On ch=4 n=64 v=127
43396 On ch=4 n=64 v=127
43416 Par ch=4 c=7 v=127
43419 Par ch=4 c=7 v=124
43422 Par ch=4 c=7 v=121
43425 Par ch=4 c=7 v=117
43428 Par ch=4 c=7 v=114
43431 Par ch=4 c=7 v=111
43434 Par ch=4 c=7 v=107
43437 Par ch=4 c=7 v=104
43440 Par ch=4 c=7 v=101
43443 Par ch=4 c=7 v=97
43446 Par ch=4 c=7 v=94
43449 Par ch=4 c=7 v=91
43452 Par ch=4 c=7 v=87
43455 Par ch=4 c=7 v=84
43458 Par ch=4 c=7 v=80
43461 Par ch=4 c=7 v=77
43464 Par ch=4 c=7 v=74
43467 Par ch=4 c=7 v=70
43470 Par ch=4 c=7 v=67
43473 Par ch=4 c=7 v=64
43475 Par ch=4 c=7 v=60
43476 Par ch=4 c=7 v=60
43479 Par ch=4 c=7 v=68
43482 Par ch=4 c=7 v=76
43485 Par ch=4 c=7 v=85
43488 Par ch=4 c=7 v=93
43491 Par ch=4 c=7 v=102
43494 Par ch=4 c=7 v=110
43497 Par ch=4 c=7 v=119
43499 Par ch=4 c=7 v=127
43528 Off ch=4 n=64 v=64
43532 Off ch=4 n=64 v=64
43538 On ch=4 n=67 v=92
43578 Off ch=4 n=67 v=64
43590 On ch=4 n=67 v=90
43674 Off ch=4 n=67 v=64
43681 On ch=4 n=69 v=86
43718 Off ch=4 n=69 v=64
43733 On ch=4 n=69 v=95
43764 Pb ch=4 v=8192
43767 Pb ch=4 v=9075
43770 Pb ch=4 v=9959
43773 Pb ch=4 v=10843
43776 Pb ch=4 v=11727
43779 Pb ch=4 v=12611
43782 Pb ch=4 v=13495
43785 Pb ch=4 v=14379
43788 Pb ch=4 v=15263
43791 Pb ch=4 v=16147
43791 Pb ch=4 v=16383
43808 Pb ch=4 v=16383
43811 Pb ch=4 v=14616
43814 Pb ch=4 v=12848
43817 Pb ch=4 v=11080
43820 Pb ch=4 v=9312
43823 Pb ch=4 v=7544
43826 Pb ch=4 v=5776
43829 Pb ch=4 v=4009
43832 Pb ch=4 v=2241
43835 Pb ch=4 v=473
43835 Pb ch=4 v=1
43900 Off ch=4 n=69 v=64
43920 Pb ch=4 v=8192
44155 On ch=4 n=64 v=127
44164 On ch=4 n=64 v=127
44184 Par ch=4 c=7 v=127
44187 Par ch=4 c=7 v=124
44190 Par ch=4 c=7 v=121
44193 Par ch=4 c=7 v=117
44196 Par ch=4 c=7 v=114
44199 Par ch=4 c=7 v=111
44202 Par ch=4 c=7 v=107
44205 Par ch=4 c=7 v=104
44208 Par ch=4 c=7 v=101
44211 Par ch=4 c=7 v=97
44214 Par ch=4 c=7 v=94
44217 Par ch=4 c=7 v=91
44220 Par ch=4 c=7 v=87
44223 Par ch=4 c=7 v=84
44226 Par ch=4 c=7 v=80
44229 Par ch=4 c=7 v=77
44232 Par ch=4 c=7 v=74
44235 Par ch=4 c=7 v=70
44238 Par ch=4 c=7 v=67
44241 Par ch=4 c=7 v=64
44243 Par ch=4 c=7 v=60
44244 Par ch=4 c=7 v=60
44247 Par ch=4 c=7 v=68
44250 Par ch=4 c=7 v=76
44253 Par ch=4 c=7 v=85
44256 Par ch=4 c=7 v=93
44259 Par ch=4 c=7 v=102
44262 Par ch=4 c=7 v=110
44265 Par ch=4 c=7 v=119
44267 Par ch=4 c=7 v=127
44296 Off ch=4 n=64 v=64
44300 Off ch=4 n=64 v=64
44306 On ch=4 n=67 v=92
44346 Off ch=4 n=67 v=64
44358 On ch=4 n=67 v=90
44442 Off ch=4 n=67 v=64
44449 On ch=4 n=69 v=86
44486 Off ch=4 n=69 v=64
44501 On ch=4 n=69 v=95
44609 Off ch=4 n=69 v=64
44923 On ch=4 n=64 v=127
44952 Par ch=4 c=7 v=127
44955 Par ch=4 c=7 v=124
44958 Par ch=4 c=7 v=121
44961 Par ch=4 c=7 v=117
44964 Par ch=4 c=7 v=114
44967 Par ch=4 c=7 v=111
44970 Par ch=4 c=7 v=107
44973 Par ch=4 c=7 v=104
44976 Par ch=4 c=7 v=101
44979 Par ch=4 c=7 v=97
44982 Par ch=4 c=7 v=94
44985 Par ch=4 c=7 v=91
44988 Par ch=4 c=7 v=87
44991 Par ch=4 c=7 v=84
44994 Par ch=4 c=7 v=80
44997 Par ch=4 c=7 v=77
45000 Par ch=4 c=7 v=74
45003 Par ch=4 c=7 v=70
45006 Par ch=4 c=7 v=67
45009 Par ch=4 c=7 v=64
45011 Par ch=4 c=7 v=60
45012 Par ch=4 c=7 v=60
45015 Par ch=4 c=7 v=68
45018 Par ch=4 c=7 v=76
45021 Par ch=4 c=7 v=85
45024 Par ch=4 c=7 v=93
45027 Par ch=4 c=7 v=102
45030 Par ch=4 c=7 v=110
45033 Par ch=4 c=7 v=119
45035 Par ch=4 c=7 v=127
45068 Off ch=4 n=64 v=64
45074 On ch=4 n=67 v=92
45114 Off ch=4 n=67 v=64
45126 On ch=4 n=67 v=90
45210 Off ch=4 n=67 v=64
45217 On ch=4 n=69 v=86
45254 Off ch=4 n=69 v=64
45269 On ch=4 n=69 v=95
45377 Off ch=4 n=69 v=64
45696 On ch=4 n=64 v=127
45720 Par ch=4 c=7 v=127
45723 Par ch=4 c=7 v=124
45726 Par ch=4 c=7 v=121
45729 Par ch=4 c=7 v=117
45732 Par ch=4 c=7 v=114
45735 Par ch=4 c=7 v=111
45738 Par ch=4 c=7 v=107
45741 Par ch=4 c=7 v=104
45744 Par ch=4 c=7 v=101
45747 Par ch=4 c=7 v=97
45750 Par ch=4 c=7 v=94
45753 Par ch=4 c=7 v=91
45756 Par ch=4 c=7 v=87
45759 Par ch=4 c=7 v=84
45762 Par ch=4 c=7 v=80
45765 Par ch=4 c=7 v=77
45768 Par ch=4 c=7 v=74
45771 Par ch=4 c=7 v=70
45774 Par ch=4 c=7 v=67
45777 Par ch=4 c=7 v=64
45779 Par ch=4 c=7 v=60
45780 Par ch=4 c=7 v=60
45783 Par ch=4 c=7 v=68
45786 Par ch=4 c=7 v=76
45789 Par ch=4 c=7 v=85
45792 Par ch=4 c=7 v=93
45795 Par ch=4 c=7 v=102
45798 Par ch=4 c=7 v=110
45801 Par ch=4 c=7 v=119
45803 Par ch=4 c=7 v=127
45827 Off ch=4 n=64 v=64
45837 On ch=4 n=67 v=97
45878 Off ch=4 n=67 v=64
45890 On ch=4 n=67 v=97
45970 Off ch=4 n=67 v=64
45980 On ch=4 n=69 v=95
46018 Off ch=4 n=69 v=64
46034 On ch=4 n=69 v=92
46123 Off ch=4 n=69 v=64
46465 On ch=4 n=64 v=127
46488 Par ch=4 c=7 v=127
46491 Par ch=4 c=7 v=124
46494 Par ch=4 c=7 v=121
46497 Par ch=4 c=7 v=117
46500 Par ch=4 c=7 v=114
46503 Par ch=4 c=7 v=111
46506 Par ch=4 c=7 v=107
46509 Par ch=4 c=7 v=104
46512 Par ch=4 c=7 v=101
46515 Par ch=4 c=7 v=97
46518 Par ch=4 c=7 v=94
46521 Par ch=4 c=7 v=91
46524 Par ch=4 c=7 v=87
46527 Par ch=4 c=7 v=84
46530 Par ch=4 c=7 v=80
46533 Par ch=4 c=7 v=77
46536 Par ch=4 c=7 v=74
46539 Par ch=4 c=7 v=70
46542 Par ch=4 c=7 v=67
46545 Par ch=4 c=7 v=64
46547 Par ch=4 c=7 v=60
46548 Par ch=4 c=7 v=60
46551 Par ch=4 c=7 v=68
46554 Par ch=4 c=7 v=76
46557 Par ch=4 c=7 v=85
46560 Par ch=4 c=7 v=93
46563 Par ch=4 c=7 v=102
46566 Par ch=4 c=7 v=110
46569 Par ch=4 c=7 v=119
46571 Par ch=4 c=7 v=127
46591 Off ch=4 n=64 v=64
46608 On ch=4 n=67 v=95
46645 Off ch=4 n=67 v=64
46667 On ch=4 n=67 v=111
46744 Off ch=4 n=67 v=64
46758 On ch=4 n=69 v=108
46795 Off ch=4 n=69 v=64
46809 On ch=4 n=69 v=111
47518 Off ch=4 n=69 v=64
49102 On ch=4 n=69 v=98
49116 Off ch=4 n=69 v=64
49154 On ch=4 n=71 v=100
49237 Off ch=4 n=71 v=64
49254 On ch=4 n=69 v=107
49298 Off ch=4 n=69 v=64
49301 On ch=4 n=67 v=100
49319 Off ch=4 n=67 v=64
49347 On ch=4 n=69 v=105
49364 Off ch=4 n=69 v=64
49393 On ch=4 n=69 v=100
49409 Off ch=4 n=69 v=64
49440 On ch=4 n=69 v=110
49462 Off ch=4 n=69 v=64
49539 On ch=4 n=69 v=102
49557 Off ch=4 n=69 v=64
49588 On ch=4 n=69 v=100
49606 Off ch=4 n=69 v=64
49637 On ch=4 n=69 v=110
49658 Off ch=4 n=69 v=64
49778 On ch=4 n=69 v=100
49795 Off ch=4 n=69 v=64
49826 On ch=4 n=69 v=91
49842 Off ch=4 n=69 v=64
49873 On ch=4 n=69 v=98
49891 Off ch=4 n=69 v=64
49918 On ch=4 n=73 v=105
49937 Off ch=4 n=73 v=64
49965 On ch=4 n=73 v=102
49985 Off ch=4 n=73 v=64
50012 On ch=4 n=73 v=100
50032 Off ch=4 n=73 v=64
50061 On ch=4 n=73 v=98
50082 Off ch=4 n=73 v=64
50107 On ch=4 n=73 v=100
50158 On ch=4 n=71 v=91
50166 Off ch=4 n=73 v=64
50176 Off ch=4 n=71 v=64
50205 On ch=4 n=71 v=105
50256 On ch=4 n=69 v=102
50257 Off ch=4 n=71 v=64
50362 Off ch=4 n=69 v=64
50542 On ch=4 n=69 v=95
50560 Off ch=4 n=69 v=64
50589 On ch=4 n=69 v=89
50604 Off ch=4 n=69 v=64
50630 On ch=4 n=69 v=80
50665 Off ch=4 n=69 v=64
50679 On ch=4 n=73 v=105
50698 Off ch=4 n=73 v=64
50731 On ch=4 n=73 v=102
50751 Off ch=4 n=73 v=64
50781 On ch=4 n=73 v=107
50824 Off ch=4 n=73 v=64
50827 On ch=4 n=71 v=89
50847 Off ch=4 n=71 v=64
50879 On ch=4 n=69 v=100
50970 Off ch=4 n=69 v=64
51074 On ch=4 n=72 v=102
51094 Off ch=4 n=72 v=64
51120 On ch=4 n=72 v=102
51157 Off ch=4 n=72 v=64
51167 On ch=4 n=71 v=91
51190 Off ch=4 n=71 v=64
51215 On ch=4 n=69 v=98
51235 Off ch=4 n=69 v=64
51265 On ch=4 n=69 v=105
51343 Off ch=4 n=69 v=64
51398 On ch=4 n=69 v=116
51432 Off ch=4 n=69 v=64
51448 On ch=4 n=72 v=105
51473 Off ch=4 n=72 v=64
51497 On ch=4 n=72 v=113
51524 Off ch=4 n=72 v=64
51546 On ch=4 n=72 v=107
51575 Off ch=4 n=72 v=64
51596 On ch=4 n=72 v=110
51625 Off ch=4 n=72 v=64
51692 On ch=4 n=72 v=119
51721 Off ch=4 n=72 v=64
51788 On ch=4 n=72 v=119
51842 Off ch=4 n=72 v=64
52129 On ch=4 n=72 v=110
52158 Off ch=4 n=72 v=64
52174 On ch=4 n=72 v=102
52198 Off ch=4 n=72 v=64
52224 Par ch=4 c=7 v=127
52225 On ch=4 n=72 v=119
52245 Off ch=4 n=72 v=64
52247 Par ch=4 c=7 v=126
52270 Par ch=4 c=7 v=125
52272 On ch=4 n=72 v=107
52294 Off ch=4 n=72 v=64
52294 Par ch=4 c=7 v=124
52317 Par ch=4 c=7 v=123
52318 On ch=4 n=72 v=107
52341 Par ch=4 c=7 v=122
52342 Off ch=4 n=72 v=64
52364 Par ch=4 c=7 v=121
52365 On ch=4 n=72 v=110
52388 Par ch=4 c=7 v=120
52394 Off ch=4 n=72 v=64
52411 Par ch=4 c=7 v=119
52434 Par ch=4 c=7 v=118
52458 Par ch=4 c=7 v=117
52461 On ch=4 n=72 v=113
52481 Par ch=4 c=7 v=116
52490 Off ch=4 n=72 v=64
52505 Par ch=4 c=7 v=115
52528 Par ch=4 c=7 v=114
52552 Par ch=4 c=7 v=113
52556 On ch=4 n=72 v=122
52575 Par ch=4 c=7 v=112
52598 Par ch=4 c=7 v=111
52608 Off ch=4 n=72 v=64
52622 Par ch=4 c=7 v=110
52645 Par ch=4 c=7 v=109
52669 Par ch=4 c=7 v=108
52692 Par ch=4 c=7 v=107
52716 Par ch=4 c=7 v=106
52739 Par ch=4 c=7 v=105
52762 Par ch=4 c=7 v=104
52786 Par ch=4 c=7 v=103
52809 Par ch=4 c=7 v=102
52833 Par ch=4 c=7 v=101
52856 Par ch=4 c=7 v=100
52880 Par ch=4 c=7 v=99
52903 Par ch=4 c=7 v=98
52926 Par ch=4 c=7 v=97
52950 Par ch=4 c=7 v=96
52973 Par ch=4 c=7 v=95
52990 On ch=4 n=72 v=105
52997 Par ch=4 c=7 v=94
53016 Off ch=4 n=72 v=64
53020 Par ch=4 c=7 v=93
53034 On ch=4 n=72 v=85
53044 Par ch=4 c=7 v=92
53065 Off ch=4 n=72 v=64
53067 Par ch=4 c=7 v=91
53084 On ch=4 n=72 v=98
53090 Par ch=4 c=7 v=90
53114 Par ch=4 c=7 v=89
53115 Off ch=4 n=72 v=64
53133 On ch=4 n=72 v=107
53137 Par ch=4 c=7 v=88
53161 Par ch=4 c=7 v=87
53164 Off ch=4 n=72 v=64
53184 Par ch=4 c=7 v=86
53208 Par ch=4 c=7 v=85
53226 On ch=4 n=72 v=110
53231 Par ch=4 c=7 v=84
53254 Par ch=4 c=7 v=83
53261 Off ch=4 n=72 v=64
53278 Par ch=4 c=7 v=82
53301 Par ch=4 c=7 v=81
53320 On ch=4 n=72 v=113
53325 Par ch=4 c=7 v=80
53348 Par ch=4 c=7 v=79
53367 Off ch=4 n=72 v=64
53372 Par ch=4 c=7 v=78
53395 Par ch=4 c=7 v=77
53419 Par ch=4 c=7 v=76
53442 Par ch=4 c=7 v=75
53465 Par ch=4 c=7 v=74
53489 Par ch=4 c=7 v=73
53512 Par ch=4 c=7 v=72
53536 Par ch=4 c=7 v=71
53559 Par ch=4 c=7 v=70
53583 Par ch=4 c=7 v=69
53606 Par ch=4 c=7 v=68
53629 Par ch=4 c=7 v=67
53653 Par ch=4 c=7 v=66
53676 Par ch=4 c=7 v=65
53700 Par ch=4 c=7 v=64
53704 On ch=4 n=69 v=82
53723 Par ch=4 c=7 v=63
53734 Off ch=4 n=69 v=64
53747 Par ch=4 c=7 v=62
53750 On ch=4 n=72 v=105
53770 Par ch=4 c=7 v=61
53779 Off ch=4 n=72 v=64
53793 Par ch=4 c=7 v=60
53796 On ch=4 n=72 v=102
53817 Par ch=4 c=7 v=59
53835 Off ch=4 n=72 v=64
53840 Par ch=4 c=7 v=58
53864 Par ch=4 c=7 v=57
53887 Par ch=4 c=7 v=56
53911 Par ch=4 c=7 v=55
53934 Par ch=4 c=7 v=54
53957 Par ch=4 c=7 v=53
53981 Par ch=4 c=7 v=52
54004 Par ch=4 c=7 v=51
54028 Par ch=4 c=7 v=50
54051 Par ch=4 c=7 v=49
54075 Par ch=4 c=7 v=48
54095 On ch=4 n=75 v=105
54098 Par ch=4 c=7 v=47
54121 Par ch=4 c=7 v=46
54145 Par ch=4 c=7 v=45
54168 Par ch=4 c=7 v=44
54173 Off ch=4 n=75 v=64
54188 On ch=4 n=75 v=105
54192 Par ch=4 c=7 v=43
54215 Par ch=4 c=7 v=42
54219 Off ch=4 n=75 v=64
54238 On ch=4 n=74 v=78
54239 Par ch=4 c=7 v=41
54262 Par ch=4 c=7 v=40
54263 Off ch=4 n=74 v=64
54282 On ch=4 n=72 v=98
54285 Par ch=4 c=7 v=39
54309 Par ch=4 c=7 v=38
54320 Off ch=4 n=72 v=64
54332 Par ch=4 c=7 v=37
54333 On ch=4 n=72 v=74
54356 Par ch=4 c=7 v=36
54364 Off ch=4 n=72 v=64
54377 On ch=4 n=74 v=105
54379 Par ch=4 c=7 v=35
54403 Par ch=4 c=7 v=34
54426 Par ch=4 c=7 v=33
54449 Par ch=4 c=7 v=32
54455 Off ch=4 n=74 v=64
54473 Par ch=4 c=7 v=31
54473 On ch=4 n=72 v=105
54496 Par ch=4 c=7 v=30
54520 Par ch=4 c=7 v=29
54543 Par ch=4 c=7 v=28
54567 Par ch=4 c=7 v=27
54590 Par ch=4 c=7 v=26
54593 Off ch=4 n=72 v=64
54614 Par ch=4 c=7 v=25
54637 Par ch=4 c=7 v=24
54660 Par ch=4 c=7 v=23
54684 Par ch=4 c=7 v=22
54707 Par ch=4 c=7 v=21
54731 Par ch=4 c=7 v=20
54754 Par ch=4 c=7 v=19
54778 Par ch=4 c=7 v=18
54801 Par ch=4 c=7 v=17
54824 Par ch=4 c=7 v=16
54848 Par ch=4 c=7 v=15
54871 Par ch=4 c=7 v=14
54895 Par ch=4 c=7 v=13
54918 Par ch=4 c=7 v=12
54942 Par ch=4 c=7 v=11
54965 Par ch=4 c=7 v=10
54988 Par ch=4 c=7 v=9
55012 Par ch=4 c=7 v=8
55035 Par ch=4 c=7 v=7
55059 Par ch=4 c=7 v=6
55082 Par ch=4 c=7 v=5
55106 Par ch=4 c=7 v=4
55129 Par ch=4 c=7 v=3
55152 Par ch=4 c=7 v=2
55176 Par ch=4 c=7 v=1
55199 Par ch=4 c=7 v=0
55199 Meta TrkEnd
TrkEnd
MTrk
0 Meta TrkName "Vocal2"
0 Par ch=5 c=0 v=0
0 PrCh ch=5 p=52
0 Par ch=5 c=10 v=34
0 Par ch=5 c=91 v=64
0 Par ch=5 c=93 v=20
0 TimeSig 4/4 96 8
0 Tempo 480000
776 Par ch=5 c=7 v=100
778 Par ch=5 c=65 v=0
780 Par ch=5 c=5 v=20
782 Par ch=5 c=101 v=0
784 Par ch=5 c=100 v=0
786 Par ch=5 c=6 v=2
12670 On ch=5 n=64 v=72
12814 Off ch=5 n=64 v=64
12817 On ch=5 n=71 v=74
12856 Off ch=5 n=71 v=64
12871 On ch=5 n=71 v=68
12953 Off ch=5 n=71 v=64
12955 On ch=5 n=69 v=62
12990 Off ch=5 n=69 v=64
13010 On ch=5 n=69 v=53
13083 Off ch=5 n=69 v=64
13438 On ch=5 n=64 v=70
13577 Off ch=5 n=64 v=64
13584 On ch=5 n=71 v=72
13624 Off ch=5 n=71 v=64
13641 On ch=5 n=71 v=68
13714 Off ch=5 n=71 v=64
13724 On ch=5 n=69 v=68
13756 Off ch=5 n=69 v=64
13776 On ch=5 n=69 v=59
13871 Off ch=5 n=69 v=64
14203 On ch=5 n=64 v=64
14342 Off ch=5 n=64 v=64
14346 On ch=5 n=71 v=60
14388 Off ch=5 n=71 v=64
14400 On ch=5 n=71 v=66
14485 Off ch=5 n=71 v=64
14498 On ch=5 n=69 v=68
14532 Off ch=5 n=69 v=64
14550 On ch=5 n=69 v=62
14663 Off ch=5 n=69 v=64
14975 On ch=5 n=64 v=60
15109 Off ch=5 n=64 v=64
15120 On ch=5 n=71 v=68
15148 Off ch=5 n=71 v=64
15167 On ch=5 n=71 v=66
15247 Off ch=5 n=71 v=64
15258 On ch=5 n=69 v=63
15290 Off ch=5 n=69 v=64
15306 On ch=5 n=69 v=64
15943 Off ch=5 n=69 v=64
22281 On ch=5 n=60 v=82
22412 On ch=5 n=64 v=89
22413 Off ch=5 n=60 v=64
22417 On ch=5 n=71 v=74
22445 Off ch=5 n=64 v=64
22456 Off ch=5 n=71 v=64
22463 On ch=5 n=64 v=80
22471 On ch=5 n=71 v=68
22546 Off ch=5 n=64 v=64
22553 Off ch=5 n=71 v=64
22554 On ch=5 n=62 v=76
22555 On ch=5 n=69 v=62
22590 Off ch=5 n=62 v=64
22590 Off ch=5 n=69 v=64
22606 On ch=5 n=62 v=74
22610 On ch=5 n=69 v=53
22683 Off ch=5 n=69 v=64
22704 Off ch=5 n=62 v=64
23036 On ch=5 n=60 v=85
23038 On ch=5 n=64 v=70
23115 Off ch=5 n=60 v=64
23128 On ch=5 n=60 v=63
23177 Off ch=5 n=64 v=64
23182 On ch=5 n=64 v=87
23184 On ch=5 n=71 v=72
23189 Off ch=5 n=60 v=64
23219 Off ch=5 n=64 v=64
23224 Off ch=5 n=71 v=64
23234 On ch=5 n=64 v=82
23241 On ch=5 n=71 v=68
23314 Off ch=5 n=71 v=64
23317 Off ch=5 n=64 v=64
23323 On ch=5 n=62 v=78
23324 On ch=5 n=69 v=68
23353 Off ch=5 n=62 v=64
23356 Off ch=5 n=69 v=64
23371 On ch=5 n=62 v=70
23376 On ch=5 n=69 v=59
23471 Off ch=5 n=69 v=64
23487 Off ch=5 n=62 v=64
23798 On ch=5 n=60 v=89
23803 On ch=5 n=64 v=64
23941 Off ch=5 n=60 v=64
23942 Off ch=5 n=64 v=64
23946 On ch=5 n=71 v=60
23951 On ch=5 n=64 v=85
23983 Off ch=5 n=64 v=64
23988 Off ch=5 n=71 v=64
23999 On ch=5 n=64 v=82
24000 On ch=5 n=71 v=66
24085 Off ch=5 n=71 v=64
24089 On ch=5 n=62 v=74
24090 Off ch=5 n=64 v=64
24098 On ch=5 n=69 v=68
24122 Off ch=5 n=62 v=64
24132 Off ch=5 n=69 v=64
24140 On ch=5 n=62 v=76
24150 On ch=5 n=69 v=62
24247 Off ch=5 n=62 v=64
24263 Off ch=5 n=69 v=64
24572 On ch=5 n=60 v=85
24575 On ch=5 n=64 v=60
24709 Off ch=5 n=64 v=64
24712 Off ch=5 n=60 v=64
24716 On ch=5 n=64 v=87
24720 On ch=5 n=71 v=68
24742 Off ch=5 n=64 v=64
24748 Off ch=5 n=71 v=64
24763 On ch=5 n=64 v=78
24767 On ch=5 n=71 v=66
24847 Off ch=5 n=71 v=64
24858 On ch=5 n=69 v=87
24889 Off ch=5 n=64 v=64
24890 Off ch=5 n=69 v=64
24906 On ch=5 n=69 v=88
24907 On ch=5 n=64 v=113
25422 Off ch=5 n=64 v=64
25543 Off ch=5 n=69 v=64
26060 On ch=5 n=64 v=105
26189 Off ch=5 n=64 v=64
26203 On ch=5 n=64 v=100
26248 Off ch=5 n=64 v=64
26250 On ch=5 n=67 v=102
26281 Off ch=5 n=67 v=64
26299 On ch=5 n=67 v=105
26326 Off ch=5 n=67 v=64
26349 On ch=5 n=69 v=110
26419 Off ch=5 n=69 v=64
26437 On ch=5 n=69 v=119
26821 Off ch=5 n=69 v=64
27596 On ch=5 n=64 v=107
27722 Off ch=5 n=64 v=64
27739 On ch=5 n=64 v=95
27780 Off ch=5 n=64 v=64
27785 On ch=5 n=67 v=100
27817 Off ch=5 n=67 v=64
27834 On ch=5 n=67 v=102
27863 Off ch=5 n=67 v=64
27884 On ch=5 n=69 v=113
27947 Off ch=5 n=69 v=64
27974 On ch=5 n=69 v=113
28403 Off ch=5 n=69 v=64
29136 On ch=5 n=64 v=113
29260 Off ch=5 n=64 v=64
29275 On ch=5 n=64 v=89
29316 Off ch=5 n=64 v=64
29319 On ch=5 n=67 v=105
29347 Off ch=5 n=67 v=64
29367 On ch=5 n=67 v=102
29391 Off ch=5 n=67 v=64
29417 On ch=5 n=69 v=113
29492 Off ch=5 n=69 v=64
29516 On ch=5 n=69 v=116
29520 On ch=5 n=64 v=116
30328 Off ch=5 n=64 v=64
30328 Off ch=5 n=69 v=64
41097 On ch=5 n=60 v=82
41228 On ch=5 n=64 v=89
41229 Off ch=5 n=60 v=64
41233 On ch=5 n=71 v=74
41261 Off ch=5 n=64 v=64
41272 Off ch=5 n=71 v=64
41279 On ch=5 n=64 v=80
41287 On ch=5 n=71 v=68
41362 Off ch=5 n=64 v=64
41369 Off ch=5 n=71 v=64
41370 On ch=5 n=62 v=76
41371 On ch=5 n=69 v=62
41406 Off ch=5 n=62 v=64
41406 Off ch=5 n=69 v=64
41422 On ch=5 n=62 v=74
41426 On ch=5 n=69 v=53
41499 Off ch=5 n=69 v=64
41520 Off ch=5 n=62 v=64
41852 On ch=5 n=60 v=85
41854 On ch=5 n=64 v=70
41931 Off ch=5 n=60 v=64
41944 On ch=5 n=60 v=63
41993 Off ch=5 n=64 v=64
41998 On ch=5 n=64 v=87
42000 On ch=5 n=71 v=72
42005 Off ch=5 n=60 v=64
42035 Off ch=5 n=64 v=64
42040 Off ch=5 n=71 v=64
42050 On ch=5 n=64 v=82
42057 On ch=5 n=71 v=68
42130 Off ch=5 n=71 v=64
42133 Off ch=5 n=64 v=64
42139 On ch=5 n=62 v=78
42140 On ch=5 n=69 v=68
42169 Off ch=5 n=62 v=64
42172 Off ch=5 n=69 v=64
42187 On ch=5 n=62 v=70
42192 On ch=5 n=69 v=59
42287 Off ch=5 n=69 v=64
42303 Off ch=5 n=62 v=64
42614 On ch=5 n=60 v=89
42619 On ch=5 n=64 v=64
42757 Off ch=5 n=60 v=64
42758 Off ch=5 n=64 v=64
42762 On ch=5 n=71 v=60
42767 On ch=5 n=64 v=85
42799 Off ch=5 n=64 v=64
42804 Off ch=5 n=71 v=64
42815 On ch=5 n=64 v=82
42816 On ch=5 n=71 v=66
42901 Off ch=5 n=71 v=64
42905 On ch=5 n=62 v=74
42906 Off ch=5 n=64 v=64
42914 On ch=5 n=69 v=68
42938 Off ch=5 n=62 v=64
42948 Off ch=5 n=69 v=64
42956 On ch=5 n=62 v=76
42966 On ch=5 n=69 v=62
43063 Off ch=5 n=62 v=64
43079 Off ch=5 n=69 v=64
43388 On ch=5 n=60 v=85
43390 On ch=5 n=64 v=70
43401 On ch=5 n=60 v=82
43467 Off ch=5 n=60 v=64
43529 Off ch=5 n=64 v=64
43532 On ch=5 n=64 v=89
43533 Off ch=5 n=60 v=64
43537 On ch=5 n=71 v=74
43565 Off ch=5 n=64 v=64
43576 Off ch=5 n=71 v=64
43583 On ch=5 n=64 v=80
43591 On ch=5 n=71 v=68
43666 Off ch=5 n=64 v=64
43673 Off ch=5 n=71 v=64
43674 On ch=5 n=62 v=76
43675 On ch=5 n=69 v=62
43710 Off ch=5 n=62 v=64
43710 Off ch=5 n=69 v=64
43726 On ch=5 n=62 v=74
43730 On ch=5 n=69 v=53
43803 Off ch=5 n=69 v=64
43824 Off ch=5 n=62 v=64
44156 On ch=5 n=60 v=85
44158 On ch=5 n=64 v=70
44160 On ch=5 n=72 v=80
44169 On ch=5 n=60 v=82
44235 Off ch=5 n=60 v=64
44296 Off ch=5 n=72 v=64
44297 Off ch=5 n=64 v=64
44300 On ch=5 n=64 v=89
44301 Off ch=5 n=60 v=64
44305 On ch=5 n=72 v=74
44333 Off ch=5 n=64 v=64
44344 Off ch=5 n=72 v=64
44351 On ch=5 n=64 v=80
44359 On ch=5 n=72 v=68
44434 Off ch=5 n=64 v=64
44441 Off ch=5 n=72 v=64
44442 On ch=5 n=62 v=76
44443 On ch=5 n=69 v=62
44478 Off ch=5 n=62 v=64
44478 Off ch=5 n=69 v=64
44494 On ch=5 n=62 v=74
44498 On ch=5 n=69 v=53
44571 Off ch=5 n=69 v=64
44592 Off ch=5 n=62 v=64
44924 On ch=5 n=60 v=85
44926 On ch=5 n=64 v=70
44928 On ch=5 n=72 v=80
45003 Off ch=5 n=60 v=64
45016 On ch=5 n=60 v=63
45064 Off ch=5 n=72 v=64
45065 Off ch=5 n=64 v=64
45070 On ch=5 n=64 v=87
45072 On ch=5 n=72 v=72
45077 Off ch=5 n=60 v=64
45107 Off ch=5 n=64 v=64
45112 Off ch=5 n=72 v=64
45122 On ch=5 n=64 v=82
45129 On ch=5 n=72 v=68
45202 Off ch=5 n=72 v=64
45205 Off ch=5 n=64 v=64
45211 On ch=5 n=62 v=78
45212 On ch=5 n=69 v=68
45241 Off ch=5 n=62 v=64
45244 Off ch=5 n=69 v=64
45259 On ch=5 n=62 v=70
45264 On ch=5 n=69 v=59
45359 Off ch=5 n=69 v=64
45375 Off ch=5 n=62 v=64
45686 On ch=5 n=60 v=89
45691 On ch=5 n=64 v=64
45696 On ch=5 n=72 v=80
45816 Off ch=5 n=72 v=64
45829 Off ch=5 n=60 v=64
45830 Off ch=5 n=64 v=64
45834 On ch=5 n=72 v=60
45839 On ch=5 n=64 v=85
45871 Off ch=5 n=64 v=64
45876 Off ch=5 n=72 v=64
45887 On ch=5 n=64 v=82
45888 On ch=5 n=72 v=66
45973 Off ch=5 n=72 v=64
45977 On ch=5 n=62 v=74
45978 Off ch=5 n=64 v=64
45986 On ch=5 n=69 v=68
46010 Off ch=5 n=62 v=64
46020 Off ch=5 n=69 v=64
46028 On ch=5 n=62 v=76
46038 On ch=5 n=69 v=62
46135 Off ch=5 n=62 v=64
46151 Off ch=5 n=69 v=64
46460 On ch=5 n=60 v=85
46463 On ch=5 n=64 v=60
46464 On ch=5 n=72 v=80
46597 Off ch=5 n=64 v=64
46600 Off ch=5 n=60 v=64
46600 Off ch=5 n=72 v=64
46604 On ch=5 n=64 v=87
46608 On ch=5 n=72 v=68
46630 Off ch=5 n=64 v=64
46636 Off ch=5 n=72 v=64
46651 On ch=5 n=64 v=90
46655 On ch=5 n=72 v=78
46735 Off ch=5 n=72 v=64
46746 On ch=5 n=69 v=75
46777 Off ch=5 n=64 v=64
46778 Off ch=5 n=69 v=64
46794 On ch=5 n=69 v=76
46795 On ch=5 n=64 v=101
47310 Off ch=5 n=64 v=64
47431 Off ch=5 n=69 v=64
47948 On ch=5 n=64 v=105
48077 Off ch=5 n=64 v=64
48091 On ch=5 n=64 v=100
48136 Off ch=5 n=64 v=64
48138 On ch=5 n=67 v=102
48169 Off ch=5 n=67 v=64
48187 On ch=5 n=67 v=105
48214 Off ch=5 n=67 v=64
48237 On ch=5 n=69 v=110
48307 Off ch=5 n=69 v=64
48325 On ch=5 n=69 v=119
48709 Off ch=5 n=69 v=64
49484 On ch=5 n=64 v=107
49610 Off ch=5 n=64 v=64
49627 On ch=5 n=64 v=95
49668 Off ch=5 n=64 v=64
49673 On ch=5 n=67 v=100
49705 Off ch=5 n=67 v=64
49722 On ch=5 n=67 v=102
49751 Off ch=5 n=67 v=64
49772 On ch=5 n=69 v=113
49835 Off ch=5 n=69 v=64
49862 On ch=5 n=69 v=113
50291 Off ch=5 n=69 v=64
51024 On ch=5 n=64 v=113
51148 Off ch=5 n=64 v=64
51163 On ch=5 n=64 v=89
51204 Off ch=5 n=64 v=64
51207 On ch=5 n=67 v=105
51235 Off ch=5 n=67 v=64
51255 On ch=5 n=67 v=102
51279 Off ch=5 n=67 v=64
51305 On ch=5 n=69 v=113
51380 Off ch=5 n=69 v=64
51404 On ch=5 n=69 v=116
51408 On ch=5 n=65 v=116
52216 Off ch=5 n=65 v=64
52216 Off ch=5 n=69 v=64
52216 Meta TrkEnd
TrkEnd
MTrk
0 Meta TrkName "Volcal3"
0 Par ch=6 c=0 v=0
0 PrCh ch=6 p=48
0 Par ch=6 c=10 v=94
0 Par ch=6 c=91 v=64
0 Par ch=6 c=93 v=110
0 TimeSig 4/4 96 8
0 Tempo 480000
776 Par ch=6 c=7 v=100
778 Par ch=6 c=65 v=0
780 Par ch=6 c=5 v=20
782 Par ch=6 c=101 v=0
784 Par ch=6 c=100 v=0
786 Par ch=6 c=6 v=2
13821 On ch=6 n=64 v=98
13824 Par ch=6 c=7 v=0
13827 Par ch=6 c=7 v=6
13830 Par ch=6 c=7 v=12
13833 Par ch=6 c=7 v=18
13836 Par ch=6 c=7 v=25
13839 Par ch=6 c=7 v=31
13842 Par ch=6 c=7 v=37
13845 Par ch=6 c=7 v=43
13848 Par ch=6 c=7 v=50
13851 Par ch=6 c=7 v=56
13854 Par ch=6 c=7 v=62
13857 Par ch=6 c=7 v=69
13860 Par ch=6 c=7 v=75
13863 Par ch=6 c=7 v=81
13866 Par ch=6 c=7 v=87
13869 Par ch=6 c=7 v=94
13871 Par ch=6 c=7 v=100
13957 Off ch=6 n=64 v=64
13969 On ch=6 n=64 v=80
14005 Off ch=6 n=64 v=64
14016 On ch=6 n=62 v=102
14044 Off ch=6 n=62 v=64
14058 On ch=6 n=62 v=102
14105 Off ch=6 n=62 v=64
14108 On ch=6 n=60 v=100
14146 Off ch=6 n=60 v=64
14154 On ch=6 n=59 v=84
14193 Off ch=6 n=59 v=64
14205 On ch=6 n=57 v=86
14208 Par ch=6 c=7 v=100
14211 Par ch=6 c=7 v=97
14214 Par ch=6 c=7 v=94
14217 Par ch=6 c=7 v=91
14220 Par ch=6 c=7 v=88
14223 Par ch=6 c=7 v=85
14226 Par ch=6 c=7 v=82
14229 Par ch=6 c=7 v=79
14232 Par ch=6 c=7 v=75
14235 Par ch=6 c=7 v=72
14238 Par ch=6 c=7 v=69
14241 Par ch=6 c=7 v=66
14244 Par ch=6 c=7 v=63
14247 Par ch=6 c=7 v=60
14250 Par ch=6 c=7 v=57
14253 Par ch=6 c=7 v=54
14256 Par ch=6 c=7 v=50
14259 Par ch=6 c=7 v=47
14262 Par ch=6 c=7 v=44
14265 Par ch=6 c=7 v=41
14268 Par ch=6 c=7 v=38
14271 Par ch=6 c=7 v=35
14274 Par ch=6 c=7 v=32
14277 Par ch=6 c=7 v=28
14280 Par ch=6 c=7 v=25
14283 Par ch=6 c=7 v=22
14286 Par ch=6 c=7 v=19
14289 Par ch=6 c=7 v=16
14292 Par ch=6 c=7 v=13
14295 Par ch=6 c=7 v=10
14298 Par ch=6 c=7 v=7
14301 Par ch=6 c=7 v=3
14303 Par ch=6 c=7 v=0
14337 Off ch=6 n=57 v=64
14356 Par ch=6 c=7 v=100
23421 On ch=6 n=64 v=98
23424 Par ch=6 c=7 v=0
23427 Par ch=6 c=7 v=6
23430 Par ch=6 c=7 v=12
23433 Par ch=6 c=7 v=18
23436 Par ch=6 c=7 v=25
23439 Par ch=6 c=7 v=31
23442 Par ch=6 c=7 v=37
23445 Par ch=6 c=7 v=43
23448 Par ch=6 c=7 v=50
23451 Par ch=6 c=7 v=56
23454 Par ch=6 c=7 v=62
23457 Par ch=6 c=7 v=69
23460 Par ch=6 c=7 v=75
23463 Par ch=6 c=7 v=81
23466 Par ch=6 c=7 v=87
23469 Par ch=6 c=7 v=94
23471 Par ch=6 c=7 v=100
23557 Off ch=6 n=64 v=64
23569 On ch=6 n=64 v=80
23605 Off ch=6 n=64 v=64
23616 On ch=6 n=62 v=102
23644 Off ch=6 n=62 v=64
23658 On ch=6 n=62 v=102
23705 Off ch=6 n=62 v=64
23708 On ch=6 n=60 v=100
23746 Off ch=6 n=60 v=64
23754 On ch=6 n=59 v=84
23793 Off ch=6 n=59 v=64
23805 On ch=6 n=57 v=86
23808 Par ch=6 c=7 v=100
23811 Par ch=6 c=7 v=97
23814 Par ch=6 c=7 v=94
23817 Par ch=6 c=7 v=91
23820 Par ch=6 c=7 v=88
23823 Par ch=6 c=7 v=85
23826 Par ch=6 c=7 v=82
23829 Par ch=6 c=7 v=79
23832 Par ch=6 c=7 v=75
23835 Par ch=6 c=7 v=72
23838 Par ch=6 c=7 v=69
23841 Par ch=6 c=7 v=66
23844 Par ch=6 c=7 v=63
23847 Par ch=6 c=7 v=60
23850 Par ch=6 c=7 v=57
23853 Par ch=6 c=7 v=54
23856 Par ch=6 c=7 v=50
23859 Par ch=6 c=7 v=47
23862 Par ch=6 c=7 v=44
23865 Par ch=6 c=7 v=41
23868 Par ch=6 c=7 v=38
23871 Par ch=6 c=7 v=35
23874 Par ch=6 c=7 v=32
23877 Par ch=6 c=7 v=28
23880 Par ch=6 c=7 v=25
23883 Par ch=6 c=7 v=22
23886 Par ch=6 c=7 v=19
23889 Par ch=6 c=7 v=16
23892 Par ch=6 c=7 v=13
23895 Par ch=6 c=7 v=10
23898 Par ch=6 c=7 v=7
23901 Par ch=6 c=7 v=3
23903 Par ch=6 c=7 v=0
23937 Off ch=6 n=57 v=64
23956 Par ch=6 c=7 v=100
26067 On ch=6 n=60 v=66
26189 Off ch=6 n=60 v=64
26209 On ch=6 n=60 v=66
26250 Off ch=6 n=60 v=64
26255 On ch=6 n=62 v=68
26278 Off ch=6 n=62 v=64
26302 On ch=6 n=62 v=66
26325 Off ch=6 n=62 v=64
26349 On ch=6 n=64 v=85
26423 Off ch=6 n=64 v=64
26446 On ch=6 n=64 v=82
26791 Off ch=6 n=64 v=64
27600 On ch=6 n=60 v=61
27723 Off ch=6 n=60 v=64
27742 On ch=6 n=60 v=68
27780 Off ch=6 n=60 v=64
27790 On ch=6 n=62 v=72
27813 Off ch=6 n=62 v=64
27839 On ch=6 n=62 v=68
27861 Off ch=6 n=62 v=64
27888 On ch=6 n=64 v=72
27957 Off ch=6 n=64 v=64
27979 On ch=6 n=64 v=87
28408 Off ch=6 n=64 v=64
29133 On ch=6 n=60 v=87
29264 Off ch=6 n=60 v=64
29282 On ch=6 n=60 v=62
29327 On ch=6 n=62 v=78
29328 Off ch=6 n=60 v=64
29346 Off ch=6 n=62 v=64
29375 On ch=6 n=62 v=66
29397 Off ch=6 n=62 v=64
29424 On ch=6 n=64 v=87
29495 Off ch=6 n=64 v=64
29520 On ch=6 n=69 v=112
29522 On ch=6 n=64 v=127
30328 Off ch=6 n=69 v=64
30332 Off ch=6 n=64 v=64
42237 On ch=6 n=64 v=98
42240 Par ch=6 c=7 v=0
42243 Par ch=6 c=7 v=6
42246 Par ch=6 c=7 v=12
42249 Par ch=6 c=7 v=18
42252 Par ch=6 c=7 v=25
42255 Par ch=6 c=7 v=31
42258 Par ch=6 c=7 v=37
42261 Par ch=6 c=7 v=43
42264 Par ch=6 c=7 v=50
42267 Par ch=6 c=7 v=56
42270 Par ch=6 c=7 v=62
42273 Par ch=6 c=7 v=69
42276 Par ch=6 c=7 v=75
42279 Par ch=6 c=7 v=81
42282 Par ch=6 c=7 v=87
42285 Par ch=6 c=7 v=94
42287 Par ch=6 c=7 v=100
42373 Off ch=6 n=64 v=64
42385 On ch=6 n=64 v=80
42421 Off ch=6 n=64 v=64
42432 On ch=6 n=62 v=102
42460 Off ch=6 n=62 v=64
42474 On ch=6 n=62 v=102
42521 Off ch=6 n=62 v=64
42524 On ch=6 n=60 v=100
42562 Off ch=6 n=60 v=64
42570 On ch=6 n=59 v=84
42609 Off ch=6 n=59 v=64
42621 On ch=6 n=57 v=86
42624 Par ch=6 c=7 v=100
42627 Par ch=6 c=7 v=97
42630 Par ch=6 c=7 v=94
42633 Par ch=6 c=7 v=91
42636 Par ch=6 c=7 v=88
42639 Par ch=6 c=7 v=85
42642 Par ch=6 c=7 v=82
42645 Par ch=6 c=7 v=79
42648 Par ch=6 c=7 v=75
42651 Par ch=6 c=7 v=72
42654 Par ch=6 c=7 v=69
42657 Par ch=6 c=7 v=66
42660 Par ch=6 c=7 v=63
42663 Par ch=6 c=7 v=60
42666 Par ch=6 c=7 v=57
42669 Par ch=6 c=7 v=54
42672 Par ch=6 c=7 v=50
42675 Par ch=6 c=7 v=47
42678 Par ch=6 c=7 v=44
42681 Par ch=6 c=7 v=41
42684 Par ch=6 c=7 v=38
42687 Par ch=6 c=7 v=35
42690 Par ch=6 c=7 v=32
42693 Par ch=6 c=7 v=28
42696 Par ch=6 c=7 v=25
42699 Par ch=6 c=7 v=22
42702 Par ch=6 c=7 v=19
42705 Par ch=6 c=7 v=16
42708 Par ch=6 c=7 v=13
42711 Par ch=6 c=7 v=10
42714 Par ch=6 c=7 v=7
42717 Par ch=6 c=7 v=3
42719 Par ch=6 c=7 v=0
42753 Off ch=6 n=57 v=64
42772 Par ch=6 c=7 v=100
45309 On ch=6 n=64 v=98
45312 Par ch=6 c=7 v=0
45315 Par ch=6 c=7 v=6
45318 Par ch=6 c=7 v=12
45321 Par ch=6 c=7 v=18
45324 Par ch=6 c=7 v=25
45327 Par ch=6 c=7 v=31
45330 Par ch=6 c=7 v=37
45333 Par ch=6 c=7 v=43
45336 Par ch=6 c=7 v=50
45339 Par ch=6 c=7 v=56
45342 Par ch=6 c=7 v=62
45345 Par ch=6 c=7 v=69
45348 Par ch=6 c=7 v=75
45351 Par ch=6 c=7 v=81
45354 Par ch=6 c=7 v=87
45357 Par ch=6 c=7 v=94
45359 Par ch=6 c=7 v=100
45445 Off ch=6 n=64 v=64
45457 On ch=6 n=64 v=80
45493 Off ch=6 n=64 v=64
45504 On ch=6 n=62 v=102
45532 Off ch=6 n=62 v=64
45546 On ch=6 n=62 v=102
45593 Off ch=6 n=62 v=64
45596 On ch=6 n=60 v=100
45634 Off ch=6 n=60 v=64
45642 On ch=6 n=59 v=84
45681 Off ch=6 n=59 v=64
45693 On ch=6 n=57 v=86
45696 Par ch=6 c=7 v=100
45699 Par ch=6 c=7 v=97
45702 Par ch=6 c=7 v=94
45705 Par ch=6 c=7 v=91
45708 Par ch=6 c=7 v=88
45711 Par ch=6 c=7 v=85
45714 Par ch=6 c=7 v=82
45717 Par ch=6 c=7 v=79
45720 Par ch=6 c=7 v=75
45723 Par ch=6 c=7 v=72
45726 Par ch=6 c=7 v=69
45729 Par ch=6 c=7 v=66
45732 Par ch=6 c=7 v=63
45735 Par ch=6 c=7 v=60
45738 Par ch=6 c=7 v=57
45741 Par ch=6 c=7 v=54
45744 Par ch=6 c=7 v=50
45747 Par ch=6 c=7 v=47
45750 Par ch=6 c=7 v=44
45753 Par ch=6 c=7 v=41
45756 Par ch=6 c=7 v=38
45759 Par ch=6 c=7 v=35
45762 Par ch=6 c=7 v=32
45765 Par ch=6 c=7 v=28
45768 Par ch=6 c=7 v=25
45771 Par ch=6 c=7 v=22
45774 Par ch=6 c=7 v=19
45777 Par ch=6 c=7 v=16
45780 Par ch=6 c=7 v=13
45783 Par ch=6 c=7 v=10
45786 Par ch=6 c=7 v=7
45789 Par ch=6 c=7 v=3
45791 Par ch=6 c=7 v=0
45825 Off ch=6 n=57 v=64
45844 Par ch=6 c=7 v=100
47955 On ch=6 n=60 v=66
48077 Off ch=6 n=60 v=64
48097 On ch=6 n=60 v=66
48138 Off ch=6 n=60 v=64
48143 On ch=6 n=62 v=68
48166 Off ch=6 n=62 v=64
48190 On ch=6 n=62 v=66
48213 Off ch=6 n=62 v=64
48237 On ch=6 n=64 v=85
48311 Off ch=6 n=64 v=64
48334 On ch=6 n=64 v=82
48679 Off ch=6 n=64 v=64
49488 On ch=6 n=60 v=61
49611 Off ch=6 n=60 v=64
49630 On ch=6 n=60 v=68
49668 Off ch=6 n=60 v=64
49678 On ch=6 n=62 v=72
49701 Off ch=6 n=62 v=64
49727 On ch=6 n=62 v=68
49749 Off ch=6 n=62 v=64
49776 On ch=6 n=64 v=72
49845 Off ch=6 n=64 v=64
49867 On ch=6 n=64 v=87
50296 Off ch=6 n=64 v=64
51021 On ch=6 n=60 v=87
51152 Off ch=6 n=60 v=64
51170 On ch=6 n=60 v=62
51215 On ch=6 n=62 v=78
51216 Off ch=6 n=60 v=64
51234 Off ch=6 n=62 v=64
51263 On ch=6 n=62 v=66
51285 Off ch=6 n=62 v=64
51312 On ch=6 n=64 v=87
51383 Off ch=6 n=64 v=64
51408 On ch=6 n=69 v=112
51410 On ch=6 n=65 v=127
52216 Off ch=6 n=69 v=64
52220 Off ch=6 n=65 v=64
52220 Meta TrkEnd
TrkEnd
MTrk
0 Meta TrkName "Keyboard1"
0 Par ch=7 c=0 v=0
0 PrCh ch=7 p=55
0 Par ch=7 c=10 v=64
0 Par ch=7 c=91 v=64
0 Par ch=7 c=93 v=64
0 TimeSig 4/4 96 8
0 Tempo 480000
776 Par ch=7 c=7 v=100
778 Par ch=7 c=65 v=0
780 Par ch=7 c=5 v=0
782 Par ch=7 c=101 v=0
784 Par ch=7 c=100 v=0
786 Par ch=7 c=6 v=5
5471 On ch=7 n=84 v=100
5472 On ch=7 n=86 v=100
5472 On ch=7 n=74 v=100
5509 Off ch=7 n=74 v=64
5512 Off ch=7 n=86 v=64
5516 Off ch=7 n=84 v=64
5567 On ch=7 n=79 v=100
5581 Off ch=7 n=79 v=64
5581 On ch=7 n=81 v=100
5596 Off ch=7 n=81 v=64
5597 On ch=7 n=84 v=100
5615 Off ch=7 n=84 v=64
5615 On ch=7 n=86 v=100
5630 Off ch=7 n=86 v=64
5631 On ch=7 n=84 v=100
5642 Off ch=7 n=84 v=64
5642 On ch=7 n=81 v=100
5660 Off ch=7 n=81 v=64
5666 On ch=7 n=79 v=100
5698 Off ch=7 n=79 v=64
11239 On ch=7 n=91 v=91
11240 On ch=7 n=93 v=91
11240 On ch=7 n=81 v=98
11298 Off ch=7 n=93 v=64
11299 Off ch=7 n=91 v=64
11299 Off ch=7 n=81 v=64
15360 PrCh ch=7 p=46
15889 On ch=7 n=55 v=64
15893 Off ch=7 n=55 v=64
15899 On ch=7 n=57 v=64
15903 Off ch=7 n=57 v=64
15913 On ch=7 n=58 v=64
15917 Off ch=7 n=58 v=64
15925 On ch=7 n=60 v=64
15928 Off ch=7 n=60 v=64
15932 On ch=7 n=62 v=64
15935 Off ch=7 n=62 v=64
15940 On ch=7 n=64 v=64
15943 Off ch=7 n=64 v=64
15947 On ch=7 n=65 v=64
15949 Off ch=7 n=65 v=64
15953 On ch=7 n=67 v=64
15956 Off ch=7 n=67 v=64
15959 On ch=7 n=69 v=64
15961 Off ch=7 n=69 v=64
15964 On ch=7 n=70 v=64
15967 Off ch=7 n=70 v=64
15969 On ch=7 n=72 v=64
15972 Off ch=7 n=72 v=64
15974 On ch=7 n=74 v=64
15977 Off ch=7 n=74 v=64
15979 On ch=7 n=76 v=64
15981 Off ch=7 n=76 v=64
15983 On ch=7 n=77 v=64
15986 Off ch=7 n=77 v=64
15988 On ch=7 n=79 v=64
15990 Off ch=7 n=79 v=64
15992 On ch=7 n=81 v=64
15995 Off ch=7 n=81 v=64
15997 On ch=7 n=82 v=64
15999 Off ch=7 n=82 v=64
16001 On ch=7 n=84 v=64
16004 Off ch=7 n=84 v=64
16005 On ch=7 n=86 v=64
16008 Off ch=7 n=86 v=64
16010 On ch=7 n=88 v=64
16013 Off ch=7 n=88 v=64
16015 On ch=7 n=89 v=64
16018 Off ch=7 n=89 v=64
16020 On ch=7 n=91 v=64
16023 Off ch=7 n=91 v=64
16027 On ch=7 n=93 v=64
16030 Off ch=7 n=93 v=64
16030 PrCh ch=7 p=55
16032 On ch=7 n=95 v=100
16032 On ch=7 n=98 v=100
16033 On ch=7 n=86 v=100
16049 Off ch=7 n=98 v=64
16053 Off ch=7 n=95 v=64
16054 Off ch=7 n=86 v=64
17664 PrCh ch=7 p=94
17974 On ch=7 n=60 v=68
17974 On ch=7 n=64 v=68
17976 Par ch=7 c=7 v=0
17976 On ch=7 n=55 v=68
17979 Par ch=7 c=7 v=0
17982 Par ch=7 c=7 v=11
17985 Par ch=7 c=7 v=22
17988 Par ch=7 c=7 v=34
17991 Par ch=7 c=7 v=46
17994 Par ch=7 c=7 v=57
17997 Par ch=7 c=7 v=69
18000 Par ch=7 c=7 v=81
18001 Par ch=7 c=7 v=88
18048 Off ch=7 n=60 v=64
18048 Off ch=7 n=55 v=64
18048 On ch=7 n=66 v=80
18048 On ch=7 n=62 v=80
18048 On ch=7 n=57 v=80
18050 Off ch=7 n=64 v=64
18240 Off ch=7 n=62 v=64
18240 Off ch=7 n=57 v=64
18240 On ch=7 n=60 v=80
18240 On ch=7 n=64 v=80
18240 On ch=7 n=55 v=80
18242 Off ch=7 n=66 v=64
18332 Par ch=7 c=7 v=100
18335 Par ch=7 c=7 v=97
18338 Par ch=7 c=7 v=94
18341 Par ch=7 c=7 v=91
18344 Par ch=7 c=7 v=88
18347 Par ch=7 c=7 v=85
18350 Par ch=7 c=7 v=82
18353 Par ch=7 c=7 v=79
18356 Par ch=7 c=7 v=76
18359 Par ch=7 c=7 v=73
18362 Par ch=7 c=7 v=70
18365 Par ch=7 c=7 v=67
18368 Par ch=7 c=7 v=64
18371 Par ch=7 c=7 v=61
18374 Par ch=7 c=7 v=58
18377 Par ch=7 c=7 v=54
18380 Par ch=7 c=7 v=51
18383 Par ch=7 c=7 v=48
18386 Par ch=7 c=7 v=45
18389 Par ch=7 c=7 v=42
18392 Par ch=7 c=7 v=39
18395 Par ch=7 c=7 v=36
18398 Par ch=7 c=7 v=33
18401 Par ch=7 c=7 v=30
18404 Par ch=7 c=7 v=27
18407 Par ch=7 c=7 v=24
18410 Par ch=7 c=7 v=21
18413 Par ch=7 c=7 v=18
18416 Par ch=7 c=7 v=15
18419 Par ch=7 c=7 v=12
18422 Par ch=7 c=7 v=8
18425 Par ch=7 c=7 v=5
18428 Par ch=7 c=7 v=2
18429 Par ch=7 c=7 v=0
18432 Off ch=7 n=60 v=64
18432 Off ch=7 n=64 v=64
18432 Off ch=7 n=55 v=64
18436 Par ch=7 c=7 v=100
18816 PrCh ch=7 p=127
19095 On ch=7 n=48 v=105
19200 PrCh ch=7 p=55
19205 Off ch=7 n=48 v=64
19303 On ch=7 n=91 v=91
19304 On ch=7 n=93 v=91
19304 On ch=7 n=81 v=98
19362 Off ch=7 n=93 v=64
19363 Off ch=7 n=91 v=64
19363 Off ch=7 n=81 v=64
24960 PrCh ch=7 p=48
26832 On ch=7 n=88 v=71
27022 On ch=7 n=95 v=71
27205 Off ch=7 n=95 v=64
27215 On ch=7 n=93 v=80
28334 Off ch=7 n=88 v=64
28350 Off ch=7 n=93 v=64
28360 On ch=7 n=88 v=75
28561 On ch=7 n=95 v=75
28751 On ch=7 n=93 v=75
28757 Off ch=7 n=95 v=64
30292 On ch=7 n=80 v=108
30293 On ch=7 n=72 v=101
30293 On ch=7 n=75 v=101
30322 Off ch=7 n=72 v=64
30323 Off ch=7 n=80 v=64
30323 Off ch=7 n=75 v=64
30328 Off ch=7 n=88 v=64
30328 Off ch=7 n=93 v=64
30674 On ch=7 n=80 v=96
30674 On ch=7 n=75 v=108
30674 On ch=7 n=72 v=101
30698 Off ch=7 n=72 v=64
30699 Off ch=7 n=75 v=64
30701 Off ch=7 n=80 v=64
31100 On ch=7 n=80 v=108
31100 On ch=7 n=75 v=108
31101 On ch=7 n=72 v=96
31130 Off ch=7 n=75 v=64
31131 Off ch=7 n=72 v=64
31131 Off ch=7 n=80 v=64
31477 On ch=7 n=75 v=108
31483 On ch=7 n=72 v=101
31487 On ch=7 n=80 v=108
31507 Off ch=7 n=75 v=64
31514 Off ch=7 n=80 v=64
31518 Off ch=7 n=72 v=64
31549 On ch=7 n=71 v=108
31554 On ch=7 n=76 v=101
31557 On ch=7 n=68 v=108
31578 Off ch=7 n=71 v=64
31585 Off ch=7 n=76 v=64
31587 Off ch=7 n=68 v=64
31620 On ch=7 n=72 v=90
31622 On ch=7 n=69 v=101
31625 On ch=7 n=77 v=101
31651 Off ch=7 n=69 v=64
31652 Off ch=7 n=77 v=64
31655 Off ch=7 n=72 v=64
31680 On ch=7 n=78 v=101
31683 On ch=7 n=70 v=114
31683 On ch=7 n=73 v=101
31708 Off ch=7 n=78 v=64
31708 Off ch=7 n=70 v=64
31710 Off ch=7 n=73 v=64
31741 On ch=7 n=74 v=90
31743 On ch=7 n=79 v=101
31745 On ch=7 n=71 v=108
31771 Off ch=7 n=74 v=64
31771 Off ch=7 n=79 v=64
31772 Off ch=7 n=71 v=64
31804 On ch=7 n=80 v=101
31806 On ch=7 n=75 v=101
31807 On ch=7 n=72 v=101
31828 Off ch=7 n=80 v=64
31834 Off ch=7 n=75 v=64
31836 Off ch=7 n=72 v=64
31859 On ch=7 n=81 v=114
31863 On ch=7 n=76 v=108
31865 On ch=7 n=73 v=114
31888 Off ch=7 n=81 v=64
31890 Off ch=7 n=73 v=64
31891 Off ch=7 n=76 v=64
39512 Par ch=7 c=7 v=0
39523 Par ch=7 c=7 v=1
39535 Par ch=7 c=7 v=2
39547 Par ch=7 c=7 v=3
39550 On ch=7 n=67 v=58
39551 On ch=7 n=74 v=62
39551 On ch=7 n=76 v=62
39559 Par ch=7 c=7 v=4
39571 Par ch=7 c=7 v=5
39583 Par ch=7 c=7 v=6
39595 Par ch=7 c=7 v=7
39607 Par ch=7 c=7 v=8
39619 Par ch=7 c=7 v=9
39631 Par ch=7 c=7 v=10
39643 Par ch=7 c=7 v=11
39655 Par ch=7 c=7 v=12
39666 Par ch=7 c=7 v=13
39678 Par ch=7 c=7 v=14
39690 Par ch=7 c=7 v=15
39702 Par ch=7 c=7 v=16
39714 Par ch=7 c=7 v=17
39726 Par ch=7 c=7 v=18
39738 Par ch=7 c=7 v=19
39750 Par ch=7 c=7 v=20
39762 Par ch=7 c=7 v=21
39774 Par ch=7 c=7 v=22
39786 Par ch=7 c=7 v=23
39798 Par ch=7 c=7 v=24
39809 Par ch=7 c=7 v=25
39821 Par ch=7 c=7 v=26
39833 Par ch=7 c=7 v=27
39845 Par ch=7 c=7 v=28
39857 Par ch=7 c=7 v=29
39869 Par ch=7 c=7 v=30
39881 Par ch=7 c=7 v=31
39893 Par ch=7 c=7 v=32
39905 Par ch=7 c=7 v=33
39917 Par ch=7 c=7 v=34
39929 Par ch=7 c=7 v=35
39941 Par ch=7 c=7 v=36
39952 Par ch=7 c=7 v=37
39964 Par ch=7 c=7 v=38
39976 Par ch=7 c=7 v=39
39988 Par ch=7 c=7 v=40
40000 Par ch=7 c=7 v=41
40012 Par ch=7 c=7 v=42
40024 Par ch=7 c=7 v=43
40036 Par ch=7 c=7 v=44
40048 Par ch=7 c=7 v=45
40060 Par ch=7 c=7 v=46
40072 Par ch=7 c=7 v=47
40084 Par ch=7 c=7 v=48
40095 Par ch=7 c=7 v=49
40107 Par ch=7 c=7 v=50
40119 Par ch=7 c=7 v=51
40131 Par ch=7 c=7 v=52
40143 Par ch=7 c=7 v=53
40155 Par ch=7 c=7 v=54
40167 Par ch=7 c=7 v=55
40179 Par ch=7 c=7 v=56
40191 Par ch=7 c=7 v=57
40203 Par ch=7 c=7 v=58
40215 Par ch=7 c=7 v=59
40227 Par ch=7 c=7 v=60
40238 Par ch=7 c=7 v=61
40250 Par ch=7 c=7 v=62
40262 Par ch=7 c=7 v=63
40274 Par ch=7 c=7 v=64
40286 Par ch=7 c=7 v=65
40298 Par ch=7 c=7 v=66
40310 Par ch=7 c=7 v=67
40322 Par ch=7 c=7 v=68
40334 Par ch=7 c=7 v=69
40346 Par ch=7 c=7 v=70
40358 Par ch=7 c=7 v=71
40370 Par ch=7 c=7 v=72
40382 Par ch=7 c=7 v=73
40393 Par ch=7 c=7 v=74
40405 Par ch=7 c=7 v=75
40417 Par ch=7 c=7 v=76
40429 Par ch=7 c=7 v=77
40441 Par ch=7 c=7 v=78
40453 Par ch=7 c=7 v=79
40465 Par ch=7 c=7 v=80
40477 Par ch=7 c=7 v=81
40489 Par ch=7 c=7 v=82
40501 Par ch=7 c=7 v=83
40513 Par ch=7 c=7 v=84
40525 Par ch=7 c=7 v=85
40536 Par ch=7 c=7 v=86
40548 Par ch=7 c=7 v=87
40560 Par ch=7 c=7 v=88
40572 Par ch=7 c=7 v=89
40584 Par ch=7 c=7 v=90
40596 Par ch=7 c=7 v=91
40608 Par ch=7 c=7 v=92
40620 Par ch=7 c=7 v=93
40632 Par ch=7 c=7 v=94
40644 Par ch=7 c=7 v=95
40656 Par ch=7 c=7 v=96
40668 Par ch=7 c=7 v=97
40679 Par ch=7 c=7 v=98
40691 Par ch=7 c=7 v=99
40703 Par ch=7 c=7 v=100
41096 Par ch=7 c=7 v=100
41099 Par ch=7 c=7 v=99
41103 Par ch=7 c=7 v=98
41107 Par ch=7 c=7 v=97
41111 Par ch=7 c=7 v=96
41114 Par ch=7 c=7 v=95
41118 Par ch=7 c=7 v=94
41122 Par ch=7 c=7 v=93
41126 Par ch=7 c=7 v=92
41129 Par ch=7 c=7 v=91
41133 Par ch=7 c=7 v=90
41137 Par ch=7 c=7 v=89
41141 Par ch=7 c=7 v=88
41144 Par ch=7 c=7 v=87
41148 Par ch=7 c=7 v=86
41152 Par ch=7 c=7 v=85
41156 Par ch=7 c=7 v=84
41159 Par ch=7 c=7 v=83
41163 Par ch=7 c=7 v=82
41167 Par ch=7 c=7 v=81
41171 Par ch=7 c=7 v=80
41174 Par ch=7 c=7 v=79
41178 Par ch=7 c=7 v=78
41182 Par ch=7 c=7 v=77
41186 Par ch=7 c=7 v=76
41189 Par ch=7 c=7 v=75
41193 Par ch=7 c=7 v=74
41197 Par ch=7 c=7 v=73
41201 Par ch=7 c=7 v=72
41204 Par ch=7 c=7 v=71
41208 Par ch=7 c=7 v=70
41212 Par ch=7 c=7 v=69
41216 Par ch=7 c=7 v=68
41220 Par ch=7 c=7 v=67
41223 Par ch=7 c=7 v=66
41227 Par ch=7 c=7 v=65
41231 Par ch=7 c=7 v=64
41235 Par ch=7 c=7 v=63
41238 Par ch=7 c=7 v=62
41242 Par ch=7 c=7 v=61
41246 Par ch=7 c=7 v=60
41250 Par ch=7 c=7 v=59
41253 Par ch=7 c=7 v=58
41257 Par ch=7 c=7 v=57
41261 Par ch=7 c=7 v=56
41265 Par ch=7 c=7 v=55
41268 Par ch=7 c=7 v=54
41272 Par ch=7 c=7 v=53
41276 Par ch=7 c=7 v=52
41280 Par ch=7 c=7 v=51
41283 Par ch=7 c=7 v=50
41287 Par ch=7 c=7 v=49
41291 Par ch=7 c=7 v=48
41295 Par ch=7 c=7 v=47
41298 Par ch=7 c=7 v=46
41302 Par ch=7 c=7 v=45
41306 Par ch=7 c=7 v=44
41310 Par ch=7 c=7 v=43
41313 Par ch=7 c=7 v=42
41317 Par ch=7 c=7 v=41
41321 Par ch=7 c=7 v=40
41325 Par ch=7 c=7 v=39
41328 Par ch=7 c=7 v=38
41332 Par ch=7 c=7 v=37
41336 Par ch=7 c=7 v=36
41340 Par ch=7 c=7 v=35
41344 Par ch=7 c=7 v=34
41347 Par ch=7 c=7 v=33
41351 Par ch=7 c=7 v=32
41355 Par ch=7 c=7 v=31
41359 Par ch=7 c=7 v=30
41362 Par ch=7 c=7 v=29
41366 Par ch=7 c=7 v=28
41370 Par ch=7 c=7 v=27
41374 Par ch=7 c=7 v=26
41377 Par ch=7 c=7 v=25
41381 Par ch=7 c=7 v=24
41385 Par ch=7 c=7 v=23
41389 Par ch=7 c=7 v=22
41392 Par ch=7 c=7 v=21
41396 Par ch=7 c=7 v=20
41400 Par ch=7 c=7 v=19
41404 Par ch=7 c=7 v=18
41407 Par ch=7 c=7 v=17
41411 Par ch=7 c=7 v=16
41415 Par ch=7 c=7 v=15
41419 Par ch=7 c=7 v=14
41422 Par ch=7 c=7 v=13
41426 Par ch=7 c=7 v=12
41430 Par ch=7 c=7 v=11
41434 Par ch=7 c=7 v=10
41437 Par ch=7 c=7 v=9
41441 Par ch=7 c=7 v=8
41445 Par ch=7 c=7 v=7
41449 Par ch=7 c=7 v=6
41453 Par ch=7 c=7 v=5
41456 Par ch=7 c=7 v=4
41460 Par ch=7 c=7 v=3
41464 Par ch=7 c=7 v=2
41468 Par ch=7 c=7 v=1
41471 Par ch=7 c=7 v=0
41508 Off ch=7 n=67 v=64
41509 Off ch=7 n=74 v=64
41509 Off ch=7 n=76 v=64
41512 Par ch=7 c=7 v=0
41517 Par ch=7 c=7 v=1
41523 Par ch=7 c=7 v=2
41528 Par ch=7 c=7 v=3
41534 Par ch=7 c=7 v=4
41539 Par ch=7 c=7 v=5
41544 On ch=7 n=81 v=50
41545 Par ch=7 c=7 v=6
41551 Par ch=7 c=7 v=7
41556 Par ch=7 c=7 v=8
41562 Par ch=7 c=7 v=9
41567 Par ch=7 c=7 v=10
41573 Par ch=7 c=7 v=11
41579 Par ch=7 c=7 v=12
41584 Par ch=7 c=7 v=13
41590 Par ch=7 c=7 v=14
41595 Par ch=7 c=7 v=15
41601 Par ch=7 c=7 v=16
41607 Par ch=7 c=7 v=17
41612 Par ch=7 c=7 v=18
41618 Par ch=7 c=7 v=19
41623 Par ch=7 c=7 v=20
41629 Par ch=7 c=7 v=21
41635 Par ch=7 c=7 v=22
41640 Par ch=7 c=7 v=23
41646 Par ch=7 c=7 v=24
41651 Par ch=7 c=7 v=25
41657 Par ch=7 c=7 v=26
41663 Par ch=7 c=7 v=27
41668 Par ch=7 c=7 v=28
41674 Par ch=7 c=7 v=29
41679 Par ch=7 c=7 v=30
41685 Par ch=7 c=7 v=31
41691 Par ch=7 c=7 v=32
41696 Par ch=7 c=7 v=33
41702 Par ch=7 c=7 v=34
41707 Par ch=7 c=7 v=35
41713 Par ch=7 c=7 v=36
41719 Par ch=7 c=7 v=37
41724 Par ch=7 c=7 v=38
41730 Par ch=7 c=7 v=39
41735 Par ch=7 c=7 v=40
41741 Par ch=7 c=7 v=41
41747 Par ch=7 c=7 v=42
41752 Par ch=7 c=7 v=43
41758 Par ch=7 c=7 v=44
41763 Par ch=7 c=7 v=45
41769 Par ch=7 c=7 v=46
41775 Par ch=7 c=7 v=47
41780 Par ch=7 c=7 v=48
41786 Par ch=7 c=7 v=49
41791 Par ch=7 c=7 v=50
41797 Par ch=7 c=7 v=51
41803 Par ch=7 c=7 v=52
41808 Par ch=7 c=7 v=53
41814 Par ch=7 c=7 v=54
41819 Par ch=7 c=7 v=55
41825 Par ch=7 c=7 v=56
41831 Par ch=7 c=7 v=57
41836 Par ch=7 c=7 v=58
41842 Par ch=7 c=7 v=59
41847 Par ch=7 c=7 v=60
41853 Par ch=7 c=7 v=61
41859 Par ch=7 c=7 v=62
41864 Par ch=7 c=7 v=63
41870 Par ch=7 c=7 v=64
41875 Par ch=7 c=7 v=65
41881 Par ch=7 c=7 v=66
41887 Par ch=7 c=7 v=67
41892 Par ch=7 c=7 v=68
41898 Par ch=7 c=7 v=69
41903 Par ch=7 c=7 v=70
41909 Par ch=7 c=7 v=71
41915 Par ch=7 c=7 v=72
41920 Par ch=7 c=7 v=73
41926 Par ch=7 c=7 v=74
41931 Par ch=7 c=7 v=75
41937 Par ch=7 c=7 v=76
41943 Par ch=7 c=7 v=77
41948 Par ch=7 c=7 v=78
41954 Par ch=7 c=7 v=79
41959 Par ch=7 c=7 v=80
41965 Par ch=7 c=7 v=81
41971 Par ch=7 c=7 v=82
41976 Par ch=7 c=7 v=83
41982 Par ch=7 c=7 v=84
41987 Par ch=7 c=7 v=85
41993 Par ch=7 c=7 v=86
41999 Par ch=7 c=7 v=87
42004 Par ch=7 c=7 v=88
42010 Par ch=7 c=7 v=89
42015 Par ch=7 c=7 v=90
42021 Par ch=7 c=7 v=91
42027 Par ch=7 c=7 v=92
42032 Par ch=7 c=7 v=93
42038 Par ch=7 c=7 v=94
42043 Par ch=7 c=7 v=95
42049 Par ch=7 c=7 v=96
42055 Par ch=7 c=7 v=97
42060 Par ch=7 c=7 v=98
42066 Par ch=7 c=7 v=99
42071 Par ch=7 c=7 v=100
44153 On ch=7 n=93 v=52
46848 PrCh ch=7 p=48
47104 Off ch=7 n=81 v=64
47120 Off ch=7 n=93 v=64
48720 On ch=7 n=88 v=71
48910 On ch=7 n=95 v=71
49093 Off ch=7 n=95 v=64
49103 On ch=7 n=93 v=80
50222 Off ch=7 n=88 v=64
50238 Off ch=7 n=93 v=64
50248 On ch=7 n=88 v=75
50449 On ch=7 n=95 v=75
50639 On ch=7 n=93 v=75
50645 Off ch=7 n=95 v=64
51444 On ch=7 n=89 v=86
51448 Off ch=7 n=88 v=64
51448 Off ch=7 n=93 v=64
51830 On ch=7 n=84 v=66
51833 Off ch=7 n=89 v=64
52023 On ch=7 n=91 v=71
52026 Off ch=7 n=84 v=64
52219 On ch=7 n=89 v=75
52221 Off ch=7 n=91 v=64
52224 Par ch=7 c=7 v=100
52253 Par ch=7 c=7 v=99
52283 Par ch=7 c=7 v=98
52313 Par ch=7 c=7 v=97
52343 Par ch=7 c=7 v=96
52372 Par ch=7 c=7 v=95
52402 Par ch=7 c=7 v=94
52432 Par ch=7 c=7 v=93
52462 Par ch=7 c=7 v=92
52491 Par ch=7 c=7 v=91
52521 Par ch=7 c=7 v=90
52551 Par ch=7 c=7 v=89
52581 Par ch=7 c=7 v=88
52603 On ch=7 n=84 v=55
52605 Off ch=7 n=89 v=64
52610 Par ch=7 c=7 v=87
52640 Par ch=7 c=7 v=86
52670 Par ch=7 c=7 v=85
52700 Par ch=7 c=7 v=84
52729 Par ch=7 c=7 v=83
52759 Par ch=7 c=7 v=82
52789 Par ch=7 c=7 v=81
52794 On ch=7 n=91 v=71
52796 Off ch=7 n=84 v=64
52819 Par ch=7 c=7 v=80
52848 Par ch=7 c=7 v=79
52878 Par ch=7 c=7 v=78
52908 Par ch=7 c=7 v=77
52938 Par ch=7 c=7 v=76
52967 Par ch=7 c=7 v=75
52992 Off ch=7 n=91 v=64
52994 On ch=7 n=89 v=66
52997 Par ch=7 c=7 v=74
53027 Par ch=7 c=7 v=73
53057 Par ch=7 c=7 v=72
53086 Par ch=7 c=7 v=71
53116 Par ch=7 c=7 v=70
53146 Par ch=7 c=7 v=69
53176 Par ch=7 c=7 v=68
53206 Par ch=7 c=7 v=67
53235 Par ch=7 c=7 v=66
53265 Par ch=7 c=7 v=65
53295 Par ch=7 c=7 v=64
53325 Par ch=7 c=7 v=63
53354 Par ch=7 c=7 v=62
53365 On ch=7 n=84 v=55
53366 Off ch=7 n=89 v=64
53384 Par ch=7 c=7 v=61
53414 Par ch=7 c=7 v=60
53444 Par ch=7 c=7 v=59
53473 Par ch=7 c=7 v=58
53503 Par ch=7 c=7 v=57
53533 Par ch=7 c=7 v=56
53563 Par ch=7 c=7 v=55
53565 On ch=7 n=91 v=71
53566 Off ch=7 n=84 v=64
53592 Par ch=7 c=7 v=54
53622 Par ch=7 c=7 v=53
53652 Par ch=7 c=7 v=52
53682 Par ch=7 c=7 v=51
53711 Par ch=7 c=7 v=50
53741 Par ch=7 c=7 v=49
53758 On ch=7 n=89 v=66
53759 Off ch=7 n=91 v=64
53771 Par ch=7 c=7 v=48
53801 Par ch=7 c=7 v=47
53830 Par ch=7 c=7 v=46
53860 Par ch=7 c=7 v=45
53890 Par ch=7 c=7 v=44
53920 Par ch=7 c=7 v=43
53949 Par ch=7 c=7 v=42
53979 Par ch=7 c=7 v=41
54009 Par ch=7 c=7 v=40
54039 Par ch=7 c=7 v=39
54068 Par ch=7 c=7 v=38
54098 Par ch=7 c=7 v=37
54128 Par ch=7 c=7 v=36
54130 Off ch=7 n=89 v=64
54131 On ch=7 n=84 v=62
54158 Par ch=7 c=7 v=35
54188 Par ch=7 c=7 v=34
54217 Par ch=7 c=7 v=33
54247 Par ch=7 c=7 v=32
54277 Par ch=7 c=7 v=31
54307 Par ch=7 c=7 v=30
54322 Off ch=7 n=84 v=64
54323 On ch=7 n=91 v=71
54336 Par ch=7 c=7 v=29
54366 Par ch=7 c=7 v=28
54396 Par ch=7 c=7 v=27
54426 Par ch=7 c=7 v=26
54455 Par ch=7 c=7 v=25
54485 Par ch=7 c=7 v=24
54515 Par ch=7 c=7 v=23
54517 Off ch=7 n=91 v=64
54519 On ch=7 n=89 v=55
54545 Par ch=7 c=7 v=22
54574 Par ch=7 c=7 v=21
54604 Par ch=7 c=7 v=20
54634 Par ch=7 c=7 v=19
54664 Par ch=7 c=7 v=18
54693 Par ch=7 c=7 v=17
54723 Par ch=7 c=7 v=16
54753 Par ch=7 c=7 v=15
54783 Par ch=7 c=7 v=14
54812 Par ch=7 c=7 v=13
54842 Par ch=7 c=7 v=12
54872 Par ch=7 c=7 v=11
54902 Par ch=7 c=7 v=10
54931 Par ch=7 c=7 v=9
54961 Par ch=7 c=7 v=8
54991 Par ch=7 c=7 v=7
55021 Par ch=7 c=7 v=6
55051 Par ch=7 c=7 v=5
55080 Par ch=7 c=7 v=4
55110 Par ch=7 c=7 v=3
55140 Par ch=7 c=7 v=2
55170 Par ch=7 c=7 v=1
55182 Off ch=7 n=89 v=64
55199 Par ch=7 c=7 v=0
55199 Meta TrkEnd
TrkEnd
MTrk
0 Meta TrkName "Keyboard2"
0 Par ch=8 c=0 v=0
0 PrCh ch=8 p=2
0 Par ch=8 c=10 v=24
0 Par ch=8 c=91 v=64
0 Par ch=8 c=93 v=64
0 TimeSig 4/4 96 8
0 Tempo 480000
776 Par ch=8 c=7 v=100
778 Par ch=8 c=65 v=0
780 Par ch=8 c=5 v=0
782 Par ch=8 c=101 v=0
784 Par ch=8 c=100 v=0
786 Par ch=8 c=6 v=5
5472 On ch=8 n=84 v=110
5472 On ch=8 n=86 v=110
5472 On ch=8 n=74 v=110
5519 Off ch=8 n=74 v=64
5521 Off ch=8 n=84 v=64
5523 Off ch=8 n=86 v=64
5566 PrCh ch=8 p=24
5568 On ch=8 n=43 v=100
5584 Off ch=8 n=43 v=64
5584 On ch=8 n=45 v=100
5600 Off ch=8 n=45 v=64
5600 On ch=8 n=48 v=100
5616 Off ch=8 n=48 v=64
5616 On ch=8 n=50 v=100
5632 Off ch=8 n=50 v=64
5632 On ch=8 n=48 v=100
5648 Off ch=8 n=48 v=64
5648 On ch=8 n=45 v=100
5664 Off ch=8 n=45 v=64
5664 On ch=8 n=43 v=100
5665 Par ch=8 c=1 v=17
5668 Par ch=8 c=1 v=43
5670 Par ch=8 c=1 v=65
5673 Par ch=8 c=1 v=86
5676 Par ch=8 c=1 v=106
5679 Par ch=8 c=1 v=120
5682 Par ch=8 c=1 v=127
5756 Off ch=8 n=43 v=64
5763 Par ch=8 c=1 v=114
5766 Par ch=8 c=1 v=74
5769 Par ch=8 c=1 v=35
5772 Par ch=8 c=1 v=0
11136 PrCh ch=8 p=61
11210 On ch=8 n=79 v=102
11211 On ch=8 n=69 v=89
11212 On ch=8 n=81 v=98
11267 Off ch=8 n=81 v=64
11268 Off ch=8 n=79 v=64
11268 Off ch=8 n=69 v=64
15360 PrCh ch=8 p=89
15362 On ch=8 n=83 v=62
15541 On ch=8 n=74 v=71
15635 On ch=8 n=76 v=62
15733 On ch=8 n=79 v=62
15833 On ch=8 n=81 v=55
15932 On ch=8 n=86 v=52
16024 On ch=8 n=91 v=75
16126 Off ch=8 n=83 v=64
16128 PrCh ch=8 p=24
16132 Off ch=8 n=86 v=64
16133 Off ch=8 n=79 v=64
16133 Off ch=8 n=91 v=64
16134 Off ch=8 n=74 v=64
16134 Off ch=8 n=81 v=64
16135 Off ch=8 n=76 v=64
17472 On ch=8 n=50 v=80
17491 Off ch=8 n=50 v=64
17491 On ch=8 n=52 v=80
17510 Off ch=8 n=52 v=64
17510 On ch=8 n=55 v=80
17529 Off ch=8 n=55 v=64
17529 On ch=8 n=52 v=80
17548 Off ch=8 n=52 v=64
17548 On ch=8 n=50 v=80
17568 Off ch=8 n=50 v=64
17568 On ch=8 n=48 v=80
17617 Par ch=8 c=1 v=5
17620 Par ch=8 c=1 v=17
17623 Par ch=8 c=1 v=29
17626 Par ch=8 c=1 v=43
17629 Par ch=8 c=1 v=54
17631 Par ch=8 c=1 v=65
17634 Par ch=8 c=1 v=75
17637 Par ch=8 c=1 v=85
17640 Par ch=8 c=1 v=93
17643 Par ch=8 c=1 v=101
17645 Par ch=8 c=1 v=109
17648 Par ch=8 c=1 v=117
17651 Par ch=8 c=1 v=125
17654 Par ch=8 c=1 v=127
17714 Par ch=8 c=1 v=115
17716 Par ch=8 c=1 v=78
17719 Par ch=8 c=1 v=0
17740 Off ch=8 n=48 v=64
18816 PrCh ch=8 p=35
18864 Pb ch=8 v=1638
18865 On ch=8 n=55 v=100
18867 Pb ch=8 v=2464
18870 Pb ch=8 v=3290
18873 Pb ch=8 v=4116
18876 Pb ch=8 v=4942
18879 Pb ch=8 v=5768
18882 Pb ch=8 v=6594
18885 Pb ch=8 v=7420
18887 Pb ch=8 v=8192
18913 On ch=8 n=62 v=100
18950 Off ch=8 n=55 v=64
18959 Off ch=8 n=62 v=64
18960 Pb ch=8 v=1638
18960 On ch=8 n=55 v=100
18963 Pb ch=8 v=2464
18966 Pb ch=8 v=3290
18969 Pb ch=8 v=4116
18972 Pb ch=8 v=4942
18975 Pb ch=8 v=5768
18978 Pb ch=8 v=6594
18981 Pb ch=8 v=7420
18983 Pb ch=8 v=8192
19008 On ch=8 n=62 v=100
19102 Off ch=8 n=55 v=64
19114 Off ch=8 n=62 v=64
19200 PrCh ch=8 p=61
19274 On ch=8 n=79 v=102
19275 On ch=8 n=69 v=89
19276 On ch=8 n=81 v=98
19331 Off ch=8 n=81 v=64
19332 Off ch=8 n=79 v=64
19332 Off ch=8 n=69 v=64
24911 On ch=8 n=81 v=100
24912 On ch=8 n=76 v=107
24912 On ch=8 n=73 v=100
25252 Off ch=8 n=76 v=64
25252 Off ch=8 n=81 v=64
25254 Off ch=8 n=73 v=64
26447 On ch=8 n=76 v=102
26447 On ch=8 n=73 v=93
26448 On ch=8 n=81 v=98
26717 Off ch=8 n=73 v=64
26719 Off ch=8 n=76 v=64
26720 Off ch=8 n=81 v=64
27981 On ch=8 n=76 v=105
27981 On ch=8 n=73 v=98
27982 On ch=8 n=81 v=102
28225 Off ch=8 n=76 v=64
28225 Off ch=8 n=81 v=64
28227 Off ch=8 n=73 v=64
30292 On ch=8 n=80 v=108
30293 On ch=8 n=72 v=101
30293 On ch=8 n=75 v=101
30322 Off ch=8 n=72 v=64
30323 Off ch=8 n=80 v=64
30323 Off ch=8 n=75 v=64
30674 On ch=8 n=80 v=96
30674 On ch=8 n=75 v=108
30674 On ch=8 n=72 v=101
30698 Off ch=8 n=72 v=64
30699 Off ch=8 n=75 v=64
30701 Off ch=8 n=80 v=64
31100 On ch=8 n=80 v=108
31100 On ch=8 n=75 v=108
31101 On ch=8 n=72 v=96
31130 Off ch=8 n=75 v=64
31131 Off ch=8 n=72 v=64
31131 Off ch=8 n=80 v=64
31477 On ch=8 n=75 v=108
31483 On ch=8 n=72 v=101
31487 On ch=8 n=80 v=108
31507 Off ch=8 n=75 v=64
31514 Off ch=8 n=80 v=64
31518 Off ch=8 n=72 v=64
31549 On ch=8 n=71 v=108
31554 On ch=8 n=76 v=101
31557 On ch=8 n=68 v=108
31578 Off ch=8 n=71 v=64
31585 Off ch=8 n=76 v=64
31587 Off ch=8 n=68 v=64
31620 On ch=8 n=72 v=90
31622 On ch=8 n=69 v=101
31625 On ch=8 n=77 v=101
31651 Off ch=8 n=69 v=64
31652 Off ch=8 n=77 v=64
31655 Off ch=8 n=72 v=64
31680 On ch=8 n=78 v=101
31683 On ch=8 n=70 v=114
31683 On ch=8 n=73 v=101
31708 Off ch=8 n=78 v=64
31708 Off ch=8 n=70 v=64
31710 Off ch=8 n=73 v=64
31741 On ch=8 n=74 v=90
31743 On ch=8 n=79 v=101
31745 On ch=8 n=71 v=108
31771 Off ch=8 n=74 v=64
31771 Off ch=8 n=79 v=64
31772 Off ch=8 n=71 v=64
31804 On ch=8 n=80 v=101
31806 On ch=8 n=75 v=101
31807 On ch=8 n=72 v=101
31828 Off ch=8 n=80 v=64
31834 Off ch=8 n=75 v=64
31836 Off ch=8 n=72 v=64
31859 On ch=8 n=81 v=114
31863 On ch=8 n=76 v=108
31865 On ch=8 n=73 v=114
31888 Off ch=8 n=81 v=64
31890 Off ch=8 n=73 v=64
31891 Off ch=8 n=76 v=64
41088 PrCh ch=8 p=96
43902 On ch=8 n=93 v=98
43924 Off ch=8 n=93 v=64
43930 On ch=8 n=91 v=86
43949 Off ch=8 n=91 v=64
43956 On ch=8 n=96 v=93
43977 Off ch=8 n=96 v=64
43982 On ch=8 n=95 v=79
43996 On ch=8 n=91 v=76
43997 Off ch=8 n=95 v=64
44015 Off ch=8 n=91 v=64
44024 On ch=8 n=98 v=99
44045 Off ch=8 n=98 v=64
46716 PrCh ch=8 p=61
46799 On ch=8 n=81 v=100
46800 On ch=8 n=76 v=107
46800 On ch=8 n=73 v=100
47140 Off ch=8 n=76 v=64
47140 Off ch=8 n=81 v=64
47142 Off ch=8 n=73 v=64
48335 On ch=8 n=76 v=102
48335 On ch=8 n=73 v=93
48336 On ch=8 n=81 v=98
48605 Off ch=8 n=73 v=64
48607 Off ch=8 n=76 v=64
48608 Off ch=8 n=81 v=64
49869 On ch=8 n=76 v=105
49869 On ch=8 n=73 v=98
49870 On ch=8 n=81 v=102
50113 Off ch=8 n=76 v=64
50113 Off ch=8 n=81 v=64
50115 Off ch=8 n=73 v=64
51072 PrCh ch=8 p=1
51452 On ch=8 n=65 v=87
51453 On ch=8 n=69 v=82
51454 On ch=8 n=60 v=80
51488 Off ch=8 n=69 v=64
51489 Off ch=8 n=65 v=64
51490 Off ch=8 n=60 v=64
51547 On ch=8 n=69 v=87
51548 On ch=8 n=65 v=85
51548 On ch=8 n=60 v=76
51578 Off ch=8 n=69 v=64
51578 Off ch=8 n=65 v=64
51579 Off ch=8 n=60 v=64
51645 On ch=8 n=60 v=80
51645 On ch=8 n=65 v=89
51646 On ch=8 n=69 v=82
51673 Off ch=8 n=69 v=64
51674 Off ch=8 n=65 v=64
51676 Off ch=8 n=60 v=64
51741 On ch=8 n=60 v=82
51742 On ch=8 n=69 v=93
51743 On ch=8 n=65 v=89
51757 Off ch=8 n=60 v=64
51758 Off ch=8 n=65 v=64
51759 Off ch=8 n=69 v=64
51791 On ch=8 n=70 v=89
51792 On ch=8 n=63 v=100
51793 On ch=8 n=67 v=98
51902 Off ch=8 n=63 v=64
51907 Off ch=8 n=67 v=64
51907 Off ch=8 n=70 v=64
51930 On ch=8 n=63 v=68
51931 On ch=8 n=70 v=74
51932 On ch=8 n=67 v=80
51943 Off ch=8 n=67 v=64
51947 Off ch=8 n=63 v=64
51949 Off ch=8 n=70 v=64
51983 On ch=8 n=62 v=95
51984 On ch=8 n=70 v=87
51984 On ch=8 n=65 v=100
52100 Off ch=8 n=65 v=64
52101 Off ch=8 n=62 v=64
52105 Off ch=8 n=70 v=64
52127 On ch=8 n=70 v=91
52128 On ch=8 n=65 v=87
52129 On ch=8 n=62 v=64
52143 Off ch=8 n=65 v=64
52145 Off ch=8 n=62 v=64
52148 Off ch=8 n=70 v=64
52177 On ch=8 n=69 v=95
52177 On ch=8 n=65 v=93
52178 On ch=8 n=60 v=87
52224 Par ch=8 c=7 v=100
52253 Par ch=8 c=7 v=99
52278 Off ch=8 n=69 v=64
52281 Off ch=8 n=60 v=64
52282 Off ch=8 n=65 v=64
52283 Par ch=8 c=7 v=98
52313 Par ch=8 c=7 v=97
52322 On ch=8 n=69 v=93
52323 On ch=8 n=60 v=89
52323 On ch=8 n=65 v=91
52343 Par ch=8 c=7 v=96
52355 Off ch=8 n=69 v=64
52355 Off ch=8 n=65 v=64
52356 Off ch=8 n=60 v=64
52372 Par ch=8 c=7 v=95
52402 Par ch=8 c=7 v=94
52416 On ch=8 n=69 v=87
52417 On ch=8 n=65 v=95
52418 On ch=8 n=60 v=87
52432 Par ch=8 c=7 v=93
52437 Off ch=8 n=69 v=64
52437 Off ch=8 n=60 v=64
52439 Off ch=8 n=65 v=64
52462 Par ch=8 c=7 v=92
52491 Par ch=8 c=7 v=91
52509 On ch=8 n=69 v=91
52510 On ch=8 n=60 v=89
52511 On ch=8 n=65 v=89
52521 Par ch=8 c=7 v=90
52526 Off ch=8 n=60 v=64
52526 Off ch=8 n=65 v=64
52528 Off ch=8 n=69 v=64
52551 Par ch=8 c=7 v=89
52562 On ch=8 n=70 v=87
52563 On ch=8 n=63 v=102
52563 On ch=8 n=67 v=102
52581 Par ch=8 c=7 v=88
52610 Par ch=8 c=7 v=87
52640 Par ch=8 c=7 v=86
52670 Par ch=8 c=7 v=85
52672 Off ch=8 n=63 v=64
52674 Off ch=8 n=67 v=64
52676 Off ch=8 n=70 v=64
52700 Par ch=8 c=7 v=84
52707 On ch=8 n=63 v=72
52708 On ch=8 n=70 v=76
52708 On ch=8 n=67 v=87
52720 Off ch=8 n=67 v=64
52723 Off ch=8 n=63 v=64
52724 Off ch=8 n=70 v=64
52729 Par ch=8 c=7 v=83
52754 On ch=8 n=70 v=87
52754 On ch=8 n=62 v=95
52755 On ch=8 n=65 v=89
52759 Par ch=8 c=7 v=82
52789 Par ch=8 c=7 v=81
52819 Par ch=8 c=7 v=80
52848 Par ch=8 c=7 v=79
52863 Off ch=8 n=62 v=64
52864 Off ch=8 n=65 v=64
52866 Off ch=8 n=70 v=64
52878 Par ch=8 c=7 v=78
52898 On ch=8 n=70 v=80
52899 On ch=8 n=62 v=64
52900 On ch=8 n=65 v=78
52908 Par ch=8 c=7 v=77
52912 Off ch=8 n=65 v=64
52915 Off ch=8 n=62 v=64
52916 Off ch=8 n=70 v=64
52938 Par ch=8 c=7 v=76
52945 On ch=8 n=69 v=89
52946 On ch=8 n=65 v=89
52947 On ch=8 n=60 v=85
52967 Par ch=8 c=7 v=75
52997 Par ch=8 c=7 v=74
53026 Off ch=8 n=60 v=64
53026 Off ch=8 n=69 v=64
53027 Off ch=8 n=65 v=64
53027 Par ch=8 c=7 v=73
53057 Par ch=8 c=7 v=72
53086 Par ch=8 c=7 v=71
53089 On ch=8 n=69 v=89
53090 On ch=8 n=65 v=91
53091 On ch=8 n=60 v=89
53116 Par ch=8 c=7 v=70
53122 Off ch=8 n=60 v=64
53123 Off ch=8 n=69 v=64
53123 Off ch=8 n=65 v=64
53146 Par ch=8 c=7 v=69
53176 Par ch=8 c=7 v=68
53186 On ch=8 n=69 v=91
53187 On ch=8 n=65 v=91
53188 On ch=8 n=60 v=91
53206 Par ch=8 c=7 v=67
53209 Off ch=8 n=60 v=64
53210 Off ch=8 n=69 v=64
53210 Off ch=8 n=65 v=64
53235 Par ch=8 c=7 v=66
53265 Par ch=8 c=7 v=65
53280 On ch=8 n=69 v=87
53280 On ch=8 n=60 v=78
53281 On ch=8 n=65 v=72
53294 Off ch=8 n=65 v=64
53295 Off ch=8 n=60 v=64
53295 Par ch=8 c=7 v=64
53297 Off ch=8 n=69 v=64
53325 Par ch=8 c=7 v=63
53332 On ch=8 n=70 v=80
53333 On ch=8 n=63 v=98
53334 On ch=8 n=67 v=98
53354 Par ch=8 c=7 v=62
53384 Par ch=8 c=7 v=61
53414 Par ch=8 c=7 v=60
53420 Off ch=8 n=67 v=64
53421 Off ch=8 n=63 v=64
53422 Off ch=8 n=70 v=64
53444 Par ch=8 c=7 v=59
53470 On ch=8 n=63 v=80
53471 On ch=8 n=67 v=89
53471 On ch=8 n=70 v=85
53473 Par ch=8 c=7 v=58
53484 Off ch=8 n=67 v=64
53486 Off ch=8 n=63 v=64
53487 Off ch=8 n=70 v=64
53503 Par ch=8 c=7 v=57
53520 On ch=8 n=70 v=85
53521 On ch=8 n=62 v=95
53521 On ch=8 n=65 v=87
53533 Par ch=8 c=7 v=56
53563 Par ch=8 c=7 v=55
53592 Par ch=8 c=7 v=54
53622 Par ch=8 c=7 v=53
53625 Off ch=8 n=65 v=64
53628 Off ch=8 n=62 v=64
53629 Off ch=8 n=70 v=64
53652 Par ch=8 c=7 v=52
53665 On ch=8 n=70 v=82
53665 On ch=8 n=65 v=87
53666 On ch=8 n=62 v=82
53679 Off ch=8 n=65 v=64
53681 Off ch=8 n=62 v=64
53682 Off ch=8 n=70 v=64
53682 Par ch=8 c=7 v=51
53711 Par ch=8 c=7 v=50
53715 On ch=8 n=69 v=87
53716 On ch=8 n=65 v=93
53717 On ch=8 n=60 v=89
53741 Par ch=8 c=7 v=49
53771 Par ch=8 c=7 v=48
53795 Off ch=8 n=69 v=64
53796 Off ch=8 n=60 v=64
53796 Off ch=8 n=65 v=64
53801 Par ch=8 c=7 v=47
53830 Par ch=8 c=7 v=46
53850 On ch=8 n=69 v=87
53851 On ch=8 n=65 v=89
53852 On ch=8 n=60 v=82
53860 Par ch=8 c=7 v=45
53878 Off ch=8 n=69 v=64
53878 Off ch=8 n=60 v=64
53880 Off ch=8 n=65 v=64
53890 Par ch=8 c=7 v=44
53920 Par ch=8 c=7 v=43
53949 On ch=8 n=69 v=85
53949 Par ch=8 c=7 v=42
53950 On ch=8 n=65 v=89
53951 On ch=8 n=60 v=82
53973 Off ch=8 n=60 v=64
53976 Off ch=8 n=69 v=64
53977 Off ch=8 n=65 v=64
53979 Par ch=8 c=7 v=41
54009 Par ch=8 c=7 v=40
54039 Par ch=8 c=7 v=39
54045 On ch=8 n=60 v=85
54045 On ch=8 n=69 v=91
54046 On ch=8 n=65 v=85
54060 Off ch=8 n=65 v=64
54061 Off ch=8 n=60 v=64
54061 Off ch=8 n=69 v=64
54068 Par ch=8 c=7 v=38
54094 On ch=8 n=70 v=89
54098 On ch=8 n=63 v=91
54098 On ch=8 n=67 v=85
54098 Par ch=8 c=7 v=37
54128 Par ch=8 c=7 v=36
54158 Par ch=8 c=7 v=35
54188 Par ch=8 c=7 v=34
54210 Off ch=8 n=63 v=64
54211 Off ch=8 n=67 v=64
54214 Off ch=8 n=70 v=64
54217 Par ch=8 c=7 v=33
54238 On ch=8 n=63 v=82
54238 On ch=8 n=70 v=85
54240 On ch=8 n=67 v=80
54247 Par ch=8 c=7 v=32
54253 Off ch=8 n=67 v=64
54257 Off ch=8 n=63 v=64
54259 Off ch=8 n=70 v=64
54277 Par ch=8 c=7 v=31
54289 On ch=8 n=70 v=82
54290 On ch=8 n=62 v=87
54291 On ch=8 n=65 v=89
54307 Par ch=8 c=7 v=30
54336 Par ch=8 c=7 v=29
54366 Par ch=8 c=7 v=28
54393 Off ch=8 n=65 v=64
54395 Off ch=8 n=62 v=64
54396 Par ch=8 c=7 v=27
54398 Off ch=8 n=70 v=64
54426 Par ch=8 c=7 v=26
54433 On ch=8 n=65 v=85
54433 On ch=8 n=62 v=80
54434 On ch=8 n=70 v=74
54446 Off ch=8 n=65 v=64
54449 Off ch=8 n=62 v=64
54450 Off ch=8 n=70 v=64
54455 Par ch=8 c=7 v=25
54484 On ch=8 n=69 v=95
54484 On ch=8 n=65 v=91
54485 On ch=8 n=60 v=87
54485 Par ch=8 c=7 v=24
54515 Par ch=8 c=7 v=23
54545 Par ch=8 c=7 v=22
54560 Off ch=8 n=65 v=64
54560 Off ch=8 n=69 v=64
54561 Off ch=8 n=60 v=64
54574 Par ch=8 c=7 v=21
54604 Par ch=8 c=7 v=20
54625 On ch=8 n=69 v=89
54626 On ch=8 n=65 v=91
54627 On ch=8 n=60 v=85
54634 Par ch=8 c=7 v=19
54645 Off ch=8 n=60 v=64
54646 Off ch=8 n=69 v=64
54646 Off ch=8 n=65 v=64
54664 Par ch=8 c=7 v=18
54693 Par ch=8 c=7 v=17
54720 On ch=8 n=69 v=89
54720 On ch=8 n=60 v=89
54721 On ch=8 n=65 v=91
54723 Par ch=8 c=7 v=16
54739 Off ch=8 n=69 v=64
54739 Off ch=8 n=65 v=64
54740 Off ch=8 n=60 v=64
54753 Par ch=8 c=7 v=15
54783 Par ch=8 c=7 v=14
54812 Par ch=8 c=7 v=13
54816 On ch=8 n=60 v=82
54817 On ch=8 n=69 v=93
54818 On ch=8 n=65 v=91
54831 Off ch=8 n=60 v=64
54831 Off ch=8 n=69 v=64
54831 Off ch=8 n=65 v=64
54842 Par ch=8 c=7 v=12
54867 On ch=8 n=70 v=76
54868 On ch=8 n=63 v=98
54869 On ch=8 n=67 v=91
54872 Par ch=8 c=7 v=11
54902 Par ch=8 c=7 v=10
54931 Par ch=8 c=7 v=9
54961 Par ch=8 c=7 v=8
54970 Off ch=8 n=63 v=64
54971 Off ch=8 n=67 v=64
54975 Off ch=8 n=70 v=64
54991 Par ch=8 c=7 v=7
55005 On ch=8 n=70 v=72
55006 On ch=8 n=63 v=66
55007 On ch=8 n=67 v=70
55017 Off ch=8 n=67 v=64
55021 Off ch=8 n=70 v=64
55021 Off ch=8 n=63 v=64
55021 Par ch=8 c=7 v=6
55051 Par ch=8 c=7 v=5
55056 On ch=8 n=70 v=85
55057 On ch=8 n=62 v=87
55058 On ch=8 n=65 v=87
55080 Par ch=8 c=7 v=4
55110 Par ch=8 c=7 v=3
55140 Par ch=8 c=7 v=2
55160 Off ch=8 n=65 v=64
55164 Off ch=8 n=62 v=64
55167 Off ch=8 n=70 v=64
55170 Par ch=8 c=7 v=1
55199 Par ch=8 c=7 v=0
55201 On ch=8 n=70 v=66
55202 On ch=8 n=65 v=76
55203 On ch=8 n=62 v=62
55217 Off ch=8 n=65 v=64
55221 Off ch=8 n=70 v=64
55222 Off ch=8 n=62 v=64
55222 Meta TrkEnd
TrkEnd
MTrk
0 Meta TrkName "Keyboard3"
0 Par ch=9 c=0 v=0
0 PrCh ch=9 p=2
0 Par ch=9 c=10 v=104
0 Par ch=9 c=91 v=64
0 Par ch=9 c=93 v=64
0 TimeSig 4/4 96 8
0 Tempo 480000
776 Par ch=9 c=7 v=100
778 Par ch=9 c=65 v=0
780 Par ch=9 c=5 v=0
782 Par ch=9 c=101 v=0
784 Par ch=9 c=100 v=0
786 Par ch=9 c=6 v=5
5468 On ch=9 n=84 v=110
5468 On ch=9 n=86 v=110
5468 On ch=9 n=74 v=110
5515 Off ch=9 n=74 v=64
5517 Off ch=9 n=84 v=64
5519 Off ch=9 n=86 v=64
5566 PrCh ch=9 p=24
5567 On ch=9 n=50 v=100
5581 Off ch=9 n=50 v=64
5581 On ch=9 n=52 v=100
5596 Off ch=9 n=52 v=64
5597 On ch=9 n=55 v=100
5615 Off ch=9 n=55 v=64
5615 On ch=9 n=57 v=100
5630 Off ch=9 n=57 v=64
5631 On ch=9 n=55 v=100
5642 Off ch=9 n=55 v=64
5642 On ch=9 n=52 v=100
5660 Off ch=9 n=52 v=64
5666 On ch=9 n=50 v=100
5688 Par ch=9 c=1 v=43
5691 Par ch=9 c=1 v=85
5693 Par ch=9 c=1 v=118
5696 Par ch=9 c=1 v=127
5748 Off ch=9 n=50 v=64
5773 Par ch=9 c=1 v=106
5775 Par ch=9 c=1 v=53
5778 Par ch=9 c=1 v=6
5781 Par ch=9 c=1 v=0
11136 PrCh ch=9 p=61
11230 On ch=9 n=79 v=102
11231 On ch=9 n=69 v=89
11232 On ch=9 n=81 v=98
11287 Off ch=9 n=81 v=64
11288 Off ch=9 n=79 v=64
11288 Off ch=9 n=69 v=64
12672 PrCh ch=9 p=1
13110 On ch=9 n=76 v=82
13154 On ch=9 n=74 v=82
13160 Off ch=9 n=76 v=64
13195 On ch=9 n=79 v=85
13202 Off ch=9 n=74 v=64
13245 On ch=9 n=74 v=74
13293 On ch=9 n=67 v=64
13722 Off ch=9 n=74 v=64
13725 Off ch=9 n=67 v=64
13726 Off ch=9 n=79 v=64
13875 On ch=9 n=76 v=89
13919 On ch=9 n=74 v=68
13927 Off ch=9 n=76 v=64
13962 On ch=9 n=79 v=82
13968 Off ch=9 n=74 v=64
14012 On ch=9 n=74 v=74
14060 On ch=9 n=67 v=66
14489 Off ch=9 n=74 v=64
14493 Off ch=9 n=79 v=64
14496 Off ch=9 n=67 v=64
14643 On ch=9 n=76 v=80
14687 On ch=9 n=74 v=78
14694 Off ch=9 n=76 v=64
14735 On ch=9 n=79 v=85
14742 Off ch=9 n=74 v=64
14780 On ch=9 n=74 v=78
14831 On ch=9 n=67 v=59
15181 Off ch=9 n=79 v=64
15184 Off ch=9 n=74 v=64
15192 Off ch=9 n=67 v=64
15360 PrCh ch=9 p=61
16032 On ch=9 n=72 v=120
16035 On ch=9 n=83 v=120
16037 On ch=9 n=86 v=120
16078 Off ch=9 n=72 v=64
16079 Off ch=9 n=83 v=64
16080 Off ch=9 n=86 v=64
16128 PrCh ch=9 p=24
17472 On ch=9 n=55 v=80
17491 Off ch=9 n=55 v=64
17491 On ch=9 n=57 v=80
17510 Off ch=9 n=57 v=64
17510 On ch=9 n=60 v=80
17529 Off ch=9 n=60 v=64
17529 On ch=9 n=57 v=80
17548 Off ch=9 n=57 v=64
17548 On ch=9 n=55 v=80
17568 Off ch=9 n=55 v=64
17568 On ch=9 n=52 v=80
17617 Par ch=9 c=1 v=5
17620 Par ch=9 c=1 v=17
17623 Par ch=9 c=1 v=29
17626 Par ch=9 c=1 v=43
17629 Par ch=9 c=1 v=54
17631 Par ch=9 c=1 v=65
17634 Par ch=9 c=1 v=75
17637 Par ch=9 c=1 v=85
17640 Par ch=9 c=1 v=93
17643 Par ch=9 c=1 v=101
17645 Par ch=9 c=1 v=109
17648 Par ch=9 c=1 v=117
17651 Par ch=9 c=1 v=125
17654 Par ch=9 c=1 v=127
17714 Par ch=9 c=1 v=115
17716 Par ch=9 c=1 v=78
17719 Par ch=9 c=1 v=0
17740 Off ch=9 n=52 v=64
19200 PrCh ch=9 p=61
19294 On ch=9 n=79 v=102
19295 On ch=9 n=69 v=89
19296 On ch=9 n=81 v=98
19351 Off ch=9 n=81 v=64
19352 Off ch=9 n=79 v=64
19352 Off ch=9 n=69 v=64
20352 PrCh ch=9 p=24
20451 On ch=9 n=43 v=73
20451 On ch=9 n=55 v=93
20452 Pb ch=9 v=8192
20455 Pb ch=9 v=9025
20458 Pb ch=9 v=9858
20461 Pb ch=9 v=10691
20463 Pb ch=9 v=11469
20489 Off ch=9 n=43 v=64
20489 Off ch=9 n=55 v=64
20492 Pb ch=9 v=8192
20547 On ch=9 n=43 v=71
20547 On ch=9 n=55 v=91
20626 Off ch=9 n=43 v=64
20626 Off ch=9 n=55 v=64
20641 On ch=9 n=40 v=62
20641 On ch=9 n=52 v=82
20658 Off ch=9 n=40 v=64
20658 Off ch=9 n=52 v=64
20659 On ch=9 n=38 v=65
20659 On ch=9 n=50 v=85
20682 Off ch=9 n=38 v=64
20682 Off ch=9 n=50 v=64
20683 On ch=9 n=36 v=69
20683 On ch=9 n=48 v=89
20760 Off ch=9 n=36 v=64
20760 Off ch=9 n=48 v=64
22272 PrCh ch=9 p=1
22710 On ch=9 n=76 v=82
22754 On ch=9 n=74 v=82
22760 Off ch=9 n=76 v=64
22795 On ch=9 n=79 v=85
22802 Off ch=9 n=74 v=64
22845 On ch=9 n=74 v=74
22893 On ch=9 n=67 v=64
23322 Off ch=9 n=74 v=64
23325 Off ch=9 n=67 v=64
23326 Off ch=9 n=79 v=64
23475 On ch=9 n=76 v=89
23519 On ch=9 n=74 v=68
23527 Off ch=9 n=76 v=64
23562 On ch=9 n=79 v=82
23568 Off ch=9 n=74 v=64
23612 On ch=9 n=74 v=74
23660 On ch=9 n=67 v=66
24089 Off ch=9 n=74 v=64
24093 Off ch=9 n=79 v=64
24096 Off ch=9 n=67 v=64
24243 On ch=9 n=76 v=80
24287 On ch=9 n=74 v=78
24294 Off ch=9 n=76 v=64
24335 On ch=9 n=79 v=85
24342 Off ch=9 n=74 v=64
24380 On ch=9 n=74 v=78
24431 On ch=9 n=67 v=59
24781 Off ch=9 n=79 v=64
24784 Off ch=9 n=74 v=64
24792 Off ch=9 n=67 v=64
24912 On ch=9 n=45 v=77
24912 On ch=9 n=33 v=77
25008 Off ch=9 n=33 v=64
25008 Off ch=9 n=45 v=64
25008 On ch=9 n=49 v=77
25008 On ch=9 n=37 v=77
25056 Off ch=9 n=49 v=64
25056 Off ch=9 n=37 v=64
25056 On ch=9 n=52 v=72
25056 On ch=9 n=40 v=72
25104 Off ch=9 n=52 v=64
25104 Off ch=9 n=40 v=64
25104 On ch=9 n=49 v=77
25104 On ch=9 n=37 v=77
25152 Off ch=9 n=49 v=64
25152 Off ch=9 n=37 v=64
25200 On ch=9 n=47 v=73
25200 On ch=9 n=35 v=73
25248 Off ch=9 n=47 v=64
25248 Off ch=9 n=35 v=64
25296 On ch=9 n=67 v=80
25296 On ch=9 n=45 v=75
25296 On ch=9 n=33 v=75
25296 On ch=9 n=72 v=87
25296 On ch=9 n=64 v=85
25392 Off ch=9 n=33 v=64
25392 Off ch=9 n=45 v=64
25392 Off ch=9 n=64 v=64
25392 Off ch=9 n=67 v=64
25392 Off ch=9 n=72 v=64
25392 On ch=9 n=43 v=76
25392 On ch=9 n=31 v=76
25440 Off ch=9 n=43 v=64
25440 Off ch=9 n=31 v=64
25440 On ch=9 n=67 v=87
25440 On ch=9 n=71 v=66
25440 On ch=9 n=62 v=68
25440 On ch=9 n=40 v=75
25440 On ch=9 n=28 v=75
25488 Off ch=9 n=67 v=64
25488 Off ch=9 n=71 v=64
25488 Off ch=9 n=62 v=64
25488 Off ch=9 n=40 v=64
25488 Off ch=9 n=28 v=64
25488 On ch=9 n=45 v=75
25488 On ch=9 n=33 v=75
25536 On ch=9 n=62 v=74
25536 On ch=9 n=67 v=82
25536 On ch=9 n=71 v=80
25584 Off ch=9 n=45 v=64
25584 Off ch=9 n=33 v=64
25584 Off ch=9 n=62 v=64
25584 Off ch=9 n=67 v=64
25584 Off ch=9 n=71 v=64
25584 On ch=9 n=43 v=75
25584 On ch=9 n=31 v=75
25632 Off ch=9 n=43 v=64
25632 Off ch=9 n=31 v=64
25632 On ch=9 n=62 v=66
25632 On ch=9 n=71 v=82
25632 On ch=9 n=67 v=72
25632 On ch=9 n=40 v=73
25632 On ch=9 n=28 v=73
25680 Off ch=9 n=62 v=64
25680 Off ch=9 n=71 v=64
25680 Off ch=9 n=67 v=64
25680 Off ch=9 n=40 v=64
25680 Off ch=9 n=28 v=64
25680 On ch=9 n=43 v=72
25680 On ch=9 n=31 v=72
25728 Off ch=9 n=43 v=64
25728 Off ch=9 n=31 v=64
25728 On ch=9 n=64 v=85
25728 On ch=9 n=61 v=72
25728 On ch=9 n=69 v=85
25728 On ch=9 n=45 v=72
25728 On ch=9 n=33 v=72
25776 Off ch=9 n=64 v=64
25776 Off ch=9 n=61 v=64
25776 Off ch=9 n=69 v=64
25776 Off ch=9 n=45 v=64
25776 Off ch=9 n=33 v=64
25776 On ch=9 n=49 v=77
25776 On ch=9 n=37 v=77
25824 Off ch=9 n=49 v=64
25824 Off ch=9 n=37 v=64
25824 On ch=9 n=64 v=85
25824 On ch=9 n=61 v=70
25824 On ch=9 n=69 v=85
25824 On ch=9 n=52 v=73
25824 On ch=9 n=40 v=73
25872 Off ch=9 n=64 v=64
25872 Off ch=9 n=61 v=64
25872 Off ch=9 n=69 v=64
25872 Off ch=9 n=52 v=64
25872 Off ch=9 n=40 v=64
25872 On ch=9 n=49 v=77
25872 On ch=9 n=37 v=77
25920 Off ch=9 n=49 v=64
25920 Off ch=9 n=37 v=64
25920 On ch=9 n=64 v=82
25920 On ch=9 n=61 v=66
25920 On ch=9 n=69 v=82
25968 Off ch=9 n=64 v=64
25968 Off ch=9 n=61 v=64
25968 Off ch=9 n=69 v=64
25968 On ch=9 n=47 v=74
25968 On ch=9 n=35 v=74
26016 Off ch=9 n=47 v=64
26016 Off ch=9 n=35 v=64
26016 On ch=9 n=64 v=70
26016 On ch=9 n=61 v=52
26016 On ch=9 n=69 v=72
26064 Off ch=9 n=64 v=64
26064 Off ch=9 n=61 v=64
26064 Off ch=9 n=69 v=64
26064 On ch=9 n=45 v=75
26064 On ch=9 n=33 v=75
26064 On ch=9 n=67 v=102
26064 On ch=9 n=64 v=98
26064 On ch=9 n=72 v=102
26160 Off ch=9 n=33 v=64
26160 Off ch=9 n=45 v=64
26160 Off ch=9 n=64 v=64
26160 Off ch=9 n=67 v=64
26160 Off ch=9 n=72 v=64
26160 On ch=9 n=43 v=75
26160 On ch=9 n=31 v=75
26208 Off ch=9 n=43 v=64
26208 Off ch=9 n=31 v=64
26208 On ch=9 n=67 v=89
26208 On ch=9 n=71 v=74
26208 On ch=9 n=62 v=68
26208 On ch=9 n=40 v=73
26208 On ch=9 n=28 v=73
26256 Off ch=9 n=67 v=64
26256 Off ch=9 n=71 v=64
26256 Off ch=9 n=62 v=64
26256 Off ch=9 n=40 v=64
26256 Off ch=9 n=28 v=64
26256 On ch=9 n=45 v=75
26256 On ch=9 n=33 v=75
26304 On ch=9 n=62 v=87
26304 On ch=9 n=67 v=85
26304 On ch=9 n=71 v=87
26352 Off ch=9 n=45 v=64
26352 Off ch=9 n=33 v=64
26352 Off ch=9 n=62 v=64
26352 Off ch=9 n=67 v=64
26352 Off ch=9 n=71 v=64
26352 On ch=9 n=43 v=75
26352 On ch=9 n=31 v=75
26400 Off ch=9 n=43 v=64
26400 Off ch=9 n=31 v=64
26400 On ch=9 n=71 v=87
26400 On ch=9 n=62 v=82
26400 On ch=9 n=40 v=71
26400 On ch=9 n=28 v=71
26400 On ch=9 n=67 v=74
26448 Off ch=9 n=71 v=64
26448 Off ch=9 n=62 v=64
26448 Off ch=9 n=40 v=64
26448 Off ch=9 n=28 v=64
26448 Off ch=9 n=67 v=64
26448 On ch=9 n=64 v=95
26448 On ch=9 n=69 v=95
26448 On ch=9 n=61 v=80
26448 On ch=9 n=45 v=71
26448 On ch=9 n=33 v=71
26544 Off ch=9 n=33 v=64
26544 Off ch=9 n=45 v=64
26544 Off ch=9 n=61 v=64
26544 Off ch=9 n=64 v=64
26544 Off ch=9 n=69 v=64
26544 On ch=9 n=49 v=77
26544 On ch=9 n=37 v=77
26592 Off ch=9 n=49 v=64
26592 Off ch=9 n=37 v=64
26592 On ch=9 n=69 v=78
26592 On ch=9 n=64 v=66
26592 On ch=9 n=61 v=60
26592 On ch=9 n=52 v=72
26592 On ch=9 n=40 v=72
26640 Off ch=9 n=69 v=64
26640 Off ch=9 n=64 v=64
26640 Off ch=9 n=61 v=64
26640 Off ch=9 n=52 v=64
26640 Off ch=9 n=40 v=64
26640 On ch=9 n=49 v=77
26640 On ch=9 n=37 v=77
26688 Off ch=9 n=49 v=64
26688 Off ch=9 n=37 v=64
26688 On ch=9 n=64 v=76
26688 On ch=9 n=69 v=74
26688 On ch=9 n=61 v=58
26736 Off ch=9 n=64 v=64
26736 Off ch=9 n=69 v=64
26736 Off ch=9 n=61 v=64
26736 On ch=9 n=47 v=73
26736 On ch=9 n=35 v=73
26784 Off ch=9 n=47 v=64
26784 Off ch=9 n=35 v=64
26784 On ch=9 n=64 v=85
26784 On ch=9 n=61 v=60
26784 On ch=9 n=69 v=74
26832 Off ch=9 n=64 v=64
26832 Off ch=9 n=61 v=64
26832 Off ch=9 n=69 v=64
26832 On ch=9 n=67 v=80
26832 On ch=9 n=45 v=75
26832 On ch=9 n=33 v=75
26832 On ch=9 n=72 v=87
26832 On ch=9 n=64 v=85
26928 Off ch=9 n=33 v=64
26928 Off ch=9 n=45 v=64
26928 Off ch=9 n=64 v=64
26928 Off ch=9 n=67 v=64
26928 Off ch=9 n=72 v=64
26928 On ch=9 n=43 v=76
26928 On ch=9 n=31 v=76
26976 Off ch=9 n=43 v=64
26976 Off ch=9 n=31 v=64
26976 On ch=9 n=67 v=87
26976 On ch=9 n=71 v=66
26976 On ch=9 n=62 v=68
26976 On ch=9 n=40 v=75
26976 On ch=9 n=28 v=75
27024 Off ch=9 n=67 v=64
27024 Off ch=9 n=71 v=64
27024 Off ch=9 n=62 v=64
27024 Off ch=9 n=40 v=64
27024 Off ch=9 n=28 v=64
27024 On ch=9 n=45 v=75
27024 On ch=9 n=33 v=75
27072 On ch=9 n=62 v=74
27072 On ch=9 n=67 v=82
27072 On ch=9 n=71 v=80
27120 Off ch=9 n=45 v=64
27120 Off ch=9 n=33 v=64
27120 Off ch=9 n=62 v=64
27120 Off ch=9 n=67 v=64
27120 Off ch=9 n=71 v=64
27120 On ch=9 n=43 v=75
27120 On ch=9 n=31 v=75
27168 Off ch=9 n=43 v=64
27168 Off ch=9 n=31 v=64
27168 On ch=9 n=62 v=66
27168 On ch=9 n=71 v=82
27168 On ch=9 n=67 v=72
27168 On ch=9 n=40 v=73
27168 On ch=9 n=28 v=73
27216 Off ch=9 n=62 v=64
27216 Off ch=9 n=71 v=64
27216 Off ch=9 n=67 v=64
27216 Off ch=9 n=40 v=64
27216 Off ch=9 n=28 v=64
27216 On ch=9 n=43 v=72
27216 On ch=9 n=31 v=72
27264 Off ch=9 n=43 v=64
27264 Off ch=9 n=31 v=64
27264 On ch=9 n=64 v=85
27264 On ch=9 n=61 v=72
27264 On ch=9 n=69 v=85
27264 On ch=9 n=45 v=72
27264 On ch=9 n=33 v=72
27312 Off ch=9 n=64 v=64
27312 Off ch=9 n=61 v=64
27312 Off ch=9 n=69 v=64
27312 Off ch=9 n=45 v=64
27312 Off ch=9 n=33 v=64
27312 On ch=9 n=49 v=77
27312 On ch=9 n=37 v=77
27360 Off ch=9 n=49 v=64
27360 Off ch=9 n=37 v=64
27360 On ch=9 n=64 v=85
27360 On ch=9 n=61 v=70
27360 On ch=9 n=69 v=85
27360 On ch=9 n=52 v=73
27360 On ch=9 n=40 v=73
27408 Off ch=9 n=64 v=64
27408 Off ch=9 n=61 v=64
27408 Off ch=9 n=69 v=64
27408 Off ch=9 n=52 v=64
27408 Off ch=9 n=40 v=64
27408 On ch=9 n=49 v=77
27408 On ch=9 n=37 v=77
27456 Off ch=9 n=49 v=64
27456 Off ch=9 n=37 v=64
27456 On ch=9 n=64 v=82
27456 On ch=9 n=61 v=66
27456 On ch=9 n=69 v=82
27504 Off ch=9 n=64 v=64
27504 Off ch=9 n=61 v=64
27504 Off ch=9 n=69 v=64
27504 On ch=9 n=47 v=74
27504 On ch=9 n=35 v=74
27552 Off ch=9 n=47 v=64
27552 Off ch=9 n=35 v=64
27552 On ch=9 n=64 v=70
27552 On ch=9 n=61 v=52
27552 On ch=9 n=69 v=72
27600 Off ch=9 n=64 v=64
27600 Off ch=9 n=61 v=64
27600 Off ch=9 n=69 v=64
27600 On ch=9 n=45 v=75
27600 On ch=9 n=33 v=75
27600 On ch=9 n=67 v=102
27600 On ch=9 n=64 v=98
27600 On ch=9 n=72 v=102
27696 Off ch=9 n=33 v=64
27696 Off ch=9 n=45 v=64
27696 Off ch=9 n=64 v=64
27696 Off ch=9 n=67 v=64
27696 Off ch=9 n=72 v=64
27696 On ch=9 n=43 v=75
27696 On ch=9 n=31 v=75
27744 Off ch=9 n=43 v=64
27744 Off ch=9 n=31 v=64
27744 On ch=9 n=67 v=89
27744 On ch=9 n=71 v=74
27744 On ch=9 n=62 v=68
27744 On ch=9 n=40 v=73
27744 On ch=9 n=28 v=73
27792 Off ch=9 n=67 v=64
27792 Off ch=9 n=71 v=64
27792 Off ch=9 n=62 v=64
27792 Off ch=9 n=40 v=64
27792 Off ch=9 n=28 v=64
27792 On ch=9 n=45 v=75
27792 On ch=9 n=33 v=75
27840 On ch=9 n=62 v=87
27840 On ch=9 n=67 v=85
27840 On ch=9 n=71 v=87
27888 Off ch=9 n=45 v=64
27888 Off ch=9 n=33 v=64
27888 Off ch=9 n=62 v=64
27888 Off ch=9 n=67 v=64
27888 Off ch=9 n=71 v=64
27888 On ch=9 n=43 v=75
27888 On ch=9 n=31 v=75
27936 Off ch=9 n=43 v=64
27936 Off ch=9 n=31 v=64
27936 On ch=9 n=71 v=87
27936 On ch=9 n=62 v=82
27936 On ch=9 n=40 v=71
27936 On ch=9 n=28 v=71
27936 On ch=9 n=67 v=74
27984 Off ch=9 n=71 v=64
27984 Off ch=9 n=62 v=64
27984 Off ch=9 n=40 v=64
27984 Off ch=9 n=28 v=64
27984 Off ch=9 n=67 v=64
27984 On ch=9 n=64 v=95
27984 On ch=9 n=69 v=95
27984 On ch=9 n=61 v=80
27984 On ch=9 n=45 v=71
27984 On ch=9 n=33 v=71
28080 Off ch=9 n=33 v=64
28080 Off ch=9 n=45 v=64
28080 Off ch=9 n=61 v=64
28080 Off ch=9 n=64 v=64
28080 Off ch=9 n=69 v=64
28080 On ch=9 n=49 v=77
28080 On ch=9 n=37 v=77
28128 Off ch=9 n=49 v=64
28128 Off ch=9 n=37 v=64
28128 On ch=9 n=69 v=78
28128 On ch=9 n=64 v=66
28128 On ch=9 n=61 v=60
28128 On ch=9 n=52 v=72
28128 On ch=9 n=40 v=72
28176 Off ch=9 n=69 v=64
28176 Off ch=9 n=64 v=64
28176 Off ch=9 n=61 v=64
28176 Off ch=9 n=52 v=64
28176 Off ch=9 n=40 v=64
28176 On ch=9 n=49 v=77
28176 On ch=9 n=37 v=77
28224 Off ch=9 n=49 v=64
28224 Off ch=9 n=37 v=64
28224 On ch=9 n=64 v=76
28224 On ch=9 n=69 v=74
28224 On ch=9 n=61 v=58
28272 Off ch=9 n=64 v=64
28272 Off ch=9 n=69 v=64
28272 Off ch=9 n=61 v=64
28272 On ch=9 n=47 v=73
28272 On ch=9 n=35 v=73
28320 Off ch=9 n=47 v=64
28320 Off ch=9 n=35 v=64
28320 On ch=9 n=64 v=85
28320 On ch=9 n=61 v=60
28320 On ch=9 n=69 v=74
28368 Off ch=9 n=64 v=64
28368 Off ch=9 n=61 v=64
28368 Off ch=9 n=69 v=64
28368 On ch=9 n=67 v=80
28368 On ch=9 n=45 v=75
28368 On ch=9 n=33 v=75
28368 On ch=9 n=72 v=87
28368 On ch=9 n=64 v=85
28464 Off ch=9 n=33 v=64
28464 Off ch=9 n=45 v=64
28464 Off ch=9 n=64 v=64
28464 Off ch=9 n=67 v=64
28464 Off ch=9 n=72 v=64
28464 On ch=9 n=43 v=76
28464 On ch=9 n=31 v=76
28512 Off ch=9 n=43 v=64
28512 Off ch=9 n=31 v=64
28512 On ch=9 n=67 v=87
28512 On ch=9 n=71 v=66
28512 On ch=9 n=62 v=68
28512 On ch=9 n=40 v=75
28512 On ch=9 n=28 v=75
28560 Off ch=9 n=67 v=64
28560 Off ch=9 n=71 v=64
28560 Off ch=9 n=62 v=64
28560 Off ch=9 n=40 v=64
28560 Off ch=9 n=28 v=64
28560 On ch=9 n=45 v=75
28560 On ch=9 n=33 v=75
28608 On ch=9 n=62 v=74
28608 On ch=9 n=67 v=82
28608 On ch=9 n=71 v=80
28656 Off ch=9 n=45 v=64
28656 Off ch=9 n=33 v=64
28656 Off ch=9 n=62 v=64
28656 Off ch=9 n=67 v=64
28656 Off ch=9 n=71 v=64
28656 On ch=9 n=43 v=75
28656 On ch=9 n=31 v=75
28704 Off ch=9 n=43 v=64
28704 Off ch=9 n=31 v=64
28704 On ch=9 n=62 v=66
28704 On ch=9 n=71 v=82
28704 On ch=9 n=67 v=72
28704 On ch=9 n=40 v=73
28704 On ch=9 n=28 v=73
28752 Off ch=9 n=62 v=64
28752 Off ch=9 n=71 v=64
28752 Off ch=9 n=67 v=64
28752 Off ch=9 n=40 v=64
28752 Off ch=9 n=28 v=64
28752 On ch=9 n=43 v=72
28752 On ch=9 n=31 v=72
28800 Off ch=9 n=43 v=64
28800 Off ch=9 n=31 v=64
28800 On ch=9 n=64 v=85
28800 On ch=9 n=61 v=72
28800 On ch=9 n=69 v=85
28800 On ch=9 n=45 v=72
28800 On ch=9 n=33 v=72
28848 Off ch=9 n=64 v=64
28848 Off ch=9 n=61 v=64
28848 Off ch=9 n=69 v=64
28848 Off ch=9 n=45 v=64
28848 Off ch=9 n=33 v=64
28848 On ch=9 n=49 v=77
28848 On ch=9 n=37 v=77
28896 Off ch=9 n=49 v=64
28896 Off ch=9 n=37 v=64
28896 On ch=9 n=64 v=85
28896 On ch=9 n=61 v=70
28896 On ch=9 n=69 v=85
28896 On ch=9 n=52 v=73
28896 On ch=9 n=40 v=73
28944 Off ch=9 n=64 v=64
28944 Off ch=9 n=61 v=64
28944 Off ch=9 n=69 v=64
28944 Off ch=9 n=52 v=64
28944 Off ch=9 n=40 v=64
28944 On ch=9 n=49 v=77
28944 On ch=9 n=37 v=77
28992 Off ch=9 n=49 v=64
28992 Off ch=9 n=37 v=64
28992 On ch=9 n=64 v=82
28992 On ch=9 n=61 v=66
28992 On ch=9 n=69 v=82
29040 Off ch=9 n=64 v=64
29040 Off ch=9 n=61 v=64
29040 Off ch=9 n=69 v=64
29040 On ch=9 n=47 v=74
29040 On ch=9 n=35 v=74
29088 Off ch=9 n=47 v=64
29088 Off ch=9 n=35 v=64
29088 On ch=9 n=64 v=70
29088 On ch=9 n=61 v=52
29088 On ch=9 n=69 v=72
29136 Off ch=9 n=64 v=64
29136 Off ch=9 n=61 v=64
29136 Off ch=9 n=69 v=64
29136 On ch=9 n=45 v=75
29136 On ch=9 n=33 v=75
29136 On ch=9 n=67 v=102
29136 On ch=9 n=64 v=98
29136 On ch=9 n=72 v=102
29232 Off ch=9 n=33 v=64
29232 Off ch=9 n=45 v=64
29232 Off ch=9 n=64 v=64
29232 Off ch=9 n=67 v=64
29232 Off ch=9 n=72 v=64
29232 On ch=9 n=43 v=75
29232 On ch=9 n=31 v=75
29280 Off ch=9 n=43 v=64
29280 Off ch=9 n=31 v=64
29280 On ch=9 n=67 v=89
29280 On ch=9 n=71 v=74
29280 On ch=9 n=62 v=68
29280 On ch=9 n=40 v=73
29280 On ch=9 n=28 v=73
29328 Off ch=9 n=67 v=64
29328 Off ch=9 n=71 v=64
29328 Off ch=9 n=62 v=64
29328 Off ch=9 n=40 v=64
29328 Off ch=9 n=28 v=64
29328 On ch=9 n=45 v=75
29328 On ch=9 n=33 v=75
29376 On ch=9 n=62 v=87
29376 On ch=9 n=67 v=85
29376 On ch=9 n=71 v=87
29424 Off ch=9 n=45 v=64
29424 Off ch=9 n=33 v=64
29424 Off ch=9 n=62 v=64
29424 Off ch=9 n=67 v=64
29424 Off ch=9 n=71 v=64
29424 On ch=9 n=43 v=75
29424 On ch=9 n=31 v=75
29472 Off ch=9 n=43 v=64
29472 Off ch=9 n=31 v=64
29472 On ch=9 n=71 v=87
29472 On ch=9 n=62 v=82
29472 On ch=9 n=40 v=71
29472 On ch=9 n=28 v=71
29472 On ch=9 n=67 v=74
29520 Off ch=9 n=71 v=64
29520 Off ch=9 n=62 v=64
29520 Off ch=9 n=40 v=64
29520 Off ch=9 n=28 v=64
29520 Off ch=9 n=67 v=64
29520 On ch=9 n=64 v=95
29520 On ch=9 n=69 v=95
29520 On ch=9 n=61 v=80
29520 On ch=9 n=45 v=71
29520 On ch=9 n=33 v=71
29616 Off ch=9 n=33 v=64
29616 Off ch=9 n=45 v=64
29616 Off ch=9 n=61 v=64
29616 Off ch=9 n=64 v=64
29616 Off ch=9 n=69 v=64
29952 PrCh ch=9 p=55
30293 On ch=9 n=80 v=114
30315 Off ch=9 n=80 v=64
30674 On ch=9 n=80 v=114
30701 Off ch=9 n=80 v=64
31100 On ch=9 n=80 v=121
31123 Off ch=9 n=80 v=64
31482 On ch=9 n=80 v=108
31507 Off ch=9 n=80 v=64
31554 On ch=9 n=76 v=101
31578 Off ch=9 n=76 v=64
31621 On ch=9 n=77 v=101
31644 Off ch=9 n=77 v=64
31679 On ch=9 n=78 v=101
31704 Off ch=9 n=78 v=64
31743 On ch=9 n=79 v=96
31769 Off ch=9 n=79 v=64
31809 On ch=9 n=80 v=108
31833 Off ch=9 n=80 v=64
31865 On ch=9 n=81 v=108
31889 Off ch=9 n=81 v=64
41088 PrCh ch=9 p=1
41526 On ch=9 n=76 v=82
41570 On ch=9 n=74 v=82
41576 Off ch=9 n=76 v=64
41611 On ch=9 n=79 v=85
41618 Off ch=9 n=74 v=64
41661 On ch=9 n=74 v=74
41709 On ch=9 n=67 v=64
42138 Off ch=9 n=74 v=64
42141 Off ch=9 n=67 v=64
42142 Off ch=9 n=79 v=64
42291 On ch=9 n=76 v=89
42335 On ch=9 n=74 v=68
42343 Off ch=9 n=76 v=64
42378 On ch=9 n=79 v=82
42384 Off ch=9 n=74 v=64
42428 On ch=9 n=74 v=74
42476 On ch=9 n=67 v=66
42905 Off ch=9 n=74 v=64
42909 Off ch=9 n=79 v=64
42912 Off ch=9 n=67 v=64
43062 On ch=9 n=76 v=82
43106 On ch=9 n=74 v=82
43112 Off ch=9 n=76 v=64
43147 On ch=9 n=79 v=85
43154 Off ch=9 n=74 v=64
43197 On ch=9 n=74 v=74
43245 On ch=9 n=67 v=64
43392 PrCh ch=9 p=1
43674 Off ch=9 n=74 v=64
43677 Off ch=9 n=67 v=64
43678 Off ch=9 n=79 v=64
43830 On ch=9 n=76 v=82
43874 On ch=9 n=74 v=82
43880 Off ch=9 n=76 v=64
43915 On ch=9 n=79 v=85
43922 Off ch=9 n=74 v=64
43965 On ch=9 n=74 v=74
44013 On ch=9 n=67 v=64
44160 PrCh ch=9 p=1
44442 Off ch=9 n=74 v=64
44445 Off ch=9 n=67 v=64
44446 Off ch=9 n=79 v=64
44598 On ch=9 n=76 v=82
44642 On ch=9 n=74 v=82
44648 Off ch=9 n=76 v=64
44683 On ch=9 n=79 v=85
44690 Off ch=9 n=74 v=64
44733 On ch=9 n=74 v=74
44781 On ch=9 n=67 v=64
45210 Off ch=9 n=74 v=64
45213 Off ch=9 n=67 v=64
45214 Off ch=9 n=79 v=64
45363 On ch=9 n=76 v=89
45407 On ch=9 n=74 v=68
45415 Off ch=9 n=76 v=64
45450 On ch=9 n=79 v=82
45456 Off ch=9 n=74 v=64
45500 On ch=9 n=74 v=74
45548 On ch=9 n=67 v=66
45977 Off ch=9 n=74 v=64
45981 Off ch=9 n=79 v=64
45984 Off ch=9 n=67 v=64
46131 On ch=9 n=76 v=80
46175 On ch=9 n=74 v=78
46182 Off ch=9 n=76 v=64
46223 On ch=9 n=79 v=85
46230 Off ch=9 n=74 v=64
46268 On ch=9 n=74 v=78
46319 On ch=9 n=67 v=59
46669 Off ch=9 n=79 v=64
46672 Off ch=9 n=74 v=64
46680 Off ch=9 n=67 v=64
46800 On ch=9 n=45 v=77
46800 On ch=9 n=33 v=77
46896 Off ch=9 n=33 v=64
46896 Off ch=9 n=45 v=64
46896 On ch=9 n=49 v=77
46896 On ch=9 n=37 v=77
46944 Off ch=9 n=49 v=64
46944 Off ch=9 n=37 v=64
46944 On ch=9 n=52 v=72
46944 On ch=9 n=40 v=72
46992 Off ch=9 n=52 v=64
46992 Off ch=9 n=40 v=64
46992 On ch=9 n=49 v=77
46992 On ch=9 n=37 v=77
47040 Off ch=9 n=49 v=64
47040 Off ch=9 n=37 v=64
47088 On ch=9 n=47 v=73
47088 On ch=9 n=35 v=73
47136 Off ch=9 n=47 v=64
47136 Off ch=9 n=35 v=64
47184 On ch=9 n=67 v=80
47184 On ch=9 n=45 v=75
47184 On ch=9 n=33 v=75
47184 On ch=9 n=72 v=87
47184 On ch=9 n=64 v=85
47280 Off ch=9 n=33 v=64
47280 Off ch=9 n=45 v=64
47280 Off ch=9 n=64 v=64
47280 Off ch=9 n=67 v=64
47280 Off ch=9 n=72 v=64
47280 On ch=9 n=43 v=76
47280 On ch=9 n=31 v=76
47328 Off ch=9 n=43 v=64
47328 Off ch=9 n=31 v=64
47328 On ch=9 n=67 v=87
47328 On ch=9 n=71 v=66
47328 On ch=9 n=62 v=68
47328 On ch=9 n=40 v=75
47328 On ch=9 n=28 v=75
47376 Off ch=9 n=67 v=64
47376 Off ch=9 n=71 v=64
47376 Off ch=9 n=62 v=64
47376 Off ch=9 n=40 v=64
47376 Off ch=9 n=28 v=64
47376 On ch=9 n=45 v=75
47376 On ch=9 n=33 v=75
47424 On ch=9 n=62 v=74
47424 On ch=9 n=67 v=82
47424 On ch=9 n=71 v=80
47472 Off ch=9 n=45 v=64
47472 Off ch=9 n=33 v=64
47472 Off ch=9 n=62 v=64
47472 Off ch=9 n=67 v=64
47472 Off ch=9 n=71 v=64
47472 On ch=9 n=43 v=75
47472 On ch=9 n=31 v=75
47520 Off ch=9 n=43 v=64
47520 Off ch=9 n=31 v=64
47520 On ch=9 n=62 v=66
47520 On ch=9 n=71 v=82
47520 On ch=9 n=67 v=72
47520 On ch=9 n=40 v=73
47520 On ch=9 n=28 v=73
47568 Off ch=9 n=62 v=64
47568 Off ch=9 n=71 v=64
47568 Off ch=9 n=67 v=64
47568 Off ch=9 n=40 v=64
47568 Off ch=9 n=28 v=64
47568 On ch=9 n=43 v=72
47568 On ch=9 n=31 v=72
47616 Off ch=9 n=43 v=64
47616 Off ch=9 n=31 v=64
47616 On ch=9 n=64 v=85
47616 On ch=9 n=61 v=72
47616 On ch=9 n=69 v=85
47616 On ch=9 n=45 v=72
47616 On ch=9 n=33 v=72
47664 Off ch=9 n=64 v=64
47664 Off ch=9 n=61 v=64
47664 Off ch=9 n=69 v=64
47664 Off ch=9 n=45 v=64
47664 Off ch=9 n=33 v=64
47664 On ch=9 n=49 v=77
47664 On ch=9 n=37 v=77
47712 Off ch=9 n=49 v=64
47712 Off ch=9 n=37 v=64
47712 On ch=9 n=64 v=85
47712 On ch=9 n=61 v=70
47712 On ch=9 n=69 v=85
47712 On ch=9 n=52 v=73
47712 On ch=9 n=40 v=73
47760 Off ch=9 n=64 v=64
47760 Off ch=9 n=61 v=64
47760 Off ch=9 n=69 v=64
47760 Off ch=9 n=52 v=64
47760 Off ch=9 n=40 v=64
47760 On ch=9 n=49 v=77
47760 On ch=9 n=37 v=77
47808 Off ch=9 n=49 v=64
47808 Off ch=9 n=37 v=64
47808 On ch=9 n=64 v=82
47808 On ch=9 n=61 v=66
47808 On ch=9 n=69 v=82
47856 Off ch=9 n=64 v=64
47856 Off ch=9 n=61 v=64
47856 Off ch=9 n=69 v=64
47856 On ch=9 n=47 v=74
47856 On ch=9 n=35 v=74
47904 Off ch=9 n=47 v=64
47904 Off ch=9 n=35 v=64
47904 On ch=9 n=64 v=70
47904 On ch=9 n=61 v=52
47904 On ch=9 n=69 v=72
47952 Off ch=9 n=64 v=64
47952 Off ch=9 n=61 v=64
47952 Off ch=9 n=69 v=64
47952 On ch=9 n=45 v=75
47952 On ch=9 n=33 v=75
47952 On ch=9 n=67 v=102
47952 On ch=9 n=64 v=98
47952 On ch=9 n=72 v=102
48048 Off ch=9 n=33 v=64
48048 Off ch=9 n=45 v=64
48048 Off ch=9 n=64 v=64
48048 Off ch=9 n=67 v=64
48048 Off ch=9 n=72 v=64
48048 On ch=9 n=43 v=75
48048 On ch=9 n=31 v=75
48096 Off ch=9 n=43 v=64
48096 Off ch=9 n=31 v=64
48096 On ch=9 n=67 v=89
48096 On ch=9 n=71 v=74
48096 On ch=9 n=62 v=68
48096 On ch=9 n=40 v=73
48096 On ch=9 n=28 v=73
48144 Off ch=9 n=67 v=64
48144 Off ch=9 n=71 v=64
48144 Off ch=9 n=62 v=64
48144 Off ch=9 n=40 v=64
48144 Off ch=9 n=28 v=64
48144 On ch=9 n=45 v=75
48144 On ch=9 n=33 v=75
48192 On ch=9 n=62 v=87
48192 On ch=9 n=67 v=85
48192 On ch=9 n=71 v=87
48240 Off ch=9 n=45 v=64
48240 Off ch=9 n=33 v=64
48240 Off ch=9 n=62 v=64
48240 Off ch=9 n=67 v=64
48240 Off ch=9 n=71 v=64
48240 On ch=9 n=43 v=75
48240 On ch=9 n=31 v=75
48288 Off ch=9 n=43 v=64
48288 Off ch=9 n=31 v=64
48288 On ch=9 n=71 v=87
48288 On ch=9 n=62 v=82
48288 On ch=9 n=40 v=71
48288 On ch=9 n=28 v=71
48288 On ch=9 n=67 v=74
48336 Off ch=9 n=71 v=64
48336 Off ch=9 n=62 v=64
48336 Off ch=9 n=40 v=64
48336 Off ch=9 n=28 v=64
48336 Off ch=9 n=67 v=64
48336 On ch=9 n=64 v=95
48336 On ch=9 n=69 v=95
48336 On ch=9 n=61 v=80
48336 On ch=9 n=45 v=71
48336 On ch=9 n=33 v=71
48432 Off ch=9 n=33 v=64
48432 Off ch=9 n=45 v=64
48432 Off ch=9 n=61 v=64
48432 Off ch=9 n=64 v=64
48432 Off ch=9 n=69 v=64
48432 On ch=9 n=49 v=77
48432 On ch=9 n=37 v=77
48480 Off ch=9 n=49 v=64
48480 Off ch=9 n=37 v=64
48480 On ch=9 n=69 v=78
48480 On ch=9 n=64 v=66
48480 On ch=9 n=61 v=60
48480 On ch=9 n=52 v=72
48480 On ch=9 n=40 v=72
48528 Off ch=9 n=69 v=64
48528 Off ch=9 n=64 v=64
48528 Off ch=9 n=61 v=64
48528 Off ch=9 n=52 v=64
48528 Off ch=9 n=40 v=64
48528 On ch=9 n=49 v=77
48528 On ch=9 n=37 v=77
48576 Off ch=9 n=49 v=64
48576 Off ch=9 n=37 v=64
48576 On ch=9 n=64 v=76
48576 On ch=9 n=69 v=74
48576 On ch=9 n=61 v=58
48624 Off ch=9 n=64 v=64
48624 Off ch=9 n=69 v=64
48624 Off ch=9 n=61 v=64
48624 On ch=9 n=47 v=73
48624 On ch=9 n=35 v=73
48672 Off ch=9 n=47 v=64
48672 Off ch=9 n=35 v=64
48672 On ch=9 n=64 v=85
48672 On ch=9 n=61 v=60
48672 On ch=9 n=69 v=74
48720 Off ch=9 n=64 v=64
48720 Off ch=9 n=61 v=64
48720 Off ch=9 n=69 v=64
48720 On ch=9 n=67 v=80
48720 On ch=9 n=45 v=75
48720 On ch=9 n=33 v=75
48720 On ch=9 n=72 v=87
48720 On ch=9 n=64 v=85
48816 Off ch=9 n=33 v=64
48816 Off ch=9 n=45 v=64
48816 Off ch=9 n=64 v=64
48816 Off ch=9 n=67 v=64
48816 Off ch=9 n=72 v=64
48816 On ch=9 n=43 v=76
48816 On ch=9 n=31 v=76
48864 Off ch=9 n=43 v=64
48864 Off ch=9 n=31 v=64
48864 On ch=9 n=67 v=87
48864 On ch=9 n=71 v=66
48864 On ch=9 n=62 v=68
48864 On ch=9 n=40 v=75
48864 On ch=9 n=28 v=75
48912 Off ch=9 n=67 v=64
48912 Off ch=9 n=71 v=64
48912 Off ch=9 n=62 v=64
48912 Off ch=9 n=40 v=64
48912 Off ch=9 n=28 v=64
48912 On ch=9 n=45 v=75
48912 On ch=9 n=33 v=75
48960 On ch=9 n=62 v=74
48960 On ch=9 n=67 v=82
48960 On ch=9 n=71 v=80
49008 Off ch=9 n=45 v=64
49008 Off ch=9 n=33 v=64
49008 Off ch=9 n=62 v=64
49008 Off ch=9 n=67 v=64
49008 Off ch=9 n=71 v=64
49008 On ch=9 n=43 v=75
49008 On ch=9 n=31 v=75
49056 Off ch=9 n=43 v=64
49056 Off ch=9 n=31 v=64
49056 On ch=9 n=62 v=66
49056 On ch=9 n=71 v=82
49056 On ch=9 n=67 v=72
49056 On ch=9 n=40 v=73
49056 On ch=9 n=28 v=73
49104 Off ch=9 n=62 v=64
49104 Off ch=9 n=71 v=64
49104 Off ch=9 n=67 v=64
49104 Off ch=9 n=40 v=64
49104 Off ch=9 n=28 v=64
49104 On ch=9 n=43 v=72
49104 On ch=9 n=31 v=72
49152 Off ch=9 n=43 v=64
49152 Off ch=9 n=31 v=64
49152 On ch=9 n=64 v=85
49152 On ch=9 n=61 v=72
49152 On ch=9 n=69 v=85
49152 On ch=9 n=45 v=72
49152 On ch=9 n=33 v=72
49200 Off ch=9 n=64 v=64
49200 Off ch=9 n=61 v=64
49200 Off ch=9 n=69 v=64
49200 Off ch=9 n=45 v=64
49200 Off ch=9 n=33 v=64
49200 On ch=9 n=49 v=77
49200 On ch=9 n=37 v=77
49248 Off ch=9 n=49 v=64
49248 Off ch=9 n=37 v=64
49248 On ch=9 n=64 v=85
49248 On ch=9 n=61 v=70
49248 On ch=9 n=69 v=85
49248 On ch=9 n=52 v=73
49248 On ch=9 n=40 v=73
49296 Off ch=9 n=64 v=64
49296 Off ch=9 n=61 v=64
49296 Off ch=9 n=69 v=64
49296 Off ch=9 n=52 v=64
49296 Off ch=9 n=40 v=64
49296 On ch=9 n=49 v=77
49296 On ch=9 n=37 v=77
49344 Off ch=9 n=49 v=64
49344 Off ch=9 n=37 v=64
49344 On ch=9 n=64 v=82
49344 On ch=9 n=61 v=66
49344 On ch=9 n=69 v=82
49392 Off ch=9 n=64 v=64
49392 Off ch=9 n=61 v=64
49392 Off ch=9 n=69 v=64
49392 On ch=9 n=47 v=74
49392 On ch=9 n=35 v=74
49440 Off ch=9 n=47 v=64
49440 Off ch=9 n=35 v=64
49440 On ch=9 n=64 v=70
49440 On ch=9 n=61 v=52
49440 On ch=9 n=69 v=72
49488 Off ch=9 n=64 v=64
49488 Off ch=9 n=61 v=64
49488 Off ch=9 n=69 v=64
49488 On ch=9 n=33 v=75
49488 On ch=9 n=45 v=75
49488 On ch=9 n=67 v=102
49488 On ch=9 n=64 v=98
49488 On ch=9 n=72 v=102
49584 Off ch=9 n=64 v=64
49584 Off ch=9 n=67 v=64
49584 Off ch=9 n=72 v=64
49632 Off ch=9 n=33 v=64
49632 Off ch=9 n=45 v=64
49632 On ch=9 n=43 v=75
49632 On ch=9 n=31 v=75
49632 On ch=9 n=67 v=89
49632 On ch=9 n=71 v=74
49632 On ch=9 n=62 v=68
49680 Off ch=9 n=43 v=64
49680 Off ch=9 n=31 v=64
49680 Off ch=9 n=67 v=64
49680 Off ch=9 n=71 v=64
49680 Off ch=9 n=62 v=64
49680 On ch=9 n=40 v=73
49680 On ch=9 n=28 v=73
49728 Off ch=9 n=40 v=64
49728 Off ch=9 n=28 v=64
49728 On ch=9 n=62 v=87
49728 On ch=9 n=67 v=85
49728 On ch=9 n=71 v=87
49776 Off ch=9 n=62 v=64
49776 Off ch=9 n=67 v=64
49776 Off ch=9 n=71 v=64
49776 On ch=9 n=33 v=75
49776 On ch=9 n=45 v=75
49824 Off ch=9 n=33 v=64
49824 Off ch=9 n=45 v=64
49824 On ch=9 n=43 v=75
49824 On ch=9 n=31 v=75
49824 On ch=9 n=71 v=87
49824 On ch=9 n=62 v=82
49824 On ch=9 n=67 v=74
49872 Off ch=9 n=43 v=64
49872 Off ch=9 n=31 v=64
49872 Off ch=9 n=71 v=64
49872 Off ch=9 n=62 v=64
49872 Off ch=9 n=67 v=64
49872 On ch=9 n=64 v=95
49872 On ch=9 n=69 v=95
49872 On ch=9 n=61 v=80
49920 On ch=9 n=45 v=73
49920 On ch=9 n=33 v=74
49968 Off ch=9 n=61 v=64
49968 Off ch=9 n=64 v=64
49968 Off ch=9 n=69 v=64
49968 Off ch=9 n=45 v=64
49968 Off ch=9 n=33 v=64
49968 On ch=9 n=49 v=78
49968 On ch=9 n=37 v=73
50016 Off ch=9 n=49 v=64
50016 Off ch=9 n=37 v=64
50016 On ch=9 n=69 v=75
50016 On ch=9 n=64 v=70
50016 On ch=9 n=61 v=70
50016 On ch=9 n=52 v=73
50016 On ch=9 n=40 v=70
50064 Off ch=9 n=69 v=64
50064 Off ch=9 n=64 v=64
50064 Off ch=9 n=61 v=64
50064 Off ch=9 n=52 v=64
50064 Off ch=9 n=40 v=64
50064 On ch=9 n=49 v=79
50064 On ch=9 n=37 v=75
50112 Off ch=9 n=49 v=64
50112 Off ch=9 n=37 v=64
50112 On ch=9 n=64 v=78
50112 On ch=9 n=69 v=77
50112 On ch=9 n=61 v=70
50160 Off ch=9 n=64 v=64
50160 Off ch=9 n=69 v=64
50160 Off ch=9 n=61 v=64
50160 On ch=9 n=47 v=75
50160 On ch=9 n=35 v=70
50208 Off ch=9 n=47 v=64
50208 Off ch=9 n=35 v=64
50208 On ch=9 n=64 v=80
50208 On ch=9 n=61 v=70
50208 On ch=9 n=69 v=76
50256 Off ch=9 n=64 v=64
50256 Off ch=9 n=61 v=64
50256 Off ch=9 n=69 v=64
50256 On ch=9 n=67 v=76
50256 On ch=9 n=45 v=72
50256 On ch=9 n=33 v=72
50256 On ch=9 n=72 v=80
50256 On ch=9 n=64 v=80
50352 Off ch=9 n=33 v=64
50352 Off ch=9 n=45 v=64
50352 Off ch=9 n=64 v=64
50352 Off ch=9 n=67 v=64
50352 Off ch=9 n=72 v=64
50352 On ch=9 n=43 v=77
50352 On ch=9 n=31 v=75
50400 Off ch=9 n=43 v=64
50400 Off ch=9 n=31 v=64
50400 On ch=9 n=67 v=80
50400 On ch=9 n=71 v=70
50400 On ch=9 n=62 v=70
50400 On ch=9 n=40 v=72
50400 On ch=9 n=28 v=78
50448 Off ch=9 n=67 v=64
50448 Off ch=9 n=71 v=64
50448 Off ch=9 n=62 v=64
50448 Off ch=9 n=40 v=64
50448 Off ch=9 n=28 v=64
50448 On ch=9 n=45 v=78
50448 On ch=9 n=33 v=71
50496 On ch=9 n=62 v=71
50496 On ch=9 n=67 v=78
50496 On ch=9 n=71 v=80
50544 Off ch=9 n=45 v=64
50544 Off ch=9 n=33 v=64
50544 Off ch=9 n=62 v=64
50544 Off ch=9 n=67 v=64
50544 Off ch=9 n=71 v=64
50544 On ch=9 n=43 v=78
50544 On ch=9 n=31 v=73
50592 Off ch=9 n=43 v=64
50592 Off ch=9 n=31 v=64
50592 On ch=9 n=62 v=70
50592 On ch=9 n=71 v=80
50592 On ch=9 n=67 v=72
50592 On ch=9 n=40 v=72
50592 On ch=9 n=28 v=74
50640 Off ch=9 n=62 v=64
50640 Off ch=9 n=71 v=64
50640 Off ch=9 n=67 v=64
50640 Off ch=9 n=40 v=64
50640 Off ch=9 n=28 v=64
50640 On ch=9 n=43 v=72
50640 On ch=9 n=31 v=70
50688 Off ch=9 n=43 v=64
50688 Off ch=9 n=31 v=64
50688 On ch=9 n=45 v=100
50688 On ch=9 n=33 v=100
50736 Off ch=9 n=45 v=64
50736 Off ch=9 n=33 v=64
50736 Pb ch=9 v=7392
50736 Pb ch=9 v=7392
50736 On ch=9 n=49 v=107
50736 On ch=9 n=37 v=107
50739 Pb ch=9 v=7493
50739 Pb ch=9 v=7493
50742 Pb ch=9 v=7594
50742 Pb ch=9 v=7594
50745 Pb ch=9 v=7694
50745 Pb ch=9 v=7694
50748 Pb ch=9 v=7795
50748 Pb ch=9 v=7795
50751 Pb ch=9 v=7896
50751 Pb ch=9 v=7896
50754 Pb ch=9 v=7997
50754 Pb ch=9 v=7997
50757 Pb ch=9 v=8098
50757 Pb ch=9 v=8098
50759 Pb ch=9 v=8192
50759 Pb ch=9 v=8192
50784 Off ch=9 n=49 v=64
50784 Off ch=9 n=37 v=64
50784 On ch=9 n=52 v=100
50784 On ch=9 n=40 v=100
50832 Off ch=9 n=52 v=64
50832 Off ch=9 n=40 v=64
50832 On ch=9 n=49 v=104
50832 On ch=9 n=37 v=104
50880 Off ch=9 n=49 v=64
50880 Off ch=9 n=37 v=64
50928 On ch=9 n=47 v=104
50928 On ch=9 n=35 v=104
50976 Off ch=9 n=47 v=64
50976 Off ch=9 n=35 v=64
51024 On ch=9 n=43 v=109
51024 On ch=9 n=31 v=109
51216 Off ch=9 n=31 v=64
51216 Off ch=9 n=43 v=64
51216 On ch=9 n=42 v=80
51216 On ch=9 n=30 v=80
51312 Off ch=9 n=42 v=64
51312 Off ch=9 n=30 v=64
51312 On ch=9 n=40 v=80
51312 On ch=9 n=28 v=80
51408 Off ch=9 n=40 v=64
51408 Off ch=9 n=28 v=64
51408 On ch=9 n=41 v=80
51408 On ch=9 n=29 v=80
51504 Off ch=9 n=29 v=64
51504 Off ch=9 n=41 v=64
51504 On ch=9 n=45 v=80
51504 On ch=9 n=33 v=80
51552 Off ch=9 n=45 v=64
51552 Off ch=9 n=33 v=64
51552 On ch=9 n=48 v=80
51552 On ch=9 n=36 v=80
51600 Off ch=9 n=48 v=64
51600 Off ch=9 n=36 v=64
51600 On ch=9 n=45 v=80
51600 On ch=9 n=33 v=80
51648 Off ch=9 n=45 v=64
51648 Off ch=9 n=33 v=64
51696 On ch=9 n=43 v=80
51696 On ch=9 n=31 v=80
51744 Off ch=9 n=43 v=64
51744 Off ch=9 n=31 v=64
51792 On ch=9 n=53 v=70
51792 On ch=9 n=41 v=70
51888 Off ch=9 n=41 v=64
51888 Off ch=9 n=53 v=64
51888 On ch=9 n=51 v=80
51888 On ch=9 n=39 v=80
51936 Off ch=9 n=51 v=64
51936 Off ch=9 n=39 v=64
51936 On ch=9 n=48 v=80
51936 On ch=9 n=36 v=80
51984 Off ch=9 n=48 v=64
51984 Off ch=9 n=36 v=64
51984 On ch=9 n=53 v=80
51984 On ch=9 n=41 v=80
52080 Off ch=9 n=53 v=64
52080 Off ch=9 n=41 v=64
52080 On ch=9 n=51 v=80
52080 On ch=9 n=39 v=80
52128 Off ch=9 n=51 v=64
52128 Off ch=9 n=39 v=64
52128 On ch=9 n=48 v=80
52128 On ch=9 n=36 v=80
52176 Off ch=9 n=48 v=64
52176 Off ch=9 n=36 v=64
52176 On ch=9 n=53 v=80
52176 On ch=9 n=41 v=80
52224 Off ch=9 n=53 v=64
52224 Off ch=9 n=41 v=64
52224 Par ch=9 c=7 v=100
52224 On ch=9 n=41 v=80
52224 On ch=9 n=29 v=80
52253 Par ch=9 c=7 v=99
52272 Off ch=9 n=41 v=64
52272 Off ch=9 n=29 v=64
52272 On ch=9 n=45 v=80
52272 On ch=9 n=33 v=80
52283 Par ch=9 c=7 v=98
52313 Par ch=9 c=7 v=97
52320 Off ch=9 n=45 v=64
52320 Off ch=9 n=33 v=64
52320 On ch=9 n=48 v=80
52320 On ch=9 n=36 v=80
52343 Par ch=9 c=7 v=96
52368 Off ch=9 n=48 v=64
52368 Off ch=9 n=36 v=64
52368 On ch=9 n=45 v=80
52368 On ch=9 n=33 v=80
52372 Par ch=9 c=7 v=95
52402 Par ch=9 c=7 v=94
52416 Off ch=9 n=45 v=64
52416 Off ch=9 n=33 v=64
52432 Par ch=9 c=7 v=93
52462 Par ch=9 c=7 v=92
52464 On ch=9 n=43 v=80
52464 On ch=9 n=31 v=80
52491 Par ch=9 c=7 v=91
52512 Off ch=9 n=43 v=64
52512 Off ch=9 n=31 v=64
52521 Par ch=9 c=7 v=90
52551 Par ch=9 c=7 v=89
52560 On ch=9 n=53 v=80
52560 On ch=9 n=41 v=80
52581 Par ch=9 c=7 v=88
52610 Par ch=9 c=7 v=87
52640 Par ch=9 c=7 v=86
52656 Off ch=9 n=41 v=64
52656 Off ch=9 n=53 v=64
52656 On ch=9 n=51 v=80
52656 On ch=9 n=39 v=80
52670 Par ch=9 c=7 v=85
52700 Par ch=9 c=7 v=84
52704 Off ch=9 n=51 v=64
52704 Off ch=9 n=39 v=64
52704 On ch=9 n=48 v=80
52704 On ch=9 n=36 v=80
52729 Par ch=9 c=7 v=83
52752 Off ch=9 n=48 v=64
52752 Off ch=9 n=36 v=64
52759 Par ch=9 c=7 v=82
52789 Par ch=9 c=7 v=81
52800 On ch=9 n=53 v=80
52800 On ch=9 n=41 v=80
52819 Par ch=9 c=7 v=80
52848 Off ch=9 n=53 v=64
52848 Off ch=9 n=41 v=64
52848 On ch=9 n=51 v=80
52848 On ch=9 n=39 v=80
52848 Par ch=9 c=7 v=79
52878 Par ch=9 c=7 v=78
52896 Off ch=9 n=51 v=64
52896 Off ch=9 n=39 v=64
52896 On ch=9 n=48 v=80
52896 On ch=9 n=36 v=80
52908 Par ch=9 c=7 v=77
52938 Par ch=9 c=7 v=76
52944 Off ch=9 n=48 v=64
52944 Off ch=9 n=36 v=64
52967 Par ch=9 c=7 v=75
52992 On ch=9 n=29 v=80
52992 On ch=9 n=41 v=80
52997 Par ch=9 c=7 v=74
53027 Par ch=9 c=7 v=73
53040 Off ch=9 n=29 v=64
53040 Off ch=9 n=41 v=64
53040 On ch=9 n=45 v=80
53040 On ch=9 n=33 v=80
53057 Par ch=9 c=7 v=72
53086 Par ch=9 c=7 v=71
53088 Off ch=9 n=45 v=64
53088 Off ch=9 n=33 v=64
53088 On ch=9 n=48 v=80
53088 On ch=9 n=36 v=80
53116 Par ch=9 c=7 v=70
53136 Off ch=9 n=48 v=64
53136 Off ch=9 n=36 v=64
53136 On ch=9 n=45 v=80
53136 On ch=9 n=33 v=80
53146 Par ch=9 c=7 v=69
53176 Par ch=9 c=7 v=68
53184 Off ch=9 n=45 v=64
53184 Off ch=9 n=33 v=64
53206 Par ch=9 c=7 v=67
53232 On ch=9 n=43 v=80
53232 On ch=9 n=31 v=80
53235 Par ch=9 c=7 v=66
53265 Par ch=9 c=7 v=65
53280 Off ch=9 n=43 v=64
53280 Off ch=9 n=31 v=64
53295 Par ch=9 c=7 v=64
53325 Par ch=9 c=7 v=63
53328 On ch=9 n=53 v=70
53328 On ch=9 n=41 v=70
53354 Par ch=9 c=7 v=62
53384 Par ch=9 c=7 v=61
53414 Par ch=9 c=7 v=60
53424 Off ch=9 n=41 v=64
53424 Off ch=9 n=53 v=64
53424 On ch=9 n=51 v=80
53424 On ch=9 n=39 v=80
53444 Par ch=9 c=7 v=59
53472 Off ch=9 n=51 v=64
53472 Off ch=9 n=39 v=64
53472 On ch=9 n=48 v=80
53472 On ch=9 n=36 v=80
53473 Par ch=9 c=7 v=58
53503 Par ch=9 c=7 v=57
53520 Off ch=9 n=48 v=64
53520 Off ch=9 n=36 v=64
53520 On ch=9 n=53 v=80
53520 On ch=9 n=41 v=80
53533 Par ch=9 c=7 v=56
53563 Par ch=9 c=7 v=55
53592 Par ch=9 c=7 v=54
53616 Off ch=9 n=53 v=64
53616 Off ch=9 n=41 v=64
53616 On ch=9 n=51 v=80
53616 On ch=9 n=39 v=80
53622 Par ch=9 c=7 v=53
53652 Par ch=9 c=7 v=52
53664 Off ch=9 n=51 v=64
53664 Off ch=9 n=39 v=64
53664 On ch=9 n=48 v=80
53664 On ch=9 n=36 v=80
53682 Par ch=9 c=7 v=51
53711 Par ch=9 c=7 v=50
53712 Off ch=9 n=48 v=64
53712 Off ch=9 n=36 v=64
53712 On ch=9 n=53 v=80
53712 On ch=9 n=41 v=80
53741 Par ch=9 c=7 v=49
53760 Off ch=9 n=53 v=64
53760 Off ch=9 n=41 v=64
53760 On ch=9 n=29 v=80
53760 On ch=9 n=41 v=80
53771 Par ch=9 c=7 v=48
53801 Par ch=9 c=7 v=47
53808 Off ch=9 n=29 v=64
53808 Off ch=9 n=41 v=64
53808 On ch=9 n=45 v=80
53808 On ch=9 n=33 v=80
53830 Par ch=9 c=7 v=46
53856 Off ch=9 n=45 v=64
53856 Off ch=9 n=33 v=64
53856 On ch=9 n=48 v=80
53856 On ch=9 n=36 v=80
53860 Par ch=9 c=7 v=45
53890 Par ch=9 c=7 v=44
53904 Off ch=9 n=48 v=64
53904 Off ch=9 n=36 v=64
53904 On ch=9 n=45 v=80
53904 On ch=9 n=33 v=80
53920 Par ch=9 c=7 v=43
53949 Par ch=9 c=7 v=42
53952 Off ch=9 n=45 v=64
53952 Off ch=9 n=33 v=64
53979 Par ch=9 c=7 v=41
54000 On ch=9 n=43 v=80
54000 On ch=9 n=31 v=80
54009 Par ch=9 c=7 v=40
54039 Par ch=9 c=7 v=39
54048 Off ch=9 n=43 v=64
54048 Off ch=9 n=31 v=64
54068 Par ch=9 c=7 v=38
54096 On ch=9 n=53 v=70
54096 On ch=9 n=41 v=70
54098 Par ch=9 c=7 v=37
54128 Par ch=9 c=7 v=36
54158 Par ch=9 c=7 v=35
54188 Par ch=9 c=7 v=34
54192 Off ch=9 n=41 v=64
54192 Off ch=9 n=53 v=64
54192 On ch=9 n=51 v=80
54192 On ch=9 n=39 v=80
54217 Par ch=9 c=7 v=33
54240 Off ch=9 n=51 v=64
54240 Off ch=9 n=39 v=64
54240 On ch=9 n=48 v=80
54240 On ch=9 n=36 v=80
54247 Par ch=9 c=7 v=32
54277 Par ch=9 c=7 v=31
54288 Off ch=9 n=48 v=64
54288 Off ch=9 n=36 v=64
54288 On ch=9 n=53 v=80
54288 On ch=9 n=41 v=80
54307 Par ch=9 c=7 v=30
54336 Par ch=9 c=7 v=29
54366 Par ch=9 c=7 v=28
54384 Off ch=9 n=53 v=64
54384 Off ch=9 n=41 v=64
54384 On ch=9 n=51 v=80
54384 On ch=9 n=39 v=80
54396 Par ch=9 c=7 v=27
54426 Par ch=9 c=7 v=26
54432 Off ch=9 n=51 v=64
54432 Off ch=9 n=39 v=64
54432 On ch=9 n=48 v=80
54432 On ch=9 n=36 v=80
54455 Par ch=9 c=7 v=25
54480 Off ch=9 n=48 v=64
54480 Off ch=9 n=36 v=64
54480 On ch=9 n=53 v=80
54480 On ch=9 n=41 v=80
54485 Par ch=9 c=7 v=24
54515 Par ch=9 c=7 v=23
54528 Off ch=9 n=53 v=64
54528 Off ch=9 n=41 v=64
54528 On ch=9 n=29 v=80
54528 On ch=9 n=41 v=80
54545 Par ch=9 c=7 v=22
54574 Par ch=9 c=7 v=21
54576 Off ch=9 n=29 v=64
54576 Off ch=9 n=41 v=64
54576 On ch=9 n=45 v=80
54576 On ch=9 n=33 v=80
54604 Par ch=9 c=7 v=20
54624 Off ch=9 n=45 v=64
54624 Off ch=9 n=33 v=64
54624 On ch=9 n=48 v=80
54624 On ch=9 n=36 v=80
54634 Par ch=9 c=7 v=19
54664 Par ch=9 c=7 v=18
54672 Off ch=9 n=48 v=64
54672 Off ch=9 n=36 v=64
54672 On ch=9 n=45 v=80
54672 On ch=9 n=33 v=80
54693 Par ch=9 c=7 v=17
54720 Off ch=9 n=45 v=64
54720 Off ch=9 n=33 v=64
54723 Par ch=9 c=7 v=16
54753 Par ch=9 c=7 v=15
54768 On ch=9 n=43 v=80
54768 On ch=9 n=31 v=80
54783 Par ch=9 c=7 v=14
54812 Par ch=9 c=7 v=13
54816 Off ch=9 n=43 v=64
54816 Off ch=9 n=31 v=64
54842 Par ch=9 c=7 v=12
54864 On ch=9 n=53 v=70
54864 On ch=9 n=41 v=70
54872 Par ch=9 c=7 v=11
54902 Par ch=9 c=7 v=10
54931 Par ch=9 c=7 v=9
54960 Off ch=9 n=41 v=64
54960 Off ch=9 n=53 v=64
54960 On ch=9 n=51 v=80
54960 On ch=9 n=39 v=80
54961 Par ch=9 c=7 v=8
54991 Par ch=9 c=7 v=7
55008 Off ch=9 n=51 v=64
55008 Off ch=9 n=39 v=64
55008 On ch=9 n=48 v=80
55008 On ch=9 n=36 v=80
55021 Par ch=9 c=7 v=6
55051 Par ch=9 c=7 v=5
55056 Off ch=9 n=48 v=64
55056 Off ch=9 n=36 v=64
55056 On ch=9 n=53 v=80
55056 On ch=9 n=41 v=80
55080 Par ch=9 c=7 v=4
55110 Par ch=9 c=7 v=3
55140 Par ch=9 c=7 v=2
55152 Off ch=9 n=53 v=64
55152 Off ch=9 n=41 v=64
55152 On ch=9 n=51 v=80
55152 On ch=9 n=39 v=80
55170 Par ch=9 c=7 v=1
55199 Par ch=9 c=7 v=0
55200 Off ch=9 n=51 v=64
55200 Off ch=9 n=39 v=64
55200 On ch=9 n=48 v=80
55200 On ch=9 n=36 v=80
55248 Off ch=9 n=48 v=64
55248 Off ch=9 n=36 v=64
55248 On ch=9 n=53 v=80
55248 On ch=9 n=41 v=80
55296 Off ch=9 n=53 v=64
55296 Off ch=9 n=41 v=64
55296 Meta TrkEnd
TrkEnd
MTrk
0 Meta TrkName "Drums"
0 Par ch=10 c=0 v=0
0 PrCh ch=10 p=16
0 Par ch=10 c=10 v=64
0 Par ch=10 c=91 v=80
0 Par ch=10 c=93 v=10
0 TimeSig 4/4 96 8
0 Tempo 480000
776 Par ch=10 c=7 v=100
1538 On ch=10 n=38 v=115
1548 Off ch=10 n=38 v=64
1589 On ch=10 n=38 v=72
1599 Off ch=10 n=38 v=64
1601 On ch=10 n=38 v=63
1611 Off ch=10 n=38 v=64
1617 On ch=10 n=38 v=71
1627 Off ch=10 n=38 v=64
1632 On ch=10 n=36 v=84
1642 Off ch=10 n=36 v=64
1680 On ch=10 n=36 v=85
1690 Off ch=10 n=36 v=64
1728 Pb ch=10 v=15616
1728 On ch=10 n=44 v=85
1729 On ch=10 n=38 v=116
1738 Off ch=10 n=44 v=64
1739 Off ch=10 n=38 v=64
1776 On ch=10 n=44 v=80
1786 Off ch=10 n=44 v=64
1800 On ch=10 n=37 v=83
1810 Off ch=10 n=37 v=64
1824 On ch=10 n=36 v=81
1834 Off ch=10 n=36 v=64
1848 On ch=10 n=36 v=81
1858 Off ch=10 n=36 v=64
1871 On ch=10 n=38 v=115
1872 On ch=10 n=44 v=85
1881 Off ch=10 n=38 v=64
1882 Off ch=10 n=44 v=64
1916 Pb ch=10 v=8192
1920 On ch=10 n=44 v=80
1930 Off ch=10 n=44 v=64
2592 PrCh ch=10 p=0
3098 On ch=10 n=40 v=106
3108 Off ch=10 n=40 v=64
3122 On ch=10 n=40 v=109
3132 Off ch=10 n=40 v=64
3254 On ch=10 n=40 v=81
3264 Off ch=10 n=40 v=64
3266 On ch=10 n=40 v=105
3276 Off ch=10 n=40 v=64
3354 On ch=10 n=45 v=83
3364 Off ch=10 n=45 v=64
3364 On ch=10 n=45 v=115
3374 Off ch=10 n=45 v=64
4224 On ch=10 n=42 v=117
4224 On ch=10 n=49 v=87
4224 On ch=10 n=36 v=80
4228 On ch=10 n=56 v=52
4234 Off ch=10 n=42 v=64
4234 Off ch=10 n=49 v=64
4234 Off ch=10 n=36 v=64
4238 Off ch=10 n=56 v=64
4272 On ch=10 n=42 v=84
4282 Off ch=10 n=42 v=64
4320 On ch=10 n=38 v=84
4320 On ch=10 n=42 v=116
4324 On ch=10 n=56 v=58
4330 Off ch=10 n=38 v=64
4330 Off ch=10 n=42 v=64
4334 Off ch=10 n=56 v=64
4368 On ch=10 n=36 v=86
4368 On ch=10 n=42 v=84
4378 Off ch=10 n=36 v=64
4378 Off ch=10 n=42 v=64
4416 On ch=10 n=36 v=87
4416 On ch=10 n=42 v=123
4420 On ch=10 n=56 v=55
4426 Off ch=10 n=36 v=64
4426 Off ch=10 n=42 v=64
4430 Off ch=10 n=56 v=64
4468 On ch=10 n=42 v=85
4478 Off ch=10 n=42 v=64
4512 On ch=10 n=38 v=84
4512 On ch=10 n=42 v=122
4516 On ch=10 n=56 v=55
4522 Off ch=10 n=38 v=64
4522 Off ch=10 n=42 v=64
4526 Off ch=10 n=56 v=64
4560 On ch=10 n=36 v=86
4560 On ch=10 n=42 v=83
4570 Off ch=10 n=36 v=64
4570 Off ch=10 n=42 v=64
4608 On ch=10 n=42 v=121
4612 On ch=10 n=56 v=54
4618 Off ch=10 n=42 v=64
4622 Off ch=10 n=56 v=64
4656 On ch=10 n=42 v=81
4666 Off ch=10 n=42 v=64
4704 On ch=10 n=38 v=81
4704 On ch=10 n=42 v=122
4708 On ch=10 n=56 v=57
4714 Off ch=10 n=38 v=64
4714 Off ch=10 n=42 v=64
4718 Off ch=10 n=56 v=64
4752 On ch=10 n=36 v=83
4752 On ch=10 n=42 v=81
4762 Off ch=10 n=36 v=64
4762 Off ch=10 n=42 v=64
4800 On ch=10 n=36 v=86
4800 On ch=10 n=42 v=121
4804 On ch=10 n=56 v=56
4810 Off ch=10 n=36 v=64
4810 Off ch=10 n=42 v=64
4814 Off ch=10 n=56 v=64
4852 On ch=10 n=42 v=86
4862 Off ch=10 n=42 v=64
4896 On ch=10 n=38 v=85
4896 On ch=10 n=42 v=121
4900 On ch=10 n=56 v=55
4906 Off ch=10 n=38 v=64
4906 Off ch=10 n=42 v=64
4910 Off ch=10 n=56 v=64
4944 On ch=10 n=36 v=87
4944 On ch=10 n=42 v=86
4954 Off ch=10 n=36 v=64
4954 Off ch=10 n=42 v=64
4992 On ch=10 n=42 v=119
4992 On ch=10 n=36 v=87
4992 On ch=10 n=49 v=80
4996 On ch=10 n=56 v=54
5002 Off ch=10 n=42 v=64
5002 Off ch=10 n=36 v=64
5002 Off ch=10 n=49 v=64
5006 Off ch=10 n=56 v=64
5040 On ch=10 n=42 v=85
5050 Off ch=10 n=42 v=64
5088 On ch=10 n=38 v=80
5088 On ch=10 n=42 v=120
5092 On ch=10 n=56 v=55
5098 Off ch=10 n=38 v=64
5098 Off ch=10 n=42 v=64
5102 Off ch=10 n=56 v=64
5136 On ch=10 n=36 v=81
5136 On ch=10 n=42 v=80
5146 Off ch=10 n=36 v=64
5146 Off ch=10 n=42 v=64
5184 On ch=10 n=36 v=85
5184 On ch=10 n=42 v=119
5188 On ch=10 n=56 v=52
5194 Off ch=10 n=36 v=64
5194 Off ch=10 n=42 v=64
5198 Off ch=10 n=56 v=64
5236 On ch=10 n=42 v=84
5246 Off ch=10 n=42 v=64
5280 On ch=10 n=38 v=80
5280 On ch=10 n=42 v=119
5284 On ch=10 n=56 v=59
5290 Off ch=10 n=38 v=64
5290 Off ch=10 n=42 v=64
5294 Off ch=10 n=56 v=64
5328 On ch=10 n=36 v=81
5328 On ch=10 n=42 v=80
5338 Off ch=10 n=36 v=64
5338 Off ch=10 n=42 v=64
5376 On ch=10 n=42 v=118
5380 On ch=10 n=56 v=52
5386 Off ch=10 n=42 v=64
5390 Off ch=10 n=56 v=64
5424 On ch=10 n=42 v=80
5434 Off ch=10 n=42 v=64
5472 On ch=10 n=38 v=82
5472 On ch=10 n=42 v=121
5476 On ch=10 n=56 v=52
5482 Off ch=10 n=38 v=64
5482 Off ch=10 n=42 v=64
5486 Off ch=10 n=56 v=64
5520 On ch=10 n=36 v=80
5520 On ch=10 n=42 v=86
5530 Off ch=10 n=36 v=64
5530 Off ch=10 n=42 v=64
5568 On ch=10 n=36 v=80
5568 On ch=10 n=42 v=119
5572 On ch=10 n=56 v=55
5578 Off ch=10 n=36 v=64
5578 Off ch=10 n=42 v=64
5582 Off ch=10 n=56 v=64
5620 On ch=10 n=42 v=83
5630 Off ch=10 n=42 v=64
5664 On ch=10 n=38 v=82
5664 On ch=10 n=42 v=117
5668 On ch=10 n=56 v=55
5674 Off ch=10 n=38 v=64
5674 Off ch=10 n=42 v=64
5678 Off ch=10 n=56 v=64
5712 On ch=10 n=36 v=86
5712 On ch=10 n=42 v=87
5722 Off ch=10 n=36 v=64
5722 Off ch=10 n=42 v=64
5760 On ch=10 n=42 v=119
5760 On ch=10 n=36 v=87
5760 On ch=10 n=49 v=80
5764 On ch=10 n=56 v=58
5770 Off ch=10 n=42 v=64
5770 Off ch=10 n=36 v=64
5770 Off ch=10 n=49 v=64
5774 Off ch=10 n=56 v=64
5808 On ch=10 n=42 v=83
5818 Off ch=10 n=42 v=64
5856 On ch=10 n=38 v=83
5856 On ch=10 n=42 v=123
5860 On ch=10 n=56 v=52
5866 Off ch=10 n=38 v=64
5866 Off ch=10 n=42 v=64
5870 Off ch=10 n=56 v=64
5904 On ch=10 n=36 v=85
5904 On ch=10 n=42 v=85
5914 Off ch=10 n=36 v=64
5914 Off ch=10 n=42 v=64
5952 On ch=10 n=36 v=85
5952 On ch=10 n=42 v=120
5956 On ch=10 n=56 v=55
5962 Off ch=10 n=36 v=64
5962 Off ch=10 n=42 v=64
5966 Off ch=10 n=56 v=64
6004 On ch=10 n=42 v=84
6014 Off ch=10 n=42 v=64
6048 On ch=10 n=38 v=81
6048 On ch=10 n=42 v=120
6052 On ch=10 n=56 v=58
6058 Off ch=10 n=38 v=64
6058 Off ch=10 n=42 v=64
6062 Off ch=10 n=56 v=64
6096 On ch=10 n=36 v=87
6096 On ch=10 n=42 v=86
6106 Off ch=10 n=36 v=64
6106 Off ch=10 n=42 v=64
6144 On ch=10 n=42 v=119
6148 On ch=10 n=56 v=57
6154 Off ch=10 n=42 v=64
6158 Off ch=10 n=56 v=64
6192 On ch=10 n=42 v=81
6202 Off ch=10 n=42 v=64
6240 On ch=10 n=38 v=87
6240 On ch=10 n=42 v=117
6244 On ch=10 n=56 v=55
6250 Off ch=10 n=38 v=64
6250 Off ch=10 n=42 v=64
6254 Off ch=10 n=56 v=64
6288 On ch=10 n=36 v=82
6288 On ch=10 n=42 v=86
6298 Off ch=10 n=36 v=64
6298 Off ch=10 n=42 v=64
6336 On ch=10 n=36 v=82
6336 On ch=10 n=42 v=117
6340 On ch=10 n=56 v=54
6346 Off ch=10 n=36 v=64
6346 Off ch=10 n=42 v=64
6350 Off ch=10 n=56 v=64
6388 On ch=10 n=42 v=82
6398 Off ch=10 n=42 v=64
6432 On ch=10 n=38 v=87
6432 On ch=10 n=42 v=121
6436 On ch=10 n=56 v=56
6442 Off ch=10 n=38 v=64
6442 Off ch=10 n=42 v=64
6446 Off ch=10 n=56 v=64
6480 On ch=10 n=36 v=81
6480 On ch=10 n=42 v=82
6490 Off ch=10 n=36 v=64
6490 Off ch=10 n=42 v=64
6528 On ch=10 n=46 v=127
6528 On ch=10 n=36 v=81
6532 On ch=10 n=56 v=58
6538 Off ch=10 n=46 v=64
6538 Off ch=10 n=36 v=64
6542 Off ch=10 n=56 v=64
6624 On ch=10 n=38 v=82
6628 On ch=10 n=56 v=55
6634 Off ch=10 n=38 v=64
6638 Off ch=10 n=56 v=64
6672 On ch=10 n=36 v=84
6672 On ch=10 n=42 v=86
6682 Off ch=10 n=36 v=64
6682 Off ch=10 n=42 v=64
6720 On ch=10 n=36 v=85
6720 On ch=10 n=42 v=117
6724 On ch=10 n=56 v=58
6730 Off ch=10 n=36 v=64
6730 Off ch=10 n=42 v=64
6734 Off ch=10 n=56 v=64
6772 On ch=10 n=42 v=84
6782 Off ch=10 n=42 v=64
6816 On ch=10 n=38 v=81
6816 On ch=10 n=42 v=122
6820 On ch=10 n=56 v=58
6826 Off ch=10 n=38 v=64
6826 Off ch=10 n=42 v=64
6830 Off ch=10 n=56 v=64
6864 On ch=10 n=36 v=84
6864 On ch=10 n=42 v=83
6874 Off ch=10 n=36 v=64
6874 Off ch=10 n=42 v=64
6912 On ch=10 n=42 v=122
6916 On ch=10 n=56 v=59
6922 Off ch=10 n=42 v=64
6926 Off ch=10 n=56 v=64
6960 On ch=10 n=42 v=81
6970 Off ch=10 n=42 v=64
7008 On ch=10 n=38 v=83
7008 On ch=10 n=42 v=116
7012 On ch=10 n=56 v=59
7018 Off ch=10 n=38 v=64
7018 Off ch=10 n=42 v=64
7022 Off ch=10 n=56 v=64
7056 On ch=10 n=36 v=84
7056 On ch=10 n=42 v=83
7066 Off ch=10 n=36 v=64
7066 Off ch=10 n=42 v=64
7104 On ch=10 n=36 v=87
7104 On ch=10 n=42 v=117
7108 On ch=10 n=56 v=57
7114 Off ch=10 n=36 v=64
7114 Off ch=10 n=42 v=64
7118 Off ch=10 n=56 v=64
7156 On ch=10 n=42 v=83
7166 Off ch=10 n=42 v=64
7200 On ch=10 n=38 v=84
7200 On ch=10 n=42 v=123
7204 On ch=10 n=56 v=58
7210 Off ch=10 n=38 v=64
7210 Off ch=10 n=42 v=64
7214 Off ch=10 n=56 v=64
7248 On ch=10 n=36 v=82
7248 On ch=10 n=42 v=83
7258 Off ch=10 n=36 v=64
7258 Off ch=10 n=42 v=64
7296 On ch=10 n=46 v=127
7296 On ch=10 n=36 v=86
7300 On ch=10 n=56 v=58
7306 Off ch=10 n=46 v=64
7306 Off ch=10 n=36 v=64
7310 Off ch=10 n=56 v=64
7392 On ch=10 n=38 v=81
7396 On ch=10 n=56 v=54
7402 Off ch=10 n=38 v=64
7406 Off ch=10 n=56 v=64
7440 On ch=10 n=36 v=82
7440 On ch=10 n=42 v=87
7450 Off ch=10 n=36 v=64
7450 Off ch=10 n=42 v=64
7488 On ch=10 n=36 v=85
7488 On ch=10 n=42 v=120
7492 On ch=10 n=56 v=55
7498 Off ch=10 n=36 v=64
7498 Off ch=10 n=42 v=64
7502 Off ch=10 n=56 v=64
7540 On ch=10 n=42 v=82
7550 Off ch=10 n=42 v=64
7584 On ch=10 n=38 v=84
7584 On ch=10 n=42 v=122
7588 On ch=10 n=56 v=56
7594 Off ch=10 n=38 v=64
7594 Off ch=10 n=42 v=64
7598 Off ch=10 n=56 v=64
7632 On ch=10 n=36 v=80
7632 On ch=10 n=42 v=87
7642 Off ch=10 n=36 v=64
7642 Off ch=10 n=42 v=64
7680 On ch=10 n=42 v=117
7684 On ch=10 n=56 v=52
7690 Off ch=10 n=42 v=64
7694 Off ch=10 n=56 v=64
7728 On ch=10 n=42 v=85
7738 Off ch=10 n=42 v=64
7776 On ch=10 n=38 v=80
7776 On ch=10 n=42 v=122
7780 On ch=10 n=56 v=56
7786 Off ch=10 n=38 v=64
7786 Off ch=10 n=42 v=64
7790 Off ch=10 n=56 v=64
7824 On ch=10 n=36 v=86
7824 On ch=10 n=42 v=87
7834 Off ch=10 n=36 v=64
7834 Off ch=10 n=42 v=64
7872 On ch=10 n=36 v=86
7872 On ch=10 n=42 v=120
7876 On ch=10 n=56 v=52
7882 Off ch=10 n=36 v=64
7882 Off ch=10 n=42 v=64
7886 Off ch=10 n=56 v=64
7924 On ch=10 n=42 v=80
7934 Off ch=10 n=42 v=64
7968 On ch=10 n=38 v=85
7968 On ch=10 n=42 v=119
7972 On ch=10 n=56 v=59
7978 Off ch=10 n=38 v=64
7978 Off ch=10 n=42 v=64
7982 Off ch=10 n=56 v=64
8016 On ch=10 n=36 v=80
8016 On ch=10 n=42 v=82
8026 Off ch=10 n=36 v=64
8026 Off ch=10 n=42 v=64
8064 On ch=10 n=46 v=127
8064 On ch=10 n=36 v=82
8068 On ch=10 n=56 v=57
8074 Off ch=10 n=46 v=64
8074 Off ch=10 n=36 v=64
8078 Off ch=10 n=56 v=64
8160 On ch=10 n=38 v=86
8164 On ch=10 n=56 v=59
8170 Off ch=10 n=38 v=64
8174 Off ch=10 n=56 v=64
8208 On ch=10 n=36 v=85
8208 On ch=10 n=42 v=83
8218 Off ch=10 n=36 v=64
8218 Off ch=10 n=42 v=64
8256 On ch=10 n=36 v=86
8256 On ch=10 n=42 v=121
8260 On ch=10 n=56 v=57
8266 Off ch=10 n=36 v=64
8266 Off ch=10 n=42 v=64
8270 Off ch=10 n=56 v=64
8308 On ch=10 n=42 v=85
8318 Off ch=10 n=42 v=64
8352 On ch=10 n=38 v=86
8352 On ch=10 n=42 v=118
8356 On ch=10 n=56 v=59
8362 Off ch=10 n=38 v=64
8362 Off ch=10 n=42 v=64
8366 Off ch=10 n=56 v=64
8400 On ch=10 n=36 v=83
8400 On ch=10 n=42 v=86
8410 Off ch=10 n=36 v=64
8410 Off ch=10 n=42 v=64
8448 On ch=10 n=42 v=122
8452 On ch=10 n=56 v=54
8458 Off ch=10 n=42 v=64
8462 Off ch=10 n=56 v=64
8496 On ch=10 n=42 v=85
8506 Off ch=10 n=42 v=64
8544 On ch=10 n=38 v=84
8544 On ch=10 n=42 v=117
8548 On ch=10 n=56 v=53
8554 Off ch=10 n=38 v=64
8554 Off ch=10 n=42 v=64
8558 Off ch=10 n=56 v=64
8592 On ch=10 n=36 v=86
8592 On ch=10 n=42 v=85
8602 Off ch=10 n=36 v=64
8602 Off ch=10 n=42 v=64
8640 On ch=10 n=36 v=85
8640 On ch=10 n=42 v=118
8644 On ch=10 n=56 v=58
8650 Off ch=10 n=36 v=64
8650 Off ch=10 n=42 v=64
8654 Off ch=10 n=56 v=64
8692 On ch=10 n=42 v=81
8702 Off ch=10 n=42 v=64
8736 On ch=10 n=38 v=86
8736 On ch=10 n=42 v=119
8740 On ch=10 n=56 v=59
8746 Off ch=10 n=38 v=64
8746 Off ch=10 n=42 v=64
8750 Off ch=10 n=56 v=64
8784 On ch=10 n=36 v=86
8784 On ch=10 n=42 v=85
8794 Off ch=10 n=36 v=64
8794 Off ch=10 n=42 v=64
8832 On ch=10 n=46 v=127
8832 On ch=10 n=36 v=83
8836 On ch=10 n=56 v=54
8842 Off ch=10 n=46 v=64
8842 Off ch=10 n=36 v=64
8846 Off ch=10 n=56 v=64
8928 On ch=10 n=38 v=81
8932 On ch=10 n=56 v=53
8938 Off ch=10 n=38 v=64
8942 Off ch=10 n=56 v=64
8976 On ch=10 n=36 v=83
8976 On ch=10 n=42 v=82
8986 Off ch=10 n=36 v=64
8986 Off ch=10 n=42 v=64
9024 On ch=10 n=36 v=81
9024 On ch=10 n=42 v=121
9028 On ch=10 n=56 v=55
9034 Off ch=10 n=36 v=64
9034 Off ch=10 n=42 v=64
9038 Off ch=10 n=56 v=64
9076 On ch=10 n=42 v=83
9086 Off ch=10 n=42 v=64
9120 On ch=10 n=38 v=85
9120 On ch=10 n=42 v=121
9124 On ch=10 n=56 v=57
9130 Off ch=10 n=38 v=64
9130 Off ch=10 n=42 v=64
9134 Off ch=10 n=56 v=64
9168 On ch=10 n=36 v=84
9168 On ch=10 n=42 v=81
9178 Off ch=10 n=36 v=64
9178 Off ch=10 n=42 v=64
9216 On ch=10 n=42 v=122
9220 On ch=10 n=56 v=52
9226 Off ch=10 n=42 v=64
9230 Off ch=10 n=56 v=64
9264 On ch=10 n=42 v=83
9274 Off ch=10 n=42 v=64
9312 On ch=10 n=38 v=83
9312 On ch=10 n=42 v=119
9316 On ch=10 n=56 v=58
9322 Off ch=10 n=38 v=64
9322 Off ch=10 n=42 v=64
9326 Off ch=10 n=56 v=64
9360 On ch=10 n=36 v=85
9360 On ch=10 n=42 v=81
9370 Off ch=10 n=36 v=64
9370 Off ch=10 n=42 v=64
9408 On ch=10 n=36 v=84
9408 On ch=10 n=42 v=122
9412 On ch=10 n=56 v=59
9418 Off ch=10 n=36 v=64
9418 Off ch=10 n=42 v=64
9422 Off ch=10 n=56 v=64
9460 On ch=10 n=42 v=86
9470 Off ch=10 n=42 v=64
9504 On ch=10 n=38 v=84
9504 On ch=10 n=42 v=118
9508 On ch=10 n=56 v=56
9514 Off ch=10 n=38 v=64
9514 Off ch=10 n=42 v=64
9518 Off ch=10 n=56 v=64
9552 On ch=10 n=36 v=87
9552 On ch=10 n=42 v=85
9562 Off ch=10 n=36 v=64
9562 Off ch=10 n=42 v=64
9600 On ch=10 n=46 v=127
9600 On ch=10 n=36 v=87
9604 On ch=10 n=56 v=57
9610 Off ch=10 n=46 v=64
9610 Off ch=10 n=36 v=64
9614 Off ch=10 n=56 v=64
9696 On ch=10 n=38 v=87
9700 On ch=10 n=56 v=57
9706 Off ch=10 n=38 v=64
9710 Off ch=10 n=56 v=64
9744 On ch=10 n=36 v=80
9744 On ch=10 n=42 v=85
9754 Off ch=10 n=36 v=64
9754 Off ch=10 n=42 v=64
9792 On ch=10 n=36 v=86
9792 On ch=10 n=42 v=122
9796 On ch=10 n=56 v=57
9802 Off ch=10 n=36 v=64
9802 Off ch=10 n=42 v=64
9806 Off ch=10 n=56 v=64
9844 On ch=10 n=42 v=85
9854 Off ch=10 n=42 v=64
9888 On ch=10 n=38 v=87
9888 On ch=10 n=42 v=120
9892 On ch=10 n=56 v=52
9898 Off ch=10 n=38 v=64
9898 Off ch=10 n=42 v=64
9902 Off ch=10 n=56 v=64
9936 On ch=10 n=36 v=81
9936 On ch=10 n=42 v=81
9946 Off ch=10 n=36 v=64
9946 Off ch=10 n=42 v=64
9984 On ch=10 n=42 v=123
9988 On ch=10 n=56 v=59
9994 Off ch=10 n=42 v=64
9998 Off ch=10 n=56 v=64
10032 On ch=10 n=42 v=85
10042 Off ch=10 n=42 v=64
10080 On ch=10 n=38 v=86
10080 On ch=10 n=42 v=116
10084 On ch=10 n=56 v=53
10090 Off ch=10 n=38 v=64
10090 Off ch=10 n=42 v=64
10094 Off ch=10 n=56 v=64
10128 On ch=10 n=36 v=87
10128 On ch=10 n=42 v=83
10138 Off ch=10 n=36 v=64
10138 Off ch=10 n=42 v=64
10176 On ch=10 n=36 v=80
10176 On ch=10 n=42 v=116
10180 On ch=10 n=56 v=59
10186 Off ch=10 n=36 v=64
10186 Off ch=10 n=42 v=64
10190 Off ch=10 n=56 v=64
10228 On ch=10 n=42 v=85
10238 Off ch=10 n=42 v=64
10272 On ch=10 n=38 v=82
10272 On ch=10 n=42 v=117
10276 On ch=10 n=56 v=56
10282 Off ch=10 n=38 v=64
10282 Off ch=10 n=42 v=64
10286 Off ch=10 n=56 v=64
10320 On ch=10 n=36 v=82
10320 On ch=10 n=42 v=80
10330 Off ch=10 n=36 v=64
10330 Off ch=10 n=42 v=64
10368 On ch=10 n=46 v=127
10368 On ch=10 n=36 v=81
10372 On ch=10 n=56 v=58
10378 Off ch=10 n=46 v=64
10378 Off ch=10 n=36 v=64
10382 Off ch=10 n=56 v=64
10464 On ch=10 n=38 v=87
10468 On ch=10 n=56 v=58
10474 Off ch=10 n=38 v=64
10478 Off ch=10 n=56 v=64
10512 On ch=10 n=36 v=86
10512 On ch=10 n=42 v=84
10522 Off ch=10 n=36 v=64
10522 Off ch=10 n=42 v=64
10560 On ch=10 n=36 v=83
10560 On ch=10 n=42 v=118
10564 On ch=10 n=56 v=54
10570 Off ch=10 n=36 v=64
10570 Off ch=10 n=42 v=64
10574 Off ch=10 n=56 v=64
10612 On ch=10 n=42 v=82
10622 Off ch=10 n=42 v=64
10656 On ch=10 n=38 v=81
10656 On ch=10 n=42 v=121
10660 On ch=10 n=56 v=56
10666 Off ch=10 n=38 v=64
10666 Off ch=10 n=42 v=64
10670 Off ch=10 n=56 v=64
10704 On ch=10 n=36 v=81
10704 On ch=10 n=42 v=81
10714 Off ch=10 n=36 v=64
10714 Off ch=10 n=42 v=64
10752 On ch=10 n=42 v=120
10756 On ch=10 n=56 v=52
10762 Off ch=10 n=42 v=64
10766 Off ch=10 n=56 v=64
10800 On ch=10 n=42 v=86
10810 Off ch=10 n=42 v=64
10848 On ch=10 n=38 v=87
10848 On ch=10 n=42 v=120
10852 On ch=10 n=56 v=59
10858 Off ch=10 n=38 v=64
10858 Off ch=10 n=42 v=64
10862 Off ch=10 n=56 v=64
10896 On ch=10 n=36 v=86
10896 On ch=10 n=42 v=82
10906 Off ch=10 n=36 v=64
10906 Off ch=10 n=42 v=64
10944 On ch=10 n=36 v=81
10944 On ch=10 n=42 v=121
10948 On ch=10 n=56 v=55
10954 Off ch=10 n=36 v=64
10954 Off ch=10 n=42 v=64
10958 Off ch=10 n=56 v=64
10996 On ch=10 n=42 v=84
11006 Off ch=10 n=42 v=64
11040 On ch=10 n=38 v=83
11040 On ch=10 n=42 v=121
11044 On ch=10 n=56 v=58
11050 Off ch=10 n=38 v=64
11050 Off ch=10 n=42 v=64
11054 Off ch=10 n=56 v=64
11088 On ch=10 n=36 v=83
11088 On ch=10 n=42 v=87
11098 Off ch=10 n=36 v=64
11098 Off ch=10 n=42 v=64
11136 On ch=10 n=46 v=127
11136 On ch=10 n=36 v=83
11140 On ch=10 n=56 v=56
11146 Off ch=10 n=46 v=64
11146 Off ch=10 n=36 v=64
11150 Off ch=10 n=56 v=64
11232 On ch=10 n=38 v=84
11236 On ch=10 n=56 v=55
11242 Off ch=10 n=38 v=64
11246 Off ch=10 n=56 v=64
11280 On ch=10 n=36 v=85
11280 On ch=10 n=42 v=80
11290 Off ch=10 n=36 v=64
11290 Off ch=10 n=42 v=64
11328 On ch=10 n=36 v=86
11328 On ch=10 n=42 v=117
11332 On ch=10 n=56 v=55
11338 Off ch=10 n=36 v=64
11338 Off ch=10 n=42 v=64
11342 Off ch=10 n=56 v=64
11380 On ch=10 n=42 v=80
11390 Off ch=10 n=42 v=64
11424 On ch=10 n=38 v=82
11424 On ch=10 n=42 v=119
11428 On ch=10 n=56 v=54
11434 Off ch=10 n=38 v=64
11434 Off ch=10 n=42 v=64
11438 Off ch=10 n=56 v=64
11472 On ch=10 n=36 v=87
11472 On ch=10 n=42 v=83
11482 Off ch=10 n=36 v=64
11482 Off ch=10 n=42 v=64
11520 On ch=10 n=42 v=116
11524 On ch=10 n=56 v=58
11530 Off ch=10 n=42 v=64
11534 Off ch=10 n=56 v=64
11568 On ch=10 n=42 v=83
11578 Off ch=10 n=42 v=64
11616 On ch=10 n=38 v=87
11616 On ch=10 n=42 v=117
11620 On ch=10 n=56 v=56
11626 Off ch=10 n=38 v=64
11626 Off ch=10 n=42 v=64
11630 Off ch=10 n=56 v=64
11664 On ch=10 n=36 v=81
11664 On ch=10 n=42 v=80
11674 Off ch=10 n=36 v=64
11674 Off ch=10 n=42 v=64
11712 On ch=10 n=36 v=84
11712 On ch=10 n=42 v=116
11716 On ch=10 n=56 v=57
11722 Off ch=10 n=36 v=64
11722 Off ch=10 n=42 v=64
11726 Off ch=10 n=56 v=64
11764 On ch=10 n=42 v=82
11774 Off ch=10 n=42 v=64
11808 On ch=10 n=38 v=80
11808 On ch=10 n=42 v=123
11812 On ch=10 n=56 v=54
11818 Off ch=10 n=38 v=64
11818 Off ch=10 n=42 v=64
11822 Off ch=10 n=56 v=64
11856 On ch=10 n=36 v=82
11856 On ch=10 n=42 v=81
11866 Off ch=10 n=36 v=64
11866 Off ch=10 n=42 v=64
11904 On ch=10 n=46 v=127
11904 On ch=10 n=36 v=85
11908 On ch=10 n=56 v=54
11914 Off ch=10 n=46 v=64
11914 Off ch=10 n=36 v=64
11918 Off ch=10 n=56 v=64
12000 On ch=10 n=38 v=86
12004 On ch=10 n=56 v=54
12010 Off ch=10 n=38 v=64
12014 Off ch=10 n=56 v=64
12048 On ch=10 n=36 v=80
12048 On ch=10 n=42 v=85
12058 Off ch=10 n=36 v=64
12058 Off ch=10 n=42 v=64
12096 On ch=10 n=36 v=81
12096 On ch=10 n=42 v=120
12100 On ch=10 n=56 v=59
12106 Off ch=10 n=36 v=64
12106 Off ch=10 n=42 v=64
12110 Off ch=10 n=56 v=64
12148 On ch=10 n=42 v=80
12158 Off ch=10 n=42 v=64
12192 On ch=10 n=38 v=84
12192 On ch=10 n=42 v=122
12196 On ch=10 n=56 v=53
12202 Off ch=10 n=38 v=64
12202 Off ch=10 n=42 v=64
12206 Off ch=10 n=56 v=64
12240 On ch=10 n=36 v=81
12240 On ch=10 n=42 v=86
12250 Off ch=10 n=36 v=64
12250 Off ch=10 n=42 v=64
12288 On ch=10 n=42 v=117
12292 On ch=10 n=56 v=53
12298 Off ch=10 n=42 v=64
12302 Off ch=10 n=56 v=64
12336 On ch=10 n=42 v=85
12346 Off ch=10 n=42 v=64
12384 On ch=10 n=38 v=84
12384 On ch=10 n=42 v=117
12388 On ch=10 n=56 v=54
12394 Off ch=10 n=38 v=64
12394 Off ch=10 n=42 v=64
12398 Off ch=10 n=56 v=64
12432 On ch=10 n=36 v=83
12432 On ch=10 n=42 v=84
12442 Off ch=10 n=36 v=64
12442 Off ch=10 n=42 v=64
12480 On ch=10 n=36 v=87
12480 On ch=10 n=42 v=123
12484 On ch=10 n=56 v=52
12490 Off ch=10 n=36 v=64
12490 Off ch=10 n=42 v=64
12494 Off ch=10 n=56 v=64
12532 On ch=10 n=42 v=82
12542 Off ch=10 n=42 v=64
12576 On ch=10 n=38 v=86
12576 On ch=10 n=42 v=122
12580 On ch=10 n=56 v=53
12586 Off ch=10 n=38 v=64
12586 Off ch=10 n=42 v=64
12590 Off ch=10 n=56 v=64
12624 On ch=10 n=36 v=81
12624 On ch=10 n=42 v=86
12634 Off ch=10 n=36 v=64
12634 Off ch=10 n=42 v=64
12672 On ch=10 n=46 v=127
12672 On ch=10 n=36 v=87
12682 Off ch=10 n=46 v=64
12682 Off ch=10 n=36 v=64
12768 On ch=10 n=38 v=82
12778 Off ch=10 n=38 v=64
12816 On ch=10 n=36 v=86
12816 On ch=10 n=42 v=86
12826 Off ch=10 n=36 v=64
12826 Off ch=10 n=42 v=64
12864 On ch=10 n=36 v=87
12864 On ch=10 n=42 v=120
12874 Off ch=10 n=36 v=64
12874 Off ch=10 n=42 v=64
12916 On ch=10 n=42 v=82
12926 Off ch=10 n=42 v=64
12960 On ch=10 n=38 v=80
12960 On ch=10 n=42 v=122
12970 Off ch=10 n=38 v=64
12970 Off ch=10 n=42 v=64
13008 On ch=10 n=36 v=87
13008 On ch=10 n=42 v=85
13018 Off ch=10 n=36 v=64
13018 Off ch=10 n=42 v=64
13056 On ch=10 n=42 v=121
13066 Off ch=10 n=42 v=64
13104 On ch=10 n=42 v=82
13114 Off ch=10 n=42 v=64
13152 On ch=10 n=38 v=83
13152 On ch=10 n=42 v=123
13162 Off ch=10 n=38 v=64
13162 Off ch=10 n=42 v=64
13200 On ch=10 n=36 v=84
13200 On ch=10 n=42 v=87
13210 Off ch=10 n=36 v=64
13210 Off ch=10 n=42 v=64
13248 On ch=10 n=36 v=87
13248 On ch=10 n=42 v=119
13258 Off ch=10 n=36 v=64
13258 Off ch=10 n=42 v=64
13300 On ch=10 n=42 v=80
13310 Off ch=10 n=42 v=64
13344 On ch=10 n=38 v=86
13344 On ch=10 n=42 v=119
13348 On ch=10 n=64 v=80
13354 Off ch=10 n=38 v=64
13354 Off ch=10 n=42 v=64
13358 Off ch=10 n=64 v=64
13392 On ch=10 n=64 v=85
13392 On ch=10 n=36 v=81
13392 On ch=10 n=42 v=87
13402 Off ch=10 n=64 v=64
13402 Off ch=10 n=36 v=64
13402 Off ch=10 n=42 v=64
13440 On ch=10 n=46 v=127
13440 On ch=10 n=36 v=85
13450 Off ch=10 n=46 v=64
13450 Off ch=10 n=36 v=64
13536 On ch=10 n=38 v=87
13546 Off ch=10 n=38 v=64
13584 On ch=10 n=36 v=83
13584 On ch=10 n=42 v=87
13594 Off ch=10 n=36 v=64
13594 Off ch=10 n=42 v=64
13632 On ch=10 n=36 v=82
13632 On ch=10 n=42 v=117
13642 Off ch=10 n=36 v=64
13642 Off ch=10 n=42 v=64
13684 On ch=10 n=42 v=82
13694 Off ch=10 n=42 v=64
13728 On ch=10 n=38 v=80
13728 On ch=10 n=42 v=123
13738 Off ch=10 n=38 v=64
13738 Off ch=10 n=42 v=64
13776 On ch=10 n=36 v=82
13776 On ch=10 n=42 v=81
13786 Off ch=10 n=36 v=64
13786 Off ch=10 n=42 v=64
13824 On ch=10 n=42 v=123
13834 Off ch=10 n=42 v=64
13872 On ch=10 n=42 v=81
13882 Off ch=10 n=42 v=64
13920 On ch=10 n=38 v=80
13920 On ch=10 n=42 v=119
13930 Off ch=10 n=38 v=64
13930 Off ch=10 n=42 v=64
13968 On ch=10 n=36 v=83
13968 On ch=10 n=42 v=83
13978 Off ch=10 n=36 v=64
13978 Off ch=10 n=42 v=64
14016 On ch=10 n=36 v=82
14016 On ch=10 n=42 v=120
14026 Off ch=10 n=36 v=64
14026 Off ch=10 n=42 v=64
14068 On ch=10 n=42 v=84
14078 Off ch=10 n=42 v=64
14112 On ch=10 n=38 v=80
14112 On ch=10 n=42 v=121
14116 On ch=10 n=64 v=82
14122 Off ch=10 n=38 v=64
14122 Off ch=10 n=42 v=64
14126 Off ch=10 n=64 v=64
14160 On ch=10 n=64 v=83
14160 On ch=10 n=36 v=81
14160 On ch=10 n=42 v=84
14170 Off ch=10 n=64 v=64
14170 Off ch=10 n=36 v=64
14170 Off ch=10 n=42 v=64
14208 On ch=10 n=46 v=127
14208 On ch=10 n=36 v=80
14218 Off ch=10 n=46 v=64
14218 Off ch=10 n=36 v=64
14304 On ch=10 n=38 v=84
14314 Off ch=10 n=38 v=64
14352 On ch=10 n=36 v=85
14352 On ch=10 n=42 v=81
14362 Off ch=10 n=36 v=64
14362 Off ch=10 n=42 v=64
14400 On ch=10 n=36 v=82
14400 On ch=10 n=42 v=121
14410 Off ch=10 n=36 v=64
14410 Off ch=10 n=42 v=64
14452 On ch=10 n=42 v=83
14462 Off ch=10 n=42 v=64
14496 On ch=10 n=38 v=85
14496 On ch=10 n=42 v=116
14506 Off ch=10 n=38 v=64
14506 Off ch=10 n=42 v=64
14544 On ch=10 n=36 v=85
14544 On ch=10 n=42 v=83
14554 Off ch=10 n=36 v=64
14554 Off ch=10 n=42 v=64
14592 On ch=10 n=42 v=121
14602 Off ch=10 n=42 v=64
14640 On ch=10 n=42 v=80
14650 Off ch=10 n=42 v=64
14688 On ch=10 n=38 v=84
14688 On ch=10 n=42 v=116
14698 Off ch=10 n=38 v=64
14698 Off ch=10 n=42 v=64
14736 On ch=10 n=36 v=87
14736 On ch=10 n=42 v=81
14746 Off ch=10 n=36 v=64
14746 Off ch=10 n=42 v=64
14784 On ch=10 n=36 v=83
14784 On ch=10 n=42 v=118
14794 Off ch=10 n=36 v=64
14794 Off ch=10 n=42 v=64
14836 On ch=10 n=42 v=85
14846 Off ch=10 n=42 v=64
14880 On ch=10 n=38 v=87
14880 On ch=10 n=42 v=122
14884 On ch=10 n=64 v=86
14890 Off ch=10 n=38 v=64
14890 Off ch=10 n=42 v=64
14894 Off ch=10 n=64 v=64
14928 On ch=10 n=64 v=84
14928 On ch=10 n=36 v=87
14928 On ch=10 n=42 v=85
14938 Off ch=10 n=64 v=64
14938 Off ch=10 n=36 v=64
14938 Off ch=10 n=42 v=64
14976 On ch=10 n=46 v=127
14976 On ch=10 n=36 v=87
14986 Off ch=10 n=46 v=64
14986 Off ch=10 n=36 v=64
15072 On ch=10 n=38 v=84
15082 Off ch=10 n=38 v=64
15120 On ch=10 n=36 v=87
15120 On ch=10 n=42 v=80
15130 Off ch=10 n=36 v=64
15130 Off ch=10 n=42 v=64
15168 On ch=10 n=36 v=80
15168 On ch=10 n=42 v=122
15178 Off ch=10 n=36 v=64
15178 Off ch=10 n=42 v=64
15220 On ch=10 n=42 v=86
15230 Off ch=10 n=42 v=64
15264 On ch=10 n=38 v=80
15264 On ch=10 n=42 v=121
15274 Off ch=10 n=38 v=64
15274 Off ch=10 n=42 v=64
15312 On ch=10 n=49 v=87
15312 On ch=10 n=36 v=83
15322 Off ch=10 n=49 v=64
15322 Off ch=10 n=36 v=64
15456 On ch=10 n=37 v=83
15466 Off ch=10 n=37 v=64
15648 On ch=10 n=37 v=83
15658 Off ch=10 n=37 v=64
15840 On ch=10 n=37 v=82
15850 Off ch=10 n=37 v=64
16128 On ch=10 n=46 v=127
16128 On ch=10 n=36 v=86
16132 On ch=10 n=56 v=54
16138 Off ch=10 n=46 v=64
16138 Off ch=10 n=36 v=64
16142 Off ch=10 n=56 v=64
16224 On ch=10 n=38 v=80
16228 On ch=10 n=56 v=56
16234 Off ch=10 n=38 v=64
16238 Off ch=10 n=56 v=64
16272 On ch=10 n=36 v=80
16272 On ch=10 n=42 v=85
16282 Off ch=10 n=36 v=64
16282 Off ch=10 n=42 v=64
16320 On ch=10 n=36 v=83
16320 On ch=10 n=42 v=119
16324 On ch=10 n=56 v=55
16330 Off ch=10 n=36 v=64
16330 Off ch=10 n=42 v=64
16334 Off ch=10 n=56 v=64
16372 On ch=10 n=42 v=84
16382 Off ch=10 n=42 v=64
16416 On ch=10 n=38 v=84
16416 On ch=10 n=42 v=120
16420 On ch=10 n=56 v=52
16426 Off ch=10 n=38 v=64
16426 Off ch=10 n=42 v=64
16430 Off ch=10 n=56 v=64
16464 On ch=10 n=36 v=85
16464 On ch=10 n=42 v=86
16474 Off ch=10 n=36 v=64
16474 Off ch=10 n=42 v=64
16512 On ch=10 n=42 v=116
16516 On ch=10 n=56 v=59
16522 Off ch=10 n=42 v=64
16526 Off ch=10 n=56 v=64
16560 On ch=10 n=42 v=83
16570 Off ch=10 n=42 v=64
16608 On ch=10 n=38 v=82
16608 On ch=10 n=42 v=117
16612 On ch=10 n=56 v=58
16618 Off ch=10 n=38 v=64
16618 Off ch=10 n=42 v=64
16622 Off ch=10 n=56 v=64
16656 On ch=10 n=36 v=81
16656 On ch=10 n=42 v=81
16666 Off ch=10 n=36 v=64
16666 Off ch=10 n=42 v=64
16704 On ch=10 n=36 v=83
16704 On ch=10 n=42 v=122
16708 On ch=10 n=56 v=58
16714 Off ch=10 n=36 v=64
16714 Off ch=10 n=42 v=64
16718 Off ch=10 n=56 v=64
16756 On ch=10 n=42 v=83
16766 Off ch=10 n=42 v=64
16800 On ch=10 n=38 v=82
16800 On ch=10 n=42 v=118
16804 On ch=10 n=56 v=54
16810 Off ch=10 n=38 v=64
16810 Off ch=10 n=42 v=64
16814 Off ch=10 n=56 v=64
16848 On ch=10 n=36 v=84
16848 On ch=10 n=42 v=87
16858 Off ch=10 n=36 v=64
16858 Off ch=10 n=42 v=64
16896 On ch=10 n=46 v=127
16896 On ch=10 n=36 v=83
16900 On ch=10 n=56 v=56
16906 Off ch=10 n=46 v=64
16906 Off ch=10 n=36 v=64
16910 Off ch=10 n=56 v=64
16992 On ch=10 n=38 v=86
16996 On ch=10 n=56 v=57
17002 Off ch=10 n=38 v=64
17006 Off ch=10 n=56 v=64
17040 On ch=10 n=36 v=83
17040 On ch=10 n=42 v=81
17050 Off ch=10 n=36 v=64
17050 Off ch=10 n=42 v=64
17088 On ch=10 n=36 v=83
17088 On ch=10 n=42 v=121
17092 On ch=10 n=56 v=57
17098 Off ch=10 n=36 v=64
17098 Off ch=10 n=42 v=64
17102 Off ch=10 n=56 v=64
17140 On ch=10 n=42 v=80
17150 Off ch=10 n=42 v=64
17184 On ch=10 n=38 v=84
17184 On ch=10 n=42 v=117
17188 On ch=10 n=56 v=58
17194 Off ch=10 n=38 v=64
17194 Off ch=10 n=42 v=64
17198 Off ch=10 n=56 v=64
17232 On ch=10 n=36 v=82
17232 On ch=10 n=42 v=81
17242 Off ch=10 n=36 v=64
17242 Off ch=10 n=42 v=64
17280 On ch=10 n=42 v=117
17284 On ch=10 n=56 v=52
17290 Off ch=10 n=42 v=64
17294 Off ch=10 n=56 v=64
17328 On ch=10 n=42 v=83
17338 Off ch=10 n=42 v=64
17376 On ch=10 n=38 v=81
17376 On ch=10 n=42 v=120
17380 On ch=10 n=56 v=58
17386 Off ch=10 n=38 v=64
17386 Off ch=10 n=42 v=64
17390 Off ch=10 n=56 v=64
17424 On ch=10 n=36 v=86
17424 On ch=10 n=42 v=84
17434 Off ch=10 n=36 v=64
17434 Off ch=10 n=42 v=64
17472 On ch=10 n=36 v=81
17472 On ch=10 n=42 v=118
17476 On ch=10 n=56 v=59
17482 Off ch=10 n=36 v=64
17482 Off ch=10 n=42 v=64
17486 Off ch=10 n=56 v=64
17524 On ch=10 n=42 v=86
17534 Off ch=10 n=42 v=64
17568 On ch=10 n=38 v=82
17568 On ch=10 n=42 v=120
17572 On ch=10 n=56 v=57
17578 Off ch=10 n=38 v=64
17578 Off ch=10 n=42 v=64
17582 Off ch=10 n=56 v=64
17616 On ch=10 n=36 v=85
17616 On ch=10 n=42 v=87
17626 Off ch=10 n=36 v=64
17626 Off ch=10 n=42 v=64
17664 On ch=10 n=46 v=127
17664 On ch=10 n=36 v=85
17668 On ch=10 n=56 v=53
17674 Off ch=10 n=46 v=64
17674 Off ch=10 n=36 v=64
17678 Off ch=10 n=56 v=64
17760 On ch=10 n=38 v=80
17764 On ch=10 n=56 v=52
17770 Off ch=10 n=38 v=64
17774 Off ch=10 n=56 v=64
17808 On ch=10 n=36 v=84
17808 On ch=10 n=42 v=85
17818 Off ch=10 n=36 v=64
17818 Off ch=10 n=42 v=64
17856 On ch=10 n=36 v=82
17856 On ch=10 n=42 v=118
17860 On ch=10 n=56 v=56
17866 Off ch=10 n=36 v=64
17866 Off ch=10 n=42 v=64
17870 Off ch=10 n=56 v=64
17908 On ch=10 n=42 v=82
17918 Off ch=10 n=42 v=64
17952 On ch=10 n=38 v=86
17952 On ch=10 n=42 v=121
17956 On ch=10 n=56 v=52
17962 Off ch=10 n=38 v=64
17962 Off ch=10 n=42 v=64
17966 Off ch=10 n=56 v=64
18000 On ch=10 n=36 v=83
18000 On ch=10 n=42 v=83
18010 Off ch=10 n=36 v=64
18010 Off ch=10 n=42 v=64
18048 On ch=10 n=42 v=120
18052 On ch=10 n=56 v=59
18058 Off ch=10 n=42 v=64
18062 Off ch=10 n=56 v=64
18096 On ch=10 n=42 v=84
18106 Off ch=10 n=42 v=64
18144 On ch=10 n=38 v=83
18144 On ch=10 n=42 v=123
18148 On ch=10 n=56 v=58
18154 Off ch=10 n=38 v=64
18154 Off ch=10 n=42 v=64
18158 Off ch=10 n=56 v=64
18192 On ch=10 n=36 v=87
18192 On ch=10 n=42 v=85
18202 Off ch=10 n=36 v=64
18202 Off ch=10 n=42 v=64
18240 On ch=10 n=36 v=81
18240 On ch=10 n=42 v=118
18244 On ch=10 n=56 v=58
18250 Off ch=10 n=36 v=64
18250 Off ch=10 n=42 v=64
18254 Off ch=10 n=56 v=64
18292 On ch=10 n=42 v=87
18302 Off ch=10 n=42 v=64
18336 On ch=10 n=38 v=85
18336 On ch=10 n=42 v=118
18340 On ch=10 n=56 v=54
18346 Off ch=10 n=38 v=64
18346 Off ch=10 n=42 v=64
18350 Off ch=10 n=56 v=64
18384 On ch=10 n=36 v=87
18384 On ch=10 n=42 v=85
18394 Off ch=10 n=36 v=64
18394 Off ch=10 n=42 v=64
18432 On ch=10 n=46 v=127
18432 On ch=10 n=36 v=87
18436 On ch=10 n=56 v=59
18442 Off ch=10 n=46 v=64
18442 Off ch=10 n=36 v=64
18446 Off ch=10 n=56 v=64
18528 On ch=10 n=38 v=85
18532 On ch=10 n=56 v=55
18538 Off ch=10 n=38 v=64
18542 Off ch=10 n=56 v=64
18576 On ch=10 n=36 v=80
18576 On ch=10 n=42 v=84
18586 Off ch=10 n=36 v=64
18586 Off ch=10 n=42 v=64
18624 On ch=10 n=36 v=81
18624 On ch=10 n=42 v=121
18628 On ch=10 n=56 v=53
18634 Off ch=10 n=36 v=64
18634 Off ch=10 n=42 v=64
18638 Off ch=10 n=56 v=64
18676 On ch=10 n=42 v=84
18686 Off ch=10 n=42 v=64
18720 On ch=10 n=38 v=85
18720 On ch=10 n=42 v=120
18724 On ch=10 n=56 v=58
18730 Off ch=10 n=38 v=64
18730 Off ch=10 n=42 v=64
18734 Off ch=10 n=56 v=64
18768 On ch=10 n=36 v=86
18768 On ch=10 n=42 v=83
18778 Off ch=10 n=36 v=64
18778 Off ch=10 n=42 v=64
18816 On ch=10 n=42 v=119
18820 On ch=10 n=56 v=52
18826 Off ch=10 n=42 v=64
18830 Off ch=10 n=56 v=64
18864 On ch=10 n=42 v=86
18874 Off ch=10 n=42 v=64
18912 On ch=10 n=38 v=84
18912 On ch=10 n=42 v=121
18916 On ch=10 n=56 v=55
18922 Off ch=10 n=38 v=64
18922 Off ch=10 n=42 v=64
18926 Off ch=10 n=56 v=64
18960 On ch=10 n=36 v=85
18960 On ch=10 n=42 v=80
18970 Off ch=10 n=36 v=64
18970 Off ch=10 n=42 v=64
19008 On ch=10 n=36 v=81
19008 On ch=10 n=42 v=116
19012 On ch=10 n=56 v=56
19018 Off ch=10 n=36 v=64
19018 Off ch=10 n=42 v=64
19022 Off ch=10 n=56 v=64
19060 On ch=10 n=42 v=81
19070 Off ch=10 n=42 v=64
19104 On ch=10 n=38 v=87
19104 On ch=10 n=42 v=119
19108 On ch=10 n=56 v=53
19114 Off ch=10 n=38 v=64
19114 Off ch=10 n=42 v=64
19118 Off ch=10 n=56 v=64
19152 On ch=10 n=36 v=81
19152 On ch=10 n=42 v=81
19162 Off ch=10 n=36 v=64
19162 Off ch=10 n=42 v=64
19200 On ch=10 n=46 v=127
19200 On ch=10 n=36 v=86
19204 On ch=10 n=56 v=56
19210 Off ch=10 n=46 v=64
19210 Off ch=10 n=36 v=64
19214 Off ch=10 n=56 v=64
19296 On ch=10 n=38 v=82
19300 On ch=10 n=56 v=55
19306 Off ch=10 n=38 v=64
19310 Off ch=10 n=56 v=64
19344 On ch=10 n=36 v=84
19344 On ch=10 n=42 v=84
19354 Off ch=10 n=36 v=64
19354 Off ch=10 n=42 v=64
19392 On ch=10 n=36 v=83
19392 On ch=10 n=42 v=117
19396 On ch=10 n=56 v=56
19402 Off ch=10 n=36 v=64
19402 Off ch=10 n=42 v=64
19406 Off ch=10 n=56 v=64
19444 On ch=10 n=42 v=86
19454 Off ch=10 n=42 v=64
19488 On ch=10 n=38 v=86
19488 On ch=10 n=42 v=123
19492 On ch=10 n=56 v=56
19498 Off ch=10 n=38 v=64
19498 Off ch=10 n=42 v=64
19502 Off ch=10 n=56 v=64
19536 On ch=10 n=36 v=81
19536 On ch=10 n=42 v=85
19546 Off ch=10 n=36 v=64
19546 Off ch=10 n=42 v=64
19584 On ch=10 n=42 v=121
19588 On ch=10 n=56 v=53
19594 Off ch=10 n=42 v=64
19598 Off ch=10 n=56 v=64
19632 On ch=10 n=42 v=85
19642 Off ch=10 n=42 v=64
19680 On ch=10 n=38 v=84
19680 On ch=10 n=42 v=123
19684 On ch=10 n=56 v=59
19690 Off ch=10 n=38 v=64
19690 Off ch=10 n=42 v=64
19694 Off ch=10 n=56 v=64
19728 On ch=10 n=36 v=82
19728 On ch=10 n=42 v=86
19738 Off ch=10 n=36 v=64
19738 Off ch=10 n=42 v=64
19776 On ch=10 n=36 v=81
19776 On ch=10 n=42 v=118
19780 On ch=10 n=56 v=59
19786 Off ch=10 n=36 v=64
19786 Off ch=10 n=42 v=64
19790 Off ch=10 n=56 v=64
19828 On ch=10 n=42 v=86
19838 Off ch=10 n=42 v=64
19872 On ch=10 n=38 v=81
19872 On ch=10 n=42 v=120
19876 On ch=10 n=56 v=54
19882 Off ch=10 n=38 v=64
19882 Off ch=10 n=42 v=64
19886 Off ch=10 n=56 v=64
19920 On ch=10 n=36 v=87
19920 On ch=10 n=42 v=86
19930 Off ch=10 n=36 v=64
19930 Off ch=10 n=42 v=64
19968 On ch=10 n=46 v=127
19968 On ch=10 n=36 v=84
19972 On ch=10 n=56 v=53
19978 Off ch=10 n=46 v=64
19978 Off ch=10 n=36 v=64
19982 Off ch=10 n=56 v=64
20064 On ch=10 n=38 v=84
20068 On ch=10 n=56 v=52
20074 Off ch=10 n=38 v=64
20078 Off ch=10 n=56 v=64
20112 On ch=10 n=36 v=81
20112 On ch=10 n=42 v=87
20122 Off ch=10 n=36 v=64
20122 Off ch=10 n=42 v=64
20160 On ch=10 n=36 v=82
20160 On ch=10 n=42 v=118
20164 On ch=10 n=56 v=56
20170 Off ch=10 n=36 v=64
20170 Off ch=10 n=42 v=64
20174 Off ch=10 n=56 v=64
20212 On ch=10 n=42 v=84
20222 Off ch=10 n=42 v=64
20256 On ch=10 n=38 v=83
20256 On ch=10 n=42 v=120
20260 On ch=10 n=56 v=53
20266 Off ch=10 n=38 v=64
20266 Off ch=10 n=42 v=64
20270 Off ch=10 n=56 v=64
20304 On ch=10 n=36 v=87
20304 On ch=10 n=42 v=83
20314 Off ch=10 n=36 v=64
20314 Off ch=10 n=42 v=64
20352 On ch=10 n=42 v=120
20356 On ch=10 n=56 v=57
20362 Off ch=10 n=42 v=64
20366 Off ch=10 n=56 v=64
20400 On ch=10 n=42 v=80
20410 Off ch=10 n=42 v=64
20448 On ch=10 n=38 v=80
20448 On ch=10 n=42 v=122
20452 On ch=10 n=56 v=54
20458 Off ch=10 n=38 v=64
20458 Off ch=10 n=42 v=64
20462 Off ch=10 n=56 v=64
20496 On ch=10 n=36 v=82
20496 On ch=10 n=42 v=85
20506 Off ch=10 n=36 v=64
20506 Off ch=10 n=42 v=64
20544 On ch=10 n=36 v=87
20544 On ch=10 n=42 v=117
20548 On ch=10 n=56 v=52
20554 Off ch=10 n=36 v=64
20554 Off ch=10 n=42 v=64
20558 Off ch=10 n=56 v=64
20596 On ch=10 n=42 v=82
20606 Off ch=10 n=42 v=64
20640 On ch=10 n=38 v=86
20640 On ch=10 n=42 v=119
20644 On ch=10 n=56 v=53
20650 Off ch=10 n=38 v=64
20650 Off ch=10 n=42 v=64
20654 Off ch=10 n=56 v=64
20688 On ch=10 n=36 v=84
20688 On ch=10 n=42 v=83
20698 Off ch=10 n=36 v=64
20698 Off ch=10 n=42 v=64
20736 On ch=10 n=46 v=127
20736 On ch=10 n=36 v=85
20740 On ch=10 n=56 v=59
20746 Off ch=10 n=46 v=64
20746 Off ch=10 n=36 v=64
20750 Off ch=10 n=56 v=64
20832 On ch=10 n=38 v=86
20836 On ch=10 n=56 v=59
20842 Off ch=10 n=38 v=64
20846 Off ch=10 n=56 v=64
20880 On ch=10 n=36 v=82
20880 On ch=10 n=42 v=80
20890 Off ch=10 n=36 v=64
20890 Off ch=10 n=42 v=64
20928 On ch=10 n=36 v=87
20928 On ch=10 n=42 v=123
20932 On ch=10 n=56 v=53
20938 Off ch=10 n=36 v=64
20938 Off ch=10 n=42 v=64
20942 Off ch=10 n=56 v=64
20980 On ch=10 n=42 v=85
20990 Off ch=10 n=42 v=64
21024 On ch=10 n=38 v=87
21024 On ch=10 n=42 v=120
21028 On ch=10 n=56 v=53
21034 Off ch=10 n=38 v=64
21034 Off ch=10 n=42 v=64
21038 Off ch=10 n=56 v=64
21072 On ch=10 n=36 v=83
21072 On ch=10 n=42 v=84
21082 Off ch=10 n=36 v=64
21082 Off ch=10 n=42 v=64
21120 On ch=10 n=42 v=120
21124 On ch=10 n=56 v=59
21130 Off ch=10 n=42 v=64
21134 Off ch=10 n=56 v=64
21168 On ch=10 n=42 v=81
21178 Off ch=10 n=42 v=64
21216 On ch=10 n=38 v=82
21216 On ch=10 n=42 v=118
21220 On ch=10 n=56 v=53
21226 Off ch=10 n=38 v=64
21226 Off ch=10 n=42 v=64
21230 Off ch=10 n=56 v=64
21264 On ch=10 n=36 v=84
21264 On ch=10 n=42 v=87
21274 Off ch=10 n=36 v=64
21274 Off ch=10 n=42 v=64
21312 On ch=10 n=36 v=84
21312 On ch=10 n=42 v=123
21316 On ch=10 n=56 v=55
21322 Off ch=10 n=36 v=64
21322 Off ch=10 n=42 v=64
21326 Off ch=10 n=56 v=64
21364 On ch=10 n=42 v=81
21374 Off ch=10 n=42 v=64
21408 On ch=10 n=38 v=83
21408 On ch=10 n=42 v=123
21412 On ch=10 n=56 v=53
21418 Off ch=10 n=38 v=64
21418 Off ch=10 n=42 v=64
21422 Off ch=10 n=56 v=64
21456 On ch=10 n=36 v=86
21456 On ch=10 n=42 v=83
21466 Off ch=10 n=36 v=64
21466 Off ch=10 n=42 v=64
21504 On ch=10 n=46 v=127
21504 On ch=10 n=36 v=83
21508 On ch=10 n=56 v=53
21514 Off ch=10 n=46 v=64
21514 Off ch=10 n=36 v=64
21518 Off ch=10 n=56 v=64
21600 On ch=10 n=38 v=85
21604 On ch=10 n=56 v=57
21610 Off ch=10 n=38 v=64
21614 Off ch=10 n=56 v=64
21648 On ch=10 n=36 v=83
21648 On ch=10 n=42 v=80
21658 Off ch=10 n=36 v=64
21658 Off ch=10 n=42 v=64
21696 On ch=10 n=36 v=85
21696 On ch=10 n=42 v=117
21700 On ch=10 n=56 v=52
21706 Off ch=10 n=36 v=64
21706 Off ch=10 n=42 v=64
21710 Off ch=10 n=56 v=64
21748 On ch=10 n=42 v=84
21758 Off ch=10 n=42 v=64
21792 On ch=10 n=38 v=81
21792 On ch=10 n=42 v=116
21796 On ch=10 n=56 v=55
21802 Off ch=10 n=38 v=64
21802 Off ch=10 n=42 v=64
21806 Off ch=10 n=56 v=64
21840 On ch=10 n=36 v=84
21840 On ch=10 n=42 v=86
21850 Off ch=10 n=36 v=64
21850 Off ch=10 n=42 v=64
21888 On ch=10 n=42 v=123
21892 On ch=10 n=56 v=52
21898 Off ch=10 n=42 v=64
21902 Off ch=10 n=56 v=64
21936 On ch=10 n=42 v=82
21946 Off ch=10 n=42 v=64
21984 On ch=10 n=38 v=85
21984 On ch=10 n=42 v=119
21988 On ch=10 n=56 v=58
21994 Off ch=10 n=38 v=64
21994 Off ch=10 n=42 v=64
21998 Off ch=10 n=56 v=64
22032 On ch=10 n=36 v=81
22032 On ch=10 n=42 v=81
22042 Off ch=10 n=36 v=64
22042 Off ch=10 n=42 v=64
22080 On ch=10 n=36 v=83
22080 On ch=10 n=42 v=116
22084 On ch=10 n=56 v=58
22090 Off ch=10 n=36 v=64
22090 Off ch=10 n=42 v=64
22094 Off ch=10 n=56 v=64
22132 On ch=10 n=42 v=82
22142 Off ch=10 n=42 v=64
22176 On ch=10 n=38 v=83
22176 On ch=10 n=42 v=118
22180 On ch=10 n=56 v=54
22186 Off ch=10 n=38 v=64
22186 Off ch=10 n=42 v=64
22190 Off ch=10 n=56 v=64
22224 On ch=10 n=36 v=81
22224 On ch=10 n=42 v=87
22234 Off ch=10 n=36 v=64
22234 Off ch=10 n=42 v=64
22272 On ch=10 n=46 v=127
22272 On ch=10 n=36 v=87
22282 Off ch=10 n=46 v=64
22282 Off ch=10 n=36 v=64
22368 On ch=10 n=38 v=83
22378 Off ch=10 n=38 v=64
22416 On ch=10 n=36 v=87
22416 On ch=10 n=42 v=86
22426 Off ch=10 n=36 v=64
22426 Off ch=10 n=42 v=64
22464 On ch=10 n=36 v=81
22464 On ch=10 n=42 v=123
22474 Off ch=10 n=36 v=64
22474 Off ch=10 n=42 v=64
22516 On ch=10 n=42 v=80
22526 Off ch=10 n=42 v=64
22560 On ch=10 n=38 v=85
22560 On ch=10 n=42 v=116
22570 Off ch=10 n=38 v=64
22570 Off ch=10 n=42 v=64
22608 On ch=10 n=36 v=85
22608 On ch=10 n=42 v=84
22618 Off ch=10 n=36 v=64
22618 Off ch=10 n=42 v=64
22656 On ch=10 n=42 v=116
22666 Off ch=10 n=42 v=64
22704 On ch=10 n=42 v=83
22714 Off ch=10 n=42 v=64
22752 On ch=10 n=38 v=84
22752 On ch=10 n=42 v=121
22762 Off ch=10 n=38 v=64
22762 Off ch=10 n=42 v=64
22800 On ch=10 n=36 v=80
22800 On ch=10 n=42 v=84
22810 Off ch=10 n=36 v=64
22810 Off ch=10 n=42 v=64
22848 On ch=10 n=36 v=81
22848 On ch=10 n=42 v=116
22858 Off ch=10 n=36 v=64
22858 Off ch=10 n=42 v=64
22900 On ch=10 n=42 v=84
22910 Off ch=10 n=42 v=64
22944 On ch=10 n=38 v=86
22944 On ch=10 n=42 v=118
22948 On ch=10 n=64 v=83
22954 Off ch=10 n=38 v=64
22954 Off ch=10 n=42 v=64
22958 Off ch=10 n=64 v=64
22992 On ch=10 n=64 v=80
22992 On ch=10 n=36 v=80
22992 On ch=10 n=42 v=87
23002 Off ch=10 n=64 v=64
23002 Off ch=10 n=36 v=64
23002 Off ch=10 n=42 v=64
23040 On ch=10 n=46 v=127
23040 On ch=10 n=36 v=83
23050 Off ch=10 n=46 v=64
23050 Off ch=10 n=36 v=64
23136 On ch=10 n=38 v=84
23146 Off ch=10 n=38 v=64
23184 On ch=10 n=36 v=81
23184 On ch=10 n=42 v=82
23194 Off ch=10 n=36 v=64
23194 Off ch=10 n=42 v=64
23232 On ch=10 n=36 v=87
23232 On ch=10 n=42 v=119
23242 Off ch=10 n=36 v=64
23242 Off ch=10 n=42 v=64
23284 On ch=10 n=42 v=80
23294 Off ch=10 n=42 v=64
23328 On ch=10 n=38 v=80
23328 On ch=10 n=42 v=121
23338 Off ch=10 n=38 v=64
23338 Off ch=10 n=42 v=64
23376 On ch=10 n=36 v=84
23376 On ch=10 n=42 v=87
23386 Off ch=10 n=36 v=64
23386 Off ch=10 n=42 v=64
23424 On ch=10 n=42 v=123
23434 Off ch=10 n=42 v=64
23472 On ch=10 n=42 v=84
23482 Off ch=10 n=42 v=64
23520 On ch=10 n=38 v=84
23520 On ch=10 n=42 v=122
23530 Off ch=10 n=38 v=64
23530 Off ch=10 n=42 v=64
23568 On ch=10 n=36 v=84
23568 On ch=10 n=42 v=83
23578 Off ch=10 n=36 v=64
23578 Off ch=10 n=42 v=64
23616 On ch=10 n=36 v=84
23616 On ch=10 n=42 v=117
23626 Off ch=10 n=36 v=64
23626 Off ch=10 n=42 v=64
23668 On ch=10 n=42 v=84
23678 Off ch=10 n=42 v=64
23712 On ch=10 n=38 v=80
23712 On ch=10 n=42 v=122
23716 On ch=10 n=64 v=85
23722 Off ch=10 n=38 v=64
23722 Off ch=10 n=42 v=64
23726 Off ch=10 n=64 v=64
23760 On ch=10 n=64 v=87
23760 On ch=10 n=36 v=87
23760 On ch=10 n=42 v=81
23770 Off ch=10 n=64 v=64
23770 Off ch=10 n=36 v=64
23770 Off ch=10 n=42 v=64
23808 On ch=10 n=46 v=127
23808 On ch=10 n=36 v=81
23818 Off ch=10 n=46 v=64
23818 Off ch=10 n=36 v=64
23904 On ch=10 n=38 v=86
23914 Off ch=10 n=38 v=64
23952 On ch=10 n=36 v=81
23952 On ch=10 n=42 v=83
23962 Off ch=10 n=36 v=64
23962 Off ch=10 n=42 v=64
24000 On ch=10 n=36 v=87
24000 On ch=10 n=42 v=123
24010 Off ch=10 n=36 v=64
24010 Off ch=10 n=42 v=64
24052 On ch=10 n=42 v=86
24062 Off ch=10 n=42 v=64
24096 On ch=10 n=38 v=87
24096 On ch=10 n=42 v=117
24106 Off ch=10 n=38 v=64
24106 Off ch=10 n=42 v=64
24144 On ch=10 n=36 v=87
24144 On ch=10 n=42 v=86
24154 Off ch=10 n=36 v=64
24154 Off ch=10 n=42 v=64
24192 On ch=10 n=42 v=116
24202 Off ch=10 n=42 v=64
24240 On ch=10 n=42 v=81
24250 Off ch=10 n=42 v=64
24288 On ch=10 n=38 v=82
24288 On ch=10 n=42 v=120
24298 Off ch=10 n=38 v=64
24298 Off ch=10 n=42 v=64
24336 On ch=10 n=36 v=87
24336 On ch=10 n=42 v=85
24346 Off ch=10 n=36 v=64
24346 Off ch=10 n=42 v=64
24384 On ch=10 n=36 v=85
24384 On ch=10 n=42 v=118
24394 Off ch=10 n=36 v=64
24394 Off ch=10 n=42 v=64
24436 On ch=10 n=42 v=83
24446 Off ch=10 n=42 v=64
24480 On ch=10 n=38 v=80
24480 On ch=10 n=42 v=119
24484 On ch=10 n=64 v=84
24490 Off ch=10 n=38 v=64
24490 Off ch=10 n=42 v=64
24494 Off ch=10 n=64 v=64
24528 On ch=10 n=64 v=87
24528 On ch=10 n=36 v=82
24528 On ch=10 n=42 v=84
24538 Off ch=10 n=64 v=64
24538 Off ch=10 n=36 v=64
24538 Off ch=10 n=42 v=64
24576 On ch=10 n=46 v=127
24576 On ch=10 n=36 v=86
24586 Off ch=10 n=46 v=64
24586 Off ch=10 n=36 v=64
24672 On ch=10 n=38 v=86
24682 Off ch=10 n=38 v=64
24720 On ch=10 n=36 v=86
24720 On ch=10 n=42 v=83
24730 Off ch=10 n=36 v=64
24730 Off ch=10 n=42 v=64
24768 On ch=10 n=48 v=82
24768 On ch=10 n=36 v=85
24768 On ch=10 n=42 v=118
24778 Off ch=10 n=48 v=64
24778 Off ch=10 n=36 v=64
24778 Off ch=10 n=42 v=64
24816 On ch=10 n=45 v=83
24816 On ch=10 n=42 v=84
24826 Off ch=10 n=45 v=64
24826 Off ch=10 n=42 v=64
24864 On ch=10 n=38 v=87
24864 On ch=10 n=42 v=121
24874 Off ch=10 n=38 v=64
24874 Off ch=10 n=42 v=64
24912 On ch=10 n=49 v=85
24912 On ch=10 n=36 v=82
24922 Off ch=10 n=49 v=64
24922 Off ch=10 n=36 v=64
24960 On ch=10 n=44 v=127
24970 Off ch=10 n=44 v=64
25008 On ch=10 n=44 v=80
25018 Off ch=10 n=44 v=64
25056 On ch=10 n=40 v=125
25056 On ch=10 n=44 v=127
25056 On ch=10 n=54 v=109
25066 Off ch=10 n=40 v=64
25066 Off ch=10 n=44 v=64
25066 Off ch=10 n=54 v=64
25104 On ch=10 n=44 v=91
25114 Off ch=10 n=44 v=64
25152 On ch=10 n=36 v=102
25152 On ch=10 n=44 v=126
25162 Off ch=10 n=36 v=64
25162 Off ch=10 n=44 v=64
25200 On ch=10 n=44 v=86
25210 Off ch=10 n=44 v=64
25248 On ch=10 n=54 v=104
25248 On ch=10 n=44 v=127
25248 On ch=10 n=40 v=124
25258 Off ch=10 n=54 v=64
25258 Off ch=10 n=44 v=64
25258 Off ch=10 n=40 v=64
25296 On ch=10 n=44 v=95
25306 Off ch=10 n=44 v=64
25344 On ch=10 n=44 v=121
25344 On ch=10 n=36 v=109
25354 Off ch=10 n=44 v=64
25354 Off ch=10 n=36 v=64
25392 On ch=10 n=44 v=85
25402 Off ch=10 n=44 v=64
25440 On ch=10 n=54 v=100
25440 On ch=10 n=40 v=127
25440 On ch=10 n=44 v=127
25450 Off ch=10 n=54 v=64
25450 Off ch=10 n=40 v=64
25450 Off ch=10 n=44 v=64
25488 On ch=10 n=44 v=96
25498 Off ch=10 n=44 v=64
25536 On ch=10 n=44 v=124
25536 On ch=10 n=36 v=118
25546 Off ch=10 n=44 v=64
25546 Off ch=10 n=36 v=64
25584 On ch=10 n=44 v=93
25594 Off ch=10 n=44 v=64
25632 On ch=10 n=54 v=110
25632 On ch=10 n=44 v=126
25632 On ch=10 n=40 v=127
25642 Off ch=10 n=54 v=64
25642 Off ch=10 n=44 v=64
25642 Off ch=10 n=40 v=64
25680 On ch=10 n=44 v=86
25690 Off ch=10 n=44 v=64
25728 On ch=10 n=44 v=127
25728 On ch=10 n=36 v=113
25738 Off ch=10 n=44 v=64
25738 Off ch=10 n=36 v=64
25776 On ch=10 n=44 v=98
25786 Off ch=10 n=44 v=64
25824 On ch=10 n=54 v=103
25824 On ch=10 n=44 v=127
25824 On ch=10 n=40 v=122
25834 Off ch=10 n=54 v=64
25834 Off ch=10 n=44 v=64
25834 Off ch=10 n=40 v=64
25872 On ch=10 n=44 v=92
25882 Off ch=10 n=44 v=64
25920 On ch=10 n=44 v=126
25920 On ch=10 n=36 v=105
25930 Off ch=10 n=44 v=64
25930 Off ch=10 n=36 v=64
25968 On ch=10 n=44 v=87
25978 Off ch=10 n=44 v=64
26016 On ch=10 n=44 v=123
26016 On ch=10 n=40 v=120
26016 On ch=10 n=54 v=109
26026 Off ch=10 n=44 v=64
26026 Off ch=10 n=40 v=64
26026 Off ch=10 n=54 v=64
26064 On ch=10 n=44 v=98
26074 Off ch=10 n=44 v=64
26112 On ch=10 n=44 v=125
26112 On ch=10 n=36 v=111
26122 Off ch=10 n=44 v=64
26122 Off ch=10 n=36 v=64
26160 On ch=10 n=44 v=88
26170 Off ch=10 n=44 v=64
26208 On ch=10 n=54 v=108
26208 On ch=10 n=44 v=125
26208 On ch=10 n=40 v=120
26218 Off ch=10 n=54 v=64
26218 Off ch=10 n=44 v=64
26218 Off ch=10 n=40 v=64
26256 On ch=10 n=44 v=88
26266 Off ch=10 n=44 v=64
26304 On ch=10 n=44 v=125
26304 On ch=10 n=36 v=113
26314 Off ch=10 n=44 v=64
26314 Off ch=10 n=36 v=64
26352 On ch=10 n=44 v=92
26362 Off ch=10 n=44 v=64
26400 On ch=10 n=54 v=112
26400 On ch=10 n=44 v=127
26400 On ch=10 n=40 v=120
26410 Off ch=10 n=54 v=64
26410 Off ch=10 n=44 v=64
26410 Off ch=10 n=40 v=64
26448 On ch=10 n=44 v=121
26458 Off ch=10 n=44 v=64
26496 On ch=10 n=46 v=127
26496 On ch=10 n=36 v=82
26506 Off ch=10 n=46 v=64
26506 Off ch=10 n=36 v=64
26592 On ch=10 n=38 v=81
26602 Off ch=10 n=38 v=64
26640 On ch=10 n=36 v=82
26640 On ch=10 n=42 v=86
26650 Off ch=10 n=36 v=64
26650 Off ch=10 n=42 v=64
26688 On ch=10 n=48 v=87
26688 On ch=10 n=36 v=86
26688 On ch=10 n=42 v=123
26698 Off ch=10 n=48 v=64
26698 Off ch=10 n=36 v=64
26698 Off ch=10 n=42 v=64
26736 On ch=10 n=45 v=85
26736 On ch=10 n=42 v=83
26746 Off ch=10 n=45 v=64
26746 Off ch=10 n=42 v=64
26784 On ch=10 n=38 v=83
26784 On ch=10 n=42 v=118
26794 Off ch=10 n=38 v=64
26794 Off ch=10 n=42 v=64
26832 On ch=10 n=49 v=82
26832 On ch=10 n=36 v=83
26842 Off ch=10 n=49 v=64
26842 Off ch=10 n=36 v=64
26880 On ch=10 n=57 v=82
26880 On ch=10 n=44 v=127
26890 Off ch=10 n=57 v=64
26890 Off ch=10 n=44 v=64
26928 On ch=10 n=44 v=87
26938 Off ch=10 n=44 v=64
26976 On ch=10 n=40 v=124
26976 On ch=10 n=44 v=126
26976 On ch=10 n=54 v=105
26986 Off ch=10 n=40 v=64
26986 Off ch=10 n=44 v=64
26986 Off ch=10 n=54 v=64
27024 On ch=10 n=44 v=85
27034 Off ch=10 n=44 v=64
27072 On ch=10 n=36 v=106
27072 On ch=10 n=44 v=127
27082 Off ch=10 n=36 v=64
27082 Off ch=10 n=44 v=64
27120 On ch=10 n=44 v=83
27130 Off ch=10 n=44 v=64
27168 On ch=10 n=54 v=103
27168 On ch=10 n=44 v=127
27168 On ch=10 n=40 v=127
27178 Off ch=10 n=54 v=64
27178 Off ch=10 n=44 v=64
27178 Off ch=10 n=40 v=64
27216 On ch=10 n=44 v=93
27226 Off ch=10 n=44 v=64
27264 On ch=10 n=44 v=122
27264 On ch=10 n=36 v=112
27274 Off ch=10 n=44 v=64
27274 Off ch=10 n=36 v=64
27312 On ch=10 n=44 v=87
27322 Off ch=10 n=44 v=64
27360 On ch=10 n=54 v=100
27360 On ch=10 n=40 v=121
27360 On ch=10 n=44 v=124
27370 Off ch=10 n=54 v=64
27370 Off ch=10 n=40 v=64
27370 Off ch=10 n=44 v=64
27408 On ch=10 n=44 v=102
27418 Off ch=10 n=44 v=64
27456 On ch=10 n=44 v=123
27456 On ch=10 n=36 v=114
27466 Off ch=10 n=44 v=64
27466 Off ch=10 n=36 v=64
27504 On ch=10 n=44 v=90
27514 Off ch=10 n=44 v=64
27552 On ch=10 n=54 v=103
27552 On ch=10 n=44 v=127
27552 On ch=10 n=40 v=127
27562 Off ch=10 n=54 v=64
27562 Off ch=10 n=44 v=64
27562 Off ch=10 n=40 v=64
27600 On ch=10 n=44 v=89
27610 Off ch=10 n=44 v=64
27648 On ch=10 n=44 v=127
27648 On ch=10 n=36 v=112
27658 Off ch=10 n=44 v=64
27658 Off ch=10 n=36 v=64
27696 On ch=10 n=44 v=99
27706 Off ch=10 n=44 v=64
27744 On ch=10 n=54 v=98
27744 On ch=10 n=44 v=127
27744 On ch=10 n=40 v=127
27754 Off ch=10 n=54 v=64
27754 Off ch=10 n=44 v=64
27754 Off ch=10 n=40 v=64
27792 On ch=10 n=44 v=90
27802 Off ch=10 n=44 v=64
27840 On ch=10 n=44 v=124
27840 On ch=10 n=36 v=109
27850 Off ch=10 n=44 v=64
27850 Off ch=10 n=36 v=64
27888 On ch=10 n=44 v=90
27898 Off ch=10 n=44 v=64
27936 On ch=10 n=44 v=127
27936 On ch=10 n=40 v=120
27936 On ch=10 n=54 v=103
27946 Off ch=10 n=44 v=64
27946 Off ch=10 n=40 v=64
27946 Off ch=10 n=54 v=64
27984 On ch=10 n=44 v=95
27994 Off ch=10 n=44 v=64
28032 On ch=10 n=46 v=127
28032 On ch=10 n=36 v=87
28042 Off ch=10 n=46 v=64
28042 Off ch=10 n=36 v=64
28128 On ch=10 n=38 v=80
28138 Off ch=10 n=38 v=64
28176 On ch=10 n=36 v=82
28176 On ch=10 n=42 v=85
28186 Off ch=10 n=36 v=64
28186 Off ch=10 n=42 v=64
28224 On ch=10 n=48 v=83
28224 On ch=10 n=36 v=82
28224 On ch=10 n=42 v=116
28234 Off ch=10 n=48 v=64
28234 Off ch=10 n=36 v=64
28234 Off ch=10 n=42 v=64
28272 On ch=10 n=45 v=87
28272 On ch=10 n=42 v=83
28282 Off ch=10 n=45 v=64
28282 Off ch=10 n=42 v=64
28320 On ch=10 n=38 v=83
28320 On ch=10 n=42 v=119
28330 Off ch=10 n=38 v=64
28330 Off ch=10 n=42 v=64
28368 On ch=10 n=49 v=80
28368 On ch=10 n=36 v=87
28378 Off ch=10 n=49 v=64
28378 Off ch=10 n=36 v=64
28416 On ch=10 n=57 v=85
28416 On ch=10 n=44 v=127
28426 Off ch=10 n=57 v=64
28426 Off ch=10 n=44 v=64
28464 On ch=10 n=44 v=86
28474 Off ch=10 n=44 v=64
28512 On ch=10 n=40 v=122
28512 On ch=10 n=44 v=126
28512 On ch=10 n=54 v=106
28522 Off ch=10 n=40 v=64
28522 Off ch=10 n=44 v=64
28522 Off ch=10 n=54 v=64
28560 On ch=10 n=44 v=90
28570 Off ch=10 n=44 v=64
28608 On ch=10 n=36 v=102
28608 On ch=10 n=44 v=127
28618 Off ch=10 n=36 v=64
28618 Off ch=10 n=44 v=64
28656 On ch=10 n=44 v=81
28666 Off ch=10 n=44 v=64
28704 On ch=10 n=54 v=103
28704 On ch=10 n=44 v=126
28704 On ch=10 n=40 v=124
28714 Off ch=10 n=54 v=64
28714 Off ch=10 n=44 v=64
28714 Off ch=10 n=40 v=64
28752 On ch=10 n=44 v=99
28762 Off ch=10 n=44 v=64
28800 On ch=10 n=44 v=119
28800 On ch=10 n=36 v=109
28810 Off ch=10 n=44 v=64
28810 Off ch=10 n=36 v=64
28848 On ch=10 n=44 v=88
28858 Off ch=10 n=44 v=64
28896 On ch=10 n=54 v=102
28896 On ch=10 n=40 v=124
28896 On ch=10 n=44 v=124
28906 Off ch=10 n=54 v=64
28906 Off ch=10 n=40 v=64
28906 Off ch=10 n=44 v=64
28944 On ch=10 n=44 v=97
28954 Off ch=10 n=44 v=64
28992 On ch=10 n=44 v=125
28992 On ch=10 n=36 v=116
29002 Off ch=10 n=44 v=64
29002 Off ch=10 n=36 v=64
29040 On ch=10 n=44 v=87
29050 Off ch=10 n=44 v=64
29088 On ch=10 n=54 v=110
29088 On ch=10 n=44 v=127
29088 On ch=10 n=40 v=127
29098 Off ch=10 n=54 v=64
29098 Off ch=10 n=44 v=64
29098 Off ch=10 n=40 v=64
29136 On ch=10 n=44 v=86
29146 Off ch=10 n=44 v=64
29184 On ch=10 n=44 v=127
29184 On ch=10 n=36 v=110
29194 Off ch=10 n=44 v=64
29194 Off ch=10 n=36 v=64
29232 On ch=10 n=44 v=99
29242 Off ch=10 n=44 v=64
29280 On ch=10 n=54 v=99
29280 On ch=10 n=44 v=127
29280 On ch=10 n=40 v=127
29290 Off ch=10 n=54 v=64
29290 Off ch=10 n=44 v=64
29290 Off ch=10 n=40 v=64
29328 On ch=10 n=44 v=93
29338 Off ch=10 n=44 v=64
29376 On ch=10 n=44 v=127
29376 On ch=10 n=36 v=105
29386 Off ch=10 n=44 v=64
29386 Off ch=10 n=36 v=64
29424 On ch=10 n=44 v=89
29434 Off ch=10 n=44 v=64
29472 On ch=10 n=44 v=125
29472 On ch=10 n=40 v=119
29472 On ch=10 n=54 v=108
29482 Off ch=10 n=44 v=64
29482 Off ch=10 n=40 v=64
29482 Off ch=10 n=54 v=64
29520 On ch=10 n=46 v=94
29530 Off ch=10 n=46 v=64
29664 On ch=10 n=37 v=80
29674 Off ch=10 n=37 v=64
29856 On ch=10 n=37 v=82
29866 Off ch=10 n=37 v=64
30048 On ch=10 n=37 v=84
30058 Off ch=10 n=37 v=64
30240 On ch=10 n=37 v=80
30250 Off ch=10 n=37 v=64
30336 PrCh ch=10 p=16
30435 On ch=10 n=38 v=125
30445 Off ch=10 n=38 v=64
30483 On ch=10 n=47 v=108
30493 Off ch=10 n=47 v=64
30501 On ch=10 n=45 v=114
30511 Off ch=10 n=45 v=64
30515 On ch=10 n=43 v=106
30525 Off ch=10 n=43 v=64
30528 On ch=10 n=41 v=86
30531 On ch=10 n=36 v=117
30538 Off ch=10 n=41 v=64
30541 Off ch=10 n=36 v=64
30577 On ch=10 n=41 v=126
30579 On ch=10 n=36 v=120
30587 Off ch=10 n=41 v=64
30589 Off ch=10 n=36 v=64
30816 On ch=10 n=38 v=126
30826 Off ch=10 n=38 v=64
30866 On ch=10 n=47 v=122
30876 Off ch=10 n=47 v=64
30888 On ch=10 n=38 v=126
30898 Off ch=10 n=38 v=64
30912 On ch=10 n=36 v=109
30922 Off ch=10 n=36 v=64
30936 On ch=10 n=36 v=104
30946 Off ch=10 n=36 v=64
30960 On ch=10 n=38 v=125
30970 Off ch=10 n=38 v=64
30984 On ch=10 n=38 v=114
30994 Off ch=10 n=38 v=64
31008 On ch=10 n=50 v=126
31008 On ch=10 n=40 v=127
31018 Off ch=10 n=50 v=64
31018 Off ch=10 n=40 v=64
31203 On ch=10 n=38 v=121
31213 Off ch=10 n=38 v=64
31251 On ch=10 n=47 v=113
31261 Off ch=10 n=47 v=64
31269 On ch=10 n=45 v=118
31279 Off ch=10 n=45 v=64
31283 On ch=10 n=43 v=112
31293 Off ch=10 n=43 v=64
31296 On ch=10 n=41 v=115
31299 On ch=10 n=36 v=122
31306 Off ch=10 n=41 v=64
31309 Off ch=10 n=36 v=64
31345 On ch=10 n=41 v=122
31347 On ch=10 n=36 v=118
31355 Off ch=10 n=41 v=64
31357 Off ch=10 n=36 v=64
31488 PrCh ch=10 p=0
31872 On ch=10 n=46 v=127
31872 On ch=10 n=36 v=83
31876 On ch=10 n=56 v=52
31882 Off ch=10 n=46 v=64
31882 Off ch=10 n=36 v=64
31886 Off ch=10 n=56 v=64
31968 On ch=10 n=38 v=84
31972 On ch=10 n=56 v=58
31978 Off ch=10 n=38 v=64
31982 Off ch=10 n=56 v=64
32016 On ch=10 n=36 v=82
32016 On ch=10 n=42 v=86
32026 Off ch=10 n=36 v=64
32026 Off ch=10 n=42 v=64
32064 On ch=10 n=36 v=80
32064 On ch=10 n=42 v=119
32068 On ch=10 n=56 v=57
32074 Off ch=10 n=36 v=64
32074 Off ch=10 n=42 v=64
32078 Off ch=10 n=56 v=64
32116 On ch=10 n=42 v=81
32126 Off ch=10 n=42 v=64
32160 On ch=10 n=38 v=86
32160 On ch=10 n=42 v=118
32164 On ch=10 n=56 v=52
32170 Off ch=10 n=38 v=64
32170 Off ch=10 n=42 v=64
32174 Off ch=10 n=56 v=64
32208 On ch=10 n=36 v=86
32208 On ch=10 n=42 v=81
32218 Off ch=10 n=36 v=64
32218 Off ch=10 n=42 v=64
32256 On ch=10 n=42 v=122
32260 On ch=10 n=56 v=54
32266 Off ch=10 n=42 v=64
32270 Off ch=10 n=56 v=64
32304 On ch=10 n=42 v=80
32314 Off ch=10 n=42 v=64
32352 On ch=10 n=38 v=82
32352 On ch=10 n=42 v=117
32356 On ch=10 n=56 v=56
32362 Off ch=10 n=38 v=64
32362 Off ch=10 n=42 v=64
32366 Off ch=10 n=56 v=64
32400 On ch=10 n=36 v=84
32400 On ch=10 n=42 v=83
32410 Off ch=10 n=36 v=64
32410 Off ch=10 n=42 v=64
32448 On ch=10 n=36 v=81
32448 On ch=10 n=42 v=120
32452 On ch=10 n=56 v=52
32458 Off ch=10 n=36 v=64
32458 Off ch=10 n=42 v=64
32462 Off ch=10 n=56 v=64
32500 On ch=10 n=42 v=84
32510 Off ch=10 n=42 v=64
32544 On ch=10 n=38 v=85
32544 On ch=10 n=42 v=117
32548 On ch=10 n=56 v=53
32554 Off ch=10 n=38 v=64
32554 Off ch=10 n=42 v=64
32558 Off ch=10 n=56 v=64
32592 On ch=10 n=36 v=81
32592 On ch=10 n=42 v=84
32602 Off ch=10 n=36 v=64
32602 Off ch=10 n=42 v=64
32640 On ch=10 n=46 v=127
32640 On ch=10 n=36 v=82
32644 On ch=10 n=56 v=54
32650 Off ch=10 n=46 v=64
32650 Off ch=10 n=36 v=64
32654 Off ch=10 n=56 v=64
32736 On ch=10 n=38 v=83
32740 On ch=10 n=56 v=53
32746 Off ch=10 n=38 v=64
32750 Off ch=10 n=56 v=64
32784 On ch=10 n=36 v=81
32784 On ch=10 n=42 v=87
32794 Off ch=10 n=36 v=64
32794 Off ch=10 n=42 v=64
32832 On ch=10 n=36 v=80
32832 On ch=10 n=42 v=116
32836 On ch=10 n=56 v=53
32842 Off ch=10 n=36 v=64
32842 Off ch=10 n=42 v=64
32846 Off ch=10 n=56 v=64
32884 On ch=10 n=42 v=83
32894 Off ch=10 n=42 v=64
32928 On ch=10 n=38 v=85
32928 On ch=10 n=42 v=117
32932 On ch=10 n=56 v=56
32938 Off ch=10 n=38 v=64
32938 Off ch=10 n=42 v=64
32942 Off ch=10 n=56 v=64
32976 On ch=10 n=36 v=82
32976 On ch=10 n=42 v=86
32986 Off ch=10 n=36 v=64
32986 Off ch=10 n=42 v=64
33024 On ch=10 n=42 v=123
33028 On ch=10 n=56 v=52
33034 Off ch=10 n=42 v=64
33038 Off ch=10 n=56 v=64
33072 On ch=10 n=42 v=86
33082 Off ch=10 n=42 v=64
33120 On ch=10 n=38 v=81
33120 On ch=10 n=42 v=119
33124 On ch=10 n=56 v=58
33130 Off ch=10 n=38 v=64
33130 Off ch=10 n=42 v=64
33134 Off ch=10 n=56 v=64
33168 On ch=10 n=36 v=85
33168 On ch=10 n=42 v=85
33178 Off ch=10 n=36 v=64
33178 Off ch=10 n=42 v=64
33216 On ch=10 n=36 v=87
33216 On ch=10 n=42 v=120
33220 On ch=10 n=56 v=55
33226 Off ch=10 n=36 v=64
33226 Off ch=10 n=42 v=64
33230 Off ch=10 n=56 v=64
33268 On ch=10 n=42 v=80
33278 Off ch=10 n=42 v=64
33312 On ch=10 n=38 v=85
33312 On ch=10 n=42 v=121
33316 On ch=10 n=56 v=59
33322 Off ch=10 n=38 v=64
33322 Off ch=10 n=42 v=64
33326 Off ch=10 n=56 v=64
33360 On ch=10 n=36 v=87
33360 On ch=10 n=42 v=81
33370 Off ch=10 n=36 v=64
33370 Off ch=10 n=42 v=64
33408 On ch=10 n=46 v=127
33408 On ch=10 n=36 v=87
33412 On ch=10 n=56 v=53
33418 Off ch=10 n=46 v=64
33418 Off ch=10 n=36 v=64
33422 Off ch=10 n=56 v=64
33504 On ch=10 n=38 v=80
33508 On ch=10 n=56 v=55
33514 Off ch=10 n=38 v=64
33518 Off ch=10 n=56 v=64
33552 On ch=10 n=36 v=80
33552 On ch=10 n=42 v=87
33562 Off ch=10 n=36 v=64
33562 Off ch=10 n=42 v=64
33600 On ch=10 n=36 v=83
33600 On ch=10 n=42 v=121
33604 On ch=10 n=56 v=53
33610 Off ch=10 n=36 v=64
33610 Off ch=10 n=42 v=64
33614 Off ch=10 n=56 v=64
33652 On ch=10 n=42 v=87
33662 Off ch=10 n=42 v=64
33696 On ch=10 n=38 v=85
33696 On ch=10 n=42 v=116
33700 On ch=10 n=56 v=56
33706 Off ch=10 n=38 v=64
33706 Off ch=10 n=42 v=64
33710 Off ch=10 n=56 v=64
33744 On ch=10 n=36 v=80
33744 On ch=10 n=42 v=86
33754 Off ch=10 n=36 v=64
33754 Off ch=10 n=42 v=64
33792 On ch=10 n=40 v=87
33792 On ch=10 n=42 v=118
33796 On ch=10 n=56 v=58
33802 Off ch=10 n=40 v=64
33802 Off ch=10 n=42 v=64
33806 Off ch=10 n=56 v=64
33840 On ch=10 n=40 v=81
33840 On ch=10 n=42 v=84
33850 Off ch=10 n=40 v=64
33850 Off ch=10 n=42 v=64
33888 On ch=10 n=40 v=86
33888 On ch=10 n=38 v=85
33888 On ch=10 n=42 v=118
33892 On ch=10 n=56 v=55
33898 Off ch=10 n=40 v=64
33898 Off ch=10 n=38 v=64
33898 Off ch=10 n=42 v=64
33902 Off ch=10 n=56 v=64
33912 On ch=10 n=40 v=49
33922 Off ch=10 n=40 v=64
33936 On ch=10 n=36 v=84
33936 On ch=10 n=42 v=85
33938 On ch=10 n=40 v=56
33946 Off ch=10 n=36 v=64
33946 Off ch=10 n=42 v=64
33948 Off ch=10 n=40 v=64
33962 On ch=10 n=40 v=52
33972 Off ch=10 n=40 v=64
33984 On ch=10 n=40 v=82
33984 On ch=10 n=36 v=85
33984 On ch=10 n=42 v=117
33988 On ch=10 n=56 v=53
33994 Off ch=10 n=40 v=64
33994 Off ch=10 n=36 v=64
33994 Off ch=10 n=42 v=64
33998 Off ch=10 n=56 v=64
34012 On ch=10 n=40 v=54
34022 Off ch=10 n=40 v=64
34032 On ch=10 n=40 v=83
34036 On ch=10 n=42 v=83
34042 Off ch=10 n=40 v=64
34046 Off ch=10 n=42 v=64
34056 On ch=10 n=40 v=81
34066 Off ch=10 n=40 v=64
34080 On ch=10 n=40 v=82
34080 On ch=10 n=38 v=85
34080 On ch=10 n=42 v=116
34084 On ch=10 n=56 v=54
34090 Off ch=10 n=40 v=64
34090 Off ch=10 n=38 v=64
34090 Off ch=10 n=42 v=64
34094 Off ch=10 n=56 v=64
34106 On ch=10 n=40 v=80
34116 Off ch=10 n=40 v=64
34128 On ch=10 n=36 v=86
34128 On ch=10 n=42 v=83
34130 On ch=10 n=40 v=86
34138 Off ch=10 n=36 v=64
34138 Off ch=10 n=42 v=64
34140 Off ch=10 n=40 v=64
34176 On ch=10 n=46 v=127
34176 On ch=10 n=36 v=83
34180 On ch=10 n=56 v=59
34186 Off ch=10 n=46 v=64
34186 Off ch=10 n=36 v=64
34190 Off ch=10 n=56 v=64
34272 On ch=10 n=38 v=81
34276 On ch=10 n=56 v=52
34282 Off ch=10 n=38 v=64
34286 Off ch=10 n=56 v=64
34320 On ch=10 n=36 v=83
34320 On ch=10 n=42 v=85
34330 Off ch=10 n=36 v=64
34330 Off ch=10 n=42 v=64
34368 On ch=10 n=36 v=85
34368 On ch=10 n=42 v=116
34372 On ch=10 n=56 v=56
34378 Off ch=10 n=36 v=64
34378 Off ch=10 n=42 v=64
34382 Off ch=10 n=56 v=64
34420 On ch=10 n=42 v=86
34430 Off ch=10 n=42 v=64
34464 On ch=10 n=38 v=81
34464 On ch=10 n=42 v=119
34468 On ch=10 n=56 v=58
34474 Off ch=10 n=38 v=64
34474 Off ch=10 n=42 v=64
34478 Off ch=10 n=56 v=64
34512 On ch=10 n=36 v=82
34512 On ch=10 n=42 v=85
34522 Off ch=10 n=36 v=64
34522 Off ch=10 n=42 v=64
34560 On ch=10 n=42 v=121
34564 On ch=10 n=56 v=53
34570 Off ch=10 n=42 v=64
34574 Off ch=10 n=56 v=64
34608 On ch=10 n=42 v=81
34618 Off ch=10 n=42 v=64
34656 On ch=10 n=38 v=81
34656 On ch=10 n=42 v=120
34660 On ch=10 n=56 v=56
34666 Off ch=10 n=38 v=64
34666 Off ch=10 n=42 v=64
34670 Off ch=10 n=56 v=64
34704 On ch=10 n=36 v=86
34704 On ch=10 n=42 v=82
34714 Off ch=10 n=36 v=64
34714 Off ch=10 n=42 v=64
34752 On ch=10 n=36 v=86
34752 On ch=10 n=42 v=118
34756 On ch=10 n=56 v=52
34762 Off ch=10 n=36 v=64
34762 Off ch=10 n=42 v=64
34766 Off ch=10 n=56 v=64
34804 On ch=10 n=42 v=86
34814 Off ch=10 n=42 v=64
34848 On ch=10 n=38 v=83
34848 On ch=10 n=42 v=119
34852 On ch=10 n=56 v=56
34858 Off ch=10 n=38 v=64
34858 Off ch=10 n=42 v=64
34862 Off ch=10 n=56 v=64
34896 On ch=10 n=36 v=80
34896 On ch=10 n=42 v=80
34906 Off ch=10 n=36 v=64
34906 Off ch=10 n=42 v=64
34944 On ch=10 n=46 v=127
34944 On ch=10 n=36 v=84
34948 On ch=10 n=56 v=53
34954 Off ch=10 n=46 v=64
34954 Off ch=10 n=36 v=64
34958 Off ch=10 n=56 v=64
35040 On ch=10 n=38 v=86
35044 On ch=10 n=56 v=53
35050 Off ch=10 n=38 v=64
35054 Off ch=10 n=56 v=64
35088 On ch=10 n=36 v=82
35088 On ch=10 n=42 v=81
35098 Off ch=10 n=36 v=64
35098 Off ch=10 n=42 v=64
35136 On ch=10 n=36 v=81
35136 On ch=10 n=42 v=123
35140 On ch=10 n=56 v=57
35146 Off ch=10 n=36 v=64
35146 Off ch=10 n=42 v=64
35150 Off ch=10 n=56 v=64
35188 On ch=10 n=42 v=87
35198 Off ch=10 n=42 v=64
35232 On ch=10 n=38 v=84
35232 On ch=10 n=42 v=118
35236 On ch=10 n=56 v=54
35242 Off ch=10 n=38 v=64
35242 Off ch=10 n=42 v=64
35246 Off ch=10 n=56 v=64
35280 On ch=10 n=36 v=82
35280 On ch=10 n=42 v=83
35290 Off ch=10 n=36 v=64
35290 Off ch=10 n=42 v=64
35328 On ch=10 n=42 v=123
35332 On ch=10 n=56 v=59
35338 Off ch=10 n=42 v=64
35342 Off ch=10 n=56 v=64
35376 On ch=10 n=42 v=81
35386 Off ch=10 n=42 v=64
35424 On ch=10 n=38 v=80
35424 On ch=10 n=42 v=120
35428 On ch=10 n=56 v=53
35434 Off ch=10 n=38 v=64
35434 Off ch=10 n=42 v=64
35438 Off ch=10 n=56 v=64
35472 On ch=10 n=36 v=80
35472 On ch=10 n=42 v=83
35482 Off ch=10 n=36 v=64
35482 Off ch=10 n=42 v=64
35520 On ch=10 n=36 v=84
35520 On ch=10 n=42 v=122
35524 On ch=10 n=56 v=52
35530 Off ch=10 n=36 v=64
35530 Off ch=10 n=42 v=64
35534 Off ch=10 n=56 v=64
35572 On ch=10 n=42 v=83
35582 Off ch=10 n=42 v=64
35616 On ch=10 n=38 v=83
35616 On ch=10 n=42 v=118
35620 On ch=10 n=56 v=55
35626 Off ch=10 n=38 v=64
35626 Off ch=10 n=42 v=64
35630 Off ch=10 n=56 v=64
35664 On ch=10 n=36 v=81
35664 On ch=10 n=42 v=84
35674 Off ch=10 n=36 v=64
35674 Off ch=10 n=42 v=64
35712 On ch=10 n=46 v=127
35712 On ch=10 n=36 v=82
35716 On ch=10 n=56 v=55
35722 Off ch=10 n=46 v=64
35722 Off ch=10 n=36 v=64
35726 Off ch=10 n=56 v=64
35808 On ch=10 n=38 v=81
35812 On ch=10 n=56 v=55
35818 Off ch=10 n=38 v=64
35822 Off ch=10 n=56 v=64
35856 On ch=10 n=36 v=81
35856 On ch=10 n=42 v=84
35866 Off ch=10 n=36 v=64
35866 Off ch=10 n=42 v=64
35904 On ch=10 n=36 v=84
35904 On ch=10 n=42 v=121
35908 On ch=10 n=56 v=59
35914 Off ch=10 n=36 v=64
35914 Off ch=10 n=42 v=64
35918 Off ch=10 n=56 v=64
35956 On ch=10 n=42 v=87
35966 Off ch=10 n=42 v=64
36000 On ch=10 n=38 v=81
36000 On ch=10 n=42 v=117
36004 On ch=10 n=56 v=56
36010 Off ch=10 n=38 v=64
36010 Off ch=10 n=42 v=64
36014 Off ch=10 n=56 v=64
36048 On ch=10 n=36 v=82
36048 On ch=10 n=42 v=87
36058 Off ch=10 n=36 v=64
36058 Off ch=10 n=42 v=64
36096 On ch=10 n=42 v=122
36100 On ch=10 n=56 v=53
36106 Off ch=10 n=42 v=64
36110 Off ch=10 n=56 v=64
36144 On ch=10 n=42 v=83
36154 Off ch=10 n=42 v=64
36192 On ch=10 n=38 v=87
36192 On ch=10 n=42 v=119
36196 On ch=10 n=56 v=58
36202 Off ch=10 n=38 v=64
36202 Off ch=10 n=42 v=64
36206 Off ch=10 n=56 v=64
36240 On ch=10 n=36 v=85
36240 On ch=10 n=42 v=84
36250 Off ch=10 n=36 v=64
36250 Off ch=10 n=42 v=64
36288 On ch=10 n=36 v=85
36288 On ch=10 n=42 v=117
36292 On ch=10 n=56 v=58
36298 Off ch=10 n=36 v=64
36298 Off ch=10 n=42 v=64
36302 Off ch=10 n=56 v=64
36340 On ch=10 n=42 v=81
36350 Off ch=10 n=42 v=64
36384 On ch=10 n=38 v=84
36384 On ch=10 n=42 v=117
36388 On ch=10 n=56 v=53
36394 Off ch=10 n=38 v=64
36394 Off ch=10 n=42 v=64
36398 Off ch=10 n=56 v=64
36432 On ch=10 n=36 v=87
36432 On ch=10 n=42 v=82
36442 Off ch=10 n=36 v=64
36442 Off ch=10 n=42 v=64
36480 On ch=10 n=46 v=127
36480 On ch=10 n=36 v=81
36484 On ch=10 n=56 v=59
36490 Off ch=10 n=46 v=64
36490 Off ch=10 n=36 v=64
36494 Off ch=10 n=56 v=64
36576 On ch=10 n=38 v=80
36580 On ch=10 n=56 v=53
36586 Off ch=10 n=38 v=64
36590 Off ch=10 n=56 v=64
36624 On ch=10 n=36 v=84
36624 On ch=10 n=42 v=87
36634 Off ch=10 n=36 v=64
36634 Off ch=10 n=42 v=64
36672 On ch=10 n=36 v=85
36672 On ch=10 n=42 v=121
36676 On ch=10 n=56 v=52
36682 Off ch=10 n=36 v=64
36682 Off ch=10 n=42 v=64
36686 Off ch=10 n=56 v=64
36724 On ch=10 n=42 v=80
36734 Off ch=10 n=42 v=64
36768 On ch=10 n=38 v=82
36768 On ch=10 n=42 v=122
36772 On ch=10 n=56 v=59
36778 Off ch=10 n=38 v=64
36778 Off ch=10 n=42 v=64
36782 Off ch=10 n=56 v=64
36816 On ch=10 n=36 v=84
36816 On ch=10 n=42 v=82
36826 Off ch=10 n=36 v=64
36826 Off ch=10 n=42 v=64
36864 On ch=10 n=42 v=120
36868 On ch=10 n=56 v=56
36874 Off ch=10 n=42 v=64
36878 Off ch=10 n=56 v=64
36912 On ch=10 n=42 v=87
36922 Off ch=10 n=42 v=64
36960 On ch=10 n=38 v=83
36960 On ch=10 n=42 v=116
36964 On ch=10 n=56 v=54
36970 Off ch=10 n=38 v=64
36970 Off ch=10 n=42 v=64
36974 Off ch=10 n=56 v=64
37008 On ch=10 n=36 v=84
37008 On ch=10 n=42 v=85
37018 Off ch=10 n=36 v=64
37018 Off ch=10 n=42 v=64
37056 On ch=10 n=36 v=87
37056 On ch=10 n=42 v=121
37060 On ch=10 n=56 v=52
37066 Off ch=10 n=36 v=64
37066 Off ch=10 n=42 v=64
37070 Off ch=10 n=56 v=64
37108 On ch=10 n=42 v=84
37118 Off ch=10 n=42 v=64
37152 On ch=10 n=38 v=87
37152 On ch=10 n=42 v=119
37156 On ch=10 n=56 v=55
37162 Off ch=10 n=38 v=64
37162 Off ch=10 n=42 v=64
37166 Off ch=10 n=56 v=64
37200 On ch=10 n=36 v=87
37200 On ch=10 n=42 v=86
37210 Off ch=10 n=36 v=64
37210 Off ch=10 n=42 v=64
37248 On ch=10 n=46 v=127
37248 On ch=10 n=36 v=87
37252 On ch=10 n=56 v=57
37258 Off ch=10 n=46 v=64
37258 Off ch=10 n=36 v=64
37262 Off ch=10 n=56 v=64
37344 On ch=10 n=38 v=86
37348 On ch=10 n=56 v=53
37354 Off ch=10 n=38 v=64
37358 Off ch=10 n=56 v=64
37392 On ch=10 n=36 v=81
37392 On ch=10 n=42 v=87
37402 Off ch=10 n=36 v=64
37402 Off ch=10 n=42 v=64
37440 On ch=10 n=36 v=83
37440 On ch=10 n=42 v=116
37444 On ch=10 n=56 v=54
37450 Off ch=10 n=36 v=64
37450 Off ch=10 n=42 v=64
37454 Off ch=10 n=56 v=64
37492 On ch=10 n=42 v=81
37502 Off ch=10 n=42 v=64
37536 On ch=10 n=38 v=81
37536 On ch=10 n=42 v=122
37540 On ch=10 n=56 v=57
37546 Off ch=10 n=38 v=64
37546 Off ch=10 n=42 v=64
37550 Off ch=10 n=56 v=64
37584 On ch=10 n=36 v=82
37584 On ch=10 n=42 v=84
37594 Off ch=10 n=36 v=64
37594 Off ch=10 n=42 v=64
37632 On ch=10 n=42 v=120
37636 On ch=10 n=56 v=52
37642 Off ch=10 n=42 v=64
37646 Off ch=10 n=56 v=64
37680 On ch=10 n=42 v=86
37690 Off ch=10 n=42 v=64
37728 On ch=10 n=38 v=80
37728 On ch=10 n=42 v=123
37732 On ch=10 n=56 v=55
37738 Off ch=10 n=38 v=64
37738 Off ch=10 n=42 v=64
37742 Off ch=10 n=56 v=64
37776 On ch=10 n=36 v=84
37776 On ch=10 n=42 v=82
37786 Off ch=10 n=36 v=64
37786 Off ch=10 n=42 v=64
37824 On ch=10 n=36 v=87
37824 On ch=10 n=42 v=117
37828 On ch=10 n=56 v=58
37834 Off ch=10 n=36 v=64
37834 Off ch=10 n=42 v=64
37838 Off ch=10 n=56 v=64
37876 On ch=10 n=42 v=83
37886 Off ch=10 n=42 v=64
37920 On ch=10 n=38 v=80
37920 On ch=10 n=42 v=121
37924 On ch=10 n=56 v=56
37930 Off ch=10 n=38 v=64
37930 Off ch=10 n=42 v=64
37934 Off ch=10 n=56 v=64
37968 On ch=10 n=36 v=83
37968 On ch=10 n=42 v=84
37978 Off ch=10 n=36 v=64
37978 Off ch=10 n=42 v=64
39552 On ch=10 n=46 v=127
39552 On ch=10 n=36 v=85
39556 On ch=10 n=56 v=55
39562 Off ch=10 n=46 v=64
39562 Off ch=10 n=36 v=64
39566 Off ch=10 n=56 v=64
39648 On ch=10 n=38 v=82
39652 On ch=10 n=56 v=56
39658 Off ch=10 n=38 v=64
39662 Off ch=10 n=56 v=64
39696 On ch=10 n=36 v=87
39696 On ch=10 n=42 v=83
39706 Off ch=10 n=36 v=64
39706 Off ch=10 n=42 v=64
39744 On ch=10 n=36 v=85
39744 On ch=10 n=42 v=117
39748 On ch=10 n=56 v=54
39754 Off ch=10 n=36 v=64
39754 Off ch=10 n=42 v=64
39758 Off ch=10 n=56 v=64
39796 On ch=10 n=42 v=83
39806 Off ch=10 n=42 v=64
39840 On ch=10 n=38 v=81
39840 On ch=10 n=42 v=123
39844 On ch=10 n=56 v=58
39850 Off ch=10 n=38 v=64
39850 Off ch=10 n=42 v=64
39854 Off ch=10 n=56 v=64
39888 On ch=10 n=36 v=81
39888 On ch=10 n=42 v=85
39898 Off ch=10 n=36 v=64
39898 Off ch=10 n=42 v=64
39936 On ch=10 n=42 v=116
39940 On ch=10 n=56 v=59
39946 Off ch=10 n=42 v=64
39950 Off ch=10 n=56 v=64
39984 On ch=10 n=42 v=85
39994 Off ch=10 n=42 v=64
40032 On ch=10 n=38 v=81
40032 On ch=10 n=42 v=116
40036 On ch=10 n=56 v=59
40042 Off ch=10 n=38 v=64
40042 Off ch=10 n=42 v=64
40046 Off ch=10 n=56 v=64
40080 On ch=10 n=36 v=83
40080 On ch=10 n=42 v=85
40090 Off ch=10 n=36 v=64
40090 Off ch=10 n=42 v=64
40128 On ch=10 n=36 v=87
40128 On ch=10 n=42 v=121
40132 On ch=10 n=56 v=58
40138 Off ch=10 n=36 v=64
40138 Off ch=10 n=42 v=64
40142 Off ch=10 n=56 v=64
40180 On ch=10 n=42 v=82
40190 Off ch=10 n=42 v=64
40224 On ch=10 n=38 v=84
40224 On ch=10 n=42 v=119
40228 On ch=10 n=56 v=59
40234 Off ch=10 n=38 v=64
40234 Off ch=10 n=42 v=64
40238 Off ch=10 n=56 v=64
40272 On ch=10 n=36 v=86
40272 On ch=10 n=42 v=87
40282 Off ch=10 n=36 v=64
40282 Off ch=10 n=42 v=64
40320 On ch=10 n=46 v=127
40320 On ch=10 n=36 v=82
40324 On ch=10 n=56 v=57
40330 Off ch=10 n=46 v=64
40330 Off ch=10 n=36 v=64
40334 Off ch=10 n=56 v=64
40416 On ch=10 n=38 v=85
40420 On ch=10 n=56 v=57
40426 Off ch=10 n=38 v=64
40430 Off ch=10 n=56 v=64
40464 On ch=10 n=36 v=84
40464 On ch=10 n=42 v=84
40474 Off ch=10 n=36 v=64
40474 Off ch=10 n=42 v=64
40512 On ch=10 n=36 v=81
40512 On ch=10 n=42 v=116
40516 On ch=10 n=56 v=52
40522 Off ch=10 n=36 v=64
40522 Off ch=10 n=42 v=64
40526 Off ch=10 n=56 v=64
40564 On ch=10 n=42 v=80
40574 Off ch=10 n=42 v=64
40608 On ch=10 n=38 v=86
40608 On ch=10 n=42 v=118
40612 On ch=10 n=56 v=53
40618 Off ch=10 n=38 v=64
40618 Off ch=10 n=42 v=64
40622 Off ch=10 n=56 v=64
40656 On ch=10 n=36 v=86
40656 On ch=10 n=42 v=84
40666 Off ch=10 n=36 v=64
40666 Off ch=10 n=42 v=64
40704 On ch=10 n=42 v=123
40708 On ch=10 n=56 v=59
40714 Off ch=10 n=42 v=64
40718 Off ch=10 n=56 v=64
40752 On ch=10 n=42 v=84
40762 Off ch=10 n=42 v=64
40800 On ch=10 n=38 v=86
40800 On ch=10 n=42 v=117
40804 On ch=10 n=56 v=53
40810 Off ch=10 n=38 v=64
40810 Off ch=10 n=42 v=64
40814 Off ch=10 n=56 v=64
40848 On ch=10 n=36 v=84
40848 On ch=10 n=42 v=85
40858 Off ch=10 n=36 v=64
40858 Off ch=10 n=42 v=64
40896 On ch=10 n=36 v=84
40896 On ch=10 n=42 v=116
40900 On ch=10 n=56 v=52
40906 Off ch=10 n=36 v=64
40906 Off ch=10 n=42 v=64
40910 Off ch=10 n=56 v=64
40948 On ch=10 n=42 v=80
40958 Off ch=10 n=42 v=64
40992 On ch=10 n=38 v=83
40992 On ch=10 n=42 v=122
40996 On ch=10 n=56 v=58
41002 Off ch=10 n=38 v=64
41002 Off ch=10 n=42 v=64
41006 Off ch=10 n=56 v=64
41040 On ch=10 n=36 v=83
41040 On ch=10 n=42 v=86
41050 Off ch=10 n=36 v=64
41050 Off ch=10 n=42 v=64
41088 On ch=10 n=46 v=127
41088 On ch=10 n=36 v=80
41098 Off ch=10 n=46 v=64
41098 Off ch=10 n=36 v=64
41184 On ch=10 n=38 v=80
41194 Off ch=10 n=38 v=64
41232 On ch=10 n=36 v=86
41232 On ch=10 n=42 v=86
41242 Off ch=10 n=36 v=64
41242 Off ch=10 n=42 v=64
41280 On ch=10 n=36 v=83
41280 On ch=10 n=42 v=116
41290 Off ch=10 n=36 v=64
41290 Off ch=10 n=42 v=64
41332 On ch=10 n=42 v=84
41342 Off ch=10 n=42 v=64
41376 On ch=10 n=38 v=84
41376 On ch=10 n=42 v=118
41386 Off ch=10 n=38 v=64
41386 Off ch=10 n=42 v=64
41424 On ch=10 n=36 v=87
41424 On ch=10 n=42 v=87
41434 Off ch=10 n=36 v=64
41434 Off ch=10 n=42 v=64
41472 On ch=10 n=42 v=117
41482 Off ch=10 n=42 v=64
41520 On ch=10 n=42 v=82
41530 Off ch=10 n=42 v=64
41568 On ch=10 n=38 v=84
41568 On ch=10 n=42 v=121
41578 Off ch=10 n=38 v=64
41578 Off ch=10 n=42 v=64
41616 On ch=10 n=36 v=80
41616 On ch=10 n=42 v=84
41626 Off ch=10 n=36 v=64
41626 Off ch=10 n=42 v=64
41664 On ch=10 n=36 v=83
41664 On ch=10 n=42 v=117
41674 Off ch=10 n=36 v=64
41674 Off ch=10 n=42 v=64
41716 On ch=10 n=42 v=83
41726 Off ch=10 n=42 v=64
41760 On ch=10 n=38 v=85
41760 On ch=10 n=42 v=122
41764 On ch=10 n=64 v=82
41770 Off ch=10 n=38 v=64
41770 Off ch=10 n=42 v=64
41774 Off ch=10 n=64 v=64
41808 On ch=10 n=64 v=86
41808 On ch=10 n=36 v=81
41808 On ch=10 n=42 v=80
41818 Off ch=10 n=64 v=64
41818 Off ch=10 n=36 v=64
41818 Off ch=10 n=42 v=64
41856 On ch=10 n=46 v=127
41856 On ch=10 n=36 v=83
41866 Off ch=10 n=46 v=64
41866 Off ch=10 n=36 v=64
41952 On ch=10 n=38 v=80
41962 Off ch=10 n=38 v=64
42000 On ch=10 n=36 v=82
42000 On ch=10 n=42 v=87
42010 Off ch=10 n=36 v=64
42010 Off ch=10 n=42 v=64
42048 On ch=10 n=36 v=82
42048 On ch=10 n=42 v=123
42058 Off ch=10 n=36 v=64
42058 Off ch=10 n=42 v=64
42100 On ch=10 n=42 v=82
42110 Off ch=10 n=42 v=64
42144 On ch=10 n=38 v=85
42144 On ch=10 n=42 v=121
42154 Off ch=10 n=38 v=64
42154 Off ch=10 n=42 v=64
42192 On ch=10 n=36 v=84
42192 On ch=10 n=42 v=86
42202 Off ch=10 n=36 v=64
42202 Off ch=10 n=42 v=64
42240 On ch=10 n=42 v=120
42250 Off ch=10 n=42 v=64
42288 On ch=10 n=42 v=83
42298 Off ch=10 n=42 v=64
42336 On ch=10 n=38 v=85
42336 On ch=10 n=42 v=121
42346 Off ch=10 n=38 v=64
42346 Off ch=10 n=42 v=64
42384 On ch=10 n=36 v=85
42384 On ch=10 n=42 v=86
42394 Off ch=10 n=36 v=64
42394 Off ch=10 n=42 v=64
42432 On ch=10 n=36 v=86
42432 On ch=10 n=42 v=121
42442 Off ch=10 n=36 v=64
42442 Off ch=10 n=42 v=64
42484 On ch=10 n=42 v=84
42494 Off ch=10 n=42 v=64
42528 On ch=10 n=38 v=84
42528 On ch=10 n=42 v=121
42532 On ch=10 n=64 v=87
42538 Off ch=10 n=38 v=64
42538 Off ch=10 n=42 v=64
42542 Off ch=10 n=64 v=64
42576 On ch=10 n=64 v=82
42576 On ch=10 n=36 v=86
42576 On ch=10 n=42 v=85
42586 Off ch=10 n=64 v=64
42586 Off ch=10 n=36 v=64
42586 Off ch=10 n=42 v=64
42624 On ch=10 n=46 v=127
42624 On ch=10 n=36 v=80
42634 Off ch=10 n=46 v=64
42634 Off ch=10 n=36 v=64
42720 On ch=10 n=38 v=83
42730 Off ch=10 n=38 v=64
42768 On ch=10 n=36 v=81
42768 On ch=10 n=42 v=84
42778 Off ch=10 n=36 v=64
42778 Off ch=10 n=42 v=64
42816 On ch=10 n=36 v=83
42816 On ch=10 n=42 v=117
42826 Off ch=10 n=36 v=64
42826 Off ch=10 n=42 v=64
42868 On ch=10 n=42 v=84
42878 Off ch=10 n=42 v=64
42912 On ch=10 n=38 v=85
42912 On ch=10 n=42 v=121
42922 Off ch=10 n=38 v=64
42922 Off ch=10 n=42 v=64
42960 On ch=10 n=36 v=87
42960 On ch=10 n=42 v=83
42970 Off ch=10 n=36 v=64
42970 Off ch=10 n=42 v=64
43008 On ch=10 n=42 v=117
43018 Off ch=10 n=42 v=64
43056 On ch=10 n=42 v=83
43066 Off ch=10 n=42 v=64
43104 On ch=10 n=38 v=81
43104 On ch=10 n=42 v=121
43114 Off ch=10 n=38 v=64
43114 Off ch=10 n=42 v=64
43152 On ch=10 n=36 v=83
43152 On ch=10 n=42 v=82
43162 Off ch=10 n=36 v=64
43162 Off ch=10 n=42 v=64
43200 On ch=10 n=36 v=87
43200 On ch=10 n=42 v=118
43210 Off ch=10 n=36 v=64
43210 Off ch=10 n=42 v=64
43252 On ch=10 n=42 v=82
43262 Off ch=10 n=42 v=64
43296 On ch=10 n=38 v=82
43296 On ch=10 n=42 v=116
43300 On ch=10 n=64 v=84
43306 Off ch=10 n=38 v=64
43306 Off ch=10 n=42 v=64
43310 Off ch=10 n=64 v=64
43344 On ch=10 n=64 v=87
43344 On ch=10 n=36 v=80
43344 On ch=10 n=42 v=87
43354 Off ch=10 n=64 v=64
43354 Off ch=10 n=36 v=64
43354 Off ch=10 n=42 v=64
43392 On ch=10 n=46 v=127
43392 On ch=10 n=36 v=82
43402 Off ch=10 n=46 v=64
43402 Off ch=10 n=36 v=64
43488 On ch=10 n=38 v=85
43498 Off ch=10 n=38 v=64
43536 On ch=10 n=36 v=85
43536 On ch=10 n=42 v=84
43546 Off ch=10 n=36 v=64
43546 Off ch=10 n=42 v=64
43584 On ch=10 n=36 v=87
43584 On ch=10 n=42 v=119
43594 Off ch=10 n=36 v=64
43594 Off ch=10 n=42 v=64
43636 On ch=10 n=42 v=82
43646 Off ch=10 n=42 v=64
43680 On ch=10 n=38 v=80
43680 On ch=10 n=42 v=121
43690 Off ch=10 n=38 v=64
43690 Off ch=10 n=42 v=64
43728 On ch=10 n=36 v=82
43728 On ch=10 n=42 v=86
43738 Off ch=10 n=36 v=64
43738 Off ch=10 n=42 v=64
43776 On ch=10 n=42 v=121
43786 Off ch=10 n=42 v=64
43824 On ch=10 n=42 v=83
43834 Off ch=10 n=42 v=64
43872 On ch=10 n=38 v=84
43872 On ch=10 n=42 v=120
43882 Off ch=10 n=38 v=64
43882 Off ch=10 n=42 v=64
43920 On ch=10 n=36 v=85
43920 On ch=10 n=42 v=80
43930 Off ch=10 n=36 v=64
43930 Off ch=10 n=42 v=64
43968 On ch=10 n=36 v=85
43968 On ch=10 n=42 v=117
43978 Off ch=10 n=36 v=64
43978 Off ch=10 n=42 v=64
44020 On ch=10 n=42 v=86
44030 Off ch=10 n=42 v=64
44064 On ch=10 n=38 v=85
44064 On ch=10 n=42 v=119
44068 On ch=10 n=64 v=80
44074 Off ch=10 n=38 v=64
44074 Off ch=10 n=42 v=64
44078 Off ch=10 n=64 v=64
44112 On ch=10 n=64 v=82
44112 On ch=10 n=36 v=87
44112 On ch=10 n=42 v=87
44122 Off ch=10 n=64 v=64
44122 Off ch=10 n=36 v=64
44122 Off ch=10 n=42 v=64
44160 On ch=10 n=46 v=127
44160 On ch=10 n=36 v=80
44170 Off ch=10 n=46 v=64
44170 Off ch=10 n=36 v=64
44256 On ch=10 n=38 v=83
44266 Off ch=10 n=38 v=64
44304 On ch=10 n=36 v=84
44304 On ch=10 n=42 v=84
44314 Off ch=10 n=36 v=64
44314 Off ch=10 n=42 v=64
44352 On ch=10 n=36 v=83
44352 On ch=10 n=42 v=118
44362 Off ch=10 n=36 v=64
44362 Off ch=10 n=42 v=64
44404 On ch=10 n=42 v=87
44414 Off ch=10 n=42 v=64
44448 On ch=10 n=38 v=83
44448 On ch=10 n=42 v=123
44458 Off ch=10 n=38 v=64
44458 Off ch=10 n=42 v=64
44496 On ch=10 n=36 v=80
44496 On ch=10 n=42 v=80
44506 Off ch=10 n=36 v=64
44506 Off ch=10 n=42 v=64
44544 On ch=10 n=42 v=123
44554 Off ch=10 n=42 v=64
44592 On ch=10 n=42 v=87
44602 Off ch=10 n=42 v=64
44640 On ch=10 n=38 v=85
44640 On ch=10 n=42 v=118
44650 Off ch=10 n=38 v=64
44650 Off ch=10 n=42 v=64
44688 On ch=10 n=36 v=87
44688 On ch=10 n=42 v=82
44698 Off ch=10 n=36 v=64
44698 Off ch=10 n=42 v=64
44736 On ch=10 n=36 v=86
44736 On ch=10 n=42 v=119
44746 Off ch=10 n=36 v=64
44746 Off ch=10 n=42 v=64
44788 On ch=10 n=42 v=87
44798 Off ch=10 n=42 v=64
44832 On ch=10 n=38 v=87
44832 On ch=10 n=42 v=123
44836 On ch=10 n=64 v=80
44842 Off ch=10 n=38 v=64
44842 Off ch=10 n=42 v=64
44846 Off ch=10 n=64 v=64
44880 On ch=10 n=64 v=83
44880 On ch=10 n=36 v=84
44880 On ch=10 n=42 v=85
44890 Off ch=10 n=64 v=64
44890 Off ch=10 n=36 v=64
44890 Off ch=10 n=42 v=64
44928 On ch=10 n=46 v=127
44928 On ch=10 n=36 v=84
44938 Off ch=10 n=46 v=64
44938 Off ch=10 n=36 v=64
45024 On ch=10 n=38 v=80
45034 Off ch=10 n=38 v=64
45072 On ch=10 n=36 v=83
45072 On ch=10 n=42 v=87
45082 Off ch=10 n=36 v=64
45082 Off ch=10 n=42 v=64
45120 On ch=10 n=36 v=80
45120 On ch=10 n=42 v=117
45130 Off ch=10 n=36 v=64
45130 Off ch=10 n=42 v=64
45172 On ch=10 n=42 v=86
45182 Off ch=10 n=42 v=64
45216 On ch=10 n=38 v=86
45216 On ch=10 n=42 v=122
45226 Off ch=10 n=38 v=64
45226 Off ch=10 n=42 v=64
45264 On ch=10 n=36 v=83
45264 On ch=10 n=42 v=87
45274 Off ch=10 n=36 v=64
45274 Off ch=10 n=42 v=64
45312 On ch=10 n=42 v=122
45322 Off ch=10 n=42 v=64
45360 On ch=10 n=42 v=86
45370 Off ch=10 n=42 v=64
45408 On ch=10 n=38 v=80
45408 On ch=10 n=42 v=119
45418 Off ch=10 n=38 v=64
45418 Off ch=10 n=42 v=64
45456 On ch=10 n=36 v=82
45456 On ch=10 n=42 v=85
45466 Off ch=10 n=36 v=64
45466 Off ch=10 n=42 v=64
45504 On ch=10 n=36 v=85
45504 On ch=10 n=42 v=119
45514 Off ch=10 n=36 v=64
45514 Off ch=10 n=42 v=64
45556 On ch=10 n=42 v=86
45566 Off ch=10 n=42 v=64
45600 On ch=10 n=38 v=84
45600 On ch=10 n=42 v=120
45604 On ch=10 n=64 v=85
45610 Off ch=10 n=38 v=64
45610 Off ch=10 n=42 v=64
45614 Off ch=10 n=64 v=64
45648 On ch=10 n=64 v=83
45648 On ch=10 n=36 v=87
45648 On ch=10 n=42 v=82
45658 Off ch=10 n=64 v=64
45658 Off ch=10 n=36 v=64
45658 Off ch=10 n=42 v=64
45696 On ch=10 n=46 v=127
45696 On ch=10 n=36 v=86
45706 Off ch=10 n=46 v=64
45706 Off ch=10 n=36 v=64
45792 On ch=10 n=38 v=87
45802 Off ch=10 n=38 v=64
45840 On ch=10 n=36 v=85
45840 On ch=10 n=42 v=86
45850 Off ch=10 n=36 v=64
45850 Off ch=10 n=42 v=64
45888 On ch=10 n=36 v=87
45888 On ch=10 n=42 v=116
45898 Off ch=10 n=36 v=64
45898 Off ch=10 n=42 v=64
45940 On ch=10 n=42 v=87
45950 Off ch=10 n=42 v=64
45984 On ch=10 n=38 v=82
45984 On ch=10 n=42 v=118
45994 Off ch=10 n=38 v=64
45994 Off ch=10 n=42 v=64
46032 On ch=10 n=36 v=81
46032 On ch=10 n=42 v=81
46042 Off ch=10 n=36 v=64
46042 Off ch=10 n=42 v=64
46080 On ch=10 n=42 v=121
46090 Off ch=10 n=42 v=64
46128 On ch=10 n=42 v=84
46138 Off ch=10 n=42 v=64
46176 On ch=10 n=38 v=86
46176 On ch=10 n=42 v=120
46186 Off ch=10 n=38 v=64
46186 Off ch=10 n=42 v=64
46224 On ch=10 n=36 v=81
46224 On ch=10 n=42 v=86
46234 Off ch=10 n=36 v=64
46234 Off ch=10 n=42 v=64
46272 On ch=10 n=36 v=82
46272 On ch=10 n=42 v=120
46282 Off ch=10 n=36 v=64
46282 Off ch=10 n=42 v=64
46324 On ch=10 n=42 v=81
46334 Off ch=10 n=42 v=64
46368 On ch=10 n=38 v=86
46368 On ch=10 n=42 v=122
46372 On ch=10 n=64 v=81
46378 Off ch=10 n=38 v=64
46378 Off ch=10 n=42 v=64
46382 Off ch=10 n=64 v=64
46416 On ch=10 n=64 v=86
46416 On ch=10 n=36 v=84
46416 On ch=10 n=42 v=84
46426 Off ch=10 n=64 v=64
46426 Off ch=10 n=36 v=64
46426 Off ch=10 n=42 v=64
46464 On ch=10 n=46 v=127
46464 On ch=10 n=36 v=84
46474 Off ch=10 n=46 v=64
46474 Off ch=10 n=36 v=64
46560 On ch=10 n=38 v=81
46570 Off ch=10 n=38 v=64
46608 On ch=10 n=36 v=84
46608 On ch=10 n=42 v=80
46618 Off ch=10 n=36 v=64
46618 Off ch=10 n=42 v=64
46656 On ch=10 n=48 v=82
46656 On ch=10 n=36 v=86
46656 On ch=10 n=42 v=121
46666 Off ch=10 n=48 v=64
46666 Off ch=10 n=36 v=64
46666 Off ch=10 n=42 v=64
46704 On ch=10 n=45 v=81
46704 On ch=10 n=42 v=82
46714 Off ch=10 n=45 v=64
46714 Off ch=10 n=42 v=64
46752 On ch=10 n=38 v=83
46752 On ch=10 n=42 v=119
46762 Off ch=10 n=38 v=64
46762 Off ch=10 n=42 v=64
46800 On ch=10 n=49 v=86
46800 On ch=10 n=36 v=87
46810 Off ch=10 n=49 v=64
46810 Off ch=10 n=36 v=64
46848 On ch=10 n=44 v=127
46858 Off ch=10 n=44 v=64
46896 On ch=10 n=44 v=83
46906 Off ch=10 n=44 v=64
46944 On ch=10 n=40 v=124
46944 On ch=10 n=44 v=127
46944 On ch=10 n=54 v=110
46954 Off ch=10 n=40 v=64
46954 Off ch=10 n=44 v=64
46954 Off ch=10 n=54 v=64
46992 On ch=10 n=44 v=87
47002 Off ch=10 n=44 v=64
47040 On ch=10 n=36 v=103
47040 On ch=10 n=44 v=127
47050 Off ch=10 n=36 v=64
47050 Off ch=10 n=44 v=64
47088 On ch=10 n=44 v=82
47098 Off ch=10 n=44 v=64
47136 On ch=10 n=54 v=98
47136 On ch=10 n=44 v=127
47136 On ch=10 n=40 v=123
47146 Off ch=10 n=54 v=64
47146 Off ch=10 n=44 v=64
47146 Off ch=10 n=40 v=64
47184 On ch=10 n=44 v=92
47194 Off ch=10 n=44 v=64
47232 On ch=10 n=44 v=120
47232 On ch=10 n=36 v=116
47242 Off ch=10 n=44 v=64
47242 Off ch=10 n=36 v=64
47280 On ch=10 n=44 v=89
47290 Off ch=10 n=44 v=64
47328 On ch=10 n=54 v=102
47328 On ch=10 n=40 v=123
47328 On ch=10 n=44 v=123
47338 Off ch=10 n=54 v=64
47338 Off ch=10 n=40 v=64
47338 Off ch=10 n=44 v=64
47376 On ch=10 n=44 v=103
47386 Off ch=10 n=44 v=64
47424 On ch=10 n=44 v=127
47424 On ch=10 n=36 v=113
47434 Off ch=10 n=44 v=64
47434 Off ch=10 n=36 v=64
47472 On ch=10 n=44 v=86
47482 Off ch=10 n=44 v=64
47520 On ch=10 n=54 v=110
47520 On ch=10 n=44 v=124
47520 On ch=10 n=40 v=127
47530 Off ch=10 n=54 v=64
47530 Off ch=10 n=44 v=64
47530 Off ch=10 n=40 v=64
47568 On ch=10 n=44 v=91
47578 Off ch=10 n=44 v=64
47616 On ch=10 n=44 v=125
47616 On ch=10 n=36 v=110
47626 Off ch=10 n=44 v=64
47626 Off ch=10 n=36 v=64
47664 On ch=10 n=44 v=97
47674 Off ch=10 n=44 v=64
47712 On ch=10 n=54 v=103
47712 On ch=10 n=44 v=127
47712 On ch=10 n=40 v=126
47722 Off ch=10 n=54 v=64
47722 Off ch=10 n=44 v=64
47722 Off ch=10 n=40 v=64
47760 On ch=10 n=44 v=90
47770 Off ch=10 n=44 v=64
47808 On ch=10 n=44 v=123
47808 On ch=10 n=36 v=110
47818 Off ch=10 n=44 v=64
47818 Off ch=10 n=36 v=64
47856 On ch=10 n=44 v=85
47866 Off ch=10 n=44 v=64
47904 On ch=10 n=44 v=125
47904 On ch=10 n=40 v=119
47904 On ch=10 n=54 v=103
47914 Off ch=10 n=44 v=64
47914 Off ch=10 n=40 v=64
47914 Off ch=10 n=54 v=64
47952 On ch=10 n=44 v=94
47962 Off ch=10 n=44 v=64
48000 On ch=10 n=44 v=127
48000 On ch=10 n=36 v=116
48010 Off ch=10 n=44 v=64
48010 Off ch=10 n=36 v=64
48048 On ch=10 n=44 v=87
48058 Off ch=10 n=44 v=64
48096 On ch=10 n=54 v=106
48096 On ch=10 n=44 v=126
48096 On ch=10 n=40 v=116
48106 Off ch=10 n=54 v=64
48106 Off ch=10 n=44 v=64
48106 Off ch=10 n=40 v=64
48144 On ch=10 n=44 v=93
48154 Off ch=10 n=44 v=64
48192 On ch=10 n=44 v=125
48192 On ch=10 n=36 v=113
48202 Off ch=10 n=44 v=64
48202 Off ch=10 n=36 v=64
48240 On ch=10 n=44 v=93
48250 Off ch=10 n=44 v=64
48288 On ch=10 n=54 v=111
48288 On ch=10 n=44 v=124
48288 On ch=10 n=40 v=121
48298 Off ch=10 n=54 v=64
48298 Off ch=10 n=44 v=64
48298 Off ch=10 n=40 v=64
48336 On ch=10 n=44 v=115
48346 Off ch=10 n=44 v=64
48384 On ch=10 n=46 v=127
48384 On ch=10 n=36 v=84
48394 Off ch=10 n=46 v=64
48394 Off ch=10 n=36 v=64
48480 On ch=10 n=38 v=82
48490 Off ch=10 n=38 v=64
48528 On ch=10 n=36 v=80
48528 On ch=10 n=42 v=87
48538 Off ch=10 n=36 v=64
48538 Off ch=10 n=42 v=64
48576 On ch=10 n=48 v=83
48576 On ch=10 n=36 v=87
48576 On ch=10 n=42 v=120
48586 Off ch=10 n=48 v=64
48586 Off ch=10 n=36 v=64
48586 Off ch=10 n=42 v=64
48624 On ch=10 n=45 v=86
48624 On ch=10 n=42 v=85
48634 Off ch=10 n=45 v=64
48634 Off ch=10 n=42 v=64
48672 On ch=10 n=38 v=85
48672 On ch=10 n=42 v=122
48682 Off ch=10 n=38 v=64
48682 Off ch=10 n=42 v=64
48720 On ch=10 n=49 v=84
48720 On ch=10 n=36 v=86
48730 Off ch=10 n=49 v=64
48730 Off ch=10 n=36 v=64
48768 On ch=10 n=57 v=86
48768 On ch=10 n=44 v=127
48778 Off ch=10 n=57 v=64
48778 Off ch=10 n=44 v=64
48816 On ch=10 n=44 v=87
48826 Off ch=10 n=44 v=64
48864 On ch=10 n=40 v=121
48864 On ch=10 n=44 v=126
48864 On ch=10 n=54 v=111
48874 Off ch=10 n=40 v=64
48874 Off ch=10 n=44 v=64
48874 Off ch=10 n=54 v=64
48912 On ch=10 n=44 v=85
48922 Off ch=10 n=44 v=64
48960 On ch=10 n=36 v=105
48960 On ch=10 n=44 v=127
48970 Off ch=10 n=36 v=64
48970 Off ch=10 n=44 v=64
49008 On ch=10 n=44 v=84
49018 Off ch=10 n=44 v=64
49056 On ch=10 n=54 v=104
49056 On ch=10 n=44 v=127
49056 On ch=10 n=40 v=127
49066 Off ch=10 n=54 v=64
49066 Off ch=10 n=44 v=64
49066 Off ch=10 n=40 v=64
49104 On ch=10 n=44 v=95
49114 Off ch=10 n=44 v=64
49152 On ch=10 n=44 v=123
49152 On ch=10 n=36 v=112
49162 Off ch=10 n=44 v=64
49162 Off ch=10 n=36 v=64
49200 On ch=10 n=44 v=85
49210 Off ch=10 n=44 v=64
49248 On ch=10 n=54 v=103
49248 On ch=10 n=40 v=127
49248 On ch=10 n=44 v=123
49258 Off ch=10 n=54 v=64
49258 Off ch=10 n=40 v=64
49258 Off ch=10 n=44 v=64
49296 On ch=10 n=44 v=102
49306 Off ch=10 n=44 v=64
49344 On ch=10 n=44 v=127
49344 On ch=10 n=36 v=112
49354 Off ch=10 n=44 v=64
49354 Off ch=10 n=36 v=64
49392 On ch=10 n=44 v=90
49402 Off ch=10 n=44 v=64
49440 On ch=10 n=54 v=110
49440 On ch=10 n=44 v=127
49440 On ch=10 n=40 v=123
49450 Off ch=10 n=54 v=64
49450 Off ch=10 n=44 v=64
49450 Off ch=10 n=40 v=64
49488 On ch=10 n=44 v=85
49498 Off ch=10 n=44 v=64
49536 On ch=10 n=44 v=122
49546 Off ch=10 n=44 v=64
49584 On ch=10 n=36 v=109
49584 On ch=10 n=44 v=98
49594 Off ch=10 n=36 v=64
49594 Off ch=10 n=44 v=64
49632 On ch=10 n=54 v=99
49632 On ch=10 n=44 v=127
49632 On ch=10 n=40 v=124
49642 Off ch=10 n=54 v=64
49642 Off ch=10 n=44 v=64
49642 Off ch=10 n=40 v=64
49680 On ch=10 n=36 v=110
49680 On ch=10 n=44 v=97
49690 Off ch=10 n=36 v=64
49690 Off ch=10 n=44 v=64
49728 On ch=10 n=44 v=127
49738 Off ch=10 n=44 v=64
49776 On ch=10 n=36 v=108
49776 On ch=10 n=43 v=111
49776 On ch=10 n=44 v=110
49786 Off ch=10 n=36 v=64
49786 Off ch=10 n=43 v=64
49786 Off ch=10 n=44 v=64
49824 On ch=10 n=36 v=108
49824 On ch=10 n=41 v=108
49824 On ch=10 n=44 v=123
49824 On ch=10 n=40 v=125
49824 On ch=10 n=54 v=107
49834 Off ch=10 n=36 v=64
49834 Off ch=10 n=41 v=64
49834 Off ch=10 n=44 v=64
49834 Off ch=10 n=40 v=64
49834 Off ch=10 n=54 v=64
49872 On ch=10 n=36 v=87
49872 On ch=10 n=49 v=100
49882 Off ch=10 n=36 v=64
49882 Off ch=10 n=49 v=64
49920 On ch=10 n=46 v=127
49920 On ch=10 n=36 v=83
49930 Off ch=10 n=46 v=64
49930 Off ch=10 n=36 v=64
50016 On ch=10 n=38 v=83
50026 Off ch=10 n=38 v=64
50064 On ch=10 n=36 v=80
50064 On ch=10 n=42 v=83
50074 Off ch=10 n=36 v=64
50074 Off ch=10 n=42 v=64
50112 On ch=10 n=48 v=82
50112 On ch=10 n=36 v=83
50112 On ch=10 n=42 v=118
50122 Off ch=10 n=48 v=64
50122 Off ch=10 n=36 v=64
50122 Off ch=10 n=42 v=64
50160 On ch=10 n=45 v=82
50160 On ch=10 n=42 v=85
50170 Off ch=10 n=45 v=64
50170 Off ch=10 n=42 v=64
50208 On ch=10 n=38 v=86
50208 On ch=10 n=42 v=122
50218 Off ch=10 n=38 v=64
50218 Off ch=10 n=42 v=64
50256 On ch=10 n=49 v=80
50256 On ch=10 n=36 v=81
50266 Off ch=10 n=49 v=64
50266 Off ch=10 n=36 v=64
50304 On ch=10 n=57 v=81
50304 On ch=10 n=44 v=127
50314 Off ch=10 n=57 v=64
50314 Off ch=10 n=44 v=64
50352 On ch=10 n=44 v=85
50362 Off ch=10 n=44 v=64
50400 On ch=10 n=40 v=127
50400 On ch=10 n=44 v=127
50400 On ch=10 n=54 v=106
50410 Off ch=10 n=40 v=64
50410 Off ch=10 n=44 v=64
50410 Off ch=10 n=54 v=64
50448 On ch=10 n=44 v=85
50458 Off ch=10 n=44 v=64
50496 On ch=10 n=36 v=103
50496 On ch=10 n=44 v=127
50506 Off ch=10 n=36 v=64
50506 Off ch=10 n=44 v=64
50544 On ch=10 n=44 v=85
50554 Off ch=10 n=44 v=64
50592 On ch=10 n=54 v=100
50592 On ch=10 n=44 v=127
50592 On ch=10 n=40 v=127
50602 Off ch=10 n=54 v=64
50602 Off ch=10 n=44 v=64
50602 Off ch=10 n=40 v=64
50640 On ch=10 n=44 v=96
50650 Off ch=10 n=44 v=64
50688 On ch=10 n=44 v=122
50688 On ch=10 n=36 v=114
50698 Off ch=10 n=44 v=64
50698 Off ch=10 n=36 v=64
50736 On ch=10 n=44 v=84
50746 Off ch=10 n=44 v=64
50784 On ch=10 n=54 v=99
50784 On ch=10 n=40 v=121
50784 On ch=10 n=44 v=127
50794 Off ch=10 n=54 v=64
50794 Off ch=10 n=40 v=64
50794 Off ch=10 n=44 v=64
50832 On ch=10 n=44 v=98
50842 Off ch=10 n=44 v=64
50880 On ch=10 n=44 v=127
50880 On ch=10 n=36 v=118
50890 Off ch=10 n=44 v=64
50890 Off ch=10 n=36 v=64
50928 On ch=10 n=44 v=86
50938 Off ch=10 n=44 v=64
50976 On ch=10 n=54 v=108
50976 On ch=10 n=44 v=127
50976 On ch=10 n=40 v=121
50986 Off ch=10 n=54 v=64
50986 Off ch=10 n=44 v=64
50986 Off ch=10 n=40 v=64
51024 On ch=10 n=44 v=89
51034 Off ch=10 n=44 v=64
51072 On ch=10 n=44 v=125
51072 On ch=10 n=36 v=115
51082 Off ch=10 n=44 v=64
51082 Off ch=10 n=36 v=64
51120 On ch=10 n=44 v=95
51130 Off ch=10 n=44 v=64
51168 On ch=10 n=54 v=104
51168 On ch=10 n=44 v=127
51168 On ch=10 n=40 v=125
51178 Off ch=10 n=54 v=64
51178 Off ch=10 n=44 v=64
51178 Off ch=10 n=40 v=64
51216 On ch=10 n=44 v=92
51226 Off ch=10 n=44 v=64
51264 On ch=10 n=44 v=126
51264 On ch=10 n=36 v=103
51274 Off ch=10 n=44 v=64
51274 Off ch=10 n=36 v=64
51312 On ch=10 n=44 v=90
51322 Off ch=10 n=44 v=64
51360 On ch=10 n=44 v=125
51360 On ch=10 n=40 v=120
51360 On ch=10 n=54 v=104
51370 Off ch=10 n=44 v=64
51370 Off ch=10 n=40 v=64
51370 Off ch=10 n=54 v=64
51408 On ch=10 n=46 v=99
51418 Off ch=10 n=46 v=64
51456 On ch=10 n=44 v=122
51456 On ch=10 n=36 v=116
51466 Off ch=10 n=44 v=64
51466 Off ch=10 n=36 v=64
51504 On ch=10 n=44 v=86
51514 Off ch=10 n=44 v=64
51552 On ch=10 n=54 v=99
51552 On ch=10 n=40 v=122
51552 On ch=10 n=44 v=126
51562 Off ch=10 n=54 v=64
51562 Off ch=10 n=40 v=64
51562 Off ch=10 n=44 v=64
51600 On ch=10 n=44 v=101
51610 Off ch=10 n=44 v=64
51648 On ch=10 n=44 v=127
51648 On ch=10 n=36 v=112
51658 Off ch=10 n=44 v=64
51658 Off ch=10 n=36 v=64
51696 On ch=10 n=44 v=93
51706 Off ch=10 n=44 v=64
51744 On ch=10 n=54 v=108
51744 On ch=10 n=44 v=125
51744 On ch=10 n=40 v=121
51754 Off ch=10 n=54 v=64
51754 Off ch=10 n=44 v=64
51754 Off ch=10 n=40 v=64
51792 On ch=10 n=44 v=87
51802 Off ch=10 n=44 v=64
51840 On ch=10 n=44 v=122
51840 On ch=10 n=36 v=116
51850 Off ch=10 n=44 v=64
51850 Off ch=10 n=36 v=64
51888 On ch=10 n=44 v=86
51898 Off ch=10 n=44 v=64
51936 On ch=10 n=54 v=99
51936 On ch=10 n=40 v=122
51936 On ch=10 n=44 v=126
51946 Off ch=10 n=54 v=64
51946 Off ch=10 n=40 v=64
51946 Off ch=10 n=44 v=64
51984 On ch=10 n=44 v=101
51994 Off ch=10 n=44 v=64
52032 On ch=10 n=44 v=127
52032 On ch=10 n=36 v=112
52042 Off ch=10 n=44 v=64
52042 Off ch=10 n=36 v=64
52080 On ch=10 n=44 v=93
52090 Off ch=10 n=44 v=64
52128 On ch=10 n=54 v=108
52128 On ch=10 n=44 v=125
52128 On ch=10 n=40 v=121
52138 Off ch=10 n=54 v=64
52138 Off ch=10 n=44 v=64
52138 Off ch=10 n=40 v=64
52176 On ch=10 n=44 v=87
52186 Off ch=10 n=44 v=64
52224 Par ch=10 c=7 v=100
52224 On ch=10 n=44 v=121
52224 On ch=10 n=36 v=113
52234 Off ch=10 n=44 v=64
52234 Off ch=10 n=36 v=64
52253 Par ch=10 c=7 v=99
52272 On ch=10 n=44 v=84
52282 Off ch=10 n=44 v=64
52283 Par ch=10 c=7 v=98
52313 Par ch=10 c=7 v=97
52320 On ch=10 n=54 v=101
52320 On ch=10 n=40 v=124
52320 On ch=10 n=44 v=125
52330 Off ch=10 n=54 v=64
52330 Off ch=10 n=40 v=64
52330 Off ch=10 n=44 v=64
52343 Par ch=10 c=7 v=96
52368 On ch=10 n=44 v=101
52372 Par ch=10 c=7 v=95
52378 Off ch=10 n=44 v=64
52402 Par ch=10 c=7 v=94
52416 On ch=10 n=44 v=124
52416 On ch=10 n=36 v=111
52426 Off ch=10 n=44 v=64
52426 Off ch=10 n=36 v=64
52432 Par ch=10 c=7 v=93
52462 Par ch=10 c=7 v=92
52464 On ch=10 n=44 v=93
52474 Off ch=10 n=44 v=64
52491 Par ch=10 c=7 v=91
52512 On ch=10 n=54 v=105
52512 On ch=10 n=44 v=126
52512 On ch=10 n=40 v=127
52521 Par ch=10 c=7 v=90
52522 Off ch=10 n=54 v=64
52522 Off ch=10 n=44 v=64
52522 Off ch=10 n=40 v=64
52551 Par ch=10 c=7 v=89
52560 On ch=10 n=44 v=86
52570 Off ch=10 n=44 v=64
52581 Par ch=10 c=7 v=88
52608 On ch=10 n=44 v=125
52610 Par ch=10 c=7 v=87
52618 Off ch=10 n=44 v=64
52640 Par ch=10 c=7 v=86
52656 On ch=10 n=36 v=112
52656 On ch=10 n=44 v=95
52666 Off ch=10 n=36 v=64
52666 Off ch=10 n=44 v=64
52670 Par ch=10 c=7 v=85
52700 Par ch=10 c=7 v=84
52704 On ch=10 n=54 v=99
52704 On ch=10 n=44 v=127
52704 On ch=10 n=40 v=127
52714 Off ch=10 n=54 v=64
52714 Off ch=10 n=44 v=64
52714 Off ch=10 n=40 v=64
52729 Par ch=10 c=7 v=83
52752 On ch=10 n=36 v=110
52752 On ch=10 n=44 v=91
52759 Par ch=10 c=7 v=82
52762 Off ch=10 n=36 v=64
52762 Off ch=10 n=44 v=64
52789 Par ch=10 c=7 v=81
52800 On ch=10 n=44 v=125
52810 Off ch=10 n=44 v=64
52819 Par ch=10 c=7 v=80
52848 On ch=10 n=36 v=111
52848 On ch=10 n=43 v=104
52848 On ch=10 n=44 v=110
52848 Par ch=10 c=7 v=79
52858 Off ch=10 n=36 v=64
52858 Off ch=10 n=43 v=64
52858 Off ch=10 n=44 v=64
52878 Par ch=10 c=7 v=78
52896 On ch=10 n=36 v=111
52896 On ch=10 n=41 v=111
52896 On ch=10 n=44 v=121
52896 On ch=10 n=40 v=118
52896 On ch=10 n=54 v=107
52906 Off ch=10 n=36 v=64
52906 Off ch=10 n=41 v=64
52906 Off ch=10 n=44 v=64
52906 Off ch=10 n=40 v=64
52906 Off ch=10 n=54 v=64
52908 Par ch=10 c=7 v=77
52938 Par ch=10 c=7 v=76
52944 On ch=10 n=49 v=101
52944 On ch=10 n=36 v=80
52954 Off ch=10 n=49 v=64
52954 Off ch=10 n=36 v=64
52967 Par ch=10 c=7 v=75
52992 On ch=10 n=44 v=122
52992 On ch=10 n=36 v=116
52997 Par ch=10 c=7 v=74
53002 Off ch=10 n=44 v=64
53002 Off ch=10 n=36 v=64
53027 Par ch=10 c=7 v=73
53040 On ch=10 n=44 v=86
53050 Off ch=10 n=44 v=64
53057 Par ch=10 c=7 v=72
53086 Par ch=10 c=7 v=71
53088 On ch=10 n=54 v=99
53088 On ch=10 n=40 v=122
53088 On ch=10 n=44 v=126
53098 Off ch=10 n=54 v=64
53098 Off ch=10 n=40 v=64
53098 Off ch=10 n=44 v=64
53116 Par ch=10 c=7 v=70
53136 On ch=10 n=44 v=101
53146 Off ch=10 n=44 v=64
53146 Par ch=10 c=7 v=69
53176 Par ch=10 c=7 v=68
53184 On ch=10 n=44 v=127
53184 On ch=10 n=36 v=112
53194 Off ch=10 n=44 v=64
53194 Off ch=10 n=36 v=64
53206 Par ch=10 c=7 v=67
53232 On ch=10 n=44 v=93
53235 Par ch=10 c=7 v=66
53242 Off ch=10 n=44 v=64
53265 Par ch=10 c=7 v=65
53280 On ch=10 n=54 v=108
53280 On ch=10 n=44 v=125
53280 On ch=10 n=40 v=121
53290 Off ch=10 n=54 v=64
53290 Off ch=10 n=44 v=64
53290 Off ch=10 n=40 v=64
53295 Par ch=10 c=7 v=64
53325 Par ch=10 c=7 v=63
53328 On ch=10 n=44 v=87
53338 Off ch=10 n=44 v=64
53354 Par ch=10 c=7 v=62
53376 On ch=10 n=44 v=122
53376 On ch=10 n=36 v=116
53384 Par ch=10 c=7 v=61
53386 Off ch=10 n=44 v=64
53386 Off ch=10 n=36 v=64
53414 Par ch=10 c=7 v=60
53424 On ch=10 n=44 v=86
53434 Off ch=10 n=44 v=64
53444 Par ch=10 c=7 v=59
53472 On ch=10 n=54 v=99
53472 On ch=10 n=40 v=122
53472 On ch=10 n=44 v=126
53473 Par ch=10 c=7 v=58
53482 Off ch=10 n=54 v=64
53482 Off ch=10 n=40 v=64
53482 Off ch=10 n=44 v=64
53503 Par ch=10 c=7 v=57
53520 On ch=10 n=44 v=101
53530 Off ch=10 n=44 v=64
53533 Par ch=10 c=7 v=56
53563 Par ch=10 c=7 v=55
53568 On ch=10 n=44 v=127
53568 On ch=10 n=36 v=112
53578 Off ch=10 n=44 v=64
53578 Off ch=10 n=36 v=64
53592 Par ch=10 c=7 v=54
53616 On ch=10 n=44 v=93
53622 Par ch=10 c=7 v=53
53626 Off ch=10 n=44 v=64
53652 Par ch=10 c=7 v=52
53664 On ch=10 n=54 v=108
53664 On ch=10 n=44 v=125
53664 On ch=10 n=40 v=121
53674 Off ch=10 n=54 v=64
53674 Off ch=10 n=44 v=64
53674 Off ch=10 n=40 v=64
53682 Par ch=10 c=7 v=51
53711 Par ch=10 c=7 v=50
53712 On ch=10 n=44 v=87
53722 Off ch=10 n=44 v=64
53741 Par ch=10 c=7 v=49
53760 On ch=10 n=44 v=122
53760 On ch=10 n=36 v=116
53770 Off ch=10 n=44 v=64
53770 Off ch=10 n=36 v=64
53771 Par ch=10 c=7 v=48
53801 Par ch=10 c=7 v=47
53808 On ch=10 n=44 v=86
53818 Off ch=10 n=44 v=64
53830 Par ch=10 c=7 v=46
53856 On ch=10 n=54 v=99
53856 On ch=10 n=40 v=122
53856 On ch=10 n=44 v=126
53860 Par ch=10 c=7 v=45
53866 Off ch=10 n=54 v=64
53866 Off ch=10 n=40 v=64
53866 Off ch=10 n=44 v=64
53890 Par ch=10 c=7 v=44
53904 On ch=10 n=44 v=101
53914 Off ch=10 n=44 v=64
53920 Par ch=10 c=7 v=43
53949 Par ch=10 c=7 v=42
53952 On ch=10 n=44 v=127
53952 On ch=10 n=36 v=112
53962 Off ch=10 n=44 v=64
53962 Off ch=10 n=36 v=64
53979 Par ch=10 c=7 v=41
54000 On ch=10 n=44 v=93
54009 Par ch=10 c=7 v=40
54010 Off ch=10 n=44 v=64
54039 Par ch=10 c=7 v=39
54048 On ch=10 n=54 v=108
54048 On ch=10 n=44 v=125
54048 On ch=10 n=40 v=121
54058 Off ch=10 n=54 v=64
54058 Off ch=10 n=44 v=64
54058 Off ch=10 n=40 v=64
54068 Par ch=10 c=7 v=38
54096 On ch=10 n=44 v=87
54098 Par ch=10 c=7 v=37
54106 Off ch=10 n=44 v=64
54128 Par ch=10 c=7 v=36
54144 On ch=10 n=44 v=122
54144 On ch=10 n=36 v=116
54154 Off ch=10 n=44 v=64
54154 Off ch=10 n=36 v=64
54158 Par ch=10 c=7 v=35
54188 Par ch=10 c=7 v=34
54192 On ch=10 n=44 v=86
54202 Off ch=10 n=44 v=64
54217 Par ch=10 c=7 v=33
54240 On ch=10 n=54 v=99
54240 On ch=10 n=40 v=122
54240 On ch=10 n=44 v=126
54247 Par ch=10 c=7 v=32
54250 Off ch=10 n=54 v=64
54250 Off ch=10 n=40 v=64
54250 Off ch=10 n=44 v=64
54277 Par ch=10 c=7 v=31
54288 On ch=10 n=44 v=101
54298 Off ch=10 n=44 v=64
54307 Par ch=10 c=7 v=30
54336 On ch=10 n=44 v=127
54336 On ch=10 n=36 v=112
54336 Par ch=10 c=7 v=29
54346 Off ch=10 n=44 v=64
54346 Off ch=10 n=36 v=64
54366 Par ch=10 c=7 v=28
54384 On ch=10 n=44 v=93
54394 Off ch=10 n=44 v=64
54396 Par ch=10 c=7 v=27
54426 Par ch=10 c=7 v=26
54432 On ch=10 n=54 v=108
54432 On ch=10 n=44 v=125
54432 On ch=10 n=40 v=121
54442 Off ch=10 n=54 v=64
54442 Off ch=10 n=44 v=64
54442 Off ch=10 n=40 v=64
54455 Par ch=10 c=7 v=25
54480 On ch=10 n=44 v=87
54485 Par ch=10 c=7 v=24
54490 Off ch=10 n=44 v=64
54515 Par ch=10 c=7 v=23
54528 On ch=10 n=44 v=122
54528 On ch=10 n=36 v=116
54538 Off ch=10 n=44 v=64
54538 Off ch=10 n=36 v=64
54545 Par ch=10 c=7 v=22
54574 Par ch=10 c=7 v=21
54576 On ch=10 n=44 v=86
54586 Off ch=10 n=44 v=64
54604 Par ch=10 c=7 v=20
54624 On ch=10 n=54 v=99
54624 On ch=10 n=40 v=122
54624 On ch=10 n=44 v=126
54634 Off ch=10 n=54 v=64
54634 Off ch=10 n=40 v=64
54634 Off ch=10 n=44 v=64
54634 Par ch=10 c=7 v=19
54664 Par ch=10 c=7 v=18
54672 On ch=10 n=44 v=101
54682 Off ch=10 n=44 v=64
54693 Par ch=10 c=7 v=17
54720 On ch=10 n=44 v=127
54720 On ch=10 n=36 v=112
54723 Par ch=10 c=7 v=16
54730 Off ch=10 n=44 v=64
54730 Off ch=10 n=36 v=64
54753 Par ch=10 c=7 v=15
54768 On ch=10 n=44 v=93
54778 Off ch=10 n=44 v=64
54783 Par ch=10 c=7 v=14
54812 Par ch=10 c=7 v=13
54816 On ch=10 n=54 v=108
54816 On ch=10 n=44 v=125
54816 On ch=10 n=40 v=121
54826 Off ch=10 n=54 v=64
54826 Off ch=10 n=44 v=64
54826 Off ch=10 n=40 v=64
54842 Par ch=10 c=7 v=12
54864 On ch=10 n=44 v=87
54872 Par ch=10 c=7 v=11
54874 Off ch=10 n=44 v=64
54902 Par ch=10 c=7 v=10
54912 On ch=10 n=44 v=122
54912 On ch=10 n=36 v=116
54922 Off ch=10 n=44 v=64
54922 Off ch=10 n=36 v=64
54931 Par ch=10 c=7 v=9
54960 On ch=10 n=44 v=86
54961 Par ch=10 c=7 v=8
54970 Off ch=10 n=44 v=64
54991 Par ch=10 c=7 v=7
55008 On ch=10 n=54 v=99
55008 On ch=10 n=40 v=122
55008 On ch=10 n=44 v=126
55018 Off ch=10 n=54 v=64
55018 Off ch=10 n=40 v=64
55018 Off ch=10 n=44 v=64
55021 Par ch=10 c=7 v=6
55051 Par ch=10 c=7 v=5
55056 On ch=10 n=44 v=101
55066 Off ch=10 n=44 v=64
55080 Par ch=10 c=7 v=4
55104 On ch=10 n=44 v=127
55104 On ch=10 n=36 v=112
55110 Par ch=10 c=7 v=3
55114 Off ch=10 n=44 v=64
55114 Off ch=10 n=36 v=64
55140 Par ch=10 c=7 v=2
55152 On ch=10 n=44 v=93
55162 Off ch=10 n=44 v=64
55170 Par ch=10 c=7 v=1
55199 Par ch=10 c=7 v=0
55200 On ch=10 n=54 v=108
55200 On ch=10 n=44 v=125
55200 On ch=10 n=40 v=121
55210 Off ch=10 n=54 v=64
55210 Off ch=10 n=44 v=64
55210 Off ch=10 n=40 v=64
55248 On ch=10 n=44 v=87
55258 Off ch=10 n=44 v=64
55258 Meta TrkEnd
TrkEnd
