MFile 1 10 384
MTrk
0 TimeSig 4/4 96 8
0 SeqSpec 00 00 41
0 Tempo 821917
49152 Tempo 857142
50688 Tempo 821917
102912 Tempo 857142
104448 Tempo 923076
105984 Tempo 1000000
105984 Meta TrkEnd
TrkEnd
MTrk
0 Meta TrkName "Acou Bass1          "
0 Par ch=2 c=0 v=0
0 PrCh ch=2 p=32
0 Par ch=2 c=7 v=127
0 KeySig 0 major
0 Pb ch=2 v=8192
0 Par ch=2 c=64 v=0
0 Par ch=2 c=1 v=0
0 Par ch=2 c=11 v=100
26112 Par ch=2 c=7 v=0
26160 Par ch=2 c=7 v=2
26208 Par ch=2 c=7 v=4
26256 Par ch=2 c=7 v=6
26304 Par ch=2 c=7 v=8
26352 Par ch=2 c=7 v=10
26400 Par ch=2 c=7 v=12
26448 Par ch=2 c=7 v=14
26496 Par ch=2 c=7 v=16
26544 Par ch=2 c=7 v=18
26592 Par ch=2 c=7 v=20
26640 Par ch=2 c=7 v=22
26688 Par ch=2 c=7 v=24
26736 Par ch=2 c=7 v=26
26784 Par ch=2 c=7 v=28
26832 Par ch=2 c=7 v=30
26880 Par ch=2 c=7 v=32
26928 Par ch=2 c=7 v=34
26976 Par ch=2 c=7 v=36
27024 Par ch=2 c=7 v=38
27072 Par ch=2 c=7 v=40
27120 Par ch=2 c=7 v=42
27168 Par ch=2 c=7 v=44
27216 Par ch=2 c=7 v=46
27264 Par ch=2 c=7 v=48
27312 Par ch=2 c=7 v=50
27360 Par ch=2 c=7 v=52
27408 Par ch=2 c=7 v=54
27456 Par ch=2 c=7 v=56
27504 Par ch=2 c=7 v=58
27552 Par ch=2 c=7 v=60
27600 Par ch=2 c=7 v=62
27648 Par ch=2 c=7 v=64
27696 Par ch=2 c=7 v=66
27744 Par ch=2 c=7 v=68
27792 Par ch=2 c=7 v=70
27840 Par ch=2 c=7 v=72
27888 Par ch=2 c=7 v=74
27936 Par ch=2 c=7 v=76
27984 Par ch=2 c=7 v=78
28032 Par ch=2 c=7 v=80
28080 Par ch=2 c=7 v=82
28128 Par ch=2 c=7 v=84
28176 Par ch=2 c=7 v=86
28224 Par ch=2 c=7 v=88
28272 Par ch=2 c=7 v=90
28320 Par ch=2 c=7 v=92
28368 Par ch=2 c=7 v=94
28416 Par ch=2 c=7 v=96
28464 Par ch=2 c=7 v=98
28512 Par ch=2 c=7 v=100
28560 Par ch=2 c=7 v=102
28608 Par ch=2 c=7 v=104
28656 Par ch=2 c=7 v=106
28704 Par ch=2 c=7 v=108
28752 Par ch=2 c=7 v=110
29568 On ch=2 n=40 v=100
29744 Off ch=2 n=40 v=64
29760 On ch=2 n=38 v=100
29936 Off ch=2 n=38 v=64
29952 On ch=2 n=36 v=100
30496 Off ch=2 n=36 v=64
30528 On ch=2 n=43 v=100
30608 Off ch=2 n=43 v=64
30720 On ch=2 n=48 v=100
31264 Off ch=2 n=48 v=64
31392 On ch=2 n=43 v=100
31472 Off ch=2 n=43 v=64
31488 On ch=2 n=43 v=100
32208 Off ch=2 n=43 v=64
32256 On ch=2 n=45 v=100
32800 Off ch=2 n=45 v=64
32832 On ch=2 n=43 v=100
32992 Off ch=2 n=43 v=64
33024 On ch=2 n=41 v=100
33376 Off ch=2 n=41 v=64
33408 On ch=2 n=48 v=100
33760 Off ch=2 n=48 v=64
33792 On ch=2 n=36 v=100
34336 Off ch=2 n=36 v=64
34368 On ch=2 n=40 v=100
34544 Off ch=2 n=40 v=64
34560 On ch=2 n=43 v=100
35280 Off ch=2 n=43 v=64
35328 On ch=2 n=53 v=100
35680 Off ch=2 n=53 v=64
35712 On ch=2 n=40 v=100
35888 Off ch=2 n=40 v=64
35904 On ch=2 n=38 v=100
36080 Off ch=2 n=38 v=64
36096 On ch=2 n=36 v=100
36464 Off ch=2 n=36 v=64
36480 On ch=2 n=48 v=100
36560 Off ch=2 n=48 v=64
36576 On ch=2 n=48 v=100
36656 Off ch=2 n=48 v=64
36672 On ch=2 n=47 v=100
36752 Off ch=2 n=47 v=64
36768 On ch=2 n=47 v=100
36848 Off ch=2 n=47 v=64
36864 On ch=2 n=45 v=100
37232 Off ch=2 n=45 v=64
37248 On ch=2 n=45 v=100
37368 Off ch=2 n=45 v=64
37632 On ch=2 n=43 v=100
37808 Off ch=2 n=43 v=64
37824 On ch=2 n=43 v=100
38000 Off ch=2 n=43 v=64
38016 On ch=2 n=43 v=100
38136 Off ch=2 n=43 v=64
38400 On ch=2 n=41 v=100
38768 Off ch=2 n=41 v=64
38784 On ch=2 n=41 v=100
38904 Off ch=2 n=41 v=64
39072 On ch=2 n=48 v=100
39152 Off ch=2 n=48 v=64
39168 On ch=2 n=36 v=100
39632 Off ch=2 n=36 v=64
39648 On ch=2 n=40 v=100
39728 Off ch=2 n=40 v=64
39744 Pb ch=2 v=6892
39744 On ch=2 n=43 v=100
39824 Pb ch=2 v=7192
39832 Pb ch=2 v=7392
39840 Pb ch=2 v=7792
39848 Pb ch=2 v=8192
39920 Off ch=2 n=43 v=64
39936 On ch=2 n=36 v=100
40112 Off ch=2 n=36 v=64
40128 On ch=2 n=36 v=100
40304 Off ch=2 n=36 v=64
40320 On ch=2 n=40 v=100
40496 Off ch=2 n=40 v=64
40512 On ch=2 n=41 v=100
40632 Off ch=2 n=41 v=64
40704 On ch=2 n=43 v=100
41072 Off ch=2 n=43 v=64
41088 On ch=2 n=43 v=100
41208 Off ch=2 n=43 v=64
41472 On ch=2 n=41 v=100
41840 Off ch=2 n=41 v=64
41856 On ch=2 n=40 v=100
42032 Off ch=2 n=40 v=64
42048 On ch=2 n=38 v=100
42224 Off ch=2 n=38 v=64
42240 On ch=2 n=36 v=100
42608 Off ch=2 n=36 v=64
42624 On ch=2 n=48 v=100
42744 Off ch=2 n=48 v=64
42816 On ch=2 n=43 v=100
42936 Off ch=2 n=43 v=64
43008 On ch=2 n=45 v=100
43376 Off ch=2 n=45 v=64
43392 On ch=2 n=45 v=100
43512 Off ch=2 n=45 v=64
43584 On ch=2 n=48 v=100
43704 Off ch=2 n=48 v=64
43776 On ch=2 n=43 v=100
44144 Off ch=2 n=43 v=64
44160 On ch=2 n=43 v=100
44280 Off ch=2 n=43 v=64
44352 On ch=2 n=48 v=100
44472 Off ch=2 n=48 v=64
44544 On ch=2 n=41 v=100
44912 Off ch=2 n=41 v=64
44928 On ch=2 n=41 v=100
45048 Off ch=2 n=41 v=64
45120 On ch=2 n=48 v=100
45240 Off ch=2 n=48 v=64
45312 On ch=2 n=36 v=100
45680 Off ch=2 n=36 v=64
45696 On ch=2 n=36 v=100
45776 Off ch=2 n=36 v=64
45792 On ch=2 n=40 v=100
45872 Off ch=2 n=40 v=64
45888 Pb ch=2 v=6892
45888 On ch=2 n=43 v=100
45968 Pb ch=2 v=7192
45976 Pb ch=2 v=7392
45984 Pb ch=2 v=7792
45992 Pb ch=2 v=8192
46064 Off ch=2 n=43 v=64
46080 On ch=2 n=36 v=100
46448 Off ch=2 n=36 v=64
46464 On ch=2 n=40 v=100
46640 Off ch=2 n=40 v=64
46656 On ch=2 n=41 v=100
46832 Off ch=2 n=41 v=64
46848 On ch=2 n=43 v=100
47392 Off ch=2 n=43 v=64
47424 On ch=2 n=43 v=100
47568 Off ch=2 n=43 v=64
47616 On ch=2 n=41 v=100
47984 Off ch=2 n=41 v=64
48000 On ch=2 n=40 v=100
48176 Off ch=2 n=40 v=64
48192 On ch=2 n=38 v=100
48368 Off ch=2 n=38 v=64
48384 On ch=2 n=36 v=100
48560 Off ch=2 n=36 v=64
48576 On ch=2 n=48 v=100
48656 Off ch=2 n=48 v=64
48672 On ch=2 n=48 v=100
48752 Off ch=2 n=48 v=64
48768 On ch=2 n=48 v=100
48848 Off ch=2 n=48 v=64
48864 On ch=2 n=48 v=100
48944 Off ch=2 n=48 v=64
48960 On ch=2 n=48 v=100
49136 Off ch=2 n=48 v=64
49152 On ch=2 n=41 v=100
49520 Off ch=2 n=41 v=64
49536 On ch=2 n=40 v=100
49712 Off ch=2 n=40 v=64
49728 On ch=2 n=38 v=100
49904 Off ch=2 n=38 v=64
49920 On ch=2 n=36 v=100
50288 Off ch=2 n=36 v=64
50304 On ch=2 n=46 v=100
50480 Off ch=2 n=46 v=64
50496 On ch=2 n=45 v=100
50672 Off ch=2 n=45 v=64
50688 On ch=2 n=43 v=100
51056 Off ch=2 n=43 v=64
51072 On ch=2 n=41 v=100
51440 Off ch=2 n=41 v=64
51456 On ch=2 n=36 v=100
52192 Off ch=2 n=36 v=64
52224 On ch=2 n=41 v=100
52976 Off ch=2 n=41 v=64
52992 On ch=2 n=48 v=100
53744 Off ch=2 n=48 v=64
53760 On ch=2 n=43 v=100
54128 Off ch=2 n=43 v=64
54144 On ch=2 n=41 v=100
54512 Off ch=2 n=41 v=64
54528 Pb ch=2 v=6192
54528 Pb ch=2 v=6592
54528 On ch=2 n=48 v=100
54536 Pb ch=2 v=6992
54544 Pb ch=2 v=7392
54552 Pb ch=2 v=7792
54560 Pb ch=2 v=8192
54896 Off ch=2 n=48 v=64
54912 On ch=2 n=48 v=100
54992 Off ch=2 n=48 v=64
55008 On ch=2 n=48 v=100
55088 Off ch=2 n=48 v=64
55104 On ch=2 n=48 v=100
55280 Off ch=2 n=48 v=64
55296 On ch=2 n=36 v=100
55760 Off ch=2 n=36 v=64
55776 On ch=2 n=40 v=100
55952 Off ch=2 n=40 v=64
55968 On ch=2 n=41 v=100
56048 Off ch=2 n=41 v=64
56064 On ch=2 n=43 v=100
56608 Off ch=2 n=43 v=64
56640 On ch=2 n=43 v=100
56816 Off ch=2 n=43 v=64
56832 On ch=2 n=45 v=100
56912 Off ch=2 n=45 v=64
56928 On ch=2 n=45 v=100
57200 Off ch=2 n=45 v=64
57216 On ch=2 n=45 v=100
57336 Off ch=2 n=45 v=64
57408 On ch=2 n=43 v=100
57528 Off ch=2 n=43 v=64
57600 On ch=2 n=41 v=100
57968 Off ch=2 n=41 v=64
57984 Pb ch=2 v=6892
57984 On ch=2 n=43 v=100
58160 Pb ch=2 v=7192
58168 Pb ch=2 v=7392
58176 Pb ch=2 v=7792
58184 Pb ch=2 v=8192
58352 Off ch=2 n=43 v=64
58368 On ch=2 n=36 v=100
58736 Off ch=2 n=36 v=64
58752 On ch=2 n=48 v=100
58928 Off ch=2 n=48 v=64
58944 On ch=2 n=40 v=100
59024 Off ch=2 n=40 v=64
59040 On ch=2 n=41 v=100
59120 Off ch=2 n=41 v=64
59136 On ch=2 n=43 v=100
59504 Off ch=2 n=43 v=64
59520 On ch=2 n=31 v=100
59696 Off ch=2 n=31 v=64
59712 On ch=2 n=43 v=100
59888 Off ch=2 n=43 v=64
59904 On ch=2 n=41 v=100
60176 Off ch=2 n=41 v=64
60192 On ch=2 n=41 v=100
60272 Off ch=2 n=41 v=64
60288 On ch=2 n=40 v=100
60464 Off ch=2 n=40 v=64
60480 On ch=2 n=38 v=100
60656 Off ch=2 n=38 v=64
60672 On ch=2 n=36 v=100
60752 Off ch=2 n=36 v=64
60768 On ch=2 n=36 v=100
60848 Off ch=2 n=36 v=64
60864 On ch=2 n=48 v=100
60944 Off ch=2 n=48 v=64
60960 On ch=2 n=48 v=100
61040 Off ch=2 n=48 v=64
61056 On ch=2 n=48 v=100
61136 Off ch=2 n=48 v=64
61152 On ch=2 n=43 v=100
61232 Off ch=2 n=43 v=64
61248 On ch=2 n=45 v=100
61328 Off ch=2 n=45 v=64
61344 On ch=2 n=40 v=100
61424 Off ch=2 n=40 v=64
61440 On ch=2 n=36 v=100
61808 Off ch=2 n=36 v=64
61824 On ch=2 n=40 v=100
62000 Off ch=2 n=40 v=64
62016 On ch=2 n=41 v=100
62192 Off ch=2 n=41 v=64
62208 On ch=2 n=43 v=100
62384 Off ch=2 n=43 v=64
62400 On ch=2 n=43 v=100
62480 Off ch=2 n=43 v=64
62496 On ch=2 n=43 v=100
62576 Off ch=2 n=43 v=64
62592 On ch=2 n=43 v=100
62672 Off ch=2 n=43 v=64
62688 On ch=2 n=43 v=100
62768 Off ch=2 n=43 v=64
62784 On ch=2 n=43 v=100
62960 Off ch=2 n=43 v=64
62976 On ch=2 n=45 v=100
63344 Off ch=2 n=45 v=64
63360 On ch=2 n=45 v=100
63536 Off ch=2 n=45 v=64
63552 On ch=2 n=43 v=100
63728 Off ch=2 n=43 v=64
63744 On ch=2 n=41 v=100
64112 Off ch=2 n=41 v=64
64128 On ch=2 n=41 v=100
64304 Off ch=2 n=41 v=64
64320 On ch=2 n=48 v=100
64464 Pb ch=2 v=7392
64472 Pb ch=2 v=6992
64480 Pb ch=2 v=6192
64488 Pb ch=2 v=5392
64496 Pb ch=2 v=4592
64504 Pb ch=2 v=3792
64512 Off ch=2 n=48 v=64
64512 Pb ch=2 v=8192
64512 On ch=2 n=36 v=100
64784 Off ch=2 n=36 v=64
64800 On ch=2 n=48 v=100
64880 Off ch=2 n=48 v=64
64896 On ch=2 n=48 v=100
64976 Off ch=2 n=48 v=64
65088 On ch=2 n=40 v=100
65264 Off ch=2 n=40 v=64
65280 On ch=2 n=43 v=100
65648 Off ch=2 n=43 v=64
65664 On ch=2 n=31 v=100
65840 Off ch=2 n=31 v=64
65856 On ch=2 n=43 v=100
66032 Off ch=2 n=43 v=64
66048 On ch=2 n=41 v=100
66320 Off ch=2 n=41 v=64
66336 On ch=2 n=41 v=100
66416 Off ch=2 n=41 v=64
66432 On ch=2 n=40 v=100
66608 Off ch=2 n=40 v=64
66624 On ch=2 n=38 v=100
66800 Off ch=2 n=38 v=64
66816 On ch=2 n=36 v=100
66992 Off ch=2 n=36 v=64
67008 On ch=2 n=48 v=100
67088 Off ch=2 n=48 v=64
67104 On ch=2 n=48 v=100
67184 Off ch=2 n=48 v=64
67200 Pb ch=2 v=8842
67200 On ch=2 n=35 v=100
67288 Pb ch=2 v=8592
67296 Pb ch=2 v=8392
67304 Pb ch=2 v=8192
67376 Off ch=2 n=35 v=64
67392 On ch=2 n=35 v=100
67568 Off ch=2 n=35 v=64
67584 On ch=2 n=45 v=100
67952 Off ch=2 n=45 v=64
67968 On ch=2 n=45 v=100
68336 Off ch=2 n=45 v=64
68352 On ch=2 n=43 v=100
68624 Off ch=2 n=43 v=64
68640 On ch=2 n=43 v=100
68720 Off ch=2 n=43 v=64
68736 On ch=2 n=43 v=100
68896 Off ch=2 n=43 v=64
69120 On ch=2 n=41 v=100
69488 Off ch=2 n=41 v=64
69504 On ch=2 n=41 v=100
69624 Off ch=2 n=41 v=64
69888 On ch=2 n=36 v=100
70160 Off ch=2 n=36 v=64
70176 On ch=2 n=36 v=100
70256 Off ch=2 n=36 v=64
70272 On ch=2 n=48 v=100
70640 Off ch=2 n=48 v=64
70656 On ch=2 n=36 v=100
70832 Off ch=2 n=36 v=64
70848 On ch=2 n=36 v=100
71392 Off ch=2 n=36 v=64
71424 On ch=2 n=43 v=100
71792 Off ch=2 n=43 v=64
71808 On ch=2 n=43 v=100
71944 Off ch=2 n=43 v=64
72192 On ch=2 n=41 v=100
72560 Off ch=2 n=41 v=64
72576 On ch=2 n=40 v=100
72752 Off ch=2 n=40 v=64
72768 On ch=2 n=38 v=100
72944 Off ch=2 n=38 v=64
72960 On ch=2 n=36 v=100
73712 Off ch=2 n=36 v=64
73728 On ch=2 n=36 v=100
73888 Off ch=2 n=36 v=64
73920 On ch=2 n=36 v=100
74288 Off ch=2 n=36 v=64
74304 On ch=2 n=36 v=100
74384 Off ch=2 n=36 v=64
74400 On ch=2 n=29 v=100
74480 Off ch=2 n=29 v=64
74496 On ch=2 n=31 v=100
74656 Off ch=2 n=31 v=64
74688 On ch=2 n=19 v=100
75056 Off ch=2 n=19 v=64
75072 On ch=2 n=31 v=100
75232 Off ch=2 n=31 v=64
75264 On ch=2 n=45 v=100
75632 Off ch=2 n=45 v=64
75648 On ch=2 n=45 v=100
75768 Off ch=2 n=45 v=64
75840 On ch=2 n=43 v=100
75960 Off ch=2 n=43 v=64
76032 On ch=2 n=41 v=100
76400 Off ch=2 n=41 v=64
76416 On ch=2 n=41 v=100
76536 Off ch=2 n=41 v=64
76608 On ch=2 n=43 v=100
76728 Off ch=2 n=43 v=64
76800 On ch=2 n=36 v=100
77344 Off ch=2 n=36 v=64
77376 On ch=2 n=40 v=100
77552 Off ch=2 n=40 v=64
77568 On ch=2 n=43 v=100
78112 Off ch=2 n=43 v=64
78720 On ch=2 n=40 v=100
78896 Off ch=2 n=40 v=64
78912 On ch=2 n=38 v=100
79088 Off ch=2 n=38 v=64
79104 On ch=2 n=36 v=100
79648 Off ch=2 n=36 v=64
79680 On ch=2 n=43 v=100
79760 Off ch=2 n=43 v=64
79872 On ch=2 n=48 v=100
80416 Off ch=2 n=48 v=64
80544 On ch=2 n=43 v=100
80624 Off ch=2 n=43 v=64
80640 On ch=2 n=43 v=100
81360 Off ch=2 n=43 v=64
81408 On ch=2 n=45 v=100
81952 Off ch=2 n=45 v=64
81984 On ch=2 n=43 v=100
82144 Off ch=2 n=43 v=64
82176 On ch=2 n=41 v=100
82528 Off ch=2 n=41 v=64
82560 On ch=2 n=48 v=100
82912 Off ch=2 n=48 v=64
82944 On ch=2 n=36 v=100
83488 Off ch=2 n=36 v=64
83520 On ch=2 n=40 v=100
83696 Off ch=2 n=40 v=64
83712 On ch=2 n=43 v=100
84432 Off ch=2 n=43 v=64
84480 On ch=2 n=53 v=100
84832 Off ch=2 n=53 v=64
84864 On ch=2 n=40 v=100
85040 Off ch=2 n=40 v=64
85056 On ch=2 n=38 v=100
85232 Off ch=2 n=38 v=64
85248 On ch=2 n=36 v=100
85616 Off ch=2 n=36 v=64
85632 On ch=2 n=48 v=100
85712 Off ch=2 n=48 v=64
85728 On ch=2 n=48 v=100
85808 Off ch=2 n=48 v=64
85824 On ch=2 n=47 v=100
85904 Off ch=2 n=47 v=64
85920 On ch=2 n=47 v=100
86000 Off ch=2 n=47 v=64
86016 On ch=2 n=45 v=100
86384 Off ch=2 n=45 v=64
86400 On ch=2 n=45 v=100
86520 Off ch=2 n=45 v=64
86784 On ch=2 n=43 v=100
86960 Off ch=2 n=43 v=64
86976 On ch=2 n=43 v=100
87152 Off ch=2 n=43 v=64
87168 On ch=2 n=43 v=100
87288 Off ch=2 n=43 v=64
87552 On ch=2 n=41 v=100
87920 Off ch=2 n=41 v=64
87936 On ch=2 n=41 v=100
88056 Off ch=2 n=41 v=64
88224 On ch=2 n=48 v=100
88304 Off ch=2 n=48 v=64
88320 On ch=2 n=36 v=100
88784 Off ch=2 n=36 v=64
88800 On ch=2 n=40 v=100
88880 Off ch=2 n=40 v=64
88896 Pb ch=2 v=6892
88896 On ch=2 n=43 v=100
88976 Pb ch=2 v=7192
88984 Pb ch=2 v=7392
88992 Pb ch=2 v=7792
89000 Pb ch=2 v=8192
89072 Off ch=2 n=43 v=64
89088 On ch=2 n=36 v=100
89264 Off ch=2 n=36 v=64
89280 On ch=2 n=36 v=100
89456 Off ch=2 n=36 v=64
89472 On ch=2 n=40 v=100
89648 Off ch=2 n=40 v=64
89664 On ch=2 n=41 v=100
89784 Off ch=2 n=41 v=64
89856 On ch=2 n=43 v=100
90224 Off ch=2 n=43 v=64
90240 On ch=2 n=43 v=100
90360 Off ch=2 n=43 v=64
90624 On ch=2 n=41 v=100
90992 Off ch=2 n=41 v=64
91008 On ch=2 n=40 v=100
91184 Off ch=2 n=40 v=64
91200 On ch=2 n=38 v=100
91376 Off ch=2 n=38 v=64
91392 On ch=2 n=36 v=100
91760 Off ch=2 n=36 v=64
91776 On ch=2 n=48 v=100
91896 Off ch=2 n=48 v=64
91968 On ch=2 n=43 v=100
92088 Off ch=2 n=43 v=64
92160 On ch=2 n=45 v=100
92528 Off ch=2 n=45 v=64
92544 On ch=2 n=45 v=100
92664 Off ch=2 n=45 v=64
92736 On ch=2 n=48 v=100
92856 Off ch=2 n=48 v=64
92928 On ch=2 n=43 v=100
93296 Off ch=2 n=43 v=64
93312 On ch=2 n=43 v=100
93432 Off ch=2 n=43 v=64
93504 On ch=2 n=48 v=100
93624 Off ch=2 n=48 v=64
93696 On ch=2 n=41 v=100
94064 Off ch=2 n=41 v=64
94080 On ch=2 n=41 v=100
94200 Off ch=2 n=41 v=64
94272 On ch=2 n=48 v=100
94392 Off ch=2 n=48 v=64
94464 On ch=2 n=36 v=100
94832 Off ch=2 n=36 v=64
94848 On ch=2 n=36 v=100
94928 Off ch=2 n=36 v=64
94944 On ch=2 n=40 v=100
95024 Off ch=2 n=40 v=64
95040 Pb ch=2 v=6892
95040 On ch=2 n=43 v=100
95120 Pb ch=2 v=7192
95128 Pb ch=2 v=7392
95136 Pb ch=2 v=7792
95144 Pb ch=2 v=8192
95216 Off ch=2 n=43 v=64
95232 On ch=2 n=36 v=100
95600 Off ch=2 n=36 v=64
95616 On ch=2 n=40 v=100
95792 Off ch=2 n=40 v=64
95808 On ch=2 n=41 v=100
95984 Off ch=2 n=41 v=64
96000 On ch=2 n=43 v=100
96544 Off ch=2 n=43 v=64
96576 On ch=2 n=43 v=100
96720 Off ch=2 n=43 v=64
96768 On ch=2 n=41 v=100
97040 Off ch=2 n=41 v=64
97056 On ch=2 n=41 v=100
97136 Off ch=2 n=41 v=64
97152 On ch=2 n=40 v=100
97328 Off ch=2 n=40 v=64
97344 On ch=2 n=38 v=100
97520 Off ch=2 n=38 v=64
97536 On ch=2 n=36 v=100
97904 Off ch=2 n=36 v=64
97920 On ch=2 n=48 v=100
98040 Off ch=2 n=48 v=64
98112 On ch=2 n=47 v=100
98232 Off ch=2 n=47 v=64
98304 On ch=2 n=45 v=100
98672 Off ch=2 n=45 v=64
98688 On ch=2 n=48 v=100
98848 Off ch=2 n=48 v=64
99072 On ch=2 n=43 v=100
99440 Off ch=2 n=43 v=64
99456 On ch=2 n=48 v=100
99616 Off ch=2 n=48 v=64
99840 On ch=2 n=53 v=100
100208 Off ch=2 n=53 v=64
100224 On ch=2 n=48 v=100
100400 Off ch=2 n=48 v=64
100608 On ch=2 n=36 v=100
100976 Off ch=2 n=36 v=64
100992 On ch=2 n=48 v=100
101072 Off ch=2 n=48 v=64
101088 On ch=2 n=43 v=100
101168 Off ch=2 n=43 v=64
101184 On ch=2 n=45 v=100
101264 Off ch=2 n=45 v=64
101280 On ch=2 n=48 v=100
101360 Off ch=2 n=48 v=64
101376 On ch=2 n=36 v=100
101744 Off ch=2 n=36 v=64
101760 On ch=2 n=40 v=100
101936 Off ch=2 n=40 v=64
101952 On ch=2 n=41 v=100
102128 Off ch=2 n=41 v=64
102144 On ch=2 n=43 v=100
102512 Off ch=2 n=43 v=64
102528 On ch=2 n=35 v=100
102704 Off ch=2 n=35 v=64
102720 On ch=2 n=38 v=100
102896 Off ch=2 n=38 v=64
102912 On ch=2 n=41 v=100
103280 Off ch=2 n=41 v=64
103296 On ch=2 n=40 v=100
103472 Off ch=2 n=40 v=64
103488 On ch=2 n=38 v=100
103664 Off ch=2 n=38 v=64
103680 On ch=2 n=36 v=100
104048 Off ch=2 n=36 v=64
104064 On ch=2 n=48 v=100
104144 Off ch=2 n=48 v=64
104160 On ch=2 n=48 v=100
104240 Off ch=2 n=48 v=64
104256 On ch=2 n=48 v=100
104432 Off ch=2 n=48 v=64
104448 On ch=2 n=41 v=100
104816 Off ch=2 n=41 v=64
104832 On ch=2 n=40 v=100
104952 Off ch=2 n=40 v=64
105024 On ch=2 n=38 v=100
105144 Off ch=2 n=38 v=64
105216 On ch=2 n=36 v=100
105584 Off ch=2 n=36 v=64
105600 On ch=2 n=46 v=100
105776 Off ch=2 n=46 v=64
105792 On ch=2 n=45 v=100
105968 Off ch=2 n=45 v=64
105984 On ch=2 n=43 v=100
106352 Off ch=2 n=43 v=64
106368 On ch=2 n=41 v=100
106736 Off ch=2 n=41 v=64
106752 On ch=2 n=36 v=100
107504 Off ch=2 n=36 v=64
107520 Par ch=2 c=7 v=96
107904 Par ch=2 c=7 v=96
107904 Meta TrkEnd
TrkEnd
MTrk
0 Meta TrkName "Elec Gtr 1          "
0 Par ch=3 c=0 v=0
0 PrCh ch=3 p=0
0 KeySig 0 major
0 Pb ch=3 v=8192
0 Par ch=3 c=64 v=0
0 Par ch=3 c=1 v=0
0 Par ch=3 c=11 v=105
0 Par ch=3 c=64 v=127
0 On ch=3 n=36 v=110
0 On ch=3 n=64 v=95
8 On ch=3 n=67 v=80
8 Par ch=3 c=7 v=110
16 On ch=3 n=72 v=100
176 Off ch=3 n=36 v=64
192 On ch=3 n=48 v=100
368 Off ch=3 n=64 v=64
376 Off ch=3 n=67 v=64
376 Off ch=3 n=72 v=64
384 On ch=3 n=64 v=95
392 On ch=3 n=67 v=80
400 On ch=3 n=72 v=100
560 Off ch=3 n=48 v=64
576 On ch=3 n=48 v=100
752 Off ch=3 n=64 v=64
752 Off ch=3 n=48 v=64
760 Off ch=3 n=67 v=64
760 Off ch=3 n=72 v=64
768 On ch=3 n=59 v=95
768 On ch=3 n=40 v=80
768 On ch=3 n=62 v=80
776 On ch=3 n=41 v=80
776 On ch=3 n=67 v=100
784 Off ch=3 n=40 v=64
784 Par ch=3 c=64 v=0
784 On ch=3 n=43 v=100
792 Off ch=3 n=41 v=64
824 Par ch=3 c=64 v=127
912 Off ch=3 n=43 v=64
960 On ch=3 n=43 v=100
1136 Off ch=3 n=59 v=64
1136 Off ch=3 n=62 v=64
1144 Off ch=3 n=67 v=64
1152 On ch=3 n=59 v=95
1152 On ch=3 n=62 v=80
1160 On ch=3 n=67 v=100
1328 Off ch=3 n=43 v=64
1344 On ch=3 n=43 v=100
1520 Off ch=3 n=59 v=64
1520 Off ch=3 n=62 v=64
1520 Off ch=3 n=43 v=64
1528 Off ch=3 n=67 v=64
1536 On ch=3 n=33 v=100
1536 On ch=3 n=57 v=95
1544 On ch=3 n=60 v=80
1552 On ch=3 n=64 v=100
1568 Par ch=3 c=64 v=0
1600 Par ch=3 c=64 v=127
1712 Off ch=3 n=33 v=64
1728 On ch=3 n=45 v=100
1904 Off ch=3 n=57 v=64
1912 Off ch=3 n=60 v=64
1912 Off ch=3 n=64 v=64
1920 On ch=3 n=57 v=95
1920 On ch=3 n=60 v=80
1920 On ch=3 n=64 v=100
2096 Off ch=3 n=45 v=64
2096 Off ch=3 n=57 v=64
2096 Off ch=3 n=60 v=64
2096 Off ch=3 n=64 v=64
2112 On ch=3 n=53 v=90
2112 On ch=3 n=57 v=80
2112 On ch=3 n=31 v=100
2112 On ch=3 n=43 v=100
2112 On ch=3 n=62 v=100
2288 Off ch=3 n=53 v=64
2288 Off ch=3 n=57 v=64
2288 Off ch=3 n=31 v=64
2288 Off ch=3 n=43 v=64
2288 Off ch=3 n=62 v=64
2304 On ch=3 n=53 v=95
2304 On ch=3 n=29 v=80
2304 On ch=3 n=41 v=80
2304 On ch=3 n=60 v=80
2312 On ch=3 n=57 v=100
2336 Par ch=3 c=64 v=0
2368 Par ch=3 c=64 v=127
2480 Off ch=3 n=29 v=64
2480 Off ch=3 n=41 v=64
2496 On ch=3 n=41 v=100
2672 Off ch=3 n=53 v=64
2672 Off ch=3 n=60 v=64
2680 Off ch=3 n=57 v=64
2688 Par ch=3 c=64 v=0
2688 On ch=3 n=53 v=95
2688 On ch=3 n=60 v=80
2696 On ch=3 n=62 v=100
2720 Par ch=3 c=64 v=127
2864 Off ch=3 n=41 v=64
2880 On ch=3 n=41 v=100
3056 Off ch=3 n=53 v=64
3056 Off ch=3 n=60 v=64
3056 Off ch=3 n=41 v=64
3064 Off ch=3 n=62 v=64
3072 Par ch=3 c=64 v=0
3072 On ch=3 n=36 v=100
3072 On ch=3 n=60 v=95
3080 On ch=3 n=64 v=80
3088 On ch=3 n=67 v=100
3248 Off ch=3 n=36 v=64
3264 On ch=3 n=48 v=100
3440 Off ch=3 n=60 v=64
3448 Off ch=3 n=64 v=64
3448 Off ch=3 n=67 v=64
3456 On ch=3 n=60 v=95
3464 On ch=3 n=64 v=80
3472 On ch=3 n=67 v=100
3632 Off ch=3 n=48 v=64
3648 On ch=3 n=48 v=100
3824 Off ch=3 n=60 v=64
3824 Off ch=3 n=48 v=64
3832 Off ch=3 n=64 v=64
3832 Off ch=3 n=67 v=64
3840 On ch=3 n=59 v=95
3840 On ch=3 n=43 v=100
3840 On ch=3 n=62 v=80
3848 On ch=3 n=67 v=100
3872 Par ch=3 c=64 v=0
3904 Par ch=3 c=64 v=127
4000 Off ch=3 n=43 v=64
4032 On ch=3 n=43 v=100
4208 Off ch=3 n=59 v=64
4208 Off ch=3 n=62 v=64
4216 Off ch=3 n=67 v=64
4224 On ch=3 n=59 v=95
4224 On ch=3 n=62 v=80
4232 On ch=3 n=67 v=100
4400 Off ch=3 n=43 v=64
4416 On ch=3 n=43 v=100
4592 Off ch=3 n=59 v=64
4592 Off ch=3 n=62 v=64
4592 Off ch=3 n=43 v=64
4600 Off ch=3 n=67 v=64
4608 On ch=3 n=29 v=100
4608 On ch=3 n=65 v=100
4616 On ch=3 n=69 v=100
4640 Par ch=3 c=64 v=0
4672 Par ch=3 c=64 v=127
4784 Off ch=3 n=29 v=64
4800 On ch=3 n=41 v=100
4976 Off ch=3 n=65 v=64
4984 Off ch=3 n=69 v=64
4992 On ch=3 n=64 v=100
4992 On ch=3 n=67 v=100
5168 Off ch=3 n=64 v=64
5168 Off ch=3 n=67 v=64
5184 On ch=3 n=62 v=100
5184 On ch=3 n=65 v=100
5344 Off ch=3 n=41 v=64
5360 Off ch=3 n=62 v=64
5360 Off ch=3 n=65 v=64
5376 On ch=3 n=36 v=100
5376 On ch=3 n=60 v=100
5392 On ch=3 n=64 v=100
5408 Par ch=3 c=64 v=0
5408 On ch=3 n=67 v=60
5440 Par ch=3 c=64 v=127
5552 Off ch=3 n=36 v=64
5568 On ch=3 n=48 v=100
5744 Off ch=3 n=48 v=64
5760 On ch=3 n=48 v=100
5936 Off ch=3 n=48 v=64
5952 On ch=3 n=48 v=110
6128 Off ch=3 n=60 v=64
6128 Off ch=3 n=64 v=64
6128 Off ch=3 n=67 v=64
6144 On ch=3 n=64 v=95
6152 On ch=3 n=67 v=80
6160 On ch=3 n=72 v=100
6176 Par ch=3 c=64 v=0
6208 Par ch=3 c=64 v=127
6320 Off ch=3 n=48 v=64
6336 On ch=3 n=48 v=100
6512 Off ch=3 n=64 v=64
6520 Off ch=3 n=67 v=64
6520 Off ch=3 n=72 v=64
6528 On ch=3 n=64 v=95
6536 On ch=3 n=67 v=80
6544 On ch=3 n=72 v=100
6704 Off ch=3 n=48 v=64
6720 On ch=3 n=48 v=100
6800 Off ch=3 n=48 v=64
6816 On ch=3 n=41 v=100
6896 Off ch=3 n=64 v=64
6896 Off ch=3 n=41 v=64
6904 Off ch=3 n=67 v=64
6904 Off ch=3 n=72 v=64
6912 On ch=3 n=59 v=95
6912 On ch=3 n=43 v=100
6912 On ch=3 n=62 v=80
6920 On ch=3 n=67 v=100
6944 Par ch=3 c=64 v=0
6976 Par ch=3 c=64 v=127
7088 Off ch=3 n=43 v=64
7104 On ch=3 n=31 v=100
7280 Off ch=3 n=59 v=64
7280 Off ch=3 n=62 v=64
7288 Off ch=3 n=67 v=64
7296 On ch=3 n=59 v=95
7296 On ch=3 n=62 v=80
7304 On ch=3 n=67 v=100
7472 Off ch=3 n=31 v=64
7488 On ch=3 n=43 v=100
7664 Off ch=3 n=59 v=64
7664 Off ch=3 n=62 v=64
7664 Off ch=3 n=43 v=64
7672 Off ch=3 n=67 v=64
7680 On ch=3 n=33 v=100
7680 On ch=3 n=57 v=95
7688 On ch=3 n=60 v=80
7696 On ch=3 n=64 v=100
7712 Par ch=3 c=64 v=0
7744 Par ch=3 c=64 v=127
7856 Off ch=3 n=33 v=64
7872 On ch=3 n=45 v=100
8048 Off ch=3 n=57 v=64
8056 Off ch=3 n=60 v=64
8056 Off ch=3 n=64 v=64
8064 On ch=3 n=57 v=95
8064 On ch=3 n=60 v=80
8064 On ch=3 n=64 v=100
8240 Off ch=3 n=45 v=64
8240 Off ch=3 n=57 v=64
8240 Off ch=3 n=60 v=64
8240 Off ch=3 n=64 v=64
8256 On ch=3 n=53 v=90
8256 On ch=3 n=57 v=80
8256 On ch=3 n=31 v=100
8256 On ch=3 n=43 v=100
8256 On ch=3 n=62 v=100
8432 Off ch=3 n=53 v=64
8432 Off ch=3 n=57 v=64
8432 Off ch=3 n=31 v=64
8432 Off ch=3 n=43 v=64
8432 Off ch=3 n=62 v=64
8448 On ch=3 n=29 v=80
8448 On ch=3 n=41 v=80
8448 On ch=3 n=53 v=95
8456 On ch=3 n=60 v=80
8464 On ch=3 n=57 v=100
8480 Par ch=3 c=64 v=0
8512 Par ch=3 c=64 v=127
8624 Off ch=3 n=29 v=64
8624 Off ch=3 n=41 v=64
8640 On ch=3 n=41 v=100
8816 Off ch=3 n=53 v=64
8824 Off ch=3 n=60 v=64
8824 Off ch=3 n=57 v=64
8832 Par ch=3 c=64 v=0
8832 On ch=3 n=53 v=95
8840 On ch=3 n=60 v=80
8848 On ch=3 n=62 v=100
8864 Par ch=3 c=64 v=127
9008 Off ch=3 n=41 v=64
9024 On ch=3 n=36 v=100
9056 Par ch=3 c=64 v=0
9088 Par ch=3 c=64 v=127
9200 Off ch=3 n=53 v=64
9200 Off ch=3 n=36 v=64
9208 Off ch=3 n=60 v=64
9208 Off ch=3 n=62 v=64
9216 On ch=3 n=36 v=100
9216 On ch=3 n=60 v=95
9224 On ch=3 n=64 v=80
9232 On ch=3 n=67 v=100
9248 Par ch=3 c=64 v=0
9280 Par ch=3 c=64 v=127
9392 Off ch=3 n=36 v=64
9408 On ch=3 n=48 v=100
9584 Off ch=3 n=60 v=64
9592 Off ch=3 n=64 v=64
9592 Off ch=3 n=67 v=64
9600 On ch=3 n=60 v=95
9608 On ch=3 n=64 v=80
9616 On ch=3 n=67 v=100
9776 Off ch=3 n=48 v=64
9792 On ch=3 n=48 v=100
9872 Off ch=3 n=48 v=64
9888 On ch=3 n=41 v=100
9968 Off ch=3 n=60 v=64
9968 Off ch=3 n=41 v=64
9976 Off ch=3 n=64 v=64
9976 Off ch=3 n=67 v=64
9984 On ch=3 n=59 v=95
9984 On ch=3 n=43 v=100
9984 On ch=3 n=62 v=80
9992 On ch=3 n=67 v=100
10016 Par ch=3 c=64 v=0
10048 Par ch=3 c=64 v=127
10160 Off ch=3 n=43 v=64
10176 On ch=3 n=31 v=100
10352 Off ch=3 n=59 v=64
10352 Off ch=3 n=62 v=64
10360 Off ch=3 n=67 v=64
10368 On ch=3 n=59 v=95
10368 On ch=3 n=62 v=80
10376 On ch=3 n=67 v=100
10544 Off ch=3 n=31 v=64
10560 On ch=3 n=43 v=100
10736 Off ch=3 n=59 v=64
10736 Off ch=3 n=62 v=64
10736 Off ch=3 n=43 v=64
10744 Off ch=3 n=67 v=64
10752 On ch=3 n=29 v=100
10752 On ch=3 n=57 v=95
10760 On ch=3 n=60 v=80
10768 On ch=3 n=65 v=100
10784 Par ch=3 c=64 v=0
10816 Par ch=3 c=64 v=127
10928 Off ch=3 n=29 v=64
10944 On ch=3 n=41 v=100
11120 Off ch=3 n=57 v=64
11120 Off ch=3 n=41 v=64
11128 Off ch=3 n=60 v=64
11136 Off ch=3 n=65 v=64
11136 On ch=3 n=60 v=95
11136 On ch=3 n=40 v=100
11136 On ch=3 n=64 v=80
11144 On ch=3 n=67 v=100
11312 Off ch=3 n=60 v=64
11312 Off ch=3 n=40 v=64
11312 Off ch=3 n=64 v=64
11320 Off ch=3 n=67 v=64
11328 On ch=3 n=53 v=90
11328 On ch=3 n=60 v=80
11328 On ch=3 n=38 v=100
11328 On ch=3 n=62 v=90
11504 Off ch=3 n=53 v=64
11504 Off ch=3 n=60 v=64
11504 Off ch=3 n=38 v=64
11504 Off ch=3 n=62 v=64
11520 On ch=3 n=60 v=95
11520 On ch=3 n=36 v=100
11520 On ch=3 n=64 v=80
11528 On ch=3 n=67 v=100
11552 Par ch=3 c=64 v=0
11584 Par ch=3 c=64 v=0
11696 Off ch=3 n=36 v=64
11712 On ch=3 n=48 v=100
11888 Off ch=3 n=60 v=64
11888 Off ch=3 n=64 v=64
11896 Off ch=3 n=67 v=64
11904 On ch=3 n=60 v=95
11904 On ch=3 n=64 v=80
11912 On ch=3 n=67 v=100
12080 Off ch=3 n=48 v=64
12096 On ch=3 n=48 v=100
12272 Off ch=3 n=60 v=64
12272 Off ch=3 n=64 v=64
12280 Off ch=3 n=67 v=64
12288 On ch=3 n=64 v=95
12296 On ch=3 n=67 v=80
12304 On ch=3 n=72 v=100
12320 Par ch=3 c=64 v=0
12352 Par ch=3 c=64 v=127
12464 Off ch=3 n=48 v=64
12480 On ch=3 n=48 v=100
12656 Off ch=3 n=64 v=64
12664 Off ch=3 n=67 v=64
12664 Off ch=3 n=72 v=64
12672 On ch=3 n=64 v=95
12680 On ch=3 n=67 v=80
12688 On ch=3 n=72 v=100
12848 Off ch=3 n=48 v=64
12864 On ch=3 n=48 v=100
12944 Off ch=3 n=48 v=64
12960 On ch=3 n=41 v=100
13040 Off ch=3 n=64 v=64
13040 Off ch=3 n=41 v=64
13048 Off ch=3 n=67 v=64
13048 Off ch=3 n=72 v=64
13056 On ch=3 n=59 v=95
13056 On ch=3 n=43 v=100
13056 On ch=3 n=62 v=80
13064 On ch=3 n=67 v=100
13088 Par ch=3 c=64 v=0
13120 Par ch=3 c=64 v=127
13232 Off ch=3 n=43 v=64
13248 On ch=3 n=31 v=100
13424 Off ch=3 n=59 v=64
13424 Off ch=3 n=62 v=64
13432 Off ch=3 n=67 v=64
13440 On ch=3 n=59 v=95
13440 On ch=3 n=62 v=80
13448 On ch=3 n=67 v=100
13616 Off ch=3 n=31 v=64
13632 On ch=3 n=43 v=100
13808 Off ch=3 n=59 v=64
13808 Off ch=3 n=62 v=64
13808 Off ch=3 n=43 v=64
13816 Off ch=3 n=67 v=64
13824 On ch=3 n=33 v=100
13824 On ch=3 n=57 v=95
13832 On ch=3 n=60 v=80
13840 On ch=3 n=64 v=100
13856 Par ch=3 c=64 v=0
13888 Par ch=3 c=64 v=127
14000 Off ch=3 n=33 v=64
14016 On ch=3 n=45 v=100
14192 Off ch=3 n=57 v=64
14200 Off ch=3 n=60 v=64
14200 Off ch=3 n=64 v=64
14208 On ch=3 n=57 v=95
14208 On ch=3 n=60 v=80
14216 On ch=3 n=64 v=100
14384 Off ch=3 n=45 v=64
14384 Off ch=3 n=57 v=64
14384 Off ch=3 n=60 v=64
14392 Off ch=3 n=64 v=64
14400 On ch=3 n=53 v=90
14400 On ch=3 n=31 v=100
14400 On ch=3 n=43 v=100
14400 On ch=3 n=57 v=80
14408 On ch=3 n=62 v=100
14576 Off ch=3 n=53 v=64
14576 Off ch=3 n=31 v=64
14576 Off ch=3 n=43 v=64
14576 Off ch=3 n=57 v=64
14584 Off ch=3 n=62 v=64
14592 On ch=3 n=53 v=95
14592 On ch=3 n=29 v=80
14592 On ch=3 n=41 v=80
14592 On ch=3 n=60 v=80
14600 On ch=3 n=57 v=100
14624 Par ch=3 c=64 v=0
14656 Par ch=3 c=64 v=127
14768 Off ch=3 n=29 v=64
14768 Off ch=3 n=41 v=64
14784 On ch=3 n=41 v=100
14960 Off ch=3 n=53 v=64
14960 Off ch=3 n=60 v=64
14968 Off ch=3 n=57 v=64
14976 Par ch=3 c=64 v=0
14976 On ch=3 n=53 v=95
14976 On ch=3 n=60 v=80
14984 On ch=3 n=62 v=100
15008 Par ch=3 c=64 v=127
15152 Off ch=3 n=41 v=64
15168 On ch=3 n=36 v=100
15200 Par ch=3 c=64 v=0
15232 Par ch=3 c=64 v=127
15344 Off ch=3 n=53 v=64
15344 Off ch=3 n=60 v=64
15344 Off ch=3 n=36 v=64
15352 Off ch=3 n=62 v=64
15360 On ch=3 n=36 v=100
15360 On ch=3 n=60 v=95
15368 On ch=3 n=64 v=80
15376 On ch=3 n=67 v=100
15392 Par ch=3 c=64 v=0
15424 Par ch=3 c=64 v=127
15536 Off ch=3 n=36 v=64
15552 On ch=3 n=48 v=100
15728 Off ch=3 n=60 v=64
15736 Off ch=3 n=64 v=64
15736 Off ch=3 n=67 v=64
15744 On ch=3 n=60 v=95
15752 On ch=3 n=64 v=80
15760 On ch=3 n=67 v=100
15920 Off ch=3 n=48 v=64
15936 On ch=3 n=48 v=100
16016 Off ch=3 n=48 v=64
16032 On ch=3 n=41 v=100
16112 Off ch=3 n=60 v=64
16112 Off ch=3 n=41 v=64
16120 Off ch=3 n=64 v=64
16120 Off ch=3 n=67 v=64
16128 On ch=3 n=59 v=95
16128 On ch=3 n=43 v=100
16128 On ch=3 n=62 v=80
16136 On ch=3 n=67 v=100
16160 Par ch=3 c=64 v=0
16192 Par ch=3 c=64 v=127
16304 Off ch=3 n=43 v=64
16320 On ch=3 n=31 v=100
16496 Off ch=3 n=59 v=64
16496 Off ch=3 n=62 v=64
16504 Off ch=3 n=67 v=64
16512 On ch=3 n=59 v=95
16512 On ch=3 n=62 v=80
16520 On ch=3 n=67 v=100
16688 Off ch=3 n=31 v=64
16704 On ch=3 n=43 v=100
16880 Off ch=3 n=59 v=64
16880 Off ch=3 n=62 v=64
16880 Off ch=3 n=43 v=64
16888 Off ch=3 n=67 v=64
16896 On ch=3 n=29 v=100
16896 On ch=3 n=57 v=95
16904 On ch=3 n=60 v=80
16912 On ch=3 n=65 v=100
16928 Par ch=3 c=64 v=0
16960 Par ch=3 c=64 v=127
17072 Off ch=3 n=29 v=64
17088 On ch=3 n=41 v=100
17264 Off ch=3 n=57 v=64
17264 Off ch=3 n=41 v=64
17272 Off ch=3 n=60 v=64
17272 Off ch=3 n=65 v=64
17280 On ch=3 n=60 v=95
17280 On ch=3 n=40 v=100
17280 On ch=3 n=64 v=80
17288 On ch=3 n=67 v=100
17456 Off ch=3 n=60 v=64
17456 Off ch=3 n=40 v=64
17456 Off ch=3 n=64 v=64
17464 Off ch=3 n=67 v=64
17472 On ch=3 n=60 v=80
17472 On ch=3 n=38 v=100
17472 On ch=3 n=62 v=90
17480 On ch=3 n=65 v=100
17648 Off ch=3 n=60 v=64
17648 Off ch=3 n=38 v=64
17648 Off ch=3 n=62 v=64
17656 Off ch=3 n=65 v=64
17664 On ch=3 n=60 v=95
17664 On ch=3 n=36 v=100
17664 On ch=3 n=64 v=80
17672 On ch=3 n=67 v=100
17696 Par ch=3 c=64 v=0
17728 Par ch=3 c=64 v=0
17840 Off ch=3 n=36 v=64
17856 On ch=3 n=48 v=100
18032 Off ch=3 n=60 v=64
18032 Off ch=3 n=64 v=64
18032 Off ch=3 n=48 v=64
18040 Off ch=3 n=67 v=64
18048 On ch=3 n=60 v=95
18048 On ch=3 n=43 v=100
18048 On ch=3 n=64 v=80
18056 On ch=3 n=67 v=100
18224 Off ch=3 n=43 v=64
18240 On ch=3 n=31 v=100
18240 On ch=3 n=43 v=100
18416 Off ch=3 n=60 v=64
18416 Off ch=3 n=64 v=64
18416 Off ch=3 n=31 v=64
18416 Off ch=3 n=43 v=64
18424 Off ch=3 n=67 v=64
18432 On ch=3 n=33 v=100
18432 On ch=3 n=45 v=100
18432 On ch=3 n=60 v=95
18440 On ch=3 n=64 v=80
18448 On ch=3 n=69 v=100
18464 Par ch=3 c=64 v=0
18496 Par ch=3 c=64 v=127
18608 Off ch=3 n=33 v=64
18608 Off ch=3 n=45 v=64
18624 On ch=3 n=45 v=100
18800 Off ch=3 n=60 v=64
18808 Off ch=3 n=64 v=64
18808 Off ch=3 n=69 v=64
18816 On ch=3 n=60 v=95
18824 On ch=3 n=64 v=80
18832 On ch=3 n=69 v=100
18992 Off ch=3 n=45 v=64
19008 On ch=3 n=45 v=100
19184 Off ch=3 n=60 v=64
19184 Off ch=3 n=45 v=64
19192 Off ch=3 n=64 v=64
19192 Off ch=3 n=69 v=64
19200 On ch=3 n=60 v=95
19200 On ch=3 n=31 v=100
19200 On ch=3 n=43 v=100
19200 On ch=3 n=64 v=80
19208 On ch=3 n=67 v=100
19232 Par ch=3 c=64 v=0
19264 Par ch=3 c=64 v=127
19376 Off ch=3 n=31 v=64
19376 Off ch=3 n=43 v=64
19392 On ch=3 n=43 v=100
19568 Off ch=3 n=60 v=64
19568 Off ch=3 n=64 v=64
19576 Off ch=3 n=67 v=64
19584 On ch=3 n=60 v=95
19584 On ch=3 n=64 v=80
19592 On ch=3 n=67 v=100
19760 Off ch=3 n=43 v=64
19776 On ch=3 n=43 v=100
19952 Off ch=3 n=60 v=64
19952 Off ch=3 n=64 v=64
19952 Off ch=3 n=43 v=64
19960 Off ch=3 n=67 v=64
19968 On ch=3 n=41 v=100
19968 On ch=3 n=29 v=100
19968 On ch=3 n=57 v=95
19976 On ch=3 n=60 v=80
19984 On ch=3 n=65 v=100
20000 Par ch=3 c=64 v=0
20032 Par ch=3 c=64 v=127
20144 Off ch=3 n=41 v=64
20144 Off ch=3 n=29 v=64
20160 On ch=3 n=41 v=100
20336 Off ch=3 n=57 v=64
20344 Off ch=3 n=60 v=64
20344 Off ch=3 n=65 v=64
20352 On ch=3 n=57 v=95
20360 On ch=3 n=60 v=80
20368 On ch=3 n=65 v=100
20528 Off ch=3 n=41 v=64
20544 On ch=3 n=41 v=100
20720 Off ch=3 n=57 v=64
20720 Off ch=3 n=41 v=64
20728 Off ch=3 n=60 v=64
20728 Off ch=3 n=65 v=64
20736 On ch=3 n=60 v=95
20736 On ch=3 n=36 v=100
20736 On ch=3 n=64 v=80
20744 On ch=3 n=67 v=100
20768 Par ch=3 c=64 v=0
20800 Par ch=3 c=64 v=127
20912 Off ch=3 n=36 v=64
20928 On ch=3 n=48 v=100
21104 Off ch=3 n=60 v=64
21104 Off ch=3 n=64 v=64
21112 Off ch=3 n=67 v=64
21120 On ch=3 n=60 v=95
21120 On ch=3 n=64 v=80
21128 On ch=3 n=67 v=100
21296 Off ch=3 n=48 v=64
21312 On ch=3 n=48 v=100
21488 Off ch=3 n=60 v=64
21488 Off ch=3 n=64 v=64
21488 Off ch=3 n=48 v=64
21496 Off ch=3 n=67 v=64
21504 On ch=3 n=48 v=100
21504 On ch=3 n=60 v=95
21512 On ch=3 n=64 v=80
21520 On ch=3 n=67 v=100
21536 Par ch=3 c=64 v=0
21568 Par ch=3 c=64 v=127
21680 Off ch=3 n=48 v=64
21696 On ch=3 n=36 v=100
21872 Off ch=3 n=60 v=64
21880 Off ch=3 n=64 v=64
21880 Off ch=3 n=67 v=64
21888 On ch=3 n=60 v=95
21896 On ch=3 n=64 v=80
21904 On ch=3 n=67 v=100
22064 Off ch=3 n=36 v=64
22080 On ch=3 n=48 v=100
22160 Off ch=3 n=48 v=64
22176 On ch=3 n=41 v=100
22256 Off ch=3 n=60 v=64
22256 Off ch=3 n=41 v=64
22264 Off ch=3 n=64 v=64
22264 Off ch=3 n=67 v=64
22272 On ch=3 n=59 v=95
22272 On ch=3 n=43 v=100
22272 On ch=3 n=62 v=80
22280 On ch=3 n=67 v=100
22304 Par ch=3 c=64 v=0
22336 Par ch=3 c=64 v=127
22448 Off ch=3 n=43 v=64
22464 On ch=3 n=31 v=100
22640 Off ch=3 n=59 v=64
22640 Off ch=3 n=62 v=64
22648 Off ch=3 n=67 v=64
22656 On ch=3 n=59 v=95
22656 On ch=3 n=62 v=80
22664 On ch=3 n=67 v=100
22832 Off ch=3 n=31 v=64
22848 On ch=3 n=43 v=100
23024 Off ch=3 n=59 v=64
23024 Off ch=3 n=62 v=64
23024 Off ch=3 n=43 v=64
23032 Off ch=3 n=67 v=64
23040 On ch=3 n=29 v=100
23040 On ch=3 n=57 v=100
23048 On ch=3 n=65 v=100
23056 On ch=3 n=69 v=100
23072 Par ch=3 c=64 v=0
23104 Par ch=3 c=64 v=127
23216 Off ch=3 n=29 v=64
23232 On ch=3 n=41 v=100
23408 Off ch=3 n=57 v=64
23408 Off ch=3 n=41 v=64
23416 Off ch=3 n=65 v=64
23416 Off ch=3 n=69 v=64
23424 On ch=3 n=60 v=100
23424 On ch=3 n=40 v=100
23424 On ch=3 n=64 v=100
23432 On ch=3 n=67 v=100
23600 Off ch=3 n=40 v=64
23600 Off ch=3 n=64 v=64
23608 Off ch=3 n=67 v=64
23616 On ch=3 n=38 v=100
23616 On ch=3 n=62 v=100
23624 On ch=3 n=65 v=100
23792 Off ch=3 n=60 v=64
23792 Off ch=3 n=38 v=64
23792 Off ch=3 n=62 v=64
23800 Off ch=3 n=65 v=64
23808 On ch=3 n=36 v=100
23808 On ch=3 n=60 v=100
23824 On ch=3 n=64 v=100
23840 Par ch=3 c=64 v=0
23840 On ch=3 n=67 v=60
23872 Par ch=3 c=64 v=127
23984 Off ch=3 n=36 v=64
24000 On ch=3 n=48 v=115
24176 Off ch=3 n=48 v=64
24192 On ch=3 n=48 v=115
24368 Off ch=3 n=48 v=64
24384 On ch=3 n=48 v=125
24560 Off ch=3 n=60 v=64
24560 Off ch=3 n=64 v=64
24560 Off ch=3 n=67 v=64
24576 On ch=3 n=64 v=95
24584 On ch=3 n=67 v=80
24592 On ch=3 n=72 v=100
24608 Par ch=3 c=64 v=0
24640 Par ch=3 c=64 v=127
24752 Off ch=3 n=48 v=64
24768 On ch=3 n=48 v=100
24944 Off ch=3 n=64 v=64
24952 Off ch=3 n=67 v=64
24952 Off ch=3 n=72 v=64
24960 On ch=3 n=64 v=95
24968 On ch=3 n=67 v=80
24976 On ch=3 n=72 v=100
25136 Off ch=3 n=48 v=64
25152 On ch=3 n=48 v=100
25232 Off ch=3 n=48 v=64
25248 On ch=3 n=41 v=100
25328 Off ch=3 n=64 v=64
25328 Off ch=3 n=41 v=64
25336 Off ch=3 n=67 v=64
25336 Off ch=3 n=72 v=64
25344 On ch=3 n=59 v=95
25344 On ch=3 n=43 v=100
25344 On ch=3 n=62 v=80
25352 On ch=3 n=67 v=100
25376 Par ch=3 c=64 v=0
25408 Par ch=3 c=64 v=127
25520 Off ch=3 n=43 v=64
25536 On ch=3 n=31 v=100
25712 Off ch=3 n=59 v=64
25712 Off ch=3 n=62 v=64
25720 Off ch=3 n=67 v=64
25728 On ch=3 n=59 v=95
25728 On ch=3 n=62 v=80
25736 On ch=3 n=67 v=100
25904 Off ch=3 n=31 v=64
25920 On ch=3 n=43 v=100
26096 Off ch=3 n=59 v=64
26096 Off ch=3 n=62 v=64
26096 Off ch=3 n=43 v=64
26104 Off ch=3 n=67 v=64
26112 On ch=3 n=33 v=100
26112 On ch=3 n=57 v=95
26120 On ch=3 n=60 v=80
26128 On ch=3 n=64 v=100
26144 Par ch=3 c=64 v=0
26176 Par ch=3 c=64 v=127
26288 Off ch=3 n=33 v=64
26304 On ch=3 n=45 v=100
26480 Off ch=3 n=57 v=64
26488 Off ch=3 n=60 v=64
26488 Off ch=3 n=64 v=64
26496 On ch=3 n=57 v=95
26496 On ch=3 n=60 v=80
26504 On ch=3 n=64 v=100
26672 Off ch=3 n=45 v=64
26672 Off ch=3 n=57 v=64
26672 Off ch=3 n=60 v=64
26680 Off ch=3 n=64 v=64
26688 On ch=3 n=53 v=90
26688 On ch=3 n=31 v=100
26688 On ch=3 n=43 v=100
26688 On ch=3 n=57 v=80
26696 On ch=3 n=62 v=100
26864 Off ch=3 n=53 v=64
26864 Off ch=3 n=31 v=64
26864 Off ch=3 n=43 v=64
26864 Off ch=3 n=57 v=64
26872 Off ch=3 n=62 v=64
26880 On ch=3 n=57 v=95
26880 On ch=3 n=29 v=80
26880 On ch=3 n=41 v=80
26880 On ch=3 n=60 v=80
26888 On ch=3 n=64 v=100
26912 Par ch=3 c=64 v=0
26944 Par ch=3 c=64 v=127
27056 Off ch=3 n=29 v=64
27056 Off ch=3 n=41 v=64
27072 On ch=3 n=41 v=100
27248 Off ch=3 n=57 v=64
27248 Off ch=3 n=60 v=64
27256 Off ch=3 n=64 v=64
27264 Par ch=3 c=64 v=0
27264 On ch=3 n=57 v=95
27264 On ch=3 n=60 v=80
27272 On ch=3 n=62 v=100
27296 Par ch=3 c=64 v=127
27440 Off ch=3 n=41 v=64
27456 On ch=3 n=36 v=100
27488 Par ch=3 c=64 v=0
27520 Par ch=3 c=64 v=127
27632 Off ch=3 n=57 v=64
27632 Off ch=3 n=60 v=64
27632 Off ch=3 n=36 v=64
27640 Off ch=3 n=62 v=64
27648 On ch=3 n=48 v=100
27648 On ch=3 n=60 v=95
27656 On ch=3 n=64 v=80
27664 On ch=3 n=67 v=100
27680 Par ch=3 c=64 v=0
27712 Par ch=3 c=64 v=127
27824 Off ch=3 n=48 v=64
27840 On ch=3 n=36 v=100
28016 Off ch=3 n=60 v=64
28024 Off ch=3 n=64 v=64
28024 Off ch=3 n=67 v=64
28032 On ch=3 n=60 v=95
28040 On ch=3 n=64 v=80
28048 On ch=3 n=67 v=100
28208 Off ch=3 n=36 v=64
28224 On ch=3 n=48 v=100
28304 Off ch=3 n=48 v=64
28320 On ch=3 n=41 v=100
28400 Off ch=3 n=60 v=64
28400 Off ch=3 n=41 v=64
28408 Off ch=3 n=64 v=64
28408 Off ch=3 n=67 v=64
28416 On ch=3 n=59 v=95
28416 On ch=3 n=43 v=100
28416 On ch=3 n=62 v=80
28424 On ch=3 n=67 v=100
28448 Par ch=3 c=64 v=0
28480 Par ch=3 c=64 v=127
28592 Off ch=3 n=43 v=64
28608 On ch=3 n=31 v=100
28784 Off ch=3 n=59 v=64
28784 Off ch=3 n=62 v=64
28792 Off ch=3 n=67 v=64
28800 On ch=3 n=59 v=95
28800 On ch=3 n=62 v=80
28808 On ch=3 n=67 v=100
28976 Off ch=3 n=31 v=64
28992 On ch=3 n=43 v=100
29168 Off ch=3 n=59 v=64
29168 Off ch=3 n=62 v=64
29168 Off ch=3 n=43 v=64
29176 Off ch=3 n=67 v=64
29184 On ch=3 n=29 v=100
29184 On ch=3 n=57 v=95
29192 On ch=3 n=60 v=80
29200 On ch=3 n=65 v=100
29216 Par ch=3 c=64 v=0
29248 Par ch=3 c=64 v=127
29360 Off ch=3 n=29 v=64
29376 On ch=3 n=41 v=100
29552 Off ch=3 n=57 v=64
29552 Off ch=3 n=41 v=64
29560 Off ch=3 n=60 v=64
29560 Off ch=3 n=65 v=64
29568 On ch=3 n=60 v=95
29568 On ch=3 n=40 v=100
29568 On ch=3 n=64 v=80
29576 On ch=3 n=67 v=100
29744 Off ch=3 n=60 v=64
29744 Off ch=3 n=40 v=64
29744 Off ch=3 n=64 v=64
29752 Off ch=3 n=67 v=64
29760 On ch=3 n=60 v=80
29760 On ch=3 n=38 v=100
29760 On ch=3 n=65 v=90
29768 On ch=3 n=62 v=90
29936 Off ch=3 n=60 v=64
29936 Off ch=3 n=38 v=64
29936 Off ch=3 n=65 v=64
29944 Off ch=3 n=62 v=64
29952 On ch=3 n=60 v=95
29952 On ch=3 n=36 v=100
29952 On ch=3 n=64 v=80
29960 On ch=3 n=67 v=100
29984 Par ch=3 c=64 v=0
30016 Par ch=3 c=64 v=127
30128 Off ch=3 n=36 v=64
30144 On ch=3 n=48 v=115
30320 Off ch=3 n=60 v=64
30320 Off ch=3 n=64 v=64
30320 Off ch=3 n=48 v=64
30328 Off ch=3 n=67 v=64
30336 On ch=3 n=60 v=95
30336 On ch=3 n=48 v=115
30336 On ch=3 n=64 v=80
30344 On ch=3 n=67 v=100
30512 Off ch=3 n=48 v=64
30528 On ch=3 n=48 v=125
30704 Off ch=3 n=60 v=64
30704 Off ch=3 n=64 v=64
30712 Off ch=3 n=67 v=64
30720 On ch=3 n=60 v=95
30728 On ch=3 n=64 v=80
30736 On ch=3 n=67 v=100
30752 Par ch=3 c=64 v=0
30784 Par ch=3 c=64 v=127
30896 Off ch=3 n=48 v=64
30912 On ch=3 n=36 v=100
31088 Off ch=3 n=60 v=64
31096 Off ch=3 n=64 v=64
31096 Off ch=3 n=67 v=64
31104 On ch=3 n=60 v=95
31112 On ch=3 n=64 v=80
31120 On ch=3 n=67 v=100
31280 Off ch=3 n=36 v=64
31296 On ch=3 n=48 v=100
31376 Off ch=3 n=48 v=64
31392 On ch=3 n=41 v=100
31472 Off ch=3 n=60 v=64
31472 Off ch=3 n=41 v=64
31480 Off ch=3 n=64 v=64
31480 Off ch=3 n=67 v=64
31488 On ch=3 n=59 v=95
31488 On ch=3 n=43 v=100
31488 On ch=3 n=62 v=80
31496 On ch=3 n=67 v=100
31520 Par ch=3 c=64 v=0
31552 Par ch=3 c=64 v=127
31664 Off ch=3 n=43 v=64
31680 On ch=3 n=31 v=100
31856 Off ch=3 n=59 v=64
31856 Off ch=3 n=62 v=64
31864 Off ch=3 n=67 v=64
31872 On ch=3 n=59 v=95
31872 On ch=3 n=62 v=80
31880 On ch=3 n=67 v=100
32048 Off ch=3 n=31 v=64
32064 On ch=3 n=43 v=100
32240 Off ch=3 n=59 v=64
32240 Off ch=3 n=62 v=64
32240 Off ch=3 n=43 v=64
32248 Off ch=3 n=67 v=64
32256 On ch=3 n=45 v=100
32256 On ch=3 n=57 v=95
32264 On ch=3 n=60 v=80
32272 On ch=3 n=64 v=100
32288 Par ch=3 c=64 v=0
32320 Par ch=3 c=64 v=127
32432 Off ch=3 n=45 v=64
32448 On ch=3 n=33 v=100
32624 Off ch=3 n=57 v=64
32632 Off ch=3 n=60 v=64
32632 Off ch=3 n=64 v=64
32640 On ch=3 n=57 v=95
32640 On ch=3 n=60 v=80
32648 On ch=3 n=64 v=100
32816 Off ch=3 n=33 v=64
32816 Off ch=3 n=57 v=64
32816 Off ch=3 n=60 v=64
32824 Off ch=3 n=64 v=64
32832 On ch=3 n=57 v=80
32832 On ch=3 n=43 v=100
32832 On ch=3 n=31 v=100
32832 On ch=3 n=60 v=90
32840 On ch=3 n=64 v=100
33008 Off ch=3 n=57 v=64
33008 Off ch=3 n=43 v=64
33008 Off ch=3 n=31 v=64
33008 Off ch=3 n=60 v=64
33016 Off ch=3 n=64 v=64
33024 On ch=3 n=57 v=95
33024 On ch=3 n=29 v=100
33024 On ch=3 n=60 v=80
33032 On ch=3 n=64 v=100
33056 Par ch=3 c=64 v=0
33088 Par ch=3 c=64 v=127
33392 Off ch=3 n=57 v=64
33392 Off ch=3 n=29 v=64
33392 Off ch=3 n=60 v=64
33400 Off ch=3 n=64 v=64
33408 On ch=3 n=57 v=95
33408 On ch=3 n=48 v=100
33408 On ch=3 n=60 v=80
33416 On ch=3 n=62 v=100
33584 Off ch=3 n=48 v=64
33600 On ch=3 n=36 v=100
33776 Off ch=3 n=57 v=64
33776 Off ch=3 n=60 v=64
33776 Off ch=3 n=36 v=64
33784 Off ch=3 n=62 v=64
33792 On ch=3 n=48 v=100
33792 On ch=3 n=60 v=95
33800 On ch=3 n=64 v=80
33808 On ch=3 n=67 v=100
33824 Par ch=3 c=64 v=0
33856 Par ch=3 c=64 v=127
33968 Off ch=3 n=48 v=64
33984 On ch=3 n=36 v=100
34160 Off ch=3 n=60 v=64
34168 Off ch=3 n=64 v=64
34168 Off ch=3 n=67 v=64
34176 On ch=3 n=60 v=95
34184 On ch=3 n=64 v=80
34192 On ch=3 n=67 v=100
34352 Off ch=3 n=36 v=64
34368 On ch=3 n=36 v=100
34544 Off ch=3 n=60 v=64
34544 Off ch=3 n=36 v=64
34552 Off ch=3 n=64 v=64
34552 Off ch=3 n=67 v=64
34560 On ch=3 n=59 v=95
34560 On ch=3 n=43 v=100
34560 On ch=3 n=62 v=80
34568 On ch=3 n=67 v=100
34592 Par ch=3 c=64 v=0
34624 Par ch=3 c=64 v=127
34736 Off ch=3 n=43 v=64
34752 On ch=3 n=31 v=100
34928 Off ch=3 n=59 v=64
34928 Off ch=3 n=62 v=64
34936 Off ch=3 n=67 v=64
34944 On ch=3 n=59 v=95
34944 On ch=3 n=62 v=80
34952 On ch=3 n=67 v=100
35120 Off ch=3 n=31 v=64
35136 On ch=3 n=43 v=100
35312 Off ch=3 n=59 v=64
35312 Off ch=3 n=62 v=64
35312 Off ch=3 n=43 v=64
35320 Off ch=3 n=67 v=64
35328 On ch=3 n=29 v=100
35328 On ch=3 n=57 v=95
35336 On ch=3 n=60 v=80
35344 On ch=3 n=65 v=100
35360 Par ch=3 c=64 v=0
35392 Par ch=3 c=64 v=127
35504 Off ch=3 n=29 v=64
35696 Off ch=3 n=57 v=64
35704 Off ch=3 n=60 v=64
35704 Off ch=3 n=65 v=64
35712 On ch=3 n=60 v=95
35712 On ch=3 n=40 v=100
35712 On ch=3 n=64 v=80
35720 On ch=3 n=67 v=100
35888 Off ch=3 n=60 v=64
35888 Off ch=3 n=40 v=64
35888 Off ch=3 n=64 v=64
35896 Off ch=3 n=67 v=64
35904 On ch=3 n=60 v=80
35904 On ch=3 n=38 v=100
35904 On ch=3 n=65 v=90
35912 On ch=3 n=62 v=90
36080 Off ch=3 n=60 v=64
36080 Off ch=3 n=38 v=64
36080 Off ch=3 n=65 v=64
36088 Off ch=3 n=62 v=64
36096 On ch=3 n=60 v=95
36096 On ch=3 n=36 v=100
36096 On ch=3 n=64 v=80
36104 On ch=3 n=67 v=100
36128 Par ch=3 c=64 v=0
36160 Par ch=3 c=64 v=127
36272 Off ch=3 n=36 v=64
36288 On ch=3 n=48 v=115
36464 Off ch=3 n=60 v=64
36464 Off ch=3 n=64 v=64
36464 Off ch=3 n=48 v=64
36472 Off ch=3 n=67 v=64
36480 On ch=3 n=60 v=95
36480 On ch=3 n=48 v=115
36480 On ch=3 n=64 v=80
36488 On ch=3 n=67 v=100
36656 Off ch=3 n=48 v=64
36672 On ch=3 n=48 v=125
36848 Off ch=3 n=60 v=64
36848 Off ch=3 n=64 v=64
36856 Off ch=3 n=67 v=64
36864 Off ch=3 n=48 v=64
36864 On ch=3 n=45 v=100
36864 On ch=3 n=33 v=100
36864 On ch=3 n=60 v=95
36872 On ch=3 n=64 v=80
36880 On ch=3 n=69 v=100
36896 Par ch=3 c=64 v=0
36928 Par ch=3 c=64 v=127
37040 Off ch=3 n=45 v=64
37040 Off ch=3 n=33 v=64
37056 On ch=3 n=45 v=100
37232 Off ch=3 n=60 v=64
37240 Off ch=3 n=64 v=64
37240 Off ch=3 n=69 v=64
37248 On ch=3 n=60 v=95
37256 On ch=3 n=64 v=80
37264 On ch=3 n=69 v=100
37424 Off ch=3 n=45 v=64
37440 On ch=3 n=45 v=100
37616 Off ch=3 n=60 v=64
37616 Off ch=3 n=45 v=64
37624 Off ch=3 n=64 v=64
37624 Off ch=3 n=69 v=64
37632 On ch=3 n=60 v=95
37632 On ch=3 n=43 v=100
37632 On ch=3 n=31 v=100
37632 On ch=3 n=64 v=80
37640 On ch=3 n=67 v=100
37664 Par ch=3 c=64 v=0
37696 Par ch=3 c=64 v=127
37808 Off ch=3 n=43 v=64
37808 Off ch=3 n=31 v=64
37824 On ch=3 n=43 v=100
38000 Off ch=3 n=60 v=64
38000 Off ch=3 n=64 v=64
38008 Off ch=3 n=67 v=64
38016 On ch=3 n=60 v=95
38016 On ch=3 n=64 v=80
38024 On ch=3 n=67 v=100
38192 Off ch=3 n=43 v=64
38208 On ch=3 n=43 v=100
38384 Off ch=3 n=60 v=64
38384 Off ch=3 n=64 v=64
38384 Off ch=3 n=43 v=64
38392 Off ch=3 n=67 v=64
38400 On ch=3 n=41 v=100
38400 On ch=3 n=29 v=100
38400 On ch=3 n=57 v=95
38408 On ch=3 n=60 v=80
38416 On ch=3 n=65 v=100
38432 Par ch=3 c=64 v=0
38464 Par ch=3 c=64 v=127
38576 Off ch=3 n=41 v=64
38576 Off ch=3 n=29 v=64
38592 On ch=3 n=41 v=100
38768 Off ch=3 n=57 v=64
38776 Off ch=3 n=60 v=64
38776 Off ch=3 n=65 v=64
38784 On ch=3 n=57 v=95
38792 On ch=3 n=60 v=80
38800 On ch=3 n=65 v=100
38960 Off ch=3 n=41 v=64
38976 On ch=3 n=41 v=100
39152 Off ch=3 n=57 v=64
39152 Off ch=3 n=41 v=64
39160 Off ch=3 n=60 v=64
39160 Off ch=3 n=65 v=64
39168 On ch=3 n=60 v=95
39168 On ch=3 n=36 v=100
39168 On ch=3 n=64 v=80
39176 On ch=3 n=67 v=100
39200 Par ch=3 c=64 v=0
39232 Par ch=3 c=64 v=127
39344 Off ch=3 n=36 v=64
39360 On ch=3 n=48 v=100
39536 Off ch=3 n=60 v=64
39536 Off ch=3 n=64 v=64
39544 Off ch=3 n=67 v=64
39552 On ch=3 n=60 v=95
39552 On ch=3 n=64 v=80
39560 On ch=3 n=67 v=100
39728 Off ch=3 n=48 v=64
39744 On ch=3 n=48 v=100
39920 Off ch=3 n=60 v=64
39920 Off ch=3 n=64 v=64
39920 Off ch=3 n=48 v=64
39928 Off ch=3 n=67 v=64
39936 On ch=3 n=48 v=100
39936 On ch=3 n=60 v=95
39944 On ch=3 n=64 v=80
39952 On ch=3 n=67 v=100
39968 Par ch=3 c=64 v=0
40000 Par ch=3 c=64 v=127
40112 Off ch=3 n=48 v=64
40128 On ch=3 n=36 v=100
40304 Off ch=3 n=60 v=64
40312 Off ch=3 n=64 v=64
40312 Off ch=3 n=67 v=64
40320 On ch=3 n=60 v=95
40328 On ch=3 n=64 v=80
40336 On ch=3 n=67 v=100
40496 Off ch=3 n=36 v=64
40512 On ch=3 n=48 v=100
40592 Off ch=3 n=48 v=64
40608 On ch=3 n=41 v=100
40688 Off ch=3 n=60 v=64
40688 Off ch=3 n=41 v=64
40696 Off ch=3 n=64 v=64
40696 Off ch=3 n=67 v=64
40704 On ch=3 n=59 v=95
40704 On ch=3 n=43 v=100
40704 On ch=3 n=62 v=80
40712 On ch=3 n=67 v=100
40736 Par ch=3 c=64 v=0
40768 Par ch=3 c=64 v=127
40880 Off ch=3 n=43 v=64
40896 On ch=3 n=31 v=100
41072 Off ch=3 n=59 v=64
41072 Off ch=3 n=62 v=64
41080 Off ch=3 n=67 v=64
41088 On ch=3 n=59 v=95
41088 On ch=3 n=62 v=80
41096 On ch=3 n=67 v=100
41264 Off ch=3 n=31 v=64
41280 On ch=3 n=43 v=100
41456 Off ch=3 n=59 v=64
41456 Off ch=3 n=62 v=64
41456 Off ch=3 n=43 v=64
41464 Off ch=3 n=67 v=64
41472 On ch=3 n=29 v=100
41472 On ch=3 n=57 v=100
41480 On ch=3 n=65 v=100
41488 On ch=3 n=69 v=100
41504 Par ch=3 c=64 v=0
41536 Par ch=3 c=64 v=127
41648 Off ch=3 n=29 v=64
41664 On ch=3 n=41 v=100
41840 Off ch=3 n=57 v=64
41840 Off ch=3 n=41 v=64
41848 Off ch=3 n=65 v=64
41848 Off ch=3 n=69 v=64
41856 On ch=3 n=60 v=100
41856 On ch=3 n=40 v=100
41856 On ch=3 n=64 v=100
41864 On ch=3 n=67 v=100
42032 Off ch=3 n=40 v=64
42032 Off ch=3 n=64 v=64
42040 Off ch=3 n=67 v=64
42048 On ch=3 n=38 v=100
42048 On ch=3 n=62 v=100
42056 On ch=3 n=65 v=100
42224 Off ch=3 n=60 v=64
42224 Off ch=3 n=38 v=64
42224 Off ch=3 n=62 v=64
42232 Off ch=3 n=65 v=64
42240 On ch=3 n=36 v=100
42240 On ch=3 n=60 v=100
42256 On ch=3 n=64 v=100
42272 Par ch=3 c=64 v=0
42272 On ch=3 n=67 v=60
42304 Par ch=3 c=64 v=127
42416 Off ch=3 n=36 v=64
42432 On ch=3 n=48 v=115
42608 Off ch=3 n=48 v=64
42624 On ch=3 n=48 v=115
42800 Off ch=3 n=48 v=64
42816 On ch=3 n=48 v=125
42992 Off ch=3 n=60 v=64
42992 Off ch=3 n=64 v=64
42992 Off ch=3 n=67 v=64
43008 Off ch=3 n=48 v=64
43008 On ch=3 n=45 v=100
43008 On ch=3 n=33 v=100
43008 On ch=3 n=60 v=95
43016 On ch=3 n=64 v=80
43024 On ch=3 n=69 v=100
43040 Par ch=3 c=64 v=0
43072 Par ch=3 c=64 v=127
43184 Off ch=3 n=45 v=64
43184 Off ch=3 n=33 v=64
43200 On ch=3 n=45 v=100
43376 Off ch=3 n=60 v=64
43384 Off ch=3 n=64 v=64
43384 Off ch=3 n=69 v=64
43392 On ch=3 n=60 v=95
43400 On ch=3 n=64 v=80
43408 On ch=3 n=69 v=100
43568 Off ch=3 n=45 v=64
43584 On ch=3 n=45 v=100
43760 Off ch=3 n=60 v=64
43760 Off ch=3 n=45 v=64
43768 Off ch=3 n=64 v=64
43768 Off ch=3 n=69 v=64
43776 On ch=3 n=60 v=95
43776 On ch=3 n=43 v=100
43776 On ch=3 n=31 v=100
43776 On ch=3 n=64 v=80
43784 On ch=3 n=67 v=100
43808 Par ch=3 c=64 v=0
43840 Par ch=3 c=64 v=127
43952 Off ch=3 n=43 v=64
43952 Off ch=3 n=31 v=64
43968 On ch=3 n=43 v=100
44144 Off ch=3 n=60 v=64
44144 Off ch=3 n=64 v=64
44152 Off ch=3 n=67 v=64
44160 On ch=3 n=60 v=95
44160 On ch=3 n=64 v=80
44168 On ch=3 n=67 v=100
44336 Off ch=3 n=43 v=64
44352 On ch=3 n=43 v=100
44528 Off ch=3 n=60 v=64
44528 Off ch=3 n=64 v=64
44528 Off ch=3 n=43 v=64
44536 Off ch=3 n=67 v=64
44544 On ch=3 n=41 v=100
44544 On ch=3 n=29 v=100
44544 On ch=3 n=57 v=95
44552 On ch=3 n=60 v=80
44560 On ch=3 n=65 v=100
44576 Par ch=3 c=64 v=0
44608 Par ch=3 c=64 v=127
44720 Off ch=3 n=41 v=64
44720 Off ch=3 n=29 v=64
44736 On ch=3 n=41 v=100
44912 Off ch=3 n=57 v=64
44920 Off ch=3 n=60 v=64
44920 Off ch=3 n=65 v=64
44928 On ch=3 n=57 v=95
44936 On ch=3 n=60 v=80
44944 On ch=3 n=65 v=100
45104 Off ch=3 n=41 v=64
45120 On ch=3 n=41 v=100
45296 Off ch=3 n=57 v=64
45296 Off ch=3 n=41 v=64
45304 Off ch=3 n=60 v=64
45304 Off ch=3 n=65 v=64
45312 On ch=3 n=60 v=95
45312 On ch=3 n=36 v=100
45312 On ch=3 n=64 v=80
45320 On ch=3 n=67 v=100
45344 Par ch=3 c=64 v=0
45376 Par ch=3 c=64 v=127
45488 Off ch=3 n=36 v=64
45504 On ch=3 n=48 v=100
45680 Off ch=3 n=60 v=64
45680 Off ch=3 n=64 v=64
45688 Off ch=3 n=67 v=64
45696 On ch=3 n=60 v=95
45696 On ch=3 n=64 v=80
45704 On ch=3 n=67 v=100
45872 Off ch=3 n=48 v=64
45888 On ch=3 n=48 v=100
46064 Off ch=3 n=60 v=64
46064 Off ch=3 n=64 v=64
46064 Off ch=3 n=48 v=64
46072 Off ch=3 n=67 v=64
46080 On ch=3 n=48 v=100
46080 On ch=3 n=60 v=95
46088 On ch=3 n=64 v=80
46096 On ch=3 n=67 v=100
46112 Par ch=3 c=64 v=0
46144 Par ch=3 c=64 v=127
46256 Off ch=3 n=48 v=64
46272 On ch=3 n=36 v=100
46448 Off ch=3 n=60 v=64
46456 Off ch=3 n=64 v=64
46456 Off ch=3 n=67 v=64
46464 On ch=3 n=60 v=95
46472 On ch=3 n=64 v=80
46480 On ch=3 n=67 v=100
46640 Off ch=3 n=36 v=64
46656 On ch=3 n=48 v=100
46736 Off ch=3 n=48 v=64
46752 On ch=3 n=41 v=100
46832 Off ch=3 n=60 v=64
46832 Off ch=3 n=41 v=64
46840 Off ch=3 n=64 v=64
46840 Off ch=3 n=67 v=64
46848 On ch=3 n=59 v=95
46848 On ch=3 n=43 v=100
46848 On ch=3 n=62 v=80
46856 On ch=3 n=67 v=100
46880 Par ch=3 c=64 v=0
46912 Par ch=3 c=64 v=127
47024 Off ch=3 n=43 v=64
47040 On ch=3 n=31 v=100
47216 Off ch=3 n=59 v=64
47216 Off ch=3 n=62 v=64
47224 Off ch=3 n=67 v=64
47232 On ch=3 n=59 v=95
47232 On ch=3 n=62 v=80
47240 On ch=3 n=67 v=100
47408 Off ch=3 n=31 v=64
47424 On ch=3 n=43 v=100
47600 Off ch=3 n=59 v=64
47600 Off ch=3 n=62 v=64
47600 Off ch=3 n=43 v=64
47608 Off ch=3 n=67 v=64
47616 On ch=3 n=29 v=100
47616 On ch=3 n=57 v=100
47624 On ch=3 n=65 v=100
47632 On ch=3 n=69 v=100
47648 Par ch=3 c=64 v=0
47680 Par ch=3 c=64 v=127
47792 Off ch=3 n=29 v=64
47808 On ch=3 n=41 v=100
47984 Off ch=3 n=57 v=64
47984 Off ch=3 n=41 v=64
47992 Off ch=3 n=65 v=64
47992 Off ch=3 n=69 v=64
48000 On ch=3 n=60 v=100
48000 On ch=3 n=40 v=100
48000 On ch=3 n=64 v=100
48008 On ch=3 n=67 v=100
48176 Off ch=3 n=40 v=64
48176 Off ch=3 n=64 v=64
48184 Off ch=3 n=67 v=64
48192 On ch=3 n=38 v=100
48192 On ch=3 n=62 v=100
48200 On ch=3 n=65 v=100
48368 Off ch=3 n=60 v=64
48368 Off ch=3 n=38 v=64
48368 Off ch=3 n=62 v=64
48376 Off ch=3 n=65 v=64
48384 On ch=3 n=36 v=100
48384 On ch=3 n=60 v=100
48400 On ch=3 n=64 v=100
48416 Par ch=3 c=64 v=0
48416 On ch=3 n=67 v=60
48448 Par ch=3 c=64 v=127
48560 Off ch=3 n=36 v=64
48576 On ch=3 n=48 v=115
48752 Off ch=3 n=48 v=64
48768 On ch=3 n=48 v=115
48944 Off ch=3 n=48 v=64
48960 On ch=3 n=48 v=125
49136 Off ch=3 n=60 v=64
49136 Off ch=3 n=64 v=64
49136 Off ch=3 n=67 v=64
49152 Off ch=3 n=48 v=64
49152 Par ch=3 c=64 v=0
49152 On ch=3 n=65 v=100
49152 On ch=3 n=41 v=100
49152 On ch=3 n=69 v=100
49520 Off ch=3 n=65 v=64
49520 Off ch=3 n=41 v=64
49520 Off ch=3 n=69 v=64
49536 On ch=3 n=64 v=100
49536 On ch=3 n=40 v=100
49536 On ch=3 n=67 v=100
49712 Off ch=3 n=64 v=64
49712 Off ch=3 n=40 v=64
49712 Off ch=3 n=67 v=64
49728 On ch=3 n=62 v=100
49728 On ch=3 n=38 v=100
49728 On ch=3 n=65 v=100
49904 Off ch=3 n=62 v=64
49904 Off ch=3 n=38 v=64
49904 Off ch=3 n=65 v=64
49920 On ch=3 n=60 v=100
49920 On ch=3 n=36 v=100
49920 On ch=3 n=64 v=100
50288 Off ch=3 n=60 v=64
50288 Off ch=3 n=36 v=64
50288 Off ch=3 n=64 v=64
50304 On ch=3 n=58 v=100
50304 On ch=3 n=34 v=100
50304 On ch=3 n=62 v=100
50480 Off ch=3 n=58 v=64
50480 Off ch=3 n=34 v=64
50480 Off ch=3 n=62 v=64
50496 On ch=3 n=57 v=100
50496 On ch=3 n=33 v=100
50496 On ch=3 n=60 v=100
50672 Off ch=3 n=57 v=64
50672 Off ch=3 n=33 v=64
50672 Off ch=3 n=60 v=64
50688 On ch=3 n=55 v=100
50688 On ch=3 n=50 v=100
50688 On ch=3 n=31 v=100
50688 On ch=3 n=59 v=100
51056 Off ch=3 n=55 v=64
51056 Off ch=3 n=50 v=64
51056 Off ch=3 n=31 v=64
51056 Off ch=3 n=59 v=64
51072 On ch=3 n=53 v=100
51072 On ch=3 n=48 v=100
51072 On ch=3 n=29 v=100
51072 On ch=3 n=57 v=100
51440 Off ch=3 n=53 v=64
51440 Off ch=3 n=48 v=64
51440 Off ch=3 n=29 v=64
51440 Off ch=3 n=57 v=64
51456 On ch=3 n=48 v=100
51456 On ch=3 n=52 v=100
51456 On ch=3 n=36 v=100
51456 On ch=3 n=24 v=100
51456 On ch=3 n=55 v=100
52176 Off ch=3 n=36 v=64
52176 Off ch=3 n=24 v=64
52208 Off ch=3 n=48 v=64
52208 Off ch=3 n=52 v=64
52208 Off ch=3 n=55 v=64
55296 Par ch=3 c=64 v=127
55296 On ch=3 n=36 v=110
55296 On ch=3 n=64 v=95
55304 On ch=3 n=67 v=80
55312 On ch=3 n=72 v=100
55472 Off ch=3 n=36 v=64
55488 On ch=3 n=48 v=100
55664 Off ch=3 n=64 v=64
55672 Off ch=3 n=67 v=64
55672 Off ch=3 n=72 v=64
55680 On ch=3 n=64 v=95
55688 On ch=3 n=67 v=80
55696 On ch=3 n=72 v=100
55856 Off ch=3 n=48 v=64
55872 On ch=3 n=48 v=100
56048 Off ch=3 n=64 v=64
56048 Off ch=3 n=48 v=64
56056 Off ch=3 n=67 v=64
56056 Off ch=3 n=72 v=64
56064 On ch=3 n=59 v=95
56064 On ch=3 n=40 v=80
56064 On ch=3 n=62 v=80
56072 On ch=3 n=41 v=80
56072 On ch=3 n=67 v=100
56080 Off ch=3 n=40 v=64
56080 On ch=3 n=42 v=80
56088 Off ch=3 n=41 v=64
56088 Par ch=3 c=64 v=0
56088 On ch=3 n=43 v=100
56096 Off ch=3 n=42 v=64
56120 Par ch=3 c=64 v=127
56216 Off ch=3 n=43 v=64
56256 On ch=3 n=31 v=100
56432 Off ch=3 n=59 v=64
56432 Off ch=3 n=62 v=64
56440 Off ch=3 n=67 v=64
56448 On ch=3 n=59 v=95
56448 On ch=3 n=62 v=80
56456 On ch=3 n=67 v=100
56624 Off ch=3 n=31 v=64
56640 On ch=3 n=43 v=100
56816 Off ch=3 n=59 v=64
56816 Off ch=3 n=62 v=64
56816 Off ch=3 n=43 v=64
56824 Off ch=3 n=67 v=64
56832 On ch=3 n=33 v=100
56832 On ch=3 n=57 v=95
56840 On ch=3 n=60 v=80
56848 On ch=3 n=64 v=100
56864 Par ch=3 c=64 v=0
56896 Par ch=3 c=64 v=127
57008 Off ch=3 n=33 v=64
57024 On ch=3 n=45 v=100
57200 Off ch=3 n=57 v=64
57208 Off ch=3 n=60 v=64
57208 Off ch=3 n=64 v=64
57216 On ch=3 n=57 v=95
57216 On ch=3 n=60 v=80
57224 On ch=3 n=64 v=100
57392 Off ch=3 n=45 v=64
57392 Off ch=3 n=57 v=64
57392 Off ch=3 n=60 v=64
57400 Off ch=3 n=64 v=64
57408 On ch=3 n=53 v=90
57408 On ch=3 n=31 v=100
57408 On ch=3 n=43 v=100
57408 On ch=3 n=57 v=80
57416 On ch=3 n=62 v=100
57584 Off ch=3 n=53 v=64
57584 Off ch=3 n=31 v=64
57584 Off ch=3 n=43 v=64
57584 Off ch=3 n=57 v=64
57592 Off ch=3 n=62 v=64
57600 On ch=3 n=53 v=95
57600 On ch=3 n=29 v=80
57600 On ch=3 n=41 v=80
57600 On ch=3 n=60 v=80
57608 On ch=3 n=57 v=100
57632 Par ch=3 c=64 v=0
57664 Par ch=3 c=64 v=127
57776 Off ch=3 n=29 v=64
57776 Off ch=3 n=41 v=64
57792 On ch=3 n=41 v=100
57968 Off ch=3 n=53 v=64
57968 Off ch=3 n=60 v=64
57976 Off ch=3 n=57 v=64
57984 Par ch=3 c=64 v=0
57984 On ch=3 n=53 v=95
57984 On ch=3 n=60 v=80
57992 On ch=3 n=62 v=100
58016 Par ch=3 c=64 v=127
58160 Off ch=3 n=41 v=64
58176 On ch=3 n=41 v=100
58352 Off ch=3 n=53 v=64
58352 Off ch=3 n=60 v=64
58352 Off ch=3 n=41 v=64
58360 Off ch=3 n=62 v=64
58368 Par ch=3 c=64 v=0
58368 On ch=3 n=36 v=100
58368 On ch=3 n=60 v=95
58376 On ch=3 n=64 v=80
58384 On ch=3 n=67 v=100
58544 Off ch=3 n=36 v=64
58560 On ch=3 n=48 v=100
58736 Off ch=3 n=60 v=64
58744 Off ch=3 n=64 v=64
58744 Off ch=3 n=67 v=64
58752 On ch=3 n=60 v=95
58760 On ch=3 n=64 v=80
58768 On ch=3 n=67 v=100
58928 Off ch=3 n=48 v=64
58944 On ch=3 n=48 v=100
59120 Off ch=3 n=60 v=64
59120 Off ch=3 n=48 v=64
59128 Off ch=3 n=64 v=64
59128 Off ch=3 n=67 v=64
59136 On ch=3 n=59 v=95
59136 On ch=3 n=43 v=100
59136 On ch=3 n=62 v=80
59144 On ch=3 n=67 v=100
59168 Par ch=3 c=64 v=0
59200 Par ch=3 c=64 v=127
59296 Off ch=3 n=43 v=64
59328 On ch=3 n=43 v=100
59504 Off ch=3 n=59 v=64
59504 Off ch=3 n=62 v=64
59512 Off ch=3 n=67 v=64
59520 On ch=3 n=59 v=95
59520 On ch=3 n=62 v=80
59528 On ch=3 n=67 v=100
59696 Off ch=3 n=43 v=64
59712 On ch=3 n=43 v=100
59888 Off ch=3 n=59 v=64
59888 Off ch=3 n=62 v=64
59888 Off ch=3 n=43 v=64
59896 Off ch=3 n=67 v=64
59904 On ch=3 n=29 v=100
59904 On ch=3 n=60 v=100
59912 On ch=3 n=65 v=100
59920 On ch=3 n=69 v=100
59936 Par ch=3 c=64 v=0
59968 Par ch=3 c=64 v=127
60080 Off ch=3 n=29 v=64
60096 On ch=3 n=41 v=100
60272 Off ch=3 n=60 v=64
60272 Off ch=3 n=41 v=64
60280 Off ch=3 n=65 v=64
60280 Off ch=3 n=69 v=64
60288 On ch=3 n=60 v=100
60288 On ch=3 n=40 v=100
60288 On ch=3 n=64 v=100
60296 On ch=3 n=67 v=100
60464 Off ch=3 n=60 v=64
60464 Off ch=3 n=40 v=64
60464 Off ch=3 n=64 v=64
60472 Off ch=3 n=67 v=64
60480 On ch=3 n=60 v=100
60480 On ch=3 n=38 v=100
60480 On ch=3 n=62 v=100
60488 On ch=3 n=65 v=100
60656 Off ch=3 n=60 v=64
60656 Off ch=3 n=38 v=64
60656 Off ch=3 n=62 v=64
60664 Off ch=3 n=65 v=64
60672 On ch=3 n=36 v=100
60672 On ch=3 n=60 v=100
60688 On ch=3 n=64 v=100
60704 Par ch=3 c=64 v=0
60704 On ch=3 n=67 v=60
60736 Par ch=3 c=64 v=127
60848 Off ch=3 n=36 v=64
60864 On ch=3 n=48 v=100
61040 Off ch=3 n=48 v=64
61056 On ch=3 n=48 v=100
61232 Off ch=3 n=48 v=64
61248 On ch=3 n=48 v=110
61392 Off ch=3 n=60 v=64
61424 Off ch=3 n=64 v=64
61440 On ch=3 n=64 v=95
61456 On ch=3 n=60 v=100
61472 Par ch=3 c=64 v=0
61504 Par ch=3 c=64 v=127
61616 Off ch=3 n=48 v=64
61632 On ch=3 n=36 v=100
61808 Off ch=3 n=64 v=64
61816 Off ch=3 n=67 v=64
61816 Off ch=3 n=60 v=64
61824 On ch=3 n=64 v=95
61832 On ch=3 n=67 v=80
61840 On ch=3 n=60 v=100
62000 Off ch=3 n=36 v=64
62016 On ch=3 n=48 v=100
62096 Off ch=3 n=48 v=64
62112 On ch=3 n=41 v=100
62192 Off ch=3 n=64 v=64
62192 Off ch=3 n=41 v=64
62200 Off ch=3 n=67 v=64
62200 Off ch=3 n=60 v=64
62208 On ch=3 n=59 v=95
62208 On ch=3 n=43 v=100
62208 On ch=3 n=62 v=80
62216 On ch=3 n=67 v=100
62240 Par ch=3 c=64 v=0
62272 Par ch=3 c=64 v=127
62384 Off ch=3 n=43 v=64
62400 On ch=3 n=31 v=100
62576 Off ch=3 n=59 v=64
62576 Off ch=3 n=62 v=64
62584 Off ch=3 n=67 v=64
62592 On ch=3 n=59 v=95
62592 On ch=3 n=62 v=80
62600 On ch=3 n=67 v=100
62768 Off ch=3 n=31 v=64
62784 On ch=3 n=43 v=100
62960 Off ch=3 n=59 v=64
62960 Off ch=3 n=62 v=64
62960 Off ch=3 n=43 v=64
62968 Off ch=3 n=67 v=64
62976 On ch=3 n=45 v=100
62976 On ch=3 n=57 v=95
62984 On ch=3 n=60 v=80
62992 On ch=3 n=64 v=100
63008 Par ch=3 c=64 v=0
63040 Par ch=3 c=64 v=127
63152 Off ch=3 n=45 v=64
63168 On ch=3 n=33 v=100
63344 Off ch=3 n=57 v=64
63352 Off ch=3 n=60 v=64
63352 Off ch=3 n=64 v=64
63360 On ch=3 n=57 v=95
63360 On ch=3 n=60 v=80
63368 On ch=3 n=64 v=100
63536 Off ch=3 n=33 v=64
63536 Off ch=3 n=57 v=64
63536 Off ch=3 n=60 v=64
63544 Off ch=3 n=64 v=64
63552 On ch=3 n=53 v=90
63552 On ch=3 n=31 v=100
63552 On ch=3 n=43 v=100
63552 On ch=3 n=57 v=80
63560 On ch=3 n=62 v=100
63728 Off ch=3 n=53 v=64
63728 Off ch=3 n=31 v=64
63728 Off ch=3 n=43 v=64
63728 Off ch=3 n=57 v=64
63736 Off ch=3 n=62 v=64
63744 On ch=3 n=53 v=95
63744 On ch=3 n=29 v=80
63744 On ch=3 n=41 v=80
63744 On ch=3 n=60 v=80
63752 On ch=3 n=57 v=100
63776 Par ch=3 c=64 v=0
63808 Par ch=3 c=64 v=127
63920 Off ch=3 n=29 v=64
63920 Off ch=3 n=41 v=64
64112 Off ch=3 n=53 v=64
64112 Off ch=3 n=60 v=64
64120 Off ch=3 n=57 v=64
64128 On ch=3 n=53 v=95
64128 On ch=3 n=48 v=100
64128 On ch=3 n=60 v=80
64136 On ch=3 n=62 v=100
64304 Off ch=3 n=48 v=64
64320 On ch=3 n=36 v=100
64496 Off ch=3 n=53 v=64
64496 Off ch=3 n=60 v=64
64496 Off ch=3 n=36 v=64
64504 Off ch=3 n=62 v=64
64512 On ch=3 n=48 v=100
64512 On ch=3 n=60 v=95
64520 On ch=3 n=64 v=80
64528 On ch=3 n=67 v=100
64544 Par ch=3 c=64 v=0
64576 Par ch=3 c=64 v=127
64688 Off ch=3 n=48 v=64
64704 On ch=3 n=36 v=100
64880 Off ch=3 n=60 v=64
64888 Off ch=3 n=64 v=64
64888 Off ch=3 n=67 v=64
64896 On ch=3 n=60 v=95
64904 On ch=3 n=64 v=80
64912 On ch=3 n=67 v=100
65072 Off ch=3 n=36 v=64
65088 On ch=3 n=36 v=100
65264 Off ch=3 n=60 v=64
65264 Off ch=3 n=36 v=64
65272 Off ch=3 n=64 v=64
65272 Off ch=3 n=67 v=64
65280 On ch=3 n=59 v=95
65280 On ch=3 n=43 v=100
65280 On ch=3 n=62 v=80
65288 On ch=3 n=67 v=100
65312 Par ch=3 c=64 v=0
65344 Par ch=3 c=64 v=127
65456 Off ch=3 n=43 v=64
65472 On ch=3 n=31 v=100
65648 Off ch=3 n=59 v=64
65648 Off ch=3 n=62 v=64
65656 Off ch=3 n=67 v=64
65664 On ch=3 n=59 v=95
65664 On ch=3 n=62 v=80
65672 On ch=3 n=67 v=100
65840 Off ch=3 n=31 v=64
65856 On ch=3 n=43 v=100
66032 Off ch=3 n=59 v=64
66032 Off ch=3 n=62 v=64
66032 Off ch=3 n=43 v=64
66040 Off ch=3 n=67 v=64
66048 On ch=3 n=29 v=100
66048 On ch=3 n=60 v=100
66056 On ch=3 n=65 v=100
66064 On ch=3 n=57 v=100
66080 Par ch=3 c=64 v=0
66112 Par ch=3 c=64 v=127
66224 Off ch=3 n=29 v=64
66416 Off ch=3 n=60 v=64
66424 Off ch=3 n=65 v=64
66424 Off ch=3 n=57 v=64
66432 On ch=3 n=60 v=100
66432 On ch=3 n=40 v=100
66432 On ch=3 n=64 v=100
66440 On ch=3 n=67 v=100
66608 Off ch=3 n=60 v=64
66608 Off ch=3 n=40 v=64
66608 Off ch=3 n=64 v=64
66616 Off ch=3 n=67 v=64
66624 On ch=3 n=60 v=100
66624 On ch=3 n=38 v=100
66624 On ch=3 n=62 v=100
66632 On ch=3 n=65 v=100
66800 Off ch=3 n=60 v=64
66800 Off ch=3 n=38 v=64
66800 Off ch=3 n=62 v=64
66808 Off ch=3 n=65 v=64
66816 On ch=3 n=36 v=100
66816 On ch=3 n=60 v=100
66832 On ch=3 n=64 v=100
66848 Par ch=3 c=64 v=0
66848 On ch=3 n=67 v=60
66880 Par ch=3 c=64 v=127
66992 Off ch=3 n=36 v=64
67008 On ch=3 n=48 v=100
67184 Off ch=3 n=48 v=64
67200 On ch=3 n=48 v=100
67376 Off ch=3 n=48 v=64
67392 On ch=3 n=48 v=110
67536 Off ch=3 n=60 v=64
67568 Off ch=3 n=64 v=64
67584 Off ch=3 n=48 v=64
67584 On ch=3 n=45 v=100
67584 On ch=3 n=33 v=100
67584 On ch=3 n=60 v=95
67592 On ch=3 n=64 v=80
67600 Off ch=3 n=67 v=64
67600 On ch=3 n=69 v=100
67616 Par ch=3 c=64 v=0
67648 Par ch=3 c=64 v=127
67760 Off ch=3 n=45 v=64
67760 Off ch=3 n=33 v=64
67776 On ch=3 n=45 v=100
67952 Off ch=3 n=60 v=64
67960 Off ch=3 n=64 v=64
67960 Off ch=3 n=69 v=64
67968 On ch=3 n=60 v=95
67976 On ch=3 n=64 v=80
67984 On ch=3 n=69 v=100
68144 Off ch=3 n=45 v=64
68160 On ch=3 n=45 v=100
68336 Off ch=3 n=60 v=64
68336 Off ch=3 n=45 v=64
68344 Off ch=3 n=64 v=64
68344 Off ch=3 n=69 v=64
68352 On ch=3 n=60 v=95
68352 On ch=3 n=43 v=100
68352 On ch=3 n=31 v=100
68352 On ch=3 n=64 v=80
68360 On ch=3 n=67 v=100
68384 Par ch=3 c=64 v=0
68416 Par ch=3 c=64 v=127
68528 Off ch=3 n=43 v=64
68528 Off ch=3 n=31 v=64
68544 On ch=3 n=43 v=100
68720 Off ch=3 n=60 v=64
68720 Off ch=3 n=64 v=64
68728 Off ch=3 n=67 v=64
68736 On ch=3 n=60 v=95
68736 On ch=3 n=64 v=80
68744 On ch=3 n=67 v=100
68912 Off ch=3 n=43 v=64
68928 On ch=3 n=43 v=100
69104 Off ch=3 n=60 v=64
69104 Off ch=3 n=64 v=64
69104 Off ch=3 n=43 v=64
69112 Off ch=3 n=67 v=64
69120 On ch=3 n=41 v=100
69120 On ch=3 n=29 v=100
69120 On ch=3 n=57 v=95
69128 On ch=3 n=60 v=80
69136 On ch=3 n=65 v=100
69152 Par ch=3 c=64 v=0
69184 Par ch=3 c=64 v=127
69296 Off ch=3 n=41 v=64
69296 Off ch=3 n=29 v=64
69312 On ch=3 n=41 v=100
69488 Off ch=3 n=57 v=64
69496 Off ch=3 n=60 v=64
69496 Off ch=3 n=65 v=64
69504 On ch=3 n=57 v=95
69512 On ch=3 n=60 v=80
69520 On ch=3 n=65 v=100
69680 Off ch=3 n=41 v=64
69696 On ch=3 n=41 v=100
69872 Off ch=3 n=57 v=64
69872 Off ch=3 n=41 v=64
69880 Off ch=3 n=60 v=64
69880 Off ch=3 n=65 v=64
69888 On ch=3 n=60 v=95
69888 On ch=3 n=36 v=100
69888 On ch=3 n=64 v=80
69896 On ch=3 n=67 v=100
69920 Par ch=3 c=64 v=0
69952 Par ch=3 c=64 v=127
70064 Off ch=3 n=36 v=64
70080 On ch=3 n=48 v=100
70256 Off ch=3 n=60 v=64
70256 Off ch=3 n=64 v=64
70264 Off ch=3 n=67 v=64
70272 On ch=3 n=60 v=95
70272 On ch=3 n=64 v=80
70280 On ch=3 n=67 v=100
70448 Off ch=3 n=48 v=64
70464 On ch=3 n=48 v=100
70640 Off ch=3 n=60 v=64
70640 Off ch=3 n=64 v=64
70640 Off ch=3 n=48 v=64
70648 Off ch=3 n=67 v=64
70656 On ch=3 n=48 v=100
70656 On ch=3 n=60 v=95
70664 On ch=3 n=64 v=80
70672 On ch=3 n=67 v=100
70688 Par ch=3 c=64 v=0
70720 Par ch=3 c=64 v=127
70832 Off ch=3 n=48 v=64
70848 On ch=3 n=36 v=100
71024 Off ch=3 n=60 v=64
71032 Off ch=3 n=64 v=64
71032 Off ch=3 n=67 v=64
71040 On ch=3 n=60 v=95
71048 On ch=3 n=64 v=80
71056 On ch=3 n=67 v=100
71216 Off ch=3 n=36 v=64
71232 On ch=3 n=48 v=100
71312 Off ch=3 n=48 v=64
71328 On ch=3 n=41 v=100
71408 Off ch=3 n=60 v=64
71408 Off ch=3 n=41 v=64
71416 Off ch=3 n=64 v=64
71416 Off ch=3 n=67 v=64
71424 On ch=3 n=59 v=95
71424 On ch=3 n=43 v=100
71424 On ch=3 n=62 v=80
71432 On ch=3 n=67 v=100
71456 Par ch=3 c=64 v=0
71488 Par ch=3 c=64 v=127
71600 Off ch=3 n=43 v=64
71616 On ch=3 n=31 v=100
71792 Off ch=3 n=59 v=64
71792 Off ch=3 n=62 v=64
71800 Off ch=3 n=67 v=64
71808 On ch=3 n=59 v=95
71808 On ch=3 n=62 v=80
71816 On ch=3 n=67 v=100
71984 Off ch=3 n=31 v=64
72000 On ch=3 n=43 v=100
72176 Off ch=3 n=59 v=64
72176 Off ch=3 n=62 v=64
72176 Off ch=3 n=43 v=64
72184 Off ch=3 n=67 v=64
72192 On ch=3 n=29 v=100
72192 On ch=3 n=57 v=100
72200 On ch=3 n=65 v=100
72208 On ch=3 n=69 v=100
72224 Par ch=3 c=64 v=0
72256 Par ch=3 c=64 v=127
72368 Off ch=3 n=29 v=64
72384 On ch=3 n=41 v=100
72560 Off ch=3 n=57 v=64
72560 Off ch=3 n=41 v=64
72568 Off ch=3 n=65 v=64
72568 Off ch=3 n=69 v=64
72576 On ch=3 n=60 v=100
72576 On ch=3 n=40 v=100
72576 On ch=3 n=64 v=100
72584 On ch=3 n=67 v=100
72752 Off ch=3 n=40 v=64
72752 Off ch=3 n=64 v=64
72760 Off ch=3 n=67 v=64
72768 On ch=3 n=38 v=100
72768 On ch=3 n=62 v=100
72776 On ch=3 n=65 v=100
72944 Off ch=3 n=60 v=64
72944 Off ch=3 n=38 v=64
72944 Off ch=3 n=62 v=64
72952 Off ch=3 n=65 v=64
72960 On ch=3 n=60 v=100
72960 On ch=3 n=36 v=100
72960 On ch=3 n=64 v=100
72968 On ch=3 n=67 v=60
72992 Par ch=3 c=64 v=0
73024 Par ch=3 c=64 v=127
73136 Off ch=3 n=36 v=64
73152 On ch=3 n=48 v=115
73328 Off ch=3 n=60 v=64
73328 Off ch=3 n=64 v=64
73328 Off ch=3 n=48 v=64
73336 Off ch=3 n=67 v=64
73344 On ch=3 n=60 v=100
73344 On ch=3 n=48 v=115
73344 On ch=3 n=64 v=100
73352 On ch=3 n=67 v=60
73520 Off ch=3 n=48 v=64
73536 On ch=3 n=48 v=125
73712 Off ch=3 n=60 v=64
73712 Off ch=3 n=64 v=64
73720 Off ch=3 n=67 v=64
73728 On ch=3 n=64 v=95
73736 On ch=3 n=67 v=80
73744 On ch=3 n=72 v=100
73760 Par ch=3 c=64 v=0
73792 Par ch=3 c=64 v=127
73904 Off ch=3 n=48 v=64
73920 On ch=3 n=48 v=100
74096 Off ch=3 n=64 v=64
74104 Off ch=3 n=67 v=64
74104 Off ch=3 n=72 v=64
74112 On ch=3 n=64 v=95
74120 On ch=3 n=67 v=80
74128 On ch=3 n=72 v=100
74288 Off ch=3 n=48 v=64
74304 On ch=3 n=48 v=100
74384 Off ch=3 n=48 v=64
74400 On ch=3 n=41 v=100
74480 Off ch=3 n=64 v=64
74480 Off ch=3 n=41 v=64
74488 Off ch=3 n=67 v=64
74488 Off ch=3 n=72 v=64
74496 On ch=3 n=59 v=95
74496 On ch=3 n=43 v=100
74496 On ch=3 n=62 v=80
74504 On ch=3 n=67 v=100
74528 Par ch=3 c=64 v=0
74560 Par ch=3 c=64 v=127
74672 Off ch=3 n=43 v=64
74688 On ch=3 n=31 v=100
74864 Off ch=3 n=59 v=64
74864 Off ch=3 n=62 v=64
74872 Off ch=3 n=67 v=64
74880 On ch=3 n=59 v=95
74880 On ch=3 n=62 v=80
74888 On ch=3 n=67 v=100
75056 Off ch=3 n=31 v=64
75072 On ch=3 n=43 v=100
75248 Off ch=3 n=59 v=64
75248 Off ch=3 n=62 v=64
75248 Off ch=3 n=43 v=64
75256 Off ch=3 n=67 v=64
75264 On ch=3 n=33 v=100
75264 On ch=3 n=57 v=95
75272 On ch=3 n=60 v=80
75280 On ch=3 n=64 v=100
75296 Par ch=3 c=64 v=0
75328 Par ch=3 c=64 v=127
75440 Off ch=3 n=33 v=64
75456 On ch=3 n=45 v=100
75632 Off ch=3 n=57 v=64
75640 Off ch=3 n=60 v=64
75640 Off ch=3 n=64 v=64
75648 On ch=3 n=57 v=95
75648 On ch=3 n=60 v=80
75656 On ch=3 n=64 v=100
75824 Off ch=3 n=45 v=64
75824 Off ch=3 n=57 v=64
75824 Off ch=3 n=60 v=64
75832 Off ch=3 n=64 v=64
75840 On ch=3 n=53 v=90
75840 On ch=3 n=31 v=100
75840 On ch=3 n=43 v=100
75840 On ch=3 n=57 v=80
75848 On ch=3 n=62 v=100
76016 Off ch=3 n=53 v=64
76016 Off ch=3 n=31 v=64
76016 Off ch=3 n=43 v=64
76016 Off ch=3 n=57 v=64
76024 Off ch=3 n=62 v=64
76032 On ch=3 n=57 v=95
76032 On ch=3 n=29 v=80
76032 On ch=3 n=41 v=80
76032 On ch=3 n=60 v=80
76040 On ch=3 n=64 v=100
76064 Par ch=3 c=64 v=0
76096 Par ch=3 c=64 v=127
76208 Off ch=3 n=29 v=64
76208 Off ch=3 n=41 v=64
76224 On ch=3 n=41 v=100
76400 Off ch=3 n=57 v=64
76400 Off ch=3 n=60 v=64
76408 Off ch=3 n=64 v=64
76416 Par ch=3 c=64 v=0
76416 On ch=3 n=57 v=95
76416 On ch=3 n=60 v=80
76424 On ch=3 n=62 v=100
76448 Par ch=3 c=64 v=127
76592 Off ch=3 n=41 v=64
76608 On ch=3 n=36 v=100
76640 Par ch=3 c=64 v=0
76672 Par ch=3 c=64 v=127
76784 Off ch=3 n=57 v=64
76784 Off ch=3 n=60 v=64
76784 Off ch=3 n=36 v=64
76792 Off ch=3 n=62 v=64
76800 On ch=3 n=48 v=100
76800 On ch=3 n=60 v=95
76808 On ch=3 n=64 v=80
76816 On ch=3 n=67 v=100
76832 Par ch=3 c=64 v=0
76864 Par ch=3 c=64 v=127
76976 Off ch=3 n=48 v=64
76992 On ch=3 n=36 v=100
77168 Off ch=3 n=60 v=64
77176 Off ch=3 n=64 v=64
77176 Off ch=3 n=67 v=64
77184 On ch=3 n=60 v=95
77192 On ch=3 n=64 v=80
77200 On ch=3 n=67 v=100
77360 Off ch=3 n=36 v=64
77376 On ch=3 n=48 v=100
77456 Off ch=3 n=48 v=64
77472 On ch=3 n=41 v=100
77552 Off ch=3 n=60 v=64
77552 Off ch=3 n=41 v=64
77560 Off ch=3 n=64 v=64
77560 Off ch=3 n=67 v=64
77568 On ch=3 n=59 v=95
77568 On ch=3 n=43 v=100
77568 On ch=3 n=62 v=80
77576 On ch=3 n=67 v=100
77600 Par ch=3 c=64 v=0
77632 Par ch=3 c=64 v=127
77744 Off ch=3 n=43 v=64
77760 On ch=3 n=31 v=100
77936 Off ch=3 n=59 v=64
77936 Off ch=3 n=62 v=64
77944 Off ch=3 n=67 v=64
77952 On ch=3 n=59 v=95
77952 On ch=3 n=62 v=80
77960 On ch=3 n=67 v=100
78128 Off ch=3 n=31 v=64
78144 On ch=3 n=43 v=100
78320 Off ch=3 n=59 v=64
78320 Off ch=3 n=62 v=64
78320 Off ch=3 n=43 v=64
78328 Off ch=3 n=67 v=64
78336 On ch=3 n=29 v=100
78336 On ch=3 n=57 v=95
78344 On ch=3 n=60 v=80
78352 On ch=3 n=65 v=100
78368 Par ch=3 c=64 v=0
78400 Par ch=3 c=64 v=127
78512 Off ch=3 n=29 v=64
78528 On ch=3 n=41 v=100
78704 Off ch=3 n=57 v=64
78704 Off ch=3 n=41 v=64
78712 Off ch=3 n=60 v=64
78712 Off ch=3 n=65 v=64
78720 On ch=3 n=60 v=95
78720 On ch=3 n=40 v=100
78720 On ch=3 n=64 v=80
78728 On ch=3 n=67 v=100
78896 Off ch=3 n=60 v=64
78896 Off ch=3 n=40 v=64
78896 Off ch=3 n=64 v=64
78904 Off ch=3 n=67 v=64
78912 On ch=3 n=60 v=80
78912 On ch=3 n=38 v=100
78912 On ch=3 n=65 v=90
78920 On ch=3 n=62 v=90
79088 Off ch=3 n=60 v=64
79088 Off ch=3 n=38 v=64
79088 Off ch=3 n=65 v=64
79096 Off ch=3 n=62 v=64
79104 On ch=3 n=60 v=95
79104 On ch=3 n=36 v=100
79104 On ch=3 n=64 v=80
79112 On ch=3 n=67 v=100
79136 Par ch=3 c=64 v=0
79168 Par ch=3 c=64 v=127
79280 Off ch=3 n=36 v=64
79296 On ch=3 n=48 v=115
79472 Off ch=3 n=60 v=64
79472 Off ch=3 n=64 v=64
79472 Off ch=3 n=48 v=64
79480 Off ch=3 n=67 v=64
79488 On ch=3 n=60 v=95
79488 On ch=3 n=48 v=115
79488 On ch=3 n=64 v=80
79496 On ch=3 n=67 v=100
79664 Off ch=3 n=48 v=64
79680 On ch=3 n=48 v=125
79856 Off ch=3 n=60 v=64
79856 Off ch=3 n=64 v=64
79864 Off ch=3 n=67 v=64
79872 On ch=3 n=60 v=95
79880 On ch=3 n=64 v=80
79888 On ch=3 n=67 v=100
79904 Par ch=3 c=64 v=0
79936 Par ch=3 c=64 v=127
80048 Off ch=3 n=48 v=64
80064 On ch=3 n=36 v=100
80240 Off ch=3 n=60 v=64
80248 Off ch=3 n=64 v=64
80248 Off ch=3 n=67 v=64
80256 On ch=3 n=60 v=95
80264 On ch=3 n=64 v=80
80272 On ch=3 n=67 v=100
80432 Off ch=3 n=36 v=64
80448 On ch=3 n=48 v=100
80528 Off ch=3 n=48 v=64
80544 On ch=3 n=41 v=100
80624 Off ch=3 n=60 v=64
80624 Off ch=3 n=41 v=64
80632 Off ch=3 n=64 v=64
80632 Off ch=3 n=67 v=64
80640 On ch=3 n=59 v=95
80640 On ch=3 n=43 v=100
80640 On ch=3 n=62 v=80
80648 On ch=3 n=67 v=100
80672 Par ch=3 c=64 v=0
80704 Par ch=3 c=64 v=127
80816 Off ch=3 n=43 v=64
80832 On ch=3 n=31 v=100
81008 Off ch=3 n=59 v=64
81008 Off ch=3 n=62 v=64
81016 Off ch=3 n=67 v=64
81024 On ch=3 n=59 v=95
81024 On ch=3 n=62 v=80
81032 On ch=3 n=67 v=100
81200 Off ch=3 n=31 v=64
81216 On ch=3 n=43 v=100
81392 Off ch=3 n=59 v=64
81392 Off ch=3 n=62 v=64
81392 Off ch=3 n=43 v=64
81400 Off ch=3 n=67 v=64
81408 On ch=3 n=45 v=100
81408 On ch=3 n=57 v=95
81416 On ch=3 n=60 v=80
81424 On ch=3 n=64 v=100
81440 Par ch=3 c=64 v=0
81472 Par ch=3 c=64 v=127
81584 Off ch=3 n=45 v=64
81600 On ch=3 n=33 v=100
81776 Off ch=3 n=57 v=64
81784 Off ch=3 n=60 v=64
81784 Off ch=3 n=64 v=64
81792 On ch=3 n=57 v=95
81792 On ch=3 n=60 v=80
81800 On ch=3 n=64 v=100
81968 Off ch=3 n=33 v=64
81968 Off ch=3 n=57 v=64
81968 Off ch=3 n=60 v=64
81976 Off ch=3 n=64 v=64
81984 On ch=3 n=57 v=80
81984 On ch=3 n=43 v=100
81984 On ch=3 n=31 v=100
81984 On ch=3 n=60 v=90
81992 On ch=3 n=64 v=100
82160 Off ch=3 n=57 v=64
82160 Off ch=3 n=43 v=64
82160 Off ch=3 n=31 v=64
82160 Off ch=3 n=60 v=64
82168 Off ch=3 n=64 v=64
82176 On ch=3 n=57 v=95
82176 On ch=3 n=29 v=100
82176 On ch=3 n=60 v=80
82184 On ch=3 n=64 v=100
82208 Par ch=3 c=64 v=0
82240 Par ch=3 c=64 v=127
82544 Off ch=3 n=57 v=64
82544 Off ch=3 n=29 v=64
82544 Off ch=3 n=60 v=64
82552 Off ch=3 n=64 v=64
82560 On ch=3 n=57 v=95
82560 On ch=3 n=48 v=100
82560 On ch=3 n=60 v=80
82568 On ch=3 n=62 v=100
82736 Off ch=3 n=48 v=64
82752 On ch=3 n=36 v=100
82928 Off ch=3 n=57 v=64
82928 Off ch=3 n=60 v=64
82928 Off ch=3 n=36 v=64
82936 Off ch=3 n=62 v=64
82944 On ch=3 n=48 v=100
82944 On ch=3 n=60 v=95
82952 On ch=3 n=64 v=80
82960 On ch=3 n=67 v=100
82976 Par ch=3 c=64 v=0
83008 Par ch=3 c=64 v=127
83120 Off ch=3 n=48 v=64
83136 On ch=3 n=36 v=100
83312 Off ch=3 n=60 v=64
83320 Off ch=3 n=64 v=64
83320 Off ch=3 n=67 v=64
83328 On ch=3 n=60 v=95
83336 On ch=3 n=64 v=80
83344 On ch=3 n=67 v=100
83504 Off ch=3 n=36 v=64
83520 On ch=3 n=36 v=100
83696 Off ch=3 n=60 v=64
83696 Off ch=3 n=36 v=64
83704 Off ch=3 n=64 v=64
83704 Off ch=3 n=67 v=64
83712 On ch=3 n=59 v=95
83712 On ch=3 n=43 v=100
83712 On ch=3 n=62 v=80
83720 On ch=3 n=67 v=100
83744 Par ch=3 c=64 v=0
83776 Par ch=3 c=64 v=127
83888 Off ch=3 n=43 v=64
83904 On ch=3 n=31 v=100
84080 Off ch=3 n=59 v=64
84080 Off ch=3 n=62 v=64
84088 Off ch=3 n=67 v=64
84096 On ch=3 n=59 v=95
84096 On ch=3 n=62 v=80
84104 On ch=3 n=67 v=100
84272 Off ch=3 n=31 v=64
84288 On ch=3 n=43 v=100
84464 Off ch=3 n=59 v=64
84464 Off ch=3 n=62 v=64
84464 Off ch=3 n=43 v=64
84472 Off ch=3 n=67 v=64
84480 On ch=3 n=29 v=100
84480 On ch=3 n=57 v=95
84488 On ch=3 n=60 v=80
84496 On ch=3 n=65 v=100
84512 Par ch=3 c=64 v=0
84544 Par ch=3 c=64 v=127
84656 Off ch=3 n=29 v=64
84848 Off ch=3 n=57 v=64
84856 Off ch=3 n=60 v=64
84856 Off ch=3 n=65 v=64
84864 On ch=3 n=60 v=95
84864 On ch=3 n=40 v=100
84864 On ch=3 n=64 v=80
84872 On ch=3 n=67 v=100
85040 Off ch=3 n=60 v=64
85040 Off ch=3 n=40 v=64
85040 Off ch=3 n=64 v=64
85048 Off ch=3 n=67 v=64
85056 On ch=3 n=60 v=80
85056 On ch=3 n=38 v=100
85056 On ch=3 n=65 v=90
85064 On ch=3 n=62 v=90
85232 Off ch=3 n=60 v=64
85232 Off ch=3 n=38 v=64
85232 Off ch=3 n=65 v=64
85240 Off ch=3 n=62 v=64
85248 On ch=3 n=60 v=95
85248 On ch=3 n=36 v=100
85248 On ch=3 n=64 v=80
85256 On ch=3 n=67 v=100
85280 Par ch=3 c=64 v=0
85312 Par ch=3 c=64 v=127
85424 Off ch=3 n=36 v=64
85440 On ch=3 n=48 v=115
85616 Off ch=3 n=60 v=64
85616 Off ch=3 n=64 v=64
85616 Off ch=3 n=48 v=64
85624 Off ch=3 n=67 v=64
85632 On ch=3 n=60 v=95
85632 On ch=3 n=48 v=115
85632 On ch=3 n=64 v=80
85640 On ch=3 n=67 v=100
85808 Off ch=3 n=48 v=64
85824 On ch=3 n=48 v=125
86000 Off ch=3 n=60 v=64
86000 Off ch=3 n=64 v=64
86008 Off ch=3 n=67 v=64
86016 Off ch=3 n=48 v=64
86016 On ch=3 n=45 v=100
86016 On ch=3 n=33 v=100
86016 On ch=3 n=60 v=95
86024 On ch=3 n=64 v=80
86032 On ch=3 n=69 v=100
86048 Par ch=3 c=64 v=0
86080 Par ch=3 c=64 v=127
86192 Off ch=3 n=45 v=64
86192 Off ch=3 n=33 v=64
86208 On ch=3 n=45 v=100
86384 Off ch=3 n=60 v=64
86392 Off ch=3 n=64 v=64
86392 Off ch=3 n=69 v=64
86400 On ch=3 n=60 v=95
86408 On ch=3 n=64 v=80
86416 On ch=3 n=69 v=100
86576 Off ch=3 n=45 v=64
86592 On ch=3 n=45 v=100
86768 Off ch=3 n=60 v=64
86768 Off ch=3 n=45 v=64
86776 Off ch=3 n=64 v=64
86776 Off ch=3 n=69 v=64
86784 On ch=3 n=60 v=95
86784 On ch=3 n=43 v=100
86784 On ch=3 n=31 v=100
86784 On ch=3 n=64 v=80
86792 On ch=3 n=67 v=100
86816 Par ch=3 c=64 v=0
86848 Par ch=3 c=64 v=127
86960 Off ch=3 n=43 v=64
86960 Off ch=3 n=31 v=64
86976 On ch=3 n=43 v=100
87152 Off ch=3 n=60 v=64
87152 Off ch=3 n=64 v=64
87160 Off ch=3 n=67 v=64
87168 On ch=3 n=60 v=95
87168 On ch=3 n=64 v=80
87176 On ch=3 n=67 v=100
87344 Off ch=3 n=43 v=64
87360 On ch=3 n=43 v=100
87536 Off ch=3 n=60 v=64
87536 Off ch=3 n=64 v=64
87536 Off ch=3 n=43 v=64
87544 Off ch=3 n=67 v=64
87552 On ch=3 n=41 v=100
87552 On ch=3 n=29 v=100
87552 On ch=3 n=57 v=95
87560 On ch=3 n=60 v=80
87568 On ch=3 n=65 v=100
87584 Par ch=3 c=64 v=0
87616 Par ch=3 c=64 v=127
87728 Off ch=3 n=41 v=64
87728 Off ch=3 n=29 v=64
87744 On ch=3 n=41 v=100
87920 Off ch=3 n=57 v=64
87928 Off ch=3 n=60 v=64
87928 Off ch=3 n=65 v=64
87936 On ch=3 n=57 v=95
87944 On ch=3 n=60 v=80
87952 On ch=3 n=65 v=100
88112 Off ch=3 n=41 v=64
88128 On ch=3 n=41 v=100
88304 Off ch=3 n=57 v=64
88304 Off ch=3 n=41 v=64
88312 Off ch=3 n=60 v=64
88312 Off ch=3 n=65 v=64
88320 On ch=3 n=60 v=95
88320 On ch=3 n=36 v=100
88320 On ch=3 n=64 v=80
88328 On ch=3 n=67 v=100
88352 Par ch=3 c=64 v=0
88384 Par ch=3 c=64 v=127
88496 Off ch=3 n=36 v=64
88512 On ch=3 n=48 v=100
88688 Off ch=3 n=60 v=64
88688 Off ch=3 n=64 v=64
88696 Off ch=3 n=67 v=64
88704 On ch=3 n=60 v=95
88704 On ch=3 n=64 v=80
88712 On ch=3 n=67 v=100
88880 Off ch=3 n=48 v=64
88896 On ch=3 n=48 v=100
89072 Off ch=3 n=60 v=64
89072 Off ch=3 n=64 v=64
89072 Off ch=3 n=48 v=64
89080 Off ch=3 n=67 v=64
89088 On ch=3 n=48 v=100
89088 On ch=3 n=60 v=95
89096 On ch=3 n=64 v=80
89104 On ch=3 n=67 v=100
89120 Par ch=3 c=64 v=0
89152 Par ch=3 c=64 v=127
89264 Off ch=3 n=48 v=64
89280 On ch=3 n=36 v=100
89456 Off ch=3 n=60 v=64
89464 Off ch=3 n=64 v=64
89464 Off ch=3 n=67 v=64
89472 On ch=3 n=60 v=95
89480 On ch=3 n=64 v=80
89488 On ch=3 n=67 v=100
89648 Off ch=3 n=36 v=64
89664 On ch=3 n=48 v=100
89744 Off ch=3 n=48 v=64
89760 On ch=3 n=41 v=100
89840 Off ch=3 n=60 v=64
89840 Off ch=3 n=41 v=64
89848 Off ch=3 n=64 v=64
89848 Off ch=3 n=67 v=64
89856 On ch=3 n=59 v=95
89856 On ch=3 n=43 v=100
89856 On ch=3 n=62 v=80
89864 On ch=3 n=67 v=100
89888 Par ch=3 c=64 v=0
89920 Par ch=3 c=64 v=127
90032 Off ch=3 n=43 v=64
90048 On ch=3 n=31 v=100
90224 Off ch=3 n=59 v=64
90224 Off ch=3 n=62 v=64
90232 Off ch=3 n=67 v=64
90240 On ch=3 n=59 v=95
90240 On ch=3 n=62 v=80
90248 On ch=3 n=67 v=100
90416 Off ch=3 n=31 v=64
90432 On ch=3 n=43 v=100
90608 Off ch=3 n=59 v=64
90608 Off ch=3 n=62 v=64
90608 Off ch=3 n=43 v=64
90616 Off ch=3 n=67 v=64
90624 On ch=3 n=29 v=100
90624 On ch=3 n=57 v=100
90632 On ch=3 n=65 v=100
90640 On ch=3 n=69 v=100
90656 Par ch=3 c=64 v=0
90688 Par ch=3 c=64 v=127
90800 Off ch=3 n=29 v=64
90816 On ch=3 n=41 v=100
90992 Off ch=3 n=57 v=64
90992 Off ch=3 n=41 v=64
91000 Off ch=3 n=65 v=64
91000 Off ch=3 n=69 v=64
91008 On ch=3 n=60 v=100
91008 On ch=3 n=40 v=100
91008 On ch=3 n=64 v=100
91016 On ch=3 n=67 v=100
91184 Off ch=3 n=40 v=64
91184 Off ch=3 n=64 v=64
91192 Off ch=3 n=67 v=64
91200 On ch=3 n=38 v=100
91200 On ch=3 n=62 v=100
91208 On ch=3 n=65 v=100
91376 Off ch=3 n=60 v=64
91376 Off ch=3 n=38 v=64
91376 Off ch=3 n=62 v=64
91384 Off ch=3 n=65 v=64
91392 On ch=3 n=36 v=100
91392 On ch=3 n=60 v=100
91408 On ch=3 n=64 v=100
91424 Par ch=3 c=64 v=0
91424 On ch=3 n=67 v=60
91456 Par ch=3 c=64 v=127
91568 Off ch=3 n=36 v=64
91584 On ch=3 n=48 v=115
91760 Off ch=3 n=48 v=64
91776 On ch=3 n=48 v=115
91952 Off ch=3 n=48 v=64
91968 On ch=3 n=48 v=125
92112 Off ch=3 n=60 v=64
92144 Off ch=3 n=64 v=64
92160 Off ch=3 n=48 v=64
92160 On ch=3 n=45 v=100
92160 On ch=3 n=33 v=100
92160 On ch=3 n=60 v=95
92168 On ch=3 n=64 v=80
92176 Off ch=3 n=67 v=64
92176 On ch=3 n=69 v=100
92192 Par ch=3 c=64 v=0
92224 Par ch=3 c=64 v=127
92336 Off ch=3 n=45 v=64
92336 Off ch=3 n=33 v=64
92352 On ch=3 n=45 v=100
92528 Off ch=3 n=60 v=64
92536 Off ch=3 n=64 v=64
92536 Off ch=3 n=69 v=64
92544 On ch=3 n=60 v=95
92552 On ch=3 n=64 v=80
92560 On ch=3 n=69 v=100
92720 Off ch=3 n=45 v=64
92736 On ch=3 n=45 v=100
92912 Off ch=3 n=60 v=64
92912 Off ch=3 n=45 v=64
92920 Off ch=3 n=64 v=64
92920 Off ch=3 n=69 v=64
92928 On ch=3 n=60 v=95
92928 On ch=3 n=43 v=100
92928 On ch=3 n=31 v=100
92928 On ch=3 n=64 v=80
92936 On ch=3 n=67 v=100
92960 Par ch=3 c=64 v=0
92992 Par ch=3 c=64 v=127
93104 Off ch=3 n=43 v=64
93104 Off ch=3 n=31 v=64
93120 On ch=3 n=43 v=100
93296 Off ch=3 n=60 v=64
93296 Off ch=3 n=64 v=64
93304 Off ch=3 n=67 v=64
93312 On ch=3 n=60 v=95
93312 On ch=3 n=64 v=80
93320 On ch=3 n=67 v=100
93488 Off ch=3 n=43 v=64
93504 On ch=3 n=43 v=100
93680 Off ch=3 n=60 v=64
93680 Off ch=3 n=64 v=64
93680 Off ch=3 n=43 v=64
93688 Off ch=3 n=67 v=64
93696 On ch=3 n=41 v=100
93696 On ch=3 n=29 v=100
93696 On ch=3 n=57 v=95
93704 On ch=3 n=60 v=80
93712 On ch=3 n=65 v=100
93728 Par ch=3 c=64 v=0
93760 Par ch=3 c=64 v=127
93872 Off ch=3 n=41 v=64
93872 Off ch=3 n=29 v=64
93888 On ch=3 n=41 v=100
94064 Off ch=3 n=57 v=64
94072 Off ch=3 n=60 v=64
94072 Off ch=3 n=65 v=64
94080 On ch=3 n=57 v=95
94088 On ch=3 n=60 v=80
94096 On ch=3 n=65 v=100
94256 Off ch=3 n=41 v=64
94272 On ch=3 n=41 v=100
94448 Off ch=3 n=57 v=64
94448 Off ch=3 n=41 v=64
94456 Off ch=3 n=60 v=64
94456 Off ch=3 n=65 v=64
94464 On ch=3 n=60 v=95
94464 On ch=3 n=36 v=100
94464 On ch=3 n=64 v=80
94472 On ch=3 n=67 v=100
94496 Par ch=3 c=64 v=0
94528 Par ch=3 c=64 v=127
94640 Off ch=3 n=36 v=64
94656 On ch=3 n=48 v=100
94832 Off ch=3 n=60 v=64
94832 Off ch=3 n=64 v=64
94840 Off ch=3 n=67 v=64
94848 On ch=3 n=60 v=95
94848 On ch=3 n=64 v=80
94856 On ch=3 n=67 v=100
95024 Off ch=3 n=48 v=64
95040 On ch=3 n=48 v=100
95216 Off ch=3 n=60 v=64
95216 Off ch=3 n=64 v=64
95216 Off ch=3 n=48 v=64
95224 Off ch=3 n=67 v=64
95232 On ch=3 n=48 v=100
95232 On ch=3 n=60 v=95
95240 On ch=3 n=64 v=80
95248 On ch=3 n=67 v=100
95264 Par ch=3 c=64 v=0
95296 Par ch=3 c=64 v=127
95408 Off ch=3 n=48 v=64
95424 On ch=3 n=36 v=100
95600 Off ch=3 n=60 v=64
95608 Off ch=3 n=64 v=64
95608 Off ch=3 n=67 v=64
95616 On ch=3 n=60 v=95
95624 On ch=3 n=64 v=80
95632 On ch=3 n=67 v=100
95792 Off ch=3 n=36 v=64
95808 On ch=3 n=48 v=100
95888 Off ch=3 n=48 v=64
95904 On ch=3 n=41 v=100
95984 Off ch=3 n=60 v=64
95984 Off ch=3 n=41 v=64
95992 Off ch=3 n=64 v=64
95992 Off ch=3 n=67 v=64
96000 On ch=3 n=59 v=95
96000 On ch=3 n=43 v=100
96000 On ch=3 n=62 v=80
96008 On ch=3 n=67 v=100
96032 Par ch=3 c=64 v=0
96064 Par ch=3 c=64 v=127
96176 Off ch=3 n=43 v=64
96192 On ch=3 n=31 v=100
96368 Off ch=3 n=59 v=64
96368 Off ch=3 n=62 v=64
96376 Off ch=3 n=67 v=64
96384 On ch=3 n=59 v=95
96384 On ch=3 n=62 v=80
96392 On ch=3 n=67 v=100
96560 Off ch=3 n=31 v=64
96576 On ch=3 n=43 v=100
96752 Off ch=3 n=59 v=64
96752 Off ch=3 n=62 v=64
96752 Off ch=3 n=43 v=64
96760 Off ch=3 n=67 v=64
96768 On ch=3 n=29 v=100
96768 On ch=3 n=57 v=100
96776 On ch=3 n=65 v=100
96784 On ch=3 n=69 v=100
96800 Par ch=3 c=64 v=0
96832 Par ch=3 c=64 v=127
96944 Off ch=3 n=29 v=64
97136 Off ch=3 n=57 v=64
97144 Off ch=3 n=65 v=64
97144 Off ch=3 n=69 v=64
97152 On ch=3 n=60 v=100
97152 On ch=3 n=40 v=100
97152 On ch=3 n=64 v=100
97160 On ch=3 n=67 v=100
97328 Off ch=3 n=40 v=64
97328 Off ch=3 n=64 v=64
97336 Off ch=3 n=67 v=64
97344 On ch=3 n=38 v=100
97344 On ch=3 n=62 v=100
97352 On ch=3 n=65 v=100
97520 Off ch=3 n=60 v=64
97520 Off ch=3 n=38 v=64
97520 Off ch=3 n=62 v=64
97528 Off ch=3 n=65 v=64
97536 On ch=3 n=60 v=100
97536 On ch=3 n=36 v=100
97536 On ch=3 n=64 v=100
97544 On ch=3 n=67 v=60
97568 Par ch=3 c=64 v=0
97600 Par ch=3 c=64 v=127
97712 Off ch=3 n=36 v=64
97728 On ch=3 n=48 v=115
97904 Off ch=3 n=60 v=64
97904 Off ch=3 n=64 v=64
97904 Off ch=3 n=48 v=64
97912 Off ch=3 n=67 v=64
97920 On ch=3 n=60 v=100
97920 On ch=3 n=48 v=115
97920 On ch=3 n=64 v=100
97928 On ch=3 n=67 v=60
98096 Off ch=3 n=48 v=64
98112 On ch=3 n=48 v=125
98288 Off ch=3 n=60 v=64
98288 Off ch=3 n=64 v=64
98296 Off ch=3 n=67 v=64
98304 Off ch=3 n=48 v=64
98304 On ch=3 n=45 v=100
98304 On ch=3 n=33 v=100
98304 On ch=3 n=60 v=95
98312 On ch=3 n=64 v=80
98320 On ch=3 n=69 v=100
98336 Par ch=3 c=64 v=0
98368 Par ch=3 c=64 v=127
98480 Off ch=3 n=45 v=64
98480 Off ch=3 n=33 v=64
98496 On ch=3 n=45 v=100
98672 Off ch=3 n=60 v=64
98680 Off ch=3 n=64 v=64
98680 Off ch=3 n=69 v=64
98688 On ch=3 n=60 v=95
98696 On ch=3 n=64 v=80
98704 On ch=3 n=69 v=100
98864 Off ch=3 n=45 v=64
98880 On ch=3 n=45 v=100
99056 Off ch=3 n=60 v=64
99056 Off ch=3 n=45 v=64
99064 Off ch=3 n=64 v=64
99064 Off ch=3 n=69 v=64
99072 On ch=3 n=60 v=95
99072 On ch=3 n=43 v=100
99072 On ch=3 n=31 v=100
99072 On ch=3 n=64 v=80
99080 On ch=3 n=67 v=100
99104 Par ch=3 c=64 v=0
99136 Par ch=3 c=64 v=127
99248 Off ch=3 n=43 v=64
99248 Off ch=3 n=31 v=64
99264 On ch=3 n=43 v=100
99440 Off ch=3 n=60 v=64
99440 Off ch=3 n=64 v=64
99448 Off ch=3 n=67 v=64
99456 On ch=3 n=60 v=95
99456 On ch=3 n=64 v=80
99464 On ch=3 n=67 v=100
99632 Off ch=3 n=43 v=64
99648 On ch=3 n=43 v=100
99824 Off ch=3 n=60 v=64
99824 Off ch=3 n=64 v=64
99824 Off ch=3 n=43 v=64
99832 Off ch=3 n=67 v=64
99840 On ch=3 n=41 v=100
99840 On ch=3 n=29 v=100
99840 On ch=3 n=57 v=95
99848 On ch=3 n=60 v=80
99856 On ch=3 n=65 v=100
99872 Par ch=3 c=64 v=0
99904 Par ch=3 c=64 v=127
100016 Off ch=3 n=41 v=64
100016 Off ch=3 n=29 v=64
100032 On ch=3 n=41 v=100
100208 Off ch=3 n=57 v=64
100216 Off ch=3 n=60 v=64
100216 Off ch=3 n=65 v=64
100224 On ch=3 n=57 v=95
100232 On ch=3 n=60 v=80
100240 On ch=3 n=65 v=100
100400 Off ch=3 n=41 v=64
100416 On ch=3 n=41 v=100
100592 Off ch=3 n=57 v=64
100592 Off ch=3 n=41 v=64
100600 Off ch=3 n=60 v=64
100600 Off ch=3 n=65 v=64
100608 On ch=3 n=60 v=95
100608 On ch=3 n=36 v=100
100608 On ch=3 n=64 v=80
100616 On ch=3 n=67 v=100
100640 Par ch=3 c=64 v=0
100672 Par ch=3 c=64 v=127
100784 Off ch=3 n=36 v=64
100800 On ch=3 n=48 v=100
100976 Off ch=3 n=60 v=64
100976 Off ch=3 n=64 v=64
100984 Off ch=3 n=67 v=64
100992 On ch=3 n=60 v=95
100992 On ch=3 n=64 v=80
101000 On ch=3 n=67 v=100
101168 Off ch=3 n=48 v=64
101184 On ch=3 n=48 v=100
101360 Off ch=3 n=60 v=64
101360 Off ch=3 n=64 v=64
101360 Off ch=3 n=48 v=64
101368 Off ch=3 n=67 v=64
101376 On ch=3 n=48 v=100
101376 On ch=3 n=60 v=95
101384 On ch=3 n=64 v=80
101392 On ch=3 n=67 v=100
101408 Par ch=3 c=64 v=0
101440 Par ch=3 c=64 v=127
101552 Off ch=3 n=48 v=64
101568 On ch=3 n=36 v=100
101744 Off ch=3 n=60 v=64
101752 Off ch=3 n=64 v=64
101752 Off ch=3 n=67 v=64
101760 On ch=3 n=60 v=95
101768 On ch=3 n=64 v=80
101776 On ch=3 n=67 v=100
101936 Off ch=3 n=36 v=64
101952 On ch=3 n=48 v=100
102032 Off ch=3 n=48 v=64
102048 On ch=3 n=41 v=100
102128 Off ch=3 n=60 v=64
102128 Off ch=3 n=41 v=64
102136 Off ch=3 n=64 v=64
102136 Off ch=3 n=67 v=64
102144 On ch=3 n=59 v=95
102144 On ch=3 n=43 v=100
102144 On ch=3 n=62 v=80
102152 On ch=3 n=67 v=100
102176 Par ch=3 c=64 v=0
102208 Par ch=3 c=64 v=127
102320 Off ch=3 n=43 v=64
102336 On ch=3 n=31 v=100
102512 Off ch=3 n=59 v=64
102512 Off ch=3 n=62 v=64
102520 Off ch=3 n=67 v=64
102528 On ch=3 n=59 v=95
102528 On ch=3 n=62 v=80
102536 On ch=3 n=67 v=100
102704 Off ch=3 n=31 v=64
102720 On ch=3 n=43 v=100
102896 Off ch=3 n=59 v=64
102896 Off ch=3 n=62 v=64
102896 Off ch=3 n=43 v=64
102904 Off ch=3 n=67 v=64
102912 On ch=3 n=29 v=100
102912 On ch=3 n=57 v=100
102920 On ch=3 n=65 v=100
102928 On ch=3 n=69 v=100
102944 Par ch=3 c=64 v=0
102976 Par ch=3 c=64 v=127
103088 Off ch=3 n=29 v=64
103104 On ch=3 n=41 v=100
103280 Off ch=3 n=57 v=64
103280 Off ch=3 n=41 v=64
103288 Off ch=3 n=65 v=64
103288 Off ch=3 n=69 v=64
103296 On ch=3 n=60 v=100
103296 On ch=3 n=40 v=100
103296 On ch=3 n=64 v=100
103304 On ch=3 n=67 v=100
103472 Off ch=3 n=40 v=64
103472 Off ch=3 n=64 v=64
103480 Off ch=3 n=67 v=64
103488 On ch=3 n=38 v=100
103488 On ch=3 n=62 v=100
103496 On ch=3 n=65 v=100
103664 Off ch=3 n=60 v=64
103664 Off ch=3 n=38 v=64
103664 Off ch=3 n=62 v=64
103672 Off ch=3 n=65 v=64
103680 On ch=3 n=60 v=100
103680 On ch=3 n=36 v=100
103680 On ch=3 n=64 v=100
103688 On ch=3 n=67 v=60
103712 Par ch=3 c=64 v=0
103744 Par ch=3 c=64 v=127
103856 Off ch=3 n=36 v=64
103872 On ch=3 n=48 v=115
104048 Off ch=3 n=60 v=64
104048 Off ch=3 n=64 v=64
104048 Off ch=3 n=48 v=64
104056 Off ch=3 n=67 v=64
104064 On ch=3 n=60 v=100
104064 On ch=3 n=48 v=115
104064 On ch=3 n=64 v=100
104072 On ch=3 n=67 v=60
104240 Off ch=3 n=48 v=64
104256 On ch=3 n=48 v=125
104432 Off ch=3 n=60 v=64
104432 Off ch=3 n=64 v=64
104440 Off ch=3 n=67 v=64
104448 Off ch=3 n=48 v=64
104448 Par ch=3 c=64 v=0
104448 On ch=3 n=65 v=100
104448 On ch=3 n=41 v=100
104448 On ch=3 n=69 v=100
104816 Off ch=3 n=65 v=64
104816 Off ch=3 n=41 v=64
104816 Off ch=3 n=69 v=64
104832 On ch=3 n=64 v=100
104832 On ch=3 n=40 v=100
104832 On ch=3 n=67 v=100
105008 Off ch=3 n=64 v=64
105008 Off ch=3 n=40 v=64
105008 Off ch=3 n=67 v=64
105024 On ch=3 n=62 v=100
105024 On ch=3 n=38 v=100
105024 On ch=3 n=65 v=100
105200 Off ch=3 n=62 v=64
105200 Off ch=3 n=38 v=64
105200 Off ch=3 n=65 v=64
105216 On ch=3 n=60 v=100
105216 On ch=3 n=36 v=100
105216 On ch=3 n=64 v=100
105584 Off ch=3 n=60 v=64
105584 Off ch=3 n=36 v=64
105584 Off ch=3 n=64 v=64
105600 On ch=3 n=58 v=100
105600 On ch=3 n=34 v=100
105600 On ch=3 n=62 v=100
105776 Off ch=3 n=58 v=64
105776 Off ch=3 n=34 v=64
105776 Off ch=3 n=62 v=64
105792 On ch=3 n=57 v=100
105792 On ch=3 n=33 v=100
105792 On ch=3 n=60 v=100
105968 Off ch=3 n=57 v=64
105968 Off ch=3 n=33 v=64
105968 Off ch=3 n=60 v=64
105984 On ch=3 n=55 v=100
105984 On ch=3 n=50 v=100
105984 On ch=3 n=31 v=100
105984 On ch=3 n=59 v=100
106352 Off ch=3 n=55 v=64
106352 Off ch=3 n=50 v=64
106352 Off ch=3 n=31 v=64
106352 Off ch=3 n=59 v=64
106368 On ch=3 n=53 v=100
106368 On ch=3 n=48 v=100
106368 On ch=3 n=29 v=100
106368 On ch=3 n=57 v=100
106736 Off ch=3 n=53 v=64
106736 Off ch=3 n=48 v=64
106736 Off ch=3 n=29 v=64
106736 Off ch=3 n=57 v=64
106752 On ch=3 n=48 v=100
106752 Off ch=3 n=48 v=64
106752 On ch=3 n=36 v=100
106752 On ch=3 n=48 v=100
106768 On ch=3 n=52 v=100
106784 On ch=3 n=55 v=100
107472 Off ch=3 n=36 v=64
107504 Off ch=3 n=52 v=64
107504 Off ch=3 n=55 v=64
107520 Par ch=3 c=7 v=96
107904 Off ch=3 n=48 v=65
107904 Par ch=3 c=7 v=96
107904 Meta TrkEnd
TrkEnd
MTrk
0 Meta TrkName "Str Sect 3          "
0 Par ch=4 c=0 v=0
0 PrCh ch=4 p=16
0 Par ch=4 c=7 v=85
0 KeySig 0 major
0 Pb ch=4 v=8192
0 Par ch=4 c=64 v=0
0 Par ch=4 c=11 v=95
0 Par ch=4 c=1 v=20
16896 Par ch=4 c=7 v=0
16944 Par ch=4 c=7 v=2
16992 Par ch=4 c=7 v=4
17040 Par ch=4 c=7 v=6
17088 Par ch=4 c=7 v=8
17136 Par ch=4 c=7 v=10
17184 Par ch=4 c=7 v=12
17232 Par ch=4 c=7 v=14
17280 Par ch=4 c=7 v=16
17328 Par ch=4 c=7 v=18
17376 Par ch=4 c=7 v=20
17424 Par ch=4 c=7 v=22
17472 Par ch=4 c=7 v=24
17520 Par ch=4 c=7 v=26
17568 Par ch=4 c=7 v=28
17616 Par ch=4 c=7 v=30
17664 Par ch=4 c=7 v=32
17712 Par ch=4 c=7 v=34
17760 Par ch=4 c=7 v=36
17808 Par ch=4 c=7 v=38
17856 Par ch=4 c=7 v=40
18416 Par ch=4 c=7 v=40
18416 On ch=4 n=76 v=120
18416 On ch=4 n=81 v=120
18416 On ch=4 n=84 v=120
18512 Par ch=4 c=7 v=45
18560 Par ch=4 c=7 v=50
18608 Par ch=4 c=7 v=55
18656 Par ch=4 c=7 v=60
18704 Par ch=4 c=7 v=65
18752 Par ch=4 c=7 v=70
18800 Par ch=4 c=7 v=75
18848 Par ch=4 c=7 v=80
19168 Off ch=4 n=76 v=64
19168 Off ch=4 n=81 v=64
19168 Off ch=4 n=84 v=64
19184 Par ch=4 c=7 v=60
19184 On ch=4 n=76 v=120
19184 On ch=4 n=79 v=120
19184 On ch=4 n=84 v=120
19200 Par ch=4 c=7 v=71
19936 Off ch=4 n=76 v=64
19936 Off ch=4 n=79 v=64
19936 Off ch=4 n=84 v=64
19952 On ch=4 n=69 v=120
19952 On ch=4 n=77 v=120
19952 On ch=4 n=84 v=120
20704 Off ch=4 n=69 v=64
20704 Off ch=4 n=77 v=64
20704 Off ch=4 n=84 v=64
20720 On ch=4 n=76 v=120
20720 On ch=4 n=79 v=120
20720 On ch=4 n=84 v=120
20736 Par ch=4 c=7 v=71
21472 Off ch=4 n=76 v=64
21472 Off ch=4 n=79 v=64
21472 Off ch=4 n=84 v=64
21488 On ch=4 n=76 v=120
21488 On ch=4 n=79 v=120
21488 On ch=4 n=84 v=120
22240 Off ch=4 n=76 v=64
22240 Off ch=4 n=79 v=64
22240 Off ch=4 n=84 v=64
22256 On ch=4 n=74 v=120
22256 On ch=4 n=79 v=120
22256 On ch=4 n=83 v=120
22272 Par ch=4 c=7 v=71
23008 Off ch=4 n=74 v=64
23008 Off ch=4 n=79 v=64
23008 Off ch=4 n=83 v=64
23024 On ch=4 n=72 v=120
23024 On ch=4 n=77 v=120
23024 On ch=4 n=81 v=120
23040 Par ch=4 c=7 v=71
23040 Par ch=4 c=7 v=78
23040 Par ch=4 c=7 v=70
23040 Par ch=4 c=7 v=67
23392 Off ch=4 n=72 v=64
23392 Off ch=4 n=77 v=64
23392 Off ch=4 n=81 v=64
23408 On ch=4 n=72 v=120
23408 On ch=4 n=76 v=120
23408 On ch=4 n=79 v=120
23584 Off ch=4 n=72 v=64
23584 Off ch=4 n=76 v=64
23584 Off ch=4 n=79 v=64
23600 On ch=4 n=72 v=120
23600 On ch=4 n=74 v=120
23600 On ch=4 n=77 v=120
23776 Off ch=4 n=72 v=64
23776 Off ch=4 n=74 v=64
23776 Off ch=4 n=77 v=64
23792 On ch=4 n=72 v=120
23792 On ch=4 n=76 v=127
23792 On ch=4 n=79 v=60
24512 Off ch=4 n=72 v=64
24512 Off ch=4 n=76 v=64
24512 Off ch=4 n=79 v=64
36864 PrCh ch=4 p=44
36864 Par ch=4 c=7 v=40
36864 On ch=4 n=76 v=127
36864 On ch=4 n=81 v=127
36864 On ch=4 n=84 v=127
36960 Par ch=4 c=7 v=45
37008 Par ch=4 c=7 v=50
37056 Par ch=4 c=7 v=55
37104 Par ch=4 c=7 v=60
37152 Par ch=4 c=7 v=65
37200 Par ch=4 c=7 v=70
37248 Par ch=4 c=7 v=75
37296 Par ch=4 c=7 v=80
37616 Off ch=4 n=76 v=64
37616 Off ch=4 n=81 v=64
37616 Off ch=4 n=84 v=64
37632 Par ch=4 c=7 v=60
37632 On ch=4 n=76 v=127
37632 On ch=4 n=79 v=127
37632 On ch=4 n=84 v=127
37728 Par ch=4 c=7 v=65
37824 Par ch=4 c=7 v=70
37920 Par ch=4 c=7 v=75
38016 Par ch=4 c=7 v=80
38384 Off ch=4 n=76 v=64
38384 Off ch=4 n=79 v=64
38384 Off ch=4 n=84 v=64
38400 Par ch=4 c=7 v=65
38400 On ch=4 n=77 v=127
38400 On ch=4 n=81 v=127
38400 On ch=4 n=84 v=127
38496 Par ch=4 c=7 v=70
38592 Par ch=4 c=7 v=75
38688 Par ch=4 c=7 v=80
39152 Off ch=4 n=77 v=64
39152 Off ch=4 n=81 v=64
39152 Off ch=4 n=84 v=64
39168 Par ch=4 c=7 v=65
39168 On ch=4 n=76 v=127
39168 On ch=4 n=79 v=127
39168 On ch=4 n=84 v=127
39264 Par ch=4 c=7 v=70
39360 Par ch=4 c=7 v=75
39456 Par ch=4 c=7 v=80
39920 Off ch=4 n=76 v=64
39920 Off ch=4 n=79 v=64
39920 Off ch=4 n=84 v=64
39936 Par ch=4 c=7 v=65
39936 On ch=4 n=76 v=127
39936 On ch=4 n=79 v=127
39936 On ch=4 n=84 v=127
40032 Par ch=4 c=7 v=70
40128 Par ch=4 c=7 v=75
40224 Par ch=4 c=7 v=80
40688 Off ch=4 n=76 v=64
40688 Off ch=4 n=79 v=64
40688 Off ch=4 n=84 v=64
40704 Par ch=4 c=7 v=65
40704 On ch=4 n=74 v=127
40704 On ch=4 n=79 v=127
40704 On ch=4 n=83 v=127
40800 Par ch=4 c=7 v=70
40896 Par ch=4 c=7 v=75
40992 Par ch=4 c=7 v=80
41456 Off ch=4 n=74 v=64
41456 Off ch=4 n=79 v=64
41456 Off ch=4 n=83 v=64
41472 On ch=4 n=72 v=127
41472 On ch=4 n=77 v=127
41472 On ch=4 n=81 v=127
41840 Off ch=4 n=72 v=64
41840 Off ch=4 n=77 v=64
41840 Off ch=4 n=81 v=64
41856 On ch=4 n=72 v=127
41856 On ch=4 n=76 v=127
41856 On ch=4 n=79 v=127
42032 Off ch=4 n=72 v=64
42032 Off ch=4 n=76 v=64
42032 Off ch=4 n=79 v=64
42048 On ch=4 n=72 v=127
42048 On ch=4 n=74 v=127
42048 On ch=4 n=77 v=127
42224 Off ch=4 n=72 v=64
42224 Off ch=4 n=74 v=64
42224 Off ch=4 n=77 v=64
42240 On ch=4 n=72 v=127
42240 On ch=4 n=76 v=127
42240 On ch=4 n=79 v=127
42960 Off ch=4 n=72 v=64
42960 Off ch=4 n=76 v=64
42960 Off ch=4 n=79 v=64
42992 PrCh ch=4 p=16
42992 Par ch=4 c=7 v=100
42992 On ch=4 n=64 v=127
42992 On ch=4 n=69 v=127
42992 On ch=4 n=72 v=127
43744 Off ch=4 n=64 v=64
43744 Off ch=4 n=69 v=64
43744 Off ch=4 n=72 v=64
43760 On ch=4 n=67 v=127
43760 On ch=4 n=72 v=127
43760 On ch=4 n=76 v=127
44512 Off ch=4 n=67 v=64
44512 Off ch=4 n=72 v=64
44512 Off ch=4 n=76 v=64
44528 On ch=4 n=65 v=127
44528 On ch=4 n=69 v=127
44528 On ch=4 n=76 v=127
45280 Off ch=4 n=65 v=64
45280 Off ch=4 n=69 v=64
45280 Off ch=4 n=76 v=64
45296 On ch=4 n=64 v=127
45296 On ch=4 n=67 v=127
45296 On ch=4 n=72 v=127
46048 Off ch=4 n=64 v=64
46048 Off ch=4 n=67 v=64
46048 Off ch=4 n=72 v=64
46064 On ch=4 n=64 v=127
46064 On ch=4 n=67 v=127
46064 On ch=4 n=72 v=127
46816 Off ch=4 n=64 v=64
46816 Off ch=4 n=67 v=64
46816 Off ch=4 n=72 v=64
46832 On ch=4 n=62 v=127
46832 On ch=4 n=67 v=127
46832 On ch=4 n=71 v=127
47584 Off ch=4 n=62 v=64
47584 Off ch=4 n=67 v=64
47584 Off ch=4 n=71 v=64
47600 On ch=4 n=60 v=127
47600 On ch=4 n=65 v=127
47600 On ch=4 n=69 v=127
48352 Off ch=4 n=60 v=64
48352 Off ch=4 n=65 v=64
48352 Off ch=4 n=69 v=64
49152 Par ch=4 c=11 v=80
49152 Par ch=4 c=7 v=100
49152 PrCh ch=4 p=16
49152 On ch=4 n=65 v=127
49152 On ch=4 n=69 v=127
49520 Off ch=4 n=65 v=64
49520 Off ch=4 n=69 v=64
49536 On ch=4 n=64 v=127
49536 On ch=4 n=67 v=127
49712 Off ch=4 n=64 v=64
49712 Off ch=4 n=67 v=64
49728 On ch=4 n=62 v=127
49728 On ch=4 n=65 v=127
49904 Off ch=4 n=62 v=64
49904 Off ch=4 n=65 v=64
49920 On ch=4 n=60 v=127
49920 On ch=4 n=64 v=127
50288 Off ch=4 n=60 v=64
50288 Off ch=4 n=64 v=64
50304 On ch=4 n=58 v=127
50304 On ch=4 n=62 v=127
50480 Off ch=4 n=58 v=64
50480 Off ch=4 n=62 v=64
50496 On ch=4 n=57 v=127
50496 On ch=4 n=60 v=127
50672 Off ch=4 n=57 v=64
50672 Off ch=4 n=60 v=64
50688 On ch=4 n=55 v=127
50688 On ch=4 n=59 v=127
51056 Off ch=4 n=55 v=64
51056 Off ch=4 n=59 v=64
51072 On ch=4 n=53 v=127
51072 On ch=4 n=57 v=127
51440 Off ch=4 n=53 v=64
51440 Off ch=4 n=57 v=64
51456 On ch=4 n=52 v=127
51456 On ch=4 n=55 v=127
52208 Off ch=4 n=52 v=64
52208 Off ch=4 n=55 v=64
52224 PrCh ch=4 p=16
52224 Par ch=4 c=7 v=110
52224 On ch=4 n=81 v=127
52224 On ch=4 n=77 v=127
52224 On ch=4 n=53 v=127
52224 On ch=4 n=84 v=127
52576 Off ch=4 n=81 v=64
52576 Off ch=4 n=77 v=64
52576 Off ch=4 n=84 v=64
52608 On ch=4 n=79 v=127
52608 On ch=4 n=76 v=127
52608 On ch=4 n=84 v=127
52688 Off ch=4 n=76 v=64
52704 On ch=4 n=55 v=127
52784 Off ch=4 n=79 v=64
52784 Off ch=4 n=84 v=64
52784 Off ch=4 n=55 v=64
52800 On ch=4 n=77 v=127
52800 On ch=4 n=74 v=127
52800 On ch=4 n=62 v=127
52800 On ch=4 n=84 v=127
52880 Off ch=4 n=62 v=64
52896 On ch=4 n=55 v=127
52976 Off ch=4 n=53 v=64
52976 Off ch=4 n=77 v=64
52976 Off ch=4 n=74 v=64
52976 Off ch=4 n=84 v=64
52976 Off ch=4 n=55 v=64
52992 On ch=4 n=79 v=127
52992 On ch=4 n=76 v=127
52992 On ch=4 n=60 v=127
52992 On ch=4 n=84 v=127
53360 Off ch=4 n=79 v=64
53360 Off ch=4 n=76 v=64
53360 Off ch=4 n=84 v=64
53376 On ch=4 n=77 v=127
53376 On ch=4 n=74 v=127
53376 On ch=4 n=58 v=127
53376 On ch=4 n=82 v=127
53456 Off ch=4 n=58 v=64
53472 On ch=4 n=53 v=127
53552 Off ch=4 n=77 v=64
53552 Off ch=4 n=74 v=64
53552 Off ch=4 n=82 v=64
53552 Off ch=4 n=53 v=64
53568 On ch=4 n=57 v=127
53568 On ch=4 n=77 v=127
53568 On ch=4 n=81 v=127
53568 On ch=4 n=84 v=127
53664 On ch=4 n=55 v=127
53744 Off ch=4 n=57 v=64
53744 Off ch=4 n=77 v=64
53744 Off ch=4 n=81 v=64
53744 Off ch=4 n=84 v=64
53760 Off ch=4 n=60 v=64
53760 On ch=4 n=79 v=127
53760 On ch=4 n=74 v=127
53760 On ch=4 n=83 v=127
54128 Off ch=4 n=55 v=64
54128 Off ch=4 n=79 v=64
54128 Off ch=4 n=74 v=64
54128 Off ch=4 n=83 v=64
54144 On ch=4 n=81 v=127
54144 On ch=4 n=77 v=127
54144 On ch=4 n=53 v=127
54144 On ch=4 n=84 v=127
54512 Off ch=4 n=81 v=64
54512 Off ch=4 n=77 v=64
54512 Off ch=4 n=53 v=64
54512 Off ch=4 n=84 v=64
54528 On ch=4 n=79 v=127
54528 On ch=4 n=76 v=127
54528 On ch=4 n=52 v=127
54528 On ch=4 n=84 v=127
55248 Off ch=4 n=79 v=64
55248 Off ch=4 n=76 v=64
55248 Off ch=4 n=52 v=64
55248 Off ch=4 n=84 v=64
55296 Par ch=4 c=7 v=90
55296 On ch=4 n=76 v=127
55296 On ch=4 n=79 v=127
55296 On ch=4 n=84 v=127
56048 Off ch=4 n=76 v=64
56048 Off ch=4 n=79 v=64
56048 Off ch=4 n=84 v=64
56064 On ch=4 n=74 v=127
56064 On ch=4 n=79 v=127
56064 On ch=4 n=86 v=127
56816 Off ch=4 n=74 v=64
56816 Off ch=4 n=79 v=64
56816 Off ch=4 n=86 v=64
56832 On ch=4 n=72 v=127
56832 On ch=4 n=76 v=127
56832 On ch=4 n=81 v=127
57584 Off ch=4 n=72 v=64
57584 Off ch=4 n=76 v=64
57584 Off ch=4 n=81 v=64
57600 On ch=4 n=72 v=127
57600 On ch=4 n=77 v=127
57600 On ch=4 n=81 v=127
58352 Off ch=4 n=72 v=64
58352 Off ch=4 n=77 v=64
58352 Off ch=4 n=81 v=64
58368 On ch=4 n=76 v=127
58368 On ch=4 n=79 v=127
58368 On ch=4 n=84 v=127
59120 Off ch=4 n=76 v=64
59120 Off ch=4 n=79 v=64
59120 Off ch=4 n=84 v=64
59136 On ch=4 n=74 v=127
59136 On ch=4 n=79 v=127
59136 On ch=4 n=86 v=127
59888 Off ch=4 n=74 v=64
59888 Off ch=4 n=79 v=64
59888 Off ch=4 n=86 v=64
59904 On ch=4 n=72 v=127
59904 On ch=4 n=77 v=127
59904 On ch=4 n=81 v=127
60656 Off ch=4 n=72 v=64
60656 Off ch=4 n=77 v=64
60656 Off ch=4 n=81 v=64
60672 On ch=4 n=72 v=127
60672 On ch=4 n=76 v=127
60672 On ch=4 n=79 v=127
61424 Off ch=4 n=72 v=64
61424 Off ch=4 n=76 v=64
61424 Off ch=4 n=79 v=64
61440 On ch=4 n=76 v=127
61440 On ch=4 n=79 v=127
61440 On ch=4 n=84 v=127
62192 Off ch=4 n=76 v=64
62192 Off ch=4 n=79 v=64
62192 Off ch=4 n=84 v=64
62208 On ch=4 n=74 v=127
62208 On ch=4 n=79 v=127
62208 On ch=4 n=86 v=127
62960 Off ch=4 n=74 v=64
62960 Off ch=4 n=79 v=64
62960 Off ch=4 n=86 v=64
62976 On ch=4 n=72 v=127
62976 On ch=4 n=76 v=127
62976 On ch=4 n=81 v=127
63728 Off ch=4 n=72 v=64
63728 Off ch=4 n=76 v=64
63728 Off ch=4 n=81 v=64
63744 On ch=4 n=72 v=127
63744 On ch=4 n=77 v=127
63744 On ch=4 n=81 v=127
64496 Off ch=4 n=72 v=64
64496 Off ch=4 n=77 v=64
64496 Off ch=4 n=81 v=64
64512 On ch=4 n=76 v=127
64512 On ch=4 n=79 v=127
64512 On ch=4 n=84 v=127
65264 Off ch=4 n=76 v=64
65264 Off ch=4 n=79 v=64
65264 Off ch=4 n=84 v=64
65280 On ch=4 n=74 v=127
65280 On ch=4 n=79 v=127
65280 On ch=4 n=86 v=127
66032 Off ch=4 n=74 v=64
66032 Off ch=4 n=79 v=64
66032 Off ch=4 n=86 v=64
66048 On ch=4 n=72 v=127
66048 On ch=4 n=77 v=127
66048 On ch=4 n=81 v=127
66800 Off ch=4 n=72 v=64
66800 Off ch=4 n=77 v=64
66800 Off ch=4 n=81 v=64
66816 On ch=4 n=72 v=127
66816 On ch=4 n=76 v=127
66816 On ch=4 n=79 v=127
67568 Off ch=4 n=72 v=64
67568 Off ch=4 n=76 v=64
67568 Off ch=4 n=79 v=64
67584 PrCh ch=4 p=16
67584 Par ch=4 c=7 v=40
67584 Par ch=4 c=11 v=110
67584 On ch=4 n=64 v=127
67584 On ch=4 n=69 v=127
67584 On ch=4 n=72 v=127
67680 Par ch=4 c=7 v=45
67728 Par ch=4 c=7 v=50
67776 Par ch=4 c=7 v=55
67824 Par ch=4 c=7 v=60
67872 Par ch=4 c=7 v=65
67920 Par ch=4 c=7 v=70
67968 Par ch=4 c=7 v=75
68016 Par ch=4 c=7 v=80
68336 Off ch=4 n=64 v=64
68336 Off ch=4 n=69 v=64
68336 Off ch=4 n=72 v=64
68352 Par ch=4 c=7 v=60
68352 On ch=4 n=67 v=127
68352 On ch=4 n=72 v=127
68352 On ch=4 n=76 v=127
68448 Par ch=4 c=7 v=65
68544 Par ch=4 c=7 v=70
68640 Par ch=4 c=7 v=75
68736 Par ch=4 c=7 v=80
69104 Off ch=4 n=67 v=64
69104 Off ch=4 n=72 v=64
69104 Off ch=4 n=76 v=64
69120 Par ch=4 c=7 v=65
69120 On ch=4 n=65 v=127
69120 On ch=4 n=69 v=127
69120 On ch=4 n=72 v=127
69216 Par ch=4 c=7 v=70
69312 Par ch=4 c=7 v=75
69408 Par ch=4 c=7 v=80
69872 Off ch=4 n=65 v=64
69872 Off ch=4 n=69 v=64
69872 Off ch=4 n=72 v=64
69888 Par ch=4 c=7 v=65
69888 On ch=4 n=64 v=127
69888 On ch=4 n=67 v=127
69888 On ch=4 n=72 v=127
69984 Par ch=4 c=7 v=70
70080 Par ch=4 c=7 v=75
70176 Par ch=4 c=7 v=80
70640 Off ch=4 n=64 v=64
70640 Off ch=4 n=67 v=64
70640 Off ch=4 n=72 v=64
70656 Par ch=4 c=7 v=65
70656 On ch=4 n=64 v=127
70656 On ch=4 n=67 v=127
70656 On ch=4 n=72 v=127
70752 Par ch=4 c=7 v=70
70848 Par ch=4 c=7 v=75
70944 Par ch=4 c=7 v=80
71408 Off ch=4 n=64 v=64
71408 Off ch=4 n=67 v=64
71408 Off ch=4 n=72 v=64
71424 Par ch=4 c=7 v=65
71424 On ch=4 n=62 v=127
71424 On ch=4 n=67 v=127
71424 On ch=4 n=71 v=127
71520 Par ch=4 c=7 v=70
71616 Par ch=4 c=7 v=75
71712 Par ch=4 c=7 v=80
72176 Off ch=4 n=62 v=64
72176 Off ch=4 n=67 v=64
72176 Off ch=4 n=71 v=64
72192 On ch=4 n=60 v=127
72192 On ch=4 n=65 v=127
72192 On ch=4 n=69 v=127
72560 Off ch=4 n=60 v=64
72560 Off ch=4 n=65 v=64
72560 Off ch=4 n=69 v=64
72576 On ch=4 n=60 v=127
72576 On ch=4 n=64 v=127
72576 On ch=4 n=67 v=127
72752 Off ch=4 n=60 v=64
72752 Off ch=4 n=64 v=64
72752 Off ch=4 n=67 v=64
72768 On ch=4 n=60 v=127
72768 On ch=4 n=62 v=127
72768 On ch=4 n=65 v=127
72944 Off ch=4 n=60 v=64
72944 Off ch=4 n=62 v=64
72944 Off ch=4 n=65 v=64
72960 On ch=4 n=60 v=127
72960 On ch=4 n=64 v=127
72960 On ch=4 n=67 v=127
73328 Off ch=4 n=60 v=64
73328 Off ch=4 n=64 v=64
73328 Off ch=4 n=67 v=64
73344 On ch=4 n=60 v=127
73344 On ch=4 n=64 v=127
73344 On ch=4 n=67 v=127
73712 Off ch=4 n=60 v=64
73712 Off ch=4 n=64 v=64
73712 Off ch=4 n=67 v=64
73728 Par ch=4 c=11 v=95
73728 Par ch=4 c=7 v=65
73728 On ch=4 n=64 v=127
73728 On ch=4 n=67 v=127
73728 On ch=4 n=72 v=127
73824 Par ch=4 c=7 v=70
73920 Par ch=4 c=7 v=75
74016 Par ch=4 c=7 v=80
74480 Off ch=4 n=64 v=64
74480 Off ch=4 n=67 v=64
74480 Off ch=4 n=72 v=64
74496 Par ch=4 c=7 v=65
74496 On ch=4 n=62 v=127
74496 On ch=4 n=67 v=127
74496 On ch=4 n=71 v=127
74592 Par ch=4 c=7 v=70
74688 Par ch=4 c=7 v=75
74784 Par ch=4 c=7 v=80
75248 Off ch=4 n=62 v=64
75248 Off ch=4 n=67 v=64
75248 Off ch=4 n=71 v=64
75264 Par ch=4 c=7 v=65
75264 On ch=4 n=64 v=127
75264 On ch=4 n=69 v=127
75264 On ch=4 n=72 v=127
75360 Par ch=4 c=7 v=70
75456 Par ch=4 c=7 v=75
75552 Par ch=4 c=7 v=80
76016 Off ch=4 n=64 v=64
76016 Off ch=4 n=69 v=64
76016 Off ch=4 n=72 v=64
76032 Par ch=4 c=7 v=65
76032 On ch=4 n=69 v=127
76032 On ch=4 n=72 v=127
76032 On ch=4 n=77 v=127
76128 Par ch=4 c=7 v=70
76224 Par ch=4 c=7 v=75
76320 Par ch=4 c=7 v=80
76784 Off ch=4 n=69 v=64
76784 Off ch=4 n=72 v=64
76784 Off ch=4 n=77 v=64
76800 Par ch=4 c=7 v=65
76800 On ch=4 n=67 v=127
76800 On ch=4 n=72 v=127
76800 On ch=4 n=76 v=127
76896 Par ch=4 c=7 v=70
76992 Par ch=4 c=7 v=75
77088 Par ch=4 c=7 v=80
77552 Off ch=4 n=67 v=64
77552 Off ch=4 n=72 v=64
77552 Off ch=4 n=76 v=64
77568 Par ch=4 c=7 v=65
77568 On ch=4 n=67 v=127
77568 On ch=4 n=71 v=127
77568 On ch=4 n=74 v=127
77664 Par ch=4 c=7 v=70
77760 Par ch=4 c=7 v=75
77856 Par ch=4 c=7 v=80
78320 Off ch=4 n=67 v=64
78320 Off ch=4 n=71 v=64
78320 Off ch=4 n=74 v=64
78336 Par ch=4 c=7 v=65
78336 On ch=4 n=69 v=127
78336 On ch=4 n=72 v=127
78336 On ch=4 n=77 v=127
78432 Par ch=4 c=7 v=70
78528 Par ch=4 c=7 v=75
78624 Par ch=4 c=7 v=80
78704 Off ch=4 n=77 v=64
78720 On ch=4 n=76 v=127
78896 Off ch=4 n=76 v=64
78912 On ch=4 n=74 v=127
79088 Off ch=4 n=69 v=64
79088 Off ch=4 n=72 v=64
79088 Off ch=4 n=74 v=64
79104 Par ch=4 c=7 v=65
79104 On ch=4 n=67 v=127
79104 On ch=4 n=72 v=127
79104 On ch=4 n=76 v=127
79200 Par ch=4 c=7 v=70
79296 Par ch=4 c=7 v=75
79392 Par ch=4 c=7 v=80
79856 Off ch=4 n=67 v=64
79856 Off ch=4 n=72 v=64
79856 Off ch=4 n=76 v=64
79872 Par ch=4 c=7 v=65
79872 On ch=4 n=67 v=127
79872 On ch=4 n=72 v=127
79872 On ch=4 n=76 v=127
79968 Par ch=4 c=7 v=70
80064 Par ch=4 c=7 v=75
80160 Par ch=4 c=7 v=80
80624 Off ch=4 n=67 v=64
80624 Off ch=4 n=72 v=64
80624 Off ch=4 n=76 v=64
80640 Par ch=4 c=7 v=65
80640 On ch=4 n=67 v=127
80640 On ch=4 n=71 v=127
80640 On ch=4 n=74 v=127
80736 Par ch=4 c=7 v=70
80832 Par ch=4 c=7 v=75
80928 Par ch=4 c=7 v=80
81392 Off ch=4 n=67 v=64
81392 Off ch=4 n=71 v=64
81392 Off ch=4 n=74 v=64
81408 Par ch=4 c=7 v=65
81408 On ch=4 n=69 v=127
81408 On ch=4 n=72 v=127
81408 On ch=4 n=76 v=127
81504 Par ch=4 c=7 v=70
81600 Par ch=4 c=7 v=75
81696 Par ch=4 c=7 v=80
82160 Off ch=4 n=69 v=64
82160 Off ch=4 n=72 v=64
82160 Off ch=4 n=76 v=64
82176 Par ch=4 c=7 v=65
82176 On ch=4 n=69 v=127
82176 On ch=4 n=72 v=127
82176 On ch=4 n=77 v=127
82272 Par ch=4 c=7 v=70
82368 Par ch=4 c=7 v=75
82464 Par ch=4 c=7 v=80
82928 Off ch=4 n=69 v=64
82928 Off ch=4 n=72 v=64
82928 Off ch=4 n=77 v=64
82944 Par ch=4 c=7 v=65
82944 On ch=4 n=69 v=127
82944 On ch=4 n=72 v=127
82944 On ch=4 n=76 v=127
83040 Par ch=4 c=7 v=70
83136 Par ch=4 c=7 v=75
83232 Par ch=4 c=7 v=80
83696 Off ch=4 n=69 v=64
83696 Off ch=4 n=72 v=64
83696 Off ch=4 n=76 v=64
83712 Par ch=4 c=7 v=65
83712 On ch=4 n=67 v=127
83712 On ch=4 n=71 v=127
83712 On ch=4 n=74 v=127
83808 Par ch=4 c=7 v=70
83904 Par ch=4 c=7 v=75
84000 Par ch=4 c=7 v=80
84464 Off ch=4 n=67 v=64
84464 Off ch=4 n=71 v=64
84464 Off ch=4 n=74 v=64
84480 Par ch=4 c=7 v=65
84480 On ch=4 n=65 v=127
84480 On ch=4 n=69 v=127
84480 On ch=4 n=72 v=127
84576 Par ch=4 c=7 v=70
84672 Par ch=4 c=7 v=75
84768 Par ch=4 c=7 v=80
85232 Off ch=4 n=65 v=64
85232 Off ch=4 n=69 v=64
85232 Off ch=4 n=72 v=64
85248 Par ch=4 c=7 v=65
85248 On ch=4 n=64 v=127
85248 On ch=4 n=67 v=127
85248 On ch=4 n=72 v=127
85344 Par ch=4 c=7 v=70
85440 Par ch=4 c=7 v=75
85536 Par ch=4 c=7 v=80
86000 Off ch=4 n=64 v=64
86000 Off ch=4 n=67 v=64
86000 Off ch=4 n=72 v=64
86016 Par ch=4 c=11 v=100
86016 PrCh ch=4 p=16
86016 Par ch=4 c=7 v=40
86016 On ch=4 n=76 v=127
86016 On ch=4 n=81 v=127
86016 On ch=4 n=84 v=127
86112 Par ch=4 c=7 v=45
86160 Par ch=4 c=7 v=50
86208 Par ch=4 c=7 v=55
86256 Par ch=4 c=7 v=60
86304 Par ch=4 c=7 v=65
86352 Par ch=4 c=7 v=70
86400 Par ch=4 c=7 v=75
86448 Par ch=4 c=7 v=80
86768 Off ch=4 n=76 v=64
86768 Off ch=4 n=81 v=64
86768 Off ch=4 n=84 v=64
86784 Par ch=4 c=7 v=60
86784 On ch=4 n=76 v=127
86784 On ch=4 n=79 v=127
86784 On ch=4 n=84 v=127
86880 Par ch=4 c=7 v=65
86976 Par ch=4 c=7 v=70
87072 Par ch=4 c=7 v=75
87168 Par ch=4 c=7 v=80
87536 Off ch=4 n=76 v=64
87536 Off ch=4 n=79 v=64
87536 Off ch=4 n=84 v=64
87552 Par ch=4 c=7 v=65
87552 On ch=4 n=77 v=127
87552 On ch=4 n=81 v=127
87552 On ch=4 n=84 v=127
87648 Par ch=4 c=7 v=70
87744 Par ch=4 c=7 v=75
87840 Par ch=4 c=7 v=80
88304 Off ch=4 n=77 v=64
88304 Off ch=4 n=81 v=64
88304 Off ch=4 n=84 v=64
88320 Par ch=4 c=7 v=65
88320 On ch=4 n=76 v=127
88320 On ch=4 n=79 v=127
88320 On ch=4 n=84 v=127
88416 Par ch=4 c=7 v=70
88512 Par ch=4 c=7 v=75
88608 Par ch=4 c=7 v=80
89072 Off ch=4 n=76 v=64
89072 Off ch=4 n=79 v=64
89072 Off ch=4 n=84 v=64
89088 Par ch=4 c=7 v=65
89088 On ch=4 n=76 v=127
89088 On ch=4 n=79 v=127
89088 On ch=4 n=84 v=127
89184 Par ch=4 c=7 v=70
89280 Par ch=4 c=7 v=75
89376 Par ch=4 c=7 v=80
89840 Off ch=4 n=76 v=64
89840 Off ch=4 n=79 v=64
89840 Off ch=4 n=84 v=64
89856 Par ch=4 c=7 v=65
89856 On ch=4 n=74 v=127
89856 On ch=4 n=79 v=127
89856 On ch=4 n=83 v=127
89952 Par ch=4 c=7 v=70
90048 Par ch=4 c=7 v=75
90144 Par ch=4 c=7 v=80
90608 Off ch=4 n=74 v=64
90608 Off ch=4 n=79 v=64
90608 Off ch=4 n=83 v=64
90624 On ch=4 n=72 v=127
90624 On ch=4 n=77 v=127
90624 On ch=4 n=81 v=127
90992 Off ch=4 n=72 v=64
90992 Off ch=4 n=77 v=64
90992 Off ch=4 n=81 v=64
91008 On ch=4 n=72 v=127
91008 On ch=4 n=76 v=127
91008 On ch=4 n=79 v=127
91184 Off ch=4 n=72 v=64
91184 Off ch=4 n=76 v=64
91184 Off ch=4 n=79 v=64
91200 On ch=4 n=72 v=127
91200 On ch=4 n=74 v=127
91200 On ch=4 n=77 v=127
91376 Off ch=4 n=72 v=64
91376 Off ch=4 n=74 v=64
91376 Off ch=4 n=77 v=64
91392 On ch=4 n=72 v=127
91392 On ch=4 n=76 v=127
91392 On ch=4 n=79 v=127
92112 Off ch=4 n=72 v=64
92112 Off ch=4 n=76 v=64
92112 Off ch=4 n=79 v=64
92144 PrCh ch=4 p=24
92144 Par ch=4 c=7 v=100
92144 On ch=4 n=64 v=127
92144 On ch=4 n=69 v=127
92144 On ch=4 n=72 v=127
92896 Off ch=4 n=64 v=64
92896 Off ch=4 n=69 v=64
92896 Off ch=4 n=72 v=64
92912 On ch=4 n=67 v=127
92912 On ch=4 n=72 v=127
92912 On ch=4 n=76 v=127
93664 Off ch=4 n=67 v=64
93664 Off ch=4 n=72 v=64
93664 Off ch=4 n=76 v=64
93680 On ch=4 n=65 v=127
93680 On ch=4 n=69 v=127
93680 On ch=4 n=76 v=127
94432 Off ch=4 n=65 v=64
94432 Off ch=4 n=69 v=64
94432 Off ch=4 n=76 v=64
94448 On ch=4 n=64 v=127
94448 On ch=4 n=67 v=127
94448 On ch=4 n=72 v=127
95200 Off ch=4 n=64 v=64
95200 Off ch=4 n=67 v=64
95200 Off ch=4 n=72 v=64
95216 On ch=4 n=64 v=127
95216 On ch=4 n=67 v=127
95216 On ch=4 n=72 v=127
95968 Off ch=4 n=64 v=64
95968 Off ch=4 n=67 v=64
95968 Off ch=4 n=72 v=64
95984 On ch=4 n=62 v=127
95984 On ch=4 n=67 v=127
95984 On ch=4 n=71 v=127
96736 Off ch=4 n=62 v=64
96736 Off ch=4 n=67 v=64
96736 Off ch=4 n=71 v=64
96768 PrCh ch=4 p=16
96768 Par ch=4 c=7 v=100
96768 On ch=4 n=64 v=127
96768 On ch=4 n=69 v=127
96768 On ch=4 n=72 v=127
97520 Off ch=4 n=64 v=64
97520 Off ch=4 n=69 v=64
97520 Off ch=4 n=72 v=64
97536 On ch=4 n=64 v=127
97536 On ch=4 n=67 v=127
97536 On ch=4 n=72 v=127
98288 Off ch=4 n=64 v=64
98288 Off ch=4 n=67 v=64
98288 Off ch=4 n=72 v=64
98304 On ch=4 n=64 v=127
98304 On ch=4 n=69 v=127
98304 On ch=4 n=72 v=127
99056 Off ch=4 n=64 v=64
99056 Off ch=4 n=69 v=64
99056 Off ch=4 n=72 v=64
99072 On ch=4 n=67 v=127
99072 On ch=4 n=72 v=127
99072 On ch=4 n=76 v=127
99824 Off ch=4 n=67 v=64
99824 Off ch=4 n=72 v=64
99824 Off ch=4 n=76 v=64
99840 On ch=4 n=65 v=127
99840 On ch=4 n=69 v=127
99840 On ch=4 n=76 v=127
100592 Off ch=4 n=65 v=64
100592 Off ch=4 n=69 v=64
100592 Off ch=4 n=76 v=64
100608 On ch=4 n=64 v=127
100608 On ch=4 n=67 v=127
100608 On ch=4 n=72 v=127
101360 Off ch=4 n=64 v=64
101360 Off ch=4 n=67 v=64
101360 Off ch=4 n=72 v=64
101376 On ch=4 n=64 v=127
101376 On ch=4 n=67 v=127
101376 On ch=4 n=72 v=127
102128 Off ch=4 n=64 v=64
102128 Off ch=4 n=67 v=64
102128 Off ch=4 n=72 v=64
102144 On ch=4 n=62 v=127
102144 On ch=4 n=67 v=127
102144 On ch=4 n=71 v=127
102896 Off ch=4 n=62 v=64
102896 Off ch=4 n=67 v=64
102896 Off ch=4 n=71 v=64
102912 On ch=4 n=65 v=127
102912 On ch=4 n=69 v=127
102912 On ch=4 n=72 v=127
103664 Off ch=4 n=65 v=64
103664 Off ch=4 n=69 v=64
103664 Off ch=4 n=72 v=64
103680 On ch=4 n=64 v=127
103680 On ch=4 n=67 v=127
103680 On ch=4 n=72 v=127
104432 Off ch=4 n=64 v=64
104432 Off ch=4 n=67 v=64
104432 Off ch=4 n=72 v=64
104464 Par ch=4 c=11 v=80
104464 Par ch=4 c=7 v=100
104464 PrCh ch=4 p=16
104464 On ch=4 n=65 v=127
104464 On ch=4 n=69 v=127
104832 Off ch=4 n=65 v=64
104832 Off ch=4 n=69 v=64
104848 On ch=4 n=64 v=127
104848 On ch=4 n=67 v=127
105024 Off ch=4 n=64 v=64
105024 Off ch=4 n=67 v=64
105040 On ch=4 n=62 v=127
105040 On ch=4 n=65 v=127
105216 Off ch=4 n=62 v=64
105216 Off ch=4 n=65 v=64
105232 On ch=4 n=60 v=127
105232 On ch=4 n=64 v=127
105600 Off ch=4 n=60 v=64
105600 Off ch=4 n=64 v=64
105616 On ch=4 n=58 v=127
105616 On ch=4 n=62 v=127
105792 Off ch=4 n=58 v=64
105792 Off ch=4 n=62 v=64
105808 On ch=4 n=57 v=127
105808 On ch=4 n=60 v=127
105984 Off ch=4 n=57 v=64
105984 Off ch=4 n=60 v=64
106000 On ch=4 n=55 v=127
106000 On ch=4 n=59 v=127
106368 Off ch=4 n=55 v=64
106368 Off ch=4 n=59 v=64
106384 On ch=4 n=53 v=127
106384 On ch=4 n=57 v=127
106752 Off ch=4 n=53 v=64
106752 Off ch=4 n=57 v=64
106768 On ch=4 n=52 v=127
106768 On ch=4 n=55 v=127
107520 Off ch=4 n=52 v=64
107520 Off ch=4 n=55 v=64
107520 Par ch=4 c=7 v=96
107904 Par ch=4 c=7 v=96
107904 Meta TrkEnd
TrkEnd
MTrk
0 Meta TrkName "Syn Brass 1         "
0 Par ch=5 c=0 v=0
0 PrCh ch=5 p=64
0 Par ch=5 c=7 v=100
0 KeySig 0 major
0 Pb ch=5 v=8192
0 Par ch=5 c=64 v=0
0 Par ch=5 c=1 v=0
0 Par ch=5 c=11 v=108
1544 Par ch=5 c=7 v=0
1592 Par ch=5 c=7 v=2
1640 Par ch=5 c=7 v=4
1688 Par ch=5 c=7 v=6
1736 Par ch=5 c=7 v=8
1784 Par ch=5 c=7 v=10
1832 Par ch=5 c=7 v=12
1880 Par ch=5 c=7 v=14
1928 Par ch=5 c=7 v=16
1976 Par ch=5 c=7 v=18
2024 Par ch=5 c=7 v=20
2072 Par ch=5 c=7 v=22
2120 Par ch=5 c=7 v=24
2168 Par ch=5 c=7 v=26
2216 Par ch=5 c=7 v=28
2264 Par ch=5 c=7 v=30
2312 Par ch=5 c=7 v=32
2360 Par ch=5 c=7 v=34
2408 Par ch=5 c=7 v=36
2456 Par ch=5 c=7 v=38
2504 Par ch=5 c=7 v=40
2552 Par ch=5 c=7 v=42
2600 Par ch=5 c=7 v=44
2648 Par ch=5 c=7 v=46
2696 Par ch=5 c=7 v=48
2744 Par ch=5 c=7 v=50
2792 Par ch=5 c=7 v=52
2840 Par ch=5 c=7 v=54
2888 Par ch=5 c=7 v=56
2936 Par ch=5 c=7 v=58
2984 Par ch=5 c=7 v=60
3032 Par ch=5 c=7 v=62
3080 Par ch=5 c=7 v=64
3128 Par ch=5 c=7 v=66
3176 Par ch=5 c=7 v=68
3224 Par ch=5 c=7 v=70
3272 Par ch=5 c=7 v=72
3320 Par ch=5 c=7 v=74
3368 Par ch=5 c=7 v=76
3416 Par ch=5 c=7 v=78
3464 Par ch=5 c=7 v=80
3512 Par ch=5 c=7 v=82
3560 Par ch=5 c=7 v=84
3608 Par ch=5 c=7 v=86
3656 Par ch=5 c=7 v=88
3704 Par ch=5 c=7 v=90
3752 Par ch=5 c=7 v=92
3800 Par ch=5 c=7 v=94
3848 Par ch=5 c=7 v=96
3896 Par ch=5 c=7 v=98
3944 Par ch=5 c=7 v=100
3992 Par ch=5 c=7 v=102
4040 Par ch=5 c=7 v=104
4088 Par ch=5 c=7 v=106
4136 Par ch=5 c=7 v=108
4184 Par ch=5 c=7 v=110
4232 Par ch=5 c=7 v=112
4280 Par ch=5 c=7 v=114
4328 Par ch=5 c=7 v=116
4376 Par ch=5 c=7 v=118
4424 Par ch=5 c=7 v=120
5952 On ch=5 n=67 v=90
6032 Off ch=5 n=67 v=64
6048 On ch=5 n=67 v=100
6128 Off ch=5 n=67 v=64
6144 On ch=5 n=67 v=90
6320 Off ch=5 n=67 v=64
6336 On ch=5 n=67 v=95
6416 Off ch=5 n=67 v=64
6432 On ch=5 n=69 v=100
6624 Off ch=5 n=69 v=64
6624 On ch=5 n=64 v=95
6800 Off ch=5 n=64 v=64
6816 On ch=5 n=67 v=90
7088 Off ch=5 n=67 v=64
7104 On ch=5 n=67 v=100
7280 Off ch=5 n=67 v=64
7296 On ch=5 n=72 v=95
7376 Off ch=5 n=72 v=64
7392 On ch=5 n=74 v=95
7664 Off ch=5 n=74 v=64
7680 On ch=5 n=74 v=80
7696 Off ch=5 n=74 v=64
7696 On ch=5 n=76 v=90
7760 Off ch=5 n=76 v=64
7792 On ch=5 n=76 v=90
7856 Off ch=5 n=76 v=64
7872 On ch=5 n=76 v=100
8272 Off ch=5 n=76 v=64
8272 On ch=5 n=74 v=95
8336 Off ch=5 n=74 v=64
8352 On ch=5 n=74 v=90
8544 Off ch=5 n=74 v=64
8544 On ch=5 n=72 v=95
8624 Off ch=5 n=72 v=64
8640 On ch=5 n=72 v=90
8880 Off ch=5 n=72 v=64
9120 On ch=5 n=67 v=85
9184 Off ch=5 n=67 v=64
9216 On ch=5 n=76 v=100
9296 Off ch=5 n=76 v=64
9312 On ch=5 n=76 v=90
9584 Off ch=5 n=76 v=64
9600 On ch=5 n=77 v=95
9776 Off ch=5 n=77 v=64
9792 On ch=5 n=76 v=95
9872 Off ch=5 n=76 v=64
9888 On ch=5 n=76 v=90
10064 Off ch=5 n=76 v=64
10080 On ch=5 n=74 v=90
10352 Off ch=5 n=74 v=64
10464 On ch=5 n=76 v=90
10544 Off ch=5 n=76 v=64
10560 On ch=5 n=74 v=90
10640 Off ch=5 n=74 v=64
10656 On ch=5 n=74 v=90
10832 Off ch=5 n=74 v=64
10848 On ch=5 n=72 v=80
11120 Off ch=5 n=72 v=64
12192 On ch=5 n=67 v=80
12256 Off ch=5 n=67 v=64
12288 On ch=5 n=67 v=90
12464 Off ch=5 n=67 v=64
12480 On ch=5 n=67 v=95
12560 Off ch=5 n=67 v=64
12576 On ch=5 n=69 v=100
12768 Off ch=5 n=69 v=64
12768 On ch=5 n=64 v=95
12944 Off ch=5 n=64 v=64
12960 On ch=5 n=67 v=90
13232 Off ch=5 n=67 v=64
13248 On ch=5 n=67 v=100
13424 Off ch=5 n=67 v=64
13440 On ch=5 n=72 v=95
13520 Off ch=5 n=72 v=64
13536 On ch=5 n=74 v=95
13808 Off ch=5 n=74 v=64
13824 On ch=5 n=74 v=70
13840 Off ch=5 n=74 v=64
13840 On ch=5 n=76 v=80
13904 Off ch=5 n=76 v=64
13936 On ch=5 n=76 v=90
14000 Off ch=5 n=76 v=64
14032 On ch=5 n=76 v=100
14416 Off ch=5 n=76 v=64
14416 On ch=5 n=74 v=95
14480 Off ch=5 n=74 v=64
14496 On ch=5 n=74 v=90
14576 Off ch=5 n=74 v=64
14592 On ch=5 n=72 v=85
14768 Off ch=5 n=72 v=64
14784 On ch=5 n=72 v=80
14864 Off ch=5 n=72 v=64
14880 On ch=5 n=72 v=75
15040 Off ch=5 n=72 v=64
15264 On ch=5 n=67 v=85
15328 Off ch=5 n=67 v=64
15360 On ch=5 n=76 v=100
15440 Off ch=5 n=76 v=64
15456 On ch=5 n=76 v=90
15728 Off ch=5 n=76 v=64
15744 On ch=5 n=77 v=95
15920 Off ch=5 n=77 v=64
15936 On ch=5 n=76 v=95
16016 Off ch=5 n=76 v=64
16032 On ch=5 n=76 v=90
16208 Off ch=5 n=76 v=64
16224 On ch=5 n=74 v=90
16496 Off ch=5 n=74 v=64
16608 On ch=5 n=76 v=90
16688 Off ch=5 n=76 v=64
16704 On ch=5 n=74 v=80
16784 Off ch=5 n=74 v=64
16800 On ch=5 n=74 v=75
16976 Off ch=5 n=74 v=64
16992 On ch=5 n=72 v=60
17264 Off ch=5 n=72 v=64
18048 On ch=5 n=76 v=90
18112 Off ch=5 n=76 v=64
18144 On ch=5 n=74 v=90
18320 Off ch=5 n=74 v=64
18336 On ch=5 n=72 v=90
18800 Off ch=5 n=72 v=64
18816 On ch=5 n=76 v=90
18896 Off ch=5 n=76 v=64
18912 On ch=5 n=79 v=100
19072 Off ch=5 n=79 v=64
19104 On ch=5 n=81 v=105
19392 Off ch=5 n=81 v=64
19392 On ch=5 n=79 v=105
19552 Off ch=5 n=79 v=64
19584 On ch=5 n=79 v=90
19624 Off ch=5 n=79 v=64
19680 On ch=5 n=79 v=90
19744 Off ch=5 n=79 v=64
19872 On ch=5 n=76 v=95
19968 Off ch=5 n=76 v=64
19968 On ch=5 n=72 v=95
20336 Off ch=5 n=72 v=64
20352 On ch=5 n=69 v=95
20432 Off ch=5 n=69 v=64
20448 On ch=5 n=67 v=90
20568 Off ch=5 n=67 v=64
20640 On ch=5 n=76 v=95
20928 Off ch=5 n=76 v=64
20928 On ch=5 n=72 v=85
21088 Off ch=5 n=72 v=64
21496 On ch=5 n=76 v=60
21576 Off ch=5 n=76 v=64
21600 On ch=5 n=76 v=60
21680 Off ch=5 n=76 v=64
21696 On ch=5 n=76 v=65
21776 Off ch=5 n=76 v=64
21784 On ch=5 n=77 v=80
22128 Off ch=5 n=77 v=64
22176 On ch=5 n=76 v=90
22256 Off ch=5 n=76 v=64
22272 On ch=5 n=76 v=90
22328 Off ch=5 n=76 v=64
22368 On ch=5 n=74 v=90
22568 Off ch=5 n=74 v=64
22752 On ch=5 n=76 v=90
22832 Off ch=5 n=76 v=64
22848 On ch=5 n=74 v=90
22888 Off ch=5 n=74 v=64
22944 On ch=5 n=74 v=90
23136 Off ch=5 n=74 v=64
23136 On ch=5 n=72 v=90
23408 Off ch=5 n=72 v=64
24480 On ch=5 n=67 v=80
24536 Off ch=5 n=67 v=64
24576 On ch=5 n=67 v=95
24752 Off ch=5 n=67 v=64
24768 On ch=5 n=67 v=95
24848 Off ch=5 n=67 v=64
24864 On ch=5 n=69 v=95
25040 Off ch=5 n=69 v=64
25056 On ch=5 n=72 v=100
25232 Off ch=5 n=72 v=64
25248 On ch=5 n=69 v=95
25344 Off ch=5 n=69 v=64
25344 On ch=5 n=67 v=90
25424 Off ch=5 n=67 v=64
25440 On ch=5 n=67 v=90
25680 Off ch=5 n=67 v=64
25728 On ch=5 n=72 v=95
25824 Off ch=5 n=72 v=64
25824 On ch=5 n=74 v=80
25984 Off ch=5 n=74 v=64
26112 On ch=5 n=76 v=70
26152 Off ch=5 n=76 v=64
26208 On ch=5 n=76 v=90
26288 Off ch=5 n=76 v=64
26304 On ch=5 n=76 v=100
26576 Off ch=5 n=76 v=64
26688 On ch=5 n=74 v=90
26768 Off ch=5 n=74 v=64
26784 On ch=5 n=74 v=90
27056 Off ch=5 n=74 v=64
27072 On ch=5 n=72 v=90
27152 Off ch=5 n=72 v=64
27168 On ch=5 n=72 v=90
27344 Off ch=5 n=72 v=64
27648 On ch=5 n=76 v=70
27808 Off ch=5 n=76 v=64
27840 On ch=5 n=76 v=90
28000 Off ch=5 n=76 v=64
28032 On ch=5 n=77 v=90
28192 Off ch=5 n=77 v=64
28224 On ch=5 n=76 v=90
28304 Off ch=5 n=76 v=64
28320 On ch=5 n=76 v=90
28512 Off ch=5 n=76 v=64
28512 On ch=5 n=74 v=90
28784 Off ch=5 n=74 v=64
28896 On ch=5 n=76 v=80
28944 Off ch=5 n=76 v=64
28992 On ch=5 n=74 v=80
29056 Off ch=5 n=74 v=64
29088 On ch=5 n=74 v=80
29264 Off ch=5 n=74 v=64
29280 On ch=5 n=72 v=80
29808 Off ch=5 n=72 v=64
30624 On ch=5 n=64 v=70
30688 Off ch=5 n=64 v=64
30720 On ch=5 n=67 v=70
30896 Off ch=5 n=67 v=64
30912 On ch=5 n=67 v=90
30992 Off ch=5 n=67 v=64
31008 On ch=5 n=69 v=90
31184 Off ch=5 n=69 v=64
31200 On ch=5 n=72 v=90
31280 Off ch=5 n=72 v=64
31296 On ch=5 n=69 v=90
31392 Off ch=5 n=69 v=64
31392 On ch=5 n=67 v=50
31472 Off ch=5 n=67 v=64
31488 On ch=5 n=67 v=90
31648 Off ch=5 n=67 v=64
31968 On ch=5 n=72 v=70
32048 Off ch=5 n=72 v=64
32064 On ch=5 n=74 v=70
32144 Off ch=5 n=74 v=64
32256 On ch=5 n=76 v=70
32336 Off ch=5 n=76 v=64
32352 On ch=5 n=76 v=70
32432 Off ch=5 n=76 v=64
32448 On ch=5 n=76 v=80
32816 Off ch=5 n=76 v=64
32832 On ch=5 n=74 v=90
32928 Off ch=5 n=74 v=64
32928 On ch=5 n=81 v=50
33024 Off ch=5 n=81 v=64
33120 On ch=5 n=76 v=90
33296 Off ch=5 n=76 v=64
33312 On ch=5 n=74 v=80
33408 Off ch=5 n=74 v=64
33408 On ch=5 n=72 v=75
33696 Off ch=5 n=72 v=64
33792 On ch=5 n=76 v=70
33952 Off ch=5 n=76 v=64
33984 On ch=5 n=76 v=80
34144 Off ch=5 n=76 v=64
34176 On ch=5 n=77 v=70
34296 Off ch=5 n=77 v=64
34368 On ch=5 n=76 v=70
34448 Off ch=5 n=76 v=64
34464 On ch=5 n=76 v=70
34656 Off ch=5 n=76 v=64
34656 On ch=5 n=74 v=80
34896 Off ch=5 n=74 v=64
35040 On ch=5 n=76 v=80
35120 Off ch=5 n=76 v=64
35136 On ch=5 n=74 v=75
35216 Off ch=5 n=74 v=64
35232 On ch=5 n=74 v=75
35408 Off ch=5 n=74 v=64
35424 On ch=5 n=72 v=75
35696 Off ch=5 n=72 v=64
36480 On ch=5 n=76 v=105
36544 Off ch=5 n=76 v=64
36576 On ch=5 n=74 v=105
36752 Off ch=5 n=74 v=64
36768 On ch=5 n=72 v=105
37232 Off ch=5 n=72 v=64
37248 On ch=5 n=76 v=100
37328 Off ch=5 n=76 v=64
37344 On ch=5 n=79 v=110
37504 Off ch=5 n=79 v=64
37536 On ch=5 n=81 v=115
37824 Off ch=5 n=81 v=64
37824 On ch=5 n=79 v=115
37984 Off ch=5 n=79 v=64
38016 On ch=5 n=79 v=100
38056 Off ch=5 n=79 v=64
38112 On ch=5 n=79 v=100
38176 Off ch=5 n=79 v=64
38304 On ch=5 n=76 v=105
38640 Off ch=5 n=76 v=64
38784 On ch=5 n=69 v=105
38864 Off ch=5 n=69 v=64
38880 On ch=5 n=67 v=100
39000 Off ch=5 n=67 v=64
39072 On ch=5 n=76 v=105
39360 Off ch=5 n=76 v=64
39360 On ch=5 n=72 v=95
39520 Off ch=5 n=72 v=64
39744 On ch=5 n=67 v=90
39864 Off ch=5 n=67 v=64
39936 On ch=5 n=76 v=85
40096 Off ch=5 n=76 v=64
40128 On ch=5 n=76 v=85
40288 Off ch=5 n=76 v=64
40320 On ch=5 n=79 v=85
40480 Off ch=5 n=79 v=64
40512 On ch=5 n=76 v=85
40672 Off ch=5 n=76 v=64
40704 On ch=5 n=76 v=85
40784 Off ch=5 n=76 v=64
40800 On ch=5 n=74 v=85
40960 Off ch=5 n=74 v=64
41184 On ch=5 n=76 v=85
41264 Off ch=5 n=76 v=64
41280 On ch=5 n=74 v=80
41360 Off ch=5 n=74 v=64
41376 On ch=5 n=74 v=80
41552 Off ch=5 n=74 v=64
41568 On ch=5 n=72 v=75
41840 Off ch=5 n=72 v=64
42624 On ch=5 n=76 v=100
42688 Off ch=5 n=76 v=64
42720 On ch=5 n=74 v=100
42896 Off ch=5 n=74 v=64
42912 On ch=5 n=72 v=100
43376 Off ch=5 n=72 v=64
43392 On ch=5 n=76 v=90
43472 Off ch=5 n=76 v=64
43488 On ch=5 n=79 v=100
43568 Off ch=5 n=79 v=64
43680 On ch=5 n=81 v=105
44000 Off ch=5 n=81 v=64
44160 On ch=5 n=79 v=100
44200 Off ch=5 n=79 v=64
44256 On ch=5 n=79 v=100
44320 Off ch=5 n=79 v=64
44448 On ch=5 n=76 v=105
44784 Off ch=5 n=76 v=64
44928 On ch=5 n=69 v=105
45008 Off ch=5 n=69 v=64
45024 On ch=5 n=67 v=100
45144 Off ch=5 n=67 v=64
45216 On ch=5 n=76 v=105
45504 Off ch=5 n=76 v=64
45504 On ch=5 n=72 v=95
45664 Off ch=5 n=72 v=64
46080 On ch=5 n=76 v=80
46240 Off ch=5 n=76 v=64
46272 On ch=5 n=76 v=85
46352 Off ch=5 n=76 v=64
46368 On ch=5 n=76 v=90
46464 Off ch=5 n=76 v=64
46464 On ch=5 n=77 v=100
46704 Off ch=5 n=77 v=64
46752 On ch=5 n=76 v=110
46832 Off ch=5 n=76 v=64
46848 On ch=5 n=76 v=110
46904 Off ch=5 n=76 v=64
46944 On ch=5 n=74 v=110
47144 Off ch=5 n=74 v=64
47328 On ch=5 n=76 v=110
47408 Off ch=5 n=76 v=64
47424 On ch=5 n=74 v=110
47464 Off ch=5 n=74 v=64
47520 On ch=5 n=74 v=110
47696 Off ch=5 n=74 v=64
47712 On ch=5 n=72 v=100
48368 Off ch=5 n=72 v=64
67200 On ch=5 n=76 v=100
67280 Off ch=5 n=76 v=64
67296 On ch=5 n=74 v=105
67472 Off ch=5 n=74 v=64
67488 On ch=5 n=72 v=110
67952 Off ch=5 n=72 v=64
67968 On ch=5 n=76 v=100
68048 Off ch=5 n=76 v=64
68064 On ch=5 n=79 v=110
68224 Off ch=5 n=79 v=64
68256 On ch=5 n=81 v=115
68544 Off ch=5 n=81 v=64
68544 On ch=5 n=79 v=115
68704 Off ch=5 n=79 v=64
68736 On ch=5 n=79 v=100
68776 Off ch=5 n=79 v=64
68832 On ch=5 n=79 v=100
68896 Off ch=5 n=79 v=64
69024 On ch=5 n=76 v=105
69360 Off ch=5 n=76 v=64
69504 On ch=5 n=69 v=105
69584 Off ch=5 n=69 v=64
69600 On ch=5 n=67 v=100
69720 Off ch=5 n=67 v=64
69792 On ch=5 n=76 v=105
70080 Off ch=5 n=76 v=64
70080 On ch=5 n=72 v=105
70240 Off ch=5 n=72 v=64
70464 On ch=5 n=67 v=100
70584 Off ch=5 n=67 v=64
70656 On ch=5 n=76 v=95
70816 Off ch=5 n=76 v=64
70848 On ch=5 n=76 v=95
71008 Off ch=5 n=76 v=64
71040 On ch=5 n=79 v=95
71200 Off ch=5 n=79 v=64
71232 On ch=5 n=76 v=95
71392 Off ch=5 n=76 v=64
71424 On ch=5 n=76 v=95
71504 Off ch=5 n=76 v=64
71520 On ch=5 n=74 v=95
71680 Off ch=5 n=74 v=64
71904 On ch=5 n=76 v=95
71984 Off ch=5 n=76 v=64
72000 On ch=5 n=74 v=90
72080 Off ch=5 n=74 v=64
72096 On ch=5 n=74 v=90
72272 Off ch=5 n=74 v=64
72288 On ch=5 n=72 v=85
72560 Off ch=5 n=72 v=64
72576 On ch=5 n=84 v=100
72960 Off ch=5 n=84 v=64
73632 On ch=5 n=67 v=110
73904 Off ch=5 n=67 v=64
73920 On ch=5 n=67 v=95
74000 Off ch=5 n=67 v=64
74016 On ch=5 n=69 v=95
74192 Off ch=5 n=69 v=64
74208 On ch=5 n=72 v=100
74384 Off ch=5 n=72 v=64
74400 On ch=5 n=69 v=95
74496 Off ch=5 n=69 v=64
74496 On ch=5 n=67 v=90
74576 Off ch=5 n=67 v=64
74592 On ch=5 n=67 v=90
74832 Off ch=5 n=67 v=64
74880 On ch=5 n=72 v=95
74976 Off ch=5 n=72 v=64
74976 On ch=5 n=74 v=80
75136 Off ch=5 n=74 v=64
75264 On ch=5 n=76 v=70
75304 Off ch=5 n=76 v=64
75360 On ch=5 n=76 v=90
75440 Off ch=5 n=76 v=64
75456 On ch=5 n=76 v=100
75728 Off ch=5 n=76 v=64
75840 On ch=5 n=74 v=90
75920 Off ch=5 n=74 v=64
75936 On ch=5 n=74 v=90
76208 Off ch=5 n=74 v=64
76224 On ch=5 n=72 v=90
76304 Off ch=5 n=72 v=64
76320 On ch=5 n=72 v=90
76496 Off ch=5 n=72 v=64
76800 On ch=5 n=76 v=70
76960 Off ch=5 n=76 v=64
76992 On ch=5 n=76 v=90
77152 Off ch=5 n=76 v=64
77184 On ch=5 n=77 v=90
77344 Off ch=5 n=77 v=64
77376 On ch=5 n=76 v=90
77456 Off ch=5 n=76 v=64
77472 On ch=5 n=76 v=90
77664 Off ch=5 n=76 v=64
77664 On ch=5 n=74 v=90
77936 Off ch=5 n=74 v=64
78048 On ch=5 n=76 v=80
78096 Off ch=5 n=76 v=64
78144 On ch=5 n=74 v=80
78208 Off ch=5 n=74 v=64
78240 On ch=5 n=74 v=80
78416 Off ch=5 n=74 v=64
78432 On ch=5 n=72 v=80
78960 Off ch=5 n=72 v=64
79776 On ch=5 n=64 v=70
79840 Off ch=5 n=64 v=64
79872 On ch=5 n=67 v=80
80048 Off ch=5 n=67 v=64
80064 On ch=5 n=67 v=100
80144 Off ch=5 n=67 v=64
80160 On ch=5 n=69 v=100
80336 Off ch=5 n=69 v=64
80352 On ch=5 n=72 v=100
80432 Off ch=5 n=72 v=64
80448 On ch=5 n=69 v=100
80544 Off ch=5 n=69 v=64
80544 On ch=5 n=67 v=80
80624 Off ch=5 n=67 v=64
80640 On ch=5 n=67 v=90
80800 Off ch=5 n=67 v=64
81120 On ch=5 n=72 v=95
81200 Off ch=5 n=72 v=64
81216 On ch=5 n=74 v=95
81296 Off ch=5 n=74 v=64
81408 On ch=5 n=76 v=80
81488 Off ch=5 n=76 v=64
81504 On ch=5 n=76 v=80
81584 Off ch=5 n=76 v=64
81600 On ch=5 n=76 v=90
81968 Off ch=5 n=76 v=64
81984 On ch=5 n=74 v=90
82080 Off ch=5 n=74 v=64
82080 On ch=5 n=81 v=60
82176 Off ch=5 n=81 v=64
82272 On ch=5 n=76 v=100
82448 Off ch=5 n=76 v=64
82464 On ch=5 n=74 v=90
82560 Off ch=5 n=74 v=64
82560 On ch=5 n=72 v=85
82848 Off ch=5 n=72 v=64
82944 On ch=5 n=76 v=80
83104 Off ch=5 n=76 v=64
83136 On ch=5 n=76 v=90
83296 Off ch=5 n=76 v=64
83328 On ch=5 n=77 v=80
83448 Off ch=5 n=77 v=64
83520 On ch=5 n=76 v=80
83600 Off ch=5 n=76 v=64
83616 On ch=5 n=76 v=80
83808 Off ch=5 n=76 v=64
83808 On ch=5 n=74 v=90
84048 Off ch=5 n=74 v=64
84192 On ch=5 n=76 v=90
84272 Off ch=5 n=76 v=64
84288 On ch=5 n=74 v=85
84368 Off ch=5 n=74 v=64
84384 On ch=5 n=74 v=85
84560 Off ch=5 n=74 v=64
84576 On ch=5 n=72 v=85
84848 Off ch=5 n=72 v=64
85632 On ch=5 n=76 v=105
85696 Off ch=5 n=76 v=64
85728 On ch=5 n=74 v=105
85904 Off ch=5 n=74 v=64
85920 On ch=5 n=72 v=105
86384 Off ch=5 n=72 v=64
86400 On ch=5 n=76 v=100
86480 Off ch=5 n=76 v=64
86496 On ch=5 n=79 v=110
86656 Off ch=5 n=79 v=64
86688 On ch=5 n=81 v=115
86976 Off ch=5 n=81 v=64
86976 On ch=5 n=79 v=115
87136 Off ch=5 n=79 v=64
87168 On ch=5 n=79 v=100
87208 Off ch=5 n=79 v=64
87264 On ch=5 n=79 v=100
87328 Off ch=5 n=79 v=64
87456 On ch=5 n=76 v=105
87792 Off ch=5 n=76 v=64
87936 On ch=5 n=69 v=105
88016 Off ch=5 n=69 v=64
88032 On ch=5 n=67 v=100
88152 Off ch=5 n=67 v=64
88224 On ch=5 n=76 v=105
88512 Off ch=5 n=76 v=64
88512 On ch=5 n=72 v=95
88672 Off ch=5 n=72 v=64
88896 On ch=5 n=67 v=90
89016 Off ch=5 n=67 v=64
89088 On ch=5 n=76 v=85
89248 Off ch=5 n=76 v=64
89280 On ch=5 n=76 v=85
89440 Off ch=5 n=76 v=64
89472 On ch=5 n=79 v=85
89632 Off ch=5 n=79 v=64
89664 On ch=5 n=76 v=85
89824 Off ch=5 n=76 v=64
89856 On ch=5 n=76 v=85
89936 Off ch=5 n=76 v=64
89952 On ch=5 n=74 v=85
90112 Off ch=5 n=74 v=64
90336 On ch=5 n=76 v=85
90416 Off ch=5 n=76 v=64
90432 On ch=5 n=74 v=80
90512 Off ch=5 n=74 v=64
90528 On ch=5 n=74 v=80
90704 Off ch=5 n=74 v=64
90720 On ch=5 n=72 v=75
90992 Off ch=5 n=72 v=64
91776 On ch=5 n=76 v=100
91840 Off ch=5 n=76 v=64
91872 On ch=5 n=74 v=100
92048 Off ch=5 n=74 v=64
92064 On ch=5 n=72 v=100
92528 Off ch=5 n=72 v=64
92544 On ch=5 n=76 v=90
92624 Off ch=5 n=76 v=64
92640 On ch=5 n=79 v=100
92720 Off ch=5 n=79 v=64
92832 On ch=5 n=81 v=105
93152 Off ch=5 n=81 v=64
93312 On ch=5 n=79 v=100
93352 Off ch=5 n=79 v=64
93408 On ch=5 n=79 v=100
93472 Off ch=5 n=79 v=64
93600 On ch=5 n=76 v=105
93936 Off ch=5 n=76 v=64
94080 On ch=5 n=69 v=105
94160 Off ch=5 n=69 v=64
94176 On ch=5 n=67 v=100
94296 Off ch=5 n=67 v=64
94368 On ch=5 n=76 v=105
94656 Off ch=5 n=76 v=64
94656 On ch=5 n=72 v=95
94816 Off ch=5 n=72 v=64
95232 On ch=5 n=76 v=80
95392 Off ch=5 n=76 v=64
95424 On ch=5 n=76 v=85
95504 Off ch=5 n=76 v=64
95520 On ch=5 n=76 v=90
95616 Off ch=5 n=76 v=64
95616 On ch=5 n=77 v=100
95856 Off ch=5 n=77 v=64
95904 On ch=5 n=76 v=110
95984 Off ch=5 n=76 v=64
96000 On ch=5 n=76 v=110
96056 Off ch=5 n=76 v=64
96096 On ch=5 n=74 v=110
96296 Off ch=5 n=74 v=64
96480 On ch=5 n=76 v=110
96560 Off ch=5 n=76 v=64
96576 On ch=5 n=74 v=110
96616 Off ch=5 n=74 v=64
96672 On ch=5 n=74 v=110
96848 Off ch=5 n=74 v=64
96864 On ch=5 n=72 v=85
97136 Off ch=5 n=72 v=64
97248 On ch=5 n=84 v=90
97888 Off ch=5 n=84 v=64
97920 On ch=5 n=76 v=90
98000 Off ch=5 n=76 v=64
98016 On ch=5 n=74 v=80
98192 Off ch=5 n=74 v=64
98208 On ch=5 n=72 v=90
98672 Off ch=5 n=72 v=64
98688 On ch=5 n=76 v=100
98768 Off ch=5 n=76 v=64
98784 On ch=5 n=79 v=110
98944 Off ch=5 n=79 v=64
98976 On ch=5 n=81 v=115
99264 Off ch=5 n=81 v=64
99264 On ch=5 n=79 v=115
99424 Off ch=5 n=79 v=64
99456 On ch=5 n=79 v=100
99496 Off ch=5 n=79 v=64
99552 On ch=5 n=79 v=100
99616 Off ch=5 n=79 v=64
99744 On ch=5 n=76 v=105
100080 Off ch=5 n=76 v=64
100224 On ch=5 n=69 v=105
100304 Off ch=5 n=69 v=64
100320 On ch=5 n=67 v=100
100440 Off ch=5 n=67 v=64
100512 On ch=5 n=76 v=105
100800 Off ch=5 n=76 v=64
100800 On ch=5 n=72 v=105
100960 Off ch=5 n=72 v=64
101184 On ch=5 n=67 v=100
101304 Off ch=5 n=67 v=64
101376 On ch=5 n=76 v=95
101536 Off ch=5 n=76 v=64
101568 On ch=5 n=76 v=95
101728 Off ch=5 n=76 v=64
101760 On ch=5 n=79 v=95
101920 Off ch=5 n=79 v=64
101952 On ch=5 n=76 v=95
102112 Off ch=5 n=76 v=64
102144 On ch=5 n=76 v=95
102224 Off ch=5 n=76 v=64
102240 On ch=5 n=74 v=95
102400 Off ch=5 n=74 v=64
102624 On ch=5 n=76 v=95
102704 Off ch=5 n=76 v=64
102720 On ch=5 n=74 v=90
102800 Off ch=5 n=74 v=64
102816 On ch=5 n=74 v=90
102992 Off ch=5 n=74 v=64
103008 On ch=5 n=72 v=85
103200 Off ch=5 n=72 v=64
103200 On ch=5 n=84 v=100
104016 Off ch=5 n=84 v=64
107520 Par ch=5 c=7 v=96
107904 Par ch=5 c=7 v=96
107904 Meta TrkEnd
TrkEnd
MTrk
0 Meta TrkName "Elec Gtr 2          "
0 Par ch=6 c=0 v=0
0 PrCh ch=6 p=25
0 Par ch=6 c=7 v=127
0 KeySig 0 major
0 Pb ch=6 v=8192
0 Par ch=6 c=64 v=0
0 Par ch=6 c=1 v=0
0 Par ch=6 c=11 v=105
50688 Par ch=6 c=7 v=0
50736 Par ch=6 c=7 v=2
50784 Par ch=6 c=7 v=4
50832 Par ch=6 c=7 v=6
50880 Par ch=6 c=7 v=8
50928 Par ch=6 c=7 v=10
50976 Par ch=6 c=7 v=12
51024 Par ch=6 c=7 v=14
51072 Par ch=6 c=7 v=16
51120 Par ch=6 c=7 v=18
51168 Par ch=6 c=7 v=20
51216 Par ch=6 c=7 v=22
51264 Par ch=6 c=7 v=24
51312 Par ch=6 c=7 v=26
51360 Par ch=6 c=7 v=28
51408 Par ch=6 c=7 v=30
51456 Par ch=6 c=7 v=32
51504 Par ch=6 c=7 v=34
51552 Par ch=6 c=7 v=36
51600 Par ch=6 c=7 v=38
51648 Par ch=6 c=7 v=40
51696 Par ch=6 c=7 v=42
51744 Par ch=6 c=7 v=44
51792 Par ch=6 c=7 v=46
51840 Par ch=6 c=7 v=48
51888 Par ch=6 c=7 v=50
51936 Par ch=6 c=7 v=52
51984 Par ch=6 c=7 v=54
52032 Par ch=6 c=7 v=56
52080 Par ch=6 c=7 v=58
52128 Par ch=6 c=7 v=60
52176 Par ch=6 c=7 v=62
52224 Par ch=6 c=7 v=64
52272 Par ch=6 c=7 v=66
52320 Par ch=6 c=7 v=68
52368 Par ch=6 c=7 v=70
52416 Par ch=6 c=7 v=72
52464 Par ch=6 c=7 v=74
52512 Par ch=6 c=7 v=76
52560 Par ch=6 c=7 v=78
52608 Par ch=6 c=7 v=80
52656 Par ch=6 c=7 v=82
52704 Par ch=6 c=7 v=84
52752 Par ch=6 c=7 v=86
52800 Par ch=6 c=7 v=88
52848 Par ch=6 c=7 v=90
52896 Par ch=6 c=7 v=92
52944 Par ch=6 c=7 v=94
52992 Par ch=6 c=7 v=96
53040 Par ch=6 c=7 v=98
53088 Par ch=6 c=7 v=100
54720 On ch=6 n=55 v=115
54744 Off ch=6 n=55 v=64
54744 On ch=6 n=57 v=115
54744 On ch=6 n=60 v=115
54904 Off ch=6 n=57 v=64
54904 Off ch=6 n=60 v=64
54912 On ch=6 n=55 v=115
54912 On ch=6 n=60 v=115
54992 Off ch=6 n=55 v=64
54992 Off ch=6 n=60 v=64
55008 On ch=6 n=52 v=115
55088 Off ch=6 n=52 v=64
55104 On ch=6 n=50 v=115
55280 Off ch=6 n=50 v=64
55296 Par ch=6 c=7 v=110
55296 On ch=6 n=48 v=110
55472 Off ch=6 n=48 v=64
55488 On ch=6 n=48 v=110
55664 Off ch=6 n=48 v=64
55680 On ch=6 n=50 v=110
55696 Off ch=6 n=50 v=64
55696 On ch=6 n=52 v=110
55776 Off ch=6 n=52 v=64
55776 On ch=6 n=55 v=110
55856 Off ch=6 n=55 v=64
55872 On ch=6 n=55 v=110
55952 Off ch=6 n=55 v=64
55968 On ch=6 n=52 v=110
56048 Off ch=6 n=52 v=64
56064 On ch=6 n=55 v=120
56528 Off ch=6 n=55 v=64
56544 Pb ch=6 v=6892
56544 On ch=6 n=57 v=110
56624 Pb ch=6 v=7192
56632 Pb ch=6 v=7392
56640 Pb ch=6 v=7792
56648 Pb ch=6 v=8192
56720 Off ch=6 n=57 v=64
56736 On ch=6 n=60 v=110
56816 Off ch=6 n=60 v=64
56832 Pb ch=6 v=6892
56832 On ch=6 n=64 v=110
56864 Pb ch=6 v=7192
56880 Pb ch=6 v=7392
56896 Pb ch=6 v=7792
56912 Pb ch=6 v=8192
57376 Off ch=6 n=64 v=64
57408 Pb ch=6 v=9492
57408 On ch=6 n=62 v=110
57488 Pb ch=6 v=9192
57496 Pb ch=6 v=8992
57504 Pb ch=6 v=7792
57512 Pb ch=6 v=8192
57584 Off ch=6 n=62 v=64
57600 On ch=6 n=60 v=110
58144 Off ch=6 n=60 v=64
58560 Pb ch=6 v=6892
58560 Pb ch=6 v=7192
58560 On ch=6 n=64 v=110
58576 Pb ch=6 v=7392
58584 Pb ch=6 v=7792
58592 Pb ch=6 v=8192
58656 Off ch=6 n=64 v=64
58656 On ch=6 n=72 v=110
58736 Off ch=6 n=72 v=64
58752 Pb ch=6 v=9492
58752 On ch=6 n=62 v=110
58832 Pb ch=6 v=9192
58840 Pb ch=6 v=8992
58848 Pb ch=6 v=8592
58856 Pb ch=6 v=8192
58928 Off ch=6 n=62 v=64
58944 On ch=6 n=60 v=110
59040 Off ch=6 n=60 v=64
59040 On ch=6 n=62 v=100
59136 Off ch=6 n=62 v=64
59136 Pb ch=6 v=6892
59136 On ch=6 n=64 v=110
59160 Pb ch=6 v=7192
59168 Pb ch=6 v=7392
59176 Pb ch=6 v=7792
59184 Pb ch=6 v=8192
59312 Off ch=6 n=64 v=64
59328 On ch=6 n=60 v=110
59504 Off ch=6 n=60 v=64
59520 Pb ch=6 v=9492
59520 On ch=6 n=62 v=110
59600 Pb ch=6 v=9192
59608 Pb ch=6 v=8992
59616 Pb ch=6 v=8592
59624 Pb ch=6 v=8192
59696 Off ch=6 n=62 v=64
59712 On ch=6 n=60 v=110
59888 Off ch=6 n=60 v=64
59904 On ch=6 n=57 v=110
60000 Off ch=6 n=57 v=64
60000 On ch=6 n=55 v=100
60096 Off ch=6 n=55 v=64
60096 On ch=6 n=57 v=110
60192 Off ch=6 n=57 v=64
60192 On ch=6 n=55 v=100
60288 Off ch=6 n=55 v=64
60288 Pb ch=6 v=9492
60288 On ch=6 n=50 v=110
60368 Pb ch=6 v=9192
60376 Pb ch=6 v=8992
60384 Pb ch=6 v=8592
60392 Pb ch=6 v=8192
60464 Off ch=6 n=50 v=64
60480 On ch=6 n=48 v=110
60576 Off ch=6 n=48 v=64
60576 On ch=6 n=50 v=100
60656 Off ch=6 n=50 v=64
60672 On ch=6 n=48 v=100
61040 Off ch=6 n=48 v=64
61152 On ch=6 n=55 v=110
61248 Off ch=6 n=55 v=64
61248 On ch=6 n=57 v=100
61344 Off ch=6 n=57 v=64
61344 On ch=6 n=60 v=110
61424 Off ch=6 n=60 v=64
61440 On ch=6 n=60 v=120
61616 Off ch=6 n=60 v=64
61632 On ch=6 n=57 v=110
61712 Off ch=6 n=57 v=64
61728 On ch=6 n=60 v=110
61808 Off ch=6 n=60 v=64
61824 On ch=6 n=62 v=100
61840 Off ch=6 n=62 v=64
61840 On ch=6 n=64 v=110
62000 Off ch=6 n=64 v=64
62016 On ch=6 n=67 v=110
62288 Off ch=6 n=67 v=64
62304 Pb ch=6 v=6892
62304 On ch=6 n=64 v=110
62344 Pb ch=6 v=7192
62352 Pb ch=6 v=7792
62360 Pb ch=6 v=8192
62400 Off ch=6 n=64 v=64
62400 On ch=6 n=67 v=110
62672 Off ch=6 n=67 v=64
62688 Pb ch=6 v=6892
62688 On ch=6 n=64 v=110
62728 Pb ch=6 v=7192
62736 Pb ch=6 v=7792
62744 Pb ch=6 v=8192
62784 Off ch=6 n=64 v=64
62784 On ch=6 n=67 v=110
62960 Off ch=6 n=67 v=64
62976 On ch=6 n=69 v=110
63344 Off ch=6 n=69 v=64
63440 On ch=6 n=67 v=110
63536 Off ch=6 n=67 v=64
63536 On ch=6 n=69 v=100
63616 Off ch=6 n=69 v=64
63632 On ch=6 n=72 v=110
63712 Off ch=6 n=72 v=64
63728 Pb ch=6 v=6892
63728 On ch=6 n=76 v=125
63744 Pb ch=6 v=7192
63752 Pb ch=6 v=7392
63760 Pb ch=6 v=7792
63768 Pb ch=6 v=8192
64096 Off ch=6 n=76 v=64
64112 Pb ch=6 v=9492
64112 On ch=6 n=74 v=110
64192 Pb ch=6 v=9192
64200 Pb ch=6 v=8992
64208 Pb ch=6 v=8592
64216 Pb ch=6 v=8192
64288 Off ch=6 n=74 v=64
64304 On ch=6 n=72 v=110
64392 Off ch=6 n=72 v=64
64392 On ch=6 n=74 v=100
64504 Off ch=6 n=74 v=64
64504 On ch=6 n=72 v=100
65048 Off ch=6 n=72 v=64
65176 Pb ch=6 v=9492
65176 On ch=6 n=79 v=127
65352 Pb ch=6 v=9192
65368 Pb ch=6 v=8992
65376 Pb ch=6 v=8592
65384 Pb ch=6 v=8192
65544 Off ch=6 n=79 v=64
65944 Pb ch=6 v=9492
65944 On ch=6 n=74 v=110
66024 Pb ch=6 v=9192
66032 Pb ch=6 v=8992
66032 Pb ch=6 v=8992
66032 Pb ch=6 v=8592
66040 Pb ch=6 v=8192
66128 Off ch=6 n=74 v=64
66128 On ch=6 n=72 v=100
66224 Off ch=6 n=72 v=64
66224 On ch=6 n=74 v=110
66320 Off ch=6 n=74 v=64
66416 Pb ch=6 v=9492
66416 On ch=6 n=74 v=110
66496 Pb ch=6 v=9192
66504 Pb ch=6 v=8992
66512 Pb ch=6 v=8592
66520 Pb ch=6 v=8192
66608 Off ch=6 n=74 v=64
66608 On ch=6 n=72 v=100
66704 Off ch=6 n=72 v=64
66704 On ch=6 n=74 v=90
66784 Off ch=6 n=74 v=64
66800 On ch=6 n=72 v=90
67344 Off ch=6 n=72 v=64
78336 Par ch=6 c=7 v=100
79104 On ch=6 n=55 v=100
79104 On ch=6 n=60 v=100
79152 Off ch=6 n=55 v=64
79152 On ch=6 n=57 v=90
79280 Off ch=6 n=60 v=64
79296 Off ch=6 n=57 v=64
79296 On ch=6 n=55 v=100
79296 On ch=6 n=60 v=100
79472 Off ch=6 n=55 v=64
79472 Off ch=6 n=60 v=64
79488 Pb ch=6 v=9492
79488 On ch=6 n=50 v=100
79568 Pb ch=6 v=9192
79576 Pb ch=6 v=8992
79584 Pb ch=6 v=8592
79592 Pb ch=6 v=8192
79664 Off ch=6 n=50 v=64
79680 On ch=6 n=48 v=100
79776 Off ch=6 n=48 v=64
79776 On ch=6 n=50 v=90
79872 Off ch=6 n=50 v=64
79872 On ch=6 n=48 v=90
80640 Off ch=6 n=48 v=64
92832 On ch=6 n=57 v=90
92832 On ch=6 n=60 v=90
92912 Off ch=6 n=57 v=64
92912 Off ch=6 n=60 v=64
92928 On ch=6 n=55 v=90
92928 On ch=6 n=60 v=90
93008 Off ch=6 n=55 v=64
93008 Off ch=6 n=60 v=64
93024 On ch=6 n=60 v=90
93104 Off ch=6 n=60 v=64
93120 On ch=6 n=57 v=90
93296 Off ch=6 n=57 v=64
93312 On ch=6 n=55 v=90
93392 Off ch=6 n=55 v=64
93408 On ch=6 n=55 v=90
93408 On ch=6 n=60 v=90
93488 Off ch=6 n=55 v=64
93488 Off ch=6 n=60 v=64
93504 Pb ch=6 v=9492
93504 On ch=6 n=50 v=90
93584 Pb ch=6 v=9192
93592 Pb ch=6 v=8992
93600 Pb ch=6 v=8592
93608 Pb ch=6 v=8192
93680 Off ch=6 n=50 v=64
93696 On ch=6 n=48 v=90
94240 Off ch=6 n=48 v=64
94272 On ch=6 n=55 v=90
94272 On ch=6 n=60 v=90
94368 Off ch=6 n=55 v=64
94368 On ch=6 n=57 v=80
94448 Off ch=6 n=60 v=64
94464 Off ch=6 n=57 v=64
94464 Pb ch=6 v=9492
94464 On ch=6 n=50 v=90
94544 Pb ch=6 v=9192
94552 Pb ch=6 v=8992
94560 Pb ch=6 v=8592
94568 Pb ch=6 v=8192
94640 Off ch=6 n=50 v=64
94656 On ch=6 n=48 v=90
94752 Off ch=6 n=48 v=64
94752 On ch=6 n=50 v=80
94848 Off ch=6 n=50 v=64
94848 On ch=6 n=48 v=90
95024 Off ch=6 n=48 v=64
95040 On ch=6 n=50 v=90
95136 Off ch=6 n=50 v=64
95136 On ch=6 n=48 v=80
95216 Off ch=6 n=48 v=64
96192 Pb ch=6 v=6892
96192 On ch=6 n=62 v=80
96216 Pb ch=6 v=7192
96224 Pb ch=6 v=7392
96232 Pb ch=6 v=7792
96240 Pb ch=6 v=8192
96368 Off ch=6 n=62 v=64
96384 Pb ch=6 v=9492
96384 On ch=6 n=60 v=80
96464 Pb ch=6 v=9192
96472 Pb ch=6 v=8992
96480 Pb ch=6 v=8592
96488 Pb ch=6 v=8192
96560 Off ch=6 n=60 v=64
96576 On ch=6 n=62 v=80
96752 Off ch=6 n=62 v=64
96768 On ch=6 n=60 v=90
97136 Off ch=6 n=60 v=64
97152 On ch=6 n=55 v=90
97152 On ch=6 n=60 v=90
97248 Off ch=6 n=55 v=64
97248 Off ch=6 n=60 v=64
97248 On ch=6 n=57 v=80
97344 Off ch=6 n=57 v=64
97344 On ch=6 n=60 v=90
97520 Off ch=6 n=60 v=64
97536 On ch=6 n=60 v=90
97904 Off ch=6 n=60 v=64
98016 On ch=6 n=55 v=90
98016 On ch=6 n=60 v=90
98112 Off ch=6 n=55 v=64
98112 Off ch=6 n=60 v=64
98112 On ch=6 n=57 v=80
98192 Off ch=6 n=57 v=64
98208 On ch=6 n=60 v=90
98304 Off ch=6 n=60 v=64
98304 On ch=6 n=55 v=90
98400 Off ch=6 n=55 v=64
98400 On ch=6 n=57 v=80
98496 Off ch=6 n=57 v=64
98496 On ch=6 n=60 v=80
98672 Off ch=6 n=60 v=64
98688 On ch=6 n=55 v=90
98784 Off ch=6 n=55 v=64
98784 On ch=6 n=57 v=80
98880 Off ch=6 n=57 v=64
98880 On ch=6 n=60 v=80
99056 Off ch=6 n=60 v=64
99072 On ch=6 n=55 v=90
99168 Off ch=6 n=55 v=64
99168 On ch=6 n=57 v=80
99264 Off ch=6 n=57 v=64
99264 On ch=6 n=60 v=90
99344 Off ch=6 n=60 v=64
99360 Pb ch=6 v=6892
99360 On ch=6 n=64 v=90
99440 Pb ch=6 v=7192
99448 Pb ch=6 v=7392
99456 Pb ch=6 v=7792
99464 Pb ch=6 v=8192
99536 Off ch=6 n=64 v=64
99552 On ch=6 n=69 v=90
99632 Off ch=6 n=69 v=64
99648 Pb ch=6 v=9492
99648 On ch=6 n=62 v=90
99728 Pb ch=6 v=9192
99736 Pb ch=6 v=8992
99744 Pb ch=6 v=8592
99752 Pb ch=6 v=8192
99824 Off ch=6 n=62 v=64
99840 On ch=6 n=60 v=90
100016 Off ch=6 n=60 v=64
100032 On ch=6 n=62 v=90
100112 Off ch=6 n=62 v=64
100224 On ch=6 n=62 v=70
100240 Off ch=6 n=62 v=64
100240 On ch=6 n=64 v=70
100304 Off ch=6 n=64 v=64
100320 On ch=6 n=67 v=90
100496 Off ch=6 n=67 v=64
100512 On ch=6 n=67 v=90
100592 Off ch=6 n=67 v=64
100608 On ch=6 n=64 v=90
100976 Off ch=6 n=64 v=64
101184 Pb ch=6 v=9492
101184 On ch=6 n=72 v=90
101264 Pb ch=6 v=9192
101272 Pb ch=6 v=8992
101280 Pb ch=6 v=8592
101288 Pb ch=6 v=8192
101360 Off ch=6 n=72 v=64
101376 On ch=6 n=69 v=90
101744 Off ch=6 n=69 v=64
101760 On ch=6 n=67 v=90
101856 Off ch=6 n=67 v=64
101856 On ch=6 n=69 v=80
102128 Off ch=6 n=69 v=64
102144 On ch=6 n=67 v=90
102320 Off ch=6 n=67 v=64
102336 Pb ch=6 v=9492
102336 On ch=6 n=62 v=90
102416 Pb ch=6 v=9192
102424 Pb ch=6 v=8992
102432 Pb ch=6 v=8592
102440 Pb ch=6 v=8192
102512 Off ch=6 n=62 v=64
102624 On ch=6 n=60 v=90
102704 Off ch=6 n=60 v=64
102720 Pb ch=6 v=6892
102720 On ch=6 n=64 v=90
102800 Pb ch=6 v=7192
102808 Pb ch=6 v=7392
102816 Pb ch=6 v=7792
102824 Pb ch=6 v=8192
102896 Off ch=6 n=64 v=64
102912 On ch=6 n=60 v=90
103280 Off ch=6 n=60 v=64
103296 On ch=6 n=55 v=90
103392 Off ch=6 n=55 v=64
103392 On ch=6 n=57 v=70
103472 Off ch=6 n=57 v=64
103488 On ch=6 n=60 v=90
103584 Off ch=6 n=60 v=64
103680 On ch=6 n=60 v=90
104224 Off ch=6 n=60 v=64
107520 Par ch=6 c=7 v=96
107904 Par ch=6 c=7 v=96
107904 Meta TrkEnd
TrkEnd
MTrk
0 Meta TrkName "Rhythm              "
0 Par ch=10 c=0 v=0
0 PrCh ch=10 p=0
0 Par ch=10 c=7 v=127
0 KeySig 0 major
0 Par ch=10 c=11 v=110
0 Pb ch=10 v=9192
21504 Par ch=10 c=7 v=0
21552 Par ch=10 c=7 v=2
21600 Par ch=10 c=7 v=4
21648 Par ch=10 c=7 v=6
21696 Par ch=10 c=7 v=8
21744 Par ch=10 c=7 v=10
21792 Par ch=10 c=7 v=12
21840 Par ch=10 c=7 v=14
21888 Par ch=10 c=7 v=16
21936 Par ch=10 c=7 v=18
21984 Par ch=10 c=7 v=20
22032 Par ch=10 c=7 v=22
22080 Par ch=10 c=7 v=24
22128 Par ch=10 c=7 v=26
22176 Par ch=10 c=7 v=28
22224 Par ch=10 c=7 v=30
22272 Par ch=10 c=7 v=32
22320 Par ch=10 c=7 v=34
22368 Par ch=10 c=7 v=36
22416 Par ch=10 c=7 v=38
22464 Par ch=10 c=7 v=40
22512 Par ch=10 c=7 v=42
22560 Par ch=10 c=7 v=44
22608 Par ch=10 c=7 v=46
22656 Par ch=10 c=7 v=48
22704 Par ch=10 c=7 v=50
22752 Par ch=10 c=7 v=52
22800 Par ch=10 c=7 v=54
22848 Par ch=10 c=7 v=56
22896 Par ch=10 c=7 v=58
22944 Par ch=10 c=7 v=60
22992 Par ch=10 c=7 v=62
23040 Par ch=10 c=7 v=64
23088 Par ch=10 c=7 v=66
23136 Par ch=10 c=7 v=68
23184 Par ch=10 c=7 v=70
23232 Par ch=10 c=7 v=72
23280 Par ch=10 c=7 v=74
23328 Par ch=10 c=7 v=76
23376 Par ch=10 c=7 v=78
23424 Par ch=10 c=7 v=80
23472 Par ch=10 c=7 v=82
23520 Par ch=10 c=7 v=84
23568 Par ch=10 c=7 v=86
23616 Par ch=10 c=7 v=88
23664 Par ch=10 c=7 v=90
23712 Par ch=10 c=7 v=92
23760 Par ch=10 c=7 v=94
23808 Par ch=10 c=7 v=96
23856 Par ch=10 c=7 v=98
23904 Par ch=10 c=7 v=100
23952 Par ch=10 c=7 v=102
24000 Par ch=10 c=7 v=104
24048 Par ch=10 c=7 v=106
24096 Par ch=10 c=7 v=108
24144 Par ch=10 c=7 v=110
24192 Par ch=10 c=7 v=112
24240 Par ch=10 c=7 v=115
24960 On ch=10 n=42 v=110
24968 Off ch=10 n=42 v=64
25056 On ch=10 n=42 v=80
25064 Off ch=10 n=42 v=64
25152 On ch=10 n=42 v=65
25160 Off ch=10 n=42 v=64
25248 On ch=10 n=42 v=55
25256 Off ch=10 n=42 v=64
25344 On ch=10 n=42 v=60
25352 Off ch=10 n=42 v=64
25440 On ch=10 n=42 v=50
25448 Off ch=10 n=42 v=64
25536 On ch=10 n=42 v=50
25544 Off ch=10 n=42 v=64
25632 On ch=10 n=42 v=50
25640 Off ch=10 n=42 v=64
25728 On ch=10 n=42 v=110
25736 Off ch=10 n=42 v=64
25824 On ch=10 n=42 v=80
25832 Off ch=10 n=42 v=64
25920 On ch=10 n=42 v=65
25928 Off ch=10 n=42 v=64
26016 On ch=10 n=42 v=55
26024 Off ch=10 n=42 v=64
26112 On ch=10 n=42 v=50
26120 Off ch=10 n=42 v=64
26208 On ch=10 n=42 v=50
26216 Off ch=10 n=42 v=64
26304 On ch=10 n=42 v=50
26312 Off ch=10 n=42 v=64
26400 On ch=10 n=42 v=50
26408 Off ch=10 n=42 v=64
26496 On ch=10 n=42 v=110
26504 Off ch=10 n=42 v=64
26592 On ch=10 n=42 v=80
26600 Off ch=10 n=42 v=64
26688 On ch=10 n=42 v=65
26696 Off ch=10 n=42 v=64
26784 On ch=10 n=42 v=55
26792 Off ch=10 n=42 v=64
26880 On ch=10 n=42 v=60
26888 Off ch=10 n=42 v=64
26976 On ch=10 n=42 v=50
26984 Off ch=10 n=42 v=64
27072 On ch=10 n=42 v=50
27080 Off ch=10 n=42 v=64
27168 On ch=10 n=42 v=50
27176 Off ch=10 n=42 v=64
27264 On ch=10 n=42 v=110
27272 Off ch=10 n=42 v=64
27360 On ch=10 n=42 v=80
27368 Off ch=10 n=42 v=64
27456 On ch=10 n=42 v=65
27464 Off ch=10 n=42 v=64
27552 On ch=10 n=42 v=55
27560 Off ch=10 n=42 v=64
27648 On ch=10 n=42 v=50
27656 Off ch=10 n=42 v=64
27744 On ch=10 n=42 v=50
27752 Off ch=10 n=42 v=64
27840 On ch=10 n=42 v=50
27848 Off ch=10 n=42 v=64
27936 On ch=10 n=42 v=50
27944 Off ch=10 n=42 v=64
28032 On ch=10 n=42 v=110
28040 Off ch=10 n=42 v=64
28128 On ch=10 n=42 v=80
28136 Off ch=10 n=42 v=64
28224 On ch=10 n=42 v=65
28232 Off ch=10 n=42 v=64
28320 On ch=10 n=42 v=55
28328 Off ch=10 n=42 v=64
28416 On ch=10 n=42 v=60
28424 Off ch=10 n=42 v=64
28512 On ch=10 n=42 v=50
28520 Off ch=10 n=42 v=64
28608 On ch=10 n=42 v=50
28616 Off ch=10 n=42 v=64
28704 On ch=10 n=42 v=50
28712 Off ch=10 n=42 v=64
28800 On ch=10 n=42 v=110
28808 Off ch=10 n=42 v=64
28896 On ch=10 n=42 v=80
28904 Off ch=10 n=42 v=64
28992 On ch=10 n=42 v=65
29000 Off ch=10 n=42 v=64
29088 On ch=10 n=42 v=55
29096 Off ch=10 n=42 v=64
29184 On ch=10 n=42 v=50
29192 Off ch=10 n=42 v=64
29280 On ch=10 n=42 v=50
29288 Off ch=10 n=42 v=64
29376 On ch=10 n=42 v=50
29384 Off ch=10 n=42 v=64
29472 On ch=10 n=42 v=50
29480 Off ch=10 n=42 v=64
29568 On ch=10 n=42 v=110
29576 Off ch=10 n=42 v=64
29664 On ch=10 n=42 v=80
29672 Off ch=10 n=42 v=64
29760 On ch=10 n=42 v=65
29768 Off ch=10 n=42 v=64
29856 On ch=10 n=42 v=55
29864 Off ch=10 n=42 v=64
29952 On ch=10 n=42 v=60
29960 Off ch=10 n=42 v=64
30048 On ch=10 n=42 v=50
30056 Off ch=10 n=42 v=64
30144 On ch=10 n=42 v=50
30152 Off ch=10 n=42 v=64
30240 On ch=10 n=42 v=50
30248 Off ch=10 n=42 v=64
30336 On ch=10 n=42 v=110
30344 Off ch=10 n=42 v=64
30432 On ch=10 n=42 v=80
30440 Off ch=10 n=42 v=64
30528 On ch=10 n=42 v=65
30536 Off ch=10 n=42 v=64
30624 On ch=10 n=42 v=55
30632 Off ch=10 n=42 v=64
30720 On ch=10 n=42 v=50
30728 Off ch=10 n=42 v=64
30816 On ch=10 n=42 v=50
30824 Off ch=10 n=42 v=64
30912 On ch=10 n=42 v=50
30920 Off ch=10 n=42 v=64
31008 On ch=10 n=42 v=50
31016 Off ch=10 n=42 v=64
31104 On ch=10 n=42 v=110
31112 Off ch=10 n=42 v=64
31200 On ch=10 n=42 v=80
31208 Off ch=10 n=42 v=64
31296 On ch=10 n=42 v=65
31304 Off ch=10 n=42 v=64
31392 On ch=10 n=42 v=55
31400 Off ch=10 n=42 v=64
31488 On ch=10 n=42 v=60
31496 Off ch=10 n=42 v=64
31584 On ch=10 n=42 v=50
31592 Off ch=10 n=42 v=64
31680 On ch=10 n=42 v=50
31688 Off ch=10 n=42 v=64
31776 On ch=10 n=42 v=50
31784 Off ch=10 n=42 v=64
31872 On ch=10 n=42 v=110
31880 Off ch=10 n=42 v=64
31968 On ch=10 n=42 v=80
31976 Off ch=10 n=42 v=64
32064 On ch=10 n=42 v=65
32072 Off ch=10 n=42 v=64
32160 On ch=10 n=42 v=55
32168 Off ch=10 n=42 v=64
32256 On ch=10 n=42 v=50
32264 Off ch=10 n=42 v=64
32352 On ch=10 n=42 v=50
32360 Off ch=10 n=42 v=64
32448 On ch=10 n=42 v=50
32456 Off ch=10 n=42 v=64
32544 On ch=10 n=42 v=50
32552 Off ch=10 n=42 v=64
32640 On ch=10 n=42 v=110
32648 Off ch=10 n=42 v=64
32736 On ch=10 n=42 v=80
32744 Off ch=10 n=42 v=64
32832 On ch=10 n=42 v=65
32840 Off ch=10 n=42 v=64
32928 On ch=10 n=42 v=55
32936 Off ch=10 n=42 v=64
33024 On ch=10 n=42 v=60
33032 Off ch=10 n=42 v=64
33120 On ch=10 n=42 v=50
33128 Off ch=10 n=42 v=64
33216 On ch=10 n=42 v=50
33224 Off ch=10 n=42 v=64
33312 On ch=10 n=42 v=50
33320 Off ch=10 n=42 v=64
33408 On ch=10 n=42 v=110
33416 Off ch=10 n=42 v=64
33504 On ch=10 n=42 v=80
33512 Off ch=10 n=42 v=64
33600 On ch=10 n=42 v=65
33608 Off ch=10 n=42 v=64
33696 On ch=10 n=42 v=55
33704 Off ch=10 n=42 v=64
33792 On ch=10 n=42 v=50
33800 Off ch=10 n=42 v=64
33888 On ch=10 n=42 v=50
33896 Off ch=10 n=42 v=64
33984 On ch=10 n=42 v=50
33992 Off ch=10 n=42 v=64
34080 On ch=10 n=42 v=50
34088 Off ch=10 n=42 v=64
34176 On ch=10 n=42 v=110
34184 Off ch=10 n=42 v=64
34272 On ch=10 n=42 v=80
34280 Off ch=10 n=42 v=64
34368 On ch=10 n=42 v=65
34376 Off ch=10 n=42 v=64
34464 On ch=10 n=42 v=55
34472 Off ch=10 n=42 v=64
34560 On ch=10 n=42 v=60
34568 Off ch=10 n=42 v=64
34656 On ch=10 n=42 v=50
34664 Off ch=10 n=42 v=64
34752 On ch=10 n=42 v=50
34760 Off ch=10 n=42 v=64
34848 On ch=10 n=42 v=50
34856 Off ch=10 n=42 v=64
34944 On ch=10 n=42 v=110
34952 Off ch=10 n=42 v=64
35040 On ch=10 n=42 v=80
35048 Off ch=10 n=42 v=64
35136 On ch=10 n=42 v=65
35144 Off ch=10 n=42 v=64
35232 On ch=10 n=42 v=55
35240 Off ch=10 n=42 v=64
35328 On ch=10 n=42 v=50
35336 Off ch=10 n=42 v=64
35424 On ch=10 n=42 v=50
35432 Off ch=10 n=42 v=64
35520 On ch=10 n=42 v=50
35528 Off ch=10 n=42 v=64
35616 On ch=10 n=42 v=50
35624 Off ch=10 n=42 v=64
35712 On ch=10 n=42 v=110
35720 Off ch=10 n=42 v=64
35808 On ch=10 n=42 v=80
35816 Off ch=10 n=42 v=64
35904 On ch=10 n=42 v=65
35912 Off ch=10 n=42 v=64
36000 On ch=10 n=42 v=55
36008 Off ch=10 n=42 v=64
36096 On ch=10 n=42 v=60
36104 Off ch=10 n=42 v=64
36192 On ch=10 n=42 v=50
36200 Off ch=10 n=42 v=64
36288 On ch=10 n=38 v=90
36296 Off ch=10 n=38 v=64
36384 On ch=10 n=41 v=110
36392 Off ch=10 n=41 v=64
36480 On ch=10 n=41 v=110
36488 Off ch=10 n=41 v=64
36576 On ch=10 n=41 v=110
36584 Off ch=10 n=41 v=64
36672 On ch=10 n=38 v=100
36680 Off ch=10 n=38 v=64
36768 On ch=10 n=41 v=110
36776 Off ch=10 n=41 v=64
36864 On ch=10 n=49 v=100
36864 On ch=10 n=36 v=90
36872 Off ch=10 n=49 v=64
36872 Off ch=10 n=36 v=64
37056 On ch=10 n=42 v=70
37064 Off ch=10 n=42 v=64
37248 On ch=10 n=38 v=100
37248 On ch=10 n=42 v=80
37256 Off ch=10 n=38 v=64
37256 Off ch=10 n=42 v=64
37440 On ch=10 n=42 v=70
37448 Off ch=10 n=42 v=64
37632 On ch=10 n=36 v=90
37632 On ch=10 n=42 v=90
37640 Off ch=10 n=36 v=64
37640 Off ch=10 n=42 v=64
37824 On ch=10 n=36 v=80
37824 On ch=10 n=42 v=70
37832 Off ch=10 n=36 v=64
37832 Off ch=10 n=42 v=64
38016 On ch=10 n=38 v=100
38016 On ch=10 n=42 v=80
38024 Off ch=10 n=38 v=64
38024 Off ch=10 n=42 v=64
38208 On ch=10 n=42 v=70
38216 Off ch=10 n=42 v=64
38400 On ch=10 n=42 v=90
38400 On ch=10 n=36 v=90
38408 Off ch=10 n=42 v=64
38408 Off ch=10 n=36 v=64
38592 On ch=10 n=42 v=70
38600 Off ch=10 n=42 v=64
38784 On ch=10 n=38 v=100
38784 On ch=10 n=44 v=90
38792 Off ch=10 n=38 v=64
38792 Off ch=10 n=44 v=64
38976 On ch=10 n=42 v=70
38984 Off ch=10 n=42 v=64
39168 On ch=10 n=36 v=90
39168 On ch=10 n=42 v=90
39176 Off ch=10 n=36 v=64
39176 Off ch=10 n=42 v=64
39360 On ch=10 n=42 v=70
39368 Off ch=10 n=42 v=64
39552 On ch=10 n=38 v=100
39552 On ch=10 n=44 v=65
39560 Off ch=10 n=38 v=64
39560 Off ch=10 n=44 v=64
39744 On ch=10 n=42 v=70
39752 Off ch=10 n=42 v=64
39936 On ch=10 n=42 v=90
39936 On ch=10 n=36 v=90
39944 Off ch=10 n=42 v=64
39944 Off ch=10 n=36 v=64
40128 On ch=10 n=36 v=80
40128 On ch=10 n=42 v=70
40136 Off ch=10 n=36 v=64
40136 Off ch=10 n=42 v=64
40320 On ch=10 n=38 v=100
40320 On ch=10 n=44 v=90
40328 Off ch=10 n=38 v=64
40328 Off ch=10 n=44 v=64
40512 On ch=10 n=42 v=70
40520 Off ch=10 n=42 v=64
40608 On ch=10 n=38 v=90
40616 Off ch=10 n=38 v=64
40704 On ch=10 n=36 v=90
40704 On ch=10 n=42 v=90
40712 Off ch=10 n=36 v=64
40712 Off ch=10 n=42 v=64
40896 On ch=10 n=42 v=70
40904 Off ch=10 n=42 v=64
41088 On ch=10 n=38 v=100
41088 On ch=10 n=44 v=65
41096 Off ch=10 n=38 v=64
41096 Off ch=10 n=44 v=64
41280 On ch=10 n=42 v=70
41288 Off ch=10 n=42 v=64
41376 On ch=10 n=38 v=90
41384 Off ch=10 n=38 v=64
41472 On ch=10 n=42 v=90
41472 On ch=10 n=36 v=90
41480 Off ch=10 n=42 v=64
41480 Off ch=10 n=36 v=64
41664 On ch=10 n=42 v=70
41672 Off ch=10 n=42 v=64
41856 On ch=10 n=38 v=100
41856 On ch=10 n=44 v=65
41864 Off ch=10 n=38 v=64
41864 Off ch=10 n=44 v=64
42048 On ch=10 n=42 v=70
42056 Off ch=10 n=42 v=64
42144 On ch=10 n=38 v=90
42152 Off ch=10 n=38 v=64
42240 On ch=10 n=36 v=90
42240 On ch=10 n=44 v=90
42248 Off ch=10 n=36 v=64
42248 Off ch=10 n=44 v=64
42432 On ch=10 n=38 v=100
42440 Off ch=10 n=38 v=64
42528 On ch=10 n=41 v=110
42536 Off ch=10 n=41 v=64
42624 On ch=10 n=41 v=110
42632 Off ch=10 n=41 v=64
42720 On ch=10 n=41 v=110
42728 Off ch=10 n=41 v=64
42816 On ch=10 n=38 v=100
42824 Off ch=10 n=38 v=64
42912 On ch=10 n=41 v=110
42920 Off ch=10 n=41 v=64
43008 On ch=10 n=49 v=100
43008 On ch=10 n=36 v=90
43016 Off ch=10 n=49 v=64
43016 Off ch=10 n=36 v=64
43200 On ch=10 n=42 v=70
43208 Off ch=10 n=42 v=64
43392 On ch=10 n=38 v=100
43392 On ch=10 n=44 v=90
43400 Off ch=10 n=38 v=64
43400 Off ch=10 n=44 v=64
43584 On ch=10 n=42 v=70
43592 Off ch=10 n=42 v=64
43680 On ch=10 n=38 v=90
43688 Off ch=10 n=38 v=64
43776 On ch=10 n=36 v=90
43776 On ch=10 n=42 v=90
43784 Off ch=10 n=36 v=64
43784 Off ch=10 n=42 v=64
43968 On ch=10 n=42 v=70
43976 Off ch=10 n=42 v=64
44160 On ch=10 n=38 v=100
44160 On ch=10 n=44 v=65
44168 Off ch=10 n=38 v=64
44168 Off ch=10 n=44 v=64
44352 On ch=10 n=42 v=70
44360 Off ch=10 n=42 v=64
44448 On ch=10 n=38 v=90
44456 Off ch=10 n=38 v=64
44544 On ch=10 n=42 v=90
44544 On ch=10 n=36 v=90
44552 Off ch=10 n=42 v=64
44552 Off ch=10 n=36 v=64
44736 On ch=10 n=42 v=70
44744 Off ch=10 n=42 v=64
44928 On ch=10 n=38 v=100
44928 On ch=10 n=44 v=90
44936 Off ch=10 n=38 v=64
44936 Off ch=10 n=44 v=64
45120 On ch=10 n=42 v=70
45128 Off ch=10 n=42 v=64
45216 On ch=10 n=38 v=90
45224 Off ch=10 n=38 v=64
45312 On ch=10 n=36 v=90
45312 On ch=10 n=42 v=90
45320 Off ch=10 n=36 v=64
45320 Off ch=10 n=42 v=64
45504 On ch=10 n=42 v=70
45512 Off ch=10 n=42 v=64
45696 On ch=10 n=38 v=100
45696 On ch=10 n=44 v=65
45704 Off ch=10 n=38 v=64
45704 Off ch=10 n=44 v=64
45888 On ch=10 n=42 v=70
45896 Off ch=10 n=42 v=64
46080 On ch=10 n=42 v=90
46080 On ch=10 n=36 v=90
46088 Off ch=10 n=42 v=64
46088 Off ch=10 n=36 v=64
46272 On ch=10 n=42 v=70
46280 Off ch=10 n=42 v=64
46464 On ch=10 n=38 v=100
46464 On ch=10 n=42 v=80
46472 Off ch=10 n=38 v=64
46472 Off ch=10 n=42 v=64
46656 On ch=10 n=42 v=70
46664 Off ch=10 n=42 v=64
46848 On ch=10 n=36 v=90
46848 On ch=10 n=42 v=90
46856 Off ch=10 n=36 v=64
46856 Off ch=10 n=42 v=64
47040 On ch=10 n=36 v=80
47040 On ch=10 n=42 v=70
47048 Off ch=10 n=36 v=64
47048 Off ch=10 n=42 v=64
47232 On ch=10 n=38 v=100
47232 On ch=10 n=42 v=80
47240 Off ch=10 n=38 v=64
47240 Off ch=10 n=42 v=64
47424 On ch=10 n=42 v=70
47432 Off ch=10 n=42 v=64
47616 On ch=10 n=42 v=90
47616 On ch=10 n=36 v=90
47624 Off ch=10 n=42 v=64
47624 Off ch=10 n=36 v=64
47808 On ch=10 n=42 v=70
47816 Off ch=10 n=42 v=64
48000 On ch=10 n=38 v=100
48000 On ch=10 n=42 v=80
48008 Off ch=10 n=38 v=64
48008 Off ch=10 n=42 v=64
48192 On ch=10 n=42 v=70
48200 Off ch=10 n=42 v=64
48384 On ch=10 n=36 v=90
48384 On ch=10 n=42 v=90
48392 Off ch=10 n=36 v=64
48392 Off ch=10 n=42 v=64
48576 On ch=10 n=36 v=80
48576 On ch=10 n=42 v=70
48584 Off ch=10 n=36 v=64
48584 Off ch=10 n=42 v=64
48768 On ch=10 n=38 v=100
48768 On ch=10 n=42 v=80
48776 Off ch=10 n=38 v=64
48776 Off ch=10 n=42 v=64
48960 On ch=10 n=42 v=70
48968 Off ch=10 n=42 v=64
49152 On ch=10 n=36 v=100
49152 On ch=10 n=49 v=100
49160 Off ch=10 n=36 v=64
49160 Off ch=10 n=49 v=64
49440 On ch=10 n=50 v=110
49448 Off ch=10 n=50 v=64
49536 On ch=10 n=50 v=110
49544 Off ch=10 n=50 v=64
49728 On ch=10 n=50 v=110
49736 Off ch=10 n=50 v=64
49920 On ch=10 n=47 v=110
49928 Off ch=10 n=47 v=64
50112 On ch=10 n=47 v=115
50120 Off ch=10 n=47 v=64
50208 On ch=10 n=47 v=110
50216 Off ch=10 n=47 v=64
50304 On ch=10 n=41 v=115
50312 Off ch=10 n=41 v=64
50496 On ch=10 n=41 v=110
50504 Off ch=10 n=41 v=64
50688 On ch=10 n=49 v=100
50688 On ch=10 n=36 v=90
50696 Off ch=10 n=49 v=64
50696 Off ch=10 n=36 v=64
50880 On ch=10 n=50 v=100
50888 Off ch=10 n=50 v=64
50976 On ch=10 n=41 v=100
50984 Off ch=10 n=41 v=64
51072 On ch=10 n=49 v=100
51072 On ch=10 n=36 v=90
51080 Off ch=10 n=49 v=64
51080 Off ch=10 n=36 v=64
51264 On ch=10 n=50 v=100
51272 Off ch=10 n=50 v=64
51360 On ch=10 n=41 v=100
51368 Off ch=10 n=41 v=64
51456 On ch=10 n=36 v=100
51456 On ch=10 n=49 v=100
51464 Off ch=10 n=36 v=64
51464 Off ch=10 n=49 v=64
54720 On ch=10 n=50 v=110
54728 Off ch=10 n=50 v=64
54816 On ch=10 n=50 v=110
54824 Off ch=10 n=50 v=64
54912 On ch=10 n=41 v=110
54920 Off ch=10 n=41 v=64
55008 On ch=10 n=41 v=110
55016 Off ch=10 n=41 v=64
55104 On ch=10 n=38 v=100
55112 Off ch=10 n=38 v=64
55296 On ch=10 n=49 v=110
55296 On ch=10 n=36 v=100
55304 Off ch=10 n=49 v=64
55304 Off ch=10 n=36 v=64
55488 On ch=10 n=42 v=70
55496 Off ch=10 n=42 v=64
55680 On ch=10 n=38 v=110
55680 On ch=10 n=42 v=80
55688 Off ch=10 n=38 v=64
55688 Off ch=10 n=42 v=64
55872 On ch=10 n=42 v=70
55880 Off ch=10 n=42 v=64
56064 On ch=10 n=36 v=100
56064 On ch=10 n=42 v=90
56072 Off ch=10 n=36 v=64
56072 Off ch=10 n=42 v=64
56160 On ch=10 n=42 v=70
56168 Off ch=10 n=42 v=64
56256 On ch=10 n=42 v=70
56264 Off ch=10 n=42 v=64
56352 On ch=10 n=42 v=70
56360 Off ch=10 n=42 v=64
56448 On ch=10 n=38 v=100
56448 On ch=10 n=42 v=90
56456 Off ch=10 n=38 v=64
56456 Off ch=10 n=42 v=64
56544 On ch=10 n=42 v=70
56552 Off ch=10 n=42 v=64
56640 On ch=10 n=42 v=70
56648 Off ch=10 n=42 v=64
56736 On ch=10 n=42 v=70
56744 Off ch=10 n=42 v=64
56832 On ch=10 n=36 v=100
56832 On ch=10 n=42 v=90
56840 Off ch=10 n=36 v=64
56840 Off ch=10 n=42 v=64
56928 On ch=10 n=42 v=70
56936 Off ch=10 n=42 v=64
57024 On ch=10 n=42 v=70
57032 Off ch=10 n=42 v=64
57120 On ch=10 n=42 v=70
57128 Off ch=10 n=42 v=64
57216 On ch=10 n=38 v=100
57216 On ch=10 n=42 v=90
57224 Off ch=10 n=38 v=64
57224 Off ch=10 n=42 v=64
57312 On ch=10 n=42 v=70
57320 Off ch=10 n=42 v=64
57408 On ch=10 n=42 v=70
57416 Off ch=10 n=42 v=64
57504 On ch=10 n=42 v=70
57512 Off ch=10 n=42 v=64
57600 On ch=10 n=36 v=100
57600 On ch=10 n=42 v=90
57608 Off ch=10 n=36 v=64
57608 Off ch=10 n=42 v=64
57696 On ch=10 n=42 v=70
57704 Off ch=10 n=42 v=64
57792 On ch=10 n=42 v=70
57800 Off ch=10 n=42 v=64
57888 On ch=10 n=42 v=70
57896 Off ch=10 n=42 v=64
57984 On ch=10 n=38 v=100
57984 On ch=10 n=42 v=90
57992 Off ch=10 n=38 v=64
57992 Off ch=10 n=42 v=64
58080 On ch=10 n=42 v=70
58088 Off ch=10 n=42 v=64
58176 On ch=10 n=42 v=70
58184 Off ch=10 n=42 v=64
58272 On ch=10 n=42 v=70
58280 Off ch=10 n=42 v=64
58368 On ch=10 n=36 v=100
58368 On ch=10 n=42 v=90
58376 Off ch=10 n=36 v=64
58376 Off ch=10 n=42 v=64
58464 On ch=10 n=42 v=70
58472 Off ch=10 n=42 v=64
58560 On ch=10 n=42 v=70
58568 Off ch=10 n=42 v=64
58656 On ch=10 n=42 v=70
58664 Off ch=10 n=42 v=64
58752 On ch=10 n=38 v=100
58752 On ch=10 n=42 v=90
58760 Off ch=10 n=38 v=64
58760 Off ch=10 n=42 v=64
58848 On ch=10 n=42 v=70
58856 Off ch=10 n=42 v=64
58944 On ch=10 n=42 v=70
58952 Off ch=10 n=42 v=64
59040 On ch=10 n=42 v=70
59048 Off ch=10 n=42 v=64
59136 On ch=10 n=36 v=100
59136 On ch=10 n=42 v=90
59144 Off ch=10 n=36 v=64
59144 Off ch=10 n=42 v=64
59232 On ch=10 n=42 v=70
59240 Off ch=10 n=42 v=64
59328 On ch=10 n=42 v=70
59336 Off ch=10 n=42 v=64
59424 On ch=10 n=42 v=70
59432 Off ch=10 n=42 v=64
59520 On ch=10 n=38 v=100
59520 On ch=10 n=42 v=90
59528 Off ch=10 n=38 v=64
59528 Off ch=10 n=42 v=64
59616 On ch=10 n=42 v=70
59624 Off ch=10 n=42 v=64
59712 On ch=10 n=42 v=70
59720 Off ch=10 n=42 v=64
59808 On ch=10 n=42 v=70
59816 Off ch=10 n=42 v=64
59904 On ch=10 n=36 v=100
59904 On ch=10 n=42 v=90
59912 Off ch=10 n=36 v=64
59912 Off ch=10 n=42 v=64
60000 On ch=10 n=42 v=70
60008 Off ch=10 n=42 v=64
60096 On ch=10 n=42 v=70
60104 Off ch=10 n=42 v=64
60192 On ch=10 n=42 v=70
60200 Off ch=10 n=42 v=64
60288 On ch=10 n=38 v=100
60288 On ch=10 n=42 v=90
60296 Off ch=10 n=38 v=64
60296 Off ch=10 n=42 v=64
60384 On ch=10 n=42 v=70
60392 Off ch=10 n=42 v=64
60480 On ch=10 n=42 v=70
60488 Off ch=10 n=42 v=64
60576 On ch=10 n=42 v=70
60584 Off ch=10 n=42 v=64
60672 On ch=10 n=36 v=100
60672 On ch=10 n=42 v=90
60680 Off ch=10 n=36 v=64
60680 Off ch=10 n=42 v=64
60768 On ch=10 n=42 v=70
60776 Off ch=10 n=42 v=64
60864 On ch=10 n=42 v=70
60872 Off ch=10 n=42 v=64
60960 On ch=10 n=42 v=70
60968 Off ch=10 n=42 v=64
61056 On ch=10 n=38 v=90
61064 Off ch=10 n=38 v=64
61152 On ch=10 n=38 v=100
61160 Off ch=10 n=38 v=64
61248 On ch=10 n=38 v=110
61256 Off ch=10 n=38 v=64
61344 On ch=10 n=50 v=115
61352 Off ch=10 n=50 v=64
61440 On ch=10 n=36 v=100
61440 On ch=10 n=49 v=110
61448 Off ch=10 n=36 v=64
61448 Off ch=10 n=49 v=64
61632 On ch=10 n=42 v=70
61640 Off ch=10 n=42 v=64
61728 On ch=10 n=42 v=70
61736 Off ch=10 n=42 v=64
61824 On ch=10 n=38 v=100
61824 On ch=10 n=42 v=90
61832 Off ch=10 n=38 v=64
61832 Off ch=10 n=42 v=64
61920 On ch=10 n=42 v=70
61928 Off ch=10 n=42 v=64
62016 On ch=10 n=42 v=70
62024 Off ch=10 n=42 v=64
62112 On ch=10 n=42 v=70
62120 Off ch=10 n=42 v=64
62208 On ch=10 n=36 v=100
62208 On ch=10 n=42 v=90
62216 Off ch=10 n=36 v=64
62216 Off ch=10 n=42 v=64
62304 On ch=10 n=42 v=70
62312 Off ch=10 n=42 v=64
62400 On ch=10 n=42 v=70
62408 Off ch=10 n=42 v=64
62496 On ch=10 n=42 v=70
62504 Off ch=10 n=42 v=64
62592 On ch=10 n=38 v=100
62592 On ch=10 n=42 v=90
62600 Off ch=10 n=38 v=64
62600 Off ch=10 n=42 v=64
62688 On ch=10 n=42 v=70
62696 Off ch=10 n=42 v=64
62784 On ch=10 n=42 v=70
62792 Off ch=10 n=42 v=64
62880 On ch=10 n=42 v=70
62888 Off ch=10 n=42 v=64
62976 On ch=10 n=36 v=100
62976 On ch=10 n=42 v=90
62984 Off ch=10 n=36 v=64
62984 Off ch=10 n=42 v=64
63072 On ch=10 n=42 v=70
63080 Off ch=10 n=42 v=64
63168 On ch=10 n=42 v=70
63176 Off ch=10 n=42 v=64
63264 On ch=10 n=42 v=70
63272 Off ch=10 n=42 v=64
63360 On ch=10 n=38 v=100
63360 On ch=10 n=42 v=90
63368 Off ch=10 n=38 v=64
63368 Off ch=10 n=42 v=64
63456 On ch=10 n=42 v=70
63464 Off ch=10 n=42 v=64
63552 On ch=10 n=42 v=70
63560 Off ch=10 n=42 v=64
63648 On ch=10 n=42 v=70
63656 Off ch=10 n=42 v=64
63744 On ch=10 n=36 v=100
63744 On ch=10 n=42 v=90
63752 Off ch=10 n=36 v=64
63752 Off ch=10 n=42 v=64
63840 On ch=10 n=42 v=70
63848 Off ch=10 n=42 v=64
63936 On ch=10 n=42 v=70
63944 Off ch=10 n=42 v=64
64032 On ch=10 n=42 v=70
64040 Off ch=10 n=42 v=64
64128 On ch=10 n=38 v=100
64128 On ch=10 n=42 v=90
64136 Off ch=10 n=38 v=64
64136 Off ch=10 n=42 v=64
64224 On ch=10 n=42 v=70
64232 Off ch=10 n=42 v=64
64320 On ch=10 n=42 v=70
64328 Off ch=10 n=42 v=64
64416 On ch=10 n=42 v=70
64424 Off ch=10 n=42 v=64
64512 On ch=10 n=36 v=100
64512 On ch=10 n=42 v=90
64520 Off ch=10 n=36 v=64
64520 Off ch=10 n=42 v=64
64608 On ch=10 n=42 v=70
64616 Off ch=10 n=42 v=64
64704 On ch=10 n=42 v=70
64712 Off ch=10 n=42 v=64
64800 On ch=10 n=42 v=70
64808 Off ch=10 n=42 v=64
64896 On ch=10 n=38 v=100
64896 On ch=10 n=42 v=90
64904 Off ch=10 n=38 v=64
64904 Off ch=10 n=42 v=64
64992 On ch=10 n=42 v=70
65000 Off ch=10 n=42 v=64
65088 On ch=10 n=42 v=70
65096 Off ch=10 n=42 v=64
65184 On ch=10 n=42 v=70
65192 Off ch=10 n=42 v=64
65280 On ch=10 n=36 v=100
65280 On ch=10 n=42 v=90
65288 Off ch=10 n=36 v=64
65288 Off ch=10 n=42 v=64
65376 On ch=10 n=42 v=70
65384 Off ch=10 n=42 v=64
65472 On ch=10 n=42 v=70
65480 Off ch=10 n=42 v=64
65568 On ch=10 n=42 v=70
65576 Off ch=10 n=42 v=64
65664 On ch=10 n=38 v=100
65664 On ch=10 n=42 v=90
65672 Off ch=10 n=38 v=64
65672 Off ch=10 n=42 v=64
65760 On ch=10 n=42 v=70
65768 Off ch=10 n=42 v=64
65856 On ch=10 n=42 v=70
65864 Off ch=10 n=42 v=64
65952 On ch=10 n=42 v=70
65960 Off ch=10 n=42 v=64
66048 On ch=10 n=36 v=100
66048 On ch=10 n=42 v=90
66056 Off ch=10 n=36 v=64
66056 Off ch=10 n=42 v=64
66144 On ch=10 n=42 v=70
66152 Off ch=10 n=42 v=64
66240 On ch=10 n=42 v=70
66248 Off ch=10 n=42 v=64
66336 On ch=10 n=42 v=70
66344 Off ch=10 n=42 v=64
66432 On ch=10 n=38 v=100
66432 On ch=10 n=42 v=90
66440 Off ch=10 n=38 v=64
66440 Off ch=10 n=42 v=64
66528 On ch=10 n=42 v=70
66536 Off ch=10 n=42 v=64
66624 On ch=10 n=42 v=70
66632 Off ch=10 n=42 v=64
66720 On ch=10 n=42 v=70
66728 Off ch=10 n=42 v=64
66816 On ch=10 n=36 v=100
66816 On ch=10 n=42 v=90
66824 Off ch=10 n=36 v=64
66824 Off ch=10 n=42 v=64
66912 On ch=10 n=42 v=70
66920 Off ch=10 n=42 v=64
67008 On ch=10 n=42 v=70
67016 Off ch=10 n=42 v=64
67104 On ch=10 n=42 v=70
67112 Off ch=10 n=42 v=64
67200 On ch=10 n=38 v=100
67200 On ch=10 n=42 v=90
67208 Off ch=10 n=38 v=64
67208 Off ch=10 n=42 v=64
67296 On ch=10 n=42 v=70
67304 Off ch=10 n=42 v=64
67392 On ch=10 n=42 v=70
67400 Off ch=10 n=42 v=64
67488 On ch=10 n=42 v=70
67496 Off ch=10 n=42 v=64
67584 On ch=10 n=36 v=100
67592 Off ch=10 n=36 v=64
67776 On ch=10 n=51 v=90
67784 Off ch=10 n=51 v=64
67968 On ch=10 n=38 v=110
67976 Off ch=10 n=38 v=64
68160 On ch=10 n=51 v=90
68168 Off ch=10 n=51 v=64
68352 On ch=10 n=36 v=100
68360 Off ch=10 n=36 v=64
68544 On ch=10 n=51 v=90
68552 Off ch=10 n=51 v=64
68736 On ch=10 n=38 v=110
68744 Off ch=10 n=38 v=64
68928 On ch=10 n=51 v=90
68936 Off ch=10 n=51 v=64
69120 On ch=10 n=36 v=100
69128 Off ch=10 n=36 v=64
69312 On ch=10 n=51 v=90
69320 Off ch=10 n=51 v=64
69504 On ch=10 n=38 v=110
69512 Off ch=10 n=38 v=64
69696 On ch=10 n=51 v=90
69704 Off ch=10 n=51 v=64
69888 On ch=10 n=36 v=100
69896 Off ch=10 n=36 v=64
70080 On ch=10 n=51 v=90
70088 Off ch=10 n=51 v=64
70272 On ch=10 n=38 v=110
70280 Off ch=10 n=38 v=64
70464 On ch=10 n=51 v=90
70472 Off ch=10 n=51 v=64
70656 On ch=10 n=36 v=100
70664 Off ch=10 n=36 v=64
70848 On ch=10 n=51 v=90
70856 Off ch=10 n=51 v=64
71040 On ch=10 n=38 v=110
71048 Off ch=10 n=38 v=64
71232 On ch=10 n=51 v=90
71240 Off ch=10 n=51 v=64
71424 On ch=10 n=36 v=100
71432 Off ch=10 n=36 v=64
71616 On ch=10 n=51 v=90
71624 Off ch=10 n=51 v=64
71808 On ch=10 n=38 v=110
71816 Off ch=10 n=38 v=64
72000 On ch=10 n=51 v=90
72008 Off ch=10 n=51 v=64
72192 On ch=10 n=36 v=100
72200 Off ch=10 n=36 v=64
72384 On ch=10 n=51 v=90
72392 Off ch=10 n=51 v=64
72576 On ch=10 n=38 v=110
72584 Off ch=10 n=38 v=64
72768 On ch=10 n=51 v=90
72776 Off ch=10 n=51 v=64
72960 On ch=10 n=36 v=100
72968 Off ch=10 n=36 v=64
73152 On ch=10 n=51 v=90
73160 Off ch=10 n=51 v=64
73344 On ch=10 n=38 v=110
73352 Off ch=10 n=38 v=64
73536 On ch=10 n=51 v=90
73544 Off ch=10 n=51 v=64
73728 On ch=10 n=36 v=100
73728 On ch=10 n=42 v=90
73736 Off ch=10 n=36 v=64
73736 Off ch=10 n=42 v=64
73824 On ch=10 n=42 v=70
73832 Off ch=10 n=42 v=64
73920 On ch=10 n=42 v=70
73928 Off ch=10 n=42 v=64
74016 On ch=10 n=47 v=90
74024 Off ch=10 n=47 v=64
74112 On ch=10 n=50 v=90
74120 Off ch=10 n=50 v=64
74208 On ch=10 n=47 v=90
74216 Off ch=10 n=47 v=64
74304 On ch=10 n=38 v=105
74312 Off ch=10 n=38 v=64
74496 On ch=10 n=36 v=100
74496 On ch=10 n=42 v=90
74504 Off ch=10 n=36 v=64
74504 Off ch=10 n=42 v=64
74592 On ch=10 n=42 v=70
74600 Off ch=10 n=42 v=64
74688 On ch=10 n=42 v=70
74696 Off ch=10 n=42 v=64
74784 On ch=10 n=47 v=90
74792 Off ch=10 n=47 v=64
74880 On ch=10 n=50 v=90
74888 Off ch=10 n=50 v=64
74976 On ch=10 n=47 v=90
74984 Off ch=10 n=47 v=64
75072 On ch=10 n=38 v=105
75080 Off ch=10 n=38 v=64
75264 On ch=10 n=36 v=100
75264 On ch=10 n=42 v=90
75272 Off ch=10 n=36 v=64
75272 Off ch=10 n=42 v=64
75456 On ch=10 n=42 v=70
75464 Off ch=10 n=42 v=64
75648 On ch=10 n=42 v=70
75648 On ch=10 n=50 v=90
75656 Off ch=10 n=42 v=64
75656 Off ch=10 n=50 v=64
75744 On ch=10 n=47 v=90
75752 Off ch=10 n=47 v=64
75840 On ch=10 n=42 v=70
75840 On ch=10 n=41 v=90
75848 Off ch=10 n=42 v=64
75848 Off ch=10 n=41 v=64
75936 On ch=10 n=41 v=115
75944 Off ch=10 n=41 v=64
76032 On ch=10 n=36 v=100
76032 On ch=10 n=42 v=90
76040 Off ch=10 n=36 v=64
76040 Off ch=10 n=42 v=64
76224 On ch=10 n=47 v=90
76224 On ch=10 n=42 v=70
76232 Off ch=10 n=47 v=64
76232 Off ch=10 n=42 v=64
76416 On ch=10 n=42 v=70
76416 On ch=10 n=50 v=90
76424 Off ch=10 n=42 v=64
76424 Off ch=10 n=50 v=64
76512 On ch=10 n=47 v=90
76520 Off ch=10 n=47 v=64
76608 On ch=10 n=42 v=70
76608 On ch=10 n=41 v=115
76616 Off ch=10 n=42 v=64
76616 Off ch=10 n=41 v=64
76704 On ch=10 n=41 v=115
76712 Off ch=10 n=41 v=64
76800 On ch=10 n=36 v=100
76800 On ch=10 n=42 v=90
76808 Off ch=10 n=36 v=64
76808 Off ch=10 n=42 v=64
76992 On ch=10 n=42 v=70
77000 Off ch=10 n=42 v=64
77184 On ch=10 n=42 v=70
77184 On ch=10 n=50 v=90
77192 Off ch=10 n=42 v=64
77192 Off ch=10 n=50 v=64
77280 On ch=10 n=47 v=90
77288 Off ch=10 n=47 v=64
77376 On ch=10 n=42 v=70
77376 On ch=10 n=38 v=105
77384 Off ch=10 n=42 v=64
77384 Off ch=10 n=38 v=64
77568 On ch=10 n=36 v=100
77568 On ch=10 n=42 v=90
77576 Off ch=10 n=36 v=64
77576 Off ch=10 n=42 v=64
77760 On ch=10 n=47 v=90
77760 On ch=10 n=42 v=70
77768 Off ch=10 n=47 v=64
77768 Off ch=10 n=42 v=64
77952 On ch=10 n=42 v=70
77952 On ch=10 n=50 v=90
77960 Off ch=10 n=42 v=64
77960 Off ch=10 n=50 v=64
78048 On ch=10 n=47 v=90
78056 Off ch=10 n=47 v=64
78144 On ch=10 n=42 v=70
78144 On ch=10 n=41 v=115
78152 Off ch=10 n=42 v=64
78152 Off ch=10 n=41 v=64
78240 On ch=10 n=41 v=115
78248 Off ch=10 n=41 v=64
78336 On ch=10 n=36 v=100
78336 On ch=10 n=42 v=90
78344 Off ch=10 n=36 v=64
78344 Off ch=10 n=42 v=64
78528 On ch=10 n=42 v=70
78536 Off ch=10 n=42 v=64
78624 On ch=10 n=47 v=90
78632 Off ch=10 n=47 v=64
78720 On ch=10 n=50 v=90
78720 On ch=10 n=42 v=90
78728 Off ch=10 n=50 v=64
78728 Off ch=10 n=42 v=64
78816 On ch=10 n=47 v=90
78824 Off ch=10 n=47 v=64
78912 On ch=10 n=38 v=105
78912 On ch=10 n=42 v=70
78920 Off ch=10 n=38 v=64
78920 Off ch=10 n=42 v=64
79104 On ch=10 n=36 v=100
79104 On ch=10 n=42 v=90
79112 Off ch=10 n=36 v=64
79112 Off ch=10 n=42 v=64
79296 On ch=10 n=42 v=70
79304 Off ch=10 n=42 v=64
79392 On ch=10 n=47 v=90
79400 Off ch=10 n=47 v=64
79488 On ch=10 n=50 v=90
79488 On ch=10 n=42 v=90
79496 Off ch=10 n=50 v=64
79496 Off ch=10 n=42 v=64
79584 On ch=10 n=47 v=90
79592 Off ch=10 n=47 v=64
79680 On ch=10 n=38 v=105
79680 On ch=10 n=42 v=70
79688 Off ch=10 n=38 v=64
79688 Off ch=10 n=42 v=64
79872 On ch=10 n=36 v=100
79872 On ch=10 n=42 v=90
79880 Off ch=10 n=36 v=64
79880 Off ch=10 n=42 v=64
80064 On ch=10 n=42 v=70
80072 Off ch=10 n=42 v=64
80160 On ch=10 n=47 v=90
80168 Off ch=10 n=47 v=64
80256 On ch=10 n=50 v=90
80256 On ch=10 n=42 v=90
80264 Off ch=10 n=50 v=64
80264 Off ch=10 n=42 v=64
80352 On ch=10 n=47 v=90
80360 Off ch=10 n=47 v=64
80448 On ch=10 n=38 v=105
80448 On ch=10 n=42 v=70
80456 Off ch=10 n=38 v=64
80456 Off ch=10 n=42 v=64
80640 On ch=10 n=36 v=100
80640 On ch=10 n=42 v=90
80648 Off ch=10 n=36 v=64
80648 Off ch=10 n=42 v=64
80832 On ch=10 n=42 v=70
80840 Off ch=10 n=42 v=64
80928 On ch=10 n=47 v=90
80936 Off ch=10 n=47 v=64
81024 On ch=10 n=50 v=90
81024 On ch=10 n=42 v=90
81032 Off ch=10 n=50 v=64
81032 Off ch=10 n=42 v=64
81120 On ch=10 n=47 v=90
81128 Off ch=10 n=47 v=64
81216 On ch=10 n=38 v=105
81216 On ch=10 n=42 v=70
81224 Off ch=10 n=38 v=64
81224 Off ch=10 n=42 v=64
81408 On ch=10 n=36 v=100
81408 On ch=10 n=42 v=90
81416 Off ch=10 n=36 v=64
81416 Off ch=10 n=42 v=64
81600 On ch=10 n=42 v=70
81608 Off ch=10 n=42 v=64
81696 On ch=10 n=47 v=90
81704 Off ch=10 n=47 v=64
81792 On ch=10 n=50 v=90
81792 On ch=10 n=42 v=90
81800 Off ch=10 n=50 v=64
81800 Off ch=10 n=42 v=64
81888 On ch=10 n=47 v=90
81896 Off ch=10 n=47 v=64
81984 On ch=10 n=38 v=105
81984 On ch=10 n=42 v=70
81992 Off ch=10 n=38 v=64
81992 Off ch=10 n=42 v=64
82176 On ch=10 n=36 v=100
82176 On ch=10 n=42 v=90
82184 Off ch=10 n=36 v=64
82184 Off ch=10 n=42 v=64
82368 On ch=10 n=42 v=70
82376 Off ch=10 n=42 v=64
82464 On ch=10 n=47 v=90
82472 Off ch=10 n=47 v=64
82560 On ch=10 n=50 v=90
82560 On ch=10 n=42 v=90
82568 Off ch=10 n=50 v=64
82568 Off ch=10 n=42 v=64
82656 On ch=10 n=47 v=90
82664 Off ch=10 n=47 v=64
82752 On ch=10 n=38 v=105
82752 On ch=10 n=42 v=70
82760 Off ch=10 n=38 v=64
82760 Off ch=10 n=42 v=64
82944 On ch=10 n=36 v=100
82944 On ch=10 n=42 v=90
82952 Off ch=10 n=36 v=64
82952 Off ch=10 n=42 v=64
83136 On ch=10 n=42 v=70
83144 Off ch=10 n=42 v=64
83232 On ch=10 n=47 v=110
83240 Off ch=10 n=47 v=64
83328 On ch=10 n=50 v=90
83328 On ch=10 n=42 v=90
83336 Off ch=10 n=50 v=64
83336 Off ch=10 n=42 v=64
83424 On ch=10 n=47 v=90
83432 Off ch=10 n=47 v=64
83520 On ch=10 n=38 v=105
83520 On ch=10 n=42 v=70
83528 Off ch=10 n=38 v=64
83528 Off ch=10 n=42 v=64
83712 On ch=10 n=36 v=100
83712 On ch=10 n=42 v=90
83720 Off ch=10 n=36 v=64
83720 Off ch=10 n=42 v=64
83904 On ch=10 n=42 v=70
83912 Off ch=10 n=42 v=64
84000 On ch=10 n=47 v=90
84008 Off ch=10 n=47 v=64
84096 On ch=10 n=50 v=90
84096 On ch=10 n=42 v=90
84104 Off ch=10 n=50 v=64
84104 Off ch=10 n=42 v=64
84192 On ch=10 n=47 v=90
84200 Off ch=10 n=47 v=64
84288 On ch=10 n=38 v=105
84288 On ch=10 n=42 v=70
84296 Off ch=10 n=38 v=64
84296 Off ch=10 n=42 v=64
84480 On ch=10 n=36 v=100
84480 On ch=10 n=42 v=90
84488 Off ch=10 n=36 v=64
84488 Off ch=10 n=42 v=64
84672 On ch=10 n=47 v=90
84672 On ch=10 n=42 v=70
84680 Off ch=10 n=47 v=64
84680 Off ch=10 n=42 v=64
84768 On ch=10 n=50 v=90
84776 Off ch=10 n=50 v=64
84864 On ch=10 n=47 v=90
84864 On ch=10 n=42 v=90
84872 Off ch=10 n=47 v=64
84872 Off ch=10 n=42 v=64
84960 On ch=10 n=50 v=115
84968 Off ch=10 n=50 v=64
85056 On ch=10 n=38 v=105
85056 On ch=10 n=42 v=70
85064 Off ch=10 n=38 v=64
85064 Off ch=10 n=42 v=64
85248 On ch=10 n=36 v=100
85248 On ch=10 n=44 v=100
85256 Off ch=10 n=36 v=64
85256 Off ch=10 n=44 v=64
85536 On ch=10 n=41 v=110
85544 Off ch=10 n=41 v=64
85632 On ch=10 n=41 v=110
85640 Off ch=10 n=41 v=64
85728 On ch=10 n=41 v=110
85736 Off ch=10 n=41 v=64
85824 On ch=10 n=38 v=100
85832 Off ch=10 n=38 v=64
85920 On ch=10 n=41 v=110
85928 Off ch=10 n=41 v=64
86016 On ch=10 n=49 v=100
86016 On ch=10 n=36 v=90
86024 Off ch=10 n=49 v=64
86024 Off ch=10 n=36 v=64
86208 On ch=10 n=42 v=70
86216 Off ch=10 n=42 v=64
86400 On ch=10 n=38 v=100
86400 On ch=10 n=42 v=80
86408 Off ch=10 n=38 v=64
86408 Off ch=10 n=42 v=64
86592 On ch=10 n=42 v=70
86600 Off ch=10 n=42 v=64
86784 On ch=10 n=36 v=90
86784 On ch=10 n=42 v=90
86792 Off ch=10 n=36 v=64
86792 Off ch=10 n=42 v=64
86976 On ch=10 n=36 v=80
86976 On ch=10 n=42 v=70
86984 Off ch=10 n=36 v=64
86984 Off ch=10 n=42 v=64
87168 On ch=10 n=38 v=100
87168 On ch=10 n=42 v=80
87176 Off ch=10 n=38 v=64
87176 Off ch=10 n=42 v=64
87360 On ch=10 n=42 v=70
87368 Off ch=10 n=42 v=64
87552 On ch=10 n=42 v=90
87552 On ch=10 n=36 v=90
87560 Off ch=10 n=42 v=64
87560 Off ch=10 n=36 v=64
87744 On ch=10 n=42 v=70
87752 Off ch=10 n=42 v=64
87936 On ch=10 n=38 v=100
87936 On ch=10 n=44 v=90
87944 Off ch=10 n=38 v=64
87944 Off ch=10 n=44 v=64
88128 On ch=10 n=42 v=70
88136 Off ch=10 n=42 v=64
88320 On ch=10 n=36 v=90
88320 On ch=10 n=42 v=90
88328 Off ch=10 n=36 v=64
88328 Off ch=10 n=42 v=64
88512 On ch=10 n=42 v=70
88520 Off ch=10 n=42 v=64
88704 On ch=10 n=38 v=100
88704 On ch=10 n=44 v=65
88712 Off ch=10 n=38 v=64
88712 Off ch=10 n=44 v=64
88896 On ch=10 n=42 v=70
88904 Off ch=10 n=42 v=64
89088 On ch=10 n=42 v=90
89088 On ch=10 n=36 v=90
89096 Off ch=10 n=42 v=64
89096 Off ch=10 n=36 v=64
89280 On ch=10 n=36 v=80
89280 On ch=10 n=42 v=70
89288 Off ch=10 n=36 v=64
89288 Off ch=10 n=42 v=64
89472 On ch=10 n=38 v=100
89472 On ch=10 n=44 v=90
89480 Off ch=10 n=38 v=64
89480 Off ch=10 n=44 v=64
89664 On ch=10 n=42 v=70
89672 Off ch=10 n=42 v=64
89760 On ch=10 n=38 v=90
89768 Off ch=10 n=38 v=64
89856 On ch=10 n=36 v=90
89856 On ch=10 n=42 v=90
89864 Off ch=10 n=36 v=64
89864 Off ch=10 n=42 v=64
90048 On ch=10 n=42 v=70
90056 Off ch=10 n=42 v=64
90240 On ch=10 n=38 v=100
90240 On ch=10 n=44 v=65
90248 Off ch=10 n=38 v=64
90248 Off ch=10 n=44 v=64
90432 On ch=10 n=42 v=70
90440 Off ch=10 n=42 v=64
90528 On ch=10 n=38 v=90
90536 Off ch=10 n=38 v=64
90624 On ch=10 n=42 v=90
90624 On ch=10 n=36 v=90
90632 Off ch=10 n=42 v=64
90632 Off ch=10 n=36 v=64
90816 On ch=10 n=42 v=70
90824 Off ch=10 n=42 v=64
91008 On ch=10 n=38 v=100
91008 On ch=10 n=44 v=80
91016 Off ch=10 n=38 v=64
91016 Off ch=10 n=44 v=64
91200 On ch=10 n=42 v=70
91208 Off ch=10 n=42 v=64
91296 On ch=10 n=38 v=90
91304 Off ch=10 n=38 v=64
91392 On ch=10 n=36 v=90
91392 On ch=10 n=44 v=65
91400 Off ch=10 n=36 v=64
91400 Off ch=10 n=44 v=64
91584 On ch=10 n=38 v=100
91592 Off ch=10 n=38 v=64
91680 On ch=10 n=41 v=110
91688 Off ch=10 n=41 v=64
91776 On ch=10 n=41 v=110
91784 Off ch=10 n=41 v=64
91872 On ch=10 n=41 v=110
91880 Off ch=10 n=41 v=64
91968 On ch=10 n=38 v=100
91976 Off ch=10 n=38 v=64
92064 On ch=10 n=41 v=110
92072 Off ch=10 n=41 v=64
92160 On ch=10 n=49 v=100
92160 On ch=10 n=36 v=90
92168 Off ch=10 n=49 v=64
92168 Off ch=10 n=36 v=64
92352 On ch=10 n=42 v=70
92360 Off ch=10 n=42 v=64
92544 On ch=10 n=38 v=100
92544 On ch=10 n=44 v=80
92552 Off ch=10 n=38 v=64
92552 Off ch=10 n=44 v=64
92736 On ch=10 n=42 v=70
92744 Off ch=10 n=42 v=64
92832 On ch=10 n=38 v=90
92840 Off ch=10 n=38 v=64
92928 On ch=10 n=36 v=90
92928 On ch=10 n=42 v=90
92936 Off ch=10 n=36 v=64
92936 Off ch=10 n=42 v=64
93120 On ch=10 n=42 v=70
93128 Off ch=10 n=42 v=64
93312 On ch=10 n=38 v=100
93312 On ch=10 n=44 v=65
93320 Off ch=10 n=38 v=64
93320 Off ch=10 n=44 v=64
93504 On ch=10 n=42 v=70
93512 Off ch=10 n=42 v=64
93600 On ch=10 n=38 v=90
93608 Off ch=10 n=38 v=64
93696 On ch=10 n=42 v=90
93696 On ch=10 n=36 v=90
93704 Off ch=10 n=42 v=64
93704 Off ch=10 n=36 v=64
93888 On ch=10 n=42 v=70
93896 Off ch=10 n=42 v=64
94080 On ch=10 n=38 v=100
94080 On ch=10 n=44 v=80
94088 Off ch=10 n=38 v=64
94088 Off ch=10 n=44 v=64
94272 On ch=10 n=42 v=70
94280 Off ch=10 n=42 v=64
94368 On ch=10 n=38 v=90
94376 Off ch=10 n=38 v=64
94464 On ch=10 n=36 v=90
94464 On ch=10 n=42 v=90
94472 Off ch=10 n=36 v=64
94472 Off ch=10 n=42 v=64
94656 On ch=10 n=42 v=70
94664 Off ch=10 n=42 v=64
94848 On ch=10 n=38 v=100
94848 On ch=10 n=44 v=65
94856 Off ch=10 n=38 v=64
94856 Off ch=10 n=44 v=64
95040 On ch=10 n=42 v=70
95048 Off ch=10 n=42 v=64
95232 On ch=10 n=42 v=90
95232 On ch=10 n=36 v=90
95240 Off ch=10 n=42 v=64
95240 Off ch=10 n=36 v=64
95424 On ch=10 n=42 v=70
95432 Off ch=10 n=42 v=64
95616 On ch=10 n=38 v=100
95616 On ch=10 n=42 v=80
95624 Off ch=10 n=38 v=64
95624 Off ch=10 n=42 v=64
95808 On ch=10 n=42 v=70
95816 Off ch=10 n=42 v=64
96000 On ch=10 n=36 v=90
96000 On ch=10 n=42 v=90
96008 Off ch=10 n=36 v=64
96008 Off ch=10 n=42 v=64
96192 On ch=10 n=36 v=80
96192 On ch=10 n=42 v=70
96200 Off ch=10 n=36 v=64
96200 Off ch=10 n=42 v=64
96384 On ch=10 n=38 v=100
96384 On ch=10 n=42 v=80
96392 Off ch=10 n=38 v=64
96392 Off ch=10 n=42 v=64
96576 On ch=10 n=42 v=70
96584 Off ch=10 n=42 v=64
96768 On ch=10 n=36 v=100
96768 On ch=10 n=42 v=90
96776 Off ch=10 n=36 v=64
96776 Off ch=10 n=42 v=64
96960 On ch=10 n=51 v=90
96968 Off ch=10 n=51 v=64
97152 On ch=10 n=38 v=100
97160 Off ch=10 n=38 v=64
97344 On ch=10 n=51 v=60
97352 Off ch=10 n=51 v=64
97536 On ch=10 n=36 v=100
97536 On ch=10 n=42 v=100
97544 Off ch=10 n=36 v=64
97544 Off ch=10 n=42 v=64
97728 On ch=10 n=38 v=60
97736 Off ch=10 n=38 v=64
97744 On ch=10 n=38 v=80
97752 Off ch=10 n=38 v=64
97760 On ch=10 n=38 v=100
97768 Off ch=10 n=38 v=64
97824 On ch=10 n=50 v=105
97832 Off ch=10 n=50 v=64
97920 On ch=10 n=38 v=100
97928 Off ch=10 n=38 v=64
98016 On ch=10 n=50 v=105
98024 Off ch=10 n=50 v=64
98112 On ch=10 n=47 v=105
98120 Off ch=10 n=47 v=64
98208 On ch=10 n=38 v=100
98216 Off ch=10 n=38 v=64
98304 On ch=10 n=36 v=100
98304 On ch=10 n=42 v=90
98312 Off ch=10 n=36 v=64
98312 Off ch=10 n=42 v=64
98496 On ch=10 n=51 v=90
98504 Off ch=10 n=51 v=64
98688 On ch=10 n=38 v=100
98696 Off ch=10 n=38 v=64
98880 On ch=10 n=51 v=60
98888 Off ch=10 n=51 v=64
99072 On ch=10 n=36 v=100
99072 On ch=10 n=42 v=90
99080 Off ch=10 n=36 v=64
99080 Off ch=10 n=42 v=64
99264 On ch=10 n=51 v=90
99272 Off ch=10 n=51 v=64
99456 On ch=10 n=38 v=100
99464 Off ch=10 n=38 v=64
99648 On ch=10 n=51 v=60
99656 Off ch=10 n=51 v=64
99840 On ch=10 n=36 v=100
99840 On ch=10 n=42 v=90
99848 Off ch=10 n=36 v=64
99848 Off ch=10 n=42 v=64
100032 On ch=10 n=42 v=70
100040 Off ch=10 n=42 v=64
100128 On ch=10 n=42 v=70
100136 Off ch=10 n=42 v=64
100224 On ch=10 n=38 v=100
100224 On ch=10 n=42 v=90
100232 Off ch=10 n=38 v=64
100232 Off ch=10 n=42 v=64
100320 On ch=10 n=42 v=70
100328 Off ch=10 n=42 v=64
100416 On ch=10 n=42 v=70
100424 Off ch=10 n=42 v=64
100608 On ch=10 n=36 v=100
100608 On ch=10 n=49 v=100
100616 Off ch=10 n=36 v=64
100616 Off ch=10 n=49 v=64
100800 On ch=10 n=38 v=80
100808 Off ch=10 n=38 v=64
100816 On ch=10 n=38 v=100
100824 Off ch=10 n=38 v=64
100896 On ch=10 n=50 v=105
100904 Off ch=10 n=50 v=64
100992 On ch=10 n=38 v=100
101000 Off ch=10 n=38 v=64
101088 On ch=10 n=50 v=105
101096 Off ch=10 n=50 v=64
101184 On ch=10 n=38 v=100
101192 Off ch=10 n=38 v=64
101280 On ch=10 n=50 v=105
101288 Off ch=10 n=50 v=64
101376 On ch=10 n=36 v=100
101376 On ch=10 n=51 v=90
101384 Off ch=10 n=36 v=64
101384 Off ch=10 n=51 v=64
101568 On ch=10 n=51 v=90
101576 Off ch=10 n=51 v=64
101760 On ch=10 n=38 v=100
101768 Off ch=10 n=38 v=64
101952 On ch=10 n=51 v=60
101960 Off ch=10 n=51 v=64
102144 On ch=10 n=36 v=100
102144 On ch=10 n=44 v=90
102152 Off ch=10 n=36 v=64
102152 Off ch=10 n=44 v=64
102336 On ch=10 n=51 v=90
102344 Off ch=10 n=51 v=64
102528 On ch=10 n=38 v=100
102536 Off ch=10 n=38 v=64
102720 On ch=10 n=51 v=60
102728 Off ch=10 n=51 v=64
102912 On ch=10 n=36 v=100
102912 On ch=10 n=42 v=90
102920 Off ch=10 n=36 v=64
102920 Off ch=10 n=42 v=64
103104 On ch=10 n=44 v=70
103112 Off ch=10 n=44 v=64
103296 On ch=10 n=38 v=100
103296 On ch=10 n=42 v=80
103304 Off ch=10 n=38 v=64
103304 Off ch=10 n=42 v=64
103488 On ch=10 n=42 v=70
103496 Off ch=10 n=42 v=64
103680 On ch=10 n=36 v=100
103680 On ch=10 n=42 v=90
103688 Off ch=10 n=36 v=64
103688 Off ch=10 n=42 v=64
103872 On ch=10 n=44 v=70
103880 Off ch=10 n=44 v=64
104064 On ch=10 n=38 v=100
104064 On ch=10 n=42 v=70
104072 Off ch=10 n=38 v=64
104072 Off ch=10 n=42 v=64
104160 On ch=10 n=42 v=70
104168 Off ch=10 n=42 v=64
104256 On ch=10 n=44 v=70
104264 Off ch=10 n=44 v=64
104448 On ch=10 n=36 v=100
104448 On ch=10 n=49 v=100
104456 Off ch=10 n=36 v=64
104456 Off ch=10 n=49 v=64
104640 On ch=10 n=47 v=90
104648 Off ch=10 n=47 v=64
104736 On ch=10 n=47 v=95
104744 Off ch=10 n=47 v=64
104832 On ch=10 n=47 v=100
104840 Off ch=10 n=47 v=64
104928 On ch=10 n=47 v=105
104936 Off ch=10 n=47 v=64
105024 On ch=10 n=47 v=110
105032 Off ch=10 n=47 v=64
105120 On ch=10 n=47 v=110
105128 Off ch=10 n=47 v=64
105216 On ch=10 n=36 v=100
105216 On ch=10 n=49 v=100
105224 Off ch=10 n=36 v=64
105224 Off ch=10 n=49 v=64
105408 On ch=10 n=47 v=90
105416 Off ch=10 n=47 v=64
105504 On ch=10 n=47 v=95
105512 Off ch=10 n=47 v=64
105600 On ch=10 n=47 v=100
105608 Off ch=10 n=47 v=64
105696 On ch=10 n=47 v=105
105704 Off ch=10 n=47 v=64
105792 On ch=10 n=47 v=110
105800 Off ch=10 n=47 v=64
105888 On ch=10 n=47 v=110
105896 Off ch=10 n=47 v=64
105984 On ch=10 n=36 v=100
105984 On ch=10 n=49 v=105
105992 Off ch=10 n=36 v=64
105992 Off ch=10 n=49 v=64
106176 On ch=10 n=41 v=100
106184 Off ch=10 n=41 v=64
106272 On ch=10 n=41 v=110
106280 Off ch=10 n=41 v=64
106368 On ch=10 n=36 v=100
106368 On ch=10 n=49 v=105
106376 Off ch=10 n=36 v=64
106376 Off ch=10 n=49 v=64
106560 On ch=10 n=41 v=100
106568 Off ch=10 n=41 v=64
106656 On ch=10 n=41 v=110
106664 Off ch=10 n=41 v=64
106752 On ch=10 n=49 v=110
106752 On ch=10 n=36 v=110
106752 On ch=10 n=41 v=110
106760 Off ch=10 n=49 v=64
106760 Off ch=10 n=36 v=64
106760 Off ch=10 n=41 v=64
107520 Par ch=10 c=7 v=96
107904 Par ch=10 c=7 v=96
107904 Meta TrkEnd
TrkEnd
MTrk
0 KeySig 0 major
0 Meta TrkEnd
TrkEnd
MTrk
0 KeySig 0 major
0 Meta TrkEnd
TrkEnd
MTrk
0 KeySig 0 major
0 Meta TrkEnd
TrkEnd
