MFile 1 18 192
MTrk
0 TimeSig 4/4 24 8
0 Tempo 810810
0 KeySig 0 major
0 Meta Text "BEATLES' HEY JUDE."
0 Meta Text "Sequenced for the Roland MT-32/CM-32L/CM-64/LAPC-1 & Compatibles."
0 Meta Text "Want More? Call Power Windows BBS 205-881-8619"
22272 TimeSig 2/4 24 8
22656 TimeSig 4/4 24 8
38016 TimeSig 2/4 24 8
38400 TimeSig 4/4 24 8
38400 Meta TrkEnd
TrkEnd
MTrk
0 Meta 0x21 00
0 Meta TrkName "===================="
0 Meta TrkEnd
TrkEnd
MTrk
0 Meta 0x21 00
0 Meta TrkName "Beatles' \"Hey Jude\" "
0 Meta TrkEnd
TrkEnd
MTrk
0 Meta 0x21 00
0 Meta TrkName "sequenced by        "
0 Meta TrkEnd
TrkEnd
MTrk
0 Meta 0x21 00
0 Meta TrkName "Norma Williams for  "
0 Meta TrkEnd
TrkEnd
MTrk
0 Meta 0x21 00
0 Meta TrkName "the Roland MT-32,   "
0 Meta TrkEnd
TrkEnd
MTrk
0 Meta 0x21 00
0 Meta TrkName "LAPC-1 & Compatibles"
0 Meta TrkEnd
TrkEnd
MTrk
0 Meta 0x21 00
0 Meta TrkName "Want more? Call:    "
0 Meta TrkEnd
TrkEnd
MTrk
0 Meta 0x21 00
0 Meta TrkName "Power Windows BBS   "
0 Meta TrkEnd
TrkEnd
MTrk
0 Meta 0x21 00
0 Meta TrkName "205-881-8619        "
0 Meta TrkEnd
TrkEnd
MTrk
0 Meta 0x21 00
0 Meta TrkName "-.\\\\.               "
0 Meta TrkEnd
TrkEnd
MTrk
0 Meta 0x21 00
0 Meta TrkName "===================="
0 Meta TrkEnd
TrkEnd
MTrk
0 Meta 0x21 00
0 Meta TrkName "Vocals              "
0 PrCh ch=2 p=60
0 Par ch=2 c=7 v=109
0 Par ch=2 c=10 v=64
0 Par ch=2 c=1 v=0
0 Pb ch=2 v=8192
0 Par ch=2 c=64 v=0
24 Par ch=2 c=1 v=1
48 Par ch=2 c=1 v=2
72 Par ch=2 c=1 v=3
96 Par ch=2 c=1 v=5
120 Par ch=2 c=1 v=7
144 Par ch=2 c=1 v=10
168 Par ch=2 c=1 v=35
192 Par ch=2 c=7 v=109
576 On ch=2 n=72 v=79
768 Off ch=2 n=72 v=64
768 On ch=2 n=69 v=79
1248 Off ch=2 n=69 v=64
1248 On ch=2 n=69 v=79
1344 Off ch=2 n=69 v=64
1344 On ch=2 n=72 v=79
1440 Off ch=2 n=72 v=64
1440 On ch=2 n=74 v=79
1536 Off ch=2 n=74 v=64
1536 On ch=2 n=67 v=79
1920 Off ch=2 n=67 v=64
2112 On ch=2 n=67 v=79
2208 Off ch=2 n=67 v=64
2208 On ch=2 n=69 v=79
2304 Off ch=2 n=69 v=64
2304 On ch=2 n=70 v=79
2432 Off ch=2 n=70 v=64
2496 On ch=2 n=77 v=79
2752 Off ch=2 n=77 v=64
2784 On ch=2 n=77 v=79
2848 Off ch=2 n=77 v=64
2880 On ch=2 n=76 v=79
2944 Off ch=2 n=76 v=64
2976 On ch=2 n=72 v=79
3040 Off ch=2 n=72 v=64
3072 On ch=2 n=74 v=79
3136 Off ch=2 n=74 v=64
3168 On ch=2 n=72 v=79
3216 Off ch=2 n=72 v=64
3216 On ch=2 n=70 v=79
3264 Off ch=2 n=70 v=64
3264 On ch=2 n=69 v=79
3584 Off ch=2 n=69 v=64
3744 On ch=2 n=72 v=79
3808 Off ch=2 n=72 v=64
3840 On ch=2 n=74 v=79
3904 Off ch=2 n=74 v=64
3936 On ch=2 n=74 v=79
4096 Off ch=2 n=74 v=64
4128 On ch=2 n=74 v=79
4192 Off ch=2 n=74 v=64
4224 On ch=2 n=79 v=79
4256 Off ch=2 n=79 v=64
4272 On ch=2 n=77 v=79
4336 Off ch=2 n=77 v=64
4368 On ch=2 n=76 v=79
4448 Off ch=2 n=76 v=64
4464 On ch=2 n=77 v=79
4496 Off ch=2 n=77 v=64
4512 On ch=2 n=74 v=79
4576 Off ch=2 n=74 v=64
4608 On ch=2 n=72 v=79
4860 Off ch=2 n=72 v=64
4992 On ch=2 n=65 v=79
5056 Off ch=2 n=65 v=64
5088 On ch=2 n=67 v=79
5152 Off ch=2 n=67 v=64
5184 On ch=2 n=69 v=79
5248 Off ch=2 n=69 v=64
5280 On ch=2 n=74 v=79
5376 Off ch=2 n=74 v=64
5376 On ch=2 n=72 v=79
5568 Off ch=2 n=72 v=64
5664 On ch=2 n=72 v=79
5728 Off ch=2 n=72 v=64
5760 On ch=2 n=70 v=79
5824 Off ch=2 n=70 v=64
5856 On ch=2 n=69 v=79
5952 Off ch=2 n=69 v=64
5952 On ch=2 n=64 v=79
6016 Off ch=2 n=64 v=64
6048 On ch=2 n=65 v=79
6112 Off ch=2 n=65 v=64
6144 On ch=2 n=65 v=79
6396 Off ch=2 n=65 v=64
6720 On ch=2 n=72 v=79
6848 Off ch=2 n=72 v=64
6912 On ch=2 n=69 v=79
7360 Off ch=2 n=69 v=64
7392 On ch=2 n=69 v=79
7456 Off ch=2 n=69 v=64
7488 On ch=2 n=72 v=79
7552 Off ch=2 n=72 v=64
7584 On ch=2 n=74 v=79
7648 Off ch=2 n=74 v=64
7680 On ch=2 n=67 v=79
8060 Off ch=2 n=67 v=64
8256 On ch=2 n=67 v=79
8320 Off ch=2 n=67 v=64
8352 On ch=2 n=69 v=79
8416 Off ch=2 n=69 v=64
8448 On ch=2 n=70 v=79
8576 Off ch=2 n=70 v=64
8640 On ch=2 n=77 v=79
8896 Off ch=2 n=77 v=64
8928 On ch=2 n=77 v=79
8992 Off ch=2 n=77 v=64
9024 On ch=2 n=76 v=79
9088 Off ch=2 n=76 v=64
9120 On ch=2 n=72 v=79
9184 Off ch=2 n=72 v=64
9216 On ch=2 n=74 v=79
9280 Off ch=2 n=74 v=64
9312 On ch=2 n=72 v=79
9360 Off ch=2 n=72 v=64
9360 On ch=2 n=70 v=79
9408 Off ch=2 n=70 v=64
9408 On ch=2 n=69 v=79
9728 Off ch=2 n=69 v=64
9888 On ch=2 n=72 v=79
9952 Off ch=2 n=72 v=64
9984 On ch=2 n=74 v=79
10016 Off ch=2 n=74 v=64
10032 On ch=2 n=74 v=79
10064 Off ch=2 n=74 v=64
10272 On ch=2 n=74 v=79
10336 Off ch=2 n=74 v=64
10368 On ch=2 n=79 v=79
10400 Off ch=2 n=79 v=64
10416 On ch=2 n=77 v=79
10480 Off ch=2 n=77 v=64
10512 On ch=2 n=76 v=79
10592 Off ch=2 n=76 v=64
10608 On ch=2 n=77 v=79
10640 Off ch=2 n=77 v=64
10656 On ch=2 n=74 v=79
10720 Off ch=2 n=74 v=64
10752 On ch=2 n=72 v=79
11004 Off ch=2 n=72 v=64
11136 On ch=2 n=65 v=79
11200 Off ch=2 n=65 v=64
11232 On ch=2 n=67 v=79
11296 Off ch=2 n=67 v=64
11328 On ch=2 n=69 v=79
11392 Off ch=2 n=69 v=64
11424 On ch=2 n=74 v=79
11520 Off ch=2 n=74 v=64
11520 On ch=2 n=72 v=79
11712 Off ch=2 n=72 v=64
11808 On ch=2 n=72 v=79
11872 Off ch=2 n=72 v=64
11904 On ch=2 n=70 v=79
11968 Off ch=2 n=70 v=64
12000 On ch=2 n=69 v=79
12096 Off ch=2 n=69 v=64
12096 On ch=2 n=64 v=79
12160 Off ch=2 n=64 v=64
12192 On ch=2 n=65 v=79
12256 Off ch=2 n=65 v=64
12288 On ch=2 n=65 v=79
12540 Off ch=2 n=65 v=64
13200 On ch=2 n=65 v=79
13232 Off ch=2 n=65 v=64
13248 On ch=2 n=77 v=79
13280 Off ch=2 n=77 v=64
13296 On ch=2 n=74 v=79
13360 Off ch=2 n=74 v=64
13392 On ch=2 n=74 v=79
13504 Off ch=2 n=74 v=64
13536 On ch=2 n=72 v=79
13600 Off ch=2 n=72 v=64
13632 On ch=2 n=72 v=79
13696 Off ch=2 n=72 v=64
13728 On ch=2 n=70 v=79
13760 Off ch=2 n=70 v=64
13776 On ch=2 n=74 v=79
13952 Off ch=2 n=74 v=64
14016 On ch=2 n=77 v=79
14080 Off ch=2 n=77 v=64
14112 On ch=2 n=74 v=79
14336 Off ch=2 n=74 v=64
14400 On ch=2 n=77 v=79
14464 Off ch=2 n=77 v=64
14496 On ch=2 n=70 v=79
14784 Off ch=2 n=70 v=64
14784 On ch=2 n=77 v=79
14848 Off ch=2 n=77 v=64
14880 On ch=2 n=74 v=79
14944 Off ch=2 n=74 v=64
14976 On ch=2 n=74 v=79
15040 Off ch=2 n=74 v=64
15072 On ch=2 n=72 v=79
15136 Off ch=2 n=72 v=64
15168 On ch=2 n=70 v=79
15232 Off ch=2 n=70 v=64
15264 On ch=2 n=72 v=79
15488 Off ch=2 n=72 v=64
15552 On ch=2 n=74 v=79
15616 Off ch=2 n=74 v=64
15648 On ch=2 n=72 v=79
15872 Off ch=2 n=72 v=64
15936 On ch=2 n=70 v=79
16000 Off ch=2 n=70 v=64
16032 On ch=2 n=69 v=79
16192 Off ch=2 n=69 v=64
16224 On ch=2 n=67 v=79
16320 Off ch=2 n=67 v=64
16320 On ch=2 n=65 v=79
16640 Off ch=2 n=65 v=64
17040 On ch=2 n=65 v=79
17072 Off ch=2 n=65 v=64
17088 On ch=2 n=77 v=79
17152 Off ch=2 n=77 v=64
17184 On ch=2 n=74 v=79
17216 Off ch=2 n=74 v=64
17232 On ch=2 n=74 v=79
17344 Off ch=2 n=74 v=64
17376 On ch=2 n=72 v=79
17440 Off ch=2 n=72 v=64
17472 On ch=2 n=72 v=79
17536 Off ch=2 n=72 v=64
17568 On ch=2 n=70 v=79
17600 Off ch=2 n=70 v=64
17616 On ch=2 n=74 v=79
17792 Off ch=2 n=74 v=64
17856 On ch=2 n=77 v=79
17920 Off ch=2 n=77 v=64
17952 On ch=2 n=74 v=79
18176 Off ch=2 n=74 v=64
18240 On ch=2 n=77 v=79
18304 Off ch=2 n=77 v=64
18336 On ch=2 n=70 v=79
18624 Off ch=2 n=70 v=64
18624 On ch=2 n=77 v=79
18688 Off ch=2 n=77 v=64
18720 On ch=2 n=74 v=79
18880 Off ch=2 n=74 v=64
18912 On ch=2 n=72 v=79
18976 Off ch=2 n=72 v=64
19008 On ch=2 n=70 v=79
19072 Off ch=2 n=70 v=64
19104 On ch=2 n=72 v=79
19328 Off ch=2 n=72 v=64
19392 On ch=2 n=74 v=79
19456 Off ch=2 n=74 v=64
19488 On ch=2 n=72 v=79
19648 Off ch=2 n=72 v=64
19680 On ch=2 n=70 v=79
19840 Off ch=2 n=70 v=64
19872 On ch=2 n=69 v=79
20112 Off ch=2 n=69 v=64
20112 On ch=2 n=67 v=79
20144 Off ch=2 n=67 v=64
20160 On ch=2 n=65 v=79
20416 Off ch=2 n=65 v=64
20448 On ch=2 n=65 v=79
20512 Off ch=2 n=65 v=64
20544 On ch=2 n=72 v=79
20608 Off ch=2 n=72 v=64
20640 On ch=2 n=74 v=79
20704 Off ch=2 n=74 v=64
20736 On ch=2 n=75 v=79
20880 Off ch=2 n=75 v=64
20880 On ch=2 n=74 v=79
20912 Off ch=2 n=74 v=64
20928 On ch=2 n=75 v=79
21056 Off ch=2 n=75 v=64
21120 On ch=2 n=76 v=79
21184 Off ch=2 n=76 v=64
21216 On ch=2 n=77 v=79
21280 Off ch=2 n=77 v=64
21312 On ch=2 n=79 v=79
21440 Off ch=2 n=79 v=64
21504 On ch=2 n=79 v=79
21756 Off ch=2 n=79 v=64
22464 On ch=2 n=72 v=79
22512 Off ch=2 n=72 v=64
22512 On ch=2 n=74 v=79
22608 Off ch=2 n=74 v=64
22656 On ch=2 n=69 v=79
23104 Off ch=2 n=69 v=64
23136 On ch=2 n=69 v=79
23200 Off ch=2 n=69 v=64
23232 On ch=2 n=72 v=79
23296 Off ch=2 n=72 v=64
23328 On ch=2 n=74 v=79
23392 Off ch=2 n=74 v=64
23424 On ch=2 n=67 v=79
23804 Off ch=2 n=67 v=64
24000 On ch=2 n=67 v=79
24064 Off ch=2 n=67 v=64
24096 On ch=2 n=69 v=79
24160 Off ch=2 n=69 v=64
24192 On ch=2 n=70 v=79
24320 Off ch=2 n=70 v=64
24384 On ch=2 n=77 v=79
24640 Off ch=2 n=77 v=64
24672 On ch=2 n=77 v=79
24736 Off ch=2 n=77 v=64
24768 On ch=2 n=76 v=79
24832 Off ch=2 n=76 v=64
24864 On ch=2 n=72 v=79
24928 Off ch=2 n=72 v=64
24960 On ch=2 n=74 v=79
25024 Off ch=2 n=74 v=64
25056 On ch=2 n=72 v=79
25104 Off ch=2 n=72 v=64
25104 On ch=2 n=70 v=79
25152 Off ch=2 n=70 v=64
25152 On ch=2 n=69 v=79
25472 Off ch=2 n=69 v=64
25632 On ch=2 n=72 v=79
25696 Off ch=2 n=72 v=64
25728 On ch=2 n=74 v=79
25760 Off ch=2 n=74 v=64
25776 On ch=2 n=74 v=79
25808 Off ch=2 n=74 v=64
26016 On ch=2 n=74 v=79
26080 Off ch=2 n=74 v=64
26112 On ch=2 n=79 v=79
26144 Off ch=2 n=79 v=64
26160 On ch=2 n=77 v=79
26224 Off ch=2 n=77 v=64
26256 On ch=2 n=76 v=79
26336 Off ch=2 n=76 v=64
26352 On ch=2 n=77 v=79
26384 Off ch=2 n=77 v=64
26400 On ch=2 n=74 v=79
26464 Off ch=2 n=74 v=64
26496 On ch=2 n=72 v=79
26748 Off ch=2 n=72 v=64
26880 On ch=2 n=65 v=79
26944 Off ch=2 n=65 v=64
26976 On ch=2 n=67 v=79
27040 Off ch=2 n=67 v=64
27072 On ch=2 n=69 v=79
27136 Off ch=2 n=69 v=64
27168 On ch=2 n=74 v=79
27264 Off ch=2 n=74 v=64
27264 On ch=2 n=72 v=79
27456 Off ch=2 n=72 v=64
27552 On ch=2 n=72 v=79
27616 Off ch=2 n=72 v=64
27648 On ch=2 n=70 v=79
27712 Off ch=2 n=70 v=64
27744 On ch=2 n=69 v=79
27840 Off ch=2 n=69 v=64
27840 On ch=2 n=64 v=79
27904 Off ch=2 n=64 v=64
27936 On ch=2 n=65 v=79
28000 Off ch=2 n=65 v=64
28032 On ch=2 n=65 v=79
28284 Off ch=2 n=65 v=64
28944 On ch=2 n=65 v=79
28976 Off ch=2 n=65 v=64
28992 On ch=2 n=77 v=79
29024 Off ch=2 n=77 v=64
29040 On ch=2 n=74 v=79
29104 Off ch=2 n=74 v=64
29136 On ch=2 n=74 v=79
29248 Off ch=2 n=74 v=64
29280 On ch=2 n=72 v=79
29344 Off ch=2 n=72 v=64
29376 On ch=2 n=72 v=79
29440 Off ch=2 n=72 v=64
29472 On ch=2 n=70 v=79
29504 Off ch=2 n=70 v=64
29520 On ch=2 n=74 v=79
29696 Off ch=2 n=74 v=64
29760 On ch=2 n=77 v=79
29824 Off ch=2 n=77 v=64
29856 On ch=2 n=74 v=79
30080 Off ch=2 n=74 v=64
30144 On ch=2 n=77 v=79
30208 Off ch=2 n=77 v=64
30240 On ch=2 n=70 v=79
30528 Off ch=2 n=70 v=64
30528 On ch=2 n=77 v=79
30592 Off ch=2 n=77 v=64
30624 On ch=2 n=74 v=79
30688 Off ch=2 n=74 v=64
30720 On ch=2 n=74 v=79
30784 Off ch=2 n=74 v=64
30816 On ch=2 n=72 v=79
30880 Off ch=2 n=72 v=64
30912 On ch=2 n=70 v=79
30976 Off ch=2 n=70 v=64
31008 On ch=2 n=72 v=79
31232 Off ch=2 n=72 v=64
31296 On ch=2 n=74 v=79
31360 Off ch=2 n=74 v=64
31392 On ch=2 n=72 v=79
31616 Off ch=2 n=72 v=64
31680 On ch=2 n=70 v=79
31744 Off ch=2 n=70 v=64
31776 On ch=2 n=69 v=79
31936 Off ch=2 n=69 v=64
31968 On ch=2 n=67 v=79
32064 Off ch=2 n=67 v=64
32064 On ch=2 n=65 v=79
32384 Off ch=2 n=65 v=64
32784 On ch=2 n=65 v=79
32816 Off ch=2 n=65 v=64
32832 On ch=2 n=77 v=79
32896 Off ch=2 n=77 v=64
32928 On ch=2 n=79 v=79
32960 Off ch=2 n=79 v=64
32976 On ch=2 n=82 v=79
33088 Off ch=2 n=82 v=64
33120 On ch=2 n=77 v=79
33184 Off ch=2 n=77 v=64
33216 On ch=2 n=79 v=79
33280 Off ch=2 n=79 v=64
33312 On ch=2 n=79 v=79
33344 Off ch=2 n=79 v=64
33360 On ch=2 n=77 v=79
33456 Off ch=2 n=77 v=64
33456 On ch=2 n=74 v=79
33552 Off ch=2 n=74 v=64
33600 On ch=2 n=77 v=79
33664 Off ch=2 n=77 v=64
33696 On ch=2 n=74 v=79
33920 Off ch=2 n=74 v=64
33984 On ch=2 n=79 v=79
34048 Off ch=2 n=79 v=64
34080 On ch=2 n=74 v=79
34128 Off ch=2 n=74 v=64
34128 On ch=2 n=72 v=79
34176 Off ch=2 n=72 v=64
34176 On ch=2 n=70 v=79
34368 Off ch=2 n=70 v=64
34368 On ch=2 n=77 v=79
34432 Off ch=2 n=77 v=64
34464 On ch=2 n=74 v=79
34624 Off ch=2 n=74 v=64
34656 On ch=2 n=72 v=79
34720 Off ch=2 n=72 v=64
34752 On ch=2 n=70 v=79
34816 Off ch=2 n=70 v=64
34848 On ch=2 n=72 v=79
35072 Off ch=2 n=72 v=64
35136 On ch=2 n=74 v=79
35200 Off ch=2 n=74 v=64
35232 On ch=2 n=72 v=79
35392 Off ch=2 n=72 v=64
35424 On ch=2 n=70 v=79
35584 Off ch=2 n=70 v=64
35616 On ch=2 n=69 v=79
35856 Off ch=2 n=69 v=64
35856 On ch=2 n=67 v=79
35888 Off ch=2 n=67 v=64
35904 On ch=2 n=65 v=79
36160 Off ch=2 n=65 v=64
36192 On ch=2 n=65 v=79
36256 Off ch=2 n=65 v=64
36288 On ch=2 n=72 v=79
36352 Off ch=2 n=72 v=64
36384 On ch=2 n=74 v=79
36448 Off ch=2 n=74 v=64
36480 On ch=2 n=75 v=79
36624 Off ch=2 n=75 v=64
36624 On ch=2 n=74 v=79
36656 Off ch=2 n=74 v=64
36672 On ch=2 n=75 v=79
36800 Off ch=2 n=75 v=64
36864 On ch=2 n=76 v=79
36928 Off ch=2 n=76 v=64
36960 On ch=2 n=77 v=79
37024 Off ch=2 n=77 v=64
37056 On ch=2 n=79 v=79
37184 Off ch=2 n=79 v=64
37248 On ch=2 n=79 v=79
37500 Off ch=2 n=79 v=64
38208 On ch=2 n=72 v=79
38256 Off ch=2 n=72 v=64
38256 On ch=2 n=74 v=79
38320 Off ch=2 n=74 v=64
38352 On ch=2 n=77 v=79
38400 Off ch=2 n=77 v=64
38400 On ch=2 n=72 v=79
38448 Off ch=2 n=72 v=64
38448 On ch=2 n=74 v=79
38496 Off ch=2 n=74 v=64
38496 On ch=2 n=72 v=79
38544 Off ch=2 n=72 v=64
38544 On ch=2 n=67 v=79
38592 Off ch=2 n=67 v=64
38592 On ch=2 n=69 v=79
38880 Off ch=2 n=69 v=64
38880 On ch=2 n=69 v=79
38976 Off ch=2 n=69 v=64
38976 On ch=2 n=72 v=79
39072 Off ch=2 n=72 v=64
39072 On ch=2 n=74 v=79
39168 Off ch=2 n=74 v=64
39168 On ch=2 n=67 v=79
39552 Off ch=2 n=67 v=64
39744 On ch=2 n=67 v=79
39840 Off ch=2 n=67 v=64
39840 On ch=2 n=69 v=79
39936 Off ch=2 n=69 v=64
39936 On ch=2 n=70 v=79
40064 Off ch=2 n=70 v=64
40128 On ch=2 n=77 v=79
40384 Off ch=2 n=77 v=64
40416 On ch=2 n=77 v=79
40480 Off ch=2 n=77 v=64
40512 On ch=2 n=76 v=79
40576 Off ch=2 n=76 v=64
40608 On ch=2 n=72 v=79
40672 Off ch=2 n=72 v=64
40704 On ch=2 n=74 v=79
40768 Off ch=2 n=74 v=64
40800 On ch=2 n=72 v=79
40848 Off ch=2 n=72 v=64
40848 On ch=2 n=70 v=79
40896 Off ch=2 n=70 v=64
40896 On ch=2 n=69 v=79
41216 Off ch=2 n=69 v=64
41376 On ch=2 n=72 v=79
41440 Off ch=2 n=72 v=64
41472 On ch=2 n=74 v=79
41536 Off ch=2 n=74 v=64
41568 On ch=2 n=74 v=79
41728 Off ch=2 n=74 v=64
41760 On ch=2 n=74 v=79
41824 Off ch=2 n=74 v=64
41856 On ch=2 n=79 v=79
41888 Off ch=2 n=79 v=64
41904 On ch=2 n=77 v=79
41968 Off ch=2 n=77 v=64
42000 On ch=2 n=76 v=79
42080 Off ch=2 n=76 v=64
42096 On ch=2 n=77 v=79
42128 Off ch=2 n=77 v=64
42144 On ch=2 n=74 v=79
42208 Off ch=2 n=74 v=64
42240 On ch=2 n=72 v=79
42492 Off ch=2 n=72 v=64
42624 On ch=2 n=65 v=79
42688 Off ch=2 n=65 v=64
42720 On ch=2 n=67 v=79
42784 Off ch=2 n=67 v=64
42816 On ch=2 n=69 v=79
42880 Off ch=2 n=69 v=64
42912 On ch=2 n=74 v=79
43008 Off ch=2 n=74 v=64
43008 On ch=2 n=72 v=79
43136 Off ch=2 n=72 v=64
43296 On ch=2 n=72 v=79
43360 Off ch=2 n=72 v=64
43392 On ch=2 n=70 v=79
43456 Off ch=2 n=70 v=64
43488 On ch=2 n=69 v=79
43648 Off ch=2 n=69 v=64
43680 On ch=2 n=64 v=79
43840 Off ch=2 n=64 v=64
43872 On ch=2 n=65 v=79
43936 Off ch=2 n=65 v=64
43968 On ch=2 n=68 v=79
44032 Off ch=2 n=68 v=64
44064 On ch=2 n=69 v=79
44128 Off ch=2 n=69 v=64
44160 On ch=2 n=71 v=79
44224 Off ch=2 n=71 v=64
44256 On ch=2 n=72 v=79
44320 Off ch=2 n=72 v=64
44352 On ch=2 n=76 v=79
44416 Off ch=2 n=76 v=64
44448 On ch=2 n=77 v=79
44512 Off ch=2 n=77 v=64
44544 On ch=2 n=80 v=79
44608 Off ch=2 n=80 v=64
44640 On ch=2 n=81 v=79
44704 Off ch=2 n=81 v=64
44736 On ch=2 n=83 v=79
44800 Off ch=2 n=83 v=64
44832 On ch=2 n=84 v=79
44896 Off ch=2 n=84 v=64
44928 On ch=2 n=89 v=79
45180 Off ch=2 n=89 v=64
45312 On ch=2 n=65 v=79
45564 Off ch=2 n=65 v=64
45696 On ch=2 n=69 v=79
45824 Off ch=2 n=69 v=64
45888 On ch=2 n=72 v=79
46016 Off ch=2 n=72 v=64
46080 On ch=2 n=79 v=79
46112 Off ch=2 n=79 v=64
46128 On ch=2 n=77 v=79
46160 Off ch=2 n=77 v=64
46176 On ch=2 n=79 v=79
46240 Off ch=2 n=79 v=64
46272 On ch=2 n=77 v=79
46716 Off ch=2 n=77 v=64
46848 On ch=2 n=79 v=79
46880 Off ch=2 n=79 v=64
46896 On ch=2 n=77 v=79
46928 Off ch=2 n=77 v=64
46944 On ch=2 n=79 v=79
47008 Off ch=2 n=79 v=64
47040 On ch=2 n=77 v=79
47360 Off ch=2 n=77 v=64
47424 On ch=2 n=75 v=79
47520 Off ch=2 n=75 v=64
47520 On ch=2 n=74 v=79
47584 Off ch=2 n=74 v=64
47616 On ch=2 n=72 v=79
48124 Off ch=2 n=72 v=64
48384 On ch=2 n=65 v=79
48636 Off ch=2 n=65 v=64
48768 On ch=2 n=69 v=79
48896 Off ch=2 n=69 v=64
48960 On ch=2 n=72 v=79
49088 Off ch=2 n=72 v=64
49152 On ch=2 n=79 v=79
49184 Off ch=2 n=79 v=64
49200 On ch=2 n=77 v=79
49232 Off ch=2 n=77 v=64
49248 On ch=2 n=79 v=79
49312 Off ch=2 n=79 v=64
49344 On ch=2 n=77 v=79
49788 Off ch=2 n=77 v=64
49920 On ch=2 n=79 v=79
49952 Off ch=2 n=79 v=64
49968 On ch=2 n=77 v=79
50000 Off ch=2 n=77 v=64
50016 On ch=2 n=79 v=79
50080 Off ch=2 n=79 v=64
50112 On ch=2 n=77 v=79
50432 Off ch=2 n=77 v=64
50496 On ch=2 n=75 v=79
50592 Off ch=2 n=75 v=64
50592 On ch=2 n=74 v=79
50656 Off ch=2 n=74 v=64
50688 On ch=2 n=72 v=79
51196 Off ch=2 n=72 v=64
51456 On ch=2 n=65 v=79
51708 Off ch=2 n=65 v=64
51840 On ch=2 n=69 v=79
51968 Off ch=2 n=69 v=64
52032 On ch=2 n=72 v=79
52160 Off ch=2 n=72 v=64
52224 On ch=2 n=79 v=79
52256 Off ch=2 n=79 v=64
52272 On ch=2 n=77 v=79
52304 Off ch=2 n=77 v=64
52320 On ch=2 n=79 v=79
52384 Off ch=2 n=79 v=64
52416 On ch=2 n=77 v=79
52860 Off ch=2 n=77 v=64
52992 On ch=2 n=79 v=79
53024 Off ch=2 n=79 v=64
53040 On ch=2 n=77 v=79
53072 Off ch=2 n=77 v=64
53088 On ch=2 n=79 v=79
53152 Off ch=2 n=79 v=64
53184 On ch=2 n=77 v=79
53504 Off ch=2 n=77 v=64
53568 On ch=2 n=75 v=79
53664 Off ch=2 n=75 v=64
53664 On ch=2 n=74 v=79
53728 Off ch=2 n=74 v=64
53760 On ch=2 n=72 v=79
54268 Off ch=2 n=72 v=64
54528 On ch=2 n=65 v=79
54780 Off ch=2 n=65 v=64
54912 On ch=2 n=69 v=79
55040 Off ch=2 n=69 v=64
55104 On ch=2 n=72 v=79
55232 Off ch=2 n=72 v=64
55296 Par ch=2 c=7 v=96
55296 On ch=2 n=79 v=79
55328 Off ch=2 n=79 v=64
55344 On ch=2 n=77 v=79
55376 Off ch=2 n=77 v=64
55392 Par ch=2 c=7 v=95
55392 On ch=2 n=79 v=79
55456 Off ch=2 n=79 v=64
55488 Par ch=2 c=7 v=94
55488 On ch=2 n=77 v=79
55560 Par ch=2 c=7 v=93
55656 Par ch=2 c=7 v=92
55752 Par ch=2 c=7 v=91
55824 Par ch=2 c=7 v=90
55920 Par ch=2 c=7 v=89
55932 Off ch=2 n=77 v=64
56016 Par ch=2 c=7 v=88
56064 On ch=2 n=79 v=79
56088 Par ch=2 c=7 v=87
56096 Off ch=2 n=79 v=64
56112 On ch=2 n=77 v=79
56144 Off ch=2 n=77 v=64
56160 On ch=2 n=79 v=79
56184 Par ch=2 c=7 v=86
56224 Off ch=2 n=79 v=64
56256 On ch=2 n=77 v=79
56280 Par ch=2 c=7 v=85
56352 Par ch=2 c=7 v=84
56448 Par ch=2 c=7 v=83
56544 Par ch=2 c=7 v=82
56576 Off ch=2 n=77 v=64
56616 Par ch=2 c=7 v=81
56640 On ch=2 n=75 v=79
56712 Par ch=2 c=7 v=80
56736 Off ch=2 n=75 v=64
56736 On ch=2 n=74 v=79
56800 Off ch=2 n=74 v=64
56808 Par ch=2 c=7 v=79
56832 On ch=2 n=72 v=79
56880 Par ch=2 c=7 v=78
56976 Par ch=2 c=7 v=77
57072 Par ch=2 c=7 v=76
57144 Par ch=2 c=7 v=75
57240 Par ch=2 c=7 v=74
57336 Par ch=2 c=7 v=73
57340 Off ch=2 n=72 v=64
57408 Par ch=2 c=7 v=72
57504 Par ch=2 c=7 v=71
57600 Par ch=2 c=7 v=70
57600 On ch=2 n=65 v=79
57672 Par ch=2 c=7 v=69
57768 Par ch=2 c=7 v=68
57852 Off ch=2 n=65 v=64
57864 Par ch=2 c=7 v=67
57936 Par ch=2 c=7 v=66
57984 On ch=2 n=69 v=79
58032 Par ch=2 c=7 v=65
58112 Off ch=2 n=69 v=64
58128 Par ch=2 c=7 v=64
58176 On ch=2 n=72 v=79
58200 Par ch=2 c=7 v=63
58296 Par ch=2 c=7 v=62
58304 Off ch=2 n=72 v=64
58368 On ch=2 n=79 v=79
58392 Par ch=2 c=7 v=61
58400 Off ch=2 n=79 v=64
58416 On ch=2 n=77 v=79
58448 Off ch=2 n=77 v=64
58464 Par ch=2 c=7 v=60
58464 On ch=2 n=79 v=79
58528 Off ch=2 n=79 v=64
58560 Par ch=2 c=7 v=59
58560 On ch=2 n=77 v=79
58656 Par ch=2 c=7 v=58
58728 Par ch=2 c=7 v=57
58824 Par ch=2 c=7 v=56
58920 Par ch=2 c=7 v=55
58992 Par ch=2 c=7 v=54
59004 Off ch=2 n=77 v=64
59088 Par ch=2 c=7 v=53
59136 On ch=2 n=79 v=79
59168 Off ch=2 n=79 v=64
59184 Par ch=2 c=7 v=52
59184 On ch=2 n=77 v=79
59216 Off ch=2 n=77 v=64
59232 On ch=2 n=79 v=79
59256 Par ch=2 c=7 v=51
59296 Off ch=2 n=79 v=64
59328 On ch=2 n=77 v=79
59352 Par ch=2 c=7 v=50
59448 Par ch=2 c=7 v=49
59520 Par ch=2 c=7 v=48
59616 Par ch=2 c=7 v=47
59648 Off ch=2 n=77 v=64
59712 Par ch=2 c=7 v=46
59712 On ch=2 n=75 v=79
59784 Par ch=2 c=7 v=45
59808 Off ch=2 n=75 v=64
59808 On ch=2 n=74 v=79
59872 Off ch=2 n=74 v=64
59880 Par ch=2 c=7 v=44
59904 On ch=2 n=72 v=79
59976 Par ch=2 c=7 v=43
60048 Par ch=2 c=7 v=42
60144 Par ch=2 c=7 v=41
60240 Par ch=2 c=7 v=40
60312 Par ch=2 c=7 v=39
60408 Par ch=2 c=7 v=38
60412 Off ch=2 n=72 v=64
60504 Par ch=2 c=7 v=37
60576 Par ch=2 c=7 v=36
60672 Par ch=2 c=7 v=35
60672 On ch=2 n=65 v=79
60768 Par ch=2 c=7 v=34
60840 Par ch=2 c=7 v=33
60924 Off ch=2 n=65 v=64
60936 Par ch=2 c=7 v=32
61032 Par ch=2 c=7 v=31
61056 On ch=2 n=69 v=79
61104 Par ch=2 c=7 v=30
61184 Off ch=2 n=69 v=64
61200 Par ch=2 c=7 v=29
61248 On ch=2 n=72 v=79
61296 Par ch=2 c=7 v=28
61368 Par ch=2 c=7 v=27
61376 Off ch=2 n=72 v=64
61440 On ch=2 n=79 v=79
61464 Par ch=2 c=7 v=26
61472 Off ch=2 n=79 v=64
61488 On ch=2 n=77 v=79
61520 Off ch=2 n=77 v=64
61536 On ch=2 n=79 v=79
61560 Par ch=2 c=7 v=25
61600 Off ch=2 n=79 v=64
61632 Par ch=2 c=7 v=24
61632 On ch=2 n=77 v=79
61728 Par ch=2 c=7 v=23
61824 Par ch=2 c=7 v=22
61896 Par ch=2 c=7 v=21
61992 Par ch=2 c=7 v=20
62076 Off ch=2 n=77 v=64
62088 Par ch=2 c=7 v=19
62160 Par ch=2 c=7 v=18
62208 On ch=2 n=79 v=79
62240 Off ch=2 n=79 v=64
62256 Par ch=2 c=7 v=17
62256 On ch=2 n=77 v=79
62288 Off ch=2 n=77 v=64
62304 On ch=2 n=79 v=79
62352 Par ch=2 c=7 v=16
62368 Off ch=2 n=79 v=64
62400 On ch=2 n=77 v=79
62424 Par ch=2 c=7 v=15
62520 Par ch=2 c=7 v=14
62616 Par ch=2 c=7 v=13
62688 Par ch=2 c=7 v=12
62720 Off ch=2 n=77 v=64
62784 Par ch=2 c=7 v=11
62784 On ch=2 n=75 v=79
62880 Off ch=2 n=75 v=64
62880 Par ch=2 c=7 v=10
62880 On ch=2 n=74 v=79
62944 Off ch=2 n=74 v=64
62952 Par ch=2 c=7 v=9
62976 On ch=2 n=72 v=79
63048 Par ch=2 c=7 v=8
63144 Par ch=2 c=7 v=7
63216 Par ch=2 c=7 v=6
63312 Par ch=2 c=7 v=5
63408 Par ch=2 c=7 v=4
63480 Par ch=2 c=7 v=3
63484 Off ch=2 n=72 v=64
63576 Par ch=2 c=7 v=2
63672 Par ch=2 c=7 v=1
63672 Meta TrkEnd
TrkEnd
MTrk
0 Meta 0x21 00
0 Meta TrkName "1st Track           "
0 PrCh ch=3 p=1
0 Par ch=3 c=7 v=96
0 Par ch=3 c=10 v=45
0 Pb ch=3 v=8192
0 Par ch=3 c=1 v=0
0 Par ch=3 c=64 v=0
576 On ch=3 n=72 v=79
704 Off ch=3 n=72 v=64
768 On ch=3 n=69 v=79
1216 Off ch=3 n=69 v=64
1248 On ch=3 n=69 v=79
1312 Off ch=3 n=69 v=64
1344 On ch=3 n=72 v=79
1408 Off ch=3 n=72 v=64
1440 On ch=3 n=74 v=79
1504 Off ch=3 n=74 v=64
1536 On ch=3 n=67 v=79
1916 Off ch=3 n=67 v=64
2112 On ch=3 n=67 v=79
2176 Off ch=3 n=67 v=64
2208 On ch=3 n=69 v=79
2272 Off ch=3 n=69 v=64
2304 On ch=3 n=70 v=79
2432 Off ch=3 n=70 v=64
2496 On ch=3 n=77 v=79
2752 Off ch=3 n=77 v=64
2784 On ch=3 n=77 v=79
2848 Off ch=3 n=77 v=64
2880 On ch=3 n=76 v=79
2944 Off ch=3 n=76 v=64
2976 On ch=3 n=72 v=79
3040 Off ch=3 n=72 v=64
3072 On ch=3 n=74 v=79
3136 Off ch=3 n=74 v=64
3168 On ch=3 n=72 v=79
3200 Off ch=3 n=72 v=64
3216 On ch=3 n=70 v=79
3248 Off ch=3 n=70 v=64
3264 On ch=3 n=69 v=79
3584 Off ch=3 n=69 v=64
3744 On ch=3 n=72 v=79
3808 Off ch=3 n=72 v=64
3840 On ch=3 n=74 v=79
3904 Off ch=3 n=74 v=64
3936 On ch=3 n=74 v=79
4096 Off ch=3 n=74 v=64
4128 On ch=3 n=74 v=79
4192 Off ch=3 n=74 v=64
4224 On ch=3 n=79 v=79
4256 Off ch=3 n=79 v=64
4272 On ch=3 n=77 v=79
4336 Off ch=3 n=77 v=64
4368 On ch=3 n=76 v=79
4448 Off ch=3 n=76 v=64
4464 On ch=3 n=77 v=79
4496 Off ch=3 n=77 v=64
4512 On ch=3 n=74 v=79
4576 Off ch=3 n=74 v=64
4608 On ch=3 n=72 v=79
4860 Off ch=3 n=72 v=64
4992 On ch=3 n=65 v=79
5056 Off ch=3 n=65 v=64
5088 On ch=3 n=67 v=79
5152 Off ch=3 n=67 v=64
5184 On ch=3 n=69 v=79
5248 Off ch=3 n=69 v=64
5280 On ch=3 n=74 v=79
5344 Off ch=3 n=74 v=64
5376 On ch=3 n=72 v=79
5568 Off ch=3 n=72 v=64
5664 On ch=3 n=72 v=79
5728 Off ch=3 n=72 v=64
5760 On ch=3 n=70 v=79
5824 Off ch=3 n=70 v=64
5856 On ch=3 n=69 v=79
5952 Off ch=3 n=69 v=64
5952 On ch=3 n=64 v=79
6016 Off ch=3 n=64 v=64
6048 On ch=3 n=65 v=79
6112 Off ch=3 n=65 v=64
6144 On ch=3 n=65 v=79
6396 Off ch=3 n=65 v=64
6720 On ch=3 n=72 v=79
6848 Off ch=3 n=72 v=64
6912 On ch=3 n=69 v=79
7360 Off ch=3 n=69 v=64
7392 On ch=3 n=69 v=79
7456 Off ch=3 n=69 v=64
7488 On ch=3 n=72 v=79
7552 Off ch=3 n=72 v=64
7584 On ch=3 n=74 v=79
7648 Off ch=3 n=74 v=64
7680 On ch=3 n=67 v=79
8060 Off ch=3 n=67 v=64
8256 On ch=3 n=67 v=79
8320 Off ch=3 n=67 v=64
8352 On ch=3 n=69 v=79
8416 Off ch=3 n=69 v=64
8448 On ch=3 n=70 v=79
8576 Off ch=3 n=70 v=64
8640 On ch=3 n=77 v=79
8896 Off ch=3 n=77 v=64
8928 On ch=3 n=77 v=79
8992 Off ch=3 n=77 v=64
9024 On ch=3 n=76 v=79
9088 Off ch=3 n=76 v=64
9120 On ch=3 n=72 v=79
9184 Off ch=3 n=72 v=64
9216 On ch=3 n=74 v=79
9280 Off ch=3 n=74 v=64
9312 On ch=3 n=72 v=79
9344 Off ch=3 n=72 v=64
9360 On ch=3 n=70 v=79
9392 Off ch=3 n=70 v=64
9408 On ch=3 n=69 v=79
9728 Off ch=3 n=69 v=64
9888 On ch=3 n=72 v=79
9952 Off ch=3 n=72 v=64
9984 On ch=3 n=74 v=79
10016 Off ch=3 n=74 v=64
10032 On ch=3 n=74 v=79
10064 Off ch=3 n=74 v=64
10272 On ch=3 n=74 v=79
10336 Off ch=3 n=74 v=64
10368 On ch=3 n=79 v=79
10400 Off ch=3 n=79 v=64
10416 On ch=3 n=77 v=79
10480 Off ch=3 n=77 v=64
10512 On ch=3 n=76 v=79
10592 Off ch=3 n=76 v=64
10608 On ch=3 n=77 v=79
10640 Off ch=3 n=77 v=64
10656 On ch=3 n=74 v=79
10720 Off ch=3 n=74 v=64
10752 On ch=3 n=72 v=79
11004 Off ch=3 n=72 v=64
11136 On ch=3 n=65 v=79
11200 Off ch=3 n=65 v=64
11232 On ch=3 n=67 v=79
11296 Off ch=3 n=67 v=64
11328 On ch=3 n=69 v=79
11392 Off ch=3 n=69 v=64
11424 On ch=3 n=74 v=79
11488 Off ch=3 n=74 v=64
11520 On ch=3 n=72 v=79
11712 Off ch=3 n=72 v=64
11808 On ch=3 n=72 v=79
11872 Off ch=3 n=72 v=64
11904 On ch=3 n=70 v=79
11968 Off ch=3 n=70 v=64
12000 On ch=3 n=69 v=79
12064 Off ch=3 n=69 v=64
12096 On ch=3 n=64 v=79
12160 Off ch=3 n=64 v=64
12192 On ch=3 n=65 v=79
12256 Off ch=3 n=65 v=64
12288 On ch=3 n=65 v=79
12540 Off ch=3 n=65 v=64
12864 On ch=3 n=65 v=95
12928 Off ch=3 n=65 v=64
12960 On ch=3 n=64 v=95
13056 Off ch=3 n=64 v=64
13056 On ch=3 n=63 v=95
13200 On ch=3 n=65 v=95
13232 Off ch=3 n=65 v=64
13248 Off ch=3 n=63 v=64
13248 On ch=3 n=77 v=79
13280 Off ch=3 n=77 v=64
13296 On ch=3 n=74 v=79
13360 Off ch=3 n=74 v=64
13392 On ch=3 n=74 v=79
13504 Off ch=3 n=74 v=64
13536 On ch=3 n=72 v=79
13600 Off ch=3 n=72 v=64
13632 On ch=3 n=72 v=79
13696 Off ch=3 n=72 v=64
13728 On ch=3 n=70 v=79
13760 Off ch=3 n=70 v=64
13776 On ch=3 n=74 v=79
13952 Off ch=3 n=74 v=64
14016 On ch=3 n=77 v=79
14080 Off ch=3 n=77 v=64
14112 On ch=3 n=74 v=79
14336 Off ch=3 n=74 v=64
14400 On ch=3 n=77 v=79
14464 Off ch=3 n=77 v=64
14496 On ch=3 n=70 v=79
14720 Off ch=3 n=70 v=64
14784 On ch=3 n=77 v=79
14848 Off ch=3 n=77 v=64
14880 On ch=3 n=74 v=79
15040 Off ch=3 n=74 v=64
15072 On ch=3 n=72 v=79
15136 Off ch=3 n=72 v=64
15168 On ch=3 n=70 v=79
15232 Off ch=3 n=70 v=64
15264 On ch=3 n=72 v=79
15488 Off ch=3 n=72 v=64
15552 On ch=3 n=74 v=79
15616 Off ch=3 n=74 v=64
15648 On ch=3 n=72 v=79
15872 Off ch=3 n=72 v=64
15936 On ch=3 n=70 v=79
16000 Off ch=3 n=70 v=64
16032 On ch=3 n=69 v=79
16192 Off ch=3 n=69 v=64
16224 On ch=3 n=67 v=79
16288 Off ch=3 n=67 v=64
16320 On ch=3 n=65 v=79
16640 Off ch=3 n=65 v=64
16704 On ch=3 n=65 v=95
16768 Off ch=3 n=65 v=64
16800 On ch=3 n=64 v=95
16864 Off ch=3 n=64 v=64
16896 On ch=3 n=63 v=95
16992 Off ch=3 n=63 v=64
17040 On ch=3 n=65 v=95
17072 Off ch=3 n=65 v=64
17088 On ch=3 n=77 v=79
17152 Off ch=3 n=77 v=64
17184 On ch=3 n=74 v=79
17216 Off ch=3 n=74 v=64
17232 On ch=3 n=74 v=79
17344 Off ch=3 n=74 v=64
17376 On ch=3 n=72 v=79
17440 Off ch=3 n=72 v=64
17472 On ch=3 n=72 v=79
17536 Off ch=3 n=72 v=64
17568 On ch=3 n=70 v=79
17600 Off ch=3 n=70 v=64
17616 On ch=3 n=74 v=79
17792 Off ch=3 n=74 v=64
17856 On ch=3 n=77 v=79
17920 Off ch=3 n=77 v=64
17952 On ch=3 n=74 v=79
18176 Off ch=3 n=74 v=64
18240 On ch=3 n=77 v=79
18304 Off ch=3 n=77 v=64
18336 On ch=3 n=70 v=79
18560 Off ch=3 n=70 v=64
18624 On ch=3 n=77 v=79
18688 Off ch=3 n=77 v=64
18720 On ch=3 n=74 v=79
18880 Off ch=3 n=74 v=64
18912 On ch=3 n=72 v=79
18976 Off ch=3 n=72 v=64
19008 On ch=3 n=70 v=79
19072 Off ch=3 n=70 v=64
19104 On ch=3 n=72 v=79
19328 Off ch=3 n=72 v=64
19392 On ch=3 n=74 v=79
19456 Off ch=3 n=74 v=64
19488 On ch=3 n=72 v=79
19648 Off ch=3 n=72 v=64
19680 On ch=3 n=70 v=79
19840 Off ch=3 n=70 v=64
19872 On ch=3 n=69 v=79
20064 Off ch=3 n=69 v=64
20112 On ch=3 n=67 v=79
20144 Off ch=3 n=67 v=64
20160 On ch=3 n=65 v=79
20416 Off ch=3 n=65 v=64
20448 On ch=3 n=65 v=79
20512 Off ch=3 n=65 v=64
20544 On ch=3 n=72 v=79
20608 Off ch=3 n=72 v=64
20640 On ch=3 n=74 v=79
20704 Off ch=3 n=74 v=64
20736 On ch=3 n=75 v=79
20832 Off ch=3 n=75 v=64
20880 On ch=3 n=74 v=79
20912 Off ch=3 n=74 v=64
20928 On ch=3 n=75 v=79
21056 Off ch=3 n=75 v=64
21120 On ch=3 n=76 v=79
21184 Off ch=3 n=76 v=64
21216 On ch=3 n=77 v=79
21280 Off ch=3 n=77 v=64
21312 On ch=3 n=79 v=79
21440 Off ch=3 n=79 v=64
21504 On ch=3 n=79 v=79
21756 Off ch=3 n=79 v=64
22464 On ch=3 n=72 v=79
22496 Off ch=3 n=72 v=64
22512 On ch=3 n=74 v=79
22608 Off ch=3 n=74 v=64
22656 On ch=3 n=69 v=79
23104 Off ch=3 n=69 v=64
23136 On ch=3 n=69 v=79
23200 Off ch=3 n=69 v=64
23232 On ch=3 n=72 v=79
23296 Off ch=3 n=72 v=64
23328 On ch=3 n=74 v=79
23392 Off ch=3 n=74 v=64
23424 On ch=3 n=67 v=79
23804 Off ch=3 n=67 v=64
24000 On ch=3 n=67 v=79
24064 Off ch=3 n=67 v=64
24096 On ch=3 n=69 v=79
24160 Off ch=3 n=69 v=64
24192 On ch=3 n=70 v=79
24320 Off ch=3 n=70 v=64
24384 On ch=3 n=77 v=79
24640 Off ch=3 n=77 v=64
24672 On ch=3 n=77 v=79
24736 Off ch=3 n=77 v=64
24768 On ch=3 n=76 v=79
24832 Off ch=3 n=76 v=64
24864 On ch=3 n=72 v=79
24928 Off ch=3 n=72 v=64
24960 On ch=3 n=74 v=79
25024 Off ch=3 n=74 v=64
25056 On ch=3 n=72 v=79
25088 Off ch=3 n=72 v=64
25104 On ch=3 n=70 v=79
25136 Off ch=3 n=70 v=64
25152 On ch=3 n=69 v=79
25472 Off ch=3 n=69 v=64
25632 On ch=3 n=72 v=79
25696 Off ch=3 n=72 v=64
25728 On ch=3 n=74 v=79
25760 Off ch=3 n=74 v=64
25776 On ch=3 n=74 v=79
25808 Off ch=3 n=74 v=64
26016 On ch=3 n=74 v=79
26080 Off ch=3 n=74 v=64
26112 On ch=3 n=79 v=79
26144 Off ch=3 n=79 v=64
26160 On ch=3 n=77 v=79
26224 Off ch=3 n=77 v=64
26256 On ch=3 n=76 v=79
26336 Off ch=3 n=76 v=64
26352 On ch=3 n=77 v=79
26384 Off ch=3 n=77 v=64
26400 On ch=3 n=74 v=79
26464 Off ch=3 n=74 v=64
26496 On ch=3 n=72 v=79
26748 Off ch=3 n=72 v=64
26880 On ch=3 n=65 v=79
26944 Off ch=3 n=65 v=64
26976 On ch=3 n=67 v=79
27040 Off ch=3 n=67 v=64
27072 On ch=3 n=69 v=79
27136 Off ch=3 n=69 v=64
27168 On ch=3 n=74 v=79
27232 Off ch=3 n=74 v=64
27264 On ch=3 n=72 v=79
27456 Off ch=3 n=72 v=64
27552 On ch=3 n=72 v=79
27616 Off ch=3 n=72 v=64
27648 On ch=3 n=70 v=79
27712 Off ch=3 n=70 v=64
27744 On ch=3 n=69 v=79
27808 Off ch=3 n=69 v=64
27840 On ch=3 n=64 v=79
27904 Off ch=3 n=64 v=64
27936 On ch=3 n=65 v=79
28000 Off ch=3 n=65 v=64
28032 On ch=3 n=65 v=79
28284 Off ch=3 n=65 v=64
28608 On ch=3 n=65 v=79
28672 Off ch=3 n=65 v=64
28704 On ch=3 n=64 v=79
28768 Off ch=3 n=64 v=64
28800 On ch=3 n=63 v=79
28896 Off ch=3 n=63 v=64
28944 On ch=3 n=65 v=79
28976 Off ch=3 n=65 v=64
28992 On ch=3 n=77 v=79
29024 Off ch=3 n=77 v=64
29040 On ch=3 n=74 v=79
29104 Off ch=3 n=74 v=64
29136 On ch=3 n=74 v=79
29248 Off ch=3 n=74 v=64
29280 On ch=3 n=72 v=79
29344 Off ch=3 n=72 v=64
29376 On ch=3 n=72 v=79
29440 Off ch=3 n=72 v=64
29472 On ch=3 n=70 v=79
29504 Off ch=3 n=70 v=64
29520 On ch=3 n=74 v=79
29696 Off ch=3 n=74 v=64
29760 On ch=3 n=77 v=79
29824 Off ch=3 n=77 v=64
29856 On ch=3 n=74 v=79
30080 Off ch=3 n=74 v=64
30144 On ch=3 n=77 v=79
30208 Off ch=3 n=77 v=64
30240 On ch=3 n=70 v=79
30464 Off ch=3 n=70 v=64
30528 On ch=3 n=77 v=79
30592 Off ch=3 n=77 v=64
30624 On ch=3 n=74 v=79
30784 Off ch=3 n=74 v=64
30816 On ch=3 n=72 v=79
30880 Off ch=3 n=72 v=64
30912 On ch=3 n=70 v=79
30976 Off ch=3 n=70 v=64
31008 On ch=3 n=72 v=79
31232 Off ch=3 n=72 v=64
31296 On ch=3 n=74 v=79
31360 Off ch=3 n=74 v=64
31392 On ch=3 n=72 v=79
31616 Off ch=3 n=72 v=64
31680 On ch=3 n=70 v=79
31744 Off ch=3 n=70 v=64
31776 On ch=3 n=69 v=79
31936 Off ch=3 n=69 v=64
31968 On ch=3 n=67 v=79
32032 Off ch=3 n=67 v=64
32064 On ch=3 n=65 v=79
32384 Off ch=3 n=65 v=64
32448 On ch=3 n=65 v=79
32512 Off ch=3 n=65 v=64
32544 On ch=3 n=64 v=79
32608 Off ch=3 n=64 v=64
32640 On ch=3 n=63 v=79
32736 Off ch=3 n=63 v=64
32784 On ch=3 n=65 v=79
32816 Off ch=3 n=65 v=64
32832 On ch=3 n=77 v=79
32896 Off ch=3 n=77 v=64
32928 On ch=3 n=74 v=79
32960 Off ch=3 n=74 v=64
32976 On ch=3 n=74 v=79
33088 Off ch=3 n=74 v=64
33120 On ch=3 n=72 v=79
33184 Off ch=3 n=72 v=64
33216 On ch=3 n=72 v=79
33280 Off ch=3 n=72 v=64
33312 On ch=3 n=70 v=79
33344 Off ch=3 n=70 v=64
33360 On ch=3 n=74 v=79
33536 Off ch=3 n=74 v=64
33600 On ch=3 n=77 v=79
33664 Off ch=3 n=77 v=64
33696 On ch=3 n=74 v=79
33920 Off ch=3 n=74 v=64
33984 On ch=3 n=79 v=79
34048 Off ch=3 n=79 v=64
34080 On ch=3 n=70 v=79
34304 Off ch=3 n=70 v=64
34368 On ch=3 n=77 v=79
34432 Off ch=3 n=77 v=64
34464 On ch=3 n=74 v=79
34624 Off ch=3 n=74 v=64
34656 On ch=3 n=72 v=79
34720 Off ch=3 n=72 v=64
34752 On ch=3 n=70 v=79
34816 Off ch=3 n=70 v=64
34848 On ch=3 n=72 v=79
35072 Off ch=3 n=72 v=64
35136 On ch=3 n=74 v=79
35200 Off ch=3 n=74 v=64
35232 On ch=3 n=72 v=79
35392 Off ch=3 n=72 v=64
35424 On ch=3 n=70 v=79
35584 Off ch=3 n=70 v=64
35616 On ch=3 n=69 v=79
35808 Off ch=3 n=69 v=64
35856 On ch=3 n=67 v=79
35888 Off ch=3 n=67 v=64
35904 On ch=3 n=65 v=79
36160 Off ch=3 n=65 v=64
36192 On ch=3 n=65 v=79
36256 Off ch=3 n=65 v=64
36288 On ch=3 n=72 v=79
36352 Off ch=3 n=72 v=64
36384 On ch=3 n=74 v=79
36448 Off ch=3 n=74 v=64
36480 On ch=3 n=75 v=79
36576 Off ch=3 n=75 v=64
36624 On ch=3 n=74 v=79
36656 Off ch=3 n=74 v=64
36672 On ch=3 n=75 v=79
36800 Off ch=3 n=75 v=64
36864 On ch=3 n=76 v=79
36928 Off ch=3 n=76 v=64
36960 On ch=3 n=77 v=79
37024 Off ch=3 n=77 v=64
37056 On ch=3 n=79 v=79
37184 Off ch=3 n=79 v=64
37248 On ch=3 n=79 v=79
37500 Off ch=3 n=79 v=64
38208 On ch=3 n=72 v=79
38240 Off ch=3 n=72 v=64
38256 On ch=3 n=74 v=79
38320 Off ch=3 n=74 v=64
38352 On ch=3 n=77 v=79
38384 Off ch=3 n=77 v=64
38400 On ch=3 n=69 v=79
38848 Off ch=3 n=69 v=64
38880 On ch=3 n=69 v=79
38944 Off ch=3 n=69 v=64
38976 On ch=3 n=72 v=79
39040 Off ch=3 n=72 v=64
39072 On ch=3 n=74 v=79
39136 Off ch=3 n=74 v=64
39168 On ch=3 n=67 v=79
39548 Off ch=3 n=67 v=64
39744 On ch=3 n=67 v=79
39808 Off ch=3 n=67 v=64
39840 On ch=3 n=69 v=79
39904 Off ch=3 n=69 v=64
39936 On ch=3 n=70 v=79
40064 Off ch=3 n=70 v=64
40128 On ch=3 n=77 v=79
40384 Off ch=3 n=77 v=64
40416 On ch=3 n=77 v=79
40480 Off ch=3 n=77 v=64
40512 On ch=3 n=76 v=79
40576 Off ch=3 n=76 v=64
40608 On ch=3 n=72 v=79
40672 Off ch=3 n=72 v=64
40704 On ch=3 n=74 v=79
40768 Off ch=3 n=74 v=64
40800 On ch=3 n=72 v=79
40832 Off ch=3 n=72 v=64
40848 On ch=3 n=70 v=79
40880 Off ch=3 n=70 v=64
40896 On ch=3 n=69 v=79
41216 Off ch=3 n=69 v=64
41376 On ch=3 n=72 v=79
41440 Off ch=3 n=72 v=64
41472 On ch=3 n=74 v=79
41536 Off ch=3 n=74 v=64
41568 On ch=3 n=74 v=79
41728 Off ch=3 n=74 v=64
41760 On ch=3 n=74 v=79
41824 Off ch=3 n=74 v=64
41856 On ch=3 n=79 v=79
41888 Off ch=3 n=79 v=64
41904 On ch=3 n=77 v=79
41968 Off ch=3 n=77 v=64
42000 On ch=3 n=76 v=79
42080 Off ch=3 n=76 v=64
42096 On ch=3 n=77 v=79
42128 Off ch=3 n=77 v=64
42144 On ch=3 n=74 v=79
42208 Off ch=3 n=74 v=64
42240 On ch=3 n=72 v=79
42492 Off ch=3 n=72 v=64
42624 On ch=3 n=65 v=79
42688 Off ch=3 n=65 v=64
42720 On ch=3 n=67 v=79
42784 Off ch=3 n=67 v=64
42816 On ch=3 n=69 v=79
42880 Off ch=3 n=69 v=64
42912 On ch=3 n=74 v=79
42976 Off ch=3 n=74 v=64
43008 On ch=3 n=72 v=79
43136 Off ch=3 n=72 v=64
43296 On ch=3 n=72 v=79
43360 Off ch=3 n=72 v=64
43392 On ch=3 n=70 v=79
43456 Off ch=3 n=70 v=64
43488 On ch=3 n=69 v=79
43648 Off ch=3 n=69 v=64
43680 On ch=3 n=64 v=79
43840 Off ch=3 n=64 v=64
43872 On ch=3 n=65 v=79
43936 Off ch=3 n=65 v=64
43968 On ch=3 n=68 v=79
44032 Off ch=3 n=68 v=64
44064 On ch=3 n=69 v=79
44128 Off ch=3 n=69 v=64
44160 On ch=3 n=71 v=79
44224 Off ch=3 n=71 v=64
44256 On ch=3 n=72 v=79
44320 Off ch=3 n=72 v=64
44352 On ch=3 n=76 v=79
44416 Off ch=3 n=76 v=64
44448 On ch=3 n=77 v=79
44512 Off ch=3 n=77 v=64
44544 On ch=3 n=80 v=79
44608 Off ch=3 n=80 v=64
44640 On ch=3 n=81 v=79
44704 Off ch=3 n=81 v=64
44736 On ch=3 n=83 v=79
44800 Off ch=3 n=83 v=64
44832 On ch=3 n=84 v=79
44896 Off ch=3 n=84 v=64
44928 On ch=3 n=89 v=79
45180 Off ch=3 n=89 v=64
45312 Par ch=3 c=7 v=102
45312 On ch=3 n=65 v=79
45336 Par ch=3 c=7 v=102
45564 Off ch=3 n=65 v=64
45696 On ch=3 n=69 v=79
45824 Off ch=3 n=69 v=64
45888 On ch=3 n=72 v=79
46016 Off ch=3 n=72 v=64
46080 On ch=3 n=79 v=79
46112 Off ch=3 n=79 v=64
46128 On ch=3 n=77 v=79
46160 Off ch=3 n=77 v=64
46176 On ch=3 n=79 v=79
46240 Off ch=3 n=79 v=64
46272 On ch=3 n=77 v=79
46716 Off ch=3 n=77 v=64
46848 On ch=3 n=79 v=79
46880 Off ch=3 n=79 v=64
46896 On ch=3 n=77 v=79
46928 Off ch=3 n=77 v=64
46944 On ch=3 n=79 v=79
47008 Off ch=3 n=79 v=64
47040 On ch=3 n=77 v=79
47360 Off ch=3 n=77 v=64
47424 On ch=3 n=75 v=79
47488 Off ch=3 n=75 v=64
47520 On ch=3 n=74 v=79
47584 Off ch=3 n=74 v=64
47616 On ch=3 n=72 v=79
48124 Off ch=3 n=72 v=64
48384 On ch=3 n=65 v=79
48528 On ch=3 n=72 v=79
48576 Off ch=3 n=72 v=64
48576 On ch=3 n=72 v=79
48636 Off ch=3 n=65 v=64
48640 Off ch=3 n=72 v=64
48720 On ch=3 n=72 v=79
48768 Off ch=3 n=72 v=64
48768 On ch=3 n=69 v=79
48768 On ch=3 n=72 v=79
48832 Off ch=3 n=72 v=64
48896 Off ch=3 n=69 v=64
48912 On ch=3 n=72 v=79
48960 Off ch=3 n=72 v=64
48960 On ch=3 n=72 v=79
49152 On ch=3 n=70 v=79
49152 On ch=3 n=79 v=79
49184 Off ch=3 n=79 v=64
49200 On ch=3 n=77 v=79
49232 Off ch=3 n=77 v=64
49248 Off ch=3 n=70 v=64
49248 On ch=3 n=70 v=79
49248 On ch=3 n=79 v=79
49296 Off ch=3 n=70 v=64
49296 On ch=3 n=74 v=79
49312 Off ch=3 n=79 v=64
49344 Off ch=3 n=72 v=64
49344 Off ch=3 n=74 v=64
49344 On ch=3 n=77 v=79
49788 Off ch=3 n=77 v=64
49872 On ch=3 n=77 v=95
49920 Off ch=3 n=77 v=64
49920 On ch=3 n=79 v=79
49952 Off ch=3 n=79 v=64
49968 On ch=3 n=77 v=79
50000 Off ch=3 n=77 v=64
50016 On ch=3 n=79 v=79
50080 Off ch=3 n=79 v=64
50112 On ch=3 n=77 v=79
50432 Off ch=3 n=77 v=64
50448 On ch=3 n=74 v=79
50496 Off ch=3 n=74 v=64
50496 On ch=3 n=75 v=79
50560 Off ch=3 n=75 v=64
50592 On ch=3 n=74 v=79
50640 On ch=3 n=70 v=79
50656 Off ch=3 n=74 v=64
50688 Off ch=3 n=70 v=64
50688 On ch=3 n=72 v=79
51196 Off ch=3 n=72 v=64
51456 On ch=3 n=65 v=79
51708 Off ch=3 n=65 v=64
51792 On ch=3 n=67 v=95
51840 Off ch=3 n=67 v=64
51840 On ch=3 n=69 v=79
51968 Off ch=3 n=69 v=64
51984 On ch=3 n=70 v=79
52032 Off ch=3 n=70 v=64
52032 On ch=3 n=72 v=79
52160 Off ch=3 n=72 v=64
52224 On ch=3 n=79 v=79
52256 Off ch=3 n=79 v=64
52272 On ch=3 n=77 v=79
52304 Off ch=3 n=77 v=64
52320 On ch=3 n=79 v=79
52384 Off ch=3 n=79 v=64
52416 On ch=3 n=77 v=79
52860 Off ch=3 n=77 v=64
52992 On ch=3 n=79 v=79
53024 Off ch=3 n=79 v=64
53040 On ch=3 n=77 v=79
53072 Off ch=3 n=77 v=64
53088 On ch=3 n=79 v=79
53136 On ch=3 n=74 v=79
53152 Off ch=3 n=79 v=64
53184 Off ch=3 n=74 v=64
53184 On ch=3 n=77 v=79
53504 Off ch=3 n=77 v=64
53568 On ch=3 n=75 v=79
53632 Off ch=3 n=75 v=64
53664 On ch=3 n=74 v=79
53728 Off ch=3 n=74 v=64
53760 On ch=3 n=72 v=79
54268 Off ch=3 n=72 v=64
54336 On ch=3 n=72 v=79
54384 Off ch=3 n=72 v=64
54384 On ch=3 n=72 v=79
54432 Off ch=3 n=72 v=64
54432 On ch=3 n=74 v=79
54480 Off ch=3 n=74 v=64
54480 On ch=3 n=76 v=79
54528 Off ch=3 n=76 v=64
54528 On ch=3 n=65 v=79
54528 On ch=3 n=77 v=79
54720 Off ch=3 n=77 v=64
54720 On ch=3 n=77 v=79
54780 Off ch=3 n=65 v=64
54912 Off ch=3 n=77 v=64
54912 On ch=3 n=69 v=79
54912 On ch=3 n=77 v=79
55040 Off ch=3 n=69 v=64
55104 Off ch=3 n=77 v=64
55104 On ch=3 n=72 v=79
55104 On ch=3 n=77 v=79
55232 Off ch=3 n=72 v=64
55296 Par ch=3 c=7 v=102
55296 On ch=3 n=79 v=79
55297 Off ch=3 n=77 v=64
55328 Off ch=3 n=79 v=64
55344 On ch=3 n=77 v=79
55392 Par ch=3 c=7 v=101
55392 On ch=3 n=79 v=79
55456 Off ch=3 n=79 v=64
55464 Par ch=3 c=7 v=100
55488 Off ch=3 n=77 v=64
55488 On ch=3 n=77 v=79
55489 Off ch=3 n=77 v=64
55560 Par ch=3 c=7 v=99
55632 Par ch=3 c=7 v=98
55680 On ch=3 n=77 v=79
55728 Par ch=3 c=7 v=97
55800 Par ch=3 c=7 v=96
55872 Off ch=3 n=77 v=64
55872 On ch=3 n=77 v=79
55896 Par ch=3 c=7 v=95
55968 Par ch=3 c=7 v=94
56064 Par ch=3 c=7 v=93
56064 On ch=3 n=79 v=79
56065 Off ch=3 n=77 v=64
56096 Off ch=3 n=79 v=64
56112 On ch=3 n=77 v=79
56136 Par ch=3 c=7 v=92
56160 On ch=3 n=79 v=79
56208 Par ch=3 c=7 v=91
56224 Off ch=3 n=79 v=64
56256 Off ch=3 n=77 v=64
56256 On ch=3 n=77 v=79
56257 Off ch=3 n=77 v=64
56304 Par ch=3 c=7 v=90
56376 Par ch=3 c=7 v=89
56448 On ch=3 n=77 v=79
56472 Par ch=3 c=7 v=88
56544 Par ch=3 c=7 v=87
56640 Off ch=3 n=77 v=64
56640 Par ch=3 c=7 v=86
56640 On ch=3 n=75 v=79
56640 On ch=3 n=77 v=79
56704 Off ch=3 n=75 v=64
56712 Par ch=3 c=7 v=85
56736 On ch=3 n=74 v=79
56784 Off ch=3 n=77 v=64
56784 On ch=3 n=77 v=79
56800 Off ch=3 n=74 v=64
56808 Par ch=3 c=7 v=84
56832 On ch=3 n=72 v=79
56833 Off ch=3 n=77 v=64
56880 Par ch=3 c=7 v=83
56976 Par ch=3 c=7 v=82
56976 On ch=3 n=76 v=79
57024 Off ch=3 n=72 v=64
57024 Off ch=3 n=76 v=64
57024 On ch=3 n=72 v=79
57024 On ch=3 n=77 v=79
57048 Par ch=3 c=7 v=81
57120 Par ch=3 c=7 v=80
57168 On ch=3 n=76 v=79
57216 Off ch=3 n=72 v=64
57216 Off ch=3 n=77 v=64
57216 Off ch=3 n=76 v=64
57216 Par ch=3 c=7 v=79
57216 On ch=3 n=72 v=79
57216 On ch=3 n=77 v=79
57288 Par ch=3 c=7 v=78
57360 On ch=3 n=76 v=79
57384 Par ch=3 c=7 v=77
57408 Off ch=3 n=72 v=64
57408 Off ch=3 n=77 v=64
57408 Off ch=3 n=76 v=64
57408 On ch=3 n=72 v=79
57408 On ch=3 n=77 v=79
57456 Par ch=3 c=7 v=76
57552 Par ch=3 c=7 v=75
57552 On ch=3 n=65 v=79
57600 Off ch=3 n=65 v=64
57600 On ch=3 n=65 v=79
57624 Par ch=3 c=7 v=74
57720 Par ch=3 c=7 v=73
57792 Par ch=3 c=7 v=72
57852 Off ch=3 n=65 v=64
57864 Par ch=3 c=7 v=71
57936 On ch=3 n=67 v=79
57960 Par ch=3 c=7 v=70
57984 Off ch=3 n=67 v=64
57984 On ch=3 n=69 v=79
58032 Par ch=3 c=7 v=69
58112 Off ch=3 n=69 v=64
58128 Par ch=3 c=7 v=68
58128 On ch=3 n=70 v=79
58176 Off ch=3 n=72 v=64
58176 Off ch=3 n=70 v=64
58176 On ch=3 n=72 v=79
58200 Par ch=3 c=7 v=67
58272 On ch=3 n=74 v=79
58296 Par ch=3 c=7 v=66
58320 Off ch=3 n=74 v=64
58320 On ch=3 n=76 v=79
58368 Off ch=3 n=76 v=64
58368 Par ch=3 c=7 v=65
58368 On ch=3 n=79 v=79
58400 Off ch=3 n=79 v=64
58416 Off ch=3 n=77 v=64
58416 On ch=3 n=77 v=79
58464 Par ch=3 c=7 v=64
58464 On ch=3 n=79 v=79
58528 Off ch=3 n=79 v=64
58536 Par ch=3 c=7 v=63
58560 Off ch=3 n=77 v=64
58560 On ch=3 n=77 v=79
58632 Par ch=3 c=7 v=62
58704 Par ch=3 c=7 v=61
58776 Par ch=3 c=7 v=60
58872 Par ch=3 c=7 v=59
58944 Off ch=3 n=72 v=64
58944 Par ch=3 c=7 v=58
58944 On ch=3 n=72 v=79
58992 Off ch=3 n=72 v=64
58992 On ch=3 n=72 v=79
59040 Off ch=3 n=72 v=64
59040 Par ch=3 c=7 v=57
59040 On ch=3 n=72 v=79
59088 On ch=3 n=74 v=79
59112 Par ch=3 c=7 v=56
59136 Off ch=3 n=74 v=64
59136 On ch=3 n=79 v=79
59168 Off ch=3 n=79 v=64
59184 Off ch=3 n=77 v=64
59184 On ch=3 n=77 v=79
59208 Par ch=3 c=7 v=55
59232 On ch=3 n=79 v=79
59280 Par ch=3 c=7 v=54
59296 Off ch=3 n=79 v=64
59328 Off ch=3 n=77 v=64
59328 On ch=3 n=77 v=79
59376 Par ch=3 c=7 v=53
59448 Par ch=3 c=7 v=52
59520 Par ch=3 c=7 v=51
59616 Par ch=3 c=7 v=50
59616 On ch=3 n=65 v=79
59664 Off ch=3 n=72 v=64
59664 Off ch=3 n=65 v=64
59664 On ch=3 n=72 v=79
59688 Par ch=3 c=7 v=49
59712 On ch=3 n=75 v=79
59776 Off ch=3 n=75 v=64
59784 Par ch=3 c=7 v=48
59808 On ch=3 n=74 v=79
59856 Off ch=3 n=72 v=64
59856 Par ch=3 c=7 v=47
59856 On ch=3 n=72 v=79
59872 Off ch=3 n=74 v=64
59905 Off ch=3 n=72 v=64
59952 Par ch=3 c=7 v=46
60024 Par ch=3 c=7 v=45
60120 Par ch=3 c=7 v=44
60192 Par ch=3 c=7 v=43
60288 Par ch=3 c=7 v=42
60360 Par ch=3 c=7 v=41
60432 Par ch=3 c=7 v=40
60480 On ch=3 n=72 v=79
60528 Par ch=3 c=7 v=39
60528 On ch=3 n=70 v=79
60576 Off ch=3 n=70 v=64
60576 On ch=3 n=69 v=79
60600 Par ch=3 c=7 v=38
60624 Off ch=3 n=69 v=64
60624 On ch=3 n=67 v=79
60672 Off ch=3 n=67 v=64
60672 On ch=3 n=65 v=79
60696 Par ch=3 c=7 v=37
60768 Par ch=3 c=7 v=36
60864 Par ch=3 c=7 v=35
60924 Off ch=3 n=65 v=64
60936 Par ch=3 c=7 v=34
61032 Par ch=3 c=7 v=33
61056 On ch=3 n=69 v=79
61104 Par ch=3 c=7 v=32
61184 Off ch=3 n=69 v=64
61200 Par ch=3 c=7 v=31
61248 Off ch=3 n=72 v=64
61248 On ch=3 n=72 v=79
61272 Par ch=3 c=7 v=30
61344 Par ch=3 c=7 v=29
61440 Par ch=3 c=7 v=28
61440 On ch=3 n=79 v=79
61472 Off ch=3 n=79 v=64
61488 Off ch=3 n=77 v=64
61488 On ch=3 n=77 v=79
61512 Par ch=3 c=7 v=27
61536 On ch=3 n=79 v=79
61600 Off ch=3 n=79 v=64
61608 Par ch=3 c=7 v=26
61632 Off ch=3 n=77 v=64
61632 On ch=3 n=77 v=79
61680 Par ch=3 c=7 v=25
61776 Par ch=3 c=7 v=24
61848 Par ch=3 c=7 v=23
61944 Par ch=3 c=7 v=22
62016 Par ch=3 c=7 v=21
62088 Par ch=3 c=7 v=20
62184 Par ch=3 c=7 v=19
62208 On ch=3 n=79 v=79
62240 Off ch=3 n=79 v=64
62256 Off ch=3 n=77 v=64
62256 Par ch=3 c=7 v=18
62256 On ch=3 n=77 v=79
62304 On ch=3 n=79 v=79
62352 Par ch=3 c=7 v=17
62368 Off ch=3 n=79 v=64
62400 Off ch=3 n=77 v=64
62400 On ch=3 n=77 v=79
62424 Par ch=3 c=7 v=16
62520 Par ch=3 c=7 v=15
62592 Par ch=3 c=7 v=14
62688 Par ch=3 c=7 v=13
62760 Par ch=3 c=7 v=12
62784 On ch=3 n=75 v=79
62848 Off ch=3 n=75 v=64
62856 Par ch=3 c=7 v=11
62880 On ch=3 n=74 v=79
62928 Par ch=3 c=7 v=10
62944 Off ch=3 n=74 v=64
62977 Off ch=3 n=72 v=64
63000 Par ch=3 c=7 v=9
63096 Par ch=3 c=7 v=8
63168 Par ch=3 c=7 v=7
63264 Par ch=3 c=7 v=6
63336 Par ch=3 c=7 v=5
63432 Par ch=3 c=7 v=4
63504 Par ch=3 c=7 v=3
63600 Par ch=3 c=7 v=2
63672 Off ch=3 n=77 v=65
63672 Par ch=3 c=7 v=1
63672 Meta TrkEnd
TrkEnd
MTrk
0 Meta 0x21 00
0 Meta TrkName "2nd Track           "
0 PrCh ch=4 p=1
0 Par ch=4 c=7 v=96
0 Par ch=4 c=10 v=81
0 Pb ch=4 v=8192
0 Par ch=4 c=1 v=0
0 Par ch=4 c=64 v=0
768 On ch=4 n=60 v=79
768 On ch=4 n=57 v=79
768 On ch=4 n=65 v=79
896 Off ch=4 n=60 v=64
896 Off ch=4 n=57 v=64
896 Off ch=4 n=65 v=64
960 On ch=4 n=60 v=79
960 On ch=4 n=57 v=79
960 On ch=4 n=65 v=79
1088 Off ch=4 n=60 v=64
1088 Off ch=4 n=57 v=64
1088 Off ch=4 n=65 v=64
1152 On ch=4 n=60 v=79
1152 On ch=4 n=57 v=79
1152 On ch=4 n=65 v=79
1280 Off ch=4 n=60 v=64
1280 Off ch=4 n=57 v=64
1280 Off ch=4 n=65 v=64
1344 On ch=4 n=65 v=79
1344 On ch=4 n=69 v=79
1472 Off ch=4 n=65 v=64
1472 Off ch=4 n=69 v=64
1536 On ch=4 n=55 v=79
1536 On ch=4 n=60 v=79
1664 Off ch=4 n=55 v=64
1664 Off ch=4 n=60 v=64
1728 On ch=4 n=55 v=79
1728 On ch=4 n=60 v=79
1856 Off ch=4 n=55 v=64
1856 Off ch=4 n=60 v=64
1920 On ch=4 n=55 v=79
1920 On ch=4 n=60 v=79
2048 Off ch=4 n=55 v=64
2048 Off ch=4 n=60 v=64
2112 On ch=4 n=60 v=79
2240 Off ch=4 n=60 v=64
2304 On ch=4 n=64 v=79
2304 On ch=4 n=67 v=79
2432 Off ch=4 n=64 v=64
2432 Off ch=4 n=67 v=64
2496 On ch=4 n=67 v=79
2496 On ch=4 n=70 v=79
2624 Off ch=4 n=67 v=64
2624 Off ch=4 n=70 v=64
2688 On ch=4 n=67 v=79
2688 On ch=4 n=70 v=79
2816 Off ch=4 n=67 v=64
2816 Off ch=4 n=70 v=64
2880 On ch=4 n=67 v=79
2880 On ch=4 n=70 v=79
3008 Off ch=4 n=67 v=64
3008 Off ch=4 n=70 v=64
3072 On ch=4 n=65 v=79
3200 Off ch=4 n=65 v=64
3264 On ch=4 n=60 v=79
3264 On ch=4 n=65 v=79
3392 Off ch=4 n=60 v=64
3392 Off ch=4 n=65 v=64
3456 On ch=4 n=60 v=79
3456 On ch=4 n=65 v=79
3584 Off ch=4 n=60 v=64
3584 Off ch=4 n=65 v=64
3648 On ch=4 n=60 v=79
3648 On ch=4 n=65 v=79
3712 Off ch=4 n=60 v=64
3712 Off ch=4 n=65 v=64
3744 On ch=4 n=65 v=79
3744 On ch=4 n=69 v=79
3808 Off ch=4 n=65 v=64
3808 Off ch=4 n=69 v=64
3840 On ch=4 n=65 v=79
3840 On ch=4 n=70 v=79
3968 Off ch=4 n=65 v=64
3968 Off ch=4 n=70 v=64
4032 On ch=4 n=65 v=79
4032 On ch=4 n=70 v=79
4224 Off ch=4 n=65 v=64
4224 Off ch=4 n=70 v=64
4224 On ch=4 n=76 v=79
4256 Off ch=4 n=76 v=64
4272 On ch=4 n=74 v=79
4336 Off ch=4 n=74 v=64
4368 On ch=4 n=72 v=79
4448 Off ch=4 n=72 v=64
4464 On ch=4 n=74 v=79
4496 Off ch=4 n=74 v=64
4512 On ch=4 n=70 v=79
4576 Off ch=4 n=70 v=64
4608 On ch=4 n=69 v=79
4736 Off ch=4 n=69 v=64
4800 On ch=4 n=65 v=79
4800 On ch=4 n=60 v=79
4800 On ch=4 n=69 v=79
4928 Off ch=4 n=65 v=64
4928 Off ch=4 n=60 v=64
4928 Off ch=4 n=69 v=64
4992 On ch=4 n=57 v=79
4992 On ch=4 n=60 v=79
5120 Off ch=4 n=57 v=64
5120 Off ch=4 n=60 v=64
5184 On ch=4 n=60 v=79
5184 On ch=4 n=65 v=79
5312 Off ch=4 n=60 v=64
5312 Off ch=4 n=65 v=64
5376 On ch=4 n=67 v=79
5376 On ch=4 n=64 v=79
5376 On ch=4 n=70 v=79
5504 Off ch=4 n=67 v=64
5504 Off ch=4 n=64 v=64
5504 Off ch=4 n=70 v=64
5568 On ch=4 n=67 v=79
5568 On ch=4 n=64 v=79
5568 On ch=4 n=70 v=79
5696 Off ch=4 n=67 v=64
5696 Off ch=4 n=64 v=64
5696 Off ch=4 n=70 v=64
5760 On ch=4 n=60 v=79
5760 On ch=4 n=64 v=79
5888 Off ch=4 n=60 v=64
5888 Off ch=4 n=64 v=64
5952 On ch=4 n=58 v=79
6080 Off ch=4 n=58 v=64
6144 On ch=4 n=57 v=79
6144 On ch=4 n=60 v=79
6272 Off ch=4 n=57 v=64
6272 Off ch=4 n=60 v=64
6336 On ch=4 n=57 v=79
6336 On ch=4 n=60 v=79
6464 Off ch=4 n=57 v=64
6464 Off ch=4 n=60 v=64
6528 On ch=4 n=57 v=79
6528 On ch=4 n=60 v=79
6656 Off ch=4 n=57 v=64
6656 Off ch=4 n=60 v=64
6912 On ch=4 n=60 v=79
6912 On ch=4 n=57 v=79
6912 On ch=4 n=65 v=79
7040 Off ch=4 n=60 v=64
7040 Off ch=4 n=57 v=64
7040 Off ch=4 n=65 v=64
7104 On ch=4 n=60 v=79
7104 On ch=4 n=57 v=79
7104 On ch=4 n=65 v=79
7232 Off ch=4 n=60 v=64
7232 Off ch=4 n=57 v=64
7232 Off ch=4 n=65 v=64
7296 On ch=4 n=60 v=79
7296 On ch=4 n=57 v=79
7296 On ch=4 n=65 v=79
7424 Off ch=4 n=60 v=64
7424 Off ch=4 n=57 v=64
7424 Off ch=4 n=65 v=64
7488 On ch=4 n=65 v=79
7488 On ch=4 n=69 v=79
7616 Off ch=4 n=65 v=64
7616 Off ch=4 n=69 v=64
7680 On ch=4 n=55 v=79
7680 On ch=4 n=60 v=79
7808 Off ch=4 n=55 v=64
7808 Off ch=4 n=60 v=64
7872 On ch=4 n=55 v=79
7872 On ch=4 n=60 v=79
8000 Off ch=4 n=55 v=64
8000 Off ch=4 n=60 v=64
8064 On ch=4 n=55 v=79
8064 On ch=4 n=60 v=79
8192 Off ch=4 n=55 v=64
8192 Off ch=4 n=60 v=64
8256 On ch=4 n=60 v=79
8384 Off ch=4 n=60 v=64
8448 On ch=4 n=64 v=79
8448 On ch=4 n=67 v=79
8576 Off ch=4 n=64 v=64
8576 Off ch=4 n=67 v=64
8640 On ch=4 n=67 v=79
8640 On ch=4 n=70 v=79
8768 Off ch=4 n=67 v=64
8768 Off ch=4 n=70 v=64
8832 On ch=4 n=67 v=79
8832 On ch=4 n=70 v=79
8960 Off ch=4 n=67 v=64
8960 Off ch=4 n=70 v=64
9024 On ch=4 n=67 v=79
9024 On ch=4 n=70 v=79
9152 Off ch=4 n=67 v=64
9152 Off ch=4 n=70 v=64
9216 On ch=4 n=65 v=79
9344 Off ch=4 n=65 v=64
9408 On ch=4 n=60 v=79
9408 On ch=4 n=65 v=79
9536 Off ch=4 n=60 v=64
9536 Off ch=4 n=65 v=64
9600 On ch=4 n=60 v=79
9600 On ch=4 n=65 v=79
9728 Off ch=4 n=60 v=64
9728 Off ch=4 n=65 v=64
9792 On ch=4 n=60 v=79
9792 On ch=4 n=65 v=79
9856 Off ch=4 n=60 v=64
9856 Off ch=4 n=65 v=64
9888 On ch=4 n=65 v=79
9888 On ch=4 n=69 v=79
9952 Off ch=4 n=65 v=64
9952 Off ch=4 n=69 v=64
9984 On ch=4 n=65 v=79
9984 On ch=4 n=70 v=79
10112 Off ch=4 n=65 v=64
10112 Off ch=4 n=70 v=64
10176 On ch=4 n=65 v=79
10176 On ch=4 n=70 v=79
10304 Off ch=4 n=65 v=64
10304 Off ch=4 n=70 v=64
10368 On ch=4 n=76 v=79
10400 Off ch=4 n=76 v=64
10416 On ch=4 n=74 v=79
10480 Off ch=4 n=74 v=64
10512 On ch=4 n=72 v=79
10592 Off ch=4 n=72 v=64
10608 On ch=4 n=74 v=79
10640 Off ch=4 n=74 v=64
10656 On ch=4 n=70 v=79
10720 Off ch=4 n=70 v=64
10752 On ch=4 n=69 v=79
10880 Off ch=4 n=69 v=64
10944 On ch=4 n=65 v=79
10944 On ch=4 n=60 v=79
10944 On ch=4 n=69 v=79
11072 Off ch=4 n=65 v=64
11072 Off ch=4 n=60 v=64
11072 Off ch=4 n=69 v=64
11136 On ch=4 n=57 v=79
11136 On ch=4 n=60 v=79
11264 Off ch=4 n=57 v=64
11264 Off ch=4 n=60 v=64
11328 On ch=4 n=60 v=79
11328 On ch=4 n=65 v=79
11456 Off ch=4 n=60 v=64
11456 Off ch=4 n=65 v=64
11520 On ch=4 n=67 v=79
11520 On ch=4 n=64 v=79
11520 On ch=4 n=70 v=79
11648 Off ch=4 n=67 v=64
11648 Off ch=4 n=64 v=64
11648 Off ch=4 n=70 v=64
11712 On ch=4 n=67 v=79
11712 On ch=4 n=64 v=79
11712 On ch=4 n=70 v=79
11840 Off ch=4 n=67 v=64
11840 Off ch=4 n=64 v=64
11840 Off ch=4 n=70 v=64
11904 On ch=4 n=60 v=79
11904 On ch=4 n=64 v=79
12032 Off ch=4 n=60 v=64
12032 Off ch=4 n=64 v=64
12096 On ch=4 n=58 v=79
12224 Off ch=4 n=58 v=64
12288 On ch=4 n=57 v=79
12288 On ch=4 n=60 v=79
12416 Off ch=4 n=57 v=64
12416 Off ch=4 n=60 v=64
12480 On ch=4 n=57 v=79
12480 On ch=4 n=60 v=79
12608 Off ch=4 n=57 v=64
12608 Off ch=4 n=60 v=64
12672 On ch=4 n=57 v=79
12672 On ch=4 n=60 v=79
12800 Off ch=4 n=57 v=64
12800 Off ch=4 n=60 v=64
12864 On ch=4 n=57 v=79
12864 On ch=4 n=60 v=79
12992 Off ch=4 n=57 v=64
12992 Off ch=4 n=60 v=64
13056 On ch=4 n=57 v=79
13056 On ch=4 n=60 v=79
13152 Off ch=4 n=57 v=64
13152 Off ch=4 n=60 v=64
13248 On ch=4 n=69 v=79
13280 Off ch=4 n=69 v=64
13296 On ch=4 n=65 v=79
13360 Off ch=4 n=65 v=64
13392 On ch=4 n=65 v=79
13504 Off ch=4 n=65 v=64
13536 On ch=4 n=63 v=79
13600 Off ch=4 n=63 v=64
13632 On ch=4 n=63 v=79
13696 Off ch=4 n=63 v=64
13728 On ch=4 n=62 v=79
13760 Off ch=4 n=62 v=64
13776 On ch=4 n=65 v=79
13808 Off ch=4 n=65 v=64
13824 On ch=4 n=65 v=79
13824 On ch=4 n=70 v=79
13888 Off ch=4 n=65 v=64
13888 Off ch=4 n=70 v=64
13920 On ch=4 n=65 v=79
13920 On ch=4 n=70 v=79
13984 Off ch=4 n=65 v=64
13984 Off ch=4 n=70 v=64
14016 On ch=4 n=65 v=79
14016 On ch=4 n=70 v=79
14080 Off ch=4 n=65 v=64
14080 Off ch=4 n=70 v=64
14112 On ch=4 n=65 v=79
14112 On ch=4 n=70 v=79
14176 Off ch=4 n=65 v=64
14176 Off ch=4 n=70 v=64
14208 On ch=4 n=65 v=79
14208 On ch=4 n=70 v=79
14272 Off ch=4 n=65 v=64
14272 Off ch=4 n=70 v=64
14304 On ch=4 n=65 v=79
14304 On ch=4 n=70 v=79
14368 Off ch=4 n=65 v=64
14368 Off ch=4 n=70 v=64
14400 On ch=4 n=65 v=79
14400 On ch=4 n=70 v=79
14464 Off ch=4 n=65 v=64
14464 Off ch=4 n=70 v=64
14496 On ch=4 n=62 v=79
14496 On ch=4 n=65 v=79
14560 Off ch=4 n=62 v=64
14560 Off ch=4 n=65 v=64
14592 On ch=4 n=62 v=79
14592 On ch=4 n=65 v=79
14656 Off ch=4 n=62 v=64
14656 Off ch=4 n=65 v=64
14688 On ch=4 n=62 v=79
14688 On ch=4 n=65 v=79
14752 Off ch=4 n=62 v=64
14752 Off ch=4 n=65 v=64
14784 On ch=4 n=65 v=79
14784 On ch=4 n=70 v=79
14848 Off ch=4 n=65 v=64
14848 Off ch=4 n=70 v=64
14880 On ch=4 n=65 v=79
14880 On ch=4 n=70 v=79
14944 Off ch=4 n=65 v=64
14944 Off ch=4 n=70 v=64
14976 On ch=4 n=67 v=79
14976 On ch=4 n=70 v=79
15040 Off ch=4 n=67 v=64
15040 Off ch=4 n=70 v=64
15072 On ch=4 n=62 v=79
15072 On ch=4 n=67 v=79
15136 Off ch=4 n=62 v=64
15136 Off ch=4 n=67 v=64
15168 On ch=4 n=62 v=79
15168 On ch=4 n=67 v=79
15232 Off ch=4 n=62 v=64
15232 Off ch=4 n=67 v=64
15264 On ch=4 n=60 v=79
15264 On ch=4 n=67 v=79
15328 Off ch=4 n=60 v=64
15328 Off ch=4 n=67 v=64
15360 On ch=4 n=60 v=79
15360 On ch=4 n=67 v=79
15424 Off ch=4 n=60 v=64
15424 Off ch=4 n=67 v=64
15456 On ch=4 n=60 v=79
15456 On ch=4 n=67 v=79
15520 Off ch=4 n=60 v=64
15520 Off ch=4 n=67 v=64
15552 On ch=4 n=67 v=79
15552 On ch=4 n=70 v=79
15616 Off ch=4 n=67 v=64
15616 Off ch=4 n=70 v=64
15648 On ch=4 n=67 v=79
15648 On ch=4 n=70 v=79
15712 Off ch=4 n=67 v=64
15712 Off ch=4 n=70 v=64
15744 On ch=4 n=67 v=79
15744 On ch=4 n=64 v=79
15744 On ch=4 n=70 v=79
15808 Off ch=4 n=67 v=64
15808 Off ch=4 n=64 v=64
15808 Off ch=4 n=70 v=64
15840 On ch=4 n=67 v=79
15840 On ch=4 n=64 v=79
15840 On ch=4 n=70 v=79
15904 Off ch=4 n=67 v=64
15904 Off ch=4 n=64 v=64
15904 Off ch=4 n=70 v=64
15936 On ch=4 n=64 v=79
15936 On ch=4 n=67 v=79
16000 Off ch=4 n=64 v=64
16000 Off ch=4 n=67 v=64
16032 On ch=4 n=60 v=79
16032 On ch=4 n=65 v=79
16256 Off ch=4 n=65 v=64
16256 Off ch=4 n=60 v=64
16320 On ch=4 n=57 v=79
16320 On ch=4 n=60 v=79
16448 Off ch=4 n=57 v=64
16448 Off ch=4 n=60 v=64
16512 On ch=4 n=57 v=79
16512 On ch=4 n=60 v=79
16640 Off ch=4 n=57 v=64
16640 Off ch=4 n=60 v=64
16704 On ch=4 n=57 v=79
16704 On ch=4 n=60 v=79
16832 Off ch=4 n=57 v=64
16832 Off ch=4 n=60 v=64
16896 On ch=4 n=57 v=79
16896 On ch=4 n=60 v=79
16992 Off ch=4 n=57 v=64
16992 Off ch=4 n=60 v=64
17088 On ch=4 n=69 v=79
17152 Off ch=4 n=69 v=64
17184 On ch=4 n=65 v=79
17216 Off ch=4 n=65 v=64
17232 On ch=4 n=65 v=79
17344 Off ch=4 n=65 v=64
17376 On ch=4 n=63 v=79
17440 Off ch=4 n=63 v=64
17472 On ch=4 n=62 v=79
17536 Off ch=4 n=62 v=64
17568 On ch=4 n=62 v=79
17600 Off ch=4 n=62 v=64
17616 On ch=4 n=65 v=79
17648 Off ch=4 n=65 v=64
17664 On ch=4 n=65 v=79
17664 On ch=4 n=70 v=79
17728 Off ch=4 n=65 v=64
17728 Off ch=4 n=70 v=64
17760 On ch=4 n=65 v=79
17760 On ch=4 n=70 v=79
17824 Off ch=4 n=65 v=64
17824 Off ch=4 n=70 v=64
17856 On ch=4 n=65 v=79
17856 On ch=4 n=70 v=79
17920 Off ch=4 n=65 v=64
17920 Off ch=4 n=70 v=64
17952 On ch=4 n=65 v=79
17952 On ch=4 n=70 v=79
18016 Off ch=4 n=65 v=64
18016 Off ch=4 n=70 v=64
18048 On ch=4 n=65 v=79
18048 On ch=4 n=70 v=79
18112 Off ch=4 n=65 v=64
18112 Off ch=4 n=70 v=64
18144 On ch=4 n=65 v=79
18144 On ch=4 n=70 v=79
18208 Off ch=4 n=65 v=64
18208 Off ch=4 n=70 v=64
18240 On ch=4 n=65 v=79
18240 On ch=4 n=70 v=79
18304 Off ch=4 n=65 v=64
18304 Off ch=4 n=70 v=64
18336 On ch=4 n=62 v=79
18336 On ch=4 n=65 v=79
18400 Off ch=4 n=62 v=64
18400 Off ch=4 n=65 v=64
18432 On ch=4 n=62 v=79
18432 On ch=4 n=65 v=79
18496 Off ch=4 n=62 v=64
18496 Off ch=4 n=65 v=64
18528 On ch=4 n=62 v=79
18528 On ch=4 n=65 v=79
18592 Off ch=4 n=62 v=64
18592 Off ch=4 n=65 v=64
18624 On ch=4 n=70 v=79
18624 On ch=4 n=74 v=79
18688 Off ch=4 n=70 v=64
18688 Off ch=4 n=74 v=64
18720 On ch=4 n=67 v=79
18720 On ch=4 n=70 v=79
18880 Off ch=4 n=67 v=64
18880 Off ch=4 n=70 v=64
18912 On ch=4 n=69 v=79
18976 Off ch=4 n=69 v=64
19008 On ch=4 n=67 v=79
19072 Off ch=4 n=67 v=64
19104 On ch=4 n=67 v=79
19104 On ch=4 n=70 v=79
19168 Off ch=4 n=67 v=64
19168 Off ch=4 n=70 v=64
19200 On ch=4 n=67 v=79
19200 On ch=4 n=70 v=79
19264 Off ch=4 n=67 v=64
19264 Off ch=4 n=70 v=64
19296 On ch=4 n=67 v=79
19296 On ch=4 n=70 v=79
19360 Off ch=4 n=67 v=64
19360 Off ch=4 n=70 v=64
19392 On ch=4 n=67 v=79
19392 On ch=4 n=70 v=79
19456 Off ch=4 n=67 v=64
19456 Off ch=4 n=70 v=64
19488 On ch=4 n=67 v=79
19488 On ch=4 n=64 v=79
19488 On ch=4 n=70 v=79
19552 Off ch=4 n=67 v=64
19552 Off ch=4 n=64 v=64
19552 Off ch=4 n=70 v=64
19584 On ch=4 n=67 v=79
19584 On ch=4 n=64 v=79
19584 On ch=4 n=70 v=79
19648 Off ch=4 n=67 v=64
19648 Off ch=4 n=64 v=64
19648 Off ch=4 n=70 v=64
19680 On ch=4 n=62 v=79
19680 On ch=4 n=67 v=79
19744 Off ch=4 n=62 v=64
19744 Off ch=4 n=67 v=64
19776 On ch=4 n=64 v=79
19776 On ch=4 n=67 v=79
19840 Off ch=4 n=64 v=64
19840 Off ch=4 n=67 v=64
19872 On ch=4 n=64 v=79
19872 On ch=4 n=67 v=79
19936 Off ch=4 n=64 v=64
19936 Off ch=4 n=67 v=64
19968 On ch=4 n=60 v=79
19968 On ch=4 n=65 v=79
20096 Off ch=4 n=60 v=64
20096 Off ch=4 n=65 v=64
20160 On ch=4 n=57 v=79
20160 On ch=4 n=60 v=79
20288 Off ch=4 n=57 v=64
20288 Off ch=4 n=60 v=64
20352 On ch=4 n=57 v=79
20352 On ch=4 n=60 v=79
20416 Off ch=4 n=57 v=64
20416 Off ch=4 n=60 v=64
20448 On ch=4 n=57 v=79
20448 On ch=4 n=60 v=79
20512 Off ch=4 n=57 v=64
20512 Off ch=4 n=60 v=64
20544 On ch=4 n=65 v=79
20544 On ch=4 n=69 v=79
20608 Off ch=4 n=65 v=64
20608 Off ch=4 n=69 v=64
20640 On ch=4 n=65 v=79
20640 On ch=4 n=70 v=79
20704 Off ch=4 n=65 v=64
20704 Off ch=4 n=70 v=64
20736 On ch=4 n=65 v=79
20736 On ch=4 n=69 v=79
20864 Off ch=4 n=65 v=64
20864 Off ch=4 n=69 v=64
20928 On ch=4 n=69 v=79
20928 On ch=4 n=72 v=79
21056 Off ch=4 n=69 v=64
21056 Off ch=4 n=72 v=64
21120 On ch=4 n=70 v=79
21120 On ch=4 n=72 v=79
21184 Off ch=4 n=70 v=64
21184 Off ch=4 n=72 v=64
21216 On ch=4 n=70 v=79
21216 On ch=4 n=74 v=79
21280 Off ch=4 n=70 v=64
21280 Off ch=4 n=74 v=64
21312 On ch=4 n=70 v=79
21312 On ch=4 n=76 v=79
21440 Off ch=4 n=70 v=64
21440 Off ch=4 n=76 v=64
21504 On ch=4 n=72 v=79
21504 On ch=4 n=70 v=79
21504 On ch=4 n=76 v=79
21632 Off ch=4 n=72 v=64
21632 Off ch=4 n=70 v=64
21632 Off ch=4 n=76 v=64
21696 On ch=4 n=72 v=79
21696 On ch=4 n=70 v=79
21696 On ch=4 n=76 v=79
21792 On ch=4 n=78 v=95
21824 Off ch=4 n=72 v=64
21824 Off ch=4 n=70 v=64
21824 Off ch=4 n=76 v=64
21888 Off ch=4 n=78 v=64
21888 On ch=4 n=76 v=95
21888 On ch=4 n=72 v=95
21888 On ch=4 n=79 v=95
21952 Off ch=4 n=76 v=64
21952 Off ch=4 n=72 v=64
21952 Off ch=4 n=79 v=64
21984 On ch=4 n=77 v=95
21984 On ch=4 n=74 v=95
21984 On ch=4 n=72 v=95
21984 On ch=4 n=81 v=95
22048 Off ch=4 n=77 v=64
22048 Off ch=4 n=74 v=64
22048 Off ch=4 n=72 v=64
22048 Off ch=4 n=81 v=64
22080 On ch=4 n=79 v=95
22080 On ch=4 n=76 v=95
22080 On ch=4 n=72 v=95
22080 On ch=4 n=82 v=95
22208 Off ch=4 n=79 v=64
22208 Off ch=4 n=76 v=64
22208 Off ch=4 n=72 v=64
22208 Off ch=4 n=82 v=64
22272 On ch=4 n=82 v=95
22272 On ch=4 n=79 v=95
22272 On ch=4 n=76 v=95
22272 On ch=4 n=86 v=95
22400 Off ch=4 n=82 v=64
22400 Off ch=4 n=79 v=64
22400 Off ch=4 n=76 v=64
22400 Off ch=4 n=86 v=64
22464 On ch=4 n=67 v=79
22464 On ch=4 n=64 v=79
22464 On ch=4 n=70 v=79
22592 Off ch=4 n=67 v=64
22592 Off ch=4 n=64 v=64
22592 Off ch=4 n=70 v=64
22656 On ch=4 n=60 v=79
22656 On ch=4 n=57 v=79
22656 On ch=4 n=65 v=79
22784 Off ch=4 n=60 v=64
22784 Off ch=4 n=57 v=64
22784 Off ch=4 n=65 v=64
22848 On ch=4 n=60 v=79
22848 On ch=4 n=57 v=79
22848 On ch=4 n=65 v=79
22976 Off ch=4 n=60 v=64
22976 Off ch=4 n=57 v=64
22976 Off ch=4 n=65 v=64
23040 On ch=4 n=60 v=79
23040 On ch=4 n=57 v=79
23040 On ch=4 n=65 v=79
23168 Off ch=4 n=60 v=64
23168 Off ch=4 n=57 v=64
23168 Off ch=4 n=65 v=64
23232 On ch=4 n=65 v=79
23232 On ch=4 n=69 v=79
23360 Off ch=4 n=65 v=64
23360 Off ch=4 n=69 v=64
23424 On ch=4 n=55 v=79
23424 On ch=4 n=60 v=79
23552 Off ch=4 n=55 v=64
23552 Off ch=4 n=60 v=64
23616 On ch=4 n=55 v=79
23616 On ch=4 n=60 v=79
23744 Off ch=4 n=55 v=64
23744 Off ch=4 n=60 v=64
23808 On ch=4 n=55 v=79
23808 On ch=4 n=60 v=79
23936 Off ch=4 n=55 v=64
23936 Off ch=4 n=60 v=64
24000 On ch=4 n=60 v=79
24128 Off ch=4 n=60 v=64
24192 On ch=4 n=64 v=79
24192 On ch=4 n=67 v=79
24320 Off ch=4 n=64 v=64
24320 Off ch=4 n=67 v=64
24384 On ch=4 n=67 v=79
24384 On ch=4 n=70 v=79
24512 Off ch=4 n=67 v=64
24512 Off ch=4 n=70 v=64
24576 On ch=4 n=67 v=79
24576 On ch=4 n=70 v=79
24704 Off ch=4 n=67 v=64
24704 Off ch=4 n=70 v=64
24768 On ch=4 n=67 v=79
24768 On ch=4 n=70 v=79
24896 Off ch=4 n=67 v=64
24896 Off ch=4 n=70 v=64
24960 On ch=4 n=65 v=79
25088 Off ch=4 n=65 v=64
25152 On ch=4 n=60 v=79
25152 On ch=4 n=65 v=79
25280 Off ch=4 n=60 v=64
25280 Off ch=4 n=65 v=64
25344 On ch=4 n=60 v=79
25344 On ch=4 n=65 v=79
25472 Off ch=4 n=60 v=64
25472 Off ch=4 n=65 v=64
25536 On ch=4 n=60 v=79
25536 On ch=4 n=65 v=79
25600 Off ch=4 n=60 v=64
25600 Off ch=4 n=65 v=64
25632 On ch=4 n=65 v=79
25632 On ch=4 n=69 v=79
25696 Off ch=4 n=65 v=64
25696 Off ch=4 n=69 v=64
25728 On ch=4 n=65 v=79
25728 On ch=4 n=70 v=79
25856 Off ch=4 n=65 v=64
25856 Off ch=4 n=70 v=64
25920 On ch=4 n=65 v=79
25920 On ch=4 n=70 v=79
26048 Off ch=4 n=65 v=64
26048 Off ch=4 n=70 v=64
26112 On ch=4 n=76 v=79
26144 Off ch=4 n=76 v=64
26160 On ch=4 n=74 v=79
26224 Off ch=4 n=74 v=64
26256 On ch=4 n=72 v=79
26336 Off ch=4 n=72 v=64
26352 On ch=4 n=74 v=79
26384 Off ch=4 n=74 v=64
26400 On ch=4 n=70 v=79
26464 Off ch=4 n=70 v=64
26496 On ch=4 n=69 v=79
26624 Off ch=4 n=69 v=64
26688 On ch=4 n=65 v=79
26688 On ch=4 n=60 v=79
26688 On ch=4 n=69 v=79
26816 Off ch=4 n=65 v=64
26816 Off ch=4 n=60 v=64
26816 Off ch=4 n=69 v=64
26880 On ch=4 n=57 v=79
26880 On ch=4 n=60 v=79
27008 Off ch=4 n=57 v=64
27008 Off ch=4 n=60 v=64
27072 On ch=4 n=60 v=79
27072 On ch=4 n=65 v=79
27200 Off ch=4 n=60 v=64
27200 Off ch=4 n=65 v=64
27264 On ch=4 n=67 v=79
27264 On ch=4 n=64 v=79
27264 On ch=4 n=70 v=79
27392 Off ch=4 n=67 v=64
27392 Off ch=4 n=64 v=64
27392 Off ch=4 n=70 v=64
27456 On ch=4 n=67 v=79
27456 On ch=4 n=64 v=79
27456 On ch=4 n=70 v=79
27584 Off ch=4 n=67 v=64
27584 Off ch=4 n=64 v=64
27584 Off ch=4 n=70 v=64
27648 On ch=4 n=60 v=79
27648 On ch=4 n=64 v=79
27776 Off ch=4 n=60 v=64
27776 Off ch=4 n=64 v=64
27840 On ch=4 n=58 v=79
27968 Off ch=4 n=58 v=64
28032 On ch=4 n=57 v=79
28032 On ch=4 n=60 v=79
28160 Off ch=4 n=57 v=64
28160 Off ch=4 n=60 v=64
28224 On ch=4 n=57 v=79
28224 On ch=4 n=60 v=79
28352 Off ch=4 n=57 v=64
28352 Off ch=4 n=60 v=64
28416 On ch=4 n=57 v=79
28416 On ch=4 n=60 v=79
28544 Off ch=4 n=57 v=64
28544 Off ch=4 n=60 v=64
28608 On ch=4 n=57 v=79
28608 On ch=4 n=60 v=79
28736 Off ch=4 n=57 v=64
28736 Off ch=4 n=60 v=64
28800 On ch=4 n=57 v=79
28800 On ch=4 n=60 v=79
28896 Off ch=4 n=57 v=64
28896 Off ch=4 n=60 v=64
28992 On ch=4 n=69 v=79
29024 Off ch=4 n=69 v=64
29040 On ch=4 n=65 v=79
29104 Off ch=4 n=65 v=64
29136 On ch=4 n=65 v=79
29248 Off ch=4 n=65 v=64
29280 On ch=4 n=63 v=79
29344 Off ch=4 n=63 v=64
29376 On ch=4 n=63 v=79
29440 Off ch=4 n=63 v=64
29472 On ch=4 n=62 v=79
29504 Off ch=4 n=62 v=64
29520 On ch=4 n=65 v=79
29552 Off ch=4 n=65 v=64
29568 On ch=4 n=65 v=79
29568 On ch=4 n=70 v=79
29632 Off ch=4 n=65 v=64
29632 Off ch=4 n=70 v=64
29664 On ch=4 n=65 v=79
29664 On ch=4 n=70 v=79
29728 Off ch=4 n=65 v=64
29728 Off ch=4 n=70 v=64
29760 On ch=4 n=65 v=79
29760 On ch=4 n=70 v=79
29824 Off ch=4 n=65 v=64
29824 Off ch=4 n=70 v=64
29856 On ch=4 n=65 v=79
29856 On ch=4 n=70 v=79
29920 Off ch=4 n=65 v=64
29920 Off ch=4 n=70 v=64
29952 On ch=4 n=65 v=79
29952 On ch=4 n=70 v=79
30016 Off ch=4 n=65 v=64
30016 Off ch=4 n=70 v=64
30048 On ch=4 n=65 v=79
30048 On ch=4 n=70 v=79
30112 Off ch=4 n=65 v=64
30112 Off ch=4 n=70 v=64
30144 On ch=4 n=65 v=79
30144 On ch=4 n=70 v=79
30208 Off ch=4 n=65 v=64
30208 Off ch=4 n=70 v=64
30240 On ch=4 n=62 v=79
30240 On ch=4 n=65 v=79
30304 Off ch=4 n=62 v=64
30304 Off ch=4 n=65 v=64
30336 On ch=4 n=62 v=79
30336 On ch=4 n=65 v=79
30400 Off ch=4 n=62 v=64
30400 Off ch=4 n=65 v=64
30432 On ch=4 n=62 v=79
30432 On ch=4 n=65 v=79
30496 Off ch=4 n=62 v=64
30496 Off ch=4 n=65 v=64
30528 On ch=4 n=65 v=79
30528 On ch=4 n=70 v=79
30592 Off ch=4 n=65 v=64
30592 Off ch=4 n=70 v=64
30624 On ch=4 n=65 v=79
30624 On ch=4 n=70 v=79
30688 Off ch=4 n=65 v=64
30688 Off ch=4 n=70 v=64
30720 On ch=4 n=67 v=79
30720 On ch=4 n=70 v=79
30784 Off ch=4 n=67 v=64
30784 Off ch=4 n=70 v=64
30816 On ch=4 n=62 v=79
30816 On ch=4 n=67 v=79
30880 Off ch=4 n=62 v=64
30880 Off ch=4 n=67 v=64
30912 On ch=4 n=62 v=79
30912 On ch=4 n=67 v=79
30976 Off ch=4 n=62 v=64
30976 Off ch=4 n=67 v=64
31008 On ch=4 n=60 v=79
31008 On ch=4 n=67 v=79
31072 Off ch=4 n=60 v=64
31072 Off ch=4 n=67 v=64
31104 On ch=4 n=60 v=79
31104 On ch=4 n=67 v=79
31168 Off ch=4 n=60 v=64
31168 Off ch=4 n=67 v=64
31200 On ch=4 n=60 v=79
31200 On ch=4 n=67 v=79
31264 Off ch=4 n=60 v=64
31264 Off ch=4 n=67 v=64
31296 On ch=4 n=67 v=79
31296 On ch=4 n=70 v=79
31360 Off ch=4 n=67 v=64
31360 Off ch=4 n=70 v=64
31392 On ch=4 n=67 v=79
31392 On ch=4 n=70 v=79
31456 Off ch=4 n=67 v=64
31456 Off ch=4 n=70 v=64
31488 On ch=4 n=67 v=79
31488 On ch=4 n=64 v=79
31488 On ch=4 n=70 v=79
31552 Off ch=4 n=67 v=64
31552 Off ch=4 n=64 v=64
31552 Off ch=4 n=70 v=64
31584 On ch=4 n=67 v=79
31584 On ch=4 n=64 v=79
31584 On ch=4 n=70 v=79
31648 Off ch=4 n=67 v=64
31648 Off ch=4 n=64 v=64
31648 Off ch=4 n=70 v=64
31680 On ch=4 n=64 v=79
31680 On ch=4 n=67 v=79
31744 Off ch=4 n=64 v=64
31744 Off ch=4 n=67 v=64
31776 On ch=4 n=60 v=79
31776 On ch=4 n=65 v=79
32000 Off ch=4 n=65 v=64
32000 Off ch=4 n=60 v=64
32064 On ch=4 n=57 v=79
32064 On ch=4 n=60 v=79
32192 Off ch=4 n=57 v=64
32192 Off ch=4 n=60 v=64
32256 On ch=4 n=57 v=79
32256 On ch=4 n=60 v=79
32384 Off ch=4 n=57 v=64
32384 Off ch=4 n=60 v=64
32448 On ch=4 n=57 v=79
32448 On ch=4 n=60 v=79
32576 Off ch=4 n=57 v=64
32576 Off ch=4 n=60 v=64
32640 On ch=4 n=57 v=79
32640 On ch=4 n=60 v=79
32736 Off ch=4 n=57 v=64
32736 Off ch=4 n=60 v=64
32832 On ch=4 n=69 v=79
32896 Off ch=4 n=69 v=64
32928 On ch=4 n=65 v=79
32960 Off ch=4 n=65 v=64
32976 On ch=4 n=65 v=79
33088 Off ch=4 n=65 v=64
33120 On ch=4 n=63 v=79
33184 Off ch=4 n=63 v=64
33216 On ch=4 n=62 v=79
33280 Off ch=4 n=62 v=64
33312 On ch=4 n=62 v=79
33344 Off ch=4 n=62 v=64
33360 On ch=4 n=65 v=79
33392 Off ch=4 n=65 v=64
33408 On ch=4 n=65 v=79
33408 On ch=4 n=70 v=79
33472 Off ch=4 n=65 v=64
33472 Off ch=4 n=70 v=64
33504 On ch=4 n=65 v=79
33504 On ch=4 n=70 v=79
33568 Off ch=4 n=65 v=64
33568 Off ch=4 n=70 v=64
33600 On ch=4 n=65 v=79
33600 On ch=4 n=70 v=79
33664 Off ch=4 n=65 v=64
33664 Off ch=4 n=70 v=64
33696 On ch=4 n=65 v=79
33696 On ch=4 n=70 v=79
33760 Off ch=4 n=65 v=64
33760 Off ch=4 n=70 v=64
33792 On ch=4 n=65 v=79
33792 On ch=4 n=70 v=79
33856 Off ch=4 n=65 v=64
33856 Off ch=4 n=70 v=64
33888 On ch=4 n=65 v=79
33888 On ch=4 n=70 v=79
33952 Off ch=4 n=65 v=64
33952 Off ch=4 n=70 v=64
33984 On ch=4 n=65 v=79
33984 On ch=4 n=70 v=79
34048 Off ch=4 n=65 v=64
34048 Off ch=4 n=70 v=64
34080 On ch=4 n=62 v=79
34080 On ch=4 n=65 v=79
34144 Off ch=4 n=62 v=64
34144 Off ch=4 n=65 v=64
34176 On ch=4 n=62 v=79
34176 On ch=4 n=65 v=79
34240 Off ch=4 n=62 v=64
34240 Off ch=4 n=65 v=64
34272 On ch=4 n=62 v=79
34272 On ch=4 n=65 v=79
34336 Off ch=4 n=62 v=64
34336 Off ch=4 n=65 v=64
34368 On ch=4 n=70 v=79
34368 On ch=4 n=74 v=79
34432 Off ch=4 n=70 v=64
34432 Off ch=4 n=74 v=64
34464 On ch=4 n=67 v=79
34464 On ch=4 n=70 v=79
34624 Off ch=4 n=67 v=64
34624 Off ch=4 n=70 v=64
34656 On ch=4 n=69 v=79
34720 Off ch=4 n=69 v=64
34752 On ch=4 n=67 v=79
34816 Off ch=4 n=67 v=64
34848 On ch=4 n=67 v=79
34848 On ch=4 n=70 v=79
34912 Off ch=4 n=67 v=64
34912 Off ch=4 n=70 v=64
34944 On ch=4 n=67 v=79
34944 On ch=4 n=70 v=79
35008 Off ch=4 n=67 v=64
35008 Off ch=4 n=70 v=64
35040 On ch=4 n=67 v=79
35040 On ch=4 n=70 v=79
35104 Off ch=4 n=67 v=64
35104 Off ch=4 n=70 v=64
35136 On ch=4 n=67 v=79
35136 On ch=4 n=70 v=79
35200 Off ch=4 n=67 v=64
35200 Off ch=4 n=70 v=64
35232 On ch=4 n=67 v=79
35232 On ch=4 n=64 v=79
35232 On ch=4 n=70 v=79
35296 Off ch=4 n=67 v=64
35296 Off ch=4 n=64 v=64
35296 Off ch=4 n=70 v=64
35328 On ch=4 n=67 v=79
35328 On ch=4 n=64 v=79
35328 On ch=4 n=70 v=79
35392 Off ch=4 n=67 v=64
35392 Off ch=4 n=64 v=64
35392 Off ch=4 n=70 v=64
35424 On ch=4 n=62 v=79
35424 On ch=4 n=67 v=79
35488 Off ch=4 n=62 v=64
35488 Off ch=4 n=67 v=64
35520 On ch=4 n=64 v=79
35520 On ch=4 n=67 v=79
35584 Off ch=4 n=64 v=64
35584 Off ch=4 n=67 v=64
35616 On ch=4 n=64 v=79
35616 On ch=4 n=67 v=79
35680 Off ch=4 n=64 v=64
35680 Off ch=4 n=67 v=64
35712 On ch=4 n=60 v=79
35712 On ch=4 n=65 v=79
35840 Off ch=4 n=60 v=64
35840 Off ch=4 n=65 v=64
35904 On ch=4 n=57 v=79
35904 On ch=4 n=60 v=79
36032 Off ch=4 n=57 v=64
36032 Off ch=4 n=60 v=64
36096 On ch=4 n=57 v=79
36096 On ch=4 n=60 v=79
36160 Off ch=4 n=57 v=64
36160 Off ch=4 n=60 v=64
36192 On ch=4 n=57 v=79
36192 On ch=4 n=60 v=79
36256 Off ch=4 n=57 v=64
36256 Off ch=4 n=60 v=64
36288 On ch=4 n=65 v=79
36288 On ch=4 n=69 v=79
36352 Off ch=4 n=65 v=64
36352 Off ch=4 n=69 v=64
36384 On ch=4 n=65 v=79
36384 On ch=4 n=70 v=79
36448 Off ch=4 n=65 v=64
36448 Off ch=4 n=70 v=64
36480 On ch=4 n=65 v=79
36480 On ch=4 n=69 v=79
36608 Off ch=4 n=65 v=64
36608 Off ch=4 n=69 v=64
36672 On ch=4 n=69 v=79
36672 On ch=4 n=72 v=79
36800 Off ch=4 n=69 v=64
36800 Off ch=4 n=72 v=64
36864 On ch=4 n=70 v=79
36864 On ch=4 n=72 v=79
36928 Off ch=4 n=70 v=64
36928 Off ch=4 n=72 v=64
36960 On ch=4 n=70 v=79
36960 On ch=4 n=74 v=79
37024 Off ch=4 n=70 v=64
37024 Off ch=4 n=74 v=64
37056 On ch=4 n=70 v=79
37056 On ch=4 n=76 v=79
37184 Off ch=4 n=70 v=64
37184 Off ch=4 n=76 v=64
37248 On ch=4 n=72 v=79
37248 On ch=4 n=70 v=79
37248 On ch=4 n=76 v=79
37376 Off ch=4 n=72 v=64
37376 Off ch=4 n=70 v=64
37376 Off ch=4 n=76 v=64
37440 On ch=4 n=72 v=79
37440 On ch=4 n=70 v=79
37440 On ch=4 n=76 v=79
37536 On ch=4 n=78 v=79
37568 Off ch=4 n=72 v=64
37568 Off ch=4 n=70 v=64
37568 Off ch=4 n=76 v=64
37632 Off ch=4 n=78 v=64
37632 On ch=4 n=76 v=95
37632 On ch=4 n=72 v=95
37632 On ch=4 n=79 v=95
37696 Off ch=4 n=76 v=64
37696 Off ch=4 n=72 v=64
37696 Off ch=4 n=79 v=64
37728 On ch=4 n=77 v=95
37728 On ch=4 n=74 v=95
37728 On ch=4 n=72 v=95
37728 On ch=4 n=81 v=95
37792 Off ch=4 n=77 v=64
37792 Off ch=4 n=74 v=64
37792 Off ch=4 n=72 v=64
37792 Off ch=4 n=81 v=64
37824 On ch=4 n=79 v=95
37824 On ch=4 n=76 v=95
37824 On ch=4 n=72 v=95
37824 On ch=4 n=82 v=95
37952 Off ch=4 n=79 v=64
37952 Off ch=4 n=76 v=64
37952 Off ch=4 n=72 v=64
37952 Off ch=4 n=82 v=64
38016 On ch=4 n=79 v=79
38016 On ch=4 n=76 v=79
38016 On ch=4 n=72 v=79
38016 On ch=4 n=82 v=79
38144 Off ch=4 n=79 v=64
38144 Off ch=4 n=76 v=64
38144 Off ch=4 n=72 v=64
38144 Off ch=4 n=82 v=64
38208 On ch=4 n=67 v=79
38208 On ch=4 n=70 v=79
38336 Off ch=4 n=67 v=64
38336 Off ch=4 n=70 v=64
38400 On ch=4 n=60 v=79
38400 On ch=4 n=57 v=79
38400 On ch=4 n=65 v=79
38528 Off ch=4 n=60 v=64
38528 Off ch=4 n=57 v=64
38528 Off ch=4 n=65 v=64
38592 On ch=4 n=60 v=79
38592 On ch=4 n=57 v=79
38592 On ch=4 n=65 v=79
38720 Off ch=4 n=60 v=64
38720 Off ch=4 n=57 v=64
38720 Off ch=4 n=65 v=64
38784 On ch=4 n=60 v=79
38784 On ch=4 n=57 v=79
38784 On ch=4 n=65 v=79
38912 Off ch=4 n=60 v=64
38912 Off ch=4 n=57 v=64
38912 Off ch=4 n=65 v=64
38976 On ch=4 n=65 v=79
38976 On ch=4 n=69 v=79
39104 Off ch=4 n=65 v=64
39104 Off ch=4 n=69 v=64
39168 On ch=4 n=55 v=79
39168 On ch=4 n=60 v=79
39296 Off ch=4 n=55 v=64
39296 Off ch=4 n=60 v=64
39360 On ch=4 n=55 v=79
39360 On ch=4 n=60 v=79
39488 Off ch=4 n=55 v=64
39488 Off ch=4 n=60 v=64
39552 On ch=4 n=55 v=79
39552 On ch=4 n=60 v=79
39680 Off ch=4 n=55 v=64
39680 Off ch=4 n=60 v=64
39744 On ch=4 n=60 v=79
39872 Off ch=4 n=60 v=64
39936 On ch=4 n=64 v=79
39936 On ch=4 n=67 v=79
40064 Off ch=4 n=64 v=64
40064 Off ch=4 n=67 v=64
40128 On ch=4 n=67 v=79
40128 On ch=4 n=70 v=79
40256 Off ch=4 n=67 v=64
40256 Off ch=4 n=70 v=64
40320 On ch=4 n=67 v=79
40320 On ch=4 n=70 v=79
40448 Off ch=4 n=67 v=64
40448 Off ch=4 n=70 v=64
40512 On ch=4 n=67 v=79
40512 On ch=4 n=70 v=79
40640 Off ch=4 n=67 v=64
40640 Off ch=4 n=70 v=64
40704 On ch=4 n=65 v=79
40832 Off ch=4 n=65 v=64
40896 On ch=4 n=60 v=79
40896 On ch=4 n=65 v=79
41024 Off ch=4 n=60 v=64
41024 Off ch=4 n=65 v=64
41088 On ch=4 n=60 v=79
41088 On ch=4 n=65 v=79
41216 Off ch=4 n=60 v=64
41216 Off ch=4 n=65 v=64
41280 On ch=4 n=60 v=79
41280 On ch=4 n=65 v=79
41344 Off ch=4 n=60 v=64
41344 Off ch=4 n=65 v=64
41376 On ch=4 n=65 v=79
41376 On ch=4 n=69 v=79
41440 Off ch=4 n=65 v=64
41440 Off ch=4 n=69 v=64
41472 On ch=4 n=65 v=79
41472 On ch=4 n=70 v=79
41600 Off ch=4 n=65 v=64
41600 Off ch=4 n=70 v=64
41664 On ch=4 n=65 v=79
41664 On ch=4 n=70 v=79
41856 Off ch=4 n=65 v=64
41856 Off ch=4 n=70 v=64
41856 On ch=4 n=76 v=79
41888 Off ch=4 n=76 v=64
41904 On ch=4 n=74 v=79
41968 Off ch=4 n=74 v=64
42000 On ch=4 n=72 v=79
42080 Off ch=4 n=72 v=64
42096 On ch=4 n=74 v=79
42128 Off ch=4 n=74 v=64
42144 On ch=4 n=70 v=79
42208 Off ch=4 n=70 v=64
42240 On ch=4 n=69 v=79
42368 Off ch=4 n=69 v=64
42432 On ch=4 n=65 v=79
42432 On ch=4 n=60 v=79
42432 On ch=4 n=69 v=79
42560 Off ch=4 n=65 v=64
42560 Off ch=4 n=60 v=64
42560 Off ch=4 n=69 v=64
42624 On ch=4 n=57 v=79
42624 On ch=4 n=60 v=79
42752 Off ch=4 n=57 v=64
42752 Off ch=4 n=60 v=64
42816 On ch=4 n=60 v=79
42816 On ch=4 n=65 v=79
42944 Off ch=4 n=60 v=64
42944 Off ch=4 n=65 v=64
43008 On ch=4 n=67 v=79
43008 On ch=4 n=64 v=79
43008 On ch=4 n=70 v=79
43136 Off ch=4 n=67 v=64
43136 Off ch=4 n=64 v=64
43136 Off ch=4 n=70 v=64
43200 On ch=4 n=67 v=79
43200 On ch=4 n=64 v=79
43200 On ch=4 n=70 v=79
43328 Off ch=4 n=67 v=64
43328 Off ch=4 n=64 v=64
43328 Off ch=4 n=70 v=64
43392 On ch=4 n=60 v=79
43392 On ch=4 n=64 v=79
43456 Off ch=4 n=60 v=64
43456 Off ch=4 n=64 v=64
43488 On ch=4 n=60 v=79
43488 On ch=4 n=64 v=79
43648 Off ch=4 n=60 v=64
43648 Off ch=4 n=64 v=64
43680 On ch=4 n=57 v=79
43680 On ch=4 n=60 v=79
43904 Off ch=4 n=60 v=64
43904 Off ch=4 n=57 v=64
43968 On ch=4 n=60 v=79
43968 On ch=4 n=65 v=79
44096 Off ch=4 n=60 v=64
44096 Off ch=4 n=65 v=64
44160 On ch=4 n=65 v=79
44160 On ch=4 n=69 v=79
44288 Off ch=4 n=65 v=64
44288 Off ch=4 n=69 v=64
44352 On ch=4 n=69 v=79
44352 On ch=4 n=72 v=79
44480 Off ch=4 n=69 v=64
44480 Off ch=4 n=72 v=64
44544 On ch=4 n=72 v=79
44544 On ch=4 n=77 v=79
44672 Off ch=4 n=72 v=64
44672 Off ch=4 n=77 v=64
44736 On ch=4 n=77 v=79
44736 On ch=4 n=81 v=79
44864 Off ch=4 n=77 v=64
44864 Off ch=4 n=81 v=64
44928 On ch=4 n=81 v=79
44928 On ch=4 n=77 v=79
44928 On ch=4 n=84 v=79
45180 Off ch=4 n=81 v=64
45180 Off ch=4 n=77 v=64
45180 Off ch=4 n=84 v=64
45312 On ch=4 n=57 v=79
45312 On ch=4 n=60 v=79
45440 Off ch=4 n=57 v=64
45440 Off ch=4 n=60 v=64
45504 On ch=4 n=57 v=79
45504 On ch=4 n=60 v=79
45632 Off ch=4 n=57 v=64
45632 Off ch=4 n=60 v=64
45696 On ch=4 n=60 v=79
45696 On ch=4 n=65 v=79
45824 Off ch=4 n=60 v=64
45824 Off ch=4 n=65 v=64
45888 On ch=4 n=65 v=79
45888 On ch=4 n=69 v=79
46016 Off ch=4 n=65 v=64
46016 Off ch=4 n=69 v=64
46080 On ch=4 n=67 v=79
46080 On ch=4 n=70 v=79
46208 Off ch=4 n=67 v=64
46208 Off ch=4 n=70 v=64
46272 On ch=4 n=67 v=79
46272 On ch=4 n=70 v=79
46400 Off ch=4 n=67 v=64
46400 Off ch=4 n=70 v=64
46464 On ch=4 n=67 v=79
46464 On ch=4 n=70 v=79
46592 Off ch=4 n=67 v=64
46592 Off ch=4 n=70 v=64
46656 On ch=4 n=67 v=79
46656 On ch=4 n=70 v=79
46784 Off ch=4 n=67 v=64
46784 Off ch=4 n=70 v=64
46848 On ch=4 n=70 v=79
46848 On ch=4 n=74 v=79
46976 Off ch=4 n=70 v=64
46976 Off ch=4 n=74 v=64
47040 On ch=4 n=70 v=79
47040 On ch=4 n=74 v=79
47168 Off ch=4 n=70 v=64
47168 Off ch=4 n=74 v=64
47232 On ch=4 n=70 v=79
47232 On ch=4 n=74 v=79
47360 Off ch=4 n=70 v=64
47360 Off ch=4 n=74 v=64
47424 On ch=4 n=65 v=79
47424 On ch=4 n=70 v=79
47552 Off ch=4 n=65 v=64
47552 Off ch=4 n=70 v=64
47616 On ch=4 n=65 v=79
47616 On ch=4 n=60 v=79
47616 On ch=4 n=69 v=79
47744 Off ch=4 n=65 v=64
47744 Off ch=4 n=60 v=64
47744 Off ch=4 n=69 v=64
47808 On ch=4 n=65 v=79
47808 On ch=4 n=60 v=79
47808 On ch=4 n=69 v=79
47936 Off ch=4 n=65 v=64
47936 Off ch=4 n=60 v=64
47936 Off ch=4 n=69 v=64
48000 On ch=4 n=65 v=79
48000 On ch=4 n=60 v=79
48000 On ch=4 n=69 v=79
48128 Off ch=4 n=65 v=64
48128 Off ch=4 n=60 v=64
48128 Off ch=4 n=69 v=64
48192 On ch=4 n=65 v=79
48192 On ch=4 n=60 v=79
48192 On ch=4 n=69 v=79
48320 Off ch=4 n=65 v=64
48320 Off ch=4 n=60 v=64
48320 Off ch=4 n=69 v=64
48384 On ch=4 n=57 v=79
48384 On ch=4 n=60 v=79
48512 Off ch=4 n=57 v=64
48512 Off ch=4 n=60 v=64
48576 On ch=4 n=57 v=79
48576 On ch=4 n=60 v=79
48704 Off ch=4 n=57 v=64
48704 Off ch=4 n=60 v=64
48768 On ch=4 n=60 v=79
48768 On ch=4 n=65 v=79
48896 Off ch=4 n=60 v=64
48896 Off ch=4 n=65 v=64
48960 On ch=4 n=65 v=79
48960 On ch=4 n=69 v=79
49088 Off ch=4 n=65 v=64
49088 Off ch=4 n=69 v=64
49152 On ch=4 n=67 v=79
49152 On ch=4 n=70 v=79
49280 Off ch=4 n=67 v=64
49280 Off ch=4 n=70 v=64
49344 On ch=4 n=67 v=79
49344 On ch=4 n=70 v=79
49472 Off ch=4 n=67 v=64
49472 Off ch=4 n=70 v=64
49536 On ch=4 n=67 v=79
49536 On ch=4 n=70 v=79
49664 Off ch=4 n=67 v=64
49664 Off ch=4 n=70 v=64
49728 On ch=4 n=67 v=79
49728 On ch=4 n=70 v=79
49856 Off ch=4 n=67 v=64
49856 Off ch=4 n=70 v=64
49920 On ch=4 n=70 v=79
49920 On ch=4 n=74 v=79
50048 Off ch=4 n=70 v=64
50048 Off ch=4 n=74 v=64
50112 On ch=4 n=70 v=79
50112 On ch=4 n=74 v=79
50240 Off ch=4 n=70 v=64
50240 Off ch=4 n=74 v=64
50304 On ch=4 n=70 v=79
50304 On ch=4 n=74 v=79
50432 Off ch=4 n=70 v=64
50432 Off ch=4 n=74 v=64
50496 On ch=4 n=65 v=79
50496 On ch=4 n=70 v=79
50624 Off ch=4 n=65 v=64
50624 Off ch=4 n=70 v=64
50688 On ch=4 n=65 v=79
50688 On ch=4 n=60 v=79
50688 On ch=4 n=69 v=79
50816 Off ch=4 n=65 v=64
50816 Off ch=4 n=60 v=64
50816 Off ch=4 n=69 v=64
50880 On ch=4 n=65 v=79
50880 On ch=4 n=60 v=79
50880 On ch=4 n=69 v=79
51008 Off ch=4 n=65 v=64
51008 Off ch=4 n=60 v=64
51008 Off ch=4 n=69 v=64
51072 On ch=4 n=65 v=79
51072 On ch=4 n=60 v=79
51072 On ch=4 n=69 v=79
51200 Off ch=4 n=65 v=64
51200 Off ch=4 n=60 v=64
51200 Off ch=4 n=69 v=64
51264 On ch=4 n=65 v=79
51264 On ch=4 n=60 v=79
51264 On ch=4 n=69 v=79
51392 Off ch=4 n=65 v=64
51392 Off ch=4 n=60 v=64
51392 Off ch=4 n=69 v=64
51456 On ch=4 n=57 v=79
51456 On ch=4 n=60 v=79
51584 Off ch=4 n=57 v=64
51584 Off ch=4 n=60 v=64
51648 On ch=4 n=57 v=79
51648 On ch=4 n=60 v=79
51776 Off ch=4 n=57 v=64
51776 Off ch=4 n=60 v=64
51840 On ch=4 n=60 v=79
51840 On ch=4 n=65 v=79
51968 Off ch=4 n=60 v=64
51968 Off ch=4 n=65 v=64
52032 On ch=4 n=65 v=79
52032 On ch=4 n=69 v=79
52160 Off ch=4 n=65 v=64
52160 Off ch=4 n=69 v=64
52224 On ch=4 n=67 v=79
52224 On ch=4 n=70 v=79
52352 Off ch=4 n=67 v=64
52352 Off ch=4 n=70 v=64
52416 On ch=4 n=67 v=79
52416 On ch=4 n=70 v=79
52544 Off ch=4 n=67 v=64
52544 Off ch=4 n=70 v=64
52608 On ch=4 n=67 v=79
52608 On ch=4 n=70 v=79
52736 Off ch=4 n=67 v=64
52736 Off ch=4 n=70 v=64
52800 On ch=4 n=67 v=79
52800 On ch=4 n=70 v=79
52928 Off ch=4 n=67 v=64
52928 Off ch=4 n=70 v=64
52992 On ch=4 n=70 v=79
52992 On ch=4 n=74 v=79
53120 Off ch=4 n=70 v=64
53120 Off ch=4 n=74 v=64
53184 On ch=4 n=70 v=79
53184 On ch=4 n=74 v=79
53312 Off ch=4 n=70 v=64
53312 Off ch=4 n=74 v=64
53376 On ch=4 n=70 v=79
53376 On ch=4 n=74 v=79
53504 Off ch=4 n=70 v=64
53504 Off ch=4 n=74 v=64
53568 On ch=4 n=65 v=79
53568 On ch=4 n=70 v=79
53696 Off ch=4 n=65 v=64
53696 Off ch=4 n=70 v=64
53760 On ch=4 n=65 v=79
53760 On ch=4 n=60 v=79
53760 On ch=4 n=69 v=79
53888 Off ch=4 n=65 v=64
53888 Off ch=4 n=60 v=64
53888 Off ch=4 n=69 v=64
53952 On ch=4 n=65 v=79
53952 On ch=4 n=60 v=79
53952 On ch=4 n=69 v=79
54080 Off ch=4 n=65 v=64
54080 Off ch=4 n=60 v=64
54080 Off ch=4 n=69 v=64
54144 On ch=4 n=65 v=79
54144 On ch=4 n=60 v=79
54144 On ch=4 n=69 v=79
54272 Off ch=4 n=65 v=64
54272 Off ch=4 n=60 v=64
54272 Off ch=4 n=69 v=64
54336 On ch=4 n=65 v=79
54336 On ch=4 n=60 v=79
54336 On ch=4 n=69 v=79
54464 Off ch=4 n=65 v=64
54464 Off ch=4 n=60 v=64
54464 Off ch=4 n=69 v=64
54528 On ch=4 n=57 v=79
54528 On ch=4 n=60 v=79
54656 Off ch=4 n=57 v=64
54656 Off ch=4 n=60 v=64
54720 On ch=4 n=57 v=79
54720 On ch=4 n=60 v=79
54848 Off ch=4 n=57 v=64
54848 Off ch=4 n=60 v=64
54912 On ch=4 n=60 v=79
54912 On ch=4 n=65 v=79
55040 Off ch=4 n=60 v=64
55040 Off ch=4 n=65 v=64
55104 On ch=4 n=65 v=79
55104 On ch=4 n=69 v=79
55232 Off ch=4 n=65 v=64
55232 Off ch=4 n=69 v=64
55296 Par ch=4 c=7 v=96
55296 On ch=4 n=67 v=79
55296 On ch=4 n=70 v=79
55392 Par ch=4 c=7 v=95
55424 Off ch=4 n=67 v=64
55424 Off ch=4 n=70 v=64
55488 Par ch=4 c=7 v=94
55488 On ch=4 n=67 v=79
55488 On ch=4 n=70 v=79
55560 Par ch=4 c=7 v=93
55616 Off ch=4 n=67 v=64
55616 Off ch=4 n=70 v=64
55656 Par ch=4 c=7 v=92
55680 On ch=4 n=67 v=79
55680 On ch=4 n=70 v=79
55752 Par ch=4 c=7 v=91
55808 Off ch=4 n=67 v=64
55808 Off ch=4 n=70 v=64
55824 Par ch=4 c=7 v=90
55872 On ch=4 n=67 v=79
55872 On ch=4 n=70 v=79
55920 Par ch=4 c=7 v=89
56000 Off ch=4 n=67 v=64
56000 Off ch=4 n=70 v=64
56016 Par ch=4 c=7 v=88
56064 On ch=4 n=70 v=79
56064 On ch=4 n=74 v=79
56088 Par ch=4 c=7 v=87
56184 Par ch=4 c=7 v=86
56192 Off ch=4 n=70 v=64
56192 Off ch=4 n=74 v=64
56256 On ch=4 n=70 v=79
56256 On ch=4 n=74 v=79
56280 Par ch=4 c=7 v=85
56352 Par ch=4 c=7 v=84
56384 Off ch=4 n=70 v=64
56384 Off ch=4 n=74 v=64
56448 Par ch=4 c=7 v=83
56448 On ch=4 n=70 v=79
56448 On ch=4 n=74 v=79
56544 Par ch=4 c=7 v=82
56576 Off ch=4 n=70 v=64
56576 Off ch=4 n=74 v=64
56616 Par ch=4 c=7 v=81
56640 On ch=4 n=65 v=79
56640 On ch=4 n=70 v=79
56712 Par ch=4 c=7 v=80
56768 Off ch=4 n=65 v=64
56768 Off ch=4 n=70 v=64
56808 Par ch=4 c=7 v=79
56832 On ch=4 n=65 v=79
56832 On ch=4 n=60 v=79
56832 On ch=4 n=69 v=79
56880 Par ch=4 c=7 v=78
56960 Off ch=4 n=65 v=64
56960 Off ch=4 n=60 v=64
56960 Off ch=4 n=69 v=64
56976 Par ch=4 c=7 v=77
57024 On ch=4 n=65 v=79
57024 On ch=4 n=60 v=79
57024 On ch=4 n=69 v=79
57072 Par ch=4 c=7 v=76
57144 Par ch=4 c=7 v=75
57152 Off ch=4 n=65 v=64
57152 Off ch=4 n=60 v=64
57152 Off ch=4 n=69 v=64
57216 On ch=4 n=65 v=79
57216 On ch=4 n=60 v=79
57216 On ch=4 n=69 v=79
57240 Par ch=4 c=7 v=74
57336 Par ch=4 c=7 v=73
57344 Off ch=4 n=65 v=64
57344 Off ch=4 n=60 v=64
57344 Off ch=4 n=69 v=64
57408 Par ch=4 c=7 v=72
57408 On ch=4 n=65 v=79
57408 On ch=4 n=60 v=79
57408 On ch=4 n=69 v=79
57504 Par ch=4 c=7 v=71
57536 Off ch=4 n=65 v=64
57536 Off ch=4 n=60 v=64
57536 Off ch=4 n=69 v=64
57600 Par ch=4 c=7 v=70
57600 On ch=4 n=57 v=79
57600 On ch=4 n=60 v=79
57672 Par ch=4 c=7 v=69
57728 Off ch=4 n=57 v=64
57728 Off ch=4 n=60 v=64
57768 Par ch=4 c=7 v=68
57792 On ch=4 n=57 v=79
57792 On ch=4 n=60 v=79
57864 Par ch=4 c=7 v=67
57920 Off ch=4 n=57 v=64
57920 Off ch=4 n=60 v=64
57936 Par ch=4 c=7 v=66
57984 On ch=4 n=60 v=79
57984 On ch=4 n=65 v=79
58032 Par ch=4 c=7 v=65
58112 Off ch=4 n=60 v=64
58112 Off ch=4 n=65 v=64
58128 Par ch=4 c=7 v=64
58176 On ch=4 n=65 v=79
58176 On ch=4 n=69 v=79
58200 Par ch=4 c=7 v=63
58296 Par ch=4 c=7 v=62
58304 Off ch=4 n=65 v=64
58304 Off ch=4 n=69 v=64
58368 On ch=4 n=67 v=79
58368 On ch=4 n=70 v=79
58392 Par ch=4 c=7 v=61
58464 Par ch=4 c=7 v=60
58496 Off ch=4 n=67 v=64
58496 Off ch=4 n=70 v=64
58560 Par ch=4 c=7 v=59
58560 On ch=4 n=67 v=79
58560 On ch=4 n=70 v=79
58656 Par ch=4 c=7 v=58
58688 Off ch=4 n=67 v=64
58688 Off ch=4 n=70 v=64
58728 Par ch=4 c=7 v=57
58752 On ch=4 n=67 v=79
58752 On ch=4 n=70 v=79
58824 Par ch=4 c=7 v=56
58880 Off ch=4 n=67 v=64
58880 Off ch=4 n=70 v=64
58920 Par ch=4 c=7 v=55
58944 On ch=4 n=67 v=79
58944 On ch=4 n=70 v=79
58992 Par ch=4 c=7 v=54
59072 Off ch=4 n=67 v=64
59072 Off ch=4 n=70 v=64
59088 Par ch=4 c=7 v=53
59136 On ch=4 n=70 v=79
59136 On ch=4 n=74 v=79
59184 Par ch=4 c=7 v=52
59256 Par ch=4 c=7 v=51
59264 Off ch=4 n=70 v=64
59264 Off ch=4 n=74 v=64
59328 On ch=4 n=70 v=79
59328 On ch=4 n=74 v=79
59352 Par ch=4 c=7 v=50
59448 Par ch=4 c=7 v=49
59456 Off ch=4 n=70 v=64
59456 Off ch=4 n=74 v=64
59520 Par ch=4 c=7 v=48
59520 On ch=4 n=70 v=79
59520 On ch=4 n=74 v=79
59616 Par ch=4 c=7 v=47
59648 Off ch=4 n=70 v=64
59648 Off ch=4 n=74 v=64
59712 Par ch=4 c=7 v=46
59712 On ch=4 n=65 v=79
59712 On ch=4 n=70 v=79
59784 Par ch=4 c=7 v=45
59840 Off ch=4 n=65 v=64
59840 Off ch=4 n=70 v=64
59880 Par ch=4 c=7 v=44
59904 On ch=4 n=65 v=79
59904 On ch=4 n=60 v=79
59904 On ch=4 n=69 v=79
59976 Par ch=4 c=7 v=43
60032 Off ch=4 n=65 v=64
60032 Off ch=4 n=60 v=64
60032 Off ch=4 n=69 v=64
60048 Par ch=4 c=7 v=42
60096 On ch=4 n=65 v=79
60096 On ch=4 n=60 v=79
60096 On ch=4 n=69 v=79
60144 Par ch=4 c=7 v=41
60224 Off ch=4 n=65 v=64
60224 Off ch=4 n=60 v=64
60224 Off ch=4 n=69 v=64
60240 Par ch=4 c=7 v=40
60288 On ch=4 n=65 v=79
60288 On ch=4 n=60 v=79
60288 On ch=4 n=69 v=79
60312 Par ch=4 c=7 v=39
60408 Par ch=4 c=7 v=38
60416 Off ch=4 n=65 v=64
60416 Off ch=4 n=60 v=64
60416 Off ch=4 n=69 v=64
60480 On ch=4 n=65 v=79
60480 On ch=4 n=60 v=79
60480 On ch=4 n=69 v=79
60504 Par ch=4 c=7 v=37
60576 Par ch=4 c=7 v=36
60608 Off ch=4 n=65 v=64
60608 Off ch=4 n=60 v=64
60608 Off ch=4 n=69 v=64
60672 Par ch=4 c=7 v=35
60672 On ch=4 n=57 v=79
60672 On ch=4 n=60 v=79
60768 Par ch=4 c=7 v=34
60800 Off ch=4 n=57 v=64
60800 Off ch=4 n=60 v=64
60840 Par ch=4 c=7 v=33
60864 On ch=4 n=57 v=79
60864 On ch=4 n=60 v=79
60936 Par ch=4 c=7 v=32
60992 Off ch=4 n=57 v=64
60992 Off ch=4 n=60 v=64
61032 Par ch=4 c=7 v=31
61056 On ch=4 n=60 v=79
61056 On ch=4 n=65 v=79
61104 Par ch=4 c=7 v=30
61184 Off ch=4 n=60 v=64
61184 Off ch=4 n=65 v=64
61200 Par ch=4 c=7 v=29
61248 On ch=4 n=65 v=79
61248 On ch=4 n=69 v=79
61296 Par ch=4 c=7 v=28
61368 Par ch=4 c=7 v=27
61376 Off ch=4 n=65 v=64
61376 Off ch=4 n=69 v=64
61440 On ch=4 n=67 v=79
61440 On ch=4 n=70 v=79
61464 Par ch=4 c=7 v=26
61560 Par ch=4 c=7 v=25
61568 Off ch=4 n=67 v=64
61568 Off ch=4 n=70 v=64
61632 Par ch=4 c=7 v=24
61632 On ch=4 n=67 v=79
61632 On ch=4 n=70 v=79
61728 Par ch=4 c=7 v=23
61760 Off ch=4 n=67 v=64
61760 Off ch=4 n=70 v=64
61824 Par ch=4 c=7 v=22
61824 On ch=4 n=67 v=79
61824 On ch=4 n=70 v=79
61896 Par ch=4 c=7 v=21
61952 Off ch=4 n=67 v=64
61952 Off ch=4 n=70 v=64
61992 Par ch=4 c=7 v=20
62016 On ch=4 n=67 v=79
62016 On ch=4 n=70 v=79
62088 Par ch=4 c=7 v=19
62144 Off ch=4 n=67 v=64
62144 Off ch=4 n=70 v=64
62160 Par ch=4 c=7 v=18
62208 On ch=4 n=70 v=79
62208 On ch=4 n=74 v=79
62256 Par ch=4 c=7 v=17
62336 Off ch=4 n=70 v=64
62336 Off ch=4 n=74 v=64
62352 Par ch=4 c=7 v=16
62400 On ch=4 n=70 v=79
62400 On ch=4 n=74 v=79
62424 Par ch=4 c=7 v=15
62520 Par ch=4 c=7 v=14
62528 Off ch=4 n=70 v=64
62528 Off ch=4 n=74 v=64
62592 On ch=4 n=70 v=79
62592 On ch=4 n=74 v=79
62616 Par ch=4 c=7 v=13
62688 Par ch=4 c=7 v=12
62720 Off ch=4 n=70 v=64
62720 Off ch=4 n=74 v=64
62784 Par ch=4 c=7 v=11
62784 On ch=4 n=65 v=79
62784 On ch=4 n=70 v=79
62880 Par ch=4 c=7 v=10
62912 Off ch=4 n=65 v=64
62912 Off ch=4 n=70 v=64
62952 Par ch=4 c=7 v=9
62976 On ch=4 n=65 v=79
62976 On ch=4 n=60 v=79
62976 On ch=4 n=69 v=79
63048 Par ch=4 c=7 v=8
63104 Off ch=4 n=65 v=64
63104 Off ch=4 n=60 v=64
63104 Off ch=4 n=69 v=64
63144 Par ch=4 c=7 v=7
63168 On ch=4 n=65 v=79
63168 On ch=4 n=60 v=79
63168 On ch=4 n=69 v=79
63216 Par ch=4 c=7 v=6
63296 Off ch=4 n=65 v=64
63296 Off ch=4 n=60 v=64
63296 Off ch=4 n=69 v=64
63312 Par ch=4 c=7 v=5
63360 On ch=4 n=65 v=79
63360 On ch=4 n=60 v=79
63360 On ch=4 n=69 v=79
63408 Par ch=4 c=7 v=4
63480 Par ch=4 c=7 v=3
63488 Off ch=4 n=65 v=64
63488 Off ch=4 n=60 v=64
63488 Off ch=4 n=69 v=64
63552 On ch=4 n=65 v=79
63552 On ch=4 n=60 v=79
63552 On ch=4 n=69 v=79
63576 Par ch=4 c=7 v=2
63672 Par ch=4 c=7 v=1
63680 Off ch=4 n=65 v=64
63680 Off ch=4 n=60 v=64
63680 Off ch=4 n=69 v=64
63680 Meta TrkEnd
TrkEnd
MTrk
0 Meta 0x21 00
0 Meta TrkName "Bass                "
0 PrCh ch=5 p=1
0 Par ch=5 c=7 v=96
0 Par ch=5 c=10 v=63
0 Pb ch=5 v=8192
0 Par ch=5 c=1 v=0
0 Par ch=5 c=64 v=0
768 On ch=5 n=53 v=79
832 Off ch=5 n=53 v=64
864 On ch=5 n=41 v=79
928 Off ch=5 n=41 v=64
960 On ch=5 n=53 v=79
1024 Off ch=5 n=53 v=64
1056 On ch=5 n=41 v=79
1120 Off ch=5 n=41 v=64
1152 On ch=5 n=53 v=79
1216 Off ch=5 n=53 v=64
1248 On ch=5 n=41 v=79
1312 Off ch=5 n=41 v=64
1344 On ch=5 n=53 v=79
1408 Off ch=5 n=53 v=64
1440 On ch=5 n=41 v=79
1504 Off ch=5 n=41 v=64
1536 On ch=5 n=52 v=79
1600 Off ch=5 n=52 v=64
1632 On ch=5 n=48 v=79
1696 Off ch=5 n=48 v=64
1728 On ch=5 n=52 v=79
1792 Off ch=5 n=52 v=64
1824 On ch=5 n=48 v=79
1888 Off ch=5 n=48 v=64
1920 On ch=5 n=52 v=79
1984 Off ch=5 n=52 v=64
2016 On ch=5 n=48 v=79
2080 Off ch=5 n=48 v=64
2112 On ch=5 n=52 v=79
2176 Off ch=5 n=52 v=64
2208 On ch=5 n=53 v=79
2272 Off ch=5 n=53 v=64
2304 On ch=5 n=55 v=79
2368 Off ch=5 n=55 v=64
2400 On ch=5 n=48 v=79
2464 Off ch=5 n=48 v=64
2496 On ch=5 n=58 v=79
2560 Off ch=5 n=58 v=64
2592 On ch=5 n=48 v=79
2656 Off ch=5 n=48 v=64
2688 On ch=5 n=58 v=79
2752 Off ch=5 n=58 v=64
2784 On ch=5 n=48 v=79
2848 Off ch=5 n=48 v=64
2880 On ch=5 n=58 v=79
2944 Off ch=5 n=58 v=64
2976 On ch=5 n=48 v=79
3040 Off ch=5 n=48 v=64
3072 On ch=5 n=53 v=79
3136 Off ch=5 n=53 v=64
3168 On ch=5 n=41 v=79
3232 Off ch=5 n=41 v=64
3264 On ch=5 n=53 v=79
3328 Off ch=5 n=53 v=64
3360 On ch=5 n=41 v=79
3424 Off ch=5 n=41 v=64
3456 On ch=5 n=53 v=79
3520 Off ch=5 n=53 v=64
3552 On ch=5 n=41 v=79
3616 Off ch=5 n=41 v=64
3648 On ch=5 n=53 v=79
3712 Off ch=5 n=53 v=64
3744 On ch=5 n=41 v=79
3808 Off ch=5 n=41 v=64
3840 On ch=5 n=58 v=79
3904 Off ch=5 n=58 v=64
3936 On ch=5 n=46 v=79
4000 Off ch=5 n=46 v=64
4032 On ch=5 n=58 v=79
4096 Off ch=5 n=58 v=64
4128 On ch=5 n=46 v=79
4192 Off ch=5 n=46 v=64
4224 On ch=5 n=58 v=79
4288 Off ch=5 n=58 v=64
4320 On ch=5 n=46 v=79
4384 Off ch=5 n=46 v=64
4416 On ch=5 n=58 v=79
4480 Off ch=5 n=58 v=64
4512 On ch=5 n=46 v=79
4576 Off ch=5 n=46 v=64
4608 On ch=5 n=53 v=79
4672 Off ch=5 n=53 v=64
4704 On ch=5 n=41 v=79
4768 Off ch=5 n=41 v=64
4800 On ch=5 n=53 v=79
4864 Off ch=5 n=53 v=64
4896 On ch=5 n=41 v=79
4960 Off ch=5 n=41 v=64
4992 On ch=5 n=53 v=79
5056 Off ch=5 n=53 v=64
5088 On ch=5 n=41 v=79
5152 Off ch=5 n=41 v=64
5184 On ch=5 n=53 v=79
5248 Off ch=5 n=53 v=64
5280 On ch=5 n=41 v=79
5344 Off ch=5 n=41 v=64
5376 On ch=5 n=60 v=79
5440 Off ch=5 n=60 v=64
5472 On ch=5 n=48 v=79
5536 Off ch=5 n=48 v=64
5568 On ch=5 n=60 v=79
5632 Off ch=5 n=60 v=64
5664 On ch=5 n=48 v=79
5728 Off ch=5 n=48 v=64
5760 On ch=5 n=55 v=79
5824 Off ch=5 n=55 v=64
5856 On ch=5 n=48 v=79
5920 Off ch=5 n=48 v=64
5952 On ch=5 n=55 v=79
6016 Off ch=5 n=55 v=64
6048 On ch=5 n=48 v=79
6112 Off ch=5 n=48 v=64
6144 On ch=5 n=53 v=79
6208 Off ch=5 n=53 v=64
6240 On ch=5 n=48 v=79
6304 Off ch=5 n=48 v=64
6336 On ch=5 n=53 v=79
6400 Off ch=5 n=53 v=64
6432 On ch=5 n=48 v=79
6496 Off ch=5 n=48 v=64
6528 On ch=5 n=41 v=79
6656 Off ch=5 n=41 v=64
6912 On ch=5 n=53 v=79
6976 Off ch=5 n=53 v=64
7008 On ch=5 n=41 v=79
7072 Off ch=5 n=41 v=64
7104 On ch=5 n=53 v=79
7168 Off ch=5 n=53 v=64
7200 On ch=5 n=41 v=79
7264 Off ch=5 n=41 v=64
7296 On ch=5 n=53 v=79
7360 Off ch=5 n=53 v=64
7392 On ch=5 n=41 v=79
7456 Off ch=5 n=41 v=64
7488 On ch=5 n=53 v=79
7552 Off ch=5 n=53 v=64
7584 On ch=5 n=41 v=79
7648 Off ch=5 n=41 v=64
7680 On ch=5 n=52 v=79
7744 Off ch=5 n=52 v=64
7776 On ch=5 n=48 v=79
7840 Off ch=5 n=48 v=64
7872 On ch=5 n=52 v=79
7936 Off ch=5 n=52 v=64
7968 On ch=5 n=48 v=79
8032 Off ch=5 n=48 v=64
8064 On ch=5 n=52 v=79
8128 Off ch=5 n=52 v=64
8160 On ch=5 n=48 v=79
8224 Off ch=5 n=48 v=64
8256 On ch=5 n=52 v=79
8320 Off ch=5 n=52 v=64
8352 On ch=5 n=53 v=79
8416 Off ch=5 n=53 v=64
8448 On ch=5 n=55 v=79
8512 Off ch=5 n=55 v=64
8544 On ch=5 n=48 v=79
8608 Off ch=5 n=48 v=64
8640 On ch=5 n=58 v=79
8704 Off ch=5 n=58 v=64
8736 On ch=5 n=48 v=79
8800 Off ch=5 n=48 v=64
8832 On ch=5 n=58 v=79
8896 Off ch=5 n=58 v=64
8928 On ch=5 n=48 v=79
8992 Off ch=5 n=48 v=64
9024 On ch=5 n=58 v=79
9088 Off ch=5 n=58 v=64
9120 On ch=5 n=48 v=79
9184 Off ch=5 n=48 v=64
9216 On ch=5 n=53 v=79
9280 Off ch=5 n=53 v=64
9312 On ch=5 n=41 v=79
9376 Off ch=5 n=41 v=64
9408 On ch=5 n=53 v=79
9472 Off ch=5 n=53 v=64
9504 On ch=5 n=41 v=79
9568 Off ch=5 n=41 v=64
9600 On ch=5 n=53 v=79
9664 Off ch=5 n=53 v=64
9696 On ch=5 n=41 v=79
9760 Off ch=5 n=41 v=64
9792 On ch=5 n=53 v=79
9856 Off ch=5 n=53 v=64
9888 On ch=5 n=41 v=79
9952 Off ch=5 n=41 v=64
9984 On ch=5 n=58 v=79
10048 Off ch=5 n=58 v=64
10080 On ch=5 n=46 v=79
10144 Off ch=5 n=46 v=64
10176 On ch=5 n=58 v=79
10240 Off ch=5 n=58 v=64
10272 On ch=5 n=46 v=79
10336 Off ch=5 n=46 v=64
10368 On ch=5 n=58 v=79
10432 Off ch=5 n=58 v=64
10464 On ch=5 n=46 v=79
10528 Off ch=5 n=46 v=64
10560 On ch=5 n=58 v=79
10624 Off ch=5 n=58 v=64
10656 On ch=5 n=46 v=79
10720 Off ch=5 n=46 v=64
10752 On ch=5 n=53 v=79
10816 Off ch=5 n=53 v=64
10848 On ch=5 n=41 v=79
10912 Off ch=5 n=41 v=64
10944 On ch=5 n=53 v=79
11008 Off ch=5 n=53 v=64
11040 On ch=5 n=41 v=79
11104 Off ch=5 n=41 v=64
11136 On ch=5 n=53 v=79
11200 Off ch=5 n=53 v=64
11232 On ch=5 n=41 v=79
11296 Off ch=5 n=41 v=64
11328 On ch=5 n=53 v=79
11392 Off ch=5 n=53 v=64
11424 On ch=5 n=41 v=79
11488 Off ch=5 n=41 v=64
11520 On ch=5 n=60 v=79
11584 Off ch=5 n=60 v=64
11616 On ch=5 n=48 v=79
11680 Off ch=5 n=48 v=64
11712 On ch=5 n=60 v=79
11776 Off ch=5 n=60 v=64
11808 On ch=5 n=48 v=79
11872 Off ch=5 n=48 v=64
11904 On ch=5 n=55 v=79
11968 Off ch=5 n=55 v=64
12000 On ch=5 n=48 v=79
12064 Off ch=5 n=48 v=64
12096 On ch=5 n=55 v=79
12160 Off ch=5 n=55 v=64
12192 On ch=5 n=48 v=79
12256 Off ch=5 n=48 v=64
12288 On ch=5 n=53 v=79
12352 Off ch=5 n=53 v=64
12384 On ch=5 n=41 v=79
12448 Off ch=5 n=41 v=64
12480 On ch=5 n=53 v=79
12544 Off ch=5 n=53 v=64
12576 On ch=5 n=41 v=79
12640 Off ch=5 n=41 v=64
12672 On ch=5 n=53 v=79
12736 Off ch=5 n=53 v=64
12768 On ch=5 n=41 v=79
12832 Off ch=5 n=41 v=64
12864 On ch=5 n=53 v=79
12928 Off ch=5 n=53 v=64
12960 On ch=5 n=41 v=79
13024 Off ch=5 n=41 v=64
13056 On ch=5 n=53 v=79
13120 Off ch=5 n=53 v=64
13152 On ch=5 n=41 v=79
13216 Off ch=5 n=41 v=64
13248 On ch=5 n=53 v=79
13312 Off ch=5 n=53 v=64
13344 On ch=5 n=41 v=79
13408 Off ch=5 n=41 v=64
13440 On ch=5 n=53 v=79
13504 Off ch=5 n=53 v=64
13536 On ch=5 n=41 v=79
13600 Off ch=5 n=41 v=64
13632 On ch=5 n=53 v=79
13696 Off ch=5 n=53 v=64
13728 On ch=5 n=41 v=79
13792 Off ch=5 n=41 v=64
13824 On ch=5 n=46 v=79
13952 Off ch=5 n=46 v=64
14016 On ch=5 n=46 v=79
14144 Off ch=5 n=46 v=64
14208 On ch=5 n=45 v=79
14336 Off ch=5 n=45 v=64
14400 On ch=5 n=45 v=79
14528 Off ch=5 n=45 v=64
14592 On ch=5 n=43 v=79
14720 Off ch=5 n=43 v=64
14784 On ch=5 n=43 v=79
14912 Off ch=5 n=43 v=64
14976 On ch=5 n=41 v=79
15104 Off ch=5 n=41 v=64
15168 On ch=5 n=41 v=79
15296 Off ch=5 n=41 v=64
15360 On ch=5 n=40 v=79
15488 Off ch=5 n=40 v=64
15552 On ch=5 n=43 v=79
15680 Off ch=5 n=43 v=64
15744 On ch=5 n=48 v=79
15872 Off ch=5 n=48 v=64
15936 On ch=5 n=48 v=79
16064 Off ch=5 n=48 v=64
16128 On ch=5 n=41 v=79
16192 Off ch=5 n=41 v=64
16224 On ch=5 n=41 v=79
16288 Off ch=5 n=41 v=64
16320 On ch=5 n=41 v=79
16384 Off ch=5 n=41 v=64
16416 On ch=5 n=41 v=79
16480 Off ch=5 n=41 v=64
16512 On ch=5 n=41 v=79
16576 Off ch=5 n=41 v=64
16608 On ch=5 n=41 v=79
16672 Off ch=5 n=41 v=64
16704 On ch=5 n=41 v=79
16768 Off ch=5 n=41 v=64
16800 On ch=5 n=41 v=79
16864 Off ch=5 n=41 v=64
16896 On ch=5 n=41 v=79
16960 Off ch=5 n=41 v=64
16992 On ch=5 n=41 v=79
17056 Off ch=5 n=41 v=64
17088 On ch=5 n=41 v=79
17152 Off ch=5 n=41 v=64
17184 On ch=5 n=41 v=79
17248 Off ch=5 n=41 v=64
17280 On ch=5 n=41 v=79
17344 Off ch=5 n=41 v=64
17376 On ch=5 n=41 v=79
17440 Off ch=5 n=41 v=64
17472 On ch=5 n=41 v=79
17536 Off ch=5 n=41 v=64
17568 On ch=5 n=41 v=79
17632 Off ch=5 n=41 v=64
17664 On ch=5 n=46 v=79
17792 Off ch=5 n=46 v=64
17856 On ch=5 n=46 v=79
17984 Off ch=5 n=46 v=64
18048 On ch=5 n=45 v=79
18176 Off ch=5 n=45 v=64
18240 On ch=5 n=45 v=79
18368 Off ch=5 n=45 v=64
18432 On ch=5 n=43 v=79
18560 Off ch=5 n=43 v=64
18624 On ch=5 n=43 v=79
18752 Off ch=5 n=43 v=64
18816 On ch=5 n=41 v=79
18944 Off ch=5 n=41 v=64
19008 On ch=5 n=41 v=79
19136 Off ch=5 n=41 v=64
19200 On ch=5 n=40 v=79
19328 Off ch=5 n=40 v=64
19392 On ch=5 n=43 v=79
19520 Off ch=5 n=43 v=64
19584 On ch=5 n=48 v=79
19712 Off ch=5 n=48 v=64
19776 On ch=5 n=48 v=79
19904 Off ch=5 n=48 v=64
19968 On ch=5 n=41 v=79
20032 Off ch=5 n=41 v=64
20064 On ch=5 n=41 v=79
20128 Off ch=5 n=41 v=64
20160 On ch=5 n=41 v=79
20224 Off ch=5 n=41 v=64
20256 On ch=5 n=41 v=79
20320 Off ch=5 n=41 v=64
20352 On ch=5 n=41 v=79
20416 Off ch=5 n=41 v=64
20448 On ch=5 n=41 v=79
20512 Off ch=5 n=41 v=64
20544 On ch=5 n=41 v=79
20608 Off ch=5 n=41 v=64
20640 On ch=5 n=41 v=79
20704 Off ch=5 n=41 v=64
20736 On ch=5 n=41 v=79
20800 Off ch=5 n=41 v=64
20832 On ch=5 n=41 v=79
20896 Off ch=5 n=41 v=64
20928 On ch=5 n=41 v=79
20992 Off ch=5 n=41 v=64
21024 On ch=5 n=41 v=79
21088 Off ch=5 n=41 v=64
21120 On ch=5 n=48 v=79
21184 Off ch=5 n=48 v=64
21216 On ch=5 n=48 v=79
21280 Off ch=5 n=48 v=64
21312 On ch=5 n=48 v=79
21376 Off ch=5 n=48 v=64
21408 On ch=5 n=48 v=79
21472 Off ch=5 n=48 v=64
21504 On ch=5 n=48 v=79
21568 Off ch=5 n=48 v=64
21600 On ch=5 n=48 v=79
21664 Off ch=5 n=48 v=64
21696 On ch=5 n=48 v=79
21760 Off ch=5 n=48 v=64
21792 On ch=5 n=48 v=79
21856 Off ch=5 n=48 v=64
21888 On ch=5 n=48 v=79
22524 Off ch=5 n=48 v=64
22656 On ch=5 n=53 v=79
22720 Off ch=5 n=53 v=64
22752 On ch=5 n=41 v=79
22816 Off ch=5 n=41 v=64
22848 On ch=5 n=53 v=79
22912 Off ch=5 n=53 v=64
22944 On ch=5 n=41 v=79
23008 Off ch=5 n=41 v=64
23040 On ch=5 n=53 v=79
23104 Off ch=5 n=53 v=64
23136 On ch=5 n=41 v=79
23200 Off ch=5 n=41 v=64
23232 On ch=5 n=53 v=79
23296 Off ch=5 n=53 v=64
23328 On ch=5 n=41 v=79
23392 Off ch=5 n=41 v=64
23424 On ch=5 n=52 v=79
23488 Off ch=5 n=52 v=64
23520 On ch=5 n=48 v=79
23584 Off ch=5 n=48 v=64
23616 On ch=5 n=52 v=79
23680 Off ch=5 n=52 v=64
23712 On ch=5 n=48 v=79
23776 Off ch=5 n=48 v=64
23808 On ch=5 n=52 v=79
23872 Off ch=5 n=52 v=64
23904 On ch=5 n=48 v=79
23968 Off ch=5 n=48 v=64
24000 On ch=5 n=52 v=79
24064 Off ch=5 n=52 v=64
24096 On ch=5 n=53 v=79
24160 Off ch=5 n=53 v=64
24192 On ch=5 n=55 v=79
24256 Off ch=5 n=55 v=64
24288 On ch=5 n=48 v=79
24352 Off ch=5 n=48 v=64
24384 On ch=5 n=58 v=79
24448 Off ch=5 n=58 v=64
24480 On ch=5 n=48 v=79
24544 Off ch=5 n=48 v=64
24576 On ch=5 n=58 v=79
24640 Off ch=5 n=58 v=64
24672 On ch=5 n=48 v=79
24736 Off ch=5 n=48 v=64
24768 On ch=5 n=58 v=79
24832 Off ch=5 n=58 v=64
24864 On ch=5 n=48 v=79
24928 Off ch=5 n=48 v=64
24960 On ch=5 n=53 v=79
25024 Off ch=5 n=53 v=64
25056 On ch=5 n=41 v=79
25120 Off ch=5 n=41 v=64
25152 On ch=5 n=53 v=79
25216 Off ch=5 n=53 v=64
25248 On ch=5 n=41 v=79
25312 Off ch=5 n=41 v=64
25344 On ch=5 n=53 v=79
25408 Off ch=5 n=53 v=64
25440 On ch=5 n=41 v=79
25504 Off ch=5 n=41 v=64
25536 On ch=5 n=53 v=79
25600 Off ch=5 n=53 v=64
25632 On ch=5 n=41 v=79
25696 Off ch=5 n=41 v=64
25728 On ch=5 n=58 v=79
25792 Off ch=5 n=58 v=64
25824 On ch=5 n=46 v=79
25888 Off ch=5 n=46 v=64
25920 On ch=5 n=58 v=79
25984 Off ch=5 n=58 v=64
26016 On ch=5 n=46 v=79
26080 Off ch=5 n=46 v=64
26112 On ch=5 n=58 v=79
26176 Off ch=5 n=58 v=64
26208 On ch=5 n=46 v=79
26272 Off ch=5 n=46 v=64
26304 On ch=5 n=58 v=79
26368 Off ch=5 n=58 v=64
26400 On ch=5 n=46 v=79
26464 Off ch=5 n=46 v=64
26496 On ch=5 n=53 v=79
26560 Off ch=5 n=53 v=64
26592 On ch=5 n=41 v=79
26656 Off ch=5 n=41 v=64
26688 On ch=5 n=53 v=79
26752 Off ch=5 n=53 v=64
26784 On ch=5 n=41 v=79
26848 Off ch=5 n=41 v=64
26880 On ch=5 n=53 v=79
26944 Off ch=5 n=53 v=64
26976 On ch=5 n=41 v=79
27040 Off ch=5 n=41 v=64
27072 On ch=5 n=53 v=79
27136 Off ch=5 n=53 v=64
27168 On ch=5 n=41 v=79
27232 Off ch=5 n=41 v=64
27264 On ch=5 n=60 v=79
27328 Off ch=5 n=60 v=64
27360 On ch=5 n=48 v=79
27424 Off ch=5 n=48 v=64
27456 On ch=5 n=60 v=79
27520 Off ch=5 n=60 v=64
27552 On ch=5 n=48 v=79
27616 Off ch=5 n=48 v=64
27648 On ch=5 n=55 v=79
27712 Off ch=5 n=55 v=64
27744 On ch=5 n=48 v=79
27808 Off ch=5 n=48 v=64
27840 On ch=5 n=55 v=79
27904 Off ch=5 n=55 v=64
27936 On ch=5 n=48 v=79
28000 Off ch=5 n=48 v=64
28032 On ch=5 n=53 v=79
28096 Off ch=5 n=53 v=64
28128 On ch=5 n=41 v=79
28192 Off ch=5 n=41 v=64
28224 On ch=5 n=53 v=79
28288 Off ch=5 n=53 v=64
28320 On ch=5 n=41 v=79
28384 Off ch=5 n=41 v=64
28416 On ch=5 n=53 v=79
28480 Off ch=5 n=53 v=64
28512 On ch=5 n=41 v=79
28576 Off ch=5 n=41 v=64
28608 On ch=5 n=53 v=79
28672 Off ch=5 n=53 v=64
28704 On ch=5 n=41 v=79
28768 Off ch=5 n=41 v=64
28800 On ch=5 n=53 v=79
28864 Off ch=5 n=53 v=64
28896 On ch=5 n=41 v=79
28960 Off ch=5 n=41 v=64
28992 On ch=5 n=53 v=79
29056 Off ch=5 n=53 v=64
29088 On ch=5 n=41 v=79
29152 Off ch=5 n=41 v=64
29184 On ch=5 n=53 v=79
29248 Off ch=5 n=53 v=64
29280 On ch=5 n=41 v=79
29344 Off ch=5 n=41 v=64
29376 On ch=5 n=53 v=79
29440 Off ch=5 n=53 v=64
29472 On ch=5 n=41 v=79
29536 Off ch=5 n=41 v=64
29568 On ch=5 n=46 v=79
29696 Off ch=5 n=46 v=64
29760 On ch=5 n=46 v=79
29888 Off ch=5 n=46 v=64
29952 On ch=5 n=45 v=79
30080 Off ch=5 n=45 v=64
30144 On ch=5 n=45 v=79
30272 Off ch=5 n=45 v=64
30336 On ch=5 n=43 v=79
30464 Off ch=5 n=43 v=64
30528 On ch=5 n=43 v=79
30656 Off ch=5 n=43 v=64
30720 On ch=5 n=41 v=79
30848 Off ch=5 n=41 v=64
30912 On ch=5 n=41 v=79
31040 Off ch=5 n=41 v=64
31104 On ch=5 n=40 v=79
31232 Off ch=5 n=40 v=64
31296 On ch=5 n=43 v=79
31424 Off ch=5 n=43 v=64
31488 On ch=5 n=48 v=79
31616 Off ch=5 n=48 v=64
31680 On ch=5 n=48 v=79
31808 Off ch=5 n=48 v=64
31872 On ch=5 n=41 v=79
31936 Off ch=5 n=41 v=64
31968 On ch=5 n=41 v=79
32032 Off ch=5 n=41 v=64
32064 On ch=5 n=41 v=79
32128 Off ch=5 n=41 v=64
32160 On ch=5 n=41 v=79
32224 Off ch=5 n=41 v=64
32256 On ch=5 n=41 v=79
32320 Off ch=5 n=41 v=64
32352 On ch=5 n=41 v=79
32416 Off ch=5 n=41 v=64
32448 On ch=5 n=41 v=79
32512 Off ch=5 n=41 v=64
32544 On ch=5 n=41 v=79
32608 Off ch=5 n=41 v=64
32640 On ch=5 n=41 v=79
32704 Off ch=5 n=41 v=64
32736 On ch=5 n=41 v=79
32800 Off ch=5 n=41 v=64
32832 On ch=5 n=41 v=79
32896 Off ch=5 n=41 v=64
32928 On ch=5 n=41 v=79
32992 Off ch=5 n=41 v=64
33024 On ch=5 n=41 v=79
33088 Off ch=5 n=41 v=64
33120 On ch=5 n=41 v=79
33184 Off ch=5 n=41 v=64
33216 On ch=5 n=41 v=79
33280 Off ch=5 n=41 v=64
33312 On ch=5 n=41 v=79
33376 Off ch=5 n=41 v=64
33408 On ch=5 n=46 v=79
33536 Off ch=5 n=46 v=64
33600 On ch=5 n=46 v=79
33728 Off ch=5 n=46 v=64
33792 On ch=5 n=45 v=79
33920 Off ch=5 n=45 v=64
33984 On ch=5 n=45 v=79
34112 Off ch=5 n=45 v=64
34176 On ch=5 n=43 v=79
34304 Off ch=5 n=43 v=64
34368 On ch=5 n=43 v=79
34496 Off ch=5 n=43 v=64
34560 On ch=5 n=41 v=79
34688 Off ch=5 n=41 v=64
34752 On ch=5 n=41 v=79
34880 Off ch=5 n=41 v=64
34944 On ch=5 n=40 v=79
35072 Off ch=5 n=40 v=64
35136 On ch=5 n=43 v=79
35264 Off ch=5 n=43 v=64
35328 On ch=5 n=48 v=79
35456 Off ch=5 n=48 v=64
35520 On ch=5 n=48 v=79
35648 Off ch=5 n=48 v=64
35712 On ch=5 n=41 v=79
35776 Off ch=5 n=41 v=64
35808 On ch=5 n=41 v=79
35872 Off ch=5 n=41 v=64
35904 On ch=5 n=41 v=79
35968 Off ch=5 n=41 v=64
36000 On ch=5 n=41 v=79
36064 Off ch=5 n=41 v=64
36096 On ch=5 n=41 v=79
36160 Off ch=5 n=41 v=64
36192 On ch=5 n=41 v=79
36256 Off ch=5 n=41 v=64
36288 On ch=5 n=41 v=79
36352 Off ch=5 n=41 v=64
36384 On ch=5 n=41 v=79
36448 Off ch=5 n=41 v=64
36480 On ch=5 n=41 v=79
36544 Off ch=5 n=41 v=64
36576 On ch=5 n=41 v=79
36640 Off ch=5 n=41 v=64
36672 On ch=5 n=41 v=79
36736 Off ch=5 n=41 v=64
36768 On ch=5 n=41 v=79
36832 Off ch=5 n=41 v=64
36864 On ch=5 n=48 v=79
36928 Off ch=5 n=48 v=64
36960 On ch=5 n=48 v=79
37024 Off ch=5 n=48 v=64
37056 On ch=5 n=48 v=79
37120 Off ch=5 n=48 v=64
37152 On ch=5 n=48 v=79
37216 Off ch=5 n=48 v=64
37248 On ch=5 n=48 v=79
37312 Off ch=5 n=48 v=64
37344 On ch=5 n=48 v=79
37408 Off ch=5 n=48 v=64
37440 On ch=5 n=48 v=79
37504 Off ch=5 n=48 v=64
37536 On ch=5 n=48 v=79
37600 Off ch=5 n=48 v=64
37632 On ch=5 n=48 v=79
38268 Off ch=5 n=48 v=64
38400 On ch=5 n=53 v=79
38464 Off ch=5 n=53 v=64
38496 On ch=5 n=41 v=79
38560 Off ch=5 n=41 v=64
38592 On ch=5 n=53 v=79
38656 Off ch=5 n=53 v=64
38688 On ch=5 n=41 v=79
38752 Off ch=5 n=41 v=64
38784 On ch=5 n=53 v=79
38848 Off ch=5 n=53 v=64
38880 On ch=5 n=41 v=79
38944 Off ch=5 n=41 v=64
38976 On ch=5 n=53 v=79
39040 Off ch=5 n=53 v=64
39072 On ch=5 n=41 v=79
39136 Off ch=5 n=41 v=64
39168 On ch=5 n=52 v=79
39232 Off ch=5 n=52 v=64
39264 On ch=5 n=48 v=79
39328 Off ch=5 n=48 v=64
39360 On ch=5 n=52 v=79
39424 Off ch=5 n=52 v=64
39456 On ch=5 n=48 v=79
39520 Off ch=5 n=48 v=64
39552 On ch=5 n=52 v=79
39616 Off ch=5 n=52 v=64
39648 On ch=5 n=48 v=79
39712 Off ch=5 n=48 v=64
39744 On ch=5 n=52 v=79
39808 Off ch=5 n=52 v=64
39840 On ch=5 n=53 v=79
39904 Off ch=5 n=53 v=64
39936 On ch=5 n=55 v=79
40000 Off ch=5 n=55 v=64
40032 On ch=5 n=48 v=79
40096 Off ch=5 n=48 v=64
40128 On ch=5 n=58 v=79
40192 Off ch=5 n=58 v=64
40224 On ch=5 n=48 v=79
40288 Off ch=5 n=48 v=64
40320 On ch=5 n=58 v=79
40384 Off ch=5 n=58 v=64
40416 On ch=5 n=48 v=79
40480 Off ch=5 n=48 v=64
40512 On ch=5 n=58 v=79
40576 Off ch=5 n=58 v=64
40608 On ch=5 n=48 v=79
40672 Off ch=5 n=48 v=64
40704 On ch=5 n=53 v=79
40768 Off ch=5 n=53 v=64
40800 On ch=5 n=41 v=79
40864 Off ch=5 n=41 v=64
40896 On ch=5 n=53 v=79
40960 Off ch=5 n=53 v=64
40992 On ch=5 n=41 v=79
41056 Off ch=5 n=41 v=64
41088 On ch=5 n=53 v=79
41152 Off ch=5 n=53 v=64
41184 On ch=5 n=41 v=79
41248 Off ch=5 n=41 v=64
41280 On ch=5 n=53 v=79
41344 Off ch=5 n=53 v=64
41376 On ch=5 n=41 v=79
41440 Off ch=5 n=41 v=64
41472 On ch=5 n=58 v=79
41536 Off ch=5 n=58 v=64
41568 On ch=5 n=46 v=79
41632 Off ch=5 n=46 v=64
41664 On ch=5 n=58 v=79
41728 Off ch=5 n=58 v=64
41760 On ch=5 n=46 v=79
41824 Off ch=5 n=46 v=64
41856 On ch=5 n=58 v=79
41920 Off ch=5 n=58 v=64
41952 On ch=5 n=46 v=79
42016 Off ch=5 n=46 v=64
42048 On ch=5 n=58 v=79
42112 Off ch=5 n=58 v=64
42144 On ch=5 n=46 v=79
42208 Off ch=5 n=46 v=64
42240 On ch=5 n=53 v=79
42304 Off ch=5 n=53 v=64
42336 On ch=5 n=41 v=79
42400 Off ch=5 n=41 v=64
42432 On ch=5 n=53 v=79
42496 Off ch=5 n=53 v=64
42528 On ch=5 n=41 v=79
42592 Off ch=5 n=41 v=64
42624 On ch=5 n=53 v=79
42688 Off ch=5 n=53 v=64
42720 On ch=5 n=41 v=79
42784 Off ch=5 n=41 v=64
42816 On ch=5 n=53 v=79
42880 Off ch=5 n=53 v=64
42912 On ch=5 n=41 v=79
42976 Off ch=5 n=41 v=64
43008 On ch=5 n=60 v=79
43072 Off ch=5 n=60 v=64
43104 On ch=5 n=48 v=79
43168 Off ch=5 n=48 v=64
43200 On ch=5 n=60 v=79
43264 Off ch=5 n=60 v=64
43296 On ch=5 n=48 v=79
43360 Off ch=5 n=48 v=64
43392 On ch=5 n=55 v=79
43456 Off ch=5 n=55 v=64
43488 On ch=5 n=48 v=79
43552 Off ch=5 n=48 v=64
43584 On ch=5 n=55 v=79
43648 Off ch=5 n=55 v=64
43680 On ch=5 n=48 v=79
43744 Off ch=5 n=48 v=64
43776 On ch=5 n=41 v=79
43840 Off ch=5 n=41 v=64
43872 On ch=5 n=41 v=79
43936 Off ch=5 n=41 v=64
43968 On ch=5 n=41 v=79
44032 Off ch=5 n=41 v=64
44064 On ch=5 n=41 v=79
44128 Off ch=5 n=41 v=64
44160 On ch=5 n=41 v=79
44224 Off ch=5 n=41 v=64
44256 On ch=5 n=41 v=79
44320 Off ch=5 n=41 v=64
44352 On ch=5 n=41 v=79
44416 Off ch=5 n=41 v=64
44448 On ch=5 n=41 v=79
44512 Off ch=5 n=41 v=64
44544 On ch=5 n=41 v=79
44608 Off ch=5 n=41 v=64
44640 On ch=5 n=41 v=79
44704 Off ch=5 n=41 v=64
44736 On ch=5 n=41 v=79
44800 Off ch=5 n=41 v=64
44832 On ch=5 n=41 v=79
44896 Off ch=5 n=41 v=64
44928 On ch=5 n=41 v=79
44992 Off ch=5 n=41 v=64
45024 On ch=5 n=41 v=79
45088 Off ch=5 n=41 v=64
45120 On ch=5 n=41 v=79
45184 Off ch=5 n=41 v=64
45216 On ch=5 n=41 v=79
45280 Off ch=5 n=41 v=64
45312 On ch=5 n=41 v=79
45376 Off ch=5 n=41 v=64
45408 On ch=5 n=41 v=79
45472 Off ch=5 n=41 v=64
45504 On ch=5 n=41 v=79
45568 Off ch=5 n=41 v=64
45600 On ch=5 n=41 v=79
45664 Off ch=5 n=41 v=64
45696 On ch=5 n=41 v=79
45760 Off ch=5 n=41 v=64
45792 On ch=5 n=41 v=79
45856 Off ch=5 n=41 v=64
45888 On ch=5 n=41 v=79
45952 Off ch=5 n=41 v=64
45984 On ch=5 n=41 v=79
46048 Off ch=5 n=41 v=64
46080 On ch=5 n=39 v=79
46144 Off ch=5 n=39 v=64
46176 On ch=5 n=39 v=79
46240 Off ch=5 n=39 v=64
46272 On ch=5 n=39 v=79
46336 Off ch=5 n=39 v=64
46368 On ch=5 n=39 v=79
46432 Off ch=5 n=39 v=64
46464 On ch=5 n=39 v=79
46528 Off ch=5 n=39 v=64
46560 On ch=5 n=39 v=79
46624 Off ch=5 n=39 v=64
46656 On ch=5 n=39 v=79
46720 Off ch=5 n=39 v=64
46752 On ch=5 n=39 v=79
46816 Off ch=5 n=39 v=64
46848 On ch=5 n=46 v=79
46912 Off ch=5 n=46 v=64
46944 On ch=5 n=46 v=79
47008 Off ch=5 n=46 v=64
47040 On ch=5 n=46 v=79
47104 Off ch=5 n=46 v=64
47136 On ch=5 n=46 v=79
47200 Off ch=5 n=46 v=64
47232 On ch=5 n=46 v=79
47296 Off ch=5 n=46 v=64
47328 On ch=5 n=46 v=79
47392 Off ch=5 n=46 v=64
47424 On ch=5 n=46 v=79
47488 Off ch=5 n=46 v=64
47520 On ch=5 n=46 v=79
47584 Off ch=5 n=46 v=64
47616 On ch=5 n=41 v=79
47680 Off ch=5 n=41 v=64
47712 On ch=5 n=41 v=79
47776 Off ch=5 n=41 v=64
47808 On ch=5 n=41 v=79
47872 Off ch=5 n=41 v=64
47904 On ch=5 n=41 v=79
47968 Off ch=5 n=41 v=64
48000 On ch=5 n=41 v=79
48064 Off ch=5 n=41 v=64
48096 On ch=5 n=41 v=79
48160 Off ch=5 n=41 v=64
48192 On ch=5 n=41 v=79
48256 Off ch=5 n=41 v=64
48288 On ch=5 n=41 v=79
48352 Off ch=5 n=41 v=64
48384 On ch=5 n=41 v=79
48448 Off ch=5 n=41 v=64
48480 On ch=5 n=41 v=79
48544 Off ch=5 n=41 v=64
48576 On ch=5 n=41 v=79
48640 Off ch=5 n=41 v=64
48672 On ch=5 n=41 v=79
48736 Off ch=5 n=41 v=64
48768 On ch=5 n=41 v=79
48832 Off ch=5 n=41 v=64
48864 On ch=5 n=41 v=79
48928 Off ch=5 n=41 v=64
48960 On ch=5 n=41 v=79
49024 Off ch=5 n=41 v=64
49056 On ch=5 n=41 v=79
49120 Off ch=5 n=41 v=64
49152 On ch=5 n=39 v=79
49216 Off ch=5 n=39 v=64
49248 On ch=5 n=39 v=79
49312 Off ch=5 n=39 v=64
49344 On ch=5 n=39 v=79
49408 Off ch=5 n=39 v=64
49440 On ch=5 n=39 v=79
49504 Off ch=5 n=39 v=64
49536 On ch=5 n=39 v=79
49600 Off ch=5 n=39 v=64
49632 On ch=5 n=39 v=79
49696 Off ch=5 n=39 v=64
49728 On ch=5 n=39 v=79
49792 Off ch=5 n=39 v=64
49824 On ch=5 n=39 v=79
49888 Off ch=5 n=39 v=64
49920 On ch=5 n=46 v=79
49984 Off ch=5 n=46 v=64
50016 On ch=5 n=46 v=79
50080 Off ch=5 n=46 v=64
50112 On ch=5 n=46 v=79
50176 Off ch=5 n=46 v=64
50208 On ch=5 n=46 v=79
50272 Off ch=5 n=46 v=64
50304 On ch=5 n=46 v=79
50368 Off ch=5 n=46 v=64
50400 On ch=5 n=46 v=79
50464 Off ch=5 n=46 v=64
50496 On ch=5 n=46 v=79
50560 Off ch=5 n=46 v=64
50592 On ch=5 n=46 v=79
50656 Off ch=5 n=46 v=64
50688 On ch=5 n=41 v=79
50752 Off ch=5 n=41 v=64
50784 On ch=5 n=41 v=79
50848 Off ch=5 n=41 v=64
50880 On ch=5 n=41 v=79
50944 Off ch=5 n=41 v=64
50976 On ch=5 n=41 v=79
51040 Off ch=5 n=41 v=64
51072 On ch=5 n=41 v=79
51136 Off ch=5 n=41 v=64
51168 On ch=5 n=41 v=79
51232 Off ch=5 n=41 v=64
51264 On ch=5 n=41 v=79
51328 Off ch=5 n=41 v=64
51360 On ch=5 n=41 v=79
51424 Off ch=5 n=41 v=64
51456 On ch=5 n=41 v=79
51520 Off ch=5 n=41 v=64
51552 On ch=5 n=41 v=79
51616 Off ch=5 n=41 v=64
51648 On ch=5 n=41 v=79
51712 Off ch=5 n=41 v=64
51744 On ch=5 n=41 v=79
51808 Off ch=5 n=41 v=64
51840 On ch=5 n=41 v=79
51904 Off ch=5 n=41 v=64
51936 On ch=5 n=41 v=79
52000 Off ch=5 n=41 v=64
52032 On ch=5 n=41 v=79
52096 Off ch=5 n=41 v=64
52128 On ch=5 n=41 v=79
52192 Off ch=5 n=41 v=64
52224 On ch=5 n=39 v=79
52288 Off ch=5 n=39 v=64
52320 On ch=5 n=39 v=79
52384 Off ch=5 n=39 v=64
52416 On ch=5 n=39 v=79
52480 Off ch=5 n=39 v=64
52512 On ch=5 n=39 v=79
52576 Off ch=5 n=39 v=64
52608 On ch=5 n=39 v=79
52672 Off ch=5 n=39 v=64
52704 On ch=5 n=39 v=79
52768 Off ch=5 n=39 v=64
52800 On ch=5 n=39 v=79
52864 Off ch=5 n=39 v=64
52896 On ch=5 n=39 v=79
52960 Off ch=5 n=39 v=64
52992 On ch=5 n=46 v=79
53056 Off ch=5 n=46 v=64
53088 On ch=5 n=46 v=79
53152 Off ch=5 n=46 v=64
53184 On ch=5 n=46 v=79
53248 Off ch=5 n=46 v=64
53280 On ch=5 n=46 v=79
53344 Off ch=5 n=46 v=64
53376 On ch=5 n=46 v=79
53440 Off ch=5 n=46 v=64
53472 On ch=5 n=46 v=79
53536 Off ch=5 n=46 v=64
53568 On ch=5 n=46 v=79
53632 Off ch=5 n=46 v=64
53664 On ch=5 n=46 v=79
53728 Off ch=5 n=46 v=64
53760 On ch=5 n=41 v=79
53824 Off ch=5 n=41 v=64
53856 On ch=5 n=41 v=79
53920 Off ch=5 n=41 v=64
53952 On ch=5 n=41 v=79
54016 Off ch=5 n=41 v=64
54048 On ch=5 n=41 v=79
54112 Off ch=5 n=41 v=64
54144 On ch=5 n=41 v=79
54208 Off ch=5 n=41 v=64
54240 On ch=5 n=41 v=79
54304 Off ch=5 n=41 v=64
54336 On ch=5 n=41 v=79
54400 Off ch=5 n=41 v=64
54432 On ch=5 n=41 v=79
54496 Off ch=5 n=41 v=64
54528 On ch=5 n=41 v=79
54592 Off ch=5 n=41 v=64
54624 On ch=5 n=41 v=79
54688 Off ch=5 n=41 v=64
54720 On ch=5 n=41 v=79
54784 Off ch=5 n=41 v=64
54816 On ch=5 n=41 v=79
54880 Off ch=5 n=41 v=64
54912 On ch=5 n=41 v=79
54976 Off ch=5 n=41 v=64
55008 On ch=5 n=41 v=79
55072 Off ch=5 n=41 v=64
55104 On ch=5 n=41 v=79
55168 Off ch=5 n=41 v=64
55200 On ch=5 n=41 v=79
55264 Off ch=5 n=41 v=64
55296 Par ch=5 c=7 v=96
55296 On ch=5 n=39 v=79
55360 Off ch=5 n=39 v=64
55392 Par ch=5 c=7 v=95
55392 On ch=5 n=39 v=79
55456 Off ch=5 n=39 v=64
55488 Par ch=5 c=7 v=94
55488 On ch=5 n=39 v=79
55552 Off ch=5 n=39 v=64
55560 Par ch=5 c=7 v=93
55584 On ch=5 n=39 v=79
55648 Off ch=5 n=39 v=64
55656 Par ch=5 c=7 v=92
55680 On ch=5 n=39 v=79
55744 Off ch=5 n=39 v=64
55752 Par ch=5 c=7 v=91
55776 On ch=5 n=39 v=79
55824 Par ch=5 c=7 v=90
55840 Off ch=5 n=39 v=64
55872 On ch=5 n=39 v=79
55920 Par ch=5 c=7 v=89
55936 Off ch=5 n=39 v=64
55968 On ch=5 n=39 v=79
56016 Par ch=5 c=7 v=88
56032 Off ch=5 n=39 v=64
56064 On ch=5 n=46 v=79
56088 Par ch=5 c=7 v=87
56128 Off ch=5 n=46 v=64
56160 On ch=5 n=46 v=79
56184 Par ch=5 c=7 v=86
56224 Off ch=5 n=46 v=64
56256 On ch=5 n=46 v=79
56280 Par ch=5 c=7 v=85
56320 Off ch=5 n=46 v=64
56352 Par ch=5 c=7 v=84
56352 On ch=5 n=46 v=79
56416 Off ch=5 n=46 v=64
56448 Par ch=5 c=7 v=83
56448 On ch=5 n=46 v=79
56512 Off ch=5 n=46 v=64
56544 Par ch=5 c=7 v=82
56544 On ch=5 n=46 v=79
56608 Off ch=5 n=46 v=64
56616 Par ch=5 c=7 v=81
56640 On ch=5 n=46 v=79
56704 Off ch=5 n=46 v=64
56712 Par ch=5 c=7 v=80
56736 On ch=5 n=46 v=79
56800 Off ch=5 n=46 v=64
56808 Par ch=5 c=7 v=79
56832 On ch=5 n=41 v=79
56880 Par ch=5 c=7 v=78
56896 Off ch=5 n=41 v=64
56928 On ch=5 n=41 v=79
56976 Par ch=5 c=7 v=77
56992 Off ch=5 n=41 v=64
57024 On ch=5 n=41 v=79
57072 Par ch=5 c=7 v=76
57088 Off ch=5 n=41 v=64
57120 On ch=5 n=41 v=79
57144 Par ch=5 c=7 v=75
57184 Off ch=5 n=41 v=64
57216 On ch=5 n=41 v=79
57240 Par ch=5 c=7 v=74
57280 Off ch=5 n=41 v=64
57312 On ch=5 n=41 v=79
57336 Par ch=5 c=7 v=73
57376 Off ch=5 n=41 v=64
57408 Par ch=5 c=7 v=72
57408 On ch=5 n=41 v=79
57472 Off ch=5 n=41 v=64
57504 Par ch=5 c=7 v=71
57504 On ch=5 n=41 v=79
57568 Off ch=5 n=41 v=64
57600 Par ch=5 c=7 v=70
57600 On ch=5 n=41 v=79
57664 Off ch=5 n=41 v=64
57672 Par ch=5 c=7 v=69
57696 On ch=5 n=41 v=79
57760 Off ch=5 n=41 v=64
57768 Par ch=5 c=7 v=68
57792 On ch=5 n=41 v=79
57856 Off ch=5 n=41 v=64
57864 Par ch=5 c=7 v=67
57888 On ch=5 n=41 v=79
57936 Par ch=5 c=7 v=66
57952 Off ch=5 n=41 v=64
57984 On ch=5 n=41 v=79
58032 Par ch=5 c=7 v=65
58048 Off ch=5 n=41 v=64
58080 On ch=5 n=41 v=79
58128 Par ch=5 c=7 v=64
58144 Off ch=5 n=41 v=64
58176 On ch=5 n=41 v=79
58200 Par ch=5 c=7 v=63
58240 Off ch=5 n=41 v=64
58272 On ch=5 n=41 v=79
58296 Par ch=5 c=7 v=62
58336 Off ch=5 n=41 v=64
58368 On ch=5 n=39 v=79
58392 Par ch=5 c=7 v=61
58432 Off ch=5 n=39 v=64
58464 Par ch=5 c=7 v=60
58464 On ch=5 n=39 v=79
58528 Off ch=5 n=39 v=64
58560 Par ch=5 c=7 v=59
58560 On ch=5 n=39 v=79
58624 Off ch=5 n=39 v=64
58656 Par ch=5 c=7 v=58
58656 On ch=5 n=39 v=79
58720 Off ch=5 n=39 v=64
58728 Par ch=5 c=7 v=57
58752 On ch=5 n=39 v=79
58816 Off ch=5 n=39 v=64
58824 Par ch=5 c=7 v=56
58848 On ch=5 n=39 v=79
58912 Off ch=5 n=39 v=64
58920 Par ch=5 c=7 v=55
58944 On ch=5 n=39 v=79
58992 Par ch=5 c=7 v=54
59008 Off ch=5 n=39 v=64
59040 On ch=5 n=39 v=79
59088 Par ch=5 c=7 v=53
59104 Off ch=5 n=39 v=64
59136 On ch=5 n=46 v=79
59184 Par ch=5 c=7 v=52
59200 Off ch=5 n=46 v=64
59232 On ch=5 n=46 v=79
59256 Par ch=5 c=7 v=51
59296 Off ch=5 n=46 v=64
59328 On ch=5 n=46 v=79
59352 Par ch=5 c=7 v=50
59392 Off ch=5 n=46 v=64
59424 On ch=5 n=46 v=79
59448 Par ch=5 c=7 v=49
59488 Off ch=5 n=46 v=64
59520 Par ch=5 c=7 v=48
59520 On ch=5 n=46 v=79
59584 Off ch=5 n=46 v=64
59616 Par ch=5 c=7 v=47
59616 On ch=5 n=46 v=79
59680 Off ch=5 n=46 v=64
59712 Par ch=5 c=7 v=46
59712 On ch=5 n=46 v=79
59776 Off ch=5 n=46 v=64
59784 Par ch=5 c=7 v=45
59808 On ch=5 n=46 v=79
59872 Off ch=5 n=46 v=64
59880 Par ch=5 c=7 v=44
59904 On ch=5 n=41 v=79
59968 Off ch=5 n=41 v=64
59976 Par ch=5 c=7 v=43
60000 On ch=5 n=41 v=79
60048 Par ch=5 c=7 v=42
60064 Off ch=5 n=41 v=64
60096 On ch=5 n=41 v=79
60144 Par ch=5 c=7 v=41
60160 Off ch=5 n=41 v=64
60192 On ch=5 n=41 v=79
60240 Par ch=5 c=7 v=40
60256 Off ch=5 n=41 v=64
60288 On ch=5 n=41 v=79
60312 Par ch=5 c=7 v=39
60352 Off ch=5 n=41 v=64
60384 On ch=5 n=41 v=79
60408 Par ch=5 c=7 v=38
60448 Off ch=5 n=41 v=64
60480 On ch=5 n=41 v=79
60504 Par ch=5 c=7 v=37
60544 Off ch=5 n=41 v=64
60576 Par ch=5 c=7 v=36
60576 On ch=5 n=41 v=79
60640 Off ch=5 n=41 v=64
60672 Par ch=5 c=7 v=35
60672 On ch=5 n=41 v=79
60736 Off ch=5 n=41 v=64
60768 Par ch=5 c=7 v=34
60768 On ch=5 n=41 v=79
60832 Off ch=5 n=41 v=64
60840 Par ch=5 c=7 v=33
60864 On ch=5 n=41 v=79
60928 Off ch=5 n=41 v=64
60936 Par ch=5 c=7 v=32
60960 On ch=5 n=41 v=79
61024 Off ch=5 n=41 v=64
61032 Par ch=5 c=7 v=31
61056 On ch=5 n=41 v=79
61104 Par ch=5 c=7 v=30
61120 Off ch=5 n=41 v=64
61152 On ch=5 n=41 v=79
61200 Par ch=5 c=7 v=29
61216 Off ch=5 n=41 v=64
61248 On ch=5 n=41 v=79
61296 Par ch=5 c=7 v=28
61312 Off ch=5 n=41 v=64
61344 On ch=5 n=41 v=79
61368 Par ch=5 c=7 v=27
61408 Off ch=5 n=41 v=64
61440 On ch=5 n=39 v=79
61464 Par ch=5 c=7 v=26
61504 Off ch=5 n=39 v=64
61536 On ch=5 n=39 v=79
61560 Par ch=5 c=7 v=25
61600 Off ch=5 n=39 v=64
61632 Par ch=5 c=7 v=24
61632 On ch=5 n=39 v=79
61696 Off ch=5 n=39 v=64
61728 Par ch=5 c=7 v=23
61728 On ch=5 n=39 v=79
61792 Off ch=5 n=39 v=64
61824 Par ch=5 c=7 v=22
61824 On ch=5 n=39 v=79
61888 Off ch=5 n=39 v=64
61896 Par ch=5 c=7 v=21
61920 On ch=5 n=39 v=79
61984 Off ch=5 n=39 v=64
61992 Par ch=5 c=7 v=20
62016 On ch=5 n=39 v=79
62080 Off ch=5 n=39 v=64
62088 Par ch=5 c=7 v=19
62112 On ch=5 n=39 v=79
62160 Par ch=5 c=7 v=18
62176 Off ch=5 n=39 v=64
62208 On ch=5 n=46 v=79
62256 Par ch=5 c=7 v=17
62272 Off ch=5 n=46 v=64
62304 On ch=5 n=46 v=79
62352 Par ch=5 c=7 v=16
62368 Off ch=5 n=46 v=64
62400 On ch=5 n=46 v=79
62424 Par ch=5 c=7 v=15
62464 Off ch=5 n=46 v=64
62496 On ch=5 n=46 v=79
62520 Par ch=5 c=7 v=14
62560 Off ch=5 n=46 v=64
62592 On ch=5 n=46 v=79
62616 Par ch=5 c=7 v=13
62656 Off ch=5 n=46 v=64
62688 Par ch=5 c=7 v=12
62688 On ch=5 n=46 v=79
62752 Off ch=5 n=46 v=64
62784 Par ch=5 c=7 v=11
62784 On ch=5 n=46 v=79
62848 Off ch=5 n=46 v=64
62880 Par ch=5 c=7 v=10
62880 On ch=5 n=46 v=79
62944 Off ch=5 n=46 v=64
62952 Par ch=5 c=7 v=9
62976 On ch=5 n=41 v=79
63040 Off ch=5 n=41 v=64
63048 Par ch=5 c=7 v=8
63072 On ch=5 n=41 v=79
63136 Off ch=5 n=41 v=64
63144 Par ch=5 c=7 v=7
63168 On ch=5 n=41 v=79
63216 Par ch=5 c=7 v=6
63232 Off ch=5 n=41 v=64
63264 On ch=5 n=41 v=79
63312 Par ch=5 c=7 v=5
63328 Off ch=5 n=41 v=64
63360 On ch=5 n=41 v=79
63408 Par ch=5 c=7 v=4
63424 Off ch=5 n=41 v=64
63456 On ch=5 n=41 v=79
63480 Par ch=5 c=7 v=3
63520 Off ch=5 n=41 v=64
63552 On ch=5 n=41 v=79
63576 Par ch=5 c=7 v=2
63616 Off ch=5 n=41 v=64
63648 On ch=5 n=41 v=79
63672 Par ch=5 c=7 v=1
63712 Off ch=5 n=41 v=64
63744 Par ch=5 c=7 v=0
63744 Meta TrkEnd
TrkEnd
MTrk
0 Meta 0x21 00
0 Meta TrkName "Chords              "
0 PrCh ch=6 p=45
0 Par ch=6 c=7 v=71
0 Par ch=6 c=10 v=63
0 Pb ch=6 v=8192
0 Par ch=6 c=1 v=0
0 Par ch=6 c=64 v=0
192 Par ch=6 c=7 v=70
22656 PrCh ch=6 p=45
22656 On ch=6 n=65 v=63
22656 On ch=6 n=60 v=63
22656 On ch=6 n=69 v=63
23424 Off ch=6 n=65 v=64
23424 Off ch=6 n=69 v=64
23424 On ch=6 n=64 v=79
23424 On ch=6 n=67 v=79
24192 On ch=6 n=70 v=79
24384 Off ch=6 n=67 v=64
24384 Off ch=6 n=64 v=64
24384 Off ch=6 n=70 v=64
24384 On ch=6 n=65 v=79
24384 On ch=6 n=67 v=79
24768 Off ch=6 n=65 v=64
24768 On ch=6 n=64 v=79
24768 On ch=6 n=70 v=79
24960 Off ch=6 n=67 v=64
24960 Off ch=6 n=64 v=64
24960 Off ch=6 n=70 v=64
24960 On ch=6 n=65 v=79
24960 On ch=6 n=69 v=79
25728 Off ch=6 n=60 v=64
25728 Off ch=6 n=69 v=64
25728 On ch=6 n=62 v=79
25728 On ch=6 n=58 v=79
26496 Off ch=6 n=62 v=64
26496 Off ch=6 n=58 v=64
26496 On ch=6 n=60 v=79
26496 On ch=6 n=69 v=79
27264 Off ch=6 n=65 v=64
27264 Off ch=6 n=69 v=64
27264 On ch=6 n=64 v=63
27264 On ch=6 n=67 v=63
27264 On ch=6 n=70 v=63
28032 Off ch=6 n=60 v=64
28032 Off ch=6 n=64 v=64
28032 Off ch=6 n=67 v=64
28032 Off ch=6 n=70 v=64
28032 On ch=6 n=65 v=63
28032 On ch=6 n=69 v=63
28032 On ch=6 n=72 v=63
28800 On ch=6 n=75 v=63
29568 Off ch=6 n=72 v=64
29568 Off ch=6 n=69 v=64
29568 Off ch=6 n=75 v=64
29568 On ch=6 n=58 v=63
29568 On ch=6 n=62 v=63
30336 Off ch=6 n=65 v=64
30336 On ch=6 n=55 v=63
30336 On ch=6 n=65 v=63
31104 Off ch=6 n=62 v=64
31104 Off ch=6 n=58 v=64
31104 Off ch=6 n=55 v=64
31104 Off ch=6 n=65 v=64
31104 On ch=6 n=60 v=63
31104 On ch=6 n=64 v=63
31104 On ch=6 n=67 v=63
31104 On ch=6 n=70 v=63
31872 Off ch=6 n=60 v=64
31872 Off ch=6 n=64 v=64
31872 Off ch=6 n=67 v=64
31872 Off ch=6 n=70 v=64
31872 On ch=6 n=65 v=63
31872 On ch=6 n=69 v=63
31872 On ch=6 n=72 v=63
32640 On ch=6 n=75 v=79
33408 Off ch=6 n=72 v=64
33408 Off ch=6 n=69 v=64
33408 Off ch=6 n=75 v=64
33408 On ch=6 n=58 v=79
33408 On ch=6 n=62 v=79
34176 On ch=6 n=55 v=79
34944 Off ch=6 n=62 v=64
34944 Off ch=6 n=58 v=64
34944 Off ch=6 n=65 v=64
34944 Off ch=6 n=55 v=64
34944 On ch=6 n=60 v=63
34944 On ch=6 n=64 v=63
34944 On ch=6 n=67 v=63
34944 On ch=6 n=70 v=63
35712 Off ch=6 n=60 v=64
35712 Off ch=6 n=64 v=64
35712 Off ch=6 n=67 v=64
35712 Off ch=6 n=70 v=64
35712 On ch=6 n=65 v=79
35712 On ch=6 n=69 v=79
35712 On ch=6 n=72 v=79
36480 On ch=6 n=75 v=79
36864 Off ch=6 n=69 v=64
36864 Off ch=6 n=65 v=64
36864 Off ch=6 n=75 v=64
36864 On ch=6 n=64 v=79
36864 On ch=6 n=67 v=79
36864 On ch=6 n=70 v=79
37536 On ch=6 n=78 v=79
37632 Off ch=6 n=78 v=64
37632 On ch=6 n=79 v=79
37728 Off ch=6 n=79 v=64
37728 On ch=6 n=81 v=79
37824 Off ch=6 n=81 v=64
37824 On ch=6 n=82 v=79
38016 Off ch=6 n=70 v=64
38016 Off ch=6 n=67 v=64
38016 Off ch=6 n=64 v=64
38016 Off ch=6 n=72 v=64
38016 Off ch=6 n=82 v=64
38016 On ch=6 n=79 v=79
38016 On ch=6 n=82 v=79
38400 Off ch=6 n=79 v=64
38400 Off ch=6 n=82 v=64
38400 On ch=6 n=69 v=79
38400 On ch=6 n=65 v=79
38400 On ch=6 n=72 v=79
39168 Off ch=6 n=69 v=64
39168 Off ch=6 n=65 v=64
39168 Off ch=6 n=72 v=64
39168 On ch=6 n=67 v=79
39168 On ch=6 n=64 v=79
39168 On ch=6 n=72 v=79
39936 Off ch=6 n=67 v=64
39936 Off ch=6 n=64 v=64
39936 Off ch=6 n=72 v=64
39936 On ch=6 n=64 v=79
39936 On ch=6 n=67 v=79
39936 On ch=6 n=60 v=79
39936 On ch=6 n=70 v=79
40128 Off ch=6 n=64 v=64
40128 Off ch=6 n=67 v=64
40128 Off ch=6 n=70 v=64
40128 On ch=6 n=65 v=79
40128 On ch=6 n=67 v=79
40512 Off ch=6 n=65 v=64
40512 Off ch=6 n=67 v=64
40512 On ch=6 n=64 v=79
40512 On ch=6 n=67 v=79
40512 On ch=6 n=70 v=79
40704 Off ch=6 n=60 v=64
40704 Off ch=6 n=64 v=64
40704 Off ch=6 n=67 v=64
40704 Off ch=6 n=70 v=64
40704 On ch=6 n=69 v=79
40704 On ch=6 n=65 v=79
40704 On ch=6 n=72 v=79
41472 Off ch=6 n=69 v=64
41472 Off ch=6 n=65 v=64
41472 Off ch=6 n=72 v=64
41472 On ch=6 n=65 v=79
41472 On ch=6 n=62 v=79
41472 On ch=6 n=70 v=79
42240 Off ch=6 n=65 v=64
42240 Off ch=6 n=62 v=64
42240 Off ch=6 n=70 v=64
42240 On ch=6 n=69 v=79
42240 On ch=6 n=65 v=79
42240 On ch=6 n=72 v=79
43008 Off ch=6 n=69 v=64
43008 Off ch=6 n=65 v=64
43008 Off ch=6 n=72 v=64
43008 On ch=6 n=60 v=79
43008 On ch=6 n=64 v=79
43008 On ch=6 n=67 v=79
43008 On ch=6 n=70 v=79
43776 Off ch=6 n=60 v=64
43776 Off ch=6 n=64 v=64
43776 Off ch=6 n=67 v=64
43776 Off ch=6 n=70 v=64
43776 On ch=6 n=65 v=79
43776 On ch=6 n=69 v=79
43776 On ch=6 n=72 v=79
45312 Off ch=6 n=72 v=64
45312 Off ch=6 n=69 v=64
45312 Off ch=6 n=65 v=64
45312 On ch=6 n=65 v=79
45312 On ch=6 n=69 v=79
45312 On ch=6 n=72 v=79
46080 Off ch=6 n=65 v=64
46080 Off ch=6 n=69 v=64
46080 Off ch=6 n=72 v=64
46080 On ch=6 n=63 v=79
46080 On ch=6 n=67 v=79
46080 On ch=6 n=70 v=79
46848 Off ch=6 n=63 v=64
46848 Off ch=6 n=67 v=64
46848 On ch=6 n=62 v=79
46848 On ch=6 n=65 v=79
47616 Off ch=6 n=70 v=64
47616 Off ch=6 n=62 v=64
47616 On ch=6 n=69 v=79
47616 On ch=6 n=72 v=79
48384 Off ch=6 n=65 v=64
48384 Off ch=6 n=69 v=64
48384 Off ch=6 n=72 v=64
48384 On ch=6 n=65 v=79
48384 On ch=6 n=69 v=79
48384 On ch=6 n=72 v=79
49152 Off ch=6 n=65 v=64
49152 Off ch=6 n=69 v=64
49152 Off ch=6 n=72 v=64
49152 On ch=6 n=63 v=79
49152 On ch=6 n=67 v=79
49152 On ch=6 n=70 v=79
49920 Off ch=6 n=63 v=64
49920 Off ch=6 n=67 v=64
49920 On ch=6 n=62 v=79
49920 On ch=6 n=65 v=79
50688 Off ch=6 n=70 v=64
50688 Off ch=6 n=62 v=64
50688 On ch=6 n=69 v=79
50688 On ch=6 n=72 v=79
51456 Off ch=6 n=65 v=64
51456 Off ch=6 n=69 v=64
51456 Off ch=6 n=72 v=64
51456 On ch=6 n=65 v=79
51456 On ch=6 n=69 v=79
51456 On ch=6 n=72 v=79
52224 Off ch=6 n=65 v=64
52224 Off ch=6 n=69 v=64
52224 Off ch=6 n=72 v=64
52224 On ch=6 n=63 v=79
52224 On ch=6 n=67 v=79
52224 On ch=6 n=70 v=79
52992 Off ch=6 n=63 v=64
52992 Off ch=6 n=67 v=64
52992 On ch=6 n=62 v=79
52992 On ch=6 n=65 v=79
53760 Off ch=6 n=70 v=64
53760 Off ch=6 n=62 v=64
53760 On ch=6 n=69 v=79
53760 On ch=6 n=72 v=79
54528 Off ch=6 n=65 v=64
54528 Off ch=6 n=69 v=64
54528 Off ch=6 n=72 v=64
54528 On ch=6 n=65 v=79
54528 On ch=6 n=69 v=79
54528 On ch=6 n=72 v=79
55296 Off ch=6 n=65 v=64
55296 Off ch=6 n=69 v=64
55296 Off ch=6 n=72 v=64
55296 Par ch=6 c=7 v=71
55296 On ch=6 n=63 v=79
55296 On ch=6 n=67 v=79
55296 On ch=6 n=70 v=79
55416 Par ch=6 c=7 v=70
55536 Par ch=6 c=7 v=69
55656 Par ch=6 c=7 v=68
55776 Par ch=6 c=7 v=67
55896 Par ch=6 c=7 v=66
56016 Par ch=6 c=7 v=65
56064 Off ch=6 n=63 v=64
56064 Off ch=6 n=67 v=64
56064 On ch=6 n=62 v=79
56064 On ch=6 n=65 v=79
56136 Par ch=6 c=7 v=64
56256 Par ch=6 c=7 v=63
56376 Par ch=6 c=7 v=62
56496 Par ch=6 c=7 v=61
56616 Par ch=6 c=7 v=60
56736 Par ch=6 c=7 v=59
56832 Off ch=6 n=70 v=64
56832 Off ch=6 n=62 v=64
56832 On ch=6 n=69 v=79
56832 On ch=6 n=72 v=79
56856 Par ch=6 c=7 v=58
56976 Par ch=6 c=7 v=57
57096 Par ch=6 c=7 v=56
57216 Par ch=6 c=7 v=55
57336 Par ch=6 c=7 v=54
57456 Par ch=6 c=7 v=53
57576 Par ch=6 c=7 v=52
57600 Off ch=6 n=65 v=64
57600 Off ch=6 n=69 v=64
57600 Off ch=6 n=72 v=64
57600 On ch=6 n=65 v=79
57600 On ch=6 n=69 v=79
57600 On ch=6 n=72 v=79
57696 Par ch=6 c=7 v=51
57816 Par ch=6 c=7 v=50
57936 Par ch=6 c=7 v=49
58056 Par ch=6 c=7 v=48
58152 Par ch=6 c=7 v=47
58272 Par ch=6 c=7 v=46
58368 Off ch=6 n=65 v=64
58368 Off ch=6 n=69 v=64
58368 Off ch=6 n=72 v=64
58368 On ch=6 n=63 v=79
58368 On ch=6 n=67 v=79
58368 On ch=6 n=70 v=79
58392 Par ch=6 c=7 v=45
58512 Par ch=6 c=7 v=44
58632 Par ch=6 c=7 v=43
58752 Par ch=6 c=7 v=42
58872 Par ch=6 c=7 v=41
58992 Par ch=6 c=7 v=40
59112 Par ch=6 c=7 v=39
59136 Off ch=6 n=63 v=64
59136 Off ch=6 n=67 v=64
59136 On ch=6 n=62 v=79
59136 On ch=6 n=65 v=79
59232 Par ch=6 c=7 v=38
59352 Par ch=6 c=7 v=37
59472 Par ch=6 c=7 v=36
59592 Par ch=6 c=7 v=35
59712 Par ch=6 c=7 v=34
59832 Par ch=6 c=7 v=33
59904 Off ch=6 n=70 v=64
59904 Off ch=6 n=62 v=64
59904 On ch=6 n=69 v=79
59904 On ch=6 n=72 v=79
59952 Par ch=6 c=7 v=32
60072 Par ch=6 c=7 v=31
60192 Par ch=6 c=7 v=30
60312 Par ch=6 c=7 v=29
60432 Par ch=6 c=7 v=28
60552 Par ch=6 c=7 v=27
60672 Off ch=6 n=65 v=64
60672 Off ch=6 n=69 v=64
60672 Off ch=6 n=72 v=64
60672 Par ch=6 c=7 v=26
60672 On ch=6 n=65 v=79
60672 On ch=6 n=69 v=79
60672 On ch=6 n=72 v=79
60792 Par ch=6 c=7 v=25
60912 Par ch=6 c=7 v=24
61008 Par ch=6 c=7 v=23
61128 Par ch=6 c=7 v=22
61248 Par ch=6 c=7 v=21
61368 Par ch=6 c=7 v=20
61440 Off ch=6 n=65 v=64
61440 Off ch=6 n=69 v=64
61440 Off ch=6 n=72 v=64
61440 On ch=6 n=63 v=79
61440 On ch=6 n=67 v=79
61440 On ch=6 n=70 v=79
61488 Par ch=6 c=7 v=19
61608 Par ch=6 c=7 v=18
61728 Par ch=6 c=7 v=17
61848 Par ch=6 c=7 v=16
61968 Par ch=6 c=7 v=15
62088 Par ch=6 c=7 v=14
62208 Off ch=6 n=63 v=64
62208 Off ch=6 n=67 v=64
62208 Par ch=6 c=7 v=13
62208 On ch=6 n=62 v=79
62208 On ch=6 n=65 v=79
62328 Par ch=6 c=7 v=12
62448 Par ch=6 c=7 v=11
62568 Par ch=6 c=7 v=10
62688 Par ch=6 c=7 v=9
62808 Par ch=6 c=7 v=8
62928 Par ch=6 c=7 v=7
62976 Off ch=6 n=70 v=64
62976 Off ch=6 n=62 v=64
62976 On ch=6 n=69 v=79
62976 On ch=6 n=72 v=79
63048 Par ch=6 c=7 v=6
63168 Par ch=6 c=7 v=5
63288 Par ch=6 c=7 v=4
63408 Par ch=6 c=7 v=3
63528 Par ch=6 c=7 v=2
63648 Par ch=6 c=7 v=1
63744 Off ch=6 n=65 v=64
63744 Off ch=6 n=69 v=64
63744 Off ch=6 n=72 v=64
63744 Meta TrkEnd
TrkEnd
MTrk
0 Meta 0x21 00
0 Meta TrkName "Rhythm&SE           "
0 PrCh ch=10 p=0
0 Par ch=10 c=7 v=77
0 Par ch=10 c=10 v=64
0 Pb ch=10 v=8192
0 Par ch=10 c=1 v=0
0 Par ch=10 c=64 v=0
192 Par ch=10 c=7 v=77
768 On ch=10 n=36 v=106
772 Off ch=10 n=36 v=64
960 On ch=10 n=38 v=127
964 Off ch=10 n=38 v=64
1152 On ch=10 n=36 v=106
1156 Off ch=10 n=36 v=64
1344 On ch=10 n=38 v=127
1348 Off ch=10 n=38 v=64
1536 On ch=10 n=36 v=106
1540 Off ch=10 n=36 v=64
1728 On ch=10 n=38 v=127
1732 Off ch=10 n=38 v=64
1920 On ch=10 n=36 v=106
1924 Off ch=10 n=36 v=64
2112 On ch=10 n=38 v=127
2116 Off ch=10 n=38 v=64
2304 On ch=10 n=36 v=106
2308 Off ch=10 n=36 v=64
2496 On ch=10 n=38 v=127
2500 Off ch=10 n=38 v=64
2688 On ch=10 n=36 v=106
2692 Off ch=10 n=36 v=64
2880 On ch=10 n=38 v=127
2884 Off ch=10 n=38 v=64
3072 On ch=10 n=36 v=106
3076 Off ch=10 n=36 v=64
3264 On ch=10 n=38 v=127
3268 Off ch=10 n=38 v=64
3456 On ch=10 n=36 v=106
3460 Off ch=10 n=36 v=64
3648 On ch=10 n=38 v=127
3652 Off ch=10 n=38 v=64
3840 On ch=10 n=36 v=106
3844 Off ch=10 n=36 v=64
4032 On ch=10 n=38 v=127
4036 Off ch=10 n=38 v=64
4224 On ch=10 n=36 v=106
4228 Off ch=10 n=36 v=64
4416 On ch=10 n=38 v=127
4420 Off ch=10 n=38 v=64
4608 On ch=10 n=36 v=106
4612 Off ch=10 n=36 v=64
4800 On ch=10 n=38 v=127
4804 Off ch=10 n=38 v=64
4992 On ch=10 n=36 v=106
4996 Off ch=10 n=36 v=64
5184 On ch=10 n=38 v=127
5188 Off ch=10 n=38 v=64
5376 On ch=10 n=36 v=106
5380 Off ch=10 n=36 v=64
5568 On ch=10 n=38 v=127
5572 Off ch=10 n=38 v=64
5760 On ch=10 n=36 v=106
5764 Off ch=10 n=36 v=64
5952 On ch=10 n=38 v=127
5956 Off ch=10 n=38 v=64
6144 On ch=10 n=36 v=106
6148 Off ch=10 n=36 v=64
6336 On ch=10 n=38 v=127
6340 Off ch=10 n=38 v=64
6528 On ch=10 n=36 v=106
6532 Off ch=10 n=36 v=64
6912 On ch=10 n=36 v=106
6912 On ch=10 n=42 v=106
6916 Off ch=10 n=36 v=64
6916 Off ch=10 n=42 v=64
7008 On ch=10 n=42 v=84
7012 Off ch=10 n=42 v=64
7104 On ch=10 n=38 v=127
7104 On ch=10 n=42 v=106
7108 Off ch=10 n=38 v=64
7108 Off ch=10 n=42 v=64
7200 On ch=10 n=42 v=84
7204 Off ch=10 n=42 v=64
7296 On ch=10 n=36 v=106
7296 On ch=10 n=42 v=106
7300 Off ch=10 n=36 v=64
7300 Off ch=10 n=42 v=64
7392 On ch=10 n=42 v=84
7396 Off ch=10 n=42 v=64
7488 On ch=10 n=38 v=127
7488 On ch=10 n=42 v=106
7492 Off ch=10 n=38 v=64
7492 Off ch=10 n=42 v=64
7584 On ch=10 n=42 v=84
7588 Off ch=10 n=42 v=64
7680 On ch=10 n=36 v=106
7680 On ch=10 n=42 v=106
7684 Off ch=10 n=36 v=64
7684 Off ch=10 n=42 v=64
7776 On ch=10 n=42 v=84
7780 Off ch=10 n=42 v=64
7872 On ch=10 n=38 v=127
7872 On ch=10 n=42 v=106
7876 Off ch=10 n=38 v=64
7876 Off ch=10 n=42 v=64
7968 On ch=10 n=42 v=84
7972 Off ch=10 n=42 v=64
8064 On ch=10 n=36 v=106
8064 On ch=10 n=42 v=106
8068 Off ch=10 n=36 v=64
8068 Off ch=10 n=42 v=64
8160 On ch=10 n=42 v=84
8164 Off ch=10 n=42 v=64
8256 On ch=10 n=38 v=127
8256 On ch=10 n=42 v=106
8260 Off ch=10 n=38 v=64
8260 Off ch=10 n=42 v=64
8352 On ch=10 n=42 v=84
8356 Off ch=10 n=42 v=64
8448 On ch=10 n=36 v=106
8448 On ch=10 n=42 v=106
8452 Off ch=10 n=36 v=64
8452 Off ch=10 n=42 v=64
8544 On ch=10 n=42 v=84
8548 Off ch=10 n=42 v=64
8640 On ch=10 n=38 v=127
8640 On ch=10 n=42 v=106
8644 Off ch=10 n=38 v=64
8644 Off ch=10 n=42 v=64
8736 On ch=10 n=42 v=84
8740 Off ch=10 n=42 v=64
8832 On ch=10 n=36 v=106
8832 On ch=10 n=42 v=106
8836 Off ch=10 n=36 v=64
8836 Off ch=10 n=42 v=64
8928 On ch=10 n=42 v=84
8932 Off ch=10 n=42 v=64
9024 On ch=10 n=38 v=127
9024 On ch=10 n=42 v=106
9028 Off ch=10 n=38 v=64
9028 Off ch=10 n=42 v=64
9120 On ch=10 n=42 v=84
9124 Off ch=10 n=42 v=64
9216 On ch=10 n=36 v=106
9216 On ch=10 n=42 v=106
9220 Off ch=10 n=36 v=64
9220 Off ch=10 n=42 v=64
9312 On ch=10 n=42 v=84
9316 Off ch=10 n=42 v=64
9408 On ch=10 n=38 v=127
9408 On ch=10 n=42 v=106
9412 Off ch=10 n=38 v=64
9412 Off ch=10 n=42 v=64
9504 On ch=10 n=42 v=84
9508 Off ch=10 n=42 v=64
9600 On ch=10 n=36 v=106
9600 On ch=10 n=42 v=106
9604 Off ch=10 n=36 v=64
9604 Off ch=10 n=42 v=64
9696 On ch=10 n=42 v=84
9700 Off ch=10 n=42 v=64
9792 On ch=10 n=38 v=127
9792 On ch=10 n=42 v=106
9796 Off ch=10 n=38 v=64
9796 Off ch=10 n=42 v=64
9888 On ch=10 n=36 v=106
9888 On ch=10 n=42 v=84
9892 Off ch=10 n=36 v=64
9892 Off ch=10 n=42 v=64
9984 On ch=10 n=36 v=106
9984 On ch=10 n=42 v=106
9988 Off ch=10 n=36 v=64
9988 Off ch=10 n=42 v=64
10080 On ch=10 n=42 v=84
10084 Off ch=10 n=42 v=64
10176 On ch=10 n=38 v=127
10176 On ch=10 n=42 v=106
10180 Off ch=10 n=38 v=64
10180 Off ch=10 n=42 v=64
10272 On ch=10 n=42 v=84
10276 Off ch=10 n=42 v=64
10368 On ch=10 n=36 v=106
10368 On ch=10 n=42 v=106
10372 Off ch=10 n=36 v=64
10372 Off ch=10 n=42 v=64
10464 On ch=10 n=42 v=84
10468 Off ch=10 n=42 v=64
10560 On ch=10 n=38 v=127
10560 On ch=10 n=42 v=106
10564 Off ch=10 n=38 v=64
10564 Off ch=10 n=42 v=64
10656 On ch=10 n=42 v=84
10660 Off ch=10 n=42 v=64
10752 On ch=10 n=36 v=106
10752 On ch=10 n=42 v=106
10756 Off ch=10 n=36 v=64
10756 Off ch=10 n=42 v=64
10848 On ch=10 n=42 v=84
10852 Off ch=10 n=42 v=64
10944 On ch=10 n=38 v=127
10944 On ch=10 n=42 v=106
10948 Off ch=10 n=38 v=64
10948 Off ch=10 n=42 v=64
11040 On ch=10 n=42 v=84
11044 Off ch=10 n=42 v=64
11136 On ch=10 n=36 v=106
11136 On ch=10 n=42 v=106
11140 Off ch=10 n=36 v=64
11140 Off ch=10 n=42 v=64
11232 On ch=10 n=42 v=84
11236 Off ch=10 n=42 v=64
11328 On ch=10 n=38 v=127
11328 On ch=10 n=42 v=106
11332 Off ch=10 n=38 v=64
11332 Off ch=10 n=42 v=64
11424 On ch=10 n=42 v=84
11428 Off ch=10 n=42 v=64
11520 On ch=10 n=36 v=106
11520 On ch=10 n=42 v=106
11524 Off ch=10 n=36 v=64
11524 Off ch=10 n=42 v=64
11616 On ch=10 n=42 v=84
11620 Off ch=10 n=42 v=64
11712 On ch=10 n=38 v=127
11712 On ch=10 n=42 v=106
11716 Off ch=10 n=38 v=64
11716 Off ch=10 n=42 v=64
11808 On ch=10 n=42 v=84
11812 Off ch=10 n=42 v=64
11904 On ch=10 n=36 v=106
11904 On ch=10 n=42 v=106
11908 Off ch=10 n=36 v=64
11908 Off ch=10 n=42 v=64
12000 On ch=10 n=42 v=84
12004 Off ch=10 n=42 v=64
12096 On ch=10 n=38 v=127
12096 On ch=10 n=42 v=106
12100 Off ch=10 n=38 v=64
12100 Off ch=10 n=42 v=64
12192 On ch=10 n=42 v=84
12196 Off ch=10 n=42 v=64
12288 On ch=10 n=36 v=106
12288 On ch=10 n=42 v=106
12292 Off ch=10 n=36 v=64
12292 Off ch=10 n=42 v=64
12384 On ch=10 n=42 v=84
12388 Off ch=10 n=42 v=64
12480 On ch=10 n=38 v=127
12480 On ch=10 n=42 v=106
12484 Off ch=10 n=38 v=64
12484 Off ch=10 n=42 v=64
12576 On ch=10 n=42 v=84
12580 Off ch=10 n=42 v=64
12672 On ch=10 n=36 v=106
12672 On ch=10 n=42 v=106
12676 Off ch=10 n=36 v=64
12676 Off ch=10 n=42 v=64
12768 On ch=10 n=42 v=84
12772 Off ch=10 n=42 v=64
12864 On ch=10 n=38 v=127
12864 On ch=10 n=42 v=106
12868 Off ch=10 n=38 v=64
12868 Off ch=10 n=42 v=64
12960 On ch=10 n=36 v=106
12960 On ch=10 n=38 v=106
12960 On ch=10 n=42 v=84
12964 Off ch=10 n=36 v=64
12964 Off ch=10 n=38 v=64
12964 Off ch=10 n=42 v=64
13056 On ch=10 n=36 v=106
13056 On ch=10 n=42 v=106
13056 On ch=10 n=49 v=84
13060 Off ch=10 n=36 v=64
13060 Off ch=10 n=42 v=64
13060 Off ch=10 n=49 v=64
13152 On ch=10 n=42 v=84
13156 Off ch=10 n=42 v=64
13248 On ch=10 n=38 v=127
13248 On ch=10 n=42 v=106
13252 Off ch=10 n=38 v=64
13252 Off ch=10 n=42 v=64
13344 On ch=10 n=42 v=84
13348 Off ch=10 n=42 v=64
13440 On ch=10 n=36 v=106
13440 On ch=10 n=42 v=106
13444 Off ch=10 n=36 v=64
13444 Off ch=10 n=42 v=64
13536 On ch=10 n=42 v=84
13540 Off ch=10 n=42 v=64
13632 On ch=10 n=38 v=127
13632 On ch=10 n=42 v=106
13636 Off ch=10 n=38 v=64
13636 Off ch=10 n=42 v=64
13728 On ch=10 n=42 v=84
13732 Off ch=10 n=42 v=64
13824 On ch=10 n=36 v=106
13824 On ch=10 n=42 v=106
13828 Off ch=10 n=36 v=64
13828 Off ch=10 n=42 v=64
13920 On ch=10 n=42 v=84
13924 Off ch=10 n=42 v=64
14016 On ch=10 n=38 v=127
14016 On ch=10 n=42 v=106
14020 Off ch=10 n=38 v=64
14020 Off ch=10 n=42 v=64
14112 On ch=10 n=42 v=84
14116 Off ch=10 n=42 v=64
14208 On ch=10 n=36 v=106
14208 On ch=10 n=42 v=106
14212 Off ch=10 n=36 v=64
14212 Off ch=10 n=42 v=64
14304 On ch=10 n=42 v=84
14308 Off ch=10 n=42 v=64
14400 On ch=10 n=38 v=127
14400 On ch=10 n=42 v=106
14404 Off ch=10 n=38 v=64
14404 Off ch=10 n=42 v=64
14496 On ch=10 n=42 v=84
14500 Off ch=10 n=42 v=64
14592 On ch=10 n=36 v=106
14592 On ch=10 n=42 v=106
14596 Off ch=10 n=36 v=64
14596 Off ch=10 n=42 v=64
14688 On ch=10 n=42 v=84
14692 Off ch=10 n=42 v=64
14784 On ch=10 n=38 v=127
14784 On ch=10 n=42 v=106
14788 Off ch=10 n=38 v=64
14788 Off ch=10 n=42 v=64
14880 On ch=10 n=42 v=84
14884 Off ch=10 n=42 v=64
14976 On ch=10 n=36 v=106
14976 On ch=10 n=42 v=106
14980 Off ch=10 n=36 v=64
14980 Off ch=10 n=42 v=64
15072 On ch=10 n=42 v=84
15076 Off ch=10 n=42 v=64
15168 On ch=10 n=38 v=127
15168 On ch=10 n=42 v=106
15172 Off ch=10 n=38 v=64
15172 Off ch=10 n=42 v=64
15264 On ch=10 n=42 v=84
15268 Off ch=10 n=42 v=64
15360 On ch=10 n=36 v=106
15360 On ch=10 n=42 v=106
15364 Off ch=10 n=36 v=64
15364 Off ch=10 n=42 v=64
15456 On ch=10 n=42 v=84
15460 Off ch=10 n=42 v=64
15552 On ch=10 n=38 v=127
15552 On ch=10 n=42 v=106
15556 Off ch=10 n=38 v=64
15556 Off ch=10 n=42 v=64
15648 On ch=10 n=42 v=84
15652 Off ch=10 n=42 v=64
15744 On ch=10 n=36 v=106
15744 On ch=10 n=42 v=106
15748 Off ch=10 n=36 v=64
15748 Off ch=10 n=42 v=64
15840 On ch=10 n=42 v=84
15844 Off ch=10 n=42 v=64
15936 On ch=10 n=38 v=127
15936 On ch=10 n=42 v=106
15940 Off ch=10 n=38 v=64
15940 Off ch=10 n=42 v=64
16032 On ch=10 n=42 v=84
16036 Off ch=10 n=42 v=64
16128 On ch=10 n=36 v=106
16128 On ch=10 n=42 v=106
16132 Off ch=10 n=36 v=64
16132 Off ch=10 n=42 v=64
16224 On ch=10 n=42 v=84
16228 Off ch=10 n=42 v=64
16320 On ch=10 n=38 v=127
16320 On ch=10 n=42 v=106
16324 Off ch=10 n=38 v=64
16324 Off ch=10 n=42 v=64
16416 On ch=10 n=42 v=84
16420 Off ch=10 n=42 v=64
16512 On ch=10 n=36 v=106
16512 On ch=10 n=42 v=106
16516 Off ch=10 n=36 v=64
16516 Off ch=10 n=42 v=64
16608 On ch=10 n=42 v=84
16612 Off ch=10 n=42 v=64
16704 On ch=10 n=38 v=127
16704 On ch=10 n=42 v=106
16708 Off ch=10 n=38 v=64
16708 Off ch=10 n=42 v=64
16800 On ch=10 n=36 v=106
16800 On ch=10 n=38 v=106
16800 On ch=10 n=42 v=84
16804 Off ch=10 n=36 v=64
16804 Off ch=10 n=38 v=64
16804 Off ch=10 n=42 v=64
16896 On ch=10 n=36 v=106
16896 On ch=10 n=42 v=106
16896 On ch=10 n=49 v=84
16900 Off ch=10 n=36 v=64
16900 Off ch=10 n=42 v=64
16900 Off ch=10 n=49 v=64
16992 On ch=10 n=42 v=84
16996 Off ch=10 n=42 v=64
17088 On ch=10 n=38 v=127
17088 On ch=10 n=42 v=106
17092 Off ch=10 n=38 v=64
17092 Off ch=10 n=42 v=64
17184 On ch=10 n=42 v=84
17188 Off ch=10 n=42 v=64
17280 On ch=10 n=36 v=106
17280 On ch=10 n=42 v=106
17284 Off ch=10 n=36 v=64
17284 Off ch=10 n=42 v=64
17376 On ch=10 n=42 v=84
17380 Off ch=10 n=42 v=64
17472 On ch=10 n=38 v=127
17472 On ch=10 n=42 v=106
17476 Off ch=10 n=38 v=64
17476 Off ch=10 n=42 v=64
17568 On ch=10 n=42 v=84
17572 Off ch=10 n=42 v=64
17664 On ch=10 n=36 v=106
17664 On ch=10 n=42 v=106
17668 Off ch=10 n=36 v=64
17668 Off ch=10 n=42 v=64
17760 On ch=10 n=42 v=84
17764 Off ch=10 n=42 v=64
17856 On ch=10 n=38 v=127
17856 On ch=10 n=42 v=106
17860 Off ch=10 n=38 v=64
17860 Off ch=10 n=42 v=64
17952 On ch=10 n=42 v=84
17956 Off ch=10 n=42 v=64
18048 On ch=10 n=36 v=106
18048 On ch=10 n=42 v=106
18052 Off ch=10 n=36 v=64
18052 Off ch=10 n=42 v=64
18144 On ch=10 n=42 v=84
18148 Off ch=10 n=42 v=64
18240 On ch=10 n=38 v=127
18240 On ch=10 n=42 v=106
18244 Off ch=10 n=38 v=64
18244 Off ch=10 n=42 v=64
18336 On ch=10 n=42 v=84
18340 Off ch=10 n=42 v=64
18432 On ch=10 n=36 v=106
18432 On ch=10 n=42 v=106
18436 Off ch=10 n=36 v=64
18436 Off ch=10 n=42 v=64
18528 On ch=10 n=42 v=84
18532 Off ch=10 n=42 v=64
18624 On ch=10 n=38 v=127
18624 On ch=10 n=42 v=106
18628 Off ch=10 n=38 v=64
18628 Off ch=10 n=42 v=64
18720 On ch=10 n=42 v=84
18724 Off ch=10 n=42 v=64
18816 On ch=10 n=36 v=106
18816 On ch=10 n=42 v=106
18820 Off ch=10 n=36 v=64
18820 Off ch=10 n=42 v=64
18912 On ch=10 n=42 v=84
18916 Off ch=10 n=42 v=64
19008 On ch=10 n=38 v=127
19008 On ch=10 n=42 v=106
19012 Off ch=10 n=38 v=64
19012 Off ch=10 n=42 v=64
19104 On ch=10 n=42 v=84
19108 Off ch=10 n=42 v=64
19200 On ch=10 n=36 v=106
19200 On ch=10 n=42 v=106
19204 Off ch=10 n=36 v=64
19204 Off ch=10 n=42 v=64
19296 On ch=10 n=42 v=84
19300 Off ch=10 n=42 v=64
19392 On ch=10 n=38 v=127
19392 On ch=10 n=42 v=106
19396 Off ch=10 n=38 v=64
19396 Off ch=10 n=42 v=64
19488 On ch=10 n=42 v=84
19492 Off ch=10 n=42 v=64
19584 On ch=10 n=36 v=106
19584 On ch=10 n=42 v=106
19588 Off ch=10 n=36 v=64
19588 Off ch=10 n=42 v=64
19680 On ch=10 n=42 v=84
19684 Off ch=10 n=42 v=64
19776 On ch=10 n=38 v=127
19776 On ch=10 n=42 v=106
19780 Off ch=10 n=38 v=64
19780 Off ch=10 n=42 v=64
19872 On ch=10 n=42 v=84
19876 Off ch=10 n=42 v=64
19968 On ch=10 n=36 v=106
19968 On ch=10 n=42 v=106
19972 Off ch=10 n=36 v=64
19972 Off ch=10 n=42 v=64
20064 On ch=10 n=42 v=84
20068 Off ch=10 n=42 v=64
20160 On ch=10 n=38 v=127
20160 On ch=10 n=42 v=106
20164 Off ch=10 n=38 v=64
20164 Off ch=10 n=42 v=64
20256 On ch=10 n=42 v=84
20260 Off ch=10 n=42 v=64
20352 On ch=10 n=36 v=106
20352 On ch=10 n=42 v=106
20356 Off ch=10 n=36 v=64
20356 Off ch=10 n=42 v=64
20448 On ch=10 n=42 v=84
20452 Off ch=10 n=42 v=64
20544 On ch=10 n=38 v=127
20544 On ch=10 n=42 v=106
20548 Off ch=10 n=38 v=64
20548 Off ch=10 n=42 v=64
20640 On ch=10 n=42 v=84
20644 Off ch=10 n=42 v=64
20736 On ch=10 n=36 v=106
20736 On ch=10 n=42 v=106
20740 Off ch=10 n=36 v=64
20740 Off ch=10 n=42 v=64
20832 On ch=10 n=42 v=84
20836 Off ch=10 n=42 v=64
20928 On ch=10 n=38 v=127
20928 On ch=10 n=42 v=106
20932 Off ch=10 n=38 v=64
20932 Off ch=10 n=42 v=64
21024 On ch=10 n=42 v=84
21028 Off ch=10 n=42 v=64
21120 On ch=10 n=36 v=106
21120 On ch=10 n=42 v=106
21124 Off ch=10 n=36 v=64
21124 Off ch=10 n=42 v=64
21216 On ch=10 n=42 v=84
21220 Off ch=10 n=42 v=64
21312 On ch=10 n=38 v=127
21312 On ch=10 n=42 v=106
21316 Off ch=10 n=38 v=64
21316 Off ch=10 n=42 v=64
21408 On ch=10 n=42 v=84
21412 Off ch=10 n=42 v=64
21504 On ch=10 n=36 v=106
21504 On ch=10 n=42 v=106
21508 Off ch=10 n=36 v=64
21508 Off ch=10 n=42 v=64
21600 On ch=10 n=42 v=84
21604 Off ch=10 n=42 v=64
21696 On ch=10 n=38 v=127
21696 On ch=10 n=42 v=106
21700 Off ch=10 n=38 v=64
21700 Off ch=10 n=42 v=64
21792 On ch=10 n=42 v=84
21796 Off ch=10 n=42 v=64
21888 On ch=10 n=36 v=106
21888 On ch=10 n=42 v=106
21892 Off ch=10 n=36 v=64
21892 Off ch=10 n=42 v=64
22656 On ch=10 n=36 v=106
22656 On ch=10 n=42 v=106
22660 Off ch=10 n=36 v=64
22660 Off ch=10 n=42 v=64
22752 On ch=10 n=42 v=84
22756 Off ch=10 n=42 v=64
22848 On ch=10 n=38 v=127
22848 On ch=10 n=42 v=106
22852 Off ch=10 n=38 v=64
22852 Off ch=10 n=42 v=64
22944 On ch=10 n=42 v=84
22948 Off ch=10 n=42 v=64
23040 On ch=10 n=36 v=106
23040 On ch=10 n=42 v=106
23044 Off ch=10 n=36 v=64
23044 Off ch=10 n=42 v=64
23136 On ch=10 n=42 v=84
23140 Off ch=10 n=42 v=64
23232 On ch=10 n=38 v=127
23232 On ch=10 n=42 v=106
23236 Off ch=10 n=38 v=64
23236 Off ch=10 n=42 v=64
23328 On ch=10 n=42 v=84
23332 Off ch=10 n=42 v=64
23424 On ch=10 n=36 v=106
23424 On ch=10 n=42 v=106
23428 Off ch=10 n=36 v=64
23428 Off ch=10 n=42 v=64
23520 On ch=10 n=42 v=84
23524 Off ch=10 n=42 v=64
23616 On ch=10 n=38 v=127
23616 On ch=10 n=42 v=106
23620 Off ch=10 n=38 v=64
23620 Off ch=10 n=42 v=64
23712 On ch=10 n=42 v=84
23716 Off ch=10 n=42 v=64
23808 On ch=10 n=36 v=106
23808 On ch=10 n=42 v=106
23812 Off ch=10 n=36 v=64
23812 Off ch=10 n=42 v=64
23904 On ch=10 n=42 v=84
23908 Off ch=10 n=42 v=64
24000 On ch=10 n=38 v=127
24000 On ch=10 n=42 v=106
24004 Off ch=10 n=38 v=64
24004 Off ch=10 n=42 v=64
24096 On ch=10 n=42 v=84
24100 Off ch=10 n=42 v=64
24192 On ch=10 n=36 v=106
24192 On ch=10 n=42 v=106
24196 Off ch=10 n=36 v=64
24196 Off ch=10 n=42 v=64
24288 On ch=10 n=42 v=84
24292 Off ch=10 n=42 v=64
24384 On ch=10 n=38 v=127
24384 On ch=10 n=42 v=106
24388 Off ch=10 n=38 v=64
24388 Off ch=10 n=42 v=64
24480 On ch=10 n=42 v=84
24484 Off ch=10 n=42 v=64
24576 On ch=10 n=36 v=106
24576 On ch=10 n=42 v=106
24580 Off ch=10 n=36 v=64
24580 Off ch=10 n=42 v=64
24672 On ch=10 n=42 v=84
24676 Off ch=10 n=42 v=64
24768 On ch=10 n=38 v=127
24768 On ch=10 n=42 v=106
24772 Off ch=10 n=38 v=64
24772 Off ch=10 n=42 v=64
24864 On ch=10 n=42 v=84
24868 Off ch=10 n=42 v=64
24960 On ch=10 n=36 v=106
24960 On ch=10 n=42 v=106
24964 Off ch=10 n=36 v=64
24964 Off ch=10 n=42 v=64
25056 On ch=10 n=42 v=84
25060 Off ch=10 n=42 v=64
25152 On ch=10 n=38 v=127
25152 On ch=10 n=42 v=106
25156 Off ch=10 n=38 v=64
25156 Off ch=10 n=42 v=64
25248 On ch=10 n=42 v=84
25252 Off ch=10 n=42 v=64
25344 On ch=10 n=36 v=106
25344 On ch=10 n=42 v=106
25348 Off ch=10 n=36 v=64
25348 Off ch=10 n=42 v=64
25440 On ch=10 n=42 v=84
25444 Off ch=10 n=42 v=64
25536 On ch=10 n=38 v=127
25536 On ch=10 n=42 v=106
25540 Off ch=10 n=38 v=64
25540 Off ch=10 n=42 v=64
25632 On ch=10 n=42 v=84
25636 Off ch=10 n=42 v=64
25728 On ch=10 n=36 v=106
25728 On ch=10 n=42 v=106
25732 Off ch=10 n=36 v=64
25732 Off ch=10 n=42 v=64
25824 On ch=10 n=42 v=84
25828 Off ch=10 n=42 v=64
25920 On ch=10 n=38 v=127
25920 On ch=10 n=42 v=106
25924 Off ch=10 n=38 v=64
25924 Off ch=10 n=42 v=64
26016 On ch=10 n=42 v=84
26020 Off ch=10 n=42 v=64
26112 On ch=10 n=36 v=106
26112 On ch=10 n=42 v=106
26116 Off ch=10 n=36 v=64
26116 Off ch=10 n=42 v=64
26208 On ch=10 n=42 v=84
26212 Off ch=10 n=42 v=64
26304 On ch=10 n=38 v=127
26304 On ch=10 n=42 v=106
26308 Off ch=10 n=38 v=64
26308 Off ch=10 n=42 v=64
26400 On ch=10 n=42 v=84
26404 Off ch=10 n=42 v=64
26496 On ch=10 n=36 v=106
26496 On ch=10 n=42 v=106
26500 Off ch=10 n=36 v=64
26500 Off ch=10 n=42 v=64
26592 On ch=10 n=42 v=84
26596 Off ch=10 n=42 v=64
26688 On ch=10 n=38 v=127
26688 On ch=10 n=42 v=106
26692 Off ch=10 n=38 v=64
26692 Off ch=10 n=42 v=64
26784 On ch=10 n=42 v=84
26788 Off ch=10 n=42 v=64
26880 On ch=10 n=36 v=106
26880 On ch=10 n=42 v=106
26884 Off ch=10 n=36 v=64
26884 Off ch=10 n=42 v=64
26976 On ch=10 n=42 v=84
26980 Off ch=10 n=42 v=64
27072 On ch=10 n=38 v=127
27072 On ch=10 n=42 v=106
27076 Off ch=10 n=38 v=64
27076 Off ch=10 n=42 v=64
27168 On ch=10 n=42 v=84
27172 Off ch=10 n=42 v=64
27264 On ch=10 n=36 v=106
27264 On ch=10 n=42 v=106
27268 Off ch=10 n=36 v=64
27268 Off ch=10 n=42 v=64
27360 On ch=10 n=42 v=84
27364 Off ch=10 n=42 v=64
27456 On ch=10 n=38 v=127
27456 On ch=10 n=42 v=106
27460 Off ch=10 n=38 v=64
27460 Off ch=10 n=42 v=64
27552 On ch=10 n=42 v=84
27556 Off ch=10 n=42 v=64
27648 On ch=10 n=36 v=106
27648 On ch=10 n=42 v=106
27652 Off ch=10 n=36 v=64
27652 Off ch=10 n=42 v=64
27744 On ch=10 n=42 v=84
27748 Off ch=10 n=42 v=64
27840 On ch=10 n=38 v=127
27840 On ch=10 n=42 v=106
27844 Off ch=10 n=38 v=64
27844 Off ch=10 n=42 v=64
27936 On ch=10 n=42 v=84
27940 Off ch=10 n=42 v=64
28032 On ch=10 n=36 v=106
28032 On ch=10 n=42 v=106
28036 Off ch=10 n=36 v=64
28036 Off ch=10 n=42 v=64
28128 On ch=10 n=42 v=84
28132 Off ch=10 n=42 v=64
28224 On ch=10 n=38 v=127
28224 On ch=10 n=42 v=106
28228 Off ch=10 n=38 v=64
28228 Off ch=10 n=42 v=64
28320 On ch=10 n=42 v=84
28324 Off ch=10 n=42 v=64
28416 On ch=10 n=36 v=106
28416 On ch=10 n=42 v=106
28420 Off ch=10 n=36 v=64
28420 Off ch=10 n=42 v=64
28512 On ch=10 n=42 v=84
28516 Off ch=10 n=42 v=64
28608 On ch=10 n=38 v=127
28608 On ch=10 n=42 v=106
28612 Off ch=10 n=38 v=64
28612 Off ch=10 n=42 v=64
28704 On ch=10 n=38 v=106
28704 On ch=10 n=36 v=106
28704 On ch=10 n=42 v=84
28708 Off ch=10 n=38 v=64
28708 Off ch=10 n=36 v=64
28708 Off ch=10 n=42 v=64
28800 On ch=10 n=36 v=106
28800 On ch=10 n=42 v=106
28800 On ch=10 n=49 v=106
28804 Off ch=10 n=36 v=64
28804 Off ch=10 n=42 v=64
28804 Off ch=10 n=49 v=64
28896 On ch=10 n=42 v=84
28900 Off ch=10 n=42 v=64
28992 On ch=10 n=38 v=127
28992 On ch=10 n=42 v=106
28996 Off ch=10 n=38 v=64
28996 Off ch=10 n=42 v=64
29088 On ch=10 n=42 v=84
29092 Off ch=10 n=42 v=64
29184 On ch=10 n=36 v=106
29184 On ch=10 n=42 v=106
29188 Off ch=10 n=36 v=64
29188 Off ch=10 n=42 v=64
29280 On ch=10 n=42 v=84
29284 Off ch=10 n=42 v=64
29376 On ch=10 n=38 v=127
29376 On ch=10 n=42 v=106
29380 Off ch=10 n=38 v=64
29380 Off ch=10 n=42 v=64
29472 On ch=10 n=42 v=84
29476 Off ch=10 n=42 v=64
29568 On ch=10 n=36 v=106
29568 On ch=10 n=42 v=106
29572 Off ch=10 n=36 v=64
29572 Off ch=10 n=42 v=64
29664 On ch=10 n=42 v=84
29668 Off ch=10 n=42 v=64
29760 On ch=10 n=38 v=127
29760 On ch=10 n=42 v=106
29764 Off ch=10 n=38 v=64
29764 Off ch=10 n=42 v=64
29856 On ch=10 n=42 v=84
29860 Off ch=10 n=42 v=64
29952 On ch=10 n=36 v=106
29952 On ch=10 n=42 v=106
29956 Off ch=10 n=36 v=64
29956 Off ch=10 n=42 v=64
30048 On ch=10 n=42 v=84
30052 Off ch=10 n=42 v=64
30144 On ch=10 n=38 v=127
30144 On ch=10 n=42 v=106
30148 Off ch=10 n=38 v=64
30148 Off ch=10 n=42 v=64
30240 On ch=10 n=42 v=84
30244 Off ch=10 n=42 v=64
30336 On ch=10 n=36 v=106
30336 On ch=10 n=42 v=106
30340 Off ch=10 n=36 v=64
30340 Off ch=10 n=42 v=64
30432 On ch=10 n=42 v=84
30436 Off ch=10 n=42 v=64
30528 On ch=10 n=38 v=127
30528 On ch=10 n=42 v=106
30532 Off ch=10 n=38 v=64
30532 Off ch=10 n=42 v=64
30624 On ch=10 n=42 v=84
30628 Off ch=10 n=42 v=64
30720 On ch=10 n=36 v=106
30720 On ch=10 n=42 v=106
30724 Off ch=10 n=36 v=64
30724 Off ch=10 n=42 v=64
30816 On ch=10 n=42 v=84
30820 Off ch=10 n=42 v=64
30912 On ch=10 n=38 v=127
30912 On ch=10 n=42 v=106
30916 Off ch=10 n=38 v=64
30916 Off ch=10 n=42 v=64
31008 On ch=10 n=42 v=84
31012 Off ch=10 n=42 v=64
31104 On ch=10 n=36 v=106
31104 On ch=10 n=42 v=106
31108 Off ch=10 n=36 v=64
31108 Off ch=10 n=42 v=64
31200 On ch=10 n=42 v=84
31204 Off ch=10 n=42 v=64
31296 On ch=10 n=38 v=127
31296 On ch=10 n=42 v=106
31300 Off ch=10 n=38 v=64
31300 Off ch=10 n=42 v=64
31392 On ch=10 n=42 v=84
31396 Off ch=10 n=42 v=64
31488 On ch=10 n=36 v=106
31488 On ch=10 n=42 v=106
31492 Off ch=10 n=36 v=64
31492 Off ch=10 n=42 v=64
31584 On ch=10 n=42 v=84
31588 Off ch=10 n=42 v=64
31680 On ch=10 n=38 v=127
31680 On ch=10 n=42 v=106
31684 Off ch=10 n=38 v=64
31684 Off ch=10 n=42 v=64
31776 On ch=10 n=42 v=84
31780 Off ch=10 n=42 v=64
31872 On ch=10 n=36 v=106
31872 On ch=10 n=42 v=106
31876 Off ch=10 n=36 v=64
31876 Off ch=10 n=42 v=64
31968 On ch=10 n=42 v=84
31972 Off ch=10 n=42 v=64
32064 On ch=10 n=38 v=127
32064 On ch=10 n=42 v=106
32068 Off ch=10 n=38 v=64
32068 Off ch=10 n=42 v=64
32160 On ch=10 n=42 v=84
32164 Off ch=10 n=42 v=64
32256 On ch=10 n=36 v=106
32256 On ch=10 n=42 v=106
32260 Off ch=10 n=36 v=64
32260 Off ch=10 n=42 v=64
32352 On ch=10 n=42 v=84
32356 Off ch=10 n=42 v=64
32448 On ch=10 n=38 v=127
32448 On ch=10 n=42 v=106
32452 Off ch=10 n=38 v=64
32452 Off ch=10 n=42 v=64
32544 On ch=10 n=38 v=127
32544 On ch=10 n=36 v=106
32544 On ch=10 n=42 v=84
32548 Off ch=10 n=38 v=64
32548 Off ch=10 n=36 v=64
32548 Off ch=10 n=42 v=64
32640 On ch=10 n=36 v=106
32640 On ch=10 n=42 v=106
32640 On ch=10 n=49 v=106
32644 Off ch=10 n=36 v=64
32644 Off ch=10 n=42 v=64
32644 Off ch=10 n=49 v=64
32736 On ch=10 n=42 v=84
32740 Off ch=10 n=42 v=64
32832 On ch=10 n=38 v=127
32832 On ch=10 n=42 v=106
32836 Off ch=10 n=38 v=64
32836 Off ch=10 n=42 v=64
32928 On ch=10 n=42 v=84
32932 Off ch=10 n=42 v=64
33024 On ch=10 n=36 v=106
33024 On ch=10 n=42 v=106
33028 Off ch=10 n=36 v=64
33028 Off ch=10 n=42 v=64
33120 On ch=10 n=42 v=84
33124 Off ch=10 n=42 v=64
33216 On ch=10 n=38 v=127
33216 On ch=10 n=42 v=106
33220 Off ch=10 n=38 v=64
33220 Off ch=10 n=42 v=64
33312 On ch=10 n=42 v=84
33316 Off ch=10 n=42 v=64
33408 On ch=10 n=36 v=106
33408 On ch=10 n=42 v=106
33412 Off ch=10 n=36 v=64
33412 Off ch=10 n=42 v=64
33504 On ch=10 n=42 v=84
33508 Off ch=10 n=42 v=64
33600 On ch=10 n=38 v=127
33600 On ch=10 n=42 v=106
33604 Off ch=10 n=38 v=64
33604 Off ch=10 n=42 v=64
33696 On ch=10 n=42 v=84
33700 Off ch=10 n=42 v=64
33792 On ch=10 n=36 v=106
33792 On ch=10 n=42 v=106
33796 Off ch=10 n=36 v=64
33796 Off ch=10 n=42 v=64
33888 On ch=10 n=42 v=84
33892 Off ch=10 n=42 v=64
33984 On ch=10 n=38 v=127
33984 On ch=10 n=42 v=106
33988 Off ch=10 n=38 v=64
33988 Off ch=10 n=42 v=64
34080 On ch=10 n=42 v=84
34084 Off ch=10 n=42 v=64
34176 On ch=10 n=36 v=106
34176 On ch=10 n=42 v=106
34180 Off ch=10 n=36 v=64
34180 Off ch=10 n=42 v=64
34272 On ch=10 n=42 v=84
34276 Off ch=10 n=42 v=64
34368 On ch=10 n=38 v=127
34368 On ch=10 n=42 v=106
34372 Off ch=10 n=38 v=64
34372 Off ch=10 n=42 v=64
34464 On ch=10 n=42 v=84
34468 Off ch=10 n=42 v=64
34560 On ch=10 n=36 v=106
34560 On ch=10 n=42 v=106
34564 Off ch=10 n=36 v=64
34564 Off ch=10 n=42 v=64
34656 On ch=10 n=42 v=84
34660 Off ch=10 n=42 v=64
34752 On ch=10 n=38 v=127
34752 On ch=10 n=42 v=106
34756 Off ch=10 n=38 v=64
34756 Off ch=10 n=42 v=64
34848 On ch=10 n=42 v=84
34852 Off ch=10 n=42 v=64
34944 On ch=10 n=36 v=106
34944 On ch=10 n=42 v=106
34948 Off ch=10 n=36 v=64
34948 Off ch=10 n=42 v=64
35040 On ch=10 n=42 v=84
35044 Off ch=10 n=42 v=64
35136 On ch=10 n=38 v=127
35136 On ch=10 n=42 v=106
35140 Off ch=10 n=38 v=64
35140 Off ch=10 n=42 v=64
35232 On ch=10 n=42 v=84
35236 Off ch=10 n=42 v=64
35328 On ch=10 n=36 v=106
35328 On ch=10 n=42 v=106
35332 Off ch=10 n=36 v=64
35332 Off ch=10 n=42 v=64
35424 On ch=10 n=42 v=84
35428 Off ch=10 n=42 v=64
35520 On ch=10 n=38 v=127
35520 On ch=10 n=42 v=106
35524 Off ch=10 n=38 v=64
35524 Off ch=10 n=42 v=64
35616 On ch=10 n=42 v=84
35620 Off ch=10 n=42 v=64
35712 On ch=10 n=36 v=106
35712 On ch=10 n=42 v=106
35716 Off ch=10 n=36 v=64
35716 Off ch=10 n=42 v=64
35808 On ch=10 n=42 v=84
35812 Off ch=10 n=42 v=64
35904 On ch=10 n=38 v=127
35904 On ch=10 n=42 v=106
35908 Off ch=10 n=38 v=64
35908 Off ch=10 n=42 v=64
36000 On ch=10 n=42 v=84
36004 Off ch=10 n=42 v=64
36096 On ch=10 n=36 v=106
36096 On ch=10 n=42 v=106
36100 Off ch=10 n=36 v=64
36100 Off ch=10 n=42 v=64
36192 On ch=10 n=42 v=84
36196 Off ch=10 n=42 v=64
36288 On ch=10 n=38 v=127
36288 On ch=10 n=42 v=106
36292 Off ch=10 n=38 v=64
36292 Off ch=10 n=42 v=64
36384 On ch=10 n=42 v=84
36388 Off ch=10 n=42 v=64
36480 On ch=10 n=36 v=106
36480 On ch=10 n=42 v=106
36484 Off ch=10 n=36 v=64
36484 Off ch=10 n=42 v=64
36576 On ch=10 n=42 v=84
36580 Off ch=10 n=42 v=64
36672 On ch=10 n=38 v=127
36672 On ch=10 n=42 v=106
36676 Off ch=10 n=38 v=64
36676 Off ch=10 n=42 v=64
36768 On ch=10 n=42 v=84
36772 Off ch=10 n=42 v=64
36864 On ch=10 n=36 v=106
36864 On ch=10 n=42 v=106
36868 Off ch=10 n=36 v=64
36868 Off ch=10 n=42 v=64
36960 On ch=10 n=42 v=84
36964 Off ch=10 n=42 v=64
37056 On ch=10 n=38 v=127
37056 On ch=10 n=42 v=106
37060 Off ch=10 n=38 v=64
37060 Off ch=10 n=42 v=64
37152 On ch=10 n=42 v=84
37156 Off ch=10 n=42 v=64
37248 On ch=10 n=36 v=106
37248 On ch=10 n=42 v=106
37252 Off ch=10 n=36 v=64
37252 Off ch=10 n=42 v=64
37344 On ch=10 n=42 v=84
37348 Off ch=10 n=42 v=64
37440 On ch=10 n=38 v=127
37440 On ch=10 n=42 v=106
37444 Off ch=10 n=38 v=64
37444 Off ch=10 n=42 v=64
37536 On ch=10 n=42 v=84
37540 Off ch=10 n=42 v=64
37632 On ch=10 n=36 v=106
37632 On ch=10 n=42 v=106
37636 Off ch=10 n=36 v=64
37636 Off ch=10 n=42 v=64
38400 On ch=10 n=36 v=106
38400 On ch=10 n=42 v=106
38404 Off ch=10 n=36 v=64
38404 Off ch=10 n=42 v=64
38496 On ch=10 n=42 v=84
38500 Off ch=10 n=42 v=64
38592 On ch=10 n=38 v=127
38592 On ch=10 n=42 v=106
38596 Off ch=10 n=38 v=64
38596 Off ch=10 n=42 v=64
38688 On ch=10 n=42 v=84
38692 Off ch=10 n=42 v=64
38784 On ch=10 n=36 v=106
38784 On ch=10 n=42 v=106
38788 Off ch=10 n=36 v=64
38788 Off ch=10 n=42 v=64
38880 On ch=10 n=42 v=84
38884 Off ch=10 n=42 v=64
38976 On ch=10 n=38 v=127
38976 On ch=10 n=42 v=106
38980 Off ch=10 n=38 v=64
38980 Off ch=10 n=42 v=64
39072 On ch=10 n=42 v=84
39076 Off ch=10 n=42 v=64
39168 On ch=10 n=36 v=106
39168 On ch=10 n=42 v=106
39172 Off ch=10 n=36 v=64
39172 Off ch=10 n=42 v=64
39264 On ch=10 n=42 v=84
39268 Off ch=10 n=42 v=64
39360 On ch=10 n=38 v=127
39360 On ch=10 n=42 v=106
39364 Off ch=10 n=38 v=64
39364 Off ch=10 n=42 v=64
39456 On ch=10 n=42 v=84
39460 Off ch=10 n=42 v=64
39552 On ch=10 n=36 v=106
39552 On ch=10 n=42 v=106
39556 Off ch=10 n=36 v=64
39556 Off ch=10 n=42 v=64
39648 On ch=10 n=42 v=84
39652 Off ch=10 n=42 v=64
39744 On ch=10 n=38 v=127
39744 On ch=10 n=42 v=106
39748 Off ch=10 n=38 v=64
39748 Off ch=10 n=42 v=64
39840 On ch=10 n=42 v=84
39844 Off ch=10 n=42 v=64
39936 On ch=10 n=36 v=106
39936 On ch=10 n=42 v=106
39940 Off ch=10 n=36 v=64
39940 Off ch=10 n=42 v=64
40032 On ch=10 n=42 v=84
40036 Off ch=10 n=42 v=64
40128 On ch=10 n=38 v=127
40128 On ch=10 n=42 v=106
40132 Off ch=10 n=38 v=64
40132 Off ch=10 n=42 v=64
40224 On ch=10 n=42 v=84
40228 Off ch=10 n=42 v=64
40320 On ch=10 n=36 v=106
40320 On ch=10 n=42 v=106
40324 Off ch=10 n=36 v=64
40324 Off ch=10 n=42 v=64
40416 On ch=10 n=42 v=84
40420 Off ch=10 n=42 v=64
40512 On ch=10 n=38 v=127
40512 On ch=10 n=42 v=106
40516 Off ch=10 n=38 v=64
40516 Off ch=10 n=42 v=64
40608 On ch=10 n=42 v=84
40612 Off ch=10 n=42 v=64
40704 On ch=10 n=36 v=106
40704 On ch=10 n=42 v=106
40708 Off ch=10 n=36 v=64
40708 Off ch=10 n=42 v=64
40800 On ch=10 n=42 v=84
40804 Off ch=10 n=42 v=64
40896 On ch=10 n=38 v=127
40896 On ch=10 n=42 v=106
40900 Off ch=10 n=38 v=64
40900 Off ch=10 n=42 v=64
40992 On ch=10 n=42 v=84
40996 Off ch=10 n=42 v=64
41088 On ch=10 n=36 v=106
41088 On ch=10 n=42 v=106
41092 Off ch=10 n=36 v=64
41092 Off ch=10 n=42 v=64
41184 On ch=10 n=42 v=84
41188 Off ch=10 n=42 v=64
41280 On ch=10 n=38 v=127
41280 On ch=10 n=42 v=106
41284 Off ch=10 n=38 v=64
41284 Off ch=10 n=42 v=64
41376 On ch=10 n=42 v=84
41380 Off ch=10 n=42 v=64
41472 On ch=10 n=36 v=106
41472 On ch=10 n=42 v=106
41476 Off ch=10 n=36 v=64
41476 Off ch=10 n=42 v=64
41568 On ch=10 n=42 v=84
41572 Off ch=10 n=42 v=64
41664 On ch=10 n=38 v=127
41664 On ch=10 n=42 v=106
41668 Off ch=10 n=38 v=64
41668 Off ch=10 n=42 v=64
41760 On ch=10 n=42 v=84
41764 Off ch=10 n=42 v=64
41856 On ch=10 n=36 v=106
41856 On ch=10 n=42 v=106
41860 Off ch=10 n=36 v=64
41860 Off ch=10 n=42 v=64
41952 On ch=10 n=42 v=84
41956 Off ch=10 n=42 v=64
42048 On ch=10 n=38 v=127
42048 On ch=10 n=42 v=106
42052 Off ch=10 n=38 v=64
42052 Off ch=10 n=42 v=64
42144 On ch=10 n=42 v=84
42148 Off ch=10 n=42 v=64
42240 On ch=10 n=36 v=106
42240 On ch=10 n=42 v=106
42244 Off ch=10 n=36 v=64
42244 Off ch=10 n=42 v=64
42336 On ch=10 n=42 v=84
42340 Off ch=10 n=42 v=64
42432 On ch=10 n=38 v=127
42432 On ch=10 n=42 v=106
42436 Off ch=10 n=38 v=64
42436 Off ch=10 n=42 v=64
42528 On ch=10 n=42 v=84
42532 Off ch=10 n=42 v=64
42624 On ch=10 n=36 v=106
42624 On ch=10 n=42 v=106
42628 Off ch=10 n=36 v=64
42628 Off ch=10 n=42 v=64
42720 On ch=10 n=42 v=84
42724 Off ch=10 n=42 v=64
42816 On ch=10 n=38 v=127
42816 On ch=10 n=42 v=106
42820 Off ch=10 n=38 v=64
42820 Off ch=10 n=42 v=64
42912 On ch=10 n=42 v=84
42916 Off ch=10 n=42 v=64
43008 On ch=10 n=36 v=106
43008 On ch=10 n=42 v=106
43012 Off ch=10 n=36 v=64
43012 Off ch=10 n=42 v=64
43104 On ch=10 n=42 v=84
43108 Off ch=10 n=42 v=64
43200 On ch=10 n=38 v=127
43200 On ch=10 n=42 v=106
43204 Off ch=10 n=38 v=64
43204 Off ch=10 n=42 v=64
43296 On ch=10 n=42 v=84
43300 Off ch=10 n=42 v=64
43392 On ch=10 n=36 v=106
43392 On ch=10 n=42 v=106
43396 Off ch=10 n=36 v=64
43396 Off ch=10 n=42 v=64
43488 On ch=10 n=42 v=84
43492 Off ch=10 n=42 v=64
43584 On ch=10 n=38 v=127
43584 On ch=10 n=42 v=106
43588 Off ch=10 n=38 v=64
43588 Off ch=10 n=42 v=64
43680 On ch=10 n=42 v=84
43684 Off ch=10 n=42 v=64
43776 On ch=10 n=36 v=106
43776 On ch=10 n=42 v=106
43780 Off ch=10 n=36 v=64
43780 Off ch=10 n=42 v=64
43872 On ch=10 n=42 v=84
43876 Off ch=10 n=42 v=64
43968 On ch=10 n=38 v=127
43968 On ch=10 n=42 v=106
43972 Off ch=10 n=38 v=64
43972 Off ch=10 n=42 v=64
44064 On ch=10 n=42 v=84
44068 Off ch=10 n=42 v=64
44160 On ch=10 n=36 v=106
44160 On ch=10 n=42 v=106
44164 Off ch=10 n=36 v=64
44164 Off ch=10 n=42 v=64
44256 On ch=10 n=42 v=84
44260 Off ch=10 n=42 v=64
44352 On ch=10 n=38 v=127
44352 On ch=10 n=42 v=106
44356 Off ch=10 n=38 v=64
44356 Off ch=10 n=42 v=64
44448 On ch=10 n=42 v=84
44452 Off ch=10 n=42 v=64
44544 On ch=10 n=36 v=106
44544 On ch=10 n=42 v=106
44548 Off ch=10 n=36 v=64
44548 Off ch=10 n=42 v=64
44640 On ch=10 n=42 v=84
44644 Off ch=10 n=42 v=64
44736 On ch=10 n=38 v=127
44736 On ch=10 n=42 v=106
44740 Off ch=10 n=38 v=64
44740 Off ch=10 n=42 v=64
44832 On ch=10 n=42 v=84
44836 Off ch=10 n=42 v=64
44928 On ch=10 n=36 v=106
44928 On ch=10 n=42 v=106
44928 On ch=10 n=46 v=106
44932 Off ch=10 n=36 v=64
44932 Off ch=10 n=42 v=64
44932 Off ch=10 n=46 v=64
44976 On ch=10 n=46 v=84
44980 Off ch=10 n=46 v=64
45024 On ch=10 n=42 v=84
45024 On ch=10 n=46 v=106
45028 Off ch=10 n=42 v=64
45028 Off ch=10 n=46 v=64
45072 On ch=10 n=46 v=84
45076 Off ch=10 n=46 v=64
45120 On ch=10 n=38 v=127
45120 On ch=10 n=42 v=106
45120 On ch=10 n=46 v=106
45124 Off ch=10 n=38 v=64
45124 Off ch=10 n=42 v=64
45124 Off ch=10 n=46 v=64
45168 On ch=10 n=46 v=84
45172 Off ch=10 n=46 v=64
45216 On ch=10 n=42 v=84
45216 On ch=10 n=36 v=106
45216 On ch=10 n=38 v=127
45216 On ch=10 n=46 v=106
45220 Off ch=10 n=42 v=64
45220 Off ch=10 n=36 v=64
45220 Off ch=10 n=38 v=64
45220 Off ch=10 n=46 v=64
45264 On ch=10 n=46 v=84
45268 Off ch=10 n=46 v=64
45312 On ch=10 n=36 v=106
45312 On ch=10 n=42 v=106
45312 On ch=10 n=46 v=127
45312 On ch=10 n=49 v=127
45316 Off ch=10 n=36 v=64
45316 Off ch=10 n=42 v=64
45316 Off ch=10 n=46 v=64
45316 Off ch=10 n=49 v=64
45408 On ch=10 n=42 v=84
45412 Off ch=10 n=42 v=64
45504 On ch=10 n=38 v=127
45504 On ch=10 n=42 v=106
45508 Off ch=10 n=38 v=64
45508 Off ch=10 n=42 v=64
45600 On ch=10 n=42 v=84
45604 Off ch=10 n=42 v=64
45696 On ch=10 n=36 v=106
45696 On ch=10 n=42 v=106
45700 Off ch=10 n=36 v=64
45700 Off ch=10 n=42 v=64
45792 On ch=10 n=42 v=84
45796 Off ch=10 n=42 v=64
45888 On ch=10 n=38 v=127
45888 On ch=10 n=42 v=106
45892 Off ch=10 n=38 v=64
45892 Off ch=10 n=42 v=64
45984 On ch=10 n=42 v=84
45988 Off ch=10 n=42 v=64
46080 On ch=10 n=36 v=106
46080 On ch=10 n=42 v=106
46084 Off ch=10 n=36 v=64
46084 Off ch=10 n=42 v=64
46176 On ch=10 n=42 v=84
46180 Off ch=10 n=42 v=64
46272 On ch=10 n=38 v=127
46272 On ch=10 n=42 v=106
46276 Off ch=10 n=38 v=64
46276 Off ch=10 n=42 v=64
46368 On ch=10 n=42 v=84
46372 Off ch=10 n=42 v=64
46464 On ch=10 n=36 v=106
46464 On ch=10 n=42 v=106
46468 Off ch=10 n=36 v=64
46468 Off ch=10 n=42 v=64
46560 On ch=10 n=42 v=84
46564 Off ch=10 n=42 v=64
46656 On ch=10 n=38 v=127
46656 On ch=10 n=42 v=106
46660 Off ch=10 n=38 v=64
46660 Off ch=10 n=42 v=64
46752 On ch=10 n=42 v=84
46756 Off ch=10 n=42 v=64
46848 On ch=10 n=36 v=106
46848 On ch=10 n=42 v=106
46852 Off ch=10 n=36 v=64
46852 Off ch=10 n=42 v=64
46944 On ch=10 n=42 v=84
46948 Off ch=10 n=42 v=64
47040 On ch=10 n=38 v=127
47040 On ch=10 n=42 v=106
47044 Off ch=10 n=38 v=64
47044 Off ch=10 n=42 v=64
47136 On ch=10 n=42 v=84
47140 Off ch=10 n=42 v=64
47232 On ch=10 n=36 v=106
47232 On ch=10 n=42 v=106
47236 Off ch=10 n=36 v=64
47236 Off ch=10 n=42 v=64
47328 On ch=10 n=42 v=84
47332 Off ch=10 n=42 v=64
47424 On ch=10 n=38 v=127
47424 On ch=10 n=42 v=106
47428 Off ch=10 n=38 v=64
47428 Off ch=10 n=42 v=64
47520 On ch=10 n=42 v=84
47524 Off ch=10 n=42 v=64
47616 On ch=10 n=36 v=106
47616 On ch=10 n=42 v=106
47620 Off ch=10 n=36 v=64
47620 Off ch=10 n=42 v=64
47712 On ch=10 n=42 v=84
47716 Off ch=10 n=42 v=64
47808 On ch=10 n=38 v=127
47808 On ch=10 n=42 v=106
47812 Off ch=10 n=38 v=64
47812 Off ch=10 n=42 v=64
47904 On ch=10 n=42 v=84
47908 Off ch=10 n=42 v=64
48000 On ch=10 n=36 v=106
48000 On ch=10 n=42 v=106
48004 Off ch=10 n=36 v=64
48004 Off ch=10 n=42 v=64
48096 On ch=10 n=42 v=84
48100 Off ch=10 n=42 v=64
48192 On ch=10 n=38 v=127
48192 On ch=10 n=42 v=106
48196 Off ch=10 n=38 v=64
48196 Off ch=10 n=42 v=64
48288 On ch=10 n=38 v=106
48288 On ch=10 n=36 v=106
48288 On ch=10 n=42 v=84
48292 Off ch=10 n=38 v=64
48292 Off ch=10 n=36 v=64
48292 Off ch=10 n=42 v=64
48384 On ch=10 n=36 v=106
48384 On ch=10 n=42 v=106
48384 On ch=10 n=49 v=106
48388 Off ch=10 n=36 v=64
48388 Off ch=10 n=42 v=64
48388 Off ch=10 n=49 v=64
48480 On ch=10 n=42 v=84
48484 Off ch=10 n=42 v=64
48576 On ch=10 n=38 v=127
48576 On ch=10 n=42 v=106
48580 Off ch=10 n=38 v=64
48580 Off ch=10 n=42 v=64
48672 On ch=10 n=42 v=84
48676 Off ch=10 n=42 v=64
48768 On ch=10 n=36 v=106
48768 On ch=10 n=42 v=106
48772 Off ch=10 n=36 v=64
48772 Off ch=10 n=42 v=64
48864 On ch=10 n=42 v=84
48868 Off ch=10 n=42 v=64
48960 On ch=10 n=38 v=127
48960 On ch=10 n=42 v=106
48964 Off ch=10 n=38 v=64
48964 Off ch=10 n=42 v=64
49056 On ch=10 n=42 v=84
49060 Off ch=10 n=42 v=64
49152 On ch=10 n=36 v=106
49152 On ch=10 n=42 v=106
49156 Off ch=10 n=36 v=64
49156 Off ch=10 n=42 v=64
49248 On ch=10 n=42 v=84
49252 Off ch=10 n=42 v=64
49344 On ch=10 n=38 v=127
49344 On ch=10 n=42 v=106
49348 Off ch=10 n=38 v=64
49348 Off ch=10 n=42 v=64
49440 On ch=10 n=42 v=84
49444 Off ch=10 n=42 v=64
49536 On ch=10 n=36 v=106
49536 On ch=10 n=42 v=106
49540 Off ch=10 n=36 v=64
49540 Off ch=10 n=42 v=64
49632 On ch=10 n=42 v=84
49636 Off ch=10 n=42 v=64
49728 On ch=10 n=38 v=127
49728 On ch=10 n=42 v=106
49732 Off ch=10 n=38 v=64
49732 Off ch=10 n=42 v=64
49824 On ch=10 n=42 v=84
49828 Off ch=10 n=42 v=64
49920 On ch=10 n=36 v=106
49920 On ch=10 n=42 v=106
49924 Off ch=10 n=36 v=64
49924 Off ch=10 n=42 v=64
50016 On ch=10 n=42 v=84
50020 Off ch=10 n=42 v=64
50112 On ch=10 n=38 v=127
50112 On ch=10 n=42 v=106
50116 Off ch=10 n=38 v=64
50116 Off ch=10 n=42 v=64
50208 On ch=10 n=42 v=84
50212 Off ch=10 n=42 v=64
50304 On ch=10 n=36 v=106
50304 On ch=10 n=42 v=106
50308 Off ch=10 n=36 v=64
50308 Off ch=10 n=42 v=64
50400 On ch=10 n=42 v=84
50404 Off ch=10 n=42 v=64
50496 On ch=10 n=38 v=127
50496 On ch=10 n=42 v=106
50500 Off ch=10 n=38 v=64
50500 Off ch=10 n=42 v=64
50592 On ch=10 n=42 v=84
50596 Off ch=10 n=42 v=64
50688 On ch=10 n=36 v=106
50688 On ch=10 n=42 v=106
50692 Off ch=10 n=36 v=64
50692 Off ch=10 n=42 v=64
50784 On ch=10 n=42 v=84
50788 Off ch=10 n=42 v=64
50880 On ch=10 n=38 v=127
50880 On ch=10 n=42 v=106
50884 Off ch=10 n=38 v=64
50884 Off ch=10 n=42 v=64
50976 On ch=10 n=42 v=84
50980 Off ch=10 n=42 v=64
51072 On ch=10 n=36 v=106
51072 On ch=10 n=42 v=106
51076 Off ch=10 n=36 v=64
51076 Off ch=10 n=42 v=64
51168 On ch=10 n=42 v=84
51172 Off ch=10 n=42 v=64
51264 On ch=10 n=38 v=127
51264 On ch=10 n=42 v=106
51268 Off ch=10 n=38 v=64
51268 Off ch=10 n=42 v=64
51360 On ch=10 n=36 v=106
51360 On ch=10 n=38 v=106
51360 On ch=10 n=42 v=84
51364 Off ch=10 n=36 v=64
51364 Off ch=10 n=38 v=64
51364 Off ch=10 n=42 v=64
51456 On ch=10 n=36 v=106
51456 On ch=10 n=42 v=106
51456 On ch=10 n=49 v=106
51460 Off ch=10 n=36 v=64
51460 Off ch=10 n=42 v=64
51460 Off ch=10 n=49 v=64
51552 On ch=10 n=42 v=84
51556 Off ch=10 n=42 v=64
51648 On ch=10 n=38 v=127
51648 On ch=10 n=42 v=106
51652 Off ch=10 n=38 v=64
51652 Off ch=10 n=42 v=64
51744 On ch=10 n=42 v=84
51748 Off ch=10 n=42 v=64
51840 On ch=10 n=36 v=106
51840 On ch=10 n=42 v=106
51844 Off ch=10 n=36 v=64
51844 Off ch=10 n=42 v=64
51936 On ch=10 n=42 v=84
51940 Off ch=10 n=42 v=64
52032 On ch=10 n=38 v=127
52032 On ch=10 n=42 v=106
52036 Off ch=10 n=38 v=64
52036 Off ch=10 n=42 v=64
52128 On ch=10 n=42 v=84
52132 Off ch=10 n=42 v=64
52224 On ch=10 n=36 v=106
52224 On ch=10 n=42 v=106
52228 Off ch=10 n=36 v=64
52228 Off ch=10 n=42 v=64
52320 On ch=10 n=42 v=84
52324 Off ch=10 n=42 v=64
52416 On ch=10 n=38 v=127
52416 On ch=10 n=42 v=106
52420 Off ch=10 n=38 v=64
52420 Off ch=10 n=42 v=64
52512 On ch=10 n=42 v=84
52516 Off ch=10 n=42 v=64
52608 On ch=10 n=36 v=106
52608 On ch=10 n=42 v=106
52612 Off ch=10 n=36 v=64
52612 Off ch=10 n=42 v=64
52704 On ch=10 n=42 v=84
52708 Off ch=10 n=42 v=64
52800 On ch=10 n=38 v=127
52800 On ch=10 n=42 v=106
52804 Off ch=10 n=38 v=64
52804 Off ch=10 n=42 v=64
52896 On ch=10 n=42 v=84
52900 Off ch=10 n=42 v=64
52992 On ch=10 n=36 v=106
52992 On ch=10 n=42 v=106
52996 Off ch=10 n=36 v=64
52996 Off ch=10 n=42 v=64
53088 On ch=10 n=42 v=84
53092 Off ch=10 n=42 v=64
53184 On ch=10 n=38 v=127
53184 On ch=10 n=42 v=106
53188 Off ch=10 n=38 v=64
53188 Off ch=10 n=42 v=64
53280 On ch=10 n=42 v=84
53284 Off ch=10 n=42 v=64
53376 On ch=10 n=36 v=106
53376 On ch=10 n=42 v=106
53380 Off ch=10 n=36 v=64
53380 Off ch=10 n=42 v=64
53472 On ch=10 n=42 v=84
53476 Off ch=10 n=42 v=64
53568 On ch=10 n=38 v=127
53568 On ch=10 n=42 v=106
53572 Off ch=10 n=38 v=64
53572 Off ch=10 n=42 v=64
53664 On ch=10 n=42 v=84
53668 Off ch=10 n=42 v=64
53760 On ch=10 n=36 v=106
53760 On ch=10 n=42 v=106
53764 Off ch=10 n=36 v=64
53764 Off ch=10 n=42 v=64
53856 On ch=10 n=42 v=84
53860 Off ch=10 n=42 v=64
53952 On ch=10 n=38 v=127
53952 On ch=10 n=42 v=106
53956 Off ch=10 n=38 v=64
53956 Off ch=10 n=42 v=64
54048 On ch=10 n=42 v=84
54052 Off ch=10 n=42 v=64
54144 On ch=10 n=36 v=106
54144 On ch=10 n=42 v=106
54148 Off ch=10 n=36 v=64
54148 Off ch=10 n=42 v=64
54240 On ch=10 n=42 v=84
54244 Off ch=10 n=42 v=64
54336 On ch=10 n=38 v=127
54336 On ch=10 n=42 v=106
54340 Off ch=10 n=38 v=64
54340 Off ch=10 n=42 v=64
54432 On ch=10 n=38 v=106
54432 On ch=10 n=36 v=106
54432 On ch=10 n=42 v=84
54436 Off ch=10 n=38 v=64
54436 Off ch=10 n=36 v=64
54436 Off ch=10 n=42 v=64
54528 On ch=10 n=36 v=106
54528 On ch=10 n=42 v=106
54528 On ch=10 n=49 v=106
54532 Off ch=10 n=36 v=64
54532 Off ch=10 n=42 v=64
54532 Off ch=10 n=49 v=64
54624 On ch=10 n=42 v=84
54628 Off ch=10 n=42 v=64
54720 On ch=10 n=38 v=127
54720 On ch=10 n=42 v=106
54724 Off ch=10 n=38 v=64
54724 Off ch=10 n=42 v=64
54816 On ch=10 n=42 v=84
54820 Off ch=10 n=42 v=64
54912 On ch=10 n=36 v=106
54912 On ch=10 n=42 v=106
54916 Off ch=10 n=36 v=64
54916 Off ch=10 n=42 v=64
55008 On ch=10 n=42 v=84
55012 Off ch=10 n=42 v=64
55104 On ch=10 n=38 v=127
55104 On ch=10 n=42 v=106
55108 Off ch=10 n=38 v=64
55108 Off ch=10 n=42 v=64
55200 On ch=10 n=42 v=84
55204 Off ch=10 n=42 v=64
55296 Par ch=10 c=7 v=77
55296 On ch=10 n=36 v=106
55296 On ch=10 n=42 v=106
55300 Off ch=10 n=36 v=64
55300 Off ch=10 n=42 v=64
55392 On ch=10 n=42 v=84
55396 Off ch=10 n=42 v=64
55416 Par ch=10 c=7 v=76
55488 On ch=10 n=38 v=127
55488 On ch=10 n=42 v=106
55492 Off ch=10 n=38 v=64
55492 Off ch=10 n=42 v=64
55536 Par ch=10 c=7 v=75
55584 On ch=10 n=42 v=84
55588 Off ch=10 n=42 v=64
55632 Par ch=10 c=7 v=74
55680 On ch=10 n=36 v=106
55680 On ch=10 n=42 v=106
55684 Off ch=10 n=36 v=64
55684 Off ch=10 n=42 v=64
55752 Par ch=10 c=7 v=73
55776 On ch=10 n=42 v=84
55780 Off ch=10 n=42 v=64
55848 Par ch=10 c=7 v=72
55872 On ch=10 n=38 v=127
55872 On ch=10 n=42 v=106
55876 Off ch=10 n=38 v=64
55876 Off ch=10 n=42 v=64
55968 Par ch=10 c=7 v=71
55968 On ch=10 n=42 v=84
55972 Off ch=10 n=42 v=64
56064 Par ch=10 c=7 v=70
56064 On ch=10 n=36 v=106
56064 On ch=10 n=42 v=106
56068 Off ch=10 n=36 v=64
56068 Off ch=10 n=42 v=64
56160 On ch=10 n=42 v=84
56164 Off ch=10 n=42 v=64
56184 Par ch=10 c=7 v=69
56256 On ch=10 n=38 v=127
56256 On ch=10 n=42 v=106
56260 Off ch=10 n=38 v=64
56260 Off ch=10 n=42 v=64
56304 Par ch=10 c=7 v=68
56352 On ch=10 n=42 v=84
56356 Off ch=10 n=42 v=64
56400 Par ch=10 c=7 v=67
56448 On ch=10 n=36 v=106
56448 On ch=10 n=42 v=106
56452 Off ch=10 n=36 v=64
56452 Off ch=10 n=42 v=64
56520 Par ch=10 c=7 v=66
56544 On ch=10 n=42 v=84
56548 Off ch=10 n=42 v=64
56616 Par ch=10 c=7 v=65
56640 On ch=10 n=38 v=127
56640 On ch=10 n=42 v=106
56644 Off ch=10 n=38 v=64
56644 Off ch=10 n=42 v=64
56736 Par ch=10 c=7 v=64
56736 On ch=10 n=42 v=84
56740 Off ch=10 n=42 v=64
56832 Par ch=10 c=7 v=63
56832 On ch=10 n=36 v=106
56832 On ch=10 n=42 v=106
56836 Off ch=10 n=36 v=64
56836 Off ch=10 n=42 v=64
56928 On ch=10 n=42 v=84
56932 Off ch=10 n=42 v=64
56952 Par ch=10 c=7 v=62
57024 On ch=10 n=38 v=127
57024 On ch=10 n=42 v=106
57028 Off ch=10 n=38 v=64
57028 Off ch=10 n=42 v=64
57072 Par ch=10 c=7 v=61
57120 On ch=10 n=42 v=84
57124 Off ch=10 n=42 v=64
57168 Par ch=10 c=7 v=60
57216 On ch=10 n=36 v=106
57216 On ch=10 n=42 v=106
57220 Off ch=10 n=36 v=64
57220 Off ch=10 n=42 v=64
57288 Par ch=10 c=7 v=59
57312 On ch=10 n=42 v=84
57316 Off ch=10 n=42 v=64
57384 Par ch=10 c=7 v=58
57408 On ch=10 n=38 v=127
57408 On ch=10 n=42 v=106
57412 Off ch=10 n=38 v=64
57412 Off ch=10 n=42 v=64
57504 Par ch=10 c=7 v=57
57504 On ch=10 n=36 v=106
57504 On ch=10 n=38 v=106
57504 On ch=10 n=42 v=84
57508 Off ch=10 n=36 v=64
57508 Off ch=10 n=38 v=64
57508 Off ch=10 n=42 v=64
57600 Par ch=10 c=7 v=56
57600 On ch=10 n=36 v=106
57600 On ch=10 n=42 v=106
57600 On ch=10 n=49 v=106
57604 Off ch=10 n=36 v=64
57604 Off ch=10 n=42 v=64
57604 Off ch=10 n=49 v=64
57696 On ch=10 n=42 v=84
57700 Off ch=10 n=42 v=64
57720 Par ch=10 c=7 v=55
57792 On ch=10 n=38 v=127
57792 On ch=10 n=42 v=106
57796 Off ch=10 n=38 v=64
57796 Off ch=10 n=42 v=64
57840 Par ch=10 c=7 v=54
57888 On ch=10 n=42 v=84
57892 Off ch=10 n=42 v=64
57936 Par ch=10 c=7 v=53
57984 On ch=10 n=36 v=106
57984 On ch=10 n=42 v=106
57988 Off ch=10 n=36 v=64
57988 Off ch=10 n=42 v=64
58056 Par ch=10 c=7 v=52
58080 On ch=10 n=42 v=84
58084 Off ch=10 n=42 v=64
58152 Par ch=10 c=7 v=51
58176 On ch=10 n=38 v=127
58176 On ch=10 n=42 v=106
58180 Off ch=10 n=38 v=64
58180 Off ch=10 n=42 v=64
58272 Par ch=10 c=7 v=50
58272 On ch=10 n=42 v=84
58276 Off ch=10 n=42 v=64
58368 Par ch=10 c=7 v=49
58368 On ch=10 n=36 v=106
58368 On ch=10 n=42 v=106
58372 Off ch=10 n=36 v=64
58372 Off ch=10 n=42 v=64
58464 On ch=10 n=42 v=84
58468 Off ch=10 n=42 v=64
58488 Par ch=10 c=7 v=48
58560 On ch=10 n=38 v=127
58560 On ch=10 n=42 v=106
58564 Off ch=10 n=38 v=64
58564 Off ch=10 n=42 v=64
58608 Par ch=10 c=7 v=47
58656 On ch=10 n=42 v=84
58660 Off ch=10 n=42 v=64
58704 Par ch=10 c=7 v=46
58752 On ch=10 n=36 v=106
58752 On ch=10 n=42 v=106
58756 Off ch=10 n=36 v=64
58756 Off ch=10 n=42 v=64
58824 Par ch=10 c=7 v=45
58848 On ch=10 n=42 v=84
58852 Off ch=10 n=42 v=64
58920 Par ch=10 c=7 v=44
58944 On ch=10 n=38 v=127
58944 On ch=10 n=42 v=106
58948 Off ch=10 n=38 v=64
58948 Off ch=10 n=42 v=64
59040 Par ch=10 c=7 v=43
59040 On ch=10 n=42 v=84
59044 Off ch=10 n=42 v=64
59136 Par ch=10 c=7 v=42
59136 On ch=10 n=36 v=106
59136 On ch=10 n=42 v=106
59140 Off ch=10 n=36 v=64
59140 Off ch=10 n=42 v=64
59232 On ch=10 n=42 v=84
59236 Off ch=10 n=42 v=64
59256 Par ch=10 c=7 v=41
59328 On ch=10 n=38 v=127
59328 On ch=10 n=42 v=106
59332 Off ch=10 n=38 v=64
59332 Off ch=10 n=42 v=64
59376 Par ch=10 c=7 v=40
59424 On ch=10 n=42 v=84
59428 Off ch=10 n=42 v=64
59472 Par ch=10 c=7 v=39
59520 On ch=10 n=36 v=106
59520 On ch=10 n=42 v=106
59524 Off ch=10 n=36 v=64
59524 Off ch=10 n=42 v=64
59592 Par ch=10 c=7 v=38
59616 On ch=10 n=42 v=84
59620 Off ch=10 n=42 v=64
59688 Par ch=10 c=7 v=37
59712 On ch=10 n=38 v=127
59712 On ch=10 n=42 v=106
59716 Off ch=10 n=38 v=64
59716 Off ch=10 n=42 v=64
59808 Par ch=10 c=7 v=36
59808 On ch=10 n=42 v=84
59812 Off ch=10 n=42 v=64
59904 Par ch=10 c=7 v=35
59904 On ch=10 n=36 v=106
59904 On ch=10 n=42 v=106
59908 Off ch=10 n=36 v=64
59908 Off ch=10 n=42 v=64
60000 On ch=10 n=42 v=84
60004 Off ch=10 n=42 v=64
60024 Par ch=10 c=7 v=34
60096 On ch=10 n=38 v=127
60096 On ch=10 n=42 v=106
60100 Off ch=10 n=38 v=64
60100 Off ch=10 n=42 v=64
60144 Par ch=10 c=7 v=33
60192 On ch=10 n=42 v=84
60196 Off ch=10 n=42 v=64
60240 Par ch=10 c=7 v=32
60288 On ch=10 n=36 v=106
60288 On ch=10 n=42 v=106
60292 Off ch=10 n=36 v=64
60292 Off ch=10 n=42 v=64
60360 Par ch=10 c=7 v=31
60384 On ch=10 n=42 v=84
60388 Off ch=10 n=42 v=64
60432 On ch=10 n=38 v=106
60436 Off ch=10 n=38 v=64
60456 Par ch=10 c=7 v=30
60480 On ch=10 n=38 v=127
60480 On ch=10 n=42 v=106
60484 Off ch=10 n=38 v=64
60484 Off ch=10 n=42 v=64
60576 Par ch=10 c=7 v=29
60576 On ch=10 n=38 v=106
60576 On ch=10 n=36 v=106
60576 On ch=10 n=42 v=84
60580 Off ch=10 n=38 v=64
60580 Off ch=10 n=36 v=64
60580 Off ch=10 n=42 v=64
60672 Par ch=10 c=7 v=28
60672 On ch=10 n=36 v=106
60672 On ch=10 n=42 v=106
60672 On ch=10 n=49 v=106
60676 Off ch=10 n=36 v=64
60676 Off ch=10 n=42 v=64
60676 Off ch=10 n=49 v=64
60768 On ch=10 n=42 v=84
60772 Off ch=10 n=42 v=64
60792 Par ch=10 c=7 v=27
60864 On ch=10 n=38 v=127
60864 On ch=10 n=42 v=106
60868 Off ch=10 n=38 v=64
60868 Off ch=10 n=42 v=64
60912 Par ch=10 c=7 v=26
60960 On ch=10 n=42 v=84
60964 Off ch=10 n=42 v=64
61008 Par ch=10 c=7 v=25
61056 On ch=10 n=36 v=106
61056 On ch=10 n=42 v=106
61060 Off ch=10 n=36 v=64
61060 Off ch=10 n=42 v=64
61128 Par ch=10 c=7 v=24
61152 On ch=10 n=42 v=84
61156 Off ch=10 n=42 v=64
61224 Par ch=10 c=7 v=23
61248 On ch=10 n=38 v=127
61248 On ch=10 n=42 v=106
61252 Off ch=10 n=38 v=64
61252 Off ch=10 n=42 v=64
61344 Par ch=10 c=7 v=22
61344 On ch=10 n=42 v=84
61348 Off ch=10 n=42 v=64
61440 Par ch=10 c=7 v=21
61440 On ch=10 n=36 v=106
61440 On ch=10 n=42 v=106
61444 Off ch=10 n=36 v=64
61444 Off ch=10 n=42 v=64
61536 On ch=10 n=42 v=84
61540 Off ch=10 n=42 v=64
61560 Par ch=10 c=7 v=20
61632 On ch=10 n=38 v=127
61632 On ch=10 n=42 v=106
61636 Off ch=10 n=38 v=64
61636 Off ch=10 n=42 v=64
61680 Par ch=10 c=7 v=19
61728 On ch=10 n=42 v=84
61732 Off ch=10 n=42 v=64
61776 Par ch=10 c=7 v=18
61824 On ch=10 n=36 v=106
61824 On ch=10 n=42 v=106
61828 Off ch=10 n=36 v=64
61828 Off ch=10 n=42 v=64
61896 Par ch=10 c=7 v=17
61920 On ch=10 n=42 v=84
61924 Off ch=10 n=42 v=64
61992 Par ch=10 c=7 v=16
62016 On ch=10 n=38 v=127
62016 On ch=10 n=42 v=106
62020 Off ch=10 n=38 v=64
62020 Off ch=10 n=42 v=64
62112 Par ch=10 c=7 v=15
62112 On ch=10 n=42 v=84
62116 Off ch=10 n=42 v=64
62208 Par ch=10 c=7 v=14
62208 On ch=10 n=36 v=106
62208 On ch=10 n=42 v=106
62212 Off ch=10 n=36 v=64
62212 Off ch=10 n=42 v=64
62304 On ch=10 n=42 v=84
62308 Off ch=10 n=42 v=64
62328 Par ch=10 c=7 v=13
62400 On ch=10 n=38 v=127
62400 On ch=10 n=42 v=106
62404 Off ch=10 n=38 v=64
62404 Off ch=10 n=42 v=64
62448 Par ch=10 c=7 v=12
62496 On ch=10 n=42 v=84
62500 Off ch=10 n=42 v=64
62544 Par ch=10 c=7 v=11
62592 On ch=10 n=36 v=106
62592 On ch=10 n=42 v=106
62596 Off ch=10 n=36 v=64
62596 Off ch=10 n=42 v=64
62664 Par ch=10 c=7 v=10
62688 On ch=10 n=42 v=84
62692 Off ch=10 n=42 v=64
62760 Par ch=10 c=7 v=9
62784 On ch=10 n=38 v=127
62784 On ch=10 n=42 v=106
62788 Off ch=10 n=38 v=64
62788 Off ch=10 n=42 v=64
62880 Par ch=10 c=7 v=8
62880 On ch=10 n=42 v=84
62884 Off ch=10 n=42 v=64
62976 Par ch=10 c=7 v=7
62976 On ch=10 n=36 v=106
62976 On ch=10 n=42 v=106
62980 Off ch=10 n=36 v=64
62980 Off ch=10 n=42 v=64
63072 On ch=10 n=42 v=84
63076 Off ch=10 n=42 v=64
63096 Par ch=10 c=7 v=6
63168 On ch=10 n=38 v=127
63168 On ch=10 n=42 v=106
63172 Off ch=10 n=38 v=64
63172 Off ch=10 n=42 v=64
63216 Par ch=10 c=7 v=5
63264 On ch=10 n=42 v=84
63268 Off ch=10 n=42 v=64
63312 Par ch=10 c=7 v=4
63360 On ch=10 n=36 v=106
63360 On ch=10 n=42 v=106
63364 Off ch=10 n=36 v=64
63364 Off ch=10 n=42 v=64
63432 Par ch=10 c=7 v=3
63456 On ch=10 n=42 v=84
63460 Off ch=10 n=42 v=64
63528 Par ch=10 c=7 v=2
63552 On ch=10 n=38 v=127
63552 On ch=10 n=42 v=106
63556 Off ch=10 n=38 v=64
63556 Off ch=10 n=42 v=64
63648 Par ch=10 c=7 v=1
63648 On ch=10 n=42 v=84
63652 Off ch=10 n=42 v=64
63652 Meta TrkEnd
TrkEnd
