MFile 1 15 120
MTrk
0 Meta SeqName "Where Is The Love"
0 Meta SeqName "Black Eyed Peas"
0 Meta Copyright "Copyright \xa9 2003 by Paolo"
0 Meta Text "Paolo\n"
0 TimeSig 4/4 24 8
0 KeySig -1 major
0 Tempo 638298
480 Meta Marker "Intro"
2400 Meta Marker "Verse 1"
10080 Meta Marker "Chorus"
15840 Meta Marker "Verse 2"
23520 Meta Marker "Chorus"
29280 Meta Marker "Verse 3"
33120 Meta Marker "Verse 4"
36960 Meta Marker "Chorus"
36960 Meta TrkEnd
TrkEnd
MTrk
0 Meta TrkName "Strings Orchestra"
0 Par ch=1 c=0 v=0
0 Par ch=1 c=7 v=88
0 Par ch=1 c=32 v=0
0 PrCh ch=1 p=48
480 On ch=1 n=77 v=100
480 On ch=1 n=65 v=100
525 On ch=1 n=65 v=0
525 On ch=1 n=77 v=0
780 On ch=1 n=72 v=100
802 On ch=1 n=72 v=0
840 On ch=1 n=69 v=100
840 On ch=1 n=81 v=100
862 On ch=1 n=81 v=0
862 On ch=1 n=69 v=0
900 On ch=1 n=77 v=100
900 On ch=1 n=65 v=100
922 On ch=1 n=65 v=0
922 On ch=1 n=77 v=0
960 On ch=1 n=76 v=100
960 On ch=1 n=64 v=100
1005 On ch=1 n=64 v=0
1005 On ch=1 n=76 v=0
1260 On ch=1 n=60 v=100
1260 On ch=1 n=72 v=100
1282 On ch=1 n=72 v=0
1282 On ch=1 n=60 v=0
1320 On ch=1 n=76 v=100
1320 On ch=1 n=64 v=100
1342 On ch=1 n=64 v=0
1342 On ch=1 n=76 v=0
1380 On ch=1 n=65 v=100
1380 On ch=1 n=77 v=100
1402 On ch=1 n=77 v=0
1402 On ch=1 n=65 v=0
1440 On ch=1 n=74 v=100
1440 On ch=1 n=62 v=100
1485 On ch=1 n=62 v=0
1485 On ch=1 n=74 v=0
1800 On ch=1 n=76 v=100
1800 On ch=1 n=64 v=100
1822 On ch=1 n=64 v=0
1822 On ch=1 n=76 v=0
1860 On ch=1 n=65 v=100
1860 On ch=1 n=77 v=100
1882 On ch=1 n=77 v=0
1882 On ch=1 n=65 v=0
1920 On ch=1 n=70 v=100
1920 On ch=1 n=58 v=100
1942 On ch=1 n=58 v=0
1942 On ch=1 n=70 v=0
2160 On ch=1 n=58 v=100
2160 On ch=1 n=70 v=100
2182 On ch=1 n=70 v=0
2182 On ch=1 n=58 v=0
2220 On ch=1 n=82 v=100
2220 On ch=1 n=70 v=100
2242 On ch=1 n=70 v=0
2242 On ch=1 n=82 v=0
2280 On ch=1 n=70 v=100
2280 On ch=1 n=58 v=100
2302 On ch=1 n=58 v=0
2302 On ch=1 n=70 v=0
2340 On ch=1 n=82 v=100
2340 On ch=1 n=70 v=100
2362 On ch=1 n=70 v=0
2362 On ch=1 n=82 v=0
2400 On ch=1 n=65 v=100
2400 On ch=1 n=77 v=100
2445 On ch=1 n=77 v=0
2445 On ch=1 n=65 v=0
6000 On ch=1 n=58 v=100
6022 On ch=1 n=58 v=0
6060 On ch=1 n=70 v=100
6082 On ch=1 n=70 v=0
6120 On ch=1 n=58 v=100
6142 On ch=1 n=58 v=0
6180 On ch=1 n=70 v=100
6202 On ch=1 n=70 v=0
6240 On ch=1 n=65 v=85
6270 On ch=1 n=65 v=0
7920 On ch=1 n=58 v=100
7920 On ch=1 n=70 v=100
7942 On ch=1 n=70 v=0
7942 On ch=1 n=58 v=0
7980 On ch=1 n=70 v=100
7980 On ch=1 n=82 v=100
8002 On ch=1 n=82 v=0
8002 On ch=1 n=70 v=0
8040 On ch=1 n=58 v=100
8040 On ch=1 n=70 v=100
8062 On ch=1 n=70 v=0
8062 On ch=1 n=58 v=0
8100 On ch=1 n=82 v=100
8100 On ch=1 n=70 v=100
8122 On ch=1 n=70 v=0
8122 On ch=1 n=82 v=0
8160 On ch=1 n=65 v=85
8160 On ch=1 n=77 v=85
8190 On ch=1 n=77 v=0
8190 On ch=1 n=65 v=0
9600 On ch=1 n=58 v=100
9720 On ch=1 n=70 v=100
9840 On ch=1 n=70 v=0
9840 On ch=1 n=82 v=88
9840 On ch=1 n=72 v=100
10080 On ch=1 n=72 v=0
10080 On ch=1 n=82 v=0
10080 On ch=1 n=58 v=0
10080 On ch=1 n=81 v=100
10080 On ch=1 n=77 v=100
10080 On ch=1 n=72 v=100
10560 On ch=1 n=72 v=0
10560 On ch=1 n=77 v=0
10560 On ch=1 n=81 v=0
10560 On ch=1 n=72 v=100
10560 On ch=1 n=76 v=100
10560 On ch=1 n=79 v=100
11040 On ch=1 n=79 v=0
11040 On ch=1 n=76 v=0
11040 On ch=1 n=72 v=0
11040 On ch=1 n=77 v=100
11040 On ch=1 n=74 v=100
11040 On ch=1 n=69 v=100
11520 On ch=1 n=69 v=0
11520 On ch=1 n=74 v=0
11520 On ch=1 n=77 v=0
11520 On ch=1 n=70 v=100
11520 On ch=1 n=69 v=100
11520 On ch=1 n=74 v=100
11640 On ch=1 n=69 v=0
11640 On ch=1 n=67 v=100
11760 On ch=1 n=67 v=0
11760 On ch=1 n=69 v=100
11880 On ch=1 n=69 v=0
11880 On ch=1 n=70 v=100
12000 On ch=1 n=70 v=0
12000 On ch=1 n=74 v=0
12000 On ch=1 n=70 v=0
12000 On ch=1 n=81 v=100
12000 On ch=1 n=77 v=100
12000 On ch=1 n=72 v=100
12480 On ch=1 n=72 v=0
12480 On ch=1 n=77 v=0
12480 On ch=1 n=81 v=0
12480 On ch=1 n=76 v=100
12480 On ch=1 n=72 v=100
12480 On ch=1 n=79 v=100
12960 On ch=1 n=79 v=0
12960 On ch=1 n=72 v=0
12960 On ch=1 n=76 v=0
12960 On ch=1 n=74 v=100
12960 On ch=1 n=77 v=100
12960 On ch=1 n=69 v=100
13440 On ch=1 n=69 v=0
13440 On ch=1 n=77 v=0
13440 On ch=1 n=74 v=0
13440 On ch=1 n=69 v=100
13440 On ch=1 n=74 v=100
13440 On ch=1 n=70 v=100
13560 On ch=1 n=69 v=0
13560 On ch=1 n=67 v=100
13680 On ch=1 n=67 v=0
13680 On ch=1 n=69 v=100
13800 On ch=1 n=69 v=0
13800 On ch=1 n=70 v=100
13920 On ch=1 n=70 v=0
13920 On ch=1 n=70 v=0
13920 On ch=1 n=74 v=0
13980 On ch=1 n=65 v=100
13980 On ch=1 n=60 v=100
13980 On ch=1 n=69 v=100
14010 On ch=1 n=69 v=0
14010 On ch=1 n=60 v=0
14010 On ch=1 n=65 v=0
14100 On ch=1 n=65 v=100
14100 On ch=1 n=69 v=100
14100 On ch=1 n=60 v=100
14130 On ch=1 n=60 v=0
14130 On ch=1 n=69 v=0
14130 On ch=1 n=65 v=0
14220 On ch=1 n=60 v=100
14220 On ch=1 n=69 v=100
14220 On ch=1 n=65 v=100
14250 On ch=1 n=65 v=0
14250 On ch=1 n=69 v=0
14250 On ch=1 n=60 v=0
14340 On ch=1 n=65 v=100
14340 On ch=1 n=69 v=100
14340 On ch=1 n=60 v=100
14370 On ch=1 n=60 v=0
14370 On ch=1 n=69 v=0
14370 On ch=1 n=65 v=0
14460 On ch=1 n=60 v=100
14460 On ch=1 n=67 v=100
14460 On ch=1 n=64 v=100
14490 On ch=1 n=64 v=0
14490 On ch=1 n=67 v=0
14490 On ch=1 n=60 v=0
14580 On ch=1 n=64 v=100
14580 On ch=1 n=67 v=100
14580 On ch=1 n=60 v=100
14610 On ch=1 n=60 v=0
14610 On ch=1 n=67 v=0
14610 On ch=1 n=64 v=0
14700 On ch=1 n=67 v=100
14700 On ch=1 n=60 v=100
14700 On ch=1 n=64 v=100
14730 On ch=1 n=64 v=0
14730 On ch=1 n=60 v=0
14730 On ch=1 n=67 v=0
14820 On ch=1 n=64 v=100
14820 On ch=1 n=67 v=100
14820 On ch=1 n=60 v=100
14850 On ch=1 n=60 v=0
14850 On ch=1 n=67 v=0
14850 On ch=1 n=64 v=0
14940 On ch=1 n=62 v=100
14940 On ch=1 n=65 v=100
14940 On ch=1 n=57 v=100
14970 On ch=1 n=57 v=0
14970 On ch=1 n=65 v=0
14970 On ch=1 n=62 v=0
15060 On ch=1 n=62 v=100
15060 On ch=1 n=65 v=100
15060 On ch=1 n=57 v=100
15090 On ch=1 n=57 v=0
15090 On ch=1 n=65 v=0
15090 On ch=1 n=62 v=0
15180 On ch=1 n=62 v=100
15180 On ch=1 n=57 v=100
15180 On ch=1 n=65 v=100
15210 On ch=1 n=65 v=0
15210 On ch=1 n=57 v=0
15210 On ch=1 n=62 v=0
15300 On ch=1 n=62 v=100
15300 On ch=1 n=57 v=100
15300 On ch=1 n=65 v=100
15330 On ch=1 n=65 v=0
15330 On ch=1 n=57 v=0
15330 On ch=1 n=62 v=0
15420 On ch=1 n=58 v=100
15420 On ch=1 n=62 v=100
15420 On ch=1 n=65 v=100
15450 On ch=1 n=65 v=0
15450 On ch=1 n=62 v=0
15450 On ch=1 n=58 v=0
15540 On ch=1 n=62 v=100
15540 On ch=1 n=65 v=100
15540 On ch=1 n=58 v=100
15570 On ch=1 n=58 v=0
15570 On ch=1 n=65 v=0
15570 On ch=1 n=62 v=0
15660 On ch=1 n=62 v=100
15660 On ch=1 n=65 v=100
15660 On ch=1 n=58 v=100
15690 On ch=1 n=58 v=0
15690 On ch=1 n=65 v=0
15690 On ch=1 n=62 v=0
15780 On ch=1 n=62 v=100
15780 On ch=1 n=65 v=100
15780 On ch=1 n=58 v=100
15810 On ch=1 n=58 v=0
15810 On ch=1 n=65 v=0
15810 On ch=1 n=62 v=0
15840 On ch=1 n=53 v=100
15840 On ch=1 n=60 v=100
15840 On ch=1 n=57 v=100
15840 On ch=1 n=65 v=100
15870 On ch=1 n=65 v=0
15870 On ch=1 n=53 v=0
15870 On ch=1 n=60 v=0
15870 On ch=1 n=57 v=0
16200 On ch=1 n=60 v=100
16200 On ch=1 n=65 v=100
16200 On ch=1 n=69 v=100
16320 On ch=1 n=69 v=0
16320 On ch=1 n=65 v=0
16320 On ch=1 n=60 v=0
16320 On ch=1 n=60 v=100
16320 On ch=1 n=67 v=100
16320 On ch=1 n=64 v=100
16350 On ch=1 n=64 v=0
16350 On ch=1 n=67 v=0
16350 On ch=1 n=60 v=0
16680 On ch=1 n=60 v=100
16680 On ch=1 n=64 v=100
16680 On ch=1 n=67 v=100
16800 On ch=1 n=67 v=0
16800 On ch=1 n=64 v=0
16800 On ch=1 n=60 v=0
16800 On ch=1 n=62 v=100
16800 On ch=1 n=65 v=100
16800 On ch=1 n=57 v=100
16830 On ch=1 n=57 v=0
16830 On ch=1 n=65 v=0
16830 On ch=1 n=62 v=0
17160 On ch=1 n=65 v=100
17160 On ch=1 n=57 v=100
17160 On ch=1 n=62 v=100
17271 Pb ch=1 v=8192
17273 Pb ch=1 v=7168
17274 Pb ch=1 v=6144
17275 Pb ch=1 v=5120
17277 Pb ch=1 v=4096
17278 Pb ch=1 v=2944
17280 On ch=1 n=62 v=0
17280 On ch=1 n=57 v=0
17280 On ch=1 n=65 v=0
17280 On ch=1 n=53 v=100
17280 On ch=1 n=58 v=100
17280 On ch=1 n=50 v=100
17280 Pb ch=1 v=8192
17310 On ch=1 n=50 v=0
17310 On ch=1 n=58 v=0
17310 On ch=1 n=53 v=0
17640 On ch=1 n=58 v=100
17640 On ch=1 n=50 v=100
17640 On ch=1 n=53 v=100
17760 On ch=1 n=53 v=0
17760 On ch=1 n=50 v=0
17760 On ch=1 n=58 v=0
17760 On ch=1 n=60 v=100
17760 On ch=1 n=57 v=100
17760 On ch=1 n=65 v=100
17760 On ch=1 n=53 v=100
17790 On ch=1 n=53 v=0
17790 On ch=1 n=60 v=0
17790 On ch=1 n=57 v=0
17790 On ch=1 n=65 v=0
18120 On ch=1 n=65 v=100
18120 On ch=1 n=69 v=100
18120 On ch=1 n=60 v=100
18240 On ch=1 n=60 v=0
18240 On ch=1 n=69 v=0
18240 On ch=1 n=65 v=0
18240 On ch=1 n=67 v=100
18240 On ch=1 n=64 v=100
18240 On ch=1 n=60 v=100
18270 On ch=1 n=60 v=0
18270 On ch=1 n=64 v=0
18270 On ch=1 n=67 v=0
18600 On ch=1 n=64 v=100
18600 On ch=1 n=60 v=100
18600 On ch=1 n=67 v=100
18720 On ch=1 n=67 v=0
18720 On ch=1 n=60 v=0
18720 On ch=1 n=64 v=0
18720 On ch=1 n=62 v=100
18720 On ch=1 n=65 v=100
18720 On ch=1 n=57 v=100
18750 On ch=1 n=57 v=0
18750 On ch=1 n=65 v=0
18750 On ch=1 n=62 v=0
19080 On ch=1 n=57 v=100
19080 On ch=1 n=62 v=100
19080 On ch=1 n=65 v=100
19191 Pb ch=1 v=8192
19193 Pb ch=1 v=7168
19194 Pb ch=1 v=6144
19195 Pb ch=1 v=5120
19197 Pb ch=1 v=4096
19198 Pb ch=1 v=2944
19200 On ch=1 n=65 v=0
19200 On ch=1 n=62 v=0
19200 On ch=1 n=57 v=0
19200 On ch=1 n=50 v=100
19200 Pb ch=1 v=8192
19200 On ch=1 n=53 v=100
19200 On ch=1 n=58 v=100
19230 On ch=1 n=58 v=0
19230 On ch=1 n=53 v=0
19230 On ch=1 n=50 v=0
19500 On ch=1 n=58 v=100
19530 On ch=1 n=58 v=0
19530 On ch=1 n=60 v=100
19560 On ch=1 n=60 v=0
19560 On ch=1 n=62 v=100
19590 On ch=1 n=62 v=0
19590 On ch=1 n=65 v=100
19620 On ch=1 n=65 v=0
19620 On ch=1 n=77 v=100
19650 On ch=1 n=77 v=0
19650 On ch=1 n=82 v=100
19680 On ch=1 n=82 v=0
19680 On ch=1 n=72 v=100
19680 On ch=1 n=77 v=100
19680 On ch=1 n=69 v=100
19680 On ch=1 n=65 v=100
19710 On ch=1 n=65 v=0
19710 On ch=1 n=72 v=0
19710 On ch=1 n=77 v=0
19710 On ch=1 n=69 v=0
20040 On ch=1 n=72 v=100
20040 On ch=1 n=77 v=100
20040 On ch=1 n=81 v=100
20160 On ch=1 n=81 v=0
20160 On ch=1 n=77 v=0
20160 On ch=1 n=72 v=0
20160 On ch=1 n=79 v=100
20160 On ch=1 n=76 v=100
20160 On ch=1 n=72 v=100
20190 On ch=1 n=72 v=0
20190 On ch=1 n=76 v=0
20190 On ch=1 n=79 v=0
20520 On ch=1 n=79 v=100
20520 On ch=1 n=76 v=100
20520 On ch=1 n=72 v=100
20640 On ch=1 n=72 v=0
20640 On ch=1 n=76 v=0
20640 On ch=1 n=79 v=0
20640 On ch=1 n=69 v=100
20640 On ch=1 n=77 v=100
20640 On ch=1 n=74 v=100
20670 On ch=1 n=74 v=0
20670 On ch=1 n=77 v=0
20670 On ch=1 n=69 v=0
21000 On ch=1 n=74 v=100
21000 On ch=1 n=77 v=100
21000 On ch=1 n=69 v=100
21111 Pb ch=1 v=8192
21113 Pb ch=1 v=7168
21114 Pb ch=1 v=6144
21115 Pb ch=1 v=5120
21117 Pb ch=1 v=4096
21118 Pb ch=1 v=2944
21120 On ch=1 n=69 v=0
21120 On ch=1 n=77 v=0
21120 On ch=1 n=74 v=0
21120 On ch=1 n=65 v=100
21120 Pb ch=1 v=8192
21120 On ch=1 n=70 v=100
21120 On ch=1 n=62 v=100
21150 On ch=1 n=62 v=0
21150 On ch=1 n=70 v=0
21150 On ch=1 n=65 v=0
21420 On ch=1 n=65 v=100
21420 On ch=1 n=62 v=100
21450 On ch=1 n=62 v=0
21450 On ch=1 n=65 v=0
21480 On ch=1 n=65 v=100
21480 On ch=1 n=70 v=100
21510 On ch=1 n=70 v=0
21510 On ch=1 n=65 v=0
21540 On ch=1 n=62 v=100
21540 On ch=1 n=58 v=100
21570 On ch=1 n=58 v=0
21570 On ch=1 n=62 v=0
21600 On ch=1 n=58 v=100
21780 On ch=1 n=60 v=100
22080 On ch=1 n=60 v=0
22080 On ch=1 n=65 v=100
22260 On ch=1 n=65 v=0
22260 On ch=1 n=70 v=100
22560 On ch=1 n=70 v=0
22560 On ch=1 n=72 v=100
22740 On ch=1 n=72 v=0
22740 On ch=1 n=74 v=100
23040 On ch=1 n=74 v=0
23040 On ch=1 n=77 v=100
23220 On ch=1 n=82 v=100
23520 On ch=1 n=82 v=0
23520 On ch=1 n=77 v=0
23520 On ch=1 n=58 v=0
23520 On ch=1 n=72 v=100
23520 On ch=1 n=77 v=100
23520 On ch=1 n=81 v=100
24000 On ch=1 n=81 v=0
24000 On ch=1 n=77 v=0
24000 On ch=1 n=72 v=0
24000 On ch=1 n=72 v=100
24000 On ch=1 n=79 v=100
24000 On ch=1 n=76 v=100
24480 On ch=1 n=76 v=0
24480 On ch=1 n=79 v=0
24480 On ch=1 n=72 v=0
24480 On ch=1 n=69 v=100
24480 On ch=1 n=74 v=100
24480 On ch=1 n=77 v=100
24960 On ch=1 n=77 v=0
24960 On ch=1 n=74 v=0
24960 On ch=1 n=69 v=0
24960 On ch=1 n=74 v=100
24960 On ch=1 n=70 v=100
24960 On ch=1 n=69 v=100
25080 On ch=1 n=69 v=0
25080 On ch=1 n=67 v=100
25200 On ch=1 n=67 v=0
25200 On ch=1 n=69 v=100
25320 On ch=1 n=69 v=0
25320 On ch=1 n=70 v=100
25440 On ch=1 n=70 v=0
25440 On ch=1 n=70 v=0
25440 On ch=1 n=74 v=0
25440 On ch=1 n=77 v=100
25440 On ch=1 n=72 v=100
25440 On ch=1 n=81 v=100
25920 On ch=1 n=81 v=0
25920 On ch=1 n=72 v=0
25920 On ch=1 n=77 v=0
25920 On ch=1 n=76 v=100
25920 On ch=1 n=72 v=100
25920 On ch=1 n=79 v=100
26400 On ch=1 n=79 v=0
26400 On ch=1 n=72 v=0
26400 On ch=1 n=76 v=0
26400 On ch=1 n=69 v=100
26400 On ch=1 n=77 v=100
26400 On ch=1 n=74 v=100
26880 On ch=1 n=74 v=0
26880 On ch=1 n=77 v=0
26880 On ch=1 n=69 v=0
26880 On ch=1 n=70 v=100
26880 On ch=1 n=74 v=100
27000 On ch=1 n=77 v=100
27060 On ch=1 n=77 v=0
27060 On ch=1 n=82 v=100
27120 On ch=1 n=82 v=0
27120 On ch=1 n=81 v=100
27180 On ch=1 n=81 v=0
27180 On ch=1 n=79 v=100
27210 On ch=1 n=79 v=0
27210 On ch=1 n=81 v=100
27240 On ch=1 n=81 v=0
27240 On ch=1 n=79 v=100
27300 On ch=1 n=79 v=0
27360 On ch=1 n=74 v=0
27360 On ch=1 n=70 v=0
27420 On ch=1 n=65 v=100
27420 On ch=1 n=60 v=100
27420 On ch=1 n=69 v=100
27450 On ch=1 n=69 v=0
27450 On ch=1 n=60 v=0
27450 On ch=1 n=65 v=0
27540 On ch=1 n=60 v=100
27540 On ch=1 n=65 v=100
27540 On ch=1 n=69 v=100
27570 On ch=1 n=69 v=0
27570 On ch=1 n=65 v=0
27570 On ch=1 n=60 v=0
27660 On ch=1 n=65 v=100
27660 On ch=1 n=69 v=100
27660 On ch=1 n=60 v=100
27690 On ch=1 n=60 v=0
27690 On ch=1 n=69 v=0
27690 On ch=1 n=65 v=0
27780 On ch=1 n=65 v=100
27780 On ch=1 n=69 v=100
27780 On ch=1 n=60 v=100
27810 On ch=1 n=60 v=0
27810 On ch=1 n=69 v=0
27810 On ch=1 n=65 v=0
27900 On ch=1 n=67 v=100
27900 On ch=1 n=64 v=100
27900 On ch=1 n=60 v=100
27930 On ch=1 n=60 v=0
27930 On ch=1 n=64 v=0
27930 On ch=1 n=67 v=0
28020 On ch=1 n=64 v=100
28020 On ch=1 n=60 v=100
28020 On ch=1 n=67 v=100
28050 On ch=1 n=67 v=0
28050 On ch=1 n=60 v=0
28050 On ch=1 n=64 v=0
28140 On ch=1 n=60 v=100
28140 On ch=1 n=67 v=100
28140 On ch=1 n=64 v=100
28170 On ch=1 n=64 v=0
28170 On ch=1 n=67 v=0
28170 On ch=1 n=60 v=0
28260 On ch=1 n=64 v=100
28260 On ch=1 n=60 v=100
28260 On ch=1 n=67 v=100
28290 On ch=1 n=67 v=0
28290 On ch=1 n=60 v=0
28290 On ch=1 n=64 v=0
28380 On ch=1 n=65 v=100
28380 On ch=1 n=62 v=100
28380 On ch=1 n=57 v=100
28410 On ch=1 n=57 v=0
28410 On ch=1 n=62 v=0
28410 On ch=1 n=65 v=0
28500 On ch=1 n=65 v=100
28500 On ch=1 n=57 v=100
28500 On ch=1 n=62 v=100
28530 On ch=1 n=62 v=0
28530 On ch=1 n=57 v=0
28530 On ch=1 n=65 v=0
28620 On ch=1 n=57 v=100
28620 On ch=1 n=65 v=100
28620 On ch=1 n=62 v=100
28650 On ch=1 n=62 v=0
28650 On ch=1 n=65 v=0
28650 On ch=1 n=57 v=0
28740 On ch=1 n=62 v=100
28740 On ch=1 n=57 v=100
28740 On ch=1 n=65 v=100
28770 On ch=1 n=65 v=0
28770 On ch=1 n=57 v=0
28770 On ch=1 n=62 v=0
28860 On ch=1 n=62 v=100
28860 On ch=1 n=58 v=100
28860 On ch=1 n=65 v=100
28890 On ch=1 n=65 v=0
28890 On ch=1 n=58 v=0
28890 On ch=1 n=62 v=0
28980 On ch=1 n=58 v=100
28980 On ch=1 n=62 v=100
28980 On ch=1 n=65 v=100
29010 On ch=1 n=65 v=0
29010 On ch=1 n=62 v=0
29010 On ch=1 n=58 v=0
29100 On ch=1 n=65 v=100
29100 On ch=1 n=58 v=100
29100 On ch=1 n=62 v=100
29130 On ch=1 n=62 v=0
29130 On ch=1 n=58 v=0
29130 On ch=1 n=65 v=0
29220 On ch=1 n=62 v=100
29220 On ch=1 n=65 v=100
29220 On ch=1 n=58 v=100
29250 On ch=1 n=58 v=0
29250 On ch=1 n=65 v=0
29250 On ch=1 n=62 v=0
29280 On ch=1 n=77 v=70
29760 On ch=1 n=72 v=42
30240 On ch=1 n=69 v=36
30720 On ch=1 n=69 v=0
30720 On ch=1 n=70 v=24
31200 On ch=1 n=70 v=0
31200 On ch=1 n=72 v=0
31200 On ch=1 n=77 v=0
31200 On ch=1 n=77 v=70
31680 On ch=1 n=72 v=42
32160 On ch=1 n=69 v=36
32640 On ch=1 n=69 v=0
32640 On ch=1 n=70 v=24
32880 On ch=1 n=70 v=0
32880 On ch=1 n=72 v=0
32880 On ch=1 n=77 v=0
32880 On ch=1 n=58 v=100
32902 On ch=1 n=58 v=0
32940 On ch=1 n=70 v=100
32962 On ch=1 n=70 v=0
33000 On ch=1 n=58 v=100
33022 On ch=1 n=58 v=0
33060 On ch=1 n=70 v=100
33082 On ch=1 n=70 v=0
33120 On ch=1 n=65 v=85
33150 On ch=1 n=65 v=0
36480 On ch=1 n=58 v=100
36510 On ch=1 n=58 v=0
36540 On ch=1 n=62 v=100
36570 On ch=1 n=62 v=0
36600 On ch=1 n=65 v=100
36630 On ch=1 n=65 v=0
36660 On ch=1 n=69 v=100
36690 On ch=1 n=69 v=0
36720 On ch=1 n=79 v=100
36720 On ch=1 n=67 v=100
36750 On ch=1 n=67 v=0
36750 On ch=1 n=79 v=0
36780 On ch=1 n=65 v=100
36780 On ch=1 n=77 v=100
36810 On ch=1 n=77 v=0
36810 On ch=1 n=65 v=0
36840 On ch=1 n=76 v=100
36840 On ch=1 n=64 v=100
36870 On ch=1 n=64 v=0
36870 On ch=1 n=76 v=0
36900 On ch=1 n=65 v=100
36900 On ch=1 n=77 v=100
36930 On ch=1 n=77 v=0
36930 On ch=1 n=65 v=0
36960 On ch=1 n=77 v=100
36960 On ch=1 n=81 v=100
36960 On ch=1 n=72 v=100
37440 On ch=1 n=72 v=0
37440 On ch=1 n=81 v=0
37440 On ch=1 n=77 v=0
37440 On ch=1 n=79 v=100
37440 On ch=1 n=76 v=100
37440 On ch=1 n=72 v=100
37920 On ch=1 n=72 v=0
37920 On ch=1 n=76 v=0
37920 On ch=1 n=79 v=0
37920 On ch=1 n=74 v=100
37920 On ch=1 n=77 v=100
37920 On ch=1 n=69 v=100
38400 On ch=1 n=69 v=0
38400 On ch=1 n=77 v=0
38400 On ch=1 n=74 v=0
38400 On ch=1 n=70 v=100
38400 On ch=1 n=69 v=100
38400 On ch=1 n=74 v=100
38520 On ch=1 n=69 v=0
38520 On ch=1 n=67 v=100
38640 On ch=1 n=67 v=0
38640 On ch=1 n=69 v=100
38760 On ch=1 n=69 v=0
38760 On ch=1 n=70 v=100
38880 On ch=1 n=70 v=0
38880 On ch=1 n=74 v=0
38880 On ch=1 n=70 v=0
38880 On ch=1 n=72 v=100
38880 On ch=1 n=77 v=100
38880 On ch=1 n=81 v=100
39360 On ch=1 n=81 v=0
39360 On ch=1 n=77 v=0
39360 On ch=1 n=72 v=0
39360 On ch=1 n=72 v=100
39360 On ch=1 n=76 v=100
39360 On ch=1 n=79 v=100
39840 On ch=1 n=79 v=0
39840 On ch=1 n=76 v=0
39840 On ch=1 n=72 v=0
39840 On ch=1 n=77 v=100
39840 On ch=1 n=69 v=100
39840 On ch=1 n=74 v=100
40320 On ch=1 n=74 v=0
40320 On ch=1 n=69 v=0
40320 On ch=1 n=77 v=0
40320 On ch=1 n=74 v=100
40320 On ch=1 n=70 v=100
40440 On ch=1 n=77 v=100
40500 On ch=1 n=77 v=0
40500 On ch=1 n=82 v=100
40560 On ch=1 n=82 v=0
40560 On ch=1 n=81 v=100
40620 On ch=1 n=81 v=0
40620 On ch=1 n=79 v=100
40650 On ch=1 n=79 v=0
40650 On ch=1 n=81 v=100
40680 On ch=1 n=81 v=0
40680 On ch=1 n=79 v=100
40740 On ch=1 n=79 v=0
40800 On ch=1 n=70 v=0
40800 On ch=1 n=74 v=0
40860 On ch=1 n=60 v=100
40860 On ch=1 n=69 v=100
40860 On ch=1 n=65 v=100
40890 On ch=1 n=65 v=0
40890 On ch=1 n=69 v=0
40890 On ch=1 n=60 v=0
40980 On ch=1 n=65 v=100
40980 On ch=1 n=69 v=100
40980 On ch=1 n=60 v=100
41010 On ch=1 n=60 v=0
41010 On ch=1 n=69 v=0
41010 On ch=1 n=65 v=0
41100 On ch=1 n=69 v=100
41100 On ch=1 n=60 v=100
41100 On ch=1 n=65 v=100
41130 On ch=1 n=65 v=0
41130 On ch=1 n=60 v=0
41130 On ch=1 n=69 v=0
41220 On ch=1 n=65 v=100
41220 On ch=1 n=69 v=100
41220 On ch=1 n=60 v=100
41250 On ch=1 n=60 v=0
41250 On ch=1 n=69 v=0
41250 On ch=1 n=65 v=0
41340 On ch=1 n=67 v=100
41340 On ch=1 n=64 v=100
41340 On ch=1 n=60 v=100
41370 On ch=1 n=60 v=0
41370 On ch=1 n=64 v=0
41370 On ch=1 n=67 v=0
41460 On ch=1 n=64 v=100
41460 On ch=1 n=60 v=100
41460 On ch=1 n=67 v=100
41490 On ch=1 n=67 v=0
41490 On ch=1 n=60 v=0
41490 On ch=1 n=64 v=0
41520 Par ch=1 c=11 v=127
41530 Par ch=1 c=11 v=126
41539 Par ch=1 c=11 v=125
41550 Par ch=1 c=11 v=124
41558 Par ch=1 c=11 v=123
41566 Par ch=1 c=11 v=122
41577 Par ch=1 c=11 v=121
41580 On ch=1 n=60 v=100
41580 On ch=1 n=67 v=100
41580 On ch=1 n=64 v=100
41585 Par ch=1 c=11 v=120
41593 Par ch=1 c=11 v=119
41604 Par ch=1 c=11 v=118
41610 On ch=1 n=64 v=0
41610 On ch=1 n=67 v=0
41610 On ch=1 n=60 v=0
41612 Par ch=1 c=11 v=117
41620 Par ch=1 c=11 v=116
41631 Par ch=1 c=11 v=115
41640 Par ch=1 c=11 v=114
41648 Par ch=1 c=11 v=113
41659 Par ch=1 c=11 v=112
41667 Par ch=1 c=11 v=111
41678 Par ch=1 c=11 v=110
41686 Par ch=1 c=11 v=109
41694 Par ch=1 c=11 v=108
41700 On ch=1 n=64 v=100
41700 On ch=1 n=60 v=100
41700 On ch=1 n=67 v=100
41705 Par ch=1 c=11 v=107
41713 Par ch=1 c=11 v=106
41721 Par ch=1 c=11 v=105
41730 On ch=1 n=67 v=0
41730 On ch=1 n=60 v=0
41730 On ch=1 n=64 v=0
41732 Par ch=1 c=11 v=104
41740 Par ch=1 c=11 v=103
41749 Par ch=1 c=11 v=102
41760 Par ch=1 c=11 v=101
41768 Par ch=1 c=11 v=100
41776 Par ch=1 c=11 v=99
41787 Par ch=1 c=11 v=98
41795 Par ch=1 c=11 v=97
41806 Par ch=1 c=11 v=96
41814 Par ch=1 c=11 v=95
41820 On ch=1 n=65 v=100
41820 On ch=1 n=62 v=100
41820 On ch=1 n=57 v=100
41822 Par ch=1 c=11 v=94
41833 Par ch=1 c=11 v=93
41841 Par ch=1 c=11 v=92
41850 On ch=1 n=57 v=0
41850 On ch=1 n=62 v=0
41850 On ch=1 n=65 v=0
41850 Par ch=1 c=11 v=91
41860 Par ch=1 c=11 v=90
41869 Par ch=1 c=11 v=89
41877 Par ch=1 c=11 v=88
41888 Par ch=1 c=11 v=87
41896 Par ch=1 c=11 v=86
41904 Par ch=1 c=11 v=85
41915 Par ch=1 c=11 v=84
41923 Par ch=1 c=11 v=83
41931 Par ch=1 c=11 v=82
41940 On ch=1 n=65 v=100
41940 On ch=1 n=57 v=100
41940 On ch=1 n=62 v=100
41942 Par ch=1 c=11 v=81
41950 Par ch=1 c=11 v=80
41961 Par ch=1 c=11 v=79
41970 On ch=1 n=62 v=0
41970 On ch=1 n=57 v=0
41970 On ch=1 n=65 v=0
41970 Par ch=1 c=11 v=78
41978 Par ch=1 c=11 v=77
41989 Par ch=1 c=11 v=76
41997 Par ch=1 c=11 v=75
42005 Par ch=1 c=11 v=74
42016 Par ch=1 c=11 v=73
42024 Par ch=1 c=11 v=72
42032 Par ch=1 c=11 v=71
42043 Par ch=1 c=11 v=70
42051 Par ch=1 c=11 v=69
42060 Par ch=1 c=11 v=68
42060 On ch=1 n=57 v=100
42060 On ch=1 n=65 v=100
42060 On ch=1 n=62 v=100
42070 Par ch=1 c=11 v=67
42079 Par ch=1 c=11 v=66
42090 On ch=1 n=62 v=0
42090 On ch=1 n=65 v=0
42090 On ch=1 n=57 v=0
42090 Par ch=1 c=11 v=65
42098 Par ch=1 c=11 v=64
42106 Par ch=1 c=11 v=63
42117 Par ch=1 c=11 v=62
42125 Par ch=1 c=11 v=61
42133 Par ch=1 c=11 v=60
42144 Par ch=1 c=11 v=59
42152 Par ch=1 c=11 v=58
42160 Par ch=1 c=11 v=57
42171 Par ch=1 c=11 v=56
42180 Par ch=1 c=11 v=55
42180 On ch=1 n=57 v=100
42180 On ch=1 n=65 v=100
42180 On ch=1 n=62 v=100
42188 Par ch=1 c=11 v=54
42199 Par ch=1 c=11 v=53
42207 Par ch=1 c=11 v=52
42210 On ch=1 n=62 v=0
42210 On ch=1 n=65 v=0
42210 On ch=1 n=57 v=0
42218 Par ch=1 c=11 v=51
42226 Par ch=1 c=11 v=50
42234 Par ch=1 c=11 v=49
42240 On ch=1 n=62 v=100
42240 On ch=1 n=70 v=100
42240 On ch=1 n=58 v=100
42245 Par ch=1 c=11 v=48
42253 Par ch=1 c=11 v=47
42261 Par ch=1 c=11 v=46
42272 Par ch=1 c=11 v=45
42280 Par ch=1 c=11 v=44
42289 Par ch=1 c=11 v=43
42300 Par ch=1 c=11 v=42
42308 Par ch=1 c=11 v=41
42316 Par ch=1 c=11 v=40
42327 Par ch=1 c=11 v=39
42335 Par ch=1 c=11 v=38
42343 Par ch=1 c=11 v=37
42354 Par ch=1 c=11 v=36
42362 Par ch=1 c=11 v=35
42373 Par ch=1 c=11 v=34
42381 Par ch=1 c=11 v=33
42390 Par ch=1 c=11 v=32
42400 Par ch=1 c=11 v=31
42409 Par ch=1 c=11 v=30
42417 Par ch=1 c=11 v=29
42428 Par ch=1 c=11 v=28
42436 Par ch=1 c=11 v=27
42444 Par ch=1 c=11 v=26
42455 Par ch=1 c=11 v=25
42463 Par ch=1 c=11 v=24
42471 Par ch=1 c=11 v=23
42480 On ch=1 n=58 v=0
42480 On ch=1 n=70 v=0
42480 On ch=1 n=62 v=0
42480 On ch=1 n=58 v=100
42482 Par ch=1 c=11 v=22
42490 Par ch=1 c=11 v=21
42501 Par ch=1 c=11 v=20
42510 Par ch=1 c=11 v=19
42518 Par ch=1 c=11 v=18
42529 Par ch=1 c=11 v=17
42537 Par ch=1 c=11 v=16
42540 On ch=1 n=58 v=0
42540 On ch=1 n=62 v=100
42545 Par ch=1 c=11 v=15
42556 Par ch=1 c=11 v=14
42564 Par ch=1 c=11 v=13
42572 Par ch=1 c=11 v=12
42583 Par ch=1 c=11 v=11
42591 Par ch=1 c=11 v=10
42600 On ch=1 n=62 v=0
42600 Par ch=1 c=11 v=9
42610 Par ch=1 c=11 v=8
42619 Par ch=1 c=11 v=7
42627 Par ch=1 c=11 v=6
42627 Meta TrkEnd
TrkEnd
MTrk
0 Meta TrkName "Electric Bass"
0 Par ch=2 c=0 v=0
0 Par ch=2 c=32 v=0
0 PrCh ch=2 p=33
480 On ch=2 n=41 v=100
540 On ch=2 n=41 v=0
780 On ch=2 n=36 v=100
810 On ch=2 n=36 v=0
840 On ch=2 n=45 v=100
870 On ch=2 n=45 v=0
900 On ch=2 n=41 v=100
930 On ch=2 n=41 v=0
960 On ch=2 n=40 v=100
1020 On ch=2 n=40 v=0
1260 On ch=2 n=36 v=100
1290 On ch=2 n=36 v=0
1320 On ch=2 n=40 v=100
1350 On ch=2 n=40 v=0
1380 On ch=2 n=41 v=100
1410 On ch=2 n=41 v=0
1440 On ch=2 n=38 v=100
1500 On ch=2 n=38 v=0
1800 On ch=2 n=40 v=100
1830 On ch=2 n=40 v=0
1860 On ch=2 n=41 v=100
1890 On ch=2 n=41 v=0
1920 On ch=2 n=34 v=100
1950 On ch=2 n=34 v=0
2160 On ch=2 n=34 v=100
2190 On ch=2 n=34 v=0
2220 On ch=2 n=46 v=100
2250 On ch=2 n=46 v=0
2280 On ch=2 n=34 v=100
2310 On ch=2 n=34 v=0
2340 On ch=2 n=46 v=100
2370 On ch=2 n=46 v=0
2400 On ch=2 n=41 v=100
2460 On ch=2 n=41 v=0
2700 On ch=2 n=36 v=100
2730 On ch=2 n=36 v=0
2760 On ch=2 n=45 v=100
2790 On ch=2 n=45 v=0
2820 On ch=2 n=41 v=100
2850 On ch=2 n=41 v=0
2880 On ch=2 n=40 v=100
2940 On ch=2 n=40 v=0
3180 On ch=2 n=36 v=100
3210 On ch=2 n=36 v=0
3240 On ch=2 n=40 v=100
3270 On ch=2 n=40 v=0
3300 On ch=2 n=41 v=100
3330 On ch=2 n=41 v=0
3360 On ch=2 n=38 v=100
3420 On ch=2 n=38 v=0
3720 On ch=2 n=40 v=100
3750 On ch=2 n=40 v=0
3780 On ch=2 n=41 v=100
3810 On ch=2 n=41 v=0
3840 On ch=2 n=34 v=100
3870 On ch=2 n=34 v=0
4080 On ch=2 n=34 v=100
4110 On ch=2 n=34 v=0
4140 On ch=2 n=46 v=100
4170 On ch=2 n=46 v=0
4200 On ch=2 n=34 v=100
4230 On ch=2 n=34 v=0
4260 On ch=2 n=46 v=100
4290 On ch=2 n=46 v=0
4320 On ch=2 n=41 v=100
4380 On ch=2 n=41 v=0
4620 On ch=2 n=36 v=100
4650 On ch=2 n=36 v=0
4680 On ch=2 n=45 v=100
4710 On ch=2 n=45 v=0
4740 On ch=2 n=41 v=100
4770 On ch=2 n=41 v=0
4800 On ch=2 n=40 v=100
4860 On ch=2 n=40 v=0
5100 On ch=2 n=36 v=100
5130 On ch=2 n=36 v=0
5160 On ch=2 n=40 v=100
5190 On ch=2 n=40 v=0
5220 On ch=2 n=41 v=100
5250 On ch=2 n=41 v=0
5280 On ch=2 n=38 v=100
5340 On ch=2 n=38 v=0
5640 On ch=2 n=40 v=100
5670 On ch=2 n=40 v=0
5700 On ch=2 n=41 v=100
5730 On ch=2 n=41 v=0
5760 On ch=2 n=34 v=100
5790 On ch=2 n=34 v=0
6000 On ch=2 n=34 v=100
6030 On ch=2 n=34 v=0
6060 On ch=2 n=46 v=100
6090 On ch=2 n=46 v=0
6120 On ch=2 n=34 v=100
6150 On ch=2 n=34 v=0
6180 On ch=2 n=46 v=100
6210 On ch=2 n=46 v=0
6240 On ch=2 n=41 v=100
6300 On ch=2 n=41 v=0
6540 On ch=2 n=36 v=100
6570 On ch=2 n=36 v=0
6600 On ch=2 n=45 v=100
6630 On ch=2 n=45 v=0
6660 On ch=2 n=41 v=100
6690 On ch=2 n=41 v=0
6720 On ch=2 n=40 v=100
6780 On ch=2 n=40 v=0
7020 On ch=2 n=36 v=100
7050 On ch=2 n=36 v=0
7080 On ch=2 n=40 v=100
7110 On ch=2 n=40 v=0
7140 On ch=2 n=41 v=100
7170 On ch=2 n=41 v=0
7200 On ch=2 n=38 v=100
7260 On ch=2 n=38 v=0
7560 On ch=2 n=40 v=100
7590 On ch=2 n=40 v=0
7620 On ch=2 n=41 v=100
7650 On ch=2 n=41 v=0
7680 On ch=2 n=34 v=100
7710 On ch=2 n=34 v=0
7920 On ch=2 n=34 v=100
7950 On ch=2 n=34 v=0
7980 On ch=2 n=46 v=100
8010 On ch=2 n=46 v=0
8040 On ch=2 n=34 v=100
8070 On ch=2 n=34 v=0
8100 On ch=2 n=46 v=100
8130 On ch=2 n=46 v=0
8160 On ch=2 n=41 v=100
8220 On ch=2 n=41 v=0
8460 On ch=2 n=36 v=100
8490 On ch=2 n=36 v=0
8520 On ch=2 n=45 v=100
8550 On ch=2 n=45 v=0
8580 On ch=2 n=41 v=100
8610 On ch=2 n=41 v=0
8640 On ch=2 n=40 v=100
8700 On ch=2 n=40 v=0
8940 On ch=2 n=36 v=100
8970 On ch=2 n=36 v=0
9000 On ch=2 n=40 v=100
9030 On ch=2 n=40 v=0
9060 On ch=2 n=41 v=100
9090 On ch=2 n=41 v=0
9120 On ch=2 n=38 v=100
9180 On ch=2 n=38 v=0
9480 On ch=2 n=40 v=100
9510 On ch=2 n=40 v=0
9540 On ch=2 n=41 v=100
9570 On ch=2 n=41 v=0
9600 On ch=2 n=34 v=100
9630 On ch=2 n=34 v=0
9840 On ch=2 n=34 v=100
9870 On ch=2 n=34 v=0
9900 On ch=2 n=46 v=100
9930 On ch=2 n=46 v=0
9960 On ch=2 n=34 v=100
9990 On ch=2 n=34 v=0
10020 On ch=2 n=46 v=100
10050 On ch=2 n=46 v=0
10080 On ch=2 n=41 v=100
10140 On ch=2 n=41 v=0
10380 On ch=2 n=36 v=100
10410 On ch=2 n=36 v=0
10440 On ch=2 n=45 v=100
10470 On ch=2 n=45 v=0
10500 On ch=2 n=36 v=100
10530 On ch=2 n=36 v=0
10560 On ch=2 n=40 v=100
10620 On ch=2 n=40 v=0
10860 On ch=2 n=36 v=100
10890 On ch=2 n=36 v=0
10920 On ch=2 n=40 v=100
10950 On ch=2 n=40 v=0
10980 On ch=2 n=41 v=100
11010 On ch=2 n=41 v=0
11040 On ch=2 n=38 v=100
11100 On ch=2 n=38 v=0
11400 On ch=2 n=40 v=100
11430 On ch=2 n=40 v=0
11460 On ch=2 n=41 v=100
11490 On ch=2 n=41 v=0
11520 On ch=2 n=34 v=100
11550 On ch=2 n=34 v=0
11760 On ch=2 n=34 v=100
11790 On ch=2 n=34 v=0
11820 On ch=2 n=46 v=100
11850 On ch=2 n=46 v=0
11880 On ch=2 n=34 v=100
11910 On ch=2 n=34 v=0
11940 On ch=2 n=46 v=100
11970 On ch=2 n=46 v=0
12000 On ch=2 n=41 v=100
12060 On ch=2 n=41 v=0
12300 On ch=2 n=36 v=100
12330 On ch=2 n=36 v=0
12360 On ch=2 n=45 v=100
12390 On ch=2 n=45 v=0
12420 On ch=2 n=36 v=100
12450 On ch=2 n=36 v=0
12480 On ch=2 n=40 v=100
12540 On ch=2 n=40 v=0
12780 On ch=2 n=36 v=100
12810 On ch=2 n=36 v=0
12840 On ch=2 n=40 v=100
12870 On ch=2 n=40 v=0
12900 On ch=2 n=41 v=100
12930 On ch=2 n=41 v=0
12960 On ch=2 n=38 v=100
13020 On ch=2 n=38 v=0
13320 On ch=2 n=40 v=100
13350 On ch=2 n=40 v=0
13380 On ch=2 n=41 v=100
13410 On ch=2 n=41 v=0
13440 On ch=2 n=34 v=100
13470 On ch=2 n=34 v=0
13680 On ch=2 n=34 v=100
13710 On ch=2 n=34 v=0
13740 On ch=2 n=46 v=100
13770 On ch=2 n=46 v=0
13800 On ch=2 n=34 v=100
13830 On ch=2 n=34 v=0
13860 On ch=2 n=46 v=100
13890 On ch=2 n=46 v=0
13920 On ch=2 n=41 v=100
13980 On ch=2 n=41 v=0
14220 On ch=2 n=36 v=100
14250 On ch=2 n=36 v=0
14280 On ch=2 n=45 v=100
14310 On ch=2 n=45 v=0
14340 On ch=2 n=36 v=100
14370 On ch=2 n=36 v=0
14400 On ch=2 n=40 v=100
14460 On ch=2 n=40 v=0
14700 On ch=2 n=36 v=100
14730 On ch=2 n=36 v=0
14760 On ch=2 n=40 v=100
14790 On ch=2 n=40 v=0
14820 On ch=2 n=41 v=100
14850 On ch=2 n=41 v=0
14880 On ch=2 n=38 v=100
14940 On ch=2 n=38 v=0
15240 On ch=2 n=40 v=100
15270 On ch=2 n=40 v=0
15300 On ch=2 n=41 v=100
15330 On ch=2 n=41 v=0
15360 On ch=2 n=34 v=100
15390 On ch=2 n=34 v=0
15600 On ch=2 n=34 v=100
15630 On ch=2 n=34 v=0
15660 On ch=2 n=46 v=100
15690 On ch=2 n=46 v=0
15720 On ch=2 n=34 v=100
15750 On ch=2 n=34 v=0
15780 On ch=2 n=46 v=100
15810 On ch=2 n=46 v=0
15840 On ch=2 n=41 v=100
15900 On ch=2 n=41 v=0
16140 On ch=2 n=36 v=100
16170 On ch=2 n=36 v=0
16200 On ch=2 n=45 v=100
16230 On ch=2 n=45 v=0
16260 On ch=2 n=36 v=100
16290 On ch=2 n=36 v=0
16320 On ch=2 n=40 v=100
16380 On ch=2 n=40 v=0
16620 On ch=2 n=36 v=100
16650 On ch=2 n=36 v=0
16680 On ch=2 n=40 v=100
16710 On ch=2 n=40 v=0
16740 On ch=2 n=41 v=100
16770 On ch=2 n=41 v=0
16800 On ch=2 n=38 v=100
16860 On ch=2 n=38 v=0
17160 On ch=2 n=40 v=100
17190 On ch=2 n=40 v=0
17220 On ch=2 n=41 v=100
17250 On ch=2 n=41 v=0
17280 On ch=2 n=34 v=100
17310 On ch=2 n=34 v=0
17520 On ch=2 n=34 v=100
17550 On ch=2 n=34 v=0
17580 On ch=2 n=46 v=100
17610 On ch=2 n=46 v=0
17640 On ch=2 n=34 v=100
17670 On ch=2 n=34 v=0
17700 On ch=2 n=46 v=100
17730 On ch=2 n=46 v=0
17760 On ch=2 n=41 v=100
17820 On ch=2 n=41 v=0
18060 On ch=2 n=36 v=100
18090 On ch=2 n=36 v=0
18120 On ch=2 n=45 v=100
18150 On ch=2 n=45 v=0
18180 On ch=2 n=36 v=100
18210 On ch=2 n=36 v=0
18240 On ch=2 n=40 v=100
18300 On ch=2 n=40 v=0
18540 On ch=2 n=36 v=100
18570 On ch=2 n=36 v=0
18600 On ch=2 n=40 v=100
18630 On ch=2 n=40 v=0
18660 On ch=2 n=41 v=100
18690 On ch=2 n=41 v=0
18720 On ch=2 n=38 v=100
18780 On ch=2 n=38 v=0
19080 On ch=2 n=40 v=100
19110 On ch=2 n=40 v=0
19140 On ch=2 n=41 v=100
19170 On ch=2 n=41 v=0
19200 On ch=2 n=34 v=100
19230 On ch=2 n=34 v=0
19440 On ch=2 n=34 v=100
19470 On ch=2 n=34 v=0
19500 On ch=2 n=46 v=100
19530 On ch=2 n=46 v=0
19560 On ch=2 n=34 v=100
19590 On ch=2 n=34 v=0
19620 On ch=2 n=46 v=100
19650 On ch=2 n=46 v=0
19680 On ch=2 n=41 v=100
19740 On ch=2 n=41 v=0
19980 On ch=2 n=36 v=100
20010 On ch=2 n=36 v=0
20040 On ch=2 n=45 v=100
20070 On ch=2 n=45 v=0
20100 On ch=2 n=36 v=100
20130 On ch=2 n=36 v=0
20160 On ch=2 n=40 v=100
20220 On ch=2 n=40 v=0
20460 On ch=2 n=36 v=100
20490 On ch=2 n=36 v=0
20520 On ch=2 n=40 v=100
20550 On ch=2 n=40 v=0
20580 On ch=2 n=41 v=100
20610 On ch=2 n=41 v=0
20640 On ch=2 n=38 v=100
20700 On ch=2 n=38 v=0
21000 On ch=2 n=40 v=100
21030 On ch=2 n=40 v=0
21060 On ch=2 n=41 v=100
21090 On ch=2 n=41 v=0
21120 On ch=2 n=34 v=100
21150 On ch=2 n=34 v=0
21360 On ch=2 n=34 v=100
21390 On ch=2 n=34 v=0
21420 On ch=2 n=46 v=100
21450 On ch=2 n=46 v=0
21480 On ch=2 n=34 v=100
21510 On ch=2 n=34 v=0
21540 On ch=2 n=46 v=100
21570 On ch=2 n=46 v=0
21600 On ch=2 n=34 v=100
21630 On ch=2 n=34 v=0
21840 On ch=2 n=34 v=100
21870 On ch=2 n=34 v=0
21900 On ch=2 n=46 v=100
21930 On ch=2 n=46 v=0
21960 On ch=2 n=34 v=100
21990 On ch=2 n=34 v=0
22020 On ch=2 n=46 v=100
22050 On ch=2 n=46 v=0
22080 On ch=2 n=34 v=100
22110 On ch=2 n=34 v=0
22320 On ch=2 n=34 v=100
22350 On ch=2 n=34 v=0
22380 On ch=2 n=46 v=100
22410 On ch=2 n=46 v=0
22440 On ch=2 n=34 v=100
22470 On ch=2 n=34 v=0
22500 On ch=2 n=46 v=100
22530 On ch=2 n=46 v=0
22560 On ch=2 n=34 v=100
22590 On ch=2 n=34 v=0
22800 On ch=2 n=34 v=100
22830 On ch=2 n=34 v=0
22860 On ch=2 n=46 v=100
22890 On ch=2 n=46 v=0
22920 On ch=2 n=34 v=100
22950 On ch=2 n=34 v=0
22980 On ch=2 n=46 v=100
23010 On ch=2 n=46 v=0
23040 On ch=2 n=34 v=100
23070 On ch=2 n=34 v=0
23280 On ch=2 n=34 v=100
23310 On ch=2 n=34 v=0
23340 On ch=2 n=46 v=100
23370 On ch=2 n=46 v=0
23400 On ch=2 n=34 v=100
23430 On ch=2 n=34 v=0
23460 On ch=2 n=46 v=100
23490 On ch=2 n=46 v=0
23520 On ch=2 n=41 v=100
23580 On ch=2 n=41 v=0
23820 On ch=2 n=36 v=100
23850 On ch=2 n=36 v=0
23880 On ch=2 n=45 v=100
23910 On ch=2 n=45 v=0
23940 On ch=2 n=36 v=100
23970 On ch=2 n=36 v=0
24000 On ch=2 n=40 v=100
24060 On ch=2 n=40 v=0
24300 On ch=2 n=36 v=100
24330 On ch=2 n=36 v=0
24360 On ch=2 n=40 v=100
24390 On ch=2 n=40 v=0
24420 On ch=2 n=41 v=100
24450 On ch=2 n=41 v=0
24480 On ch=2 n=38 v=100
24540 On ch=2 n=38 v=0
24840 On ch=2 n=40 v=100
24870 On ch=2 n=40 v=0
24900 On ch=2 n=41 v=100
24930 On ch=2 n=41 v=0
24960 On ch=2 n=34 v=100
24990 On ch=2 n=34 v=0
25200 On ch=2 n=34 v=100
25230 On ch=2 n=34 v=0
25260 On ch=2 n=46 v=100
25290 On ch=2 n=46 v=0
25320 On ch=2 n=34 v=100
25350 On ch=2 n=34 v=0
25380 On ch=2 n=46 v=100
25410 On ch=2 n=46 v=0
25440 On ch=2 n=41 v=100
25500 On ch=2 n=41 v=0
25740 On ch=2 n=36 v=100
25770 On ch=2 n=36 v=0
25800 On ch=2 n=45 v=100
25830 On ch=2 n=45 v=0
25860 On ch=2 n=36 v=100
25890 On ch=2 n=36 v=0
25920 On ch=2 n=40 v=100
25980 On ch=2 n=40 v=0
26220 On ch=2 n=36 v=100
26250 On ch=2 n=36 v=0
26280 On ch=2 n=40 v=100
26310 On ch=2 n=40 v=0
26340 On ch=2 n=41 v=100
26370 On ch=2 n=41 v=0
26400 On ch=2 n=38 v=100
26460 On ch=2 n=38 v=0
26760 On ch=2 n=40 v=100
26790 On ch=2 n=40 v=0
26820 On ch=2 n=41 v=100
26850 On ch=2 n=41 v=0
26880 On ch=2 n=34 v=100
26910 On ch=2 n=34 v=0
27120 On ch=2 n=34 v=100
27150 On ch=2 n=34 v=0
27180 On ch=2 n=46 v=100
27210 On ch=2 n=46 v=0
27240 On ch=2 n=34 v=100
27270 On ch=2 n=34 v=0
27300 On ch=2 n=46 v=100
27330 On ch=2 n=46 v=0
27360 On ch=2 n=41 v=100
27420 On ch=2 n=41 v=0
27660 On ch=2 n=36 v=100
27690 On ch=2 n=36 v=0
27720 On ch=2 n=45 v=100
27750 On ch=2 n=45 v=0
27780 On ch=2 n=36 v=100
27810 On ch=2 n=36 v=0
27840 On ch=2 n=40 v=100
27900 On ch=2 n=40 v=0
28140 On ch=2 n=36 v=100
28170 On ch=2 n=36 v=0
28200 On ch=2 n=40 v=100
28230 On ch=2 n=40 v=0
28260 On ch=2 n=41 v=100
28290 On ch=2 n=41 v=0
28320 On ch=2 n=38 v=100
28380 On ch=2 n=38 v=0
28680 On ch=2 n=40 v=100
28710 On ch=2 n=40 v=0
28740 On ch=2 n=41 v=100
28770 On ch=2 n=41 v=0
28800 On ch=2 n=34 v=100
28830 On ch=2 n=34 v=0
29040 On ch=2 n=34 v=100
29070 On ch=2 n=34 v=0
29100 On ch=2 n=46 v=100
29130 On ch=2 n=46 v=0
29160 On ch=2 n=34 v=100
29190 On ch=2 n=34 v=0
29220 On ch=2 n=46 v=100
29250 On ch=2 n=46 v=0
32880 On ch=2 n=34 v=100
32910 On ch=2 n=34 v=0
32940 On ch=2 n=46 v=100
32970 On ch=2 n=46 v=0
33000 On ch=2 n=34 v=100
33030 On ch=2 n=34 v=0
33060 On ch=2 n=46 v=100
33090 On ch=2 n=46 v=0
36960 On ch=2 n=41 v=100
37020 On ch=2 n=41 v=0
37260 On ch=2 n=36 v=100
37290 On ch=2 n=36 v=0
37320 On ch=2 n=45 v=100
37350 On ch=2 n=45 v=0
37380 On ch=2 n=36 v=100
37410 On ch=2 n=36 v=0
37440 On ch=2 n=40 v=100
37500 On ch=2 n=40 v=0
37740 On ch=2 n=36 v=100
37770 On ch=2 n=36 v=0
37800 On ch=2 n=40 v=100
37830 On ch=2 n=40 v=0
37860 On ch=2 n=41 v=100
37890 On ch=2 n=41 v=0
37920 On ch=2 n=38 v=100
37980 On ch=2 n=38 v=0
38280 On ch=2 n=40 v=100
38310 On ch=2 n=40 v=0
38340 On ch=2 n=41 v=100
38370 On ch=2 n=41 v=0
38400 On ch=2 n=34 v=100
38430 On ch=2 n=34 v=0
38640 On ch=2 n=34 v=100
38670 On ch=2 n=34 v=0
38700 On ch=2 n=46 v=100
38730 On ch=2 n=46 v=0
38760 On ch=2 n=34 v=100
38790 On ch=2 n=34 v=0
38820 On ch=2 n=46 v=100
38850 On ch=2 n=46 v=0
38880 On ch=2 n=41 v=100
38940 On ch=2 n=41 v=0
39180 On ch=2 n=36 v=100
39210 On ch=2 n=36 v=0
39240 On ch=2 n=45 v=100
39270 On ch=2 n=45 v=0
39300 On ch=2 n=36 v=100
39330 On ch=2 n=36 v=0
39360 On ch=2 n=40 v=100
39420 On ch=2 n=40 v=0
39660 On ch=2 n=36 v=100
39690 On ch=2 n=36 v=0
39720 On ch=2 n=40 v=100
39750 On ch=2 n=40 v=0
39780 On ch=2 n=41 v=100
39810 On ch=2 n=41 v=0
39840 On ch=2 n=38 v=100
39900 On ch=2 n=38 v=0
40200 On ch=2 n=40 v=100
40230 On ch=2 n=40 v=0
40260 On ch=2 n=41 v=100
40290 On ch=2 n=41 v=0
40320 On ch=2 n=34 v=100
40350 On ch=2 n=34 v=0
40560 On ch=2 n=34 v=100
40590 On ch=2 n=34 v=0
40620 On ch=2 n=46 v=100
40650 On ch=2 n=46 v=0
40680 On ch=2 n=34 v=100
40710 On ch=2 n=34 v=0
40740 On ch=2 n=46 v=100
40770 On ch=2 n=46 v=0
40800 On ch=2 n=41 v=100
40860 On ch=2 n=41 v=0
41100 On ch=2 n=36 v=100
41130 On ch=2 n=36 v=0
41160 On ch=2 n=45 v=100
41190 On ch=2 n=45 v=0
41220 On ch=2 n=36 v=100
41250 On ch=2 n=36 v=0
41280 On ch=2 n=40 v=100
41340 On ch=2 n=40 v=0
41520 Par ch=2 c=11 v=127
41530 Par ch=2 c=11 v=126
41539 Par ch=2 c=11 v=125
41550 Par ch=2 c=11 v=124
41558 Par ch=2 c=11 v=123
41566 Par ch=2 c=11 v=122
41577 Par ch=2 c=11 v=121
41580 On ch=2 n=36 v=100
41585 Par ch=2 c=11 v=120
41593 Par ch=2 c=11 v=119
41604 Par ch=2 c=11 v=118
41610 On ch=2 n=36 v=0
41612 Par ch=2 c=11 v=117
41620 Par ch=2 c=11 v=116
41631 Par ch=2 c=11 v=115
41640 On ch=2 n=40 v=100
41640 Par ch=2 c=11 v=114
41648 Par ch=2 c=11 v=113
41659 Par ch=2 c=11 v=112
41667 Par ch=2 c=11 v=111
41670 On ch=2 n=40 v=0
41678 Par ch=2 c=11 v=110
41686 Par ch=2 c=11 v=109
41694 Par ch=2 c=11 v=108
41700 On ch=2 n=41 v=100
41705 Par ch=2 c=11 v=107
41713 Par ch=2 c=11 v=106
41721 Par ch=2 c=11 v=105
41730 On ch=2 n=41 v=0
41732 Par ch=2 c=11 v=104
41740 Par ch=2 c=11 v=103
41749 Par ch=2 c=11 v=102
41760 Par ch=2 c=11 v=101
41760 On ch=2 n=38 v=100
41768 Par ch=2 c=11 v=100
41776 Par ch=2 c=11 v=99
41787 Par ch=2 c=11 v=98
41795 Par ch=2 c=11 v=97
41806 Par ch=2 c=11 v=96
41814 Par ch=2 c=11 v=95
41820 On ch=2 n=38 v=0
41822 Par ch=2 c=11 v=94
41833 Par ch=2 c=11 v=93
41841 Par ch=2 c=11 v=92
41850 Par ch=2 c=11 v=91
41860 Par ch=2 c=11 v=90
41869 Par ch=2 c=11 v=89
41877 Par ch=2 c=11 v=88
41888 Par ch=2 c=11 v=87
41896 Par ch=2 c=11 v=86
41904 Par ch=2 c=11 v=85
41915 Par ch=2 c=11 v=84
41923 Par ch=2 c=11 v=83
41931 Par ch=2 c=11 v=82
41942 Par ch=2 c=11 v=81
41950 Par ch=2 c=11 v=80
41961 Par ch=2 c=11 v=79
41970 Par ch=2 c=11 v=78
41978 Par ch=2 c=11 v=77
41989 Par ch=2 c=11 v=76
41997 Par ch=2 c=11 v=75
42005 Par ch=2 c=11 v=74
42016 Par ch=2 c=11 v=73
42024 Par ch=2 c=11 v=72
42032 Par ch=2 c=11 v=71
42043 Par ch=2 c=11 v=70
42051 Par ch=2 c=11 v=69
42060 Par ch=2 c=11 v=68
42070 Par ch=2 c=11 v=67
42079 Par ch=2 c=11 v=66
42090 Par ch=2 c=11 v=65
42098 Par ch=2 c=11 v=64
42106 Par ch=2 c=11 v=63
42117 Par ch=2 c=11 v=62
42120 On ch=2 n=40 v=100
42125 Par ch=2 c=11 v=61
42133 Par ch=2 c=11 v=60
42144 Par ch=2 c=11 v=59
42150 On ch=2 n=40 v=0
42152 Par ch=2 c=11 v=58
42160 Par ch=2 c=11 v=57
42171 Par ch=2 c=11 v=56
42180 On ch=2 n=41 v=100
42180 Par ch=2 c=11 v=55
42188 Par ch=2 c=11 v=54
42199 Par ch=2 c=11 v=53
42207 Par ch=2 c=11 v=52
42210 On ch=2 n=41 v=0
42218 Par ch=2 c=11 v=51
42226 Par ch=2 c=11 v=50
42234 Par ch=2 c=11 v=49
42240 On ch=2 n=34 v=100
42245 Par ch=2 c=11 v=48
42253 Par ch=2 c=11 v=47
42261 Par ch=2 c=11 v=46
42270 On ch=2 n=34 v=0
42272 Par ch=2 c=11 v=45
42280 Par ch=2 c=11 v=44
42289 Par ch=2 c=11 v=43
42300 Par ch=2 c=11 v=42
42308 Par ch=2 c=11 v=41
42316 Par ch=2 c=11 v=40
42327 Par ch=2 c=11 v=39
42335 Par ch=2 c=11 v=38
42343 Par ch=2 c=11 v=37
42354 Par ch=2 c=11 v=36
42362 Par ch=2 c=11 v=35
42373 Par ch=2 c=11 v=34
42381 Par ch=2 c=11 v=33
42390 Par ch=2 c=11 v=32
42400 Par ch=2 c=11 v=31
42409 Par ch=2 c=11 v=30
42417 Par ch=2 c=11 v=29
42428 Par ch=2 c=11 v=28
42436 Par ch=2 c=11 v=27
42444 Par ch=2 c=11 v=26
42455 Par ch=2 c=11 v=25
42463 Par ch=2 c=11 v=24
42471 Par ch=2 c=11 v=23
42480 On ch=2 n=34 v=100
42482 Par ch=2 c=11 v=22
42490 Par ch=2 c=11 v=21
42501 Par ch=2 c=11 v=20
42510 On ch=2 n=34 v=0
42510 Par ch=2 c=11 v=19
42518 Par ch=2 c=11 v=18
42529 Par ch=2 c=11 v=17
42537 Par ch=2 c=11 v=16
42540 On ch=2 n=46 v=100
42545 Par ch=2 c=11 v=15
42556 Par ch=2 c=11 v=14
42564 Par ch=2 c=11 v=13
42570 On ch=2 n=46 v=0
42572 Par ch=2 c=11 v=12
42583 Par ch=2 c=11 v=11
42591 Par ch=2 c=11 v=10
42600 Par ch=2 c=11 v=9
42600 On ch=2 n=34 v=100
42610 Par ch=2 c=11 v=8
42619 Par ch=2 c=11 v=7
42627 Par ch=2 c=11 v=6
42630 On ch=2 n=34 v=0
42660 On ch=2 n=46 v=100
42690 On ch=2 n=46 v=0
42690 Meta TrkEnd
TrkEnd
MTrk
0 Meta TrkName "Pizzicato Strings"
0 Par ch=3 c=0 v=0
0 Par ch=3 c=32 v=0
0 PrCh ch=3 p=45
2400 On ch=3 n=65 v=100
2400 On ch=3 n=53 v=100
2460 On ch=3 n=53 v=0
2460 On ch=3 n=65 v=0
2700 On ch=3 n=60 v=100
2730 On ch=3 n=60 v=0
2760 On ch=3 n=69 v=100
2760 On ch=3 n=57 v=100
2790 On ch=3 n=57 v=0
2790 On ch=3 n=69 v=0
2820 On ch=3 n=65 v=100
2820 On ch=3 n=53 v=100
2850 On ch=3 n=53 v=0
2850 On ch=3 n=65 v=0
2880 On ch=3 n=64 v=100
2880 On ch=3 n=52 v=100
2940 On ch=3 n=52 v=0
2940 On ch=3 n=64 v=0
3180 On ch=3 n=60 v=100
3180 On ch=3 n=48 v=100
3210 On ch=3 n=48 v=0
3210 On ch=3 n=60 v=0
3240 On ch=3 n=64 v=100
3240 On ch=3 n=52 v=100
3270 On ch=3 n=52 v=0
3270 On ch=3 n=64 v=0
3300 On ch=3 n=65 v=100
3300 On ch=3 n=53 v=100
3330 On ch=3 n=53 v=0
3330 On ch=3 n=65 v=0
3360 On ch=3 n=62 v=100
3360 On ch=3 n=50 v=100
3420 On ch=3 n=50 v=0
3420 On ch=3 n=62 v=0
3720 On ch=3 n=64 v=100
3720 On ch=3 n=52 v=100
3750 On ch=3 n=52 v=0
3750 On ch=3 n=64 v=0
3780 On ch=3 n=65 v=100
3780 On ch=3 n=53 v=100
3810 On ch=3 n=53 v=0
3810 On ch=3 n=65 v=0
3840 On ch=3 n=58 v=100
3840 On ch=3 n=46 v=100
3870 On ch=3 n=46 v=0
3870 On ch=3 n=58 v=0
4080 On ch=3 n=58 v=100
4080 On ch=3 n=46 v=100
4110 On ch=3 n=46 v=0
4110 On ch=3 n=58 v=0
4140 On ch=3 n=70 v=100
4140 On ch=3 n=58 v=100
4170 On ch=3 n=58 v=0
4170 On ch=3 n=70 v=0
4200 On ch=3 n=58 v=100
4200 On ch=3 n=46 v=100
4230 On ch=3 n=46 v=0
4230 On ch=3 n=58 v=0
4260 On ch=3 n=70 v=100
4260 On ch=3 n=58 v=100
4290 On ch=3 n=58 v=0
4290 On ch=3 n=70 v=0
4320 On ch=3 n=65 v=100
4320 On ch=3 n=53 v=100
4380 On ch=3 n=53 v=0
4380 On ch=3 n=65 v=0
4620 On ch=3 n=60 v=100
4650 On ch=3 n=60 v=0
4680 On ch=3 n=69 v=100
4680 On ch=3 n=57 v=100
4710 On ch=3 n=57 v=0
4710 On ch=3 n=69 v=0
4740 On ch=3 n=65 v=100
4740 On ch=3 n=53 v=100
4770 On ch=3 n=53 v=0
4770 On ch=3 n=65 v=0
4800 On ch=3 n=64 v=100
4800 On ch=3 n=52 v=100
4860 On ch=3 n=52 v=0
4860 On ch=3 n=64 v=0
5100 On ch=3 n=60 v=100
5100 On ch=3 n=48 v=100
5130 On ch=3 n=48 v=0
5130 On ch=3 n=60 v=0
5160 On ch=3 n=64 v=100
5160 On ch=3 n=52 v=100
5190 On ch=3 n=52 v=0
5190 On ch=3 n=64 v=0
5220 On ch=3 n=65 v=100
5220 On ch=3 n=53 v=100
5250 On ch=3 n=53 v=0
5250 On ch=3 n=65 v=0
5280 On ch=3 n=62 v=100
5280 On ch=3 n=50 v=100
5340 On ch=3 n=50 v=0
5340 On ch=3 n=62 v=0
5640 On ch=3 n=64 v=100
5640 On ch=3 n=52 v=100
5670 On ch=3 n=52 v=0
5670 On ch=3 n=64 v=0
5700 On ch=3 n=65 v=100
5700 On ch=3 n=53 v=100
5730 On ch=3 n=53 v=0
5730 On ch=3 n=65 v=0
5760 On ch=3 n=58 v=100
5760 On ch=3 n=46 v=100
5790 On ch=3 n=46 v=0
5790 On ch=3 n=58 v=0
6000 On ch=3 n=58 v=100
6000 On ch=3 n=46 v=100
6030 On ch=3 n=46 v=0
6030 On ch=3 n=58 v=0
6060 On ch=3 n=70 v=100
6060 On ch=3 n=58 v=100
6090 On ch=3 n=58 v=0
6090 On ch=3 n=70 v=0
6120 On ch=3 n=58 v=100
6120 On ch=3 n=46 v=100
6150 On ch=3 n=46 v=0
6150 On ch=3 n=58 v=0
6180 On ch=3 n=70 v=100
6180 On ch=3 n=58 v=100
6210 On ch=3 n=58 v=0
6210 On ch=3 n=70 v=0
6240 On ch=3 n=65 v=100
6240 On ch=3 n=53 v=100
6300 On ch=3 n=53 v=0
6300 On ch=3 n=65 v=0
6540 On ch=3 n=60 v=100
6570 On ch=3 n=60 v=0
6600 On ch=3 n=69 v=100
6600 On ch=3 n=57 v=100
6630 On ch=3 n=57 v=0
6630 On ch=3 n=69 v=0
6660 On ch=3 n=65 v=100
6660 On ch=3 n=53 v=100
6690 On ch=3 n=53 v=0
6690 On ch=3 n=65 v=0
6720 On ch=3 n=64 v=100
6720 On ch=3 n=52 v=100
6780 On ch=3 n=52 v=0
6780 On ch=3 n=64 v=0
7020 On ch=3 n=60 v=100
7020 On ch=3 n=48 v=100
7050 On ch=3 n=48 v=0
7050 On ch=3 n=60 v=0
7080 On ch=3 n=64 v=100
7080 On ch=3 n=52 v=100
7110 On ch=3 n=52 v=0
7110 On ch=3 n=64 v=0
7140 On ch=3 n=65 v=100
7140 On ch=3 n=53 v=100
7170 On ch=3 n=53 v=0
7170 On ch=3 n=65 v=0
7200 On ch=3 n=62 v=100
7200 On ch=3 n=50 v=100
7260 On ch=3 n=50 v=0
7260 On ch=3 n=62 v=0
7560 On ch=3 n=64 v=100
7560 On ch=3 n=52 v=100
7590 On ch=3 n=52 v=0
7590 On ch=3 n=64 v=0
7620 On ch=3 n=65 v=100
7620 On ch=3 n=53 v=100
7650 On ch=3 n=53 v=0
7650 On ch=3 n=65 v=0
7680 On ch=3 n=58 v=100
7680 On ch=3 n=46 v=100
7710 On ch=3 n=46 v=0
7710 On ch=3 n=58 v=0
7920 On ch=3 n=58 v=100
7920 On ch=3 n=46 v=100
7950 On ch=3 n=46 v=0
7950 On ch=3 n=58 v=0
7980 On ch=3 n=70 v=100
7980 On ch=3 n=58 v=100
8010 On ch=3 n=58 v=0
8010 On ch=3 n=70 v=0
8040 On ch=3 n=58 v=100
8040 On ch=3 n=46 v=100
8070 On ch=3 n=46 v=0
8070 On ch=3 n=58 v=0
8100 On ch=3 n=70 v=100
8100 On ch=3 n=58 v=100
8130 On ch=3 n=58 v=0
8130 On ch=3 n=70 v=0
8160 On ch=3 n=65 v=100
8160 On ch=3 n=53 v=100
8220 On ch=3 n=53 v=0
8220 On ch=3 n=65 v=0
8460 On ch=3 n=60 v=100
8490 On ch=3 n=60 v=0
8520 On ch=3 n=69 v=100
8520 On ch=3 n=57 v=100
8550 On ch=3 n=57 v=0
8550 On ch=3 n=69 v=0
8580 On ch=3 n=65 v=100
8580 On ch=3 n=53 v=100
8610 On ch=3 n=53 v=0
8610 On ch=3 n=65 v=0
8640 On ch=3 n=64 v=100
8640 On ch=3 n=52 v=100
8700 On ch=3 n=52 v=0
8700 On ch=3 n=64 v=0
8940 On ch=3 n=60 v=100
8940 On ch=3 n=48 v=100
8970 On ch=3 n=48 v=0
8970 On ch=3 n=60 v=0
9000 On ch=3 n=64 v=100
9000 On ch=3 n=52 v=100
9030 On ch=3 n=52 v=0
9030 On ch=3 n=64 v=0
9060 On ch=3 n=65 v=100
9060 On ch=3 n=53 v=100
9090 On ch=3 n=53 v=0
9090 On ch=3 n=65 v=0
9120 On ch=3 n=62 v=100
9120 On ch=3 n=50 v=100
9180 On ch=3 n=50 v=0
9180 On ch=3 n=62 v=0
9480 On ch=3 n=64 v=100
9480 On ch=3 n=52 v=100
9510 On ch=3 n=52 v=0
9510 On ch=3 n=64 v=0
9540 On ch=3 n=65 v=100
9540 On ch=3 n=53 v=100
9570 On ch=3 n=53 v=0
9570 On ch=3 n=65 v=0
9600 On ch=3 n=58 v=100
9600 On ch=3 n=46 v=100
9630 On ch=3 n=46 v=0
9630 On ch=3 n=58 v=0
9840 On ch=3 n=58 v=100
9840 On ch=3 n=46 v=100
9870 On ch=3 n=46 v=0
9870 On ch=3 n=58 v=0
9900 On ch=3 n=70 v=100
9900 On ch=3 n=58 v=100
9930 On ch=3 n=58 v=0
9930 On ch=3 n=70 v=0
9960 On ch=3 n=58 v=100
9960 On ch=3 n=46 v=100
9990 On ch=3 n=46 v=0
9990 On ch=3 n=58 v=0
10020 On ch=3 n=70 v=100
10020 On ch=3 n=58 v=100
10050 On ch=3 n=58 v=0
10050 On ch=3 n=70 v=0
32880 On ch=3 n=58 v=100
32880 On ch=3 n=46 v=100
32910 On ch=3 n=46 v=0
32910 On ch=3 n=58 v=0
32940 On ch=3 n=70 v=100
32940 On ch=3 n=58 v=100
32970 On ch=3 n=58 v=0
32970 On ch=3 n=70 v=0
33000 On ch=3 n=58 v=100
33000 On ch=3 n=46 v=100
33030 On ch=3 n=46 v=0
33030 On ch=3 n=58 v=0
33060 On ch=3 n=70 v=100
33060 On ch=3 n=58 v=100
33090 On ch=3 n=58 v=0
33090 On ch=3 n=70 v=0
36480 On ch=3 n=58 v=100
36510 On ch=3 n=58 v=0
36540 On ch=3 n=62 v=100
36570 On ch=3 n=62 v=0
36600 On ch=3 n=65 v=100
36630 On ch=3 n=65 v=0
36660 On ch=3 n=69 v=100
36690 On ch=3 n=69 v=0
36720 On ch=3 n=67 v=100
36750 On ch=3 n=67 v=0
36780 On ch=3 n=65 v=100
36810 On ch=3 n=65 v=0
36840 On ch=3 n=64 v=100
36870 On ch=3 n=64 v=0
36900 On ch=3 n=65 v=100
36930 On ch=3 n=65 v=0
41520 Par ch=3 c=11 v=127
41530 Par ch=3 c=11 v=126
41539 Par ch=3 c=11 v=125
41550 Par ch=3 c=11 v=124
41558 Par ch=3 c=11 v=123
41566 Par ch=3 c=11 v=122
41577 Par ch=3 c=11 v=121
41585 Par ch=3 c=11 v=120
41593 Par ch=3 c=11 v=119
41604 Par ch=3 c=11 v=118
41612 Par ch=3 c=11 v=117
41620 Par ch=3 c=11 v=116
41631 Par ch=3 c=11 v=115
41640 Par ch=3 c=11 v=114
41648 Par ch=3 c=11 v=113
41659 Par ch=3 c=11 v=112
41667 Par ch=3 c=11 v=111
41678 Par ch=3 c=11 v=110
41686 Par ch=3 c=11 v=109
41694 Par ch=3 c=11 v=108
41705 Par ch=3 c=11 v=107
41713 Par ch=3 c=11 v=106
41721 Par ch=3 c=11 v=105
41732 Par ch=3 c=11 v=104
41740 Par ch=3 c=11 v=103
41749 Par ch=3 c=11 v=102
41760 Par ch=3 c=11 v=101
41768 Par ch=3 c=11 v=100
41776 Par ch=3 c=11 v=99
41787 Par ch=3 c=11 v=98
41795 Par ch=3 c=11 v=97
41806 Par ch=3 c=11 v=96
41814 Par ch=3 c=11 v=95
41822 Par ch=3 c=11 v=94
41833 Par ch=3 c=11 v=93
41841 Par ch=3 c=11 v=92
41850 Par ch=3 c=11 v=91
41860 Par ch=3 c=11 v=90
41869 Par ch=3 c=11 v=89
41877 Par ch=3 c=11 v=88
41888 Par ch=3 c=11 v=87
41896 Par ch=3 c=11 v=86
41904 Par ch=3 c=11 v=85
41915 Par ch=3 c=11 v=84
41923 Par ch=3 c=11 v=83
41931 Par ch=3 c=11 v=82
41942 Par ch=3 c=11 v=81
41950 Par ch=3 c=11 v=80
41961 Par ch=3 c=11 v=79
41970 Par ch=3 c=11 v=78
41978 Par ch=3 c=11 v=77
41989 Par ch=3 c=11 v=76
41997 Par ch=3 c=11 v=75
42005 Par ch=3 c=11 v=74
42016 Par ch=3 c=11 v=73
42024 Par ch=3 c=11 v=72
42032 Par ch=3 c=11 v=71
42043 Par ch=3 c=11 v=70
42051 Par ch=3 c=11 v=69
42060 Par ch=3 c=11 v=68
42070 Par ch=3 c=11 v=67
42079 Par ch=3 c=11 v=66
42090 Par ch=3 c=11 v=65
42098 Par ch=3 c=11 v=64
42106 Par ch=3 c=11 v=63
42117 Par ch=3 c=11 v=62
42125 Par ch=3 c=11 v=61
42133 Par ch=3 c=11 v=60
42144 Par ch=3 c=11 v=59
42152 Par ch=3 c=11 v=58
42160 Par ch=3 c=11 v=57
42171 Par ch=3 c=11 v=56
42180 Par ch=3 c=11 v=55
42188 Par ch=3 c=11 v=54
42199 Par ch=3 c=11 v=53
42207 Par ch=3 c=11 v=52
42218 Par ch=3 c=11 v=51
42226 Par ch=3 c=11 v=50
42234 Par ch=3 c=11 v=49
42245 Par ch=3 c=11 v=48
42253 Par ch=3 c=11 v=47
42261 Par ch=3 c=11 v=46
42272 Par ch=3 c=11 v=45
42280 Par ch=3 c=11 v=44
42289 Par ch=3 c=11 v=43
42300 Par ch=3 c=11 v=42
42308 Par ch=3 c=11 v=41
42316 Par ch=3 c=11 v=40
42327 Par ch=3 c=11 v=39
42335 Par ch=3 c=11 v=38
42343 Par ch=3 c=11 v=37
42354 Par ch=3 c=11 v=36
42362 Par ch=3 c=11 v=35
42373 Par ch=3 c=11 v=34
42381 Par ch=3 c=11 v=33
42390 Par ch=3 c=11 v=32
42400 Par ch=3 c=11 v=31
42409 Par ch=3 c=11 v=30
42417 Par ch=3 c=11 v=29
42428 Par ch=3 c=11 v=28
42436 Par ch=3 c=11 v=27
42444 Par ch=3 c=11 v=26
42455 Par ch=3 c=11 v=25
42463 Par ch=3 c=11 v=24
42471 Par ch=3 c=11 v=23
42482 Par ch=3 c=11 v=22
42490 Par ch=3 c=11 v=21
42501 Par ch=3 c=11 v=20
42510 Par ch=3 c=11 v=19
42518 Par ch=3 c=11 v=18
42529 Par ch=3 c=11 v=17
42537 Par ch=3 c=11 v=16
42545 Par ch=3 c=11 v=15
42556 Par ch=3 c=11 v=14
42564 Par ch=3 c=11 v=13
42572 Par ch=3 c=11 v=12
42583 Par ch=3 c=11 v=11
42591 Par ch=3 c=11 v=10
42600 Par ch=3 c=11 v=9
42610 Par ch=3 c=11 v=8
42619 Par ch=3 c=11 v=7
42627 Par ch=3 c=11 v=6
42627 Meta TrkEnd
TrkEnd
MTrk
0 Meta TrkName "Xylophone"
0 Par ch=4 c=0 v=0
0 Par ch=4 c=7 v=80
0 Par ch=4 c=32 v=0
0 PrCh ch=4 p=13
540 On ch=4 n=86 v=100
570 On ch=4 n=86 v=0
660 On ch=4 n=86 v=100
690 On ch=4 n=86 v=0
780 On ch=4 n=86 v=100
810 On ch=4 n=86 v=0
900 On ch=4 n=86 v=100
930 On ch=4 n=86 v=0
1020 On ch=4 n=86 v=100
1050 On ch=4 n=86 v=0
1140 On ch=4 n=86 v=100
1170 On ch=4 n=86 v=0
1260 On ch=4 n=86 v=100
1290 On ch=4 n=86 v=0
1380 On ch=4 n=86 v=100
1410 On ch=4 n=86 v=0
1500 On ch=4 n=86 v=100
1530 On ch=4 n=86 v=0
1620 On ch=4 n=86 v=100
1650 On ch=4 n=86 v=0
1740 On ch=4 n=86 v=100
1770 On ch=4 n=86 v=0
1860 On ch=4 n=86 v=100
1890 On ch=4 n=86 v=0
1980 On ch=4 n=86 v=100
2010 On ch=4 n=86 v=0
2100 On ch=4 n=86 v=100
2130 On ch=4 n=86 v=0
2220 On ch=4 n=86 v=100
2250 On ch=4 n=86 v=0
2340 On ch=4 n=86 v=100
2370 On ch=4 n=86 v=0
2460 On ch=4 n=86 v=100
2490 On ch=4 n=86 v=0
2580 On ch=4 n=86 v=100
2610 On ch=4 n=86 v=0
2700 On ch=4 n=86 v=100
2730 On ch=4 n=86 v=0
2820 On ch=4 n=86 v=100
2850 On ch=4 n=86 v=0
2940 On ch=4 n=86 v=100
2970 On ch=4 n=86 v=0
3060 On ch=4 n=86 v=100
3090 On ch=4 n=86 v=0
3180 On ch=4 n=86 v=100
3210 On ch=4 n=86 v=0
3300 On ch=4 n=86 v=100
3330 On ch=4 n=86 v=0
3420 On ch=4 n=86 v=100
3450 On ch=4 n=86 v=0
3540 On ch=4 n=86 v=100
3570 On ch=4 n=86 v=0
3660 On ch=4 n=86 v=100
3690 On ch=4 n=86 v=0
3780 On ch=4 n=86 v=100
3810 On ch=4 n=86 v=0
3900 On ch=4 n=86 v=100
3930 On ch=4 n=86 v=0
4020 On ch=4 n=86 v=100
4050 On ch=4 n=86 v=0
4140 On ch=4 n=86 v=100
4170 On ch=4 n=86 v=0
4260 On ch=4 n=86 v=100
4290 On ch=4 n=86 v=0
4380 On ch=4 n=86 v=100
4410 On ch=4 n=86 v=0
4500 On ch=4 n=86 v=100
4530 On ch=4 n=86 v=0
4620 On ch=4 n=86 v=100
4650 On ch=4 n=86 v=0
4740 On ch=4 n=86 v=100
4770 On ch=4 n=86 v=0
4860 On ch=4 n=86 v=100
4890 On ch=4 n=86 v=0
4980 On ch=4 n=86 v=100
5010 On ch=4 n=86 v=0
5100 On ch=4 n=86 v=100
5130 On ch=4 n=86 v=0
5220 On ch=4 n=86 v=100
5250 On ch=4 n=86 v=0
5340 On ch=4 n=86 v=100
5370 On ch=4 n=86 v=0
5460 On ch=4 n=86 v=100
5490 On ch=4 n=86 v=0
5580 On ch=4 n=86 v=100
5610 On ch=4 n=86 v=0
5700 On ch=4 n=86 v=100
5730 On ch=4 n=86 v=0
5820 On ch=4 n=86 v=100
5850 On ch=4 n=86 v=0
5940 On ch=4 n=86 v=100
5970 On ch=4 n=86 v=0
6060 On ch=4 n=86 v=100
6090 On ch=4 n=86 v=0
6180 On ch=4 n=86 v=100
6210 On ch=4 n=86 v=0
6300 On ch=4 n=86 v=100
6330 On ch=4 n=86 v=0
6420 On ch=4 n=86 v=100
6450 On ch=4 n=86 v=0
6540 On ch=4 n=86 v=100
6570 On ch=4 n=86 v=0
6660 On ch=4 n=86 v=100
6690 On ch=4 n=86 v=0
6780 On ch=4 n=86 v=100
6810 On ch=4 n=86 v=0
6900 On ch=4 n=86 v=100
6930 On ch=4 n=86 v=0
7020 On ch=4 n=86 v=100
7050 On ch=4 n=86 v=0
7140 On ch=4 n=86 v=100
7170 On ch=4 n=86 v=0
7260 On ch=4 n=86 v=100
7290 On ch=4 n=86 v=0
7380 On ch=4 n=86 v=100
7410 On ch=4 n=86 v=0
7500 On ch=4 n=86 v=100
7530 On ch=4 n=86 v=0
7620 On ch=4 n=86 v=100
7650 On ch=4 n=86 v=0
7740 On ch=4 n=86 v=100
7770 On ch=4 n=86 v=0
7860 On ch=4 n=86 v=100
7890 On ch=4 n=86 v=0
7980 On ch=4 n=86 v=100
8010 On ch=4 n=86 v=0
8100 On ch=4 n=86 v=100
8130 On ch=4 n=86 v=0
8220 On ch=4 n=86 v=100
8250 On ch=4 n=86 v=0
8340 On ch=4 n=86 v=100
8370 On ch=4 n=86 v=0
8460 On ch=4 n=86 v=100
8490 On ch=4 n=86 v=0
8580 On ch=4 n=86 v=100
8610 On ch=4 n=86 v=0
8700 On ch=4 n=86 v=100
8730 On ch=4 n=86 v=0
8820 On ch=4 n=86 v=100
8850 On ch=4 n=86 v=0
8940 On ch=4 n=86 v=100
8970 On ch=4 n=86 v=0
9060 On ch=4 n=86 v=100
9090 On ch=4 n=86 v=0
9180 On ch=4 n=86 v=100
9210 On ch=4 n=86 v=0
9300 On ch=4 n=86 v=100
9330 On ch=4 n=86 v=0
9420 On ch=4 n=86 v=100
9450 On ch=4 n=86 v=0
9540 On ch=4 n=86 v=100
9570 On ch=4 n=86 v=0
9660 On ch=4 n=86 v=100
9690 On ch=4 n=86 v=0
9780 On ch=4 n=86 v=100
9810 On ch=4 n=86 v=0
9900 On ch=4 n=86 v=100
9930 On ch=4 n=86 v=0
10020 On ch=4 n=86 v=100
10050 On ch=4 n=86 v=0
10140 On ch=4 n=86 v=100
10170 On ch=4 n=86 v=0
10260 On ch=4 n=86 v=100
10290 On ch=4 n=86 v=0
10380 On ch=4 n=86 v=100
10410 On ch=4 n=86 v=0
10500 On ch=4 n=86 v=100
10530 On ch=4 n=86 v=0
10620 On ch=4 n=86 v=100
10650 On ch=4 n=86 v=0
10740 On ch=4 n=86 v=100
10770 On ch=4 n=86 v=0
10860 On ch=4 n=86 v=100
10890 On ch=4 n=86 v=0
10980 On ch=4 n=86 v=100
11010 On ch=4 n=86 v=0
11100 On ch=4 n=86 v=100
11130 On ch=4 n=86 v=0
11220 On ch=4 n=86 v=100
11250 On ch=4 n=86 v=0
11340 On ch=4 n=86 v=100
11370 On ch=4 n=86 v=0
11460 On ch=4 n=86 v=100
11490 On ch=4 n=86 v=0
11580 On ch=4 n=86 v=100
11610 On ch=4 n=86 v=0
11700 On ch=4 n=86 v=100
11730 On ch=4 n=86 v=0
11820 On ch=4 n=86 v=100
11850 On ch=4 n=86 v=0
11940 On ch=4 n=86 v=100
11970 On ch=4 n=86 v=0
12060 On ch=4 n=86 v=100
12090 On ch=4 n=86 v=0
12180 On ch=4 n=86 v=100
12210 On ch=4 n=86 v=0
12300 On ch=4 n=86 v=100
12330 On ch=4 n=86 v=0
12420 On ch=4 n=86 v=100
12450 On ch=4 n=86 v=0
12540 On ch=4 n=86 v=100
12570 On ch=4 n=86 v=0
12660 On ch=4 n=86 v=100
12690 On ch=4 n=86 v=0
12780 On ch=4 n=86 v=100
12810 On ch=4 n=86 v=0
12900 On ch=4 n=86 v=100
12930 On ch=4 n=86 v=0
13020 On ch=4 n=86 v=100
13050 On ch=4 n=86 v=0
13140 On ch=4 n=86 v=100
13170 On ch=4 n=86 v=0
13260 On ch=4 n=86 v=100
13290 On ch=4 n=86 v=0
13380 On ch=4 n=86 v=100
13410 On ch=4 n=86 v=0
13500 On ch=4 n=86 v=100
13530 On ch=4 n=86 v=0
13620 On ch=4 n=86 v=100
13650 On ch=4 n=86 v=0
13740 On ch=4 n=86 v=100
13770 On ch=4 n=86 v=0
13860 On ch=4 n=86 v=100
13890 On ch=4 n=86 v=0
13980 On ch=4 n=86 v=100
14010 On ch=4 n=86 v=0
14100 On ch=4 n=86 v=100
14130 On ch=4 n=86 v=0
14220 On ch=4 n=86 v=100
14250 On ch=4 n=86 v=0
14340 On ch=4 n=86 v=100
14370 On ch=4 n=86 v=0
14460 On ch=4 n=86 v=100
14490 On ch=4 n=86 v=0
14580 On ch=4 n=86 v=100
14610 On ch=4 n=86 v=0
14700 On ch=4 n=86 v=100
14730 On ch=4 n=86 v=0
14820 On ch=4 n=86 v=100
14850 On ch=4 n=86 v=0
14940 On ch=4 n=86 v=100
14970 On ch=4 n=86 v=0
15060 On ch=4 n=86 v=100
15090 On ch=4 n=86 v=0
15180 On ch=4 n=86 v=100
15210 On ch=4 n=86 v=0
15300 On ch=4 n=86 v=100
15330 On ch=4 n=86 v=0
15420 On ch=4 n=86 v=100
15450 On ch=4 n=86 v=0
15540 On ch=4 n=86 v=100
15570 On ch=4 n=86 v=0
15660 On ch=4 n=86 v=100
15690 On ch=4 n=86 v=0
15780 On ch=4 n=86 v=100
15810 On ch=4 n=86 v=0
17820 On ch=4 n=86 v=100
17850 On ch=4 n=86 v=0
17940 On ch=4 n=86 v=100
17970 On ch=4 n=86 v=0
18060 On ch=4 n=86 v=100
18090 On ch=4 n=86 v=0
18180 On ch=4 n=86 v=100
18210 On ch=4 n=86 v=0
18300 On ch=4 n=86 v=100
18330 On ch=4 n=86 v=0
18420 On ch=4 n=86 v=100
18450 On ch=4 n=86 v=0
18540 On ch=4 n=86 v=100
18570 On ch=4 n=86 v=0
18660 On ch=4 n=86 v=100
18690 On ch=4 n=86 v=0
18780 On ch=4 n=86 v=100
18810 On ch=4 n=86 v=0
18900 On ch=4 n=86 v=100
18930 On ch=4 n=86 v=0
19020 On ch=4 n=86 v=100
19050 On ch=4 n=86 v=0
19140 On ch=4 n=86 v=100
19170 On ch=4 n=86 v=0
19260 On ch=4 n=86 v=100
19290 On ch=4 n=86 v=0
19380 On ch=4 n=86 v=100
19410 On ch=4 n=86 v=0
19500 On ch=4 n=86 v=100
19530 On ch=4 n=86 v=0
19620 On ch=4 n=86 v=100
19650 On ch=4 n=86 v=0
19740 On ch=4 n=86 v=100
19770 On ch=4 n=86 v=0
19860 On ch=4 n=86 v=100
19890 On ch=4 n=86 v=0
19980 On ch=4 n=86 v=100
20010 On ch=4 n=86 v=0
20100 On ch=4 n=86 v=100
20130 On ch=4 n=86 v=0
20220 On ch=4 n=86 v=100
20250 On ch=4 n=86 v=0
20340 On ch=4 n=86 v=100
20370 On ch=4 n=86 v=0
20460 On ch=4 n=86 v=100
20490 On ch=4 n=86 v=0
20580 On ch=4 n=86 v=100
20610 On ch=4 n=86 v=0
20700 On ch=4 n=86 v=100
20730 On ch=4 n=86 v=0
20820 On ch=4 n=86 v=100
20850 On ch=4 n=86 v=0
20940 On ch=4 n=86 v=100
20970 On ch=4 n=86 v=0
21060 On ch=4 n=86 v=100
21090 On ch=4 n=86 v=0
21180 On ch=4 n=86 v=100
21210 On ch=4 n=86 v=0
21300 On ch=4 n=86 v=100
21330 On ch=4 n=86 v=0
21420 On ch=4 n=86 v=100
21450 On ch=4 n=86 v=0
21540 On ch=4 n=86 v=100
21570 On ch=4 n=86 v=0
23580 On ch=4 n=86 v=100
23610 On ch=4 n=86 v=0
23700 On ch=4 n=86 v=100
23730 On ch=4 n=86 v=0
23820 On ch=4 n=86 v=100
23850 On ch=4 n=86 v=0
23940 On ch=4 n=86 v=100
23970 On ch=4 n=86 v=0
24060 On ch=4 n=86 v=100
24090 On ch=4 n=86 v=0
24180 On ch=4 n=86 v=100
24210 On ch=4 n=86 v=0
24300 On ch=4 n=86 v=100
24330 On ch=4 n=86 v=0
24420 On ch=4 n=86 v=100
24450 On ch=4 n=86 v=0
24540 On ch=4 n=86 v=100
24570 On ch=4 n=86 v=0
24660 On ch=4 n=86 v=100
24690 On ch=4 n=86 v=0
24780 On ch=4 n=86 v=100
24810 On ch=4 n=86 v=0
24900 On ch=4 n=86 v=100
24930 On ch=4 n=86 v=0
25020 On ch=4 n=86 v=100
25050 On ch=4 n=86 v=0
25140 On ch=4 n=86 v=100
25170 On ch=4 n=86 v=0
25260 On ch=4 n=86 v=100
25290 On ch=4 n=86 v=0
25380 On ch=4 n=86 v=100
25410 On ch=4 n=86 v=0
25500 On ch=4 n=86 v=100
25530 On ch=4 n=86 v=0
25620 On ch=4 n=86 v=100
25650 On ch=4 n=86 v=0
25740 On ch=4 n=86 v=100
25770 On ch=4 n=86 v=0
25860 On ch=4 n=86 v=100
25890 On ch=4 n=86 v=0
25980 On ch=4 n=86 v=100
26010 On ch=4 n=86 v=0
26100 On ch=4 n=86 v=100
26130 On ch=4 n=86 v=0
26220 On ch=4 n=86 v=100
26250 On ch=4 n=86 v=0
26340 On ch=4 n=86 v=100
26370 On ch=4 n=86 v=0
26460 On ch=4 n=86 v=100
26490 On ch=4 n=86 v=0
26580 On ch=4 n=86 v=100
26610 On ch=4 n=86 v=0
26700 On ch=4 n=86 v=100
26730 On ch=4 n=86 v=0
26820 On ch=4 n=86 v=100
26850 On ch=4 n=86 v=0
26940 On ch=4 n=86 v=100
26970 On ch=4 n=86 v=0
27060 On ch=4 n=86 v=100
27090 On ch=4 n=86 v=0
27180 On ch=4 n=86 v=100
27210 On ch=4 n=86 v=0
27300 On ch=4 n=86 v=100
27330 On ch=4 n=86 v=0
27420 On ch=4 n=86 v=100
27450 On ch=4 n=86 v=0
27540 On ch=4 n=86 v=100
27570 On ch=4 n=86 v=0
27660 On ch=4 n=86 v=100
27690 On ch=4 n=86 v=0
27780 On ch=4 n=86 v=100
27810 On ch=4 n=86 v=0
27900 On ch=4 n=86 v=100
27930 On ch=4 n=86 v=0
28020 On ch=4 n=86 v=100
28050 On ch=4 n=86 v=0
28140 On ch=4 n=86 v=100
28170 On ch=4 n=86 v=0
28260 On ch=4 n=86 v=100
28290 On ch=4 n=86 v=0
28380 On ch=4 n=86 v=100
28410 On ch=4 n=86 v=0
28500 On ch=4 n=86 v=100
28530 On ch=4 n=86 v=0
28620 On ch=4 n=86 v=100
28650 On ch=4 n=86 v=0
28740 On ch=4 n=86 v=100
28770 On ch=4 n=86 v=0
28860 On ch=4 n=86 v=100
28890 On ch=4 n=86 v=0
28980 On ch=4 n=86 v=100
29010 On ch=4 n=86 v=0
29100 On ch=4 n=86 v=100
29130 On ch=4 n=86 v=0
29220 On ch=4 n=86 v=100
29250 On ch=4 n=86 v=0
37020 On ch=4 n=86 v=100
37050 On ch=4 n=86 v=0
37140 On ch=4 n=86 v=100
37170 On ch=4 n=86 v=0
37260 On ch=4 n=86 v=100
37290 On ch=4 n=86 v=0
37380 On ch=4 n=86 v=100
37410 On ch=4 n=86 v=0
37500 On ch=4 n=86 v=100
37530 On ch=4 n=86 v=0
37620 On ch=4 n=86 v=100
37650 On ch=4 n=86 v=0
37740 On ch=4 n=86 v=100
37770 On ch=4 n=86 v=0
37860 On ch=4 n=86 v=100
37890 On ch=4 n=86 v=0
37980 On ch=4 n=86 v=100
38010 On ch=4 n=86 v=0
38100 On ch=4 n=86 v=100
38130 On ch=4 n=86 v=0
38220 On ch=4 n=86 v=100
38250 On ch=4 n=86 v=0
38340 On ch=4 n=86 v=100
38370 On ch=4 n=86 v=0
38460 On ch=4 n=86 v=100
38490 On ch=4 n=86 v=0
38580 On ch=4 n=86 v=100
38610 On ch=4 n=86 v=0
38700 On ch=4 n=86 v=100
38730 On ch=4 n=86 v=0
38820 On ch=4 n=86 v=100
38850 On ch=4 n=86 v=0
38940 On ch=4 n=86 v=100
38970 On ch=4 n=86 v=0
39060 On ch=4 n=86 v=100
39090 On ch=4 n=86 v=0
39180 On ch=4 n=86 v=100
39210 On ch=4 n=86 v=0
39300 On ch=4 n=86 v=100
39330 On ch=4 n=86 v=0
39420 On ch=4 n=86 v=100
39450 On ch=4 n=86 v=0
39540 On ch=4 n=86 v=100
39570 On ch=4 n=86 v=0
39660 On ch=4 n=86 v=100
39690 On ch=4 n=86 v=0
39780 On ch=4 n=86 v=100
39810 On ch=4 n=86 v=0
39900 On ch=4 n=86 v=100
39930 On ch=4 n=86 v=0
40020 On ch=4 n=86 v=100
40050 On ch=4 n=86 v=0
40140 On ch=4 n=86 v=100
40170 On ch=4 n=86 v=0
40260 On ch=4 n=86 v=100
40290 On ch=4 n=86 v=0
40380 On ch=4 n=86 v=100
40410 On ch=4 n=86 v=0
40500 On ch=4 n=86 v=100
40530 On ch=4 n=86 v=0
40620 On ch=4 n=86 v=100
40650 On ch=4 n=86 v=0
40740 On ch=4 n=86 v=100
40770 On ch=4 n=86 v=0
40860 On ch=4 n=86 v=100
40890 On ch=4 n=86 v=0
40980 On ch=4 n=86 v=100
41010 On ch=4 n=86 v=0
41100 On ch=4 n=86 v=100
41130 On ch=4 n=86 v=0
41220 On ch=4 n=86 v=100
41250 On ch=4 n=86 v=0
41340 On ch=4 n=86 v=100
41370 On ch=4 n=86 v=0
41460 On ch=4 n=86 v=100
41490 On ch=4 n=86 v=0
41520 Par ch=4 c=11 v=127
41530 Par ch=4 c=11 v=126
41539 Par ch=4 c=11 v=125
41550 Par ch=4 c=11 v=124
41558 Par ch=4 c=11 v=123
41566 Par ch=4 c=11 v=122
41577 Par ch=4 c=11 v=121
41580 On ch=4 n=86 v=100
41585 Par ch=4 c=11 v=120
41593 Par ch=4 c=11 v=119
41604 Par ch=4 c=11 v=118
41610 On ch=4 n=86 v=0
41612 Par ch=4 c=11 v=117
41620 Par ch=4 c=11 v=116
41631 Par ch=4 c=11 v=115
41640 Par ch=4 c=11 v=114
41648 Par ch=4 c=11 v=113
41659 Par ch=4 c=11 v=112
41667 Par ch=4 c=11 v=111
41678 Par ch=4 c=11 v=110
41686 Par ch=4 c=11 v=109
41694 Par ch=4 c=11 v=108
41700 On ch=4 n=86 v=100
41705 Par ch=4 c=11 v=107
41713 Par ch=4 c=11 v=106
41721 Par ch=4 c=11 v=105
41730 On ch=4 n=86 v=0
41732 Par ch=4 c=11 v=104
41740 Par ch=4 c=11 v=103
41749 Par ch=4 c=11 v=102
41760 Par ch=4 c=11 v=101
41768 Par ch=4 c=11 v=100
41776 Par ch=4 c=11 v=99
41787 Par ch=4 c=11 v=98
41795 Par ch=4 c=11 v=97
41806 Par ch=4 c=11 v=96
41814 Par ch=4 c=11 v=95
41820 On ch=4 n=86 v=100
41822 Par ch=4 c=11 v=94
41833 Par ch=4 c=11 v=93
41841 Par ch=4 c=11 v=92
41850 On ch=4 n=86 v=0
41850 Par ch=4 c=11 v=91
41860 Par ch=4 c=11 v=90
41869 Par ch=4 c=11 v=89
41877 Par ch=4 c=11 v=88
41888 Par ch=4 c=11 v=87
41896 Par ch=4 c=11 v=86
41904 Par ch=4 c=11 v=85
41915 Par ch=4 c=11 v=84
41923 Par ch=4 c=11 v=83
41931 Par ch=4 c=11 v=82
41940 On ch=4 n=86 v=100
41942 Par ch=4 c=11 v=81
41950 Par ch=4 c=11 v=80
41961 Par ch=4 c=11 v=79
41970 On ch=4 n=86 v=0
41970 Par ch=4 c=11 v=78
41978 Par ch=4 c=11 v=77
41989 Par ch=4 c=11 v=76
41997 Par ch=4 c=11 v=75
42005 Par ch=4 c=11 v=74
42016 Par ch=4 c=11 v=73
42024 Par ch=4 c=11 v=72
42032 Par ch=4 c=11 v=71
42043 Par ch=4 c=11 v=70
42051 Par ch=4 c=11 v=69
42060 On ch=4 n=86 v=100
42060 Par ch=4 c=11 v=68
42070 Par ch=4 c=11 v=67
42079 Par ch=4 c=11 v=66
42090 On ch=4 n=86 v=0
42090 Par ch=4 c=11 v=65
42098 Par ch=4 c=11 v=64
42106 Par ch=4 c=11 v=63
42117 Par ch=4 c=11 v=62
42125 Par ch=4 c=11 v=61
42133 Par ch=4 c=11 v=60
42144 Par ch=4 c=11 v=59
42152 Par ch=4 c=11 v=58
42160 Par ch=4 c=11 v=57
42171 Par ch=4 c=11 v=56
42180 Par ch=4 c=11 v=55
42180 On ch=4 n=86 v=100
42188 Par ch=4 c=11 v=54
42199 Par ch=4 c=11 v=53
42207 Par ch=4 c=11 v=52
42210 On ch=4 n=86 v=0
42218 Par ch=4 c=11 v=51
42226 Par ch=4 c=11 v=50
42234 Par ch=4 c=11 v=49
42245 Par ch=4 c=11 v=48
42253 Par ch=4 c=11 v=47
42261 Par ch=4 c=11 v=46
42272 Par ch=4 c=11 v=45
42280 Par ch=4 c=11 v=44
42289 Par ch=4 c=11 v=43
42300 Par ch=4 c=11 v=42
42300 On ch=4 n=86 v=100
42308 Par ch=4 c=11 v=41
42316 Par ch=4 c=11 v=40
42327 Par ch=4 c=11 v=39
42330 On ch=4 n=86 v=0
42335 Par ch=4 c=11 v=38
42343 Par ch=4 c=11 v=37
42354 Par ch=4 c=11 v=36
42362 Par ch=4 c=11 v=35
42373 Par ch=4 c=11 v=34
42381 Par ch=4 c=11 v=33
42390 Par ch=4 c=11 v=32
42400 Par ch=4 c=11 v=31
42409 Par ch=4 c=11 v=30
42417 Par ch=4 c=11 v=29
42420 On ch=4 n=86 v=100
42428 Par ch=4 c=11 v=28
42436 Par ch=4 c=11 v=27
42444 Par ch=4 c=11 v=26
42450 On ch=4 n=86 v=0
42455 Par ch=4 c=11 v=25
42463 Par ch=4 c=11 v=24
42471 Par ch=4 c=11 v=23
42482 Par ch=4 c=11 v=22
42490 Par ch=4 c=11 v=21
42501 Par ch=4 c=11 v=20
42510 Par ch=4 c=11 v=19
42518 Par ch=4 c=11 v=18
42529 Par ch=4 c=11 v=17
42537 Par ch=4 c=11 v=16
42540 On ch=4 n=86 v=100
42545 Par ch=4 c=11 v=15
42556 Par ch=4 c=11 v=14
42564 Par ch=4 c=11 v=13
42570 On ch=4 n=86 v=0
42572 Par ch=4 c=11 v=12
42583 Par ch=4 c=11 v=11
42591 Par ch=4 c=11 v=10
42600 Par ch=4 c=11 v=9
42610 Par ch=4 c=11 v=8
42619 Par ch=4 c=11 v=7
42627 Par ch=4 c=11 v=6
42660 On ch=4 n=86 v=100
42690 On ch=4 n=86 v=0
42690 Meta TrkEnd
TrkEnd
MTrk
0 Meta TrkName "Gutar Wah Wah"
0 Par ch=5 c=0 v=0
0 Par ch=5 c=7 v=127
0 Par ch=5 c=32 v=0
0 PrCh ch=5 p=26
2400 On ch=5 n=57 v=40
2400 On ch=5 n=65 v=40
2400 On ch=5 n=60 v=40
2400 On ch=5 n=53 v=40
2460 On ch=5 n=53 v=0
2460 On ch=5 n=57 v=0
2460 On ch=5 n=65 v=0
2460 On ch=5 n=60 v=0
2460 Par ch=5 c=7 v=70
2460 Par ch=5 c=7 v=78
2460 On ch=5 n=53 v=40
2460 On ch=5 n=60 v=40
2460 On ch=5 n=57 v=40
2462 Par ch=5 c=7 v=86
2463 Par ch=5 c=7 v=95
2464 Par ch=5 c=7 v=103
2465 Par ch=5 c=7 v=111
2466 Par ch=5 c=7 v=119
2467 Par ch=5 c=7 v=127
2468 Par ch=5 c=7 v=119
2470 Par ch=5 c=7 v=103
2470 Par ch=5 c=7 v=111
2472 Par ch=5 c=7 v=95
2473 Par ch=5 c=7 v=86
2474 Par ch=5 c=7 v=78
2475 Par ch=5 c=7 v=70
2476 Par ch=5 c=7 v=62
2477 Par ch=5 c=7 v=53
2478 Par ch=5 c=7 v=45
2480 Par ch=5 c=7 v=37
2481 Par ch=5 c=7 v=29
2482 Par ch=5 c=7 v=21
2483 Par ch=5 c=7 v=12
2484 Par ch=5 c=7 v=21
2485 Par ch=5 c=7 v=29
2486 Par ch=5 c=7 v=37
2487 Par ch=5 c=7 v=45
2488 Par ch=5 c=7 v=53
2490 Par ch=5 c=7 v=62
2491 Par ch=5 c=7 v=70
2492 Par ch=5 c=7 v=78
2493 Par ch=5 c=7 v=86
2494 Par ch=5 c=7 v=95
2495 Par ch=5 c=7 v=103
2497 Par ch=5 c=7 v=111
2497 Par ch=5 c=7 v=119
2498 Par ch=5 c=7 v=127
2500 Par ch=5 c=7 v=119
2501 Par ch=5 c=7 v=111
2502 Par ch=5 c=7 v=103
2503 Par ch=5 c=7 v=95
2504 Par ch=5 c=7 v=86
2505 Par ch=5 c=7 v=78
2507 Par ch=5 c=7 v=70
2507 Par ch=5 c=7 v=62
2508 Par ch=5 c=7 v=53
2510 Par ch=5 c=7 v=45
2511 Par ch=5 c=7 v=37
2512 Par ch=5 c=7 v=29
2513 Par ch=5 c=7 v=21
2514 Par ch=5 c=7 v=12
2515 Par ch=5 c=7 v=21
2517 Par ch=5 c=7 v=29
2518 Par ch=5 c=7 v=37
2518 Par ch=5 c=7 v=45
2520 On ch=5 n=57 v=0
2520 On ch=5 n=60 v=0
2520 On ch=5 n=53 v=0
2520 On ch=5 n=57 v=40
2520 Par ch=5 c=7 v=53
2520 On ch=5 n=53 v=40
2520 On ch=5 n=60 v=40
2520 On ch=5 n=65 v=40
2521 Par ch=5 c=7 v=62
2522 Par ch=5 c=7 v=70
2523 Par ch=5 c=7 v=78
2524 Par ch=5 c=7 v=86
2525 Par ch=5 c=7 v=95
2527 Par ch=5 c=7 v=103
2528 Par ch=5 c=7 v=119
2528 Par ch=5 c=7 v=111
2530 Par ch=5 c=7 v=127
2531 Par ch=5 c=7 v=119
2532 Par ch=5 c=7 v=111
2533 Par ch=5 c=7 v=103
2534 Par ch=5 c=7 v=95
2535 Par ch=5 c=7 v=86
2537 Par ch=5 c=7 v=78
2538 Par ch=5 c=7 v=62
2538 Par ch=5 c=7 v=70
2540 Par ch=5 c=7 v=53
2541 Par ch=5 c=7 v=45
2542 Par ch=5 c=7 v=37
2543 Par ch=5 c=7 v=29
2544 Par ch=5 c=7 v=21
2545 Par ch=5 c=7 v=12
2547 Par ch=5 c=7 v=20
2548 Par ch=5 c=7 v=29
2549 Par ch=5 c=7 v=37
2550 Par ch=5 c=7 v=45
2551 Par ch=5 c=7 v=53
2552 Par ch=5 c=7 v=62
2553 Par ch=5 c=7 v=70
2555 Par ch=5 c=7 v=78
2555 Par ch=5 c=7 v=86
2557 Par ch=5 c=7 v=95
2558 Par ch=5 c=7 v=103
2559 Par ch=5 c=7 v=111
2560 Par ch=5 c=7 v=119
2561 Par ch=5 c=7 v=127
2562 Par ch=5 c=7 v=119
2563 Par ch=5 c=7 v=111
2565 Par ch=5 c=7 v=103
2565 Par ch=5 c=7 v=95
2567 Par ch=5 c=7 v=86
2568 Par ch=5 c=7 v=78
2569 Par ch=5 c=7 v=70
2570 Par ch=5 c=7 v=62
2571 Par ch=5 c=7 v=53
2572 Par ch=5 c=7 v=45
2573 Par ch=5 c=7 v=37
2575 Par ch=5 c=7 v=21
2575 Par ch=5 c=7 v=29
2577 Par ch=5 c=7 v=12
2578 Par ch=5 c=7 v=20
2579 Par ch=5 c=7 v=29
2580 On ch=5 n=65 v=0
2580 On ch=5 n=57 v=0
2580 On ch=5 n=53 v=0
2580 On ch=5 n=60 v=0
2580 On ch=5 n=53 v=40
2580 On ch=5 n=57 v=40
2580 Par ch=5 c=7 v=78
2580 On ch=5 n=60 v=40
2580 Par ch=5 c=7 v=86
2581 Par ch=5 c=7 v=95
2582 Par ch=5 c=7 v=103
2583 Par ch=5 c=7 v=111
2585 Par ch=5 c=7 v=119
2586 Par ch=5 c=7 v=127
2587 Par ch=5 c=7 v=119
2588 Par ch=5 c=7 v=111
2589 Par ch=5 c=7 v=103
2590 Par ch=5 c=7 v=95
2592 Par ch=5 c=7 v=86
2592 Par ch=5 c=7 v=78
2593 Par ch=5 c=7 v=70
2595 Par ch=5 c=7 v=62
2596 Par ch=5 c=7 v=53
2597 Par ch=5 c=7 v=45
2598 Par ch=5 c=7 v=37
2599 Par ch=5 c=7 v=29
2600 Par ch=5 c=7 v=21
2602 Par ch=5 c=7 v=21
2602 Par ch=5 c=7 v=12
2603 Par ch=5 c=7 v=29
2605 Par ch=5 c=7 v=37
2606 Par ch=5 c=7 v=45
2607 Par ch=5 c=7 v=53
2608 Par ch=5 c=7 v=62
2609 Par ch=5 c=7 v=70
2610 Par ch=5 c=7 v=78
2612 Par ch=5 c=7 v=95
2612 Par ch=5 c=7 v=86
2613 Par ch=5 c=7 v=103
2615 Par ch=5 c=7 v=111
2616 Par ch=5 c=7 v=119
2617 Par ch=5 c=7 v=127
2618 Par ch=5 c=7 v=119
2619 Par ch=5 c=7 v=111
2620 Par ch=5 c=7 v=103
2622 Par ch=5 c=7 v=95
2623 Par ch=5 c=7 v=86
2623 Par ch=5 c=7 v=78
2625 Par ch=5 c=7 v=70
2626 Par ch=5 c=7 v=62
2627 Par ch=5 c=7 v=53
2628 Par ch=5 c=7 v=45
2629 Par ch=5 c=7 v=37
2630 Par ch=5 c=7 v=29
2632 Par ch=5 c=7 v=21
2633 Par ch=5 c=7 v=21
2633 Par ch=5 c=7 v=12
2635 Par ch=5 c=7 v=29
2636 Par ch=5 c=7 v=37
2637 Par ch=5 c=7 v=45
2638 Par ch=5 c=7 v=53
2639 Par ch=5 c=7 v=62
2640 On ch=5 n=60 v=0
2640 On ch=5 n=57 v=0
2640 On ch=5 n=53 v=0
2640 Par ch=5 c=7 v=70
2640 On ch=5 n=57 v=40
2640 On ch=5 n=60 v=40
2640 On ch=5 n=53 v=40
2640 On ch=5 n=65 v=40
2642 Par ch=5 c=7 v=78
2643 Par ch=5 c=7 v=86
2644 Par ch=5 c=7 v=95
2645 Par ch=5 c=7 v=103
2646 Par ch=5 c=7 v=111
2647 Par ch=5 c=7 v=119
2648 Par ch=5 c=7 v=127
2649 Par ch=5 c=7 v=119
2650 Par ch=5 c=7 v=111
2651 Par ch=5 c=7 v=103
2653 Par ch=5 c=7 v=95
2654 Par ch=5 c=7 v=86
2655 Par ch=5 c=7 v=78
2656 Par ch=5 c=7 v=70
2657 Par ch=5 c=7 v=62
2658 Par ch=5 c=7 v=53
2660 Par ch=5 c=7 v=37
2660 Par ch=5 c=7 v=45
2662 Par ch=5 c=7 v=29
2663 Par ch=5 c=7 v=21
2664 Par ch=5 c=7 v=12
2665 Par ch=5 c=7 v=21
2666 Par ch=5 c=7 v=29
2667 Par ch=5 c=7 v=37
2668 Par ch=5 c=7 v=45
2670 Par ch=5 c=7 v=62
2670 Par ch=5 c=7 v=53
2672 Par ch=5 c=7 v=70
2673 Par ch=5 c=7 v=78
2674 Par ch=5 c=7 v=86
2675 Par ch=5 c=7 v=95
2676 Par ch=5 c=7 v=103
2677 Par ch=5 c=7 v=111
2678 Par ch=5 c=7 v=119
2680 Par ch=5 c=7 v=127
2681 Par ch=5 c=7 v=119
2682 Par ch=5 c=7 v=111
2683 Par ch=5 c=7 v=103
2684 Par ch=5 c=7 v=95
2685 Par ch=5 c=7 v=86
2686 Par ch=5 c=7 v=78
2687 Par ch=5 c=7 v=70
2688 Par ch=5 c=7 v=62
2690 Par ch=5 c=7 v=53
2691 Par ch=5 c=7 v=45
2692 Par ch=5 c=7 v=37
2693 Par ch=5 c=7 v=29
2694 Par ch=5 c=7 v=21
2695 Par ch=5 c=7 v=12
2697 Par ch=5 c=7 v=29
2697 Par ch=5 c=7 v=21
2698 Par ch=5 c=7 v=37
2700 On ch=5 n=65 v=0
2700 On ch=5 n=57 v=0
2700 On ch=5 n=60 v=0
2700 On ch=5 n=53 v=0
2700 On ch=5 n=57 v=40
2700 Par ch=5 c=7 v=45
2700 On ch=5 n=53 v=40
2700 On ch=5 n=60 v=40
2701 Par ch=5 c=7 v=53
2702 Par ch=5 c=7 v=62
2703 Par ch=5 c=7 v=70
2704 Par ch=5 c=7 v=78
2705 Par ch=5 c=7 v=86
2707 Par ch=5 c=7 v=103
2707 Par ch=5 c=7 v=95
2708 Par ch=5 c=7 v=111
2710 Par ch=5 c=7 v=119
2711 Par ch=5 c=7 v=127
2712 Par ch=5 c=7 v=119
2713 Par ch=5 c=7 v=111
2714 Par ch=5 c=7 v=103
2715 Par ch=5 c=7 v=95
2717 Par ch=5 c=7 v=86
2718 Par ch=5 c=7 v=78
2718 Par ch=5 c=7 v=70
2720 Par ch=5 c=7 v=62
2721 Par ch=5 c=7 v=53
2722 Par ch=5 c=7 v=45
2723 Par ch=5 c=7 v=37
2724 Par ch=5 c=7 v=29
2725 Par ch=5 c=7 v=21
2727 Par ch=5 c=7 v=12
2728 Par ch=5 c=7 v=29
2728 Par ch=5 c=7 v=20
2730 Par ch=5 c=7 v=37
2731 Par ch=5 c=7 v=45
2732 Par ch=5 c=7 v=53
2733 Par ch=5 c=7 v=62
2734 Par ch=5 c=7 v=70
2735 Par ch=5 c=7 v=78
2737 Par ch=5 c=7 v=86
2738 Par ch=5 c=7 v=95
2739 Par ch=5 c=7 v=103
2740 Par ch=5 c=7 v=111
2741 Par ch=5 c=7 v=119
2742 Par ch=5 c=7 v=127
2743 Par ch=5 c=7 v=119
2744 Par ch=5 c=7 v=111
2745 Par ch=5 c=7 v=103
2747 Par ch=5 c=7 v=95
2748 Par ch=5 c=7 v=86
2749 Par ch=5 c=7 v=78
2750 Par ch=5 c=7 v=70
2751 Par ch=5 c=7 v=62
2752 Par ch=5 c=7 v=53
2753 Par ch=5 c=7 v=45
2755 Par ch=5 c=7 v=29
2755 Par ch=5 c=7 v=37
2757 Par ch=5 c=7 v=21
2758 Par ch=5 c=7 v=12
2759 Par ch=5 c=7 v=20
2760 On ch=5 n=60 v=0
2760 On ch=5 n=53 v=0
2760 On ch=5 n=57 v=0
2760 On ch=5 n=60 v=40
2760 On ch=5 n=65 v=40
2760 Par ch=5 c=7 v=29
2760 On ch=5 n=57 v=40
2760 On ch=5 n=53 v=40
2761 Par ch=5 c=7 v=37
2762 Par ch=5 c=7 v=45
2763 Par ch=5 c=7 v=53
2765 Par ch=5 c=7 v=70
2765 Par ch=5 c=7 v=62
2767 Par ch=5 c=7 v=78
2768 Par ch=5 c=7 v=86
2769 Par ch=5 c=7 v=95
2770 Par ch=5 c=7 v=103
2771 Par ch=5 c=7 v=111
2772 Par ch=5 c=7 v=119
2773 Par ch=5 c=7 v=127
2775 Par ch=5 c=7 v=119
2776 Par ch=5 c=7 v=111
2777 Par ch=5 c=7 v=103
2778 Par ch=5 c=7 v=95
2779 Par ch=5 c=7 v=86
2780 Par ch=5 c=7 v=78
2781 Par ch=5 c=7 v=70
2782 Par ch=5 c=7 v=62
2783 Par ch=5 c=7 v=53
2785 Par ch=5 c=7 v=45
2786 Par ch=5 c=7 v=37
2787 Par ch=5 c=7 v=29
2788 Par ch=5 c=7 v=21
2789 Par ch=5 c=7 v=12
2790 Par ch=5 c=7 v=20
2792 Par ch=5 c=7 v=29
2792 Par ch=5 c=7 v=37
2793 Par ch=5 c=7 v=45
2795 Par ch=5 c=7 v=53
2796 Par ch=5 c=7 v=62
2797 Par ch=5 c=7 v=70
2798 Par ch=5 c=7 v=78
2799 Par ch=5 c=7 v=86
2800 Par ch=5 c=7 v=95
2802 Par ch=5 c=7 v=103
2802 Par ch=5 c=7 v=111
2803 Par ch=5 c=7 v=119
2805 Par ch=5 c=7 v=127
2806 Par ch=5 c=7 v=119
2807 Par ch=5 c=7 v=111
2808 Par ch=5 c=7 v=103
2809 Par ch=5 c=7 v=95
2810 Par ch=5 c=7 v=86
2812 Par ch=5 c=7 v=78
2813 Par ch=5 c=7 v=70
2813 Par ch=5 c=7 v=62
2815 Par ch=5 c=7 v=53
2816 Par ch=5 c=7 v=45
2817 Par ch=5 c=7 v=37
2818 Par ch=5 c=7 v=29
2819 Par ch=5 c=7 v=21
2820 On ch=5 n=53 v=0
2820 On ch=5 n=60 v=0
2820 On ch=5 n=65 v=0
2820 On ch=5 n=57 v=0
2820 On ch=5 n=60 v=40
2820 Par ch=5 c=7 v=12
2820 On ch=5 n=57 v=40
2820 On ch=5 n=53 v=40
2822 Par ch=5 c=7 v=20
2823 Par ch=5 c=7 v=29
2823 Par ch=5 c=7 v=37
2825 Par ch=5 c=7 v=45
2826 Par ch=5 c=7 v=53
2827 Par ch=5 c=7 v=62
2828 Par ch=5 c=7 v=70
2829 Par ch=5 c=7 v=78
2830 Par ch=5 c=7 v=86
2832 Par ch=5 c=7 v=95
2833 Par ch=5 c=7 v=103
2834 Par ch=5 c=7 v=111
2835 Par ch=5 c=7 v=119
2836 Par ch=5 c=7 v=127
2837 Par ch=5 c=7 v=119
2838 Par ch=5 c=7 v=111
2839 Par ch=5 c=7 v=103
2840 Par ch=5 c=7 v=95
2842 Par ch=5 c=7 v=86
2843 Par ch=5 c=7 v=78
2844 Par ch=5 c=7 v=70
2845 Par ch=5 c=7 v=62
2846 Par ch=5 c=7 v=54
2847 Par ch=5 c=7 v=45
2848 Par ch=5 c=7 v=37
2850 Par ch=5 c=7 v=29
2850 Par ch=5 c=7 v=21
2851 Par ch=5 c=7 v=12
2853 Par ch=5 c=7 v=20
2854 Par ch=5 c=7 v=29
2855 Par ch=5 c=7 v=37
2856 Par ch=5 c=7 v=45
2857 Par ch=5 c=7 v=53
2858 Par ch=5 c=7 v=62
2860 Par ch=5 c=7 v=70
2860 Par ch=5 c=7 v=78
2862 Par ch=5 c=7 v=86
2863 Par ch=5 c=7 v=95
2864 Par ch=5 c=7 v=103
2865 Par ch=5 c=7 v=111
2866 Par ch=5 c=7 v=119
2867 Par ch=5 c=7 v=127
2868 Par ch=5 c=7 v=119
2870 Par ch=5 c=7 v=111
2871 Par ch=5 c=7 v=103
2872 Par ch=5 c=7 v=95
2873 Par ch=5 c=7 v=86
2874 Par ch=5 c=7 v=78
2875 Par ch=5 c=7 v=70
2876 Par ch=5 c=7 v=62
2877 Par ch=5 c=7 v=54
2878 Par ch=5 c=7 v=45
2880 On ch=5 n=53 v=0
2880 On ch=5 n=57 v=0
2880 On ch=5 n=60 v=0
2880 Par ch=5 c=7 v=78
2880 Par ch=5 c=7 v=86
2880 On ch=5 n=55 v=40
2880 On ch=5 n=52 v=40
2880 On ch=5 n=60 v=40
2880 On ch=5 n=64 v=40
2881 Par ch=5 c=7 v=95
2881 Par ch=5 c=7 v=103
2883 Par ch=5 c=7 v=111
2884 Par ch=5 c=7 v=119
2885 Par ch=5 c=7 v=127
2887 Par ch=5 c=7 v=111
2887 Par ch=5 c=7 v=119
2888 Par ch=5 c=7 v=103
2890 Par ch=5 c=7 v=95
2891 Par ch=5 c=7 v=86
2892 Par ch=5 c=7 v=78
2893 Par ch=5 c=7 v=70
2894 Par ch=5 c=7 v=62
2895 Par ch=5 c=7 v=53
2896 Par ch=5 c=7 v=45
2897 Par ch=5 c=7 v=37
2898 Par ch=5 c=7 v=29
2900 Par ch=5 c=7 v=21
2901 Par ch=5 c=7 v=12
2902 Par ch=5 c=7 v=21
2903 Par ch=5 c=7 v=29
2904 Par ch=5 c=7 v=37
2905 Par ch=5 c=7 v=45
2907 Par ch=5 c=7 v=53
2908 Par ch=5 c=7 v=62
2908 Par ch=5 c=7 v=70
2910 Par ch=5 c=7 v=78
2911 Par ch=5 c=7 v=86
2912 Par ch=5 c=7 v=95
2913 Par ch=5 c=7 v=103
2914 Par ch=5 c=7 v=111
2915 Par ch=5 c=7 v=119
2917 Par ch=5 c=7 v=127
2918 Par ch=5 c=7 v=119
2918 Par ch=5 c=7 v=111
2920 Par ch=5 c=7 v=103
2921 Par ch=5 c=7 v=95
2922 Par ch=5 c=7 v=86
2923 Par ch=5 c=7 v=78
2924 Par ch=5 c=7 v=70
2925 Par ch=5 c=7 v=62
2927 Par ch=5 c=7 v=53
2928 Par ch=5 c=7 v=37
2928 Par ch=5 c=7 v=45
2930 Par ch=5 c=7 v=29
2931 Par ch=5 c=7 v=21
2932 Par ch=5 c=7 v=12
2933 Par ch=5 c=7 v=21
2934 Par ch=5 c=7 v=29
2935 Par ch=5 c=7 v=37
2937 Par ch=5 c=7 v=45
2938 Par ch=5 c=7 v=53
2939 Par ch=5 c=7 v=62
2940 On ch=5 n=64 v=0
2940 On ch=5 n=55 v=0
2940 On ch=5 n=52 v=0
2940 On ch=5 n=60 v=0
2940 On ch=5 n=60 v=40
2940 On ch=5 n=55 v=40
2940 Par ch=5 c=7 v=70
2940 On ch=5 n=52 v=40
2941 Par ch=5 c=7 v=78
2942 Par ch=5 c=7 v=86
2943 Par ch=5 c=7 v=95
2945 Par ch=5 c=7 v=111
2945 Par ch=5 c=7 v=103
2947 Par ch=5 c=7 v=119
2948 Par ch=5 c=7 v=127
2949 Par ch=5 c=7 v=119
2950 Par ch=5 c=7 v=111
2951 Par ch=5 c=7 v=103
2952 Par ch=5 c=7 v=95
2953 Par ch=5 c=7 v=86
2955 Par ch=5 c=7 v=70
2955 Par ch=5 c=7 v=78
2957 Par ch=5 c=7 v=62
2958 Par ch=5 c=7 v=53
2959 Par ch=5 c=7 v=45
2960 Par ch=5 c=7 v=37
2961 Par ch=5 c=7 v=29
2962 Par ch=5 c=7 v=21
2963 Par ch=5 c=7 v=12
2965 Par ch=5 c=7 v=29
2965 Par ch=5 c=7 v=21
2967 Par ch=5 c=7 v=37
2968 Par ch=5 c=7 v=45
2969 Par ch=5 c=7 v=53
2970 Par ch=5 c=7 v=62
2971 Par ch=5 c=7 v=70
2972 Par ch=5 c=7 v=78
2973 Par ch=5 c=7 v=86
2975 Par ch=5 c=7 v=95
2976 Par ch=5 c=7 v=103
2977 Par ch=5 c=7 v=111
2978 Par ch=5 c=7 v=119
2979 Par ch=5 c=7 v=127
2980 Par ch=5 c=7 v=119
2982 Par ch=5 c=7 v=111
2982 Par ch=5 c=7 v=103
2983 Par ch=5 c=7 v=95
2985 Par ch=5 c=7 v=86
2986 Par ch=5 c=7 v=78
2987 Par ch=5 c=7 v=70
2988 Par ch=5 c=7 v=62
2989 Par ch=5 c=7 v=53
2990 Par ch=5 c=7 v=45
2992 Par ch=5 c=7 v=37
2992 Par ch=5 c=7 v=29
2993 Par ch=5 c=7 v=21
2995 Par ch=5 c=7 v=12
2996 Par ch=5 c=7 v=21
2997 Par ch=5 c=7 v=29
2998 Par ch=5 c=7 v=37
2999 Par ch=5 c=7 v=45
3000 On ch=5 n=52 v=0
3000 On ch=5 n=55 v=0
3000 On ch=5 n=60 v=0
3000 On ch=5 n=64 v=40
3000 On ch=5 n=55 v=40
3000 On ch=5 n=60 v=40
3000 Par ch=5 c=7 v=53
3000 On ch=5 n=52 v=40
3002 Par ch=5 c=7 v=62
3002 Par ch=5 c=7 v=70
3003 Par ch=5 c=7 v=78
3005 Par ch=5 c=7 v=86
3006 Par ch=5 c=7 v=95
3007 Par ch=5 c=7 v=103
3008 Par ch=5 c=7 v=111
3009 Par ch=5 c=7 v=119
3010 Par ch=5 c=7 v=127
3012 Par ch=5 c=7 v=119
3013 Par ch=5 c=7 v=111
3013 Par ch=5 c=7 v=103
3015 Par ch=5 c=7 v=95
3016 Par ch=5 c=7 v=86
3017 Par ch=5 c=7 v=78
3018 Par ch=5 c=7 v=70
3019 Par ch=5 c=7 v=62
3020 Par ch=5 c=7 v=53
3022 Par ch=5 c=7 v=45
3023 Par ch=5 c=7 v=29
3023 Par ch=5 c=7 v=37
3025 Par ch=5 c=7 v=21
3026 Par ch=5 c=7 v=12
3027 Par ch=5 c=7 v=20
3028 Par ch=5 c=7 v=29
3029 Par ch=5 c=7 v=37
3030 Par ch=5 c=7 v=45
3032 Par ch=5 c=7 v=53
3033 Par ch=5 c=7 v=62
3034 Par ch=5 c=7 v=70
3035 Par ch=5 c=7 v=78
3036 Par ch=5 c=7 v=86
3037 Par ch=5 c=7 v=95
3038 Par ch=5 c=7 v=103
3039 Par ch=5 c=7 v=111
3040 Par ch=5 c=7 v=119
3042 Par ch=5 c=7 v=127
3043 Par ch=5 c=7 v=119
3044 Par ch=5 c=7 v=111
3045 Par ch=5 c=7 v=103
3046 Par ch=5 c=7 v=95
3047 Par ch=5 c=7 v=86
3048 Par ch=5 c=7 v=78
3050 Par ch=5 c=7 v=70
3050 Par ch=5 c=7 v=62
3052 Par ch=5 c=7 v=53
3053 Par ch=5 c=7 v=45
3054 Par ch=5 c=7 v=37
3055 Par ch=5 c=7 v=29
3056 Par ch=5 c=7 v=21
3057 Par ch=5 c=7 v=12
3058 Par ch=5 c=7 v=20
3060 On ch=5 n=52 v=0
3060 On ch=5 n=64 v=0
3060 On ch=5 n=55 v=0
3060 On ch=5 n=60 v=0
3060 Par ch=5 c=7 v=86
3060 Par ch=5 c=7 v=95
3060 On ch=5 n=52 v=40
3060 Par ch=5 c=7 v=78
3060 On ch=5 n=60 v=40
3060 On ch=5 n=55 v=40
3062 Par ch=5 c=7 v=103
3063 Par ch=5 c=7 v=111
3064 Par ch=5 c=7 v=119
3065 Par ch=5 c=7 v=127
3066 Par ch=5 c=7 v=119
3067 Par ch=5 c=7 v=111
3068 Par ch=5 c=7 v=103
3070 Par ch=5 c=7 v=95
3071 Par ch=5 c=7 v=86
3072 Par ch=5 c=7 v=78
3073 Par ch=5 c=7 v=70
3074 Par ch=5 c=7 v=62
3075 Par ch=5 c=7 v=53
3076 Par ch=5 c=7 v=45
3077 Par ch=5 c=7 v=37
3078 Par ch=5 c=7 v=29
3080 Par ch=5 c=7 v=21
3081 Par ch=5 c=7 v=12
3082 Par ch=5 c=7 v=21
3083 Par ch=5 c=7 v=29
3084 Par ch=5 c=7 v=37
3085 Par ch=5 c=7 v=45
3087 Par ch=5 c=7 v=62
3087 Par ch=5 c=7 v=53
3088 Par ch=5 c=7 v=70
3090 Par ch=5 c=7 v=78
3091 Par ch=5 c=7 v=86
3092 Par ch=5 c=7 v=95
3093 Par ch=5 c=7 v=103
3094 Par ch=5 c=7 v=111
3095 Par ch=5 c=7 v=119
3097 Par ch=5 c=7 v=127
3097 Par ch=5 c=7 v=119
3098 Par ch=5 c=7 v=111
3100 Par ch=5 c=7 v=103
3101 Par ch=5 c=7 v=95
3102 Par ch=5 c=7 v=86
3103 Par ch=5 c=7 v=78
3104 Par ch=5 c=7 v=70
3105 Par ch=5 c=7 v=62
3107 Par ch=5 c=7 v=53
3108 Par ch=5 c=7 v=37
3108 Par ch=5 c=7 v=45
3110 Par ch=5 c=7 v=29
3111 Par ch=5 c=7 v=21
3112 Par ch=5 c=7 v=12
3113 Par ch=5 c=7 v=21
3114 Par ch=5 c=7 v=29
3115 Par ch=5 c=7 v=37
3117 Par ch=5 c=7 v=45
3118 Par ch=5 c=7 v=53
3118 Par ch=5 c=7 v=62
3120 On ch=5 n=55 v=0
3120 On ch=5 n=60 v=0
3120 On ch=5 n=52 v=0
3120 On ch=5 n=55 v=40
3120 On ch=5 n=64 v=40
3120 On ch=5 n=60 v=40
3120 On ch=5 n=52 v=40
3120 Par ch=5 c=7 v=70
3121 Par ch=5 c=7 v=78
3122 Par ch=5 c=7 v=86
3123 Par ch=5 c=7 v=95
3124 Par ch=5 c=7 v=103
3125 Par ch=5 c=7 v=111
3127 Par ch=5 c=7 v=119
3128 Par ch=5 c=7 v=127
3129 Par ch=5 c=7 v=119
3130 Par ch=5 c=7 v=111
3131 Par ch=5 c=7 v=103
3132 Par ch=5 c=7 v=95
3133 Par ch=5 c=7 v=86
3134 Par ch=5 c=7 v=78
3135 Par ch=5 c=7 v=70
3137 Par ch=5 c=7 v=62
3138 Par ch=5 c=7 v=53
3139 Par ch=5 c=7 v=45
3140 Par ch=5 c=7 v=37
3141 Par ch=5 c=7 v=29
3142 Par ch=5 c=7 v=21
3143 Par ch=5 c=7 v=12
3145 Par ch=5 c=7 v=29
3145 Par ch=5 c=7 v=21
3147 Par ch=5 c=7 v=37
3148 Par ch=5 c=7 v=45
3149 Par ch=5 c=7 v=53
3150 Par ch=5 c=7 v=62
3151 Par ch=5 c=7 v=70
3152 Par ch=5 c=7 v=78
3153 Par ch=5 c=7 v=86
3155 Par ch=5 c=7 v=103
3155 Par ch=5 c=7 v=95
3157 Par ch=5 c=7 v=111
3158 Par ch=5 c=7 v=119
3159 Par ch=5 c=7 v=127
3160 Par ch=5 c=7 v=119
3161 Par ch=5 c=7 v=111
3162 Par ch=5 c=7 v=103
3163 Par ch=5 c=7 v=95
3165 Par ch=5 c=7 v=86
3166 Par ch=5 c=7 v=78
3167 Par ch=5 c=7 v=70
3168 Par ch=5 c=7 v=62
3169 Par ch=5 c=7 v=53
3170 Par ch=5 c=7 v=45
3171 Par ch=5 c=7 v=37
3172 Par ch=5 c=7 v=29
3173 Par ch=5 c=7 v=21
3175 Par ch=5 c=7 v=12
3176 Par ch=5 c=7 v=21
3177 Par ch=5 c=7 v=29
3178 Par ch=5 c=7 v=37
3179 Par ch=5 c=7 v=45
3180 On ch=5 n=52 v=0
3180 On ch=5 n=55 v=0
3180 On ch=5 n=64 v=0
3180 On ch=5 n=60 v=0
3180 On ch=5 n=52 v=40
3180 On ch=5 n=60 v=40
3180 Par ch=5 c=7 v=53
3180 On ch=5 n=55 v=40
3182 Par ch=5 c=7 v=62
3182 Par ch=5 c=7 v=70
3183 Par ch=5 c=7 v=78
3185 Par ch=5 c=7 v=86
3186 Par ch=5 c=7 v=95
3187 Par ch=5 c=7 v=103
3188 Par ch=5 c=7 v=111
3189 Par ch=5 c=7 v=119
3190 Par ch=5 c=7 v=127
3192 Par ch=5 c=7 v=119
3192 Par ch=5 c=7 v=111
3193 Par ch=5 c=7 v=103
3195 Par ch=5 c=7 v=95
3196 Par ch=5 c=7 v=86
3197 Par ch=5 c=7 v=78
3198 Par ch=5 c=7 v=70
3199 Par ch=5 c=7 v=62
3200 Par ch=5 c=7 v=53
3202 Par ch=5 c=7 v=45
3203 Par ch=5 c=7 v=37
3203 Par ch=5 c=7 v=29
3205 Par ch=5 c=7 v=21
3206 Par ch=5 c=7 v=12
3207 Par ch=5 c=7 v=20
3208 Par ch=5 c=7 v=29
3209 Par ch=5 c=7 v=37
3210 Par ch=5 c=7 v=45
3212 Par ch=5 c=7 v=53
3213 Par ch=5 c=7 v=70
3213 Par ch=5 c=7 v=62
3215 Par ch=5 c=7 v=78
3216 Par ch=5 c=7 v=86
3217 Par ch=5 c=7 v=95
3218 Par ch=5 c=7 v=103
3219 Par ch=5 c=7 v=111
3220 Par ch=5 c=7 v=119
3222 Par ch=5 c=7 v=127
3223 Par ch=5 c=7 v=111
3223 Par ch=5 c=7 v=119
3225 Par ch=5 c=7 v=103
3226 Par ch=5 c=7 v=95
3227 Par ch=5 c=7 v=86
3228 Par ch=5 c=7 v=78
3229 Par ch=5 c=7 v=70
3230 Par ch=5 c=7 v=62
3232 Par ch=5 c=7 v=53
3233 Par ch=5 c=7 v=45
3234 Par ch=5 c=7 v=37
3235 Par ch=5 c=7 v=29
3236 Par ch=5 c=7 v=21
3237 Par ch=5 c=7 v=12
3238 Par ch=5 c=7 v=20
3240 On ch=5 n=55 v=0
3240 On ch=5 n=60 v=0
3240 On ch=5 n=52 v=0
3240 Par ch=5 c=7 v=37
3240 On ch=5 n=64 v=40
3240 On ch=5 n=55 v=40
3240 On ch=5 n=60 v=40
3240 On ch=5 n=52 v=40
3240 Par ch=5 c=7 v=29
3242 Par ch=5 c=7 v=45
3243 Par ch=5 c=7 v=53
3244 Par ch=5 c=7 v=62
3245 Par ch=5 c=7 v=70
3246 Par ch=5 c=7 v=78
3247 Par ch=5 c=7 v=86
3248 Par ch=5 c=7 v=95
3250 Par ch=5 c=7 v=103
3250 Par ch=5 c=7 v=111
3252 Par ch=5 c=7 v=119
3253 Par ch=5 c=7 v=127
3254 Par ch=5 c=7 v=119
3255 Par ch=5 c=7 v=111
3256 Par ch=5 c=7 v=103
3257 Par ch=5 c=7 v=95
3258 Par ch=5 c=7 v=86
3260 Par ch=5 c=7 v=70
3260 Par ch=5 c=7 v=78
3262 Par ch=5 c=7 v=62
3263 Par ch=5 c=7 v=53
3264 Par ch=5 c=7 v=45
3265 Par ch=5 c=7 v=37
3266 Par ch=5 c=7 v=29
3267 Par ch=5 c=7 v=21
3268 Par ch=5 c=7 v=12
3270 Par ch=5 c=7 v=20
3271 Par ch=5 c=7 v=29
3272 Par ch=5 c=7 v=37
3273 Par ch=5 c=7 v=45
3274 Par ch=5 c=7 v=53
3275 Par ch=5 c=7 v=62
3277 Par ch=5 c=7 v=70
3277 Par ch=5 c=7 v=78
3278 Par ch=5 c=7 v=86
3280 Par ch=5 c=7 v=95
3281 Par ch=5 c=7 v=103
3282 Par ch=5 c=7 v=111
3283 Par ch=5 c=7 v=119
3284 Par ch=5 c=7 v=127
3285 Par ch=5 c=7 v=119
3287 Par ch=5 c=7 v=111
3287 Par ch=5 c=7 v=103
3288 Par ch=5 c=7 v=95
3290 Par ch=5 c=7 v=86
3291 Par ch=5 c=7 v=78
3292 Par ch=5 c=7 v=70
3293 Par ch=5 c=7 v=62
3294 Par ch=5 c=7 v=53
3295 Par ch=5 c=7 v=45
3296 Par ch=5 c=7 v=37
3298 Par ch=5 c=7 v=21
3298 Par ch=5 c=7 v=29
3300 On ch=5 n=52 v=0
3300 On ch=5 n=64 v=0
3300 On ch=5 n=55 v=0
3300 On ch=5 n=60 v=0
3300 On ch=5 n=55 v=40
3300 On ch=5 n=60 v=40
3300 Par ch=5 c=7 v=12
3300 On ch=5 n=52 v=40
3301 Par ch=5 c=7 v=20
3302 Par ch=5 c=7 v=29
3303 Par ch=5 c=7 v=37
3304 Par ch=5 c=7 v=45
3305 Par ch=5 c=7 v=53
3307 Par ch=5 c=7 v=62
3308 Par ch=5 c=7 v=78
3308 Par ch=5 c=7 v=70
3310 Par ch=5 c=7 v=86
3311 Par ch=5 c=7 v=95
3312 Par ch=5 c=7 v=103
3313 Par ch=5 c=7 v=111
3314 Par ch=5 c=7 v=119
3315 Par ch=5 c=7 v=127
3317 Par ch=5 c=7 v=119
3318 Par ch=5 c=7 v=103
3318 Par ch=5 c=7 v=111
3320 Par ch=5 c=7 v=95
3321 Par ch=5 c=7 v=86
3322 Par ch=5 c=7 v=78
3323 Par ch=5 c=7 v=70
3324 Par ch=5 c=7 v=62
3325 Par ch=5 c=7 v=54
3326 Par ch=5 c=7 v=45
3328 Par ch=5 c=7 v=37
3329 Par ch=5 c=7 v=29
3330 Par ch=5 c=7 v=21
3331 Par ch=5 c=7 v=12
3332 Par ch=5 c=7 v=20
3333 Par ch=5 c=7 v=29
3334 Par ch=5 c=7 v=37
3335 Par ch=5 c=7 v=45
3337 Par ch=5 c=7 v=53
3338 Par ch=5 c=7 v=62
3339 Par ch=5 c=7 v=70
3340 Par ch=5 c=7 v=78
3341 Par ch=5 c=7 v=86
3342 Par ch=5 c=7 v=95
3343 Par ch=5 c=7 v=103
3345 Par ch=5 c=7 v=111
3345 Par ch=5 c=7 v=119
3347 Par ch=5 c=7 v=127
3348 Par ch=5 c=7 v=119
3349 Par ch=5 c=7 v=111
3350 Par ch=5 c=7 v=103
3351 Par ch=5 c=7 v=95
3352 Par ch=5 c=7 v=86
3353 Par ch=5 c=7 v=78
3355 Par ch=5 c=7 v=62
3355 Par ch=5 c=7 v=70
3356 Par ch=5 c=7 v=54
3358 Par ch=5 c=7 v=45
3359 Par ch=5 c=7 v=37
3360 On ch=5 n=52 v=0
3360 On ch=5 n=60 v=0
3360 On ch=5 n=55 v=0
3360 On ch=5 n=53 v=40
3360 On ch=5 n=50 v=40
3360 Par ch=5 c=7 v=78
3360 Par ch=5 c=7 v=86
3360 On ch=5 n=62 v=40
3360 On ch=5 n=57 v=40
3361 Par ch=5 c=7 v=95
3362 Par ch=5 c=7 v=103
3363 Par ch=5 c=7 v=111
3365 Par ch=5 c=7 v=119
3366 Par ch=5 c=7 v=127
3367 Par ch=5 c=7 v=119
3368 Par ch=5 c=7 v=111
3369 Par ch=5 c=7 v=103
3370 Par ch=5 c=7 v=95
3371 Par ch=5 c=7 v=86
3372 Par ch=5 c=7 v=78
3373 Par ch=5 c=7 v=70
3375 Par ch=5 c=7 v=62
3376 Par ch=5 c=7 v=53
3377 Par ch=5 c=7 v=45
3378 Par ch=5 c=7 v=37
3379 Par ch=5 c=7 v=29
3380 Par ch=5 c=7 v=21
3382 Par ch=5 c=7 v=12
3382 Par ch=5 c=7 v=21
3383 Par ch=5 c=7 v=29
3385 Par ch=5 c=7 v=37
3386 Par ch=5 c=7 v=45
3387 Par ch=5 c=7 v=53
3388 Par ch=5 c=7 v=62
3389 Par ch=5 c=7 v=70
3390 Par ch=5 c=7 v=78
3392 Par ch=5 c=7 v=86
3392 Par ch=5 c=7 v=95
3393 Par ch=5 c=7 v=103
3395 Par ch=5 c=7 v=111
3396 Par ch=5 c=7 v=119
3397 Par ch=5 c=7 v=127
3398 Par ch=5 c=7 v=119
3399 Par ch=5 c=7 v=111
3400 Par ch=5 c=7 v=103
3401 Par ch=5 c=7 v=95
3403 Par ch=5 c=7 v=86
3403 Par ch=5 c=7 v=78
3405 Par ch=5 c=7 v=70
3406 Par ch=5 c=7 v=62
3407 Par ch=5 c=7 v=53
3408 Par ch=5 c=7 v=45
3409 Par ch=5 c=7 v=37
3410 Par ch=5 c=7 v=29
3412 Par ch=5 c=7 v=21
3413 Par ch=5 c=7 v=21
3413 Par ch=5 c=7 v=12
3415 Par ch=5 c=7 v=29
3416 Par ch=5 c=7 v=37
3417 Par ch=5 c=7 v=45
3418 Par ch=5 c=7 v=53
3419 Par ch=5 c=7 v=62
3420 On ch=5 n=57 v=0
3420 On ch=5 n=53 v=0
3420 On ch=5 n=50 v=0
3420 On ch=5 n=62 v=0
3420 Par ch=5 c=7 v=70
3420 On ch=5 n=53 v=40
3420 On ch=5 n=50 v=40
3420 On ch=5 n=57 v=40
3422 Par ch=5 c=7 v=78
3423 Par ch=5 c=7 v=86
3424 Par ch=5 c=7 v=95
3425 Par ch=5 c=7 v=103
3426 Par ch=5 c=7 v=111
3427 Par ch=5 c=7 v=119
3428 Par ch=5 c=7 v=127
3429 Par ch=5 c=7 v=119
3430 Par ch=5 c=7 v=111
3432 Par ch=5 c=7 v=103
3433 Par ch=5 c=7 v=95
3434 Par ch=5 c=7 v=86
3435 Par ch=5 c=7 v=78
3436 Par ch=5 c=7 v=70
3437 Par ch=5 c=7 v=62
3438 Par ch=5 c=7 v=53
3440 Par ch=5 c=7 v=45
3440 Par ch=5 c=7 v=37
3442 Par ch=5 c=7 v=29
3443 Par ch=5 c=7 v=21
3444 Par ch=5 c=7 v=12
3445 Par ch=5 c=7 v=21
3446 Par ch=5 c=7 v=29
3447 Par ch=5 c=7 v=37
3448 Par ch=5 c=7 v=45
3450 Par ch=5 c=7 v=53
3450 Par ch=5 c=7 v=62
3452 Par ch=5 c=7 v=70
3453 Par ch=5 c=7 v=78
3454 Par ch=5 c=7 v=86
3455 Par ch=5 c=7 v=95
3456 Par ch=5 c=7 v=103
3457 Par ch=5 c=7 v=111
3458 Par ch=5 c=7 v=119
3460 Par ch=5 c=7 v=127
3461 Par ch=5 c=7 v=119
3462 Par ch=5 c=7 v=111
3463 Par ch=5 c=7 v=103
3464 Par ch=5 c=7 v=95
3465 Par ch=5 c=7 v=86
3466 Par ch=5 c=7 v=78
3467 Par ch=5 c=7 v=70
3468 Par ch=5 c=7 v=62
3470 Par ch=5 c=7 v=53
3471 Par ch=5 c=7 v=45
3472 Par ch=5 c=7 v=37
3473 Par ch=5 c=7 v=29
3474 Par ch=5 c=7 v=21
3475 Par ch=5 c=7 v=12
3477 Par ch=5 c=7 v=29
3477 Par ch=5 c=7 v=21
3478 Par ch=5 c=7 v=37
3480 On ch=5 n=57 v=0
3480 On ch=5 n=50 v=0
3480 On ch=5 n=53 v=0
3480 On ch=5 n=53 v=40
3480 On ch=5 n=62 v=40
3480 On ch=5 n=50 v=40
3480 Par ch=5 c=7 v=45
3480 On ch=5 n=57 v=40
3481 Par ch=5 c=7 v=53
3482 Par ch=5 c=7 v=62
3483 Par ch=5 c=7 v=70
3484 Par ch=5 c=7 v=78
3485 Par ch=5 c=7 v=86
3487 Par ch=5 c=7 v=103
3487 Par ch=5 c=7 v=95
3488 Par ch=5 c=7 v=111
3490 Par ch=5 c=7 v=119
3491 Par ch=5 c=7 v=127
3492 Par ch=5 c=7 v=119
3493 Par ch=5 c=7 v=111
3494 Par ch=5 c=7 v=103
3495 Par ch=5 c=7 v=95
3497 Par ch=5 c=7 v=86
3498 Par ch=5 c=7 v=70
3498 Par ch=5 c=7 v=78
3500 Par ch=5 c=7 v=62
3501 Par ch=5 c=7 v=53
3502 Par ch=5 c=7 v=45
3503 Par ch=5 c=7 v=37
3504 Par ch=5 c=7 v=29
3505 Par ch=5 c=7 v=21
3507 Par ch=5 c=7 v=12
3508 Par ch=5 c=7 v=29
3508 Par ch=5 c=7 v=20
3510 Par ch=5 c=7 v=37
3511 Par ch=5 c=7 v=45
3512 Par ch=5 c=7 v=53
3513 Par ch=5 c=7 v=62
3514 Par ch=5 c=7 v=70
3515 Par ch=5 c=7 v=78
3517 Par ch=5 c=7 v=86
3518 Par ch=5 c=7 v=95
3519 Par ch=5 c=7 v=103
3520 Par ch=5 c=7 v=111
3521 Par ch=5 c=7 v=119
3522 Par ch=5 c=7 v=127
3523 Par ch=5 c=7 v=119
3524 Par ch=5 c=7 v=111
3525 Par ch=5 c=7 v=103
3527 Par ch=5 c=7 v=95
3528 Par ch=5 c=7 v=86
3529 Par ch=5 c=7 v=78
3530 Par ch=5 c=7 v=70
3531 Par ch=5 c=7 v=62
3532 Par ch=5 c=7 v=53
3533 Par ch=5 c=7 v=45
3535 Par ch=5 c=7 v=29
3535 Par ch=5 c=7 v=37
3537 Par ch=5 c=7 v=21
3538 Par ch=5 c=7 v=12
3539 Par ch=5 c=7 v=20
3540 On ch=5 n=57 v=0
3540 On ch=5 n=53 v=0
3540 On ch=5 n=62 v=0
3540 On ch=5 n=50 v=0
3540 On ch=5 n=57 v=40
3540 On ch=5 n=53 v=40
3540 Par ch=5 c=7 v=86
3540 Par ch=5 c=7 v=78
3540 On ch=5 n=50 v=40
3541 Par ch=5 c=7 v=95
3542 Par ch=5 c=7 v=103
3543 Par ch=5 c=7 v=111
3545 Par ch=5 c=7 v=127
3545 Par ch=5 c=7 v=119
3547 Par ch=5 c=7 v=119
3548 Par ch=5 c=7 v=111
3549 Par ch=5 c=7 v=103
3550 Par ch=5 c=7 v=95
3551 Par ch=5 c=7 v=86
3552 Par ch=5 c=7 v=78
3553 Par ch=5 c=7 v=70
3555 Par ch=5 c=7 v=62
3556 Par ch=5 c=7 v=53
3557 Par ch=5 c=7 v=45
3558 Par ch=5 c=7 v=37
3559 Par ch=5 c=7 v=29
3560 Par ch=5 c=7 v=21
3561 Par ch=5 c=7 v=12
3562 Par ch=5 c=7 v=21
3563 Par ch=5 c=7 v=29
3565 Par ch=5 c=7 v=37
3566 Par ch=5 c=7 v=45
3567 Par ch=5 c=7 v=53
3568 Par ch=5 c=7 v=62
3569 Par ch=5 c=7 v=70
3570 Par ch=5 c=7 v=78
3572 Par ch=5 c=7 v=86
3572 Par ch=5 c=7 v=95
3573 Par ch=5 c=7 v=103
3575 Par ch=5 c=7 v=111
3576 Par ch=5 c=7 v=119
3577 Par ch=5 c=7 v=127
3578 Par ch=5 c=7 v=119
3579 Par ch=5 c=7 v=111
3580 Par ch=5 c=7 v=103
3582 Par ch=5 c=7 v=86
3582 Par ch=5 c=7 v=95
3583 Par ch=5 c=7 v=78
3585 Par ch=5 c=7 v=70
3586 Par ch=5 c=7 v=62
3587 Par ch=5 c=7 v=53
3588 Par ch=5 c=7 v=45
3589 Par ch=5 c=7 v=37
3590 Par ch=5 c=7 v=29
3592 Par ch=5 c=7 v=21
3593 Par ch=5 c=7 v=12
3593 Par ch=5 c=7 v=21
3595 Par ch=5 c=7 v=29
3596 Par ch=5 c=7 v=37
3597 Par ch=5 c=7 v=45
3598 Par ch=5 c=7 v=53
3599 Par ch=5 c=7 v=62
3600 On ch=5 n=50 v=0
3600 On ch=5 n=53 v=0
3600 On ch=5 n=57 v=0
3600 On ch=5 n=50 v=40
3600 On ch=5 n=62 v=40
3600 On ch=5 n=53 v=40
3600 Par ch=5 c=7 v=70
3600 On ch=5 n=57 v=40
3602 Par ch=5 c=7 v=78
3603 Par ch=5 c=7 v=95
3603 Par ch=5 c=7 v=86
3605 Par ch=5 c=7 v=103
3606 Par ch=5 c=7 v=111
3607 Par ch=5 c=7 v=119
3608 Par ch=5 c=7 v=127
3609 Par ch=5 c=7 v=119
3610 Par ch=5 c=7 v=111
3612 Par ch=5 c=7 v=103
3613 Par ch=5 c=7 v=86
3613 Par ch=5 c=7 v=95
3615 Par ch=5 c=7 v=78
3616 Par ch=5 c=7 v=70
3617 Par ch=5 c=7 v=62
3618 Par ch=5 c=7 v=53
3619 Par ch=5 c=7 v=45
3620 Par ch=5 c=7 v=37
3622 Par ch=5 c=7 v=29
3623 Par ch=5 c=7 v=21
3624 Par ch=5 c=7 v=12
3625 Par ch=5 c=7 v=21
3626 Par ch=5 c=7 v=29
3627 Par ch=5 c=7 v=37
3628 Par ch=5 c=7 v=45
3630 Par ch=5 c=7 v=53
3630 Par ch=5 c=7 v=62
3632 Par ch=5 c=7 v=70
3633 Par ch=5 c=7 v=78
3634 Par ch=5 c=7 v=86
3635 Par ch=5 c=7 v=95
3636 Par ch=5 c=7 v=103
3637 Par ch=5 c=7 v=111
3638 Par ch=5 c=7 v=119
3640 Par ch=5 c=7 v=127
3640 Par ch=5 c=7 v=119
3642 Par ch=5 c=7 v=111
3643 Par ch=5 c=7 v=103
3644 Par ch=5 c=7 v=95
3645 Par ch=5 c=7 v=86
3646 Par ch=5 c=7 v=78
3647 Par ch=5 c=7 v=70
3648 Par ch=5 c=7 v=62
3650 Par ch=5 c=7 v=53
3650 Par ch=5 c=7 v=45
3652 Par ch=5 c=7 v=37
3653 Par ch=5 c=7 v=29
3654 Par ch=5 c=7 v=21
3655 Par ch=5 c=7 v=12
3656 Par ch=5 c=7 v=21
3657 Par ch=5 c=7 v=29
3658 Par ch=5 c=7 v=37
3660 On ch=5 n=57 v=0
3660 On ch=5 n=50 v=0
3660 On ch=5 n=62 v=0
3660 On ch=5 n=53 v=0
3660 On ch=5 n=57 v=40
3660 Par ch=5 c=7 v=45
3660 On ch=5 n=53 v=40
3660 On ch=5 n=50 v=40
3661 Par ch=5 c=7 v=53
3662 Par ch=5 c=7 v=62
3663 Par ch=5 c=7 v=70
3664 Par ch=5 c=7 v=78
3665 Par ch=5 c=7 v=86
3667 Par ch=5 c=7 v=103
3667 Par ch=5 c=7 v=95
3668 Par ch=5 c=7 v=111
3670 Par ch=5 c=7 v=119
3671 Par ch=5 c=7 v=127
3672 Par ch=5 c=7 v=119
3673 Par ch=5 c=7 v=111
3674 Par ch=5 c=7 v=103
3675 Par ch=5 c=7 v=95
3677 Par ch=5 c=7 v=78
3677 Par ch=5 c=7 v=86
3678 Par ch=5 c=7 v=70
3680 Par ch=5 c=7 v=62
3681 Par ch=5 c=7 v=53
3682 Par ch=5 c=7 v=45
3683 Par ch=5 c=7 v=37
3684 Par ch=5 c=7 v=29
3685 Par ch=5 c=7 v=21
3687 Par ch=5 c=7 v=12
3687 Par ch=5 c=7 v=20
3688 Par ch=5 c=7 v=29
3690 Par ch=5 c=7 v=37
3691 Par ch=5 c=7 v=45
3692 Par ch=5 c=7 v=53
3693 Par ch=5 c=7 v=62
3694 Par ch=5 c=7 v=70
3695 Par ch=5 c=7 v=78
3697 Par ch=5 c=7 v=86
3698 Par ch=5 c=7 v=103
3698 Par ch=5 c=7 v=95
3700 Par ch=5 c=7 v=111
3701 Par ch=5 c=7 v=119
3702 Par ch=5 c=7 v=127
3703 Par ch=5 c=7 v=119
3704 Par ch=5 c=7 v=111
3705 Par ch=5 c=7 v=103
3707 Par ch=5 c=7 v=95
3708 Par ch=5 c=7 v=86
3708 Par ch=5 c=7 v=78
3710 Par ch=5 c=7 v=70
3711 Par ch=5 c=7 v=62
3712 Par ch=5 c=7 v=53
3713 Par ch=5 c=7 v=45
3714 Par ch=5 c=7 v=37
3715 Par ch=5 c=7 v=29
3717 Par ch=5 c=7 v=21
3718 Par ch=5 c=7 v=12
3719 Par ch=5 c=7 v=20
3720 On ch=5 n=50 v=0
3720 On ch=5 n=53 v=0
3720 On ch=5 n=57 v=0
3720 On ch=5 n=50 v=40
3720 On ch=5 n=57 v=40
3720 On ch=5 n=53 v=40
3720 On ch=5 n=62 v=40
3720 Par ch=5 c=7 v=29
3721 Par ch=5 c=7 v=37
3722 Par ch=5 c=7 v=45
3723 Par ch=5 c=7 v=53
3724 Par ch=5 c=7 v=62
3725 Par ch=5 c=7 v=70
3727 Par ch=5 c=7 v=78
3728 Par ch=5 c=7 v=86
3729 Par ch=5 c=7 v=95
3730 Par ch=5 c=7 v=103
3731 Par ch=5 c=7 v=111
3732 Par ch=5 c=7 v=119
3733 Par ch=5 c=7 v=127
3735 Par ch=5 c=7 v=119
3735 Par ch=5 c=7 v=111
3737 Par ch=5 c=7 v=103
3738 Par ch=5 c=7 v=95
3739 Par ch=5 c=7 v=86
3740 Par ch=5 c=7 v=78
3741 Par ch=5 c=7 v=70
3742 Par ch=5 c=7 v=62
3743 Par ch=5 c=7 v=53
3745 Par ch=5 c=7 v=45
3745 Par ch=5 c=7 v=37
3747 Par ch=5 c=7 v=29
3748 Par ch=5 c=7 v=21
3749 Par ch=5 c=7 v=12
3750 Par ch=5 c=7 v=20
3751 Par ch=5 c=7 v=29
3752 Par ch=5 c=7 v=37
3753 Par ch=5 c=7 v=45
3755 Par ch=5 c=7 v=53
3756 Par ch=5 c=7 v=62
3757 Par ch=5 c=7 v=70
3758 Par ch=5 c=7 v=78
3759 Par ch=5 c=7 v=86
3760 Par ch=5 c=7 v=95
3761 Par ch=5 c=7 v=103
3762 Par ch=5 c=7 v=111
3763 Par ch=5 c=7 v=119
3765 Par ch=5 c=7 v=127
3766 Par ch=5 c=7 v=119
3767 Par ch=5 c=7 v=111
3768 Par ch=5 c=7 v=103
3769 Par ch=5 c=7 v=95
3770 Par ch=5 c=7 v=86
3772 Par ch=5 c=7 v=78
3772 Par ch=5 c=7 v=70
3773 Par ch=5 c=7 v=62
3775 Par ch=5 c=7 v=53
3776 Par ch=5 c=7 v=45
3777 Par ch=5 c=7 v=37
3778 Par ch=5 c=7 v=29
3779 Par ch=5 c=7 v=21
3780 On ch=5 n=62 v=0
3780 On ch=5 n=50 v=0
3780 On ch=5 n=57 v=0
3780 On ch=5 n=53 v=0
3780 On ch=5 n=53 v=40
3780 On ch=5 n=57 v=40
3780 On ch=5 n=50 v=40
3780 Par ch=5 c=7 v=12
3782 Par ch=5 c=7 v=20
3782 Par ch=5 c=7 v=29
3783 Par ch=5 c=7 v=37
3785 Par ch=5 c=7 v=45
3786 Par ch=5 c=7 v=53
3787 Par ch=5 c=7 v=62
3788 Par ch=5 c=7 v=70
3789 Par ch=5 c=7 v=78
3790 Par ch=5 c=7 v=86
3792 Par ch=5 c=7 v=95
3793 Par ch=5 c=7 v=111
3793 Par ch=5 c=7 v=103
3795 Par ch=5 c=7 v=119
3796 Par ch=5 c=7 v=127
3797 Par ch=5 c=7 v=119
3798 Par ch=5 c=7 v=111
3799 Par ch=5 c=7 v=103
3800 Par ch=5 c=7 v=95
3802 Par ch=5 c=7 v=86
3803 Par ch=5 c=7 v=70
3803 Par ch=5 c=7 v=78
3805 Par ch=5 c=7 v=62
3806 Par ch=5 c=7 v=54
3807 Par ch=5 c=7 v=45
3808 Par ch=5 c=7 v=37
3809 Par ch=5 c=7 v=29
3810 Par ch=5 c=7 v=21
3812 Par ch=5 c=7 v=12
3813 Par ch=5 c=7 v=20
3814 Par ch=5 c=7 v=29
3815 Par ch=5 c=7 v=37
3816 Par ch=5 c=7 v=45
3817 Par ch=5 c=7 v=53
3818 Par ch=5 c=7 v=62
3819 Par ch=5 c=7 v=70
3820 Par ch=5 c=7 v=78
3822 Par ch=5 c=7 v=86
3823 Par ch=5 c=7 v=95
3824 Par ch=5 c=7 v=103
3825 Par ch=5 c=7 v=111
3826 Par ch=5 c=7 v=119
3827 Par ch=5 c=7 v=127
3828 Par ch=5 c=7 v=119
3830 Par ch=5 c=7 v=103
3830 Par ch=5 c=7 v=111
3832 Par ch=5 c=7 v=95
3833 Par ch=5 c=7 v=86
3834 Par ch=5 c=7 v=78
3835 Par ch=5 c=7 v=70
3836 Par ch=5 c=7 v=62
3837 Par ch=5 c=7 v=54
3838 Par ch=5 c=7 v=45
3840 On ch=5 n=50 v=0
3840 On ch=5 n=57 v=0
3840 On ch=5 n=53 v=0
3840 On ch=5 n=46 v=40
3840 On ch=5 n=53 v=40
3840 Par ch=5 c=7 v=78
3840 On ch=5 n=58 v=40
3840 Par ch=5 c=7 v=86
3840 On ch=5 n=62 v=40
3840 Par ch=5 c=7 v=95
3842 Par ch=5 c=7 v=103
3843 Par ch=5 c=7 v=111
3844 Par ch=5 c=7 v=119
3845 Par ch=5 c=7 v=127
3846 Par ch=5 c=7 v=119
3847 Par ch=5 c=7 v=111
3848 Par ch=5 c=7 v=103
3850 Par ch=5 c=7 v=95
3851 Par ch=5 c=7 v=86
3852 Par ch=5 c=7 v=78
3853 Par ch=5 c=7 v=70
3854 Par ch=5 c=7 v=62
3855 Par ch=5 c=7 v=53
3856 Par ch=5 c=7 v=45
3857 Par ch=5 c=7 v=37
3858 Par ch=5 c=7 v=29
3860 Par ch=5 c=7 v=21
3861 Par ch=5 c=7 v=12
3862 Par ch=5 c=7 v=21
3863 Par ch=5 c=7 v=29
3864 Par ch=5 c=7 v=37
3865 Par ch=5 c=7 v=45
3867 Par ch=5 c=7 v=62
3867 Par ch=5 c=7 v=53
3868 Par ch=5 c=7 v=70
3870 Par ch=5 c=7 v=78
3871 Par ch=5 c=7 v=86
3872 Par ch=5 c=7 v=95
3873 Par ch=5 c=7 v=103
3874 Par ch=5 c=7 v=111
3875 Par ch=5 c=7 v=119
3877 Par ch=5 c=7 v=119
3877 Par ch=5 c=7 v=127
3878 Par ch=5 c=7 v=111
3880 Par ch=5 c=7 v=103
3881 Par ch=5 c=7 v=95
3882 Par ch=5 c=7 v=86
3883 Par ch=5 c=7 v=78
3884 Par ch=5 c=7 v=70
3885 Par ch=5 c=7 v=62
3887 Par ch=5 c=7 v=53
3888 Par ch=5 c=7 v=45
3888 Par ch=5 c=7 v=37
3890 Par ch=5 c=7 v=29
3891 Par ch=5 c=7 v=21
3892 Par ch=5 c=7 v=12
3893 Par ch=5 c=7 v=21
3894 Par ch=5 c=7 v=29
3895 Par ch=5 c=7 v=37
3897 Par ch=5 c=7 v=45
3898 Par ch=5 c=7 v=53
3898 Par ch=5 c=7 v=62
3900 On ch=5 n=62 v=0
3900 On ch=5 n=46 v=0
3900 On ch=5 n=53 v=0
3900 On ch=5 n=58 v=0
3900 On ch=5 n=46 v=40
3900 On ch=5 n=58 v=40
3900 On ch=5 n=53 v=40
3900 Par ch=5 c=7 v=70
3901 Par ch=5 c=7 v=78
3902 Par ch=5 c=7 v=86
3903 Par ch=5 c=7 v=95
3904 Par ch=5 c=7 v=103
3905 Par ch=5 c=7 v=111
3907 Par ch=5 c=7 v=119
3908 Par ch=5 c=7 v=127
3909 Par ch=5 c=7 v=119
3910 Par ch=5 c=7 v=111
3911 Par ch=5 c=7 v=103
3912 Par ch=5 c=7 v=95
3913 Par ch=5 c=7 v=86
3914 Par ch=5 c=7 v=78
3915 Par ch=5 c=7 v=70
3917 Par ch=5 c=7 v=62
3918 Par ch=5 c=7 v=53
3919 Par ch=5 c=7 v=45
3920 Par ch=5 c=7 v=37
3921 Par ch=5 c=7 v=29
3922 Par ch=5 c=7 v=21
3923 Par ch=5 c=7 v=12
3925 Par ch=5 c=7 v=29
3925 Par ch=5 c=7 v=21
3927 Par ch=5 c=7 v=37
3928 Par ch=5 c=7 v=45
3929 Par ch=5 c=7 v=53
3930 Par ch=5 c=7 v=62
3931 Par ch=5 c=7 v=70
3932 Par ch=5 c=7 v=78
3933 Par ch=5 c=7 v=86
3935 Par ch=5 c=7 v=103
3935 Par ch=5 c=7 v=95
3937 Par ch=5 c=7 v=111
3938 Par ch=5 c=7 v=119
3939 Par ch=5 c=7 v=127
3940 Par ch=5 c=7 v=119
3941 Par ch=5 c=7 v=111
3942 Par ch=5 c=7 v=103
3943 Par ch=5 c=7 v=95
3945 Par ch=5 c=7 v=78
3945 Par ch=5 c=7 v=86
3947 Par ch=5 c=7 v=70
3948 Par ch=5 c=7 v=62
3949 Par ch=5 c=7 v=53
3950 Par ch=5 c=7 v=45
3951 Par ch=5 c=7 v=37
3952 Par ch=5 c=7 v=29
3953 Par ch=5 c=7 v=21
3955 Par ch=5 c=7 v=12
3956 Par ch=5 c=7 v=21
3957 Par ch=5 c=7 v=29
3958 Par ch=5 c=7 v=37
3959 Par ch=5 c=7 v=45
3960 On ch=5 n=53 v=0
3960 On ch=5 n=58 v=0
3960 On ch=5 n=46 v=0
3960 On ch=5 n=58 v=40
3960 On ch=5 n=62 v=40
3960 On ch=5 n=46 v=40
3960 On ch=5 n=53 v=40
3960 Par ch=5 c=7 v=53
3962 Par ch=5 c=7 v=70
3962 Par ch=5 c=7 v=62
3963 Par ch=5 c=7 v=78
3965 Par ch=5 c=7 v=86
3966 Par ch=5 c=7 v=95
3967 Par ch=5 c=7 v=103
3968 Par ch=5 c=7 v=111
3969 Par ch=5 c=7 v=119
3970 Par ch=5 c=7 v=127
3972 Par ch=5 c=7 v=119
3972 Par ch=5 c=7 v=111
3973 Par ch=5 c=7 v=103
3975 Par ch=5 c=7 v=95
3976 Par ch=5 c=7 v=86
3977 Par ch=5 c=7 v=78
3978 Par ch=5 c=7 v=70
3979 Par ch=5 c=7 v=62
3980 Par ch=5 c=7 v=53
3982 Par ch=5 c=7 v=45
3983 Par ch=5 c=7 v=29
3983 Par ch=5 c=7 v=37
3985 Par ch=5 c=7 v=21
3986 Par ch=5 c=7 v=12
3987 Par ch=5 c=7 v=20
3988 Par ch=5 c=7 v=29
3989 Par ch=5 c=7 v=37
3990 Par ch=5 c=7 v=45
3992 Par ch=5 c=7 v=53
3993 Par ch=5 c=7 v=70
3993 Par ch=5 c=7 v=62
3995 Par ch=5 c=7 v=78
3996 Par ch=5 c=7 v=86
3997 Par ch=5 c=7 v=95
3998 Par ch=5 c=7 v=103
3999 Par ch=5 c=7 v=111
4000 Par ch=5 c=7 v=119
4002 Par ch=5 c=7 v=127
4003 Par ch=5 c=7 v=119
4003 Par ch=5 c=7 v=111
4005 Par ch=5 c=7 v=103
4006 Par ch=5 c=7 v=95
4007 Par ch=5 c=7 v=86
4008 Par ch=5 c=7 v=78
4009 Par ch=5 c=7 v=70
4010 Par ch=5 c=7 v=62
4012 Par ch=5 c=7 v=53
4013 Par ch=5 c=7 v=45
4014 Par ch=5 c=7 v=37
4015 Par ch=5 c=7 v=29
4016 Par ch=5 c=7 v=21
4017 Par ch=5 c=7 v=12
4018 Par ch=5 c=7 v=20
4020 On ch=5 n=53 v=0
4020 On ch=5 n=58 v=0
4020 On ch=5 n=62 v=0
4020 On ch=5 n=46 v=0
4020 Par ch=5 c=7 v=78
4020 On ch=5 n=53 v=40
4020 On ch=5 n=58 v=40
4020 On ch=5 n=46 v=40
4020 Par ch=5 c=7 v=86
4020 Par ch=5 c=7 v=95
4022 Par ch=5 c=7 v=103
4023 Par ch=5 c=7 v=111
4024 Par ch=5 c=7 v=119
4025 Par ch=5 c=7 v=127
4026 Par ch=5 c=7 v=119
4027 Par ch=5 c=7 v=111
4028 Par ch=5 c=7 v=103
4030 Par ch=5 c=7 v=95
4030 Par ch=5 c=7 v=86
4032 Par ch=5 c=7 v=78
4033 Par ch=5 c=7 v=70
4034 Par ch=5 c=7 v=62
4035 Par ch=5 c=7 v=53
4036 Par ch=5 c=7 v=45
4037 Par ch=5 c=7 v=37
4038 Par ch=5 c=7 v=29
4040 Par ch=5 c=7 v=12
4040 Par ch=5 c=7 v=21
4042 Par ch=5 c=7 v=21
4043 Par ch=5 c=7 v=29
4044 Par ch=5 c=7 v=37
4045 Par ch=5 c=7 v=45
4046 Par ch=5 c=7 v=53
4047 Par ch=5 c=7 v=62
4048 Par ch=5 c=7 v=70
4050 Par ch=5 c=7 v=78
4051 Par ch=5 c=7 v=86
4052 Par ch=5 c=7 v=95
4053 Par ch=5 c=7 v=103
4054 Par ch=5 c=7 v=111
4055 Par ch=5 c=7 v=119
4057 Par ch=5 c=7 v=119
4057 Par ch=5 c=7 v=127
4058 Par ch=5 c=7 v=111
4060 Par ch=5 c=7 v=103
4061 Par ch=5 c=7 v=95
4062 Par ch=5 c=7 v=86
4063 Par ch=5 c=7 v=78
4064 Par ch=5 c=7 v=70
4065 Par ch=5 c=7 v=62
4067 Par ch=5 c=7 v=53
4067 Par ch=5 c=7 v=45
4068 Par ch=5 c=7 v=37
4070 Par ch=5 c=7 v=29
4071 Par ch=5 c=7 v=21
4072 Par ch=5 c=7 v=12
4073 Par ch=5 c=7 v=21
4074 Par ch=5 c=7 v=29
4075 Par ch=5 c=7 v=37
4077 Par ch=5 c=7 v=53
4077 Par ch=5 c=7 v=45
4078 Par ch=5 c=7 v=62
4080 On ch=5 n=46 v=0
4080 On ch=5 n=58 v=0
4080 On ch=5 n=53 v=0
4080 On ch=5 n=46 v=40
4080 Par ch=5 c=7 v=70
4080 On ch=5 n=58 v=40
4080 On ch=5 n=53 v=40
4080 On ch=5 n=62 v=40
4081 Par ch=5 c=7 v=78
4082 Par ch=5 c=7 v=86
4083 Par ch=5 c=7 v=95
4084 Par ch=5 c=7 v=103
4085 Par ch=5 c=7 v=111
4087 Par ch=5 c=7 v=119
4088 Par ch=5 c=7 v=119
4088 Par ch=5 c=7 v=127
4090 Par ch=5 c=7 v=111
4091 Par ch=5 c=7 v=103
4092 Par ch=5 c=7 v=95
4093 Par ch=5 c=7 v=86
4094 Par ch=5 c=7 v=78
4095 Par ch=5 c=7 v=70
4097 Par ch=5 c=7 v=62
4098 Par ch=5 c=7 v=45
4098 Par ch=5 c=7 v=53
4100 Par ch=5 c=7 v=37
4101 Par ch=5 c=7 v=29
4102 Par ch=5 c=7 v=21
4103 Par ch=5 c=7 v=12
4104 Par ch=5 c=7 v=21
4105 Par ch=5 c=7 v=29
4107 Par ch=5 c=7 v=37
4108 Par ch=5 c=7 v=45
4109 Par ch=5 c=7 v=53
4110 Par ch=5 c=7 v=62
4111 Par ch=5 c=7 v=70
4112 Par ch=5 c=7 v=78
4113 Par ch=5 c=7 v=86
4114 Par ch=5 c=7 v=95
4115 Par ch=5 c=7 v=103
4117 Par ch=5 c=7 v=111
4118 Par ch=5 c=7 v=119
4119 Par ch=5 c=7 v=127
4120 Par ch=5 c=7 v=119
4121 Par ch=5 c=7 v=111
4122 Par ch=5 c=7 v=103
4123 Par ch=5 c=7 v=95
4125 Par ch=5 c=7 v=78
4125 Par ch=5 c=7 v=86
4127 Par ch=5 c=7 v=70
4128 Par ch=5 c=7 v=62
4129 Par ch=5 c=7 v=53
4130 Par ch=5 c=7 v=45
4131 Par ch=5 c=7 v=37
4132 Par ch=5 c=7 v=29
4133 Par ch=5 c=7 v=21
4135 Par ch=5 c=7 v=21
4135 Par ch=5 c=7 v=12
4137 Par ch=5 c=7 v=29
4138 Par ch=5 c=7 v=37
4139 Par ch=5 c=7 v=45
4140 On ch=5 n=62 v=0
4140 On ch=5 n=46 v=0
4140 On ch=5 n=58 v=0
4140 On ch=5 n=53 v=0
4140 On ch=5 n=53 v=40
4140 On ch=5 n=46 v=40
4140 Par ch=5 c=7 v=78
4140 On ch=5 n=58 v=40
4140 Par ch=5 c=7 v=86
4141 Par ch=5 c=7 v=95
4142 Par ch=5 c=7 v=103
4143 Par ch=5 c=7 v=111
4145 Par ch=5 c=7 v=119
4146 Par ch=5 c=7 v=127
4147 Par ch=5 c=7 v=119
4148 Par ch=5 c=7 v=111
4149 Par ch=5 c=7 v=103
4150 Par ch=5 c=7 v=95
4151 Par ch=5 c=7 v=86
4152 Par ch=5 c=7 v=78
4153 Par ch=5 c=7 v=70
4155 Par ch=5 c=7 v=62
4156 Par ch=5 c=7 v=53
4157 Par ch=5 c=7 v=45
4158 Par ch=5 c=7 v=37
4159 Par ch=5 c=7 v=29
4160 Par ch=5 c=7 v=21
4162 Par ch=5 c=7 v=12
4162 Par ch=5 c=7 v=21
4163 Par ch=5 c=7 v=29
4165 Par ch=5 c=7 v=37
4166 Par ch=5 c=7 v=45
4167 Par ch=5 c=7 v=53
4168 Par ch=5 c=7 v=62
4169 Par ch=5 c=7 v=70
4170 Par ch=5 c=7 v=78
4172 Par ch=5 c=7 v=86
4172 Par ch=5 c=7 v=95
4173 Par ch=5 c=7 v=103
4175 Par ch=5 c=7 v=111
4176 Par ch=5 c=7 v=119
4177 Par ch=5 c=7 v=127
4178 Par ch=5 c=7 v=119
4179 Par ch=5 c=7 v=111
4180 Par ch=5 c=7 v=103
4182 Par ch=5 c=7 v=95
4183 Par ch=5 c=7 v=78
4183 Par ch=5 c=7 v=86
4185 Par ch=5 c=7 v=70
4186 Par ch=5 c=7 v=62
4187 Par ch=5 c=7 v=53
4188 Par ch=5 c=7 v=45
4189 Par ch=5 c=7 v=37
4190 Par ch=5 c=7 v=29
4192 Par ch=5 c=7 v=21
4193 Par ch=5 c=7 v=12
4193 Par ch=5 c=7 v=21
4195 Par ch=5 c=7 v=29
4196 Par ch=5 c=7 v=37
4197 Par ch=5 c=7 v=45
4198 Par ch=5 c=7 v=53
4199 Par ch=5 c=7 v=86
4199 Par ch=5 c=7 v=78
4200 On ch=5 n=58 v=0
4200 On ch=5 n=46 v=0
4200 On ch=5 n=53 v=0
4200 On ch=5 n=46 v=40
4200 On ch=5 n=53 v=40
4200 On ch=5 n=62 v=40
4200 Par ch=5 c=7 v=95
4200 On ch=5 n=58 v=40
4201 Par ch=5 c=7 v=103
4203 Par ch=5 c=7 v=111
4204 Par ch=5 c=7 v=119
4205 Par ch=5 c=7 v=127
4206 Par ch=5 c=7 v=119
4207 Par ch=5 c=7 v=111
4208 Par ch=5 c=7 v=103
4209 Par ch=5 c=7 v=95
4210 Par ch=5 c=7 v=86
4212 Par ch=5 c=7 v=78
4213 Par ch=5 c=7 v=70
4214 Par ch=5 c=7 v=62
4215 Par ch=5 c=7 v=53
4216 Par ch=5 c=7 v=45
4217 Par ch=5 c=7 v=37
4218 Par ch=5 c=7 v=29
4220 Par ch=5 c=7 v=21
4220 Par ch=5 c=7 v=12
4222 Par ch=5 c=7 v=21
4223 Par ch=5 c=7 v=29
4224 Par ch=5 c=7 v=37
4225 Par ch=5 c=7 v=45
4226 Par ch=5 c=7 v=53
4227 Par ch=5 c=7 v=62
4228 Par ch=5 c=7 v=70
4230 Par ch=5 c=7 v=86
4230 Par ch=5 c=7 v=78
4231 Par ch=5 c=7 v=95
4233 Par ch=5 c=7 v=103
4234 Par ch=5 c=7 v=111
4235 Par ch=5 c=7 v=119
4236 Par ch=5 c=7 v=127
4237 Par ch=5 c=7 v=119
4238 Par ch=5 c=7 v=111
4240 Par ch=5 c=7 v=103
4241 Par ch=5 c=7 v=95
4242 Par ch=5 c=7 v=86
4243 Par ch=5 c=7 v=78
4244 Par ch=5 c=7 v=70
4245 Par ch=5 c=7 v=62
4246 Par ch=5 c=7 v=53
4247 Par ch=5 c=7 v=45
4248 Par ch=5 c=7 v=37
4250 Par ch=5 c=7 v=29
4251 Par ch=5 c=7 v=21
4252 Par ch=5 c=7 v=12
4253 Par ch=5 c=7 v=21
4254 Par ch=5 c=7 v=29
4255 Par ch=5 c=7 v=37
4257 Par ch=5 c=7 v=53
4257 Par ch=5 c=7 v=45
4258 Par ch=5 c=7 v=62
4260 On ch=5 n=58 v=0
4260 On ch=5 n=46 v=0
4260 On ch=5 n=53 v=0
4260 On ch=5 n=62 v=0
4260 On ch=5 n=46 v=40
4260 On ch=5 n=53 v=40
4260 On ch=5 n=58 v=40
4260 Par ch=5 c=7 v=70
4261 Par ch=5 c=7 v=86
4261 Par ch=5 c=7 v=78
4263 Par ch=5 c=7 v=95
4264 Par ch=5 c=7 v=103
4265 Par ch=5 c=7 v=111
4267 Par ch=5 c=7 v=127
4267 Par ch=5 c=7 v=119
4268 Par ch=5 c=7 v=119
4270 Par ch=5 c=7 v=111
4271 Par ch=5 c=7 v=103
4272 Par ch=5 c=7 v=95
4273 Par ch=5 c=7 v=86
4274 Par ch=5 c=7 v=78
4275 Par ch=5 c=7 v=70
4276 Par ch=5 c=7 v=62
4278 Par ch=5 c=7 v=45
4278 Par ch=5 c=7 v=53
4280 Par ch=5 c=7 v=37
4281 Par ch=5 c=7 v=29
4282 Par ch=5 c=7 v=21
4283 Par ch=5 c=7 v=12
4284 Par ch=5 c=7 v=21
4285 Par ch=5 c=7 v=29
4287 Par ch=5 c=7 v=37
4288 Par ch=5 c=7 v=45
4288 Par ch=5 c=7 v=53
4290 Par ch=5 c=7 v=62
4291 Par ch=5 c=7 v=70
4292 Par ch=5 c=7 v=78
4293 Par ch=5 c=7 v=86
4294 Par ch=5 c=7 v=95
4295 Par ch=5 c=7 v=103
4297 Par ch=5 c=7 v=111
4298 Par ch=5 c=7 v=119
4298 Par ch=5 c=7 v=127
4300 Par ch=5 c=7 v=119
4301 Par ch=5 c=7 v=111
4302 Par ch=5 c=7 v=103
4303 Par ch=5 c=7 v=95
4304 Par ch=5 c=7 v=86
4305 Par ch=5 c=7 v=78
4306 Par ch=5 c=7 v=70
4308 Par ch=5 c=7 v=62
4309 Par ch=5 c=7 v=53
4310 Par ch=5 c=7 v=45
4311 Par ch=5 c=7 v=37
4312 Par ch=5 c=7 v=29
4313 Par ch=5 c=7 v=21
4315 Par ch=5 c=7 v=21
4315 Par ch=5 c=7 v=12
4317 Par ch=5 c=7 v=29
4318 Par ch=5 c=7 v=37
4319 Par ch=5 c=7 v=45
4320 On ch=5 n=58 v=0
4320 On ch=5 n=53 v=0
4320 On ch=5 n=46 v=0
4320 On ch=5 n=53 v=40
4320 On ch=5 n=65 v=40
4320 On ch=5 n=60 v=40
4320 On ch=5 n=57 v=40
4380 On ch=5 n=57 v=0
4380 On ch=5 n=53 v=0
4380 On ch=5 n=65 v=0
4380 On ch=5 n=60 v=0
4380 On ch=5 n=53 v=40
4380 Par ch=5 c=7 v=70
4380 On ch=5 n=57 v=40
4380 Par ch=5 c=7 v=78
4380 On ch=5 n=60 v=40
4382 Par ch=5 c=7 v=86
4383 Par ch=5 c=7 v=95
4384 Par ch=5 c=7 v=103
4385 Par ch=5 c=7 v=111
4386 Par ch=5 c=7 v=119
4387 Par ch=5 c=7 v=127
4388 Par ch=5 c=7 v=119
4390 Par ch=5 c=7 v=111
4390 Par ch=5 c=7 v=103
4392 Par ch=5 c=7 v=95
4393 Par ch=5 c=7 v=86
4394 Par ch=5 c=7 v=78
4395 Par ch=5 c=7 v=70
4396 Par ch=5 c=7 v=62
4397 Par ch=5 c=7 v=53
4398 Par ch=5 c=7 v=45
4400 Par ch=5 c=7 v=37
4401 Par ch=5 c=7 v=29
4402 Par ch=5 c=7 v=21
4403 Par ch=5 c=7 v=12
4404 Par ch=5 c=7 v=21
4405 Par ch=5 c=7 v=29
4406 Par ch=5 c=7 v=37
4407 Par ch=5 c=7 v=45
4408 Par ch=5 c=7 v=53
4410 Par ch=5 c=7 v=62
4411 Par ch=5 c=7 v=70
4412 Par ch=5 c=7 v=78
4413 Par ch=5 c=7 v=86
4414 Par ch=5 c=7 v=95
4415 Par ch=5 c=7 v=103
4417 Par ch=5 c=7 v=119
4417 Par ch=5 c=7 v=111
4418 Par ch=5 c=7 v=127
4420 Par ch=5 c=7 v=119
4421 Par ch=5 c=7 v=111
4422 Par ch=5 c=7 v=103
4423 Par ch=5 c=7 v=95
4424 Par ch=5 c=7 v=86
4425 Par ch=5 c=7 v=78
4427 Par ch=5 c=7 v=62
4427 Par ch=5 c=7 v=70
4428 Par ch=5 c=7 v=53
4430 Par ch=5 c=7 v=45
4431 Par ch=5 c=7 v=37
4432 Par ch=5 c=7 v=29
4433 Par ch=5 c=7 v=21
4434 Par ch=5 c=7 v=12
4435 Par ch=5 c=7 v=21
4437 Par ch=5 c=7 v=29
4438 Par ch=5 c=7 v=37
4438 Par ch=5 c=7 v=45
4440 On ch=5 n=60 v=0
4440 On ch=5 n=57 v=0
4440 On ch=5 n=53 v=0
4440 On ch=5 n=65 v=40
4440 Par ch=5 c=7 v=53
4440 On ch=5 n=60 v=40
4440 On ch=5 n=57 v=40
4440 On ch=5 n=53 v=40
4441 Par ch=5 c=7 v=62
4442 Par ch=5 c=7 v=70
4443 Par ch=5 c=7 v=78
4444 Par ch=5 c=7 v=86
4445 Par ch=5 c=7 v=95
4447 Par ch=5 c=7 v=103
4448 Par ch=5 c=7 v=119
4448 Par ch=5 c=7 v=111
4450 Par ch=5 c=7 v=127
4451 Par ch=5 c=7 v=119
4452 Par ch=5 c=7 v=111
4453 Par ch=5 c=7 v=103
4454 Par ch=5 c=7 v=95
4455 Par ch=5 c=7 v=86
4457 Par ch=5 c=7 v=78
4458 Par ch=5 c=7 v=70
4458 Par ch=5 c=7 v=62
4460 Par ch=5 c=7 v=53
4461 Par ch=5 c=7 v=45
4462 Par ch=5 c=7 v=37
4463 Par ch=5 c=7 v=29
4464 Par ch=5 c=7 v=21
4465 Par ch=5 c=7 v=12
4467 Par ch=5 c=7 v=20
4468 Par ch=5 c=7 v=29
4469 Par ch=5 c=7 v=37
4470 Par ch=5 c=7 v=45
4471 Par ch=5 c=7 v=53
4472 Par ch=5 c=7 v=62
4473 Par ch=5 c=7 v=70
4475 Par ch=5 c=7 v=78
4475 Par ch=5 c=7 v=86
4477 Par ch=5 c=7 v=95
4478 Par ch=5 c=7 v=103
4479 Par ch=5 c=7 v=111
4480 Par ch=5 c=7 v=119
4481 Par ch=5 c=7 v=127
4482 Par ch=5 c=7 v=119
4483 Par ch=5 c=7 v=111
4485 Par ch=5 c=7 v=95
4485 Par ch=5 c=7 v=103
4487 Par ch=5 c=7 v=86
4488 Par ch=5 c=7 v=78
4489 Par ch=5 c=7 v=70
4490 Par ch=5 c=7 v=62
4491 Par ch=5 c=7 v=53
4492 Par ch=5 c=7 v=45
4493 Par ch=5 c=7 v=37
4495 Par ch=5 c=7 v=29
4495 Par ch=5 c=7 v=21
4497 Par ch=5 c=7 v=12
4498 Par ch=5 c=7 v=20
4499 Par ch=5 c=7 v=29
4500 On ch=5 n=53 v=0
4500 On ch=5 n=65 v=0
4500 On ch=5 n=60 v=0
4500 On ch=5 n=57 v=0
4500 Par ch=5 c=7 v=86
4500 Par ch=5 c=7 v=78
4500 On ch=5 n=60 v=40
4500 On ch=5 n=57 v=40
4500 On ch=5 n=53 v=40
4501 Par ch=5 c=7 v=95
4502 Par ch=5 c=7 v=103
4503 Par ch=5 c=7 v=111
4505 Par ch=5 c=7 v=119
4506 Par ch=5 c=7 v=127
4507 Par ch=5 c=7 v=119
4508 Par ch=5 c=7 v=111
4509 Par ch=5 c=7 v=103
4510 Par ch=5 c=7 v=95
4512 Par ch=5 c=7 v=78
4512 Par ch=5 c=7 v=86
4513 Par ch=5 c=7 v=70
4515 Par ch=5 c=7 v=62
4516 Par ch=5 c=7 v=53
4517 Par ch=5 c=7 v=45
4518 Par ch=5 c=7 v=37
4519 Par ch=5 c=7 v=29
4520 Par ch=5 c=7 v=21
4522 Par ch=5 c=7 v=12
4522 Par ch=5 c=7 v=21
4523 Par ch=5 c=7 v=29
4525 Par ch=5 c=7 v=37
4526 Par ch=5 c=7 v=45
4527 Par ch=5 c=7 v=53
4528 Par ch=5 c=7 v=62
4529 Par ch=5 c=7 v=70
4530 Par ch=5 c=7 v=78
4532 Par ch=5 c=7 v=95
4532 Par ch=5 c=7 v=86
4533 Par ch=5 c=7 v=103
4535 Par ch=5 c=7 v=111
4536 Par ch=5 c=7 v=119
4537 Par ch=5 c=7 v=127
4538 Par ch=5 c=7 v=119
4539 Par ch=5 c=7 v=111
4540 Par ch=5 c=7 v=103
4542 Par ch=5 c=7 v=95
4543 Par ch=5 c=7 v=86
4543 Par ch=5 c=7 v=78
4545 Par ch=5 c=7 v=70
4546 Par ch=5 c=7 v=62
4547 Par ch=5 c=7 v=53
4548 Par ch=5 c=7 v=45
4549 Par ch=5 c=7 v=37
4550 Par ch=5 c=7 v=29
4552 Par ch=5 c=7 v=21
4553 Par ch=5 c=7 v=21
4553 Par ch=5 c=7 v=12
4555 Par ch=5 c=7 v=29
4556 Par ch=5 c=7 v=37
4557 Par ch=5 c=7 v=45
4558 Par ch=5 c=7 v=53
4559 Par ch=5 c=7 v=62
4560 On ch=5 n=53 v=0
4560 On ch=5 n=57 v=0
4560 On ch=5 n=60 v=0
4560 Par ch=5 c=7 v=70
4560 On ch=5 n=60 v=40
4560 On ch=5 n=57 v=40
4560 On ch=5 n=53 v=40
4560 On ch=5 n=65 v=40
4562 Par ch=5 c=7 v=78
4563 Par ch=5 c=7 v=86
4564 Par ch=5 c=7 v=95
4565 Par ch=5 c=7 v=103
4566 Par ch=5 c=7 v=111
4567 Par ch=5 c=7 v=119
4568 Par ch=5 c=7 v=127
4569 Par ch=5 c=7 v=119
4570 Par ch=5 c=7 v=111
4571 Par ch=5 c=7 v=103
4573 Par ch=5 c=7 v=95
4574 Par ch=5 c=7 v=86
4575 Par ch=5 c=7 v=78
4576 Par ch=5 c=7 v=70
4577 Par ch=5 c=7 v=62
4578 Par ch=5 c=7 v=53
4580 Par ch=5 c=7 v=45
4580 Par ch=5 c=7 v=37
4582 Par ch=5 c=7 v=29
4583 Par ch=5 c=7 v=21
4584 Par ch=5 c=7 v=12
4585 Par ch=5 c=7 v=21
4586 Par ch=5 c=7 v=29
4587 Par ch=5 c=7 v=37
4588 Par ch=5 c=7 v=45
4590 Par ch=5 c=7 v=62
4590 Par ch=5 c=7 v=53
4592 Par ch=5 c=7 v=70
4593 Par ch=5 c=7 v=78
4594 Par ch=5 c=7 v=86
4595 Par ch=5 c=7 v=95
4596 Par ch=5 c=7 v=103
4597 Par ch=5 c=7 v=111
4598 Par ch=5 c=7 v=119
4600 Par ch=5 c=7 v=127
4601 Par ch=5 c=7 v=119
4602 Par ch=5 c=7 v=111
4603 Par ch=5 c=7 v=103
4604 Par ch=5 c=7 v=95
4605 Par ch=5 c=7 v=86
4606 Par ch=5 c=7 v=78
4607 Par ch=5 c=7 v=70
4608 Par ch=5 c=7 v=62
4610 Par ch=5 c=7 v=53
4611 Par ch=5 c=7 v=45
4612 Par ch=5 c=7 v=37
4613 Par ch=5 c=7 v=29
4614 Par ch=5 c=7 v=21
4615 Par ch=5 c=7 v=12
4617 Par ch=5 c=7 v=21
4617 Par ch=5 c=7 v=29
4618 Par ch=5 c=7 v=37
4620 On ch=5 n=65 v=0
4620 On ch=5 n=60 v=0
4620 On ch=5 n=57 v=0
4620 On ch=5 n=53 v=0
4620 On ch=5 n=53 v=40
4620 On ch=5 n=57 v=40
4620 Par ch=5 c=7 v=45
4620 On ch=5 n=60 v=40
4621 Par ch=5 c=7 v=53
4622 Par ch=5 c=7 v=62
4623 Par ch=5 c=7 v=70
4624 Par ch=5 c=7 v=78
4625 Par ch=5 c=7 v=86
4627 Par ch=5 c=7 v=103
4627 Par ch=5 c=7 v=95
4628 Par ch=5 c=7 v=111
4630 Par ch=5 c=7 v=119
4631 Par ch=5 c=7 v=127
4632 Par ch=5 c=7 v=119
4633 Par ch=5 c=7 v=111
4634 Par ch=5 c=7 v=103
4635 Par ch=5 c=7 v=95
4637 Par ch=5 c=7 v=86
4638 Par ch=5 c=7 v=78
4638 Par ch=5 c=7 v=70
4640 Par ch=5 c=7 v=62
4641 Par ch=5 c=7 v=53
4642 Par ch=5 c=7 v=45
4643 Par ch=5 c=7 v=37
4644 Par ch=5 c=7 v=29
4645 Par ch=5 c=7 v=21
4647 Par ch=5 c=7 v=12
4648 Par ch=5 c=7 v=20
4648 Par ch=5 c=7 v=29
4650 Par ch=5 c=7 v=37
4651 Par ch=5 c=7 v=45
4652 Par ch=5 c=7 v=53
4653 Par ch=5 c=7 v=62
4654 Par ch=5 c=7 v=70
4655 Par ch=5 c=7 v=78
4657 Par ch=5 c=7 v=86
4658 Par ch=5 c=7 v=95
4659 Par ch=5 c=7 v=103
4660 Par ch=5 c=7 v=111
4661 Par ch=5 c=7 v=119
4662 Par ch=5 c=7 v=127
4663 Par ch=5 c=7 v=119
4664 Par ch=5 c=7 v=111
4665 Par ch=5 c=7 v=103
4667 Par ch=5 c=7 v=95
4668 Par ch=5 c=7 v=86
4669 Par ch=5 c=7 v=78
4670 Par ch=5 c=7 v=70
4671 Par ch=5 c=7 v=62
4672 Par ch=5 c=7 v=53
4673 Par ch=5 c=7 v=45
4675 Par ch=5 c=7 v=29
4675 Par ch=5 c=7 v=37
4677 Par ch=5 c=7 v=21
4678 Par ch=5 c=7 v=12
4679 Par ch=5 c=7 v=20
4680 On ch=5 n=60 v=0
4680 On ch=5 n=57 v=0
4680 On ch=5 n=53 v=0
4680 On ch=5 n=53 v=40
4680 On ch=5 n=60 v=40
4680 On ch=5 n=57 v=40
4680 Par ch=5 c=7 v=29
4680 On ch=5 n=65 v=40
4681 Par ch=5 c=7 v=37
4682 Par ch=5 c=7 v=45
4683 Par ch=5 c=7 v=53
4685 Par ch=5 c=7 v=70
4685 Par ch=5 c=7 v=62
4687 Par ch=5 c=7 v=78
4688 Par ch=5 c=7 v=86
4689 Par ch=5 c=7 v=95
4690 Par ch=5 c=7 v=103
4691 Par ch=5 c=7 v=111
4692 Par ch=5 c=7 v=119
4693 Par ch=5 c=7 v=127
4695 Par ch=5 c=7 v=119
4696 Par ch=5 c=7 v=111
4697 Par ch=5 c=7 v=103
4698 Par ch=5 c=7 v=95
4699 Par ch=5 c=7 v=86
4700 Par ch=5 c=7 v=78
4701 Par ch=5 c=7 v=70
4702 Par ch=5 c=7 v=62
4703 Par ch=5 c=7 v=53
4705 Par ch=5 c=7 v=45
4706 Par ch=5 c=7 v=37
4707 Par ch=5 c=7 v=29
4708 Par ch=5 c=7 v=21
4709 Par ch=5 c=7 v=12
4710 Par ch=5 c=7 v=20
4712 Par ch=5 c=7 v=29
4712 Par ch=5 c=7 v=37
4713 Par ch=5 c=7 v=45
4715 Par ch=5 c=7 v=53
4716 Par ch=5 c=7 v=62
4717 Par ch=5 c=7 v=70
4718 Par ch=5 c=7 v=78
4719 Par ch=5 c=7 v=86
4720 Par ch=5 c=7 v=95
4722 Par ch=5 c=7 v=103
4722 Par ch=5 c=7 v=111
4723 Par ch=5 c=7 v=119
4725 Par ch=5 c=7 v=127
4726 Par ch=5 c=7 v=119
4727 Par ch=5 c=7 v=111
4728 Par ch=5 c=7 v=103
4729 Par ch=5 c=7 v=95
4730 Par ch=5 c=7 v=86
4732 Par ch=5 c=7 v=78
4733 Par ch=5 c=7 v=62
4733 Par ch=5 c=7 v=70
4735 Par ch=5 c=7 v=53
4736 Par ch=5 c=7 v=45
4737 Par ch=5 c=7 v=37
4738 Par ch=5 c=7 v=29
4739 Par ch=5 c=7 v=21
4740 On ch=5 n=65 v=0
4740 On ch=5 n=53 v=0
4740 On ch=5 n=60 v=0
4740 On ch=5 n=57 v=0
4740 Par ch=5 c=7 v=12
4740 On ch=5 n=60 v=40
4740 On ch=5 n=53 v=40
4740 On ch=5 n=57 v=40
4742 Par ch=5 c=7 v=20
4743 Par ch=5 c=7 v=29
4743 Par ch=5 c=7 v=37
4745 Par ch=5 c=7 v=45
4746 Par ch=5 c=7 v=53
4747 Par ch=5 c=7 v=62
4748 Par ch=5 c=7 v=70
4749 Par ch=5 c=7 v=78
4750 Par ch=5 c=7 v=86
4752 Par ch=5 c=7 v=95
4753 Par ch=5 c=7 v=103
4754 Par ch=5 c=7 v=111
4755 Par ch=5 c=7 v=119
4756 Par ch=5 c=7 v=127
4757 Par ch=5 c=7 v=119
4758 Par ch=5 c=7 v=111
4759 Par ch=5 c=7 v=103
4760 Par ch=5 c=7 v=95
4762 Par ch=5 c=7 v=86
4763 Par ch=5 c=7 v=78
4764 Par ch=5 c=7 v=70
4765 Par ch=5 c=7 v=62
4766 Par ch=5 c=7 v=54
4767 Par ch=5 c=7 v=45
4768 Par ch=5 c=7 v=37
4770 Par ch=5 c=7 v=21
4770 Par ch=5 c=7 v=29
4771 Par ch=5 c=7 v=12
4773 Par ch=5 c=7 v=20
4774 Par ch=5 c=7 v=29
4775 Par ch=5 c=7 v=37
4776 Par ch=5 c=7 v=45
4777 Par ch=5 c=7 v=53
4778 Par ch=5 c=7 v=62
4780 Par ch=5 c=7 v=70
4780 Par ch=5 c=7 v=78
4782 Par ch=5 c=7 v=86
4783 Par ch=5 c=7 v=95
4784 Par ch=5 c=7 v=103
4785 Par ch=5 c=7 v=111
4786 Par ch=5 c=7 v=119
4787 Par ch=5 c=7 v=127
4788 Par ch=5 c=7 v=119
4790 Par ch=5 c=7 v=111
4791 Par ch=5 c=7 v=103
4792 Par ch=5 c=7 v=95
4793 Par ch=5 c=7 v=86
4794 Par ch=5 c=7 v=78
4795 Par ch=5 c=7 v=70
4796 Par ch=5 c=7 v=62
4797 Par ch=5 c=7 v=54
4798 Par ch=5 c=7 v=45
4800 On ch=5 n=57 v=0
4800 On ch=5 n=53 v=0
4800 On ch=5 n=60 v=0
4800 Par ch=5 c=7 v=78
4800 Par ch=5 c=7 v=86
4800 On ch=5 n=64 v=40
4800 On ch=5 n=60 v=40
4800 On ch=5 n=52 v=40
4800 On ch=5 n=55 v=40
4801 Par ch=5 c=7 v=103
4801 Par ch=5 c=7 v=95
4803 Par ch=5 c=7 v=111
4804 Par ch=5 c=7 v=119
4805 Par ch=5 c=7 v=127
4807 Par ch=5 c=7 v=111
4807 Par ch=5 c=7 v=119
4808 Par ch=5 c=7 v=103
4810 Par ch=5 c=7 v=95
4811 Par ch=5 c=7 v=86
4812 Par ch=5 c=7 v=78
4813 Par ch=5 c=7 v=70
4814 Par ch=5 c=7 v=62
4815 Par ch=5 c=7 v=53
4816 Par ch=5 c=7 v=45
4817 Par ch=5 c=7 v=37
4818 Par ch=5 c=7 v=29
4820 Par ch=5 c=7 v=21
4821 Par ch=5 c=7 v=12
4822 Par ch=5 c=7 v=21
4823 Par ch=5 c=7 v=29
4824 Par ch=5 c=7 v=37
4825 Par ch=5 c=7 v=45
4827 Par ch=5 c=7 v=53
4828 Par ch=5 c=7 v=62
4828 Par ch=5 c=7 v=70
4830 Par ch=5 c=7 v=78
4831 Par ch=5 c=7 v=86
4832 Par ch=5 c=7 v=95
4833 Par ch=5 c=7 v=103
4834 Par ch=5 c=7 v=111
4835 Par ch=5 c=7 v=119
4837 Par ch=5 c=7 v=127
4838 Par ch=5 c=7 v=119
4838 Par ch=5 c=7 v=111
4840 Par ch=5 c=7 v=103
4841 Par ch=5 c=7 v=95
4842 Par ch=5 c=7 v=86
4843 Par ch=5 c=7 v=78
4844 Par ch=5 c=7 v=70
4845 Par ch=5 c=7 v=62
4847 Par ch=5 c=7 v=53
4848 Par ch=5 c=7 v=37
4848 Par ch=5 c=7 v=45
4850 Par ch=5 c=7 v=29
4851 Par ch=5 c=7 v=21
4852 Par ch=5 c=7 v=12
4853 Par ch=5 c=7 v=21
4854 Par ch=5 c=7 v=29
4855 Par ch=5 c=7 v=37
4857 Par ch=5 c=7 v=45
4858 Par ch=5 c=7 v=53
4859 Par ch=5 c=7 v=62
4860 On ch=5 n=55 v=0
4860 On ch=5 n=64 v=0
4860 On ch=5 n=60 v=0
4860 On ch=5 n=52 v=0
4860 On ch=5 n=55 v=40
4860 On ch=5 n=52 v=40
4860 On ch=5 n=60 v=40
4860 Par ch=5 c=7 v=70
4861 Par ch=5 c=7 v=78
4862 Par ch=5 c=7 v=86
4863 Par ch=5 c=7 v=95
4865 Par ch=5 c=7 v=103
4865 Par ch=5 c=7 v=111
4867 Par ch=5 c=7 v=119
4868 Par ch=5 c=7 v=127
4869 Par ch=5 c=7 v=119
4870 Par ch=5 c=7 v=111
4871 Par ch=5 c=7 v=103
4872 Par ch=5 c=7 v=95
4873 Par ch=5 c=7 v=86
4875 Par ch=5 c=7 v=70
4875 Par ch=5 c=7 v=78
4877 Par ch=5 c=7 v=62
4878 Par ch=5 c=7 v=53
4879 Par ch=5 c=7 v=45
4880 Par ch=5 c=7 v=37
4881 Par ch=5 c=7 v=29
4882 Par ch=5 c=7 v=21
4883 Par ch=5 c=7 v=12
4885 Par ch=5 c=7 v=21
4885 Par ch=5 c=7 v=29
4887 Par ch=5 c=7 v=37
4888 Par ch=5 c=7 v=45
4889 Par ch=5 c=7 v=53
4890 Par ch=5 c=7 v=62
4891 Par ch=5 c=7 v=70
4892 Par ch=5 c=7 v=78
4893 Par ch=5 c=7 v=86
4895 Par ch=5 c=7 v=95
4896 Par ch=5 c=7 v=103
4897 Par ch=5 c=7 v=111
4898 Par ch=5 c=7 v=119
4899 Par ch=5 c=7 v=127
4900 Par ch=5 c=7 v=119
4902 Par ch=5 c=7 v=111
4902 Par ch=5 c=7 v=103
4903 Par ch=5 c=7 v=95
4905 Par ch=5 c=7 v=86
4906 Par ch=5 c=7 v=78
4907 Par ch=5 c=7 v=70
4908 Par ch=5 c=7 v=62
4909 Par ch=5 c=7 v=53
4910 Par ch=5 c=7 v=45
4912 Par ch=5 c=7 v=29
4912 Par ch=5 c=7 v=37
4913 Par ch=5 c=7 v=21
4915 Par ch=5 c=7 v=12
4916 Par ch=5 c=7 v=21
4917 Par ch=5 c=7 v=29
4918 Par ch=5 c=7 v=37
4919 Par ch=5 c=7 v=45
4920 On ch=5 n=60 v=0
4920 On ch=5 n=52 v=0
4920 On ch=5 n=55 v=0
4920 On ch=5 n=60 v=40
4920 Par ch=5 c=7 v=53
4920 On ch=5 n=64 v=40
4920 On ch=5 n=55 v=40
4920 On ch=5 n=52 v=40
4922 Par ch=5 c=7 v=70
4922 Par ch=5 c=7 v=62
4923 Par ch=5 c=7 v=78
4925 Par ch=5 c=7 v=86
4926 Par ch=5 c=7 v=95
4927 Par ch=5 c=7 v=103
4928 Par ch=5 c=7 v=111
4929 Par ch=5 c=7 v=119
4930 Par ch=5 c=7 v=127
4932 Par ch=5 c=7 v=119
4933 Par ch=5 c=7 v=111
4933 Par ch=5 c=7 v=103
4935 Par ch=5 c=7 v=95
4936 Par ch=5 c=7 v=86
4937 Par ch=5 c=7 v=78
4938 Par ch=5 c=7 v=70
4939 Par ch=5 c=7 v=62
4940 Par ch=5 c=7 v=53
4942 Par ch=5 c=7 v=45
4943 Par ch=5 c=7 v=37
4943 Par ch=5 c=7 v=29
4945 Par ch=5 c=7 v=21
4946 Par ch=5 c=7 v=12
4947 Par ch=5 c=7 v=20
4948 Par ch=5 c=7 v=29
4949 Par ch=5 c=7 v=37
4950 Par ch=5 c=7 v=45
4952 Par ch=5 c=7 v=53
4953 Par ch=5 c=7 v=62
4954 Par ch=5 c=7 v=70
4955 Par ch=5 c=7 v=78
4956 Par ch=5 c=7 v=86
4957 Par ch=5 c=7 v=95
4958 Par ch=5 c=7 v=103
4959 Par ch=5 c=7 v=111
4960 Par ch=5 c=7 v=119
4962 Par ch=5 c=7 v=127
4963 Par ch=5 c=7 v=119
4964 Par ch=5 c=7 v=111
4965 Par ch=5 c=7 v=103
4966 Par ch=5 c=7 v=95
4967 Par ch=5 c=7 v=86
4968 Par ch=5 c=7 v=78
4970 Par ch=5 c=7 v=62
4970 Par ch=5 c=7 v=70
4972 Par ch=5 c=7 v=53
4973 Par ch=5 c=7 v=45
4974 Par ch=5 c=7 v=37
4975 Par ch=5 c=7 v=29
4976 Par ch=5 c=7 v=21
4977 Par ch=5 c=7 v=12
4978 Par ch=5 c=7 v=20
4980 On ch=5 n=52 v=0
4980 On ch=5 n=60 v=0
4980 On ch=5 n=64 v=0
4980 On ch=5 n=55 v=0
4980 On ch=5 n=55 v=40
4980 Par ch=5 c=7 v=86
4980 On ch=5 n=52 v=40
4980 Par ch=5 c=7 v=95
4980 Par ch=5 c=7 v=78
4980 On ch=5 n=60 v=40
4982 Par ch=5 c=7 v=103
4983 Par ch=5 c=7 v=111
4984 Par ch=5 c=7 v=119
4985 Par ch=5 c=7 v=127
4986 Par ch=5 c=7 v=119
4987 Par ch=5 c=7 v=111
4988 Par ch=5 c=7 v=103
4990 Par ch=5 c=7 v=95
4991 Par ch=5 c=7 v=86
4992 Par ch=5 c=7 v=78
4993 Par ch=5 c=7 v=70
4994 Par ch=5 c=7 v=62
4995 Par ch=5 c=7 v=53
4996 Par ch=5 c=7 v=45
4997 Par ch=5 c=7 v=37
4998 Par ch=5 c=7 v=29
5000 Par ch=5 c=7 v=21
5001 Par ch=5 c=7 v=12
5002 Par ch=5 c=7 v=21
5003 Par ch=5 c=7 v=29
5004 Par ch=5 c=7 v=37
5005 Par ch=5 c=7 v=45
5007 Par ch=5 c=7 v=62
5007 Par ch=5 c=7 v=53
5008 Par ch=5 c=7 v=70
5010 Par ch=5 c=7 v=78
5011 Par ch=5 c=7 v=86
5012 Par ch=5 c=7 v=95
5013 Par ch=5 c=7 v=103
5014 Par ch=5 c=7 v=111
5015 Par ch=5 c=7 v=119
5017 Par ch=5 c=7 v=119
5017 Par ch=5 c=7 v=127
5018 Par ch=5 c=7 v=111
5020 Par ch=5 c=7 v=103
5021 Par ch=5 c=7 v=95
5022 Par ch=5 c=7 v=86
5023 Par ch=5 c=7 v=78
5024 Par ch=5 c=7 v=70
5025 Par ch=5 c=7 v=62
5027 Par ch=5 c=7 v=53
5028 Par ch=5 c=7 v=37
5028 Par ch=5 c=7 v=45
5030 Par ch=5 c=7 v=29
5031 Par ch=5 c=7 v=21
5032 Par ch=5 c=7 v=12
5033 Par ch=5 c=7 v=21
5034 Par ch=5 c=7 v=29
5035 Par ch=5 c=7 v=37
5037 Par ch=5 c=7 v=45
5038 Par ch=5 c=7 v=53
5038 Par ch=5 c=7 v=62
5040 On ch=5 n=60 v=0
5040 On ch=5 n=52 v=0
5040 On ch=5 n=55 v=0
5040 On ch=5 n=55 v=40
5040 On ch=5 n=60 v=40
5040 Par ch=5 c=7 v=70
5040 On ch=5 n=64 v=40
5040 On ch=5 n=52 v=40
5041 Par ch=5 c=7 v=78
5042 Par ch=5 c=7 v=86
5043 Par ch=5 c=7 v=95
5044 Par ch=5 c=7 v=103
5045 Par ch=5 c=7 v=111
5047 Par ch=5 c=7 v=119
5048 Par ch=5 c=7 v=127
5049 Par ch=5 c=7 v=119
5050 Par ch=5 c=7 v=111
5051 Par ch=5 c=7 v=103
5052 Par ch=5 c=7 v=95
5053 Par ch=5 c=7 v=86
5054 Par ch=5 c=7 v=78
5055 Par ch=5 c=7 v=70
5057 Par ch=5 c=7 v=62
5058 Par ch=5 c=7 v=53
5059 Par ch=5 c=7 v=45
5060 Par ch=5 c=7 v=37
5061 Par ch=5 c=7 v=29
5062 Par ch=5 c=7 v=21
5063 Par ch=5 c=7 v=12
5065 Par ch=5 c=7 v=21
5065 Par ch=5 c=7 v=29
5067 Par ch=5 c=7 v=37
5068 Par ch=5 c=7 v=45
5069 Par ch=5 c=7 v=53
5070 Par ch=5 c=7 v=62
5071 Par ch=5 c=7 v=70
5072 Par ch=5 c=7 v=78
5073 Par ch=5 c=7 v=86
5075 Par ch=5 c=7 v=103
5075 Par ch=5 c=7 v=95
5077 Par ch=5 c=7 v=111
5078 Par ch=5 c=7 v=119
5079 Par ch=5 c=7 v=127
5080 Par ch=5 c=7 v=119
5081 Par ch=5 c=7 v=111
5082 Par ch=5 c=7 v=103
5083 Par ch=5 c=7 v=95
5085 Par ch=5 c=7 v=86
5086 Par ch=5 c=7 v=78
5087 Par ch=5 c=7 v=70
5088 Par ch=5 c=7 v=62
5089 Par ch=5 c=7 v=53
5090 Par ch=5 c=7 v=45
5091 Par ch=5 c=7 v=37
5092 Par ch=5 c=7 v=29
5093 Par ch=5 c=7 v=21
5095 Par ch=5 c=7 v=12
5096 Par ch=5 c=7 v=21
5097 Par ch=5 c=7 v=29
5098 Par ch=5 c=7 v=37
5099 Par ch=5 c=7 v=45
5100 On ch=5 n=52 v=0
5100 On ch=5 n=55 v=0
5100 On ch=5 n=60 v=0
5100 On ch=5 n=64 v=0
5100 On ch=5 n=60 v=40
5100 On ch=5 n=55 v=40
5100 Par ch=5 c=7 v=53
5100 On ch=5 n=52 v=40
5102 Par ch=5 c=7 v=62
5102 Par ch=5 c=7 v=70
5103 Par ch=5 c=7 v=78
5105 Par ch=5 c=7 v=86
5106 Par ch=5 c=7 v=95
5107 Par ch=5 c=7 v=103
5108 Par ch=5 c=7 v=111
5109 Par ch=5 c=7 v=119
5110 Par ch=5 c=7 v=127
5112 Par ch=5 c=7 v=119
5112 Par ch=5 c=7 v=111
5113 Par ch=5 c=7 v=103
5115 Par ch=5 c=7 v=95
5116 Par ch=5 c=7 v=86
5117 Par ch=5 c=7 v=78
5118 Par ch=5 c=7 v=70
5119 Par ch=5 c=7 v=62
5120 Par ch=5 c=7 v=53
5122 Par ch=5 c=7 v=45
5123 Par ch=5 c=7 v=29
5123 Par ch=5 c=7 v=37
5125 Par ch=5 c=7 v=21
5126 Par ch=5 c=7 v=12
5127 Par ch=5 c=7 v=20
5128 Par ch=5 c=7 v=29
5129 Par ch=5 c=7 v=37
5130 Par ch=5 c=7 v=45
5132 Par ch=5 c=7 v=53
5133 Par ch=5 c=7 v=62
5133 Par ch=5 c=7 v=70
5135 Par ch=5 c=7 v=78
5136 Par ch=5 c=7 v=86
5137 Par ch=5 c=7 v=95
5138 Par ch=5 c=7 v=103
5139 Par ch=5 c=7 v=111
5140 Par ch=5 c=7 v=119
5142 Par ch=5 c=7 v=127
5143 Par ch=5 c=7 v=119
5143 Par ch=5 c=7 v=111
5145 Par ch=5 c=7 v=103
5146 Par ch=5 c=7 v=95
5147 Par ch=5 c=7 v=86
5148 Par ch=5 c=7 v=78
5149 Par ch=5 c=7 v=70
5150 Par ch=5 c=7 v=62
5152 Par ch=5 c=7 v=53
5153 Par ch=5 c=7 v=45
5154 Par ch=5 c=7 v=37
5155 Par ch=5 c=7 v=29
5156 Par ch=5 c=7 v=21
5157 Par ch=5 c=7 v=12
5158 Par ch=5 c=7 v=20
5160 On ch=5 n=52 v=0
5160 On ch=5 n=55 v=0
5160 On ch=5 n=60 v=0
5160 On ch=5 n=55 v=40
5160 On ch=5 n=52 v=40
5160 Par ch=5 c=7 v=29
5160 On ch=5 n=60 v=40
5160 Par ch=5 c=7 v=37
5160 On ch=5 n=64 v=40
5162 Par ch=5 c=7 v=45
5163 Par ch=5 c=7 v=53
5164 Par ch=5 c=7 v=62
5165 Par ch=5 c=7 v=70
5166 Par ch=5 c=7 v=78
5167 Par ch=5 c=7 v=86
5168 Par ch=5 c=7 v=95
5170 Par ch=5 c=7 v=111
5170 Par ch=5 c=7 v=103
5172 Par ch=5 c=7 v=119
5173 Par ch=5 c=7 v=127
5174 Par ch=5 c=7 v=119
5175 Par ch=5 c=7 v=111
5176 Par ch=5 c=7 v=103
5177 Par ch=5 c=7 v=95
5178 Par ch=5 c=7 v=86
5180 Par ch=5 c=7 v=70
5180 Par ch=5 c=7 v=78
5182 Par ch=5 c=7 v=62
5183 Par ch=5 c=7 v=53
5184 Par ch=5 c=7 v=45
5185 Par ch=5 c=7 v=37
5186 Par ch=5 c=7 v=29
5187 Par ch=5 c=7 v=21
5188 Par ch=5 c=7 v=12
5190 Par ch=5 c=7 v=20
5191 Par ch=5 c=7 v=29
5192 Par ch=5 c=7 v=37
5193 Par ch=5 c=7 v=45
5194 Par ch=5 c=7 v=53
5195 Par ch=5 c=7 v=62
5197 Par ch=5 c=7 v=70
5197 Par ch=5 c=7 v=78
5198 Par ch=5 c=7 v=86
5200 Par ch=5 c=7 v=95
5201 Par ch=5 c=7 v=103
5202 Par ch=5 c=7 v=111
5203 Par ch=5 c=7 v=119
5204 Par ch=5 c=7 v=127
5205 Par ch=5 c=7 v=119
5207 Par ch=5 c=7 v=111
5207 Par ch=5 c=7 v=103
5208 Par ch=5 c=7 v=95
5210 Par ch=5 c=7 v=86
5211 Par ch=5 c=7 v=78
5212 Par ch=5 c=7 v=70
5213 Par ch=5 c=7 v=62
5214 Par ch=5 c=7 v=53
5215 Par ch=5 c=7 v=45
5216 Par ch=5 c=7 v=37
5218 Par ch=5 c=7 v=21
5218 Par ch=5 c=7 v=29
5220 On ch=5 n=64 v=0
5220 On ch=5 n=55 v=0
5220 On ch=5 n=52 v=0
5220 On ch=5 n=60 v=0
5220 On ch=5 n=52 v=40
5220 Par ch=5 c=7 v=12
5220 On ch=5 n=60 v=40
5220 On ch=5 n=55 v=40
5221 Par ch=5 c=7 v=20
5222 Par ch=5 c=7 v=29
5223 Par ch=5 c=7 v=37
5224 Par ch=5 c=7 v=45
5225 Par ch=5 c=7 v=53
5227 Par ch=5 c=7 v=62
5228 Par ch=5 c=7 v=78
5228 Par ch=5 c=7 v=70
5230 Par ch=5 c=7 v=86
5231 Par ch=5 c=7 v=95
5232 Par ch=5 c=7 v=103
5233 Par ch=5 c=7 v=111
5234 Par ch=5 c=7 v=119
5235 Par ch=5 c=7 v=127
5237 Par ch=5 c=7 v=119
5238 Par ch=5 c=7 v=111
5238 Par ch=5 c=7 v=103
5240 Par ch=5 c=7 v=95
5241 Par ch=5 c=7 v=86
5242 Par ch=5 c=7 v=78
5243 Par ch=5 c=7 v=70
5244 Par ch=5 c=7 v=62
5245 Par ch=5 c=7 v=54
5246 Par ch=5 c=7 v=45
5248 Par ch=5 c=7 v=37
5249 Par ch=5 c=7 v=29
5250 Par ch=5 c=7 v=21
5251 Par ch=5 c=7 v=12
5252 Par ch=5 c=7 v=20
5253 Par ch=5 c=7 v=29
5254 Par ch=5 c=7 v=37
5255 Par ch=5 c=7 v=45
5257 Par ch=5 c=7 v=53
5258 Par ch=5 c=7 v=62
5259 Par ch=5 c=7 v=70
5260 Par ch=5 c=7 v=78
5261 Par ch=5 c=7 v=86
5262 Par ch=5 c=7 v=95
5263 Par ch=5 c=7 v=103
5265 Par ch=5 c=7 v=119
5265 Par ch=5 c=7 v=111
5267 Par ch=5 c=7 v=127
5268 Par ch=5 c=7 v=119
5269 Par ch=5 c=7 v=111
5270 Par ch=5 c=7 v=103
5271 Par ch=5 c=7 v=95
5272 Par ch=5 c=7 v=86
5273 Par ch=5 c=7 v=78
5275 Par ch=5 c=7 v=70
5275 Par ch=5 c=7 v=62
5276 Par ch=5 c=7 v=54
5278 Par ch=5 c=7 v=45
5279 Par ch=5 c=7 v=37
5280 On ch=5 n=55 v=0
5280 On ch=5 n=60 v=0
5280 On ch=5 n=52 v=0
5280 On ch=5 n=53 v=40
5280 Par ch=5 c=7 v=78
5280 On ch=5 n=62 v=40
5280 Par ch=5 c=7 v=86
5280 On ch=5 n=50 v=40
5280 On ch=5 n=57 v=40
5281 Par ch=5 c=7 v=95
5282 Par ch=5 c=7 v=103
5283 Par ch=5 c=7 v=111
5285 Par ch=5 c=7 v=119
5286 Par ch=5 c=7 v=127
5287 Par ch=5 c=7 v=119
5288 Par ch=5 c=7 v=111
5289 Par ch=5 c=7 v=103
5290 Par ch=5 c=7 v=95
5291 Par ch=5 c=7 v=86
5292 Par ch=5 c=7 v=78
5293 Par ch=5 c=7 v=70
5295 Par ch=5 c=7 v=62
5296 Par ch=5 c=7 v=53
5297 Par ch=5 c=7 v=45
5298 Par ch=5 c=7 v=37
5299 Par ch=5 c=7 v=29
5300 Par ch=5 c=7 v=21
5302 Par ch=5 c=7 v=21
5302 Par ch=5 c=7 v=12
5303 Par ch=5 c=7 v=29
5305 Par ch=5 c=7 v=37
5306 Par ch=5 c=7 v=45
5307 Par ch=5 c=7 v=53
5308 Par ch=5 c=7 v=62
5309 Par ch=5 c=7 v=70
5310 Par ch=5 c=7 v=78
5312 Par ch=5 c=7 v=86
5312 Par ch=5 c=7 v=95
5313 Par ch=5 c=7 v=103
5315 Par ch=5 c=7 v=111
5316 Par ch=5 c=7 v=119
5317 Par ch=5 c=7 v=127
5318 Par ch=5 c=7 v=119
5319 Par ch=5 c=7 v=111
5320 Par ch=5 c=7 v=103
5321 Par ch=5 c=7 v=95
5323 Par ch=5 c=7 v=78
5323 Par ch=5 c=7 v=86
5325 Par ch=5 c=7 v=70
5326 Par ch=5 c=7 v=62
5327 Par ch=5 c=7 v=53
5328 Par ch=5 c=7 v=45
5329 Par ch=5 c=7 v=37
5330 Par ch=5 c=7 v=29
5332 Par ch=5 c=7 v=21
5333 Par ch=5 c=7 v=12
5333 Par ch=5 c=7 v=21
5335 Par ch=5 c=7 v=29
5336 Par ch=5 c=7 v=37
5337 Par ch=5 c=7 v=45
5338 Par ch=5 c=7 v=53
5339 Par ch=5 c=7 v=62
5340 On ch=5 n=57 v=0
5340 On ch=5 n=53 v=0
5340 On ch=5 n=62 v=0
5340 On ch=5 n=50 v=0
5340 On ch=5 n=53 v=40
5340 Par ch=5 c=7 v=70
5340 On ch=5 n=57 v=40
5340 On ch=5 n=50 v=40
5342 Par ch=5 c=7 v=78
5343 Par ch=5 c=7 v=86
5344 Par ch=5 c=7 v=95
5345 Par ch=5 c=7 v=103
5346 Par ch=5 c=7 v=111
5347 Par ch=5 c=7 v=119
5348 Par ch=5 c=7 v=127
5349 Par ch=5 c=7 v=119
5350 Par ch=5 c=7 v=111
5352 Par ch=5 c=7 v=103
5353 Par ch=5 c=7 v=95
5354 Par ch=5 c=7 v=86
5355 Par ch=5 c=7 v=78
5356 Par ch=5 c=7 v=70
5357 Par ch=5 c=7 v=62
5358 Par ch=5 c=7 v=53
5360 Par ch=5 c=7 v=37
5360 Par ch=5 c=7 v=45
5362 Par ch=5 c=7 v=29
5363 Par ch=5 c=7 v=21
5364 Par ch=5 c=7 v=12
5365 Par ch=5 c=7 v=21
5366 Par ch=5 c=7 v=29
5367 Par ch=5 c=7 v=37
5368 Par ch=5 c=7 v=45
5370 Par ch=5 c=7 v=53
5370 Par ch=5 c=7 v=62
5372 Par ch=5 c=7 v=70
5373 Par ch=5 c=7 v=78
5374 Par ch=5 c=7 v=86
5375 Par ch=5 c=7 v=95
5376 Par ch=5 c=7 v=103
5377 Par ch=5 c=7 v=111
5378 Par ch=5 c=7 v=119
5380 Par ch=5 c=7 v=127
5381 Par ch=5 c=7 v=119
5382 Par ch=5 c=7 v=111
5383 Par ch=5 c=7 v=103
5384 Par ch=5 c=7 v=95
5385 Par ch=5 c=7 v=86
5386 Par ch=5 c=7 v=78
5387 Par ch=5 c=7 v=70
5388 Par ch=5 c=7 v=62
5390 Par ch=5 c=7 v=53
5391 Par ch=5 c=7 v=45
5392 Par ch=5 c=7 v=37
5393 Par ch=5 c=7 v=29
5394 Par ch=5 c=7 v=21
5395 Par ch=5 c=7 v=12
5397 Par ch=5 c=7 v=21
5397 Par ch=5 c=7 v=29
5398 Par ch=5 c=7 v=37
5400 On ch=5 n=50 v=0
5400 On ch=5 n=57 v=0
5400 On ch=5 n=53 v=0
5400 On ch=5 n=57 v=40
5400 On ch=5 n=62 v=40
5400 On ch=5 n=50 v=40
5400 Par ch=5 c=7 v=45
5400 On ch=5 n=53 v=40
5401 Par ch=5 c=7 v=53
5402 Par ch=5 c=7 v=62
5403 Par ch=5 c=7 v=70
5404 Par ch=5 c=7 v=78
5405 Par ch=5 c=7 v=86
5407 Par ch=5 c=7 v=103
5407 Par ch=5 c=7 v=95
5408 Par ch=5 c=7 v=111
5410 Par ch=5 c=7 v=119
5411 Par ch=5 c=7 v=127
5412 Par ch=5 c=7 v=119
5413 Par ch=5 c=7 v=111
5414 Par ch=5 c=7 v=103
5415 Par ch=5 c=7 v=95
5417 Par ch=5 c=7 v=86
5418 Par ch=5 c=7 v=78
5418 Par ch=5 c=7 v=70
5420 Par ch=5 c=7 v=62
5421 Par ch=5 c=7 v=53
5422 Par ch=5 c=7 v=45
5423 Par ch=5 c=7 v=37
5424 Par ch=5 c=7 v=29
5425 Par ch=5 c=7 v=21
5427 Par ch=5 c=7 v=12
5428 Par ch=5 c=7 v=29
5428 Par ch=5 c=7 v=20
5430 Par ch=5 c=7 v=37
5431 Par ch=5 c=7 v=45
5432 Par ch=5 c=7 v=53
5433 Par ch=5 c=7 v=62
5434 Par ch=5 c=7 v=70
5435 Par ch=5 c=7 v=78
5437 Par ch=5 c=7 v=86
5438 Par ch=5 c=7 v=95
5439 Par ch=5 c=7 v=103
5440 Par ch=5 c=7 v=111
5441 Par ch=5 c=7 v=119
5442 Par ch=5 c=7 v=127
5443 Par ch=5 c=7 v=119
5444 Par ch=5 c=7 v=111
5445 Par ch=5 c=7 v=103
5447 Par ch=5 c=7 v=95
5448 Par ch=5 c=7 v=86
5449 Par ch=5 c=7 v=78
5450 Par ch=5 c=7 v=70
5451 Par ch=5 c=7 v=62
5452 Par ch=5 c=7 v=53
5453 Par ch=5 c=7 v=45
5455 Par ch=5 c=7 v=29
5455 Par ch=5 c=7 v=37
5457 Par ch=5 c=7 v=21
5458 Par ch=5 c=7 v=12
5459 Par ch=5 c=7 v=20
5460 On ch=5 n=53 v=0
5460 On ch=5 n=57 v=0
5460 On ch=5 n=62 v=0
5460 On ch=5 n=50 v=0
5460 On ch=5 n=53 v=40
5460 On ch=5 n=57 v=40
5460 On ch=5 n=50 v=40
5460 Par ch=5 c=7 v=86
5460 Par ch=5 c=7 v=78
5461 Par ch=5 c=7 v=95
5462 Par ch=5 c=7 v=103
5463 Par ch=5 c=7 v=111
5465 Par ch=5 c=7 v=119
5465 Par ch=5 c=7 v=127
5467 Par ch=5 c=7 v=119
5468 Par ch=5 c=7 v=111
5469 Par ch=5 c=7 v=103
5470 Par ch=5 c=7 v=95
5471 Par ch=5 c=7 v=86
5472 Par ch=5 c=7 v=78
5473 Par ch=5 c=7 v=70
5475 Par ch=5 c=7 v=62
5476 Par ch=5 c=7 v=53
5477 Par ch=5 c=7 v=45
5478 Par ch=5 c=7 v=37
5479 Par ch=5 c=7 v=29
5480 Par ch=5 c=7 v=21
5481 Par ch=5 c=7 v=12
5482 Par ch=5 c=7 v=21
5483 Par ch=5 c=7 v=29
5485 Par ch=5 c=7 v=37
5486 Par ch=5 c=7 v=45
5487 Par ch=5 c=7 v=53
5488 Par ch=5 c=7 v=62
5489 Par ch=5 c=7 v=70
5490 Par ch=5 c=7 v=78
5492 Par ch=5 c=7 v=95
5492 Par ch=5 c=7 v=86
5493 Par ch=5 c=7 v=103
5495 Par ch=5 c=7 v=111
5496 Par ch=5 c=7 v=119
5497 Par ch=5 c=7 v=127
5498 Par ch=5 c=7 v=119
5499 Par ch=5 c=7 v=111
5500 Par ch=5 c=7 v=103
5502 Par ch=5 c=7 v=95
5502 Par ch=5 c=7 v=86
5503 Par ch=5 c=7 v=78
5505 Par ch=5 c=7 v=70
5506 Par ch=5 c=7 v=62
5507 Par ch=5 c=7 v=53
5508 Par ch=5 c=7 v=45
5509 Par ch=5 c=7 v=37
5510 Par ch=5 c=7 v=29
5512 Par ch=5 c=7 v=21
5513 Par ch=5 c=7 v=12
5513 Par ch=5 c=7 v=21
5515 Par ch=5 c=7 v=29
5516 Par ch=5 c=7 v=37
5517 Par ch=5 c=7 v=45
5518 Par ch=5 c=7 v=53
5519 Par ch=5 c=7 v=62
5520 On ch=5 n=50 v=0
5520 On ch=5 n=57 v=0
5520 On ch=5 n=53 v=0
5520 On ch=5 n=53 v=40
5520 On ch=5 n=62 v=40
5520 On ch=5 n=50 v=40
5520 Par ch=5 c=7 v=70
5520 On ch=5 n=57 v=40
5522 Par ch=5 c=7 v=78
5523 Par ch=5 c=7 v=86
5523 Par ch=5 c=7 v=95
5525 Par ch=5 c=7 v=103
5526 Par ch=5 c=7 v=111
5527 Par ch=5 c=7 v=119
5528 Par ch=5 c=7 v=127
5529 Par ch=5 c=7 v=119
5530 Par ch=5 c=7 v=111
5532 Par ch=5 c=7 v=103
5533 Par ch=5 c=7 v=95
5533 Par ch=5 c=7 v=86
5535 Par ch=5 c=7 v=78
5536 Par ch=5 c=7 v=70
5537 Par ch=5 c=7 v=62
5538 Par ch=5 c=7 v=53
5539 Par ch=5 c=7 v=45
5540 Par ch=5 c=7 v=37
5542 Par ch=5 c=7 v=29
5543 Par ch=5 c=7 v=21
5544 Par ch=5 c=7 v=12
5545 Par ch=5 c=7 v=21
5546 Par ch=5 c=7 v=29
5547 Par ch=5 c=7 v=37
5548 Par ch=5 c=7 v=45
5550 Par ch=5 c=7 v=62
5550 Par ch=5 c=7 v=53
5552 Par ch=5 c=7 v=70
5553 Par ch=5 c=7 v=78
5554 Par ch=5 c=7 v=86
5555 Par ch=5 c=7 v=95
5556 Par ch=5 c=7 v=103
5557 Par ch=5 c=7 v=111
5558 Par ch=5 c=7 v=119
5560 Par ch=5 c=7 v=127
5560 Par ch=5 c=7 v=119
5562 Par ch=5 c=7 v=111
5563 Par ch=5 c=7 v=103
5564 Par ch=5 c=7 v=95
5565 Par ch=5 c=7 v=86
5566 Par ch=5 c=7 v=78
5567 Par ch=5 c=7 v=70
5568 Par ch=5 c=7 v=62
5570 Par ch=5 c=7 v=45
5570 Par ch=5 c=7 v=53
5572 Par ch=5 c=7 v=37
5573 Par ch=5 c=7 v=29
5574 Par ch=5 c=7 v=21
5575 Par ch=5 c=7 v=12
5576 Par ch=5 c=7 v=21
5577 Par ch=5 c=7 v=29
5578 Par ch=5 c=7 v=37
5580 On ch=5 n=57 v=0
5580 On ch=5 n=53 v=0
5580 On ch=5 n=62 v=0
5580 On ch=5 n=50 v=0
5580 On ch=5 n=57 v=40
5580 On ch=5 n=50 v=40
5580 Par ch=5 c=7 v=45
5580 On ch=5 n=53 v=40
5581 Par ch=5 c=7 v=53
5582 Par ch=5 c=7 v=62
5583 Par ch=5 c=7 v=70
5584 Par ch=5 c=7 v=78
5585 Par ch=5 c=7 v=86
5587 Par ch=5 c=7 v=95
5587 Par ch=5 c=7 v=103
5588 Par ch=5 c=7 v=111
5590 Par ch=5 c=7 v=119
5591 Par ch=5 c=7 v=127
5592 Par ch=5 c=7 v=119
5593 Par ch=5 c=7 v=111
5594 Par ch=5 c=7 v=103
5595 Par ch=5 c=7 v=95
5597 Par ch=5 c=7 v=78
5597 Par ch=5 c=7 v=86
5598 Par ch=5 c=7 v=70
5600 Par ch=5 c=7 v=62
5601 Par ch=5 c=7 v=53
5602 Par ch=5 c=7 v=45
5603 Par ch=5 c=7 v=37
5604 Par ch=5 c=7 v=29
5605 Par ch=5 c=7 v=21
5607 Par ch=5 c=7 v=12
5607 Par ch=5 c=7 v=20
5608 Par ch=5 c=7 v=29
5610 Par ch=5 c=7 v=37
5611 Par ch=5 c=7 v=45
5612 Par ch=5 c=7 v=53
5613 Par ch=5 c=7 v=62
5614 Par ch=5 c=7 v=70
5615 Par ch=5 c=7 v=78
5617 Par ch=5 c=7 v=86
5618 Par ch=5 c=7 v=95
5618 Par ch=5 c=7 v=103
5620 Par ch=5 c=7 v=111
5621 Par ch=5 c=7 v=119
5622 Par ch=5 c=7 v=127
5623 Par ch=5 c=7 v=119
5624 Par ch=5 c=7 v=111
5625 Par ch=5 c=7 v=103
5627 Par ch=5 c=7 v=95
5628 Par ch=5 c=7 v=78
5628 Par ch=5 c=7 v=86
5630 Par ch=5 c=7 v=70
5631 Par ch=5 c=7 v=62
5632 Par ch=5 c=7 v=53
5633 Par ch=5 c=7 v=45
5634 Par ch=5 c=7 v=37
5635 Par ch=5 c=7 v=29
5637 Par ch=5 c=7 v=21
5638 Par ch=5 c=7 v=12
5639 Par ch=5 c=7 v=20
5640 On ch=5 n=53 v=0
5640 On ch=5 n=50 v=0
5640 On ch=5 n=57 v=0
5640 On ch=5 n=53 v=40
5640 On ch=5 n=50 v=40
5640 Par ch=5 c=7 v=29
5640 On ch=5 n=62 v=40
5640 On ch=5 n=57 v=40
5641 Par ch=5 c=7 v=37
5642 Par ch=5 c=7 v=45
5643 Par ch=5 c=7 v=53
5644 Par ch=5 c=7 v=62
5645 Par ch=5 c=7 v=70
5647 Par ch=5 c=7 v=78
5648 Par ch=5 c=7 v=86
5649 Par ch=5 c=7 v=95
5650 Par ch=5 c=7 v=103
5651 Par ch=5 c=7 v=111
5652 Par ch=5 c=7 v=119
5653 Par ch=5 c=7 v=127
5655 Par ch=5 c=7 v=119
5655 Par ch=5 c=7 v=111
5657 Par ch=5 c=7 v=103
5658 Par ch=5 c=7 v=95
5659 Par ch=5 c=7 v=86
5660 Par ch=5 c=7 v=78
5661 Par ch=5 c=7 v=70
5662 Par ch=5 c=7 v=62
5663 Par ch=5 c=7 v=53
5665 Par ch=5 c=7 v=37
5665 Par ch=5 c=7 v=45
5667 Par ch=5 c=7 v=29
5668 Par ch=5 c=7 v=21
5669 Par ch=5 c=7 v=12
5670 Par ch=5 c=7 v=20
5671 Par ch=5 c=7 v=29
5672 Par ch=5 c=7 v=37
5673 Par ch=5 c=7 v=45
5675 Par ch=5 c=7 v=53
5676 Par ch=5 c=7 v=62
5677 Par ch=5 c=7 v=70
5678 Par ch=5 c=7 v=78
5679 Par ch=5 c=7 v=86
5680 Par ch=5 c=7 v=95
5681 Par ch=5 c=7 v=103
5682 Par ch=5 c=7 v=111
5683 Par ch=5 c=7 v=119
5685 Par ch=5 c=7 v=127
5686 Par ch=5 c=7 v=119
5687 Par ch=5 c=7 v=111
5688 Par ch=5 c=7 v=103
5689 Par ch=5 c=7 v=95
5690 Par ch=5 c=7 v=86
5692 Par ch=5 c=7 v=78
5692 Par ch=5 c=7 v=70
5693 Par ch=5 c=7 v=62
5695 Par ch=5 c=7 v=53
5696 Par ch=5 c=7 v=45
5697 Par ch=5 c=7 v=37
5698 Par ch=5 c=7 v=29
5699 Par ch=5 c=7 v=21
5700 On ch=5 n=57 v=0
5700 On ch=5 n=53 v=0
5700 On ch=5 n=50 v=0
5700 On ch=5 n=62 v=0
5700 On ch=5 n=57 v=40
5700 Par ch=5 c=7 v=12
5700 On ch=5 n=50 v=40
5700 On ch=5 n=53 v=40
5702 Par ch=5 c=7 v=29
5702 Par ch=5 c=7 v=20
5703 Par ch=5 c=7 v=37
5705 Par ch=5 c=7 v=45
5706 Par ch=5 c=7 v=53
5707 Par ch=5 c=7 v=62
5708 Par ch=5 c=7 v=70
5709 Par ch=5 c=7 v=78
5710 Par ch=5 c=7 v=86
5712 Par ch=5 c=7 v=95
5713 Par ch=5 c=7 v=103
5713 Par ch=5 c=7 v=111
5715 Par ch=5 c=7 v=119
5716 Par ch=5 c=7 v=127
5717 Par ch=5 c=7 v=119
5718 Par ch=5 c=7 v=111
5719 Par ch=5 c=7 v=103
5720 Par ch=5 c=7 v=95
5722 Par ch=5 c=7 v=86
5723 Par ch=5 c=7 v=78
5723 Par ch=5 c=7 v=70
5725 Par ch=5 c=7 v=62
5726 Par ch=5 c=7 v=54
5727 Par ch=5 c=7 v=45
5728 Par ch=5 c=7 v=37
5729 Par ch=5 c=7 v=29
5730 Par ch=5 c=7 v=21
5732 Par ch=5 c=7 v=12
5733 Par ch=5 c=7 v=20
5734 Par ch=5 c=7 v=29
5735 Par ch=5 c=7 v=37
5736 Par ch=5 c=7 v=45
5737 Par ch=5 c=7 v=53
5738 Par ch=5 c=7 v=62
5739 Par ch=5 c=7 v=70
5740 Par ch=5 c=7 v=78
5742 Par ch=5 c=7 v=86
5743 Par ch=5 c=7 v=95
5744 Par ch=5 c=7 v=103
5745 Par ch=5 c=7 v=111
5746 Par ch=5 c=7 v=119
5747 Par ch=5 c=7 v=127
5748 Par ch=5 c=7 v=119
5750 Par ch=5 c=7 v=111
5750 Par ch=5 c=7 v=103
5752 Par ch=5 c=7 v=95
5753 Par ch=5 c=7 v=86
5754 Par ch=5 c=7 v=78
5755 Par ch=5 c=7 v=70
5756 Par ch=5 c=7 v=62
5757 Par ch=5 c=7 v=54
5758 Par ch=5 c=7 v=45
5760 On ch=5 n=53 v=0
5760 On ch=5 n=50 v=0
5760 On ch=5 n=57 v=0
5760 On ch=5 n=46 v=40
5760 Par ch=5 c=7 v=78
5760 Par ch=5 c=7 v=86
5760 On ch=5 n=62 v=40
5760 Par ch=5 c=7 v=95
5760 On ch=5 n=53 v=40
5760 On ch=5 n=58 v=40
5762 Par ch=5 c=7 v=103
5763 Par ch=5 c=7 v=111
5764 Par ch=5 c=7 v=119
5765 Par ch=5 c=7 v=127
5766 Par ch=5 c=7 v=119
5767 Par ch=5 c=7 v=111
5768 Par ch=5 c=7 v=103
5770 Par ch=5 c=7 v=95
5771 Par ch=5 c=7 v=86
5772 Par ch=5 c=7 v=78
5773 Par ch=5 c=7 v=70
5774 Par ch=5 c=7 v=62
5775 Par ch=5 c=7 v=53
5776 Par ch=5 c=7 v=45
5777 Par ch=5 c=7 v=37
5778 Par ch=5 c=7 v=29
5780 Par ch=5 c=7 v=21
5781 Par ch=5 c=7 v=12
5782 Par ch=5 c=7 v=21
5783 Par ch=5 c=7 v=29
5784 Par ch=5 c=7 v=37
5785 Par ch=5 c=7 v=45
5787 Par ch=5 c=7 v=53
5787 Par ch=5 c=7 v=62
5788 Par ch=5 c=7 v=70
5790 Par ch=5 c=7 v=78
5791 Par ch=5 c=7 v=86
5792 Par ch=5 c=7 v=95
5793 Par ch=5 c=7 v=103
5794 Par ch=5 c=7 v=111
5795 Par ch=5 c=7 v=119
5797 Par ch=5 c=7 v=127
5797 Par ch=5 c=7 v=119
5798 Par ch=5 c=7 v=111
5800 Par ch=5 c=7 v=103
5801 Par ch=5 c=7 v=95
5802 Par ch=5 c=7 v=86
5803 Par ch=5 c=7 v=78
5804 Par ch=5 c=7 v=70
5805 Par ch=5 c=7 v=62
5807 Par ch=5 c=7 v=53
5808 Par ch=5 c=7 v=45
5808 Par ch=5 c=7 v=37
5810 Par ch=5 c=7 v=29
5811 Par ch=5 c=7 v=21
5812 Par ch=5 c=7 v=12
5813 Par ch=5 c=7 v=21
5814 Par ch=5 c=7 v=29
5815 Par ch=5 c=7 v=37
5817 Par ch=5 c=7 v=45
5818 Par ch=5 c=7 v=53
5818 Par ch=5 c=7 v=62
5820 On ch=5 n=58 v=0
5820 On ch=5 n=46 v=0
5820 On ch=5 n=62 v=0
5820 On ch=5 n=53 v=0
5820 On ch=5 n=58 v=40
5820 On ch=5 n=53 v=40
5820 On ch=5 n=46 v=40
5820 Par ch=5 c=7 v=70
5821 Par ch=5 c=7 v=78
5822 Par ch=5 c=7 v=86
5823 Par ch=5 c=7 v=95
5824 Par ch=5 c=7 v=103
5825 Par ch=5 c=7 v=111
5827 Par ch=5 c=7 v=119
5828 Par ch=5 c=7 v=127
5829 Par ch=5 c=7 v=119
5830 Par ch=5 c=7 v=111
5831 Par ch=5 c=7 v=103
5832 Par ch=5 c=7 v=95
5833 Par ch=5 c=7 v=86
5834 Par ch=5 c=7 v=78
5835 Par ch=5 c=7 v=70
5837 Par ch=5 c=7 v=62
5838 Par ch=5 c=7 v=53
5839 Par ch=5 c=7 v=45
5840 Par ch=5 c=7 v=37
5841 Par ch=5 c=7 v=29
5842 Par ch=5 c=7 v=21
5843 Par ch=5 c=7 v=12
5845 Par ch=5 c=7 v=29
5845 Par ch=5 c=7 v=21
5847 Par ch=5 c=7 v=37
5848 Par ch=5 c=7 v=45
5849 Par ch=5 c=7 v=53
5850 Par ch=5 c=7 v=62
5851 Par ch=5 c=7 v=70
5852 Par ch=5 c=7 v=78
5853 Par ch=5 c=7 v=86
5855 Par ch=5 c=7 v=103
5855 Par ch=5 c=7 v=95
5857 Par ch=5 c=7 v=111
5858 Par ch=5 c=7 v=119
5859 Par ch=5 c=7 v=127
5860 Par ch=5 c=7 v=119
5861 Par ch=5 c=7 v=111
5862 Par ch=5 c=7 v=103
5863 Par ch=5 c=7 v=95
5865 Par ch=5 c=7 v=86
5865 Par ch=5 c=7 v=78
5867 Par ch=5 c=7 v=70
5868 Par ch=5 c=7 v=62
5869 Par ch=5 c=7 v=53
5870 Par ch=5 c=7 v=45
5871 Par ch=5 c=7 v=37
5872 Par ch=5 c=7 v=29
5873 Par ch=5 c=7 v=21
5875 Par ch=5 c=7 v=12
5876 Par ch=5 c=7 v=21
5877 Par ch=5 c=7 v=29
5878 Par ch=5 c=7 v=37
5879 Par ch=5 c=7 v=45
5880 On ch=5 n=46 v=0
5880 On ch=5 n=53 v=0
5880 On ch=5 n=58 v=0
5880 On ch=5 n=58 v=40
5880 On ch=5 n=46 v=40
5880 On ch=5 n=62 v=40
5880 On ch=5 n=53 v=40
5880 Par ch=5 c=7 v=53
5882 Par ch=5 c=7 v=70
5882 Par ch=5 c=7 v=62
5883 Par ch=5 c=7 v=78
5885 Par ch=5 c=7 v=86
5886 Par ch=5 c=7 v=95
5887 Par ch=5 c=7 v=103
5888 Par ch=5 c=7 v=111
5889 Par ch=5 c=7 v=119
5890 Par ch=5 c=7 v=127
5892 Par ch=5 c=7 v=119
5892 Par ch=5 c=7 v=111
5893 Par ch=5 c=7 v=103
5895 Par ch=5 c=7 v=95
5896 Par ch=5 c=7 v=86
5897 Par ch=5 c=7 v=78
5898 Par ch=5 c=7 v=70
5899 Par ch=5 c=7 v=62
5900 Par ch=5 c=7 v=53
5902 Par ch=5 c=7 v=45
5903 Par ch=5 c=7 v=37
5903 Par ch=5 c=7 v=29
5905 Par ch=5 c=7 v=21
5906 Par ch=5 c=7 v=12
5907 Par ch=5 c=7 v=20
5908 Par ch=5 c=7 v=29
5909 Par ch=5 c=7 v=37
5910 Par ch=5 c=7 v=45
5912 Par ch=5 c=7 v=53
5913 Par ch=5 c=7 v=70
5913 Par ch=5 c=7 v=62
5915 Par ch=5 c=7 v=78
5916 Par ch=5 c=7 v=86
5917 Par ch=5 c=7 v=95
5918 Par ch=5 c=7 v=103
5919 Par ch=5 c=7 v=111
5920 Par ch=5 c=7 v=119
5922 Par ch=5 c=7 v=127
5923 Par ch=5 c=7 v=111
5923 Par ch=5 c=7 v=119
5925 Par ch=5 c=7 v=103
5926 Par ch=5 c=7 v=95
5927 Par ch=5 c=7 v=86
5928 Par ch=5 c=7 v=78
5929 Par ch=5 c=7 v=70
5930 Par ch=5 c=7 v=62
5932 Par ch=5 c=7 v=53
5933 Par ch=5 c=7 v=45
5934 Par ch=5 c=7 v=37
5935 Par ch=5 c=7 v=29
5936 Par ch=5 c=7 v=21
5937 Par ch=5 c=7 v=12
5938 Par ch=5 c=7 v=20
5940 On ch=5 n=53 v=0
5940 On ch=5 n=58 v=0
5940 On ch=5 n=46 v=0
5940 On ch=5 n=62 v=0
5940 On ch=5 n=46 v=40
5940 On ch=5 n=58 v=40
5940 Par ch=5 c=7 v=78
5940 On ch=5 n=53 v=40
5940 Par ch=5 c=7 v=95
5940 Par ch=5 c=7 v=86
5942 Par ch=5 c=7 v=103
5943 Par ch=5 c=7 v=111
5944 Par ch=5 c=7 v=119
5945 Par ch=5 c=7 v=127
5946 Par ch=5 c=7 v=119
5947 Par ch=5 c=7 v=111
5948 Par ch=5 c=7 v=103
5950 Par ch=5 c=7 v=95
5950 Par ch=5 c=7 v=86
5952 Par ch=5 c=7 v=78
5953 Par ch=5 c=7 v=70
5954 Par ch=5 c=7 v=62
5955 Par ch=5 c=7 v=53
5956 Par ch=5 c=7 v=45
5957 Par ch=5 c=7 v=37
5958 Par ch=5 c=7 v=29
5960 Par ch=5 c=7 v=21
5960 Par ch=5 c=7 v=12
5962 Par ch=5 c=7 v=21
5963 Par ch=5 c=7 v=29
5964 Par ch=5 c=7 v=37
5965 Par ch=5 c=7 v=45
5966 Par ch=5 c=7 v=53
5967 Par ch=5 c=7 v=62
5968 Par ch=5 c=7 v=70
5970 Par ch=5 c=7 v=78
5971 Par ch=5 c=7 v=86
5972 Par ch=5 c=7 v=95
5973 Par ch=5 c=7 v=103
5974 Par ch=5 c=7 v=111
5975 Par ch=5 c=7 v=119
5977 Par ch=5 c=7 v=127
5977 Par ch=5 c=7 v=119
5978 Par ch=5 c=7 v=111
5980 Par ch=5 c=7 v=103
5981 Par ch=5 c=7 v=95
5982 Par ch=5 c=7 v=86
5983 Par ch=5 c=7 v=78
5984 Par ch=5 c=7 v=70
5985 Par ch=5 c=7 v=62
5987 Par ch=5 c=7 v=53
5987 Par ch=5 c=7 v=45
5988 Par ch=5 c=7 v=37
5990 Par ch=5 c=7 v=29
5991 Par ch=5 c=7 v=21
5992 Par ch=5 c=7 v=12
5993 Par ch=5 c=7 v=21
5994 Par ch=5 c=7 v=29
5995 Par ch=5 c=7 v=37
5997 Par ch=5 c=7 v=53
5997 Par ch=5 c=7 v=45
5998 Par ch=5 c=7 v=62
6000 On ch=5 n=53 v=0
6000 On ch=5 n=58 v=0
6000 On ch=5 n=46 v=0
6000 On ch=5 n=53 v=40
6000 On ch=5 n=46 v=40
6000 On ch=5 n=58 v=40
6000 Par ch=5 c=7 v=70
6000 On ch=5 n=62 v=40
6001 Par ch=5 c=7 v=78
6002 Par ch=5 c=7 v=86
6003 Par ch=5 c=7 v=95
6004 Par ch=5 c=7 v=103
6005 Par ch=5 c=7 v=111
6007 Par ch=5 c=7 v=119
6008 Par ch=5 c=7 v=127
6008 Par ch=5 c=7 v=119
6010 Par ch=5 c=7 v=111
6011 Par ch=5 c=7 v=103
6012 Par ch=5 c=7 v=95
6013 Par ch=5 c=7 v=86
6014 Par ch=5 c=7 v=78
6015 Par ch=5 c=7 v=70
6017 Par ch=5 c=7 v=62
6018 Par ch=5 c=7 v=53
6018 Par ch=5 c=7 v=45
6020 Par ch=5 c=7 v=37
6021 Par ch=5 c=7 v=29
6022 Par ch=5 c=7 v=21
6023 Par ch=5 c=7 v=12
6024 Par ch=5 c=7 v=21
6025 Par ch=5 c=7 v=29
6027 Par ch=5 c=7 v=37
6028 Par ch=5 c=7 v=45
6029 Par ch=5 c=7 v=53
6030 Par ch=5 c=7 v=62
6031 Par ch=5 c=7 v=70
6032 Par ch=5 c=7 v=78
6033 Par ch=5 c=7 v=86
6034 Par ch=5 c=7 v=95
6035 Par ch=5 c=7 v=103
6037 Par ch=5 c=7 v=111
6038 Par ch=5 c=7 v=119
6039 Par ch=5 c=7 v=127
6040 Par ch=5 c=7 v=119
6041 Par ch=5 c=7 v=111
6042 Par ch=5 c=7 v=103
6043 Par ch=5 c=7 v=95
6045 Par ch=5 c=7 v=78
6045 Par ch=5 c=7 v=86
6047 Par ch=5 c=7 v=70
6048 Par ch=5 c=7 v=62
6049 Par ch=5 c=7 v=53
6050 Par ch=5 c=7 v=45
6051 Par ch=5 c=7 v=37
6052 Par ch=5 c=7 v=29
6053 Par ch=5 c=7 v=21
6055 Par ch=5 c=7 v=12
6055 Par ch=5 c=7 v=21
6057 Par ch=5 c=7 v=29
6058 Par ch=5 c=7 v=37
6059 Par ch=5 c=7 v=45
6060 On ch=5 n=62 v=0
6060 On ch=5 n=53 v=0
6060 On ch=5 n=46 v=0
6060 On ch=5 n=58 v=0
6060 Par ch=5 c=7 v=78
6060 On ch=5 n=53 v=40
6060 On ch=5 n=58 v=40
6060 On ch=5 n=46 v=40
6060 Par ch=5 c=7 v=86
6061 Par ch=5 c=7 v=95
6062 Par ch=5 c=7 v=103
6063 Par ch=5 c=7 v=111
6065 Par ch=5 c=7 v=119
6066 Par ch=5 c=7 v=127
6067 Par ch=5 c=7 v=119
6068 Par ch=5 c=7 v=111
6069 Par ch=5 c=7 v=103
6070 Par ch=5 c=7 v=95
6071 Par ch=5 c=7 v=86
6072 Par ch=5 c=7 v=78
6073 Par ch=5 c=7 v=70
6075 Par ch=5 c=7 v=62
6076 Par ch=5 c=7 v=53
6077 Par ch=5 c=7 v=45
6078 Par ch=5 c=7 v=37
6079 Par ch=5 c=7 v=29
6080 Par ch=5 c=7 v=21
6082 Par ch=5 c=7 v=21
6082 Par ch=5 c=7 v=12
6083 Par ch=5 c=7 v=29
6085 Par ch=5 c=7 v=37
6086 Par ch=5 c=7 v=45
6087 Par ch=5 c=7 v=53
6088 Par ch=5 c=7 v=62
6089 Par ch=5 c=7 v=70
6090 Par ch=5 c=7 v=78
6092 Par ch=5 c=7 v=86
6092 Par ch=5 c=7 v=95
6093 Par ch=5 c=7 v=103
6095 Par ch=5 c=7 v=111
6096 Par ch=5 c=7 v=119
6097 Par ch=5 c=7 v=127
6098 Par ch=5 c=7 v=119
6099 Par ch=5 c=7 v=111
6100 Par ch=5 c=7 v=103
6102 Par ch=5 c=7 v=95
6103 Par ch=5 c=7 v=86
6103 Par ch=5 c=7 v=78
6105 Par ch=5 c=7 v=70
6106 Par ch=5 c=7 v=62
6107 Par ch=5 c=7 v=53
6108 Par ch=5 c=7 v=45
6109 Par ch=5 c=7 v=37
6110 Par ch=5 c=7 v=29
6112 Par ch=5 c=7 v=21
6113 Par ch=5 c=7 v=12
6113 Par ch=5 c=7 v=21
6115 Par ch=5 c=7 v=29
6116 Par ch=5 c=7 v=37
6117 Par ch=5 c=7 v=45
6118 Par ch=5 c=7 v=53
6119 Par ch=5 c=7 v=78
6119 Par ch=5 c=7 v=86
6120 On ch=5 n=46 v=0
6120 On ch=5 n=58 v=0
6120 On ch=5 n=53 v=0
6120 On ch=5 n=46 v=40
6120 Par ch=5 c=7 v=95
6120 On ch=5 n=62 v=40
6120 On ch=5 n=53 v=40
6120 On ch=5 n=58 v=40
6121 Par ch=5 c=7 v=103
6123 Par ch=5 c=7 v=111
6124 Par ch=5 c=7 v=119
6125 Par ch=5 c=7 v=127
6126 Par ch=5 c=7 v=119
6127 Par ch=5 c=7 v=111
6128 Par ch=5 c=7 v=103
6129 Par ch=5 c=7 v=95
6130 Par ch=5 c=7 v=86
6132 Par ch=5 c=7 v=78
6133 Par ch=5 c=7 v=70
6134 Par ch=5 c=7 v=62
6135 Par ch=5 c=7 v=53
6136 Par ch=5 c=7 v=45
6137 Par ch=5 c=7 v=37
6138 Par ch=5 c=7 v=29
6140 Par ch=5 c=7 v=12
6140 Par ch=5 c=7 v=21
6142 Par ch=5 c=7 v=21
6143 Par ch=5 c=7 v=29
6144 Par ch=5 c=7 v=37
6145 Par ch=5 c=7 v=45
6146 Par ch=5 c=7 v=53
6147 Par ch=5 c=7 v=62
6148 Par ch=5 c=7 v=70
6150 Par ch=5 c=7 v=78
6150 Par ch=5 c=7 v=86
6151 Par ch=5 c=7 v=95
6153 Par ch=5 c=7 v=103
6154 Par ch=5 c=7 v=111
6155 Par ch=5 c=7 v=119
6156 Par ch=5 c=7 v=127
6157 Par ch=5 c=7 v=119
6158 Par ch=5 c=7 v=111
6160 Par ch=5 c=7 v=103
6161 Par ch=5 c=7 v=95
6162 Par ch=5 c=7 v=86
6163 Par ch=5 c=7 v=78
6164 Par ch=5 c=7 v=70
6165 Par ch=5 c=7 v=62
6166 Par ch=5 c=7 v=53
6167 Par ch=5 c=7 v=45
6168 Par ch=5 c=7 v=37
6170 Par ch=5 c=7 v=29
6171 Par ch=5 c=7 v=21
6172 Par ch=5 c=7 v=12
6173 Par ch=5 c=7 v=21
6174 Par ch=5 c=7 v=29
6175 Par ch=5 c=7 v=37
6177 Par ch=5 c=7 v=53
6177 Par ch=5 c=7 v=45
6178 Par ch=5 c=7 v=62
6180 On ch=5 n=58 v=0
6180 On ch=5 n=46 v=0
6180 On ch=5 n=62 v=0
6180 On ch=5 n=53 v=0
6180 Par ch=5 c=7 v=70
6180 On ch=5 n=46 v=40
6180 On ch=5 n=53 v=40
6180 On ch=5 n=58 v=40
6181 Par ch=5 c=7 v=78
6181 Par ch=5 c=7 v=86
6183 Par ch=5 c=7 v=95
6184 Par ch=5 c=7 v=103
6185 Par ch=5 c=7 v=111
6187 Par ch=5 c=7 v=127
6187 Par ch=5 c=7 v=119
6188 Par ch=5 c=7 v=119
6190 Par ch=5 c=7 v=111
6191 Par ch=5 c=7 v=103
6192 Par ch=5 c=7 v=95
6193 Par ch=5 c=7 v=86
6194 Par ch=5 c=7 v=78
6195 Par ch=5 c=7 v=70
6196 Par ch=5 c=7 v=62
6198 Par ch=5 c=7 v=53
6198 Par ch=5 c=7 v=45
6200 Par ch=5 c=7 v=37
6201 Par ch=5 c=7 v=29
6202 Par ch=5 c=7 v=21
6203 Par ch=5 c=7 v=12
6204 Par ch=5 c=7 v=21
6205 Par ch=5 c=7 v=29
6207 Par ch=5 c=7 v=37
6208 Par ch=5 c=7 v=45
6208 Par ch=5 c=7 v=53
6210 Par ch=5 c=7 v=62
6211 Par ch=5 c=7 v=70
6212 Par ch=5 c=7 v=78
6213 Par ch=5 c=7 v=86
6214 Par ch=5 c=7 v=95
6215 Par ch=5 c=7 v=103
6217 Par ch=5 c=7 v=111
6218 Par ch=5 c=7 v=127
6218 Par ch=5 c=7 v=119
6220 Par ch=5 c=7 v=119
6221 Par ch=5 c=7 v=111
6222 Par ch=5 c=7 v=103
6223 Par ch=5 c=7 v=95
6224 Par ch=5 c=7 v=86
6225 Par ch=5 c=7 v=78
6226 Par ch=5 c=7 v=70
6228 Par ch=5 c=7 v=62
6229 Par ch=5 c=7 v=53
6230 Par ch=5 c=7 v=45
6231 Par ch=5 c=7 v=37
6232 Par ch=5 c=7 v=29
6233 Par ch=5 c=7 v=21
6235 Par ch=5 c=7 v=21
6235 Par ch=5 c=7 v=12
6237 Par ch=5 c=7 v=29
6238 Par ch=5 c=7 v=37
6239 Par ch=5 c=7 v=45
6240 On ch=5 n=58 v=0
6240 On ch=5 n=53 v=0
6240 On ch=5 n=46 v=0
6240 On ch=5 n=65 v=40
6240 On ch=5 n=53 v=40
6240 On ch=5 n=60 v=40
6240 On ch=5 n=57 v=40
6300 On ch=5 n=57 v=0
6300 On ch=5 n=65 v=0
6300 On ch=5 n=53 v=0
6300 On ch=5 n=60 v=0
6300 Par ch=5 c=7 v=78
6300 Par ch=5 c=7 v=70
6300 On ch=5 n=53 v=40
6300 On ch=5 n=57 v=40
6300 On ch=5 n=60 v=40
6302 Par ch=5 c=7 v=86
6303 Par ch=5 c=7 v=95
6304 Par ch=5 c=7 v=103
6305 Par ch=5 c=7 v=111
6306 Par ch=5 c=7 v=119
6307 Par ch=5 c=7 v=127
6308 Par ch=5 c=7 v=119
6310 Par ch=5 c=7 v=103
6310 Par ch=5 c=7 v=111
6312 Par ch=5 c=7 v=95
6313 Par ch=5 c=7 v=86
6314 Par ch=5 c=7 v=78
6315 Par ch=5 c=7 v=70
6316 Par ch=5 c=7 v=62
6317 Par ch=5 c=7 v=53
6318 Par ch=5 c=7 v=45
6320 Par ch=5 c=7 v=37
6321 Par ch=5 c=7 v=29
6322 Par ch=5 c=7 v=21
6323 Par ch=5 c=7 v=12
6324 Par ch=5 c=7 v=21
6325 Par ch=5 c=7 v=29
6326 Par ch=5 c=7 v=37
6327 Par ch=5 c=7 v=45
6328 Par ch=5 c=7 v=53
6330 Par ch=5 c=7 v=62
6331 Par ch=5 c=7 v=70
6332 Par ch=5 c=7 v=78
6333 Par ch=5 c=7 v=86
6334 Par ch=5 c=7 v=95
6335 Par ch=5 c=7 v=103
6337 Par ch=5 c=7 v=111
6337 Par ch=5 c=7 v=119
6338 Par ch=5 c=7 v=127
6340 Par ch=5 c=7 v=119
6341 Par ch=5 c=7 v=111
6342 Par ch=5 c=7 v=103
6343 Par ch=5 c=7 v=95
6344 Par ch=5 c=7 v=86
6345 Par ch=5 c=7 v=78
6347 Par ch=5 c=7 v=62
6347 Par ch=5 c=7 v=70
6348 Par ch=5 c=7 v=53
6350 Par ch=5 c=7 v=45
6351 Par ch=5 c=7 v=37
6352 Par ch=5 c=7 v=29
6353 Par ch=5 c=7 v=21
6354 Par ch=5 c=7 v=12
6355 Par ch=5 c=7 v=21
6357 Par ch=5 c=7 v=29
6358 Par ch=5 c=7 v=37
6358 Par ch=5 c=7 v=45
6360 On ch=5 n=60 v=0
6360 On ch=5 n=57 v=0
6360 On ch=5 n=53 v=0
6360 On ch=5 n=65 v=40
6360 Par ch=5 c=7 v=53
6360 On ch=5 n=53 v=40
6360 On ch=5 n=57 v=40
6360 On ch=5 n=60 v=40
6361 Par ch=5 c=7 v=62
6362 Par ch=5 c=7 v=70
6363 Par ch=5 c=7 v=78
6364 Par ch=5 c=7 v=86
6365 Par ch=5 c=7 v=95
6367 Par ch=5 c=7 v=103
6368 Par ch=5 c=7 v=119
6368 Par ch=5 c=7 v=111
6370 Par ch=5 c=7 v=127
6371 Par ch=5 c=7 v=119
6372 Par ch=5 c=7 v=111
6373 Par ch=5 c=7 v=103
6374 Par ch=5 c=7 v=95
6375 Par ch=5 c=7 v=86
6377 Par ch=5 c=7 v=78
6378 Par ch=5 c=7 v=62
6378 Par ch=5 c=7 v=70
6380 Par ch=5 c=7 v=53
6381 Par ch=5 c=7 v=45
6382 Par ch=5 c=7 v=37
6383 Par ch=5 c=7 v=29
6384 Par ch=5 c=7 v=21
6385 Par ch=5 c=7 v=12
6387 Par ch=5 c=7 v=20
6388 Par ch=5 c=7 v=29
6389 Par ch=5 c=7 v=37
6390 Par ch=5 c=7 v=45
6391 Par ch=5 c=7 v=53
6392 Par ch=5 c=7 v=62
6393 Par ch=5 c=7 v=70
6395 Par ch=5 c=7 v=86
6395 Par ch=5 c=7 v=78
6397 Par ch=5 c=7 v=95
6398 Par ch=5 c=7 v=103
6399 Par ch=5 c=7 v=111
6400 Par ch=5 c=7 v=119
6401 Par ch=5 c=7 v=127
6402 Par ch=5 c=7 v=119
6403 Par ch=5 c=7 v=111
6405 Par ch=5 c=7 v=103
6405 Par ch=5 c=7 v=95
6407 Par ch=5 c=7 v=86
6408 Par ch=5 c=7 v=78
6409 Par ch=5 c=7 v=70
6410 Par ch=5 c=7 v=62
6411 Par ch=5 c=7 v=53
6412 Par ch=5 c=7 v=45
6413 Par ch=5 c=7 v=37
6415 Par ch=5 c=7 v=29
6415 Par ch=5 c=7 v=21
6417 Par ch=5 c=7 v=12
6418 Par ch=5 c=7 v=20
6419 Par ch=5 c=7 v=29
6420 On ch=5 n=60 v=0
6420 On ch=5 n=65 v=0
6420 On ch=5 n=53 v=0
6420 On ch=5 n=57 v=0
6420 Par ch=5 c=7 v=86
6420 On ch=5 n=60 v=40
6420 Par ch=5 c=7 v=78
6420 On ch=5 n=53 v=40
6420 On ch=5 n=57 v=40
6421 Par ch=5 c=7 v=95
6422 Par ch=5 c=7 v=103
6423 Par ch=5 c=7 v=111
6425 Par ch=5 c=7 v=119
6426 Par ch=5 c=7 v=127
6427 Par ch=5 c=7 v=119
6428 Par ch=5 c=7 v=111
6429 Par ch=5 c=7 v=103
6430 Par ch=5 c=7 v=95
6432 Par ch=5 c=7 v=78
6432 Par ch=5 c=7 v=86
6433 Par ch=5 c=7 v=70
6435 Par ch=5 c=7 v=62
6436 Par ch=5 c=7 v=53
6437 Par ch=5 c=7 v=45
6438 Par ch=5 c=7 v=37
6439 Par ch=5 c=7 v=29
6440 Par ch=5 c=7 v=21
6442 Par ch=5 c=7 v=21
6442 Par ch=5 c=7 v=12
6443 Par ch=5 c=7 v=29
6445 Par ch=5 c=7 v=37
6446 Par ch=5 c=7 v=45
6447 Par ch=5 c=7 v=53
6448 Par ch=5 c=7 v=62
6449 Par ch=5 c=7 v=70
6450 Par ch=5 c=7 v=78
6452 Par ch=5 c=7 v=95
6452 Par ch=5 c=7 v=86
6453 Par ch=5 c=7 v=103
6455 Par ch=5 c=7 v=111
6456 Par ch=5 c=7 v=119
6457 Par ch=5 c=7 v=127
6458 Par ch=5 c=7 v=119
6459 Par ch=5 c=7 v=111
6460 Par ch=5 c=7 v=103
6462 Par ch=5 c=7 v=95
6463 Par ch=5 c=7 v=86
6463 Par ch=5 c=7 v=78
6465 Par ch=5 c=7 v=70
6466 Par ch=5 c=7 v=62
6467 Par ch=5 c=7 v=53
6468 Par ch=5 c=7 v=45
6469 Par ch=5 c=7 v=37
6470 Par ch=5 c=7 v=29
6472 Par ch=5 c=7 v=21
6473 Par ch=5 c=7 v=21
6473 Par ch=5 c=7 v=12
6475 Par ch=5 c=7 v=29
6476 Par ch=5 c=7 v=37
6477 Par ch=5 c=7 v=45
6478 Par ch=5 c=7 v=53
6479 Par ch=5 c=7 v=62
6480 On ch=5 n=57 v=0
6480 On ch=5 n=53 v=0
6480 On ch=5 n=60 v=0
6480 On ch=5 n=60 v=40
6480 Par ch=5 c=7 v=70
6480 On ch=5 n=53 v=40
6480 On ch=5 n=65 v=40
6480 On ch=5 n=57 v=40
6482 Par ch=5 c=7 v=78
6483 Par ch=5 c=7 v=86
6484 Par ch=5 c=7 v=95
6485 Par ch=5 c=7 v=103
6486 Par ch=5 c=7 v=111
6487 Par ch=5 c=7 v=119
6488 Par ch=5 c=7 v=127
6489 Par ch=5 c=7 v=119
6490 Par ch=5 c=7 v=111
6491 Par ch=5 c=7 v=103
6493 Par ch=5 c=7 v=95
6494 Par ch=5 c=7 v=86
6495 Par ch=5 c=7 v=78
6496 Par ch=5 c=7 v=70
6497 Par ch=5 c=7 v=62
6498 Par ch=5 c=7 v=53
6500 Par ch=5 c=7 v=37
6500 Par ch=5 c=7 v=45
6502 Par ch=5 c=7 v=29
6503 Par ch=5 c=7 v=21
6504 Par ch=5 c=7 v=12
6505 Par ch=5 c=7 v=21
6506 Par ch=5 c=7 v=29
6507 Par ch=5 c=7 v=37
6508 Par ch=5 c=7 v=45
6510 Par ch=5 c=7 v=62
6510 Par ch=5 c=7 v=53
6512 Par ch=5 c=7 v=70
6513 Par ch=5 c=7 v=78
6514 Par ch=5 c=7 v=86
6515 Par ch=5 c=7 v=95
6516 Par ch=5 c=7 v=103
6517 Par ch=5 c=7 v=111
6518 Par ch=5 c=7 v=119
6520 Par ch=5 c=7 v=127
6521 Par ch=5 c=7 v=119
6522 Par ch=5 c=7 v=111
6523 Par ch=5 c=7 v=103
6524 Par ch=5 c=7 v=95
6525 Par ch=5 c=7 v=86
6526 Par ch=5 c=7 v=78
6527 Par ch=5 c=7 v=70
6528 Par ch=5 c=7 v=62
6530 Par ch=5 c=7 v=53
6531 Par ch=5 c=7 v=45
6532 Par ch=5 c=7 v=37
6533 Par ch=5 c=7 v=29
6534 Par ch=5 c=7 v=21
6535 Par ch=5 c=7 v=12
6537 Par ch=5 c=7 v=21
6537 Par ch=5 c=7 v=29
6538 Par ch=5 c=7 v=37
6540 On ch=5 n=57 v=0
6540 On ch=5 n=60 v=0
6540 On ch=5 n=53 v=0
6540 On ch=5 n=65 v=0
6540 On ch=5 n=57 v=40
6540 On ch=5 n=60 v=40
6540 Par ch=5 c=7 v=45
6540 On ch=5 n=53 v=40
6541 Par ch=5 c=7 v=53
6542 Par ch=5 c=7 v=62
6543 Par ch=5 c=7 v=70
6544 Par ch=5 c=7 v=78
6545 Par ch=5 c=7 v=86
6547 Par ch=5 c=7 v=103
6547 Par ch=5 c=7 v=95
6548 Par ch=5 c=7 v=111
6550 Par ch=5 c=7 v=119
6551 Par ch=5 c=7 v=127
6552 Par ch=5 c=7 v=119
6553 Par ch=5 c=7 v=111
6554 Par ch=5 c=7 v=103
6555 Par ch=5 c=7 v=95
6557 Par ch=5 c=7 v=86
6558 Par ch=5 c=7 v=78
6558 Par ch=5 c=7 v=70
6560 Par ch=5 c=7 v=62
6561 Par ch=5 c=7 v=53
6562 Par ch=5 c=7 v=45
6563 Par ch=5 c=7 v=37
6564 Par ch=5 c=7 v=29
6565 Par ch=5 c=7 v=21
6567 Par ch=5 c=7 v=12
6568 Par ch=5 c=7 v=20
6568 Par ch=5 c=7 v=29
6570 Par ch=5 c=7 v=37
6571 Par ch=5 c=7 v=45
6572 Par ch=5 c=7 v=53
6573 Par ch=5 c=7 v=62
6574 Par ch=5 c=7 v=70
6575 Par ch=5 c=7 v=78
6577 Par ch=5 c=7 v=86
6578 Par ch=5 c=7 v=95
6579 Par ch=5 c=7 v=103
6580 Par ch=5 c=7 v=111
6581 Par ch=5 c=7 v=119
6582 Par ch=5 c=7 v=127
6583 Par ch=5 c=7 v=119
6584 Par ch=5 c=7 v=111
6585 Par ch=5 c=7 v=103
6587 Par ch=5 c=7 v=95
6588 Par ch=5 c=7 v=86
6589 Par ch=5 c=7 v=78
6590 Par ch=5 c=7 v=70
6591 Par ch=5 c=7 v=62
6592 Par ch=5 c=7 v=53
6593 Par ch=5 c=7 v=45
6595 Par ch=5 c=7 v=29
6595 Par ch=5 c=7 v=37
6597 Par ch=5 c=7 v=21
6598 Par ch=5 c=7 v=12
6599 Par ch=5 c=7 v=20
6600 On ch=5 n=53 v=0
6600 On ch=5 n=60 v=0
6600 On ch=5 n=57 v=0
6600 On ch=5 n=53 v=40
6600 On ch=5 n=57 v=40
6600 On ch=5 n=60 v=40
6600 On ch=5 n=65 v=40
6600 Par ch=5 c=7 v=29
6601 Par ch=5 c=7 v=37
6602 Par ch=5 c=7 v=45
6603 Par ch=5 c=7 v=53
6605 Par ch=5 c=7 v=62
6605 Par ch=5 c=7 v=70
6607 Par ch=5 c=7 v=78
6608 Par ch=5 c=7 v=86
6609 Par ch=5 c=7 v=95
6610 Par ch=5 c=7 v=103
6611 Par ch=5 c=7 v=111
6612 Par ch=5 c=7 v=119
6613 Par ch=5 c=7 v=127
6615 Par ch=5 c=7 v=119
6616 Par ch=5 c=7 v=111
6617 Par ch=5 c=7 v=103
6618 Par ch=5 c=7 v=95
6619 Par ch=5 c=7 v=86
6620 Par ch=5 c=7 v=78
6621 Par ch=5 c=7 v=70
6622 Par ch=5 c=7 v=62
6623 Par ch=5 c=7 v=53
6625 Par ch=5 c=7 v=45
6626 Par ch=5 c=7 v=37
6627 Par ch=5 c=7 v=29
6628 Par ch=5 c=7 v=21
6629 Par ch=5 c=7 v=12
6630 Par ch=5 c=7 v=20
6632 Par ch=5 c=7 v=29
6632 Par ch=5 c=7 v=37
6633 Par ch=5 c=7 v=45
6635 Par ch=5 c=7 v=53
6636 Par ch=5 c=7 v=62
6637 Par ch=5 c=7 v=70
6638 Par ch=5 c=7 v=78
6639 Par ch=5 c=7 v=86
6640 Par ch=5 c=7 v=95
6642 Par ch=5 c=7 v=103
6642 Par ch=5 c=7 v=111
6643 Par ch=5 c=7 v=119
6645 Par ch=5 c=7 v=127
6646 Par ch=5 c=7 v=119
6647 Par ch=5 c=7 v=111
6648 Par ch=5 c=7 v=103
6649 Par ch=5 c=7 v=95
6650 Par ch=5 c=7 v=86
6652 Par ch=5 c=7 v=78
6653 Par ch=5 c=7 v=62
6653 Par ch=5 c=7 v=70
6655 Par ch=5 c=7 v=53
6656 Par ch=5 c=7 v=45
6657 Par ch=5 c=7 v=37
6658 Par ch=5 c=7 v=29
6659 Par ch=5 c=7 v=21
6660 On ch=5 n=65 v=0
6660 On ch=5 n=53 v=0
6660 On ch=5 n=57 v=0
6660 On ch=5 n=60 v=0
6660 On ch=5 n=57 v=40
6660 On ch=5 n=53 v=40
6660 On ch=5 n=60 v=40
6660 Par ch=5 c=7 v=12
6662 Par ch=5 c=7 v=20
6663 Par ch=5 c=7 v=29
6663 Par ch=5 c=7 v=37
6665 Par ch=5 c=7 v=45
6666 Par ch=5 c=7 v=53
6667 Par ch=5 c=7 v=62
6668 Par ch=5 c=7 v=70
6669 Par ch=5 c=7 v=78
6670 Par ch=5 c=7 v=86
6672 Par ch=5 c=7 v=95
6673 Par ch=5 c=7 v=103
6674 Par ch=5 c=7 v=111
6675 Par ch=5 c=7 v=119
6676 Par ch=5 c=7 v=127
6677 Par ch=5 c=7 v=119
6678 Par ch=5 c=7 v=111
6679 Par ch=5 c=7 v=103
6680 Par ch=5 c=7 v=95
6682 Par ch=5 c=7 v=86
6683 Par ch=5 c=7 v=78
6684 Par ch=5 c=7 v=70
6685 Par ch=5 c=7 v=62
6686 Par ch=5 c=7 v=54
6687 Par ch=5 c=7 v=45
6688 Par ch=5 c=7 v=37
6690 Par ch=5 c=7 v=29
6690 Par ch=5 c=7 v=21
6691 Par ch=5 c=7 v=12
6693 Par ch=5 c=7 v=20
6694 Par ch=5 c=7 v=29
6695 Par ch=5 c=7 v=37
6696 Par ch=5 c=7 v=45
6697 Par ch=5 c=7 v=53
6698 Par ch=5 c=7 v=62
6700 Par ch=5 c=7 v=78
6700 Par ch=5 c=7 v=70
6702 Par ch=5 c=7 v=86
6703 Par ch=5 c=7 v=95
6704 Par ch=5 c=7 v=103
6705 Par ch=5 c=7 v=111
6706 Par ch=5 c=7 v=119
6707 Par ch=5 c=7 v=127
6708 Par ch=5 c=7 v=119
6710 Par ch=5 c=7 v=111
6711 Par ch=5 c=7 v=103
6712 Par ch=5 c=7 v=95
6713 Par ch=5 c=7 v=86
6714 Par ch=5 c=7 v=78
6715 Par ch=5 c=7 v=70
6716 Par ch=5 c=7 v=62
6717 Par ch=5 c=7 v=54
6718 Par ch=5 c=7 v=45
6720 On ch=5 n=60 v=0
6720 On ch=5 n=53 v=0
6720 On ch=5 n=57 v=0
6720 Par ch=5 c=7 v=78
6720 On ch=5 n=60 v=40
6720 On ch=5 n=52 v=40
6720 On ch=5 n=55 v=40
6720 On ch=5 n=64 v=40
6720 Par ch=5 c=7 v=86
6721 Par ch=5 c=7 v=95
6721 Par ch=5 c=7 v=103
6723 Par ch=5 c=7 v=111
6724 Par ch=5 c=7 v=119
6725 Par ch=5 c=7 v=127
6727 Par ch=5 c=7 v=119
6727 Par ch=5 c=7 v=111
6728 Par ch=5 c=7 v=103
6730 Par ch=5 c=7 v=95
6731 Par ch=5 c=7 v=86
6732 Par ch=5 c=7 v=78
6733 Par ch=5 c=7 v=70
6734 Par ch=5 c=7 v=62
6735 Par ch=5 c=7 v=53
6736 Par ch=5 c=7 v=45
6737 Par ch=5 c=7 v=37
6738 Par ch=5 c=7 v=29
6740 Par ch=5 c=7 v=21
6741 Par ch=5 c=7 v=12
6742 Par ch=5 c=7 v=21
6743 Par ch=5 c=7 v=29
6744 Par ch=5 c=7 v=37
6745 Par ch=5 c=7 v=45
6747 Par ch=5 c=7 v=53
6748 Par ch=5 c=7 v=62
6748 Par ch=5 c=7 v=70
6750 Par ch=5 c=7 v=78
6751 Par ch=5 c=7 v=86
6752 Par ch=5 c=7 v=95
6753 Par ch=5 c=7 v=103
6754 Par ch=5 c=7 v=111
6755 Par ch=5 c=7 v=119
6757 Par ch=5 c=7 v=127
6758 Par ch=5 c=7 v=119
6758 Par ch=5 c=7 v=111
6760 Par ch=5 c=7 v=103
6761 Par ch=5 c=7 v=95
6762 Par ch=5 c=7 v=86
6763 Par ch=5 c=7 v=78
6764 Par ch=5 c=7 v=70
6765 Par ch=5 c=7 v=62
6767 Par ch=5 c=7 v=53
6768 Par ch=5 c=7 v=45
6768 Par ch=5 c=7 v=37
6770 Par ch=5 c=7 v=29
6771 Par ch=5 c=7 v=21
6772 Par ch=5 c=7 v=12
6773 Par ch=5 c=7 v=21
6774 Par ch=5 c=7 v=29
6775 Par ch=5 c=7 v=37
6777 Par ch=5 c=7 v=45
6778 Par ch=5 c=7 v=53
6779 Par ch=5 c=7 v=62
6780 On ch=5 n=64 v=0
6780 On ch=5 n=60 v=0
6780 On ch=5 n=52 v=0
6780 On ch=5 n=55 v=0
6780 Par ch=5 c=7 v=70
6780 On ch=5 n=60 v=40
6780 On ch=5 n=55 v=40
6780 On ch=5 n=52 v=40
6781 Par ch=5 c=7 v=78
6782 Par ch=5 c=7 v=86
6783 Par ch=5 c=7 v=95
6785 Par ch=5 c=7 v=103
6785 Par ch=5 c=7 v=111
6787 Par ch=5 c=7 v=119
6788 Par ch=5 c=7 v=127
6789 Par ch=5 c=7 v=119
6790 Par ch=5 c=7 v=111
6791 Par ch=5 c=7 v=103
6792 Par ch=5 c=7 v=95
6793 Par ch=5 c=7 v=86
6795 Par ch=5 c=7 v=78
6795 Par ch=5 c=7 v=70
6797 Par ch=5 c=7 v=62
6798 Par ch=5 c=7 v=53
6799 Par ch=5 c=7 v=45
6800 Par ch=5 c=7 v=37
6801 Par ch=5 c=7 v=29
6802 Par ch=5 c=7 v=21
6803 Par ch=5 c=7 v=12
6805 Par ch=5 c=7 v=21
6805 Par ch=5 c=7 v=29
6807 Par ch=5 c=7 v=37
6808 Par ch=5 c=7 v=45
6809 Par ch=5 c=7 v=53
6810 Par ch=5 c=7 v=62
6811 Par ch=5 c=7 v=70
6812 Par ch=5 c=7 v=78
6813 Par ch=5 c=7 v=86
6815 Par ch=5 c=7 v=95
6816 Par ch=5 c=7 v=103
6817 Par ch=5 c=7 v=111
6818 Par ch=5 c=7 v=119
6819 Par ch=5 c=7 v=127
6820 Par ch=5 c=7 v=119
6822 Par ch=5 c=7 v=111
6822 Par ch=5 c=7 v=103
6823 Par ch=5 c=7 v=95
6825 Par ch=5 c=7 v=86
6826 Par ch=5 c=7 v=78
6827 Par ch=5 c=7 v=70
6828 Par ch=5 c=7 v=62
6829 Par ch=5 c=7 v=53
6830 Par ch=5 c=7 v=45
6832 Par ch=5 c=7 v=29
6832 Par ch=5 c=7 v=37
6833 Par ch=5 c=7 v=21
6835 Par ch=5 c=7 v=12
6836 Par ch=5 c=7 v=21
6837 Par ch=5 c=7 v=29
6838 Par ch=5 c=7 v=37
6839 Par ch=5 c=7 v=45
6840 On ch=5 n=52 v=0
6840 On ch=5 n=55 v=0
6840 On ch=5 n=60 v=0
6840 On ch=5 n=52 v=40
6840 On ch=5 n=64 v=40
6840 Par ch=5 c=7 v=53
6840 On ch=5 n=55 v=40
6840 On ch=5 n=60 v=40
6842 Par ch=5 c=7 v=62
6842 Par ch=5 c=7 v=70
6843 Par ch=5 c=7 v=78
6845 Par ch=5 c=7 v=86
6846 Par ch=5 c=7 v=95
6847 Par ch=5 c=7 v=103
6848 Par ch=5 c=7 v=111
6849 Par ch=5 c=7 v=119
6850 Par ch=5 c=7 v=127
6852 Par ch=5 c=7 v=119
6853 Par ch=5 c=7 v=111
6853 Par ch=5 c=7 v=103
6855 Par ch=5 c=7 v=95
6856 Par ch=5 c=7 v=86
6857 Par ch=5 c=7 v=78
6858 Par ch=5 c=7 v=70
6859 Par ch=5 c=7 v=62
6860 Par ch=5 c=7 v=53
6862 Par ch=5 c=7 v=45
6863 Par ch=5 c=7 v=29
6863 Par ch=5 c=7 v=37
6865 Par ch=5 c=7 v=21
6866 Par ch=5 c=7 v=12
6867 Par ch=5 c=7 v=20
6868 Par ch=5 c=7 v=29
6869 Par ch=5 c=7 v=37
6870 Par ch=5 c=7 v=45
6872 Par ch=5 c=7 v=53
6873 Par ch=5 c=7 v=62
6874 Par ch=5 c=7 v=70
6875 Par ch=5 c=7 v=78
6876 Par ch=5 c=7 v=86
6877 Par ch=5 c=7 v=95
6878 Par ch=5 c=7 v=103
6879 Par ch=5 c=7 v=111
6880 Par ch=5 c=7 v=119
6882 Par ch=5 c=7 v=127
6883 Par ch=5 c=7 v=119
6884 Par ch=5 c=7 v=111
6885 Par ch=5 c=7 v=103
6886 Par ch=5 c=7 v=95
6887 Par ch=5 c=7 v=86
6888 Par ch=5 c=7 v=78
6890 Par ch=5 c=7 v=62
6890 Par ch=5 c=7 v=70
6892 Par ch=5 c=7 v=53
6893 Par ch=5 c=7 v=45
6894 Par ch=5 c=7 v=37
6895 Par ch=5 c=7 v=29
6896 Par ch=5 c=7 v=21
6897 Par ch=5 c=7 v=12
6898 Par ch=5 c=7 v=20
6900 On ch=5 n=60 v=0
6900 On ch=5 n=52 v=0
6900 On ch=5 n=64 v=0
6900 On ch=5 n=55 v=0
6900 Par ch=5 c=7 v=86
6900 Par ch=5 c=7 v=78
6900 On ch=5 n=52 v=40
6900 On ch=5 n=60 v=40
6900 Par ch=5 c=7 v=95
6900 On ch=5 n=55 v=40
6902 Par ch=5 c=7 v=103
6903 Par ch=5 c=7 v=111
6904 Par ch=5 c=7 v=119
6905 Par ch=5 c=7 v=127
6906 Par ch=5 c=7 v=119
6907 Par ch=5 c=7 v=111
6908 Par ch=5 c=7 v=103
6910 Par ch=5 c=7 v=95
6911 Par ch=5 c=7 v=86
6912 Par ch=5 c=7 v=78
6913 Par ch=5 c=7 v=70
6914 Par ch=5 c=7 v=62
6915 Par ch=5 c=7 v=53
6916 Par ch=5 c=7 v=45
6917 Par ch=5 c=7 v=37
6918 Par ch=5 c=7 v=29
6920 Par ch=5 c=7 v=21
6921 Par ch=5 c=7 v=12
6922 Par ch=5 c=7 v=21
6923 Par ch=5 c=7 v=29
6924 Par ch=5 c=7 v=37
6925 Par ch=5 c=7 v=45
6927 Par ch=5 c=7 v=62
6927 Par ch=5 c=7 v=53
6928 Par ch=5 c=7 v=70
6930 Par ch=5 c=7 v=78
6931 Par ch=5 c=7 v=86
6932 Par ch=5 c=7 v=95
6933 Par ch=5 c=7 v=103
6934 Par ch=5 c=7 v=111
6935 Par ch=5 c=7 v=119
6937 Par ch=5 c=7 v=127
6937 Par ch=5 c=7 v=119
6938 Par ch=5 c=7 v=111
6940 Par ch=5 c=7 v=103
6941 Par ch=5 c=7 v=95
6942 Par ch=5 c=7 v=86
6943 Par ch=5 c=7 v=78
6944 Par ch=5 c=7 v=70
6945 Par ch=5 c=7 v=62
6947 Par ch=5 c=7 v=53
6948 Par ch=5 c=7 v=45
6948 Par ch=5 c=7 v=37
6950 Par ch=5 c=7 v=29
6951 Par ch=5 c=7 v=21
6952 Par ch=5 c=7 v=12
6953 Par ch=5 c=7 v=21
6954 Par ch=5 c=7 v=29
6955 Par ch=5 c=7 v=37
6957 Par ch=5 c=7 v=45
6958 Par ch=5 c=7 v=53
6958 Par ch=5 c=7 v=62
6960 On ch=5 n=55 v=0
6960 On ch=5 n=60 v=0
6960 On ch=5 n=52 v=0
6960 On ch=5 n=60 v=40
6960 Par ch=5 c=7 v=70
6960 On ch=5 n=52 v=40
6960 On ch=5 n=64 v=40
6960 On ch=5 n=55 v=40
6961 Par ch=5 c=7 v=78
6962 Par ch=5 c=7 v=86
6963 Par ch=5 c=7 v=95
6964 Par ch=5 c=7 v=103
6965 Par ch=5 c=7 v=111
6967 Par ch=5 c=7 v=119
6968 Par ch=5 c=7 v=127
6969 Par ch=5 c=7 v=119
6970 Par ch=5 c=7 v=111
6971 Par ch=5 c=7 v=103
6972 Par ch=5 c=7 v=95
6973 Par ch=5 c=7 v=86
6974 Par ch=5 c=7 v=78
6975 Par ch=5 c=7 v=70
6977 Par ch=5 c=7 v=62
6978 Par ch=5 c=7 v=53
6979 Par ch=5 c=7 v=45
6980 Par ch=5 c=7 v=37
6981 Par ch=5 c=7 v=29
6982 Par ch=5 c=7 v=21
6983 Par ch=5 c=7 v=12
6985 Par ch=5 c=7 v=21
6985 Par ch=5 c=7 v=29
6987 Par ch=5 c=7 v=37
6988 Par ch=5 c=7 v=45
6989 Par ch=5 c=7 v=53
6990 Par ch=5 c=7 v=62
6991 Par ch=5 c=7 v=70
6992 Par ch=5 c=7 v=78
6993 Par ch=5 c=7 v=86
6995 Par ch=5 c=7 v=103
6995 Par ch=5 c=7 v=95
6997 Par ch=5 c=7 v=111
6998 Par ch=5 c=7 v=119
6999 Par ch=5 c=7 v=127
7000 Par ch=5 c=7 v=119
7001 Par ch=5 c=7 v=111
7002 Par ch=5 c=7 v=103
7003 Par ch=5 c=7 v=95
7005 Par ch=5 c=7 v=86
7006 Par ch=5 c=7 v=78
7007 Par ch=5 c=7 v=70
7008 Par ch=5 c=7 v=62
7009 Par ch=5 c=7 v=53
7010 Par ch=5 c=7 v=45
7011 Par ch=5 c=7 v=37
7012 Par ch=5 c=7 v=29
7013 Par ch=5 c=7 v=21
7015 Par ch=5 c=7 v=12
7016 Par ch=5 c=7 v=21
7017 Par ch=5 c=7 v=29
7018 Par ch=5 c=7 v=37
7019 Par ch=5 c=7 v=45
7020 On ch=5 n=55 v=0
7020 On ch=5 n=60 v=0
7020 On ch=5 n=52 v=0
7020 On ch=5 n=64 v=0
7020 On ch=5 n=60 v=40
7020 Par ch=5 c=7 v=53
7020 On ch=5 n=52 v=40
7020 On ch=5 n=55 v=40
7022 Par ch=5 c=7 v=70
7022 Par ch=5 c=7 v=62
7023 Par ch=5 c=7 v=78
7025 Par ch=5 c=7 v=86
7026 Par ch=5 c=7 v=95
7027 Par ch=5 c=7 v=103
7028 Par ch=5 c=7 v=111
7029 Par ch=5 c=7 v=119
7030 Par ch=5 c=7 v=127
7032 Par ch=5 c=7 v=111
7032 Par ch=5 c=7 v=119
7033 Par ch=5 c=7 v=103
7035 Par ch=5 c=7 v=95
7036 Par ch=5 c=7 v=86
7037 Par ch=5 c=7 v=78
7038 Par ch=5 c=7 v=70
7039 Par ch=5 c=7 v=62
7040 Par ch=5 c=7 v=53
7042 Par ch=5 c=7 v=45
7043 Par ch=5 c=7 v=29
7043 Par ch=5 c=7 v=37
7045 Par ch=5 c=7 v=21
7046 Par ch=5 c=7 v=12
7047 Par ch=5 c=7 v=20
7048 Par ch=5 c=7 v=29
7049 Par ch=5 c=7 v=37
7050 Par ch=5 c=7 v=45
7052 Par ch=5 c=7 v=53
7053 Par ch=5 c=7 v=70
7053 Par ch=5 c=7 v=62
7055 Par ch=5 c=7 v=78
7056 Par ch=5 c=7 v=86
7057 Par ch=5 c=7 v=95
7058 Par ch=5 c=7 v=103
7059 Par ch=5 c=7 v=111
7060 Par ch=5 c=7 v=119
7062 Par ch=5 c=7 v=127
7063 Par ch=5 c=7 v=119
7063 Par ch=5 c=7 v=111
7065 Par ch=5 c=7 v=103
7066 Par ch=5 c=7 v=95
7067 Par ch=5 c=7 v=86
7068 Par ch=5 c=7 v=78
7069 Par ch=5 c=7 v=70
7070 Par ch=5 c=7 v=62
7072 Par ch=5 c=7 v=53
7073 Par ch=5 c=7 v=45
7074 Par ch=5 c=7 v=37
7075 Par ch=5 c=7 v=29
7076 Par ch=5 c=7 v=21
7077 Par ch=5 c=7 v=12
7078 Par ch=5 c=7 v=20
7080 On ch=5 n=55 v=0
7080 On ch=5 n=52 v=0
7080 On ch=5 n=60 v=0
7080 On ch=5 n=52 v=40
7080 On ch=5 n=55 v=40
7080 On ch=5 n=64 v=40
7080 On ch=5 n=60 v=40
7080 Par ch=5 c=7 v=29
7080 Par ch=5 c=7 v=37
7082 Par ch=5 c=7 v=45
7083 Par ch=5 c=7 v=53
7084 Par ch=5 c=7 v=62
7085 Par ch=5 c=7 v=70
7086 Par ch=5 c=7 v=78
7087 Par ch=5 c=7 v=86
7088 Par ch=5 c=7 v=95
7090 Par ch=5 c=7 v=111
7090 Par ch=5 c=7 v=103
7092 Par ch=5 c=7 v=119
7093 Par ch=5 c=7 v=127
7094 Par ch=5 c=7 v=119
7095 Par ch=5 c=7 v=111
7096 Par ch=5 c=7 v=103
7097 Par ch=5 c=7 v=95
7098 Par ch=5 c=7 v=86
7100 Par ch=5 c=7 v=78
7100 Par ch=5 c=7 v=70
7102 Par ch=5 c=7 v=62
7103 Par ch=5 c=7 v=53
7104 Par ch=5 c=7 v=45
7105 Par ch=5 c=7 v=37
7106 Par ch=5 c=7 v=29
7107 Par ch=5 c=7 v=21
7108 Par ch=5 c=7 v=12
7110 Par ch=5 c=7 v=20
7111 Par ch=5 c=7 v=29
7112 Par ch=5 c=7 v=37
7113 Par ch=5 c=7 v=45
7114 Par ch=5 c=7 v=53
7115 Par ch=5 c=7 v=62
7117 Par ch=5 c=7 v=78
7117 Par ch=5 c=7 v=70
7118 Par ch=5 c=7 v=86
7120 Par ch=5 c=7 v=95
7121 Par ch=5 c=7 v=103
7122 Par ch=5 c=7 v=111
7123 Par ch=5 c=7 v=119
7124 Par ch=5 c=7 v=127
7125 Par ch=5 c=7 v=119
7127 Par ch=5 c=7 v=111
7127 Par ch=5 c=7 v=103
7128 Par ch=5 c=7 v=95
7130 Par ch=5 c=7 v=86
7131 Par ch=5 c=7 v=78
7132 Par ch=5 c=7 v=70
7133 Par ch=5 c=7 v=62
7134 Par ch=5 c=7 v=53
7135 Par ch=5 c=7 v=45
7136 Par ch=5 c=7 v=37
7138 Par ch=5 c=7 v=21
7138 Par ch=5 c=7 v=29
7140 On ch=5 n=60 v=0
7140 On ch=5 n=52 v=0
7140 On ch=5 n=55 v=0
7140 On ch=5 n=64 v=0
7140 On ch=5 n=60 v=40
7140 Par ch=5 c=7 v=12
7140 On ch=5 n=55 v=40
7140 On ch=5 n=52 v=40
7141 Par ch=5 c=7 v=20
7142 Par ch=5 c=7 v=29
7143 Par ch=5 c=7 v=37
7144 Par ch=5 c=7 v=45
7145 Par ch=5 c=7 v=53
7147 Par ch=5 c=7 v=62
7148 Par ch=5 c=7 v=78
7148 Par ch=5 c=7 v=70
7150 Par ch=5 c=7 v=86
7151 Par ch=5 c=7 v=95
7152 Par ch=5 c=7 v=103
7153 Par ch=5 c=7 v=111
7154 Par ch=5 c=7 v=119
7155 Par ch=5 c=7 v=127
7157 Par ch=5 c=7 v=119
7158 Par ch=5 c=7 v=111
7158 Par ch=5 c=7 v=103
7160 Par ch=5 c=7 v=95
7161 Par ch=5 c=7 v=86
7162 Par ch=5 c=7 v=78
7163 Par ch=5 c=7 v=70
7164 Par ch=5 c=7 v=62
7165 Par ch=5 c=7 v=54
7166 Par ch=5 c=7 v=45
7168 Par ch=5 c=7 v=37
7169 Par ch=5 c=7 v=29
7170 Par ch=5 c=7 v=21
7171 Par ch=5 c=7 v=12
7172 Par ch=5 c=7 v=20
7173 Par ch=5 c=7 v=29
7174 Par ch=5 c=7 v=37
7175 Par ch=5 c=7 v=45
7177 Par ch=5 c=7 v=53
7178 Par ch=5 c=7 v=62
7179 Par ch=5 c=7 v=70
7180 Par ch=5 c=7 v=78
7181 Par ch=5 c=7 v=86
7182 Par ch=5 c=7 v=95
7183 Par ch=5 c=7 v=103
7185 Par ch=5 c=7 v=111
7185 Par ch=5 c=7 v=119
7187 Par ch=5 c=7 v=127
7188 Par ch=5 c=7 v=119
7189 Par ch=5 c=7 v=111
7190 Par ch=5 c=7 v=103
7191 Par ch=5 c=7 v=95
7192 Par ch=5 c=7 v=86
7193 Par ch=5 c=7 v=78
7195 Par ch=5 c=7 v=70
7195 Par ch=5 c=7 v=62
7196 Par ch=5 c=7 v=54
7198 Par ch=5 c=7 v=45
7199 Par ch=5 c=7 v=37
7200 On ch=5 n=52 v=0
7200 On ch=5 n=55 v=0
7200 On ch=5 n=60 v=0
7200 On ch=5 n=57 v=40
7200 Par ch=5 c=7 v=86
7200 On ch=5 n=53 v=40
7200 Par ch=5 c=7 v=78
7200 On ch=5 n=62 v=40
7200 On ch=5 n=50 v=40
7201 Par ch=5 c=7 v=95
7202 Par ch=5 c=7 v=103
7203 Par ch=5 c=7 v=111
7205 Par ch=5 c=7 v=119
7206 Par ch=5 c=7 v=127
7207 Par ch=5 c=7 v=119
7208 Par ch=5 c=7 v=111
7209 Par ch=5 c=7 v=103
7210 Par ch=5 c=7 v=95
7211 Par ch=5 c=7 v=86
7212 Par ch=5 c=7 v=78
7213 Par ch=5 c=7 v=70
7215 Par ch=5 c=7 v=62
7216 Par ch=5 c=7 v=53
7217 Par ch=5 c=7 v=45
7218 Par ch=5 c=7 v=37
7219 Par ch=5 c=7 v=29
7220 Par ch=5 c=7 v=21
7222 Par ch=5 c=7 v=12
7222 Par ch=5 c=7 v=21
7223 Par ch=5 c=7 v=29
7225 Par ch=5 c=7 v=37
7226 Par ch=5 c=7 v=45
7227 Par ch=5 c=7 v=53
7228 Par ch=5 c=7 v=62
7229 Par ch=5 c=7 v=70
7230 Par ch=5 c=7 v=78
7232 Par ch=5 c=7 v=95
7232 Par ch=5 c=7 v=86
7233 Par ch=5 c=7 v=103
7235 Par ch=5 c=7 v=111
7236 Par ch=5 c=7 v=119
7237 Par ch=5 c=7 v=127
7238 Par ch=5 c=7 v=119
7239 Par ch=5 c=7 v=111
7240 Par ch=5 c=7 v=103
7241 Par ch=5 c=7 v=95
7243 Par ch=5 c=7 v=86
7243 Par ch=5 c=7 v=78
7245 Par ch=5 c=7 v=70
7246 Par ch=5 c=7 v=62
7247 Par ch=5 c=7 v=53
7248 Par ch=5 c=7 v=45
7249 Par ch=5 c=7 v=37
7250 Par ch=5 c=7 v=29
7252 Par ch=5 c=7 v=21
7253 Par ch=5 c=7 v=21
7253 Par ch=5 c=7 v=12
7255 Par ch=5 c=7 v=29
7256 Par ch=5 c=7 v=37
7257 Par ch=5 c=7 v=45
7258 Par ch=5 c=7 v=53
7259 Par ch=5 c=7 v=62
7260 On ch=5 n=50 v=0
7260 On ch=5 n=57 v=0
7260 On ch=5 n=53 v=0
7260 On ch=5 n=62 v=0
7260 On ch=5 n=57 v=40
7260 On ch=5 n=50 v=40
7260 Par ch=5 c=7 v=70
7260 On ch=5 n=53 v=40
7262 Par ch=5 c=7 v=78
7263 Par ch=5 c=7 v=86
7264 Par ch=5 c=7 v=95
7265 Par ch=5 c=7 v=103
7266 Par ch=5 c=7 v=111
7267 Par ch=5 c=7 v=119
7268 Par ch=5 c=7 v=127
7269 Par ch=5 c=7 v=119
7270 Par ch=5 c=7 v=111
7272 Par ch=5 c=7 v=103
7273 Par ch=5 c=7 v=95
7274 Par ch=5 c=7 v=86
7275 Par ch=5 c=7 v=78
7276 Par ch=5 c=7 v=70
7277 Par ch=5 c=7 v=62
7278 Par ch=5 c=7 v=53
7280 Par ch=5 c=7 v=45
7280 Par ch=5 c=7 v=37
7282 Par ch=5 c=7 v=29
7283 Par ch=5 c=7 v=21
7284 Par ch=5 c=7 v=12
7285 Par ch=5 c=7 v=21
7286 Par ch=5 c=7 v=29
7287 Par ch=5 c=7 v=37
7288 Par ch=5 c=7 v=45
7290 Par ch=5 c=7 v=62
7290 Par ch=5 c=7 v=53
7292 Par ch=5 c=7 v=70
7293 Par ch=5 c=7 v=78
7294 Par ch=5 c=7 v=86
7295 Par ch=5 c=7 v=95
7296 Par ch=5 c=7 v=103
7297 Par ch=5 c=7 v=111
7298 Par ch=5 c=7 v=119
7300 Par ch=5 c=7 v=127
7301 Par ch=5 c=7 v=119
7302 Par ch=5 c=7 v=111
7303 Par ch=5 c=7 v=103
7304 Par ch=5 c=7 v=95
7305 Par ch=5 c=7 v=86
7306 Par ch=5 c=7 v=78
7307 Par ch=5 c=7 v=70
7308 Par ch=5 c=7 v=62
7310 Par ch=5 c=7 v=53
7311 Par ch=5 c=7 v=45
7312 Par ch=5 c=7 v=37
7313 Par ch=5 c=7 v=29
7314 Par ch=5 c=7 v=21
7315 Par ch=5 c=7 v=12
7317 Par ch=5 c=7 v=29
7317 Par ch=5 c=7 v=21
7318 Par ch=5 c=7 v=37
7320 On ch=5 n=53 v=0
7320 On ch=5 n=50 v=0
7320 On ch=5 n=57 v=0
7320 On ch=5 n=62 v=40
7320 On ch=5 n=57 v=40
7320 On ch=5 n=53 v=40
7320 Par ch=5 c=7 v=45
7320 On ch=5 n=50 v=40
7321 Par ch=5 c=7 v=53
7322 Par ch=5 c=7 v=62
7323 Par ch=5 c=7 v=70
7324 Par ch=5 c=7 v=78
7325 Par ch=5 c=7 v=86
7327 Par ch=5 c=7 v=103
7327 Par ch=5 c=7 v=95
7328 Par ch=5 c=7 v=111
7330 Par ch=5 c=7 v=119
7331 Par ch=5 c=7 v=127
7332 Par ch=5 c=7 v=119
7333 Par ch=5 c=7 v=111
7334 Par ch=5 c=7 v=103
7335 Par ch=5 c=7 v=95
7337 Par ch=5 c=7 v=86
7338 Par ch=5 c=7 v=70
7338 Par ch=5 c=7 v=78
7340 Par ch=5 c=7 v=62
7341 Par ch=5 c=7 v=53
7342 Par ch=5 c=7 v=45
7343 Par ch=5 c=7 v=37
7344 Par ch=5 c=7 v=29
7345 Par ch=5 c=7 v=21
7347 Par ch=5 c=7 v=12
7348 Par ch=5 c=7 v=20
7348 Par ch=5 c=7 v=29
7350 Par ch=5 c=7 v=37
7351 Par ch=5 c=7 v=45
7352 Par ch=5 c=7 v=53
7353 Par ch=5 c=7 v=62
7354 Par ch=5 c=7 v=70
7355 Par ch=5 c=7 v=78
7357 Par ch=5 c=7 v=86
7358 Par ch=5 c=7 v=95
7359 Par ch=5 c=7 v=103
7360 Par ch=5 c=7 v=111
7361 Par ch=5 c=7 v=119
7362 Par ch=5 c=7 v=127
7363 Par ch=5 c=7 v=119
7364 Par ch=5 c=7 v=111
7365 Par ch=5 c=7 v=103
7367 Par ch=5 c=7 v=95
7368 Par ch=5 c=7 v=86
7369 Par ch=5 c=7 v=78
7370 Par ch=5 c=7 v=70
7371 Par ch=5 c=7 v=62
7372 Par ch=5 c=7 v=53
7373 Par ch=5 c=7 v=45
7375 Par ch=5 c=7 v=29
7375 Par ch=5 c=7 v=37
7377 Par ch=5 c=7 v=21
7378 Par ch=5 c=7 v=12
7379 Par ch=5 c=7 v=20
7380 On ch=5 n=50 v=0
7380 On ch=5 n=62 v=0
7380 On ch=5 n=57 v=0
7380 On ch=5 n=53 v=0
7380 Par ch=5 c=7 v=86
7380 On ch=5 n=57 v=40
7380 On ch=5 n=53 v=40
7380 On ch=5 n=50 v=40
7380 Par ch=5 c=7 v=78
7381 Par ch=5 c=7 v=95
7382 Par ch=5 c=7 v=103
7383 Par ch=5 c=7 v=111
7385 Par ch=5 c=7 v=119
7385 Par ch=5 c=7 v=127
7387 Par ch=5 c=7 v=119
7388 Par ch=5 c=7 v=111
7389 Par ch=5 c=7 v=103
7390 Par ch=5 c=7 v=95
7391 Par ch=5 c=7 v=86
7392 Par ch=5 c=7 v=78
7393 Par ch=5 c=7 v=70
7395 Par ch=5 c=7 v=62
7396 Par ch=5 c=7 v=53
7397 Par ch=5 c=7 v=45
7398 Par ch=5 c=7 v=37
7399 Par ch=5 c=7 v=29
7400 Par ch=5 c=7 v=21
7401 Par ch=5 c=7 v=12
7402 Par ch=5 c=7 v=21
7403 Par ch=5 c=7 v=29
7405 Par ch=5 c=7 v=37
7406 Par ch=5 c=7 v=45
7407 Par ch=5 c=7 v=53
7408 Par ch=5 c=7 v=62
7409 Par ch=5 c=7 v=70
7410 Par ch=5 c=7 v=78
7412 Par ch=5 c=7 v=95
7412 Par ch=5 c=7 v=86
7413 Par ch=5 c=7 v=103
7415 Par ch=5 c=7 v=111
7416 Par ch=5 c=7 v=119
7417 Par ch=5 c=7 v=127
7418 Par ch=5 c=7 v=119
7419 Par ch=5 c=7 v=111
7420 Par ch=5 c=7 v=103
7422 Par ch=5 c=7 v=95
7422 Par ch=5 c=7 v=86
7423 Par ch=5 c=7 v=78
7425 Par ch=5 c=7 v=70
7426 Par ch=5 c=7 v=62
7427 Par ch=5 c=7 v=53
7428 Par ch=5 c=7 v=45
7429 Par ch=5 c=7 v=37
7430 Par ch=5 c=7 v=29
7432 Par ch=5 c=7 v=21
7433 Par ch=5 c=7 v=21
7433 Par ch=5 c=7 v=12
7435 Par ch=5 c=7 v=29
7436 Par ch=5 c=7 v=37
7437 Par ch=5 c=7 v=45
7438 Par ch=5 c=7 v=53
7439 Par ch=5 c=7 v=62
7440 On ch=5 n=50 v=0
7440 On ch=5 n=53 v=0
7440 On ch=5 n=57 v=0
7440 Par ch=5 c=7 v=70
7440 On ch=5 n=53 v=40
7440 On ch=5 n=62 v=40
7440 On ch=5 n=57 v=40
7440 On ch=5 n=50 v=40
7442 Par ch=5 c=7 v=78
7443 Par ch=5 c=7 v=95
7443 Par ch=5 c=7 v=86
7445 Par ch=5 c=7 v=103
7446 Par ch=5 c=7 v=111
7447 Par ch=5 c=7 v=119
7448 Par ch=5 c=7 v=127
7449 Par ch=5 c=7 v=119
7450 Par ch=5 c=7 v=111
7452 Par ch=5 c=7 v=103
7453 Par ch=5 c=7 v=95
7453 Par ch=5 c=7 v=86
7455 Par ch=5 c=7 v=78
7456 Par ch=5 c=7 v=70
7457 Par ch=5 c=7 v=62
7458 Par ch=5 c=7 v=53
7459 Par ch=5 c=7 v=45
7460 Par ch=5 c=7 v=37
7462 Par ch=5 c=7 v=29
7463 Par ch=5 c=7 v=21
7464 Par ch=5 c=7 v=12
7465 Par ch=5 c=7 v=21
7466 Par ch=5 c=7 v=29
7467 Par ch=5 c=7 v=37
7468 Par ch=5 c=7 v=45
7470 Par ch=5 c=7 v=62
7470 Par ch=5 c=7 v=53
7472 Par ch=5 c=7 v=70
7473 Par ch=5 c=7 v=78
7474 Par ch=5 c=7 v=86
7475 Par ch=5 c=7 v=95
7476 Par ch=5 c=7 v=103
7477 Par ch=5 c=7 v=111
7478 Par ch=5 c=7 v=119
7480 Par ch=5 c=7 v=127
7480 Par ch=5 c=7 v=119
7482 Par ch=5 c=7 v=111
7483 Par ch=5 c=7 v=103
7484 Par ch=5 c=7 v=95
7485 Par ch=5 c=7 v=86
7486 Par ch=5 c=7 v=78
7487 Par ch=5 c=7 v=70
7488 Par ch=5 c=7 v=62
7490 Par ch=5 c=7 v=53
7490 Par ch=5 c=7 v=45
7492 Par ch=5 c=7 v=37
7493 Par ch=5 c=7 v=29
7494 Par ch=5 c=7 v=21
7495 Par ch=5 c=7 v=12
7496 Par ch=5 c=7 v=21
7497 Par ch=5 c=7 v=29
7498 Par ch=5 c=7 v=37
7500 On ch=5 n=50 v=0
7500 On ch=5 n=53 v=0
7500 On ch=5 n=62 v=0
7500 On ch=5 n=57 v=0
7500 Par ch=5 c=7 v=45
7500 On ch=5 n=53 v=40
7500 On ch=5 n=57 v=40
7500 On ch=5 n=50 v=40
7501 Par ch=5 c=7 v=53
7502 Par ch=5 c=7 v=62
7503 Par ch=5 c=7 v=70
7504 Par ch=5 c=7 v=78
7505 Par ch=5 c=7 v=86
7507 Par ch=5 c=7 v=95
7507 Par ch=5 c=7 v=103
7508 Par ch=5 c=7 v=111
7510 Par ch=5 c=7 v=119
7511 Par ch=5 c=7 v=127
7512 Par ch=5 c=7 v=119
7513 Par ch=5 c=7 v=111
7514 Par ch=5 c=7 v=103
7515 Par ch=5 c=7 v=95
7517 Par ch=5 c=7 v=78
7517 Par ch=5 c=7 v=86
7518 Par ch=5 c=7 v=70
7520 Par ch=5 c=7 v=62
7521 Par ch=5 c=7 v=53
7522 Par ch=5 c=7 v=45
7523 Par ch=5 c=7 v=37
7524 Par ch=5 c=7 v=29
7525 Par ch=5 c=7 v=21
7527 Par ch=5 c=7 v=12
7527 Par ch=5 c=7 v=20
7528 Par ch=5 c=7 v=29
7530 Par ch=5 c=7 v=37
7531 Par ch=5 c=7 v=45
7532 Par ch=5 c=7 v=53
7533 Par ch=5 c=7 v=62
7534 Par ch=5 c=7 v=70
7535 Par ch=5 c=7 v=78
7537 Par ch=5 c=7 v=86
7538 Par ch=5 c=7 v=103
7538 Par ch=5 c=7 v=95
7540 Par ch=5 c=7 v=111
7541 Par ch=5 c=7 v=119
7542 Par ch=5 c=7 v=127
7543 Par ch=5 c=7 v=119
7544 Par ch=5 c=7 v=111
7545 Par ch=5 c=7 v=103
7547 Par ch=5 c=7 v=95
7548 Par ch=5 c=7 v=78
7548 Par ch=5 c=7 v=86
7550 Par ch=5 c=7 v=70
7551 Par ch=5 c=7 v=62
7552 Par ch=5 c=7 v=53
7553 Par ch=5 c=7 v=45
7554 Par ch=5 c=7 v=37
7555 Par ch=5 c=7 v=29
7557 Par ch=5 c=7 v=21
7558 Par ch=5 c=7 v=12
7559 Par ch=5 c=7 v=20
7560 On ch=5 n=50 v=0
7560 On ch=5 n=57 v=0
7560 On ch=5 n=53 v=0
7560 On ch=5 n=57 v=40
7560 On ch=5 n=50 v=40
7560 On ch=5 n=62 v=40
7560 Par ch=5 c=7 v=29
7560 On ch=5 n=53 v=40
7561 Par ch=5 c=7 v=37
7562 Par ch=5 c=7 v=45
7563 Par ch=5 c=7 v=53
7564 Par ch=5 c=7 v=62
7565 Par ch=5 c=7 v=70
7567 Par ch=5 c=7 v=78
7568 Par ch=5 c=7 v=86
7569 Par ch=5 c=7 v=95
7570 Par ch=5 c=7 v=103
7571 Par ch=5 c=7 v=111
7572 Par ch=5 c=7 v=119
7573 Par ch=5 c=7 v=127
7575 Par ch=5 c=7 v=119
7575 Par ch=5 c=7 v=111
7577 Par ch=5 c=7 v=103
7578 Par ch=5 c=7 v=95
7579 Par ch=5 c=7 v=86
7580 Par ch=5 c=7 v=78
7581 Par ch=5 c=7 v=70
7582 Par ch=5 c=7 v=62
7583 Par ch=5 c=7 v=53
7585 Par ch=5 c=7 v=37
7585 Par ch=5 c=7 v=45
7587 Par ch=5 c=7 v=29
7588 Par ch=5 c=7 v=21
7589 Par ch=5 c=7 v=12
7590 Par ch=5 c=7 v=20
7591 Par ch=5 c=7 v=29
7592 Par ch=5 c=7 v=37
7593 Par ch=5 c=7 v=45
7595 Par ch=5 c=7 v=53
7596 Par ch=5 c=7 v=62
7597 Par ch=5 c=7 v=70
7598 Par ch=5 c=7 v=78
7599 Par ch=5 c=7 v=86
7600 Par ch=5 c=7 v=95
7601 Par ch=5 c=7 v=103
7602 Par ch=5 c=7 v=111
7603 Par ch=5 c=7 v=119
7605 Par ch=5 c=7 v=127
7606 Par ch=5 c=7 v=119
7607 Par ch=5 c=7 v=111
7608 Par ch=5 c=7 v=103
7609 Par ch=5 c=7 v=95
7610 Par ch=5 c=7 v=86
7612 Par ch=5 c=7 v=78
7612 Par ch=5 c=7 v=70
7613 Par ch=5 c=7 v=62
7615 Par ch=5 c=7 v=53
7616 Par ch=5 c=7 v=45
7617 Par ch=5 c=7 v=37
7618 Par ch=5 c=7 v=29
7619 Par ch=5 c=7 v=21
7620 On ch=5 n=53 v=0
7620 On ch=5 n=57 v=0
7620 On ch=5 n=50 v=0
7620 On ch=5 n=62 v=0
7620 On ch=5 n=57 v=40
7620 On ch=5 n=50 v=40
7620 On ch=5 n=53 v=40
7620 Par ch=5 c=7 v=12
7622 Par ch=5 c=7 v=20
7622 Par ch=5 c=7 v=29
7623 Par ch=5 c=7 v=37
7625 Par ch=5 c=7 v=45
7626 Par ch=5 c=7 v=53
7627 Par ch=5 c=7 v=62
7628 Par ch=5 c=7 v=70
7629 Par ch=5 c=7 v=78
7630 Par ch=5 c=7 v=86
7632 Par ch=5 c=7 v=95
7633 Par ch=5 c=7 v=103
7633 Par ch=5 c=7 v=111
7635 Par ch=5 c=7 v=119
7636 Par ch=5 c=7 v=127
7637 Par ch=5 c=7 v=119
7638 Par ch=5 c=7 v=111
7639 Par ch=5 c=7 v=103
7640 Par ch=5 c=7 v=95
7642 Par ch=5 c=7 v=86
7643 Par ch=5 c=7 v=78
7643 Par ch=5 c=7 v=70
7645 Par ch=5 c=7 v=62
7646 Par ch=5 c=7 v=54
7647 Par ch=5 c=7 v=45
7648 Par ch=5 c=7 v=37
7649 Par ch=5 c=7 v=29
7650 Par ch=5 c=7 v=21
7652 Par ch=5 c=7 v=12
7653 Par ch=5 c=7 v=20
7654 Par ch=5 c=7 v=29
7655 Par ch=5 c=7 v=37
7656 Par ch=5 c=7 v=45
7657 Par ch=5 c=7 v=53
7658 Par ch=5 c=7 v=62
7659 Par ch=5 c=7 v=70
7660 Par ch=5 c=7 v=78
7662 Par ch=5 c=7 v=86
7663 Par ch=5 c=7 v=95
7664 Par ch=5 c=7 v=103
7665 Par ch=5 c=7 v=111
7666 Par ch=5 c=7 v=119
7667 Par ch=5 c=7 v=127
7668 Par ch=5 c=7 v=119
7670 Par ch=5 c=7 v=111
7670 Par ch=5 c=7 v=103
7672 Par ch=5 c=7 v=95
7673 Par ch=5 c=7 v=86
7674 Par ch=5 c=7 v=78
7675 Par ch=5 c=7 v=70
7676 Par ch=5 c=7 v=62
7677 Par ch=5 c=7 v=54
7678 Par ch=5 c=7 v=45
7680 On ch=5 n=53 v=0
7680 On ch=5 n=50 v=0
7680 On ch=5 n=57 v=0
7680 On ch=5 n=46 v=40
7680 Par ch=5 c=7 v=86
7680 On ch=5 n=53 v=40
7680 Par ch=5 c=7 v=78
7680 On ch=5 n=58 v=40
7680 On ch=5 n=62 v=40
7680 Par ch=5 c=7 v=95
7682 Par ch=5 c=7 v=103
7683 Par ch=5 c=7 v=111
7684 Par ch=5 c=7 v=119
7685 Par ch=5 c=7 v=127
7686 Par ch=5 c=7 v=119
7687 Par ch=5 c=7 v=111
7688 Par ch=5 c=7 v=103
7690 Par ch=5 c=7 v=95
7691 Par ch=5 c=7 v=86
7692 Par ch=5 c=7 v=78
7693 Par ch=5 c=7 v=70
7694 Par ch=5 c=7 v=62
7695 Par ch=5 c=7 v=53
7696 Par ch=5 c=7 v=45
7697 Par ch=5 c=7 v=37
7698 Par ch=5 c=7 v=29
7700 Par ch=5 c=7 v=21
7701 Par ch=5 c=7 v=12
7702 Par ch=5 c=7 v=21
7703 Par ch=5 c=7 v=29
7704 Par ch=5 c=7 v=37
7705 Par ch=5 c=7 v=45
7707 Par ch=5 c=7 v=62
7707 Par ch=5 c=7 v=53
7708 Par ch=5 c=7 v=70
7710 Par ch=5 c=7 v=78
7711 Par ch=5 c=7 v=86
7712 Par ch=5 c=7 v=95
7713 Par ch=5 c=7 v=103
7714 Par ch=5 c=7 v=111
7715 Par ch=5 c=7 v=119
7717 Par ch=5 c=7 v=127
7717 Par ch=5 c=7 v=119
7718 Par ch=5 c=7 v=111
7720 Par ch=5 c=7 v=103
7721 Par ch=5 c=7 v=95
7722 Par ch=5 c=7 v=86
7723 Par ch=5 c=7 v=78
7724 Par ch=5 c=7 v=70
7725 Par ch=5 c=7 v=62
7727 Par ch=5 c=7 v=53
7728 Par ch=5 c=7 v=37
7728 Par ch=5 c=7 v=45
7730 Par ch=5 c=7 v=29
7731 Par ch=5 c=7 v=21
7732 Par ch=5 c=7 v=12
7733 Par ch=5 c=7 v=21
7734 Par ch=5 c=7 v=29
7735 Par ch=5 c=7 v=37
7737 Par ch=5 c=7 v=45
7738 Par ch=5 c=7 v=53
7738 Par ch=5 c=7 v=62
7740 On ch=5 n=62 v=0
7740 On ch=5 n=46 v=0
7740 On ch=5 n=53 v=0
7740 On ch=5 n=58 v=0
7740 On ch=5 n=46 v=40
7740 On ch=5 n=58 v=40
7740 Par ch=5 c=7 v=70
7740 On ch=5 n=53 v=40
7741 Par ch=5 c=7 v=78
7742 Par ch=5 c=7 v=86
7743 Par ch=5 c=7 v=95
7744 Par ch=5 c=7 v=103
7745 Par ch=5 c=7 v=111
7747 Par ch=5 c=7 v=119
7748 Par ch=5 c=7 v=127
7749 Par ch=5 c=7 v=119
7750 Par ch=5 c=7 v=111
7751 Par ch=5 c=7 v=103
7752 Par ch=5 c=7 v=95
7753 Par ch=5 c=7 v=86
7754 Par ch=5 c=7 v=78
7755 Par ch=5 c=7 v=70
7757 Par ch=5 c=7 v=62
7758 Par ch=5 c=7 v=53
7759 Par ch=5 c=7 v=45
7760 Par ch=5 c=7 v=37
7761 Par ch=5 c=7 v=29
7762 Par ch=5 c=7 v=21
7763 Par ch=5 c=7 v=12
7765 Par ch=5 c=7 v=21
7765 Par ch=5 c=7 v=29
7767 Par ch=5 c=7 v=37
7768 Par ch=5 c=7 v=45
7769 Par ch=5 c=7 v=53
7770 Par ch=5 c=7 v=62
7771 Par ch=5 c=7 v=70
7772 Par ch=5 c=7 v=78
7773 Par ch=5 c=7 v=86
7775 Par ch=5 c=7 v=103
7775 Par ch=5 c=7 v=95
7777 Par ch=5 c=7 v=111
7778 Par ch=5 c=7 v=119
7779 Par ch=5 c=7 v=127
7780 Par ch=5 c=7 v=119
7781 Par ch=5 c=7 v=111
7782 Par ch=5 c=7 v=103
7783 Par ch=5 c=7 v=95
7785 Par ch=5 c=7 v=86
7785 Par ch=5 c=7 v=78
7787 Par ch=5 c=7 v=70
7788 Par ch=5 c=7 v=62
7789 Par ch=5 c=7 v=53
7790 Par ch=5 c=7 v=45
7791 Par ch=5 c=7 v=37
7792 Par ch=5 c=7 v=29
7793 Par ch=5 c=7 v=21
7795 Par ch=5 c=7 v=12
7796 Par ch=5 c=7 v=21
7797 Par ch=5 c=7 v=29
7798 Par ch=5 c=7 v=37
7799 Par ch=5 c=7 v=45
7800 On ch=5 n=53 v=0
7800 On ch=5 n=58 v=0
7800 On ch=5 n=46 v=0
7800 Par ch=5 c=7 v=53
7800 On ch=5 n=53 v=40
7800 On ch=5 n=58 v=40
7800 On ch=5 n=62 v=40
7800 On ch=5 n=46 v=40
7802 Par ch=5 c=7 v=70
7802 Par ch=5 c=7 v=62
7803 Par ch=5 c=7 v=78
7805 Par ch=5 c=7 v=86
7806 Par ch=5 c=7 v=95
7807 Par ch=5 c=7 v=103
7808 Par ch=5 c=7 v=111
7809 Par ch=5 c=7 v=119
7810 Par ch=5 c=7 v=127
7812 Par ch=5 c=7 v=111
7812 Par ch=5 c=7 v=119
7813 Par ch=5 c=7 v=103
7815 Par ch=5 c=7 v=95
7816 Par ch=5 c=7 v=86
7817 Par ch=5 c=7 v=78
7818 Par ch=5 c=7 v=70
7819 Par ch=5 c=7 v=62
7820 Par ch=5 c=7 v=53
7822 Par ch=5 c=7 v=45
7823 Par ch=5 c=7 v=37
7823 Par ch=5 c=7 v=29
7825 Par ch=5 c=7 v=21
7826 Par ch=5 c=7 v=12
7827 Par ch=5 c=7 v=20
7828 Par ch=5 c=7 v=29
7829 Par ch=5 c=7 v=37
7830 Par ch=5 c=7 v=45
7832 Par ch=5 c=7 v=53
7833 Par ch=5 c=7 v=70
7833 Par ch=5 c=7 v=62
7835 Par ch=5 c=7 v=78
7836 Par ch=5 c=7 v=86
7837 Par ch=5 c=7 v=95
7838 Par ch=5 c=7 v=103
7839 Par ch=5 c=7 v=111
7840 Par ch=5 c=7 v=119
7842 Par ch=5 c=7 v=127
7843 Par ch=5 c=7 v=119
7843 Par ch=5 c=7 v=111
7845 Par ch=5 c=7 v=103
7846 Par ch=5 c=7 v=95
7847 Par ch=5 c=7 v=86
7848 Par ch=5 c=7 v=78
7849 Par ch=5 c=7 v=70
7850 Par ch=5 c=7 v=62
7852 Par ch=5 c=7 v=53
7853 Par ch=5 c=7 v=45
7854 Par ch=5 c=7 v=37
7855 Par ch=5 c=7 v=29
7856 Par ch=5 c=7 v=21
7857 Par ch=5 c=7 v=12
7858 Par ch=5 c=7 v=20
7860 On ch=5 n=46 v=0
7860 On ch=5 n=53 v=0
7860 On ch=5 n=58 v=0
7860 On ch=5 n=62 v=0
7860 Par ch=5 c=7 v=95
7860 On ch=5 n=46 v=40
7860 On ch=5 n=53 v=40
7860 Par ch=5 c=7 v=78
7860 Par ch=5 c=7 v=86
7860 On ch=5 n=58 v=40
7862 Par ch=5 c=7 v=103
7863 Par ch=5 c=7 v=111
7864 Par ch=5 c=7 v=119
7865 Par ch=5 c=7 v=127
7866 Par ch=5 c=7 v=119
7867 Par ch=5 c=7 v=111
7868 Par ch=5 c=7 v=103
7870 Par ch=5 c=7 v=95
7870 Par ch=5 c=7 v=86
7872 Par ch=5 c=7 v=78
7873 Par ch=5 c=7 v=70
7874 Par ch=5 c=7 v=62
7875 Par ch=5 c=7 v=53
7876 Par ch=5 c=7 v=45
7877 Par ch=5 c=7 v=37
7878 Par ch=5 c=7 v=29
7880 Par ch=5 c=7 v=12
7880 Par ch=5 c=7 v=21
7882 Par ch=5 c=7 v=21
7883 Par ch=5 c=7 v=29
7884 Par ch=5 c=7 v=37
7885 Par ch=5 c=7 v=45
7886 Par ch=5 c=7 v=53
7887 Par ch=5 c=7 v=62
7888 Par ch=5 c=7 v=70
7890 Par ch=5 c=7 v=78
7891 Par ch=5 c=7 v=86
7892 Par ch=5 c=7 v=95
7893 Par ch=5 c=7 v=103
7894 Par ch=5 c=7 v=111
7895 Par ch=5 c=7 v=119
7897 Par ch=5 c=7 v=127
7897 Par ch=5 c=7 v=119
7898 Par ch=5 c=7 v=111
7900 Par ch=5 c=7 v=103
7901 Par ch=5 c=7 v=95
7902 Par ch=5 c=7 v=86
7903 Par ch=5 c=7 v=78
7904 Par ch=5 c=7 v=70
7905 Par ch=5 c=7 v=62
7907 Par ch=5 c=7 v=45
7907 Par ch=5 c=7 v=53
7908 Par ch=5 c=7 v=37
7910 Par ch=5 c=7 v=29
7911 Par ch=5 c=7 v=21
7912 Par ch=5 c=7 v=12
7913 Par ch=5 c=7 v=21
7914 Par ch=5 c=7 v=29
7915 Par ch=5 c=7 v=37
7917 Par ch=5 c=7 v=45
7917 Par ch=5 c=7 v=53
7918 Par ch=5 c=7 v=62
7920 On ch=5 n=58 v=0
7920 On ch=5 n=53 v=0
7920 On ch=5 n=46 v=0
7920 Par ch=5 c=7 v=70
7920 On ch=5 n=58 v=40
7920 On ch=5 n=46 v=40
7920 On ch=5 n=53 v=40
7920 On ch=5 n=62 v=40
7921 Par ch=5 c=7 v=78
7922 Par ch=5 c=7 v=86
7923 Par ch=5 c=7 v=95
7924 Par ch=5 c=7 v=103
7925 Par ch=5 c=7 v=111
7927 Par ch=5 c=7 v=119
7928 Par ch=5 c=7 v=127
7928 Par ch=5 c=7 v=119
7930 Par ch=5 c=7 v=111
7931 Par ch=5 c=7 v=103
7932 Par ch=5 c=7 v=95
7933 Par ch=5 c=7 v=86
7934 Par ch=5 c=7 v=78
7935 Par ch=5 c=7 v=70
7937 Par ch=5 c=7 v=62
7938 Par ch=5 c=7 v=45
7938 Par ch=5 c=7 v=53
7940 Par ch=5 c=7 v=37
7941 Par ch=5 c=7 v=29
7942 Par ch=5 c=7 v=21
7943 Par ch=5 c=7 v=12
7944 Par ch=5 c=7 v=21
7945 Par ch=5 c=7 v=29
7947 Par ch=5 c=7 v=37
7948 Par ch=5 c=7 v=45
7949 Par ch=5 c=7 v=53
7950 Par ch=5 c=7 v=62
7951 Par ch=5 c=7 v=70
7952 Par ch=5 c=7 v=78
7953 Par ch=5 c=7 v=86
7954 Par ch=5 c=7 v=95
7955 Par ch=5 c=7 v=103
7957 Par ch=5 c=7 v=111
7958 Par ch=5 c=7 v=119
7959 Par ch=5 c=7 v=127
7960 Par ch=5 c=7 v=119
7961 Par ch=5 c=7 v=111
7962 Par ch=5 c=7 v=103
7963 Par ch=5 c=7 v=95
7965 Par ch=5 c=7 v=78
7965 Par ch=5 c=7 v=86
7967 Par ch=5 c=7 v=70
7968 Par ch=5 c=7 v=62
7969 Par ch=5 c=7 v=53
7970 Par ch=5 c=7 v=45
7971 Par ch=5 c=7 v=37
7972 Par ch=5 c=7 v=29
7973 Par ch=5 c=7 v=21
7975 Par ch=5 c=7 v=12
7975 Par ch=5 c=7 v=21
7977 Par ch=5 c=7 v=29
7978 Par ch=5 c=7 v=37
7979 Par ch=5 c=7 v=45
7980 On ch=5 n=62 v=0
7980 On ch=5 n=58 v=0
7980 On ch=5 n=46 v=0
7980 On ch=5 n=53 v=0
7980 Par ch=5 c=7 v=86
7980 On ch=5 n=53 v=40
7980 On ch=5 n=46 v=40
7980 On ch=5 n=58 v=40
7980 Par ch=5 c=7 v=78
7981 Par ch=5 c=7 v=95
7982 Par ch=5 c=7 v=103
7983 Par ch=5 c=7 v=111
7985 Par ch=5 c=7 v=119
7986 Par ch=5 c=7 v=127
7987 Par ch=5 c=7 v=119
7988 Par ch=5 c=7 v=111
7989 Par ch=5 c=7 v=103
7990 Par ch=5 c=7 v=95
7991 Par ch=5 c=7 v=86
7992 Par ch=5 c=7 v=78
7993 Par ch=5 c=7 v=70
7995 Par ch=5 c=7 v=62
7996 Par ch=5 c=7 v=53
7997 Par ch=5 c=7 v=45
7998 Par ch=5 c=7 v=37
7999 Par ch=5 c=7 v=29
8000 Par ch=5 c=7 v=21
8002 Par ch=5 c=7 v=21
8002 Par ch=5 c=7 v=12
8003 Par ch=5 c=7 v=29
8005 Par ch=5 c=7 v=37
8006 Par ch=5 c=7 v=45
8007 Par ch=5 c=7 v=53
8008 Par ch=5 c=7 v=62
8009 Par ch=5 c=7 v=70
8010 Par ch=5 c=7 v=78
8012 Par ch=5 c=7 v=86
8012 Par ch=5 c=7 v=95
8013 Par ch=5 c=7 v=103
8015 Par ch=5 c=7 v=111
8016 Par ch=5 c=7 v=119
8017 Par ch=5 c=7 v=127
8018 Par ch=5 c=7 v=119
8019 Par ch=5 c=7 v=111
8020 Par ch=5 c=7 v=103
8022 Par ch=5 c=7 v=95
8023 Par ch=5 c=7 v=78
8023 Par ch=5 c=7 v=86
8025 Par ch=5 c=7 v=70
8026 Par ch=5 c=7 v=62
8027 Par ch=5 c=7 v=53
8028 Par ch=5 c=7 v=45
8029 Par ch=5 c=7 v=37
8030 Par ch=5 c=7 v=29
8032 Par ch=5 c=7 v=21
8033 Par ch=5 c=7 v=21
8033 Par ch=5 c=7 v=12
8035 Par ch=5 c=7 v=29
8036 Par ch=5 c=7 v=37
8037 Par ch=5 c=7 v=45
8038 Par ch=5 c=7 v=53
8039 Par ch=5 c=7 v=86
8039 Par ch=5 c=7 v=78
8040 On ch=5 n=58 v=0
8040 On ch=5 n=46 v=0
8040 On ch=5 n=53 v=0
8040 On ch=5 n=46 v=40
8040 Par ch=5 c=7 v=95
8040 On ch=5 n=53 v=40
8040 On ch=5 n=62 v=40
8040 On ch=5 n=58 v=40
8041 Par ch=5 c=7 v=103
8043 Par ch=5 c=7 v=111
8044 Par ch=5 c=7 v=119
8045 Par ch=5 c=7 v=127
8046 Par ch=5 c=7 v=119
8047 Par ch=5 c=7 v=111
8048 Par ch=5 c=7 v=103
8049 Par ch=5 c=7 v=95
8050 Par ch=5 c=7 v=86
8052 Par ch=5 c=7 v=78
8053 Par ch=5 c=7 v=70
8054 Par ch=5 c=7 v=62
8055 Par ch=5 c=7 v=53
8056 Par ch=5 c=7 v=45
8057 Par ch=5 c=7 v=37
8058 Par ch=5 c=7 v=29
8060 Par ch=5 c=7 v=12
8060 Par ch=5 c=7 v=21
8062 Par ch=5 c=7 v=21
8063 Par ch=5 c=7 v=29
8064 Par ch=5 c=7 v=37
8065 Par ch=5 c=7 v=45
8066 Par ch=5 c=7 v=53
8067 Par ch=5 c=7 v=62
8068 Par ch=5 c=7 v=70
8070 Par ch=5 c=7 v=78
8070 Par ch=5 c=7 v=86
8071 Par ch=5 c=7 v=95
8073 Par ch=5 c=7 v=103
8074 Par ch=5 c=7 v=111
8075 Par ch=5 c=7 v=119
8076 Par ch=5 c=7 v=127
8077 Par ch=5 c=7 v=119
8078 Par ch=5 c=7 v=111
8080 Par ch=5 c=7 v=103
8081 Par ch=5 c=7 v=95
8082 Par ch=5 c=7 v=86
8083 Par ch=5 c=7 v=78
8084 Par ch=5 c=7 v=70
8085 Par ch=5 c=7 v=62
8086 Par ch=5 c=7 v=53
8087 Par ch=5 c=7 v=45
8088 Par ch=5 c=7 v=37
8090 Par ch=5 c=7 v=29
8091 Par ch=5 c=7 v=21
8092 Par ch=5 c=7 v=12
8093 Par ch=5 c=7 v=21
8094 Par ch=5 c=7 v=29
8095 Par ch=5 c=7 v=37
8097 Par ch=5 c=7 v=45
8097 Par ch=5 c=7 v=53
8098 Par ch=5 c=7 v=62
8100 On ch=5 n=58 v=0
8100 On ch=5 n=46 v=0
8100 On ch=5 n=53 v=0
8100 On ch=5 n=62 v=0
8100 Par ch=5 c=7 v=70
8100 On ch=5 n=46 v=40
8100 On ch=5 n=53 v=40
8100 On ch=5 n=58 v=40
8101 Par ch=5 c=7 v=86
8101 Par ch=5 c=7 v=78
8103 Par ch=5 c=7 v=95
8104 Par ch=5 c=7 v=103
8105 Par ch=5 c=7 v=111
8107 Par ch=5 c=7 v=119
8107 Par ch=5 c=7 v=127
8108 Par ch=5 c=7 v=119
8110 Par ch=5 c=7 v=111
8111 Par ch=5 c=7 v=103
8112 Par ch=5 c=7 v=95
8113 Par ch=5 c=7 v=86
8114 Par ch=5 c=7 v=78
8115 Par ch=5 c=7 v=70
8116 Par ch=5 c=7 v=62
8118 Par ch=5 c=7 v=53
8118 Par ch=5 c=7 v=45
8120 Par ch=5 c=7 v=37
8121 Par ch=5 c=7 v=29
8122 Par ch=5 c=7 v=21
8123 Par ch=5 c=7 v=12
8124 Par ch=5 c=7 v=21
8125 Par ch=5 c=7 v=29
8127 Par ch=5 c=7 v=37
8128 Par ch=5 c=7 v=45
8128 Par ch=5 c=7 v=53
8130 Par ch=5 c=7 v=62
8131 Par ch=5 c=7 v=70
8132 Par ch=5 c=7 v=78
8133 Par ch=5 c=7 v=86
8134 Par ch=5 c=7 v=95
8135 Par ch=5 c=7 v=103
8137 Par ch=5 c=7 v=111
8138 Par ch=5 c=7 v=127
8138 Par ch=5 c=7 v=119
8140 Par ch=5 c=7 v=119
8141 Par ch=5 c=7 v=111
8142 Par ch=5 c=7 v=103
8143 Par ch=5 c=7 v=95
8144 Par ch=5 c=7 v=86
8145 Par ch=5 c=7 v=78
8146 Par ch=5 c=7 v=70
8148 Par ch=5 c=7 v=62
8149 Par ch=5 c=7 v=53
8150 Par ch=5 c=7 v=45
8151 Par ch=5 c=7 v=37
8152 Par ch=5 c=7 v=29
8153 Par ch=5 c=7 v=21
8155 Par ch=5 c=7 v=12
8155 Par ch=5 c=7 v=21
8157 Par ch=5 c=7 v=29
8158 Par ch=5 c=7 v=37
8159 Par ch=5 c=7 v=45
8160 On ch=5 n=58 v=0
8160 On ch=5 n=53 v=0
8160 On ch=5 n=46 v=0
8160 On ch=5 n=53 v=40
8160 On ch=5 n=57 v=40
8160 On ch=5 n=60 v=40
8160 On ch=5 n=65 v=40
8220 On ch=5 n=65 v=0
8220 On ch=5 n=53 v=0
8220 On ch=5 n=57 v=0
8220 On ch=5 n=60 v=0
8220 On ch=5 n=60 v=40
8220 On ch=5 n=57 v=40
8220 Par ch=5 c=7 v=70
8220 On ch=5 n=53 v=40
8220 Par ch=5 c=7 v=78
8222 Par ch=5 c=7 v=86
8223 Par ch=5 c=7 v=95
8224 Par ch=5 c=7 v=103
8225 Par ch=5 c=7 v=111
8226 Par ch=5 c=7 v=119
8227 Par ch=5 c=7 v=127
8228 Par ch=5 c=7 v=119
8230 Par ch=5 c=7 v=103
8230 Par ch=5 c=7 v=111
8232 Par ch=5 c=7 v=95
8233 Par ch=5 c=7 v=86
8234 Par ch=5 c=7 v=78
8235 Par ch=5 c=7 v=70
8236 Par ch=5 c=7 v=62
8237 Par ch=5 c=7 v=53
8238 Par ch=5 c=7 v=45
8240 Par ch=5 c=7 v=37
8241 Par ch=5 c=7 v=29
8242 Par ch=5 c=7 v=21
8243 Par ch=5 c=7 v=12
8244 Par ch=5 c=7 v=21
8245 Par ch=5 c=7 v=29
8246 Par ch=5 c=7 v=37
8247 Par ch=5 c=7 v=45
8248 Par ch=5 c=7 v=53
8250 Par ch=5 c=7 v=62
8251 Par ch=5 c=7 v=70
8252 Par ch=5 c=7 v=78
8253 Par ch=5 c=7 v=86
8254 Par ch=5 c=7 v=95
8255 Par ch=5 c=7 v=103
8257 Par ch=5 c=7 v=119
8257 Par ch=5 c=7 v=111
8258 Par ch=5 c=7 v=127
8260 Par ch=5 c=7 v=119
8261 Par ch=5 c=7 v=111
8262 Par ch=5 c=7 v=103
8263 Par ch=5 c=7 v=95
8264 Par ch=5 c=7 v=86
8265 Par ch=5 c=7 v=78
8267 Par ch=5 c=7 v=62
8267 Par ch=5 c=7 v=70
8268 Par ch=5 c=7 v=53
8270 Par ch=5 c=7 v=45
8271 Par ch=5 c=7 v=37
8272 Par ch=5 c=7 v=29
8273 Par ch=5 c=7 v=21
8274 Par ch=5 c=7 v=12
8275 Par ch=5 c=7 v=21
8277 Par ch=5 c=7 v=29
8278 Par ch=5 c=7 v=45
8278 Par ch=5 c=7 v=37
8280 On ch=5 n=53 v=0
8280 On ch=5 n=57 v=0
8280 On ch=5 n=60 v=0
8280 On ch=5 n=65 v=40
8280 On ch=5 n=60 v=40
8280 On ch=5 n=57 v=40
8280 Par ch=5 c=7 v=53
8280 On ch=5 n=53 v=40
8281 Par ch=5 c=7 v=62
8282 Par ch=5 c=7 v=70
8283 Par ch=5 c=7 v=78
8284 Par ch=5 c=7 v=86
8285 Par ch=5 c=7 v=95
8287 Par ch=5 c=7 v=103
8288 Par ch=5 c=7 v=119
8288 Par ch=5 c=7 v=111
8290 Par ch=5 c=7 v=127
8291 Par ch=5 c=7 v=119
8292 Par ch=5 c=7 v=111
8293 Par ch=5 c=7 v=103
8294 Par ch=5 c=7 v=95
8295 Par ch=5 c=7 v=86
8297 Par ch=5 c=7 v=78
8298 Par ch=5 c=7 v=70
8298 Par ch=5 c=7 v=62
8300 Par ch=5 c=7 v=53
8301 Par ch=5 c=7 v=45
8302 Par ch=5 c=7 v=37
8303 Par ch=5 c=7 v=29
8304 Par ch=5 c=7 v=21
8305 Par ch=5 c=7 v=12
8307 Par ch=5 c=7 v=20
8308 Par ch=5 c=7 v=29
8309 Par ch=5 c=7 v=37
8310 Par ch=5 c=7 v=45
8311 Par ch=5 c=7 v=53
8312 Par ch=5 c=7 v=62
8313 Par ch=5 c=7 v=70
8315 Par ch=5 c=7 v=78
8315 Par ch=5 c=7 v=86
8317 Par ch=5 c=7 v=95
8318 Par ch=5 c=7 v=103
8319 Par ch=5 c=7 v=111
8320 Par ch=5 c=7 v=119
8321 Par ch=5 c=7 v=127
8322 Par ch=5 c=7 v=119
8323 Par ch=5 c=7 v=111
8325 Par ch=5 c=7 v=95
8325 Par ch=5 c=7 v=103
8327 Par ch=5 c=7 v=86
8328 Par ch=5 c=7 v=78
8329 Par ch=5 c=7 v=70
8330 Par ch=5 c=7 v=62
8331 Par ch=5 c=7 v=53
8332 Par ch=5 c=7 v=45
8333 Par ch=5 c=7 v=37
8335 Par ch=5 c=7 v=29
8335 Par ch=5 c=7 v=21
8337 Par ch=5 c=7 v=12
8338 Par ch=5 c=7 v=20
8339 Par ch=5 c=7 v=29
8340 On ch=5 n=53 v=0
8340 On ch=5 n=65 v=0
8340 On ch=5 n=60 v=0
8340 On ch=5 n=57 v=0
8340 On ch=5 n=53 v=40
8340 On ch=5 n=60 v=40
8340 Par ch=5 c=7 v=86
8340 Par ch=5 c=7 v=78
8340 On ch=5 n=57 v=40
8341 Par ch=5 c=7 v=95
8342 Par ch=5 c=7 v=103
8343 Par ch=5 c=7 v=111
8345 Par ch=5 c=7 v=119
8346 Par ch=5 c=7 v=127
8347 Par ch=5 c=7 v=119
8348 Par ch=5 c=7 v=111
8349 Par ch=5 c=7 v=103
8350 Par ch=5 c=7 v=95
8352 Par ch=5 c=7 v=78
8352 Par ch=5 c=7 v=86
8353 Par ch=5 c=7 v=70
8355 Par ch=5 c=7 v=62
8356 Par ch=5 c=7 v=53
8357 Par ch=5 c=7 v=45
8358 Par ch=5 c=7 v=37
8359 Par ch=5 c=7 v=29
8360 Par ch=5 c=7 v=21
8362 Par ch=5 c=7 v=21
8362 Par ch=5 c=7 v=12
8363 Par ch=5 c=7 v=29
8365 Par ch=5 c=7 v=37
8366 Par ch=5 c=7 v=45
8367 Par ch=5 c=7 v=53
8368 Par ch=5 c=7 v=62
8369 Par ch=5 c=7 v=70
8370 Par ch=5 c=7 v=78
8372 Par ch=5 c=7 v=95
8372 Par ch=5 c=7 v=86
8373 Par ch=5 c=7 v=103
8375 Par ch=5 c=7 v=111
8376 Par ch=5 c=7 v=119
8377 Par ch=5 c=7 v=127
8378 Par ch=5 c=7 v=119
8379 Par ch=5 c=7 v=111
8380 Par ch=5 c=7 v=103
8382 Par ch=5 c=7 v=95
8383 Par ch=5 c=7 v=78
8383 Par ch=5 c=7 v=86
8385 Par ch=5 c=7 v=70
8386 Par ch=5 c=7 v=62
8387 Par ch=5 c=7 v=53
8388 Par ch=5 c=7 v=45
8389 Par ch=5 c=7 v=37
8390 Par ch=5 c=7 v=29
8392 Par ch=5 c=7 v=21
8393 Par ch=5 c=7 v=21
8393 Par ch=5 c=7 v=12
8395 Par ch=5 c=7 v=29
8396 Par ch=5 c=7 v=37
8397 Par ch=5 c=7 v=45
8398 Par ch=5 c=7 v=53
8399 Par ch=5 c=7 v=62
8400 On ch=5 n=57 v=0
8400 On ch=5 n=60 v=0
8400 On ch=5 n=53 v=0
8400 Par ch=5 c=7 v=70
8400 On ch=5 n=60 v=40
8400 On ch=5 n=53 v=40
8400 On ch=5 n=65 v=40
8400 On ch=5 n=57 v=40
8402 Par ch=5 c=7 v=78
8403 Par ch=5 c=7 v=86
8404 Par ch=5 c=7 v=95
8405 Par ch=5 c=7 v=103
8406 Par ch=5 c=7 v=111
8407 Par ch=5 c=7 v=119
8408 Par ch=5 c=7 v=127
8409 Par ch=5 c=7 v=119
8410 Par ch=5 c=7 v=111
8411 Par ch=5 c=7 v=103
8413 Par ch=5 c=7 v=95
8414 Par ch=5 c=7 v=86
8415 Par ch=5 c=7 v=78
8416 Par ch=5 c=7 v=70
8417 Par ch=5 c=7 v=62
8418 Par ch=5 c=7 v=53
8420 Par ch=5 c=7 v=37
8420 Par ch=5 c=7 v=45
8422 Par ch=5 c=7 v=29
8423 Par ch=5 c=7 v=21
8424 Par ch=5 c=7 v=12
8425 Par ch=5 c=7 v=21
8426 Par ch=5 c=7 v=29
8427 Par ch=5 c=7 v=37
8428 Par ch=5 c=7 v=45
8430 Par ch=5 c=7 v=53
8430 Par ch=5 c=7 v=62
8432 Par ch=5 c=7 v=70
8433 Par ch=5 c=7 v=78
8434 Par ch=5 c=7 v=86
8435 Par ch=5 c=7 v=95
8436 Par ch=5 c=7 v=103
8437 Par ch=5 c=7 v=111
8438 Par ch=5 c=7 v=119
8440 Par ch=5 c=7 v=127
8441 Par ch=5 c=7 v=119
8442 Par ch=5 c=7 v=111
8443 Par ch=5 c=7 v=103
8444 Par ch=5 c=7 v=95
8445 Par ch=5 c=7 v=86
8446 Par ch=5 c=7 v=78
8447 Par ch=5 c=7 v=70
8448 Par ch=5 c=7 v=62
8450 Par ch=5 c=7 v=53
8451 Par ch=5 c=7 v=45
8452 Par ch=5 c=7 v=37
8453 Par ch=5 c=7 v=29
8454 Par ch=5 c=7 v=21
8455 Par ch=5 c=7 v=12
8457 Par ch=5 c=7 v=29
8457 Par ch=5 c=7 v=21
8458 Par ch=5 c=7 v=37
8460 On ch=5 n=57 v=0
8460 On ch=5 n=60 v=0
8460 On ch=5 n=53 v=0
8460 On ch=5 n=65 v=0
8460 On ch=5 n=53 v=40
8460 On ch=5 n=57 v=40
8460 Par ch=5 c=7 v=45
8460 On ch=5 n=60 v=40
8461 Par ch=5 c=7 v=53
8462 Par ch=5 c=7 v=62
8463 Par ch=5 c=7 v=70
8464 Par ch=5 c=7 v=78
8465 Par ch=5 c=7 v=86
8467 Par ch=5 c=7 v=95
8467 Par ch=5 c=7 v=103
8468 Par ch=5 c=7 v=111
8470 Par ch=5 c=7 v=119
8471 Par ch=5 c=7 v=127
8472 Par ch=5 c=7 v=119
8473 Par ch=5 c=7 v=111
8474 Par ch=5 c=7 v=103
8475 Par ch=5 c=7 v=95
8477 Par ch=5 c=7 v=86
8478 Par ch=5 c=7 v=78
8478 Par ch=5 c=7 v=70
8480 Par ch=5 c=7 v=62
8481 Par ch=5 c=7 v=53
8482 Par ch=5 c=7 v=45
8483 Par ch=5 c=7 v=37
8484 Par ch=5 c=7 v=29
8485 Par ch=5 c=7 v=21
8487 Par ch=5 c=7 v=12
8488 Par ch=5 c=7 v=20
8488 Par ch=5 c=7 v=29
8490 Par ch=5 c=7 v=37
8491 Par ch=5 c=7 v=45
8492 Par ch=5 c=7 v=53
8493 Par ch=5 c=7 v=62
8494 Par ch=5 c=7 v=70
8495 Par ch=5 c=7 v=78
8497 Par ch=5 c=7 v=86
8498 Par ch=5 c=7 v=95
8499 Par ch=5 c=7 v=103
8500 Par ch=5 c=7 v=111
8501 Par ch=5 c=7 v=119
8502 Par ch=5 c=7 v=127
8503 Par ch=5 c=7 v=119
8504 Par ch=5 c=7 v=111
8505 Par ch=5 c=7 v=103
8507 Par ch=5 c=7 v=95
8508 Par ch=5 c=7 v=86
8509 Par ch=5 c=7 v=78
8510 Par ch=5 c=7 v=70
8511 Par ch=5 c=7 v=62
8512 Par ch=5 c=7 v=53
8513 Par ch=5 c=7 v=45
8515 Par ch=5 c=7 v=29
8515 Par ch=5 c=7 v=37
8517 Par ch=5 c=7 v=21
8518 Par ch=5 c=7 v=12
8519 Par ch=5 c=7 v=20
8520 On ch=5 n=60 v=0
8520 On ch=5 n=57 v=0
8520 On ch=5 n=53 v=0
8520 On ch=5 n=65 v=40
8520 Par ch=5 c=7 v=29
8520 On ch=5 n=60 v=40
8520 On ch=5 n=57 v=40
8520 On ch=5 n=53 v=40
8521 Par ch=5 c=7 v=37
8522 Par ch=5 c=7 v=45
8523 Par ch=5 c=7 v=53
8525 Par ch=5 c=7 v=62
8525 Par ch=5 c=7 v=70
8527 Par ch=5 c=7 v=78
8528 Par ch=5 c=7 v=86
8529 Par ch=5 c=7 v=95
8530 Par ch=5 c=7 v=103
8531 Par ch=5 c=7 v=111
8532 Par ch=5 c=7 v=119
8533 Par ch=5 c=7 v=127
8535 Par ch=5 c=7 v=119
8536 Par ch=5 c=7 v=111
8537 Par ch=5 c=7 v=103
8538 Par ch=5 c=7 v=95
8539 Par ch=5 c=7 v=86
8540 Par ch=5 c=7 v=78
8541 Par ch=5 c=7 v=70
8542 Par ch=5 c=7 v=62
8543 Par ch=5 c=7 v=53
8545 Par ch=5 c=7 v=45
8546 Par ch=5 c=7 v=37
8547 Par ch=5 c=7 v=29
8548 Par ch=5 c=7 v=21
8549 Par ch=5 c=7 v=12
8550 Par ch=5 c=7 v=20
8552 Par ch=5 c=7 v=37
8552 Par ch=5 c=7 v=29
8553 Par ch=5 c=7 v=45
8555 Par ch=5 c=7 v=53
8556 Par ch=5 c=7 v=62
8557 Par ch=5 c=7 v=70
8558 Par ch=5 c=7 v=78
8559 Par ch=5 c=7 v=86
8560 Par ch=5 c=7 v=95
8562 Par ch=5 c=7 v=103
8562 Par ch=5 c=7 v=111
8563 Par ch=5 c=7 v=119
8565 Par ch=5 c=7 v=127
8566 Par ch=5 c=7 v=119
8567 Par ch=5 c=7 v=111
8568 Par ch=5 c=7 v=103
8569 Par ch=5 c=7 v=95
8570 Par ch=5 c=7 v=86
8572 Par ch=5 c=7 v=78
8573 Par ch=5 c=7 v=62
8573 Par ch=5 c=7 v=70
8575 Par ch=5 c=7 v=53
8576 Par ch=5 c=7 v=45
8577 Par ch=5 c=7 v=37
8578 Par ch=5 c=7 v=29
8579 Par ch=5 c=7 v=21
8580 On ch=5 n=53 v=0
8580 On ch=5 n=65 v=0
8580 On ch=5 n=60 v=0
8580 On ch=5 n=57 v=0
8580 On ch=5 n=57 v=40
8580 On ch=5 n=53 v=40
8580 Par ch=5 c=7 v=12
8580 On ch=5 n=60 v=40
8582 Par ch=5 c=7 v=20
8583 Par ch=5 c=7 v=37
8583 Par ch=5 c=7 v=29
8585 Par ch=5 c=7 v=45
8586 Par ch=5 c=7 v=53
8587 Par ch=5 c=7 v=62
8588 Par ch=5 c=7 v=70
8589 Par ch=5 c=7 v=78
8590 Par ch=5 c=7 v=86
8592 Par ch=5 c=7 v=95
8593 Par ch=5 c=7 v=103
8594 Par ch=5 c=7 v=111
8595 Par ch=5 c=7 v=119
8596 Par ch=5 c=7 v=127
8597 Par ch=5 c=7 v=119
8598 Par ch=5 c=7 v=111
8599 Par ch=5 c=7 v=103
8600 Par ch=5 c=7 v=95
8602 Par ch=5 c=7 v=86
8603 Par ch=5 c=7 v=78
8604 Par ch=5 c=7 v=70
8605 Par ch=5 c=7 v=62
8606 Par ch=5 c=7 v=54
8607 Par ch=5 c=7 v=45
8608 Par ch=5 c=7 v=37
8610 Par ch=5 c=7 v=29
8610 Par ch=5 c=7 v=21
8611 Par ch=5 c=7 v=12
8613 Par ch=5 c=7 v=20
8614 Par ch=5 c=7 v=29
8615 Par ch=5 c=7 v=37
8616 Par ch=5 c=7 v=45
8617 Par ch=5 c=7 v=53
8618 Par ch=5 c=7 v=62
8620 Par ch=5 c=7 v=78
8620 Par ch=5 c=7 v=70
8622 Par ch=5 c=7 v=86
8623 Par ch=5 c=7 v=95
8624 Par ch=5 c=7 v=103
8625 Par ch=5 c=7 v=111
8626 Par ch=5 c=7 v=119
8627 Par ch=5 c=7 v=127
8628 Par ch=5 c=7 v=119
8630 Par ch=5 c=7 v=111
8631 Par ch=5 c=7 v=103
8632 Par ch=5 c=7 v=95
8633 Par ch=5 c=7 v=86
8634 Par ch=5 c=7 v=78
8635 Par ch=5 c=7 v=70
8636 Par ch=5 c=7 v=62
8637 Par ch=5 c=7 v=54
8638 Par ch=5 c=7 v=45
8640 On ch=5 n=60 v=0
8640 On ch=5 n=53 v=0
8640 On ch=5 n=57 v=0
8640 Par ch=5 c=7 v=78
8640 On ch=5 n=60 v=40
8640 On ch=5 n=52 v=40
8640 Par ch=5 c=7 v=86
8640 On ch=5 n=55 v=40
8640 On ch=5 n=64 v=40
8641 Par ch=5 c=7 v=95
8641 Par ch=5 c=7 v=103
8643 Par ch=5 c=7 v=111
8644 Par ch=5 c=7 v=119
8645 Par ch=5 c=7 v=127
8647 Par ch=5 c=7 v=119
8647 Par ch=5 c=7 v=111
8648 Par ch=5 c=7 v=103
8650 Par ch=5 c=7 v=95
8651 Par ch=5 c=7 v=86
8652 Par ch=5 c=7 v=78
8653 Par ch=5 c=7 v=70
8654 Par ch=5 c=7 v=62
8655 Par ch=5 c=7 v=53
8656 Par ch=5 c=7 v=45
8657 Par ch=5 c=7 v=37
8658 Par ch=5 c=7 v=29
8660 Par ch=5 c=7 v=21
8661 Par ch=5 c=7 v=12
8662 Par ch=5 c=7 v=21
8663 Par ch=5 c=7 v=29
8664 Par ch=5 c=7 v=37
8665 Par ch=5 c=7 v=45
8667 Par ch=5 c=7 v=53
8668 Par ch=5 c=7 v=70
8668 Par ch=5 c=7 v=62
8670 Par ch=5 c=7 v=78
8671 Par ch=5 c=7 v=86
8672 Par ch=5 c=7 v=95
8673 Par ch=5 c=7 v=103
8674 Par ch=5 c=7 v=111
8675 Par ch=5 c=7 v=119
8677 Par ch=5 c=7 v=127
8678 Par ch=5 c=7 v=111
8678 Par ch=5 c=7 v=119
8680 Par ch=5 c=7 v=103
8681 Par ch=5 c=7 v=95
8682 Par ch=5 c=7 v=86
8683 Par ch=5 c=7 v=78
8684 Par ch=5 c=7 v=70
8685 Par ch=5 c=7 v=62
8687 Par ch=5 c=7 v=53
8688 Par ch=5 c=7 v=45
8688 Par ch=5 c=7 v=37
8690 Par ch=5 c=7 v=29
8691 Par ch=5 c=7 v=21
8692 Par ch=5 c=7 v=12
8693 Par ch=5 c=7 v=21
8694 Par ch=5 c=7 v=29
8695 Par ch=5 c=7 v=37
8697 Par ch=5 c=7 v=45
8698 Par ch=5 c=7 v=53
8699 Par ch=5 c=7 v=62
8700 On ch=5 n=64 v=0
8700 On ch=5 n=60 v=0
8700 On ch=5 n=52 v=0
8700 On ch=5 n=55 v=0
8700 On ch=5 n=55 v=40
8700 On ch=5 n=52 v=40
8700 Par ch=5 c=7 v=70
8700 On ch=5 n=60 v=40
8701 Par ch=5 c=7 v=78
8702 Par ch=5 c=7 v=86
8703 Par ch=5 c=7 v=95
8705 Par ch=5 c=7 v=111
8705 Par ch=5 c=7 v=103
8707 Par ch=5 c=7 v=119
8708 Par ch=5 c=7 v=127
8709 Par ch=5 c=7 v=119
8710 Par ch=5 c=7 v=111
8711 Par ch=5 c=7 v=103
8712 Par ch=5 c=7 v=95
8713 Par ch=5 c=7 v=86
8715 Par ch=5 c=7 v=78
8715 Par ch=5 c=7 v=70
8717 Par ch=5 c=7 v=62
8718 Par ch=5 c=7 v=53
8719 Par ch=5 c=7 v=45
8720 Par ch=5 c=7 v=37
8721 Par ch=5 c=7 v=29
8722 Par ch=5 c=7 v=21
8723 Par ch=5 c=7 v=12
8725 Par ch=5 c=7 v=21
8725 Par ch=5 c=7 v=29
8727 Par ch=5 c=7 v=37
8728 Par ch=5 c=7 v=45
8729 Par ch=5 c=7 v=53
8730 Par ch=5 c=7 v=62
8731 Par ch=5 c=7 v=70
8732 Par ch=5 c=7 v=78
8733 Par ch=5 c=7 v=86
8735 Par ch=5 c=7 v=95
8736 Par ch=5 c=7 v=103
8737 Par ch=5 c=7 v=111
8738 Par ch=5 c=7 v=119
8739 Par ch=5 c=7 v=127
8740 Par ch=5 c=7 v=119
8742 Par ch=5 c=7 v=111
8742 Par ch=5 c=7 v=103
8743 Par ch=5 c=7 v=95
8745 Par ch=5 c=7 v=86
8746 Par ch=5 c=7 v=78
8747 Par ch=5 c=7 v=70
8748 Par ch=5 c=7 v=62
8749 Par ch=5 c=7 v=53
8750 Par ch=5 c=7 v=45
8752 Par ch=5 c=7 v=29
8752 Par ch=5 c=7 v=37
8753 Par ch=5 c=7 v=21
8755 Par ch=5 c=7 v=12
8756 Par ch=5 c=7 v=21
8757 Par ch=5 c=7 v=29
8758 Par ch=5 c=7 v=37
8759 Par ch=5 c=7 v=45
8760 On ch=5 n=60 v=0
8760 On ch=5 n=52 v=0
8760 On ch=5 n=55 v=0
8760 On ch=5 n=55 v=40
8760 On ch=5 n=64 v=40
8760 Par ch=5 c=7 v=53
8760 On ch=5 n=60 v=40
8760 On ch=5 n=52 v=40
8762 Par ch=5 c=7 v=62
8762 Par ch=5 c=7 v=70
8763 Par ch=5 c=7 v=78
8765 Par ch=5 c=7 v=86
8766 Par ch=5 c=7 v=95
8767 Par ch=5 c=7 v=103
8768 Par ch=5 c=7 v=111
8769 Par ch=5 c=7 v=119
8770 Par ch=5 c=7 v=127
8772 Par ch=5 c=7 v=119
8773 Par ch=5 c=7 v=111
8773 Par ch=5 c=7 v=103
8775 Par ch=5 c=7 v=95
8776 Par ch=5 c=7 v=86
8777 Par ch=5 c=7 v=78
8778 Par ch=5 c=7 v=70
8779 Par ch=5 c=7 v=62
8780 Par ch=5 c=7 v=53
8782 Par ch=5 c=7 v=45
8783 Par ch=5 c=7 v=37
8783 Par ch=5 c=7 v=29
8785 Par ch=5 c=7 v=21
8786 Par ch=5 c=7 v=12
8787 Par ch=5 c=7 v=20
8788 Par ch=5 c=7 v=29
8789 Par ch=5 c=7 v=37
8790 Par ch=5 c=7 v=45
8792 Par ch=5 c=7 v=53
8793 Par ch=5 c=7 v=62
8794 Par ch=5 c=7 v=70
8795 Par ch=5 c=7 v=78
8796 Par ch=5 c=7 v=86
8797 Par ch=5 c=7 v=95
8798 Par ch=5 c=7 v=103
8799 Par ch=5 c=7 v=111
8800 Par ch=5 c=7 v=119
8802 Par ch=5 c=7 v=127
8803 Par ch=5 c=7 v=119
8804 Par ch=5 c=7 v=111
8805 Par ch=5 c=7 v=103
8806 Par ch=5 c=7 v=95
8807 Par ch=5 c=7 v=86
8808 Par ch=5 c=7 v=78
8810 Par ch=5 c=7 v=70
8810 Par ch=5 c=7 v=62
8812 Par ch=5 c=7 v=53
8813 Par ch=5 c=7 v=45
8814 Par ch=5 c=7 v=37
8815 Par ch=5 c=7 v=29
8816 Par ch=5 c=7 v=21
8817 Par ch=5 c=7 v=12
8818 Par ch=5 c=7 v=20
8820 On ch=5 n=52 v=0
8820 On ch=5 n=55 v=0
8820 On ch=5 n=64 v=0
8820 On ch=5 n=60 v=0
8820 On ch=5 n=52 v=40
8820 On ch=5 n=60 v=40
8820 Par ch=5 c=7 v=95
8820 Par ch=5 c=7 v=78
8820 Par ch=5 c=7 v=86
8820 On ch=5 n=55 v=40
8822 Par ch=5 c=7 v=103
8823 Par ch=5 c=7 v=111
8824 Par ch=5 c=7 v=119
8825 Par ch=5 c=7 v=127
8826 Par ch=5 c=7 v=119
8827 Par ch=5 c=7 v=111
8828 Par ch=5 c=7 v=103
8830 Par ch=5 c=7 v=95
8831 Par ch=5 c=7 v=86
8832 Par ch=5 c=7 v=78
8833 Par ch=5 c=7 v=70
8834 Par ch=5 c=7 v=62
8835 Par ch=5 c=7 v=53
8836 Par ch=5 c=7 v=45
8837 Par ch=5 c=7 v=37
8838 Par ch=5 c=7 v=29
8840 Par ch=5 c=7 v=21
8841 Par ch=5 c=7 v=12
8842 Par ch=5 c=7 v=21
8843 Par ch=5 c=7 v=29
8844 Par ch=5 c=7 v=37
8845 Par ch=5 c=7 v=45
8847 Par ch=5 c=7 v=53
8847 Par ch=5 c=7 v=62
8848 Par ch=5 c=7 v=70
8850 Par ch=5 c=7 v=78
8851 Par ch=5 c=7 v=86
8852 Par ch=5 c=7 v=95
8853 Par ch=5 c=7 v=103
8854 Par ch=5 c=7 v=111
8855 Par ch=5 c=7 v=119
8857 Par ch=5 c=7 v=119
8857 Par ch=5 c=7 v=127
8858 Par ch=5 c=7 v=111
8860 Par ch=5 c=7 v=103
8861 Par ch=5 c=7 v=95
8862 Par ch=5 c=7 v=86
8863 Par ch=5 c=7 v=78
8864 Par ch=5 c=7 v=70
8865 Par ch=5 c=7 v=62
8867 Par ch=5 c=7 v=53
8868 Par ch=5 c=7 v=45
8868 Par ch=5 c=7 v=37
8870 Par ch=5 c=7 v=29
8871 Par ch=5 c=7 v=21
8872 Par ch=5 c=7 v=12
8873 Par ch=5 c=7 v=21
8874 Par ch=5 c=7 v=29
8875 Par ch=5 c=7 v=37
8877 Par ch=5 c=7 v=45
8878 Par ch=5 c=7 v=53
8878 Par ch=5 c=7 v=62
8880 On ch=5 n=55 v=0
8880 On ch=5 n=60 v=0
8880 On ch=5 n=52 v=0
8880 On ch=5 n=64 v=40
8880 Par ch=5 c=7 v=70
8880 On ch=5 n=52 v=40
8880 On ch=5 n=55 v=40
8880 On ch=5 n=60 v=40
8881 Par ch=5 c=7 v=78
8882 Par ch=5 c=7 v=86
8883 Par ch=5 c=7 v=95
8884 Par ch=5 c=7 v=103
8885 Par ch=5 c=7 v=111
8887 Par ch=5 c=7 v=119
8888 Par ch=5 c=7 v=127
8889 Par ch=5 c=7 v=119
8890 Par ch=5 c=7 v=111
8891 Par ch=5 c=7 v=103
8892 Par ch=5 c=7 v=95
8893 Par ch=5 c=7 v=86
8894 Par ch=5 c=7 v=78
8895 Par ch=5 c=7 v=70
8897 Par ch=5 c=7 v=62
8898 Par ch=5 c=7 v=53
8899 Par ch=5 c=7 v=45
8900 Par ch=5 c=7 v=37
8901 Par ch=5 c=7 v=29
8902 Par ch=5 c=7 v=21
8903 Par ch=5 c=7 v=12
8905 Par ch=5 c=7 v=21
8905 Par ch=5 c=7 v=29
8907 Par ch=5 c=7 v=37
8908 Par ch=5 c=7 v=45
8909 Par ch=5 c=7 v=53
8910 Par ch=5 c=7 v=62
8911 Par ch=5 c=7 v=70
8912 Par ch=5 c=7 v=78
8913 Par ch=5 c=7 v=86
8915 Par ch=5 c=7 v=103
8915 Par ch=5 c=7 v=95
8917 Par ch=5 c=7 v=111
8918 Par ch=5 c=7 v=119
8919 Par ch=5 c=7 v=127
8920 Par ch=5 c=7 v=119
8921 Par ch=5 c=7 v=111
8922 Par ch=5 c=7 v=103
8923 Par ch=5 c=7 v=95
8925 Par ch=5 c=7 v=86
8926 Par ch=5 c=7 v=78
8927 Par ch=5 c=7 v=70
8928 Par ch=5 c=7 v=62
8929 Par ch=5 c=7 v=53
8930 Par ch=5 c=7 v=45
8931 Par ch=5 c=7 v=37
8932 Par ch=5 c=7 v=29
8933 Par ch=5 c=7 v=21
8935 Par ch=5 c=7 v=12
8936 Par ch=5 c=7 v=21
8937 Par ch=5 c=7 v=29
8938 Par ch=5 c=7 v=37
8939 Par ch=5 c=7 v=45
8940 On ch=5 n=60 v=0
8940 On ch=5 n=64 v=0
8940 On ch=5 n=52 v=0
8940 On ch=5 n=55 v=0
8940 On ch=5 n=55 v=40
8940 On ch=5 n=60 v=40
8940 Par ch=5 c=7 v=53
8940 On ch=5 n=52 v=40
8942 Par ch=5 c=7 v=62
8942 Par ch=5 c=7 v=70
8943 Par ch=5 c=7 v=78
8945 Par ch=5 c=7 v=86
8946 Par ch=5 c=7 v=95
8947 Par ch=5 c=7 v=103
8948 Par ch=5 c=7 v=111
8949 Par ch=5 c=7 v=119
8950 Par ch=5 c=7 v=127
8952 Par ch=5 c=7 v=111
8952 Par ch=5 c=7 v=119
8953 Par ch=5 c=7 v=103
8955 Par ch=5 c=7 v=95
8956 Par ch=5 c=7 v=86
8957 Par ch=5 c=7 v=78
8958 Par ch=5 c=7 v=70
8959 Par ch=5 c=7 v=62
8960 Par ch=5 c=7 v=53
8962 Par ch=5 c=7 v=45
8963 Par ch=5 c=7 v=37
8963 Par ch=5 c=7 v=29
8965 Par ch=5 c=7 v=21
8966 Par ch=5 c=7 v=12
8967 Par ch=5 c=7 v=20
8968 Par ch=5 c=7 v=29
8969 Par ch=5 c=7 v=37
8970 Par ch=5 c=7 v=45
8972 Par ch=5 c=7 v=53
8973 Par ch=5 c=7 v=62
8973 Par ch=5 c=7 v=70
8975 Par ch=5 c=7 v=78
8976 Par ch=5 c=7 v=86
8977 Par ch=5 c=7 v=95
8978 Par ch=5 c=7 v=103
8979 Par ch=5 c=7 v=111
8980 Par ch=5 c=7 v=119
8982 Par ch=5 c=7 v=127
8983 Par ch=5 c=7 v=111
8983 Par ch=5 c=7 v=119
8985 Par ch=5 c=7 v=103
8986 Par ch=5 c=7 v=95
8987 Par ch=5 c=7 v=86
8988 Par ch=5 c=7 v=78
8989 Par ch=5 c=7 v=70
8990 Par ch=5 c=7 v=62
8992 Par ch=5 c=7 v=53
8993 Par ch=5 c=7 v=45
8994 Par ch=5 c=7 v=37
8995 Par ch=5 c=7 v=29
8996 Par ch=5 c=7 v=21
8997 Par ch=5 c=7 v=12
8998 Par ch=5 c=7 v=20
9000 On ch=5 n=52 v=0
9000 On ch=5 n=60 v=0
9000 On ch=5 n=55 v=0
9000 On ch=5 n=55 v=40
9000 On ch=5 n=60 v=40
9000 Par ch=5 c=7 v=37
9000 On ch=5 n=52 v=40
9000 Par ch=5 c=7 v=29
9000 On ch=5 n=64 v=40
9002 Par ch=5 c=7 v=45
9003 Par ch=5 c=7 v=53
9004 Par ch=5 c=7 v=62
9005 Par ch=5 c=7 v=70
9006 Par ch=5 c=7 v=78
9007 Par ch=5 c=7 v=86
9008 Par ch=5 c=7 v=95
9010 Par ch=5 c=7 v=103
9010 Par ch=5 c=7 v=111
9012 Par ch=5 c=7 v=119
9013 Par ch=5 c=7 v=127
9014 Par ch=5 c=7 v=119
9015 Par ch=5 c=7 v=111
9016 Par ch=5 c=7 v=103
9017 Par ch=5 c=7 v=95
9018 Par ch=5 c=7 v=86
9020 Par ch=5 c=7 v=70
9020 Par ch=5 c=7 v=78
9022 Par ch=5 c=7 v=62
9023 Par ch=5 c=7 v=53
9024 Par ch=5 c=7 v=45
9025 Par ch=5 c=7 v=37
9026 Par ch=5 c=7 v=29
9027 Par ch=5 c=7 v=21
9028 Par ch=5 c=7 v=12
9030 Par ch=5 c=7 v=20
9031 Par ch=5 c=7 v=29
9032 Par ch=5 c=7 v=37
9033 Par ch=5 c=7 v=45
9034 Par ch=5 c=7 v=53
9035 Par ch=5 c=7 v=62
9037 Par ch=5 c=7 v=70
9037 Par ch=5 c=7 v=78
9038 Par ch=5 c=7 v=86
9040 Par ch=5 c=7 v=95
9041 Par ch=5 c=7 v=103
9042 Par ch=5 c=7 v=111
9043 Par ch=5 c=7 v=119
9044 Par ch=5 c=7 v=127
9045 Par ch=5 c=7 v=119
9047 Par ch=5 c=7 v=103
9047 Par ch=5 c=7 v=111
9048 Par ch=5 c=7 v=95
9050 Par ch=5 c=7 v=86
9051 Par ch=5 c=7 v=78
9052 Par ch=5 c=7 v=70
9053 Par ch=5 c=7 v=62
9054 Par ch=5 c=7 v=53
9055 Par ch=5 c=7 v=45
9056 Par ch=5 c=7 v=37
9058 Par ch=5 c=7 v=21
9058 Par ch=5 c=7 v=29
9060 On ch=5 n=64 v=0
9060 On ch=5 n=55 v=0
9060 On ch=5 n=60 v=0
9060 On ch=5 n=52 v=0
9060 On ch=5 n=55 v=40
9060 On ch=5 n=60 v=40
9060 On ch=5 n=52 v=40
9060 Par ch=5 c=7 v=12
9061 Par ch=5 c=7 v=20
9062 Par ch=5 c=7 v=29
9063 Par ch=5 c=7 v=37
9064 Par ch=5 c=7 v=45
9065 Par ch=5 c=7 v=53
9067 Par ch=5 c=7 v=62
9068 Par ch=5 c=7 v=70
9068 Par ch=5 c=7 v=78
9070 Par ch=5 c=7 v=86
9071 Par ch=5 c=7 v=95
9072 Par ch=5 c=7 v=103
9073 Par ch=5 c=7 v=111
9074 Par ch=5 c=7 v=119
9075 Par ch=5 c=7 v=127
9077 Par ch=5 c=7 v=119
9078 Par ch=5 c=7 v=111
9078 Par ch=5 c=7 v=103
9080 Par ch=5 c=7 v=95
9081 Par ch=5 c=7 v=86
9082 Par ch=5 c=7 v=78
9083 Par ch=5 c=7 v=70
9084 Par ch=5 c=7 v=62
9085 Par ch=5 c=7 v=54
9086 Par ch=5 c=7 v=45
9088 Par ch=5 c=7 v=37
9089 Par ch=5 c=7 v=29
9090 Par ch=5 c=7 v=21
9091 Par ch=5 c=7 v=12
9092 Par ch=5 c=7 v=20
9093 Par ch=5 c=7 v=29
9094 Par ch=5 c=7 v=37
9095 Par ch=5 c=7 v=45
9097 Par ch=5 c=7 v=53
9098 Par ch=5 c=7 v=62
9099 Par ch=5 c=7 v=70
9100 Par ch=5 c=7 v=78
9101 Par ch=5 c=7 v=86
9102 Par ch=5 c=7 v=95
9103 Par ch=5 c=7 v=103
9105 Par ch=5 c=7 v=119
9105 Par ch=5 c=7 v=111
9107 Par ch=5 c=7 v=127
9108 Par ch=5 c=7 v=119
9109 Par ch=5 c=7 v=111
9110 Par ch=5 c=7 v=103
9111 Par ch=5 c=7 v=95
9112 Par ch=5 c=7 v=86
9113 Par ch=5 c=7 v=78
9115 Par ch=5 c=7 v=62
9115 Par ch=5 c=7 v=70
9116 Par ch=5 c=7 v=54
9118 Par ch=5 c=7 v=45
9119 Par ch=5 c=7 v=37
9120 On ch=5 n=52 v=0
9120 On ch=5 n=60 v=0
9120 On ch=5 n=55 v=0
9120 On ch=5 n=53 v=40
9120 On ch=5 n=62 v=40
9120 Par ch=5 c=7 v=86
9120 On ch=5 n=50 v=40
9120 Par ch=5 c=7 v=78
9120 On ch=5 n=57 v=40
9121 Par ch=5 c=7 v=95
9122 Par ch=5 c=7 v=103
9123 Par ch=5 c=7 v=111
9125 Par ch=5 c=7 v=119
9126 Par ch=5 c=7 v=127
9127 Par ch=5 c=7 v=119
9128 Par ch=5 c=7 v=111
9129 Par ch=5 c=7 v=103
9130 Par ch=5 c=7 v=95
9131 Par ch=5 c=7 v=86
9132 Par ch=5 c=7 v=78
9133 Par ch=5 c=7 v=70
9135 Par ch=5 c=7 v=62
9136 Par ch=5 c=7 v=53
9137 Par ch=5 c=7 v=45
9138 Par ch=5 c=7 v=37
9139 Par ch=5 c=7 v=29
9140 Par ch=5 c=7 v=21
9142 Par ch=5 c=7 v=12
9142 Par ch=5 c=7 v=21
9143 Par ch=5 c=7 v=29
9145 Par ch=5 c=7 v=37
9146 Par ch=5 c=7 v=45
9147 Par ch=5 c=7 v=53
9148 Par ch=5 c=7 v=62
9149 Par ch=5 c=7 v=70
9150 Par ch=5 c=7 v=78
9152 Par ch=5 c=7 v=86
9152 Par ch=5 c=7 v=95
9153 Par ch=5 c=7 v=103
9155 Par ch=5 c=7 v=111
9156 Par ch=5 c=7 v=119
9157 Par ch=5 c=7 v=127
9158 Par ch=5 c=7 v=119
9159 Par ch=5 c=7 v=111
9160 Par ch=5 c=7 v=103
9161 Par ch=5 c=7 v=95
9163 Par ch=5 c=7 v=86
9163 Par ch=5 c=7 v=78
9165 Par ch=5 c=7 v=70
9166 Par ch=5 c=7 v=62
9167 Par ch=5 c=7 v=53
9168 Par ch=5 c=7 v=45
9169 Par ch=5 c=7 v=37
9170 Par ch=5 c=7 v=29
9172 Par ch=5 c=7 v=21
9173 Par ch=5 c=7 v=21
9173 Par ch=5 c=7 v=12
9175 Par ch=5 c=7 v=29
9176 Par ch=5 c=7 v=37
9177 Par ch=5 c=7 v=45
9178 Par ch=5 c=7 v=53
9179 Par ch=5 c=7 v=62
9180 On ch=5 n=57 v=0
9180 On ch=5 n=53 v=0
9180 On ch=5 n=62 v=0
9180 On ch=5 n=50 v=0
9180 On ch=5 n=50 v=40
9180 On ch=5 n=53 v=40
9180 On ch=5 n=57 v=40
9180 Par ch=5 c=7 v=70
9182 Par ch=5 c=7 v=78
9183 Par ch=5 c=7 v=86
9184 Par ch=5 c=7 v=95
9185 Par ch=5 c=7 v=103
9186 Par ch=5 c=7 v=111
9187 Par ch=5 c=7 v=119
9188 Par ch=5 c=7 v=127
9189 Par ch=5 c=7 v=119
9190 Par ch=5 c=7 v=111
9192 Par ch=5 c=7 v=103
9193 Par ch=5 c=7 v=95
9194 Par ch=5 c=7 v=86
9195 Par ch=5 c=7 v=78
9196 Par ch=5 c=7 v=70
9197 Par ch=5 c=7 v=62
9198 Par ch=5 c=7 v=53
9200 Par ch=5 c=7 v=45
9200 Par ch=5 c=7 v=37
9202 Par ch=5 c=7 v=29
9203 Par ch=5 c=7 v=21
9204 Par ch=5 c=7 v=12
9205 Par ch=5 c=7 v=21
9206 Par ch=5 c=7 v=29
9207 Par ch=5 c=7 v=37
9208 Par ch=5 c=7 v=45
9210 Par ch=5 c=7 v=62
9210 Par ch=5 c=7 v=53
9212 Par ch=5 c=7 v=70
9213 Par ch=5 c=7 v=78
9214 Par ch=5 c=7 v=86
9215 Par ch=5 c=7 v=95
9216 Par ch=5 c=7 v=103
9217 Par ch=5 c=7 v=111
9218 Par ch=5 c=7 v=119
9220 Par ch=5 c=7 v=127
9221 Par ch=5 c=7 v=119
9222 Par ch=5 c=7 v=111
9223 Par ch=5 c=7 v=103
9224 Par ch=5 c=7 v=95
9225 Par ch=5 c=7 v=86
9226 Par ch=5 c=7 v=78
9227 Par ch=5 c=7 v=70
9228 Par ch=5 c=7 v=62
9230 Par ch=5 c=7 v=53
9231 Par ch=5 c=7 v=45
9232 Par ch=5 c=7 v=37
9233 Par ch=5 c=7 v=29
9234 Par ch=5 c=7 v=21
9235 Par ch=5 c=7 v=12
9237 Par ch=5 c=7 v=29
9237 Par ch=5 c=7 v=21
9238 Par ch=5 c=7 v=37
9240 On ch=5 n=57 v=0
9240 On ch=5 n=53 v=0
9240 On ch=5 n=50 v=0
9240 On ch=5 n=50 v=40
9240 On ch=5 n=53 v=40
9240 Par ch=5 c=7 v=45
9240 On ch=5 n=62 v=40
9240 On ch=5 n=57 v=40
9241 Par ch=5 c=7 v=53
9242 Par ch=5 c=7 v=62
9243 Par ch=5 c=7 v=70
9244 Par ch=5 c=7 v=78
9245 Par ch=5 c=7 v=86
9247 Par ch=5 c=7 v=103
9247 Par ch=5 c=7 v=95
9248 Par ch=5 c=7 v=111
9250 Par ch=5 c=7 v=119
9251 Par ch=5 c=7 v=127
9252 Par ch=5 c=7 v=119
9253 Par ch=5 c=7 v=111
9254 Par ch=5 c=7 v=103
9255 Par ch=5 c=7 v=95
9257 Par ch=5 c=7 v=86
9258 Par ch=5 c=7 v=78
9258 Par ch=5 c=7 v=70
9260 Par ch=5 c=7 v=62
9261 Par ch=5 c=7 v=53
9262 Par ch=5 c=7 v=45
9263 Par ch=5 c=7 v=37
9264 Par ch=5 c=7 v=29
9265 Par ch=5 c=7 v=21
9267 Par ch=5 c=7 v=12
9268 Par ch=5 c=7 v=20
9268 Par ch=5 c=7 v=29
9270 Par ch=5 c=7 v=37
9271 Par ch=5 c=7 v=45
9272 Par ch=5 c=7 v=53
9273 Par ch=5 c=7 v=62
9274 Par ch=5 c=7 v=70
9275 Par ch=5 c=7 v=78
9277 Par ch=5 c=7 v=86
9278 Par ch=5 c=7 v=95
9279 Par ch=5 c=7 v=103
9280 Par ch=5 c=7 v=111
9281 Par ch=5 c=7 v=119
9282 Par ch=5 c=7 v=127
9283 Par ch=5 c=7 v=119
9284 Par ch=5 c=7 v=111
9285 Par ch=5 c=7 v=103
9287 Par ch=5 c=7 v=95
9288 Par ch=5 c=7 v=86
9289 Par ch=5 c=7 v=78
9290 Par ch=5 c=7 v=70
9291 Par ch=5 c=7 v=62
9292 Par ch=5 c=7 v=53
9293 Par ch=5 c=7 v=45
9295 Par ch=5 c=7 v=29
9295 Par ch=5 c=7 v=37
9297 Par ch=5 c=7 v=21
9298 Par ch=5 c=7 v=12
9299 Par ch=5 c=7 v=20
9300 On ch=5 n=57 v=0
9300 On ch=5 n=50 v=0
9300 On ch=5 n=53 v=0
9300 On ch=5 n=62 v=0
9300 On ch=5 n=53 v=40
9300 Par ch=5 c=7 v=78
9300 On ch=5 n=57 v=40
9300 On ch=5 n=50 v=40
9300 Par ch=5 c=7 v=86
9301 Par ch=5 c=7 v=95
9302 Par ch=5 c=7 v=103
9303 Par ch=5 c=7 v=111
9305 Par ch=5 c=7 v=119
9305 Par ch=5 c=7 v=127
9307 Par ch=5 c=7 v=119
9308 Par ch=5 c=7 v=111
9309 Par ch=5 c=7 v=103
9310 Par ch=5 c=7 v=95
9311 Par ch=5 c=7 v=86
9312 Par ch=5 c=7 v=78
9313 Par ch=5 c=7 v=70
9315 Par ch=5 c=7 v=62
9316 Par ch=5 c=7 v=53
9317 Par ch=5 c=7 v=45
9318 Par ch=5 c=7 v=37
9319 Par ch=5 c=7 v=29
9320 Par ch=5 c=7 v=21
9321 Par ch=5 c=7 v=12
9322 Par ch=5 c=7 v=21
9323 Par ch=5 c=7 v=29
9325 Par ch=5 c=7 v=37
9326 Par ch=5 c=7 v=45
9327 Par ch=5 c=7 v=53
9328 Par ch=5 c=7 v=62
9329 Par ch=5 c=7 v=70
9330 Par ch=5 c=7 v=78
9332 Par ch=5 c=7 v=86
9332 Par ch=5 c=7 v=95
9333 Par ch=5 c=7 v=103
9335 Par ch=5 c=7 v=111
9336 Par ch=5 c=7 v=119
9337 Par ch=5 c=7 v=127
9338 Par ch=5 c=7 v=119
9339 Par ch=5 c=7 v=111
9340 Par ch=5 c=7 v=103
9342 Par ch=5 c=7 v=86
9342 Par ch=5 c=7 v=95
9343 Par ch=5 c=7 v=78
9345 Par ch=5 c=7 v=70
9346 Par ch=5 c=7 v=62
9347 Par ch=5 c=7 v=53
9348 Par ch=5 c=7 v=45
9349 Par ch=5 c=7 v=37
9350 Par ch=5 c=7 v=29
9352 Par ch=5 c=7 v=21
9353 Par ch=5 c=7 v=21
9353 Par ch=5 c=7 v=12
9355 Par ch=5 c=7 v=29
9356 Par ch=5 c=7 v=37
9357 Par ch=5 c=7 v=45
9358 Par ch=5 c=7 v=53
9359 Par ch=5 c=7 v=62
9360 On ch=5 n=50 v=0
9360 On ch=5 n=57 v=0
9360 On ch=5 n=53 v=0
9360 On ch=5 n=53 v=40
9360 On ch=5 n=62 v=40
9360 On ch=5 n=57 v=40
9360 On ch=5 n=50 v=40
9360 Par ch=5 c=7 v=70
9362 Par ch=5 c=7 v=78
9363 Par ch=5 c=7 v=95
9363 Par ch=5 c=7 v=86
9365 Par ch=5 c=7 v=103
9366 Par ch=5 c=7 v=111
9367 Par ch=5 c=7 v=119
9368 Par ch=5 c=7 v=127
9369 Par ch=5 c=7 v=119
9370 Par ch=5 c=7 v=111
9372 Par ch=5 c=7 v=103
9373 Par ch=5 c=7 v=95
9373 Par ch=5 c=7 v=86
9375 Par ch=5 c=7 v=78
9376 Par ch=5 c=7 v=70
9377 Par ch=5 c=7 v=62
9378 Par ch=5 c=7 v=53
9379 Par ch=5 c=7 v=45
9380 Par ch=5 c=7 v=37
9382 Par ch=5 c=7 v=29
9383 Par ch=5 c=7 v=21
9384 Par ch=5 c=7 v=12
9385 Par ch=5 c=7 v=21
9386 Par ch=5 c=7 v=29
9387 Par ch=5 c=7 v=37
9388 Par ch=5 c=7 v=45
9390 Par ch=5 c=7 v=53
9390 Par ch=5 c=7 v=62
9392 Par ch=5 c=7 v=70
9393 Par ch=5 c=7 v=78
9394 Par ch=5 c=7 v=86
9395 Par ch=5 c=7 v=95
9396 Par ch=5 c=7 v=103
9397 Par ch=5 c=7 v=111
9398 Par ch=5 c=7 v=119
9400 Par ch=5 c=7 v=127
9400 Par ch=5 c=7 v=119
9402 Par ch=5 c=7 v=111
9403 Par ch=5 c=7 v=103
9404 Par ch=5 c=7 v=95
9405 Par ch=5 c=7 v=86
9406 Par ch=5 c=7 v=78
9407 Par ch=5 c=7 v=70
9408 Par ch=5 c=7 v=62
9410 Par ch=5 c=7 v=53
9410 Par ch=5 c=7 v=45
9412 Par ch=5 c=7 v=37
9413 Par ch=5 c=7 v=29
9414 Par ch=5 c=7 v=21
9415 Par ch=5 c=7 v=12
9416 Par ch=5 c=7 v=21
9417 Par ch=5 c=7 v=29
9418 Par ch=5 c=7 v=37
9420 On ch=5 n=50 v=0
9420 On ch=5 n=53 v=0
9420 On ch=5 n=62 v=0
9420 On ch=5 n=57 v=0
9420 On ch=5 n=57 v=40
9420 Par ch=5 c=7 v=45
9420 On ch=5 n=53 v=40
9420 On ch=5 n=50 v=40
9421 Par ch=5 c=7 v=53
9422 Par ch=5 c=7 v=62
9423 Par ch=5 c=7 v=70
9424 Par ch=5 c=7 v=78
9425 Par ch=5 c=7 v=86
9427 Par ch=5 c=7 v=95
9427 Par ch=5 c=7 v=103
9428 Par ch=5 c=7 v=111
9430 Par ch=5 c=7 v=119
9431 Par ch=5 c=7 v=127
9432 Par ch=5 c=7 v=119
9433 Par ch=5 c=7 v=111
9434 Par ch=5 c=7 v=103
9435 Par ch=5 c=7 v=95
9437 Par ch=5 c=7 v=78
9437 Par ch=5 c=7 v=86
9438 Par ch=5 c=7 v=70
9440 Par ch=5 c=7 v=62
9441 Par ch=5 c=7 v=53
9442 Par ch=5 c=7 v=45
9443 Par ch=5 c=7 v=37
9444 Par ch=5 c=7 v=29
9445 Par ch=5 c=7 v=21
9447 Par ch=5 c=7 v=12
9447 Par ch=5 c=7 v=20
9448 Par ch=5 c=7 v=29
9450 Par ch=5 c=7 v=37
9451 Par ch=5 c=7 v=45
9452 Par ch=5 c=7 v=53
9453 Par ch=5 c=7 v=62
9454 Par ch=5 c=7 v=70
9455 Par ch=5 c=7 v=78
9457 Par ch=5 c=7 v=86
9458 Par ch=5 c=7 v=103
9458 Par ch=5 c=7 v=95
9460 Par ch=5 c=7 v=111
9461 Par ch=5 c=7 v=119
9462 Par ch=5 c=7 v=127
9463 Par ch=5 c=7 v=119
9464 Par ch=5 c=7 v=111
9465 Par ch=5 c=7 v=103
9467 Par ch=5 c=7 v=95
9468 Par ch=5 c=7 v=78
9468 Par ch=5 c=7 v=86
9470 Par ch=5 c=7 v=70
9471 Par ch=5 c=7 v=62
9472 Par ch=5 c=7 v=53
9473 Par ch=5 c=7 v=45
9474 Par ch=5 c=7 v=37
9475 Par ch=5 c=7 v=29
9477 Par ch=5 c=7 v=21
9478 Par ch=5 c=7 v=12
9479 Par ch=5 c=7 v=20
9480 On ch=5 n=50 v=0
9480 On ch=5 n=53 v=0
9480 On ch=5 n=57 v=0
9480 Par ch=5 c=7 v=29
9480 On ch=5 n=57 v=40
9480 On ch=5 n=53 v=40
9480 On ch=5 n=50 v=40
9480 On ch=5 n=62 v=40
9481 Par ch=5 c=7 v=37
9482 Par ch=5 c=7 v=45
9483 Par ch=5 c=7 v=53
9484 Par ch=5 c=7 v=62
9485 Par ch=5 c=7 v=70
9487 Par ch=5 c=7 v=78
9488 Par ch=5 c=7 v=86
9489 Par ch=5 c=7 v=95
9490 Par ch=5 c=7 v=103
9491 Par ch=5 c=7 v=111
9492 Par ch=5 c=7 v=119
9493 Par ch=5 c=7 v=127
9495 Par ch=5 c=7 v=111
9495 Par ch=5 c=7 v=119
9497 Par ch=5 c=7 v=103
9498 Par ch=5 c=7 v=95
9499 Par ch=5 c=7 v=86
9500 Par ch=5 c=7 v=78
9501 Par ch=5 c=7 v=70
9502 Par ch=5 c=7 v=62
9503 Par ch=5 c=7 v=53
9505 Par ch=5 c=7 v=37
9505 Par ch=5 c=7 v=45
9507 Par ch=5 c=7 v=29
9508 Par ch=5 c=7 v=21
9509 Par ch=5 c=7 v=12
9510 Par ch=5 c=7 v=20
9511 Par ch=5 c=7 v=29
9512 Par ch=5 c=7 v=37
9513 Par ch=5 c=7 v=45
9515 Par ch=5 c=7 v=53
9516 Par ch=5 c=7 v=62
9517 Par ch=5 c=7 v=70
9518 Par ch=5 c=7 v=78
9519 Par ch=5 c=7 v=86
9520 Par ch=5 c=7 v=95
9521 Par ch=5 c=7 v=103
9522 Par ch=5 c=7 v=111
9523 Par ch=5 c=7 v=119
9525 Par ch=5 c=7 v=127
9526 Par ch=5 c=7 v=119
9527 Par ch=5 c=7 v=111
9528 Par ch=5 c=7 v=103
9529 Par ch=5 c=7 v=95
9530 Par ch=5 c=7 v=86
9532 Par ch=5 c=7 v=70
9532 Par ch=5 c=7 v=78
9533 Par ch=5 c=7 v=62
9535 Par ch=5 c=7 v=53
9536 Par ch=5 c=7 v=45
9537 Par ch=5 c=7 v=37
9538 Par ch=5 c=7 v=29
9539 Par ch=5 c=7 v=21
9540 On ch=5 n=62 v=0
9540 On ch=5 n=57 v=0
9540 On ch=5 n=53 v=0
9540 On ch=5 n=50 v=0
9540 Par ch=5 c=7 v=12
9540 On ch=5 n=50 v=40
9540 On ch=5 n=57 v=40
9540 On ch=5 n=53 v=40
9542 Par ch=5 c=7 v=20
9542 Par ch=5 c=7 v=29
9543 Par ch=5 c=7 v=37
9545 Par ch=5 c=7 v=45
9546 Par ch=5 c=7 v=53
9547 Par ch=5 c=7 v=62
9548 Par ch=5 c=7 v=70
9549 Par ch=5 c=7 v=78
9550 Par ch=5 c=7 v=86
9552 Par ch=5 c=7 v=95
9553 Par ch=5 c=7 v=103
9553 Par ch=5 c=7 v=111
9555 Par ch=5 c=7 v=119
9556 Par ch=5 c=7 v=127
9557 Par ch=5 c=7 v=119
9558 Par ch=5 c=7 v=111
9559 Par ch=5 c=7 v=103
9560 Par ch=5 c=7 v=95
9562 Par ch=5 c=7 v=86
9563 Par ch=5 c=7 v=78
9563 Par ch=5 c=7 v=70
9565 Par ch=5 c=7 v=62
9566 Par ch=5 c=7 v=54
9567 Par ch=5 c=7 v=45
9568 Par ch=5 c=7 v=37
9569 Par ch=5 c=7 v=29
9570 Par ch=5 c=7 v=21
9572 Par ch=5 c=7 v=12
9573 Par ch=5 c=7 v=20
9574 Par ch=5 c=7 v=29
9575 Par ch=5 c=7 v=37
9576 Par ch=5 c=7 v=45
9577 Par ch=5 c=7 v=53
9578 Par ch=5 c=7 v=62
9579 Par ch=5 c=7 v=70
9580 Par ch=5 c=7 v=78
9582 Par ch=5 c=7 v=86
9583 Par ch=5 c=7 v=95
9584 Par ch=5 c=7 v=103
9585 Par ch=5 c=7 v=111
9586 Par ch=5 c=7 v=119
9587 Par ch=5 c=7 v=127
9588 Par ch=5 c=7 v=119
9590 Par ch=5 c=7 v=111
9590 Par ch=5 c=7 v=103
9592 Par ch=5 c=7 v=95
9593 Par ch=5 c=7 v=86
9594 Par ch=5 c=7 v=78
9595 Par ch=5 c=7 v=70
9596 Par ch=5 c=7 v=62
9597 Par ch=5 c=7 v=54
9598 Par ch=5 c=7 v=45
9600 On ch=5 n=53 v=0
9600 On ch=5 n=57 v=0
9600 On ch=5 n=50 v=0
9600 On ch=5 n=62 v=40
9600 Par ch=5 c=7 v=78
9600 On ch=5 n=58 v=40
9600 On ch=5 n=46 v=40
9600 On ch=5 n=53 v=40
9600 Par ch=5 c=7 v=86
9600 Par ch=5 c=7 v=95
9602 Par ch=5 c=7 v=103
9603 Par ch=5 c=7 v=111
9604 Par ch=5 c=7 v=119
9605 Par ch=5 c=7 v=127
9606 Par ch=5 c=7 v=119
9607 Par ch=5 c=7 v=111
9608 Par ch=5 c=7 v=103
9610 Par ch=5 c=7 v=95
9611 Par ch=5 c=7 v=86
9612 Par ch=5 c=7 v=78
9613 Par ch=5 c=7 v=70
9614 Par ch=5 c=7 v=62
9615 Par ch=5 c=7 v=53
9616 Par ch=5 c=7 v=45
9617 Par ch=5 c=7 v=37
9618 Par ch=5 c=7 v=29
9620 Par ch=5 c=7 v=21
9621 Par ch=5 c=7 v=12
9622 Par ch=5 c=7 v=21
9623 Par ch=5 c=7 v=29
9624 Par ch=5 c=7 v=37
9625 Par ch=5 c=7 v=45
9627 Par ch=5 c=7 v=62
9627 Par ch=5 c=7 v=53
9628 Par ch=5 c=7 v=70
9630 Par ch=5 c=7 v=78
9631 Par ch=5 c=7 v=86
9632 Par ch=5 c=7 v=95
9633 Par ch=5 c=7 v=103
9634 Par ch=5 c=7 v=111
9635 Par ch=5 c=7 v=119
9637 Par ch=5 c=7 v=127
9637 Par ch=5 c=7 v=119
9638 Par ch=5 c=7 v=111
9640 Par ch=5 c=7 v=103
9641 Par ch=5 c=7 v=95
9642 Par ch=5 c=7 v=86
9643 Par ch=5 c=7 v=78
9644 Par ch=5 c=7 v=70
9645 Par ch=5 c=7 v=62
9647 Par ch=5 c=7 v=53
9648 Par ch=5 c=7 v=45
9648 Par ch=5 c=7 v=37
9650 Par ch=5 c=7 v=29
9651 Par ch=5 c=7 v=21
9652 Par ch=5 c=7 v=12
9653 Par ch=5 c=7 v=21
9654 Par ch=5 c=7 v=29
9655 Par ch=5 c=7 v=37
9657 Par ch=5 c=7 v=45
9658 Par ch=5 c=7 v=62
9658 Par ch=5 c=7 v=53
9660 On ch=5 n=53 v=0
9660 On ch=5 n=62 v=0
9660 On ch=5 n=58 v=0
9660 On ch=5 n=46 v=0
9660 On ch=5 n=53 v=40
9660 On ch=5 n=58 v=40
9660 Par ch=5 c=7 v=70
9660 On ch=5 n=46 v=40
9661 Par ch=5 c=7 v=78
9662 Par ch=5 c=7 v=86
9663 Par ch=5 c=7 v=95
9664 Par ch=5 c=7 v=103
9665 Par ch=5 c=7 v=111
9667 Par ch=5 c=7 v=119
9668 Par ch=5 c=7 v=127
9669 Par ch=5 c=7 v=119
9670 Par ch=5 c=7 v=111
9671 Par ch=5 c=7 v=103
9672 Par ch=5 c=7 v=95
9673 Par ch=5 c=7 v=86
9674 Par ch=5 c=7 v=78
9675 Par ch=5 c=7 v=70
9677 Par ch=5 c=7 v=62
9678 Par ch=5 c=7 v=53
9679 Par ch=5 c=7 v=45
9680 Par ch=5 c=7 v=37
9681 Par ch=5 c=7 v=29
9682 Par ch=5 c=7 v=21
9683 Par ch=5 c=7 v=12
9685 Par ch=5 c=7 v=29
9685 Par ch=5 c=7 v=21
9687 Par ch=5 c=7 v=37
9688 Par ch=5 c=7 v=45
9689 Par ch=5 c=7 v=53
9690 Par ch=5 c=7 v=62
9691 Par ch=5 c=7 v=70
9692 Par ch=5 c=7 v=78
9693 Par ch=5 c=7 v=86
9695 Par ch=5 c=7 v=103
9695 Par ch=5 c=7 v=95
9697 Par ch=5 c=7 v=111
9698 Par ch=5 c=7 v=119
9699 Par ch=5 c=7 v=127
9700 Par ch=5 c=7 v=119
9701 Par ch=5 c=7 v=111
9702 Par ch=5 c=7 v=103
9703 Par ch=5 c=7 v=95
9705 Par ch=5 c=7 v=78
9705 Par ch=5 c=7 v=86
9707 Par ch=5 c=7 v=70
9708 Par ch=5 c=7 v=62
9709 Par ch=5 c=7 v=53
9710 Par ch=5 c=7 v=45
9711 Par ch=5 c=7 v=37
9712 Par ch=5 c=7 v=29
9713 Par ch=5 c=7 v=21
9715 Par ch=5 c=7 v=12
9716 Par ch=5 c=7 v=21
9717 Par ch=5 c=7 v=29
9718 Par ch=5 c=7 v=37
9719 Par ch=5 c=7 v=45
9720 On ch=5 n=46 v=0
9720 On ch=5 n=58 v=0
9720 On ch=5 n=53 v=0
9720 On ch=5 n=53 v=40
9720 On ch=5 n=58 v=40
9720 Par ch=5 c=7 v=53
9720 On ch=5 n=62 v=40
9720 On ch=5 n=46 v=40
9722 Par ch=5 c=7 v=62
9722 Par ch=5 c=7 v=70
9723 Par ch=5 c=7 v=78
9725 Par ch=5 c=7 v=86
9726 Par ch=5 c=7 v=95
9727 Par ch=5 c=7 v=103
9728 Par ch=5 c=7 v=111
9729 Par ch=5 c=7 v=119
9730 Par ch=5 c=7 v=127
9732 Par ch=5 c=7 v=111
9732 Par ch=5 c=7 v=119
9733 Par ch=5 c=7 v=103
9735 Par ch=5 c=7 v=95
9736 Par ch=5 c=7 v=86
9737 Par ch=5 c=7 v=78
9738 Par ch=5 c=7 v=70
9739 Par ch=5 c=7 v=62
9740 Par ch=5 c=7 v=53
9742 Par ch=5 c=7 v=45
9743 Par ch=5 c=7 v=29
9743 Par ch=5 c=7 v=37
9745 Par ch=5 c=7 v=21
9746 Par ch=5 c=7 v=12
9747 Par ch=5 c=7 v=20
9748 Par ch=5 c=7 v=29
9749 Par ch=5 c=7 v=37
9750 Par ch=5 c=7 v=45
9752 Par ch=5 c=7 v=53
9753 Par ch=5 c=7 v=70
9753 Par ch=5 c=7 v=62
9755 Par ch=5 c=7 v=78
9756 Par ch=5 c=7 v=86
9757 Par ch=5 c=7 v=95
9758 Par ch=5 c=7 v=103
9759 Par ch=5 c=7 v=111
9760 Par ch=5 c=7 v=119
9762 Par ch=5 c=7 v=127
9763 Par ch=5 c=7 v=119
9763 Par ch=5 c=7 v=111
9765 Par ch=5 c=7 v=103
9766 Par ch=5 c=7 v=95
9767 Par ch=5 c=7 v=86
9768 Par ch=5 c=7 v=78
9769 Par ch=5 c=7 v=70
9770 Par ch=5 c=7 v=62
9772 Par ch=5 c=7 v=53
9773 Par ch=5 c=7 v=45
9774 Par ch=5 c=7 v=37
9775 Par ch=5 c=7 v=29
9776 Par ch=5 c=7 v=21
9777 Par ch=5 c=7 v=12
9778 Par ch=5 c=7 v=20
9780 On ch=5 n=46 v=0
9780 On ch=5 n=53 v=0
9780 On ch=5 n=58 v=0
9780 On ch=5 n=62 v=0
9780 Par ch=5 c=7 v=78
9780 Par ch=5 c=7 v=86
9780 Par ch=5 c=7 v=95
9780 On ch=5 n=58 v=40
9780 On ch=5 n=46 v=40
9780 On ch=5 n=53 v=40
9782 Par ch=5 c=7 v=103
9783 Par ch=5 c=7 v=111
9784 Par ch=5 c=7 v=119
9785 Par ch=5 c=7 v=127
9786 Par ch=5 c=7 v=119
9787 Par ch=5 c=7 v=111
9788 Par ch=5 c=7 v=103
9790 Par ch=5 c=7 v=95
9790 Par ch=5 c=7 v=86
9792 Par ch=5 c=7 v=78
9793 Par ch=5 c=7 v=70
9794 Par ch=5 c=7 v=62
9795 Par ch=5 c=7 v=53
9796 Par ch=5 c=7 v=45
9797 Par ch=5 c=7 v=37
9798 Par ch=5 c=7 v=29
9800 Par ch=5 c=7 v=12
9800 Par ch=5 c=7 v=21
9802 Par ch=5 c=7 v=21
9803 Par ch=5 c=7 v=29
9804 Par ch=5 c=7 v=37
9805 Par ch=5 c=7 v=45
9806 Par ch=5 c=7 v=53
9807 Par ch=5 c=7 v=62
9808 Par ch=5 c=7 v=70
9810 Par ch=5 c=7 v=78
9811 Par ch=5 c=7 v=86
9812 Par ch=5 c=7 v=95
9813 Par ch=5 c=7 v=103
9814 Par ch=5 c=7 v=111
9815 Par ch=5 c=7 v=119
9817 Par ch=5 c=7 v=119
9817 Par ch=5 c=7 v=127
9818 Par ch=5 c=7 v=111
9820 Par ch=5 c=7 v=103
9821 Par ch=5 c=7 v=95
9822 Par ch=5 c=7 v=86
9823 Par ch=5 c=7 v=78
9824 Par ch=5 c=7 v=70
9825 Par ch=5 c=7 v=62
9827 Par ch=5 c=7 v=53
9827 Par ch=5 c=7 v=45
9828 Par ch=5 c=7 v=37
9830 Par ch=5 c=7 v=29
9831 Par ch=5 c=7 v=21
9832 Par ch=5 c=7 v=12
9833 Par ch=5 c=7 v=21
9834 Par ch=5 c=7 v=29
9835 Par ch=5 c=7 v=37
9837 Par ch=5 c=7 v=53
9837 Par ch=5 c=7 v=45
9838 Par ch=5 c=7 v=62
9840 On ch=5 n=53 v=0
9840 On ch=5 n=46 v=0
9840 On ch=5 n=58 v=0
9840 On ch=5 n=53 v=40
9840 On ch=5 n=46 v=40
9840 On ch=5 n=58 v=40
9840 Par ch=5 c=7 v=70
9840 On ch=5 n=62 v=40
9841 Par ch=5 c=7 v=78
9842 Par ch=5 c=7 v=86
9843 Par ch=5 c=7 v=95
9844 Par ch=5 c=7 v=103
9845 Par ch=5 c=7 v=111
9847 Par ch=5 c=7 v=119
9848 Par ch=5 c=7 v=127
9848 Par ch=5 c=7 v=119
9850 Par ch=5 c=7 v=111
9851 Par ch=5 c=7 v=103
9852 Par ch=5 c=7 v=95
9853 Par ch=5 c=7 v=86
9854 Par ch=5 c=7 v=78
9855 Par ch=5 c=7 v=70
9857 Par ch=5 c=7 v=62
9858 Par ch=5 c=7 v=45
9858 Par ch=5 c=7 v=53
9860 Par ch=5 c=7 v=37
9861 Par ch=5 c=7 v=29
9862 Par ch=5 c=7 v=21
9863 Par ch=5 c=7 v=12
9864 Par ch=5 c=7 v=21
9865 Par ch=5 c=7 v=29
9867 Par ch=5 c=7 v=37
9868 Par ch=5 c=7 v=45
9869 Par ch=5 c=7 v=53
9870 Par ch=5 c=7 v=62
9871 Par ch=5 c=7 v=70
9872 Par ch=5 c=7 v=78
9873 Par ch=5 c=7 v=86
9874 Par ch=5 c=7 v=95
9875 Par ch=5 c=7 v=103
9877 Par ch=5 c=7 v=111
9878 Par ch=5 c=7 v=119
9879 Par ch=5 c=7 v=127
9880 Par ch=5 c=7 v=119
9881 Par ch=5 c=7 v=111
9882 Par ch=5 c=7 v=103
9883 Par ch=5 c=7 v=95
9885 Par ch=5 c=7 v=78
9885 Par ch=5 c=7 v=86
9887 Par ch=5 c=7 v=70
9888 Par ch=5 c=7 v=62
9889 Par ch=5 c=7 v=53
9890 Par ch=5 c=7 v=45
9891 Par ch=5 c=7 v=37
9892 Par ch=5 c=7 v=29
9893 Par ch=5 c=7 v=21
9895 Par ch=5 c=7 v=21
9895 Par ch=5 c=7 v=12
9897 Par ch=5 c=7 v=29
9898 Par ch=5 c=7 v=37
9899 Par ch=5 c=7 v=45
9900 On ch=5 n=62 v=0
9900 On ch=5 n=53 v=0
9900 On ch=5 n=46 v=0
9900 On ch=5 n=58 v=0
9900 Par ch=5 c=7 v=78
9900 On ch=5 n=46 v=40
9900 Par ch=5 c=7 v=86
9900 On ch=5 n=58 v=40
9900 On ch=5 n=53 v=40
9901 Par ch=5 c=7 v=95
9902 Par ch=5 c=7 v=103
9903 Par ch=5 c=7 v=111
9905 Par ch=5 c=7 v=119
9906 Par ch=5 c=7 v=127
9907 Par ch=5 c=7 v=119
9908 Par ch=5 c=7 v=111
9909 Par ch=5 c=7 v=103
9910 Par ch=5 c=7 v=95
9911 Par ch=5 c=7 v=86
9912 Par ch=5 c=7 v=78
9913 Par ch=5 c=7 v=70
9915 Par ch=5 c=7 v=62
9916 Par ch=5 c=7 v=53
9917 Par ch=5 c=7 v=45
9918 Par ch=5 c=7 v=37
9919 Par ch=5 c=7 v=29
9920 Par ch=5 c=7 v=21
9922 Par ch=5 c=7 v=21
9922 Par ch=5 c=7 v=12
9923 Par ch=5 c=7 v=29
9925 Par ch=5 c=7 v=37
9926 Par ch=5 c=7 v=45
9927 Par ch=5 c=7 v=53
9928 Par ch=5 c=7 v=62
9929 Par ch=5 c=7 v=70
9930 Par ch=5 c=7 v=78
9932 Par ch=5 c=7 v=86
9932 Par ch=5 c=7 v=95
9933 Par ch=5 c=7 v=103
9935 Par ch=5 c=7 v=111
9936 Par ch=5 c=7 v=119
9937 Par ch=5 c=7 v=127
9938 Par ch=5 c=7 v=119
9939 Par ch=5 c=7 v=111
9940 Par ch=5 c=7 v=103
9942 Par ch=5 c=7 v=95
9943 Par ch=5 c=7 v=86
9943 Par ch=5 c=7 v=78
9945 Par ch=5 c=7 v=70
9946 Par ch=5 c=7 v=62
9947 Par ch=5 c=7 v=53
9948 Par ch=5 c=7 v=45
9949 Par ch=5 c=7 v=37
9950 Par ch=5 c=7 v=29
9952 Par ch=5 c=7 v=21
9953 Par ch=5 c=7 v=21
9953 Par ch=5 c=7 v=12
9955 Par ch=5 c=7 v=29
9956 Par ch=5 c=7 v=37
9957 Par ch=5 c=7 v=45
9958 Par ch=5 c=7 v=53
9959 Par ch=5 c=7 v=86
9959 Par ch=5 c=7 v=78
9960 On ch=5 n=53 v=0
9960 On ch=5 n=58 v=0
9960 On ch=5 n=46 v=0
9960 Par ch=5 c=7 v=95
9960 On ch=5 n=58 v=40
9960 On ch=5 n=46 v=40
9960 On ch=5 n=53 v=40
9960 On ch=5 n=62 v=40
9961 Par ch=5 c=7 v=103
9963 Par ch=5 c=7 v=111
9964 Par ch=5 c=7 v=119
9965 Par ch=5 c=7 v=127
9966 Par ch=5 c=7 v=119
9967 Par ch=5 c=7 v=111
9968 Par ch=5 c=7 v=103
9969 Par ch=5 c=7 v=95
9970 Par ch=5 c=7 v=86
9972 Par ch=5 c=7 v=78
9973 Par ch=5 c=7 v=70
9974 Par ch=5 c=7 v=62
9975 Par ch=5 c=7 v=53
9976 Par ch=5 c=7 v=45
9977 Par ch=5 c=7 v=37
9978 Par ch=5 c=7 v=29
9980 Par ch=5 c=7 v=12
9980 Par ch=5 c=7 v=21
9982 Par ch=5 c=7 v=21
9983 Par ch=5 c=7 v=29
9984 Par ch=5 c=7 v=37
9985 Par ch=5 c=7 v=45
9986 Par ch=5 c=7 v=53
9987 Par ch=5 c=7 v=62
9988 Par ch=5 c=7 v=70
9990 Par ch=5 c=7 v=78
9990 Par ch=5 c=7 v=86
9991 Par ch=5 c=7 v=95
9993 Par ch=5 c=7 v=103
9994 Par ch=5 c=7 v=111
9995 Par ch=5 c=7 v=119
9996 Par ch=5 c=7 v=127
9997 Par ch=5 c=7 v=119
9998 Par ch=5 c=7 v=111
10000 Par ch=5 c=7 v=103
10001 Par ch=5 c=7 v=95
10002 Par ch=5 c=7 v=86
10003 Par ch=5 c=7 v=78
10004 Par ch=5 c=7 v=70
10005 Par ch=5 c=7 v=62
10006 Par ch=5 c=7 v=53
10007 Par ch=5 c=7 v=45
10008 Par ch=5 c=7 v=37
10010 Par ch=5 c=7 v=29
10011 Par ch=5 c=7 v=21
10012 Par ch=5 c=7 v=12
10013 Par ch=5 c=7 v=21
10014 Par ch=5 c=7 v=29
10015 Par ch=5 c=7 v=37
10017 Par ch=5 c=7 v=45
10017 Par ch=5 c=7 v=53
10018 Par ch=5 c=7 v=62
10020 On ch=5 n=62 v=0
10020 On ch=5 n=58 v=0
10020 On ch=5 n=46 v=0
10020 On ch=5 n=53 v=0
10020 On ch=5 n=53 v=40
10020 On ch=5 n=58 v=40
10020 Par ch=5 c=7 v=70
10020 On ch=5 n=46 v=40
10021 Par ch=5 c=7 v=78
10021 Par ch=5 c=7 v=86
10023 Par ch=5 c=7 v=95
10024 Par ch=5 c=7 v=103
10025 Par ch=5 c=7 v=111
10027 Par ch=5 c=7 v=119
10027 Par ch=5 c=7 v=127
10028 Par ch=5 c=7 v=119
10030 Par ch=5 c=7 v=111
10031 Par ch=5 c=7 v=103
10032 Par ch=5 c=7 v=95
10033 Par ch=5 c=7 v=86
10034 Par ch=5 c=7 v=78
10035 Par ch=5 c=7 v=70
10036 Par ch=5 c=7 v=62
10038 Par ch=5 c=7 v=45
10038 Par ch=5 c=7 v=53
10040 Par ch=5 c=7 v=37
10041 Par ch=5 c=7 v=29
10042 Par ch=5 c=7 v=21
10043 Par ch=5 c=7 v=12
10044 Par ch=5 c=7 v=21
10045 Par ch=5 c=7 v=29
10047 Par ch=5 c=7 v=37
10048 Par ch=5 c=7 v=45
10048 Par ch=5 c=7 v=53
10050 Par ch=5 c=7 v=62
10051 Par ch=5 c=7 v=70
10052 Par ch=5 c=7 v=78
10053 Par ch=5 c=7 v=86
10054 Par ch=5 c=7 v=95
10055 Par ch=5 c=7 v=103
10057 Par ch=5 c=7 v=111
10058 Par ch=5 c=7 v=119
10058 Par ch=5 c=7 v=127
10060 Par ch=5 c=7 v=119
10061 Par ch=5 c=7 v=111
10062 Par ch=5 c=7 v=103
10063 Par ch=5 c=7 v=95
10064 Par ch=5 c=7 v=86
10065 Par ch=5 c=7 v=78
10066 Par ch=5 c=7 v=70
10068 Par ch=5 c=7 v=62
10069 Par ch=5 c=7 v=53
10070 Par ch=5 c=7 v=45
10071 Par ch=5 c=7 v=37
10072 Par ch=5 c=7 v=29
10073 Par ch=5 c=7 v=21
10075 Par ch=5 c=7 v=21
10075 Par ch=5 c=7 v=12
10077 Par ch=5 c=7 v=29
10078 Par ch=5 c=7 v=37
10079 Par ch=5 c=7 v=45
10080 On ch=5 n=46 v=0
10080 On ch=5 n=58 v=0
10080 On ch=5 n=53 v=0
13920 On ch=5 n=65 v=40
13920 On ch=5 n=57 v=40
13920 On ch=5 n=53 v=40
13920 On ch=5 n=60 v=40
13980 On ch=5 n=60 v=0
13980 On ch=5 n=65 v=0
13980 On ch=5 n=57 v=0
13980 On ch=5 n=53 v=0
13980 Par ch=5 c=7 v=70
13980 On ch=5 n=53 v=40
13980 On ch=5 n=60 v=40
13980 On ch=5 n=57 v=40
13980 Par ch=5 c=7 v=78
13982 Par ch=5 c=7 v=86
13983 Par ch=5 c=7 v=95
13984 Par ch=5 c=7 v=103
13985 Par ch=5 c=7 v=111
13986 Par ch=5 c=7 v=119
13987 Par ch=5 c=7 v=127
13988 Par ch=5 c=7 v=119
13990 Par ch=5 c=7 v=111
13990 Par ch=5 c=7 v=103
13992 Par ch=5 c=7 v=95
13993 Par ch=5 c=7 v=86
13994 Par ch=5 c=7 v=78
13995 Par ch=5 c=7 v=70
13996 Par ch=5 c=7 v=62
13997 Par ch=5 c=7 v=53
13998 Par ch=5 c=7 v=45
14000 Par ch=5 c=7 v=37
14001 Par ch=5 c=7 v=29
14002 Par ch=5 c=7 v=21
14003 Par ch=5 c=7 v=12
14004 Par ch=5 c=7 v=21
14005 Par ch=5 c=7 v=29
14006 Par ch=5 c=7 v=37
14007 Par ch=5 c=7 v=45
14008 Par ch=5 c=7 v=53
14010 Par ch=5 c=7 v=62
14011 Par ch=5 c=7 v=70
14012 Par ch=5 c=7 v=78
14013 Par ch=5 c=7 v=86
14014 Par ch=5 c=7 v=95
14015 Par ch=5 c=7 v=103
14017 Par ch=5 c=7 v=119
14017 Par ch=5 c=7 v=111
14018 Par ch=5 c=7 v=127
14020 Par ch=5 c=7 v=119
14021 Par ch=5 c=7 v=111
14022 Par ch=5 c=7 v=103
14023 Par ch=5 c=7 v=95
14024 Par ch=5 c=7 v=86
14025 Par ch=5 c=7 v=78
14027 Par ch=5 c=7 v=70
14027 Par ch=5 c=7 v=62
14028 Par ch=5 c=7 v=53
14030 Par ch=5 c=7 v=45
14031 Par ch=5 c=7 v=37
14032 Par ch=5 c=7 v=29
14033 Par ch=5 c=7 v=21
14034 Par ch=5 c=7 v=12
14035 Par ch=5 c=7 v=21
14037 Par ch=5 c=7 v=29
14038 Par ch=5 c=7 v=45
14038 Par ch=5 c=7 v=37
14040 On ch=5 n=57 v=0
14040 On ch=5 n=60 v=0
14040 On ch=5 n=53 v=0
14040 On ch=5 n=60 v=40
14040 On ch=5 n=65 v=40
14040 On ch=5 n=53 v=40
14040 On ch=5 n=57 v=40
14040 Par ch=5 c=7 v=53
14041 Par ch=5 c=7 v=62
14042 Par ch=5 c=7 v=70
14043 Par ch=5 c=7 v=78
14044 Par ch=5 c=7 v=86
14045 Par ch=5 c=7 v=95
14047 Par ch=5 c=7 v=103
14048 Par ch=5 c=7 v=119
14048 Par ch=5 c=7 v=111
14050 Par ch=5 c=7 v=127
14051 Par ch=5 c=7 v=119
14052 Par ch=5 c=7 v=111
14053 Par ch=5 c=7 v=103
14054 Par ch=5 c=7 v=95
14055 Par ch=5 c=7 v=86
14057 Par ch=5 c=7 v=78
14058 Par ch=5 c=7 v=62
14058 Par ch=5 c=7 v=70
14060 Par ch=5 c=7 v=53
14061 Par ch=5 c=7 v=45
14062 Par ch=5 c=7 v=37
14063 Par ch=5 c=7 v=29
14064 Par ch=5 c=7 v=21
14065 Par ch=5 c=7 v=12
14067 Par ch=5 c=7 v=20
14068 Par ch=5 c=7 v=29
14069 Par ch=5 c=7 v=37
14070 Par ch=5 c=7 v=45
14071 Par ch=5 c=7 v=53
14072 Par ch=5 c=7 v=62
14073 Par ch=5 c=7 v=70
14075 Par ch=5 c=7 v=86
14075 Par ch=5 c=7 v=78
14077 Par ch=5 c=7 v=95
14078 Par ch=5 c=7 v=103
14079 Par ch=5 c=7 v=111
14080 Par ch=5 c=7 v=119
14081 Par ch=5 c=7 v=127
14082 Par ch=5 c=7 v=119
14083 Par ch=5 c=7 v=111
14085 Par ch=5 c=7 v=95
14085 Par ch=5 c=7 v=103
14087 Par ch=5 c=7 v=86
14088 Par ch=5 c=7 v=78
14089 Par ch=5 c=7 v=70
14090 Par ch=5 c=7 v=62
14091 Par ch=5 c=7 v=53
14092 Par ch=5 c=7 v=45
14093 Par ch=5 c=7 v=37
14095 Par ch=5 c=7 v=21
14095 Par ch=5 c=7 v=29
14097 Par ch=5 c=7 v=12
14098 Par ch=5 c=7 v=20
14099 Par ch=5 c=7 v=29
14100 On ch=5 n=57 v=0
14100 On ch=5 n=60 v=0
14100 On ch=5 n=65 v=0
14100 On ch=5 n=53 v=0
14100 On ch=5 n=53 v=40
14100 Par ch=5 c=7 v=86
14100 On ch=5 n=60 v=40
14100 Par ch=5 c=7 v=78
14100 On ch=5 n=57 v=40
14101 Par ch=5 c=7 v=95
14102 Par ch=5 c=7 v=103
14103 Par ch=5 c=7 v=111
14105 Par ch=5 c=7 v=119
14106 Par ch=5 c=7 v=127
14107 Par ch=5 c=7 v=119
14108 Par ch=5 c=7 v=111
14109 Par ch=5 c=7 v=103
14110 Par ch=5 c=7 v=95
14112 Par ch=5 c=7 v=86
14112 Par ch=5 c=7 v=78
14113 Par ch=5 c=7 v=70
14115 Par ch=5 c=7 v=62
14116 Par ch=5 c=7 v=53
14117 Par ch=5 c=7 v=45
14118 Par ch=5 c=7 v=37
14119 Par ch=5 c=7 v=29
14120 Par ch=5 c=7 v=21
14122 Par ch=5 c=7 v=21
14122 Par ch=5 c=7 v=12
14123 Par ch=5 c=7 v=29
14125 Par ch=5 c=7 v=37
14126 Par ch=5 c=7 v=45
14127 Par ch=5 c=7 v=53
14128 Par ch=5 c=7 v=62
14129 Par ch=5 c=7 v=70
14130 Par ch=5 c=7 v=78
14132 Par ch=5 c=7 v=86
14132 Par ch=5 c=7 v=95
14133 Par ch=5 c=7 v=103
14135 Par ch=5 c=7 v=111
14136 Par ch=5 c=7 v=119
14137 Par ch=5 c=7 v=127
14138 Par ch=5 c=7 v=119
14139 Par ch=5 c=7 v=111
14140 Par ch=5 c=7 v=103
14142 Par ch=5 c=7 v=95
14143 Par ch=5 c=7 v=78
14143 Par ch=5 c=7 v=86
14145 Par ch=5 c=7 v=70
14146 Par ch=5 c=7 v=62
14147 Par ch=5 c=7 v=53
14148 Par ch=5 c=7 v=45
14149 Par ch=5 c=7 v=37
14150 Par ch=5 c=7 v=29
14152 Par ch=5 c=7 v=21
14153 Par ch=5 c=7 v=12
14153 Par ch=5 c=7 v=21
14155 Par ch=5 c=7 v=29
14156 Par ch=5 c=7 v=37
14157 Par ch=5 c=7 v=45
14158 Par ch=5 c=7 v=53
14159 Par ch=5 c=7 v=62
14160 On ch=5 n=57 v=0
14160 On ch=5 n=60 v=0
14160 On ch=5 n=53 v=0
14160 Par ch=5 c=7 v=70
14160 On ch=5 n=65 v=40
14160 On ch=5 n=60 v=40
14160 On ch=5 n=57 v=40
14160 On ch=5 n=53 v=40
14162 Par ch=5 c=7 v=78
14163 Par ch=5 c=7 v=86
14164 Par ch=5 c=7 v=95
14165 Par ch=5 c=7 v=103
14166 Par ch=5 c=7 v=111
14167 Par ch=5 c=7 v=119
14168 Par ch=5 c=7 v=127
14169 Par ch=5 c=7 v=119
14170 Par ch=5 c=7 v=111
14171 Par ch=5 c=7 v=103
14173 Par ch=5 c=7 v=95
14174 Par ch=5 c=7 v=86
14175 Par ch=5 c=7 v=78
14176 Par ch=5 c=7 v=70
14177 Par ch=5 c=7 v=62
14178 Par ch=5 c=7 v=53
14180 Par ch=5 c=7 v=45
14180 Par ch=5 c=7 v=37
14182 Par ch=5 c=7 v=29
14183 Par ch=5 c=7 v=21
14184 Par ch=5 c=7 v=12
14185 Par ch=5 c=7 v=21
14186 Par ch=5 c=7 v=29
14187 Par ch=5 c=7 v=37
14188 Par ch=5 c=7 v=45
14190 Par ch=5 c=7 v=62
14190 Par ch=5 c=7 v=53
14192 Par ch=5 c=7 v=70
14193 Par ch=5 c=7 v=78
14194 Par ch=5 c=7 v=86
14195 Par ch=5 c=7 v=95
14196 Par ch=5 c=7 v=103
14197 Par ch=5 c=7 v=111
14198 Par ch=5 c=7 v=119
14200 Par ch=5 c=7 v=127
14201 Par ch=5 c=7 v=119
14202 Par ch=5 c=7 v=111
14203 Par ch=5 c=7 v=103
14204 Par ch=5 c=7 v=95
14205 Par ch=5 c=7 v=86
14206 Par ch=5 c=7 v=78
14207 Par ch=5 c=7 v=70
14208 Par ch=5 c=7 v=62
14210 Par ch=5 c=7 v=53
14211 Par ch=5 c=7 v=45
14212 Par ch=5 c=7 v=37
14213 Par ch=5 c=7 v=29
14214 Par ch=5 c=7 v=21
14215 Par ch=5 c=7 v=12
14217 Par ch=5 c=7 v=29
14217 Par ch=5 c=7 v=21
14218 Par ch=5 c=7 v=37
14220 On ch=5 n=53 v=0
14220 On ch=5 n=65 v=0
14220 On ch=5 n=60 v=0
14220 On ch=5 n=57 v=0
14220 On ch=5 n=53 v=40
14220 Par ch=5 c=7 v=45
14220 On ch=5 n=60 v=40
14220 On ch=5 n=57 v=40
14221 Par ch=5 c=7 v=53
14222 Par ch=5 c=7 v=62
14223 Par ch=5 c=7 v=70
14224 Par ch=5 c=7 v=78
14225 Par ch=5 c=7 v=86
14227 Par ch=5 c=7 v=103
14227 Par ch=5 c=7 v=95
14228 Par ch=5 c=7 v=111
14230 Par ch=5 c=7 v=119
14231 Par ch=5 c=7 v=127
14232 Par ch=5 c=7 v=119
14233 Par ch=5 c=7 v=111
14234 Par ch=5 c=7 v=103
14235 Par ch=5 c=7 v=95
14237 Par ch=5 c=7 v=86
14238 Par ch=5 c=7 v=70
14238 Par ch=5 c=7 v=78
14240 Par ch=5 c=7 v=62
14241 Par ch=5 c=7 v=53
14242 Par ch=5 c=7 v=45
14243 Par ch=5 c=7 v=37
14244 Par ch=5 c=7 v=29
14245 Par ch=5 c=7 v=21
14247 Par ch=5 c=7 v=12
14248 Par ch=5 c=7 v=29
14248 Par ch=5 c=7 v=20
14250 Par ch=5 c=7 v=37
14251 Par ch=5 c=7 v=45
14252 Par ch=5 c=7 v=53
14253 Par ch=5 c=7 v=62
14254 Par ch=5 c=7 v=70
14255 Par ch=5 c=7 v=78
14257 Par ch=5 c=7 v=86
14258 Par ch=5 c=7 v=95
14259 Par ch=5 c=7 v=103
14260 Par ch=5 c=7 v=111
14261 Par ch=5 c=7 v=119
14262 Par ch=5 c=7 v=127
14263 Par ch=5 c=7 v=119
14264 Par ch=5 c=7 v=111
14265 Par ch=5 c=7 v=103
14267 Par ch=5 c=7 v=95
14268 Par ch=5 c=7 v=86
14269 Par ch=5 c=7 v=78
14270 Par ch=5 c=7 v=70
14271 Par ch=5 c=7 v=62
14272 Par ch=5 c=7 v=53
14273 Par ch=5 c=7 v=45
14275 Par ch=5 c=7 v=37
14275 Par ch=5 c=7 v=29
14277 Par ch=5 c=7 v=21
14278 Par ch=5 c=7 v=12
14279 Par ch=5 c=7 v=20
14280 On ch=5 n=57 v=0
14280 On ch=5 n=60 v=0
14280 On ch=5 n=53 v=0
14280 On ch=5 n=65 v=40
14280 On ch=5 n=57 v=40
14280 On ch=5 n=53 v=40
14280 On ch=5 n=60 v=40
14280 Par ch=5 c=7 v=29
14281 Par ch=5 c=7 v=37
14282 Par ch=5 c=7 v=45
14283 Par ch=5 c=7 v=53
14285 Par ch=5 c=7 v=62
14285 Par ch=5 c=7 v=70
14287 Par ch=5 c=7 v=78
14288 Par ch=5 c=7 v=86
14289 Par ch=5 c=7 v=95
14290 Par ch=5 c=7 v=103
14291 Par ch=5 c=7 v=111
14292 Par ch=5 c=7 v=119
14293 Par ch=5 c=7 v=127
14295 Par ch=5 c=7 v=119
14296 Par ch=5 c=7 v=111
14297 Par ch=5 c=7 v=103
14298 Par ch=5 c=7 v=95
14299 Par ch=5 c=7 v=86
14300 Par ch=5 c=7 v=78
14301 Par ch=5 c=7 v=70
14302 Par ch=5 c=7 v=62
14303 Par ch=5 c=7 v=53
14305 Par ch=5 c=7 v=45
14306 Par ch=5 c=7 v=37
14307 Par ch=5 c=7 v=29
14308 Par ch=5 c=7 v=21
14309 Par ch=5 c=7 v=12
14310 Par ch=5 c=7 v=20
14312 Par ch=5 c=7 v=37
14312 Par ch=5 c=7 v=29
14313 Par ch=5 c=7 v=45
14315 Par ch=5 c=7 v=53
14316 Par ch=5 c=7 v=62
14317 Par ch=5 c=7 v=70
14318 Par ch=5 c=7 v=78
14319 Par ch=5 c=7 v=86
14320 Par ch=5 c=7 v=95
14322 Par ch=5 c=7 v=111
14322 Par ch=5 c=7 v=103
14323 Par ch=5 c=7 v=119
14325 Par ch=5 c=7 v=127
14326 Par ch=5 c=7 v=119
14327 Par ch=5 c=7 v=111
14328 Par ch=5 c=7 v=103
14329 Par ch=5 c=7 v=95
14330 Par ch=5 c=7 v=86
14332 Par ch=5 c=7 v=78
14333 Par ch=5 c=7 v=70
14333 Par ch=5 c=7 v=62
14335 Par ch=5 c=7 v=53
14336 Par ch=5 c=7 v=45
14337 Par ch=5 c=7 v=37
14338 Par ch=5 c=7 v=29
14339 Par ch=5 c=7 v=21
14340 On ch=5 n=60 v=0
14340 On ch=5 n=65 v=0
14340 On ch=5 n=57 v=0
14340 On ch=5 n=53 v=0
14340 On ch=5 n=53 v=40
14340 On ch=5 n=60 v=40
14340 Par ch=5 c=7 v=12
14340 On ch=5 n=57 v=40
14342 Par ch=5 c=7 v=20
14343 Par ch=5 c=7 v=37
14343 Par ch=5 c=7 v=29
14345 Par ch=5 c=7 v=45
14346 Par ch=5 c=7 v=53
14347 Par ch=5 c=7 v=62
14348 Par ch=5 c=7 v=70
14349 Par ch=5 c=7 v=78
14350 Par ch=5 c=7 v=86
14352 Par ch=5 c=7 v=95
14353 Par ch=5 c=7 v=103
14354 Par ch=5 c=7 v=111
14355 Par ch=5 c=7 v=119
14356 Par ch=5 c=7 v=127
14357 Par ch=5 c=7 v=119
14358 Par ch=5 c=7 v=111
14359 Par ch=5 c=7 v=103
14360 Par ch=5 c=7 v=95
14362 Par ch=5 c=7 v=86
14363 Par ch=5 c=7 v=78
14364 Par ch=5 c=7 v=70
14365 Par ch=5 c=7 v=62
14366 Par ch=5 c=7 v=54
14367 Par ch=5 c=7 v=45
14368 Par ch=5 c=7 v=37
14370 Par ch=5 c=7 v=21
14370 Par ch=5 c=7 v=29
14371 Par ch=5 c=7 v=12
14373 Par ch=5 c=7 v=20
14374 Par ch=5 c=7 v=29
14375 Par ch=5 c=7 v=37
14376 Par ch=5 c=7 v=45
14377 Par ch=5 c=7 v=53
14378 Par ch=5 c=7 v=62
14380 Par ch=5 c=7 v=70
14380 Par ch=5 c=7 v=78
14382 Par ch=5 c=7 v=86
14383 Par ch=5 c=7 v=95
14384 Par ch=5 c=7 v=103
14385 Par ch=5 c=7 v=111
14386 Par ch=5 c=7 v=119
14387 Par ch=5 c=7 v=127
14388 Par ch=5 c=7 v=119
14390 Par ch=5 c=7 v=111
14391 Par ch=5 c=7 v=103
14392 Par ch=5 c=7 v=95
14393 Par ch=5 c=7 v=86
14394 Par ch=5 c=7 v=78
14395 Par ch=5 c=7 v=70
14396 Par ch=5 c=7 v=62
14397 Par ch=5 c=7 v=54
14398 Par ch=5 c=7 v=45
14400 On ch=5 n=57 v=0
14400 On ch=5 n=60 v=0
14400 On ch=5 n=53 v=0
14400 On ch=5 n=64 v=40
14400 On ch=5 n=60 v=40
14400 On ch=5 n=52 v=40
14400 On ch=5 n=55 v=40
14400 Par ch=5 c=7 v=78
14400 Par ch=5 c=7 v=86
14401 Par ch=5 c=7 v=103
14401 Par ch=5 c=7 v=95
14403 Par ch=5 c=7 v=111
14404 Par ch=5 c=7 v=119
14405 Par ch=5 c=7 v=127
14407 Par ch=5 c=7 v=111
14407 Par ch=5 c=7 v=119
14408 Par ch=5 c=7 v=103
14410 Par ch=5 c=7 v=95
14411 Par ch=5 c=7 v=86
14412 Par ch=5 c=7 v=78
14413 Par ch=5 c=7 v=70
14414 Par ch=5 c=7 v=62
14415 Par ch=5 c=7 v=53
14416 Par ch=5 c=7 v=45
14417 Par ch=5 c=7 v=37
14418 Par ch=5 c=7 v=29
14420 Par ch=5 c=7 v=21
14421 Par ch=5 c=7 v=12
14422 Par ch=5 c=7 v=21
14423 Par ch=5 c=7 v=29
14424 Par ch=5 c=7 v=37
14425 Par ch=5 c=7 v=45
14427 Par ch=5 c=7 v=53
14428 Par ch=5 c=7 v=70
14428 Par ch=5 c=7 v=62
14430 Par ch=5 c=7 v=78
14431 Par ch=5 c=7 v=86
14432 Par ch=5 c=7 v=95
14433 Par ch=5 c=7 v=103
14434 Par ch=5 c=7 v=111
14435 Par ch=5 c=7 v=119
14437 Par ch=5 c=7 v=127
14438 Par ch=5 c=7 v=119
14438 Par ch=5 c=7 v=111
14440 Par ch=5 c=7 v=103
14441 Par ch=5 c=7 v=95
14442 Par ch=5 c=7 v=86
14443 Par ch=5 c=7 v=78
14444 Par ch=5 c=7 v=70
14445 Par ch=5 c=7 v=62
14447 Par ch=5 c=7 v=53
14448 Par ch=5 c=7 v=45
14448 Par ch=5 c=7 v=37
14450 Par ch=5 c=7 v=29
14451 Par ch=5 c=7 v=21
14452 Par ch=5 c=7 v=12
14453 Par ch=5 c=7 v=21
14454 Par ch=5 c=7 v=29
14455 Par ch=5 c=7 v=37
14457 Par ch=5 c=7 v=45
14458 Par ch=5 c=7 v=53
14459 Par ch=5 c=7 v=62
14460 On ch=5 n=55 v=0
14460 On ch=5 n=64 v=0
14460 On ch=5 n=60 v=0
14460 On ch=5 n=52 v=0
14460 On ch=5 n=52 v=40
14460 On ch=5 n=60 v=40
14460 On ch=5 n=55 v=40
14460 Par ch=5 c=7 v=70
14461 Par ch=5 c=7 v=78
14462 Par ch=5 c=7 v=86
14463 Par ch=5 c=7 v=95
14465 Par ch=5 c=7 v=103
14465 Par ch=5 c=7 v=111
14467 Par ch=5 c=7 v=119
14468 Par ch=5 c=7 v=127
14469 Par ch=5 c=7 v=119
14470 Par ch=5 c=7 v=111
14471 Par ch=5 c=7 v=103
14472 Par ch=5 c=7 v=95
14473 Par ch=5 c=7 v=86
14475 Par ch=5 c=7 v=78
14475 Par ch=5 c=7 v=70
14477 Par ch=5 c=7 v=62
14478 Par ch=5 c=7 v=53
14479 Par ch=5 c=7 v=45
14480 Par ch=5 c=7 v=37
14481 Par ch=5 c=7 v=29
14482 Par ch=5 c=7 v=21
14483 Par ch=5 c=7 v=12
14485 Par ch=5 c=7 v=29
14485 Par ch=5 c=7 v=21
14487 Par ch=5 c=7 v=37
14488 Par ch=5 c=7 v=45
14489 Par ch=5 c=7 v=53
14490 Par ch=5 c=7 v=62
14491 Par ch=5 c=7 v=70
14492 Par ch=5 c=7 v=78
14493 Par ch=5 c=7 v=86
14495 Par ch=5 c=7 v=95
14496 Par ch=5 c=7 v=103
14497 Par ch=5 c=7 v=111
14498 Par ch=5 c=7 v=119
14499 Par ch=5 c=7 v=127
14500 Par ch=5 c=7 v=119
14502 Par ch=5 c=7 v=103
14502 Par ch=5 c=7 v=111
14503 Par ch=5 c=7 v=95
14505 Par ch=5 c=7 v=86
14506 Par ch=5 c=7 v=78
14507 Par ch=5 c=7 v=70
14508 Par ch=5 c=7 v=62
14509 Par ch=5 c=7 v=53
14510 Par ch=5 c=7 v=45
14512 Par ch=5 c=7 v=37
14512 Par ch=5 c=7 v=29
14513 Par ch=5 c=7 v=21
14515 Par ch=5 c=7 v=12
14516 Par ch=5 c=7 v=21
14517 Par ch=5 c=7 v=29
14518 Par ch=5 c=7 v=37
14519 Par ch=5 c=7 v=45
14520 On ch=5 n=55 v=0
14520 On ch=5 n=60 v=0
14520 On ch=5 n=52 v=0
14520 On ch=5 n=64 v=40
14520 On ch=5 n=55 v=40
14520 On ch=5 n=52 v=40
14520 On ch=5 n=60 v=40
14520 Par ch=5 c=7 v=53
14522 Par ch=5 c=7 v=62
14522 Par ch=5 c=7 v=70
14523 Par ch=5 c=7 v=78
14525 Par ch=5 c=7 v=86
14526 Par ch=5 c=7 v=95
14527 Par ch=5 c=7 v=103
14528 Par ch=5 c=7 v=111
14529 Par ch=5 c=7 v=119
14530 Par ch=5 c=7 v=127
14532 Par ch=5 c=7 v=119
14533 Par ch=5 c=7 v=103
14533 Par ch=5 c=7 v=111
14535 Par ch=5 c=7 v=95
14536 Par ch=5 c=7 v=86
14537 Par ch=5 c=7 v=78
14538 Par ch=5 c=7 v=70
14539 Par ch=5 c=7 v=62
14540 Par ch=5 c=7 v=53
14542 Par ch=5 c=7 v=45
14543 Par ch=5 c=7 v=37
14543 Par ch=5 c=7 v=29
14545 Par ch=5 c=7 v=21
14546 Par ch=5 c=7 v=12
14547 Par ch=5 c=7 v=20
14548 Par ch=5 c=7 v=29
14549 Par ch=5 c=7 v=37
14550 Par ch=5 c=7 v=45
14552 Par ch=5 c=7 v=53
14553 Par ch=5 c=7 v=62
14554 Par ch=5 c=7 v=70
14555 Par ch=5 c=7 v=78
14556 Par ch=5 c=7 v=86
14557 Par ch=5 c=7 v=95
14558 Par ch=5 c=7 v=103
14559 Par ch=5 c=7 v=111
14560 Par ch=5 c=7 v=119
14562 Par ch=5 c=7 v=127
14563 Par ch=5 c=7 v=119
14564 Par ch=5 c=7 v=111
14565 Par ch=5 c=7 v=103
14566 Par ch=5 c=7 v=95
14567 Par ch=5 c=7 v=86
14568 Par ch=5 c=7 v=78
14570 Par ch=5 c=7 v=62
14570 Par ch=5 c=7 v=70
14572 Par ch=5 c=7 v=53
14573 Par ch=5 c=7 v=45
14574 Par ch=5 c=7 v=37
14575 Par ch=5 c=7 v=29
14576 Par ch=5 c=7 v=21
14577 Par ch=5 c=7 v=12
14578 Par ch=5 c=7 v=20
14580 On ch=5 n=60 v=0
14580 On ch=5 n=64 v=0
14580 On ch=5 n=55 v=0
14580 On ch=5 n=52 v=0
14580 On ch=5 n=55 v=40
14580 Par ch=5 c=7 v=95
14580 Par ch=5 c=7 v=86
14580 Par ch=5 c=7 v=78
14580 On ch=5 n=52 v=40
14580 On ch=5 n=60 v=40
14582 Par ch=5 c=7 v=103
14583 Par ch=5 c=7 v=111
14584 Par ch=5 c=7 v=119
14585 Par ch=5 c=7 v=127
14586 Par ch=5 c=7 v=119
14587 Par ch=5 c=7 v=111
14588 Par ch=5 c=7 v=103
14590 Par ch=5 c=7 v=95
14591 Par ch=5 c=7 v=86
14592 Par ch=5 c=7 v=78
14593 Par ch=5 c=7 v=70
14594 Par ch=5 c=7 v=62
14595 Par ch=5 c=7 v=53
14596 Par ch=5 c=7 v=45
14597 Par ch=5 c=7 v=37
14598 Par ch=5 c=7 v=29
14600 Par ch=5 c=7 v=21
14601 Par ch=5 c=7 v=12
14602 Par ch=5 c=7 v=21
14603 Par ch=5 c=7 v=29
14604 Par ch=5 c=7 v=37
14605 Par ch=5 c=7 v=45
14607 Par ch=5 c=7 v=53
14607 Par ch=5 c=7 v=62
14608 Par ch=5 c=7 v=70
14610 Par ch=5 c=7 v=78
14611 Par ch=5 c=7 v=86
14612 Par ch=5 c=7 v=95
14613 Par ch=5 c=7 v=103
14614 Par ch=5 c=7 v=111
14615 Par ch=5 c=7 v=119
14617 Par ch=5 c=7 v=127
14617 Par ch=5 c=7 v=119
14618 Par ch=5 c=7 v=111
14620 Par ch=5 c=7 v=103
14621 Par ch=5 c=7 v=95
14622 Par ch=5 c=7 v=86
14623 Par ch=5 c=7 v=78
14624 Par ch=5 c=7 v=70
14625 Par ch=5 c=7 v=62
14627 Par ch=5 c=7 v=53
14628 Par ch=5 c=7 v=37
14628 Par ch=5 c=7 v=45
14630 Par ch=5 c=7 v=29
14631 Par ch=5 c=7 v=21
14632 Par ch=5 c=7 v=12
14633 Par ch=5 c=7 v=21
14634 Par ch=5 c=7 v=29
14635 Par ch=5 c=7 v=37
14637 Par ch=5 c=7 v=45
14638 Par ch=5 c=7 v=53
14638 Par ch=5 c=7 v=62
14640 On ch=5 n=60 v=0
14640 On ch=5 n=52 v=0
14640 On ch=5 n=55 v=0
14640 On ch=5 n=64 v=40
14640 Par ch=5 c=7 v=70
14640 On ch=5 n=60 v=40
14640 On ch=5 n=52 v=40
14640 On ch=5 n=55 v=40
14641 Par ch=5 c=7 v=78
14642 Par ch=5 c=7 v=86
14643 Par ch=5 c=7 v=95
14644 Par ch=5 c=7 v=103
14645 Par ch=5 c=7 v=111
14647 Par ch=5 c=7 v=119
14648 Par ch=5 c=7 v=127
14649 Par ch=5 c=7 v=119
14650 Par ch=5 c=7 v=111
14651 Par ch=5 c=7 v=103
14652 Par ch=5 c=7 v=95
14653 Par ch=5 c=7 v=86
14654 Par ch=5 c=7 v=78
14655 Par ch=5 c=7 v=70
14657 Par ch=5 c=7 v=62
14658 Par ch=5 c=7 v=53
14659 Par ch=5 c=7 v=45
14660 Par ch=5 c=7 v=37
14661 Par ch=5 c=7 v=29
14662 Par ch=5 c=7 v=21
14663 Par ch=5 c=7 v=12
14665 Par ch=5 c=7 v=21
14665 Par ch=5 c=7 v=29
14667 Par ch=5 c=7 v=37
14668 Par ch=5 c=7 v=45
14669 Par ch=5 c=7 v=53
14670 Par ch=5 c=7 v=62
14671 Par ch=5 c=7 v=70
14672 Par ch=5 c=7 v=78
14673 Par ch=5 c=7 v=86
14675 Par ch=5 c=7 v=103
14675 Par ch=5 c=7 v=95
14677 Par ch=5 c=7 v=111
14678 Par ch=5 c=7 v=119
14679 Par ch=5 c=7 v=127
14680 Par ch=5 c=7 v=119
14681 Par ch=5 c=7 v=111
14682 Par ch=5 c=7 v=103
14683 Par ch=5 c=7 v=95
14685 Par ch=5 c=7 v=86
14686 Par ch=5 c=7 v=78
14687 Par ch=5 c=7 v=70
14688 Par ch=5 c=7 v=62
14689 Par ch=5 c=7 v=53
14690 Par ch=5 c=7 v=45
14691 Par ch=5 c=7 v=37
14692 Par ch=5 c=7 v=29
14693 Par ch=5 c=7 v=21
14695 Par ch=5 c=7 v=12
14696 Par ch=5 c=7 v=21
14697 Par ch=5 c=7 v=29
14698 Par ch=5 c=7 v=37
14699 Par ch=5 c=7 v=45
14700 On ch=5 n=55 v=0
14700 On ch=5 n=64 v=0
14700 On ch=5 n=60 v=0
14700 On ch=5 n=52 v=0
14700 On ch=5 n=55 v=40
14700 Par ch=5 c=7 v=53
14700 On ch=5 n=52 v=40
14700 On ch=5 n=60 v=40
14702 Par ch=5 c=7 v=62
14702 Par ch=5 c=7 v=70
14703 Par ch=5 c=7 v=78
14705 Par ch=5 c=7 v=86
14706 Par ch=5 c=7 v=95
14707 Par ch=5 c=7 v=103
14708 Par ch=5 c=7 v=111
14709 Par ch=5 c=7 v=119
14710 Par ch=5 c=7 v=127
14712 Par ch=5 c=7 v=111
14712 Par ch=5 c=7 v=119
14713 Par ch=5 c=7 v=103
14715 Par ch=5 c=7 v=95
14716 Par ch=5 c=7 v=86
14717 Par ch=5 c=7 v=78
14718 Par ch=5 c=7 v=70
14719 Par ch=5 c=7 v=62
14720 Par ch=5 c=7 v=53
14722 Par ch=5 c=7 v=45
14723 Par ch=5 c=7 v=37
14723 Par ch=5 c=7 v=29
14725 Par ch=5 c=7 v=21
14726 Par ch=5 c=7 v=12
14727 Par ch=5 c=7 v=20
14728 Par ch=5 c=7 v=29
14729 Par ch=5 c=7 v=37
14730 Par ch=5 c=7 v=45
14732 Par ch=5 c=7 v=53
14733 Par ch=5 c=7 v=62
14733 Par ch=5 c=7 v=70
14735 Par ch=5 c=7 v=78
14736 Par ch=5 c=7 v=86
14737 Par ch=5 c=7 v=95
14738 Par ch=5 c=7 v=103
14739 Par ch=5 c=7 v=111
14740 Par ch=5 c=7 v=119
14742 Par ch=5 c=7 v=127
14743 Par ch=5 c=7 v=119
14743 Par ch=5 c=7 v=111
14745 Par ch=5 c=7 v=103
14746 Par ch=5 c=7 v=95
14747 Par ch=5 c=7 v=86
14748 Par ch=5 c=7 v=78
14749 Par ch=5 c=7 v=70
14750 Par ch=5 c=7 v=62
14752 Par ch=5 c=7 v=53
14753 Par ch=5 c=7 v=45
14754 Par ch=5 c=7 v=37
14755 Par ch=5 c=7 v=29
14756 Par ch=5 c=7 v=21
14757 Par ch=5 c=7 v=12
14758 Par ch=5 c=7 v=20
14760 On ch=5 n=60 v=0
14760 On ch=5 n=52 v=0
14760 On ch=5 n=55 v=0
14760 On ch=5 n=60 v=40
14760 On ch=5 n=52 v=40
14760 Par ch=5 c=7 v=37
14760 On ch=5 n=64 v=40
14760 Par ch=5 c=7 v=29
14760 On ch=5 n=55 v=40
14762 Par ch=5 c=7 v=45
14763 Par ch=5 c=7 v=53
14764 Par ch=5 c=7 v=62
14765 Par ch=5 c=7 v=70
14766 Par ch=5 c=7 v=78
14767 Par ch=5 c=7 v=86
14768 Par ch=5 c=7 v=95
14770 Par ch=5 c=7 v=103
14770 Par ch=5 c=7 v=111
14772 Par ch=5 c=7 v=119
14773 Par ch=5 c=7 v=127
14774 Par ch=5 c=7 v=119
14775 Par ch=5 c=7 v=111
14776 Par ch=5 c=7 v=103
14777 Par ch=5 c=7 v=95
14778 Par ch=5 c=7 v=86
14780 Par ch=5 c=7 v=70
14780 Par ch=5 c=7 v=78
14782 Par ch=5 c=7 v=62
14783 Par ch=5 c=7 v=53
14784 Par ch=5 c=7 v=45
14785 Par ch=5 c=7 v=37
14786 Par ch=5 c=7 v=29
14787 Par ch=5 c=7 v=21
14788 Par ch=5 c=7 v=12
14790 Par ch=5 c=7 v=20
14791 Par ch=5 c=7 v=29
14792 Par ch=5 c=7 v=37
14793 Par ch=5 c=7 v=45
14794 Par ch=5 c=7 v=53
14795 Par ch=5 c=7 v=62
14797 Par ch=5 c=7 v=70
14797 Par ch=5 c=7 v=78
14798 Par ch=5 c=7 v=86
14800 Par ch=5 c=7 v=95
14801 Par ch=5 c=7 v=103
14802 Par ch=5 c=7 v=111
14803 Par ch=5 c=7 v=119
14804 Par ch=5 c=7 v=127
14805 Par ch=5 c=7 v=119
14807 Par ch=5 c=7 v=103
14807 Par ch=5 c=7 v=111
14808 Par ch=5 c=7 v=95
14810 Par ch=5 c=7 v=86
14811 Par ch=5 c=7 v=78
14812 Par ch=5 c=7 v=70
14813 Par ch=5 c=7 v=62
14814 Par ch=5 c=7 v=53
14815 Par ch=5 c=7 v=45
14816 Par ch=5 c=7 v=37
14818 Par ch=5 c=7 v=21
14818 Par ch=5 c=7 v=29
14820 On ch=5 n=55 v=0
14820 On ch=5 n=60 v=0
14820 On ch=5 n=52 v=0
14820 On ch=5 n=64 v=0
14820 On ch=5 n=55 v=40
14820 On ch=5 n=52 v=40
14820 Par ch=5 c=7 v=12
14820 On ch=5 n=60 v=40
14821 Par ch=5 c=7 v=20
14822 Par ch=5 c=7 v=29
14823 Par ch=5 c=7 v=37
14824 Par ch=5 c=7 v=45
14825 Par ch=5 c=7 v=53
14827 Par ch=5 c=7 v=62
14828 Par ch=5 c=7 v=70
14828 Par ch=5 c=7 v=78
14830 Par ch=5 c=7 v=86
14831 Par ch=5 c=7 v=95
14832 Par ch=5 c=7 v=103
14833 Par ch=5 c=7 v=111
14834 Par ch=5 c=7 v=119
14835 Par ch=5 c=7 v=127
14837 Par ch=5 c=7 v=119
14838 Par ch=5 c=7 v=111
14838 Par ch=5 c=7 v=103
14840 Par ch=5 c=7 v=95
14841 Par ch=5 c=7 v=86
14842 Par ch=5 c=7 v=78
14843 Par ch=5 c=7 v=70
14844 Par ch=5 c=7 v=62
14845 Par ch=5 c=7 v=54
14846 Par ch=5 c=7 v=45
14848 Par ch=5 c=7 v=37
14849 Par ch=5 c=7 v=29
14850 Par ch=5 c=7 v=21
14851 Par ch=5 c=7 v=12
14852 Par ch=5 c=7 v=20
14853 Par ch=5 c=7 v=29
14854 Par ch=5 c=7 v=37
14855 Par ch=5 c=7 v=45
14857 Par ch=5 c=7 v=53
14858 Par ch=5 c=7 v=62
14859 Par ch=5 c=7 v=70
14860 Par ch=5 c=7 v=78
14861 Par ch=5 c=7 v=86
14862 Par ch=5 c=7 v=95
14863 Par ch=5 c=7 v=103
14865 Par ch=5 c=7 v=111
14865 Par ch=5 c=7 v=119
14867 Par ch=5 c=7 v=127
14868 Par ch=5 c=7 v=119
14869 Par ch=5 c=7 v=111
14870 Par ch=5 c=7 v=103
14871 Par ch=5 c=7 v=95
14872 Par ch=5 c=7 v=86
14873 Par ch=5 c=7 v=78
14875 Par ch=5 c=7 v=62
14875 Par ch=5 c=7 v=70
14876 Par ch=5 c=7 v=54
14878 Par ch=5 c=7 v=45
14879 Par ch=5 c=7 v=37
14880 On ch=5 n=60 v=0
14880 On ch=5 n=52 v=0
14880 On ch=5 n=55 v=0
14880 Par ch=5 c=7 v=86
14880 On ch=5 n=50 v=40
14880 On ch=5 n=53 v=40
14880 Par ch=5 c=7 v=78
14880 On ch=5 n=57 v=40
14880 On ch=5 n=62 v=40
14881 Par ch=5 c=7 v=95
14882 Par ch=5 c=7 v=103
14883 Par ch=5 c=7 v=111
14885 Par ch=5 c=7 v=119
14886 Par ch=5 c=7 v=127
14887 Par ch=5 c=7 v=119
14888 Par ch=5 c=7 v=111
14889 Par ch=5 c=7 v=103
14890 Par ch=5 c=7 v=95
14891 Par ch=5 c=7 v=86
14892 Par ch=5 c=7 v=78
14893 Par ch=5 c=7 v=70
14895 Par ch=5 c=7 v=62
14896 Par ch=5 c=7 v=53
14897 Par ch=5 c=7 v=45
14898 Par ch=5 c=7 v=37
14899 Par ch=5 c=7 v=29
14900 Par ch=5 c=7 v=21
14902 Par ch=5 c=7 v=21
14902 Par ch=5 c=7 v=12
14903 Par ch=5 c=7 v=29
14905 Par ch=5 c=7 v=37
14906 Par ch=5 c=7 v=45
14907 Par ch=5 c=7 v=53
14908 Par ch=5 c=7 v=62
14909 Par ch=5 c=7 v=70
14910 Par ch=5 c=7 v=78
14912 Par ch=5 c=7 v=95
14912 Par ch=5 c=7 v=86
14913 Par ch=5 c=7 v=103
14915 Par ch=5 c=7 v=111
14916 Par ch=5 c=7 v=119
14917 Par ch=5 c=7 v=127
14918 Par ch=5 c=7 v=119
14919 Par ch=5 c=7 v=111
14920 Par ch=5 c=7 v=103
14921 Par ch=5 c=7 v=95
14923 Par ch=5 c=7 v=78
14923 Par ch=5 c=7 v=86
14925 Par ch=5 c=7 v=70
14926 Par ch=5 c=7 v=62
14927 Par ch=5 c=7 v=53
14928 Par ch=5 c=7 v=45
14929 Par ch=5 c=7 v=37
14930 Par ch=5 c=7 v=29
14932 Par ch=5 c=7 v=21
14933 Par ch=5 c=7 v=21
14933 Par ch=5 c=7 v=12
14935 Par ch=5 c=7 v=29
14936 Par ch=5 c=7 v=37
14937 Par ch=5 c=7 v=45
14938 Par ch=5 c=7 v=53
14939 Par ch=5 c=7 v=62
14940 On ch=5 n=62 v=0
14940 On ch=5 n=50 v=0
14940 On ch=5 n=53 v=0
14940 On ch=5 n=57 v=0
14940 On ch=5 n=53 v=40
14940 On ch=5 n=57 v=40
14940 On ch=5 n=50 v=40
14940 Par ch=5 c=7 v=70
14942 Par ch=5 c=7 v=78
14943 Par ch=5 c=7 v=86
14944 Par ch=5 c=7 v=95
14945 Par ch=5 c=7 v=103
14946 Par ch=5 c=7 v=111
14947 Par ch=5 c=7 v=119
14948 Par ch=5 c=7 v=127
14949 Par ch=5 c=7 v=119
14950 Par ch=5 c=7 v=111
14952 Par ch=5 c=7 v=103
14953 Par ch=5 c=7 v=95
14954 Par ch=5 c=7 v=86
14955 Par ch=5 c=7 v=78
14956 Par ch=5 c=7 v=70
14957 Par ch=5 c=7 v=62
14958 Par ch=5 c=7 v=53
14960 Par ch=5 c=7 v=37
14960 Par ch=5 c=7 v=45
14962 Par ch=5 c=7 v=29
14963 Par ch=5 c=7 v=21
14964 Par ch=5 c=7 v=12
14965 Par ch=5 c=7 v=21
14966 Par ch=5 c=7 v=29
14967 Par ch=5 c=7 v=37
14968 Par ch=5 c=7 v=45
14970 Par ch=5 c=7 v=53
14970 Par ch=5 c=7 v=62
14972 Par ch=5 c=7 v=70
14973 Par ch=5 c=7 v=78
14974 Par ch=5 c=7 v=86
14975 Par ch=5 c=7 v=95
14976 Par ch=5 c=7 v=103
14977 Par ch=5 c=7 v=111
14978 Par ch=5 c=7 v=119
14980 Par ch=5 c=7 v=127
14981 Par ch=5 c=7 v=119
14982 Par ch=5 c=7 v=111
14983 Par ch=5 c=7 v=103
14984 Par ch=5 c=7 v=95
14985 Par ch=5 c=7 v=86
14986 Par ch=5 c=7 v=78
14987 Par ch=5 c=7 v=70
14988 Par ch=5 c=7 v=62
14990 Par ch=5 c=7 v=53
14991 Par ch=5 c=7 v=45
14992 Par ch=5 c=7 v=37
14993 Par ch=5 c=7 v=29
14994 Par ch=5 c=7 v=21
14995 Par ch=5 c=7 v=12
14997 Par ch=5 c=7 v=29
14997 Par ch=5 c=7 v=21
14998 Par ch=5 c=7 v=37
15000 On ch=5 n=50 v=0
15000 On ch=5 n=57 v=0
15000 On ch=5 n=53 v=0
15000 On ch=5 n=53 v=40
15000 Par ch=5 c=7 v=45
15000 On ch=5 n=57 v=40
15000 On ch=5 n=50 v=40
15000 On ch=5 n=62 v=40
15001 Par ch=5 c=7 v=53
15002 Par ch=5 c=7 v=62
15003 Par ch=5 c=7 v=70
15004 Par ch=5 c=7 v=78
15005 Par ch=5 c=7 v=86
15007 Par ch=5 c=7 v=103
15007 Par ch=5 c=7 v=95
15008 Par ch=5 c=7 v=111
15010 Par ch=5 c=7 v=119
15011 Par ch=5 c=7 v=127
15012 Par ch=5 c=7 v=119
15013 Par ch=5 c=7 v=111
15014 Par ch=5 c=7 v=103
15015 Par ch=5 c=7 v=95
15017 Par ch=5 c=7 v=86
15018 Par ch=5 c=7 v=70
15018 Par ch=5 c=7 v=78
15020 Par ch=5 c=7 v=62
15021 Par ch=5 c=7 v=53
15022 Par ch=5 c=7 v=45
15023 Par ch=5 c=7 v=37
15024 Par ch=5 c=7 v=29
15025 Par ch=5 c=7 v=21
15027 Par ch=5 c=7 v=12
15028 Par ch=5 c=7 v=20
15028 Par ch=5 c=7 v=29
15030 Par ch=5 c=7 v=37
15031 Par ch=5 c=7 v=45
15032 Par ch=5 c=7 v=53
15033 Par ch=5 c=7 v=62
15034 Par ch=5 c=7 v=70
15035 Par ch=5 c=7 v=78
15037 Par ch=5 c=7 v=86
15038 Par ch=5 c=7 v=95
15039 Par ch=5 c=7 v=103
15040 Par ch=5 c=7 v=111
15041 Par ch=5 c=7 v=119
15042 Par ch=5 c=7 v=127
15043 Par ch=5 c=7 v=119
15044 Par ch=5 c=7 v=111
15045 Par ch=5 c=7 v=103
15047 Par ch=5 c=7 v=95
15048 Par ch=5 c=7 v=86
15049 Par ch=5 c=7 v=78
15050 Par ch=5 c=7 v=70
15051 Par ch=5 c=7 v=62
15052 Par ch=5 c=7 v=53
15053 Par ch=5 c=7 v=45
15055 Par ch=5 c=7 v=29
15055 Par ch=5 c=7 v=37
15057 Par ch=5 c=7 v=21
15058 Par ch=5 c=7 v=12
15059 Par ch=5 c=7 v=20
15060 On ch=5 n=62 v=0
15060 On ch=5 n=53 v=0
15060 On ch=5 n=57 v=0
15060 On ch=5 n=50 v=0
15060 On ch=5 n=50 v=40
15060 Par ch=5 c=7 v=86
15060 On ch=5 n=57 v=40
15060 On ch=5 n=53 v=40
15060 Par ch=5 c=7 v=78
15061 Par ch=5 c=7 v=95
15062 Par ch=5 c=7 v=103
15063 Par ch=5 c=7 v=111
15065 Par ch=5 c=7 v=119
15065 Par ch=5 c=7 v=127
15067 Par ch=5 c=7 v=119
15068 Par ch=5 c=7 v=111
15069 Par ch=5 c=7 v=103
15070 Par ch=5 c=7 v=95
15071 Par ch=5 c=7 v=86
15072 Par ch=5 c=7 v=78
15073 Par ch=5 c=7 v=70
15075 Par ch=5 c=7 v=62
15076 Par ch=5 c=7 v=53
15077 Par ch=5 c=7 v=45
15078 Par ch=5 c=7 v=37
15079 Par ch=5 c=7 v=29
15080 Par ch=5 c=7 v=21
15081 Par ch=5 c=7 v=12
15082 Par ch=5 c=7 v=21
15083 Par ch=5 c=7 v=29
15085 Par ch=5 c=7 v=37
15086 Par ch=5 c=7 v=45
15087 Par ch=5 c=7 v=53
15088 Par ch=5 c=7 v=62
15089 Par ch=5 c=7 v=70
15090 Par ch=5 c=7 v=78
15092 Par ch=5 c=7 v=86
15092 Par ch=5 c=7 v=95
15093 Par ch=5 c=7 v=103
15095 Par ch=5 c=7 v=111
15096 Par ch=5 c=7 v=119
15097 Par ch=5 c=7 v=127
15098 Par ch=5 c=7 v=119
15099 Par ch=5 c=7 v=111
15100 Par ch=5 c=7 v=103
15102 Par ch=5 c=7 v=86
15102 Par ch=5 c=7 v=95
15103 Par ch=5 c=7 v=78
15105 Par ch=5 c=7 v=70
15106 Par ch=5 c=7 v=62
15107 Par ch=5 c=7 v=53
15108 Par ch=5 c=7 v=45
15109 Par ch=5 c=7 v=37
15110 Par ch=5 c=7 v=29
15112 Par ch=5 c=7 v=21
15113 Par ch=5 c=7 v=12
15113 Par ch=5 c=7 v=21
15115 Par ch=5 c=7 v=29
15116 Par ch=5 c=7 v=37
15117 Par ch=5 c=7 v=45
15118 Par ch=5 c=7 v=53
15119 Par ch=5 c=7 v=62
15120 On ch=5 n=53 v=0
15120 On ch=5 n=57 v=0
15120 On ch=5 n=50 v=0
15120 On ch=5 n=53 v=40
15120 On ch=5 n=50 v=40
15120 On ch=5 n=62 v=40
15120 On ch=5 n=57 v=40
15120 Par ch=5 c=7 v=70
15122 Par ch=5 c=7 v=78
15123 Par ch=5 c=7 v=86
15123 Par ch=5 c=7 v=95
15125 Par ch=5 c=7 v=103
15126 Par ch=5 c=7 v=111
15127 Par ch=5 c=7 v=119
15128 Par ch=5 c=7 v=127
15129 Par ch=5 c=7 v=119
15130 Par ch=5 c=7 v=111
15132 Par ch=5 c=7 v=103
15133 Par ch=5 c=7 v=86
15133 Par ch=5 c=7 v=95
15135 Par ch=5 c=7 v=78
15136 Par ch=5 c=7 v=70
15137 Par ch=5 c=7 v=62
15138 Par ch=5 c=7 v=53
15139 Par ch=5 c=7 v=45
15140 Par ch=5 c=7 v=37
15142 Par ch=5 c=7 v=29
15143 Par ch=5 c=7 v=21
15144 Par ch=5 c=7 v=12
15145 Par ch=5 c=7 v=21
15146 Par ch=5 c=7 v=29
15147 Par ch=5 c=7 v=37
15148 Par ch=5 c=7 v=45
15150 Par ch=5 c=7 v=53
15150 Par ch=5 c=7 v=62
15152 Par ch=5 c=7 v=70
15153 Par ch=5 c=7 v=78
15154 Par ch=5 c=7 v=86
15155 Par ch=5 c=7 v=95
15156 Par ch=5 c=7 v=103
15157 Par ch=5 c=7 v=111
15158 Par ch=5 c=7 v=119
15160 Par ch=5 c=7 v=119
15160 Par ch=5 c=7 v=127
15162 Par ch=5 c=7 v=111
15163 Par ch=5 c=7 v=103
15164 Par ch=5 c=7 v=95
15165 Par ch=5 c=7 v=86
15166 Par ch=5 c=7 v=78
15167 Par ch=5 c=7 v=70
15168 Par ch=5 c=7 v=62
15170 Par ch=5 c=7 v=53
15170 Par ch=5 c=7 v=45
15172 Par ch=5 c=7 v=37
15173 Par ch=5 c=7 v=29
15174 Par ch=5 c=7 v=21
15175 Par ch=5 c=7 v=12
15176 Par ch=5 c=7 v=21
15177 Par ch=5 c=7 v=29
15178 Par ch=5 c=7 v=37
15180 On ch=5 n=57 v=0
15180 On ch=5 n=53 v=0
15180 On ch=5 n=50 v=0
15180 On ch=5 n=62 v=0
15180 On ch=5 n=50 v=40
15180 On ch=5 n=57 v=40
15180 Par ch=5 c=7 v=45
15180 On ch=5 n=53 v=40
15181 Par ch=5 c=7 v=53
15182 Par ch=5 c=7 v=62
15183 Par ch=5 c=7 v=70
15184 Par ch=5 c=7 v=78
15185 Par ch=5 c=7 v=86
15187 Par ch=5 c=7 v=103
15187 Par ch=5 c=7 v=95
15188 Par ch=5 c=7 v=111
15190 Par ch=5 c=7 v=119
15191 Par ch=5 c=7 v=127
15192 Par ch=5 c=7 v=119
15193 Par ch=5 c=7 v=111
15194 Par ch=5 c=7 v=103
15195 Par ch=5 c=7 v=95
15197 Par ch=5 c=7 v=86
15197 Par ch=5 c=7 v=78
15198 Par ch=5 c=7 v=70
15200 Par ch=5 c=7 v=62
15201 Par ch=5 c=7 v=53
15202 Par ch=5 c=7 v=45
15203 Par ch=5 c=7 v=37
15204 Par ch=5 c=7 v=29
15205 Par ch=5 c=7 v=21
15207 Par ch=5 c=7 v=20
15207 Par ch=5 c=7 v=12
15208 Par ch=5 c=7 v=29
15210 Par ch=5 c=7 v=37
15211 Par ch=5 c=7 v=45
15212 Par ch=5 c=7 v=53
15213 Par ch=5 c=7 v=62
15214 Par ch=5 c=7 v=70
15215 Par ch=5 c=7 v=78
15217 Par ch=5 c=7 v=86
15218 Par ch=5 c=7 v=103
15218 Par ch=5 c=7 v=95
15220 Par ch=5 c=7 v=111
15221 Par ch=5 c=7 v=119
15222 Par ch=5 c=7 v=127
15223 Par ch=5 c=7 v=119
15224 Par ch=5 c=7 v=111
15225 Par ch=5 c=7 v=103
15227 Par ch=5 c=7 v=95
15228 Par ch=5 c=7 v=86
15228 Par ch=5 c=7 v=78
15230 Par ch=5 c=7 v=70
15231 Par ch=5 c=7 v=62
15232 Par ch=5 c=7 v=53
15233 Par ch=5 c=7 v=45
15234 Par ch=5 c=7 v=37
15235 Par ch=5 c=7 v=29
15237 Par ch=5 c=7 v=21
15238 Par ch=5 c=7 v=12
15239 Par ch=5 c=7 v=20
15240 On ch=5 n=53 v=0
15240 On ch=5 n=57 v=0
15240 On ch=5 n=50 v=0
15240 On ch=5 n=62 v=40
15240 On ch=5 n=50 v=40
15240 On ch=5 n=57 v=40
15240 On ch=5 n=53 v=40
15240 Par ch=5 c=7 v=29
15241 Par ch=5 c=7 v=37
15242 Par ch=5 c=7 v=45
15243 Par ch=5 c=7 v=53
15244 Par ch=5 c=7 v=62
15245 Par ch=5 c=7 v=70
15247 Par ch=5 c=7 v=78
15248 Par ch=5 c=7 v=86
15249 Par ch=5 c=7 v=95
15250 Par ch=5 c=7 v=103
15251 Par ch=5 c=7 v=111
15252 Par ch=5 c=7 v=119
15253 Par ch=5 c=7 v=127
15255 Par ch=5 c=7 v=119
15255 Par ch=5 c=7 v=111
15257 Par ch=5 c=7 v=103
15258 Par ch=5 c=7 v=95
15259 Par ch=5 c=7 v=86
15260 Par ch=5 c=7 v=78
15261 Par ch=5 c=7 v=70
15262 Par ch=5 c=7 v=62
15263 Par ch=5 c=7 v=53
15265 Par ch=5 c=7 v=37
15265 Par ch=5 c=7 v=45
15267 Par ch=5 c=7 v=29
15268 Par ch=5 c=7 v=21
15269 Par ch=5 c=7 v=12
15270 Par ch=5 c=7 v=20
15271 Par ch=5 c=7 v=29
15272 Par ch=5 c=7 v=37
15273 Par ch=5 c=7 v=45
15275 Par ch=5 c=7 v=53
15276 Par ch=5 c=7 v=62
15277 Par ch=5 c=7 v=70
15278 Par ch=5 c=7 v=78
15279 Par ch=5 c=7 v=86
15280 Par ch=5 c=7 v=95
15281 Par ch=5 c=7 v=103
15282 Par ch=5 c=7 v=111
15283 Par ch=5 c=7 v=119
15285 Par ch=5 c=7 v=127
15286 Par ch=5 c=7 v=119
15287 Par ch=5 c=7 v=111
15288 Par ch=5 c=7 v=103
15289 Par ch=5 c=7 v=95
15290 Par ch=5 c=7 v=86
15292 Par ch=5 c=7 v=78
15292 Par ch=5 c=7 v=70
15293 Par ch=5 c=7 v=62
15295 Par ch=5 c=7 v=53
15296 Par ch=5 c=7 v=45
15297 Par ch=5 c=7 v=37
15298 Par ch=5 c=7 v=29
15299 Par ch=5 c=7 v=21
15300 On ch=5 n=53 v=0
15300 On ch=5 n=62 v=0
15300 On ch=5 n=50 v=0
15300 On ch=5 n=57 v=0
15300 On ch=5 n=57 v=40
15300 Par ch=5 c=7 v=12
15300 On ch=5 n=53 v=40
15300 On ch=5 n=50 v=40
15302 Par ch=5 c=7 v=29
15302 Par ch=5 c=7 v=20
15303 Par ch=5 c=7 v=37
15305 Par ch=5 c=7 v=45
15306 Par ch=5 c=7 v=53
15307 Par ch=5 c=7 v=62
15308 Par ch=5 c=7 v=70
15309 Par ch=5 c=7 v=78
15310 Par ch=5 c=7 v=86
15312 Par ch=5 c=7 v=95
15313 Par ch=5 c=7 v=103
15313 Par ch=5 c=7 v=111
15315 Par ch=5 c=7 v=119
15316 Par ch=5 c=7 v=127
15317 Par ch=5 c=7 v=119
15318 Par ch=5 c=7 v=111
15319 Par ch=5 c=7 v=103
15320 Par ch=5 c=7 v=95
15322 Par ch=5 c=7 v=86
15323 Par ch=5 c=7 v=78
15323 Par ch=5 c=7 v=70
15325 Par ch=5 c=7 v=62
15326 Par ch=5 c=7 v=54
15327 Par ch=5 c=7 v=45
15328 Par ch=5 c=7 v=37
15329 Par ch=5 c=7 v=29
15330 Par ch=5 c=7 v=21
15332 Par ch=5 c=7 v=12
15333 Par ch=5 c=7 v=20
15334 Par ch=5 c=7 v=29
15335 Par ch=5 c=7 v=37
15336 Par ch=5 c=7 v=45
15337 Par ch=5 c=7 v=53
15338 Par ch=5 c=7 v=62
15339 Par ch=5 c=7 v=70
15340 Par ch=5 c=7 v=78
15342 Par ch=5 c=7 v=86
15343 Par ch=5 c=7 v=95
15344 Par ch=5 c=7 v=103
15345 Par ch=5 c=7 v=111
15346 Par ch=5 c=7 v=119
15347 Par ch=5 c=7 v=127
15348 Par ch=5 c=7 v=119
15350 Par ch=5 c=7 v=103
15350 Par ch=5 c=7 v=111
15352 Par ch=5 c=7 v=95
15353 Par ch=5 c=7 v=86
15354 Par ch=5 c=7 v=78
15355 Par ch=5 c=7 v=70
15356 Par ch=5 c=7 v=62
15357 Par ch=5 c=7 v=54
15358 Par ch=5 c=7 v=45
15360 On ch=5 n=50 v=0
15360 On ch=5 n=53 v=0
15360 On ch=5 n=57 v=0
15360 Par ch=5 c=7 v=78
15360 On ch=5 n=46 v=40
15360 On ch=5 n=53 v=40
15360 Par ch=5 c=7 v=86
15360 Par ch=5 c=7 v=95
15360 On ch=5 n=58 v=40
15360 On ch=5 n=62 v=40
15362 Par ch=5 c=7 v=103
15363 Par ch=5 c=7 v=111
15364 Par ch=5 c=7 v=119
15365 Par ch=5 c=7 v=127
15366 Par ch=5 c=7 v=119
15367 Par ch=5 c=7 v=111
15368 Par ch=5 c=7 v=103
15370 Par ch=5 c=7 v=95
15371 Par ch=5 c=7 v=86
15372 Par ch=5 c=7 v=78
15373 Par ch=5 c=7 v=70
15374 Par ch=5 c=7 v=62
15375 Par ch=5 c=7 v=53
15376 Par ch=5 c=7 v=45
15377 Par ch=5 c=7 v=37
15378 Par ch=5 c=7 v=29
15380 Par ch=5 c=7 v=21
15381 Par ch=5 c=7 v=12
15382 Par ch=5 c=7 v=21
15383 Par ch=5 c=7 v=29
15384 Par ch=5 c=7 v=37
15385 Par ch=5 c=7 v=45
15387 Par ch=5 c=7 v=62
15387 Par ch=5 c=7 v=53
15388 Par ch=5 c=7 v=70
15390 Par ch=5 c=7 v=78
15391 Par ch=5 c=7 v=86
15392 Par ch=5 c=7 v=95
15393 Par ch=5 c=7 v=103
15394 Par ch=5 c=7 v=111
15395 Par ch=5 c=7 v=119
15397 Par ch=5 c=7 v=127
15397 Par ch=5 c=7 v=119
15398 Par ch=5 c=7 v=111
15400 Par ch=5 c=7 v=103
15401 Par ch=5 c=7 v=95
15402 Par ch=5 c=7 v=86
15403 Par ch=5 c=7 v=78
15404 Par ch=5 c=7 v=70
15405 Par ch=5 c=7 v=62
15407 Par ch=5 c=7 v=53
15408 Par ch=5 c=7 v=45
15408 Par ch=5 c=7 v=37
15410 Par ch=5 c=7 v=29
15411 Par ch=5 c=7 v=21
15412 Par ch=5 c=7 v=12
15413 Par ch=5 c=7 v=21
15414 Par ch=5 c=7 v=29
15415 Par ch=5 c=7 v=37
15417 Par ch=5 c=7 v=45
15418 Par ch=5 c=7 v=53
15418 Par ch=5 c=7 v=62
15420 On ch=5 n=62 v=0
15420 On ch=5 n=46 v=0
15420 On ch=5 n=53 v=0
15420 On ch=5 n=58 v=0
15420 On ch=5 n=58 v=40
15420 On ch=5 n=53 v=40
15420 On ch=5 n=46 v=40
15420 Par ch=5 c=7 v=70
15421 Par ch=5 c=7 v=78
15422 Par ch=5 c=7 v=86
15423 Par ch=5 c=7 v=95
15424 Par ch=5 c=7 v=103
15425 Par ch=5 c=7 v=111
15427 Par ch=5 c=7 v=119
15428 Par ch=5 c=7 v=127
15429 Par ch=5 c=7 v=119
15430 Par ch=5 c=7 v=111
15431 Par ch=5 c=7 v=103
15432 Par ch=5 c=7 v=95
15433 Par ch=5 c=7 v=86
15434 Par ch=5 c=7 v=78
15435 Par ch=5 c=7 v=70
15437 Par ch=5 c=7 v=62
15438 Par ch=5 c=7 v=53
15439 Par ch=5 c=7 v=45
15440 Par ch=5 c=7 v=37
15441 Par ch=5 c=7 v=29
15442 Par ch=5 c=7 v=21
15443 Par ch=5 c=7 v=12
15445 Par ch=5 c=7 v=29
15445 Par ch=5 c=7 v=21
15447 Par ch=5 c=7 v=37
15448 Par ch=5 c=7 v=45
15449 Par ch=5 c=7 v=53
15450 Par ch=5 c=7 v=62
15451 Par ch=5 c=7 v=70
15452 Par ch=5 c=7 v=78
15453 Par ch=5 c=7 v=86
15455 Par ch=5 c=7 v=103
15455 Par ch=5 c=7 v=95
15457 Par ch=5 c=7 v=111
15458 Par ch=5 c=7 v=119
15459 Par ch=5 c=7 v=127
15460 Par ch=5 c=7 v=119
15461 Par ch=5 c=7 v=111
15462 Par ch=5 c=7 v=103
15463 Par ch=5 c=7 v=95
15465 Par ch=5 c=7 v=78
15465 Par ch=5 c=7 v=86
15467 Par ch=5 c=7 v=70
15468 Par ch=5 c=7 v=62
15469 Par ch=5 c=7 v=53
15470 Par ch=5 c=7 v=45
15471 Par ch=5 c=7 v=37
15472 Par ch=5 c=7 v=29
15473 Par ch=5 c=7 v=21
15475 Par ch=5 c=7 v=12
15476 Par ch=5 c=7 v=21
15477 Par ch=5 c=7 v=29
15478 Par ch=5 c=7 v=37
15479 Par ch=5 c=7 v=45
15480 On ch=5 n=46 v=0
15480 On ch=5 n=53 v=0
15480 On ch=5 n=58 v=0
15480 On ch=5 n=53 v=40
15480 On ch=5 n=46 v=40
15480 Par ch=5 c=7 v=53
15480 On ch=5 n=58 v=40
15480 On ch=5 n=62 v=40
15482 Par ch=5 c=7 v=70
15482 Par ch=5 c=7 v=62
15483 Par ch=5 c=7 v=78
15485 Par ch=5 c=7 v=86
15486 Par ch=5 c=7 v=95
15487 Par ch=5 c=7 v=103
15488 Par ch=5 c=7 v=111
15489 Par ch=5 c=7 v=119
15490 Par ch=5 c=7 v=127
15492 Par ch=5 c=7 v=111
15492 Par ch=5 c=7 v=119
15493 Par ch=5 c=7 v=103
15495 Par ch=5 c=7 v=95
15496 Par ch=5 c=7 v=86
15497 Par ch=5 c=7 v=78
15498 Par ch=5 c=7 v=70
15499 Par ch=5 c=7 v=62
15500 Par ch=5 c=7 v=53
15502 Par ch=5 c=7 v=45
15503 Par ch=5 c=7 v=29
15503 Par ch=5 c=7 v=37
15505 Par ch=5 c=7 v=21
15506 Par ch=5 c=7 v=12
15507 Par ch=5 c=7 v=20
15508 Par ch=5 c=7 v=29
15509 Par ch=5 c=7 v=37
15510 Par ch=5 c=7 v=45
15512 Par ch=5 c=7 v=53
15513 Par ch=5 c=7 v=70
15513 Par ch=5 c=7 v=62
15515 Par ch=5 c=7 v=78
15516 Par ch=5 c=7 v=86
15517 Par ch=5 c=7 v=95
15518 Par ch=5 c=7 v=103
15519 Par ch=5 c=7 v=111
15520 Par ch=5 c=7 v=119
15522 Par ch=5 c=7 v=127
15523 Par ch=5 c=7 v=111
15523 Par ch=5 c=7 v=119
15525 Par ch=5 c=7 v=103
15526 Par ch=5 c=7 v=95
15527 Par ch=5 c=7 v=86
15528 Par ch=5 c=7 v=78
15529 Par ch=5 c=7 v=70
15530 Par ch=5 c=7 v=62
15532 Par ch=5 c=7 v=53
15533 Par ch=5 c=7 v=45
15534 Par ch=5 c=7 v=37
15535 Par ch=5 c=7 v=29
15536 Par ch=5 c=7 v=21
15537 Par ch=5 c=7 v=12
15538 Par ch=5 c=7 v=20
15540 On ch=5 n=62 v=0
15540 On ch=5 n=53 v=0
15540 On ch=5 n=46 v=0
15540 On ch=5 n=58 v=0
15540 On ch=5 n=58 v=40
15540 Par ch=5 c=7 v=86
15540 Par ch=5 c=7 v=95
15540 On ch=5 n=46 v=40
15540 On ch=5 n=53 v=40
15540 Par ch=5 c=7 v=78
15542 Par ch=5 c=7 v=103
15543 Par ch=5 c=7 v=111
15544 Par ch=5 c=7 v=119
15545 Par ch=5 c=7 v=127
15546 Par ch=5 c=7 v=119
15547 Par ch=5 c=7 v=111
15548 Par ch=5 c=7 v=103
15550 Par ch=5 c=7 v=95
15550 Par ch=5 c=7 v=86
15552 Par ch=5 c=7 v=78
15553 Par ch=5 c=7 v=70
15554 Par ch=5 c=7 v=62
15555 Par ch=5 c=7 v=53
15556 Par ch=5 c=7 v=45
15557 Par ch=5 c=7 v=37
15558 Par ch=5 c=7 v=29
15560 Par ch=5 c=7 v=21
15560 Par ch=5 c=7 v=12
15562 Par ch=5 c=7 v=21
15563 Par ch=5 c=7 v=29
15564 Par ch=5 c=7 v=37
15565 Par ch=5 c=7 v=45
15566 Par ch=5 c=7 v=53
15567 Par ch=5 c=7 v=62
15568 Par ch=5 c=7 v=70
15570 Par ch=5 c=7 v=78
15571 Par ch=5 c=7 v=86
15572 Par ch=5 c=7 v=95
15573 Par ch=5 c=7 v=103
15574 Par ch=5 c=7 v=111
15575 Par ch=5 c=7 v=119
15577 Par ch=5 c=7 v=127
15577 Par ch=5 c=7 v=119
15578 Par ch=5 c=7 v=111
15580 Par ch=5 c=7 v=103
15581 Par ch=5 c=7 v=95
15582 Par ch=5 c=7 v=86
15583 Par ch=5 c=7 v=78
15584 Par ch=5 c=7 v=70
15585 Par ch=5 c=7 v=62
15587 Par ch=5 c=7 v=45
15587 Par ch=5 c=7 v=53
15588 Par ch=5 c=7 v=37
15590 Par ch=5 c=7 v=29
15591 Par ch=5 c=7 v=21
15592 Par ch=5 c=7 v=12
15593 Par ch=5 c=7 v=21
15594 Par ch=5 c=7 v=29
15595 Par ch=5 c=7 v=37
15597 Par ch=5 c=7 v=45
15597 Par ch=5 c=7 v=53
15598 Par ch=5 c=7 v=62
15600 On ch=5 n=53 v=0
15600 On ch=5 n=46 v=0
15600 On ch=5 n=58 v=0
15600 On ch=5 n=46 v=40
15600 On ch=5 n=53 v=40
15600 On ch=5 n=58 v=40
15600 Par ch=5 c=7 v=70
15600 On ch=5 n=62 v=40
15601 Par ch=5 c=7 v=78
15602 Par ch=5 c=7 v=86
15603 Par ch=5 c=7 v=95
15604 Par ch=5 c=7 v=103
15605 Par ch=5 c=7 v=111
15607 Par ch=5 c=7 v=119
15608 Par ch=5 c=7 v=119
15608 Par ch=5 c=7 v=127
15610 Par ch=5 c=7 v=111
15611 Par ch=5 c=7 v=103
15612 Par ch=5 c=7 v=95
15613 Par ch=5 c=7 v=86
15614 Par ch=5 c=7 v=78
15615 Par ch=5 c=7 v=70
15617 Par ch=5 c=7 v=62
15618 Par ch=5 c=7 v=45
15618 Par ch=5 c=7 v=53
15620 Par ch=5 c=7 v=37
15621 Par ch=5 c=7 v=29
15622 Par ch=5 c=7 v=21
15623 Par ch=5 c=7 v=12
15624 Par ch=5 c=7 v=21
15625 Par ch=5 c=7 v=29
15627 Par ch=5 c=7 v=37
15628 Par ch=5 c=7 v=45
15629 Par ch=5 c=7 v=53
15630 Par ch=5 c=7 v=62
15631 Par ch=5 c=7 v=70
15632 Par ch=5 c=7 v=78
15633 Par ch=5 c=7 v=86
15634 Par ch=5 c=7 v=95
15635 Par ch=5 c=7 v=103
15637 Par ch=5 c=7 v=111
15638 Par ch=5 c=7 v=119
15639 Par ch=5 c=7 v=127
15640 Par ch=5 c=7 v=119
15641 Par ch=5 c=7 v=111
15642 Par ch=5 c=7 v=103
15643 Par ch=5 c=7 v=95
15645 Par ch=5 c=7 v=86
15645 Par ch=5 c=7 v=78
15647 Par ch=5 c=7 v=70
15648 Par ch=5 c=7 v=62
15649 Par ch=5 c=7 v=53
15650 Par ch=5 c=7 v=45
15651 Par ch=5 c=7 v=37
15652 Par ch=5 c=7 v=29
15653 Par ch=5 c=7 v=21
15655 Par ch=5 c=7 v=12
15655 Par ch=5 c=7 v=21
15657 Par ch=5 c=7 v=29
15658 Par ch=5 c=7 v=37
15659 Par ch=5 c=7 v=45
15660 On ch=5 n=62 v=0
15660 On ch=5 n=46 v=0
15660 On ch=5 n=53 v=0
15660 On ch=5 n=58 v=0
15660 On ch=5 n=46 v=40
15660 On ch=5 n=58 v=40
15660 Par ch=5 c=7 v=86
15660 Par ch=5 c=7 v=78
15660 On ch=5 n=53 v=40
15661 Par ch=5 c=7 v=95
15662 Par ch=5 c=7 v=103
15663 Par ch=5 c=7 v=111
15665 Par ch=5 c=7 v=119
15666 Par ch=5 c=7 v=127
15667 Par ch=5 c=7 v=119
15668 Par ch=5 c=7 v=111
15669 Par ch=5 c=7 v=103
15670 Par ch=5 c=7 v=95
15671 Par ch=5 c=7 v=86
15672 Par ch=5 c=7 v=78
15673 Par ch=5 c=7 v=70
15675 Par ch=5 c=7 v=62
15676 Par ch=5 c=7 v=53
15677 Par ch=5 c=7 v=45
15678 Par ch=5 c=7 v=37
15679 Par ch=5 c=7 v=29
15680 Par ch=5 c=7 v=21
15682 Par ch=5 c=7 v=21
15682 Par ch=5 c=7 v=12
15683 Par ch=5 c=7 v=29
15685 Par ch=5 c=7 v=37
15686 Par ch=5 c=7 v=45
15687 Par ch=5 c=7 v=53
15688 Par ch=5 c=7 v=62
15689 Par ch=5 c=7 v=70
15690 Par ch=5 c=7 v=78
15692 Par ch=5 c=7 v=95
15692 Par ch=5 c=7 v=86
15693 Par ch=5 c=7 v=103
15695 Par ch=5 c=7 v=111
15696 Par ch=5 c=7 v=119
15697 Par ch=5 c=7 v=127
15698 Par ch=5 c=7 v=119
15699 Par ch=5 c=7 v=111
15700 Par ch=5 c=7 v=103
15702 Par ch=5 c=7 v=95
15703 Par ch=5 c=7 v=86
15703 Par ch=5 c=7 v=78
15705 Par ch=5 c=7 v=70
15706 Par ch=5 c=7 v=62
15707 Par ch=5 c=7 v=53
15708 Par ch=5 c=7 v=45
15709 Par ch=5 c=7 v=37
15710 Par ch=5 c=7 v=29
15712 Par ch=5 c=7 v=21
15713 Par ch=5 c=7 v=21
15713 Par ch=5 c=7 v=12
15715 Par ch=5 c=7 v=29
15716 Par ch=5 c=7 v=37
15717 Par ch=5 c=7 v=45
15718 Par ch=5 c=7 v=53
15719 Par ch=5 c=7 v=86
15719 Par ch=5 c=7 v=78
15720 On ch=5 n=53 v=0
15720 On ch=5 n=58 v=0
15720 On ch=5 n=46 v=0
15720 On ch=5 n=62 v=40
15720 On ch=5 n=46 v=40
15720 Par ch=5 c=7 v=95
15720 On ch=5 n=53 v=40
15720 On ch=5 n=58 v=40
15721 Par ch=5 c=7 v=103
15723 Par ch=5 c=7 v=111
15724 Par ch=5 c=7 v=119
15725 Par ch=5 c=7 v=127
15726 Par ch=5 c=7 v=119
15727 Par ch=5 c=7 v=111
15728 Par ch=5 c=7 v=103
15729 Par ch=5 c=7 v=95
15730 Par ch=5 c=7 v=86
15732 Par ch=5 c=7 v=78
15733 Par ch=5 c=7 v=70
15734 Par ch=5 c=7 v=62
15735 Par ch=5 c=7 v=53
15736 Par ch=5 c=7 v=45
15737 Par ch=5 c=7 v=37
15738 Par ch=5 c=7 v=29
15740 Par ch=5 c=7 v=21
15740 Par ch=5 c=7 v=12
15742 Par ch=5 c=7 v=21
15743 Par ch=5 c=7 v=29
15744 Par ch=5 c=7 v=37
15745 Par ch=5 c=7 v=45
15746 Par ch=5 c=7 v=53
15747 Par ch=5 c=7 v=62
15748 Par ch=5 c=7 v=70
15750 Par ch=5 c=7 v=86
15750 Par ch=5 c=7 v=78
15751 Par ch=5 c=7 v=95
15753 Par ch=5 c=7 v=103
15754 Par ch=5 c=7 v=111
15755 Par ch=5 c=7 v=119
15756 Par ch=5 c=7 v=127
15757 Par ch=5 c=7 v=119
15758 Par ch=5 c=7 v=111
15760 Par ch=5 c=7 v=103
15761 Par ch=5 c=7 v=95
15762 Par ch=5 c=7 v=86
15763 Par ch=5 c=7 v=78
15764 Par ch=5 c=7 v=70
15765 Par ch=5 c=7 v=62
15766 Par ch=5 c=7 v=53
15767 Par ch=5 c=7 v=45
15768 Par ch=5 c=7 v=37
15770 Par ch=5 c=7 v=29
15771 Par ch=5 c=7 v=21
15772 Par ch=5 c=7 v=12
15773 Par ch=5 c=7 v=21
15774 Par ch=5 c=7 v=29
15775 Par ch=5 c=7 v=37
15777 Par ch=5 c=7 v=45
15777 Par ch=5 c=7 v=53
15778 Par ch=5 c=7 v=62
15780 On ch=5 n=58 v=0
15780 On ch=5 n=62 v=0
15780 On ch=5 n=46 v=0
15780 On ch=5 n=53 v=0
15780 On ch=5 n=58 v=40
15780 On ch=5 n=46 v=40
15780 Par ch=5 c=7 v=70
15780 On ch=5 n=53 v=40
15781 Par ch=5 c=7 v=78
15781 Par ch=5 c=7 v=86
15783 Par ch=5 c=7 v=95
15784 Par ch=5 c=7 v=103
15785 Par ch=5 c=7 v=111
15787 Par ch=5 c=7 v=127
15787 Par ch=5 c=7 v=119
15788 Par ch=5 c=7 v=119
15790 Par ch=5 c=7 v=111
15791 Par ch=5 c=7 v=103
15792 Par ch=5 c=7 v=95
15793 Par ch=5 c=7 v=86
15794 Par ch=5 c=7 v=78
15795 Par ch=5 c=7 v=70
15796 Par ch=5 c=7 v=62
15798 Par ch=5 c=7 v=45
15798 Par ch=5 c=7 v=53
15800 Par ch=5 c=7 v=37
15801 Par ch=5 c=7 v=29
15802 Par ch=5 c=7 v=21
15803 Par ch=5 c=7 v=12
15804 Par ch=5 c=7 v=21
15805 Par ch=5 c=7 v=29
15807 Par ch=5 c=7 v=37
15808 Par ch=5 c=7 v=53
15808 Par ch=5 c=7 v=45
15810 Par ch=5 c=7 v=62
15811 Par ch=5 c=7 v=70
15812 Par ch=5 c=7 v=78
15813 Par ch=5 c=7 v=86
15814 Par ch=5 c=7 v=95
15815 Par ch=5 c=7 v=103
15817 Par ch=5 c=7 v=111
15818 Par ch=5 c=7 v=127
15818 Par ch=5 c=7 v=119
15820 Par ch=5 c=7 v=119
15821 Par ch=5 c=7 v=111
15822 Par ch=5 c=7 v=103
15823 Par ch=5 c=7 v=95
15824 Par ch=5 c=7 v=86
15825 Par ch=5 c=7 v=78
15826 Par ch=5 c=7 v=70
15828 Par ch=5 c=7 v=62
15829 Par ch=5 c=7 v=53
15830 Par ch=5 c=7 v=45
15831 Par ch=5 c=7 v=37
15832 Par ch=5 c=7 v=29
15833 Par ch=5 c=7 v=21
15835 Par ch=5 c=7 v=21
15835 Par ch=5 c=7 v=12
15837 Par ch=5 c=7 v=29
15838 Par ch=5 c=7 v=37
15839 Par ch=5 c=7 v=45
15840 On ch=5 n=53 v=0
15840 On ch=5 n=46 v=0
15840 On ch=5 n=58 v=0
15840 On ch=5 n=57 v=40
15840 On ch=5 n=53 v=40
15840 On ch=5 n=65 v=40
15840 On ch=5 n=60 v=40
15900 On ch=5 n=60 v=0
15900 On ch=5 n=57 v=0
15900 On ch=5 n=53 v=0
15900 On ch=5 n=65 v=0
15900 On ch=5 n=53 v=40
15900 On ch=5 n=57 v=40
15900 On ch=5 n=60 v=40
15900 Par ch=5 c=7 v=78
15900 Par ch=5 c=7 v=70
15902 Par ch=5 c=7 v=86
15903 Par ch=5 c=7 v=95
15904 Par ch=5 c=7 v=103
15905 Par ch=5 c=7 v=111
15906 Par ch=5 c=7 v=119
15907 Par ch=5 c=7 v=127
15908 Par ch=5 c=7 v=119
15910 Par ch=5 c=7 v=111
15910 Par ch=5 c=7 v=103
15912 Par ch=5 c=7 v=95
15913 Par ch=5 c=7 v=86
15914 Par ch=5 c=7 v=78
15915 Par ch=5 c=7 v=70
15916 Par ch=5 c=7 v=62
15917 Par ch=5 c=7 v=53
15918 Par ch=5 c=7 v=45
15920 Par ch=5 c=7 v=37
15921 Par ch=5 c=7 v=29
15922 Par ch=5 c=7 v=21
15923 Par ch=5 c=7 v=12
15924 Par ch=5 c=7 v=21
15925 Par ch=5 c=7 v=29
15926 Par ch=5 c=7 v=37
15927 Par ch=5 c=7 v=45
15928 Par ch=5 c=7 v=53
15930 Par ch=5 c=7 v=62
15931 Par ch=5 c=7 v=70
15932 Par ch=5 c=7 v=78
15933 Par ch=5 c=7 v=86
15934 Par ch=5 c=7 v=95
15935 Par ch=5 c=7 v=103
15937 Par ch=5 c=7 v=119
15937 Par ch=5 c=7 v=111
15938 Par ch=5 c=7 v=127
15940 Par ch=5 c=7 v=119
15941 Par ch=5 c=7 v=111
15942 Par ch=5 c=7 v=103
15943 Par ch=5 c=7 v=95
15944 Par ch=5 c=7 v=86
15945 Par ch=5 c=7 v=78
15947 Par ch=5 c=7 v=62
15947 Par ch=5 c=7 v=70
15948 Par ch=5 c=7 v=53
15950 Par ch=5 c=7 v=45
15951 Par ch=5 c=7 v=37
15952 Par ch=5 c=7 v=29
15953 Par ch=5 c=7 v=21
15954 Par ch=5 c=7 v=12
15955 Par ch=5 c=7 v=21
15957 Par ch=5 c=7 v=29
15958 Par ch=5 c=7 v=37
15958 Par ch=5 c=7 v=45
15960 On ch=5 n=60 v=0
15960 On ch=5 n=57 v=0
15960 On ch=5 n=53 v=0
15960 On ch=5 n=65 v=40
15960 On ch=5 n=60 v=40
15960 Par ch=5 c=7 v=53
15960 On ch=5 n=57 v=40
15960 On ch=5 n=53 v=40
15961 Par ch=5 c=7 v=62
15962 Par ch=5 c=7 v=70
15963 Par ch=5 c=7 v=78
15964 Par ch=5 c=7 v=86
15965 Par ch=5 c=7 v=95
15967 Par ch=5 c=7 v=103
15968 Par ch=5 c=7 v=111
15968 Par ch=5 c=7 v=119
15970 Par ch=5 c=7 v=127
15971 Par ch=5 c=7 v=119
15972 Par ch=5 c=7 v=111
15973 Par ch=5 c=7 v=103
15974 Par ch=5 c=7 v=95
15975 Par ch=5 c=7 v=86
15977 Par ch=5 c=7 v=78
15978 Par ch=5 c=7 v=70
15978 Par ch=5 c=7 v=62
15980 Par ch=5 c=7 v=53
15981 Par ch=5 c=7 v=45
15982 Par ch=5 c=7 v=37
15983 Par ch=5 c=7 v=29
15984 Par ch=5 c=7 v=21
15985 Par ch=5 c=7 v=12
15987 Par ch=5 c=7 v=20
15988 Par ch=5 c=7 v=29
15989 Par ch=5 c=7 v=37
15990 Par ch=5 c=7 v=45
15991 Par ch=5 c=7 v=53
15992 Par ch=5 c=7 v=62
15993 Par ch=5 c=7 v=70
15995 Par ch=5 c=7 v=78
15995 Par ch=5 c=7 v=86
15997 Par ch=5 c=7 v=95
15998 Par ch=5 c=7 v=103
15999 Par ch=5 c=7 v=111
16000 Par ch=5 c=7 v=119
16001 Par ch=5 c=7 v=127
16002 Par ch=5 c=7 v=119
16003 Par ch=5 c=7 v=111
16005 Par ch=5 c=7 v=103
16005 Par ch=5 c=7 v=95
16007 Par ch=5 c=7 v=86
16008 Par ch=5 c=7 v=78
16009 Par ch=5 c=7 v=70
16010 Par ch=5 c=7 v=62
16011 Par ch=5 c=7 v=53
16012 Par ch=5 c=7 v=45
16013 Par ch=5 c=7 v=37
16015 Par ch=5 c=7 v=21
16015 Par ch=5 c=7 v=29
16017 Par ch=5 c=7 v=12
16018 Par ch=5 c=7 v=20
16019 Par ch=5 c=7 v=29
16020 On ch=5 n=53 v=0
16020 On ch=5 n=65 v=0
16020 On ch=5 n=60 v=0
16020 On ch=5 n=57 v=0
16020 Par ch=5 c=7 v=78
16020 On ch=5 n=53 v=40
16020 Par ch=5 c=7 v=86
16020 On ch=5 n=60 v=40
16020 On ch=5 n=57 v=40
16021 Par ch=5 c=7 v=95
16022 Par ch=5 c=7 v=103
16023 Par ch=5 c=7 v=111
16025 Par ch=5 c=7 v=119
16026 Par ch=5 c=7 v=127
16027 Par ch=5 c=7 v=119
16028 Par ch=5 c=7 v=111
16029 Par ch=5 c=7 v=103
16030 Par ch=5 c=7 v=95
16032 Par ch=5 c=7 v=78
16032 Par ch=5 c=7 v=86
16033 Par ch=5 c=7 v=70
16035 Par ch=5 c=7 v=62
16036 Par ch=5 c=7 v=53
16037 Par ch=5 c=7 v=45
16038 Par ch=5 c=7 v=37
16039 Par ch=5 c=7 v=29
16040 Par ch=5 c=7 v=21
16042 Par ch=5 c=7 v=12
16042 Par ch=5 c=7 v=21
16043 Par ch=5 c=7 v=29
16045 Par ch=5 c=7 v=37
16046 Par ch=5 c=7 v=45
16047 Par ch=5 c=7 v=53
16048 Par ch=5 c=7 v=62
16049 Par ch=5 c=7 v=70
16050 Par ch=5 c=7 v=78
16052 Par ch=5 c=7 v=95
16052 Par ch=5 c=7 v=86
16053 Par ch=5 c=7 v=103
16055 Par ch=5 c=7 v=111
16056 Par ch=5 c=7 v=119
16057 Par ch=5 c=7 v=127
16058 Par ch=5 c=7 v=119
16059 Par ch=5 c=7 v=111
16060 Par ch=5 c=7 v=103
16062 Par ch=5 c=7 v=95
16063 Par ch=5 c=7 v=86
16063 Par ch=5 c=7 v=78
16065 Par ch=5 c=7 v=70
16066 Par ch=5 c=7 v=62
16067 Par ch=5 c=7 v=53
16068 Par ch=5 c=7 v=45
16069 Par ch=5 c=7 v=37
16070 Par ch=5 c=7 v=29
16072 Par ch=5 c=7 v=21
16073 Par ch=5 c=7 v=12
16073 Par ch=5 c=7 v=21
16075 Par ch=5 c=7 v=29
16076 Par ch=5 c=7 v=37
16077 Par ch=5 c=7 v=45
16078 Par ch=5 c=7 v=53
16079 Par ch=5 c=7 v=62
16080 On ch=5 n=57 v=0
16080 On ch=5 n=60 v=0
16080 On ch=5 n=53 v=0
16080 On ch=5 n=60 v=40
16080 On ch=5 n=53 v=40
16080 On ch=5 n=57 v=40
16080 Par ch=5 c=7 v=70
16080 On ch=5 n=65 v=40
16082 Par ch=5 c=7 v=78
16083 Par ch=5 c=7 v=86
16084 Par ch=5 c=7 v=95
16085 Par ch=5 c=7 v=103
16086 Par ch=5 c=7 v=111
16087 Par ch=5 c=7 v=119
16088 Par ch=5 c=7 v=127
16089 Par ch=5 c=7 v=119
16090 Par ch=5 c=7 v=111
16091 Par ch=5 c=7 v=103
16093 Par ch=5 c=7 v=95
16094 Par ch=5 c=7 v=86
16095 Par ch=5 c=7 v=78
16096 Par ch=5 c=7 v=70
16097 Par ch=5 c=7 v=62
16098 Par ch=5 c=7 v=53
16100 Par ch=5 c=7 v=45
16100 Par ch=5 c=7 v=37
16102 Par ch=5 c=7 v=29
16103 Par ch=5 c=7 v=21
16104 Par ch=5 c=7 v=12
16105 Par ch=5 c=7 v=21
16106 Par ch=5 c=7 v=29
16107 Par ch=5 c=7 v=37
16108 Par ch=5 c=7 v=45
16110 Par ch=5 c=7 v=53
16110 Par ch=5 c=7 v=62
16112 Par ch=5 c=7 v=70
16113 Par ch=5 c=7 v=78
16114 Par ch=5 c=7 v=86
16115 Par ch=5 c=7 v=95
16116 Par ch=5 c=7 v=103
16117 Par ch=5 c=7 v=111
16118 Par ch=5 c=7 v=119
16120 Par ch=5 c=7 v=127
16121 Par ch=5 c=7 v=119
16122 Par ch=5 c=7 v=111
16123 Par ch=5 c=7 v=103
16124 Par ch=5 c=7 v=95
16125 Par ch=5 c=7 v=86
16126 Par ch=5 c=7 v=78
16127 Par ch=5 c=7 v=70
16128 Par ch=5 c=7 v=62
16130 Par ch=5 c=7 v=53
16131 Par ch=5 c=7 v=45
16132 Par ch=5 c=7 v=37
16133 Par ch=5 c=7 v=29
16134 Par ch=5 c=7 v=21
16135 Par ch=5 c=7 v=12
16137 Par ch=5 c=7 v=29
16137 Par ch=5 c=7 v=21
16138 Par ch=5 c=7 v=37
16140 On ch=5 n=65 v=0
16140 On ch=5 n=60 v=0
16140 On ch=5 n=53 v=0
16140 On ch=5 n=57 v=0
16140 On ch=5 n=57 v=40
16140 Par ch=5 c=7 v=45
16140 On ch=5 n=60 v=40
16140 On ch=5 n=53 v=40
16141 Par ch=5 c=7 v=53
16142 Par ch=5 c=7 v=62
16143 Par ch=5 c=7 v=70
16144 Par ch=5 c=7 v=78
16145 Par ch=5 c=7 v=86
16147 Par ch=5 c=7 v=95
16147 Par ch=5 c=7 v=103
16148 Par ch=5 c=7 v=111
16150 Par ch=5 c=7 v=119
16151 Par ch=5 c=7 v=127
16152 Par ch=5 c=7 v=119
16153 Par ch=5 c=7 v=111
16154 Par ch=5 c=7 v=103
16155 Par ch=5 c=7 v=95
16157 Par ch=5 c=7 v=86
16158 Par ch=5 c=7 v=70
16158 Par ch=5 c=7 v=78
16160 Par ch=5 c=7 v=62
16161 Par ch=5 c=7 v=53
16162 Par ch=5 c=7 v=45
16163 Par ch=5 c=7 v=37
16164 Par ch=5 c=7 v=29
16165 Par ch=5 c=7 v=21
16167 Par ch=5 c=7 v=12
16168 Par ch=5 c=7 v=29
16168 Par ch=5 c=7 v=20
16170 Par ch=5 c=7 v=37
16171 Par ch=5 c=7 v=45
16172 Par ch=5 c=7 v=53
16173 Par ch=5 c=7 v=62
16174 Par ch=5 c=7 v=70
16175 Par ch=5 c=7 v=78
16177 Par ch=5 c=7 v=86
16178 Par ch=5 c=7 v=95
16179 Par ch=5 c=7 v=103
16180 Par ch=5 c=7 v=111
16181 Par ch=5 c=7 v=119
16182 Par ch=5 c=7 v=127
16183 Par ch=5 c=7 v=119
16184 Par ch=5 c=7 v=111
16185 Par ch=5 c=7 v=103
16187 Par ch=5 c=7 v=95
16188 Par ch=5 c=7 v=86
16189 Par ch=5 c=7 v=78
16190 Par ch=5 c=7 v=70
16191 Par ch=5 c=7 v=62
16192 Par ch=5 c=7 v=53
16193 Par ch=5 c=7 v=45
16195 Par ch=5 c=7 v=29
16195 Par ch=5 c=7 v=37
16197 Par ch=5 c=7 v=21
16198 Par ch=5 c=7 v=12
16199 Par ch=5 c=7 v=20
16200 On ch=5 n=53 v=0
16200 On ch=5 n=60 v=0
16200 On ch=5 n=57 v=0
16200 On ch=5 n=60 v=40
16200 On ch=5 n=57 v=40
16200 On ch=5 n=65 v=40
16200 Par ch=5 c=7 v=29
16200 On ch=5 n=53 v=40
16201 Par ch=5 c=7 v=37
16202 Par ch=5 c=7 v=45
16203 Par ch=5 c=7 v=53
16205 Par ch=5 c=7 v=62
16205 Par ch=5 c=7 v=70
16207 Par ch=5 c=7 v=78
16208 Par ch=5 c=7 v=86
16209 Par ch=5 c=7 v=95
16210 Par ch=5 c=7 v=103
16211 Par ch=5 c=7 v=111
16212 Par ch=5 c=7 v=119
16213 Par ch=5 c=7 v=127
16215 Par ch=5 c=7 v=119
16216 Par ch=5 c=7 v=111
16217 Par ch=5 c=7 v=103
16218 Par ch=5 c=7 v=95
16219 Par ch=5 c=7 v=86
16220 Par ch=5 c=7 v=78
16221 Par ch=5 c=7 v=70
16222 Par ch=5 c=7 v=62
16223 Par ch=5 c=7 v=53
16225 Par ch=5 c=7 v=45
16226 Par ch=5 c=7 v=37
16227 Par ch=5 c=7 v=29
16228 Par ch=5 c=7 v=21
16229 Par ch=5 c=7 v=12
16230 Par ch=5 c=7 v=20
16232 Par ch=5 c=7 v=37
16232 Par ch=5 c=7 v=29
16233 Par ch=5 c=7 v=45
16235 Par ch=5 c=7 v=53
16236 Par ch=5 c=7 v=62
16237 Par ch=5 c=7 v=70
16238 Par ch=5 c=7 v=78
16239 Par ch=5 c=7 v=86
16240 Par ch=5 c=7 v=95
16242 Par ch=5 c=7 v=111
16242 Par ch=5 c=7 v=103
16243 Par ch=5 c=7 v=119
16245 Par ch=5 c=7 v=127
16246 Par ch=5 c=7 v=119
16247 Par ch=5 c=7 v=111
16248 Par ch=5 c=7 v=103
16249 Par ch=5 c=7 v=95
16250 Par ch=5 c=7 v=86
16252 Par ch=5 c=7 v=78
16253 Par ch=5 c=7 v=70
16253 Par ch=5 c=7 v=62
16255 Par ch=5 c=7 v=53
16256 Par ch=5 c=7 v=45
16257 Par ch=5 c=7 v=37
16258 Par ch=5 c=7 v=29
16259 Par ch=5 c=7 v=21
16260 On ch=5 n=53 v=0
16260 On ch=5 n=60 v=0
16260 On ch=5 n=57 v=0
16260 On ch=5 n=65 v=0
16260 On ch=5 n=53 v=40
16260 Par ch=5 c=7 v=12
16260 On ch=5 n=57 v=40
16260 On ch=5 n=60 v=40
16262 Par ch=5 c=7 v=20
16263 Par ch=5 c=7 v=37
16263 Par ch=5 c=7 v=29
16265 Par ch=5 c=7 v=45
16266 Par ch=5 c=7 v=53
16267 Par ch=5 c=7 v=62
16268 Par ch=5 c=7 v=70
16269 Par ch=5 c=7 v=78
16270 Par ch=5 c=7 v=86
16272 Par ch=5 c=7 v=95
16273 Par ch=5 c=7 v=103
16274 Par ch=5 c=7 v=111
16275 Par ch=5 c=7 v=119
16276 Par ch=5 c=7 v=127
16277 Par ch=5 c=7 v=119
16278 Par ch=5 c=7 v=111
16279 Par ch=5 c=7 v=103
16280 Par ch=5 c=7 v=95
16282 Par ch=5 c=7 v=86
16283 Par ch=5 c=7 v=78
16284 Par ch=5 c=7 v=70
16285 Par ch=5 c=7 v=62
16286 Par ch=5 c=7 v=54
16287 Par ch=5 c=7 v=45
16288 Par ch=5 c=7 v=37
16290 Par ch=5 c=7 v=29
16290 Par ch=5 c=7 v=21
16291 Par ch=5 c=7 v=12
16293 Par ch=5 c=7 v=20
16294 Par ch=5 c=7 v=29
16295 Par ch=5 c=7 v=37
16296 Par ch=5 c=7 v=45
16297 Par ch=5 c=7 v=53
16298 Par ch=5 c=7 v=62
16300 Par ch=5 c=7 v=78
16300 Par ch=5 c=7 v=70
16302 Par ch=5 c=7 v=86
16303 Par ch=5 c=7 v=95
16304 Par ch=5 c=7 v=103
16305 Par ch=5 c=7 v=111
16306 Par ch=5 c=7 v=119
16307 Par ch=5 c=7 v=127
16308 Par ch=5 c=7 v=119
16310 Par ch=5 c=7 v=111
16311 Par ch=5 c=7 v=103
16312 Par ch=5 c=7 v=95
16313 Par ch=5 c=7 v=86
16314 Par ch=5 c=7 v=78
16315 Par ch=5 c=7 v=70
16316 Par ch=5 c=7 v=62
16317 Par ch=5 c=7 v=54
16318 Par ch=5 c=7 v=45
16320 On ch=5 n=60 v=0
16320 On ch=5 n=57 v=0
16320 On ch=5 n=53 v=0
16320 On ch=5 n=60 v=40
16320 Par ch=5 c=7 v=86
16320 On ch=5 n=52 v=40
16320 Par ch=5 c=7 v=78
16320 On ch=5 n=64 v=40
16320 On ch=5 n=55 v=40
16321 Par ch=5 c=7 v=103
16321 Par ch=5 c=7 v=95
16323 Par ch=5 c=7 v=111
16324 Par ch=5 c=7 v=119
16325 Par ch=5 c=7 v=127
16327 Par ch=5 c=7 v=111
16327 Par ch=5 c=7 v=119
16328 Par ch=5 c=7 v=103
16330 Par ch=5 c=7 v=95
16331 Par ch=5 c=7 v=86
16332 Par ch=5 c=7 v=78
16333 Par ch=5 c=7 v=70
16334 Par ch=5 c=7 v=62
16335 Par ch=5 c=7 v=53
16336 Par ch=5 c=7 v=45
16337 Par ch=5 c=7 v=37
16338 Par ch=5 c=7 v=29
16340 Par ch=5 c=7 v=21
16341 Par ch=5 c=7 v=12
16342 Par ch=5 c=7 v=21
16343 Par ch=5 c=7 v=29
16344 Par ch=5 c=7 v=37
16345 Par ch=5 c=7 v=45
16347 Par ch=5 c=7 v=53
16348 Par ch=5 c=7 v=70
16348 Par ch=5 c=7 v=62
16350 Par ch=5 c=7 v=78
16351 Par ch=5 c=7 v=86
16352 Par ch=5 c=7 v=95
16353 Par ch=5 c=7 v=103
16354 Par ch=5 c=7 v=111
16355 Par ch=5 c=7 v=119
16357 Par ch=5 c=7 v=127
16358 Par ch=5 c=7 v=111
16358 Par ch=5 c=7 v=119
16360 Par ch=5 c=7 v=103
16361 Par ch=5 c=7 v=95
16362 Par ch=5 c=7 v=86
16363 Par ch=5 c=7 v=78
16364 Par ch=5 c=7 v=70
16365 Par ch=5 c=7 v=62
16367 Par ch=5 c=7 v=53
16368 Par ch=5 c=7 v=37
16368 Par ch=5 c=7 v=45
16370 Par ch=5 c=7 v=29
16371 Par ch=5 c=7 v=21
16372 Par ch=5 c=7 v=12
16373 Par ch=5 c=7 v=21
16374 Par ch=5 c=7 v=29
16375 Par ch=5 c=7 v=37
16377 Par ch=5 c=7 v=45
16378 Par ch=5 c=7 v=53
16379 Par ch=5 c=7 v=62
16380 On ch=5 n=55 v=0
16380 On ch=5 n=60 v=0
16380 On ch=5 n=52 v=0
16380 On ch=5 n=64 v=0
16380 On ch=5 n=55 v=40
16380 Par ch=5 c=7 v=70
16380 On ch=5 n=60 v=40
16380 On ch=5 n=52 v=40
16381 Par ch=5 c=7 v=78
16382 Par ch=5 c=7 v=86
16383 Par ch=5 c=7 v=95
16385 Par ch=5 c=7 v=111
16385 Par ch=5 c=7 v=103
16387 Par ch=5 c=7 v=119
16388 Par ch=5 c=7 v=127
16389 Par ch=5 c=7 v=119
16390 Par ch=5 c=7 v=111
16391 Par ch=5 c=7 v=103
16392 Par ch=5 c=7 v=95
16393 Par ch=5 c=7 v=86
16395 Par ch=5 c=7 v=70
16395 Par ch=5 c=7 v=78
16397 Par ch=5 c=7 v=62
16398 Par ch=5 c=7 v=53
16399 Par ch=5 c=7 v=45
16400 Par ch=5 c=7 v=37
16401 Par ch=5 c=7 v=29
16402 Par ch=5 c=7 v=21
16403 Par ch=5 c=7 v=12
16405 Par ch=5 c=7 v=21
16405 Par ch=5 c=7 v=29
16407 Par ch=5 c=7 v=37
16408 Par ch=5 c=7 v=45
16409 Par ch=5 c=7 v=53
16410 Par ch=5 c=7 v=62
16411 Par ch=5 c=7 v=70
16412 Par ch=5 c=7 v=78
16413 Par ch=5 c=7 v=86
16415 Par ch=5 c=7 v=95
16416 Par ch=5 c=7 v=103
16417 Par ch=5 c=7 v=111
16418 Par ch=5 c=7 v=119
16419 Par ch=5 c=7 v=127
16420 Par ch=5 c=7 v=119
16422 Par ch=5 c=7 v=103
16422 Par ch=5 c=7 v=111
16423 Par ch=5 c=7 v=95
16425 Par ch=5 c=7 v=86
16426 Par ch=5 c=7 v=78
16427 Par ch=5 c=7 v=70
16428 Par ch=5 c=7 v=62
16429 Par ch=5 c=7 v=53
16430 Par ch=5 c=7 v=45
16432 Par ch=5 c=7 v=37
16432 Par ch=5 c=7 v=29
16433 Par ch=5 c=7 v=21
16435 Par ch=5 c=7 v=12
16436 Par ch=5 c=7 v=21
16437 Par ch=5 c=7 v=29
16438 Par ch=5 c=7 v=37
16439 Par ch=5 c=7 v=45
16440 On ch=5 n=52 v=0
16440 On ch=5 n=60 v=0
16440 On ch=5 n=55 v=0
16440 On ch=5 n=52 v=40
16440 On ch=5 n=64 v=40
16440 On ch=5 n=55 v=40
16440 On ch=5 n=60 v=40
16440 Par ch=5 c=7 v=53
16442 Par ch=5 c=7 v=70
16442 Par ch=5 c=7 v=62
16443 Par ch=5 c=7 v=78
16445 Par ch=5 c=7 v=86
16446 Par ch=5 c=7 v=95
16447 Par ch=5 c=7 v=103
16448 Par ch=5 c=7 v=111
16449 Par ch=5 c=7 v=119
16450 Par ch=5 c=7 v=127
16452 Par ch=5 c=7 v=119
16453 Par ch=5 c=7 v=103
16453 Par ch=5 c=7 v=111
16455 Par ch=5 c=7 v=95
16456 Par ch=5 c=7 v=86
16457 Par ch=5 c=7 v=78
16458 Par ch=5 c=7 v=70
16459 Par ch=5 c=7 v=62
16460 Par ch=5 c=7 v=53
16462 Par ch=5 c=7 v=45
16463 Par ch=5 c=7 v=37
16463 Par ch=5 c=7 v=29
16465 Par ch=5 c=7 v=21
16466 Par ch=5 c=7 v=12
16467 Par ch=5 c=7 v=20
16468 Par ch=5 c=7 v=29
16469 Par ch=5 c=7 v=37
16470 Par ch=5 c=7 v=45
16472 Par ch=5 c=7 v=53
16473 Par ch=5 c=7 v=62
16474 Par ch=5 c=7 v=70
16475 Par ch=5 c=7 v=78
16476 Par ch=5 c=7 v=86
16477 Par ch=5 c=7 v=95
16478 Par ch=5 c=7 v=103
16479 Par ch=5 c=7 v=111
16480 Par ch=5 c=7 v=119
16482 Par ch=5 c=7 v=127
16483 Par ch=5 c=7 v=119
16484 Par ch=5 c=7 v=111
16485 Par ch=5 c=7 v=103
16486 Par ch=5 c=7 v=95
16487 Par ch=5 c=7 v=86
16488 Par ch=5 c=7 v=78
16490 Par ch=5 c=7 v=62
16490 Par ch=5 c=7 v=70
16492 Par ch=5 c=7 v=53
16493 Par ch=5 c=7 v=45
16494 Par ch=5 c=7 v=37
16495 Par ch=5 c=7 v=29
16496 Par ch=5 c=7 v=21
16497 Par ch=5 c=7 v=12
16498 Par ch=5 c=7 v=20
16500 On ch=5 n=60 v=0
16500 On ch=5 n=52 v=0
16500 On ch=5 n=64 v=0
16500 On ch=5 n=55 v=0
16500 Par ch=5 c=7 v=95
16500 On ch=5 n=52 v=40
16500 On ch=5 n=60 v=40
16500 On ch=5 n=55 v=40
16500 Par ch=5 c=7 v=86
16500 Par ch=5 c=7 v=78
16502 Par ch=5 c=7 v=103
16503 Par ch=5 c=7 v=111
16504 Par ch=5 c=7 v=119
16505 Par ch=5 c=7 v=127
16506 Par ch=5 c=7 v=119
16507 Par ch=5 c=7 v=111
16508 Par ch=5 c=7 v=103
16510 Par ch=5 c=7 v=95
16511 Par ch=5 c=7 v=86
16512 Par ch=5 c=7 v=78
16513 Par ch=5 c=7 v=70
16514 Par ch=5 c=7 v=62
16515 Par ch=5 c=7 v=53
16516 Par ch=5 c=7 v=45
16517 Par ch=5 c=7 v=37
16518 Par ch=5 c=7 v=29
16520 Par ch=5 c=7 v=21
16521 Par ch=5 c=7 v=12
16522 Par ch=5 c=7 v=21
16523 Par ch=5 c=7 v=29
16524 Par ch=5 c=7 v=37
16525 Par ch=5 c=7 v=45
16527 Par ch=5 c=7 v=62
16527 Par ch=5 c=7 v=53
16528 Par ch=5 c=7 v=70
16530 Par ch=5 c=7 v=78
16531 Par ch=5 c=7 v=86
16532 Par ch=5 c=7 v=95
16533 Par ch=5 c=7 v=103
16534 Par ch=5 c=7 v=111
16535 Par ch=5 c=7 v=119
16537 Par ch=5 c=7 v=119
16537 Par ch=5 c=7 v=127
16538 Par ch=5 c=7 v=111
16540 Par ch=5 c=7 v=103
16541 Par ch=5 c=7 v=95
16542 Par ch=5 c=7 v=86
16543 Par ch=5 c=7 v=78
16544 Par ch=5 c=7 v=70
16545 Par ch=5 c=7 v=62
16547 Par ch=5 c=7 v=53
16548 Par ch=5 c=7 v=37
16548 Par ch=5 c=7 v=45
16550 Par ch=5 c=7 v=29
16551 Par ch=5 c=7 v=21
16552 Par ch=5 c=7 v=12
16553 Par ch=5 c=7 v=21
16554 Par ch=5 c=7 v=29
16555 Par ch=5 c=7 v=37
16557 Par ch=5 c=7 v=45
16558 Par ch=5 c=7 v=53
16558 Par ch=5 c=7 v=62
16560 On ch=5 n=55 v=0
16560 On ch=5 n=60 v=0
16560 On ch=5 n=52 v=0
16560 On ch=5 n=55 v=40
16560 Par ch=5 c=7 v=70
16560 On ch=5 n=60 v=40
16560 On ch=5 n=64 v=40
16560 On ch=5 n=52 v=40
16561 Par ch=5 c=7 v=78
16562 Par ch=5 c=7 v=86
16563 Par ch=5 c=7 v=95
16564 Par ch=5 c=7 v=103
16565 Par ch=5 c=7 v=111
16567 Par ch=5 c=7 v=119
16568 Par ch=5 c=7 v=127
16569 Par ch=5 c=7 v=119
16570 Par ch=5 c=7 v=111
16571 Par ch=5 c=7 v=103
16572 Par ch=5 c=7 v=95
16573 Par ch=5 c=7 v=86
16574 Par ch=5 c=7 v=78
16575 Par ch=5 c=7 v=70
16577 Par ch=5 c=7 v=62
16578 Par ch=5 c=7 v=53
16579 Par ch=5 c=7 v=45
16580 Par ch=5 c=7 v=37
16581 Par ch=5 c=7 v=29
16582 Par ch=5 c=7 v=21
16583 Par ch=5 c=7 v=12
16585 Par ch=5 c=7 v=29
16585 Par ch=5 c=7 v=21
16587 Par ch=5 c=7 v=37
16588 Par ch=5 c=7 v=45
16589 Par ch=5 c=7 v=53
16590 Par ch=5 c=7 v=62
16591 Par ch=5 c=7 v=70
16592 Par ch=5 c=7 v=78
16593 Par ch=5 c=7 v=86
16595 Par ch=5 c=7 v=103
16595 Par ch=5 c=7 v=95
16597 Par ch=5 c=7 v=111
16598 Par ch=5 c=7 v=119
16599 Par ch=5 c=7 v=127
16600 Par ch=5 c=7 v=119
16601 Par ch=5 c=7 v=111
16602 Par ch=5 c=7 v=103
16603 Par ch=5 c=7 v=95
16605 Par ch=5 c=7 v=86
16606 Par ch=5 c=7 v=78
16607 Par ch=5 c=7 v=70
16608 Par ch=5 c=7 v=62
16609 Par ch=5 c=7 v=53
16610 Par ch=5 c=7 v=45
16611 Par ch=5 c=7 v=37
16612 Par ch=5 c=7 v=29
16613 Par ch=5 c=7 v=21
16615 Par ch=5 c=7 v=12
16616 Par ch=5 c=7 v=21
16617 Par ch=5 c=7 v=29
16618 Par ch=5 c=7 v=37
16619 Par ch=5 c=7 v=45
16620 On ch=5 n=52 v=0
16620 On ch=5 n=55 v=0
16620 On ch=5 n=60 v=0
16620 On ch=5 n=64 v=0
16620 Par ch=5 c=7 v=53
16620 On ch=5 n=60 v=40
16620 On ch=5 n=52 v=40
16620 On ch=5 n=55 v=40
16622 Par ch=5 c=7 v=70
16622 Par ch=5 c=7 v=62
16623 Par ch=5 c=7 v=78
16625 Par ch=5 c=7 v=86
16626 Par ch=5 c=7 v=95
16627 Par ch=5 c=7 v=103
16628 Par ch=5 c=7 v=111
16629 Par ch=5 c=7 v=119
16630 Par ch=5 c=7 v=127
16632 Par ch=5 c=7 v=111
16632 Par ch=5 c=7 v=119
16633 Par ch=5 c=7 v=103
16635 Par ch=5 c=7 v=95
16636 Par ch=5 c=7 v=86
16637 Par ch=5 c=7 v=78
16638 Par ch=5 c=7 v=70
16639 Par ch=5 c=7 v=62
16640 Par ch=5 c=7 v=53
16642 Par ch=5 c=7 v=45
16643 Par ch=5 c=7 v=37
16643 Par ch=5 c=7 v=29
16645 Par ch=5 c=7 v=21
16646 Par ch=5 c=7 v=12
16647 Par ch=5 c=7 v=20
16648 Par ch=5 c=7 v=29
16649 Par ch=5 c=7 v=37
16650 Par ch=5 c=7 v=45
16652 Par ch=5 c=7 v=53
16653 Par ch=5 c=7 v=62
16653 Par ch=5 c=7 v=70
16655 Par ch=5 c=7 v=78
16656 Par ch=5 c=7 v=86
16657 Par ch=5 c=7 v=95
16658 Par ch=5 c=7 v=103
16659 Par ch=5 c=7 v=111
16660 Par ch=5 c=7 v=119
16662 Par ch=5 c=7 v=127
16663 Par ch=5 c=7 v=111
16663 Par ch=5 c=7 v=119
16665 Par ch=5 c=7 v=103
16666 Par ch=5 c=7 v=95
16667 Par ch=5 c=7 v=86
16668 Par ch=5 c=7 v=78
16669 Par ch=5 c=7 v=70
16670 Par ch=5 c=7 v=62
16672 Par ch=5 c=7 v=53
16673 Par ch=5 c=7 v=45
16674 Par ch=5 c=7 v=37
16675 Par ch=5 c=7 v=29
16676 Par ch=5 c=7 v=21
16677 Par ch=5 c=7 v=12
16678 Par ch=5 c=7 v=20
16680 On ch=5 n=55 v=0
16680 On ch=5 n=52 v=0
16680 On ch=5 n=60 v=0
16680 On ch=5 n=52 v=40
16680 On ch=5 n=60 v=40
16680 On ch=5 n=64 v=40
16680 Par ch=5 c=7 v=29
16680 On ch=5 n=55 v=40
16680 Par ch=5 c=7 v=37
16682 Par ch=5 c=7 v=45
16683 Par ch=5 c=7 v=53
16684 Par ch=5 c=7 v=62
16685 Par ch=5 c=7 v=70
16686 Par ch=5 c=7 v=78
16687 Par ch=5 c=7 v=86
16688 Par ch=5 c=7 v=95
16690 Par ch=5 c=7 v=111
16690 Par ch=5 c=7 v=103
16692 Par ch=5 c=7 v=119
16693 Par ch=5 c=7 v=127
16694 Par ch=5 c=7 v=119
16695 Par ch=5 c=7 v=111
16696 Par ch=5 c=7 v=103
16697 Par ch=5 c=7 v=95
16698 Par ch=5 c=7 v=86
16700 Par ch=5 c=7 v=78
16700 Par ch=5 c=7 v=70
16702 Par ch=5 c=7 v=62
16703 Par ch=5 c=7 v=53
16704 Par ch=5 c=7 v=45
16705 Par ch=5 c=7 v=37
16706 Par ch=5 c=7 v=29
16707 Par ch=5 c=7 v=21
16708 Par ch=5 c=7 v=12
16710 Par ch=5 c=7 v=20
16711 Par ch=5 c=7 v=29
16712 Par ch=5 c=7 v=37
16713 Par ch=5 c=7 v=45
16714 Par ch=5 c=7 v=53
16715 Par ch=5 c=7 v=62
16717 Par ch=5 c=7 v=70
16717 Par ch=5 c=7 v=78
16718 Par ch=5 c=7 v=86
16720 Par ch=5 c=7 v=95
16721 Par ch=5 c=7 v=103
16722 Par ch=5 c=7 v=111
16723 Par ch=5 c=7 v=119
16724 Par ch=5 c=7 v=127
16725 Par ch=5 c=7 v=119
16727 Par ch=5 c=7 v=111
16727 Par ch=5 c=7 v=103
16728 Par ch=5 c=7 v=95
16730 Par ch=5 c=7 v=86
16731 Par ch=5 c=7 v=78
16732 Par ch=5 c=7 v=70
16733 Par ch=5 c=7 v=62
16734 Par ch=5 c=7 v=53
16735 Par ch=5 c=7 v=45
16736 Par ch=5 c=7 v=37
16738 Par ch=5 c=7 v=29
16738 Par ch=5 c=7 v=21
16740 On ch=5 n=55 v=0
16740 On ch=5 n=52 v=0
16740 On ch=5 n=60 v=0
16740 On ch=5 n=64 v=0
16740 On ch=5 n=60 v=40
16740 On ch=5 n=55 v=40
16740 On ch=5 n=52 v=40
16740 Par ch=5 c=7 v=12
16741 Par ch=5 c=7 v=20
16742 Par ch=5 c=7 v=29
16743 Par ch=5 c=7 v=37
16744 Par ch=5 c=7 v=45
16745 Par ch=5 c=7 v=53
16747 Par ch=5 c=7 v=62
16748 Par ch=5 c=7 v=78
16748 Par ch=5 c=7 v=70
16750 Par ch=5 c=7 v=86
16751 Par ch=5 c=7 v=95
16752 Par ch=5 c=7 v=103
16753 Par ch=5 c=7 v=111
16754 Par ch=5 c=7 v=119
16755 Par ch=5 c=7 v=127
16757 Par ch=5 c=7 v=119
16758 Par ch=5 c=7 v=111
16758 Par ch=5 c=7 v=103
16760 Par ch=5 c=7 v=95
16761 Par ch=5 c=7 v=86
16762 Par ch=5 c=7 v=78
16763 Par ch=5 c=7 v=70
16764 Par ch=5 c=7 v=62
16765 Par ch=5 c=7 v=54
16766 Par ch=5 c=7 v=45
16768 Par ch=5 c=7 v=37
16769 Par ch=5 c=7 v=29
16770 Par ch=5 c=7 v=21
16771 Par ch=5 c=7 v=12
16772 Par ch=5 c=7 v=20
16773 Par ch=5 c=7 v=29
16774 Par ch=5 c=7 v=37
16775 Par ch=5 c=7 v=45
16777 Par ch=5 c=7 v=53
16778 Par ch=5 c=7 v=62
16779 Par ch=5 c=7 v=70
16780 Par ch=5 c=7 v=78
16781 Par ch=5 c=7 v=86
16782 Par ch=5 c=7 v=95
16783 Par ch=5 c=7 v=103
16785 Par ch=5 c=7 v=119
16785 Par ch=5 c=7 v=111
16787 Par ch=5 c=7 v=127
16788 Par ch=5 c=7 v=119
16789 Par ch=5 c=7 v=111
16790 Par ch=5 c=7 v=103
16791 Par ch=5 c=7 v=95
16792 Par ch=5 c=7 v=86
16793 Par ch=5 c=7 v=78
16795 Par ch=5 c=7 v=62
16795 Par ch=5 c=7 v=70
16796 Par ch=5 c=7 v=54
16798 Par ch=5 c=7 v=45
16799 Par ch=5 c=7 v=37
16800 On ch=5 n=52 v=0
16800 On ch=5 n=55 v=0
16800 On ch=5 n=60 v=0
16800 On ch=5 n=57 v=40
16800 On ch=5 n=50 v=40
16800 Par ch=5 c=7 v=86
16800 On ch=5 n=62 v=40
16800 On ch=5 n=53 v=40
16800 Par ch=5 c=7 v=78
16801 Par ch=5 c=7 v=95
16802 Par ch=5 c=7 v=103
16803 Par ch=5 c=7 v=111
16805 Par ch=5 c=7 v=119
16806 Par ch=5 c=7 v=127
16807 Par ch=5 c=7 v=119
16808 Par ch=5 c=7 v=111
16809 Par ch=5 c=7 v=103
16810 Par ch=5 c=7 v=95
16811 Par ch=5 c=7 v=86
16812 Par ch=5 c=7 v=78
16813 Par ch=5 c=7 v=70
16815 Par ch=5 c=7 v=62
16816 Par ch=5 c=7 v=53
16817 Par ch=5 c=7 v=45
16818 Par ch=5 c=7 v=37
16819 Par ch=5 c=7 v=29
16820 Par ch=5 c=7 v=21
16822 Par ch=5 c=7 v=21
16822 Par ch=5 c=7 v=12
16823 Par ch=5 c=7 v=29
16825 Par ch=5 c=7 v=37
16826 Par ch=5 c=7 v=45
16827 Par ch=5 c=7 v=53
16828 Par ch=5 c=7 v=62
16829 Par ch=5 c=7 v=70
16830 Par ch=5 c=7 v=78
16832 Par ch=5 c=7 v=95
16832 Par ch=5 c=7 v=86
16833 Par ch=5 c=7 v=103
16835 Par ch=5 c=7 v=111
16836 Par ch=5 c=7 v=119
16837 Par ch=5 c=7 v=127
16838 Par ch=5 c=7 v=119
16839 Par ch=5 c=7 v=111
16840 Par ch=5 c=7 v=103
16841 Par ch=5 c=7 v=95
16843 Par ch=5 c=7 v=78
16843 Par ch=5 c=7 v=86
16845 Par ch=5 c=7 v=70
16846 Par ch=5 c=7 v=62
16847 Par ch=5 c=7 v=53
16848 Par ch=5 c=7 v=45
16849 Par ch=5 c=7 v=37
16850 Par ch=5 c=7 v=29
16852 Par ch=5 c=7 v=21
16853 Par ch=5 c=7 v=12
16853 Par ch=5 c=7 v=21
16855 Par ch=5 c=7 v=29
16856 Par ch=5 c=7 v=37
16857 Par ch=5 c=7 v=45
16858 Par ch=5 c=7 v=53
16859 Par ch=5 c=7 v=62
16860 On ch=5 n=53 v=0
16860 On ch=5 n=57 v=0
16860 On ch=5 n=50 v=0
16860 On ch=5 n=62 v=0
16860 Par ch=5 c=7 v=70
16860 On ch=5 n=53 v=40
16860 On ch=5 n=50 v=40
16860 On ch=5 n=57 v=40
16862 Par ch=5 c=7 v=78
16863 Par ch=5 c=7 v=86
16864 Par ch=5 c=7 v=95
16865 Par ch=5 c=7 v=103
16866 Par ch=5 c=7 v=111
16867 Par ch=5 c=7 v=119
16868 Par ch=5 c=7 v=127
16869 Par ch=5 c=7 v=119
16870 Par ch=5 c=7 v=111
16872 Par ch=5 c=7 v=103
16873 Par ch=5 c=7 v=95
16874 Par ch=5 c=7 v=86
16875 Par ch=5 c=7 v=78
16876 Par ch=5 c=7 v=70
16877 Par ch=5 c=7 v=62
16878 Par ch=5 c=7 v=53
16880 Par ch=5 c=7 v=37
16880 Par ch=5 c=7 v=45
16882 Par ch=5 c=7 v=29
16883 Par ch=5 c=7 v=21
16884 Par ch=5 c=7 v=12
16885 Par ch=5 c=7 v=21
16886 Par ch=5 c=7 v=29
16887 Par ch=5 c=7 v=37
16888 Par ch=5 c=7 v=45
16890 Par ch=5 c=7 v=53
16890 Par ch=5 c=7 v=62
16892 Par ch=5 c=7 v=70
16893 Par ch=5 c=7 v=78
16894 Par ch=5 c=7 v=86
16895 Par ch=5 c=7 v=95
16896 Par ch=5 c=7 v=103
16897 Par ch=5 c=7 v=111
16898 Par ch=5 c=7 v=119
16900 Par ch=5 c=7 v=127
16901 Par ch=5 c=7 v=119
16902 Par ch=5 c=7 v=111
16903 Par ch=5 c=7 v=103
16904 Par ch=5 c=7 v=95
16905 Par ch=5 c=7 v=86
16906 Par ch=5 c=7 v=78
16907 Par ch=5 c=7 v=70
16908 Par ch=5 c=7 v=62
16910 Par ch=5 c=7 v=53
16911 Par ch=5 c=7 v=45
16912 Par ch=5 c=7 v=37
16913 Par ch=5 c=7 v=29
16914 Par ch=5 c=7 v=21
16915 Par ch=5 c=7 v=12
16917 Par ch=5 c=7 v=29
16917 Par ch=5 c=7 v=21
16918 Par ch=5 c=7 v=37
16920 On ch=5 n=57 v=0
16920 On ch=5 n=50 v=0
16920 On ch=5 n=53 v=0
16920 On ch=5 n=62 v=40
16920 On ch=5 n=57 v=40
16920 On ch=5 n=53 v=40
16920 Par ch=5 c=7 v=45
16920 On ch=5 n=50 v=40
16921 Par ch=5 c=7 v=53
16922 Par ch=5 c=7 v=62
16923 Par ch=5 c=7 v=70
16924 Par ch=5 c=7 v=78
16925 Par ch=5 c=7 v=86
16927 Par ch=5 c=7 v=95
16927 Par ch=5 c=7 v=103
16928 Par ch=5 c=7 v=111
16930 Par ch=5 c=7 v=119
16931 Par ch=5 c=7 v=127
16932 Par ch=5 c=7 v=119
16933 Par ch=5 c=7 v=111
16934 Par ch=5 c=7 v=103
16935 Par ch=5 c=7 v=95
16937 Par ch=5 c=7 v=86
16938 Par ch=5 c=7 v=78
16938 Par ch=5 c=7 v=70
16940 Par ch=5 c=7 v=62
16941 Par ch=5 c=7 v=53
16942 Par ch=5 c=7 v=45
16943 Par ch=5 c=7 v=37
16944 Par ch=5 c=7 v=29
16945 Par ch=5 c=7 v=21
16947 Par ch=5 c=7 v=12
16948 Par ch=5 c=7 v=29
16948 Par ch=5 c=7 v=20
16950 Par ch=5 c=7 v=37
16951 Par ch=5 c=7 v=45
16952 Par ch=5 c=7 v=53
16953 Par ch=5 c=7 v=62
16954 Par ch=5 c=7 v=70
16955 Par ch=5 c=7 v=78
16957 Par ch=5 c=7 v=86
16958 Par ch=5 c=7 v=95
16959 Par ch=5 c=7 v=103
16960 Par ch=5 c=7 v=111
16961 Par ch=5 c=7 v=119
16962 Par ch=5 c=7 v=127
16963 Par ch=5 c=7 v=119
16964 Par ch=5 c=7 v=111
16965 Par ch=5 c=7 v=103
16967 Par ch=5 c=7 v=95
16968 Par ch=5 c=7 v=86
16969 Par ch=5 c=7 v=78
16970 Par ch=5 c=7 v=70
16971 Par ch=5 c=7 v=62
16972 Par ch=5 c=7 v=53
16973 Par ch=5 c=7 v=45
16975 Par ch=5 c=7 v=29
16975 Par ch=5 c=7 v=37
16977 Par ch=5 c=7 v=21
16978 Par ch=5 c=7 v=12
16979 Par ch=5 c=7 v=20
16980 On ch=5 n=50 v=0
16980 On ch=5 n=62 v=0
16980 On ch=5 n=57 v=0
16980 On ch=5 n=53 v=0
16980 On ch=5 n=53 v=40
16980 On ch=5 n=50 v=40
16980 Par ch=5 c=7 v=86
16980 Par ch=5 c=7 v=78
16980 On ch=5 n=57 v=40
16981 Par ch=5 c=7 v=95
16982 Par ch=5 c=7 v=103
16983 Par ch=5 c=7 v=111
16985 Par ch=5 c=7 v=119
16985 Par ch=5 c=7 v=127
16987 Par ch=5 c=7 v=119
16988 Par ch=5 c=7 v=111
16989 Par ch=5 c=7 v=103
16990 Par ch=5 c=7 v=95
16991 Par ch=5 c=7 v=86
16992 Par ch=5 c=7 v=78
16993 Par ch=5 c=7 v=70
16995 Par ch=5 c=7 v=62
16996 Par ch=5 c=7 v=53
16997 Par ch=5 c=7 v=45
16998 Par ch=5 c=7 v=37
16999 Par ch=5 c=7 v=29
17000 Par ch=5 c=7 v=21
17001 Par ch=5 c=7 v=12
17002 Par ch=5 c=7 v=21
17003 Par ch=5 c=7 v=29
17005 Par ch=5 c=7 v=37
17006 Par ch=5 c=7 v=45
17007 Par ch=5 c=7 v=53
17008 Par ch=5 c=7 v=62
17009 Par ch=5 c=7 v=70
17010 Par ch=5 c=7 v=78
17012 Par ch=5 c=7 v=95
17012 Par ch=5 c=7 v=86
17013 Par ch=5 c=7 v=103
17015 Par ch=5 c=7 v=111
17016 Par ch=5 c=7 v=119
17017 Par ch=5 c=7 v=127
17018 Par ch=5 c=7 v=119
17019 Par ch=5 c=7 v=111
17020 Par ch=5 c=7 v=103
17022 Par ch=5 c=7 v=86
17022 Par ch=5 c=7 v=95
17023 Par ch=5 c=7 v=78
17025 Par ch=5 c=7 v=70
17026 Par ch=5 c=7 v=62
17027 Par ch=5 c=7 v=53
17028 Par ch=5 c=7 v=45
17029 Par ch=5 c=7 v=37
17030 Par ch=5 c=7 v=29
17032 Par ch=5 c=7 v=21
17033 Par ch=5 c=7 v=21
17033 Par ch=5 c=7 v=12
17035 Par ch=5 c=7 v=29
17036 Par ch=5 c=7 v=37
17037 Par ch=5 c=7 v=45
17038 Par ch=5 c=7 v=53
17039 Par ch=5 c=7 v=62
17040 On ch=5 n=57 v=0
17040 On ch=5 n=50 v=0
17040 On ch=5 n=53 v=0
17040 On ch=5 n=62 v=40
17040 On ch=5 n=53 v=40
17040 Par ch=5 c=7 v=70
17040 On ch=5 n=57 v=40
17040 On ch=5 n=50 v=40
17042 Par ch=5 c=7 v=78
17043 Par ch=5 c=7 v=95
17043 Par ch=5 c=7 v=86
17045 Par ch=5 c=7 v=103
17046 Par ch=5 c=7 v=111
17047 Par ch=5 c=7 v=119
17048 Par ch=5 c=7 v=127
17049 Par ch=5 c=7 v=119
17050 Par ch=5 c=7 v=111
17052 Par ch=5 c=7 v=103
17053 Par ch=5 c=7 v=95
17053 Par ch=5 c=7 v=86
17055 Par ch=5 c=7 v=78
17056 Par ch=5 c=7 v=70
17057 Par ch=5 c=7 v=62
17058 Par ch=5 c=7 v=53
17059 Par ch=5 c=7 v=45
17060 Par ch=5 c=7 v=37
17062 Par ch=5 c=7 v=29
17063 Par ch=5 c=7 v=21
17064 Par ch=5 c=7 v=12
17065 Par ch=5 c=7 v=21
17066 Par ch=5 c=7 v=29
17067 Par ch=5 c=7 v=37
17068 Par ch=5 c=7 v=45
17070 Par ch=5 c=7 v=53
17070 Par ch=5 c=7 v=62
17072 Par ch=5 c=7 v=70
17073 Par ch=5 c=7 v=78
17074 Par ch=5 c=7 v=86
17075 Par ch=5 c=7 v=95
17076 Par ch=5 c=7 v=103
17077 Par ch=5 c=7 v=111
17078 Par ch=5 c=7 v=119
17080 Par ch=5 c=7 v=119
17080 Par ch=5 c=7 v=127
17082 Par ch=5 c=7 v=111
17083 Par ch=5 c=7 v=103
17084 Par ch=5 c=7 v=95
17085 Par ch=5 c=7 v=86
17086 Par ch=5 c=7 v=78
17087 Par ch=5 c=7 v=70
17088 Par ch=5 c=7 v=62
17090 Par ch=5 c=7 v=45
17090 Par ch=5 c=7 v=53
17092 Par ch=5 c=7 v=37
17093 Par ch=5 c=7 v=29
17094 Par ch=5 c=7 v=21
17095 Par ch=5 c=7 v=12
17096 Par ch=5 c=7 v=21
17097 Par ch=5 c=7 v=29
17098 Par ch=5 c=7 v=37
17100 On ch=5 n=50 v=0
17100 On ch=5 n=62 v=0
17100 On ch=5 n=53 v=0
17100 On ch=5 n=57 v=0
17100 On ch=5 n=53 v=40
17100 On ch=5 n=50 v=40
17100 On ch=5 n=57 v=40
17100 Par ch=5 c=7 v=45
17101 Par ch=5 c=7 v=53
17102 Par ch=5 c=7 v=62
17103 Par ch=5 c=7 v=70
17104 Par ch=5 c=7 v=78
17105 Par ch=5 c=7 v=86
17107 Par ch=5 c=7 v=103
17107 Par ch=5 c=7 v=95
17108 Par ch=5 c=7 v=111
17110 Par ch=5 c=7 v=119
17111 Par ch=5 c=7 v=127
17112 Par ch=5 c=7 v=119
17113 Par ch=5 c=7 v=111
17114 Par ch=5 c=7 v=103
17115 Par ch=5 c=7 v=95
17117 Par ch=5 c=7 v=78
17117 Par ch=5 c=7 v=86
17118 Par ch=5 c=7 v=70
17120 Par ch=5 c=7 v=62
17121 Par ch=5 c=7 v=53
17122 Par ch=5 c=7 v=45
17123 Par ch=5 c=7 v=37
17124 Par ch=5 c=7 v=29
17125 Par ch=5 c=7 v=21
17127 Par ch=5 c=7 v=12
17127 Par ch=5 c=7 v=20
17128 Par ch=5 c=7 v=29
17130 Par ch=5 c=7 v=37
17131 Par ch=5 c=7 v=45
17132 Par ch=5 c=7 v=53
17133 Par ch=5 c=7 v=62
17134 Par ch=5 c=7 v=70
17135 Par ch=5 c=7 v=78
17137 Par ch=5 c=7 v=86
17138 Par ch=5 c=7 v=95
17138 Par ch=5 c=7 v=103
17140 Par ch=5 c=7 v=111
17141 Par ch=5 c=7 v=119
17142 Par ch=5 c=7 v=127
17143 Par ch=5 c=7 v=119
17144 Par ch=5 c=7 v=111
17145 Par ch=5 c=7 v=103
17147 Par ch=5 c=7 v=95
17148 Par ch=5 c=7 v=78
17148 Par ch=5 c=7 v=86
17150 Par ch=5 c=7 v=70
17151 Par ch=5 c=7 v=62
17152 Par ch=5 c=7 v=53
17153 Par ch=5 c=7 v=45
17154 Par ch=5 c=7 v=37
17155 Par ch=5 c=7 v=29
17157 Par ch=5 c=7 v=21
17158 Par ch=5 c=7 v=12
17159 Par ch=5 c=7 v=20
17160 On ch=5 n=57 v=0
17160 On ch=5 n=50 v=0
17160 On ch=5 n=53 v=0
17160 On ch=5 n=53 v=40
17160 Par ch=5 c=7 v=29
17160 On ch=5 n=57 v=40
17160 On ch=5 n=50 v=40
17160 On ch=5 n=62 v=40
17161 Par ch=5 c=7 v=37
17162 Par ch=5 c=7 v=45
17163 Par ch=5 c=7 v=53
17164 Par ch=5 c=7 v=62
17165 Par ch=5 c=7 v=70
17167 Par ch=5 c=7 v=78
17168 Par ch=5 c=7 v=86
17169 Par ch=5 c=7 v=95
17170 Par ch=5 c=7 v=103
17171 Par ch=5 c=7 v=111
17172 Par ch=5 c=7 v=119
17173 Par ch=5 c=7 v=127
17175 Par ch=5 c=7 v=111
17175 Par ch=5 c=7 v=119
17177 Par ch=5 c=7 v=103
17178 Par ch=5 c=7 v=95
17179 Par ch=5 c=7 v=86
17180 Par ch=5 c=7 v=78
17181 Par ch=5 c=7 v=70
17182 Par ch=5 c=7 v=62
17183 Par ch=5 c=7 v=53
17185 Par ch=5 c=7 v=45
17185 Par ch=5 c=7 v=37
17187 Par ch=5 c=7 v=29
17188 Par ch=5 c=7 v=21
17189 Par ch=5 c=7 v=12
17190 Par ch=5 c=7 v=20
17191 Par ch=5 c=7 v=29
17192 Par ch=5 c=7 v=37
17193 Par ch=5 c=7 v=45
17195 Par ch=5 c=7 v=53
17196 Par ch=5 c=7 v=62
17197 Par ch=5 c=7 v=70
17198 Par ch=5 c=7 v=78
17199 Par ch=5 c=7 v=86
17200 Par ch=5 c=7 v=95
17201 Par ch=5 c=7 v=103
17202 Par ch=5 c=7 v=111
17203 Par ch=5 c=7 v=119
17205 Par ch=5 c=7 v=127
17206 Par ch=5 c=7 v=119
17207 Par ch=5 c=7 v=111
17208 Par ch=5 c=7 v=103
17209 Par ch=5 c=7 v=95
17210 Par ch=5 c=7 v=86
17212 Par ch=5 c=7 v=70
17212 Par ch=5 c=7 v=78
17213 Par ch=5 c=7 v=62
17215 Par ch=5 c=7 v=53
17216 Par ch=5 c=7 v=45
17217 Par ch=5 c=7 v=37
17218 Par ch=5 c=7 v=29
17219 Par ch=5 c=7 v=21
17220 On ch=5 n=62 v=0
17220 On ch=5 n=53 v=0
17220 On ch=5 n=57 v=0
17220 On ch=5 n=50 v=0
17220 On ch=5 n=57 v=40
17220 Par ch=5 c=7 v=12
17220 On ch=5 n=50 v=40
17220 On ch=5 n=53 v=40
17222 Par ch=5 c=7 v=20
17222 Par ch=5 c=7 v=29
17223 Par ch=5 c=7 v=37
17225 Par ch=5 c=7 v=45
17226 Par ch=5 c=7 v=53
17227 Par ch=5 c=7 v=62
17228 Par ch=5 c=7 v=70
17229 Par ch=5 c=7 v=78
17230 Par ch=5 c=7 v=86
17232 Par ch=5 c=7 v=95
17233 Par ch=5 c=7 v=111
17233 Par ch=5 c=7 v=103
17235 Par ch=5 c=7 v=119
17236 Par ch=5 c=7 v=127
17237 Par ch=5 c=7 v=119
17238 Par ch=5 c=7 v=111
17239 Par ch=5 c=7 v=103
17240 Par ch=5 c=7 v=95
17242 Par ch=5 c=7 v=86
17243 Par ch=5 c=7 v=70
17243 Par ch=5 c=7 v=78
17245 Par ch=5 c=7 v=62
17246 Par ch=5 c=7 v=54
17247 Par ch=5 c=7 v=45
17248 Par ch=5 c=7 v=37
17249 Par ch=5 c=7 v=29
17250 Par ch=5 c=7 v=21
17252 Par ch=5 c=7 v=12
17253 Par ch=5 c=7 v=20
17254 Par ch=5 c=7 v=29
17255 Par ch=5 c=7 v=37
17256 Par ch=5 c=7 v=45
17257 Par ch=5 c=7 v=53
17258 Par ch=5 c=7 v=62
17259 Par ch=5 c=7 v=70
17260 Par ch=5 c=7 v=78
17262 Par ch=5 c=7 v=86
17263 Par ch=5 c=7 v=95
17264 Par ch=5 c=7 v=103
17265 Par ch=5 c=7 v=111
17266 Par ch=5 c=7 v=119
17267 Par ch=5 c=7 v=127
17268 Par ch=5 c=7 v=119
17270 Par ch=5 c=7 v=103
17270 Par ch=5 c=7 v=111
17272 Par ch=5 c=7 v=95
17273 Par ch=5 c=7 v=86
17274 Par ch=5 c=7 v=78
17275 Par ch=5 c=7 v=70
17276 Par ch=5 c=7 v=62
17277 Par ch=5 c=7 v=54
17278 Par ch=5 c=7 v=45
17280 On ch=5 n=53 v=0
17280 On ch=5 n=50 v=0
17280 On ch=5 n=57 v=0
17280 On ch=5 n=53 v=40
17280 On ch=5 n=46 v=40
17280 Par ch=5 c=7 v=86
17280 On ch=5 n=62 v=40
17280 Par ch=5 c=7 v=95
17280 Par ch=5 c=7 v=78
17280 On ch=5 n=58 v=40
17282 Par ch=5 c=7 v=103
17283 Par ch=5 c=7 v=111
17284 Par ch=5 c=7 v=119
17285 Par ch=5 c=7 v=127
17286 Par ch=5 c=7 v=119
17287 Par ch=5 c=7 v=111
17288 Par ch=5 c=7 v=103
17290 Par ch=5 c=7 v=95
17291 Par ch=5 c=7 v=86
17292 Par ch=5 c=7 v=78
17293 Par ch=5 c=7 v=70
17294 Par ch=5 c=7 v=62
17295 Par ch=5 c=7 v=53
17296 Par ch=5 c=7 v=45
17297 Par ch=5 c=7 v=37
17298 Par ch=5 c=7 v=29
17300 Par ch=5 c=7 v=21
17301 Par ch=5 c=7 v=12
17302 Par ch=5 c=7 v=21
17303 Par ch=5 c=7 v=29
17304 Par ch=5 c=7 v=37
17305 Par ch=5 c=7 v=45
17307 Par ch=5 c=7 v=62
17307 Par ch=5 c=7 v=53
17308 Par ch=5 c=7 v=70
17310 Par ch=5 c=7 v=78
17311 Par ch=5 c=7 v=86
17312 Par ch=5 c=7 v=95
17313 Par ch=5 c=7 v=103
17314 Par ch=5 c=7 v=111
17315 Par ch=5 c=7 v=119
17317 Par ch=5 c=7 v=127
17317 Par ch=5 c=7 v=119
17318 Par ch=5 c=7 v=111
17320 Par ch=5 c=7 v=103
17321 Par ch=5 c=7 v=95
17322 Par ch=5 c=7 v=86
17323 Par ch=5 c=7 v=78
17324 Par ch=5 c=7 v=70
17325 Par ch=5 c=7 v=62
17327 Par ch=5 c=7 v=53
17328 Par ch=5 c=7 v=45
17328 Par ch=5 c=7 v=37
17330 Par ch=5 c=7 v=29
17331 Par ch=5 c=7 v=21
17332 Par ch=5 c=7 v=12
17333 Par ch=5 c=7 v=21
17334 Par ch=5 c=7 v=29
17335 Par ch=5 c=7 v=37
17337 Par ch=5 c=7 v=45
17338 Par ch=5 c=7 v=53
17338 Par ch=5 c=7 v=62
17340 On ch=5 n=58 v=0
17340 On ch=5 n=53 v=0
17340 On ch=5 n=46 v=0
17340 On ch=5 n=62 v=0
17340 On ch=5 n=53 v=40
17340 On ch=5 n=58 v=40
17340 Par ch=5 c=7 v=70
17340 On ch=5 n=46 v=40
17341 Par ch=5 c=7 v=78
17342 Par ch=5 c=7 v=86
17343 Par ch=5 c=7 v=95
17344 Par ch=5 c=7 v=103
17345 Par ch=5 c=7 v=111
17347 Par ch=5 c=7 v=119
17348 Par ch=5 c=7 v=127
17349 Par ch=5 c=7 v=119
17350 Par ch=5 c=7 v=111
17351 Par ch=5 c=7 v=103
17352 Par ch=5 c=7 v=95
17353 Par ch=5 c=7 v=86
17354 Par ch=5 c=7 v=78
17355 Par ch=5 c=7 v=70
17357 Par ch=5 c=7 v=62
17358 Par ch=5 c=7 v=53
17359 Par ch=5 c=7 v=45
17360 Par ch=5 c=7 v=37
17361 Par ch=5 c=7 v=29
17362 Par ch=5 c=7 v=21
17363 Par ch=5 c=7 v=12
17365 Par ch=5 c=7 v=29
17365 Par ch=5 c=7 v=21
17367 Par ch=5 c=7 v=37
17368 Par ch=5 c=7 v=45
17369 Par ch=5 c=7 v=53
17370 Par ch=5 c=7 v=62
17371 Par ch=5 c=7 v=70
17372 Par ch=5 c=7 v=78
17373 Par ch=5 c=7 v=86
17375 Par ch=5 c=7 v=103
17375 Par ch=5 c=7 v=95
17377 Par ch=5 c=7 v=111
17378 Par ch=5 c=7 v=119
17379 Par ch=5 c=7 v=127
17380 Par ch=5 c=7 v=119
17381 Par ch=5 c=7 v=111
17382 Par ch=5 c=7 v=103
17383 Par ch=5 c=7 v=95
17385 Par ch=5 c=7 v=78
17385 Par ch=5 c=7 v=86
17387 Par ch=5 c=7 v=70
17388 Par ch=5 c=7 v=62
17389 Par ch=5 c=7 v=53
17390 Par ch=5 c=7 v=45
17391 Par ch=5 c=7 v=37
17392 Par ch=5 c=7 v=29
17393 Par ch=5 c=7 v=21
17395 Par ch=5 c=7 v=12
17396 Par ch=5 c=7 v=21
17397 Par ch=5 c=7 v=29
17398 Par ch=5 c=7 v=37
17399 Par ch=5 c=7 v=45
17400 On ch=5 n=46 v=0
17400 On ch=5 n=58 v=0
17400 On ch=5 n=53 v=0
17400 On ch=5 n=58 v=40
17400 On ch=5 n=46 v=40
17400 On ch=5 n=53 v=40
17400 Par ch=5 c=7 v=53
17400 On ch=5 n=62 v=40
17402 Par ch=5 c=7 v=62
17402 Par ch=5 c=7 v=70
17403 Par ch=5 c=7 v=78
17405 Par ch=5 c=7 v=86
17406 Par ch=5 c=7 v=95
17407 Par ch=5 c=7 v=103
17408 Par ch=5 c=7 v=111
17409 Par ch=5 c=7 v=119
17410 Par ch=5 c=7 v=127
17412 Par ch=5 c=7 v=119
17412 Par ch=5 c=7 v=111
17413 Par ch=5 c=7 v=103
17415 Par ch=5 c=7 v=95
17416 Par ch=5 c=7 v=86
17417 Par ch=5 c=7 v=78
17418 Par ch=5 c=7 v=70
17419 Par ch=5 c=7 v=62
17420 Par ch=5 c=7 v=53
17422 Par ch=5 c=7 v=45
17423 Par ch=5 c=7 v=29
17423 Par ch=5 c=7 v=37
17425 Par ch=5 c=7 v=21
17426 Par ch=5 c=7 v=12
17427 Par ch=5 c=7 v=20
17428 Par ch=5 c=7 v=29
17429 Par ch=5 c=7 v=37
17430 Par ch=5 c=7 v=45
17432 Par ch=5 c=7 v=53
17433 Par ch=5 c=7 v=70
17433 Par ch=5 c=7 v=62
17435 Par ch=5 c=7 v=78
17436 Par ch=5 c=7 v=86
17437 Par ch=5 c=7 v=95
17438 Par ch=5 c=7 v=103
17439 Par ch=5 c=7 v=111
17440 Par ch=5 c=7 v=119
17442 Par ch=5 c=7 v=127
17443 Par ch=5 c=7 v=119
17443 Par ch=5 c=7 v=111
17445 Par ch=5 c=7 v=103
17446 Par ch=5 c=7 v=95
17447 Par ch=5 c=7 v=86
17448 Par ch=5 c=7 v=78
17449 Par ch=5 c=7 v=70
17450 Par ch=5 c=7 v=62
17452 Par ch=5 c=7 v=53
17453 Par ch=5 c=7 v=45
17454 Par ch=5 c=7 v=37
17455 Par ch=5 c=7 v=29
17456 Par ch=5 c=7 v=21
17457 Par ch=5 c=7 v=12
17458 Par ch=5 c=7 v=20
17460 On ch=5 n=62 v=0
17460 On ch=5 n=58 v=0
17460 On ch=5 n=46 v=0
17460 On ch=5 n=53 v=0
17460 Par ch=5 c=7 v=95
17460 On ch=5 n=46 v=40
17460 Par ch=5 c=7 v=78
17460 On ch=5 n=53 v=40
17460 On ch=5 n=58 v=40
17460 Par ch=5 c=7 v=86
17462 Par ch=5 c=7 v=103
17463 Par ch=5 c=7 v=111
17464 Par ch=5 c=7 v=119
17465 Par ch=5 c=7 v=127
17466 Par ch=5 c=7 v=119
17467 Par ch=5 c=7 v=111
17468 Par ch=5 c=7 v=103
17470 Par ch=5 c=7 v=86
17470 Par ch=5 c=7 v=95
17472 Par ch=5 c=7 v=78
17473 Par ch=5 c=7 v=70
17474 Par ch=5 c=7 v=62
17475 Par ch=5 c=7 v=53
17476 Par ch=5 c=7 v=45
17477 Par ch=5 c=7 v=37
17478 Par ch=5 c=7 v=29
17480 Par ch=5 c=7 v=21
17480 Par ch=5 c=7 v=12
17482 Par ch=5 c=7 v=21
17483 Par ch=5 c=7 v=29
17484 Par ch=5 c=7 v=37
17485 Par ch=5 c=7 v=45
17486 Par ch=5 c=7 v=53
17487 Par ch=5 c=7 v=62
17488 Par ch=5 c=7 v=70
17490 Par ch=5 c=7 v=78
17491 Par ch=5 c=7 v=86
17492 Par ch=5 c=7 v=95
17493 Par ch=5 c=7 v=103
17494 Par ch=5 c=7 v=111
17495 Par ch=5 c=7 v=119
17497 Par ch=5 c=7 v=119
17497 Par ch=5 c=7 v=127
17498 Par ch=5 c=7 v=111
17500 Par ch=5 c=7 v=103
17501 Par ch=5 c=7 v=95
17502 Par ch=5 c=7 v=86
17503 Par ch=5 c=7 v=78
17504 Par ch=5 c=7 v=70
17505 Par ch=5 c=7 v=62
17507 Par ch=5 c=7 v=45
17507 Par ch=5 c=7 v=53
17508 Par ch=5 c=7 v=37
17510 Par ch=5 c=7 v=29
17511 Par ch=5 c=7 v=21
17512 Par ch=5 c=7 v=12
17513 Par ch=5 c=7 v=21
17514 Par ch=5 c=7 v=29
17515 Par ch=5 c=7 v=37
17517 Par ch=5 c=7 v=53
17517 Par ch=5 c=7 v=45
17518 Par ch=5 c=7 v=62
17520 On ch=5 n=58 v=0
17520 On ch=5 n=53 v=0
17520 On ch=5 n=46 v=0
17520 On ch=5 n=58 v=40
17520 On ch=5 n=53 v=40
17520 On ch=5 n=46 v=40
17520 Par ch=5 c=7 v=70
17520 On ch=5 n=62 v=40
17521 Par ch=5 c=7 v=78
17522 Par ch=5 c=7 v=86
17523 Par ch=5 c=7 v=95
17524 Par ch=5 c=7 v=103
17525 Par ch=5 c=7 v=111
17527 Par ch=5 c=7 v=119
17528 Par ch=5 c=7 v=127
17528 Par ch=5 c=7 v=119
17530 Par ch=5 c=7 v=111
17531 Par ch=5 c=7 v=103
17532 Par ch=5 c=7 v=95
17533 Par ch=5 c=7 v=86
17534 Par ch=5 c=7 v=78
17535 Par ch=5 c=7 v=70
17537 Par ch=5 c=7 v=62
17538 Par ch=5 c=7 v=45
17538 Par ch=5 c=7 v=53
17540 Par ch=5 c=7 v=37
17541 Par ch=5 c=7 v=29
17542 Par ch=5 c=7 v=21
17543 Par ch=5 c=7 v=12
17544 Par ch=5 c=7 v=21
17545 Par ch=5 c=7 v=29
17547 Par ch=5 c=7 v=37
17548 Par ch=5 c=7 v=45
17549 Par ch=5 c=7 v=53
17550 Par ch=5 c=7 v=62
17551 Par ch=5 c=7 v=70
17552 Par ch=5 c=7 v=78
17553 Par ch=5 c=7 v=86
17554 Par ch=5 c=7 v=95
17555 Par ch=5 c=7 v=103
17557 Par ch=5 c=7 v=111
17558 Par ch=5 c=7 v=119
17559 Par ch=5 c=7 v=127
17560 Par ch=5 c=7 v=119
17561 Par ch=5 c=7 v=111
17562 Par ch=5 c=7 v=103
17563 Par ch=5 c=7 v=95
17565 Par ch=5 c=7 v=78
17565 Par ch=5 c=7 v=86
17567 Par ch=5 c=7 v=70
17568 Par ch=5 c=7 v=62
17569 Par ch=5 c=7 v=53
17570 Par ch=5 c=7 v=45
17571 Par ch=5 c=7 v=37
17572 Par ch=5 c=7 v=29
17573 Par ch=5 c=7 v=21
17575 Par ch=5 c=7 v=21
17575 Par ch=5 c=7 v=12
17577 Par ch=5 c=7 v=29
17578 Par ch=5 c=7 v=37
17579 Par ch=5 c=7 v=45
17580 On ch=5 n=62 v=0
17580 On ch=5 n=58 v=0
17580 On ch=5 n=53 v=0
17580 On ch=5 n=46 v=0
17580 On ch=5 n=58 v=40
17580 Par ch=5 c=7 v=78
17580 Par ch=5 c=7 v=86
17580 On ch=5 n=53 v=40
17580 On ch=5 n=46 v=40
17581 Par ch=5 c=7 v=95
17582 Par ch=5 c=7 v=103
17583 Par ch=5 c=7 v=111
17585 Par ch=5 c=7 v=119
17586 Par ch=5 c=7 v=127
17587 Par ch=5 c=7 v=119
17588 Par ch=5 c=7 v=111
17589 Par ch=5 c=7 v=103
17590 Par ch=5 c=7 v=95
17591 Par ch=5 c=7 v=86
17592 Par ch=5 c=7 v=78
17593 Par ch=5 c=7 v=70
17595 Par ch=5 c=7 v=62
17596 Par ch=5 c=7 v=53
17597 Par ch=5 c=7 v=45
17598 Par ch=5 c=7 v=37
17599 Par ch=5 c=7 v=29
17600 Par ch=5 c=7 v=21
17602 Par ch=5 c=7 v=12
17602 Par ch=5 c=7 v=21
17603 Par ch=5 c=7 v=29
17605 Par ch=5 c=7 v=37
17606 Par ch=5 c=7 v=45
17607 Par ch=5 c=7 v=53
17608 Par ch=5 c=7 v=62
17609 Par ch=5 c=7 v=70
17610 Par ch=5 c=7 v=78
17612 Par ch=5 c=7 v=95
17612 Par ch=5 c=7 v=86
17613 Par ch=5 c=7 v=103
17615 Par ch=5 c=7 v=111
17616 Par ch=5 c=7 v=119
17617 Par ch=5 c=7 v=127
17618 Par ch=5 c=7 v=119
17619 Par ch=5 c=7 v=111
17620 Par ch=5 c=7 v=103
17622 Par ch=5 c=7 v=95
17623 Par ch=5 c=7 v=78
17623 Par ch=5 c=7 v=86
17625 Par ch=5 c=7 v=70
17626 Par ch=5 c=7 v=62
17627 Par ch=5 c=7 v=53
17628 Par ch=5 c=7 v=45
17629 Par ch=5 c=7 v=37
17630 Par ch=5 c=7 v=29
17632 Par ch=5 c=7 v=21
17633 Par ch=5 c=7 v=21
17633 Par ch=5 c=7 v=12
17635 Par ch=5 c=7 v=29
17636 Par ch=5 c=7 v=37
17637 Par ch=5 c=7 v=45
17638 Par ch=5 c=7 v=53
17639 Par ch=5 c=7 v=78
17639 Par ch=5 c=7 v=86
17640 On ch=5 n=46 v=0
17640 On ch=5 n=53 v=0
17640 On ch=5 n=58 v=0
17640 On ch=5 n=53 v=40
17640 On ch=5 n=58 v=40
17640 On ch=5 n=62 v=40
17640 On ch=5 n=46 v=40
17640 Par ch=5 c=7 v=95
17641 Par ch=5 c=7 v=103
17643 Par ch=5 c=7 v=111
17644 Par ch=5 c=7 v=119
17645 Par ch=5 c=7 v=127
17646 Par ch=5 c=7 v=119
17647 Par ch=5 c=7 v=111
17648 Par ch=5 c=7 v=103
17649 Par ch=5 c=7 v=95
17650 Par ch=5 c=7 v=86
17652 Par ch=5 c=7 v=78
17653 Par ch=5 c=7 v=70
17654 Par ch=5 c=7 v=62
17655 Par ch=5 c=7 v=53
17656 Par ch=5 c=7 v=45
17657 Par ch=5 c=7 v=37
17658 Par ch=5 c=7 v=29
17660 Par ch=5 c=7 v=21
17660 Par ch=5 c=7 v=12
17662 Par ch=5 c=7 v=21
17663 Par ch=5 c=7 v=29
17664 Par ch=5 c=7 v=37
17665 Par ch=5 c=7 v=45
17666 Par ch=5 c=7 v=53
17667 Par ch=5 c=7 v=62
17668 Par ch=5 c=7 v=70
17670 Par ch=5 c=7 v=86
17670 Par ch=5 c=7 v=78
17671 Par ch=5 c=7 v=95
17673 Par ch=5 c=7 v=103
17674 Par ch=5 c=7 v=111
17675 Par ch=5 c=7 v=119
17676 Par ch=5 c=7 v=127
17677 Par ch=5 c=7 v=119
17678 Par ch=5 c=7 v=111
17680 Par ch=5 c=7 v=103
17681 Par ch=5 c=7 v=95
17682 Par ch=5 c=7 v=86
17683 Par ch=5 c=7 v=78
17684 Par ch=5 c=7 v=70
17685 Par ch=5 c=7 v=62
17686 Par ch=5 c=7 v=53
17687 Par ch=5 c=7 v=45
17688 Par ch=5 c=7 v=37
17690 Par ch=5 c=7 v=29
17691 Par ch=5 c=7 v=21
17692 Par ch=5 c=7 v=12
17693 Par ch=5 c=7 v=21
17694 Par ch=5 c=7 v=29
17695 Par ch=5 c=7 v=37
17697 Par ch=5 c=7 v=53
17697 Par ch=5 c=7 v=45
17698 Par ch=5 c=7 v=62
17700 On ch=5 n=46 v=0
17700 On ch=5 n=53 v=0
17700 On ch=5 n=58 v=0
17700 On ch=5 n=62 v=0
17700 Par ch=5 c=7 v=70
17700 On ch=5 n=46 v=40
17700 On ch=5 n=53 v=40
17700 On ch=5 n=58 v=40
17701 Par ch=5 c=7 v=86
17701 Par ch=5 c=7 v=78
17703 Par ch=5 c=7 v=95
17704 Par ch=5 c=7 v=103
17705 Par ch=5 c=7 v=111
17707 Par ch=5 c=7 v=127
17707 Par ch=5 c=7 v=119
17708 Par ch=5 c=7 v=119
17710 Par ch=5 c=7 v=111
17711 Par ch=5 c=7 v=103
17712 Par ch=5 c=7 v=95
17713 Par ch=5 c=7 v=86
17714 Par ch=5 c=7 v=78
17715 Par ch=5 c=7 v=70
17716 Par ch=5 c=7 v=62
17718 Par ch=5 c=7 v=45
17718 Par ch=5 c=7 v=53
17720 Par ch=5 c=7 v=37
17721 Par ch=5 c=7 v=29
17722 Par ch=5 c=7 v=21
17723 Par ch=5 c=7 v=12
17724 Par ch=5 c=7 v=21
17725 Par ch=5 c=7 v=29
17727 Par ch=5 c=7 v=37
17728 Par ch=5 c=7 v=45
17728 Par ch=5 c=7 v=53
17730 Par ch=5 c=7 v=62
17731 Par ch=5 c=7 v=70
17732 Par ch=5 c=7 v=78
17733 Par ch=5 c=7 v=86
17734 Par ch=5 c=7 v=95
17735 Par ch=5 c=7 v=103
17737 Par ch=5 c=7 v=111
17738 Par ch=5 c=7 v=127
17738 Par ch=5 c=7 v=119
17740 Par ch=5 c=7 v=119
17741 Par ch=5 c=7 v=111
17742 Par ch=5 c=7 v=103
17743 Par ch=5 c=7 v=95
17744 Par ch=5 c=7 v=86
17745 Par ch=5 c=7 v=78
17746 Par ch=5 c=7 v=70
17748 Par ch=5 c=7 v=62
17749 Par ch=5 c=7 v=53
17750 Par ch=5 c=7 v=45
17751 Par ch=5 c=7 v=37
17752 Par ch=5 c=7 v=29
17753 Par ch=5 c=7 v=21
17755 Par ch=5 c=7 v=21
17755 Par ch=5 c=7 v=12
17757 Par ch=5 c=7 v=29
17758 Par ch=5 c=7 v=37
17759 Par ch=5 c=7 v=45
17760 On ch=5 n=58 v=0
17760 On ch=5 n=53 v=0
17760 On ch=5 n=46 v=0
17760 On ch=5 n=53 v=40
17760 On ch=5 n=65 v=40
17760 On ch=5 n=60 v=40
17760 On ch=5 n=57 v=40
17820 On ch=5 n=57 v=0
17820 On ch=5 n=53 v=0
17820 On ch=5 n=65 v=0
17820 On ch=5 n=60 v=0
17820 Par ch=5 c=7 v=78
17820 Par ch=5 c=7 v=70
17820 On ch=5 n=60 v=40
17820 On ch=5 n=57 v=40
17820 On ch=5 n=53 v=40
17822 Par ch=5 c=7 v=86
17823 Par ch=5 c=7 v=95
17824 Par ch=5 c=7 v=103
17825 Par ch=5 c=7 v=111
17826 Par ch=5 c=7 v=119
17827 Par ch=5 c=7 v=127
17828 Par ch=5 c=7 v=119
17830 Par ch=5 c=7 v=111
17830 Par ch=5 c=7 v=103
17832 Par ch=5 c=7 v=95
17833 Par ch=5 c=7 v=86
17834 Par ch=5 c=7 v=78
17835 Par ch=5 c=7 v=70
17836 Par ch=5 c=7 v=62
17837 Par ch=5 c=7 v=53
17838 Par ch=5 c=7 v=45
17840 Par ch=5 c=7 v=37
17841 Par ch=5 c=7 v=29
17842 Par ch=5 c=7 v=21
17843 Par ch=5 c=7 v=12
17844 Par ch=5 c=7 v=21
17845 Par ch=5 c=7 v=29
17846 Par ch=5 c=7 v=37
17847 Par ch=5 c=7 v=45
17848 Par ch=5 c=7 v=53
17850 Par ch=5 c=7 v=62
17851 Par ch=5 c=7 v=70
17852 Par ch=5 c=7 v=78
17853 Par ch=5 c=7 v=86
17854 Par ch=5 c=7 v=95
17855 Par ch=5 c=7 v=103
17857 Par ch=5 c=7 v=119
17857 Par ch=5 c=7 v=111
17858 Par ch=5 c=7 v=127
17860 Par ch=5 c=7 v=119
17861 Par ch=5 c=7 v=111
17862 Par ch=5 c=7 v=103
17863 Par ch=5 c=7 v=95
17864 Par ch=5 c=7 v=86
17865 Par ch=5 c=7 v=78
17867 Par ch=5 c=7 v=70
17867 Par ch=5 c=7 v=62
17868 Par ch=5 c=7 v=53
17870 Par ch=5 c=7 v=45
17871 Par ch=5 c=7 v=37
17872 Par ch=5 c=7 v=29
17873 Par ch=5 c=7 v=21
17874 Par ch=5 c=7 v=12
17875 Par ch=5 c=7 v=21
17877 Par ch=5 c=7 v=29
17878 Par ch=5 c=7 v=37
17878 Par ch=5 c=7 v=45
17880 On ch=5 n=53 v=0
17880 On ch=5 n=57 v=0
17880 On ch=5 n=60 v=0
17880 On ch=5 n=60 v=40
17880 On ch=5 n=53 v=40
17880 On ch=5 n=57 v=40
17880 Par ch=5 c=7 v=53
17880 On ch=5 n=65 v=40
17881 Par ch=5 c=7 v=62
17882 Par ch=5 c=7 v=70
17883 Par ch=5 c=7 v=78
17884 Par ch=5 c=7 v=86
17885 Par ch=5 c=7 v=95
17887 Par ch=5 c=7 v=103
17888 Par ch=5 c=7 v=119
17888 Par ch=5 c=7 v=111
17890 Par ch=5 c=7 v=127
17891 Par ch=5 c=7 v=119
17892 Par ch=5 c=7 v=111
17893 Par ch=5 c=7 v=103
17894 Par ch=5 c=7 v=95
17895 Par ch=5 c=7 v=86
17897 Par ch=5 c=7 v=78
17898 Par ch=5 c=7 v=62
17898 Par ch=5 c=7 v=70
17900 Par ch=5 c=7 v=53
17901 Par ch=5 c=7 v=45
17902 Par ch=5 c=7 v=37
17903 Par ch=5 c=7 v=29
17904 Par ch=5 c=7 v=21
17905 Par ch=5 c=7 v=12
17907 Par ch=5 c=7 v=20
17908 Par ch=5 c=7 v=29
17909 Par ch=5 c=7 v=37
17910 Par ch=5 c=7 v=45
17911 Par ch=5 c=7 v=53
17912 Par ch=5 c=7 v=62
17913 Par ch=5 c=7 v=70
17915 Par ch=5 c=7 v=78
17915 Par ch=5 c=7 v=86
17917 Par ch=5 c=7 v=95
17918 Par ch=5 c=7 v=103
17919 Par ch=5 c=7 v=111
17920 Par ch=5 c=7 v=119
17921 Par ch=5 c=7 v=127
17922 Par ch=5 c=7 v=119
17923 Par ch=5 c=7 v=111
17925 Par ch=5 c=7 v=95
17925 Par ch=5 c=7 v=103
17927 Par ch=5 c=7 v=86
17928 Par ch=5 c=7 v=78
17929 Par ch=5 c=7 v=70
17930 Par ch=5 c=7 v=62
17931 Par ch=5 c=7 v=53
17932 Par ch=5 c=7 v=45
17933 Par ch=5 c=7 v=37
17935 Par ch=5 c=7 v=21
17935 Par ch=5 c=7 v=29
17937 Par ch=5 c=7 v=12
17938 Par ch=5 c=7 v=20
17939 Par ch=5 c=7 v=29
17940 On ch=5 n=65 v=0
17940 On ch=5 n=60 v=0
17940 On ch=5 n=53 v=0
17940 On ch=5 n=57 v=0
17940 On ch=5 n=53 v=40
17940 Par ch=5 c=7 v=78
17940 On ch=5 n=60 v=40
17940 On ch=5 n=57 v=40
17940 Par ch=5 c=7 v=86
17941 Par ch=5 c=7 v=95
17942 Par ch=5 c=7 v=103
17943 Par ch=5 c=7 v=111
17945 Par ch=5 c=7 v=119
17946 Par ch=5 c=7 v=127
17947 Par ch=5 c=7 v=119
17948 Par ch=5 c=7 v=111
17949 Par ch=5 c=7 v=103
17950 Par ch=5 c=7 v=95
17952 Par ch=5 c=7 v=78
17952 Par ch=5 c=7 v=86
17953 Par ch=5 c=7 v=70
17955 Par ch=5 c=7 v=62
17956 Par ch=5 c=7 v=53
17957 Par ch=5 c=7 v=45
17958 Par ch=5 c=7 v=37
17959 Par ch=5 c=7 v=29
17960 Par ch=5 c=7 v=21
17962 Par ch=5 c=7 v=12
17962 Par ch=5 c=7 v=21
17963 Par ch=5 c=7 v=29
17965 Par ch=5 c=7 v=37
17966 Par ch=5 c=7 v=45
17967 Par ch=5 c=7 v=53
17968 Par ch=5 c=7 v=62
17969 Par ch=5 c=7 v=70
17970 Par ch=5 c=7 v=78
17972 Par ch=5 c=7 v=95
17972 Par ch=5 c=7 v=86
17973 Par ch=5 c=7 v=103
17975 Par ch=5 c=7 v=111
17976 Par ch=5 c=7 v=119
17977 Par ch=5 c=7 v=127
17978 Par ch=5 c=7 v=119
17979 Par ch=5 c=7 v=111
17980 Par ch=5 c=7 v=103
17982 Par ch=5 c=7 v=95
17983 Par ch=5 c=7 v=86
17983 Par ch=5 c=7 v=78
17985 Par ch=5 c=7 v=70
17986 Par ch=5 c=7 v=62
17987 Par ch=5 c=7 v=53
17988 Par ch=5 c=7 v=45
17989 Par ch=5 c=7 v=37
17990 Par ch=5 c=7 v=29
17992 Par ch=5 c=7 v=21
17993 Par ch=5 c=7 v=12
17993 Par ch=5 c=7 v=21
17995 Par ch=5 c=7 v=29
17996 Par ch=5 c=7 v=37
17997 Par ch=5 c=7 v=45
17998 Par ch=5 c=7 v=53
17999 Par ch=5 c=7 v=62
18000 On ch=5 n=57 v=0
18000 On ch=5 n=60 v=0
18000 On ch=5 n=53 v=0
18000 On ch=5 n=53 v=40
18000 On ch=5 n=57 v=40
18000 On ch=5 n=60 v=40
18000 Par ch=5 c=7 v=70
18000 On ch=5 n=65 v=40
18002 Par ch=5 c=7 v=78
18003 Par ch=5 c=7 v=86
18004 Par ch=5 c=7 v=95
18005 Par ch=5 c=7 v=103
18006 Par ch=5 c=7 v=111
18007 Par ch=5 c=7 v=119
18008 Par ch=5 c=7 v=127
18009 Par ch=5 c=7 v=119
18010 Par ch=5 c=7 v=111
18011 Par ch=5 c=7 v=103
18013 Par ch=5 c=7 v=95
18014 Par ch=5 c=7 v=86
18015 Par ch=5 c=7 v=78
18016 Par ch=5 c=7 v=70
18017 Par ch=5 c=7 v=62
18018 Par ch=5 c=7 v=53
18020 Par ch=5 c=7 v=37
18020 Par ch=5 c=7 v=45
18022 Par ch=5 c=7 v=29
18023 Par ch=5 c=7 v=21
18024 Par ch=5 c=7 v=12
18025 Par ch=5 c=7 v=21
18026 Par ch=5 c=7 v=29
18027 Par ch=5 c=7 v=37
18028 Par ch=5 c=7 v=45
18030 Par ch=5 c=7 v=53
18030 Par ch=5 c=7 v=62
18032 Par ch=5 c=7 v=70
18033 Par ch=5 c=7 v=78
18034 Par ch=5 c=7 v=86
18035 Par ch=5 c=7 v=95
18036 Par ch=5 c=7 v=103
18037 Par ch=5 c=7 v=111
18038 Par ch=5 c=7 v=119
18040 Par ch=5 c=7 v=127
18041 Par ch=5 c=7 v=119
18042 Par ch=5 c=7 v=111
18043 Par ch=5 c=7 v=103
18044 Par ch=5 c=7 v=95
18045 Par ch=5 c=7 v=86
18046 Par ch=5 c=7 v=78
18047 Par ch=5 c=7 v=70
18048 Par ch=5 c=7 v=62
18050 Par ch=5 c=7 v=53
18051 Par ch=5 c=7 v=45
18052 Par ch=5 c=7 v=37
18053 Par ch=5 c=7 v=29
18054 Par ch=5 c=7 v=21
18055 Par ch=5 c=7 v=12
18057 Par ch=5 c=7 v=29
18057 Par ch=5 c=7 v=21
18058 Par ch=5 c=7 v=37
18060 On ch=5 n=65 v=0
18060 On ch=5 n=53 v=0
18060 On ch=5 n=57 v=0
18060 On ch=5 n=60 v=0
18060 On ch=5 n=60 v=40
18060 On ch=5 n=53 v=40
18060 On ch=5 n=57 v=40
18060 Par ch=5 c=7 v=45
18061 Par ch=5 c=7 v=53
18062 Par ch=5 c=7 v=62
18063 Par ch=5 c=7 v=70
18064 Par ch=5 c=7 v=78
18065 Par ch=5 c=7 v=86
18067 Par ch=5 c=7 v=103
18067 Par ch=5 c=7 v=95
18068 Par ch=5 c=7 v=111
18070 Par ch=5 c=7 v=119
18071 Par ch=5 c=7 v=127
18072 Par ch=5 c=7 v=119
18073 Par ch=5 c=7 v=111
18074 Par ch=5 c=7 v=103
18075 Par ch=5 c=7 v=95
18077 Par ch=5 c=7 v=86
18078 Par ch=5 c=7 v=78
18078 Par ch=5 c=7 v=70
18080 Par ch=5 c=7 v=62
18081 Par ch=5 c=7 v=53
18082 Par ch=5 c=7 v=45
18083 Par ch=5 c=7 v=37
18084 Par ch=5 c=7 v=29
18085 Par ch=5 c=7 v=21
18087 Par ch=5 c=7 v=12
18088 Par ch=5 c=7 v=20
18088 Par ch=5 c=7 v=29
18090 Par ch=5 c=7 v=37
18091 Par ch=5 c=7 v=45
18092 Par ch=5 c=7 v=53
18093 Par ch=5 c=7 v=62
18094 Par ch=5 c=7 v=70
18095 Par ch=5 c=7 v=78
18097 Par ch=5 c=7 v=86
18098 Par ch=5 c=7 v=95
18099 Par ch=5 c=7 v=103
18100 Par ch=5 c=7 v=111
18101 Par ch=5 c=7 v=119
18102 Par ch=5 c=7 v=127
18103 Par ch=5 c=7 v=119
18104 Par ch=5 c=7 v=111
18105 Par ch=5 c=7 v=103
18107 Par ch=5 c=7 v=95
18108 Par ch=5 c=7 v=86
18109 Par ch=5 c=7 v=78
18110 Par ch=5 c=7 v=70
18111 Par ch=5 c=7 v=62
18112 Par ch=5 c=7 v=53
18113 Par ch=5 c=7 v=45
18115 Par ch=5 c=7 v=29
18115 Par ch=5 c=7 v=37
18117 Par ch=5 c=7 v=21
18118 Par ch=5 c=7 v=12
18119 Par ch=5 c=7 v=20
18120 On ch=5 n=57 v=0
18120 On ch=5 n=53 v=0
18120 On ch=5 n=60 v=0
18120 Par ch=5 c=7 v=29
18120 On ch=5 n=53 v=40
18120 On ch=5 n=65 v=40
18120 On ch=5 n=57 v=40
18120 On ch=5 n=60 v=40
18121 Par ch=5 c=7 v=37
18122 Par ch=5 c=7 v=45
18123 Par ch=5 c=7 v=53
18125 Par ch=5 c=7 v=62
18125 Par ch=5 c=7 v=70
18127 Par ch=5 c=7 v=78
18128 Par ch=5 c=7 v=86
18129 Par ch=5 c=7 v=95
18130 Par ch=5 c=7 v=103
18131 Par ch=5 c=7 v=111
18132 Par ch=5 c=7 v=119
18133 Par ch=5 c=7 v=127
18135 Par ch=5 c=7 v=119
18136 Par ch=5 c=7 v=111
18137 Par ch=5 c=7 v=103
18138 Par ch=5 c=7 v=95
18139 Par ch=5 c=7 v=86
18140 Par ch=5 c=7 v=78
18141 Par ch=5 c=7 v=70
18142 Par ch=5 c=7 v=62
18143 Par ch=5 c=7 v=53
18145 Par ch=5 c=7 v=45
18146 Par ch=5 c=7 v=37
18147 Par ch=5 c=7 v=29
18148 Par ch=5 c=7 v=21
18149 Par ch=5 c=7 v=12
18150 Par ch=5 c=7 v=20
18152 Par ch=5 c=7 v=37
18152 Par ch=5 c=7 v=29
18153 Par ch=5 c=7 v=45
18155 Par ch=5 c=7 v=53
18156 Par ch=5 c=7 v=62
18157 Par ch=5 c=7 v=70
18158 Par ch=5 c=7 v=78
18159 Par ch=5 c=7 v=86
18160 Par ch=5 c=7 v=95
18162 Par ch=5 c=7 v=111
18162 Par ch=5 c=7 v=103
18163 Par ch=5 c=7 v=119
18165 Par ch=5 c=7 v=127
18166 Par ch=5 c=7 v=119
18167 Par ch=5 c=7 v=111
18168 Par ch=5 c=7 v=103
18169 Par ch=5 c=7 v=95
18170 Par ch=5 c=7 v=86
18172 Par ch=5 c=7 v=78
18173 Par ch=5 c=7 v=70
18173 Par ch=5 c=7 v=62
18175 Par ch=5 c=7 v=53
18176 Par ch=5 c=7 v=45
18177 Par ch=5 c=7 v=37
18178 Par ch=5 c=7 v=29
18179 Par ch=5 c=7 v=21
18180 On ch=5 n=60 v=0
18180 On ch=5 n=53 v=0
18180 On ch=5 n=65 v=0
18180 On ch=5 n=57 v=0
18180 On ch=5 n=60 v=40
18180 On ch=5 n=53 v=40
18180 On ch=5 n=57 v=40
18180 Par ch=5 c=7 v=12
18182 Par ch=5 c=7 v=20
18183 Par ch=5 c=7 v=37
18183 Par ch=5 c=7 v=29
18185 Par ch=5 c=7 v=45
18186 Par ch=5 c=7 v=53
18187 Par ch=5 c=7 v=62
18188 Par ch=5 c=7 v=70
18189 Par ch=5 c=7 v=78
18190 Par ch=5 c=7 v=86
18192 Par ch=5 c=7 v=95
18193 Par ch=5 c=7 v=103
18194 Par ch=5 c=7 v=111
18195 Par ch=5 c=7 v=119
18196 Par ch=5 c=7 v=127
18197 Par ch=5 c=7 v=119
18198 Par ch=5 c=7 v=111
18199 Par ch=5 c=7 v=103
18200 Par ch=5 c=7 v=95
18202 Par ch=5 c=7 v=86
18203 Par ch=5 c=7 v=78
18204 Par ch=5 c=7 v=70
18205 Par ch=5 c=7 v=62
18206 Par ch=5 c=7 v=54
18207 Par ch=5 c=7 v=45
18208 Par ch=5 c=7 v=37
18210 Par ch=5 c=7 v=29
18210 Par ch=5 c=7 v=21
18211 Par ch=5 c=7 v=12
18213 Par ch=5 c=7 v=20
18214 Par ch=5 c=7 v=29
18215 Par ch=5 c=7 v=37
18216 Par ch=5 c=7 v=45
18217 Par ch=5 c=7 v=53
18218 Par ch=5 c=7 v=62
18220 Par ch=5 c=7 v=78
18220 Par ch=5 c=7 v=70
18222 Par ch=5 c=7 v=86
18223 Par ch=5 c=7 v=95
18224 Par ch=5 c=7 v=103
18225 Par ch=5 c=7 v=111
18226 Par ch=5 c=7 v=119
18227 Par ch=5 c=7 v=127
18228 Par ch=5 c=7 v=119
18230 Par ch=5 c=7 v=111
18231 Par ch=5 c=7 v=103
18232 Par ch=5 c=7 v=95
18233 Par ch=5 c=7 v=86
18234 Par ch=5 c=7 v=78
18235 Par ch=5 c=7 v=70
18236 Par ch=5 c=7 v=62
18237 Par ch=5 c=7 v=54
18238 Par ch=5 c=7 v=45
18240 On ch=5 n=57 v=0
18240 On ch=5 n=53 v=0
18240 On ch=5 n=60 v=0
18240 Par ch=5 c=7 v=78
18240 On ch=5 n=60 v=40
18240 On ch=5 n=52 v=40
18240 On ch=5 n=55 v=40
18240 On ch=5 n=64 v=40
18240 Par ch=5 c=7 v=86
18241 Par ch=5 c=7 v=95
18241 Par ch=5 c=7 v=103
18243 Par ch=5 c=7 v=111
18244 Par ch=5 c=7 v=119
18245 Par ch=5 c=7 v=127
18247 Par ch=5 c=7 v=119
18247 Par ch=5 c=7 v=111
18248 Par ch=5 c=7 v=103
18250 Par ch=5 c=7 v=95
18251 Par ch=5 c=7 v=86
18252 Par ch=5 c=7 v=78
18253 Par ch=5 c=7 v=70
18254 Par ch=5 c=7 v=62
18255 Par ch=5 c=7 v=53
18256 Par ch=5 c=7 v=45
18257 Par ch=5 c=7 v=37
18258 Par ch=5 c=7 v=29
18260 Par ch=5 c=7 v=21
18261 Par ch=5 c=7 v=12
18262 Par ch=5 c=7 v=21
18263 Par ch=5 c=7 v=29
18264 Par ch=5 c=7 v=37
18265 Par ch=5 c=7 v=45
18267 Par ch=5 c=7 v=53
18268 Par ch=5 c=7 v=70
18268 Par ch=5 c=7 v=62
18270 Par ch=5 c=7 v=78
18271 Par ch=5 c=7 v=86
18272 Par ch=5 c=7 v=95
18273 Par ch=5 c=7 v=103
18274 Par ch=5 c=7 v=111
18275 Par ch=5 c=7 v=119
18277 Par ch=5 c=7 v=127
18278 Par ch=5 c=7 v=119
18278 Par ch=5 c=7 v=111
18280 Par ch=5 c=7 v=103
18281 Par ch=5 c=7 v=95
18282 Par ch=5 c=7 v=86
18283 Par ch=5 c=7 v=78
18284 Par ch=5 c=7 v=70
18285 Par ch=5 c=7 v=62
18287 Par ch=5 c=7 v=53
18288 Par ch=5 c=7 v=37
18288 Par ch=5 c=7 v=45
18290 Par ch=5 c=7 v=29
18291 Par ch=5 c=7 v=21
18292 Par ch=5 c=7 v=12
18293 Par ch=5 c=7 v=21
18294 Par ch=5 c=7 v=29
18295 Par ch=5 c=7 v=37
18297 Par ch=5 c=7 v=45
18298 Par ch=5 c=7 v=53
18299 Par ch=5 c=7 v=62
18300 On ch=5 n=64 v=0
18300 On ch=5 n=60 v=0
18300 On ch=5 n=52 v=0
18300 On ch=5 n=55 v=0
18300 On ch=5 n=52 v=40
18300 Par ch=5 c=7 v=70
18300 On ch=5 n=60 v=40
18300 On ch=5 n=55 v=40
18301 Par ch=5 c=7 v=78
18302 Par ch=5 c=7 v=86
18303 Par ch=5 c=7 v=95
18305 Par ch=5 c=7 v=103
18305 Par ch=5 c=7 v=111
18307 Par ch=5 c=7 v=119
18308 Par ch=5 c=7 v=127
18309 Par ch=5 c=7 v=119
18310 Par ch=5 c=7 v=111
18311 Par ch=5 c=7 v=103
18312 Par ch=5 c=7 v=95
18313 Par ch=5 c=7 v=86
18315 Par ch=5 c=7 v=70
18315 Par ch=5 c=7 v=78
18317 Par ch=5 c=7 v=62
18318 Par ch=5 c=7 v=53
18319 Par ch=5 c=7 v=45
18320 Par ch=5 c=7 v=37
18321 Par ch=5 c=7 v=29
18322 Par ch=5 c=7 v=21
18323 Par ch=5 c=7 v=12
18325 Par ch=5 c=7 v=21
18325 Par ch=5 c=7 v=29
18327 Par ch=5 c=7 v=37
18328 Par ch=5 c=7 v=45
18329 Par ch=5 c=7 v=53
18330 Par ch=5 c=7 v=62
18331 Par ch=5 c=7 v=70
18332 Par ch=5 c=7 v=78
18333 Par ch=5 c=7 v=86
18335 Par ch=5 c=7 v=95
18336 Par ch=5 c=7 v=103
18337 Par ch=5 c=7 v=111
18338 Par ch=5 c=7 v=119
18339 Par ch=5 c=7 v=127
18340 Par ch=5 c=7 v=119
18342 Par ch=5 c=7 v=111
18342 Par ch=5 c=7 v=103
18343 Par ch=5 c=7 v=95
18345 Par ch=5 c=7 v=86
18346 Par ch=5 c=7 v=78
18347 Par ch=5 c=7 v=70
18348 Par ch=5 c=7 v=62
18349 Par ch=5 c=7 v=53
18350 Par ch=5 c=7 v=45
18352 Par ch=5 c=7 v=29
18352 Par ch=5 c=7 v=37
18353 Par ch=5 c=7 v=21
18355 Par ch=5 c=7 v=12
18356 Par ch=5 c=7 v=21
18357 Par ch=5 c=7 v=29
18358 Par ch=5 c=7 v=37
18359 Par ch=5 c=7 v=45
18360 On ch=5 n=55 v=0
18360 On ch=5 n=60 v=0
18360 On ch=5 n=52 v=0
18360 On ch=5 n=60 v=40
18360 On ch=5 n=52 v=40
18360 Par ch=5 c=7 v=53
18360 On ch=5 n=55 v=40
18360 On ch=5 n=64 v=40
18362 Par ch=5 c=7 v=70
18362 Par ch=5 c=7 v=62
18363 Par ch=5 c=7 v=78
18365 Par ch=5 c=7 v=86
18366 Par ch=5 c=7 v=95
18367 Par ch=5 c=7 v=103
18368 Par ch=5 c=7 v=111
18369 Par ch=5 c=7 v=119
18370 Par ch=5 c=7 v=127
18372 Par ch=5 c=7 v=119
18373 Par ch=5 c=7 v=111
18373 Par ch=5 c=7 v=103
18375 Par ch=5 c=7 v=95
18376 Par ch=5 c=7 v=86
18377 Par ch=5 c=7 v=78
18378 Par ch=5 c=7 v=70
18379 Par ch=5 c=7 v=62
18380 Par ch=5 c=7 v=53
18382 Par ch=5 c=7 v=45
18383 Par ch=5 c=7 v=37
18383 Par ch=5 c=7 v=29
18385 Par ch=5 c=7 v=21
18386 Par ch=5 c=7 v=12
18387 Par ch=5 c=7 v=20
18388 Par ch=5 c=7 v=29
18389 Par ch=5 c=7 v=37
18390 Par ch=5 c=7 v=45
18392 Par ch=5 c=7 v=53
18393 Par ch=5 c=7 v=62
18394 Par ch=5 c=7 v=70
18395 Par ch=5 c=7 v=78
18396 Par ch=5 c=7 v=86
18397 Par ch=5 c=7 v=95
18398 Par ch=5 c=7 v=103
18399 Par ch=5 c=7 v=111
18400 Par ch=5 c=7 v=119
18402 Par ch=5 c=7 v=127
18403 Par ch=5 c=7 v=119
18404 Par ch=5 c=7 v=111
18405 Par ch=5 c=7 v=103
18406 Par ch=5 c=7 v=95
18407 Par ch=5 c=7 v=86
18408 Par ch=5 c=7 v=78
18410 Par ch=5 c=7 v=70
18410 Par ch=5 c=7 v=62
18412 Par ch=5 c=7 v=53
18413 Par ch=5 c=7 v=45
18414 Par ch=5 c=7 v=37
18415 Par ch=5 c=7 v=29
18416 Par ch=5 c=7 v=21
18417 Par ch=5 c=7 v=12
18418 Par ch=5 c=7 v=20
18420 On ch=5 n=64 v=0
18420 On ch=5 n=60 v=0
18420 On ch=5 n=52 v=0
18420 On ch=5 n=55 v=0
18420 Par ch=5 c=7 v=86
18420 On ch=5 n=55 v=40
18420 On ch=5 n=52 v=40
18420 On ch=5 n=60 v=40
18420 Par ch=5 c=7 v=78
18420 Par ch=5 c=7 v=95
18422 Par ch=5 c=7 v=103
18423 Par ch=5 c=7 v=111
18424 Par ch=5 c=7 v=119
18425 Par ch=5 c=7 v=127
18426 Par ch=5 c=7 v=119
18427 Par ch=5 c=7 v=111
18428 Par ch=5 c=7 v=103
18430 Par ch=5 c=7 v=95
18431 Par ch=5 c=7 v=86
18432 Par ch=5 c=7 v=78
18433 Par ch=5 c=7 v=70
18434 Par ch=5 c=7 v=62
18435 Par ch=5 c=7 v=53
18436 Par ch=5 c=7 v=45
18437 Par ch=5 c=7 v=37
18438 Par ch=5 c=7 v=29
18440 Par ch=5 c=7 v=21
18441 Par ch=5 c=7 v=12
18442 Par ch=5 c=7 v=21
18443 Par ch=5 c=7 v=29
18444 Par ch=5 c=7 v=37
18445 Par ch=5 c=7 v=45
18447 Par ch=5 c=7 v=62
18447 Par ch=5 c=7 v=53
18448 Par ch=5 c=7 v=70
18450 Par ch=5 c=7 v=78
18451 Par ch=5 c=7 v=86
18452 Par ch=5 c=7 v=95
18453 Par ch=5 c=7 v=103
18454 Par ch=5 c=7 v=111
18455 Par ch=5 c=7 v=119
18457 Par ch=5 c=7 v=127
18457 Par ch=5 c=7 v=119
18458 Par ch=5 c=7 v=111
18460 Par ch=5 c=7 v=103
18461 Par ch=5 c=7 v=95
18462 Par ch=5 c=7 v=86
18463 Par ch=5 c=7 v=78
18464 Par ch=5 c=7 v=70
18465 Par ch=5 c=7 v=62
18467 Par ch=5 c=7 v=53
18468 Par ch=5 c=7 v=45
18468 Par ch=5 c=7 v=37
18470 Par ch=5 c=7 v=29
18471 Par ch=5 c=7 v=21
18472 Par ch=5 c=7 v=12
18473 Par ch=5 c=7 v=21
18474 Par ch=5 c=7 v=29
18475 Par ch=5 c=7 v=37
18477 Par ch=5 c=7 v=45
18478 Par ch=5 c=7 v=62
18478 Par ch=5 c=7 v=53
18480 On ch=5 n=60 v=0
18480 On ch=5 n=52 v=0
18480 On ch=5 n=55 v=0
18480 Par ch=5 c=7 v=70
18480 On ch=5 n=64 v=40
18480 On ch=5 n=60 v=40
18480 On ch=5 n=52 v=40
18480 On ch=5 n=55 v=40
18481 Par ch=5 c=7 v=78
18482 Par ch=5 c=7 v=86
18483 Par ch=5 c=7 v=95
18484 Par ch=5 c=7 v=103
18485 Par ch=5 c=7 v=111
18487 Par ch=5 c=7 v=119
18488 Par ch=5 c=7 v=127
18489 Par ch=5 c=7 v=119
18490 Par ch=5 c=7 v=111
18491 Par ch=5 c=7 v=103
18492 Par ch=5 c=7 v=95
18493 Par ch=5 c=7 v=86
18494 Par ch=5 c=7 v=78
18495 Par ch=5 c=7 v=70
18497 Par ch=5 c=7 v=62
18498 Par ch=5 c=7 v=53
18499 Par ch=5 c=7 v=45
18500 Par ch=5 c=7 v=37
18501 Par ch=5 c=7 v=29
18502 Par ch=5 c=7 v=21
18503 Par ch=5 c=7 v=12
18505 Par ch=5 c=7 v=21
18505 Par ch=5 c=7 v=29
18507 Par ch=5 c=7 v=37
18508 Par ch=5 c=7 v=45
18509 Par ch=5 c=7 v=53
18510 Par ch=5 c=7 v=62
18511 Par ch=5 c=7 v=70
18512 Par ch=5 c=7 v=78
18513 Par ch=5 c=7 v=86
18515 Par ch=5 c=7 v=95
18515 Par ch=5 c=7 v=103
18517 Par ch=5 c=7 v=111
18518 Par ch=5 c=7 v=119
18519 Par ch=5 c=7 v=127
18520 Par ch=5 c=7 v=119
18521 Par ch=5 c=7 v=111
18522 Par ch=5 c=7 v=103
18523 Par ch=5 c=7 v=95
18525 Par ch=5 c=7 v=86
18526 Par ch=5 c=7 v=78
18527 Par ch=5 c=7 v=70
18528 Par ch=5 c=7 v=62
18529 Par ch=5 c=7 v=53
18530 Par ch=5 c=7 v=45
18531 Par ch=5 c=7 v=37
18532 Par ch=5 c=7 v=29
18533 Par ch=5 c=7 v=21
18535 Par ch=5 c=7 v=12
18536 Par ch=5 c=7 v=21
18537 Par ch=5 c=7 v=29
18538 Par ch=5 c=7 v=37
18539 Par ch=5 c=7 v=45
18540 On ch=5 n=55 v=0
18540 On ch=5 n=64 v=0
18540 On ch=5 n=60 v=0
18540 On ch=5 n=52 v=0
18540 On ch=5 n=60 v=40
18540 Par ch=5 c=7 v=53
18540 On ch=5 n=55 v=40
18540 On ch=5 n=52 v=40
18542 Par ch=5 c=7 v=62
18542 Par ch=5 c=7 v=70
18543 Par ch=5 c=7 v=78
18545 Par ch=5 c=7 v=86
18546 Par ch=5 c=7 v=95
18547 Par ch=5 c=7 v=103
18548 Par ch=5 c=7 v=111
18549 Par ch=5 c=7 v=119
18550 Par ch=5 c=7 v=127
18552 Par ch=5 c=7 v=111
18552 Par ch=5 c=7 v=119
18553 Par ch=5 c=7 v=103
18555 Par ch=5 c=7 v=95
18556 Par ch=5 c=7 v=86
18557 Par ch=5 c=7 v=78
18558 Par ch=5 c=7 v=70
18559 Par ch=5 c=7 v=62
18560 Par ch=5 c=7 v=53
18562 Par ch=5 c=7 v=45
18563 Par ch=5 c=7 v=37
18563 Par ch=5 c=7 v=29
18565 Par ch=5 c=7 v=21
18566 Par ch=5 c=7 v=12
18567 Par ch=5 c=7 v=20
18568 Par ch=5 c=7 v=29
18569 Par ch=5 c=7 v=37
18570 Par ch=5 c=7 v=45
18572 Par ch=5 c=7 v=53
18573 Par ch=5 c=7 v=70
18573 Par ch=5 c=7 v=62
18575 Par ch=5 c=7 v=78
18576 Par ch=5 c=7 v=86
18577 Par ch=5 c=7 v=95
18578 Par ch=5 c=7 v=103
18579 Par ch=5 c=7 v=111
18580 Par ch=5 c=7 v=119
18582 Par ch=5 c=7 v=127
18583 Par ch=5 c=7 v=119
18583 Par ch=5 c=7 v=111
18585 Par ch=5 c=7 v=103
18586 Par ch=5 c=7 v=95
18587 Par ch=5 c=7 v=86
18588 Par ch=5 c=7 v=78
18589 Par ch=5 c=7 v=70
18590 Par ch=5 c=7 v=62
18592 Par ch=5 c=7 v=53
18593 Par ch=5 c=7 v=45
18594 Par ch=5 c=7 v=37
18595 Par ch=5 c=7 v=29
18596 Par ch=5 c=7 v=21
18597 Par ch=5 c=7 v=12
18598 Par ch=5 c=7 v=20
18600 On ch=5 n=52 v=0
18600 On ch=5 n=55 v=0
18600 On ch=5 n=60 v=0
18600 Par ch=5 c=7 v=37
18600 On ch=5 n=52 v=40
18600 On ch=5 n=60 v=40
18600 Par ch=5 c=7 v=29
18600 On ch=5 n=55 v=40
18600 On ch=5 n=64 v=40
18602 Par ch=5 c=7 v=45
18603 Par ch=5 c=7 v=53
18604 Par ch=5 c=7 v=62
18605 Par ch=5 c=7 v=70
18606 Par ch=5 c=7 v=78
18607 Par ch=5 c=7 v=86
18608 Par ch=5 c=7 v=95
18610 Par ch=5 c=7 v=111
18610 Par ch=5 c=7 v=103
18612 Par ch=5 c=7 v=119
18613 Par ch=5 c=7 v=127
18614 Par ch=5 c=7 v=119
18615 Par ch=5 c=7 v=111
18616 Par ch=5 c=7 v=103
18617 Par ch=5 c=7 v=95
18618 Par ch=5 c=7 v=86
18620 Par ch=5 c=7 v=78
18620 Par ch=5 c=7 v=70
18622 Par ch=5 c=7 v=62
18623 Par ch=5 c=7 v=53
18624 Par ch=5 c=7 v=45
18625 Par ch=5 c=7 v=37
18626 Par ch=5 c=7 v=29
18627 Par ch=5 c=7 v=21
18628 Par ch=5 c=7 v=12
18630 Par ch=5 c=7 v=20
18631 Par ch=5 c=7 v=29
18632 Par ch=5 c=7 v=37
18633 Par ch=5 c=7 v=45
18634 Par ch=5 c=7 v=53
18635 Par ch=5 c=7 v=62
18637 Par ch=5 c=7 v=78
18637 Par ch=5 c=7 v=70
18638 Par ch=5 c=7 v=86
18640 Par ch=5 c=7 v=95
18641 Par ch=5 c=7 v=103
18642 Par ch=5 c=7 v=111
18643 Par ch=5 c=7 v=119
18644 Par ch=5 c=7 v=127
18645 Par ch=5 c=7 v=119
18647 Par ch=5 c=7 v=103
18647 Par ch=5 c=7 v=111
18648 Par ch=5 c=7 v=95
18650 Par ch=5 c=7 v=86
18651 Par ch=5 c=7 v=78
18652 Par ch=5 c=7 v=70
18653 Par ch=5 c=7 v=62
18654 Par ch=5 c=7 v=53
18655 Par ch=5 c=7 v=45
18656 Par ch=5 c=7 v=37
18658 Par ch=5 c=7 v=21
18658 Par ch=5 c=7 v=29
18660 On ch=5 n=64 v=0
18660 On ch=5 n=52 v=0
18660 On ch=5 n=60 v=0
18660 On ch=5 n=55 v=0
18660 On ch=5 n=60 v=40
18660 On ch=5 n=55 v=40
18660 Par ch=5 c=7 v=12
18660 On ch=5 n=52 v=40
18661 Par ch=5 c=7 v=20
18662 Par ch=5 c=7 v=29
18663 Par ch=5 c=7 v=37
18664 Par ch=5 c=7 v=45
18665 Par ch=5 c=7 v=53
18667 Par ch=5 c=7 v=62
18668 Par ch=5 c=7 v=70
18668 Par ch=5 c=7 v=78
18670 Par ch=5 c=7 v=86
18671 Par ch=5 c=7 v=95
18672 Par ch=5 c=7 v=103
18673 Par ch=5 c=7 v=111
18674 Par ch=5 c=7 v=119
18675 Par ch=5 c=7 v=127
18677 Par ch=5 c=7 v=119
18678 Par ch=5 c=7 v=111
18678 Par ch=5 c=7 v=103
18680 Par ch=5 c=7 v=95
18681 Par ch=5 c=7 v=86
18682 Par ch=5 c=7 v=78
18683 Par ch=5 c=7 v=70
18684 Par ch=5 c=7 v=62
18685 Par ch=5 c=7 v=54
18686 Par ch=5 c=7 v=45
18688 Par ch=5 c=7 v=37
18689 Par ch=5 c=7 v=29
18690 Par ch=5 c=7 v=21
18691 Par ch=5 c=7 v=12
18692 Par ch=5 c=7 v=20
18693 Par ch=5 c=7 v=29
18694 Par ch=5 c=7 v=37
18695 Par ch=5 c=7 v=45
18697 Par ch=5 c=7 v=53
18698 Par ch=5 c=7 v=62
18699 Par ch=5 c=7 v=70
18700 Par ch=5 c=7 v=78
18701 Par ch=5 c=7 v=86
18702 Par ch=5 c=7 v=95
18703 Par ch=5 c=7 v=103
18705 Par ch=5 c=7 v=119
18705 Par ch=5 c=7 v=111
18707 Par ch=5 c=7 v=127
18708 Par ch=5 c=7 v=119
18709 Par ch=5 c=7 v=111
18710 Par ch=5 c=7 v=103
18711 Par ch=5 c=7 v=95
18712 Par ch=5 c=7 v=86
18713 Par ch=5 c=7 v=78
18715 Par ch=5 c=7 v=62
18715 Par ch=5 c=7 v=70
18716 Par ch=5 c=7 v=54
18718 Par ch=5 c=7 v=45
18719 Par ch=5 c=7 v=37
18720 On ch=5 n=52 v=0
18720 On ch=5 n=55 v=0
18720 On ch=5 n=60 v=0
18720 On ch=5 n=53 v=40
18720 Par ch=5 c=7 v=78
18720 Par ch=5 c=7 v=86
18720 On ch=5 n=57 v=40
18720 On ch=5 n=62 v=40
18720 On ch=5 n=50 v=40
18721 Par ch=5 c=7 v=95
18722 Par ch=5 c=7 v=103
18723 Par ch=5 c=7 v=111
18725 Par ch=5 c=7 v=119
18726 Par ch=5 c=7 v=127
18727 Par ch=5 c=7 v=119
18728 Par ch=5 c=7 v=111
18729 Par ch=5 c=7 v=103
18730 Par ch=5 c=7 v=95
18731 Par ch=5 c=7 v=86
18732 Par ch=5 c=7 v=78
18733 Par ch=5 c=7 v=70
18735 Par ch=5 c=7 v=62
18736 Par ch=5 c=7 v=53
18737 Par ch=5 c=7 v=45
18738 Par ch=5 c=7 v=37
18739 Par ch=5 c=7 v=29
18740 Par ch=5 c=7 v=21
18742 Par ch=5 c=7 v=21
18742 Par ch=5 c=7 v=12
18743 Par ch=5 c=7 v=29
18745 Par ch=5 c=7 v=37
18746 Par ch=5 c=7 v=45
18747 Par ch=5 c=7 v=53
18748 Par ch=5 c=7 v=62
18749 Par ch=5 c=7 v=70
18750 Par ch=5 c=7 v=78
18752 Par ch=5 c=7 v=95
18752 Par ch=5 c=7 v=86
18753 Par ch=5 c=7 v=103
18755 Par ch=5 c=7 v=111
18756 Par ch=5 c=7 v=119
18757 Par ch=5 c=7 v=127
18758 Par ch=5 c=7 v=119
18759 Par ch=5 c=7 v=111
18760 Par ch=5 c=7 v=103
18761 Par ch=5 c=7 v=95
18763 Par ch=5 c=7 v=86
18763 Par ch=5 c=7 v=78
18765 Par ch=5 c=7 v=70
18766 Par ch=5 c=7 v=62
18767 Par ch=5 c=7 v=53
18768 Par ch=5 c=7 v=45
18769 Par ch=5 c=7 v=37
18770 Par ch=5 c=7 v=29
18772 Par ch=5 c=7 v=21
18773 Par ch=5 c=7 v=21
18773 Par ch=5 c=7 v=12
18775 Par ch=5 c=7 v=29
18776 Par ch=5 c=7 v=37
18777 Par ch=5 c=7 v=45
18778 Par ch=5 c=7 v=53
18779 Par ch=5 c=7 v=62
18780 On ch=5 n=50 v=0
18780 On ch=5 n=53 v=0
18780 On ch=5 n=57 v=0
18780 On ch=5 n=62 v=0
18780 On ch=5 n=57 v=40
18780 Par ch=5 c=7 v=70
18780 On ch=5 n=53 v=40
18780 On ch=5 n=50 v=40
18782 Par ch=5 c=7 v=78
18783 Par ch=5 c=7 v=86
18784 Par ch=5 c=7 v=95
18785 Par ch=5 c=7 v=103
18786 Par ch=5 c=7 v=111
18787 Par ch=5 c=7 v=119
18788 Par ch=5 c=7 v=127
18789 Par ch=5 c=7 v=119
18790 Par ch=5 c=7 v=111
18792 Par ch=5 c=7 v=103
18793 Par ch=5 c=7 v=95
18794 Par ch=5 c=7 v=86
18795 Par ch=5 c=7 v=78
18796 Par ch=5 c=7 v=70
18797 Par ch=5 c=7 v=62
18798 Par ch=5 c=7 v=53
18800 Par ch=5 c=7 v=37
18800 Par ch=5 c=7 v=45
18802 Par ch=5 c=7 v=29
18803 Par ch=5 c=7 v=21
18804 Par ch=5 c=7 v=12
18805 Par ch=5 c=7 v=21
18806 Par ch=5 c=7 v=29
18807 Par ch=5 c=7 v=37
18808 Par ch=5 c=7 v=45
18810 Par ch=5 c=7 v=53
18810 Par ch=5 c=7 v=62
18812 Par ch=5 c=7 v=70
18813 Par ch=5 c=7 v=78
18814 Par ch=5 c=7 v=86
18815 Par ch=5 c=7 v=95
18816 Par ch=5 c=7 v=103
18817 Par ch=5 c=7 v=111
18818 Par ch=5 c=7 v=119
18820 Par ch=5 c=7 v=127
18821 Par ch=5 c=7 v=119
18822 Par ch=5 c=7 v=111
18823 Par ch=5 c=7 v=103
18824 Par ch=5 c=7 v=95
18825 Par ch=5 c=7 v=86
18826 Par ch=5 c=7 v=78
18827 Par ch=5 c=7 v=70
18828 Par ch=5 c=7 v=62
18830 Par ch=5 c=7 v=53
18831 Par ch=5 c=7 v=45
18832 Par ch=5 c=7 v=37
18833 Par ch=5 c=7 v=29
18834 Par ch=5 c=7 v=21
18835 Par ch=5 c=7 v=12
18837 Par ch=5 c=7 v=29
18837 Par ch=5 c=7 v=21
18838 Par ch=5 c=7 v=37
18840 On ch=5 n=50 v=0
18840 On ch=5 n=53 v=0
18840 On ch=5 n=57 v=0
18840 Par ch=5 c=7 v=45
18840 On ch=5 n=57 v=40
18840 On ch=5 n=50 v=40
18840 On ch=5 n=62 v=40
18840 On ch=5 n=53 v=40
18841 Par ch=5 c=7 v=53
18842 Par ch=5 c=7 v=62
18843 Par ch=5 c=7 v=70
18844 Par ch=5 c=7 v=78
18845 Par ch=5 c=7 v=86
18847 Par ch=5 c=7 v=103
18847 Par ch=5 c=7 v=95
18848 Par ch=5 c=7 v=111
18850 Par ch=5 c=7 v=119
18851 Par ch=5 c=7 v=127
18852 Par ch=5 c=7 v=119
18853 Par ch=5 c=7 v=111
18854 Par ch=5 c=7 v=103
18855 Par ch=5 c=7 v=95
18857 Par ch=5 c=7 v=86
18858 Par ch=5 c=7 v=70
18858 Par ch=5 c=7 v=78
18860 Par ch=5 c=7 v=62
18861 Par ch=5 c=7 v=53
18862 Par ch=5 c=7 v=45
18863 Par ch=5 c=7 v=37
18864 Par ch=5 c=7 v=29
18865 Par ch=5 c=7 v=21
18867 Par ch=5 c=7 v=12
18868 Par ch=5 c=7 v=29
18868 Par ch=5 c=7 v=20
18870 Par ch=5 c=7 v=37
18871 Par ch=5 c=7 v=45
18872 Par ch=5 c=7 v=53
18873 Par ch=5 c=7 v=62
18874 Par ch=5 c=7 v=70
18875 Par ch=5 c=7 v=78
18877 Par ch=5 c=7 v=86
18878 Par ch=5 c=7 v=95
18879 Par ch=5 c=7 v=103
18880 Par ch=5 c=7 v=111
18881 Par ch=5 c=7 v=119
18882 Par ch=5 c=7 v=127
18883 Par ch=5 c=7 v=119
18884 Par ch=5 c=7 v=111
18885 Par ch=5 c=7 v=103
18887 Par ch=5 c=7 v=95
18888 Par ch=5 c=7 v=86
18889 Par ch=5 c=7 v=78
18890 Par ch=5 c=7 v=70
18891 Par ch=5 c=7 v=62
18892 Par ch=5 c=7 v=53
18893 Par ch=5 c=7 v=45
18895 Par ch=5 c=7 v=37
18895 Par ch=5 c=7 v=29
18897 Par ch=5 c=7 v=21
18898 Par ch=5 c=7 v=12
18899 Par ch=5 c=7 v=20
18900 On ch=5 n=53 v=0
18900 On ch=5 n=57 v=0
18900 On ch=5 n=50 v=0
18900 On ch=5 n=62 v=0
18900 Par ch=5 c=7 v=86
18900 On ch=5 n=53 v=40
18900 On ch=5 n=57 v=40
18900 On ch=5 n=50 v=40
18900 Par ch=5 c=7 v=78
18901 Par ch=5 c=7 v=95
18902 Par ch=5 c=7 v=103
18903 Par ch=5 c=7 v=111
18905 Par ch=5 c=7 v=119
18905 Par ch=5 c=7 v=127
18907 Par ch=5 c=7 v=119
18908 Par ch=5 c=7 v=111
18909 Par ch=5 c=7 v=103
18910 Par ch=5 c=7 v=95
18911 Par ch=5 c=7 v=86
18912 Par ch=5 c=7 v=78
18913 Par ch=5 c=7 v=70
18915 Par ch=5 c=7 v=62
18916 Par ch=5 c=7 v=53
18917 Par ch=5 c=7 v=45
18918 Par ch=5 c=7 v=37
18919 Par ch=5 c=7 v=29
18920 Par ch=5 c=7 v=21
18921 Par ch=5 c=7 v=12
18922 Par ch=5 c=7 v=21
18923 Par ch=5 c=7 v=29
18925 Par ch=5 c=7 v=37
18926 Par ch=5 c=7 v=45
18927 Par ch=5 c=7 v=53
18928 Par ch=5 c=7 v=62
18929 Par ch=5 c=7 v=70
18930 Par ch=5 c=7 v=78
18932 Par ch=5 c=7 v=95
18932 Par ch=5 c=7 v=86
18933 Par ch=5 c=7 v=103
18935 Par ch=5 c=7 v=111
18936 Par ch=5 c=7 v=119
18937 Par ch=5 c=7 v=127
18938 Par ch=5 c=7 v=119
18939 Par ch=5 c=7 v=111
18940 Par ch=5 c=7 v=103
18942 Par ch=5 c=7 v=86
18942 Par ch=5 c=7 v=95
18943 Par ch=5 c=7 v=78
18945 Par ch=5 c=7 v=70
18946 Par ch=5 c=7 v=62
18947 Par ch=5 c=7 v=53
18948 Par ch=5 c=7 v=45
18949 Par ch=5 c=7 v=37
18950 Par ch=5 c=7 v=29
18952 Par ch=5 c=7 v=21
18953 Par ch=5 c=7 v=21
18953 Par ch=5 c=7 v=12
18955 Par ch=5 c=7 v=29
18956 Par ch=5 c=7 v=37
18957 Par ch=5 c=7 v=45
18958 Par ch=5 c=7 v=53
18959 Par ch=5 c=7 v=62
18960 On ch=5 n=50 v=0
18960 On ch=5 n=57 v=0
18960 On ch=5 n=53 v=0
18960 On ch=5 n=53 v=40
18960 Par ch=5 c=7 v=70
18960 On ch=5 n=57 v=40
18960 On ch=5 n=50 v=40
18960 On ch=5 n=62 v=40
18962 Par ch=5 c=7 v=78
18963 Par ch=5 c=7 v=95
18963 Par ch=5 c=7 v=86
18965 Par ch=5 c=7 v=103
18966 Par ch=5 c=7 v=111
18967 Par ch=5 c=7 v=119
18968 Par ch=5 c=7 v=127
18969 Par ch=5 c=7 v=119
18970 Par ch=5 c=7 v=111
18972 Par ch=5 c=7 v=103
18973 Par ch=5 c=7 v=95
18973 Par ch=5 c=7 v=86
18975 Par ch=5 c=7 v=78
18976 Par ch=5 c=7 v=70
18977 Par ch=5 c=7 v=62
18978 Par ch=5 c=7 v=53
18979 Par ch=5 c=7 v=45
18980 Par ch=5 c=7 v=37
18982 Par ch=5 c=7 v=29
18983 Par ch=5 c=7 v=21
18984 Par ch=5 c=7 v=12
18985 Par ch=5 c=7 v=21
18986 Par ch=5 c=7 v=29
18987 Par ch=5 c=7 v=37
18988 Par ch=5 c=7 v=45
18990 Par ch=5 c=7 v=62
18990 Par ch=5 c=7 v=53
18992 Par ch=5 c=7 v=70
18993 Par ch=5 c=7 v=78
18994 Par ch=5 c=7 v=86
18995 Par ch=5 c=7 v=95
18996 Par ch=5 c=7 v=103
18997 Par ch=5 c=7 v=111
18998 Par ch=5 c=7 v=119
19000 Par ch=5 c=7 v=119
19000 Par ch=5 c=7 v=127
19002 Par ch=5 c=7 v=111
19003 Par ch=5 c=7 v=103
19004 Par ch=5 c=7 v=95
19005 Par ch=5 c=7 v=86
19006 Par ch=5 c=7 v=78
19007 Par ch=5 c=7 v=70
19008 Par ch=5 c=7 v=62
19010 Par ch=5 c=7 v=45
19010 Par ch=5 c=7 v=53
19012 Par ch=5 c=7 v=37
19013 Par ch=5 c=7 v=29
19014 Par ch=5 c=7 v=21
19015 Par ch=5 c=7 v=12
19016 Par ch=5 c=7 v=21
19017 Par ch=5 c=7 v=29
19018 Par ch=5 c=7 v=37
19020 On ch=5 n=62 v=0
19020 On ch=5 n=53 v=0
19020 On ch=5 n=57 v=0
19020 On ch=5 n=50 v=0
19020 On ch=5 n=50 v=40
19020 On ch=5 n=53 v=40
19020 Par ch=5 c=7 v=45
19020 On ch=5 n=57 v=40
19021 Par ch=5 c=7 v=53
19022 Par ch=5 c=7 v=62
19023 Par ch=5 c=7 v=70
19024 Par ch=5 c=7 v=78
19025 Par ch=5 c=7 v=86
19027 Par ch=5 c=7 v=103
19027 Par ch=5 c=7 v=95
19028 Par ch=5 c=7 v=111
19030 Par ch=5 c=7 v=119
19031 Par ch=5 c=7 v=127
19032 Par ch=5 c=7 v=119
19033 Par ch=5 c=7 v=111
19034 Par ch=5 c=7 v=103
19035 Par ch=5 c=7 v=95
19037 Par ch=5 c=7 v=86
19037 Par ch=5 c=7 v=78
19038 Par ch=5 c=7 v=70
19040 Par ch=5 c=7 v=62
19041 Par ch=5 c=7 v=53
19042 Par ch=5 c=7 v=45
19043 Par ch=5 c=7 v=37
19044 Par ch=5 c=7 v=29
19045 Par ch=5 c=7 v=21
19047 Par ch=5 c=7 v=12
19047 Par ch=5 c=7 v=20
19048 Par ch=5 c=7 v=29
19050 Par ch=5 c=7 v=37
19051 Par ch=5 c=7 v=45
19052 Par ch=5 c=7 v=53
19053 Par ch=5 c=7 v=62
19054 Par ch=5 c=7 v=70
19055 Par ch=5 c=7 v=78
19057 Par ch=5 c=7 v=86
19058 Par ch=5 c=7 v=103
19058 Par ch=5 c=7 v=95
19060 Par ch=5 c=7 v=111
19061 Par ch=5 c=7 v=119
19062 Par ch=5 c=7 v=127
19063 Par ch=5 c=7 v=119
19064 Par ch=5 c=7 v=111
19065 Par ch=5 c=7 v=103
19067 Par ch=5 c=7 v=95
19068 Par ch=5 c=7 v=78
19068 Par ch=5 c=7 v=86
19070 Par ch=5 c=7 v=70
19071 Par ch=5 c=7 v=62
19072 Par ch=5 c=7 v=53
19073 Par ch=5 c=7 v=45
19074 Par ch=5 c=7 v=37
19075 Par ch=5 c=7 v=29
19077 Par ch=5 c=7 v=21
19078 Par ch=5 c=7 v=12
19079 Par ch=5 c=7 v=20
19080 On ch=5 n=57 v=0
19080 On ch=5 n=53 v=0
19080 On ch=5 n=50 v=0
19080 On ch=5 n=62 v=40
19080 On ch=5 n=53 v=40
19080 Par ch=5 c=7 v=29
19080 On ch=5 n=57 v=40
19080 On ch=5 n=50 v=40
19081 Par ch=5 c=7 v=37
19082 Par ch=5 c=7 v=45
19083 Par ch=5 c=7 v=53
19084 Par ch=5 c=7 v=62
19085 Par ch=5 c=7 v=70
19087 Par ch=5 c=7 v=78
19088 Par ch=5 c=7 v=86
19089 Par ch=5 c=7 v=95
19090 Par ch=5 c=7 v=103
19091 Par ch=5 c=7 v=111
19092 Par ch=5 c=7 v=119
19093 Par ch=5 c=7 v=127
19095 Par ch=5 c=7 v=111
19095 Par ch=5 c=7 v=119
19097 Par ch=5 c=7 v=103
19098 Par ch=5 c=7 v=95
19099 Par ch=5 c=7 v=86
19100 Par ch=5 c=7 v=78
19101 Par ch=5 c=7 v=70
19102 Par ch=5 c=7 v=62
19103 Par ch=5 c=7 v=53
19105 Par ch=5 c=7 v=45
19105 Par ch=5 c=7 v=37
19107 Par ch=5 c=7 v=29
19108 Par ch=5 c=7 v=21
19109 Par ch=5 c=7 v=12
19110 Par ch=5 c=7 v=20
19111 Par ch=5 c=7 v=29
19112 Par ch=5 c=7 v=37
19113 Par ch=5 c=7 v=45
19115 Par ch=5 c=7 v=53
19116 Par ch=5 c=7 v=62
19117 Par ch=5 c=7 v=70
19118 Par ch=5 c=7 v=78
19119 Par ch=5 c=7 v=86
19120 Par ch=5 c=7 v=95
19121 Par ch=5 c=7 v=103
19122 Par ch=5 c=7 v=111
19123 Par ch=5 c=7 v=119
19125 Par ch=5 c=7 v=127
19126 Par ch=5 c=7 v=119
19127 Par ch=5 c=7 v=111
19128 Par ch=5 c=7 v=103
19129 Par ch=5 c=7 v=95
19130 Par ch=5 c=7 v=86
19132 Par ch=5 c=7 v=78
19132 Par ch=5 c=7 v=70
19133 Par ch=5 c=7 v=62
19135 Par ch=5 c=7 v=53
19136 Par ch=5 c=7 v=45
19137 Par ch=5 c=7 v=37
19138 Par ch=5 c=7 v=29
19139 Par ch=5 c=7 v=21
19140 On ch=5 n=50 v=0
19140 On ch=5 n=62 v=0
19140 On ch=5 n=53 v=0
19140 On ch=5 n=57 v=0
19140 On ch=5 n=57 v=40
19140 On ch=5 n=53 v=40
19140 Par ch=5 c=7 v=12
19140 On ch=5 n=50 v=40
19142 Par ch=5 c=7 v=20
19142 Par ch=5 c=7 v=29
19143 Par ch=5 c=7 v=37
19145 Par ch=5 c=7 v=45
19146 Par ch=5 c=7 v=53
19147 Par ch=5 c=7 v=62
19148 Par ch=5 c=7 v=70
19149 Par ch=5 c=7 v=78
19150 Par ch=5 c=7 v=86
19152 Par ch=5 c=7 v=95
19153 Par ch=5 c=7 v=103
19153 Par ch=5 c=7 v=111
19155 Par ch=5 c=7 v=119
19156 Par ch=5 c=7 v=127
19157 Par ch=5 c=7 v=119
19158 Par ch=5 c=7 v=111
19159 Par ch=5 c=7 v=103
19160 Par ch=5 c=7 v=95
19162 Par ch=5 c=7 v=86
19163 Par ch=5 c=7 v=70
19163 Par ch=5 c=7 v=78
19165 Par ch=5 c=7 v=62
19166 Par ch=5 c=7 v=54
19167 Par ch=5 c=7 v=45
19168 Par ch=5 c=7 v=37
19169 Par ch=5 c=7 v=29
19170 Par ch=5 c=7 v=21
19172 Par ch=5 c=7 v=12
19173 Par ch=5 c=7 v=20
19174 Par ch=5 c=7 v=29
19175 Par ch=5 c=7 v=37
19176 Par ch=5 c=7 v=45
19177 Par ch=5 c=7 v=53
19178 Par ch=5 c=7 v=62
19179 Par ch=5 c=7 v=70
19180 Par ch=5 c=7 v=78
19182 Par ch=5 c=7 v=86
19183 Par ch=5 c=7 v=95
19184 Par ch=5 c=7 v=103
19185 Par ch=5 c=7 v=111
19186 Par ch=5 c=7 v=119
19187 Par ch=5 c=7 v=127
19188 Par ch=5 c=7 v=119
19190 Par ch=5 c=7 v=111
19190 Par ch=5 c=7 v=103
19192 Par ch=5 c=7 v=95
19193 Par ch=5 c=7 v=86
19194 Par ch=5 c=7 v=78
19195 Par ch=5 c=7 v=70
19196 Par ch=5 c=7 v=62
19197 Par ch=5 c=7 v=54
19198 Par ch=5 c=7 v=45
19200 On ch=5 n=50 v=0
19200 On ch=5 n=53 v=0
19200 On ch=5 n=57 v=0
19200 Par ch=5 c=7 v=78
19200 On ch=5 n=46 v=40
19200 Par ch=5 c=7 v=95
19200 On ch=5 n=58 v=40
19200 On ch=5 n=62 v=40
19200 Par ch=5 c=7 v=86
19200 On ch=5 n=53 v=40
19202 Par ch=5 c=7 v=103
19203 Par ch=5 c=7 v=111
19204 Par ch=5 c=7 v=119
19205 Par ch=5 c=7 v=127
19206 Par ch=5 c=7 v=119
19207 Par ch=5 c=7 v=111
19208 Par ch=5 c=7 v=103
19210 Par ch=5 c=7 v=95
19211 Par ch=5 c=7 v=86
19212 Par ch=5 c=7 v=78
19213 Par ch=5 c=7 v=70
19214 Par ch=5 c=7 v=62
19215 Par ch=5 c=7 v=53
19216 Par ch=5 c=7 v=45
19217 Par ch=5 c=7 v=37
19218 Par ch=5 c=7 v=29
19220 Par ch=5 c=7 v=21
19221 Par ch=5 c=7 v=12
19222 Par ch=5 c=7 v=21
19223 Par ch=5 c=7 v=29
19224 Par ch=5 c=7 v=37
19225 Par ch=5 c=7 v=45
19227 Par ch=5 c=7 v=53
19227 Par ch=5 c=7 v=62
19228 Par ch=5 c=7 v=70
19230 Par ch=5 c=7 v=78
19231 Par ch=5 c=7 v=86
19232 Par ch=5 c=7 v=95
19233 Par ch=5 c=7 v=103
19234 Par ch=5 c=7 v=111
19235 Par ch=5 c=7 v=119
19237 Par ch=5 c=7 v=127
19237 Par ch=5 c=7 v=119
19238 Par ch=5 c=7 v=111
19240 Par ch=5 c=7 v=103
19241 Par ch=5 c=7 v=95
19242 Par ch=5 c=7 v=86
19243 Par ch=5 c=7 v=78
19244 Par ch=5 c=7 v=70
19245 Par ch=5 c=7 v=62
19247 Par ch=5 c=7 v=53
19248 Par ch=5 c=7 v=37
19248 Par ch=5 c=7 v=45
19250 Par ch=5 c=7 v=29
19251 Par ch=5 c=7 v=21
19252 Par ch=5 c=7 v=12
19253 Par ch=5 c=7 v=21
19254 Par ch=5 c=7 v=29
19255 Par ch=5 c=7 v=37
19257 Par ch=5 c=7 v=45
19258 Par ch=5 c=7 v=62
19258 Par ch=5 c=7 v=53
19260 On ch=5 n=53 v=0
19260 On ch=5 n=46 v=0
19260 On ch=5 n=58 v=0
19260 On ch=5 n=62 v=0
19260 On ch=5 n=46 v=40
19260 On ch=5 n=58 v=40
19260 Par ch=5 c=7 v=70
19260 On ch=5 n=53 v=40
19261 Par ch=5 c=7 v=78
19262 Par ch=5 c=7 v=86
19263 Par ch=5 c=7 v=95
19264 Par ch=5 c=7 v=103
19265 Par ch=5 c=7 v=111
19267 Par ch=5 c=7 v=119
19268 Par ch=5 c=7 v=127
19269 Par ch=5 c=7 v=119
19270 Par ch=5 c=7 v=111
19271 Par ch=5 c=7 v=103
19272 Par ch=5 c=7 v=95
19273 Par ch=5 c=7 v=86
19274 Par ch=5 c=7 v=78
19275 Par ch=5 c=7 v=70
19277 Par ch=5 c=7 v=62
19278 Par ch=5 c=7 v=53
19279 Par ch=5 c=7 v=45
19280 Par ch=5 c=7 v=37
19281 Par ch=5 c=7 v=29
19282 Par ch=5 c=7 v=21
19283 Par ch=5 c=7 v=12
19285 Par ch=5 c=7 v=29
19285 Par ch=5 c=7 v=21
19287 Par ch=5 c=7 v=37
19288 Par ch=5 c=7 v=45
19289 Par ch=5 c=7 v=53
19290 Par ch=5 c=7 v=62
19291 Par ch=5 c=7 v=70
19292 Par ch=5 c=7 v=78
19293 Par ch=5 c=7 v=86
19295 Par ch=5 c=7 v=95
19295 Par ch=5 c=7 v=103
19297 Par ch=5 c=7 v=111
19298 Par ch=5 c=7 v=119
19299 Par ch=5 c=7 v=127
19300 Par ch=5 c=7 v=119
19301 Par ch=5 c=7 v=111
19302 Par ch=5 c=7 v=103
19303 Par ch=5 c=7 v=95
19305 Par ch=5 c=7 v=86
19305 Par ch=5 c=7 v=78
19307 Par ch=5 c=7 v=70
19308 Par ch=5 c=7 v=62
19309 Par ch=5 c=7 v=53
19310 Par ch=5 c=7 v=45
19311 Par ch=5 c=7 v=37
19312 Par ch=5 c=7 v=29
19313 Par ch=5 c=7 v=21
19315 Par ch=5 c=7 v=12
19316 Par ch=5 c=7 v=21
19317 Par ch=5 c=7 v=29
19318 Par ch=5 c=7 v=37
19319 Par ch=5 c=7 v=45
19320 On ch=5 n=53 v=0
19320 On ch=5 n=58 v=0
19320 On ch=5 n=46 v=0
19320 On ch=5 n=58 v=40
19320 On ch=5 n=53 v=40
19320 On ch=5 n=62 v=40
19320 On ch=5 n=46 v=40
19320 Par ch=5 c=7 v=53
19322 Par ch=5 c=7 v=70
19322 Par ch=5 c=7 v=62
19323 Par ch=5 c=7 v=78
19325 Par ch=5 c=7 v=86
19326 Par ch=5 c=7 v=95
19327 Par ch=5 c=7 v=103
19328 Par ch=5 c=7 v=111
19329 Par ch=5 c=7 v=119
19330 Par ch=5 c=7 v=127
19332 Par ch=5 c=7 v=111
19332 Par ch=5 c=7 v=119
19333 Par ch=5 c=7 v=103
19335 Par ch=5 c=7 v=95
19336 Par ch=5 c=7 v=86
19337 Par ch=5 c=7 v=78
19338 Par ch=5 c=7 v=70
19339 Par ch=5 c=7 v=62
19340 Par ch=5 c=7 v=53
19342 Par ch=5 c=7 v=45
19343 Par ch=5 c=7 v=37
19343 Par ch=5 c=7 v=29
19345 Par ch=5 c=7 v=21
19346 Par ch=5 c=7 v=12
19347 Par ch=5 c=7 v=20
19348 Par ch=5 c=7 v=29
19349 Par ch=5 c=7 v=37
19350 Par ch=5 c=7 v=45
19352 Par ch=5 c=7 v=53
19353 Par ch=5 c=7 v=70
19353 Par ch=5 c=7 v=62
19355 Par ch=5 c=7 v=78
19356 Par ch=5 c=7 v=86
19357 Par ch=5 c=7 v=95
19358 Par ch=5 c=7 v=103
19359 Par ch=5 c=7 v=111
19360 Par ch=5 c=7 v=119
19362 Par ch=5 c=7 v=127
19363 Par ch=5 c=7 v=111
19363 Par ch=5 c=7 v=119
19365 Par ch=5 c=7 v=103
19366 Par ch=5 c=7 v=95
19367 Par ch=5 c=7 v=86
19368 Par ch=5 c=7 v=78
19369 Par ch=5 c=7 v=70
19370 Par ch=5 c=7 v=62
19372 Par ch=5 c=7 v=53
19373 Par ch=5 c=7 v=45
19374 Par ch=5 c=7 v=37
19375 Par ch=5 c=7 v=29
19376 Par ch=5 c=7 v=21
19377 Par ch=5 c=7 v=12
19378 Par ch=5 c=7 v=20
19380 On ch=5 n=46 v=0
19380 On ch=5 n=58 v=0
19380 On ch=5 n=53 v=0
19380 On ch=5 n=62 v=0
19380 Par ch=5 c=7 v=95
19380 Par ch=5 c=7 v=78
19380 On ch=5 n=46 v=40
19380 Par ch=5 c=7 v=86
19380 On ch=5 n=53 v=40
19380 On ch=5 n=58 v=40
19382 Par ch=5 c=7 v=103
19383 Par ch=5 c=7 v=111
19384 Par ch=5 c=7 v=119
19385 Par ch=5 c=7 v=127
19386 Par ch=5 c=7 v=119
19387 Par ch=5 c=7 v=111
19388 Par ch=5 c=7 v=103
19390 Par ch=5 c=7 v=95
19390 Par ch=5 c=7 v=86
19392 Par ch=5 c=7 v=78
19393 Par ch=5 c=7 v=70
19394 Par ch=5 c=7 v=62
19395 Par ch=5 c=7 v=53
19396 Par ch=5 c=7 v=45
19397 Par ch=5 c=7 v=37
19398 Par ch=5 c=7 v=29
19400 Par ch=5 c=7 v=21
19400 Par ch=5 c=7 v=12
19402 Par ch=5 c=7 v=21
19403 Par ch=5 c=7 v=29
19404 Par ch=5 c=7 v=37
19405 Par ch=5 c=7 v=45
19406 Par ch=5 c=7 v=53
19407 Par ch=5 c=7 v=62
19408 Par ch=5 c=7 v=70
19410 Par ch=5 c=7 v=78
19411 Par ch=5 c=7 v=86
19412 Par ch=5 c=7 v=95
19413 Par ch=5 c=7 v=103
19414 Par ch=5 c=7 v=111
19415 Par ch=5 c=7 v=119
19417 Par ch=5 c=7 v=119
19417 Par ch=5 c=7 v=127
19418 Par ch=5 c=7 v=111
19420 Par ch=5 c=7 v=103
19421 Par ch=5 c=7 v=95
19422 Par ch=5 c=7 v=86
19423 Par ch=5 c=7 v=78
19424 Par ch=5 c=7 v=70
19425 Par ch=5 c=7 v=62
19427 Par ch=5 c=7 v=53
19427 Par ch=5 c=7 v=45
19428 Par ch=5 c=7 v=37
19430 Par ch=5 c=7 v=29
19431 Par ch=5 c=7 v=21
19432 Par ch=5 c=7 v=12
19433 Par ch=5 c=7 v=21
19434 Par ch=5 c=7 v=29
19435 Par ch=5 c=7 v=37
19437 Par ch=5 c=7 v=45
19437 Par ch=5 c=7 v=53
19438 Par ch=5 c=7 v=62
19440 On ch=5 n=58 v=0
19440 On ch=5 n=53 v=0
19440 On ch=5 n=46 v=0
19440 On ch=5 n=62 v=40
19440 Par ch=5 c=7 v=70
19440 On ch=5 n=53 v=40
19440 On ch=5 n=58 v=40
19440 On ch=5 n=46 v=40
19441 Par ch=5 c=7 v=78
19442 Par ch=5 c=7 v=86
19443 Par ch=5 c=7 v=95
19444 Par ch=5 c=7 v=103
19445 Par ch=5 c=7 v=111
19447 Par ch=5 c=7 v=119
19448 Par ch=5 c=7 v=127
19448 Par ch=5 c=7 v=119
19450 Par ch=5 c=7 v=111
19451 Par ch=5 c=7 v=103
19452 Par ch=5 c=7 v=95
19453 Par ch=5 c=7 v=86
19454 Par ch=5 c=7 v=78
19455 Par ch=5 c=7 v=70
19457 Par ch=5 c=7 v=62
19458 Par ch=5 c=7 v=45
19458 Par ch=5 c=7 v=53
19460 Par ch=5 c=7 v=37
19461 Par ch=5 c=7 v=29
19462 Par ch=5 c=7 v=21
19463 Par ch=5 c=7 v=12
19464 Par ch=5 c=7 v=21
19465 Par ch=5 c=7 v=29
19467 Par ch=5 c=7 v=37
19468 Par ch=5 c=7 v=45
19469 Par ch=5 c=7 v=53
19470 Par ch=5 c=7 v=62
19471 Par ch=5 c=7 v=70
19472 Par ch=5 c=7 v=78
19473 Par ch=5 c=7 v=86
19474 Par ch=5 c=7 v=95
19475 Par ch=5 c=7 v=103
19477 Par ch=5 c=7 v=111
19478 Par ch=5 c=7 v=119
19479 Par ch=5 c=7 v=127
19480 Par ch=5 c=7 v=119
19481 Par ch=5 c=7 v=111
19482 Par ch=5 c=7 v=103
19483 Par ch=5 c=7 v=95
19485 Par ch=5 c=7 v=78
19485 Par ch=5 c=7 v=86
19487 Par ch=5 c=7 v=70
19488 Par ch=5 c=7 v=62
19489 Par ch=5 c=7 v=53
19490 Par ch=5 c=7 v=45
19491 Par ch=5 c=7 v=37
19492 Par ch=5 c=7 v=29
19493 Par ch=5 c=7 v=21
19495 Par ch=5 c=7 v=21
19495 Par ch=5 c=7 v=12
19497 Par ch=5 c=7 v=29
19498 Par ch=5 c=7 v=37
19499 Par ch=5 c=7 v=45
19500 On ch=5 n=46 v=0
19500 On ch=5 n=62 v=0
19500 On ch=5 n=53 v=0
19500 On ch=5 n=58 v=0
19500 On ch=5 n=53 v=40
19500 Par ch=5 c=7 v=86
19500 Par ch=5 c=7 v=78
19500 On ch=5 n=58 v=40
19500 On ch=5 n=46 v=40
19501 Par ch=5 c=7 v=95
19502 Par ch=5 c=7 v=103
19503 Par ch=5 c=7 v=111
19505 Par ch=5 c=7 v=119
19506 Par ch=5 c=7 v=127
19507 Par ch=5 c=7 v=119
19508 Par ch=5 c=7 v=111
19509 Par ch=5 c=7 v=103
19510 Par ch=5 c=7 v=95
19511 Par ch=5 c=7 v=86
19512 Par ch=5 c=7 v=78
19513 Par ch=5 c=7 v=70
19515 Par ch=5 c=7 v=62
19516 Par ch=5 c=7 v=53
19517 Par ch=5 c=7 v=45
19518 Par ch=5 c=7 v=37
19519 Par ch=5 c=7 v=29
19520 Par ch=5 c=7 v=21
19522 Par ch=5 c=7 v=21
19522 Par ch=5 c=7 v=12
19523 Par ch=5 c=7 v=29
19525 Par ch=5 c=7 v=37
19526 Par ch=5 c=7 v=45
19527 Par ch=5 c=7 v=53
19528 Par ch=5 c=7 v=62
19529 Par ch=5 c=7 v=70
19530 Par ch=5 c=7 v=78
19532 Par ch=5 c=7 v=86
19532 Par ch=5 c=7 v=95
19533 Par ch=5 c=7 v=103
19535 Par ch=5 c=7 v=111
19536 Par ch=5 c=7 v=119
19537 Par ch=5 c=7 v=127
19538 Par ch=5 c=7 v=119
19539 Par ch=5 c=7 v=111
19540 Par ch=5 c=7 v=103
19542 Par ch=5 c=7 v=95
19543 Par ch=5 c=7 v=86
19543 Par ch=5 c=7 v=78
19545 Par ch=5 c=7 v=70
19546 Par ch=5 c=7 v=62
19547 Par ch=5 c=7 v=53
19548 Par ch=5 c=7 v=45
19549 Par ch=5 c=7 v=37
19550 Par ch=5 c=7 v=29
19552 Par ch=5 c=7 v=21
19553 Par ch=5 c=7 v=21
19553 Par ch=5 c=7 v=12
19555 Par ch=5 c=7 v=29
19556 Par ch=5 c=7 v=37
19557 Par ch=5 c=7 v=45
19558 Par ch=5 c=7 v=53
19559 Par ch=5 c=7 v=78
19559 Par ch=5 c=7 v=86
19560 On ch=5 n=46 v=0
19560 On ch=5 n=58 v=0
19560 On ch=5 n=53 v=0
19560 Par ch=5 c=7 v=95
19560 On ch=5 n=62 v=40
19560 On ch=5 n=46 v=40
19560 On ch=5 n=53 v=40
19560 On ch=5 n=58 v=40
19561 Par ch=5 c=7 v=103
19563 Par ch=5 c=7 v=111
19564 Par ch=5 c=7 v=119
19565 Par ch=5 c=7 v=127
19566 Par ch=5 c=7 v=119
19567 Par ch=5 c=7 v=111
19568 Par ch=5 c=7 v=103
19569 Par ch=5 c=7 v=95
19570 Par ch=5 c=7 v=86
19572 Par ch=5 c=7 v=78
19573 Par ch=5 c=7 v=70
19574 Par ch=5 c=7 v=62
19575 Par ch=5 c=7 v=53
19576 Par ch=5 c=7 v=45
19577 Par ch=5 c=7 v=37
19578 Par ch=5 c=7 v=29
19580 Par ch=5 c=7 v=21
19580 Par ch=5 c=7 v=12
19582 Par ch=5 c=7 v=21
19583 Par ch=5 c=7 v=29
19584 Par ch=5 c=7 v=37
19585 Par ch=5 c=7 v=45
19586 Par ch=5 c=7 v=53
19587 Par ch=5 c=7 v=62
19588 Par ch=5 c=7 v=70
19590 Par ch=5 c=7 v=78
19590 Par ch=5 c=7 v=86
19591 Par ch=5 c=7 v=95
19593 Par ch=5 c=7 v=103
19594 Par ch=5 c=7 v=111
19595 Par ch=5 c=7 v=119
19596 Par ch=5 c=7 v=127
19597 Par ch=5 c=7 v=119
19598 Par ch=5 c=7 v=111
19600 Par ch=5 c=7 v=103
19601 Par ch=5 c=7 v=95
19602 Par ch=5 c=7 v=86
19603 Par ch=5 c=7 v=78
19604 Par ch=5 c=7 v=70
19605 Par ch=5 c=7 v=62
19606 Par ch=5 c=7 v=53
19607 Par ch=5 c=7 v=45
19608 Par ch=5 c=7 v=37
19610 Par ch=5 c=7 v=29
19611 Par ch=5 c=7 v=21
19612 Par ch=5 c=7 v=12
19613 Par ch=5 c=7 v=21
19614 Par ch=5 c=7 v=29
19615 Par ch=5 c=7 v=37
19617 Par ch=5 c=7 v=45
19617 Par ch=5 c=7 v=53
19618 Par ch=5 c=7 v=62
19620 On ch=5 n=58 v=0
19620 On ch=5 n=62 v=0
19620 On ch=5 n=46 v=0
19620 On ch=5 n=53 v=0
19620 On ch=5 n=58 v=40
19620 Par ch=5 c=7 v=70
19620 On ch=5 n=53 v=40
19620 On ch=5 n=46 v=40
19621 Par ch=5 c=7 v=86
19621 Par ch=5 c=7 v=78
19623 Par ch=5 c=7 v=95
19624 Par ch=5 c=7 v=103
19625 Par ch=5 c=7 v=111
19627 Par ch=5 c=7 v=127
19627 Par ch=5 c=7 v=119
19628 Par ch=5 c=7 v=119
19630 Par ch=5 c=7 v=111
19631 Par ch=5 c=7 v=103
19632 Par ch=5 c=7 v=95
19633 Par ch=5 c=7 v=86
19634 Par ch=5 c=7 v=78
19635 Par ch=5 c=7 v=70
19636 Par ch=5 c=7 v=62
19638 Par ch=5 c=7 v=53
19638 Par ch=5 c=7 v=45
19640 Par ch=5 c=7 v=37
19641 Par ch=5 c=7 v=29
19642 Par ch=5 c=7 v=21
19643 Par ch=5 c=7 v=12
19644 Par ch=5 c=7 v=21
19645 Par ch=5 c=7 v=29
19647 Par ch=5 c=7 v=37
19648 Par ch=5 c=7 v=53
19648 Par ch=5 c=7 v=45
19650 Par ch=5 c=7 v=62
19651 Par ch=5 c=7 v=70
19652 Par ch=5 c=7 v=78
19653 Par ch=5 c=7 v=86
19654 Par ch=5 c=7 v=95
19655 Par ch=5 c=7 v=103
19657 Par ch=5 c=7 v=111
19658 Par ch=5 c=7 v=119
19658 Par ch=5 c=7 v=127
19660 Par ch=5 c=7 v=119
19661 Par ch=5 c=7 v=111
19662 Par ch=5 c=7 v=103
19663 Par ch=5 c=7 v=95
19664 Par ch=5 c=7 v=86
19665 Par ch=5 c=7 v=78
19666 Par ch=5 c=7 v=70
19668 Par ch=5 c=7 v=62
19669 Par ch=5 c=7 v=53
19670 Par ch=5 c=7 v=45
19671 Par ch=5 c=7 v=37
19672 Par ch=5 c=7 v=29
19673 Par ch=5 c=7 v=21
19675 Par ch=5 c=7 v=21
19675 Par ch=5 c=7 v=12
19677 Par ch=5 c=7 v=29
19678 Par ch=5 c=7 v=37
19679 Par ch=5 c=7 v=45
19680 On ch=5 n=46 v=0
19680 On ch=5 n=53 v=0
19680 On ch=5 n=58 v=0
19680 On ch=5 n=57 v=40
19680 On ch=5 n=65 v=40
19680 On ch=5 n=53 v=40
19680 On ch=5 n=60 v=40
19740 On ch=5 n=60 v=0
19740 On ch=5 n=57 v=0
19740 On ch=5 n=65 v=0
19740 On ch=5 n=53 v=0
19740 Par ch=5 c=7 v=78
19740 Par ch=5 c=7 v=70
19740 On ch=5 n=53 v=40
19740 On ch=5 n=60 v=40
19740 On ch=5 n=57 v=40
19742 Par ch=5 c=7 v=86
19743 Par ch=5 c=7 v=95
19744 Par ch=5 c=7 v=103
19745 Par ch=5 c=7 v=111
19746 Par ch=5 c=7 v=119
19747 Par ch=5 c=7 v=127
19748 Par ch=5 c=7 v=119
19750 Par ch=5 c=7 v=111
19750 Par ch=5 c=7 v=103
19752 Par ch=5 c=7 v=95
19753 Par ch=5 c=7 v=86
19754 Par ch=5 c=7 v=78
19755 Par ch=5 c=7 v=70
19756 Par ch=5 c=7 v=62
19757 Par ch=5 c=7 v=53
19758 Par ch=5 c=7 v=45
19760 Par ch=5 c=7 v=37
19761 Par ch=5 c=7 v=29
19762 Par ch=5 c=7 v=21
19763 Par ch=5 c=7 v=12
19764 Par ch=5 c=7 v=21
19765 Par ch=5 c=7 v=29
19766 Par ch=5 c=7 v=37
19767 Par ch=5 c=7 v=45
19768 Par ch=5 c=7 v=53
19770 Par ch=5 c=7 v=62
19771 Par ch=5 c=7 v=70
19772 Par ch=5 c=7 v=78
19773 Par ch=5 c=7 v=86
19774 Par ch=5 c=7 v=95
19775 Par ch=5 c=7 v=103
19777 Par ch=5 c=7 v=119
19777 Par ch=5 c=7 v=111
19778 Par ch=5 c=7 v=127
19780 Par ch=5 c=7 v=119
19781 Par ch=5 c=7 v=111
19782 Par ch=5 c=7 v=103
19783 Par ch=5 c=7 v=95
19784 Par ch=5 c=7 v=86
19785 Par ch=5 c=7 v=78
19787 Par ch=5 c=7 v=70
19787 Par ch=5 c=7 v=62
19788 Par ch=5 c=7 v=53
19790 Par ch=5 c=7 v=45
19791 Par ch=5 c=7 v=37
19792 Par ch=5 c=7 v=29
19793 Par ch=5 c=7 v=21
19794 Par ch=5 c=7 v=12
19795 Par ch=5 c=7 v=21
19797 Par ch=5 c=7 v=29
19798 Par ch=5 c=7 v=45
19798 Par ch=5 c=7 v=37
19800 On ch=5 n=57 v=0
19800 On ch=5 n=60 v=0
19800 On ch=5 n=53 v=0
19800 On ch=5 n=65 v=40
19800 On ch=5 n=60 v=40
19800 On ch=5 n=57 v=40
19800 Par ch=5 c=7 v=53
19800 On ch=5 n=53 v=40
19801 Par ch=5 c=7 v=62
19802 Par ch=5 c=7 v=70
19803 Par ch=5 c=7 v=78
19804 Par ch=5 c=7 v=86
19805 Par ch=5 c=7 v=95
19807 Par ch=5 c=7 v=103
19808 Par ch=5 c=7 v=119
19808 Par ch=5 c=7 v=111
19810 Par ch=5 c=7 v=127
19811 Par ch=5 c=7 v=119
19812 Par ch=5 c=7 v=111
19813 Par ch=5 c=7 v=103
19814 Par ch=5 c=7 v=95
19815 Par ch=5 c=7 v=86
19817 Par ch=5 c=7 v=78
19818 Par ch=5 c=7 v=62
19818 Par ch=5 c=7 v=70
19820 Par ch=5 c=7 v=53
19821 Par ch=5 c=7 v=45
19822 Par ch=5 c=7 v=37
19823 Par ch=5 c=7 v=29
19824 Par ch=5 c=7 v=21
19825 Par ch=5 c=7 v=12
19827 Par ch=5 c=7 v=20
19828 Par ch=5 c=7 v=29
19829 Par ch=5 c=7 v=37
19830 Par ch=5 c=7 v=45
19831 Par ch=5 c=7 v=53
19832 Par ch=5 c=7 v=62
19833 Par ch=5 c=7 v=70
19835 Par ch=5 c=7 v=78
19835 Par ch=5 c=7 v=86
19837 Par ch=5 c=7 v=95
19838 Par ch=5 c=7 v=103
19839 Par ch=5 c=7 v=111
19840 Par ch=5 c=7 v=119
19841 Par ch=5 c=7 v=127
19842 Par ch=5 c=7 v=119
19843 Par ch=5 c=7 v=111
19845 Par ch=5 c=7 v=95
19845 Par ch=5 c=7 v=103
19847 Par ch=5 c=7 v=86
19848 Par ch=5 c=7 v=78
19849 Par ch=5 c=7 v=70
19850 Par ch=5 c=7 v=62
19851 Par ch=5 c=7 v=53
19852 Par ch=5 c=7 v=45
19853 Par ch=5 c=7 v=37
19855 Par ch=5 c=7 v=21
19855 Par ch=5 c=7 v=29
19857 Par ch=5 c=7 v=12
19858 Par ch=5 c=7 v=20
19859 Par ch=5 c=7 v=29
19860 On ch=5 n=53 v=0
19860 On ch=5 n=65 v=0
19860 On ch=5 n=60 v=0
19860 On ch=5 n=57 v=0
19860 On ch=5 n=53 v=40
19860 On ch=5 n=60 v=40
19860 On ch=5 n=57 v=40
19860 Par ch=5 c=7 v=86
19860 Par ch=5 c=7 v=78
19861 Par ch=5 c=7 v=95
19862 Par ch=5 c=7 v=103
19863 Par ch=5 c=7 v=111
19865 Par ch=5 c=7 v=119
19866 Par ch=5 c=7 v=127
19867 Par ch=5 c=7 v=119
19868 Par ch=5 c=7 v=111
19869 Par ch=5 c=7 v=103
19870 Par ch=5 c=7 v=95
19872 Par ch=5 c=7 v=78
19872 Par ch=5 c=7 v=86
19873 Par ch=5 c=7 v=70
19875 Par ch=5 c=7 v=62
19876 Par ch=5 c=7 v=53
19877 Par ch=5 c=7 v=45
19878 Par ch=5 c=7 v=37
19879 Par ch=5 c=7 v=29
19880 Par ch=5 c=7 v=21
19882 Par ch=5 c=7 v=12
19882 Par ch=5 c=7 v=21
19883 Par ch=5 c=7 v=29
19885 Par ch=5 c=7 v=37
19886 Par ch=5 c=7 v=45
19887 Par ch=5 c=7 v=53
19888 Par ch=5 c=7 v=62
19889 Par ch=5 c=7 v=70
19890 Par ch=5 c=7 v=78
19892 Par ch=5 c=7 v=95
19892 Par ch=5 c=7 v=86
19893 Par ch=5 c=7 v=103
19895 Par ch=5 c=7 v=111
19896 Par ch=5 c=7 v=119
19897 Par ch=5 c=7 v=127
19898 Par ch=5 c=7 v=119
19899 Par ch=5 c=7 v=111
19900 Par ch=5 c=7 v=103
19902 Par ch=5 c=7 v=95
19903 Par ch=5 c=7 v=86
19903 Par ch=5 c=7 v=78
19905 Par ch=5 c=7 v=70
19906 Par ch=5 c=7 v=62
19907 Par ch=5 c=7 v=53
19908 Par ch=5 c=7 v=45
19909 Par ch=5 c=7 v=37
19910 Par ch=5 c=7 v=29
19912 Par ch=5 c=7 v=21
19913 Par ch=5 c=7 v=21
19913 Par ch=5 c=7 v=12
19915 Par ch=5 c=7 v=29
19916 Par ch=5 c=7 v=37
19917 Par ch=5 c=7 v=45
19918 Par ch=5 c=7 v=53
19919 Par ch=5 c=7 v=62
19920 On ch=5 n=57 v=0
19920 On ch=5 n=60 v=0
19920 On ch=5 n=53 v=0
19920 On ch=5 n=53 v=40
19920 On ch=5 n=60 v=40
19920 Par ch=5 c=7 v=70
19920 On ch=5 n=57 v=40
19920 On ch=5 n=65 v=40
19922 Par ch=5 c=7 v=78
19923 Par ch=5 c=7 v=86
19924 Par ch=5 c=7 v=95
19925 Par ch=5 c=7 v=103
19926 Par ch=5 c=7 v=111
19927 Par ch=5 c=7 v=119
19928 Par ch=5 c=7 v=127
19929 Par ch=5 c=7 v=119
19930 Par ch=5 c=7 v=111
19931 Par ch=5 c=7 v=103
19933 Par ch=5 c=7 v=95
19934 Par ch=5 c=7 v=86
19935 Par ch=5 c=7 v=78
19936 Par ch=5 c=7 v=70
19937 Par ch=5 c=7 v=62
19938 Par ch=5 c=7 v=53
19940 Par ch=5 c=7 v=37
19940 Par ch=5 c=7 v=45
19942 Par ch=5 c=7 v=29
19943 Par ch=5 c=7 v=21
19944 Par ch=5 c=7 v=12
19945 Par ch=5 c=7 v=21
19946 Par ch=5 c=7 v=29
19947 Par ch=5 c=7 v=37
19948 Par ch=5 c=7 v=45
19950 Par ch=5 c=7 v=62
19950 Par ch=5 c=7 v=53
19952 Par ch=5 c=7 v=70
19953 Par ch=5 c=7 v=78
19954 Par ch=5 c=7 v=86
19955 Par ch=5 c=7 v=95
19956 Par ch=5 c=7 v=103
19957 Par ch=5 c=7 v=111
19958 Par ch=5 c=7 v=119
19960 Par ch=5 c=7 v=127
19961 Par ch=5 c=7 v=119
19962 Par ch=5 c=7 v=111
19963 Par ch=5 c=7 v=103
19964 Par ch=5 c=7 v=95
19965 Par ch=5 c=7 v=86
19966 Par ch=5 c=7 v=78
19967 Par ch=5 c=7 v=70
19968 Par ch=5 c=7 v=62
19970 Par ch=5 c=7 v=53
19971 Par ch=5 c=7 v=45
19972 Par ch=5 c=7 v=37
19973 Par ch=5 c=7 v=29
19974 Par ch=5 c=7 v=21
19975 Par ch=5 c=7 v=12
19977 Par ch=5 c=7 v=21
19977 Par ch=5 c=7 v=29
19978 Par ch=5 c=7 v=37
19980 On ch=5 n=65 v=0
19980 On ch=5 n=53 v=0
19980 On ch=5 n=60 v=0
19980 On ch=5 n=57 v=0
19980 On ch=5 n=53 v=40
19980 On ch=5 n=57 v=40
19980 Par ch=5 c=7 v=45
19980 On ch=5 n=60 v=40
19981 Par ch=5 c=7 v=53
19982 Par ch=5 c=7 v=62
19983 Par ch=5 c=7 v=70
19984 Par ch=5 c=7 v=78
19985 Par ch=5 c=7 v=86
19987 Par ch=5 c=7 v=103
19987 Par ch=5 c=7 v=95
19988 Par ch=5 c=7 v=111
19990 Par ch=5 c=7 v=119
19991 Par ch=5 c=7 v=127
19992 Par ch=5 c=7 v=119
19993 Par ch=5 c=7 v=111
19994 Par ch=5 c=7 v=103
19995 Par ch=5 c=7 v=95
19997 Par ch=5 c=7 v=86
19998 Par ch=5 c=7 v=70
19998 Par ch=5 c=7 v=78
20000 Par ch=5 c=7 v=62
20001 Par ch=5 c=7 v=53
20002 Par ch=5 c=7 v=45
20003 Par ch=5 c=7 v=37
20004 Par ch=5 c=7 v=29
20005 Par ch=5 c=7 v=21
20007 Par ch=5 c=7 v=12
20008 Par ch=5 c=7 v=29
20008 Par ch=5 c=7 v=20
20010 Par ch=5 c=7 v=37
20011 Par ch=5 c=7 v=45
20012 Par ch=5 c=7 v=53
20013 Par ch=5 c=7 v=62
20014 Par ch=5 c=7 v=70
20015 Par ch=5 c=7 v=78
20017 Par ch=5 c=7 v=86
20018 Par ch=5 c=7 v=95
20019 Par ch=5 c=7 v=103
20020 Par ch=5 c=7 v=111
20021 Par ch=5 c=7 v=119
20022 Par ch=5 c=7 v=127
20023 Par ch=5 c=7 v=119
20024 Par ch=5 c=7 v=111
20025 Par ch=5 c=7 v=103
20027 Par ch=5 c=7 v=95
20028 Par ch=5 c=7 v=86
20029 Par ch=5 c=7 v=78
20030 Par ch=5 c=7 v=70
20031 Par ch=5 c=7 v=62
20032 Par ch=5 c=7 v=53
20033 Par ch=5 c=7 v=45
20035 Par ch=5 c=7 v=29
20035 Par ch=5 c=7 v=37
20037 Par ch=5 c=7 v=21
20038 Par ch=5 c=7 v=12
20039 Par ch=5 c=7 v=20
20040 On ch=5 n=60 v=0
20040 On ch=5 n=57 v=0
20040 On ch=5 n=53 v=0
20040 On ch=5 n=60 v=40
20040 Par ch=5 c=7 v=29
20040 On ch=5 n=53 v=40
20040 On ch=5 n=65 v=40
20040 On ch=5 n=57 v=40
20041 Par ch=5 c=7 v=37
20042 Par ch=5 c=7 v=45
20043 Par ch=5 c=7 v=53
20045 Par ch=5 c=7 v=62
20045 Par ch=5 c=7 v=70
20047 Par ch=5 c=7 v=78
20048 Par ch=5 c=7 v=86
20049 Par ch=5 c=7 v=95
20050 Par ch=5 c=7 v=103
20051 Par ch=5 c=7 v=111
20052 Par ch=5 c=7 v=119
20053 Par ch=5 c=7 v=127
20055 Par ch=5 c=7 v=119
20056 Par ch=5 c=7 v=111
20057 Par ch=5 c=7 v=103
20058 Par ch=5 c=7 v=95
20059 Par ch=5 c=7 v=86
20060 Par ch=5 c=7 v=78
20061 Par ch=5 c=7 v=70
20062 Par ch=5 c=7 v=62
20063 Par ch=5 c=7 v=53
20065 Par ch=5 c=7 v=45
20066 Par ch=5 c=7 v=37
20067 Par ch=5 c=7 v=29
20068 Par ch=5 c=7 v=21
20069 Par ch=5 c=7 v=12
20070 Par ch=5 c=7 v=20
20072 Par ch=5 c=7 v=37
20072 Par ch=5 c=7 v=29
20073 Par ch=5 c=7 v=45
20075 Par ch=5 c=7 v=53
20076 Par ch=5 c=7 v=62
20077 Par ch=5 c=7 v=70
20078 Par ch=5 c=7 v=78
20079 Par ch=5 c=7 v=86
20080 Par ch=5 c=7 v=95
20082 Par ch=5 c=7 v=111
20082 Par ch=5 c=7 v=103
20083 Par ch=5 c=7 v=119
20085 Par ch=5 c=7 v=127
20086 Par ch=5 c=7 v=119
20087 Par ch=5 c=7 v=111
20088 Par ch=5 c=7 v=103
20089 Par ch=5 c=7 v=95
20090 Par ch=5 c=7 v=86
20092 Par ch=5 c=7 v=78
20093 Par ch=5 c=7 v=62
20093 Par ch=5 c=7 v=70
20095 Par ch=5 c=7 v=53
20096 Par ch=5 c=7 v=45
20097 Par ch=5 c=7 v=37
20098 Par ch=5 c=7 v=29
20099 Par ch=5 c=7 v=21
20100 On ch=5 n=57 v=0
20100 On ch=5 n=60 v=0
20100 On ch=5 n=53 v=0
20100 On ch=5 n=65 v=0
20100 On ch=5 n=53 v=40
20100 On ch=5 n=57 v=40
20100 Par ch=5 c=7 v=12
20100 On ch=5 n=60 v=40
20102 Par ch=5 c=7 v=20
20103 Par ch=5 c=7 v=37
20103 Par ch=5 c=7 v=29
20105 Par ch=5 c=7 v=45
20106 Par ch=5 c=7 v=53
20107 Par ch=5 c=7 v=62
20108 Par ch=5 c=7 v=70
20109 Par ch=5 c=7 v=78
20110 Par ch=5 c=7 v=86
20112 Par ch=5 c=7 v=95
20113 Par ch=5 c=7 v=103
20114 Par ch=5 c=7 v=111
20115 Par ch=5 c=7 v=119
20116 Par ch=5 c=7 v=127
20117 Par ch=5 c=7 v=119
20118 Par ch=5 c=7 v=111
20119 Par ch=5 c=7 v=103
20120 Par ch=5 c=7 v=95
20122 Par ch=5 c=7 v=86
20123 Par ch=5 c=7 v=78
20124 Par ch=5 c=7 v=70
20125 Par ch=5 c=7 v=62
20126 Par ch=5 c=7 v=54
20127 Par ch=5 c=7 v=45
20128 Par ch=5 c=7 v=37
20130 Par ch=5 c=7 v=29
20130 Par ch=5 c=7 v=21
20131 Par ch=5 c=7 v=12
20133 Par ch=5 c=7 v=20
20134 Par ch=5 c=7 v=29
20135 Par ch=5 c=7 v=37
20136 Par ch=5 c=7 v=45
20137 Par ch=5 c=7 v=53
20138 Par ch=5 c=7 v=62
20140 Par ch=5 c=7 v=78
20140 Par ch=5 c=7 v=70
20142 Par ch=5 c=7 v=86
20143 Par ch=5 c=7 v=95
20144 Par ch=5 c=7 v=103
20145 Par ch=5 c=7 v=111
20146 Par ch=5 c=7 v=119
20147 Par ch=5 c=7 v=127
20148 Par ch=5 c=7 v=119
20150 Par ch=5 c=7 v=111
20151 Par ch=5 c=7 v=103
20152 Par ch=5 c=7 v=95
20153 Par ch=5 c=7 v=86
20154 Par ch=5 c=7 v=78
20155 Par ch=5 c=7 v=70
20156 Par ch=5 c=7 v=62
20157 Par ch=5 c=7 v=54
20158 Par ch=5 c=7 v=45
20160 On ch=5 n=60 v=0
20160 On ch=5 n=57 v=0
20160 On ch=5 n=53 v=0
20160 Par ch=5 c=7 v=86
20160 On ch=5 n=55 v=40
20160 On ch=5 n=64 v=40
20160 On ch=5 n=60 v=40
20160 Par ch=5 c=7 v=78
20160 On ch=5 n=52 v=40
20161 Par ch=5 c=7 v=95
20161 Par ch=5 c=7 v=103
20163 Par ch=5 c=7 v=111
20164 Par ch=5 c=7 v=119
20165 Par ch=5 c=7 v=127
20167 Par ch=5 c=7 v=111
20167 Par ch=5 c=7 v=119
20168 Par ch=5 c=7 v=103
20170 Par ch=5 c=7 v=95
20171 Par ch=5 c=7 v=86
20172 Par ch=5 c=7 v=78
20173 Par ch=5 c=7 v=70
20174 Par ch=5 c=7 v=62
20175 Par ch=5 c=7 v=53
20176 Par ch=5 c=7 v=45
20177 Par ch=5 c=7 v=37
20178 Par ch=5 c=7 v=29
20180 Par ch=5 c=7 v=21
20181 Par ch=5 c=7 v=12
20182 Par ch=5 c=7 v=21
20183 Par ch=5 c=7 v=29
20184 Par ch=5 c=7 v=37
20185 Par ch=5 c=7 v=45
20187 Par ch=5 c=7 v=53
20188 Par ch=5 c=7 v=62
20188 Par ch=5 c=7 v=70
20190 Par ch=5 c=7 v=78
20191 Par ch=5 c=7 v=86
20192 Par ch=5 c=7 v=95
20193 Par ch=5 c=7 v=103
20194 Par ch=5 c=7 v=111
20195 Par ch=5 c=7 v=119
20197 Par ch=5 c=7 v=127
20198 Par ch=5 c=7 v=119
20198 Par ch=5 c=7 v=111
20200 Par ch=5 c=7 v=103
20201 Par ch=5 c=7 v=95
20202 Par ch=5 c=7 v=86
20203 Par ch=5 c=7 v=78
20204 Par ch=5 c=7 v=70
20205 Par ch=5 c=7 v=62
20207 Par ch=5 c=7 v=53
20208 Par ch=5 c=7 v=37
20208 Par ch=5 c=7 v=45
20210 Par ch=5 c=7 v=29
20211 Par ch=5 c=7 v=21
20212 Par ch=5 c=7 v=12
20213 Par ch=5 c=7 v=21
20214 Par ch=5 c=7 v=29
20215 Par ch=5 c=7 v=37
20217 Par ch=5 c=7 v=45
20218 Par ch=5 c=7 v=53
20219 Par ch=5 c=7 v=62
20220 On ch=5 n=52 v=0
20220 On ch=5 n=55 v=0
20220 On ch=5 n=64 v=0
20220 On ch=5 n=60 v=0
20220 On ch=5 n=52 v=40
20220 Par ch=5 c=7 v=70
20220 On ch=5 n=60 v=40
20220 On ch=5 n=55 v=40
20221 Par ch=5 c=7 v=78
20222 Par ch=5 c=7 v=86
20223 Par ch=5 c=7 v=95
20225 Par ch=5 c=7 v=111
20225 Par ch=5 c=7 v=103
20227 Par ch=5 c=7 v=119
20228 Par ch=5 c=7 v=127
20229 Par ch=5 c=7 v=119
20230 Par ch=5 c=7 v=111
20231 Par ch=5 c=7 v=103
20232 Par ch=5 c=7 v=95
20233 Par ch=5 c=7 v=86
20235 Par ch=5 c=7 v=78
20235 Par ch=5 c=7 v=70
20237 Par ch=5 c=7 v=62
20238 Par ch=5 c=7 v=53
20239 Par ch=5 c=7 v=45
20240 Par ch=5 c=7 v=37
20241 Par ch=5 c=7 v=29
20242 Par ch=5 c=7 v=21
20243 Par ch=5 c=7 v=12
20245 Par ch=5 c=7 v=29
20245 Par ch=5 c=7 v=21
20247 Par ch=5 c=7 v=37
20248 Par ch=5 c=7 v=45
20249 Par ch=5 c=7 v=53
20250 Par ch=5 c=7 v=62
20251 Par ch=5 c=7 v=70
20252 Par ch=5 c=7 v=78
20253 Par ch=5 c=7 v=86
20255 Par ch=5 c=7 v=95
20256 Par ch=5 c=7 v=103
20257 Par ch=5 c=7 v=111
20258 Par ch=5 c=7 v=119
20259 Par ch=5 c=7 v=127
20260 Par ch=5 c=7 v=119
20262 Par ch=5 c=7 v=103
20262 Par ch=5 c=7 v=111
20263 Par ch=5 c=7 v=95
20265 Par ch=5 c=7 v=86
20266 Par ch=5 c=7 v=78
20267 Par ch=5 c=7 v=70
20268 Par ch=5 c=7 v=62
20269 Par ch=5 c=7 v=53
20270 Par ch=5 c=7 v=45
20272 Par ch=5 c=7 v=37
20272 Par ch=5 c=7 v=29
20273 Par ch=5 c=7 v=21
20275 Par ch=5 c=7 v=12
20276 Par ch=5 c=7 v=21
20277 Par ch=5 c=7 v=29
20278 Par ch=5 c=7 v=37
20279 Par ch=5 c=7 v=45
20280 On ch=5 n=55 v=0
20280 On ch=5 n=60 v=0
20280 On ch=5 n=52 v=0
20280 On ch=5 n=60 v=40
20280 On ch=5 n=55 v=40
20280 On ch=5 n=52 v=40
20280 On ch=5 n=64 v=40
20280 Par ch=5 c=7 v=53
20282 Par ch=5 c=7 v=70
20282 Par ch=5 c=7 v=62
20283 Par ch=5 c=7 v=78
20285 Par ch=5 c=7 v=86
20286 Par ch=5 c=7 v=95
20287 Par ch=5 c=7 v=103
20288 Par ch=5 c=7 v=111
20289 Par ch=5 c=7 v=119
20290 Par ch=5 c=7 v=127
20292 Par ch=5 c=7 v=119
20293 Par ch=5 c=7 v=103
20293 Par ch=5 c=7 v=111
20295 Par ch=5 c=7 v=95
20296 Par ch=5 c=7 v=86
20297 Par ch=5 c=7 v=78
20298 Par ch=5 c=7 v=70
20299 Par ch=5 c=7 v=62
20300 Par ch=5 c=7 v=53
20302 Par ch=5 c=7 v=45
20303 Par ch=5 c=7 v=37
20303 Par ch=5 c=7 v=29
20305 Par ch=5 c=7 v=21
20306 Par ch=5 c=7 v=12
20307 Par ch=5 c=7 v=20
20308 Par ch=5 c=7 v=29
20309 Par ch=5 c=7 v=37
20310 Par ch=5 c=7 v=45
20312 Par ch=5 c=7 v=53
20313 Par ch=5 c=7 v=62
20314 Par ch=5 c=7 v=70
20315 Par ch=5 c=7 v=78
20316 Par ch=5 c=7 v=86
20317 Par ch=5 c=7 v=95
20318 Par ch=5 c=7 v=103
20319 Par ch=5 c=7 v=111
20320 Par ch=5 c=7 v=119
20322 Par ch=5 c=7 v=127
20323 Par ch=5 c=7 v=119
20324 Par ch=5 c=7 v=111
20325 Par ch=5 c=7 v=103
20326 Par ch=5 c=7 v=95
20327 Par ch=5 c=7 v=86
20328 Par ch=5 c=7 v=78
20330 Par ch=5 c=7 v=70
20330 Par ch=5 c=7 v=62
20332 Par ch=5 c=7 v=53
20333 Par ch=5 c=7 v=45
20334 Par ch=5 c=7 v=37
20335 Par ch=5 c=7 v=29
20336 Par ch=5 c=7 v=21
20337 Par ch=5 c=7 v=12
20338 Par ch=5 c=7 v=20
20340 On ch=5 n=64 v=0
20340 On ch=5 n=60 v=0
20340 On ch=5 n=55 v=0
20340 On ch=5 n=52 v=0
20340 Par ch=5 c=7 v=86
20340 Par ch=5 c=7 v=95
20340 Par ch=5 c=7 v=78
20340 On ch=5 n=52 v=40
20340 On ch=5 n=60 v=40
20340 On ch=5 n=55 v=40
20342 Par ch=5 c=7 v=103
20343 Par ch=5 c=7 v=111
20344 Par ch=5 c=7 v=119
20345 Par ch=5 c=7 v=127
20346 Par ch=5 c=7 v=119
20347 Par ch=5 c=7 v=111
20348 Par ch=5 c=7 v=103
20350 Par ch=5 c=7 v=95
20351 Par ch=5 c=7 v=86
20352 Par ch=5 c=7 v=78
20353 Par ch=5 c=7 v=70
20354 Par ch=5 c=7 v=62
20355 Par ch=5 c=7 v=53
20356 Par ch=5 c=7 v=45
20357 Par ch=5 c=7 v=37
20358 Par ch=5 c=7 v=29
20360 Par ch=5 c=7 v=21
20361 Par ch=5 c=7 v=12
20362 Par ch=5 c=7 v=21
20363 Par ch=5 c=7 v=29
20364 Par ch=5 c=7 v=37
20365 Par ch=5 c=7 v=45
20367 Par ch=5 c=7 v=53
20367 Par ch=5 c=7 v=62
20368 Par ch=5 c=7 v=70
20370 Par ch=5 c=7 v=78
20371 Par ch=5 c=7 v=86
20372 Par ch=5 c=7 v=95
20373 Par ch=5 c=7 v=103
20374 Par ch=5 c=7 v=111
20375 Par ch=5 c=7 v=119
20377 Par ch=5 c=7 v=127
20377 Par ch=5 c=7 v=119
20378 Par ch=5 c=7 v=111
20380 Par ch=5 c=7 v=103
20381 Par ch=5 c=7 v=95
20382 Par ch=5 c=7 v=86
20383 Par ch=5 c=7 v=78
20384 Par ch=5 c=7 v=70
20385 Par ch=5 c=7 v=62
20387 Par ch=5 c=7 v=53
20388 Par ch=5 c=7 v=45
20388 Par ch=5 c=7 v=37
20390 Par ch=5 c=7 v=29
20391 Par ch=5 c=7 v=21
20392 Par ch=5 c=7 v=12
20393 Par ch=5 c=7 v=21
20394 Par ch=5 c=7 v=29
20395 Par ch=5 c=7 v=37
20397 Par ch=5 c=7 v=45
20398 Par ch=5 c=7 v=53
20398 Par ch=5 c=7 v=62
20400 On ch=5 n=55 v=0
20400 On ch=5 n=60 v=0
20400 On ch=5 n=52 v=0
20400 Par ch=5 c=7 v=70
20400 On ch=5 n=64 v=40
20400 On ch=5 n=55 v=40
20400 On ch=5 n=60 v=40
20400 On ch=5 n=52 v=40
20401 Par ch=5 c=7 v=78
20402 Par ch=5 c=7 v=86
20403 Par ch=5 c=7 v=95
20404 Par ch=5 c=7 v=103
20405 Par ch=5 c=7 v=111
20407 Par ch=5 c=7 v=119
20408 Par ch=5 c=7 v=127
20409 Par ch=5 c=7 v=119
20410 Par ch=5 c=7 v=111
20411 Par ch=5 c=7 v=103
20412 Par ch=5 c=7 v=95
20413 Par ch=5 c=7 v=86
20414 Par ch=5 c=7 v=78
20415 Par ch=5 c=7 v=70
20417 Par ch=5 c=7 v=62
20418 Par ch=5 c=7 v=53
20419 Par ch=5 c=7 v=45
20420 Par ch=5 c=7 v=37
20421 Par ch=5 c=7 v=29
20422 Par ch=5 c=7 v=21
20423 Par ch=5 c=7 v=12
20425 Par ch=5 c=7 v=29
20425 Par ch=5 c=7 v=21
20427 Par ch=5 c=7 v=37
20428 Par ch=5 c=7 v=45
20429 Par ch=5 c=7 v=53
20430 Par ch=5 c=7 v=62
20431 Par ch=5 c=7 v=70
20432 Par ch=5 c=7 v=78
20433 Par ch=5 c=7 v=86
20435 Par ch=5 c=7 v=95
20435 Par ch=5 c=7 v=103
20437 Par ch=5 c=7 v=111
20438 Par ch=5 c=7 v=119
20439 Par ch=5 c=7 v=127
20440 Par ch=5 c=7 v=119
20441 Par ch=5 c=7 v=111
20442 Par ch=5 c=7 v=103
20443 Par ch=5 c=7 v=95
20445 Par ch=5 c=7 v=86
20446 Par ch=5 c=7 v=78
20447 Par ch=5 c=7 v=70
20448 Par ch=5 c=7 v=62
20449 Par ch=5 c=7 v=53
20450 Par ch=5 c=7 v=45
20451 Par ch=5 c=7 v=37
20452 Par ch=5 c=7 v=29
20453 Par ch=5 c=7 v=21
20455 Par ch=5 c=7 v=12
20456 Par ch=5 c=7 v=21
20457 Par ch=5 c=7 v=29
20458 Par ch=5 c=7 v=37
20459 Par ch=5 c=7 v=45
20460 On ch=5 n=52 v=0
20460 On ch=5 n=64 v=0
20460 On ch=5 n=55 v=0
20460 On ch=5 n=60 v=0
20460 On ch=5 n=55 v=40
20460 On ch=5 n=52 v=40
20460 On ch=5 n=60 v=40
20460 Par ch=5 c=7 v=53
20462 Par ch=5 c=7 v=62
20462 Par ch=5 c=7 v=70
20463 Par ch=5 c=7 v=78
20465 Par ch=5 c=7 v=86
20466 Par ch=5 c=7 v=95
20467 Par ch=5 c=7 v=103
20468 Par ch=5 c=7 v=111
20469 Par ch=5 c=7 v=119
20470 Par ch=5 c=7 v=127
20472 Par ch=5 c=7 v=111
20472 Par ch=5 c=7 v=119
20473 Par ch=5 c=7 v=103
20475 Par ch=5 c=7 v=95
20476 Par ch=5 c=7 v=86
20477 Par ch=5 c=7 v=78
20478 Par ch=5 c=7 v=70
20479 Par ch=5 c=7 v=62
20480 Par ch=5 c=7 v=53
20482 Par ch=5 c=7 v=45
20483 Par ch=5 c=7 v=37
20483 Par ch=5 c=7 v=29
20485 Par ch=5 c=7 v=21
20486 Par ch=5 c=7 v=12
20487 Par ch=5 c=7 v=20
20488 Par ch=5 c=7 v=29
20489 Par ch=5 c=7 v=37
20490 Par ch=5 c=7 v=45
20492 Par ch=5 c=7 v=53
20493 Par ch=5 c=7 v=70
20493 Par ch=5 c=7 v=62
20495 Par ch=5 c=7 v=78
20496 Par ch=5 c=7 v=86
20497 Par ch=5 c=7 v=95
20498 Par ch=5 c=7 v=103
20499 Par ch=5 c=7 v=111
20500 Par ch=5 c=7 v=119
20502 Par ch=5 c=7 v=127
20503 Par ch=5 c=7 v=119
20503 Par ch=5 c=7 v=111
20505 Par ch=5 c=7 v=103
20506 Par ch=5 c=7 v=95
20507 Par ch=5 c=7 v=86
20508 Par ch=5 c=7 v=78
20509 Par ch=5 c=7 v=70
20510 Par ch=5 c=7 v=62
20512 Par ch=5 c=7 v=53
20513 Par ch=5 c=7 v=45
20514 Par ch=5 c=7 v=37
20515 Par ch=5 c=7 v=29
20516 Par ch=5 c=7 v=21
20517 Par ch=5 c=7 v=12
20518 Par ch=5 c=7 v=20
20520 On ch=5 n=60 v=0
20520 On ch=5 n=52 v=0
20520 On ch=5 n=55 v=0
20520 On ch=5 n=55 v=40
20520 On ch=5 n=52 v=40
20520 On ch=5 n=60 v=40
20520 Par ch=5 c=7 v=37
20520 On ch=5 n=64 v=40
20520 Par ch=5 c=7 v=29
20522 Par ch=5 c=7 v=45
20523 Par ch=5 c=7 v=53
20524 Par ch=5 c=7 v=62
20525 Par ch=5 c=7 v=70
20526 Par ch=5 c=7 v=78
20527 Par ch=5 c=7 v=86
20528 Par ch=5 c=7 v=95
20530 Par ch=5 c=7 v=111
20530 Par ch=5 c=7 v=103
20532 Par ch=5 c=7 v=119
20533 Par ch=5 c=7 v=127
20534 Par ch=5 c=7 v=119
20535 Par ch=5 c=7 v=111
20536 Par ch=5 c=7 v=103
20537 Par ch=5 c=7 v=95
20538 Par ch=5 c=7 v=86
20540 Par ch=5 c=7 v=78
20540 Par ch=5 c=7 v=70
20542 Par ch=5 c=7 v=62
20543 Par ch=5 c=7 v=53
20544 Par ch=5 c=7 v=45
20545 Par ch=5 c=7 v=37
20546 Par ch=5 c=7 v=29
20547 Par ch=5 c=7 v=21
20548 Par ch=5 c=7 v=12
20550 Par ch=5 c=7 v=20
20551 Par ch=5 c=7 v=29
20552 Par ch=5 c=7 v=37
20553 Par ch=5 c=7 v=45
20554 Par ch=5 c=7 v=53
20555 Par ch=5 c=7 v=62
20557 Par ch=5 c=7 v=70
20557 Par ch=5 c=7 v=78
20558 Par ch=5 c=7 v=86
20560 Par ch=5 c=7 v=95
20561 Par ch=5 c=7 v=103
20562 Par ch=5 c=7 v=111
20563 Par ch=5 c=7 v=119
20564 Par ch=5 c=7 v=127
20565 Par ch=5 c=7 v=119
20567 Par ch=5 c=7 v=103
20567 Par ch=5 c=7 v=111
20568 Par ch=5 c=7 v=95
20570 Par ch=5 c=7 v=86
20571 Par ch=5 c=7 v=78
20572 Par ch=5 c=7 v=70
20573 Par ch=5 c=7 v=62
20574 Par ch=5 c=7 v=53
20575 Par ch=5 c=7 v=45
20576 Par ch=5 c=7 v=37
20578 Par ch=5 c=7 v=29
20578 Par ch=5 c=7 v=21
20580 On ch=5 n=64 v=0
20580 On ch=5 n=55 v=0
20580 On ch=5 n=52 v=0
20580 On ch=5 n=60 v=0
20580 Par ch=5 c=7 v=12
20580 On ch=5 n=55 v=40
20580 On ch=5 n=60 v=40
20580 On ch=5 n=52 v=40
20581 Par ch=5 c=7 v=20
20582 Par ch=5 c=7 v=29
20583 Par ch=5 c=7 v=37
20584 Par ch=5 c=7 v=45
20585 Par ch=5 c=7 v=53
20587 Par ch=5 c=7 v=62
20588 Par ch=5 c=7 v=78
20588 Par ch=5 c=7 v=70
20590 Par ch=5 c=7 v=86
20591 Par ch=5 c=7 v=95
20592 Par ch=5 c=7 v=103
20593 Par ch=5 c=7 v=111
20594 Par ch=5 c=7 v=119
20595 Par ch=5 c=7 v=127
20597 Par ch=5 c=7 v=119
20598 Par ch=5 c=7 v=111
20598 Par ch=5 c=7 v=103
20600 Par ch=5 c=7 v=95
20601 Par ch=5 c=7 v=86
20602 Par ch=5 c=7 v=78
20603 Par ch=5 c=7 v=70
20604 Par ch=5 c=7 v=62
20605 Par ch=5 c=7 v=54
20606 Par ch=5 c=7 v=45
20608 Par ch=5 c=7 v=37
20609 Par ch=5 c=7 v=29
20610 Par ch=5 c=7 v=21
20611 Par ch=5 c=7 v=12
20612 Par ch=5 c=7 v=20
20613 Par ch=5 c=7 v=29
20614 Par ch=5 c=7 v=37
20615 Par ch=5 c=7 v=45
20617 Par ch=5 c=7 v=53
20618 Par ch=5 c=7 v=62
20619 Par ch=5 c=7 v=70
20620 Par ch=5 c=7 v=78
20621 Par ch=5 c=7 v=86
20622 Par ch=5 c=7 v=95
20623 Par ch=5 c=7 v=103
20625 Par ch=5 c=7 v=119
20625 Par ch=5 c=7 v=111
20627 Par ch=5 c=7 v=127
20628 Par ch=5 c=7 v=119
20629 Par ch=5 c=7 v=111
20630 Par ch=5 c=7 v=103
20631 Par ch=5 c=7 v=95
20632 Par ch=5 c=7 v=86
20633 Par ch=5 c=7 v=78
20635 Par ch=5 c=7 v=70
20635 Par ch=5 c=7 v=62
20636 Par ch=5 c=7 v=54
20638 Par ch=5 c=7 v=45
20639 Par ch=5 c=7 v=37
20640 On ch=5 n=52 v=0
20640 On ch=5 n=60 v=0
20640 On ch=5 n=55 v=0
20640 On ch=5 n=53 v=40
20640 Par ch=5 c=7 v=86
20640 On ch=5 n=50 v=40
20640 Par ch=5 c=7 v=78
20640 On ch=5 n=62 v=40
20640 On ch=5 n=57 v=40
20641 Par ch=5 c=7 v=95
20642 Par ch=5 c=7 v=103
20643 Par ch=5 c=7 v=111
20645 Par ch=5 c=7 v=119
20646 Par ch=5 c=7 v=127
20647 Par ch=5 c=7 v=119
20648 Par ch=5 c=7 v=111
20649 Par ch=5 c=7 v=103
20650 Par ch=5 c=7 v=95
20651 Par ch=5 c=7 v=86
20652 Par ch=5 c=7 v=78
20653 Par ch=5 c=7 v=70
20655 Par ch=5 c=7 v=62
20656 Par ch=5 c=7 v=53
20657 Par ch=5 c=7 v=45
20658 Par ch=5 c=7 v=37
20659 Par ch=5 c=7 v=29
20660 Par ch=5 c=7 v=21
20662 Par ch=5 c=7 v=21
20662 Par ch=5 c=7 v=12
20663 Par ch=5 c=7 v=29
20665 Par ch=5 c=7 v=37
20666 Par ch=5 c=7 v=45
20667 Par ch=5 c=7 v=53
20668 Par ch=5 c=7 v=62
20669 Par ch=5 c=7 v=70
20670 Par ch=5 c=7 v=78
20672 Par ch=5 c=7 v=95
20672 Par ch=5 c=7 v=86
20673 Par ch=5 c=7 v=103
20675 Par ch=5 c=7 v=111
20676 Par ch=5 c=7 v=119
20677 Par ch=5 c=7 v=127
20678 Par ch=5 c=7 v=119
20679 Par ch=5 c=7 v=111
20680 Par ch=5 c=7 v=103
20681 Par ch=5 c=7 v=95
20683 Par ch=5 c=7 v=78
20683 Par ch=5 c=7 v=86
20685 Par ch=5 c=7 v=70
20686 Par ch=5 c=7 v=62
20687 Par ch=5 c=7 v=53
20688 Par ch=5 c=7 v=45
20689 Par ch=5 c=7 v=37
20690 Par ch=5 c=7 v=29
20692 Par ch=5 c=7 v=21
20693 Par ch=5 c=7 v=21
20693 Par ch=5 c=7 v=12
20695 Par ch=5 c=7 v=29
20696 Par ch=5 c=7 v=37
20697 Par ch=5 c=7 v=45
20698 Par ch=5 c=7 v=53
20699 Par ch=5 c=7 v=62
20700 On ch=5 n=57 v=0
20700 On ch=5 n=53 v=0
20700 On ch=5 n=50 v=0
20700 On ch=5 n=62 v=0
20700 On ch=5 n=53 v=40
20700 On ch=5 n=57 v=40
20700 Par ch=5 c=7 v=70
20700 On ch=5 n=50 v=40
20702 Par ch=5 c=7 v=78
20703 Par ch=5 c=7 v=86
20704 Par ch=5 c=7 v=95
20705 Par ch=5 c=7 v=103
20706 Par ch=5 c=7 v=111
20707 Par ch=5 c=7 v=119
20708 Par ch=5 c=7 v=127
20709 Par ch=5 c=7 v=119
20710 Par ch=5 c=7 v=111
20712 Par ch=5 c=7 v=103
20713 Par ch=5 c=7 v=95
20714 Par ch=5 c=7 v=86
20715 Par ch=5 c=7 v=78
20716 Par ch=5 c=7 v=70
20717 Par ch=5 c=7 v=62
20718 Par ch=5 c=7 v=53
20720 Par ch=5 c=7 v=37
20720 Par ch=5 c=7 v=45
20722 Par ch=5 c=7 v=29
20723 Par ch=5 c=7 v=21
20724 Par ch=5 c=7 v=12
20725 Par ch=5 c=7 v=21
20726 Par ch=5 c=7 v=29
20727 Par ch=5 c=7 v=37
20728 Par ch=5 c=7 v=45
20730 Par ch=5 c=7 v=62
20730 Par ch=5 c=7 v=53
20732 Par ch=5 c=7 v=70
20733 Par ch=5 c=7 v=78
20734 Par ch=5 c=7 v=86
20735 Par ch=5 c=7 v=95
20736 Par ch=5 c=7 v=103
20737 Par ch=5 c=7 v=111
20738 Par ch=5 c=7 v=119
20740 Par ch=5 c=7 v=127
20741 Par ch=5 c=7 v=119
20742 Par ch=5 c=7 v=111
20743 Par ch=5 c=7 v=103
20744 Par ch=5 c=7 v=95
20745 Par ch=5 c=7 v=86
20746 Par ch=5 c=7 v=78
20747 Par ch=5 c=7 v=70
20748 Par ch=5 c=7 v=62
20750 Par ch=5 c=7 v=53
20751 Par ch=5 c=7 v=45
20752 Par ch=5 c=7 v=37
20753 Par ch=5 c=7 v=29
20754 Par ch=5 c=7 v=21
20755 Par ch=5 c=7 v=12
20757 Par ch=5 c=7 v=29
20757 Par ch=5 c=7 v=21
20758 Par ch=5 c=7 v=37
20760 On ch=5 n=50 v=0
20760 On ch=5 n=57 v=0
20760 On ch=5 n=53 v=0
20760 On ch=5 n=50 v=40
20760 On ch=5 n=57 v=40
20760 On ch=5 n=62 v=40
20760 On ch=5 n=53 v=40
20760 Par ch=5 c=7 v=45
20761 Par ch=5 c=7 v=53
20762 Par ch=5 c=7 v=62
20763 Par ch=5 c=7 v=70
20764 Par ch=5 c=7 v=78
20765 Par ch=5 c=7 v=86
20767 Par ch=5 c=7 v=95
20767 Par ch=5 c=7 v=103
20768 Par ch=5 c=7 v=111
20770 Par ch=5 c=7 v=119
20771 Par ch=5 c=7 v=127
20772 Par ch=5 c=7 v=119
20773 Par ch=5 c=7 v=111
20774 Par ch=5 c=7 v=103
20775 Par ch=5 c=7 v=95
20777 Par ch=5 c=7 v=86
20778 Par ch=5 c=7 v=78
20778 Par ch=5 c=7 v=70
20780 Par ch=5 c=7 v=62
20781 Par ch=5 c=7 v=53
20782 Par ch=5 c=7 v=45
20783 Par ch=5 c=7 v=37
20784 Par ch=5 c=7 v=29
20785 Par ch=5 c=7 v=21
20787 Par ch=5 c=7 v=12
20788 Par ch=5 c=7 v=20
20788 Par ch=5 c=7 v=29
20790 Par ch=5 c=7 v=37
20791 Par ch=5 c=7 v=45
20792 Par ch=5 c=7 v=53
20793 Par ch=5 c=7 v=62
20794 Par ch=5 c=7 v=70
20795 Par ch=5 c=7 v=78
20797 Par ch=5 c=7 v=86
20798 Par ch=5 c=7 v=95
20799 Par ch=5 c=7 v=103
20800 Par ch=5 c=7 v=111
20801 Par ch=5 c=7 v=119
20802 Par ch=5 c=7 v=127
20803 Par ch=5 c=7 v=119
20804 Par ch=5 c=7 v=111
20805 Par ch=5 c=7 v=103
20807 Par ch=5 c=7 v=95
20808 Par ch=5 c=7 v=86
20809 Par ch=5 c=7 v=78
20810 Par ch=5 c=7 v=70
20811 Par ch=5 c=7 v=62
20812 Par ch=5 c=7 v=53
20813 Par ch=5 c=7 v=45
20815 Par ch=5 c=7 v=29
20815 Par ch=5 c=7 v=37
20817 Par ch=5 c=7 v=21
20818 Par ch=5 c=7 v=12
20819 Par ch=5 c=7 v=20
20820 On ch=5 n=53 v=0
20820 On ch=5 n=50 v=0
20820 On ch=5 n=57 v=0
20820 On ch=5 n=62 v=0
20820 Par ch=5 c=7 v=78
20820 On ch=5 n=53 v=40
20820 Par ch=5 c=7 v=86
20820 On ch=5 n=57 v=40
20820 On ch=5 n=50 v=40
20821 Par ch=5 c=7 v=95
20822 Par ch=5 c=7 v=103
20823 Par ch=5 c=7 v=111
20825 Par ch=5 c=7 v=119
20825 Par ch=5 c=7 v=127
20827 Par ch=5 c=7 v=119
20828 Par ch=5 c=7 v=111
20829 Par ch=5 c=7 v=103
20830 Par ch=5 c=7 v=95
20831 Par ch=5 c=7 v=86
20832 Par ch=5 c=7 v=78
20833 Par ch=5 c=7 v=70
20835 Par ch=5 c=7 v=62
20836 Par ch=5 c=7 v=53
20837 Par ch=5 c=7 v=45
20838 Par ch=5 c=7 v=37
20839 Par ch=5 c=7 v=29
20840 Par ch=5 c=7 v=21
20841 Par ch=5 c=7 v=12
20842 Par ch=5 c=7 v=21
20843 Par ch=5 c=7 v=29
20845 Par ch=5 c=7 v=37
20846 Par ch=5 c=7 v=45
20847 Par ch=5 c=7 v=53
20848 Par ch=5 c=7 v=62
20849 Par ch=5 c=7 v=70
20850 Par ch=5 c=7 v=78
20852 Par ch=5 c=7 v=95
20852 Par ch=5 c=7 v=86
20853 Par ch=5 c=7 v=103
20855 Par ch=5 c=7 v=111
20856 Par ch=5 c=7 v=119
20857 Par ch=5 c=7 v=127
20858 Par ch=5 c=7 v=119
20859 Par ch=5 c=7 v=111
20860 Par ch=5 c=7 v=103
20862 Par ch=5 c=7 v=86
20862 Par ch=5 c=7 v=95
20863 Par ch=5 c=7 v=78
20865 Par ch=5 c=7 v=70
20866 Par ch=5 c=7 v=62
20867 Par ch=5 c=7 v=53
20868 Par ch=5 c=7 v=45
20869 Par ch=5 c=7 v=37
20870 Par ch=5 c=7 v=29
20872 Par ch=5 c=7 v=21
20873 Par ch=5 c=7 v=21
20873 Par ch=5 c=7 v=12
20875 Par ch=5 c=7 v=29
20876 Par ch=5 c=7 v=37
20877 Par ch=5 c=7 v=45
20878 Par ch=5 c=7 v=53
20879 Par ch=5 c=7 v=62
20880 On ch=5 n=50 v=0
20880 On ch=5 n=57 v=0
20880 On ch=5 n=53 v=0
20880 Par ch=5 c=7 v=70
20880 On ch=5 n=53 v=40
20880 On ch=5 n=57 v=40
20880 On ch=5 n=50 v=40
20880 On ch=5 n=62 v=40
20882 Par ch=5 c=7 v=78
20883 Par ch=5 c=7 v=86
20883 Par ch=5 c=7 v=95
20885 Par ch=5 c=7 v=103
20886 Par ch=5 c=7 v=111
20887 Par ch=5 c=7 v=119
20888 Par ch=5 c=7 v=127
20889 Par ch=5 c=7 v=119
20890 Par ch=5 c=7 v=111
20892 Par ch=5 c=7 v=103
20893 Par ch=5 c=7 v=95
20893 Par ch=5 c=7 v=86
20895 Par ch=5 c=7 v=78
20896 Par ch=5 c=7 v=70
20897 Par ch=5 c=7 v=62
20898 Par ch=5 c=7 v=53
20899 Par ch=5 c=7 v=45
20900 Par ch=5 c=7 v=37
20902 Par ch=5 c=7 v=29
20903 Par ch=5 c=7 v=21
20904 Par ch=5 c=7 v=12
20905 Par ch=5 c=7 v=21
20906 Par ch=5 c=7 v=29
20907 Par ch=5 c=7 v=37
20908 Par ch=5 c=7 v=45
20910 Par ch=5 c=7 v=53
20910 Par ch=5 c=7 v=62
20912 Par ch=5 c=7 v=70
20913 Par ch=5 c=7 v=78
20914 Par ch=5 c=7 v=86
20915 Par ch=5 c=7 v=95
20916 Par ch=5 c=7 v=103
20917 Par ch=5 c=7 v=111
20918 Par ch=5 c=7 v=119
20920 Par ch=5 c=7 v=127
20920 Par ch=5 c=7 v=119
20922 Par ch=5 c=7 v=111
20923 Par ch=5 c=7 v=103
20924 Par ch=5 c=7 v=95
20925 Par ch=5 c=7 v=86
20926 Par ch=5 c=7 v=78
20927 Par ch=5 c=7 v=70
20928 Par ch=5 c=7 v=62
20930 Par ch=5 c=7 v=53
20930 Par ch=5 c=7 v=45
20932 Par ch=5 c=7 v=37
20933 Par ch=5 c=7 v=29
20934 Par ch=5 c=7 v=21
20935 Par ch=5 c=7 v=12
20936 Par ch=5 c=7 v=21
20937 Par ch=5 c=7 v=29
20938 Par ch=5 c=7 v=37
20940 On ch=5 n=62 v=0
20940 On ch=5 n=53 v=0
20940 On ch=5 n=57 v=0
20940 On ch=5 n=50 v=0
20940 Par ch=5 c=7 v=45
20940 On ch=5 n=50 v=40
20940 On ch=5 n=57 v=40
20940 On ch=5 n=53 v=40
20941 Par ch=5 c=7 v=53
20942 Par ch=5 c=7 v=62
20943 Par ch=5 c=7 v=70
20944 Par ch=5 c=7 v=78
20945 Par ch=5 c=7 v=86
20947 Par ch=5 c=7 v=103
20947 Par ch=5 c=7 v=95
20948 Par ch=5 c=7 v=111
20950 Par ch=5 c=7 v=119
20951 Par ch=5 c=7 v=127
20952 Par ch=5 c=7 v=119
20953 Par ch=5 c=7 v=111
20954 Par ch=5 c=7 v=103
20955 Par ch=5 c=7 v=95
20957 Par ch=5 c=7 v=78
20957 Par ch=5 c=7 v=86
20958 Par ch=5 c=7 v=70
20960 Par ch=5 c=7 v=62
20961 Par ch=5 c=7 v=53
20962 Par ch=5 c=7 v=45
20963 Par ch=5 c=7 v=37
20964 Par ch=5 c=7 v=29
20965 Par ch=5 c=7 v=21
20967 Par ch=5 c=7 v=12
20967 Par ch=5 c=7 v=20
20968 Par ch=5 c=7 v=29
20970 Par ch=5 c=7 v=37
20971 Par ch=5 c=7 v=45
20972 Par ch=5 c=7 v=53
20973 Par ch=5 c=7 v=62
20974 Par ch=5 c=7 v=70
20975 Par ch=5 c=7 v=78
20977 Par ch=5 c=7 v=86
20978 Par ch=5 c=7 v=103
20978 Par ch=5 c=7 v=95
20980 Par ch=5 c=7 v=111
20981 Par ch=5 c=7 v=119
20982 Par ch=5 c=7 v=127
20983 Par ch=5 c=7 v=119
20984 Par ch=5 c=7 v=111
20985 Par ch=5 c=7 v=103
20987 Par ch=5 c=7 v=95
20988 Par ch=5 c=7 v=86
20988 Par ch=5 c=7 v=78
20990 Par ch=5 c=7 v=70
20991 Par ch=5 c=7 v=62
20992 Par ch=5 c=7 v=53
20993 Par ch=5 c=7 v=45
20994 Par ch=5 c=7 v=37
20995 Par ch=5 c=7 v=29
20997 Par ch=5 c=7 v=21
20998 Par ch=5 c=7 v=12
20999 Par ch=5 c=7 v=20
21000 On ch=5 n=53 v=0
21000 On ch=5 n=57 v=0
21000 On ch=5 n=50 v=0
21000 On ch=5 n=62 v=40
21000 On ch=5 n=50 v=40
21000 Par ch=5 c=7 v=29
21000 On ch=5 n=57 v=40
21000 On ch=5 n=53 v=40
21001 Par ch=5 c=7 v=37
21002 Par ch=5 c=7 v=45
21003 Par ch=5 c=7 v=53
21004 Par ch=5 c=7 v=62
21005 Par ch=5 c=7 v=70
21007 Par ch=5 c=7 v=78
21008 Par ch=5 c=7 v=86
21009 Par ch=5 c=7 v=95
21010 Par ch=5 c=7 v=103
21011 Par ch=5 c=7 v=111
21012 Par ch=5 c=7 v=119
21013 Par ch=5 c=7 v=127
21015 Par ch=5 c=7 v=111
21015 Par ch=5 c=7 v=119
21017 Par ch=5 c=7 v=103
21018 Par ch=5 c=7 v=95
21019 Par ch=5 c=7 v=86
21020 Par ch=5 c=7 v=78
21021 Par ch=5 c=7 v=70
21022 Par ch=5 c=7 v=62
21023 Par ch=5 c=7 v=53
21025 Par ch=5 c=7 v=37
21025 Par ch=5 c=7 v=45
21027 Par ch=5 c=7 v=29
21028 Par ch=5 c=7 v=21
21029 Par ch=5 c=7 v=12
21030 Par ch=5 c=7 v=20
21031 Par ch=5 c=7 v=29
21032 Par ch=5 c=7 v=37
21033 Par ch=5 c=7 v=45
21035 Par ch=5 c=7 v=53
21036 Par ch=5 c=7 v=62
21037 Par ch=5 c=7 v=70
21038 Par ch=5 c=7 v=78
21039 Par ch=5 c=7 v=86
21040 Par ch=5 c=7 v=95
21041 Par ch=5 c=7 v=103
21042 Par ch=5 c=7 v=111
21043 Par ch=5 c=7 v=119
21045 Par ch=5 c=7 v=127
21046 Par ch=5 c=7 v=119
21047 Par ch=5 c=7 v=111
21048 Par ch=5 c=7 v=103
21049 Par ch=5 c=7 v=95
21050 Par ch=5 c=7 v=86
21052 Par ch=5 c=7 v=78
21052 Par ch=5 c=7 v=70
21053 Par ch=5 c=7 v=62
21055 Par ch=5 c=7 v=53
21056 Par ch=5 c=7 v=45
21057 Par ch=5 c=7 v=37
21058 Par ch=5 c=7 v=29
21059 Par ch=5 c=7 v=21
21060 On ch=5 n=53 v=0
21060 On ch=5 n=62 v=0
21060 On ch=5 n=50 v=0
21060 On ch=5 n=57 v=0
21060 On ch=5 n=57 v=40
21060 On ch=5 n=50 v=40
21060 On ch=5 n=53 v=40
21060 Par ch=5 c=7 v=12
21062 Par ch=5 c=7 v=20
21062 Par ch=5 c=7 v=29
21063 Par ch=5 c=7 v=37
21065 Par ch=5 c=7 v=45
21066 Par ch=5 c=7 v=53
21067 Par ch=5 c=7 v=62
21068 Par ch=5 c=7 v=70
21069 Par ch=5 c=7 v=78
21070 Par ch=5 c=7 v=86
21072 Par ch=5 c=7 v=95
21073 Par ch=5 c=7 v=111
21073 Par ch=5 c=7 v=103
21075 Par ch=5 c=7 v=119
21076 Par ch=5 c=7 v=127
21077 Par ch=5 c=7 v=119
21078 Par ch=5 c=7 v=111
21079 Par ch=5 c=7 v=103
21080 Par ch=5 c=7 v=95
21082 Par ch=5 c=7 v=86
21083 Par ch=5 c=7 v=78
21083 Par ch=5 c=7 v=70
21085 Par ch=5 c=7 v=62
21086 Par ch=5 c=7 v=54
21087 Par ch=5 c=7 v=45
21088 Par ch=5 c=7 v=37
21089 Par ch=5 c=7 v=29
21090 Par ch=5 c=7 v=21
21092 Par ch=5 c=7 v=12
21093 Par ch=5 c=7 v=20
21094 Par ch=5 c=7 v=29
21095 Par ch=5 c=7 v=37
21096 Par ch=5 c=7 v=45
21097 Par ch=5 c=7 v=53
21098 Par ch=5 c=7 v=62
21099 Par ch=5 c=7 v=70
21100 Par ch=5 c=7 v=78
21102 Par ch=5 c=7 v=86
21103 Par ch=5 c=7 v=95
21104 Par ch=5 c=7 v=103
21105 Par ch=5 c=7 v=111
21106 Par ch=5 c=7 v=119
21107 Par ch=5 c=7 v=127
21108 Par ch=5 c=7 v=119
21110 Par ch=5 c=7 v=111
21110 Par ch=5 c=7 v=103
21112 Par ch=5 c=7 v=95
21113 Par ch=5 c=7 v=86
21114 Par ch=5 c=7 v=78
21115 Par ch=5 c=7 v=70
21116 Par ch=5 c=7 v=62
21117 Par ch=5 c=7 v=54
21118 Par ch=5 c=7 v=45
21120 On ch=5 n=53 v=0
21120 On ch=5 n=50 v=0
21120 On ch=5 n=57 v=0
21120 On ch=5 n=46 v=40
21120 On ch=5 n=53 v=40
21120 Par ch=5 c=7 v=78
21120 Par ch=5 c=7 v=86
21120 Par ch=5 c=7 v=95
21120 On ch=5 n=58 v=40
21120 On ch=5 n=62 v=40
21122 Par ch=5 c=7 v=103
21123 Par ch=5 c=7 v=111
21124 Par ch=5 c=7 v=119
21125 Par ch=5 c=7 v=127
21126 Par ch=5 c=7 v=119
21127 Par ch=5 c=7 v=111
21128 Par ch=5 c=7 v=103
21130 Par ch=5 c=7 v=95
21131 Par ch=5 c=7 v=86
21132 Par ch=5 c=7 v=78
21133 Par ch=5 c=7 v=70
21134 Par ch=5 c=7 v=62
21135 Par ch=5 c=7 v=53
21136 Par ch=5 c=7 v=45
21137 Par ch=5 c=7 v=37
21138 Par ch=5 c=7 v=29
21140 Par ch=5 c=7 v=21
21141 Par ch=5 c=7 v=12
21142 Par ch=5 c=7 v=21
21143 Par ch=5 c=7 v=29
21144 Par ch=5 c=7 v=37
21145 Par ch=5 c=7 v=45
21147 Par ch=5 c=7 v=53
21147 Par ch=5 c=7 v=62
21148 Par ch=5 c=7 v=70
21150 Par ch=5 c=7 v=78
21151 Par ch=5 c=7 v=86
21152 Par ch=5 c=7 v=95
21153 Par ch=5 c=7 v=103
21154 Par ch=5 c=7 v=111
21155 Par ch=5 c=7 v=119
21157 Par ch=5 c=7 v=127
21157 Par ch=5 c=7 v=119
21158 Par ch=5 c=7 v=111
21160 Par ch=5 c=7 v=103
21161 Par ch=5 c=7 v=95
21162 Par ch=5 c=7 v=86
21163 Par ch=5 c=7 v=78
21164 Par ch=5 c=7 v=70
21165 Par ch=5 c=7 v=62
21167 Par ch=5 c=7 v=53
21168 Par ch=5 c=7 v=37
21168 Par ch=5 c=7 v=45
21170 Par ch=5 c=7 v=29
21171 Par ch=5 c=7 v=21
21172 Par ch=5 c=7 v=12
21173 Par ch=5 c=7 v=21
21174 Par ch=5 c=7 v=29
21175 Par ch=5 c=7 v=37
21177 Par ch=5 c=7 v=45
21178 Par ch=5 c=7 v=53
21178 Par ch=5 c=7 v=62
21180 On ch=5 n=62 v=0
21180 On ch=5 n=46 v=0
21180 On ch=5 n=53 v=0
21180 On ch=5 n=58 v=0
21180 On ch=5 n=46 v=40
21180 On ch=5 n=58 v=40
21180 Par ch=5 c=7 v=70
21180 On ch=5 n=53 v=40
21181 Par ch=5 c=7 v=78
21182 Par ch=5 c=7 v=86
21183 Par ch=5 c=7 v=95
21184 Par ch=5 c=7 v=103
21185 Par ch=5 c=7 v=111
21187 Par ch=5 c=7 v=119
21188 Par ch=5 c=7 v=127
21189 Par ch=5 c=7 v=119
21190 Par ch=5 c=7 v=111
21191 Par ch=5 c=7 v=103
21192 Par ch=5 c=7 v=95
21193 Par ch=5 c=7 v=86
21194 Par ch=5 c=7 v=78
21195 Par ch=5 c=7 v=70
21197 Par ch=5 c=7 v=62
21198 Par ch=5 c=7 v=53
21199 Par ch=5 c=7 v=45
21200 Par ch=5 c=7 v=37
21201 Par ch=5 c=7 v=29
21202 Par ch=5 c=7 v=21
21203 Par ch=5 c=7 v=12
21205 Par ch=5 c=7 v=29
21205 Par ch=5 c=7 v=21
21207 Par ch=5 c=7 v=37
21208 Par ch=5 c=7 v=45
21209 Par ch=5 c=7 v=53
21210 Par ch=5 c=7 v=62
21211 Par ch=5 c=7 v=70
21212 Par ch=5 c=7 v=78
21213 Par ch=5 c=7 v=86
21215 Par ch=5 c=7 v=95
21215 Par ch=5 c=7 v=103
21217 Par ch=5 c=7 v=111
21218 Par ch=5 c=7 v=119
21219 Par ch=5 c=7 v=127
21220 Par ch=5 c=7 v=119
21221 Par ch=5 c=7 v=111
21222 Par ch=5 c=7 v=103
21223 Par ch=5 c=7 v=95
21225 Par ch=5 c=7 v=86
21225 Par ch=5 c=7 v=78
21227 Par ch=5 c=7 v=70
21228 Par ch=5 c=7 v=62
21229 Par ch=5 c=7 v=53
21230 Par ch=5 c=7 v=45
21231 Par ch=5 c=7 v=37
21232 Par ch=5 c=7 v=29
21233 Par ch=5 c=7 v=21
21235 Par ch=5 c=7 v=12
21236 Par ch=5 c=7 v=21
21237 Par ch=5 c=7 v=29
21238 Par ch=5 c=7 v=37
21239 Par ch=5 c=7 v=45
21240 On ch=5 n=53 v=0
21240 On ch=5 n=58 v=0
21240 On ch=5 n=46 v=0
21240 On ch=5 n=58 v=40
21240 On ch=5 n=46 v=40
21240 Par ch=5 c=7 v=53
21240 On ch=5 n=53 v=40
21240 On ch=5 n=62 v=40
21242 Par ch=5 c=7 v=70
21242 Par ch=5 c=7 v=62
21243 Par ch=5 c=7 v=78
21245 Par ch=5 c=7 v=86
21246 Par ch=5 c=7 v=95
21247 Par ch=5 c=7 v=103
21248 Par ch=5 c=7 v=111
21249 Par ch=5 c=7 v=119
21250 Par ch=5 c=7 v=127
21252 Par ch=5 c=7 v=111
21252 Par ch=5 c=7 v=119
21253 Par ch=5 c=7 v=103
21255 Par ch=5 c=7 v=95
21256 Par ch=5 c=7 v=86
21257 Par ch=5 c=7 v=78
21258 Par ch=5 c=7 v=70
21259 Par ch=5 c=7 v=62
21260 Par ch=5 c=7 v=53
21262 Par ch=5 c=7 v=45
21263 Par ch=5 c=7 v=37
21263 Par ch=5 c=7 v=29
21265 Par ch=5 c=7 v=21
21266 Par ch=5 c=7 v=12
21267 Par ch=5 c=7 v=20
21268 Par ch=5 c=7 v=29
21269 Par ch=5 c=7 v=37
21270 Par ch=5 c=7 v=45
21272 Par ch=5 c=7 v=53
21273 Par ch=5 c=7 v=70
21273 Par ch=5 c=7 v=62
21275 Par ch=5 c=7 v=78
21276 Par ch=5 c=7 v=86
21277 Par ch=5 c=7 v=95
21278 Par ch=5 c=7 v=103
21279 Par ch=5 c=7 v=111
21280 Par ch=5 c=7 v=119
21282 Par ch=5 c=7 v=127
21283 Par ch=5 c=7 v=111
21283 Par ch=5 c=7 v=119
21285 Par ch=5 c=7 v=103
21286 Par ch=5 c=7 v=95
21287 Par ch=5 c=7 v=86
21288 Par ch=5 c=7 v=78
21289 Par ch=5 c=7 v=70
21290 Par ch=5 c=7 v=62
21292 Par ch=5 c=7 v=53
21293 Par ch=5 c=7 v=45
21294 Par ch=5 c=7 v=37
21295 Par ch=5 c=7 v=29
21296 Par ch=5 c=7 v=21
21297 Par ch=5 c=7 v=12
21298 Par ch=5 c=7 v=20
21300 On ch=5 n=62 v=0
21300 On ch=5 n=58 v=0
21300 On ch=5 n=46 v=0
21300 On ch=5 n=53 v=0
21300 On ch=5 n=58 v=40
21300 Par ch=5 c=7 v=78
21300 On ch=5 n=53 v=40
21300 Par ch=5 c=7 v=95
21300 On ch=5 n=46 v=40
21300 Par ch=5 c=7 v=86
21302 Par ch=5 c=7 v=103
21303 Par ch=5 c=7 v=111
21304 Par ch=5 c=7 v=119
21305 Par ch=5 c=7 v=127
21306 Par ch=5 c=7 v=119
21307 Par ch=5 c=7 v=111
21308 Par ch=5 c=7 v=103
21310 Par ch=5 c=7 v=95
21310 Par ch=5 c=7 v=86
21312 Par ch=5 c=7 v=78
21313 Par ch=5 c=7 v=70
21314 Par ch=5 c=7 v=62
21315 Par ch=5 c=7 v=53
21316 Par ch=5 c=7 v=45
21317 Par ch=5 c=7 v=37
21318 Par ch=5 c=7 v=29
21320 Par ch=5 c=7 v=12
21320 Par ch=5 c=7 v=21
21322 Par ch=5 c=7 v=21
21323 Par ch=5 c=7 v=29
21324 Par ch=5 c=7 v=37
21325 Par ch=5 c=7 v=45
21326 Par ch=5 c=7 v=53
21327 Par ch=5 c=7 v=62
21328 Par ch=5 c=7 v=70
21330 Par ch=5 c=7 v=78
21331 Par ch=5 c=7 v=86
21332 Par ch=5 c=7 v=95
21333 Par ch=5 c=7 v=103
21334 Par ch=5 c=7 v=111
21335 Par ch=5 c=7 v=119
21337 Par ch=5 c=7 v=119
21337 Par ch=5 c=7 v=127
21338 Par ch=5 c=7 v=111
21340 Par ch=5 c=7 v=103
21341 Par ch=5 c=7 v=95
21342 Par ch=5 c=7 v=86
21343 Par ch=5 c=7 v=78
21344 Par ch=5 c=7 v=70
21345 Par ch=5 c=7 v=62
21347 Par ch=5 c=7 v=45
21347 Par ch=5 c=7 v=53
21348 Par ch=5 c=7 v=37
21350 Par ch=5 c=7 v=29
21351 Par ch=5 c=7 v=21
21352 Par ch=5 c=7 v=12
21353 Par ch=5 c=7 v=21
21354 Par ch=5 c=7 v=29
21355 Par ch=5 c=7 v=37
21357 Par ch=5 c=7 v=45
21357 Par ch=5 c=7 v=53
21358 Par ch=5 c=7 v=62
21360 On ch=5 n=46 v=0
21360 On ch=5 n=53 v=0
21360 On ch=5 n=58 v=0
21360 On ch=5 n=53 v=40
21360 On ch=5 n=46 v=40
21360 On ch=5 n=58 v=40
21360 On ch=5 n=62 v=40
21360 Par ch=5 c=7 v=70
21361 Par ch=5 c=7 v=78
21362 Par ch=5 c=7 v=86
21363 Par ch=5 c=7 v=95
21364 Par ch=5 c=7 v=103
21365 Par ch=5 c=7 v=111
21367 Par ch=5 c=7 v=119
21368 Par ch=5 c=7 v=127
21368 Par ch=5 c=7 v=119
21370 Par ch=5 c=7 v=111
21371 Par ch=5 c=7 v=103
21372 Par ch=5 c=7 v=95
21373 Par ch=5 c=7 v=86
21374 Par ch=5 c=7 v=78
21375 Par ch=5 c=7 v=70
21377 Par ch=5 c=7 v=62
21378 Par ch=5 c=7 v=45
21378 Par ch=5 c=7 v=53
21380 Par ch=5 c=7 v=37
21381 Par ch=5 c=7 v=29
21382 Par ch=5 c=7 v=21
21383 Par ch=5 c=7 v=12
21384 Par ch=5 c=7 v=21
21385 Par ch=5 c=7 v=29
21387 Par ch=5 c=7 v=37
21388 Par ch=5 c=7 v=45
21389 Par ch=5 c=7 v=53
21390 Par ch=5 c=7 v=62
21391 Par ch=5 c=7 v=70
21392 Par ch=5 c=7 v=78
21393 Par ch=5 c=7 v=86
21394 Par ch=5 c=7 v=95
21395 Par ch=5 c=7 v=103
21397 Par ch=5 c=7 v=111
21398 Par ch=5 c=7 v=119
21399 Par ch=5 c=7 v=127
21400 Par ch=5 c=7 v=119
21401 Par ch=5 c=7 v=111
21402 Par ch=5 c=7 v=103
21403 Par ch=5 c=7 v=95
21405 Par ch=5 c=7 v=78
21405 Par ch=5 c=7 v=86
21407 Par ch=5 c=7 v=70
21408 Par ch=5 c=7 v=62
21409 Par ch=5 c=7 v=53
21410 Par ch=5 c=7 v=45
21411 Par ch=5 c=7 v=37
21412 Par ch=5 c=7 v=29
21413 Par ch=5 c=7 v=21
21415 Par ch=5 c=7 v=21
21415 Par ch=5 c=7 v=12
21417 Par ch=5 c=7 v=29
21418 Par ch=5 c=7 v=37
21419 Par ch=5 c=7 v=45
21420 On ch=5 n=62 v=0
21420 On ch=5 n=53 v=0
21420 On ch=5 n=46 v=0
21420 On ch=5 n=58 v=0
21420 Par ch=5 c=7 v=86
21420 On ch=5 n=46 v=40
21420 On ch=5 n=58 v=40
21420 On ch=5 n=53 v=40
21420 Par ch=5 c=7 v=78
21421 Par ch=5 c=7 v=95
21422 Par ch=5 c=7 v=103
21423 Par ch=5 c=7 v=111
21425 Par ch=5 c=7 v=119
21426 Par ch=5 c=7 v=127
21427 Par ch=5 c=7 v=119
21428 Par ch=5 c=7 v=111
21429 Par ch=5 c=7 v=103
21430 Par ch=5 c=7 v=95
21431 Par ch=5 c=7 v=86
21432 Par ch=5 c=7 v=78
21433 Par ch=5 c=7 v=70
21435 Par ch=5 c=7 v=62
21436 Par ch=5 c=7 v=53
21437 Par ch=5 c=7 v=45
21438 Par ch=5 c=7 v=37
21439 Par ch=5 c=7 v=29
21440 Par ch=5 c=7 v=21
21442 Par ch=5 c=7 v=21
21442 Par ch=5 c=7 v=12
21443 Par ch=5 c=7 v=29
21445 Par ch=5 c=7 v=37
21446 Par ch=5 c=7 v=45
21447 Par ch=5 c=7 v=53
21448 Par ch=5 c=7 v=62
21449 Par ch=5 c=7 v=70
21450 Par ch=5 c=7 v=78
21452 Par ch=5 c=7 v=86
21452 Par ch=5 c=7 v=95
21453 Par ch=5 c=7 v=103
21455 Par ch=5 c=7 v=111
21456 Par ch=5 c=7 v=119
21457 Par ch=5 c=7 v=127
21458 Par ch=5 c=7 v=119
21459 Par ch=5 c=7 v=111
21460 Par ch=5 c=7 v=103
21462 Par ch=5 c=7 v=95
21463 Par ch=5 c=7 v=78
21463 Par ch=5 c=7 v=86
21465 Par ch=5 c=7 v=70
21466 Par ch=5 c=7 v=62
21467 Par ch=5 c=7 v=53
21468 Par ch=5 c=7 v=45
21469 Par ch=5 c=7 v=37
21470 Par ch=5 c=7 v=29
21472 Par ch=5 c=7 v=21
21473 Par ch=5 c=7 v=12
21473 Par ch=5 c=7 v=21
21475 Par ch=5 c=7 v=29
21476 Par ch=5 c=7 v=37
21477 Par ch=5 c=7 v=45
21478 Par ch=5 c=7 v=53
21479 Par ch=5 c=7 v=86
21479 Par ch=5 c=7 v=78
21480 On ch=5 n=53 v=0
21480 On ch=5 n=58 v=0
21480 On ch=5 n=46 v=0
21480 Par ch=5 c=7 v=95
21480 On ch=5 n=62 v=40
21480 On ch=5 n=58 v=40
21480 On ch=5 n=46 v=40
21480 On ch=5 n=53 v=40
21481 Par ch=5 c=7 v=103
21483 Par ch=5 c=7 v=111
21484 Par ch=5 c=7 v=119
21485 Par ch=5 c=7 v=127
21486 Par ch=5 c=7 v=119
21487 Par ch=5 c=7 v=111
21488 Par ch=5 c=7 v=103
21489 Par ch=5 c=7 v=95
21490 Par ch=5 c=7 v=86
21492 Par ch=5 c=7 v=78
21493 Par ch=5 c=7 v=70
21494 Par ch=5 c=7 v=62
21495 Par ch=5 c=7 v=53
21496 Par ch=5 c=7 v=45
21497 Par ch=5 c=7 v=37
21498 Par ch=5 c=7 v=29
21500 Par ch=5 c=7 v=21
21500 Par ch=5 c=7 v=12
21502 Par ch=5 c=7 v=21
21503 Par ch=5 c=7 v=29
21504 Par ch=5 c=7 v=37
21505 Par ch=5 c=7 v=45
21506 Par ch=5 c=7 v=53
21507 Par ch=5 c=7 v=62
21508 Par ch=5 c=7 v=70
21510 Par ch=5 c=7 v=86
21510 Par ch=5 c=7 v=78
21511 Par ch=5 c=7 v=95
21513 Par ch=5 c=7 v=103
21514 Par ch=5 c=7 v=111
21515 Par ch=5 c=7 v=119
21516 Par ch=5 c=7 v=127
21517 Par ch=5 c=7 v=119
21518 Par ch=5 c=7 v=111
21520 Par ch=5 c=7 v=103
21521 Par ch=5 c=7 v=95
21522 Par ch=5 c=7 v=86
21523 Par ch=5 c=7 v=78
21524 Par ch=5 c=7 v=70
21525 Par ch=5 c=7 v=62
21526 Par ch=5 c=7 v=53
21527 Par ch=5 c=7 v=45
21528 Par ch=5 c=7 v=37
21530 Par ch=5 c=7 v=29
21531 Par ch=5 c=7 v=21
21532 Par ch=5 c=7 v=12
21533 Par ch=5 c=7 v=21
21534 Par ch=5 c=7 v=29
21535 Par ch=5 c=7 v=37
21537 Par ch=5 c=7 v=53
21537 Par ch=5 c=7 v=45
21538 Par ch=5 c=7 v=62
21540 On ch=5 n=53 v=0
21540 On ch=5 n=62 v=0
21540 On ch=5 n=58 v=0
21540 On ch=5 n=46 v=0
21540 Par ch=5 c=7 v=70
21540 On ch=5 n=58 v=40
21540 On ch=5 n=53 v=40
21540 On ch=5 n=46 v=40
21541 Par ch=5 c=7 v=78
21541 Par ch=5 c=7 v=86
21543 Par ch=5 c=7 v=95
21544 Par ch=5 c=7 v=103
21545 Par ch=5 c=7 v=111
21547 Par ch=5 c=7 v=127
21547 Par ch=5 c=7 v=119
21548 Par ch=5 c=7 v=119
21550 Par ch=5 c=7 v=111
21551 Par ch=5 c=7 v=103
21552 Par ch=5 c=7 v=95
21553 Par ch=5 c=7 v=86
21554 Par ch=5 c=7 v=78
21555 Par ch=5 c=7 v=70
21556 Par ch=5 c=7 v=62
21558 Par ch=5 c=7 v=53
21558 Par ch=5 c=7 v=45
21560 Par ch=5 c=7 v=37
21561 Par ch=5 c=7 v=29
21562 Par ch=5 c=7 v=21
21563 Par ch=5 c=7 v=12
21564 Par ch=5 c=7 v=21
21565 Par ch=5 c=7 v=29
21567 Par ch=5 c=7 v=37
21568 Par ch=5 c=7 v=45
21568 Par ch=5 c=7 v=53
21570 Par ch=5 c=7 v=62
21571 Par ch=5 c=7 v=70
21572 Par ch=5 c=7 v=78
21573 Par ch=5 c=7 v=86
21574 Par ch=5 c=7 v=95
21575 Par ch=5 c=7 v=103
21577 Par ch=5 c=7 v=111
21578 Par ch=5 c=7 v=127
21578 Par ch=5 c=7 v=119
21580 Par ch=5 c=7 v=119
21581 Par ch=5 c=7 v=111
21582 Par ch=5 c=7 v=103
21583 Par ch=5 c=7 v=95
21584 Par ch=5 c=7 v=86
21585 Par ch=5 c=7 v=78
21586 Par ch=5 c=7 v=70
21588 Par ch=5 c=7 v=62
21589 Par ch=5 c=7 v=53
21590 Par ch=5 c=7 v=45
21591 Par ch=5 c=7 v=37
21592 Par ch=5 c=7 v=29
21593 Par ch=5 c=7 v=21
21595 Par ch=5 c=7 v=21
21595 Par ch=5 c=7 v=12
21597 Par ch=5 c=7 v=29
21598 Par ch=5 c=7 v=37
21599 Par ch=5 c=7 v=45
21600 On ch=5 n=46 v=0
21600 On ch=5 n=53 v=0
21600 On ch=5 n=58 v=0
27360 On ch=5 n=53 v=40
27360 On ch=5 n=65 v=40
27360 On ch=5 n=57 v=40
27360 On ch=5 n=60 v=40
27420 On ch=5 n=60 v=0
27420 On ch=5 n=53 v=0
27420 On ch=5 n=65 v=0
27420 On ch=5 n=57 v=0
27420 On ch=5 n=53 v=40
27420 Par ch=5 c=7 v=70
27420 On ch=5 n=60 v=40
27420 Par ch=5 c=7 v=78
27420 On ch=5 n=57 v=40
27422 Par ch=5 c=7 v=86
27423 Par ch=5 c=7 v=95
27424 Par ch=5 c=7 v=103
27425 Par ch=5 c=7 v=111
27426 Par ch=5 c=7 v=119
27427 Par ch=5 c=7 v=127
27428 Par ch=5 c=7 v=119
27430 Par ch=5 c=7 v=111
27430 Par ch=5 c=7 v=103
27432 Par ch=5 c=7 v=95
27433 Par ch=5 c=7 v=86
27434 Par ch=5 c=7 v=78
27435 Par ch=5 c=7 v=70
27436 Par ch=5 c=7 v=62
27437 Par ch=5 c=7 v=53
27438 Par ch=5 c=7 v=45
27440 Par ch=5 c=7 v=37
27441 Par ch=5 c=7 v=29
27442 Par ch=5 c=7 v=21
27443 Par ch=5 c=7 v=12
27444 Par ch=5 c=7 v=21
27445 Par ch=5 c=7 v=29
27446 Par ch=5 c=7 v=37
27447 Par ch=5 c=7 v=45
27448 Par ch=5 c=7 v=53
27450 Par ch=5 c=7 v=62
27451 Par ch=5 c=7 v=70
27452 Par ch=5 c=7 v=78
27453 Par ch=5 c=7 v=86
27454 Par ch=5 c=7 v=95
27455 Par ch=5 c=7 v=103
27457 Par ch=5 c=7 v=119
27457 Par ch=5 c=7 v=111
27458 Par ch=5 c=7 v=127
27460 Par ch=5 c=7 v=119
27461 Par ch=5 c=7 v=111
27462 Par ch=5 c=7 v=103
27463 Par ch=5 c=7 v=95
27464 Par ch=5 c=7 v=86
27465 Par ch=5 c=7 v=78
27467 Par ch=5 c=7 v=70
27467 Par ch=5 c=7 v=62
27468 Par ch=5 c=7 v=53
27470 Par ch=5 c=7 v=45
27471 Par ch=5 c=7 v=37
27472 Par ch=5 c=7 v=29
27473 Par ch=5 c=7 v=21
27474 Par ch=5 c=7 v=12
27475 Par ch=5 c=7 v=21
27477 Par ch=5 c=7 v=29
27478 Par ch=5 c=7 v=45
27478 Par ch=5 c=7 v=37
27480 On ch=5 n=57 v=0
27480 On ch=5 n=60 v=0
27480 On ch=5 n=53 v=0
27480 Par ch=5 c=7 v=53
27480 On ch=5 n=60 v=40
27480 On ch=5 n=65 v=40
27480 On ch=5 n=53 v=40
27480 On ch=5 n=57 v=40
27481 Par ch=5 c=7 v=62
27482 Par ch=5 c=7 v=70
27483 Par ch=5 c=7 v=78
27484 Par ch=5 c=7 v=86
27485 Par ch=5 c=7 v=95
27487 Par ch=5 c=7 v=103
27488 Par ch=5 c=7 v=119
27488 Par ch=5 c=7 v=111
27490 Par ch=5 c=7 v=127
27491 Par ch=5 c=7 v=119
27492 Par ch=5 c=7 v=111
27493 Par ch=5 c=7 v=103
27494 Par ch=5 c=7 v=95
27495 Par ch=5 c=7 v=86
27497 Par ch=5 c=7 v=78
27498 Par ch=5 c=7 v=62
27498 Par ch=5 c=7 v=70
27500 Par ch=5 c=7 v=53
27501 Par ch=5 c=7 v=45
27502 Par ch=5 c=7 v=37
27503 Par ch=5 c=7 v=29
27504 Par ch=5 c=7 v=21
27505 Par ch=5 c=7 v=12
27507 Par ch=5 c=7 v=20
27508 Par ch=5 c=7 v=29
27509 Par ch=5 c=7 v=37
27510 Par ch=5 c=7 v=45
27511 Par ch=5 c=7 v=53
27512 Par ch=5 c=7 v=62
27513 Par ch=5 c=7 v=70
27515 Par ch=5 c=7 v=86
27515 Par ch=5 c=7 v=78
27517 Par ch=5 c=7 v=95
27518 Par ch=5 c=7 v=103
27519 Par ch=5 c=7 v=111
27520 Par ch=5 c=7 v=119
27521 Par ch=5 c=7 v=127
27522 Par ch=5 c=7 v=119
27523 Par ch=5 c=7 v=111
27525 Par ch=5 c=7 v=95
27525 Par ch=5 c=7 v=103
27527 Par ch=5 c=7 v=86
27528 Par ch=5 c=7 v=78
27529 Par ch=5 c=7 v=70
27530 Par ch=5 c=7 v=62
27531 Par ch=5 c=7 v=53
27532 Par ch=5 c=7 v=45
27533 Par ch=5 c=7 v=37
27535 Par ch=5 c=7 v=21
27535 Par ch=5 c=7 v=29
27537 Par ch=5 c=7 v=12
27538 Par ch=5 c=7 v=20
27539 Par ch=5 c=7 v=29
27540 On ch=5 n=57 v=0
27540 On ch=5 n=60 v=0
27540 On ch=5 n=65 v=0
27540 On ch=5 n=53 v=0
27540 On ch=5 n=53 v=40
27540 Par ch=5 c=7 v=78
27540 Par ch=5 c=7 v=86
27540 On ch=5 n=60 v=40
27540 On ch=5 n=57 v=40
27541 Par ch=5 c=7 v=95
27542 Par ch=5 c=7 v=103
27543 Par ch=5 c=7 v=111
27545 Par ch=5 c=7 v=119
27546 Par ch=5 c=7 v=127
27547 Par ch=5 c=7 v=119
27548 Par ch=5 c=7 v=111
27549 Par ch=5 c=7 v=103
27550 Par ch=5 c=7 v=95
27552 Par ch=5 c=7 v=86
27552 Par ch=5 c=7 v=78
27553 Par ch=5 c=7 v=70
27555 Par ch=5 c=7 v=62
27556 Par ch=5 c=7 v=53
27557 Par ch=5 c=7 v=45
27558 Par ch=5 c=7 v=37
27559 Par ch=5 c=7 v=29
27560 Par ch=5 c=7 v=21
27562 Par ch=5 c=7 v=12
27562 Par ch=5 c=7 v=21
27563 Par ch=5 c=7 v=29
27565 Par ch=5 c=7 v=37
27566 Par ch=5 c=7 v=45
27567 Par ch=5 c=7 v=53
27568 Par ch=5 c=7 v=62
27569 Par ch=5 c=7 v=70
27570 Par ch=5 c=7 v=78
27572 Par ch=5 c=7 v=95
27572 Par ch=5 c=7 v=86
27573 Par ch=5 c=7 v=103
27575 Par ch=5 c=7 v=111
27576 Par ch=5 c=7 v=119
27577 Par ch=5 c=7 v=127
27578 Par ch=5 c=7 v=119
27579 Par ch=5 c=7 v=111
27580 Par ch=5 c=7 v=103
27582 Par ch=5 c=7 v=95
27583 Par ch=5 c=7 v=86
27583 Par ch=5 c=7 v=78
27585 Par ch=5 c=7 v=70
27586 Par ch=5 c=7 v=62
27587 Par ch=5 c=7 v=53
27588 Par ch=5 c=7 v=45
27589 Par ch=5 c=7 v=37
27590 Par ch=5 c=7 v=29
27592 Par ch=5 c=7 v=21
27593 Par ch=5 c=7 v=12
27593 Par ch=5 c=7 v=21
27595 Par ch=5 c=7 v=29
27596 Par ch=5 c=7 v=37
27597 Par ch=5 c=7 v=45
27598 Par ch=5 c=7 v=53
27599 Par ch=5 c=7 v=62
27600 On ch=5 n=57 v=0
27600 On ch=5 n=60 v=0
27600 On ch=5 n=53 v=0
27600 On ch=5 n=60 v=40
27600 Par ch=5 c=7 v=70
27600 On ch=5 n=65 v=40
27600 On ch=5 n=57 v=40
27600 On ch=5 n=53 v=40
27602 Par ch=5 c=7 v=78
27603 Par ch=5 c=7 v=86
27604 Par ch=5 c=7 v=95
27605 Par ch=5 c=7 v=103
27606 Par ch=5 c=7 v=111
27607 Par ch=5 c=7 v=119
27608 Par ch=5 c=7 v=127
27609 Par ch=5 c=7 v=119
27610 Par ch=5 c=7 v=111
27611 Par ch=5 c=7 v=103
27613 Par ch=5 c=7 v=95
27614 Par ch=5 c=7 v=86
27615 Par ch=5 c=7 v=78
27616 Par ch=5 c=7 v=70
27617 Par ch=5 c=7 v=62
27618 Par ch=5 c=7 v=53
27620 Par ch=5 c=7 v=45
27620 Par ch=5 c=7 v=37
27622 Par ch=5 c=7 v=29
27623 Par ch=5 c=7 v=21
27624 Par ch=5 c=7 v=12
27625 Par ch=5 c=7 v=21
27626 Par ch=5 c=7 v=29
27627 Par ch=5 c=7 v=37
27628 Par ch=5 c=7 v=45
27630 Par ch=5 c=7 v=53
27630 Par ch=5 c=7 v=62
27632 Par ch=5 c=7 v=70
27633 Par ch=5 c=7 v=78
27634 Par ch=5 c=7 v=86
27635 Par ch=5 c=7 v=95
27636 Par ch=5 c=7 v=103
27637 Par ch=5 c=7 v=111
27638 Par ch=5 c=7 v=119
27640 Par ch=5 c=7 v=127
27641 Par ch=5 c=7 v=119
27642 Par ch=5 c=7 v=111
27643 Par ch=5 c=7 v=103
27644 Par ch=5 c=7 v=95
27645 Par ch=5 c=7 v=86
27646 Par ch=5 c=7 v=78
27647 Par ch=5 c=7 v=70
27648 Par ch=5 c=7 v=62
27650 Par ch=5 c=7 v=53
27651 Par ch=5 c=7 v=45
27652 Par ch=5 c=7 v=37
27653 Par ch=5 c=7 v=29
27654 Par ch=5 c=7 v=21
27655 Par ch=5 c=7 v=12
27657 Par ch=5 c=7 v=29
27657 Par ch=5 c=7 v=21
27658 Par ch=5 c=7 v=37
27660 On ch=5 n=53 v=0
27660 On ch=5 n=60 v=0
27660 On ch=5 n=65 v=0
27660 On ch=5 n=57 v=0
27660 Par ch=5 c=7 v=45
27660 On ch=5 n=60 v=40
27660 On ch=5 n=53 v=40
27660 On ch=5 n=57 v=40
27661 Par ch=5 c=7 v=53
27662 Par ch=5 c=7 v=62
27663 Par ch=5 c=7 v=70
27664 Par ch=5 c=7 v=78
27665 Par ch=5 c=7 v=86
27667 Par ch=5 c=7 v=103
27667 Par ch=5 c=7 v=95
27668 Par ch=5 c=7 v=111
27670 Par ch=5 c=7 v=119
27671 Par ch=5 c=7 v=127
27672 Par ch=5 c=7 v=119
27673 Par ch=5 c=7 v=111
27674 Par ch=5 c=7 v=103
27675 Par ch=5 c=7 v=95
27677 Par ch=5 c=7 v=86
27678 Par ch=5 c=7 v=70
27678 Par ch=5 c=7 v=78
27680 Par ch=5 c=7 v=62
27681 Par ch=5 c=7 v=53
27682 Par ch=5 c=7 v=45
27683 Par ch=5 c=7 v=37
27684 Par ch=5 c=7 v=29
27685 Par ch=5 c=7 v=21
27687 Par ch=5 c=7 v=12
27688 Par ch=5 c=7 v=29
27688 Par ch=5 c=7 v=20
27690 Par ch=5 c=7 v=37
27691 Par ch=5 c=7 v=45
27692 Par ch=5 c=7 v=53
27693 Par ch=5 c=7 v=62
27694 Par ch=5 c=7 v=70
27695 Par ch=5 c=7 v=78
27697 Par ch=5 c=7 v=86
27698 Par ch=5 c=7 v=95
27699 Par ch=5 c=7 v=103
27700 Par ch=5 c=7 v=111
27701 Par ch=5 c=7 v=119
27702 Par ch=5 c=7 v=127
27703 Par ch=5 c=7 v=119
27704 Par ch=5 c=7 v=111
27705 Par ch=5 c=7 v=103
27707 Par ch=5 c=7 v=95
27708 Par ch=5 c=7 v=86
27709 Par ch=5 c=7 v=78
27710 Par ch=5 c=7 v=70
27711 Par ch=5 c=7 v=62
27712 Par ch=5 c=7 v=53
27713 Par ch=5 c=7 v=45
27715 Par ch=5 c=7 v=37
27715 Par ch=5 c=7 v=29
27717 Par ch=5 c=7 v=21
27718 Par ch=5 c=7 v=12
27719 Par ch=5 c=7 v=20
27720 On ch=5 n=57 v=0
27720 On ch=5 n=53 v=0
27720 On ch=5 n=60 v=0
27720 On ch=5 n=65 v=40
27720 On ch=5 n=57 v=40
27720 On ch=5 n=53 v=40
27720 On ch=5 n=60 v=40
27720 Par ch=5 c=7 v=29
27721 Par ch=5 c=7 v=37
27722 Par ch=5 c=7 v=45
27723 Par ch=5 c=7 v=53
27725 Par ch=5 c=7 v=70
27725 Par ch=5 c=7 v=62
27727 Par ch=5 c=7 v=78
27728 Par ch=5 c=7 v=86
27729 Par ch=5 c=7 v=95
27730 Par ch=5 c=7 v=103
27731 Par ch=5 c=7 v=111
27732 Par ch=5 c=7 v=119
27733 Par ch=5 c=7 v=127
27735 Par ch=5 c=7 v=119
27736 Par ch=5 c=7 v=111
27737 Par ch=5 c=7 v=103
27738 Par ch=5 c=7 v=95
27739 Par ch=5 c=7 v=86
27740 Par ch=5 c=7 v=78
27741 Par ch=5 c=7 v=70
27742 Par ch=5 c=7 v=62
27743 Par ch=5 c=7 v=53
27745 Par ch=5 c=7 v=45
27746 Par ch=5 c=7 v=37
27747 Par ch=5 c=7 v=29
27748 Par ch=5 c=7 v=21
27749 Par ch=5 c=7 v=12
27750 Par ch=5 c=7 v=20
27752 Par ch=5 c=7 v=37
27752 Par ch=5 c=7 v=29
27753 Par ch=5 c=7 v=45
27755 Par ch=5 c=7 v=53
27756 Par ch=5 c=7 v=62
27757 Par ch=5 c=7 v=70
27758 Par ch=5 c=7 v=78
27759 Par ch=5 c=7 v=86
27760 Par ch=5 c=7 v=95
27762 Par ch=5 c=7 v=111
27762 Par ch=5 c=7 v=103
27763 Par ch=5 c=7 v=119
27765 Par ch=5 c=7 v=127
27766 Par ch=5 c=7 v=119
27767 Par ch=5 c=7 v=111
27768 Par ch=5 c=7 v=103
27769 Par ch=5 c=7 v=95
27770 Par ch=5 c=7 v=86
27772 Par ch=5 c=7 v=78
27773 Par ch=5 c=7 v=62
27773 Par ch=5 c=7 v=70
27775 Par ch=5 c=7 v=53
27776 Par ch=5 c=7 v=45
27777 Par ch=5 c=7 v=37
27778 Par ch=5 c=7 v=29
27779 Par ch=5 c=7 v=21
27780 On ch=5 n=60 v=0
27780 On ch=5 n=65 v=0
27780 On ch=5 n=57 v=0
27780 On ch=5 n=53 v=0
27780 On ch=5 n=53 v=40
27780 On ch=5 n=60 v=40
27780 Par ch=5 c=7 v=12
27780 On ch=5 n=57 v=40
27782 Par ch=5 c=7 v=20
27783 Par ch=5 c=7 v=37
27783 Par ch=5 c=7 v=29
27785 Par ch=5 c=7 v=45
27786 Par ch=5 c=7 v=53
27787 Par ch=5 c=7 v=62
27788 Par ch=5 c=7 v=70
27789 Par ch=5 c=7 v=78
27790 Par ch=5 c=7 v=86
27792 Par ch=5 c=7 v=95
27793 Par ch=5 c=7 v=103
27794 Par ch=5 c=7 v=111
27795 Par ch=5 c=7 v=119
27796 Par ch=5 c=7 v=127
27797 Par ch=5 c=7 v=119
27798 Par ch=5 c=7 v=111
27799 Par ch=5 c=7 v=103
27800 Par ch=5 c=7 v=95
27802 Par ch=5 c=7 v=86
27803 Par ch=5 c=7 v=78
27804 Par ch=5 c=7 v=70
27805 Par ch=5 c=7 v=62
27806 Par ch=5 c=7 v=54
27807 Par ch=5 c=7 v=45
27808 Par ch=5 c=7 v=37
27810 Par ch=5 c=7 v=21
27810 Par ch=5 c=7 v=29
27811 Par ch=5 c=7 v=12
27813 Par ch=5 c=7 v=20
27814 Par ch=5 c=7 v=29
27815 Par ch=5 c=7 v=37
27816 Par ch=5 c=7 v=45
27817 Par ch=5 c=7 v=53
27818 Par ch=5 c=7 v=62
27820 Par ch=5 c=7 v=78
27820 Par ch=5 c=7 v=70
27822 Par ch=5 c=7 v=86
27823 Par ch=5 c=7 v=95
27824 Par ch=5 c=7 v=103
27825 Par ch=5 c=7 v=111
27826 Par ch=5 c=7 v=119
27827 Par ch=5 c=7 v=127
27828 Par ch=5 c=7 v=119
27830 Par ch=5 c=7 v=111
27831 Par ch=5 c=7 v=103
27832 Par ch=5 c=7 v=95
27833 Par ch=5 c=7 v=86
27834 Par ch=5 c=7 v=78
27835 Par ch=5 c=7 v=70
27836 Par ch=5 c=7 v=62
27837 Par ch=5 c=7 v=54
27838 Par ch=5 c=7 v=45
27840 On ch=5 n=57 v=0
27840 On ch=5 n=60 v=0
27840 On ch=5 n=53 v=0
27840 Par ch=5 c=7 v=86
27840 On ch=5 n=52 v=40
27840 On ch=5 n=64 v=40
27840 On ch=5 n=60 v=40
27840 On ch=5 n=55 v=40
27840 Par ch=5 c=7 v=78
27841 Par ch=5 c=7 v=103
27841 Par ch=5 c=7 v=95
27843 Par ch=5 c=7 v=111
27844 Par ch=5 c=7 v=119
27845 Par ch=5 c=7 v=127
27847 Par ch=5 c=7 v=111
27847 Par ch=5 c=7 v=119
27848 Par ch=5 c=7 v=103
27850 Par ch=5 c=7 v=95
27851 Par ch=5 c=7 v=86
27852 Par ch=5 c=7 v=78
27853 Par ch=5 c=7 v=70
27854 Par ch=5 c=7 v=62
27855 Par ch=5 c=7 v=53
27856 Par ch=5 c=7 v=45
27857 Par ch=5 c=7 v=37
27858 Par ch=5 c=7 v=29
27860 Par ch=5 c=7 v=21
27861 Par ch=5 c=7 v=12
27862 Par ch=5 c=7 v=21
27863 Par ch=5 c=7 v=29
27864 Par ch=5 c=7 v=37
27865 Par ch=5 c=7 v=45
27867 Par ch=5 c=7 v=53
27868 Par ch=5 c=7 v=62
27868 Par ch=5 c=7 v=70
27870 Par ch=5 c=7 v=78
27871 Par ch=5 c=7 v=86
27872 Par ch=5 c=7 v=95
27873 Par ch=5 c=7 v=103
27874 Par ch=5 c=7 v=111
27875 Par ch=5 c=7 v=119
27877 Par ch=5 c=7 v=127
27878 Par ch=5 c=7 v=119
27878 Par ch=5 c=7 v=111
27880 Par ch=5 c=7 v=103
27881 Par ch=5 c=7 v=95
27882 Par ch=5 c=7 v=86
27883 Par ch=5 c=7 v=78
27884 Par ch=5 c=7 v=70
27885 Par ch=5 c=7 v=62
27887 Par ch=5 c=7 v=53
27888 Par ch=5 c=7 v=45
27888 Par ch=5 c=7 v=37
27890 Par ch=5 c=7 v=29
27891 Par ch=5 c=7 v=21
27892 Par ch=5 c=7 v=12
27893 Par ch=5 c=7 v=21
27894 Par ch=5 c=7 v=29
27895 Par ch=5 c=7 v=37
27897 Par ch=5 c=7 v=45
27898 Par ch=5 c=7 v=53
27899 Par ch=5 c=7 v=62
27900 On ch=5 n=55 v=0
27900 On ch=5 n=52 v=0
27900 On ch=5 n=64 v=0
27900 On ch=5 n=60 v=0
27900 Par ch=5 c=7 v=70
27900 On ch=5 n=60 v=40
27900 On ch=5 n=52 v=40
27900 On ch=5 n=55 v=40
27901 Par ch=5 c=7 v=78
27902 Par ch=5 c=7 v=86
27903 Par ch=5 c=7 v=95
27905 Par ch=5 c=7 v=103
27905 Par ch=5 c=7 v=111
27907 Par ch=5 c=7 v=119
27908 Par ch=5 c=7 v=127
27909 Par ch=5 c=7 v=119
27910 Par ch=5 c=7 v=111
27911 Par ch=5 c=7 v=103
27912 Par ch=5 c=7 v=95
27913 Par ch=5 c=7 v=86
27915 Par ch=5 c=7 v=78
27915 Par ch=5 c=7 v=70
27917 Par ch=5 c=7 v=62
27918 Par ch=5 c=7 v=53
27919 Par ch=5 c=7 v=45
27920 Par ch=5 c=7 v=37
27921 Par ch=5 c=7 v=29
27922 Par ch=5 c=7 v=21
27923 Par ch=5 c=7 v=12
27925 Par ch=5 c=7 v=29
27925 Par ch=5 c=7 v=21
27927 Par ch=5 c=7 v=37
27928 Par ch=5 c=7 v=45
27929 Par ch=5 c=7 v=53
27930 Par ch=5 c=7 v=62
27931 Par ch=5 c=7 v=70
27932 Par ch=5 c=7 v=78
27933 Par ch=5 c=7 v=86
27935 Par ch=5 c=7 v=95
27936 Par ch=5 c=7 v=103
27937 Par ch=5 c=7 v=111
27938 Par ch=5 c=7 v=119
27939 Par ch=5 c=7 v=127
27940 Par ch=5 c=7 v=119
27942 Par ch=5 c=7 v=103
27942 Par ch=5 c=7 v=111
27943 Par ch=5 c=7 v=95
27945 Par ch=5 c=7 v=86
27946 Par ch=5 c=7 v=78
27947 Par ch=5 c=7 v=70
27948 Par ch=5 c=7 v=62
27949 Par ch=5 c=7 v=53
27950 Par ch=5 c=7 v=45
27952 Par ch=5 c=7 v=37
27952 Par ch=5 c=7 v=29
27953 Par ch=5 c=7 v=21
27955 Par ch=5 c=7 v=12
27956 Par ch=5 c=7 v=21
27957 Par ch=5 c=7 v=29
27958 Par ch=5 c=7 v=37
27959 Par ch=5 c=7 v=45
27960 On ch=5 n=55 v=0
27960 On ch=5 n=52 v=0
27960 On ch=5 n=60 v=0
27960 On ch=5 n=55 v=40
27960 On ch=5 n=64 v=40
27960 On ch=5 n=60 v=40
27960 On ch=5 n=52 v=40
27960 Par ch=5 c=7 v=53
27962 Par ch=5 c=7 v=62
27962 Par ch=5 c=7 v=70
27963 Par ch=5 c=7 v=78
27965 Par ch=5 c=7 v=86
27966 Par ch=5 c=7 v=95
27967 Par ch=5 c=7 v=103
27968 Par ch=5 c=7 v=111
27969 Par ch=5 c=7 v=119
27970 Par ch=5 c=7 v=127
27972 Par ch=5 c=7 v=119
27973 Par ch=5 c=7 v=103
27973 Par ch=5 c=7 v=111
27975 Par ch=5 c=7 v=95
27976 Par ch=5 c=7 v=86
27977 Par ch=5 c=7 v=78
27978 Par ch=5 c=7 v=70
27979 Par ch=5 c=7 v=62
27980 Par ch=5 c=7 v=53
27982 Par ch=5 c=7 v=45
27983 Par ch=5 c=7 v=37
27983 Par ch=5 c=7 v=29
27985 Par ch=5 c=7 v=21
27986 Par ch=5 c=7 v=12
27987 Par ch=5 c=7 v=20
27988 Par ch=5 c=7 v=29
27989 Par ch=5 c=7 v=37
27990 Par ch=5 c=7 v=45
27992 Par ch=5 c=7 v=53
27993 Par ch=5 c=7 v=62
27994 Par ch=5 c=7 v=70
27995 Par ch=5 c=7 v=78
27996 Par ch=5 c=7 v=86
27997 Par ch=5 c=7 v=95
27998 Par ch=5 c=7 v=103
27999 Par ch=5 c=7 v=111
28000 Par ch=5 c=7 v=119
28002 Par ch=5 c=7 v=127
28003 Par ch=5 c=7 v=119
28004 Par ch=5 c=7 v=111
28005 Par ch=5 c=7 v=103
28006 Par ch=5 c=7 v=95
28007 Par ch=5 c=7 v=86
28008 Par ch=5 c=7 v=78
28010 Par ch=5 c=7 v=62
28010 Par ch=5 c=7 v=70
28012 Par ch=5 c=7 v=53
28013 Par ch=5 c=7 v=45
28014 Par ch=5 c=7 v=37
28015 Par ch=5 c=7 v=29
28016 Par ch=5 c=7 v=21
28017 Par ch=5 c=7 v=12
28018 Par ch=5 c=7 v=20
28020 On ch=5 n=52 v=0
28020 On ch=5 n=55 v=0
28020 On ch=5 n=64 v=0
28020 On ch=5 n=60 v=0
28020 On ch=5 n=55 v=40
28020 Par ch=5 c=7 v=95
28020 Par ch=5 c=7 v=78
28020 On ch=5 n=52 v=40
28020 Par ch=5 c=7 v=86
28020 On ch=5 n=60 v=40
28022 Par ch=5 c=7 v=103
28023 Par ch=5 c=7 v=111
28024 Par ch=5 c=7 v=119
28025 Par ch=5 c=7 v=127
28026 Par ch=5 c=7 v=119
28027 Par ch=5 c=7 v=111
28028 Par ch=5 c=7 v=103
28030 Par ch=5 c=7 v=95
28031 Par ch=5 c=7 v=86
28032 Par ch=5 c=7 v=78
28033 Par ch=5 c=7 v=70
28034 Par ch=5 c=7 v=62
28035 Par ch=5 c=7 v=53
28036 Par ch=5 c=7 v=45
28037 Par ch=5 c=7 v=37
28038 Par ch=5 c=7 v=29
28040 Par ch=5 c=7 v=21
28041 Par ch=5 c=7 v=12
28042 Par ch=5 c=7 v=21
28043 Par ch=5 c=7 v=29
28044 Par ch=5 c=7 v=37
28045 Par ch=5 c=7 v=45
28047 Par ch=5 c=7 v=53
28047 Par ch=5 c=7 v=62
28048 Par ch=5 c=7 v=70
28050 Par ch=5 c=7 v=78
28051 Par ch=5 c=7 v=86
28052 Par ch=5 c=7 v=95
28053 Par ch=5 c=7 v=103
28054 Par ch=5 c=7 v=111
28055 Par ch=5 c=7 v=119
28057 Par ch=5 c=7 v=119
28057 Par ch=5 c=7 v=127
28058 Par ch=5 c=7 v=111
28060 Par ch=5 c=7 v=103
28061 Par ch=5 c=7 v=95
28062 Par ch=5 c=7 v=86
28063 Par ch=5 c=7 v=78
28064 Par ch=5 c=7 v=70
28065 Par ch=5 c=7 v=62
28067 Par ch=5 c=7 v=53
28068 Par ch=5 c=7 v=37
28068 Par ch=5 c=7 v=45
28070 Par ch=5 c=7 v=29
28071 Par ch=5 c=7 v=21
28072 Par ch=5 c=7 v=12
28073 Par ch=5 c=7 v=21
28074 Par ch=5 c=7 v=29
28075 Par ch=5 c=7 v=37
28077 Par ch=5 c=7 v=45
28078 Par ch=5 c=7 v=62
28078 Par ch=5 c=7 v=53
28080 On ch=5 n=60 v=0
28080 On ch=5 n=52 v=0
28080 On ch=5 n=55 v=0
28080 On ch=5 n=60 v=40
28080 On ch=5 n=55 v=40
28080 Par ch=5 c=7 v=70
28080 On ch=5 n=64 v=40
28080 On ch=5 n=52 v=40
28081 Par ch=5 c=7 v=78
28082 Par ch=5 c=7 v=86
28083 Par ch=5 c=7 v=95
28084 Par ch=5 c=7 v=103
28085 Par ch=5 c=7 v=111
28087 Par ch=5 c=7 v=119
28088 Par ch=5 c=7 v=127
28089 Par ch=5 c=7 v=119
28090 Par ch=5 c=7 v=111
28091 Par ch=5 c=7 v=103
28092 Par ch=5 c=7 v=95
28093 Par ch=5 c=7 v=86
28094 Par ch=5 c=7 v=78
28095 Par ch=5 c=7 v=70
28097 Par ch=5 c=7 v=62
28098 Par ch=5 c=7 v=53
28099 Par ch=5 c=7 v=45
28100 Par ch=5 c=7 v=37
28101 Par ch=5 c=7 v=29
28102 Par ch=5 c=7 v=21
28103 Par ch=5 c=7 v=12
28105 Par ch=5 c=7 v=21
28105 Par ch=5 c=7 v=29
28107 Par ch=5 c=7 v=37
28108 Par ch=5 c=7 v=45
28109 Par ch=5 c=7 v=53
28110 Par ch=5 c=7 v=62
28111 Par ch=5 c=7 v=70
28112 Par ch=5 c=7 v=78
28113 Par ch=5 c=7 v=86
28115 Par ch=5 c=7 v=103
28115 Par ch=5 c=7 v=95
28117 Par ch=5 c=7 v=111
28118 Par ch=5 c=7 v=119
28119 Par ch=5 c=7 v=127
28120 Par ch=5 c=7 v=119
28121 Par ch=5 c=7 v=111
28122 Par ch=5 c=7 v=103
28123 Par ch=5 c=7 v=95
28125 Par ch=5 c=7 v=86
28126 Par ch=5 c=7 v=78
28127 Par ch=5 c=7 v=70
28128 Par ch=5 c=7 v=62
28129 Par ch=5 c=7 v=53
28130 Par ch=5 c=7 v=45
28131 Par ch=5 c=7 v=37
28132 Par ch=5 c=7 v=29
28133 Par ch=5 c=7 v=21
28135 Par ch=5 c=7 v=12
28136 Par ch=5 c=7 v=21
28137 Par ch=5 c=7 v=29
28138 Par ch=5 c=7 v=37
28139 Par ch=5 c=7 v=45
28140 On ch=5 n=52 v=0
28140 On ch=5 n=60 v=0
28140 On ch=5 n=55 v=0
28140 On ch=5 n=64 v=0
28140 On ch=5 n=52 v=40
28140 On ch=5 n=55 v=40
28140 Par ch=5 c=7 v=53
28140 On ch=5 n=60 v=40
28142 Par ch=5 c=7 v=62
28142 Par ch=5 c=7 v=70
28143 Par ch=5 c=7 v=78
28145 Par ch=5 c=7 v=86
28146 Par ch=5 c=7 v=95
28147 Par ch=5 c=7 v=103
28148 Par ch=5 c=7 v=111
28149 Par ch=5 c=7 v=119
28150 Par ch=5 c=7 v=127
28152 Par ch=5 c=7 v=119
28152 Par ch=5 c=7 v=111
28153 Par ch=5 c=7 v=103
28155 Par ch=5 c=7 v=95
28156 Par ch=5 c=7 v=86
28157 Par ch=5 c=7 v=78
28158 Par ch=5 c=7 v=70
28159 Par ch=5 c=7 v=62
28160 Par ch=5 c=7 v=53
28162 Par ch=5 c=7 v=45
28163 Par ch=5 c=7 v=29
28163 Par ch=5 c=7 v=37
28165 Par ch=5 c=7 v=21
28166 Par ch=5 c=7 v=12
28167 Par ch=5 c=7 v=20
28168 Par ch=5 c=7 v=29
28169 Par ch=5 c=7 v=37
28170 Par ch=5 c=7 v=45
28172 Par ch=5 c=7 v=53
28173 Par ch=5 c=7 v=62
28173 Par ch=5 c=7 v=70
28175 Par ch=5 c=7 v=78
28176 Par ch=5 c=7 v=86
28177 Par ch=5 c=7 v=95
28178 Par ch=5 c=7 v=103
28179 Par ch=5 c=7 v=111
28180 Par ch=5 c=7 v=119
28182 Par ch=5 c=7 v=127
28183 Par ch=5 c=7 v=119
28183 Par ch=5 c=7 v=111
28185 Par ch=5 c=7 v=103
28186 Par ch=5 c=7 v=95
28187 Par ch=5 c=7 v=86
28188 Par ch=5 c=7 v=78
28189 Par ch=5 c=7 v=70
28190 Par ch=5 c=7 v=62
28192 Par ch=5 c=7 v=53
28193 Par ch=5 c=7 v=45
28194 Par ch=5 c=7 v=37
28195 Par ch=5 c=7 v=29
28196 Par ch=5 c=7 v=21
28197 Par ch=5 c=7 v=12
28198 Par ch=5 c=7 v=20
28200 On ch=5 n=60 v=0
28200 On ch=5 n=55 v=0
28200 On ch=5 n=52 v=0
28200 On ch=5 n=55 v=40
28200 Par ch=5 c=7 v=29
28200 On ch=5 n=52 v=40
28200 On ch=5 n=60 v=40
28200 On ch=5 n=64 v=40
28200 Par ch=5 c=7 v=37
28202 Par ch=5 c=7 v=45
28203 Par ch=5 c=7 v=53
28204 Par ch=5 c=7 v=62
28205 Par ch=5 c=7 v=70
28206 Par ch=5 c=7 v=78
28207 Par ch=5 c=7 v=86
28208 Par ch=5 c=7 v=95
28210 Par ch=5 c=7 v=111
28210 Par ch=5 c=7 v=103
28212 Par ch=5 c=7 v=119
28213 Par ch=5 c=7 v=127
28214 Par ch=5 c=7 v=119
28215 Par ch=5 c=7 v=111
28216 Par ch=5 c=7 v=103
28217 Par ch=5 c=7 v=95
28218 Par ch=5 c=7 v=86
28220 Par ch=5 c=7 v=78
28220 Par ch=5 c=7 v=70
28222 Par ch=5 c=7 v=62
28223 Par ch=5 c=7 v=53
28224 Par ch=5 c=7 v=45
28225 Par ch=5 c=7 v=37
28226 Par ch=5 c=7 v=29
28227 Par ch=5 c=7 v=21
28228 Par ch=5 c=7 v=12
28230 Par ch=5 c=7 v=20
28231 Par ch=5 c=7 v=29
28232 Par ch=5 c=7 v=37
28233 Par ch=5 c=7 v=45
28234 Par ch=5 c=7 v=53
28235 Par ch=5 c=7 v=62
28237 Par ch=5 c=7 v=70
28237 Par ch=5 c=7 v=78
28238 Par ch=5 c=7 v=86
28240 Par ch=5 c=7 v=95
28241 Par ch=5 c=7 v=103
28242 Par ch=5 c=7 v=111
28243 Par ch=5 c=7 v=119
28244 Par ch=5 c=7 v=127
28245 Par ch=5 c=7 v=119
28247 Par ch=5 c=7 v=103
28247 Par ch=5 c=7 v=111
28248 Par ch=5 c=7 v=95
28250 Par ch=5 c=7 v=86
28251 Par ch=5 c=7 v=78
28252 Par ch=5 c=7 v=70
28253 Par ch=5 c=7 v=62
28254 Par ch=5 c=7 v=53
28255 Par ch=5 c=7 v=45
28256 Par ch=5 c=7 v=37
28258 Par ch=5 c=7 v=21
28258 Par ch=5 c=7 v=29
28260 On ch=5 n=64 v=0
28260 On ch=5 n=55 v=0
28260 On ch=5 n=52 v=0
28260 On ch=5 n=60 v=0
28260 On ch=5 n=55 v=40
28260 On ch=5 n=60 v=40
28260 Par ch=5 c=7 v=12
28260 On ch=5 n=52 v=40
28261 Par ch=5 c=7 v=20
28262 Par ch=5 c=7 v=29
28263 Par ch=5 c=7 v=37
28264 Par ch=5 c=7 v=45
28265 Par ch=5 c=7 v=53
28267 Par ch=5 c=7 v=62
28268 Par ch=5 c=7 v=70
28268 Par ch=5 c=7 v=78
28270 Par ch=5 c=7 v=86
28271 Par ch=5 c=7 v=95
28272 Par ch=5 c=7 v=103
28273 Par ch=5 c=7 v=111
28274 Par ch=5 c=7 v=119
28275 Par ch=5 c=7 v=127
28277 Par ch=5 c=7 v=119
28278 Par ch=5 c=7 v=111
28278 Par ch=5 c=7 v=103
28280 Par ch=5 c=7 v=95
28281 Par ch=5 c=7 v=86
28282 Par ch=5 c=7 v=78
28283 Par ch=5 c=7 v=70
28284 Par ch=5 c=7 v=62
28285 Par ch=5 c=7 v=54
28286 Par ch=5 c=7 v=45
28288 Par ch=5 c=7 v=37
28289 Par ch=5 c=7 v=29
28290 Par ch=5 c=7 v=21
28291 Par ch=5 c=7 v=12
28292 Par ch=5 c=7 v=20
28293 Par ch=5 c=7 v=29
28294 Par ch=5 c=7 v=37
28295 Par ch=5 c=7 v=45
28297 Par ch=5 c=7 v=53
28298 Par ch=5 c=7 v=62
28299 Par ch=5 c=7 v=70
28300 Par ch=5 c=7 v=78
28301 Par ch=5 c=7 v=86
28302 Par ch=5 c=7 v=95
28303 Par ch=5 c=7 v=103
28305 Par ch=5 c=7 v=111
28305 Par ch=5 c=7 v=119
28307 Par ch=5 c=7 v=127
28308 Par ch=5 c=7 v=119
28309 Par ch=5 c=7 v=111
28310 Par ch=5 c=7 v=103
28311 Par ch=5 c=7 v=95
28312 Par ch=5 c=7 v=86
28313 Par ch=5 c=7 v=78
28315 Par ch=5 c=7 v=70
28315 Par ch=5 c=7 v=62
28316 Par ch=5 c=7 v=54
28318 Par ch=5 c=7 v=45
28319 Par ch=5 c=7 v=37
28320 On ch=5 n=52 v=0
28320 On ch=5 n=60 v=0
28320 On ch=5 n=55 v=0
28320 On ch=5 n=57 v=40
28320 Par ch=5 c=7 v=78
28320 On ch=5 n=62 v=40
28320 Par ch=5 c=7 v=86
28320 On ch=5 n=50 v=40
28320 On ch=5 n=53 v=40
28321 Par ch=5 c=7 v=95
28322 Par ch=5 c=7 v=103
28323 Par ch=5 c=7 v=111
28325 Par ch=5 c=7 v=119
28326 Par ch=5 c=7 v=127
28327 Par ch=5 c=7 v=119
28328 Par ch=5 c=7 v=111
28329 Par ch=5 c=7 v=103
28330 Par ch=5 c=7 v=95
28331 Par ch=5 c=7 v=86
28332 Par ch=5 c=7 v=78
28333 Par ch=5 c=7 v=70
28335 Par ch=5 c=7 v=62
28336 Par ch=5 c=7 v=53
28337 Par ch=5 c=7 v=45
28338 Par ch=5 c=7 v=37
28339 Par ch=5 c=7 v=29
28340 Par ch=5 c=7 v=21
28342 Par ch=5 c=7 v=12
28342 Par ch=5 c=7 v=21
28343 Par ch=5 c=7 v=29
28345 Par ch=5 c=7 v=37
28346 Par ch=5 c=7 v=45
28347 Par ch=5 c=7 v=53
28348 Par ch=5 c=7 v=62
28349 Par ch=5 c=7 v=70
28350 Par ch=5 c=7 v=78
28352 Par ch=5 c=7 v=86
28352 Par ch=5 c=7 v=95
28353 Par ch=5 c=7 v=103
28355 Par ch=5 c=7 v=111
28356 Par ch=5 c=7 v=119
28357 Par ch=5 c=7 v=127
28358 Par ch=5 c=7 v=119
28359 Par ch=5 c=7 v=111
28360 Par ch=5 c=7 v=103
28361 Par ch=5 c=7 v=95
28363 Par ch=5 c=7 v=86
28363 Par ch=5 c=7 v=78
28365 Par ch=5 c=7 v=70
28366 Par ch=5 c=7 v=62
28367 Par ch=5 c=7 v=53
28368 Par ch=5 c=7 v=45
28369 Par ch=5 c=7 v=37
28370 Par ch=5 c=7 v=29
28372 Par ch=5 c=7 v=21
28373 Par ch=5 c=7 v=12
28373 Par ch=5 c=7 v=21
28375 Par ch=5 c=7 v=29
28376 Par ch=5 c=7 v=37
28377 Par ch=5 c=7 v=45
28378 Par ch=5 c=7 v=53
28379 Par ch=5 c=7 v=62
28380 On ch=5 n=53 v=0
28380 On ch=5 n=57 v=0
28380 On ch=5 n=62 v=0
28380 On ch=5 n=50 v=0
28380 On ch=5 n=57 v=40
28380 Par ch=5 c=7 v=70
28380 On ch=5 n=50 v=40
28380 On ch=5 n=53 v=40
28382 Par ch=5 c=7 v=78
28383 Par ch=5 c=7 v=86
28384 Par ch=5 c=7 v=95
28385 Par ch=5 c=7 v=103
28386 Par ch=5 c=7 v=111
28387 Par ch=5 c=7 v=119
28388 Par ch=5 c=7 v=127
28389 Par ch=5 c=7 v=119
28390 Par ch=5 c=7 v=111
28392 Par ch=5 c=7 v=103
28393 Par ch=5 c=7 v=95
28394 Par ch=5 c=7 v=86
28395 Par ch=5 c=7 v=78
28396 Par ch=5 c=7 v=70
28397 Par ch=5 c=7 v=62
28398 Par ch=5 c=7 v=53
28400 Par ch=5 c=7 v=45
28400 Par ch=5 c=7 v=37
28402 Par ch=5 c=7 v=29
28403 Par ch=5 c=7 v=21
28404 Par ch=5 c=7 v=12
28405 Par ch=5 c=7 v=21
28406 Par ch=5 c=7 v=29
28407 Par ch=5 c=7 v=37
28408 Par ch=5 c=7 v=45
28410 Par ch=5 c=7 v=62
28410 Par ch=5 c=7 v=53
28412 Par ch=5 c=7 v=70
28413 Par ch=5 c=7 v=78
28414 Par ch=5 c=7 v=86
28415 Par ch=5 c=7 v=95
28416 Par ch=5 c=7 v=103
28417 Par ch=5 c=7 v=111
28418 Par ch=5 c=7 v=119
28420 Par ch=5 c=7 v=127
28421 Par ch=5 c=7 v=119
28422 Par ch=5 c=7 v=111
28423 Par ch=5 c=7 v=103
28424 Par ch=5 c=7 v=95
28425 Par ch=5 c=7 v=86
28426 Par ch=5 c=7 v=78
28427 Par ch=5 c=7 v=70
28428 Par ch=5 c=7 v=62
28430 Par ch=5 c=7 v=53
28431 Par ch=5 c=7 v=45
28432 Par ch=5 c=7 v=37
28433 Par ch=5 c=7 v=29
28434 Par ch=5 c=7 v=21
28435 Par ch=5 c=7 v=12
28437 Par ch=5 c=7 v=21
28437 Par ch=5 c=7 v=29
28438 Par ch=5 c=7 v=37
28440 On ch=5 n=53 v=0
28440 On ch=5 n=50 v=0
28440 On ch=5 n=57 v=0
28440 On ch=5 n=57 v=40
28440 Par ch=5 c=7 v=45
28440 On ch=5 n=50 v=40
28440 On ch=5 n=62 v=40
28440 On ch=5 n=53 v=40
28441 Par ch=5 c=7 v=53
28442 Par ch=5 c=7 v=62
28443 Par ch=5 c=7 v=70
28444 Par ch=5 c=7 v=78
28445 Par ch=5 c=7 v=86
28447 Par ch=5 c=7 v=95
28447 Par ch=5 c=7 v=103
28448 Par ch=5 c=7 v=111
28450 Par ch=5 c=7 v=119
28451 Par ch=5 c=7 v=127
28452 Par ch=5 c=7 v=119
28453 Par ch=5 c=7 v=111
28454 Par ch=5 c=7 v=103
28455 Par ch=5 c=7 v=95
28457 Par ch=5 c=7 v=86
28458 Par ch=5 c=7 v=78
28458 Par ch=5 c=7 v=70
28460 Par ch=5 c=7 v=62
28461 Par ch=5 c=7 v=53
28462 Par ch=5 c=7 v=45
28463 Par ch=5 c=7 v=37
28464 Par ch=5 c=7 v=29
28465 Par ch=5 c=7 v=21
28467 Par ch=5 c=7 v=12
28468 Par ch=5 c=7 v=29
28468 Par ch=5 c=7 v=20
28470 Par ch=5 c=7 v=37
28471 Par ch=5 c=7 v=45
28472 Par ch=5 c=7 v=53
28473 Par ch=5 c=7 v=62
28474 Par ch=5 c=7 v=70
28475 Par ch=5 c=7 v=78
28477 Par ch=5 c=7 v=86
28478 Par ch=5 c=7 v=95
28479 Par ch=5 c=7 v=103
28480 Par ch=5 c=7 v=111
28481 Par ch=5 c=7 v=119
28482 Par ch=5 c=7 v=127
28483 Par ch=5 c=7 v=119
28484 Par ch=5 c=7 v=111
28485 Par ch=5 c=7 v=103
28487 Par ch=5 c=7 v=95
28488 Par ch=5 c=7 v=86
28489 Par ch=5 c=7 v=78
28490 Par ch=5 c=7 v=70
28491 Par ch=5 c=7 v=62
28492 Par ch=5 c=7 v=53
28493 Par ch=5 c=7 v=45
28495 Par ch=5 c=7 v=37
28495 Par ch=5 c=7 v=29
28497 Par ch=5 c=7 v=21
28498 Par ch=5 c=7 v=12
28499 Par ch=5 c=7 v=20
28500 On ch=5 n=53 v=0
28500 On ch=5 n=57 v=0
28500 On ch=5 n=50 v=0
28500 On ch=5 n=62 v=0
28500 On ch=5 n=57 v=40
28500 On ch=5 n=53 v=40
28500 Par ch=5 c=7 v=86
28500 On ch=5 n=50 v=40
28500 Par ch=5 c=7 v=78
28501 Par ch=5 c=7 v=95
28502 Par ch=5 c=7 v=103
28503 Par ch=5 c=7 v=111
28505 Par ch=5 c=7 v=127
28505 Par ch=5 c=7 v=119
28507 Par ch=5 c=7 v=119
28508 Par ch=5 c=7 v=111
28509 Par ch=5 c=7 v=103
28510 Par ch=5 c=7 v=95
28511 Par ch=5 c=7 v=86
28512 Par ch=5 c=7 v=78
28513 Par ch=5 c=7 v=70
28515 Par ch=5 c=7 v=62
28516 Par ch=5 c=7 v=53
28517 Par ch=5 c=7 v=45
28518 Par ch=5 c=7 v=37
28519 Par ch=5 c=7 v=29
28520 Par ch=5 c=7 v=21
28521 Par ch=5 c=7 v=12
28522 Par ch=5 c=7 v=21
28523 Par ch=5 c=7 v=29
28525 Par ch=5 c=7 v=37
28526 Par ch=5 c=7 v=45
28527 Par ch=5 c=7 v=53
28528 Par ch=5 c=7 v=62
28529 Par ch=5 c=7 v=70
28530 Par ch=5 c=7 v=78
28532 Par ch=5 c=7 v=95
28532 Par ch=5 c=7 v=86
28533 Par ch=5 c=7 v=103
28535 Par ch=5 c=7 v=111
28536 Par ch=5 c=7 v=119
28537 Par ch=5 c=7 v=127
28538 Par ch=5 c=7 v=119
28539 Par ch=5 c=7 v=111
28540 Par ch=5 c=7 v=103
28542 Par ch=5 c=7 v=86
28542 Par ch=5 c=7 v=95
28543 Par ch=5 c=7 v=78
28545 Par ch=5 c=7 v=70
28546 Par ch=5 c=7 v=62
28547 Par ch=5 c=7 v=53
28548 Par ch=5 c=7 v=45
28549 Par ch=5 c=7 v=37
28550 Par ch=5 c=7 v=29
28552 Par ch=5 c=7 v=21
28553 Par ch=5 c=7 v=21
28553 Par ch=5 c=7 v=12
28555 Par ch=5 c=7 v=29
28556 Par ch=5 c=7 v=37
28557 Par ch=5 c=7 v=45
28558 Par ch=5 c=7 v=53
28559 Par ch=5 c=7 v=62
28560 On ch=5 n=50 v=0
28560 On ch=5 n=53 v=0
28560 On ch=5 n=57 v=0
28560 On ch=5 n=50 v=40
28560 On ch=5 n=62 v=40
28560 On ch=5 n=57 v=40
28560 Par ch=5 c=7 v=70
28560 On ch=5 n=53 v=40
28562 Par ch=5 c=7 v=78
28563 Par ch=5 c=7 v=95
28563 Par ch=5 c=7 v=86
28565 Par ch=5 c=7 v=103
28566 Par ch=5 c=7 v=111
28567 Par ch=5 c=7 v=119
28568 Par ch=5 c=7 v=127
28569 Par ch=5 c=7 v=119
28570 Par ch=5 c=7 v=111
28572 Par ch=5 c=7 v=103
28573 Par ch=5 c=7 v=95
28573 Par ch=5 c=7 v=86
28575 Par ch=5 c=7 v=78
28576 Par ch=5 c=7 v=70
28577 Par ch=5 c=7 v=62
28578 Par ch=5 c=7 v=53
28579 Par ch=5 c=7 v=45
28580 Par ch=5 c=7 v=37
28582 Par ch=5 c=7 v=29
28583 Par ch=5 c=7 v=21
28584 Par ch=5 c=7 v=12
28585 Par ch=5 c=7 v=21
28586 Par ch=5 c=7 v=29
28587 Par ch=5 c=7 v=37
28588 Par ch=5 c=7 v=45
28590 Par ch=5 c=7 v=53
28590 Par ch=5 c=7 v=62
28592 Par ch=5 c=7 v=70
28593 Par ch=5 c=7 v=78
28594 Par ch=5 c=7 v=86
28595 Par ch=5 c=7 v=95
28596 Par ch=5 c=7 v=103
28597 Par ch=5 c=7 v=111
28598 Par ch=5 c=7 v=119
28600 Par ch=5 c=7 v=127
28600 Par ch=5 c=7 v=119
28602 Par ch=5 c=7 v=111
28603 Par ch=5 c=7 v=103
28604 Par ch=5 c=7 v=95
28605 Par ch=5 c=7 v=86
28606 Par ch=5 c=7 v=78
28607 Par ch=5 c=7 v=70
28608 Par ch=5 c=7 v=62
28610 Par ch=5 c=7 v=53
28610 Par ch=5 c=7 v=45
28612 Par ch=5 c=7 v=37
28613 Par ch=5 c=7 v=29
28614 Par ch=5 c=7 v=21
28615 Par ch=5 c=7 v=12
28616 Par ch=5 c=7 v=21
28617 Par ch=5 c=7 v=29
28618 Par ch=5 c=7 v=37
28620 On ch=5 n=53 v=0
28620 On ch=5 n=50 v=0
28620 On ch=5 n=62 v=0
28620 On ch=5 n=57 v=0
28620 On ch=5 n=50 v=40
28620 On ch=5 n=57 v=40
28620 Par ch=5 c=7 v=45
28620 On ch=5 n=53 v=40
28621 Par ch=5 c=7 v=53
28622 Par ch=5 c=7 v=62
28623 Par ch=5 c=7 v=70
28624 Par ch=5 c=7 v=78
28625 Par ch=5 c=7 v=86
28627 Par ch=5 c=7 v=103
28627 Par ch=5 c=7 v=95
28628 Par ch=5 c=7 v=111
28630 Par ch=5 c=7 v=119
28631 Par ch=5 c=7 v=127
28632 Par ch=5 c=7 v=119
28633 Par ch=5 c=7 v=111
28634 Par ch=5 c=7 v=103
28635 Par ch=5 c=7 v=95
28637 Par ch=5 c=7 v=86
28637 Par ch=5 c=7 v=78
28638 Par ch=5 c=7 v=70
28640 Par ch=5 c=7 v=62
28641 Par ch=5 c=7 v=53
28642 Par ch=5 c=7 v=45
28643 Par ch=5 c=7 v=37
28644 Par ch=5 c=7 v=29
28645 Par ch=5 c=7 v=21
28647 Par ch=5 c=7 v=12
28647 Par ch=5 c=7 v=20
28648 Par ch=5 c=7 v=29
28650 Par ch=5 c=7 v=37
28651 Par ch=5 c=7 v=45
28652 Par ch=5 c=7 v=53
28653 Par ch=5 c=7 v=62
28654 Par ch=5 c=7 v=70
28655 Par ch=5 c=7 v=78
28657 Par ch=5 c=7 v=86
28658 Par ch=5 c=7 v=95
28658 Par ch=5 c=7 v=103
28660 Par ch=5 c=7 v=111
28661 Par ch=5 c=7 v=119
28662 Par ch=5 c=7 v=127
28663 Par ch=5 c=7 v=119
28664 Par ch=5 c=7 v=111
28665 Par ch=5 c=7 v=103
28667 Par ch=5 c=7 v=95
28668 Par ch=5 c=7 v=86
28668 Par ch=5 c=7 v=78
28670 Par ch=5 c=7 v=70
28671 Par ch=5 c=7 v=62
28672 Par ch=5 c=7 v=53
28673 Par ch=5 c=7 v=45
28674 Par ch=5 c=7 v=37
28675 Par ch=5 c=7 v=29
28677 Par ch=5 c=7 v=21
28678 Par ch=5 c=7 v=12
28679 Par ch=5 c=7 v=20
28680 On ch=5 n=53 v=0
28680 On ch=5 n=57 v=0
28680 On ch=5 n=50 v=0
28680 On ch=5 n=50 v=40
28680 On ch=5 n=62 v=40
28680 On ch=5 n=57 v=40
28680 On ch=5 n=53 v=40
28680 Par ch=5 c=7 v=29
28681 Par ch=5 c=7 v=37
28682 Par ch=5 c=7 v=45
28683 Par ch=5 c=7 v=53
28684 Par ch=5 c=7 v=62
28685 Par ch=5 c=7 v=70
28687 Par ch=5 c=7 v=78
28688 Par ch=5 c=7 v=86
28689 Par ch=5 c=7 v=95
28690 Par ch=5 c=7 v=103
28691 Par ch=5 c=7 v=111
28692 Par ch=5 c=7 v=119
28693 Par ch=5 c=7 v=127
28695 Par ch=5 c=7 v=119
28695 Par ch=5 c=7 v=111
28697 Par ch=5 c=7 v=103
28698 Par ch=5 c=7 v=95
28699 Par ch=5 c=7 v=86
28700 Par ch=5 c=7 v=78
28701 Par ch=5 c=7 v=70
28702 Par ch=5 c=7 v=62
28703 Par ch=5 c=7 v=53
28705 Par ch=5 c=7 v=37
28705 Par ch=5 c=7 v=45
28707 Par ch=5 c=7 v=29
28708 Par ch=5 c=7 v=21
28709 Par ch=5 c=7 v=12
28710 Par ch=5 c=7 v=20
28711 Par ch=5 c=7 v=29
28712 Par ch=5 c=7 v=37
28713 Par ch=5 c=7 v=45
28715 Par ch=5 c=7 v=53
28716 Par ch=5 c=7 v=62
28717 Par ch=5 c=7 v=70
28718 Par ch=5 c=7 v=78
28719 Par ch=5 c=7 v=86
28720 Par ch=5 c=7 v=95
28721 Par ch=5 c=7 v=103
28722 Par ch=5 c=7 v=111
28723 Par ch=5 c=7 v=119
28725 Par ch=5 c=7 v=127
28726 Par ch=5 c=7 v=119
28727 Par ch=5 c=7 v=111
28728 Par ch=5 c=7 v=103
28729 Par ch=5 c=7 v=95
28730 Par ch=5 c=7 v=86
28732 Par ch=5 c=7 v=78
28732 Par ch=5 c=7 v=70
28733 Par ch=5 c=7 v=62
28735 Par ch=5 c=7 v=53
28736 Par ch=5 c=7 v=45
28737 Par ch=5 c=7 v=37
28738 Par ch=5 c=7 v=29
28739 Par ch=5 c=7 v=21
28740 On ch=5 n=53 v=0
28740 On ch=5 n=50 v=0
28740 On ch=5 n=62 v=0
28740 On ch=5 n=57 v=0
28740 On ch=5 n=57 v=40
28740 On ch=5 n=50 v=40
28740 On ch=5 n=53 v=40
28740 Par ch=5 c=7 v=12
28742 Par ch=5 c=7 v=20
28742 Par ch=5 c=7 v=29
28743 Par ch=5 c=7 v=37
28745 Par ch=5 c=7 v=45
28746 Par ch=5 c=7 v=53
28747 Par ch=5 c=7 v=62
28748 Par ch=5 c=7 v=70
28749 Par ch=5 c=7 v=78
28750 Par ch=5 c=7 v=86
28752 Par ch=5 c=7 v=95
28753 Par ch=5 c=7 v=111
28753 Par ch=5 c=7 v=103
28755 Par ch=5 c=7 v=119
28756 Par ch=5 c=7 v=127
28757 Par ch=5 c=7 v=119
28758 Par ch=5 c=7 v=111
28759 Par ch=5 c=7 v=103
28760 Par ch=5 c=7 v=95
28762 Par ch=5 c=7 v=86
28763 Par ch=5 c=7 v=78
28763 Par ch=5 c=7 v=70
28765 Par ch=5 c=7 v=62
28766 Par ch=5 c=7 v=54
28767 Par ch=5 c=7 v=45
28768 Par ch=5 c=7 v=37
28769 Par ch=5 c=7 v=29
28770 Par ch=5 c=7 v=21
28772 Par ch=5 c=7 v=12
28773 Par ch=5 c=7 v=20
28774 Par ch=5 c=7 v=29
28775 Par ch=5 c=7 v=37
28776 Par ch=5 c=7 v=45
28777 Par ch=5 c=7 v=53
28778 Par ch=5 c=7 v=62
28779 Par ch=5 c=7 v=70
28780 Par ch=5 c=7 v=78
28782 Par ch=5 c=7 v=86
28783 Par ch=5 c=7 v=95
28784 Par ch=5 c=7 v=103
28785 Par ch=5 c=7 v=111
28786 Par ch=5 c=7 v=119
28787 Par ch=5 c=7 v=127
28788 Par ch=5 c=7 v=119
28790 Par ch=5 c=7 v=111
28790 Par ch=5 c=7 v=103
28792 Par ch=5 c=7 v=95
28793 Par ch=5 c=7 v=86
28794 Par ch=5 c=7 v=78
28795 Par ch=5 c=7 v=70
28796 Par ch=5 c=7 v=62
28797 Par ch=5 c=7 v=54
28798 Par ch=5 c=7 v=45
28800 On ch=5 n=53 v=0
28800 On ch=5 n=50 v=0
28800 On ch=5 n=57 v=0
28800 On ch=5 n=46 v=40
28800 On ch=5 n=53 v=40
28800 Par ch=5 c=7 v=86
28800 Par ch=5 c=7 v=78
28800 On ch=5 n=58 v=40
28800 On ch=5 n=62 v=40
28800 Par ch=5 c=7 v=95
28802 Par ch=5 c=7 v=103
28803 Par ch=5 c=7 v=111
28804 Par ch=5 c=7 v=119
28805 Par ch=5 c=7 v=127
28806 Par ch=5 c=7 v=119
28807 Par ch=5 c=7 v=111
28808 Par ch=5 c=7 v=103
28810 Par ch=5 c=7 v=95
28811 Par ch=5 c=7 v=86
28812 Par ch=5 c=7 v=78
28813 Par ch=5 c=7 v=70
28814 Par ch=5 c=7 v=62
28815 Par ch=5 c=7 v=53
28816 Par ch=5 c=7 v=45
28817 Par ch=5 c=7 v=37
28818 Par ch=5 c=7 v=29
28820 Par ch=5 c=7 v=21
28821 Par ch=5 c=7 v=12
28822 Par ch=5 c=7 v=21
28823 Par ch=5 c=7 v=29
28824 Par ch=5 c=7 v=37
28825 Par ch=5 c=7 v=45
28827 Par ch=5 c=7 v=62
28827 Par ch=5 c=7 v=53
28828 Par ch=5 c=7 v=70
28830 Par ch=5 c=7 v=78
28831 Par ch=5 c=7 v=86
28832 Par ch=5 c=7 v=95
28833 Par ch=5 c=7 v=103
28834 Par ch=5 c=7 v=111
28835 Par ch=5 c=7 v=119
28837 Par ch=5 c=7 v=127
28837 Par ch=5 c=7 v=119
28838 Par ch=5 c=7 v=111
28840 Par ch=5 c=7 v=103
28841 Par ch=5 c=7 v=95
28842 Par ch=5 c=7 v=86
28843 Par ch=5 c=7 v=78
28844 Par ch=5 c=7 v=70
28845 Par ch=5 c=7 v=62
28847 Par ch=5 c=7 v=53
28848 Par ch=5 c=7 v=37
28848 Par ch=5 c=7 v=45
28850 Par ch=5 c=7 v=29
28851 Par ch=5 c=7 v=21
28852 Par ch=5 c=7 v=12
28853 Par ch=5 c=7 v=21
28854 Par ch=5 c=7 v=29
28855 Par ch=5 c=7 v=37
28857 Par ch=5 c=7 v=45
28858 Par ch=5 c=7 v=53
28858 Par ch=5 c=7 v=62
28860 On ch=5 n=62 v=0
28860 On ch=5 n=46 v=0
28860 On ch=5 n=53 v=0
28860 On ch=5 n=58 v=0
28860 On ch=5 n=46 v=40
28860 On ch=5 n=53 v=40
28860 Par ch=5 c=7 v=70
28860 On ch=5 n=58 v=40
28861 Par ch=5 c=7 v=78
28862 Par ch=5 c=7 v=86
28863 Par ch=5 c=7 v=95
28864 Par ch=5 c=7 v=103
28865 Par ch=5 c=7 v=111
28867 Par ch=5 c=7 v=119
28868 Par ch=5 c=7 v=127
28869 Par ch=5 c=7 v=119
28870 Par ch=5 c=7 v=111
28871 Par ch=5 c=7 v=103
28872 Par ch=5 c=7 v=95
28873 Par ch=5 c=7 v=86
28874 Par ch=5 c=7 v=78
28875 Par ch=5 c=7 v=70
28877 Par ch=5 c=7 v=62
28878 Par ch=5 c=7 v=53
28879 Par ch=5 c=7 v=45
28880 Par ch=5 c=7 v=37
28881 Par ch=5 c=7 v=29
28882 Par ch=5 c=7 v=21
28883 Par ch=5 c=7 v=12
28885 Par ch=5 c=7 v=29
28885 Par ch=5 c=7 v=21
28887 Par ch=5 c=7 v=37
28888 Par ch=5 c=7 v=45
28889 Par ch=5 c=7 v=53
28890 Par ch=5 c=7 v=62
28891 Par ch=5 c=7 v=70
28892 Par ch=5 c=7 v=78
28893 Par ch=5 c=7 v=86
28895 Par ch=5 c=7 v=103
28895 Par ch=5 c=7 v=95
28897 Par ch=5 c=7 v=111
28898 Par ch=5 c=7 v=119
28899 Par ch=5 c=7 v=127
28900 Par ch=5 c=7 v=119
28901 Par ch=5 c=7 v=111
28902 Par ch=5 c=7 v=103
28903 Par ch=5 c=7 v=95
28905 Par ch=5 c=7 v=86
28905 Par ch=5 c=7 v=78
28907 Par ch=5 c=7 v=70
28908 Par ch=5 c=7 v=62
28909 Par ch=5 c=7 v=53
28910 Par ch=5 c=7 v=45
28911 Par ch=5 c=7 v=37
28912 Par ch=5 c=7 v=29
28913 Par ch=5 c=7 v=21
28915 Par ch=5 c=7 v=12
28916 Par ch=5 c=7 v=21
28917 Par ch=5 c=7 v=29
28918 Par ch=5 c=7 v=37
28919 Par ch=5 c=7 v=45
28920 On ch=5 n=58 v=0
28920 On ch=5 n=53 v=0
28920 On ch=5 n=46 v=0
28920 On ch=5 n=58 v=40
28920 On ch=5 n=62 v=40
28920 On ch=5 n=53 v=40
28920 On ch=5 n=46 v=40
28920 Par ch=5 c=7 v=53
28922 Par ch=5 c=7 v=62
28922 Par ch=5 c=7 v=70
28923 Par ch=5 c=7 v=78
28925 Par ch=5 c=7 v=86
28926 Par ch=5 c=7 v=95
28927 Par ch=5 c=7 v=103
28928 Par ch=5 c=7 v=111
28929 Par ch=5 c=7 v=119
28930 Par ch=5 c=7 v=127
28932 Par ch=5 c=7 v=111
28932 Par ch=5 c=7 v=119
28933 Par ch=5 c=7 v=103
28935 Par ch=5 c=7 v=95
28936 Par ch=5 c=7 v=86
28937 Par ch=5 c=7 v=78
28938 Par ch=5 c=7 v=70
28939 Par ch=5 c=7 v=62
28940 Par ch=5 c=7 v=53
28942 Par ch=5 c=7 v=45
28943 Par ch=5 c=7 v=29
28943 Par ch=5 c=7 v=37
28945 Par ch=5 c=7 v=21
28946 Par ch=5 c=7 v=12
28947 Par ch=5 c=7 v=20
28948 Par ch=5 c=7 v=29
28949 Par ch=5 c=7 v=37
28950 Par ch=5 c=7 v=45
28952 Par ch=5 c=7 v=53
28953 Par ch=5 c=7 v=70
28953 Par ch=5 c=7 v=62
28955 Par ch=5 c=7 v=78
28956 Par ch=5 c=7 v=86
28957 Par ch=5 c=7 v=95
28958 Par ch=5 c=7 v=103
28959 Par ch=5 c=7 v=111
28960 Par ch=5 c=7 v=119
28962 Par ch=5 c=7 v=127
28963 Par ch=5 c=7 v=111
28963 Par ch=5 c=7 v=119
28965 Par ch=5 c=7 v=103
28966 Par ch=5 c=7 v=95
28967 Par ch=5 c=7 v=86
28968 Par ch=5 c=7 v=78
28969 Par ch=5 c=7 v=70
28970 Par ch=5 c=7 v=62
28972 Par ch=5 c=7 v=53
28973 Par ch=5 c=7 v=45
28974 Par ch=5 c=7 v=37
28975 Par ch=5 c=7 v=29
28976 Par ch=5 c=7 v=21
28977 Par ch=5 c=7 v=12
28978 Par ch=5 c=7 v=20
28980 On ch=5 n=46 v=0
28980 On ch=5 n=58 v=0
28980 On ch=5 n=62 v=0
28980 On ch=5 n=53 v=0
28980 On ch=5 n=53 v=40
28980 Par ch=5 c=7 v=95
28980 On ch=5 n=46 v=40
28980 On ch=5 n=58 v=40
28980 Par ch=5 c=7 v=86
28980 Par ch=5 c=7 v=78
28982 Par ch=5 c=7 v=103
28983 Par ch=5 c=7 v=111
28984 Par ch=5 c=7 v=119
28985 Par ch=5 c=7 v=127
28986 Par ch=5 c=7 v=119
28987 Par ch=5 c=7 v=111
28988 Par ch=5 c=7 v=103
28990 Par ch=5 c=7 v=86
28990 Par ch=5 c=7 v=95
28992 Par ch=5 c=7 v=78
28993 Par ch=5 c=7 v=70
28994 Par ch=5 c=7 v=62
28995 Par ch=5 c=7 v=53
28996 Par ch=5 c=7 v=45
28997 Par ch=5 c=7 v=37
28998 Par ch=5 c=7 v=29
29000 Par ch=5 c=7 v=21
29000 Par ch=5 c=7 v=12
29002 Par ch=5 c=7 v=21
29003 Par ch=5 c=7 v=29
29004 Par ch=5 c=7 v=37
29005 Par ch=5 c=7 v=45
29006 Par ch=5 c=7 v=53
29007 Par ch=5 c=7 v=62
29008 Par ch=5 c=7 v=70
29010 Par ch=5 c=7 v=78
29011 Par ch=5 c=7 v=86
29012 Par ch=5 c=7 v=95
29013 Par ch=5 c=7 v=103
29014 Par ch=5 c=7 v=111
29015 Par ch=5 c=7 v=119
29017 Par ch=5 c=7 v=127
29017 Par ch=5 c=7 v=119
29018 Par ch=5 c=7 v=111
29020 Par ch=5 c=7 v=103
29021 Par ch=5 c=7 v=95
29022 Par ch=5 c=7 v=86
29023 Par ch=5 c=7 v=78
29024 Par ch=5 c=7 v=70
29025 Par ch=5 c=7 v=62
29027 Par ch=5 c=7 v=45
29027 Par ch=5 c=7 v=53
29028 Par ch=5 c=7 v=37
29030 Par ch=5 c=7 v=29
29031 Par ch=5 c=7 v=21
29032 Par ch=5 c=7 v=12
29033 Par ch=5 c=7 v=21
29034 Par ch=5 c=7 v=29
29035 Par ch=5 c=7 v=37
29037 Par ch=5 c=7 v=45
29037 Par ch=5 c=7 v=53
29038 Par ch=5 c=7 v=62
29040 On ch=5 n=58 v=0
29040 On ch=5 n=46 v=0
29040 On ch=5 n=53 v=0
29040 On ch=5 n=53 v=40
29040 On ch=5 n=46 v=40
29040 Par ch=5 c=7 v=70
29040 On ch=5 n=58 v=40
29040 On ch=5 n=62 v=40
29041 Par ch=5 c=7 v=78
29042 Par ch=5 c=7 v=86
29043 Par ch=5 c=7 v=95
29044 Par ch=5 c=7 v=103
29045 Par ch=5 c=7 v=111
29047 Par ch=5 c=7 v=119
29048 Par ch=5 c=7 v=127
29048 Par ch=5 c=7 v=119
29050 Par ch=5 c=7 v=111
29051 Par ch=5 c=7 v=103
29052 Par ch=5 c=7 v=95
29053 Par ch=5 c=7 v=86
29054 Par ch=5 c=7 v=78
29055 Par ch=5 c=7 v=70
29057 Par ch=5 c=7 v=62
29058 Par ch=5 c=7 v=45
29058 Par ch=5 c=7 v=53
29060 Par ch=5 c=7 v=37
29061 Par ch=5 c=7 v=29
29062 Par ch=5 c=7 v=21
29063 Par ch=5 c=7 v=12
29064 Par ch=5 c=7 v=21
29065 Par ch=5 c=7 v=29
29067 Par ch=5 c=7 v=37
29068 Par ch=5 c=7 v=45
29069 Par ch=5 c=7 v=53
29070 Par ch=5 c=7 v=62
29071 Par ch=5 c=7 v=70
29072 Par ch=5 c=7 v=78
29073 Par ch=5 c=7 v=86
29074 Par ch=5 c=7 v=95
29075 Par ch=5 c=7 v=103
29077 Par ch=5 c=7 v=111
29078 Par ch=5 c=7 v=119
29079 Par ch=5 c=7 v=127
29080 Par ch=5 c=7 v=119
29081 Par ch=5 c=7 v=111
29082 Par ch=5 c=7 v=103
29083 Par ch=5 c=7 v=95
29085 Par ch=5 c=7 v=78
29085 Par ch=5 c=7 v=86
29087 Par ch=5 c=7 v=70
29088 Par ch=5 c=7 v=62
29089 Par ch=5 c=7 v=53
29090 Par ch=5 c=7 v=45
29091 Par ch=5 c=7 v=37
29092 Par ch=5 c=7 v=29
29093 Par ch=5 c=7 v=21
29095 Par ch=5 c=7 v=21
29095 Par ch=5 c=7 v=12
29097 Par ch=5 c=7 v=29
29098 Par ch=5 c=7 v=37
29099 Par ch=5 c=7 v=45
29100 On ch=5 n=62 v=0
29100 On ch=5 n=53 v=0
29100 On ch=5 n=46 v=0
29100 On ch=5 n=58 v=0
29100 On ch=5 n=58 v=40
29100 On ch=5 n=46 v=40
29100 Par ch=5 c=7 v=78
29100 On ch=5 n=53 v=40
29100 Par ch=5 c=7 v=86
29101 Par ch=5 c=7 v=95
29102 Par ch=5 c=7 v=103
29103 Par ch=5 c=7 v=111
29105 Par ch=5 c=7 v=119
29106 Par ch=5 c=7 v=127
29107 Par ch=5 c=7 v=119
29108 Par ch=5 c=7 v=111
29109 Par ch=5 c=7 v=103
29110 Par ch=5 c=7 v=95
29111 Par ch=5 c=7 v=86
29112 Par ch=5 c=7 v=78
29113 Par ch=5 c=7 v=70
29115 Par ch=5 c=7 v=62
29116 Par ch=5 c=7 v=53
29117 Par ch=5 c=7 v=45
29118 Par ch=5 c=7 v=37
29119 Par ch=5 c=7 v=29
29120 Par ch=5 c=7 v=21
29122 Par ch=5 c=7 v=12
29122 Par ch=5 c=7 v=21
29123 Par ch=5 c=7 v=29
29125 Par ch=5 c=7 v=37
29126 Par ch=5 c=7 v=45
29127 Par ch=5 c=7 v=53
29128 Par ch=5 c=7 v=62
29129 Par ch=5 c=7 v=70
29130 Par ch=5 c=7 v=78
29132 Par ch=5 c=7 v=86
29132 Par ch=5 c=7 v=95
29133 Par ch=5 c=7 v=103
29135 Par ch=5 c=7 v=111
29136 Par ch=5 c=7 v=119
29137 Par ch=5 c=7 v=127
29138 Par ch=5 c=7 v=119
29139 Par ch=5 c=7 v=111
29140 Par ch=5 c=7 v=103
29142 Par ch=5 c=7 v=95
29143 Par ch=5 c=7 v=86
29143 Par ch=5 c=7 v=78
29145 Par ch=5 c=7 v=70
29146 Par ch=5 c=7 v=62
29147 Par ch=5 c=7 v=53
29148 Par ch=5 c=7 v=45
29149 Par ch=5 c=7 v=37
29150 Par ch=5 c=7 v=29
29152 Par ch=5 c=7 v=21
29153 Par ch=5 c=7 v=21
29153 Par ch=5 c=7 v=12
29155 Par ch=5 c=7 v=29
29156 Par ch=5 c=7 v=37
29157 Par ch=5 c=7 v=45
29158 Par ch=5 c=7 v=53
29159 Par ch=5 c=7 v=86
29159 Par ch=5 c=7 v=78
29160 On ch=5 n=53 v=0
29160 On ch=5 n=46 v=0
29160 On ch=5 n=58 v=0
29160 Par ch=5 c=7 v=95
29160 On ch=5 n=62 v=40
29160 On ch=5 n=53 v=40
29160 On ch=5 n=58 v=40
29160 On ch=5 n=46 v=40
29161 Par ch=5 c=7 v=103
29163 Par ch=5 c=7 v=111
29164 Par ch=5 c=7 v=119
29165 Par ch=5 c=7 v=127
29166 Par ch=5 c=7 v=119
29167 Par ch=5 c=7 v=111
29168 Par ch=5 c=7 v=103
29169 Par ch=5 c=7 v=95
29170 Par ch=5 c=7 v=86
29172 Par ch=5 c=7 v=78
29173 Par ch=5 c=7 v=70
29174 Par ch=5 c=7 v=62
29175 Par ch=5 c=7 v=53
29176 Par ch=5 c=7 v=45
29177 Par ch=5 c=7 v=37
29178 Par ch=5 c=7 v=29
29180 Par ch=5 c=7 v=21
29180 Par ch=5 c=7 v=12
29182 Par ch=5 c=7 v=21
29183 Par ch=5 c=7 v=29
29184 Par ch=5 c=7 v=37
29185 Par ch=5 c=7 v=45
29186 Par ch=5 c=7 v=53
29187 Par ch=5 c=7 v=62
29188 Par ch=5 c=7 v=70
29190 Par ch=5 c=7 v=86
29190 Par ch=5 c=7 v=78
29191 Par ch=5 c=7 v=95
29193 Par ch=5 c=7 v=103
29194 Par ch=5 c=7 v=111
29195 Par ch=5 c=7 v=119
29196 Par ch=5 c=7 v=127
29197 Par ch=5 c=7 v=119
29198 Par ch=5 c=7 v=111
29200 Par ch=5 c=7 v=103
29201 Par ch=5 c=7 v=95
29202 Par ch=5 c=7 v=86
29203 Par ch=5 c=7 v=78
29204 Par ch=5 c=7 v=70
29205 Par ch=5 c=7 v=62
29206 Par ch=5 c=7 v=53
29207 Par ch=5 c=7 v=45
29208 Par ch=5 c=7 v=37
29210 Par ch=5 c=7 v=29
29211 Par ch=5 c=7 v=21
29212 Par ch=5 c=7 v=12
29213 Par ch=5 c=7 v=21
29214 Par ch=5 c=7 v=29
29215 Par ch=5 c=7 v=37
29217 Par ch=5 c=7 v=45
29217 Par ch=5 c=7 v=53
29218 Par ch=5 c=7 v=62
29220 On ch=5 n=46 v=0
29220 On ch=5 n=62 v=0
29220 On ch=5 n=53 v=0
29220 On ch=5 n=58 v=0
29220 On ch=5 n=58 v=40
29220 On ch=5 n=46 v=40
29220 Par ch=5 c=7 v=70
29220 On ch=5 n=53 v=40
29221 Par ch=5 c=7 v=78
29221 Par ch=5 c=7 v=86
29223 Par ch=5 c=7 v=95
29224 Par ch=5 c=7 v=103
29225 Par ch=5 c=7 v=111
29227 Par ch=5 c=7 v=127
29227 Par ch=5 c=7 v=119
29228 Par ch=5 c=7 v=119
29230 Par ch=5 c=7 v=111
29231 Par ch=5 c=7 v=103
29232 Par ch=5 c=7 v=95
29233 Par ch=5 c=7 v=86
29234 Par ch=5 c=7 v=78
29235 Par ch=5 c=7 v=70
29236 Par ch=5 c=7 v=62
29238 Par ch=5 c=7 v=45
29238 Par ch=5 c=7 v=53
29240 Par ch=5 c=7 v=37
29241 Par ch=5 c=7 v=29
29242 Par ch=5 c=7 v=21
29243 Par ch=5 c=7 v=12
29244 Par ch=5 c=7 v=21
29245 Par ch=5 c=7 v=29
29247 Par ch=5 c=7 v=37
29248 Par ch=5 c=7 v=53
29248 Par ch=5 c=7 v=45
29250 Par ch=5 c=7 v=62
29251 Par ch=5 c=7 v=70
29252 Par ch=5 c=7 v=78
29253 Par ch=5 c=7 v=86
29254 Par ch=5 c=7 v=95
29255 Par ch=5 c=7 v=103
29257 Par ch=5 c=7 v=111
29258 Par ch=5 c=7 v=127
29258 Par ch=5 c=7 v=119
29260 Par ch=5 c=7 v=119
29261 Par ch=5 c=7 v=111
29262 Par ch=5 c=7 v=103
29263 Par ch=5 c=7 v=95
29264 Par ch=5 c=7 v=86
29265 Par ch=5 c=7 v=78
29266 Par ch=5 c=7 v=70
29268 Par ch=5 c=7 v=62
29269 Par ch=5 c=7 v=53
29270 Par ch=5 c=7 v=45
29271 Par ch=5 c=7 v=37
29272 Par ch=5 c=7 v=29
29273 Par ch=5 c=7 v=21
29275 Par ch=5 c=7 v=21
29275 Par ch=5 c=7 v=12
29277 Par ch=5 c=7 v=29
29278 Par ch=5 c=7 v=37
29279 Par ch=5 c=7 v=45
29280 On ch=5 n=53 v=0
29280 On ch=5 n=46 v=0
29280 On ch=5 n=58 v=0
40800 On ch=5 n=53 v=40
40800 On ch=5 n=65 v=40
40800 On ch=5 n=57 v=40
40800 On ch=5 n=60 v=40
40860 On ch=5 n=60 v=0
40860 On ch=5 n=53 v=0
40860 On ch=5 n=65 v=0
40860 On ch=5 n=57 v=0
40860 On ch=5 n=53 v=40
40860 Par ch=5 c=7 v=70
40860 On ch=5 n=60 v=40
40860 Par ch=5 c=7 v=78
40860 On ch=5 n=57 v=40
40862 Par ch=5 c=7 v=86
40863 Par ch=5 c=7 v=95
40864 Par ch=5 c=7 v=103
40865 Par ch=5 c=7 v=111
40866 Par ch=5 c=7 v=119
40867 Par ch=5 c=7 v=127
40868 Par ch=5 c=7 v=119
40870 Par ch=5 c=7 v=111
40870 Par ch=5 c=7 v=103
40872 Par ch=5 c=7 v=95
40873 Par ch=5 c=7 v=86
40874 Par ch=5 c=7 v=78
40875 Par ch=5 c=7 v=70
40876 Par ch=5 c=7 v=62
40877 Par ch=5 c=7 v=53
40878 Par ch=5 c=7 v=45
40880 Par ch=5 c=7 v=37
40881 Par ch=5 c=7 v=29
40882 Par ch=5 c=7 v=21
40883 Par ch=5 c=7 v=12
40884 Par ch=5 c=7 v=21
40885 Par ch=5 c=7 v=29
40886 Par ch=5 c=7 v=37
40887 Par ch=5 c=7 v=45
40888 Par ch=5 c=7 v=53
40890 Par ch=5 c=7 v=62
40891 Par ch=5 c=7 v=70
40892 Par ch=5 c=7 v=78
40893 Par ch=5 c=7 v=86
40894 Par ch=5 c=7 v=95
40895 Par ch=5 c=7 v=103
40897 Par ch=5 c=7 v=119
40897 Par ch=5 c=7 v=111
40898 Par ch=5 c=7 v=127
40900 Par ch=5 c=7 v=119
40901 Par ch=5 c=7 v=111
40902 Par ch=5 c=7 v=103
40903 Par ch=5 c=7 v=95
40904 Par ch=5 c=7 v=86
40905 Par ch=5 c=7 v=78
40907 Par ch=5 c=7 v=70
40907 Par ch=5 c=7 v=62
40908 Par ch=5 c=7 v=53
40910 Par ch=5 c=7 v=45
40911 Par ch=5 c=7 v=37
40912 Par ch=5 c=7 v=29
40913 Par ch=5 c=7 v=21
40914 Par ch=5 c=7 v=12
40915 Par ch=5 c=7 v=21
40917 Par ch=5 c=7 v=29
40918 Par ch=5 c=7 v=45
40918 Par ch=5 c=7 v=37
40920 On ch=5 n=57 v=0
40920 On ch=5 n=60 v=0
40920 On ch=5 n=53 v=0
40920 Par ch=5 c=7 v=53
40920 On ch=5 n=60 v=40
40920 On ch=5 n=65 v=40
40920 On ch=5 n=53 v=40
40920 On ch=5 n=57 v=40
40921 Par ch=5 c=7 v=62
40922 Par ch=5 c=7 v=70
40923 Par ch=5 c=7 v=78
40924 Par ch=5 c=7 v=86
40925 Par ch=5 c=7 v=95
40927 Par ch=5 c=7 v=103
40928 Par ch=5 c=7 v=119
40928 Par ch=5 c=7 v=111
40930 Par ch=5 c=7 v=127
40931 Par ch=5 c=7 v=119
40932 Par ch=5 c=7 v=111
40933 Par ch=5 c=7 v=103
40934 Par ch=5 c=7 v=95
40935 Par ch=5 c=7 v=86
40937 Par ch=5 c=7 v=78
40938 Par ch=5 c=7 v=62
40938 Par ch=5 c=7 v=70
40940 Par ch=5 c=7 v=53
40941 Par ch=5 c=7 v=45
40942 Par ch=5 c=7 v=37
40943 Par ch=5 c=7 v=29
40944 Par ch=5 c=7 v=21
40945 Par ch=5 c=7 v=12
40947 Par ch=5 c=7 v=20
40948 Par ch=5 c=7 v=29
40949 Par ch=5 c=7 v=37
40950 Par ch=5 c=7 v=45
40951 Par ch=5 c=7 v=53
40952 Par ch=5 c=7 v=62
40953 Par ch=5 c=7 v=70
40955 Par ch=5 c=7 v=86
40955 Par ch=5 c=7 v=78
40957 Par ch=5 c=7 v=95
40958 Par ch=5 c=7 v=103
40959 Par ch=5 c=7 v=111
40960 Par ch=5 c=7 v=119
40961 Par ch=5 c=7 v=127
40962 Par ch=5 c=7 v=119
40963 Par ch=5 c=7 v=111
40965 Par ch=5 c=7 v=95
40965 Par ch=5 c=7 v=103
40967 Par ch=5 c=7 v=86
40968 Par ch=5 c=7 v=78
40969 Par ch=5 c=7 v=70
40970 Par ch=5 c=7 v=62
40971 Par ch=5 c=7 v=53
40972 Par ch=5 c=7 v=45
40973 Par ch=5 c=7 v=37
40975 Par ch=5 c=7 v=21
40975 Par ch=5 c=7 v=29
40977 Par ch=5 c=7 v=12
40978 Par ch=5 c=7 v=20
40979 Par ch=5 c=7 v=29
40980 On ch=5 n=57 v=0
40980 On ch=5 n=60 v=0
40980 On ch=5 n=65 v=0
40980 On ch=5 n=53 v=0
40980 On ch=5 n=53 v=40
40980 Par ch=5 c=7 v=78
40980 Par ch=5 c=7 v=86
40980 On ch=5 n=60 v=40
40980 On ch=5 n=57 v=40
40981 Par ch=5 c=7 v=95
40982 Par ch=5 c=7 v=103
40983 Par ch=5 c=7 v=111
40985 Par ch=5 c=7 v=119
40986 Par ch=5 c=7 v=127
40987 Par ch=5 c=7 v=119
40988 Par ch=5 c=7 v=111
40989 Par ch=5 c=7 v=103
40990 Par ch=5 c=7 v=95
40992 Par ch=5 c=7 v=86
40992 Par ch=5 c=7 v=78
40993 Par ch=5 c=7 v=70
40995 Par ch=5 c=7 v=62
40996 Par ch=5 c=7 v=53
40997 Par ch=5 c=7 v=45
40998 Par ch=5 c=7 v=37
40999 Par ch=5 c=7 v=29
41000 Par ch=5 c=7 v=21
41002 Par ch=5 c=7 v=12
41002 Par ch=5 c=7 v=21
41003 Par ch=5 c=7 v=29
41005 Par ch=5 c=7 v=37
41006 Par ch=5 c=7 v=45
41007 Par ch=5 c=7 v=53
41008 Par ch=5 c=7 v=62
41009 Par ch=5 c=7 v=70
41010 Par ch=5 c=7 v=78
41012 Par ch=5 c=7 v=95
41012 Par ch=5 c=7 v=86
41013 Par ch=5 c=7 v=103
41015 Par ch=5 c=7 v=111
41016 Par ch=5 c=7 v=119
41017 Par ch=5 c=7 v=127
41018 Par ch=5 c=7 v=119
41019 Par ch=5 c=7 v=111
41020 Par ch=5 c=7 v=103
41022 Par ch=5 c=7 v=95
41023 Par ch=5 c=7 v=86
41023 Par ch=5 c=7 v=78
41025 Par ch=5 c=7 v=70
41026 Par ch=5 c=7 v=62
41027 Par ch=5 c=7 v=53
41028 Par ch=5 c=7 v=45
41029 Par ch=5 c=7 v=37
41030 Par ch=5 c=7 v=29
41032 Par ch=5 c=7 v=21
41033 Par ch=5 c=7 v=12
41033 Par ch=5 c=7 v=21
41035 Par ch=5 c=7 v=29
41036 Par ch=5 c=7 v=37
41037 Par ch=5 c=7 v=45
41038 Par ch=5 c=7 v=53
41039 Par ch=5 c=7 v=62
41040 On ch=5 n=57 v=0
41040 On ch=5 n=60 v=0
41040 On ch=5 n=53 v=0
41040 On ch=5 n=60 v=40
41040 Par ch=5 c=7 v=70
41040 On ch=5 n=65 v=40
41040 On ch=5 n=57 v=40
41040 On ch=5 n=53 v=40
41042 Par ch=5 c=7 v=78
41043 Par ch=5 c=7 v=86
41044 Par ch=5 c=7 v=95
41045 Par ch=5 c=7 v=103
41046 Par ch=5 c=7 v=111
41047 Par ch=5 c=7 v=119
41048 Par ch=5 c=7 v=127
41049 Par ch=5 c=7 v=119
41050 Par ch=5 c=7 v=111
41051 Par ch=5 c=7 v=103
41053 Par ch=5 c=7 v=95
41054 Par ch=5 c=7 v=86
41055 Par ch=5 c=7 v=78
41056 Par ch=5 c=7 v=70
41057 Par ch=5 c=7 v=62
41058 Par ch=5 c=7 v=53
41060 Par ch=5 c=7 v=45
41060 Par ch=5 c=7 v=37
41062 Par ch=5 c=7 v=29
41063 Par ch=5 c=7 v=21
41064 Par ch=5 c=7 v=12
41065 Par ch=5 c=7 v=21
41066 Par ch=5 c=7 v=29
41067 Par ch=5 c=7 v=37
41068 Par ch=5 c=7 v=45
41070 Par ch=5 c=7 v=53
41070 Par ch=5 c=7 v=62
41072 Par ch=5 c=7 v=70
41073 Par ch=5 c=7 v=78
41074 Par ch=5 c=7 v=86
41075 Par ch=5 c=7 v=95
41076 Par ch=5 c=7 v=103
41077 Par ch=5 c=7 v=111
41078 Par ch=5 c=7 v=119
41080 Par ch=5 c=7 v=127
41081 Par ch=5 c=7 v=119
41082 Par ch=5 c=7 v=111
41083 Par ch=5 c=7 v=103
41084 Par ch=5 c=7 v=95
41085 Par ch=5 c=7 v=86
41086 Par ch=5 c=7 v=78
41087 Par ch=5 c=7 v=70
41088 Par ch=5 c=7 v=62
41090 Par ch=5 c=7 v=53
41091 Par ch=5 c=7 v=45
41092 Par ch=5 c=7 v=37
41093 Par ch=5 c=7 v=29
41094 Par ch=5 c=7 v=21
41095 Par ch=5 c=7 v=12
41097 Par ch=5 c=7 v=29
41097 Par ch=5 c=7 v=21
41098 Par ch=5 c=7 v=37
41100 On ch=5 n=53 v=0
41100 On ch=5 n=60 v=0
41100 On ch=5 n=65 v=0
41100 On ch=5 n=57 v=0
41100 Par ch=5 c=7 v=45
41100 On ch=5 n=60 v=40
41100 On ch=5 n=53 v=40
41100 On ch=5 n=57 v=40
41101 Par ch=5 c=7 v=53
41102 Par ch=5 c=7 v=62
41103 Par ch=5 c=7 v=70
41104 Par ch=5 c=7 v=78
41105 Par ch=5 c=7 v=86
41107 Par ch=5 c=7 v=103
41107 Par ch=5 c=7 v=95
41108 Par ch=5 c=7 v=111
41110 Par ch=5 c=7 v=119
41111 Par ch=5 c=7 v=127
41112 Par ch=5 c=7 v=119
41113 Par ch=5 c=7 v=111
41114 Par ch=5 c=7 v=103
41115 Par ch=5 c=7 v=95
41117 Par ch=5 c=7 v=86
41118 Par ch=5 c=7 v=70
41118 Par ch=5 c=7 v=78
41120 Par ch=5 c=7 v=62
41121 Par ch=5 c=7 v=53
41122 Par ch=5 c=7 v=45
41123 Par ch=5 c=7 v=37
41124 Par ch=5 c=7 v=29
41125 Par ch=5 c=7 v=21
41127 Par ch=5 c=7 v=12
41128 Par ch=5 c=7 v=29
41128 Par ch=5 c=7 v=20
41130 Par ch=5 c=7 v=37
41131 Par ch=5 c=7 v=45
41132 Par ch=5 c=7 v=53
41133 Par ch=5 c=7 v=62
41134 Par ch=5 c=7 v=70
41135 Par ch=5 c=7 v=78
41137 Par ch=5 c=7 v=86
41138 Par ch=5 c=7 v=95
41139 Par ch=5 c=7 v=103
41140 Par ch=5 c=7 v=111
41141 Par ch=5 c=7 v=119
41142 Par ch=5 c=7 v=127
41143 Par ch=5 c=7 v=119
41144 Par ch=5 c=7 v=111
41145 Par ch=5 c=7 v=103
41147 Par ch=5 c=7 v=95
41148 Par ch=5 c=7 v=86
41149 Par ch=5 c=7 v=78
41150 Par ch=5 c=7 v=70
41151 Par ch=5 c=7 v=62
41152 Par ch=5 c=7 v=53
41153 Par ch=5 c=7 v=45
41155 Par ch=5 c=7 v=37
41155 Par ch=5 c=7 v=29
41157 Par ch=5 c=7 v=21
41158 Par ch=5 c=7 v=12
41159 Par ch=5 c=7 v=20
41160 On ch=5 n=57 v=0
41160 On ch=5 n=53 v=0
41160 On ch=5 n=60 v=0
41160 On ch=5 n=65 v=40
41160 On ch=5 n=57 v=40
41160 On ch=5 n=53 v=40
41160 On ch=5 n=60 v=40
41160 Par ch=5 c=7 v=29
41161 Par ch=5 c=7 v=37
41162 Par ch=5 c=7 v=45
41163 Par ch=5 c=7 v=53
41165 Par ch=5 c=7 v=70
41165 Par ch=5 c=7 v=62
41167 Par ch=5 c=7 v=78
41168 Par ch=5 c=7 v=86
41169 Par ch=5 c=7 v=95
41170 Par ch=5 c=7 v=103
41171 Par ch=5 c=7 v=111
41172 Par ch=5 c=7 v=119
41173 Par ch=5 c=7 v=127
41175 Par ch=5 c=7 v=119
41176 Par ch=5 c=7 v=111
41177 Par ch=5 c=7 v=103
41178 Par ch=5 c=7 v=95
41179 Par ch=5 c=7 v=86
41180 Par ch=5 c=7 v=78
41181 Par ch=5 c=7 v=70
41182 Par ch=5 c=7 v=62
41183 Par ch=5 c=7 v=53
41185 Par ch=5 c=7 v=45
41186 Par ch=5 c=7 v=37
41187 Par ch=5 c=7 v=29
41188 Par ch=5 c=7 v=21
41189 Par ch=5 c=7 v=12
41190 Par ch=5 c=7 v=20
41192 Par ch=5 c=7 v=37
41192 Par ch=5 c=7 v=29
41193 Par ch=5 c=7 v=45
41195 Par ch=5 c=7 v=53
41196 Par ch=5 c=7 v=62
41197 Par ch=5 c=7 v=70
41198 Par ch=5 c=7 v=78
41199 Par ch=5 c=7 v=86
41200 Par ch=5 c=7 v=95
41202 Par ch=5 c=7 v=111
41202 Par ch=5 c=7 v=103
41203 Par ch=5 c=7 v=119
41205 Par ch=5 c=7 v=127
41206 Par ch=5 c=7 v=119
41207 Par ch=5 c=7 v=111
41208 Par ch=5 c=7 v=103
41209 Par ch=5 c=7 v=95
41210 Par ch=5 c=7 v=86
41212 Par ch=5 c=7 v=78
41213 Par ch=5 c=7 v=62
41213 Par ch=5 c=7 v=70
41215 Par ch=5 c=7 v=53
41216 Par ch=5 c=7 v=45
41217 Par ch=5 c=7 v=37
41218 Par ch=5 c=7 v=29
41219 Par ch=5 c=7 v=21
41220 On ch=5 n=60 v=0
41220 On ch=5 n=65 v=0
41220 On ch=5 n=57 v=0
41220 On ch=5 n=53 v=0
41220 On ch=5 n=53 v=40
41220 On ch=5 n=60 v=40
41220 Par ch=5 c=7 v=12
41220 On ch=5 n=57 v=40
41222 Par ch=5 c=7 v=20
41223 Par ch=5 c=7 v=37
41223 Par ch=5 c=7 v=29
41225 Par ch=5 c=7 v=45
41226 Par ch=5 c=7 v=53
41227 Par ch=5 c=7 v=62
41228 Par ch=5 c=7 v=70
41229 Par ch=5 c=7 v=78
41230 Par ch=5 c=7 v=86
41232 Par ch=5 c=7 v=95
41233 Par ch=5 c=7 v=103
41234 Par ch=5 c=7 v=111
41235 Par ch=5 c=7 v=119
41236 Par ch=5 c=7 v=127
41237 Par ch=5 c=7 v=119
41238 Par ch=5 c=7 v=111
41239 Par ch=5 c=7 v=103
41240 Par ch=5 c=7 v=95
41242 Par ch=5 c=7 v=86
41243 Par ch=5 c=7 v=78
41244 Par ch=5 c=7 v=70
41245 Par ch=5 c=7 v=62
41246 Par ch=5 c=7 v=54
41247 Par ch=5 c=7 v=45
41248 Par ch=5 c=7 v=37
41250 Par ch=5 c=7 v=21
41250 Par ch=5 c=7 v=29
41251 Par ch=5 c=7 v=12
41253 Par ch=5 c=7 v=20
41254 Par ch=5 c=7 v=29
41255 Par ch=5 c=7 v=37
41256 Par ch=5 c=7 v=45
41257 Par ch=5 c=7 v=53
41258 Par ch=5 c=7 v=62
41260 Par ch=5 c=7 v=78
41260 Par ch=5 c=7 v=70
41262 Par ch=5 c=7 v=86
41263 Par ch=5 c=7 v=95
41264 Par ch=5 c=7 v=103
41265 Par ch=5 c=7 v=111
41266 Par ch=5 c=7 v=119
41267 Par ch=5 c=7 v=127
41268 Par ch=5 c=7 v=119
41270 Par ch=5 c=7 v=111
41271 Par ch=5 c=7 v=103
41272 Par ch=5 c=7 v=95
41273 Par ch=5 c=7 v=86
41274 Par ch=5 c=7 v=78
41275 Par ch=5 c=7 v=70
41276 Par ch=5 c=7 v=62
41277 Par ch=5 c=7 v=54
41278 Par ch=5 c=7 v=45
41280 On ch=5 n=57 v=0
41280 On ch=5 n=60 v=0
41280 On ch=5 n=53 v=0
41280 Par ch=5 c=7 v=86
41280 On ch=5 n=52 v=40
41280 On ch=5 n=64 v=40
41280 On ch=5 n=60 v=40
41280 On ch=5 n=55 v=40
41280 Par ch=5 c=7 v=78
41281 Par ch=5 c=7 v=103
41281 Par ch=5 c=7 v=95
41283 Par ch=5 c=7 v=111
41284 Par ch=5 c=7 v=119
41285 Par ch=5 c=7 v=127
41287 Par ch=5 c=7 v=111
41287 Par ch=5 c=7 v=119
41288 Par ch=5 c=7 v=103
41290 Par ch=5 c=7 v=95
41291 Par ch=5 c=7 v=86
41292 Par ch=5 c=7 v=78
41293 Par ch=5 c=7 v=70
41294 Par ch=5 c=7 v=62
41295 Par ch=5 c=7 v=53
41296 Par ch=5 c=7 v=45
41297 Par ch=5 c=7 v=37
41298 Par ch=5 c=7 v=29
41300 Par ch=5 c=7 v=21
41301 Par ch=5 c=7 v=12
41302 Par ch=5 c=7 v=21
41303 Par ch=5 c=7 v=29
41304 Par ch=5 c=7 v=37
41305 Par ch=5 c=7 v=45
41307 Par ch=5 c=7 v=53
41308 Par ch=5 c=7 v=62
41308 Par ch=5 c=7 v=70
41310 Par ch=5 c=7 v=78
41311 Par ch=5 c=7 v=86
41312 Par ch=5 c=7 v=95
41313 Par ch=5 c=7 v=103
41314 Par ch=5 c=7 v=111
41315 Par ch=5 c=7 v=119
41317 Par ch=5 c=7 v=127
41318 Par ch=5 c=7 v=119
41318 Par ch=5 c=7 v=111
41320 Par ch=5 c=7 v=103
41321 Par ch=5 c=7 v=95
41322 Par ch=5 c=7 v=86
41323 Par ch=5 c=7 v=78
41324 Par ch=5 c=7 v=70
41325 Par ch=5 c=7 v=62
41327 Par ch=5 c=7 v=53
41328 Par ch=5 c=7 v=45
41328 Par ch=5 c=7 v=37
41330 Par ch=5 c=7 v=29
41331 Par ch=5 c=7 v=21
41332 Par ch=5 c=7 v=12
41333 Par ch=5 c=7 v=21
41334 Par ch=5 c=7 v=29
41335 Par ch=5 c=7 v=37
41337 Par ch=5 c=7 v=45
41338 Par ch=5 c=7 v=53
41339 Par ch=5 c=7 v=62
41340 On ch=5 n=55 v=0
41340 On ch=5 n=52 v=0
41340 On ch=5 n=64 v=0
41340 On ch=5 n=60 v=0
41340 Par ch=5 c=7 v=70
41340 On ch=5 n=60 v=40
41340 On ch=5 n=52 v=40
41340 On ch=5 n=55 v=40
41341 Par ch=5 c=7 v=78
41342 Par ch=5 c=7 v=86
41343 Par ch=5 c=7 v=95
41345 Par ch=5 c=7 v=103
41345 Par ch=5 c=7 v=111
41347 Par ch=5 c=7 v=119
41348 Par ch=5 c=7 v=127
41349 Par ch=5 c=7 v=119
41350 Par ch=5 c=7 v=111
41351 Par ch=5 c=7 v=103
41352 Par ch=5 c=7 v=95
41353 Par ch=5 c=7 v=86
41355 Par ch=5 c=7 v=78
41355 Par ch=5 c=7 v=70
41357 Par ch=5 c=7 v=62
41358 Par ch=5 c=7 v=53
41359 Par ch=5 c=7 v=45
41360 Par ch=5 c=7 v=37
41361 Par ch=5 c=7 v=29
41362 Par ch=5 c=7 v=21
41363 Par ch=5 c=7 v=12
41365 Par ch=5 c=7 v=29
41365 Par ch=5 c=7 v=21
41367 Par ch=5 c=7 v=37
41368 Par ch=5 c=7 v=45
41369 Par ch=5 c=7 v=53
41370 Par ch=5 c=7 v=62
41371 Par ch=5 c=7 v=70
41372 Par ch=5 c=7 v=78
41373 Par ch=5 c=7 v=86
41375 Par ch=5 c=7 v=95
41376 Par ch=5 c=7 v=103
41377 Par ch=5 c=7 v=111
41378 Par ch=5 c=7 v=119
41379 Par ch=5 c=7 v=127
41380 Par ch=5 c=7 v=119
41382 Par ch=5 c=7 v=103
41382 Par ch=5 c=7 v=111
41383 Par ch=5 c=7 v=95
41385 Par ch=5 c=7 v=86
41386 Par ch=5 c=7 v=78
41387 Par ch=5 c=7 v=70
41388 Par ch=5 c=7 v=62
41389 Par ch=5 c=7 v=53
41390 Par ch=5 c=7 v=45
41392 Par ch=5 c=7 v=37
41392 Par ch=5 c=7 v=29
41393 Par ch=5 c=7 v=21
41395 Par ch=5 c=7 v=12
41396 Par ch=5 c=7 v=21
41397 Par ch=5 c=7 v=29
41398 Par ch=5 c=7 v=37
41399 Par ch=5 c=7 v=45
41400 On ch=5 n=55 v=0
41400 On ch=5 n=52 v=0
41400 On ch=5 n=60 v=0
41400 On ch=5 n=55 v=40
41400 On ch=5 n=64 v=40
41400 On ch=5 n=60 v=40
41400 On ch=5 n=52 v=40
41400 Par ch=5 c=7 v=53
41402 Par ch=5 c=7 v=62
41402 Par ch=5 c=7 v=70
41403 Par ch=5 c=7 v=78
41405 Par ch=5 c=7 v=86
41406 Par ch=5 c=7 v=95
41407 Par ch=5 c=7 v=103
41408 Par ch=5 c=7 v=111
41409 Par ch=5 c=7 v=119
41410 Par ch=5 c=7 v=127
41412 Par ch=5 c=7 v=119
41413 Par ch=5 c=7 v=103
41413 Par ch=5 c=7 v=111
41415 Par ch=5 c=7 v=95
41416 Par ch=5 c=7 v=86
41417 Par ch=5 c=7 v=78
41418 Par ch=5 c=7 v=70
41419 Par ch=5 c=7 v=62
41420 Par ch=5 c=7 v=53
41422 Par ch=5 c=7 v=45
41423 Par ch=5 c=7 v=37
41423 Par ch=5 c=7 v=29
41425 Par ch=5 c=7 v=21
41426 Par ch=5 c=7 v=12
41427 Par ch=5 c=7 v=20
41428 Par ch=5 c=7 v=29
41429 Par ch=5 c=7 v=37
41430 Par ch=5 c=7 v=45
41432 Par ch=5 c=7 v=53
41433 Par ch=5 c=7 v=62
41434 Par ch=5 c=7 v=70
41435 Par ch=5 c=7 v=78
41436 Par ch=5 c=7 v=86
41437 Par ch=5 c=7 v=95
41438 Par ch=5 c=7 v=103
41439 Par ch=5 c=7 v=111
41440 Par ch=5 c=7 v=119
41442 Par ch=5 c=7 v=127
41443 Par ch=5 c=7 v=119
41444 Par ch=5 c=7 v=111
41445 Par ch=5 c=7 v=103
41446 Par ch=5 c=7 v=95
41447 Par ch=5 c=7 v=86
41448 Par ch=5 c=7 v=78
41450 Par ch=5 c=7 v=62
41450 Par ch=5 c=7 v=70
41452 Par ch=5 c=7 v=53
41453 Par ch=5 c=7 v=45
41454 Par ch=5 c=7 v=37
41455 Par ch=5 c=7 v=29
41456 Par ch=5 c=7 v=21
41457 Par ch=5 c=7 v=12
41458 Par ch=5 c=7 v=20
41460 On ch=5 n=52 v=0
41460 On ch=5 n=55 v=0
41460 On ch=5 n=64 v=0
41460 On ch=5 n=60 v=0
41460 On ch=5 n=55 v=40
41460 Par ch=5 c=7 v=95
41460 Par ch=5 c=7 v=78
41460 On ch=5 n=52 v=40
41460 Par ch=5 c=7 v=86
41460 On ch=5 n=60 v=40
41462 Par ch=5 c=7 v=103
41463 Par ch=5 c=7 v=111
41464 Par ch=5 c=7 v=119
41465 Par ch=5 c=7 v=127
41466 Par ch=5 c=7 v=119
41467 Par ch=5 c=7 v=111
41468 Par ch=5 c=7 v=103
41470 Par ch=5 c=7 v=95
41471 Par ch=5 c=7 v=86
41472 Par ch=5 c=7 v=78
41473 Par ch=5 c=7 v=70
41474 Par ch=5 c=7 v=62
41475 Par ch=5 c=7 v=53
41476 Par ch=5 c=7 v=45
41477 Par ch=5 c=7 v=37
41478 Par ch=5 c=7 v=29
41480 Par ch=5 c=7 v=21
41481 Par ch=5 c=7 v=12
41482 Par ch=5 c=7 v=21
41483 Par ch=5 c=7 v=29
41484 Par ch=5 c=7 v=37
41485 Par ch=5 c=7 v=45
41487 Par ch=5 c=7 v=53
41487 Par ch=5 c=7 v=62
41488 Par ch=5 c=7 v=70
41490 Par ch=5 c=7 v=78
41491 Par ch=5 c=7 v=86
41492 Par ch=5 c=7 v=95
41493 Par ch=5 c=7 v=103
41494 Par ch=5 c=7 v=111
41495 Par ch=5 c=7 v=119
41497 Par ch=5 c=7 v=119
41497 Par ch=5 c=7 v=127
41498 Par ch=5 c=7 v=111
41500 Par ch=5 c=7 v=103
41501 Par ch=5 c=7 v=95
41502 Par ch=5 c=7 v=86
41503 Par ch=5 c=7 v=78
41504 Par ch=5 c=7 v=70
41505 Par ch=5 c=7 v=62
41507 Par ch=5 c=7 v=53
41508 Par ch=5 c=7 v=37
41508 Par ch=5 c=7 v=45
41510 Par ch=5 c=7 v=29
41511 Par ch=5 c=7 v=21
41512 Par ch=5 c=7 v=12
41513 Par ch=5 c=7 v=21
41514 Par ch=5 c=7 v=29
41515 Par ch=5 c=7 v=37
41517 Par ch=5 c=7 v=45
41518 Par ch=5 c=7 v=62
41518 Par ch=5 c=7 v=53
41520 On ch=5 n=60 v=0
41520 On ch=5 n=52 v=0
41520 On ch=5 n=55 v=0
41520 On ch=5 n=60 v=40
41520 On ch=5 n=55 v=40
41520 Par ch=5 c=7 v=70
41520 On ch=5 n=64 v=40
41520 On ch=5 n=52 v=40
41520 Par ch=5 c=11 v=127
41521 Par ch=5 c=7 v=78
41522 Par ch=5 c=7 v=86
41523 Par ch=5 c=7 v=95
41524 Par ch=5 c=7 v=103
41525 Par ch=5 c=7 v=111
41527 Par ch=5 c=7 v=119
41528 Par ch=5 c=7 v=127
41529 Par ch=5 c=7 v=119
41530 Par ch=5 c=7 v=111
41530 Par ch=5 c=11 v=126
41531 Par ch=5 c=7 v=103
41532 Par ch=5 c=7 v=95
41533 Par ch=5 c=7 v=86
41534 Par ch=5 c=7 v=78
41535 Par ch=5 c=7 v=70
41537 Par ch=5 c=7 v=62
41538 Par ch=5 c=7 v=53
41539 Par ch=5 c=7 v=45
41539 Par ch=5 c=11 v=125
41540 Par ch=5 c=7 v=37
41541 Par ch=5 c=7 v=29
41542 Par ch=5 c=7 v=21
41543 Par ch=5 c=7 v=12
41545 Par ch=5 c=7 v=21
41545 Par ch=5 c=7 v=29
41547 Par ch=5 c=7 v=37
41548 Par ch=5 c=7 v=45
41549 Par ch=5 c=7 v=53
41550 Par ch=5 c=11 v=124
41550 Par ch=5 c=7 v=62
41551 Par ch=5 c=7 v=70
41552 Par ch=5 c=7 v=78
41553 Par ch=5 c=7 v=86
41555 Par ch=5 c=7 v=103
41555 Par ch=5 c=7 v=95
41557 Par ch=5 c=7 v=111
41558 Par ch=5 c=7 v=119
41558 Par ch=5 c=11 v=123
41559 Par ch=5 c=7 v=127
41560 Par ch=5 c=7 v=119
41561 Par ch=5 c=7 v=111
41562 Par ch=5 c=7 v=103
41563 Par ch=5 c=7 v=95
41565 Par ch=5 c=7 v=86
41566 Par ch=5 c=7 v=78
41566 Par ch=5 c=11 v=122
41567 Par ch=5 c=7 v=70
41568 Par ch=5 c=7 v=62
41569 Par ch=5 c=7 v=53
41570 Par ch=5 c=7 v=45
41571 Par ch=5 c=7 v=37
41572 Par ch=5 c=7 v=29
41573 Par ch=5 c=7 v=21
41575 Par ch=5 c=7 v=12
41576 Par ch=5 c=7 v=21
41577 Par ch=5 c=7 v=29
41577 Par ch=5 c=11 v=121
41578 Par ch=5 c=7 v=37
41579 Par ch=5 c=7 v=45
41580 On ch=5 n=52 v=0
41580 On ch=5 n=60 v=0
41580 On ch=5 n=55 v=0
41580 On ch=5 n=64 v=0
41580 On ch=5 n=55 v=40
41580 On ch=5 n=52 v=40
41580 On ch=5 n=60 v=40
41580 Par ch=5 c=7 v=53
41582 Par ch=5 c=7 v=70
41582 Par ch=5 c=7 v=62
41583 Par ch=5 c=7 v=78
41585 Par ch=5 c=7 v=86
41585 Par ch=5 c=11 v=120
41586 Par ch=5 c=7 v=95
41587 Par ch=5 c=7 v=103
41588 Par ch=5 c=7 v=111
41589 Par ch=5 c=7 v=119
41590 Par ch=5 c=7 v=127
41592 Par ch=5 c=7 v=119
41592 Par ch=5 c=7 v=111
41593 Par ch=5 c=7 v=103
41593 Par ch=5 c=11 v=119
41595 Par ch=5 c=7 v=95
41596 Par ch=5 c=7 v=86
41597 Par ch=5 c=7 v=78
41598 Par ch=5 c=7 v=70
41599 Par ch=5 c=7 v=62
41600 Par ch=5 c=7 v=53
41602 Par ch=5 c=7 v=45
41603 Par ch=5 c=7 v=29
41603 Par ch=5 c=7 v=37
41604 Par ch=5 c=11 v=118
41605 Par ch=5 c=7 v=21
41606 Par ch=5 c=7 v=12
41607 Par ch=5 c=7 v=20
41608 Par ch=5 c=7 v=29
41609 Par ch=5 c=7 v=37
41610 Par ch=5 c=7 v=45
41612 Par ch=5 c=7 v=53
41612 Par ch=5 c=11 v=117
41613 Par ch=5 c=7 v=62
41613 Par ch=5 c=7 v=70
41615 Par ch=5 c=7 v=78
41616 Par ch=5 c=7 v=86
41617 Par ch=5 c=7 v=95
41618 Par ch=5 c=7 v=103
41619 Par ch=5 c=7 v=111
41620 Par ch=5 c=7 v=119
41620 Par ch=5 c=11 v=116
41622 Par ch=5 c=7 v=127
41623 Par ch=5 c=7 v=119
41623 Par ch=5 c=7 v=111
41625 Par ch=5 c=7 v=103
41626 Par ch=5 c=7 v=95
41627 Par ch=5 c=7 v=86
41628 Par ch=5 c=7 v=78
41629 Par ch=5 c=7 v=70
41630 Par ch=5 c=7 v=62
41631 Par ch=5 c=11 v=115
41632 Par ch=5 c=7 v=53
41633 Par ch=5 c=7 v=45
41634 Par ch=5 c=7 v=37
41635 Par ch=5 c=7 v=29
41636 Par ch=5 c=7 v=21
41637 Par ch=5 c=7 v=12
41638 Par ch=5 c=7 v=20
41640 On ch=5 n=60 v=0
41640 On ch=5 n=52 v=0
41640 On ch=5 n=55 v=0
41640 On ch=5 n=55 v=40
41640 On ch=5 n=52 v=40
41640 Par ch=5 c=7 v=29
41640 Par ch=5 c=11 v=114
41640 On ch=5 n=64 v=40
41640 Par ch=5 c=7 v=37
41640 On ch=5 n=60 v=40
41642 Par ch=5 c=7 v=45
41643 Par ch=5 c=7 v=53
41644 Par ch=5 c=7 v=62
41645 Par ch=5 c=7 v=70
41646 Par ch=5 c=7 v=78
41647 Par ch=5 c=7 v=86
41648 Par ch=5 c=7 v=95
41648 Par ch=5 c=11 v=113
41650 Par ch=5 c=7 v=111
41650 Par ch=5 c=7 v=103
41652 Par ch=5 c=7 v=119
41653 Par ch=5 c=7 v=127
41654 Par ch=5 c=7 v=119
41655 Par ch=5 c=7 v=111
41656 Par ch=5 c=7 v=103
41657 Par ch=5 c=7 v=95
41658 Par ch=5 c=7 v=86
41659 Par ch=5 c=11 v=112
41660 Par ch=5 c=7 v=78
41660 Par ch=5 c=7 v=70
41662 Par ch=5 c=7 v=62
41663 Par ch=5 c=7 v=53
41664 Par ch=5 c=7 v=45
41665 Par ch=5 c=7 v=37
41666 Par ch=5 c=7 v=29
41667 Par ch=5 c=7 v=21
41667 Par ch=5 c=11 v=111
41668 Par ch=5 c=7 v=12
41670 Par ch=5 c=7 v=20
41671 Par ch=5 c=7 v=29
41672 Par ch=5 c=7 v=37
41673 Par ch=5 c=7 v=45
41674 Par ch=5 c=7 v=53
41675 Par ch=5 c=7 v=62
41677 Par ch=5 c=7 v=70
41677 Par ch=5 c=7 v=78
41678 Par ch=5 c=7 v=86
41678 Par ch=5 c=11 v=110
41680 Par ch=5 c=7 v=95
41681 Par ch=5 c=7 v=103
41682 Par ch=5 c=7 v=111
41683 Par ch=5 c=7 v=119
41684 Par ch=5 c=7 v=127
41685 Par ch=5 c=7 v=119
41686 Par ch=5 c=11 v=109
41687 Par ch=5 c=7 v=103
41687 Par ch=5 c=7 v=111
41688 Par ch=5 c=7 v=95
41690 Par ch=5 c=7 v=86
41691 Par ch=5 c=7 v=78
41692 Par ch=5 c=7 v=70
41693 Par ch=5 c=7 v=62
41694 Par ch=5 c=7 v=53
41694 Par ch=5 c=11 v=108
41695 Par ch=5 c=7 v=45
41696 Par ch=5 c=7 v=37
41698 Par ch=5 c=7 v=29
41698 Par ch=5 c=7 v=21
41700 On ch=5 n=60 v=0
41700 On ch=5 n=55 v=0
41700 On ch=5 n=52 v=0
41700 On ch=5 n=64 v=0
41700 On ch=5 n=55 v=40
41700 On ch=5 n=60 v=40
41700 Par ch=5 c=7 v=12
41700 On ch=5 n=52 v=40
41701 Par ch=5 c=7 v=20
41702 Par ch=5 c=7 v=29
41703 Par ch=5 c=7 v=37
41704 Par ch=5 c=7 v=45
41705 Par ch=5 c=7 v=53
41705 Par ch=5 c=11 v=107
41707 Par ch=5 c=7 v=62
41708 Par ch=5 c=7 v=78
41708 Par ch=5 c=7 v=70
41710 Par ch=5 c=7 v=86
41711 Par ch=5 c=7 v=95
41712 Par ch=5 c=7 v=103
41713 Par ch=5 c=7 v=111
41713 Par ch=5 c=11 v=106
41714 Par ch=5 c=7 v=119
41715 Par ch=5 c=7 v=127
41717 Par ch=5 c=7 v=119
41718 Par ch=5 c=7 v=103
41718 Par ch=5 c=7 v=111
41720 Par ch=5 c=7 v=95
41721 Par ch=5 c=7 v=86
41721 Par ch=5 c=11 v=105
41722 Par ch=5 c=7 v=78
41723 Par ch=5 c=7 v=70
41724 Par ch=5 c=7 v=62
41725 Par ch=5 c=7 v=54
41726 Par ch=5 c=7 v=45
41728 Par ch=5 c=7 v=37
41729 Par ch=5 c=7 v=29
41730 Par ch=5 c=7 v=21
41731 Par ch=5 c=7 v=12
41732 Par ch=5 c=7 v=20
41732 Par ch=5 c=11 v=104
41733 Par ch=5 c=7 v=29
41734 Par ch=5 c=7 v=37
41735 Par ch=5 c=7 v=45
41737 Par ch=5 c=7 v=53
41738 Par ch=5 c=7 v=62
41739 Par ch=5 c=7 v=70
41740 Par ch=5 c=7 v=78
41740 Par ch=5 c=11 v=103
41741 Par ch=5 c=7 v=86
41742 Par ch=5 c=7 v=95
41743 Par ch=5 c=7 v=103
41745 Par ch=5 c=7 v=119
41745 Par ch=5 c=7 v=111
41747 Par ch=5 c=7 v=127
41748 Par ch=5 c=7 v=119
41749 Par ch=5 c=7 v=111
41749 Par ch=5 c=11 v=102
41750 Par ch=5 c=7 v=103
41751 Par ch=5 c=7 v=95
41752 Par ch=5 c=7 v=86
41753 Par ch=5 c=7 v=78
41755 Par ch=5 c=7 v=70
41755 Par ch=5 c=7 v=62
41756 Par ch=5 c=7 v=54
41758 Par ch=5 c=7 v=45
41759 Par ch=5 c=7 v=37
41760 On ch=5 n=52 v=0
41760 On ch=5 n=60 v=0
41760 On ch=5 n=55 v=0
41760 Par ch=5 c=7 v=78
41760 On ch=5 n=62 v=40
41760 Par ch=5 c=7 v=86
41760 On ch=5 n=50 v=40
41760 On ch=5 n=53 v=40
41760 On ch=5 n=57 v=40
41760 Par ch=5 c=11 v=101
41761 Par ch=5 c=7 v=95
41762 Par ch=5 c=7 v=103
41763 Par ch=5 c=7 v=111
41765 Par ch=5 c=7 v=119
41766 Par ch=5 c=7 v=127
41767 Par ch=5 c=7 v=119
41768 Par ch=5 c=7 v=111
41768 Par ch=5 c=11 v=100
41769 Par ch=5 c=7 v=103
41770 Par ch=5 c=7 v=95
41771 Par ch=5 c=7 v=86
41772 Par ch=5 c=7 v=78
41773 Par ch=5 c=7 v=70
41775 Par ch=5 c=7 v=62
41776 Par ch=5 c=7 v=53
41776 Par ch=5 c=11 v=99
41777 Par ch=5 c=7 v=45
41778 Par ch=5 c=7 v=37
41779 Par ch=5 c=7 v=29
41780 Par ch=5 c=7 v=21
41782 Par ch=5 c=7 v=12
41782 Par ch=5 c=7 v=21
41783 Par ch=5 c=7 v=29
41785 Par ch=5 c=7 v=37
41786 Par ch=5 c=7 v=45
41787 Par ch=5 c=7 v=53
41787 Par ch=5 c=11 v=98
41788 Par ch=5 c=7 v=62
41789 Par ch=5 c=7 v=70
41790 Par ch=5 c=7 v=78
41792 Par ch=5 c=7 v=95
41792 Par ch=5 c=7 v=86
41793 Par ch=5 c=7 v=103
41795 Par ch=5 c=7 v=111
41795 Par ch=5 c=11 v=97
41796 Par ch=5 c=7 v=119
41797 Par ch=5 c=7 v=127
41798 Par ch=5 c=7 v=119
41799 Par ch=5 c=7 v=111
41800 Par ch=5 c=7 v=103
41801 Par ch=5 c=7 v=95
41803 Par ch=5 c=7 v=86
41803 Par ch=5 c=7 v=78
41805 Par ch=5 c=7 v=70
41806 Par ch=5 c=7 v=62
41806 Par ch=5 c=11 v=96
41807 Par ch=5 c=7 v=53
41808 Par ch=5 c=7 v=45
41809 Par ch=5 c=7 v=37
41810 Par ch=5 c=7 v=29
41812 Par ch=5 c=7 v=21
41813 Par ch=5 c=7 v=12
41813 Par ch=5 c=7 v=21
41814 Par ch=5 c=11 v=95
41815 Par ch=5 c=7 v=29
41816 Par ch=5 c=7 v=37
41817 Par ch=5 c=7 v=45
41818 Par ch=5 c=7 v=53
41819 Par ch=5 c=7 v=62
41820 On ch=5 n=57 v=0
41820 On ch=5 n=62 v=0
41820 On ch=5 n=50 v=0
41820 On ch=5 n=53 v=0
41820 Par ch=5 c=7 v=70
41820 On ch=5 n=50 v=40
41820 On ch=5 n=57 v=40
41820 On ch=5 n=53 v=40
41822 Par ch=5 c=7 v=78
41822 Par ch=5 c=11 v=94
41823 Par ch=5 c=7 v=86
41824 Par ch=5 c=7 v=95
41825 Par ch=5 c=7 v=103
41826 Par ch=5 c=7 v=111
41827 Par ch=5 c=7 v=119
41828 Par ch=5 c=7 v=127
41829 Par ch=5 c=7 v=119
41830 Par ch=5 c=7 v=111
41832 Par ch=5 c=7 v=103
41833 Par ch=5 c=7 v=95
41833 Par ch=5 c=11 v=93
41834 Par ch=5 c=7 v=86
41835 Par ch=5 c=7 v=78
41836 Par ch=5 c=7 v=70
41837 Par ch=5 c=7 v=62
41838 Par ch=5 c=7 v=53
41840 Par ch=5 c=7 v=45
41840 Par ch=5 c=7 v=37
41841 Par ch=5 c=11 v=92
41842 Par ch=5 c=7 v=29
41843 Par ch=5 c=7 v=21
41844 Par ch=5 c=7 v=12
41845 Par ch=5 c=7 v=21
41846 Par ch=5 c=7 v=29
41847 Par ch=5 c=7 v=37
41848 Par ch=5 c=7 v=45
41850 Par ch=5 c=7 v=53
41850 Par ch=5 c=7 v=62
41850 Par ch=5 c=11 v=91
41852 Par ch=5 c=7 v=70
41853 Par ch=5 c=7 v=78
41854 Par ch=5 c=7 v=86
41855 Par ch=5 c=7 v=95
41856 Par ch=5 c=7 v=103
41857 Par ch=5 c=7 v=111
41858 Par ch=5 c=7 v=119
41860 Par ch=5 c=7 v=127
41860 Par ch=5 c=11 v=90
41861 Par ch=5 c=7 v=119
41862 Par ch=5 c=7 v=111
41863 Par ch=5 c=7 v=103
41864 Par ch=5 c=7 v=95
41865 Par ch=5 c=7 v=86
41866 Par ch=5 c=7 v=78
41867 Par ch=5 c=7 v=70
41868 Par ch=5 c=7 v=62
41869 Par ch=5 c=11 v=89
41870 Par ch=5 c=7 v=53
41871 Par ch=5 c=7 v=45
41872 Par ch=5 c=7 v=37
41873 Par ch=5 c=7 v=29
41874 Par ch=5 c=7 v=21
41875 Par ch=5 c=7 v=12
41877 Par ch=5 c=7 v=21
41877 Par ch=5 c=7 v=29
41877 Par ch=5 c=11 v=88
41878 Par ch=5 c=7 v=37
41880 On ch=5 n=53 v=0
41880 On ch=5 n=57 v=0
41880 On ch=5 n=50 v=0
41880 On ch=5 n=53 v=40
41880 On ch=5 n=57 v=40
41880 Par ch=5 c=7 v=45
41880 On ch=5 n=50 v=40
41880 On ch=5 n=62 v=40
41881 Par ch=5 c=7 v=53
41882 Par ch=5 c=7 v=62
41883 Par ch=5 c=7 v=70
41884 Par ch=5 c=7 v=78
41885 Par ch=5 c=7 v=86
41887 Par ch=5 c=7 v=103
41887 Par ch=5 c=7 v=95
41888 Par ch=5 c=7 v=111
41888 Par ch=5 c=11 v=87
41890 Par ch=5 c=7 v=119
41891 Par ch=5 c=7 v=127
41892 Par ch=5 c=7 v=119
41893 Par ch=5 c=7 v=111
41894 Par ch=5 c=7 v=103
41895 Par ch=5 c=7 v=95
41896 Par ch=5 c=11 v=86
41897 Par ch=5 c=7 v=86
41898 Par ch=5 c=7 v=78
41898 Par ch=5 c=7 v=70
41900 Par ch=5 c=7 v=62
41901 Par ch=5 c=7 v=53
41902 Par ch=5 c=7 v=45
41903 Par ch=5 c=7 v=37
41904 Par ch=5 c=7 v=29
41904 Par ch=5 c=11 v=85
41905 Par ch=5 c=7 v=21
41907 Par ch=5 c=7 v=12
41908 Par ch=5 c=7 v=29
41908 Par ch=5 c=7 v=20
41910 Par ch=5 c=7 v=37
41911 Par ch=5 c=7 v=45
41912 Par ch=5 c=7 v=53
41913 Par ch=5 c=7 v=62
41914 Par ch=5 c=7 v=70
41915 Par ch=5 c=7 v=78
41915 Par ch=5 c=11 v=84
41917 Par ch=5 c=7 v=86
41918 Par ch=5 c=7 v=95
41919 Par ch=5 c=7 v=103
41920 Par ch=5 c=7 v=111
41921 Par ch=5 c=7 v=119
41922 Par ch=5 c=7 v=127
41923 Par ch=5 c=7 v=119
41923 Par ch=5 c=11 v=83
41924 Par ch=5 c=7 v=111
41925 Par ch=5 c=7 v=103
41927 Par ch=5 c=7 v=95
41928 Par ch=5 c=7 v=86
41929 Par ch=5 c=7 v=78
41930 Par ch=5 c=7 v=70
41931 Par ch=5 c=7 v=62
41931 Par ch=5 c=11 v=82
41932 Par ch=5 c=7 v=53
41933 Par ch=5 c=7 v=45
41935 Par ch=5 c=7 v=37
41935 Par ch=5 c=7 v=29
41937 Par ch=5 c=7 v=21
41938 Par ch=5 c=7 v=12
41939 Par ch=5 c=7 v=20
41940 On ch=5 n=62 v=0
41940 On ch=5 n=53 v=0
41940 On ch=5 n=57 v=0
41940 On ch=5 n=50 v=0
41940 Par ch=5 c=7 v=86
41940 On ch=5 n=53 v=40
41940 On ch=5 n=57 v=40
41940 On ch=5 n=50 v=40
41940 Par ch=5 c=7 v=78
41941 Par ch=5 c=7 v=95
41942 Par ch=5 c=7 v=103
41942 Par ch=5 c=11 v=81
41943 Par ch=5 c=7 v=111
41945 Par ch=5 c=7 v=127
41945 Par ch=5 c=7 v=119
41947 Par ch=5 c=7 v=119
41948 Par ch=5 c=7 v=111
41949 Par ch=5 c=7 v=103
41950 Par ch=5 c=7 v=95
41950 Par ch=5 c=11 v=80
41951 Par ch=5 c=7 v=86
41952 Par ch=5 c=7 v=78
41953 Par ch=5 c=7 v=70
41955 Par ch=5 c=7 v=62
41956 Par ch=5 c=7 v=53
41957 Par ch=5 c=7 v=45
41958 Par ch=5 c=7 v=37
41959 Par ch=5 c=7 v=29
41960 Par ch=5 c=7 v=21
41961 Par ch=5 c=7 v=12
41961 Par ch=5 c=11 v=79
41962 Par ch=5 c=7 v=21
41963 Par ch=5 c=7 v=29
41965 Par ch=5 c=7 v=37
41966 Par ch=5 c=7 v=45
41967 Par ch=5 c=7 v=53
41968 Par ch=5 c=7 v=62
41969 Par ch=5 c=7 v=70
41970 Par ch=5 c=11 v=78
41970 Par ch=5 c=7 v=78
41972 Par ch=5 c=7 v=95
41972 Par ch=5 c=7 v=86
41973 Par ch=5 c=7 v=103
41975 Par ch=5 c=7 v=111
41976 Par ch=5 c=7 v=119
41977 Par ch=5 c=7 v=127
41978 Par ch=5 c=7 v=119
41978 Par ch=5 c=11 v=77
41979 Par ch=5 c=7 v=111
41980 Par ch=5 c=7 v=103
41982 Par ch=5 c=7 v=86
41982 Par ch=5 c=7 v=95
41983 Par ch=5 c=7 v=78
41985 Par ch=5 c=7 v=70
41986 Par ch=5 c=7 v=62
41987 Par ch=5 c=7 v=53
41988 Par ch=5 c=7 v=45
41989 Par ch=5 c=7 v=37
41989 Par ch=5 c=11 v=76
41990 Par ch=5 c=7 v=29
41992 Par ch=5 c=7 v=21
41993 Par ch=5 c=7 v=12
41993 Par ch=5 c=7 v=21
41995 Par ch=5 c=7 v=29
41996 Par ch=5 c=7 v=37
41997 Par ch=5 c=7 v=45
41997 Par ch=5 c=11 v=75
41998 Par ch=5 c=7 v=53
41999 Par ch=5 c=7 v=62
42000 On ch=5 n=50 v=0
42000 On ch=5 n=57 v=0
42000 On ch=5 n=53 v=0
42000 On ch=5 n=50 v=40
42000 On ch=5 n=62 v=40
42000 On ch=5 n=57 v=40
42000 Par ch=5 c=7 v=70
42000 On ch=5 n=53 v=40
42002 Par ch=5 c=7 v=78
42003 Par ch=5 c=7 v=86
42003 Par ch=5 c=7 v=95
42005 Par ch=5 c=7 v=103
42005 Par ch=5 c=11 v=74
42006 Par ch=5 c=7 v=111
42007 Par ch=5 c=7 v=119
42008 Par ch=5 c=7 v=127
42009 Par ch=5 c=7 v=119
42010 Par ch=5 c=7 v=111
42012 Par ch=5 c=7 v=103
42013 Par ch=5 c=7 v=95
42013 Par ch=5 c=7 v=86
42015 Par ch=5 c=7 v=78
42016 Par ch=5 c=7 v=70
42016 Par ch=5 c=11 v=73
42017 Par ch=5 c=7 v=62
42018 Par ch=5 c=7 v=53
42019 Par ch=5 c=7 v=45
42020 Par ch=5 c=7 v=37
42022 Par ch=5 c=7 v=29
42023 Par ch=5 c=7 v=21
42024 Par ch=5 c=7 v=12
42024 Par ch=5 c=11 v=72
42025 Par ch=5 c=7 v=21
42026 Par ch=5 c=7 v=29
42027 Par ch=5 c=7 v=37
42028 Par ch=5 c=7 v=45
42030 Par ch=5 c=7 v=53
42030 Par ch=5 c=7 v=62
42032 Par ch=5 c=7 v=70
42032 Par ch=5 c=11 v=71
42033 Par ch=5 c=7 v=78
42034 Par ch=5 c=7 v=86
42035 Par ch=5 c=7 v=95
42036 Par ch=5 c=7 v=103
42037 Par ch=5 c=7 v=111
42038 Par ch=5 c=7 v=119
42040 Par ch=5 c=7 v=127
42040 Par ch=5 c=7 v=119
42042 Par ch=5 c=7 v=111
42043 Par ch=5 c=7 v=103
42043 Par ch=5 c=11 v=70
42044 Par ch=5 c=7 v=95
42045 Par ch=5 c=7 v=86
42046 Par ch=5 c=7 v=78
42047 Par ch=5 c=7 v=70
42048 Par ch=5 c=7 v=62
42050 Par ch=5 c=7 v=53
42050 Par ch=5 c=7 v=45
42051 Par ch=5 c=11 v=69
42052 Par ch=5 c=7 v=37
42053 Par ch=5 c=7 v=29
42054 Par ch=5 c=7 v=21
42055 Par ch=5 c=7 v=12
42056 Par ch=5 c=7 v=21
42057 Par ch=5 c=7 v=29
42058 Par ch=5 c=7 v=37
42060 On ch=5 n=53 v=0
42060 On ch=5 n=50 v=0
42060 On ch=5 n=62 v=0
42060 On ch=5 n=57 v=0
42060 On ch=5 n=57 v=40
42060 On ch=5 n=50 v=40
42060 Par ch=5 c=11 v=68
42060 Par ch=5 c=7 v=45
42060 On ch=5 n=53 v=40
42061 Par ch=5 c=7 v=53
42062 Par ch=5 c=7 v=62
42063 Par ch=5 c=7 v=70
42064 Par ch=5 c=7 v=78
42065 Par ch=5 c=7 v=86
42067 Par ch=5 c=7 v=95
42067 Par ch=5 c=7 v=103
42068 Par ch=5 c=7 v=111
42070 Par ch=5 c=7 v=119
42070 Par ch=5 c=11 v=67
42071 Par ch=5 c=7 v=127
42072 Par ch=5 c=7 v=119
42073 Par ch=5 c=7 v=111
42074 Par ch=5 c=7 v=103
42075 Par ch=5 c=7 v=95
42077 Par ch=5 c=7 v=86
42077 Par ch=5 c=7 v=78
42078 Par ch=5 c=7 v=70
42079 Par ch=5 c=11 v=66
42080 Par ch=5 c=7 v=62
42081 Par ch=5 c=7 v=53
42082 Par ch=5 c=7 v=45
42083 Par ch=5 c=7 v=37
42084 Par ch=5 c=7 v=29
42085 Par ch=5 c=7 v=21
42087 Par ch=5 c=7 v=20
42087 Par ch=5 c=7 v=12
42088 Par ch=5 c=7 v=29
42090 Par ch=5 c=7 v=37
42090 Par ch=5 c=11 v=65
42091 Par ch=5 c=7 v=45
42092 Par ch=5 c=7 v=53
42093 Par ch=5 c=7 v=62
42094 Par ch=5 c=7 v=70
42095 Par ch=5 c=7 v=78
42097 Par ch=5 c=7 v=86
42098 Par ch=5 c=7 v=103
42098 Par ch=5 c=7 v=95
42098 Par ch=5 c=11 v=64
42100 Par ch=5 c=7 v=111
42101 Par ch=5 c=7 v=119
42102 Par ch=5 c=7 v=127
42103 Par ch=5 c=7 v=119
42104 Par ch=5 c=7 v=111
42105 Par ch=5 c=7 v=103
42106 Par ch=5 c=11 v=63
42107 Par ch=5 c=7 v=95
42108 Par ch=5 c=7 v=86
42108 Par ch=5 c=7 v=78
42110 Par ch=5 c=7 v=70
42111 Par ch=5 c=7 v=62
42112 Par ch=5 c=7 v=53
42113 Par ch=5 c=7 v=45
42114 Par ch=5 c=7 v=37
42115 Par ch=5 c=7 v=29
42117 Par ch=5 c=7 v=21
42117 Par ch=5 c=11 v=62
42118 Par ch=5 c=7 v=12
42119 Par ch=5 c=7 v=20
42120 On ch=5 n=53 v=0
42120 On ch=5 n=50 v=0
42120 On ch=5 n=57 v=0
42120 Par ch=5 c=7 v=29
42120 On ch=5 n=62 v=40
42120 On ch=5 n=57 v=40
42120 On ch=5 n=53 v=40
42120 On ch=5 n=50 v=40
42121 Par ch=5 c=7 v=37
42122 Par ch=5 c=7 v=45
42123 Par ch=5 c=7 v=53
42124 Par ch=5 c=7 v=62
42125 Par ch=5 c=7 v=70
42125 Par ch=5 c=11 v=61
42127 Par ch=5 c=7 v=78
42128 Par ch=5 c=7 v=86
42129 Par ch=5 c=7 v=95
42130 Par ch=5 c=7 v=103
42131 Par ch=5 c=7 v=111
42132 Par ch=5 c=7 v=119
42133 Par ch=5 c=7 v=127
42133 Par ch=5 c=11 v=60
42135 Par ch=5 c=7 v=111
42135 Par ch=5 c=7 v=119
42137 Par ch=5 c=7 v=103
42138 Par ch=5 c=7 v=95
42139 Par ch=5 c=7 v=86
42140 Par ch=5 c=7 v=78
42141 Par ch=5 c=7 v=70
42142 Par ch=5 c=7 v=62
42143 Par ch=5 c=7 v=53
42144 Par ch=5 c=11 v=59
42145 Par ch=5 c=7 v=37
42145 Par ch=5 c=7 v=45
42147 Par ch=5 c=7 v=29
42148 Par ch=5 c=7 v=21
42149 Par ch=5 c=7 v=12
42150 Par ch=5 c=7 v=20
42151 Par ch=5 c=7 v=29
42152 Par ch=5 c=7 v=37
42152 Par ch=5 c=11 v=58
42153 Par ch=5 c=7 v=45
42155 Par ch=5 c=7 v=53
42156 Par ch=5 c=7 v=62
42157 Par ch=5 c=7 v=70
42158 Par ch=5 c=7 v=78
42159 Par ch=5 c=7 v=86
42160 Par ch=5 c=7 v=95
42160 Par ch=5 c=11 v=57
42161 Par ch=5 c=7 v=103
42162 Par ch=5 c=7 v=111
42163 Par ch=5 c=7 v=119
42165 Par ch=5 c=7 v=127
42166 Par ch=5 c=7 v=119
42167 Par ch=5 c=7 v=111
42168 Par ch=5 c=7 v=103
42169 Par ch=5 c=7 v=95
42170 Par ch=5 c=7 v=86
42171 Par ch=5 c=11 v=56
42172 Par ch=5 c=7 v=70
42172 Par ch=5 c=7 v=78
42173 Par ch=5 c=7 v=62
42175 Par ch=5 c=7 v=53
42176 Par ch=5 c=7 v=45
42177 Par ch=5 c=7 v=37
42178 Par ch=5 c=7 v=29
42179 Par ch=5 c=7 v=21
42180 On ch=5 n=50 v=0
42180 On ch=5 n=62 v=0
42180 On ch=5 n=57 v=0
42180 On ch=5 n=53 v=0
42180 On ch=5 n=50 v=40
42180 On ch=5 n=57 v=40
42180 Par ch=5 c=7 v=12
42180 On ch=5 n=53 v=40
42180 Par ch=5 c=11 v=55
42182 Par ch=5 c=7 v=20
42182 Par ch=5 c=7 v=29
42183 Par ch=5 c=7 v=37
42185 Par ch=5 c=7 v=45
42186 Par ch=5 c=7 v=53
42187 Par ch=5 c=7 v=62
42188 Par ch=5 c=7 v=70
42188 Par ch=5 c=11 v=54
42189 Par ch=5 c=7 v=78
42190 Par ch=5 c=7 v=86
42192 Par ch=5 c=7 v=95
42193 Par ch=5 c=7 v=111
42193 Par ch=5 c=7 v=103
42195 Par ch=5 c=7 v=119
42196 Par ch=5 c=7 v=127
42197 Par ch=5 c=7 v=119
42198 Par ch=5 c=7 v=111
42199 Par ch=5 c=7 v=103
42199 Par ch=5 c=11 v=53
42200 Par ch=5 c=7 v=95
42202 Par ch=5 c=7 v=86
42203 Par ch=5 c=7 v=78
42203 Par ch=5 c=7 v=70
42205 Par ch=5 c=7 v=62
42206 Par ch=5 c=7 v=54
42207 Par ch=5 c=7 v=45
42207 Par ch=5 c=11 v=52
42208 Par ch=5 c=7 v=37
42209 Par ch=5 c=7 v=29
42210 Par ch=5 c=7 v=21
42212 Par ch=5 c=7 v=12
42213 Par ch=5 c=7 v=20
42214 Par ch=5 c=7 v=29
42215 Par ch=5 c=7 v=37
42216 Par ch=5 c=7 v=45
42217 Par ch=5 c=7 v=53
42218 Par ch=5 c=7 v=62
42218 Par ch=5 c=11 v=51
42219 Par ch=5 c=7 v=70
42220 Par ch=5 c=7 v=78
42222 Par ch=5 c=7 v=86
42223 Par ch=5 c=7 v=95
42224 Par ch=5 c=7 v=103
42225 Par ch=5 c=7 v=111
42226 Par ch=5 c=7 v=119
42226 Par ch=5 c=11 v=50
42227 Par ch=5 c=7 v=127
42228 Par ch=5 c=7 v=119
42230 Par ch=5 c=7 v=111
42230 Par ch=5 c=7 v=103
42232 Par ch=5 c=7 v=95
42233 Par ch=5 c=7 v=86
42234 Par ch=5 c=7 v=78
42234 Par ch=5 c=11 v=49
42235 Par ch=5 c=7 v=70
42236 Par ch=5 c=7 v=62
42237 Par ch=5 c=7 v=54
42238 Par ch=5 c=7 v=45
42240 On ch=5 n=53 v=0
42240 On ch=5 n=57 v=0
42240 On ch=5 n=50 v=0
42240 On ch=5 n=46 v=40
42240 Par ch=5 c=7 v=86
42240 On ch=5 n=53 v=40
42240 On ch=5 n=58 v=40
42240 On ch=5 n=62 v=40
42240 Par ch=5 c=7 v=95
42240 Par ch=5 c=7 v=78
42242 Par ch=5 c=7 v=103
42243 Par ch=5 c=7 v=111
42244 Par ch=5 c=7 v=119
42245 Par ch=5 c=7 v=127
42245 Par ch=5 c=11 v=48
42246 Par ch=5 c=7 v=119
42247 Par ch=5 c=7 v=111
42248 Par ch=5 c=7 v=103
42250 Par ch=5 c=7 v=95
42251 Par ch=5 c=7 v=86
42252 Par ch=5 c=7 v=78
42253 Par ch=5 c=7 v=70
42253 Par ch=5 c=11 v=47
42254 Par ch=5 c=7 v=62
42255 Par ch=5 c=7 v=53
42256 Par ch=5 c=7 v=45
42257 Par ch=5 c=7 v=37
42258 Par ch=5 c=7 v=29
42260 Par ch=5 c=7 v=21
42261 Par ch=5 c=7 v=12
42261 Par ch=5 c=11 v=46
42262 Par ch=5 c=7 v=21
42263 Par ch=5 c=7 v=29
42264 Par ch=5 c=7 v=37
42265 Par ch=5 c=7 v=45
42267 Par ch=5 c=7 v=53
42267 Par ch=5 c=7 v=62
42268 Par ch=5 c=7 v=70
42270 Par ch=5 c=7 v=78
42271 Par ch=5 c=7 v=86
42272 Par ch=5 c=7 v=95
42272 Par ch=5 c=11 v=45
42273 Par ch=5 c=7 v=103
42274 Par ch=5 c=7 v=111
42275 Par ch=5 c=7 v=119
42277 Par ch=5 c=7 v=119
42277 Par ch=5 c=7 v=127
42278 Par ch=5 c=7 v=111
42280 Par ch=5 c=7 v=103
42280 Par ch=5 c=11 v=44
42281 Par ch=5 c=7 v=95
42282 Par ch=5 c=7 v=86
42283 Par ch=5 c=7 v=78
42284 Par ch=5 c=7 v=70
42285 Par ch=5 c=7 v=62
42287 Par ch=5 c=7 v=53
42288 Par ch=5 c=7 v=37
42288 Par ch=5 c=7 v=45
42289 Par ch=5 c=11 v=43
42290 Par ch=5 c=7 v=29
42291 Par ch=5 c=7 v=21
42292 Par ch=5 c=7 v=12
42293 Par ch=5 c=7 v=21
42294 Par ch=5 c=7 v=29
42295 Par ch=5 c=7 v=37
42297 Par ch=5 c=7 v=45
42298 Par ch=5 c=7 v=62
42298 Par ch=5 c=7 v=53
42300 On ch=5 n=62 v=0
42300 On ch=5 n=46 v=0
42300 On ch=5 n=53 v=0
42300 On ch=5 n=58 v=0
42300 On ch=5 n=46 v=40
42300 Par ch=5 c=11 v=42
42300 Par ch=5 c=7 v=70
42300 On ch=5 n=53 v=40
42300 On ch=5 n=58 v=40
42301 Par ch=5 c=7 v=78
42302 Par ch=5 c=7 v=86
42303 Par ch=5 c=7 v=95
42304 Par ch=5 c=7 v=103
42305 Par ch=5 c=7 v=111
42307 Par ch=5 c=7 v=119
42308 Par ch=5 c=7 v=127
42308 Par ch=5 c=11 v=41
42309 Par ch=5 c=7 v=119
42310 Par ch=5 c=7 v=111
42311 Par ch=5 c=7 v=103
42312 Par ch=5 c=7 v=95
42313 Par ch=5 c=7 v=86
42314 Par ch=5 c=7 v=78
42315 Par ch=5 c=7 v=70
42316 Par ch=5 c=11 v=40
42317 Par ch=5 c=7 v=62
42318 Par ch=5 c=7 v=53
42319 Par ch=5 c=7 v=45
42320 Par ch=5 c=7 v=37
42321 Par ch=5 c=7 v=29
42322 Par ch=5 c=7 v=21
42323 Par ch=5 c=7 v=12
42325 Par ch=5 c=7 v=29
42325 Par ch=5 c=7 v=21
42327 Par ch=5 c=7 v=37
42327 Par ch=5 c=11 v=39
42328 Par ch=5 c=7 v=45
42329 Par ch=5 c=7 v=53
42330 Par ch=5 c=7 v=62
42331 Par ch=5 c=7 v=70
42332 Par ch=5 c=7 v=78
42333 Par ch=5 c=7 v=86
42335 Par ch=5 c=7 v=103
42335 Par ch=5 c=7 v=95
42335 Par ch=5 c=11 v=38
42337 Par ch=5 c=7 v=111
42338 Par ch=5 c=7 v=119
42339 Par ch=5 c=7 v=127
42340 Par ch=5 c=7 v=119
42341 Par ch=5 c=7 v=111
42342 Par ch=5 c=7 v=103
42343 Par ch=5 c=7 v=95
42343 Par ch=5 c=11 v=37
42345 Par ch=5 c=7 v=86
42345 Par ch=5 c=7 v=78
42347 Par ch=5 c=7 v=70
42348 Par ch=5 c=7 v=62
42349 Par ch=5 c=7 v=53
42350 Par ch=5 c=7 v=45
42351 Par ch=5 c=7 v=37
42352 Par ch=5 c=7 v=29
42353 Par ch=5 c=7 v=21
42354 Par ch=5 c=11 v=36
42355 Par ch=5 c=7 v=12
42356 Par ch=5 c=7 v=21
42357 Par ch=5 c=7 v=29
42358 Par ch=5 c=7 v=37
42359 Par ch=5 c=7 v=45
42360 On ch=5 n=58 v=0
42360 On ch=5 n=53 v=0
42360 On ch=5 n=46 v=0
42360 Par ch=5 c=7 v=53
42360 On ch=5 n=62 v=40
42360 On ch=5 n=53 v=40
42360 On ch=5 n=46 v=40
42360 On ch=5 n=58 v=40
42362 Par ch=5 c=7 v=62
42362 Par ch=5 c=7 v=70
42362 Par ch=5 c=11 v=35
42363 Par ch=5 c=7 v=78
42365 Par ch=5 c=7 v=86
42366 Par ch=5 c=7 v=95
42367 Par ch=5 c=7 v=103
42368 Par ch=5 c=7 v=111
42369 Par ch=5 c=7 v=119
42370 Par ch=5 c=7 v=127
42372 Par ch=5 c=7 v=111
42372 Par ch=5 c=7 v=119
42373 Par ch=5 c=7 v=103
42373 Par ch=5 c=11 v=34
42375 Par ch=5 c=7 v=95
42376 Par ch=5 c=7 v=86
42377 Par ch=5 c=7 v=78
42378 Par ch=5 c=7 v=70
42379 Par ch=5 c=7 v=62
42380 Par ch=5 c=7 v=53
42381 Par ch=5 c=11 v=33
42382 Par ch=5 c=7 v=45
42383 Par ch=5 c=7 v=29
42383 Par ch=5 c=7 v=37
42385 Par ch=5 c=7 v=21
42386 Par ch=5 c=7 v=12
42387 Par ch=5 c=7 v=20
42388 Par ch=5 c=7 v=29
42389 Par ch=5 c=7 v=37
42390 Par ch=5 c=11 v=32
42390 Par ch=5 c=7 v=45
42392 Par ch=5 c=7 v=53
42393 Par ch=5 c=7 v=62
42393 Par ch=5 c=7 v=70
42395 Par ch=5 c=7 v=78
42396 Par ch=5 c=7 v=86
42397 Par ch=5 c=7 v=95
42398 Par ch=5 c=7 v=103
42399 Par ch=5 c=7 v=111
42400 Par ch=5 c=7 v=119
42400 Par ch=5 c=11 v=31
42402 Par ch=5 c=7 v=127
42403 Par ch=5 c=7 v=119
42403 Par ch=5 c=7 v=111
42405 Par ch=5 c=7 v=103
42406 Par ch=5 c=7 v=95
42407 Par ch=5 c=7 v=86
42408 Par ch=5 c=7 v=78
42409 Par ch=5 c=7 v=70
42409 Par ch=5 c=11 v=30
42410 Par ch=5 c=7 v=62
42412 Par ch=5 c=7 v=53
42413 Par ch=5 c=7 v=45
42414 Par ch=5 c=7 v=37
42415 Par ch=5 c=7 v=29
42416 Par ch=5 c=7 v=21
42417 Par ch=5 c=7 v=12
42417 Par ch=5 c=11 v=29
42418 Par ch=5 c=7 v=20
42420 On ch=5 n=58 v=0
42420 On ch=5 n=62 v=0
42420 On ch=5 n=53 v=0
42420 On ch=5 n=46 v=0
42420 Par ch=5 c=7 v=86
42420 On ch=5 n=58 v=40
42420 On ch=5 n=53 v=40
42420 Par ch=5 c=7 v=95
42420 On ch=5 n=46 v=40
42420 Par ch=5 c=7 v=78
42422 Par ch=5 c=7 v=103
42423 Par ch=5 c=7 v=111
42424 Par ch=5 c=7 v=119
42425 Par ch=5 c=7 v=127
42426 Par ch=5 c=7 v=119
42427 Par ch=5 c=7 v=111
42428 Par ch=5 c=7 v=103
42428 Par ch=5 c=11 v=28
42430 Par ch=5 c=7 v=95
42430 Par ch=5 c=7 v=86
42432 Par ch=5 c=7 v=78
42433 Par ch=5 c=7 v=70
42434 Par ch=5 c=7 v=62
42435 Par ch=5 c=7 v=53
42436 Par ch=5 c=7 v=45
42436 Par ch=5 c=11 v=27
42437 Par ch=5 c=7 v=37
42438 Par ch=5 c=7 v=29
42440 Par ch=5 c=7 v=12
42440 Par ch=5 c=7 v=21
42442 Par ch=5 c=7 v=21
42443 Par ch=5 c=7 v=29
42444 Par ch=5 c=7 v=37
42444 Par ch=5 c=11 v=26
42445 Par ch=5 c=7 v=45
42446 Par ch=5 c=7 v=53
42447 Par ch=5 c=7 v=62
42448 Par ch=5 c=7 v=70
42450 Par ch=5 c=7 v=78
42451 Par ch=5 c=7 v=86
42452 Par ch=5 c=7 v=95
42453 Par ch=5 c=7 v=103
42454 Par ch=5 c=7 v=111
42455 Par ch=5 c=7 v=119
42455 Par ch=5 c=11 v=25
42457 Par ch=5 c=7 v=127
42457 Par ch=5 c=7 v=119
42458 Par ch=5 c=7 v=111
42460 Par ch=5 c=7 v=103
42461 Par ch=5 c=7 v=95
42462 Par ch=5 c=7 v=86
42463 Par ch=5 c=7 v=78
42463 Par ch=5 c=11 v=24
42464 Par ch=5 c=7 v=70
42465 Par ch=5 c=7 v=62
42467 Par ch=5 c=7 v=53
42467 Par ch=5 c=7 v=45
42468 Par ch=5 c=7 v=37
42470 Par ch=5 c=7 v=29
42471 Par ch=5 c=7 v=21
42471 Par ch=5 c=11 v=23
42472 Par ch=5 c=7 v=12
42473 Par ch=5 c=7 v=21
42474 Par ch=5 c=7 v=29
42475 Par ch=5 c=7 v=37
42477 Par ch=5 c=7 v=45
42477 Par ch=5 c=7 v=53
42478 Par ch=5 c=7 v=62
42480 On ch=5 n=46 v=0
42480 On ch=5 n=53 v=0
42480 On ch=5 n=58 v=0
42480 On ch=5 n=53 v=40
42480 On ch=5 n=46 v=40
42480 Par ch=5 c=7 v=70
42480 On ch=5 n=58 v=40
42480 On ch=5 n=62 v=40
42481 Par ch=5 c=7 v=78
42482 Par ch=5 c=7 v=86
42482 Par ch=5 c=11 v=22
42483 Par ch=5 c=7 v=95
42484 Par ch=5 c=7 v=103
42485 Par ch=5 c=7 v=111
42487 Par ch=5 c=7 v=119
42488 Par ch=5 c=7 v=119
42488 Par ch=5 c=7 v=127
42490 Par ch=5 c=7 v=111
42490 Par ch=5 c=11 v=21
42491 Par ch=5 c=7 v=103
42492 Par ch=5 c=7 v=95
42493 Par ch=5 c=7 v=86
42494 Par ch=5 c=7 v=78
42495 Par ch=5 c=7 v=70
42497 Par ch=5 c=7 v=62
42498 Par ch=5 c=7 v=45
42498 Par ch=5 c=7 v=53
42500 Par ch=5 c=7 v=37
42501 Par ch=5 c=7 v=29
42501 Par ch=5 c=11 v=20
42502 Par ch=5 c=7 v=21
42503 Par ch=5 c=7 v=12
42504 Par ch=5 c=7 v=21
42505 Par ch=5 c=7 v=29
42507 Par ch=5 c=7 v=37
42508 Par ch=5 c=7 v=45
42509 Par ch=5 c=7 v=53
42510 Par ch=5 c=11 v=19
42510 Par ch=5 c=7 v=62
42511 Par ch=5 c=7 v=70
42512 Par ch=5 c=7 v=78
42513 Par ch=5 c=7 v=86
42514 Par ch=5 c=7 v=95
42515 Par ch=5 c=7 v=103
42517 Par ch=5 c=7 v=111
42518 Par ch=5 c=7 v=119
42518 Par ch=5 c=11 v=18
42519 Par ch=5 c=7 v=127
42520 Par ch=5 c=7 v=119
42521 Par ch=5 c=7 v=111
42522 Par ch=5 c=7 v=103
42523 Par ch=5 c=7 v=95
42525 Par ch=5 c=7 v=86
42525 Par ch=5 c=7 v=78
42527 Par ch=5 c=7 v=70
42528 Par ch=5 c=7 v=62
42529 Par ch=5 c=7 v=53
42529 Par ch=5 c=11 v=17
42530 Par ch=5 c=7 v=45
42531 Par ch=5 c=7 v=37
42532 Par ch=5 c=7 v=29
42533 Par ch=5 c=7 v=21
42535 Par ch=5 c=7 v=21
42535 Par ch=5 c=7 v=12
42537 Par ch=5 c=7 v=29
42537 Par ch=5 c=11 v=16
42538 Par ch=5 c=7 v=37
42539 Par ch=5 c=7 v=45
42540 On ch=5 n=62 v=0
42540 On ch=5 n=53 v=0
42540 On ch=5 n=46 v=0
42540 On ch=5 n=58 v=0
42540 On ch=5 n=46 v=40
42540 On ch=5 n=58 v=40
42540 Par ch=5 c=7 v=86
42540 Par ch=5 c=7 v=78
42540 On ch=5 n=53 v=40
42541 Par ch=5 c=7 v=95
42542 Par ch=5 c=7 v=103
42543 Par ch=5 c=7 v=111
42545 Par ch=5 c=7 v=119
42545 Par ch=5 c=11 v=15
42546 Par ch=5 c=7 v=127
42547 Par ch=5 c=7 v=119
42548 Par ch=5 c=7 v=111
42549 Par ch=5 c=7 v=103
42550 Par ch=5 c=7 v=95
42551 Par ch=5 c=7 v=86
42552 Par ch=5 c=7 v=78
42553 Par ch=5 c=7 v=70
42555 Par ch=5 c=7 v=62
42556 Par ch=5 c=7 v=53
42556 Par ch=5 c=11 v=14
42557 Par ch=5 c=7 v=45
42558 Par ch=5 c=7 v=37
42559 Par ch=5 c=7 v=29
42560 Par ch=5 c=7 v=21
42562 Par ch=5 c=7 v=12
42562 Par ch=5 c=7 v=21
42563 Par ch=5 c=7 v=29
42564 Par ch=5 c=11 v=13
42565 Par ch=5 c=7 v=37
42566 Par ch=5 c=7 v=45
42567 Par ch=5 c=7 v=53
42568 Par ch=5 c=7 v=62
42569 Par ch=5 c=7 v=70
42570 Par ch=5 c=7 v=78
42572 Par ch=5 c=7 v=86
42572 Par ch=5 c=7 v=95
42572 Par ch=5 c=11 v=12
42573 Par ch=5 c=7 v=103
42575 Par ch=5 c=7 v=111
42576 Par ch=5 c=7 v=119
42577 Par ch=5 c=7 v=127
42578 Par ch=5 c=7 v=119
42579 Par ch=5 c=7 v=111
42580 Par ch=5 c=7 v=103
42582 Par ch=5 c=7 v=95
42583 Par ch=5 c=7 v=78
42583 Par ch=5 c=7 v=86
42583 Par ch=5 c=11 v=11
42585 Par ch=5 c=7 v=70
42586 Par ch=5 c=7 v=62
42587 Par ch=5 c=7 v=53
42588 Par ch=5 c=7 v=45
42589 Par ch=5 c=7 v=37
42590 Par ch=5 c=7 v=29
42591 Par ch=5 c=11 v=10
42592 Par ch=5 c=7 v=21
42593 Par ch=5 c=7 v=21
42593 Par ch=5 c=7 v=12
42595 Par ch=5 c=7 v=29
42596 Par ch=5 c=7 v=37
42597 Par ch=5 c=7 v=45
42598 Par ch=5 c=7 v=53
42599 Par ch=5 c=7 v=86
42599 Par ch=5 c=7 v=78
42600 On ch=5 n=53 v=0
42600 On ch=5 n=58 v=0
42600 On ch=5 n=46 v=0
42600 Par ch=5 c=11 v=9
42600 On ch=5 n=62 v=40
42600 On ch=5 n=53 v=40
42600 On ch=5 n=58 v=40
42600 Par ch=5 c=7 v=95
42600 On ch=5 n=46 v=40
42601 Par ch=5 c=7 v=103
42603 Par ch=5 c=7 v=111
42604 Par ch=5 c=7 v=119
42605 Par ch=5 c=7 v=127
42606 Par ch=5 c=7 v=119
42607 Par ch=5 c=7 v=111
42608 Par ch=5 c=7 v=103
42609 Par ch=5 c=7 v=95
42610 Par ch=5 c=7 v=86
42610 Par ch=5 c=11 v=8
42612 Par ch=5 c=7 v=78
42613 Par ch=5 c=7 v=70
42614 Par ch=5 c=7 v=62
42615 Par ch=5 c=7 v=53
42616 Par ch=5 c=7 v=45
42617 Par ch=5 c=7 v=37
42618 Par ch=5 c=7 v=29
42619 Par ch=5 c=11 v=7
42620 Par ch=5 c=7 v=21
42620 Par ch=5 c=7 v=12
42622 Par ch=5 c=7 v=21
42623 Par ch=5 c=7 v=29
42624 Par ch=5 c=7 v=37
42625 Par ch=5 c=7 v=45
42626 Par ch=5 c=7 v=53
42627 Par ch=5 c=7 v=62
42627 Par ch=5 c=11 v=6
42628 Par ch=5 c=7 v=70
42630 Par ch=5 c=7 v=86
42630 Par ch=5 c=7 v=78
42631 Par ch=5 c=7 v=95
42633 Par ch=5 c=7 v=103
42634 Par ch=5 c=7 v=111
42635 Par ch=5 c=7 v=119
42636 Par ch=5 c=7 v=127
42637 Par ch=5 c=7 v=119
42638 Par ch=5 c=7 v=111
42640 Par ch=5 c=7 v=103
42641 Par ch=5 c=7 v=95
42642 Par ch=5 c=7 v=86
42643 Par ch=5 c=7 v=78
42644 Par ch=5 c=7 v=70
42645 Par ch=5 c=7 v=62
42646 Par ch=5 c=7 v=53
42647 Par ch=5 c=7 v=45
42648 Par ch=5 c=7 v=37
42650 Par ch=5 c=7 v=29
42651 Par ch=5 c=7 v=21
42652 Par ch=5 c=7 v=12
42653 Par ch=5 c=7 v=21
42654 Par ch=5 c=7 v=29
42655 Par ch=5 c=7 v=37
42657 Par ch=5 c=7 v=53
42657 Par ch=5 c=7 v=45
42658 Par ch=5 c=7 v=62
42660 On ch=5 n=46 v=0
42660 On ch=5 n=62 v=0
42660 On ch=5 n=53 v=0
42660 On ch=5 n=58 v=0
42660 On ch=5 n=53 v=40
42660 On ch=5 n=58 v=40
42660 On ch=5 n=46 v=40
42660 Par ch=5 c=7 v=70
42661 Par ch=5 c=7 v=78
42661 Par ch=5 c=7 v=86
42663 Par ch=5 c=7 v=95
42664 Par ch=5 c=7 v=103
42665 Par ch=5 c=7 v=111
42667 Par ch=5 c=7 v=127
42667 Par ch=5 c=7 v=119
42668 Par ch=5 c=7 v=119
42670 Par ch=5 c=7 v=111
42671 Par ch=5 c=7 v=103
42672 Par ch=5 c=7 v=95
42673 Par ch=5 c=7 v=86
42674 Par ch=5 c=7 v=78
42675 Par ch=5 c=7 v=70
42676 Par ch=5 c=7 v=62
42678 Par ch=5 c=7 v=45
42678 Par ch=5 c=7 v=53
42680 Par ch=5 c=7 v=37
42681 Par ch=5 c=7 v=29
42682 Par ch=5 c=7 v=21
42683 Par ch=5 c=7 v=12
42684 Par ch=5 c=7 v=21
42685 Par ch=5 c=7 v=29
42687 Par ch=5 c=7 v=37
42688 Par ch=5 c=7 v=45
42688 Par ch=5 c=7 v=53
42690 Par ch=5 c=7 v=62
42691 Par ch=5 c=7 v=70
42692 Par ch=5 c=7 v=78
42693 Par ch=5 c=7 v=86
42694 Par ch=5 c=7 v=95
42695 Par ch=5 c=7 v=103
42697 Par ch=5 c=7 v=111
42698 Par ch=5 c=7 v=119
42698 Par ch=5 c=7 v=127
42700 Par ch=5 c=7 v=119
42701 Par ch=5 c=7 v=111
42702 Par ch=5 c=7 v=103
42703 Par ch=5 c=7 v=95
42704 Par ch=5 c=7 v=86
42705 Par ch=5 c=7 v=78
42706 Par ch=5 c=7 v=70
42708 Par ch=5 c=7 v=62
42709 Par ch=5 c=7 v=53
42710 Par ch=5 c=7 v=45
42711 Par ch=5 c=7 v=37
42712 Par ch=5 c=7 v=29
42713 Par ch=5 c=7 v=21
42715 Par ch=5 c=7 v=21
42715 Par ch=5 c=7 v=12
42717 Par ch=5 c=7 v=29
42718 Par ch=5 c=7 v=37
42719 Par ch=5 c=7 v=45
42720 On ch=5 n=46 v=0
42720 On ch=5 n=58 v=0
42720 On ch=5 n=53 v=0
42720 Meta TrkEnd
TrkEnd
MTrk
0 Meta TrkName "Drums"
0 Par ch=10 c=0 v=0
0 Par ch=10 c=32 v=0
0 PrCh ch=10 p=0
480 On ch=10 n=49 v=100
480 On ch=10 n=36 v=100
480 On ch=10 n=42 v=100
540 On ch=10 n=42 v=0
540 On ch=10 n=36 v=0
540 On ch=10 n=49 v=0
540 On ch=10 n=42 v=100
600 On ch=10 n=42 v=0
600 On ch=10 n=39 v=100
600 On ch=10 n=38 v=100
660 On ch=10 n=38 v=0
660 On ch=10 n=39 v=0
660 On ch=10 n=36 v=100
660 On ch=10 n=42 v=100
720 On ch=10 n=42 v=0
720 On ch=10 n=36 v=0
720 On ch=10 n=36 v=100
720 On ch=10 n=42 v=100
780 On ch=10 n=42 v=0
780 On ch=10 n=36 v=0
780 On ch=10 n=42 v=100
840 On ch=10 n=42 v=0
840 On ch=10 n=69 v=64
840 On ch=10 n=38 v=100
840 On ch=10 n=39 v=100
870 On ch=10 n=69 v=0
870 On ch=10 n=69 v=75
900 On ch=10 n=69 v=0
900 On ch=10 n=39 v=0
900 On ch=10 n=38 v=0
900 On ch=10 n=69 v=63
930 On ch=10 n=69 v=0
930 On ch=10 n=69 v=75
960 On ch=10 n=69 v=0
960 On ch=10 n=36 v=100
960 On ch=10 n=69 v=63
990 On ch=10 n=69 v=0
1020 On ch=10 n=36 v=0
1020 On ch=10 n=42 v=100
1080 On ch=10 n=42 v=0
1080 On ch=10 n=39 v=100
1080 On ch=10 n=38 v=100
1140 On ch=10 n=38 v=0
1140 On ch=10 n=39 v=0
1140 On ch=10 n=36 v=100
1140 On ch=10 n=42 v=100
1200 On ch=10 n=42 v=0
1200 On ch=10 n=36 v=0
1200 On ch=10 n=42 v=100
1200 On ch=10 n=36 v=100
1260 On ch=10 n=36 v=0
1260 On ch=10 n=42 v=0
1260 On ch=10 n=42 v=100
1320 On ch=10 n=42 v=0
1320 On ch=10 n=39 v=100
1320 On ch=10 n=38 v=100
1320 On ch=10 n=69 v=64
1350 On ch=10 n=69 v=0
1350 On ch=10 n=69 v=75
1380 On ch=10 n=69 v=0
1380 On ch=10 n=38 v=0
1380 On ch=10 n=39 v=0
1380 On ch=10 n=69 v=63
1410 On ch=10 n=69 v=0
1410 On ch=10 n=69 v=75
1440 On ch=10 n=69 v=0
1440 On ch=10 n=69 v=63
1440 On ch=10 n=36 v=100
1470 On ch=10 n=69 v=0
1500 On ch=10 n=36 v=0
1500 On ch=10 n=42 v=100
1560 On ch=10 n=42 v=0
1560 On ch=10 n=39 v=100
1560 On ch=10 n=38 v=100
1620 On ch=10 n=38 v=0
1620 On ch=10 n=39 v=0
1620 On ch=10 n=42 v=100
1620 On ch=10 n=36 v=100
1680 On ch=10 n=36 v=0
1680 On ch=10 n=42 v=0
1680 On ch=10 n=42 v=100
1680 On ch=10 n=36 v=100
1740 On ch=10 n=36 v=0
1740 On ch=10 n=42 v=0
1740 On ch=10 n=42 v=100
1800 On ch=10 n=42 v=0
1800 On ch=10 n=38 v=100
1800 On ch=10 n=39 v=100
1830 On ch=10 n=69 v=75
1860 On ch=10 n=69 v=0
1860 On ch=10 n=39 v=0
1860 On ch=10 n=38 v=0
1890 On ch=10 n=69 v=75
1920 On ch=10 n=69 v=0
1920 On ch=10 n=36 v=100
1920 On ch=10 n=69 v=63
1950 On ch=10 n=69 v=0
1980 On ch=10 n=36 v=0
1980 On ch=10 n=42 v=100
2040 On ch=10 n=42 v=0
2040 On ch=10 n=39 v=100
2040 On ch=10 n=38 v=100
2100 On ch=10 n=38 v=0
2100 On ch=10 n=39 v=0
2100 On ch=10 n=36 v=100
2100 On ch=10 n=42 v=100
2160 On ch=10 n=42 v=0
2160 On ch=10 n=36 v=0
2160 On ch=10 n=42 v=100
2160 On ch=10 n=36 v=100
2220 On ch=10 n=36 v=0
2220 On ch=10 n=42 v=0
2220 On ch=10 n=42 v=100
2280 On ch=10 n=42 v=0
2280 On ch=10 n=39 v=100
2280 On ch=10 n=69 v=64
2280 On ch=10 n=38 v=100
2310 On ch=10 n=69 v=0
2310 On ch=10 n=69 v=75
2340 On ch=10 n=69 v=0
2340 On ch=10 n=38 v=0
2340 On ch=10 n=39 v=0
2340 On ch=10 n=69 v=63
2370 On ch=10 n=69 v=0
2370 On ch=10 n=69 v=75
2400 On ch=10 n=69 v=0
2400 On ch=10 n=42 v=100
2400 On ch=10 n=36 v=100
2460 On ch=10 n=36 v=0
2460 On ch=10 n=42 v=0
2460 On ch=10 n=42 v=100
2520 On ch=10 n=42 v=0
2520 On ch=10 n=38 v=100
2520 On ch=10 n=39 v=100
2580 On ch=10 n=39 v=0
2580 On ch=10 n=38 v=0
2580 On ch=10 n=36 v=100
2580 On ch=10 n=42 v=100
2640 On ch=10 n=42 v=0
2640 On ch=10 n=36 v=0
2640 On ch=10 n=36 v=100
2640 On ch=10 n=42 v=100
2700 On ch=10 n=42 v=0
2700 On ch=10 n=36 v=0
2700 On ch=10 n=42 v=100
2760 On ch=10 n=42 v=0
2760 On ch=10 n=69 v=64
2760 On ch=10 n=39 v=100
2760 On ch=10 n=38 v=100
2790 On ch=10 n=69 v=0
2790 On ch=10 n=69 v=75
2820 On ch=10 n=69 v=0
2820 On ch=10 n=38 v=0
2820 On ch=10 n=39 v=0
2820 On ch=10 n=69 v=63
2850 On ch=10 n=69 v=0
2850 On ch=10 n=69 v=75
2880 On ch=10 n=69 v=0
2880 On ch=10 n=36 v=100
2880 On ch=10 n=69 v=63
2910 On ch=10 n=69 v=0
2940 On ch=10 n=36 v=0
2940 On ch=10 n=42 v=100
3000 On ch=10 n=42 v=0
3000 On ch=10 n=39 v=100
3000 On ch=10 n=38 v=100
3060 On ch=10 n=38 v=0
3060 On ch=10 n=39 v=0
3060 On ch=10 n=36 v=100
3060 On ch=10 n=42 v=100
3120 On ch=10 n=42 v=0
3120 On ch=10 n=36 v=0
3120 On ch=10 n=36 v=100
3120 On ch=10 n=42 v=100
3180 On ch=10 n=42 v=0
3180 On ch=10 n=36 v=0
3180 On ch=10 n=42 v=100
3240 On ch=10 n=42 v=0
3240 On ch=10 n=38 v=100
3240 On ch=10 n=39 v=100
3240 On ch=10 n=69 v=64
3270 On ch=10 n=69 v=0
3270 On ch=10 n=69 v=75
3300 On ch=10 n=69 v=0
3300 On ch=10 n=39 v=0
3300 On ch=10 n=38 v=0
3300 On ch=10 n=69 v=63
3330 On ch=10 n=69 v=0
3330 On ch=10 n=69 v=75
3360 On ch=10 n=69 v=0
3360 On ch=10 n=69 v=63
3360 On ch=10 n=36 v=100
3390 On ch=10 n=69 v=0
3420 On ch=10 n=36 v=0
3420 On ch=10 n=42 v=100
3480 On ch=10 n=42 v=0
3480 On ch=10 n=38 v=100
3480 On ch=10 n=39 v=100
3540 On ch=10 n=39 v=0
3540 On ch=10 n=38 v=0
3540 On ch=10 n=42 v=100
3540 On ch=10 n=36 v=100
3600 On ch=10 n=36 v=0
3600 On ch=10 n=42 v=0
3600 On ch=10 n=42 v=100
3600 On ch=10 n=36 v=100
3660 On ch=10 n=36 v=0
3660 On ch=10 n=42 v=0
3660 On ch=10 n=42 v=100
3720 On ch=10 n=42 v=0
3720 On ch=10 n=38 v=100
3720 On ch=10 n=39 v=100
3750 On ch=10 n=69 v=75
3780 On ch=10 n=69 v=0
3780 On ch=10 n=39 v=0
3780 On ch=10 n=38 v=0
3810 On ch=10 n=69 v=75
3840 On ch=10 n=69 v=0
3840 On ch=10 n=36 v=100
3840 On ch=10 n=69 v=63
3870 On ch=10 n=69 v=0
3900 On ch=10 n=36 v=0
3900 On ch=10 n=42 v=100
3960 On ch=10 n=42 v=0
3960 On ch=10 n=38 v=100
3960 On ch=10 n=39 v=100
4020 On ch=10 n=39 v=0
4020 On ch=10 n=38 v=0
4020 On ch=10 n=36 v=100
4020 On ch=10 n=42 v=100
4080 On ch=10 n=42 v=0
4080 On ch=10 n=36 v=0
4080 On ch=10 n=36 v=100
4080 On ch=10 n=42 v=100
4140 On ch=10 n=42 v=0
4140 On ch=10 n=36 v=0
4140 On ch=10 n=42 v=100
4200 On ch=10 n=42 v=0
4200 On ch=10 n=38 v=100
4200 On ch=10 n=39 v=100
4200 On ch=10 n=69 v=64
4230 On ch=10 n=69 v=0
4230 On ch=10 n=69 v=75
4260 On ch=10 n=69 v=0
4260 On ch=10 n=39 v=0
4260 On ch=10 n=38 v=0
4260 On ch=10 n=69 v=63
4290 On ch=10 n=69 v=0
4290 On ch=10 n=69 v=75
4320 On ch=10 n=69 v=0
4320 On ch=10 n=36 v=100
4320 On ch=10 n=42 v=100
4380 On ch=10 n=42 v=0
4380 On ch=10 n=36 v=0
4380 On ch=10 n=42 v=100
4440 On ch=10 n=42 v=0
4440 On ch=10 n=38 v=100
4440 On ch=10 n=39 v=100
4500 On ch=10 n=39 v=0
4500 On ch=10 n=38 v=0
4500 On ch=10 n=42 v=100
4500 On ch=10 n=36 v=100
4560 On ch=10 n=36 v=0
4560 On ch=10 n=42 v=0
4560 On ch=10 n=42 v=100
4560 On ch=10 n=36 v=100
4620 On ch=10 n=36 v=0
4620 On ch=10 n=42 v=0
4620 On ch=10 n=42 v=100
4680 On ch=10 n=42 v=0
4680 On ch=10 n=69 v=64
4680 On ch=10 n=38 v=100
4680 On ch=10 n=39 v=100
4710 On ch=10 n=69 v=0
4710 On ch=10 n=69 v=75
4740 On ch=10 n=69 v=0
4740 On ch=10 n=39 v=0
4740 On ch=10 n=38 v=0
4740 On ch=10 n=69 v=63
4770 On ch=10 n=69 v=0
4770 On ch=10 n=69 v=75
4800 On ch=10 n=69 v=0
4800 On ch=10 n=36 v=100
4800 On ch=10 n=69 v=63
4830 On ch=10 n=69 v=0
4860 On ch=10 n=36 v=0
4860 On ch=10 n=42 v=100
4920 On ch=10 n=42 v=0
4920 On ch=10 n=39 v=100
4920 On ch=10 n=38 v=100
4980 On ch=10 n=38 v=0
4980 On ch=10 n=39 v=0
4980 On ch=10 n=36 v=100
4980 On ch=10 n=42 v=100
5040 On ch=10 n=42 v=0
5040 On ch=10 n=36 v=0
5040 On ch=10 n=36 v=100
5040 On ch=10 n=42 v=100
5100 On ch=10 n=42 v=0
5100 On ch=10 n=36 v=0
5100 On ch=10 n=42 v=100
5160 On ch=10 n=42 v=0
5160 On ch=10 n=69 v=64
5160 On ch=10 n=38 v=100
5160 On ch=10 n=39 v=100
5190 On ch=10 n=69 v=0
5190 On ch=10 n=69 v=75
5220 On ch=10 n=69 v=0
5220 On ch=10 n=39 v=0
5220 On ch=10 n=38 v=0
5220 On ch=10 n=69 v=63
5250 On ch=10 n=69 v=0
5250 On ch=10 n=69 v=75
5280 On ch=10 n=69 v=0
5280 On ch=10 n=69 v=63
5280 On ch=10 n=36 v=100
5310 On ch=10 n=69 v=0
5340 On ch=10 n=36 v=0
5340 On ch=10 n=42 v=100
5400 On ch=10 n=42 v=0
5400 On ch=10 n=38 v=100
5400 On ch=10 n=39 v=100
5460 On ch=10 n=39 v=0
5460 On ch=10 n=38 v=0
5460 On ch=10 n=42 v=100
5460 On ch=10 n=36 v=100
5520 On ch=10 n=36 v=0
5520 On ch=10 n=42 v=0
5520 On ch=10 n=42 v=100
5520 On ch=10 n=36 v=100
5580 On ch=10 n=36 v=0
5580 On ch=10 n=42 v=0
5580 On ch=10 n=42 v=100
5640 On ch=10 n=42 v=0
5640 On ch=10 n=39 v=100
5640 On ch=10 n=38 v=100
5670 On ch=10 n=69 v=75
5700 On ch=10 n=69 v=0
5700 On ch=10 n=38 v=0
5700 On ch=10 n=39 v=0
5730 On ch=10 n=69 v=75
5760 On ch=10 n=69 v=0
5760 On ch=10 n=36 v=100
5760 On ch=10 n=69 v=63
5790 On ch=10 n=69 v=0
5820 On ch=10 n=36 v=0
5820 On ch=10 n=42 v=100
5880 On ch=10 n=42 v=0
5880 On ch=10 n=39 v=100
5880 On ch=10 n=38 v=100
5940 On ch=10 n=38 v=0
5940 On ch=10 n=39 v=0
5940 On ch=10 n=42 v=100
5940 On ch=10 n=36 v=100
6000 On ch=10 n=36 v=0
6000 On ch=10 n=42 v=0
6000 On ch=10 n=36 v=100
6000 On ch=10 n=42 v=100
6060 On ch=10 n=42 v=0
6060 On ch=10 n=36 v=0
6060 On ch=10 n=42 v=100
6120 On ch=10 n=42 v=0
6120 On ch=10 n=39 v=100
6120 On ch=10 n=38 v=100
6120 On ch=10 n=69 v=64
6150 On ch=10 n=69 v=0
6150 On ch=10 n=69 v=75
6180 On ch=10 n=69 v=0
6180 On ch=10 n=38 v=0
6180 On ch=10 n=39 v=0
6180 On ch=10 n=69 v=63
6210 On ch=10 n=69 v=0
6210 On ch=10 n=69 v=75
6240 On ch=10 n=69 v=0
6240 On ch=10 n=36 v=100
6240 On ch=10 n=42 v=100
6300 On ch=10 n=42 v=0
6300 On ch=10 n=36 v=0
6300 On ch=10 n=42 v=100
6360 On ch=10 n=42 v=0
6360 On ch=10 n=39 v=100
6360 On ch=10 n=38 v=100
6420 On ch=10 n=38 v=0
6420 On ch=10 n=39 v=0
6420 On ch=10 n=36 v=100
6420 On ch=10 n=42 v=100
6480 On ch=10 n=42 v=0
6480 On ch=10 n=36 v=0
6480 On ch=10 n=42 v=100
6480 On ch=10 n=36 v=100
6540 On ch=10 n=36 v=0
6540 On ch=10 n=42 v=0
6540 On ch=10 n=42 v=100
6600 On ch=10 n=42 v=0
6600 On ch=10 n=38 v=100
6600 On ch=10 n=69 v=64
6600 On ch=10 n=39 v=100
6630 On ch=10 n=69 v=0
6630 On ch=10 n=69 v=75
6660 On ch=10 n=69 v=0
6660 On ch=10 n=39 v=0
6660 On ch=10 n=38 v=0
6660 On ch=10 n=69 v=63
6690 On ch=10 n=69 v=0
6690 On ch=10 n=69 v=75
6720 On ch=10 n=69 v=0
6720 On ch=10 n=36 v=100
6720 On ch=10 n=69 v=63
6750 On ch=10 n=69 v=0
6780 On ch=10 n=36 v=0
6780 On ch=10 n=42 v=100
6840 On ch=10 n=42 v=0
6840 On ch=10 n=39 v=100
6840 On ch=10 n=38 v=100
6900 On ch=10 n=38 v=0
6900 On ch=10 n=39 v=0
6900 On ch=10 n=36 v=100
6900 On ch=10 n=42 v=100
6960 On ch=10 n=42 v=0
6960 On ch=10 n=36 v=0
6960 On ch=10 n=42 v=100
6960 On ch=10 n=36 v=100
7020 On ch=10 n=36 v=0
7020 On ch=10 n=42 v=0
7020 On ch=10 n=42 v=100
7080 On ch=10 n=42 v=0
7080 On ch=10 n=39 v=100
7080 On ch=10 n=69 v=64
7080 On ch=10 n=38 v=100
7110 On ch=10 n=69 v=0
7110 On ch=10 n=69 v=75
7140 On ch=10 n=69 v=0
7140 On ch=10 n=38 v=0
7140 On ch=10 n=39 v=0
7140 On ch=10 n=69 v=63
7170 On ch=10 n=69 v=0
7170 On ch=10 n=69 v=75
7200 On ch=10 n=69 v=0
7200 On ch=10 n=36 v=100
7200 On ch=10 n=69 v=63
7230 On ch=10 n=69 v=0
7260 On ch=10 n=36 v=0
7260 On ch=10 n=42 v=100
7320 On ch=10 n=42 v=0
7320 On ch=10 n=39 v=100
7320 On ch=10 n=38 v=100
7380 On ch=10 n=38 v=0
7380 On ch=10 n=39 v=0
7380 On ch=10 n=42 v=100
7380 On ch=10 n=36 v=100
7440 On ch=10 n=36 v=0
7440 On ch=10 n=42 v=0
7440 On ch=10 n=42 v=100
7440 On ch=10 n=36 v=100
7500 On ch=10 n=36 v=0
7500 On ch=10 n=42 v=0
7500 On ch=10 n=42 v=100
7560 On ch=10 n=42 v=0
7560 On ch=10 n=39 v=100
7560 On ch=10 n=38 v=100
7590 On ch=10 n=69 v=75
7620 On ch=10 n=69 v=0
7620 On ch=10 n=38 v=0
7620 On ch=10 n=39 v=0
7650 On ch=10 n=69 v=75
7680 On ch=10 n=69 v=0
7680 On ch=10 n=36 v=100
7680 On ch=10 n=69 v=63
7710 On ch=10 n=69 v=0
7740 On ch=10 n=36 v=0
7740 On ch=10 n=42 v=100
7800 On ch=10 n=42 v=0
7800 On ch=10 n=38 v=100
7800 On ch=10 n=39 v=100
7860 On ch=10 n=39 v=0
7860 On ch=10 n=38 v=0
7860 On ch=10 n=36 v=100
7860 On ch=10 n=42 v=100
7920 On ch=10 n=42 v=0
7920 On ch=10 n=36 v=0
7920 On ch=10 n=36 v=100
7920 On ch=10 n=42 v=100
7980 On ch=10 n=42 v=0
7980 On ch=10 n=36 v=0
7980 On ch=10 n=42 v=100
8040 On ch=10 n=42 v=0
8040 On ch=10 n=69 v=64
8040 On ch=10 n=39 v=100
8040 On ch=10 n=38 v=100
8070 On ch=10 n=69 v=0
8070 On ch=10 n=69 v=75
8100 On ch=10 n=69 v=0
8100 On ch=10 n=38 v=0
8100 On ch=10 n=39 v=0
8100 On ch=10 n=69 v=63
8130 On ch=10 n=69 v=0
8130 On ch=10 n=69 v=75
8160 On ch=10 n=69 v=0
8160 On ch=10 n=36 v=100
8160 On ch=10 n=42 v=100
8220 On ch=10 n=42 v=0
8220 On ch=10 n=36 v=0
8220 On ch=10 n=42 v=100
8280 On ch=10 n=42 v=0
8280 On ch=10 n=39 v=100
8280 On ch=10 n=38 v=100
8340 On ch=10 n=38 v=0
8340 On ch=10 n=39 v=0
8340 On ch=10 n=36 v=100
8340 On ch=10 n=42 v=100
8400 On ch=10 n=42 v=0
8400 On ch=10 n=36 v=0
8400 On ch=10 n=42 v=100
8400 On ch=10 n=36 v=100
8460 On ch=10 n=36 v=0
8460 On ch=10 n=42 v=0
8460 On ch=10 n=42 v=100
8520 On ch=10 n=42 v=0
8520 On ch=10 n=39 v=100
8520 On ch=10 n=69 v=64
8520 On ch=10 n=38 v=100
8550 On ch=10 n=69 v=0
8550 On ch=10 n=69 v=75
8580 On ch=10 n=69 v=0
8580 On ch=10 n=38 v=0
8580 On ch=10 n=39 v=0
8580 On ch=10 n=69 v=63
8610 On ch=10 n=69 v=0
8610 On ch=10 n=69 v=75
8640 On ch=10 n=69 v=0
8640 On ch=10 n=69 v=63
8640 On ch=10 n=36 v=100
8670 On ch=10 n=69 v=0
8700 On ch=10 n=36 v=0
8700 On ch=10 n=42 v=100
8760 On ch=10 n=42 v=0
8760 On ch=10 n=38 v=100
8760 On ch=10 n=39 v=100
8820 On ch=10 n=39 v=0
8820 On ch=10 n=38 v=0
8820 On ch=10 n=36 v=100
8820 On ch=10 n=42 v=100
8880 On ch=10 n=42 v=0
8880 On ch=10 n=36 v=0
8880 On ch=10 n=36 v=100
8880 On ch=10 n=42 v=100
8940 On ch=10 n=42 v=0
8940 On ch=10 n=36 v=0
8940 On ch=10 n=42 v=100
9000 On ch=10 n=42 v=0
9000 On ch=10 n=39 v=100
9000 On ch=10 n=69 v=64
9000 On ch=10 n=38 v=100
9030 On ch=10 n=69 v=0
9030 On ch=10 n=69 v=75
9060 On ch=10 n=69 v=0
9060 On ch=10 n=38 v=0
9060 On ch=10 n=39 v=0
9060 On ch=10 n=69 v=63
9090 On ch=10 n=69 v=0
9090 On ch=10 n=69 v=75
9120 On ch=10 n=69 v=0
9120 On ch=10 n=69 v=63
9120 On ch=10 n=36 v=100
9150 On ch=10 n=69 v=0
9180 On ch=10 n=36 v=0
9180 On ch=10 n=42 v=100
9240 On ch=10 n=42 v=0
9240 On ch=10 n=38 v=100
9240 On ch=10 n=39 v=100
9300 On ch=10 n=39 v=0
9300 On ch=10 n=38 v=0
9300 On ch=10 n=36 v=100
9300 On ch=10 n=42 v=100
9360 On ch=10 n=42 v=0
9360 On ch=10 n=36 v=0
9360 On ch=10 n=36 v=100
9360 On ch=10 n=42 v=100
9420 On ch=10 n=42 v=0
9420 On ch=10 n=36 v=0
9420 On ch=10 n=42 v=100
9480 On ch=10 n=42 v=0
9480 On ch=10 n=38 v=100
9480 On ch=10 n=39 v=100
9510 On ch=10 n=69 v=75
9540 On ch=10 n=69 v=0
9540 On ch=10 n=39 v=0
9540 On ch=10 n=38 v=0
9570 On ch=10 n=69 v=75
9600 On ch=10 n=69 v=0
9600 On ch=10 n=69 v=63
9600 On ch=10 n=36 v=100
9630 On ch=10 n=69 v=0
9660 On ch=10 n=36 v=0
9660 On ch=10 n=42 v=100
9720 On ch=10 n=42 v=0
9720 On ch=10 n=39 v=100
9720 On ch=10 n=38 v=100
9780 On ch=10 n=38 v=0
9780 On ch=10 n=39 v=0
9780 On ch=10 n=42 v=100
9780 On ch=10 n=36 v=100
9840 On ch=10 n=36 v=0
9840 On ch=10 n=42 v=0
9840 On ch=10 n=42 v=100
9840 On ch=10 n=36 v=100
9900 On ch=10 n=36 v=0
9900 On ch=10 n=42 v=0
9900 On ch=10 n=42 v=100
9960 On ch=10 n=42 v=0
9960 On ch=10 n=38 v=100
9960 On ch=10 n=69 v=64
9960 On ch=10 n=39 v=100
9990 On ch=10 n=69 v=0
9990 On ch=10 n=69 v=75
10020 On ch=10 n=69 v=0
10020 On ch=10 n=39 v=0
10020 On ch=10 n=38 v=0
10020 On ch=10 n=69 v=63
10050 On ch=10 n=69 v=0
10050 On ch=10 n=69 v=75
10080 On ch=10 n=69 v=0
10080 On ch=10 n=36 v=100
10080 On ch=10 n=49 v=100
10080 On ch=10 n=42 v=100
10140 On ch=10 n=42 v=0
10140 On ch=10 n=49 v=0
10140 On ch=10 n=36 v=0
10140 On ch=10 n=42 v=100
10200 On ch=10 n=42 v=0
10200 On ch=10 n=39 v=100
10200 On ch=10 n=38 v=100
10260 On ch=10 n=38 v=0
10260 On ch=10 n=39 v=0
10260 On ch=10 n=36 v=100
10260 On ch=10 n=42 v=100
10320 On ch=10 n=42 v=0
10320 On ch=10 n=36 v=0
10320 On ch=10 n=42 v=100
10320 On ch=10 n=36 v=100
10380 On ch=10 n=36 v=0
10380 On ch=10 n=42 v=0
10380 On ch=10 n=42 v=100
10440 On ch=10 n=42 v=0
10440 On ch=10 n=39 v=100
10440 On ch=10 n=69 v=64
10440 On ch=10 n=38 v=100
10470 On ch=10 n=69 v=0
10470 On ch=10 n=69 v=75
10500 On ch=10 n=69 v=0
10500 On ch=10 n=38 v=0
10500 On ch=10 n=39 v=0
10500 On ch=10 n=69 v=63
10530 On ch=10 n=69 v=0
10530 On ch=10 n=69 v=75
10560 On ch=10 n=69 v=0
10560 On ch=10 n=69 v=63
10560 On ch=10 n=36 v=100
10590 On ch=10 n=69 v=0
10620 On ch=10 n=36 v=0
10620 On ch=10 n=42 v=100
10680 On ch=10 n=42 v=0
10680 On ch=10 n=38 v=100
10680 On ch=10 n=39 v=100
10740 On ch=10 n=39 v=0
10740 On ch=10 n=38 v=0
10740 On ch=10 n=42 v=100
10740 On ch=10 n=36 v=100
10800 On ch=10 n=36 v=0
10800 On ch=10 n=42 v=0
10800 On ch=10 n=36 v=100
10800 On ch=10 n=42 v=100
10860 On ch=10 n=42 v=0
10860 On ch=10 n=36 v=0
10860 On ch=10 n=42 v=100
10920 On ch=10 n=42 v=0
10920 On ch=10 n=38 v=100
10920 On ch=10 n=39 v=100
10920 On ch=10 n=69 v=64
10950 On ch=10 n=69 v=0
10950 On ch=10 n=69 v=75
10980 On ch=10 n=69 v=0
10980 On ch=10 n=39 v=0
10980 On ch=10 n=38 v=0
10980 On ch=10 n=69 v=63
11010 On ch=10 n=69 v=0
11010 On ch=10 n=69 v=75
11040 On ch=10 n=69 v=0
11040 On ch=10 n=36 v=100
11040 On ch=10 n=69 v=63
11070 On ch=10 n=69 v=0
11100 On ch=10 n=36 v=0
11100 On ch=10 n=42 v=100
11160 On ch=10 n=42 v=0
11160 On ch=10 n=38 v=100
11160 On ch=10 n=39 v=100
11220 On ch=10 n=39 v=0
11220 On ch=10 n=38 v=0
11220 On ch=10 n=42 v=100
11220 On ch=10 n=36 v=100
11280 On ch=10 n=36 v=0
11280 On ch=10 n=42 v=0
11280 On ch=10 n=36 v=100
11280 On ch=10 n=42 v=100
11340 On ch=10 n=42 v=0
11340 On ch=10 n=36 v=0
11340 On ch=10 n=42 v=100
11400 On ch=10 n=42 v=0
11400 On ch=10 n=38 v=100
11400 On ch=10 n=39 v=100
11430 On ch=10 n=69 v=75
11460 On ch=10 n=69 v=0
11460 On ch=10 n=39 v=0
11460 On ch=10 n=38 v=0
11490 On ch=10 n=69 v=75
11520 On ch=10 n=69 v=0
11520 On ch=10 n=69 v=63
11520 On ch=10 n=36 v=100
11550 On ch=10 n=69 v=0
11580 On ch=10 n=36 v=0
11580 On ch=10 n=42 v=100
11640 On ch=10 n=42 v=0
11640 On ch=10 n=39 v=100
11640 On ch=10 n=38 v=100
11700 On ch=10 n=38 v=0
11700 On ch=10 n=39 v=0
11700 On ch=10 n=42 v=100
11700 On ch=10 n=36 v=100
11760 On ch=10 n=36 v=0
11760 On ch=10 n=42 v=0
11760 On ch=10 n=42 v=100
11760 On ch=10 n=36 v=100
11820 On ch=10 n=36 v=0
11820 On ch=10 n=42 v=0
11820 On ch=10 n=42 v=100
11880 On ch=10 n=42 v=0
11880 On ch=10 n=69 v=64
11880 On ch=10 n=39 v=100
11880 On ch=10 n=38 v=100
11910 On ch=10 n=69 v=0
11910 On ch=10 n=69 v=75
11940 On ch=10 n=69 v=0
11940 On ch=10 n=38 v=0
11940 On ch=10 n=39 v=0
11940 On ch=10 n=69 v=63
11970 On ch=10 n=69 v=0
11970 On ch=10 n=69 v=75
12000 On ch=10 n=69 v=0
12000 On ch=10 n=42 v=100
12000 On ch=10 n=36 v=100
12060 On ch=10 n=36 v=0
12060 On ch=10 n=42 v=0
12060 On ch=10 n=42 v=100
12120 On ch=10 n=42 v=0
12120 On ch=10 n=39 v=100
12120 On ch=10 n=38 v=100
12180 On ch=10 n=38 v=0
12180 On ch=10 n=39 v=0
12180 On ch=10 n=42 v=100
12180 On ch=10 n=36 v=100
12240 On ch=10 n=36 v=0
12240 On ch=10 n=42 v=0
12240 On ch=10 n=36 v=100
12240 On ch=10 n=42 v=100
12300 On ch=10 n=42 v=0
12300 On ch=10 n=36 v=0
12300 On ch=10 n=42 v=100
12360 On ch=10 n=42 v=0
12360 On ch=10 n=69 v=64
12360 On ch=10 n=39 v=100
12360 On ch=10 n=38 v=100
12390 On ch=10 n=69 v=0
12390 On ch=10 n=69 v=75
12420 On ch=10 n=69 v=0
12420 On ch=10 n=38 v=0
12420 On ch=10 n=39 v=0
12420 On ch=10 n=69 v=63
12450 On ch=10 n=69 v=0
12450 On ch=10 n=69 v=75
12480 On ch=10 n=69 v=0
12480 On ch=10 n=69 v=63
12480 On ch=10 n=36 v=100
12510 On ch=10 n=69 v=0
12540 On ch=10 n=36 v=0
12540 On ch=10 n=42 v=100
12600 On ch=10 n=42 v=0
12600 On ch=10 n=39 v=100
12600 On ch=10 n=38 v=100
12660 On ch=10 n=38 v=0
12660 On ch=10 n=39 v=0
12660 On ch=10 n=42 v=100
12660 On ch=10 n=36 v=100
12720 On ch=10 n=36 v=0
12720 On ch=10 n=42 v=0
12720 On ch=10 n=36 v=100
12720 On ch=10 n=42 v=100
12780 On ch=10 n=42 v=0
12780 On ch=10 n=36 v=0
12780 On ch=10 n=42 v=100
12840 On ch=10 n=42 v=0
12840 On ch=10 n=39 v=100
12840 On ch=10 n=69 v=64
12840 On ch=10 n=38 v=100
12870 On ch=10 n=69 v=0
12870 On ch=10 n=69 v=75
12900 On ch=10 n=69 v=0
12900 On ch=10 n=38 v=0
12900 On ch=10 n=39 v=0
12900 On ch=10 n=69 v=63
12930 On ch=10 n=69 v=0
12930 On ch=10 n=69 v=75
12960 On ch=10 n=69 v=0
12960 On ch=10 n=36 v=100
12960 On ch=10 n=69 v=63
12990 On ch=10 n=69 v=0
13020 On ch=10 n=36 v=0
13020 On ch=10 n=42 v=100
13080 On ch=10 n=42 v=0
13080 On ch=10 n=38 v=100
13080 On ch=10 n=39 v=100
13140 On ch=10 n=39 v=0
13140 On ch=10 n=38 v=0
13140 On ch=10 n=42 v=100
13140 On ch=10 n=36 v=100
13200 On ch=10 n=36 v=0
13200 On ch=10 n=42 v=0
13200 On ch=10 n=36 v=100
13200 On ch=10 n=42 v=100
13260 On ch=10 n=42 v=0
13260 On ch=10 n=36 v=0
13260 On ch=10 n=42 v=100
13320 On ch=10 n=42 v=0
13320 On ch=10 n=39 v=100
13320 On ch=10 n=38 v=100
13350 On ch=10 n=69 v=75
13380 On ch=10 n=69 v=0
13380 On ch=10 n=38 v=0
13380 On ch=10 n=39 v=0
13410 On ch=10 n=69 v=75
13440 On ch=10 n=69 v=0
13440 On ch=10 n=36 v=100
13440 On ch=10 n=69 v=63
13470 On ch=10 n=69 v=0
13500 On ch=10 n=36 v=0
13500 On ch=10 n=42 v=100
13560 On ch=10 n=42 v=0
13560 On ch=10 n=38 v=100
13560 On ch=10 n=39 v=100
13620 On ch=10 n=39 v=0
13620 On ch=10 n=38 v=0
13620 On ch=10 n=42 v=100
13620 On ch=10 n=36 v=100
13680 On ch=10 n=36 v=0
13680 On ch=10 n=42 v=0
13680 On ch=10 n=42 v=100
13680 On ch=10 n=36 v=100
13740 On ch=10 n=36 v=0
13740 On ch=10 n=42 v=0
13740 On ch=10 n=42 v=100
13800 On ch=10 n=42 v=0
13800 On ch=10 n=39 v=100
13800 On ch=10 n=38 v=100
13800 On ch=10 n=69 v=64
13830 On ch=10 n=69 v=0
13830 On ch=10 n=69 v=75
13860 On ch=10 n=69 v=0
13860 On ch=10 n=38 v=0
13860 On ch=10 n=39 v=0
13860 On ch=10 n=69 v=63
13890 On ch=10 n=69 v=0
13890 On ch=10 n=69 v=75
13920 On ch=10 n=69 v=0
13920 On ch=10 n=42 v=100
13920 On ch=10 n=36 v=100
13980 On ch=10 n=36 v=0
13980 On ch=10 n=42 v=0
13980 On ch=10 n=42 v=100
14040 On ch=10 n=42 v=0
14040 On ch=10 n=39 v=100
14040 On ch=10 n=38 v=100
14100 On ch=10 n=38 v=0
14100 On ch=10 n=39 v=0
14100 On ch=10 n=42 v=100
14100 On ch=10 n=36 v=100
14160 On ch=10 n=36 v=0
14160 On ch=10 n=42 v=0
14160 On ch=10 n=42 v=100
14160 On ch=10 n=36 v=100
14220 On ch=10 n=36 v=0
14220 On ch=10 n=42 v=0
14220 On ch=10 n=42 v=100
14280 On ch=10 n=42 v=0
14280 On ch=10 n=39 v=100
14280 On ch=10 n=69 v=64
14280 On ch=10 n=38 v=100
14310 On ch=10 n=69 v=0
14310 On ch=10 n=69 v=75
14340 On ch=10 n=69 v=0
14340 On ch=10 n=38 v=0
14340 On ch=10 n=39 v=0
14340 On ch=10 n=69 v=63
14370 On ch=10 n=69 v=0
14370 On ch=10 n=69 v=75
14400 On ch=10 n=69 v=0
14400 On ch=10 n=36 v=100
14400 On ch=10 n=69 v=63
14430 On ch=10 n=69 v=0
14460 On ch=10 n=36 v=0
14460 On ch=10 n=42 v=100
14520 On ch=10 n=42 v=0
14520 On ch=10 n=38 v=100
14520 On ch=10 n=39 v=100
14580 On ch=10 n=39 v=0
14580 On ch=10 n=38 v=0
14580 On ch=10 n=42 v=100
14580 On ch=10 n=36 v=100
14640 On ch=10 n=36 v=0
14640 On ch=10 n=42 v=0
14640 On ch=10 n=36 v=100
14640 On ch=10 n=42 v=100
14700 On ch=10 n=42 v=0
14700 On ch=10 n=36 v=0
14700 On ch=10 n=42 v=100
14760 On ch=10 n=42 v=0
14760 On ch=10 n=39 v=100
14760 On ch=10 n=69 v=64
14760 On ch=10 n=38 v=100
14790 On ch=10 n=69 v=0
14790 On ch=10 n=69 v=75
14820 On ch=10 n=69 v=0
14820 On ch=10 n=38 v=0
14820 On ch=10 n=39 v=0
14820 On ch=10 n=69 v=63
14850 On ch=10 n=69 v=0
14850 On ch=10 n=69 v=75
14880 On ch=10 n=69 v=0
14880 On ch=10 n=36 v=100
14880 On ch=10 n=69 v=63
14910 On ch=10 n=69 v=0
14940 On ch=10 n=36 v=0
14940 On ch=10 n=42 v=100
15000 On ch=10 n=42 v=0
15000 On ch=10 n=39 v=100
15000 On ch=10 n=38 v=100
15060 On ch=10 n=38 v=0
15060 On ch=10 n=39 v=0
15060 On ch=10 n=36 v=100
15060 On ch=10 n=42 v=100
15120 On ch=10 n=42 v=0
15120 On ch=10 n=36 v=0
15120 On ch=10 n=36 v=100
15120 On ch=10 n=42 v=100
15180 On ch=10 n=42 v=0
15180 On ch=10 n=36 v=0
15180 On ch=10 n=42 v=100
15240 On ch=10 n=42 v=0
15240 On ch=10 n=38 v=100
15240 On ch=10 n=39 v=100
15270 On ch=10 n=69 v=75
15300 On ch=10 n=69 v=0
15300 On ch=10 n=39 v=0
15300 On ch=10 n=38 v=0
15330 On ch=10 n=69 v=75
15360 On ch=10 n=69 v=0
15360 On ch=10 n=36 v=100
15360 On ch=10 n=69 v=63
15390 On ch=10 n=69 v=0
15420 On ch=10 n=36 v=0
15420 On ch=10 n=42 v=100
15480 On ch=10 n=42 v=0
15480 On ch=10 n=39 v=100
15480 On ch=10 n=38 v=100
15540 On ch=10 n=38 v=0
15540 On ch=10 n=39 v=0
15540 On ch=10 n=42 v=100
15540 On ch=10 n=36 v=100
15600 On ch=10 n=36 v=0
15600 On ch=10 n=42 v=0
15600 On ch=10 n=42 v=100
15600 On ch=10 n=36 v=100
15660 On ch=10 n=36 v=0
15660 On ch=10 n=42 v=0
15660 On ch=10 n=42 v=100
15720 On ch=10 n=42 v=0
15720 On ch=10 n=39 v=100
15720 On ch=10 n=38 v=100
15720 On ch=10 n=69 v=64
15750 On ch=10 n=69 v=0
15750 On ch=10 n=69 v=75
15780 On ch=10 n=69 v=0
15780 On ch=10 n=38 v=0
15780 On ch=10 n=39 v=0
15780 On ch=10 n=69 v=63
15810 On ch=10 n=69 v=0
15810 On ch=10 n=69 v=75
15840 On ch=10 n=69 v=0
15840 On ch=10 n=42 v=100
15840 On ch=10 n=36 v=100
15900 On ch=10 n=36 v=0
15900 On ch=10 n=42 v=0
15900 On ch=10 n=42 v=100
15960 On ch=10 n=42 v=0
15960 On ch=10 n=38 v=100
15960 On ch=10 n=39 v=100
16020 On ch=10 n=39 v=0
16020 On ch=10 n=38 v=0
16020 On ch=10 n=36 v=100
16020 On ch=10 n=42 v=100
16080 On ch=10 n=42 v=0
16080 On ch=10 n=36 v=0
16080 On ch=10 n=42 v=100
16080 On ch=10 n=36 v=100
16140 On ch=10 n=36 v=0
16140 On ch=10 n=42 v=0
16140 On ch=10 n=42 v=100
16200 On ch=10 n=42 v=0
16200 On ch=10 n=69 v=64
16200 On ch=10 n=38 v=100
16200 On ch=10 n=39 v=100
16230 On ch=10 n=69 v=0
16230 On ch=10 n=69 v=75
16260 On ch=10 n=69 v=0
16260 On ch=10 n=39 v=0
16260 On ch=10 n=38 v=0
16260 On ch=10 n=69 v=63
16290 On ch=10 n=69 v=0
16290 On ch=10 n=69 v=75
16320 On ch=10 n=69 v=0
16320 On ch=10 n=69 v=63
16320 On ch=10 n=36 v=100
16350 On ch=10 n=69 v=0
16380 On ch=10 n=36 v=0
16380 On ch=10 n=42 v=100
16440 On ch=10 n=42 v=0
16440 On ch=10 n=38 v=100
16440 On ch=10 n=39 v=100
16500 On ch=10 n=39 v=0
16500 On ch=10 n=38 v=0
16500 On ch=10 n=42 v=100
16500 On ch=10 n=36 v=100
16560 On ch=10 n=36 v=0
16560 On ch=10 n=42 v=0
16560 On ch=10 n=42 v=100
16560 On ch=10 n=36 v=100
16620 On ch=10 n=36 v=0
16620 On ch=10 n=42 v=0
16620 On ch=10 n=42 v=100
16680 On ch=10 n=42 v=0
16680 On ch=10 n=69 v=64
16680 On ch=10 n=38 v=100
16680 On ch=10 n=39 v=100
16710 On ch=10 n=69 v=0
16710 On ch=10 n=69 v=75
16740 On ch=10 n=69 v=0
16740 On ch=10 n=39 v=0
16740 On ch=10 n=38 v=0
16740 On ch=10 n=69 v=63
16770 On ch=10 n=69 v=0
16770 On ch=10 n=69 v=75
16800 On ch=10 n=69 v=0
16800 On ch=10 n=69 v=63
16800 On ch=10 n=36 v=100
16830 On ch=10 n=69 v=0
16860 On ch=10 n=36 v=0
16860 On ch=10 n=42 v=100
16920 On ch=10 n=42 v=0
16920 On ch=10 n=38 v=100
16920 On ch=10 n=39 v=100
16980 On ch=10 n=39 v=0
16980 On ch=10 n=38 v=0
16980 On ch=10 n=36 v=100
16980 On ch=10 n=42 v=100
17040 On ch=10 n=42 v=0
17040 On ch=10 n=36 v=0
17040 On ch=10 n=42 v=100
17040 On ch=10 n=36 v=100
17100 On ch=10 n=36 v=0
17100 On ch=10 n=42 v=0
17100 On ch=10 n=42 v=100
17160 On ch=10 n=42 v=0
17160 On ch=10 n=39 v=100
17160 On ch=10 n=38 v=100
17190 On ch=10 n=69 v=75
17220 On ch=10 n=69 v=0
17220 On ch=10 n=38 v=0
17220 On ch=10 n=39 v=0
17250 On ch=10 n=69 v=75
17280 On ch=10 n=69 v=0
17280 On ch=10 n=36 v=100
17280 On ch=10 n=69 v=63
17310 On ch=10 n=69 v=0
17340 On ch=10 n=36 v=0
17340 On ch=10 n=42 v=100
17400 On ch=10 n=42 v=0
17400 On ch=10 n=39 v=100
17400 On ch=10 n=38 v=100
17460 On ch=10 n=38 v=0
17460 On ch=10 n=39 v=0
17460 On ch=10 n=36 v=100
17460 On ch=10 n=42 v=100
17520 On ch=10 n=42 v=0
17520 On ch=10 n=36 v=0
17520 On ch=10 n=42 v=100
17520 On ch=10 n=36 v=100
17580 On ch=10 n=36 v=0
17580 On ch=10 n=42 v=0
17580 On ch=10 n=42 v=100
17640 On ch=10 n=42 v=0
17640 On ch=10 n=39 v=100
17640 On ch=10 n=38 v=100
17640 On ch=10 n=69 v=64
17670 On ch=10 n=69 v=0
17670 On ch=10 n=69 v=75
17700 On ch=10 n=69 v=0
17700 On ch=10 n=38 v=0
17700 On ch=10 n=39 v=0
17700 On ch=10 n=69 v=63
17730 On ch=10 n=69 v=0
17730 On ch=10 n=69 v=75
17760 On ch=10 n=69 v=0
17760 On ch=10 n=42 v=100
17760 On ch=10 n=36 v=100
17820 On ch=10 n=36 v=0
17820 On ch=10 n=42 v=0
17820 On ch=10 n=42 v=100
17880 On ch=10 n=42 v=0
17880 On ch=10 n=38 v=100
17880 On ch=10 n=39 v=100
17940 On ch=10 n=39 v=0
17940 On ch=10 n=38 v=0
17940 On ch=10 n=36 v=100
17940 On ch=10 n=42 v=100
18000 On ch=10 n=42 v=0
18000 On ch=10 n=36 v=0
18000 On ch=10 n=42 v=100
18000 On ch=10 n=36 v=100
18060 On ch=10 n=36 v=0
18060 On ch=10 n=42 v=0
18060 On ch=10 n=42 v=100
18120 On ch=10 n=42 v=0
18120 On ch=10 n=39 v=100
18120 On ch=10 n=38 v=100
18120 On ch=10 n=69 v=64
18150 On ch=10 n=69 v=0
18150 On ch=10 n=69 v=75
18180 On ch=10 n=69 v=0
18180 On ch=10 n=38 v=0
18180 On ch=10 n=39 v=0
18180 On ch=10 n=69 v=63
18210 On ch=10 n=69 v=0
18210 On ch=10 n=69 v=75
18240 On ch=10 n=69 v=0
18240 On ch=10 n=69 v=63
18240 On ch=10 n=36 v=100
18270 On ch=10 n=69 v=0
18300 On ch=10 n=36 v=0
18300 On ch=10 n=42 v=100
18360 On ch=10 n=42 v=0
18360 On ch=10 n=38 v=100
18360 On ch=10 n=39 v=100
18420 On ch=10 n=39 v=0
18420 On ch=10 n=38 v=0
18420 On ch=10 n=42 v=100
18420 On ch=10 n=36 v=100
18480 On ch=10 n=36 v=0
18480 On ch=10 n=42 v=0
18480 On ch=10 n=36 v=100
18480 On ch=10 n=42 v=100
18540 On ch=10 n=42 v=0
18540 On ch=10 n=36 v=0
18540 On ch=10 n=42 v=100
18600 On ch=10 n=42 v=0
18600 On ch=10 n=69 v=64
18600 On ch=10 n=38 v=100
18600 On ch=10 n=39 v=100
18630 On ch=10 n=69 v=0
18630 On ch=10 n=69 v=75
18660 On ch=10 n=69 v=0
18660 On ch=10 n=39 v=0
18660 On ch=10 n=38 v=0
18660 On ch=10 n=69 v=63
18690 On ch=10 n=69 v=0
18690 On ch=10 n=69 v=75
18720 On ch=10 n=69 v=0
18720 On ch=10 n=36 v=100
18720 On ch=10 n=69 v=63
18750 On ch=10 n=69 v=0
18780 On ch=10 n=36 v=0
18780 On ch=10 n=42 v=100
18840 On ch=10 n=42 v=0
18840 On ch=10 n=38 v=100
18840 On ch=10 n=39 v=100
18900 On ch=10 n=39 v=0
18900 On ch=10 n=38 v=0
18900 On ch=10 n=42 v=100
18900 On ch=10 n=36 v=100
18960 On ch=10 n=36 v=0
18960 On ch=10 n=42 v=0
18960 On ch=10 n=36 v=100
18960 On ch=10 n=42 v=100
19020 On ch=10 n=42 v=0
19020 On ch=10 n=36 v=0
19020 On ch=10 n=42 v=100
19080 On ch=10 n=42 v=0
19080 On ch=10 n=39 v=100
19080 On ch=10 n=38 v=100
19110 On ch=10 n=69 v=75
19140 On ch=10 n=69 v=0
19140 On ch=10 n=38 v=0
19140 On ch=10 n=39 v=0
19170 On ch=10 n=69 v=75
19200 On ch=10 n=69 v=0
19200 On ch=10 n=36 v=100
19200 On ch=10 n=69 v=63
19230 On ch=10 n=69 v=0
19260 On ch=10 n=36 v=0
19260 On ch=10 n=42 v=100
19320 On ch=10 n=42 v=0
19320 On ch=10 n=38 v=100
19320 On ch=10 n=39 v=100
19380 On ch=10 n=39 v=0
19380 On ch=10 n=38 v=0
19380 On ch=10 n=36 v=100
19380 On ch=10 n=42 v=100
19440 On ch=10 n=42 v=0
19440 On ch=10 n=36 v=0
19440 On ch=10 n=36 v=100
19440 On ch=10 n=42 v=100
19500 On ch=10 n=42 v=0
19500 On ch=10 n=36 v=0
19500 On ch=10 n=42 v=100
19560 On ch=10 n=42 v=0
19560 On ch=10 n=39 v=100
19560 On ch=10 n=38 v=100
19560 On ch=10 n=69 v=64
19590 On ch=10 n=69 v=0
19590 On ch=10 n=69 v=75
19620 On ch=10 n=69 v=0
19620 On ch=10 n=38 v=0
19620 On ch=10 n=39 v=0
19620 On ch=10 n=69 v=63
19650 On ch=10 n=69 v=0
19650 On ch=10 n=69 v=75
19680 On ch=10 n=69 v=0
19680 On ch=10 n=42 v=100
19680 On ch=10 n=36 v=100
19740 On ch=10 n=36 v=0
19740 On ch=10 n=42 v=0
19740 On ch=10 n=42 v=100
19800 On ch=10 n=42 v=0
19800 On ch=10 n=39 v=100
19800 On ch=10 n=38 v=100
19860 On ch=10 n=38 v=0
19860 On ch=10 n=39 v=0
19860 On ch=10 n=36 v=100
19860 On ch=10 n=42 v=100
19920 On ch=10 n=42 v=0
19920 On ch=10 n=36 v=0
19920 On ch=10 n=42 v=100
19920 On ch=10 n=36 v=100
19980 On ch=10 n=36 v=0
19980 On ch=10 n=42 v=0
19980 On ch=10 n=42 v=100
20040 On ch=10 n=42 v=0
20040 On ch=10 n=38 v=100
20040 On ch=10 n=69 v=64
20040 On ch=10 n=39 v=100
20070 On ch=10 n=69 v=0
20070 On ch=10 n=69 v=75
20100 On ch=10 n=69 v=0
20100 On ch=10 n=39 v=0
20100 On ch=10 n=38 v=0
20100 On ch=10 n=69 v=63
20130 On ch=10 n=69 v=0
20130 On ch=10 n=69 v=75
20160 On ch=10 n=69 v=0
20160 On ch=10 n=36 v=100
20160 On ch=10 n=69 v=63
20190 On ch=10 n=69 v=0
20220 On ch=10 n=36 v=0
20220 On ch=10 n=42 v=100
20280 On ch=10 n=42 v=0
20280 On ch=10 n=38 v=100
20280 On ch=10 n=39 v=100
20340 On ch=10 n=39 v=0
20340 On ch=10 n=38 v=0
20340 On ch=10 n=42 v=100
20340 On ch=10 n=36 v=100
20400 On ch=10 n=36 v=0
20400 On ch=10 n=42 v=0
20400 On ch=10 n=36 v=100
20400 On ch=10 n=42 v=100
20460 On ch=10 n=42 v=0
20460 On ch=10 n=36 v=0
20460 On ch=10 n=42 v=100
20520 On ch=10 n=42 v=0
20520 On ch=10 n=39 v=100
20520 On ch=10 n=38 v=100
20520 On ch=10 n=69 v=64
20550 On ch=10 n=69 v=0
20550 On ch=10 n=69 v=75
20580 On ch=10 n=69 v=0
20580 On ch=10 n=38 v=0
20580 On ch=10 n=39 v=0
20580 On ch=10 n=69 v=63
20610 On ch=10 n=69 v=0
20610 On ch=10 n=69 v=75
20640 On ch=10 n=69 v=0
20640 On ch=10 n=69 v=63
20640 On ch=10 n=36 v=100
20670 On ch=10 n=69 v=0
20700 On ch=10 n=36 v=0
20700 On ch=10 n=42 v=100
20760 On ch=10 n=42 v=0
20760 On ch=10 n=38 v=100
20760 On ch=10 n=39 v=100
20820 On ch=10 n=39 v=0
20820 On ch=10 n=38 v=0
20820 On ch=10 n=42 v=100
20820 On ch=10 n=36 v=100
20880 On ch=10 n=36 v=0
20880 On ch=10 n=42 v=0
20880 On ch=10 n=42 v=100
20880 On ch=10 n=36 v=100
20940 On ch=10 n=36 v=0
20940 On ch=10 n=42 v=0
20940 On ch=10 n=42 v=100
21000 On ch=10 n=42 v=0
21000 On ch=10 n=38 v=100
21000 On ch=10 n=39 v=100
21030 On ch=10 n=69 v=75
21060 On ch=10 n=69 v=0
21060 On ch=10 n=39 v=0
21060 On ch=10 n=38 v=0
21090 On ch=10 n=69 v=75
21120 On ch=10 n=69 v=0
21120 On ch=10 n=36 v=100
21120 On ch=10 n=69 v=63
21150 On ch=10 n=69 v=0
21180 On ch=10 n=36 v=0
21180 On ch=10 n=42 v=100
21240 On ch=10 n=42 v=0
21240 On ch=10 n=39 v=100
21240 On ch=10 n=38 v=100
21300 On ch=10 n=38 v=0
21300 On ch=10 n=39 v=0
21300 On ch=10 n=36 v=100
21300 On ch=10 n=42 v=100
21360 On ch=10 n=42 v=0
21360 On ch=10 n=36 v=0
21360 On ch=10 n=42 v=100
21360 On ch=10 n=36 v=100
21420 On ch=10 n=36 v=0
21420 On ch=10 n=42 v=0
21420 On ch=10 n=42 v=100
21480 On ch=10 n=42 v=0
21480 On ch=10 n=39 v=100
21480 On ch=10 n=38 v=100
21480 On ch=10 n=69 v=64
21510 On ch=10 n=69 v=0
21510 On ch=10 n=69 v=75
21540 On ch=10 n=69 v=0
21540 On ch=10 n=38 v=0
21540 On ch=10 n=39 v=0
21540 On ch=10 n=69 v=63
21570 On ch=10 n=69 v=0
21570 On ch=10 n=69 v=75
21600 On ch=10 n=69 v=0
21600 On ch=10 n=42 v=100
21600 On ch=10 n=36 v=100
21660 On ch=10 n=36 v=0
21660 On ch=10 n=42 v=0
21660 On ch=10 n=42 v=100
21720 On ch=10 n=42 v=0
21720 On ch=10 n=39 v=100
21720 On ch=10 n=38 v=100
21780 On ch=10 n=38 v=0
21780 On ch=10 n=39 v=0
21780 On ch=10 n=36 v=100
21780 On ch=10 n=42 v=100
21840 On ch=10 n=42 v=0
21840 On ch=10 n=36 v=0
21840 On ch=10 n=42 v=100
21840 On ch=10 n=36 v=100
21900 On ch=10 n=36 v=0
21900 On ch=10 n=42 v=0
21900 On ch=10 n=42 v=100
21960 On ch=10 n=42 v=0
21960 On ch=10 n=38 v=100
21960 On ch=10 n=69 v=64
21960 On ch=10 n=39 v=100
21990 On ch=10 n=69 v=0
21990 On ch=10 n=69 v=75
22020 On ch=10 n=69 v=0
22020 On ch=10 n=39 v=0
22020 On ch=10 n=38 v=0
22020 On ch=10 n=69 v=63
22050 On ch=10 n=69 v=0
22050 On ch=10 n=69 v=75
22080 On ch=10 n=69 v=0
22080 On ch=10 n=69 v=63
22080 On ch=10 n=36 v=100
22110 On ch=10 n=69 v=0
22140 On ch=10 n=36 v=0
22140 On ch=10 n=42 v=100
22200 On ch=10 n=42 v=0
22200 On ch=10 n=39 v=100
22200 On ch=10 n=38 v=100
22260 On ch=10 n=38 v=0
22260 On ch=10 n=39 v=0
22260 On ch=10 n=42 v=100
22260 On ch=10 n=36 v=100
22320 On ch=10 n=36 v=0
22320 On ch=10 n=42 v=0
22320 On ch=10 n=36 v=100
22320 On ch=10 n=42 v=100
22380 On ch=10 n=42 v=0
22380 On ch=10 n=36 v=0
22380 On ch=10 n=42 v=100
22440 On ch=10 n=42 v=0
22440 On ch=10 n=69 v=64
22440 On ch=10 n=39 v=100
22440 On ch=10 n=38 v=100
22470 On ch=10 n=69 v=0
22470 On ch=10 n=69 v=75
22500 On ch=10 n=69 v=0
22500 On ch=10 n=38 v=0
22500 On ch=10 n=39 v=0
22500 On ch=10 n=69 v=63
22530 On ch=10 n=69 v=0
22530 On ch=10 n=69 v=75
22560 On ch=10 n=69 v=0
22560 On ch=10 n=69 v=63
22560 On ch=10 n=36 v=100
22590 On ch=10 n=69 v=0
22620 On ch=10 n=36 v=0
22620 On ch=10 n=42 v=100
22680 On ch=10 n=42 v=0
22680 On ch=10 n=38 v=100
22680 On ch=10 n=39 v=100
22740 On ch=10 n=39 v=0
22740 On ch=10 n=38 v=0
22740 On ch=10 n=36 v=100
22740 On ch=10 n=42 v=100
22800 On ch=10 n=42 v=0
22800 On ch=10 n=36 v=0
22800 On ch=10 n=42 v=100
22800 On ch=10 n=36 v=100
22860 On ch=10 n=36 v=0
22860 On ch=10 n=42 v=0
22860 On ch=10 n=42 v=100
22920 On ch=10 n=42 v=0
22920 On ch=10 n=38 v=100
22920 On ch=10 n=39 v=100
22950 On ch=10 n=69 v=75
22980 On ch=10 n=69 v=0
22980 On ch=10 n=39 v=0
22980 On ch=10 n=38 v=0
23010 On ch=10 n=69 v=75
23040 On ch=10 n=69 v=0
23040 On ch=10 n=69 v=63
23040 On ch=10 n=36 v=100
23070 On ch=10 n=69 v=0
23100 On ch=10 n=36 v=0
23100 On ch=10 n=42 v=100
23160 On ch=10 n=42 v=0
23160 On ch=10 n=39 v=100
23160 On ch=10 n=38 v=100
23220 On ch=10 n=38 v=0
23220 On ch=10 n=39 v=0
23220 On ch=10 n=42 v=100
23220 On ch=10 n=36 v=100
23280 On ch=10 n=36 v=0
23280 On ch=10 n=42 v=0
23280 On ch=10 n=36 v=100
23280 On ch=10 n=42 v=100
23340 On ch=10 n=42 v=0
23340 On ch=10 n=36 v=0
23340 On ch=10 n=42 v=100
23400 On ch=10 n=42 v=0
23400 On ch=10 n=69 v=64
23400 On ch=10 n=39 v=100
23400 On ch=10 n=38 v=100
23430 On ch=10 n=69 v=0
23430 On ch=10 n=69 v=75
23460 On ch=10 n=69 v=0
23460 On ch=10 n=38 v=0
23460 On ch=10 n=39 v=0
23460 On ch=10 n=46 v=100
23520 On ch=10 n=46 v=0
23520 On ch=10 n=49 v=100
23520 On ch=10 n=36 v=100
23520 On ch=10 n=42 v=100
23580 On ch=10 n=42 v=0
23580 On ch=10 n=36 v=0
23580 On ch=10 n=49 v=0
23580 On ch=10 n=42 v=100
23640 On ch=10 n=42 v=0
23640 On ch=10 n=38 v=100
23640 On ch=10 n=39 v=100
23700 On ch=10 n=39 v=0
23700 On ch=10 n=38 v=0
23700 On ch=10 n=36 v=100
23700 On ch=10 n=42 v=100
23760 On ch=10 n=42 v=0
23760 On ch=10 n=36 v=0
23760 On ch=10 n=42 v=100
23760 On ch=10 n=36 v=100
23820 On ch=10 n=36 v=0
23820 On ch=10 n=42 v=0
23820 On ch=10 n=42 v=100
23880 On ch=10 n=42 v=0
23880 On ch=10 n=39 v=100
23880 On ch=10 n=38 v=100
23880 On ch=10 n=69 v=64
23910 On ch=10 n=69 v=0
23910 On ch=10 n=69 v=75
23940 On ch=10 n=69 v=0
23940 On ch=10 n=38 v=0
23940 On ch=10 n=39 v=0
23940 On ch=10 n=69 v=63
23970 On ch=10 n=69 v=0
23970 On ch=10 n=69 v=75
24000 On ch=10 n=69 v=0
24000 On ch=10 n=69 v=63
24000 On ch=10 n=36 v=100
24030 On ch=10 n=69 v=0
24060 On ch=10 n=36 v=0
24060 On ch=10 n=42 v=100
24120 On ch=10 n=42 v=0
24120 On ch=10 n=39 v=100
24120 On ch=10 n=38 v=100
24180 On ch=10 n=38 v=0
24180 On ch=10 n=39 v=0
24180 On ch=10 n=36 v=100
24180 On ch=10 n=42 v=100
24240 On ch=10 n=42 v=0
24240 On ch=10 n=36 v=0
24240 On ch=10 n=36 v=100
24240 On ch=10 n=42 v=100
24300 On ch=10 n=42 v=0
24300 On ch=10 n=36 v=0
24300 On ch=10 n=42 v=100
24360 On ch=10 n=42 v=0
24360 On ch=10 n=69 v=64
24360 On ch=10 n=38 v=100
24360 On ch=10 n=39 v=100
24390 On ch=10 n=69 v=0
24390 On ch=10 n=69 v=75
24420 On ch=10 n=69 v=0
24420 On ch=10 n=39 v=0
24420 On ch=10 n=38 v=0
24420 On ch=10 n=69 v=63
24450 On ch=10 n=69 v=0
24450 On ch=10 n=69 v=75
24480 On ch=10 n=69 v=0
24480 On ch=10 n=69 v=63
24480 On ch=10 n=36 v=100
24510 On ch=10 n=69 v=0
24540 On ch=10 n=36 v=0
24540 On ch=10 n=42 v=100
24600 On ch=10 n=42 v=0
24600 On ch=10 n=39 v=100
24600 On ch=10 n=38 v=100
24660 On ch=10 n=38 v=0
24660 On ch=10 n=39 v=0
24660 On ch=10 n=42 v=100
24660 On ch=10 n=36 v=100
24720 On ch=10 n=36 v=0
24720 On ch=10 n=42 v=0
24720 On ch=10 n=36 v=100
24720 On ch=10 n=42 v=100
24780 On ch=10 n=42 v=0
24780 On ch=10 n=36 v=0
24780 On ch=10 n=42 v=100
24840 On ch=10 n=42 v=0
24840 On ch=10 n=38 v=100
24840 On ch=10 n=39 v=100
24870 On ch=10 n=69 v=75
24900 On ch=10 n=69 v=0
24900 On ch=10 n=39 v=0
24900 On ch=10 n=38 v=0
24930 On ch=10 n=69 v=75
24960 On ch=10 n=69 v=0
24960 On ch=10 n=36 v=100
24960 On ch=10 n=69 v=63
24990 On ch=10 n=69 v=0
25020 On ch=10 n=36 v=0
25020 On ch=10 n=42 v=100
25080 On ch=10 n=42 v=0
25080 On ch=10 n=38 v=100
25080 On ch=10 n=39 v=100
25140 On ch=10 n=39 v=0
25140 On ch=10 n=38 v=0
25140 On ch=10 n=42 v=100
25140 On ch=10 n=36 v=100
25200 On ch=10 n=36 v=0
25200 On ch=10 n=42 v=0
25200 On ch=10 n=42 v=100
25200 On ch=10 n=36 v=100
25260 On ch=10 n=36 v=0
25260 On ch=10 n=42 v=0
25260 On ch=10 n=42 v=100
25320 On ch=10 n=42 v=0
25320 On ch=10 n=69 v=64
25320 On ch=10 n=38 v=100
25320 On ch=10 n=39 v=100
25350 On ch=10 n=69 v=0
25350 On ch=10 n=69 v=75
25380 On ch=10 n=69 v=0
25380 On ch=10 n=39 v=0
25380 On ch=10 n=38 v=0
25380 On ch=10 n=69 v=63
25410 On ch=10 n=69 v=0
25410 On ch=10 n=69 v=75
25440 On ch=10 n=69 v=0
25440 On ch=10 n=36 v=100
25440 On ch=10 n=42 v=100
25500 On ch=10 n=42 v=0
25500 On ch=10 n=36 v=0
25500 On ch=10 n=42 v=100
25560 On ch=10 n=42 v=0
25560 On ch=10 n=38 v=100
25560 On ch=10 n=39 v=100
25620 On ch=10 n=39 v=0
25620 On ch=10 n=38 v=0
25620 On ch=10 n=36 v=100
25620 On ch=10 n=42 v=100
25680 On ch=10 n=42 v=0
25680 On ch=10 n=36 v=0
25680 On ch=10 n=36 v=100
25680 On ch=10 n=42 v=100
25740 On ch=10 n=42 v=0
25740 On ch=10 n=36 v=0
25740 On ch=10 n=42 v=100
25800 On ch=10 n=42 v=0
25800 On ch=10 n=69 v=64
25800 On ch=10 n=39 v=100
25800 On ch=10 n=38 v=100
25830 On ch=10 n=69 v=0
25830 On ch=10 n=69 v=75
25860 On ch=10 n=69 v=0
25860 On ch=10 n=38 v=0
25860 On ch=10 n=39 v=0
25860 On ch=10 n=69 v=63
25890 On ch=10 n=69 v=0
25890 On ch=10 n=69 v=75
25920 On ch=10 n=69 v=0
25920 On ch=10 n=69 v=63
25920 On ch=10 n=36 v=100
25950 On ch=10 n=69 v=0
25980 On ch=10 n=36 v=0
25980 On ch=10 n=42 v=100
26040 On ch=10 n=42 v=0
26040 On ch=10 n=39 v=100
26040 On ch=10 n=38 v=100
26100 On ch=10 n=38 v=0
26100 On ch=10 n=39 v=0
26100 On ch=10 n=36 v=100
26100 On ch=10 n=42 v=100
26160 On ch=10 n=42 v=0
26160 On ch=10 n=36 v=0
26160 On ch=10 n=36 v=100
26160 On ch=10 n=42 v=100
26220 On ch=10 n=42 v=0
26220 On ch=10 n=36 v=0
26220 On ch=10 n=42 v=100
26280 On ch=10 n=42 v=0
26280 On ch=10 n=39 v=100
26280 On ch=10 n=69 v=64
26280 On ch=10 n=38 v=100
26310 On ch=10 n=69 v=0
26310 On ch=10 n=69 v=75
26340 On ch=10 n=69 v=0
26340 On ch=10 n=38 v=0
26340 On ch=10 n=39 v=0
26340 On ch=10 n=69 v=63
26370 On ch=10 n=69 v=0
26370 On ch=10 n=69 v=75
26400 On ch=10 n=69 v=0
26400 On ch=10 n=69 v=63
26400 On ch=10 n=36 v=100
26430 On ch=10 n=69 v=0
26460 On ch=10 n=36 v=0
26460 On ch=10 n=42 v=100
26520 On ch=10 n=42 v=0
26520 On ch=10 n=38 v=100
26520 On ch=10 n=39 v=100
26580 On ch=10 n=39 v=0
26580 On ch=10 n=38 v=0
26580 On ch=10 n=36 v=100
26580 On ch=10 n=42 v=100
26640 On ch=10 n=42 v=0
26640 On ch=10 n=36 v=0
26640 On ch=10 n=36 v=100
26640 On ch=10 n=42 v=100
26700 On ch=10 n=42 v=0
26700 On ch=10 n=36 v=0
26700 On ch=10 n=42 v=100
26760 On ch=10 n=42 v=0
26760 On ch=10 n=38 v=100
26760 On ch=10 n=39 v=100
26790 On ch=10 n=69 v=75
26820 On ch=10 n=69 v=0
26820 On ch=10 n=39 v=0
26820 On ch=10 n=38 v=0
26850 On ch=10 n=69 v=75
26880 On ch=10 n=69 v=0
26880 On ch=10 n=36 v=100
26880 On ch=10 n=69 v=63
26910 On ch=10 n=69 v=0
26940 On ch=10 n=36 v=0
26940 On ch=10 n=42 v=100
27000 On ch=10 n=42 v=0
27000 On ch=10 n=39 v=100
27000 On ch=10 n=38 v=100
27060 On ch=10 n=38 v=0
27060 On ch=10 n=39 v=0
27060 On ch=10 n=36 v=100
27060 On ch=10 n=42 v=100
27120 On ch=10 n=42 v=0
27120 On ch=10 n=36 v=0
27120 On ch=10 n=36 v=100
27120 On ch=10 n=42 v=100
27180 On ch=10 n=42 v=0
27180 On ch=10 n=36 v=0
27180 On ch=10 n=42 v=100
27240 On ch=10 n=42 v=0
27240 On ch=10 n=39 v=100
27240 On ch=10 n=69 v=64
27240 On ch=10 n=38 v=100
27270 On ch=10 n=69 v=0
27270 On ch=10 n=69 v=75
27300 On ch=10 n=69 v=0
27300 On ch=10 n=38 v=0
27300 On ch=10 n=39 v=0
27300 On ch=10 n=69 v=63
27330 On ch=10 n=69 v=0
27330 On ch=10 n=69 v=75
27360 On ch=10 n=69 v=0
27360 On ch=10 n=42 v=100
27360 On ch=10 n=36 v=100
27420 On ch=10 n=36 v=0
27420 On ch=10 n=42 v=0
27420 On ch=10 n=42 v=100
27480 On ch=10 n=42 v=0
27480 On ch=10 n=38 v=100
27480 On ch=10 n=39 v=100
27540 On ch=10 n=39 v=0
27540 On ch=10 n=38 v=0
27540 On ch=10 n=42 v=100
27540 On ch=10 n=36 v=100
27600 On ch=10 n=36 v=0
27600 On ch=10 n=42 v=0
27600 On ch=10 n=36 v=100
27600 On ch=10 n=42 v=100
27660 On ch=10 n=42 v=0
27660 On ch=10 n=36 v=0
27660 On ch=10 n=42 v=100
27720 On ch=10 n=42 v=0
27720 On ch=10 n=38 v=100
27720 On ch=10 n=39 v=100
27720 On ch=10 n=69 v=64
27750 On ch=10 n=69 v=0
27750 On ch=10 n=69 v=75
27780 On ch=10 n=69 v=0
27780 On ch=10 n=39 v=0
27780 On ch=10 n=38 v=0
27780 On ch=10 n=69 v=63
27810 On ch=10 n=69 v=0
27810 On ch=10 n=69 v=75
27840 On ch=10 n=69 v=0
27840 On ch=10 n=36 v=100
27840 On ch=10 n=69 v=63
27870 On ch=10 n=69 v=0
27900 On ch=10 n=36 v=0
27900 On ch=10 n=42 v=100
27960 On ch=10 n=42 v=0
27960 On ch=10 n=39 v=100
27960 On ch=10 n=38 v=100
28020 On ch=10 n=38 v=0
28020 On ch=10 n=39 v=0
28020 On ch=10 n=36 v=100
28020 On ch=10 n=42 v=100
28080 On ch=10 n=42 v=0
28080 On ch=10 n=36 v=0
28080 On ch=10 n=42 v=100
28080 On ch=10 n=36 v=100
28140 On ch=10 n=36 v=0
28140 On ch=10 n=42 v=0
28140 On ch=10 n=42 v=100
28200 On ch=10 n=42 v=0
28200 On ch=10 n=38 v=100
28200 On ch=10 n=39 v=100
28200 On ch=10 n=69 v=64
28230 On ch=10 n=69 v=0
28230 On ch=10 n=69 v=75
28260 On ch=10 n=69 v=0
28260 On ch=10 n=39 v=0
28260 On ch=10 n=38 v=0
28260 On ch=10 n=69 v=63
28290 On ch=10 n=69 v=0
28290 On ch=10 n=69 v=75
28320 On ch=10 n=69 v=0
28320 On ch=10 n=69 v=63
28320 On ch=10 n=36 v=100
28350 On ch=10 n=69 v=0
28380 On ch=10 n=36 v=0
28380 On ch=10 n=42 v=100
28440 On ch=10 n=42 v=0
28440 On ch=10 n=38 v=100
28440 On ch=10 n=39 v=100
28500 On ch=10 n=39 v=0
28500 On ch=10 n=38 v=0
28500 On ch=10 n=36 v=100
28500 On ch=10 n=42 v=100
28560 On ch=10 n=42 v=0
28560 On ch=10 n=36 v=0
28560 On ch=10 n=42 v=100
28560 On ch=10 n=36 v=100
28620 On ch=10 n=36 v=0
28620 On ch=10 n=42 v=0
28620 On ch=10 n=42 v=100
28680 On ch=10 n=42 v=0
28680 On ch=10 n=39 v=100
28680 On ch=10 n=38 v=100
28710 On ch=10 n=69 v=75
28740 On ch=10 n=69 v=0
28740 On ch=10 n=38 v=0
28740 On ch=10 n=39 v=0
28770 On ch=10 n=69 v=75
28800 On ch=10 n=69 v=0
28800 On ch=10 n=69 v=63
28800 On ch=10 n=36 v=100
28830 On ch=10 n=69 v=0
28860 On ch=10 n=36 v=0
28860 On ch=10 n=42 v=100
28920 On ch=10 n=42 v=0
28920 On ch=10 n=38 v=100
28920 On ch=10 n=39 v=100
28980 On ch=10 n=39 v=0
28980 On ch=10 n=38 v=0
28980 On ch=10 n=36 v=100
28980 On ch=10 n=42 v=100
29040 On ch=10 n=42 v=0
29040 On ch=10 n=36 v=0
29040 On ch=10 n=36 v=100
29040 On ch=10 n=42 v=100
29100 On ch=10 n=42 v=0
29100 On ch=10 n=36 v=0
29100 On ch=10 n=42 v=100
29160 On ch=10 n=42 v=0
29160 On ch=10 n=69 v=64
29160 On ch=10 n=38 v=100
29160 On ch=10 n=39 v=100
29190 On ch=10 n=69 v=0
29190 On ch=10 n=69 v=75
29220 On ch=10 n=69 v=0
29220 On ch=10 n=39 v=0
29220 On ch=10 n=38 v=0
29220 On ch=10 n=69 v=63
29250 On ch=10 n=69 v=0
29250 On ch=10 n=69 v=75
29280 On ch=10 n=69 v=0
29280 On ch=10 n=42 v=100
29280 On ch=10 n=49 v=100
29340 On ch=10 n=49 v=0
29340 On ch=10 n=42 v=0
29340 On ch=10 n=42 v=100
29400 On ch=10 n=42 v=0
29400 On ch=10 n=38 v=100
29400 On ch=10 n=39 v=100
29460 On ch=10 n=39 v=0
29460 On ch=10 n=38 v=0
29460 On ch=10 n=42 v=100
29520 On ch=10 n=42 v=0
29520 On ch=10 n=42 v=100
29580 On ch=10 n=42 v=0
29580 On ch=10 n=42 v=100
29640 On ch=10 n=42 v=0
29640 On ch=10 n=39 v=100
29640 On ch=10 n=38 v=100
29640 On ch=10 n=69 v=64
29670 On ch=10 n=69 v=0
29670 On ch=10 n=69 v=75
29700 On ch=10 n=69 v=0
29700 On ch=10 n=38 v=0
29700 On ch=10 n=39 v=0
29700 On ch=10 n=69 v=63
29730 On ch=10 n=69 v=0
29730 On ch=10 n=69 v=75
29760 On ch=10 n=69 v=0
29760 On ch=10 n=69 v=63
29790 On ch=10 n=69 v=0
29820 On ch=10 n=42 v=100
29880 On ch=10 n=42 v=0
29880 On ch=10 n=39 v=100
29880 On ch=10 n=38 v=100
29940 On ch=10 n=38 v=0
29940 On ch=10 n=39 v=0
29940 On ch=10 n=42 v=100
30000 On ch=10 n=42 v=0
30000 On ch=10 n=42 v=100
30060 On ch=10 n=42 v=0
30060 On ch=10 n=42 v=100
30120 On ch=10 n=42 v=0
30120 On ch=10 n=69 v=64
30120 On ch=10 n=39 v=100
30120 On ch=10 n=38 v=100
30150 On ch=10 n=69 v=0
30150 On ch=10 n=69 v=75
30180 On ch=10 n=69 v=0
30180 On ch=10 n=38 v=0
30180 On ch=10 n=39 v=0
30180 On ch=10 n=69 v=63
30210 On ch=10 n=69 v=0
30210 On ch=10 n=69 v=75
30240 On ch=10 n=69 v=0
30240 On ch=10 n=36 v=100
30240 On ch=10 n=69 v=63
30270 On ch=10 n=69 v=0
30300 On ch=10 n=36 v=0
30300 On ch=10 n=42 v=100
30360 On ch=10 n=42 v=0
30360 On ch=10 n=38 v=100
30360 On ch=10 n=39 v=100
30420 On ch=10 n=39 v=0
30420 On ch=10 n=38 v=0
30420 On ch=10 n=42 v=100
30480 On ch=10 n=42 v=0
30480 On ch=10 n=36 v=100
30480 On ch=10 n=42 v=100
30540 On ch=10 n=42 v=0
30540 On ch=10 n=36 v=0
30540 On ch=10 n=42 v=100
30600 On ch=10 n=42 v=0
30600 On ch=10 n=39 v=100
30600 On ch=10 n=38 v=100
30630 On ch=10 n=69 v=75
30660 On ch=10 n=69 v=0
30660 On ch=10 n=38 v=0
30660 On ch=10 n=39 v=0
30690 On ch=10 n=69 v=75
30720 On ch=10 n=69 v=0
30720 On ch=10 n=36 v=100
30720 On ch=10 n=69 v=63
30750 On ch=10 n=69 v=0
30780 On ch=10 n=36 v=0
30780 On ch=10 n=42 v=100
30840 On ch=10 n=42 v=0
30840 On ch=10 n=39 v=100
30840 On ch=10 n=38 v=100
30900 On ch=10 n=38 v=0
30900 On ch=10 n=39 v=0
30900 On ch=10 n=42 v=100
30900 On ch=10 n=36 v=100
30960 On ch=10 n=36 v=0
30960 On ch=10 n=42 v=0
30960 On ch=10 n=36 v=100
30960 On ch=10 n=42 v=100
31020 On ch=10 n=42 v=0
31020 On ch=10 n=36 v=0
31020 On ch=10 n=42 v=100
31080 On ch=10 n=42 v=0
31080 On ch=10 n=69 v=64
31080 On ch=10 n=38 v=100
31080 On ch=10 n=39 v=100
31110 On ch=10 n=69 v=0
31110 On ch=10 n=69 v=75
31140 On ch=10 n=69 v=0
31140 On ch=10 n=39 v=0
31140 On ch=10 n=38 v=0
31140 On ch=10 n=69 v=63
31170 On ch=10 n=69 v=0
31170 On ch=10 n=69 v=75
31200 On ch=10 n=69 v=0
31200 On ch=10 n=42 v=100
31200 On ch=10 n=36 v=100
31260 On ch=10 n=36 v=0
31260 On ch=10 n=42 v=0
31260 On ch=10 n=42 v=100
31320 On ch=10 n=42 v=0
31320 On ch=10 n=39 v=100
31320 On ch=10 n=38 v=100
31380 On ch=10 n=38 v=0
31380 On ch=10 n=39 v=0
31380 On ch=10 n=36 v=100
31380 On ch=10 n=42 v=100
31440 On ch=10 n=42 v=0
31440 On ch=10 n=36 v=0
31440 On ch=10 n=36 v=100
31440 On ch=10 n=42 v=100
31500 On ch=10 n=42 v=0
31500 On ch=10 n=36 v=0
31500 On ch=10 n=42 v=100
31560 On ch=10 n=42 v=0
31560 On ch=10 n=69 v=64
31560 On ch=10 n=38 v=100
31560 On ch=10 n=39 v=100
31590 On ch=10 n=69 v=0
31590 On ch=10 n=69 v=75
31620 On ch=10 n=69 v=0
31620 On ch=10 n=39 v=0
31620 On ch=10 n=38 v=0
31620 On ch=10 n=69 v=63
31650 On ch=10 n=69 v=0
31650 On ch=10 n=69 v=75
31680 On ch=10 n=69 v=0
31680 On ch=10 n=69 v=63
31680 On ch=10 n=36 v=100
31710 On ch=10 n=69 v=0
31740 On ch=10 n=36 v=0
31740 On ch=10 n=42 v=100
31800 On ch=10 n=42 v=0
31800 On ch=10 n=38 v=100
31800 On ch=10 n=39 v=100
31860 On ch=10 n=39 v=0
31860 On ch=10 n=38 v=0
31860 On ch=10 n=36 v=100
31860 On ch=10 n=42 v=100
31920 On ch=10 n=42 v=0
31920 On ch=10 n=36 v=0
31920 On ch=10 n=36 v=100
31920 On ch=10 n=42 v=100
31980 On ch=10 n=42 v=0
31980 On ch=10 n=36 v=0
31980 On ch=10 n=42 v=100
32040 On ch=10 n=42 v=0
32040 On ch=10 n=38 v=100
32040 On ch=10 n=69 v=64
32040 On ch=10 n=39 v=100
32070 On ch=10 n=69 v=0
32070 On ch=10 n=69 v=75
32100 On ch=10 n=69 v=0
32100 On ch=10 n=39 v=0
32100 On ch=10 n=38 v=0
32100 On ch=10 n=69 v=63
32130 On ch=10 n=69 v=0
32130 On ch=10 n=69 v=75
32160 On ch=10 n=69 v=0
32160 On ch=10 n=69 v=63
32160 On ch=10 n=36 v=100
32190 On ch=10 n=69 v=0
32220 On ch=10 n=36 v=0
32220 On ch=10 n=42 v=100
32280 On ch=10 n=42 v=0
32280 On ch=10 n=38 v=100
32280 On ch=10 n=39 v=100
32340 On ch=10 n=39 v=0
32340 On ch=10 n=38 v=0
32340 On ch=10 n=36 v=100
32340 On ch=10 n=42 v=100
32400 On ch=10 n=42 v=0
32400 On ch=10 n=36 v=0
32400 On ch=10 n=42 v=100
32400 On ch=10 n=36 v=100
32460 On ch=10 n=36 v=0
32460 On ch=10 n=42 v=0
32460 On ch=10 n=42 v=100
32520 On ch=10 n=42 v=0
32520 On ch=10 n=39 v=100
32520 On ch=10 n=38 v=100
32550 On ch=10 n=69 v=75
32580 On ch=10 n=69 v=0
32580 On ch=10 n=38 v=0
32580 On ch=10 n=39 v=0
32610 On ch=10 n=69 v=75
32640 On ch=10 n=69 v=0
32640 On ch=10 n=69 v=63
32640 On ch=10 n=36 v=100
32670 On ch=10 n=69 v=0
32700 On ch=10 n=36 v=0
32700 On ch=10 n=42 v=100
32760 On ch=10 n=42 v=0
32760 On ch=10 n=38 v=100
32760 On ch=10 n=39 v=100
32820 On ch=10 n=39 v=0
32820 On ch=10 n=38 v=0
32820 On ch=10 n=36 v=100
32820 On ch=10 n=42 v=100
32880 On ch=10 n=42 v=0
32880 On ch=10 n=36 v=0
32880 On ch=10 n=36 v=100
32880 On ch=10 n=42 v=100
32940 On ch=10 n=42 v=0
32940 On ch=10 n=36 v=0
32940 On ch=10 n=42 v=100
33000 On ch=10 n=42 v=0
33000 On ch=10 n=38 v=100
33000 On ch=10 n=39 v=100
33000 On ch=10 n=69 v=64
33030 On ch=10 n=69 v=0
33030 On ch=10 n=69 v=75
33060 On ch=10 n=69 v=0
33060 On ch=10 n=39 v=0
33060 On ch=10 n=38 v=0
33060 On ch=10 n=69 v=63
33090 On ch=10 n=69 v=0
33090 On ch=10 n=69 v=75
33120 On ch=10 n=69 v=0
33120 On ch=10 n=42 v=100
33120 On ch=10 n=36 v=100
33120 On ch=10 n=49 v=100
33180 On ch=10 n=36 v=0
33180 On ch=10 n=42 v=0
33180 On ch=10 n=42 v=100
33240 On ch=10 n=42 v=0
33240 On ch=10 n=49 v=0
33240 On ch=10 n=39 v=100
33240 On ch=10 n=38 v=100
33300 On ch=10 n=38 v=0
33300 On ch=10 n=39 v=0
33300 On ch=10 n=36 v=100
33300 On ch=10 n=42 v=100
33360 On ch=10 n=42 v=0
33360 On ch=10 n=36 v=0
33360 On ch=10 n=36 v=100
33360 On ch=10 n=42 v=100
33420 On ch=10 n=42 v=0
33420 On ch=10 n=36 v=0
33420 On ch=10 n=42 v=100
33480 On ch=10 n=42 v=0
33480 On ch=10 n=39 v=100
33480 On ch=10 n=38 v=100
33480 On ch=10 n=54 v=100
33510 On ch=10 n=69 v=75
33540 On ch=10 n=69 v=0
33540 On ch=10 n=39 v=0
33540 On ch=10 n=38 v=0
33540 On ch=10 n=54 v=0
33540 On ch=10 n=69 v=63
33570 On ch=10 n=69 v=0
33570 On ch=10 n=69 v=75
33600 On ch=10 n=69 v=0
33600 On ch=10 n=36 v=100
33600 On ch=10 n=69 v=63
33630 On ch=10 n=69 v=0
33660 On ch=10 n=36 v=0
33660 On ch=10 n=42 v=100
33720 On ch=10 n=42 v=0
33720 On ch=10 n=39 v=100
33720 On ch=10 n=38 v=100
33780 On ch=10 n=38 v=0
33780 On ch=10 n=39 v=0
33780 On ch=10 n=42 v=100
33780 On ch=10 n=36 v=100
33840 On ch=10 n=36 v=0
33840 On ch=10 n=42 v=0
33840 On ch=10 n=36 v=100
33840 On ch=10 n=42 v=100
33900 On ch=10 n=42 v=0
33900 On ch=10 n=36 v=0
33900 On ch=10 n=42 v=100
33960 On ch=10 n=42 v=0
33960 On ch=10 n=38 v=100
33960 On ch=10 n=54 v=100
33960 On ch=10 n=39 v=100
33990 On ch=10 n=69 v=75
34020 On ch=10 n=69 v=0
34020 On ch=10 n=38 v=0
34020 On ch=10 n=54 v=0
34020 On ch=10 n=39 v=0
34020 On ch=10 n=69 v=63
34050 On ch=10 n=69 v=0
34050 On ch=10 n=69 v=75
34080 On ch=10 n=69 v=0
34080 On ch=10 n=36 v=100
34080 On ch=10 n=69 v=63
34110 On ch=10 n=69 v=0
34140 On ch=10 n=36 v=0
34140 On ch=10 n=42 v=100
34200 On ch=10 n=42 v=0
34200 On ch=10 n=39 v=100
34200 On ch=10 n=38 v=100
34260 On ch=10 n=38 v=0
34260 On ch=10 n=39 v=0
34260 On ch=10 n=42 v=100
34260 On ch=10 n=36 v=100
34320 On ch=10 n=36 v=0
34320 On ch=10 n=42 v=0
34320 On ch=10 n=36 v=100
34320 On ch=10 n=42 v=100
34380 On ch=10 n=42 v=0
34380 On ch=10 n=36 v=0
34380 On ch=10 n=42 v=100
34440 On ch=10 n=42 v=0
34440 On ch=10 n=39 v=100
34440 On ch=10 n=38 v=100
34440 On ch=10 n=54 v=100
34470 On ch=10 n=69 v=75
34500 On ch=10 n=69 v=0
34500 On ch=10 n=39 v=0
34500 On ch=10 n=38 v=0
34500 On ch=10 n=54 v=0
34530 On ch=10 n=69 v=75
34560 On ch=10 n=69 v=0
34560 On ch=10 n=36 v=100
34560 On ch=10 n=69 v=63
34590 On ch=10 n=69 v=0
34620 On ch=10 n=36 v=0
34620 On ch=10 n=42 v=100
34680 On ch=10 n=42 v=0
34680 On ch=10 n=38 v=100
34680 On ch=10 n=39 v=100
34740 On ch=10 n=39 v=0
34740 On ch=10 n=38 v=0
34740 On ch=10 n=42 v=100
34740 On ch=10 n=36 v=100
34800 On ch=10 n=36 v=0
34800 On ch=10 n=42 v=0
34800 On ch=10 n=42 v=100
34800 On ch=10 n=36 v=100
34860 On ch=10 n=36 v=0
34860 On ch=10 n=42 v=0
34860 On ch=10 n=42 v=100
34920 On ch=10 n=42 v=0
34920 On ch=10 n=39 v=100
34920 On ch=10 n=54 v=100
34920 On ch=10 n=38 v=100
34950 On ch=10 n=69 v=75
34980 On ch=10 n=69 v=0
34980 On ch=10 n=39 v=0
34980 On ch=10 n=54 v=0
34980 On ch=10 n=38 v=0
34980 On ch=10 n=69 v=63
35010 On ch=10 n=69 v=0
35010 On ch=10 n=69 v=75
35040 On ch=10 n=69 v=0
35040 On ch=10 n=36 v=100
35040 On ch=10 n=42 v=100
35100 On ch=10 n=42 v=0
35100 On ch=10 n=36 v=0
35100 On ch=10 n=42 v=100
35160 On ch=10 n=42 v=0
35160 On ch=10 n=39 v=100
35160 On ch=10 n=38 v=100
35220 On ch=10 n=38 v=0
35220 On ch=10 n=39 v=0
35220 On ch=10 n=42 v=100
35220 On ch=10 n=36 v=100
35280 On ch=10 n=36 v=0
35280 On ch=10 n=42 v=0
35280 On ch=10 n=36 v=100
35280 On ch=10 n=42 v=100
35340 On ch=10 n=42 v=0
35340 On ch=10 n=36 v=0
35340 On ch=10 n=42 v=100
35400 On ch=10 n=42 v=0
35400 On ch=10 n=54 v=100
35400 On ch=10 n=38 v=100
35400 On ch=10 n=39 v=100
35430 On ch=10 n=69 v=75
35460 On ch=10 n=69 v=0
35460 On ch=10 n=54 v=0
35460 On ch=10 n=38 v=0
35460 On ch=10 n=39 v=0
35460 On ch=10 n=69 v=63
35490 On ch=10 n=69 v=0
35490 On ch=10 n=69 v=75
35520 On ch=10 n=69 v=0
35520 On ch=10 n=69 v=63
35520 On ch=10 n=36 v=100
35550 On ch=10 n=69 v=0
35580 On ch=10 n=36 v=0
35580 On ch=10 n=42 v=100
35640 On ch=10 n=42 v=0
35640 On ch=10 n=39 v=100
35640 On ch=10 n=38 v=100
35700 On ch=10 n=38 v=0
35700 On ch=10 n=39 v=0
35700 On ch=10 n=36 v=100
35700 On ch=10 n=42 v=100
35760 On ch=10 n=42 v=0
35760 On ch=10 n=36 v=0
35760 On ch=10 n=36 v=100
35760 On ch=10 n=42 v=100
35820 On ch=10 n=42 v=0
35820 On ch=10 n=36 v=0
35820 On ch=10 n=42 v=100
35880 On ch=10 n=42 v=0
35880 On ch=10 n=38 v=100
35880 On ch=10 n=39 v=100
35880 On ch=10 n=54 v=100
35910 On ch=10 n=69 v=75
35940 On ch=10 n=69 v=0
35940 On ch=10 n=38 v=0
35940 On ch=10 n=39 v=0
35940 On ch=10 n=54 v=0
35940 On ch=10 n=69 v=63
35970 On ch=10 n=69 v=0
35970 On ch=10 n=69 v=75
36000 On ch=10 n=69 v=0
36000 On ch=10 n=36 v=100
36000 On ch=10 n=69 v=63
36030 On ch=10 n=69 v=0
36060 On ch=10 n=36 v=0
36060 On ch=10 n=42 v=100
36120 On ch=10 n=42 v=0
36120 On ch=10 n=39 v=100
36120 On ch=10 n=38 v=100
36180 On ch=10 n=38 v=0
36180 On ch=10 n=39 v=0
36180 On ch=10 n=42 v=100
36180 On ch=10 n=36 v=100
36240 On ch=10 n=36 v=0
36240 On ch=10 n=42 v=0
36240 On ch=10 n=36 v=100
36240 On ch=10 n=42 v=100
36300 On ch=10 n=42 v=0
36300 On ch=10 n=36 v=0
36300 On ch=10 n=42 v=100
36360 On ch=10 n=42 v=0
36360 On ch=10 n=38 v=100
36360 On ch=10 n=54 v=100
36360 On ch=10 n=39 v=100
36390 On ch=10 n=69 v=75
36420 On ch=10 n=69 v=0
36420 On ch=10 n=38 v=0
36420 On ch=10 n=54 v=0
36420 On ch=10 n=39 v=0
36450 On ch=10 n=69 v=75
36480 On ch=10 n=69 v=0
36480 On ch=10 n=69 v=63
36480 On ch=10 n=36 v=100
36510 On ch=10 n=69 v=0
36540 On ch=10 n=36 v=0
36540 On ch=10 n=42 v=100
36600 On ch=10 n=42 v=0
36600 On ch=10 n=38 v=100
36600 On ch=10 n=39 v=100
36660 On ch=10 n=39 v=0
36660 On ch=10 n=38 v=0
36660 On ch=10 n=42 v=100
36660 On ch=10 n=36 v=100
36720 On ch=10 n=36 v=0
36720 On ch=10 n=42 v=0
36720 On ch=10 n=36 v=100
36720 On ch=10 n=42 v=100
36780 On ch=10 n=42 v=0
36780 On ch=10 n=36 v=0
36780 On ch=10 n=42 v=100
36840 On ch=10 n=42 v=0
36840 On ch=10 n=38 v=100
36840 On ch=10 n=54 v=100
36840 On ch=10 n=39 v=100
36870 On ch=10 n=69 v=75
36900 On ch=10 n=69 v=0
36900 On ch=10 n=38 v=0
36900 On ch=10 n=54 v=0
36900 On ch=10 n=39 v=0
36900 On ch=10 n=69 v=63
36930 On ch=10 n=69 v=0
36930 On ch=10 n=69 v=75
36960 On ch=10 n=69 v=0
36960 On ch=10 n=36 v=100
36960 On ch=10 n=49 v=100
36960 On ch=10 n=42 v=100
37020 On ch=10 n=42 v=0
37020 On ch=10 n=49 v=0
37020 On ch=10 n=36 v=0
37020 On ch=10 n=42 v=100
37080 On ch=10 n=42 v=0
37080 On ch=10 n=39 v=100
37080 On ch=10 n=38 v=100
37140 On ch=10 n=38 v=0
37140 On ch=10 n=39 v=0
37140 On ch=10 n=42 v=100
37140 On ch=10 n=36 v=100
37200 On ch=10 n=36 v=0
37200 On ch=10 n=42 v=0
37200 On ch=10 n=42 v=100
37200 On ch=10 n=36 v=100
37260 On ch=10 n=36 v=0
37260 On ch=10 n=42 v=0
37260 On ch=10 n=42 v=100
37320 On ch=10 n=42 v=0
37320 On ch=10 n=38 v=100
37320 On ch=10 n=69 v=64
37320 On ch=10 n=39 v=100
37350 On ch=10 n=69 v=0
37350 On ch=10 n=69 v=75
37380 On ch=10 n=69 v=0
37380 On ch=10 n=39 v=0
37380 On ch=10 n=38 v=0
37380 On ch=10 n=69 v=63
37410 On ch=10 n=69 v=0
37410 On ch=10 n=69 v=75
37440 On ch=10 n=69 v=0
37440 On ch=10 n=69 v=63
37440 On ch=10 n=36 v=100
37470 On ch=10 n=69 v=0
37500 On ch=10 n=36 v=0
37500 On ch=10 n=42 v=100
37560 On ch=10 n=42 v=0
37560 On ch=10 n=38 v=100
37560 On ch=10 n=39 v=100
37620 On ch=10 n=39 v=0
37620 On ch=10 n=38 v=0
37620 On ch=10 n=42 v=100
37620 On ch=10 n=36 v=100
37680 On ch=10 n=36 v=0
37680 On ch=10 n=42 v=0
37680 On ch=10 n=42 v=100
37680 On ch=10 n=36 v=100
37740 On ch=10 n=36 v=0
37740 On ch=10 n=42 v=0
37740 On ch=10 n=42 v=100
37800 On ch=10 n=42 v=0
37800 On ch=10 n=38 v=100
37800 On ch=10 n=39 v=100
37800 On ch=10 n=69 v=64
37830 On ch=10 n=69 v=0
37830 On ch=10 n=69 v=75
37860 On ch=10 n=69 v=0
37860 On ch=10 n=39 v=0
37860 On ch=10 n=38 v=0
37860 On ch=10 n=69 v=63
37890 On ch=10 n=69 v=0
37890 On ch=10 n=69 v=75
37920 On ch=10 n=69 v=0
37920 On ch=10 n=36 v=100
37920 On ch=10 n=69 v=63
37950 On ch=10 n=69 v=0
37980 On ch=10 n=36 v=0
37980 On ch=10 n=42 v=100
38040 On ch=10 n=42 v=0
38040 On ch=10 n=39 v=100
38040 On ch=10 n=38 v=100
38100 On ch=10 n=38 v=0
38100 On ch=10 n=39 v=0
38100 On ch=10 n=42 v=100
38100 On ch=10 n=36 v=100
38160 On ch=10 n=36 v=0
38160 On ch=10 n=42 v=0
38160 On ch=10 n=36 v=100
38160 On ch=10 n=42 v=100
38220 On ch=10 n=42 v=0
38220 On ch=10 n=36 v=0
38220 On ch=10 n=42 v=100
38280 On ch=10 n=42 v=0
38280 On ch=10 n=39 v=100
38280 On ch=10 n=38 v=100
38310 On ch=10 n=69 v=75
38340 On ch=10 n=69 v=0
38340 On ch=10 n=38 v=0
38340 On ch=10 n=39 v=0
38370 On ch=10 n=69 v=75
38400 On ch=10 n=69 v=0
38400 On ch=10 n=69 v=63
38400 On ch=10 n=36 v=100
38430 On ch=10 n=69 v=0
38460 On ch=10 n=36 v=0
38460 On ch=10 n=42 v=100
38520 On ch=10 n=42 v=0
38520 On ch=10 n=39 v=100
38520 On ch=10 n=38 v=100
38580 On ch=10 n=38 v=0
38580 On ch=10 n=39 v=0
38580 On ch=10 n=36 v=100
38580 On ch=10 n=42 v=100
38640 On ch=10 n=42 v=0
38640 On ch=10 n=36 v=0
38640 On ch=10 n=42 v=100
38640 On ch=10 n=36 v=100
38700 On ch=10 n=36 v=0
38700 On ch=10 n=42 v=0
38700 On ch=10 n=42 v=100
38760 On ch=10 n=42 v=0
38760 On ch=10 n=38 v=100
38760 On ch=10 n=39 v=100
38760 On ch=10 n=69 v=64
38790 On ch=10 n=69 v=0
38790 On ch=10 n=69 v=75
38820 On ch=10 n=69 v=0
38820 On ch=10 n=39 v=0
38820 On ch=10 n=38 v=0
38820 On ch=10 n=69 v=63
38850 On ch=10 n=69 v=0
38850 On ch=10 n=69 v=75
38880 On ch=10 n=69 v=0
38880 On ch=10 n=42 v=100
38880 On ch=10 n=36 v=100
38940 On ch=10 n=36 v=0
38940 On ch=10 n=42 v=0
38940 On ch=10 n=42 v=100
39000 On ch=10 n=42 v=0
39000 On ch=10 n=38 v=100
39000 On ch=10 n=39 v=100
39060 On ch=10 n=39 v=0
39060 On ch=10 n=38 v=0
39060 On ch=10 n=36 v=100
39060 On ch=10 n=42 v=100
39120 On ch=10 n=42 v=0
39120 On ch=10 n=36 v=0
39120 On ch=10 n=36 v=100
39120 On ch=10 n=42 v=100
39180 On ch=10 n=42 v=0
39180 On ch=10 n=36 v=0
39180 On ch=10 n=42 v=100
39240 On ch=10 n=42 v=0
39240 On ch=10 n=69 v=64
39240 On ch=10 n=38 v=100
39240 On ch=10 n=39 v=100
39270 On ch=10 n=69 v=0
39270 On ch=10 n=69 v=75
39300 On ch=10 n=69 v=0
39300 On ch=10 n=39 v=0
39300 On ch=10 n=38 v=0
39300 On ch=10 n=69 v=63
39330 On ch=10 n=69 v=0
39330 On ch=10 n=69 v=75
39360 On ch=10 n=69 v=0
39360 On ch=10 n=69 v=63
39360 On ch=10 n=36 v=100
39390 On ch=10 n=69 v=0
39420 On ch=10 n=36 v=0
39420 On ch=10 n=42 v=100
39480 On ch=10 n=42 v=0
39480 On ch=10 n=38 v=100
39480 On ch=10 n=39 v=100
39540 On ch=10 n=39 v=0
39540 On ch=10 n=38 v=0
39540 On ch=10 n=42 v=100
39540 On ch=10 n=36 v=100
39600 On ch=10 n=36 v=0
39600 On ch=10 n=42 v=0
39600 On ch=10 n=42 v=100
39600 On ch=10 n=36 v=100
39660 On ch=10 n=36 v=0
39660 On ch=10 n=42 v=0
39660 On ch=10 n=42 v=100
39720 On ch=10 n=42 v=0
39720 On ch=10 n=38 v=100
39720 On ch=10 n=69 v=64
39720 On ch=10 n=39 v=100
39750 On ch=10 n=69 v=0
39750 On ch=10 n=69 v=75
39780 On ch=10 n=69 v=0
39780 On ch=10 n=39 v=0
39780 On ch=10 n=38 v=0
39780 On ch=10 n=69 v=63
39810 On ch=10 n=69 v=0
39810 On ch=10 n=69 v=75
39840 On ch=10 n=69 v=0
39840 On ch=10 n=69 v=63
39840 On ch=10 n=36 v=100
39870 On ch=10 n=69 v=0
39900 On ch=10 n=36 v=0
39900 On ch=10 n=42 v=100
39960 On ch=10 n=42 v=0
39960 On ch=10 n=38 v=100
39960 On ch=10 n=39 v=100
40020 On ch=10 n=39 v=0
40020 On ch=10 n=38 v=0
40020 On ch=10 n=36 v=100
40020 On ch=10 n=42 v=100
40080 On ch=10 n=42 v=0
40080 On ch=10 n=36 v=0
40080 On ch=10 n=36 v=100
40080 On ch=10 n=42 v=100
40140 On ch=10 n=42 v=0
40140 On ch=10 n=36 v=0
40140 On ch=10 n=42 v=100
40200 On ch=10 n=42 v=0
40200 On ch=10 n=39 v=100
40200 On ch=10 n=38 v=100
40230 On ch=10 n=69 v=75
40260 On ch=10 n=69 v=0
40260 On ch=10 n=38 v=0
40260 On ch=10 n=39 v=0
40290 On ch=10 n=69 v=75
40320 On ch=10 n=69 v=0
40320 On ch=10 n=69 v=63
40320 On ch=10 n=36 v=100
40350 On ch=10 n=69 v=0
40380 On ch=10 n=36 v=0
40380 On ch=10 n=42 v=100
40440 On ch=10 n=42 v=0
40440 On ch=10 n=39 v=100
40440 On ch=10 n=38 v=100
40500 On ch=10 n=38 v=0
40500 On ch=10 n=39 v=0
40500 On ch=10 n=36 v=100
40500 On ch=10 n=42 v=100
40560 On ch=10 n=42 v=0
40560 On ch=10 n=36 v=0
40560 On ch=10 n=36 v=100
40560 On ch=10 n=42 v=100
40620 On ch=10 n=42 v=0
40620 On ch=10 n=36 v=0
40620 On ch=10 n=42 v=100
40680 On ch=10 n=42 v=0
40680 On ch=10 n=39 v=100
40680 On ch=10 n=38 v=100
40680 On ch=10 n=69 v=64
40710 On ch=10 n=69 v=0
40710 On ch=10 n=69 v=75
40740 On ch=10 n=69 v=0
40740 On ch=10 n=38 v=0
40740 On ch=10 n=39 v=0
40740 On ch=10 n=69 v=63
40770 On ch=10 n=69 v=0
40770 On ch=10 n=69 v=75
40800 On ch=10 n=69 v=0
40800 On ch=10 n=36 v=100
40800 On ch=10 n=42 v=100
40860 On ch=10 n=42 v=0
40860 On ch=10 n=36 v=0
40860 On ch=10 n=42 v=100
40920 On ch=10 n=42 v=0
40920 On ch=10 n=38 v=100
40920 On ch=10 n=39 v=100
40980 On ch=10 n=39 v=0
40980 On ch=10 n=38 v=0
40980 On ch=10 n=42 v=100
40980 On ch=10 n=36 v=100
41040 On ch=10 n=36 v=0
41040 On ch=10 n=42 v=0
41040 On ch=10 n=42 v=100
41040 On ch=10 n=36 v=100
41100 On ch=10 n=36 v=0
41100 On ch=10 n=42 v=0
41100 On ch=10 n=42 v=100
41160 On ch=10 n=42 v=0
41160 On ch=10 n=69 v=64
41160 On ch=10 n=38 v=100
41160 On ch=10 n=39 v=100
41190 On ch=10 n=69 v=0
41190 On ch=10 n=69 v=75
41220 On ch=10 n=69 v=0
41220 On ch=10 n=39 v=0
41220 On ch=10 n=38 v=0
41220 On ch=10 n=69 v=63
41250 On ch=10 n=69 v=0
41250 On ch=10 n=69 v=75
41280 On ch=10 n=69 v=0
41280 On ch=10 n=69 v=63
41280 On ch=10 n=36 v=100
41310 On ch=10 n=69 v=0
41340 On ch=10 n=36 v=0
41340 On ch=10 n=42 v=100
41400 On ch=10 n=42 v=0
41400 On ch=10 n=39 v=100
41400 On ch=10 n=38 v=100
41460 On ch=10 n=38 v=0
41460 On ch=10 n=39 v=0
41460 On ch=10 n=36 v=100
41460 On ch=10 n=42 v=100
41520 On ch=10 n=42 v=0
41520 On ch=10 n=36 v=0
41520 On ch=10 n=42 v=100
41520 Par ch=10 c=11 v=127
41520 On ch=10 n=36 v=100
41530 Par ch=10 c=11 v=126
41539 Par ch=10 c=11 v=125
41550 Par ch=10 c=11 v=124
41558 Par ch=10 c=11 v=123
41566 Par ch=10 c=11 v=122
41577 Par ch=10 c=11 v=121
41580 On ch=10 n=36 v=0
41580 On ch=10 n=42 v=0
41580 On ch=10 n=42 v=100
41585 Par ch=10 c=11 v=120
41593 Par ch=10 c=11 v=119
41604 Par ch=10 c=11 v=118
41612 Par ch=10 c=11 v=117
41620 Par ch=10 c=11 v=116
41631 Par ch=10 c=11 v=115
41640 On ch=10 n=42 v=0
41640 On ch=10 n=69 v=64
41640 On ch=10 n=38 v=100
41640 On ch=10 n=39 v=100
41640 Par ch=10 c=11 v=114
41648 Par ch=10 c=11 v=113
41659 Par ch=10 c=11 v=112
41667 Par ch=10 c=11 v=111
41670 On ch=10 n=69 v=0
41670 On ch=10 n=69 v=75
41678 Par ch=10 c=11 v=110
41686 Par ch=10 c=11 v=109
41694 Par ch=10 c=11 v=108
41700 On ch=10 n=69 v=0
41700 On ch=10 n=39 v=0
41700 On ch=10 n=38 v=0
41700 On ch=10 n=69 v=63
41705 Par ch=10 c=11 v=107
41713 Par ch=10 c=11 v=106
41721 Par ch=10 c=11 v=105
41730 On ch=10 n=69 v=0
41730 On ch=10 n=69 v=75
41732 Par ch=10 c=11 v=104
41740 Par ch=10 c=11 v=103
41749 Par ch=10 c=11 v=102
41760 On ch=10 n=69 v=0
41760 On ch=10 n=36 v=100
41760 Par ch=10 c=11 v=101
41760 On ch=10 n=69 v=63
41768 Par ch=10 c=11 v=100
41776 Par ch=10 c=11 v=99
41787 Par ch=10 c=11 v=98
41790 On ch=10 n=69 v=0
41795 Par ch=10 c=11 v=97
41806 Par ch=10 c=11 v=96
41814 Par ch=10 c=11 v=95
41820 On ch=10 n=36 v=0
41820 On ch=10 n=42 v=100
41822 Par ch=10 c=11 v=94
41833 Par ch=10 c=11 v=93
41841 Par ch=10 c=11 v=92
41850 Par ch=10 c=11 v=91
41860 Par ch=10 c=11 v=90
41869 Par ch=10 c=11 v=89
41877 Par ch=10 c=11 v=88
41880 On ch=10 n=42 v=0
41880 On ch=10 n=38 v=100
41880 On ch=10 n=39 v=100
41888 Par ch=10 c=11 v=87
41896 Par ch=10 c=11 v=86
41904 Par ch=10 c=11 v=85
41915 Par ch=10 c=11 v=84
41923 Par ch=10 c=11 v=83
41931 Par ch=10 c=11 v=82
41940 On ch=10 n=39 v=0
41940 On ch=10 n=38 v=0
41940 On ch=10 n=42 v=100
41940 On ch=10 n=36 v=100
41942 Par ch=10 c=11 v=81
41950 Par ch=10 c=11 v=80
41961 Par ch=10 c=11 v=79
41970 Par ch=10 c=11 v=78
41978 Par ch=10 c=11 v=77
41989 Par ch=10 c=11 v=76
41997 Par ch=10 c=11 v=75
42000 On ch=10 n=36 v=0
42000 On ch=10 n=42 v=0
42000 On ch=10 n=36 v=100
42000 On ch=10 n=42 v=100
42005 Par ch=10 c=11 v=74
42016 Par ch=10 c=11 v=73
42024 Par ch=10 c=11 v=72
42032 Par ch=10 c=11 v=71
42043 Par ch=10 c=11 v=70
42051 Par ch=10 c=11 v=69
42060 On ch=10 n=42 v=0
42060 On ch=10 n=36 v=0
42060 Par ch=10 c=11 v=68
42060 On ch=10 n=42 v=100
42070 Par ch=10 c=11 v=67
42079 Par ch=10 c=11 v=66
42090 Par ch=10 c=11 v=65
42098 Par ch=10 c=11 v=64
42106 Par ch=10 c=11 v=63
42117 Par ch=10 c=11 v=62
42120 On ch=10 n=42 v=0
42120 On ch=10 n=39 v=100
42120 On ch=10 n=38 v=100
42125 Par ch=10 c=11 v=61
42133 Par ch=10 c=11 v=60
42144 Par ch=10 c=11 v=59
42150 On ch=10 n=69 v=75
42152 Par ch=10 c=11 v=58
42160 Par ch=10 c=11 v=57
42171 Par ch=10 c=11 v=56
42180 On ch=10 n=69 v=0
42180 On ch=10 n=38 v=0
42180 On ch=10 n=39 v=0
42180 Par ch=10 c=11 v=55
42188 Par ch=10 c=11 v=54
42199 Par ch=10 c=11 v=53
42207 Par ch=10 c=11 v=52
42210 On ch=10 n=69 v=75
42218 Par ch=10 c=11 v=51
42226 Par ch=10 c=11 v=50
42234 Par ch=10 c=11 v=49
42240 On ch=10 n=69 v=0
42240 On ch=10 n=69 v=63
42240 On ch=10 n=36 v=100
42245 Par ch=10 c=11 v=48
42253 Par ch=10 c=11 v=47
42261 Par ch=10 c=11 v=46
42270 On ch=10 n=69 v=0
42272 Par ch=10 c=11 v=45
42280 Par ch=10 c=11 v=44
42289 Par ch=10 c=11 v=43
42300 On ch=10 n=36 v=0
42300 Par ch=10 c=11 v=42
42300 On ch=10 n=42 v=100
42308 Par ch=10 c=11 v=41
42316 Par ch=10 c=11 v=40
42327 Par ch=10 c=11 v=39
42335 Par ch=10 c=11 v=38
42343 Par ch=10 c=11 v=37
42354 Par ch=10 c=11 v=36
42360 On ch=10 n=42 v=0
42360 On ch=10 n=38 v=100
42360 On ch=10 n=39 v=100
42362 Par ch=10 c=11 v=35
42373 Par ch=10 c=11 v=34
42381 Par ch=10 c=11 v=33
42390 Par ch=10 c=11 v=32
42400 Par ch=10 c=11 v=31
42409 Par ch=10 c=11 v=30
42417 Par ch=10 c=11 v=29
42420 On ch=10 n=39 v=0
42420 On ch=10 n=38 v=0
42420 On ch=10 n=42 v=100
42420 On ch=10 n=36 v=100
42428 Par ch=10 c=11 v=28
42436 Par ch=10 c=11 v=27
42444 Par ch=10 c=11 v=26
42455 Par ch=10 c=11 v=25
42463 Par ch=10 c=11 v=24
42471 Par ch=10 c=11 v=23
42480 On ch=10 n=36 v=0
42480 On ch=10 n=42 v=0
42480 On ch=10 n=36 v=100
42480 On ch=10 n=42 v=100
42482 Par ch=10 c=11 v=22
42490 Par ch=10 c=11 v=21
42501 Par ch=10 c=11 v=20
42510 Par ch=10 c=11 v=19
42518 Par ch=10 c=11 v=18
42529 Par ch=10 c=11 v=17
42537 Par ch=10 c=11 v=16
42540 On ch=10 n=42 v=0
42540 On ch=10 n=36 v=0
42540 On ch=10 n=42 v=100
42545 Par ch=10 c=11 v=15
42556 Par ch=10 c=11 v=14
42564 Par ch=10 c=11 v=13
42572 Par ch=10 c=11 v=12
42583 Par ch=10 c=11 v=11
42591 Par ch=10 c=11 v=10
42600 On ch=10 n=42 v=0
42600 On ch=10 n=38 v=100
42600 On ch=10 n=39 v=100
42600 On ch=10 n=69 v=64
42600 Par ch=10 c=11 v=9
42610 Par ch=10 c=11 v=8
42619 Par ch=10 c=11 v=7
42627 Par ch=10 c=11 v=6
42630 On ch=10 n=69 v=0
42630 On ch=10 n=69 v=75
42660 On ch=10 n=69 v=0
42660 On ch=10 n=39 v=0
42660 On ch=10 n=38 v=0
42660 On ch=10 n=69 v=63
42690 On ch=10 n=69 v=0
42690 On ch=10 n=69 v=75
42720 On ch=10 n=69 v=0
42720 Meta TrkEnd
TrkEnd
MTrk
0 Meta TrkName "Tremolo Strings"
0 Par ch=6 c=0 v=0
0 Par ch=6 c=32 v=0
0 PrCh ch=6 p=44
9600 On ch=6 n=58 v=100
10080 On ch=6 n=58 v=0
36480 On ch=6 n=70 v=100
36960 On ch=6 n=70 v=0
36960 Meta TrkEnd
TrkEnd
MTrk
0 Meta TrkName "Celli"
0 Par ch=7 c=0 v=0
0 Par ch=7 c=32 v=0
0 PrCh ch=7 p=42
10080 On ch=7 n=65 v=100
10560 On ch=7 n=65 v=0
10560 On ch=7 n=64 v=100
11040 On ch=7 n=64 v=0
11040 On ch=7 n=62 v=100
11520 On ch=7 n=62 v=0
11520 On ch=7 n=58 v=100
12000 On ch=7 n=58 v=0
12000 On ch=7 n=53 v=100
12480 On ch=7 n=53 v=0
12480 On ch=7 n=52 v=100
12960 On ch=7 n=52 v=0
12960 On ch=7 n=50 v=100
13440 On ch=7 n=50 v=0
13440 On ch=7 n=46 v=100
13920 On ch=7 n=46 v=0
21600 On ch=7 n=46 v=100
23520 On ch=7 n=46 v=0
23520 On ch=7 n=65 v=100
24000 On ch=7 n=65 v=0
24000 On ch=7 n=64 v=100
24480 On ch=7 n=64 v=0
24480 On ch=7 n=62 v=100
24960 On ch=7 n=62 v=0
24960 On ch=7 n=58 v=100
25440 On ch=7 n=58 v=0
25440 On ch=7 n=53 v=100
25920 On ch=7 n=53 v=0
25920 On ch=7 n=52 v=100
26400 On ch=7 n=52 v=0
26400 On ch=7 n=50 v=100
26880 On ch=7 n=50 v=0
26880 On ch=7 n=46 v=100
27360 On ch=7 n=46 v=0
33120 On ch=7 n=53 v=100
33150 On ch=7 n=53 v=0
33180 On ch=7 n=48 v=100
33210 On ch=7 n=48 v=0
33240 On ch=7 n=53 v=100
33270 On ch=7 n=53 v=0
33300 On ch=7 n=57 v=100
33330 On ch=7 n=57 v=0
33360 On ch=7 n=55 v=100
33390 On ch=7 n=55 v=0
33420 On ch=7 n=53 v=100
33450 On ch=7 n=53 v=0
33480 On ch=7 n=52 v=100
33510 On ch=7 n=52 v=0
33540 On ch=7 n=53 v=100
33570 On ch=7 n=53 v=0
33600 On ch=7 n=48 v=100
33630 On ch=7 n=48 v=0
33660 On ch=7 n=52 v=100
33690 On ch=7 n=52 v=0
33720 On ch=7 n=55 v=100
33750 On ch=7 n=55 v=0
33780 On ch=7 n=58 v=100
33810 On ch=7 n=58 v=0
33840 On ch=7 n=57 v=100
33870 On ch=7 n=57 v=0
33900 On ch=7 n=55 v=100
33930 On ch=7 n=55 v=0
33960 On ch=7 n=53 v=100
33990 On ch=7 n=53 v=0
34020 On ch=7 n=52 v=100
34050 On ch=7 n=52 v=0
34080 On ch=7 n=50 v=100
34110 On ch=7 n=50 v=0
34140 On ch=7 n=53 v=100
34170 On ch=7 n=53 v=0
34200 On ch=7 n=57 v=100
34230 On ch=7 n=57 v=0
34260 On ch=7 n=55 v=100
34290 On ch=7 n=55 v=0
34320 On ch=7 n=53 v=100
34350 On ch=7 n=53 v=0
34380 On ch=7 n=52 v=100
34410 On ch=7 n=52 v=0
34440 On ch=7 n=50 v=100
34470 On ch=7 n=50 v=0
34500 On ch=7 n=53 v=100
34530 On ch=7 n=53 v=0
34560 On ch=7 n=46 v=100
34590 On ch=7 n=46 v=0
34620 On ch=7 n=50 v=100
34650 On ch=7 n=50 v=0
34680 On ch=7 n=53 v=100
34710 On ch=7 n=53 v=0
34740 On ch=7 n=57 v=100
34770 On ch=7 n=57 v=0
34800 On ch=7 n=55 v=100
34830 On ch=7 n=55 v=0
34860 On ch=7 n=53 v=100
34890 On ch=7 n=53 v=0
34920 On ch=7 n=52 v=100
34950 On ch=7 n=52 v=0
34980 On ch=7 n=53 v=100
35010 On ch=7 n=53 v=0
35040 On ch=7 n=53 v=100
35070 On ch=7 n=53 v=0
35100 On ch=7 n=48 v=100
35130 On ch=7 n=48 v=0
35160 On ch=7 n=53 v=100
35190 On ch=7 n=53 v=0
35220 On ch=7 n=57 v=100
35250 On ch=7 n=57 v=0
35280 On ch=7 n=55 v=100
35310 On ch=7 n=55 v=0
35340 On ch=7 n=53 v=100
35370 On ch=7 n=53 v=0
35400 On ch=7 n=52 v=100
35430 On ch=7 n=52 v=0
35460 On ch=7 n=53 v=100
35490 On ch=7 n=53 v=0
35520 On ch=7 n=48 v=100
35550 On ch=7 n=48 v=0
35580 On ch=7 n=52 v=100
35610 On ch=7 n=52 v=0
35640 On ch=7 n=55 v=100
35670 On ch=7 n=55 v=0
35700 On ch=7 n=58 v=100
35730 On ch=7 n=58 v=0
35760 On ch=7 n=57 v=100
35790 On ch=7 n=57 v=0
35820 On ch=7 n=55 v=100
35850 On ch=7 n=55 v=0
35880 On ch=7 n=53 v=100
35910 On ch=7 n=53 v=0
35940 On ch=7 n=52 v=100
35970 On ch=7 n=52 v=0
36000 On ch=7 n=50 v=100
36030 On ch=7 n=50 v=0
36060 On ch=7 n=53 v=100
36090 On ch=7 n=53 v=0
36120 On ch=7 n=57 v=100
36150 On ch=7 n=57 v=0
36180 On ch=7 n=55 v=100
36210 On ch=7 n=55 v=0
36240 On ch=7 n=53 v=100
36270 On ch=7 n=53 v=0
36300 On ch=7 n=52 v=100
36330 On ch=7 n=52 v=0
36360 On ch=7 n=50 v=100
36390 On ch=7 n=50 v=0
36420 On ch=7 n=53 v=100
36450 On ch=7 n=53 v=0
36480 On ch=7 n=46 v=100
36510 On ch=7 n=46 v=0
36540 On ch=7 n=50 v=100
36570 On ch=7 n=50 v=0
36600 On ch=7 n=53 v=100
36630 On ch=7 n=53 v=0
36660 On ch=7 n=57 v=100
36690 On ch=7 n=57 v=0
36720 On ch=7 n=55 v=100
36750 On ch=7 n=55 v=0
36780 On ch=7 n=53 v=100
36810 On ch=7 n=53 v=0
36840 On ch=7 n=52 v=100
36870 On ch=7 n=52 v=0
36900 On ch=7 n=53 v=100
36930 On ch=7 n=53 v=0
36960 On ch=7 n=65 v=100
37440 On ch=7 n=65 v=0
37440 On ch=7 n=64 v=100
37920 On ch=7 n=64 v=0
37920 On ch=7 n=62 v=100
38400 On ch=7 n=62 v=0
38400 On ch=7 n=58 v=100
38880 On ch=7 n=58 v=0
38880 On ch=7 n=53 v=100
39360 On ch=7 n=53 v=0
39360 On ch=7 n=52 v=100
39840 On ch=7 n=52 v=0
39840 On ch=7 n=50 v=100
40320 On ch=7 n=50 v=0
40320 On ch=7 n=46 v=100
40800 On ch=7 n=46 v=0
40800 Meta TrkEnd
TrkEnd
MTrk
0 Meta TrkName "Guitar Overdriven"
0 Par ch=8 c=0 v=0
0 Par ch=8 c=7 v=127
0 Par ch=8 c=32 v=0
0 PrCh ch=8 p=29
12360 On ch=8 n=72 v=100
12449 Pb ch=8 v=8192
12451 Pb ch=8 v=7808
12452 Pb ch=8 v=7424
12453 Pb ch=8 v=7040
12455 Pb ch=8 v=6656
12456 Pb ch=8 v=6272
12457 Pb ch=8 v=5888
12459 Pb ch=8 v=5504
12460 Pb ch=8 v=5120
12462 Pb ch=8 v=4736
12463 Pb ch=8 v=4352
12464 Pb ch=8 v=3968
12466 Pb ch=8 v=3584
12467 Pb ch=8 v=3200
12468 Pb ch=8 v=2816
12470 Pb ch=8 v=2432
12471 Pb ch=8 v=2048
12473 Pb ch=8 v=1664
12474 Pb ch=8 v=1280
12475 Pb ch=8 v=896
12477 Pb ch=8 v=512
12478 Pb ch=8 v=128
12480 On ch=8 n=72 v=0
12480 Pb ch=8 v=8192
12480 On ch=8 n=64 v=100
12480 On ch=8 n=60 v=100
12960 On ch=8 n=60 v=0
12960 On ch=8 n=64 v=0
13320 On ch=8 n=72 v=100
13410 Pb ch=8 v=8192
13411 Pb ch=8 v=7936
13412 Pb ch=8 v=7552
13414 Pb ch=8 v=7168
13415 Pb ch=8 v=6784
13416 Pb ch=8 v=6400
13418 Pb ch=8 v=6016
13419 Pb ch=8 v=5632
13421 Pb ch=8 v=5248
13422 Pb ch=8 v=4864
13423 Pb ch=8 v=4480
13425 Pb ch=8 v=4224
13426 Pb ch=8 v=3840
13428 Pb ch=8 v=3456
13429 Pb ch=8 v=3072
13430 Pb ch=8 v=2688
13432 Pb ch=8 v=2304
13433 Pb ch=8 v=1920
13434 Pb ch=8 v=1536
13436 Pb ch=8 v=1152
13437 Pb ch=8 v=768
13439 Pb ch=8 v=384
13440 On ch=8 n=72 v=0
13440 On ch=8 n=65 v=100
13440 On ch=8 n=58 v=100
13440 Pb ch=8 v=8192
13468 Pb ch=8 v=8320
13920 On ch=8 n=58 v=0
13920 On ch=8 n=65 v=0
23880 On ch=8 n=72 v=100
23969 Pb ch=8 v=8192
23971 Pb ch=8 v=7808
23972 Pb ch=8 v=7424
23973 Pb ch=8 v=7040
23975 Pb ch=8 v=6656
23976 Pb ch=8 v=6272
23977 Pb ch=8 v=5888
23979 Pb ch=8 v=5504
23980 Pb ch=8 v=5120
23982 Pb ch=8 v=4736
23983 Pb ch=8 v=4352
23984 Pb ch=8 v=3968
23986 Pb ch=8 v=3584
23987 Pb ch=8 v=3200
23988 Pb ch=8 v=2816
23990 Pb ch=8 v=2432
23991 Pb ch=8 v=2048
23993 Pb ch=8 v=1664
23994 Pb ch=8 v=1280
23995 Pb ch=8 v=896
23997 Pb ch=8 v=512
23998 Pb ch=8 v=128
24000 On ch=8 n=72 v=0
24000 Pb ch=8 v=8192
24000 On ch=8 n=64 v=100
24000 On ch=8 n=60 v=100
24480 On ch=8 n=60 v=0
24480 On ch=8 n=64 v=0
24840 On ch=8 n=72 v=100
24930 Pb ch=8 v=8192
24931 Pb ch=8 v=7936
24932 Pb ch=8 v=7552
24934 Pb ch=8 v=7168
24935 Pb ch=8 v=6784
24936 Pb ch=8 v=6400
24938 Pb ch=8 v=6016
24939 Pb ch=8 v=5632
24941 Pb ch=8 v=5248
24942 Pb ch=8 v=4864
24943 Pb ch=8 v=4480
24945 Pb ch=8 v=4224
24946 Pb ch=8 v=3840
24948 Pb ch=8 v=3456
24949 Pb ch=8 v=3072
24950 Pb ch=8 v=2688
24952 Pb ch=8 v=2304
24953 Pb ch=8 v=1920
24954 Pb ch=8 v=1536
24956 Pb ch=8 v=1152
24957 Pb ch=8 v=768
24959 Pb ch=8 v=384
24960 On ch=8 n=72 v=0
24960 On ch=8 n=65 v=100
24960 On ch=8 n=58 v=100
24960 Pb ch=8 v=8192
24988 Pb ch=8 v=8320
25440 On ch=8 n=58 v=0
25440 On ch=8 n=65 v=0
25440 On ch=8 n=69 v=100
25440 On ch=8 n=72 v=100
25500 On ch=8 n=72 v=0
25500 On ch=8 n=69 v=0
25500 On ch=8 n=72 v=100
25500 On ch=8 n=69 v=100
25560 On ch=8 n=69 v=0
25560 On ch=8 n=72 v=0
25560 On ch=8 n=69 v=100
25560 On ch=8 n=72 v=100
25620 On ch=8 n=72 v=0
25620 On ch=8 n=69 v=0
25620 On ch=8 n=69 v=100
25620 On ch=8 n=72 v=100
25680 On ch=8 n=72 v=0
25680 On ch=8 n=69 v=0
25680 On ch=8 n=72 v=100
25680 On ch=8 n=69 v=100
25740 On ch=8 n=69 v=0
25740 On ch=8 n=72 v=0
25740 On ch=8 n=69 v=100
25740 On ch=8 n=72 v=100
25800 On ch=8 n=72 v=0
25800 On ch=8 n=69 v=0
25800 On ch=8 n=72 v=100
25800 On ch=8 n=69 v=100
25860 On ch=8 n=69 v=0
25860 On ch=8 n=72 v=0
25860 On ch=8 n=69 v=100
25860 On ch=8 n=72 v=100
25899 Pb ch=8 v=8192
25900 Pb ch=8 v=8448
25902 Pb ch=8 v=8704
25903 Pb ch=8 v=8960
25904 Pb ch=8 v=9216
25906 Pb ch=8 v=9600
25907 Pb ch=8 v=9856
25908 Pb ch=8 v=10112
25910 Pb ch=8 v=10368
25911 Pb ch=8 v=10624
25913 Pb ch=8 v=11008
25914 Pb ch=8 v=11264
25915 Pb ch=8 v=11520
25917 Pb ch=8 v=11776
25918 Pb ch=8 v=12032
25920 On ch=8 n=72 v=0
25920 On ch=8 n=69 v=0
25920 Pb ch=8 v=8192
25920 On ch=8 n=67 v=100
25920 On ch=8 n=74 v=100
25980 On ch=8 n=74 v=0
25980 On ch=8 n=67 v=0
25980 On ch=8 n=74 v=100
25980 On ch=8 n=67 v=100
26040 On ch=8 n=67 v=0
26040 On ch=8 n=74 v=0
26040 On ch=8 n=67 v=100
26040 On ch=8 n=74 v=100
26100 On ch=8 n=74 v=0
26100 On ch=8 n=67 v=0
26100 On ch=8 n=67 v=100
26100 On ch=8 n=74 v=100
26160 On ch=8 n=74 v=0
26160 On ch=8 n=67 v=0
26160 On ch=8 n=74 v=100
26160 On ch=8 n=67 v=100
26220 On ch=8 n=67 v=0
26220 On ch=8 n=74 v=0
26220 On ch=8 n=74 v=100
26220 On ch=8 n=67 v=100
26280 On ch=8 n=67 v=0
26280 On ch=8 n=74 v=0
26280 On ch=8 n=74 v=100
26280 On ch=8 n=67 v=100
26340 On ch=8 n=67 v=0
26340 On ch=8 n=74 v=0
26340 On ch=8 n=67 v=100
26340 On ch=8 n=74 v=100
26379 Pb ch=8 v=8192
26380 Pb ch=8 v=8448
26382 Pb ch=8 v=8704
26383 Pb ch=8 v=8960
26384 Pb ch=8 v=9216
26386 Pb ch=8 v=9600
26387 Pb ch=8 v=9856
26388 Pb ch=8 v=10112
26390 Pb ch=8 v=10368
26391 Pb ch=8 v=10624
26393 Pb ch=8 v=11008
26394 Pb ch=8 v=11264
26395 Pb ch=8 v=11520
26397 Pb ch=8 v=11776
26398 Pb ch=8 v=12032
26400 On ch=8 n=74 v=0
26400 On ch=8 n=67 v=0
26400 On ch=8 n=69 v=100
26400 On ch=8 n=76 v=100
26400 Pb ch=8 v=8192
26460 On ch=8 n=76 v=0
26460 On ch=8 n=69 v=0
26460 On ch=8 n=69 v=100
26460 On ch=8 n=76 v=100
26520 On ch=8 n=76 v=0
26520 On ch=8 n=69 v=0
26520 On ch=8 n=76 v=100
26520 On ch=8 n=69 v=100
26580 On ch=8 n=69 v=0
26580 On ch=8 n=76 v=0
26580 On ch=8 n=69 v=100
26580 On ch=8 n=76 v=100
26640 On ch=8 n=76 v=0
26640 On ch=8 n=69 v=0
26640 On ch=8 n=76 v=100
26640 On ch=8 n=69 v=100
26700 On ch=8 n=69 v=0
26700 On ch=8 n=76 v=0
26700 On ch=8 n=76 v=100
26700 On ch=8 n=69 v=100
26760 On ch=8 n=69 v=0
26760 On ch=8 n=76 v=0
26760 On ch=8 n=69 v=100
26760 On ch=8 n=76 v=100
26820 On ch=8 n=76 v=0
26820 On ch=8 n=69 v=0
26820 On ch=8 n=69 v=100
26820 On ch=8 n=76 v=100
26859 Pb ch=8 v=8192
26860 Pb ch=8 v=8448
26862 Pb ch=8 v=8704
26863 Pb ch=8 v=8960
26864 Pb ch=8 v=9216
26866 Pb ch=8 v=9600
26867 Pb ch=8 v=9856
26868 Pb ch=8 v=10112
26870 Pb ch=8 v=10368
26871 Pb ch=8 v=10624
26873 Pb ch=8 v=11008
26874 Pb ch=8 v=11264
26875 Pb ch=8 v=11520
26877 Pb ch=8 v=11776
26878 Pb ch=8 v=12032
26880 On ch=8 n=76 v=0
26880 On ch=8 n=69 v=0
26880 On ch=8 n=74 v=100
26880 On ch=8 n=77 v=100
26880 Pb ch=8 v=8192
26940 On ch=8 n=77 v=0
26940 On ch=8 n=74 v=0
26940 On ch=8 n=74 v=100
26940 On ch=8 n=77 v=100
27000 On ch=8 n=77 v=0
27000 On ch=8 n=74 v=0
27000 On ch=8 n=74 v=100
27000 On ch=8 n=77 v=100
27060 On ch=8 n=77 v=0
27060 On ch=8 n=74 v=0
27060 On ch=8 n=74 v=100
27060 On ch=8 n=77 v=100
27120 On ch=8 n=77 v=0
27120 On ch=8 n=74 v=0
27120 On ch=8 n=74 v=100
27120 On ch=8 n=77 v=100
27180 On ch=8 n=77 v=0
27180 On ch=8 n=74 v=0
27180 On ch=8 n=74 v=100
27180 On ch=8 n=77 v=100
27240 On ch=8 n=77 v=0
27240 On ch=8 n=74 v=0
27240 On ch=8 n=74 v=100
27240 On ch=8 n=77 v=100
27300 On ch=8 n=77 v=0
27300 On ch=8 n=74 v=0
27300 On ch=8 n=74 v=100
27300 On ch=8 n=77 v=100
27360 On ch=8 n=77 v=0
27360 On ch=8 n=74 v=0
37320 On ch=8 n=72 v=100
37409 Pb ch=8 v=8192
37411 Pb ch=8 v=7808
37412 Pb ch=8 v=7424
37413 Pb ch=8 v=7040
37415 Pb ch=8 v=6656
37416 Pb ch=8 v=6272
37417 Pb ch=8 v=5888
37419 Pb ch=8 v=5504
37420 Pb ch=8 v=5120
37422 Pb ch=8 v=4736
37423 Pb ch=8 v=4352
37424 Pb ch=8 v=3968
37426 Pb ch=8 v=3584
37427 Pb ch=8 v=3200
37428 Pb ch=8 v=2816
37430 Pb ch=8 v=2432
37431 Pb ch=8 v=2048
37433 Pb ch=8 v=1664
37434 Pb ch=8 v=1280
37435 Pb ch=8 v=896
37437 Pb ch=8 v=512
37438 Pb ch=8 v=128
37440 On ch=8 n=72 v=0
37440 Pb ch=8 v=8192
37440 On ch=8 n=64 v=100
37440 On ch=8 n=60 v=100
37920 On ch=8 n=60 v=0
37920 On ch=8 n=64 v=0
38280 On ch=8 n=72 v=100
38370 Pb ch=8 v=8192
38371 Pb ch=8 v=7936
38372 Pb ch=8 v=7552
38374 Pb ch=8 v=7168
38375 Pb ch=8 v=6784
38376 Pb ch=8 v=6400
38378 Pb ch=8 v=6016
38379 Pb ch=8 v=5632
38381 Pb ch=8 v=5248
38382 Pb ch=8 v=4864
38383 Pb ch=8 v=4480
38385 Pb ch=8 v=4224
38386 Pb ch=8 v=3840
38388 Pb ch=8 v=3456
38389 Pb ch=8 v=3072
38390 Pb ch=8 v=2688
38392 Pb ch=8 v=2304
38393 Pb ch=8 v=1920
38394 Pb ch=8 v=1536
38396 Pb ch=8 v=1152
38397 Pb ch=8 v=768
38399 Pb ch=8 v=384
38400 On ch=8 n=72 v=0
38400 On ch=8 n=65 v=100
38400 On ch=8 n=58 v=100
38400 Pb ch=8 v=8192
38428 Pb ch=8 v=8320
38880 On ch=8 n=58 v=0
38880 On ch=8 n=65 v=0
38880 On ch=8 n=69 v=100
38880 On ch=8 n=72 v=100
38940 On ch=8 n=72 v=0
38940 On ch=8 n=69 v=0
38940 On ch=8 n=72 v=100
38940 On ch=8 n=69 v=100
39000 On ch=8 n=69 v=0
39000 On ch=8 n=72 v=0
39000 On ch=8 n=69 v=100
39000 On ch=8 n=72 v=100
39060 On ch=8 n=72 v=0
39060 On ch=8 n=69 v=0
39060 On ch=8 n=69 v=100
39060 On ch=8 n=72 v=100
39120 On ch=8 n=72 v=0
39120 On ch=8 n=69 v=0
39120 On ch=8 n=72 v=100
39120 On ch=8 n=69 v=100
39180 On ch=8 n=69 v=0
39180 On ch=8 n=72 v=0
39180 On ch=8 n=69 v=100
39180 On ch=8 n=72 v=100
39240 On ch=8 n=72 v=0
39240 On ch=8 n=69 v=0
39240 On ch=8 n=72 v=100
39240 On ch=8 n=69 v=100
39300 On ch=8 n=69 v=0
39300 On ch=8 n=72 v=0
39300 On ch=8 n=69 v=100
39300 On ch=8 n=72 v=100
39339 Pb ch=8 v=8192
39340 Pb ch=8 v=8448
39342 Pb ch=8 v=8704
39343 Pb ch=8 v=8960
39344 Pb ch=8 v=9216
39346 Pb ch=8 v=9600
39347 Pb ch=8 v=9856
39348 Pb ch=8 v=10112
39350 Pb ch=8 v=10368
39351 Pb ch=8 v=10624
39353 Pb ch=8 v=11008
39354 Pb ch=8 v=11264
39355 Pb ch=8 v=11520
39357 Pb ch=8 v=11776
39358 Pb ch=8 v=12032
39360 On ch=8 n=72 v=0
39360 On ch=8 n=69 v=0
39360 Pb ch=8 v=8192
39360 On ch=8 n=67 v=100
39360 On ch=8 n=74 v=100
39420 On ch=8 n=74 v=0
39420 On ch=8 n=67 v=0
39420 On ch=8 n=74 v=100
39420 On ch=8 n=67 v=100
39480 On ch=8 n=67 v=0
39480 On ch=8 n=74 v=0
39480 On ch=8 n=67 v=100
39480 On ch=8 n=74 v=100
39540 On ch=8 n=74 v=0
39540 On ch=8 n=67 v=0
39540 On ch=8 n=67 v=100
39540 On ch=8 n=74 v=100
39600 On ch=8 n=74 v=0
39600 On ch=8 n=67 v=0
39600 On ch=8 n=74 v=100
39600 On ch=8 n=67 v=100
39660 On ch=8 n=67 v=0
39660 On ch=8 n=74 v=0
39660 On ch=8 n=74 v=100
39660 On ch=8 n=67 v=100
39720 On ch=8 n=67 v=0
39720 On ch=8 n=74 v=0
39720 On ch=8 n=74 v=100
39720 On ch=8 n=67 v=100
39780 On ch=8 n=67 v=0
39780 On ch=8 n=74 v=0
39780 On ch=8 n=67 v=100
39780 On ch=8 n=74 v=100
39819 Pb ch=8 v=8192
39820 Pb ch=8 v=8448
39822 Pb ch=8 v=8704
39823 Pb ch=8 v=8960
39824 Pb ch=8 v=9216
39826 Pb ch=8 v=9600
39827 Pb ch=8 v=9856
39828 Pb ch=8 v=10112
39830 Pb ch=8 v=10368
39831 Pb ch=8 v=10624
39833 Pb ch=8 v=11008
39834 Pb ch=8 v=11264
39835 Pb ch=8 v=11520
39837 Pb ch=8 v=11776
39838 Pb ch=8 v=12032
39840 On ch=8 n=74 v=0
39840 On ch=8 n=67 v=0
39840 On ch=8 n=69 v=100
39840 On ch=8 n=76 v=100
39840 Pb ch=8 v=8192
39900 On ch=8 n=76 v=0
39900 On ch=8 n=69 v=0
39900 On ch=8 n=69 v=100
39900 On ch=8 n=76 v=100
39960 On ch=8 n=76 v=0
39960 On ch=8 n=69 v=0
39960 On ch=8 n=76 v=100
39960 On ch=8 n=69 v=100
40020 On ch=8 n=69 v=0
40020 On ch=8 n=76 v=0
40020 On ch=8 n=69 v=100
40020 On ch=8 n=76 v=100
40080 On ch=8 n=76 v=0
40080 On ch=8 n=69 v=0
40080 On ch=8 n=76 v=100
40080 On ch=8 n=69 v=100
40140 On ch=8 n=69 v=0
40140 On ch=8 n=76 v=0
40140 On ch=8 n=76 v=100
40140 On ch=8 n=69 v=100
40200 On ch=8 n=69 v=0
40200 On ch=8 n=76 v=0
40200 On ch=8 n=69 v=100
40200 On ch=8 n=76 v=100
40260 On ch=8 n=76 v=0
40260 On ch=8 n=69 v=0
40260 On ch=8 n=69 v=100
40260 On ch=8 n=76 v=100
40299 Pb ch=8 v=8192
40300 Pb ch=8 v=8448
40302 Pb ch=8 v=8704
40303 Pb ch=8 v=8960
40304 Pb ch=8 v=9216
40306 Pb ch=8 v=9600
40307 Pb ch=8 v=9856
40308 Pb ch=8 v=10112
40310 Pb ch=8 v=10368
40311 Pb ch=8 v=10624
40313 Pb ch=8 v=11008
40314 Pb ch=8 v=11264
40315 Pb ch=8 v=11520
40317 Pb ch=8 v=11776
40318 Pb ch=8 v=12032
40320 On ch=8 n=76 v=0
40320 On ch=8 n=69 v=0
40320 On ch=8 n=74 v=100
40320 On ch=8 n=77 v=100
40320 Pb ch=8 v=8192
40380 On ch=8 n=77 v=0
40380 On ch=8 n=74 v=0
40380 On ch=8 n=74 v=100
40380 On ch=8 n=77 v=100
40440 On ch=8 n=77 v=0
40440 On ch=8 n=74 v=0
40440 On ch=8 n=74 v=100
40440 On ch=8 n=77 v=100
40500 On ch=8 n=77 v=0
40500 On ch=8 n=74 v=0
40500 On ch=8 n=74 v=100
40500 On ch=8 n=77 v=100
40560 On ch=8 n=77 v=0
40560 On ch=8 n=74 v=0
40560 On ch=8 n=74 v=100
40560 On ch=8 n=77 v=100
40620 On ch=8 n=77 v=0
40620 On ch=8 n=74 v=0
40620 On ch=8 n=74 v=100
40620 On ch=8 n=77 v=100
40680 On ch=8 n=77 v=0
40680 On ch=8 n=74 v=0
40680 On ch=8 n=74 v=100
40680 On ch=8 n=77 v=100
40740 On ch=8 n=77 v=0
40740 On ch=8 n=74 v=0
40740 On ch=8 n=74 v=100
40740 On ch=8 n=77 v=100
40800 On ch=8 n=77 v=0
40800 On ch=8 n=74 v=0
40800 Meta TrkEnd
TrkEnd
MTrk
0 Meta TrkName "Acoustic guitar"
0 Par ch=9 c=0 v=0
0 PrCh ch=9 p=25
29280 On ch=9 n=53 v=100
29280 On ch=9 n=57 v=100
29280 On ch=9 n=60 v=100
29340 On ch=9 n=60 v=0
29340 On ch=9 n=57 v=0
29340 On ch=9 n=53 v=0
29340 On ch=9 n=53 v=100
29340 On ch=9 n=60 v=100
29340 On ch=9 n=57 v=100
29400 On ch=9 n=57 v=0
29400 On ch=9 n=60 v=0
29400 On ch=9 n=53 v=0
29400 On ch=9 n=53 v=100
29400 On ch=9 n=57 v=100
29400 On ch=9 n=60 v=100
29460 On ch=9 n=60 v=0
29460 On ch=9 n=57 v=0
29460 On ch=9 n=53 v=0
29460 On ch=9 n=53 v=100
29460 On ch=9 n=57 v=100
29460 On ch=9 n=60 v=100
29520 On ch=9 n=60 v=0
29520 On ch=9 n=57 v=0
29520 On ch=9 n=53 v=0
29520 On ch=9 n=53 v=100
29520 On ch=9 n=60 v=100
29520 On ch=9 n=57 v=100
29580 On ch=9 n=57 v=0
29580 On ch=9 n=60 v=0
29580 On ch=9 n=53 v=0
29580 On ch=9 n=53 v=100
29580 On ch=9 n=57 v=100
29580 On ch=9 n=60 v=100
29640 On ch=9 n=60 v=0
29640 On ch=9 n=57 v=0
29640 On ch=9 n=53 v=0
29640 On ch=9 n=53 v=100
29640 On ch=9 n=60 v=100
29640 On ch=9 n=57 v=100
29700 On ch=9 n=57 v=0
29700 On ch=9 n=60 v=0
29700 On ch=9 n=53 v=0
29700 On ch=9 n=53 v=100
29700 On ch=9 n=57 v=100
29700 On ch=9 n=60 v=100
29760 On ch=9 n=60 v=0
29760 On ch=9 n=57 v=0
29760 On ch=9 n=53 v=0
29760 On ch=9 n=52 v=100
29760 On ch=9 n=55 v=100
29760 On ch=9 n=62 v=100
29820 On ch=9 n=62 v=0
29820 On ch=9 n=55 v=0
29820 On ch=9 n=52 v=0
29820 On ch=9 n=52 v=100
29820 On ch=9 n=62 v=100
29820 On ch=9 n=55 v=100
29880 On ch=9 n=55 v=0
29880 On ch=9 n=62 v=0
29880 On ch=9 n=52 v=0
29880 On ch=9 n=52 v=100
29880 On ch=9 n=55 v=100
29880 On ch=9 n=62 v=100
29940 On ch=9 n=62 v=0
29940 On ch=9 n=55 v=0
29940 On ch=9 n=52 v=0
29940 On ch=9 n=52 v=100
29940 On ch=9 n=55 v=100
29940 On ch=9 n=62 v=100
30000 On ch=9 n=62 v=0
30000 On ch=9 n=55 v=0
30000 On ch=9 n=52 v=0
30000 On ch=9 n=52 v=100
30000 On ch=9 n=62 v=100
30000 On ch=9 n=55 v=100
30060 On ch=9 n=55 v=0
30060 On ch=9 n=62 v=0
30060 On ch=9 n=52 v=0
30060 On ch=9 n=52 v=100
30060 On ch=9 n=62 v=100
30060 On ch=9 n=55 v=100
30120 On ch=9 n=55 v=0
30120 On ch=9 n=62 v=0
30120 On ch=9 n=52 v=0
30120 On ch=9 n=52 v=100
30120 On ch=9 n=62 v=100
30120 On ch=9 n=55 v=100
30180 On ch=9 n=55 v=0
30180 On ch=9 n=62 v=0
30180 On ch=9 n=52 v=0
30180 On ch=9 n=52 v=100
30180 On ch=9 n=55 v=100
30180 On ch=9 n=62 v=100
30240 On ch=9 n=62 v=0
30240 On ch=9 n=55 v=0
30240 On ch=9 n=52 v=0
30240 On ch=9 n=50 v=100
30240 On ch=9 n=57 v=100
30240 On ch=9 n=64 v=100
30300 On ch=9 n=64 v=0
30300 On ch=9 n=57 v=0
30300 On ch=9 n=50 v=0
30300 On ch=9 n=50 v=100
30300 On ch=9 n=57 v=100
30300 On ch=9 n=64 v=100
30360 On ch=9 n=64 v=0
30360 On ch=9 n=57 v=0
30360 On ch=9 n=50 v=0
30360 On ch=9 n=50 v=100
30360 On ch=9 n=64 v=100
30360 On ch=9 n=57 v=100
30420 On ch=9 n=57 v=0
30420 On ch=9 n=64 v=0
30420 On ch=9 n=50 v=0
30420 On ch=9 n=50 v=100
30420 On ch=9 n=57 v=100
30420 On ch=9 n=64 v=100
30480 On ch=9 n=64 v=0
30480 On ch=9 n=57 v=0
30480 On ch=9 n=50 v=0
30480 On ch=9 n=50 v=100
30480 On ch=9 n=64 v=100
30480 On ch=9 n=57 v=100
30540 On ch=9 n=57 v=0
30540 On ch=9 n=64 v=0
30540 On ch=9 n=50 v=0
30540 On ch=9 n=50 v=100
30540 On ch=9 n=64 v=100
30540 On ch=9 n=57 v=100
30600 On ch=9 n=57 v=0
30600 On ch=9 n=64 v=0
30600 On ch=9 n=50 v=0
30600 On ch=9 n=50 v=100
30600 On ch=9 n=57 v=100
30600 On ch=9 n=64 v=100
30660 On ch=9 n=64 v=0
30660 On ch=9 n=57 v=0
30660 On ch=9 n=50 v=0
30660 On ch=9 n=50 v=100
30660 On ch=9 n=57 v=100
30660 On ch=9 n=64 v=100
30720 On ch=9 n=64 v=0
30720 On ch=9 n=57 v=0
30720 On ch=9 n=50 v=0
30720 On ch=9 n=58 v=100
30720 On ch=9 n=62 v=100
30720 On ch=9 n=65 v=100
30780 On ch=9 n=65 v=0
30780 On ch=9 n=62 v=0
30780 On ch=9 n=58 v=0
30780 On ch=9 n=58 v=100
30780 On ch=9 n=62 v=100
30780 On ch=9 n=65 v=100
30840 On ch=9 n=65 v=0
30840 On ch=9 n=62 v=0
30840 On ch=9 n=58 v=0
30840 On ch=9 n=58 v=100
30840 On ch=9 n=62 v=100
30840 On ch=9 n=65 v=100
30900 On ch=9 n=65 v=0
30900 On ch=9 n=62 v=0
30900 On ch=9 n=58 v=0
30900 On ch=9 n=58 v=100
30900 On ch=9 n=62 v=100
30900 On ch=9 n=65 v=100
30960 On ch=9 n=65 v=0
30960 On ch=9 n=62 v=0
30960 On ch=9 n=58 v=0
30960 On ch=9 n=58 v=100
30960 On ch=9 n=62 v=100
30960 On ch=9 n=65 v=100
31020 On ch=9 n=65 v=0
31020 On ch=9 n=62 v=0
31020 On ch=9 n=58 v=0
31020 On ch=9 n=58 v=100
31020 On ch=9 n=62 v=100
31020 On ch=9 n=65 v=100
31080 On ch=9 n=65 v=0
31080 On ch=9 n=62 v=0
31080 On ch=9 n=58 v=0
31080 On ch=9 n=58 v=100
31080 On ch=9 n=62 v=100
31080 On ch=9 n=65 v=100
31140 On ch=9 n=65 v=0
31140 On ch=9 n=62 v=0
31140 On ch=9 n=58 v=0
31140 On ch=9 n=58 v=100
31140 On ch=9 n=62 v=100
31140 On ch=9 n=65 v=100
31200 On ch=9 n=65 v=0
31200 On ch=9 n=62 v=0
31200 On ch=9 n=58 v=0
31200 On ch=9 n=53 v=100
31200 On ch=9 n=57 v=100
31200 On ch=9 n=60 v=100
31260 On ch=9 n=60 v=0
31260 On ch=9 n=57 v=0
31260 On ch=9 n=53 v=0
31260 On ch=9 n=53 v=100
31260 On ch=9 n=60 v=100
31260 On ch=9 n=57 v=100
31320 On ch=9 n=57 v=0
31320 On ch=9 n=60 v=0
31320 On ch=9 n=53 v=0
31320 On ch=9 n=53 v=100
31320 On ch=9 n=57 v=100
31320 On ch=9 n=60 v=100
31380 On ch=9 n=60 v=0
31380 On ch=9 n=57 v=0
31380 On ch=9 n=53 v=0
31380 On ch=9 n=53 v=100
31380 On ch=9 n=57 v=100
31380 On ch=9 n=60 v=100
31440 On ch=9 n=60 v=0
31440 On ch=9 n=57 v=0
31440 On ch=9 n=53 v=0
31440 On ch=9 n=53 v=100
31440 On ch=9 n=60 v=100
31440 On ch=9 n=57 v=100
31500 On ch=9 n=57 v=0
31500 On ch=9 n=60 v=0
31500 On ch=9 n=53 v=0
31500 On ch=9 n=53 v=100
31500 On ch=9 n=57 v=100
31500 On ch=9 n=60 v=100
31560 On ch=9 n=60 v=0
31560 On ch=9 n=57 v=0
31560 On ch=9 n=53 v=0
31560 On ch=9 n=53 v=100
31560 On ch=9 n=60 v=100
31560 On ch=9 n=57 v=100
31620 On ch=9 n=57 v=0
31620 On ch=9 n=60 v=0
31620 On ch=9 n=53 v=0
31620 On ch=9 n=53 v=100
31620 On ch=9 n=57 v=100
31620 On ch=9 n=60 v=100
31680 On ch=9 n=60 v=0
31680 On ch=9 n=57 v=0
31680 On ch=9 n=53 v=0
31680 On ch=9 n=52 v=100
31680 On ch=9 n=55 v=100
31680 On ch=9 n=62 v=100
31740 On ch=9 n=62 v=0
31740 On ch=9 n=55 v=0
31740 On ch=9 n=52 v=0
31740 On ch=9 n=52 v=100
31740 On ch=9 n=62 v=100
31740 On ch=9 n=55 v=100
31800 On ch=9 n=55 v=0
31800 On ch=9 n=62 v=0
31800 On ch=9 n=52 v=0
31800 On ch=9 n=52 v=100
31800 On ch=9 n=55 v=100
31800 On ch=9 n=62 v=100
31860 On ch=9 n=62 v=0
31860 On ch=9 n=55 v=0
31860 On ch=9 n=52 v=0
31860 On ch=9 n=52 v=100
31860 On ch=9 n=55 v=100
31860 On ch=9 n=62 v=100
31920 On ch=9 n=62 v=0
31920 On ch=9 n=55 v=0
31920 On ch=9 n=52 v=0
31920 On ch=9 n=52 v=100
31920 On ch=9 n=62 v=100
31920 On ch=9 n=55 v=100
31980 On ch=9 n=55 v=0
31980 On ch=9 n=62 v=0
31980 On ch=9 n=52 v=0
31980 On ch=9 n=52 v=100
31980 On ch=9 n=62 v=100
31980 On ch=9 n=55 v=100
32040 On ch=9 n=55 v=0
32040 On ch=9 n=62 v=0
32040 On ch=9 n=52 v=0
32040 On ch=9 n=52 v=100
32040 On ch=9 n=62 v=100
32040 On ch=9 n=55 v=100
32100 On ch=9 n=55 v=0
32100 On ch=9 n=62 v=0
32100 On ch=9 n=52 v=0
32100 On ch=9 n=52 v=100
32100 On ch=9 n=55 v=100
32100 On ch=9 n=62 v=100
32160 On ch=9 n=62 v=0
32160 On ch=9 n=55 v=0
32160 On ch=9 n=52 v=0
32160 On ch=9 n=50 v=100
32160 On ch=9 n=57 v=100
32160 On ch=9 n=64 v=100
32220 On ch=9 n=64 v=0
32220 On ch=9 n=57 v=0
32220 On ch=9 n=50 v=0
32220 On ch=9 n=50 v=100
32220 On ch=9 n=57 v=100
32220 On ch=9 n=64 v=100
32280 On ch=9 n=64 v=0
32280 On ch=9 n=57 v=0
32280 On ch=9 n=50 v=0
32280 On ch=9 n=50 v=100
32280 On ch=9 n=64 v=100
32280 On ch=9 n=57 v=100
32340 On ch=9 n=57 v=0
32340 On ch=9 n=64 v=0
32340 On ch=9 n=50 v=0
32340 On ch=9 n=50 v=100
32340 On ch=9 n=57 v=100
32340 On ch=9 n=64 v=100
32400 On ch=9 n=64 v=0
32400 On ch=9 n=57 v=0
32400 On ch=9 n=50 v=0
32400 On ch=9 n=50 v=100
32400 On ch=9 n=64 v=100
32400 On ch=9 n=57 v=100
32460 On ch=9 n=57 v=0
32460 On ch=9 n=64 v=0
32460 On ch=9 n=50 v=0
32460 On ch=9 n=50 v=100
32460 On ch=9 n=64 v=100
32460 On ch=9 n=57 v=100
32520 On ch=9 n=57 v=0
32520 On ch=9 n=64 v=0
32520 On ch=9 n=50 v=0
32520 On ch=9 n=50 v=100
32520 On ch=9 n=57 v=100
32520 On ch=9 n=64 v=100
32580 On ch=9 n=64 v=0
32580 On ch=9 n=57 v=0
32580 On ch=9 n=50 v=0
32580 On ch=9 n=50 v=100
32580 On ch=9 n=57 v=100
32580 On ch=9 n=64 v=100
32640 On ch=9 n=64 v=0
32640 On ch=9 n=57 v=0
32640 On ch=9 n=50 v=0
32640 On ch=9 n=58 v=100
32640 On ch=9 n=62 v=100
32640 On ch=9 n=65 v=100
32700 On ch=9 n=65 v=0
32700 On ch=9 n=62 v=0
32700 On ch=9 n=58 v=0
32700 On ch=9 n=58 v=100
32700 On ch=9 n=62 v=100
32700 On ch=9 n=65 v=100
32760 On ch=9 n=65 v=0
32760 On ch=9 n=62 v=0
32760 On ch=9 n=58 v=0
32760 On ch=9 n=58 v=100
32760 On ch=9 n=62 v=100
32760 On ch=9 n=65 v=100
32820 On ch=9 n=65 v=0
32820 On ch=9 n=62 v=0
32820 On ch=9 n=58 v=0
32820 On ch=9 n=58 v=100
32820 On ch=9 n=62 v=100
32820 On ch=9 n=65 v=100
32880 On ch=9 n=65 v=0
32880 On ch=9 n=62 v=0
32880 On ch=9 n=58 v=0
32880 On ch=9 n=58 v=100
32880 On ch=9 n=62 v=100
32880 On ch=9 n=65 v=100
32940 On ch=9 n=65 v=0
32940 On ch=9 n=62 v=0
32940 On ch=9 n=58 v=0
32940 On ch=9 n=58 v=100
32940 On ch=9 n=62 v=100
32940 On ch=9 n=65 v=100
33000 On ch=9 n=65 v=0
33000 On ch=9 n=62 v=0
33000 On ch=9 n=58 v=0
33000 On ch=9 n=58 v=100
33000 On ch=9 n=62 v=100
33000 On ch=9 n=65 v=100
33060 On ch=9 n=65 v=0
33060 On ch=9 n=62 v=0
33060 On ch=9 n=58 v=0
33060 On ch=9 n=58 v=100
33060 On ch=9 n=62 v=100
33060 On ch=9 n=65 v=100
33120 On ch=9 n=65 v=0
33120 On ch=9 n=62 v=0
33120 On ch=9 n=58 v=0
33120 Meta TrkEnd
TrkEnd
MTrk
0 Meta TrkName "Melody"
0 Par ch=11 c=0 v=0
0 Par ch=11 c=7 v=127
0 Par ch=11 c=32 v=0
0 PrCh ch=11 p=65
10200 On ch=11 n=69 v=100
10230 On ch=11 n=69 v=0
10230 On ch=11 n=69 v=100
10260 On ch=11 n=69 v=0
10290 On ch=11 n=69 v=100
10350 On ch=11 n=69 v=0
10350 On ch=11 n=67 v=100
10380 On ch=11 n=67 v=0
10410 On ch=11 n=67 v=100
10440 On ch=11 n=67 v=0
10470 On ch=11 n=65 v=100
10500 On ch=11 n=65 v=0
10530 On ch=11 n=67 v=100
10590 On ch=11 n=67 v=0
10590 On ch=11 n=69 v=100
10650 On ch=11 n=69 v=0
10680 On ch=11 n=69 v=100
10710 On ch=11 n=69 v=0
10740 On ch=11 n=69 v=100
10770 On ch=11 n=69 v=0
10770 On ch=11 n=69 v=100
10830 On ch=11 n=69 v=0
10830 On ch=11 n=67 v=100
10890 On ch=11 n=67 v=0
10890 On ch=11 n=67 v=100
10950 On ch=11 n=67 v=0
10950 On ch=11 n=69 v=100
11010 On ch=11 n=69 v=0
11010 On ch=11 n=65 v=100
11070 On ch=11 n=65 v=0
11070 On ch=11 n=62 v=100
11130 On ch=11 n=62 v=0
11160 On ch=11 n=62 v=100
11190 On ch=11 n=62 v=0
11190 On ch=11 n=65 v=100
11220 On ch=11 n=65 v=0
11250 On ch=11 n=69 v=100
11310 On ch=11 n=69 v=0
11310 On ch=11 n=67 v=100
11340 On ch=11 n=67 v=0
11370 On ch=11 n=67 v=100
11400 On ch=11 n=67 v=0
11430 On ch=11 n=65 v=100
11460 On ch=11 n=65 v=0
11490 On ch=11 n=58 v=100
11550 On ch=11 n=58 v=0
11610 On ch=11 n=58 v=100
11640 On ch=11 n=58 v=0
11640 On ch=11 n=62 v=100
11670 On ch=11 n=65 v=100
11674 On ch=11 n=62 v=0
11700 On ch=11 n=65 v=0
11730 On ch=11 n=69 v=100
11779 On ch=11 n=69 v=0
11791 On ch=11 n=67 v=100
11839 On ch=11 n=67 v=0
11852 On ch=11 n=67 v=100
11902 On ch=11 n=67 v=0
11910 On ch=11 n=69 v=100
11964 On ch=11 n=69 v=0
11977 On ch=11 n=65 v=100
12077 On ch=11 n=65 v=0
12090 On ch=11 n=72 v=100
12120 On ch=11 n=72 v=0
12150 On ch=11 n=72 v=100
12180 On ch=11 n=72 v=0
12210 On ch=11 n=72 v=100
12240 On ch=11 n=72 v=0
12270 On ch=11 n=69 v=100
12300 On ch=11 n=69 v=0
12330 On ch=11 n=69 v=100
12360 On ch=11 n=69 v=0
12390 On ch=11 n=67 v=100
12420 On ch=11 n=67 v=0
12450 On ch=11 n=67 v=100
12480 On ch=11 n=67 v=0
12510 On ch=11 n=65 v=100
12570 On ch=11 n=65 v=0
12600 On ch=11 n=62 v=100
12630 On ch=11 n=62 v=0
12630 On ch=11 n=65 v=100
12660 On ch=11 n=65 v=0
12690 On ch=11 n=69 v=100
12750 On ch=11 n=69 v=0
12750 On ch=11 n=67 v=100
12780 On ch=11 n=67 v=0
12810 On ch=11 n=67 v=100
12840 On ch=11 n=67 v=0
12870 On ch=11 n=69 v=100
12900 On ch=11 n=69 v=0
12930 On ch=11 n=65 v=100
12990 On ch=11 n=65 v=0
13080 On ch=11 n=62 v=100
13110 On ch=11 n=62 v=0
13110 On ch=11 n=65 v=100
13140 On ch=11 n=65 v=0
13170 On ch=11 n=69 v=100
13200 On ch=11 n=69 v=0
13230 On ch=11 n=67 v=100
13260 On ch=11 n=67 v=0
13290 On ch=11 n=67 v=100
13320 On ch=11 n=67 v=0
13350 On ch=11 n=65 v=100
13380 On ch=11 n=65 v=0
13410 On ch=11 n=67 v=100
13440 On ch=11 n=67 v=0
13470 On ch=11 n=65 v=100
13530 On ch=11 n=65 v=0
13530 On ch=11 n=65 v=100
13620 On ch=11 n=65 v=0
13680 On ch=11 n=69 v=100
13740 On ch=11 n=69 v=0
13740 On ch=11 n=67 v=100
13800 On ch=11 n=67 v=0
13800 On ch=11 n=69 v=100
13860 On ch=11 n=69 v=0
13860 On ch=11 n=65 v=100
14280 On ch=11 n=65 v=0
14280 On ch=11 n=72 v=100
14400 On ch=11 n=72 v=0
14400 On ch=11 n=67 v=100
14640 On ch=11 n=67 v=0
14760 On ch=11 n=72 v=100
14880 On ch=11 n=72 v=0
14880 On ch=11 n=67 v=100
14940 On ch=11 n=67 v=0
14940 On ch=11 n=65 v=100
15060 On ch=11 n=65 v=0
15120 On ch=11 n=67 v=100
15180 On ch=11 n=67 v=0
15180 On ch=11 n=67 v=100
15240 On ch=11 n=67 v=0
15240 On ch=11 n=65 v=100
15300 On ch=11 n=65 v=0
15300 On ch=11 n=69 v=100
15480 On ch=11 n=69 v=0
15480 On ch=11 n=70 v=100
15540 On ch=11 n=70 v=0
15540 On ch=11 n=67 v=100
15720 On ch=11 n=67 v=0
15720 On ch=11 n=69 v=100
15780 On ch=11 n=69 v=0
15780 On ch=11 n=65 v=100
15960 On ch=11 n=65 v=0
23640 On ch=11 n=69 v=100
23670 On ch=11 n=69 v=0
23670 On ch=11 n=69 v=100
23700 On ch=11 n=69 v=0
23730 On ch=11 n=69 v=100
23790 On ch=11 n=69 v=0
23790 On ch=11 n=67 v=100
23820 On ch=11 n=67 v=0
23850 On ch=11 n=67 v=100
23880 On ch=11 n=67 v=0
23910 On ch=11 n=65 v=100
23940 On ch=11 n=65 v=0
23970 On ch=11 n=67 v=100
24030 On ch=11 n=67 v=0
24030 On ch=11 n=69 v=100
24090 On ch=11 n=69 v=0
24120 On ch=11 n=69 v=100
24150 On ch=11 n=69 v=0
24180 On ch=11 n=69 v=100
24210 On ch=11 n=69 v=0
24210 On ch=11 n=69 v=100
24270 On ch=11 n=69 v=0
24270 On ch=11 n=67 v=100
24330 On ch=11 n=67 v=0
24330 On ch=11 n=67 v=100
24390 On ch=11 n=67 v=0
24390 On ch=11 n=69 v=100
24450 On ch=11 n=69 v=0
24450 On ch=11 n=65 v=100
24510 On ch=11 n=65 v=0
24510 On ch=11 n=62 v=100
24570 On ch=11 n=62 v=0
24600 On ch=11 n=62 v=100
24630 On ch=11 n=62 v=0
24630 On ch=11 n=65 v=100
24660 On ch=11 n=65 v=0
24690 On ch=11 n=69 v=100
24750 On ch=11 n=69 v=0
24750 On ch=11 n=67 v=100
24780 On ch=11 n=67 v=0
24810 On ch=11 n=67 v=100
24840 On ch=11 n=67 v=0
24870 On ch=11 n=65 v=100
24900 On ch=11 n=65 v=0
24930 On ch=11 n=58 v=100
24990 On ch=11 n=58 v=0
25050 On ch=11 n=58 v=100
25080 On ch=11 n=58 v=0
25080 On ch=11 n=62 v=100
25110 On ch=11 n=65 v=100
25114 On ch=11 n=62 v=0
25140 On ch=11 n=65 v=0
25170 On ch=11 n=69 v=100
25219 On ch=11 n=69 v=0
25231 On ch=11 n=67 v=100
25279 On ch=11 n=67 v=0
25292 On ch=11 n=67 v=100
25342 On ch=11 n=67 v=0
25350 On ch=11 n=69 v=100
25404 On ch=11 n=69 v=0
25417 On ch=11 n=65 v=100
25517 On ch=11 n=65 v=0
25530 On ch=11 n=72 v=100
25560 On ch=11 n=72 v=0
25590 On ch=11 n=72 v=100
25620 On ch=11 n=72 v=0
25650 On ch=11 n=72 v=100
25680 On ch=11 n=72 v=0
25710 On ch=11 n=69 v=100
25740 On ch=11 n=69 v=0
25770 On ch=11 n=69 v=100
25800 On ch=11 n=69 v=0
25830 On ch=11 n=67 v=100
25860 On ch=11 n=67 v=0
25890 On ch=11 n=67 v=100
25920 On ch=11 n=67 v=0
25950 On ch=11 n=65 v=100
26010 On ch=11 n=65 v=0
26040 On ch=11 n=62 v=100
26070 On ch=11 n=62 v=0
26070 On ch=11 n=65 v=100
26100 On ch=11 n=65 v=0
26130 On ch=11 n=69 v=100
26190 On ch=11 n=69 v=0
26190 On ch=11 n=67 v=100
26220 On ch=11 n=67 v=0
26250 On ch=11 n=67 v=100
26280 On ch=11 n=67 v=0
26310 On ch=11 n=69 v=100
26340 On ch=11 n=69 v=0
26370 On ch=11 n=65 v=100
26430 On ch=11 n=65 v=0
26520 On ch=11 n=62 v=100
26550 On ch=11 n=62 v=0
26550 On ch=11 n=65 v=100
26580 On ch=11 n=65 v=0
26610 On ch=11 n=69 v=100
26640 On ch=11 n=69 v=0
26670 On ch=11 n=67 v=100
26700 On ch=11 n=67 v=0
26730 On ch=11 n=67 v=100
26760 On ch=11 n=67 v=0
26790 On ch=11 n=65 v=100
26820 On ch=11 n=65 v=0
26850 On ch=11 n=67 v=100
26880 On ch=11 n=67 v=0
26910 On ch=11 n=65 v=100
26970 On ch=11 n=65 v=0
26970 On ch=11 n=65 v=100
27060 On ch=11 n=65 v=0
27120 On ch=11 n=69 v=100
27180 On ch=11 n=69 v=0
27180 On ch=11 n=67 v=100
27240 On ch=11 n=67 v=0
27240 On ch=11 n=69 v=100
27300 On ch=11 n=69 v=0
27300 On ch=11 n=65 v=100
27720 On ch=11 n=65 v=0
27720 On ch=11 n=72 v=100
27840 On ch=11 n=72 v=0
27840 On ch=11 n=67 v=100
28080 On ch=11 n=67 v=0
28200 On ch=11 n=72 v=100
28320 On ch=11 n=72 v=0
28320 On ch=11 n=67 v=100
28380 On ch=11 n=67 v=0
28380 On ch=11 n=65 v=100
28500 On ch=11 n=65 v=0
28560 On ch=11 n=67 v=100
28620 On ch=11 n=67 v=0
28620 On ch=11 n=67 v=100
28680 On ch=11 n=67 v=0
28680 On ch=11 n=65 v=100
28740 On ch=11 n=65 v=0
28740 On ch=11 n=69 v=100
28920 On ch=11 n=69 v=0
28920 On ch=11 n=70 v=100
28980 On ch=11 n=70 v=0
28980 On ch=11 n=67 v=100
29160 On ch=11 n=67 v=0
29160 On ch=11 n=69 v=100
29220 On ch=11 n=69 v=0
29220 On ch=11 n=65 v=100
29400 On ch=11 n=65 v=0
37080 On ch=11 n=69 v=100
37110 On ch=11 n=69 v=0
37110 On ch=11 n=69 v=100
37140 On ch=11 n=69 v=0
37170 On ch=11 n=69 v=100
37230 On ch=11 n=69 v=0
37230 On ch=11 n=67 v=100
37260 On ch=11 n=67 v=0
37290 On ch=11 n=67 v=100
37320 On ch=11 n=67 v=0
37350 On ch=11 n=65 v=100
37380 On ch=11 n=65 v=0
37410 On ch=11 n=67 v=100
37470 On ch=11 n=67 v=0
37470 On ch=11 n=69 v=100
37530 On ch=11 n=69 v=0
37560 On ch=11 n=69 v=100
37590 On ch=11 n=69 v=0
37620 On ch=11 n=69 v=100
37650 On ch=11 n=69 v=0
37650 On ch=11 n=69 v=100
37710 On ch=11 n=69 v=0
37710 On ch=11 n=67 v=100
37770 On ch=11 n=67 v=0
37770 On ch=11 n=67 v=100
37830 On ch=11 n=67 v=0
37830 On ch=11 n=69 v=100
37890 On ch=11 n=69 v=0
37890 On ch=11 n=65 v=100
37950 On ch=11 n=65 v=0
37950 On ch=11 n=62 v=100
38010 On ch=11 n=62 v=0
38040 On ch=11 n=62 v=100
38070 On ch=11 n=62 v=0
38070 On ch=11 n=65 v=100
38100 On ch=11 n=65 v=0
38130 On ch=11 n=69 v=100
38190 On ch=11 n=69 v=0
38190 On ch=11 n=67 v=100
38220 On ch=11 n=67 v=0
38250 On ch=11 n=67 v=100
38280 On ch=11 n=67 v=0
38310 On ch=11 n=65 v=100
38340 On ch=11 n=65 v=0
38370 On ch=11 n=58 v=100
38430 On ch=11 n=58 v=0
38490 On ch=11 n=58 v=100
38520 On ch=11 n=58 v=0
38520 On ch=11 n=62 v=100
38550 On ch=11 n=65 v=100
38554 On ch=11 n=62 v=0
38580 On ch=11 n=65 v=0
38610 On ch=11 n=69 v=100
38659 On ch=11 n=69 v=0
38671 On ch=11 n=67 v=100
38719 On ch=11 n=67 v=0
38732 On ch=11 n=67 v=100
38782 On ch=11 n=67 v=0
38790 On ch=11 n=69 v=100
38844 On ch=11 n=69 v=0
38857 On ch=11 n=65 v=100
38957 On ch=11 n=65 v=0
38970 On ch=11 n=72 v=100
39000 On ch=11 n=72 v=0
39030 On ch=11 n=72 v=100
39060 On ch=11 n=72 v=0
39090 On ch=11 n=72 v=100
39120 On ch=11 n=72 v=0
39150 On ch=11 n=69 v=100
39180 On ch=11 n=69 v=0
39210 On ch=11 n=69 v=100
39240 On ch=11 n=69 v=0
39270 On ch=11 n=67 v=100
39300 On ch=11 n=67 v=0
39330 On ch=11 n=67 v=100
39360 On ch=11 n=67 v=0
39390 On ch=11 n=65 v=100
39450 On ch=11 n=65 v=0
39480 On ch=11 n=62 v=100
39510 On ch=11 n=62 v=0
39510 On ch=11 n=65 v=100
39540 On ch=11 n=65 v=0
39570 On ch=11 n=69 v=100
39630 On ch=11 n=69 v=0
39630 On ch=11 n=67 v=100
39660 On ch=11 n=67 v=0
39690 On ch=11 n=67 v=100
39720 On ch=11 n=67 v=0
39750 On ch=11 n=69 v=100
39780 On ch=11 n=69 v=0
39810 On ch=11 n=65 v=100
39870 On ch=11 n=65 v=0
39960 On ch=11 n=62 v=100
39990 On ch=11 n=62 v=0
39990 On ch=11 n=65 v=100
40020 On ch=11 n=65 v=0
40050 On ch=11 n=69 v=100
40080 On ch=11 n=69 v=0
40110 On ch=11 n=67 v=100
40140 On ch=11 n=67 v=0
40170 On ch=11 n=67 v=100
40200 On ch=11 n=67 v=0
40230 On ch=11 n=65 v=100
40260 On ch=11 n=65 v=0
40290 On ch=11 n=67 v=100
40320 On ch=11 n=67 v=0
40350 On ch=11 n=65 v=100
40410 On ch=11 n=65 v=0
40410 On ch=11 n=65 v=100
40500 On ch=11 n=65 v=0
40560 On ch=11 n=69 v=100
40620 On ch=11 n=69 v=0
40620 On ch=11 n=67 v=100
40680 On ch=11 n=67 v=0
40680 On ch=11 n=69 v=100
40740 On ch=11 n=69 v=0
40740 On ch=11 n=65 v=100
41160 On ch=11 n=65 v=0
41160 On ch=11 n=72 v=100
41280 On ch=11 n=72 v=0
41280 On ch=11 n=67 v=100
41520 On ch=11 n=67 v=0
41520 Par ch=11 c=11 v=127
41530 Par ch=11 c=11 v=126
41539 Par ch=11 c=11 v=125
41550 Par ch=11 c=11 v=124
41558 Par ch=11 c=11 v=123
41566 Par ch=11 c=11 v=122
41577 Par ch=11 c=11 v=121
41585 Par ch=11 c=11 v=120
41593 Par ch=11 c=11 v=119
41604 Par ch=11 c=11 v=118
41612 Par ch=11 c=11 v=117
41620 Par ch=11 c=11 v=116
41631 Par ch=11 c=11 v=115
41640 On ch=11 n=72 v=100
41640 Par ch=11 c=11 v=114
41648 Par ch=11 c=11 v=113
41659 Par ch=11 c=11 v=112
41667 Par ch=11 c=11 v=111
41678 Par ch=11 c=11 v=110
41686 Par ch=11 c=11 v=109
41694 Par ch=11 c=11 v=108
41705 Par ch=11 c=11 v=107
41713 Par ch=11 c=11 v=106
41721 Par ch=11 c=11 v=105
41732 Par ch=11 c=11 v=104
41740 Par ch=11 c=11 v=103
41749 Par ch=11 c=11 v=102
41760 On ch=11 n=72 v=0
41760 On ch=11 n=67 v=100
41760 Par ch=11 c=11 v=101
41768 Par ch=11 c=11 v=100
41776 Par ch=11 c=11 v=99
41787 Par ch=11 c=11 v=98
41795 Par ch=11 c=11 v=97
41806 Par ch=11 c=11 v=96
41814 Par ch=11 c=11 v=95
41820 On ch=11 n=67 v=0
41820 On ch=11 n=65 v=100
41822 Par ch=11 c=11 v=94
41833 Par ch=11 c=11 v=93
41841 Par ch=11 c=11 v=92
41850 Par ch=11 c=11 v=91
41860 Par ch=11 c=11 v=90
41869 Par ch=11 c=11 v=89
41877 Par ch=11 c=11 v=88
41888 Par ch=11 c=11 v=87
41896 Par ch=11 c=11 v=86
41904 Par ch=11 c=11 v=85
41915 Par ch=11 c=11 v=84
41923 Par ch=11 c=11 v=83
41931 Par ch=11 c=11 v=82
41940 On ch=11 n=65 v=0
41942 Par ch=11 c=11 v=81
41950 Par ch=11 c=11 v=80
41961 Par ch=11 c=11 v=79
41970 Par ch=11 c=11 v=78
41978 Par ch=11 c=11 v=77
41989 Par ch=11 c=11 v=76
41997 Par ch=11 c=11 v=75
42000 On ch=11 n=67 v=100
42005 Par ch=11 c=11 v=74
42016 Par ch=11 c=11 v=73
42024 Par ch=11 c=11 v=72
42032 Par ch=11 c=11 v=71
42043 Par ch=11 c=11 v=70
42051 Par ch=11 c=11 v=69
42060 On ch=11 n=67 v=0
42060 On ch=11 n=67 v=100
42060 Par ch=11 c=11 v=68
42070 Par ch=11 c=11 v=67
42079 Par ch=11 c=11 v=66
42090 Par ch=11 c=11 v=65
42098 Par ch=11 c=11 v=64
42106 Par ch=11 c=11 v=63
42117 Par ch=11 c=11 v=62
42120 On ch=11 n=67 v=0
42120 On ch=11 n=65 v=100
42125 Par ch=11 c=11 v=61
42133 Par ch=11 c=11 v=60
42144 Par ch=11 c=11 v=59
42152 Par ch=11 c=11 v=58
42160 Par ch=11 c=11 v=57
42171 Par ch=11 c=11 v=56
42180 On ch=11 n=65 v=0
42180 On ch=11 n=69 v=100
42180 Par ch=11 c=11 v=55
42188 Par ch=11 c=11 v=54
42199 Par ch=11 c=11 v=53
42207 Par ch=11 c=11 v=52
42218 Par ch=11 c=11 v=51
42226 Par ch=11 c=11 v=50
42234 Par ch=11 c=11 v=49
42245 Par ch=11 c=11 v=48
42253 Par ch=11 c=11 v=47
42261 Par ch=11 c=11 v=46
42272 Par ch=11 c=11 v=45
42280 Par ch=11 c=11 v=44
42289 Par ch=11 c=11 v=43
42300 Par ch=11 c=11 v=42
42308 Par ch=11 c=11 v=41
42316 Par ch=11 c=11 v=40
42327 Par ch=11 c=11 v=39
42335 Par ch=11 c=11 v=38
42343 Par ch=11 c=11 v=37
42354 Par ch=11 c=11 v=36
42360 On ch=11 n=69 v=0
42360 On ch=11 n=70 v=100
42362 Par ch=11 c=11 v=35
42373 Par ch=11 c=11 v=34
42381 Par ch=11 c=11 v=33
42390 Par ch=11 c=11 v=32
42400 Par ch=11 c=11 v=31
42409 Par ch=11 c=11 v=30
42417 Par ch=11 c=11 v=29
42420 On ch=11 n=70 v=0
42420 On ch=11 n=67 v=100
42428 Par ch=11 c=11 v=28
42436 Par ch=11 c=11 v=27
42444 Par ch=11 c=11 v=26
42455 Par ch=11 c=11 v=25
42463 Par ch=11 c=11 v=24
42471 Par ch=11 c=11 v=23
42482 Par ch=11 c=11 v=22
42490 Par ch=11 c=11 v=21
42501 Par ch=11 c=11 v=20
42510 Par ch=11 c=11 v=19
42518 Par ch=11 c=11 v=18
42529 Par ch=11 c=11 v=17
42537 Par ch=11 c=11 v=16
42545 Par ch=11 c=11 v=15
42556 Par ch=11 c=11 v=14
42564 Par ch=11 c=11 v=13
42572 Par ch=11 c=11 v=12
42583 Par ch=11 c=11 v=11
42591 Par ch=11 c=11 v=10
42600 On ch=11 n=67 v=0
42600 On ch=11 n=69 v=100
42600 Par ch=11 c=11 v=9
42610 Par ch=11 c=11 v=8
42619 Par ch=11 c=11 v=7
42627 Par ch=11 c=11 v=6
42660 On ch=11 n=69 v=0
42660 On ch=11 n=65 v=100
42840 On ch=11 n=65 v=0
42840 Meta TrkEnd
TrkEnd
MTrk
0 Meta TrkName "Harmony"
0 Par ch=12 c=0 v=0
0 Par ch=12 c=32 v=0
0 PrCh ch=12 p=53
13920 On ch=12 n=69 v=100
14160 On ch=12 n=69 v=0
14280 On ch=12 n=65 v=100
14400 On ch=12 n=65 v=0
14400 On ch=12 n=64 v=100
14640 On ch=12 n=64 v=0
14760 On ch=12 n=65 v=100
14880 On ch=12 n=65 v=0
14880 On ch=12 n=64 v=100
14940 On ch=12 n=64 v=0
14940 On ch=12 n=62 v=100
15060 On ch=12 n=62 v=0
15120 On ch=12 n=64 v=100
15180 On ch=12 n=64 v=0
15180 On ch=12 n=64 v=100
15240 On ch=12 n=64 v=0
15240 On ch=12 n=62 v=100
15300 On ch=12 n=62 v=0
15300 On ch=12 n=65 v=100
15480 On ch=12 n=65 v=0
15480 On ch=12 n=67 v=100
15540 On ch=12 n=67 v=0
15540 On ch=12 n=64 v=100
15720 On ch=12 n=64 v=0
15720 On ch=12 n=64 v=100
15780 On ch=12 n=64 v=0
15780 On ch=12 n=65 v=100
15960 On ch=12 n=65 v=0
27360 On ch=12 n=69 v=100
27600 On ch=12 n=69 v=0
27720 On ch=12 n=65 v=100
27840 On ch=12 n=65 v=0
27840 On ch=12 n=64 v=100
28080 On ch=12 n=64 v=0
28200 On ch=12 n=65 v=100
28320 On ch=12 n=65 v=0
28320 On ch=12 n=64 v=100
28380 On ch=12 n=64 v=0
28380 On ch=12 n=62 v=100
28500 On ch=12 n=62 v=0
28560 On ch=12 n=64 v=100
28620 On ch=12 n=64 v=0
28620 On ch=12 n=64 v=100
28680 On ch=12 n=64 v=0
28680 On ch=12 n=62 v=100
28740 On ch=12 n=62 v=0
28740 On ch=12 n=65 v=100
28920 On ch=12 n=65 v=0
28920 On ch=12 n=67 v=100
28980 On ch=12 n=67 v=0
28980 On ch=12 n=64 v=100
29160 On ch=12 n=64 v=0
29160 On ch=12 n=64 v=100
29220 On ch=12 n=64 v=0
29220 On ch=12 n=65 v=100
29400 On ch=12 n=65 v=0
40800 On ch=12 n=69 v=100
41040 On ch=12 n=69 v=0
41160 On ch=12 n=65 v=100
41280 On ch=12 n=65 v=0
41280 On ch=12 n=64 v=100
41520 On ch=12 n=64 v=0
41520 Par ch=12 c=11 v=127
41530 Par ch=12 c=11 v=126
41539 Par ch=12 c=11 v=125
41550 Par ch=12 c=11 v=124
41558 Par ch=12 c=11 v=123
41566 Par ch=12 c=11 v=122
41577 Par ch=12 c=11 v=121
41585 Par ch=12 c=11 v=120
41593 Par ch=12 c=11 v=119
41604 Par ch=12 c=11 v=118
41612 Par ch=12 c=11 v=117
41620 Par ch=12 c=11 v=116
41631 Par ch=12 c=11 v=115
41640 Par ch=12 c=11 v=114
41640 On ch=12 n=65 v=100
41648 Par ch=12 c=11 v=113
41659 Par ch=12 c=11 v=112
41667 Par ch=12 c=11 v=111
41678 Par ch=12 c=11 v=110
41686 Par ch=12 c=11 v=109
41694 Par ch=12 c=11 v=108
41705 Par ch=12 c=11 v=107
41713 Par ch=12 c=11 v=106
41721 Par ch=12 c=11 v=105
41732 Par ch=12 c=11 v=104
41740 Par ch=12 c=11 v=103
41749 Par ch=12 c=11 v=102
41760 On ch=12 n=65 v=0
41760 Par ch=12 c=11 v=101
41760 On ch=12 n=64 v=100
41768 Par ch=12 c=11 v=100
41776 Par ch=12 c=11 v=99
41787 Par ch=12 c=11 v=98
41795 Par ch=12 c=11 v=97
41806 Par ch=12 c=11 v=96
41814 Par ch=12 c=11 v=95
41820 On ch=12 n=64 v=0
41820 On ch=12 n=62 v=100
41822 Par ch=12 c=11 v=94
41833 Par ch=12 c=11 v=93
41841 Par ch=12 c=11 v=92
41850 Par ch=12 c=11 v=91
41860 Par ch=12 c=11 v=90
41869 Par ch=12 c=11 v=89
41877 Par ch=12 c=11 v=88
41888 Par ch=12 c=11 v=87
41896 Par ch=12 c=11 v=86
41904 Par ch=12 c=11 v=85
41915 Par ch=12 c=11 v=84
41923 Par ch=12 c=11 v=83
41931 Par ch=12 c=11 v=82
41940 On ch=12 n=62 v=0
41942 Par ch=12 c=11 v=81
41950 Par ch=12 c=11 v=80
41961 Par ch=12 c=11 v=79
41970 Par ch=12 c=11 v=78
41978 Par ch=12 c=11 v=77
41989 Par ch=12 c=11 v=76
41997 Par ch=12 c=11 v=75
42000 On ch=12 n=64 v=100
42005 Par ch=12 c=11 v=74
42016 Par ch=12 c=11 v=73
42024 Par ch=12 c=11 v=72
42032 Par ch=12 c=11 v=71
42043 Par ch=12 c=11 v=70
42051 Par ch=12 c=11 v=69
42060 On ch=12 n=64 v=0
42060 On ch=12 n=64 v=100
42060 Par ch=12 c=11 v=68
42070 Par ch=12 c=11 v=67
42079 Par ch=12 c=11 v=66
42090 Par ch=12 c=11 v=65
42098 Par ch=12 c=11 v=64
42106 Par ch=12 c=11 v=63
42117 Par ch=12 c=11 v=62
42120 On ch=12 n=64 v=0
42120 On ch=12 n=62 v=100
42125 Par ch=12 c=11 v=61
42133 Par ch=12 c=11 v=60
42144 Par ch=12 c=11 v=59
42152 Par ch=12 c=11 v=58
42160 Par ch=12 c=11 v=57
42171 Par ch=12 c=11 v=56
42180 On ch=12 n=62 v=0
42180 Par ch=12 c=11 v=55
42180 On ch=12 n=65 v=100
42188 Par ch=12 c=11 v=54
42199 Par ch=12 c=11 v=53
42207 Par ch=12 c=11 v=52
42218 Par ch=12 c=11 v=51
42226 Par ch=12 c=11 v=50
42234 Par ch=12 c=11 v=49
42245 Par ch=12 c=11 v=48
42253 Par ch=12 c=11 v=47
42261 Par ch=12 c=11 v=46
42272 Par ch=12 c=11 v=45
42280 Par ch=12 c=11 v=44
42289 Par ch=12 c=11 v=43
42300 Par ch=12 c=11 v=42
42308 Par ch=12 c=11 v=41
42316 Par ch=12 c=11 v=40
42327 Par ch=12 c=11 v=39
42335 Par ch=12 c=11 v=38
42343 Par ch=12 c=11 v=37
42354 Par ch=12 c=11 v=36
42360 On ch=12 n=65 v=0
42360 On ch=12 n=67 v=100
42362 Par ch=12 c=11 v=35
42373 Par ch=12 c=11 v=34
42381 Par ch=12 c=11 v=33
42390 Par ch=12 c=11 v=32
42400 Par ch=12 c=11 v=31
42409 Par ch=12 c=11 v=30
42417 Par ch=12 c=11 v=29
42420 On ch=12 n=67 v=0
42420 On ch=12 n=64 v=100
42428 Par ch=12 c=11 v=28
42436 Par ch=12 c=11 v=27
42444 Par ch=12 c=11 v=26
42455 Par ch=12 c=11 v=25
42463 Par ch=12 c=11 v=24
42471 Par ch=12 c=11 v=23
42482 Par ch=12 c=11 v=22
42490 Par ch=12 c=11 v=21
42501 Par ch=12 c=11 v=20
42510 Par ch=12 c=11 v=19
42518 Par ch=12 c=11 v=18
42529 Par ch=12 c=11 v=17
42537 Par ch=12 c=11 v=16
42545 Par ch=12 c=11 v=15
42556 Par ch=12 c=11 v=14
42564 Par ch=12 c=11 v=13
42572 Par ch=12 c=11 v=12
42583 Par ch=12 c=11 v=11
42591 Par ch=12 c=11 v=10
42600 On ch=12 n=64 v=0
42600 On ch=12 n=64 v=100
42600 Par ch=12 c=11 v=9
42610 Par ch=12 c=11 v=8
42619 Par ch=12 c=11 v=7
42627 Par ch=12 c=11 v=6
42660 On ch=12 n=64 v=0
42660 On ch=12 n=65 v=100
42840 On ch=12 n=65 v=0
42840 Meta TrkEnd
TrkEnd
MTrk
0 Meta TrkName "mail me at paolorada80@virgilio.it"
0 Meta TrkEnd
TrkEnd
MTrk
0 Meta TrkName "NOT COMMERCIAL USE"
0 Meta TrkEnd
TrkEnd
