MFile 1 13 120
MTrk
0 Meta SeqName "DAITARN III"
0 Meta SeqName "Sigla di cartoni animati"
0 Meta Text "Karaoke version made by Irene, Flavio, Luca.\n"
0 Meta Text "(c) 1999.\n"
0 SMPTE 96 0 3 0 0
0 Meta 0x21 00
0 SysEx f0 41 10 42 12 40 00 7f 00 41 f7
0 Meta 0x21 00
0 TimeSig 4/4 24 8
0 KeySig 0 major
0 Tempo 405405
0 Meta TrkEnd
TrkEnd
MTrk
0 Meta 0x21 00
0 Meta TrkName "Rhythm Guitar"
122 PrCh ch=1 p=28
123 Par ch=1 c=7 v=127
123 Par ch=1 c=10 v=0
480 On ch=1 n=49 v=127
540 On ch=1 n=49 v=0
660 On ch=1 n=47 v=127
720 On ch=1 n=47 v=0
840 On ch=1 n=49 v=127
870 On ch=1 n=49 v=0
960 On ch=1 n=49 v=127
1530 On ch=1 n=49 v=0
2100 On ch=1 n=47 v=127
2190 On ch=1 n=47 v=0
2280 On ch=1 n=49 v=127
2310 On ch=1 n=49 v=0
2400 On ch=1 n=49 v=127
2940 On ch=1 n=49 v=0
7200 On ch=1 n=52 v=127
7230 On ch=1 n=52 v=0
7260 On ch=1 n=52 v=127
7290 On ch=1 n=52 v=0
7320 On ch=1 n=52 v=127
7350 On ch=1 n=52 v=0
7380 On ch=1 n=52 v=127
7410 On ch=1 n=52 v=0
7440 On ch=1 n=52 v=127
7470 On ch=1 n=52 v=0
7500 On ch=1 n=52 v=127
7530 On ch=1 n=52 v=0
7560 On ch=1 n=52 v=127
7590 On ch=1 n=52 v=0
7620 On ch=1 n=52 v=127
7650 On ch=1 n=52 v=0
7680 On ch=1 n=52 v=127
7710 On ch=1 n=52 v=0
7740 On ch=1 n=52 v=127
7770 On ch=1 n=52 v=0
7800 On ch=1 n=52 v=127
7830 On ch=1 n=52 v=0
7860 On ch=1 n=52 v=127
7890 On ch=1 n=52 v=0
7920 On ch=1 n=52 v=127
7950 On ch=1 n=52 v=0
7980 On ch=1 n=52 v=127
8010 On ch=1 n=52 v=0
8040 On ch=1 n=52 v=127
8070 On ch=1 n=52 v=0
8100 On ch=1 n=52 v=127
8130 On ch=1 n=52 v=0
8160 On ch=1 n=56 v=127
8190 On ch=1 n=56 v=0
8220 On ch=1 n=56 v=127
8250 On ch=1 n=56 v=0
8280 On ch=1 n=56 v=127
8310 On ch=1 n=56 v=0
8340 On ch=1 n=56 v=127
8370 On ch=1 n=56 v=0
8400 On ch=1 n=56 v=127
8430 On ch=1 n=56 v=0
8460 On ch=1 n=56 v=127
8490 On ch=1 n=56 v=0
8520 On ch=1 n=56 v=127
8550 On ch=1 n=56 v=0
8580 On ch=1 n=56 v=127
8610 On ch=1 n=56 v=0
8640 On ch=1 n=56 v=127
8670 On ch=1 n=56 v=0
8700 On ch=1 n=56 v=127
8730 On ch=1 n=56 v=0
8760 On ch=1 n=56 v=127
8790 On ch=1 n=56 v=0
8820 On ch=1 n=56 v=127
8850 On ch=1 n=56 v=0
8880 On ch=1 n=56 v=127
8910 On ch=1 n=56 v=0
8940 On ch=1 n=56 v=127
8970 On ch=1 n=56 v=0
9000 On ch=1 n=56 v=127
9030 On ch=1 n=56 v=0
9060 On ch=1 n=56 v=127
9090 On ch=1 n=56 v=0
9122 On ch=1 n=49 v=127
9152 On ch=1 n=49 v=0
9182 On ch=1 n=49 v=127
9212 On ch=1 n=49 v=0
9242 On ch=1 n=49 v=127
9272 On ch=1 n=49 v=0
9302 On ch=1 n=49 v=127
9332 On ch=1 n=49 v=0
9362 On ch=1 n=49 v=127
9392 On ch=1 n=49 v=0
9422 On ch=1 n=49 v=127
9452 On ch=1 n=49 v=0
9482 On ch=1 n=49 v=127
9512 On ch=1 n=49 v=0
9542 On ch=1 n=49 v=127
9572 On ch=1 n=49 v=0
9602 On ch=1 n=49 v=127
9632 On ch=1 n=49 v=0
9662 On ch=1 n=49 v=127
9692 On ch=1 n=49 v=0
9722 On ch=1 n=49 v=127
9752 On ch=1 n=49 v=0
9782 On ch=1 n=49 v=127
9812 On ch=1 n=49 v=0
9842 On ch=1 n=49 v=127
9872 On ch=1 n=49 v=0
9902 On ch=1 n=49 v=127
9932 On ch=1 n=49 v=0
9962 On ch=1 n=49 v=127
9992 On ch=1 n=49 v=0
10022 On ch=1 n=49 v=127
10052 On ch=1 n=49 v=0
10080 On ch=1 n=45 v=127
10110 On ch=1 n=45 v=0
10140 On ch=1 n=45 v=127
10170 On ch=1 n=45 v=0
10200 On ch=1 n=45 v=127
10230 On ch=1 n=45 v=0
10260 On ch=1 n=45 v=127
10290 On ch=1 n=45 v=0
10320 On ch=1 n=45 v=127
10350 On ch=1 n=45 v=0
10380 On ch=1 n=45 v=127
10410 On ch=1 n=45 v=0
10440 On ch=1 n=45 v=127
10470 On ch=1 n=45 v=0
10500 On ch=1 n=45 v=127
10530 On ch=1 n=45 v=0
10560 On ch=1 n=47 v=127
10590 On ch=1 n=47 v=0
10620 On ch=1 n=47 v=127
10650 On ch=1 n=47 v=0
10680 On ch=1 n=47 v=127
10710 On ch=1 n=47 v=0
10740 On ch=1 n=47 v=127
10770 On ch=1 n=47 v=0
10800 On ch=1 n=47 v=127
10830 On ch=1 n=47 v=0
10860 On ch=1 n=47 v=127
10890 On ch=1 n=47 v=0
10920 On ch=1 n=47 v=127
10950 On ch=1 n=47 v=0
10980 On ch=1 n=47 v=127
11010 On ch=1 n=47 v=0
11040 On ch=1 n=52 v=127
11070 On ch=1 n=52 v=0
11100 On ch=1 n=52 v=127
11130 On ch=1 n=52 v=0
11160 On ch=1 n=52 v=127
11190 On ch=1 n=52 v=0
11220 On ch=1 n=52 v=127
11250 On ch=1 n=52 v=0
11280 On ch=1 n=52 v=127
11310 On ch=1 n=52 v=0
11340 On ch=1 n=52 v=127
11370 On ch=1 n=52 v=0
11400 On ch=1 n=52 v=127
11430 On ch=1 n=52 v=0
11460 On ch=1 n=52 v=127
11490 On ch=1 n=52 v=0
11520 On ch=1 n=52 v=127
11550 On ch=1 n=52 v=0
11580 On ch=1 n=52 v=127
11610 On ch=1 n=52 v=0
11640 On ch=1 n=52 v=127
11670 On ch=1 n=52 v=0
11700 On ch=1 n=52 v=127
11730 On ch=1 n=52 v=0
11760 On ch=1 n=52 v=127
11790 On ch=1 n=52 v=0
11820 On ch=1 n=52 v=127
11850 On ch=1 n=52 v=0
11880 On ch=1 n=52 v=127
11910 On ch=1 n=52 v=0
11940 On ch=1 n=52 v=127
11970 On ch=1 n=52 v=0
12000 On ch=1 n=54 v=127
12000 On ch=1 n=56 v=127
12030 On ch=1 n=56 v=0
12030 On ch=1 n=54 v=0
12060 On ch=1 n=56 v=127
12090 On ch=1 n=56 v=0
12120 On ch=1 n=56 v=127
12150 On ch=1 n=56 v=0
12180 On ch=1 n=56 v=127
12210 On ch=1 n=56 v=0
12240 On ch=1 n=56 v=127
12270 On ch=1 n=56 v=0
12300 On ch=1 n=56 v=127
12330 On ch=1 n=56 v=0
12360 On ch=1 n=56 v=127
12390 On ch=1 n=56 v=0
12420 On ch=1 n=56 v=127
12450 On ch=1 n=56 v=0
12480 On ch=1 n=56 v=127
12510 On ch=1 n=56 v=0
12540 On ch=1 n=56 v=127
12570 On ch=1 n=56 v=0
12600 On ch=1 n=56 v=127
12630 On ch=1 n=56 v=0
12660 On ch=1 n=56 v=127
12690 On ch=1 n=56 v=0
12720 On ch=1 n=56 v=127
12750 On ch=1 n=56 v=0
12780 On ch=1 n=56 v=127
12810 On ch=1 n=56 v=0
12840 On ch=1 n=56 v=127
12870 On ch=1 n=56 v=0
12900 On ch=1 n=56 v=127
12930 On ch=1 n=56 v=0
12960 On ch=1 n=49 v=127
12990 On ch=1 n=49 v=0
13020 On ch=1 n=49 v=127
13050 On ch=1 n=49 v=0
13080 On ch=1 n=49 v=127
13110 On ch=1 n=49 v=0
13140 On ch=1 n=49 v=127
13170 On ch=1 n=49 v=0
13200 On ch=1 n=49 v=127
13230 On ch=1 n=49 v=0
13260 On ch=1 n=49 v=127
13290 On ch=1 n=49 v=0
13320 On ch=1 n=49 v=127
13350 On ch=1 n=49 v=0
13380 On ch=1 n=49 v=127
13410 On ch=1 n=49 v=0
13440 On ch=1 n=49 v=127
13470 On ch=1 n=49 v=0
13500 On ch=1 n=49 v=127
13530 On ch=1 n=49 v=0
13560 On ch=1 n=49 v=127
13590 On ch=1 n=49 v=0
13620 On ch=1 n=49 v=127
13650 On ch=1 n=49 v=0
13680 On ch=1 n=49 v=127
13710 On ch=1 n=49 v=0
13740 On ch=1 n=49 v=127
13770 On ch=1 n=49 v=0
13800 On ch=1 n=49 v=127
13830 On ch=1 n=49 v=0
13860 On ch=1 n=49 v=127
13890 On ch=1 n=49 v=0
13920 On ch=1 n=45 v=127
13950 On ch=1 n=45 v=0
13980 On ch=1 n=45 v=127
14010 On ch=1 n=45 v=0
14040 On ch=1 n=45 v=127
14070 On ch=1 n=45 v=0
14100 On ch=1 n=45 v=127
14130 On ch=1 n=45 v=0
14160 On ch=1 n=45 v=127
14190 On ch=1 n=45 v=0
14220 On ch=1 n=45 v=127
14250 On ch=1 n=45 v=0
14280 On ch=1 n=45 v=127
14310 On ch=1 n=45 v=0
14340 On ch=1 n=45 v=127
14370 On ch=1 n=45 v=0
14400 On ch=1 n=47 v=127
14430 On ch=1 n=47 v=0
14460 On ch=1 n=47 v=127
14490 On ch=1 n=47 v=0
14520 On ch=1 n=47 v=127
14550 On ch=1 n=47 v=0
14580 On ch=1 n=47 v=127
14610 On ch=1 n=47 v=0
14640 On ch=1 n=47 v=127
14670 On ch=1 n=47 v=0
14700 On ch=1 n=47 v=127
14730 On ch=1 n=47 v=0
14760 On ch=1 n=47 v=127
14790 On ch=1 n=47 v=0
14820 On ch=1 n=47 v=127
14850 On ch=1 n=47 v=0
28323 On ch=1 n=52 v=127
28353 On ch=1 n=52 v=0
28383 On ch=1 n=52 v=127
28413 On ch=1 n=52 v=0
28443 On ch=1 n=52 v=127
28473 On ch=1 n=52 v=0
28503 On ch=1 n=52 v=127
28533 On ch=1 n=52 v=0
28563 On ch=1 n=52 v=127
28593 On ch=1 n=52 v=0
28623 On ch=1 n=52 v=127
28653 On ch=1 n=52 v=0
28683 On ch=1 n=52 v=127
28713 On ch=1 n=52 v=0
28743 On ch=1 n=52 v=127
28773 On ch=1 n=52 v=0
28803 On ch=1 n=52 v=127
28833 On ch=1 n=52 v=0
28863 On ch=1 n=52 v=127
28893 On ch=1 n=52 v=0
28923 On ch=1 n=52 v=127
28953 On ch=1 n=52 v=0
28983 On ch=1 n=52 v=127
29013 On ch=1 n=52 v=0
29043 On ch=1 n=52 v=127
29073 On ch=1 n=52 v=0
29103 On ch=1 n=52 v=127
29133 On ch=1 n=52 v=0
29163 On ch=1 n=52 v=127
29193 On ch=1 n=52 v=0
29223 On ch=1 n=52 v=127
29253 On ch=1 n=52 v=0
29283 On ch=1 n=56 v=127
29313 On ch=1 n=56 v=0
29343 On ch=1 n=56 v=127
29373 On ch=1 n=56 v=0
29403 On ch=1 n=56 v=127
29433 On ch=1 n=56 v=0
29463 On ch=1 n=56 v=127
29493 On ch=1 n=56 v=0
29523 On ch=1 n=56 v=127
29553 On ch=1 n=56 v=0
29583 On ch=1 n=56 v=127
29613 On ch=1 n=56 v=0
29643 On ch=1 n=56 v=127
29673 On ch=1 n=56 v=0
29703 On ch=1 n=56 v=127
29733 On ch=1 n=56 v=0
29763 On ch=1 n=56 v=127
29793 On ch=1 n=56 v=0
29823 On ch=1 n=56 v=127
29853 On ch=1 n=56 v=0
29883 On ch=1 n=56 v=127
29913 On ch=1 n=56 v=0
29943 On ch=1 n=56 v=127
29973 On ch=1 n=56 v=0
30003 On ch=1 n=56 v=127
30033 On ch=1 n=56 v=0
30063 On ch=1 n=56 v=127
30093 On ch=1 n=56 v=0
30123 On ch=1 n=56 v=127
30153 On ch=1 n=56 v=0
30183 On ch=1 n=56 v=127
30213 On ch=1 n=56 v=0
30245 On ch=1 n=49 v=127
30275 On ch=1 n=49 v=0
30305 On ch=1 n=49 v=127
30335 On ch=1 n=49 v=0
30365 On ch=1 n=49 v=127
30395 On ch=1 n=49 v=0
30425 On ch=1 n=49 v=127
30455 On ch=1 n=49 v=0
30485 On ch=1 n=49 v=127
30515 On ch=1 n=49 v=0
30545 On ch=1 n=49 v=127
30575 On ch=1 n=49 v=0
30605 On ch=1 n=49 v=127
30635 On ch=1 n=49 v=0
30665 On ch=1 n=49 v=127
30695 On ch=1 n=49 v=0
30725 On ch=1 n=49 v=127
30755 On ch=1 n=49 v=0
30785 On ch=1 n=49 v=127
30815 On ch=1 n=49 v=0
30845 On ch=1 n=49 v=127
30875 On ch=1 n=49 v=0
30905 On ch=1 n=49 v=127
30935 On ch=1 n=49 v=0
30965 On ch=1 n=49 v=127
30995 On ch=1 n=49 v=0
31025 On ch=1 n=49 v=127
31055 On ch=1 n=49 v=0
31085 On ch=1 n=49 v=127
31115 On ch=1 n=49 v=0
31145 On ch=1 n=49 v=127
31175 On ch=1 n=49 v=0
31203 On ch=1 n=45 v=127
31233 On ch=1 n=45 v=0
31263 On ch=1 n=45 v=127
31293 On ch=1 n=45 v=0
31323 On ch=1 n=45 v=127
31353 On ch=1 n=45 v=0
31383 On ch=1 n=45 v=127
31413 On ch=1 n=45 v=0
31443 On ch=1 n=45 v=127
31473 On ch=1 n=45 v=0
31503 On ch=1 n=45 v=127
31533 On ch=1 n=45 v=0
31563 On ch=1 n=45 v=127
31593 On ch=1 n=45 v=0
31623 On ch=1 n=45 v=127
31653 On ch=1 n=45 v=0
31683 On ch=1 n=47 v=127
31713 On ch=1 n=47 v=0
31743 On ch=1 n=47 v=127
31773 On ch=1 n=47 v=0
31803 On ch=1 n=47 v=127
31833 On ch=1 n=47 v=0
31863 On ch=1 n=47 v=127
31893 On ch=1 n=47 v=0
31923 On ch=1 n=47 v=127
31953 On ch=1 n=47 v=0
31983 On ch=1 n=47 v=127
32013 On ch=1 n=47 v=0
32043 On ch=1 n=47 v=127
32073 On ch=1 n=47 v=0
32103 On ch=1 n=47 v=127
32133 On ch=1 n=47 v=0
32163 On ch=1 n=52 v=127
32193 On ch=1 n=52 v=0
32223 On ch=1 n=52 v=127
32253 On ch=1 n=52 v=0
32283 On ch=1 n=52 v=127
32313 On ch=1 n=52 v=0
32343 On ch=1 n=52 v=127
32373 On ch=1 n=52 v=0
32403 On ch=1 n=52 v=127
32433 On ch=1 n=52 v=0
32463 On ch=1 n=52 v=127
32493 On ch=1 n=52 v=0
32523 On ch=1 n=52 v=127
32553 On ch=1 n=52 v=0
32583 On ch=1 n=52 v=127
32613 On ch=1 n=52 v=0
32643 On ch=1 n=52 v=127
32673 On ch=1 n=52 v=0
32703 On ch=1 n=52 v=127
32733 On ch=1 n=52 v=0
32763 On ch=1 n=52 v=127
32793 On ch=1 n=52 v=0
32823 On ch=1 n=52 v=127
32853 On ch=1 n=52 v=0
32883 On ch=1 n=52 v=127
32913 On ch=1 n=52 v=0
32943 On ch=1 n=52 v=127
32973 On ch=1 n=52 v=0
33003 On ch=1 n=52 v=127
33033 On ch=1 n=52 v=0
33063 On ch=1 n=52 v=127
33093 On ch=1 n=52 v=0
33123 On ch=1 n=54 v=127
33123 On ch=1 n=56 v=127
33153 On ch=1 n=56 v=0
33153 On ch=1 n=54 v=0
33183 On ch=1 n=56 v=127
33213 On ch=1 n=56 v=0
33243 On ch=1 n=56 v=127
33273 On ch=1 n=56 v=0
33303 On ch=1 n=56 v=127
33333 On ch=1 n=56 v=0
33363 On ch=1 n=56 v=127
33393 On ch=1 n=56 v=0
33423 On ch=1 n=56 v=127
33453 On ch=1 n=56 v=0
33483 On ch=1 n=56 v=127
33513 On ch=1 n=56 v=0
33543 On ch=1 n=56 v=127
33573 On ch=1 n=56 v=0
33603 On ch=1 n=56 v=127
33633 On ch=1 n=56 v=0
33663 On ch=1 n=56 v=127
33693 On ch=1 n=56 v=0
33723 On ch=1 n=56 v=127
33753 On ch=1 n=56 v=0
33783 On ch=1 n=56 v=127
33813 On ch=1 n=56 v=0
33843 On ch=1 n=56 v=127
33873 On ch=1 n=56 v=0
33903 On ch=1 n=56 v=127
33933 On ch=1 n=56 v=0
33963 On ch=1 n=56 v=127
33993 On ch=1 n=56 v=0
34023 On ch=1 n=56 v=127
34053 On ch=1 n=56 v=0
34083 On ch=1 n=49 v=127
34113 On ch=1 n=49 v=0
34143 On ch=1 n=49 v=127
34173 On ch=1 n=49 v=0
34203 On ch=1 n=49 v=127
34233 On ch=1 n=49 v=0
34263 On ch=1 n=49 v=127
34293 On ch=1 n=49 v=0
34323 On ch=1 n=49 v=127
34353 On ch=1 n=49 v=0
34383 On ch=1 n=49 v=127
34413 On ch=1 n=49 v=0
34443 On ch=1 n=49 v=127
34473 On ch=1 n=49 v=0
34503 On ch=1 n=49 v=127
34533 On ch=1 n=49 v=0
34563 On ch=1 n=49 v=127
34593 On ch=1 n=49 v=0
34623 On ch=1 n=49 v=127
34653 On ch=1 n=49 v=0
34683 On ch=1 n=49 v=127
34713 On ch=1 n=49 v=0
34743 On ch=1 n=49 v=127
34773 On ch=1 n=49 v=0
34803 On ch=1 n=49 v=127
34833 On ch=1 n=49 v=0
34863 On ch=1 n=49 v=127
34893 On ch=1 n=49 v=0
34923 On ch=1 n=49 v=127
34953 On ch=1 n=49 v=0
34983 On ch=1 n=49 v=127
35013 On ch=1 n=49 v=0
35043 On ch=1 n=45 v=127
35073 On ch=1 n=45 v=0
35103 On ch=1 n=45 v=127
35133 On ch=1 n=45 v=0
35163 On ch=1 n=45 v=127
35193 On ch=1 n=45 v=0
35223 On ch=1 n=45 v=127
35253 On ch=1 n=45 v=0
35283 On ch=1 n=45 v=127
35313 On ch=1 n=45 v=0
35343 On ch=1 n=45 v=127
35373 On ch=1 n=45 v=0
35403 On ch=1 n=45 v=127
35433 On ch=1 n=45 v=0
35463 On ch=1 n=45 v=127
35493 On ch=1 n=45 v=0
35523 On ch=1 n=47 v=127
35553 On ch=1 n=47 v=0
35583 On ch=1 n=47 v=127
35613 On ch=1 n=47 v=0
35643 On ch=1 n=47 v=127
35673 On ch=1 n=47 v=0
35703 On ch=1 n=47 v=127
35733 On ch=1 n=47 v=0
35763 On ch=1 n=47 v=127
35793 On ch=1 n=47 v=0
35823 On ch=1 n=47 v=127
35853 On ch=1 n=47 v=0
35883 On ch=1 n=47 v=127
35913 On ch=1 n=47 v=0
35943 On ch=1 n=47 v=127
35973 On ch=1 n=47 v=0
35973 Meta TrkEnd
TrkEnd
MTrk
0 Meta 0x21 00
0 Meta TrkName "Bass"
127 PrCh ch=2 p=33
128 Par ch=2 c=7 v=127
489 On ch=2 n=37 v=127
531 On ch=2 n=37 v=0
666 On ch=2 n=35 v=127
718 On ch=2 n=35 v=0
847 On ch=2 n=37 v=127
884 On ch=2 n=37 v=0
966 On ch=2 n=37 v=127
1008 On ch=2 n=37 v=0
1081 On ch=2 n=37 v=127
1127 On ch=2 n=37 v=0
1196 On ch=2 n=37 v=127
1251 On ch=2 n=37 v=0
1318 On ch=2 n=37 v=127
1373 On ch=2 n=37 v=0
1439 On ch=2 n=37 v=127
1496 On ch=2 n=37 v=0
1564 On ch=2 n=37 v=127
1617 On ch=2 n=37 v=0
1681 On ch=2 n=37 v=127
1725 On ch=2 n=37 v=0
1742 On ch=2 n=32 v=127
1800 On ch=2 n=35 v=127
1802 On ch=2 n=32 v=0
1849 On ch=2 n=35 v=0
1856 On ch=2 n=32 v=127
1913 On ch=2 n=32 v=0
1920 On ch=2 n=37 v=127
1984 On ch=2 n=37 v=0
2100 On ch=2 n=35 v=127
2173 On ch=2 n=35 v=0
2278 On ch=2 n=37 v=127
2324 On ch=2 n=37 v=0
2405 On ch=2 n=37 v=127
2459 On ch=2 n=37 v=0
2523 On ch=2 n=37 v=127
2578 On ch=2 n=37 v=0
2644 On ch=2 n=37 v=127
2700 On ch=2 n=37 v=0
2764 On ch=2 n=37 v=127
2816 On ch=2 n=37 v=0
2888 On ch=2 n=37 v=127
2939 On ch=2 n=37 v=0
3001 On ch=2 n=37 v=127
3050 On ch=2 n=37 v=0
3117 On ch=2 n=37 v=127
3178 On ch=2 n=32 v=127
3182 On ch=2 n=37 v=0
3238 On ch=2 n=35 v=127
3240 On ch=2 n=32 v=0
3298 On ch=2 n=32 v=125
3304 On ch=2 n=35 v=0
3364 On ch=2 n=37 v=127
3367 On ch=2 n=32 v=0
3418 On ch=2 n=37 v=0
3483 On ch=2 n=37 v=127
3484 On ch=2 n=35 v=125
3517 On ch=2 n=35 v=0
3532 On ch=2 n=32 v=127
3536 On ch=2 n=37 v=0
3600 On ch=2 n=35 v=127
3608 On ch=2 n=32 v=0
3660 On ch=2 n=37 v=127
3662 On ch=2 n=35 v=0
3732 On ch=2 n=37 v=0
3783 On ch=2 n=37 v=127
3961 On ch=2 n=40 v=127
3962 On ch=2 n=37 v=0
4016 On ch=2 n=32 v=127
4021 On ch=2 n=40 v=0
4080 On ch=2 n=35 v=127
4089 On ch=2 n=32 v=0
4199 On ch=2 n=35 v=0
4202 On ch=2 n=37 v=127
4318 On ch=2 n=37 v=0
4320 On ch=2 n=42 v=127
4370 On ch=2 n=42 v=0
4440 On ch=2 n=42 v=127
4502 On ch=2 n=37 v=124
4503 On ch=2 n=42 v=0
4558 On ch=2 n=40 v=127
4562 On ch=2 n=37 v=0
4617 On ch=2 n=42 v=127
4626 On ch=2 n=40 v=0
4669 On ch=2 n=42 v=0
4735 On ch=2 n=42 v=127
4916 On ch=2 n=45 v=127
4919 On ch=2 n=42 v=0
4969 On ch=2 n=37 v=127
4976 On ch=2 n=45 v=0
5042 On ch=2 n=40 v=127
5048 On ch=2 n=37 v=0
5157 On ch=2 n=40 v=0
5159 On ch=2 n=42 v=127
5238 On ch=2 n=42 v=0
5281 On ch=2 n=37 v=127
5340 On ch=2 n=37 v=0
5397 On ch=2 n=37 v=127
5459 On ch=2 n=32 v=127
5463 On ch=2 n=37 v=0
5518 On ch=2 n=35 v=127
5520 On ch=2 n=32 v=0
5577 On ch=2 n=35 v=0
5577 On ch=2 n=37 v=127
5653 On ch=2 n=37 v=0
5699 On ch=2 n=37 v=127
5878 On ch=2 n=37 v=0
5878 On ch=2 n=40 v=127
5932 On ch=2 n=32 v=124
5948 On ch=2 n=40 v=0
5997 On ch=2 n=35 v=127
6002 On ch=2 n=32 v=0
6110 On ch=2 n=35 v=0
6117 On ch=2 n=37 v=127
6214 On ch=2 n=37 v=0
6234 On ch=2 n=42 v=127
6304 On ch=2 n=42 v=0
6361 On ch=2 n=42 v=127
6419 On ch=2 n=37 v=127
6426 On ch=2 n=42 v=0
6475 On ch=2 n=40 v=127
6484 On ch=2 n=37 v=0
6535 On ch=2 n=42 v=127
6540 On ch=2 n=40 v=0
6604 On ch=2 n=42 v=0
6652 On ch=2 n=42 v=127
6840 On ch=2 n=45 v=127
6842 On ch=2 n=42 v=0
6895 On ch=2 n=37 v=127
6896 On ch=2 n=45 v=0
6957 On ch=2 n=40 v=127
6962 On ch=2 n=37 v=0
7079 On ch=2 n=40 v=0
7079 On ch=2 n=42 v=127
7192 On ch=2 n=42 v=0
7202 On ch=2 n=28 v=127
7238 On ch=2 n=28 v=0
7263 On ch=2 n=28 v=127
7294 On ch=2 n=28 v=0
7321 On ch=2 n=28 v=127
7353 On ch=2 n=28 v=0
7379 On ch=2 n=28 v=127
7411 On ch=2 n=28 v=0
7437 On ch=2 n=28 v=127
7470 On ch=2 n=28 v=0
7495 On ch=2 n=28 v=127
7529 On ch=2 n=28 v=0
7557 On ch=2 n=28 v=127
7597 On ch=2 n=28 v=0
7619 On ch=2 n=28 v=125
7650 On ch=2 n=28 v=0
7686 On ch=2 n=28 v=127
7722 On ch=2 n=28 v=0
7746 On ch=2 n=28 v=127
7776 On ch=2 n=28 v=0
7807 On ch=2 n=28 v=127
7840 On ch=2 n=28 v=0
7866 On ch=2 n=28 v=127
7897 On ch=2 n=28 v=0
7925 On ch=2 n=28 v=127
7956 On ch=2 n=28 v=0
7983 On ch=2 n=28 v=127
8013 On ch=2 n=28 v=0
8042 On ch=2 n=28 v=127
8077 On ch=2 n=28 v=0
8103 On ch=2 n=28 v=127
8133 On ch=2 n=28 v=0
8162 On ch=2 n=32 v=127
8193 On ch=2 n=32 v=0
8220 On ch=2 n=32 v=127
8248 On ch=2 n=32 v=0
8282 On ch=2 n=32 v=127
8313 On ch=2 n=32 v=0
8341 On ch=2 n=32 v=127
8369 On ch=2 n=32 v=0
8400 On ch=2 n=32 v=127
8430 On ch=2 n=32 v=0
8457 On ch=2 n=32 v=124
8488 On ch=2 n=32 v=0
8520 On ch=2 n=32 v=127
8551 On ch=2 n=32 v=0
8581 On ch=2 n=32 v=125
8610 On ch=2 n=32 v=0
8645 On ch=2 n=32 v=127
8678 On ch=2 n=32 v=0
8705 On ch=2 n=32 v=125
8733 On ch=2 n=32 v=0
8764 On ch=2 n=32 v=127
8796 On ch=2 n=32 v=0
8818 On ch=2 n=32 v=119
8847 On ch=2 n=32 v=0
8875 On ch=2 n=32 v=127
8908 On ch=2 n=32 v=0
8931 On ch=2 n=32 v=124
8964 On ch=2 n=32 v=0
8992 On ch=2 n=32 v=127
9020 On ch=2 n=32 v=0
9047 On ch=2 n=32 v=127
9078 On ch=2 n=32 v=0
9117 On ch=2 n=37 v=127
9146 On ch=2 n=37 v=0
9168 On ch=2 n=37 v=127
9202 On ch=2 n=37 v=0
9238 On ch=2 n=37 v=127
9270 On ch=2 n=37 v=0
9296 On ch=2 n=37 v=127
9324 On ch=2 n=37 v=0
9360 On ch=2 n=37 v=127
9393 On ch=2 n=37 v=0
9420 On ch=2 n=37 v=123
9450 On ch=2 n=37 v=0
9483 On ch=2 n=37 v=127
9513 On ch=2 n=37 v=0
9537 On ch=2 n=37 v=125
9564 On ch=2 n=37 v=0
9600 On ch=2 n=37 v=127
9630 On ch=2 n=37 v=0
9660 On ch=2 n=37 v=127
9687 On ch=2 n=37 v=0
9719 On ch=2 n=37 v=127
9749 On ch=2 n=37 v=0
9780 On ch=2 n=37 v=127
9805 On ch=2 n=37 v=0
9837 On ch=2 n=37 v=127
9864 On ch=2 n=37 v=0
9893 On ch=2 n=37 v=127
9923 On ch=2 n=37 v=0
9958 On ch=2 n=37 v=127
9984 On ch=2 n=37 v=0
10015 On ch=2 n=37 v=127
10043 On ch=2 n=37 v=0
10078 On ch=2 n=33 v=127
10111 On ch=2 n=33 v=0
10134 On ch=2 n=33 v=125
10167 On ch=2 n=33 v=0
10198 On ch=2 n=33 v=127
10228 On ch=2 n=33 v=0
10255 On ch=2 n=33 v=127
10288 On ch=2 n=33 v=0
10312 On ch=2 n=33 v=127
10341 On ch=2 n=33 v=0
10373 On ch=2 n=33 v=127
10405 On ch=2 n=33 v=0
10434 On ch=2 n=33 v=127
10467 On ch=2 n=33 v=0
10495 On ch=2 n=33 v=127
10526 On ch=2 n=33 v=0
10556 On ch=2 n=35 v=127
10586 On ch=2 n=35 v=0
10613 On ch=2 n=35 v=121
10644 On ch=2 n=35 v=0
10676 On ch=2 n=35 v=127
10707 On ch=2 n=35 v=0
10733 On ch=2 n=35 v=127
10763 On ch=2 n=35 v=0
10796 On ch=2 n=35 v=127
10830 On ch=2 n=35 v=0
10856 On ch=2 n=35 v=127
10888 On ch=2 n=35 v=0
10917 On ch=2 n=35 v=127
10945 On ch=2 n=35 v=0
10976 On ch=2 n=35 v=127
11011 On ch=2 n=35 v=0
11039 On ch=2 n=28 v=127
11072 On ch=2 n=28 v=0
11094 On ch=2 n=28 v=112
11130 On ch=2 n=28 v=0
11163 On ch=2 n=28 v=127
11197 On ch=2 n=28 v=0
11220 On ch=2 n=28 v=127
11246 On ch=2 n=28 v=0
11275 On ch=2 n=28 v=127
11309 On ch=2 n=28 v=0
11333 On ch=2 n=28 v=127
11364 On ch=2 n=28 v=0
11396 On ch=2 n=28 v=127
11428 On ch=2 n=28 v=0
11456 On ch=2 n=28 v=127
11485 On ch=2 n=28 v=0
11519 On ch=2 n=28 v=127
11553 On ch=2 n=28 v=0
11577 On ch=2 n=28 v=127
11607 On ch=2 n=28 v=0
11639 On ch=2 n=28 v=127
11673 On ch=2 n=28 v=0
11698 On ch=2 n=28 v=127
11731 On ch=2 n=28 v=0
11760 On ch=2 n=28 v=127
11792 On ch=2 n=28 v=0
11823 On ch=2 n=28 v=127
11857 On ch=2 n=28 v=0
11884 On ch=2 n=28 v=127
11912 On ch=2 n=28 v=0
11941 On ch=2 n=28 v=127
11968 On ch=2 n=28 v=0
12001 On ch=2 n=32 v=127
12033 On ch=2 n=32 v=0
12058 On ch=2 n=32 v=127
12088 On ch=2 n=32 v=0
12119 On ch=2 n=32 v=127
12151 On ch=2 n=32 v=0
12174 On ch=2 n=32 v=124
12209 On ch=2 n=32 v=0
12235 On ch=2 n=32 v=127
12266 On ch=2 n=32 v=0
12288 On ch=2 n=32 v=127
12322 On ch=2 n=32 v=0
12351 On ch=2 n=32 v=127
12386 On ch=2 n=32 v=0
12411 On ch=2 n=32 v=127
12447 On ch=2 n=32 v=0
12479 On ch=2 n=32 v=127
12514 On ch=2 n=32 v=0
12536 On ch=2 n=32 v=126
12568 On ch=2 n=32 v=0
12600 On ch=2 n=32 v=127
12631 On ch=2 n=32 v=0
12657 On ch=2 n=32 v=127
12691 On ch=2 n=32 v=0
12719 On ch=2 n=32 v=127
12755 On ch=2 n=32 v=0
12774 On ch=2 n=32 v=126
12809 On ch=2 n=32 v=0
12834 On ch=2 n=32 v=127
12865 On ch=2 n=32 v=0
12894 On ch=2 n=32 v=127
12924 On ch=2 n=32 v=0
12954 On ch=2 n=37 v=127
12981 On ch=2 n=37 v=0
13008 On ch=2 n=37 v=127
13042 On ch=2 n=37 v=0
13077 On ch=2 n=37 v=127
13110 On ch=2 n=37 v=0
13138 On ch=2 n=37 v=125
13166 On ch=2 n=37 v=0
13200 On ch=2 n=37 v=127
13232 On ch=2 n=37 v=0
13259 On ch=2 n=37 v=127
13284 On ch=2 n=37 v=0
13322 On ch=2 n=37 v=127
13352 On ch=2 n=37 v=0
13376 On ch=2 n=37 v=124
13401 On ch=2 n=37 v=0
13440 On ch=2 n=37 v=127
13470 On ch=2 n=37 v=0
13494 On ch=2 n=37 v=124
13519 On ch=2 n=37 v=0
13560 On ch=2 n=37 v=127
13590 On ch=2 n=37 v=0
13622 On ch=2 n=37 v=124
13648 On ch=2 n=37 v=0
13681 On ch=2 n=37 v=127
13709 On ch=2 n=37 v=0
13736 On ch=2 n=37 v=127
13765 On ch=2 n=37 v=0
13799 On ch=2 n=37 v=127
13827 On ch=2 n=37 v=0
13854 On ch=2 n=37 v=127
13883 On ch=2 n=37 v=0
13916 On ch=2 n=33 v=127
13951 On ch=2 n=33 v=0
13976 On ch=2 n=33 v=121
14008 On ch=2 n=33 v=0
14036 On ch=2 n=33 v=127
14068 On ch=2 n=33 v=0
14097 On ch=2 n=33 v=127
14130 On ch=2 n=33 v=0
14161 On ch=2 n=33 v=124
14194 On ch=2 n=33 v=0
14222 On ch=2 n=33 v=127
14255 On ch=2 n=33 v=0
14283 On ch=2 n=33 v=127
14316 On ch=2 n=33 v=0
14343 On ch=2 n=33 v=127
14373 On ch=2 n=33 v=0
14401 On ch=2 n=35 v=127
14427 On ch=2 n=35 v=0
14454 On ch=2 n=35 v=124
14481 On ch=2 n=35 v=0
14519 On ch=2 n=35 v=127
14552 On ch=2 n=35 v=0
14579 On ch=2 n=35 v=127
14609 On ch=2 n=35 v=0
14639 On ch=2 n=35 v=127
14670 On ch=2 n=35 v=0
14697 On ch=2 n=35 v=127
14725 On ch=2 n=35 v=0
14756 On ch=2 n=35 v=127
14786 On ch=2 n=35 v=0
14812 On ch=2 n=35 v=127
14838 On ch=2 n=35 v=0
14876 On ch=2 n=37 v=127
14940 On ch=2 n=37 v=0
14942 On ch=2 n=49 v=127
15000 On ch=2 n=37 v=127
15001 On ch=2 n=49 v=0
15058 On ch=2 n=49 v=127
15065 On ch=2 n=37 v=0
15113 On ch=2 n=49 v=0
15119 On ch=2 n=37 v=127
15168 On ch=2 n=37 v=0
15176 On ch=2 n=49 v=127
15234 On ch=2 n=49 v=0
15234 On ch=2 n=37 v=127
15286 On ch=2 n=37 v=0
15293 On ch=2 n=49 v=127
15356 On ch=2 n=37 v=127
15357 On ch=2 n=49 v=0
15407 On ch=2 n=37 v=0
15414 On ch=2 n=49 v=127
15473 On ch=2 n=49 v=0
15475 On ch=2 n=37 v=127
15528 On ch=2 n=37 v=0
15535 On ch=2 n=49 v=127
15590 On ch=2 n=37 v=127
15591 On ch=2 n=49 v=0
15641 On ch=2 n=37 v=0
15651 On ch=2 n=49 v=127
15709 On ch=2 n=49 v=0
15712 On ch=2 n=37 v=127
15764 On ch=2 n=37 v=0
15771 On ch=2 n=49 v=127
15826 On ch=2 n=49 v=0
15835 On ch=2 n=30 v=127
15900 On ch=2 n=42 v=127
15910 On ch=2 n=30 v=0
15956 On ch=2 n=42 v=0
15963 On ch=2 n=30 v=127
16014 On ch=2 n=30 v=0
16020 On ch=2 n=42 v=127
16076 On ch=2 n=30 v=127
16079 On ch=2 n=42 v=0
16126 On ch=2 n=30 v=0
16139 On ch=2 n=42 v=127
16197 On ch=2 n=30 v=127
16204 On ch=2 n=42 v=0
16252 On ch=2 n=30 v=0
16261 On ch=2 n=42 v=127
16320 On ch=2 n=30 v=127
16321 On ch=2 n=42 v=0
16367 On ch=2 n=30 v=0
16378 On ch=2 n=42 v=127
16441 On ch=2 n=42 v=0
16442 On ch=2 n=30 v=127
16488 On ch=2 n=30 v=0
16495 On ch=2 n=42 v=127
16556 On ch=2 n=42 v=0
16556 On ch=2 n=30 v=127
16604 On ch=2 n=30 v=0
16617 On ch=2 n=42 v=127
16677 On ch=2 n=30 v=127
16679 On ch=2 n=42 v=0
16729 On ch=2 n=30 v=0
16738 On ch=2 n=42 v=127
16739 On ch=2 n=44 v=127
16778 On ch=2 n=44 v=0
16788 On ch=2 n=42 v=0
16797 On ch=2 n=35 v=127
16854 On ch=2 n=35 v=0
16854 On ch=2 n=47 v=127
16918 On ch=2 n=35 v=127
16919 On ch=2 n=47 v=0
16966 On ch=2 n=35 v=0
16980 On ch=2 n=47 v=127
17036 On ch=2 n=47 v=0
17040 On ch=2 n=35 v=127
17088 On ch=2 n=35 v=0
17098 On ch=2 n=47 v=127
17163 On ch=2 n=47 v=0
17164 On ch=2 n=35 v=127
17207 On ch=2 n=35 v=0
17218 On ch=2 n=47 v=127
17283 On ch=2 n=47 v=0
17283 On ch=2 n=35 v=127
17330 On ch=2 n=35 v=0
17343 On ch=2 n=47 v=127
17404 On ch=2 n=47 v=0
17404 On ch=2 n=35 v=127
17452 On ch=2 n=35 v=0
17461 On ch=2 n=47 v=127
17519 On ch=2 n=47 v=0
17523 On ch=2 n=35 v=127
17578 On ch=2 n=35 v=0
17583 On ch=2 n=47 v=127
17631 On ch=2 n=47 v=0
17639 On ch=2 n=35 v=127
17698 On ch=2 n=35 v=0
17698 On ch=2 n=47 v=127
17751 On ch=2 n=47 v=0
17759 On ch=2 n=28 v=127
17820 On ch=2 n=40 v=127
17823 On ch=2 n=28 v=0
17882 On ch=2 n=40 v=0
17883 On ch=2 n=28 v=127
17931 On ch=2 n=28 v=0
17938 On ch=2 n=40 v=127
17992 On ch=2 n=40 v=0
17998 On ch=2 n=28 v=127
18050 On ch=2 n=28 v=0
18062 On ch=2 n=40 v=127
18116 On ch=2 n=40 v=0
18117 On ch=2 n=28 v=127
18170 On ch=2 n=28 v=0
18177 On ch=2 n=40 v=127
18227 On ch=2 n=40 v=0
18239 On ch=2 n=32 v=127
18241 On ch=2 n=33 v=127
18261 On ch=2 n=33 v=0
18298 On ch=2 n=44 v=127
18310 On ch=2 n=32 v=0
18355 On ch=2 n=44 v=0
18366 On ch=2 n=32 v=127
18407 On ch=2 n=32 v=0
18422 On ch=2 n=44 v=127
18478 On ch=2 n=44 v=0
18479 On ch=2 n=32 v=127
18514 On ch=2 n=32 v=0
18543 On ch=2 n=44 v=127
18586 On ch=2 n=44 v=0
18602 On ch=2 n=32 v=127
18651 On ch=2 n=32 v=0
18659 On ch=2 n=44 v=127
18709 On ch=2 n=44 v=0
18719 On ch=2 n=37 v=127
18774 On ch=2 n=37 v=0
18779 On ch=2 n=49 v=127
18832 On ch=2 n=49 v=0
18842 On ch=2 n=37 v=127
18892 On ch=2 n=37 v=0
18900 On ch=2 n=49 v=127
18954 On ch=2 n=49 v=0
18962 On ch=2 n=37 v=127
19017 On ch=2 n=37 v=0
19023 On ch=2 n=49 v=127
19082 On ch=2 n=49 v=0
19084 On ch=2 n=37 v=127
19139 On ch=2 n=37 v=0
19146 On ch=2 n=49 v=127
19205 On ch=2 n=37 v=127
19206 On ch=2 n=49 v=0
19254 On ch=2 n=37 v=0
19266 On ch=2 n=49 v=127
19324 On ch=2 n=37 v=127
19328 On ch=2 n=49 v=0
19381 On ch=2 n=37 v=0
19384 On ch=2 n=49 v=127
19444 On ch=2 n=49 v=0
19445 On ch=2 n=37 v=127
19499 On ch=2 n=37 v=0
19505 On ch=2 n=49 v=127
19557 On ch=2 n=49 v=0
19559 On ch=2 n=37 v=127
19617 On ch=2 n=37 v=0
19619 On ch=2 n=49 v=127
19668 On ch=2 n=49 v=0
19683 On ch=2 n=30 v=127
19743 On ch=2 n=30 v=0
19743 On ch=2 n=42 v=127
19800 On ch=2 n=42 v=0
19805 On ch=2 n=30 v=127
19848 On ch=2 n=30 v=0
19861 On ch=2 n=42 v=127
19918 On ch=2 n=42 v=0
19919 On ch=2 n=30 v=127
19969 On ch=2 n=30 v=0
19981 On ch=2 n=42 v=127
20039 On ch=2 n=30 v=127
20040 On ch=2 n=42 v=0
20089 On ch=2 n=30 v=0
20097 On ch=2 n=42 v=127
20159 On ch=2 n=30 v=127
20160 On ch=2 n=42 v=0
20219 On ch=2 n=30 v=0
20219 On ch=2 n=42 v=127
20282 On ch=2 n=30 v=127
20284 On ch=2 n=42 v=0
20336 On ch=2 n=30 v=0
20340 On ch=2 n=42 v=127
20400 On ch=2 n=30 v=127
20402 On ch=2 n=42 v=0
20448 On ch=2 n=30 v=0
20458 On ch=2 n=42 v=127
20511 On ch=2 n=42 v=0
20518 On ch=2 n=30 v=127
20574 On ch=2 n=30 v=0
20578 On ch=2 n=42 v=127
20627 On ch=2 n=42 v=0
20634 On ch=2 n=35 v=127
20698 On ch=2 n=47 v=127
20701 On ch=2 n=35 v=0
20759 On ch=2 n=47 v=0
20759 On ch=2 n=35 v=127
20812 On ch=2 n=35 v=0
20816 On ch=2 n=47 v=127
20872 On ch=2 n=47 v=0
20877 On ch=2 n=35 v=127
20927 On ch=2 n=35 v=0
20940 On ch=2 n=47 v=127
20997 On ch=2 n=47 v=0
21001 On ch=2 n=35 v=127
21047 On ch=2 n=35 v=0
21060 On ch=2 n=47 v=127
21119 On ch=2 n=47 v=0
21123 On ch=2 n=35 v=127
21176 On ch=2 n=35 v=0
21181 On ch=2 n=47 v=127
21238 On ch=2 n=47 v=0
21245 On ch=2 n=35 v=127
21299 On ch=2 n=35 v=0
21301 On ch=2 n=47 v=127
21357 On ch=2 n=47 v=0
21362 On ch=2 n=35 v=127
21411 On ch=2 n=35 v=0
21420 On ch=2 n=47 v=127
21483 On ch=2 n=35 v=127
21484 On ch=2 n=47 v=0
21538 On ch=2 n=35 v=0
21540 On ch=2 n=47 v=127
21595 On ch=2 n=47 v=0
21604 On ch=2 n=28 v=127
21665 On ch=2 n=40 v=127
21676 On ch=2 n=28 v=0
21720 On ch=2 n=40 v=0
21728 On ch=2 n=28 v=127
21779 On ch=2 n=28 v=0
21780 On ch=2 n=40 v=127
21842 On ch=2 n=28 v=127
21844 On ch=2 n=40 v=0
21889 On ch=2 n=28 v=0
21905 On ch=2 n=40 v=127
21959 On ch=2 n=28 v=127
21960 On ch=2 n=40 v=0
22015 On ch=2 n=28 v=0
22022 On ch=2 n=40 v=127
22077 On ch=2 n=40 v=0
22087 On ch=2 n=32 v=127
22148 On ch=2 n=44 v=127
22157 On ch=2 n=32 v=0
22205 On ch=2 n=44 v=0
22212 On ch=2 n=32 v=127
22266 On ch=2 n=44 v=127
22269 On ch=2 n=32 v=0
22324 On ch=2 n=44 v=0
22324 On ch=2 n=32 v=127
22372 On ch=2 n=32 v=0
22384 On ch=2 n=44 v=127
22446 On ch=2 n=32 v=127
22450 On ch=2 n=44 v=0
22500 On ch=2 n=44 v=127
22526 On ch=2 n=32 v=0
22541 On ch=2 n=44 v=0
22560 On ch=2 n=37 v=127
22644 On ch=2 n=37 v=0
22746 On ch=2 n=35 v=127
22832 On ch=2 n=35 v=0
22926 On ch=2 n=33 v=127
23019 On ch=2 n=33 v=0
23106 On ch=2 n=35 v=127
23196 On ch=2 n=35 v=0
23286 On ch=2 n=37 v=127
23323 On ch=2 n=37 v=0
23406 On ch=2 n=37 v=127
23468 On ch=2 n=37 v=0
23526 On ch=2 n=37 v=127
23584 On ch=2 n=37 v=0
23646 On ch=2 n=37 v=127
23696 On ch=2 n=37 v=0
23766 On ch=2 n=37 v=127
23815 On ch=2 n=37 v=0
23886 On ch=2 n=37 v=127
23939 On ch=2 n=37 v=0
24006 On ch=2 n=37 v=127
24060 On ch=2 n=37 v=0
24126 On ch=2 n=37 v=127
24175 On ch=2 n=37 v=0
24246 On ch=2 n=37 v=127
24306 On ch=2 n=32 v=127
24308 On ch=2 n=37 v=0
24366 On ch=2 n=35 v=127
24370 On ch=2 n=32 v=0
24426 On ch=2 n=32 v=127
24440 On ch=2 n=35 v=0
24486 On ch=2 n=37 v=127
24488 On ch=2 n=32 v=0
24559 On ch=2 n=37 v=0
24606 On ch=2 n=37 v=127
24659 On ch=2 n=37 v=0
24666 On ch=2 n=32 v=127
24726 On ch=2 n=35 v=127
24737 On ch=2 n=32 v=0
24786 On ch=2 n=37 v=127
24791 On ch=2 n=35 v=0
24864 On ch=2 n=37 v=0
24906 On ch=2 n=37 v=127
25081 On ch=2 n=37 v=0
25086 On ch=2 n=40 v=127
25146 On ch=2 n=32 v=127
25150 On ch=2 n=40 v=0
25206 On ch=2 n=35 v=127
25211 On ch=2 n=32 v=0
25326 On ch=2 n=37 v=127
25335 On ch=2 n=35 v=0
25446 On ch=2 n=42 v=127
25455 On ch=2 n=37 v=0
25510 On ch=2 n=42 v=0
25566 On ch=2 n=42 v=127
25626 On ch=2 n=37 v=127
25632 On ch=2 n=42 v=0
25684 On ch=2 n=37 v=0
25686 On ch=2 n=40 v=127
25746 On ch=2 n=42 v=127
25753 On ch=2 n=40 v=0
25824 On ch=2 n=42 v=0
25866 On ch=2 n=42 v=127
26033 On ch=2 n=42 v=0
26046 On ch=2 n=45 v=127
26088 On ch=2 n=45 v=0
26106 On ch=2 n=37 v=127
26166 On ch=2 n=40 v=127
26179 On ch=2 n=37 v=0
26286 On ch=2 n=42 v=127
26289 On ch=2 n=40 v=0
26366 On ch=2 n=42 v=0
26406 On ch=2 n=37 v=127
26474 On ch=2 n=37 v=0
26526 On ch=2 n=37 v=127
26585 On ch=2 n=37 v=0
26586 On ch=2 n=32 v=127
26646 On ch=2 n=35 v=127
26660 On ch=2 n=32 v=0
26706 On ch=2 n=37 v=127
26709 On ch=2 n=35 v=0
26782 On ch=2 n=37 v=0
26826 On ch=2 n=37 v=127
26995 On ch=2 n=37 v=0
27006 On ch=2 n=40 v=127
27066 On ch=2 n=32 v=127
27071 On ch=2 n=40 v=0
27126 On ch=2 n=35 v=127
27134 On ch=2 n=32 v=0
27246 On ch=2 n=37 v=127
27257 On ch=2 n=35 v=0
27363 On ch=2 n=37 v=0
27366 On ch=2 n=42 v=127
27421 On ch=2 n=42 v=0
27486 On ch=2 n=42 v=127
27546 On ch=2 n=37 v=127
27549 On ch=2 n=42 v=0
27602 On ch=2 n=37 v=0
27606 On ch=2 n=40 v=127
27666 On ch=2 n=42 v=127
27670 On ch=2 n=40 v=0
27749 On ch=2 n=42 v=0
27786 On ch=2 n=42 v=127
27966 On ch=2 n=42 v=0
27966 On ch=2 n=45 v=127
28026 On ch=2 n=37 v=127
28036 On ch=2 n=45 v=0
28086 On ch=2 n=40 v=127
28087 On ch=2 n=37 v=0
28206 On ch=2 n=42 v=127
28221 On ch=2 n=40 v=0
28284 On ch=2 n=42 v=0
28326 On ch=2 n=28 v=127
28363 On ch=2 n=28 v=0
28386 On ch=2 n=28 v=127
28416 On ch=2 n=28 v=0
28446 On ch=2 n=28 v=127
28480 On ch=2 n=28 v=0
28506 On ch=2 n=28 v=127
28539 On ch=2 n=28 v=0
28566 On ch=2 n=28 v=127
28600 On ch=2 n=28 v=0
28626 On ch=2 n=28 v=127
28655 On ch=2 n=28 v=0
28686 On ch=2 n=28 v=127
28718 On ch=2 n=28 v=0
28746 On ch=2 n=28 v=127
28772 On ch=2 n=28 v=0
28806 On ch=2 n=28 v=127
28840 On ch=2 n=28 v=0
28866 On ch=2 n=28 v=124
28893 On ch=2 n=28 v=0
28926 On ch=2 n=28 v=127
28956 On ch=2 n=28 v=0
28986 On ch=2 n=28 v=127
29012 On ch=2 n=28 v=0
29046 On ch=2 n=28 v=127
29075 On ch=2 n=28 v=0
29106 On ch=2 n=28 v=127
29130 On ch=2 n=28 v=0
29166 On ch=2 n=28 v=127
29193 On ch=2 n=28 v=0
29226 On ch=2 n=28 v=127
29258 On ch=2 n=28 v=0
29286 On ch=2 n=32 v=127
29319 On ch=2 n=32 v=0
29346 On ch=2 n=32 v=119
29382 On ch=2 n=32 v=0
29406 On ch=2 n=32 v=127
29439 On ch=2 n=32 v=0
29466 On ch=2 n=32 v=121
29492 On ch=2 n=32 v=0
29526 On ch=2 n=32 v=127
29560 On ch=2 n=32 v=0
29586 On ch=2 n=32 v=116
29619 On ch=2 n=32 v=0
29646 On ch=2 n=32 v=127
29679 On ch=2 n=32 v=0
29706 On ch=2 n=32 v=117
29737 On ch=2 n=32 v=0
29766 On ch=2 n=32 v=127
29797 On ch=2 n=32 v=0
29826 On ch=2 n=32 v=118
29854 On ch=2 n=32 v=0
29886 On ch=2 n=32 v=127
29918 On ch=2 n=32 v=0
29946 On ch=2 n=32 v=116
29973 On ch=2 n=32 v=0
30006 On ch=2 n=32 v=127
30038 On ch=2 n=32 v=0
30066 On ch=2 n=32 v=119
30095 On ch=2 n=32 v=0
30126 On ch=2 n=32 v=127
30156 On ch=2 n=32 v=0
30186 On ch=2 n=32 v=127
30216 On ch=2 n=32 v=0
30246 On ch=2 n=37 v=127
30277 On ch=2 n=37 v=0
30306 On ch=2 n=37 v=117
30333 On ch=2 n=37 v=0
30366 On ch=2 n=37 v=127
30398 On ch=2 n=37 v=0
30426 On ch=2 n=37 v=119
30454 On ch=2 n=37 v=0
30486 On ch=2 n=37 v=127
30519 On ch=2 n=37 v=0
30546 On ch=2 n=37 v=114
30575 On ch=2 n=37 v=0
30606 On ch=2 n=37 v=124
30640 On ch=2 n=37 v=0
30666 On ch=2 n=37 v=118
30693 On ch=2 n=37 v=0
30726 On ch=2 n=37 v=125
30758 On ch=2 n=37 v=0
30786 On ch=2 n=37 v=119
30816 On ch=2 n=37 v=0
30846 On ch=2 n=37 v=120
30877 On ch=2 n=37 v=0
30906 On ch=2 n=37 v=114
30934 On ch=2 n=37 v=0
30966 On ch=2 n=37 v=125
30999 On ch=2 n=37 v=0
31026 On ch=2 n=37 v=112
31053 On ch=2 n=37 v=0
31086 On ch=2 n=37 v=127
31112 On ch=2 n=37 v=0
31146 On ch=2 n=37 v=117
31173 On ch=2 n=37 v=0
31206 On ch=2 n=33 v=127
31240 On ch=2 n=33 v=0
31266 On ch=2 n=33 v=115
31297 On ch=2 n=33 v=0
31326 On ch=2 n=33 v=120
31356 On ch=2 n=33 v=0
31386 On ch=2 n=33 v=121
31422 On ch=2 n=33 v=0
31446 On ch=2 n=33 v=108
31480 On ch=2 n=33 v=0
31506 On ch=2 n=33 v=109
31537 On ch=2 n=33 v=0
31566 On ch=2 n=33 v=120
31602 On ch=2 n=33 v=0
31626 On ch=2 n=33 v=114
31662 On ch=2 n=33 v=0
31686 On ch=2 n=35 v=127
31720 On ch=2 n=35 v=0
31746 On ch=2 n=35 v=113
31778 On ch=2 n=35 v=0
31806 On ch=2 n=35 v=116
31838 On ch=2 n=35 v=0
31866 On ch=2 n=35 v=124
31902 On ch=2 n=35 v=0
31926 On ch=2 n=35 v=117
31959 On ch=2 n=35 v=0
31986 On ch=2 n=35 v=116
32017 On ch=2 n=35 v=0
32046 On ch=2 n=35 v=123
32079 On ch=2 n=35 v=0
32106 On ch=2 n=35 v=114
32137 On ch=2 n=35 v=0
32166 On ch=2 n=28 v=127
32203 On ch=2 n=28 v=0
32226 On ch=2 n=28 v=124
32258 On ch=2 n=28 v=0
32286 On ch=2 n=28 v=127
32319 On ch=2 n=28 v=0
32346 On ch=2 n=28 v=117
32381 On ch=2 n=28 v=0
32406 On ch=2 n=28 v=121
32434 On ch=2 n=28 v=0
32466 On ch=2 n=28 v=120
32492 On ch=2 n=28 v=0
32526 On ch=2 n=28 v=115
32565 On ch=2 n=28 v=0
32586 On ch=2 n=28 v=108
32615 On ch=2 n=28 v=0
32646 On ch=2 n=28 v=116
32682 On ch=2 n=28 v=0
32706 On ch=2 n=28 v=115
32732 On ch=2 n=28 v=0
32766 On ch=2 n=28 v=127
32802 On ch=2 n=28 v=0
32826 On ch=2 n=28 v=113
32851 On ch=2 n=28 v=0
32886 On ch=2 n=28 v=127
32920 On ch=2 n=28 v=0
32946 On ch=2 n=28 v=120
32979 On ch=2 n=28 v=0
33006 On ch=2 n=28 v=127
33039 On ch=2 n=28 v=0
33066 On ch=2 n=28 v=125
33097 On ch=2 n=28 v=0
33126 On ch=2 n=32 v=127
33162 On ch=2 n=32 v=0
33186 On ch=2 n=32 v=114
33218 On ch=2 n=32 v=0
33246 On ch=2 n=32 v=118
33279 On ch=2 n=32 v=0
33306 On ch=2 n=32 v=116
33337 On ch=2 n=32 v=0
33366 On ch=2 n=32 v=118
33399 On ch=2 n=32 v=0
33426 On ch=2 n=32 v=115
33462 On ch=2 n=32 v=0
33486 On ch=2 n=32 v=113
33521 On ch=2 n=32 v=0
33546 On ch=2 n=32 v=108
33579 On ch=2 n=32 v=0
33606 On ch=2 n=32 v=117
33639 On ch=2 n=32 v=0
33666 On ch=2 n=32 v=104
33698 On ch=2 n=32 v=0
33726 On ch=2 n=32 v=111
33758 On ch=2 n=32 v=0
33786 On ch=2 n=32 v=110
33814 On ch=2 n=32 v=0
33846 On ch=2 n=32 v=116
33877 On ch=2 n=32 v=0
33906 On ch=2 n=32 v=120
33935 On ch=2 n=32 v=0
33966 On ch=2 n=32 v=120
33995 On ch=2 n=32 v=0
34026 On ch=2 n=32 v=120
34055 On ch=2 n=32 v=0
34086 On ch=2 n=37 v=127
34115 On ch=2 n=37 v=0
34146 On ch=2 n=37 v=118
34178 On ch=2 n=37 v=0
34206 On ch=2 n=37 v=127
34240 On ch=2 n=37 v=0
34266 On ch=2 n=37 v=112
34295 On ch=2 n=37 v=0
34326 On ch=2 n=37 v=127
34358 On ch=2 n=37 v=0
34386 On ch=2 n=37 v=111
34417 On ch=2 n=37 v=0
34446 On ch=2 n=37 v=119
34477 On ch=2 n=37 v=0
34506 On ch=2 n=37 v=114
34536 On ch=2 n=37 v=0
34566 On ch=2 n=37 v=120
34596 On ch=2 n=37 v=0
34626 On ch=2 n=37 v=115
34655 On ch=2 n=37 v=0
34686 On ch=2 n=37 v=123
34719 On ch=2 n=37 v=0
34746 On ch=2 n=37 v=113
34774 On ch=2 n=37 v=0
34806 On ch=2 n=37 v=120
34839 On ch=2 n=37 v=0
34866 On ch=2 n=37 v=112
34893 On ch=2 n=37 v=0
34926 On ch=2 n=37 v=121
34953 On ch=2 n=37 v=0
34986 On ch=2 n=37 v=123
35014 On ch=2 n=37 v=0
35046 On ch=2 n=33 v=127
35076 On ch=2 n=33 v=0
35106 On ch=2 n=33 v=115
35138 On ch=2 n=33 v=0
35166 On ch=2 n=33 v=117
35199 On ch=2 n=33 v=0
35226 On ch=2 n=33 v=124
35262 On ch=2 n=33 v=0
35286 On ch=2 n=33 v=121
35319 On ch=2 n=33 v=0
35346 On ch=2 n=33 v=120
35376 On ch=2 n=33 v=0
35406 On ch=2 n=33 v=120
35440 On ch=2 n=33 v=0
35466 On ch=2 n=33 v=119
35497 On ch=2 n=33 v=0
35526 On ch=2 n=35 v=127
35557 On ch=2 n=35 v=0
35586 On ch=2 n=35 v=113
35616 On ch=2 n=35 v=0
35646 On ch=2 n=35 v=121
35678 On ch=2 n=35 v=0
35706 On ch=2 n=35 v=115
35736 On ch=2 n=35 v=0
35766 On ch=2 n=35 v=126
35798 On ch=2 n=35 v=0
35826 On ch=2 n=35 v=123
35858 On ch=2 n=35 v=0
35886 On ch=2 n=35 v=127
35917 On ch=2 n=35 v=0
35946 On ch=2 n=35 v=124
35973 On ch=2 n=35 v=0
35993 On ch=2 n=37 v=127
36006 On ch=2 n=37 v=127
36051 On ch=2 n=37 v=0
36057 On ch=2 n=49 v=127
36059 On ch=2 n=37 v=0
36066 On ch=2 n=49 v=127
36107 On ch=2 n=49 v=0
36117 On ch=2 n=37 v=127
36121 On ch=2 n=49 v=0
36126 On ch=2 n=37 v=127
36170 On ch=2 n=37 v=0
36174 On ch=2 n=49 v=127
36182 On ch=2 n=37 v=0
36186 On ch=2 n=49 v=117
36236 On ch=2 n=49 v=0
36238 On ch=2 n=37 v=127
36243 On ch=2 n=49 v=0
36246 On ch=2 n=37 v=127
36294 On ch=2 n=37 v=0
36306 On ch=2 n=37 v=0
36306 On ch=2 n=49 v=119
36306 On ch=2 n=49 v=127
36359 On ch=2 n=49 v=0
36363 On ch=2 n=49 v=0
36366 On ch=2 n=37 v=127
36369 On ch=2 n=37 v=127
36416 On ch=2 n=37 v=0
36421 On ch=2 n=37 v=0
36422 On ch=2 n=49 v=127
36426 On ch=2 n=49 v=116
36478 On ch=2 n=49 v=0
36482 On ch=2 n=49 v=0
36484 On ch=2 n=37 v=127
36486 On ch=2 n=37 v=127
36537 On ch=2 n=37 v=0
36537 On ch=2 n=49 v=127
36544 On ch=2 n=37 v=0
36546 On ch=2 n=49 v=121
36592 On ch=2 n=49 v=0
36596 On ch=2 n=49 v=0
36604 On ch=2 n=37 v=127
36606 On ch=2 n=37 v=127
36650 On ch=2 n=37 v=0
36653 On ch=2 n=49 v=127
36657 On ch=2 n=37 v=0
36710 On ch=2 n=49 v=0
36720 On ch=2 n=37 v=127
36768 On ch=2 n=49 v=127
36773 On ch=2 n=37 v=0
36837 On ch=2 n=49 v=0
36837 On ch=2 n=37 v=127
36895 On ch=2 n=37 v=0
36896 On ch=2 n=49 v=127
36945 On ch=2 n=49 v=0
36961 On ch=2 n=30 v=127
37018 On ch=2 n=42 v=127
37021 On ch=2 n=40 v=127
37022 On ch=2 n=30 v=0
37054 On ch=2 n=40 v=0
37071 On ch=2 n=42 v=0
37083 On ch=2 n=30 v=127
37133 On ch=2 n=30 v=0
37137 On ch=2 n=42 v=127
37195 On ch=2 n=42 v=0
37203 On ch=2 n=30 v=127
37250 On ch=2 n=30 v=0
37255 On ch=2 n=42 v=127
37316 On ch=2 n=42 v=0
37322 On ch=2 n=30 v=127
37375 On ch=2 n=30 v=0
37379 On ch=2 n=42 v=127
37437 On ch=2 n=42 v=0
37443 On ch=2 n=30 v=127
37494 On ch=2 n=30 v=0
37500 On ch=2 n=42 v=127
37562 On ch=2 n=42 v=0
37563 On ch=2 n=30 v=127
37617 On ch=2 n=30 v=0
37620 On ch=2 n=42 v=127
37678 On ch=2 n=42 v=0
37685 On ch=2 n=30 v=127
37733 On ch=2 n=30 v=0
37737 On ch=2 n=42 v=127
37801 On ch=2 n=30 v=127
37807 On ch=2 n=42 v=0
37856 On ch=2 n=30 v=0
37860 On ch=2 n=42 v=127
37903 On ch=2 n=42 v=0
37919 On ch=2 n=35 v=127
37921 On ch=2 n=37 v=127
37949 On ch=2 n=37 v=0
37974 On ch=2 n=47 v=127
37998 On ch=2 n=35 v=0
38034 On ch=2 n=47 v=0
38043 On ch=2 n=35 v=127
38094 On ch=2 n=35 v=0
38100 On ch=2 n=47 v=127
38157 On ch=2 n=35 v=127
38159 On ch=2 n=47 v=0
38210 On ch=2 n=35 v=0
38222 On ch=2 n=47 v=127
38278 On ch=2 n=35 v=127
38281 On ch=2 n=47 v=0
38331 On ch=2 n=35 v=0
38340 On ch=2 n=47 v=127
38399 On ch=2 n=35 v=127
38400 On ch=2 n=47 v=0
38451 On ch=2 n=35 v=0
38457 On ch=2 n=47 v=127
38515 On ch=2 n=47 v=0
38520 On ch=2 n=35 v=127
38574 On ch=2 n=35 v=0
38581 On ch=2 n=47 v=127
38636 On ch=2 n=47 v=0
38639 On ch=2 n=35 v=127
38694 On ch=2 n=35 v=0
38702 On ch=2 n=47 v=127
38758 On ch=2 n=47 v=0
38762 On ch=2 n=35 v=127
38811 On ch=2 n=35 v=0
38813 On ch=2 n=47 v=127
38860 On ch=2 n=47 v=0
38882 On ch=2 n=28 v=127
38941 On ch=2 n=40 v=127
38952 On ch=2 n=28 v=0
38995 On ch=2 n=40 v=0
39006 On ch=2 n=28 v=127
39055 On ch=2 n=28 v=0
39057 On ch=2 n=40 v=127
39116 On ch=2 n=40 v=0
39123 On ch=2 n=28 v=127
39183 On ch=2 n=40 v=127
39185 On ch=2 n=28 v=0
39223 On ch=2 n=40 v=0
39238 On ch=2 n=28 v=127
39297 On ch=2 n=28 v=0
39305 On ch=2 n=40 v=127
39349 On ch=2 n=40 v=0
39361 On ch=2 n=32 v=127
39418 On ch=2 n=44 v=127
39427 On ch=2 n=32 v=0
39479 On ch=2 n=44 v=0
39486 On ch=2 n=32 v=127
39539 On ch=2 n=32 v=0
39542 On ch=2 n=44 v=127
39600 On ch=2 n=44 v=0
39603 On ch=2 n=32 v=127
39654 On ch=2 n=32 v=0
39658 On ch=2 n=44 v=127
39718 On ch=2 n=44 v=0
39726 On ch=2 n=32 v=127
39775 On ch=2 n=32 v=0
39777 On ch=2 n=44 v=127
39824 On ch=2 n=44 v=0
39842 On ch=2 n=37 v=127
39896 On ch=2 n=49 v=127
39907 On ch=2 n=37 v=0
39957 On ch=2 n=49 v=0
39967 On ch=2 n=37 v=127
40014 On ch=2 n=37 v=0
40018 On ch=2 n=49 v=127
40073 On ch=2 n=49 v=0
40081 On ch=2 n=37 v=127
40132 On ch=2 n=37 v=0
40137 On ch=2 n=49 v=127
40197 On ch=2 n=49 v=0
40204 On ch=2 n=37 v=127
40252 On ch=2 n=37 v=0
40259 On ch=2 n=49 v=127
40317 On ch=2 n=49 v=0
40324 On ch=2 n=37 v=127
40373 On ch=2 n=37 v=0
40377 On ch=2 n=49 v=127
40433 On ch=2 n=49 v=0
40442 On ch=2 n=37 v=127
40491 On ch=2 n=37 v=0
40496 On ch=2 n=49 v=127
40552 On ch=2 n=49 v=0
40560 On ch=2 n=37 v=127
40612 On ch=2 n=37 v=0
40623 On ch=2 n=49 v=127
40675 On ch=2 n=49 v=0
40677 On ch=2 n=37 v=127
40728 On ch=2 n=37 v=0
40739 On ch=2 n=49 v=127
40782 On ch=2 n=49 v=0
40803 On ch=2 n=30 v=127
40864 On ch=2 n=42 v=127
40870 On ch=2 n=30 v=0
40911 On ch=2 n=42 v=0
40928 On ch=2 n=30 v=127
40982 On ch=2 n=30 v=0
40983 On ch=2 n=42 v=127
41032 On ch=2 n=42 v=0
41043 On ch=2 n=30 v=127
41093 On ch=2 n=30 v=0
41099 On ch=2 n=42 v=127
41157 On ch=2 n=42 v=0
41162 On ch=2 n=30 v=127
41210 On ch=2 n=30 v=0
41219 On ch=2 n=42 v=127
41276 On ch=2 n=42 v=0
41281 On ch=2 n=30 v=127
41331 On ch=2 n=30 v=0
41340 On ch=2 n=42 v=127
41391 On ch=2 n=42 v=0
41402 On ch=2 n=30 v=127
41447 On ch=2 n=30 v=0
41457 On ch=2 n=42 v=127
41514 On ch=2 n=42 v=0
41525 On ch=2 n=30 v=127
41571 On ch=2 n=30 v=0
41579 On ch=2 n=42 v=127
41630 On ch=2 n=42 v=0
41637 On ch=2 n=30 v=127
41692 On ch=2 n=30 v=0
41700 On ch=2 n=42 v=127
41743 On ch=2 n=42 v=0
41761 On ch=2 n=35 v=127
41819 On ch=2 n=47 v=127
41824 On ch=2 n=35 v=0
41875 On ch=2 n=47 v=0
41883 On ch=2 n=35 v=127
41932 On ch=2 n=35 v=0
41939 On ch=2 n=47 v=127
41997 On ch=2 n=47 v=0
42001 On ch=2 n=35 v=127
42054 On ch=2 n=35 v=0
42060 On ch=2 n=47 v=127
42117 On ch=2 n=47 v=0
42125 On ch=2 n=35 v=127
42169 On ch=2 n=35 v=0
42177 On ch=2 n=47 v=127
42231 On ch=2 n=47 v=0
42239 On ch=2 n=35 v=127
42290 On ch=2 n=35 v=0
42296 On ch=2 n=47 v=127
42349 On ch=2 n=47 v=0
42360 On ch=2 n=35 v=127
42412 On ch=2 n=35 v=0
42417 On ch=2 n=47 v=127
42469 On ch=2 n=47 v=0
42477 On ch=2 n=35 v=127
42535 On ch=2 n=35 v=0
42537 On ch=2 n=47 v=127
42597 On ch=2 n=47 v=0
42598 On ch=2 n=35 v=127
42648 On ch=2 n=35 v=0
42653 On ch=2 n=47 v=127
42697 On ch=2 n=47 v=0
42719 On ch=2 n=28 v=127
42780 On ch=2 n=40 v=127
42787 On ch=2 n=28 v=0
42828 On ch=2 n=40 v=0
42844 On ch=2 n=28 v=127
42894 On ch=2 n=40 v=127
42897 On ch=2 n=28 v=0
42948 On ch=2 n=40 v=0
42959 On ch=2 n=28 v=127
43020 On ch=2 n=28 v=0
43022 On ch=2 n=40 v=127
43068 On ch=2 n=40 v=0
43080 On ch=2 n=28 v=127
43130 On ch=2 n=28 v=0
43138 On ch=2 n=40 v=127
43182 On ch=2 n=40 v=0
43200 On ch=2 n=32 v=127
43261 On ch=2 n=44 v=127
43265 On ch=2 n=32 v=0
43316 On ch=2 n=44 v=0
43326 On ch=2 n=32 v=127
43381 On ch=2 n=44 v=127
43385 On ch=2 n=32 v=0
43438 On ch=2 n=44 v=0
43442 On ch=2 n=32 v=127
43497 On ch=2 n=44 v=127
43502 On ch=2 n=32 v=0
43559 On ch=2 n=44 v=0
43563 On ch=2 n=32 v=127
43616 On ch=2 n=44 v=127
43623 On ch=2 n=32 v=0
43667 On ch=2 n=44 v=0
43679 On ch=2 n=32 v=127
43746 On ch=2 n=32 v=0
43860 On ch=2 n=30 v=127
43947 On ch=2 n=30 v=0
44050 On ch=2 n=28 v=127
44133 On ch=2 n=28 v=0
44241 On ch=2 n=30 v=127
44315 On ch=2 n=30 v=0
44410 On ch=2 n=32 v=127
44468 On ch=2 n=32 v=0
44526 On ch=2 n=32 v=127
44852 On ch=2 n=32 v=0
44991 On ch=2 n=32 v=127
45063 On ch=2 n=32 v=0
45120 On ch=2 n=37 v=127
45206 On ch=2 n=37 v=0
45206 Meta TrkEnd
TrkEnd
MTrk
0 Meta 0x21 00
0 Meta TrkName "Rhythm Guitar Clean"
132 PrCh ch=3 p=27
133 Par ch=3 c=7 v=67
133 Par ch=3 c=10 v=127
480 On ch=3 n=64 v=108
480 On ch=3 n=68 v=127
480 On ch=3 n=61 v=97
550 On ch=3 n=61 v=0
552 On ch=3 n=68 v=0
573 On ch=3 n=64 v=0
660 On ch=3 n=59 v=123
660 On ch=3 n=63 v=125
660 On ch=3 n=66 v=127
721 On ch=3 n=66 v=0
726 On ch=3 n=63 v=0
730 On ch=3 n=59 v=0
840 On ch=3 n=61 v=125
840 On ch=3 n=64 v=117
840 On ch=3 n=68 v=127
886 On ch=3 n=68 v=0
887 On ch=3 n=64 v=0
893 On ch=3 n=61 v=0
960 On ch=3 n=64 v=119
960 On ch=3 n=61 v=127
960 On ch=3 n=68 v=127
1870 On ch=3 n=68 v=0
1885 On ch=3 n=64 v=0
1886 On ch=3 n=61 v=0
1920 On ch=3 n=61 v=85
1920 On ch=3 n=64 v=123
1920 On ch=3 n=68 v=127
1979 On ch=3 n=68 v=0
1992 On ch=3 n=64 v=0
2003 On ch=3 n=61 v=0
2100 On ch=3 n=59 v=118
2100 On ch=3 n=63 v=121
2100 On ch=3 n=66 v=127
2152 On ch=3 n=66 v=0
2155 On ch=3 n=59 v=0
2157 On ch=3 n=63 v=0
2280 On ch=3 n=61 v=117
2280 On ch=3 n=64 v=119
2280 On ch=3 n=68 v=127
2324 On ch=3 n=68 v=0
2326 On ch=3 n=64 v=0
2332 On ch=3 n=61 v=0
2400 On ch=3 n=64 v=120
2400 On ch=3 n=61 v=127
2400 On ch=3 n=68 v=127
3204 On ch=3 n=68 v=0
3204 On ch=3 n=61 v=0
3206 On ch=3 n=64 v=0
3475 On ch=3 n=61 v=125
3475 On ch=3 n=56 v=119
3477 On ch=3 n=64 v=127
3525 On ch=3 n=64 v=0
3533 On ch=3 n=61 v=0
3534 On ch=3 n=56 v=0
3707 On ch=3 n=61 v=120
3708 On ch=3 n=52 v=117
3708 On ch=3 n=56 v=127
3753 On ch=3 n=56 v=0
3757 On ch=3 n=52 v=0
3759 On ch=3 n=61 v=0
3946 On ch=3 n=61 v=127
3948 On ch=3 n=56 v=127
3949 On ch=3 n=52 v=125
4004 On ch=3 n=52 v=0
4004 On ch=3 n=56 v=0
4012 On ch=3 n=61 v=0
4194 On ch=3 n=61 v=123
4194 On ch=3 n=52 v=122
4195 On ch=3 n=56 v=127
4250 On ch=3 n=52 v=0
4252 On ch=3 n=56 v=0
4252 On ch=3 n=61 v=0
4432 On ch=3 n=61 v=123
4432 On ch=3 n=54 v=127
4433 On ch=3 n=57 v=125
4492 On ch=3 n=57 v=0
4495 On ch=3 n=61 v=0
4497 On ch=3 n=54 v=0
4671 On ch=3 n=54 v=120
4672 On ch=3 n=61 v=123
4672 On ch=3 n=57 v=123
4727 On ch=3 n=61 v=0
4733 On ch=3 n=54 v=0
4734 On ch=3 n=57 v=0
4910 On ch=3 n=57 v=122
4910 On ch=3 n=61 v=120
4912 On ch=3 n=54 v=125
4967 On ch=3 n=61 v=0
4973 On ch=3 n=54 v=0
4973 On ch=3 n=57 v=0
5154 On ch=3 n=57 v=122
5155 On ch=3 n=61 v=125
5155 On ch=3 n=54 v=127
5212 On ch=3 n=61 v=0
5221 On ch=3 n=57 v=0
5222 On ch=3 n=54 v=0
5390 On ch=3 n=61 v=117
5390 On ch=3 n=52 v=117
5392 On ch=3 n=56 v=127
5449 On ch=3 n=56 v=0
5455 On ch=3 n=52 v=0
5455 On ch=3 n=61 v=0
5628 On ch=3 n=52 v=123
5630 On ch=3 n=61 v=115
5633 On ch=3 n=56 v=125
5695 On ch=3 n=61 v=0
5698 On ch=3 n=56 v=0
5698 On ch=3 n=52 v=0
5867 On ch=3 n=56 v=127
5868 On ch=3 n=61 v=109
5868 On ch=3 n=52 v=114
5918 On ch=3 n=56 v=0
5930 On ch=3 n=61 v=0
5931 On ch=3 n=52 v=0
6108 On ch=3 n=61 v=115
6108 On ch=3 n=56 v=127
6109 On ch=3 n=52 v=120
6163 On ch=3 n=52 v=0
6164 On ch=3 n=56 v=0
6165 On ch=3 n=61 v=0
6353 On ch=3 n=57 v=127
6355 On ch=3 n=54 v=127
6356 On ch=3 n=61 v=127
6409 On ch=3 n=61 v=0
6412 On ch=3 n=54 v=0
6412 On ch=3 n=57 v=0
6586 On ch=3 n=61 v=127
6586 On ch=3 n=57 v=126
6587 On ch=3 n=54 v=126
6648 On ch=3 n=57 v=0
6648 On ch=3 n=61 v=0
6651 On ch=3 n=54 v=0
6832 On ch=3 n=54 v=127
6833 On ch=3 n=57 v=127
6833 On ch=3 n=61 v=127
6887 On ch=3 n=61 v=0
6888 On ch=3 n=57 v=0
6891 On ch=3 n=54 v=0
7076 On ch=3 n=57 v=127
7077 On ch=3 n=61 v=127
7077 On ch=3 n=54 v=127
7147 On ch=3 n=61 v=0
7151 On ch=3 n=57 v=0
7152 On ch=3 n=54 v=0
14934 On ch=3 n=73 v=127
14934 On ch=3 n=64 v=126
14935 On ch=3 n=68 v=127
14966 On ch=3 n=68 v=0
14969 On ch=3 n=73 v=0
14970 On ch=3 n=64 v=0
15027 On ch=3 n=64 v=110
15028 On ch=3 n=73 v=124
15028 On ch=3 n=68 v=119
15063 On ch=3 n=73 v=0
15064 On ch=3 n=64 v=0
15065 On ch=3 n=68 v=0
15126 On ch=3 n=68 v=127
15126 On ch=3 n=64 v=117
15129 On ch=3 n=73 v=120
15158 On ch=3 n=73 v=0
15162 On ch=3 n=68 v=0
15170 On ch=3 n=64 v=0
15214 On ch=3 n=68 v=124
15215 On ch=3 n=64 v=123
15216 On ch=3 n=73 v=127
15253 On ch=3 n=73 v=0
15256 On ch=3 n=64 v=0
15256 On ch=3 n=68 v=0
15303 On ch=3 n=68 v=127
15303 On ch=3 n=64 v=125
15308 On ch=3 n=73 v=123
15338 On ch=3 n=64 v=0
15344 On ch=3 n=73 v=0
15347 On ch=3 n=68 v=0
15423 On ch=3 n=64 v=127
15423 On ch=3 n=68 v=127
15423 On ch=3 n=73 v=127
15456 On ch=3 n=68 v=0
15457 On ch=3 n=64 v=0
15458 On ch=3 n=73 v=0
15510 On ch=3 n=73 v=127
15511 On ch=3 n=64 v=123
15512 On ch=3 n=68 v=119
15546 On ch=3 n=64 v=0
15547 On ch=3 n=73 v=0
15548 On ch=3 n=68 v=0
15602 On ch=3 n=68 v=127
15604 On ch=3 n=64 v=122
15604 On ch=3 n=73 v=126
15635 On ch=3 n=64 v=0
15641 On ch=3 n=73 v=0
15645 On ch=3 n=68 v=0
15692 On ch=3 n=68 v=127
15694 On ch=3 n=64 v=123
15695 On ch=3 n=73 v=127
15735 On ch=3 n=73 v=0
15737 On ch=3 n=64 v=0
15739 On ch=3 n=68 v=0
15782 On ch=3 n=68 v=127
15783 On ch=3 n=64 v=127
15783 On ch=3 n=73 v=127
15829 On ch=3 n=73 v=0
15830 On ch=3 n=64 v=0
15838 On ch=3 n=68 v=0
15892 On ch=3 n=66 v=127
15892 On ch=3 n=69 v=127
15892 On ch=3 n=73 v=127
15942 On ch=3 n=73 v=0
15943 On ch=3 n=69 v=0
15944 On ch=3 n=66 v=0
15985 On ch=3 n=66 v=125
15985 On ch=3 n=69 v=127
15987 On ch=3 n=73 v=127
16029 On ch=3 n=73 v=0
16029 On ch=3 n=69 v=0
16031 On ch=3 n=66 v=0
16080 On ch=3 n=66 v=126
16082 On ch=3 n=69 v=127
16084 On ch=3 n=73 v=125
16120 On ch=3 n=69 v=0
16123 On ch=3 n=73 v=0
16124 On ch=3 n=66 v=0
16166 On ch=3 n=66 v=125
16166 On ch=3 n=73 v=126
16167 On ch=3 n=69 v=125
16209 On ch=3 n=66 v=0
16210 On ch=3 n=73 v=0
16211 On ch=3 n=69 v=0
16258 On ch=3 n=66 v=127
16258 On ch=3 n=73 v=127
16259 On ch=3 n=69 v=125
16303 On ch=3 n=73 v=0
16304 On ch=3 n=69 v=0
16304 On ch=3 n=66 v=0
16379 On ch=3 n=66 v=127
16379 On ch=3 n=69 v=127
16381 On ch=3 n=73 v=127
16416 On ch=3 n=66 v=0
16417 On ch=3 n=69 v=0
16418 On ch=3 n=73 v=0
16471 On ch=3 n=69 v=125
16472 On ch=3 n=66 v=125
16473 On ch=3 n=73 v=126
16508 On ch=3 n=66 v=0
16508 On ch=3 n=69 v=0
16509 On ch=3 n=73 v=0
16561 On ch=3 n=66 v=121
16562 On ch=3 n=73 v=127
16562 On ch=3 n=69 v=122
16601 On ch=3 n=66 v=0
16602 On ch=3 n=73 v=0
16604 On ch=3 n=69 v=0
16651 On ch=3 n=69 v=124
16651 On ch=3 n=73 v=127
16651 On ch=3 n=66 v=124
16695 On ch=3 n=69 v=0
16696 On ch=3 n=73 v=0
16699 On ch=3 n=66 v=0
16732 On ch=3 n=69 v=123
16732 On ch=3 n=73 v=125
16732 On ch=3 n=66 v=124
16771 On ch=3 n=73 v=0
16784 On ch=3 n=69 v=0
16790 On ch=3 n=66 v=0
16849 On ch=3 n=63 v=127
16849 On ch=3 n=71 v=127
16849 On ch=3 n=66 v=127
16900 On ch=3 n=63 v=0
16902 On ch=3 n=66 v=0
16903 On ch=3 n=71 v=0
16944 On ch=3 n=66 v=125
16944 On ch=3 n=63 v=127
16946 On ch=3 n=71 v=127
16993 On ch=3 n=71 v=0
16993 On ch=3 n=63 v=0
16994 On ch=3 n=66 v=0
17037 On ch=3 n=66 v=127
17038 On ch=3 n=63 v=125
17038 On ch=3 n=71 v=127
17086 On ch=3 n=63 v=0
17087 On ch=3 n=66 v=0
17089 On ch=3 n=71 v=0
17124 On ch=3 n=63 v=124
17125 On ch=3 n=71 v=127
17126 On ch=3 n=66 v=124
17176 On ch=3 n=63 v=0
17178 On ch=3 n=71 v=0
17179 On ch=3 n=66 v=0
17218 On ch=3 n=66 v=127
17218 On ch=3 n=63 v=127
17219 On ch=3 n=71 v=127
17273 On ch=3 n=71 v=0
17275 On ch=3 n=63 v=0
17276 On ch=3 n=66 v=0
17337 On ch=3 n=63 v=124
17338 On ch=3 n=66 v=125
17338 On ch=3 n=71 v=127
17377 On ch=3 n=63 v=0
17379 On ch=3 n=71 v=0
17381 On ch=3 n=66 v=0
17432 On ch=3 n=63 v=126
17433 On ch=3 n=71 v=127
17434 On ch=3 n=66 v=124
17470 On ch=3 n=63 v=0
17472 On ch=3 n=66 v=0
17475 On ch=3 n=71 v=0
17519 On ch=3 n=63 v=127
17520 On ch=3 n=71 v=127
17521 On ch=3 n=66 v=127
17571 On ch=3 n=71 v=0
17572 On ch=3 n=66 v=0
17573 On ch=3 n=63 v=0
17612 On ch=3 n=66 v=127
17613 On ch=3 n=63 v=127
17614 On ch=3 n=71 v=127
17659 On ch=3 n=66 v=0
17661 On ch=3 n=71 v=0
17661 On ch=3 n=63 v=0
17694 On ch=3 n=66 v=127
17695 On ch=3 n=63 v=127
17695 On ch=3 n=71 v=127
17736 On ch=3 n=71 v=0
17741 On ch=3 n=66 v=0
17749 On ch=3 n=63 v=0
17821 On ch=3 n=59 v=127
17822 On ch=3 n=68 v=127
17822 On ch=3 n=64 v=127
17867 On ch=3 n=59 v=0
17868 On ch=3 n=64 v=0
17869 On ch=3 n=68 v=0
17914 On ch=3 n=64 v=127
17914 On ch=3 n=59 v=127
17914 On ch=3 n=68 v=127
17958 On ch=3 n=64 v=0
17960 On ch=3 n=68 v=0
17961 On ch=3 n=59 v=0
18001 On ch=3 n=59 v=125
18001 On ch=3 n=64 v=127
18001 On ch=3 n=68 v=127
18048 On ch=3 n=68 v=0
18050 On ch=3 n=64 v=0
18052 On ch=3 n=59 v=0
18085 On ch=3 n=64 v=127
18085 On ch=3 n=68 v=127
18086 On ch=3 n=59 v=125
18132 On ch=3 n=68 v=0
18132 On ch=3 n=64 v=0
18134 On ch=3 n=59 v=0
18171 On ch=3 n=64 v=127
18172 On ch=3 n=59 v=127
18172 On ch=3 n=68 v=127
18224 On ch=3 n=68 v=0
18229 On ch=3 n=64 v=0
18237 On ch=3 n=59 v=0
18296 On ch=3 n=56 v=127
18296 On ch=3 n=63 v=127
18298 On ch=3 n=60 v=127
18340 On ch=3 n=60 v=0
18342 On ch=3 n=63 v=0
18343 On ch=3 n=56 v=0
18390 On ch=3 n=60 v=127
18391 On ch=3 n=63 v=127
18392 On ch=3 n=56 v=127
18432 On ch=3 n=63 v=0
18433 On ch=3 n=60 v=0
18436 On ch=3 n=56 v=0
18476 On ch=3 n=56 v=127
18476 On ch=3 n=60 v=127
18477 On ch=3 n=63 v=127
18521 On ch=3 n=63 v=0
18529 On ch=3 n=60 v=0
18529 On ch=3 n=56 v=0
18565 On ch=3 n=56 v=127
18566 On ch=3 n=60 v=127
18566 On ch=3 n=63 v=127
18616 On ch=3 n=63 v=0
18618 On ch=3 n=60 v=0
18619 On ch=3 n=56 v=0
18649 On ch=3 n=60 v=127
18650 On ch=3 n=63 v=127
18651 On ch=3 n=56 v=125
18699 On ch=3 n=56 v=0
18706 On ch=3 n=63 v=0
18706 On ch=3 n=60 v=0
18772 On ch=3 n=61 v=127
18774 On ch=3 n=64 v=127
18776 On ch=3 n=68 v=127
18828 On ch=3 n=64 v=0
18831 On ch=3 n=68 v=0
18831 On ch=3 n=61 v=0
18870 On ch=3 n=68 v=127
18871 On ch=3 n=64 v=127
18871 On ch=3 n=61 v=127
18915 On ch=3 n=64 v=0
18916 On ch=3 n=61 v=0
18920 On ch=3 n=68 v=0
18958 On ch=3 n=61 v=127
18959 On ch=3 n=64 v=127
18960 On ch=3 n=68 v=127
19005 On ch=3 n=64 v=0
19007 On ch=3 n=68 v=0
19008 On ch=3 n=61 v=0
19045 On ch=3 n=61 v=127
19046 On ch=3 n=64 v=127
19047 On ch=3 n=68 v=127
19091 On ch=3 n=64 v=0
19091 On ch=3 n=61 v=0
19092 On ch=3 n=68 v=0
19131 On ch=3 n=61 v=123
19132 On ch=3 n=64 v=126
19134 On ch=3 n=68 v=127
19191 On ch=3 n=68 v=0
19192 On ch=3 n=64 v=0
19196 On ch=3 n=61 v=0
19255 On ch=3 n=61 v=125
19257 On ch=3 n=68 v=127
19257 On ch=3 n=64 v=127
19303 On ch=3 n=64 v=0
19303 On ch=3 n=68 v=0
19305 On ch=3 n=61 v=0
19353 On ch=3 n=64 v=127
19354 On ch=3 n=61 v=127
19355 On ch=3 n=68 v=127
19389 On ch=3 n=64 v=0
19390 On ch=3 n=68 v=0
19393 On ch=3 n=61 v=0
19441 On ch=3 n=61 v=122
19442 On ch=3 n=64 v=127
19443 On ch=3 n=68 v=127
19491 On ch=3 n=64 v=0
19493 On ch=3 n=68 v=0
19495 On ch=3 n=61 v=0
19534 On ch=3 n=68 v=127
19534 On ch=3 n=61 v=124
19534 On ch=3 n=64 v=127
19579 On ch=3 n=64 v=0
19580 On ch=3 n=61 v=0
19580 On ch=3 n=68 v=0
19617 On ch=3 n=68 v=127
19618 On ch=3 n=64 v=127
19619 On ch=3 n=61 v=123
19687 On ch=3 n=61 v=0
19687 On ch=3 n=68 v=0
19688 On ch=3 n=64 v=0
19734 On ch=3 n=66 v=127
19734 On ch=3 n=61 v=127
19735 On ch=3 n=69 v=127
19783 On ch=3 n=66 v=0
19784 On ch=3 n=61 v=0
19787 On ch=3 n=69 v=0
19828 On ch=3 n=66 v=127
19828 On ch=3 n=61 v=127
19828 On ch=3 n=69 v=127
19872 On ch=3 n=61 v=0
19875 On ch=3 n=66 v=0
19876 On ch=3 n=69 v=0
19920 On ch=3 n=66 v=127
19921 On ch=3 n=61 v=127
19921 On ch=3 n=69 v=127
19966 On ch=3 n=69 v=0
19967 On ch=3 n=61 v=0
19969 On ch=3 n=66 v=0
20007 On ch=3 n=66 v=127
20007 On ch=3 n=61 v=127
20010 On ch=3 n=69 v=127
20047 On ch=3 n=61 v=0
20048 On ch=3 n=69 v=0
20049 On ch=3 n=66 v=0
20087 On ch=3 n=66 v=127
20088 On ch=3 n=61 v=127
20089 On ch=3 n=69 v=127
20161 On ch=3 n=69 v=0
20165 On ch=3 n=61 v=0
20166 On ch=3 n=66 v=0
20213 On ch=3 n=66 v=127
20214 On ch=3 n=69 v=127
20214 On ch=3 n=61 v=127
20257 On ch=3 n=66 v=0
20259 On ch=3 n=61 v=0
20260 On ch=3 n=69 v=0
20306 On ch=3 n=61 v=127
20307 On ch=3 n=66 v=127
20307 On ch=3 n=69 v=127
20344 On ch=3 n=66 v=0
20345 On ch=3 n=61 v=0
20347 On ch=3 n=69 v=0
20393 On ch=3 n=66 v=127
20394 On ch=3 n=61 v=126
20394 On ch=3 n=69 v=127
20435 On ch=3 n=61 v=0
20436 On ch=3 n=69 v=0
20437 On ch=3 n=66 v=0
20482 On ch=3 n=66 v=127
20482 On ch=3 n=61 v=125
20484 On ch=3 n=69 v=127
20526 On ch=3 n=61 v=0
20527 On ch=3 n=66 v=0
20529 On ch=3 n=69 v=0
20567 On ch=3 n=66 v=127
20569 On ch=3 n=69 v=127
20569 On ch=3 n=61 v=125
20643 On ch=3 n=69 v=0
20647 On ch=3 n=66 v=0
20654 On ch=3 n=61 v=0
20696 On ch=3 n=59 v=127
20696 On ch=3 n=63 v=127
20697 On ch=3 n=66 v=127
20738 On ch=3 n=63 v=0
20740 On ch=3 n=59 v=0
20742 On ch=3 n=66 v=0
20790 On ch=3 n=63 v=125
20790 On ch=3 n=66 v=127
20790 On ch=3 n=59 v=120
20834 On ch=3 n=59 v=0
20834 On ch=3 n=63 v=0
20835 On ch=3 n=66 v=0
20879 On ch=3 n=59 v=120
20879 On ch=3 n=63 v=127
20880 On ch=3 n=66 v=127
20920 On ch=3 n=63 v=0
20920 On ch=3 n=59 v=0
20921 On ch=3 n=66 v=0
20961 On ch=3 n=59 v=123
20962 On ch=3 n=63 v=127
20963 On ch=3 n=66 v=127
21010 On ch=3 n=63 v=0
21012 On ch=3 n=66 v=0
21014 On ch=3 n=59 v=0
21053 On ch=3 n=63 v=127
21054 On ch=3 n=66 v=127
21054 On ch=3 n=59 v=121
21143 On ch=3 n=59 v=0
21144 On ch=3 n=66 v=0
21145 On ch=3 n=63 v=0
21177 On ch=3 n=66 v=127
21179 On ch=3 n=59 v=122
21180 On ch=3 n=63 v=127
21225 On ch=3 n=63 v=0
21225 On ch=3 n=66 v=0
21227 On ch=3 n=59 v=0
21279 On ch=3 n=59 v=114
21280 On ch=3 n=63 v=121
21281 On ch=3 n=66 v=125
21314 On ch=3 n=66 v=0
21314 On ch=3 n=59 v=0
21315 On ch=3 n=63 v=0
21362 On ch=3 n=59 v=126
21362 On ch=3 n=66 v=127
21362 On ch=3 n=63 v=127
21397 On ch=3 n=63 v=0
21397 On ch=3 n=59 v=0
21401 On ch=3 n=66 v=0
21453 On ch=3 n=63 v=127
21454 On ch=3 n=59 v=125
21454 On ch=3 n=66 v=127
21491 On ch=3 n=63 v=0
21492 On ch=3 n=59 v=0
21494 On ch=3 n=66 v=0
21532 On ch=3 n=66 v=127
21533 On ch=3 n=59 v=127
21534 On ch=3 n=63 v=127
21608 On ch=3 n=66 v=0
21612 On ch=3 n=63 v=0
21616 On ch=3 n=59 v=0
21657 On ch=3 n=59 v=127
21658 On ch=3 n=64 v=127
21659 On ch=3 n=56 v=127
21707 On ch=3 n=64 v=0
21709 On ch=3 n=56 v=0
21711 On ch=3 n=59 v=0
21753 On ch=3 n=56 v=127
21754 On ch=3 n=59 v=127
21755 On ch=3 n=64 v=127
21796 On ch=3 n=59 v=0
21799 On ch=3 n=64 v=0
21801 On ch=3 n=56 v=0
21838 On ch=3 n=56 v=127
21839 On ch=3 n=64 v=127
21840 On ch=3 n=59 v=127
21882 On ch=3 n=56 v=0
21883 On ch=3 n=59 v=0
21883 On ch=3 n=64 v=0
21925 On ch=3 n=56 v=127
21925 On ch=3 n=59 v=127
21926 On ch=3 n=64 v=127
21994 On ch=3 n=59 v=0
21995 On ch=3 n=56 v=0
21996 On ch=3 n=64 v=0
22024 On ch=3 n=64 v=127
22024 On ch=3 n=56 v=127
22024 On ch=3 n=59 v=127
22076 On ch=3 n=64 v=0
22082 On ch=3 n=56 v=0
22084 On ch=3 n=59 v=0
22146 On ch=3 n=60 v=127
22147 On ch=3 n=56 v=127
22148 On ch=3 n=63 v=127
22192 On ch=3 n=60 v=0
22196 On ch=3 n=63 v=0
22196 On ch=3 n=56 v=0
22240 On ch=3 n=56 v=127
22240 On ch=3 n=60 v=127
22240 On ch=3 n=63 v=127
22275 On ch=3 n=60 v=0
22279 On ch=3 n=56 v=0
22282 On ch=3 n=63 v=0
22320 On ch=3 n=60 v=127
22320 On ch=3 n=56 v=127
22321 On ch=3 n=63 v=127
22369 On ch=3 n=63 v=0
22373 On ch=3 n=60 v=0
22376 On ch=3 n=56 v=0
22406 On ch=3 n=60 v=127
22407 On ch=3 n=63 v=127
22407 On ch=3 n=56 v=127
22453 On ch=3 n=63 v=0
22454 On ch=3 n=60 v=0
22457 On ch=3 n=56 v=0
22492 On ch=3 n=63 v=127
22492 On ch=3 n=56 v=127
22493 On ch=3 n=60 v=127
22543 On ch=3 n=60 v=0
22543 On ch=3 n=56 v=0
22543 On ch=3 n=63 v=0
22552 On ch=3 n=61 v=117
22552 On ch=3 n=64 v=119
22554 On ch=3 n=68 v=117
22637 On ch=3 n=68 v=0
22638 On ch=3 n=64 v=0
22641 On ch=3 n=61 v=0
22734 On ch=3 n=63 v=124
22734 On ch=3 n=59 v=124
22735 On ch=3 n=66 v=127
22801 On ch=3 n=66 v=0
22807 On ch=3 n=63 v=0
22812 On ch=3 n=59 v=0
22918 On ch=3 n=61 v=116
22919 On ch=3 n=68 v=117
22920 On ch=3 n=57 v=114
22921 On ch=3 n=64 v=127
22999 On ch=3 n=61 v=0
23000 On ch=3 n=68 v=0
23000 On ch=3 n=57 v=0
23004 On ch=3 n=64 v=0
23109 On ch=3 n=59 v=119
23109 On ch=3 n=63 v=124
23110 On ch=3 n=66 v=127
23167 On ch=3 n=66 v=0
23167 On ch=3 n=59 v=0
23170 On ch=3 n=63 v=0
23282 On ch=3 n=61 v=120
23283 On ch=3 n=64 v=120
23284 On ch=3 n=57 v=116
23284 On ch=3 n=68 v=117
23316 On ch=3 n=68 v=0
23318 On ch=3 n=64 v=0
23321 On ch=3 n=57 v=0
23321 On ch=3 n=61 v=0
23399 On ch=3 n=64 v=118
23400 On ch=3 n=61 v=123
23401 On ch=3 n=68 v=120
23402 On ch=3 n=57 v=120
24376 On ch=3 n=68 v=0
24380 On ch=3 n=61 v=0
24381 On ch=3 n=64 v=0
24383 On ch=3 n=57 v=0
24596 On ch=3 n=61 v=123
24597 On ch=3 n=64 v=105
24598 On ch=3 n=56 v=105
24651 On ch=3 n=61 v=0
24657 On ch=3 n=64 v=0
24658 On ch=3 n=56 v=0
24832 On ch=3 n=61 v=125
24832 On ch=3 n=56 v=114
24833 On ch=3 n=64 v=113
24895 On ch=3 n=61 v=0
24896 On ch=3 n=56 v=0
24900 On ch=3 n=64 v=0
25076 On ch=3 n=61 v=124
25077 On ch=3 n=56 v=106
25077 On ch=3 n=64 v=105
25133 On ch=3 n=61 v=0
25137 On ch=3 n=64 v=0
25137 On ch=3 n=56 v=0
25318 On ch=3 n=61 v=127
25319 On ch=3 n=64 v=111
25320 On ch=3 n=56 v=123
25381 On ch=3 n=64 v=0
25385 On ch=3 n=61 v=0
25390 On ch=3 n=56 v=0
25553 On ch=3 n=61 v=123
25554 On ch=3 n=57 v=117
25554 On ch=3 n=54 v=111
25554 On ch=3 n=64 v=110
25605 On ch=3 n=64 v=0
25608 On ch=3 n=61 v=0
25613 On ch=3 n=57 v=0
25618 On ch=3 n=54 v=0
25798 On ch=3 n=61 v=123
25799 On ch=3 n=57 v=121
25799 On ch=3 n=54 v=120
25800 On ch=3 n=64 v=116
25853 On ch=3 n=61 v=0
25856 On ch=3 n=64 v=0
25859 On ch=3 n=54 v=0
25860 On ch=3 n=57 v=0
26035 On ch=3 n=61 v=120
26035 On ch=3 n=57 v=119
26035 On ch=3 n=54 v=113
26039 On ch=3 n=64 v=110
26081 On ch=3 n=61 v=0
26085 On ch=3 n=57 v=0
26089 On ch=3 n=54 v=0
26090 On ch=3 n=64 v=0
26275 On ch=3 n=57 v=124
26276 On ch=3 n=54 v=115
26276 On ch=3 n=61 v=125
26279 On ch=3 n=64 v=99
26323 On ch=3 n=61 v=0
26324 On ch=3 n=64 v=0
26328 On ch=3 n=57 v=0
26331 On ch=3 n=54 v=0
26511 On ch=3 n=56 v=112
26511 On ch=3 n=64 v=108
26512 On ch=3 n=61 v=123
26567 On ch=3 n=64 v=0
26572 On ch=3 n=61 v=0
26575 On ch=3 n=56 v=0
26745 On ch=3 n=56 v=121
26746 On ch=3 n=61 v=125
26747 On ch=3 n=64 v=114
26808 On ch=3 n=61 v=0
26809 On ch=3 n=64 v=0
26811 On ch=3 n=56 v=0
26998 On ch=3 n=56 v=120
26999 On ch=3 n=61 v=125
26999 On ch=3 n=64 v=117
27053 On ch=3 n=64 v=0
27053 On ch=3 n=61 v=0
27058 On ch=3 n=56 v=0
27234 On ch=3 n=56 v=124
27235 On ch=3 n=61 v=123
27237 On ch=3 n=64 v=117
27289 On ch=3 n=64 v=0
27295 On ch=3 n=61 v=0
27298 On ch=3 n=56 v=0
27471 On ch=3 n=54 v=120
27471 On ch=3 n=57 v=121
27472 On ch=3 n=61 v=123
27475 On ch=3 n=64 v=111
27522 On ch=3 n=64 v=0
27526 On ch=3 n=57 v=0
27527 On ch=3 n=61 v=0
27530 On ch=3 n=54 v=0
27715 On ch=3 n=54 v=115
27716 On ch=3 n=57 v=120
27717 On ch=3 n=61 v=119
27717 On ch=3 n=64 v=105
27757 On ch=3 n=64 v=0
27759 On ch=3 n=57 v=0
27760 On ch=3 n=61 v=0
27763 On ch=3 n=54 v=0
27955 On ch=3 n=54 v=114
27956 On ch=3 n=64 v=108
27956 On ch=3 n=57 v=117
27957 On ch=3 n=61 v=120
28005 On ch=3 n=61 v=0
28006 On ch=3 n=57 v=0
28007 On ch=3 n=54 v=0
28009 On ch=3 n=64 v=0
28173 On ch=3 n=54 v=106
28174 On ch=3 n=61 v=119
28174 On ch=3 n=57 v=116
28175 On ch=3 n=64 v=107
28233 On ch=3 n=61 v=0
28235 On ch=3 n=57 v=0
28236 On ch=3 n=64 v=0
28239 On ch=3 n=54 v=0
36051 On ch=3 n=56 v=127
36052 On ch=3 n=64 v=127
36052 On ch=3 n=61 v=127
36090 On ch=3 n=64 v=0
36091 On ch=3 n=61 v=0
36093 On ch=3 n=56 v=0
36149 On ch=3 n=56 v=127
36150 On ch=3 n=61 v=127
36150 On ch=3 n=64 v=127
36184 On ch=3 n=56 v=0
36185 On ch=3 n=64 v=0
36186 On ch=3 n=61 v=0
36248 On ch=3 n=56 v=127
36249 On ch=3 n=61 v=127
36249 On ch=3 n=64 v=127
36290 On ch=3 n=56 v=0
36292 On ch=3 n=61 v=0
36293 On ch=3 n=64 v=0
36342 On ch=3 n=61 v=127
36343 On ch=3 n=56 v=127
36344 On ch=3 n=64 v=127
36380 On ch=3 n=56 v=0
36383 On ch=3 n=64 v=0
36383 On ch=3 n=61 v=0
36428 On ch=3 n=61 v=127
36429 On ch=3 n=56 v=127
36429 On ch=3 n=64 v=127
36475 On ch=3 n=56 v=0
36478 On ch=3 n=64 v=0
36480 On ch=3 n=61 v=0
36545 On ch=3 n=61 v=127
36546 On ch=3 n=56 v=127
36546 On ch=3 n=64 v=127
36584 On ch=3 n=56 v=0
36586 On ch=3 n=64 v=0
36586 On ch=3 n=61 v=0
36639 On ch=3 n=61 v=127
36639 On ch=3 n=56 v=127
36639 On ch=3 n=64 v=127
36677 On ch=3 n=56 v=0
36679 On ch=3 n=64 v=0
36680 On ch=3 n=61 v=0
36731 On ch=3 n=61 v=127
36731 On ch=3 n=56 v=127
36732 On ch=3 n=64 v=127
36774 On ch=3 n=56 v=0
36776 On ch=3 n=64 v=0
36777 On ch=3 n=61 v=0
36825 On ch=3 n=56 v=127
36826 On ch=3 n=61 v=127
36826 On ch=3 n=64 v=127
36871 On ch=3 n=56 v=0
36872 On ch=3 n=64 v=0
36873 On ch=3 n=61 v=0
36908 On ch=3 n=56 v=127
36909 On ch=3 n=61 v=127
36909 On ch=3 n=64 v=127
36964 On ch=3 n=64 v=0
36968 On ch=3 n=61 v=0
36969 On ch=3 n=56 v=0
37020 On ch=3 n=61 v=127
37021 On ch=3 n=54 v=127
37021 On ch=3 n=57 v=127
37022 On ch=3 n=64 v=127
37068 On ch=3 n=64 v=0
37070 On ch=3 n=61 v=0
37071 On ch=3 n=57 v=0
37071 On ch=3 n=54 v=0
37112 On ch=3 n=61 v=127
37113 On ch=3 n=54 v=127
37113 On ch=3 n=57 v=127
37115 On ch=3 n=64 v=127
37161 On ch=3 n=64 v=0
37163 On ch=3 n=61 v=0
37163 On ch=3 n=54 v=0
37163 On ch=3 n=57 v=0
37208 On ch=3 n=57 v=127
37208 On ch=3 n=54 v=127
37209 On ch=3 n=64 v=127
37209 On ch=3 n=61 v=127
37257 On ch=3 n=61 v=0
37257 On ch=3 n=57 v=0
37257 On ch=3 n=54 v=0
37260 On ch=3 n=64 v=0
37299 On ch=3 n=61 v=127
37300 On ch=3 n=54 v=127
37300 On ch=3 n=57 v=127
37300 On ch=3 n=64 v=127
37345 On ch=3 n=54 v=0
37346 On ch=3 n=64 v=0
37348 On ch=3 n=57 v=0
37348 On ch=3 n=61 v=0
37384 On ch=3 n=61 v=127
37385 On ch=3 n=57 v=127
37385 On ch=3 n=54 v=127
37385 On ch=3 n=64 v=127
37436 On ch=3 n=64 v=0
37436 On ch=3 n=61 v=0
37437 On ch=3 n=54 v=0
37439 On ch=3 n=57 v=0
37502 On ch=3 n=61 v=127
37503 On ch=3 n=57 v=127
37504 On ch=3 n=54 v=127
37504 On ch=3 n=64 v=127
37544 On ch=3 n=64 v=0
37549 On ch=3 n=54 v=0
37549 On ch=3 n=61 v=0
37550 On ch=3 n=57 v=0
37592 On ch=3 n=54 v=127
37592 On ch=3 n=57 v=127
37593 On ch=3 n=61 v=127
37593 On ch=3 n=64 v=127
37628 On ch=3 n=61 v=0
37631 On ch=3 n=57 v=0
37633 On ch=3 n=54 v=0
37635 On ch=3 n=64 v=0
37680 On ch=3 n=54 v=127
37680 On ch=3 n=61 v=127
37680 On ch=3 n=57 v=127
37680 On ch=3 n=64 v=127
37729 On ch=3 n=57 v=0
37730 On ch=3 n=64 v=0
37731 On ch=3 n=61 v=0
37731 On ch=3 n=54 v=0
37774 On ch=3 n=54 v=127
37775 On ch=3 n=61 v=127
37775 On ch=3 n=57 v=127
37776 On ch=3 n=64 v=127
37824 On ch=3 n=64 v=0
37824 On ch=3 n=57 v=0
37824 On ch=3 n=54 v=0
37825 On ch=3 n=61 v=0
37869 On ch=3 n=54 v=127
37869 On ch=3 n=61 v=127
37870 On ch=3 n=64 v=127
37871 On ch=3 n=57 v=127
37918 On ch=3 n=61 v=0
37920 On ch=3 n=64 v=0
37922 On ch=3 n=54 v=0
37927 On ch=3 n=57 v=0
37984 On ch=3 n=54 v=127
37986 On ch=3 n=59 v=127
37986 On ch=3 n=63 v=127
38037 On ch=3 n=63 v=0
38037 On ch=3 n=59 v=0
38039 On ch=3 n=54 v=0
38074 On ch=3 n=59 v=127
38075 On ch=3 n=54 v=127
38075 On ch=3 n=63 v=127
38127 On ch=3 n=63 v=0
38128 On ch=3 n=54 v=0
38128 On ch=3 n=59 v=0
38166 On ch=3 n=59 v=127
38167 On ch=3 n=54 v=127
38168 On ch=3 n=63 v=127
38219 On ch=3 n=54 v=0
38220 On ch=3 n=59 v=0
38221 On ch=3 n=63 v=0
38257 On ch=3 n=59 v=127
38258 On ch=3 n=54 v=127
38258 On ch=3 n=63 v=127
38307 On ch=3 n=63 v=0
38307 On ch=3 n=54 v=0
38308 On ch=3 n=59 v=0
38339 On ch=3 n=54 v=127
38340 On ch=3 n=63 v=127
38341 On ch=3 n=59 v=127
38400 On ch=3 n=59 v=0
38400 On ch=3 n=54 v=0
38402 On ch=3 n=63 v=0
38461 On ch=3 n=63 v=127
38462 On ch=3 n=59 v=127
38463 On ch=3 n=54 v=127
38507 On ch=3 n=63 v=0
38508 On ch=3 n=59 v=0
38510 On ch=3 n=54 v=0
38554 On ch=3 n=59 v=127
38554 On ch=3 n=54 v=127
38556 On ch=3 n=63 v=127
38597 On ch=3 n=59 v=0
38598 On ch=3 n=54 v=0
38599 On ch=3 n=63 v=0
38642 On ch=3 n=54 v=127
38642 On ch=3 n=63 v=127
38643 On ch=3 n=59 v=127
38700 On ch=3 n=54 v=0
38703 On ch=3 n=59 v=0
38703 On ch=3 n=63 v=0
38737 On ch=3 n=54 v=127
38738 On ch=3 n=59 v=127
38738 On ch=3 n=63 v=127
38790 On ch=3 n=54 v=0
38791 On ch=3 n=59 v=0
38793 On ch=3 n=63 v=0
38829 On ch=3 n=59 v=127
38830 On ch=3 n=54 v=127
38830 On ch=3 n=63 v=127
38886 On ch=3 n=54 v=0
38891 On ch=3 n=59 v=0
38892 On ch=3 n=63 v=0
38940 On ch=3 n=56 v=127
38940 On ch=3 n=59 v=127
38941 On ch=3 n=64 v=127
38993 On ch=3 n=59 v=0
38994 On ch=3 n=56 v=0
38995 On ch=3 n=64 v=0
39035 On ch=3 n=56 v=127
39035 On ch=3 n=59 v=127
39035 On ch=3 n=64 v=127
39086 On ch=3 n=56 v=0
39088 On ch=3 n=64 v=0
39088 On ch=3 n=59 v=0
39125 On ch=3 n=56 v=127
39126 On ch=3 n=59 v=127
39126 On ch=3 n=64 v=127
39180 On ch=3 n=56 v=0
39182 On ch=3 n=59 v=0
39185 On ch=3 n=64 v=0
39224 On ch=3 n=64 v=127
39225 On ch=3 n=56 v=127
39225 On ch=3 n=59 v=127
39269 On ch=3 n=56 v=0
39269 On ch=3 n=64 v=0
39273 On ch=3 n=59 v=0
39306 On ch=3 n=59 v=127
39307 On ch=3 n=64 v=127
39308 On ch=3 n=56 v=127
39360 On ch=3 n=59 v=0
39363 On ch=3 n=56 v=0
39369 On ch=3 n=64 v=0
39416 On ch=3 n=56 v=127
39417 On ch=3 n=60 v=127
39440 On ch=3 n=63 v=105
39477 On ch=3 n=60 v=0
39479 On ch=3 n=56 v=0
39481 On ch=3 n=63 v=0
39514 On ch=3 n=63 v=127
39514 On ch=3 n=56 v=127
39516 On ch=3 n=60 v=125
39518 On ch=3 n=66 v=127
39561 On ch=3 n=60 v=0
39563 On ch=3 n=63 v=0
39564 On ch=3 n=66 v=0
39566 On ch=3 n=56 v=0
39603 On ch=3 n=63 v=127
39603 On ch=3 n=56 v=127
39604 On ch=3 n=60 v=127
39605 On ch=3 n=66 v=127
39653 On ch=3 n=60 v=0
39656 On ch=3 n=66 v=0
39657 On ch=3 n=56 v=0
39657 On ch=3 n=63 v=0
39696 On ch=3 n=63 v=127
39697 On ch=3 n=56 v=127
39698 On ch=3 n=66 v=127
39699 On ch=3 n=60 v=127
39744 On ch=3 n=60 v=0
39747 On ch=3 n=56 v=0
39749 On ch=3 n=66 v=0
39749 On ch=3 n=63 v=0
39782 On ch=3 n=66 v=127
39782 On ch=3 n=56 v=127
39783 On ch=3 n=63 v=127
39784 On ch=3 n=60 v=127
39830 On ch=3 n=56 v=0
39838 On ch=3 n=60 v=0
39840 On ch=3 n=63 v=0
39846 On ch=3 n=66 v=0
39900 On ch=3 n=61 v=127
39903 On ch=3 n=64 v=127
39903 On ch=3 n=68 v=127
39956 On ch=3 n=64 v=0
39960 On ch=3 n=61 v=0
39961 On ch=3 n=68 v=0
39999 On ch=3 n=64 v=127
40000 On ch=3 n=61 v=127
40001 On ch=3 n=68 v=127
40046 On ch=3 n=64 v=0
40047 On ch=3 n=68 v=0
40047 On ch=3 n=61 v=0
40092 On ch=3 n=64 v=127
40093 On ch=3 n=61 v=127
40093 On ch=3 n=68 v=127
40140 On ch=3 n=61 v=0
40143 On ch=3 n=68 v=0
40143 On ch=3 n=64 v=0
40182 On ch=3 n=61 v=127
40183 On ch=3 n=64 v=127
40184 On ch=3 n=68 v=127
40227 On ch=3 n=61 v=0
40230 On ch=3 n=68 v=0
40230 On ch=3 n=64 v=0
40267 On ch=3 n=61 v=127
40268 On ch=3 n=64 v=127
40268 On ch=3 n=68 v=127
40326 On ch=3 n=61 v=0
40328 On ch=3 n=68 v=0
40329 On ch=3 n=64 v=0
40383 On ch=3 n=64 v=127
40383 On ch=3 n=68 v=127
40383 On ch=3 n=61 v=127
40419 On ch=3 n=61 v=0
40425 On ch=3 n=68 v=0
40425 On ch=3 n=64 v=0
40474 On ch=3 n=61 v=127
40475 On ch=3 n=64 v=127
40476 On ch=3 n=68 v=127
40513 On ch=3 n=61 v=0
40515 On ch=3 n=68 v=0
40517 On ch=3 n=64 v=0
40565 On ch=3 n=61 v=127
40566 On ch=3 n=64 v=127
40567 On ch=3 n=68 v=127
40610 On ch=3 n=61 v=0
40616 On ch=3 n=68 v=0
40617 On ch=3 n=64 v=0
40661 On ch=3 n=64 v=127
40662 On ch=3 n=61 v=127
40662 On ch=3 n=68 v=127
40710 On ch=3 n=61 v=0
40714 On ch=3 n=68 v=0
40717 On ch=3 n=64 v=0
40748 On ch=3 n=64 v=127
40749 On ch=3 n=68 v=127
40750 On ch=3 n=61 v=127
40815 On ch=3 n=61 v=0
40816 On ch=3 n=68 v=0
40817 On ch=3 n=64 v=0
40866 On ch=3 n=66 v=127
40866 On ch=3 n=61 v=127
40867 On ch=3 n=69 v=127
40913 On ch=3 n=61 v=0
40916 On ch=3 n=66 v=0
40917 On ch=3 n=69 v=0
40962 On ch=3 n=66 v=127
40963 On ch=3 n=69 v=127
40964 On ch=3 n=61 v=127
41003 On ch=3 n=61 v=0
41009 On ch=3 n=66 v=0
41010 On ch=3 n=69 v=0
41050 On ch=3 n=66 v=127
41050 On ch=3 n=69 v=127
41052 On ch=3 n=61 v=127
41094 On ch=3 n=61 v=0
41101 On ch=3 n=69 v=0
41101 On ch=3 n=66 v=0
41145 On ch=3 n=66 v=127
41145 On ch=3 n=69 v=127
41146 On ch=3 n=61 v=127
41194 On ch=3 n=61 v=0
41197 On ch=3 n=69 v=0
41198 On ch=3 n=66 v=0
41235 On ch=3 n=66 v=127
41235 On ch=3 n=61 v=127
41236 On ch=3 n=69 v=127
41287 On ch=3 n=61 v=0
41288 On ch=3 n=69 v=0
41291 On ch=3 n=66 v=0
41349 On ch=3 n=61 v=127
41350 On ch=3 n=66 v=127
41350 On ch=3 n=69 v=127
41387 On ch=3 n=61 v=0
41391 On ch=3 n=66 v=0
41392 On ch=3 n=69 v=0
41443 On ch=3 n=61 v=127
41443 On ch=3 n=66 v=127
41445 On ch=3 n=69 v=127
41480 On ch=3 n=61 v=0
41483 On ch=3 n=69 v=0
41485 On ch=3 n=66 v=0
41522 On ch=3 n=66 v=127
41523 On ch=3 n=61 v=127
41523 On ch=3 n=69 v=127
41568 On ch=3 n=61 v=0
41572 On ch=3 n=69 v=0
41572 On ch=3 n=66 v=0
41624 On ch=3 n=69 v=127
41625 On ch=3 n=66 v=127
41625 On ch=3 n=61 v=127
41671 On ch=3 n=61 v=0
41675 On ch=3 n=66 v=0
41677 On ch=3 n=69 v=0
41709 On ch=3 n=61 v=127
41709 On ch=3 n=66 v=127
41710 On ch=3 n=69 v=125
41749 On ch=3 n=69 v=0
41757 On ch=3 n=66 v=0
41763 On ch=3 n=61 v=0
41817 On ch=3 n=59 v=127
41818 On ch=3 n=63 v=127
41819 On ch=3 n=66 v=127
41868 On ch=3 n=63 v=0
41870 On ch=3 n=66 v=0
41871 On ch=3 n=59 v=0
41915 On ch=3 n=59 v=127
41917 On ch=3 n=66 v=127
41917 On ch=3 n=63 v=127
41960 On ch=3 n=59 v=0
41961 On ch=3 n=66 v=0
41963 On ch=3 n=63 v=0
42006 On ch=3 n=59 v=127
42006 On ch=3 n=63 v=127
42006 On ch=3 n=66 v=127
42058 On ch=3 n=59 v=0
42060 On ch=3 n=66 v=0
42060 On ch=3 n=63 v=0
42098 On ch=3 n=59 v=127
42098 On ch=3 n=66 v=127
42099 On ch=3 n=63 v=127
42136 On ch=3 n=59 v=0
42139 On ch=3 n=63 v=0
42144 On ch=3 n=66 v=0
42183 On ch=3 n=59 v=127
42184 On ch=3 n=63 v=127
42185 On ch=3 n=66 v=127
42238 On ch=3 n=66 v=0
42239 On ch=3 n=59 v=0
42241 On ch=3 n=63 v=0
42303 On ch=3 n=59 v=127
42304 On ch=3 n=63 v=127
42305 On ch=3 n=66 v=127
42348 On ch=3 n=66 v=0
42348 On ch=3 n=59 v=0
42350 On ch=3 n=63 v=0
42396 On ch=3 n=59 v=127
42397 On ch=3 n=63 v=127
42399 On ch=3 n=66 v=127
42434 On ch=3 n=59 v=0
42437 On ch=3 n=66 v=0
42438 On ch=3 n=63 v=0
42477 On ch=3 n=59 v=127
42477 On ch=3 n=63 v=127
42477 On ch=3 n=66 v=127
42527 On ch=3 n=59 v=0
42529 On ch=3 n=66 v=0
42529 On ch=3 n=63 v=0
42573 On ch=3 n=59 v=127
42573 On ch=3 n=63 v=127
42573 On ch=3 n=66 v=127
42617 On ch=3 n=59 v=0
42619 On ch=3 n=66 v=0
42622 On ch=3 n=63 v=0
42661 On ch=3 n=63 v=127
42661 On ch=3 n=59 v=127
42663 On ch=3 n=66 v=127
42706 On ch=3 n=66 v=0
42717 On ch=3 n=63 v=0
42718 On ch=3 n=59 v=0
42781 On ch=3 n=64 v=127
42781 On ch=3 n=59 v=127
42781 On ch=3 n=56 v=127
42784 On ch=3 n=62 v=112
42794 On ch=3 n=62 v=0
42829 On ch=3 n=56 v=0
42832 On ch=3 n=59 v=0
42834 On ch=3 n=64 v=0
42872 On ch=3 n=56 v=127
42873 On ch=3 n=64 v=127
42874 On ch=3 n=59 v=127
42916 On ch=3 n=59 v=0
42916 On ch=3 n=56 v=0
42918 On ch=3 n=64 v=0
42959 On ch=3 n=59 v=127
42959 On ch=3 n=56 v=127
42959 On ch=3 n=64 v=127
43002 On ch=3 n=64 v=0
43005 On ch=3 n=56 v=0
43006 On ch=3 n=59 v=0
43054 On ch=3 n=56 v=127
43055 On ch=3 n=64 v=127
43055 On ch=3 n=59 v=127
43059 On ch=3 n=62 v=114
43074 On ch=3 n=62 v=0
43104 On ch=3 n=59 v=0
43104 On ch=3 n=56 v=0
43105 On ch=3 n=64 v=0
43142 On ch=3 n=59 v=127
43143 On ch=3 n=64 v=127
43143 On ch=3 n=56 v=127
43189 On ch=3 n=59 v=0
43194 On ch=3 n=64 v=0
43201 On ch=3 n=56 v=0
43260 On ch=3 n=63 v=127
43261 On ch=3 n=56 v=127
43262 On ch=3 n=60 v=127
43264 On ch=3 n=66 v=127
43307 On ch=3 n=60 v=0
43314 On ch=3 n=63 v=0
43317 On ch=3 n=56 v=0
43320 On ch=3 n=66 v=0
43361 On ch=3 n=56 v=127
43361 On ch=3 n=63 v=127
43362 On ch=3 n=66 v=127
43362 On ch=3 n=60 v=127
43403 On ch=3 n=60 v=0
43406 On ch=3 n=56 v=0
43406 On ch=3 n=63 v=0
43407 On ch=3 n=66 v=0
43447 On ch=3 n=63 v=127
43448 On ch=3 n=56 v=127
43448 On ch=3 n=66 v=127
43449 On ch=3 n=60 v=127
43495 On ch=3 n=60 v=0
43499 On ch=3 n=63 v=0
43500 On ch=3 n=66 v=0
43500 On ch=3 n=56 v=0
43536 On ch=3 n=56 v=127
43536 On ch=3 n=63 v=127
43536 On ch=3 n=66 v=127
43537 On ch=3 n=60 v=127
43583 On ch=3 n=60 v=0
43585 On ch=3 n=66 v=0
43585 On ch=3 n=63 v=0
43586 On ch=3 n=56 v=0
43618 On ch=3 n=56 v=127
43619 On ch=3 n=63 v=127
43620 On ch=3 n=66 v=127
43621 On ch=3 n=60 v=118
43639 On ch=3 n=60 v=0
43644 On ch=3 n=56 v=0
43645 On ch=3 n=66 v=0
43649 On ch=3 n=63 v=0
43683 On ch=3 n=68 v=127
43683 On ch=3 n=61 v=127
43684 On ch=3 n=64 v=127
43685 On ch=3 n=57 v=127
43736 On ch=3 n=68 v=0
43739 On ch=3 n=61 v=0
43740 On ch=3 n=64 v=0
43748 On ch=3 n=57 v=0
43853 On ch=3 n=56 v=127
43853 On ch=3 n=59 v=127
43853 On ch=3 n=63 v=127
43854 On ch=3 n=66 v=127
43906 On ch=3 n=66 v=0
43907 On ch=3 n=63 v=0
43910 On ch=3 n=59 v=0
43916 On ch=3 n=56 v=0
44033 On ch=3 n=54 v=127
44033 On ch=3 n=57 v=127
44034 On ch=3 n=61 v=127
44035 On ch=3 n=64 v=127
44087 On ch=3 n=64 v=0
44088 On ch=3 n=54 v=0
44088 On ch=3 n=57 v=0
44088 On ch=3 n=61 v=0
44208 On ch=3 n=56 v=127
44208 On ch=3 n=59 v=127
44209 On ch=3 n=63 v=127
44210 On ch=3 n=66 v=127
44253 On ch=3 n=59 v=0
44253 On ch=3 n=56 v=0
44255 On ch=3 n=63 v=0
44257 On ch=3 n=66 v=0
44393 On ch=3 n=57 v=127
44394 On ch=3 n=61 v=127
44394 On ch=3 n=68 v=127
44395 On ch=3 n=64 v=127
44440 On ch=3 n=61 v=0
44441 On ch=3 n=57 v=0
44442 On ch=3 n=68 v=0
44442 On ch=3 n=64 v=0
44501 On ch=3 n=64 v=127
44502 On ch=3 n=57 v=127
44502 On ch=3 n=68 v=127
44503 On ch=3 n=61 v=127
44927 On ch=3 n=57 v=0
44929 On ch=3 n=64 v=0
44931 On ch=3 n=68 v=0
44933 On ch=3 n=61 v=0
44980 On ch=3 n=66 v=127
44981 On ch=3 n=59 v=127
44982 On ch=3 n=63 v=127
45054 On ch=3 n=66 v=0
45056 On ch=3 n=59 v=0
45057 On ch=3 n=63 v=0
45108 On ch=3 n=61 v=127
45110 On ch=3 n=64 v=127
45111 On ch=3 n=68 v=127
45112 On ch=3 n=63 v=127
45112 On ch=3 n=66 v=127
45155 On ch=3 n=66 v=0
45160 On ch=3 n=63 v=0
45217 On ch=3 n=61 v=0
45220 On ch=3 n=68 v=0
45220 On ch=3 n=64 v=0
45220 Meta TrkEnd
TrkEnd
MTrk
0 Meta 0x21 00
0 Meta TrkName "Strings"
142 PrCh ch=5 p=88
143 Par ch=5 c=7 v=85
489 On ch=5 n=68 v=106
490 On ch=5 n=73 v=97
491 On ch=5 n=76 v=82
518 On ch=5 n=76 v=0
527 On ch=5 n=73 v=0
530 On ch=5 n=68 v=0
669 On ch=5 n=66 v=123
669 On ch=5 n=71 v=123
671 On ch=5 n=75 v=119
704 On ch=5 n=75 v=0
711 On ch=5 n=66 v=0
714 On ch=5 n=71 v=0
847 On ch=5 n=68 v=120
852 On ch=5 n=73 v=119
859 On ch=5 n=76 v=119
910 On ch=5 n=68 v=0
912 On ch=5 n=73 v=0
914 On ch=5 n=76 v=0
997 On ch=5 n=73 v=127
997 On ch=5 n=76 v=127
998 On ch=5 n=68 v=127
1524 On ch=5 n=76 v=0
1524 On ch=5 n=73 v=0
1529 On ch=5 n=68 v=0
1925 On ch=5 n=76 v=118
1926 On ch=5 n=68 v=117
1928 On ch=5 n=73 v=120
1984 On ch=5 n=76 v=0
1996 On ch=5 n=73 v=0
2001 On ch=5 n=68 v=0
2109 On ch=5 n=66 v=116
2111 On ch=5 n=71 v=121
2113 On ch=5 n=75 v=116
2191 On ch=5 n=71 v=0
2193 On ch=5 n=66 v=0
2194 On ch=5 n=75 v=0
2284 On ch=5 n=68 v=117
2285 On ch=5 n=73 v=115
2290 On ch=5 n=76 v=99
2352 On ch=5 n=68 v=0
2360 On ch=5 n=73 v=0
2361 On ch=5 n=76 v=0
2409 On ch=5 n=73 v=116
2410 On ch=5 n=76 v=112
2410 On ch=5 n=68 v=116
3013 On ch=5 n=68 v=0
3013 On ch=5 n=76 v=0
3013 On ch=5 n=73 v=0
3370 On ch=5 n=68 v=90
3372 On ch=5 n=61 v=72
3376 On ch=5 n=64 v=89
4293 On ch=5 n=68 v=0
4306 On ch=5 n=64 v=0
4311 On ch=5 n=61 v=0
4329 On ch=5 n=61 v=94
4333 On ch=5 n=69 v=108
4333 On ch=5 n=66 v=83
5260 On ch=5 n=66 v=0
5268 On ch=5 n=69 v=0
5272 On ch=5 n=68 v=117
5283 On ch=5 n=64 v=91
6213 On ch=5 n=68 v=0
6238 On ch=5 n=66 v=98
6247 On ch=5 n=69 v=95
6248 On ch=5 n=64 v=0
7133 On ch=5 n=61 v=0
7142 On ch=5 n=69 v=0
7155 On ch=5 n=66 v=0
7205 On ch=5 n=64 v=90
7207 On ch=5 n=59 v=75
8071 On ch=5 n=64 v=0
8076 On ch=5 n=59 v=0
8167 On ch=5 n=60 v=70
8183 On ch=5 n=63 v=80
8188 On ch=5 n=68 v=79
9103 On ch=5 n=60 v=0
9118 On ch=5 n=63 v=0
9126 On ch=5 n=61 v=85
9137 On ch=5 n=64 v=85
10074 On ch=5 n=68 v=0
10075 On ch=5 n=57 v=101
10503 On ch=5 n=64 v=0
10520 On ch=5 n=57 v=0
10558 On ch=5 n=66 v=77
10564 On ch=5 n=59 v=108
10571 On ch=5 n=63 v=88
10619 On ch=5 n=61 v=0
10988 On ch=5 n=63 v=0
11024 On ch=5 n=66 v=0
11046 On ch=5 n=64 v=110
11061 On ch=5 n=68 v=119
11960 On ch=5 n=59 v=0
11979 On ch=5 n=64 v=0
12016 On ch=5 n=63 v=81
12020 On ch=5 n=60 v=85
12935 On ch=5 n=60 v=0
12945 On ch=5 n=63 v=0
12945 On ch=5 n=64 v=98
12951 On ch=5 n=61 v=96
13919 On ch=5 n=68 v=0
13922 On ch=5 n=57 v=109
14334 On ch=5 n=57 v=0
14388 On ch=5 n=64 v=0
14401 On ch=5 n=66 v=80
14409 On ch=5 n=63 v=108
14410 On ch=5 n=59 v=106
14425 On ch=5 n=61 v=0
14842 On ch=5 n=59 v=0
14876 On ch=5 n=64 v=120
14881 On ch=5 n=61 v=123
14885 On ch=5 n=56 v=120
14890 On ch=5 n=63 v=0
14895 On ch=5 n=66 v=0
15787 On ch=5 n=56 v=0
15835 On ch=5 n=64 v=0
15840 On ch=5 n=57 v=106
15845 On ch=5 n=66 v=127
16763 On ch=5 n=57 v=0
16812 On ch=5 n=59 v=111
16812 On ch=5 n=63 v=116
16819 On ch=5 n=61 v=0
17749 On ch=5 n=66 v=0
17755 On ch=5 n=63 v=0
17758 On ch=5 n=56 v=104
17785 On ch=5 n=64 v=110
17785 On ch=5 n=63 v=111
17824 On ch=5 n=63 v=0
18198 On ch=5 n=59 v=0
18243 On ch=5 n=60 v=112
18257 On ch=5 n=63 v=70
18284 On ch=5 n=64 v=0
18664 On ch=5 n=63 v=0
18701 On ch=5 n=60 v=0
18716 On ch=5 n=61 v=98
18719 On ch=5 n=64 v=101
18720 On ch=5 n=61 v=110
18720 On ch=5 n=64 v=119
18720 On ch=5 n=57 v=100
18720 On ch=5 n=68 v=113
18814 On ch=5 n=64 v=0
18816 On ch=5 n=68 v=0
18818 On ch=5 n=61 v=0
18819 On ch=5 n=57 v=0
19646 On ch=5 n=56 v=0
19666 On ch=5 n=64 v=0
19675 On ch=5 n=66 v=80
19683 On ch=5 n=57 v=124
20587 On ch=5 n=57 v=0
20637 On ch=5 n=59 v=111
20644 On ch=5 n=61 v=0
20645 On ch=5 n=63 v=111
21548 On ch=5 n=66 v=0
21578 On ch=5 n=63 v=0
21590 On ch=5 n=56 v=59
21602 On ch=5 n=64 v=111
22021 On ch=5 n=59 v=0
22045 On ch=5 n=56 v=0
22092 On ch=5 n=56 v=109
22093 On ch=5 n=63 v=117
22094 On ch=5 n=60 v=120
22140 On ch=5 n=64 v=0
22560 On ch=5 n=61 v=111
22560 On ch=5 n=64 v=121
22560 On ch=5 n=57 v=110
22560 On ch=5 n=68 v=106
22571 On ch=5 n=60 v=0
22572 On ch=5 n=63 v=0
22573 On ch=5 n=56 v=0
22672 On ch=5 n=68 v=0
22674 On ch=5 n=64 v=0
22679 On ch=5 n=61 v=0
22681 On ch=5 n=57 v=0
22740 On ch=5 n=63 v=126
22740 On ch=5 n=59 v=122
22740 On ch=5 n=56 v=119
22740 On ch=5 n=66 v=120
22831 On ch=5 n=66 v=0
22839 On ch=5 n=63 v=0
22843 On ch=5 n=59 v=0
22846 On ch=5 n=56 v=0
22920 On ch=5 n=61 v=122
22920 On ch=5 n=57 v=122
22920 On ch=5 n=54 v=116
22920 On ch=5 n=64 v=124
23020 On ch=5 n=54 v=0
23021 On ch=5 n=64 v=0
23028 On ch=5 n=57 v=0
23029 On ch=5 n=61 v=0
23100 On ch=5 n=63 v=119
23100 On ch=5 n=59 v=123
23100 On ch=5 n=56 v=124
23100 On ch=5 n=66 v=121
23188 On ch=5 n=66 v=0
23189 On ch=5 n=56 v=0
23192 On ch=5 n=63 v=0
23194 On ch=5 n=59 v=0
23280 On ch=5 n=57 v=121
23280 On ch=5 n=61 v=124
23280 On ch=5 n=64 v=123
23280 On ch=5 n=68 v=117
23331 On ch=5 n=68 v=0
23332 On ch=5 n=61 v=0
23334 On ch=5 n=64 v=0
23336 On ch=5 n=57 v=0
23400 On ch=5 n=64 v=115
23400 On ch=5 n=57 v=110
23400 On ch=5 n=61 v=114
23400 On ch=5 n=68 v=116
24311 On ch=5 n=68 v=0
24315 On ch=5 n=64 v=0
24318 On ch=5 n=61 v=0
24327 On ch=5 n=57 v=0
24480 On ch=5 n=61 v=100
24480 On ch=5 n=56 v=97
24480 On ch=5 n=64 v=102
25397 On ch=5 n=56 v=0
25440 On ch=5 n=54 v=111
25440 On ch=5 n=57 v=115
26347 On ch=5 n=54 v=0
26361 On ch=5 n=57 v=0
26363 On ch=5 n=64 v=0
26364 On ch=5 n=61 v=0
26400 On ch=5 n=61 v=120
26400 On ch=5 n=56 v=102
26400 On ch=5 n=64 v=105
27328 On ch=5 n=64 v=0
27334 On ch=5 n=56 v=0
27342 On ch=5 n=61 v=0
27360 On ch=5 n=57 v=117
27360 On ch=5 n=54 v=118
27360 On ch=5 n=61 v=112
27360 On ch=5 n=64 v=107
28237 On ch=5 n=54 v=0
28245 On ch=5 n=64 v=0
28250 On ch=5 n=57 v=0
28253 On ch=5 n=61 v=0
28320 On ch=5 n=56 v=105
28320 On ch=5 n=59 v=115
28320 On ch=5 n=64 v=101
29228 On ch=5 n=59 v=0
29238 On ch=5 n=64 v=0
29272 On ch=5 n=56 v=0
29280 On ch=5 n=60 v=110
29280 On ch=5 n=63 v=101
29280 On ch=5 n=56 v=109
29280 On ch=5 n=66 v=97
30151 On ch=5 n=66 v=0
30167 On ch=5 n=63 v=0
30185 On ch=5 n=56 v=0
30193 On ch=5 n=60 v=0
30240 On ch=5 n=61 v=104
30240 On ch=5 n=64 v=106
30240 On ch=5 n=56 v=100
31141 On ch=5 n=56 v=0
31155 On ch=5 n=64 v=0
31164 On ch=5 n=61 v=0
31200 On ch=5 n=61 v=121
31200 On ch=5 n=64 v=121
31200 On ch=5 n=57 v=114
31640 On ch=5 n=57 v=0
31652 On ch=5 n=64 v=0
31658 On ch=5 n=61 v=0
31680 On ch=5 n=63 v=124
31680 On ch=5 n=54 v=116
31680 On ch=5 n=59 v=112
32112 On ch=5 n=54 v=0
32123 On ch=5 n=59 v=0
32124 On ch=5 n=63 v=0
32160 On ch=5 n=59 v=125
32160 On ch=5 n=56 v=119
32160 On ch=5 n=64 v=127
33044 On ch=5 n=59 v=0
33054 On ch=5 n=64 v=0
33058 On ch=5 n=56 v=0
33120 On ch=5 n=60 v=118
33120 On ch=5 n=63 v=120
33120 On ch=5 n=56 v=113
33180 On ch=5 n=66 v=53
34048 On ch=5 n=66 v=0
34048 On ch=5 n=63 v=0
34057 On ch=5 n=56 v=0
34061 On ch=5 n=60 v=0
34080 On ch=5 n=61 v=124
34080 On ch=5 n=56 v=118
34080 On ch=5 n=64 v=127
34987 On ch=5 n=56 v=0
34998 On ch=5 n=64 v=0
35003 On ch=5 n=61 v=0
35040 On ch=5 n=57 v=112
35040 On ch=5 n=61 v=120
35040 On ch=5 n=64 v=121
35484 On ch=5 n=64 v=0
35485 On ch=5 n=61 v=0
35486 On ch=5 n=57 v=0
35520 On ch=5 n=59 v=126
35520 On ch=5 n=63 v=123
35520 On ch=5 n=54 v=127
35954 On ch=5 n=54 v=0
35957 On ch=5 n=63 v=0
35974 On ch=5 n=59 v=0
35982 On ch=5 n=61 v=106
35986 On ch=5 n=64 v=111
35987 On ch=5 n=56 v=93
36911 On ch=5 n=56 v=0
36917 On ch=5 n=61 v=0
36926 On ch=5 n=64 v=0
36949 On ch=5 n=57 v=121
36950 On ch=5 n=61 v=121
36951 On ch=5 n=54 v=122
36954 On ch=5 n=64 v=102
37852 On ch=5 n=64 v=0
37862 On ch=5 n=61 v=0
37872 On ch=5 n=54 v=0
37875 On ch=5 n=57 v=0
37907 On ch=5 n=59 v=123
37908 On ch=5 n=54 v=121
37911 On ch=5 n=63 v=123
38823 On ch=5 n=63 v=0
38830 On ch=5 n=54 v=0
38833 On ch=5 n=59 v=0
38867 On ch=5 n=59 v=120
38871 On ch=5 n=56 v=124
38871 On ch=5 n=64 v=127
39276 On ch=5 n=59 v=0
39315 On ch=5 n=64 v=0
39340 On ch=5 n=56 v=0
39358 On ch=5 n=60 v=124
39359 On ch=5 n=63 v=127
39364 On ch=5 n=66 v=127
39364 On ch=5 n=56 v=127
39767 On ch=5 n=66 v=0
39771 On ch=5 n=63 v=0
39777 On ch=5 n=56 v=0
39780 On ch=5 n=60 v=0
39823 On ch=5 n=61 v=123
39826 On ch=5 n=64 v=124
39826 On ch=5 n=56 v=120
40761 On ch=5 n=56 v=0
40764 On ch=5 n=61 v=0
40767 On ch=5 n=64 v=0
40799 On ch=5 n=54 v=127
40800 On ch=5 n=61 v=127
40800 On ch=5 n=57 v=127
40800 On ch=5 n=64 v=124
41710 On ch=5 n=64 v=0
41713 On ch=5 n=61 v=0
41718 On ch=5 n=54 v=0
41727 On ch=5 n=57 v=0
41754 On ch=5 n=54 v=127
41756 On ch=5 n=63 v=127
41757 On ch=5 n=59 v=127
42646 On ch=5 n=63 v=0
42648 On ch=5 n=54 v=0
42656 On ch=5 n=59 v=0
42712 On ch=5 n=59 v=127
42714 On ch=5 n=56 v=127
42715 On ch=5 n=64 v=127
43151 On ch=5 n=59 v=0
43158 On ch=5 n=64 v=0
43163 On ch=5 n=56 v=0
43201 On ch=5 n=56 v=125
43201 On ch=5 n=63 v=121
43202 On ch=5 n=66 v=127
43204 On ch=5 n=60 v=121
43596 On ch=5 n=60 v=0
43600 On ch=5 n=56 v=0
43601 On ch=5 n=66 v=0
43602 On ch=5 n=63 v=0
43680 On ch=5 n=61 v=117
43680 On ch=5 n=68 v=118
43680 On ch=5 n=57 v=108
43680 On ch=5 n=64 v=123
43740 On ch=5 n=64 v=0
43740 On ch=5 n=61 v=0
43740 On ch=5 n=68 v=0
43740 On ch=5 n=57 v=0
43860 On ch=5 n=59 v=120
43860 On ch=5 n=63 v=124
43860 On ch=5 n=56 v=123
43860 On ch=5 n=66 v=125
43920 On ch=5 n=66 v=0
43920 On ch=5 n=59 v=0
43920 On ch=5 n=63 v=0
43920 On ch=5 n=56 v=0
44040 On ch=5 n=57 v=127
44040 On ch=5 n=61 v=121
44040 On ch=5 n=54 v=123
44040 On ch=5 n=64 v=123
44100 On ch=5 n=64 v=0
44100 On ch=5 n=57 v=0
44100 On ch=5 n=61 v=0
44100 On ch=5 n=54 v=0
44220 On ch=5 n=59 v=118
44220 On ch=5 n=63 v=124
44220 On ch=5 n=56 v=123
44220 On ch=5 n=66 v=121
44250 On ch=5 n=66 v=0
44250 On ch=5 n=59 v=0
44250 On ch=5 n=63 v=0
44250 On ch=5 n=56 v=0
44402 On ch=5 n=61 v=118
44402 On ch=5 n=57 v=118
44402 On ch=5 n=64 v=127
44402 On ch=5 n=68 v=108
44462 On ch=5 n=68 v=0
44462 On ch=5 n=61 v=0
44462 On ch=5 n=57 v=0
44462 On ch=5 n=64 v=0
44520 On ch=5 n=68 v=120
44520 On ch=5 n=64 v=127
44520 On ch=5 n=61 v=121
44520 On ch=5 n=57 v=125
44880 On ch=5 n=64 v=0
44880 On ch=5 n=68 v=0
44910 On ch=5 n=61 v=0
44910 On ch=5 n=57 v=0
45000 On ch=5 n=68 v=127
45000 On ch=5 n=59 v=127
45000 On ch=5 n=63 v=127
45060 On ch=5 n=63 v=0
45060 On ch=5 n=59 v=0
45060 On ch=5 n=68 v=0
45120 On ch=5 n=68 v=127
45120 On ch=5 n=64 v=127
45120 On ch=5 n=73 v=127
45180 On ch=5 n=73 v=0
45180 On ch=5 n=64 v=0
45180 On ch=5 n=68 v=0
45180 Meta TrkEnd
TrkEnd
MTrk
0 Meta 0x21 00
0 Meta TrkName "Drums"
168 Par ch=10 c=7 v=127
480 On ch=10 n=36 v=100
540 On ch=10 n=36 v=0
660 On ch=10 n=36 v=100
720 On ch=10 n=36 v=0
840 On ch=10 n=36 v=100
900 On ch=10 n=36 v=0
960 On ch=10 n=36 v=100
960 On ch=10 n=40 v=127
977 On ch=10 n=40 v=0
993 On ch=10 n=40 v=121
1010 On ch=10 n=40 v=0
1021 On ch=10 n=40 v=120
1036 On ch=10 n=40 v=0
1050 On ch=10 n=40 v=127
1051 On ch=10 n=44 v=127
1051 On ch=10 n=42 v=121
1067 On ch=10 n=40 v=0
1072 On ch=10 n=44 v=0
1080 On ch=10 n=36 v=0
1080 On ch=10 n=36 v=100
1080 On ch=10 n=40 v=127
1081 On ch=10 n=44 v=117
1082 On ch=10 n=42 v=0
1098 On ch=10 n=40 v=0
1113 On ch=10 n=44 v=0
1141 On ch=10 n=46 v=127
1142 On ch=10 n=40 v=116
1156 On ch=10 n=40 v=0
1172 On ch=10 n=40 v=127
1188 On ch=10 n=40 v=0
1194 On ch=10 n=46 v=0
1200 On ch=10 n=36 v=0
1203 On ch=10 n=40 v=127
1204 On ch=10 n=36 v=100
1219 On ch=10 n=40 v=0
1232 On ch=10 n=40 v=127
1250 On ch=10 n=40 v=0
1261 On ch=10 n=44 v=127
1261 On ch=10 n=42 v=126
1265 On ch=10 n=40 v=127
1284 On ch=10 n=44 v=0
1285 On ch=10 n=40 v=0
1291 On ch=10 n=44 v=127
1298 On ch=10 n=42 v=0
1320 On ch=10 n=36 v=100
1322 On ch=10 n=44 v=0
1322 On ch=10 n=40 v=127
1324 On ch=10 n=36 v=0
1339 On ch=10 n=40 v=0
1351 On ch=10 n=46 v=127
1354 On ch=10 n=40 v=127
1371 On ch=10 n=40 v=0
1380 On ch=10 n=40 v=116
1403 On ch=10 n=40 v=0
1412 On ch=10 n=40 v=112
1430 On ch=10 n=40 v=0
1437 On ch=10 n=46 v=0
1440 On ch=10 n=36 v=0
1440 On ch=10 n=36 v=100
1441 On ch=10 n=40 v=127
1467 On ch=10 n=40 v=0
1501 On ch=10 n=44 v=127
1525 On ch=10 n=44 v=0
1531 On ch=10 n=42 v=120
1531 On ch=10 n=44 v=127
1560 On ch=10 n=36 v=0
1560 On ch=10 n=36 v=100
1564 On ch=10 n=44 v=0
1565 On ch=10 n=42 v=0
1621 On ch=10 n=46 v=127
1680 On ch=10 n=36 v=0
1680 On ch=10 n=36 v=100
1695 On ch=10 n=46 v=0
1741 On ch=10 n=44 v=127
1766 On ch=10 n=44 v=0
1771 On ch=10 n=42 v=123
1800 On ch=10 n=36 v=0
1800 On ch=10 n=36 v=100
1801 On ch=10 n=44 v=123
1804 On ch=10 n=42 v=0
1831 On ch=10 n=44 v=0
1861 On ch=10 n=46 v=127
1920 On ch=10 n=36 v=0
1924 On ch=10 n=36 v=127
1937 On ch=10 n=46 v=0
1950 On ch=10 n=36 v=0
1981 On ch=10 n=44 v=127
2008 On ch=10 n=44 v=0
2011 On ch=10 n=42 v=119
2041 On ch=10 n=44 v=124
2048 On ch=10 n=42 v=0
2070 On ch=10 n=44 v=0
2101 On ch=10 n=46 v=127
2102 On ch=10 n=36 v=100
2162 On ch=10 n=36 v=0
2165 On ch=10 n=46 v=0
2221 On ch=10 n=44 v=127
2250 On ch=10 n=44 v=0
2251 On ch=10 n=42 v=124
2281 On ch=10 n=44 v=119
2282 On ch=10 n=36 v=100
2289 On ch=10 n=42 v=0
2315 On ch=10 n=44 v=0
2341 On ch=10 n=46 v=127
2342 On ch=10 n=36 v=0
2402 On ch=10 n=36 v=100
2402 On ch=10 n=40 v=127
2414 On ch=10 n=46 v=0
2419 On ch=10 n=40 v=0
2435 On ch=10 n=40 v=121
2452 On ch=10 n=40 v=0
2461 On ch=10 n=44 v=127
2463 On ch=10 n=40 v=120
2478 On ch=10 n=40 v=0
2488 On ch=10 n=44 v=0
2491 On ch=10 n=42 v=121
2492 On ch=10 n=40 v=127
2509 On ch=10 n=40 v=0
2521 On ch=10 n=44 v=121
2522 On ch=10 n=36 v=0
2522 On ch=10 n=36 v=100
2522 On ch=10 n=40 v=127
2527 On ch=10 n=42 v=0
2540 On ch=10 n=40 v=0
2552 On ch=10 n=44 v=0
2581 On ch=10 n=46 v=127
2584 On ch=10 n=40 v=116
2598 On ch=10 n=40 v=0
2614 On ch=10 n=40 v=127
2630 On ch=10 n=40 v=0
2642 On ch=10 n=36 v=0
2645 On ch=10 n=40 v=127
2646 On ch=10 n=36 v=100
2661 On ch=10 n=40 v=0
2661 On ch=10 n=46 v=0
2674 On ch=10 n=40 v=127
2692 On ch=10 n=40 v=0
2701 On ch=10 n=44 v=127
2707 On ch=10 n=40 v=127
2727 On ch=10 n=40 v=0
2730 On ch=10 n=44 v=0
2731 On ch=10 n=42 v=119
2761 On ch=10 n=44 v=122
2762 On ch=10 n=36 v=100
2764 On ch=10 n=40 v=127
2765 On ch=10 n=42 v=0
2766 On ch=10 n=36 v=0
2781 On ch=10 n=40 v=0
2792 On ch=10 n=44 v=0
2796 On ch=10 n=40 v=127
2813 On ch=10 n=40 v=0
2821 On ch=10 n=46 v=127
2822 On ch=10 n=40 v=116
2845 On ch=10 n=40 v=0
2854 On ch=10 n=40 v=112
2872 On ch=10 n=40 v=0
2882 On ch=10 n=36 v=0
2882 On ch=10 n=36 v=100
2883 On ch=10 n=40 v=127
2887 On ch=10 n=46 v=0
2909 On ch=10 n=40 v=0
2941 On ch=10 n=44 v=127
2968 On ch=10 n=44 v=0
2971 On ch=10 n=42 v=123
3001 On ch=10 n=44 v=120
3002 On ch=10 n=36 v=0
3002 On ch=10 n=36 v=100
3004 On ch=10 n=42 v=0
3033 On ch=10 n=44 v=0
3061 On ch=10 n=46 v=127
3122 On ch=10 n=36 v=0
3122 On ch=10 n=36 v=100
3130 On ch=10 n=46 v=0
3181 On ch=10 n=44 v=127
3206 On ch=10 n=44 v=0
3211 On ch=10 n=42 v=122
3241 On ch=10 n=44 v=122
3242 On ch=10 n=36 v=0
3242 On ch=10 n=36 v=100
3242 On ch=10 n=40 v=127
3248 On ch=10 n=42 v=0
3263 On ch=10 n=40 v=0
3272 On ch=10 n=44 v=0
3301 On ch=10 n=40 v=127
3301 On ch=10 n=46 v=127
3331 On ch=10 n=40 v=0
3360 On ch=10 n=36 v=127
3362 On ch=10 n=36 v=0
3375 On ch=10 n=46 v=0
3420 On ch=10 n=36 v=0
3421 On ch=10 n=44 v=127
3449 On ch=10 n=44 v=0
3451 On ch=10 n=42 v=121
3480 On ch=10 n=36 v=127
3481 On ch=10 n=44 v=118
3485 On ch=10 n=42 v=0
3512 On ch=10 n=44 v=0
3540 On ch=10 n=36 v=0
3541 On ch=10 n=46 v=127
3600 On ch=10 n=36 v=127
3616 On ch=10 n=46 v=0
3660 On ch=10 n=36 v=0
3661 On ch=10 n=44 v=127
3687 On ch=10 n=44 v=0
3691 On ch=10 n=42 v=116
3720 On ch=10 n=36 v=127
3721 On ch=10 n=44 v=121
3727 On ch=10 n=42 v=0
3751 On ch=10 n=44 v=0
3780 On ch=10 n=36 v=0
3781 On ch=10 n=46 v=127
3840 On ch=10 n=36 v=127
3864 On ch=10 n=46 v=0
3900 On ch=10 n=36 v=0
3901 On ch=10 n=44 v=123
3931 On ch=10 n=42 v=119
3935 On ch=10 n=44 v=0
3960 On ch=10 n=36 v=127
3961 On ch=10 n=44 v=110
3968 On ch=10 n=42 v=0
3995 On ch=10 n=44 v=0
4020 On ch=10 n=36 v=0
4021 On ch=10 n=46 v=127
4080 On ch=10 n=36 v=127
4109 On ch=10 n=46 v=0
4140 On ch=10 n=36 v=0
4171 On ch=10 n=44 v=127
4199 On ch=10 n=44 v=0
4200 On ch=10 n=36 v=127
4201 On ch=10 n=42 v=114
4201 On ch=10 n=44 v=119
4234 On ch=10 n=44 v=0
4236 On ch=10 n=42 v=0
4260 On ch=10 n=36 v=0
4261 On ch=10 n=46 v=127
4320 On ch=10 n=36 v=127
4341 On ch=10 n=46 v=0
4380 On ch=10 n=36 v=0
4381 On ch=10 n=44 v=126
4402 On ch=10 n=44 v=0
4411 On ch=10 n=42 v=122
4440 On ch=10 n=36 v=127
4441 On ch=10 n=44 v=119
4448 On ch=10 n=42 v=0
4472 On ch=10 n=44 v=0
4500 On ch=10 n=36 v=0
4501 On ch=10 n=46 v=127
4560 On ch=10 n=36 v=127
4575 On ch=10 n=46 v=0
4620 On ch=10 n=36 v=0
4621 On ch=10 n=44 v=127
4650 On ch=10 n=44 v=0
4651 On ch=10 n=42 v=125
4680 On ch=10 n=36 v=127
4681 On ch=10 n=44 v=126
4688 On ch=10 n=42 v=0
4709 On ch=10 n=44 v=0
4740 On ch=10 n=36 v=0
4741 On ch=10 n=46 v=127
4800 On ch=10 n=36 v=127
4822 On ch=10 n=46 v=0
4860 On ch=10 n=36 v=0
4861 On ch=10 n=44 v=127
4885 On ch=10 n=44 v=0
4891 On ch=10 n=42 v=124
4920 On ch=10 n=36 v=127
4921 On ch=10 n=44 v=127
4930 On ch=10 n=42 v=0
4952 On ch=10 n=44 v=0
4980 On ch=10 n=36 v=0
4981 On ch=10 n=46 v=127
5040 On ch=10 n=36 v=127
5059 On ch=10 n=46 v=0
5100 On ch=10 n=36 v=0
5101 On ch=10 n=44 v=127
5126 On ch=10 n=44 v=0
5131 On ch=10 n=42 v=127
5160 On ch=10 n=36 v=127
5161 On ch=10 n=44 v=123
5168 On ch=10 n=42 v=0
5190 On ch=10 n=44 v=0
5220 On ch=10 n=36 v=0
5221 On ch=10 n=46 v=127
5280 On ch=10 n=36 v=127
5306 On ch=10 n=46 v=0
5340 On ch=10 n=36 v=0
5341 On ch=10 n=44 v=127
5365 On ch=10 n=44 v=0
5371 On ch=10 n=42 v=115
5400 On ch=10 n=36 v=127
5401 On ch=10 n=44 v=118
5409 On ch=10 n=42 v=0
5435 On ch=10 n=44 v=0
5460 On ch=10 n=36 v=0
5461 On ch=10 n=46 v=127
5520 On ch=10 n=36 v=127
5538 On ch=10 n=46 v=0
5580 On ch=10 n=36 v=0
5581 On ch=10 n=44 v=127
5609 On ch=10 n=44 v=0
5611 On ch=10 n=42 v=117
5640 On ch=10 n=36 v=127
5641 On ch=10 n=44 v=118
5649 On ch=10 n=42 v=0
5671 On ch=10 n=44 v=0
5700 On ch=10 n=36 v=0
5701 On ch=10 n=46 v=127
5760 On ch=10 n=36 v=127
5780 On ch=10 n=46 v=0
5820 On ch=10 n=36 v=0
5821 On ch=10 n=44 v=127
5846 On ch=10 n=44 v=0
5851 On ch=10 n=42 v=118
5880 On ch=10 n=36 v=127
5881 On ch=10 n=44 v=109
5890 On ch=10 n=42 v=0
5911 On ch=10 n=44 v=0
5940 On ch=10 n=36 v=0
5941 On ch=10 n=46 v=127
6000 On ch=10 n=36 v=127
6017 On ch=10 n=46 v=0
6060 On ch=10 n=36 v=0
6061 On ch=10 n=44 v=123
6086 On ch=10 n=44 v=0
6091 On ch=10 n=42 v=115
6120 On ch=10 n=36 v=127
6121 On ch=10 n=44 v=113
6130 On ch=10 n=42 v=0
6149 On ch=10 n=44 v=0
6180 On ch=10 n=36 v=0
6181 On ch=10 n=46 v=127
6240 On ch=10 n=36 v=127
6262 On ch=10 n=46 v=0
6300 On ch=10 n=36 v=0
6301 On ch=10 n=44 v=126
6323 On ch=10 n=44 v=0
6331 On ch=10 n=42 v=121
6360 On ch=10 n=36 v=127
6361 On ch=10 n=44 v=121
6375 On ch=10 n=42 v=0
6389 On ch=10 n=44 v=0
6420 On ch=10 n=36 v=0
6421 On ch=10 n=46 v=125
6480 On ch=10 n=36 v=127
6504 On ch=10 n=46 v=0
6540 On ch=10 n=36 v=0
6541 On ch=10 n=44 v=127
6567 On ch=10 n=44 v=0
6571 On ch=10 n=42 v=115
6600 On ch=10 n=36 v=127
6601 On ch=10 n=44 v=118
6610 On ch=10 n=42 v=0
6629 On ch=10 n=44 v=0
6660 On ch=10 n=36 v=0
6661 On ch=10 n=46 v=119
6720 On ch=10 n=36 v=127
6731 On ch=10 n=46 v=0
6780 On ch=10 n=36 v=0
6781 On ch=10 n=44 v=127
6811 On ch=10 n=44 v=0
6811 On ch=10 n=42 v=120
6840 On ch=10 n=36 v=127
6841 On ch=10 n=44 v=118
6850 On ch=10 n=42 v=0
6870 On ch=10 n=44 v=0
6900 On ch=10 n=36 v=0
6901 On ch=10 n=46 v=127
6960 On ch=10 n=36 v=127
6977 On ch=10 n=46 v=0
7020 On ch=10 n=36 v=0
7021 On ch=10 n=44 v=127
7049 On ch=10 n=44 v=0
7051 On ch=10 n=42 v=116
7080 On ch=10 n=36 v=127
7081 On ch=10 n=44 v=108
7091 On ch=10 n=42 v=0
7106 On ch=10 n=44 v=0
7140 On ch=10 n=36 v=0
7141 On ch=10 n=46 v=122
7200 On ch=10 n=36 v=127
7226 On ch=10 n=46 v=0
7260 On ch=10 n=36 v=0
7261 On ch=10 n=44 v=127
7286 On ch=10 n=44 v=0
7291 On ch=10 n=42 v=110
7320 On ch=10 n=36 v=127
7321 On ch=10 n=44 v=118
7331 On ch=10 n=42 v=0
7350 On ch=10 n=44 v=0
7380 On ch=10 n=36 v=0
7381 On ch=10 n=46 v=127
7440 On ch=10 n=36 v=127
7458 On ch=10 n=46 v=0
7500 On ch=10 n=36 v=0
7501 On ch=10 n=44 v=127
7531 On ch=10 n=42 v=115
7532 On ch=10 n=44 v=0
7560 On ch=10 n=36 v=127
7561 On ch=10 n=44 v=115
7573 On ch=10 n=42 v=0
7591 On ch=10 n=44 v=0
7620 On ch=10 n=36 v=0
7621 On ch=10 n=46 v=127
7680 On ch=10 n=36 v=127
7711 On ch=10 n=46 v=0
7740 On ch=10 n=36 v=0
7741 On ch=10 n=44 v=127
7766 On ch=10 n=44 v=0
7771 On ch=10 n=42 v=123
7800 On ch=10 n=36 v=127
7801 On ch=10 n=44 v=115
7807 On ch=10 n=42 v=0
7832 On ch=10 n=44 v=0
7860 On ch=10 n=36 v=0
7861 On ch=10 n=46 v=127
7920 On ch=10 n=36 v=127
7939 On ch=10 n=46 v=0
7980 On ch=10 n=36 v=0
7981 On ch=10 n=44 v=125
8005 On ch=10 n=44 v=0
8011 On ch=10 n=42 v=118
8040 On ch=10 n=36 v=127
8041 On ch=10 n=44 v=127
8051 On ch=10 n=42 v=0
8070 On ch=10 n=44 v=0
8100 On ch=10 n=36 v=0
8101 On ch=10 n=46 v=127
8160 On ch=10 n=36 v=127
8193 On ch=10 n=46 v=0
8220 On ch=10 n=36 v=0
8221 On ch=10 n=44 v=127
8248 On ch=10 n=44 v=0
8251 On ch=10 n=42 v=119
8280 On ch=10 n=36 v=127
8281 On ch=10 n=44 v=115
8292 On ch=10 n=42 v=0
8310 On ch=10 n=44 v=0
8340 On ch=10 n=36 v=0
8341 On ch=10 n=46 v=127
8400 On ch=10 n=36 v=127
8420 On ch=10 n=46 v=0
8460 On ch=10 n=36 v=0
8461 On ch=10 n=44 v=127
8485 On ch=10 n=44 v=0
8491 On ch=10 n=42 v=127
8520 On ch=10 n=36 v=127
8521 On ch=10 n=44 v=120
8528 On ch=10 n=42 v=0
8552 On ch=10 n=44 v=0
8580 On ch=10 n=36 v=0
8581 On ch=10 n=46 v=119
8640 On ch=10 n=36 v=127
8664 On ch=10 n=46 v=0
8700 On ch=10 n=36 v=0
8701 On ch=10 n=44 v=122
8726 On ch=10 n=44 v=0
8731 On ch=10 n=42 v=117
8760 On ch=10 n=36 v=127
8761 On ch=10 n=44 v=117
8773 On ch=10 n=42 v=0
8789 On ch=10 n=44 v=0
8820 On ch=10 n=36 v=0
8821 On ch=10 n=46 v=118
8880 On ch=10 n=36 v=127
8898 On ch=10 n=46 v=0
8940 On ch=10 n=36 v=0
8941 On ch=10 n=44 v=120
8967 On ch=10 n=44 v=0
8971 On ch=10 n=42 v=117
9000 On ch=10 n=36 v=127
9001 On ch=10 n=44 v=123
9013 On ch=10 n=42 v=0
9030 On ch=10 n=44 v=0
9060 On ch=10 n=36 v=0
9061 On ch=10 n=46 v=127
9120 On ch=10 n=36 v=127
9143 On ch=10 n=46 v=0
9180 On ch=10 n=36 v=0
9181 On ch=10 n=44 v=127
9207 On ch=10 n=44 v=0
9211 On ch=10 n=42 v=118
9240 On ch=10 n=36 v=127
9241 On ch=10 n=44 v=115
9251 On ch=10 n=42 v=0
9272 On ch=10 n=44 v=0
9300 On ch=10 n=36 v=0
9301 On ch=10 n=46 v=127
9360 On ch=10 n=36 v=127
9361 On ch=10 n=46 v=0
9420 On ch=10 n=36 v=0
9421 On ch=10 n=44 v=115
9450 On ch=10 n=44 v=0
9451 On ch=10 n=42 v=121
9480 On ch=10 n=36 v=127
9481 On ch=10 n=44 v=119
9487 On ch=10 n=42 v=0
9513 On ch=10 n=44 v=0
9540 On ch=10 n=36 v=0
9541 On ch=10 n=46 v=127
9600 On ch=10 n=36 v=127
9617 On ch=10 n=46 v=0
9660 On ch=10 n=36 v=0
9661 On ch=10 n=44 v=127
9686 On ch=10 n=44 v=0
9691 On ch=10 n=42 v=113
9720 On ch=10 n=36 v=127
9721 On ch=10 n=44 v=118
9732 On ch=10 n=42 v=0
9757 On ch=10 n=44 v=0
9780 On ch=10 n=36 v=0
9781 On ch=10 n=46 v=127
9840 On ch=10 n=36 v=127
9852 On ch=10 n=46 v=0
9900 On ch=10 n=36 v=0
9901 On ch=10 n=44 v=122
9927 On ch=10 n=44 v=0
9931 On ch=10 n=42 v=115
9960 On ch=10 n=36 v=127
9961 On ch=10 n=44 v=122
9969 On ch=10 n=42 v=0
9993 On ch=10 n=44 v=0
10020 On ch=10 n=36 v=0
10021 On ch=10 n=46 v=127
10080 On ch=10 n=36 v=127
10106 On ch=10 n=46 v=0
10140 On ch=10 n=36 v=0
10141 On ch=10 n=44 v=120
10168 On ch=10 n=44 v=0
10171 On ch=10 n=42 v=118
10200 On ch=10 n=36 v=127
10201 On ch=10 n=44 v=120
10215 On ch=10 n=42 v=0
10232 On ch=10 n=44 v=0
10260 On ch=10 n=36 v=0
10261 On ch=10 n=46 v=127
10320 On ch=10 n=36 v=127
10338 On ch=10 n=46 v=0
10380 On ch=10 n=36 v=0
10381 On ch=10 n=44 v=122
10408 On ch=10 n=44 v=0
10411 On ch=10 n=42 v=126
10440 On ch=10 n=36 v=127
10441 On ch=10 n=44 v=112
10450 On ch=10 n=42 v=0
10474 On ch=10 n=44 v=0
10500 On ch=10 n=36 v=0
10501 On ch=10 n=46 v=127
10560 On ch=10 n=36 v=127
10585 On ch=10 n=46 v=0
10620 On ch=10 n=36 v=0
10621 On ch=10 n=44 v=127
10644 On ch=10 n=44 v=0
10651 On ch=10 n=42 v=118
10680 On ch=10 n=36 v=127
10681 On ch=10 n=44 v=116
10689 On ch=10 n=42 v=0
10713 On ch=10 n=44 v=0
10740 On ch=10 n=36 v=0
10741 On ch=10 n=46 v=127
10800 On ch=10 n=36 v=127
10804 On ch=10 n=46 v=0
10860 On ch=10 n=36 v=0
10861 On ch=10 n=44 v=118
10861 On ch=10 n=42 v=124
10886 On ch=10 n=44 v=0
10900 On ch=10 n=42 v=0
10920 On ch=10 n=36 v=127
10921 On ch=10 n=44 v=118
10951 On ch=10 n=44 v=0
10980 On ch=10 n=36 v=0
10981 On ch=10 n=46 v=127
11040 On ch=10 n=36 v=127
11065 On ch=10 n=46 v=0
11100 On ch=10 n=36 v=0
11101 On ch=10 n=44 v=127
11124 On ch=10 n=44 v=0
11131 On ch=10 n=42 v=113
11160 On ch=10 n=36 v=127
11161 On ch=10 n=44 v=115
11169 On ch=10 n=42 v=0
11191 On ch=10 n=44 v=0
11220 On ch=10 n=36 v=0
11221 On ch=10 n=46 v=127
11280 On ch=10 n=36 v=127
11295 On ch=10 n=46 v=0
11340 On ch=10 n=36 v=0
11341 On ch=10 n=44 v=122
11367 On ch=10 n=44 v=0
11371 On ch=10 n=42 v=122
11400 On ch=10 n=36 v=127
11401 On ch=10 n=44 v=113
11404 On ch=10 n=42 v=0
11430 On ch=10 n=44 v=0
11460 On ch=10 n=36 v=0
11461 On ch=10 n=46 v=127
11520 On ch=10 n=36 v=127
11544 On ch=10 n=46 v=0
11580 On ch=10 n=36 v=0
11581 On ch=10 n=44 v=116
11607 On ch=10 n=44 v=0
11611 On ch=10 n=42 v=118
11640 On ch=10 n=36 v=127
11641 On ch=10 n=44 v=115
11649 On ch=10 n=42 v=0
11673 On ch=10 n=44 v=0
11700 On ch=10 n=36 v=0
11701 On ch=10 n=46 v=125
11760 On ch=10 n=36 v=127
11789 On ch=10 n=46 v=0
11820 On ch=10 n=36 v=0
11821 On ch=10 n=44 v=111
11844 On ch=10 n=44 v=0
11851 On ch=10 n=42 v=127
11880 On ch=10 n=36 v=127
11881 On ch=10 n=44 v=114
11892 On ch=10 n=42 v=0
11903 On ch=10 n=44 v=0
11940 On ch=10 n=36 v=0
11941 On ch=10 n=46 v=127
12000 On ch=10 n=36 v=127
12033 On ch=10 n=46 v=0
12060 On ch=10 n=36 v=0
12061 On ch=10 n=44 v=123
12088 On ch=10 n=44 v=0
12091 On ch=10 n=42 v=115
12120 On ch=10 n=36 v=127
12121 On ch=10 n=44 v=118
12128 On ch=10 n=42 v=0
12147 On ch=10 n=44 v=0
12180 On ch=10 n=36 v=0
12181 On ch=10 n=46 v=127
12240 On ch=10 n=36 v=127
12269 On ch=10 n=46 v=0
12300 On ch=10 n=36 v=0
12301 On ch=10 n=44 v=127
12329 On ch=10 n=44 v=0
12331 On ch=10 n=42 v=112
12360 On ch=10 n=36 v=127
12361 On ch=10 n=44 v=115
12370 On ch=10 n=42 v=0
12387 On ch=10 n=44 v=0
12420 On ch=10 n=36 v=0
12421 On ch=10 n=46 v=127
12480 On ch=10 n=36 v=127
12501 On ch=10 n=46 v=0
12540 On ch=10 n=36 v=0
12541 On ch=10 n=44 v=121
12570 On ch=10 n=44 v=0
12571 On ch=10 n=42 v=101
12600 On ch=10 n=36 v=127
12601 On ch=10 n=44 v=122
12612 On ch=10 n=42 v=0
12631 On ch=10 n=44 v=0
12660 On ch=10 n=36 v=0
12661 On ch=10 n=46 v=127
12720 On ch=10 n=36 v=127
12750 On ch=10 n=46 v=0
12780 On ch=10 n=36 v=0
12781 On ch=10 n=44 v=127
12806 On ch=10 n=44 v=0
12811 On ch=10 n=42 v=124
12840 On ch=10 n=36 v=127
12841 On ch=10 n=44 v=120
12845 On ch=10 n=42 v=0
12868 On ch=10 n=44 v=0
12900 On ch=10 n=36 v=0
12901 On ch=10 n=46 v=127
12960 On ch=10 n=36 v=127
12984 On ch=10 n=46 v=0
13020 On ch=10 n=36 v=0
13021 On ch=10 n=44 v=116
13051 On ch=10 n=42 v=118
13053 On ch=10 n=44 v=0
13080 On ch=10 n=36 v=127
13081 On ch=10 n=44 v=110
13087 On ch=10 n=42 v=0
13106 On ch=10 n=44 v=0
13140 On ch=10 n=36 v=0
13141 On ch=10 n=46 v=127
13200 On ch=10 n=36 v=127
13207 On ch=10 n=46 v=0
13260 On ch=10 n=36 v=0
13261 On ch=10 n=44 v=118
13286 On ch=10 n=44 v=0
13291 On ch=10 n=42 v=115
13320 On ch=10 n=36 v=127
13321 On ch=10 n=44 v=118
13325 On ch=10 n=42 v=0
13354 On ch=10 n=44 v=0
13380 On ch=10 n=36 v=0
13381 On ch=10 n=46 v=127
13440 On ch=10 n=36 v=127
13455 On ch=10 n=46 v=0
13500 On ch=10 n=36 v=0
13501 On ch=10 n=44 v=124
13525 On ch=10 n=44 v=0
13531 On ch=10 n=42 v=118
13531 On ch=10 n=44 v=115
13560 On ch=10 n=36 v=127
13562 On ch=10 n=44 v=0
13569 On ch=10 n=42 v=0
13620 On ch=10 n=36 v=0
13621 On ch=10 n=46 v=124
13680 On ch=10 n=36 v=127
13696 On ch=10 n=46 v=0
13740 On ch=10 n=36 v=0
13741 On ch=10 n=44 v=127
13769 On ch=10 n=44 v=0
13771 On ch=10 n=42 v=103
13800 On ch=10 n=36 v=127
13801 On ch=10 n=44 v=115
13815 On ch=10 n=42 v=0
13835 On ch=10 n=44 v=0
13860 On ch=10 n=36 v=0
13861 On ch=10 n=46 v=123
13920 On ch=10 n=36 v=127
13943 On ch=10 n=46 v=0
13980 On ch=10 n=36 v=0
13981 On ch=10 n=44 v=127
14006 On ch=10 n=44 v=0
14011 On ch=10 n=42 v=101
14040 On ch=10 n=36 v=127
14041 On ch=10 n=44 v=113
14050 On ch=10 n=42 v=0
14068 On ch=10 n=44 v=0
14100 On ch=10 n=36 v=0
14101 On ch=10 n=46 v=127
14160 On ch=10 n=36 v=127
14176 On ch=10 n=46 v=0
14220 On ch=10 n=36 v=0
14221 On ch=10 n=44 v=122
14244 On ch=10 n=44 v=0
14251 On ch=10 n=42 v=117
14280 On ch=10 n=36 v=127
14281 On ch=10 n=44 v=116
14291 On ch=10 n=42 v=0
14309 On ch=10 n=44 v=0
14340 On ch=10 n=36 v=0
14341 On ch=10 n=46 v=127
14399 On ch=10 n=40 v=127
14400 On ch=10 n=36 v=127
14412 On ch=10 n=46 v=0
14413 On ch=10 n=40 v=0
14430 On ch=10 n=40 v=127
14443 On ch=10 n=40 v=0
14457 On ch=10 n=40 v=123
14460 On ch=10 n=36 v=0
14461 On ch=10 n=44 v=126
14461 On ch=10 n=42 v=115
14471 On ch=10 n=40 v=0
14486 On ch=10 n=44 v=0
14490 On ch=10 n=40 v=127
14491 On ch=10 n=44 v=124
14498 On ch=10 n=42 v=0
14505 On ch=10 n=40 v=0
14519 On ch=10 n=40 v=127
14520 On ch=10 n=36 v=127
14521 On ch=10 n=44 v=0
14540 On ch=10 n=40 v=0
14575 On ch=10 n=40 v=127
14580 On ch=10 n=36 v=0
14581 On ch=10 n=46 v=127
14589 On ch=10 n=40 v=0
14606 On ch=10 n=40 v=127
14620 On ch=10 n=40 v=0
14640 On ch=10 n=36 v=127
14641 On ch=10 n=40 v=127
14654 On ch=10 n=46 v=0
14658 On ch=10 n=40 v=0
14667 On ch=10 n=40 v=127
14671 On ch=10 n=44 v=127
14682 On ch=10 n=40 v=0
14699 On ch=10 n=40 v=127
14700 On ch=10 n=44 v=0
14700 On ch=10 n=36 v=0
14701 On ch=10 n=42 v=127
14713 On ch=10 n=40 v=0
14735 On ch=10 n=42 v=0
14757 On ch=10 n=40 v=127
14760 On ch=10 n=36 v=127
14761 On ch=10 n=44 v=127
14771 On ch=10 n=40 v=0
14788 On ch=10 n=40 v=127
14793 On ch=10 n=44 v=0
14803 On ch=10 n=40 v=0
14817 On ch=10 n=40 v=127
14820 On ch=10 n=36 v=0
14821 On ch=10 n=46 v=127
14832 On ch=10 n=40 v=0
14846 On ch=10 n=40 v=127
14860 On ch=10 n=46 v=0
14862 On ch=10 n=40 v=0
14880 On ch=10 n=36 v=127
14880 On ch=10 n=40 v=127
14881 On ch=10 n=49 v=127
14881 On ch=10 n=44 v=127
14881 On ch=10 n=49 v=100
14896 On ch=10 n=49 v=0
14903 On ch=10 n=40 v=0
14910 On ch=10 n=44 v=0
14929 On ch=10 n=49 v=0
14940 On ch=10 n=36 v=0
14941 On ch=10 n=46 v=127
14967 On ch=10 n=46 v=0
15000 On ch=10 n=36 v=127
15000 On ch=10 n=38 v=127
15000 On ch=10 n=38 v=127
15001 On ch=10 n=44 v=127
15031 On ch=10 n=44 v=0
15060 On ch=10 n=36 v=0
15060 On ch=10 n=38 v=0
15061 On ch=10 n=46 v=127
15069 On ch=10 n=38 v=0
15086 On ch=10 n=46 v=0
15120 On ch=10 n=36 v=127
15121 On ch=10 n=44 v=126
15150 On ch=10 n=44 v=0
15180 On ch=10 n=36 v=0
15181 On ch=10 n=46 v=127
15211 On ch=10 n=46 v=0
15240 On ch=10 n=36 v=127
15240 On ch=10 n=38 v=127
15240 On ch=10 n=38 v=127
15241 On ch=10 n=44 v=123
15275 On ch=10 n=44 v=0
15281 On ch=10 n=38 v=0
15294 On ch=10 n=38 v=0
15300 On ch=10 n=36 v=0
15301 On ch=10 n=46 v=127
15332 On ch=10 n=46 v=0
15360 On ch=10 n=36 v=127
15361 On ch=10 n=44 v=127
15390 On ch=10 n=44 v=0
15420 On ch=10 n=36 v=0
15421 On ch=10 n=46 v=127
15450 On ch=10 n=46 v=0
15480 On ch=10 n=36 v=127
15480 On ch=10 n=38 v=127
15480 On ch=10 n=38 v=127
15481 On ch=10 n=44 v=126
15516 On ch=10 n=44 v=0
15524 On ch=10 n=38 v=0
15534 On ch=10 n=38 v=0
15540 On ch=10 n=36 v=0
15541 On ch=10 n=46 v=127
15568 On ch=10 n=46 v=0
15600 On ch=10 n=36 v=127
15601 On ch=10 n=44 v=126
15631 On ch=10 n=44 v=0
15660 On ch=10 n=36 v=0
15661 On ch=10 n=46 v=127
15696 On ch=10 n=46 v=0
15720 On ch=10 n=36 v=127
15720 On ch=10 n=38 v=127
15720 On ch=10 n=38 v=127
15721 On ch=10 n=44 v=127
15754 On ch=10 n=44 v=0
15769 On ch=10 n=38 v=0
15780 On ch=10 n=36 v=0
15781 On ch=10 n=46 v=127
15782 On ch=10 n=38 v=0
15813 On ch=10 n=46 v=0
15840 On ch=10 n=36 v=127
15841 On ch=10 n=44 v=127
15876 On ch=10 n=44 v=0
15900 On ch=10 n=36 v=0
15901 On ch=10 n=46 v=124
15936 On ch=10 n=46 v=0
15960 On ch=10 n=36 v=127
15960 On ch=10 n=38 v=127
15960 On ch=10 n=38 v=127
15961 On ch=10 n=44 v=126
15995 On ch=10 n=44 v=0
16005 On ch=10 n=38 v=0
16010 On ch=10 n=38 v=0
16020 On ch=10 n=36 v=0
16021 On ch=10 n=46 v=122
16051 On ch=10 n=46 v=0
16080 On ch=10 n=36 v=127
16081 On ch=10 n=44 v=127
16108 On ch=10 n=44 v=0
16140 On ch=10 n=36 v=0
16141 On ch=10 n=46 v=127
16174 On ch=10 n=46 v=0
16200 On ch=10 n=36 v=127
16200 On ch=10 n=38 v=127
16200 On ch=10 n=38 v=127
16201 On ch=10 n=44 v=127
16231 On ch=10 n=44 v=0
16249 On ch=10 n=38 v=0
16258 On ch=10 n=38 v=0
16260 On ch=10 n=36 v=0
16261 On ch=10 n=46 v=127
16290 On ch=10 n=46 v=0
16320 On ch=10 n=36 v=127
16321 On ch=10 n=44 v=127
16353 On ch=10 n=44 v=0
16380 On ch=10 n=36 v=0
16381 On ch=10 n=46 v=127
16415 On ch=10 n=46 v=0
16440 On ch=10 n=36 v=127
16440 On ch=10 n=38 v=127
16440 On ch=10 n=38 v=127
16441 On ch=10 n=44 v=127
16474 On ch=10 n=44 v=0
16484 On ch=10 n=38 v=0
16500 On ch=10 n=36 v=0
16501 On ch=10 n=46 v=127
16502 On ch=10 n=38 v=0
16530 On ch=10 n=46 v=0
16560 On ch=10 n=36 v=127
16561 On ch=10 n=44 v=127
16591 On ch=10 n=44 v=0
16620 On ch=10 n=36 v=0
16621 On ch=10 n=46 v=127
16653 On ch=10 n=46 v=0
16680 On ch=10 n=36 v=127
16680 On ch=10 n=38 v=127
16680 On ch=10 n=38 v=127
16681 On ch=10 n=44 v=127
16713 On ch=10 n=44 v=0
16720 On ch=10 n=38 v=0
16734 On ch=10 n=38 v=0
16740 On ch=10 n=36 v=0
16741 On ch=10 n=46 v=127
16771 On ch=10 n=46 v=0
16800 On ch=10 n=36 v=127
16801 On ch=10 n=44 v=126
16833 On ch=10 n=44 v=0
16860 On ch=10 n=36 v=0
16861 On ch=10 n=46 v=127
16895 On ch=10 n=46 v=0
16920 On ch=10 n=36 v=127
16920 On ch=10 n=38 v=127
16920 On ch=10 n=38 v=127
16921 On ch=10 n=44 v=123
16953 On ch=10 n=44 v=0
16968 On ch=10 n=38 v=0
16978 On ch=10 n=38 v=0
16980 On ch=10 n=36 v=0
16981 On ch=10 n=46 v=127
17013 On ch=10 n=46 v=0
17040 On ch=10 n=36 v=127
17041 On ch=10 n=44 v=124
17075 On ch=10 n=44 v=0
17100 On ch=10 n=36 v=0
17101 On ch=10 n=46 v=127
17131 On ch=10 n=46 v=0
17160 On ch=10 n=36 v=127
17160 On ch=10 n=38 v=127
17160 On ch=10 n=38 v=127
17161 On ch=10 n=44 v=126
17195 On ch=10 n=44 v=0
17206 On ch=10 n=38 v=0
17214 On ch=10 n=38 v=0
17220 On ch=10 n=36 v=0
17221 On ch=10 n=46 v=127
17255 On ch=10 n=46 v=0
17280 On ch=10 n=36 v=127
17281 On ch=10 n=44 v=127
17316 On ch=10 n=44 v=0
17340 On ch=10 n=36 v=0
17341 On ch=10 n=46 v=127
17373 On ch=10 n=46 v=0
17400 On ch=10 n=36 v=127
17400 On ch=10 n=38 v=127
17400 On ch=10 n=38 v=127
17401 On ch=10 n=44 v=127
17432 On ch=10 n=44 v=0
17445 On ch=10 n=38 v=0
17453 On ch=10 n=38 v=0
17460 On ch=10 n=36 v=0
17461 On ch=10 n=46 v=127
17492 On ch=10 n=46 v=0
17520 On ch=10 n=36 v=127
17521 On ch=10 n=44 v=124
17554 On ch=10 n=44 v=0
17580 On ch=10 n=36 v=0
17581 On ch=10 n=46 v=127
17615 On ch=10 n=46 v=0
17640 On ch=10 n=36 v=127
17640 On ch=10 n=38 v=127
17640 On ch=10 n=38 v=127
17641 On ch=10 n=44 v=124
17678 On ch=10 n=44 v=0
17682 On ch=10 n=38 v=0
17690 On ch=10 n=38 v=0
17700 On ch=10 n=36 v=0
17701 On ch=10 n=46 v=125
17731 On ch=10 n=46 v=0
17760 On ch=10 n=36 v=127
17761 On ch=10 n=44 v=127
17792 On ch=10 n=44 v=0
17820 On ch=10 n=36 v=0
17821 On ch=10 n=46 v=127
17852 On ch=10 n=46 v=0
17880 On ch=10 n=36 v=127
17880 On ch=10 n=38 v=127
17880 On ch=10 n=38 v=127
17881 On ch=10 n=44 v=125
17917 On ch=10 n=44 v=0
17920 On ch=10 n=38 v=0
17931 On ch=10 n=38 v=0
17940 On ch=10 n=36 v=0
17941 On ch=10 n=46 v=127
17969 On ch=10 n=46 v=0
18000 On ch=10 n=36 v=127
18001 On ch=10 n=44 v=126
18035 On ch=10 n=44 v=0
18060 On ch=10 n=36 v=0
18061 On ch=10 n=46 v=115
18094 On ch=10 n=46 v=0
18120 On ch=10 n=36 v=127
18120 On ch=10 n=38 v=127
18120 On ch=10 n=38 v=127
18121 On ch=10 n=44 v=127
18153 On ch=10 n=44 v=0
18161 On ch=10 n=38 v=0
18166 On ch=10 n=38 v=0
18180 On ch=10 n=36 v=0
18181 On ch=10 n=46 v=127
18211 On ch=10 n=46 v=0
18240 On ch=10 n=36 v=127
18241 On ch=10 n=44 v=121
18274 On ch=10 n=44 v=0
18300 On ch=10 n=36 v=0
18301 On ch=10 n=46 v=126
18338 On ch=10 n=46 v=0
18360 On ch=10 n=36 v=127
18360 On ch=10 n=38 v=127
18360 On ch=10 n=38 v=127
18361 On ch=10 n=44 v=118
18396 On ch=10 n=44 v=0
18404 On ch=10 n=38 v=0
18404 On ch=10 n=38 v=0
18420 On ch=10 n=36 v=0
18421 On ch=10 n=46 v=127
18452 On ch=10 n=46 v=0
18480 On ch=10 n=36 v=127
18481 On ch=10 n=44 v=127
18514 On ch=10 n=44 v=0
18540 On ch=10 n=36 v=0
18541 On ch=10 n=46 v=125
18576 On ch=10 n=46 v=0
18600 On ch=10 n=36 v=127
18600 On ch=10 n=38 v=127
18600 On ch=10 n=38 v=127
18601 On ch=10 n=44 v=127
18624 On ch=10 n=38 v=0
18625 On ch=10 n=38 v=0
18636 On ch=10 n=44 v=0
18660 On ch=10 n=36 v=0
18660 On ch=10 n=38 v=127
18660 On ch=10 n=38 v=127
18661 On ch=10 n=46 v=119
18678 On ch=10 n=38 v=0
18679 On ch=10 n=38 v=0
18694 On ch=10 n=38 v=127
18702 On ch=10 n=46 v=0
18708 On ch=10 n=38 v=0
18720 On ch=10 n=36 v=127
18720 On ch=10 n=49 v=127
18721 On ch=10 n=44 v=127
18734 On ch=10 n=49 v=0
18753 On ch=10 n=44 v=0
18780 On ch=10 n=36 v=0
18781 On ch=10 n=46 v=127
18816 On ch=10 n=46 v=0
18840 On ch=10 n=36 v=127
18840 On ch=10 n=38 v=127
18840 On ch=10 n=38 v=127
18841 On ch=10 n=44 v=127
18861 On ch=10 n=38 v=0
18875 On ch=10 n=44 v=0
18879 On ch=10 n=38 v=0
18900 On ch=10 n=36 v=0
18901 On ch=10 n=46 v=127
18935 On ch=10 n=46 v=0
18960 On ch=10 n=36 v=127
18961 On ch=10 n=44 v=127
18990 On ch=10 n=44 v=0
19020 On ch=10 n=36 v=0
19021 On ch=10 n=46 v=127
19056 On ch=10 n=46 v=0
19080 On ch=10 n=36 v=127
19080 On ch=10 n=38 v=127
19080 On ch=10 n=38 v=127
19081 On ch=10 n=44 v=124
19116 On ch=10 n=44 v=0
19118 On ch=10 n=38 v=0
19131 On ch=10 n=38 v=0
19140 On ch=10 n=36 v=0
19141 On ch=10 n=46 v=127
19177 On ch=10 n=46 v=0
19200 On ch=10 n=36 v=127
19201 On ch=10 n=44 v=126
19234 On ch=10 n=44 v=0
19260 On ch=10 n=36 v=0
19261 On ch=10 n=46 v=120
19298 On ch=10 n=46 v=0
19320 On ch=10 n=36 v=127
19320 On ch=10 n=38 v=127
19320 On ch=10 n=38 v=127
19321 On ch=10 n=44 v=122
19355 On ch=10 n=44 v=0
19359 On ch=10 n=38 v=0
19364 On ch=10 n=38 v=0
19380 On ch=10 n=36 v=0
19381 On ch=10 n=46 v=127
19419 On ch=10 n=46 v=0
19440 On ch=10 n=36 v=127
19441 On ch=10 n=44 v=121
19481 On ch=10 n=44 v=0
19500 On ch=10 n=36 v=0
19501 On ch=10 n=46 v=127
19538 On ch=10 n=46 v=0
19560 On ch=10 n=36 v=127
19560 On ch=10 n=38 v=127
19560 On ch=10 n=38 v=127
19561 On ch=10 n=44 v=127
19594 On ch=10 n=44 v=0
19598 On ch=10 n=38 v=0
19609 On ch=10 n=38 v=0
19620 On ch=10 n=36 v=0
19621 On ch=10 n=46 v=127
19655 On ch=10 n=46 v=0
19680 On ch=10 n=36 v=127
19681 On ch=10 n=44 v=117
19714 On ch=10 n=44 v=0
19740 On ch=10 n=36 v=0
19741 On ch=10 n=46 v=127
19779 On ch=10 n=46 v=0
19800 On ch=10 n=36 v=127
19800 On ch=10 n=38 v=127
19800 On ch=10 n=38 v=127
19801 On ch=10 n=44 v=127
19837 On ch=10 n=44 v=0
19841 On ch=10 n=38 v=0
19845 On ch=10 n=38 v=0
19860 On ch=10 n=36 v=0
19861 On ch=10 n=46 v=122
19900 On ch=10 n=46 v=0
19920 On ch=10 n=36 v=127
19921 On ch=10 n=44 v=127
19955 On ch=10 n=44 v=0
19980 On ch=10 n=36 v=0
19981 On ch=10 n=46 v=127
20020 On ch=10 n=46 v=0
20040 On ch=10 n=36 v=127
20040 On ch=10 n=38 v=127
20040 On ch=10 n=38 v=127
20041 On ch=10 n=44 v=122
20077 On ch=10 n=44 v=0
20083 On ch=10 n=38 v=0
20085 On ch=10 n=38 v=0
20100 On ch=10 n=36 v=0
20101 On ch=10 n=46 v=126
20142 On ch=10 n=46 v=0
20160 On ch=10 n=36 v=127
20161 On ch=10 n=44 v=127
20193 On ch=10 n=44 v=0
20220 On ch=10 n=36 v=0
20221 On ch=10 n=46 v=127
20257 On ch=10 n=46 v=0
20280 On ch=10 n=36 v=127
20280 On ch=10 n=38 v=127
20280 On ch=10 n=38 v=127
20281 On ch=10 n=44 v=123
20319 On ch=10 n=44 v=0
20322 On ch=10 n=38 v=0
20333 On ch=10 n=38 v=0
20340 On ch=10 n=36 v=0
20341 On ch=10 n=46 v=127
20384 On ch=10 n=46 v=0
20400 On ch=10 n=36 v=127
20401 On ch=10 n=44 v=127
20441 On ch=10 n=44 v=0
20460 On ch=10 n=36 v=0
20461 On ch=10 n=46 v=127
20502 On ch=10 n=46 v=0
20520 On ch=10 n=36 v=127
20520 On ch=10 n=38 v=127
20520 On ch=10 n=38 v=127
20521 On ch=10 n=44 v=127
20559 On ch=10 n=44 v=0
20561 On ch=10 n=38 v=0
20569 On ch=10 n=38 v=0
20580 On ch=10 n=36 v=0
20581 On ch=10 n=46 v=127
20626 On ch=10 n=46 v=0
20640 On ch=10 n=36 v=127
20641 On ch=10 n=44 v=127
20674 On ch=10 n=44 v=0
20700 On ch=10 n=36 v=0
20701 On ch=10 n=46 v=127
20750 On ch=10 n=46 v=0
20760 On ch=10 n=36 v=127
20760 On ch=10 n=38 v=127
20760 On ch=10 n=38 v=127
20761 On ch=10 n=44 v=127
20805 On ch=10 n=44 v=0
20805 On ch=10 n=38 v=0
20812 On ch=10 n=38 v=0
20820 On ch=10 n=36 v=0
20821 On ch=10 n=46 v=120
20856 On ch=10 n=46 v=0
20880 On ch=10 n=36 v=127
20881 On ch=10 n=44 v=124
20921 On ch=10 n=44 v=0
20940 On ch=10 n=36 v=0
20941 On ch=10 n=46 v=127
20979 On ch=10 n=46 v=0
21000 On ch=10 n=36 v=127
21000 On ch=10 n=38 v=127
21000 On ch=10 n=38 v=127
21001 On ch=10 n=44 v=125
21037 On ch=10 n=38 v=0
21041 On ch=10 n=44 v=0
21050 On ch=10 n=38 v=0
21060 On ch=10 n=36 v=0
21061 On ch=10 n=46 v=121
21103 On ch=10 n=46 v=0
21120 On ch=10 n=36 v=127
21121 On ch=10 n=44 v=127
21158 On ch=10 n=44 v=0
21180 On ch=10 n=36 v=0
21181 On ch=10 n=46 v=118
21228 On ch=10 n=46 v=0
21240 On ch=10 n=36 v=127
21240 On ch=10 n=38 v=127
21240 On ch=10 n=38 v=127
21241 On ch=10 n=44 v=124
21280 On ch=10 n=38 v=0
21282 On ch=10 n=44 v=0
21297 On ch=10 n=38 v=0
21300 On ch=10 n=36 v=0
21301 On ch=10 n=46 v=127
21343 On ch=10 n=46 v=0
21360 On ch=10 n=36 v=127
21361 On ch=10 n=44 v=127
21407 On ch=10 n=44 v=0
21420 On ch=10 n=36 v=0
21421 On ch=10 n=46 v=117
21469 On ch=10 n=46 v=0
21480 On ch=10 n=36 v=127
21480 On ch=10 n=38 v=127
21480 On ch=10 n=38 v=127
21481 On ch=10 n=44 v=124
21514 On ch=10 n=38 v=0
21523 On ch=10 n=38 v=0
21527 On ch=10 n=44 v=0
21540 On ch=10 n=36 v=0
21541 On ch=10 n=46 v=120
21590 On ch=10 n=46 v=0
21600 On ch=10 n=36 v=127
21601 On ch=10 n=44 v=127
21651 On ch=10 n=44 v=0
21660 On ch=10 n=36 v=0
21661 On ch=10 n=46 v=117
21714 On ch=10 n=46 v=0
21720 On ch=10 n=36 v=127
21720 On ch=10 n=38 v=127
21720 On ch=10 n=38 v=127
21721 On ch=10 n=44 v=126
21751 On ch=10 n=38 v=0
21767 On ch=10 n=38 v=0
21773 On ch=10 n=44 v=0
21780 On ch=10 n=36 v=0
21781 On ch=10 n=46 v=122
21823 On ch=10 n=46 v=0
21840 On ch=10 n=36 v=127
21841 On ch=10 n=44 v=127
21900 On ch=10 n=36 v=0
21901 On ch=10 n=44 v=0
21901 On ch=10 n=46 v=118
21950 On ch=10 n=46 v=0
21960 On ch=10 n=36 v=127
21960 On ch=10 n=38 v=127
21960 On ch=10 n=38 v=127
21961 On ch=10 n=44 v=127
21989 On ch=10 n=38 v=0
22005 On ch=10 n=38 v=0
22020 On ch=10 n=36 v=0
22021 On ch=10 n=46 v=118
22023 On ch=10 n=44 v=0
22074 On ch=10 n=46 v=0
22080 On ch=10 n=36 v=127
22081 On ch=10 n=44 v=127
22140 On ch=10 n=36 v=0
22141 On ch=10 n=46 v=126
22142 On ch=10 n=44 v=0
22200 On ch=10 n=46 v=0
22200 On ch=10 n=36 v=127
22200 On ch=10 n=38 v=127
22200 On ch=10 n=38 v=127
22201 On ch=10 n=44 v=126
22229 On ch=10 n=38 v=0
22245 On ch=10 n=38 v=0
22258 On ch=10 n=44 v=0
22260 On ch=10 n=36 v=0
22261 On ch=10 n=46 v=118
22319 On ch=10 n=46 v=0
22320 On ch=10 n=36 v=127
22321 On ch=10 n=44 v=125
22375 On ch=10 n=44 v=0
22380 On ch=10 n=36 v=0
22380 On ch=10 n=38 v=127
22381 On ch=10 n=46 v=115
22405 On ch=10 n=38 v=0
22436 On ch=10 n=46 v=0
22440 On ch=10 n=36 v=127
22440 On ch=10 n=38 v=110
22440 On ch=10 n=38 v=127
22441 On ch=10 n=44 v=127
22465 On ch=10 n=38 v=0
22476 On ch=10 n=38 v=0
22494 On ch=10 n=44 v=0
22500 On ch=10 n=36 v=0
22500 On ch=10 n=38 v=127
22501 On ch=10 n=46 v=121
22524 On ch=10 n=38 v=0
22530 On ch=10 n=38 v=100
22545 On ch=10 n=38 v=0
22559 On ch=10 n=46 v=0
22560 On ch=10 n=38 v=127
22561 On ch=10 n=36 v=100
22561 On ch=10 n=49 v=100
22561 On ch=10 n=44 v=127
22576 On ch=10 n=49 v=0
22576 On ch=10 n=36 v=0
22590 On ch=10 n=38 v=0
22609 On ch=10 n=44 v=0
22741 On ch=10 n=36 v=100
22756 On ch=10 n=36 v=0
22921 On ch=10 n=36 v=100
22936 On ch=10 n=36 v=0
23101 On ch=10 n=36 v=100
23116 On ch=10 n=36 v=0
23281 On ch=10 n=36 v=100
23296 On ch=10 n=36 v=0
23341 On ch=10 n=44 v=127
23368 On ch=10 n=44 v=0
23371 On ch=10 n=42 v=122
23401 On ch=10 n=36 v=100
23401 On ch=10 n=44 v=125
23408 On ch=10 n=42 v=0
23416 On ch=10 n=36 v=0
23427 On ch=10 n=44 v=0
23461 On ch=10 n=46 v=127
23520 On ch=10 n=46 v=0
23521 On ch=10 n=36 v=100
23521 On ch=10 n=40 v=127
23533 On ch=10 n=40 v=0
23536 On ch=10 n=36 v=0
23551 On ch=10 n=40 v=127
23551 On ch=10 n=44 v=127
23563 On ch=10 n=40 v=0
23574 On ch=10 n=44 v=0
23581 On ch=10 n=40 v=124
23581 On ch=10 n=40 v=127
23581 On ch=10 n=42 v=105
23593 On ch=10 n=40 v=0
23595 On ch=10 n=40 v=0
23611 On ch=10 n=40 v=127
23611 On ch=10 n=44 v=121
23613 On ch=10 n=42 v=0
23629 On ch=10 n=40 v=0
23638 On ch=10 n=44 v=0
23641 On ch=10 n=36 v=127
23642 On ch=10 n=40 v=100
23657 On ch=10 n=40 v=0
23671 On ch=10 n=46 v=127
23681 On ch=10 n=36 v=0
23701 On ch=10 n=40 v=127
23701 On ch=10 n=40 v=127
23713 On ch=10 n=40 v=0
23714 On ch=10 n=40 v=0
23731 On ch=10 n=40 v=127
23737 On ch=10 n=46 v=0
23746 On ch=10 n=40 v=0
23761 On ch=10 n=40 v=126
23761 On ch=10 n=36 v=127
23777 On ch=10 n=40 v=0
23791 On ch=10 n=40 v=127
23791 On ch=10 n=44 v=127
23793 On ch=10 n=36 v=0
23807 On ch=10 n=40 v=0
23817 On ch=10 n=44 v=0
23821 On ch=10 n=42 v=117
23822 On ch=10 n=40 v=127
23836 On ch=10 n=40 v=0
23851 On ch=10 n=44 v=124
23854 On ch=10 n=42 v=0
23878 On ch=10 n=44 v=0
23881 On ch=10 n=40 v=127
23881 On ch=10 n=36 v=127
23896 On ch=10 n=40 v=0
23911 On ch=10 n=40 v=126
23911 On ch=10 n=46 v=127
23922 On ch=10 n=36 v=0
23927 On ch=10 n=40 v=0
23941 On ch=10 n=40 v=127
23955 On ch=10 n=40 v=0
23971 On ch=10 n=40 v=127
23992 On ch=10 n=40 v=0
23992 On ch=10 n=46 v=0
24000 On ch=10 n=40 v=127
24001 On ch=10 n=36 v=127
24014 On ch=10 n=40 v=0
24047 On ch=10 n=36 v=0
24061 On ch=10 n=44 v=127
24087 On ch=10 n=44 v=0
24091 On ch=10 n=42 v=114
24121 On ch=10 n=44 v=117
24121 On ch=10 n=36 v=127
24128 On ch=10 n=42 v=0
24150 On ch=10 n=44 v=0
24165 On ch=10 n=36 v=0
24181 On ch=10 n=46 v=127
24241 On ch=10 n=36 v=127
24242 On ch=10 n=46 v=0
24271 On ch=10 n=44 v=127
24289 On ch=10 n=36 v=0
24299 On ch=10 n=44 v=0
24301 On ch=10 n=42 v=115
24302 On ch=10 n=40 v=127
24319 On ch=10 n=40 v=0
24331 On ch=10 n=44 v=113
24337 On ch=10 n=42 v=0
24360 On ch=10 n=44 v=0
24361 On ch=10 n=36 v=127
24361 On ch=10 n=40 v=127
24385 On ch=10 n=40 v=0
24413 On ch=10 n=36 v=0
24421 On ch=10 n=46 v=127
24481 On ch=10 n=36 v=116
24499 On ch=10 n=46 v=0
24505 On ch=10 n=36 v=0
24541 On ch=10 n=44 v=127
24565 On ch=10 n=44 v=0
24571 On ch=10 n=42 v=111
24601 On ch=10 n=44 v=114
24601 On ch=10 n=36 v=127
24607 On ch=10 n=42 v=0
24627 On ch=10 n=44 v=0
24634 On ch=10 n=36 v=0
24661 On ch=10 n=46 v=127
24721 On ch=10 n=36 v=127
24735 On ch=10 n=46 v=0
24762 On ch=10 n=36 v=0
24781 On ch=10 n=44 v=121
24810 On ch=10 n=44 v=0
24811 On ch=10 n=42 v=117
24841 On ch=10 n=44 v=122
24841 On ch=10 n=36 v=127
24853 On ch=10 n=42 v=0
24871 On ch=10 n=44 v=0
24887 On ch=10 n=36 v=0
24901 On ch=10 n=46 v=127
24961 On ch=10 n=36 v=127
24973 On ch=10 n=46 v=0
25003 On ch=10 n=36 v=0
25021 On ch=10 n=44 v=125
25046 On ch=10 n=44 v=0
25051 On ch=10 n=42 v=114
25081 On ch=10 n=44 v=118
25081 On ch=10 n=36 v=127
25090 On ch=10 n=42 v=0
25108 On ch=10 n=44 v=0
25126 On ch=10 n=36 v=0
25141 On ch=10 n=46 v=127
25201 On ch=10 n=36 v=127
25209 On ch=10 n=46 v=0
25247 On ch=10 n=36 v=0
25261 On ch=10 n=44 v=127
25289 On ch=10 n=44 v=0
25291 On ch=10 n=42 v=117
25321 On ch=10 n=44 v=114
25321 On ch=10 n=36 v=127
25330 On ch=10 n=42 v=0
25349 On ch=10 n=44 v=0
25366 On ch=10 n=36 v=0
25381 On ch=10 n=46 v=127
25441 On ch=10 n=36 v=127
25450 On ch=10 n=46 v=0
25489 On ch=10 n=36 v=0
25501 On ch=10 n=44 v=119
25526 On ch=10 n=44 v=0
25531 On ch=10 n=42 v=125
25561 On ch=10 n=44 v=113
25561 On ch=10 n=36 v=127
25569 On ch=10 n=42 v=0
25590 On ch=10 n=44 v=0
25605 On ch=10 n=36 v=0
25621 On ch=10 n=46 v=127
25681 On ch=10 n=36 v=127
25691 On ch=10 n=46 v=0
25727 On ch=10 n=36 v=0
25741 On ch=10 n=44 v=127
25771 On ch=10 n=42 v=125
25778 On ch=10 n=44 v=0
25801 On ch=10 n=44 v=113
25801 On ch=10 n=36 v=127
25811 On ch=10 n=42 v=0
25833 On ch=10 n=44 v=0
25851 On ch=10 n=36 v=0
25861 On ch=10 n=46 v=127
25921 On ch=10 n=36 v=127
25930 On ch=10 n=46 v=0
25968 On ch=10 n=36 v=0
25981 On ch=10 n=44 v=127
26005 On ch=10 n=44 v=0
26011 On ch=10 n=42 v=115
26041 On ch=10 n=44 v=112
26041 On ch=10 n=36 v=127
26049 On ch=10 n=42 v=0
26070 On ch=10 n=44 v=0
26087 On ch=10 n=36 v=0
26101 On ch=10 n=46 v=127
26161 On ch=10 n=36 v=127
26187 On ch=10 n=46 v=0
26211 On ch=10 n=36 v=0
26221 On ch=10 n=44 v=127
26244 On ch=10 n=44 v=0
26251 On ch=10 n=42 v=125
26281 On ch=10 n=44 v=121
26281 On ch=10 n=36 v=127
26290 On ch=10 n=42 v=0
26309 On ch=10 n=44 v=0
26329 On ch=10 n=36 v=0
26341 On ch=10 n=46 v=127
26401 On ch=10 n=36 v=127
26416 On ch=10 n=46 v=0
26452 On ch=10 n=36 v=0
26461 On ch=10 n=44 v=127
26491 On ch=10 n=44 v=0
26491 On ch=10 n=42 v=127
26521 On ch=10 n=44 v=115
26521 On ch=10 n=36 v=127
26525 On ch=10 n=42 v=0
26551 On ch=10 n=44 v=0
26570 On ch=10 n=36 v=0
26581 On ch=10 n=46 v=127
26641 On ch=10 n=36 v=127
26649 On ch=10 n=46 v=0
26693 On ch=10 n=36 v=0
26701 On ch=10 n=44 v=127
26727 On ch=10 n=44 v=0
26731 On ch=10 n=42 v=122
26761 On ch=10 n=44 v=121
26761 On ch=10 n=36 v=127
26767 On ch=10 n=42 v=0
26790 On ch=10 n=44 v=0
26810 On ch=10 n=36 v=0
26821 On ch=10 n=46 v=127
26881 On ch=10 n=36 v=127
26896 On ch=10 n=46 v=0
26935 On ch=10 n=36 v=0
26941 On ch=10 n=44 v=127
26970 On ch=10 n=44 v=0
26971 On ch=10 n=42 v=118
27001 On ch=10 n=44 v=112
27001 On ch=10 n=36 v=127
27008 On ch=10 n=42 v=0
27030 On ch=10 n=44 v=0
27056 On ch=10 n=36 v=0
27061 On ch=10 n=46 v=127
27121 On ch=10 n=36 v=127
27133 On ch=10 n=46 v=0
27174 On ch=10 n=36 v=0
27181 On ch=10 n=44 v=127
27206 On ch=10 n=44 v=0
27211 On ch=10 n=42 v=108
27241 On ch=10 n=44 v=120
27241 On ch=10 n=36 v=127
27257 On ch=10 n=42 v=0
27270 On ch=10 n=44 v=0
27294 On ch=10 n=36 v=0
27301 On ch=10 n=46 v=127
27361 On ch=10 n=36 v=127
27385 On ch=10 n=46 v=0
27412 On ch=10 n=36 v=0
27421 On ch=10 n=44 v=124
27445 On ch=10 n=44 v=0
27451 On ch=10 n=42 v=120
27481 On ch=10 n=44 v=109
27481 On ch=10 n=36 v=127
27492 On ch=10 n=42 v=0
27508 On ch=10 n=44 v=0
27538 On ch=10 n=36 v=0
27541 On ch=10 n=46 v=127
27601 On ch=10 n=36 v=127
27619 On ch=10 n=46 v=0
27653 On ch=10 n=36 v=0
27661 On ch=10 n=44 v=127
27686 On ch=10 n=44 v=0
27691 On ch=10 n=42 v=122
27721 On ch=10 n=44 v=118
27721 On ch=10 n=36 v=127
27730 On ch=10 n=42 v=0
27747 On ch=10 n=44 v=0
27773 On ch=10 n=36 v=0
27781 On ch=10 n=46 v=127
27841 On ch=10 n=36 v=127
27871 On ch=10 n=46 v=0
27896 On ch=10 n=36 v=0
27901 On ch=10 n=44 v=127
27923 On ch=10 n=44 v=0
27931 On ch=10 n=42 v=125
27961 On ch=10 n=44 v=118
27961 On ch=10 n=36 v=127
27971 On ch=10 n=42 v=0
27989 On ch=10 n=44 v=0
28009 On ch=10 n=36 v=0
28021 On ch=10 n=46 v=127
28081 On ch=10 n=36 v=127
28107 On ch=10 n=46 v=0
28134 On ch=10 n=36 v=0
28141 On ch=10 n=44 v=127
28171 On ch=10 n=42 v=127
28174 On ch=10 n=44 v=0
28201 On ch=10 n=44 v=118
28201 On ch=10 n=36 v=127
28212 On ch=10 n=42 v=0
28229 On ch=10 n=44 v=0
28255 On ch=10 n=36 v=0
28261 On ch=10 n=46 v=127
28321 On ch=10 n=36 v=127
28342 On ch=10 n=46 v=0
28373 On ch=10 n=36 v=0
28381 On ch=10 n=44 v=127
28403 On ch=10 n=44 v=0
28411 On ch=10 n=42 v=102
28441 On ch=10 n=44 v=116
28441 On ch=10 n=36 v=127
28444 On ch=10 n=42 v=0
28471 On ch=10 n=44 v=0
28496 On ch=10 n=36 v=0
28501 On ch=10 n=46 v=127
28561 On ch=10 n=36 v=127
28587 On ch=10 n=46 v=0
28613 On ch=10 n=36 v=0
28621 On ch=10 n=44 v=127
28646 On ch=10 n=44 v=0
28651 On ch=10 n=42 v=86
28681 On ch=10 n=44 v=119
28681 On ch=10 n=36 v=127
28685 On ch=10 n=42 v=0
28710 On ch=10 n=44 v=0
28730 On ch=10 n=36 v=0
28741 On ch=10 n=46 v=127
28801 On ch=10 n=36 v=127
28819 On ch=10 n=46 v=0
28855 On ch=10 n=36 v=0
28861 On ch=10 n=44 v=120
28882 On ch=10 n=44 v=0
28891 On ch=10 n=42 v=127
28921 On ch=10 n=44 v=122
28921 On ch=10 n=36 v=127
28931 On ch=10 n=42 v=0
28948 On ch=10 n=44 v=0
28975 On ch=10 n=36 v=0
28981 On ch=10 n=46 v=127
29041 On ch=10 n=36 v=127
29070 On ch=10 n=46 v=0
29092 On ch=10 n=36 v=0
29101 On ch=10 n=44 v=127
29127 On ch=10 n=44 v=0
29131 On ch=10 n=42 v=122
29161 On ch=10 n=44 v=116
29161 On ch=10 n=36 v=127
29171 On ch=10 n=42 v=0
29189 On ch=10 n=44 v=0
29214 On ch=10 n=36 v=0
29221 On ch=10 n=46 v=127
29281 On ch=10 n=36 v=127
29298 On ch=10 n=46 v=0
29335 On ch=10 n=36 v=0
29341 On ch=10 n=44 v=125
29369 On ch=10 n=44 v=0
29371 On ch=10 n=42 v=124
29401 On ch=10 n=44 v=115
29401 On ch=10 n=36 v=127
29414 On ch=10 n=42 v=0
29428 On ch=10 n=44 v=0
29451 On ch=10 n=36 v=0
29461 On ch=10 n=46 v=127
29521 On ch=10 n=36 v=127
29538 On ch=10 n=46 v=0
29576 On ch=10 n=36 v=0
29581 On ch=10 n=44 v=121
29611 On ch=10 n=42 v=122
29615 On ch=10 n=44 v=0
29641 On ch=10 n=44 v=115
29641 On ch=10 n=36 v=127
29653 On ch=10 n=42 v=0
29671 On ch=10 n=44 v=0
29688 On ch=10 n=36 v=0
29701 On ch=10 n=46 v=127
29761 On ch=10 n=36 v=127
29788 On ch=10 n=46 v=0
29809 On ch=10 n=36 v=0
29821 On ch=10 n=44 v=123
29847 On ch=10 n=44 v=0
29851 On ch=10 n=42 v=124
29881 On ch=10 n=44 v=120
29881 On ch=10 n=36 v=127
29893 On ch=10 n=42 v=0
29913 On ch=10 n=44 v=0
29936 On ch=10 n=36 v=0
29941 On ch=10 n=46 v=127
30001 On ch=10 n=36 v=127
30022 On ch=10 n=46 v=0
30049 On ch=10 n=36 v=0
30061 On ch=10 n=44 v=126
30090 On ch=10 n=44 v=0
30091 On ch=10 n=42 v=123
30121 On ch=10 n=44 v=122
30121 On ch=10 n=36 v=127
30129 On ch=10 n=42 v=0
30154 On ch=10 n=44 v=0
30169 On ch=10 n=36 v=0
30181 On ch=10 n=46 v=127
30241 On ch=10 n=36 v=127
30268 On ch=10 n=46 v=0
30291 On ch=10 n=36 v=0
30301 On ch=10 n=44 v=127
30328 On ch=10 n=44 v=0
30331 On ch=10 n=42 v=113
30361 On ch=10 n=44 v=112
30361 On ch=10 n=36 v=127
30371 On ch=10 n=42 v=0
30387 On ch=10 n=44 v=0
30410 On ch=10 n=36 v=0
30421 On ch=10 n=46 v=127
30481 On ch=10 n=36 v=127
30510 On ch=10 n=46 v=0
30530 On ch=10 n=36 v=0
30541 On ch=10 n=44 v=124
30569 On ch=10 n=44 v=0
30571 On ch=10 n=42 v=118
30601 On ch=10 n=44 v=115
30601 On ch=10 n=36 v=127
30613 On ch=10 n=42 v=0
30628 On ch=10 n=44 v=0
30656 On ch=10 n=36 v=0
30661 On ch=10 n=46 v=127
30721 On ch=10 n=36 v=127
30753 On ch=10 n=46 v=0
30775 On ch=10 n=36 v=0
30781 On ch=10 n=44 v=113
30809 On ch=10 n=44 v=0
30811 On ch=10 n=42 v=123
30841 On ch=10 n=44 v=126
30841 On ch=10 n=36 v=127
30850 On ch=10 n=42 v=0
30875 On ch=10 n=44 v=0
30898 On ch=10 n=36 v=0
30901 On ch=10 n=46 v=127
30961 On ch=10 n=36 v=127
30981 On ch=10 n=46 v=0
31012 On ch=10 n=36 v=0
31021 On ch=10 n=44 v=118
31048 On ch=10 n=44 v=0
31051 On ch=10 n=42 v=119
31081 On ch=10 n=44 v=112
31081 On ch=10 n=36 v=127
31098 On ch=10 n=42 v=0
31107 On ch=10 n=44 v=0
31137 On ch=10 n=36 v=0
31141 On ch=10 n=46 v=127
31201 On ch=10 n=36 v=127
31229 On ch=10 n=46 v=0
31259 On ch=10 n=36 v=0
31261 On ch=10 n=44 v=113
31288 On ch=10 n=44 v=0
31291 On ch=10 n=42 v=123
31321 On ch=10 n=44 v=112
31321 On ch=10 n=36 v=127
31333 On ch=10 n=42 v=0
31345 On ch=10 n=44 v=0
31380 On ch=10 n=36 v=0
31381 On ch=10 n=46 v=127
31441 On ch=10 n=36 v=127
31453 On ch=10 n=46 v=0
31498 On ch=10 n=36 v=0
31501 On ch=10 n=44 v=113
31530 On ch=10 n=44 v=0
31531 On ch=10 n=42 v=113
31561 On ch=10 n=44 v=115
31561 On ch=10 n=36 v=127
31572 On ch=10 n=42 v=0
31584 On ch=10 n=44 v=0
31615 On ch=10 n=36 v=0
31621 On ch=10 n=46 v=127
31681 On ch=10 n=36 v=127
31703 On ch=10 n=46 v=0
31741 On ch=10 n=44 v=122
31742 On ch=10 n=36 v=0
31768 On ch=10 n=44 v=0
31771 On ch=10 n=42 v=118
31801 On ch=10 n=44 v=118
31801 On ch=10 n=36 v=127
31812 On ch=10 n=42 v=0
31829 On ch=10 n=44 v=0
31859 On ch=10 n=36 v=0
31861 On ch=10 n=46 v=127
31921 On ch=10 n=36 v=127
31933 On ch=10 n=46 v=0
31974 On ch=10 n=36 v=0
31981 On ch=10 n=44 v=114
32011 On ch=10 n=42 v=116
32013 On ch=10 n=44 v=0
32041 On ch=10 n=44 v=106
32041 On ch=10 n=36 v=127
32049 On ch=10 n=42 v=0
32061 On ch=10 n=44 v=0
32097 On ch=10 n=36 v=0
32101 On ch=10 n=46 v=115
32161 On ch=10 n=36 v=127
32177 On ch=10 n=46 v=0
32221 On ch=10 n=44 v=121
32222 On ch=10 n=36 v=0
32251 On ch=10 n=44 v=0
32251 On ch=10 n=42 v=127
32281 On ch=10 n=44 v=117
32281 On ch=10 n=36 v=127
32295 On ch=10 n=42 v=0
32307 On ch=10 n=44 v=0
32341 On ch=10 n=36 v=0
32341 On ch=10 n=46 v=127
32401 On ch=10 n=36 v=127
32420 On ch=10 n=46 v=0
32457 On ch=10 n=36 v=0
32461 On ch=10 n=44 v=125
32490 On ch=10 n=44 v=0
32491 On ch=10 n=42 v=127
32521 On ch=10 n=44 v=112
32521 On ch=10 n=36 v=127
32532 On ch=10 n=42 v=0
32549 On ch=10 n=44 v=0
32576 On ch=10 n=36 v=0
32581 On ch=10 n=46 v=127
32641 On ch=10 n=36 v=127
32648 On ch=10 n=46 v=0
32699 On ch=10 n=36 v=0
32701 On ch=10 n=44 v=127
32731 On ch=10 n=42 v=122
32732 On ch=10 n=44 v=0
32761 On ch=10 n=44 v=106
32761 On ch=10 n=36 v=127
32769 On ch=10 n=42 v=0
32790 On ch=10 n=44 v=0
32821 On ch=10 n=46 v=127
32822 On ch=10 n=36 v=0
32881 On ch=10 n=36 v=127
32906 On ch=10 n=46 v=0
32938 On ch=10 n=36 v=0
32941 On ch=10 n=44 v=127
32968 On ch=10 n=44 v=0
32971 On ch=10 n=42 v=110
33001 On ch=10 n=44 v=107
33001 On ch=10 n=36 v=127
33010 On ch=10 n=42 v=0
33021 On ch=10 n=44 v=0
33056 On ch=10 n=36 v=0
33061 On ch=10 n=46 v=127
33121 On ch=10 n=36 v=127
33146 On ch=10 n=46 v=0
33179 On ch=10 n=36 v=0
33181 On ch=10 n=44 v=121
33208 On ch=10 n=44 v=0
33211 On ch=10 n=42 v=112
33241 On ch=10 n=44 v=113
33241 On ch=10 n=36 v=127
33252 On ch=10 n=42 v=0
33271 On ch=10 n=44 v=0
33300 On ch=10 n=36 v=0
33301 On ch=10 n=46 v=127
33361 On ch=10 n=36 v=127
33390 On ch=10 n=46 v=0
33418 On ch=10 n=36 v=0
33421 On ch=10 n=44 v=110
33450 On ch=10 n=44 v=0
33451 On ch=10 n=42 v=118
33481 On ch=10 n=44 v=113
33481 On ch=10 n=36 v=127
33494 On ch=10 n=42 v=0
33505 On ch=10 n=44 v=0
33538 On ch=10 n=36 v=0
33541 On ch=10 n=46 v=127
33601 On ch=10 n=36 v=127
33621 On ch=10 n=46 v=0
33661 On ch=10 n=36 v=0
33661 On ch=10 n=44 v=126
33690 On ch=10 n=44 v=0
33691 On ch=10 n=42 v=125
33721 On ch=10 n=44 v=113
33721 On ch=10 n=36 v=127
33728 On ch=10 n=42 v=0
33746 On ch=10 n=44 v=0
33779 On ch=10 n=36 v=0
33781 On ch=10 n=46 v=127
33841 On ch=10 n=36 v=127
33856 On ch=10 n=46 v=0
33896 On ch=10 n=36 v=0
33901 On ch=10 n=44 v=118
33927 On ch=10 n=44 v=0
33931 On ch=10 n=42 v=122
33961 On ch=10 n=44 v=113
33961 On ch=10 n=36 v=127
33971 On ch=10 n=42 v=0
33987 On ch=10 n=44 v=0
34020 On ch=10 n=36 v=0
34021 On ch=10 n=46 v=127
34081 On ch=10 n=36 v=127
34097 On ch=10 n=46 v=0
34141 On ch=10 n=44 v=118
34144 On ch=10 n=36 v=0
34171 On ch=10 n=44 v=0
34171 On ch=10 n=42 v=115
34201 On ch=10 n=44 v=109
34201 On ch=10 n=36 v=127
34204 On ch=10 n=42 v=0
34228 On ch=10 n=44 v=0
34258 On ch=10 n=36 v=0
34261 On ch=10 n=46 v=126
34321 On ch=10 n=36 v=127
34335 On ch=10 n=46 v=0
34381 On ch=10 n=36 v=0
34381 On ch=10 n=44 v=117
34411 On ch=10 n=44 v=0
34411 On ch=10 n=42 v=122
34441 On ch=10 n=44 v=111
34441 On ch=10 n=36 v=127
34453 On ch=10 n=42 v=0
34466 On ch=10 n=44 v=0
34497 On ch=10 n=36 v=0
34501 On ch=10 n=46 v=122
34561 On ch=10 n=36 v=127
34578 On ch=10 n=46 v=0
34621 On ch=10 n=44 v=119
34624 On ch=10 n=36 v=0
34651 On ch=10 n=42 v=121
34653 On ch=10 n=44 v=0
34681 On ch=10 n=44 v=110
34681 On ch=10 n=36 v=127
34690 On ch=10 n=42 v=0
34705 On ch=10 n=44 v=0
34736 On ch=10 n=36 v=0
34741 On ch=10 n=46 v=127
34801 On ch=10 n=36 v=127
34809 On ch=10 n=46 v=0
34860 On ch=10 n=36 v=0
34861 On ch=10 n=44 v=126
34891 On ch=10 n=44 v=0
34891 On ch=10 n=42 v=116
34921 On ch=10 n=44 v=104
34921 On ch=10 n=36 v=127
34928 On ch=10 n=42 v=0
34942 On ch=10 n=44 v=0
34981 On ch=10 n=46 v=127
34984 On ch=10 n=36 v=0
35041 On ch=10 n=36 v=127
35065 On ch=10 n=46 v=0
35096 On ch=10 n=36 v=0
35101 On ch=10 n=44 v=127
35123 On ch=10 n=44 v=0
35131 On ch=10 n=42 v=118
35161 On ch=10 n=44 v=110
35161 On ch=10 n=36 v=127
35167 On ch=10 n=42 v=0
35194 On ch=10 n=44 v=0
35221 On ch=10 n=36 v=0
35221 On ch=10 n=46 v=127
35281 On ch=10 n=36 v=127
35303 On ch=10 n=46 v=0
35339 On ch=10 n=36 v=0
35341 On ch=10 n=44 v=118
35368 On ch=10 n=44 v=0
35371 On ch=10 n=42 v=122
35401 On ch=10 n=44 v=121
35401 On ch=10 n=36 v=127
35414 On ch=10 n=42 v=0
35430 On ch=10 n=44 v=0
35460 On ch=10 n=36 v=0
35461 On ch=10 n=46 v=127
35521 On ch=10 n=36 v=127
35521 On ch=10 n=40 v=127
35532 On ch=10 n=46 v=0
35533 On ch=10 n=40 v=0
35551 On ch=10 n=40 v=127
35563 On ch=10 n=40 v=0
35577 On ch=10 n=36 v=0
35581 On ch=10 n=44 v=127
35581 On ch=10 n=40 v=124
35581 On ch=10 n=40 v=127
35593 On ch=10 n=40 v=0
35595 On ch=10 n=40 v=0
35609 On ch=10 n=44 v=0
35611 On ch=10 n=42 v=118
35611 On ch=10 n=40 v=127
35629 On ch=10 n=40 v=0
35641 On ch=10 n=44 v=114
35641 On ch=10 n=36 v=127
35642 On ch=10 n=40 v=100
35651 On ch=10 n=42 v=0
35657 On ch=10 n=40 v=0
35669 On ch=10 n=44 v=0
35697 On ch=10 n=36 v=0
35701 On ch=10 n=46 v=127
35701 On ch=10 n=40 v=127
35701 On ch=10 n=40 v=127
35713 On ch=10 n=40 v=0
35714 On ch=10 n=40 v=0
35731 On ch=10 n=40 v=127
35746 On ch=10 n=40 v=0
35761 On ch=10 n=36 v=127
35761 On ch=10 n=40 v=126
35765 On ch=10 n=46 v=0
35777 On ch=10 n=40 v=0
35791 On ch=10 n=40 v=127
35807 On ch=10 n=40 v=0
35821 On ch=10 n=36 v=0
35821 On ch=10 n=44 v=127
35822 On ch=10 n=40 v=127
35836 On ch=10 n=40 v=0
35848 On ch=10 n=44 v=0
35851 On ch=10 n=42 v=112
35881 On ch=10 n=44 v=122
35881 On ch=10 n=36 v=127
35881 On ch=10 n=40 v=127
35894 On ch=10 n=42 v=0
35896 On ch=10 n=40 v=0
35911 On ch=10 n=40 v=126
35921 On ch=10 n=44 v=0
35927 On ch=10 n=40 v=0
35941 On ch=10 n=36 v=0
35941 On ch=10 n=40 v=127
35955 On ch=10 n=40 v=0
35971 On ch=10 n=40 v=127
35992 On ch=10 n=40 v=0
36000 On ch=10 n=40 v=127
36001 On ch=10 n=44 v=126
36001 On ch=10 n=36 v=127
36001 On ch=10 n=49 v=127
36014 On ch=10 n=40 v=0
36034 On ch=10 n=44 v=0
36049 On ch=10 n=49 v=0
36054 On ch=10 n=36 v=0
36062 On ch=10 n=46 v=127
36088 On ch=10 n=46 v=0
36121 On ch=10 n=36 v=127
36121 On ch=10 n=38 v=127
36121 On ch=10 n=38 v=127
36122 On ch=10 n=44 v=127
36152 On ch=10 n=44 v=0
36181 On ch=10 n=36 v=0
36181 On ch=10 n=38 v=0
36182 On ch=10 n=46 v=127
36190 On ch=10 n=38 v=0
36207 On ch=10 n=46 v=0
36241 On ch=10 n=36 v=127
36242 On ch=10 n=44 v=126
36271 On ch=10 n=44 v=0
36301 On ch=10 n=36 v=0
36302 On ch=10 n=46 v=127
36332 On ch=10 n=46 v=0
36361 On ch=10 n=36 v=127
36361 On ch=10 n=38 v=127
36361 On ch=10 n=38 v=127
36362 On ch=10 n=44 v=123
36396 On ch=10 n=44 v=0
36402 On ch=10 n=38 v=0
36415 On ch=10 n=38 v=0
36421 On ch=10 n=36 v=0
36422 On ch=10 n=46 v=127
36453 On ch=10 n=46 v=0
36481 On ch=10 n=36 v=127
36482 On ch=10 n=44 v=127
36511 On ch=10 n=44 v=0
36541 On ch=10 n=36 v=0
36542 On ch=10 n=46 v=127
36571 On ch=10 n=46 v=0
36601 On ch=10 n=36 v=127
36601 On ch=10 n=38 v=127
36601 On ch=10 n=38 v=127
36602 On ch=10 n=44 v=126
36637 On ch=10 n=44 v=0
36645 On ch=10 n=38 v=0
36655 On ch=10 n=38 v=0
36661 On ch=10 n=36 v=0
36662 On ch=10 n=46 v=127
36689 On ch=10 n=46 v=0
36721 On ch=10 n=36 v=127
36722 On ch=10 n=44 v=126
36752 On ch=10 n=44 v=0
36781 On ch=10 n=36 v=0
36782 On ch=10 n=46 v=127
36817 On ch=10 n=46 v=0
36841 On ch=10 n=36 v=127
36841 On ch=10 n=38 v=127
36841 On ch=10 n=38 v=127
36842 On ch=10 n=44 v=127
36875 On ch=10 n=44 v=0
36890 On ch=10 n=38 v=0
36901 On ch=10 n=36 v=0
36902 On ch=10 n=46 v=127
36903 On ch=10 n=38 v=0
36934 On ch=10 n=46 v=0
36961 On ch=10 n=36 v=127
36962 On ch=10 n=44 v=127
36997 On ch=10 n=44 v=0
37021 On ch=10 n=36 v=0
37022 On ch=10 n=46 v=124
37057 On ch=10 n=46 v=0
37081 On ch=10 n=36 v=127
37081 On ch=10 n=38 v=127
37081 On ch=10 n=38 v=127
37082 On ch=10 n=44 v=126
37116 On ch=10 n=44 v=0
37126 On ch=10 n=38 v=0
37131 On ch=10 n=38 v=0
37141 On ch=10 n=36 v=0
37142 On ch=10 n=46 v=122
37172 On ch=10 n=46 v=0
37201 On ch=10 n=36 v=127
37202 On ch=10 n=44 v=127
37229 On ch=10 n=44 v=0
37261 On ch=10 n=36 v=0
37262 On ch=10 n=46 v=127
37295 On ch=10 n=46 v=0
37321 On ch=10 n=36 v=127
37321 On ch=10 n=38 v=127
37321 On ch=10 n=38 v=127
37322 On ch=10 n=44 v=127
37352 On ch=10 n=44 v=0
37370 On ch=10 n=38 v=0
37379 On ch=10 n=38 v=0
37381 On ch=10 n=36 v=0
37382 On ch=10 n=46 v=127
37411 On ch=10 n=46 v=0
37441 On ch=10 n=36 v=127
37442 On ch=10 n=44 v=127
37474 On ch=10 n=44 v=0
37501 On ch=10 n=36 v=0
37502 On ch=10 n=46 v=127
37536 On ch=10 n=46 v=0
37561 On ch=10 n=36 v=127
37561 On ch=10 n=38 v=127
37561 On ch=10 n=38 v=127
37562 On ch=10 n=44 v=127
37595 On ch=10 n=44 v=0
37605 On ch=10 n=38 v=0
37621 On ch=10 n=36 v=0
37622 On ch=10 n=46 v=127
37623 On ch=10 n=38 v=0
37651 On ch=10 n=46 v=0
37681 On ch=10 n=36 v=127
37682 On ch=10 n=44 v=127
37712 On ch=10 n=44 v=0
37741 On ch=10 n=36 v=0
37742 On ch=10 n=46 v=127
37774 On ch=10 n=46 v=0
37801 On ch=10 n=36 v=127
37801 On ch=10 n=38 v=127
37801 On ch=10 n=38 v=127
37802 On ch=10 n=44 v=127
37834 On ch=10 n=44 v=0
37841 On ch=10 n=38 v=0
37855 On ch=10 n=38 v=0
37861 On ch=10 n=36 v=0
37862 On ch=10 n=46 v=127
37892 On ch=10 n=46 v=0
37921 On ch=10 n=36 v=127
37922 On ch=10 n=44 v=126
37954 On ch=10 n=44 v=0
37981 On ch=10 n=36 v=0
37982 On ch=10 n=46 v=127
38016 On ch=10 n=46 v=0
38041 On ch=10 n=36 v=127
38041 On ch=10 n=38 v=127
38041 On ch=10 n=38 v=127
38042 On ch=10 n=44 v=123
38074 On ch=10 n=44 v=0
38089 On ch=10 n=38 v=0
38099 On ch=10 n=38 v=0
38101 On ch=10 n=36 v=0
38102 On ch=10 n=46 v=127
38134 On ch=10 n=46 v=0
38161 On ch=10 n=36 v=127
38162 On ch=10 n=44 v=124
38196 On ch=10 n=44 v=0
38221 On ch=10 n=36 v=0
38222 On ch=10 n=46 v=127
38252 On ch=10 n=46 v=0
38281 On ch=10 n=36 v=127
38281 On ch=10 n=38 v=127
38281 On ch=10 n=38 v=127
38282 On ch=10 n=44 v=126
38316 On ch=10 n=44 v=0
38327 On ch=10 n=38 v=0
38335 On ch=10 n=38 v=0
38341 On ch=10 n=36 v=0
38342 On ch=10 n=46 v=127
38376 On ch=10 n=46 v=0
38401 On ch=10 n=36 v=127
38402 On ch=10 n=44 v=127
38437 On ch=10 n=44 v=0
38461 On ch=10 n=36 v=0
38462 On ch=10 n=46 v=127
38494 On ch=10 n=46 v=0
38521 On ch=10 n=36 v=127
38521 On ch=10 n=38 v=127
38521 On ch=10 n=38 v=127
38522 On ch=10 n=44 v=127
38553 On ch=10 n=44 v=0
38566 On ch=10 n=38 v=0
38574 On ch=10 n=38 v=0
38581 On ch=10 n=36 v=0
38582 On ch=10 n=46 v=127
38613 On ch=10 n=46 v=0
38641 On ch=10 n=36 v=127
38642 On ch=10 n=44 v=124
38675 On ch=10 n=44 v=0
38701 On ch=10 n=36 v=0
38702 On ch=10 n=46 v=127
38736 On ch=10 n=46 v=0
38761 On ch=10 n=36 v=127
38761 On ch=10 n=38 v=127
38761 On ch=10 n=38 v=127
38762 On ch=10 n=44 v=124
38799 On ch=10 n=44 v=0
38803 On ch=10 n=38 v=0
38811 On ch=10 n=38 v=0
38821 On ch=10 n=36 v=0
38822 On ch=10 n=46 v=125
38852 On ch=10 n=46 v=0
38881 On ch=10 n=36 v=127
38882 On ch=10 n=44 v=127
38913 On ch=10 n=44 v=0
38941 On ch=10 n=36 v=0
38942 On ch=10 n=46 v=127
38973 On ch=10 n=46 v=0
39001 On ch=10 n=36 v=127
39001 On ch=10 n=38 v=127
39001 On ch=10 n=38 v=127
39002 On ch=10 n=44 v=125
39038 On ch=10 n=44 v=0
39041 On ch=10 n=38 v=0
39052 On ch=10 n=38 v=0
39061 On ch=10 n=36 v=0
39062 On ch=10 n=46 v=127
39090 On ch=10 n=46 v=0
39121 On ch=10 n=36 v=127
39122 On ch=10 n=44 v=126
39156 On ch=10 n=44 v=0
39181 On ch=10 n=36 v=0
39182 On ch=10 n=46 v=115
39215 On ch=10 n=46 v=0
39241 On ch=10 n=36 v=127
39241 On ch=10 n=38 v=127
39241 On ch=10 n=38 v=127
39242 On ch=10 n=44 v=127
39274 On ch=10 n=44 v=0
39282 On ch=10 n=38 v=0
39287 On ch=10 n=38 v=0
39301 On ch=10 n=36 v=0
39302 On ch=10 n=46 v=127
39332 On ch=10 n=46 v=0
39361 On ch=10 n=36 v=127
39362 On ch=10 n=44 v=121
39395 On ch=10 n=44 v=0
39421 On ch=10 n=36 v=0
39422 On ch=10 n=46 v=126
39459 On ch=10 n=46 v=0
39481 On ch=10 n=36 v=127
39481 On ch=10 n=38 v=127
39481 On ch=10 n=38 v=127
39482 On ch=10 n=44 v=118
39517 On ch=10 n=44 v=0
39525 On ch=10 n=38 v=0
39525 On ch=10 n=38 v=0
39541 On ch=10 n=36 v=0
39542 On ch=10 n=46 v=127
39573 On ch=10 n=46 v=0
39601 On ch=10 n=36 v=127
39602 On ch=10 n=44 v=127
39635 On ch=10 n=44 v=0
39661 On ch=10 n=36 v=0
39662 On ch=10 n=46 v=125
39697 On ch=10 n=46 v=0
39721 On ch=10 n=36 v=127
39721 On ch=10 n=38 v=127
39721 On ch=10 n=38 v=127
39722 On ch=10 n=44 v=127
39745 On ch=10 n=38 v=0
39746 On ch=10 n=38 v=0
39757 On ch=10 n=44 v=0
39781 On ch=10 n=36 v=0
39781 On ch=10 n=38 v=127
39781 On ch=10 n=38 v=127
39782 On ch=10 n=46 v=119
39799 On ch=10 n=38 v=0
39800 On ch=10 n=38 v=0
39815 On ch=10 n=38 v=127
39823 On ch=10 n=46 v=0
39829 On ch=10 n=38 v=0
39841 On ch=10 n=36 v=127
39841 On ch=10 n=49 v=127
39842 On ch=10 n=44 v=127
39874 On ch=10 n=44 v=0
39889 On ch=10 n=49 v=0
39901 On ch=10 n=36 v=0
39902 On ch=10 n=46 v=127
39937 On ch=10 n=46 v=0
39961 On ch=10 n=36 v=127
39961 On ch=10 n=38 v=127
39961 On ch=10 n=38 v=127
39962 On ch=10 n=44 v=127
39982 On ch=10 n=38 v=0
39996 On ch=10 n=44 v=0
40000 On ch=10 n=38 v=0
40021 On ch=10 n=36 v=0
40022 On ch=10 n=46 v=127
40056 On ch=10 n=46 v=0
40081 On ch=10 n=36 v=127
40082 On ch=10 n=44 v=127
40111 On ch=10 n=44 v=0
40141 On ch=10 n=36 v=0
40142 On ch=10 n=46 v=127
40177 On ch=10 n=46 v=0
40201 On ch=10 n=36 v=127
40201 On ch=10 n=38 v=127
40201 On ch=10 n=38 v=127
40202 On ch=10 n=44 v=124
40237 On ch=10 n=44 v=0
40239 On ch=10 n=38 v=0
40252 On ch=10 n=38 v=0
40261 On ch=10 n=36 v=0
40262 On ch=10 n=46 v=127
40298 On ch=10 n=46 v=0
40321 On ch=10 n=36 v=127
40322 On ch=10 n=44 v=126
40355 On ch=10 n=44 v=0
40381 On ch=10 n=36 v=0
40382 On ch=10 n=46 v=120
40419 On ch=10 n=46 v=0
40441 On ch=10 n=36 v=127
40441 On ch=10 n=38 v=127
40441 On ch=10 n=38 v=127
40442 On ch=10 n=44 v=122
40476 On ch=10 n=44 v=0
40480 On ch=10 n=38 v=0
40485 On ch=10 n=38 v=0
40501 On ch=10 n=36 v=0
40502 On ch=10 n=46 v=127
40540 On ch=10 n=46 v=0
40561 On ch=10 n=36 v=127
40562 On ch=10 n=44 v=121
40602 On ch=10 n=44 v=0
40621 On ch=10 n=36 v=0
40622 On ch=10 n=46 v=127
40659 On ch=10 n=46 v=0
40681 On ch=10 n=36 v=127
40681 On ch=10 n=38 v=127
40681 On ch=10 n=38 v=127
40682 On ch=10 n=44 v=127
40715 On ch=10 n=44 v=0
40719 On ch=10 n=38 v=0
40730 On ch=10 n=38 v=0
40741 On ch=10 n=36 v=0
40742 On ch=10 n=46 v=127
40776 On ch=10 n=46 v=0
40801 On ch=10 n=36 v=127
40802 On ch=10 n=44 v=117
40835 On ch=10 n=44 v=0
40861 On ch=10 n=36 v=0
40862 On ch=10 n=46 v=127
40900 On ch=10 n=46 v=0
40921 On ch=10 n=36 v=127
40921 On ch=10 n=38 v=127
40921 On ch=10 n=38 v=127
40922 On ch=10 n=44 v=127
40958 On ch=10 n=44 v=0
40962 On ch=10 n=38 v=0
40966 On ch=10 n=38 v=0
40981 On ch=10 n=36 v=0
40982 On ch=10 n=46 v=122
41021 On ch=10 n=46 v=0
41041 On ch=10 n=36 v=127
41042 On ch=10 n=44 v=127
41076 On ch=10 n=44 v=0
41101 On ch=10 n=36 v=0
41102 On ch=10 n=46 v=127
41141 On ch=10 n=46 v=0
41161 On ch=10 n=36 v=127
41161 On ch=10 n=38 v=127
41161 On ch=10 n=38 v=127
41162 On ch=10 n=44 v=122
41198 On ch=10 n=44 v=0
41204 On ch=10 n=38 v=0
41206 On ch=10 n=38 v=0
41221 On ch=10 n=36 v=0
41222 On ch=10 n=46 v=126
41263 On ch=10 n=46 v=0
41281 On ch=10 n=36 v=127
41282 On ch=10 n=44 v=127
41314 On ch=10 n=44 v=0
41341 On ch=10 n=36 v=0
41342 On ch=10 n=46 v=127
41378 On ch=10 n=46 v=0
41401 On ch=10 n=36 v=127
41401 On ch=10 n=38 v=127
41401 On ch=10 n=38 v=127
41402 On ch=10 n=44 v=123
41440 On ch=10 n=44 v=0
41443 On ch=10 n=38 v=0
41454 On ch=10 n=38 v=0
41461 On ch=10 n=36 v=0
41462 On ch=10 n=46 v=127
41505 On ch=10 n=46 v=0
41521 On ch=10 n=36 v=127
41522 On ch=10 n=44 v=127
41562 On ch=10 n=44 v=0
41581 On ch=10 n=36 v=0
41582 On ch=10 n=46 v=127
41623 On ch=10 n=46 v=0
41641 On ch=10 n=36 v=127
41641 On ch=10 n=38 v=127
41641 On ch=10 n=38 v=127
41642 On ch=10 n=44 v=127
41680 On ch=10 n=44 v=0
41682 On ch=10 n=38 v=0
41690 On ch=10 n=38 v=0
41701 On ch=10 n=36 v=0
41702 On ch=10 n=46 v=127
41747 On ch=10 n=46 v=0
41761 On ch=10 n=36 v=127
41762 On ch=10 n=44 v=127
41795 On ch=10 n=44 v=0
41821 On ch=10 n=36 v=0
41822 On ch=10 n=46 v=127
41871 On ch=10 n=46 v=0
41881 On ch=10 n=36 v=127
41881 On ch=10 n=38 v=127
41881 On ch=10 n=38 v=127
41882 On ch=10 n=44 v=127
41926 On ch=10 n=44 v=0
41926 On ch=10 n=38 v=0
41933 On ch=10 n=38 v=0
41941 On ch=10 n=36 v=0
41942 On ch=10 n=46 v=120
41977 On ch=10 n=46 v=0
42001 On ch=10 n=36 v=127
42002 On ch=10 n=44 v=124
42042 On ch=10 n=44 v=0
42061 On ch=10 n=36 v=0
42062 On ch=10 n=46 v=127
42100 On ch=10 n=46 v=0
42121 On ch=10 n=36 v=127
42121 On ch=10 n=38 v=127
42121 On ch=10 n=38 v=127
42122 On ch=10 n=44 v=125
42158 On ch=10 n=38 v=0
42162 On ch=10 n=44 v=0
42171 On ch=10 n=38 v=0
42181 On ch=10 n=36 v=0
42182 On ch=10 n=46 v=121
42224 On ch=10 n=46 v=0
42241 On ch=10 n=36 v=127
42242 On ch=10 n=44 v=127
42279 On ch=10 n=44 v=0
42301 On ch=10 n=36 v=0
42302 On ch=10 n=46 v=118
42349 On ch=10 n=46 v=0
42361 On ch=10 n=36 v=127
42361 On ch=10 n=38 v=127
42361 On ch=10 n=38 v=127
42362 On ch=10 n=44 v=124
42401 On ch=10 n=38 v=0
42403 On ch=10 n=44 v=0
42418 On ch=10 n=38 v=0
42421 On ch=10 n=36 v=0
42422 On ch=10 n=46 v=127
42464 On ch=10 n=46 v=0
42481 On ch=10 n=36 v=127
42482 On ch=10 n=44 v=127
42528 On ch=10 n=44 v=0
42541 On ch=10 n=36 v=0
42542 On ch=10 n=46 v=117
42590 On ch=10 n=46 v=0
42601 On ch=10 n=36 v=127
42601 On ch=10 n=38 v=127
42601 On ch=10 n=38 v=127
42602 On ch=10 n=44 v=124
42635 On ch=10 n=38 v=0
42644 On ch=10 n=38 v=0
42648 On ch=10 n=44 v=0
42661 On ch=10 n=36 v=0
42662 On ch=10 n=46 v=120
42711 On ch=10 n=46 v=0
42721 On ch=10 n=36 v=127
42722 On ch=10 n=44 v=127
42772 On ch=10 n=44 v=0
42781 On ch=10 n=36 v=0
42782 On ch=10 n=46 v=117
42835 On ch=10 n=46 v=0
42841 On ch=10 n=36 v=127
42841 On ch=10 n=38 v=127
42841 On ch=10 n=38 v=127
42842 On ch=10 n=44 v=126
42872 On ch=10 n=38 v=0
42888 On ch=10 n=38 v=0
42894 On ch=10 n=44 v=0
42901 On ch=10 n=36 v=0
42902 On ch=10 n=46 v=122
42944 On ch=10 n=46 v=0
42961 On ch=10 n=36 v=127
42962 On ch=10 n=44 v=127
43021 On ch=10 n=36 v=0
43022 On ch=10 n=44 v=0
43022 On ch=10 n=46 v=118
43071 On ch=10 n=46 v=0
43081 On ch=10 n=36 v=127
43081 On ch=10 n=38 v=127
43081 On ch=10 n=38 v=127
43082 On ch=10 n=44 v=127
43110 On ch=10 n=38 v=0
43126 On ch=10 n=38 v=0
43141 On ch=10 n=36 v=0
43142 On ch=10 n=46 v=118
43144 On ch=10 n=44 v=0
43195 On ch=10 n=46 v=0
43201 On ch=10 n=36 v=127
43202 On ch=10 n=44 v=127
43261 On ch=10 n=36 v=0
43262 On ch=10 n=46 v=126
43263 On ch=10 n=44 v=0
43321 On ch=10 n=46 v=0
43321 On ch=10 n=36 v=127
43321 On ch=10 n=38 v=127
43321 On ch=10 n=38 v=127
43322 On ch=10 n=44 v=126
43350 On ch=10 n=38 v=0
43366 On ch=10 n=38 v=0
43379 On ch=10 n=44 v=0
43381 On ch=10 n=36 v=0
43382 On ch=10 n=46 v=118
43440 On ch=10 n=46 v=0
43441 On ch=10 n=36 v=127
43442 On ch=10 n=44 v=125
43496 On ch=10 n=44 v=0
43501 On ch=10 n=36 v=0
43501 On ch=10 n=38 v=127
43502 On ch=10 n=46 v=115
43526 On ch=10 n=38 v=0
43557 On ch=10 n=46 v=0
43561 On ch=10 n=36 v=127
43561 On ch=10 n=38 v=110
43561 On ch=10 n=38 v=127
43562 On ch=10 n=44 v=127
43586 On ch=10 n=38 v=0
43597 On ch=10 n=38 v=0
43615 On ch=10 n=44 v=0
43621 On ch=10 n=36 v=0
43621 On ch=10 n=38 v=127
43622 On ch=10 n=46 v=121
43645 On ch=10 n=38 v=0
43651 On ch=10 n=38 v=100
43666 On ch=10 n=38 v=0
43680 On ch=10 n=46 v=0
43681 On ch=10 n=38 v=127
43682 On ch=10 n=36 v=100
43682 On ch=10 n=44 v=127
43697 On ch=10 n=36 v=0
43711 On ch=10 n=38 v=0
43730 On ch=10 n=44 v=0
43864 On ch=10 n=36 v=127
43919 On ch=10 n=36 v=0
44044 On ch=10 n=36 v=127
44117 On ch=10 n=36 v=0
44217 On ch=10 n=36 v=127
44285 On ch=10 n=36 v=0
44401 On ch=10 n=36 v=127
44446 On ch=10 n=36 v=0
44524 On ch=10 n=36 v=127
44641 On ch=10 n=40 v=127
44653 On ch=10 n=40 v=0
44671 On ch=10 n=40 v=127
44683 On ch=10 n=40 v=0
44701 On ch=10 n=40 v=124
44701 On ch=10 n=40 v=127
44713 On ch=10 n=40 v=0
44715 On ch=10 n=40 v=0
44718 On ch=10 n=36 v=0
44731 On ch=10 n=40 v=127
44749 On ch=10 n=40 v=0
44762 On ch=10 n=40 v=100
44777 On ch=10 n=40 v=0
44821 On ch=10 n=40 v=127
44821 On ch=10 n=40 v=127
44833 On ch=10 n=40 v=0
44834 On ch=10 n=40 v=0
44851 On ch=10 n=40 v=127
44866 On ch=10 n=40 v=0
44881 On ch=10 n=40 v=126
44897 On ch=10 n=40 v=0
44911 On ch=10 n=40 v=127
44927 On ch=10 n=40 v=0
44942 On ch=10 n=40 v=127
44956 On ch=10 n=40 v=0
45001 On ch=10 n=40 v=127
45002 On ch=10 n=36 v=127
45016 On ch=10 n=40 v=0
45031 On ch=10 n=40 v=126
45047 On ch=10 n=40 v=0
45052 On ch=10 n=36 v=0
45061 On ch=10 n=40 v=127
45075 On ch=10 n=40 v=0
45091 On ch=10 n=40 v=127
45112 On ch=10 n=40 v=0
45120 On ch=10 n=40 v=127
45121 On ch=10 n=36 v=127
45121 On ch=10 n=49 v=100
45134 On ch=10 n=40 v=0
45136 On ch=10 n=49 v=0
45186 On ch=10 n=36 v=0
45186 Meta TrkEnd
TrkEnd
MTrk
0 Meta 0x21 00
0 Meta TrkName "Daitarn"
137 PrCh ch=4 p=81
138 Par ch=4 c=7 v=60
537 On ch=4 n=64 v=127
537 Meta Lyric "Dai"
538 On ch=4 n=68 v=127
566 On ch=4 n=64 v=0
569 On ch=4 n=68 v=0
595 On ch=4 n=64 v=127
595 Meta Lyric "tarn, "
596 On ch=4 n=68 v=127
646 On ch=4 n=64 v=0
647 On ch=4 n=68 v=0
716 On ch=4 n=63 v=127
716 On ch=4 n=66 v=127
716 Meta Lyric "Dai"
749 On ch=4 n=63 v=0
750 On ch=4 n=66 v=0
774 On ch=4 n=63 v=127
774 Meta Lyric "tarn, "
775 On ch=4 n=66 v=127
817 On ch=4 n=66 v=0
820 On ch=4 n=63 v=0
891 On ch=4 n=61 v=127
891 Meta Lyric "Dait"
892 On ch=4 n=64 v=127
926 On ch=4 n=61 v=0
928 On ch=4 n=64 v=0
948 On ch=4 n=61 v=127
948 Meta Lyric "arn "
948 Meta Lyric "\r"
949 On ch=4 n=64 v=127
999 On ch=4 n=64 v=0
1000 On ch=4 n=61 v=0
1973 On ch=4 n=64 v=127
1973 Meta Lyric "Dai"
1975 On ch=4 n=68 v=127
2008 On ch=4 n=64 v=0
2009 On ch=4 n=68 v=0
2039 On ch=4 n=64 v=127
2039 Meta Lyric "tarn, "
2040 On ch=4 n=68 v=127
2090 On ch=4 n=68 v=0
2095 On ch=4 n=64 v=0
2164 On ch=4 n=66 v=127
2164 Meta Lyric "Dai"
2165 On ch=4 n=63 v=127
2197 On ch=4 n=63 v=0
2197 On ch=4 n=66 v=0
2225 On ch=4 n=63 v=127
2225 Meta Lyric "tarn, "
2226 On ch=4 n=66 v=127
2266 On ch=4 n=66 v=0
2269 On ch=4 n=63 v=0
2345 On ch=4 n=61 v=127
2345 Meta Lyric "Dai"
2346 On ch=4 n=64 v=127
2376 On ch=4 n=61 v=0
2378 On ch=4 n=64 v=0
2404 On ch=4 n=61 v=127
2404 Meta Lyric "tarn "
2404 Meta Lyric "\r"
2406 On ch=4 n=64 v=127
2451 On ch=4 n=61 v=0
2455 On ch=4 n=64 v=0
3475 On ch=4 n=64 v=127
3475 Meta Lyric "Uno "
3576 On ch=4 n=64 v=0
3591 On ch=4 n=63 v=127
3591 Meta Lyric "pe"
3630 On ch=4 n=63 v=0
3648 On ch=4 n=64 v=127
3648 Meta Lyric "r "
3761 On ch=4 n=64 v=0
3768 On ch=4 n=61 v=127
3768 Meta Lyric "tre, "
3917 On ch=4 n=61 v=0
3952 On ch=4 n=64 v=127
3952 Meta Lyric "e "
4071 On ch=4 n=63 v=127
4071 Meta Lyric "tre "
4076 On ch=4 n=64 v=0
4192 On ch=4 n=63 v=0
4195 On ch=4 n=59 v=127
4195 Meta Lyric "pe"
4311 On ch=4 n=61 v=127
4311 Meta Lyric "r "
4313 On ch=4 n=59 v=0
4373 On ch=4 n=66 v=127
4373 Meta Lyric "uno "
4405 On ch=4 n=66 v=0
4406 On ch=4 n=61 v=0
4433 On ch=4 n=66 v=127
4433 Meta Lyric "per"
4435 On ch=4 n=61 v=127
4468 On ch=4 n=61 v=0
4469 On ch=4 n=66 v=0
4492 On ch=4 n=66 v=127
4492 Meta Lyric "che', "
4492 Meta Lyric "\r"
4493 On ch=4 n=61 v=127
4560 On ch=4 n=66 v=0
4566 On ch=4 n=61 v=0
5392 On ch=4 n=64 v=127
5392 Meta Lyric "in"
5495 On ch=4 n=64 v=0
5515 On ch=4 n=63 v=127
5515 Meta Lyric "sie"
5555 On ch=4 n=63 v=0
5574 On ch=4 n=64 v=127
5574 Meta Lyric "me "
5674 On ch=4 n=64 v=0
5690 On ch=4 n=61 v=127
5690 Meta Lyric "noi "
5690 Meta Lyric "\r"
5873 On ch=4 n=61 v=0
5874 On ch=4 n=64 v=127
5874 Meta Lyric "u"
5991 On ch=4 n=63 v=127
5991 Meta Lyric "scia"
6000 On ch=4 n=64 v=0
6109 On ch=4 n=63 v=0
6111 On ch=4 n=59 v=127
6111 Meta Lyric "mo "
6230 On ch=4 n=59 v=0
6234 On ch=4 n=61 v=127
6234 Meta Lyric "sem"
6274 On ch=4 n=61 v=0
6290 On ch=4 n=66 v=127
6290 Meta Lyric "pre "
6292 On ch=4 n=61 v=127
6319 On ch=4 n=66 v=0
6324 On ch=4 n=61 v=0
6348 On ch=4 n=66 v=127
6348 Meta Lyric "dai "
6350 On ch=4 n=61 v=127
6388 On ch=4 n=61 v=0
6389 On ch=4 n=66 v=0
6411 On ch=4 n=66 v=127
6411 Meta Lyric "guai, "
6411 Meta Lyric "\r"
6412 On ch=4 n=61 v=127
6482 On ch=4 n=66 v=0
6497 On ch=4 n=61 v=0
7202 On ch=4 n=52 v=117
7202 Meta Lyric "e "
7205 On ch=4 n=54 v=127
7225 On ch=4 n=54 v=0
7316 On ch=4 n=68 v=127
7316 Meta Lyric "di"
7317 On ch=4 n=64 v=127
7398 On ch=4 n=64 v=0
7405 On ch=4 n=68 v=0
7436 On ch=4 n=66 v=127
7436 Meta Lyric "fen"
7438 On ch=4 n=64 v=127
7467 On ch=4 n=64 v=0
7479 On ch=4 n=66 v=0
7499 On ch=4 n=68 v=127
7499 Meta Lyric "dia"
7501 On ch=4 n=64 v=127
7576 On ch=4 n=64 v=0
7583 On ch=4 n=68 v=0
7612 On ch=4 n=69 v=127
7612 Meta Lyric "m "
7613 On ch=4 n=64 v=127
7737 On ch=4 n=64 v=0
7739 On ch=4 n=69 v=0
7776 On ch=4 n=64 v=127
7776 On ch=4 n=68 v=127
7776 Meta Lyric "la "
7873 On ch=4 n=64 v=0
7877 On ch=4 n=68 v=0
7913 On ch=4 n=66 v=127
7913 On ch=4 n=64 v=127
7913 Meta Lyric "ter"
7955 On ch=4 n=64 v=0
7957 On ch=4 n=66 v=0
7977 On ch=4 n=64 v=127
7977 Meta Lyric "ra, "
7977 Meta Lyric "\r"
7979 On ch=4 n=68 v=127
8074 On ch=4 n=64 v=0
8077 On ch=4 n=68 v=0
8118 On ch=4 n=52 v=0
8155 On ch=4 n=56 v=127
8155 Meta Lyric "dall'"
8280 On ch=4 n=63 v=127
8280 Meta Lyric "om"
8281 On ch=4 n=68 v=127
8346 On ch=4 n=63 v=0
8353 On ch=4 n=68 v=0
8400 On ch=4 n=66 v=127
8400 Meta Lyric "bra "
8401 On ch=4 n=63 v=127
8436 On ch=4 n=63 v=0
8437 On ch=4 n=66 v=0
8461 On ch=4 n=63 v=127
8461 Meta Lyric "del"
8462 On ch=4 n=68 v=127
8509 On ch=4 n=68 v=0
8518 On ch=4 n=63 v=0
8571 On ch=4 n=69 v=127
8571 Meta Lyric "la "
8572 On ch=4 n=63 v=127
8687 On ch=4 n=69 v=0
8688 On ch=4 n=63 v=0
8751 On ch=4 n=63 v=127
8751 Meta Lyric "gu"
8752 On ch=4 n=68 v=127
8758 On ch=4 n=66 v=125
8764 On ch=4 n=66 v=0
8812 On ch=4 n=68 v=0
8818 On ch=4 n=63 v=0
8875 On ch=4 n=66 v=127
8875 On ch=4 n=63 v=127
8875 Meta Lyric "er"
8912 On ch=4 n=63 v=0
8915 On ch=4 n=66 v=0
8934 On ch=4 n=63 v=127
8934 Meta Lyric "ra, "
8934 Meta Lyric "\r"
8935 On ch=4 n=68 v=127
9035 On ch=4 n=63 v=0
9042 On ch=4 n=56 v=0
9046 On ch=4 n=68 v=0
9107 On ch=4 n=61 v=127
9107 Meta Lyric "il "
9235 On ch=4 n=64 v=127
9235 On ch=4 n=68 v=127
9235 Meta Lyric "no"
9307 On ch=4 n=64 v=0
9310 On ch=4 n=68 v=0
9352 On ch=4 n=66 v=127
9352 Meta Lyric "stro "
9354 On ch=4 n=64 v=127
9394 On ch=4 n=64 v=0
9394 On ch=4 n=66 v=0
9417 On ch=4 n=68 v=127
9417 Meta Lyric "cu"
9418 On ch=4 n=64 v=127
9496 On ch=4 n=64 v=0
9499 On ch=4 n=68 v=0
9541 On ch=4 n=73 v=127
9541 Meta Lyric "or"
9543 On ch=4 n=64 v=127
9671 On ch=4 n=73 v=0
9681 On ch=4 n=64 v=0
9713 On ch=4 n=64 v=127
9713 Meta Lyric "e "
9714 On ch=4 n=68 v=127
9790 On ch=4 n=68 v=0
9795 On ch=4 n=64 v=0
9836 On ch=4 n=66 v=127
9836 Meta Lyric "bat"
9837 On ch=4 n=64 v=127
9870 On ch=4 n=64 v=0
9876 On ch=4 n=66 v=0
9897 On ch=4 n=68 v=127
9897 Meta Lyric "te"
9901 On ch=4 n=64 v=127
9966 On ch=4 n=64 v=0
9968 On ch=4 n=68 v=0
9980 On ch=4 n=61 v=0
10009 On ch=4 n=64 v=127
10009 Meta Lyric "ra'"
10073 On ch=4 n=57 v=127
10073 Meta Lyric ", "
10073 Meta Lyric "\r"
10513 On ch=4 n=64 v=0
10525 On ch=4 n=57 v=0
10559 On ch=4 n=59 v=127
10559 Meta Lyric "per "
10560 On ch=4 n=63 v=127
10562 On ch=4 n=66 v=127
10641 On ch=4 n=66 v=0
10642 On ch=4 n=63 v=0
10676 On ch=4 n=63 v=127
10676 On ch=4 n=66 v=127
10676 Meta Lyric "la "
10751 On ch=4 n=66 v=0
10752 On ch=4 n=63 v=0
10796 On ch=4 n=66 v=127
10796 Meta Lyric "li"
10798 On ch=4 n=63 v=127
10831 On ch=4 n=66 v=0
10832 On ch=4 n=63 v=0
10852 On ch=4 n=64 v=127
10852 Meta Lyric "ber"
10853 On ch=4 n=63 v=126
10884 On ch=4 n=63 v=0
10885 On ch=4 n=64 v=0
10909 On ch=4 n=63 v=127
10909 Meta Lyric "ta'. "
10909 Meta Lyric "\r"
10910 On ch=4 n=66 v=127
10973 On ch=4 n=63 v=0
10982 On ch=4 n=66 v=0
11006 On ch=4 n=59 v=0
11031 On ch=4 n=52 v=118
11031 Meta Lyric "In"
11158 On ch=4 n=64 v=127
11158 Meta Lyric "tri"
11159 On ch=4 n=68 v=127
11227 On ch=4 n=68 v=0
11228 On ch=4 n=64 v=0
11277 On ch=4 n=66 v=127
11277 Meta Lyric "ghi "
11280 On ch=4 n=64 v=127
11315 On ch=4 n=66 v=0
11317 On ch=4 n=64 v=0
11337 On ch=4 n=64 v=127
11337 Meta Lyric "e "
11338 On ch=4 n=68 v=127
11407 On ch=4 n=64 v=0
11410 On ch=4 n=68 v=0
11448 On ch=4 n=64 v=127
11448 Meta Lyric "lo"
11450 On ch=4 n=69 v=127
11457 On ch=4 n=68 v=125
11457 Meta Lyric "sch"
11466 On ch=4 n=68 v=0
11593 On ch=4 n=69 v=0
11595 On ch=4 n=64 v=0
11631 On ch=4 n=64 v=127
11631 Meta Lyric "i "
11632 On ch=4 n=68 v=127
11706 On ch=4 n=64 v=0
11707 On ch=4 n=68 v=0
11756 On ch=4 n=66 v=127
11756 Meta Lyric "pia"
11757 On ch=4 n=64 v=127
11792 On ch=4 n=64 v=0
11793 On ch=4 n=66 v=0
11812 On ch=4 n=64 v=127
11812 Meta Lyric "ni "
11812 Meta Lyric "\r"
11815 On ch=4 n=68 v=127
11878 On ch=4 n=64 v=0
11892 On ch=4 n=68 v=0
11960 On ch=4 n=52 v=0
11995 On ch=4 n=56 v=127
11995 Meta Lyric "dei "
12114 On ch=4 n=64 v=127
12114 Meta Lyric "mos"
12115 On ch=4 n=68 v=127
12174 On ch=4 n=68 v=0
12176 On ch=4 n=64 v=0
12233 On ch=4 n=66 v=127
12233 Meta Lyric "tri "
12234 On ch=4 n=64 v=127
12268 On ch=4 n=66 v=0
12272 On ch=4 n=64 v=0
12290 On ch=4 n=68 v=127
12290 Meta Lyric "di"
12291 On ch=4 n=64 v=123
12341 On ch=4 n=64 v=0
12348 On ch=4 n=68 v=0
12408 On ch=4 n=64 v=127
12408 Meta Lyric "su"
12409 On ch=4 n=69 v=127
12541 On ch=4 n=64 v=0
12543 On ch=4 n=69 v=0
12588 On ch=4 n=64 v=127
12588 Meta Lyric "ma"
12590 On ch=4 n=68 v=127
12668 On ch=4 n=64 v=0
12673 On ch=4 n=68 v=0
12714 On ch=4 n=66 v=127
12714 On ch=4 n=63 v=127
12714 Meta Lyric "ni"
12749 On ch=4 n=63 v=0
12752 On ch=4 n=66 v=0
12774 On ch=4 n=68 v=127
12774 On ch=4 n=63 v=127
12774 Meta Lyric ", "
12774 Meta Lyric "\r"
12827 On ch=4 n=63 v=0
12845 On ch=4 n=68 v=0
12923 On ch=4 n=56 v=0
12962 On ch=4 n=61 v=127
12962 Meta Lyric "il "
13079 On ch=4 n=64 v=127
13079 Meta Lyric "nos"
13080 On ch=4 n=68 v=127
13147 On ch=4 n=64 v=0
13152 On ch=4 n=68 v=0
13196 On ch=4 n=66 v=127
13196 Meta Lyric "tro "
13198 On ch=4 n=64 v=127
13234 On ch=4 n=64 v=0
13234 On ch=4 n=66 v=0
13254 On ch=4 n=64 v=122
13254 Meta Lyric "rag"
13255 On ch=4 n=68 v=127
13316 On ch=4 n=64 v=0
13323 On ch=4 n=68 v=0
13364 On ch=4 n=73 v=127
13364 Meta Lyric "gi"
13366 On ch=4 n=64 v=127
13506 On ch=4 n=73 v=0
13518 On ch=4 n=64 v=0
13554 On ch=4 n=68 v=127
13554 Meta Lyric "o "
13555 On ch=4 n=64 v=127
13626 On ch=4 n=68 v=0
13631 On ch=4 n=64 v=0
13673 On ch=4 n=64 v=127
13673 Meta Lyric "spaz"
13674 On ch=4 n=66 v=127
13714 On ch=4 n=66 v=0
13714 On ch=4 n=64 v=0
13735 On ch=4 n=64 v=127
13735 Meta Lyric "ze"
13738 On ch=4 n=68 v=127
13798 On ch=4 n=64 v=0
13800 On ch=4 n=68 v=0
13814 On ch=4 n=61 v=0
13849 On ch=4 n=64 v=127
13849 Meta Lyric "r"
13908 On ch=4 n=57 v=127
13908 Meta Lyric "a' "
14348 On ch=4 n=64 v=0
14356 On ch=4 n=57 v=0
14391 On ch=4 n=66 v=127
14391 Meta Lyric "nell' "
14392 On ch=4 n=63 v=127
14392 On ch=4 n=59 v=127
14473 On ch=4 n=63 v=0
14474 On ch=4 n=66 v=0
14515 On ch=4 n=63 v=127
14515 On ch=4 n=66 v=127
14515 Meta Lyric "im"
14582 On ch=4 n=66 v=0
14587 On ch=4 n=63 v=0
14628 On ch=4 n=63 v=127
14628 On ch=4 n=66 v=127
14628 Meta Lyric "men"
14671 On ch=4 n=66 v=0
14673 On ch=4 n=63 v=0
14687 On ch=4 n=63 v=124
14687 Meta Lyric "si"
14689 On ch=4 n=64 v=127
14718 On ch=4 n=63 v=0
14727 On ch=4 n=64 v=0
14747 On ch=4 n=63 v=127
14747 Meta Lyric "ta'. "
14747 Meta Lyric "\r"
14749 On ch=4 n=66 v=127
14816 On ch=4 n=63 v=0
14825 On ch=4 n=66 v=0
14830 On ch=4 n=59 v=0
14867 On ch=4 n=73 v=127
14867 Meta Lyric "Dai"
14874 On ch=4 n=68 v=127
14887 On ch=4 n=68 v=0
14970 On ch=4 n=73 v=0
14998 On ch=4 n=68 v=127
14998 Meta Lyric "tarn, "
15089 On ch=4 n=68 v=0
15116 On ch=4 n=73 v=127
15116 Meta Lyric "Dai"
15203 On ch=4 n=73 v=0
15235 On ch=4 n=68 v=127
15235 Meta Lyric "tarn, "
15235 Meta Lyric "\r"
15345 On ch=4 n=68 v=0
15526 On ch=4 n=73 v=127
15526 Meta Lyric "arri"
15567 On ch=4 n=73 v=0
15587 On ch=4 n=76 v=127
15587 Meta Lyric "va "
15628 On ch=4 n=76 v=0
15647 On ch=4 n=75 v=127
15647 Meta Lyric "gia' "
15681 On ch=4 n=75 v=0
15715 On ch=4 n=73 v=127
15715 Meta Lyric "il "
15757 On ch=4 n=73 v=0
15771 On ch=4 n=76 v=127
15771 Meta Lyric "ne"
15826 On ch=4 n=76 v=0
15834 On ch=4 n=73 v=127
15834 Meta Lyric "mi"
15947 On ch=4 n=73 v=0
15952 On ch=4 n=69 v=127
15952 Meta Lyric "co "
16067 On ch=4 n=69 v=0
16073 On ch=4 n=73 v=127
16073 Meta Lyric "scat"
16185 On ch=4 n=73 v=0
16186 On ch=4 n=69 v=127
16186 Meta Lyric "ta, "
16186 Meta Lyric "\r"
16362 On ch=4 n=69 v=0
16494 On ch=4 n=73 v=127
16494 Meta Lyric "ma "
16547 On ch=4 n=73 v=0
16553 On ch=4 n=76 v=127
16553 Meta Lyric "tu "
16614 On ch=4 n=75 v=127
16614 Meta Lyric "ci "
16620 On ch=4 n=76 v=0
16662 On ch=4 n=75 v=0
16673 On ch=4 n=73 v=127
16673 Meta Lyric "sei "
16727 On ch=4 n=73 v=0
16731 On ch=4 n=76 v=127
16731 Meta Lyric "a"
16790 On ch=4 n=75 v=127
16790 Meta Lyric "mi"
16794 On ch=4 n=76 v=0
16912 On ch=4 n=71 v=127
16912 Meta Lyric "co, "
16913 On ch=4 n=75 v=0
17033 On ch=4 n=71 v=0
17036 On ch=4 n=75 v=127
17036 Meta Lyric "Dai"
17155 On ch=4 n=71 v=127
17155 Meta Lyric "tarn. "
17155 Meta Lyric "\r"
17157 On ch=4 n=75 v=0
17359 On ch=4 n=71 v=0
17444 On ch=4 n=64 v=127
17444 Meta Lyric "Ev"
17510 On ch=4 n=64 v=0
17510 On ch=4 n=69 v=127
17510 Meta Lyric "vi"
17572 On ch=4 n=68 v=127
17572 Meta Lyric "va "
17587 On ch=4 n=69 v=0
17635 On ch=4 n=68 v=0
17638 On ch=4 n=66 v=127
17638 Meta Lyric "Dai"
17699 On ch=4 n=69 v=127
17699 Meta Lyric "tarn"
17704 On ch=4 n=66 v=0
17760 On ch=4 n=68 v=127
17760 Meta Lyric "III"
17760 Meta Lyric "\r"
17772 On ch=4 n=69 v=0
18717 On ch=4 n=73 v=127
18717 Meta Lyric "Dai"
18719 On ch=4 n=68 v=0
18831 On ch=4 n=73 v=0
18831 On ch=4 n=68 v=127
18831 Meta Lyric "tarn, "
18948 On ch=4 n=68 v=0
18949 On ch=4 n=73 v=127
18949 Meta Lyric "Dai"
19073 On ch=4 n=68 v=127
19073 Meta Lyric "tarn, "
19073 Meta Lyric "\r"
19077 On ch=4 n=73 v=0
19366 On ch=4 n=68 v=0
19371 On ch=4 n=73 v=127
19371 Meta Lyric "per "
19437 On ch=4 n=73 v=0
19437 On ch=4 n=76 v=127
19437 Meta Lyric "noi "
19495 On ch=4 n=75 v=127
19495 Meta Lyric "tu "
19506 On ch=4 n=76 v=0
19553 On ch=4 n=73 v=127
19553 Meta Lyric "sei "
19562 On ch=4 n=75 v=0
19606 On ch=4 n=73 v=0
19609 On ch=4 n=76 v=127
19609 Meta Lyric "dav"
19677 On ch=4 n=76 v=0
19677 On ch=4 n=73 v=127
19677 Meta Lyric "ve"
19790 On ch=4 n=73 v=0
19793 On ch=4 n=69 v=127
19793 Meta Lyric "ro "
19914 On ch=4 n=73 v=127
19914 Meta Lyric "for"
19917 On ch=4 n=69 v=0
20029 On ch=4 n=73 v=0
20031 On ch=4 n=69 v=127
20031 Meta Lyric "te, "
20031 Meta Lyric "\r"
20328 On ch=4 n=73 v=127
20328 Meta Lyric "per "
20334 On ch=4 n=69 v=0
20396 On ch=4 n=76 v=127
20396 Meta Lyric "noi "
20398 On ch=4 n=73 v=0
20451 On ch=4 n=75 v=127
20451 Meta Lyric "tu "
20465 On ch=4 n=76 v=0
20513 On ch=4 n=73 v=127
20513 Meta Lyric "sei "
20525 On ch=4 n=75 v=0
20569 On ch=4 n=76 v=127
20569 Meta Lyric "dav"
20572 On ch=4 n=73 v=0
20634 On ch=4 n=75 v=127
20634 Meta Lyric "ve"
20645 On ch=4 n=76 v=0
20758 On ch=4 n=75 v=0
20761 On ch=4 n=71 v=127
20761 Meta Lyric "ro "
20882 On ch=4 n=75 v=127
20882 Meta Lyric "gran"
20885 On ch=4 n=71 v=0
20995 On ch=4 n=75 v=0
20996 On ch=4 n=71 v=127
20996 Meta Lyric "de, "
20996 Meta Lyric "\r"
21302 On ch=4 n=68 v=124
21302 Meta Lyric "Ev"
21304 On ch=4 n=71 v=0
21359 On ch=4 n=69 v=127
21359 Meta Lyric "vi"
21365 On ch=4 n=68 v=0
21418 On ch=4 n=68 v=127
21418 Meta Lyric "va "
21454 On ch=4 n=69 v=0
21476 On ch=4 n=66 v=127
21476 Meta Lyric "Dai"
21478 On ch=4 n=68 v=0
21536 On ch=4 n=69 v=127
21536 Meta Lyric "tarn"
21542 On ch=4 n=66 v=0
21596 On ch=4 n=68 v=127
21596 Meta Lyric "III "
21596 Meta Lyric "\r"
21608 On ch=4 n=69 v=0
22559 On ch=4 n=68 v=0
24598 On ch=4 n=61 v=127
24598 Meta Lyric "Noi "
24599 On ch=4 n=64 v=127
24667 On ch=4 n=61 v=0
24668 On ch=4 n=64 v=0
24713 On ch=4 n=61 v=127
24713 Meta Lyric "sia"
24714 On ch=4 n=63 v=127
24756 On ch=4 n=63 v=0
24756 On ch=4 n=61 v=0
24778 On ch=4 n=61 v=125
24778 Meta Lyric "mo "
24781 On ch=4 n=64 v=127
24861 On ch=4 n=61 v=0
24868 On ch=4 n=64 v=0
24902 On ch=4 n=61 v=127
24902 Meta Lyric "un "
25007 On ch=4 n=61 v=0
25080 On ch=4 n=61 v=127
25080 Meta Lyric "trio "
25085 On ch=4 n=64 v=127
25139 On ch=4 n=64 v=0
25168 On ch=4 n=61 v=0
25205 On ch=4 n=63 v=127
25205 Meta Lyric "all' "
25210 On ch=4 n=61 v=127
25279 On ch=4 n=61 v=0
25285 On ch=4 n=63 v=0
25316 On ch=4 n=61 v=127
25316 Meta Lyric "erta "
25393 On ch=4 n=61 v=0
25437 On ch=4 n=61 v=127
25437 Meta Lyric "e "
25480 On ch=4 n=61 v=0
25498 On ch=4 n=66 v=127
25498 Meta Lyric "pieni "
25500 On ch=4 n=61 v=117
25527 On ch=4 n=66 v=0
25533 On ch=4 n=61 v=0
25561 On ch=4 n=66 v=127
25561 On ch=4 n=61 v=127
25561 Meta Lyric "di "
25593 On ch=4 n=66 v=0
25600 On ch=4 n=61 v=0
25619 On ch=4 n=61 v=127
25619 Meta Lyric "brio, "
25619 Meta Lyric "\r"
25620 On ch=4 n=66 v=127
25738 On ch=4 n=61 v=0
25739 On ch=4 n=66 v=0
26516 On ch=4 n=64 v=127
26516 Meta Lyric "se"
26517 On ch=4 n=56 v=127
26517 On ch=4 n=61 v=121
26567 On ch=4 n=64 v=0
26569 On ch=4 n=61 v=0
26629 On ch=4 n=63 v=127
26629 Meta Lyric "guiam "
26670 On ch=4 n=63 v=0
26689 On ch=4 n=64 v=127
26689 Meta Lyric "la "
26769 On ch=4 n=64 v=0
26815 On ch=4 n=61 v=127
26815 Meta Lyric "scia "
26920 On ch=4 n=61 v=0
27001 On ch=4 n=64 v=127
27001 Meta Lyric "se "
27076 On ch=4 n=64 v=0
27119 On ch=4 n=63 v=127
27119 Meta Lyric "un "
27223 On ch=4 n=63 v=0
27239 On ch=4 n=59 v=127
27239 Meta Lyric "me"
27315 On ch=4 n=56 v=0
27328 On ch=4 n=59 v=0
27356 On ch=4 n=61 v=127
27356 Meta Lyric "ga"
27359 On ch=4 n=57 v=127
27404 On ch=4 n=61 v=0
27414 On ch=4 n=66 v=127
27414 Meta Lyric "noide "
27441 On ch=4 n=66 v=0
27474 On ch=4 n=66 v=127
27474 Meta Lyric "ci "
27504 On ch=4 n=66 v=0
27531 On ch=4 n=66 v=127
27531 Meta Lyric "spia, "
27531 Meta Lyric "\r"
28290 On ch=4 n=57 v=0
28320 On ch=4 n=52 v=105
28320 Meta Lyric "e "
28379 On ch=4 n=66 v=0
28441 On ch=4 n=64 v=127
28441 Meta Lyric "il "
28442 On ch=4 n=68 v=127
28513 On ch=4 n=64 v=0
28519 On ch=4 n=68 v=0
28555 On ch=4 n=66 v=127
28555 Meta Lyric "mech"
28556 On ch=4 n=64 v=127
28593 On ch=4 n=64 v=0
28598 On ch=4 n=66 v=0
28614 On ch=4 n=64 v=127
28614 Meta Lyric "patrol "
28616 On ch=4 n=68 v=127
28703 On ch=4 n=64 v=0
28704 On ch=4 n=68 v=0
28729 On ch=4 n=69 v=127
28730 On ch=4 n=64 v=127
28875 On ch=4 n=64 v=0
28876 On ch=4 n=69 v=0
28910 On ch=4 n=68 v=127
28910 On ch=4 n=64 v=127
28910 Meta Lyric "che "
28993 On ch=4 n=68 v=0
28997 On ch=4 n=64 v=0
29041 On ch=4 n=66 v=127
29041 Meta Lyric "ci "
29043 On ch=4 n=64 v=127
29079 On ch=4 n=64 v=0
29079 On ch=4 n=66 v=0
29091 On ch=4 n=64 v=127
29091 Meta Lyric "por"
29094 On ch=4 n=68 v=127
29213 On ch=4 n=68 v=0
29215 On ch=4 n=64 v=0
29262 On ch=4 n=56 v=127
29262 Meta Lyric "ta, "
29262 Meta Lyric "\r"
29266 On ch=4 n=52 v=0
29399 On ch=4 n=63 v=127
29399 Meta Lyric "nell' "
29400 On ch=4 n=68 v=127
29476 On ch=4 n=63 v=0
29481 On ch=4 n=68 v=0
29519 On ch=4 n=63 v=127
29519 Meta Lyric "oc"
29520 On ch=4 n=66 v=127
29555 On ch=4 n=63 v=0
29556 On ch=4 n=66 v=0
29577 On ch=4 n=63 v=123
29577 Meta Lyric "chio "
29579 On ch=4 n=68 v=127
29658 On ch=4 n=63 v=0
29659 On ch=4 n=68 v=0
29694 On ch=4 n=69 v=127
29694 Meta Lyric "all'av"
29695 On ch=4 n=63 v=127
29830 On ch=4 n=63 v=0
29833 On ch=4 n=69 v=0
29878 On ch=4 n=68 v=127
29878 On ch=4 n=63 v=127
29878 Meta Lyric "ven"
29949 On ch=4 n=63 v=0
29951 On ch=4 n=68 v=0
30001 On ch=4 n=66 v=127
30001 Meta Lyric "tu"
30003 On ch=4 n=63 v=127
30036 On ch=4 n=63 v=0
30039 On ch=4 n=66 v=0
30058 On ch=4 n=63 v=127
30058 Meta Lyric "ra, "
30058 Meta Lyric "\r"
30060 On ch=4 n=68 v=127
30164 On ch=4 n=63 v=0
30176 On ch=4 n=68 v=0
30195 On ch=4 n=56 v=0
30231 On ch=4 n=61 v=127
30231 Meta Lyric "ver"
30360 On ch=4 n=64 v=127
30360 On ch=4 n=68 v=127
30360 Meta Lyric "so "
30434 On ch=4 n=64 v=0
30437 On ch=4 n=68 v=0
30481 On ch=4 n=66 v=127
30481 Meta Lyric "l'i"
30483 On ch=4 n=64 v=127
30517 On ch=4 n=64 v=0
30519 On ch=4 n=66 v=0
30542 On ch=4 n=68 v=127
30542 Meta Lyric "gno"
30543 On ch=4 n=64 v=121
30612 On ch=4 n=64 v=0
30617 On ch=4 n=68 v=0
30657 On ch=4 n=73 v=127
30657 Meta Lyric "to "
30661 On ch=4 n=64 v=127
30803 On ch=4 n=73 v=0
30813 On ch=4 n=64 v=0
30845 On ch=4 n=64 v=127
30845 On ch=4 n=68 v=127
30845 Meta Lyric "cor"
30914 On ch=4 n=68 v=0
30915 On ch=4 n=64 v=0
30959 On ch=4 n=66 v=127
30959 Meta Lyric "re "
30961 On ch=4 n=64 v=127
30999 On ch=4 n=66 v=0
31002 On ch=4 n=64 v=0
31023 On ch=4 n=68 v=127
31023 On ch=4 n=64 v=127
31023 Meta Lyric "e "
31083 On ch=4 n=64 v=0
31086 On ch=4 n=68 v=0
31119 On ch=4 n=61 v=0
31134 On ch=4 n=64 v=127
31134 Meta Lyric "va "
31134 Meta Lyric "\r"
31197 On ch=4 n=57 v=127
31197 Meta Lyric "co"
31634 On ch=4 n=64 v=0
31640 On ch=4 n=57 v=0
31673 On ch=4 n=66 v=127
31673 Meta Lyric "me "
31675 On ch=4 n=59 v=127
31675 On ch=4 n=63 v=127
31750 On ch=4 n=66 v=0
31757 On ch=4 n=63 v=0
31790 On ch=4 n=63 v=127
31790 Meta Lyric "un "
31792 On ch=4 n=66 v=127
31864 On ch=4 n=66 v=0
31871 On ch=4 n=63 v=0
31916 On ch=4 n=63 v=127
31916 Meta Lyric "ful"
31917 On ch=4 n=66 v=127
31955 On ch=4 n=66 v=0
31957 On ch=4 n=63 v=0
31978 On ch=4 n=64 v=127
31978 Meta Lyric "mi"
31982 On ch=4 n=63 v=124
32009 On ch=4 n=63 v=0
32016 On ch=4 n=64 v=0
32035 On ch=4 n=63 v=125
32035 Meta Lyric "ne, "
32035 Meta Lyric "\r"
32037 On ch=4 n=66 v=127
32117 On ch=4 n=63 v=0
32117 On ch=4 n=59 v=0
32119 On ch=4 n=66 v=0
32152 On ch=4 n=52 v=123
32152 Meta Lyric "e "
32278 On ch=4 n=64 v=127
32278 Meta Lyric "in "
32280 On ch=4 n=68 v=127
32344 On ch=4 n=64 v=0
32345 On ch=4 n=68 v=0
32396 On ch=4 n=66 v=127
32396 Meta Lyric "a"
32399 On ch=4 n=64 v=127
32435 On ch=4 n=64 v=0
32441 On ch=4 n=66 v=0
32457 On ch=4 n=68 v=127
32457 Meta Lyric "ria "
32459 On ch=4 n=64 v=127
32533 On ch=4 n=68 v=0
32534 On ch=4 n=64 v=0
32573 On ch=4 n=64 v=127
32573 Meta Lyric "si "
32575 On ch=4 n=69 v=127
32697 On ch=4 n=64 v=0
32702 On ch=4 n=69 v=0
32749 On ch=4 n=64 v=127
32749 Meta Lyric "tras"
32751 On ch=4 n=68 v=127
32832 On ch=4 n=64 v=0
32835 On ch=4 n=68 v=0
32882 On ch=4 n=66 v=127
32882 On ch=4 n=64 v=127
32882 Meta Lyric "for"
32921 On ch=4 n=64 v=0
32922 On ch=4 n=66 v=0
32937 On ch=4 n=64 v=127
32937 Meta Lyric "ma "
32937 Meta Lyric "\r"
32939 On ch=4 n=68 v=127
33038 On ch=4 n=64 v=0
33040 On ch=4 n=68 v=0
33072 On ch=4 n=52 v=0
33112 On ch=4 n=56 v=127
33112 Meta Lyric "in "
33239 On ch=4 n=63 v=127
33239 Meta Lyric "un "
33240 On ch=4 n=68 v=127
33313 On ch=4 n=63 v=0
33315 On ch=4 n=68 v=0
33357 On ch=4 n=66 v=127
33357 Meta Lyric "ro"
33358 On ch=4 n=63 v=127
33395 On ch=4 n=63 v=0
33396 On ch=4 n=66 v=0
33416 On ch=4 n=68 v=127
33416 Meta Lyric "bot "
33417 On ch=4 n=63 v=125
33479 On ch=4 n=63 v=0
33483 On ch=4 n=68 v=0
33534 On ch=4 n=69 v=127
33534 Meta Lyric "che "
33535 On ch=4 n=63 v=127
33661 On ch=4 n=63 v=0
33661 On ch=4 n=69 v=0
33710 On ch=4 n=68 v=127
33710 Meta Lyric "ha "
33711 On ch=4 n=63 v=127
33778 On ch=4 n=63 v=0
33780 On ch=4 n=68 v=0
33837 On ch=4 n=66 v=127
33837 Meta Lyric "un'ar"
33839 On ch=4 n=63 v=127
33868 On ch=4 n=63 v=0
33875 On ch=4 n=66 v=0
33894 On ch=4 n=63 v=127
33894 Meta Lyric "ma, "
33894 Meta Lyric "\r"
33897 On ch=4 n=68 v=127
33988 On ch=4 n=63 v=0
33997 On ch=4 n=68 v=0
34012 On ch=4 n=56 v=0
34073 On ch=4 n=61 v=127
34073 Meta Lyric "ha "
34195 On ch=4 n=64 v=127
34195 Meta Lyric "l'e"
34196 On ch=4 n=68 v=127
34273 On ch=4 n=64 v=0
34276 On ch=4 n=68 v=0
34317 On ch=4 n=66 v=127
34317 Meta Lyric "ner"
34321 On ch=4 n=64 v=127
34359 On ch=4 n=66 v=0
34363 On ch=4 n=64 v=0
34375 On ch=4 n=64 v=119
34375 Meta Lyric "gia "
34377 On ch=4 n=68 v=127
34445 On ch=4 n=64 v=0
34452 On ch=4 n=68 v=0
34492 On ch=4 n=73 v=127
34492 Meta Lyric "so"
34497 On ch=4 n=64 v=127
34621 On ch=4 n=73 v=0
34633 On ch=4 n=64 v=0
34675 On ch=4 n=64 v=127
34675 On ch=4 n=68 v=127
34675 Meta Lyric "la"
34739 On ch=4 n=68 v=0
34740 On ch=4 n=64 v=0
34788 On ch=4 n=66 v=127
34788 Meta Lyric "re "
34789 On ch=4 n=64 v=127
34826 On ch=4 n=66 v=0
34829 On ch=4 n=64 v=0
34849 On ch=4 n=64 v=125
34849 On ch=4 n=68 v=127
34849 Meta Lyric "che"
34849 Meta Lyric "\r"
34941 On ch=4 n=64 v=0
34943 On ch=4 n=68 v=0
34946 On ch=4 n=61 v=0
34975 On ch=4 n=64 v=127
34975 Meta Lyric "e' "
34977 On ch=4 n=57 v=127
35472 On ch=4 n=64 v=0
35483 On ch=4 n=57 v=0
35516 On ch=4 n=63 v=127
35516 On ch=4 n=66 v=127
35516 Meta Lyric "in"
35517 On ch=4 n=59 v=127
35590 On ch=4 n=66 v=0
35593 On ch=4 n=63 v=0
35636 On ch=4 n=63 v=127
35636 On ch=4 n=66 v=127
35636 Meta Lyric "vin"
35709 On ch=4 n=66 v=0
35711 On ch=4 n=63 v=0
35754 On ch=4 n=63 v=127
35754 On ch=4 n=66 v=127
35754 Meta Lyric "ci"
35801 On ch=4 n=66 v=0
35802 On ch=4 n=63 v=0
35819 On ch=4 n=63 v=124
35819 Meta Lyric "bi"
35820 On ch=4 n=64 v=127
35849 On ch=4 n=63 v=0
35862 On ch=4 n=64 v=0
35875 On ch=4 n=63 v=127
35875 Meta Lyric "le. "
35875 Meta Lyric "\r"
35877 On ch=4 n=66 v=127
35932 On ch=4 n=63 v=0
35934 On ch=4 n=66 v=0
35955 On ch=4 n=59 v=0
35993 On ch=4 n=73 v=127
35993 Meta Lyric "Dai"
35994 On ch=4 n=61 v=121
36057 On ch=4 n=73 v=0
36118 On ch=4 n=68 v=127
36118 Meta Lyric "tarn, "
36183 On ch=4 n=68 v=0
36237 On ch=4 n=73 v=127
36237 Meta Lyric "Dai"
36305 On ch=4 n=73 v=0
36341 On ch=4 n=68 v=127
36341 Meta Lyric "tarn, "
36341 Meta Lyric "\r"
36425 On ch=4 n=68 v=0
36648 On ch=4 n=73 v=127
36648 Meta Lyric "arri"
36696 On ch=4 n=73 v=0
36708 On ch=4 n=76 v=127
36708 Meta Lyric "va "
36757 On ch=4 n=76 v=0
36771 On ch=4 n=75 v=127
36771 Meta Lyric "gia' "
36807 On ch=4 n=75 v=0
36831 On ch=4 n=73 v=127
36831 Meta Lyric "il "
36871 On ch=4 n=73 v=0
36889 On ch=4 n=76 v=127
36889 Meta Lyric "ne"
36898 On ch=4 n=61 v=0
36929 On ch=4 n=76 v=0
36947 On ch=4 n=57 v=127
36947 Meta Lyric "mi"
36952 On ch=4 n=73 v=127
37008 On ch=4 n=73 v=0
37076 On ch=4 n=69 v=127
37076 Meta Lyric "co "
37137 On ch=4 n=69 v=0
37191 On ch=4 n=73 v=127
37191 Meta Lyric "scat"
37254 On ch=4 n=73 v=0
37317 On ch=4 n=69 v=127
37317 Meta Lyric "ta, "
37317 Meta Lyric "\r"
37387 On ch=4 n=69 v=0
37616 On ch=4 n=73 v=127
37616 Meta Lyric "ma "
37658 On ch=4 n=73 v=0
37678 On ch=4 n=76 v=127
37678 Meta Lyric "tu "
37722 On ch=4 n=76 v=0
37735 On ch=4 n=75 v=127
37735 Meta Lyric "ci "
37773 On ch=4 n=75 v=0
37793 On ch=4 n=73 v=127
37793 Meta Lyric "sei "
37843 On ch=4 n=73 v=0
37851 On ch=4 n=76 v=127
37851 Meta Lyric "a"
37859 On ch=4 n=57 v=0
37890 On ch=4 n=76 v=0
37914 On ch=4 n=75 v=127
37914 Meta Lyric "mi"
37918 On ch=4 n=59 v=127
38012 On ch=4 n=75 v=0
38037 On ch=4 n=71 v=127
38037 Meta Lyric "co, "
38094 On ch=4 n=71 v=0
38154 On ch=4 n=75 v=127
38154 Meta Lyric "Dai"
38224 On ch=4 n=75 v=0
38275 On ch=4 n=71 v=127
38275 Meta Lyric "tarn. "
38275 Meta Lyric "\r"
38348 On ch=4 n=71 v=0
38573 On ch=4 n=64 v=121
38573 Meta Lyric "Ev"
38635 On ch=4 n=69 v=127
38635 Meta Lyric "vi"
38681 On ch=4 n=69 v=0
38692 On ch=4 n=68 v=127
38692 Meta Lyric "va "
38721 On ch=4 n=59 v=0
38757 On ch=4 n=66 v=127
38757 Meta Lyric "Dai"
38764 On ch=4 n=68 v=0
38772 On ch=4 n=64 v=0
38817 On ch=4 n=66 v=0
38818 On ch=4 n=64 v=116
38818 Meta Lyric "tarn"
38820 On ch=4 n=69 v=127
38850 On ch=4 n=69 v=0
38850 On ch=4 n=64 v=0
38874 On ch=4 n=52 v=127
38874 Meta Lyric "III"
38874 Meta Lyric "\r"
38877 On ch=4 n=64 v=124
38880 On ch=4 n=68 v=127
39239 On ch=4 n=52 v=0
39306 On ch=4 n=64 v=0
39316 On ch=4 n=68 v=0
39343 On ch=4 n=56 v=109
39352 On ch=4 n=60 v=95
39358 On ch=4 n=68 v=116
39360 On ch=4 n=72 v=122
39770 On ch=4 n=60 v=0
39782 On ch=4 n=56 v=0
39787 On ch=4 n=72 v=0
39789 On ch=4 n=68 v=0
39824 On ch=4 n=61 v=127
39824 Meta Lyric "Dai"
39827 On ch=4 n=76 v=127
39831 On ch=4 n=68 v=121
39883 On ch=4 n=68 v=0
39905 On ch=4 n=76 v=0
39958 On ch=4 n=68 v=125
39958 Meta Lyric "tarn, "
39959 On ch=4 n=73 v=127
40016 On ch=4 n=68 v=0
40018 On ch=4 n=73 v=0
40078 On ch=4 n=68 v=125
40078 On ch=4 n=73 v=127
40078 Meta Lyric "Dai"
40124 On ch=4 n=73 v=0
40130 On ch=4 n=68 v=0
40191 On ch=4 n=68 v=127
40191 Meta Lyric "tarn, "
40191 Meta Lyric "\r"
40202 On ch=4 n=73 v=112
40219 On ch=4 n=73 v=0
40271 On ch=4 n=68 v=0
40486 On ch=4 n=73 v=127
40486 Meta Lyric "per "
40533 On ch=4 n=73 v=0
40550 On ch=4 n=76 v=127
40550 Meta Lyric "noi "
40593 On ch=4 n=76 v=0
40611 On ch=4 n=75 v=127
40611 Meta Lyric "tu "
40644 On ch=4 n=75 v=0
40672 On ch=4 n=73 v=127
40672 Meta Lyric "sei "
40709 On ch=4 n=73 v=0
40732 On ch=4 n=76 v=127
40732 Meta Lyric "dav"
40755 On ch=4 n=61 v=0
40769 On ch=4 n=76 v=0
40787 On ch=4 n=57 v=127
40787 Meta Lyric "ve"
40793 On ch=4 n=73 v=127
40874 On ch=4 n=73 v=0
40917 On ch=4 n=69 v=127
40917 Meta Lyric "ro "
40985 On ch=4 n=69 v=0
41033 On ch=4 n=73 v=127
41033 Meta Lyric "for"
41107 On ch=4 n=73 v=0
41156 On ch=4 n=69 v=127
41156 Meta Lyric "te, "
41156 Meta Lyric "\r"
41229 On ch=4 n=69 v=0
41454 On ch=4 n=73 v=127
41454 Meta Lyric "per "
41508 On ch=4 n=73 v=0
41514 On ch=4 n=76 v=127
41514 Meta Lyric "noi "
41561 On ch=4 n=76 v=0
41577 On ch=4 n=75 v=127
41577 Meta Lyric "tu "
41612 On ch=4 n=75 v=0
41637 On ch=4 n=73 v=127
41637 Meta Lyric "sei "
41676 On ch=4 n=73 v=0
41693 On ch=4 n=76 v=127
41693 Meta Lyric "dav"
41718 On ch=4 n=57 v=0
41728 On ch=4 n=76 v=0
41752 On ch=4 n=59 v=127
41752 Meta Lyric "ve"
41754 On ch=4 n=75 v=127
41825 On ch=4 n=75 v=0
41875 On ch=4 n=71 v=127
41875 Meta Lyric "ro "
41954 On ch=4 n=71 v=0
41998 On ch=4 n=75 v=127
41998 Meta Lyric "gran"
42060 On ch=4 n=75 v=0
42115 On ch=4 n=71 v=127
42115 Meta Lyric "de, "
42115 Meta Lyric "\r"
42192 On ch=4 n=71 v=0
42416 On ch=4 n=64 v=96
42416 Meta Lyric "Ev"
42468 On ch=4 n=64 v=0
42475 On ch=4 n=69 v=127
42475 Meta Lyric "vi"
42534 On ch=4 n=68 v=127
42534 Meta Lyric "va "
42540 On ch=4 n=69 v=0
42582 On ch=4 n=68 v=0
42595 On ch=4 n=66 v=127
42595 Meta Lyric "Dai"
42655 On ch=4 n=69 v=127
42655 Meta Lyric "tarn"
42666 On ch=4 n=66 v=0
42683 On ch=4 n=59 v=0
42690 On ch=4 n=69 v=0
42711 On ch=4 n=52 v=127
42711 Meta Lyric "III "
42711 Meta Lyric "\r"
42714 On ch=4 n=68 v=127
43169 On ch=4 n=52 v=0
43172 On ch=4 n=68 v=0
43200 On ch=4 n=68 v=127
43614 On ch=4 n=68 v=0
43669 On ch=4 n=68 v=127
43755 On ch=4 n=68 v=0
45002 On ch=4 n=68 v=100
45002 Meta Lyric "Karaoke: "
45072 On ch=4 n=68 v=0
45122 On ch=4 n=73 v=100
45122 Meta Lyric "Irene,Flavio,Luca. "
45204 On ch=4 n=73 v=0
45204 Meta TrkEnd
TrkEnd
MTrk
0 Meta 0x21 00
0 Meta TrkName "Timpani"
147 PrCh ch=6 p=47
148 Par ch=6 c=7 v=127
45002 On ch=6 n=44 v=127
45095 On ch=6 n=44 v=0
45121 On ch=6 n=49 v=127
45205 On ch=6 n=49 v=0
45205 Meta TrkEnd
TrkEnd
MTrk
0 Meta 0x21 00
0 Meta TrkName "sequenced by"
0 Meta TrkEnd
TrkEnd
MTrk
0 Meta 0x21 00
0 Meta TrkName "Kit 1997"
0 Meta TrkEnd
TrkEnd
MTrk
0 Meta 0x21 00
0 Meta TrkName "kit@mail.nexus.it"
0 Meta TrkEnd
TrkEnd
MTrk
0 Meta 0x21 00
0 Meta TrkName "Karaoke By"
0 Meta TrkEnd
TrkEnd
MTrk
0 Meta 0x21 00
0 Meta TrkName "Irene,Flavio,Luca"
0 Meta TrkEnd
TrkEnd
