MFile 1 13 120
MTrk
0 Meta SeqName "  "
0 Meta Copyright "Copyright \xa9 1997 by Federico Fanelli"
0 Meta Text "Federico Fanelli\n"
0 SMPTE 96 0 3 0 0
0 TimeSig 4/4 24 8
0 KeySig 0 major
0 Tempo 468750
0 Meta TrkEnd
TrkEnd
MTrk
0 Meta TrkName "Soft Karaoke"
0 Meta Text "@KMIDI KARAOKE FILE"
0 Meta Text "@V0100"
0 Meta Text "@ILyrics entered with WinKaraoke Creator"
0 Meta Text "@IMusic by ?"
0 Meta Text "@IKaraoke by Avus"
0 Meta TrkEnd
TrkEnd
MTrk
0 Meta TrkName "Words"
0 Meta Text "@LENGL"
0 Meta Text "@TUfo Robot"
0 Meta Text "@TMidi By ?"
0 Meta Text "@TKaraoke by avus@libero.it"
1440 Meta Text "\\ U"
1470 Meta Text "fo "
1500 Meta Text "Ro"
1530 Meta Text "bot "
1620 Meta Text "U"
1650 Meta Text "fo "
1680 Meta Text "Ro"
1710 Meta Text "bot "
1920 Meta Text "/ U"
1950 Meta Text "fo "
1980 Meta Text "Ro"
2010 Meta Text "bot "
2100 Meta Text "U"
2130 Meta Text "fo "
2160 Meta Text "Ro"
2190 Meta Text "bot "
2280 Meta Text "\\ Si "
2340 Meta Text "tras"
2400 Meta Text "for"
2430 Meta Text "ma "
2490 Meta Text "in un "
2520 Meta Text "raz"
2580 Meta Text "zo "
2610 Meta Text "mis"
2670 Meta Text "si"
2700 Meta Text "le "
2760 Meta Text "/ Con "
2820 Meta Text "cir"
2880 Meta Text "cui"
2910 Meta Text "ti "
2970 Meta Text "di "
3000 Meta Text "mil"
3060 Meta Text "le "
3090 Meta Text "val"
3150 Meta Text "vo"
3180 Meta Text "le "
3240 Meta Text "/ Tra "
3300 Meta Text "le "
3360 Meta Text "stel"
3480 Meta Text "le "
3600 Meta Text "sprin"
3720 Meta Text "ta e "
3840 Meta Text "va. "
4200 Meta Text "\\ Man"
4260 Meta Text "gia "
4320 Meta Text "li"
4350 Meta Text "bri "
4410 Meta Text "di "
4440 Meta Text "ci"
4500 Meta Text "ber"
4530 Meta Text "ne"
4590 Meta Text "ti"
4620 Meta Text "ca "
4680 Meta Text "/ In"
4740 Meta Text "sa"
4800 Meta Text "la"
4830 Meta Text "te "
4890 Meta Text "di "
4920 Meta Text "ma"
4980 Meta Text "te"
5010 Meta Text "ma"
5070 Meta Text "ti"
5100 Meta Text "ca "
5160 Meta Text "/ E a "
5220 Meta Text "gio"
5280 Meta Text "car' "
5400 Meta Text "su "
5520 Meta Text "Mar"
5640 Meta Text "te "
5760 Meta Text "va."
8040 Meta Text "\\ Lui "
8100 Meta Text "res"
8160 Meta Text "pi"
8190 Meta Text "ra "
8250 Meta Text "nell'"
8280 Meta Text "a"
8340 Meta Text "ria "
8370 Meta Text "cos"
8430 Meta Text "mi"
8460 Meta Text "ca "
8520 Meta Text "/ E' "
8580 Meta Text "un "
8640 Meta Text "mi"
8670 Meta Text "ra"
8730 Meta Text "co"
8760 Meta Text "lo "
8820 Meta Text "d'e"
8850 Meta Text "let"
8910 Meta Text "tro"
8940 Meta Text "nica "
9000 Meta Text "/ Ma "
9060 Meta Text "un "
9120 Meta Text "cuo"
9240 Meta Text "re "
9360 Meta Text "uma"
9480 Meta Text "no "
9600 Meta Text "ha. "
10080 Meta Text "\\ Ma "
10440 Meta Text "chi "
10560 Meta Text "\xe8 ? "
11040 Meta Text "/ Ma "
11400 Meta Text "chi "
11520 Meta Text "\xe8 ? "
12480 Meta Text "\\ U"
12510 Meta Text "fo "
12540 Meta Text "Ro"
12570 Meta Text "bot "
12660 Meta Text "U"
12690 Meta Text "fo "
12720 Meta Text "Ro"
12750 Meta Text "bot "
12840 Meta Text "\\ Rag"
12900 Meta Text "gi "
12960 Meta Text "La"
12990 Meta Text "ser "
13050 Meta Text "che "
13080 Meta Text "sem"
13140 Meta Text "bran' "
13170 Meta Text "ful"
13230 Meta Text "mi"
13260 Meta Text "ni"
13320 Meta Text "/ E' "
13380 Meta Text "pro"
13440 Meta Text "tet"
13470 Meta Text "to "
13530 Meta Text "da "
13560 Meta Text "scu"
13620 Meta Text "di "
13650 Meta Text "ter"
13710 Meta Text "mi"
13740 Meta Text "ci "
13800 Meta Text "/ Sen"
13860 Meta Text "ti"
13920 Meta Text "nel"
14040 Meta Text "la "
14160 Meta Text "lui "
14280 Meta Text "ci "
14400 Meta Text "fa. "
14760 Meta Text "\\ Quan"
14820 Meta Text "do "
14880 Meta Text "schiac"
14910 Meta Text "cia "
14970 Meta Text "un pul"
15000 Meta Text "san"
15060 Meta Text "te "
15090 Meta Text "ma"
15150 Meta Text "gi"
15180 Meta Text "co "
15240 Meta Text "/ Lui "
15300 Meta Text "di"
15360 Meta Text "ven"
15390 Meta Text "ta "
15450 Meta Text "un'i"
15480 Meta Text "per"
15540 Meta Text "ga"
15570 Meta Text "lat"
15630 Meta Text "ti"
15660 Meta Text "co"
15720 Meta Text "/ Lot"
15780 Meta Text "ta "
15840 Meta Text "per "
15960 Meta Text "l'u"
16080 Meta Text "ma"
16200 Meta Text "ni"
16320 Meta Text "t\xe0. "
18720 Meta Text "\\ U"
18750 Meta Text "fo "
18780 Meta Text "Ro"
18810 Meta Text "bot "
18900 Meta Text "U"
18930 Meta Text "fo "
18960 Meta Text "Ro"
18990 Meta Text "bot"
19200 Meta Text "/ U"
19230 Meta Text "fo "
19260 Meta Text "Ro"
19290 Meta Text "bot "
19380 Meta Text "U"
19410 Meta Text "fo "
19440 Meta Text "Ro"
19470 Meta Text "bot "
19560 Meta Text "\\ Si "
19620 Meta Text "tras"
19680 Meta Text "for"
19710 Meta Text "ma "
19770 Meta Text "in un "
19800 Meta Text "raz"
19860 Meta Text "zo "
19890 Meta Text "mis"
19950 Meta Text "si"
19980 Meta Text "le "
20040 Meta Text "/ Con "
20100 Meta Text "cir"
20160 Meta Text "cui"
20190 Meta Text "ti "
20250 Meta Text "di "
20280 Meta Text "mil"
20340 Meta Text "le "
20370 Meta Text "val"
20430 Meta Text "vo"
20460 Meta Text "le "
20520 Meta Text "/ Tra"
20580 Meta Text "le "
20640 Meta Text "stel"
20760 Meta Text "le "
20880 Meta Text "sprin"
21000 Meta Text "ta e "
21120 Meta Text "va. "
21480 Meta Text "\\ Lui "
21540 Meta Text "res"
21600 Meta Text "pi"
21630 Meta Text "ra "
21690 Meta Text "nell'"
21720 Meta Text "a"
21780 Meta Text "ria "
21810 Meta Text "cos"
21870 Meta Text "mi"
21900 Meta Text "ca "
21960 Meta Text "/ E' "
22020 Meta Text "un "
22080 Meta Text "mi"
22110 Meta Text "ra"
22170 Meta Text "co"
22200 Meta Text "lo "
22260 Meta Text "d'e"
22290 Meta Text "let"
22350 Meta Text "tro"
22380 Meta Text "nica "
22440 Meta Text "/ Ma "
22500 Meta Text "un "
22560 Meta Text "cuo"
22680 Meta Text "re "
22800 Meta Text "uma"
22920 Meta Text "no "
23040 Meta Text "ha. "
23520 Meta Text "\\ Ma "
23880 Meta Text "chi "
24000 Meta Text "\xe8? "
24480 Meta Text "/ Ma "
24840 Meta Text "chi "
24960 Meta Text "\xe8? "
25920 Meta Text "\\ U"
25950 Meta Text "fo "
25980 Meta Text "Ro"
26010 Meta Text "bot "
26100 Meta Text "U"
26130 Meta Text "fo"
26160 Meta Text "Ro"
26190 Meta Text "bot "
26280 Meta Text "\\ Rag"
26340 Meta Text "gi "
26400 Meta Text "La"
26430 Meta Text "ser "
26490 Meta Text "che "
26520 Meta Text "sem"
26580 Meta Text "bran' "
26610 Meta Text "ful"
26670 Meta Text "mi"
26700 Meta Text "ni"
26760 Meta Text "/ E' "
26820 Meta Text "pro"
26880 Meta Text "tet"
26910 Meta Text "to "
26970 Meta Text "da "
27000 Meta Text "scu"
27060 Meta Text "di "
27090 Meta Text "ter"
27150 Meta Text "mi"
27180 Meta Text "ci "
27240 Meta Text "/ Sen"
27300 Meta Text "ti"
27360 Meta Text "nel"
27480 Meta Text "la "
27600 Meta Text "lui "
27720 Meta Text "ci "
27840 Meta Text "fa."
28200 Meta Text "\\ Quan"
28260 Meta Text "do "
28320 Meta Text "schiac"
28350 Meta Text "cia "
28410 Meta Text "un pul"
28440 Meta Text "san"
28500 Meta Text "te "
28530 Meta Text "ma"
28590 Meta Text "gi"
28620 Meta Text "co "
28680 Meta Text "/ Lui "
28740 Meta Text "di"
28800 Meta Text "ven"
28830 Meta Text "ta "
28890 Meta Text "un i"
28920 Meta Text "per"
28980 Meta Text "ga"
29010 Meta Text "lat"
29070 Meta Text "ti"
29100 Meta Text "co "
29160 Meta Text "/ Lot"
29220 Meta Text "ta "
29280 Meta Text "per "
29400 Meta Text "l'u"
29520 Meta Text "ma"
29640 Meta Text "ni"
29760 Meta Text "t\xe0."
32040 Meta Text "\\ Si "
32100 Meta Text "tras"
32160 Meta Text "for"
32190 Meta Text "ma "
32250 Meta Text "in un "
32280 Meta Text "raz"
32340 Meta Text "zo "
32370 Meta Text "mis"
32430 Meta Text "si"
32460 Meta Text "le "
32520 Meta Text "/ Con "
32580 Meta Text "cir"
32640 Meta Text "cui"
32670 Meta Text "ti "
32730 Meta Text "di "
32760 Meta Text "mil"
32820 Meta Text "le "
32850 Meta Text "val"
32910 Meta Text "vo"
32940 Meta Text "le "
33000 Meta Text "/ Tra "
33060 Meta Text "le "
33120 Meta Text "stel"
33240 Meta Text "le "
33360 Meta Text "sprin"
33480 Meta Text "ta e "
33600 Meta Text "va. "
34080 Meta Text "\\ U"
34110 Meta Text "fo "
34140 Meta Text "Ro"
34170 Meta Text "bot "
34260 Meta Text "U"
34290 Meta Text "fo "
34320 Meta Text "Ro"
34350 Meta Text "bot "
34560 Meta Text "/ U"
34590 Meta Text "fo "
34620 Meta Text "Ro"
34650 Meta Text "bot "
34740 Meta Text "U"
34770 Meta Text "fo "
34800 Meta Text "Ro"
34830 Meta Text "bot "
34830 Meta TrkEnd
TrkEnd
MTrk
0 Meta 0x21 00
0 Meta TrkName "synthbass"
0 Par ch=1 c=0 v=0
0 Par ch=1 c=32 v=0
0 PrCh ch=1 p=95
0 Par ch=1 c=7 v=100
0 Par ch=1 c=10 v=44
240 Par ch=1 c=93 v=64
480 On ch=1 n=43 v=122
960 On ch=1 n=55 v=127
2400 On ch=1 n=55 v=0
2400 On ch=1 n=43 v=0
2400 On ch=1 n=48 v=127
2880 On ch=1 n=48 v=0
2880 On ch=1 n=43 v=119
3360 On ch=1 n=43 v=0
3360 On ch=1 n=41 v=113
3840 On ch=1 n=41 v=0
3840 On ch=1 n=43 v=110
4320 On ch=1 n=43 v=0
4320 On ch=1 n=48 v=119
4800 On ch=1 n=48 v=0
4800 On ch=1 n=43 v=116
5280 On ch=1 n=43 v=0
5280 On ch=1 n=41 v=110
5760 On ch=1 n=41 v=0
5760 On ch=1 n=43 v=119
6240 On ch=1 n=43 v=0
6240 On ch=1 n=48 v=127
6720 On ch=1 n=48 v=0
6720 On ch=1 n=43 v=119
7200 On ch=1 n=43 v=0
7200 On ch=1 n=41 v=113
7680 On ch=1 n=41 v=0
7680 On ch=1 n=43 v=110
8160 On ch=1 n=43 v=0
8160 On ch=1 n=48 v=119
8640 On ch=1 n=48 v=0
8640 On ch=1 n=43 v=116
9120 On ch=1 n=43 v=0
9120 On ch=1 n=41 v=110
9600 On ch=1 n=41 v=0
9600 On ch=1 n=43 v=119
10080 On ch=1 n=43 v=0
10080 On ch=1 n=52 v=127
10560 On ch=1 n=52 v=0
10560 On ch=1 n=50 v=127
11040 On ch=1 n=50 v=0
11040 On ch=1 n=52 v=122
11520 On ch=1 n=52 v=0
11520 On ch=1 n=50 v=127
12360 On ch=1 n=50 v=0
12360 On ch=1 n=43 v=127
12960 On ch=1 n=43 v=0
12960 On ch=1 n=48 v=127
13440 On ch=1 n=48 v=0
13440 On ch=1 n=43 v=119
13920 On ch=1 n=43 v=0
13920 On ch=1 n=41 v=113
14400 On ch=1 n=41 v=0
14400 On ch=1 n=43 v=110
14880 On ch=1 n=43 v=0
14880 On ch=1 n=48 v=119
15360 On ch=1 n=48 v=0
15360 On ch=1 n=43 v=116
15840 On ch=1 n=43 v=0
15840 On ch=1 n=41 v=110
16320 On ch=1 n=41 v=0
16320 On ch=1 n=43 v=119
16800 On ch=1 n=43 v=0
16800 On ch=1 n=36 v=127
17040 On ch=1 n=36 v=0
17040 On ch=1 n=41 v=127
17280 On ch=1 n=41 v=0
17280 On ch=1 n=43 v=116
17460 On ch=1 n=43 v=0
17460 On ch=1 n=41 v=127
17580 On ch=1 n=41 v=0
17580 On ch=1 n=43 v=119
17760 On ch=1 n=43 v=0
17760 On ch=1 n=36 v=122
18000 On ch=1 n=36 v=0
18000 On ch=1 n=41 v=122
18240 On ch=1 n=41 v=0
18240 On ch=1 n=43 v=110
18420 On ch=1 n=43 v=0
18420 On ch=1 n=41 v=127
18540 On ch=1 n=41 v=0
18540 On ch=1 n=43 v=122
19680 On ch=1 n=43 v=0
19680 On ch=1 n=48 v=127
20160 On ch=1 n=48 v=0
20160 On ch=1 n=43 v=119
20640 On ch=1 n=43 v=0
20640 On ch=1 n=41 v=113
21120 On ch=1 n=41 v=0
21120 On ch=1 n=43 v=110
21600 On ch=1 n=43 v=0
21600 On ch=1 n=48 v=119
22080 On ch=1 n=48 v=0
22080 On ch=1 n=43 v=116
22560 On ch=1 n=43 v=0
22560 On ch=1 n=41 v=110
23040 On ch=1 n=41 v=0
23040 On ch=1 n=43 v=119
23520 On ch=1 n=43 v=0
23520 On ch=1 n=52 v=127
24000 On ch=1 n=52 v=0
24000 On ch=1 n=50 v=127
24480 On ch=1 n=50 v=0
24480 On ch=1 n=52 v=122
24960 On ch=1 n=52 v=0
24960 On ch=1 n=50 v=127
25800 On ch=1 n=50 v=0
25800 On ch=1 n=43 v=127
26400 On ch=1 n=43 v=0
26400 On ch=1 n=48 v=127
26880 On ch=1 n=48 v=0
26880 On ch=1 n=43 v=119
27360 On ch=1 n=43 v=0
27360 On ch=1 n=41 v=113
27840 On ch=1 n=41 v=0
27840 On ch=1 n=43 v=110
28320 On ch=1 n=43 v=0
28320 On ch=1 n=48 v=119
28800 On ch=1 n=48 v=0
28800 On ch=1 n=43 v=116
29280 On ch=1 n=43 v=0
29280 On ch=1 n=41 v=110
29760 On ch=1 n=41 v=0
29760 On ch=1 n=43 v=119
30240 On ch=1 n=43 v=0
30240 On ch=1 n=48 v=127
30720 On ch=1 n=48 v=0
30720 On ch=1 n=43 v=119
31200 On ch=1 n=43 v=0
31200 On ch=1 n=41 v=113
31680 On ch=1 n=41 v=0
31680 On ch=1 n=43 v=110
32160 On ch=1 n=43 v=0
32160 On ch=1 n=48 v=119
32640 On ch=1 n=48 v=0
32640 On ch=1 n=43 v=116
33120 On ch=1 n=43 v=0
33120 On ch=1 n=41 v=110
33600 On ch=1 n=41 v=0
33600 On ch=1 n=43 v=119
35040 On ch=1 n=43 v=0
35040 On ch=1 n=36 v=127
35520 On ch=1 n=36 v=0
35520 On ch=1 n=43 v=122
36000 On ch=1 n=43 v=0
36000 On ch=1 n=36 v=127
36480 On ch=1 n=36 v=0
36480 On ch=1 n=43 v=127
36960 On ch=1 n=43 v=0
36960 On ch=1 n=36 v=127
37440 On ch=1 n=36 v=0
37440 On ch=1 n=43 v=127
37920 On ch=1 n=43 v=0
37920 On ch=1 n=36 v=127
38400 On ch=1 n=36 v=0
38400 On ch=1 n=43 v=127
38880 On ch=1 n=43 v=0
38880 On ch=1 n=36 v=127
39360 On ch=1 n=36 v=0
39360 On ch=1 n=43 v=104
39840 On ch=1 n=43 v=0
39840 On ch=1 n=36 v=91
40320 On ch=1 n=36 v=0
40320 On ch=1 n=43 v=73
40800 On ch=1 n=43 v=0
40800 On ch=1 n=36 v=54
41280 On ch=1 n=36 v=0
41280 On ch=1 n=43 v=36
41760 On ch=1 n=43 v=0
41760 On ch=1 n=36 v=19
42240 On ch=1 n=36 v=0
42240 On ch=1 n=43 v=0
42720 On ch=1 n=43 v=0
42720 Meta TrkEnd
TrkEnd
MTrk
0 Meta 0x21 00
0 Meta TrkName "strings"
0 Par ch=2 c=0 v=0
0 Par ch=2 c=32 v=0
0 PrCh ch=2 p=51
0 Par ch=2 c=7 v=100
0 Par ch=2 c=10 v=64
240 Par ch=2 c=93 v=96
480 On ch=2 n=43 v=102
480 On ch=2 n=55 v=110
960 On ch=2 n=62 v=102
960 On ch=2 n=67 v=110
2255 Par ch=2 c=64 v=127
2280 On ch=2 n=55 v=0
2280 On ch=2 n=43 v=0
2400 On ch=2 n=62 v=0
2400 On ch=2 n=48 v=80
2400 On ch=2 n=60 v=78
2409 Par ch=2 c=64 v=0
2730 Par ch=2 c=64 v=127
2760 On ch=2 n=60 v=0
2760 On ch=2 n=48 v=0
2875 Par ch=2 c=64 v=0
2880 On ch=2 n=67 v=0
2880 On ch=2 n=62 v=78
2880 On ch=2 n=43 v=66
2880 On ch=2 n=55 v=72
3240 On ch=2 n=55 v=0
3252 Par ch=2 c=64 v=127
3346 Par ch=2 c=64 v=0
3360 On ch=2 n=43 v=0
3360 On ch=2 n=62 v=0
3360 On ch=2 n=53 v=64
3360 On ch=2 n=60 v=102
3360 On ch=2 n=41 v=80
3705 Par ch=2 c=64 v=127
3720 On ch=2 n=41 v=0
3720 On ch=2 n=53 v=0
3820 Par ch=2 c=64 v=0
3840 On ch=2 n=60 v=0
3840 On ch=2 n=59 v=95
3840 On ch=2 n=43 v=51
3840 On ch=2 n=55 v=64
4107 Par ch=2 c=64 v=127
4200 On ch=2 n=55 v=0
4200 On ch=2 n=43 v=0
4200 On ch=2 n=59 v=0
4305 Par ch=2 c=64 v=0
4320 On ch=2 n=60 v=82
4320 On ch=2 n=48 v=87
4320 On ch=2 n=67 v=89
4643 Par ch=2 c=64 v=127
4680 On ch=2 n=48 v=0
4680 On ch=2 n=60 v=0
4800 On ch=2 n=67 v=0
4800 On ch=2 n=43 v=63
4800 On ch=2 n=55 v=70
4800 On ch=2 n=62 v=89
4804 Par ch=2 c=64 v=0
5153 Par ch=2 c=64 v=127
5160 On ch=2 n=55 v=0
5160 On ch=2 n=43 v=0
5272 Par ch=2 c=64 v=0
5280 On ch=2 n=62 v=0
5280 On ch=2 n=41 v=72
5280 On ch=2 n=60 v=82
5280 On ch=2 n=53 v=57
5621 Par ch=2 c=64 v=127
5640 On ch=2 n=53 v=0
5640 On ch=2 n=41 v=0
5739 Par ch=2 c=64 v=0
5760 On ch=2 n=60 v=0
5760 On ch=2 n=59 v=89
5760 On ch=2 n=43 v=61
5760 On ch=2 n=55 v=55
6240 On ch=2 n=55 v=0
6240 On ch=2 n=43 v=0
6240 On ch=2 n=59 v=0
6240 On ch=2 n=48 v=80
6240 On ch=2 n=60 v=78
6249 Par ch=2 c=64 v=0
6570 Par ch=2 c=64 v=127
6600 On ch=2 n=60 v=0
6600 On ch=2 n=48 v=0
6715 Par ch=2 c=64 v=0
6720 On ch=2 n=62 v=78
6720 On ch=2 n=43 v=66
6720 On ch=2 n=55 v=72
7080 On ch=2 n=55 v=0
7092 Par ch=2 c=64 v=127
7186 Par ch=2 c=64 v=0
7200 On ch=2 n=43 v=0
7200 On ch=2 n=62 v=0
7200 On ch=2 n=53 v=64
7200 On ch=2 n=60 v=102
7200 On ch=2 n=41 v=80
7545 Par ch=2 c=64 v=127
7560 On ch=2 n=41 v=0
7560 On ch=2 n=53 v=0
7660 Par ch=2 c=64 v=0
7680 On ch=2 n=60 v=0
7680 On ch=2 n=59 v=95
7680 On ch=2 n=43 v=51
7680 On ch=2 n=55 v=64
7947 Par ch=2 c=64 v=127
8040 On ch=2 n=55 v=0
8040 On ch=2 n=43 v=0
8040 On ch=2 n=59 v=0
8145 Par ch=2 c=64 v=0
8160 On ch=2 n=60 v=82
8160 On ch=2 n=48 v=87
8160 On ch=2 n=67 v=89
8483 Par ch=2 c=64 v=127
8520 On ch=2 n=48 v=0
8520 On ch=2 n=60 v=0
8640 On ch=2 n=67 v=0
8640 On ch=2 n=43 v=63
8640 On ch=2 n=55 v=70
8640 On ch=2 n=62 v=89
8644 Par ch=2 c=64 v=0
8993 Par ch=2 c=64 v=127
9000 On ch=2 n=55 v=0
9000 On ch=2 n=43 v=0
9112 Par ch=2 c=64 v=0
9120 On ch=2 n=62 v=0
9120 On ch=2 n=41 v=72
9120 On ch=2 n=60 v=82
9120 On ch=2 n=53 v=57
9461 Par ch=2 c=64 v=127
9480 On ch=2 n=53 v=0
9480 On ch=2 n=41 v=0
9579 Par ch=2 c=64 v=0
9600 On ch=2 n=60 v=0
9600 On ch=2 n=59 v=89
9600 On ch=2 n=43 v=61
9600 On ch=2 n=55 v=55
10080 On ch=2 n=55 v=0
10080 On ch=2 n=43 v=0
10080 On ch=2 n=59 v=0
10080 On ch=2 n=59 v=100
10080 On ch=2 n=55 v=100
10080 On ch=2 n=62 v=89
10530 On ch=2 n=55 v=0
10530 On ch=2 n=59 v=0
10560 On ch=2 n=62 v=0
10560 On ch=2 n=53 v=102
10560 On ch=2 n=60 v=100
10560 On ch=2 n=57 v=100
11010 On ch=2 n=60 v=0
11010 On ch=2 n=53 v=0
11040 On ch=2 n=57 v=0
11040 On ch=2 n=59 v=95
11040 On ch=2 n=55 v=105
11040 On ch=2 n=62 v=102
11970 On ch=2 n=62 v=0
11970 On ch=2 n=59 v=0
12000 On ch=2 n=55 v=0
12000 On ch=2 n=55 v=98
12000 On ch=2 n=59 v=98
12000 On ch=2 n=52 v=98
12150 On ch=2 n=52 v=0
12150 On ch=2 n=59 v=0
12150 On ch=2 n=55 v=0
12180 On ch=2 n=57 v=105
12180 On ch=2 n=53 v=100
12180 On ch=2 n=60 v=102
12270 On ch=2 n=60 v=0
12270 On ch=2 n=53 v=0
12270 On ch=2 n=57 v=0
12300 On ch=2 n=52 v=100
12300 On ch=2 n=55 v=98
12300 On ch=2 n=59 v=102
12330 On ch=2 n=59 v=0
12330 On ch=2 n=55 v=0
12330 On ch=2 n=52 v=0
12360 On ch=2 n=59 v=102
12360 On ch=2 n=55 v=107
12360 On ch=2 n=62 v=102
12960 On ch=2 n=62 v=0
12960 On ch=2 n=55 v=0
12960 On ch=2 n=59 v=0
12960 On ch=2 n=48 v=80
12960 On ch=2 n=60 v=78
12969 Par ch=2 c=64 v=0
13290 Par ch=2 c=64 v=127
13320 On ch=2 n=60 v=0
13320 On ch=2 n=48 v=0
13435 Par ch=2 c=64 v=0
13440 On ch=2 n=62 v=78
13440 On ch=2 n=43 v=66
13440 On ch=2 n=55 v=72
13800 On ch=2 n=55 v=0
13812 Par ch=2 c=64 v=127
13906 Par ch=2 c=64 v=0
13920 On ch=2 n=43 v=0
13920 On ch=2 n=62 v=0
13920 On ch=2 n=53 v=64
13920 On ch=2 n=60 v=102
13920 On ch=2 n=41 v=80
14265 Par ch=2 c=64 v=127
14280 On ch=2 n=41 v=0
14280 On ch=2 n=53 v=0
14380 Par ch=2 c=64 v=0
14400 On ch=2 n=60 v=0
14400 On ch=2 n=59 v=95
14400 On ch=2 n=43 v=51
14400 On ch=2 n=55 v=64
14667 Par ch=2 c=64 v=127
14760 On ch=2 n=55 v=0
14760 On ch=2 n=43 v=0
14760 On ch=2 n=59 v=0
14865 Par ch=2 c=64 v=0
14880 On ch=2 n=60 v=82
14880 On ch=2 n=48 v=87
14880 On ch=2 n=67 v=89
15203 Par ch=2 c=64 v=127
15240 On ch=2 n=48 v=0
15240 On ch=2 n=60 v=0
15360 On ch=2 n=67 v=0
15360 On ch=2 n=43 v=63
15360 On ch=2 n=55 v=70
15360 On ch=2 n=62 v=89
15364 Par ch=2 c=64 v=0
15713 Par ch=2 c=64 v=127
15720 On ch=2 n=55 v=0
15720 On ch=2 n=43 v=0
15832 Par ch=2 c=64 v=0
15840 On ch=2 n=62 v=0
15840 On ch=2 n=41 v=72
15840 On ch=2 n=60 v=82
15840 On ch=2 n=53 v=57
16181 Par ch=2 c=64 v=127
16200 On ch=2 n=53 v=0
16200 On ch=2 n=41 v=0
16299 Par ch=2 c=64 v=0
16320 On ch=2 n=60 v=0
16320 On ch=2 n=59 v=89
16320 On ch=2 n=43 v=61
16320 On ch=2 n=55 v=55
16800 On ch=2 n=55 v=0
16800 On ch=2 n=43 v=0
16800 On ch=2 n=59 v=0
16800 On ch=2 n=55 v=110
16800 On ch=2 n=64 v=107
16800 On ch=2 n=60 v=119
16920 On ch=2 n=60 v=0
16920 On ch=2 n=64 v=0
16920 On ch=2 n=55 v=0
17040 On ch=2 n=60 v=102
17040 On ch=2 n=57 v=102
17040 On ch=2 n=65 v=107
17160 On ch=2 n=65 v=0
17160 On ch=2 n=57 v=0
17160 On ch=2 n=60 v=0
17280 On ch=2 n=62 v=107
17280 On ch=2 n=59 v=107
17280 On ch=2 n=67 v=110
17400 On ch=2 n=67 v=0
17400 On ch=2 n=59 v=0
17400 On ch=2 n=62 v=0
17460 On ch=2 n=60 v=105
17460 On ch=2 n=65 v=105
17460 On ch=2 n=57 v=107
17580 On ch=2 n=57 v=0
17580 On ch=2 n=65 v=0
17580 On ch=2 n=60 v=0
17580 On ch=2 n=62 v=102
17580 On ch=2 n=59 v=105
17580 On ch=2 n=67 v=107
17700 On ch=2 n=67 v=0
17700 On ch=2 n=59 v=0
17700 On ch=2 n=62 v=0
17760 On ch=2 n=60 v=102
17760 On ch=2 n=55 v=107
17760 On ch=2 n=64 v=105
17880 On ch=2 n=64 v=0
17880 On ch=2 n=55 v=0
17880 On ch=2 n=60 v=0
18000 On ch=2 n=57 v=100
18000 On ch=2 n=65 v=110
18002 On ch=2 n=60 v=110
18120 On ch=2 n=65 v=0
18120 On ch=2 n=57 v=0
18122 On ch=2 n=60 v=0
18240 On ch=2 n=62 v=102
18240 On ch=2 n=59 v=102
18240 On ch=2 n=67 v=105
18360 On ch=2 n=67 v=0
18360 On ch=2 n=59 v=0
18360 On ch=2 n=62 v=0
18420 On ch=2 n=60 v=98
18420 On ch=2 n=65 v=100
18420 On ch=2 n=57 v=105
18540 On ch=2 n=57 v=0
18540 On ch=2 n=65 v=0
18540 On ch=2 n=60 v=0
18540 On ch=2 n=59 v=107
18540 On ch=2 n=67 v=107
18540 On ch=2 n=62 v=107
18660 On ch=2 n=62 v=0
18660 On ch=2 n=67 v=0
18660 On ch=2 n=59 v=0
18720 On ch=2 n=67 v=105
18720 On ch=2 n=55 v=110
18720 On ch=2 n=43 v=93
18720 On ch=2 n=62 v=107
19680 On ch=2 n=62 v=0
19680 On ch=2 n=67 v=0
19680 On ch=2 n=55 v=0
19680 On ch=2 n=43 v=0
19680 On ch=2 n=60 v=78
19680 On ch=2 n=48 v=80
19689 Par ch=2 c=64 v=0
20010 Par ch=2 c=64 v=127
20040 On ch=2 n=48 v=0
20040 On ch=2 n=60 v=0
20155 Par ch=2 c=64 v=0
20160 On ch=2 n=43 v=66
20160 On ch=2 n=55 v=72
20160 On ch=2 n=62 v=78
20520 On ch=2 n=55 v=0
20532 Par ch=2 c=64 v=127
20626 Par ch=2 c=64 v=0
20640 On ch=2 n=62 v=0
20640 On ch=2 n=43 v=0
20640 On ch=2 n=60 v=102
20640 On ch=2 n=41 v=80
20640 On ch=2 n=53 v=64
20985 Par ch=2 c=64 v=127
21000 On ch=2 n=53 v=0
21000 On ch=2 n=41 v=0
21100 Par ch=2 c=64 v=0
21120 On ch=2 n=60 v=0
21120 On ch=2 n=43 v=51
21120 On ch=2 n=55 v=64
21120 On ch=2 n=59 v=95
21387 Par ch=2 c=64 v=127
21480 On ch=2 n=59 v=0
21480 On ch=2 n=55 v=0
21480 On ch=2 n=43 v=0
21585 Par ch=2 c=64 v=0
21600 On ch=2 n=48 v=87
21600 On ch=2 n=60 v=82
21600 On ch=2 n=67 v=89
21923 Par ch=2 c=64 v=127
21960 On ch=2 n=60 v=0
21960 On ch=2 n=48 v=0
22080 On ch=2 n=67 v=0
22080 On ch=2 n=55 v=70
22080 On ch=2 n=62 v=89
22080 On ch=2 n=43 v=63
22084 Par ch=2 c=64 v=0
22433 Par ch=2 c=64 v=127
22440 On ch=2 n=43 v=0
22440 On ch=2 n=55 v=0
22552 Par ch=2 c=64 v=0
22560 On ch=2 n=62 v=0
22560 On ch=2 n=60 v=82
22560 On ch=2 n=53 v=57
22560 On ch=2 n=41 v=72
22901 Par ch=2 c=64 v=127
22920 On ch=2 n=41 v=0
22920 On ch=2 n=53 v=0
23019 Par ch=2 c=64 v=0
23040 On ch=2 n=60 v=0
23040 On ch=2 n=43 v=61
23040 On ch=2 n=55 v=55
23040 On ch=2 n=59 v=89
23520 On ch=2 n=59 v=0
23520 On ch=2 n=55 v=0
23520 On ch=2 n=43 v=0
23520 On ch=2 n=55 v=100
23520 On ch=2 n=59 v=100
23520 On ch=2 n=62 v=89
23970 On ch=2 n=59 v=0
23970 On ch=2 n=55 v=0
24000 On ch=2 n=62 v=0
24000 On ch=2 n=60 v=100
24000 On ch=2 n=57 v=100
24000 On ch=2 n=53 v=102
24450 On ch=2 n=53 v=0
24450 On ch=2 n=60 v=0
24480 On ch=2 n=57 v=0
24480 On ch=2 n=59 v=95
24480 On ch=2 n=62 v=102
24480 On ch=2 n=55 v=105
25410 On ch=2 n=62 v=0
25410 On ch=2 n=59 v=0
25440 On ch=2 n=55 v=0
25440 On ch=2 n=59 v=98
25440 On ch=2 n=52 v=98
25440 On ch=2 n=55 v=98
25590 On ch=2 n=55 v=0
25590 On ch=2 n=52 v=0
25590 On ch=2 n=59 v=0
25620 On ch=2 n=53 v=100
25620 On ch=2 n=57 v=105
25620 On ch=2 n=60 v=102
25710 On ch=2 n=60 v=0
25710 On ch=2 n=57 v=0
25710 On ch=2 n=53 v=0
25740 On ch=2 n=55 v=98
25740 On ch=2 n=59 v=102
25740 On ch=2 n=52 v=100
25770 On ch=2 n=52 v=0
25770 On ch=2 n=59 v=0
25770 On ch=2 n=55 v=0
25800 On ch=2 n=55 v=107
25800 On ch=2 n=59 v=102
25800 On ch=2 n=62 v=102
26400 On ch=2 n=62 v=0
26400 On ch=2 n=59 v=0
26400 On ch=2 n=55 v=0
26400 On ch=2 n=60 v=78
26400 On ch=2 n=48 v=80
26409 Par ch=2 c=64 v=0
26730 Par ch=2 c=64 v=127
26760 On ch=2 n=48 v=0
26760 On ch=2 n=60 v=0
26875 Par ch=2 c=64 v=0
26880 On ch=2 n=43 v=66
26880 On ch=2 n=55 v=72
26880 On ch=2 n=62 v=78
27240 On ch=2 n=55 v=0
27252 Par ch=2 c=64 v=127
27346 Par ch=2 c=64 v=0
27360 On ch=2 n=62 v=0
27360 On ch=2 n=43 v=0
27360 On ch=2 n=53 v=64
27360 On ch=2 n=41 v=80
27360 On ch=2 n=60 v=102
27705 Par ch=2 c=64 v=127
27720 On ch=2 n=41 v=0
27720 On ch=2 n=53 v=0
27820 Par ch=2 c=64 v=0
27840 On ch=2 n=60 v=0
27840 On ch=2 n=59 v=95
27840 On ch=2 n=55 v=64
27840 On ch=2 n=43 v=51
28107 Par ch=2 c=64 v=127
28200 On ch=2 n=43 v=0
28200 On ch=2 n=55 v=0
28200 On ch=2 n=59 v=0
28305 Par ch=2 c=64 v=0
28320 On ch=2 n=48 v=87
28320 On ch=2 n=60 v=82
28320 On ch=2 n=67 v=89
28643 Par ch=2 c=64 v=127
28680 On ch=2 n=60 v=0
28680 On ch=2 n=48 v=0
28800 On ch=2 n=67 v=0
28800 On ch=2 n=43 v=63
28800 On ch=2 n=62 v=89
28800 On ch=2 n=55 v=70
28804 Par ch=2 c=64 v=0
29153 Par ch=2 c=64 v=127
29160 On ch=2 n=55 v=0
29160 On ch=2 n=43 v=0
29272 Par ch=2 c=64 v=0
29280 On ch=2 n=62 v=0
29280 On ch=2 n=60 v=82
29280 On ch=2 n=41 v=72
29280 On ch=2 n=53 v=57
29621 Par ch=2 c=64 v=127
29640 On ch=2 n=53 v=0
29640 On ch=2 n=41 v=0
29739 Par ch=2 c=64 v=0
29760 On ch=2 n=60 v=0
29760 On ch=2 n=43 v=61
29760 On ch=2 n=59 v=89
29760 On ch=2 n=55 v=55
30240 On ch=2 n=55 v=0
30240 On ch=2 n=59 v=0
30240 On ch=2 n=43 v=0
30240 On ch=2 n=48 v=80
30240 On ch=2 n=60 v=78
30249 Par ch=2 c=64 v=0
30570 Par ch=2 c=64 v=127
30600 On ch=2 n=60 v=0
30600 On ch=2 n=48 v=0
30715 Par ch=2 c=64 v=0
30720 On ch=2 n=43 v=66
30720 On ch=2 n=62 v=78
30720 On ch=2 n=55 v=72
31080 On ch=2 n=55 v=0
31092 Par ch=2 c=64 v=127
31186 Par ch=2 c=64 v=0
31200 On ch=2 n=62 v=0
31200 On ch=2 n=43 v=0
31200 On ch=2 n=60 v=102
31200 On ch=2 n=53 v=64
31200 On ch=2 n=41 v=80
31545 Par ch=2 c=64 v=127
31560 On ch=2 n=41 v=0
31560 On ch=2 n=53 v=0
31660 Par ch=2 c=64 v=0
31680 On ch=2 n=60 v=0
31680 On ch=2 n=43 v=51
31680 On ch=2 n=55 v=64
31680 On ch=2 n=59 v=95
31947 Par ch=2 c=64 v=127
32040 On ch=2 n=59 v=0
32040 On ch=2 n=55 v=0
32040 On ch=2 n=43 v=0
32145 Par ch=2 c=64 v=0
32160 On ch=2 n=48 v=87
32160 On ch=2 n=67 v=89
32160 On ch=2 n=60 v=82
32483 Par ch=2 c=64 v=127
32520 On ch=2 n=60 v=0
32520 On ch=2 n=48 v=0
32640 On ch=2 n=67 v=0
32640 On ch=2 n=43 v=63
32640 On ch=2 n=62 v=89
32640 On ch=2 n=55 v=70
32644 Par ch=2 c=64 v=0
32993 Par ch=2 c=64 v=127
33000 On ch=2 n=55 v=0
33000 On ch=2 n=43 v=0
33112 Par ch=2 c=64 v=0
33120 On ch=2 n=62 v=0
33120 On ch=2 n=41 v=72
33120 On ch=2 n=53 v=57
33120 On ch=2 n=60 v=82
33461 Par ch=2 c=64 v=127
33480 On ch=2 n=53 v=0
33480 On ch=2 n=41 v=0
33579 Par ch=2 c=64 v=0
33600 On ch=2 n=60 v=0
33600 On ch=2 n=59 v=89
33600 On ch=2 n=55 v=55
33600 On ch=2 n=43 v=61
34080 On ch=2 n=43 v=0
34080 On ch=2 n=55 v=0
34080 On ch=2 n=59 v=0
34080 On ch=2 n=55 v=110
34080 On ch=2 n=43 v=93
34080 On ch=2 n=67 v=105
35040 On ch=2 n=67 v=0
35040 On ch=2 n=43 v=0
35040 On ch=2 n=55 v=0
35040 On ch=2 n=67 v=100
35040 On ch=2 n=71 v=100
35040 On ch=2 n=60 v=107
35040 On ch=2 n=64 v=105
35520 On ch=2 n=64 v=0
35520 On ch=2 n=67 v=0
35520 On ch=2 n=71 v=0
35520 On ch=2 n=60 v=0
35520 On ch=2 n=67 v=100
35520 On ch=2 n=62 v=105
35520 On ch=2 n=71 v=100
35520 On ch=2 n=55 v=89
36000 On ch=2 n=55 v=0
36000 On ch=2 n=67 v=0
36000 On ch=2 n=62 v=0
36000 On ch=2 n=71 v=0
36000 On ch=2 n=71 v=100
36000 On ch=2 n=60 v=107
36000 On ch=2 n=64 v=105
36000 On ch=2 n=67 v=100
36480 On ch=2 n=67 v=0
36480 On ch=2 n=71 v=0
36480 On ch=2 n=60 v=0
36480 On ch=2 n=64 v=0
36480 On ch=2 n=71 v=100
36480 On ch=2 n=55 v=98
36480 On ch=2 n=62 v=105
36480 On ch=2 n=67 v=100
36960 On ch=2 n=67 v=0
36960 On ch=2 n=71 v=0
36960 On ch=2 n=55 v=0
36960 On ch=2 n=62 v=0
36960 On ch=2 n=67 v=100
36960 On ch=2 n=71 v=100
36960 On ch=2 n=64 v=100
36960 On ch=2 n=60 v=98
37440 On ch=2 n=60 v=0
37440 On ch=2 n=67 v=0
37440 On ch=2 n=71 v=0
37440 On ch=2 n=64 v=0
37440 On ch=2 n=67 v=100
37440 On ch=2 n=55 v=91
37440 On ch=2 n=62 v=102
37440 On ch=2 n=71 v=100
37920 On ch=2 n=71 v=0
37920 On ch=2 n=67 v=0
37920 On ch=2 n=55 v=0
37920 On ch=2 n=62 v=0
37920 On ch=2 n=71 v=100
37920 On ch=2 n=60 v=107
37920 On ch=2 n=64 v=105
37920 On ch=2 n=67 v=100
38400 On ch=2 n=67 v=0
38400 On ch=2 n=71 v=0
38400 On ch=2 n=60 v=0
38400 On ch=2 n=64 v=0
38400 On ch=2 n=67 v=100
38400 On ch=2 n=71 v=100
38400 On ch=2 n=62 v=105
38400 On ch=2 n=55 v=89
38880 On ch=2 n=55 v=0
38880 On ch=2 n=67 v=0
38880 On ch=2 n=71 v=0
38880 On ch=2 n=62 v=0
38880 On ch=2 n=67 v=100
38880 On ch=2 n=71 v=100
38880 On ch=2 n=60 v=107
38880 On ch=2 n=64 v=105
39360 On ch=2 n=64 v=0
39360 On ch=2 n=67 v=0
39360 On ch=2 n=71 v=0
39360 On ch=2 n=60 v=0
39360 On ch=2 n=67 v=86
39360 On ch=2 n=62 v=90
39360 On ch=2 n=55 v=76
39360 On ch=2 n=71 v=86
39840 On ch=2 n=71 v=0
39840 On ch=2 n=67 v=0
39840 On ch=2 n=62 v=0
39840 On ch=2 n=55 v=0
39840 On ch=2 n=71 v=72
39840 On ch=2 n=60 v=77
39840 On ch=2 n=64 v=75
39840 On ch=2 n=67 v=72
40320 On ch=2 n=67 v=0
40320 On ch=2 n=71 v=0
40320 On ch=2 n=60 v=0
40320 On ch=2 n=64 v=0
40320 On ch=2 n=67 v=58
40320 On ch=2 n=71 v=58
40320 On ch=2 n=62 v=60
40320 On ch=2 n=55 v=56
40800 On ch=2 n=55 v=0
40800 On ch=2 n=67 v=0
40800 On ch=2 n=71 v=0
40800 On ch=2 n=62 v=0
40800 On ch=2 n=67 v=43
40800 On ch=2 n=60 v=42
40800 On ch=2 n=64 v=43
40800 On ch=2 n=71 v=43
41280 On ch=2 n=71 v=0
41280 On ch=2 n=67 v=0
41280 On ch=2 n=60 v=0
41280 On ch=2 n=64 v=0
41280 On ch=2 n=71 v=29
41280 On ch=2 n=55 v=26
41280 On ch=2 n=62 v=29
41280 On ch=2 n=67 v=29
41760 On ch=2 n=67 v=0
41760 On ch=2 n=71 v=0
41760 On ch=2 n=55 v=0
41760 On ch=2 n=62 v=0
41760 On ch=2 n=71 v=15
41760 On ch=2 n=60 v=16
41760 On ch=2 n=67 v=15
41760 On ch=2 n=64 v=15
42240 On ch=2 n=64 v=0
42240 On ch=2 n=71 v=0
42240 On ch=2 n=60 v=0
42240 On ch=2 n=67 v=0
42240 On ch=2 n=67 v=0
42240 On ch=2 n=71 v=0
42240 On ch=2 n=62 v=0
42240 On ch=2 n=55 v=0
42720 On ch=2 n=55 v=0
42720 On ch=2 n=67 v=0
42720 On ch=2 n=71 v=0
42720 On ch=2 n=62 v=0
42720 Meta TrkEnd
TrkEnd
MTrk
0 Meta 0x21 00
0 Meta TrkName "brass 1"
0 Par ch=3 c=0 v=0
0 Par ch=3 c=32 v=0
0 PrCh ch=3 p=61
0 Par ch=3 c=7 v=100
0 Par ch=3 c=10 v=84
480 On ch=3 n=55 v=127
960 On ch=3 n=67 v=127
1440 On ch=3 n=62 v=127
2400 On ch=3 n=62 v=0
2400 On ch=3 n=67 v=0
2400 On ch=3 n=55 v=0
16920 On ch=3 n=64 v=113
16920 On ch=3 n=55 v=119
16920 On ch=3 n=60 v=119
16950 On ch=3 n=60 v=0
16950 On ch=3 n=55 v=0
16950 On ch=3 n=64 v=0
17160 On ch=3 n=57 v=110
17160 On ch=3 n=65 v=107
17160 On ch=3 n=60 v=127
17160 On ch=3 n=64 v=64
17190 On ch=3 n=64 v=0
17190 On ch=3 n=60 v=0
17190 On ch=3 n=65 v=0
17220 On ch=3 n=57 v=0
17400 On ch=3 n=67 v=102
17400 On ch=3 n=59 v=113
17400 On ch=3 n=62 v=119
17400 On ch=3 n=65 v=70
17430 On ch=3 n=65 v=0
17430 On ch=3 n=67 v=0
17460 On ch=3 n=62 v=0
17460 On ch=3 n=59 v=0
17580 On ch=3 n=57 v=113
17580 On ch=3 n=60 v=116
17580 On ch=3 n=65 v=98
17610 On ch=3 n=65 v=0
17610 On ch=3 n=60 v=0
17610 On ch=3 n=57 v=0
17700 On ch=3 n=67 v=107
17700 On ch=3 n=59 v=119
17700 On ch=3 n=62 v=122
17700 On ch=3 n=65 v=76
17730 On ch=3 n=65 v=0
17730 On ch=3 n=67 v=0
17730 On ch=3 n=59 v=0
17730 On ch=3 n=62 v=0
17880 On ch=3 n=64 v=110
17880 On ch=3 n=55 v=110
17880 On ch=3 n=60 v=113
17910 On ch=3 n=60 v=0
17910 On ch=3 n=55 v=0
17910 On ch=3 n=64 v=0
18120 On ch=3 n=65 v=107
18120 On ch=3 n=60 v=119
18120 On ch=3 n=57 v=113
18150 On ch=3 n=57 v=0
18150 On ch=3 n=60 v=0
18150 On ch=3 n=65 v=0
18360 On ch=3 n=67 v=105
18360 On ch=3 n=59 v=119
18360 On ch=3 n=62 v=122
18390 On ch=3 n=62 v=0
18390 On ch=3 n=59 v=0
18390 On ch=3 n=67 v=0
18540 On ch=3 n=65 v=107
18540 On ch=3 n=57 v=107
18540 On ch=3 n=60 v=116
18570 On ch=3 n=60 v=0
18570 On ch=3 n=57 v=0
18570 On ch=3 n=65 v=0
18660 On ch=3 n=67 v=110
18660 On ch=3 n=59 v=116
18660 On ch=3 n=62 v=119
18690 On ch=3 n=62 v=0
18690 On ch=3 n=59 v=0
18690 On ch=3 n=67 v=0
18690 Meta TrkEnd
TrkEnd
MTrk
0 Meta 0x21 00
0 Meta TrkName "bass"
0 Par ch=4 c=0 v=0
0 Par ch=4 c=32 v=0
0 PrCh ch=4 p=33
0 Par ch=4 c=7 v=127
0 Par ch=4 c=10 v=64
480 On ch=4 n=31 v=122
1470 On ch=4 n=31 v=0
1500 On ch=4 n=31 v=89
1560 On ch=4 n=31 v=0
1620 On ch=4 n=31 v=95
1680 On ch=4 n=31 v=0
1980 On ch=4 n=31 v=95
2040 On ch=4 n=31 v=0
2100 On ch=4 n=31 v=93
2160 On ch=4 n=31 v=0
2400 On ch=4 n=36 v=105
2490 On ch=4 n=36 v=0
2550 On ch=4 n=36 v=102
2580 On ch=4 n=36 v=0
2580 On ch=4 n=36 v=107
2730 On ch=4 n=36 v=0
2820 On ch=4 n=29 v=110
2850 On ch=4 n=29 v=0
2850 On ch=4 n=30 v=89
2880 On ch=4 n=30 v=0
2880 On ch=4 n=31 v=110
3030 On ch=4 n=31 v=0
3030 On ch=4 n=31 v=105
3060 On ch=4 n=31 v=0
3060 On ch=4 n=31 v=105
3240 On ch=4 n=31 v=0
3360 On ch=4 n=29 v=107
3510 On ch=4 n=29 v=0
3510 On ch=4 n=29 v=105
3540 On ch=4 n=29 v=0
3540 On ch=4 n=29 v=107
3780 On ch=4 n=29 v=0
3840 On ch=4 n=31 v=107
3960 On ch=4 n=31 v=0
4020 On ch=4 n=31 v=119
4050 On ch=4 n=31 v=0
4050 On ch=4 n=31 v=105
4260 On ch=4 n=31 v=0
4320 On ch=4 n=36 v=102
4440 On ch=4 n=36 v=0
4500 On ch=4 n=36 v=102
4530 On ch=4 n=36 v=0
4530 On ch=4 n=36 v=105
4680 On ch=4 n=36 v=0
4740 On ch=4 n=29 v=113
4770 On ch=4 n=29 v=0
4770 On ch=4 n=30 v=87
4800 On ch=4 n=30 v=0
4800 On ch=4 n=31 v=107
4920 On ch=4 n=31 v=0
4980 On ch=4 n=31 v=110
5010 On ch=4 n=31 v=0
5010 On ch=4 n=31 v=107
5220 On ch=4 n=31 v=0
5280 On ch=4 n=29 v=116
5430 On ch=4 n=29 v=0
5460 On ch=4 n=29 v=105
5490 On ch=4 n=29 v=0
5490 On ch=4 n=29 v=107
5640 On ch=4 n=29 v=0
5760 On ch=4 n=31 v=105
5910 On ch=4 n=31 v=0
5940 On ch=4 n=31 v=116
5970 On ch=4 n=31 v=0
5970 On ch=4 n=31 v=113
6150 On ch=4 n=31 v=0
6240 On ch=4 n=36 v=105
6330 On ch=4 n=36 v=0
6390 On ch=4 n=36 v=102
6420 On ch=4 n=36 v=0
6420 On ch=4 n=36 v=107
6570 On ch=4 n=36 v=0
6660 On ch=4 n=29 v=110
6690 On ch=4 n=29 v=0
6690 On ch=4 n=30 v=89
6720 On ch=4 n=30 v=0
6720 On ch=4 n=31 v=110
6870 On ch=4 n=31 v=0
6870 On ch=4 n=31 v=105
6900 On ch=4 n=31 v=0
6900 On ch=4 n=31 v=105
7080 On ch=4 n=31 v=0
7200 On ch=4 n=29 v=107
7350 On ch=4 n=29 v=0
7350 On ch=4 n=29 v=105
7380 On ch=4 n=29 v=0
7380 On ch=4 n=29 v=107
7620 On ch=4 n=29 v=0
7680 On ch=4 n=31 v=107
7800 On ch=4 n=31 v=0
7860 On ch=4 n=31 v=119
7890 On ch=4 n=31 v=0
7890 On ch=4 n=31 v=105
8100 On ch=4 n=31 v=0
8160 On ch=4 n=36 v=102
8280 On ch=4 n=36 v=0
8340 On ch=4 n=36 v=102
8370 On ch=4 n=36 v=0
8370 On ch=4 n=36 v=105
8520 On ch=4 n=36 v=0
8580 On ch=4 n=29 v=113
8610 On ch=4 n=29 v=0
8610 On ch=4 n=30 v=87
8640 On ch=4 n=30 v=0
8640 On ch=4 n=31 v=107
8760 On ch=4 n=31 v=0
8820 On ch=4 n=31 v=110
8850 On ch=4 n=31 v=0
8850 On ch=4 n=31 v=107
9060 On ch=4 n=31 v=0
9120 On ch=4 n=29 v=116
9270 On ch=4 n=29 v=0
9300 On ch=4 n=29 v=105
9330 On ch=4 n=29 v=0
9330 On ch=4 n=29 v=107
9480 On ch=4 n=29 v=0
9600 On ch=4 n=31 v=105
9750 On ch=4 n=31 v=0
9780 On ch=4 n=31 v=116
9810 On ch=4 n=31 v=0
9810 On ch=4 n=31 v=113
9990 On ch=4 n=31 v=0
10080 On ch=4 n=43 v=107
10093 Pb ch=4 v=10012
10096 Pb ch=4 v=11749
10099 Pb ch=4 v=13073
10102 Pb ch=4 v=14231
10106 Pb ch=4 v=15141
10109 Pb ch=4 v=16134
10112 Pb ch=4 v=16383
10258 Pb ch=4 v=14562
10261 Pb ch=4 v=8192
10440 On ch=4 n=43 v=0
10440 On ch=4 n=40 v=119
10560 On ch=4 n=40 v=0
10620 On ch=4 n=36 v=113
10710 On ch=4 n=36 v=0
10740 On ch=4 n=31 v=107
10770 On ch=4 n=31 v=0
10800 On ch=4 n=31 v=107
10830 On ch=4 n=31 v=0
10830 On ch=4 n=31 v=119
10860 On ch=4 n=31 v=0
10890 On ch=4 n=31 v=102
10920 On ch=4 n=31 v=0
10920 On ch=4 n=31 v=127
11010 On ch=4 n=31 v=0
11040 On ch=4 n=43 v=119
11053 Pb ch=4 v=12494
11056 Pb ch=4 v=15141
11059 Pb ch=4 v=16383
11227 Pb ch=4 v=16299
11230 Pb ch=4 v=9184
11233 Pb ch=4 v=8192
11400 On ch=4 n=43 v=0
11400 On ch=4 n=40 v=110
11550 On ch=4 n=40 v=0
11580 On ch=4 n=36 v=116
11670 On ch=4 n=36 v=0
11700 On ch=4 n=31 v=102
11730 On ch=4 n=31 v=0
11760 On ch=4 n=31 v=107
11790 On ch=4 n=31 v=0
11790 On ch=4 n=31 v=122
11820 On ch=4 n=31 v=0
11850 On ch=4 n=31 v=116
11880 On ch=4 n=31 v=0
11880 On ch=4 n=31 v=116
11970 On ch=4 n=31 v=0
12000 On ch=4 n=40 v=119
12150 On ch=4 n=40 v=0
12180 On ch=4 n=41 v=113
12240 On ch=4 n=41 v=0
12300 On ch=4 n=40 v=105
12330 On ch=4 n=40 v=0
12360 On ch=4 n=31 v=127
12960 On ch=4 n=31 v=0
12960 On ch=4 n=36 v=105
13050 On ch=4 n=36 v=0
13110 On ch=4 n=36 v=102
13140 On ch=4 n=36 v=0
13140 On ch=4 n=36 v=107
13290 On ch=4 n=36 v=0
13380 On ch=4 n=29 v=110
13410 On ch=4 n=29 v=0
13410 On ch=4 n=30 v=89
13440 On ch=4 n=30 v=0
13440 On ch=4 n=31 v=110
13590 On ch=4 n=31 v=0
13590 On ch=4 n=31 v=105
13620 On ch=4 n=31 v=0
13620 On ch=4 n=31 v=105
13800 On ch=4 n=31 v=0
13920 On ch=4 n=29 v=107
14070 On ch=4 n=29 v=0
14070 On ch=4 n=29 v=105
14100 On ch=4 n=29 v=0
14100 On ch=4 n=29 v=107
14340 On ch=4 n=29 v=0
14400 On ch=4 n=31 v=107
14520 On ch=4 n=31 v=0
14580 On ch=4 n=31 v=119
14610 On ch=4 n=31 v=0
14610 On ch=4 n=31 v=105
14820 On ch=4 n=31 v=0
14880 On ch=4 n=36 v=102
15000 On ch=4 n=36 v=0
15060 On ch=4 n=36 v=102
15090 On ch=4 n=36 v=0
15090 On ch=4 n=36 v=105
15240 On ch=4 n=36 v=0
15300 On ch=4 n=29 v=113
15330 On ch=4 n=29 v=0
15330 On ch=4 n=30 v=87
15360 On ch=4 n=30 v=0
15360 On ch=4 n=31 v=107
15480 On ch=4 n=31 v=0
15540 On ch=4 n=31 v=110
15570 On ch=4 n=31 v=0
15570 On ch=4 n=31 v=107
15780 On ch=4 n=31 v=0
15840 On ch=4 n=29 v=116
15990 On ch=4 n=29 v=0
16020 On ch=4 n=29 v=105
16050 On ch=4 n=29 v=0
16050 On ch=4 n=29 v=107
16200 On ch=4 n=29 v=0
16320 On ch=4 n=31 v=105
16470 On ch=4 n=31 v=0
16500 On ch=4 n=31 v=116
16530 On ch=4 n=31 v=0
16530 On ch=4 n=31 v=113
16710 On ch=4 n=31 v=0
16800 On ch=4 n=36 v=122
16890 On ch=4 n=36 v=0
16980 On ch=4 n=36 v=98
17040 On ch=4 n=36 v=0
17040 On ch=4 n=29 v=122
17130 On ch=4 n=29 v=0
17220 On ch=4 n=29 v=110
17280 On ch=4 n=29 v=0
17280 On ch=4 n=31 v=110
17370 On ch=4 n=31 v=0
17460 On ch=4 n=29 v=119
17520 On ch=4 n=29 v=0
17580 On ch=4 n=31 v=122
17670 On ch=4 n=31 v=0
17760 On ch=4 n=36 v=116
17850 On ch=4 n=36 v=0
17940 On ch=4 n=36 v=107
17970 On ch=4 n=36 v=0
18000 On ch=4 n=29 v=122
18090 On ch=4 n=29 v=0
18180 On ch=4 n=29 v=102
18210 On ch=4 n=29 v=0
18240 On ch=4 n=31 v=113
18330 On ch=4 n=31 v=0
18420 On ch=4 n=29 v=116
18480 On ch=4 n=29 v=0
18540 On ch=4 n=31 v=110
18630 On ch=4 n=31 v=0
18720 On ch=4 n=31 v=127
19230 On ch=4 n=31 v=0
19260 On ch=4 n=31 v=107
19320 On ch=4 n=31 v=0
19380 On ch=4 n=31 v=113
19440 On ch=4 n=31 v=0
19500 On ch=4 n=31 v=110
19560 On ch=4 n=31 v=0
19620 On ch=4 n=31 v=113
19650 On ch=4 n=31 v=0
19680 On ch=4 n=36 v=105
19770 On ch=4 n=36 v=0
19830 On ch=4 n=36 v=102
19860 On ch=4 n=36 v=0
19860 On ch=4 n=36 v=107
20010 On ch=4 n=36 v=0
20100 On ch=4 n=29 v=110
20130 On ch=4 n=29 v=0
20130 On ch=4 n=30 v=89
20160 On ch=4 n=30 v=0
20160 On ch=4 n=31 v=110
20310 On ch=4 n=31 v=0
20310 On ch=4 n=31 v=105
20340 On ch=4 n=31 v=0
20340 On ch=4 n=31 v=105
20520 On ch=4 n=31 v=0
20640 On ch=4 n=29 v=107
20790 On ch=4 n=29 v=0
20790 On ch=4 n=29 v=105
20820 On ch=4 n=29 v=0
20820 On ch=4 n=29 v=107
21060 On ch=4 n=29 v=0
21120 On ch=4 n=31 v=107
21240 On ch=4 n=31 v=0
21300 On ch=4 n=31 v=119
21330 On ch=4 n=31 v=0
21330 On ch=4 n=31 v=105
21540 On ch=4 n=31 v=0
21600 On ch=4 n=36 v=102
21720 On ch=4 n=36 v=0
21780 On ch=4 n=36 v=102
21810 On ch=4 n=36 v=0
21810 On ch=4 n=36 v=105
21960 On ch=4 n=36 v=0
22020 On ch=4 n=29 v=113
22050 On ch=4 n=29 v=0
22050 On ch=4 n=30 v=87
22080 On ch=4 n=30 v=0
22080 On ch=4 n=31 v=107
22200 On ch=4 n=31 v=0
22260 On ch=4 n=31 v=110
22290 On ch=4 n=31 v=0
22290 On ch=4 n=31 v=107
22500 On ch=4 n=31 v=0
22560 On ch=4 n=29 v=116
22710 On ch=4 n=29 v=0
22740 On ch=4 n=29 v=105
22770 On ch=4 n=29 v=0
22770 On ch=4 n=29 v=107
22920 On ch=4 n=29 v=0
23040 On ch=4 n=31 v=105
23190 On ch=4 n=31 v=0
23220 On ch=4 n=31 v=116
23250 On ch=4 n=31 v=0
23250 On ch=4 n=31 v=113
23430 On ch=4 n=31 v=0
23520 On ch=4 n=43 v=107
23533 Pb ch=4 v=10012
23536 Pb ch=4 v=11749
23539 Pb ch=4 v=13073
23542 Pb ch=4 v=14231
23546 Pb ch=4 v=15141
23549 Pb ch=4 v=16134
23552 Pb ch=4 v=16383
23698 Pb ch=4 v=14562
23701 Pb ch=4 v=8192
23880 On ch=4 n=43 v=0
23880 On ch=4 n=40 v=119
24000 On ch=4 n=40 v=0
24060 On ch=4 n=36 v=113
24150 On ch=4 n=36 v=0
24180 On ch=4 n=31 v=107
24210 On ch=4 n=31 v=0
24240 On ch=4 n=31 v=107
24270 On ch=4 n=31 v=0
24270 On ch=4 n=31 v=119
24300 On ch=4 n=31 v=0
24330 On ch=4 n=31 v=102
24360 On ch=4 n=31 v=0
24360 On ch=4 n=31 v=127
24450 On ch=4 n=31 v=0
24480 On ch=4 n=43 v=119
24493 Pb ch=4 v=12494
24496 Pb ch=4 v=15141
24499 Pb ch=4 v=16383
24667 Pb ch=4 v=16299
24670 Pb ch=4 v=9184
24673 Pb ch=4 v=8192
24840 On ch=4 n=43 v=0
24840 On ch=4 n=40 v=110
24990 On ch=4 n=40 v=0
25020 On ch=4 n=36 v=116
25110 On ch=4 n=36 v=0
25140 On ch=4 n=31 v=102
25170 On ch=4 n=31 v=0
25200 On ch=4 n=31 v=107
25230 On ch=4 n=31 v=0
25230 On ch=4 n=31 v=122
25260 On ch=4 n=31 v=0
25290 On ch=4 n=31 v=116
25320 On ch=4 n=31 v=0
25320 On ch=4 n=31 v=116
25410 On ch=4 n=31 v=0
25440 On ch=4 n=40 v=119
25590 On ch=4 n=40 v=0
25620 On ch=4 n=41 v=113
25680 On ch=4 n=41 v=0
25740 On ch=4 n=40 v=105
25770 On ch=4 n=40 v=0
25800 On ch=4 n=31 v=127
26400 On ch=4 n=31 v=0
26400 On ch=4 n=36 v=105
26490 On ch=4 n=36 v=0
26550 On ch=4 n=36 v=102
26580 On ch=4 n=36 v=0
26580 On ch=4 n=36 v=107
26730 On ch=4 n=36 v=0
26820 On ch=4 n=29 v=110
26850 On ch=4 n=29 v=0
26850 On ch=4 n=30 v=89
26880 On ch=4 n=30 v=0
26880 On ch=4 n=31 v=110
27030 On ch=4 n=31 v=0
27030 On ch=4 n=31 v=105
27060 On ch=4 n=31 v=0
27060 On ch=4 n=31 v=105
27240 On ch=4 n=31 v=0
27360 On ch=4 n=29 v=107
27510 On ch=4 n=29 v=0
27510 On ch=4 n=29 v=105
27540 On ch=4 n=29 v=0
27540 On ch=4 n=29 v=107
27780 On ch=4 n=29 v=0
27840 On ch=4 n=31 v=107
27960 On ch=4 n=31 v=0
28020 On ch=4 n=31 v=119
28050 On ch=4 n=31 v=0
28050 On ch=4 n=31 v=105
28260 On ch=4 n=31 v=0
28320 On ch=4 n=36 v=102
28440 On ch=4 n=36 v=0
28500 On ch=4 n=36 v=102
28530 On ch=4 n=36 v=0
28530 On ch=4 n=36 v=105
28680 On ch=4 n=36 v=0
28740 On ch=4 n=29 v=113
28770 On ch=4 n=29 v=0
28770 On ch=4 n=30 v=87
28800 On ch=4 n=30 v=0
28800 On ch=4 n=31 v=107
28920 On ch=4 n=31 v=0
28980 On ch=4 n=31 v=110
29010 On ch=4 n=31 v=0
29010 On ch=4 n=31 v=107
29220 On ch=4 n=31 v=0
29280 On ch=4 n=29 v=116
29430 On ch=4 n=29 v=0
29460 On ch=4 n=29 v=105
29490 On ch=4 n=29 v=0
29490 On ch=4 n=29 v=107
29640 On ch=4 n=29 v=0
29760 On ch=4 n=31 v=105
29910 On ch=4 n=31 v=0
29940 On ch=4 n=31 v=116
29970 On ch=4 n=31 v=0
29970 On ch=4 n=31 v=113
30150 On ch=4 n=31 v=0
30240 On ch=4 n=36 v=105
30330 On ch=4 n=36 v=0
30390 On ch=4 n=36 v=102
30420 On ch=4 n=36 v=0
30420 On ch=4 n=36 v=107
30570 On ch=4 n=36 v=0
30660 On ch=4 n=29 v=110
30690 On ch=4 n=29 v=0
30690 On ch=4 n=30 v=89
30720 On ch=4 n=30 v=0
30720 On ch=4 n=31 v=110
30870 On ch=4 n=31 v=0
30870 On ch=4 n=31 v=105
30900 On ch=4 n=31 v=0
30900 On ch=4 n=31 v=105
31080 On ch=4 n=31 v=0
31200 On ch=4 n=29 v=107
31350 On ch=4 n=29 v=0
31350 On ch=4 n=29 v=105
31380 On ch=4 n=29 v=0
31380 On ch=4 n=29 v=107
31620 On ch=4 n=29 v=0
31680 On ch=4 n=31 v=107
31800 On ch=4 n=31 v=0
31860 On ch=4 n=31 v=119
31890 On ch=4 n=31 v=0
31890 On ch=4 n=31 v=105
32100 On ch=4 n=31 v=0
32160 On ch=4 n=36 v=102
32280 On ch=4 n=36 v=0
32340 On ch=4 n=36 v=102
32370 On ch=4 n=36 v=0
32370 On ch=4 n=36 v=105
32520 On ch=4 n=36 v=0
32580 On ch=4 n=29 v=113
32610 On ch=4 n=29 v=0
32610 On ch=4 n=30 v=87
32640 On ch=4 n=30 v=0
32640 On ch=4 n=31 v=107
32760 On ch=4 n=31 v=0
32820 On ch=4 n=31 v=110
32850 On ch=4 n=31 v=0
32850 On ch=4 n=31 v=107
33060 On ch=4 n=31 v=0
33120 On ch=4 n=29 v=116
33270 On ch=4 n=29 v=0
33300 On ch=4 n=29 v=105
33330 On ch=4 n=29 v=0
33330 On ch=4 n=29 v=107
33480 On ch=4 n=29 v=0
33600 On ch=4 n=31 v=105
33750 On ch=4 n=31 v=0
33780 On ch=4 n=31 v=116
33810 On ch=4 n=31 v=0
33810 On ch=4 n=31 v=113
33990 On ch=4 n=31 v=0
34080 On ch=4 n=31 v=127
34590 On ch=4 n=31 v=0
34620 On ch=4 n=31 v=107
34680 On ch=4 n=31 v=0
34740 On ch=4 n=31 v=113
34800 On ch=4 n=31 v=0
34860 On ch=4 n=31 v=110
34920 On ch=4 n=31 v=0
34980 On ch=4 n=31 v=113
35010 On ch=4 n=31 v=0
35040 On ch=4 n=36 v=102
35160 On ch=4 n=36 v=0
35190 On ch=4 n=36 v=105
35220 On ch=4 n=36 v=0
35220 On ch=4 n=36 v=116
35400 On ch=4 n=36 v=0
35460 On ch=4 n=36 v=85
35490 On ch=4 n=36 v=0
35520 On ch=4 n=31 v=119
35640 On ch=4 n=31 v=0
35670 On ch=4 n=31 v=91
35700 On ch=4 n=31 v=0
35700 On ch=4 n=31 v=110
35850 On ch=4 n=31 v=0
35880 On ch=4 n=38 v=110
35910 On ch=4 n=38 v=0
35940 On ch=4 n=31 v=70
35970 On ch=4 n=31 v=0
36000 On ch=4 n=36 v=107
36120 On ch=4 n=36 v=0
36150 On ch=4 n=36 v=105
36180 On ch=4 n=36 v=0
36180 On ch=4 n=36 v=85
36270 On ch=4 n=36 v=0
36300 On ch=4 n=43 v=105
36305 Pb ch=4 v=8936
36310 Pb ch=4 v=10260
36313 Pb ch=4 v=11584
36316 Pb ch=4 v=12907
36320 Pb ch=4 v=14728
36323 Pb ch=4 v=16383
36404 Pb ch=4 v=10839
36408 Pb ch=4 v=8192
36600 On ch=4 n=43 v=0
36660 On ch=4 n=31 v=102
36690 On ch=4 n=31 v=0
36720 On ch=4 n=31 v=98
36750 On ch=4 n=31 v=0
36750 On ch=4 n=31 v=100
36780 On ch=4 n=31 v=0
36810 On ch=4 n=31 v=107
36870 On ch=4 n=31 v=0
36900 On ch=4 n=38 v=102
36930 On ch=4 n=38 v=0
36960 On ch=4 n=36 v=113
37080 On ch=4 n=36 v=0
37140 On ch=4 n=36 v=87
37170 On ch=4 n=36 v=0
37170 On ch=4 n=36 v=105
37320 On ch=4 n=36 v=0
37380 On ch=4 n=29 v=98
37410 On ch=4 n=29 v=0
37410 On ch=4 n=30 v=102
37440 On ch=4 n=30 v=0
37440 On ch=4 n=31 v=113
37590 On ch=4 n=31 v=0
37620 On ch=4 n=31 v=100
37740 On ch=4 n=31 v=0
37740 On ch=4 n=38 v=127
37770 On ch=4 n=38 v=0
37860 On ch=4 n=31 v=82
37890 On ch=4 n=31 v=0
37920 On ch=4 n=36 v=105
38070 On ch=4 n=36 v=0
38100 On ch=4 n=36 v=105
38220 On ch=4 n=36 v=0
38220 On ch=4 n=43 v=107
38238 Pb ch=4 v=9929
38242 Pb ch=4 v=12328
38245 Pb ch=4 v=14479
38248 Pb ch=4 v=16299
38252 Pb ch=4 v=16383
38319 Pb ch=4 v=9515
38323 Pb ch=4 v=8192
38520 On ch=4 n=43 v=0
38580 On ch=4 n=31 v=105
38610 On ch=4 n=31 v=0
38640 On ch=4 n=31 v=100
38670 On ch=4 n=31 v=0
38670 On ch=4 n=31 v=105
38700 On ch=4 n=31 v=0
38730 On ch=4 n=31 v=113
38790 On ch=4 n=31 v=0
38820 On ch=4 n=31 v=95
38850 On ch=4 n=31 v=0
38850 On ch=4 n=35 v=105
38880 On ch=4 n=35 v=0
38880 On ch=4 n=36 v=127
39000 On ch=4 n=36 v=0
39030 On ch=4 n=36 v=127
39060 On ch=4 n=36 v=0
39060 On ch=4 n=36 v=127
39240 On ch=4 n=36 v=0
39300 On ch=4 n=36 v=96
39330 On ch=4 n=36 v=0
39360 On ch=4 n=31 v=127
39480 On ch=4 n=31 v=0
39510 On ch=4 n=31 v=96
39540 On ch=4 n=31 v=0
39540 On ch=4 n=31 v=115
39690 On ch=4 n=31 v=0
39720 On ch=4 n=38 v=108
39750 On ch=4 n=38 v=0
39780 On ch=4 n=31 v=67
39810 On ch=4 n=31 v=0
39840 On ch=4 n=36 v=101
39960 On ch=4 n=36 v=0
39990 On ch=4 n=36 v=94
40020 On ch=4 n=36 v=0
40020 On ch=4 n=36 v=75
40110 On ch=4 n=36 v=0
40140 On ch=4 n=43 v=88
40145 Pb ch=4 v=8936
40150 Pb ch=4 v=10260
40153 Pb ch=4 v=11584
40156 Pb ch=4 v=12907
40160 Pb ch=4 v=14728
40163 Pb ch=4 v=16383
40244 Pb ch=4 v=10839
40248 Pb ch=4 v=8192
40440 On ch=4 n=43 v=0
40500 On ch=4 n=31 v=73
40530 On ch=4 n=31 v=0
40560 On ch=4 n=31 v=68
40590 On ch=4 n=31 v=0
40590 On ch=4 n=31 v=69
40620 On ch=4 n=31 v=0
40650 On ch=4 n=31 v=71
40710 On ch=4 n=31 v=0
40740 On ch=4 n=38 v=65
40770 On ch=4 n=38 v=0
40800 On ch=4 n=36 v=70
40920 On ch=4 n=36 v=0
40980 On ch=4 n=36 v=48
41010 On ch=4 n=36 v=0
41010 On ch=4 n=36 v=57
41160 On ch=4 n=36 v=0
41220 On ch=4 n=29 v=47
41250 On ch=4 n=29 v=0
41250 On ch=4 n=30 v=47
41280 On ch=4 n=30 v=0
41280 On ch=4 n=31 v=51
41430 On ch=4 n=31 v=0
41460 On ch=4 n=31 v=39
41580 On ch=4 n=31 v=0
41580 On ch=4 n=38 v=44
41610 On ch=4 n=38 v=0
41700 On ch=4 n=31 v=25
41730 On ch=4 n=31 v=0
41760 On ch=4 n=36 v=30
41910 On ch=4 n=36 v=0
41940 On ch=4 n=36 v=24
42060 On ch=4 n=36 v=0
42060 On ch=4 n=43 v=20
42078 Pb ch=4 v=9929
42082 Pb ch=4 v=12328
42085 Pb ch=4 v=14479
42088 Pb ch=4 v=16299
42092 Pb ch=4 v=16383
42159 Pb ch=4 v=9515
42163 Pb ch=4 v=8192
42360 On ch=4 n=43 v=0
42420 On ch=4 n=31 v=0
42450 On ch=4 n=31 v=0
42480 On ch=4 n=31 v=0
42510 On ch=4 n=31 v=0
42510 On ch=4 n=31 v=0
42540 On ch=4 n=31 v=0
42570 On ch=4 n=31 v=0
42630 On ch=4 n=31 v=0
42660 On ch=4 n=31 v=0
42690 On ch=4 n=31 v=0
42690 On ch=4 n=35 v=0
42720 On ch=4 n=35 v=0
42720 Meta TrkEnd
TrkEnd
MTrk
0 Meta 0x21 00
0 Meta TrkName "brass 2"
0 Par ch=5 c=0 v=0
0 Par ch=5 c=32 v=0
0 PrCh ch=5 p=57
0 Par ch=5 c=7 v=100
0 Par ch=5 c=10 v=64
2400 On ch=5 n=55 v=127
2400 On ch=5 n=48 v=127
2401 Par ch=5 c=7 v=64
2410 Par ch=5 c=7 v=65
2418 Par ch=5 c=7 v=66
2425 Par ch=5 c=7 v=67
2433 Par ch=5 c=7 v=68
2440 Par ch=5 c=7 v=69
2448 Par ch=5 c=7 v=70
2455 Par ch=5 c=7 v=71
2463 Par ch=5 c=7 v=72
2470 Par ch=5 c=7 v=73
2478 Par ch=5 c=7 v=74
2486 Par ch=5 c=7 v=75
2493 Par ch=5 c=7 v=76
2501 Par ch=5 c=7 v=77
2508 Par ch=5 c=7 v=78
2516 Par ch=5 c=7 v=79
2523 Par ch=5 c=7 v=80
2531 Par ch=5 c=7 v=81
2538 Par ch=5 c=7 v=82
2546 Par ch=5 c=7 v=83
2550 On ch=5 n=48 v=0
2550 On ch=5 n=55 v=0
2555 Par ch=5 c=7 v=84
2561 Par ch=5 c=7 v=85
2570 Par ch=5 c=7 v=86
2576 Par ch=5 c=7 v=87
2580 On ch=5 n=48 v=127
2580 On ch=5 n=55 v=120
2585 Par ch=5 c=7 v=88
2591 Par ch=5 c=7 v=89
2600 Par ch=5 c=7 v=90
2606 Par ch=5 c=7 v=91
2610 On ch=5 n=55 v=0
2610 On ch=5 n=48 v=0
2610 On ch=5 n=55 v=123
2610 On ch=5 n=48 v=127
2615 Par ch=5 c=7 v=92
2623 Par ch=5 c=7 v=93
2630 Par ch=5 c=7 v=94
2638 Par ch=5 c=7 v=95
2645 Par ch=5 c=7 v=96
2653 Par ch=5 c=7 v=97
2660 Par ch=5 c=7 v=98
2668 Par ch=5 c=7 v=99
2675 Par ch=5 c=7 v=100
2683 Par ch=5 c=7 v=101
2691 Par ch=5 c=7 v=102
2698 Par ch=5 c=7 v=103
2706 Par ch=5 c=7 v=104
2713 Par ch=5 c=7 v=105
2721 Par ch=5 c=7 v=106
2728 Par ch=5 c=7 v=107
2736 Par ch=5 c=7 v=108
2743 Par ch=5 c=7 v=109
2751 Par ch=5 c=7 v=110
2760 Par ch=5 c=7 v=111
2766 Par ch=5 c=7 v=112
2775 Par ch=5 c=7 v=113
2781 Par ch=5 c=7 v=114
2790 Par ch=5 c=7 v=115
2796 Par ch=5 c=7 v=116
2805 Par ch=5 c=7 v=117
2811 Par ch=5 c=7 v=118
2820 On ch=5 n=48 v=0
2820 On ch=5 n=55 v=0
2820 Par ch=5 c=7 v=119
2828 Par ch=5 c=7 v=120
2835 Par ch=5 c=7 v=121
2843 Par ch=5 c=7 v=122
2850 Par ch=5 c=7 v=123
2858 Par ch=5 c=7 v=124
2865 Par ch=5 c=7 v=125
2873 Par ch=5 c=7 v=126
2880 Par ch=5 c=7 v=127
2880 On ch=5 n=50 v=127
2880 On ch=5 n=43 v=127
2881 Par ch=5 c=7 v=64
2890 Par ch=5 c=7 v=65
2898 Par ch=5 c=7 v=66
2905 Par ch=5 c=7 v=67
2913 Par ch=5 c=7 v=68
2920 Par ch=5 c=7 v=69
2928 Par ch=5 c=7 v=70
2935 Par ch=5 c=7 v=71
2943 Par ch=5 c=7 v=72
2950 Par ch=5 c=7 v=73
2958 Par ch=5 c=7 v=74
2965 Par ch=5 c=7 v=75
2973 Par ch=5 c=7 v=76
2981 Par ch=5 c=7 v=77
2988 Par ch=5 c=7 v=78
2996 Par ch=5 c=7 v=79
3003 Par ch=5 c=7 v=80
3011 Par ch=5 c=7 v=81
3018 Par ch=5 c=7 v=82
3026 Par ch=5 c=7 v=83
3030 On ch=5 n=43 v=0
3030 On ch=5 n=50 v=0
3033 Par ch=5 c=7 v=84
3041 Par ch=5 c=7 v=85
3048 Par ch=5 c=7 v=86
3056 Par ch=5 c=7 v=87
3060 On ch=5 n=50 v=127
3060 On ch=5 n=43 v=127
3063 Par ch=5 c=7 v=88
3071 Par ch=5 c=7 v=89
3080 Par ch=5 c=7 v=90
3086 Par ch=5 c=7 v=91
3090 On ch=5 n=43 v=0
3090 On ch=5 n=50 v=0
3090 On ch=5 n=50 v=127
3090 On ch=5 n=43 v=127
3095 Par ch=5 c=7 v=92
3101 Par ch=5 c=7 v=93
3110 Par ch=5 c=7 v=94
3116 Par ch=5 c=7 v=95
3125 Par ch=5 c=7 v=96
3131 Par ch=5 c=7 v=97
3140 Par ch=5 c=7 v=98
3146 Par ch=5 c=7 v=99
3155 Par ch=5 c=7 v=100
3161 Par ch=5 c=7 v=101
3170 Par ch=5 c=7 v=102
3178 Par ch=5 c=7 v=103
3185 Par ch=5 c=7 v=104
3193 Par ch=5 c=7 v=105
3200 Par ch=5 c=7 v=106
3208 Par ch=5 c=7 v=107
3215 Par ch=5 c=7 v=108
3223 Par ch=5 c=7 v=109
3230 Par ch=5 c=7 v=110
3238 Par ch=5 c=7 v=111
3245 Par ch=5 c=7 v=112
3253 Par ch=5 c=7 v=113
3260 Par ch=5 c=7 v=114
3268 Par ch=5 c=7 v=115
3276 Par ch=5 c=7 v=116
3283 Par ch=5 c=7 v=117
3291 Par ch=5 c=7 v=118
3298 Par ch=5 c=7 v=119
3306 Par ch=5 c=7 v=120
3313 Par ch=5 c=7 v=121
3321 Par ch=5 c=7 v=122
3328 Par ch=5 c=7 v=123
3330 On ch=5 n=43 v=0
3330 On ch=5 n=50 v=0
3336 Par ch=5 c=7 v=124
3343 Par ch=5 c=7 v=125
3351 Par ch=5 c=7 v=126
3358 Par ch=5 c=7 v=127
3360 Par ch=5 c=7 v=64
3360 On ch=5 n=41 v=127
3360 On ch=5 n=48 v=127
3368 Par ch=5 c=7 v=65
3376 Par ch=5 c=7 v=66
3384 Par ch=5 c=7 v=67
3392 Par ch=5 c=7 v=68
3400 Par ch=5 c=7 v=69
3406 Par ch=5 c=7 v=70
3414 Par ch=5 c=7 v=71
3422 Par ch=5 c=7 v=72
3430 Par ch=5 c=7 v=73
3438 Par ch=5 c=7 v=74
3444 Par ch=5 c=7 v=75
3452 Par ch=5 c=7 v=76
3460 Par ch=5 c=7 v=77
3468 Par ch=5 c=7 v=78
3476 Par ch=5 c=7 v=79
3482 Par ch=5 c=7 v=80
3490 Par ch=5 c=7 v=81
3498 Par ch=5 c=7 v=82
3506 Par ch=5 c=7 v=83
3510 On ch=5 n=48 v=0
3510 On ch=5 n=41 v=0
3514 Par ch=5 c=7 v=84
3520 Par ch=5 c=7 v=85
3528 Par ch=5 c=7 v=86
3536 Par ch=5 c=7 v=87
3540 On ch=5 n=41 v=127
3540 On ch=5 n=48 v=127
3544 Par ch=5 c=7 v=88
3552 Par ch=5 c=7 v=89
3560 Par ch=5 c=7 v=90
3566 Par ch=5 c=7 v=91
3570 On ch=5 n=48 v=0
3570 On ch=5 n=41 v=0
3570 On ch=5 n=48 v=127
3570 On ch=5 n=41 v=127
3574 Par ch=5 c=7 v=92
3582 Par ch=5 c=7 v=93
3590 Par ch=5 c=7 v=94
3598 Par ch=5 c=7 v=95
3604 Par ch=5 c=7 v=96
3612 Par ch=5 c=7 v=97
3620 Par ch=5 c=7 v=98
3628 Par ch=5 c=7 v=99
3636 Par ch=5 c=7 v=100
3642 Par ch=5 c=7 v=101
3650 Par ch=5 c=7 v=102
3658 Par ch=5 c=7 v=103
3666 Par ch=5 c=7 v=104
3674 Par ch=5 c=7 v=105
3680 Par ch=5 c=7 v=106
3688 Par ch=5 c=7 v=107
3696 Par ch=5 c=7 v=108
3704 Par ch=5 c=7 v=109
3712 Par ch=5 c=7 v=110
3720 Par ch=5 c=7 v=111
3726 Par ch=5 c=7 v=112
3734 Par ch=5 c=7 v=113
3742 Par ch=5 c=7 v=114
3750 Par ch=5 c=7 v=115
3758 Par ch=5 c=7 v=116
3764 Par ch=5 c=7 v=117
3772 Par ch=5 c=7 v=118
3780 Par ch=5 c=7 v=119
3788 Par ch=5 c=7 v=120
3796 Par ch=5 c=7 v=121
3802 Par ch=5 c=7 v=122
3810 On ch=5 n=41 v=0
3810 On ch=5 n=48 v=0
3810 Par ch=5 c=7 v=123
3818 Par ch=5 c=7 v=124
3826 Par ch=5 c=7 v=125
3834 Par ch=5 c=7 v=126
3840 Par ch=5 c=7 v=64
3840 On ch=5 n=43 v=127
3840 On ch=5 n=50 v=127
3848 Par ch=5 c=7 v=65
3856 Par ch=5 c=7 v=66
3864 Par ch=5 c=7 v=67
3872 Par ch=5 c=7 v=68
3880 Par ch=5 c=7 v=69
3886 Par ch=5 c=7 v=70
3894 Par ch=5 c=7 v=71
3902 Par ch=5 c=7 v=72
3910 Par ch=5 c=7 v=73
3918 Par ch=5 c=7 v=74
3924 Par ch=5 c=7 v=75
3932 Par ch=5 c=7 v=76
3940 Par ch=5 c=7 v=77
3948 Par ch=5 c=7 v=78
3956 Par ch=5 c=7 v=79
3962 Par ch=5 c=7 v=80
3970 Par ch=5 c=7 v=81
3978 Par ch=5 c=7 v=82
3986 Par ch=5 c=7 v=83
3990 On ch=5 n=50 v=0
3990 On ch=5 n=43 v=0
3994 Par ch=5 c=7 v=84
4000 Par ch=5 c=7 v=85
4008 Par ch=5 c=7 v=86
4016 Par ch=5 c=7 v=87
4020 On ch=5 n=50 v=127
4020 On ch=5 n=43 v=127
4024 Par ch=5 c=7 v=88
4032 Par ch=5 c=7 v=89
4040 Par ch=5 c=7 v=90
4046 Par ch=5 c=7 v=91
4050 On ch=5 n=43 v=0
4050 On ch=5 n=50 v=0
4050 On ch=5 n=50 v=127
4050 On ch=5 n=43 v=127
4054 Par ch=5 c=7 v=92
4062 Par ch=5 c=7 v=93
4070 Par ch=5 c=7 v=94
4078 Par ch=5 c=7 v=95
4084 Par ch=5 c=7 v=96
4092 Par ch=5 c=7 v=97
4100 Par ch=5 c=7 v=98
4108 Par ch=5 c=7 v=99
4116 Par ch=5 c=7 v=100
4122 Par ch=5 c=7 v=101
4130 Par ch=5 c=7 v=102
4138 Par ch=5 c=7 v=103
4146 Par ch=5 c=7 v=104
4154 Par ch=5 c=7 v=105
4160 Par ch=5 c=7 v=106
4168 Par ch=5 c=7 v=107
4176 Par ch=5 c=7 v=108
4184 Par ch=5 c=7 v=109
4192 Par ch=5 c=7 v=110
4200 Par ch=5 c=7 v=111
4206 Par ch=5 c=7 v=112
4214 Par ch=5 c=7 v=113
4222 Par ch=5 c=7 v=114
4230 Par ch=5 c=7 v=115
4238 Par ch=5 c=7 v=116
4244 Par ch=5 c=7 v=117
4252 Par ch=5 c=7 v=118
4260 On ch=5 n=43 v=0
4260 On ch=5 n=50 v=0
4260 Par ch=5 c=7 v=119
4268 Par ch=5 c=7 v=120
4276 Par ch=5 c=7 v=121
4282 Par ch=5 c=7 v=122
4290 Par ch=5 c=7 v=123
4298 Par ch=5 c=7 v=124
4306 Par ch=5 c=7 v=125
4314 Par ch=5 c=7 v=126
4320 Par ch=5 c=7 v=64
4320 On ch=5 n=48 v=127
4320 On ch=5 n=55 v=127
4328 Par ch=5 c=7 v=65
4336 Par ch=5 c=7 v=66
4344 Par ch=5 c=7 v=67
4352 Par ch=5 c=7 v=68
4360 Par ch=5 c=7 v=69
4366 Par ch=5 c=7 v=70
4374 Par ch=5 c=7 v=71
4382 Par ch=5 c=7 v=72
4390 Par ch=5 c=7 v=73
4398 Par ch=5 c=7 v=74
4404 Par ch=5 c=7 v=75
4412 Par ch=5 c=7 v=76
4420 Par ch=5 c=7 v=77
4428 Par ch=5 c=7 v=78
4436 Par ch=5 c=7 v=79
4442 Par ch=5 c=7 v=80
4450 Par ch=5 c=7 v=81
4458 Par ch=5 c=7 v=82
4466 Par ch=5 c=7 v=83
4470 On ch=5 n=55 v=0
4470 On ch=5 n=48 v=0
4474 Par ch=5 c=7 v=84
4480 Par ch=5 c=7 v=85
4488 Par ch=5 c=7 v=86
4496 Par ch=5 c=7 v=87
4500 On ch=5 n=48 v=127
4500 On ch=5 n=55 v=127
4504 Par ch=5 c=7 v=88
4512 Par ch=5 c=7 v=89
4520 Par ch=5 c=7 v=90
4526 Par ch=5 c=7 v=91
4530 On ch=5 n=55 v=0
4530 On ch=5 n=48 v=0
4530 On ch=5 n=55 v=114
4530 On ch=5 n=48 v=127
4534 Par ch=5 c=7 v=92
4542 Par ch=5 c=7 v=93
4550 Par ch=5 c=7 v=94
4558 Par ch=5 c=7 v=95
4564 Par ch=5 c=7 v=96
4572 Par ch=5 c=7 v=97
4580 Par ch=5 c=7 v=98
4588 Par ch=5 c=7 v=99
4596 Par ch=5 c=7 v=100
4602 Par ch=5 c=7 v=101
4610 Par ch=5 c=7 v=102
4618 Par ch=5 c=7 v=103
4626 Par ch=5 c=7 v=104
4634 Par ch=5 c=7 v=105
4640 Par ch=5 c=7 v=106
4648 Par ch=5 c=7 v=107
4656 Par ch=5 c=7 v=108
4664 Par ch=5 c=7 v=109
4672 Par ch=5 c=7 v=110
4680 Par ch=5 c=7 v=111
4686 Par ch=5 c=7 v=112
4694 Par ch=5 c=7 v=113
4702 Par ch=5 c=7 v=114
4710 On ch=5 n=48 v=0
4710 On ch=5 n=55 v=0
4710 Par ch=5 c=7 v=115
4718 Par ch=5 c=7 v=116
4724 Par ch=5 c=7 v=117
4732 Par ch=5 c=7 v=118
4740 Par ch=5 c=7 v=119
4748 Par ch=5 c=7 v=120
4756 Par ch=5 c=7 v=121
4762 Par ch=5 c=7 v=122
4770 Par ch=5 c=7 v=123
4778 Par ch=5 c=7 v=124
4786 Par ch=5 c=7 v=125
4794 Par ch=5 c=7 v=126
4800 Par ch=5 c=7 v=64
4800 On ch=5 n=43 v=127
4800 On ch=5 n=50 v=127
4808 Par ch=5 c=7 v=65
4816 Par ch=5 c=7 v=66
4824 Par ch=5 c=7 v=67
4832 Par ch=5 c=7 v=68
4840 Par ch=5 c=7 v=69
4846 Par ch=5 c=7 v=70
4854 Par ch=5 c=7 v=71
4862 Par ch=5 c=7 v=72
4870 Par ch=5 c=7 v=73
4878 Par ch=5 c=7 v=74
4884 Par ch=5 c=7 v=75
4892 Par ch=5 c=7 v=76
4900 Par ch=5 c=7 v=77
4908 Par ch=5 c=7 v=78
4916 Par ch=5 c=7 v=79
4922 Par ch=5 c=7 v=80
4930 Par ch=5 c=7 v=81
4938 Par ch=5 c=7 v=82
4946 Par ch=5 c=7 v=83
4950 On ch=5 n=50 v=0
4950 On ch=5 n=43 v=0
4954 Par ch=5 c=7 v=84
4960 Par ch=5 c=7 v=85
4968 Par ch=5 c=7 v=86
4976 Par ch=5 c=7 v=87
4980 On ch=5 n=43 v=127
4980 On ch=5 n=50 v=127
4984 Par ch=5 c=7 v=88
4992 Par ch=5 c=7 v=89
5000 Par ch=5 c=7 v=90
5006 Par ch=5 c=7 v=91
5010 On ch=5 n=50 v=0
5010 On ch=5 n=43 v=0
5010 On ch=5 n=50 v=127
5010 On ch=5 n=43 v=127
5014 Par ch=5 c=7 v=92
5022 Par ch=5 c=7 v=93
5030 Par ch=5 c=7 v=94
5038 Par ch=5 c=7 v=95
5044 Par ch=5 c=7 v=96
5052 Par ch=5 c=7 v=97
5060 Par ch=5 c=7 v=98
5068 Par ch=5 c=7 v=99
5076 Par ch=5 c=7 v=100
5082 Par ch=5 c=7 v=101
5090 Par ch=5 c=7 v=102
5098 Par ch=5 c=7 v=103
5106 Par ch=5 c=7 v=104
5114 Par ch=5 c=7 v=105
5120 Par ch=5 c=7 v=106
5128 Par ch=5 c=7 v=107
5136 Par ch=5 c=7 v=108
5144 Par ch=5 c=7 v=109
5152 Par ch=5 c=7 v=110
5160 Par ch=5 c=7 v=111
5166 Par ch=5 c=7 v=112
5174 Par ch=5 c=7 v=113
5182 Par ch=5 c=7 v=114
5190 Par ch=5 c=7 v=115
5198 Par ch=5 c=7 v=116
5204 Par ch=5 c=7 v=117
5212 Par ch=5 c=7 v=118
5220 On ch=5 n=43 v=0
5220 On ch=5 n=50 v=0
5220 Par ch=5 c=7 v=119
5228 Par ch=5 c=7 v=120
5236 Par ch=5 c=7 v=121
5242 Par ch=5 c=7 v=122
5250 Par ch=5 c=7 v=123
5258 Par ch=5 c=7 v=124
5266 Par ch=5 c=7 v=125
5274 Par ch=5 c=7 v=126
5280 Par ch=5 c=7 v=64
5280 On ch=5 n=48 v=127
5280 On ch=5 n=41 v=127
5288 Par ch=5 c=7 v=65
5296 Par ch=5 c=7 v=66
5304 Par ch=5 c=7 v=67
5312 Par ch=5 c=7 v=68
5320 Par ch=5 c=7 v=69
5326 Par ch=5 c=7 v=70
5334 Par ch=5 c=7 v=71
5342 Par ch=5 c=7 v=72
5350 Par ch=5 c=7 v=73
5358 Par ch=5 c=7 v=74
5364 Par ch=5 c=7 v=75
5372 Par ch=5 c=7 v=76
5380 Par ch=5 c=7 v=77
5388 Par ch=5 c=7 v=78
5396 Par ch=5 c=7 v=79
5400 On ch=5 n=41 v=0
5400 On ch=5 n=48 v=0
5402 Par ch=5 c=7 v=80
5410 Par ch=5 c=7 v=81
5418 Par ch=5 c=7 v=82
5426 Par ch=5 c=7 v=83
5430 On ch=5 n=41 v=127
5434 Par ch=5 c=7 v=84
5440 Par ch=5 c=7 v=85
5448 Par ch=5 c=7 v=86
5456 Par ch=5 c=7 v=87
5460 On ch=5 n=41 v=0
5460 On ch=5 n=48 v=123
5464 Par ch=5 c=7 v=88
5472 Par ch=5 c=7 v=89
5480 Par ch=5 c=7 v=90
5486 Par ch=5 c=7 v=91
5490 On ch=5 n=48 v=0
5490 On ch=5 n=48 v=123
5490 On ch=5 n=41 v=127
5494 Par ch=5 c=7 v=92
5502 Par ch=5 c=7 v=93
5510 Par ch=5 c=7 v=94
5518 Par ch=5 c=7 v=95
5524 Par ch=5 c=7 v=96
5532 Par ch=5 c=7 v=97
5540 Par ch=5 c=7 v=98
5548 Par ch=5 c=7 v=99
5556 Par ch=5 c=7 v=100
5562 Par ch=5 c=7 v=101
5570 Par ch=5 c=7 v=102
5578 Par ch=5 c=7 v=103
5586 Par ch=5 c=7 v=104
5594 Par ch=5 c=7 v=105
5600 Par ch=5 c=7 v=106
5608 Par ch=5 c=7 v=107
5616 Par ch=5 c=7 v=108
5624 Par ch=5 c=7 v=109
5632 Par ch=5 c=7 v=110
5640 Par ch=5 c=7 v=111
5646 Par ch=5 c=7 v=112
5654 Par ch=5 c=7 v=113
5662 Par ch=5 c=7 v=114
5670 Par ch=5 c=7 v=115
5678 Par ch=5 c=7 v=116
5684 Par ch=5 c=7 v=117
5692 Par ch=5 c=7 v=118
5700 On ch=5 n=41 v=0
5700 On ch=5 n=48 v=0
5700 Par ch=5 c=7 v=119
5708 Par ch=5 c=7 v=120
5716 Par ch=5 c=7 v=121
5722 Par ch=5 c=7 v=122
5730 Par ch=5 c=7 v=123
5738 Par ch=5 c=7 v=124
5746 Par ch=5 c=7 v=125
5754 Par ch=5 c=7 v=126
5760 Par ch=5 c=7 v=64
5760 On ch=5 n=50 v=127
5760 On ch=5 n=43 v=127
5768 Par ch=5 c=7 v=65
5776 Par ch=5 c=7 v=66
5784 Par ch=5 c=7 v=67
5792 Par ch=5 c=7 v=68
5800 Par ch=5 c=7 v=69
5806 Par ch=5 c=7 v=70
5814 Par ch=5 c=7 v=71
5822 Par ch=5 c=7 v=72
5830 Par ch=5 c=7 v=73
5838 Par ch=5 c=7 v=74
5844 Par ch=5 c=7 v=75
5852 Par ch=5 c=7 v=76
5860 Par ch=5 c=7 v=77
5868 Par ch=5 c=7 v=78
5876 Par ch=5 c=7 v=79
5882 Par ch=5 c=7 v=80
5890 Par ch=5 c=7 v=81
5898 Par ch=5 c=7 v=82
5906 Par ch=5 c=7 v=83
5910 On ch=5 n=43 v=0
5910 On ch=5 n=50 v=0
5914 Par ch=5 c=7 v=84
5920 Par ch=5 c=7 v=85
5928 Par ch=5 c=7 v=86
5936 Par ch=5 c=7 v=87
5940 On ch=5 n=43 v=127
5940 On ch=5 n=50 v=127
5944 Par ch=5 c=7 v=88
5952 Par ch=5 c=7 v=89
5960 Par ch=5 c=7 v=90
5966 Par ch=5 c=7 v=91
5970 On ch=5 n=50 v=0
5970 On ch=5 n=43 v=0
5970 On ch=5 n=43 v=127
5970 On ch=5 n=50 v=127
5974 Par ch=5 c=7 v=92
5982 Par ch=5 c=7 v=93
5990 Par ch=5 c=7 v=94
5998 Par ch=5 c=7 v=95
6004 Par ch=5 c=7 v=96
6012 Par ch=5 c=7 v=97
6020 Par ch=5 c=7 v=98
6028 Par ch=5 c=7 v=99
6036 Par ch=5 c=7 v=100
6042 Par ch=5 c=7 v=101
6050 Par ch=5 c=7 v=102
6058 Par ch=5 c=7 v=103
6066 Par ch=5 c=7 v=104
6074 Par ch=5 c=7 v=105
6080 Par ch=5 c=7 v=106
6088 Par ch=5 c=7 v=107
6096 Par ch=5 c=7 v=108
6104 Par ch=5 c=7 v=109
6112 Par ch=5 c=7 v=110
6120 Par ch=5 c=7 v=111
6126 Par ch=5 c=7 v=112
6134 Par ch=5 c=7 v=113
6142 Par ch=5 c=7 v=114
6150 Par ch=5 c=7 v=115
6158 Par ch=5 c=7 v=116
6164 Par ch=5 c=7 v=117
6172 Par ch=5 c=7 v=118
6180 On ch=5 n=50 v=0
6180 On ch=5 n=43 v=0
6180 Par ch=5 c=7 v=119
6188 Par ch=5 c=7 v=120
6196 Par ch=5 c=7 v=121
6202 Par ch=5 c=7 v=122
6210 Par ch=5 c=7 v=123
6218 Par ch=5 c=7 v=124
6226 Par ch=5 c=7 v=125
6234 Par ch=5 c=7 v=126
6240 On ch=5 n=55 v=127
6240 On ch=5 n=48 v=127
6241 Par ch=5 c=7 v=64
6250 Par ch=5 c=7 v=65
6258 Par ch=5 c=7 v=66
6265 Par ch=5 c=7 v=67
6273 Par ch=5 c=7 v=68
6280 Par ch=5 c=7 v=69
6288 Par ch=5 c=7 v=70
6295 Par ch=5 c=7 v=71
6303 Par ch=5 c=7 v=72
6310 Par ch=5 c=7 v=73
6318 Par ch=5 c=7 v=74
6326 Par ch=5 c=7 v=75
6333 Par ch=5 c=7 v=76
6341 Par ch=5 c=7 v=77
6348 Par ch=5 c=7 v=78
6356 Par ch=5 c=7 v=79
6363 Par ch=5 c=7 v=80
6371 Par ch=5 c=7 v=81
6378 Par ch=5 c=7 v=82
6386 Par ch=5 c=7 v=83
6390 On ch=5 n=48 v=0
6390 On ch=5 n=55 v=0
6395 Par ch=5 c=7 v=84
6401 Par ch=5 c=7 v=85
6410 Par ch=5 c=7 v=86
6416 Par ch=5 c=7 v=87
6420 On ch=5 n=48 v=127
6420 On ch=5 n=55 v=120
6425 Par ch=5 c=7 v=88
6431 Par ch=5 c=7 v=89
6440 Par ch=5 c=7 v=90
6446 Par ch=5 c=7 v=91
6450 On ch=5 n=55 v=0
6450 On ch=5 n=48 v=0
6450 On ch=5 n=55 v=123
6450 On ch=5 n=48 v=127
6455 Par ch=5 c=7 v=92
6463 Par ch=5 c=7 v=93
6470 Par ch=5 c=7 v=94
6478 Par ch=5 c=7 v=95
6485 Par ch=5 c=7 v=96
6493 Par ch=5 c=7 v=97
6500 Par ch=5 c=7 v=98
6508 Par ch=5 c=7 v=99
6515 Par ch=5 c=7 v=100
6523 Par ch=5 c=7 v=101
6531 Par ch=5 c=7 v=102
6538 Par ch=5 c=7 v=103
6546 Par ch=5 c=7 v=104
6553 Par ch=5 c=7 v=105
6561 Par ch=5 c=7 v=106
6568 Par ch=5 c=7 v=107
6576 Par ch=5 c=7 v=108
6583 Par ch=5 c=7 v=109
6591 Par ch=5 c=7 v=110
6600 Par ch=5 c=7 v=111
6606 Par ch=5 c=7 v=112
6615 Par ch=5 c=7 v=113
6621 Par ch=5 c=7 v=114
6630 Par ch=5 c=7 v=115
6636 Par ch=5 c=7 v=116
6645 Par ch=5 c=7 v=117
6651 Par ch=5 c=7 v=118
6660 On ch=5 n=48 v=0
6660 On ch=5 n=55 v=0
6660 Par ch=5 c=7 v=119
6668 Par ch=5 c=7 v=120
6675 Par ch=5 c=7 v=121
6683 Par ch=5 c=7 v=122
6690 Par ch=5 c=7 v=123
6698 Par ch=5 c=7 v=124
6705 Par ch=5 c=7 v=125
6713 Par ch=5 c=7 v=126
6720 Par ch=5 c=7 v=127
6720 On ch=5 n=50 v=127
6720 On ch=5 n=43 v=127
6721 Par ch=5 c=7 v=64
6730 Par ch=5 c=7 v=65
6738 Par ch=5 c=7 v=66
6745 Par ch=5 c=7 v=67
6753 Par ch=5 c=7 v=68
6760 Par ch=5 c=7 v=69
6768 Par ch=5 c=7 v=70
6775 Par ch=5 c=7 v=71
6783 Par ch=5 c=7 v=72
6790 Par ch=5 c=7 v=73
6798 Par ch=5 c=7 v=74
6805 Par ch=5 c=7 v=75
6813 Par ch=5 c=7 v=76
6821 Par ch=5 c=7 v=77
6828 Par ch=5 c=7 v=78
6836 Par ch=5 c=7 v=79
6843 Par ch=5 c=7 v=80
6851 Par ch=5 c=7 v=81
6858 Par ch=5 c=7 v=82
6866 Par ch=5 c=7 v=83
6870 On ch=5 n=43 v=0
6870 On ch=5 n=50 v=0
6873 Par ch=5 c=7 v=84
6881 Par ch=5 c=7 v=85
6888 Par ch=5 c=7 v=86
6896 Par ch=5 c=7 v=87
6900 On ch=5 n=50 v=127
6900 On ch=5 n=43 v=127
6903 Par ch=5 c=7 v=88
6911 Par ch=5 c=7 v=89
6920 Par ch=5 c=7 v=90
6926 Par ch=5 c=7 v=91
6930 On ch=5 n=43 v=0
6930 On ch=5 n=50 v=0
6930 On ch=5 n=50 v=127
6930 On ch=5 n=43 v=127
6935 Par ch=5 c=7 v=92
6941 Par ch=5 c=7 v=93
6950 Par ch=5 c=7 v=94
6956 Par ch=5 c=7 v=95
6965 Par ch=5 c=7 v=96
6971 Par ch=5 c=7 v=97
6980 Par ch=5 c=7 v=98
6986 Par ch=5 c=7 v=99
6995 Par ch=5 c=7 v=100
7001 Par ch=5 c=7 v=101
7010 Par ch=5 c=7 v=102
7018 Par ch=5 c=7 v=103
7025 Par ch=5 c=7 v=104
7033 Par ch=5 c=7 v=105
7040 Par ch=5 c=7 v=106
7048 Par ch=5 c=7 v=107
7055 Par ch=5 c=7 v=108
7063 Par ch=5 c=7 v=109
7070 Par ch=5 c=7 v=110
7078 Par ch=5 c=7 v=111
7085 Par ch=5 c=7 v=112
7093 Par ch=5 c=7 v=113
7100 Par ch=5 c=7 v=114
7108 Par ch=5 c=7 v=115
7116 Par ch=5 c=7 v=116
7123 Par ch=5 c=7 v=117
7131 Par ch=5 c=7 v=118
7138 Par ch=5 c=7 v=119
7146 Par ch=5 c=7 v=120
7153 Par ch=5 c=7 v=121
7161 Par ch=5 c=7 v=122
7168 Par ch=5 c=7 v=123
7170 On ch=5 n=43 v=0
7170 On ch=5 n=50 v=0
7176 Par ch=5 c=7 v=124
7183 Par ch=5 c=7 v=125
7191 Par ch=5 c=7 v=126
7198 Par ch=5 c=7 v=127
7200 Par ch=5 c=7 v=64
7200 On ch=5 n=41 v=127
7200 On ch=5 n=48 v=127
7208 Par ch=5 c=7 v=65
7216 Par ch=5 c=7 v=66
7224 Par ch=5 c=7 v=67
7232 Par ch=5 c=7 v=68
7240 Par ch=5 c=7 v=69
7246 Par ch=5 c=7 v=70
7254 Par ch=5 c=7 v=71
7262 Par ch=5 c=7 v=72
7270 Par ch=5 c=7 v=73
7278 Par ch=5 c=7 v=74
7284 Par ch=5 c=7 v=75
7292 Par ch=5 c=7 v=76
7300 Par ch=5 c=7 v=77
7308 Par ch=5 c=7 v=78
7316 Par ch=5 c=7 v=79
7322 Par ch=5 c=7 v=80
7330 Par ch=5 c=7 v=81
7338 Par ch=5 c=7 v=82
7346 Par ch=5 c=7 v=83
7350 On ch=5 n=48 v=0
7350 On ch=5 n=41 v=0
7354 Par ch=5 c=7 v=84
7360 Par ch=5 c=7 v=85
7368 Par ch=5 c=7 v=86
7376 Par ch=5 c=7 v=87
7380 On ch=5 n=41 v=127
7380 On ch=5 n=48 v=127
7384 Par ch=5 c=7 v=88
7392 Par ch=5 c=7 v=89
7400 Par ch=5 c=7 v=90
7406 Par ch=5 c=7 v=91
7410 On ch=5 n=48 v=0
7410 On ch=5 n=41 v=0
7410 On ch=5 n=48 v=127
7410 On ch=5 n=41 v=127
7414 Par ch=5 c=7 v=92
7422 Par ch=5 c=7 v=93
7430 Par ch=5 c=7 v=94
7438 Par ch=5 c=7 v=95
7444 Par ch=5 c=7 v=96
7452 Par ch=5 c=7 v=97
7460 Par ch=5 c=7 v=98
7468 Par ch=5 c=7 v=99
7476 Par ch=5 c=7 v=100
7482 Par ch=5 c=7 v=101
7490 Par ch=5 c=7 v=102
7498 Par ch=5 c=7 v=103
7506 Par ch=5 c=7 v=104
7514 Par ch=5 c=7 v=105
7520 Par ch=5 c=7 v=106
7528 Par ch=5 c=7 v=107
7536 Par ch=5 c=7 v=108
7544 Par ch=5 c=7 v=109
7552 Par ch=5 c=7 v=110
7560 Par ch=5 c=7 v=111
7566 Par ch=5 c=7 v=112
7574 Par ch=5 c=7 v=113
7582 Par ch=5 c=7 v=114
7590 Par ch=5 c=7 v=115
7598 Par ch=5 c=7 v=116
7604 Par ch=5 c=7 v=117
7612 Par ch=5 c=7 v=118
7620 Par ch=5 c=7 v=119
7628 Par ch=5 c=7 v=120
7636 Par ch=5 c=7 v=121
7642 Par ch=5 c=7 v=122
7650 On ch=5 n=41 v=0
7650 On ch=5 n=48 v=0
7650 Par ch=5 c=7 v=123
7658 Par ch=5 c=7 v=124
7666 Par ch=5 c=7 v=125
7674 Par ch=5 c=7 v=126
7680 Par ch=5 c=7 v=64
7680 On ch=5 n=43 v=127
7680 On ch=5 n=50 v=127
7688 Par ch=5 c=7 v=65
7696 Par ch=5 c=7 v=66
7704 Par ch=5 c=7 v=67
7712 Par ch=5 c=7 v=68
7720 Par ch=5 c=7 v=69
7726 Par ch=5 c=7 v=70
7734 Par ch=5 c=7 v=71
7742 Par ch=5 c=7 v=72
7750 Par ch=5 c=7 v=73
7758 Par ch=5 c=7 v=74
7764 Par ch=5 c=7 v=75
7772 Par ch=5 c=7 v=76
7780 Par ch=5 c=7 v=77
7788 Par ch=5 c=7 v=78
7796 Par ch=5 c=7 v=79
7802 Par ch=5 c=7 v=80
7810 Par ch=5 c=7 v=81
7818 Par ch=5 c=7 v=82
7826 Par ch=5 c=7 v=83
7830 On ch=5 n=50 v=0
7830 On ch=5 n=43 v=0
7834 Par ch=5 c=7 v=84
7840 Par ch=5 c=7 v=85
7848 Par ch=5 c=7 v=86
7856 Par ch=5 c=7 v=87
7860 On ch=5 n=50 v=127
7860 On ch=5 n=43 v=127
7864 Par ch=5 c=7 v=88
7872 Par ch=5 c=7 v=89
7880 Par ch=5 c=7 v=90
7886 Par ch=5 c=7 v=91
7890 On ch=5 n=43 v=0
7890 On ch=5 n=50 v=0
7890 On ch=5 n=50 v=127
7890 On ch=5 n=43 v=127
7894 Par ch=5 c=7 v=92
7902 Par ch=5 c=7 v=93
7910 Par ch=5 c=7 v=94
7918 Par ch=5 c=7 v=95
7924 Par ch=5 c=7 v=96
7932 Par ch=5 c=7 v=97
7940 Par ch=5 c=7 v=98
7948 Par ch=5 c=7 v=99
7956 Par ch=5 c=7 v=100
7962 Par ch=5 c=7 v=101
7970 Par ch=5 c=7 v=102
7978 Par ch=5 c=7 v=103
7986 Par ch=5 c=7 v=104
7994 Par ch=5 c=7 v=105
8000 Par ch=5 c=7 v=106
8008 Par ch=5 c=7 v=107
8016 Par ch=5 c=7 v=108
8024 Par ch=5 c=7 v=109
8032 Par ch=5 c=7 v=110
8040 Par ch=5 c=7 v=111
8046 Par ch=5 c=7 v=112
8054 Par ch=5 c=7 v=113
8062 Par ch=5 c=7 v=114
8070 Par ch=5 c=7 v=115
8078 Par ch=5 c=7 v=116
8084 Par ch=5 c=7 v=117
8092 Par ch=5 c=7 v=118
8100 On ch=5 n=43 v=0
8100 On ch=5 n=50 v=0
8100 Par ch=5 c=7 v=119
8108 Par ch=5 c=7 v=120
8116 Par ch=5 c=7 v=121
8122 Par ch=5 c=7 v=122
8130 Par ch=5 c=7 v=123
8138 Par ch=5 c=7 v=124
8146 Par ch=5 c=7 v=125
8154 Par ch=5 c=7 v=126
8160 Par ch=5 c=7 v=64
8160 On ch=5 n=48 v=127
8160 On ch=5 n=55 v=127
8168 Par ch=5 c=7 v=65
8176 Par ch=5 c=7 v=66
8184 Par ch=5 c=7 v=67
8192 Par ch=5 c=7 v=68
8200 Par ch=5 c=7 v=69
8206 Par ch=5 c=7 v=70
8214 Par ch=5 c=7 v=71
8222 Par ch=5 c=7 v=72
8230 Par ch=5 c=7 v=73
8238 Par ch=5 c=7 v=74
8244 Par ch=5 c=7 v=75
8252 Par ch=5 c=7 v=76
8260 Par ch=5 c=7 v=77
8268 Par ch=5 c=7 v=78
8276 Par ch=5 c=7 v=79
8282 Par ch=5 c=7 v=80
8290 Par ch=5 c=7 v=81
8298 Par ch=5 c=7 v=82
8306 Par ch=5 c=7 v=83
8310 On ch=5 n=55 v=0
8310 On ch=5 n=48 v=0
8314 Par ch=5 c=7 v=84
8320 Par ch=5 c=7 v=85
8328 Par ch=5 c=7 v=86
8336 Par ch=5 c=7 v=87
8340 On ch=5 n=48 v=127
8340 On ch=5 n=55 v=127
8344 Par ch=5 c=7 v=88
8352 Par ch=5 c=7 v=89
8360 Par ch=5 c=7 v=90
8366 Par ch=5 c=7 v=91
8370 On ch=5 n=55 v=0
8370 On ch=5 n=48 v=0
8370 On ch=5 n=55 v=114
8370 On ch=5 n=48 v=127
8374 Par ch=5 c=7 v=92
8382 Par ch=5 c=7 v=93
8390 Par ch=5 c=7 v=94
8398 Par ch=5 c=7 v=95
8404 Par ch=5 c=7 v=96
8412 Par ch=5 c=7 v=97
8420 Par ch=5 c=7 v=98
8428 Par ch=5 c=7 v=99
8436 Par ch=5 c=7 v=100
8442 Par ch=5 c=7 v=101
8450 Par ch=5 c=7 v=102
8458 Par ch=5 c=7 v=103
8466 Par ch=5 c=7 v=104
8474 Par ch=5 c=7 v=105
8480 Par ch=5 c=7 v=106
8488 Par ch=5 c=7 v=107
8496 Par ch=5 c=7 v=108
8504 Par ch=5 c=7 v=109
8512 Par ch=5 c=7 v=110
8520 Par ch=5 c=7 v=111
8526 Par ch=5 c=7 v=112
8534 Par ch=5 c=7 v=113
8542 Par ch=5 c=7 v=114
8550 On ch=5 n=48 v=0
8550 On ch=5 n=55 v=0
8550 Par ch=5 c=7 v=115
8558 Par ch=5 c=7 v=116
8564 Par ch=5 c=7 v=117
8572 Par ch=5 c=7 v=118
8580 Par ch=5 c=7 v=119
8588 Par ch=5 c=7 v=120
8596 Par ch=5 c=7 v=121
8602 Par ch=5 c=7 v=122
8610 Par ch=5 c=7 v=123
8618 Par ch=5 c=7 v=124
8626 Par ch=5 c=7 v=125
8634 Par ch=5 c=7 v=126
8640 Par ch=5 c=7 v=64
8640 On ch=5 n=43 v=127
8640 On ch=5 n=50 v=127
8648 Par ch=5 c=7 v=65
8656 Par ch=5 c=7 v=66
8664 Par ch=5 c=7 v=67
8672 Par ch=5 c=7 v=68
8680 Par ch=5 c=7 v=69
8686 Par ch=5 c=7 v=70
8694 Par ch=5 c=7 v=71
8702 Par ch=5 c=7 v=72
8710 Par ch=5 c=7 v=73
8718 Par ch=5 c=7 v=74
8724 Par ch=5 c=7 v=75
8732 Par ch=5 c=7 v=76
8740 Par ch=5 c=7 v=77
8748 Par ch=5 c=7 v=78
8756 Par ch=5 c=7 v=79
8762 Par ch=5 c=7 v=80
8770 Par ch=5 c=7 v=81
8778 Par ch=5 c=7 v=82
8786 Par ch=5 c=7 v=83
8790 On ch=5 n=50 v=0
8790 On ch=5 n=43 v=0
8794 Par ch=5 c=7 v=84
8800 Par ch=5 c=7 v=85
8808 Par ch=5 c=7 v=86
8816 Par ch=5 c=7 v=87
8820 On ch=5 n=43 v=127
8820 On ch=5 n=50 v=127
8824 Par ch=5 c=7 v=88
8832 Par ch=5 c=7 v=89
8840 Par ch=5 c=7 v=90
8846 Par ch=5 c=7 v=91
8850 On ch=5 n=50 v=0
8850 On ch=5 n=43 v=0
8850 On ch=5 n=50 v=127
8850 On ch=5 n=43 v=127
8854 Par ch=5 c=7 v=92
8862 Par ch=5 c=7 v=93
8870 Par ch=5 c=7 v=94
8878 Par ch=5 c=7 v=95
8884 Par ch=5 c=7 v=96
8892 Par ch=5 c=7 v=97
8900 Par ch=5 c=7 v=98
8908 Par ch=5 c=7 v=99
8916 Par ch=5 c=7 v=100
8922 Par ch=5 c=7 v=101
8930 Par ch=5 c=7 v=102
8938 Par ch=5 c=7 v=103
8946 Par ch=5 c=7 v=104
8954 Par ch=5 c=7 v=105
8960 Par ch=5 c=7 v=106
8968 Par ch=5 c=7 v=107
8976 Par ch=5 c=7 v=108
8984 Par ch=5 c=7 v=109
8992 Par ch=5 c=7 v=110
9000 Par ch=5 c=7 v=111
9006 Par ch=5 c=7 v=112
9014 Par ch=5 c=7 v=113
9022 Par ch=5 c=7 v=114
9030 Par ch=5 c=7 v=115
9038 Par ch=5 c=7 v=116
9044 Par ch=5 c=7 v=117
9052 Par ch=5 c=7 v=118
9060 On ch=5 n=43 v=0
9060 On ch=5 n=50 v=0
9060 Par ch=5 c=7 v=119
9068 Par ch=5 c=7 v=120
9076 Par ch=5 c=7 v=121
9082 Par ch=5 c=7 v=122
9090 Par ch=5 c=7 v=123
9098 Par ch=5 c=7 v=124
9106 Par ch=5 c=7 v=125
9114 Par ch=5 c=7 v=126
9120 Par ch=5 c=7 v=64
9120 On ch=5 n=48 v=127
9120 On ch=5 n=41 v=127
9128 Par ch=5 c=7 v=65
9136 Par ch=5 c=7 v=66
9144 Par ch=5 c=7 v=67
9152 Par ch=5 c=7 v=68
9160 Par ch=5 c=7 v=69
9166 Par ch=5 c=7 v=70
9174 Par ch=5 c=7 v=71
9182 Par ch=5 c=7 v=72
9190 Par ch=5 c=7 v=73
9198 Par ch=5 c=7 v=74
9204 Par ch=5 c=7 v=75
9212 Par ch=5 c=7 v=76
9220 Par ch=5 c=7 v=77
9228 Par ch=5 c=7 v=78
9236 Par ch=5 c=7 v=79
9240 On ch=5 n=41 v=0
9240 On ch=5 n=48 v=0
9242 Par ch=5 c=7 v=80
9250 Par ch=5 c=7 v=81
9258 Par ch=5 c=7 v=82
9266 Par ch=5 c=7 v=83
9270 On ch=5 n=41 v=127
9274 Par ch=5 c=7 v=84
9280 Par ch=5 c=7 v=85
9288 Par ch=5 c=7 v=86
9296 Par ch=5 c=7 v=87
9300 On ch=5 n=41 v=0
9300 On ch=5 n=48 v=123
9304 Par ch=5 c=7 v=88
9312 Par ch=5 c=7 v=89
9320 Par ch=5 c=7 v=90
9326 Par ch=5 c=7 v=91
9330 On ch=5 n=48 v=0
9330 On ch=5 n=48 v=123
9330 On ch=5 n=41 v=127
9334 Par ch=5 c=7 v=92
9342 Par ch=5 c=7 v=93
9350 Par ch=5 c=7 v=94
9358 Par ch=5 c=7 v=95
9364 Par ch=5 c=7 v=96
9372 Par ch=5 c=7 v=97
9380 Par ch=5 c=7 v=98
9388 Par ch=5 c=7 v=99
9396 Par ch=5 c=7 v=100
9402 Par ch=5 c=7 v=101
9410 Par ch=5 c=7 v=102
9418 Par ch=5 c=7 v=103
9426 Par ch=5 c=7 v=104
9434 Par ch=5 c=7 v=105
9440 Par ch=5 c=7 v=106
9448 Par ch=5 c=7 v=107
9456 Par ch=5 c=7 v=108
9464 Par ch=5 c=7 v=109
9472 Par ch=5 c=7 v=110
9480 Par ch=5 c=7 v=111
9486 Par ch=5 c=7 v=112
9494 Par ch=5 c=7 v=113
9502 Par ch=5 c=7 v=114
9510 Par ch=5 c=7 v=115
9518 Par ch=5 c=7 v=116
9524 Par ch=5 c=7 v=117
9532 Par ch=5 c=7 v=118
9540 On ch=5 n=41 v=0
9540 On ch=5 n=48 v=0
9540 Par ch=5 c=7 v=119
9548 Par ch=5 c=7 v=120
9556 Par ch=5 c=7 v=121
9562 Par ch=5 c=7 v=122
9570 Par ch=5 c=7 v=123
9578 Par ch=5 c=7 v=124
9586 Par ch=5 c=7 v=125
9594 Par ch=5 c=7 v=126
9600 Par ch=5 c=7 v=64
9600 On ch=5 n=50 v=127
9600 On ch=5 n=43 v=127
9608 Par ch=5 c=7 v=65
9616 Par ch=5 c=7 v=66
9624 Par ch=5 c=7 v=67
9632 Par ch=5 c=7 v=68
9640 Par ch=5 c=7 v=69
9646 Par ch=5 c=7 v=70
9654 Par ch=5 c=7 v=71
9662 Par ch=5 c=7 v=72
9670 Par ch=5 c=7 v=73
9678 Par ch=5 c=7 v=74
9684 Par ch=5 c=7 v=75
9692 Par ch=5 c=7 v=76
9700 Par ch=5 c=7 v=77
9708 Par ch=5 c=7 v=78
9716 Par ch=5 c=7 v=79
9722 Par ch=5 c=7 v=80
9730 Par ch=5 c=7 v=81
9738 Par ch=5 c=7 v=82
9746 Par ch=5 c=7 v=83
9750 On ch=5 n=43 v=0
9750 On ch=5 n=50 v=0
9754 Par ch=5 c=7 v=84
9760 Par ch=5 c=7 v=85
9768 Par ch=5 c=7 v=86
9776 Par ch=5 c=7 v=87
9780 On ch=5 n=43 v=127
9780 On ch=5 n=50 v=127
9784 Par ch=5 c=7 v=88
9792 Par ch=5 c=7 v=89
9800 Par ch=5 c=7 v=90
9806 Par ch=5 c=7 v=91
9810 On ch=5 n=50 v=0
9810 On ch=5 n=43 v=0
9810 On ch=5 n=43 v=127
9810 On ch=5 n=50 v=127
9814 Par ch=5 c=7 v=92
9822 Par ch=5 c=7 v=93
9830 Par ch=5 c=7 v=94
9838 Par ch=5 c=7 v=95
9844 Par ch=5 c=7 v=96
9852 Par ch=5 c=7 v=97
9860 Par ch=5 c=7 v=98
9868 Par ch=5 c=7 v=99
9876 Par ch=5 c=7 v=100
9882 Par ch=5 c=7 v=101
9890 Par ch=5 c=7 v=102
9898 Par ch=5 c=7 v=103
9906 Par ch=5 c=7 v=104
9914 Par ch=5 c=7 v=105
9920 Par ch=5 c=7 v=106
9928 Par ch=5 c=7 v=107
9936 Par ch=5 c=7 v=108
9944 Par ch=5 c=7 v=109
9952 Par ch=5 c=7 v=110
9960 Par ch=5 c=7 v=111
9966 Par ch=5 c=7 v=112
9974 Par ch=5 c=7 v=113
9982 Par ch=5 c=7 v=114
9990 Par ch=5 c=7 v=115
9998 Par ch=5 c=7 v=116
10004 Par ch=5 c=7 v=117
10012 Par ch=5 c=7 v=118
10020 On ch=5 n=50 v=0
10020 On ch=5 n=43 v=0
10020 Par ch=5 c=7 v=119
10028 Par ch=5 c=7 v=120
10036 Par ch=5 c=7 v=121
10042 Par ch=5 c=7 v=122
10050 Par ch=5 c=7 v=123
10058 Par ch=5 c=7 v=124
10066 Par ch=5 c=7 v=125
10074 Par ch=5 c=7 v=126
10080 Par ch=5 c=7 v=64
10080 On ch=5 n=55 v=105
10080 On ch=5 n=52 v=105
10080 On ch=5 n=59 v=108
10080 On ch=5 n=62 v=102
10088 Par ch=5 c=7 v=65
10096 Par ch=5 c=7 v=66
10104 Par ch=5 c=7 v=67
10112 Par ch=5 c=7 v=68
10120 Par ch=5 c=7 v=69
10126 Par ch=5 c=7 v=70
10134 Par ch=5 c=7 v=71
10142 Par ch=5 c=7 v=72
10150 Par ch=5 c=7 v=73
10158 Par ch=5 c=7 v=74
10164 Par ch=5 c=7 v=75
10172 Par ch=5 c=7 v=76
10180 Par ch=5 c=7 v=77
10188 Par ch=5 c=7 v=78
10196 Par ch=5 c=7 v=79
10202 Par ch=5 c=7 v=80
10210 Par ch=5 c=7 v=81
10218 Par ch=5 c=7 v=82
10226 Par ch=5 c=7 v=83
10230 On ch=5 n=62 v=0
10230 On ch=5 n=55 v=0
10230 On ch=5 n=52 v=0
10230 On ch=5 n=59 v=0
10234 Par ch=5 c=7 v=84
10240 Par ch=5 c=7 v=85
10248 Par ch=5 c=7 v=86
10256 Par ch=5 c=7 v=87
10260 On ch=5 n=55 v=85
10260 On ch=5 n=62 v=84
10260 On ch=5 n=52 v=85
10260 On ch=5 n=59 v=96
10264 Par ch=5 c=7 v=88
10272 Par ch=5 c=7 v=89
10280 Par ch=5 c=7 v=90
10286 Par ch=5 c=7 v=91
10290 On ch=5 n=59 v=0
10290 On ch=5 n=55 v=0
10290 On ch=5 n=62 v=0
10290 On ch=5 n=52 v=0
10290 On ch=5 n=52 v=99
10290 On ch=5 n=62 v=87
10290 On ch=5 n=55 v=99
10290 On ch=5 n=59 v=99
10294 Par ch=5 c=7 v=92
10302 Par ch=5 c=7 v=93
10310 Par ch=5 c=7 v=94
10318 Par ch=5 c=7 v=95
10324 Par ch=5 c=7 v=96
10332 Par ch=5 c=7 v=97
10340 Par ch=5 c=7 v=98
10348 Par ch=5 c=7 v=99
10356 Par ch=5 c=7 v=100
10362 Par ch=5 c=7 v=101
10370 Par ch=5 c=7 v=102
10378 Par ch=5 c=7 v=103
10386 Par ch=5 c=7 v=104
10394 Par ch=5 c=7 v=105
10400 Par ch=5 c=7 v=106
10408 Par ch=5 c=7 v=107
10416 Par ch=5 c=7 v=108
10424 Par ch=5 c=7 v=109
10432 Par ch=5 c=7 v=110
10440 Par ch=5 c=7 v=111
10446 Par ch=5 c=7 v=112
10454 Par ch=5 c=7 v=113
10462 Par ch=5 c=7 v=114
10470 On ch=5 n=59 v=0
10470 On ch=5 n=52 v=0
10470 On ch=5 n=62 v=0
10470 On ch=5 n=55 v=0
10470 Par ch=5 c=7 v=115
10478 Par ch=5 c=7 v=116
10484 Par ch=5 c=7 v=117
10492 Par ch=5 c=7 v=118
10500 Par ch=5 c=7 v=119
10508 Par ch=5 c=7 v=120
10516 Par ch=5 c=7 v=121
10522 Par ch=5 c=7 v=122
10530 Par ch=5 c=7 v=123
10538 Par ch=5 c=7 v=124
10546 Par ch=5 c=7 v=125
10554 Par ch=5 c=7 v=126
10560 Par ch=5 c=7 v=64
10560 On ch=5 n=50 v=93
10560 On ch=5 n=57 v=102
10560 On ch=5 n=60 v=99
10560 On ch=5 n=53 v=99
10568 Par ch=5 c=7 v=65
10576 Par ch=5 c=7 v=66
10584 Par ch=5 c=7 v=67
10592 Par ch=5 c=7 v=68
10600 Par ch=5 c=7 v=69
10606 Par ch=5 c=7 v=70
10614 Par ch=5 c=7 v=71
10622 Par ch=5 c=7 v=72
10630 Par ch=5 c=7 v=73
10638 Par ch=5 c=7 v=74
10644 Par ch=5 c=7 v=75
10652 Par ch=5 c=7 v=76
10660 Par ch=5 c=7 v=77
10668 Par ch=5 c=7 v=78
10676 Par ch=5 c=7 v=79
10682 Par ch=5 c=7 v=80
10690 Par ch=5 c=7 v=81
10698 Par ch=5 c=7 v=82
10706 Par ch=5 c=7 v=83
10710 On ch=5 n=53 v=0
10710 On ch=5 n=50 v=0
10710 On ch=5 n=57 v=0
10710 On ch=5 n=60 v=0
10714 Par ch=5 c=7 v=84
10720 Par ch=5 c=7 v=85
10728 Par ch=5 c=7 v=86
10736 Par ch=5 c=7 v=87
10740 On ch=5 n=60 v=90
10740 On ch=5 n=57 v=108
10740 On ch=5 n=53 v=99
10740 On ch=5 n=50 v=96
10744 Par ch=5 c=7 v=88
10752 Par ch=5 c=7 v=89
10760 Par ch=5 c=7 v=90
10766 Par ch=5 c=7 v=91
10770 On ch=5 n=50 v=0
10770 On ch=5 n=60 v=0
10770 On ch=5 n=57 v=0
10770 On ch=5 n=53 v=0
10770 On ch=5 n=50 v=78
10770 On ch=5 n=60 v=90
10770 On ch=5 n=57 v=123
10770 On ch=5 n=53 v=102
10774 Par ch=5 c=7 v=92
10782 Par ch=5 c=7 v=93
10790 Par ch=5 c=7 v=94
10798 Par ch=5 c=7 v=95
10804 Par ch=5 c=7 v=96
10812 Par ch=5 c=7 v=97
10820 Par ch=5 c=7 v=98
10828 Par ch=5 c=7 v=99
10836 Par ch=5 c=7 v=100
10842 Par ch=5 c=7 v=101
10850 Par ch=5 c=7 v=102
10858 Par ch=5 c=7 v=103
10866 Par ch=5 c=7 v=104
10874 Par ch=5 c=7 v=105
10880 Par ch=5 c=7 v=106
10888 Par ch=5 c=7 v=107
10896 Par ch=5 c=7 v=108
10904 Par ch=5 c=7 v=109
10912 Par ch=5 c=7 v=110
10920 Par ch=5 c=7 v=111
10926 Par ch=5 c=7 v=112
10934 Par ch=5 c=7 v=113
10942 Par ch=5 c=7 v=114
10950 On ch=5 n=53 v=0
10950 On ch=5 n=50 v=0
10950 On ch=5 n=60 v=0
10950 On ch=5 n=57 v=0
10950 Par ch=5 c=7 v=115
10958 Par ch=5 c=7 v=116
10964 Par ch=5 c=7 v=117
10972 Par ch=5 c=7 v=118
10980 Par ch=5 c=7 v=119
10988 Par ch=5 c=7 v=120
10996 Par ch=5 c=7 v=121
11002 Par ch=5 c=7 v=122
11010 Par ch=5 c=7 v=123
11018 Par ch=5 c=7 v=124
11026 Par ch=5 c=7 v=125
11034 Par ch=5 c=7 v=126
11040 Par ch=5 c=7 v=64
11040 On ch=5 n=55 v=99
11040 On ch=5 n=52 v=96
11040 On ch=5 n=62 v=85
11040 On ch=5 n=59 v=99
11048 Par ch=5 c=7 v=65
11056 Par ch=5 c=7 v=66
11064 Par ch=5 c=7 v=67
11072 Par ch=5 c=7 v=68
11080 Par ch=5 c=7 v=69
11086 Par ch=5 c=7 v=70
11094 Par ch=5 c=7 v=71
11102 Par ch=5 c=7 v=72
11110 Par ch=5 c=7 v=73
11118 Par ch=5 c=7 v=74
11124 Par ch=5 c=7 v=75
11132 Par ch=5 c=7 v=76
11140 Par ch=5 c=7 v=77
11148 Par ch=5 c=7 v=78
11156 Par ch=5 c=7 v=79
11162 Par ch=5 c=7 v=80
11170 Par ch=5 c=7 v=81
11178 Par ch=5 c=7 v=82
11186 Par ch=5 c=7 v=83
11190 On ch=5 n=59 v=0
11190 On ch=5 n=55 v=0
11190 On ch=5 n=52 v=0
11190 On ch=5 n=62 v=0
11194 Par ch=5 c=7 v=84
11200 Par ch=5 c=7 v=85
11208 Par ch=5 c=7 v=86
11216 Par ch=5 c=7 v=87
11220 On ch=5 n=52 v=99
11220 On ch=5 n=62 v=79
11220 On ch=5 n=55 v=99
11220 On ch=5 n=59 v=99
11224 Par ch=5 c=7 v=88
11232 Par ch=5 c=7 v=89
11240 Par ch=5 c=7 v=90
11246 Par ch=5 c=7 v=91
11250 On ch=5 n=59 v=0
11250 On ch=5 n=55 v=0
11250 On ch=5 n=62 v=0
11250 On ch=5 n=59 v=123
11250 On ch=5 n=62 v=105
11250 On ch=5 n=55 v=123
11254 Par ch=5 c=7 v=92
11262 Par ch=5 c=7 v=93
11270 Par ch=5 c=7 v=94
11278 Par ch=5 c=7 v=95
11284 Par ch=5 c=7 v=96
11292 Par ch=5 c=7 v=97
11300 Par ch=5 c=7 v=98
11308 Par ch=5 c=7 v=99
11316 Par ch=5 c=7 v=100
11322 Par ch=5 c=7 v=101
11330 Par ch=5 c=7 v=102
11338 Par ch=5 c=7 v=103
11346 Par ch=5 c=7 v=104
11354 Par ch=5 c=7 v=105
11360 Par ch=5 c=7 v=106
11368 Par ch=5 c=7 v=107
11376 Par ch=5 c=7 v=108
11384 Par ch=5 c=7 v=109
11392 Par ch=5 c=7 v=110
11400 Par ch=5 c=7 v=111
11406 Par ch=5 c=7 v=112
11414 Par ch=5 c=7 v=113
11422 Par ch=5 c=7 v=114
11430 Par ch=5 c=7 v=115
11438 Par ch=5 c=7 v=116
11444 Par ch=5 c=7 v=117
11452 Par ch=5 c=7 v=118
11460 On ch=5 n=62 v=0
11460 Par ch=5 c=7 v=119
11468 Par ch=5 c=7 v=120
11476 Par ch=5 c=7 v=121
11482 Par ch=5 c=7 v=122
11490 On ch=5 n=52 v=0
11490 On ch=5 n=59 v=0
11490 On ch=5 n=55 v=0
11490 Par ch=5 c=7 v=123
11498 Par ch=5 c=7 v=124
11506 Par ch=5 c=7 v=125
11514 Par ch=5 c=7 v=126
11520 Par ch=5 c=7 v=64
11520 On ch=5 n=59 v=127
11520 On ch=5 n=50 v=96
11520 On ch=5 n=55 v=127
11528 Par ch=5 c=7 v=65
11536 Par ch=5 c=7 v=66
11544 Par ch=5 c=7 v=67
11552 Par ch=5 c=7 v=68
11560 Par ch=5 c=7 v=69
11566 Par ch=5 c=7 v=70
11574 Par ch=5 c=7 v=71
11582 Par ch=5 c=7 v=72
11590 Par ch=5 c=7 v=73
11598 Par ch=5 c=7 v=74
11604 Par ch=5 c=7 v=75
11612 Par ch=5 c=7 v=76
11620 Par ch=5 c=7 v=77
11628 Par ch=5 c=7 v=78
11636 Par ch=5 c=7 v=79
11642 Par ch=5 c=7 v=80
11650 Par ch=5 c=7 v=81
11658 Par ch=5 c=7 v=82
11666 Par ch=5 c=7 v=83
11670 On ch=5 n=55 v=0
11670 On ch=5 n=50 v=0
11670 On ch=5 n=59 v=0
11674 Par ch=5 c=7 v=84
11680 Par ch=5 c=7 v=85
11688 Par ch=5 c=7 v=86
11696 Par ch=5 c=7 v=87
11700 On ch=5 n=55 v=127
11700 On ch=5 n=50 v=127
11700 On ch=5 n=59 v=127
11704 Par ch=5 c=7 v=88
11712 Par ch=5 c=7 v=89
11720 Par ch=5 c=7 v=90
11726 Par ch=5 c=7 v=91
11730 On ch=5 n=59 v=0
11730 On ch=5 n=50 v=0
11730 On ch=5 n=55 v=0
11730 On ch=5 n=55 v=102
11730 On ch=5 n=59 v=99
11730 On ch=5 n=50 v=111
11734 Par ch=5 c=7 v=92
11742 Par ch=5 c=7 v=93
11750 Par ch=5 c=7 v=94
11758 Par ch=5 c=7 v=95
11764 Par ch=5 c=7 v=96
11772 Par ch=5 c=7 v=97
11780 Par ch=5 c=7 v=98
11788 Par ch=5 c=7 v=99
11796 Par ch=5 c=7 v=100
11802 Par ch=5 c=7 v=101
11810 Par ch=5 c=7 v=102
11818 Par ch=5 c=7 v=103
11826 Par ch=5 c=7 v=104
11834 Par ch=5 c=7 v=105
11840 Par ch=5 c=7 v=106
11848 Par ch=5 c=7 v=107
11856 Par ch=5 c=7 v=108
11864 Par ch=5 c=7 v=109
11872 Par ch=5 c=7 v=110
11880 Par ch=5 c=7 v=111
11886 Par ch=5 c=7 v=112
11894 Par ch=5 c=7 v=113
11902 Par ch=5 c=7 v=114
11910 Par ch=5 c=7 v=115
11918 Par ch=5 c=7 v=116
11924 Par ch=5 c=7 v=117
11932 Par ch=5 c=7 v=118
11940 On ch=5 n=50 v=0
11940 On ch=5 n=59 v=0
11940 Par ch=5 c=7 v=119
11948 Par ch=5 c=7 v=120
11956 Par ch=5 c=7 v=121
11962 Par ch=5 c=7 v=122
11970 On ch=5 n=55 v=0
11970 Par ch=5 c=7 v=123
11978 Par ch=5 c=7 v=124
11986 Par ch=5 c=7 v=125
11994 Par ch=5 c=7 v=126
12000 Par ch=5 c=7 v=127
12000 On ch=5 n=55 v=127
12000 On ch=5 n=52 v=123
12000 On ch=5 n=59 v=123
12150 On ch=5 n=59 v=0
12150 On ch=5 n=52 v=0
12150 On ch=5 n=55 v=0
12180 On ch=5 n=60 v=127
12180 On ch=5 n=57 v=123
12180 On ch=5 n=53 v=114
12210 On ch=5 n=53 v=0
12210 On ch=5 n=57 v=0
12210 On ch=5 n=60 v=0
12300 On ch=5 n=55 v=117
12300 On ch=5 n=52 v=108
12300 On ch=5 n=59 v=102
12330 On ch=5 n=59 v=0
12330 On ch=5 n=52 v=0
12330 On ch=5 n=55 v=0
12360 Par ch=5 c=7 v=64
12360 On ch=5 n=59 v=123
12360 On ch=5 n=55 v=123
12360 On ch=5 n=62 v=123
12368 Par ch=5 c=7 v=65
12376 Par ch=5 c=7 v=66
12384 Par ch=5 c=7 v=67
12392 Par ch=5 c=7 v=68
12400 Par ch=5 c=7 v=69
12406 Par ch=5 c=7 v=70
12414 Par ch=5 c=7 v=71
12422 Par ch=5 c=7 v=72
12430 Par ch=5 c=7 v=73
12438 Par ch=5 c=7 v=74
12444 Par ch=5 c=7 v=75
12452 Par ch=5 c=7 v=76
12460 Par ch=5 c=7 v=77
12468 Par ch=5 c=7 v=78
12476 Par ch=5 c=7 v=79
12482 Par ch=5 c=7 v=80
12490 Par ch=5 c=7 v=81
12498 Par ch=5 c=7 v=82
12506 Par ch=5 c=7 v=83
12514 Par ch=5 c=7 v=84
12520 Par ch=5 c=7 v=85
12528 Par ch=5 c=7 v=86
12536 Par ch=5 c=7 v=87
12544 Par ch=5 c=7 v=88
12552 Par ch=5 c=7 v=89
12560 Par ch=5 c=7 v=90
12566 Par ch=5 c=7 v=91
12574 Par ch=5 c=7 v=92
12582 Par ch=5 c=7 v=93
12590 Par ch=5 c=7 v=94
12598 Par ch=5 c=7 v=95
12604 Par ch=5 c=7 v=96
12612 Par ch=5 c=7 v=97
12620 Par ch=5 c=7 v=98
12628 Par ch=5 c=7 v=99
12636 Par ch=5 c=7 v=100
12642 Par ch=5 c=7 v=101
12650 Par ch=5 c=7 v=102
12658 Par ch=5 c=7 v=103
12666 Par ch=5 c=7 v=104
12674 Par ch=5 c=7 v=105
12680 Par ch=5 c=7 v=106
12688 Par ch=5 c=7 v=107
12696 Par ch=5 c=7 v=108
12704 Par ch=5 c=7 v=109
12712 Par ch=5 c=7 v=110
12720 Par ch=5 c=7 v=111
12726 Par ch=5 c=7 v=112
12734 Par ch=5 c=7 v=113
12742 Par ch=5 c=7 v=114
12750 Par ch=5 c=7 v=115
12758 Par ch=5 c=7 v=116
12764 Par ch=5 c=7 v=117
12772 Par ch=5 c=7 v=118
12780 Par ch=5 c=7 v=119
12788 Par ch=5 c=7 v=120
12796 Par ch=5 c=7 v=121
12802 Par ch=5 c=7 v=122
12810 Par ch=5 c=7 v=123
12818 Par ch=5 c=7 v=124
12826 Par ch=5 c=7 v=125
12834 Par ch=5 c=7 v=126
12840 Par ch=5 c=7 v=127
12960 On ch=5 n=62 v=0
12960 On ch=5 n=55 v=0
12960 On ch=5 n=59 v=0
12960 On ch=5 n=55 v=127
12960 On ch=5 n=48 v=127
12961 Par ch=5 c=7 v=64
12970 Par ch=5 c=7 v=65
12978 Par ch=5 c=7 v=66
12985 Par ch=5 c=7 v=67
12993 Par ch=5 c=7 v=68
13000 Par ch=5 c=7 v=69
13008 Par ch=5 c=7 v=70
13015 Par ch=5 c=7 v=71
13023 Par ch=5 c=7 v=72
13030 Par ch=5 c=7 v=73
13038 Par ch=5 c=7 v=74
13046 Par ch=5 c=7 v=75
13053 Par ch=5 c=7 v=76
13061 Par ch=5 c=7 v=77
13068 Par ch=5 c=7 v=78
13076 Par ch=5 c=7 v=79
13083 Par ch=5 c=7 v=80
13091 Par ch=5 c=7 v=81
13098 Par ch=5 c=7 v=82
13106 Par ch=5 c=7 v=83
13110 On ch=5 n=48 v=0
13110 On ch=5 n=55 v=0
13115 Par ch=5 c=7 v=84
13121 Par ch=5 c=7 v=85
13130 Par ch=5 c=7 v=86
13136 Par ch=5 c=7 v=87
13140 On ch=5 n=48 v=127
13140 On ch=5 n=55 v=120
13145 Par ch=5 c=7 v=88
13151 Par ch=5 c=7 v=89
13160 Par ch=5 c=7 v=90
13166 Par ch=5 c=7 v=91
13170 On ch=5 n=55 v=0
13170 On ch=5 n=48 v=0
13170 On ch=5 n=55 v=123
13170 On ch=5 n=48 v=127
13175 Par ch=5 c=7 v=92
13183 Par ch=5 c=7 v=93
13190 Par ch=5 c=7 v=94
13198 Par ch=5 c=7 v=95
13205 Par ch=5 c=7 v=96
13213 Par ch=5 c=7 v=97
13220 Par ch=5 c=7 v=98
13228 Par ch=5 c=7 v=99
13235 Par ch=5 c=7 v=100
13243 Par ch=5 c=7 v=101
13251 Par ch=5 c=7 v=102
13258 Par ch=5 c=7 v=103
13266 Par ch=5 c=7 v=104
13273 Par ch=5 c=7 v=105
13281 Par ch=5 c=7 v=106
13288 Par ch=5 c=7 v=107
13296 Par ch=5 c=7 v=108
13303 Par ch=5 c=7 v=109
13311 Par ch=5 c=7 v=110
13320 Par ch=5 c=7 v=111
13326 Par ch=5 c=7 v=112
13335 Par ch=5 c=7 v=113
13341 Par ch=5 c=7 v=114
13350 Par ch=5 c=7 v=115
13356 Par ch=5 c=7 v=116
13365 Par ch=5 c=7 v=117
13371 Par ch=5 c=7 v=118
13380 On ch=5 n=48 v=0
13380 On ch=5 n=55 v=0
13380 Par ch=5 c=7 v=119
13388 Par ch=5 c=7 v=120
13395 Par ch=5 c=7 v=121
13403 Par ch=5 c=7 v=122
13410 Par ch=5 c=7 v=123
13418 Par ch=5 c=7 v=124
13425 Par ch=5 c=7 v=125
13433 Par ch=5 c=7 v=126
13440 Par ch=5 c=7 v=127
13440 On ch=5 n=50 v=127
13440 On ch=5 n=43 v=127
13441 Par ch=5 c=7 v=64
13450 Par ch=5 c=7 v=65
13458 Par ch=5 c=7 v=66
13465 Par ch=5 c=7 v=67
13473 Par ch=5 c=7 v=68
13480 Par ch=5 c=7 v=69
13488 Par ch=5 c=7 v=70
13495 Par ch=5 c=7 v=71
13503 Par ch=5 c=7 v=72
13510 Par ch=5 c=7 v=73
13518 Par ch=5 c=7 v=74
13525 Par ch=5 c=7 v=75
13533 Par ch=5 c=7 v=76
13541 Par ch=5 c=7 v=77
13548 Par ch=5 c=7 v=78
13556 Par ch=5 c=7 v=79
13563 Par ch=5 c=7 v=80
13571 Par ch=5 c=7 v=81
13578 Par ch=5 c=7 v=82
13586 Par ch=5 c=7 v=83
13590 On ch=5 n=43 v=0
13590 On ch=5 n=50 v=0
13593 Par ch=5 c=7 v=84
13601 Par ch=5 c=7 v=85
13608 Par ch=5 c=7 v=86
13616 Par ch=5 c=7 v=87
13620 On ch=5 n=50 v=127
13620 On ch=5 n=43 v=127
13623 Par ch=5 c=7 v=88
13631 Par ch=5 c=7 v=89
13640 Par ch=5 c=7 v=90
13646 Par ch=5 c=7 v=91
13650 On ch=5 n=43 v=0
13650 On ch=5 n=50 v=0
13650 On ch=5 n=50 v=127
13650 On ch=5 n=43 v=127
13655 Par ch=5 c=7 v=92
13661 Par ch=5 c=7 v=93
13670 Par ch=5 c=7 v=94
13676 Par ch=5 c=7 v=95
13685 Par ch=5 c=7 v=96
13691 Par ch=5 c=7 v=97
13700 Par ch=5 c=7 v=98
13706 Par ch=5 c=7 v=99
13715 Par ch=5 c=7 v=100
13721 Par ch=5 c=7 v=101
13730 Par ch=5 c=7 v=102
13738 Par ch=5 c=7 v=103
13745 Par ch=5 c=7 v=104
13753 Par ch=5 c=7 v=105
13760 Par ch=5 c=7 v=106
13768 Par ch=5 c=7 v=107
13775 Par ch=5 c=7 v=108
13783 Par ch=5 c=7 v=109
13790 Par ch=5 c=7 v=110
13798 Par ch=5 c=7 v=111
13805 Par ch=5 c=7 v=112
13813 Par ch=5 c=7 v=113
13820 Par ch=5 c=7 v=114
13828 Par ch=5 c=7 v=115
13836 Par ch=5 c=7 v=116
13843 Par ch=5 c=7 v=117
13851 Par ch=5 c=7 v=118
13858 Par ch=5 c=7 v=119
13866 Par ch=5 c=7 v=120
13873 Par ch=5 c=7 v=121
13881 Par ch=5 c=7 v=122
13888 Par ch=5 c=7 v=123
13890 On ch=5 n=43 v=0
13890 On ch=5 n=50 v=0
13896 Par ch=5 c=7 v=124
13903 Par ch=5 c=7 v=125
13911 Par ch=5 c=7 v=126
13918 Par ch=5 c=7 v=127
13920 Par ch=5 c=7 v=64
13920 On ch=5 n=41 v=127
13920 On ch=5 n=48 v=127
13928 Par ch=5 c=7 v=65
13936 Par ch=5 c=7 v=66
13944 Par ch=5 c=7 v=67
13952 Par ch=5 c=7 v=68
13960 Par ch=5 c=7 v=69
13966 Par ch=5 c=7 v=70
13974 Par ch=5 c=7 v=71
13982 Par ch=5 c=7 v=72
13990 Par ch=5 c=7 v=73
13998 Par ch=5 c=7 v=74
14004 Par ch=5 c=7 v=75
14012 Par ch=5 c=7 v=76
14020 Par ch=5 c=7 v=77
14028 Par ch=5 c=7 v=78
14036 Par ch=5 c=7 v=79
14042 Par ch=5 c=7 v=80
14050 Par ch=5 c=7 v=81
14058 Par ch=5 c=7 v=82
14066 Par ch=5 c=7 v=83
14070 On ch=5 n=48 v=0
14070 On ch=5 n=41 v=0
14074 Par ch=5 c=7 v=84
14080 Par ch=5 c=7 v=85
14088 Par ch=5 c=7 v=86
14096 Par ch=5 c=7 v=87
14100 On ch=5 n=41 v=127
14100 On ch=5 n=48 v=127
14104 Par ch=5 c=7 v=88
14112 Par ch=5 c=7 v=89
14120 Par ch=5 c=7 v=90
14126 Par ch=5 c=7 v=91
14130 On ch=5 n=48 v=0
14130 On ch=5 n=41 v=0
14130 On ch=5 n=48 v=127
14130 On ch=5 n=41 v=127
14134 Par ch=5 c=7 v=92
14142 Par ch=5 c=7 v=93
14150 Par ch=5 c=7 v=94
14158 Par ch=5 c=7 v=95
14164 Par ch=5 c=7 v=96
14172 Par ch=5 c=7 v=97
14180 Par ch=5 c=7 v=98
14188 Par ch=5 c=7 v=99
14196 Par ch=5 c=7 v=100
14202 Par ch=5 c=7 v=101
14210 Par ch=5 c=7 v=102
14218 Par ch=5 c=7 v=103
14226 Par ch=5 c=7 v=104
14234 Par ch=5 c=7 v=105
14240 Par ch=5 c=7 v=106
14248 Par ch=5 c=7 v=107
14256 Par ch=5 c=7 v=108
14264 Par ch=5 c=7 v=109
14272 Par ch=5 c=7 v=110
14280 Par ch=5 c=7 v=111
14286 Par ch=5 c=7 v=112
14294 Par ch=5 c=7 v=113
14302 Par ch=5 c=7 v=114
14310 Par ch=5 c=7 v=115
14318 Par ch=5 c=7 v=116
14324 Par ch=5 c=7 v=117
14332 Par ch=5 c=7 v=118
14340 Par ch=5 c=7 v=119
14348 Par ch=5 c=7 v=120
14356 Par ch=5 c=7 v=121
14362 Par ch=5 c=7 v=122
14370 On ch=5 n=41 v=0
14370 On ch=5 n=48 v=0
14370 Par ch=5 c=7 v=123
14378 Par ch=5 c=7 v=124
14386 Par ch=5 c=7 v=125
14394 Par ch=5 c=7 v=126
14400 Par ch=5 c=7 v=64
14400 On ch=5 n=43 v=127
14400 On ch=5 n=50 v=127
14408 Par ch=5 c=7 v=65
14416 Par ch=5 c=7 v=66
14424 Par ch=5 c=7 v=67
14432 Par ch=5 c=7 v=68
14440 Par ch=5 c=7 v=69
14446 Par ch=5 c=7 v=70
14454 Par ch=5 c=7 v=71
14462 Par ch=5 c=7 v=72
14470 Par ch=5 c=7 v=73
14478 Par ch=5 c=7 v=74
14484 Par ch=5 c=7 v=75
14492 Par ch=5 c=7 v=76
14500 Par ch=5 c=7 v=77
14508 Par ch=5 c=7 v=78
14516 Par ch=5 c=7 v=79
14522 Par ch=5 c=7 v=80
14530 Par ch=5 c=7 v=81
14538 Par ch=5 c=7 v=82
14546 Par ch=5 c=7 v=83
14550 On ch=5 n=50 v=0
14550 On ch=5 n=43 v=0
14554 Par ch=5 c=7 v=84
14560 Par ch=5 c=7 v=85
14568 Par ch=5 c=7 v=86
14576 Par ch=5 c=7 v=87
14580 On ch=5 n=50 v=127
14580 On ch=5 n=43 v=127
14584 Par ch=5 c=7 v=88
14592 Par ch=5 c=7 v=89
14600 Par ch=5 c=7 v=90
14606 Par ch=5 c=7 v=91
14610 On ch=5 n=43 v=0
14610 On ch=5 n=50 v=0
14610 On ch=5 n=50 v=127
14610 On ch=5 n=43 v=127
14614 Par ch=5 c=7 v=92
14622 Par ch=5 c=7 v=93
14630 Par ch=5 c=7 v=94
14638 Par ch=5 c=7 v=95
14644 Par ch=5 c=7 v=96
14652 Par ch=5 c=7 v=97
14660 Par ch=5 c=7 v=98
14668 Par ch=5 c=7 v=99
14676 Par ch=5 c=7 v=100
14682 Par ch=5 c=7 v=101
14690 Par ch=5 c=7 v=102
14698 Par ch=5 c=7 v=103
14706 Par ch=5 c=7 v=104
14714 Par ch=5 c=7 v=105
14720 Par ch=5 c=7 v=106
14728 Par ch=5 c=7 v=107
14736 Par ch=5 c=7 v=108
14744 Par ch=5 c=7 v=109
14752 Par ch=5 c=7 v=110
14760 Par ch=5 c=7 v=111
14766 Par ch=5 c=7 v=112
14774 Par ch=5 c=7 v=113
14782 Par ch=5 c=7 v=114
14790 Par ch=5 c=7 v=115
14798 Par ch=5 c=7 v=116
14804 Par ch=5 c=7 v=117
14812 Par ch=5 c=7 v=118
14820 On ch=5 n=43 v=0
14820 On ch=5 n=50 v=0
14820 Par ch=5 c=7 v=119
14828 Par ch=5 c=7 v=120
14836 Par ch=5 c=7 v=121
14842 Par ch=5 c=7 v=122
14850 Par ch=5 c=7 v=123
14858 Par ch=5 c=7 v=124
14866 Par ch=5 c=7 v=125
14874 Par ch=5 c=7 v=126
14880 Par ch=5 c=7 v=64
14880 On ch=5 n=48 v=127
14880 On ch=5 n=55 v=127
14888 Par ch=5 c=7 v=65
14896 Par ch=5 c=7 v=66
14904 Par ch=5 c=7 v=67
14912 Par ch=5 c=7 v=68
14920 Par ch=5 c=7 v=69
14926 Par ch=5 c=7 v=70
14934 Par ch=5 c=7 v=71
14942 Par ch=5 c=7 v=72
14950 Par ch=5 c=7 v=73
14958 Par ch=5 c=7 v=74
14964 Par ch=5 c=7 v=75
14972 Par ch=5 c=7 v=76
14980 Par ch=5 c=7 v=77
14988 Par ch=5 c=7 v=78
14996 Par ch=5 c=7 v=79
15002 Par ch=5 c=7 v=80
15010 Par ch=5 c=7 v=81
15018 Par ch=5 c=7 v=82
15026 Par ch=5 c=7 v=83
15030 On ch=5 n=55 v=0
15030 On ch=5 n=48 v=0
15034 Par ch=5 c=7 v=84
15040 Par ch=5 c=7 v=85
15048 Par ch=5 c=7 v=86
15056 Par ch=5 c=7 v=87
15060 On ch=5 n=48 v=127
15060 On ch=5 n=55 v=127
15064 Par ch=5 c=7 v=88
15072 Par ch=5 c=7 v=89
15080 Par ch=5 c=7 v=90
15086 Par ch=5 c=7 v=91
15090 On ch=5 n=55 v=0
15090 On ch=5 n=48 v=0
15090 On ch=5 n=55 v=114
15090 On ch=5 n=48 v=127
15094 Par ch=5 c=7 v=92
15102 Par ch=5 c=7 v=93
15110 Par ch=5 c=7 v=94
15118 Par ch=5 c=7 v=95
15124 Par ch=5 c=7 v=96
15132 Par ch=5 c=7 v=97
15140 Par ch=5 c=7 v=98
15148 Par ch=5 c=7 v=99
15156 Par ch=5 c=7 v=100
15162 Par ch=5 c=7 v=101
15170 Par ch=5 c=7 v=102
15178 Par ch=5 c=7 v=103
15186 Par ch=5 c=7 v=104
15194 Par ch=5 c=7 v=105
15200 Par ch=5 c=7 v=106
15208 Par ch=5 c=7 v=107
15216 Par ch=5 c=7 v=108
15224 Par ch=5 c=7 v=109
15232 Par ch=5 c=7 v=110
15240 Par ch=5 c=7 v=111
15246 Par ch=5 c=7 v=112
15254 Par ch=5 c=7 v=113
15262 Par ch=5 c=7 v=114
15270 On ch=5 n=48 v=0
15270 On ch=5 n=55 v=0
15270 Par ch=5 c=7 v=115
15278 Par ch=5 c=7 v=116
15284 Par ch=5 c=7 v=117
15292 Par ch=5 c=7 v=118
15300 Par ch=5 c=7 v=119
15308 Par ch=5 c=7 v=120
15316 Par ch=5 c=7 v=121
15322 Par ch=5 c=7 v=122
15330 Par ch=5 c=7 v=123
15338 Par ch=5 c=7 v=124
15346 Par ch=5 c=7 v=125
15354 Par ch=5 c=7 v=126
15360 Par ch=5 c=7 v=64
15360 On ch=5 n=43 v=127
15360 On ch=5 n=50 v=127
15368 Par ch=5 c=7 v=65
15376 Par ch=5 c=7 v=66
15384 Par ch=5 c=7 v=67
15392 Par ch=5 c=7 v=68
15400 Par ch=5 c=7 v=69
15406 Par ch=5 c=7 v=70
15414 Par ch=5 c=7 v=71
15422 Par ch=5 c=7 v=72
15430 Par ch=5 c=7 v=73
15438 Par ch=5 c=7 v=74
15444 Par ch=5 c=7 v=75
15452 Par ch=5 c=7 v=76
15460 Par ch=5 c=7 v=77
15468 Par ch=5 c=7 v=78
15476 Par ch=5 c=7 v=79
15482 Par ch=5 c=7 v=80
15490 Par ch=5 c=7 v=81
15498 Par ch=5 c=7 v=82
15506 Par ch=5 c=7 v=83
15510 On ch=5 n=50 v=0
15510 On ch=5 n=43 v=0
15514 Par ch=5 c=7 v=84
15520 Par ch=5 c=7 v=85
15528 Par ch=5 c=7 v=86
15536 Par ch=5 c=7 v=87
15540 On ch=5 n=43 v=127
15540 On ch=5 n=50 v=127
15544 Par ch=5 c=7 v=88
15552 Par ch=5 c=7 v=89
15560 Par ch=5 c=7 v=90
15566 Par ch=5 c=7 v=91
15570 On ch=5 n=50 v=0
15570 On ch=5 n=43 v=0
15570 On ch=5 n=50 v=127
15570 On ch=5 n=43 v=127
15574 Par ch=5 c=7 v=92
15582 Par ch=5 c=7 v=93
15590 Par ch=5 c=7 v=94
15598 Par ch=5 c=7 v=95
15604 Par ch=5 c=7 v=96
15612 Par ch=5 c=7 v=97
15620 Par ch=5 c=7 v=98
15628 Par ch=5 c=7 v=99
15636 Par ch=5 c=7 v=100
15642 Par ch=5 c=7 v=101
15650 Par ch=5 c=7 v=102
15658 Par ch=5 c=7 v=103
15666 Par ch=5 c=7 v=104
15674 Par ch=5 c=7 v=105
15680 Par ch=5 c=7 v=106
15688 Par ch=5 c=7 v=107
15696 Par ch=5 c=7 v=108
15704 Par ch=5 c=7 v=109
15712 Par ch=5 c=7 v=110
15720 Par ch=5 c=7 v=111
15726 Par ch=5 c=7 v=112
15734 Par ch=5 c=7 v=113
15742 Par ch=5 c=7 v=114
15750 Par ch=5 c=7 v=115
15758 Par ch=5 c=7 v=116
15764 Par ch=5 c=7 v=117
15772 Par ch=5 c=7 v=118
15780 On ch=5 n=43 v=0
15780 On ch=5 n=50 v=0
15780 Par ch=5 c=7 v=119
15788 Par ch=5 c=7 v=120
15796 Par ch=5 c=7 v=121
15802 Par ch=5 c=7 v=122
15810 Par ch=5 c=7 v=123
15818 Par ch=5 c=7 v=124
15826 Par ch=5 c=7 v=125
15834 Par ch=5 c=7 v=126
15840 Par ch=5 c=7 v=64
15840 On ch=5 n=48 v=127
15840 On ch=5 n=41 v=127
15848 Par ch=5 c=7 v=65
15856 Par ch=5 c=7 v=66
15864 Par ch=5 c=7 v=67
15872 Par ch=5 c=7 v=68
15880 Par ch=5 c=7 v=69
15886 Par ch=5 c=7 v=70
15894 Par ch=5 c=7 v=71
15902 Par ch=5 c=7 v=72
15910 Par ch=5 c=7 v=73
15918 Par ch=5 c=7 v=74
15924 Par ch=5 c=7 v=75
15932 Par ch=5 c=7 v=76
15940 Par ch=5 c=7 v=77
15948 Par ch=5 c=7 v=78
15956 Par ch=5 c=7 v=79
15960 On ch=5 n=41 v=0
15960 On ch=5 n=48 v=0
15962 Par ch=5 c=7 v=80
15970 Par ch=5 c=7 v=81
15978 Par ch=5 c=7 v=82
15986 Par ch=5 c=7 v=83
15990 On ch=5 n=41 v=127
15994 Par ch=5 c=7 v=84
16000 Par ch=5 c=7 v=85
16008 Par ch=5 c=7 v=86
16016 Par ch=5 c=7 v=87
16020 On ch=5 n=41 v=0
16020 On ch=5 n=48 v=123
16024 Par ch=5 c=7 v=88
16032 Par ch=5 c=7 v=89
16040 Par ch=5 c=7 v=90
16046 Par ch=5 c=7 v=91
16050 On ch=5 n=48 v=0
16050 On ch=5 n=48 v=123
16050 On ch=5 n=41 v=127
16054 Par ch=5 c=7 v=92
16062 Par ch=5 c=7 v=93
16070 Par ch=5 c=7 v=94
16078 Par ch=5 c=7 v=95
16084 Par ch=5 c=7 v=96
16092 Par ch=5 c=7 v=97
16100 Par ch=5 c=7 v=98
16108 Par ch=5 c=7 v=99
16116 Par ch=5 c=7 v=100
16122 Par ch=5 c=7 v=101
16130 Par ch=5 c=7 v=102
16138 Par ch=5 c=7 v=103
16146 Par ch=5 c=7 v=104
16154 Par ch=5 c=7 v=105
16160 Par ch=5 c=7 v=106
16168 Par ch=5 c=7 v=107
16176 Par ch=5 c=7 v=108
16184 Par ch=5 c=7 v=109
16192 Par ch=5 c=7 v=110
16200 Par ch=5 c=7 v=111
16206 Par ch=5 c=7 v=112
16214 Par ch=5 c=7 v=113
16222 Par ch=5 c=7 v=114
16230 Par ch=5 c=7 v=115
16238 Par ch=5 c=7 v=116
16244 Par ch=5 c=7 v=117
16252 Par ch=5 c=7 v=118
16260 On ch=5 n=41 v=0
16260 On ch=5 n=48 v=0
16260 Par ch=5 c=7 v=119
16268 Par ch=5 c=7 v=120
16276 Par ch=5 c=7 v=121
16282 Par ch=5 c=7 v=122
16290 Par ch=5 c=7 v=123
16298 Par ch=5 c=7 v=124
16306 Par ch=5 c=7 v=125
16314 Par ch=5 c=7 v=126
16320 Par ch=5 c=7 v=64
16320 On ch=5 n=50 v=127
16320 On ch=5 n=43 v=127
16328 Par ch=5 c=7 v=65
16336 Par ch=5 c=7 v=66
16344 Par ch=5 c=7 v=67
16352 Par ch=5 c=7 v=68
16360 Par ch=5 c=7 v=69
16366 Par ch=5 c=7 v=70
16374 Par ch=5 c=7 v=71
16382 Par ch=5 c=7 v=72
16390 Par ch=5 c=7 v=73
16398 Par ch=5 c=7 v=74
16404 Par ch=5 c=7 v=75
16412 Par ch=5 c=7 v=76
16420 Par ch=5 c=7 v=77
16428 Par ch=5 c=7 v=78
16436 Par ch=5 c=7 v=79
16442 Par ch=5 c=7 v=80
16450 Par ch=5 c=7 v=81
16458 Par ch=5 c=7 v=82
16466 Par ch=5 c=7 v=83
16470 On ch=5 n=43 v=0
16470 On ch=5 n=50 v=0
16474 Par ch=5 c=7 v=84
16480 Par ch=5 c=7 v=85
16488 Par ch=5 c=7 v=86
16496 Par ch=5 c=7 v=87
16500 On ch=5 n=43 v=127
16500 On ch=5 n=50 v=127
16504 Par ch=5 c=7 v=88
16512 Par ch=5 c=7 v=89
16520 Par ch=5 c=7 v=90
16526 Par ch=5 c=7 v=91
16530 On ch=5 n=50 v=0
16530 On ch=5 n=43 v=0
16530 On ch=5 n=43 v=127
16530 On ch=5 n=50 v=127
16534 Par ch=5 c=7 v=92
16542 Par ch=5 c=7 v=93
16550 Par ch=5 c=7 v=94
16558 Par ch=5 c=7 v=95
16564 Par ch=5 c=7 v=96
16572 Par ch=5 c=7 v=97
16580 Par ch=5 c=7 v=98
16588 Par ch=5 c=7 v=99
16596 Par ch=5 c=7 v=100
16602 Par ch=5 c=7 v=101
16610 Par ch=5 c=7 v=102
16618 Par ch=5 c=7 v=103
16626 Par ch=5 c=7 v=104
16634 Par ch=5 c=7 v=105
16640 Par ch=5 c=7 v=106
16648 Par ch=5 c=7 v=107
16656 Par ch=5 c=7 v=108
16664 Par ch=5 c=7 v=109
16672 Par ch=5 c=7 v=110
16680 Par ch=5 c=7 v=111
16686 Par ch=5 c=7 v=112
16694 Par ch=5 c=7 v=113
16702 Par ch=5 c=7 v=114
16710 Par ch=5 c=7 v=115
16718 Par ch=5 c=7 v=116
16724 Par ch=5 c=7 v=117
16732 Par ch=5 c=7 v=118
16740 On ch=5 n=50 v=0
16740 On ch=5 n=43 v=0
16740 Par ch=5 c=7 v=119
16748 Par ch=5 c=7 v=120
16756 Par ch=5 c=7 v=121
16762 Par ch=5 c=7 v=122
16770 Par ch=5 c=7 v=123
16778 Par ch=5 c=7 v=124
16786 Par ch=5 c=7 v=125
16794 Par ch=5 c=7 v=126
16800 On ch=5 n=52 v=127
16800 On ch=5 n=55 v=127
16800 On ch=5 n=60 v=127
16830 On ch=5 n=60 v=0
16830 On ch=5 n=55 v=0
16830 On ch=5 n=52 v=0
16980 On ch=5 n=52 v=120
16980 On ch=5 n=55 v=127
16980 On ch=5 n=60 v=127
17010 On ch=5 n=60 v=0
17010 On ch=5 n=55 v=0
17010 On ch=5 n=52 v=0
17040 On ch=5 n=57 v=127
17040 On ch=5 n=53 v=127
17040 On ch=5 n=60 v=127
17070 On ch=5 n=60 v=0
17070 On ch=5 n=53 v=0
17070 On ch=5 n=57 v=0
17220 On ch=5 n=57 v=105
17220 On ch=5 n=53 v=114
17220 On ch=5 n=60 v=105
17250 On ch=5 n=60 v=0
17250 On ch=5 n=53 v=0
17250 On ch=5 n=57 v=0
17280 On ch=5 n=59 v=127
17280 On ch=5 n=55 v=127
17280 On ch=5 n=50 v=127
17310 On ch=5 n=50 v=0
17310 On ch=5 n=55 v=0
17310 On ch=5 n=59 v=0
17460 On ch=5 n=53 v=127
17460 On ch=5 n=48 v=127
17460 On ch=5 n=57 v=127
17490 On ch=5 n=57 v=0
17490 On ch=5 n=48 v=0
17490 On ch=5 n=53 v=0
17580 On ch=5 n=50 v=127
17580 On ch=5 n=55 v=127
17580 On ch=5 n=59 v=127
17610 On ch=5 n=59 v=0
17610 On ch=5 n=55 v=0
17610 On ch=5 n=50 v=0
17760 On ch=5 n=52 v=127
17760 On ch=5 n=55 v=127
17760 On ch=5 n=60 v=127
17790 On ch=5 n=60 v=0
17790 On ch=5 n=55 v=0
17790 On ch=5 n=52 v=0
17940 On ch=5 n=52 v=120
17940 On ch=5 n=55 v=127
17940 On ch=5 n=60 v=120
17970 On ch=5 n=60 v=0
17970 On ch=5 n=55 v=0
17970 On ch=5 n=52 v=0
18000 On ch=5 n=57 v=127
18000 On ch=5 n=53 v=127
18000 On ch=5 n=60 v=127
18030 On ch=5 n=60 v=0
18030 On ch=5 n=53 v=0
18030 On ch=5 n=57 v=0
18180 On ch=5 n=57 v=117
18180 On ch=5 n=53 v=108
18180 On ch=5 n=60 v=127
18210 On ch=5 n=60 v=0
18210 On ch=5 n=53 v=0
18210 On ch=5 n=57 v=0
18240 On ch=5 n=59 v=127
18240 On ch=5 n=55 v=127
18240 On ch=5 n=50 v=127
18270 On ch=5 n=50 v=0
18270 On ch=5 n=55 v=0
18270 On ch=5 n=59 v=0
18420 On ch=5 n=48 v=127
18420 On ch=5 n=53 v=127
18420 On ch=5 n=57 v=127
18450 On ch=5 n=57 v=0
18450 On ch=5 n=53 v=0
18450 On ch=5 n=48 v=0
18540 On ch=5 n=59 v=127
18540 On ch=5 n=50 v=127
18540 On ch=5 n=55 v=127
18570 On ch=5 n=55 v=0
18570 On ch=5 n=50 v=0
18570 On ch=5 n=59 v=0
18720 On ch=5 n=55 v=101
18720 On ch=5 n=50 v=101
18720 On ch=5 n=43 v=101
19650 On ch=5 n=43 v=0
19650 On ch=5 n=50 v=0
19650 On ch=5 n=55 v=0
19680 On ch=5 n=55 v=127
19680 On ch=5 n=48 v=127
19681 Par ch=5 c=7 v=64
19690 Par ch=5 c=7 v=65
19698 Par ch=5 c=7 v=66
19705 Par ch=5 c=7 v=67
19713 Par ch=5 c=7 v=68
19720 Par ch=5 c=7 v=69
19728 Par ch=5 c=7 v=70
19735 Par ch=5 c=7 v=71
19743 Par ch=5 c=7 v=72
19750 Par ch=5 c=7 v=73
19758 Par ch=5 c=7 v=74
19766 Par ch=5 c=7 v=75
19773 Par ch=5 c=7 v=76
19781 Par ch=5 c=7 v=77
19788 Par ch=5 c=7 v=78
19796 Par ch=5 c=7 v=79
19803 Par ch=5 c=7 v=80
19811 Par ch=5 c=7 v=81
19818 Par ch=5 c=7 v=82
19826 Par ch=5 c=7 v=83
19830 On ch=5 n=48 v=0
19830 On ch=5 n=55 v=0
19835 Par ch=5 c=7 v=84
19841 Par ch=5 c=7 v=85
19850 Par ch=5 c=7 v=86
19856 Par ch=5 c=7 v=87
19860 On ch=5 n=48 v=127
19860 On ch=5 n=55 v=120
19865 Par ch=5 c=7 v=88
19871 Par ch=5 c=7 v=89
19880 Par ch=5 c=7 v=90
19886 Par ch=5 c=7 v=91
19890 On ch=5 n=55 v=0
19890 On ch=5 n=48 v=0
19890 On ch=5 n=55 v=123
19890 On ch=5 n=48 v=127
19895 Par ch=5 c=7 v=92
19903 Par ch=5 c=7 v=93
19910 Par ch=5 c=7 v=94
19918 Par ch=5 c=7 v=95
19925 Par ch=5 c=7 v=96
19933 Par ch=5 c=7 v=97
19940 Par ch=5 c=7 v=98
19948 Par ch=5 c=7 v=99
19955 Par ch=5 c=7 v=100
19963 Par ch=5 c=7 v=101
19971 Par ch=5 c=7 v=102
19978 Par ch=5 c=7 v=103
19986 Par ch=5 c=7 v=104
19993 Par ch=5 c=7 v=105
20001 Par ch=5 c=7 v=106
20008 Par ch=5 c=7 v=107
20016 Par ch=5 c=7 v=108
20023 Par ch=5 c=7 v=109
20031 Par ch=5 c=7 v=110
20040 Par ch=5 c=7 v=111
20046 Par ch=5 c=7 v=112
20055 Par ch=5 c=7 v=113
20061 Par ch=5 c=7 v=114
20070 Par ch=5 c=7 v=115
20076 Par ch=5 c=7 v=116
20085 Par ch=5 c=7 v=117
20091 Par ch=5 c=7 v=118
20100 On ch=5 n=48 v=0
20100 On ch=5 n=55 v=0
20100 Par ch=5 c=7 v=119
20108 Par ch=5 c=7 v=120
20115 Par ch=5 c=7 v=121
20123 Par ch=5 c=7 v=122
20130 Par ch=5 c=7 v=123
20138 Par ch=5 c=7 v=124
20145 Par ch=5 c=7 v=125
20153 Par ch=5 c=7 v=126
20160 Par ch=5 c=7 v=127
20160 On ch=5 n=50 v=127
20160 On ch=5 n=43 v=127
20161 Par ch=5 c=7 v=64
20170 Par ch=5 c=7 v=65
20178 Par ch=5 c=7 v=66
20185 Par ch=5 c=7 v=67
20193 Par ch=5 c=7 v=68
20200 Par ch=5 c=7 v=69
20208 Par ch=5 c=7 v=70
20215 Par ch=5 c=7 v=71
20223 Par ch=5 c=7 v=72
20230 Par ch=5 c=7 v=73
20238 Par ch=5 c=7 v=74
20245 Par ch=5 c=7 v=75
20253 Par ch=5 c=7 v=76
20261 Par ch=5 c=7 v=77
20268 Par ch=5 c=7 v=78
20276 Par ch=5 c=7 v=79
20283 Par ch=5 c=7 v=80
20291 Par ch=5 c=7 v=81
20298 Par ch=5 c=7 v=82
20306 Par ch=5 c=7 v=83
20310 On ch=5 n=43 v=0
20310 On ch=5 n=50 v=0
20313 Par ch=5 c=7 v=84
20321 Par ch=5 c=7 v=85
20328 Par ch=5 c=7 v=86
20336 Par ch=5 c=7 v=87
20340 On ch=5 n=50 v=127
20340 On ch=5 n=43 v=127
20343 Par ch=5 c=7 v=88
20351 Par ch=5 c=7 v=89
20360 Par ch=5 c=7 v=90
20366 Par ch=5 c=7 v=91
20370 On ch=5 n=43 v=0
20370 On ch=5 n=50 v=0
20370 On ch=5 n=50 v=127
20370 On ch=5 n=43 v=127
20375 Par ch=5 c=7 v=92
20381 Par ch=5 c=7 v=93
20390 Par ch=5 c=7 v=94
20396 Par ch=5 c=7 v=95
20405 Par ch=5 c=7 v=96
20411 Par ch=5 c=7 v=97
20420 Par ch=5 c=7 v=98
20426 Par ch=5 c=7 v=99
20435 Par ch=5 c=7 v=100
20441 Par ch=5 c=7 v=101
20450 Par ch=5 c=7 v=102
20458 Par ch=5 c=7 v=103
20465 Par ch=5 c=7 v=104
20473 Par ch=5 c=7 v=105
20480 Par ch=5 c=7 v=106
20488 Par ch=5 c=7 v=107
20495 Par ch=5 c=7 v=108
20503 Par ch=5 c=7 v=109
20510 Par ch=5 c=7 v=110
20518 Par ch=5 c=7 v=111
20525 Par ch=5 c=7 v=112
20533 Par ch=5 c=7 v=113
20540 Par ch=5 c=7 v=114
20548 Par ch=5 c=7 v=115
20556 Par ch=5 c=7 v=116
20563 Par ch=5 c=7 v=117
20571 Par ch=5 c=7 v=118
20578 Par ch=5 c=7 v=119
20586 Par ch=5 c=7 v=120
20593 Par ch=5 c=7 v=121
20601 Par ch=5 c=7 v=122
20608 Par ch=5 c=7 v=123
20610 On ch=5 n=43 v=0
20610 On ch=5 n=50 v=0
20616 Par ch=5 c=7 v=124
20623 Par ch=5 c=7 v=125
20631 Par ch=5 c=7 v=126
20638 Par ch=5 c=7 v=127
20640 Par ch=5 c=7 v=64
20640 On ch=5 n=41 v=127
20640 On ch=5 n=48 v=127
20648 Par ch=5 c=7 v=65
20656 Par ch=5 c=7 v=66
20664 Par ch=5 c=7 v=67
20672 Par ch=5 c=7 v=68
20680 Par ch=5 c=7 v=69
20686 Par ch=5 c=7 v=70
20694 Par ch=5 c=7 v=71
20702 Par ch=5 c=7 v=72
20710 Par ch=5 c=7 v=73
20718 Par ch=5 c=7 v=74
20724 Par ch=5 c=7 v=75
20732 Par ch=5 c=7 v=76
20740 Par ch=5 c=7 v=77
20748 Par ch=5 c=7 v=78
20756 Par ch=5 c=7 v=79
20762 Par ch=5 c=7 v=80
20770 Par ch=5 c=7 v=81
20778 Par ch=5 c=7 v=82
20786 Par ch=5 c=7 v=83
20790 On ch=5 n=48 v=0
20790 On ch=5 n=41 v=0
20794 Par ch=5 c=7 v=84
20800 Par ch=5 c=7 v=85
20808 Par ch=5 c=7 v=86
20816 Par ch=5 c=7 v=87
20820 On ch=5 n=41 v=127
20820 On ch=5 n=48 v=127
20824 Par ch=5 c=7 v=88
20832 Par ch=5 c=7 v=89
20840 Par ch=5 c=7 v=90
20846 Par ch=5 c=7 v=91
20850 On ch=5 n=48 v=0
20850 On ch=5 n=41 v=0
20850 On ch=5 n=48 v=127
20850 On ch=5 n=41 v=127
20854 Par ch=5 c=7 v=92
20862 Par ch=5 c=7 v=93
20870 Par ch=5 c=7 v=94
20878 Par ch=5 c=7 v=95
20884 Par ch=5 c=7 v=96
20892 Par ch=5 c=7 v=97
20900 Par ch=5 c=7 v=98
20908 Par ch=5 c=7 v=99
20916 Par ch=5 c=7 v=100
20922 Par ch=5 c=7 v=101
20930 Par ch=5 c=7 v=102
20938 Par ch=5 c=7 v=103
20946 Par ch=5 c=7 v=104
20954 Par ch=5 c=7 v=105
20960 Par ch=5 c=7 v=106
20968 Par ch=5 c=7 v=107
20976 Par ch=5 c=7 v=108
20984 Par ch=5 c=7 v=109
20992 Par ch=5 c=7 v=110
21000 Par ch=5 c=7 v=111
21006 Par ch=5 c=7 v=112
21014 Par ch=5 c=7 v=113
21022 Par ch=5 c=7 v=114
21030 Par ch=5 c=7 v=115
21038 Par ch=5 c=7 v=116
21044 Par ch=5 c=7 v=117
21052 Par ch=5 c=7 v=118
21060 Par ch=5 c=7 v=119
21068 Par ch=5 c=7 v=120
21076 Par ch=5 c=7 v=121
21082 Par ch=5 c=7 v=122
21090 On ch=5 n=41 v=0
21090 On ch=5 n=48 v=0
21090 Par ch=5 c=7 v=123
21098 Par ch=5 c=7 v=124
21106 Par ch=5 c=7 v=125
21114 Par ch=5 c=7 v=126
21120 Par ch=5 c=7 v=64
21120 On ch=5 n=43 v=127
21120 On ch=5 n=50 v=127
21128 Par ch=5 c=7 v=65
21136 Par ch=5 c=7 v=66
21144 Par ch=5 c=7 v=67
21152 Par ch=5 c=7 v=68
21160 Par ch=5 c=7 v=69
21166 Par ch=5 c=7 v=70
21174 Par ch=5 c=7 v=71
21182 Par ch=5 c=7 v=72
21190 Par ch=5 c=7 v=73
21198 Par ch=5 c=7 v=74
21204 Par ch=5 c=7 v=75
21212 Par ch=5 c=7 v=76
21220 Par ch=5 c=7 v=77
21228 Par ch=5 c=7 v=78
21236 Par ch=5 c=7 v=79
21242 Par ch=5 c=7 v=80
21250 Par ch=5 c=7 v=81
21258 Par ch=5 c=7 v=82
21266 Par ch=5 c=7 v=83
21270 On ch=5 n=50 v=0
21270 On ch=5 n=43 v=0
21274 Par ch=5 c=7 v=84
21280 Par ch=5 c=7 v=85
21288 Par ch=5 c=7 v=86
21296 Par ch=5 c=7 v=87
21300 On ch=5 n=50 v=127
21300 On ch=5 n=43 v=127
21304 Par ch=5 c=7 v=88
21312 Par ch=5 c=7 v=89
21320 Par ch=5 c=7 v=90
21326 Par ch=5 c=7 v=91
21330 On ch=5 n=43 v=0
21330 On ch=5 n=50 v=0
21330 On ch=5 n=50 v=127
21330 On ch=5 n=43 v=127
21334 Par ch=5 c=7 v=92
21342 Par ch=5 c=7 v=93
21350 Par ch=5 c=7 v=94
21358 Par ch=5 c=7 v=95
21364 Par ch=5 c=7 v=96
21372 Par ch=5 c=7 v=97
21380 Par ch=5 c=7 v=98
21388 Par ch=5 c=7 v=99
21396 Par ch=5 c=7 v=100
21402 Par ch=5 c=7 v=101
21410 Par ch=5 c=7 v=102
21418 Par ch=5 c=7 v=103
21426 Par ch=5 c=7 v=104
21434 Par ch=5 c=7 v=105
21440 Par ch=5 c=7 v=106
21448 Par ch=5 c=7 v=107
21456 Par ch=5 c=7 v=108
21464 Par ch=5 c=7 v=109
21472 Par ch=5 c=7 v=110
21480 Par ch=5 c=7 v=111
21486 Par ch=5 c=7 v=112
21494 Par ch=5 c=7 v=113
21502 Par ch=5 c=7 v=114
21510 Par ch=5 c=7 v=115
21518 Par ch=5 c=7 v=116
21524 Par ch=5 c=7 v=117
21532 Par ch=5 c=7 v=118
21540 On ch=5 n=43 v=0
21540 On ch=5 n=50 v=0
21540 Par ch=5 c=7 v=119
21548 Par ch=5 c=7 v=120
21556 Par ch=5 c=7 v=121
21562 Par ch=5 c=7 v=122
21570 Par ch=5 c=7 v=123
21578 Par ch=5 c=7 v=124
21586 Par ch=5 c=7 v=125
21594 Par ch=5 c=7 v=126
21600 Par ch=5 c=7 v=64
21600 On ch=5 n=48 v=127
21600 On ch=5 n=55 v=127
21608 Par ch=5 c=7 v=65
21616 Par ch=5 c=7 v=66
21624 Par ch=5 c=7 v=67
21632 Par ch=5 c=7 v=68
21640 Par ch=5 c=7 v=69
21646 Par ch=5 c=7 v=70
21654 Par ch=5 c=7 v=71
21662 Par ch=5 c=7 v=72
21670 Par ch=5 c=7 v=73
21678 Par ch=5 c=7 v=74
21684 Par ch=5 c=7 v=75
21692 Par ch=5 c=7 v=76
21700 Par ch=5 c=7 v=77
21708 Par ch=5 c=7 v=78
21716 Par ch=5 c=7 v=79
21722 Par ch=5 c=7 v=80
21730 Par ch=5 c=7 v=81
21738 Par ch=5 c=7 v=82
21746 Par ch=5 c=7 v=83
21750 On ch=5 n=55 v=0
21750 On ch=5 n=48 v=0
21754 Par ch=5 c=7 v=84
21760 Par ch=5 c=7 v=85
21768 Par ch=5 c=7 v=86
21776 Par ch=5 c=7 v=87
21780 On ch=5 n=48 v=127
21780 On ch=5 n=55 v=127
21784 Par ch=5 c=7 v=88
21792 Par ch=5 c=7 v=89
21800 Par ch=5 c=7 v=90
21806 Par ch=5 c=7 v=91
21810 On ch=5 n=55 v=0
21810 On ch=5 n=48 v=0
21810 On ch=5 n=55 v=114
21810 On ch=5 n=48 v=127
21814 Par ch=5 c=7 v=92
21822 Par ch=5 c=7 v=93
21830 Par ch=5 c=7 v=94
21838 Par ch=5 c=7 v=95
21844 Par ch=5 c=7 v=96
21852 Par ch=5 c=7 v=97
21860 Par ch=5 c=7 v=98
21868 Par ch=5 c=7 v=99
21876 Par ch=5 c=7 v=100
21882 Par ch=5 c=7 v=101
21890 Par ch=5 c=7 v=102
21898 Par ch=5 c=7 v=103
21906 Par ch=5 c=7 v=104
21914 Par ch=5 c=7 v=105
21920 Par ch=5 c=7 v=106
21928 Par ch=5 c=7 v=107
21936 Par ch=5 c=7 v=108
21944 Par ch=5 c=7 v=109
21952 Par ch=5 c=7 v=110
21960 Par ch=5 c=7 v=111
21966 Par ch=5 c=7 v=112
21974 Par ch=5 c=7 v=113
21982 Par ch=5 c=7 v=114
21990 On ch=5 n=48 v=0
21990 On ch=5 n=55 v=0
21990 Par ch=5 c=7 v=115
21998 Par ch=5 c=7 v=116
22004 Par ch=5 c=7 v=117
22012 Par ch=5 c=7 v=118
22020 Par ch=5 c=7 v=119
22028 Par ch=5 c=7 v=120
22036 Par ch=5 c=7 v=121
22042 Par ch=5 c=7 v=122
22050 Par ch=5 c=7 v=123
22058 Par ch=5 c=7 v=124
22066 Par ch=5 c=7 v=125
22074 Par ch=5 c=7 v=126
22080 Par ch=5 c=7 v=64
22080 On ch=5 n=43 v=127
22080 On ch=5 n=50 v=127
22088 Par ch=5 c=7 v=65
22096 Par ch=5 c=7 v=66
22104 Par ch=5 c=7 v=67
22112 Par ch=5 c=7 v=68
22120 Par ch=5 c=7 v=69
22126 Par ch=5 c=7 v=70
22134 Par ch=5 c=7 v=71
22142 Par ch=5 c=7 v=72
22150 Par ch=5 c=7 v=73
22158 Par ch=5 c=7 v=74
22164 Par ch=5 c=7 v=75
22172 Par ch=5 c=7 v=76
22180 Par ch=5 c=7 v=77
22188 Par ch=5 c=7 v=78
22196 Par ch=5 c=7 v=79
22202 Par ch=5 c=7 v=80
22210 Par ch=5 c=7 v=81
22218 Par ch=5 c=7 v=82
22226 Par ch=5 c=7 v=83
22230 On ch=5 n=50 v=0
22230 On ch=5 n=43 v=0
22234 Par ch=5 c=7 v=84
22240 Par ch=5 c=7 v=85
22248 Par ch=5 c=7 v=86
22256 Par ch=5 c=7 v=87
22260 On ch=5 n=43 v=127
22260 On ch=5 n=50 v=127
22264 Par ch=5 c=7 v=88
22272 Par ch=5 c=7 v=89
22280 Par ch=5 c=7 v=90
22286 Par ch=5 c=7 v=91
22290 On ch=5 n=50 v=0
22290 On ch=5 n=43 v=0
22290 On ch=5 n=50 v=127
22290 On ch=5 n=43 v=127
22294 Par ch=5 c=7 v=92
22302 Par ch=5 c=7 v=93
22310 Par ch=5 c=7 v=94
22318 Par ch=5 c=7 v=95
22324 Par ch=5 c=7 v=96
22332 Par ch=5 c=7 v=97
22340 Par ch=5 c=7 v=98
22348 Par ch=5 c=7 v=99
22356 Par ch=5 c=7 v=100
22362 Par ch=5 c=7 v=101
22370 Par ch=5 c=7 v=102
22378 Par ch=5 c=7 v=103
22386 Par ch=5 c=7 v=104
22394 Par ch=5 c=7 v=105
22400 Par ch=5 c=7 v=106
22408 Par ch=5 c=7 v=107
22416 Par ch=5 c=7 v=108
22424 Par ch=5 c=7 v=109
22432 Par ch=5 c=7 v=110
22440 Par ch=5 c=7 v=111
22446 Par ch=5 c=7 v=112
22454 Par ch=5 c=7 v=113
22462 Par ch=5 c=7 v=114
22470 Par ch=5 c=7 v=115
22478 Par ch=5 c=7 v=116
22484 Par ch=5 c=7 v=117
22492 Par ch=5 c=7 v=118
22500 On ch=5 n=43 v=0
22500 On ch=5 n=50 v=0
22500 Par ch=5 c=7 v=119
22508 Par ch=5 c=7 v=120
22516 Par ch=5 c=7 v=121
22522 Par ch=5 c=7 v=122
22530 Par ch=5 c=7 v=123
22538 Par ch=5 c=7 v=124
22546 Par ch=5 c=7 v=125
22554 Par ch=5 c=7 v=126
22560 Par ch=5 c=7 v=64
22560 On ch=5 n=48 v=127
22560 On ch=5 n=41 v=127
22568 Par ch=5 c=7 v=65
22576 Par ch=5 c=7 v=66
22584 Par ch=5 c=7 v=67
22592 Par ch=5 c=7 v=68
22600 Par ch=5 c=7 v=69
22606 Par ch=5 c=7 v=70
22614 Par ch=5 c=7 v=71
22622 Par ch=5 c=7 v=72
22630 Par ch=5 c=7 v=73
22638 Par ch=5 c=7 v=74
22644 Par ch=5 c=7 v=75
22652 Par ch=5 c=7 v=76
22660 Par ch=5 c=7 v=77
22668 Par ch=5 c=7 v=78
22676 Par ch=5 c=7 v=79
22680 On ch=5 n=41 v=0
22680 On ch=5 n=48 v=0
22682 Par ch=5 c=7 v=80
22690 Par ch=5 c=7 v=81
22698 Par ch=5 c=7 v=82
22706 Par ch=5 c=7 v=83
22710 On ch=5 n=41 v=127
22714 Par ch=5 c=7 v=84
22720 Par ch=5 c=7 v=85
22728 Par ch=5 c=7 v=86
22736 Par ch=5 c=7 v=87
22740 On ch=5 n=41 v=0
22740 On ch=5 n=48 v=123
22744 Par ch=5 c=7 v=88
22752 Par ch=5 c=7 v=89
22760 Par ch=5 c=7 v=90
22766 Par ch=5 c=7 v=91
22770 On ch=5 n=48 v=0
22770 On ch=5 n=48 v=123
22770 On ch=5 n=41 v=127
22774 Par ch=5 c=7 v=92
22782 Par ch=5 c=7 v=93
22790 Par ch=5 c=7 v=94
22798 Par ch=5 c=7 v=95
22804 Par ch=5 c=7 v=96
22812 Par ch=5 c=7 v=97
22820 Par ch=5 c=7 v=98
22828 Par ch=5 c=7 v=99
22836 Par ch=5 c=7 v=100
22842 Par ch=5 c=7 v=101
22850 Par ch=5 c=7 v=102
22858 Par ch=5 c=7 v=103
22866 Par ch=5 c=7 v=104
22874 Par ch=5 c=7 v=105
22880 Par ch=5 c=7 v=106
22888 Par ch=5 c=7 v=107
22896 Par ch=5 c=7 v=108
22904 Par ch=5 c=7 v=109
22912 Par ch=5 c=7 v=110
22920 Par ch=5 c=7 v=111
22926 Par ch=5 c=7 v=112
22934 Par ch=5 c=7 v=113
22942 Par ch=5 c=7 v=114
22950 Par ch=5 c=7 v=115
22958 Par ch=5 c=7 v=116
22964 Par ch=5 c=7 v=117
22972 Par ch=5 c=7 v=118
22980 On ch=5 n=41 v=0
22980 On ch=5 n=48 v=0
22980 Par ch=5 c=7 v=119
22988 Par ch=5 c=7 v=120
22996 Par ch=5 c=7 v=121
23002 Par ch=5 c=7 v=122
23010 Par ch=5 c=7 v=123
23018 Par ch=5 c=7 v=124
23026 Par ch=5 c=7 v=125
23034 Par ch=5 c=7 v=126
23040 Par ch=5 c=7 v=64
23040 On ch=5 n=50 v=127
23040 On ch=5 n=43 v=127
23048 Par ch=5 c=7 v=65
23056 Par ch=5 c=7 v=66
23064 Par ch=5 c=7 v=67
23072 Par ch=5 c=7 v=68
23080 Par ch=5 c=7 v=69
23086 Par ch=5 c=7 v=70
23094 Par ch=5 c=7 v=71
23102 Par ch=5 c=7 v=72
23110 Par ch=5 c=7 v=73
23118 Par ch=5 c=7 v=74
23124 Par ch=5 c=7 v=75
23132 Par ch=5 c=7 v=76
23140 Par ch=5 c=7 v=77
23148 Par ch=5 c=7 v=78
23156 Par ch=5 c=7 v=79
23162 Par ch=5 c=7 v=80
23170 Par ch=5 c=7 v=81
23178 Par ch=5 c=7 v=82
23186 Par ch=5 c=7 v=83
23190 On ch=5 n=43 v=0
23190 On ch=5 n=50 v=0
23194 Par ch=5 c=7 v=84
23200 Par ch=5 c=7 v=85
23208 Par ch=5 c=7 v=86
23216 Par ch=5 c=7 v=87
23220 On ch=5 n=43 v=127
23220 On ch=5 n=50 v=127
23224 Par ch=5 c=7 v=88
23232 Par ch=5 c=7 v=89
23240 Par ch=5 c=7 v=90
23246 Par ch=5 c=7 v=91
23250 On ch=5 n=50 v=0
23250 On ch=5 n=43 v=0
23250 On ch=5 n=43 v=127
23250 On ch=5 n=50 v=127
23254 Par ch=5 c=7 v=92
23262 Par ch=5 c=7 v=93
23270 Par ch=5 c=7 v=94
23278 Par ch=5 c=7 v=95
23284 Par ch=5 c=7 v=96
23292 Par ch=5 c=7 v=97
23300 Par ch=5 c=7 v=98
23308 Par ch=5 c=7 v=99
23316 Par ch=5 c=7 v=100
23322 Par ch=5 c=7 v=101
23330 Par ch=5 c=7 v=102
23338 Par ch=5 c=7 v=103
23346 Par ch=5 c=7 v=104
23354 Par ch=5 c=7 v=105
23360 Par ch=5 c=7 v=106
23368 Par ch=5 c=7 v=107
23376 Par ch=5 c=7 v=108
23384 Par ch=5 c=7 v=109
23392 Par ch=5 c=7 v=110
23400 Par ch=5 c=7 v=111
23406 Par ch=5 c=7 v=112
23414 Par ch=5 c=7 v=113
23422 Par ch=5 c=7 v=114
23430 Par ch=5 c=7 v=115
23438 Par ch=5 c=7 v=116
23444 Par ch=5 c=7 v=117
23452 Par ch=5 c=7 v=118
23460 On ch=5 n=50 v=0
23460 On ch=5 n=43 v=0
23460 Par ch=5 c=7 v=119
23468 Par ch=5 c=7 v=120
23476 Par ch=5 c=7 v=121
23482 Par ch=5 c=7 v=122
23490 Par ch=5 c=7 v=123
23498 Par ch=5 c=7 v=124
23506 Par ch=5 c=7 v=125
23514 Par ch=5 c=7 v=126
23520 Par ch=5 c=7 v=64
23520 On ch=5 n=55 v=105
23520 On ch=5 n=52 v=105
23520 On ch=5 n=59 v=108
23520 On ch=5 n=62 v=102
23528 Par ch=5 c=7 v=65
23536 Par ch=5 c=7 v=66
23544 Par ch=5 c=7 v=67
23552 Par ch=5 c=7 v=68
23560 Par ch=5 c=7 v=69
23566 Par ch=5 c=7 v=70
23574 Par ch=5 c=7 v=71
23582 Par ch=5 c=7 v=72
23590 Par ch=5 c=7 v=73
23598 Par ch=5 c=7 v=74
23604 Par ch=5 c=7 v=75
23612 Par ch=5 c=7 v=76
23620 Par ch=5 c=7 v=77
23628 Par ch=5 c=7 v=78
23636 Par ch=5 c=7 v=79
23642 Par ch=5 c=7 v=80
23650 Par ch=5 c=7 v=81
23658 Par ch=5 c=7 v=82
23666 Par ch=5 c=7 v=83
23670 On ch=5 n=62 v=0
23670 On ch=5 n=55 v=0
23670 On ch=5 n=52 v=0
23670 On ch=5 n=59 v=0
23674 Par ch=5 c=7 v=84
23680 Par ch=5 c=7 v=85
23688 Par ch=5 c=7 v=86
23696 Par ch=5 c=7 v=87
23700 On ch=5 n=55 v=85
23700 On ch=5 n=62 v=84
23700 On ch=5 n=52 v=85
23700 On ch=5 n=59 v=96
23704 Par ch=5 c=7 v=88
23712 Par ch=5 c=7 v=89
23720 Par ch=5 c=7 v=90
23726 Par ch=5 c=7 v=91
23730 On ch=5 n=59 v=0
23730 On ch=5 n=55 v=0
23730 On ch=5 n=62 v=0
23730 On ch=5 n=52 v=0
23730 On ch=5 n=52 v=99
23730 On ch=5 n=62 v=87
23730 On ch=5 n=55 v=99
23730 On ch=5 n=59 v=99
23734 Par ch=5 c=7 v=92
23742 Par ch=5 c=7 v=93
23750 Par ch=5 c=7 v=94
23758 Par ch=5 c=7 v=95
23764 Par ch=5 c=7 v=96
23772 Par ch=5 c=7 v=97
23780 Par ch=5 c=7 v=98
23788 Par ch=5 c=7 v=99
23796 Par ch=5 c=7 v=100
23802 Par ch=5 c=7 v=101
23810 Par ch=5 c=7 v=102
23818 Par ch=5 c=7 v=103
23826 Par ch=5 c=7 v=104
23834 Par ch=5 c=7 v=105
23840 Par ch=5 c=7 v=106
23848 Par ch=5 c=7 v=107
23856 Par ch=5 c=7 v=108
23864 Par ch=5 c=7 v=109
23872 Par ch=5 c=7 v=110
23880 Par ch=5 c=7 v=111
23886 Par ch=5 c=7 v=112
23894 Par ch=5 c=7 v=113
23902 Par ch=5 c=7 v=114
23910 On ch=5 n=59 v=0
23910 On ch=5 n=52 v=0
23910 On ch=5 n=62 v=0
23910 On ch=5 n=55 v=0
23910 Par ch=5 c=7 v=115
23918 Par ch=5 c=7 v=116
23924 Par ch=5 c=7 v=117
23932 Par ch=5 c=7 v=118
23940 Par ch=5 c=7 v=119
23948 Par ch=5 c=7 v=120
23956 Par ch=5 c=7 v=121
23962 Par ch=5 c=7 v=122
23970 Par ch=5 c=7 v=123
23978 Par ch=5 c=7 v=124
23986 Par ch=5 c=7 v=125
23994 Par ch=5 c=7 v=126
24000 Par ch=5 c=7 v=64
24000 On ch=5 n=50 v=93
24000 On ch=5 n=57 v=102
24000 On ch=5 n=60 v=99
24000 On ch=5 n=53 v=99
24008 Par ch=5 c=7 v=65
24016 Par ch=5 c=7 v=66
24024 Par ch=5 c=7 v=67
24032 Par ch=5 c=7 v=68
24040 Par ch=5 c=7 v=69
24046 Par ch=5 c=7 v=70
24054 Par ch=5 c=7 v=71
24062 Par ch=5 c=7 v=72
24070 Par ch=5 c=7 v=73
24078 Par ch=5 c=7 v=74
24084 Par ch=5 c=7 v=75
24092 Par ch=5 c=7 v=76
24100 Par ch=5 c=7 v=77
24108 Par ch=5 c=7 v=78
24116 Par ch=5 c=7 v=79
24122 Par ch=5 c=7 v=80
24130 Par ch=5 c=7 v=81
24138 Par ch=5 c=7 v=82
24146 Par ch=5 c=7 v=83
24150 On ch=5 n=53 v=0
24150 On ch=5 n=50 v=0
24150 On ch=5 n=57 v=0
24150 On ch=5 n=60 v=0
24154 Par ch=5 c=7 v=84
24160 Par ch=5 c=7 v=85
24168 Par ch=5 c=7 v=86
24176 Par ch=5 c=7 v=87
24180 On ch=5 n=60 v=90
24180 On ch=5 n=57 v=108
24180 On ch=5 n=53 v=99
24180 On ch=5 n=50 v=96
24184 Par ch=5 c=7 v=88
24192 Par ch=5 c=7 v=89
24200 Par ch=5 c=7 v=90
24206 Par ch=5 c=7 v=91
24210 On ch=5 n=50 v=0
24210 On ch=5 n=60 v=0
24210 On ch=5 n=57 v=0
24210 On ch=5 n=53 v=0
24210 On ch=5 n=50 v=78
24210 On ch=5 n=60 v=90
24210 On ch=5 n=57 v=123
24210 On ch=5 n=53 v=102
24214 Par ch=5 c=7 v=92
24222 Par ch=5 c=7 v=93
24230 Par ch=5 c=7 v=94
24238 Par ch=5 c=7 v=95
24244 Par ch=5 c=7 v=96
24252 Par ch=5 c=7 v=97
24260 Par ch=5 c=7 v=98
24268 Par ch=5 c=7 v=99
24276 Par ch=5 c=7 v=100
24282 Par ch=5 c=7 v=101
24290 Par ch=5 c=7 v=102
24298 Par ch=5 c=7 v=103
24306 Par ch=5 c=7 v=104
24314 Par ch=5 c=7 v=105
24320 Par ch=5 c=7 v=106
24328 Par ch=5 c=7 v=107
24336 Par ch=5 c=7 v=108
24344 Par ch=5 c=7 v=109
24352 Par ch=5 c=7 v=110
24360 Par ch=5 c=7 v=111
24366 Par ch=5 c=7 v=112
24374 Par ch=5 c=7 v=113
24382 Par ch=5 c=7 v=114
24390 On ch=5 n=53 v=0
24390 On ch=5 n=50 v=0
24390 On ch=5 n=60 v=0
24390 On ch=5 n=57 v=0
24390 Par ch=5 c=7 v=115
24398 Par ch=5 c=7 v=116
24404 Par ch=5 c=7 v=117
24412 Par ch=5 c=7 v=118
24420 Par ch=5 c=7 v=119
24428 Par ch=5 c=7 v=120
24436 Par ch=5 c=7 v=121
24442 Par ch=5 c=7 v=122
24450 Par ch=5 c=7 v=123
24458 Par ch=5 c=7 v=124
24466 Par ch=5 c=7 v=125
24474 Par ch=5 c=7 v=126
24480 Par ch=5 c=7 v=64
24480 On ch=5 n=55 v=99
24480 On ch=5 n=52 v=96
24480 On ch=5 n=62 v=85
24480 On ch=5 n=59 v=99
24488 Par ch=5 c=7 v=65
24496 Par ch=5 c=7 v=66
24504 Par ch=5 c=7 v=67
24512 Par ch=5 c=7 v=68
24520 Par ch=5 c=7 v=69
24526 Par ch=5 c=7 v=70
24534 Par ch=5 c=7 v=71
24542 Par ch=5 c=7 v=72
24550 Par ch=5 c=7 v=73
24558 Par ch=5 c=7 v=74
24564 Par ch=5 c=7 v=75
24572 Par ch=5 c=7 v=76
24580 Par ch=5 c=7 v=77
24588 Par ch=5 c=7 v=78
24596 Par ch=5 c=7 v=79
24602 Par ch=5 c=7 v=80
24610 Par ch=5 c=7 v=81
24618 Par ch=5 c=7 v=82
24626 Par ch=5 c=7 v=83
24630 On ch=5 n=59 v=0
24630 On ch=5 n=55 v=0
24630 On ch=5 n=52 v=0
24630 On ch=5 n=62 v=0
24634 Par ch=5 c=7 v=84
24640 Par ch=5 c=7 v=85
24648 Par ch=5 c=7 v=86
24656 Par ch=5 c=7 v=87
24660 On ch=5 n=52 v=99
24660 On ch=5 n=62 v=79
24660 On ch=5 n=55 v=99
24660 On ch=5 n=59 v=99
24664 Par ch=5 c=7 v=88
24672 Par ch=5 c=7 v=89
24680 Par ch=5 c=7 v=90
24686 Par ch=5 c=7 v=91
24690 On ch=5 n=59 v=0
24690 On ch=5 n=55 v=0
24690 On ch=5 n=62 v=0
24690 On ch=5 n=59 v=123
24690 On ch=5 n=62 v=105
24690 On ch=5 n=55 v=123
24694 Par ch=5 c=7 v=92
24702 Par ch=5 c=7 v=93
24710 Par ch=5 c=7 v=94
24718 Par ch=5 c=7 v=95
24724 Par ch=5 c=7 v=96
24732 Par ch=5 c=7 v=97
24740 Par ch=5 c=7 v=98
24748 Par ch=5 c=7 v=99
24756 Par ch=5 c=7 v=100
24762 Par ch=5 c=7 v=101
24770 Par ch=5 c=7 v=102
24778 Par ch=5 c=7 v=103
24786 Par ch=5 c=7 v=104
24794 Par ch=5 c=7 v=105
24800 Par ch=5 c=7 v=106
24808 Par ch=5 c=7 v=107
24816 Par ch=5 c=7 v=108
24824 Par ch=5 c=7 v=109
24832 Par ch=5 c=7 v=110
24840 Par ch=5 c=7 v=111
24846 Par ch=5 c=7 v=112
24854 Par ch=5 c=7 v=113
24862 Par ch=5 c=7 v=114
24870 Par ch=5 c=7 v=115
24878 Par ch=5 c=7 v=116
24884 Par ch=5 c=7 v=117
24892 Par ch=5 c=7 v=118
24900 On ch=5 n=62 v=0
24900 Par ch=5 c=7 v=119
24908 Par ch=5 c=7 v=120
24916 Par ch=5 c=7 v=121
24922 Par ch=5 c=7 v=122
24930 On ch=5 n=52 v=0
24930 On ch=5 n=59 v=0
24930 On ch=5 n=55 v=0
24930 Par ch=5 c=7 v=123
24938 Par ch=5 c=7 v=124
24946 Par ch=5 c=7 v=125
24954 Par ch=5 c=7 v=126
24960 Par ch=5 c=7 v=64
24960 On ch=5 n=59 v=127
24960 On ch=5 n=50 v=96
24960 On ch=5 n=55 v=127
24968 Par ch=5 c=7 v=65
24976 Par ch=5 c=7 v=66
24984 Par ch=5 c=7 v=67
24992 Par ch=5 c=7 v=68
25000 Par ch=5 c=7 v=69
25006 Par ch=5 c=7 v=70
25014 Par ch=5 c=7 v=71
25022 Par ch=5 c=7 v=72
25030 Par ch=5 c=7 v=73
25038 Par ch=5 c=7 v=74
25044 Par ch=5 c=7 v=75
25052 Par ch=5 c=7 v=76
25060 Par ch=5 c=7 v=77
25068 Par ch=5 c=7 v=78
25076 Par ch=5 c=7 v=79
25082 Par ch=5 c=7 v=80
25090 Par ch=5 c=7 v=81
25098 Par ch=5 c=7 v=82
25106 Par ch=5 c=7 v=83
25110 On ch=5 n=55 v=0
25110 On ch=5 n=50 v=0
25110 On ch=5 n=59 v=0
25114 Par ch=5 c=7 v=84
25120 Par ch=5 c=7 v=85
25128 Par ch=5 c=7 v=86
25136 Par ch=5 c=7 v=87
25140 On ch=5 n=55 v=127
25140 On ch=5 n=50 v=127
25140 On ch=5 n=59 v=127
25144 Par ch=5 c=7 v=88
25152 Par ch=5 c=7 v=89
25160 Par ch=5 c=7 v=90
25166 Par ch=5 c=7 v=91
25170 On ch=5 n=59 v=0
25170 On ch=5 n=50 v=0
25170 On ch=5 n=55 v=0
25170 On ch=5 n=55 v=102
25170 On ch=5 n=59 v=99
25170 On ch=5 n=50 v=111
25174 Par ch=5 c=7 v=92
25182 Par ch=5 c=7 v=93
25190 Par ch=5 c=7 v=94
25198 Par ch=5 c=7 v=95
25204 Par ch=5 c=7 v=96
25212 Par ch=5 c=7 v=97
25220 Par ch=5 c=7 v=98
25228 Par ch=5 c=7 v=99
25236 Par ch=5 c=7 v=100
25242 Par ch=5 c=7 v=101
25250 Par ch=5 c=7 v=102
25258 Par ch=5 c=7 v=103
25266 Par ch=5 c=7 v=104
25274 Par ch=5 c=7 v=105
25280 Par ch=5 c=7 v=106
25288 Par ch=5 c=7 v=107
25296 Par ch=5 c=7 v=108
25304 Par ch=5 c=7 v=109
25312 Par ch=5 c=7 v=110
25320 Par ch=5 c=7 v=111
25326 Par ch=5 c=7 v=112
25334 Par ch=5 c=7 v=113
25342 Par ch=5 c=7 v=114
25350 Par ch=5 c=7 v=115
25358 Par ch=5 c=7 v=116
25364 Par ch=5 c=7 v=117
25372 Par ch=5 c=7 v=118
25380 On ch=5 n=50 v=0
25380 On ch=5 n=59 v=0
25380 Par ch=5 c=7 v=119
25388 Par ch=5 c=7 v=120
25396 Par ch=5 c=7 v=121
25402 Par ch=5 c=7 v=122
25410 On ch=5 n=55 v=0
25410 Par ch=5 c=7 v=123
25418 Par ch=5 c=7 v=124
25426 Par ch=5 c=7 v=125
25434 Par ch=5 c=7 v=126
25440 Par ch=5 c=7 v=127
25440 On ch=5 n=55 v=127
25440 On ch=5 n=52 v=123
25440 On ch=5 n=59 v=123
25590 On ch=5 n=59 v=0
25590 On ch=5 n=52 v=0
25590 On ch=5 n=55 v=0
25620 On ch=5 n=60 v=127
25620 On ch=5 n=57 v=123
25620 On ch=5 n=53 v=114
25650 On ch=5 n=53 v=0
25650 On ch=5 n=57 v=0
25650 On ch=5 n=60 v=0
25740 On ch=5 n=55 v=117
25740 On ch=5 n=52 v=108
25740 On ch=5 n=59 v=102
25770 On ch=5 n=59 v=0
25770 On ch=5 n=52 v=0
25770 On ch=5 n=55 v=0
25800 Par ch=5 c=7 v=64
25800 On ch=5 n=59 v=123
25800 On ch=5 n=55 v=123
25800 On ch=5 n=62 v=123
25808 Par ch=5 c=7 v=65
25816 Par ch=5 c=7 v=66
25824 Par ch=5 c=7 v=67
25832 Par ch=5 c=7 v=68
25840 Par ch=5 c=7 v=69
25846 Par ch=5 c=7 v=70
25854 Par ch=5 c=7 v=71
25862 Par ch=5 c=7 v=72
25870 Par ch=5 c=7 v=73
25878 Par ch=5 c=7 v=74
25884 Par ch=5 c=7 v=75
25892 Par ch=5 c=7 v=76
25900 Par ch=5 c=7 v=77
25908 Par ch=5 c=7 v=78
25916 Par ch=5 c=7 v=79
25922 Par ch=5 c=7 v=80
25930 Par ch=5 c=7 v=81
25938 Par ch=5 c=7 v=82
25946 Par ch=5 c=7 v=83
25954 Par ch=5 c=7 v=84
25960 Par ch=5 c=7 v=85
25968 Par ch=5 c=7 v=86
25976 Par ch=5 c=7 v=87
25984 Par ch=5 c=7 v=88
25992 Par ch=5 c=7 v=89
26000 Par ch=5 c=7 v=90
26006 Par ch=5 c=7 v=91
26014 Par ch=5 c=7 v=92
26022 Par ch=5 c=7 v=93
26030 Par ch=5 c=7 v=94
26038 Par ch=5 c=7 v=95
26044 Par ch=5 c=7 v=96
26052 Par ch=5 c=7 v=97
26060 Par ch=5 c=7 v=98
26068 Par ch=5 c=7 v=99
26076 Par ch=5 c=7 v=100
26082 Par ch=5 c=7 v=101
26090 Par ch=5 c=7 v=102
26098 Par ch=5 c=7 v=103
26106 Par ch=5 c=7 v=104
26114 Par ch=5 c=7 v=105
26120 Par ch=5 c=7 v=106
26128 Par ch=5 c=7 v=107
26136 Par ch=5 c=7 v=108
26144 Par ch=5 c=7 v=109
26152 Par ch=5 c=7 v=110
26160 Par ch=5 c=7 v=111
26166 Par ch=5 c=7 v=112
26174 Par ch=5 c=7 v=113
26182 Par ch=5 c=7 v=114
26190 Par ch=5 c=7 v=115
26198 Par ch=5 c=7 v=116
26204 Par ch=5 c=7 v=117
26212 Par ch=5 c=7 v=118
26220 Par ch=5 c=7 v=119
26228 Par ch=5 c=7 v=120
26236 Par ch=5 c=7 v=121
26242 Par ch=5 c=7 v=122
26250 Par ch=5 c=7 v=123
26258 Par ch=5 c=7 v=124
26266 Par ch=5 c=7 v=125
26274 Par ch=5 c=7 v=126
26280 Par ch=5 c=7 v=127
26400 On ch=5 n=62 v=0
26400 On ch=5 n=55 v=0
26400 On ch=5 n=59 v=0
26400 On ch=5 n=55 v=127
26400 On ch=5 n=48 v=127
26401 Par ch=5 c=7 v=64
26410 Par ch=5 c=7 v=65
26418 Par ch=5 c=7 v=66
26425 Par ch=5 c=7 v=67
26433 Par ch=5 c=7 v=68
26440 Par ch=5 c=7 v=69
26448 Par ch=5 c=7 v=70
26455 Par ch=5 c=7 v=71
26463 Par ch=5 c=7 v=72
26470 Par ch=5 c=7 v=73
26478 Par ch=5 c=7 v=74
26486 Par ch=5 c=7 v=75
26493 Par ch=5 c=7 v=76
26501 Par ch=5 c=7 v=77
26508 Par ch=5 c=7 v=78
26516 Par ch=5 c=7 v=79
26523 Par ch=5 c=7 v=80
26531 Par ch=5 c=7 v=81
26538 Par ch=5 c=7 v=82
26546 Par ch=5 c=7 v=83
26550 On ch=5 n=48 v=0
26550 On ch=5 n=55 v=0
26555 Par ch=5 c=7 v=84
26561 Par ch=5 c=7 v=85
26570 Par ch=5 c=7 v=86
26576 Par ch=5 c=7 v=87
26580 On ch=5 n=48 v=127
26580 On ch=5 n=55 v=120
26585 Par ch=5 c=7 v=88
26591 Par ch=5 c=7 v=89
26600 Par ch=5 c=7 v=90
26606 Par ch=5 c=7 v=91
26610 On ch=5 n=55 v=0
26610 On ch=5 n=48 v=0
26610 On ch=5 n=55 v=123
26610 On ch=5 n=48 v=127
26615 Par ch=5 c=7 v=92
26623 Par ch=5 c=7 v=93
26630 Par ch=5 c=7 v=94
26638 Par ch=5 c=7 v=95
26645 Par ch=5 c=7 v=96
26653 Par ch=5 c=7 v=97
26660 Par ch=5 c=7 v=98
26668 Par ch=5 c=7 v=99
26675 Par ch=5 c=7 v=100
26683 Par ch=5 c=7 v=101
26691 Par ch=5 c=7 v=102
26698 Par ch=5 c=7 v=103
26706 Par ch=5 c=7 v=104
26713 Par ch=5 c=7 v=105
26721 Par ch=5 c=7 v=106
26728 Par ch=5 c=7 v=107
26736 Par ch=5 c=7 v=108
26743 Par ch=5 c=7 v=109
26751 Par ch=5 c=7 v=110
26760 Par ch=5 c=7 v=111
26766 Par ch=5 c=7 v=112
26775 Par ch=5 c=7 v=113
26781 Par ch=5 c=7 v=114
26790 Par ch=5 c=7 v=115
26796 Par ch=5 c=7 v=116
26805 Par ch=5 c=7 v=117
26811 Par ch=5 c=7 v=118
26820 On ch=5 n=48 v=0
26820 On ch=5 n=55 v=0
26820 Par ch=5 c=7 v=119
26828 Par ch=5 c=7 v=120
26835 Par ch=5 c=7 v=121
26843 Par ch=5 c=7 v=122
26850 Par ch=5 c=7 v=123
26858 Par ch=5 c=7 v=124
26865 Par ch=5 c=7 v=125
26873 Par ch=5 c=7 v=126
26880 Par ch=5 c=7 v=127
26880 On ch=5 n=50 v=127
26880 On ch=5 n=43 v=127
26881 Par ch=5 c=7 v=64
26890 Par ch=5 c=7 v=65
26898 Par ch=5 c=7 v=66
26905 Par ch=5 c=7 v=67
26913 Par ch=5 c=7 v=68
26920 Par ch=5 c=7 v=69
26928 Par ch=5 c=7 v=70
26935 Par ch=5 c=7 v=71
26943 Par ch=5 c=7 v=72
26950 Par ch=5 c=7 v=73
26958 Par ch=5 c=7 v=74
26965 Par ch=5 c=7 v=75
26973 Par ch=5 c=7 v=76
26981 Par ch=5 c=7 v=77
26988 Par ch=5 c=7 v=78
26996 Par ch=5 c=7 v=79
27003 Par ch=5 c=7 v=80
27011 Par ch=5 c=7 v=81
27018 Par ch=5 c=7 v=82
27026 Par ch=5 c=7 v=83
27030 On ch=5 n=43 v=0
27030 On ch=5 n=50 v=0
27033 Par ch=5 c=7 v=84
27041 Par ch=5 c=7 v=85
27048 Par ch=5 c=7 v=86
27056 Par ch=5 c=7 v=87
27060 On ch=5 n=50 v=127
27060 On ch=5 n=43 v=127
27063 Par ch=5 c=7 v=88
27071 Par ch=5 c=7 v=89
27080 Par ch=5 c=7 v=90
27086 Par ch=5 c=7 v=91
27090 On ch=5 n=43 v=0
27090 On ch=5 n=50 v=0
27090 On ch=5 n=50 v=127
27090 On ch=5 n=43 v=127
27095 Par ch=5 c=7 v=92
27101 Par ch=5 c=7 v=93
27110 Par ch=5 c=7 v=94
27116 Par ch=5 c=7 v=95
27125 Par ch=5 c=7 v=96
27131 Par ch=5 c=7 v=97
27140 Par ch=5 c=7 v=98
27146 Par ch=5 c=7 v=99
27155 Par ch=5 c=7 v=100
27161 Par ch=5 c=7 v=101
27170 Par ch=5 c=7 v=102
27178 Par ch=5 c=7 v=103
27185 Par ch=5 c=7 v=104
27193 Par ch=5 c=7 v=105
27200 Par ch=5 c=7 v=106
27208 Par ch=5 c=7 v=107
27215 Par ch=5 c=7 v=108
27223 Par ch=5 c=7 v=109
27230 Par ch=5 c=7 v=110
27238 Par ch=5 c=7 v=111
27245 Par ch=5 c=7 v=112
27253 Par ch=5 c=7 v=113
27260 Par ch=5 c=7 v=114
27268 Par ch=5 c=7 v=115
27276 Par ch=5 c=7 v=116
27283 Par ch=5 c=7 v=117
27291 Par ch=5 c=7 v=118
27298 Par ch=5 c=7 v=119
27306 Par ch=5 c=7 v=120
27313 Par ch=5 c=7 v=121
27321 Par ch=5 c=7 v=122
27328 Par ch=5 c=7 v=123
27330 On ch=5 n=43 v=0
27330 On ch=5 n=50 v=0
27336 Par ch=5 c=7 v=124
27343 Par ch=5 c=7 v=125
27351 Par ch=5 c=7 v=126
27358 Par ch=5 c=7 v=127
27360 Par ch=5 c=7 v=64
27360 On ch=5 n=41 v=127
27360 On ch=5 n=48 v=127
27368 Par ch=5 c=7 v=65
27376 Par ch=5 c=7 v=66
27384 Par ch=5 c=7 v=67
27392 Par ch=5 c=7 v=68
27400 Par ch=5 c=7 v=69
27406 Par ch=5 c=7 v=70
27414 Par ch=5 c=7 v=71
27422 Par ch=5 c=7 v=72
27430 Par ch=5 c=7 v=73
27438 Par ch=5 c=7 v=74
27444 Par ch=5 c=7 v=75
27452 Par ch=5 c=7 v=76
27460 Par ch=5 c=7 v=77
27468 Par ch=5 c=7 v=78
27476 Par ch=5 c=7 v=79
27482 Par ch=5 c=7 v=80
27490 Par ch=5 c=7 v=81
27498 Par ch=5 c=7 v=82
27506 Par ch=5 c=7 v=83
27510 On ch=5 n=48 v=0
27510 On ch=5 n=41 v=0
27514 Par ch=5 c=7 v=84
27520 Par ch=5 c=7 v=85
27528 Par ch=5 c=7 v=86
27536 Par ch=5 c=7 v=87
27540 On ch=5 n=41 v=127
27540 On ch=5 n=48 v=127
27544 Par ch=5 c=7 v=88
27552 Par ch=5 c=7 v=89
27560 Par ch=5 c=7 v=90
27566 Par ch=5 c=7 v=91
27570 On ch=5 n=48 v=0
27570 On ch=5 n=41 v=0
27570 On ch=5 n=48 v=127
27570 On ch=5 n=41 v=127
27574 Par ch=5 c=7 v=92
27582 Par ch=5 c=7 v=93
27590 Par ch=5 c=7 v=94
27598 Par ch=5 c=7 v=95
27604 Par ch=5 c=7 v=96
27612 Par ch=5 c=7 v=97
27620 Par ch=5 c=7 v=98
27628 Par ch=5 c=7 v=99
27636 Par ch=5 c=7 v=100
27642 Par ch=5 c=7 v=101
27650 Par ch=5 c=7 v=102
27658 Par ch=5 c=7 v=103
27666 Par ch=5 c=7 v=104
27674 Par ch=5 c=7 v=105
27680 Par ch=5 c=7 v=106
27688 Par ch=5 c=7 v=107
27696 Par ch=5 c=7 v=108
27704 Par ch=5 c=7 v=109
27712 Par ch=5 c=7 v=110
27720 Par ch=5 c=7 v=111
27726 Par ch=5 c=7 v=112
27734 Par ch=5 c=7 v=113
27742 Par ch=5 c=7 v=114
27750 Par ch=5 c=7 v=115
27758 Par ch=5 c=7 v=116
27764 Par ch=5 c=7 v=117
27772 Par ch=5 c=7 v=118
27780 Par ch=5 c=7 v=119
27788 Par ch=5 c=7 v=120
27796 Par ch=5 c=7 v=121
27802 Par ch=5 c=7 v=122
27810 On ch=5 n=41 v=0
27810 On ch=5 n=48 v=0
27810 Par ch=5 c=7 v=123
27818 Par ch=5 c=7 v=124
27826 Par ch=5 c=7 v=125
27834 Par ch=5 c=7 v=126
27840 Par ch=5 c=7 v=64
27840 On ch=5 n=43 v=127
27840 On ch=5 n=50 v=127
27848 Par ch=5 c=7 v=65
27856 Par ch=5 c=7 v=66
27864 Par ch=5 c=7 v=67
27872 Par ch=5 c=7 v=68
27880 Par ch=5 c=7 v=69
27886 Par ch=5 c=7 v=70
27894 Par ch=5 c=7 v=71
27902 Par ch=5 c=7 v=72
27910 Par ch=5 c=7 v=73
27918 Par ch=5 c=7 v=74
27924 Par ch=5 c=7 v=75
27932 Par ch=5 c=7 v=76
27940 Par ch=5 c=7 v=77
27948 Par ch=5 c=7 v=78
27956 Par ch=5 c=7 v=79
27962 Par ch=5 c=7 v=80
27970 Par ch=5 c=7 v=81
27978 Par ch=5 c=7 v=82
27986 Par ch=5 c=7 v=83
27990 On ch=5 n=50 v=0
27990 On ch=5 n=43 v=0
27994 Par ch=5 c=7 v=84
28000 Par ch=5 c=7 v=85
28008 Par ch=5 c=7 v=86
28016 Par ch=5 c=7 v=87
28020 On ch=5 n=50 v=127
28020 On ch=5 n=43 v=127
28024 Par ch=5 c=7 v=88
28032 Par ch=5 c=7 v=89
28040 Par ch=5 c=7 v=90
28046 Par ch=5 c=7 v=91
28050 On ch=5 n=43 v=0
28050 On ch=5 n=50 v=0
28050 On ch=5 n=50 v=127
28050 On ch=5 n=43 v=127
28054 Par ch=5 c=7 v=92
28062 Par ch=5 c=7 v=93
28070 Par ch=5 c=7 v=94
28078 Par ch=5 c=7 v=95
28084 Par ch=5 c=7 v=96
28092 Par ch=5 c=7 v=97
28100 Par ch=5 c=7 v=98
28108 Par ch=5 c=7 v=99
28116 Par ch=5 c=7 v=100
28122 Par ch=5 c=7 v=101
28130 Par ch=5 c=7 v=102
28138 Par ch=5 c=7 v=103
28146 Par ch=5 c=7 v=104
28154 Par ch=5 c=7 v=105
28160 Par ch=5 c=7 v=106
28168 Par ch=5 c=7 v=107
28176 Par ch=5 c=7 v=108
28184 Par ch=5 c=7 v=109
28192 Par ch=5 c=7 v=110
28200 Par ch=5 c=7 v=111
28206 Par ch=5 c=7 v=112
28214 Par ch=5 c=7 v=113
28222 Par ch=5 c=7 v=114
28230 Par ch=5 c=7 v=115
28238 Par ch=5 c=7 v=116
28244 Par ch=5 c=7 v=117
28252 Par ch=5 c=7 v=118
28260 On ch=5 n=43 v=0
28260 On ch=5 n=50 v=0
28260 Par ch=5 c=7 v=119
28268 Par ch=5 c=7 v=120
28276 Par ch=5 c=7 v=121
28282 Par ch=5 c=7 v=122
28290 Par ch=5 c=7 v=123
28298 Par ch=5 c=7 v=124
28306 Par ch=5 c=7 v=125
28314 Par ch=5 c=7 v=126
28320 Par ch=5 c=7 v=64
28320 On ch=5 n=48 v=127
28320 On ch=5 n=55 v=127
28328 Par ch=5 c=7 v=65
28336 Par ch=5 c=7 v=66
28344 Par ch=5 c=7 v=67
28352 Par ch=5 c=7 v=68
28360 Par ch=5 c=7 v=69
28366 Par ch=5 c=7 v=70
28374 Par ch=5 c=7 v=71
28382 Par ch=5 c=7 v=72
28390 Par ch=5 c=7 v=73
28398 Par ch=5 c=7 v=74
28404 Par ch=5 c=7 v=75
28412 Par ch=5 c=7 v=76
28420 Par ch=5 c=7 v=77
28428 Par ch=5 c=7 v=78
28436 Par ch=5 c=7 v=79
28442 Par ch=5 c=7 v=80
28450 Par ch=5 c=7 v=81
28458 Par ch=5 c=7 v=82
28466 Par ch=5 c=7 v=83
28470 On ch=5 n=55 v=0
28470 On ch=5 n=48 v=0
28474 Par ch=5 c=7 v=84
28480 Par ch=5 c=7 v=85
28488 Par ch=5 c=7 v=86
28496 Par ch=5 c=7 v=87
28500 On ch=5 n=48 v=127
28500 On ch=5 n=55 v=127
28504 Par ch=5 c=7 v=88
28512 Par ch=5 c=7 v=89
28520 Par ch=5 c=7 v=90
28526 Par ch=5 c=7 v=91
28530 On ch=5 n=55 v=0
28530 On ch=5 n=48 v=0
28530 On ch=5 n=55 v=114
28530 On ch=5 n=48 v=127
28534 Par ch=5 c=7 v=92
28542 Par ch=5 c=7 v=93
28550 Par ch=5 c=7 v=94
28558 Par ch=5 c=7 v=95
28564 Par ch=5 c=7 v=96
28572 Par ch=5 c=7 v=97
28580 Par ch=5 c=7 v=98
28588 Par ch=5 c=7 v=99
28596 Par ch=5 c=7 v=100
28602 Par ch=5 c=7 v=101
28610 Par ch=5 c=7 v=102
28618 Par ch=5 c=7 v=103
28626 Par ch=5 c=7 v=104
28634 Par ch=5 c=7 v=105
28640 Par ch=5 c=7 v=106
28648 Par ch=5 c=7 v=107
28656 Par ch=5 c=7 v=108
28664 Par ch=5 c=7 v=109
28672 Par ch=5 c=7 v=110
28680 Par ch=5 c=7 v=111
28686 Par ch=5 c=7 v=112
28694 Par ch=5 c=7 v=113
28702 Par ch=5 c=7 v=114
28710 On ch=5 n=48 v=0
28710 On ch=5 n=55 v=0
28710 Par ch=5 c=7 v=115
28718 Par ch=5 c=7 v=116
28724 Par ch=5 c=7 v=117
28732 Par ch=5 c=7 v=118
28740 Par ch=5 c=7 v=119
28748 Par ch=5 c=7 v=120
28756 Par ch=5 c=7 v=121
28762 Par ch=5 c=7 v=122
28770 Par ch=5 c=7 v=123
28778 Par ch=5 c=7 v=124
28786 Par ch=5 c=7 v=125
28794 Par ch=5 c=7 v=126
28800 Par ch=5 c=7 v=64
28800 On ch=5 n=43 v=127
28800 On ch=5 n=50 v=127
28808 Par ch=5 c=7 v=65
28816 Par ch=5 c=7 v=66
28824 Par ch=5 c=7 v=67
28832 Par ch=5 c=7 v=68
28840 Par ch=5 c=7 v=69
28846 Par ch=5 c=7 v=70
28854 Par ch=5 c=7 v=71
28862 Par ch=5 c=7 v=72
28870 Par ch=5 c=7 v=73
28878 Par ch=5 c=7 v=74
28884 Par ch=5 c=7 v=75
28892 Par ch=5 c=7 v=76
28900 Par ch=5 c=7 v=77
28908 Par ch=5 c=7 v=78
28916 Par ch=5 c=7 v=79
28922 Par ch=5 c=7 v=80
28930 Par ch=5 c=7 v=81
28938 Par ch=5 c=7 v=82
28946 Par ch=5 c=7 v=83
28950 On ch=5 n=50 v=0
28950 On ch=5 n=43 v=0
28954 Par ch=5 c=7 v=84
28960 Par ch=5 c=7 v=85
28968 Par ch=5 c=7 v=86
28976 Par ch=5 c=7 v=87
28980 On ch=5 n=43 v=127
28980 On ch=5 n=50 v=127
28984 Par ch=5 c=7 v=88
28992 Par ch=5 c=7 v=89
29000 Par ch=5 c=7 v=90
29006 Par ch=5 c=7 v=91
29010 On ch=5 n=50 v=0
29010 On ch=5 n=43 v=0
29010 On ch=5 n=50 v=127
29010 On ch=5 n=43 v=127
29014 Par ch=5 c=7 v=92
29022 Par ch=5 c=7 v=93
29030 Par ch=5 c=7 v=94
29038 Par ch=5 c=7 v=95
29044 Par ch=5 c=7 v=96
29052 Par ch=5 c=7 v=97
29060 Par ch=5 c=7 v=98
29068 Par ch=5 c=7 v=99
29076 Par ch=5 c=7 v=100
29082 Par ch=5 c=7 v=101
29090 Par ch=5 c=7 v=102
29098 Par ch=5 c=7 v=103
29106 Par ch=5 c=7 v=104
29114 Par ch=5 c=7 v=105
29120 Par ch=5 c=7 v=106
29128 Par ch=5 c=7 v=107
29136 Par ch=5 c=7 v=108
29144 Par ch=5 c=7 v=109
29152 Par ch=5 c=7 v=110
29160 Par ch=5 c=7 v=111
29166 Par ch=5 c=7 v=112
29174 Par ch=5 c=7 v=113
29182 Par ch=5 c=7 v=114
29190 Par ch=5 c=7 v=115
29198 Par ch=5 c=7 v=116
29204 Par ch=5 c=7 v=117
29212 Par ch=5 c=7 v=118
29220 On ch=5 n=43 v=0
29220 On ch=5 n=50 v=0
29220 Par ch=5 c=7 v=119
29228 Par ch=5 c=7 v=120
29236 Par ch=5 c=7 v=121
29242 Par ch=5 c=7 v=122
29250 Par ch=5 c=7 v=123
29258 Par ch=5 c=7 v=124
29266 Par ch=5 c=7 v=125
29274 Par ch=5 c=7 v=126
29280 Par ch=5 c=7 v=64
29280 On ch=5 n=48 v=127
29280 On ch=5 n=41 v=127
29288 Par ch=5 c=7 v=65
29296 Par ch=5 c=7 v=66
29304 Par ch=5 c=7 v=67
29312 Par ch=5 c=7 v=68
29320 Par ch=5 c=7 v=69
29326 Par ch=5 c=7 v=70
29334 Par ch=5 c=7 v=71
29342 Par ch=5 c=7 v=72
29350 Par ch=5 c=7 v=73
29358 Par ch=5 c=7 v=74
29364 Par ch=5 c=7 v=75
29372 Par ch=5 c=7 v=76
29380 Par ch=5 c=7 v=77
29388 Par ch=5 c=7 v=78
29396 Par ch=5 c=7 v=79
29400 On ch=5 n=41 v=0
29400 On ch=5 n=48 v=0
29402 Par ch=5 c=7 v=80
29410 Par ch=5 c=7 v=81
29418 Par ch=5 c=7 v=82
29426 Par ch=5 c=7 v=83
29430 On ch=5 n=41 v=127
29434 Par ch=5 c=7 v=84
29440 Par ch=5 c=7 v=85
29448 Par ch=5 c=7 v=86
29456 Par ch=5 c=7 v=87
29460 On ch=5 n=41 v=0
29460 On ch=5 n=48 v=123
29464 Par ch=5 c=7 v=88
29472 Par ch=5 c=7 v=89
29480 Par ch=5 c=7 v=90
29486 Par ch=5 c=7 v=91
29490 On ch=5 n=48 v=0
29490 On ch=5 n=48 v=123
29490 On ch=5 n=41 v=127
29494 Par ch=5 c=7 v=92
29502 Par ch=5 c=7 v=93
29510 Par ch=5 c=7 v=94
29518 Par ch=5 c=7 v=95
29524 Par ch=5 c=7 v=96
29532 Par ch=5 c=7 v=97
29540 Par ch=5 c=7 v=98
29548 Par ch=5 c=7 v=99
29556 Par ch=5 c=7 v=100
29562 Par ch=5 c=7 v=101
29570 Par ch=5 c=7 v=102
29578 Par ch=5 c=7 v=103
29586 Par ch=5 c=7 v=104
29594 Par ch=5 c=7 v=105
29600 Par ch=5 c=7 v=106
29608 Par ch=5 c=7 v=107
29616 Par ch=5 c=7 v=108
29624 Par ch=5 c=7 v=109
29632 Par ch=5 c=7 v=110
29640 Par ch=5 c=7 v=111
29646 Par ch=5 c=7 v=112
29654 Par ch=5 c=7 v=113
29662 Par ch=5 c=7 v=114
29670 Par ch=5 c=7 v=115
29678 Par ch=5 c=7 v=116
29684 Par ch=5 c=7 v=117
29692 Par ch=5 c=7 v=118
29700 On ch=5 n=41 v=0
29700 On ch=5 n=48 v=0
29700 Par ch=5 c=7 v=119
29708 Par ch=5 c=7 v=120
29716 Par ch=5 c=7 v=121
29722 Par ch=5 c=7 v=122
29730 Par ch=5 c=7 v=123
29738 Par ch=5 c=7 v=124
29746 Par ch=5 c=7 v=125
29754 Par ch=5 c=7 v=126
29760 Par ch=5 c=7 v=64
29760 On ch=5 n=50 v=127
29760 On ch=5 n=43 v=127
29768 Par ch=5 c=7 v=65
29776 Par ch=5 c=7 v=66
29784 Par ch=5 c=7 v=67
29792 Par ch=5 c=7 v=68
29800 Par ch=5 c=7 v=69
29806 Par ch=5 c=7 v=70
29814 Par ch=5 c=7 v=71
29822 Par ch=5 c=7 v=72
29830 Par ch=5 c=7 v=73
29838 Par ch=5 c=7 v=74
29844 Par ch=5 c=7 v=75
29852 Par ch=5 c=7 v=76
29860 Par ch=5 c=7 v=77
29868 Par ch=5 c=7 v=78
29876 Par ch=5 c=7 v=79
29882 Par ch=5 c=7 v=80
29890 Par ch=5 c=7 v=81
29898 Par ch=5 c=7 v=82
29906 Par ch=5 c=7 v=83
29910 On ch=5 n=43 v=0
29910 On ch=5 n=50 v=0
29914 Par ch=5 c=7 v=84
29920 Par ch=5 c=7 v=85
29928 Par ch=5 c=7 v=86
29936 Par ch=5 c=7 v=87
29940 On ch=5 n=43 v=127
29940 On ch=5 n=50 v=127
29944 Par ch=5 c=7 v=88
29952 Par ch=5 c=7 v=89
29960 Par ch=5 c=7 v=90
29966 Par ch=5 c=7 v=91
29970 On ch=5 n=50 v=0
29970 On ch=5 n=43 v=0
29970 On ch=5 n=43 v=127
29970 On ch=5 n=50 v=127
29974 Par ch=5 c=7 v=92
29982 Par ch=5 c=7 v=93
29990 Par ch=5 c=7 v=94
29998 Par ch=5 c=7 v=95
30004 Par ch=5 c=7 v=96
30012 Par ch=5 c=7 v=97
30020 Par ch=5 c=7 v=98
30028 Par ch=5 c=7 v=99
30036 Par ch=5 c=7 v=100
30042 Par ch=5 c=7 v=101
30050 Par ch=5 c=7 v=102
30058 Par ch=5 c=7 v=103
30066 Par ch=5 c=7 v=104
30074 Par ch=5 c=7 v=105
30080 Par ch=5 c=7 v=106
30088 Par ch=5 c=7 v=107
30096 Par ch=5 c=7 v=108
30104 Par ch=5 c=7 v=109
30112 Par ch=5 c=7 v=110
30120 Par ch=5 c=7 v=111
30126 Par ch=5 c=7 v=112
30134 Par ch=5 c=7 v=113
30142 Par ch=5 c=7 v=114
30150 Par ch=5 c=7 v=115
30158 Par ch=5 c=7 v=116
30164 Par ch=5 c=7 v=117
30172 Par ch=5 c=7 v=118
30180 On ch=5 n=50 v=0
30180 On ch=5 n=43 v=0
30180 Par ch=5 c=7 v=119
30188 Par ch=5 c=7 v=120
30196 Par ch=5 c=7 v=121
30202 Par ch=5 c=7 v=122
30210 Par ch=5 c=7 v=123
30218 Par ch=5 c=7 v=124
30226 Par ch=5 c=7 v=125
30234 Par ch=5 c=7 v=126
30240 On ch=5 n=55 v=127
30240 On ch=5 n=48 v=127
30241 Par ch=5 c=7 v=64
30250 Par ch=5 c=7 v=65
30258 Par ch=5 c=7 v=66
30265 Par ch=5 c=7 v=67
30273 Par ch=5 c=7 v=68
30280 Par ch=5 c=7 v=69
30288 Par ch=5 c=7 v=70
30295 Par ch=5 c=7 v=71
30303 Par ch=5 c=7 v=72
30310 Par ch=5 c=7 v=73
30318 Par ch=5 c=7 v=74
30326 Par ch=5 c=7 v=75
30333 Par ch=5 c=7 v=76
30341 Par ch=5 c=7 v=77
30348 Par ch=5 c=7 v=78
30356 Par ch=5 c=7 v=79
30363 Par ch=5 c=7 v=80
30371 Par ch=5 c=7 v=81
30378 Par ch=5 c=7 v=82
30386 Par ch=5 c=7 v=83
30390 On ch=5 n=48 v=0
30390 On ch=5 n=55 v=0
30395 Par ch=5 c=7 v=84
30401 Par ch=5 c=7 v=85
30410 Par ch=5 c=7 v=86
30416 Par ch=5 c=7 v=87
30420 On ch=5 n=48 v=127
30420 On ch=5 n=55 v=120
30425 Par ch=5 c=7 v=88
30431 Par ch=5 c=7 v=89
30440 Par ch=5 c=7 v=90
30446 Par ch=5 c=7 v=91
30450 On ch=5 n=55 v=0
30450 On ch=5 n=48 v=0
30450 On ch=5 n=55 v=123
30450 On ch=5 n=48 v=127
30455 Par ch=5 c=7 v=92
30463 Par ch=5 c=7 v=93
30470 Par ch=5 c=7 v=94
30478 Par ch=5 c=7 v=95
30485 Par ch=5 c=7 v=96
30493 Par ch=5 c=7 v=97
30500 Par ch=5 c=7 v=98
30508 Par ch=5 c=7 v=99
30515 Par ch=5 c=7 v=100
30523 Par ch=5 c=7 v=101
30531 Par ch=5 c=7 v=102
30538 Par ch=5 c=7 v=103
30546 Par ch=5 c=7 v=104
30553 Par ch=5 c=7 v=105
30561 Par ch=5 c=7 v=106
30568 Par ch=5 c=7 v=107
30576 Par ch=5 c=7 v=108
30583 Par ch=5 c=7 v=109
30591 Par ch=5 c=7 v=110
30600 Par ch=5 c=7 v=111
30606 Par ch=5 c=7 v=112
30615 Par ch=5 c=7 v=113
30621 Par ch=5 c=7 v=114
30630 Par ch=5 c=7 v=115
30636 Par ch=5 c=7 v=116
30645 Par ch=5 c=7 v=117
30651 Par ch=5 c=7 v=118
30660 On ch=5 n=48 v=0
30660 On ch=5 n=55 v=0
30660 Par ch=5 c=7 v=119
30668 Par ch=5 c=7 v=120
30675 Par ch=5 c=7 v=121
30683 Par ch=5 c=7 v=122
30690 Par ch=5 c=7 v=123
30698 Par ch=5 c=7 v=124
30705 Par ch=5 c=7 v=125
30713 Par ch=5 c=7 v=126
30720 Par ch=5 c=7 v=127
30720 On ch=5 n=50 v=127
30720 On ch=5 n=43 v=127
30721 Par ch=5 c=7 v=64
30730 Par ch=5 c=7 v=65
30738 Par ch=5 c=7 v=66
30745 Par ch=5 c=7 v=67
30753 Par ch=5 c=7 v=68
30760 Par ch=5 c=7 v=69
30768 Par ch=5 c=7 v=70
30775 Par ch=5 c=7 v=71
30783 Par ch=5 c=7 v=72
30790 Par ch=5 c=7 v=73
30798 Par ch=5 c=7 v=74
30805 Par ch=5 c=7 v=75
30813 Par ch=5 c=7 v=76
30821 Par ch=5 c=7 v=77
30828 Par ch=5 c=7 v=78
30836 Par ch=5 c=7 v=79
30843 Par ch=5 c=7 v=80
30851 Par ch=5 c=7 v=81
30858 Par ch=5 c=7 v=82
30866 Par ch=5 c=7 v=83
30870 On ch=5 n=43 v=0
30870 On ch=5 n=50 v=0
30873 Par ch=5 c=7 v=84
30881 Par ch=5 c=7 v=85
30888 Par ch=5 c=7 v=86
30896 Par ch=5 c=7 v=87
30900 On ch=5 n=50 v=127
30900 On ch=5 n=43 v=127
30903 Par ch=5 c=7 v=88
30911 Par ch=5 c=7 v=89
30920 Par ch=5 c=7 v=90
30926 Par ch=5 c=7 v=91
30930 On ch=5 n=43 v=0
30930 On ch=5 n=50 v=0
30930 On ch=5 n=50 v=127
30930 On ch=5 n=43 v=127
30935 Par ch=5 c=7 v=92
30941 Par ch=5 c=7 v=93
30950 Par ch=5 c=7 v=94
30956 Par ch=5 c=7 v=95
30965 Par ch=5 c=7 v=96
30971 Par ch=5 c=7 v=97
30980 Par ch=5 c=7 v=98
30986 Par ch=5 c=7 v=99
30995 Par ch=5 c=7 v=100
31001 Par ch=5 c=7 v=101
31010 Par ch=5 c=7 v=102
31018 Par ch=5 c=7 v=103
31025 Par ch=5 c=7 v=104
31033 Par ch=5 c=7 v=105
31040 Par ch=5 c=7 v=106
31048 Par ch=5 c=7 v=107
31055 Par ch=5 c=7 v=108
31063 Par ch=5 c=7 v=109
31070 Par ch=5 c=7 v=110
31078 Par ch=5 c=7 v=111
31085 Par ch=5 c=7 v=112
31093 Par ch=5 c=7 v=113
31100 Par ch=5 c=7 v=114
31108 Par ch=5 c=7 v=115
31116 Par ch=5 c=7 v=116
31123 Par ch=5 c=7 v=117
31131 Par ch=5 c=7 v=118
31138 Par ch=5 c=7 v=119
31146 Par ch=5 c=7 v=120
31153 Par ch=5 c=7 v=121
31161 Par ch=5 c=7 v=122
31168 Par ch=5 c=7 v=123
31170 On ch=5 n=43 v=0
31170 On ch=5 n=50 v=0
31176 Par ch=5 c=7 v=124
31183 Par ch=5 c=7 v=125
31191 Par ch=5 c=7 v=126
31198 Par ch=5 c=7 v=127
31200 Par ch=5 c=7 v=64
31200 On ch=5 n=41 v=127
31200 On ch=5 n=48 v=127
31208 Par ch=5 c=7 v=65
31216 Par ch=5 c=7 v=66
31224 Par ch=5 c=7 v=67
31232 Par ch=5 c=7 v=68
31240 Par ch=5 c=7 v=69
31246 Par ch=5 c=7 v=70
31254 Par ch=5 c=7 v=71
31262 Par ch=5 c=7 v=72
31270 Par ch=5 c=7 v=73
31278 Par ch=5 c=7 v=74
31284 Par ch=5 c=7 v=75
31292 Par ch=5 c=7 v=76
31300 Par ch=5 c=7 v=77
31308 Par ch=5 c=7 v=78
31316 Par ch=5 c=7 v=79
31322 Par ch=5 c=7 v=80
31330 Par ch=5 c=7 v=81
31338 Par ch=5 c=7 v=82
31346 Par ch=5 c=7 v=83
31350 On ch=5 n=48 v=0
31350 On ch=5 n=41 v=0
31354 Par ch=5 c=7 v=84
31360 Par ch=5 c=7 v=85
31368 Par ch=5 c=7 v=86
31376 Par ch=5 c=7 v=87
31380 On ch=5 n=41 v=127
31380 On ch=5 n=48 v=127
31384 Par ch=5 c=7 v=88
31392 Par ch=5 c=7 v=89
31400 Par ch=5 c=7 v=90
31406 Par ch=5 c=7 v=91
31410 On ch=5 n=48 v=0
31410 On ch=5 n=41 v=0
31410 On ch=5 n=48 v=127
31410 On ch=5 n=41 v=127
31414 Par ch=5 c=7 v=92
31422 Par ch=5 c=7 v=93
31430 Par ch=5 c=7 v=94
31438 Par ch=5 c=7 v=95
31444 Par ch=5 c=7 v=96
31452 Par ch=5 c=7 v=97
31460 Par ch=5 c=7 v=98
31468 Par ch=5 c=7 v=99
31476 Par ch=5 c=7 v=100
31482 Par ch=5 c=7 v=101
31490 Par ch=5 c=7 v=102
31498 Par ch=5 c=7 v=103
31506 Par ch=5 c=7 v=104
31514 Par ch=5 c=7 v=105
31520 Par ch=5 c=7 v=106
31528 Par ch=5 c=7 v=107
31536 Par ch=5 c=7 v=108
31544 Par ch=5 c=7 v=109
31552 Par ch=5 c=7 v=110
31560 Par ch=5 c=7 v=111
31566 Par ch=5 c=7 v=112
31574 Par ch=5 c=7 v=113
31582 Par ch=5 c=7 v=114
31590 Par ch=5 c=7 v=115
31598 Par ch=5 c=7 v=116
31604 Par ch=5 c=7 v=117
31612 Par ch=5 c=7 v=118
31620 Par ch=5 c=7 v=119
31628 Par ch=5 c=7 v=120
31636 Par ch=5 c=7 v=121
31642 Par ch=5 c=7 v=122
31650 On ch=5 n=41 v=0
31650 On ch=5 n=48 v=0
31650 Par ch=5 c=7 v=123
31658 Par ch=5 c=7 v=124
31666 Par ch=5 c=7 v=125
31674 Par ch=5 c=7 v=126
31680 Par ch=5 c=7 v=64
31680 On ch=5 n=43 v=127
31680 On ch=5 n=50 v=127
31688 Par ch=5 c=7 v=65
31696 Par ch=5 c=7 v=66
31704 Par ch=5 c=7 v=67
31712 Par ch=5 c=7 v=68
31720 Par ch=5 c=7 v=69
31726 Par ch=5 c=7 v=70
31734 Par ch=5 c=7 v=71
31742 Par ch=5 c=7 v=72
31750 Par ch=5 c=7 v=73
31758 Par ch=5 c=7 v=74
31764 Par ch=5 c=7 v=75
31772 Par ch=5 c=7 v=76
31780 Par ch=5 c=7 v=77
31788 Par ch=5 c=7 v=78
31796 Par ch=5 c=7 v=79
31802 Par ch=5 c=7 v=80
31810 Par ch=5 c=7 v=81
31818 Par ch=5 c=7 v=82
31826 Par ch=5 c=7 v=83
31830 On ch=5 n=50 v=0
31830 On ch=5 n=43 v=0
31834 Par ch=5 c=7 v=84
31840 Par ch=5 c=7 v=85
31848 Par ch=5 c=7 v=86
31856 Par ch=5 c=7 v=87
31860 On ch=5 n=50 v=127
31860 On ch=5 n=43 v=127
31864 Par ch=5 c=7 v=88
31872 Par ch=5 c=7 v=89
31880 Par ch=5 c=7 v=90
31886 Par ch=5 c=7 v=91
31890 On ch=5 n=43 v=0
31890 On ch=5 n=50 v=0
31890 On ch=5 n=50 v=127
31890 On ch=5 n=43 v=127
31894 Par ch=5 c=7 v=92
31902 Par ch=5 c=7 v=93
31910 Par ch=5 c=7 v=94
31918 Par ch=5 c=7 v=95
31924 Par ch=5 c=7 v=96
31932 Par ch=5 c=7 v=97
31940 Par ch=5 c=7 v=98
31948 Par ch=5 c=7 v=99
31956 Par ch=5 c=7 v=100
31962 Par ch=5 c=7 v=101
31970 Par ch=5 c=7 v=102
31978 Par ch=5 c=7 v=103
31986 Par ch=5 c=7 v=104
31994 Par ch=5 c=7 v=105
32000 Par ch=5 c=7 v=106
32008 Par ch=5 c=7 v=107
32016 Par ch=5 c=7 v=108
32024 Par ch=5 c=7 v=109
32032 Par ch=5 c=7 v=110
32040 Par ch=5 c=7 v=111
32046 Par ch=5 c=7 v=112
32054 Par ch=5 c=7 v=113
32062 Par ch=5 c=7 v=114
32070 Par ch=5 c=7 v=115
32078 Par ch=5 c=7 v=116
32084 Par ch=5 c=7 v=117
32092 Par ch=5 c=7 v=118
32100 On ch=5 n=43 v=0
32100 On ch=5 n=50 v=0
32100 Par ch=5 c=7 v=119
32108 Par ch=5 c=7 v=120
32116 Par ch=5 c=7 v=121
32122 Par ch=5 c=7 v=122
32130 Par ch=5 c=7 v=123
32138 Par ch=5 c=7 v=124
32146 Par ch=5 c=7 v=125
32154 Par ch=5 c=7 v=126
32160 Par ch=5 c=7 v=64
32160 On ch=5 n=48 v=127
32160 On ch=5 n=55 v=127
32168 Par ch=5 c=7 v=65
32176 Par ch=5 c=7 v=66
32184 Par ch=5 c=7 v=67
32192 Par ch=5 c=7 v=68
32200 Par ch=5 c=7 v=69
32206 Par ch=5 c=7 v=70
32214 Par ch=5 c=7 v=71
32222 Par ch=5 c=7 v=72
32230 Par ch=5 c=7 v=73
32238 Par ch=5 c=7 v=74
32244 Par ch=5 c=7 v=75
32252 Par ch=5 c=7 v=76
32260 Par ch=5 c=7 v=77
32268 Par ch=5 c=7 v=78
32276 Par ch=5 c=7 v=79
32282 Par ch=5 c=7 v=80
32290 Par ch=5 c=7 v=81
32298 Par ch=5 c=7 v=82
32306 Par ch=5 c=7 v=83
32310 On ch=5 n=55 v=0
32310 On ch=5 n=48 v=0
32314 Par ch=5 c=7 v=84
32320 Par ch=5 c=7 v=85
32328 Par ch=5 c=7 v=86
32336 Par ch=5 c=7 v=87
32340 On ch=5 n=48 v=127
32340 On ch=5 n=55 v=127
32344 Par ch=5 c=7 v=88
32352 Par ch=5 c=7 v=89
32360 Par ch=5 c=7 v=90
32366 Par ch=5 c=7 v=91
32370 On ch=5 n=55 v=0
32370 On ch=5 n=48 v=0
32370 On ch=5 n=55 v=114
32370 On ch=5 n=48 v=127
32374 Par ch=5 c=7 v=92
32382 Par ch=5 c=7 v=93
32390 Par ch=5 c=7 v=94
32398 Par ch=5 c=7 v=95
32404 Par ch=5 c=7 v=96
32412 Par ch=5 c=7 v=97
32420 Par ch=5 c=7 v=98
32428 Par ch=5 c=7 v=99
32436 Par ch=5 c=7 v=100
32442 Par ch=5 c=7 v=101
32450 Par ch=5 c=7 v=102
32458 Par ch=5 c=7 v=103
32466 Par ch=5 c=7 v=104
32474 Par ch=5 c=7 v=105
32480 Par ch=5 c=7 v=106
32488 Par ch=5 c=7 v=107
32496 Par ch=5 c=7 v=108
32504 Par ch=5 c=7 v=109
32512 Par ch=5 c=7 v=110
32520 Par ch=5 c=7 v=111
32526 Par ch=5 c=7 v=112
32534 Par ch=5 c=7 v=113
32542 Par ch=5 c=7 v=114
32550 On ch=5 n=48 v=0
32550 On ch=5 n=55 v=0
32550 Par ch=5 c=7 v=115
32558 Par ch=5 c=7 v=116
32564 Par ch=5 c=7 v=117
32572 Par ch=5 c=7 v=118
32580 Par ch=5 c=7 v=119
32588 Par ch=5 c=7 v=120
32596 Par ch=5 c=7 v=121
32602 Par ch=5 c=7 v=122
32610 Par ch=5 c=7 v=123
32618 Par ch=5 c=7 v=124
32626 Par ch=5 c=7 v=125
32634 Par ch=5 c=7 v=126
32640 Par ch=5 c=7 v=64
32640 On ch=5 n=43 v=127
32640 On ch=5 n=50 v=127
32648 Par ch=5 c=7 v=65
32656 Par ch=5 c=7 v=66
32664 Par ch=5 c=7 v=67
32672 Par ch=5 c=7 v=68
32680 Par ch=5 c=7 v=69
32686 Par ch=5 c=7 v=70
32694 Par ch=5 c=7 v=71
32702 Par ch=5 c=7 v=72
32710 Par ch=5 c=7 v=73
32718 Par ch=5 c=7 v=74
32724 Par ch=5 c=7 v=75
32732 Par ch=5 c=7 v=76
32740 Par ch=5 c=7 v=77
32748 Par ch=5 c=7 v=78
32756 Par ch=5 c=7 v=79
32762 Par ch=5 c=7 v=80
32770 Par ch=5 c=7 v=81
32778 Par ch=5 c=7 v=82
32786 Par ch=5 c=7 v=83
32790 On ch=5 n=50 v=0
32790 On ch=5 n=43 v=0
32794 Par ch=5 c=7 v=84
32800 Par ch=5 c=7 v=85
32808 Par ch=5 c=7 v=86
32816 Par ch=5 c=7 v=87
32820 On ch=5 n=43 v=127
32820 On ch=5 n=50 v=127
32824 Par ch=5 c=7 v=88
32832 Par ch=5 c=7 v=89
32840 Par ch=5 c=7 v=90
32846 Par ch=5 c=7 v=91
32850 On ch=5 n=50 v=0
32850 On ch=5 n=43 v=0
32850 On ch=5 n=50 v=127
32850 On ch=5 n=43 v=127
32854 Par ch=5 c=7 v=92
32862 Par ch=5 c=7 v=93
32870 Par ch=5 c=7 v=94
32878 Par ch=5 c=7 v=95
32884 Par ch=5 c=7 v=96
32892 Par ch=5 c=7 v=97
32900 Par ch=5 c=7 v=98
32908 Par ch=5 c=7 v=99
32916 Par ch=5 c=7 v=100
32922 Par ch=5 c=7 v=101
32930 Par ch=5 c=7 v=102
32938 Par ch=5 c=7 v=103
32946 Par ch=5 c=7 v=104
32954 Par ch=5 c=7 v=105
32960 Par ch=5 c=7 v=106
32968 Par ch=5 c=7 v=107
32976 Par ch=5 c=7 v=108
32984 Par ch=5 c=7 v=109
32992 Par ch=5 c=7 v=110
33000 Par ch=5 c=7 v=111
33006 Par ch=5 c=7 v=112
33014 Par ch=5 c=7 v=113
33022 Par ch=5 c=7 v=114
33030 Par ch=5 c=7 v=115
33038 Par ch=5 c=7 v=116
33044 Par ch=5 c=7 v=117
33052 Par ch=5 c=7 v=118
33060 On ch=5 n=43 v=0
33060 On ch=5 n=50 v=0
33060 Par ch=5 c=7 v=119
33068 Par ch=5 c=7 v=120
33076 Par ch=5 c=7 v=121
33082 Par ch=5 c=7 v=122
33090 Par ch=5 c=7 v=123
33098 Par ch=5 c=7 v=124
33106 Par ch=5 c=7 v=125
33114 Par ch=5 c=7 v=126
33120 Par ch=5 c=7 v=64
33120 On ch=5 n=48 v=127
33120 On ch=5 n=41 v=127
33128 Par ch=5 c=7 v=65
33136 Par ch=5 c=7 v=66
33144 Par ch=5 c=7 v=67
33152 Par ch=5 c=7 v=68
33160 Par ch=5 c=7 v=69
33166 Par ch=5 c=7 v=70
33174 Par ch=5 c=7 v=71
33182 Par ch=5 c=7 v=72
33190 Par ch=5 c=7 v=73
33198 Par ch=5 c=7 v=74
33204 Par ch=5 c=7 v=75
33212 Par ch=5 c=7 v=76
33220 Par ch=5 c=7 v=77
33228 Par ch=5 c=7 v=78
33236 Par ch=5 c=7 v=79
33240 On ch=5 n=41 v=0
33240 On ch=5 n=48 v=0
33242 Par ch=5 c=7 v=80
33250 Par ch=5 c=7 v=81
33258 Par ch=5 c=7 v=82
33266 Par ch=5 c=7 v=83
33270 On ch=5 n=41 v=127
33274 Par ch=5 c=7 v=84
33280 Par ch=5 c=7 v=85
33288 Par ch=5 c=7 v=86
33296 Par ch=5 c=7 v=87
33300 On ch=5 n=41 v=0
33300 On ch=5 n=48 v=123
33304 Par ch=5 c=7 v=88
33312 Par ch=5 c=7 v=89
33320 Par ch=5 c=7 v=90
33326 Par ch=5 c=7 v=91
33330 On ch=5 n=48 v=0
33330 On ch=5 n=48 v=123
33330 On ch=5 n=41 v=127
33334 Par ch=5 c=7 v=92
33342 Par ch=5 c=7 v=93
33350 Par ch=5 c=7 v=94
33358 Par ch=5 c=7 v=95
33364 Par ch=5 c=7 v=96
33372 Par ch=5 c=7 v=97
33380 Par ch=5 c=7 v=98
33388 Par ch=5 c=7 v=99
33396 Par ch=5 c=7 v=100
33402 Par ch=5 c=7 v=101
33410 Par ch=5 c=7 v=102
33418 Par ch=5 c=7 v=103
33426 Par ch=5 c=7 v=104
33434 Par ch=5 c=7 v=105
33440 Par ch=5 c=7 v=106
33448 Par ch=5 c=7 v=107
33456 Par ch=5 c=7 v=108
33464 Par ch=5 c=7 v=109
33472 Par ch=5 c=7 v=110
33480 Par ch=5 c=7 v=111
33486 Par ch=5 c=7 v=112
33494 Par ch=5 c=7 v=113
33502 Par ch=5 c=7 v=114
33510 Par ch=5 c=7 v=115
33518 Par ch=5 c=7 v=116
33524 Par ch=5 c=7 v=117
33532 Par ch=5 c=7 v=118
33540 On ch=5 n=41 v=0
33540 On ch=5 n=48 v=0
33540 Par ch=5 c=7 v=119
33548 Par ch=5 c=7 v=120
33556 Par ch=5 c=7 v=121
33562 Par ch=5 c=7 v=122
33570 Par ch=5 c=7 v=123
33578 Par ch=5 c=7 v=124
33586 Par ch=5 c=7 v=125
33594 Par ch=5 c=7 v=126
33600 Par ch=5 c=7 v=64
33600 On ch=5 n=50 v=127
33600 On ch=5 n=43 v=127
33608 Par ch=5 c=7 v=65
33616 Par ch=5 c=7 v=66
33624 Par ch=5 c=7 v=67
33632 Par ch=5 c=7 v=68
33640 Par ch=5 c=7 v=69
33646 Par ch=5 c=7 v=70
33654 Par ch=5 c=7 v=71
33662 Par ch=5 c=7 v=72
33670 Par ch=5 c=7 v=73
33678 Par ch=5 c=7 v=74
33684 Par ch=5 c=7 v=75
33692 Par ch=5 c=7 v=76
33700 Par ch=5 c=7 v=77
33708 Par ch=5 c=7 v=78
33716 Par ch=5 c=7 v=79
33722 Par ch=5 c=7 v=80
33730 Par ch=5 c=7 v=81
33738 Par ch=5 c=7 v=82
33746 Par ch=5 c=7 v=83
33750 On ch=5 n=43 v=0
33750 On ch=5 n=50 v=0
33754 Par ch=5 c=7 v=84
33760 Par ch=5 c=7 v=85
33768 Par ch=5 c=7 v=86
33776 Par ch=5 c=7 v=87
33780 On ch=5 n=43 v=127
33780 On ch=5 n=50 v=127
33784 Par ch=5 c=7 v=88
33792 Par ch=5 c=7 v=89
33800 Par ch=5 c=7 v=90
33806 Par ch=5 c=7 v=91
33810 On ch=5 n=50 v=0
33810 On ch=5 n=43 v=0
33810 On ch=5 n=43 v=127
33810 On ch=5 n=50 v=127
33814 Par ch=5 c=7 v=92
33822 Par ch=5 c=7 v=93
33830 Par ch=5 c=7 v=94
33838 Par ch=5 c=7 v=95
33844 Par ch=5 c=7 v=96
33852 Par ch=5 c=7 v=97
33860 Par ch=5 c=7 v=98
33868 Par ch=5 c=7 v=99
33876 Par ch=5 c=7 v=100
33882 Par ch=5 c=7 v=101
33890 Par ch=5 c=7 v=102
33898 Par ch=5 c=7 v=103
33906 Par ch=5 c=7 v=104
33914 Par ch=5 c=7 v=105
33920 Par ch=5 c=7 v=106
33928 Par ch=5 c=7 v=107
33936 Par ch=5 c=7 v=108
33944 Par ch=5 c=7 v=109
33952 Par ch=5 c=7 v=110
33960 Par ch=5 c=7 v=111
33966 Par ch=5 c=7 v=112
33974 Par ch=5 c=7 v=113
33982 Par ch=5 c=7 v=114
33990 Par ch=5 c=7 v=115
33998 Par ch=5 c=7 v=116
34004 Par ch=5 c=7 v=117
34012 Par ch=5 c=7 v=118
34020 On ch=5 n=50 v=0
34020 On ch=5 n=43 v=0
34020 Par ch=5 c=7 v=119
34028 Par ch=5 c=7 v=120
34036 Par ch=5 c=7 v=121
34042 Par ch=5 c=7 v=122
34050 Par ch=5 c=7 v=123
34058 Par ch=5 c=7 v=124
34066 Par ch=5 c=7 v=125
34074 Par ch=5 c=7 v=126
34080 On ch=5 n=55 v=101
34080 On ch=5 n=50 v=101
34080 On ch=5 n=43 v=101
35010 On ch=5 n=43 v=0
35010 On ch=5 n=50 v=0
35010 On ch=5 n=55 v=0
35040 On ch=5 n=59 v=102
35040 On ch=5 n=60 v=107
35040 On ch=5 n=55 v=105
35040 On ch=5 n=64 v=102
35100 On ch=5 n=64 v=0
35100 On ch=5 n=59 v=0
35100 On ch=5 n=60 v=0
35100 On ch=5 n=55 v=0
35130 On ch=5 n=59 v=95
35130 On ch=5 n=60 v=95
35130 On ch=5 n=55 v=98
35130 On ch=5 n=64 v=68
35130 On ch=5 n=65 v=64
35160 On ch=5 n=65 v=0
35160 On ch=5 n=55 v=0
35160 On ch=5 n=59 v=0
35160 On ch=5 n=60 v=0
35160 On ch=5 n=64 v=0
35160 On ch=5 n=55 v=95
35160 On ch=5 n=60 v=87
35160 On ch=5 n=59 v=93
35160 On ch=5 n=64 v=80
35190 On ch=5 n=64 v=0
35190 On ch=5 n=55 v=0
35190 On ch=5 n=60 v=0
35190 On ch=5 n=59 v=0
35220 On ch=5 n=55 v=107
35220 On ch=5 n=60 v=110
35220 On ch=5 n=59 v=105
35220 On ch=5 n=64 v=102
35430 On ch=5 n=64 v=0
35430 On ch=5 n=55 v=0
35430 On ch=5 n=60 v=0
35430 On ch=5 n=59 v=0
35520 On ch=5 n=59 v=110
35520 On ch=5 n=62 v=110
35520 On ch=5 n=55 v=105
35580 On ch=5 n=55 v=0
35580 On ch=5 n=62 v=0
35580 On ch=5 n=59 v=0
35610 On ch=5 n=59 v=105
35610 On ch=5 n=62 v=102
35610 On ch=5 n=55 v=102
35640 On ch=5 n=55 v=0
35640 On ch=5 n=62 v=0
35640 On ch=5 n=59 v=0
35640 On ch=5 n=62 v=95
35640 On ch=5 n=55 v=85
35640 On ch=5 n=59 v=95
35670 On ch=5 n=59 v=0
35670 On ch=5 n=55 v=0
35670 On ch=5 n=62 v=0
35700 On ch=5 n=62 v=105
35700 On ch=5 n=59 v=110
35700 On ch=5 n=55 v=110
35910 On ch=5 n=55 v=0
35910 On ch=5 n=59 v=0
35910 On ch=5 n=62 v=0
36000 On ch=5 n=59 v=102
36000 On ch=5 n=64 v=98
36000 On ch=5 n=55 v=102
36000 On ch=5 n=60 v=102
36060 On ch=5 n=60 v=0
36060 On ch=5 n=59 v=0
36060 On ch=5 n=64 v=0
36060 On ch=5 n=55 v=0
36090 On ch=5 n=55 v=100
36090 On ch=5 n=59 v=105
36090 On ch=5 n=60 v=102
36090 On ch=5 n=64 v=93
36120 On ch=5 n=64 v=0
36120 On ch=5 n=55 v=0
36120 On ch=5 n=59 v=0
36120 On ch=5 n=60 v=0
36120 On ch=5 n=64 v=80
36120 On ch=5 n=59 v=91
36120 On ch=5 n=55 v=85
36120 On ch=5 n=60 v=95
36150 On ch=5 n=60 v=0
36150 On ch=5 n=64 v=0
36150 On ch=5 n=59 v=0
36150 On ch=5 n=55 v=0
36180 On ch=5 n=64 v=102
36180 On ch=5 n=55 v=105
36180 On ch=5 n=59 v=102
36180 On ch=5 n=60 v=107
36390 On ch=5 n=60 v=0
36390 On ch=5 n=64 v=0
36390 On ch=5 n=55 v=0
36390 On ch=5 n=59 v=0
36480 On ch=5 n=59 v=105
36480 On ch=5 n=55 v=100
36480 On ch=5 n=62 v=107
36540 On ch=5 n=62 v=0
36540 On ch=5 n=55 v=0
36540 On ch=5 n=59 v=0
36570 On ch=5 n=59 v=102
36570 On ch=5 n=55 v=98
36570 On ch=5 n=62 v=102
36600 On ch=5 n=62 v=0
36600 On ch=5 n=55 v=0
36600 On ch=5 n=59 v=0
36600 On ch=5 n=59 v=87
36600 On ch=5 n=55 v=89
36600 On ch=5 n=62 v=98
36630 On ch=5 n=62 v=0
36630 On ch=5 n=55 v=0
36630 On ch=5 n=59 v=0
36660 On ch=5 n=59 v=107
36660 On ch=5 n=62 v=107
36660 On ch=5 n=55 v=105
36870 On ch=5 n=55 v=0
36870 On ch=5 n=62 v=0
36870 On ch=5 n=59 v=0
36960 On ch=5 n=64 v=102
36960 On ch=5 n=59 v=102
36960 On ch=5 n=60 v=102
36960 On ch=5 n=55 v=102
37020 On ch=5 n=55 v=0
37020 On ch=5 n=64 v=0
37020 On ch=5 n=59 v=0
37020 On ch=5 n=60 v=0
37050 On ch=5 n=64 v=98
37050 On ch=5 n=59 v=102
37050 On ch=5 n=60 v=102
37050 On ch=5 n=55 v=100
37080 On ch=5 n=55 v=0
37080 On ch=5 n=64 v=0
37080 On ch=5 n=59 v=0
37080 On ch=5 n=60 v=0
37080 On ch=5 n=64 v=89
37080 On ch=5 n=55 v=95
37080 On ch=5 n=59 v=87
37080 On ch=5 n=60 v=87
37110 On ch=5 n=60 v=0
37110 On ch=5 n=64 v=0
37110 On ch=5 n=55 v=0
37110 On ch=5 n=59 v=0
37140 On ch=5 n=64 v=102
37140 On ch=5 n=55 v=107
37140 On ch=5 n=60 v=110
37140 On ch=5 n=59 v=102
37380 On ch=5 n=59 v=0
37380 On ch=5 n=64 v=0
37380 On ch=5 n=55 v=0
37380 On ch=5 n=60 v=0
37440 On ch=5 n=59 v=102
37440 On ch=5 n=62 v=105
37440 On ch=5 n=55 v=102
37500 On ch=5 n=55 v=0
37500 On ch=5 n=62 v=0
37500 On ch=5 n=59 v=0
37530 On ch=5 n=59 v=102
37530 On ch=5 n=55 v=98
37530 On ch=5 n=62 v=102
37560 On ch=5 n=62 v=0
37560 On ch=5 n=55 v=0
37560 On ch=5 n=59 v=0
37560 On ch=5 n=59 v=93
37560 On ch=5 n=62 v=100
37560 On ch=5 n=55 v=82
37590 On ch=5 n=55 v=0
37590 On ch=5 n=62 v=0
37590 On ch=5 n=59 v=0
37620 On ch=5 n=59 v=107
37620 On ch=5 n=55 v=110
37620 On ch=5 n=62 v=107
37860 On ch=5 n=62 v=0
37860 On ch=5 n=55 v=0
37860 On ch=5 n=59 v=0
37920 On ch=5 n=55 v=102
37920 On ch=5 n=59 v=107
37920 On ch=5 n=60 v=107
37920 On ch=5 n=64 v=105
37921 On ch=5 n=55 v=127
37980 On ch=5 n=64 v=0
37980 On ch=5 n=60 v=0
37980 On ch=5 n=55 v=0
37980 On ch=5 n=59 v=0
38010 On ch=5 n=59 v=107
38010 On ch=5 n=64 v=100
38010 On ch=5 n=55 v=105
38010 On ch=5 n=60 v=102
38040 On ch=5 n=60 v=0
38040 On ch=5 n=55 v=0
38040 On ch=5 n=64 v=0
38040 On ch=5 n=59 v=0
38040 On ch=5 n=64 v=70
38040 On ch=5 n=59 v=95
38040 On ch=5 n=55 v=82
38040 On ch=5 n=60 v=80
38070 On ch=5 n=60 v=0
38070 On ch=5 n=55 v=0
38070 On ch=5 n=59 v=0
38070 On ch=5 n=64 v=0
38100 On ch=5 n=64 v=107
38100 On ch=5 n=55 v=113
38100 On ch=5 n=59 v=105
38100 On ch=5 n=60 v=110
38340 On ch=5 n=60 v=0
38340 On ch=5 n=64 v=0
38340 On ch=5 n=55 v=0
38340 On ch=5 n=59 v=0
38391 On ch=5 n=55 v=0
38460 On ch=5 n=55 v=105
38460 On ch=5 n=59 v=107
38460 On ch=5 n=62 v=107
38490 On ch=5 n=62 v=0
38490 On ch=5 n=59 v=0
38490 On ch=5 n=55 v=0
38580 On ch=5 n=59 v=122
38580 On ch=5 n=55 v=119
38580 On ch=5 n=62 v=116
38850 On ch=5 n=62 v=0
38850 On ch=5 n=55 v=0
38850 On ch=5 n=59 v=0
38880 On ch=5 n=59 v=102
38880 On ch=5 n=60 v=107
38880 On ch=5 n=55 v=105
38880 On ch=5 n=64 v=102
38940 On ch=5 n=64 v=0
38940 On ch=5 n=59 v=0
38940 On ch=5 n=60 v=0
38940 On ch=5 n=55 v=0
38970 On ch=5 n=59 v=93
38970 On ch=5 n=60 v=93
38970 On ch=5 n=55 v=96
38970 On ch=5 n=64 v=66
39000 On ch=5 n=64 v=0
39000 On ch=5 n=59 v=0
39000 On ch=5 n=60 v=0
39000 On ch=5 n=55 v=0
39000 On ch=5 n=55 v=92
39000 On ch=5 n=60 v=84
39000 On ch=5 n=59 v=90
39000 On ch=5 n=64 v=77
39030 On ch=5 n=64 v=0
39030 On ch=5 n=55 v=0
39030 On ch=5 n=60 v=0
39030 On ch=5 n=59 v=0
39060 On ch=5 n=55 v=101
39060 On ch=5 n=60 v=104
39060 On ch=5 n=59 v=99
39060 On ch=5 n=64 v=96
39270 On ch=5 n=64 v=0
39270 On ch=5 n=55 v=0
39270 On ch=5 n=60 v=0
39270 On ch=5 n=59 v=0
39360 On ch=5 n=59 v=94
39360 On ch=5 n=62 v=94
39360 On ch=5 n=55 v=90
39420 On ch=5 n=55 v=0
39420 On ch=5 n=62 v=0
39420 On ch=5 n=59 v=0
39450 On ch=5 n=59 v=88
39450 On ch=5 n=62 v=85
39450 On ch=5 n=55 v=85
39480 On ch=5 n=55 v=0
39480 On ch=5 n=62 v=0
39480 On ch=5 n=59 v=0
39480 On ch=5 n=62 v=78
39480 On ch=5 n=55 v=70
39480 On ch=5 n=59 v=78
39510 On ch=5 n=59 v=0
39510 On ch=5 n=55 v=0
39510 On ch=5 n=62 v=0
39540 On ch=5 n=62 v=85
39540 On ch=5 n=59 v=89
39540 On ch=5 n=55 v=89
39750 On ch=5 n=55 v=0
39750 On ch=5 n=59 v=0
39750 On ch=5 n=62 v=0
39840 On ch=5 n=59 v=73
39840 On ch=5 n=64 v=70
39840 On ch=5 n=55 v=73
39840 On ch=5 n=60 v=73
39900 On ch=5 n=60 v=0
39900 On ch=5 n=59 v=0
39900 On ch=5 n=64 v=0
39900 On ch=5 n=55 v=0
39930 On ch=5 n=55 v=69
39930 On ch=5 n=59 v=72
39930 On ch=5 n=60 v=70
39930 On ch=5 n=64 v=64
39960 On ch=5 n=64 v=0
39960 On ch=5 n=55 v=0
39960 On ch=5 n=59 v=0
39960 On ch=5 n=60 v=0
39960 On ch=5 n=64 v=54
39960 On ch=5 n=59 v=61
39960 On ch=5 n=55 v=57
39960 On ch=5 n=60 v=64
39990 On ch=5 n=60 v=0
39990 On ch=5 n=64 v=0
39990 On ch=5 n=59 v=0
39990 On ch=5 n=55 v=0
40020 On ch=5 n=64 v=68
40020 On ch=5 n=55 v=70
40020 On ch=5 n=59 v=68
40020 On ch=5 n=60 v=71
40230 On ch=5 n=60 v=0
40230 On ch=5 n=64 v=0
40230 On ch=5 n=55 v=0
40230 On ch=5 n=59 v=0
40320 On ch=5 n=59 v=60
40320 On ch=5 n=55 v=58
40320 On ch=5 n=62 v=62
40380 On ch=5 n=62 v=0
40380 On ch=5 n=55 v=0
40380 On ch=5 n=59 v=0
40410 On ch=5 n=59 v=56
40410 On ch=5 n=55 v=53
40410 On ch=5 n=62 v=56
40440 On ch=5 n=62 v=0
40440 On ch=5 n=55 v=0
40440 On ch=5 n=59 v=0
40440 On ch=5 n=59 v=46
40440 On ch=5 n=55 v=48
40440 On ch=5 n=62 v=52
40470 On ch=5 n=62 v=0
40470 On ch=5 n=55 v=0
40470 On ch=5 n=59 v=0
40500 On ch=5 n=59 v=55
40500 On ch=5 n=62 v=55
40500 On ch=5 n=55 v=54
40710 On ch=5 n=55 v=0
40710 On ch=5 n=62 v=0
40710 On ch=5 n=59 v=0
40800 On ch=5 n=64 v=43
40800 On ch=5 n=59 v=43
40800 On ch=5 n=60 v=43
40800 On ch=5 n=55 v=43
40860 On ch=5 n=55 v=0
40860 On ch=5 n=64 v=0
40860 On ch=5 n=59 v=0
40860 On ch=5 n=60 v=0
40890 On ch=5 n=64 v=40
40890 On ch=5 n=59 v=41
40890 On ch=5 n=60 v=41
40890 On ch=5 n=55 v=41
40920 On ch=5 n=55 v=0
40920 On ch=5 n=64 v=0
40920 On ch=5 n=59 v=0
40920 On ch=5 n=60 v=0
40920 On ch=5 n=64 v=35
40920 On ch=5 n=55 v=38
40920 On ch=5 n=59 v=34
40920 On ch=5 n=60 v=34
40950 On ch=5 n=60 v=0
40950 On ch=5 n=64 v=0
40950 On ch=5 n=55 v=0
40950 On ch=5 n=59 v=0
40980 On ch=5 n=64 v=38
40980 On ch=5 n=55 v=40
40980 On ch=5 n=60 v=41
40980 On ch=5 n=59 v=38
41220 On ch=5 n=59 v=0
41220 On ch=5 n=64 v=0
41220 On ch=5 n=55 v=0
41220 On ch=5 n=60 v=0
41280 On ch=5 n=59 v=29
41280 On ch=5 n=62 v=30
41280 On ch=5 n=55 v=29
41340 On ch=5 n=55 v=0
41340 On ch=5 n=62 v=0
41340 On ch=5 n=59 v=0
41370 On ch=5 n=59 v=26
41370 On ch=5 n=55 v=25
41370 On ch=5 n=62 v=26
41400 On ch=5 n=62 v=0
41400 On ch=5 n=55 v=0
41400 On ch=5 n=59 v=0
41400 On ch=5 n=59 v=23
41400 On ch=5 n=62 v=25
41400 On ch=5 n=55 v=20
41430 On ch=5 n=55 v=0
41430 On ch=5 n=62 v=0
41430 On ch=5 n=59 v=0
41460 On ch=5 n=59 v=25
41460 On ch=5 n=55 v=26
41460 On ch=5 n=62 v=25
41700 On ch=5 n=62 v=0
41700 On ch=5 n=55 v=0
41700 On ch=5 n=59 v=0
41760 On ch=5 n=55 v=15
41760 On ch=5 n=59 v=16
41760 On ch=5 n=60 v=16
41760 On ch=5 n=64 v=15
41820 On ch=5 n=64 v=0
41820 On ch=5 n=55 v=0
41820 On ch=5 n=59 v=0
41820 On ch=5 n=60 v=0
41850 On ch=5 n=59 v=12
41850 On ch=5 n=64 v=12
41850 On ch=5 n=55 v=12
41850 On ch=5 n=60 v=12
41880 On ch=5 n=60 v=0
41880 On ch=5 n=59 v=0
41880 On ch=5 n=64 v=0
41880 On ch=5 n=55 v=0
41880 On ch=5 n=64 v=7
41880 On ch=5 n=59 v=10
41880 On ch=5 n=55 v=9
41880 On ch=5 n=60 v=8
41910 On ch=5 n=60 v=0
41910 On ch=5 n=64 v=0
41910 On ch=5 n=59 v=0
41910 On ch=5 n=55 v=0
41940 On ch=5 n=64 v=9
41940 On ch=5 n=55 v=10
41940 On ch=5 n=59 v=9
41940 On ch=5 n=60 v=9
42180 On ch=5 n=60 v=0
42180 On ch=5 n=64 v=0
42180 On ch=5 n=55 v=0
42180 On ch=5 n=59 v=0
42300 On ch=5 n=55 v=0
42300 On ch=5 n=59 v=0
42300 On ch=5 n=62 v=0
42330 On ch=5 n=62 v=0
42330 On ch=5 n=59 v=0
42330 On ch=5 n=55 v=0
42420 On ch=5 n=59 v=0
42420 On ch=5 n=55 v=0
42420 On ch=5 n=62 v=0
42690 On ch=5 n=62 v=0
42690 On ch=5 n=55 v=0
42690 On ch=5 n=59 v=0
42690 Meta TrkEnd
TrkEnd
MTrk
0 Meta 0x21 00
0 Meta TrkName "voice"
0 Par ch=6 c=0 v=0
0 Par ch=6 c=32 v=0
0 PrCh ch=6 p=53
0 Par ch=6 c=7 v=127
0 Par ch=6 c=10 v=44
1440 On ch=6 n=67 v=116
1440 On ch=6 n=62 v=127
1470 On ch=6 n=62 v=0
1470 On ch=6 n=67 v=0
1470 On ch=6 n=67 v=102
1470 On ch=6 n=62 v=85
1500 On ch=6 n=62 v=0
1500 On ch=6 n=67 v=0
1500 On ch=6 n=67 v=107
1500 On ch=6 n=62 v=116
1530 On ch=6 n=62 v=0
1530 On ch=6 n=67 v=0
1530 On ch=6 n=67 v=105
1530 On ch=6 n=62 v=100
1560 On ch=6 n=62 v=0
1560 On ch=6 n=67 v=0
1620 On ch=6 n=67 v=107
1620 On ch=6 n=62 v=113
1650 On ch=6 n=62 v=0
1650 On ch=6 n=67 v=0
1650 On ch=6 n=67 v=105
1650 On ch=6 n=62 v=87
1680 On ch=6 n=62 v=0
1680 On ch=6 n=67 v=0
1680 On ch=6 n=62 v=127
1680 On ch=6 n=67 v=107
1710 On ch=6 n=67 v=0
1710 On ch=6 n=62 v=0
1710 On ch=6 n=67 v=105
1710 On ch=6 n=62 v=100
1740 On ch=6 n=62 v=0
1740 On ch=6 n=67 v=0
1920 On ch=6 n=67 v=105
1920 On ch=6 n=62 v=119
1950 On ch=6 n=62 v=0
1950 On ch=6 n=67 v=0
1950 On ch=6 n=67 v=93
1950 On ch=6 n=62 v=66
1980 On ch=6 n=62 v=0
1980 On ch=6 n=67 v=0
1980 On ch=6 n=67 v=102
1980 On ch=6 n=62 v=110
2010 On ch=6 n=62 v=0
2010 On ch=6 n=67 v=0
2010 On ch=6 n=67 v=102
2010 On ch=6 n=62 v=85
2040 On ch=6 n=62 v=0
2040 On ch=6 n=67 v=0
2100 On ch=6 n=62 v=116
2100 On ch=6 n=67 v=105
2130 On ch=6 n=67 v=0
2130 On ch=6 n=62 v=0
2130 On ch=6 n=67 v=102
2130 On ch=6 n=62 v=80
2160 On ch=6 n=62 v=0
2160 On ch=6 n=67 v=0
2160 On ch=6 n=67 v=110
2160 On ch=6 n=62 v=122
2190 On ch=6 n=62 v=0
2190 On ch=6 n=67 v=0
2190 On ch=6 n=67 v=89
2190 On ch=6 n=62 v=89
2220 On ch=6 n=62 v=0
2220 On ch=6 n=67 v=0
2280 On ch=6 n=64 v=127
2310 On ch=6 n=64 v=0
2340 On ch=6 n=65 v=127
2370 On ch=6 n=65 v=0
2400 On ch=6 n=67 v=119
2430 On ch=6 n=67 v=0
2430 On ch=6 n=67 v=102
2460 On ch=6 n=67 v=0
2490 On ch=6 n=67 v=116
2520 On ch=6 n=67 v=0
2520 On ch=6 n=67 v=95
2550 On ch=6 n=67 v=0
2580 On ch=6 n=69 v=102
2610 On ch=6 n=69 v=0
2610 On ch=6 n=67 v=107
2640 On ch=6 n=67 v=0
2670 On ch=6 n=64 v=113
2700 On ch=6 n=64 v=0
2700 On ch=6 n=60 v=127
2730 On ch=6 n=60 v=0
2760 On ch=6 n=59 v=119
2790 On ch=6 n=59 v=0
2820 On ch=6 n=60 v=127
2850 On ch=6 n=60 v=0
2880 On ch=6 n=62 v=122
2910 On ch=6 n=62 v=0
2910 On ch=6 n=62 v=105
2940 On ch=6 n=62 v=0
2970 On ch=6 n=62 v=116
3000 On ch=6 n=62 v=0
3000 On ch=6 n=62 v=105
3030 On ch=6 n=62 v=0
3060 On ch=6 n=64 v=102
3090 On ch=6 n=64 v=0
3090 On ch=6 n=62 v=105
3120 On ch=6 n=62 v=0
3150 On ch=6 n=59 v=127
3180 On ch=6 n=59 v=0
3180 On ch=6 n=55 v=122
3210 On ch=6 n=55 v=0
3240 On ch=6 n=55 v=122
3270 On ch=6 n=55 v=0
3300 On ch=6 n=55 v=119
3330 On ch=6 n=55 v=0
3360 On ch=6 n=57 v=122
3480 On ch=6 n=57 v=0
3480 On ch=6 n=60 v=127
3600 On ch=6 n=60 v=0
3600 On ch=6 n=65 v=122
3720 On ch=6 n=65 v=0
3720 On ch=6 n=64 v=119
3840 On ch=6 n=64 v=0
3840 On ch=6 n=62 v=127
4140 On ch=6 n=62 v=0
4200 On ch=6 n=64 v=122
4230 On ch=6 n=64 v=0
4260 On ch=6 n=65 v=127
4290 On ch=6 n=65 v=0
4320 On ch=6 n=67 v=110
4350 On ch=6 n=67 v=0
4350 On ch=6 n=67 v=98
4380 On ch=6 n=67 v=0
4410 On ch=6 n=67 v=105
4440 On ch=6 n=67 v=0
4440 On ch=6 n=67 v=105
4470 On ch=6 n=67 v=0
4500 On ch=6 n=69 v=93
4530 On ch=6 n=69 v=0
4530 On ch=6 n=67 v=105
4560 On ch=6 n=67 v=0
4590 On ch=6 n=64 v=113
4620 On ch=6 n=64 v=0
4620 On ch=6 n=60 v=110
4650 On ch=6 n=60 v=0
4680 On ch=6 n=59 v=119
4710 On ch=6 n=59 v=0
4740 On ch=6 n=60 v=113
4770 On ch=6 n=60 v=0
4800 On ch=6 n=62 v=113
4830 On ch=6 n=62 v=0
4830 On ch=6 n=62 v=107
4860 On ch=6 n=62 v=0
4890 On ch=6 n=62 v=105
4920 On ch=6 n=62 v=0
4920 On ch=6 n=62 v=100
4950 On ch=6 n=62 v=0
4980 On ch=6 n=64 v=102
5010 On ch=6 n=64 v=0
5010 On ch=6 n=62 v=98
5040 On ch=6 n=62 v=0
5070 On ch=6 n=59 v=127
5100 On ch=6 n=59 v=0
5100 On ch=6 n=55 v=122
5130 On ch=6 n=55 v=0
5160 On ch=6 n=55 v=122
5190 On ch=6 n=55 v=0
5220 On ch=6 n=55 v=122
5250 On ch=6 n=55 v=0
5280 On ch=6 n=57 v=122
5400 On ch=6 n=57 v=0
5400 On ch=6 n=60 v=127
5520 On ch=6 n=60 v=0
5520 On ch=6 n=65 v=122
5640 On ch=6 n=65 v=0
5640 On ch=6 n=64 v=127
5760 On ch=6 n=64 v=0
5760 On ch=6 n=62 v=127
6120 On ch=6 n=62 v=0
8040 On ch=6 n=64 v=116
8070 On ch=6 n=64 v=0
8100 On ch=6 n=65 v=122
8130 On ch=6 n=65 v=0
8160 On ch=6 n=67 v=113
8190 On ch=6 n=67 v=0
8190 On ch=6 n=67 v=107
8220 On ch=6 n=67 v=0
8250 On ch=6 n=67 v=116
8280 On ch=6 n=67 v=0
8280 On ch=6 n=67 v=107
8310 On ch=6 n=67 v=0
8340 On ch=6 n=69 v=93
8370 On ch=6 n=69 v=0
8370 On ch=6 n=67 v=107
8400 On ch=6 n=67 v=0
8430 On ch=6 n=64 v=122
8460 On ch=6 n=64 v=0
8460 On ch=6 n=60 v=122
8490 On ch=6 n=60 v=0
8520 On ch=6 n=59 v=127
8550 On ch=6 n=59 v=0
8580 On ch=6 n=60 v=122
8610 On ch=6 n=60 v=0
8640 On ch=6 n=62 v=119
8670 On ch=6 n=62 v=0
8670 On ch=6 n=62 v=98
8700 On ch=6 n=62 v=0
8730 On ch=6 n=62 v=116
8760 On ch=6 n=62 v=0
8760 On ch=6 n=62 v=102
8790 On ch=6 n=62 v=0
8820 On ch=6 n=64 v=102
8850 On ch=6 n=64 v=0
8850 On ch=6 n=62 v=105
8880 On ch=6 n=62 v=0
8910 On ch=6 n=59 v=127
8940 On ch=6 n=59 v=0
8940 On ch=6 n=55 v=122
8970 On ch=6 n=55 v=0
9000 On ch=6 n=55 v=122
9030 On ch=6 n=55 v=0
9060 On ch=6 n=55 v=113
9090 On ch=6 n=55 v=0
9120 On ch=6 n=57 v=127
9240 On ch=6 n=57 v=0
9240 On ch=6 n=60 v=122
9360 On ch=6 n=60 v=0
9360 On ch=6 n=65 v=119
9480 On ch=6 n=65 v=0
9480 On ch=6 n=64 v=127
9600 On ch=6 n=64 v=0
9600 On ch=6 n=62 v=127
10020 On ch=6 n=62 v=0
10080 On ch=6 n=62 v=127
10440 On ch=6 n=62 v=0
10440 On ch=6 n=64 v=113
10560 On ch=6 n=64 v=0
10560 On ch=6 n=55 v=127
11010 On ch=6 n=55 v=0
11040 On ch=6 n=62 v=127
11400 On ch=6 n=62 v=0
11400 On ch=6 n=64 v=127
11520 On ch=6 n=64 v=0
11520 On ch=6 n=67 v=122
11970 On ch=6 n=67 v=0
12480 On ch=6 n=62 v=119
12480 On ch=6 n=67 v=113
12510 On ch=6 n=67 v=0
12510 On ch=6 n=62 v=0
12510 On ch=6 n=67 v=102
12510 On ch=6 n=62 v=91
12540 On ch=6 n=62 v=0
12540 On ch=6 n=67 v=0
12540 On ch=6 n=67 v=110
12540 On ch=6 n=62 v=119
12570 On ch=6 n=62 v=0
12570 On ch=6 n=67 v=0
12570 On ch=6 n=62 v=105
12570 On ch=6 n=67 v=110
12600 On ch=6 n=67 v=0
12600 On ch=6 n=62 v=0
12660 On ch=6 n=62 v=119
12660 On ch=6 n=67 v=107
12690 On ch=6 n=67 v=0
12690 On ch=6 n=62 v=0
12690 On ch=6 n=67 v=102
12690 On ch=6 n=62 v=100
12720 On ch=6 n=62 v=0
12720 On ch=6 n=67 v=0
12720 On ch=6 n=67 v=116
12720 On ch=6 n=62 v=127
12750 On ch=6 n=62 v=0
12750 On ch=6 n=67 v=0
12750 On ch=6 n=67 v=107
12750 On ch=6 n=62 v=107
12780 On ch=6 n=62 v=0
12780 On ch=6 n=67 v=0
12840 On ch=6 n=64 v=127
12870 On ch=6 n=64 v=0
12900 On ch=6 n=65 v=127
12930 On ch=6 n=65 v=0
12960 On ch=6 n=67 v=122
12990 On ch=6 n=67 v=0
12990 On ch=6 n=67 v=105
13020 On ch=6 n=67 v=0
13050 On ch=6 n=67 v=110
13080 On ch=6 n=67 v=0
13080 On ch=6 n=67 v=95
13110 On ch=6 n=67 v=0
13140 On ch=6 n=69 v=98
13170 On ch=6 n=69 v=0
13170 On ch=6 n=67 v=105
13200 On ch=6 n=67 v=0
13230 On ch=6 n=64 v=119
13260 On ch=6 n=64 v=0
13260 On ch=6 n=60 v=113
13290 On ch=6 n=60 v=0
13320 On ch=6 n=59 v=122
13350 On ch=6 n=59 v=0
13380 On ch=6 n=60 v=119
13410 On ch=6 n=60 v=0
13440 On ch=6 n=62 v=113
13470 On ch=6 n=62 v=0
13470 On ch=6 n=62 v=100
13500 On ch=6 n=62 v=0
13530 On ch=6 n=62 v=113
13560 On ch=6 n=62 v=0
13560 On ch=6 n=62 v=102
13590 On ch=6 n=62 v=0
13620 On ch=6 n=64 v=102
13650 On ch=6 n=64 v=0
13650 On ch=6 n=62 v=107
13680 On ch=6 n=62 v=0
13710 On ch=6 n=59 v=122
13740 On ch=6 n=59 v=0
13740 On ch=6 n=55 v=113
13770 On ch=6 n=55 v=0
13800 On ch=6 n=55 v=122
13830 On ch=6 n=55 v=0
13860 On ch=6 n=55 v=119
13890 On ch=6 n=55 v=0
13920 On ch=6 n=57 v=122
14040 On ch=6 n=57 v=0
14040 On ch=6 n=60 v=127
14160 On ch=6 n=60 v=0
14160 On ch=6 n=65 v=122
14280 On ch=6 n=65 v=0
14280 On ch=6 n=64 v=122
14400 On ch=6 n=64 v=0
14400 On ch=6 n=62 v=122
14730 On ch=6 n=62 v=0
14760 On ch=6 n=64 v=127
14790 On ch=6 n=64 v=0
14820 On ch=6 n=65 v=127
14850 On ch=6 n=65 v=0
14880 On ch=6 n=67 v=119
14910 On ch=6 n=67 v=0
14910 On ch=6 n=67 v=100
14940 On ch=6 n=67 v=0
14970 On ch=6 n=67 v=107
15000 On ch=6 n=67 v=0
15000 On ch=6 n=67 v=102
15030 On ch=6 n=67 v=0
15060 On ch=6 n=69 v=91
15090 On ch=6 n=69 v=0
15090 On ch=6 n=67 v=95
15120 On ch=6 n=67 v=0
15150 On ch=6 n=64 v=107
15180 On ch=6 n=64 v=0
15180 On ch=6 n=60 v=119
15210 On ch=6 n=60 v=0
15240 On ch=6 n=59 v=122
15270 On ch=6 n=59 v=0
15300 On ch=6 n=60 v=127
15330 On ch=6 n=60 v=0
15360 On ch=6 n=62 v=113
15390 On ch=6 n=62 v=0
15390 On ch=6 n=62 v=95
15420 On ch=6 n=62 v=0
15450 On ch=6 n=62 v=110
15480 On ch=6 n=62 v=0
15480 On ch=6 n=62 v=93
15510 On ch=6 n=62 v=0
15540 On ch=6 n=64 v=95
15570 On ch=6 n=64 v=0
15570 On ch=6 n=62 v=107
15600 On ch=6 n=62 v=0
15630 On ch=6 n=59 v=116
15660 On ch=6 n=59 v=0
15660 On ch=6 n=55 v=122
15690 On ch=6 n=55 v=0
15720 On ch=6 n=55 v=107
15750 On ch=6 n=55 v=0
15780 On ch=6 n=55 v=122
15810 On ch=6 n=55 v=0
15840 On ch=6 n=57 v=127
15960 On ch=6 n=57 v=0
15960 On ch=6 n=60 v=127
16080 On ch=6 n=60 v=0
16080 On ch=6 n=65 v=122
16200 On ch=6 n=65 v=0
16200 On ch=6 n=64 v=127
16320 On ch=6 n=64 v=0
16320 On ch=6 n=62 v=127
16770 On ch=6 n=62 v=0
18720 On ch=6 n=67 v=110
18720 On ch=6 n=62 v=105
18750 On ch=6 n=62 v=0
18750 On ch=6 n=67 v=0
18750 On ch=6 n=67 v=102
18750 On ch=6 n=62 v=93
18780 On ch=6 n=62 v=0
18780 On ch=6 n=67 v=0
18780 On ch=6 n=62 v=107
18780 On ch=6 n=67 v=113
18810 On ch=6 n=67 v=0
18810 On ch=6 n=62 v=0
18810 On ch=6 n=67 v=107
18810 On ch=6 n=62 v=102
18840 On ch=6 n=62 v=0
18840 On ch=6 n=67 v=0
18900 On ch=6 n=67 v=110
18900 On ch=6 n=62 v=102
18930 On ch=6 n=62 v=0
18930 On ch=6 n=67 v=0
18930 On ch=6 n=67 v=102
18930 On ch=6 n=62 v=95
18960 On ch=6 n=62 v=0
18960 On ch=6 n=67 v=0
18960 On ch=6 n=62 v=107
18960 On ch=6 n=67 v=110
18990 On ch=6 n=67 v=0
18990 On ch=6 n=62 v=0
18990 On ch=6 n=67 v=107
18990 On ch=6 n=62 v=105
19020 On ch=6 n=62 v=0
19020 On ch=6 n=67 v=0
19200 On ch=6 n=62 v=113
19200 On ch=6 n=67 v=116
19230 On ch=6 n=67 v=0
19230 On ch=6 n=62 v=0
19230 On ch=6 n=67 v=102
19230 On ch=6 n=62 v=89
19260 On ch=6 n=62 v=0
19260 On ch=6 n=67 v=0
19260 On ch=6 n=62 v=107
19260 On ch=6 n=67 v=110
19290 On ch=6 n=67 v=0
19290 On ch=6 n=62 v=0
19290 On ch=6 n=67 v=107
19290 On ch=6 n=62 v=100
19320 On ch=6 n=62 v=0
19320 On ch=6 n=67 v=0
19380 On ch=6 n=67 v=113
19380 On ch=6 n=62 v=110
19410 On ch=6 n=62 v=0
19410 On ch=6 n=67 v=0
19410 On ch=6 n=67 v=102
19410 On ch=6 n=62 v=89
19440 On ch=6 n=62 v=0
19440 On ch=6 n=67 v=0
19440 On ch=6 n=62 v=110
19440 On ch=6 n=67 v=107
19470 On ch=6 n=67 v=0
19470 On ch=6 n=62 v=0
19470 On ch=6 n=67 v=105
19470 On ch=6 n=62 v=102
19500 On ch=6 n=62 v=0
19500 On ch=6 n=67 v=0
19560 On ch=6 n=64 v=127
19590 On ch=6 n=64 v=0
19620 On ch=6 n=65 v=127
19650 On ch=6 n=65 v=0
19680 On ch=6 n=67 v=127
19710 On ch=6 n=67 v=0
19710 On ch=6 n=67 v=105
19740 On ch=6 n=67 v=0
19770 On ch=6 n=67 v=116
19800 On ch=6 n=67 v=0
19800 On ch=6 n=67 v=110
19830 On ch=6 n=67 v=0
19860 On ch=6 n=69 v=107
19890 On ch=6 n=69 v=0
19890 On ch=6 n=67 v=107
19920 On ch=6 n=67 v=0
19950 On ch=6 n=64 v=113
19980 On ch=6 n=64 v=0
19980 On ch=6 n=60 v=122
20010 On ch=6 n=60 v=0
20040 On ch=6 n=59 v=107
20070 On ch=6 n=59 v=0
20100 On ch=6 n=60 v=127
20130 On ch=6 n=60 v=0
20160 On ch=6 n=62 v=122
20190 On ch=6 n=62 v=0
20190 On ch=6 n=62 v=105
20220 On ch=6 n=62 v=0
20250 On ch=6 n=62 v=113
20280 On ch=6 n=62 v=0
20280 On ch=6 n=62 v=105
20310 On ch=6 n=62 v=0
20340 On ch=6 n=64 v=105
20370 On ch=6 n=64 v=0
20370 On ch=6 n=62 v=105
20400 On ch=6 n=62 v=0
20430 On ch=6 n=59 v=127
20460 On ch=6 n=59 v=0
20460 On ch=6 n=55 v=127
20490 On ch=6 n=55 v=0
20520 On ch=6 n=55 v=119
20550 On ch=6 n=55 v=0
20580 On ch=6 n=55 v=119
20610 On ch=6 n=55 v=0
20640 On ch=6 n=57 v=127
20760 On ch=6 n=57 v=0
20760 On ch=6 n=60 v=127
20880 On ch=6 n=60 v=0
20880 On ch=6 n=65 v=127
21000 On ch=6 n=65 v=0
21000 On ch=6 n=64 v=127
21120 On ch=6 n=64 v=0
21120 On ch=6 n=62 v=127
21450 On ch=6 n=62 v=0
21480 On ch=6 n=64 v=119
21510 On ch=6 n=64 v=0
21540 On ch=6 n=64 v=116
21570 On ch=6 n=64 v=0
21600 On ch=6 n=67 v=127
21630 On ch=6 n=67 v=0
21630 On ch=6 n=67 v=98
21660 On ch=6 n=67 v=0
21690 On ch=6 n=67 v=116
21720 On ch=6 n=67 v=0
21720 On ch=6 n=67 v=98
21750 On ch=6 n=67 v=0
21780 On ch=6 n=69 v=98
21810 On ch=6 n=69 v=0
21810 On ch=6 n=67 v=105
21840 On ch=6 n=67 v=0
21870 On ch=6 n=64 v=93
21900 On ch=6 n=64 v=0
21900 On ch=6 n=60 v=107
21930 On ch=6 n=60 v=0
21960 On ch=6 n=59 v=122
21990 On ch=6 n=59 v=0
22020 On ch=6 n=60 v=127
22050 On ch=6 n=60 v=0
22080 On ch=6 n=62 v=122
22110 On ch=6 n=62 v=0
22110 On ch=6 n=62 v=100
22140 On ch=6 n=62 v=0
22170 On ch=6 n=62 v=113
22200 On ch=6 n=62 v=0
22200 On ch=6 n=62 v=105
22230 On ch=6 n=62 v=0
22260 On ch=6 n=64 v=113
22290 On ch=6 n=64 v=0
22290 On ch=6 n=62 v=105
22320 On ch=6 n=62 v=0
22350 On ch=6 n=59 v=127
22380 On ch=6 n=59 v=0
22380 On ch=6 n=55 v=127
22410 On ch=6 n=55 v=0
22440 On ch=6 n=55 v=119
22470 On ch=6 n=55 v=0
22500 On ch=6 n=55 v=127
22530 On ch=6 n=55 v=0
22560 On ch=6 n=57 v=127
22680 On ch=6 n=57 v=0
22680 On ch=6 n=60 v=122
22800 On ch=6 n=60 v=0
22800 On ch=6 n=65 v=119
22920 On ch=6 n=65 v=0
22920 On ch=6 n=64 v=119
23040 On ch=6 n=64 v=0
23040 On ch=6 n=62 v=127
23430 On ch=6 n=62 v=0
23520 On ch=6 n=62 v=127
23880 On ch=6 n=62 v=0
23880 On ch=6 n=64 v=122
24000 On ch=6 n=64 v=0
24000 On ch=6 n=55 v=122
24450 On ch=6 n=55 v=0
24480 On ch=6 n=62 v=127
24840 On ch=6 n=62 v=0
24840 On ch=6 n=64 v=127
24960 On ch=6 n=64 v=0
24960 On ch=6 n=67 v=122
25410 On ch=6 n=67 v=0
25920 On ch=6 n=62 v=127
25920 On ch=6 n=67 v=105
25950 On ch=6 n=67 v=0
25950 On ch=6 n=62 v=0
25950 On ch=6 n=67 v=100
25950 On ch=6 n=62 v=85
25980 On ch=6 n=62 v=0
25980 On ch=6 n=67 v=0
25980 On ch=6 n=62 v=113
25980 On ch=6 n=67 v=105
26010 On ch=6 n=67 v=0
26010 On ch=6 n=62 v=0
26010 On ch=6 n=62 v=89
26010 On ch=6 n=67 v=89
26040 On ch=6 n=67 v=0
26040 On ch=6 n=62 v=0
26100 On ch=6 n=62 v=116
26100 On ch=6 n=67 v=105
26130 On ch=6 n=67 v=0
26130 On ch=6 n=62 v=0
26130 On ch=6 n=67 v=102
26130 On ch=6 n=62 v=91
26160 On ch=6 n=62 v=0
26160 On ch=6 n=67 v=0
26160 On ch=6 n=62 v=119
26160 On ch=6 n=67 v=107
26160 On ch=6 n=64 v=98
26190 On ch=6 n=64 v=0
26190 On ch=6 n=67 v=0
26190 On ch=6 n=62 v=0
26190 On ch=6 n=67 v=113
26190 On ch=6 n=62 v=105
26220 On ch=6 n=62 v=0
26220 On ch=6 n=67 v=0
26280 On ch=6 n=64 v=127
26310 On ch=6 n=64 v=0
26340 On ch=6 n=65 v=127
26370 On ch=6 n=65 v=0
26400 On ch=6 n=67 v=127
26430 On ch=6 n=67 v=0
26430 On ch=6 n=67 v=102
26460 On ch=6 n=67 v=0
26490 On ch=6 n=67 v=116
26520 On ch=6 n=67 v=0
26520 On ch=6 n=67 v=98
26550 On ch=6 n=67 v=0
26580 On ch=6 n=69 v=102
26610 On ch=6 n=69 v=0
26610 On ch=6 n=67 v=105
26640 On ch=6 n=67 v=0
26670 On ch=6 n=64 v=113
26700 On ch=6 n=64 v=0
26700 On ch=6 n=60 v=127
26730 On ch=6 n=60 v=0
26760 On ch=6 n=59 v=127
26790 On ch=6 n=59 v=0
26820 On ch=6 n=60 v=127
26850 On ch=6 n=60 v=0
26880 On ch=6 n=62 v=119
26910 On ch=6 n=62 v=0
26910 On ch=6 n=62 v=102
26940 On ch=6 n=62 v=0
26970 On ch=6 n=62 v=113
27000 On ch=6 n=62 v=0
27000 On ch=6 n=62 v=100
27030 On ch=6 n=62 v=0
27060 On ch=6 n=64 v=100
27090 On ch=6 n=64 v=0
27090 On ch=6 n=62 v=105
27120 On ch=6 n=62 v=0
27150 On ch=6 n=59 v=122
27180 On ch=6 n=59 v=0
27180 On ch=6 n=55 v=119
27210 On ch=6 n=55 v=0
27240 On ch=6 n=55 v=122
27270 On ch=6 n=55 v=0
27300 On ch=6 n=55 v=119
27330 On ch=6 n=55 v=0
27360 On ch=6 n=57 v=122
27480 On ch=6 n=57 v=0
27480 On ch=6 n=60 v=122
27600 On ch=6 n=60 v=0
27600 On ch=6 n=65 v=119
27720 On ch=6 n=65 v=0
27720 On ch=6 n=64 v=127
27840 On ch=6 n=64 v=0
27840 On ch=6 n=62 v=122
28170 On ch=6 n=62 v=0
28200 On ch=6 n=64 v=127
28230 On ch=6 n=64 v=0
28260 On ch=6 n=65 v=127
28290 On ch=6 n=65 v=0
28320 On ch=6 n=67 v=113
28350 On ch=6 n=67 v=0
28350 On ch=6 n=67 v=95
28380 On ch=6 n=67 v=0
28410 On ch=6 n=67 v=113
28440 On ch=6 n=67 v=0
28440 On ch=6 n=67 v=98
28470 On ch=6 n=67 v=0
28500 On ch=6 n=69 v=98
28530 On ch=6 n=69 v=0
28530 On ch=6 n=67 v=105
28560 On ch=6 n=67 v=0
28590 On ch=6 n=64 v=113
28620 On ch=6 n=64 v=0
28620 On ch=6 n=60 v=116
28650 On ch=6 n=60 v=0
28680 On ch=6 n=59 v=122
28710 On ch=6 n=59 v=0
28740 On ch=6 n=60 v=127
28770 On ch=6 n=60 v=0
28800 On ch=6 n=62 v=116
28830 On ch=6 n=62 v=0
28830 On ch=6 n=62 v=89
28860 On ch=6 n=62 v=0
28890 On ch=6 n=62 v=113
28920 On ch=6 n=62 v=0
28920 On ch=6 n=62 v=91
28950 On ch=6 n=62 v=0
28980 On ch=6 n=64 v=102
29010 On ch=6 n=64 v=0
29010 On ch=6 n=62 v=100
29040 On ch=6 n=62 v=0
29070 On ch=6 n=59 v=119
29100 On ch=6 n=59 v=0
29100 On ch=6 n=55 v=122
29130 On ch=6 n=55 v=0
29160 On ch=6 n=55 v=127
29190 On ch=6 n=55 v=0
29220 On ch=6 n=55 v=122
29250 On ch=6 n=55 v=0
29280 On ch=6 n=57 v=127
29400 On ch=6 n=57 v=0
29400 On ch=6 n=60 v=127
29520 On ch=6 n=60 v=0
29520 On ch=6 n=65 v=122
29640 On ch=6 n=65 v=0
29640 On ch=6 n=64 v=122
29760 On ch=6 n=64 v=0
29760 On ch=6 n=62 v=127
30090 On ch=6 n=62 v=0
32040 On ch=6 n=64 v=127
32070 On ch=6 n=64 v=0
32100 On ch=6 n=65 v=127
32130 On ch=6 n=65 v=0
32160 On ch=6 n=67 v=113
32190 On ch=6 n=67 v=0
32190 On ch=6 n=67 v=110
32220 On ch=6 n=67 v=0
32250 On ch=6 n=67 v=119
32280 On ch=6 n=67 v=0
32280 On ch=6 n=67 v=102
32310 On ch=6 n=67 v=0
32340 On ch=6 n=69 v=105
32370 On ch=6 n=69 v=0
32370 On ch=6 n=67 v=107
32400 On ch=6 n=67 v=0
32430 On ch=6 n=64 v=116
32460 On ch=6 n=64 v=0
32460 On ch=6 n=60 v=122
32490 On ch=6 n=60 v=0
32520 On ch=6 n=59 v=122
32550 On ch=6 n=59 v=0
32580 On ch=6 n=60 v=127
32610 On ch=6 n=60 v=0
32640 On ch=6 n=62 v=119
32670 On ch=6 n=62 v=0
32670 On ch=6 n=62 v=107
32700 On ch=6 n=62 v=0
32730 On ch=6 n=62 v=102
32760 On ch=6 n=62 v=0
32760 On ch=6 n=62 v=95
32790 On ch=6 n=62 v=0
32820 On ch=6 n=64 v=105
32850 On ch=6 n=64 v=0
32850 On ch=6 n=62 v=98
32880 On ch=6 n=62 v=0
32910 On ch=6 n=59 v=119
32940 On ch=6 n=59 v=0
32940 On ch=6 n=55 v=119
32970 On ch=6 n=55 v=0
33000 On ch=6 n=55 v=122
33030 On ch=6 n=55 v=0
33060 On ch=6 n=55 v=107
33090 On ch=6 n=55 v=0
33120 On ch=6 n=57 v=127
33240 On ch=6 n=57 v=0
33240 On ch=6 n=60 v=122
33360 On ch=6 n=60 v=0
33360 On ch=6 n=65 v=127
33480 On ch=6 n=65 v=0
33480 On ch=6 n=64 v=127
33600 On ch=6 n=64 v=0
33600 On ch=6 n=62 v=122
34020 On ch=6 n=62 v=0
34080 On ch=6 n=62 v=122
34080 On ch=6 n=67 v=113
34110 On ch=6 n=67 v=0
34110 On ch=6 n=62 v=0
34110 On ch=6 n=67 v=102
34110 On ch=6 n=62 v=87
34140 On ch=6 n=62 v=0
34140 On ch=6 n=67 v=0
34140 On ch=6 n=67 v=110
34140 On ch=6 n=62 v=113
34170 On ch=6 n=62 v=0
34170 On ch=6 n=67 v=0
34170 On ch=6 n=67 v=100
34170 On ch=6 n=62 v=89
34200 On ch=6 n=62 v=0
34200 On ch=6 n=67 v=0
34260 On ch=6 n=62 v=122
34260 On ch=6 n=67 v=110
34290 On ch=6 n=67 v=0
34290 On ch=6 n=62 v=0
34290 On ch=6 n=67 v=105
34290 On ch=6 n=62 v=89
34320 On ch=6 n=62 v=0
34320 On ch=6 n=67 v=0
34320 On ch=6 n=67 v=107
34320 On ch=6 n=62 v=122
34350 On ch=6 n=62 v=0
34350 On ch=6 n=67 v=0
34350 On ch=6 n=67 v=105
34350 On ch=6 n=62 v=102
34380 On ch=6 n=62 v=0
34380 On ch=6 n=67 v=0
34560 On ch=6 n=62 v=122
34560 On ch=6 n=67 v=113
34590 On ch=6 n=67 v=0
34590 On ch=6 n=62 v=0
34590 On ch=6 n=67 v=102
34590 On ch=6 n=62 v=87
34620 On ch=6 n=62 v=0
34620 On ch=6 n=67 v=0
34620 On ch=6 n=67 v=110
34620 On ch=6 n=62 v=113
34650 On ch=6 n=62 v=0
34650 On ch=6 n=67 v=0
34650 On ch=6 n=67 v=100
34650 On ch=6 n=62 v=89
34680 On ch=6 n=62 v=0
34680 On ch=6 n=67 v=0
34740 On ch=6 n=62 v=122
34740 On ch=6 n=67 v=110
34770 On ch=6 n=67 v=0
34770 On ch=6 n=62 v=0
34770 On ch=6 n=67 v=105
34770 On ch=6 n=62 v=89
34800 On ch=6 n=62 v=0
34800 On ch=6 n=67 v=0
34800 On ch=6 n=67 v=107
34800 On ch=6 n=62 v=122
34830 On ch=6 n=62 v=0
34830 On ch=6 n=67 v=0
34830 On ch=6 n=67 v=105
34830 On ch=6 n=62 v=102
34860 On ch=6 n=62 v=0
34860 On ch=6 n=67 v=0
34860 Meta TrkEnd
TrkEnd
MTrk
0 Meta 0x21 00
0 Meta TrkName "rev cymbal"
0 Par ch=7 c=0 v=0
0 Par ch=7 c=32 v=0
0 PrCh ch=7 p=119
0 Par ch=7 c=7 v=127
0 Par ch=7 c=10 v=64
597 On ch=7 n=67 v=127
957 On ch=7 n=67 v=0
2041 On ch=7 n=67 v=127
2401 On ch=7 n=67 v=0
2401 Meta TrkEnd
TrkEnd
MTrk
0 Meta 0x21 00
0 Meta TrkName "brass 3"
0 Par ch=8 c=0 v=0
0 Par ch=8 c=32 v=0
0 PrCh ch=8 p=61
0 Par ch=8 c=7 v=127
0 Par ch=8 c=10 v=64
1440 On ch=8 n=67 v=127
1440 On ch=8 n=62 v=127
1470 On ch=8 n=62 v=0
1470 On ch=8 n=67 v=0
1470 On ch=8 n=67 v=127
1470 On ch=8 n=62 v=104
1500 On ch=8 n=62 v=0
1500 On ch=8 n=67 v=0
1500 On ch=8 n=67 v=127
1500 On ch=8 n=62 v=127
1530 On ch=8 n=62 v=0
1530 On ch=8 n=67 v=0
1530 On ch=8 n=67 v=127
1530 On ch=8 n=62 v=127
1560 On ch=8 n=62 v=0
1560 On ch=8 n=67 v=0
1620 On ch=8 n=62 v=127
1620 On ch=8 n=67 v=127
1650 On ch=8 n=67 v=0
1650 On ch=8 n=62 v=0
1650 On ch=8 n=67 v=127
1650 On ch=8 n=62 v=120
1680 On ch=8 n=62 v=0
1680 On ch=8 n=67 v=0
1680 On ch=8 n=62 v=127
1680 On ch=8 n=67 v=127
1710 On ch=8 n=67 v=0
1710 On ch=8 n=62 v=0
1710 On ch=8 n=67 v=127
1710 On ch=8 n=62 v=127
1740 On ch=8 n=62 v=0
1740 On ch=8 n=67 v=0
1920 On ch=8 n=67 v=127
1920 On ch=8 n=62 v=127
1950 On ch=8 n=62 v=0
1950 On ch=8 n=67 v=0
1950 On ch=8 n=67 v=127
1950 On ch=8 n=62 v=104
1980 On ch=8 n=62 v=0
1980 On ch=8 n=67 v=0
1980 On ch=8 n=67 v=127
1980 On ch=8 n=62 v=127
2010 On ch=8 n=62 v=0
2010 On ch=8 n=67 v=0
2010 On ch=8 n=67 v=127
2010 On ch=8 n=62 v=127
2040 On ch=8 n=62 v=0
2040 On ch=8 n=67 v=0
2100 On ch=8 n=62 v=127
2100 On ch=8 n=67 v=127
2130 On ch=8 n=67 v=0
2130 On ch=8 n=62 v=0
2130 On ch=8 n=67 v=127
2130 On ch=8 n=62 v=120
2160 On ch=8 n=62 v=0
2160 On ch=8 n=67 v=0
2160 On ch=8 n=62 v=127
2160 On ch=8 n=67 v=127
2190 On ch=8 n=67 v=0
2190 On ch=8 n=62 v=0
2190 On ch=8 n=67 v=127
2190 On ch=8 n=62 v=127
2220 On ch=8 n=62 v=0
2220 On ch=8 n=67 v=0
2280 On ch=8 n=64 v=102
2310 On ch=8 n=64 v=0
2340 On ch=8 n=65 v=107
2370 On ch=8 n=65 v=0
2400 On ch=8 n=67 v=105
2430 On ch=8 n=67 v=0
2430 On ch=8 n=67 v=95
2460 On ch=8 n=67 v=0
2490 On ch=8 n=67 v=102
2520 On ch=8 n=67 v=0
2520 On ch=8 n=67 v=85
2550 On ch=8 n=67 v=0
2580 On ch=8 n=69 v=74
2610 On ch=8 n=69 v=0
2610 On ch=8 n=67 v=100
2640 On ch=8 n=67 v=0
2670 On ch=8 n=64 v=100
2700 On ch=8 n=64 v=0
2700 On ch=8 n=60 v=93
2730 On ch=8 n=60 v=0
2760 On ch=8 n=59 v=85
2790 On ch=8 n=59 v=0
2820 On ch=8 n=60 v=95
2850 On ch=8 n=60 v=0
2880 On ch=8 n=62 v=102
2910 On ch=8 n=62 v=0
2910 On ch=8 n=62 v=82
2940 On ch=8 n=62 v=0
2970 On ch=8 n=62 v=100
3000 On ch=8 n=62 v=0
3000 On ch=8 n=62 v=82
3030 On ch=8 n=62 v=0
3060 On ch=8 n=64 v=87
3090 On ch=8 n=64 v=0
3090 On ch=8 n=62 v=100
3120 On ch=8 n=62 v=0
3150 On ch=8 n=59 v=100
3180 On ch=8 n=59 v=0
3180 On ch=8 n=55 v=105
3210 On ch=8 n=55 v=0
3240 On ch=8 n=55 v=100
3270 On ch=8 n=55 v=0
3300 On ch=8 n=55 v=89
3330 On ch=8 n=55 v=0
3360 On ch=8 n=57 v=102
3480 On ch=8 n=57 v=0
3480 On ch=8 n=60 v=91
3600 On ch=8 n=60 v=0
3600 On ch=8 n=65 v=95
3720 On ch=8 n=65 v=0
3720 On ch=8 n=64 v=89
3840 On ch=8 n=64 v=0
3840 On ch=8 n=62 v=89
4170 On ch=8 n=62 v=0
4200 On ch=8 n=64 v=100
4230 On ch=8 n=64 v=0
4260 On ch=8 n=65 v=85
4290 On ch=8 n=65 v=0
4320 On ch=8 n=67 v=98
4350 On ch=8 n=67 v=0
4350 On ch=8 n=67 v=80
4380 On ch=8 n=67 v=0
4410 On ch=8 n=67 v=91
4440 On ch=8 n=67 v=0
4440 On ch=8 n=67 v=72
4470 On ch=8 n=67 v=0
4500 On ch=8 n=69 v=82
4530 On ch=8 n=69 v=0
4530 On ch=8 n=67 v=91
4560 On ch=8 n=67 v=0
4590 On ch=8 n=64 v=91
4620 On ch=8 n=64 v=0
4620 On ch=8 n=60 v=95
4650 On ch=8 n=60 v=0
4680 On ch=8 n=59 v=100
4710 On ch=8 n=59 v=0
4740 On ch=8 n=60 v=85
4770 On ch=8 n=60 v=0
4800 On ch=8 n=62 v=102
4830 On ch=8 n=62 v=0
4830 On ch=8 n=62 v=87
4860 On ch=8 n=62 v=0
4890 On ch=8 n=62 v=98
4920 On ch=8 n=62 v=0
4920 On ch=8 n=62 v=82
4950 On ch=8 n=62 v=0
4980 On ch=8 n=64 v=80
5010 On ch=8 n=64 v=0
5010 On ch=8 n=62 v=91
5040 On ch=8 n=62 v=0
5070 On ch=8 n=59 v=89
5100 On ch=8 n=59 v=0
5100 On ch=8 n=55 v=95
5130 On ch=8 n=55 v=0
5160 On ch=8 n=55 v=100
5190 On ch=8 n=55 v=0
5220 On ch=8 n=55 v=85
5250 On ch=8 n=55 v=0
5280 On ch=8 n=57 v=107
5400 On ch=8 n=57 v=0
5400 On ch=8 n=60 v=95
5520 On ch=8 n=60 v=0
5520 On ch=8 n=65 v=100
5640 On ch=8 n=65 v=0
5640 On ch=8 n=64 v=102
5760 On ch=8 n=64 v=0
5760 On ch=8 n=62 v=95
6120 On ch=8 n=62 v=0
6120 On ch=8 n=76 v=100
6120 On ch=8 n=64 v=100
6180 On ch=8 n=64 v=0
6180 On ch=8 n=76 v=0
6180 On ch=8 n=77 v=100
6180 On ch=8 n=65 v=100
6240 On ch=8 n=65 v=0
6240 On ch=8 n=77 v=0
6240 On ch=8 n=67 v=105
6240 On ch=8 n=79 v=105
6270 On ch=8 n=79 v=0
6270 On ch=8 n=67 v=0
6270 On ch=8 n=67 v=95
6270 On ch=8 n=79 v=95
6300 On ch=8 n=79 v=0
6300 On ch=8 n=67 v=0
6330 On ch=8 n=67 v=102
6330 On ch=8 n=79 v=102
6360 On ch=8 n=79 v=0
6360 On ch=8 n=67 v=0
6360 On ch=8 n=67 v=85
6360 On ch=8 n=79 v=85
6390 On ch=8 n=79 v=0
6390 On ch=8 n=67 v=0
6420 On ch=8 n=69 v=74
6420 On ch=8 n=81 v=74
6450 On ch=8 n=81 v=0
6450 On ch=8 n=69 v=0
6450 On ch=8 n=67 v=100
6450 On ch=8 n=79 v=100
6480 On ch=8 n=79 v=0
6480 On ch=8 n=67 v=0
6510 On ch=8 n=64 v=100
6510 On ch=8 n=76 v=100
6540 On ch=8 n=76 v=0
6540 On ch=8 n=64 v=0
6540 On ch=8 n=60 v=93
6540 On ch=8 n=72 v=93
6570 On ch=8 n=72 v=0
6570 On ch=8 n=60 v=0
6600 On ch=8 n=59 v=85
6600 On ch=8 n=71 v=85
6630 On ch=8 n=71 v=0
6630 On ch=8 n=59 v=0
6660 On ch=8 n=60 v=95
6660 On ch=8 n=72 v=95
6690 On ch=8 n=72 v=0
6690 On ch=8 n=60 v=0
6720 On ch=8 n=62 v=102
6720 On ch=8 n=74 v=102
6750 On ch=8 n=74 v=0
6750 On ch=8 n=62 v=0
6750 On ch=8 n=62 v=82
6750 On ch=8 n=74 v=82
6780 On ch=8 n=74 v=0
6780 On ch=8 n=62 v=0
6810 On ch=8 n=62 v=100
6810 On ch=8 n=74 v=100
6840 On ch=8 n=74 v=0
6840 On ch=8 n=62 v=0
6840 On ch=8 n=62 v=82
6840 On ch=8 n=74 v=82
6870 On ch=8 n=74 v=0
6870 On ch=8 n=62 v=0
6900 On ch=8 n=64 v=87
6900 On ch=8 n=76 v=87
6930 On ch=8 n=76 v=0
6930 On ch=8 n=64 v=0
6930 On ch=8 n=62 v=100
6930 On ch=8 n=74 v=100
6960 On ch=8 n=74 v=0
6960 On ch=8 n=62 v=0
6990 On ch=8 n=59 v=100
6990 On ch=8 n=71 v=100
7020 On ch=8 n=71 v=0
7020 On ch=8 n=59 v=0
7020 On ch=8 n=55 v=105
7020 On ch=8 n=67 v=105
7050 On ch=8 n=67 v=0
7050 On ch=8 n=55 v=0
7080 On ch=8 n=55 v=100
7080 On ch=8 n=67 v=100
7110 On ch=8 n=67 v=0
7110 On ch=8 n=55 v=0
7140 On ch=8 n=55 v=89
7140 On ch=8 n=67 v=89
7170 On ch=8 n=67 v=0
7170 On ch=8 n=55 v=0
7200 On ch=8 n=57 v=102
7200 On ch=8 n=69 v=102
7320 On ch=8 n=69 v=0
7320 On ch=8 n=57 v=0
7320 On ch=8 n=60 v=91
7320 On ch=8 n=72 v=91
7440 On ch=8 n=72 v=0
7440 On ch=8 n=60 v=0
7440 On ch=8 n=65 v=95
7440 On ch=8 n=77 v=95
7560 On ch=8 n=77 v=0
7560 On ch=8 n=65 v=0
7560 On ch=8 n=64 v=89
7560 On ch=8 n=76 v=89
7680 On ch=8 n=76 v=0
7680 On ch=8 n=64 v=0
7680 On ch=8 n=62 v=89
7680 On ch=8 n=74 v=89
8010 On ch=8 n=74 v=0
8010 On ch=8 n=62 v=0
8040 On ch=8 n=64 v=100
8070 On ch=8 n=64 v=0
8100 On ch=8 n=65 v=85
8130 On ch=8 n=65 v=0
8160 On ch=8 n=67 v=98
8190 On ch=8 n=67 v=0
8190 On ch=8 n=67 v=80
8220 On ch=8 n=67 v=0
8250 On ch=8 n=67 v=91
8280 On ch=8 n=67 v=0
8280 On ch=8 n=67 v=72
8310 On ch=8 n=67 v=0
8340 On ch=8 n=69 v=82
8370 On ch=8 n=69 v=0
8370 On ch=8 n=67 v=91
8400 On ch=8 n=67 v=0
8430 On ch=8 n=64 v=91
8460 On ch=8 n=64 v=0
8460 On ch=8 n=60 v=95
8490 On ch=8 n=60 v=0
8520 On ch=8 n=59 v=100
8550 On ch=8 n=59 v=0
8580 On ch=8 n=60 v=85
8610 On ch=8 n=60 v=0
8640 On ch=8 n=62 v=102
8670 On ch=8 n=62 v=0
8670 On ch=8 n=62 v=87
8700 On ch=8 n=62 v=0
8730 On ch=8 n=62 v=98
8760 On ch=8 n=62 v=0
8760 On ch=8 n=62 v=82
8790 On ch=8 n=62 v=0
8820 On ch=8 n=64 v=80
8850 On ch=8 n=64 v=0
8850 On ch=8 n=62 v=91
8880 On ch=8 n=62 v=0
8910 On ch=8 n=59 v=89
8940 On ch=8 n=59 v=0
8940 On ch=8 n=55 v=95
8970 On ch=8 n=55 v=0
9000 On ch=8 n=55 v=100
9030 On ch=8 n=55 v=0
9060 On ch=8 n=55 v=85
9090 On ch=8 n=55 v=0
9120 On ch=8 n=57 v=107
9240 On ch=8 n=57 v=0
9240 On ch=8 n=60 v=95
9360 On ch=8 n=60 v=0
9360 On ch=8 n=65 v=100
9480 On ch=8 n=65 v=0
9480 On ch=8 n=64 v=102
9600 On ch=8 n=64 v=0
9600 On ch=8 n=62 v=95
9960 On ch=8 n=62 v=0
12480 On ch=8 n=67 v=127
12480 On ch=8 n=62 v=127
12510 On ch=8 n=62 v=0
12510 On ch=8 n=67 v=0
12510 On ch=8 n=67 v=127
12510 On ch=8 n=62 v=104
12540 On ch=8 n=62 v=0
12540 On ch=8 n=67 v=0
12540 On ch=8 n=67 v=127
12540 On ch=8 n=62 v=127
12570 On ch=8 n=62 v=0
12570 On ch=8 n=67 v=0
12570 On ch=8 n=67 v=127
12570 On ch=8 n=62 v=127
12600 On ch=8 n=62 v=0
12600 On ch=8 n=67 v=0
12660 On ch=8 n=62 v=127
12660 On ch=8 n=67 v=127
12690 On ch=8 n=67 v=0
12690 On ch=8 n=62 v=0
12690 On ch=8 n=67 v=127
12690 On ch=8 n=62 v=120
12720 On ch=8 n=62 v=0
12720 On ch=8 n=67 v=0
12720 On ch=8 n=62 v=127
12720 On ch=8 n=67 v=127
12750 On ch=8 n=67 v=0
12750 On ch=8 n=62 v=0
12750 On ch=8 n=67 v=127
12750 On ch=8 n=62 v=127
12780 On ch=8 n=62 v=0
12780 On ch=8 n=67 v=0
12960 On ch=8 n=67 v=105
12990 On ch=8 n=67 v=0
12990 On ch=8 n=67 v=95
13020 On ch=8 n=67 v=0
13050 On ch=8 n=67 v=102
13080 On ch=8 n=67 v=0
13080 On ch=8 n=67 v=85
13110 On ch=8 n=67 v=0
13140 On ch=8 n=69 v=74
13170 On ch=8 n=69 v=0
13170 On ch=8 n=67 v=100
13200 On ch=8 n=67 v=0
13230 On ch=8 n=64 v=100
13260 On ch=8 n=64 v=0
13260 On ch=8 n=60 v=93
13290 On ch=8 n=60 v=0
13320 On ch=8 n=59 v=85
13350 On ch=8 n=59 v=0
13380 On ch=8 n=60 v=95
13410 On ch=8 n=60 v=0
13440 On ch=8 n=62 v=102
13470 On ch=8 n=62 v=0
13470 On ch=8 n=62 v=82
13500 On ch=8 n=62 v=0
13530 On ch=8 n=62 v=100
13560 On ch=8 n=62 v=0
13560 On ch=8 n=62 v=82
13590 On ch=8 n=62 v=0
13620 On ch=8 n=64 v=87
13650 On ch=8 n=64 v=0
13650 On ch=8 n=62 v=100
13680 On ch=8 n=62 v=0
13710 On ch=8 n=59 v=100
13740 On ch=8 n=59 v=0
13740 On ch=8 n=55 v=105
13770 On ch=8 n=55 v=0
13800 On ch=8 n=55 v=100
13830 On ch=8 n=55 v=0
13860 On ch=8 n=55 v=89
13890 On ch=8 n=55 v=0
13920 On ch=8 n=57 v=102
14040 On ch=8 n=57 v=0
14040 On ch=8 n=60 v=91
14160 On ch=8 n=60 v=0
14160 On ch=8 n=65 v=95
14280 On ch=8 n=65 v=0
14280 On ch=8 n=64 v=89
14400 On ch=8 n=64 v=0
14400 On ch=8 n=62 v=89
14730 On ch=8 n=62 v=0
14760 On ch=8 n=64 v=100
14790 On ch=8 n=64 v=0
14820 On ch=8 n=65 v=85
14850 On ch=8 n=65 v=0
14880 On ch=8 n=67 v=98
14910 On ch=8 n=67 v=0
14910 On ch=8 n=67 v=80
14940 On ch=8 n=67 v=0
14970 On ch=8 n=67 v=91
15000 On ch=8 n=67 v=0
15000 On ch=8 n=67 v=72
15030 On ch=8 n=67 v=0
15060 On ch=8 n=69 v=82
15090 On ch=8 n=69 v=0
15090 On ch=8 n=67 v=91
15120 On ch=8 n=67 v=0
15150 On ch=8 n=64 v=91
15180 On ch=8 n=64 v=0
15180 On ch=8 n=60 v=95
15210 On ch=8 n=60 v=0
15240 On ch=8 n=59 v=100
15270 On ch=8 n=59 v=0
15300 On ch=8 n=60 v=85
15330 On ch=8 n=60 v=0
15360 On ch=8 n=62 v=102
15390 On ch=8 n=62 v=0
15390 On ch=8 n=62 v=87
15420 On ch=8 n=62 v=0
15450 On ch=8 n=62 v=98
15480 On ch=8 n=62 v=0
15480 On ch=8 n=62 v=82
15510 On ch=8 n=62 v=0
15540 On ch=8 n=64 v=80
15570 On ch=8 n=64 v=0
15570 On ch=8 n=62 v=91
15600 On ch=8 n=62 v=0
15630 On ch=8 n=59 v=89
15660 On ch=8 n=59 v=0
15660 On ch=8 n=55 v=95
15690 On ch=8 n=55 v=0
15720 On ch=8 n=55 v=100
15750 On ch=8 n=55 v=0
15780 On ch=8 n=55 v=85
15810 On ch=8 n=55 v=0
15840 On ch=8 n=57 v=107
15960 On ch=8 n=57 v=0
15960 On ch=8 n=60 v=95
16080 On ch=8 n=60 v=0
16080 On ch=8 n=65 v=100
16200 On ch=8 n=65 v=0
16200 On ch=8 n=64 v=102
16320 On ch=8 n=64 v=0
16320 On ch=8 n=62 v=95
16680 On ch=8 n=62 v=0
16920 On ch=8 n=76 v=105
16920 On ch=8 n=67 v=107
16920 On ch=8 n=72 v=110
16950 On ch=8 n=72 v=0
16950 On ch=8 n=67 v=0
16950 On ch=8 n=76 v=0
17160 On ch=8 n=69 v=102
17160 On ch=8 n=77 v=105
17160 On ch=8 n=72 v=107
17190 On ch=8 n=72 v=0
17190 On ch=8 n=77 v=0
17190 On ch=8 n=69 v=0
17400 On ch=8 n=79 v=102
17400 On ch=8 n=71 v=107
17400 On ch=8 n=74 v=113
17430 On ch=8 n=74 v=0
17430 On ch=8 n=71 v=0
17430 On ch=8 n=79 v=0
17580 On ch=8 n=77 v=102
17580 On ch=8 n=69 v=102
17580 On ch=8 n=72 v=110
17610 On ch=8 n=72 v=0
17610 On ch=8 n=69 v=0
17610 On ch=8 n=77 v=0
17700 On ch=8 n=79 v=102
17700 On ch=8 n=71 v=110
17700 On ch=8 n=74 v=113
17730 On ch=8 n=74 v=0
17730 On ch=8 n=71 v=0
17730 On ch=8 n=79 v=0
17880 On ch=8 n=67 v=105
17880 On ch=8 n=72 v=110
17880 On ch=8 n=76 v=105
17910 On ch=8 n=76 v=0
17910 On ch=8 n=72 v=0
17910 On ch=8 n=67 v=0
18011 Par ch=8 c=64 v=127
18014 Par ch=8 c=64 v=0
18120 On ch=8 n=77 v=100
18120 On ch=8 n=69 v=110
18120 On ch=8 n=72 v=113
18150 On ch=8 n=72 v=0
18150 On ch=8 n=69 v=0
18150 On ch=8 n=77 v=0
18360 On ch=8 n=71 v=110
18360 On ch=8 n=79 v=102
18360 On ch=8 n=74 v=119
18390 On ch=8 n=74 v=0
18390 On ch=8 n=79 v=0
18390 On ch=8 n=71 v=0
18540 On ch=8 n=69 v=113
18540 On ch=8 n=77 v=105
18540 On ch=8 n=72 v=113
18570 On ch=8 n=72 v=0
18570 On ch=8 n=77 v=0
18570 On ch=8 n=69 v=0
18660 On ch=8 n=79 v=107
18660 On ch=8 n=71 v=110
18660 On ch=8 n=74 v=122
18690 On ch=8 n=74 v=0
18690 On ch=8 n=71 v=0
18690 On ch=8 n=79 v=0
18720 On ch=8 n=67 v=127
18720 On ch=8 n=62 v=127
18750 On ch=8 n=62 v=0
18750 On ch=8 n=67 v=0
18750 On ch=8 n=67 v=127
18750 On ch=8 n=62 v=104
18780 On ch=8 n=62 v=0
18780 On ch=8 n=67 v=0
18780 On ch=8 n=67 v=127
18780 On ch=8 n=62 v=127
18810 On ch=8 n=62 v=0
18810 On ch=8 n=67 v=0
18810 On ch=8 n=67 v=127
18810 On ch=8 n=62 v=127
18840 On ch=8 n=62 v=0
18840 On ch=8 n=67 v=0
18900 On ch=8 n=62 v=127
18900 On ch=8 n=67 v=127
18930 On ch=8 n=67 v=0
18930 On ch=8 n=62 v=0
18930 On ch=8 n=67 v=127
18930 On ch=8 n=62 v=120
18960 On ch=8 n=62 v=0
18960 On ch=8 n=67 v=0
18960 On ch=8 n=62 v=127
18960 On ch=8 n=67 v=127
18990 On ch=8 n=67 v=0
18990 On ch=8 n=62 v=0
18990 On ch=8 n=67 v=127
18990 On ch=8 n=62 v=127
19020 On ch=8 n=62 v=0
19020 On ch=8 n=67 v=0
19200 On ch=8 n=67 v=127
19200 On ch=8 n=62 v=127
19230 On ch=8 n=62 v=0
19230 On ch=8 n=67 v=0
19230 On ch=8 n=67 v=127
19230 On ch=8 n=62 v=104
19260 On ch=8 n=62 v=0
19260 On ch=8 n=67 v=0
19260 On ch=8 n=67 v=127
19260 On ch=8 n=62 v=127
19290 On ch=8 n=62 v=0
19290 On ch=8 n=67 v=0
19290 On ch=8 n=67 v=127
19290 On ch=8 n=62 v=127
19320 On ch=8 n=62 v=0
19320 On ch=8 n=67 v=0
19380 On ch=8 n=62 v=127
19380 On ch=8 n=67 v=127
19410 On ch=8 n=67 v=0
19410 On ch=8 n=62 v=0
19410 On ch=8 n=67 v=127
19410 On ch=8 n=62 v=120
19440 On ch=8 n=62 v=0
19440 On ch=8 n=67 v=0
19440 On ch=8 n=62 v=127
19440 On ch=8 n=67 v=127
19470 On ch=8 n=67 v=0
19470 On ch=8 n=62 v=0
19470 On ch=8 n=67 v=127
19470 On ch=8 n=62 v=127
19500 On ch=8 n=62 v=0
19500 On ch=8 n=67 v=0
19680 On ch=8 n=67 v=105
19710 On ch=8 n=67 v=0
19710 On ch=8 n=67 v=95
19740 On ch=8 n=67 v=0
19770 On ch=8 n=67 v=102
19800 On ch=8 n=67 v=0
19800 On ch=8 n=67 v=85
19830 On ch=8 n=67 v=0
19860 On ch=8 n=69 v=74
19890 On ch=8 n=69 v=0
19890 On ch=8 n=67 v=100
19920 On ch=8 n=67 v=0
19950 On ch=8 n=64 v=100
19980 On ch=8 n=64 v=0
19980 On ch=8 n=60 v=93
20010 On ch=8 n=60 v=0
20040 On ch=8 n=59 v=85
20070 On ch=8 n=59 v=0
20100 On ch=8 n=60 v=95
20130 On ch=8 n=60 v=0
20160 On ch=8 n=62 v=102
20190 On ch=8 n=62 v=0
20190 On ch=8 n=62 v=82
20220 On ch=8 n=62 v=0
20250 On ch=8 n=62 v=100
20280 On ch=8 n=62 v=0
20280 On ch=8 n=62 v=82
20310 On ch=8 n=62 v=0
20340 On ch=8 n=64 v=87
20370 On ch=8 n=64 v=0
20370 On ch=8 n=62 v=100
20400 On ch=8 n=62 v=0
20430 On ch=8 n=59 v=100
20460 On ch=8 n=59 v=0
20460 On ch=8 n=55 v=105
20490 On ch=8 n=55 v=0
20520 On ch=8 n=55 v=100
20550 On ch=8 n=55 v=0
20580 On ch=8 n=55 v=89
20610 On ch=8 n=55 v=0
20640 On ch=8 n=57 v=102
20760 On ch=8 n=57 v=0
20760 On ch=8 n=60 v=91
20880 On ch=8 n=60 v=0
20880 On ch=8 n=65 v=95
21000 On ch=8 n=65 v=0
21000 On ch=8 n=64 v=89
21120 On ch=8 n=64 v=0
21120 On ch=8 n=62 v=89
21450 On ch=8 n=62 v=0
21480 On ch=8 n=64 v=100
21510 On ch=8 n=64 v=0
21540 On ch=8 n=65 v=85
21570 On ch=8 n=65 v=0
21600 On ch=8 n=67 v=98
21630 On ch=8 n=67 v=0
21630 On ch=8 n=67 v=80
21660 On ch=8 n=67 v=0
21690 On ch=8 n=67 v=91
21720 On ch=8 n=67 v=0
21720 On ch=8 n=67 v=72
21750 On ch=8 n=67 v=0
21780 On ch=8 n=69 v=82
21810 On ch=8 n=69 v=0
21810 On ch=8 n=67 v=91
21840 On ch=8 n=67 v=0
21870 On ch=8 n=64 v=91
21900 On ch=8 n=64 v=0
21900 On ch=8 n=60 v=95
21930 On ch=8 n=60 v=0
21960 On ch=8 n=59 v=100
21990 On ch=8 n=59 v=0
22020 On ch=8 n=60 v=85
22050 On ch=8 n=60 v=0
22080 On ch=8 n=62 v=102
22110 On ch=8 n=62 v=0
22110 On ch=8 n=62 v=87
22140 On ch=8 n=62 v=0
22170 On ch=8 n=62 v=98
22200 On ch=8 n=62 v=0
22200 On ch=8 n=62 v=82
22230 On ch=8 n=62 v=0
22260 On ch=8 n=64 v=80
22290 On ch=8 n=64 v=0
22290 On ch=8 n=62 v=91
22320 On ch=8 n=62 v=0
22350 On ch=8 n=59 v=89
22380 On ch=8 n=59 v=0
22380 On ch=8 n=55 v=95
22410 On ch=8 n=55 v=0
22440 On ch=8 n=55 v=100
22470 On ch=8 n=55 v=0
22500 On ch=8 n=55 v=85
22530 On ch=8 n=55 v=0
22560 On ch=8 n=57 v=107
22680 On ch=8 n=57 v=0
22680 On ch=8 n=60 v=95
22800 On ch=8 n=60 v=0
22800 On ch=8 n=65 v=100
22920 On ch=8 n=65 v=0
22920 On ch=8 n=64 v=102
23040 On ch=8 n=64 v=0
23040 On ch=8 n=62 v=95
23400 On ch=8 n=62 v=0
25920 On ch=8 n=67 v=127
25920 On ch=8 n=62 v=127
25950 On ch=8 n=62 v=0
25950 On ch=8 n=67 v=0
25950 On ch=8 n=67 v=127
25950 On ch=8 n=62 v=104
25980 On ch=8 n=62 v=0
25980 On ch=8 n=67 v=0
25980 On ch=8 n=67 v=127
25980 On ch=8 n=62 v=127
26010 On ch=8 n=62 v=0
26010 On ch=8 n=67 v=0
26010 On ch=8 n=67 v=127
26010 On ch=8 n=62 v=127
26040 On ch=8 n=62 v=0
26040 On ch=8 n=67 v=0
26100 On ch=8 n=62 v=127
26100 On ch=8 n=67 v=127
26130 On ch=8 n=67 v=0
26130 On ch=8 n=62 v=0
26130 On ch=8 n=67 v=127
26130 On ch=8 n=62 v=120
26160 On ch=8 n=62 v=0
26160 On ch=8 n=67 v=0
26160 On ch=8 n=62 v=127
26160 On ch=8 n=67 v=127
26190 On ch=8 n=67 v=0
26190 On ch=8 n=62 v=0
26190 On ch=8 n=67 v=127
26190 On ch=8 n=62 v=127
26220 On ch=8 n=62 v=0
26220 On ch=8 n=67 v=0
26400 On ch=8 n=67 v=105
26430 On ch=8 n=67 v=0
26430 On ch=8 n=67 v=95
26460 On ch=8 n=67 v=0
26490 On ch=8 n=67 v=102
26520 On ch=8 n=67 v=0
26520 On ch=8 n=67 v=85
26550 On ch=8 n=67 v=0
26580 On ch=8 n=69 v=74
26610 On ch=8 n=69 v=0
26610 On ch=8 n=67 v=100
26640 On ch=8 n=67 v=0
26670 On ch=8 n=64 v=100
26700 On ch=8 n=64 v=0
26700 On ch=8 n=60 v=93
26730 On ch=8 n=60 v=0
26760 On ch=8 n=59 v=85
26790 On ch=8 n=59 v=0
26820 On ch=8 n=60 v=95
26850 On ch=8 n=60 v=0
26880 On ch=8 n=62 v=102
26910 On ch=8 n=62 v=0
26910 On ch=8 n=62 v=82
26940 On ch=8 n=62 v=0
26970 On ch=8 n=62 v=100
27000 On ch=8 n=62 v=0
27000 On ch=8 n=62 v=82
27030 On ch=8 n=62 v=0
27060 On ch=8 n=64 v=87
27090 On ch=8 n=64 v=0
27090 On ch=8 n=62 v=100
27120 On ch=8 n=62 v=0
27150 On ch=8 n=59 v=100
27180 On ch=8 n=59 v=0
27180 On ch=8 n=55 v=105
27210 On ch=8 n=55 v=0
27240 On ch=8 n=55 v=100
27270 On ch=8 n=55 v=0
27300 On ch=8 n=55 v=89
27330 On ch=8 n=55 v=0
27360 On ch=8 n=57 v=102
27480 On ch=8 n=57 v=0
27480 On ch=8 n=60 v=91
27600 On ch=8 n=60 v=0
27600 On ch=8 n=65 v=95
27720 On ch=8 n=65 v=0
27720 On ch=8 n=64 v=89
27840 On ch=8 n=64 v=0
27840 On ch=8 n=62 v=89
28170 On ch=8 n=62 v=0
28200 On ch=8 n=64 v=100
28230 On ch=8 n=64 v=0
28260 On ch=8 n=65 v=85
28290 On ch=8 n=65 v=0
28320 On ch=8 n=67 v=98
28350 On ch=8 n=67 v=0
28350 On ch=8 n=67 v=80
28380 On ch=8 n=67 v=0
28410 On ch=8 n=67 v=91
28440 On ch=8 n=67 v=0
28440 On ch=8 n=67 v=72
28470 On ch=8 n=67 v=0
28500 On ch=8 n=69 v=82
28530 On ch=8 n=69 v=0
28530 On ch=8 n=67 v=91
28560 On ch=8 n=67 v=0
28590 On ch=8 n=64 v=91
28620 On ch=8 n=64 v=0
28620 On ch=8 n=60 v=95
28650 On ch=8 n=60 v=0
28680 On ch=8 n=59 v=100
28710 On ch=8 n=59 v=0
28740 On ch=8 n=60 v=85
28770 On ch=8 n=60 v=0
28800 On ch=8 n=62 v=102
28830 On ch=8 n=62 v=0
28830 On ch=8 n=62 v=87
28860 On ch=8 n=62 v=0
28890 On ch=8 n=62 v=98
28920 On ch=8 n=62 v=0
28920 On ch=8 n=62 v=82
28950 On ch=8 n=62 v=0
28980 On ch=8 n=64 v=80
29010 On ch=8 n=64 v=0
29010 On ch=8 n=62 v=91
29040 On ch=8 n=62 v=0
29070 On ch=8 n=59 v=89
29100 On ch=8 n=59 v=0
29100 On ch=8 n=55 v=95
29130 On ch=8 n=55 v=0
29160 On ch=8 n=55 v=100
29190 On ch=8 n=55 v=0
29220 On ch=8 n=55 v=85
29250 On ch=8 n=55 v=0
29280 On ch=8 n=57 v=107
29400 On ch=8 n=57 v=0
29400 On ch=8 n=60 v=95
29520 On ch=8 n=60 v=0
29520 On ch=8 n=65 v=100
29640 On ch=8 n=65 v=0
29640 On ch=8 n=64 v=102
29760 On ch=8 n=64 v=0
29760 On ch=8 n=62 v=95
30120 On ch=8 n=62 v=0
30120 On ch=8 n=76 v=100
30120 On ch=8 n=64 v=100
30180 On ch=8 n=64 v=0
30180 On ch=8 n=76 v=0
30180 On ch=8 n=77 v=100
30180 On ch=8 n=65 v=100
30240 On ch=8 n=65 v=0
30240 On ch=8 n=77 v=0
30240 On ch=8 n=67 v=105
30240 On ch=8 n=79 v=105
30270 On ch=8 n=79 v=0
30270 On ch=8 n=67 v=0
30270 On ch=8 n=67 v=95
30270 On ch=8 n=79 v=95
30300 On ch=8 n=79 v=0
30300 On ch=8 n=67 v=0
30330 On ch=8 n=67 v=102
30330 On ch=8 n=79 v=102
30360 On ch=8 n=79 v=0
30360 On ch=8 n=67 v=0
30360 On ch=8 n=67 v=85
30360 On ch=8 n=79 v=85
30390 On ch=8 n=79 v=0
30390 On ch=8 n=67 v=0
30420 On ch=8 n=69 v=74
30420 On ch=8 n=81 v=74
30450 On ch=8 n=81 v=0
30450 On ch=8 n=69 v=0
30450 On ch=8 n=67 v=100
30450 On ch=8 n=79 v=100
30480 On ch=8 n=79 v=0
30480 On ch=8 n=67 v=0
30510 On ch=8 n=64 v=100
30510 On ch=8 n=76 v=100
30540 On ch=8 n=76 v=0
30540 On ch=8 n=64 v=0
30540 On ch=8 n=60 v=93
30540 On ch=8 n=72 v=93
30570 On ch=8 n=72 v=0
30570 On ch=8 n=60 v=0
30600 On ch=8 n=59 v=85
30600 On ch=8 n=71 v=85
30630 On ch=8 n=71 v=0
30630 On ch=8 n=59 v=0
30660 On ch=8 n=60 v=95
30660 On ch=8 n=72 v=95
30690 On ch=8 n=72 v=0
30690 On ch=8 n=60 v=0
30720 On ch=8 n=62 v=102
30720 On ch=8 n=74 v=102
30750 On ch=8 n=74 v=0
30750 On ch=8 n=62 v=0
30750 On ch=8 n=62 v=82
30750 On ch=8 n=74 v=82
30780 On ch=8 n=74 v=0
30780 On ch=8 n=62 v=0
30810 On ch=8 n=62 v=100
30810 On ch=8 n=74 v=100
30840 On ch=8 n=74 v=0
30840 On ch=8 n=62 v=0
30840 On ch=8 n=62 v=82
30840 On ch=8 n=74 v=82
30870 On ch=8 n=74 v=0
30870 On ch=8 n=62 v=0
30900 On ch=8 n=64 v=87
30900 On ch=8 n=76 v=87
30930 On ch=8 n=76 v=0
30930 On ch=8 n=64 v=0
30930 On ch=8 n=62 v=100
30930 On ch=8 n=74 v=100
30960 On ch=8 n=74 v=0
30960 On ch=8 n=62 v=0
30990 On ch=8 n=59 v=100
30990 On ch=8 n=71 v=100
31020 On ch=8 n=71 v=0
31020 On ch=8 n=59 v=0
31020 On ch=8 n=55 v=105
31020 On ch=8 n=67 v=105
31050 On ch=8 n=67 v=0
31050 On ch=8 n=55 v=0
31080 On ch=8 n=55 v=100
31080 On ch=8 n=67 v=100
31110 On ch=8 n=67 v=0
31110 On ch=8 n=55 v=0
31140 On ch=8 n=55 v=89
31140 On ch=8 n=67 v=89
31170 On ch=8 n=67 v=0
31170 On ch=8 n=55 v=0
31200 On ch=8 n=57 v=102
31200 On ch=8 n=69 v=102
31320 On ch=8 n=69 v=0
31320 On ch=8 n=57 v=0
31320 On ch=8 n=60 v=91
31320 On ch=8 n=72 v=91
31440 On ch=8 n=72 v=0
31440 On ch=8 n=60 v=0
31440 On ch=8 n=65 v=95
31440 On ch=8 n=77 v=95
31560 On ch=8 n=77 v=0
31560 On ch=8 n=65 v=0
31560 On ch=8 n=64 v=89
31560 On ch=8 n=76 v=89
31680 On ch=8 n=76 v=0
31680 On ch=8 n=64 v=0
31680 On ch=8 n=62 v=89
31680 On ch=8 n=74 v=89
32010 On ch=8 n=74 v=0
32010 On ch=8 n=62 v=0
32040 On ch=8 n=64 v=100
32070 On ch=8 n=64 v=0
32100 On ch=8 n=65 v=85
32130 On ch=8 n=65 v=0
32160 On ch=8 n=67 v=98
32190 On ch=8 n=67 v=0
32190 On ch=8 n=67 v=80
32220 On ch=8 n=67 v=0
32250 On ch=8 n=67 v=91
32280 On ch=8 n=67 v=0
32280 On ch=8 n=67 v=72
32310 On ch=8 n=67 v=0
32340 On ch=8 n=69 v=82
32370 On ch=8 n=69 v=0
32370 On ch=8 n=67 v=91
32400 On ch=8 n=67 v=0
32430 On ch=8 n=64 v=91
32460 On ch=8 n=64 v=0
32460 On ch=8 n=60 v=95
32490 On ch=8 n=60 v=0
32520 On ch=8 n=59 v=100
32550 On ch=8 n=59 v=0
32580 On ch=8 n=60 v=85
32610 On ch=8 n=60 v=0
32640 On ch=8 n=62 v=102
32670 On ch=8 n=62 v=0
32670 On ch=8 n=62 v=87
32700 On ch=8 n=62 v=0
32730 On ch=8 n=62 v=98
32760 On ch=8 n=62 v=0
32760 On ch=8 n=62 v=82
32790 On ch=8 n=62 v=0
32820 On ch=8 n=64 v=80
32850 On ch=8 n=64 v=0
32850 On ch=8 n=62 v=91
32880 On ch=8 n=62 v=0
32910 On ch=8 n=59 v=89
32940 On ch=8 n=59 v=0
32940 On ch=8 n=55 v=95
32970 On ch=8 n=55 v=0
33000 On ch=8 n=55 v=100
33030 On ch=8 n=55 v=0
33060 On ch=8 n=55 v=85
33090 On ch=8 n=55 v=0
33120 On ch=8 n=57 v=107
33240 On ch=8 n=57 v=0
33240 On ch=8 n=60 v=95
33360 On ch=8 n=60 v=0
33360 On ch=8 n=65 v=100
33480 On ch=8 n=65 v=0
33480 On ch=8 n=64 v=102
33600 On ch=8 n=64 v=0
33600 On ch=8 n=62 v=95
33960 On ch=8 n=62 v=0
34080 On ch=8 n=67 v=127
34080 On ch=8 n=62 v=127
34110 On ch=8 n=62 v=0
34110 On ch=8 n=67 v=0
34110 On ch=8 n=67 v=127
34110 On ch=8 n=62 v=104
34140 On ch=8 n=62 v=0
34140 On ch=8 n=67 v=0
34140 On ch=8 n=67 v=127
34140 On ch=8 n=62 v=127
34170 On ch=8 n=62 v=0
34170 On ch=8 n=67 v=0
34170 On ch=8 n=67 v=127
34170 On ch=8 n=62 v=127
34200 On ch=8 n=62 v=0
34200 On ch=8 n=67 v=0
34260 On ch=8 n=62 v=127
34260 On ch=8 n=67 v=127
34290 On ch=8 n=67 v=0
34290 On ch=8 n=62 v=0
34290 On ch=8 n=67 v=127
34290 On ch=8 n=62 v=120
34320 On ch=8 n=62 v=0
34320 On ch=8 n=67 v=0
34320 On ch=8 n=62 v=127
34320 On ch=8 n=67 v=127
34350 On ch=8 n=67 v=0
34350 On ch=8 n=62 v=0
34350 On ch=8 n=67 v=127
34350 On ch=8 n=62 v=127
34380 On ch=8 n=62 v=0
34380 On ch=8 n=67 v=0
34560 On ch=8 n=67 v=127
34560 On ch=8 n=62 v=127
34590 On ch=8 n=62 v=0
34590 On ch=8 n=67 v=0
34590 On ch=8 n=67 v=127
34590 On ch=8 n=62 v=104
34620 On ch=8 n=62 v=0
34620 On ch=8 n=67 v=0
34620 On ch=8 n=67 v=127
34620 On ch=8 n=62 v=127
34650 On ch=8 n=62 v=0
34650 On ch=8 n=67 v=0
34650 On ch=8 n=67 v=127
34650 On ch=8 n=62 v=127
34680 On ch=8 n=62 v=0
34680 On ch=8 n=67 v=0
34740 On ch=8 n=62 v=127
34740 On ch=8 n=67 v=127
34770 On ch=8 n=67 v=0
34770 On ch=8 n=62 v=0
34770 On ch=8 n=67 v=127
34770 On ch=8 n=62 v=120
34800 On ch=8 n=62 v=0
34800 On ch=8 n=67 v=0
34800 On ch=8 n=62 v=127
34800 On ch=8 n=67 v=127
34830 On ch=8 n=67 v=0
34830 On ch=8 n=62 v=0
34830 On ch=8 n=67 v=127
34830 On ch=8 n=62 v=127
34860 On ch=8 n=62 v=0
34860 On ch=8 n=67 v=0
38880 On ch=8 n=79 v=127
39750 On ch=8 n=79 v=0
39780 On ch=8 n=81 v=92
39840 On ch=8 n=81 v=0
39840 On ch=8 n=79 v=90
40080 On ch=8 n=79 v=0
40080 On ch=8 n=76 v=95
40320 On ch=8 n=76 v=0
40320 On ch=8 n=74 v=90
40650 On ch=8 n=74 v=0
40650 On ch=8 n=72 v=62
40740 On ch=8 n=72 v=0
40740 On ch=8 n=74 v=62
40770 On ch=8 n=74 v=0
40770 On ch=8 n=72 v=53
40800 On ch=8 n=72 v=0
40800 On ch=8 n=76 v=66
40860 On ch=8 n=76 v=0
40860 On ch=8 n=79 v=64
41670 On ch=8 n=79 v=0
41700 On ch=8 n=81 v=27
41760 On ch=8 n=81 v=0
41760 On ch=8 n=79 v=29
42600 On ch=8 n=79 v=0
42600 Meta TrkEnd
TrkEnd
MTrk
0 Meta 0x21 00
0 Meta TrkName "trumpet"
0 Par ch=9 c=0 v=0
0 Par ch=9 c=32 v=0
0 PrCh ch=9 p=56
0 Par ch=9 c=7 v=100
0 Par ch=9 c=10 v=64
38880 On ch=9 n=79 v=107
39750 On ch=9 n=79 v=0
39780 On ch=9 n=81 v=70
39840 On ch=9 n=81 v=0
39840 On ch=9 n=79 v=68
40080 On ch=9 n=79 v=0
40080 On ch=9 n=76 v=71
40320 On ch=9 n=76 v=0
40320 On ch=9 n=74 v=67
40650 On ch=9 n=74 v=0
40650 On ch=9 n=72 v=44
40740 On ch=9 n=72 v=0
40740 On ch=9 n=74 v=44
40770 On ch=9 n=74 v=0
40770 On ch=9 n=72 v=37
40800 On ch=9 n=72 v=0
40800 On ch=9 n=76 v=46
40860 On ch=9 n=76 v=0
40860 On ch=9 n=79 v=44
41670 On ch=9 n=79 v=0
41700 On ch=9 n=81 v=15
41760 On ch=9 n=81 v=0
41760 On ch=9 n=79 v=15
42600 On ch=9 n=79 v=0
42600 Meta TrkEnd
TrkEnd
MTrk
0 Meta 0x21 00
0 Meta TrkName "drums"
0 PrCh ch=10 p=32
0 Par ch=10 c=7 v=127
0 Par ch=10 c=10 v=64
480 On ch=10 n=36 v=127
540 On ch=10 n=36 v=0
600 On ch=10 n=36 v=127
660 On ch=10 n=36 v=0
720 On ch=10 n=36 v=127
780 On ch=10 n=36 v=0
840 On ch=10 n=36 v=127
900 On ch=10 n=36 v=0
960 On ch=10 n=36 v=127
960 On ch=10 n=49 v=127
1020 On ch=10 n=36 v=0
1080 On ch=10 n=36 v=127
1140 On ch=10 n=36 v=0
1172 On ch=10 n=49 v=0
1200 On ch=10 n=36 v=127
1260 On ch=10 n=36 v=0
1320 On ch=10 n=36 v=127
1380 On ch=10 n=36 v=0
1440 On ch=10 n=40 v=100
1440 On ch=10 n=36 v=127
1455 On ch=10 n=40 v=0
1470 On ch=10 n=40 v=100
1485 On ch=10 n=40 v=0
1500 On ch=10 n=36 v=0
1500 On ch=10 n=40 v=100
1515 On ch=10 n=40 v=0
1530 On ch=10 n=40 v=100
1545 On ch=10 n=40 v=0
1560 On ch=10 n=36 v=127
1620 On ch=10 n=36 v=0
1620 On ch=10 n=40 v=100
1635 On ch=10 n=40 v=0
1650 On ch=10 n=40 v=100
1665 On ch=10 n=40 v=0
1680 On ch=10 n=40 v=100
1680 On ch=10 n=36 v=127
1695 On ch=10 n=40 v=0
1710 On ch=10 n=40 v=100
1725 On ch=10 n=40 v=0
1740 On ch=10 n=36 v=0
1800 On ch=10 n=36 v=127
1860 On ch=10 n=36 v=0
1920 On ch=10 n=40 v=100
1920 On ch=10 n=36 v=127
1935 On ch=10 n=40 v=0
1950 On ch=10 n=40 v=100
1965 On ch=10 n=40 v=0
1980 On ch=10 n=36 v=0
1980 On ch=10 n=40 v=100
1995 On ch=10 n=40 v=0
2010 On ch=10 n=40 v=100
2025 On ch=10 n=40 v=0
2040 On ch=10 n=36 v=127
2100 On ch=10 n=36 v=0
2100 On ch=10 n=40 v=100
2115 On ch=10 n=40 v=0
2130 On ch=10 n=40 v=100
2145 On ch=10 n=40 v=0
2160 On ch=10 n=40 v=100
2160 On ch=10 n=36 v=127
2175 On ch=10 n=40 v=0
2190 On ch=10 n=40 v=100
2205 On ch=10 n=40 v=0
2220 On ch=10 n=36 v=0
2220 On ch=10 n=47 v=122
2250 On ch=10 n=47 v=0
2280 On ch=10 n=47 v=127
2280 On ch=10 n=36 v=127
2310 On ch=10 n=47 v=0
2340 On ch=10 n=36 v=0
2400 On ch=10 n=36 v=127
2400 On ch=10 n=55 v=127
2400 On ch=10 n=44 v=116
2430 On ch=10 n=44 v=0
2430 On ch=10 n=44 v=100
2460 On ch=10 n=44 v=0
2460 On ch=10 n=36 v=0
2460 On ch=10 n=42 v=113
2490 On ch=10 n=42 v=0
2490 On ch=10 n=44 v=100
2505 On ch=10 n=44 v=0
2520 On ch=10 n=40 v=127
2520 On ch=10 n=36 v=127
2520 On ch=10 n=44 v=119
2522 On ch=10 n=55 v=0
2550 On ch=10 n=40 v=0
2550 On ch=10 n=44 v=0
2550 On ch=10 n=44 v=87
2580 On ch=10 n=44 v=0
2580 On ch=10 n=36 v=0
2580 On ch=10 n=42 v=113
2610 On ch=10 n=42 v=0
2610 On ch=10 n=44 v=100
2625 On ch=10 n=44 v=0
2640 On ch=10 n=36 v=127
2640 On ch=10 n=44 v=113
2670 On ch=10 n=44 v=0
2670 On ch=10 n=44 v=80
2700 On ch=10 n=44 v=0
2700 On ch=10 n=36 v=0
2700 On ch=10 n=42 v=107
2730 On ch=10 n=42 v=0
2730 On ch=10 n=44 v=100
2745 On ch=10 n=44 v=0
2760 On ch=10 n=36 v=127
2760 On ch=10 n=40 v=127
2760 On ch=10 n=44 v=110
2790 On ch=10 n=44 v=0
2790 On ch=10 n=44 v=72
2820 On ch=10 n=44 v=0
2820 On ch=10 n=40 v=0
2820 On ch=10 n=36 v=0
2820 On ch=10 n=42 v=113
2850 On ch=10 n=42 v=0
2850 On ch=10 n=44 v=100
2865 On ch=10 n=44 v=0
2880 On ch=10 n=36 v=127
2880 On ch=10 n=44 v=110
2910 On ch=10 n=44 v=0
2910 On ch=10 n=44 v=68
2940 On ch=10 n=44 v=0
2940 On ch=10 n=36 v=0
2940 On ch=10 n=42 v=102
2970 On ch=10 n=42 v=0
2970 On ch=10 n=44 v=100
2985 On ch=10 n=44 v=0
3000 On ch=10 n=36 v=127
3000 On ch=10 n=40 v=127
3000 On ch=10 n=44 v=116
3030 On ch=10 n=44 v=0
3030 On ch=10 n=44 v=70
3060 On ch=10 n=44 v=0
3060 On ch=10 n=40 v=0
3060 On ch=10 n=36 v=0
3060 On ch=10 n=42 v=102
3090 On ch=10 n=42 v=0
3090 On ch=10 n=44 v=100
3105 On ch=10 n=44 v=0
3120 On ch=10 n=36 v=127
3120 On ch=10 n=44 v=105
3150 On ch=10 n=44 v=0
3150 On ch=10 n=44 v=87
3180 On ch=10 n=44 v=0
3180 On ch=10 n=36 v=0
3180 On ch=10 n=42 v=105
3210 On ch=10 n=42 v=0
3210 On ch=10 n=44 v=100
3225 On ch=10 n=44 v=0
3240 On ch=10 n=36 v=127
3240 On ch=10 n=40 v=127
3240 On ch=10 n=44 v=107
3270 On ch=10 n=44 v=0
3270 On ch=10 n=44 v=95
3300 On ch=10 n=44 v=0
3300 On ch=10 n=40 v=0
3300 On ch=10 n=36 v=0
3300 On ch=10 n=42 v=107
3330 On ch=10 n=42 v=0
3330 On ch=10 n=44 v=100
3345 On ch=10 n=44 v=0
3360 On ch=10 n=36 v=127
3360 On ch=10 n=44 v=100
3390 On ch=10 n=44 v=0
3390 On ch=10 n=44 v=89
3420 On ch=10 n=44 v=0
3420 On ch=10 n=36 v=0
3420 On ch=10 n=42 v=105
3450 On ch=10 n=42 v=0
3450 On ch=10 n=44 v=100
3465 On ch=10 n=44 v=0
3480 On ch=10 n=36 v=127
3480 On ch=10 n=40 v=127
3480 On ch=10 n=44 v=113
3510 On ch=10 n=44 v=0
3510 On ch=10 n=44 v=80
3540 On ch=10 n=44 v=0
3540 On ch=10 n=40 v=0
3540 On ch=10 n=36 v=0
3540 On ch=10 n=42 v=87
3570 On ch=10 n=42 v=0
3570 On ch=10 n=44 v=100
3585 On ch=10 n=44 v=0
3600 On ch=10 n=36 v=127
3600 On ch=10 n=44 v=116
3630 On ch=10 n=44 v=0
3630 On ch=10 n=44 v=87
3660 On ch=10 n=44 v=0
3660 On ch=10 n=36 v=0
3660 On ch=10 n=42 v=95
3690 On ch=10 n=42 v=0
3690 On ch=10 n=44 v=100
3705 On ch=10 n=44 v=0
3720 On ch=10 n=40 v=122
3720 On ch=10 n=36 v=127
3720 On ch=10 n=44 v=107
3750 On ch=10 n=44 v=0
3750 On ch=10 n=44 v=85
3780 On ch=10 n=44 v=0
3780 On ch=10 n=36 v=0
3780 On ch=10 n=40 v=0
3780 On ch=10 n=42 v=107
3810 On ch=10 n=42 v=0
3810 On ch=10 n=44 v=100
3825 On ch=10 n=44 v=0
3840 On ch=10 n=36 v=127
3840 On ch=10 n=44 v=102
3870 On ch=10 n=44 v=0
3870 On ch=10 n=44 v=82
3900 On ch=10 n=44 v=0
3900 On ch=10 n=36 v=0
3900 On ch=10 n=42 v=110
3930 On ch=10 n=42 v=0
3930 On ch=10 n=44 v=100
3945 On ch=10 n=44 v=0
3960 On ch=10 n=36 v=122
3960 On ch=10 n=40 v=127
3960 On ch=10 n=44 v=100
3990 On ch=10 n=44 v=0
3990 On ch=10 n=44 v=82
4020 On ch=10 n=44 v=0
4020 On ch=10 n=40 v=0
4020 On ch=10 n=36 v=0
4020 On ch=10 n=42 v=100
4050 On ch=10 n=42 v=0
4050 On ch=10 n=44 v=100
4065 On ch=10 n=44 v=0
4080 On ch=10 n=36 v=127
4080 On ch=10 n=44 v=105
4110 On ch=10 n=44 v=0
4110 On ch=10 n=44 v=91
4140 On ch=10 n=44 v=0
4140 On ch=10 n=36 v=0
4140 On ch=10 n=42 v=105
4170 On ch=10 n=42 v=0
4170 On ch=10 n=44 v=100
4185 On ch=10 n=44 v=0
4200 On ch=10 n=40 v=127
4200 On ch=10 n=36 v=127
4200 On ch=10 n=44 v=107
4230 On ch=10 n=44 v=0
4230 On ch=10 n=44 v=89
4260 On ch=10 n=44 v=0
4260 On ch=10 n=36 v=0
4260 On ch=10 n=40 v=0
4260 On ch=10 n=42 v=113
4290 On ch=10 n=42 v=0
4290 On ch=10 n=44 v=100
4305 On ch=10 n=44 v=0
4320 On ch=10 n=36 v=127
4320 On ch=10 n=44 v=105
4350 On ch=10 n=44 v=0
4350 On ch=10 n=44 v=80
4380 On ch=10 n=44 v=0
4380 On ch=10 n=36 v=0
4380 On ch=10 n=42 v=102
4410 On ch=10 n=42 v=0
4410 On ch=10 n=44 v=100
4425 On ch=10 n=44 v=0
4440 On ch=10 n=36 v=127
4440 On ch=10 n=40 v=127
4440 On ch=10 n=44 v=105
4470 On ch=10 n=44 v=0
4470 On ch=10 n=36 v=0
4470 On ch=10 n=44 v=78
4500 On ch=10 n=44 v=0
4500 On ch=10 n=40 v=0
4500 On ch=10 n=42 v=102
4530 On ch=10 n=42 v=0
4530 On ch=10 n=44 v=100
4545 On ch=10 n=44 v=0
4560 On ch=10 n=36 v=127
4560 On ch=10 n=44 v=107
4590 On ch=10 n=44 v=0
4590 On ch=10 n=44 v=82
4620 On ch=10 n=44 v=0
4620 On ch=10 n=36 v=0
4620 On ch=10 n=42 v=105
4650 On ch=10 n=42 v=0
4650 On ch=10 n=44 v=100
4665 On ch=10 n=44 v=0
4680 On ch=10 n=36 v=127
4680 On ch=10 n=40 v=127
4680 On ch=10 n=44 v=105
4710 On ch=10 n=44 v=0
4710 On ch=10 n=44 v=82
4740 On ch=10 n=44 v=0
4740 On ch=10 n=40 v=0
4740 On ch=10 n=36 v=0
4740 On ch=10 n=42 v=105
4770 On ch=10 n=42 v=0
4770 On ch=10 n=44 v=100
4785 On ch=10 n=44 v=0
4800 On ch=10 n=36 v=127
4800 On ch=10 n=44 v=107
4830 On ch=10 n=44 v=0
4830 On ch=10 n=44 v=87
4860 On ch=10 n=44 v=0
4860 On ch=10 n=36 v=0
4860 On ch=10 n=42 v=105
4890 On ch=10 n=42 v=0
4890 On ch=10 n=44 v=100
4905 On ch=10 n=44 v=0
4920 On ch=10 n=36 v=127
4920 On ch=10 n=40 v=127
4920 On ch=10 n=44 v=113
4950 On ch=10 n=44 v=0
4950 On ch=10 n=44 v=87
4980 On ch=10 n=44 v=0
4980 On ch=10 n=40 v=0
4980 On ch=10 n=36 v=0
4980 On ch=10 n=42 v=102
5010 On ch=10 n=42 v=0
5010 On ch=10 n=44 v=100
5025 On ch=10 n=44 v=0
5040 On ch=10 n=36 v=127
5040 On ch=10 n=44 v=110
5070 On ch=10 n=44 v=0
5070 On ch=10 n=44 v=89
5100 On ch=10 n=44 v=0
5100 On ch=10 n=36 v=0
5100 On ch=10 n=42 v=105
5130 On ch=10 n=42 v=0
5130 On ch=10 n=44 v=100
5145 On ch=10 n=44 v=0
5160 On ch=10 n=40 v=127
5160 On ch=10 n=36 v=127
5160 On ch=10 n=44 v=110
5190 On ch=10 n=44 v=0
5190 On ch=10 n=44 v=91
5220 On ch=10 n=44 v=0
5220 On ch=10 n=36 v=0
5220 On ch=10 n=40 v=0
5220 On ch=10 n=42 v=107
5250 On ch=10 n=42 v=0
5250 On ch=10 n=44 v=100
5265 On ch=10 n=44 v=0
5280 On ch=10 n=36 v=122
5280 On ch=10 n=44 v=110
5310 On ch=10 n=44 v=0
5310 On ch=10 n=44 v=98
5340 On ch=10 n=44 v=0
5340 On ch=10 n=36 v=0
5340 On ch=10 n=42 v=110
5370 On ch=10 n=42 v=0
5370 On ch=10 n=44 v=100
5385 On ch=10 n=44 v=0
5400 On ch=10 n=40 v=122
5400 On ch=10 n=36 v=122
5400 On ch=10 n=44 v=107
5430 On ch=10 n=44 v=0
5430 On ch=10 n=44 v=93
5460 On ch=10 n=44 v=0
5460 On ch=10 n=36 v=0
5460 On ch=10 n=40 v=0
5460 On ch=10 n=42 v=110
5490 On ch=10 n=42 v=0
5490 On ch=10 n=44 v=100
5505 On ch=10 n=44 v=0
5520 On ch=10 n=36 v=127
5520 On ch=10 n=44 v=107
5550 On ch=10 n=44 v=0
5550 On ch=10 n=44 v=87
5580 On ch=10 n=44 v=0
5580 On ch=10 n=36 v=0
5580 On ch=10 n=42 v=105
5610 On ch=10 n=42 v=0
5610 On ch=10 n=44 v=100
5625 On ch=10 n=44 v=0
5640 On ch=10 n=40 v=127
5640 On ch=10 n=36 v=127
5640 On ch=10 n=44 v=102
5670 On ch=10 n=44 v=0
5670 On ch=10 n=44 v=85
5700 On ch=10 n=44 v=0
5700 On ch=10 n=36 v=0
5700 On ch=10 n=40 v=0
5700 On ch=10 n=42 v=102
5730 On ch=10 n=42 v=0
5730 On ch=10 n=44 v=100
5745 On ch=10 n=44 v=0
5760 On ch=10 n=36 v=127
5760 On ch=10 n=44 v=107
5790 On ch=10 n=44 v=0
5790 On ch=10 n=44 v=80
5820 On ch=10 n=44 v=0
5820 On ch=10 n=36 v=0
5820 On ch=10 n=42 v=102
5850 On ch=10 n=42 v=0
5850 On ch=10 n=44 v=100
5865 On ch=10 n=44 v=0
5880 On ch=10 n=36 v=127
5880 On ch=10 n=40 v=127
5880 On ch=10 n=44 v=113
5910 On ch=10 n=44 v=0
5910 On ch=10 n=44 v=80
5940 On ch=10 n=44 v=0
5940 On ch=10 n=40 v=0
5940 On ch=10 n=36 v=0
5940 On ch=10 n=42 v=98
5970 On ch=10 n=42 v=0
5970 On ch=10 n=44 v=100
5985 On ch=10 n=44 v=0
6000 On ch=10 n=36 v=122
6000 On ch=10 n=44 v=107
6030 On ch=10 n=44 v=0
6030 On ch=10 n=44 v=89
6060 On ch=10 n=44 v=0
6060 On ch=10 n=36 v=0
6060 On ch=10 n=42 v=107
6090 On ch=10 n=42 v=0
6090 On ch=10 n=44 v=100
6105 On ch=10 n=44 v=0
6120 On ch=10 n=36 v=127
6120 On ch=10 n=44 v=110
6120 On ch=10 n=40 v=116
6150 On ch=10 n=40 v=0
6150 On ch=10 n=44 v=0
6150 On ch=10 n=44 v=95
6180 On ch=10 n=44 v=0
6180 On ch=10 n=36 v=0
6180 On ch=10 n=42 v=116
6210 On ch=10 n=42 v=0
6210 On ch=10 n=44 v=100
6225 On ch=10 n=44 v=0
6240 On ch=10 n=36 v=127
6240 On ch=10 n=55 v=127
6240 On ch=10 n=44 v=116
6244 On ch=10 n=36 v=127
6264 On ch=10 n=36 v=0
6270 On ch=10 n=44 v=0
6270 On ch=10 n=44 v=100
6300 On ch=10 n=44 v=0
6300 On ch=10 n=36 v=0
6300 On ch=10 n=42 v=113
6330 On ch=10 n=42 v=0
6330 On ch=10 n=44 v=100
6345 On ch=10 n=44 v=0
6360 On ch=10 n=40 v=127
6360 On ch=10 n=36 v=127
6360 On ch=10 n=44 v=119
6362 On ch=10 n=55 v=0
6390 On ch=10 n=40 v=0
6390 On ch=10 n=44 v=0
6390 On ch=10 n=44 v=87
6420 On ch=10 n=44 v=0
6420 On ch=10 n=36 v=0
6420 On ch=10 n=42 v=113
6450 On ch=10 n=42 v=0
6450 On ch=10 n=44 v=100
6465 On ch=10 n=44 v=0
6480 On ch=10 n=36 v=127
6480 On ch=10 n=44 v=113
6510 On ch=10 n=44 v=0
6510 On ch=10 n=44 v=80
6540 On ch=10 n=44 v=0
6540 On ch=10 n=36 v=0
6540 On ch=10 n=42 v=107
6570 On ch=10 n=42 v=0
6570 On ch=10 n=44 v=100
6585 On ch=10 n=44 v=0
6600 On ch=10 n=36 v=127
6600 On ch=10 n=40 v=127
6600 On ch=10 n=44 v=110
6630 On ch=10 n=44 v=0
6630 On ch=10 n=44 v=72
6660 On ch=10 n=44 v=0
6660 On ch=10 n=40 v=0
6660 On ch=10 n=36 v=0
6660 On ch=10 n=42 v=113
6690 On ch=10 n=42 v=0
6690 On ch=10 n=44 v=100
6705 On ch=10 n=44 v=0
6720 On ch=10 n=36 v=127
6720 On ch=10 n=44 v=110
6750 On ch=10 n=44 v=0
6750 On ch=10 n=44 v=68
6780 On ch=10 n=44 v=0
6780 On ch=10 n=36 v=0
6780 On ch=10 n=42 v=102
6810 On ch=10 n=42 v=0
6810 On ch=10 n=44 v=100
6825 On ch=10 n=44 v=0
6840 On ch=10 n=36 v=127
6840 On ch=10 n=40 v=127
6840 On ch=10 n=44 v=116
6870 On ch=10 n=44 v=0
6870 On ch=10 n=44 v=70
6900 On ch=10 n=44 v=0
6900 On ch=10 n=40 v=0
6900 On ch=10 n=36 v=0
6900 On ch=10 n=42 v=102
6930 On ch=10 n=42 v=0
6930 On ch=10 n=44 v=100
6945 On ch=10 n=44 v=0
6960 On ch=10 n=36 v=127
6960 On ch=10 n=44 v=105
6990 On ch=10 n=44 v=0
6990 On ch=10 n=44 v=87
7020 On ch=10 n=44 v=0
7020 On ch=10 n=36 v=0
7020 On ch=10 n=42 v=105
7050 On ch=10 n=42 v=0
7050 On ch=10 n=44 v=100
7065 On ch=10 n=44 v=0
7080 On ch=10 n=36 v=127
7080 On ch=10 n=40 v=127
7080 On ch=10 n=44 v=107
7110 On ch=10 n=44 v=0
7110 On ch=10 n=44 v=95
7140 On ch=10 n=44 v=0
7140 On ch=10 n=40 v=0
7140 On ch=10 n=36 v=0
7140 On ch=10 n=42 v=107
7170 On ch=10 n=42 v=0
7170 On ch=10 n=44 v=100
7185 On ch=10 n=44 v=0
7200 On ch=10 n=36 v=127
7200 On ch=10 n=44 v=100
7230 On ch=10 n=44 v=0
7230 On ch=10 n=44 v=89
7260 On ch=10 n=44 v=0
7260 On ch=10 n=36 v=0
7260 On ch=10 n=42 v=105
7290 On ch=10 n=42 v=0
7290 On ch=10 n=44 v=100
7305 On ch=10 n=44 v=0
7320 On ch=10 n=36 v=127
7320 On ch=10 n=40 v=127
7320 On ch=10 n=44 v=113
7350 On ch=10 n=44 v=0
7350 On ch=10 n=44 v=80
7380 On ch=10 n=44 v=0
7380 On ch=10 n=40 v=0
7380 On ch=10 n=36 v=0
7380 On ch=10 n=42 v=87
7410 On ch=10 n=42 v=0
7410 On ch=10 n=44 v=100
7425 On ch=10 n=44 v=0
7440 On ch=10 n=36 v=127
7440 On ch=10 n=44 v=116
7470 On ch=10 n=44 v=0
7470 On ch=10 n=44 v=87
7500 On ch=10 n=44 v=0
7500 On ch=10 n=36 v=0
7500 On ch=10 n=42 v=95
7530 On ch=10 n=42 v=0
7530 On ch=10 n=44 v=100
7545 On ch=10 n=44 v=0
7560 On ch=10 n=40 v=122
7560 On ch=10 n=36 v=127
7560 On ch=10 n=44 v=107
7590 On ch=10 n=44 v=0
7590 On ch=10 n=44 v=85
7620 On ch=10 n=44 v=0
7620 On ch=10 n=36 v=0
7620 On ch=10 n=40 v=0
7620 On ch=10 n=42 v=107
7650 On ch=10 n=42 v=0
7650 On ch=10 n=44 v=100
7665 On ch=10 n=44 v=0
7680 On ch=10 n=36 v=127
7680 On ch=10 n=44 v=102
7710 On ch=10 n=44 v=0
7710 On ch=10 n=44 v=82
7740 On ch=10 n=44 v=0
7740 On ch=10 n=36 v=0
7740 On ch=10 n=42 v=110
7770 On ch=10 n=42 v=0
7770 On ch=10 n=44 v=100
7785 On ch=10 n=44 v=0
7800 On ch=10 n=36 v=122
7800 On ch=10 n=40 v=127
7800 On ch=10 n=44 v=100
7830 On ch=10 n=44 v=0
7830 On ch=10 n=44 v=82
7860 On ch=10 n=44 v=0
7860 On ch=10 n=40 v=0
7860 On ch=10 n=36 v=0
7860 On ch=10 n=42 v=100
7890 On ch=10 n=42 v=0
7890 On ch=10 n=44 v=100
7905 On ch=10 n=44 v=0
7920 On ch=10 n=36 v=127
7920 On ch=10 n=44 v=105
7950 On ch=10 n=44 v=0
7950 On ch=10 n=44 v=91
7980 On ch=10 n=44 v=0
7980 On ch=10 n=36 v=0
7980 On ch=10 n=42 v=105
8010 On ch=10 n=42 v=0
8010 On ch=10 n=44 v=100
8025 On ch=10 n=44 v=0
8040 On ch=10 n=40 v=127
8040 On ch=10 n=36 v=127
8040 On ch=10 n=44 v=107
8070 On ch=10 n=44 v=0
8070 On ch=10 n=44 v=89
8100 On ch=10 n=44 v=0
8100 On ch=10 n=36 v=0
8100 On ch=10 n=40 v=0
8100 On ch=10 n=42 v=113
8130 On ch=10 n=42 v=0
8130 On ch=10 n=40 v=100
8130 On ch=10 n=44 v=100
8145 On ch=10 n=44 v=0
8145 On ch=10 n=40 v=0
8160 On ch=10 n=36 v=127
8160 On ch=10 n=44 v=105
8190 On ch=10 n=44 v=0
8190 On ch=10 n=44 v=80
8220 On ch=10 n=44 v=0
8220 On ch=10 n=36 v=0
8220 On ch=10 n=42 v=102
8250 On ch=10 n=42 v=0
8250 On ch=10 n=44 v=100
8265 On ch=10 n=44 v=0
8280 On ch=10 n=36 v=127
8280 On ch=10 n=40 v=127
8280 On ch=10 n=44 v=105
8310 On ch=10 n=44 v=0
8310 On ch=10 n=36 v=0
8310 On ch=10 n=44 v=78
8340 On ch=10 n=44 v=0
8340 On ch=10 n=40 v=0
8340 On ch=10 n=42 v=102
8370 On ch=10 n=42 v=0
8370 On ch=10 n=44 v=100
8385 On ch=10 n=44 v=0
8400 On ch=10 n=36 v=127
8400 On ch=10 n=44 v=107
8430 On ch=10 n=44 v=0
8430 On ch=10 n=44 v=82
8460 On ch=10 n=44 v=0
8460 On ch=10 n=36 v=0
8460 On ch=10 n=42 v=105
8490 On ch=10 n=42 v=0
8490 On ch=10 n=44 v=100
8505 On ch=10 n=44 v=0
8520 On ch=10 n=36 v=127
8520 On ch=10 n=40 v=127
8520 On ch=10 n=44 v=105
8550 On ch=10 n=44 v=0
8550 On ch=10 n=44 v=82
8580 On ch=10 n=44 v=0
8580 On ch=10 n=40 v=0
8580 On ch=10 n=36 v=0
8580 On ch=10 n=42 v=105
8610 On ch=10 n=42 v=0
8610 On ch=10 n=44 v=100
8625 On ch=10 n=44 v=0
8640 On ch=10 n=36 v=127
8640 On ch=10 n=44 v=107
8670 On ch=10 n=44 v=0
8670 On ch=10 n=44 v=87
8700 On ch=10 n=44 v=0
8700 On ch=10 n=36 v=0
8700 On ch=10 n=42 v=105
8730 On ch=10 n=42 v=0
8730 On ch=10 n=44 v=100
8745 On ch=10 n=44 v=0
8760 On ch=10 n=36 v=127
8760 On ch=10 n=40 v=127
8760 On ch=10 n=44 v=113
8790 On ch=10 n=44 v=0
8790 On ch=10 n=44 v=87
8820 On ch=10 n=44 v=0
8820 On ch=10 n=40 v=0
8820 On ch=10 n=36 v=0
8820 On ch=10 n=42 v=102
8850 On ch=10 n=42 v=0
8850 On ch=10 n=44 v=100
8865 On ch=10 n=44 v=0
8880 On ch=10 n=36 v=127
8880 On ch=10 n=44 v=110
8910 On ch=10 n=44 v=0
8910 On ch=10 n=44 v=89
8940 On ch=10 n=44 v=0
8940 On ch=10 n=36 v=0
8940 On ch=10 n=42 v=105
8970 On ch=10 n=42 v=0
8970 On ch=10 n=44 v=100
8985 On ch=10 n=44 v=0
9000 On ch=10 n=40 v=127
9000 On ch=10 n=36 v=127
9000 On ch=10 n=44 v=110
9030 On ch=10 n=44 v=0
9030 On ch=10 n=44 v=91
9060 On ch=10 n=44 v=0
9060 On ch=10 n=36 v=0
9060 On ch=10 n=40 v=0
9060 On ch=10 n=42 v=107
9090 On ch=10 n=42 v=0
9090 On ch=10 n=44 v=100
9105 On ch=10 n=44 v=0
9120 On ch=10 n=36 v=122
9120 On ch=10 n=44 v=110
9150 On ch=10 n=44 v=0
9150 On ch=10 n=44 v=98
9180 On ch=10 n=44 v=0
9180 On ch=10 n=36 v=0
9180 On ch=10 n=42 v=110
9210 On ch=10 n=42 v=0
9210 On ch=10 n=44 v=100
9225 On ch=10 n=44 v=0
9240 On ch=10 n=40 v=122
9240 On ch=10 n=36 v=122
9240 On ch=10 n=44 v=107
9270 On ch=10 n=44 v=0
9270 On ch=10 n=44 v=93
9300 On ch=10 n=44 v=0
9300 On ch=10 n=36 v=0
9300 On ch=10 n=40 v=0
9300 On ch=10 n=42 v=110
9330 On ch=10 n=42 v=0
9330 On ch=10 n=44 v=100
9345 On ch=10 n=44 v=0
9360 On ch=10 n=36 v=127
9360 On ch=10 n=44 v=107
9390 On ch=10 n=44 v=0
9390 On ch=10 n=44 v=87
9420 On ch=10 n=44 v=0
9420 On ch=10 n=36 v=0
9420 On ch=10 n=42 v=105
9450 On ch=10 n=42 v=0
9450 On ch=10 n=44 v=100
9465 On ch=10 n=44 v=0
9480 On ch=10 n=40 v=127
9480 On ch=10 n=36 v=127
9480 On ch=10 n=44 v=102
9510 On ch=10 n=44 v=0
9510 On ch=10 n=44 v=85
9540 On ch=10 n=44 v=0
9540 On ch=10 n=36 v=0
9540 On ch=10 n=40 v=0
9540 On ch=10 n=42 v=102
9570 On ch=10 n=42 v=0
9570 On ch=10 n=44 v=100
9585 On ch=10 n=44 v=0
9600 On ch=10 n=36 v=127
9600 On ch=10 n=44 v=107
9630 On ch=10 n=44 v=0
9630 On ch=10 n=44 v=80
9660 On ch=10 n=44 v=0
9660 On ch=10 n=36 v=0
9660 On ch=10 n=42 v=102
9690 On ch=10 n=42 v=0
9690 On ch=10 n=44 v=100
9705 On ch=10 n=44 v=0
9720 On ch=10 n=36 v=127
9720 On ch=10 n=40 v=127
9720 On ch=10 n=44 v=113
9750 On ch=10 n=44 v=0
9750 On ch=10 n=44 v=80
9780 On ch=10 n=44 v=0
9780 On ch=10 n=40 v=0
9780 On ch=10 n=36 v=0
9780 On ch=10 n=42 v=98
9810 On ch=10 n=42 v=0
9810 On ch=10 n=44 v=100
9825 On ch=10 n=44 v=0
9840 On ch=10 n=36 v=122
9840 On ch=10 n=44 v=107
9870 On ch=10 n=44 v=0
9870 On ch=10 n=44 v=89
9900 On ch=10 n=44 v=0
9900 On ch=10 n=36 v=0
9900 On ch=10 n=42 v=107
9930 On ch=10 n=42 v=0
9930 On ch=10 n=44 v=100
9945 On ch=10 n=44 v=0
9960 On ch=10 n=40 v=100
9960 On ch=10 n=36 v=127
9960 On ch=10 n=44 v=110
9990 On ch=10 n=44 v=0
9990 On ch=10 n=40 v=0
9990 On ch=10 n=40 v=120
9990 On ch=10 n=44 v=95
10020 On ch=10 n=44 v=0
10020 On ch=10 n=40 v=0
10020 On ch=10 n=36 v=0
10020 On ch=10 n=40 v=120
10020 On ch=10 n=42 v=116
10050 On ch=10 n=42 v=0
10050 On ch=10 n=40 v=0
10050 On ch=10 n=44 v=100
10065 On ch=10 n=44 v=0
10078 On ch=10 n=57 v=127
10080 On ch=10 n=36 v=127
10080 On ch=10 n=44 v=116
10110 On ch=10 n=44 v=0
10110 On ch=10 n=36 v=0
10140 On ch=10 n=46 v=110
10168 On ch=10 n=57 v=0
10170 On ch=10 n=46 v=0
10200 On ch=10 n=36 v=127
10200 On ch=10 n=40 v=127
10200 On ch=10 n=44 v=102
10230 On ch=10 n=44 v=0
10260 On ch=10 n=40 v=0
10260 On ch=10 n=36 v=0
10260 On ch=10 n=46 v=113
10290 On ch=10 n=46 v=0
10320 On ch=10 n=36 v=127
10320 On ch=10 n=44 v=82
10350 On ch=10 n=44 v=0
10380 On ch=10 n=36 v=0
10380 On ch=10 n=46 v=107
10410 On ch=10 n=46 v=0
10440 On ch=10 n=36 v=122
10440 On ch=10 n=40 v=127
10440 On ch=10 n=44 v=87
10470 On ch=10 n=44 v=0
10500 On ch=10 n=40 v=0
10500 On ch=10 n=36 v=0
10500 On ch=10 n=46 v=105
10530 On ch=10 n=46 v=0
10560 On ch=10 n=36 v=127
10560 On ch=10 n=44 v=100
10590 On ch=10 n=44 v=0
10620 On ch=10 n=36 v=0
10620 On ch=10 n=46 v=102
10650 On ch=10 n=46 v=0
10680 On ch=10 n=36 v=127
10680 On ch=10 n=40 v=127
10680 On ch=10 n=44 v=87
10710 On ch=10 n=44 v=0
10740 On ch=10 n=40 v=0
10740 On ch=10 n=36 v=0
10740 On ch=10 n=46 v=102
10770 On ch=10 n=46 v=0
10800 On ch=10 n=36 v=127
10800 On ch=10 n=44 v=91
10830 On ch=10 n=44 v=0
10860 On ch=10 n=36 v=0
10860 On ch=10 n=46 v=102
10890 On ch=10 n=46 v=0
10920 On ch=10 n=40 v=127
10920 On ch=10 n=36 v=122
10920 On ch=10 n=44 v=100
10950 On ch=10 n=44 v=0
10950 On ch=10 n=40 v=0
10980 On ch=10 n=36 v=0
10980 On ch=10 n=46 v=105
11010 On ch=10 n=46 v=0
11040 On ch=10 n=36 v=127
11040 On ch=10 n=44 v=102
11070 On ch=10 n=44 v=0
11100 On ch=10 n=36 v=0
11100 On ch=10 n=46 v=102
11130 On ch=10 n=46 v=0
11160 On ch=10 n=36 v=127
11160 On ch=10 n=40 v=122
11160 On ch=10 n=44 v=100
11190 On ch=10 n=44 v=0
11220 On ch=10 n=40 v=0
11220 On ch=10 n=36 v=0
11220 On ch=10 n=46 v=110
11250 On ch=10 n=46 v=0
11280 On ch=10 n=36 v=127
11280 On ch=10 n=44 v=100
11310 On ch=10 n=44 v=0
11340 On ch=10 n=36 v=0
11340 On ch=10 n=46 v=107
11370 On ch=10 n=46 v=0
11400 On ch=10 n=36 v=127
11400 On ch=10 n=40 v=122
11400 On ch=10 n=44 v=105
11430 On ch=10 n=44 v=0
11460 On ch=10 n=40 v=0
11460 On ch=10 n=36 v=0
11460 On ch=10 n=46 v=107
11490 On ch=10 n=46 v=0
11520 On ch=10 n=36 v=127
11520 On ch=10 n=44 v=113
11550 On ch=10 n=44 v=0
11580 On ch=10 n=36 v=0
11580 On ch=10 n=46 v=102
11610 On ch=10 n=46 v=0
11640 On ch=10 n=40 v=127
11640 On ch=10 n=36 v=127
11640 On ch=10 n=44 v=113
11670 On ch=10 n=44 v=0
11700 On ch=10 n=36 v=0
11700 On ch=10 n=40 v=0
11700 On ch=10 n=46 v=105
11730 On ch=10 n=46 v=0
11760 On ch=10 n=36 v=127
11760 On ch=10 n=44 v=113
11790 On ch=10 n=44 v=0
11820 On ch=10 n=36 v=0
11820 On ch=10 n=46 v=116
11850 On ch=10 n=46 v=0
11880 On ch=10 n=36 v=127
11880 On ch=10 n=40 v=127
11880 On ch=10 n=44 v=127
11910 On ch=10 n=44 v=0
11910 On ch=10 n=40 v=0
11940 On ch=10 n=36 v=0
11940 On ch=10 n=46 v=119
11970 On ch=10 n=46 v=0
12000 On ch=10 n=36 v=127
12000 On ch=10 n=46 v=127
12005 On ch=10 n=55 v=127
12030 On ch=10 n=46 v=0
12030 On ch=10 n=36 v=0
12043 On ch=10 n=55 v=0
12180 On ch=10 n=40 v=127
12183 On ch=10 n=49 v=127
12200 On ch=10 n=49 v=0
12210 On ch=10 n=40 v=0
12298 On ch=10 n=55 v=95
12300 On ch=10 n=36 v=116
12314 On ch=10 n=55 v=0
12330 On ch=10 n=36 v=0
12360 On ch=10 n=36 v=127
12360 On ch=10 n=44 v=116
12365 On ch=10 n=57 v=127
12381 On ch=10 n=57 v=0
12390 On ch=10 n=44 v=0
12390 On ch=10 n=36 v=0
12480 On ch=10 n=40 v=100
12480 On ch=10 n=36 v=127
12480 On ch=10 n=44 v=122
12495 On ch=10 n=40 v=0
12510 On ch=10 n=44 v=0
12510 On ch=10 n=36 v=0
12510 On ch=10 n=40 v=100
12525 On ch=10 n=40 v=0
12540 On ch=10 n=40 v=100
12555 On ch=10 n=40 v=0
12570 On ch=10 n=40 v=100
12585 On ch=10 n=40 v=0
12600 On ch=10 n=44 v=122
12600 On ch=10 n=36 v=127
12630 On ch=10 n=44 v=0
12660 On ch=10 n=36 v=0
12660 On ch=10 n=40 v=100
12675 On ch=10 n=40 v=0
12690 On ch=10 n=40 v=100
12705 On ch=10 n=40 v=0
12720 On ch=10 n=40 v=100
12720 On ch=10 n=44 v=122
12720 On ch=10 n=36 v=127
12735 On ch=10 n=40 v=0
12750 On ch=10 n=40 v=100
12765 On ch=10 n=40 v=0
12840 On ch=10 n=36 v=0
12840 On ch=10 n=44 v=0
12840 On ch=10 n=40 v=127
12840 On ch=10 n=36 v=127
12840 On ch=10 n=44 v=127
12855 On ch=10 n=40 v=0
12870 On ch=10 n=44 v=0
12870 On ch=10 n=36 v=0
12900 On ch=10 n=40 v=127
12900 On ch=10 n=46 v=122
12915 On ch=10 n=40 v=0
12930 On ch=10 n=46 v=0
12960 On ch=10 n=36 v=127
12960 On ch=10 n=55 v=127
12960 On ch=10 n=44 v=116
12990 On ch=10 n=44 v=0
12990 On ch=10 n=44 v=100
13020 On ch=10 n=44 v=0
13020 On ch=10 n=36 v=0
13020 On ch=10 n=42 v=113
13050 On ch=10 n=42 v=0
13050 On ch=10 n=44 v=100
13065 On ch=10 n=44 v=0
13080 On ch=10 n=40 v=127
13080 On ch=10 n=36 v=127
13080 On ch=10 n=44 v=119
13082 On ch=10 n=55 v=0
13110 On ch=10 n=40 v=0
13110 On ch=10 n=44 v=0
13110 On ch=10 n=44 v=87
13140 On ch=10 n=44 v=0
13140 On ch=10 n=36 v=0
13140 On ch=10 n=42 v=113
13170 On ch=10 n=42 v=0
13170 On ch=10 n=44 v=100
13185 On ch=10 n=44 v=0
13200 On ch=10 n=36 v=127
13200 On ch=10 n=44 v=113
13230 On ch=10 n=44 v=0
13230 On ch=10 n=44 v=80
13260 On ch=10 n=44 v=0
13260 On ch=10 n=36 v=0
13260 On ch=10 n=42 v=107
13290 On ch=10 n=42 v=0
13290 On ch=10 n=44 v=100
13305 On ch=10 n=44 v=0
13320 On ch=10 n=36 v=127
13320 On ch=10 n=40 v=127
13320 On ch=10 n=44 v=110
13350 On ch=10 n=44 v=0
13350 On ch=10 n=44 v=72
13380 On ch=10 n=44 v=0
13380 On ch=10 n=40 v=0
13380 On ch=10 n=36 v=0
13380 On ch=10 n=42 v=113
13410 On ch=10 n=42 v=0
13410 On ch=10 n=44 v=100
13425 On ch=10 n=44 v=0
13440 On ch=10 n=36 v=127
13440 On ch=10 n=44 v=110
13470 On ch=10 n=44 v=0
13470 On ch=10 n=44 v=68
13500 On ch=10 n=44 v=0
13500 On ch=10 n=36 v=0
13500 On ch=10 n=42 v=102
13530 On ch=10 n=42 v=0
13530 On ch=10 n=44 v=100
13545 On ch=10 n=44 v=0
13560 On ch=10 n=36 v=127
13560 On ch=10 n=40 v=127
13560 On ch=10 n=44 v=116
13590 On ch=10 n=44 v=0
13590 On ch=10 n=44 v=70
13620 On ch=10 n=44 v=0
13620 On ch=10 n=40 v=0
13620 On ch=10 n=36 v=0
13620 On ch=10 n=42 v=102
13650 On ch=10 n=42 v=0
13650 On ch=10 n=44 v=100
13665 On ch=10 n=44 v=0
13680 On ch=10 n=36 v=127
13680 On ch=10 n=44 v=105
13710 On ch=10 n=44 v=0
13710 On ch=10 n=44 v=87
13740 On ch=10 n=44 v=0
13740 On ch=10 n=36 v=0
13740 On ch=10 n=42 v=105
13770 On ch=10 n=42 v=0
13770 On ch=10 n=44 v=100
13785 On ch=10 n=44 v=0
13800 On ch=10 n=36 v=127
13800 On ch=10 n=40 v=127
13800 On ch=10 n=44 v=107
13830 On ch=10 n=44 v=0
13830 On ch=10 n=44 v=95
13860 On ch=10 n=44 v=0
13860 On ch=10 n=40 v=0
13860 On ch=10 n=36 v=0
13860 On ch=10 n=42 v=107
13890 On ch=10 n=42 v=0
13890 On ch=10 n=44 v=100
13905 On ch=10 n=44 v=0
13920 On ch=10 n=36 v=127
13920 On ch=10 n=44 v=100
13950 On ch=10 n=44 v=0
13950 On ch=10 n=44 v=89
13980 On ch=10 n=44 v=0
13980 On ch=10 n=36 v=0
13980 On ch=10 n=42 v=105
14010 On ch=10 n=42 v=0
14010 On ch=10 n=44 v=100
14025 On ch=10 n=44 v=0
14040 On ch=10 n=36 v=127
14040 On ch=10 n=40 v=127
14040 On ch=10 n=44 v=113
14070 On ch=10 n=44 v=0
14070 On ch=10 n=44 v=80
14100 On ch=10 n=44 v=0
14100 On ch=10 n=40 v=0
14100 On ch=10 n=36 v=0
14100 On ch=10 n=42 v=87
14130 On ch=10 n=42 v=0
14130 On ch=10 n=44 v=100
14145 On ch=10 n=44 v=0
14160 On ch=10 n=36 v=127
14160 On ch=10 n=44 v=116
14190 On ch=10 n=44 v=0
14190 On ch=10 n=44 v=87
14220 On ch=10 n=44 v=0
14220 On ch=10 n=36 v=0
14220 On ch=10 n=42 v=95
14250 On ch=10 n=42 v=0
14250 On ch=10 n=44 v=100
14265 On ch=10 n=44 v=0
14280 On ch=10 n=40 v=122
14280 On ch=10 n=36 v=127
14280 On ch=10 n=44 v=107
14310 On ch=10 n=44 v=0
14310 On ch=10 n=44 v=85
14340 On ch=10 n=44 v=0
14340 On ch=10 n=36 v=0
14340 On ch=10 n=40 v=0
14340 On ch=10 n=42 v=107
14370 On ch=10 n=42 v=0
14370 On ch=10 n=44 v=100
14385 On ch=10 n=44 v=0
14400 On ch=10 n=36 v=127
14400 On ch=10 n=44 v=102
14430 On ch=10 n=44 v=0
14430 On ch=10 n=44 v=82
14460 On ch=10 n=44 v=0
14460 On ch=10 n=36 v=0
14460 On ch=10 n=42 v=110
14490 On ch=10 n=42 v=0
14490 On ch=10 n=44 v=100
14505 On ch=10 n=44 v=0
14520 On ch=10 n=36 v=122
14520 On ch=10 n=40 v=127
14520 On ch=10 n=44 v=100
14550 On ch=10 n=44 v=0
14550 On ch=10 n=44 v=82
14580 On ch=10 n=44 v=0
14580 On ch=10 n=40 v=0
14580 On ch=10 n=36 v=0
14580 On ch=10 n=42 v=100
14610 On ch=10 n=42 v=0
14610 On ch=10 n=44 v=100
14625 On ch=10 n=44 v=0
14640 On ch=10 n=36 v=127
14640 On ch=10 n=44 v=105
14670 On ch=10 n=44 v=0
14670 On ch=10 n=44 v=91
14700 On ch=10 n=44 v=0
14700 On ch=10 n=36 v=0
14700 On ch=10 n=42 v=105
14730 On ch=10 n=42 v=0
14730 On ch=10 n=44 v=100
14745 On ch=10 n=44 v=0
14760 On ch=10 n=40 v=127
14760 On ch=10 n=36 v=127
14760 On ch=10 n=44 v=107
14790 On ch=10 n=44 v=0
14790 On ch=10 n=44 v=89
14820 On ch=10 n=44 v=0
14820 On ch=10 n=36 v=0
14820 On ch=10 n=40 v=0
14820 On ch=10 n=42 v=113
14850 On ch=10 n=42 v=0
14850 On ch=10 n=44 v=100
14865 On ch=10 n=44 v=0
14880 On ch=10 n=36 v=127
14880 On ch=10 n=44 v=105
14910 On ch=10 n=44 v=0
14910 On ch=10 n=44 v=80
14940 On ch=10 n=44 v=0
14940 On ch=10 n=36 v=0
14940 On ch=10 n=42 v=102
14970 On ch=10 n=42 v=0
14970 On ch=10 n=44 v=100
14985 On ch=10 n=44 v=0
15000 On ch=10 n=36 v=127
15000 On ch=10 n=40 v=127
15000 On ch=10 n=44 v=105
15030 On ch=10 n=44 v=0
15030 On ch=10 n=36 v=0
15030 On ch=10 n=44 v=78
15060 On ch=10 n=44 v=0
15060 On ch=10 n=40 v=0
15060 On ch=10 n=42 v=102
15090 On ch=10 n=42 v=0
15090 On ch=10 n=44 v=100
15105 On ch=10 n=44 v=0
15120 On ch=10 n=36 v=127
15120 On ch=10 n=44 v=107
15150 On ch=10 n=44 v=0
15150 On ch=10 n=44 v=82
15180 On ch=10 n=44 v=0
15180 On ch=10 n=36 v=0
15180 On ch=10 n=42 v=105
15210 On ch=10 n=42 v=0
15210 On ch=10 n=44 v=100
15225 On ch=10 n=44 v=0
15240 On ch=10 n=36 v=127
15240 On ch=10 n=40 v=127
15240 On ch=10 n=44 v=105
15270 On ch=10 n=44 v=0
15270 On ch=10 n=44 v=82
15300 On ch=10 n=44 v=0
15300 On ch=10 n=40 v=0
15300 On ch=10 n=36 v=0
15300 On ch=10 n=42 v=105
15330 On ch=10 n=42 v=0
15330 On ch=10 n=44 v=100
15345 On ch=10 n=44 v=0
15360 On ch=10 n=36 v=127
15360 On ch=10 n=44 v=107
15390 On ch=10 n=44 v=0
15390 On ch=10 n=44 v=87
15420 On ch=10 n=44 v=0
15420 On ch=10 n=36 v=0
15420 On ch=10 n=42 v=105
15450 On ch=10 n=42 v=0
15450 On ch=10 n=44 v=100
15465 On ch=10 n=44 v=0
15480 On ch=10 n=36 v=127
15480 On ch=10 n=40 v=127
15480 On ch=10 n=44 v=113
15510 On ch=10 n=44 v=0
15510 On ch=10 n=44 v=87
15540 On ch=10 n=44 v=0
15540 On ch=10 n=40 v=0
15540 On ch=10 n=36 v=0
15540 On ch=10 n=42 v=102
15570 On ch=10 n=42 v=0
15570 On ch=10 n=44 v=100
15585 On ch=10 n=44 v=0
15600 On ch=10 n=36 v=127
15600 On ch=10 n=44 v=110
15630 On ch=10 n=44 v=0
15630 On ch=10 n=44 v=89
15660 On ch=10 n=44 v=0
15660 On ch=10 n=36 v=0
15660 On ch=10 n=42 v=105
15690 On ch=10 n=42 v=0
15690 On ch=10 n=44 v=100
15705 On ch=10 n=44 v=0
15720 On ch=10 n=40 v=127
15720 On ch=10 n=36 v=127
15720 On ch=10 n=44 v=110
15750 On ch=10 n=44 v=0
15750 On ch=10 n=44 v=91
15780 On ch=10 n=44 v=0
15780 On ch=10 n=36 v=0
15780 On ch=10 n=40 v=0
15780 On ch=10 n=42 v=107
15810 On ch=10 n=42 v=0
15810 On ch=10 n=44 v=100
15825 On ch=10 n=44 v=0
15840 On ch=10 n=36 v=122
15840 On ch=10 n=44 v=110
15870 On ch=10 n=44 v=0
15870 On ch=10 n=44 v=98
15900 On ch=10 n=44 v=0
15900 On ch=10 n=36 v=0
15900 On ch=10 n=42 v=110
15930 On ch=10 n=42 v=0
15930 On ch=10 n=44 v=100
15945 On ch=10 n=44 v=0
15960 On ch=10 n=40 v=122
15960 On ch=10 n=36 v=122
15960 On ch=10 n=44 v=107
15990 On ch=10 n=44 v=0
15990 On ch=10 n=44 v=93
16020 On ch=10 n=44 v=0
16020 On ch=10 n=36 v=0
16020 On ch=10 n=40 v=0
16020 On ch=10 n=42 v=110
16050 On ch=10 n=42 v=0
16050 On ch=10 n=44 v=100
16065 On ch=10 n=44 v=0
16080 On ch=10 n=36 v=127
16080 On ch=10 n=44 v=107
16110 On ch=10 n=44 v=0
16110 On ch=10 n=44 v=87
16140 On ch=10 n=44 v=0
16140 On ch=10 n=36 v=0
16140 On ch=10 n=42 v=105
16170 On ch=10 n=42 v=0
16170 On ch=10 n=44 v=100
16185 On ch=10 n=44 v=0
16200 On ch=10 n=40 v=127
16200 On ch=10 n=36 v=127
16200 On ch=10 n=44 v=102
16230 On ch=10 n=44 v=0
16230 On ch=10 n=44 v=85
16260 On ch=10 n=44 v=0
16260 On ch=10 n=36 v=0
16260 On ch=10 n=40 v=0
16260 On ch=10 n=42 v=102
16290 On ch=10 n=42 v=0
16290 On ch=10 n=44 v=100
16305 On ch=10 n=44 v=0
16320 On ch=10 n=36 v=127
16320 On ch=10 n=44 v=107
16350 On ch=10 n=44 v=0
16350 On ch=10 n=44 v=80
16380 On ch=10 n=44 v=0
16380 On ch=10 n=36 v=0
16380 On ch=10 n=42 v=102
16410 On ch=10 n=42 v=0
16410 On ch=10 n=44 v=100
16425 On ch=10 n=44 v=0
16440 On ch=10 n=36 v=127
16440 On ch=10 n=40 v=127
16440 On ch=10 n=44 v=113
16470 On ch=10 n=44 v=0
16470 On ch=10 n=44 v=80
16500 On ch=10 n=44 v=0
16500 On ch=10 n=40 v=0
16500 On ch=10 n=36 v=0
16500 On ch=10 n=42 v=98
16530 On ch=10 n=42 v=0
16530 On ch=10 n=44 v=100
16545 On ch=10 n=44 v=0
16560 On ch=10 n=36 v=122
16560 On ch=10 n=44 v=107
16590 On ch=10 n=44 v=0
16590 On ch=10 n=44 v=89
16620 On ch=10 n=44 v=0
16620 On ch=10 n=36 v=0
16620 On ch=10 n=42 v=107
16650 On ch=10 n=42 v=0
16650 On ch=10 n=44 v=100
16665 On ch=10 n=44 v=0
16680 On ch=10 n=36 v=127
16680 On ch=10 n=44 v=110
16680 On ch=10 n=40 v=116
16710 On ch=10 n=40 v=0
16710 On ch=10 n=44 v=0
16710 On ch=10 n=44 v=95
16740 On ch=10 n=44 v=0
16740 On ch=10 n=36 v=0
16740 On ch=10 n=42 v=116
16770 On ch=10 n=42 v=0
16770 On ch=10 n=44 v=100
16785 On ch=10 n=44 v=0
16800 On ch=10 n=44 v=113
16800 On ch=10 n=36 v=127
16830 On ch=10 n=44 v=0
16860 On ch=10 n=36 v=0
16860 On ch=10 n=44 v=113
16890 On ch=10 n=44 v=0
16920 On ch=10 n=44 v=122
16920 On ch=10 n=36 v=119
16920 On ch=10 n=40 v=127
16950 On ch=10 n=40 v=0
16950 On ch=10 n=44 v=0
16980 On ch=10 n=36 v=0
16980 On ch=10 n=46 v=127
17010 On ch=10 n=46 v=0
17040 On ch=10 n=44 v=122
17040 On ch=10 n=36 v=122
17070 On ch=10 n=44 v=0
17100 On ch=10 n=36 v=0
17100 On ch=10 n=44 v=116
17130 On ch=10 n=44 v=0
17160 On ch=10 n=44 v=122
17160 On ch=10 n=40 v=127
17160 On ch=10 n=36 v=122
17190 On ch=10 n=44 v=0
17220 On ch=10 n=36 v=0
17220 On ch=10 n=40 v=0
17220 On ch=10 n=46 v=122
17250 On ch=10 n=46 v=0
17280 On ch=10 n=44 v=119
17280 On ch=10 n=36 v=122
17310 On ch=10 n=44 v=0
17340 On ch=10 n=36 v=0
17340 On ch=10 n=44 v=116
17370 On ch=10 n=44 v=0
17400 On ch=10 n=44 v=122
17400 On ch=10 n=40 v=127
17400 On ch=10 n=36 v=119
17430 On ch=10 n=44 v=0
17460 On ch=10 n=36 v=0
17460 On ch=10 n=40 v=0
17460 On ch=10 n=46 v=127
17490 On ch=10 n=46 v=0
17520 On ch=10 n=44 v=116
17520 On ch=10 n=36 v=122
17550 On ch=10 n=44 v=0
17580 On ch=10 n=36 v=0
17580 On ch=10 n=44 v=119
17610 On ch=10 n=44 v=0
17640 On ch=10 n=44 v=122
17640 On ch=10 n=40 v=127
17640 On ch=10 n=36 v=119
17670 On ch=10 n=44 v=0
17700 On ch=10 n=36 v=0
17700 On ch=10 n=40 v=0
17700 On ch=10 n=46 v=122
17730 On ch=10 n=46 v=0
17760 On ch=10 n=44 v=119
17760 On ch=10 n=36 v=127
17790 On ch=10 n=44 v=0
17820 On ch=10 n=36 v=0
17820 On ch=10 n=44 v=119
17850 On ch=10 n=44 v=0
17880 On ch=10 n=44 v=119
17880 On ch=10 n=40 v=127
17880 On ch=10 n=36 v=119
17910 On ch=10 n=44 v=0
17940 On ch=10 n=36 v=0
17940 On ch=10 n=40 v=0
17940 On ch=10 n=46 v=122
17970 On ch=10 n=46 v=0
18000 On ch=10 n=44 v=116
18000 On ch=10 n=36 v=127
18030 On ch=10 n=44 v=0
18060 On ch=10 n=36 v=0
18060 On ch=10 n=44 v=119
18090 On ch=10 n=44 v=0
18120 On ch=10 n=44 v=122
18120 On ch=10 n=40 v=127
18120 On ch=10 n=36 v=122
18150 On ch=10 n=36 v=0
18150 On ch=10 n=40 v=0
18150 On ch=10 n=44 v=0
18180 On ch=10 n=46 v=119
18210 On ch=10 n=46 v=0
18240 On ch=10 n=44 v=116
18240 On ch=10 n=36 v=119
18270 On ch=10 n=44 v=0
18300 On ch=10 n=36 v=0
18300 On ch=10 n=44 v=119
18330 On ch=10 n=44 v=0
18360 On ch=10 n=44 v=122
18360 On ch=10 n=40 v=127
18360 On ch=10 n=36 v=122
18390 On ch=10 n=36 v=0
18390 On ch=10 n=40 v=0
18390 On ch=10 n=44 v=0
18420 On ch=10 n=46 v=122
18450 On ch=10 n=46 v=0
18480 On ch=10 n=44 v=122
18480 On ch=10 n=36 v=119
18510 On ch=10 n=44 v=0
18540 On ch=10 n=36 v=0
18540 On ch=10 n=44 v=127
18570 On ch=10 n=44 v=0
18600 On ch=10 n=44 v=119
18600 On ch=10 n=40 v=127
18600 On ch=10 n=36 v=127
18630 On ch=10 n=44 v=0
18630 On ch=10 n=40 v=127
18645 On ch=10 n=40 v=0
18660 On ch=10 n=40 v=0
18660 On ch=10 n=36 v=0
18660 On ch=10 n=40 v=127
18660 On ch=10 n=44 v=127
18675 On ch=10 n=40 v=0
18690 On ch=10 n=44 v=0
18720 On ch=10 n=40 v=100
18720 On ch=10 n=36 v=127
18735 On ch=10 n=40 v=0
18750 On ch=10 n=36 v=0
18750 On ch=10 n=40 v=100
18765 On ch=10 n=40 v=0
18780 On ch=10 n=40 v=100
18795 On ch=10 n=40 v=0
18810 On ch=10 n=40 v=100
18825 On ch=10 n=40 v=0
18840 On ch=10 n=36 v=122
18870 On ch=10 n=36 v=0
18900 On ch=10 n=40 v=100
18915 On ch=10 n=40 v=0
18930 On ch=10 n=40 v=100
18945 On ch=10 n=40 v=0
18960 On ch=10 n=40 v=100
18960 On ch=10 n=36 v=110
18975 On ch=10 n=40 v=0
18990 On ch=10 n=36 v=0
18990 On ch=10 n=40 v=100
19005 On ch=10 n=40 v=0
19080 On ch=10 n=36 v=113
19110 On ch=10 n=36 v=0
19200 On ch=10 n=40 v=100
19200 On ch=10 n=36 v=116
19215 On ch=10 n=40 v=0
19230 On ch=10 n=40 v=100
19245 On ch=10 n=40 v=0
19260 On ch=10 n=36 v=0
19260 On ch=10 n=40 v=100
19275 On ch=10 n=40 v=0
19290 On ch=10 n=40 v=100
19305 On ch=10 n=40 v=0
19320 On ch=10 n=36 v=119
19380 On ch=10 n=36 v=0
19380 On ch=10 n=40 v=100
19395 On ch=10 n=40 v=0
19410 On ch=10 n=40 v=100
19425 On ch=10 n=40 v=0
19440 On ch=10 n=36 v=127
19440 On ch=10 n=40 v=100
19455 On ch=10 n=40 v=0
19470 On ch=10 n=40 v=100
19485 On ch=10 n=40 v=0
19500 On ch=10 n=36 v=0
19560 On ch=10 n=44 v=110
19560 On ch=10 n=36 v=127
19560 On ch=10 n=40 v=127
19590 On ch=10 n=40 v=0
19590 On ch=10 n=36 v=0
19590 On ch=10 n=44 v=0
19620 On ch=10 n=46 v=102
19620 On ch=10 n=40 v=122
19650 On ch=10 n=40 v=0
19650 On ch=10 n=46 v=0
19680 On ch=10 n=36 v=127
19680 On ch=10 n=55 v=127
19680 On ch=10 n=44 v=116
19684 On ch=10 n=36 v=127
19704 On ch=10 n=36 v=0
19710 On ch=10 n=44 v=0
19710 On ch=10 n=44 v=100
19740 On ch=10 n=44 v=0
19740 On ch=10 n=36 v=0
19740 On ch=10 n=42 v=113
19770 On ch=10 n=42 v=0
19770 On ch=10 n=44 v=100
19785 On ch=10 n=44 v=0
19800 On ch=10 n=40 v=127
19800 On ch=10 n=36 v=127
19800 On ch=10 n=44 v=119
19802 On ch=10 n=55 v=0
19830 On ch=10 n=40 v=0
19830 On ch=10 n=44 v=0
19830 On ch=10 n=44 v=87
19860 On ch=10 n=44 v=0
19860 On ch=10 n=36 v=0
19860 On ch=10 n=42 v=113
19890 On ch=10 n=42 v=0
19890 On ch=10 n=44 v=100
19905 On ch=10 n=44 v=0
19920 On ch=10 n=36 v=127
19920 On ch=10 n=44 v=113
19950 On ch=10 n=44 v=0
19950 On ch=10 n=44 v=80
19980 On ch=10 n=44 v=0
19980 On ch=10 n=36 v=0
19980 On ch=10 n=42 v=107
20010 On ch=10 n=42 v=0
20010 On ch=10 n=44 v=100
20025 On ch=10 n=44 v=0
20040 On ch=10 n=36 v=127
20040 On ch=10 n=40 v=127
20040 On ch=10 n=44 v=110
20070 On ch=10 n=44 v=0
20070 On ch=10 n=44 v=72
20100 On ch=10 n=44 v=0
20100 On ch=10 n=40 v=0
20100 On ch=10 n=36 v=0
20100 On ch=10 n=42 v=113
20130 On ch=10 n=42 v=0
20130 On ch=10 n=44 v=100
20145 On ch=10 n=44 v=0
20160 On ch=10 n=36 v=127
20160 On ch=10 n=44 v=110
20190 On ch=10 n=44 v=0
20190 On ch=10 n=44 v=68
20220 On ch=10 n=44 v=0
20220 On ch=10 n=36 v=0
20220 On ch=10 n=42 v=102
20250 On ch=10 n=42 v=0
20250 On ch=10 n=44 v=100
20265 On ch=10 n=44 v=0
20280 On ch=10 n=36 v=127
20280 On ch=10 n=40 v=127
20280 On ch=10 n=44 v=116
20310 On ch=10 n=44 v=0
20310 On ch=10 n=44 v=70
20340 On ch=10 n=44 v=0
20340 On ch=10 n=40 v=0
20340 On ch=10 n=36 v=0
20340 On ch=10 n=42 v=102
20370 On ch=10 n=42 v=0
20370 On ch=10 n=44 v=100
20385 On ch=10 n=44 v=0
20400 On ch=10 n=36 v=127
20400 On ch=10 n=44 v=105
20430 On ch=10 n=44 v=0
20430 On ch=10 n=44 v=87
20460 On ch=10 n=44 v=0
20460 On ch=10 n=36 v=0
20460 On ch=10 n=42 v=105
20490 On ch=10 n=42 v=0
20490 On ch=10 n=44 v=100
20505 On ch=10 n=44 v=0
20520 On ch=10 n=36 v=127
20520 On ch=10 n=40 v=127
20520 On ch=10 n=44 v=107
20550 On ch=10 n=44 v=0
20550 On ch=10 n=44 v=95
20580 On ch=10 n=44 v=0
20580 On ch=10 n=40 v=0
20580 On ch=10 n=36 v=0
20580 On ch=10 n=42 v=107
20610 On ch=10 n=42 v=0
20610 On ch=10 n=44 v=100
20625 On ch=10 n=44 v=0
20640 On ch=10 n=36 v=127
20640 On ch=10 n=44 v=100
20670 On ch=10 n=44 v=0
20670 On ch=10 n=44 v=89
20700 On ch=10 n=44 v=0
20700 On ch=10 n=36 v=0
20700 On ch=10 n=42 v=105
20730 On ch=10 n=42 v=0
20730 On ch=10 n=44 v=100
20745 On ch=10 n=44 v=0
20760 On ch=10 n=36 v=127
20760 On ch=10 n=40 v=127
20760 On ch=10 n=44 v=113
20790 On ch=10 n=44 v=0
20790 On ch=10 n=44 v=80
20820 On ch=10 n=44 v=0
20820 On ch=10 n=40 v=0
20820 On ch=10 n=36 v=0
20820 On ch=10 n=42 v=87
20850 On ch=10 n=42 v=0
20850 On ch=10 n=44 v=100
20865 On ch=10 n=44 v=0
20880 On ch=10 n=36 v=127
20880 On ch=10 n=44 v=116
20910 On ch=10 n=44 v=0
20910 On ch=10 n=44 v=87
20940 On ch=10 n=44 v=0
20940 On ch=10 n=36 v=0
20940 On ch=10 n=42 v=95
20970 On ch=10 n=42 v=0
20970 On ch=10 n=44 v=100
20985 On ch=10 n=44 v=0
21000 On ch=10 n=40 v=122
21000 On ch=10 n=36 v=127
21000 On ch=10 n=44 v=107
21030 On ch=10 n=44 v=0
21030 On ch=10 n=44 v=85
21060 On ch=10 n=44 v=0
21060 On ch=10 n=36 v=0
21060 On ch=10 n=40 v=0
21060 On ch=10 n=42 v=107
21090 On ch=10 n=42 v=0
21090 On ch=10 n=44 v=100
21105 On ch=10 n=44 v=0
21120 On ch=10 n=36 v=127
21120 On ch=10 n=44 v=102
21150 On ch=10 n=44 v=0
21150 On ch=10 n=44 v=82
21180 On ch=10 n=44 v=0
21180 On ch=10 n=36 v=0
21180 On ch=10 n=42 v=110
21210 On ch=10 n=42 v=0
21210 On ch=10 n=44 v=100
21225 On ch=10 n=44 v=0
21240 On ch=10 n=36 v=122
21240 On ch=10 n=40 v=127
21240 On ch=10 n=44 v=100
21270 On ch=10 n=44 v=0
21270 On ch=10 n=44 v=82
21300 On ch=10 n=44 v=0
21300 On ch=10 n=40 v=0
21300 On ch=10 n=36 v=0
21300 On ch=10 n=42 v=100
21330 On ch=10 n=42 v=0
21330 On ch=10 n=44 v=100
21345 On ch=10 n=44 v=0
21360 On ch=10 n=36 v=127
21360 On ch=10 n=44 v=105
21390 On ch=10 n=44 v=0
21390 On ch=10 n=44 v=91
21420 On ch=10 n=44 v=0
21420 On ch=10 n=36 v=0
21420 On ch=10 n=42 v=105
21450 On ch=10 n=42 v=0
21450 On ch=10 n=44 v=100
21465 On ch=10 n=44 v=0
21480 On ch=10 n=40 v=127
21480 On ch=10 n=36 v=127
21480 On ch=10 n=44 v=107
21510 On ch=10 n=44 v=0
21510 On ch=10 n=44 v=89
21540 On ch=10 n=44 v=0
21540 On ch=10 n=36 v=0
21540 On ch=10 n=40 v=0
21540 On ch=10 n=42 v=113
21570 On ch=10 n=42 v=0
21570 On ch=10 n=40 v=100
21570 On ch=10 n=44 v=100
21585 On ch=10 n=44 v=0
21585 On ch=10 n=40 v=0
21600 On ch=10 n=36 v=127
21600 On ch=10 n=44 v=105
21630 On ch=10 n=44 v=0
21630 On ch=10 n=44 v=80
21660 On ch=10 n=44 v=0
21660 On ch=10 n=36 v=0
21660 On ch=10 n=42 v=102
21690 On ch=10 n=42 v=0
21690 On ch=10 n=44 v=100
21705 On ch=10 n=44 v=0
21720 On ch=10 n=36 v=127
21720 On ch=10 n=40 v=127
21720 On ch=10 n=44 v=105
21750 On ch=10 n=44 v=0
21750 On ch=10 n=36 v=0
21750 On ch=10 n=44 v=78
21780 On ch=10 n=44 v=0
21780 On ch=10 n=40 v=0
21780 On ch=10 n=42 v=102
21810 On ch=10 n=42 v=0
21810 On ch=10 n=44 v=100
21825 On ch=10 n=44 v=0
21840 On ch=10 n=36 v=127
21840 On ch=10 n=44 v=107
21870 On ch=10 n=44 v=0
21870 On ch=10 n=44 v=82
21900 On ch=10 n=44 v=0
21900 On ch=10 n=36 v=0
21900 On ch=10 n=42 v=105
21930 On ch=10 n=42 v=0
21930 On ch=10 n=44 v=100
21945 On ch=10 n=44 v=0
21960 On ch=10 n=36 v=127
21960 On ch=10 n=40 v=127
21960 On ch=10 n=44 v=105
21990 On ch=10 n=44 v=0
21990 On ch=10 n=44 v=82
22020 On ch=10 n=44 v=0
22020 On ch=10 n=40 v=0
22020 On ch=10 n=36 v=0
22020 On ch=10 n=42 v=105
22050 On ch=10 n=42 v=0
22050 On ch=10 n=44 v=100
22065 On ch=10 n=44 v=0
22080 On ch=10 n=36 v=127
22080 On ch=10 n=44 v=107
22110 On ch=10 n=44 v=0
22110 On ch=10 n=44 v=87
22140 On ch=10 n=44 v=0
22140 On ch=10 n=36 v=0
22140 On ch=10 n=42 v=105
22170 On ch=10 n=42 v=0
22170 On ch=10 n=44 v=100
22185 On ch=10 n=44 v=0
22200 On ch=10 n=36 v=127
22200 On ch=10 n=40 v=127
22200 On ch=10 n=44 v=113
22230 On ch=10 n=44 v=0
22230 On ch=10 n=44 v=87
22260 On ch=10 n=44 v=0
22260 On ch=10 n=40 v=0
22260 On ch=10 n=36 v=0
22260 On ch=10 n=42 v=102
22290 On ch=10 n=42 v=0
22290 On ch=10 n=44 v=100
22305 On ch=10 n=44 v=0
22320 On ch=10 n=36 v=127
22320 On ch=10 n=44 v=110
22350 On ch=10 n=44 v=0
22350 On ch=10 n=44 v=89
22380 On ch=10 n=44 v=0
22380 On ch=10 n=36 v=0
22380 On ch=10 n=42 v=105
22410 On ch=10 n=42 v=0
22410 On ch=10 n=44 v=100
22425 On ch=10 n=44 v=0
22440 On ch=10 n=40 v=127
22440 On ch=10 n=36 v=127
22440 On ch=10 n=44 v=110
22470 On ch=10 n=44 v=0
22470 On ch=10 n=44 v=91
22500 On ch=10 n=44 v=0
22500 On ch=10 n=36 v=0
22500 On ch=10 n=40 v=0
22500 On ch=10 n=42 v=107
22530 On ch=10 n=42 v=0
22530 On ch=10 n=44 v=100
22545 On ch=10 n=44 v=0
22560 On ch=10 n=36 v=122
22560 On ch=10 n=44 v=110
22590 On ch=10 n=44 v=0
22590 On ch=10 n=44 v=98
22620 On ch=10 n=44 v=0
22620 On ch=10 n=36 v=0
22620 On ch=10 n=42 v=110
22650 On ch=10 n=42 v=0
22650 On ch=10 n=44 v=100
22665 On ch=10 n=44 v=0
22680 On ch=10 n=40 v=122
22680 On ch=10 n=36 v=122
22680 On ch=10 n=44 v=107
22710 On ch=10 n=44 v=0
22710 On ch=10 n=44 v=93
22740 On ch=10 n=44 v=0
22740 On ch=10 n=36 v=0
22740 On ch=10 n=40 v=0
22740 On ch=10 n=42 v=110
22770 On ch=10 n=42 v=0
22770 On ch=10 n=44 v=100
22785 On ch=10 n=44 v=0
22800 On ch=10 n=36 v=127
22800 On ch=10 n=44 v=107
22830 On ch=10 n=44 v=0
22830 On ch=10 n=44 v=87
22860 On ch=10 n=44 v=0
22860 On ch=10 n=36 v=0
22860 On ch=10 n=42 v=105
22890 On ch=10 n=42 v=0
22890 On ch=10 n=44 v=100
22905 On ch=10 n=44 v=0
22920 On ch=10 n=40 v=127
22920 On ch=10 n=36 v=127
22920 On ch=10 n=44 v=102
22950 On ch=10 n=44 v=0
22950 On ch=10 n=44 v=85
22980 On ch=10 n=44 v=0
22980 On ch=10 n=36 v=0
22980 On ch=10 n=40 v=0
22980 On ch=10 n=42 v=102
23010 On ch=10 n=42 v=0
23010 On ch=10 n=44 v=100
23025 On ch=10 n=44 v=0
23040 On ch=10 n=36 v=127
23040 On ch=10 n=44 v=107
23070 On ch=10 n=44 v=0
23070 On ch=10 n=44 v=80
23100 On ch=10 n=44 v=0
23100 On ch=10 n=36 v=0
23100 On ch=10 n=42 v=102
23130 On ch=10 n=42 v=0
23130 On ch=10 n=44 v=100
23145 On ch=10 n=44 v=0
23160 On ch=10 n=36 v=127
23160 On ch=10 n=40 v=127
23160 On ch=10 n=44 v=113
23190 On ch=10 n=44 v=0
23190 On ch=10 n=44 v=80
23220 On ch=10 n=44 v=0
23220 On ch=10 n=40 v=0
23220 On ch=10 n=36 v=0
23220 On ch=10 n=42 v=98
23250 On ch=10 n=42 v=0
23250 On ch=10 n=44 v=100
23265 On ch=10 n=44 v=0
23280 On ch=10 n=36 v=122
23280 On ch=10 n=44 v=107
23310 On ch=10 n=44 v=0
23310 On ch=10 n=44 v=89
23340 On ch=10 n=44 v=0
23340 On ch=10 n=36 v=0
23340 On ch=10 n=42 v=107
23370 On ch=10 n=42 v=0
23370 On ch=10 n=44 v=100
23385 On ch=10 n=44 v=0
23400 On ch=10 n=40 v=100
23400 On ch=10 n=36 v=127
23400 On ch=10 n=44 v=110
23430 On ch=10 n=44 v=0
23430 On ch=10 n=40 v=0
23430 On ch=10 n=40 v=120
23430 On ch=10 n=44 v=95
23460 On ch=10 n=44 v=0
23460 On ch=10 n=40 v=0
23460 On ch=10 n=36 v=0
23460 On ch=10 n=40 v=120
23460 On ch=10 n=42 v=116
23490 On ch=10 n=42 v=0
23490 On ch=10 n=40 v=0
23490 On ch=10 n=44 v=100
23505 On ch=10 n=44 v=0
23518 On ch=10 n=57 v=127
23520 On ch=10 n=36 v=127
23520 On ch=10 n=44 v=116
23550 On ch=10 n=44 v=0
23550 On ch=10 n=36 v=0
23580 On ch=10 n=46 v=110
23608 On ch=10 n=57 v=0
23610 On ch=10 n=46 v=0
23640 On ch=10 n=36 v=127
23640 On ch=10 n=40 v=127
23640 On ch=10 n=44 v=102
23670 On ch=10 n=44 v=0
23700 On ch=10 n=40 v=0
23700 On ch=10 n=36 v=0
23700 On ch=10 n=46 v=113
23730 On ch=10 n=46 v=0
23760 On ch=10 n=36 v=127
23760 On ch=10 n=44 v=82
23790 On ch=10 n=44 v=0
23820 On ch=10 n=36 v=0
23820 On ch=10 n=46 v=107
23850 On ch=10 n=46 v=0
23880 On ch=10 n=36 v=122
23880 On ch=10 n=40 v=127
23880 On ch=10 n=44 v=87
23910 On ch=10 n=44 v=0
23940 On ch=10 n=40 v=0
23940 On ch=10 n=36 v=0
23940 On ch=10 n=46 v=105
23970 On ch=10 n=46 v=0
24000 On ch=10 n=36 v=127
24000 On ch=10 n=44 v=100
24030 On ch=10 n=44 v=0
24060 On ch=10 n=36 v=0
24060 On ch=10 n=46 v=102
24090 On ch=10 n=46 v=0
24120 On ch=10 n=36 v=127
24120 On ch=10 n=40 v=127
24120 On ch=10 n=44 v=87
24150 On ch=10 n=44 v=0
24180 On ch=10 n=40 v=0
24180 On ch=10 n=36 v=0
24180 On ch=10 n=46 v=102
24210 On ch=10 n=46 v=0
24240 On ch=10 n=36 v=127
24240 On ch=10 n=44 v=91
24270 On ch=10 n=44 v=0
24300 On ch=10 n=36 v=0
24300 On ch=10 n=46 v=102
24330 On ch=10 n=46 v=0
24360 On ch=10 n=40 v=127
24360 On ch=10 n=36 v=122
24360 On ch=10 n=44 v=100
24390 On ch=10 n=44 v=0
24390 On ch=10 n=40 v=0
24420 On ch=10 n=36 v=0
24420 On ch=10 n=46 v=105
24450 On ch=10 n=46 v=0
24480 On ch=10 n=36 v=127
24480 On ch=10 n=44 v=102
24510 On ch=10 n=44 v=0
24540 On ch=10 n=36 v=0
24540 On ch=10 n=46 v=102
24570 On ch=10 n=46 v=0
24600 On ch=10 n=36 v=127
24600 On ch=10 n=40 v=122
24600 On ch=10 n=44 v=100
24630 On ch=10 n=44 v=0
24660 On ch=10 n=40 v=0
24660 On ch=10 n=36 v=0
24660 On ch=10 n=46 v=110
24690 On ch=10 n=46 v=0
24720 On ch=10 n=36 v=127
24720 On ch=10 n=44 v=100
24750 On ch=10 n=44 v=0
24780 On ch=10 n=36 v=0
24780 On ch=10 n=46 v=107
24810 On ch=10 n=46 v=0
24840 On ch=10 n=36 v=127
24840 On ch=10 n=40 v=122
24840 On ch=10 n=44 v=105
24870 On ch=10 n=44 v=0
24900 On ch=10 n=40 v=0
24900 On ch=10 n=36 v=0
24900 On ch=10 n=46 v=107
24930 On ch=10 n=46 v=0
24960 On ch=10 n=36 v=127
24960 On ch=10 n=44 v=113
24990 On ch=10 n=44 v=0
25020 On ch=10 n=36 v=0
25020 On ch=10 n=46 v=102
25050 On ch=10 n=46 v=0
25080 On ch=10 n=40 v=127
25080 On ch=10 n=36 v=127
25080 On ch=10 n=44 v=113
25110 On ch=10 n=44 v=0
25140 On ch=10 n=36 v=0
25140 On ch=10 n=40 v=0
25140 On ch=10 n=46 v=105
25170 On ch=10 n=46 v=0
25200 On ch=10 n=36 v=127
25200 On ch=10 n=44 v=113
25230 On ch=10 n=44 v=0
25260 On ch=10 n=36 v=0
25260 On ch=10 n=46 v=116
25290 On ch=10 n=46 v=0
25320 On ch=10 n=36 v=127
25320 On ch=10 n=40 v=127
25320 On ch=10 n=44 v=127
25350 On ch=10 n=44 v=0
25350 On ch=10 n=40 v=0
25380 On ch=10 n=36 v=0
25380 On ch=10 n=46 v=119
25410 On ch=10 n=46 v=0
25440 On ch=10 n=36 v=127
25440 On ch=10 n=46 v=127
25445 On ch=10 n=55 v=127
25470 On ch=10 n=46 v=0
25470 On ch=10 n=36 v=0
25483 On ch=10 n=55 v=0
25620 On ch=10 n=40 v=127
25623 On ch=10 n=49 v=127
25640 On ch=10 n=49 v=0
25650 On ch=10 n=40 v=0
25738 On ch=10 n=55 v=95
25740 On ch=10 n=36 v=116
25754 On ch=10 n=55 v=0
25770 On ch=10 n=36 v=0
25800 On ch=10 n=36 v=127
25800 On ch=10 n=44 v=116
25805 On ch=10 n=57 v=127
25821 On ch=10 n=57 v=0
25830 On ch=10 n=44 v=0
25830 On ch=10 n=36 v=0
25920 On ch=10 n=40 v=122
25920 On ch=10 n=36 v=127
25920 On ch=10 n=44 v=122
25950 On ch=10 n=44 v=0
25950 On ch=10 n=36 v=0
25950 On ch=10 n=40 v=0
25950 On ch=10 n=40 v=122
25980 On ch=10 n=40 v=0
25980 On ch=10 n=40 v=122
26010 On ch=10 n=40 v=0
26010 On ch=10 n=40 v=122
26040 On ch=10 n=40 v=0
26040 On ch=10 n=44 v=122
26040 On ch=10 n=36 v=127
26070 On ch=10 n=44 v=0
26100 On ch=10 n=36 v=0
26100 On ch=10 n=40 v=122
26130 On ch=10 n=40 v=0
26130 On ch=10 n=40 v=122
26160 On ch=10 n=40 v=0
26160 On ch=10 n=40 v=122
26160 On ch=10 n=44 v=122
26160 On ch=10 n=36 v=127
26190 On ch=10 n=40 v=0
26190 On ch=10 n=40 v=122
26220 On ch=10 n=40 v=0
26280 On ch=10 n=36 v=0
26280 On ch=10 n=44 v=0
26280 On ch=10 n=40 v=127
26280 On ch=10 n=36 v=127
26280 On ch=10 n=44 v=127
26295 On ch=10 n=40 v=0
26310 On ch=10 n=44 v=0
26310 On ch=10 n=36 v=0
26340 On ch=10 n=40 v=127
26340 On ch=10 n=46 v=122
26355 On ch=10 n=40 v=0
26370 On ch=10 n=46 v=0
26400 On ch=10 n=36 v=127
26400 On ch=10 n=55 v=127
26400 On ch=10 n=44 v=116
26430 On ch=10 n=44 v=0
26430 On ch=10 n=44 v=100
26460 On ch=10 n=44 v=0
26460 On ch=10 n=36 v=0
26460 On ch=10 n=42 v=113
26490 On ch=10 n=42 v=0
26490 On ch=10 n=44 v=100
26505 On ch=10 n=44 v=0
26520 On ch=10 n=40 v=127
26520 On ch=10 n=36 v=127
26520 On ch=10 n=44 v=119
26522 On ch=10 n=55 v=0
26550 On ch=10 n=40 v=0
26550 On ch=10 n=44 v=0
26550 On ch=10 n=44 v=87
26580 On ch=10 n=44 v=0
26580 On ch=10 n=36 v=0
26580 On ch=10 n=42 v=113
26610 On ch=10 n=42 v=0
26610 On ch=10 n=44 v=100
26625 On ch=10 n=44 v=0
26640 On ch=10 n=36 v=127
26640 On ch=10 n=44 v=113
26670 On ch=10 n=44 v=0
26670 On ch=10 n=44 v=80
26700 On ch=10 n=44 v=0
26700 On ch=10 n=36 v=0
26700 On ch=10 n=42 v=107
26730 On ch=10 n=42 v=0
26730 On ch=10 n=44 v=100
26745 On ch=10 n=44 v=0
26760 On ch=10 n=36 v=127
26760 On ch=10 n=40 v=127
26760 On ch=10 n=44 v=110
26790 On ch=10 n=44 v=0
26790 On ch=10 n=44 v=72
26820 On ch=10 n=44 v=0
26820 On ch=10 n=40 v=0
26820 On ch=10 n=36 v=0
26820 On ch=10 n=42 v=113
26850 On ch=10 n=42 v=0
26850 On ch=10 n=44 v=100
26865 On ch=10 n=44 v=0
26880 On ch=10 n=36 v=127
26880 On ch=10 n=44 v=110
26910 On ch=10 n=44 v=0
26910 On ch=10 n=44 v=68
26940 On ch=10 n=44 v=0
26940 On ch=10 n=36 v=0
26940 On ch=10 n=42 v=102
26970 On ch=10 n=42 v=0
26970 On ch=10 n=44 v=100
26985 On ch=10 n=44 v=0
27000 On ch=10 n=36 v=127
27000 On ch=10 n=40 v=127
27000 On ch=10 n=44 v=116
27030 On ch=10 n=44 v=0
27030 On ch=10 n=44 v=70
27060 On ch=10 n=44 v=0
27060 On ch=10 n=40 v=0
27060 On ch=10 n=36 v=0
27060 On ch=10 n=42 v=102
27090 On ch=10 n=42 v=0
27090 On ch=10 n=44 v=100
27105 On ch=10 n=44 v=0
27120 On ch=10 n=36 v=127
27120 On ch=10 n=44 v=105
27150 On ch=10 n=44 v=0
27150 On ch=10 n=44 v=87
27180 On ch=10 n=44 v=0
27180 On ch=10 n=36 v=0
27180 On ch=10 n=42 v=105
27210 On ch=10 n=42 v=0
27210 On ch=10 n=44 v=100
27225 On ch=10 n=44 v=0
27240 On ch=10 n=36 v=127
27240 On ch=10 n=40 v=127
27240 On ch=10 n=44 v=107
27270 On ch=10 n=44 v=0
27270 On ch=10 n=44 v=95
27300 On ch=10 n=44 v=0
27300 On ch=10 n=40 v=0
27300 On ch=10 n=36 v=0
27300 On ch=10 n=42 v=107
27330 On ch=10 n=42 v=0
27330 On ch=10 n=44 v=100
27345 On ch=10 n=44 v=0
27360 On ch=10 n=36 v=127
27360 On ch=10 n=44 v=100
27390 On ch=10 n=44 v=0
27390 On ch=10 n=44 v=89
27420 On ch=10 n=44 v=0
27420 On ch=10 n=36 v=0
27420 On ch=10 n=42 v=105
27450 On ch=10 n=42 v=0
27450 On ch=10 n=44 v=100
27465 On ch=10 n=44 v=0
27480 On ch=10 n=36 v=127
27480 On ch=10 n=40 v=127
27480 On ch=10 n=44 v=113
27510 On ch=10 n=44 v=0
27510 On ch=10 n=44 v=80
27540 On ch=10 n=44 v=0
27540 On ch=10 n=40 v=0
27540 On ch=10 n=36 v=0
27540 On ch=10 n=42 v=87
27570 On ch=10 n=42 v=0
27570 On ch=10 n=44 v=100
27585 On ch=10 n=44 v=0
27600 On ch=10 n=36 v=127
27600 On ch=10 n=44 v=116
27630 On ch=10 n=44 v=0
27630 On ch=10 n=44 v=87
27660 On ch=10 n=44 v=0
27660 On ch=10 n=36 v=0
27660 On ch=10 n=42 v=95
27690 On ch=10 n=42 v=0
27690 On ch=10 n=44 v=100
27705 On ch=10 n=44 v=0
27720 On ch=10 n=40 v=122
27720 On ch=10 n=36 v=127
27720 On ch=10 n=44 v=107
27750 On ch=10 n=44 v=0
27750 On ch=10 n=44 v=85
27780 On ch=10 n=44 v=0
27780 On ch=10 n=36 v=0
27780 On ch=10 n=40 v=0
27780 On ch=10 n=42 v=107
27810 On ch=10 n=42 v=0
27810 On ch=10 n=44 v=100
27825 On ch=10 n=44 v=0
27840 On ch=10 n=36 v=127
27840 On ch=10 n=44 v=102
27870 On ch=10 n=44 v=0
27870 On ch=10 n=44 v=82
27900 On ch=10 n=44 v=0
27900 On ch=10 n=36 v=0
27900 On ch=10 n=42 v=110
27930 On ch=10 n=42 v=0
27930 On ch=10 n=44 v=100
27945 On ch=10 n=44 v=0
27960 On ch=10 n=36 v=122
27960 On ch=10 n=40 v=127
27960 On ch=10 n=44 v=100
27990 On ch=10 n=44 v=0
27990 On ch=10 n=44 v=82
28020 On ch=10 n=44 v=0
28020 On ch=10 n=40 v=0
28020 On ch=10 n=36 v=0
28020 On ch=10 n=42 v=100
28050 On ch=10 n=42 v=0
28050 On ch=10 n=44 v=100
28065 On ch=10 n=44 v=0
28080 On ch=10 n=36 v=127
28080 On ch=10 n=44 v=105
28110 On ch=10 n=44 v=0
28110 On ch=10 n=44 v=91
28140 On ch=10 n=44 v=0
28140 On ch=10 n=36 v=0
28140 On ch=10 n=42 v=105
28170 On ch=10 n=42 v=0
28170 On ch=10 n=44 v=100
28185 On ch=10 n=44 v=0
28200 On ch=10 n=40 v=127
28200 On ch=10 n=36 v=127
28200 On ch=10 n=44 v=107
28230 On ch=10 n=44 v=0
28230 On ch=10 n=44 v=89
28260 On ch=10 n=44 v=0
28260 On ch=10 n=36 v=0
28260 On ch=10 n=40 v=0
28260 On ch=10 n=42 v=113
28290 On ch=10 n=42 v=0
28290 On ch=10 n=44 v=100
28305 On ch=10 n=44 v=0
28320 On ch=10 n=36 v=127
28320 On ch=10 n=44 v=105
28350 On ch=10 n=44 v=0
28350 On ch=10 n=44 v=80
28380 On ch=10 n=44 v=0
28380 On ch=10 n=36 v=0
28380 On ch=10 n=42 v=102
28410 On ch=10 n=42 v=0
28410 On ch=10 n=44 v=100
28425 On ch=10 n=44 v=0
28440 On ch=10 n=36 v=127
28440 On ch=10 n=40 v=127
28440 On ch=10 n=44 v=105
28470 On ch=10 n=44 v=0
28470 On ch=10 n=36 v=0
28470 On ch=10 n=44 v=78
28500 On ch=10 n=44 v=0
28500 On ch=10 n=40 v=0
28500 On ch=10 n=42 v=102
28530 On ch=10 n=42 v=0
28530 On ch=10 n=44 v=100
28545 On ch=10 n=44 v=0
28560 On ch=10 n=36 v=127
28560 On ch=10 n=44 v=107
28590 On ch=10 n=44 v=0
28590 On ch=10 n=44 v=82
28620 On ch=10 n=44 v=0
28620 On ch=10 n=36 v=0
28620 On ch=10 n=42 v=105
28650 On ch=10 n=42 v=0
28650 On ch=10 n=44 v=100
28665 On ch=10 n=44 v=0
28680 On ch=10 n=36 v=127
28680 On ch=10 n=40 v=127
28680 On ch=10 n=44 v=105
28710 On ch=10 n=44 v=0
28710 On ch=10 n=44 v=82
28740 On ch=10 n=44 v=0
28740 On ch=10 n=40 v=0
28740 On ch=10 n=36 v=0
28740 On ch=10 n=42 v=105
28770 On ch=10 n=42 v=0
28770 On ch=10 n=44 v=100
28785 On ch=10 n=44 v=0
28800 On ch=10 n=36 v=127
28800 On ch=10 n=44 v=107
28830 On ch=10 n=44 v=0
28830 On ch=10 n=44 v=87
28860 On ch=10 n=44 v=0
28860 On ch=10 n=36 v=0
28860 On ch=10 n=42 v=105
28890 On ch=10 n=42 v=0
28890 On ch=10 n=44 v=100
28905 On ch=10 n=44 v=0
28920 On ch=10 n=36 v=127
28920 On ch=10 n=40 v=127
28920 On ch=10 n=44 v=113
28950 On ch=10 n=44 v=0
28950 On ch=10 n=44 v=87
28980 On ch=10 n=44 v=0
28980 On ch=10 n=40 v=0
28980 On ch=10 n=36 v=0
28980 On ch=10 n=42 v=102
29010 On ch=10 n=42 v=0
29010 On ch=10 n=44 v=100
29025 On ch=10 n=44 v=0
29040 On ch=10 n=36 v=127
29040 On ch=10 n=44 v=110
29070 On ch=10 n=44 v=0
29070 On ch=10 n=44 v=89
29100 On ch=10 n=44 v=0
29100 On ch=10 n=36 v=0
29100 On ch=10 n=42 v=105
29130 On ch=10 n=42 v=0
29130 On ch=10 n=44 v=100
29145 On ch=10 n=44 v=0
29160 On ch=10 n=40 v=127
29160 On ch=10 n=36 v=127
29160 On ch=10 n=44 v=110
29190 On ch=10 n=44 v=0
29190 On ch=10 n=44 v=91
29220 On ch=10 n=44 v=0
29220 On ch=10 n=36 v=0
29220 On ch=10 n=40 v=0
29220 On ch=10 n=42 v=107
29250 On ch=10 n=42 v=0
29250 On ch=10 n=44 v=100
29265 On ch=10 n=44 v=0
29280 On ch=10 n=36 v=122
29280 On ch=10 n=44 v=110
29310 On ch=10 n=44 v=0
29310 On ch=10 n=44 v=98
29340 On ch=10 n=44 v=0
29340 On ch=10 n=36 v=0
29340 On ch=10 n=42 v=110
29370 On ch=10 n=42 v=0
29370 On ch=10 n=44 v=100
29385 On ch=10 n=44 v=0
29400 On ch=10 n=40 v=122
29400 On ch=10 n=36 v=122
29400 On ch=10 n=44 v=107
29430 On ch=10 n=44 v=0
29430 On ch=10 n=44 v=93
29460 On ch=10 n=44 v=0
29460 On ch=10 n=36 v=0
29460 On ch=10 n=40 v=0
29460 On ch=10 n=42 v=110
29490 On ch=10 n=42 v=0
29490 On ch=10 n=44 v=100
29505 On ch=10 n=44 v=0
29520 On ch=10 n=36 v=127
29520 On ch=10 n=44 v=107
29550 On ch=10 n=44 v=0
29550 On ch=10 n=44 v=87
29580 On ch=10 n=44 v=0
29580 On ch=10 n=36 v=0
29580 On ch=10 n=42 v=105
29610 On ch=10 n=42 v=0
29610 On ch=10 n=44 v=100
29625 On ch=10 n=44 v=0
29640 On ch=10 n=40 v=127
29640 On ch=10 n=36 v=127
29640 On ch=10 n=44 v=102
29670 On ch=10 n=44 v=0
29670 On ch=10 n=44 v=85
29700 On ch=10 n=44 v=0
29700 On ch=10 n=36 v=0
29700 On ch=10 n=40 v=0
29700 On ch=10 n=42 v=102
29730 On ch=10 n=42 v=0
29730 On ch=10 n=44 v=100
29745 On ch=10 n=44 v=0
29760 On ch=10 n=36 v=127
29760 On ch=10 n=44 v=107
29790 On ch=10 n=44 v=0
29790 On ch=10 n=44 v=80
29820 On ch=10 n=44 v=0
29820 On ch=10 n=36 v=0
29820 On ch=10 n=42 v=102
29850 On ch=10 n=42 v=0
29850 On ch=10 n=44 v=100
29865 On ch=10 n=44 v=0
29880 On ch=10 n=36 v=127
29880 On ch=10 n=40 v=127
29880 On ch=10 n=44 v=113
29910 On ch=10 n=44 v=0
29910 On ch=10 n=44 v=80
29940 On ch=10 n=44 v=0
29940 On ch=10 n=40 v=0
29940 On ch=10 n=36 v=0
29940 On ch=10 n=42 v=98
29970 On ch=10 n=42 v=0
29970 On ch=10 n=44 v=100
29985 On ch=10 n=44 v=0
30000 On ch=10 n=36 v=122
30000 On ch=10 n=44 v=107
30030 On ch=10 n=44 v=0
30030 On ch=10 n=44 v=89
30060 On ch=10 n=44 v=0
30060 On ch=10 n=36 v=0
30060 On ch=10 n=42 v=107
30090 On ch=10 n=42 v=0
30090 On ch=10 n=44 v=100
30105 On ch=10 n=44 v=0
30120 On ch=10 n=36 v=127
30120 On ch=10 n=44 v=110
30120 On ch=10 n=40 v=116
30150 On ch=10 n=40 v=0
30150 On ch=10 n=44 v=0
30150 On ch=10 n=44 v=95
30180 On ch=10 n=44 v=0
30180 On ch=10 n=36 v=0
30180 On ch=10 n=42 v=116
30210 On ch=10 n=42 v=0
30210 On ch=10 n=44 v=100
30225 On ch=10 n=44 v=0
30240 On ch=10 n=36 v=127
30240 On ch=10 n=55 v=127
30240 On ch=10 n=44 v=116
30244 On ch=10 n=36 v=127
30264 On ch=10 n=36 v=0
30270 On ch=10 n=44 v=0
30270 On ch=10 n=44 v=100
30300 On ch=10 n=44 v=0
30300 On ch=10 n=36 v=0
30300 On ch=10 n=42 v=113
30330 On ch=10 n=42 v=0
30330 On ch=10 n=44 v=100
30345 On ch=10 n=44 v=0
30360 On ch=10 n=40 v=127
30360 On ch=10 n=36 v=127
30360 On ch=10 n=44 v=119
30362 On ch=10 n=55 v=0
30390 On ch=10 n=40 v=0
30390 On ch=10 n=44 v=0
30390 On ch=10 n=44 v=87
30420 On ch=10 n=44 v=0
30420 On ch=10 n=36 v=0
30420 On ch=10 n=42 v=113
30450 On ch=10 n=42 v=0
30450 On ch=10 n=44 v=100
30465 On ch=10 n=44 v=0
30480 On ch=10 n=36 v=127
30480 On ch=10 n=44 v=113
30510 On ch=10 n=44 v=0
30510 On ch=10 n=44 v=80
30540 On ch=10 n=44 v=0
30540 On ch=10 n=36 v=0
30540 On ch=10 n=42 v=107
30570 On ch=10 n=42 v=0
30570 On ch=10 n=44 v=100
30585 On ch=10 n=44 v=0
30600 On ch=10 n=36 v=127
30600 On ch=10 n=40 v=127
30600 On ch=10 n=44 v=110
30630 On ch=10 n=44 v=0
30630 On ch=10 n=44 v=72
30660 On ch=10 n=44 v=0
30660 On ch=10 n=40 v=0
30660 On ch=10 n=36 v=0
30660 On ch=10 n=42 v=113
30690 On ch=10 n=42 v=0
30690 On ch=10 n=44 v=100
30705 On ch=10 n=44 v=0
30720 On ch=10 n=36 v=127
30720 On ch=10 n=44 v=110
30750 On ch=10 n=44 v=0
30750 On ch=10 n=44 v=68
30780 On ch=10 n=44 v=0
30780 On ch=10 n=36 v=0
30780 On ch=10 n=42 v=102
30810 On ch=10 n=42 v=0
30810 On ch=10 n=44 v=100
30825 On ch=10 n=44 v=0
30840 On ch=10 n=36 v=127
30840 On ch=10 n=40 v=127
30840 On ch=10 n=44 v=116
30870 On ch=10 n=44 v=0
30870 On ch=10 n=44 v=70
30900 On ch=10 n=44 v=0
30900 On ch=10 n=40 v=0
30900 On ch=10 n=36 v=0
30900 On ch=10 n=42 v=102
30930 On ch=10 n=42 v=0
30930 On ch=10 n=44 v=100
30945 On ch=10 n=44 v=0
30960 On ch=10 n=36 v=127
30960 On ch=10 n=44 v=105
30990 On ch=10 n=44 v=0
30990 On ch=10 n=44 v=87
31020 On ch=10 n=44 v=0
31020 On ch=10 n=36 v=0
31020 On ch=10 n=42 v=105
31050 On ch=10 n=42 v=0
31050 On ch=10 n=44 v=100
31065 On ch=10 n=44 v=0
31080 On ch=10 n=36 v=127
31080 On ch=10 n=40 v=127
31080 On ch=10 n=44 v=107
31110 On ch=10 n=44 v=0
31110 On ch=10 n=44 v=95
31140 On ch=10 n=44 v=0
31140 On ch=10 n=40 v=0
31140 On ch=10 n=36 v=0
31140 On ch=10 n=42 v=107
31170 On ch=10 n=42 v=0
31170 On ch=10 n=44 v=100
31185 On ch=10 n=44 v=0
31200 On ch=10 n=36 v=127
31200 On ch=10 n=44 v=100
31230 On ch=10 n=44 v=0
31230 On ch=10 n=44 v=89
31260 On ch=10 n=44 v=0
31260 On ch=10 n=36 v=0
31260 On ch=10 n=42 v=105
31290 On ch=10 n=42 v=0
31290 On ch=10 n=44 v=100
31305 On ch=10 n=44 v=0
31320 On ch=10 n=36 v=127
31320 On ch=10 n=40 v=127
31320 On ch=10 n=44 v=113
31350 On ch=10 n=44 v=0
31350 On ch=10 n=44 v=80
31380 On ch=10 n=44 v=0
31380 On ch=10 n=40 v=0
31380 On ch=10 n=36 v=0
31380 On ch=10 n=42 v=87
31410 On ch=10 n=42 v=0
31410 On ch=10 n=44 v=100
31425 On ch=10 n=44 v=0
31440 On ch=10 n=36 v=127
31440 On ch=10 n=44 v=116
31470 On ch=10 n=44 v=0
31470 On ch=10 n=44 v=87
31500 On ch=10 n=44 v=0
31500 On ch=10 n=36 v=0
31500 On ch=10 n=42 v=95
31530 On ch=10 n=42 v=0
31530 On ch=10 n=44 v=100
31545 On ch=10 n=44 v=0
31560 On ch=10 n=40 v=122
31560 On ch=10 n=36 v=127
31560 On ch=10 n=44 v=107
31590 On ch=10 n=44 v=0
31590 On ch=10 n=44 v=85
31620 On ch=10 n=44 v=0
31620 On ch=10 n=36 v=0
31620 On ch=10 n=40 v=0
31620 On ch=10 n=42 v=107
31650 On ch=10 n=42 v=0
31650 On ch=10 n=44 v=100
31665 On ch=10 n=44 v=0
31680 On ch=10 n=36 v=127
31680 On ch=10 n=44 v=102
31710 On ch=10 n=44 v=0
31710 On ch=10 n=44 v=82
31740 On ch=10 n=44 v=0
31740 On ch=10 n=36 v=0
31740 On ch=10 n=42 v=110
31770 On ch=10 n=42 v=0
31770 On ch=10 n=44 v=100
31785 On ch=10 n=44 v=0
31800 On ch=10 n=36 v=122
31800 On ch=10 n=40 v=127
31800 On ch=10 n=44 v=100
31830 On ch=10 n=44 v=0
31830 On ch=10 n=44 v=82
31860 On ch=10 n=44 v=0
31860 On ch=10 n=40 v=0
31860 On ch=10 n=36 v=0
31860 On ch=10 n=42 v=100
31890 On ch=10 n=42 v=0
31890 On ch=10 n=44 v=100
31905 On ch=10 n=44 v=0
31920 On ch=10 n=36 v=127
31920 On ch=10 n=44 v=105
31950 On ch=10 n=44 v=0
31950 On ch=10 n=44 v=91
31980 On ch=10 n=44 v=0
31980 On ch=10 n=36 v=0
31980 On ch=10 n=42 v=105
32010 On ch=10 n=42 v=0
32010 On ch=10 n=44 v=100
32025 On ch=10 n=44 v=0
32040 On ch=10 n=40 v=127
32040 On ch=10 n=36 v=127
32040 On ch=10 n=44 v=107
32070 On ch=10 n=44 v=0
32070 On ch=10 n=44 v=89
32100 On ch=10 n=44 v=0
32100 On ch=10 n=36 v=0
32100 On ch=10 n=40 v=0
32100 On ch=10 n=42 v=113
32130 On ch=10 n=42 v=0
32130 On ch=10 n=40 v=100
32130 On ch=10 n=44 v=100
32145 On ch=10 n=44 v=0
32145 On ch=10 n=40 v=0
32160 On ch=10 n=36 v=127
32160 On ch=10 n=44 v=105
32190 On ch=10 n=44 v=0
32190 On ch=10 n=44 v=80
32220 On ch=10 n=44 v=0
32220 On ch=10 n=36 v=0
32220 On ch=10 n=42 v=102
32250 On ch=10 n=42 v=0
32250 On ch=10 n=44 v=100
32265 On ch=10 n=44 v=0
32280 On ch=10 n=36 v=127
32280 On ch=10 n=40 v=127
32280 On ch=10 n=44 v=105
32310 On ch=10 n=44 v=0
32310 On ch=10 n=36 v=0
32310 On ch=10 n=44 v=78
32340 On ch=10 n=44 v=0
32340 On ch=10 n=40 v=0
32340 On ch=10 n=42 v=102
32370 On ch=10 n=42 v=0
32370 On ch=10 n=44 v=100
32385 On ch=10 n=44 v=0
32400 On ch=10 n=36 v=127
32400 On ch=10 n=44 v=107
32430 On ch=10 n=44 v=0
32430 On ch=10 n=44 v=82
32460 On ch=10 n=44 v=0
32460 On ch=10 n=36 v=0
32460 On ch=10 n=42 v=105
32490 On ch=10 n=42 v=0
32490 On ch=10 n=44 v=100
32505 On ch=10 n=44 v=0
32520 On ch=10 n=36 v=127
32520 On ch=10 n=40 v=127
32520 On ch=10 n=44 v=105
32550 On ch=10 n=44 v=0
32550 On ch=10 n=44 v=82
32580 On ch=10 n=44 v=0
32580 On ch=10 n=40 v=0
32580 On ch=10 n=36 v=0
32580 On ch=10 n=42 v=105
32610 On ch=10 n=42 v=0
32610 On ch=10 n=44 v=100
32625 On ch=10 n=44 v=0
32640 On ch=10 n=36 v=127
32640 On ch=10 n=44 v=107
32670 On ch=10 n=44 v=0
32670 On ch=10 n=44 v=87
32700 On ch=10 n=44 v=0
32700 On ch=10 n=36 v=0
32700 On ch=10 n=42 v=105
32730 On ch=10 n=42 v=0
32730 On ch=10 n=44 v=100
32745 On ch=10 n=44 v=0
32760 On ch=10 n=36 v=127
32760 On ch=10 n=40 v=127
32760 On ch=10 n=44 v=113
32790 On ch=10 n=44 v=0
32790 On ch=10 n=44 v=87
32820 On ch=10 n=44 v=0
32820 On ch=10 n=40 v=0
32820 On ch=10 n=36 v=0
32820 On ch=10 n=42 v=102
32850 On ch=10 n=42 v=0
32850 On ch=10 n=44 v=100
32865 On ch=10 n=44 v=0
32880 On ch=10 n=36 v=127
32880 On ch=10 n=44 v=110
32910 On ch=10 n=44 v=0
32910 On ch=10 n=44 v=89
32940 On ch=10 n=44 v=0
32940 On ch=10 n=36 v=0
32940 On ch=10 n=42 v=105
32970 On ch=10 n=42 v=0
32970 On ch=10 n=44 v=100
32985 On ch=10 n=44 v=0
33000 On ch=10 n=40 v=127
33000 On ch=10 n=36 v=127
33000 On ch=10 n=44 v=110
33030 On ch=10 n=44 v=0
33030 On ch=10 n=44 v=91
33060 On ch=10 n=44 v=0
33060 On ch=10 n=36 v=0
33060 On ch=10 n=40 v=0
33060 On ch=10 n=42 v=107
33090 On ch=10 n=42 v=0
33090 On ch=10 n=44 v=100
33105 On ch=10 n=44 v=0
33120 On ch=10 n=36 v=122
33120 On ch=10 n=44 v=110
33150 On ch=10 n=44 v=0
33150 On ch=10 n=44 v=98
33180 On ch=10 n=44 v=0
33180 On ch=10 n=36 v=0
33180 On ch=10 n=42 v=110
33210 On ch=10 n=42 v=0
33210 On ch=10 n=44 v=100
33225 On ch=10 n=44 v=0
33240 On ch=10 n=40 v=122
33240 On ch=10 n=36 v=122
33240 On ch=10 n=44 v=107
33270 On ch=10 n=44 v=0
33270 On ch=10 n=44 v=93
33300 On ch=10 n=44 v=0
33300 On ch=10 n=36 v=0
33300 On ch=10 n=40 v=0
33300 On ch=10 n=42 v=110
33330 On ch=10 n=42 v=0
33330 On ch=10 n=44 v=100
33345 On ch=10 n=44 v=0
33360 On ch=10 n=36 v=127
33360 On ch=10 n=44 v=107
33390 On ch=10 n=44 v=0
33390 On ch=10 n=44 v=87
33420 On ch=10 n=44 v=0
33420 On ch=10 n=36 v=0
33420 On ch=10 n=42 v=105
33450 On ch=10 n=42 v=0
33450 On ch=10 n=44 v=100
33465 On ch=10 n=44 v=0
33480 On ch=10 n=40 v=127
33480 On ch=10 n=36 v=127
33480 On ch=10 n=44 v=102
33510 On ch=10 n=44 v=0
33510 On ch=10 n=44 v=85
33540 On ch=10 n=44 v=0
33540 On ch=10 n=36 v=0
33540 On ch=10 n=40 v=0
33540 On ch=10 n=42 v=102
33570 On ch=10 n=42 v=0
33570 On ch=10 n=44 v=100
33585 On ch=10 n=44 v=0
33600 On ch=10 n=36 v=127
33600 On ch=10 n=44 v=107
33630 On ch=10 n=44 v=0
33630 On ch=10 n=44 v=80
33660 On ch=10 n=44 v=0
33660 On ch=10 n=36 v=0
33660 On ch=10 n=42 v=102
33690 On ch=10 n=42 v=0
33690 On ch=10 n=44 v=100
33705 On ch=10 n=44 v=0
33720 On ch=10 n=36 v=127
33720 On ch=10 n=40 v=127
33720 On ch=10 n=44 v=113
33750 On ch=10 n=44 v=0
33750 On ch=10 n=44 v=80
33780 On ch=10 n=44 v=0
33780 On ch=10 n=40 v=0
33780 On ch=10 n=36 v=0
33780 On ch=10 n=42 v=98
33810 On ch=10 n=42 v=0
33810 On ch=10 n=44 v=100
33825 On ch=10 n=44 v=0
33840 On ch=10 n=36 v=122
33840 On ch=10 n=44 v=107
33870 On ch=10 n=44 v=0
33870 On ch=10 n=44 v=89
33900 On ch=10 n=44 v=0
33900 On ch=10 n=36 v=0
33900 On ch=10 n=42 v=107
33930 On ch=10 n=42 v=0
33930 On ch=10 n=44 v=100
33945 On ch=10 n=44 v=0
33960 On ch=10 n=40 v=100
33960 On ch=10 n=36 v=127
33960 On ch=10 n=44 v=110
33990 On ch=10 n=44 v=0
33990 On ch=10 n=40 v=0
33990 On ch=10 n=40 v=120
33990 On ch=10 n=44 v=95
34020 On ch=10 n=44 v=0
34020 On ch=10 n=40 v=0
34020 On ch=10 n=36 v=0
34020 On ch=10 n=40 v=120
34020 On ch=10 n=42 v=116
34050 On ch=10 n=42 v=0
34050 On ch=10 n=40 v=0
34050 On ch=10 n=44 v=100
34065 On ch=10 n=44 v=0
34078 On ch=10 n=57 v=127
34080 On ch=10 n=40 v=100
34080 On ch=10 n=36 v=127
34095 On ch=10 n=40 v=0
34110 On ch=10 n=36 v=0
34110 On ch=10 n=40 v=100
34125 On ch=10 n=40 v=0
34140 On ch=10 n=40 v=100
34155 On ch=10 n=40 v=0
34168 On ch=10 n=57 v=0
34170 On ch=10 n=40 v=100
34185 On ch=10 n=40 v=0
34200 On ch=10 n=36 v=122
34230 On ch=10 n=36 v=0
34260 On ch=10 n=40 v=100
34275 On ch=10 n=40 v=0
34290 On ch=10 n=40 v=100
34305 On ch=10 n=40 v=0
34320 On ch=10 n=40 v=100
34320 On ch=10 n=36 v=110
34335 On ch=10 n=40 v=0
34350 On ch=10 n=36 v=0
34350 On ch=10 n=40 v=100
34365 On ch=10 n=40 v=0
34440 On ch=10 n=36 v=113
34470 On ch=10 n=36 v=0
34560 On ch=10 n=40 v=100
34560 On ch=10 n=36 v=116
34575 On ch=10 n=40 v=0
34590 On ch=10 n=40 v=100
34605 On ch=10 n=40 v=0
34620 On ch=10 n=36 v=0
34620 On ch=10 n=40 v=100
34635 On ch=10 n=40 v=0
34650 On ch=10 n=40 v=100
34665 On ch=10 n=40 v=0
34680 On ch=10 n=36 v=119
34740 On ch=10 n=36 v=0
34740 On ch=10 n=40 v=100
34755 On ch=10 n=40 v=0
34770 On ch=10 n=40 v=100
34785 On ch=10 n=40 v=0
34800 On ch=10 n=36 v=127
34800 On ch=10 n=40 v=100
34815 On ch=10 n=40 v=0
34830 On ch=10 n=40 v=100
34845 On ch=10 n=40 v=0
34860 On ch=10 n=36 v=0
34920 On ch=10 n=44 v=110
34920 On ch=10 n=36 v=127
34920 On ch=10 n=40 v=127
34950 On ch=10 n=40 v=0
34950 On ch=10 n=36 v=0
34950 On ch=10 n=44 v=0
34980 On ch=10 n=46 v=102
34980 On ch=10 n=40 v=122
35010 On ch=10 n=40 v=0
35010 On ch=10 n=46 v=0
35040 On ch=10 n=44 v=127
35040 On ch=10 n=36 v=127
35040 On ch=10 n=57 v=127
35070 On ch=10 n=44 v=0
35100 On ch=10 n=36 v=0
35100 On ch=10 n=51 v=127
35130 On ch=10 n=51 v=0
35130 On ch=10 n=57 v=0
35160 On ch=10 n=44 v=122
35160 On ch=10 n=36 v=127
35160 On ch=10 n=40 v=127
35190 On ch=10 n=40 v=0
35190 On ch=10 n=44 v=0
35220 On ch=10 n=36 v=0
35220 On ch=10 n=51 v=127
35250 On ch=10 n=51 v=0
35280 On ch=10 n=44 v=116
35280 On ch=10 n=36 v=127
35310 On ch=10 n=44 v=0
35340 On ch=10 n=36 v=0
35340 On ch=10 n=51 v=122
35370 On ch=10 n=51 v=0
35400 On ch=10 n=44 v=116
35400 On ch=10 n=36 v=122
35400 On ch=10 n=40 v=127
35430 On ch=10 n=44 v=0
35460 On ch=10 n=40 v=0
35460 On ch=10 n=36 v=0
35460 On ch=10 n=51 v=122
35490 On ch=10 n=51 v=0
35520 On ch=10 n=44 v=119
35520 On ch=10 n=36 v=122
35550 On ch=10 n=44 v=0
35580 On ch=10 n=36 v=0
35580 On ch=10 n=51 v=122
35610 On ch=10 n=51 v=0
35640 On ch=10 n=44 v=110
35640 On ch=10 n=36 v=122
35640 On ch=10 n=40 v=122
35670 On ch=10 n=40 v=0
35670 On ch=10 n=44 v=0
35700 On ch=10 n=36 v=0
35700 On ch=10 n=51 v=119
35730 On ch=10 n=51 v=0
35760 On ch=10 n=44 v=116
35760 On ch=10 n=36 v=122
35820 On ch=10 n=36 v=0
35820 On ch=10 n=44 v=0
35820 On ch=10 n=51 v=127
35850 On ch=10 n=51 v=0
35880 On ch=10 n=44 v=113
35880 On ch=10 n=36 v=122
35880 On ch=10 n=40 v=122
35940 On ch=10 n=40 v=0
35940 On ch=10 n=36 v=0
35940 On ch=10 n=44 v=0
35940 On ch=10 n=51 v=122
35970 On ch=10 n=51 v=0
36000 On ch=10 n=44 v=113
36000 On ch=10 n=36 v=122
36060 On ch=10 n=36 v=0
36060 On ch=10 n=44 v=0
36060 On ch=10 n=51 v=122
36090 On ch=10 n=51 v=0
36120 On ch=10 n=44 v=119
36120 On ch=10 n=36 v=127
36120 On ch=10 n=40 v=127
36150 On ch=10 n=44 v=0
36180 On ch=10 n=40 v=0
36180 On ch=10 n=36 v=0
36180 On ch=10 n=51 v=122
36210 On ch=10 n=51 v=0
36240 On ch=10 n=44 v=116
36240 On ch=10 n=36 v=122
36270 On ch=10 n=44 v=0
36300 On ch=10 n=36 v=0
36300 On ch=10 n=51 v=122
36330 On ch=10 n=51 v=0
36360 On ch=10 n=44 v=127
36360 On ch=10 n=36 v=127
36360 On ch=10 n=40 v=122
36390 On ch=10 n=40 v=0
36390 On ch=10 n=44 v=0
36420 On ch=10 n=36 v=0
36420 On ch=10 n=51 v=119
36450 On ch=10 n=51 v=0
36480 On ch=10 n=44 v=119
36480 On ch=10 n=36 v=122
36510 On ch=10 n=44 v=0
36540 On ch=10 n=36 v=0
36540 On ch=10 n=51 v=116
36570 On ch=10 n=51 v=0
36600 On ch=10 n=44 v=119
36600 On ch=10 n=36 v=122
36600 On ch=10 n=40 v=127
36630 On ch=10 n=40 v=0
36630 On ch=10 n=44 v=0
36660 On ch=10 n=36 v=0
36660 On ch=10 n=51 v=122
36690 On ch=10 n=51 v=0
36720 On ch=10 n=44 v=127
36720 On ch=10 n=36 v=122
36780 On ch=10 n=36 v=0
36780 On ch=10 n=44 v=0
36780 On ch=10 n=51 v=122
36810 On ch=10 n=51 v=0
36840 On ch=10 n=46 v=127
36840 On ch=10 n=36 v=127
36840 On ch=10 n=40 v=127
36870 On ch=10 n=40 v=0
36870 On ch=10 n=46 v=0
36900 On ch=10 n=36 v=0
36900 On ch=10 n=51 v=127
36930 On ch=10 n=51 v=0
36930 On ch=10 n=40 v=127
36960 On ch=10 n=40 v=0
36960 On ch=10 n=44 v=127
36960 On ch=10 n=36 v=127
36960 On ch=10 n=55 v=127
36990 On ch=10 n=44 v=0
37020 On ch=10 n=36 v=0
37020 On ch=10 n=51 v=122
37050 On ch=10 n=51 v=0
37050 On ch=10 n=55 v=0
37080 On ch=10 n=44 v=127
37080 On ch=10 n=36 v=127
37080 On ch=10 n=40 v=119
37110 On ch=10 n=44 v=0
37140 On ch=10 n=40 v=0
37140 On ch=10 n=36 v=0
37140 On ch=10 n=51 v=127
37170 On ch=10 n=51 v=0
37200 On ch=10 n=44 v=119
37200 On ch=10 n=36 v=122
37230 On ch=10 n=44 v=0
37260 On ch=10 n=36 v=0
37260 On ch=10 n=51 v=127
37290 On ch=10 n=51 v=0
37320 On ch=10 n=44 v=119
37320 On ch=10 n=36 v=119
37320 On ch=10 n=40 v=127
37350 On ch=10 n=44 v=0
37380 On ch=10 n=40 v=0
37380 On ch=10 n=36 v=0
37380 On ch=10 n=51 v=122
37410 On ch=10 n=51 v=0
37440 On ch=10 n=44 v=119
37440 On ch=10 n=36 v=119
37470 On ch=10 n=44 v=0
37500 On ch=10 n=36 v=0
37500 On ch=10 n=51 v=122
37530 On ch=10 n=51 v=0
37560 On ch=10 n=44 v=119
37560 On ch=10 n=36 v=127
37560 On ch=10 n=40 v=119
37590 On ch=10 n=44 v=0
37620 On ch=10 n=40 v=0
37620 On ch=10 n=36 v=0
37620 On ch=10 n=51 v=122
37650 On ch=10 n=51 v=0
37680 On ch=10 n=44 v=113
37680 On ch=10 n=36 v=116
37710 On ch=10 n=44 v=0
37740 On ch=10 n=36 v=0
37740 On ch=10 n=51 v=122
37770 On ch=10 n=51 v=0
37800 On ch=10 n=44 v=122
37800 On ch=10 n=36 v=116
37800 On ch=10 n=40 v=122
37830 On ch=10 n=44 v=0
37860 On ch=10 n=40 v=0
37860 On ch=10 n=36 v=0
37860 On ch=10 n=51 v=127
37890 On ch=10 n=51 v=0
37920 On ch=10 n=44 v=113
37920 On ch=10 n=36 v=119
37950 On ch=10 n=44 v=0
37980 On ch=10 n=36 v=0
37980 On ch=10 n=51 v=122
38010 On ch=10 n=51 v=0
38040 On ch=10 n=44 v=119
38040 On ch=10 n=36 v=116
38040 On ch=10 n=40 v=122
38070 On ch=10 n=44 v=0
38100 On ch=10 n=40 v=0
38100 On ch=10 n=36 v=0
38100 On ch=10 n=51 v=119
38130 On ch=10 n=51 v=0
38160 On ch=10 n=44 v=116
38160 On ch=10 n=36 v=119
38190 On ch=10 n=44 v=0
38220 On ch=10 n=36 v=0
38220 On ch=10 n=51 v=119
38250 On ch=10 n=51 v=0
38280 On ch=10 n=44 v=122
38280 On ch=10 n=36 v=116
38280 On ch=10 n=40 v=119
38310 On ch=10 n=44 v=0
38340 On ch=10 n=40 v=0
38340 On ch=10 n=36 v=0
38340 On ch=10 n=51 v=122
38370 On ch=10 n=51 v=0
38400 On ch=10 n=44 v=127
38400 On ch=10 n=36 v=119
38430 On ch=10 n=44 v=0
38460 On ch=10 n=36 v=0
38460 On ch=10 n=51 v=116
38490 On ch=10 n=51 v=0
38520 On ch=10 n=44 v=119
38520 On ch=10 n=40 v=122
38520 On ch=10 n=36 v=116
38550 On ch=10 n=44 v=0
38580 On ch=10 n=36 v=0
38580 On ch=10 n=40 v=0
38580 On ch=10 n=51 v=122
38610 On ch=10 n=51 v=0
38640 On ch=10 n=44 v=122
38640 On ch=10 n=36 v=122
38700 On ch=10 n=36 v=0
38700 On ch=10 n=44 v=0
38700 On ch=10 n=51 v=122
38730 On ch=10 n=51 v=0
38760 On ch=10 n=46 v=127
38760 On ch=10 n=40 v=113
38760 On ch=10 n=36 v=110
38790 On ch=10 n=40 v=0
38790 On ch=10 n=46 v=0
38790 On ch=10 n=40 v=89
38820 On ch=10 n=40 v=0
38820 On ch=10 n=36 v=0
38820 On ch=10 n=51 v=127
38820 On ch=10 n=40 v=107
38850 On ch=10 n=40 v=0
38850 On ch=10 n=51 v=0
38880 On ch=10 n=57 v=127
38880 On ch=10 n=44 v=127
38880 On ch=10 n=36 v=127
38910 On ch=10 n=44 v=0
38940 On ch=10 n=36 v=0
38940 On ch=10 n=51 v=127
38970 On ch=10 n=51 v=0
39000 On ch=10 n=57 v=0
39000 On ch=10 n=44 v=127
39000 On ch=10 n=36 v=127
39000 On ch=10 n=40 v=127
39030 On ch=10 n=40 v=0
39030 On ch=10 n=44 v=0
39060 On ch=10 n=36 v=0
39060 On ch=10 n=51 v=127
39090 On ch=10 n=51 v=0
39120 On ch=10 n=44 v=127
39120 On ch=10 n=36 v=127
39150 On ch=10 n=44 v=0
39180 On ch=10 n=36 v=0
39180 On ch=10 n=51 v=127
39210 On ch=10 n=51 v=0
39240 On ch=10 n=44 v=127
39240 On ch=10 n=36 v=127
39240 On ch=10 n=40 v=127
39270 On ch=10 n=44 v=0
39300 On ch=10 n=40 v=0
39300 On ch=10 n=36 v=0
39300 On ch=10 n=51 v=127
39330 On ch=10 n=51 v=0
39360 On ch=10 n=44 v=127
39360 On ch=10 n=36 v=127
39390 On ch=10 n=44 v=0
39420 On ch=10 n=36 v=0
39420 On ch=10 n=51 v=127
39450 On ch=10 n=51 v=0
39480 On ch=10 n=44 v=117
39480 On ch=10 n=36 v=127
39480 On ch=10 n=40 v=127
39510 On ch=10 n=40 v=0
39510 On ch=10 n=44 v=0
39540 On ch=10 n=36 v=0
39540 On ch=10 n=51 v=124
39570 On ch=10 n=51 v=0
39600 On ch=10 n=44 v=119
39600 On ch=10 n=36 v=125
39660 On ch=10 n=36 v=0
39660 On ch=10 n=44 v=0
39660 On ch=10 n=51 v=127
39690 On ch=10 n=51 v=0
39720 On ch=10 n=44 v=111
39720 On ch=10 n=36 v=120
39720 On ch=10 n=40 v=120
39780 On ch=10 n=40 v=0
39780 On ch=10 n=36 v=0
39780 On ch=10 n=44 v=0
39780 On ch=10 n=51 v=118
39810 On ch=10 n=51 v=0
39840 On ch=10 n=44 v=107
39840 On ch=10 n=36 v=115
39900 On ch=10 n=36 v=0
39900 On ch=10 n=44 v=0
39900 On ch=10 n=51 v=113
39930 On ch=10 n=51 v=0
39960 On ch=10 n=44 v=108
39960 On ch=10 n=36 v=115
39960 On ch=10 n=40 v=115
39990 On ch=10 n=44 v=0
40020 On ch=10 n=40 v=0
40020 On ch=10 n=36 v=0
40020 On ch=10 n=51 v=108
40050 On ch=10 n=51 v=0
40080 On ch=10 n=44 v=100
40080 On ch=10 n=36 v=106
40110 On ch=10 n=44 v=0
40140 On ch=10 n=36 v=0
40140 On ch=10 n=51 v=102
40170 On ch=10 n=51 v=0
40200 On ch=10 n=44 v=104
40200 On ch=10 n=36 v=104
40200 On ch=10 n=40 v=100
40230 On ch=10 n=40 v=0
40230 On ch=10 n=44 v=0
40260 On ch=10 n=36 v=0
40260 On ch=10 n=51 v=95
40290 On ch=10 n=51 v=0
40320 On ch=10 n=44 v=92
40320 On ch=10 n=36 v=95
40350 On ch=10 n=44 v=0
40380 On ch=10 n=36 v=0
40380 On ch=10 n=51 v=88
40410 On ch=10 n=51 v=0
40440 On ch=10 n=44 v=88
40440 On ch=10 n=36 v=90
40440 On ch=10 n=40 v=93
40470 On ch=10 n=40 v=0
40470 On ch=10 n=44 v=0
40500 On ch=10 n=36 v=0
40500 On ch=10 n=51 v=87
40530 On ch=10 n=51 v=0
40560 On ch=10 n=44 v=88
40560 On ch=10 n=36 v=85
40620 On ch=10 n=36 v=0
40620 On ch=10 n=44 v=0
40620 On ch=10 n=51 v=82
40650 On ch=10 n=51 v=0
40680 On ch=10 n=46 v=83
40680 On ch=10 n=36 v=83
40680 On ch=10 n=40 v=83
40710 On ch=10 n=40 v=0
40710 On ch=10 n=46 v=0
40740 On ch=10 n=36 v=0
40740 On ch=10 n=51 v=81
40770 On ch=10 n=51 v=0
40770 On ch=10 n=40 v=80
40800 On ch=10 n=40 v=0
40800 On ch=10 n=55 v=78
40800 On ch=10 n=44 v=78
40800 On ch=10 n=36 v=78
40830 On ch=10 n=44 v=0
40860 On ch=10 n=36 v=0
40860 On ch=10 n=51 v=73
40890 On ch=10 n=51 v=0
40890 On ch=10 n=55 v=0
40920 On ch=10 n=44 v=73
40920 On ch=10 n=36 v=73
40920 On ch=10 n=40 v=69
40950 On ch=10 n=44 v=0
40980 On ch=10 n=40 v=0
40980 On ch=10 n=36 v=0
40980 On ch=10 n=51 v=71
41010 On ch=10 n=51 v=0
41040 On ch=10 n=44 v=64
41040 On ch=10 n=36 v=65
41070 On ch=10 n=44 v=0
41100 On ch=10 n=36 v=0
41100 On ch=10 n=51 v=66
41130 On ch=10 n=51 v=0
41160 On ch=10 n=44 v=59
41160 On ch=10 n=36 v=59
41160 On ch=10 n=40 v=63
41190 On ch=10 n=44 v=0
41220 On ch=10 n=40 v=0
41220 On ch=10 n=36 v=0
41220 On ch=10 n=51 v=58
41250 On ch=10 n=51 v=0
41280 On ch=10 n=44 v=54
41280 On ch=10 n=36 v=54
41310 On ch=10 n=44 v=0
41340 On ch=10 n=36 v=0
41340 On ch=10 n=51 v=52
41370 On ch=10 n=51 v=0
41400 On ch=10 n=44 v=48
41400 On ch=10 n=36 v=52
41400 On ch=10 n=40 v=48
41430 On ch=10 n=44 v=0
41460 On ch=10 n=40 v=0
41460 On ch=10 n=36 v=0
41460 On ch=10 n=51 v=47
41490 On ch=10 n=51 v=0
41520 On ch=10 n=44 v=41
41520 On ch=10 n=36 v=42
41550 On ch=10 n=44 v=0
41580 On ch=10 n=36 v=0
41580 On ch=10 n=51 v=42
41610 On ch=10 n=51 v=0
41640 On ch=10 n=44 v=40
41640 On ch=10 n=36 v=38
41640 On ch=10 n=40 v=40
41670 On ch=10 n=44 v=0
41700 On ch=10 n=40 v=0
41700 On ch=10 n=36 v=0
41700 On ch=10 n=51 v=39
41730 On ch=10 n=51 v=0
41760 On ch=10 n=44 v=32
41760 On ch=10 n=36 v=34
41790 On ch=10 n=44 v=0
41820 On ch=10 n=36 v=0
41820 On ch=10 n=51 v=32
41850 On ch=10 n=51 v=0
41880 On ch=10 n=44 v=29
41880 On ch=10 n=36 v=29
41880 On ch=10 n=40 v=30
41910 On ch=10 n=44 v=0
41940 On ch=10 n=40 v=0
41940 On ch=10 n=36 v=0
41940 On ch=10 n=51 v=27
41970 On ch=10 n=51 v=0
42000 On ch=10 n=44 v=24
42000 On ch=10 n=36 v=24
42030 On ch=10 n=44 v=0
42060 On ch=10 n=36 v=0
42060 On ch=10 n=51 v=22
42090 On ch=10 n=51 v=0
42120 On ch=10 n=44 v=20
42120 On ch=10 n=36 v=19
42120 On ch=10 n=40 v=20
42150 On ch=10 n=44 v=0
42180 On ch=10 n=40 v=0
42180 On ch=10 n=36 v=0
42180 On ch=10 n=51 v=18
42210 On ch=10 n=51 v=0
42240 On ch=10 n=44 v=0
42240 On ch=10 n=36 v=0
42270 On ch=10 n=44 v=0
42300 On ch=10 n=36 v=0
42300 On ch=10 n=51 v=0
42330 On ch=10 n=51 v=0
42360 On ch=10 n=44 v=0
42360 On ch=10 n=40 v=0
42360 On ch=10 n=36 v=0
42390 On ch=10 n=44 v=0
42420 On ch=10 n=36 v=0
42420 On ch=10 n=40 v=0
42420 On ch=10 n=51 v=0
42450 On ch=10 n=51 v=0
42480 On ch=10 n=44 v=0
42480 On ch=10 n=36 v=0
42540 On ch=10 n=36 v=0
42540 On ch=10 n=44 v=0
42540 On ch=10 n=51 v=0
42570 On ch=10 n=51 v=0
42600 On ch=10 n=46 v=0
42600 On ch=10 n=40 v=0
42600 On ch=10 n=36 v=0
42630 On ch=10 n=40 v=0
42630 On ch=10 n=46 v=0
42630 On ch=10 n=40 v=0
42660 On ch=10 n=40 v=0
42660 On ch=10 n=36 v=0
42660 On ch=10 n=51 v=0
42660 On ch=10 n=40 v=0
42690 On ch=10 n=40 v=0
42690 On ch=10 n=51 v=0
42690 Meta TrkEnd
TrkEnd
