MFile 1 18 120
MTrk
0 TimeSig 4/4 24 8
0 KeySig 0 major
0 Tempo 394737
0 Meta Marker "untitled"
0 Meta Marker "untitled"
0 Meta Marker "Occhi di gatto   By  Gabrio \"KBL\" Secco"
0 Meta TrkEnd
TrkEnd
MTrk
0 Meta TrkName "Soft karaoke"
0 Meta Text "@KMIDI KARAOKE FILE"
0 Meta TrkEnd
TrkEnd
MTrk
0 Meta TrkName "Words"
0 Meta Text "@LENGL"
0 Meta Text "@T Occhi Di Gatto (Valeri Manera, Carucci)(Cristina D'Avena)"
0 Meta Text "@T By  Gabrio \"KBL\" Secco"
0 Meta Text "@T Karaoche By Vittorio Ricco * 04-12-1999"
0 Meta Text "@T http://pueri.freeweb.org"
4443 Meta Text "\\Tre"
4499 Meta Text " ra"
4560 Meta Text "ga"
4619 Meta Text "zze"
4677 Meta Text " be"
4797 Meta Text "lli"
4912 Meta Text "ssi"
4977 Meta Text "me"
5397 Meta Text "/tre"
5458 Meta Text " so"
5514 Meta Text "re"
5574 Meta Text "lle"
5640 Meta Text " fur"
5757 Meta Text "bi"
5881 Meta Text "ssi"
5945 Meta Text "me"
6360 Meta Text "/son"
6419 Meta Text " tre"
6479 Meta Text " ladre"
6540 Meta Text " a"
6601 Meta Text "bi"
6717 Meta Text "li"
6832 Meta Text "ssi"
6896 Meta Text "me"
7321 Meta Text "/molto"
7377 Meta Text " sve"
7436 Meta Text "glie"
7498 Meta Text " a"
7561 Meta Text "gi"
7677 Meta Text "li"
7798 Meta Text "ssi"
7861 Meta Text "me."
8042 Meta Text "/Con"
8096 Meta Text " a"
8159 Meta Text "stu"
8284 Meta Text "zia"
8523 Meta Text " e"
8582 Meta Text " pe"
8643 Meta Text "ri"
8766 Meta Text "zia"
9005 Meta Text "/ed"
9062 Meta Text " u"
9121 Meta Text "nen"
9181 Meta Text "do"
9242 Meta Text " sempre"
9299 Meta Text " un"
9361 Meta Text " po"
9421 Meta Text "co"
9480 Meta Text " di"
9539 Meta Text " fur"
9600 Meta Text "bi"
9714 Meta Text "zia"
9956 Meta Text "/riescon"
10019 Meta Text " se"
10077 Meta Text "mpre"
10251 Meta Text " a"
10440 Meta Text " fu"
10558 Meta Text "ggi"
10743 Meta Text "re"
11158 Meta Text "/e"
11215 Meta Text " nel"
11275 Meta Text " nu"
11333 Meta Text "lla"
11397 Meta Text " spa"
11508 Meta Text "ri"
11690 Meta Text "re."
11877 Meta Text " (spa"
12001 Meta Text "ri"
12182 Meta Text "re)"
12488 Meta Text "\\Oh"
12604 Meta Text " Oh"
12727 Meta Text " Oh"
12902 Meta Text " O"
13016 Meta Text "cchi"
13071 Meta Text " di"
13136 Meta Text " ga"
13322 Meta Text "tto"
13443 Meta Text "/Oh"
13563 Meta Text " Oh"
13681 Meta Text " Oh"
13865 Meta Text " O"
13978 Meta Text "cchi"
14034 Meta Text " di"
14097 Meta Text " ga"
14274 Meta Text "tto"
14463 Meta Text "/\xe8"
14521 Meta Text " questo"
14582 Meta Text " il"
14644 Meta Text " no"
14704 Meta Text "me"
14765 Meta Text " del"
14825 Meta Text " tri"
14888 Meta Text "o"
14950 Meta Text " co"
15071 Meta Text "mpa"
15192 Meta Text "tto"
15425 Meta Text "/son"
15483 Meta Text " tre"
15545 Meta Text " so"
15604 Meta Text "relle"
15661 Meta Text " che"
15723 Meta Text " han"
15785 Meta Text " fatto"
15899 Meta Text " un"
16022 Meta Text " pa"
16145 Meta Text "tto."
16324 Meta Text "/Oh"
16441 Meta Text " Oh"
16564 Meta Text " Oh"
16742 Meta Text " O"
16865 Meta Text "cchi"
16923 Meta Text " di"
16980 Meta Text " ga"
17156 Meta Text "tto"
17276 Meta Text "/Oh"
17397 Meta Text " Oh"
17517 Meta Text " Oh"
17700 Meta Text " O"
17814 Meta Text "cchi"
17871 Meta Text " di"
17933 Meta Text " ga"
18109 Meta Text "tto"
18305 Meta Text "/Ecco"
18363 Meta Text " ha"
18419 Meta Text " co"
18477 Meta Text "lpi"
18537 Meta Text "to"
18595 Meta Text " l\xe0,"
18661 Meta Text " di"
18782 Meta Text " so"
18905 Meta Text "ppia"
19028 Meta Text "tto"
19261 Meta Text "/fu"
19317 Meta Text "gge"
19381 Meta Text "ndo"
19443 Meta Text " poi"
19498 Meta Text " con"
19557 Meta Text " un'a"
19618 Meta Text "gi"
19737 Meta Text "le"
19799 Meta Text " sca"
19863 Meta Text "tt"
19980 Meta Text "o"
20223 Meta Text "/O"
20284 Meta Text "cchi"
20341 Meta Text " di"
20401 Meta Text " ga"
20460 Meta Text "tto"
20521 Meta Text " un'altro"
20580 Meta Text " col"
20641 Meta Text "po"
20702 Meta Text " e'"
20769 Meta Text " sta"
20826 Meta Text "to"
20888 Meta Text " fa"
21008 Meta Text "tto."
25083 Meta Text "\\Tre"
25139 Meta Text " ra"
25200 Meta Text "ga"
25259 Meta Text "zze"
25317 Meta Text " be"
25437 Meta Text "lli"
25552 Meta Text "ssi"
25617 Meta Text "me"
26037 Meta Text "/tre"
26098 Meta Text " so"
26154 Meta Text "re"
26214 Meta Text "lle"
26280 Meta Text " fur"
26397 Meta Text "bi"
26521 Meta Text "ssi"
26585 Meta Text "me"
27000 Meta Text "/son"
27059 Meta Text " tre"
27119 Meta Text " ladre"
27180 Meta Text " a"
27241 Meta Text "bi"
27357 Meta Text "li"
27472 Meta Text "ssi"
27536 Meta Text "me"
27961 Meta Text "/molto"
28017 Meta Text " sve"
28076 Meta Text "glie"
28138 Meta Text " a"
28201 Meta Text "gi"
28317 Meta Text "li"
28438 Meta Text "ssi"
28501 Meta Text "me."
28682 Meta Text "/Con"
28736 Meta Text " a"
28799 Meta Text "stu"
28924 Meta Text "zia"
29163 Meta Text " e"
29222 Meta Text " pe"
29283 Meta Text "ri"
29406 Meta Text "zia"
29645 Meta Text "/ed"
29702 Meta Text " u"
29761 Meta Text "nen"
29821 Meta Text "do"
29882 Meta Text " sempre"
29939 Meta Text " un"
30001 Meta Text " po"
30061 Meta Text "co"
30120 Meta Text " di"
30179 Meta Text " fur"
30240 Meta Text "bi"
30354 Meta Text "zia"
30596 Meta Text "/riescon"
30659 Meta Text " se"
30717 Meta Text "mpre"
30891 Meta Text " a"
31080 Meta Text " fu"
31198 Meta Text "ggi"
31383 Meta Text "re"
31798 Meta Text "/e"
31855 Meta Text " nel"
31915 Meta Text " nu"
31973 Meta Text "lla"
32037 Meta Text " spa"
32148 Meta Text "ri"
32330 Meta Text "re."
32517 Meta Text " (spa"
32641 Meta Text "ri"
32822 Meta Text "re)"
33128 Meta Text "\\Oh"
33244 Meta Text " Oh"
33367 Meta Text " Oh"
33542 Meta Text " O"
33656 Meta Text "cchi"
33711 Meta Text " di"
33776 Meta Text " ga"
33962 Meta Text "tto"
34083 Meta Text "/Oh"
34203 Meta Text " Oh"
34321 Meta Text " Oh"
34505 Meta Text " O"
34618 Meta Text "cchi"
34674 Meta Text " di"
34737 Meta Text " ga"
34914 Meta Text "tto"
35103 Meta Text "/\xe8"
35161 Meta Text " questo"
35222 Meta Text " il"
35284 Meta Text " no"
35344 Meta Text "me"
35405 Meta Text " del"
35465 Meta Text " tri"
35528 Meta Text "o"
35590 Meta Text " co"
35711 Meta Text "mpa"
35832 Meta Text "tto"
36065 Meta Text "/son"
36123 Meta Text " tre"
36185 Meta Text " so"
36244 Meta Text "relle"
36301 Meta Text " che"
36363 Meta Text " han"
36425 Meta Text " fatto"
36539 Meta Text " un"
36662 Meta Text " pa"
36785 Meta Text "tto."
36964 Meta Text "/Oh"
37081 Meta Text " Oh"
37204 Meta Text " Oh"
37382 Meta Text " O"
37505 Meta Text "cchi"
37563 Meta Text " di"
37620 Meta Text " ga"
37796 Meta Text "tto"
37916 Meta Text "/Oh"
38037 Meta Text " Oh"
38157 Meta Text " Oh"
38340 Meta Text " O"
38454 Meta Text "cchi"
38511 Meta Text " di"
38573 Meta Text " ga"
38749 Meta Text "tto"
38945 Meta Text "/Ecco"
39003 Meta Text " ha"
39059 Meta Text " co"
39117 Meta Text "lpi"
39177 Meta Text "to"
39235 Meta Text " l\xe0,"
39301 Meta Text " di"
39422 Meta Text " so"
39545 Meta Text "ppia"
39668 Meta Text "tto"
39901 Meta Text "/fu"
39957 Meta Text "gge"
40021 Meta Text "ndo"
40083 Meta Text " poi"
40138 Meta Text " con"
40197 Meta Text " un'a"
40258 Meta Text "gi"
40377 Meta Text "le"
40439 Meta Text " sca"
40503 Meta Text "tt"
40620 Meta Text "o"
40869 Meta Text "/O"
40925 Meta Text "cchi"
40987 Meta Text " di"
41046 Meta Text " ga"
41103 Meta Text "tto"
41164 Meta Text " un'altro"
41219 Meta Text " col"
41281 Meta Text "po"
41340 Meta Text " e'"
41412 Meta Text " sta"
41465 Meta Text "to"
41528 Meta Text " fa"
41651 Meta Text "tto."
45608 Meta Text "\\Oh"
45724 Meta Text " Oh"
45847 Meta Text " Oh"
46022 Meta Text " O"
46136 Meta Text "cchi"
46191 Meta Text " di"
46256 Meta Text " ga"
46442 Meta Text "tto"
46563 Meta Text "/Oh"
46683 Meta Text " Oh"
46801 Meta Text " Oh"
46985 Meta Text " O"
47098 Meta Text "cchi"
47154 Meta Text " di"
47217 Meta Text " ga"
47394 Meta Text "tto"
47583 Meta Text "/\xe8"
47641 Meta Text " questo"
47702 Meta Text " il"
47764 Meta Text " no"
47824 Meta Text "me"
47885 Meta Text " del"
47945 Meta Text " tri"
48008 Meta Text "o"
48070 Meta Text " co"
48191 Meta Text "mpa"
48312 Meta Text "tto"
48545 Meta Text "/son"
48603 Meta Text " tre"
48665 Meta Text " so"
48724 Meta Text "relle"
48781 Meta Text " che"
48843 Meta Text " han"
48905 Meta Text " fatto"
49019 Meta Text " un"
49142 Meta Text " pa"
49265 Meta Text "tto."
49444 Meta Text "/Oh"
49561 Meta Text " Oh"
49684 Meta Text " Oh"
49862 Meta Text " O"
49985 Meta Text "cchi"
50043 Meta Text " di"
50100 Meta Text " ga"
50276 Meta Text "tto"
50396 Meta Text "/Oh"
50517 Meta Text " Oh"
50637 Meta Text " Oh"
50820 Meta Text " O"
50934 Meta Text "cchi"
50991 Meta Text " di"
51053 Meta Text " ga"
51229 Meta Text "tto"
51425 Meta Text "/Ecco"
51483 Meta Text " ha"
51539 Meta Text " co"
51597 Meta Text "lpi"
51657 Meta Text "to"
51715 Meta Text " l\xe0,"
51781 Meta Text " di"
51902 Meta Text " so"
52025 Meta Text "ppia"
52148 Meta Text "tto"
52381 Meta Text "/fu"
52437 Meta Text "gge"
52501 Meta Text "ndo"
52563 Meta Text " poi"
52618 Meta Text " con"
52677 Meta Text " un'a"
52738 Meta Text "gi"
52857 Meta Text "le"
52919 Meta Text " sca"
52983 Meta Text "tt"
53100 Meta Text "o"
53288 Meta Text "/Oh"
53404 Meta Text " Oh"
53527 Meta Text " Oh"
53702 Meta Text " O"
53816 Meta Text "cchi"
53871 Meta Text " di"
53936 Meta Text " ga"
54122 Meta Text "tto"
54243 Meta Text "/Oh"
54363 Meta Text " Oh"
54481 Meta Text " Oh"
54665 Meta Text " O"
54778 Meta Text "cchi"
54834 Meta Text " di"
54897 Meta Text " ga"
55074 Meta Text "tto"
55263 Meta Text "/\xe8"
55321 Meta Text " questo"
55382 Meta Text " il"
55444 Meta Text " no"
55504 Meta Text "me"
55565 Meta Text " del"
55625 Meta Text " tri"
55688 Meta Text "o"
55750 Meta Text " co"
55871 Meta Text "mpa"
55992 Meta Text "tto"
56225 Meta Text "/son"
56283 Meta Text " tre"
56345 Meta Text " so"
56404 Meta Text "relle"
56461 Meta Text " che"
56523 Meta Text " han"
56585 Meta Text " fatto"
56699 Meta Text " un"
56822 Meta Text " pa"
56945 Meta Text "tto."
57124 Meta Text "/Oh"
57241 Meta Text " Oh"
57364 Meta Text " Oh"
57542 Meta Text " O"
57665 Meta Text "cchi"
57723 Meta Text " di"
57780 Meta Text " ga"
57956 Meta Text "tto"
58076 Meta Text "/Oh"
58197 Meta Text " Oh"
58317 Meta Text " Oh"
58500 Meta Text " O"
58614 Meta Text "cchi"
58671 Meta Text " di"
58733 Meta Text " ga"
58909 Meta Text "tto"
59105 Meta Text "/\xe8"
59163 Meta Text " questo"
59219 Meta Text " il"
59277 Meta Text " no"
59337 Meta Text "me"
59395 Meta Text " del"
59461 Meta Text " tri"
59582 Meta Text "o"
59705 Meta Text " co"
59828 Meta Text "mpa"
60061 Meta Text "tto"
60117 Meta Text "/son"
60181 Meta Text " tre"
60243 Meta Text " so"
60298 Meta Text "relle"
60357 Meta Text " che"
60418 Meta Text " han"
60537 Meta Text " fatto"
60599 Meta Text " un"
60663 Meta Text " pa"
60780 Meta Text "tto."
60968 Meta Text "/Oh"
61084 Meta Text " Oh"
61207 Meta Text " Oh"
61382 Meta Text " O"
61496 Meta Text "cchi"
61551 Meta Text " di"
61616 Meta Text " ga"
61802 Meta Text "tto"
61923 Meta Text "/Oh"
62043 Meta Text " Oh"
62161 Meta Text " Oh"
62345 Meta Text " O"
62458 Meta Text "cchi"
62514 Meta Text " di"
62577 Meta Text " ga"
62754 Meta Text "tto"
62943 Meta Text "/\xe8"
63001 Meta Text " questo"
63062 Meta Text " il"
63124 Meta Text " no"
63184 Meta Text "me"
63245 Meta Text " del"
63305 Meta Text " tri"
63368 Meta Text "o"
63430 Meta Text " co"
63551 Meta Text "mpa"
63672 Meta Text "tto"
63905 Meta Text "/son"
63963 Meta Text " tre"
64025 Meta Text " so"
64084 Meta Text "relle"
64141 Meta Text " che"
64203 Meta Text " han"
64265 Meta Text " fatto"
64379 Meta Text " un"
64502 Meta Text " pa"
64625 Meta Text "tto."
64625 Meta TrkEnd
TrkEnd
MTrk
0 Meta 0x21 00
0 Meta TrkName "Occhi Di Gatto (Valeri Manera, Carucci)"
0 PrCh ch=2 p=65
0 Par ch=2 c=7 v=120
0 Par ch=2 c=10 v=65
0 Par ch=2 c=93 v=72
0 Par ch=2 c=91 v=86
480 On ch=2 n=69 v=127
596 On ch=2 n=66 v=127
597 On ch=2 n=69 v=0
650 On ch=2 n=66 v=0
660 On ch=2 n=69 v=127
729 On ch=2 n=69 v=0
1024 On ch=2 n=74 v=125
1048 On ch=2 n=74 v=0
1081 On ch=2 n=74 v=125
1139 On ch=2 n=73 v=127
1145 On ch=2 n=74 v=0
1161 On ch=2 n=73 v=0
1200 On ch=2 n=73 v=127
1254 On ch=2 n=73 v=0
1264 On ch=2 n=71 v=125
1288 On ch=2 n=71 v=0
1318 On ch=2 n=71 v=122
1359 On ch=2 n=71 v=0
1375 On ch=2 n=69 v=127
1397 On ch=2 n=69 v=0
1437 On ch=2 n=67 v=127
1554 On ch=2 n=67 v=0
1554 On ch=2 n=64 v=125
1607 On ch=2 n=64 v=0
1618 On ch=2 n=67 v=127
1675 On ch=2 n=67 v=0
2394 On ch=2 n=69 v=127
2512 On ch=2 n=69 v=0
2512 On ch=2 n=66 v=127
2566 On ch=2 n=66 v=0
2572 On ch=2 n=69 v=127
2622 On ch=2 n=69 v=0
2947 On ch=2 n=74 v=127
2970 On ch=2 n=74 v=0
3008 On ch=2 n=74 v=127
3060 On ch=2 n=73 v=127
3069 On ch=2 n=74 v=0
3078 On ch=2 n=73 v=0
3121 On ch=2 n=73 v=127
3175 On ch=2 n=73 v=0
3182 On ch=2 n=71 v=120
3207 On ch=2 n=71 v=0
3239 On ch=2 n=71 v=117
3281 On ch=2 n=71 v=0
3296 On ch=2 n=69 v=127
3322 On ch=2 n=69 v=0
3359 On ch=2 n=67 v=127
3476 On ch=2 n=64 v=120
3477 On ch=2 n=67 v=0
3533 On ch=2 n=64 v=0
3543 On ch=2 n=67 v=127
3604 On ch=2 n=67 v=0
3772 On ch=2 n=67 v=125
3807 On ch=2 n=67 v=0
3844 On ch=2 n=69 v=125
3887 On ch=2 n=69 v=0
3898 On ch=2 n=69 v=114
3941 On ch=2 n=69 v=0
3954 On ch=2 n=67 v=120
3997 On ch=2 n=67 v=0
4008 On ch=2 n=67 v=108
4058 On ch=2 n=67 v=0
4066 On ch=2 n=66 v=127
4114 On ch=2 n=66 v=0
4125 On ch=2 n=66 v=107
4166 On ch=2 n=66 v=0
4183 On ch=2 n=64 v=120
4234 On ch=2 n=64 v=0
4241 On ch=2 n=64 v=106
4293 On ch=2 n=64 v=0
4311 On ch=2 n=62 v=127
4375 On ch=2 n=62 v=0
4436 On ch=2 n=62 v=91
4457 On ch=2 n=62 v=0
4675 On ch=2 n=62 v=84
4693 On ch=2 n=62 v=0
5039 On ch=2 n=62 v=85
5090 On ch=2 n=62 v=0
5099 On ch=2 n=62 v=80
5130 On ch=2 n=62 v=0
5159 On ch=2 n=62 v=92
5212 On ch=2 n=62 v=0
5218 On ch=2 n=62 v=88
5333 On ch=2 n=62 v=0
5459 On ch=2 n=55 v=102
5472 On ch=2 n=55 v=0
5581 On ch=2 n=55 v=110
5599 On ch=2 n=55 v=0
5768 On ch=2 n=61 v=60
5784 On ch=2 n=61 v=0
5881 On ch=2 n=61 v=87
5901 On ch=2 n=61 v=0
6003 On ch=2 n=61 v=127
6024 On ch=2 n=61 v=0
6122 On ch=2 n=64 v=125
6199 On ch=2 n=64 v=0
6207 On ch=2 n=66 v=116
6229 On ch=2 n=66 v=0
6238 On ch=2 n=62 v=122
6282 On ch=2 n=62 v=0
6592 On ch=2 n=62 v=80
6605 On ch=2 n=62 v=0
6955 On ch=2 n=62 v=65
6968 On ch=2 n=62 v=0
7016 On ch=2 n=62 v=81
7038 On ch=2 n=62 v=0
7080 On ch=2 n=62 v=100
7129 On ch=2 n=62 v=0
7136 On ch=2 n=62 v=92
7250 On ch=2 n=62 v=0
7680 On ch=2 n=61 v=89
7727 On ch=2 n=61 v=0
7740 On ch=2 n=61 v=79
7742 On ch=2 n=64 v=77
7763 On ch=2 n=64 v=0
7772 On ch=2 n=61 v=0
7799 On ch=2 n=61 v=113
7805 On ch=2 n=64 v=91
7848 On ch=2 n=64 v=0
7857 On ch=2 n=64 v=106
7897 On ch=2 n=64 v=0
7907 On ch=2 n=61 v=0
7916 On ch=2 n=61 v=93
7919 On ch=2 n=64 v=95
7986 On ch=2 n=61 v=0
7999 On ch=2 n=64 v=0
13289 Pb ch=2 v=7606
13293 Pb ch=2 v=6553
13298 Pb ch=2 v=5734
13303 Pb ch=2 v=5149
13308 Pb ch=2 v=4798
13312 Pb ch=2 v=4564
13317 Pb ch=2 v=4798
13318 On ch=2 n=69 v=80
13321 On ch=2 n=74 v=127
13323 Pb ch=2 v=5149
13327 Pb ch=2 v=5968
13332 Pb ch=2 v=7021
13337 Pb ch=2 v=8074
13341 Pb ch=2 v=8192
13359 On ch=2 n=69 v=0
13378 On ch=2 n=69 v=81
13385 On ch=2 n=73 v=123
13390 On ch=2 n=74 v=0
13488 On ch=2 n=69 v=0
13500 On ch=2 n=73 v=0
14246 Pb ch=2 v=7606
14249 Pb ch=2 v=6436
14254 Pb ch=2 v=5383
14259 Pb ch=2 v=4330
14264 Pb ch=2 v=3511
14269 Pb ch=2 v=3277
14276 On ch=2 n=66 v=67
14279 Pb ch=2 v=3511
14281 On ch=2 n=69 v=122
14284 Pb ch=2 v=4213
14288 Pb ch=2 v=5032
14293 Pb ch=2 v=6085
14298 Pb ch=2 v=7138
14303 Pb ch=2 v=8074
14307 Pb ch=2 v=8192
14326 On ch=2 n=66 v=0
14340 On ch=2 n=62 v=66
14343 On ch=2 n=67 v=112
14347 On ch=2 n=69 v=0
14442 On ch=2 n=62 v=0
14458 On ch=2 n=67 v=0
17129 Pb ch=2 v=7606
17133 Pb ch=2 v=6553
17138 Pb ch=2 v=5734
17143 Pb ch=2 v=5149
17148 Pb ch=2 v=4798
17152 Pb ch=2 v=4564
17157 Pb ch=2 v=4798
17158 On ch=2 n=69 v=80
17161 On ch=2 n=74 v=127
17163 Pb ch=2 v=5149
17167 Pb ch=2 v=5968
17172 Pb ch=2 v=7021
17177 Pb ch=2 v=8074
17181 Pb ch=2 v=8192
17199 On ch=2 n=69 v=0
17218 On ch=2 n=69 v=81
17225 On ch=2 n=73 v=123
17230 On ch=2 n=74 v=0
17328 On ch=2 n=69 v=0
17340 On ch=2 n=73 v=0
18086 Pb ch=2 v=7606
18089 Pb ch=2 v=6436
18094 Pb ch=2 v=5383
18099 Pb ch=2 v=4330
18104 Pb ch=2 v=3511
18109 Pb ch=2 v=3277
18116 On ch=2 n=66 v=67
18119 Pb ch=2 v=3511
18121 On ch=2 n=69 v=122
18124 Pb ch=2 v=4213
18128 Pb ch=2 v=5032
18133 Pb ch=2 v=6085
18138 Pb ch=2 v=7138
18143 Pb ch=2 v=8074
18147 Pb ch=2 v=8192
18166 On ch=2 n=66 v=0
18180 On ch=2 n=62 v=66
18183 On ch=2 n=67 v=112
18187 On ch=2 n=69 v=0
18282 On ch=2 n=62 v=0
18298 On ch=2 n=67 v=0
20160 On ch=2 n=47 v=80
20284 On ch=2 n=59 v=83
20289 On ch=2 n=62 v=88
20558 On ch=2 n=59 v=0
20561 On ch=2 n=47 v=0
20562 On ch=2 n=62 v=0
20576 On ch=2 n=59 v=102
20576 On ch=2 n=62 v=98
20643 On ch=2 n=62 v=0
20645 On ch=2 n=59 v=0
20703 On ch=2 n=62 v=94
20703 On ch=2 n=59 v=94
20766 On ch=2 n=62 v=0
20767 On ch=2 n=59 v=0
20817 On ch=2 n=59 v=98
20819 On ch=2 n=62 v=98
20859 On ch=2 n=62 v=0
20862 On ch=2 n=59 v=0
20883 On ch=2 n=64 v=97
20883 On ch=2 n=61 v=127
20886 On ch=2 n=62 v=84
20898 On ch=2 n=62 v=0
20953 On ch=2 n=61 v=0
20958 On ch=2 n=64 v=0
21120 On ch=2 n=69 v=127
21236 On ch=2 n=66 v=127
21237 On ch=2 n=69 v=0
21290 On ch=2 n=66 v=0
21300 On ch=2 n=69 v=127
21369 On ch=2 n=69 v=0
21664 On ch=2 n=74 v=125
21688 On ch=2 n=74 v=0
21721 On ch=2 n=74 v=125
21779 On ch=2 n=73 v=127
21785 On ch=2 n=74 v=0
21801 On ch=2 n=73 v=0
21840 On ch=2 n=73 v=127
21894 On ch=2 n=73 v=0
21904 On ch=2 n=71 v=125
21928 On ch=2 n=71 v=0
21958 On ch=2 n=71 v=122
21999 On ch=2 n=71 v=0
22015 On ch=2 n=69 v=127
22037 On ch=2 n=69 v=0
22077 On ch=2 n=67 v=127
22194 On ch=2 n=67 v=0
22194 On ch=2 n=64 v=125
22247 On ch=2 n=64 v=0
22258 On ch=2 n=67 v=127
22315 On ch=2 n=67 v=0
23034 On ch=2 n=69 v=127
23152 On ch=2 n=69 v=0
23152 On ch=2 n=66 v=127
23206 On ch=2 n=66 v=0
23212 On ch=2 n=69 v=127
23262 On ch=2 n=69 v=0
23587 On ch=2 n=74 v=127
23610 On ch=2 n=74 v=0
23648 On ch=2 n=74 v=127
23700 On ch=2 n=73 v=127
23709 On ch=2 n=74 v=0
23718 On ch=2 n=73 v=0
23761 On ch=2 n=73 v=127
23815 On ch=2 n=73 v=0
23822 On ch=2 n=71 v=120
23847 On ch=2 n=71 v=0
23879 On ch=2 n=71 v=117
23921 On ch=2 n=71 v=0
23936 On ch=2 n=69 v=127
23962 On ch=2 n=69 v=0
23999 On ch=2 n=67 v=127
24116 On ch=2 n=64 v=120
24117 On ch=2 n=67 v=0
24173 On ch=2 n=64 v=0
24183 On ch=2 n=67 v=127
24244 On ch=2 n=67 v=0
24412 On ch=2 n=67 v=125
24447 On ch=2 n=67 v=0
24484 On ch=2 n=69 v=125
24527 On ch=2 n=69 v=0
24538 On ch=2 n=69 v=114
24581 On ch=2 n=69 v=0
24594 On ch=2 n=67 v=120
24637 On ch=2 n=67 v=0
24648 On ch=2 n=67 v=108
24698 On ch=2 n=67 v=0
24706 On ch=2 n=66 v=127
24754 On ch=2 n=66 v=0
24765 On ch=2 n=66 v=107
24806 On ch=2 n=66 v=0
24823 On ch=2 n=64 v=120
24874 On ch=2 n=64 v=0
24881 On ch=2 n=64 v=106
24933 On ch=2 n=64 v=0
24951 On ch=2 n=62 v=127
25015 On ch=2 n=62 v=0
25076 On ch=2 n=62 v=91
25097 On ch=2 n=62 v=0
25315 On ch=2 n=62 v=84
25333 On ch=2 n=62 v=0
25679 On ch=2 n=62 v=85
25730 On ch=2 n=62 v=0
25739 On ch=2 n=62 v=80
25770 On ch=2 n=62 v=0
25799 On ch=2 n=62 v=92
25852 On ch=2 n=62 v=0
25858 On ch=2 n=62 v=88
25973 On ch=2 n=62 v=0
26099 On ch=2 n=55 v=102
26112 On ch=2 n=55 v=0
26221 On ch=2 n=55 v=110
26239 On ch=2 n=55 v=0
26408 On ch=2 n=61 v=60
26424 On ch=2 n=61 v=0
26521 On ch=2 n=61 v=87
26541 On ch=2 n=61 v=0
26643 On ch=2 n=61 v=127
26664 On ch=2 n=61 v=0
26762 On ch=2 n=64 v=125
26839 On ch=2 n=64 v=0
26847 On ch=2 n=66 v=116
26869 On ch=2 n=66 v=0
26878 On ch=2 n=62 v=122
26922 On ch=2 n=62 v=0
27232 On ch=2 n=62 v=80
27245 On ch=2 n=62 v=0
27595 On ch=2 n=62 v=65
27608 On ch=2 n=62 v=0
27656 On ch=2 n=62 v=81
27678 On ch=2 n=62 v=0
27720 On ch=2 n=62 v=100
27769 On ch=2 n=62 v=0
27776 On ch=2 n=62 v=92
27890 On ch=2 n=62 v=0
28320 On ch=2 n=61 v=89
28367 On ch=2 n=61 v=0
28380 On ch=2 n=61 v=79
28382 On ch=2 n=64 v=77
28403 On ch=2 n=64 v=0
28412 On ch=2 n=61 v=0
28439 On ch=2 n=61 v=113
28445 On ch=2 n=64 v=91
28488 On ch=2 n=64 v=0
28497 On ch=2 n=64 v=106
28537 On ch=2 n=64 v=0
28547 On ch=2 n=61 v=0
28556 On ch=2 n=61 v=93
28559 On ch=2 n=64 v=95
28626 On ch=2 n=61 v=0
28639 On ch=2 n=64 v=0
33929 Pb ch=2 v=7606
33933 Pb ch=2 v=6553
33938 Pb ch=2 v=5734
33943 Pb ch=2 v=5149
33948 Pb ch=2 v=4798
33952 Pb ch=2 v=4564
33957 Pb ch=2 v=4798
33958 On ch=2 n=69 v=80
33961 On ch=2 n=74 v=127
33963 Pb ch=2 v=5149
33967 Pb ch=2 v=5968
33972 Pb ch=2 v=7021
33977 Pb ch=2 v=8074
33981 Pb ch=2 v=8192
33999 On ch=2 n=69 v=0
34018 On ch=2 n=69 v=81
34025 On ch=2 n=73 v=123
34030 On ch=2 n=74 v=0
34128 On ch=2 n=69 v=0
34140 On ch=2 n=73 v=0
34886 Pb ch=2 v=7606
34889 Pb ch=2 v=6436
34894 Pb ch=2 v=5383
34899 Pb ch=2 v=4330
34904 Pb ch=2 v=3511
34909 Pb ch=2 v=3277
34916 On ch=2 n=66 v=67
34919 Pb ch=2 v=3511
34921 On ch=2 n=69 v=122
34924 Pb ch=2 v=4213
34928 Pb ch=2 v=5032
34933 Pb ch=2 v=6085
34938 Pb ch=2 v=7138
34943 Pb ch=2 v=8074
34947 Pb ch=2 v=8192
34966 On ch=2 n=66 v=0
34980 On ch=2 n=62 v=66
34983 On ch=2 n=67 v=112
34987 On ch=2 n=69 v=0
35082 On ch=2 n=62 v=0
35098 On ch=2 n=67 v=0
37769 Pb ch=2 v=7606
37773 Pb ch=2 v=6553
37778 Pb ch=2 v=5734
37783 Pb ch=2 v=5149
37788 Pb ch=2 v=4798
37792 Pb ch=2 v=4564
37797 Pb ch=2 v=4798
37798 On ch=2 n=69 v=80
37801 On ch=2 n=74 v=127
37803 Pb ch=2 v=5149
37807 Pb ch=2 v=5968
37812 Pb ch=2 v=7021
37817 Pb ch=2 v=8074
37821 Pb ch=2 v=8192
37839 On ch=2 n=69 v=0
37858 On ch=2 n=69 v=81
37865 On ch=2 n=73 v=123
37870 On ch=2 n=74 v=0
37968 On ch=2 n=69 v=0
37980 On ch=2 n=73 v=0
38726 Pb ch=2 v=7606
38729 Pb ch=2 v=6436
38734 Pb ch=2 v=5383
38739 Pb ch=2 v=4330
38744 Pb ch=2 v=3511
38749 Pb ch=2 v=3277
38756 On ch=2 n=66 v=67
38759 Pb ch=2 v=3511
38761 On ch=2 n=69 v=122
38764 Pb ch=2 v=4213
38768 Pb ch=2 v=5032
38773 Pb ch=2 v=6085
38778 Pb ch=2 v=7138
38783 Pb ch=2 v=8074
38787 Pb ch=2 v=8192
38806 On ch=2 n=66 v=0
38820 On ch=2 n=62 v=66
38823 On ch=2 n=67 v=112
38827 On ch=2 n=69 v=0
38922 On ch=2 n=62 v=0
38938 On ch=2 n=67 v=0
40800 On ch=2 n=47 v=80
40924 On ch=2 n=59 v=83
40929 On ch=2 n=62 v=88
41198 On ch=2 n=59 v=0
41201 On ch=2 n=47 v=0
41202 On ch=2 n=62 v=0
41216 On ch=2 n=59 v=102
41216 On ch=2 n=62 v=98
41283 On ch=2 n=62 v=0
41285 On ch=2 n=59 v=0
41343 On ch=2 n=62 v=94
41343 On ch=2 n=59 v=94
41406 On ch=2 n=62 v=0
41407 On ch=2 n=59 v=0
41457 On ch=2 n=59 v=98
41459 On ch=2 n=62 v=98
41499 On ch=2 n=62 v=0
41502 On ch=2 n=59 v=0
41523 On ch=2 n=64 v=97
41523 On ch=2 n=61 v=127
41526 On ch=2 n=62 v=84
41538 On ch=2 n=62 v=0
41593 On ch=2 n=61 v=0
41598 On ch=2 n=64 v=0
41760 On ch=2 n=71 v=127
41876 On ch=2 n=68 v=127
41877 On ch=2 n=71 v=0
41930 On ch=2 n=68 v=0
41940 On ch=2 n=71 v=127
42009 On ch=2 n=71 v=0
42304 On ch=2 n=76 v=125
42328 On ch=2 n=76 v=0
42361 On ch=2 n=76 v=125
42419 On ch=2 n=75 v=127
42425 On ch=2 n=76 v=0
42441 On ch=2 n=75 v=0
42480 On ch=2 n=75 v=127
42534 On ch=2 n=75 v=0
42544 On ch=2 n=73 v=125
42568 On ch=2 n=73 v=0
42598 On ch=2 n=73 v=122
42639 On ch=2 n=73 v=0
42655 On ch=2 n=71 v=127
42677 On ch=2 n=71 v=0
42717 On ch=2 n=69 v=127
42834 On ch=2 n=69 v=0
42834 On ch=2 n=66 v=125
42887 On ch=2 n=66 v=0
42898 On ch=2 n=69 v=127
42955 On ch=2 n=69 v=0
43674 On ch=2 n=71 v=127
43792 On ch=2 n=71 v=0
43792 On ch=2 n=68 v=127
43846 On ch=2 n=68 v=0
43852 On ch=2 n=71 v=127
43902 On ch=2 n=71 v=0
44227 On ch=2 n=76 v=127
44250 On ch=2 n=76 v=0
44288 On ch=2 n=76 v=127
44340 On ch=2 n=75 v=127
44349 On ch=2 n=76 v=0
44358 On ch=2 n=75 v=0
44401 On ch=2 n=75 v=127
44455 On ch=2 n=75 v=0
44462 On ch=2 n=73 v=120
44487 On ch=2 n=73 v=0
44519 On ch=2 n=73 v=117
44561 On ch=2 n=73 v=0
44576 On ch=2 n=71 v=127
44602 On ch=2 n=71 v=0
44639 On ch=2 n=69 v=127
44756 On ch=2 n=66 v=120
44757 On ch=2 n=69 v=0
44813 On ch=2 n=66 v=0
44823 On ch=2 n=69 v=127
44884 On ch=2 n=69 v=0
44943 On ch=2 n=61 v=119
44968 On ch=2 n=61 v=0
44996 On ch=2 n=66 v=116
45018 On ch=2 n=66 v=0
45054 On ch=2 n=69 v=127
45081 On ch=2 n=69 v=0
45124 On ch=2 n=71 v=125
45167 On ch=2 n=71 v=0
45178 On ch=2 n=71 v=114
45221 On ch=2 n=71 v=0
45234 On ch=2 n=69 v=120
45277 On ch=2 n=69 v=0
45288 On ch=2 n=69 v=108
45338 On ch=2 n=69 v=0
45346 On ch=2 n=68 v=127
45394 On ch=2 n=68 v=0
45405 On ch=2 n=68 v=107
45446 On ch=2 n=68 v=0
45463 On ch=2 n=66 v=120
45514 On ch=2 n=66 v=0
45521 On ch=2 n=66 v=106
45573 On ch=2 n=66 v=0
45585 On ch=2 n=64 v=127
45649 On ch=2 n=64 v=0
46409 Pb ch=2 v=7606
46413 Pb ch=2 v=6553
46418 Pb ch=2 v=5734
46423 Pb ch=2 v=5149
46428 Pb ch=2 v=4798
46432 Pb ch=2 v=4564
46437 Pb ch=2 v=4798
46438 On ch=2 n=71 v=80
46441 On ch=2 n=76 v=127
46443 Pb ch=2 v=5149
46447 Pb ch=2 v=5968
46452 Pb ch=2 v=7021
46457 Pb ch=2 v=8074
46461 Pb ch=2 v=8192
46479 On ch=2 n=71 v=0
46498 On ch=2 n=71 v=81
46505 On ch=2 n=75 v=123
46510 On ch=2 n=76 v=0
46608 On ch=2 n=71 v=0
46620 On ch=2 n=75 v=0
47366 Pb ch=2 v=7606
47369 Pb ch=2 v=6436
47374 Pb ch=2 v=5383
47379 Pb ch=2 v=4330
47384 Pb ch=2 v=3511
47389 Pb ch=2 v=3277
47396 On ch=2 n=68 v=67
47399 Pb ch=2 v=3511
47401 On ch=2 n=71 v=122
47404 Pb ch=2 v=4213
47408 Pb ch=2 v=5032
47413 Pb ch=2 v=6085
47418 Pb ch=2 v=7138
47423 Pb ch=2 v=8074
47427 Pb ch=2 v=8192
47446 On ch=2 n=68 v=0
47460 On ch=2 n=64 v=66
47463 On ch=2 n=69 v=112
47467 On ch=2 n=71 v=0
47562 On ch=2 n=64 v=0
47578 On ch=2 n=69 v=0
50249 Pb ch=2 v=7606
50253 Pb ch=2 v=6553
50258 Pb ch=2 v=5734
50263 Pb ch=2 v=5149
50268 Pb ch=2 v=4798
50272 Pb ch=2 v=4564
50277 Pb ch=2 v=4798
50278 On ch=2 n=71 v=80
50281 On ch=2 n=76 v=127
50283 Pb ch=2 v=5149
50287 Pb ch=2 v=5968
50292 Pb ch=2 v=7021
50297 Pb ch=2 v=8074
50301 Pb ch=2 v=8192
50319 On ch=2 n=71 v=0
50338 On ch=2 n=71 v=81
50345 On ch=2 n=75 v=123
50350 On ch=2 n=76 v=0
50448 On ch=2 n=71 v=0
50460 On ch=2 n=75 v=0
51206 Pb ch=2 v=7606
51209 Pb ch=2 v=6436
51214 Pb ch=2 v=5383
51219 Pb ch=2 v=4330
51224 Pb ch=2 v=3511
51229 Pb ch=2 v=3277
51236 On ch=2 n=68 v=67
51239 Pb ch=2 v=3511
51241 On ch=2 n=71 v=122
51244 Pb ch=2 v=4213
51248 Pb ch=2 v=5032
51253 Pb ch=2 v=6085
51258 Pb ch=2 v=7138
51263 Pb ch=2 v=8074
51267 Pb ch=2 v=8192
51286 On ch=2 n=68 v=0
51300 On ch=2 n=64 v=66
51303 On ch=2 n=69 v=112
51307 On ch=2 n=71 v=0
51402 On ch=2 n=64 v=0
51418 On ch=2 n=69 v=0
54089 Pb ch=2 v=7606
54093 Pb ch=2 v=6553
54098 Pb ch=2 v=5734
54103 Pb ch=2 v=5149
54108 Pb ch=2 v=4798
54112 Pb ch=2 v=4564
54117 Pb ch=2 v=4798
54118 On ch=2 n=71 v=80
54121 On ch=2 n=76 v=127
54123 Pb ch=2 v=5149
54127 Pb ch=2 v=5968
54132 Pb ch=2 v=7021
54137 Pb ch=2 v=8074
54141 Pb ch=2 v=8192
54159 On ch=2 n=71 v=0
54178 On ch=2 n=71 v=81
54185 On ch=2 n=75 v=123
54190 On ch=2 n=76 v=0
54288 On ch=2 n=71 v=0
54300 On ch=2 n=75 v=0
55046 Pb ch=2 v=7606
55049 Pb ch=2 v=6436
55054 Pb ch=2 v=5383
55059 Pb ch=2 v=4330
55064 Pb ch=2 v=3511
55069 Pb ch=2 v=3277
55076 On ch=2 n=68 v=67
55079 Pb ch=2 v=3511
55081 On ch=2 n=71 v=122
55084 Pb ch=2 v=4213
55088 Pb ch=2 v=5032
55093 Pb ch=2 v=6085
55098 Pb ch=2 v=7138
55103 Pb ch=2 v=8074
55107 Pb ch=2 v=8192
55126 On ch=2 n=68 v=0
55140 On ch=2 n=64 v=66
55143 On ch=2 n=69 v=112
55147 On ch=2 n=71 v=0
55242 On ch=2 n=64 v=0
55258 On ch=2 n=69 v=0
57929 Pb ch=2 v=7606
57933 Pb ch=2 v=6553
57938 Pb ch=2 v=5734
57943 Pb ch=2 v=5149
57948 Pb ch=2 v=4798
57952 Pb ch=2 v=4564
57957 Pb ch=2 v=4798
57958 On ch=2 n=71 v=80
57961 On ch=2 n=76 v=127
57963 Pb ch=2 v=5149
57967 Pb ch=2 v=5968
57972 Pb ch=2 v=7021
57977 Pb ch=2 v=8074
57981 Pb ch=2 v=8192
57999 On ch=2 n=71 v=0
58018 On ch=2 n=71 v=81
58025 On ch=2 n=75 v=123
58030 On ch=2 n=76 v=0
58128 On ch=2 n=71 v=0
58140 On ch=2 n=75 v=0
58886 Pb ch=2 v=7606
58889 Pb ch=2 v=6436
58894 Pb ch=2 v=5383
58899 Pb ch=2 v=4330
58904 Pb ch=2 v=3511
58909 Pb ch=2 v=3277
58916 On ch=2 n=68 v=67
58919 Pb ch=2 v=3511
58921 On ch=2 n=71 v=122
58924 Pb ch=2 v=4213
58928 Pb ch=2 v=5032
58933 Pb ch=2 v=6085
58938 Pb ch=2 v=7138
58943 Pb ch=2 v=8074
58947 Pb ch=2 v=8192
58966 On ch=2 n=68 v=0
58980 On ch=2 n=64 v=66
58983 On ch=2 n=69 v=112
58987 On ch=2 n=71 v=0
59082 On ch=2 n=64 v=0
59098 On ch=2 n=69 v=0
61769 Pb ch=2 v=7606
61773 Pb ch=2 v=6553
61778 Pb ch=2 v=5734
61783 Pb ch=2 v=5149
61788 Pb ch=2 v=4798
61792 Pb ch=2 v=4564
61797 Pb ch=2 v=4798
61798 On ch=2 n=71 v=80
61801 On ch=2 n=76 v=127
61803 Pb ch=2 v=5149
61807 Pb ch=2 v=5968
61812 Pb ch=2 v=7021
61817 Pb ch=2 v=8074
61821 Pb ch=2 v=8192
61839 On ch=2 n=71 v=0
61858 On ch=2 n=71 v=81
61865 On ch=2 n=75 v=123
61870 On ch=2 n=76 v=0
61968 On ch=2 n=71 v=0
61980 On ch=2 n=75 v=0
62726 Pb ch=2 v=7606
62729 Pb ch=2 v=6436
62734 Pb ch=2 v=5383
62739 Pb ch=2 v=4330
62744 Pb ch=2 v=3511
62749 Pb ch=2 v=3277
62756 On ch=2 n=68 v=67
62759 Pb ch=2 v=3511
62761 On ch=2 n=71 v=122
62764 Pb ch=2 v=4213
62768 Pb ch=2 v=5032
62773 Pb ch=2 v=6085
62778 Pb ch=2 v=7138
62783 Pb ch=2 v=8074
62787 Pb ch=2 v=8192
62806 On ch=2 n=68 v=0
62820 On ch=2 n=64 v=66
62823 On ch=2 n=69 v=112
62827 On ch=2 n=71 v=0
62922 On ch=2 n=64 v=0
62938 On ch=2 n=69 v=0
62938 Meta TrkEnd
TrkEnd
MTrk
0 Meta 0x21 00
0 Meta TrkName "(Cristina D'Avena)"
0 PrCh ch=15 p=66
0 Par ch=15 c=7 v=120
0 Par ch=15 c=10 v=65
0 Par ch=15 c=93 v=72
0 Par ch=15 c=91 v=86
299 On ch=15 n=45 v=120
329 On ch=15 n=45 v=0
360 On ch=15 n=47 v=117
383 On ch=15 n=47 v=0
416 On ch=15 n=49 v=127
438 On ch=15 n=49 v=0
482 On ch=15 n=50 v=127
562 On ch=15 n=50 v=0
2218 On ch=15 n=45 v=120
2245 On ch=15 n=45 v=0
2279 On ch=15 n=47 v=120
2304 On ch=15 n=47 v=0
2337 On ch=15 n=49 v=127
2361 On ch=15 n=49 v=0
2399 On ch=15 n=50 v=127
2478 On ch=15 n=50 v=0
21122 On ch=15 n=50 v=127
21202 On ch=15 n=50 v=0
22858 On ch=15 n=45 v=120
22885 On ch=15 n=45 v=0
22919 On ch=15 n=47 v=120
22944 On ch=15 n=47 v=0
22977 On ch=15 n=49 v=127
23001 On ch=15 n=49 v=0
23039 On ch=15 n=50 v=127
23118 On ch=15 n=50 v=0
41762 On ch=15 n=52 v=127
41842 On ch=15 n=52 v=0
43498 On ch=15 n=47 v=120
43525 On ch=15 n=47 v=0
43559 On ch=15 n=49 v=120
43584 On ch=15 n=49 v=0
43617 On ch=15 n=51 v=127
43641 On ch=15 n=51 v=0
43679 On ch=15 n=52 v=127
43758 On ch=15 n=52 v=0
43758 Meta TrkEnd
TrkEnd
MTrk
0 Meta 0x21 00
0 PrCh ch=3 p=33
0 Par ch=3 c=7 v=100
0 Par ch=3 c=10 v=65
0 Par ch=3 c=91 v=86
0 Par ch=3 c=93 v=72
481 On ch=3 n=38 v=127
601 On ch=3 n=38 v=0
778 On ch=3 n=38 v=112
811 On ch=3 n=38 v=0
840 On ch=3 n=38 v=100
882 On ch=3 n=38 v=0
899 On ch=3 n=37 v=123
945 On ch=3 n=37 v=0
960 On ch=3 n=35 v=83
1072 On ch=3 n=35 v=0
1264 On ch=3 n=35 v=73
1299 On ch=3 n=35 v=0
1329 On ch=3 n=35 v=80
1413 On ch=3 n=35 v=0
1449 On ch=3 n=40 v=102
1582 On ch=3 n=40 v=0
1731 On ch=3 n=28 v=62
1779 On ch=3 n=28 v=0
1787 On ch=3 n=30 v=63
1835 On ch=3 n=30 v=0
1847 On ch=3 n=31 v=77
1901 On ch=3 n=31 v=0
1917 On ch=3 n=33 v=117
2052 On ch=3 n=33 v=0
2220 On ch=3 n=33 v=86
2270 On ch=3 n=33 v=0
2282 On ch=3 n=35 v=83
2330 On ch=3 n=35 v=0
2338 On ch=3 n=37 v=97
2388 On ch=3 n=37 v=0
2399 On ch=3 n=38 v=106
2512 On ch=3 n=38 v=0
2700 On ch=3 n=38 v=90
2730 On ch=3 n=38 v=0
2757 On ch=3 n=38 v=87
2811 On ch=3 n=38 v=0
2819 On ch=3 n=37 v=104
2884 On ch=3 n=37 v=0
2886 On ch=3 n=35 v=85
2983 On ch=3 n=35 v=0
3186 On ch=3 n=35 v=84
3233 On ch=3 n=35 v=0
3235 On ch=3 n=37 v=61
3284 On ch=3 n=37 v=0
3295 On ch=3 n=38 v=92
3349 On ch=3 n=38 v=0
3358 On ch=3 n=40 v=97
3456 On ch=3 n=40 v=0
3666 On ch=3 n=33 v=70
3708 On ch=3 n=33 v=0
3717 On ch=3 n=35 v=73
3750 On ch=3 n=35 v=0
3778 On ch=3 n=35 v=78
3828 On ch=3 n=35 v=0
3842 On ch=3 n=33 v=88
3907 On ch=3 n=33 v=0
4143 On ch=3 n=33 v=88
4174 On ch=3 n=33 v=0
4201 On ch=3 n=33 v=85
4234 On ch=3 n=33 v=0
4255 On ch=3 n=33 v=87
4298 On ch=3 n=33 v=0
4320 On ch=3 n=38 v=110
4381 On ch=3 n=38 v=0
4495 On ch=3 n=38 v=106
4551 On ch=3 n=38 v=0
4677 On ch=3 n=38 v=102
4785 On ch=3 n=38 v=0
4791 On ch=3 n=35 v=97
4880 On ch=3 n=35 v=0
4978 On ch=3 n=35 v=100
5048 On ch=3 n=35 v=0
5154 On ch=3 n=35 v=110
5267 On ch=3 n=35 v=0
5280 On ch=3 n=31 v=77
5321 On ch=3 n=31 v=0
5346 On ch=3 n=31 v=80
5408 On ch=3 n=31 v=0
5465 On ch=3 n=31 v=94
5524 On ch=3 n=31 v=0
5575 On ch=3 n=38 v=92
5626 On ch=3 n=38 v=0
5636 On ch=3 n=31 v=81
5734 On ch=3 n=31 v=0
5762 On ch=3 n=33 v=81
5800 On ch=3 n=33 v=0
5823 On ch=3 n=33 v=80
5891 On ch=3 n=33 v=0
5936 On ch=3 n=33 v=76
6016 On ch=3 n=33 v=0
6056 On ch=3 n=33 v=87
6094 On ch=3 n=33 v=0
6119 On ch=3 n=33 v=84
6165 On ch=3 n=33 v=0
6172 On ch=3 n=37 v=72
6225 On ch=3 n=37 v=0
6240 On ch=3 n=38 v=87
6308 On ch=3 n=38 v=0
6414 On ch=3 n=38 v=92
6488 On ch=3 n=38 v=0
6595 On ch=3 n=38 v=87
6703 On ch=3 n=38 v=0
6716 On ch=3 n=35 v=86
6720 On ch=3 n=35 v=80
6791 On ch=3 n=35 v=0
6793 On ch=3 n=35 v=0
6898 On ch=3 n=35 v=84
6985 On ch=3 n=35 v=0
7075 On ch=3 n=35 v=83
7173 On ch=3 n=35 v=0
7200 On ch=3 n=31 v=73
7240 On ch=3 n=31 v=0
7260 On ch=3 n=31 v=74
7330 On ch=3 n=31 v=0
7377 On ch=3 n=31 v=68
7449 On ch=3 n=31 v=0
7491 On ch=3 n=38 v=88
7542 On ch=3 n=38 v=0
7561 On ch=3 n=31 v=73
7639 On ch=3 n=31 v=0
7678 On ch=3 n=33 v=83
7710 On ch=3 n=33 v=0
7741 On ch=3 n=33 v=76
7771 On ch=3 n=33 v=0
7801 On ch=3 n=33 v=80
7828 On ch=3 n=33 v=0
7858 On ch=3 n=33 v=77
7887 On ch=3 n=33 v=0
7918 On ch=3 n=33 v=76
7948 On ch=3 n=33 v=0
7977 On ch=3 n=33 v=84
8011 On ch=3 n=33 v=0
8160 On ch=3 n=43 v=81
8383 On ch=3 n=43 v=0
8410 On ch=3 n=43 v=63
8469 On ch=3 n=42 v=61
8472 On ch=3 n=43 v=0
8520 On ch=3 n=42 v=0
8526 On ch=3 n=40 v=94
8625 On ch=3 n=40 v=0
8640 On ch=3 n=38 v=80
8800 On ch=3 n=38 v=0
8825 On ch=3 n=38 v=74
8930 On ch=3 n=38 v=0
8954 On ch=3 n=38 v=73
8989 On ch=3 n=38 v=0
9010 On ch=3 n=38 v=73
9061 On ch=3 n=38 v=0
9067 On ch=3 n=33 v=70
9123 On ch=3 n=43 v=72
9131 On ch=3 n=33 v=0
9293 On ch=3 n=43 v=0
9317 On ch=3 n=43 v=65
9352 On ch=3 n=43 v=0
9370 On ch=3 n=43 v=57
9472 On ch=3 n=43 v=0
9482 On ch=3 n=31 v=97
9596 On ch=3 n=31 v=0
9600 On ch=3 n=38 v=87
9896 On ch=3 n=38 v=0
9907 On ch=3 n=50 v=67
9946 On ch=3 n=50 v=0
9958 On ch=3 n=52 v=80
10082 On ch=3 n=40 v=92
10184 On ch=3 n=52 v=0
10242 On ch=3 n=40 v=0
10436 On ch=3 n=40 v=87
10549 On ch=3 n=40 v=0
10552 On ch=3 n=28 v=86
10690 On ch=3 n=28 v=0
10738 On ch=3 n=52 v=66
10897 On ch=3 n=52 v=0
10922 On ch=3 n=40 v=78
11016 On ch=3 n=40 v=0
11040 On ch=3 n=31 v=108
11187 On ch=3 n=31 v=0
11217 On ch=3 n=31 v=91
11367 On ch=3 n=31 v=0
11395 On ch=3 n=31 v=83
11491 On ch=3 n=31 v=0
11513 On ch=3 n=33 v=112
11644 On ch=3 n=33 v=0
11696 On ch=3 n=33 v=102
11834 On ch=3 n=33 v=0
11880 On ch=3 n=33 v=110
12030 On ch=3 n=33 v=0
12060 On ch=3 n=33 v=114
12205 On ch=3 n=33 v=0
12240 On ch=3 n=33 v=106
12314 On ch=3 n=33 v=0
12354 On ch=3 n=33 v=104
12444 On ch=3 n=33 v=0
12485 On ch=3 n=38 v=97
12601 On ch=3 n=38 v=0
12667 On ch=3 n=38 v=98
12711 On ch=3 n=38 v=0
12731 On ch=3 n=38 v=102
12838 On ch=3 n=38 v=0
12967 On ch=3 n=38 v=98
13096 On ch=3 n=38 v=0
13139 On ch=3 n=38 v=94
13195 On ch=3 n=38 v=0
13199 On ch=3 n=40 v=86
13249 On ch=3 n=40 v=0
13253 On ch=3 n=42 v=77
13301 On ch=3 n=42 v=0
13323 On ch=3 n=45 v=98
13431 On ch=3 n=45 v=0
13440 On ch=3 n=30 v=84
13559 On ch=3 n=30 v=0
13612 On ch=3 n=30 v=89
13653 On ch=3 n=30 v=0
13679 On ch=3 n=30 v=91
13805 On ch=3 n=30 v=0
13922 On ch=3 n=30 v=87
14059 On ch=3 n=30 v=0
14101 On ch=3 n=30 v=95
14154 On ch=3 n=30 v=0
14166 On ch=3 n=42 v=107
14261 On ch=3 n=42 v=0
14296 On ch=3 n=35 v=79
14335 On ch=3 n=35 v=0
14344 On ch=3 n=33 v=87
14400 On ch=3 n=31 v=98
14403 On ch=3 n=33 v=0
14517 On ch=3 n=31 v=0
14580 On ch=3 n=43 v=114
14614 On ch=3 n=43 v=0
14639 On ch=3 n=43 v=106
14689 On ch=3 n=43 v=0
14697 On ch=3 n=45 v=70
14717 On ch=3 n=45 v=0
14765 On ch=3 n=43 v=114
14863 On ch=3 n=43 v=0
14880 On ch=3 n=33 v=106
15053 On ch=3 n=33 v=0
15127 On ch=3 n=33 v=106
15168 On ch=3 n=33 v=0
15188 On ch=3 n=33 v=98
15233 On ch=3 n=33 v=0
15243 On ch=3 n=37 v=99
15299 On ch=3 n=37 v=0
15309 On ch=3 n=40 v=90
15360 On ch=3 n=43 v=85
15372 On ch=3 n=40 v=0
15497 On ch=3 n=43 v=0
15536 On ch=3 n=38 v=86
15584 On ch=3 n=38 v=0
15600 On ch=3 n=43 v=100
15647 Pb ch=3 v=8660
15652 Pb ch=3 v=10649
15657 Pb ch=3 v=13925
15661 Pb ch=3 v=16383
15680 On ch=3 n=43 v=0
15681 Pb ch=3 v=16382
15686 Pb ch=3 v=14393
15690 Pb ch=3 v=10883
15695 Pb ch=3 v=8192
15721 On ch=3 n=43 v=90
15840 On ch=3 n=43 v=0
15840 On ch=3 n=33 v=74
15983 On ch=3 n=33 v=0
16029 On ch=3 n=33 v=79
16079 On ch=3 n=33 v=0
16086 On ch=3 n=45 v=102
16123 Pb ch=3 v=8543
16128 Pb ch=3 v=9479
16132 Pb ch=3 v=10415
16136 Pb ch=3 v=11117
16141 Pb ch=3 v=11585
16147 Pb ch=3 v=12053
16151 Pb ch=3 v=12638
16157 Pb ch=3 v=13223
16160 Pb ch=3 v=13691
16165 Pb ch=3 v=14042
16170 Pb ch=3 v=14276
16186 Pb ch=3 v=13691
16190 Pb ch=3 v=12638
16193 On ch=3 n=45 v=0
16194 Pb ch=3 v=10766
16199 Pb ch=3 v=9128
16204 Pb ch=3 v=8192
16205 On ch=3 n=45 v=97
16205 On ch=3 n=46 v=68
16226 On ch=3 n=46 v=0
16320 On ch=3 n=45 v=0
16320 On ch=3 n=38 v=81
16443 On ch=3 n=38 v=0
16499 On ch=3 n=38 v=84
16537 On ch=3 n=38 v=0
16562 On ch=3 n=38 v=87
16683 On ch=3 n=38 v=0
16798 On ch=3 n=38 v=79
16930 On ch=3 n=38 v=0
16979 On ch=3 n=38 v=94
17026 On ch=3 n=38 v=0
17036 On ch=3 n=40 v=84
17082 On ch=3 n=40 v=0
17092 On ch=3 n=42 v=81
17149 On ch=3 n=42 v=0
17157 On ch=3 n=45 v=91
17262 On ch=3 n=45 v=0
17280 On ch=3 n=30 v=77
17403 On ch=3 n=30 v=0
17459 On ch=3 n=30 v=91
17504 On ch=3 n=30 v=0
17522 On ch=3 n=30 v=81
17643 On ch=3 n=30 v=0
17748 On ch=3 n=30 v=78
17878 On ch=3 n=30 v=0
17930 On ch=3 n=30 v=60
17986 On ch=3 n=30 v=0
17996 On ch=3 n=42 v=63
18078 On ch=3 n=42 v=0
18118 On ch=3 n=35 v=90
18167 On ch=3 n=35 v=0
18172 On ch=3 n=33 v=83
18242 On ch=3 n=33 v=0
18243 On ch=3 n=31 v=67
18365 On ch=3 n=31 v=0
18419 On ch=3 n=31 v=73
18472 On ch=3 n=31 v=0
18473 On ch=3 n=43 v=90
18547 Pb ch=3 v=8309
18556 Pb ch=3 v=8192
18572 On ch=3 n=43 v=0
18607 On ch=3 n=31 v=73
18693 On ch=3 n=31 v=0
18721 On ch=3 n=33 v=76
18852 On ch=3 n=33 v=0
18905 On ch=3 n=33 v=68
18938 On ch=3 n=33 v=0
18960 On ch=3 n=33 v=75
19015 On ch=3 n=33 v=0
19020 On ch=3 n=37 v=87
19071 On ch=3 n=37 v=0
19084 On ch=3 n=40 v=88
19193 On ch=3 n=40 v=0
19200 On ch=3 n=43 v=86
19231 On ch=3 n=43 v=0
19253 On ch=3 n=43 v=80
19311 On ch=3 n=43 v=0
19317 On ch=3 n=38 v=77
19352 On ch=3 n=38 v=0
19375 On ch=3 n=38 v=80
19424 On ch=3 n=38 v=0
19431 On ch=3 n=43 v=79
19478 Pb ch=3 v=8543
19483 Pb ch=3 v=9245
19488 Pb ch=3 v=10298
19492 Pb ch=3 v=11585
19497 Pb ch=3 v=13106
19502 Pb ch=3 v=14744
19507 Pb ch=3 v=16383
19546 On ch=3 n=43 v=0
19546 Pb ch=3 v=16148
19550 Pb ch=3 v=13691
19555 Pb ch=3 v=11117
19560 Pb ch=3 v=8309
19565 Pb ch=3 v=8192
19565 On ch=3 n=43 v=80
19651 On ch=3 n=43 v=0
19680 On ch=3 n=33 v=92
19823 On ch=3 n=33 v=0
19861 On ch=3 n=33 v=104
19917 On ch=3 n=33 v=0
19923 On ch=3 n=45 v=70
19957 On ch=3 n=45 v=0
19978 On ch=3 n=45 v=70
20017 On ch=3 n=45 v=0
20040 On ch=3 n=45 v=67
20077 On ch=3 n=45 v=0
20095 On ch=3 n=45 v=57
20148 On ch=3 n=45 v=0
20160 On ch=3 n=47 v=80
20564 On ch=3 n=47 v=0
20586 On ch=3 n=31 v=114
20644 On ch=3 n=31 v=0
20701 On ch=3 n=31 v=97
20754 On ch=3 n=31 v=0
20814 On ch=3 n=31 v=112
20865 On ch=3 n=31 v=0
20879 On ch=3 n=33 v=110
20969 On ch=3 n=33 v=0
21121 On ch=3 n=38 v=127
21241 On ch=3 n=38 v=0
21418 On ch=3 n=38 v=112
21451 On ch=3 n=38 v=0
21480 On ch=3 n=38 v=100
21522 On ch=3 n=38 v=0
21539 On ch=3 n=37 v=123
21585 On ch=3 n=37 v=0
21600 On ch=3 n=35 v=83
21712 On ch=3 n=35 v=0
21904 On ch=3 n=35 v=73
21939 On ch=3 n=35 v=0
21969 On ch=3 n=35 v=80
22053 On ch=3 n=35 v=0
22089 On ch=3 n=40 v=102
22222 On ch=3 n=40 v=0
22371 On ch=3 n=28 v=62
22419 On ch=3 n=28 v=0
22427 On ch=3 n=30 v=63
22475 On ch=3 n=30 v=0
22487 On ch=3 n=31 v=77
22541 On ch=3 n=31 v=0
22557 On ch=3 n=33 v=117
22692 On ch=3 n=33 v=0
22860 On ch=3 n=33 v=86
22910 On ch=3 n=33 v=0
22922 On ch=3 n=35 v=83
22970 On ch=3 n=35 v=0
22978 On ch=3 n=37 v=97
23028 On ch=3 n=37 v=0
23039 On ch=3 n=38 v=106
23152 On ch=3 n=38 v=0
23340 On ch=3 n=38 v=90
23370 On ch=3 n=38 v=0
23397 On ch=3 n=38 v=87
23451 On ch=3 n=38 v=0
23459 On ch=3 n=37 v=104
23524 On ch=3 n=37 v=0
23526 On ch=3 n=35 v=85
23623 On ch=3 n=35 v=0
23826 On ch=3 n=35 v=84
23873 On ch=3 n=35 v=0
23875 On ch=3 n=37 v=61
23924 On ch=3 n=37 v=0
23935 On ch=3 n=38 v=92
23989 On ch=3 n=38 v=0
23998 On ch=3 n=40 v=97
24096 On ch=3 n=40 v=0
24306 On ch=3 n=33 v=70
24348 On ch=3 n=33 v=0
24357 On ch=3 n=35 v=73
24390 On ch=3 n=35 v=0
24418 On ch=3 n=35 v=78
24468 On ch=3 n=35 v=0
24482 On ch=3 n=33 v=88
24547 On ch=3 n=33 v=0
24783 On ch=3 n=33 v=88
24814 On ch=3 n=33 v=0
24841 On ch=3 n=33 v=85
24874 On ch=3 n=33 v=0
24895 On ch=3 n=33 v=87
24938 On ch=3 n=33 v=0
24960 On ch=3 n=38 v=110
25021 On ch=3 n=38 v=0
25135 On ch=3 n=38 v=106
25191 On ch=3 n=38 v=0
25317 On ch=3 n=38 v=102
25425 On ch=3 n=38 v=0
25431 On ch=3 n=35 v=97
25520 On ch=3 n=35 v=0
25618 On ch=3 n=35 v=100
25688 On ch=3 n=35 v=0
25794 On ch=3 n=35 v=110
25907 On ch=3 n=35 v=0
25920 On ch=3 n=31 v=77
25961 On ch=3 n=31 v=0
25986 On ch=3 n=31 v=80
26048 On ch=3 n=31 v=0
26105 On ch=3 n=31 v=94
26164 On ch=3 n=31 v=0
26215 On ch=3 n=38 v=92
26266 On ch=3 n=38 v=0
26276 On ch=3 n=31 v=81
26374 On ch=3 n=31 v=0
26402 On ch=3 n=33 v=81
26440 On ch=3 n=33 v=0
26463 On ch=3 n=33 v=80
26531 On ch=3 n=33 v=0
26576 On ch=3 n=33 v=76
26656 On ch=3 n=33 v=0
26696 On ch=3 n=33 v=87
26734 On ch=3 n=33 v=0
26759 On ch=3 n=33 v=84
26805 On ch=3 n=33 v=0
26812 On ch=3 n=37 v=72
26865 On ch=3 n=37 v=0
26880 On ch=3 n=38 v=87
26948 On ch=3 n=38 v=0
27054 On ch=3 n=38 v=92
27128 On ch=3 n=38 v=0
27235 On ch=3 n=38 v=87
27343 On ch=3 n=38 v=0
27356 On ch=3 n=35 v=86
27360 On ch=3 n=35 v=80
27431 On ch=3 n=35 v=0
27433 On ch=3 n=35 v=0
27538 On ch=3 n=35 v=84
27625 On ch=3 n=35 v=0
27715 On ch=3 n=35 v=83
27813 On ch=3 n=35 v=0
27840 On ch=3 n=31 v=73
27880 On ch=3 n=31 v=0
27900 On ch=3 n=31 v=74
27970 On ch=3 n=31 v=0
28017 On ch=3 n=31 v=68
28089 On ch=3 n=31 v=0
28131 On ch=3 n=38 v=88
28182 On ch=3 n=38 v=0
28201 On ch=3 n=31 v=73
28279 On ch=3 n=31 v=0
28318 On ch=3 n=33 v=83
28350 On ch=3 n=33 v=0
28381 On ch=3 n=33 v=76
28411 On ch=3 n=33 v=0
28441 On ch=3 n=33 v=80
28468 On ch=3 n=33 v=0
28498 On ch=3 n=33 v=77
28527 On ch=3 n=33 v=0
28558 On ch=3 n=33 v=76
28588 On ch=3 n=33 v=0
28617 On ch=3 n=33 v=84
28651 On ch=3 n=33 v=0
28800 On ch=3 n=43 v=81
29023 On ch=3 n=43 v=0
29050 On ch=3 n=43 v=63
29109 On ch=3 n=42 v=61
29112 On ch=3 n=43 v=0
29160 On ch=3 n=42 v=0
29166 On ch=3 n=40 v=94
29265 On ch=3 n=40 v=0
29280 On ch=3 n=38 v=80
29440 On ch=3 n=38 v=0
29465 On ch=3 n=38 v=74
29570 On ch=3 n=38 v=0
29594 On ch=3 n=38 v=73
29629 On ch=3 n=38 v=0
29650 On ch=3 n=38 v=73
29701 On ch=3 n=38 v=0
29707 On ch=3 n=33 v=70
29763 On ch=3 n=43 v=72
29771 On ch=3 n=33 v=0
29933 On ch=3 n=43 v=0
29957 On ch=3 n=43 v=65
29992 On ch=3 n=43 v=0
30010 On ch=3 n=43 v=57
30112 On ch=3 n=43 v=0
30122 On ch=3 n=31 v=97
30236 On ch=3 n=31 v=0
30240 On ch=3 n=38 v=87
30536 On ch=3 n=38 v=0
30547 On ch=3 n=50 v=67
30586 On ch=3 n=50 v=0
30598 On ch=3 n=52 v=80
30722 On ch=3 n=40 v=92
30824 On ch=3 n=52 v=0
30882 On ch=3 n=40 v=0
31076 On ch=3 n=40 v=87
31189 On ch=3 n=40 v=0
31192 On ch=3 n=28 v=86
31330 On ch=3 n=28 v=0
31378 On ch=3 n=52 v=66
31537 On ch=3 n=52 v=0
31562 On ch=3 n=40 v=78
31656 On ch=3 n=40 v=0
31680 On ch=3 n=31 v=108
31827 On ch=3 n=31 v=0
31857 On ch=3 n=31 v=91
32007 On ch=3 n=31 v=0
32035 On ch=3 n=31 v=83
32131 On ch=3 n=31 v=0
32153 On ch=3 n=33 v=112
32284 On ch=3 n=33 v=0
32336 On ch=3 n=33 v=102
32474 On ch=3 n=33 v=0
32520 On ch=3 n=33 v=110
32670 On ch=3 n=33 v=0
32700 On ch=3 n=33 v=114
32845 On ch=3 n=33 v=0
32880 On ch=3 n=33 v=106
32954 On ch=3 n=33 v=0
32994 On ch=3 n=33 v=104
33084 On ch=3 n=33 v=0
33125 On ch=3 n=38 v=97
33241 On ch=3 n=38 v=0
33307 On ch=3 n=38 v=98
33351 On ch=3 n=38 v=0
33371 On ch=3 n=38 v=102
33478 On ch=3 n=38 v=0
33610 On ch=3 n=38 v=98
33739 On ch=3 n=38 v=0
33779 On ch=3 n=38 v=94
33835 On ch=3 n=38 v=0
33839 On ch=3 n=40 v=86
33889 On ch=3 n=40 v=0
33893 On ch=3 n=42 v=77
33941 On ch=3 n=42 v=0
33963 On ch=3 n=45 v=98
34071 On ch=3 n=45 v=0
34080 On ch=3 n=30 v=84
34199 On ch=3 n=30 v=0
34252 On ch=3 n=30 v=89
34293 On ch=3 n=30 v=0
34319 On ch=3 n=30 v=91
34445 On ch=3 n=30 v=0
34562 On ch=3 n=30 v=87
34699 On ch=3 n=30 v=0
34741 On ch=3 n=30 v=95
34794 On ch=3 n=30 v=0
34806 On ch=3 n=42 v=107
34901 On ch=3 n=42 v=0
34936 On ch=3 n=35 v=79
34975 On ch=3 n=35 v=0
34984 On ch=3 n=33 v=87
35040 On ch=3 n=31 v=98
35043 On ch=3 n=33 v=0
35157 On ch=3 n=31 v=0
35220 On ch=3 n=43 v=114
35254 On ch=3 n=43 v=0
35279 On ch=3 n=43 v=106
35329 On ch=3 n=43 v=0
35337 On ch=3 n=45 v=70
35357 On ch=3 n=45 v=0
35405 On ch=3 n=43 v=114
35503 On ch=3 n=43 v=0
35520 On ch=3 n=33 v=106
35693 On ch=3 n=33 v=0
35767 On ch=3 n=33 v=106
35808 On ch=3 n=33 v=0
35828 On ch=3 n=33 v=98
35873 On ch=3 n=33 v=0
35883 On ch=3 n=37 v=99
35939 On ch=3 n=37 v=0
35949 On ch=3 n=40 v=90
36000 On ch=3 n=43 v=85
36012 On ch=3 n=40 v=0
36137 On ch=3 n=43 v=0
36176 On ch=3 n=38 v=86
36224 On ch=3 n=38 v=0
36240 On ch=3 n=43 v=100
36287 Pb ch=3 v=8660
36292 Pb ch=3 v=10649
36297 Pb ch=3 v=13925
36301 Pb ch=3 v=16383
36320 On ch=3 n=43 v=0
36321 Pb ch=3 v=16382
36326 Pb ch=3 v=14393
36330 Pb ch=3 v=10883
36335 Pb ch=3 v=8192
36361 On ch=3 n=43 v=90
36480 On ch=3 n=43 v=0
36480 On ch=3 n=33 v=74
36623 On ch=3 n=33 v=0
36669 On ch=3 n=33 v=79
36719 On ch=3 n=33 v=0
36726 On ch=3 n=45 v=102
36763 Pb ch=3 v=8543
36768 Pb ch=3 v=9479
36772 Pb ch=3 v=10415
36776 Pb ch=3 v=11117
36781 Pb ch=3 v=11585
36787 Pb ch=3 v=12053
36791 Pb ch=3 v=12638
36797 Pb ch=3 v=13223
36800 Pb ch=3 v=13691
36805 Pb ch=3 v=14042
36810 Pb ch=3 v=14276
36826 Pb ch=3 v=13691
36830 Pb ch=3 v=12638
36833 On ch=3 n=45 v=0
36834 Pb ch=3 v=10766
36839 Pb ch=3 v=9128
36844 Pb ch=3 v=8192
36845 On ch=3 n=45 v=97
36845 On ch=3 n=46 v=68
36866 On ch=3 n=46 v=0
36960 On ch=3 n=45 v=0
36960 On ch=3 n=38 v=81
37083 On ch=3 n=38 v=0
37139 On ch=3 n=38 v=84
37177 On ch=3 n=38 v=0
37202 On ch=3 n=38 v=87
37323 On ch=3 n=38 v=0
37438 On ch=3 n=38 v=79
37570 On ch=3 n=38 v=0
37619 On ch=3 n=38 v=94
37666 On ch=3 n=38 v=0
37676 On ch=3 n=40 v=84
37722 On ch=3 n=40 v=0
37732 On ch=3 n=42 v=81
37789 On ch=3 n=42 v=0
37797 On ch=3 n=45 v=91
37902 On ch=3 n=45 v=0
37920 On ch=3 n=30 v=77
38043 On ch=3 n=30 v=0
38099 On ch=3 n=30 v=91
38144 On ch=3 n=30 v=0
38162 On ch=3 n=30 v=81
38283 On ch=3 n=30 v=0
38388 On ch=3 n=30 v=78
38518 On ch=3 n=30 v=0
38570 On ch=3 n=30 v=60
38626 On ch=3 n=30 v=0
38636 On ch=3 n=42 v=63
38718 On ch=3 n=42 v=0
38758 On ch=3 n=35 v=90
38807 On ch=3 n=35 v=0
38812 On ch=3 n=33 v=83
38882 On ch=3 n=33 v=0
38883 On ch=3 n=31 v=67
39005 On ch=3 n=31 v=0
39059 On ch=3 n=31 v=73
39112 On ch=3 n=31 v=0
39113 On ch=3 n=43 v=90
39187 Pb ch=3 v=8309
39196 Pb ch=3 v=8192
39212 On ch=3 n=43 v=0
39247 On ch=3 n=31 v=73
39333 On ch=3 n=31 v=0
39361 On ch=3 n=33 v=76
39492 On ch=3 n=33 v=0
39545 On ch=3 n=33 v=68
39578 On ch=3 n=33 v=0
39600 On ch=3 n=33 v=75
39655 On ch=3 n=33 v=0
39660 On ch=3 n=37 v=87
39711 On ch=3 n=37 v=0
39724 On ch=3 n=40 v=88
39833 On ch=3 n=40 v=0
39840 On ch=3 n=43 v=86
39871 On ch=3 n=43 v=0
39893 On ch=3 n=43 v=80
39951 On ch=3 n=43 v=0
39957 On ch=3 n=38 v=77
39992 On ch=3 n=38 v=0
40015 On ch=3 n=38 v=80
40064 On ch=3 n=38 v=0
40071 On ch=3 n=43 v=79
40118 Pb ch=3 v=8543
40123 Pb ch=3 v=9245
40128 Pb ch=3 v=10298
40132 Pb ch=3 v=11585
40137 Pb ch=3 v=13106
40142 Pb ch=3 v=14744
40147 Pb ch=3 v=16383
40186 On ch=3 n=43 v=0
40186 Pb ch=3 v=16148
40190 Pb ch=3 v=13691
40195 Pb ch=3 v=11117
40200 Pb ch=3 v=8309
40205 Pb ch=3 v=8192
40205 On ch=3 n=43 v=80
40291 On ch=3 n=43 v=0
40320 On ch=3 n=33 v=92
40463 On ch=3 n=33 v=0
40501 On ch=3 n=33 v=104
40557 On ch=3 n=33 v=0
40563 On ch=3 n=45 v=70
40597 On ch=3 n=45 v=0
40618 On ch=3 n=45 v=70
40657 On ch=3 n=45 v=0
40680 On ch=3 n=45 v=67
40717 On ch=3 n=45 v=0
40735 On ch=3 n=45 v=57
40788 On ch=3 n=45 v=0
40800 On ch=3 n=47 v=80
41204 On ch=3 n=47 v=0
41226 On ch=3 n=31 v=114
41284 On ch=3 n=31 v=0
41341 On ch=3 n=31 v=97
41394 On ch=3 n=31 v=0
41454 On ch=3 n=31 v=112
41505 On ch=3 n=31 v=0
41519 On ch=3 n=33 v=110
41609 On ch=3 n=33 v=0
41761 On ch=3 n=40 v=127
41881 On ch=3 n=40 v=0
42058 On ch=3 n=40 v=112
42091 On ch=3 n=40 v=0
42120 On ch=3 n=40 v=100
42162 On ch=3 n=40 v=0
42179 On ch=3 n=39 v=123
42225 On ch=3 n=39 v=0
42240 On ch=3 n=37 v=83
42352 On ch=3 n=37 v=0
42544 On ch=3 n=37 v=73
42579 On ch=3 n=37 v=0
42609 On ch=3 n=37 v=80
42693 On ch=3 n=37 v=0
42729 On ch=3 n=42 v=102
42862 On ch=3 n=42 v=0
43011 On ch=3 n=30 v=62
43059 On ch=3 n=30 v=0
43067 On ch=3 n=32 v=63
43115 On ch=3 n=32 v=0
43127 On ch=3 n=33 v=77
43181 On ch=3 n=33 v=0
43197 On ch=3 n=35 v=117
43332 On ch=3 n=35 v=0
43500 On ch=3 n=35 v=86
43550 On ch=3 n=35 v=0
43562 On ch=3 n=37 v=83
43610 On ch=3 n=37 v=0
43618 On ch=3 n=39 v=97
43668 On ch=3 n=39 v=0
43679 On ch=3 n=40 v=106
43792 On ch=3 n=40 v=0
43980 On ch=3 n=40 v=90
44010 On ch=3 n=40 v=0
44037 On ch=3 n=40 v=87
44091 On ch=3 n=40 v=0
44099 On ch=3 n=39 v=104
44164 On ch=3 n=39 v=0
44166 On ch=3 n=37 v=85
44263 On ch=3 n=37 v=0
44466 On ch=3 n=37 v=84
44513 On ch=3 n=37 v=0
44515 On ch=3 n=39 v=61
44564 On ch=3 n=39 v=0
44575 On ch=3 n=40 v=92
44629 On ch=3 n=40 v=0
44638 On ch=3 n=42 v=97
44736 On ch=3 n=42 v=0
44946 On ch=3 n=35 v=70
44988 On ch=3 n=35 v=0
44997 On ch=3 n=37 v=73
45030 On ch=3 n=37 v=0
45058 On ch=3 n=37 v=78
45108 On ch=3 n=37 v=0
45122 On ch=3 n=35 v=88
45187 On ch=3 n=35 v=0
45423 On ch=3 n=35 v=88
45454 On ch=3 n=35 v=0
45481 On ch=3 n=35 v=85
45514 On ch=3 n=35 v=0
45535 On ch=3 n=35 v=87
45578 On ch=3 n=35 v=0
45607 On ch=3 n=40 v=97
45723 On ch=3 n=40 v=0
45787 On ch=3 n=40 v=98
45831 On ch=3 n=40 v=0
45851 On ch=3 n=40 v=102
45958 On ch=3 n=40 v=0
46088 On ch=3 n=40 v=98
46217 On ch=3 n=40 v=0
46259 On ch=3 n=40 v=94
46315 On ch=3 n=40 v=0
46319 On ch=3 n=42 v=86
46369 On ch=3 n=42 v=0
46373 On ch=3 n=44 v=77
46421 On ch=3 n=44 v=0
46443 On ch=3 n=47 v=98
46551 On ch=3 n=47 v=0
46560 On ch=3 n=32 v=84
46679 On ch=3 n=32 v=0
46732 On ch=3 n=32 v=89
46773 On ch=3 n=32 v=0
46799 On ch=3 n=32 v=91
46925 On ch=3 n=32 v=0
47042 On ch=3 n=32 v=87
47179 On ch=3 n=32 v=0
47221 On ch=3 n=32 v=95
47274 On ch=3 n=32 v=0
47286 On ch=3 n=44 v=107
47381 On ch=3 n=44 v=0
47416 On ch=3 n=37 v=79
47455 On ch=3 n=37 v=0
47464 On ch=3 n=35 v=87
47520 On ch=3 n=33 v=98
47523 On ch=3 n=35 v=0
47637 On ch=3 n=33 v=0
47700 On ch=3 n=45 v=114
47734 On ch=3 n=45 v=0
47759 On ch=3 n=45 v=106
47809 On ch=3 n=45 v=0
47817 On ch=3 n=47 v=70
47837 On ch=3 n=47 v=0
47885 On ch=3 n=45 v=114
47983 On ch=3 n=45 v=0
48000 On ch=3 n=35 v=106
48173 On ch=3 n=35 v=0
48247 On ch=3 n=35 v=106
48288 On ch=3 n=35 v=0
48308 On ch=3 n=35 v=98
48353 On ch=3 n=35 v=0
48363 On ch=3 n=39 v=99
48419 On ch=3 n=39 v=0
48429 On ch=3 n=42 v=90
48480 On ch=3 n=45 v=85
48492 On ch=3 n=42 v=0
48617 On ch=3 n=45 v=0
48656 On ch=3 n=40 v=86
48704 On ch=3 n=40 v=0
48720 On ch=3 n=45 v=100
48767 Pb ch=3 v=8660
48772 Pb ch=3 v=10649
48777 Pb ch=3 v=13925
48781 Pb ch=3 v=16383
48800 On ch=3 n=45 v=0
48801 Pb ch=3 v=16382
48806 Pb ch=3 v=14393
48810 Pb ch=3 v=10883
48815 Pb ch=3 v=8192
48841 On ch=3 n=45 v=90
48960 On ch=3 n=45 v=0
48960 On ch=3 n=35 v=74
49103 On ch=3 n=35 v=0
49149 On ch=3 n=35 v=79
49199 On ch=3 n=35 v=0
49206 On ch=3 n=47 v=102
49243 Pb ch=3 v=8543
49248 Pb ch=3 v=9479
49252 Pb ch=3 v=10415
49256 Pb ch=3 v=11117
49261 Pb ch=3 v=11585
49267 Pb ch=3 v=12053
49271 Pb ch=3 v=12638
49277 Pb ch=3 v=13223
49280 Pb ch=3 v=13691
49285 Pb ch=3 v=14042
49290 Pb ch=3 v=14276
49306 Pb ch=3 v=13691
49310 Pb ch=3 v=12638
49313 On ch=3 n=47 v=0
49314 Pb ch=3 v=10766
49319 Pb ch=3 v=9128
49324 Pb ch=3 v=8192
49325 On ch=3 n=47 v=97
49325 On ch=3 n=48 v=68
49346 On ch=3 n=48 v=0
49440 On ch=3 n=47 v=0
49443 On ch=3 n=40 v=81
49566 On ch=3 n=40 v=0
49619 On ch=3 n=40 v=84
49657 On ch=3 n=40 v=0
49682 On ch=3 n=40 v=87
49803 On ch=3 n=40 v=0
49924 On ch=3 n=40 v=79
50056 On ch=3 n=40 v=0
50099 On ch=3 n=40 v=94
50146 On ch=3 n=40 v=0
50156 On ch=3 n=42 v=84
50202 On ch=3 n=42 v=0
50212 On ch=3 n=44 v=81
50269 On ch=3 n=44 v=0
50277 On ch=3 n=47 v=91
50382 On ch=3 n=47 v=0
50400 On ch=3 n=32 v=77
50523 On ch=3 n=32 v=0
50579 On ch=3 n=32 v=91
50624 On ch=3 n=32 v=0
50642 On ch=3 n=32 v=81
50763 On ch=3 n=32 v=0
50868 On ch=3 n=32 v=78
50998 On ch=3 n=32 v=0
51050 On ch=3 n=32 v=60
51106 On ch=3 n=32 v=0
51116 On ch=3 n=44 v=63
51198 On ch=3 n=44 v=0
51238 On ch=3 n=37 v=90
51287 On ch=3 n=37 v=0
51292 On ch=3 n=35 v=83
51362 On ch=3 n=35 v=0
51363 On ch=3 n=33 v=67
51485 On ch=3 n=33 v=0
51539 On ch=3 n=33 v=73
51592 On ch=3 n=33 v=0
51593 On ch=3 n=45 v=90
51667 Pb ch=3 v=8309
51676 Pb ch=3 v=8192
51692 On ch=3 n=45 v=0
51727 On ch=3 n=33 v=73
51813 On ch=3 n=33 v=0
51841 On ch=3 n=35 v=76
51972 On ch=3 n=35 v=0
52025 On ch=3 n=35 v=68
52058 On ch=3 n=35 v=0
52080 On ch=3 n=35 v=75
52135 On ch=3 n=35 v=0
52140 On ch=3 n=39 v=87
52191 On ch=3 n=39 v=0
52204 On ch=3 n=42 v=88
52313 On ch=3 n=42 v=0
52320 On ch=3 n=45 v=86
52351 On ch=3 n=45 v=0
52373 On ch=3 n=45 v=80
52431 On ch=3 n=45 v=0
52437 On ch=3 n=40 v=77
52472 On ch=3 n=40 v=0
52495 On ch=3 n=40 v=80
52544 On ch=3 n=40 v=0
52551 On ch=3 n=45 v=79
52598 Pb ch=3 v=8543
52603 Pb ch=3 v=9245
52608 Pb ch=3 v=10298
52612 Pb ch=3 v=11585
52617 Pb ch=3 v=13106
52622 Pb ch=3 v=14744
52627 Pb ch=3 v=16383
52666 On ch=3 n=45 v=0
52666 Pb ch=3 v=16148
52670 Pb ch=3 v=13691
52675 Pb ch=3 v=11117
52680 Pb ch=3 v=8309
52685 Pb ch=3 v=8192
52685 On ch=3 n=45 v=80
52771 On ch=3 n=45 v=0
52800 On ch=3 n=35 v=92
52943 On ch=3 n=35 v=0
52981 On ch=3 n=35 v=104
53037 On ch=3 n=35 v=0
53043 On ch=3 n=47 v=70
53077 On ch=3 n=47 v=0
53098 On ch=3 n=47 v=70
53137 On ch=3 n=47 v=0
53160 On ch=3 n=47 v=67
53197 On ch=3 n=47 v=0
53215 On ch=3 n=47 v=57
53268 On ch=3 n=47 v=0
53280 On ch=3 n=40 v=97
53396 On ch=3 n=40 v=0
53467 On ch=3 n=40 v=98
53511 On ch=3 n=40 v=0
53531 On ch=3 n=40 v=102
53638 On ch=3 n=40 v=0
53770 On ch=3 n=40 v=98
53899 On ch=3 n=40 v=0
53939 On ch=3 n=40 v=94
53995 On ch=3 n=40 v=0
53999 On ch=3 n=42 v=86
54049 On ch=3 n=42 v=0
54053 On ch=3 n=44 v=77
54101 On ch=3 n=44 v=0
54123 On ch=3 n=47 v=98
54231 On ch=3 n=47 v=0
54240 On ch=3 n=32 v=84
54359 On ch=3 n=32 v=0
54412 On ch=3 n=32 v=89
54453 On ch=3 n=32 v=0
54479 On ch=3 n=32 v=91
54605 On ch=3 n=32 v=0
54722 On ch=3 n=32 v=87
54859 On ch=3 n=32 v=0
54901 On ch=3 n=32 v=95
54954 On ch=3 n=32 v=0
54966 On ch=3 n=44 v=107
55061 On ch=3 n=44 v=0
55096 On ch=3 n=37 v=79
55135 On ch=3 n=37 v=0
55144 On ch=3 n=35 v=87
55200 On ch=3 n=33 v=98
55203 On ch=3 n=35 v=0
55317 On ch=3 n=33 v=0
55380 On ch=3 n=45 v=114
55414 On ch=3 n=45 v=0
55439 On ch=3 n=45 v=106
55489 On ch=3 n=45 v=0
55497 On ch=3 n=47 v=70
55517 On ch=3 n=47 v=0
55565 On ch=3 n=45 v=114
55663 On ch=3 n=45 v=0
55680 On ch=3 n=35 v=106
55853 On ch=3 n=35 v=0
55927 On ch=3 n=35 v=106
55968 On ch=3 n=35 v=0
55988 On ch=3 n=35 v=98
56033 On ch=3 n=35 v=0
56043 On ch=3 n=39 v=99
56099 On ch=3 n=39 v=0
56109 On ch=3 n=42 v=90
56160 On ch=3 n=45 v=85
56172 On ch=3 n=42 v=0
56297 On ch=3 n=45 v=0
56336 On ch=3 n=40 v=86
56384 On ch=3 n=40 v=0
56400 On ch=3 n=45 v=100
56447 Pb ch=3 v=8660
56452 Pb ch=3 v=10649
56457 Pb ch=3 v=13925
56461 Pb ch=3 v=16383
56480 On ch=3 n=45 v=0
56481 Pb ch=3 v=16382
56486 Pb ch=3 v=14393
56490 Pb ch=3 v=10883
56495 Pb ch=3 v=8192
56521 On ch=3 n=45 v=90
56640 On ch=3 n=45 v=0
56640 On ch=3 n=35 v=74
56783 On ch=3 n=35 v=0
56829 On ch=3 n=35 v=79
56879 On ch=3 n=35 v=0
56886 On ch=3 n=47 v=102
56923 Pb ch=3 v=8543
56928 Pb ch=3 v=9479
56932 Pb ch=3 v=10415
56936 Pb ch=3 v=11117
56941 Pb ch=3 v=11585
56947 Pb ch=3 v=12053
56951 Pb ch=3 v=12638
56957 Pb ch=3 v=13223
56960 Pb ch=3 v=13691
56965 Pb ch=3 v=14042
56970 Pb ch=3 v=14276
56986 Pb ch=3 v=13691
56990 Pb ch=3 v=12638
56993 On ch=3 n=47 v=0
56994 Pb ch=3 v=10766
56999 Pb ch=3 v=9128
57004 Pb ch=3 v=8192
57005 On ch=3 n=47 v=97
57005 On ch=3 n=48 v=68
57026 On ch=3 n=48 v=0
57120 On ch=3 n=47 v=0
57120 On ch=3 n=40 v=81
57243 On ch=3 n=40 v=0
57299 On ch=3 n=40 v=84
57337 On ch=3 n=40 v=0
57362 On ch=3 n=40 v=87
57483 On ch=3 n=40 v=0
57598 On ch=3 n=40 v=79
57730 On ch=3 n=40 v=0
57779 On ch=3 n=40 v=94
57826 On ch=3 n=40 v=0
57836 On ch=3 n=42 v=84
57882 On ch=3 n=42 v=0
57892 On ch=3 n=44 v=81
57949 On ch=3 n=44 v=0
57957 On ch=3 n=47 v=91
58062 On ch=3 n=47 v=0
58080 On ch=3 n=32 v=77
58203 On ch=3 n=32 v=0
58259 On ch=3 n=32 v=91
58304 On ch=3 n=32 v=0
58322 On ch=3 n=32 v=81
58443 On ch=3 n=32 v=0
58548 On ch=3 n=32 v=78
58678 On ch=3 n=32 v=0
58730 On ch=3 n=32 v=60
58786 On ch=3 n=32 v=0
58796 On ch=3 n=44 v=63
58878 On ch=3 n=44 v=0
58918 On ch=3 n=37 v=90
58967 On ch=3 n=37 v=0
58972 On ch=3 n=35 v=83
59042 On ch=3 n=35 v=0
59043 On ch=3 n=33 v=67
59165 On ch=3 n=33 v=0
59219 On ch=3 n=33 v=73
59272 On ch=3 n=33 v=0
59273 On ch=3 n=45 v=90
59347 Pb ch=3 v=8309
59356 Pb ch=3 v=8192
59372 On ch=3 n=45 v=0
59407 On ch=3 n=33 v=73
59493 On ch=3 n=33 v=0
59521 On ch=3 n=35 v=76
59652 On ch=3 n=35 v=0
59705 On ch=3 n=35 v=68
59738 On ch=3 n=35 v=0
59760 On ch=3 n=35 v=75
59815 On ch=3 n=35 v=0
59820 On ch=3 n=39 v=87
59871 On ch=3 n=39 v=0
59884 On ch=3 n=42 v=88
59993 On ch=3 n=42 v=0
60000 On ch=3 n=45 v=86
60031 On ch=3 n=45 v=0
60053 On ch=3 n=45 v=80
60111 On ch=3 n=45 v=0
60117 On ch=3 n=40 v=77
60152 On ch=3 n=40 v=0
60175 On ch=3 n=40 v=80
60224 On ch=3 n=40 v=0
60231 On ch=3 n=45 v=79
60278 Pb ch=3 v=8543
60283 Pb ch=3 v=9245
60288 Pb ch=3 v=10298
60292 Pb ch=3 v=11585
60297 Pb ch=3 v=13106
60302 Pb ch=3 v=14744
60307 Pb ch=3 v=16383
60346 On ch=3 n=45 v=0
60346 Pb ch=3 v=16148
60350 Pb ch=3 v=13691
60355 Pb ch=3 v=11117
60360 Pb ch=3 v=8309
60365 Pb ch=3 v=8192
60365 On ch=3 n=45 v=80
60451 On ch=3 n=45 v=0
60480 On ch=3 n=35 v=92
60623 On ch=3 n=35 v=0
60661 On ch=3 n=35 v=104
60717 On ch=3 n=35 v=0
60723 On ch=3 n=47 v=70
60757 On ch=3 n=47 v=0
60778 On ch=3 n=47 v=70
60817 On ch=3 n=47 v=0
60840 On ch=3 n=47 v=67
60877 On ch=3 n=47 v=0
60895 On ch=3 n=47 v=57
60948 On ch=3 n=47 v=0
60964 On ch=3 n=40 v=97
61080 On ch=3 n=40 v=0
61147 On ch=3 n=40 v=98
61191 On ch=3 n=40 v=0
61211 On ch=3 n=40 v=102
61318 On ch=3 n=40 v=0
61450 On ch=3 n=40 v=98
61579 On ch=3 n=40 v=0
61619 On ch=3 n=40 v=94
61675 On ch=3 n=40 v=0
61679 On ch=3 n=42 v=86
61729 On ch=3 n=42 v=0
61733 On ch=3 n=44 v=77
61781 On ch=3 n=44 v=0
61803 On ch=3 n=47 v=98
61911 On ch=3 n=47 v=0
61920 On ch=3 n=32 v=84
62039 On ch=3 n=32 v=0
62092 On ch=3 n=32 v=89
62133 On ch=3 n=32 v=0
62159 On ch=3 n=32 v=91
62285 On ch=3 n=32 v=0
62402 On ch=3 n=32 v=87
62539 On ch=3 n=32 v=0
62581 On ch=3 n=32 v=95
62634 On ch=3 n=32 v=0
62646 On ch=3 n=44 v=107
62741 On ch=3 n=44 v=0
62776 On ch=3 n=37 v=79
62815 On ch=3 n=37 v=0
62824 On ch=3 n=35 v=87
62880 On ch=3 n=33 v=98
62883 On ch=3 n=35 v=0
62997 On ch=3 n=33 v=0
63060 On ch=3 n=45 v=114
63094 On ch=3 n=45 v=0
63119 On ch=3 n=45 v=106
63169 On ch=3 n=45 v=0
63177 On ch=3 n=47 v=70
63197 On ch=3 n=47 v=0
63245 On ch=3 n=45 v=114
63343 On ch=3 n=45 v=0
63360 On ch=3 n=35 v=106
63533 On ch=3 n=35 v=0
63607 On ch=3 n=35 v=106
63648 On ch=3 n=35 v=0
63668 On ch=3 n=35 v=98
63713 On ch=3 n=35 v=0
63723 On ch=3 n=39 v=99
63779 On ch=3 n=39 v=0
63789 On ch=3 n=42 v=90
63840 On ch=3 n=45 v=85
63852 On ch=3 n=42 v=0
63977 On ch=3 n=45 v=0
64016 On ch=3 n=40 v=86
64064 On ch=3 n=40 v=0
64080 On ch=3 n=45 v=100
64127 Pb ch=3 v=8660
64132 Pb ch=3 v=10649
64137 Pb ch=3 v=13925
64141 Pb ch=3 v=16383
64160 On ch=3 n=45 v=0
64161 Pb ch=3 v=16382
64166 Pb ch=3 v=14393
64170 Pb ch=3 v=10883
64175 Pb ch=3 v=8192
64201 On ch=3 n=45 v=90
64320 On ch=3 n=45 v=0
64320 On ch=3 n=35 v=74
64463 On ch=3 n=35 v=0
64509 On ch=3 n=35 v=79
64559 On ch=3 n=35 v=0
64566 On ch=3 n=47 v=102
64603 Pb ch=3 v=8543
64608 Pb ch=3 v=9479
64612 Pb ch=3 v=10415
64616 Pb ch=3 v=11117
64621 Pb ch=3 v=11585
64627 Pb ch=3 v=12053
64631 Pb ch=3 v=12638
64637 Pb ch=3 v=13223
64640 Pb ch=3 v=13691
64645 Pb ch=3 v=14042
64650 Pb ch=3 v=14276
64666 Pb ch=3 v=13691
64670 Pb ch=3 v=12638
64673 On ch=3 n=47 v=0
64674 Pb ch=3 v=10766
64679 Pb ch=3 v=9128
64684 Pb ch=3 v=8192
64685 On ch=3 n=47 v=97
64685 On ch=3 n=48 v=68
64706 On ch=3 n=48 v=0
64800 On ch=3 n=47 v=0
64800 Meta TrkEnd
TrkEnd
MTrk
0 Meta 0x21 00
0 PrCh ch=4 p=90
0 Par ch=4 c=7 v=120
0 Par ch=4 c=10 v=65
0 Par ch=4 c=91 v=86
0 Par ch=4 c=93 v=72
481 On ch=4 n=81 v=94
482 On ch=4 n=78 v=123
482 On ch=4 n=74 v=97
540 On ch=4 n=78 v=0
541 On ch=4 n=74 v=0
545 On ch=4 n=81 v=0
602 On ch=4 n=78 v=119
603 On ch=4 n=74 v=98
603 On ch=4 n=81 v=102
630 On ch=4 n=74 v=0
632 On ch=4 n=78 v=0
638 On ch=4 n=81 v=0
660 On ch=4 n=74 v=84
661 On ch=4 n=81 v=91
662 On ch=4 n=78 v=99
684 On ch=4 n=74 v=0
687 On ch=4 n=78 v=0
690 On ch=4 n=81 v=0
717 On ch=4 n=81 v=98
717 On ch=4 n=78 v=116
717 On ch=4 n=74 v=100
741 On ch=4 n=74 v=0
743 On ch=4 n=78 v=0
750 On ch=4 n=81 v=0
774 On ch=4 n=81 v=94
776 On ch=4 n=78 v=116
776 On ch=4 n=74 v=104
830 On ch=4 n=78 v=0
832 On ch=4 n=74 v=0
834 On ch=4 n=81 v=0
1435 On ch=4 n=79 v=95
1437 On ch=4 n=74 v=117
1437 On ch=4 n=71 v=95
1500 On ch=4 n=79 v=0
1502 On ch=4 n=71 v=0
1504 On ch=4 n=74 v=0
1560 On ch=4 n=74 v=117
1562 On ch=4 n=79 v=102
1564 On ch=4 n=71 v=81
1588 On ch=4 n=71 v=0
1590 On ch=4 n=74 v=0
1592 On ch=4 n=79 v=0
1621 On ch=4 n=74 v=106
1621 On ch=4 n=71 v=90
1621 On ch=4 n=79 v=90
1649 On ch=4 n=71 v=0
1652 On ch=4 n=74 v=0
1653 On ch=4 n=79 v=0
1678 On ch=4 n=71 v=104
1679 On ch=4 n=79 v=100
1680 On ch=4 n=74 v=117
1704 On ch=4 n=71 v=0
1709 On ch=4 n=74 v=0
1710 On ch=4 n=79 v=0
1737 On ch=4 n=79 v=120
1737 On ch=4 n=74 v=127
1738 On ch=4 n=71 v=114
1789 On ch=4 n=71 v=0
1789 On ch=4 n=74 v=0
1792 On ch=4 n=79 v=0
2397 On ch=4 n=78 v=116
2398 On ch=4 n=81 v=106
2400 On ch=4 n=74 v=100
2464 On ch=4 n=74 v=0
2464 On ch=4 n=78 v=0
2467 On ch=4 n=81 v=0
2520 On ch=4 n=78 v=123
2520 On ch=4 n=81 v=110
2520 On ch=4 n=74 v=106
2545 On ch=4 n=74 v=0
2546 On ch=4 n=78 v=0
2554 On ch=4 n=81 v=0
2579 On ch=4 n=81 v=98
2580 On ch=4 n=74 v=98
2580 On ch=4 n=78 v=123
2603 On ch=4 n=74 v=0
2606 On ch=4 n=78 v=0
2610 On ch=4 n=81 v=0
2638 On ch=4 n=81 v=91
2641 On ch=4 n=74 v=95
2641 On ch=4 n=78 v=116
2666 On ch=4 n=74 v=0
2670 On ch=4 n=78 v=0
2674 On ch=4 n=81 v=0
2698 On ch=4 n=81 v=94
2699 On ch=4 n=78 v=116
2699 On ch=4 n=74 v=100
2745 On ch=4 n=74 v=0
2747 On ch=4 n=78 v=0
2752 On ch=4 n=81 v=0
3362 On ch=4 n=79 v=97
3364 On ch=4 n=74 v=112
3364 On ch=4 n=71 v=100
3424 On ch=4 n=79 v=0
3425 On ch=4 n=71 v=0
3428 On ch=4 n=74 v=0
3479 On ch=4 n=74 v=110
3481 On ch=4 n=71 v=90
3481 On ch=4 n=79 v=90
3509 On ch=4 n=71 v=0
3512 On ch=4 n=79 v=0
3512 On ch=4 n=74 v=0
3542 On ch=4 n=74 v=112
3543 On ch=4 n=71 v=97
3543 On ch=4 n=79 v=102
3586 On ch=4 n=74 v=0
3589 On ch=4 n=71 v=0
3594 On ch=4 n=79 v=0
3657 On ch=4 n=79 v=91
3660 On ch=4 n=74 v=108
3660 On ch=4 n=71 v=87
3721 On ch=4 n=74 v=0
3721 On ch=4 n=79 v=0
3726 On ch=4 n=71 v=0
3838 On ch=4 n=76 v=94
3840 On ch=4 n=73 v=77
3843 On ch=4 n=81 v=83
3858 On ch=4 n=73 v=0
3863 On ch=4 n=76 v=0
3870 On ch=4 n=81 v=0
5094 On ch=4 n=83 v=112
5130 On ch=4 n=83 v=0
5155 On ch=4 n=78 v=110
5184 On ch=4 n=78 v=0
5213 On ch=4 n=74 v=110
5266 On ch=4 n=74 v=0
7016 On ch=4 n=83 v=108
7050 On ch=4 n=83 v=0
7075 On ch=4 n=78 v=101
7111 On ch=4 n=78 v=0
7132 On ch=4 n=74 v=104
7182 On ch=4 n=74 v=0
10080 On ch=4 n=67 v=86
10080 On ch=4 n=62 v=84
10082 On ch=4 n=59 v=85
10914 On ch=4 n=67 v=0
10996 On ch=4 n=62 v=0
11009 On ch=4 n=59 v=0
11042 On ch=4 n=71 v=98
11044 On ch=4 n=67 v=102
11044 On ch=4 n=62 v=90
11447 On ch=4 n=67 v=0
11450 On ch=4 n=71 v=0
11484 On ch=4 n=62 v=0
11507 On ch=4 n=73 v=101
11508 On ch=4 n=76 v=100
11512 On ch=4 n=69 v=100
11513 On ch=4 n=64 v=106
12462 On ch=4 n=64 v=0
12462 On ch=4 n=69 v=0
12468 On ch=4 n=76 v=0
12468 On ch=4 n=73 v=0
12606 On ch=4 n=78 v=97
12608 On ch=4 n=74 v=95
12608 On ch=4 n=81 v=102
12610 On ch=4 n=86 v=94
12657 On ch=4 n=86 v=0
12668 On ch=4 n=81 v=0
12668 On ch=4 n=74 v=0
12673 On ch=4 n=78 v=0
12843 On ch=4 n=78 v=119
12844 On ch=4 n=81 v=106
12846 On ch=4 n=74 v=100
12848 On ch=4 n=86 v=90
12877 On ch=4 n=78 v=0
12878 On ch=4 n=81 v=0
12882 On ch=4 n=74 v=0
12885 On ch=4 n=86 v=0
12900 On ch=4 n=78 v=99
12902 On ch=4 n=81 v=98
12902 On ch=4 n=86 v=76
12904 On ch=4 n=74 v=91
13000 On ch=4 n=86 v=0
13003 On ch=4 n=78 v=0
13003 On ch=4 n=81 v=0
13008 On ch=4 n=74 v=0
13315 On ch=4 n=74 v=73
13317 On ch=4 n=78 v=61
13319 On ch=4 n=81 v=77
13320 On ch=4 n=86 v=66
13390 On ch=4 n=86 v=0
13397 On ch=4 n=81 v=0
13401 On ch=4 n=74 v=0
13403 On ch=4 n=78 v=0
13433 On ch=4 n=73 v=101
13433 On ch=4 n=78 v=71
13437 On ch=4 n=81 v=81
13444 On ch=4 n=85 v=56
13452 On ch=4 n=85 v=0
13461 On ch=4 n=81 v=0
13463 On ch=4 n=78 v=0
13485 On ch=4 n=73 v=0
13560 On ch=4 n=73 v=113
13562 On ch=4 n=78 v=116
13562 On ch=4 n=85 v=87
13563 On ch=4 n=81 v=110
13626 On ch=4 n=85 v=0
13631 On ch=4 n=81 v=0
13635 On ch=4 n=78 v=0
13635 On ch=4 n=73 v=0
13803 On ch=4 n=78 v=123
13805 On ch=4 n=73 v=110
13805 On ch=4 n=81 v=108
13807 On ch=4 n=85 v=87
13832 On ch=4 n=78 v=0
13834 On ch=4 n=81 v=0
13837 On ch=4 n=73 v=0
13844 On ch=4 n=85 v=0
13855 On ch=4 n=85 v=61
13856 On ch=4 n=78 v=101
13857 On ch=4 n=81 v=104
13858 On ch=4 n=73 v=101
13955 On ch=4 n=81 v=0
13955 On ch=4 n=85 v=0
13959 On ch=4 n=78 v=0
13964 On ch=4 n=73 v=0
14273 On ch=4 n=78 v=39
14274 On ch=4 n=85 v=56
14280 On ch=4 n=73 v=67
14285 On ch=4 n=81 v=64
14355 On ch=4 n=81 v=0
14355 On ch=4 n=78 v=0
14357 On ch=4 n=73 v=0
14357 On ch=4 n=85 v=0
15185 On ch=4 n=81 v=110
15218 On ch=4 n=81 v=0
15219 Pb ch=4 v=7957
15224 Pb ch=4 v=7255
15228 Pb ch=4 v=6787
15238 Pb ch=4 v=7489
15242 Pb ch=4 v=8192
15244 On ch=4 n=93 v=122
15301 On ch=4 n=93 v=0
15307 On ch=4 n=81 v=120
15362 On ch=4 n=81 v=0
16141 On ch=4 n=81 v=117
16176 On ch=4 n=81 v=0
16199 On ch=4 n=93 v=125
16251 On ch=4 n=93 v=0
16256 On ch=4 n=81 v=106
16318 On ch=4 n=81 v=0
16437 On ch=4 n=78 v=95
16437 On ch=4 n=74 v=91
16438 On ch=4 n=81 v=104
16442 On ch=4 n=86 v=90
16495 On ch=4 n=86 v=0
16505 On ch=4 n=74 v=0
16507 On ch=4 n=81 v=0
16516 On ch=4 n=78 v=0
16679 On ch=4 n=78 v=107
16682 On ch=4 n=81 v=102
16682 On ch=4 n=74 v=97
16685 On ch=4 n=86 v=88
16713 On ch=4 n=78 v=0
16717 On ch=4 n=81 v=0
16718 On ch=4 n=74 v=0
16719 On ch=4 n=86 v=0
16737 On ch=4 n=78 v=99
16738 On ch=4 n=86 v=73
16739 On ch=4 n=81 v=117
16740 On ch=4 n=74 v=97
16824 On ch=4 n=86 v=0
16826 On ch=4 n=81 v=0
16830 On ch=4 n=78 v=0
16835 On ch=4 n=74 v=0
17154 On ch=4 n=78 v=67
17156 On ch=4 n=74 v=86
17156 On ch=4 n=81 v=80
17165 On ch=4 n=86 v=61
17179 On ch=4 n=86 v=0
17186 On ch=4 n=81 v=0
17189 On ch=4 n=78 v=0
17215 On ch=4 n=74 v=0
17399 On ch=4 n=73 v=89
17401 On ch=4 n=78 v=95
17403 On ch=4 n=85 v=81
17403 On ch=4 n=81 v=104
17454 On ch=4 n=81 v=0
17455 On ch=4 n=85 v=0
17459 On ch=4 n=73 v=0
17464 On ch=4 n=78 v=0
17642 On ch=4 n=73 v=101
17644 On ch=4 n=78 v=116
17646 On ch=4 n=81 v=110
17647 On ch=4 n=85 v=87
17674 On ch=4 n=78 v=0
17676 On ch=4 n=81 v=0
17677 On ch=4 n=73 v=0
17680 On ch=4 n=85 v=0
17695 On ch=4 n=78 v=93
17696 On ch=4 n=85 v=73
17697 On ch=4 n=81 v=104
17699 On ch=4 n=73 v=93
17804 On ch=4 n=85 v=0
17806 On ch=4 n=81 v=0
17809 On ch=4 n=78 v=0
17810 On ch=4 n=73 v=0
18116 On ch=4 n=78 v=66
18117 On ch=4 n=85 v=62
18118 On ch=4 n=73 v=78
18121 On ch=4 n=81 v=83
18156 On ch=4 n=81 v=0
18156 On ch=4 n=85 v=0
18158 On ch=4 n=78 v=0
18167 On ch=4 n=73 v=0
19018 On ch=4 n=81 v=100
19057 On ch=4 n=81 v=0
19065 Pb ch=4 v=7372
19069 Pb ch=4 v=6436
19074 Pb ch=4 v=6085
19079 On ch=4 n=93 v=120
19089 Pb ch=4 v=6787
19094 Pb ch=4 v=8074
19099 Pb ch=4 v=8192
19133 On ch=4 n=93 v=0
19139 On ch=4 n=81 v=102
19200 On ch=4 n=81 v=0
19974 On ch=4 n=81 v=108
20013 On ch=4 n=81 v=0
20025 Pb ch=4 v=6319
20030 Pb ch=4 v=4915
20035 Pb ch=4 v=4096
20039 On ch=4 n=93 v=117
20044 Pb ch=4 v=4330
20049 Pb ch=4 v=5032
20054 Pb ch=4 v=6202
20059 Pb ch=4 v=7723
20064 Pb ch=4 v=8192
20095 On ch=4 n=81 v=92
20097 On ch=4 n=93 v=0
20158 On ch=4 n=81 v=0
21121 On ch=4 n=81 v=94
21122 On ch=4 n=78 v=123
21122 On ch=4 n=74 v=97
21180 On ch=4 n=78 v=0
21181 On ch=4 n=74 v=0
21185 On ch=4 n=81 v=0
21242 On ch=4 n=78 v=119
21243 On ch=4 n=74 v=98
21243 On ch=4 n=81 v=102
21270 On ch=4 n=74 v=0
21272 On ch=4 n=78 v=0
21278 On ch=4 n=81 v=0
21300 On ch=4 n=74 v=84
21301 On ch=4 n=81 v=91
21302 On ch=4 n=78 v=99
21324 On ch=4 n=74 v=0
21327 On ch=4 n=78 v=0
21330 On ch=4 n=81 v=0
21357 On ch=4 n=81 v=98
21357 On ch=4 n=78 v=116
21357 On ch=4 n=74 v=100
21381 On ch=4 n=74 v=0
21383 On ch=4 n=78 v=0
21390 On ch=4 n=81 v=0
21414 On ch=4 n=81 v=94
21416 On ch=4 n=78 v=116
21416 On ch=4 n=74 v=104
21470 On ch=4 n=78 v=0
21472 On ch=4 n=74 v=0
21474 On ch=4 n=81 v=0
22075 On ch=4 n=79 v=95
22077 On ch=4 n=74 v=117
22077 On ch=4 n=71 v=95
22140 On ch=4 n=79 v=0
22142 On ch=4 n=71 v=0
22144 On ch=4 n=74 v=0
22200 On ch=4 n=74 v=117
22202 On ch=4 n=79 v=102
22204 On ch=4 n=71 v=81
22228 On ch=4 n=71 v=0
22230 On ch=4 n=74 v=0
22232 On ch=4 n=79 v=0
22261 On ch=4 n=74 v=106
22261 On ch=4 n=71 v=90
22261 On ch=4 n=79 v=90
22289 On ch=4 n=71 v=0
22292 On ch=4 n=74 v=0
22293 On ch=4 n=79 v=0
22318 On ch=4 n=71 v=104
22319 On ch=4 n=79 v=100
22320 On ch=4 n=74 v=117
22344 On ch=4 n=71 v=0
22349 On ch=4 n=74 v=0
22350 On ch=4 n=79 v=0
22377 On ch=4 n=79 v=120
22377 On ch=4 n=74 v=127
22378 On ch=4 n=71 v=114
22429 On ch=4 n=71 v=0
22429 On ch=4 n=74 v=0
22432 On ch=4 n=79 v=0
23037 On ch=4 n=78 v=116
23038 On ch=4 n=81 v=106
23040 On ch=4 n=74 v=100
23104 On ch=4 n=74 v=0
23104 On ch=4 n=78 v=0
23107 On ch=4 n=81 v=0
23160 On ch=4 n=78 v=123
23160 On ch=4 n=81 v=110
23160 On ch=4 n=74 v=106
23185 On ch=4 n=74 v=0
23186 On ch=4 n=78 v=0
23194 On ch=4 n=81 v=0
23219 On ch=4 n=81 v=98
23220 On ch=4 n=74 v=98
23220 On ch=4 n=78 v=123
23243 On ch=4 n=74 v=0
23246 On ch=4 n=78 v=0
23250 On ch=4 n=81 v=0
23278 On ch=4 n=81 v=91
23281 On ch=4 n=74 v=95
23281 On ch=4 n=78 v=116
23306 On ch=4 n=74 v=0
23310 On ch=4 n=78 v=0
23314 On ch=4 n=81 v=0
23338 On ch=4 n=81 v=94
23339 On ch=4 n=78 v=116
23339 On ch=4 n=74 v=100
23385 On ch=4 n=74 v=0
23387 On ch=4 n=78 v=0
23392 On ch=4 n=81 v=0
24002 On ch=4 n=79 v=97
24004 On ch=4 n=74 v=112
24004 On ch=4 n=71 v=100
24064 On ch=4 n=79 v=0
24065 On ch=4 n=71 v=0
24068 On ch=4 n=74 v=0
24119 On ch=4 n=74 v=110
24121 On ch=4 n=71 v=90
24121 On ch=4 n=79 v=90
24149 On ch=4 n=71 v=0
24152 On ch=4 n=79 v=0
24152 On ch=4 n=74 v=0
24182 On ch=4 n=74 v=112
24183 On ch=4 n=71 v=97
24183 On ch=4 n=79 v=102
24226 On ch=4 n=74 v=0
24229 On ch=4 n=71 v=0
24234 On ch=4 n=79 v=0
24297 On ch=4 n=79 v=91
24300 On ch=4 n=74 v=108
24300 On ch=4 n=71 v=87
24361 On ch=4 n=74 v=0
24361 On ch=4 n=79 v=0
24366 On ch=4 n=71 v=0
24478 On ch=4 n=76 v=94
24480 On ch=4 n=73 v=77
24483 On ch=4 n=81 v=83
24498 On ch=4 n=73 v=0
24503 On ch=4 n=76 v=0
24510 On ch=4 n=81 v=0
25734 On ch=4 n=83 v=112
25770 On ch=4 n=83 v=0
25795 On ch=4 n=78 v=110
25824 On ch=4 n=78 v=0
25853 On ch=4 n=74 v=110
25906 On ch=4 n=74 v=0
27656 On ch=4 n=83 v=108
27690 On ch=4 n=83 v=0
27715 On ch=4 n=78 v=101
27751 On ch=4 n=78 v=0
27772 On ch=4 n=74 v=104
27822 On ch=4 n=74 v=0
30720 On ch=4 n=67 v=86
30720 On ch=4 n=62 v=84
30722 On ch=4 n=59 v=85
31554 On ch=4 n=67 v=0
31636 On ch=4 n=62 v=0
31649 On ch=4 n=59 v=0
31682 On ch=4 n=71 v=98
31684 On ch=4 n=67 v=102
31684 On ch=4 n=62 v=90
32087 On ch=4 n=67 v=0
32090 On ch=4 n=71 v=0
32124 On ch=4 n=62 v=0
32147 On ch=4 n=73 v=101
32148 On ch=4 n=76 v=100
32152 On ch=4 n=69 v=100
32153 On ch=4 n=64 v=106
33102 On ch=4 n=64 v=0
33102 On ch=4 n=69 v=0
33108 On ch=4 n=76 v=0
33108 On ch=4 n=73 v=0
33246 On ch=4 n=78 v=97
33248 On ch=4 n=74 v=95
33248 On ch=4 n=81 v=102
33250 On ch=4 n=86 v=94
33297 On ch=4 n=86 v=0
33308 On ch=4 n=81 v=0
33308 On ch=4 n=74 v=0
33313 On ch=4 n=78 v=0
33483 On ch=4 n=78 v=119
33484 On ch=4 n=81 v=106
33486 On ch=4 n=74 v=100
33488 On ch=4 n=86 v=90
33517 On ch=4 n=78 v=0
33518 On ch=4 n=81 v=0
33522 On ch=4 n=74 v=0
33525 On ch=4 n=86 v=0
33540 On ch=4 n=78 v=99
33542 On ch=4 n=81 v=98
33542 On ch=4 n=86 v=76
33544 On ch=4 n=74 v=91
33640 On ch=4 n=86 v=0
33643 On ch=4 n=78 v=0
33643 On ch=4 n=81 v=0
33648 On ch=4 n=74 v=0
33955 On ch=4 n=74 v=73
33957 On ch=4 n=78 v=61
33959 On ch=4 n=81 v=77
33960 On ch=4 n=86 v=66
34030 On ch=4 n=86 v=0
34037 On ch=4 n=81 v=0
34041 On ch=4 n=74 v=0
34043 On ch=4 n=78 v=0
34073 On ch=4 n=73 v=101
34073 On ch=4 n=78 v=71
34077 On ch=4 n=81 v=81
34084 On ch=4 n=85 v=56
34092 On ch=4 n=85 v=0
34101 On ch=4 n=81 v=0
34103 On ch=4 n=78 v=0
34125 On ch=4 n=73 v=0
34200 On ch=4 n=73 v=113
34202 On ch=4 n=78 v=116
34202 On ch=4 n=85 v=87
34203 On ch=4 n=81 v=110
34266 On ch=4 n=85 v=0
34271 On ch=4 n=81 v=0
34275 On ch=4 n=78 v=0
34275 On ch=4 n=73 v=0
34443 On ch=4 n=78 v=123
34445 On ch=4 n=73 v=110
34445 On ch=4 n=81 v=108
34447 On ch=4 n=85 v=87
34472 On ch=4 n=78 v=0
34474 On ch=4 n=81 v=0
34477 On ch=4 n=73 v=0
34484 On ch=4 n=85 v=0
34495 On ch=4 n=85 v=61
34496 On ch=4 n=78 v=101
34497 On ch=4 n=81 v=104
34498 On ch=4 n=73 v=101
34595 On ch=4 n=81 v=0
34595 On ch=4 n=85 v=0
34599 On ch=4 n=78 v=0
34604 On ch=4 n=73 v=0
34913 On ch=4 n=78 v=39
34914 On ch=4 n=85 v=56
34920 On ch=4 n=73 v=67
34925 On ch=4 n=81 v=64
34995 On ch=4 n=81 v=0
34995 On ch=4 n=78 v=0
34997 On ch=4 n=73 v=0
34997 On ch=4 n=85 v=0
35825 On ch=4 n=81 v=110
35858 On ch=4 n=81 v=0
35859 Pb ch=4 v=7957
35864 Pb ch=4 v=7255
35868 Pb ch=4 v=6787
35878 Pb ch=4 v=7489
35882 Pb ch=4 v=8192
35884 On ch=4 n=93 v=122
35941 On ch=4 n=93 v=0
35947 On ch=4 n=81 v=120
36002 On ch=4 n=81 v=0
36781 On ch=4 n=81 v=117
36816 On ch=4 n=81 v=0
36839 On ch=4 n=93 v=125
36891 On ch=4 n=93 v=0
36896 On ch=4 n=81 v=106
36958 On ch=4 n=81 v=0
37077 On ch=4 n=78 v=95
37077 On ch=4 n=74 v=91
37078 On ch=4 n=81 v=104
37082 On ch=4 n=86 v=90
37135 On ch=4 n=86 v=0
37145 On ch=4 n=74 v=0
37147 On ch=4 n=81 v=0
37156 On ch=4 n=78 v=0
37319 On ch=4 n=78 v=107
37322 On ch=4 n=81 v=102
37322 On ch=4 n=74 v=97
37325 On ch=4 n=86 v=88
37353 On ch=4 n=78 v=0
37357 On ch=4 n=81 v=0
37358 On ch=4 n=74 v=0
37359 On ch=4 n=86 v=0
37377 On ch=4 n=78 v=99
37378 On ch=4 n=86 v=73
37379 On ch=4 n=81 v=117
37380 On ch=4 n=74 v=97
37464 On ch=4 n=86 v=0
37466 On ch=4 n=81 v=0
37470 On ch=4 n=78 v=0
37475 On ch=4 n=74 v=0
37794 On ch=4 n=78 v=67
37796 On ch=4 n=74 v=86
37796 On ch=4 n=81 v=80
37805 On ch=4 n=86 v=61
37819 On ch=4 n=86 v=0
37826 On ch=4 n=81 v=0
37829 On ch=4 n=78 v=0
37855 On ch=4 n=74 v=0
38039 On ch=4 n=73 v=89
38041 On ch=4 n=78 v=95
38043 On ch=4 n=85 v=81
38043 On ch=4 n=81 v=104
38094 On ch=4 n=81 v=0
38095 On ch=4 n=85 v=0
38099 On ch=4 n=73 v=0
38104 On ch=4 n=78 v=0
38282 On ch=4 n=73 v=101
38284 On ch=4 n=78 v=116
38286 On ch=4 n=81 v=110
38287 On ch=4 n=85 v=87
38314 On ch=4 n=78 v=0
38316 On ch=4 n=81 v=0
38317 On ch=4 n=73 v=0
38320 On ch=4 n=85 v=0
38335 On ch=4 n=78 v=93
38336 On ch=4 n=85 v=73
38337 On ch=4 n=81 v=104
38339 On ch=4 n=73 v=93
38444 On ch=4 n=85 v=0
38446 On ch=4 n=81 v=0
38449 On ch=4 n=78 v=0
38450 On ch=4 n=73 v=0
38756 On ch=4 n=78 v=66
38757 On ch=4 n=85 v=62
38758 On ch=4 n=73 v=78
38761 On ch=4 n=81 v=83
38796 On ch=4 n=81 v=0
38796 On ch=4 n=85 v=0
38798 On ch=4 n=78 v=0
38807 On ch=4 n=73 v=0
39658 On ch=4 n=81 v=100
39697 On ch=4 n=81 v=0
39705 Pb ch=4 v=7372
39709 Pb ch=4 v=6436
39714 Pb ch=4 v=6085
39719 On ch=4 n=93 v=120
39729 Pb ch=4 v=6787
39734 Pb ch=4 v=8074
39739 Pb ch=4 v=8192
39773 On ch=4 n=93 v=0
39779 On ch=4 n=81 v=102
39840 On ch=4 n=81 v=0
40614 On ch=4 n=81 v=108
40653 On ch=4 n=81 v=0
40665 Pb ch=4 v=6319
40670 Pb ch=4 v=4915
40675 Pb ch=4 v=4096
40679 On ch=4 n=93 v=117
40684 Pb ch=4 v=4330
40689 Pb ch=4 v=5032
40694 Pb ch=4 v=6202
40699 Pb ch=4 v=7723
40704 Pb ch=4 v=8192
40735 On ch=4 n=81 v=92
40737 On ch=4 n=93 v=0
40798 On ch=4 n=81 v=0
41761 On ch=4 n=83 v=94
41762 On ch=4 n=80 v=123
41762 On ch=4 n=76 v=97
41820 On ch=4 n=80 v=0
41821 On ch=4 n=76 v=0
41825 On ch=4 n=83 v=0
41882 On ch=4 n=80 v=119
41883 On ch=4 n=76 v=98
41883 On ch=4 n=83 v=102
41910 On ch=4 n=76 v=0
41912 On ch=4 n=80 v=0
41918 On ch=4 n=83 v=0
41940 On ch=4 n=76 v=84
41941 On ch=4 n=83 v=91
41942 On ch=4 n=80 v=99
41964 On ch=4 n=76 v=0
41967 On ch=4 n=80 v=0
41970 On ch=4 n=83 v=0
41997 On ch=4 n=83 v=98
41997 On ch=4 n=80 v=116
41997 On ch=4 n=76 v=100
42021 On ch=4 n=76 v=0
42023 On ch=4 n=80 v=0
42030 On ch=4 n=83 v=0
42054 On ch=4 n=83 v=94
42056 On ch=4 n=80 v=116
42056 On ch=4 n=76 v=104
42110 On ch=4 n=80 v=0
42112 On ch=4 n=76 v=0
42114 On ch=4 n=83 v=0
42715 On ch=4 n=81 v=95
42717 On ch=4 n=76 v=117
42717 On ch=4 n=73 v=95
42780 On ch=4 n=81 v=0
42782 On ch=4 n=73 v=0
42784 On ch=4 n=76 v=0
42840 On ch=4 n=76 v=117
42842 On ch=4 n=81 v=102
42844 On ch=4 n=73 v=81
42868 On ch=4 n=73 v=0
42870 On ch=4 n=76 v=0
42872 On ch=4 n=81 v=0
42901 On ch=4 n=76 v=106
42901 On ch=4 n=73 v=90
42901 On ch=4 n=81 v=90
42929 On ch=4 n=73 v=0
42932 On ch=4 n=76 v=0
42933 On ch=4 n=81 v=0
42958 On ch=4 n=73 v=104
42959 On ch=4 n=81 v=100
42960 On ch=4 n=76 v=117
42984 On ch=4 n=73 v=0
42989 On ch=4 n=76 v=0
42990 On ch=4 n=81 v=0
43017 On ch=4 n=81 v=120
43017 On ch=4 n=76 v=127
43018 On ch=4 n=73 v=114
43069 On ch=4 n=73 v=0
43069 On ch=4 n=76 v=0
43072 On ch=4 n=81 v=0
43677 On ch=4 n=80 v=116
43678 On ch=4 n=83 v=106
43680 On ch=4 n=76 v=100
43744 On ch=4 n=76 v=0
43744 On ch=4 n=80 v=0
43747 On ch=4 n=83 v=0
43800 On ch=4 n=80 v=123
43800 On ch=4 n=83 v=110
43800 On ch=4 n=76 v=106
43825 On ch=4 n=76 v=0
43826 On ch=4 n=80 v=0
43834 On ch=4 n=83 v=0
43859 On ch=4 n=83 v=98
43860 On ch=4 n=76 v=98
43860 On ch=4 n=80 v=123
43883 On ch=4 n=76 v=0
43886 On ch=4 n=80 v=0
43890 On ch=4 n=83 v=0
43918 On ch=4 n=83 v=91
43921 On ch=4 n=76 v=95
43921 On ch=4 n=80 v=116
43946 On ch=4 n=76 v=0
43950 On ch=4 n=80 v=0
43954 On ch=4 n=83 v=0
43978 On ch=4 n=83 v=94
43979 On ch=4 n=80 v=116
43979 On ch=4 n=76 v=100
44025 On ch=4 n=76 v=0
44027 On ch=4 n=80 v=0
44032 On ch=4 n=83 v=0
44642 On ch=4 n=81 v=97
44644 On ch=4 n=76 v=112
44644 On ch=4 n=73 v=100
44704 On ch=4 n=81 v=0
44705 On ch=4 n=73 v=0
44708 On ch=4 n=76 v=0
44759 On ch=4 n=76 v=110
44761 On ch=4 n=73 v=90
44761 On ch=4 n=81 v=90
44789 On ch=4 n=73 v=0
44792 On ch=4 n=81 v=0
44792 On ch=4 n=76 v=0
44822 On ch=4 n=76 v=112
44823 On ch=4 n=73 v=97
44823 On ch=4 n=81 v=102
44866 On ch=4 n=76 v=0
44869 On ch=4 n=73 v=0
44874 On ch=4 n=81 v=0
44937 On ch=4 n=81 v=91
44940 On ch=4 n=76 v=108
44940 On ch=4 n=73 v=87
45001 On ch=4 n=76 v=0
45001 On ch=4 n=81 v=0
45006 On ch=4 n=73 v=0
45118 On ch=4 n=78 v=94
45120 On ch=4 n=75 v=77
45123 On ch=4 n=83 v=83
45138 On ch=4 n=75 v=0
45143 On ch=4 n=78 v=0
45150 On ch=4 n=83 v=0
45726 On ch=4 n=80 v=97
45728 On ch=4 n=76 v=95
45728 On ch=4 n=83 v=102
45730 On ch=4 n=88 v=94
45777 On ch=4 n=88 v=0
45788 On ch=4 n=83 v=0
45788 On ch=4 n=76 v=0
45793 On ch=4 n=80 v=0
45963 On ch=4 n=80 v=119
45964 On ch=4 n=83 v=106
45966 On ch=4 n=76 v=100
45968 On ch=4 n=88 v=90
45997 On ch=4 n=80 v=0
45998 On ch=4 n=83 v=0
46002 On ch=4 n=76 v=0
46005 On ch=4 n=88 v=0
46020 On ch=4 n=80 v=99
46022 On ch=4 n=83 v=98
46022 On ch=4 n=88 v=76
46024 On ch=4 n=76 v=91
46120 On ch=4 n=88 v=0
46123 On ch=4 n=80 v=0
46123 On ch=4 n=83 v=0
46128 On ch=4 n=76 v=0
46435 On ch=4 n=76 v=73
46437 On ch=4 n=80 v=61
46439 On ch=4 n=83 v=77
46440 On ch=4 n=88 v=66
46510 On ch=4 n=88 v=0
46517 On ch=4 n=83 v=0
46521 On ch=4 n=76 v=0
46523 On ch=4 n=80 v=0
46553 On ch=4 n=75 v=101
46553 On ch=4 n=80 v=71
46557 On ch=4 n=83 v=81
46564 On ch=4 n=87 v=56
46572 On ch=4 n=87 v=0
46581 On ch=4 n=83 v=0
46583 On ch=4 n=80 v=0
46605 On ch=4 n=75 v=0
46680 On ch=4 n=75 v=113
46682 On ch=4 n=80 v=116
46682 On ch=4 n=87 v=87
46683 On ch=4 n=83 v=110
46746 On ch=4 n=87 v=0
46751 On ch=4 n=83 v=0
46755 On ch=4 n=80 v=0
46755 On ch=4 n=75 v=0
46923 On ch=4 n=80 v=123
46925 On ch=4 n=75 v=110
46925 On ch=4 n=83 v=108
46927 On ch=4 n=87 v=87
46952 On ch=4 n=80 v=0
46954 On ch=4 n=83 v=0
46957 On ch=4 n=75 v=0
46964 On ch=4 n=87 v=0
46975 On ch=4 n=87 v=61
46976 On ch=4 n=80 v=101
46977 On ch=4 n=83 v=104
46978 On ch=4 n=75 v=101
47075 On ch=4 n=83 v=0
47075 On ch=4 n=87 v=0
47079 On ch=4 n=80 v=0
47084 On ch=4 n=75 v=0
47393 On ch=4 n=80 v=39
47394 On ch=4 n=87 v=56
47400 On ch=4 n=75 v=67
47405 On ch=4 n=83 v=64
47475 On ch=4 n=83 v=0
47475 On ch=4 n=80 v=0
47477 On ch=4 n=75 v=0
47477 On ch=4 n=87 v=0
48305 On ch=4 n=83 v=110
48338 On ch=4 n=83 v=0
48339 Pb ch=4 v=7957
48344 Pb ch=4 v=7255
48348 Pb ch=4 v=6787
48358 Pb ch=4 v=7489
48362 Pb ch=4 v=8192
48364 On ch=4 n=95 v=122
48421 On ch=4 n=95 v=0
48427 On ch=4 n=83 v=120
48482 On ch=4 n=83 v=0
49261 On ch=4 n=83 v=117
49296 On ch=4 n=83 v=0
49319 On ch=4 n=95 v=125
49371 On ch=4 n=95 v=0
49376 On ch=4 n=83 v=106
49438 On ch=4 n=83 v=0
49557 On ch=4 n=80 v=95
49557 On ch=4 n=76 v=91
49558 On ch=4 n=83 v=104
49562 On ch=4 n=88 v=90
49615 On ch=4 n=88 v=0
49625 On ch=4 n=76 v=0
49627 On ch=4 n=83 v=0
49636 On ch=4 n=80 v=0
49799 On ch=4 n=80 v=107
49802 On ch=4 n=83 v=102
49802 On ch=4 n=76 v=97
49805 On ch=4 n=88 v=88
49833 On ch=4 n=80 v=0
49837 On ch=4 n=83 v=0
49838 On ch=4 n=76 v=0
49839 On ch=4 n=88 v=0
49857 On ch=4 n=80 v=99
49858 On ch=4 n=88 v=73
49859 On ch=4 n=83 v=117
49860 On ch=4 n=76 v=97
49944 On ch=4 n=88 v=0
49946 On ch=4 n=83 v=0
49950 On ch=4 n=80 v=0
49955 On ch=4 n=76 v=0
50274 On ch=4 n=80 v=67
50276 On ch=4 n=76 v=86
50276 On ch=4 n=83 v=80
50285 On ch=4 n=88 v=61
50299 On ch=4 n=88 v=0
50306 On ch=4 n=83 v=0
50309 On ch=4 n=80 v=0
50335 On ch=4 n=76 v=0
50519 On ch=4 n=75 v=89
50521 On ch=4 n=80 v=95
50523 On ch=4 n=87 v=81
50523 On ch=4 n=83 v=104
50574 On ch=4 n=83 v=0
50575 On ch=4 n=87 v=0
50579 On ch=4 n=75 v=0
50584 On ch=4 n=80 v=0
50762 On ch=4 n=75 v=101
50764 On ch=4 n=80 v=116
50766 On ch=4 n=83 v=110
50767 On ch=4 n=87 v=87
50794 On ch=4 n=80 v=0
50796 On ch=4 n=83 v=0
50797 On ch=4 n=75 v=0
50800 On ch=4 n=87 v=0
50815 On ch=4 n=80 v=93
50816 On ch=4 n=87 v=73
50817 On ch=4 n=83 v=104
50819 On ch=4 n=75 v=93
50924 On ch=4 n=87 v=0
50926 On ch=4 n=83 v=0
50929 On ch=4 n=80 v=0
50930 On ch=4 n=75 v=0
51236 On ch=4 n=80 v=66
51237 On ch=4 n=87 v=62
51238 On ch=4 n=75 v=78
51241 On ch=4 n=83 v=83
51276 On ch=4 n=83 v=0
51276 On ch=4 n=87 v=0
51278 On ch=4 n=80 v=0
51287 On ch=4 n=75 v=0
52138 On ch=4 n=83 v=100
52177 On ch=4 n=83 v=0
52185 Pb ch=4 v=7372
52189 Pb ch=4 v=6436
52194 Pb ch=4 v=6085
52199 On ch=4 n=95 v=120
52209 Pb ch=4 v=6787
52214 Pb ch=4 v=8074
52219 Pb ch=4 v=8192
52253 On ch=4 n=95 v=0
52259 On ch=4 n=83 v=102
52320 On ch=4 n=83 v=0
53094 On ch=4 n=83 v=108
53133 On ch=4 n=83 v=0
53145 Pb ch=4 v=6319
53150 Pb ch=4 v=4915
53155 Pb ch=4 v=4096
53159 On ch=4 n=95 v=117
53164 Pb ch=4 v=4330
53169 Pb ch=4 v=5032
53174 Pb ch=4 v=6202
53179 Pb ch=4 v=7723
53184 Pb ch=4 v=8192
53215 On ch=4 n=83 v=92
53217 On ch=4 n=95 v=0
53278 On ch=4 n=83 v=0
53406 On ch=4 n=80 v=97
53408 On ch=4 n=76 v=95
53408 On ch=4 n=83 v=102
53410 On ch=4 n=88 v=94
53457 On ch=4 n=88 v=0
53468 On ch=4 n=83 v=0
53468 On ch=4 n=76 v=0
53473 On ch=4 n=80 v=0
53643 On ch=4 n=80 v=119
53644 On ch=4 n=83 v=106
53646 On ch=4 n=76 v=100
53648 On ch=4 n=88 v=90
53677 On ch=4 n=80 v=0
53678 On ch=4 n=83 v=0
53682 On ch=4 n=76 v=0
53685 On ch=4 n=88 v=0
53700 On ch=4 n=80 v=99
53702 On ch=4 n=83 v=98
53702 On ch=4 n=88 v=76
53704 On ch=4 n=76 v=91
53800 On ch=4 n=88 v=0
53803 On ch=4 n=80 v=0
53803 On ch=4 n=83 v=0
53808 On ch=4 n=76 v=0
54115 On ch=4 n=76 v=73
54117 On ch=4 n=80 v=61
54119 On ch=4 n=83 v=77
54120 On ch=4 n=88 v=66
54190 On ch=4 n=88 v=0
54197 On ch=4 n=83 v=0
54201 On ch=4 n=76 v=0
54203 On ch=4 n=80 v=0
54233 On ch=4 n=75 v=101
54233 On ch=4 n=80 v=71
54237 On ch=4 n=83 v=81
54244 On ch=4 n=87 v=56
54252 On ch=4 n=87 v=0
54261 On ch=4 n=83 v=0
54263 On ch=4 n=80 v=0
54285 On ch=4 n=75 v=0
54360 On ch=4 n=75 v=113
54362 On ch=4 n=80 v=116
54362 On ch=4 n=87 v=87
54363 On ch=4 n=83 v=110
54426 On ch=4 n=87 v=0
54431 On ch=4 n=83 v=0
54435 On ch=4 n=80 v=0
54435 On ch=4 n=75 v=0
54603 On ch=4 n=80 v=123
54605 On ch=4 n=75 v=110
54605 On ch=4 n=83 v=108
54607 On ch=4 n=87 v=87
54632 On ch=4 n=80 v=0
54634 On ch=4 n=83 v=0
54637 On ch=4 n=75 v=0
54644 On ch=4 n=87 v=0
54655 On ch=4 n=87 v=61
54656 On ch=4 n=80 v=101
54657 On ch=4 n=83 v=104
54658 On ch=4 n=75 v=101
54755 On ch=4 n=83 v=0
54755 On ch=4 n=87 v=0
54759 On ch=4 n=80 v=0
54764 On ch=4 n=75 v=0
55073 On ch=4 n=80 v=39
55074 On ch=4 n=87 v=56
55080 On ch=4 n=75 v=67
55085 On ch=4 n=83 v=64
55155 On ch=4 n=83 v=0
55155 On ch=4 n=80 v=0
55157 On ch=4 n=75 v=0
55157 On ch=4 n=87 v=0
55985 On ch=4 n=83 v=110
56018 On ch=4 n=83 v=0
56019 Pb ch=4 v=7957
56024 Pb ch=4 v=7255
56028 Pb ch=4 v=6787
56038 Pb ch=4 v=7489
56042 Pb ch=4 v=8192
56044 On ch=4 n=95 v=122
56101 On ch=4 n=95 v=0
56107 On ch=4 n=83 v=120
56162 On ch=4 n=83 v=0
56941 On ch=4 n=83 v=117
56976 On ch=4 n=83 v=0
56999 On ch=4 n=95 v=125
57051 On ch=4 n=95 v=0
57056 On ch=4 n=83 v=106
57118 On ch=4 n=83 v=0
57237 On ch=4 n=80 v=95
57237 On ch=4 n=76 v=91
57238 On ch=4 n=83 v=104
57242 On ch=4 n=88 v=90
57295 On ch=4 n=88 v=0
57305 On ch=4 n=76 v=0
57307 On ch=4 n=83 v=0
57316 On ch=4 n=80 v=0
57479 On ch=4 n=80 v=107
57482 On ch=4 n=83 v=102
57482 On ch=4 n=76 v=97
57485 On ch=4 n=88 v=88
57513 On ch=4 n=80 v=0
57517 On ch=4 n=83 v=0
57518 On ch=4 n=76 v=0
57519 On ch=4 n=88 v=0
57537 On ch=4 n=80 v=99
57538 On ch=4 n=88 v=73
57539 On ch=4 n=83 v=117
57540 On ch=4 n=76 v=97
57624 On ch=4 n=88 v=0
57626 On ch=4 n=83 v=0
57630 On ch=4 n=80 v=0
57635 On ch=4 n=76 v=0
57954 On ch=4 n=80 v=67
57956 On ch=4 n=76 v=86
57956 On ch=4 n=83 v=80
57965 On ch=4 n=88 v=61
57979 On ch=4 n=88 v=0
57986 On ch=4 n=83 v=0
57989 On ch=4 n=80 v=0
58015 On ch=4 n=76 v=0
58199 On ch=4 n=75 v=89
58201 On ch=4 n=80 v=95
58203 On ch=4 n=87 v=81
58203 On ch=4 n=83 v=104
58254 On ch=4 n=83 v=0
58255 On ch=4 n=87 v=0
58259 On ch=4 n=75 v=0
58264 On ch=4 n=80 v=0
58442 On ch=4 n=75 v=101
58444 On ch=4 n=80 v=116
58446 On ch=4 n=83 v=110
58447 On ch=4 n=87 v=87
58474 On ch=4 n=80 v=0
58476 On ch=4 n=83 v=0
58477 On ch=4 n=75 v=0
58480 On ch=4 n=87 v=0
58495 On ch=4 n=80 v=93
58496 On ch=4 n=87 v=73
58497 On ch=4 n=83 v=104
58499 On ch=4 n=75 v=93
58604 On ch=4 n=87 v=0
58606 On ch=4 n=83 v=0
58609 On ch=4 n=80 v=0
58610 On ch=4 n=75 v=0
58916 On ch=4 n=80 v=66
58917 On ch=4 n=87 v=62
58918 On ch=4 n=75 v=78
58921 On ch=4 n=83 v=83
58956 On ch=4 n=83 v=0
58956 On ch=4 n=87 v=0
58958 On ch=4 n=80 v=0
58967 On ch=4 n=75 v=0
59818 On ch=4 n=83 v=100
59857 On ch=4 n=83 v=0
59865 Pb ch=4 v=7372
59869 Pb ch=4 v=6436
59874 Pb ch=4 v=6085
59879 On ch=4 n=95 v=120
59889 Pb ch=4 v=6787
59894 Pb ch=4 v=8074
59899 Pb ch=4 v=8192
59933 On ch=4 n=95 v=0
59939 On ch=4 n=83 v=102
60000 On ch=4 n=83 v=0
60774 On ch=4 n=83 v=108
60813 On ch=4 n=83 v=0
60825 Pb ch=4 v=6319
60830 Pb ch=4 v=4915
60835 Pb ch=4 v=4096
60839 On ch=4 n=95 v=117
60844 Pb ch=4 v=4330
60849 Pb ch=4 v=5032
60854 Pb ch=4 v=6202
60859 Pb ch=4 v=7723
60864 Pb ch=4 v=8192
60895 On ch=4 n=83 v=92
60897 On ch=4 n=95 v=0
60958 On ch=4 n=83 v=0
61086 On ch=4 n=80 v=97
61088 On ch=4 n=76 v=95
61088 On ch=4 n=83 v=102
61090 On ch=4 n=88 v=94
61137 On ch=4 n=88 v=0
61148 On ch=4 n=83 v=0
61148 On ch=4 n=76 v=0
61153 On ch=4 n=80 v=0
61323 On ch=4 n=80 v=119
61324 On ch=4 n=83 v=106
61326 On ch=4 n=76 v=100
61328 On ch=4 n=88 v=90
61357 On ch=4 n=80 v=0
61358 On ch=4 n=83 v=0
61362 On ch=4 n=76 v=0
61365 On ch=4 n=88 v=0
61380 On ch=4 n=80 v=99
61382 On ch=4 n=83 v=98
61382 On ch=4 n=88 v=76
61384 On ch=4 n=76 v=91
61480 On ch=4 n=88 v=0
61483 On ch=4 n=80 v=0
61483 On ch=4 n=83 v=0
61488 On ch=4 n=76 v=0
61795 On ch=4 n=76 v=73
61797 On ch=4 n=80 v=61
61799 On ch=4 n=83 v=77
61800 On ch=4 n=88 v=66
61870 On ch=4 n=88 v=0
61877 On ch=4 n=83 v=0
61881 On ch=4 n=76 v=0
61883 On ch=4 n=80 v=0
61913 On ch=4 n=75 v=101
61913 On ch=4 n=80 v=71
61917 On ch=4 n=83 v=81
61924 On ch=4 n=87 v=56
61932 On ch=4 n=87 v=0
61941 On ch=4 n=83 v=0
61943 On ch=4 n=80 v=0
61965 On ch=4 n=75 v=0
62040 On ch=4 n=75 v=113
62042 On ch=4 n=80 v=116
62042 On ch=4 n=87 v=87
62043 On ch=4 n=83 v=110
62106 On ch=4 n=87 v=0
62111 On ch=4 n=83 v=0
62115 On ch=4 n=80 v=0
62115 On ch=4 n=75 v=0
62283 On ch=4 n=80 v=123
62285 On ch=4 n=75 v=110
62285 On ch=4 n=83 v=108
62287 On ch=4 n=87 v=87
62312 On ch=4 n=80 v=0
62314 On ch=4 n=83 v=0
62317 On ch=4 n=75 v=0
62324 On ch=4 n=87 v=0
62335 On ch=4 n=87 v=61
62336 On ch=4 n=80 v=101
62337 On ch=4 n=83 v=104
62338 On ch=4 n=75 v=101
62435 On ch=4 n=83 v=0
62435 On ch=4 n=87 v=0
62439 On ch=4 n=80 v=0
62444 On ch=4 n=75 v=0
62753 On ch=4 n=80 v=39
62754 On ch=4 n=87 v=56
62760 On ch=4 n=75 v=67
62765 On ch=4 n=83 v=64
62835 On ch=4 n=83 v=0
62835 On ch=4 n=80 v=0
62837 On ch=4 n=75 v=0
62837 On ch=4 n=87 v=0
63665 On ch=4 n=83 v=110
63698 On ch=4 n=83 v=0
63699 Pb ch=4 v=7957
63704 Pb ch=4 v=7255
63708 Pb ch=4 v=6787
63718 Pb ch=4 v=7489
63722 Pb ch=4 v=8192
63724 On ch=4 n=95 v=122
63781 On ch=4 n=95 v=0
63787 On ch=4 n=83 v=120
63842 On ch=4 n=83 v=0
64621 On ch=4 n=83 v=117
64656 On ch=4 n=83 v=0
64679 On ch=4 n=95 v=125
64731 On ch=4 n=95 v=0
64736 On ch=4 n=83 v=106
64798 On ch=4 n=83 v=0
64798 Meta TrkEnd
TrkEnd
MTrk
0 Meta 0x21 00
0 PrCh ch=5 p=13
0 Par ch=5 c=7 v=127
0 Par ch=5 c=10 v=70
0 Par ch=5 c=91 v=86
0 Par ch=5 c=93 v=72
1922 On ch=5 n=93 v=127
1951 On ch=5 n=93 v=0
2104 On ch=5 n=93 v=127
2135 On ch=5 n=93 v=0
22562 On ch=5 n=93 v=127
22591 On ch=5 n=93 v=0
22744 On ch=5 n=93 v=127
22775 On ch=5 n=93 v=0
43202 On ch=5 n=95 v=127
43231 On ch=5 n=95 v=0
43384 On ch=5 n=95 v=127
43415 On ch=5 n=95 v=0
43415 Meta TrkEnd
TrkEnd
MTrk
0 Meta 0x21 00
0 PrCh ch=6 p=96
0 Par ch=6 c=7 v=100
0 Par ch=6 c=10 v=65
0 Par ch=6 c=91 v=86
0 Par ch=6 c=93 v=72
8163 On ch=6 n=83 v=106
8201 On ch=6 n=83 v=0
8219 On ch=6 n=79 v=84
8248 On ch=6 n=79 v=0
8284 On ch=6 n=74 v=92
8311 On ch=6 n=74 v=0
8340 On ch=6 n=83 v=106
8376 On ch=6 n=83 v=0
8402 On ch=6 n=79 v=84
8432 On ch=6 n=79 v=0
8460 On ch=6 n=74 v=97
8490 On ch=6 n=74 v=0
8520 On ch=6 n=83 v=100
8557 On ch=6 n=83 v=0
8584 On ch=6 n=79 v=90
8601 On ch=6 n=79 v=0
8650 On ch=6 n=81 v=117
8686 On ch=6 n=81 v=0
8707 On ch=6 n=78 v=101
8736 On ch=6 n=78 v=0
8767 On ch=6 n=74 v=88
8795 On ch=6 n=74 v=0
8828 On ch=6 n=81 v=104
8860 On ch=6 n=81 v=0
8888 On ch=6 n=78 v=116
8918 On ch=6 n=78 v=0
8947 On ch=6 n=74 v=98
8974 On ch=6 n=74 v=0
9006 On ch=6 n=81 v=112
9037 On ch=6 n=81 v=0
9068 On ch=6 n=74 v=97
9096 On ch=6 n=74 v=0
9125 On ch=6 n=83 v=120
9160 On ch=6 n=83 v=0
9184 On ch=6 n=79 v=94
9211 On ch=6 n=79 v=0
9244 On ch=6 n=74 v=91
9270 On ch=6 n=74 v=0
9304 On ch=6 n=83 v=114
9334 On ch=6 n=83 v=0
9367 On ch=6 n=79 v=86
9391 On ch=6 n=79 v=0
9423 On ch=6 n=74 v=92
9451 On ch=6 n=74 v=0
9483 On ch=6 n=83 v=108
9517 On ch=6 n=83 v=0
9540 On ch=6 n=79 v=97
9561 On ch=6 n=79 v=0
9604 On ch=6 n=81 v=114
9641 On ch=6 n=81 v=0
9657 On ch=6 n=78 v=99
9687 On ch=6 n=78 v=0
9714 On ch=6 n=74 v=102
9744 On ch=6 n=74 v=0
9774 On ch=6 n=81 v=110
9805 On ch=6 n=81 v=0
9835 On ch=6 n=78 v=119
9862 On ch=6 n=78 v=0
9897 On ch=6 n=74 v=108
9926 On ch=6 n=74 v=0
9960 On ch=6 n=81 v=114
9990 On ch=6 n=81 v=0
10019 On ch=6 n=78 v=123
10045 On ch=6 n=78 v=0
28803 On ch=6 n=83 v=106
28841 On ch=6 n=83 v=0
28859 On ch=6 n=79 v=84
28888 On ch=6 n=79 v=0
28924 On ch=6 n=74 v=92
28951 On ch=6 n=74 v=0
28980 On ch=6 n=83 v=106
29016 On ch=6 n=83 v=0
29042 On ch=6 n=79 v=84
29072 On ch=6 n=79 v=0
29100 On ch=6 n=74 v=97
29130 On ch=6 n=74 v=0
29160 On ch=6 n=83 v=100
29197 On ch=6 n=83 v=0
29224 On ch=6 n=79 v=90
29241 On ch=6 n=79 v=0
29290 On ch=6 n=81 v=117
29326 On ch=6 n=81 v=0
29347 On ch=6 n=78 v=101
29376 On ch=6 n=78 v=0
29407 On ch=6 n=74 v=88
29435 On ch=6 n=74 v=0
29468 On ch=6 n=81 v=104
29500 On ch=6 n=81 v=0
29528 On ch=6 n=78 v=116
29558 On ch=6 n=78 v=0
29587 On ch=6 n=74 v=98
29614 On ch=6 n=74 v=0
29646 On ch=6 n=81 v=112
29677 On ch=6 n=81 v=0
29708 On ch=6 n=74 v=97
29736 On ch=6 n=74 v=0
29765 On ch=6 n=83 v=120
29800 On ch=6 n=83 v=0
29824 On ch=6 n=79 v=94
29851 On ch=6 n=79 v=0
29884 On ch=6 n=74 v=91
29910 On ch=6 n=74 v=0
29944 On ch=6 n=83 v=114
29974 On ch=6 n=83 v=0
30007 On ch=6 n=79 v=86
30031 On ch=6 n=79 v=0
30063 On ch=6 n=74 v=92
30091 On ch=6 n=74 v=0
30123 On ch=6 n=83 v=108
30157 On ch=6 n=83 v=0
30180 On ch=6 n=79 v=97
30201 On ch=6 n=79 v=0
30244 On ch=6 n=81 v=114
30281 On ch=6 n=81 v=0
30297 On ch=6 n=78 v=99
30327 On ch=6 n=78 v=0
30354 On ch=6 n=74 v=102
30384 On ch=6 n=74 v=0
30414 On ch=6 n=81 v=110
30445 On ch=6 n=81 v=0
30475 On ch=6 n=78 v=119
30502 On ch=6 n=78 v=0
30537 On ch=6 n=74 v=108
30566 On ch=6 n=74 v=0
30600 On ch=6 n=81 v=114
30630 On ch=6 n=81 v=0
30659 On ch=6 n=78 v=123
30685 On ch=6 n=78 v=0
30685 Meta TrkEnd
TrkEnd
MTrk
0 Meta 0x21 00
0 Meta TrkName "By"
0 PrCh ch=7 p=0
0 Par ch=7 c=7 v=120
0 Par ch=7 c=10 v=65
0 Par ch=7 c=91 v=86
0 Par ch=7 c=93 v=72
10080 On ch=7 n=55 v=86
10080 On ch=7 n=59 v=83
10900 On ch=7 n=59 v=0
10914 On ch=7 n=55 v=0
11037 On ch=7 n=59 v=100
11039 On ch=7 n=55 v=106
11410 On ch=7 n=55 v=0
11410 On ch=7 n=59 v=0
11509 On ch=7 n=61 v=123
12065 On ch=7 n=61 v=0
30720 On ch=7 n=55 v=86
30720 On ch=7 n=59 v=83
31540 On ch=7 n=59 v=0
31554 On ch=7 n=55 v=0
31677 On ch=7 n=59 v=100
31679 On ch=7 n=55 v=106
32050 On ch=7 n=55 v=0
32050 On ch=7 n=59 v=0
32149 On ch=7 n=61 v=123
32705 On ch=7 n=61 v=0
32705 Meta TrkEnd
TrkEnd
MTrk
0 Meta 0x21 00
0 PrCh ch=8 p=50
0 Par ch=8 c=7 v=100
0 Par ch=8 c=10 v=80
0 Par ch=8 c=91 v=86
0 Par ch=8 c=93 v=72
480 On ch=8 n=66 v=56
480 On ch=8 n=62 v=79
480 On ch=8 n=57 v=73
921 On ch=8 n=57 v=0
926 On ch=8 n=62 v=0
928 On ch=8 n=66 v=0
953 On ch=8 n=66 v=82
954 On ch=8 n=62 v=85
956 On ch=8 n=59 v=80
1392 On ch=8 n=66 v=0
1396 On ch=8 n=59 v=0
1400 On ch=8 n=62 v=0
1430 On ch=8 n=62 v=66
1433 On ch=8 n=59 v=62
1435 On ch=8 n=67 v=73
1869 On ch=8 n=62 v=0
1873 On ch=8 n=59 v=0
1875 On ch=8 n=67 v=0
1910 On ch=8 n=64 v=70
1915 On ch=8 n=61 v=78
1918 On ch=8 n=57 v=70
2356 On ch=8 n=64 v=0
2361 On ch=8 n=61 v=0
2367 On ch=8 n=57 v=0
2387 On ch=8 n=66 v=57
2397 On ch=8 n=62 v=71
2401 On ch=8 n=57 v=66
2835 On ch=8 n=66 v=0
2843 On ch=8 n=62 v=0
2855 On ch=8 n=57 v=0
2872 On ch=8 n=66 v=79
2877 On ch=8 n=62 v=70
2878 On ch=8 n=59 v=70
3309 On ch=8 n=66 v=0
3315 On ch=8 n=62 v=0
3318 On ch=8 n=59 v=0
3350 On ch=8 n=67 v=67
3351 On ch=8 n=62 v=68
3354 On ch=8 n=59 v=64
3772 On ch=8 n=67 v=0
3792 On ch=8 n=62 v=0
3800 On ch=8 n=59 v=0
3831 On ch=8 n=61 v=58
3838 On ch=8 n=57 v=54
4021 On ch=8 n=61 v=0
4028 On ch=8 n=57 v=0
5104 On ch=8 n=83 v=98
5155 On ch=8 n=78 v=113
5166 On ch=8 n=83 v=0
5202 On ch=8 n=78 v=0
5209 On ch=8 n=74 v=114
5314 On ch=8 n=74 v=0
7015 On ch=8 n=83 v=114
7069 On ch=8 n=78 v=116
7073 On ch=8 n=83 v=0
7119 On ch=8 n=78 v=0
7125 On ch=8 n=74 v=110
7243 On ch=8 n=74 v=0
8146 On ch=8 n=71 v=62
8146 On ch=8 n=62 v=53
8148 On ch=8 n=67 v=66
8557 On ch=8 n=67 v=0
8575 On ch=8 n=71 v=0
8578 On ch=8 n=62 v=0
8635 On ch=8 n=66 v=54
8636 On ch=8 n=69 v=62
8637 On ch=8 n=62 v=56
9054 On ch=8 n=69 v=0
9056 On ch=8 n=66 v=0
9057 On ch=8 n=62 v=0
9115 On ch=8 n=71 v=66
9115 On ch=8 n=62 v=70
9118 On ch=8 n=67 v=51
9518 On ch=8 n=71 v=0
9549 On ch=8 n=67 v=0
9550 On ch=8 n=62 v=0
9593 On ch=8 n=62 v=68
9594 On ch=8 n=66 v=68
9597 On ch=8 n=69 v=70
10041 On ch=8 n=69 v=0
10041 On ch=8 n=66 v=0
10045 On ch=8 n=62 v=0
12480 On ch=8 n=81 v=72
12480 On ch=8 n=78 v=77
12480 On ch=8 n=86 v=76
13410 On ch=8 n=81 v=0
13415 On ch=8 n=78 v=0
13434 On ch=8 n=86 v=0
13438 On ch=8 n=81 v=69
13438 On ch=8 n=85 v=66
13442 On ch=8 n=78 v=60
14357 On ch=8 n=81 v=0
14394 On ch=8 n=78 v=0
14396 On ch=8 n=83 v=79
14397 On ch=8 n=74 v=74
14400 On ch=8 n=79 v=70
14405 On ch=8 n=85 v=0
14849 On ch=8 n=74 v=0
14850 On ch=8 n=79 v=0
14886 On ch=8 n=73 v=74
14887 On ch=8 n=81 v=91
14890 On ch=8 n=76 v=73
14897 On ch=8 n=83 v=0
15338 On ch=8 n=81 v=0
15346 On ch=8 n=73 v=0
15348 On ch=8 n=76 v=0
15362 On ch=8 n=83 v=67
15364 On ch=8 n=79 v=64
15364 On ch=8 n=74 v=74
15815 On ch=8 n=79 v=0
15817 On ch=8 n=74 v=0
15826 On ch=8 n=83 v=0
15838 On ch=8 n=73 v=67
15840 On ch=8 n=81 v=83
15841 On ch=8 n=76 v=73
16292 On ch=8 n=81 v=0
16298 On ch=8 n=76 v=0
16306 On ch=8 n=73 v=0
16318 On ch=8 n=81 v=73
16319 On ch=8 n=86 v=76
16321 On ch=8 n=78 v=82
17248 On ch=8 n=81 v=0
17252 On ch=8 n=78 v=0
17256 On ch=8 n=86 v=0
17267 On ch=8 n=81 v=87
17268 On ch=8 n=85 v=75
17275 On ch=8 n=78 v=78
18218 On ch=8 n=81 v=0
18223 On ch=8 n=78 v=0
18229 On ch=8 n=83 v=76
18229 On ch=8 n=79 v=70
18230 On ch=8 n=85 v=0
18231 On ch=8 n=74 v=56
18686 On ch=8 n=74 v=0
18697 On ch=8 n=79 v=0
18713 On ch=8 n=81 v=90
18714 On ch=8 n=83 v=0
18714 On ch=8 n=73 v=70
18715 On ch=8 n=76 v=88
19177 On ch=8 n=81 v=0
19179 On ch=8 n=73 v=0
19183 On ch=8 n=76 v=0
19191 On ch=8 n=79 v=74
19195 On ch=8 n=83 v=66
19195 On ch=8 n=74 v=80
19659 On ch=8 n=79 v=0
19662 On ch=8 n=74 v=0
19669 On ch=8 n=83 v=0
19673 On ch=8 n=76 v=68
19673 On ch=8 n=73 v=68
19674 On ch=8 n=81 v=80
20122 On ch=8 n=81 v=0
20141 On ch=8 n=73 v=0
20145 On ch=8 n=76 v=0
20152 On ch=8 n=78 v=65
20155 On ch=8 n=83 v=76
20158 On ch=8 n=74 v=70
20613 On ch=8 n=78 v=0
20615 On ch=8 n=83 v=0
20616 On ch=8 n=74 v=0
20637 On ch=8 n=83 v=49
20641 On ch=8 n=79 v=73
20645 On ch=8 n=74 v=74
20870 On ch=8 n=74 v=0
20870 On ch=8 n=79 v=0
20880 On ch=8 n=81 v=74
20882 On ch=8 n=83 v=0
20883 On ch=8 n=76 v=80
20884 On ch=8 n=73 v=85
21025 On ch=8 n=76 v=0
21025 On ch=8 n=81 v=0
21026 On ch=8 n=73 v=0
21120 On ch=8 n=66 v=56
21120 On ch=8 n=62 v=79
21120 On ch=8 n=57 v=73
21561 On ch=8 n=57 v=0
21566 On ch=8 n=62 v=0
21568 On ch=8 n=66 v=0
21593 On ch=8 n=66 v=82
21594 On ch=8 n=62 v=85
21596 On ch=8 n=59 v=80
22032 On ch=8 n=66 v=0
22036 On ch=8 n=59 v=0
22040 On ch=8 n=62 v=0
22070 On ch=8 n=62 v=66
22073 On ch=8 n=59 v=62
22075 On ch=8 n=67 v=73
22509 On ch=8 n=62 v=0
22513 On ch=8 n=59 v=0
22515 On ch=8 n=67 v=0
22550 On ch=8 n=64 v=70
22555 On ch=8 n=61 v=78
22558 On ch=8 n=57 v=70
22996 On ch=8 n=64 v=0
23001 On ch=8 n=61 v=0
23007 On ch=8 n=57 v=0
23027 On ch=8 n=66 v=57
23037 On ch=8 n=62 v=71
23041 On ch=8 n=57 v=66
23475 On ch=8 n=66 v=0
23483 On ch=8 n=62 v=0
23495 On ch=8 n=57 v=0
23512 On ch=8 n=66 v=79
23517 On ch=8 n=62 v=70
23518 On ch=8 n=59 v=70
23949 On ch=8 n=66 v=0
23955 On ch=8 n=62 v=0
23958 On ch=8 n=59 v=0
23990 On ch=8 n=67 v=67
23991 On ch=8 n=62 v=68
23994 On ch=8 n=59 v=64
24412 On ch=8 n=67 v=0
24432 On ch=8 n=62 v=0
24440 On ch=8 n=59 v=0
24471 On ch=8 n=61 v=58
24478 On ch=8 n=57 v=54
24661 On ch=8 n=61 v=0
24668 On ch=8 n=57 v=0
25744 On ch=8 n=83 v=98
25795 On ch=8 n=78 v=113
25806 On ch=8 n=83 v=0
25842 On ch=8 n=78 v=0
25849 On ch=8 n=74 v=114
25954 On ch=8 n=74 v=0
27655 On ch=8 n=83 v=114
27709 On ch=8 n=78 v=116
27713 On ch=8 n=83 v=0
27759 On ch=8 n=78 v=0
27765 On ch=8 n=74 v=110
27883 On ch=8 n=74 v=0
28786 On ch=8 n=71 v=62
28786 On ch=8 n=62 v=53
28788 On ch=8 n=67 v=66
29197 On ch=8 n=67 v=0
29215 On ch=8 n=71 v=0
29218 On ch=8 n=62 v=0
29275 On ch=8 n=66 v=54
29276 On ch=8 n=69 v=62
29277 On ch=8 n=62 v=56
29694 On ch=8 n=69 v=0
29696 On ch=8 n=66 v=0
29697 On ch=8 n=62 v=0
29755 On ch=8 n=71 v=66
29755 On ch=8 n=62 v=70
29758 On ch=8 n=67 v=51
30158 On ch=8 n=71 v=0
30189 On ch=8 n=67 v=0
30190 On ch=8 n=62 v=0
30233 On ch=8 n=62 v=68
30234 On ch=8 n=66 v=68
30237 On ch=8 n=69 v=70
30681 On ch=8 n=69 v=0
30681 On ch=8 n=66 v=0
30685 On ch=8 n=62 v=0
33120 On ch=8 n=81 v=72
33120 On ch=8 n=78 v=77
33120 On ch=8 n=86 v=76
34050 On ch=8 n=81 v=0
34055 On ch=8 n=78 v=0
34074 On ch=8 n=86 v=0
34078 On ch=8 n=81 v=69
34078 On ch=8 n=85 v=66
34082 On ch=8 n=78 v=60
34997 On ch=8 n=81 v=0
35034 On ch=8 n=78 v=0
35036 On ch=8 n=83 v=79
35037 On ch=8 n=74 v=74
35040 On ch=8 n=79 v=70
35045 On ch=8 n=85 v=0
35489 On ch=8 n=74 v=0
35490 On ch=8 n=79 v=0
35526 On ch=8 n=73 v=74
35527 On ch=8 n=81 v=91
35530 On ch=8 n=76 v=73
35537 On ch=8 n=83 v=0
35978 On ch=8 n=81 v=0
35986 On ch=8 n=73 v=0
35988 On ch=8 n=76 v=0
36002 On ch=8 n=83 v=67
36004 On ch=8 n=79 v=64
36004 On ch=8 n=74 v=74
36455 On ch=8 n=79 v=0
36457 On ch=8 n=74 v=0
36466 On ch=8 n=83 v=0
36478 On ch=8 n=73 v=67
36480 On ch=8 n=81 v=83
36481 On ch=8 n=76 v=73
36932 On ch=8 n=81 v=0
36938 On ch=8 n=76 v=0
36946 On ch=8 n=73 v=0
36958 On ch=8 n=81 v=73
36959 On ch=8 n=86 v=76
36961 On ch=8 n=78 v=82
37888 On ch=8 n=81 v=0
37892 On ch=8 n=78 v=0
37896 On ch=8 n=86 v=0
37907 On ch=8 n=81 v=87
37908 On ch=8 n=85 v=75
37915 On ch=8 n=78 v=78
38858 On ch=8 n=81 v=0
38863 On ch=8 n=78 v=0
38869 On ch=8 n=83 v=76
38869 On ch=8 n=79 v=70
38870 On ch=8 n=85 v=0
38871 On ch=8 n=74 v=56
39326 On ch=8 n=74 v=0
39337 On ch=8 n=79 v=0
39353 On ch=8 n=81 v=90
39354 On ch=8 n=83 v=0
39354 On ch=8 n=73 v=70
39355 On ch=8 n=76 v=88
39817 On ch=8 n=81 v=0
39819 On ch=8 n=73 v=0
39823 On ch=8 n=76 v=0
39831 On ch=8 n=79 v=74
39835 On ch=8 n=83 v=66
39835 On ch=8 n=74 v=80
40299 On ch=8 n=79 v=0
40302 On ch=8 n=74 v=0
40309 On ch=8 n=83 v=0
40313 On ch=8 n=76 v=68
40313 On ch=8 n=73 v=68
40314 On ch=8 n=81 v=80
40762 On ch=8 n=81 v=0
40781 On ch=8 n=73 v=0
40785 On ch=8 n=76 v=0
40792 On ch=8 n=78 v=65
40795 On ch=8 n=83 v=76
40798 On ch=8 n=74 v=70
41253 On ch=8 n=78 v=0
41255 On ch=8 n=83 v=0
41256 On ch=8 n=74 v=0
41277 On ch=8 n=83 v=49
41281 On ch=8 n=79 v=73
41285 On ch=8 n=74 v=74
41510 On ch=8 n=74 v=0
41510 On ch=8 n=79 v=0
41520 On ch=8 n=81 v=74
41522 On ch=8 n=83 v=0
41523 On ch=8 n=76 v=80
41524 On ch=8 n=73 v=85
41665 On ch=8 n=76 v=0
41665 On ch=8 n=81 v=0
41666 On ch=8 n=73 v=0
41760 On ch=8 n=68 v=56
41760 On ch=8 n=64 v=79
41760 On ch=8 n=59 v=73
42201 On ch=8 n=59 v=0
42206 On ch=8 n=64 v=0
42208 On ch=8 n=68 v=0
42233 On ch=8 n=68 v=82
42234 On ch=8 n=64 v=85
42236 On ch=8 n=61 v=80
42672 On ch=8 n=68 v=0
42676 On ch=8 n=61 v=0
42680 On ch=8 n=64 v=0
42710 On ch=8 n=64 v=66
42713 On ch=8 n=61 v=62
42715 On ch=8 n=69 v=73
43149 On ch=8 n=64 v=0
43153 On ch=8 n=61 v=0
43155 On ch=8 n=69 v=0
43190 On ch=8 n=66 v=70
43195 On ch=8 n=63 v=78
43198 On ch=8 n=59 v=70
43636 On ch=8 n=66 v=0
43641 On ch=8 n=63 v=0
43647 On ch=8 n=59 v=0
43667 On ch=8 n=68 v=57
43677 On ch=8 n=64 v=71
43681 On ch=8 n=59 v=66
44115 On ch=8 n=68 v=0
44123 On ch=8 n=64 v=0
44135 On ch=8 n=59 v=0
44152 On ch=8 n=68 v=79
44157 On ch=8 n=64 v=70
44158 On ch=8 n=61 v=70
44589 On ch=8 n=68 v=0
44595 On ch=8 n=64 v=0
44598 On ch=8 n=61 v=0
44630 On ch=8 n=69 v=67
44631 On ch=8 n=64 v=68
44634 On ch=8 n=61 v=64
45052 On ch=8 n=69 v=0
45072 On ch=8 n=64 v=0
45080 On ch=8 n=61 v=0
45111 On ch=8 n=63 v=58
45118 On ch=8 n=59 v=54
45301 On ch=8 n=63 v=0
45308 On ch=8 n=59 v=0
45600 On ch=8 n=83 v=72
45600 On ch=8 n=80 v=77
45600 On ch=8 n=88 v=76
46530 On ch=8 n=83 v=0
46535 On ch=8 n=80 v=0
46554 On ch=8 n=88 v=0
46558 On ch=8 n=83 v=69
46558 On ch=8 n=87 v=66
46562 On ch=8 n=80 v=60
47477 On ch=8 n=83 v=0
47514 On ch=8 n=80 v=0
47516 On ch=8 n=85 v=79
47517 On ch=8 n=76 v=74
47520 On ch=8 n=81 v=70
47525 On ch=8 n=87 v=0
47969 On ch=8 n=76 v=0
47970 On ch=8 n=81 v=0
48006 On ch=8 n=75 v=74
48007 On ch=8 n=83 v=91
48010 On ch=8 n=78 v=73
48017 On ch=8 n=85 v=0
48458 On ch=8 n=83 v=0
48466 On ch=8 n=75 v=0
48468 On ch=8 n=78 v=0
48482 On ch=8 n=85 v=67
48484 On ch=8 n=81 v=64
48484 On ch=8 n=76 v=74
48935 On ch=8 n=81 v=0
48937 On ch=8 n=76 v=0
48946 On ch=8 n=85 v=0
48958 On ch=8 n=75 v=67
48960 On ch=8 n=83 v=83
48961 On ch=8 n=78 v=73
49412 On ch=8 n=83 v=0
49418 On ch=8 n=78 v=0
49426 On ch=8 n=75 v=0
49438 On ch=8 n=83 v=73
49439 On ch=8 n=88 v=76
49441 On ch=8 n=80 v=82
50368 On ch=8 n=83 v=0
50372 On ch=8 n=80 v=0
50376 On ch=8 n=88 v=0
50387 On ch=8 n=83 v=87
50388 On ch=8 n=87 v=75
50395 On ch=8 n=80 v=78
51338 On ch=8 n=83 v=0
51343 On ch=8 n=80 v=0
51349 On ch=8 n=85 v=76
51349 On ch=8 n=81 v=70
51350 On ch=8 n=87 v=0
51351 On ch=8 n=76 v=56
51806 On ch=8 n=76 v=0
51817 On ch=8 n=81 v=0
51833 On ch=8 n=83 v=90
51834 On ch=8 n=85 v=0
51834 On ch=8 n=75 v=70
51835 On ch=8 n=78 v=88
52297 On ch=8 n=83 v=0
52299 On ch=8 n=75 v=0
52303 On ch=8 n=78 v=0
52311 On ch=8 n=81 v=74
52315 On ch=8 n=85 v=66
52315 On ch=8 n=76 v=80
52779 On ch=8 n=81 v=0
52782 On ch=8 n=76 v=0
52789 On ch=8 n=85 v=0
52793 On ch=8 n=78 v=68
52793 On ch=8 n=75 v=68
52794 On ch=8 n=83 v=80
53242 On ch=8 n=83 v=0
53261 On ch=8 n=75 v=0
53265 On ch=8 n=78 v=0
53272 On ch=8 n=80 v=65
53280 On ch=8 n=83 v=72
53280 On ch=8 n=88 v=76
53733 On ch=8 n=80 v=0
54210 On ch=8 n=83 v=0
54234 On ch=8 n=88 v=0
54238 On ch=8 n=83 v=69
54238 On ch=8 n=87 v=66
54242 On ch=8 n=80 v=60
55157 On ch=8 n=83 v=0
55194 On ch=8 n=80 v=0
55196 On ch=8 n=85 v=79
55197 On ch=8 n=76 v=74
55200 On ch=8 n=81 v=70
55205 On ch=8 n=87 v=0
55649 On ch=8 n=76 v=0
55650 On ch=8 n=81 v=0
55686 On ch=8 n=75 v=74
55687 On ch=8 n=83 v=91
55690 On ch=8 n=78 v=73
55697 On ch=8 n=85 v=0
56138 On ch=8 n=83 v=0
56146 On ch=8 n=75 v=0
56148 On ch=8 n=78 v=0
56162 On ch=8 n=85 v=67
56164 On ch=8 n=81 v=64
56164 On ch=8 n=76 v=74
56615 On ch=8 n=81 v=0
56617 On ch=8 n=76 v=0
56626 On ch=8 n=85 v=0
56638 On ch=8 n=75 v=67
56640 On ch=8 n=83 v=83
56641 On ch=8 n=78 v=73
57092 On ch=8 n=83 v=0
57098 On ch=8 n=78 v=0
57106 On ch=8 n=75 v=0
57118 On ch=8 n=83 v=73
57119 On ch=8 n=88 v=76
57121 On ch=8 n=80 v=82
58048 On ch=8 n=83 v=0
58052 On ch=8 n=80 v=0
58056 On ch=8 n=88 v=0
58067 On ch=8 n=83 v=87
58068 On ch=8 n=87 v=75
58075 On ch=8 n=80 v=78
59018 On ch=8 n=83 v=0
59023 On ch=8 n=80 v=0
59029 On ch=8 n=85 v=76
59029 On ch=8 n=81 v=70
59030 On ch=8 n=87 v=0
59031 On ch=8 n=76 v=56
59486 On ch=8 n=76 v=0
59497 On ch=8 n=81 v=0
59513 On ch=8 n=83 v=90
59514 On ch=8 n=85 v=0
59514 On ch=8 n=75 v=70
59515 On ch=8 n=78 v=88
59977 On ch=8 n=83 v=0
59979 On ch=8 n=75 v=0
59983 On ch=8 n=78 v=0
59991 On ch=8 n=81 v=74
59995 On ch=8 n=85 v=66
59995 On ch=8 n=76 v=80
60459 On ch=8 n=81 v=0
60462 On ch=8 n=76 v=0
60469 On ch=8 n=85 v=0
60473 On ch=8 n=78 v=68
60473 On ch=8 n=75 v=68
60474 On ch=8 n=83 v=80
60922 On ch=8 n=83 v=0
60941 On ch=8 n=75 v=0
60945 On ch=8 n=78 v=0
60960 On ch=8 n=83 v=72
60960 On ch=8 n=80 v=77
60960 On ch=8 n=88 v=76
61890 On ch=8 n=83 v=0
61895 On ch=8 n=80 v=0
61914 On ch=8 n=88 v=0
61918 On ch=8 n=83 v=69
61918 On ch=8 n=87 v=66
61922 On ch=8 n=80 v=60
62837 On ch=8 n=83 v=0
62874 On ch=8 n=80 v=0
62876 On ch=8 n=85 v=79
62877 On ch=8 n=76 v=74
62880 On ch=8 n=81 v=70
62885 On ch=8 n=87 v=0
63329 On ch=8 n=76 v=0
63330 On ch=8 n=81 v=0
63366 On ch=8 n=75 v=74
63367 On ch=8 n=83 v=91
63370 On ch=8 n=78 v=73
63377 On ch=8 n=85 v=0
63818 On ch=8 n=83 v=0
63826 On ch=8 n=75 v=0
63828 On ch=8 n=78 v=0
63842 On ch=8 n=85 v=67
63844 On ch=8 n=81 v=64
63844 On ch=8 n=76 v=74
64295 On ch=8 n=81 v=0
64297 On ch=8 n=76 v=0
64306 On ch=8 n=85 v=0
64318 On ch=8 n=75 v=67
64320 On ch=8 n=83 v=83
64321 On ch=8 n=78 v=73
64772 On ch=8 n=83 v=0
64778 On ch=8 n=78 v=0
64786 On ch=8 n=75 v=0
64798 On ch=8 n=83 v=73
64799 On ch=8 n=88 v=76
65728 On ch=8 n=83 v=0
65736 On ch=8 n=88 v=0
65736 Meta TrkEnd
TrkEnd
MTrk
0 Meta 0x21 00
0 PrCh ch=10 p=0
0 Par ch=10 c=7 v=120
0 Par ch=10 c=10 v=65
0 Par ch=10 c=91 v=86
0 Par ch=10 c=93 v=72
480 On ch=10 n=42 v=84
481 On ch=10 n=36 v=112
498 On ch=10 n=42 v=0
514 On ch=10 n=36 v=0
601 On ch=10 n=42 v=84
602 On ch=10 n=40 v=117
618 On ch=10 n=42 v=0
627 On ch=10 n=40 v=0
721 On ch=10 n=36 v=98
721 On ch=10 n=42 v=75
737 On ch=10 n=42 v=0
753 On ch=10 n=36 v=0
840 On ch=10 n=40 v=112
842 On ch=10 n=42 v=77
860 On ch=10 n=42 v=0
866 On ch=10 n=40 v=0
960 On ch=10 n=42 v=84
961 On ch=10 n=36 v=112
978 On ch=10 n=42 v=0
994 On ch=10 n=36 v=0
1081 On ch=10 n=42 v=84
1082 On ch=10 n=40 v=117
1098 On ch=10 n=42 v=0
1107 On ch=10 n=40 v=0
1201 On ch=10 n=36 v=98
1201 On ch=10 n=42 v=75
1217 On ch=10 n=42 v=0
1233 On ch=10 n=36 v=0
1320 On ch=10 n=40 v=112
1322 On ch=10 n=42 v=77
1340 On ch=10 n=42 v=0
1346 On ch=10 n=40 v=0
1440 On ch=10 n=42 v=84
1441 On ch=10 n=36 v=112
1458 On ch=10 n=42 v=0
1474 On ch=10 n=36 v=0
1561 On ch=10 n=42 v=84
1562 On ch=10 n=40 v=117
1578 On ch=10 n=42 v=0
1587 On ch=10 n=40 v=0
1681 On ch=10 n=36 v=98
1681 On ch=10 n=42 v=75
1697 On ch=10 n=42 v=0
1713 On ch=10 n=36 v=0
1800 On ch=10 n=40 v=112
1802 On ch=10 n=42 v=77
1820 On ch=10 n=42 v=0
1826 On ch=10 n=40 v=0
1920 On ch=10 n=42 v=84
1921 On ch=10 n=36 v=112
1938 On ch=10 n=42 v=0
1954 On ch=10 n=36 v=0
2041 On ch=10 n=42 v=84
2042 On ch=10 n=40 v=117
2058 On ch=10 n=42 v=0
2067 On ch=10 n=40 v=0
2161 On ch=10 n=36 v=98
2161 On ch=10 n=42 v=75
2177 On ch=10 n=42 v=0
2193 On ch=10 n=36 v=0
2225 On ch=10 n=46 v=68
2278 On ch=10 n=46 v=0
2280 On ch=10 n=40 v=112
2282 On ch=10 n=42 v=77
2300 On ch=10 n=42 v=0
2306 On ch=10 n=40 v=0
2347 On ch=10 n=46 v=82
2397 On ch=10 n=46 v=0
2400 On ch=10 n=42 v=84
2401 On ch=10 n=36 v=112
2418 On ch=10 n=42 v=0
2434 On ch=10 n=36 v=0
2521 On ch=10 n=42 v=84
2522 On ch=10 n=40 v=117
2538 On ch=10 n=42 v=0
2547 On ch=10 n=40 v=0
2641 On ch=10 n=36 v=98
2641 On ch=10 n=42 v=75
2657 On ch=10 n=42 v=0
2673 On ch=10 n=36 v=0
2760 On ch=10 n=40 v=112
2762 On ch=10 n=42 v=77
2780 On ch=10 n=42 v=0
2786 On ch=10 n=40 v=0
2880 On ch=10 n=42 v=84
2881 On ch=10 n=36 v=112
2898 On ch=10 n=42 v=0
2914 On ch=10 n=36 v=0
3001 On ch=10 n=42 v=84
3002 On ch=10 n=40 v=117
3018 On ch=10 n=42 v=0
3027 On ch=10 n=40 v=0
3121 On ch=10 n=36 v=98
3121 On ch=10 n=42 v=75
3137 On ch=10 n=42 v=0
3153 On ch=10 n=36 v=0
3240 On ch=10 n=40 v=112
3242 On ch=10 n=42 v=77
3260 On ch=10 n=42 v=0
3266 On ch=10 n=40 v=0
3364 On ch=10 n=36 v=97
3364 On ch=10 n=42 v=97
3389 On ch=10 n=42 v=0
3409 On ch=10 n=36 v=0
3482 On ch=10 n=42 v=110
3483 On ch=10 n=40 v=114
3509 On ch=10 n=42 v=0
3520 On ch=10 n=40 v=0
3604 On ch=10 n=36 v=83
3604 On ch=10 n=42 v=77
3626 On ch=10 n=42 v=0
3636 On ch=10 n=36 v=0
3659 On ch=10 n=40 v=122
3699 On ch=10 n=40 v=0
3778 On ch=10 n=36 v=86
3802 On ch=10 n=36 v=0
3841 On ch=10 n=38 v=108
3842 On ch=10 n=42 v=64
3842 On ch=10 n=40 v=127
3859 On ch=10 n=38 v=0
3862 On ch=10 n=42 v=0
3891 On ch=10 n=40 v=0
4143 On ch=10 n=45 v=78
4164 On ch=10 n=45 v=0
4203 On ch=10 n=45 v=90
4232 On ch=10 n=45 v=0
4268 On ch=10 n=43 v=76
4291 On ch=10 n=43 v=0
4322 On ch=10 n=36 v=114
4325 On ch=10 n=42 v=104
4349 On ch=10 n=42 v=0
4357 On ch=10 n=36 v=0
4437 On ch=10 n=40 v=112
4445 On ch=10 n=42 v=104
4468 On ch=10 n=42 v=0
4474 On ch=10 n=40 v=0
4502 On ch=10 n=36 v=108
4537 On ch=10 n=36 v=0
4560 On ch=10 n=42 v=95
4584 On ch=10 n=42 v=0
4673 On ch=10 n=40 v=114
4679 On ch=10 n=42 v=99
4702 On ch=10 n=42 v=0
4712 On ch=10 n=40 v=0
4802 On ch=10 n=36 v=114
4805 On ch=10 n=42 v=104
4829 On ch=10 n=42 v=0
4837 On ch=10 n=36 v=0
4917 On ch=10 n=40 v=112
4925 On ch=10 n=42 v=104
4948 On ch=10 n=42 v=0
4954 On ch=10 n=40 v=0
4982 On ch=10 n=36 v=108
5017 On ch=10 n=36 v=0
5040 On ch=10 n=42 v=95
5064 On ch=10 n=42 v=0
5153 On ch=10 n=40 v=114
5159 On ch=10 n=42 v=99
5182 On ch=10 n=42 v=0
5192 On ch=10 n=40 v=0
5282 On ch=10 n=36 v=114
5285 On ch=10 n=42 v=104
5309 On ch=10 n=42 v=0
5317 On ch=10 n=36 v=0
5397 On ch=10 n=40 v=112
5405 On ch=10 n=42 v=104
5428 On ch=10 n=42 v=0
5434 On ch=10 n=40 v=0
5462 On ch=10 n=36 v=108
5497 On ch=10 n=36 v=0
5520 On ch=10 n=42 v=95
5544 On ch=10 n=42 v=0
5633 On ch=10 n=40 v=114
5639 On ch=10 n=42 v=99
5662 On ch=10 n=42 v=0
5672 On ch=10 n=40 v=0
5762 On ch=10 n=36 v=114
5765 On ch=10 n=42 v=104
5789 On ch=10 n=42 v=0
5797 On ch=10 n=36 v=0
5877 On ch=10 n=40 v=112
5885 On ch=10 n=42 v=104
5908 On ch=10 n=42 v=0
5914 On ch=10 n=40 v=0
5942 On ch=10 n=36 v=108
5977 On ch=10 n=36 v=0
6000 On ch=10 n=42 v=95
6024 On ch=10 n=42 v=0
6063 On ch=10 n=46 v=68
6113 On ch=10 n=40 v=114
6114 On ch=10 n=46 v=0
6119 On ch=10 n=42 v=99
6142 On ch=10 n=42 v=0
6152 On ch=10 n=40 v=0
6179 On ch=10 n=46 v=62
6222 On ch=10 n=46 v=0
6242 On ch=10 n=36 v=114
6245 On ch=10 n=42 v=104
6269 On ch=10 n=42 v=0
6277 On ch=10 n=36 v=0
6357 On ch=10 n=40 v=112
6365 On ch=10 n=42 v=104
6388 On ch=10 n=42 v=0
6394 On ch=10 n=40 v=0
6422 On ch=10 n=36 v=108
6457 On ch=10 n=36 v=0
6480 On ch=10 n=42 v=95
6504 On ch=10 n=42 v=0
6593 On ch=10 n=40 v=114
6599 On ch=10 n=42 v=99
6622 On ch=10 n=42 v=0
6632 On ch=10 n=40 v=0
6722 On ch=10 n=36 v=114
6725 On ch=10 n=42 v=104
6749 On ch=10 n=42 v=0
6757 On ch=10 n=36 v=0
6837 On ch=10 n=40 v=112
6845 On ch=10 n=42 v=104
6868 On ch=10 n=42 v=0
6874 On ch=10 n=40 v=0
6902 On ch=10 n=36 v=108
6937 On ch=10 n=36 v=0
6960 On ch=10 n=42 v=95
6984 On ch=10 n=42 v=0
7073 On ch=10 n=40 v=114
7079 On ch=10 n=42 v=99
7102 On ch=10 n=42 v=0
7112 On ch=10 n=40 v=0
7202 On ch=10 n=36 v=114
7205 On ch=10 n=42 v=104
7229 On ch=10 n=42 v=0
7237 On ch=10 n=36 v=0
7317 On ch=10 n=40 v=112
7325 On ch=10 n=42 v=104
7348 On ch=10 n=42 v=0
7354 On ch=10 n=40 v=0
7382 On ch=10 n=36 v=108
7417 On ch=10 n=36 v=0
7440 On ch=10 n=42 v=95
7464 On ch=10 n=42 v=0
7553 On ch=10 n=40 v=114
7559 On ch=10 n=42 v=99
7582 On ch=10 n=42 v=0
7592 On ch=10 n=40 v=0
7680 On ch=10 n=47 v=87
7682 On ch=10 n=36 v=114
7685 On ch=10 n=42 v=104
7703 On ch=10 n=47 v=0
7709 On ch=10 n=42 v=0
7717 On ch=10 n=36 v=0
7735 On ch=10 n=47 v=80
7761 On ch=10 n=47 v=0
7797 On ch=10 n=47 v=85
7805 On ch=10 n=42 v=104
7824 On ch=10 n=47 v=0
7828 On ch=10 n=42 v=0
7857 On ch=10 n=45 v=98
7862 On ch=10 n=36 v=108
7882 On ch=10 n=45 v=0
7897 On ch=10 n=36 v=0
7920 On ch=10 n=42 v=95
7920 On ch=10 n=45 v=98
7944 On ch=10 n=42 v=0
7947 On ch=10 n=45 v=0
7978 On ch=10 n=36 v=122
7980 On ch=10 n=43 v=98
8015 On ch=10 n=43 v=0
8031 On ch=10 n=36 v=0
8039 On ch=10 n=42 v=99
8062 On ch=10 n=42 v=0
8160 On ch=10 n=36 v=120
8203 On ch=10 n=36 v=0
8346 On ch=10 n=36 v=102
8373 On ch=10 n=36 v=0
8407 On ch=10 n=36 v=112
8444 On ch=10 n=36 v=0
8525 On ch=10 n=40 v=127
8583 On ch=10 n=40 v=0
8647 On ch=10 n=36 v=108
8706 On ch=10 n=36 v=0
8826 On ch=10 n=36 v=92
8850 On ch=10 n=36 v=0
8890 On ch=10 n=36 v=108
8924 On ch=10 n=36 v=0
8999 On ch=10 n=40 v=127
9058 On ch=10 n=40 v=0
9131 On ch=10 n=36 v=110
9200 On ch=10 n=36 v=0
9304 On ch=10 n=36 v=106
9331 On ch=10 n=36 v=0
9370 On ch=10 n=36 v=108
9407 On ch=10 n=36 v=0
9482 On ch=10 n=40 v=125
9538 On ch=10 n=40 v=0
9600 On ch=10 n=36 v=104
9642 On ch=10 n=36 v=0
9785 On ch=10 n=36 v=90
9811 On ch=10 n=36 v=0
9845 On ch=10 n=36 v=108
9875 On ch=10 n=36 v=0
9905 On ch=10 n=40 v=104
9924 On ch=10 n=40 v=0
9961 On ch=10 n=40 v=125
9987 On ch=10 n=40 v=0
10029 On ch=10 n=46 v=82
10065 On ch=10 n=46 v=0
10080 On ch=10 n=36 v=91
10087 On ch=10 n=42 v=62
10107 On ch=10 n=42 v=0
10124 On ch=10 n=36 v=0
10191 On ch=10 n=40 v=108
10204 On ch=10 n=42 v=66
10222 On ch=10 n=42 v=0
10235 On ch=10 n=40 v=0
10260 On ch=10 n=36 v=104
10310 On ch=10 n=36 v=0
10324 On ch=10 n=42 v=67
10341 On ch=10 n=42 v=0
10373 On ch=10 n=40 v=88
10396 On ch=10 n=40 v=0
10438 On ch=10 n=40 v=117
10445 On ch=10 n=42 v=56
10456 On ch=10 n=42 v=0
10485 On ch=10 n=40 v=0
10559 On ch=10 n=42 v=62
10565 On ch=10 n=36 v=106
10577 On ch=10 n=42 v=0
10606 On ch=10 n=36 v=0
10678 On ch=10 n=40 v=114
10688 On ch=10 n=42 v=45
10701 On ch=10 n=42 v=0
10717 On ch=10 n=40 v=0
10746 On ch=10 n=36 v=98
10789 On ch=10 n=36 v=0
10805 On ch=10 n=42 v=45
10819 On ch=10 n=42 v=0
10857 On ch=10 n=40 v=122
10882 On ch=10 n=40 v=0
10918 On ch=10 n=42 v=61
10922 On ch=10 n=40 v=114
10937 On ch=10 n=42 v=0
10954 On ch=10 n=40 v=0
10975 On ch=10 n=46 v=91
11018 On ch=10 n=46 v=0
11040 On ch=10 n=42 v=64
11043 On ch=10 n=36 v=97
11060 On ch=10 n=42 v=0
11083 On ch=10 n=36 v=0
11153 On ch=10 n=40 v=112
11166 On ch=10 n=42 v=63
11189 On ch=10 n=42 v=0
11196 On ch=10 n=40 v=0
11220 On ch=10 n=36 v=94
11263 On ch=10 n=36 v=0
11276 On ch=10 n=42 v=71
11305 On ch=10 n=42 v=0
11331 On ch=10 n=40 v=88
11356 On ch=10 n=40 v=0
11389 On ch=10 n=42 v=72
11393 On ch=10 n=40 v=114
11413 On ch=10 n=42 v=0
11435 On ch=10 n=40 v=0
11451 On ch=10 n=46 v=85
11505 On ch=10 n=46 v=0
11518 On ch=10 n=36 v=102
11520 On ch=10 n=42 v=68
11541 On ch=10 n=42 v=0
11560 On ch=10 n=36 v=0
11637 On ch=10 n=42 v=71
11640 On ch=10 n=40 v=112
11660 On ch=10 n=42 v=0
11674 On ch=10 n=40 v=0
11759 On ch=10 n=42 v=74
11760 On ch=10 n=36 v=110
11785 On ch=10 n=42 v=0
11798 On ch=10 n=36 v=0
11882 On ch=10 n=40 v=114
11882 On ch=10 n=42 v=71
11908 On ch=10 n=42 v=0
11915 On ch=10 n=40 v=0
12001 On ch=10 n=36 v=102
12003 On ch=10 n=42 v=67
12028 On ch=10 n=42 v=0
12038 On ch=10 n=36 v=0
12120 On ch=10 n=42 v=72
12121 On ch=10 n=40 v=122
12147 On ch=10 n=42 v=0
12152 On ch=10 n=40 v=0
12243 On ch=10 n=42 v=70
12245 On ch=10 n=36 v=110
12267 On ch=10 n=42 v=0
12268 On ch=10 n=36 v=0
12306 On ch=10 n=36 v=114
12335 On ch=10 n=36 v=0
12361 On ch=10 n=42 v=70
12363 On ch=10 n=40 v=127
12383 On ch=10 n=42 v=0
12409 On ch=10 n=40 v=0
12420 On ch=10 n=46 v=93
12475 On ch=10 n=46 v=0
12486 On ch=10 n=42 v=55
12491 On ch=10 n=36 v=110
12508 On ch=10 n=42 v=0
12531 On ch=10 n=36 v=0
12603 On ch=10 n=40 v=114
12603 On ch=10 n=42 v=53
12604 On ch=10 n=55 v=95
12621 On ch=10 n=42 v=0
12641 On ch=10 n=40 v=0
12644 On ch=10 n=55 v=0
12723 On ch=10 n=42 v=56
12724 On ch=10 n=36 v=106
12743 On ch=10 n=42 v=0
12758 On ch=10 n=36 v=0
12841 On ch=10 n=42 v=53
12841 On ch=10 n=36 v=102
12843 On ch=10 n=40 v=112
12861 On ch=10 n=42 v=0
12878 On ch=10 n=40 v=0
12882 On ch=10 n=36 v=0
12913 On ch=10 n=36 v=120
12964 On ch=10 n=42 v=54
12965 On ch=10 n=36 v=0
12983 On ch=10 n=42 v=0
13082 On ch=10 n=42 v=54
13084 On ch=10 n=40 v=112
13098 On ch=10 n=42 v=0
13131 On ch=10 n=40 v=0
13200 On ch=10 n=42 v=60
13205 On ch=10 n=36 v=106
13219 On ch=10 n=42 v=0
13249 On ch=10 n=36 v=0
13319 On ch=10 n=42 v=54
13321 On ch=10 n=40 v=114
13337 On ch=10 n=42 v=0
13359 On ch=10 n=40 v=0
13436 On ch=10 n=42 v=55
13440 On ch=10 n=36 v=114
13453 On ch=10 n=42 v=0
13483 On ch=10 n=36 v=0
13551 On ch=10 n=42 v=53
13561 On ch=10 n=40 v=114
13569 On ch=10 n=42 v=0
13597 On ch=10 n=40 v=0
13675 On ch=10 n=42 v=57
13680 On ch=10 n=36 v=108
13693 On ch=10 n=42 v=0
13717 On ch=10 n=36 v=0
13794 On ch=10 n=42 v=52
13801 On ch=10 n=40 v=117
13803 On ch=10 n=36 v=120
13809 On ch=10 n=42 v=0
13832 On ch=10 n=40 v=0
13845 On ch=10 n=36 v=0
13863 On ch=10 n=36 v=127
13920 On ch=10 n=36 v=0
13920 On ch=10 n=42 v=63
13938 On ch=10 n=42 v=0
14041 On ch=10 n=40 v=122
14042 On ch=10 n=42 v=56
14061 On ch=10 n=42 v=0
14079 On ch=10 n=40 v=0
14161 On ch=10 n=42 v=61
14165 On ch=10 n=36 v=112
14180 On ch=10 n=42 v=0
14208 On ch=10 n=36 v=0
14279 On ch=10 n=42 v=50
14280 On ch=10 n=40 v=122
14292 On ch=10 n=42 v=0
14312 On ch=10 n=40 v=0
14400 On ch=10 n=42 v=74
14409 On ch=10 n=36 v=90
14421 On ch=10 n=42 v=0
14442 On ch=10 n=36 v=0
14521 On ch=10 n=40 v=112
14522 On ch=10 n=42 v=53
14547 On ch=10 n=42 v=0
14553 On ch=10 n=40 v=0
14643 On ch=10 n=42 v=70
14651 On ch=10 n=36 v=86
14670 On ch=10 n=42 v=0
14685 On ch=10 n=36 v=0
14762 On ch=10 n=42 v=65
14769 On ch=10 n=40 v=117
14787 On ch=10 n=42 v=0
14797 On ch=10 n=40 v=0
14889 On ch=10 n=42 v=64
14891 On ch=10 n=36 v=85
14912 On ch=10 n=42 v=0
14922 On ch=10 n=36 v=0
15003 On ch=10 n=42 v=68
15007 On ch=10 n=40 v=114
15028 On ch=10 n=42 v=0
15035 On ch=10 n=40 v=0
15121 On ch=10 n=42 v=65
15131 On ch=10 n=36 v=90
15144 On ch=10 n=42 v=0
15163 On ch=10 n=36 v=0
15240 On ch=10 n=42 v=70
15245 On ch=10 n=40 v=108
15264 On ch=10 n=42 v=0
15274 On ch=10 n=40 v=0
15361 On ch=10 n=42 v=72
15368 On ch=10 n=36 v=100
15386 On ch=10 n=42 v=0
15400 On ch=10 n=36 v=0
15481 On ch=10 n=40 v=112
15487 On ch=10 n=42 v=67
15509 On ch=10 n=42 v=0
15509 On ch=10 n=40 v=0
15596 On ch=10 n=42 v=73
15603 On ch=10 n=36 v=98
15621 On ch=10 n=42 v=0
15635 On ch=10 n=36 v=0
15718 On ch=10 n=42 v=78
15721 On ch=10 n=40 v=114
15743 On ch=10 n=42 v=0
15749 On ch=10 n=40 v=0
15844 On ch=10 n=36 v=98
15845 On ch=10 n=42 v=84
15869 On ch=10 n=42 v=0
15877 On ch=10 n=36 v=0
15963 On ch=10 n=42 v=79
15967 On ch=10 n=40 v=117
15994 On ch=10 n=42 v=0
15995 On ch=10 n=40 v=0
16082 On ch=10 n=46 v=123
16087 On ch=10 n=36 v=97
16113 On ch=10 n=36 v=0
16118 On ch=10 n=46 v=0
16140 On ch=10 n=40 v=92
16159 On ch=10 n=40 v=0
16199 On ch=10 n=40 v=112
16219 On ch=10 n=40 v=0
16260 On ch=10 n=40 v=127
16285 On ch=10 n=40 v=0
16320 On ch=10 n=36 v=90
16320 On ch=10 n=42 v=64
16341 On ch=10 n=42 v=0
16366 On ch=10 n=36 v=0
16433 On ch=10 n=49 v=73
16435 On ch=10 n=42 v=58
16438 On ch=10 n=40 v=117
16459 On ch=10 n=42 v=0
16470 On ch=10 n=40 v=0
16480 On ch=10 n=49 v=0
16559 On ch=10 n=42 v=58
16561 On ch=10 n=36 v=95
16585 On ch=10 n=42 v=0
16592 On ch=10 n=36 v=0
16681 On ch=10 n=42 v=67
16681 On ch=10 n=40 v=114
16704 On ch=10 n=42 v=0
16715 On ch=10 n=40 v=0
16741 On ch=10 n=36 v=104
16741 On ch=10 n=49 v=78
16777 On ch=10 n=49 v=0
16788 On ch=10 n=36 v=0
16803 On ch=10 n=42 v=67
16825 On ch=10 n=42 v=0
16921 On ch=10 n=42 v=61
16922 On ch=10 n=40 v=98
16940 On ch=10 n=42 v=0
16958 On ch=10 n=40 v=0
17043 On ch=10 n=42 v=56
17044 On ch=10 n=36 v=98
17065 On ch=10 n=42 v=0
17086 On ch=10 n=36 v=0
17161 On ch=10 n=40 v=110
17161 On ch=10 n=42 v=58
17184 On ch=10 n=42 v=0
17199 On ch=10 n=40 v=0
17266 On ch=10 n=42 v=61
17282 On ch=10 n=36 v=102
17287 On ch=10 n=42 v=0
17320 On ch=10 n=36 v=0
17393 On ch=10 n=42 v=58
17394 On ch=10 n=49 v=75
17400 On ch=10 n=40 v=112
17417 On ch=10 n=42 v=0
17424 On ch=10 n=49 v=0
17435 On ch=10 n=40 v=0
17525 On ch=10 n=36 v=98
17563 On ch=10 n=36 v=0
17629 On ch=10 n=49 v=67
17636 On ch=10 n=40 v=114
17639 On ch=10 n=42 v=56
17656 On ch=10 n=42 v=0
17661 On ch=10 n=49 v=0
17674 On ch=10 n=40 v=0
17696 On ch=10 n=36 v=112
17749 On ch=10 n=42 v=58
17770 On ch=10 n=42 v=0
17771 On ch=10 n=36 v=0
17870 On ch=10 n=42 v=60
17874 On ch=10 n=40 v=112
17888 On ch=10 n=42 v=0
17910 On ch=10 n=40 v=0
17989 On ch=10 n=42 v=58
17998 On ch=10 n=36 v=98
18008 On ch=10 n=42 v=0
18037 On ch=10 n=36 v=0
18108 On ch=10 n=42 v=56
18115 On ch=10 n=40 v=117
18123 On ch=10 n=42 v=0
18147 On ch=10 n=40 v=0
18240 On ch=10 n=36 v=87
18240 On ch=10 n=42 v=67
18258 On ch=10 n=42 v=0
18278 On ch=10 n=36 v=0
18355 On ch=10 n=40 v=112
18359 On ch=10 n=42 v=67
18378 On ch=10 n=42 v=0
18383 On ch=10 n=40 v=0
18477 On ch=10 n=42 v=64
18480 On ch=10 n=36 v=92
18496 On ch=10 n=42 v=0
18513 On ch=10 n=36 v=0
18599 On ch=10 n=40 v=114
18601 On ch=10 n=42 v=62
18619 On ch=10 n=42 v=0
18630 On ch=10 n=40 v=0
18722 On ch=10 n=42 v=67
18725 On ch=10 n=36 v=92
18739 On ch=10 n=42 v=0
18762 On ch=10 n=36 v=0
18842 On ch=10 n=40 v=120
18843 On ch=10 n=42 v=65
18861 On ch=10 n=42 v=0
18870 On ch=10 n=40 v=0
18963 On ch=10 n=36 v=97
18966 On ch=10 n=42 v=59
18985 On ch=10 n=42 v=0
18995 On ch=10 n=36 v=0
19080 On ch=10 n=42 v=71
19081 On ch=10 n=40 v=114
19101 On ch=10 n=42 v=0
19109 On ch=10 n=40 v=0
19202 On ch=10 n=36 v=95
19203 On ch=10 n=42 v=74
19224 On ch=10 n=42 v=0
19236 On ch=10 n=36 v=0
19318 On ch=10 n=40 v=114
19327 On ch=10 n=42 v=64
19345 On ch=10 n=42 v=0
19347 On ch=10 n=40 v=0
19437 On ch=10 n=42 v=74
19440 On ch=10 n=36 v=100
19458 On ch=10 n=42 v=0
19473 On ch=10 n=36 v=0
19556 On ch=10 n=42 v=75
19557 On ch=10 n=40 v=114
19576 On ch=10 n=42 v=0
19588 On ch=10 n=40 v=0
19680 On ch=10 n=42 v=77
19682 On ch=10 n=36 v=98
19703 On ch=10 n=42 v=0
19715 On ch=10 n=36 v=0
19800 On ch=10 n=40 v=117
19800 On ch=10 n=42 v=77
19822 On ch=10 n=42 v=0
19829 On ch=10 n=40 v=0
19920 On ch=10 n=36 v=104
19920 On ch=10 n=42 v=70
19939 On ch=10 n=42 v=0
19947 On ch=10 n=36 v=0
19976 On ch=10 n=43 v=85
19999 On ch=10 n=43 v=0
20040 On ch=10 n=43 v=85
20065 On ch=10 n=43 v=0
20102 On ch=10 n=43 v=91
20125 On ch=10 n=43 v=0
20160 On ch=10 n=36 v=122
20160 On ch=10 n=49 v=53
20184 On ch=10 n=49 v=0
20207 On ch=10 n=36 v=0
20465 On ch=10 n=36 v=120
20506 On ch=10 n=36 v=0
20584 On ch=10 n=36 v=120
20617 On ch=10 n=36 v=0
20708 On ch=10 n=36 v=122
20740 On ch=10 n=36 v=0
20824 On ch=10 n=36 v=120
20849 On ch=10 n=36 v=0
20890 On ch=10 n=36 v=120
20922 On ch=10 n=36 v=0
21120 On ch=10 n=42 v=84
21121 On ch=10 n=36 v=112
21138 On ch=10 n=42 v=0
21154 On ch=10 n=36 v=0
21241 On ch=10 n=42 v=84
21242 On ch=10 n=40 v=117
21258 On ch=10 n=42 v=0
21267 On ch=10 n=40 v=0
21361 On ch=10 n=36 v=98
21361 On ch=10 n=42 v=75
21377 On ch=10 n=42 v=0
21393 On ch=10 n=36 v=0
21418 On ch=10 n=63 v=97
21431 On ch=10 n=63 v=0
21445 On ch=10 n=63 v=116
21460 On ch=10 n=63 v=0
21474 On ch=10 n=63 v=104
21480 On ch=10 n=40 v=112
21482 On ch=10 n=42 v=77
21487 On ch=10 n=63 v=0
21489 On ch=10 n=63 v=99
21500 On ch=10 n=42 v=0
21506 On ch=10 n=40 v=0
21508 On ch=10 n=63 v=0
21535 On ch=10 n=64 v=114
21556 On ch=10 n=64 v=0
21600 On ch=10 n=42 v=84
21601 On ch=10 n=36 v=112
21618 On ch=10 n=42 v=0
21634 On ch=10 n=36 v=0
21721 On ch=10 n=42 v=84
21722 On ch=10 n=40 v=117
21738 On ch=10 n=42 v=0
21747 On ch=10 n=40 v=0
21841 On ch=10 n=36 v=98
21841 On ch=10 n=42 v=75
21857 On ch=10 n=42 v=0
21873 On ch=10 n=36 v=0
21960 On ch=10 n=40 v=112
21962 On ch=10 n=42 v=77
21980 On ch=10 n=42 v=0
21986 On ch=10 n=40 v=0
22080 On ch=10 n=42 v=84
22081 On ch=10 n=36 v=112
22098 On ch=10 n=42 v=0
22114 On ch=10 n=36 v=0
22201 On ch=10 n=42 v=84
22202 On ch=10 n=40 v=117
22218 On ch=10 n=42 v=0
22227 On ch=10 n=40 v=0
22321 On ch=10 n=36 v=98
22321 On ch=10 n=42 v=75
22337 On ch=10 n=42 v=0
22353 On ch=10 n=36 v=0
22378 On ch=10 n=63 v=75
22399 On ch=10 n=63 v=0
22440 On ch=10 n=40 v=112
22442 On ch=10 n=42 v=77
22460 On ch=10 n=42 v=0
22466 On ch=10 n=40 v=0
22494 On ch=10 n=64 v=81
22517 On ch=10 n=64 v=0
22560 On ch=10 n=42 v=84
22561 On ch=10 n=36 v=112
22578 On ch=10 n=42 v=0
22594 On ch=10 n=36 v=0
22681 On ch=10 n=42 v=84
22682 On ch=10 n=40 v=117
22698 On ch=10 n=42 v=0
22707 On ch=10 n=40 v=0
22801 On ch=10 n=36 v=98
22801 On ch=10 n=42 v=75
22817 On ch=10 n=42 v=0
22833 On ch=10 n=36 v=0
22865 On ch=10 n=46 v=68
22918 On ch=10 n=46 v=0
22920 On ch=10 n=40 v=112
22922 On ch=10 n=42 v=77
22940 On ch=10 n=42 v=0
22946 On ch=10 n=40 v=0
22987 On ch=10 n=46 v=82
23037 On ch=10 n=46 v=0
23040 On ch=10 n=42 v=84
23041 On ch=10 n=36 v=112
23058 On ch=10 n=42 v=0
23074 On ch=10 n=36 v=0
23161 On ch=10 n=42 v=84
23162 On ch=10 n=40 v=117
23178 On ch=10 n=42 v=0
23187 On ch=10 n=40 v=0
23281 On ch=10 n=36 v=98
23281 On ch=10 n=42 v=75
23297 On ch=10 n=42 v=0
23313 On ch=10 n=36 v=0
23335 On ch=10 n=64 v=104
23354 On ch=10 n=64 v=0
23371 On ch=10 n=64 v=102
23389 On ch=10 n=64 v=0
23397 On ch=10 n=64 v=100
23400 On ch=10 n=40 v=112
23402 On ch=10 n=42 v=77
23416 On ch=10 n=64 v=0
23420 On ch=10 n=42 v=0
23425 On ch=10 n=64 v=106
23426 On ch=10 n=40 v=0
23447 On ch=10 n=64 v=0
23456 On ch=10 n=64 v=106
23479 On ch=10 n=64 v=0
23520 On ch=10 n=42 v=84
23521 On ch=10 n=36 v=112
23538 On ch=10 n=42 v=0
23554 On ch=10 n=36 v=0
23641 On ch=10 n=42 v=84
23642 On ch=10 n=40 v=117
23658 On ch=10 n=42 v=0
23667 On ch=10 n=40 v=0
23761 On ch=10 n=36 v=98
23761 On ch=10 n=42 v=75
23777 On ch=10 n=42 v=0
23793 On ch=10 n=36 v=0
23880 On ch=10 n=40 v=112
23882 On ch=10 n=42 v=77
23900 On ch=10 n=42 v=0
23906 On ch=10 n=40 v=0
24004 On ch=10 n=36 v=97
24004 On ch=10 n=42 v=97
24029 On ch=10 n=42 v=0
24049 On ch=10 n=36 v=0
24122 On ch=10 n=42 v=110
24123 On ch=10 n=40 v=114
24149 On ch=10 n=42 v=0
24160 On ch=10 n=40 v=0
24244 On ch=10 n=36 v=83
24244 On ch=10 n=42 v=77
24266 On ch=10 n=42 v=0
24276 On ch=10 n=36 v=0
24299 On ch=10 n=40 v=122
24339 On ch=10 n=40 v=0
24418 On ch=10 n=36 v=86
24442 On ch=10 n=36 v=0
24481 On ch=10 n=38 v=108
24482 On ch=10 n=42 v=64
24482 On ch=10 n=40 v=127
24499 On ch=10 n=38 v=0
24502 On ch=10 n=42 v=0
24531 On ch=10 n=40 v=0
24783 On ch=10 n=45 v=78
24804 On ch=10 n=45 v=0
24843 On ch=10 n=45 v=90
24872 On ch=10 n=45 v=0
24908 On ch=10 n=43 v=76
24931 On ch=10 n=43 v=0
24962 On ch=10 n=36 v=114
24965 On ch=10 n=42 v=104
24989 On ch=10 n=42 v=0
24997 On ch=10 n=36 v=0
25077 On ch=10 n=40 v=112
25085 On ch=10 n=42 v=104
25108 On ch=10 n=42 v=0
25114 On ch=10 n=40 v=0
25142 On ch=10 n=36 v=108
25177 On ch=10 n=36 v=0
25200 On ch=10 n=42 v=95
25224 On ch=10 n=42 v=0
25313 On ch=10 n=40 v=114
25319 On ch=10 n=42 v=99
25342 On ch=10 n=42 v=0
25352 On ch=10 n=40 v=0
25442 On ch=10 n=36 v=114
25445 On ch=10 n=42 v=104
25469 On ch=10 n=42 v=0
25477 On ch=10 n=36 v=0
25557 On ch=10 n=40 v=112
25565 On ch=10 n=42 v=104
25588 On ch=10 n=42 v=0
25594 On ch=10 n=40 v=0
25622 On ch=10 n=36 v=108
25657 On ch=10 n=36 v=0
25680 On ch=10 n=42 v=95
25704 On ch=10 n=42 v=0
25793 On ch=10 n=40 v=114
25799 On ch=10 n=42 v=99
25822 On ch=10 n=42 v=0
25832 On ch=10 n=40 v=0
25922 On ch=10 n=36 v=114
25925 On ch=10 n=42 v=104
25949 On ch=10 n=42 v=0
25957 On ch=10 n=36 v=0
26037 On ch=10 n=40 v=112
26045 On ch=10 n=42 v=104
26068 On ch=10 n=42 v=0
26074 On ch=10 n=40 v=0
26102 On ch=10 n=36 v=108
26137 On ch=10 n=36 v=0
26160 On ch=10 n=42 v=95
26184 On ch=10 n=42 v=0
26273 On ch=10 n=40 v=114
26279 On ch=10 n=42 v=99
26302 On ch=10 n=42 v=0
26312 On ch=10 n=40 v=0
26402 On ch=10 n=36 v=114
26405 On ch=10 n=42 v=104
26429 On ch=10 n=42 v=0
26437 On ch=10 n=36 v=0
26517 On ch=10 n=40 v=112
26525 On ch=10 n=42 v=104
26548 On ch=10 n=42 v=0
26554 On ch=10 n=40 v=0
26582 On ch=10 n=36 v=108
26617 On ch=10 n=36 v=0
26640 On ch=10 n=42 v=95
26664 On ch=10 n=42 v=0
26703 On ch=10 n=46 v=68
26753 On ch=10 n=40 v=114
26754 On ch=10 n=46 v=0
26759 On ch=10 n=42 v=99
26782 On ch=10 n=42 v=0
26792 On ch=10 n=40 v=0
26819 On ch=10 n=46 v=62
26862 On ch=10 n=46 v=0
26882 On ch=10 n=36 v=114
26885 On ch=10 n=42 v=104
26909 On ch=10 n=42 v=0
26917 On ch=10 n=36 v=0
26997 On ch=10 n=40 v=112
27005 On ch=10 n=42 v=104
27028 On ch=10 n=42 v=0
27034 On ch=10 n=40 v=0
27062 On ch=10 n=36 v=108
27097 On ch=10 n=36 v=0
27120 On ch=10 n=42 v=95
27144 On ch=10 n=42 v=0
27233 On ch=10 n=40 v=114
27239 On ch=10 n=42 v=99
27262 On ch=10 n=42 v=0
27272 On ch=10 n=40 v=0
27362 On ch=10 n=36 v=114
27365 On ch=10 n=42 v=104
27389 On ch=10 n=42 v=0
27397 On ch=10 n=36 v=0
27477 On ch=10 n=40 v=112
27485 On ch=10 n=42 v=104
27508 On ch=10 n=42 v=0
27514 On ch=10 n=40 v=0
27542 On ch=10 n=36 v=108
27577 On ch=10 n=36 v=0
27600 On ch=10 n=42 v=95
27624 On ch=10 n=42 v=0
27713 On ch=10 n=40 v=114
27719 On ch=10 n=42 v=99
27742 On ch=10 n=42 v=0
27752 On ch=10 n=40 v=0
27842 On ch=10 n=36 v=114
27845 On ch=10 n=42 v=104
27869 On ch=10 n=42 v=0
27877 On ch=10 n=36 v=0
27957 On ch=10 n=40 v=112
27965 On ch=10 n=42 v=104
27988 On ch=10 n=42 v=0
27994 On ch=10 n=40 v=0
28022 On ch=10 n=36 v=108
28057 On ch=10 n=36 v=0
28080 On ch=10 n=42 v=95
28104 On ch=10 n=42 v=0
28193 On ch=10 n=40 v=114
28199 On ch=10 n=42 v=99
28222 On ch=10 n=42 v=0
28232 On ch=10 n=40 v=0
28320 On ch=10 n=47 v=87
28322 On ch=10 n=36 v=114
28325 On ch=10 n=42 v=104
28343 On ch=10 n=47 v=0
28349 On ch=10 n=42 v=0
28357 On ch=10 n=36 v=0
28375 On ch=10 n=47 v=80
28401 On ch=10 n=47 v=0
28437 On ch=10 n=47 v=85
28445 On ch=10 n=42 v=104
28464 On ch=10 n=47 v=0
28468 On ch=10 n=42 v=0
28497 On ch=10 n=45 v=98
28502 On ch=10 n=36 v=108
28522 On ch=10 n=45 v=0
28537 On ch=10 n=36 v=0
28560 On ch=10 n=42 v=95
28560 On ch=10 n=45 v=98
28584 On ch=10 n=42 v=0
28587 On ch=10 n=45 v=0
28618 On ch=10 n=36 v=122
28620 On ch=10 n=43 v=98
28655 On ch=10 n=43 v=0
28671 On ch=10 n=36 v=0
28679 On ch=10 n=42 v=99
28702 On ch=10 n=42 v=0
28800 On ch=10 n=36 v=120
28843 On ch=10 n=36 v=0
28986 On ch=10 n=36 v=102
29013 On ch=10 n=36 v=0
29047 On ch=10 n=36 v=112
29084 On ch=10 n=36 v=0
29165 On ch=10 n=40 v=127
29223 On ch=10 n=40 v=0
29287 On ch=10 n=36 v=108
29346 On ch=10 n=36 v=0
29466 On ch=10 n=36 v=92
29490 On ch=10 n=36 v=0
29530 On ch=10 n=36 v=108
29564 On ch=10 n=36 v=0
29639 On ch=10 n=40 v=127
29698 On ch=10 n=40 v=0
29771 On ch=10 n=36 v=110
29840 On ch=10 n=36 v=0
29944 On ch=10 n=36 v=106
29971 On ch=10 n=36 v=0
30010 On ch=10 n=36 v=108
30047 On ch=10 n=36 v=0
30122 On ch=10 n=40 v=125
30178 On ch=10 n=40 v=0
30240 On ch=10 n=36 v=104
30282 On ch=10 n=36 v=0
30425 On ch=10 n=36 v=90
30451 On ch=10 n=36 v=0
30485 On ch=10 n=36 v=108
30515 On ch=10 n=36 v=0
30545 On ch=10 n=40 v=104
30564 On ch=10 n=40 v=0
30601 On ch=10 n=40 v=125
30627 On ch=10 n=40 v=0
30669 On ch=10 n=46 v=82
30705 On ch=10 n=46 v=0
30720 On ch=10 n=36 v=91
30727 On ch=10 n=42 v=62
30747 On ch=10 n=42 v=0
30764 On ch=10 n=36 v=0
30831 On ch=10 n=40 v=108
30844 On ch=10 n=42 v=66
30862 On ch=10 n=42 v=0
30875 On ch=10 n=40 v=0
30900 On ch=10 n=36 v=104
30950 On ch=10 n=36 v=0
30964 On ch=10 n=42 v=67
30981 On ch=10 n=42 v=0
31013 On ch=10 n=40 v=88
31036 On ch=10 n=40 v=0
31078 On ch=10 n=40 v=117
31085 On ch=10 n=42 v=56
31096 On ch=10 n=42 v=0
31125 On ch=10 n=40 v=0
31199 On ch=10 n=42 v=62
31205 On ch=10 n=36 v=106
31217 On ch=10 n=42 v=0
31246 On ch=10 n=36 v=0
31318 On ch=10 n=40 v=114
31328 On ch=10 n=42 v=45
31341 On ch=10 n=42 v=0
31357 On ch=10 n=40 v=0
31386 On ch=10 n=36 v=98
31429 On ch=10 n=36 v=0
31445 On ch=10 n=42 v=45
31459 On ch=10 n=42 v=0
31497 On ch=10 n=40 v=122
31522 On ch=10 n=40 v=0
31558 On ch=10 n=42 v=61
31562 On ch=10 n=40 v=114
31577 On ch=10 n=42 v=0
31594 On ch=10 n=40 v=0
31615 On ch=10 n=46 v=91
31658 On ch=10 n=46 v=0
31680 On ch=10 n=42 v=64
31683 On ch=10 n=36 v=97
31700 On ch=10 n=42 v=0
31723 On ch=10 n=36 v=0
31793 On ch=10 n=40 v=112
31806 On ch=10 n=42 v=63
31829 On ch=10 n=42 v=0
31836 On ch=10 n=40 v=0
31860 On ch=10 n=36 v=94
31903 On ch=10 n=36 v=0
31916 On ch=10 n=42 v=71
31945 On ch=10 n=42 v=0
31971 On ch=10 n=40 v=88
31996 On ch=10 n=40 v=0
32029 On ch=10 n=42 v=72
32033 On ch=10 n=40 v=114
32053 On ch=10 n=42 v=0
32075 On ch=10 n=40 v=0
32091 On ch=10 n=46 v=85
32145 On ch=10 n=46 v=0
32158 On ch=10 n=36 v=102
32160 On ch=10 n=42 v=68
32181 On ch=10 n=42 v=0
32200 On ch=10 n=36 v=0
32277 On ch=10 n=42 v=71
32280 On ch=10 n=40 v=112
32300 On ch=10 n=42 v=0
32314 On ch=10 n=40 v=0
32399 On ch=10 n=42 v=74
32400 On ch=10 n=36 v=110
32425 On ch=10 n=42 v=0
32438 On ch=10 n=36 v=0
32522 On ch=10 n=40 v=114
32522 On ch=10 n=42 v=71
32548 On ch=10 n=42 v=0
32555 On ch=10 n=40 v=0
32641 On ch=10 n=36 v=102
32643 On ch=10 n=42 v=67
32668 On ch=10 n=42 v=0
32678 On ch=10 n=36 v=0
32760 On ch=10 n=42 v=72
32761 On ch=10 n=40 v=122
32787 On ch=10 n=42 v=0
32792 On ch=10 n=40 v=0
32883 On ch=10 n=42 v=70
32885 On ch=10 n=36 v=110
32907 On ch=10 n=42 v=0
32908 On ch=10 n=36 v=0
32946 On ch=10 n=36 v=114
32975 On ch=10 n=36 v=0
33001 On ch=10 n=42 v=70
33003 On ch=10 n=40 v=127
33023 On ch=10 n=42 v=0
33049 On ch=10 n=40 v=0
33060 On ch=10 n=46 v=93
33115 On ch=10 n=46 v=0
33126 On ch=10 n=42 v=55
33131 On ch=10 n=36 v=110
33148 On ch=10 n=42 v=0
33171 On ch=10 n=36 v=0
33243 On ch=10 n=40 v=114
33243 On ch=10 n=42 v=53
33244 On ch=10 n=55 v=95
33261 On ch=10 n=42 v=0
33281 On ch=10 n=40 v=0
33284 On ch=10 n=55 v=0
33363 On ch=10 n=42 v=56
33364 On ch=10 n=36 v=106
33383 On ch=10 n=42 v=0
33398 On ch=10 n=36 v=0
33481 On ch=10 n=42 v=53
33481 On ch=10 n=36 v=102
33483 On ch=10 n=40 v=112
33501 On ch=10 n=42 v=0
33518 On ch=10 n=40 v=0
33522 On ch=10 n=36 v=0
33549 On ch=10 n=36 v=120
33600 On ch=10 n=42 v=54
33601 On ch=10 n=36 v=0
33619 On ch=10 n=42 v=0
33720 On ch=10 n=42 v=54
33720 On ch=10 n=40 v=112
33736 On ch=10 n=42 v=0
33767 On ch=10 n=40 v=0
33840 On ch=10 n=42 v=60
33845 On ch=10 n=36 v=106
33859 On ch=10 n=42 v=0
33889 On ch=10 n=36 v=0
33959 On ch=10 n=42 v=54
33961 On ch=10 n=40 v=114
33977 On ch=10 n=42 v=0
33999 On ch=10 n=40 v=0
34076 On ch=10 n=42 v=55
34080 On ch=10 n=36 v=114
34093 On ch=10 n=42 v=0
34123 On ch=10 n=36 v=0
34191 On ch=10 n=42 v=53
34201 On ch=10 n=40 v=114
34209 On ch=10 n=42 v=0
34237 On ch=10 n=40 v=0
34315 On ch=10 n=42 v=57
34320 On ch=10 n=36 v=108
34333 On ch=10 n=42 v=0
34357 On ch=10 n=36 v=0
34434 On ch=10 n=42 v=52
34441 On ch=10 n=40 v=117
34443 On ch=10 n=36 v=120
34449 On ch=10 n=42 v=0
34472 On ch=10 n=40 v=0
34485 On ch=10 n=36 v=0
34503 On ch=10 n=36 v=127
34555 On ch=10 n=42 v=63
34560 On ch=10 n=36 v=0
34573 On ch=10 n=42 v=0
34673 On ch=10 n=42 v=56
34678 On ch=10 n=40 v=122
34692 On ch=10 n=42 v=0
34716 On ch=10 n=40 v=0
34792 On ch=10 n=42 v=61
34805 On ch=10 n=36 v=112
34811 On ch=10 n=42 v=0
34848 On ch=10 n=36 v=0
34919 On ch=10 n=42 v=50
34920 On ch=10 n=40 v=122
34932 On ch=10 n=42 v=0
34952 On ch=10 n=40 v=0
35040 On ch=10 n=42 v=74
35049 On ch=10 n=36 v=90
35061 On ch=10 n=42 v=0
35082 On ch=10 n=36 v=0
35161 On ch=10 n=40 v=112
35162 On ch=10 n=42 v=53
35187 On ch=10 n=42 v=0
35193 On ch=10 n=40 v=0
35283 On ch=10 n=42 v=70
35291 On ch=10 n=36 v=86
35310 On ch=10 n=42 v=0
35325 On ch=10 n=36 v=0
35402 On ch=10 n=42 v=65
35409 On ch=10 n=40 v=117
35427 On ch=10 n=42 v=0
35437 On ch=10 n=40 v=0
35529 On ch=10 n=42 v=64
35531 On ch=10 n=36 v=85
35552 On ch=10 n=42 v=0
35562 On ch=10 n=36 v=0
35643 On ch=10 n=42 v=68
35647 On ch=10 n=40 v=114
35668 On ch=10 n=42 v=0
35675 On ch=10 n=40 v=0
35761 On ch=10 n=42 v=65
35771 On ch=10 n=36 v=90
35784 On ch=10 n=42 v=0
35803 On ch=10 n=36 v=0
35880 On ch=10 n=42 v=70
35885 On ch=10 n=40 v=108
35904 On ch=10 n=42 v=0
35914 On ch=10 n=40 v=0
36001 On ch=10 n=42 v=72
36008 On ch=10 n=36 v=100
36026 On ch=10 n=42 v=0
36040 On ch=10 n=36 v=0
36121 On ch=10 n=40 v=112
36127 On ch=10 n=42 v=67
36149 On ch=10 n=42 v=0
36149 On ch=10 n=40 v=0
36236 On ch=10 n=42 v=73
36243 On ch=10 n=36 v=98
36261 On ch=10 n=42 v=0
36275 On ch=10 n=36 v=0
36358 On ch=10 n=42 v=78
36361 On ch=10 n=40 v=114
36383 On ch=10 n=42 v=0
36389 On ch=10 n=40 v=0
36484 On ch=10 n=36 v=98
36485 On ch=10 n=42 v=84
36509 On ch=10 n=42 v=0
36517 On ch=10 n=36 v=0
36603 On ch=10 n=42 v=79
36607 On ch=10 n=40 v=117
36634 On ch=10 n=42 v=0
36635 On ch=10 n=40 v=0
36722 On ch=10 n=46 v=123
36724 On ch=10 n=40 v=114
36727 On ch=10 n=36 v=97
36740 On ch=10 n=40 v=0
36751 On ch=10 n=40 v=127
36753 On ch=10 n=36 v=0
36758 On ch=10 n=46 v=0
36776 On ch=10 n=40 v=0
36778 On ch=10 n=40 v=88
36780 On ch=10 n=40 v=92
36799 On ch=10 n=40 v=0
36800 On ch=10 n=40 v=0
36839 On ch=10 n=40 v=112
36859 On ch=10 n=40 v=0
36900 On ch=10 n=40 v=127
36925 On ch=10 n=40 v=0
36960 On ch=10 n=57 v=100
36960 On ch=10 n=36 v=90
36960 On ch=10 n=42 v=64
36981 On ch=10 n=42 v=0
37006 On ch=10 n=36 v=0
37073 On ch=10 n=49 v=73
37075 On ch=10 n=42 v=58
37078 On ch=10 n=40 v=117
37080 On ch=10 n=57 v=0
37099 On ch=10 n=42 v=0
37110 On ch=10 n=40 v=0
37120 On ch=10 n=49 v=0
37199 On ch=10 n=42 v=58
37201 On ch=10 n=36 v=95
37225 On ch=10 n=42 v=0
37232 On ch=10 n=36 v=0
37321 On ch=10 n=42 v=67
37321 On ch=10 n=40 v=114
37344 On ch=10 n=42 v=0
37355 On ch=10 n=40 v=0
37381 On ch=10 n=36 v=104
37381 On ch=10 n=49 v=78
37417 On ch=10 n=49 v=0
37428 On ch=10 n=36 v=0
37443 On ch=10 n=42 v=67
37465 On ch=10 n=42 v=0
37561 On ch=10 n=42 v=61
37562 On ch=10 n=40 v=98
37580 On ch=10 n=42 v=0
37598 On ch=10 n=40 v=0
37683 On ch=10 n=42 v=56
37685 On ch=10 n=36 v=98
37705 On ch=10 n=42 v=0
37727 On ch=10 n=36 v=0
37801 On ch=10 n=40 v=110
37802 On ch=10 n=42 v=58
37825 On ch=10 n=42 v=0
37839 On ch=10 n=40 v=0
37906 On ch=10 n=42 v=61
37922 On ch=10 n=36 v=102
37927 On ch=10 n=42 v=0
37960 On ch=10 n=36 v=0
38033 On ch=10 n=42 v=58
38034 On ch=10 n=49 v=75
38040 On ch=10 n=40 v=112
38057 On ch=10 n=42 v=0
38064 On ch=10 n=49 v=0
38075 On ch=10 n=40 v=0
38165 On ch=10 n=36 v=98
38203 On ch=10 n=36 v=0
38271 On ch=10 n=49 v=67
38279 On ch=10 n=40 v=114
38284 On ch=10 n=42 v=56
38301 On ch=10 n=42 v=0
38303 On ch=10 n=49 v=0
38317 On ch=10 n=40 v=0
38336 On ch=10 n=36 v=112
38401 On ch=10 n=42 v=58
38411 On ch=10 n=36 v=0
38422 On ch=10 n=42 v=0
38522 On ch=10 n=40 v=112
38522 On ch=10 n=42 v=60
38540 On ch=10 n=42 v=0
38558 On ch=10 n=40 v=0
38641 On ch=10 n=42 v=58
38643 On ch=10 n=36 v=98
38660 On ch=10 n=42 v=0
38682 On ch=10 n=36 v=0
38761 On ch=10 n=40 v=117
38763 On ch=10 n=42 v=56
38778 On ch=10 n=42 v=0
38793 On ch=10 n=40 v=0
38880 On ch=10 n=36 v=87
38880 On ch=10 n=42 v=67
38898 On ch=10 n=42 v=0
38918 On ch=10 n=36 v=0
38995 On ch=10 n=40 v=112
38999 On ch=10 n=42 v=67
39018 On ch=10 n=42 v=0
39023 On ch=10 n=40 v=0
39117 On ch=10 n=42 v=64
39120 On ch=10 n=36 v=92
39136 On ch=10 n=42 v=0
39153 On ch=10 n=36 v=0
39239 On ch=10 n=40 v=114
39241 On ch=10 n=42 v=62
39259 On ch=10 n=42 v=0
39270 On ch=10 n=40 v=0
39362 On ch=10 n=42 v=67
39365 On ch=10 n=36 v=92
39379 On ch=10 n=42 v=0
39402 On ch=10 n=36 v=0
39482 On ch=10 n=40 v=120
39483 On ch=10 n=42 v=65
39501 On ch=10 n=42 v=0
39510 On ch=10 n=40 v=0
39603 On ch=10 n=36 v=97
39606 On ch=10 n=42 v=59
39625 On ch=10 n=42 v=0
39635 On ch=10 n=36 v=0
39720 On ch=10 n=42 v=71
39721 On ch=10 n=40 v=114
39741 On ch=10 n=42 v=0
39749 On ch=10 n=40 v=0
39842 On ch=10 n=36 v=95
39843 On ch=10 n=42 v=74
39864 On ch=10 n=42 v=0
39876 On ch=10 n=36 v=0
39958 On ch=10 n=40 v=114
39967 On ch=10 n=42 v=64
39985 On ch=10 n=42 v=0
39987 On ch=10 n=40 v=0
40077 On ch=10 n=42 v=74
40080 On ch=10 n=36 v=100
40098 On ch=10 n=42 v=0
40113 On ch=10 n=36 v=0
40196 On ch=10 n=42 v=75
40197 On ch=10 n=40 v=114
40216 On ch=10 n=42 v=0
40228 On ch=10 n=40 v=0
40320 On ch=10 n=42 v=77
40322 On ch=10 n=36 v=98
40343 On ch=10 n=42 v=0
40355 On ch=10 n=36 v=0
40440 On ch=10 n=40 v=117
40440 On ch=10 n=42 v=77
40462 On ch=10 n=42 v=0
40469 On ch=10 n=40 v=0
40560 On ch=10 n=36 v=104
40560 On ch=10 n=42 v=70
40579 On ch=10 n=42 v=0
40587 On ch=10 n=36 v=0
40616 On ch=10 n=43 v=85
40639 On ch=10 n=43 v=0
40680 On ch=10 n=43 v=85
40705 On ch=10 n=43 v=0
40742 On ch=10 n=43 v=91
40765 On ch=10 n=43 v=0
40800 On ch=10 n=36 v=122
40800 On ch=10 n=49 v=53
40824 On ch=10 n=49 v=0
40847 On ch=10 n=36 v=0
41105 On ch=10 n=36 v=120
41146 On ch=10 n=36 v=0
41224 On ch=10 n=36 v=120
41257 On ch=10 n=36 v=0
41348 On ch=10 n=36 v=122
41380 On ch=10 n=36 v=0
41464 On ch=10 n=36 v=120
41489 On ch=10 n=36 v=0
41530 On ch=10 n=36 v=120
41562 On ch=10 n=36 v=0
41760 On ch=10 n=42 v=84
41761 On ch=10 n=36 v=112
41778 On ch=10 n=42 v=0
41794 On ch=10 n=36 v=0
41881 On ch=10 n=42 v=84
41882 On ch=10 n=40 v=117
41898 On ch=10 n=42 v=0
41907 On ch=10 n=40 v=0
42001 On ch=10 n=36 v=98
42001 On ch=10 n=42 v=75
42017 On ch=10 n=42 v=0
42033 On ch=10 n=36 v=0
42059 On ch=10 n=47 v=112
42076 On ch=10 n=47 v=0
42096 On ch=10 n=47 v=104
42109 On ch=10 n=47 v=0
42118 On ch=10 n=47 v=108
42120 On ch=10 n=40 v=112
42122 On ch=10 n=42 v=77
42140 On ch=10 n=42 v=0
42146 On ch=10 n=40 v=0
42157 On ch=10 n=47 v=0
42175 On ch=10 n=45 v=127
42204 On ch=10 n=45 v=0
42240 On ch=10 n=42 v=84
42241 On ch=10 n=36 v=112
42258 On ch=10 n=42 v=0
42274 On ch=10 n=36 v=0
42361 On ch=10 n=42 v=84
42362 On ch=10 n=40 v=117
42378 On ch=10 n=42 v=0
42387 On ch=10 n=40 v=0
42481 On ch=10 n=36 v=98
42481 On ch=10 n=42 v=75
42497 On ch=10 n=42 v=0
42513 On ch=10 n=36 v=0
42600 On ch=10 n=40 v=112
42602 On ch=10 n=42 v=77
42620 On ch=10 n=42 v=0
42626 On ch=10 n=40 v=0
42720 On ch=10 n=42 v=84
42721 On ch=10 n=36 v=112
42738 On ch=10 n=42 v=0
42754 On ch=10 n=36 v=0
42841 On ch=10 n=42 v=84
42842 On ch=10 n=40 v=117
42858 On ch=10 n=42 v=0
42867 On ch=10 n=40 v=0
42961 On ch=10 n=36 v=98
42961 On ch=10 n=42 v=75
42977 On ch=10 n=42 v=0
42993 On ch=10 n=36 v=0
43080 On ch=10 n=40 v=112
43082 On ch=10 n=42 v=77
43100 On ch=10 n=42 v=0
43106 On ch=10 n=40 v=0
43200 On ch=10 n=42 v=84
43201 On ch=10 n=36 v=112
43218 On ch=10 n=42 v=0
43234 On ch=10 n=36 v=0
43321 On ch=10 n=42 v=84
43322 On ch=10 n=40 v=117
43338 On ch=10 n=42 v=0
43347 On ch=10 n=40 v=0
43441 On ch=10 n=36 v=98
43441 On ch=10 n=42 v=75
43457 On ch=10 n=42 v=0
43473 On ch=10 n=36 v=0
43505 On ch=10 n=46 v=68
43558 On ch=10 n=46 v=0
43560 On ch=10 n=40 v=112
43562 On ch=10 n=42 v=77
43580 On ch=10 n=42 v=0
43586 On ch=10 n=40 v=0
43627 On ch=10 n=46 v=82
43677 On ch=10 n=46 v=0
43680 On ch=10 n=42 v=84
43681 On ch=10 n=36 v=112
43698 On ch=10 n=42 v=0
43714 On ch=10 n=36 v=0
43801 On ch=10 n=42 v=84
43802 On ch=10 n=40 v=117
43818 On ch=10 n=42 v=0
43827 On ch=10 n=40 v=0
43921 On ch=10 n=36 v=98
43921 On ch=10 n=42 v=75
43937 On ch=10 n=42 v=0
43953 On ch=10 n=36 v=0
43982 On ch=10 n=43 v=98
43998 On ch=10 n=43 v=0
44014 On ch=10 n=43 v=100
44032 On ch=10 n=43 v=0
44040 On ch=10 n=40 v=112
44041 On ch=10 n=43 v=102
44042 On ch=10 n=42 v=77
44060 On ch=10 n=42 v=0
44066 On ch=10 n=40 v=0
44080 On ch=10 n=43 v=0
44099 On ch=10 n=43 v=104
44124 On ch=10 n=43 v=0
44160 On ch=10 n=42 v=84
44161 On ch=10 n=36 v=112
44178 On ch=10 n=42 v=0
44194 On ch=10 n=36 v=0
44281 On ch=10 n=42 v=84
44282 On ch=10 n=40 v=117
44298 On ch=10 n=42 v=0
44307 On ch=10 n=40 v=0
44401 On ch=10 n=36 v=98
44401 On ch=10 n=42 v=75
44417 On ch=10 n=42 v=0
44433 On ch=10 n=36 v=0
44520 On ch=10 n=40 v=112
44522 On ch=10 n=42 v=77
44540 On ch=10 n=42 v=0
44546 On ch=10 n=40 v=0
44640 On ch=10 n=36 v=104
44644 On ch=10 n=42 v=68
44669 On ch=10 n=42 v=0
44669 On ch=10 n=36 v=0
44762 On ch=10 n=40 v=110
44764 On ch=10 n=42 v=68
44784 On ch=10 n=42 v=0
44795 On ch=10 n=40 v=0
44881 On ch=10 n=36 v=102
44890 On ch=10 n=42 v=60
44901 On ch=10 n=42 v=0
44909 On ch=10 n=36 v=0
44996 On ch=10 n=40 v=114
44999 On ch=10 n=42 v=67
45016 On ch=10 n=42 v=0
45031 On ch=10 n=40 v=0
45051 On ch=10 n=46 v=79
45108 On ch=10 n=46 v=0
45123 On ch=10 n=36 v=86
45144 On ch=10 n=36 v=0
45182 On ch=10 n=36 v=104
45210 On ch=10 n=36 v=0
45236 On ch=10 n=40 v=100
45244 On ch=10 n=40 v=103
45261 On ch=10 n=40 v=0
45273 On ch=10 n=40 v=101
45288 On ch=10 n=40 v=0
45298 On ch=10 n=40 v=0
45298 On ch=10 n=40 v=103
45315 On ch=10 n=40 v=0
45324 On ch=10 n=40 v=116
45350 On ch=10 n=40 v=0
45351 On ch=10 n=45 v=111
45356 On ch=10 n=47 v=110
45372 On ch=10 n=47 v=0
45379 On ch=10 n=47 v=108
45396 On ch=10 n=47 v=0
45411 On ch=10 n=47 v=105
45428 On ch=10 n=47 v=0
45429 On ch=10 n=45 v=0
45433 On ch=10 n=47 v=109
45457 On ch=10 n=47 v=0
45471 On ch=10 n=45 v=104
45472 On ch=10 n=43 v=113
45486 On ch=10 n=45 v=0
45495 On ch=10 n=45 v=101
45515 On ch=10 n=45 v=0
45538 On ch=10 n=41 v=99
45544 On ch=10 n=43 v=0
45554 On ch=10 n=41 v=0
45557 On ch=10 n=41 v=97
45584 On ch=10 n=41 v=0
45598 On ch=10 n=57 v=70
45599 On ch=10 n=36 v=110
45599 On ch=10 n=42 v=55
45621 On ch=10 n=42 v=0
45626 On ch=10 n=57 v=0
45639 On ch=10 n=36 v=0
45723 On ch=10 n=40 v=114
45723 On ch=10 n=42 v=53
45724 On ch=10 n=55 v=95
45741 On ch=10 n=42 v=0
45761 On ch=10 n=40 v=0
45764 On ch=10 n=55 v=0
45843 On ch=10 n=42 v=56
45844 On ch=10 n=36 v=106
45863 On ch=10 n=42 v=0
45878 On ch=10 n=36 v=0
45961 On ch=10 n=42 v=53
45961 On ch=10 n=36 v=102
45963 On ch=10 n=40 v=112
45981 On ch=10 n=42 v=0
45998 On ch=10 n=40 v=0
46002 On ch=10 n=36 v=0
46027 On ch=10 n=36 v=120
46079 On ch=10 n=36 v=0
46083 On ch=10 n=42 v=54
46102 On ch=10 n=42 v=0
46203 On ch=10 n=42 v=54
46205 On ch=10 n=40 v=112
46219 On ch=10 n=42 v=0
46252 On ch=10 n=40 v=0
46324 On ch=10 n=42 v=60
46326 On ch=10 n=36 v=106
46343 On ch=10 n=42 v=0
46370 On ch=10 n=36 v=0
46441 On ch=10 n=40 v=114
46442 On ch=10 n=42 v=54
46460 On ch=10 n=42 v=0
46479 On ch=10 n=40 v=0
46556 On ch=10 n=42 v=55
46560 On ch=10 n=36 v=114
46573 On ch=10 n=42 v=0
46603 On ch=10 n=36 v=0
46671 On ch=10 n=42 v=53
46681 On ch=10 n=40 v=114
46689 On ch=10 n=42 v=0
46717 On ch=10 n=40 v=0
46800 On ch=10 n=36 v=108
46802 On ch=10 n=42 v=57
46820 On ch=10 n=42 v=0
46837 On ch=10 n=36 v=0
46914 On ch=10 n=42 v=52
46921 On ch=10 n=40 v=117
46923 On ch=10 n=36 v=120
46929 On ch=10 n=42 v=0
46952 On ch=10 n=40 v=0
46965 On ch=10 n=36 v=0
46983 On ch=10 n=36 v=127
47040 On ch=10 n=36 v=0
47040 On ch=10 n=42 v=63
47058 On ch=10 n=42 v=0
47160 On ch=10 n=42 v=56
47163 On ch=10 n=40 v=122
47179 On ch=10 n=42 v=0
47201 On ch=10 n=40 v=0
47277 On ch=10 n=42 v=61
47285 On ch=10 n=36 v=112
47296 On ch=10 n=42 v=0
47328 On ch=10 n=36 v=0
47399 On ch=10 n=42 v=50
47400 On ch=10 n=40 v=122
47412 On ch=10 n=42 v=0
47432 On ch=10 n=40 v=0
47520 On ch=10 n=42 v=74
47529 On ch=10 n=36 v=90
47541 On ch=10 n=42 v=0
47562 On ch=10 n=36 v=0
47641 On ch=10 n=40 v=112
47642 On ch=10 n=42 v=53
47667 On ch=10 n=42 v=0
47673 On ch=10 n=40 v=0
47763 On ch=10 n=42 v=70
47771 On ch=10 n=36 v=86
47790 On ch=10 n=42 v=0
47805 On ch=10 n=36 v=0
47882 On ch=10 n=42 v=65
47889 On ch=10 n=40 v=117
47907 On ch=10 n=42 v=0
47917 On ch=10 n=40 v=0
48009 On ch=10 n=42 v=64
48011 On ch=10 n=36 v=85
48032 On ch=10 n=42 v=0
48042 On ch=10 n=36 v=0
48123 On ch=10 n=42 v=68
48127 On ch=10 n=40 v=114
48148 On ch=10 n=42 v=0
48155 On ch=10 n=40 v=0
48241 On ch=10 n=42 v=65
48251 On ch=10 n=36 v=90
48264 On ch=10 n=42 v=0
48283 On ch=10 n=36 v=0
48360 On ch=10 n=42 v=70
48365 On ch=10 n=40 v=108
48384 On ch=10 n=42 v=0
48394 On ch=10 n=40 v=0
48481 On ch=10 n=42 v=72
48488 On ch=10 n=36 v=100
48506 On ch=10 n=42 v=0
48520 On ch=10 n=36 v=0
48601 On ch=10 n=40 v=112
48607 On ch=10 n=42 v=67
48629 On ch=10 n=42 v=0
48629 On ch=10 n=40 v=0
48716 On ch=10 n=42 v=73
48723 On ch=10 n=36 v=98
48741 On ch=10 n=42 v=0
48755 On ch=10 n=36 v=0
48838 On ch=10 n=42 v=78
48841 On ch=10 n=40 v=114
48863 On ch=10 n=42 v=0
48869 On ch=10 n=40 v=0
48964 On ch=10 n=36 v=98
48965 On ch=10 n=42 v=84
48989 On ch=10 n=42 v=0
48997 On ch=10 n=36 v=0
49083 On ch=10 n=42 v=79
49087 On ch=10 n=40 v=117
49114 On ch=10 n=42 v=0
49115 On ch=10 n=40 v=0
49202 On ch=10 n=46 v=123
49207 On ch=10 n=36 v=97
49233 On ch=10 n=36 v=0
49238 On ch=10 n=46 v=0
49260 On ch=10 n=40 v=92
49279 On ch=10 n=40 v=0
49319 On ch=10 n=40 v=112
49339 On ch=10 n=40 v=0
49380 On ch=10 n=40 v=127
49405 On ch=10 n=40 v=0
49410 On ch=10 n=40 v=122
49440 On ch=10 n=36 v=90
49440 On ch=10 n=42 v=64
49448 On ch=10 n=40 v=0
49461 On ch=10 n=42 v=0
49486 On ch=10 n=36 v=0
49553 On ch=10 n=49 v=73
49555 On ch=10 n=42 v=58
49558 On ch=10 n=40 v=117
49579 On ch=10 n=42 v=0
49590 On ch=10 n=40 v=0
49600 On ch=10 n=49 v=0
49679 On ch=10 n=42 v=58
49681 On ch=10 n=36 v=95
49705 On ch=10 n=42 v=0
49712 On ch=10 n=36 v=0
49801 On ch=10 n=42 v=67
49801 On ch=10 n=40 v=114
49824 On ch=10 n=42 v=0
49835 On ch=10 n=40 v=0
49861 On ch=10 n=36 v=104
49861 On ch=10 n=49 v=78
49897 On ch=10 n=49 v=0
49908 On ch=10 n=36 v=0
49923 On ch=10 n=42 v=67
49945 On ch=10 n=42 v=0
50041 On ch=10 n=42 v=61
50044 On ch=10 n=40 v=98
50060 On ch=10 n=42 v=0
50080 On ch=10 n=40 v=0
50161 On ch=10 n=42 v=56
50161 On ch=10 n=36 v=98
50183 On ch=10 n=42 v=0
50203 On ch=10 n=36 v=0
50272 On ch=10 n=42 v=58
50277 On ch=10 n=40 v=110
50295 On ch=10 n=42 v=0
50315 On ch=10 n=40 v=0
50386 On ch=10 n=42 v=61
50402 On ch=10 n=36 v=102
50407 On ch=10 n=42 v=0
50440 On ch=10 n=36 v=0
50513 On ch=10 n=42 v=58
50514 On ch=10 n=49 v=75
50520 On ch=10 n=40 v=112
50537 On ch=10 n=42 v=0
50544 On ch=10 n=49 v=0
50555 On ch=10 n=40 v=0
50645 On ch=10 n=36 v=98
50683 On ch=10 n=36 v=0
50749 On ch=10 n=49 v=67
50756 On ch=10 n=40 v=114
50759 On ch=10 n=42 v=56
50776 On ch=10 n=42 v=0
50781 On ch=10 n=49 v=0
50794 On ch=10 n=40 v=0
50816 On ch=10 n=36 v=112
50869 On ch=10 n=42 v=58
50890 On ch=10 n=42 v=0
50891 On ch=10 n=36 v=0
50990 On ch=10 n=42 v=60
50994 On ch=10 n=40 v=112
51008 On ch=10 n=42 v=0
51030 On ch=10 n=40 v=0
51109 On ch=10 n=42 v=58
51118 On ch=10 n=36 v=98
51128 On ch=10 n=42 v=0
51157 On ch=10 n=36 v=0
51228 On ch=10 n=42 v=56
51235 On ch=10 n=40 v=117
51243 On ch=10 n=42 v=0
51267 On ch=10 n=40 v=0
51360 On ch=10 n=36 v=87
51360 On ch=10 n=42 v=67
51378 On ch=10 n=42 v=0
51398 On ch=10 n=36 v=0
51475 On ch=10 n=40 v=112
51479 On ch=10 n=42 v=67
51498 On ch=10 n=42 v=0
51503 On ch=10 n=40 v=0
51597 On ch=10 n=42 v=64
51600 On ch=10 n=36 v=92
51616 On ch=10 n=42 v=0
51633 On ch=10 n=36 v=0
51719 On ch=10 n=40 v=114
51721 On ch=10 n=42 v=62
51739 On ch=10 n=42 v=0
51750 On ch=10 n=40 v=0
51842 On ch=10 n=42 v=67
51845 On ch=10 n=36 v=92
51859 On ch=10 n=42 v=0
51882 On ch=10 n=36 v=0
51962 On ch=10 n=40 v=120
51963 On ch=10 n=42 v=65
51981 On ch=10 n=42 v=0
51990 On ch=10 n=40 v=0
52083 On ch=10 n=36 v=97
52086 On ch=10 n=42 v=59
52105 On ch=10 n=42 v=0
52115 On ch=10 n=36 v=0
52200 On ch=10 n=42 v=71
52201 On ch=10 n=40 v=114
52221 On ch=10 n=42 v=0
52229 On ch=10 n=40 v=0
52322 On ch=10 n=36 v=95
52323 On ch=10 n=42 v=74
52344 On ch=10 n=42 v=0
52356 On ch=10 n=36 v=0
52438 On ch=10 n=40 v=114
52447 On ch=10 n=42 v=64
52465 On ch=10 n=42 v=0
52467 On ch=10 n=40 v=0
52557 On ch=10 n=42 v=74
52560 On ch=10 n=36 v=100
52578 On ch=10 n=42 v=0
52593 On ch=10 n=36 v=0
52676 On ch=10 n=42 v=75
52677 On ch=10 n=40 v=114
52696 On ch=10 n=42 v=0
52708 On ch=10 n=40 v=0
52800 On ch=10 n=42 v=77
52802 On ch=10 n=36 v=98
52823 On ch=10 n=42 v=0
52835 On ch=10 n=36 v=0
52920 On ch=10 n=40 v=117
52920 On ch=10 n=42 v=77
52942 On ch=10 n=42 v=0
52949 On ch=10 n=40 v=0
53040 On ch=10 n=36 v=104
53040 On ch=10 n=42 v=70
53042 On ch=10 n=47 v=122
53059 On ch=10 n=47 v=0
53059 On ch=10 n=42 v=0
53067 On ch=10 n=36 v=0
53075 On ch=10 n=47 v=91
53120 On ch=10 n=47 v=0
53167 On ch=10 n=45 v=125
53184 On ch=10 n=45 v=0
53188 On ch=10 n=45 v=112
53210 On ch=10 n=45 v=0
53221 On ch=10 n=45 v=120
53244 On ch=10 n=45 v=0
53280 On ch=10 n=57 v=68
53286 On ch=10 n=42 v=55
53291 On ch=10 n=36 v=110
53296 On ch=10 n=57 v=0
53308 On ch=10 n=42 v=0
53331 On ch=10 n=36 v=0
53403 On ch=10 n=40 v=114
53403 On ch=10 n=42 v=53
53404 On ch=10 n=55 v=95
53421 On ch=10 n=42 v=0
53441 On ch=10 n=40 v=0
53444 On ch=10 n=55 v=0
53523 On ch=10 n=42 v=56
53524 On ch=10 n=36 v=106
53543 On ch=10 n=42 v=0
53558 On ch=10 n=36 v=0
53641 On ch=10 n=42 v=53
53641 On ch=10 n=36 v=102
53643 On ch=10 n=40 v=112
53661 On ch=10 n=42 v=0
53678 On ch=10 n=40 v=0
53682 On ch=10 n=36 v=0
53711 On ch=10 n=36 v=120
53763 On ch=10 n=36 v=0
53764 On ch=10 n=42 v=54
53783 On ch=10 n=42 v=0
53883 On ch=10 n=42 v=54
53883 On ch=10 n=40 v=112
53899 On ch=10 n=42 v=0
53930 On ch=10 n=40 v=0
54000 On ch=10 n=42 v=60
54005 On ch=10 n=36 v=106
54019 On ch=10 n=42 v=0
54049 On ch=10 n=36 v=0
54119 On ch=10 n=42 v=54
54121 On ch=10 n=40 v=114
54137 On ch=10 n=42 v=0
54159 On ch=10 n=40 v=0
54236 On ch=10 n=42 v=55
54240 On ch=10 n=36 v=114
54253 On ch=10 n=42 v=0
54283 On ch=10 n=36 v=0
54351 On ch=10 n=42 v=53
54361 On ch=10 n=40 v=114
54369 On ch=10 n=42 v=0
54397 On ch=10 n=40 v=0
54475 On ch=10 n=42 v=57
54480 On ch=10 n=36 v=108
54493 On ch=10 n=42 v=0
54517 On ch=10 n=36 v=0
54594 On ch=10 n=42 v=52
54601 On ch=10 n=40 v=117
54603 On ch=10 n=36 v=120
54609 On ch=10 n=42 v=0
54632 On ch=10 n=40 v=0
54645 On ch=10 n=36 v=0
54663 On ch=10 n=36 v=127
54715 On ch=10 n=42 v=63
54720 On ch=10 n=36 v=0
54733 On ch=10 n=42 v=0
54833 On ch=10 n=42 v=56
54838 On ch=10 n=40 v=122
54852 On ch=10 n=42 v=0
54876 On ch=10 n=40 v=0
54952 On ch=10 n=42 v=61
54965 On ch=10 n=36 v=112
54971 On ch=10 n=42 v=0
55008 On ch=10 n=36 v=0
55079 On ch=10 n=42 v=50
55080 On ch=10 n=40 v=122
55092 On ch=10 n=42 v=0
55112 On ch=10 n=40 v=0
55200 On ch=10 n=42 v=74
55209 On ch=10 n=36 v=90
55221 On ch=10 n=42 v=0
55242 On ch=10 n=36 v=0
55321 On ch=10 n=40 v=112
55322 On ch=10 n=42 v=53
55347 On ch=10 n=42 v=0
55353 On ch=10 n=40 v=0
55443 On ch=10 n=42 v=70
55451 On ch=10 n=36 v=86
55470 On ch=10 n=42 v=0
55485 On ch=10 n=36 v=0
55562 On ch=10 n=42 v=65
55569 On ch=10 n=40 v=117
55587 On ch=10 n=42 v=0
55597 On ch=10 n=40 v=0
55689 On ch=10 n=42 v=64
55691 On ch=10 n=36 v=85
55712 On ch=10 n=42 v=0
55722 On ch=10 n=36 v=0
55803 On ch=10 n=42 v=68
55807 On ch=10 n=40 v=114
55828 On ch=10 n=42 v=0
55835 On ch=10 n=40 v=0
55921 On ch=10 n=42 v=65
55931 On ch=10 n=36 v=90
55944 On ch=10 n=42 v=0
55963 On ch=10 n=36 v=0
56040 On ch=10 n=42 v=70
56045 On ch=10 n=40 v=108
56064 On ch=10 n=42 v=0
56074 On ch=10 n=40 v=0
56161 On ch=10 n=42 v=72
56168 On ch=10 n=36 v=100
56186 On ch=10 n=42 v=0
56200 On ch=10 n=36 v=0
56281 On ch=10 n=40 v=112
56287 On ch=10 n=42 v=67
56309 On ch=10 n=42 v=0
56309 On ch=10 n=40 v=0
56396 On ch=10 n=42 v=73
56403 On ch=10 n=36 v=98
56421 On ch=10 n=42 v=0
56435 On ch=10 n=36 v=0
56518 On ch=10 n=42 v=78
56521 On ch=10 n=40 v=114
56543 On ch=10 n=42 v=0
56549 On ch=10 n=40 v=0
56644 On ch=10 n=36 v=98
56645 On ch=10 n=42 v=84
56669 On ch=10 n=42 v=0
56677 On ch=10 n=36 v=0
56763 On ch=10 n=42 v=79
56767 On ch=10 n=40 v=117
56794 On ch=10 n=42 v=0
56795 On ch=10 n=40 v=0
56881 On ch=10 n=40 v=127
56882 On ch=10 n=46 v=123
56887 On ch=10 n=36 v=97
56913 On ch=10 n=36 v=0
56914 On ch=10 n=40 v=0
56918 On ch=10 n=46 v=0
56940 On ch=10 n=40 v=92
56959 On ch=10 n=40 v=0
56999 On ch=10 n=40 v=112
57019 On ch=10 n=40 v=0
57060 On ch=10 n=40 v=127
57085 On ch=10 n=40 v=0
57085 On ch=10 n=40 v=117
57120 On ch=10 n=36 v=90
57120 On ch=10 n=42 v=64
57140 On ch=10 n=40 v=0
57141 On ch=10 n=42 v=0
57166 On ch=10 n=36 v=0
57233 On ch=10 n=49 v=73
57235 On ch=10 n=42 v=58
57238 On ch=10 n=40 v=117
57259 On ch=10 n=42 v=0
57270 On ch=10 n=40 v=0
57280 On ch=10 n=49 v=0
57359 On ch=10 n=42 v=58
57361 On ch=10 n=36 v=95
57385 On ch=10 n=42 v=0
57392 On ch=10 n=36 v=0
57481 On ch=10 n=42 v=67
57481 On ch=10 n=40 v=114
57504 On ch=10 n=42 v=0
57515 On ch=10 n=40 v=0
57541 On ch=10 n=36 v=104
57541 On ch=10 n=49 v=78
57577 On ch=10 n=49 v=0
57588 On ch=10 n=36 v=0
57603 On ch=10 n=42 v=67
57625 On ch=10 n=42 v=0
57721 On ch=10 n=42 v=61
57722 On ch=10 n=40 v=98
57740 On ch=10 n=42 v=0
57758 On ch=10 n=40 v=0
57827 On ch=10 n=42 v=56
57839 On ch=10 n=36 v=98
57849 On ch=10 n=42 v=0
57881 On ch=10 n=36 v=0
57948 On ch=10 n=42 v=58
57955 On ch=10 n=40 v=110
57971 On ch=10 n=42 v=0
57993 On ch=10 n=40 v=0
58066 On ch=10 n=42 v=61
58082 On ch=10 n=36 v=102
58087 On ch=10 n=42 v=0
58120 On ch=10 n=36 v=0
58193 On ch=10 n=42 v=58
58194 On ch=10 n=49 v=75
58200 On ch=10 n=40 v=112
58217 On ch=10 n=42 v=0
58224 On ch=10 n=49 v=0
58235 On ch=10 n=40 v=0
58325 On ch=10 n=36 v=98
58363 On ch=10 n=36 v=0
58429 On ch=10 n=49 v=67
58436 On ch=10 n=40 v=114
58439 On ch=10 n=42 v=56
58456 On ch=10 n=42 v=0
58461 On ch=10 n=49 v=0
58474 On ch=10 n=40 v=0
58496 On ch=10 n=36 v=112
58549 On ch=10 n=42 v=58
58570 On ch=10 n=42 v=0
58571 On ch=10 n=36 v=0
58670 On ch=10 n=42 v=60
58674 On ch=10 n=40 v=112
58688 On ch=10 n=42 v=0
58710 On ch=10 n=40 v=0
58789 On ch=10 n=42 v=58
58798 On ch=10 n=36 v=98
58808 On ch=10 n=42 v=0
58837 On ch=10 n=36 v=0
58908 On ch=10 n=42 v=56
58915 On ch=10 n=40 v=117
58923 On ch=10 n=42 v=0
58947 On ch=10 n=40 v=0
59040 On ch=10 n=36 v=87
59040 On ch=10 n=42 v=67
59058 On ch=10 n=42 v=0
59078 On ch=10 n=36 v=0
59155 On ch=10 n=40 v=112
59159 On ch=10 n=42 v=67
59178 On ch=10 n=42 v=0
59183 On ch=10 n=40 v=0
59277 On ch=10 n=42 v=64
59280 On ch=10 n=36 v=92
59296 On ch=10 n=42 v=0
59313 On ch=10 n=36 v=0
59399 On ch=10 n=40 v=114
59401 On ch=10 n=42 v=62
59419 On ch=10 n=42 v=0
59430 On ch=10 n=40 v=0
59522 On ch=10 n=42 v=67
59525 On ch=10 n=36 v=92
59539 On ch=10 n=42 v=0
59562 On ch=10 n=36 v=0
59642 On ch=10 n=40 v=120
59643 On ch=10 n=42 v=65
59661 On ch=10 n=42 v=0
59670 On ch=10 n=40 v=0
59763 On ch=10 n=36 v=97
59766 On ch=10 n=42 v=59
59785 On ch=10 n=42 v=0
59795 On ch=10 n=36 v=0
59880 On ch=10 n=42 v=71
59881 On ch=10 n=40 v=114
59901 On ch=10 n=42 v=0
59909 On ch=10 n=40 v=0
60002 On ch=10 n=36 v=95
60003 On ch=10 n=42 v=74
60024 On ch=10 n=42 v=0
60036 On ch=10 n=36 v=0
60118 On ch=10 n=40 v=114
60127 On ch=10 n=42 v=64
60145 On ch=10 n=42 v=0
60147 On ch=10 n=40 v=0
60237 On ch=10 n=42 v=74
60240 On ch=10 n=36 v=100
60258 On ch=10 n=42 v=0
60273 On ch=10 n=36 v=0
60356 On ch=10 n=42 v=75
60357 On ch=10 n=40 v=114
60376 On ch=10 n=42 v=0
60388 On ch=10 n=40 v=0
60484 On ch=10 n=36 v=98
60485 On ch=10 n=42 v=84
60509 On ch=10 n=42 v=0
60517 On ch=10 n=36 v=0
60603 On ch=10 n=42 v=79
60607 On ch=10 n=40 v=117
60634 On ch=10 n=42 v=0
60635 On ch=10 n=40 v=0
60722 On ch=10 n=46 v=123
60724 On ch=10 n=40 v=114
60727 On ch=10 n=36 v=97
60740 On ch=10 n=40 v=0
60751 On ch=10 n=40 v=127
60753 On ch=10 n=36 v=0
60758 On ch=10 n=46 v=0
60776 On ch=10 n=40 v=0
60778 On ch=10 n=40 v=88
60780 On ch=10 n=40 v=92
60799 On ch=10 n=40 v=0
60800 On ch=10 n=40 v=0
60839 On ch=10 n=40 v=112
60859 On ch=10 n=40 v=0
60900 On ch=10 n=40 v=127
60925 On ch=10 n=40 v=0
60966 On ch=10 n=42 v=55
60971 On ch=10 n=36 v=110
60988 On ch=10 n=42 v=0
61011 On ch=10 n=36 v=0
61083 On ch=10 n=40 v=114
61083 On ch=10 n=42 v=53
61084 On ch=10 n=55 v=95
61101 On ch=10 n=42 v=0
61121 On ch=10 n=40 v=0
61124 On ch=10 n=55 v=0
61203 On ch=10 n=42 v=56
61204 On ch=10 n=36 v=106
61223 On ch=10 n=42 v=0
61238 On ch=10 n=36 v=0
61321 On ch=10 n=42 v=53
61321 On ch=10 n=36 v=102
61323 On ch=10 n=40 v=112
61341 On ch=10 n=42 v=0
61358 On ch=10 n=40 v=0
61362 On ch=10 n=36 v=0
61393 On ch=10 n=36 v=120
61440 On ch=10 n=42 v=54
61445 On ch=10 n=36 v=0
61459 On ch=10 n=42 v=0
61560 On ch=10 n=42 v=54
61560 On ch=10 n=40 v=112
61576 On ch=10 n=42 v=0
61607 On ch=10 n=40 v=0
61680 On ch=10 n=42 v=60
61685 On ch=10 n=36 v=106
61699 On ch=10 n=42 v=0
61729 On ch=10 n=36 v=0
61799 On ch=10 n=42 v=54
61801 On ch=10 n=40 v=114
61817 On ch=10 n=42 v=0
61839 On ch=10 n=40 v=0
61916 On ch=10 n=42 v=55
61920 On ch=10 n=36 v=114
61933 On ch=10 n=42 v=0
61963 On ch=10 n=36 v=0
62031 On ch=10 n=42 v=53
62041 On ch=10 n=40 v=114
62049 On ch=10 n=42 v=0
62077 On ch=10 n=40 v=0
62155 On ch=10 n=42 v=57
62160 On ch=10 n=36 v=108
62173 On ch=10 n=42 v=0
62197 On ch=10 n=36 v=0
62274 On ch=10 n=42 v=52
62281 On ch=10 n=40 v=117
62283 On ch=10 n=36 v=120
62289 On ch=10 n=42 v=0
62312 On ch=10 n=40 v=0
62325 On ch=10 n=36 v=0
62343 On ch=10 n=36 v=127
62395 On ch=10 n=42 v=63
62400 On ch=10 n=36 v=0
62413 On ch=10 n=42 v=0
62513 On ch=10 n=42 v=56
62518 On ch=10 n=40 v=122
62532 On ch=10 n=42 v=0
62556 On ch=10 n=40 v=0
62632 On ch=10 n=42 v=61
62645 On ch=10 n=36 v=112
62651 On ch=10 n=42 v=0
62688 On ch=10 n=36 v=0
62759 On ch=10 n=42 v=50
62760 On ch=10 n=40 v=122
62772 On ch=10 n=42 v=0
62792 On ch=10 n=40 v=0
62880 On ch=10 n=42 v=74
62889 On ch=10 n=36 v=90
62901 On ch=10 n=42 v=0
62922 On ch=10 n=36 v=0
63001 On ch=10 n=40 v=112
63002 On ch=10 n=42 v=53
63027 On ch=10 n=42 v=0
63033 On ch=10 n=40 v=0
63123 On ch=10 n=42 v=70
63131 On ch=10 n=36 v=86
63150 On ch=10 n=42 v=0
63165 On ch=10 n=36 v=0
63242 On ch=10 n=42 v=65
63249 On ch=10 n=40 v=117
63267 On ch=10 n=42 v=0
63277 On ch=10 n=40 v=0
63369 On ch=10 n=42 v=64
63371 On ch=10 n=36 v=85
63392 On ch=10 n=42 v=0
63402 On ch=10 n=36 v=0
63483 On ch=10 n=42 v=68
63487 On ch=10 n=40 v=114
63508 On ch=10 n=42 v=0
63515 On ch=10 n=40 v=0
63601 On ch=10 n=42 v=65
63611 On ch=10 n=36 v=90
63624 On ch=10 n=42 v=0
63643 On ch=10 n=36 v=0
63720 On ch=10 n=42 v=70
63725 On ch=10 n=40 v=108
63744 On ch=10 n=42 v=0
63754 On ch=10 n=40 v=0
63841 On ch=10 n=42 v=72
63848 On ch=10 n=36 v=100
63866 On ch=10 n=42 v=0
63880 On ch=10 n=36 v=0
63961 On ch=10 n=40 v=112
63967 On ch=10 n=42 v=67
63989 On ch=10 n=42 v=0
63989 On ch=10 n=40 v=0
64076 On ch=10 n=42 v=73
64083 On ch=10 n=36 v=98
64101 On ch=10 n=42 v=0
64115 On ch=10 n=36 v=0
64198 On ch=10 n=42 v=78
64201 On ch=10 n=40 v=114
64223 On ch=10 n=42 v=0
64229 On ch=10 n=40 v=0
64324 On ch=10 n=36 v=98
64325 On ch=10 n=42 v=84
64349 On ch=10 n=42 v=0
64357 On ch=10 n=36 v=0
64443 On ch=10 n=42 v=79
64447 On ch=10 n=40 v=117
64474 On ch=10 n=42 v=0
64475 On ch=10 n=40 v=0
64562 On ch=10 n=46 v=123
64564 On ch=10 n=40 v=114
64567 On ch=10 n=36 v=97
64580 On ch=10 n=40 v=0
64591 On ch=10 n=40 v=127
64593 On ch=10 n=36 v=0
64598 On ch=10 n=46 v=0
64616 On ch=10 n=40 v=0
64618 On ch=10 n=40 v=88
64620 On ch=10 n=40 v=92
64639 On ch=10 n=40 v=0
64640 On ch=10 n=40 v=0
64679 On ch=10 n=40 v=112
64699 On ch=10 n=40 v=0
64740 On ch=10 n=40 v=127
64765 On ch=10 n=40 v=0
64765 Meta TrkEnd
TrkEnd
MTrk
0 Meta 0x21 00
0 Meta TrkName "Gabrio \"KBL\" Secco"
0 PrCh ch=11 p=5
0 Par ch=11 c=7 v=90
0 Par ch=11 c=10 v=65
0 Par ch=11 c=91 v=86
0 Par ch=11 c=93 v=72
601 On ch=11 n=78 v=127
601 On ch=11 n=81 v=110
602 On ch=11 n=74 v=102
629 On ch=11 n=74 v=0
637 On ch=11 n=78 v=0
638 On ch=11 n=81 v=0
837 On ch=11 n=78 v=127
838 On ch=11 n=81 v=112
838 On ch=11 n=74 v=106
878 On ch=11 n=74 v=0
878 On ch=11 n=78 v=0
881 On ch=11 n=81 v=0
1081 On ch=11 n=83 v=108
1081 On ch=11 n=78 v=127
1081 On ch=11 n=74 v=106
1112 On ch=11 n=78 v=0
1115 On ch=11 n=74 v=0
1118 On ch=11 n=83 v=0
1314 On ch=11 n=78 v=113
1316 On ch=11 n=74 v=114
1316 On ch=11 n=71 v=95
1347 On ch=11 n=74 v=0
1348 On ch=11 n=71 v=0
1351 On ch=11 n=78 v=0
1557 On ch=11 n=74 v=127
1558 On ch=11 n=79 v=127
1558 On ch=11 n=71 v=117
1592 On ch=11 n=74 v=0
1594 On ch=11 n=71 v=0
1598 On ch=11 n=79 v=0
1798 On ch=11 n=83 v=117
1798 On ch=11 n=74 v=114
1799 On ch=11 n=79 v=104
1802 On ch=11 n=77 v=94
1820 On ch=11 n=77 v=0
1824 On ch=11 n=74 v=0
1828 On ch=11 n=79 v=0
1836 On ch=11 n=83 v=0
2039 On ch=11 n=79 v=127
2039 On ch=11 n=81 v=122
2039 On ch=11 n=74 v=120
2070 On ch=11 n=74 v=0
2073 On ch=11 n=79 v=0
2076 On ch=11 n=81 v=0
2282 On ch=11 n=79 v=114
2282 On ch=11 n=81 v=117
2282 On ch=11 n=76 v=110
2309 On ch=11 n=76 v=0
2310 On ch=11 n=79 v=0
2315 On ch=11 n=81 v=0
2517 On ch=11 n=81 v=112
2517 On ch=11 n=78 v=127
2517 On ch=11 n=74 v=106
2542 On ch=11 n=74 v=0
2549 On ch=11 n=78 v=0
2554 On ch=11 n=81 v=0
2757 On ch=11 n=81 v=122
2758 On ch=11 n=78 v=127
2758 On ch=11 n=74 v=104
2780 On ch=11 n=74 v=0
2782 On ch=11 n=78 v=0
2792 On ch=11 n=81 v=0
2998 On ch=11 n=83 v=117
2998 On ch=11 n=78 v=127
2999 On ch=11 n=74 v=112
3026 On ch=11 n=74 v=0
3029 On ch=11 n=78 v=0
3036 On ch=11 n=83 v=0
3235 On ch=11 n=78 v=127
3235 On ch=11 n=74 v=127
3235 On ch=11 n=71 v=114
3263 On ch=11 n=71 v=0
3265 On ch=11 n=74 v=0
3272 On ch=11 n=78 v=0
3483 On ch=11 n=74 v=125
3483 On ch=11 n=79 v=114
3484 On ch=11 n=71 v=104
3508 On ch=11 n=71 v=0
3509 On ch=11 n=74 v=0
3519 On ch=11 n=79 v=0
3711 On ch=11 n=71 v=108
3712 On ch=11 n=79 v=114
3712 On ch=11 n=74 v=127
3739 On ch=11 n=74 v=0
3741 On ch=11 n=71 v=0
3746 On ch=11 n=79 v=0
3836 On ch=11 n=76 v=125
3837 On ch=11 n=79 v=127
3837 On ch=11 n=81 v=127
3880 On ch=11 n=79 v=0
3881 On ch=11 n=76 v=0
3884 On ch=11 n=81 v=0
4320 On ch=11 n=74 v=100
4320 On ch=11 n=81 v=108
4320 On ch=11 n=78 v=123
4340 On ch=11 n=78 v=0
4341 On ch=11 n=74 v=0
4344 On ch=11 n=81 v=0
4376 On ch=11 n=81 v=92
4378 On ch=11 n=78 v=101
4380 On ch=11 n=74 v=80
4398 On ch=11 n=74 v=0
4398 On ch=11 n=78 v=0
4403 On ch=11 n=81 v=0
4440 On ch=11 n=78 v=110
4441 On ch=11 n=81 v=97
4442 On ch=11 n=74 v=92
4461 On ch=11 n=74 v=0
4461 On ch=11 n=78 v=0
4465 On ch=11 n=81 v=0
4500 On ch=11 n=78 v=116
4500 On ch=11 n=81 v=100
4501 On ch=11 n=74 v=98
4521 On ch=11 n=78 v=0
4522 On ch=11 n=74 v=0
4527 On ch=11 n=81 v=0
4560 On ch=11 n=81 v=94
4561 On ch=11 n=78 v=110
4561 On ch=11 n=74 v=95
4580 On ch=11 n=78 v=0
4581 On ch=11 n=74 v=0
4583 On ch=11 n=81 v=0
4620 On ch=11 n=81 v=88
4622 On ch=11 n=78 v=104
4623 On ch=11 n=74 v=90
4640 On ch=11 n=74 v=0
4640 On ch=11 n=78 v=0
4645 On ch=11 n=81 v=0
4682 On ch=11 n=81 v=95
4682 On ch=11 n=78 v=110
4684 On ch=11 n=74 v=97
4701 On ch=11 n=74 v=0
4701 On ch=11 n=78 v=0
4709 On ch=11 n=81 v=0
4737 On ch=11 n=81 v=104
4740 On ch=11 n=78 v=107
4742 On ch=11 n=74 v=98
4757 On ch=11 n=78 v=0
4758 On ch=11 n=74 v=0
4768 On ch=11 n=81 v=0
4798 On ch=11 n=71 v=90
4799 On ch=11 n=78 v=110
4800 On ch=11 n=74 v=95
4820 On ch=11 n=74 v=0
4823 On ch=11 n=78 v=0
4823 On ch=11 n=71 v=0
4859 On ch=11 n=78 v=107
4862 On ch=11 n=71 v=92
4862 On ch=11 n=74 v=90
4882 On ch=11 n=74 v=0
4883 On ch=11 n=78 v=0
4887 On ch=11 n=71 v=0
4921 On ch=11 n=71 v=100
4922 On ch=11 n=78 v=104
4922 On ch=11 n=74 v=92
4943 On ch=11 n=78 v=0
4944 On ch=11 n=74 v=0
4945 On ch=11 n=71 v=0
4979 On ch=11 n=71 v=100
4981 On ch=11 n=78 v=110
4983 On ch=11 n=74 v=92
5002 On ch=11 n=74 v=0
5002 On ch=11 n=71 v=0
5003 On ch=11 n=78 v=0
5040 On ch=11 n=71 v=100
5042 On ch=11 n=78 v=107
5044 On ch=11 n=74 v=94
5063 On ch=11 n=71 v=0
5064 On ch=11 n=74 v=0
5064 On ch=11 n=78 v=0
5098 On ch=11 n=71 v=97
5102 On ch=11 n=78 v=101
5105 On ch=11 n=74 v=81
5122 On ch=11 n=74 v=0
5122 On ch=11 n=71 v=0
5124 On ch=11 n=78 v=0
5162 On ch=11 n=71 v=104
5165 On ch=11 n=78 v=101
5169 On ch=11 n=74 v=80
5187 On ch=11 n=74 v=0
5187 On ch=11 n=71 v=0
5189 On ch=11 n=78 v=0
5225 On ch=11 n=71 v=104
5226 On ch=11 n=78 v=99
5228 On ch=11 n=74 v=87
5247 On ch=11 n=74 v=0
5247 On ch=11 n=78 v=0
5249 On ch=11 n=71 v=0
5286 On ch=11 n=71 v=112
5287 On ch=11 n=74 v=102
5287 On ch=11 n=79 v=108
5308 On ch=11 n=74 v=0
5309 On ch=11 n=71 v=0
5310 On ch=11 n=79 v=0
5337 On ch=11 n=71 v=98
5340 On ch=11 n=79 v=95
5342 On ch=11 n=74 v=85
5361 On ch=11 n=71 v=0
5363 On ch=11 n=74 v=0
5366 On ch=11 n=79 v=0
5400 On ch=11 n=71 v=104
5406 On ch=11 n=79 v=98
5407 On ch=11 n=74 v=94
5426 On ch=11 n=74 v=0
5426 On ch=11 n=71 v=0
5429 On ch=11 n=79 v=0
5462 On ch=11 n=71 v=106
5465 On ch=11 n=79 v=100
5467 On ch=11 n=74 v=97
5485 On ch=11 n=71 v=0
5487 On ch=11 n=74 v=0
5488 On ch=11 n=79 v=0
5520 On ch=11 n=71 v=100
5527 On ch=11 n=79 v=97
5528 On ch=11 n=74 v=90
5543 On ch=11 n=71 v=0
5546 On ch=11 n=74 v=0
5548 On ch=11 n=79 v=0
5576 On ch=11 n=71 v=97
5586 On ch=11 n=79 v=97
5587 On ch=11 n=74 v=91
5601 On ch=11 n=71 v=0
5606 On ch=11 n=74 v=0
5607 On ch=11 n=79 v=0
5640 On ch=11 n=71 v=106
5644 On ch=11 n=79 v=98
5645 On ch=11 n=74 v=92
5665 On ch=11 n=74 v=0
5665 On ch=11 n=71 v=0
5668 On ch=11 n=79 v=0
5702 On ch=11 n=71 v=112
5703 On ch=11 n=79 v=104
5705 On ch=11 n=74 v=102
5731 On ch=11 n=71 v=0
5732 On ch=11 n=74 v=0
5734 On ch=11 n=79 v=0
5760 On ch=11 n=79 v=110
5760 On ch=11 n=73 v=119
5760 On ch=11 n=76 v=108
5761 On ch=11 n=81 v=102
5786 On ch=11 n=76 v=0
5789 On ch=11 n=79 v=0
5790 On ch=11 n=73 v=0
5791 On ch=11 n=81 v=0
5820 On ch=11 n=81 v=87
5821 On ch=11 n=79 v=87
5822 On ch=11 n=73 v=95
5822 On ch=11 n=76 v=80
5842 On ch=11 n=76 v=0
5845 On ch=11 n=73 v=0
5845 On ch=11 n=79 v=0
5847 On ch=11 n=81 v=0
5882 On ch=11 n=81 v=86
5882 On ch=11 n=73 v=101
5882 On ch=11 n=79 v=90
5882 On ch=11 n=76 v=84
5903 On ch=11 n=76 v=0
5904 On ch=11 n=73 v=0
5905 On ch=11 n=79 v=0
5908 On ch=11 n=81 v=0
5941 On ch=11 n=81 v=95
5942 On ch=11 n=73 v=113
5942 On ch=11 n=79 v=106
5942 On ch=11 n=76 v=95
5963 On ch=11 n=73 v=0
5964 On ch=11 n=76 v=0
5967 On ch=11 n=79 v=0
5969 On ch=11 n=81 v=0
6000 On ch=11 n=73 v=104
6003 On ch=11 n=81 v=86
6003 On ch=11 n=79 v=88
6003 On ch=11 n=76 v=85
6021 On ch=11 n=73 v=0
6024 On ch=11 n=76 v=0
6025 On ch=11 n=79 v=0
6028 On ch=11 n=81 v=0
6058 On ch=11 n=73 v=104
6062 On ch=11 n=81 v=94
6063 On ch=11 n=79 v=100
6063 On ch=11 n=76 v=90
6080 On ch=11 n=73 v=0
6083 On ch=11 n=76 v=0
6086 On ch=11 n=79 v=0
6087 On ch=11 n=81 v=0
6120 On ch=11 n=73 v=107
6125 On ch=11 n=81 v=94
6125 On ch=11 n=79 v=98
6127 On ch=11 n=76 v=92
6142 On ch=11 n=73 v=0
6147 On ch=11 n=76 v=0
6148 On ch=11 n=79 v=0
6151 On ch=11 n=81 v=0
6180 On ch=11 n=81 v=94
6180 On ch=11 n=76 v=98
6180 On ch=11 n=79 v=104
6181 On ch=11 n=73 v=127
6205 On ch=11 n=76 v=0
6206 On ch=11 n=73 v=0
6206 On ch=11 n=79 v=0
6209 On ch=11 n=81 v=0
6241 On ch=11 n=78 v=113
6241 On ch=11 n=81 v=95
6242 On ch=11 n=74 v=91
6262 On ch=11 n=78 v=0
6264 On ch=11 n=74 v=0
6267 On ch=11 n=81 v=0
6300 On ch=11 n=81 v=87
6302 On ch=11 n=74 v=80
6302 On ch=11 n=78 v=91
6319 On ch=11 n=78 v=0
6321 On ch=11 n=74 v=0
6326 On ch=11 n=81 v=0
6357 On ch=11 n=81 v=91
6358 On ch=11 n=78 v=101
6358 On ch=11 n=74 v=83
6376 On ch=11 n=78 v=0
6377 On ch=11 n=74 v=0
6381 On ch=11 n=81 v=0
6417 On ch=11 n=81 v=90
6417 On ch=11 n=74 v=84
6418 On ch=11 n=78 v=104
6436 On ch=11 n=78 v=0
6438 On ch=11 n=74 v=0
6441 On ch=11 n=81 v=0
6475 On ch=11 n=81 v=90
6476 On ch=11 n=78 v=101
6477 On ch=11 n=74 v=87
6495 On ch=11 n=78 v=0
6497 On ch=11 n=74 v=0
6501 On ch=11 n=81 v=0
6535 On ch=11 n=81 v=85
6535 On ch=11 n=78 v=97
6537 On ch=11 n=74 v=83
6554 On ch=11 n=78 v=0
6555 On ch=11 n=74 v=0
6560 On ch=11 n=81 v=0
6597 On ch=11 n=81 v=88
6598 On ch=11 n=78 v=99
6599 On ch=11 n=74 v=86
6618 On ch=11 n=78 v=0
6619 On ch=11 n=74 v=0
6624 On ch=11 n=81 v=0
6655 On ch=11 n=81 v=83
6658 On ch=11 n=78 v=79
6658 On ch=11 n=74 v=78
6675 On ch=11 n=78 v=0
6678 On ch=11 n=74 v=0
6684 On ch=11 n=81 v=0
6708 On ch=11 n=71 v=91
6716 On ch=11 n=78 v=101
6716 On ch=11 n=74 v=88
6737 On ch=11 n=71 v=0
6739 On ch=11 n=74 v=0
6740 On ch=11 n=78 v=0
6775 On ch=11 n=71 v=85
6777 On ch=11 n=78 v=91
6780 On ch=11 n=74 v=73
6799 On ch=11 n=74 v=0
6803 On ch=11 n=78 v=0
6804 On ch=11 n=71 v=0
6835 On ch=11 n=78 v=85
6835 On ch=11 n=71 v=88
6837 On ch=11 n=74 v=74
6858 On ch=11 n=74 v=0
6859 On ch=11 n=71 v=0
6859 On ch=11 n=78 v=0
6896 On ch=11 n=71 v=94
6897 On ch=11 n=78 v=93
6899 On ch=11 n=74 v=78
6919 On ch=11 n=71 v=0
6920 On ch=11 n=74 v=0
6920 On ch=11 n=78 v=0
6957 On ch=11 n=71 v=92
6959 On ch=11 n=78 v=95
6961 On ch=11 n=74 v=80
6980 On ch=11 n=71 v=0
6981 On ch=11 n=74 v=0
6982 On ch=11 n=78 v=0
7015 On ch=11 n=71 v=97
7018 On ch=11 n=78 v=93
7020 On ch=11 n=74 v=80
7039 On ch=11 n=71 v=0
7040 On ch=11 n=78 v=0
7041 On ch=11 n=74 v=0
7077 On ch=11 n=71 v=95
7079 On ch=11 n=78 v=93
7080 On ch=11 n=74 v=77
7101 On ch=11 n=71 v=0
7102 On ch=11 n=74 v=0
7103 On ch=11 n=78 v=0
7135 On ch=11 n=71 v=94
7138 On ch=11 n=78 v=93
7141 On ch=11 n=74 v=81
7159 On ch=11 n=78 v=0
7160 On ch=11 n=71 v=0
7162 On ch=11 n=74 v=0
7196 On ch=11 n=71 v=100
7197 On ch=11 n=79 v=100
7198 On ch=11 n=74 v=83
7219 On ch=11 n=74 v=0
7219 On ch=11 n=71 v=0
7222 On ch=11 n=79 v=0
7260 On ch=11 n=74 v=77
7260 On ch=11 n=79 v=80
7261 On ch=11 n=71 v=98
7285 On ch=11 n=79 v=0
7285 On ch=11 n=74 v=0
7287 On ch=11 n=71 v=0
7320 On ch=11 n=79 v=87
7320 On ch=11 n=74 v=77
7324 On ch=11 n=71 v=100
7343 On ch=11 n=74 v=0
7345 On ch=11 n=79 v=0
7349 On ch=11 n=71 v=0
7381 On ch=11 n=79 v=94
7382 On ch=11 n=74 v=80
7382 On ch=11 n=71 v=98
7403 On ch=11 n=74 v=0
7406 On ch=11 n=79 v=0
7407 On ch=11 n=71 v=0
7440 On ch=11 n=71 v=95
7443 On ch=11 n=79 v=91
7444 On ch=11 n=74 v=80
7463 On ch=11 n=71 v=0
7465 On ch=11 n=74 v=0
7467 On ch=11 n=79 v=0
7500 On ch=11 n=71 v=102
7502 On ch=11 n=74 v=84
7503 On ch=11 n=79 v=95
7524 On ch=11 n=71 v=0
7525 On ch=11 n=74 v=0
7527 On ch=11 n=79 v=0
7562 On ch=11 n=71 v=102
7566 On ch=11 n=79 v=94
7567 On ch=11 n=74 v=85
7585 On ch=11 n=71 v=0
7587 On ch=11 n=74 v=0
7589 On ch=11 n=79 v=0
7623 On ch=11 n=71 v=117
7625 On ch=11 n=74 v=94
7625 On ch=11 n=79 v=98
7653 On ch=11 n=74 v=0
7654 On ch=11 n=79 v=0
7654 On ch=11 n=71 v=0
7680 On ch=11 n=81 v=90
7680 On ch=11 n=73 v=110
7680 On ch=11 n=79 v=92
7680 On ch=11 n=76 v=90
7698 On ch=11 n=76 v=0
7698 On ch=11 n=79 v=0
7699 On ch=11 n=73 v=0
7701 On ch=11 n=81 v=0
7736 On ch=11 n=81 v=90
7736 On ch=11 n=73 v=97
7736 On ch=11 n=76 v=80
7737 On ch=11 n=79 v=87
7756 On ch=11 n=76 v=0
7756 On ch=11 n=73 v=0
7758 On ch=11 n=79 v=0
7761 On ch=11 n=81 v=0
7795 On ch=11 n=73 v=95
7795 On ch=11 n=81 v=90
7796 On ch=11 n=79 v=90
7797 On ch=11 n=76 v=80
7814 On ch=11 n=73 v=0
7817 On ch=11 n=76 v=0
7818 On ch=11 n=79 v=0
7821 On ch=11 n=81 v=0
7851 On ch=11 n=73 v=101
7856 On ch=11 n=76 v=87
7856 On ch=11 n=81 v=92
7857 On ch=11 n=79 v=92
7870 On ch=11 n=73 v=0
7878 On ch=11 n=79 v=0
7879 On ch=11 n=76 v=0
7881 On ch=11 n=81 v=0
7913 On ch=11 n=73 v=99
7918 On ch=11 n=81 v=90
7919 On ch=11 n=79 v=95
7919 On ch=11 n=76 v=85
7932 On ch=11 n=73 v=0
7938 On ch=11 n=76 v=0
7938 On ch=11 n=79 v=0
7941 On ch=11 n=81 v=0
7973 On ch=11 n=73 v=110
7976 On ch=11 n=81 v=90
7977 On ch=11 n=79 v=91
7977 On ch=11 n=76 v=85
7999 On ch=11 n=76 v=0
8000 On ch=11 n=79 v=0
8001 On ch=11 n=73 v=0
8004 On ch=11 n=81 v=0
21241 On ch=11 n=78 v=127
21241 On ch=11 n=81 v=110
21242 On ch=11 n=74 v=102
21269 On ch=11 n=74 v=0
21277 On ch=11 n=78 v=0
21278 On ch=11 n=81 v=0
21477 On ch=11 n=78 v=127
21478 On ch=11 n=81 v=112
21478 On ch=11 n=74 v=106
21518 On ch=11 n=74 v=0
21518 On ch=11 n=78 v=0
21521 On ch=11 n=81 v=0
21721 On ch=11 n=83 v=108
21721 On ch=11 n=78 v=127
21721 On ch=11 n=74 v=106
21752 On ch=11 n=78 v=0
21755 On ch=11 n=74 v=0
21758 On ch=11 n=83 v=0
21954 On ch=11 n=78 v=113
21956 On ch=11 n=74 v=114
21956 On ch=11 n=71 v=95
21987 On ch=11 n=74 v=0
21988 On ch=11 n=71 v=0
21991 On ch=11 n=78 v=0
22197 On ch=11 n=74 v=127
22198 On ch=11 n=79 v=127
22198 On ch=11 n=71 v=117
22232 On ch=11 n=74 v=0
22234 On ch=11 n=71 v=0
22238 On ch=11 n=79 v=0
22438 On ch=11 n=83 v=117
22438 On ch=11 n=74 v=114
22439 On ch=11 n=79 v=104
22442 On ch=11 n=77 v=94
22460 On ch=11 n=77 v=0
22464 On ch=11 n=74 v=0
22468 On ch=11 n=79 v=0
22476 On ch=11 n=83 v=0
22679 On ch=11 n=79 v=127
22679 On ch=11 n=81 v=122
22679 On ch=11 n=74 v=120
22710 On ch=11 n=74 v=0
22713 On ch=11 n=79 v=0
22716 On ch=11 n=81 v=0
22922 On ch=11 n=79 v=114
22922 On ch=11 n=81 v=117
22922 On ch=11 n=76 v=110
22949 On ch=11 n=76 v=0
22950 On ch=11 n=79 v=0
22955 On ch=11 n=81 v=0
23157 On ch=11 n=81 v=112
23157 On ch=11 n=78 v=127
23157 On ch=11 n=74 v=106
23182 On ch=11 n=74 v=0
23189 On ch=11 n=78 v=0
23194 On ch=11 n=81 v=0
23397 On ch=11 n=81 v=122
23398 On ch=11 n=78 v=127
23398 On ch=11 n=74 v=104
23420 On ch=11 n=74 v=0
23422 On ch=11 n=78 v=0
23432 On ch=11 n=81 v=0
23638 On ch=11 n=83 v=117
23638 On ch=11 n=78 v=127
23639 On ch=11 n=74 v=112
23666 On ch=11 n=74 v=0
23669 On ch=11 n=78 v=0
23676 On ch=11 n=83 v=0
23875 On ch=11 n=78 v=127
23875 On ch=11 n=74 v=127
23875 On ch=11 n=71 v=114
23903 On ch=11 n=71 v=0
23905 On ch=11 n=74 v=0
23912 On ch=11 n=78 v=0
24123 On ch=11 n=74 v=125
24123 On ch=11 n=79 v=114
24124 On ch=11 n=71 v=104
24148 On ch=11 n=71 v=0
24149 On ch=11 n=74 v=0
24159 On ch=11 n=79 v=0
24351 On ch=11 n=71 v=108
24352 On ch=11 n=79 v=114
24352 On ch=11 n=74 v=127
24379 On ch=11 n=74 v=0
24381 On ch=11 n=71 v=0
24386 On ch=11 n=79 v=0
24476 On ch=11 n=76 v=125
24477 On ch=11 n=79 v=127
24477 On ch=11 n=81 v=127
24520 On ch=11 n=79 v=0
24521 On ch=11 n=76 v=0
24524 On ch=11 n=81 v=0
24960 On ch=11 n=74 v=100
24960 On ch=11 n=81 v=108
24960 On ch=11 n=78 v=123
24980 On ch=11 n=78 v=0
24981 On ch=11 n=74 v=0
24984 On ch=11 n=81 v=0
25016 On ch=11 n=81 v=92
25018 On ch=11 n=78 v=101
25020 On ch=11 n=74 v=80
25038 On ch=11 n=74 v=0
25038 On ch=11 n=78 v=0
25043 On ch=11 n=81 v=0
25080 On ch=11 n=78 v=110
25081 On ch=11 n=81 v=97
25082 On ch=11 n=74 v=92
25101 On ch=11 n=74 v=0
25101 On ch=11 n=78 v=0
25105 On ch=11 n=81 v=0
25140 On ch=11 n=78 v=116
25140 On ch=11 n=81 v=100
25141 On ch=11 n=74 v=98
25161 On ch=11 n=78 v=0
25162 On ch=11 n=74 v=0
25167 On ch=11 n=81 v=0
25200 On ch=11 n=81 v=94
25201 On ch=11 n=78 v=110
25201 On ch=11 n=74 v=95
25220 On ch=11 n=78 v=0
25221 On ch=11 n=74 v=0
25223 On ch=11 n=81 v=0
25260 On ch=11 n=81 v=88
25262 On ch=11 n=78 v=104
25263 On ch=11 n=74 v=90
25280 On ch=11 n=74 v=0
25280 On ch=11 n=78 v=0
25285 On ch=11 n=81 v=0
25322 On ch=11 n=81 v=95
25322 On ch=11 n=78 v=110
25324 On ch=11 n=74 v=97
25341 On ch=11 n=74 v=0
25341 On ch=11 n=78 v=0
25349 On ch=11 n=81 v=0
25377 On ch=11 n=81 v=104
25380 On ch=11 n=78 v=107
25382 On ch=11 n=74 v=98
25397 On ch=11 n=78 v=0
25398 On ch=11 n=74 v=0
25408 On ch=11 n=81 v=0
25438 On ch=11 n=71 v=90
25439 On ch=11 n=78 v=110
25440 On ch=11 n=74 v=95
25460 On ch=11 n=74 v=0
25463 On ch=11 n=78 v=0
25463 On ch=11 n=71 v=0
25499 On ch=11 n=78 v=107
25502 On ch=11 n=71 v=92
25502 On ch=11 n=74 v=90
25522 On ch=11 n=74 v=0
25523 On ch=11 n=78 v=0
25527 On ch=11 n=71 v=0
25561 On ch=11 n=71 v=100
25562 On ch=11 n=78 v=104
25562 On ch=11 n=74 v=92
25583 On ch=11 n=78 v=0
25584 On ch=11 n=74 v=0
25585 On ch=11 n=71 v=0
25619 On ch=11 n=71 v=100
25621 On ch=11 n=78 v=110
25623 On ch=11 n=74 v=92
25642 On ch=11 n=74 v=0
25642 On ch=11 n=71 v=0
25643 On ch=11 n=78 v=0
25680 On ch=11 n=71 v=100
25682 On ch=11 n=78 v=107
25684 On ch=11 n=74 v=94
25703 On ch=11 n=71 v=0
25704 On ch=11 n=74 v=0
25704 On ch=11 n=78 v=0
25738 On ch=11 n=71 v=97
25742 On ch=11 n=78 v=101
25745 On ch=11 n=74 v=81
25762 On ch=11 n=74 v=0
25762 On ch=11 n=71 v=0
25764 On ch=11 n=78 v=0
25802 On ch=11 n=71 v=104
25805 On ch=11 n=78 v=101
25809 On ch=11 n=74 v=80
25827 On ch=11 n=74 v=0
25827 On ch=11 n=71 v=0
25829 On ch=11 n=78 v=0
25865 On ch=11 n=71 v=104
25866 On ch=11 n=78 v=99
25868 On ch=11 n=74 v=87
25887 On ch=11 n=74 v=0
25887 On ch=11 n=78 v=0
25889 On ch=11 n=71 v=0
25926 On ch=11 n=71 v=112
25927 On ch=11 n=74 v=102
25927 On ch=11 n=79 v=108
25948 On ch=11 n=74 v=0
25949 On ch=11 n=71 v=0
25950 On ch=11 n=79 v=0
25977 On ch=11 n=71 v=98
25980 On ch=11 n=79 v=95
25982 On ch=11 n=74 v=85
26001 On ch=11 n=71 v=0
26003 On ch=11 n=74 v=0
26006 On ch=11 n=79 v=0
26040 On ch=11 n=71 v=104
26046 On ch=11 n=79 v=98
26047 On ch=11 n=74 v=94
26066 On ch=11 n=74 v=0
26066 On ch=11 n=71 v=0
26069 On ch=11 n=79 v=0
26102 On ch=11 n=71 v=106
26105 On ch=11 n=79 v=100
26107 On ch=11 n=74 v=97
26125 On ch=11 n=71 v=0
26127 On ch=11 n=74 v=0
26128 On ch=11 n=79 v=0
26160 On ch=11 n=71 v=100
26167 On ch=11 n=79 v=97
26168 On ch=11 n=74 v=90
26183 On ch=11 n=71 v=0
26186 On ch=11 n=74 v=0
26188 On ch=11 n=79 v=0
26216 On ch=11 n=71 v=97
26226 On ch=11 n=79 v=97
26227 On ch=11 n=74 v=91
26241 On ch=11 n=71 v=0
26246 On ch=11 n=74 v=0
26247 On ch=11 n=79 v=0
26280 On ch=11 n=71 v=106
26284 On ch=11 n=79 v=98
26285 On ch=11 n=74 v=92
26305 On ch=11 n=74 v=0
26305 On ch=11 n=71 v=0
26308 On ch=11 n=79 v=0
26342 On ch=11 n=71 v=112
26343 On ch=11 n=79 v=104
26345 On ch=11 n=74 v=102
26371 On ch=11 n=71 v=0
26372 On ch=11 n=74 v=0
26374 On ch=11 n=79 v=0
26400 On ch=11 n=79 v=110
26400 On ch=11 n=73 v=119
26400 On ch=11 n=76 v=108
26401 On ch=11 n=81 v=102
26426 On ch=11 n=76 v=0
26429 On ch=11 n=79 v=0
26430 On ch=11 n=73 v=0
26431 On ch=11 n=81 v=0
26460 On ch=11 n=81 v=87
26461 On ch=11 n=79 v=87
26462 On ch=11 n=73 v=95
26462 On ch=11 n=76 v=80
26482 On ch=11 n=76 v=0
26485 On ch=11 n=73 v=0
26485 On ch=11 n=79 v=0
26487 On ch=11 n=81 v=0
26522 On ch=11 n=81 v=86
26522 On ch=11 n=73 v=101
26522 On ch=11 n=79 v=90
26522 On ch=11 n=76 v=84
26543 On ch=11 n=76 v=0
26544 On ch=11 n=73 v=0
26545 On ch=11 n=79 v=0
26548 On ch=11 n=81 v=0
26581 On ch=11 n=81 v=95
26582 On ch=11 n=73 v=113
26582 On ch=11 n=79 v=106
26582 On ch=11 n=76 v=95
26603 On ch=11 n=73 v=0
26604 On ch=11 n=76 v=0
26607 On ch=11 n=79 v=0
26609 On ch=11 n=81 v=0
26640 On ch=11 n=73 v=104
26643 On ch=11 n=81 v=86
26643 On ch=11 n=79 v=88
26643 On ch=11 n=76 v=85
26661 On ch=11 n=73 v=0
26664 On ch=11 n=76 v=0
26665 On ch=11 n=79 v=0
26668 On ch=11 n=81 v=0
26698 On ch=11 n=73 v=104
26702 On ch=11 n=81 v=94
26703 On ch=11 n=79 v=100
26703 On ch=11 n=76 v=90
26720 On ch=11 n=73 v=0
26723 On ch=11 n=76 v=0
26726 On ch=11 n=79 v=0
26727 On ch=11 n=81 v=0
26760 On ch=11 n=73 v=107
26765 On ch=11 n=81 v=94
26765 On ch=11 n=79 v=98
26767 On ch=11 n=76 v=92
26782 On ch=11 n=73 v=0
26787 On ch=11 n=76 v=0
26788 On ch=11 n=79 v=0
26791 On ch=11 n=81 v=0
26820 On ch=11 n=81 v=94
26820 On ch=11 n=76 v=98
26820 On ch=11 n=79 v=104
26821 On ch=11 n=73 v=127
26845 On ch=11 n=76 v=0
26846 On ch=11 n=73 v=0
26846 On ch=11 n=79 v=0
26849 On ch=11 n=81 v=0
26881 On ch=11 n=78 v=113
26881 On ch=11 n=81 v=95
26882 On ch=11 n=74 v=91
26902 On ch=11 n=78 v=0
26904 On ch=11 n=74 v=0
26907 On ch=11 n=81 v=0
26940 On ch=11 n=81 v=87
26942 On ch=11 n=74 v=80
26942 On ch=11 n=78 v=91
26959 On ch=11 n=78 v=0
26961 On ch=11 n=74 v=0
26966 On ch=11 n=81 v=0
26997 On ch=11 n=81 v=91
26998 On ch=11 n=78 v=101
26998 On ch=11 n=74 v=83
27016 On ch=11 n=78 v=0
27017 On ch=11 n=74 v=0
27021 On ch=11 n=81 v=0
27057 On ch=11 n=81 v=90
27057 On ch=11 n=74 v=84
27058 On ch=11 n=78 v=104
27076 On ch=11 n=78 v=0
27078 On ch=11 n=74 v=0
27081 On ch=11 n=81 v=0
27115 On ch=11 n=81 v=90
27116 On ch=11 n=78 v=101
27117 On ch=11 n=74 v=87
27135 On ch=11 n=78 v=0
27137 On ch=11 n=74 v=0
27141 On ch=11 n=81 v=0
27175 On ch=11 n=81 v=85
27175 On ch=11 n=78 v=97
27177 On ch=11 n=74 v=83
27194 On ch=11 n=78 v=0
27195 On ch=11 n=74 v=0
27200 On ch=11 n=81 v=0
27237 On ch=11 n=81 v=88
27238 On ch=11 n=78 v=99
27239 On ch=11 n=74 v=86
27258 On ch=11 n=78 v=0
27259 On ch=11 n=74 v=0
27264 On ch=11 n=81 v=0
27295 On ch=11 n=81 v=83
27298 On ch=11 n=78 v=79
27298 On ch=11 n=74 v=78
27315 On ch=11 n=78 v=0
27318 On ch=11 n=74 v=0
27324 On ch=11 n=81 v=0
27348 On ch=11 n=71 v=91
27356 On ch=11 n=78 v=101
27356 On ch=11 n=74 v=88
27377 On ch=11 n=71 v=0
27379 On ch=11 n=74 v=0
27380 On ch=11 n=78 v=0
27415 On ch=11 n=71 v=85
27417 On ch=11 n=78 v=91
27420 On ch=11 n=74 v=73
27439 On ch=11 n=74 v=0
27443 On ch=11 n=78 v=0
27444 On ch=11 n=71 v=0
27475 On ch=11 n=78 v=85
27475 On ch=11 n=71 v=88
27477 On ch=11 n=74 v=74
27498 On ch=11 n=74 v=0
27499 On ch=11 n=71 v=0
27499 On ch=11 n=78 v=0
27536 On ch=11 n=71 v=94
27537 On ch=11 n=78 v=93
27539 On ch=11 n=74 v=78
27559 On ch=11 n=71 v=0
27560 On ch=11 n=74 v=0
27560 On ch=11 n=78 v=0
27597 On ch=11 n=71 v=92
27599 On ch=11 n=78 v=95
27601 On ch=11 n=74 v=80
27620 On ch=11 n=71 v=0
27621 On ch=11 n=74 v=0
27622 On ch=11 n=78 v=0
27655 On ch=11 n=71 v=97
27658 On ch=11 n=78 v=93
27660 On ch=11 n=74 v=80
27679 On ch=11 n=71 v=0
27680 On ch=11 n=78 v=0
27681 On ch=11 n=74 v=0
27717 On ch=11 n=71 v=95
27719 On ch=11 n=78 v=93
27720 On ch=11 n=74 v=77
27741 On ch=11 n=71 v=0
27742 On ch=11 n=74 v=0
27743 On ch=11 n=78 v=0
27775 On ch=11 n=71 v=94
27778 On ch=11 n=78 v=93
27781 On ch=11 n=74 v=81
27799 On ch=11 n=78 v=0
27800 On ch=11 n=71 v=0
27802 On ch=11 n=74 v=0
27836 On ch=11 n=71 v=100
27837 On ch=11 n=79 v=100
27838 On ch=11 n=74 v=83
27859 On ch=11 n=74 v=0
27859 On ch=11 n=71 v=0
27862 On ch=11 n=79 v=0
27900 On ch=11 n=74 v=77
27900 On ch=11 n=79 v=80
27901 On ch=11 n=71 v=98
27925 On ch=11 n=79 v=0
27925 On ch=11 n=74 v=0
27927 On ch=11 n=71 v=0
27960 On ch=11 n=79 v=87
27960 On ch=11 n=74 v=77
27964 On ch=11 n=71 v=100
27983 On ch=11 n=74 v=0
27985 On ch=11 n=79 v=0
27989 On ch=11 n=71 v=0
28021 On ch=11 n=79 v=94
28022 On ch=11 n=74 v=80
28022 On ch=11 n=71 v=98
28043 On ch=11 n=74 v=0
28046 On ch=11 n=79 v=0
28047 On ch=11 n=71 v=0
28080 On ch=11 n=71 v=95
28083 On ch=11 n=79 v=91
28084 On ch=11 n=74 v=80
28103 On ch=11 n=71 v=0
28105 On ch=11 n=74 v=0
28107 On ch=11 n=79 v=0
28140 On ch=11 n=71 v=102
28142 On ch=11 n=74 v=84
28143 On ch=11 n=79 v=95
28164 On ch=11 n=71 v=0
28165 On ch=11 n=74 v=0
28167 On ch=11 n=79 v=0
28202 On ch=11 n=71 v=102
28206 On ch=11 n=79 v=94
28207 On ch=11 n=74 v=85
28225 On ch=11 n=71 v=0
28227 On ch=11 n=74 v=0
28229 On ch=11 n=79 v=0
28263 On ch=11 n=71 v=117
28265 On ch=11 n=74 v=94
28265 On ch=11 n=79 v=98
28293 On ch=11 n=74 v=0
28294 On ch=11 n=79 v=0
28294 On ch=11 n=71 v=0
28320 On ch=11 n=81 v=90
28320 On ch=11 n=73 v=110
28320 On ch=11 n=79 v=92
28320 On ch=11 n=76 v=90
28338 On ch=11 n=76 v=0
28338 On ch=11 n=79 v=0
28339 On ch=11 n=73 v=0
28341 On ch=11 n=81 v=0
28376 On ch=11 n=81 v=90
28376 On ch=11 n=73 v=97
28376 On ch=11 n=76 v=80
28377 On ch=11 n=79 v=87
28396 On ch=11 n=76 v=0
28396 On ch=11 n=73 v=0
28398 On ch=11 n=79 v=0
28401 On ch=11 n=81 v=0
28435 On ch=11 n=73 v=95
28435 On ch=11 n=81 v=90
28436 On ch=11 n=79 v=90
28437 On ch=11 n=76 v=80
28454 On ch=11 n=73 v=0
28457 On ch=11 n=76 v=0
28458 On ch=11 n=79 v=0
28461 On ch=11 n=81 v=0
28491 On ch=11 n=73 v=101
28496 On ch=11 n=76 v=87
28496 On ch=11 n=81 v=92
28497 On ch=11 n=79 v=92
28510 On ch=11 n=73 v=0
28518 On ch=11 n=79 v=0
28519 On ch=11 n=76 v=0
28521 On ch=11 n=81 v=0
28553 On ch=11 n=73 v=99
28558 On ch=11 n=81 v=90
28559 On ch=11 n=79 v=95
28559 On ch=11 n=76 v=85
28572 On ch=11 n=73 v=0
28578 On ch=11 n=76 v=0
28578 On ch=11 n=79 v=0
28581 On ch=11 n=81 v=0
28613 On ch=11 n=73 v=110
28616 On ch=11 n=81 v=90
28617 On ch=11 n=79 v=91
28617 On ch=11 n=76 v=85
28639 On ch=11 n=76 v=0
28640 On ch=11 n=79 v=0
28641 On ch=11 n=73 v=0
28644 On ch=11 n=81 v=0
41881 On ch=11 n=80 v=127
41881 On ch=11 n=83 v=110
41882 On ch=11 n=76 v=102
41909 On ch=11 n=76 v=0
41917 On ch=11 n=80 v=0
41918 On ch=11 n=83 v=0
42117 On ch=11 n=80 v=127
42118 On ch=11 n=83 v=112
42118 On ch=11 n=76 v=106
42158 On ch=11 n=76 v=0
42158 On ch=11 n=80 v=0
42161 On ch=11 n=83 v=0
42361 On ch=11 n=85 v=108
42361 On ch=11 n=80 v=127
42361 On ch=11 n=76 v=106
42392 On ch=11 n=80 v=0
42395 On ch=11 n=76 v=0
42398 On ch=11 n=85 v=0
42594 On ch=11 n=80 v=113
42596 On ch=11 n=76 v=114
42596 On ch=11 n=73 v=95
42627 On ch=11 n=76 v=0
42628 On ch=11 n=73 v=0
42631 On ch=11 n=80 v=0
42837 On ch=11 n=76 v=127
42838 On ch=11 n=81 v=127
42838 On ch=11 n=73 v=117
42872 On ch=11 n=76 v=0
42874 On ch=11 n=73 v=0
42878 On ch=11 n=81 v=0
43078 On ch=11 n=85 v=117
43078 On ch=11 n=76 v=114
43079 On ch=11 n=81 v=104
43082 On ch=11 n=79 v=94
43100 On ch=11 n=79 v=0
43104 On ch=11 n=76 v=0
43108 On ch=11 n=81 v=0
43116 On ch=11 n=85 v=0
43319 On ch=11 n=81 v=127
43319 On ch=11 n=83 v=122
43319 On ch=11 n=76 v=120
43350 On ch=11 n=76 v=0
43353 On ch=11 n=81 v=0
43356 On ch=11 n=83 v=0
43562 On ch=11 n=81 v=114
43562 On ch=11 n=83 v=117
43562 On ch=11 n=78 v=110
43589 On ch=11 n=78 v=0
43590 On ch=11 n=81 v=0
43595 On ch=11 n=83 v=0
43797 On ch=11 n=83 v=112
43797 On ch=11 n=80 v=127
43797 On ch=11 n=76 v=106
43822 On ch=11 n=76 v=0
43829 On ch=11 n=80 v=0
43834 On ch=11 n=83 v=0
44037 On ch=11 n=83 v=122
44038 On ch=11 n=80 v=127
44038 On ch=11 n=76 v=104
44060 On ch=11 n=76 v=0
44062 On ch=11 n=80 v=0
44072 On ch=11 n=83 v=0
44278 On ch=11 n=85 v=117
44278 On ch=11 n=80 v=127
44279 On ch=11 n=76 v=112
44306 On ch=11 n=76 v=0
44309 On ch=11 n=80 v=0
44316 On ch=11 n=85 v=0
44515 On ch=11 n=80 v=127
44515 On ch=11 n=76 v=127
44515 On ch=11 n=73 v=114
44543 On ch=11 n=73 v=0
44545 On ch=11 n=76 v=0
44552 On ch=11 n=80 v=0
44763 On ch=11 n=76 v=125
44763 On ch=11 n=81 v=114
44764 On ch=11 n=73 v=104
44788 On ch=11 n=73 v=0
44789 On ch=11 n=76 v=0
44799 On ch=11 n=81 v=0
44991 On ch=11 n=73 v=108
44992 On ch=11 n=81 v=114
44992 On ch=11 n=76 v=127
45019 On ch=11 n=76 v=0
45021 On ch=11 n=73 v=0
45026 On ch=11 n=81 v=0
45116 On ch=11 n=78 v=125
45117 On ch=11 n=81 v=127
45117 On ch=11 n=83 v=127
45160 On ch=11 n=81 v=0
45161 On ch=11 n=78 v=0
45164 On ch=11 n=83 v=0
45164 Meta TrkEnd
TrkEnd
MTrk
0 Meta 0x21 00
0 PrCh ch=12 p=27
0 Par ch=12 c=7 v=127
0 Par ch=12 c=10 v=54
0 Par ch=12 c=91 v=86
0 Par ch=12 c=93 v=72
4436 On ch=12 n=62 v=110
4436 On ch=12 n=54 v=84
4439 On ch=12 n=57 v=70
4450 On ch=12 n=62 v=0
4451 On ch=12 n=57 v=0
4452 On ch=12 n=54 v=0
4674 On ch=12 n=62 v=110
4675 On ch=12 n=54 v=82
4679 On ch=12 n=57 v=73
4685 On ch=12 n=62 v=0
4689 On ch=12 n=57 v=0
4689 On ch=12 n=54 v=0
4914 On ch=12 n=62 v=102
4914 On ch=12 n=54 v=91
4918 On ch=12 n=59 v=80
4926 On ch=12 n=62 v=0
4931 On ch=12 n=54 v=0
4934 On ch=12 n=59 v=0
5150 On ch=12 n=62 v=102
5152 On ch=12 n=54 v=89
5153 On ch=12 n=59 v=81
5165 On ch=12 n=62 v=0
5171 On ch=12 n=59 v=0
5172 On ch=12 n=54 v=0
5398 On ch=12 n=62 v=104
5403 On ch=12 n=59 v=73
5403 On ch=12 n=55 v=84
5415 On ch=12 n=62 v=0
5418 On ch=12 n=55 v=0
5418 On ch=12 n=59 v=0
5633 On ch=12 n=67 v=84
5635 On ch=12 n=62 v=81
5635 On ch=12 n=55 v=85
5635 On ch=12 n=59 v=76
5646 On ch=12 n=62 v=0
5649 On ch=12 n=67 v=0
5653 On ch=12 n=55 v=0
5653 On ch=12 n=59 v=0
5877 On ch=12 n=64 v=94
5877 On ch=12 n=61 v=110
5879 On ch=12 n=57 v=94
5890 On ch=12 n=61 v=0
5891 On ch=12 n=64 v=0
5896 On ch=12 n=57 v=0
6118 On ch=12 n=61 v=99
6119 On ch=12 n=64 v=91
6121 On ch=12 n=57 v=94
6132 On ch=12 n=61 v=0
6134 On ch=12 n=64 v=0
6145 On ch=12 n=57 v=0
6354 On ch=12 n=62 v=104
6361 On ch=12 n=54 v=71
6361 On ch=12 n=57 v=72
6367 On ch=12 n=62 v=0
6372 On ch=12 n=57 v=0
6375 On ch=12 n=54 v=0
6588 On ch=12 n=62 v=95
6591 On ch=12 n=57 v=81
6591 On ch=12 n=54 v=87
6607 On ch=12 n=62 v=0
6609 On ch=12 n=54 v=0
6609 On ch=12 n=57 v=0
6837 On ch=12 n=62 v=94
6843 On ch=12 n=54 v=74
6844 On ch=12 n=59 v=73
6854 On ch=12 n=62 v=0
6865 On ch=12 n=59 v=0
6865 On ch=12 n=54 v=0
7071 On ch=12 n=59 v=74
7073 On ch=12 n=54 v=79
7073 On ch=12 n=62 v=95
7091 On ch=12 n=62 v=0
7092 On ch=12 n=59 v=0
7093 On ch=12 n=54 v=0
7314 On ch=12 n=62 v=95
7314 On ch=12 n=55 v=85
7316 On ch=12 n=59 v=70
7331 On ch=12 n=59 v=0
7331 On ch=12 n=62 v=0
7336 On ch=12 n=55 v=0
7555 On ch=12 n=62 v=81
7555 On ch=12 n=55 v=83
7555 On ch=12 n=67 v=80
7557 On ch=12 n=59 v=71
7570 On ch=12 n=62 v=0
7571 On ch=12 n=67 v=0
7572 On ch=12 n=59 v=0
7576 On ch=12 n=55 v=0
7798 On ch=12 n=64 v=86
7800 On ch=12 n=61 v=77
7802 On ch=12 n=57 v=79
7807 On ch=12 n=61 v=0
7811 On ch=12 n=64 v=0
7816 On ch=12 n=57 v=0
8833 On ch=12 n=69 v=112
8954 On ch=12 n=62 v=95
9114 On ch=12 n=69 v=0
9117 On ch=12 n=62 v=0
9790 On ch=12 n=69 v=115
9909 On ch=12 n=64 v=97
9995 On ch=12 n=69 v=0
10091 On ch=12 n=64 v=0
10263 On ch=12 n=67 v=78
10265 On ch=12 n=62 v=81
10265 On ch=12 n=71 v=78
10274 On ch=12 n=71 v=0
10274 On ch=12 n=67 v=0
10286 On ch=12 n=62 v=0
10738 On ch=12 n=71 v=92
10740 On ch=12 n=67 v=74
10740 On ch=12 n=62 v=84
10751 On ch=12 n=67 v=0
10756 On ch=12 n=71 v=0
10762 On ch=12 n=62 v=0
11219 On ch=12 n=62 v=83
11219 On ch=12 n=67 v=86
11228 On ch=12 n=67 v=0
11244 On ch=12 n=62 v=0
11704 On ch=12 n=69 v=106
11706 On ch=12 n=64 v=80
11709 On ch=12 n=61 v=87
11718 On ch=12 n=64 v=0
11721 On ch=12 n=69 v=0
11727 On ch=12 n=61 v=0
12174 On ch=12 n=61 v=104
12177 On ch=12 n=69 v=100
12178 On ch=12 n=64 v=73
12192 On ch=12 n=64 v=0
12195 On ch=12 n=69 v=0
12198 On ch=12 n=61 v=0
12544 On ch=12 n=66 v=78
12547 On ch=12 n=62 v=74
12550 On ch=12 n=69 v=77
12565 On ch=12 n=69 v=0
12573 On ch=12 n=62 v=0
12573 On ch=12 n=66 v=0
13023 On ch=12 n=66 v=71
13024 On ch=12 n=69 v=79
13026 On ch=12 n=62 v=73
13041 On ch=12 n=69 v=0
13047 On ch=12 n=66 v=0
13049 On ch=12 n=62 v=0
13502 On ch=12 n=61 v=77
13504 On ch=12 n=66 v=77
13505 On ch=12 n=69 v=68
13518 On ch=12 n=69 v=0
13520 On ch=12 n=66 v=0
13526 On ch=12 n=61 v=0
13987 On ch=12 n=69 v=77
13988 On ch=12 n=61 v=81
13988 On ch=12 n=66 v=81
14001 On ch=12 n=69 v=0
14008 On ch=12 n=66 v=0
14010 On ch=12 n=61 v=0
14461 On ch=12 n=67 v=92
14461 On ch=12 n=71 v=87
14465 On ch=12 n=62 v=74
14479 On ch=12 n=67 v=0
14480 On ch=12 n=71 v=0
14488 On ch=12 n=62 v=0
14586 On ch=12 n=71 v=80
14587 On ch=12 n=62 v=79
14588 On ch=12 n=67 v=68
14597 On ch=12 n=67 v=0
14599 On ch=12 n=71 v=0
14607 On ch=12 n=62 v=0
14708 On ch=12 n=67 v=90
14708 On ch=12 n=71 v=83
14714 On ch=12 n=62 v=68
14725 On ch=12 n=67 v=0
14727 On ch=12 n=71 v=0
14734 On ch=12 n=62 v=0
14826 On ch=12 n=62 v=81
14826 On ch=12 n=71 v=85
14827 On ch=12 n=67 v=88
14842 On ch=12 n=67 v=0
14846 On ch=12 n=71 v=0
14847 On ch=12 n=62 v=0
14948 On ch=12 n=61 v=79
14950 On ch=12 n=64 v=87
14951 On ch=12 n=69 v=90
14967 On ch=12 n=69 v=0
14967 On ch=12 n=61 v=0
14969 On ch=12 n=64 v=0
15071 On ch=12 n=61 v=79
15072 On ch=12 n=69 v=80
15077 On ch=12 n=64 v=69
15084 On ch=12 n=69 v=0
15087 On ch=12 n=64 v=0
15089 On ch=12 n=61 v=0
15189 On ch=12 n=61 v=72
15192 On ch=12 n=64 v=80
15193 On ch=12 n=69 v=87
15207 On ch=12 n=61 v=0
15210 On ch=12 n=64 v=0
15212 On ch=12 n=69 v=0
15308 On ch=12 n=61 v=82
15309 On ch=12 n=64 v=80
15310 On ch=12 n=69 v=87
15328 On ch=12 n=69 v=0
15328 On ch=12 n=64 v=0
15328 On ch=12 n=61 v=0
15434 On ch=12 n=71 v=81
15435 On ch=12 n=67 v=85
15435 On ch=12 n=62 v=78
15450 On ch=12 n=71 v=0
15451 On ch=12 n=62 v=0
15452 On ch=12 n=67 v=0
15549 On ch=12 n=67 v=88
15550 On ch=12 n=71 v=85
15552 On ch=12 n=62 v=80
15569 On ch=12 n=71 v=0
15571 On ch=12 n=67 v=0
15573 On ch=12 n=62 v=0
15667 On ch=12 n=67 v=88
15669 On ch=12 n=71 v=80
15672 On ch=12 n=62 v=80
15682 On ch=12 n=71 v=0
15687 On ch=12 n=67 v=0
15694 On ch=12 n=62 v=0
15780 On ch=12 n=67 v=87
15781 On ch=12 n=71 v=86
15782 On ch=12 n=62 v=95
15801 On ch=12 n=67 v=0
15802 On ch=12 n=71 v=0
15806 On ch=12 n=62 v=0
15905 On ch=12 n=61 v=71
15908 On ch=12 n=64 v=81
15911 On ch=12 n=69 v=90
15928 On ch=12 n=69 v=0
15928 On ch=12 n=61 v=0
15930 On ch=12 n=64 v=0
16031 On ch=12 n=61 v=89
16031 On ch=12 n=69 v=95
16034 On ch=12 n=64 v=68
16048 On ch=12 n=64 v=0
16050 On ch=12 n=69 v=0
16050 On ch=12 n=61 v=0
16151 On ch=12 n=61 v=84
16151 On ch=12 n=64 v=72
16253 On ch=12 n=61 v=0
16253 On ch=12 n=61 v=84
16255 On ch=12 n=69 v=92
16256 On ch=12 n=64 v=0
16256 On ch=12 n=64 v=81
16275 On ch=12 n=69 v=0
16275 On ch=12 n=61 v=0
16276 On ch=12 n=64 v=0
16377 On ch=12 n=62 v=85
16381 On ch=12 n=69 v=81
16391 On ch=12 n=69 v=0
16396 On ch=12 n=62 v=0
16620 On ch=12 n=62 v=73
16621 On ch=12 n=69 v=84
16637 On ch=12 n=62 v=0
16638 On ch=12 n=69 v=0
16863 On ch=12 n=66 v=67
16864 On ch=12 n=69 v=73
16867 On ch=12 n=62 v=80
16875 On ch=12 n=69 v=0
16875 On ch=12 n=66 v=0
16883 On ch=12 n=62 v=0
17108 On ch=12 n=62 v=84
17122 On ch=12 n=62 v=0
17343 On ch=12 n=61 v=97
17345 On ch=12 n=66 v=67
17347 On ch=12 n=69 v=66
17357 On ch=12 n=66 v=0
17359 On ch=12 n=69 v=0
17365 On ch=12 n=61 v=0
17586 On ch=12 n=69 v=81
17587 On ch=12 n=66 v=79
17589 On ch=12 n=61 v=99
17594 On ch=12 n=66 v=0
17599 On ch=12 n=69 v=0
17607 On ch=12 n=61 v=0
18059 On ch=12 n=61 v=87
18061 On ch=12 n=66 v=67
18066 On ch=12 n=66 v=0
18068 On ch=12 n=61 v=0
18307 On ch=12 n=71 v=91
18307 On ch=12 n=67 v=80
18309 On ch=12 n=62 v=88
18320 On ch=12 n=67 v=0
18325 On ch=12 n=71 v=0
18331 On ch=12 n=62 v=0
18428 On ch=12 n=62 v=84
18428 On ch=12 n=67 v=90
18429 On ch=12 n=71 v=80
18445 On ch=12 n=67 v=0
18446 On ch=12 n=71 v=0
18450 On ch=12 n=62 v=0
18546 On ch=12 n=62 v=79
18547 On ch=12 n=67 v=91
18549 On ch=12 n=71 v=80
18567 On ch=12 n=71 v=0
18568 On ch=12 n=67 v=0
18570 On ch=12 n=62 v=0
18664 On ch=12 n=62 v=81
18665 On ch=12 n=71 v=92
18665 On ch=12 n=67 v=86
18680 On ch=12 n=67 v=0
18685 On ch=12 n=71 v=0
18688 On ch=12 n=62 v=0
18787 On ch=12 n=61 v=79
18788 On ch=12 n=69 v=94
18791 On ch=12 n=64 v=70
18806 On ch=12 n=64 v=0
18806 On ch=12 n=69 v=0
18807 On ch=12 n=61 v=0
18909 On ch=12 n=61 v=79
18910 On ch=12 n=64 v=77
18912 On ch=12 n=69 v=95
18931 On ch=12 n=69 v=0
18931 On ch=12 n=64 v=0
18931 On ch=12 n=61 v=0
19026 On ch=12 n=69 v=94
19027 On ch=12 n=61 v=79
19028 On ch=12 n=64 v=77
19046 On ch=12 n=69 v=0
19049 On ch=12 n=64 v=0
19051 On ch=12 n=61 v=0
19140 On ch=12 n=61 v=93
19142 On ch=12 n=69 v=95
19144 On ch=12 n=64 v=73
19163 On ch=12 n=64 v=0
19163 On ch=12 n=69 v=0
19164 On ch=12 n=61 v=0
19267 On ch=12 n=62 v=75
19267 On ch=12 n=67 v=86
19268 On ch=12 n=71 v=85
19286 On ch=12 n=71 v=0
19287 On ch=12 n=62 v=0
19288 On ch=12 n=67 v=0
19380 On ch=12 n=62 v=83
19381 On ch=12 n=67 v=90
19383 On ch=12 n=71 v=85
19404 On ch=12 n=67 v=0
19404 On ch=12 n=62 v=0
19405 On ch=12 n=71 v=0
19507 On ch=12 n=62 v=87
19509 On ch=12 n=67 v=88
19510 On ch=12 n=71 v=80
19528 On ch=12 n=71 v=0
19530 On ch=12 n=67 v=0
19533 On ch=12 n=62 v=0
19616 On ch=12 n=62 v=90
19619 On ch=12 n=67 v=91
19620 On ch=12 n=71 v=88
19641 On ch=12 n=67 v=0
19645 On ch=12 n=62 v=0
19647 On ch=12 n=71 v=0
19738 On ch=12 n=61 v=82
19741 On ch=12 n=64 v=76
19742 On ch=12 n=69 v=94
19763 On ch=12 n=69 v=0
19763 On ch=12 n=64 v=0
19766 On ch=12 n=61 v=0
19863 On ch=12 n=61 v=77
19864 On ch=12 n=69 v=92
19865 On ch=12 n=64 v=80
19887 On ch=12 n=69 v=0
19888 On ch=12 n=64 v=0
19889 On ch=12 n=61 v=0
19989 On ch=12 n=64 v=69
19990 On ch=12 n=61 v=68
19990 On ch=12 n=69 v=90
20009 On ch=12 n=64 v=0
20013 On ch=12 n=69 v=0
20014 On ch=12 n=61 v=0
20095 On ch=12 n=61 v=89
20098 On ch=12 n=64 v=73
20101 On ch=12 n=69 v=85
20115 On ch=12 n=64 v=0
20118 On ch=12 n=69 v=0
20118 On ch=12 n=61 v=0
25077 On ch=12 n=62 v=108
25078 On ch=12 n=57 v=98
25093 On ch=12 n=62 v=0
25103 On ch=12 n=57 v=0
25314 On ch=12 n=62 v=91
25318 On ch=12 n=57 v=80
25327 On ch=12 n=62 v=0
25333 On ch=12 n=57 v=0
25557 On ch=12 n=59 v=102
25559 On ch=12 n=54 v=82
25575 On ch=12 n=59 v=0
25578 On ch=12 n=54 v=0
25794 On ch=12 n=59 v=100
25795 On ch=12 n=54 v=85
25816 On ch=12 n=59 v=0
25819 On ch=12 n=54 v=0
26034 On ch=12 n=62 v=98
26037 On ch=12 n=55 v=81
26053 On ch=12 n=62 v=0
26061 On ch=12 n=55 v=0
26270 On ch=12 n=62 v=94
26271 On ch=12 n=59 v=80
26274 On ch=12 n=55 v=71
26289 On ch=12 n=62 v=0
26292 On ch=12 n=55 v=0
26295 On ch=12 n=59 v=0
26516 On ch=12 n=64 v=88
26516 On ch=12 n=61 v=89
26518 On ch=12 n=57 v=80
26529 On ch=12 n=61 v=0
26532 On ch=12 n=64 v=0
26539 On ch=12 n=57 v=0
26753 On ch=12 n=61 v=89
26756 On ch=12 n=64 v=68
26756 On ch=12 n=57 v=90
26769 On ch=12 n=64 v=0
26769 On ch=12 n=61 v=0
26782 On ch=12 n=57 v=0
26993 On ch=12 n=62 v=90
26994 On ch=12 n=57 v=91
27008 On ch=12 n=62 v=0
27020 On ch=12 n=57 v=0
27232 On ch=12 n=62 v=86
27233 On ch=12 n=57 v=81
27247 On ch=12 n=62 v=0
27257 On ch=12 n=57 v=0
27472 On ch=12 n=59 v=94
27473 On ch=12 n=54 v=89
27490 On ch=12 n=59 v=0
27495 On ch=12 n=54 v=0
27708 On ch=12 n=59 v=91
27710 On ch=12 n=54 v=87
27730 On ch=12 n=59 v=0
27737 On ch=12 n=54 v=0
27955 On ch=12 n=67 v=91
27956 On ch=12 n=59 v=79
27974 On ch=12 n=67 v=0
27977 On ch=12 n=59 v=0
28193 On ch=12 n=67 v=97
28195 On ch=12 n=59 v=84
28216 On ch=12 n=67 v=0
28220 On ch=12 n=59 v=0
28438 On ch=12 n=64 v=76
28441 On ch=12 n=57 v=70
28453 On ch=12 n=64 v=0
28457 On ch=12 n=57 v=0
29473 On ch=12 n=69 v=111
29594 On ch=12 n=62 v=90
29754 On ch=12 n=69 v=0
29757 On ch=12 n=62 v=0
30430 On ch=12 n=69 v=112
30549 On ch=12 n=64 v=94
30635 On ch=12 n=69 v=0
30731 On ch=12 n=64 v=0
30903 On ch=12 n=67 v=78
30905 On ch=12 n=62 v=81
30905 On ch=12 n=71 v=78
30914 On ch=12 n=71 v=0
30914 On ch=12 n=67 v=0
30926 On ch=12 n=62 v=0
31378 On ch=12 n=71 v=92
31380 On ch=12 n=67 v=74
31380 On ch=12 n=62 v=84
31391 On ch=12 n=67 v=0
31396 On ch=12 n=71 v=0
31402 On ch=12 n=62 v=0
31859 On ch=12 n=62 v=83
31859 On ch=12 n=67 v=86
31868 On ch=12 n=67 v=0
31884 On ch=12 n=62 v=0
32344 On ch=12 n=69 v=106
32346 On ch=12 n=64 v=80
32349 On ch=12 n=61 v=87
32358 On ch=12 n=64 v=0
32361 On ch=12 n=69 v=0
32367 On ch=12 n=61 v=0
32814 On ch=12 n=61 v=104
32817 On ch=12 n=69 v=100
32818 On ch=12 n=64 v=73
32832 On ch=12 n=64 v=0
32835 On ch=12 n=69 v=0
32838 On ch=12 n=61 v=0
33184 On ch=12 n=66 v=78
33187 On ch=12 n=62 v=74
33190 On ch=12 n=69 v=77
33205 On ch=12 n=69 v=0
33213 On ch=12 n=62 v=0
33213 On ch=12 n=66 v=0
33663 On ch=12 n=66 v=71
33664 On ch=12 n=69 v=79
33666 On ch=12 n=62 v=73
33681 On ch=12 n=69 v=0
33687 On ch=12 n=66 v=0
33689 On ch=12 n=62 v=0
34142 On ch=12 n=61 v=77
34144 On ch=12 n=66 v=77
34145 On ch=12 n=69 v=68
34158 On ch=12 n=69 v=0
34160 On ch=12 n=66 v=0
34166 On ch=12 n=61 v=0
34627 On ch=12 n=69 v=77
34628 On ch=12 n=61 v=81
34628 On ch=12 n=66 v=81
34641 On ch=12 n=69 v=0
34648 On ch=12 n=66 v=0
34650 On ch=12 n=61 v=0
35101 On ch=12 n=67 v=92
35101 On ch=12 n=71 v=87
35105 On ch=12 n=62 v=74
35119 On ch=12 n=67 v=0
35120 On ch=12 n=71 v=0
35128 On ch=12 n=62 v=0
35226 On ch=12 n=71 v=80
35227 On ch=12 n=62 v=79
35228 On ch=12 n=67 v=68
35237 On ch=12 n=67 v=0
35239 On ch=12 n=71 v=0
35247 On ch=12 n=62 v=0
35348 On ch=12 n=67 v=90
35348 On ch=12 n=71 v=83
35354 On ch=12 n=62 v=68
35365 On ch=12 n=67 v=0
35367 On ch=12 n=71 v=0
35374 On ch=12 n=62 v=0
35466 On ch=12 n=62 v=81
35466 On ch=12 n=71 v=85
35467 On ch=12 n=67 v=88
35482 On ch=12 n=67 v=0
35486 On ch=12 n=71 v=0
35487 On ch=12 n=62 v=0
35588 On ch=12 n=61 v=79
35590 On ch=12 n=64 v=87
35591 On ch=12 n=69 v=90
35607 On ch=12 n=69 v=0
35607 On ch=12 n=61 v=0
35609 On ch=12 n=64 v=0
35711 On ch=12 n=61 v=79
35712 On ch=12 n=69 v=80
35717 On ch=12 n=64 v=69
35724 On ch=12 n=69 v=0
35727 On ch=12 n=64 v=0
35729 On ch=12 n=61 v=0
35829 On ch=12 n=61 v=72
35832 On ch=12 n=64 v=80
35833 On ch=12 n=69 v=87
35847 On ch=12 n=61 v=0
35850 On ch=12 n=64 v=0
35852 On ch=12 n=69 v=0
35948 On ch=12 n=61 v=82
35949 On ch=12 n=64 v=80
35950 On ch=12 n=69 v=87
35968 On ch=12 n=69 v=0
35968 On ch=12 n=64 v=0
35968 On ch=12 n=61 v=0
36074 On ch=12 n=71 v=81
36075 On ch=12 n=67 v=85
36075 On ch=12 n=62 v=78
36090 On ch=12 n=71 v=0
36091 On ch=12 n=62 v=0
36092 On ch=12 n=67 v=0
36189 On ch=12 n=67 v=88
36190 On ch=12 n=71 v=85
36192 On ch=12 n=62 v=80
36209 On ch=12 n=71 v=0
36211 On ch=12 n=67 v=0
36213 On ch=12 n=62 v=0
36307 On ch=12 n=67 v=88
36309 On ch=12 n=71 v=80
36312 On ch=12 n=62 v=80
36322 On ch=12 n=71 v=0
36327 On ch=12 n=67 v=0
36334 On ch=12 n=62 v=0
36420 On ch=12 n=67 v=87
36421 On ch=12 n=71 v=86
36422 On ch=12 n=62 v=95
36441 On ch=12 n=67 v=0
36442 On ch=12 n=71 v=0
36446 On ch=12 n=62 v=0
36545 On ch=12 n=61 v=71
36548 On ch=12 n=64 v=81
36551 On ch=12 n=69 v=90
36568 On ch=12 n=69 v=0
36568 On ch=12 n=61 v=0
36570 On ch=12 n=64 v=0
36671 On ch=12 n=61 v=89
36671 On ch=12 n=69 v=95
36674 On ch=12 n=64 v=68
36688 On ch=12 n=64 v=0
36690 On ch=12 n=69 v=0
36690 On ch=12 n=61 v=0
36784 On ch=12 n=69 v=94
36791 On ch=12 n=61 v=84
36791 On ch=12 n=64 v=72
36844 On ch=12 n=69 v=0
36893 On ch=12 n=61 v=0
36893 On ch=12 n=61 v=84
36895 On ch=12 n=69 v=92
36896 On ch=12 n=64 v=0
36896 On ch=12 n=64 v=81
36915 On ch=12 n=69 v=0
36915 On ch=12 n=61 v=0
36916 On ch=12 n=64 v=0
37017 On ch=12 n=62 v=85
37021 On ch=12 n=69 v=81
37031 On ch=12 n=69 v=0
37036 On ch=12 n=62 v=0
37260 On ch=12 n=62 v=73
37261 On ch=12 n=69 v=84
37277 On ch=12 n=62 v=0
37278 On ch=12 n=69 v=0
37503 On ch=12 n=66 v=67
37504 On ch=12 n=69 v=73
37507 On ch=12 n=62 v=80
37515 On ch=12 n=69 v=0
37515 On ch=12 n=66 v=0
37523 On ch=12 n=62 v=0
37748 On ch=12 n=62 v=84
37762 On ch=12 n=62 v=0
37983 On ch=12 n=61 v=97
37985 On ch=12 n=66 v=67
37987 On ch=12 n=69 v=66
37997 On ch=12 n=66 v=0
37999 On ch=12 n=69 v=0
38005 On ch=12 n=61 v=0
38226 On ch=12 n=69 v=81
38227 On ch=12 n=66 v=79
38229 On ch=12 n=61 v=99
38234 On ch=12 n=66 v=0
38239 On ch=12 n=69 v=0
38247 On ch=12 n=61 v=0
38699 On ch=12 n=61 v=87
38701 On ch=12 n=66 v=67
38706 On ch=12 n=66 v=0
38708 On ch=12 n=61 v=0
38947 On ch=12 n=71 v=91
38947 On ch=12 n=67 v=80
38949 On ch=12 n=62 v=88
38960 On ch=12 n=67 v=0
38965 On ch=12 n=71 v=0
38971 On ch=12 n=62 v=0
39068 On ch=12 n=62 v=84
39068 On ch=12 n=67 v=90
39069 On ch=12 n=71 v=80
39085 On ch=12 n=67 v=0
39086 On ch=12 n=71 v=0
39090 On ch=12 n=62 v=0
39186 On ch=12 n=62 v=79
39187 On ch=12 n=67 v=91
39189 On ch=12 n=71 v=80
39207 On ch=12 n=71 v=0
39208 On ch=12 n=67 v=0
39210 On ch=12 n=62 v=0
39304 On ch=12 n=62 v=81
39305 On ch=12 n=71 v=92
39305 On ch=12 n=67 v=86
39320 On ch=12 n=67 v=0
39325 On ch=12 n=71 v=0
39328 On ch=12 n=62 v=0
39427 On ch=12 n=61 v=79
39428 On ch=12 n=69 v=94
39431 On ch=12 n=64 v=70
39446 On ch=12 n=64 v=0
39446 On ch=12 n=69 v=0
39447 On ch=12 n=61 v=0
39549 On ch=12 n=61 v=79
39550 On ch=12 n=64 v=77
39552 On ch=12 n=69 v=95
39571 On ch=12 n=69 v=0
39571 On ch=12 n=64 v=0
39571 On ch=12 n=61 v=0
39666 On ch=12 n=69 v=94
39667 On ch=12 n=61 v=79
39668 On ch=12 n=64 v=77
39686 On ch=12 n=69 v=0
39689 On ch=12 n=64 v=0
39691 On ch=12 n=61 v=0
39780 On ch=12 n=61 v=93
39782 On ch=12 n=69 v=95
39784 On ch=12 n=64 v=73
39803 On ch=12 n=64 v=0
39803 On ch=12 n=69 v=0
39804 On ch=12 n=61 v=0
39907 On ch=12 n=62 v=75
39907 On ch=12 n=67 v=86
39908 On ch=12 n=71 v=85
39926 On ch=12 n=71 v=0
39927 On ch=12 n=62 v=0
39928 On ch=12 n=67 v=0
40020 On ch=12 n=62 v=83
40021 On ch=12 n=67 v=90
40023 On ch=12 n=71 v=85
40044 On ch=12 n=67 v=0
40044 On ch=12 n=62 v=0
40045 On ch=12 n=71 v=0
40147 On ch=12 n=62 v=87
40149 On ch=12 n=67 v=88
40150 On ch=12 n=71 v=80
40168 On ch=12 n=71 v=0
40170 On ch=12 n=67 v=0
40173 On ch=12 n=62 v=0
40256 On ch=12 n=62 v=90
40259 On ch=12 n=67 v=91
40260 On ch=12 n=71 v=88
40281 On ch=12 n=67 v=0
40285 On ch=12 n=62 v=0
40287 On ch=12 n=71 v=0
40378 On ch=12 n=61 v=82
40381 On ch=12 n=64 v=76
40382 On ch=12 n=69 v=94
40403 On ch=12 n=69 v=0
40403 On ch=12 n=64 v=0
40406 On ch=12 n=61 v=0
40503 On ch=12 n=61 v=77
40504 On ch=12 n=69 v=92
40505 On ch=12 n=64 v=80
40527 On ch=12 n=69 v=0
40528 On ch=12 n=64 v=0
40529 On ch=12 n=61 v=0
40629 On ch=12 n=64 v=69
40630 On ch=12 n=61 v=68
40630 On ch=12 n=69 v=90
40649 On ch=12 n=64 v=0
40653 On ch=12 n=69 v=0
40654 On ch=12 n=61 v=0
40735 On ch=12 n=61 v=89
40738 On ch=12 n=64 v=73
40741 On ch=12 n=69 v=85
40755 On ch=12 n=64 v=0
40758 On ch=12 n=69 v=0
40758 On ch=12 n=61 v=0
41760 On ch=12 n=71 v=87
41803 On ch=12 n=71 v=0
41912 On ch=12 n=71 v=54
41937 On ch=12 n=71 v=0
41959 On ch=12 n=76 v=106
41983 On ch=12 n=76 v=0
42075 On ch=12 n=71 v=90
42112 On ch=12 n=71 v=0
42240 On ch=12 n=61 v=70
42264 On ch=12 n=61 v=0
42297 On ch=12 n=64 v=65
42322 On ch=12 n=64 v=0
42354 On ch=12 n=68 v=77
42373 On ch=12 n=68 v=0
42420 On ch=12 n=68 v=91
42420 On ch=12 n=73 v=81
42435 On ch=12 n=73 v=0
42435 On ch=12 n=68 v=0
42541 On ch=12 n=68 v=97
42556 On ch=12 n=68 v=0
42720 On ch=12 n=57 v=74
42755 On ch=12 n=57 v=0
42768 On ch=12 n=61 v=75
42821 On ch=12 n=61 v=0
42838 On ch=12 n=64 v=75
42881 On ch=12 n=64 v=0
42904 On ch=12 n=69 v=76
42908 On ch=12 n=64 v=65
42923 On ch=12 n=64 v=0
42923 On ch=12 n=69 v=0
43030 On ch=12 n=64 v=84
43049 On ch=12 n=64 v=0
43200 On ch=12 n=59 v=83
43227 On ch=12 n=59 v=0
43254 On ch=12 n=63 v=62
43284 On ch=12 n=63 v=0
43317 On ch=12 n=66 v=82
43347 On ch=12 n=66 v=0
43384 On ch=12 n=66 v=93
43387 On ch=12 n=71 v=88
43402 On ch=12 n=66 v=0
43408 On ch=12 n=71 v=0
43505 On ch=12 n=66 v=84
43524 On ch=12 n=66 v=0
43680 On ch=12 n=59 v=74
43715 On ch=12 n=59 v=0
43745 On ch=12 n=64 v=63
43799 On ch=12 n=68 v=58
43800 On ch=12 n=64 v=0
43828 On ch=12 n=68 v=0
43863 On ch=12 n=68 v=78
43867 On ch=12 n=71 v=85
43883 On ch=12 n=68 v=0
43887 On ch=12 n=71 v=0
43985 On ch=12 n=68 v=84
44010 On ch=12 n=68 v=0
44160 On ch=12 n=61 v=70
44162 On ch=12 n=68 v=70
44184 On ch=12 n=61 v=0
44202 On ch=12 n=68 v=0
44219 On ch=12 n=64 v=80
44258 On ch=12 n=64 v=0
44280 On ch=12 n=68 v=84
44310 On ch=12 n=68 v=0
44346 On ch=12 n=68 v=99
44346 On ch=12 n=73 v=95
44366 On ch=12 n=68 v=0
44373 On ch=12 n=73 v=0
44470 On ch=12 n=68 v=107
44505 On ch=12 n=68 v=0
44640 On ch=12 n=57 v=75
44684 On ch=12 n=57 v=0
44690 On ch=12 n=61 v=62
44733 On ch=12 n=61 v=0
44756 On ch=12 n=64 v=73
44795 On ch=12 n=64 v=0
44824 On ch=12 n=69 v=88
44825 On ch=12 n=64 v=73
44849 On ch=12 n=64 v=0
44861 On ch=12 n=69 v=0
44947 On ch=12 n=64 v=97
44982 On ch=12 n=64 v=0
45120 On ch=12 n=59 v=87
45163 On ch=12 n=59 v=0
45170 On ch=12 n=63 v=67
45204 On ch=12 n=63 v=0
45233 On ch=12 n=66 v=48
45255 On ch=12 n=66 v=0
45299 On ch=12 n=66 v=82
45301 On ch=12 n=71 v=78
45320 On ch=12 n=66 v=0
45321 On ch=12 n=71 v=0
45415 On ch=12 n=66 v=67
45439 On ch=12 n=66 v=0
45664 On ch=12 n=68 v=78
45667 On ch=12 n=64 v=74
45670 On ch=12 n=71 v=77
45685 On ch=12 n=71 v=0
45693 On ch=12 n=64 v=0
45693 On ch=12 n=68 v=0
46143 On ch=12 n=68 v=71
46144 On ch=12 n=71 v=79
46146 On ch=12 n=64 v=73
46161 On ch=12 n=71 v=0
46167 On ch=12 n=68 v=0
46169 On ch=12 n=64 v=0
46622 On ch=12 n=63 v=77
46624 On ch=12 n=68 v=77
46625 On ch=12 n=71 v=68
46638 On ch=12 n=71 v=0
46640 On ch=12 n=68 v=0
46646 On ch=12 n=63 v=0
47107 On ch=12 n=71 v=77
47108 On ch=12 n=63 v=81
47108 On ch=12 n=68 v=81
47121 On ch=12 n=71 v=0
47128 On ch=12 n=68 v=0
47130 On ch=12 n=63 v=0
47581 On ch=12 n=69 v=92
47581 On ch=12 n=73 v=87
47585 On ch=12 n=64 v=74
47599 On ch=12 n=69 v=0
47600 On ch=12 n=73 v=0
47608 On ch=12 n=64 v=0
47706 On ch=12 n=73 v=80
47707 On ch=12 n=64 v=79
47708 On ch=12 n=69 v=68
47717 On ch=12 n=69 v=0
47719 On ch=12 n=73 v=0
47727 On ch=12 n=64 v=0
47828 On ch=12 n=69 v=90
47828 On ch=12 n=73 v=83
47834 On ch=12 n=64 v=68
47845 On ch=12 n=69 v=0
47847 On ch=12 n=73 v=0
47854 On ch=12 n=64 v=0
47946 On ch=12 n=64 v=81
47946 On ch=12 n=73 v=85
47947 On ch=12 n=69 v=88
47962 On ch=12 n=69 v=0
47966 On ch=12 n=73 v=0
47967 On ch=12 n=64 v=0
48068 On ch=12 n=63 v=79
48070 On ch=12 n=66 v=87
48071 On ch=12 n=71 v=90
48087 On ch=12 n=71 v=0
48087 On ch=12 n=63 v=0
48089 On ch=12 n=66 v=0
48191 On ch=12 n=63 v=79
48192 On ch=12 n=71 v=80
48197 On ch=12 n=66 v=69
48204 On ch=12 n=71 v=0
48207 On ch=12 n=66 v=0
48209 On ch=12 n=63 v=0
48309 On ch=12 n=63 v=72
48312 On ch=12 n=66 v=80
48313 On ch=12 n=71 v=87
48327 On ch=12 n=63 v=0
48330 On ch=12 n=66 v=0
48332 On ch=12 n=71 v=0
48428 On ch=12 n=63 v=82
48429 On ch=12 n=66 v=80
48430 On ch=12 n=71 v=87
48448 On ch=12 n=71 v=0
48448 On ch=12 n=66 v=0
48448 On ch=12 n=63 v=0
48554 On ch=12 n=73 v=81
48555 On ch=12 n=69 v=85
48555 On ch=12 n=64 v=78
48570 On ch=12 n=73 v=0
48571 On ch=12 n=64 v=0
48572 On ch=12 n=69 v=0
48669 On ch=12 n=69 v=88
48670 On ch=12 n=73 v=85
48672 On ch=12 n=64 v=80
48689 On ch=12 n=73 v=0
48691 On ch=12 n=69 v=0
48693 On ch=12 n=64 v=0
48787 On ch=12 n=69 v=88
48789 On ch=12 n=73 v=80
48792 On ch=12 n=64 v=80
48802 On ch=12 n=73 v=0
48807 On ch=12 n=69 v=0
48814 On ch=12 n=64 v=0
48900 On ch=12 n=69 v=87
48901 On ch=12 n=73 v=86
48902 On ch=12 n=64 v=95
48921 On ch=12 n=69 v=0
48922 On ch=12 n=73 v=0
48926 On ch=12 n=64 v=0
49025 On ch=12 n=63 v=71
49028 On ch=12 n=66 v=81
49031 On ch=12 n=71 v=90
49048 On ch=12 n=71 v=0
49048 On ch=12 n=63 v=0
49050 On ch=12 n=66 v=0
49151 On ch=12 n=63 v=89
49151 On ch=12 n=71 v=95
49154 On ch=12 n=66 v=68
49168 On ch=12 n=66 v=0
49170 On ch=12 n=71 v=0
49170 On ch=12 n=63 v=0
49271 On ch=12 n=63 v=84
49271 On ch=12 n=66 v=72
49373 On ch=12 n=63 v=0
49373 On ch=12 n=63 v=84
49375 On ch=12 n=71 v=92
49376 On ch=12 n=66 v=0
49376 On ch=12 n=66 v=81
49395 On ch=12 n=71 v=0
49395 On ch=12 n=63 v=0
49396 On ch=12 n=66 v=0
49497 On ch=12 n=64 v=85
49501 On ch=12 n=71 v=81
49511 On ch=12 n=71 v=0
49516 On ch=12 n=64 v=0
49740 On ch=12 n=64 v=73
49741 On ch=12 n=71 v=84
49757 On ch=12 n=64 v=0
49758 On ch=12 n=71 v=0
49983 On ch=12 n=68 v=67
49984 On ch=12 n=71 v=73
49987 On ch=12 n=64 v=80
49995 On ch=12 n=71 v=0
49995 On ch=12 n=68 v=0
50003 On ch=12 n=64 v=0
50228 On ch=12 n=64 v=84
50242 On ch=12 n=64 v=0
50463 On ch=12 n=63 v=97
50465 On ch=12 n=68 v=67
50467 On ch=12 n=71 v=66
50477 On ch=12 n=68 v=0
50479 On ch=12 n=71 v=0
50485 On ch=12 n=63 v=0
50706 On ch=12 n=71 v=81
50707 On ch=12 n=68 v=79
50709 On ch=12 n=63 v=99
50714 On ch=12 n=68 v=0
50719 On ch=12 n=71 v=0
50727 On ch=12 n=63 v=0
51179 On ch=12 n=63 v=87
51181 On ch=12 n=68 v=67
51186 On ch=12 n=68 v=0
51188 On ch=12 n=63 v=0
51427 On ch=12 n=73 v=91
51427 On ch=12 n=69 v=80
51429 On ch=12 n=64 v=88
51440 On ch=12 n=69 v=0
51445 On ch=12 n=73 v=0
51451 On ch=12 n=64 v=0
51548 On ch=12 n=64 v=84
51548 On ch=12 n=69 v=90
51549 On ch=12 n=73 v=80
51565 On ch=12 n=69 v=0
51566 On ch=12 n=73 v=0
51570 On ch=12 n=64 v=0
51666 On ch=12 n=64 v=79
51667 On ch=12 n=69 v=91
51669 On ch=12 n=73 v=80
51687 On ch=12 n=73 v=0
51688 On ch=12 n=69 v=0
51690 On ch=12 n=64 v=0
51784 On ch=12 n=64 v=81
51785 On ch=12 n=73 v=92
51785 On ch=12 n=69 v=86
51800 On ch=12 n=69 v=0
51805 On ch=12 n=73 v=0
51808 On ch=12 n=64 v=0
51907 On ch=12 n=63 v=79
51908 On ch=12 n=71 v=94
51911 On ch=12 n=66 v=70
51926 On ch=12 n=66 v=0
51926 On ch=12 n=71 v=0
51927 On ch=12 n=63 v=0
52029 On ch=12 n=63 v=79
52030 On ch=12 n=66 v=77
52032 On ch=12 n=71 v=95
52051 On ch=12 n=71 v=0
52051 On ch=12 n=66 v=0
52051 On ch=12 n=63 v=0
52146 On ch=12 n=71 v=94
52147 On ch=12 n=63 v=79
52148 On ch=12 n=66 v=77
52166 On ch=12 n=71 v=0
52169 On ch=12 n=66 v=0
52171 On ch=12 n=63 v=0
52260 On ch=12 n=63 v=93
52262 On ch=12 n=71 v=95
52264 On ch=12 n=66 v=73
52283 On ch=12 n=66 v=0
52283 On ch=12 n=71 v=0
52284 On ch=12 n=63 v=0
52387 On ch=12 n=64 v=75
52387 On ch=12 n=69 v=86
52388 On ch=12 n=73 v=85
52406 On ch=12 n=73 v=0
52407 On ch=12 n=64 v=0
52408 On ch=12 n=69 v=0
52500 On ch=12 n=64 v=83
52501 On ch=12 n=69 v=90
52503 On ch=12 n=73 v=85
52524 On ch=12 n=69 v=0
52524 On ch=12 n=64 v=0
52525 On ch=12 n=73 v=0
52627 On ch=12 n=64 v=87
52629 On ch=12 n=69 v=88
52630 On ch=12 n=73 v=80
52648 On ch=12 n=73 v=0
52650 On ch=12 n=69 v=0
52653 On ch=12 n=64 v=0
52736 On ch=12 n=64 v=90
52739 On ch=12 n=69 v=91
52740 On ch=12 n=73 v=88
52761 On ch=12 n=69 v=0
52765 On ch=12 n=64 v=0
52767 On ch=12 n=73 v=0
52858 On ch=12 n=63 v=82
52861 On ch=12 n=66 v=76
52862 On ch=12 n=71 v=94
52883 On ch=12 n=71 v=0
52883 On ch=12 n=66 v=0
52886 On ch=12 n=63 v=0
52983 On ch=12 n=63 v=77
52984 On ch=12 n=71 v=92
52985 On ch=12 n=66 v=80
53007 On ch=12 n=71 v=0
53008 On ch=12 n=66 v=0
53009 On ch=12 n=63 v=0
53109 On ch=12 n=66 v=69
53110 On ch=12 n=63 v=68
53110 On ch=12 n=71 v=90
53129 On ch=12 n=66 v=0
53133 On ch=12 n=71 v=0
53134 On ch=12 n=63 v=0
53215 On ch=12 n=63 v=89
53218 On ch=12 n=66 v=73
53221 On ch=12 n=71 v=85
53235 On ch=12 n=66 v=0
53238 On ch=12 n=71 v=0
53238 On ch=12 n=63 v=0
53344 On ch=12 n=68 v=78
53347 On ch=12 n=64 v=74
53350 On ch=12 n=71 v=77
53365 On ch=12 n=71 v=0
53373 On ch=12 n=64 v=0
53373 On ch=12 n=68 v=0
53823 On ch=12 n=68 v=71
53824 On ch=12 n=71 v=79
53826 On ch=12 n=64 v=73
53841 On ch=12 n=71 v=0
53847 On ch=12 n=68 v=0
53849 On ch=12 n=64 v=0
54302 On ch=12 n=63 v=77
54304 On ch=12 n=68 v=77
54305 On ch=12 n=71 v=68
54318 On ch=12 n=71 v=0
54320 On ch=12 n=68 v=0
54326 On ch=12 n=63 v=0
54787 On ch=12 n=71 v=77
54788 On ch=12 n=63 v=81
54788 On ch=12 n=68 v=81
54801 On ch=12 n=71 v=0
54808 On ch=12 n=68 v=0
54810 On ch=12 n=63 v=0
55261 On ch=12 n=69 v=92
55261 On ch=12 n=73 v=87
55265 On ch=12 n=64 v=74
55279 On ch=12 n=69 v=0
55280 On ch=12 n=73 v=0
55288 On ch=12 n=64 v=0
55386 On ch=12 n=73 v=80
55387 On ch=12 n=64 v=79
55388 On ch=12 n=69 v=68
55397 On ch=12 n=69 v=0
55399 On ch=12 n=73 v=0
55407 On ch=12 n=64 v=0
55508 On ch=12 n=69 v=90
55508 On ch=12 n=73 v=83
55514 On ch=12 n=64 v=68
55525 On ch=12 n=69 v=0
55527 On ch=12 n=73 v=0
55534 On ch=12 n=64 v=0
55626 On ch=12 n=64 v=81
55626 On ch=12 n=73 v=85
55627 On ch=12 n=69 v=88
55642 On ch=12 n=69 v=0
55646 On ch=12 n=73 v=0
55647 On ch=12 n=64 v=0
55748 On ch=12 n=63 v=79
55750 On ch=12 n=66 v=87
55751 On ch=12 n=71 v=90
55767 On ch=12 n=71 v=0
55767 On ch=12 n=63 v=0
55769 On ch=12 n=66 v=0
55871 On ch=12 n=63 v=79
55872 On ch=12 n=71 v=80
55877 On ch=12 n=66 v=69
55884 On ch=12 n=71 v=0
55887 On ch=12 n=66 v=0
55889 On ch=12 n=63 v=0
55989 On ch=12 n=63 v=72
55992 On ch=12 n=66 v=80
55993 On ch=12 n=71 v=87
56007 On ch=12 n=63 v=0
56010 On ch=12 n=66 v=0
56012 On ch=12 n=71 v=0
56108 On ch=12 n=63 v=82
56109 On ch=12 n=66 v=80
56110 On ch=12 n=71 v=87
56128 On ch=12 n=71 v=0
56128 On ch=12 n=66 v=0
56128 On ch=12 n=63 v=0
56234 On ch=12 n=73 v=81
56235 On ch=12 n=69 v=85
56235 On ch=12 n=64 v=78
56250 On ch=12 n=73 v=0
56251 On ch=12 n=64 v=0
56252 On ch=12 n=69 v=0
56349 On ch=12 n=69 v=88
56350 On ch=12 n=73 v=85
56352 On ch=12 n=64 v=80
56369 On ch=12 n=73 v=0
56371 On ch=12 n=69 v=0
56373 On ch=12 n=64 v=0
56467 On ch=12 n=69 v=88
56469 On ch=12 n=73 v=80
56472 On ch=12 n=64 v=80
56482 On ch=12 n=73 v=0
56487 On ch=12 n=69 v=0
56494 On ch=12 n=64 v=0
56580 On ch=12 n=69 v=87
56581 On ch=12 n=73 v=86
56582 On ch=12 n=64 v=95
56601 On ch=12 n=69 v=0
56602 On ch=12 n=73 v=0
56606 On ch=12 n=64 v=0
56705 On ch=12 n=63 v=71
56708 On ch=12 n=66 v=81
56711 On ch=12 n=71 v=90
56728 On ch=12 n=71 v=0
56728 On ch=12 n=63 v=0
56730 On ch=12 n=66 v=0
56831 On ch=12 n=63 v=89
56831 On ch=12 n=71 v=95
56834 On ch=12 n=66 v=68
56848 On ch=12 n=66 v=0
56850 On ch=12 n=71 v=0
56850 On ch=12 n=63 v=0
56951 On ch=12 n=63 v=84
56951 On ch=12 n=66 v=72
57053 On ch=12 n=63 v=0
57053 On ch=12 n=63 v=84
57055 On ch=12 n=71 v=92
57056 On ch=12 n=66 v=0
57056 On ch=12 n=66 v=81
57075 On ch=12 n=71 v=0
57075 On ch=12 n=63 v=0
57076 On ch=12 n=66 v=0
57177 On ch=12 n=64 v=85
57181 On ch=12 n=71 v=81
57191 On ch=12 n=71 v=0
57196 On ch=12 n=64 v=0
57420 On ch=12 n=64 v=73
57421 On ch=12 n=71 v=84
57437 On ch=12 n=64 v=0
57438 On ch=12 n=71 v=0
57663 On ch=12 n=68 v=67
57664 On ch=12 n=71 v=73
57667 On ch=12 n=64 v=80
57675 On ch=12 n=71 v=0
57675 On ch=12 n=68 v=0
57683 On ch=12 n=64 v=0
57908 On ch=12 n=64 v=84
57922 On ch=12 n=64 v=0
58143 On ch=12 n=63 v=97
58145 On ch=12 n=68 v=67
58147 On ch=12 n=71 v=66
58157 On ch=12 n=68 v=0
58159 On ch=12 n=71 v=0
58165 On ch=12 n=63 v=0
58386 On ch=12 n=71 v=81
58387 On ch=12 n=68 v=79
58389 On ch=12 n=63 v=99
58394 On ch=12 n=68 v=0
58399 On ch=12 n=71 v=0
58407 On ch=12 n=63 v=0
58859 On ch=12 n=63 v=87
58861 On ch=12 n=68 v=67
58866 On ch=12 n=68 v=0
58868 On ch=12 n=63 v=0
59107 On ch=12 n=73 v=91
59107 On ch=12 n=69 v=80
59109 On ch=12 n=64 v=88
59120 On ch=12 n=69 v=0
59125 On ch=12 n=73 v=0
59131 On ch=12 n=64 v=0
59228 On ch=12 n=64 v=84
59228 On ch=12 n=69 v=90
59229 On ch=12 n=73 v=80
59245 On ch=12 n=69 v=0
59246 On ch=12 n=73 v=0
59250 On ch=12 n=64 v=0
59346 On ch=12 n=64 v=79
59347 On ch=12 n=69 v=91
59349 On ch=12 n=73 v=80
59367 On ch=12 n=73 v=0
59368 On ch=12 n=69 v=0
59370 On ch=12 n=64 v=0
59464 On ch=12 n=64 v=81
59465 On ch=12 n=73 v=92
59465 On ch=12 n=69 v=86
59480 On ch=12 n=69 v=0
59485 On ch=12 n=73 v=0
59488 On ch=12 n=64 v=0
59587 On ch=12 n=63 v=79
59588 On ch=12 n=71 v=94
59591 On ch=12 n=66 v=70
59606 On ch=12 n=66 v=0
59606 On ch=12 n=71 v=0
59607 On ch=12 n=63 v=0
59709 On ch=12 n=63 v=79
59710 On ch=12 n=66 v=77
59712 On ch=12 n=71 v=95
59731 On ch=12 n=71 v=0
59731 On ch=12 n=66 v=0
59731 On ch=12 n=63 v=0
59826 On ch=12 n=71 v=94
59827 On ch=12 n=63 v=79
59828 On ch=12 n=66 v=77
59846 On ch=12 n=71 v=0
59849 On ch=12 n=66 v=0
59851 On ch=12 n=63 v=0
59940 On ch=12 n=63 v=93
59942 On ch=12 n=71 v=95
59944 On ch=12 n=66 v=73
59963 On ch=12 n=66 v=0
59963 On ch=12 n=71 v=0
59964 On ch=12 n=63 v=0
60067 On ch=12 n=64 v=75
60067 On ch=12 n=69 v=86
60068 On ch=12 n=73 v=85
60086 On ch=12 n=73 v=0
60087 On ch=12 n=64 v=0
60088 On ch=12 n=69 v=0
60180 On ch=12 n=64 v=83
60181 On ch=12 n=69 v=90
60183 On ch=12 n=73 v=85
60204 On ch=12 n=69 v=0
60204 On ch=12 n=64 v=0
60205 On ch=12 n=73 v=0
60307 On ch=12 n=64 v=87
60309 On ch=12 n=69 v=88
60310 On ch=12 n=73 v=80
60328 On ch=12 n=73 v=0
60330 On ch=12 n=69 v=0
60333 On ch=12 n=64 v=0
60416 On ch=12 n=64 v=90
60419 On ch=12 n=69 v=91
60420 On ch=12 n=73 v=88
60441 On ch=12 n=69 v=0
60445 On ch=12 n=64 v=0
60447 On ch=12 n=73 v=0
60538 On ch=12 n=63 v=82
60541 On ch=12 n=66 v=76
60542 On ch=12 n=71 v=94
60563 On ch=12 n=71 v=0
60563 On ch=12 n=66 v=0
60566 On ch=12 n=63 v=0
60663 On ch=12 n=63 v=77
60664 On ch=12 n=71 v=92
60665 On ch=12 n=66 v=80
60687 On ch=12 n=71 v=0
60688 On ch=12 n=66 v=0
60689 On ch=12 n=63 v=0
60789 On ch=12 n=66 v=69
60790 On ch=12 n=63 v=68
60790 On ch=12 n=71 v=90
60809 On ch=12 n=66 v=0
60813 On ch=12 n=71 v=0
60814 On ch=12 n=63 v=0
60895 On ch=12 n=63 v=89
60898 On ch=12 n=66 v=73
60901 On ch=12 n=71 v=85
60915 On ch=12 n=66 v=0
60918 On ch=12 n=71 v=0
60918 On ch=12 n=63 v=0
61024 On ch=12 n=68 v=78
61027 On ch=12 n=64 v=74
61030 On ch=12 n=71 v=77
61045 On ch=12 n=71 v=0
61053 On ch=12 n=64 v=0
61053 On ch=12 n=68 v=0
61503 On ch=12 n=68 v=71
61504 On ch=12 n=71 v=79
61506 On ch=12 n=64 v=73
61521 On ch=12 n=71 v=0
61527 On ch=12 n=68 v=0
61529 On ch=12 n=64 v=0
61982 On ch=12 n=63 v=77
61984 On ch=12 n=68 v=77
61985 On ch=12 n=71 v=68
61998 On ch=12 n=71 v=0
62000 On ch=12 n=68 v=0
62006 On ch=12 n=63 v=0
62467 On ch=12 n=71 v=77
62468 On ch=12 n=63 v=81
62468 On ch=12 n=68 v=81
62481 On ch=12 n=71 v=0
62488 On ch=12 n=68 v=0
62490 On ch=12 n=63 v=0
62941 On ch=12 n=69 v=92
62941 On ch=12 n=73 v=87
62945 On ch=12 n=64 v=74
62959 On ch=12 n=69 v=0
62960 On ch=12 n=73 v=0
62968 On ch=12 n=64 v=0
63066 On ch=12 n=73 v=80
63067 On ch=12 n=64 v=79
63068 On ch=12 n=69 v=68
63077 On ch=12 n=69 v=0
63079 On ch=12 n=73 v=0
63087 On ch=12 n=64 v=0
63188 On ch=12 n=69 v=90
63188 On ch=12 n=73 v=83
63194 On ch=12 n=64 v=68
63205 On ch=12 n=69 v=0
63207 On ch=12 n=73 v=0
63214 On ch=12 n=64 v=0
63306 On ch=12 n=64 v=81
63306 On ch=12 n=73 v=85
63307 On ch=12 n=69 v=88
63322 On ch=12 n=69 v=0
63326 On ch=12 n=73 v=0
63327 On ch=12 n=64 v=0
63428 On ch=12 n=63 v=79
63430 On ch=12 n=66 v=87
63431 On ch=12 n=71 v=90
63447 On ch=12 n=71 v=0
63447 On ch=12 n=63 v=0
63449 On ch=12 n=66 v=0
63551 On ch=12 n=63 v=79
63552 On ch=12 n=71 v=80
63557 On ch=12 n=66 v=69
63564 On ch=12 n=71 v=0
63567 On ch=12 n=66 v=0
63569 On ch=12 n=63 v=0
63669 On ch=12 n=63 v=72
63672 On ch=12 n=66 v=80
63673 On ch=12 n=71 v=87
63687 On ch=12 n=63 v=0
63690 On ch=12 n=66 v=0
63692 On ch=12 n=71 v=0
63788 On ch=12 n=63 v=82
63789 On ch=12 n=66 v=80
63790 On ch=12 n=71 v=87
63808 On ch=12 n=71 v=0
63808 On ch=12 n=66 v=0
63808 On ch=12 n=63 v=0
63914 On ch=12 n=73 v=81
63915 On ch=12 n=69 v=85
63915 On ch=12 n=64 v=78
63930 On ch=12 n=73 v=0
63931 On ch=12 n=64 v=0
63932 On ch=12 n=69 v=0
64029 On ch=12 n=69 v=88
64030 On ch=12 n=73 v=85
64032 On ch=12 n=64 v=80
64049 On ch=12 n=73 v=0
64051 On ch=12 n=69 v=0
64053 On ch=12 n=64 v=0
64147 On ch=12 n=69 v=88
64149 On ch=12 n=73 v=80
64152 On ch=12 n=64 v=80
64162 On ch=12 n=73 v=0
64167 On ch=12 n=69 v=0
64174 On ch=12 n=64 v=0
64260 On ch=12 n=69 v=87
64261 On ch=12 n=73 v=86
64262 On ch=12 n=64 v=95
64281 On ch=12 n=69 v=0
64282 On ch=12 n=73 v=0
64286 On ch=12 n=64 v=0
64385 On ch=12 n=63 v=71
64388 On ch=12 n=66 v=81
64391 On ch=12 n=71 v=90
64408 On ch=12 n=71 v=0
64408 On ch=12 n=63 v=0
64410 On ch=12 n=66 v=0
64511 On ch=12 n=63 v=89
64511 On ch=12 n=71 v=95
64514 On ch=12 n=66 v=68
64528 On ch=12 n=66 v=0
64530 On ch=12 n=71 v=0
64530 On ch=12 n=63 v=0
64631 On ch=12 n=63 v=84
64631 On ch=12 n=66 v=72
64631 On ch=12 n=74 v=69
64733 On ch=12 n=63 v=0
64733 On ch=12 n=63 v=84
64735 On ch=12 n=71 v=92
64736 On ch=12 n=66 v=0
64736 On ch=12 n=66 v=81
64755 On ch=12 n=71 v=0
64755 On ch=12 n=63 v=0
64756 On ch=12 n=66 v=0
68897 On ch=12 n=74 v=0
68897 Meta TrkEnd
TrkEnd
MTrk
0 Meta 0x21 00
0 Meta TrkName "Luglio '97"
0 PrCh ch=13 p=25
0 Par ch=13 c=7 v=120
0 Par ch=13 c=10 v=65
0 Par ch=13 c=91 v=86
0 Par ch=13 c=93 v=72
8129 On ch=13 n=43 v=111
8143 On ch=13 n=47 v=96
8156 On ch=13 n=50 v=90
8166 On ch=13 n=55 v=90
8175 On ch=13 n=59 v=84
8185 On ch=13 n=67 v=80
8494 On ch=13 n=43 v=0
8619 On ch=13 n=47 v=0
8630 On ch=13 n=50 v=0
8630 On ch=13 n=45 v=102
8643 On ch=13 n=55 v=0
8643 On ch=13 n=50 v=82
8653 On ch=13 n=59 v=0
8653 On ch=13 n=57 v=96
8662 On ch=13 n=67 v=0
8662 On ch=13 n=62 v=96
8671 On ch=13 n=66 v=108
9083 On ch=13 n=45 v=0
9083 On ch=13 n=43 v=127
9094 On ch=13 n=50 v=0
9094 On ch=13 n=47 v=105
9102 On ch=13 n=50 v=74
9103 On ch=13 n=57 v=0
9111 On ch=13 n=55 v=105
9112 On ch=13 n=62 v=0
9120 On ch=13 n=59 v=84
9121 On ch=13 n=66 v=0
9132 On ch=13 n=67 v=93
9452 On ch=13 n=43 v=0
9558 On ch=13 n=47 v=0
9568 On ch=13 n=50 v=0
9568 On ch=13 n=45 v=120
9576 On ch=13 n=50 v=76
9577 On ch=13 n=55 v=0
9585 On ch=13 n=57 v=96
9586 On ch=13 n=59 v=0
9593 On ch=13 n=62 v=87
9594 On ch=13 n=67 v=0
9603 On ch=13 n=66 v=99
10346 On ch=13 n=66 v=0
10346 On ch=13 n=62 v=0
10346 On ch=13 n=45 v=0
10346 On ch=13 n=50 v=0
10346 On ch=13 n=57 v=0
28769 On ch=13 n=43 v=111
28783 On ch=13 n=47 v=96
28796 On ch=13 n=50 v=90
28806 On ch=13 n=55 v=90
28815 On ch=13 n=59 v=84
28825 On ch=13 n=67 v=80
29134 On ch=13 n=43 v=0
29259 On ch=13 n=47 v=0
29270 On ch=13 n=50 v=0
29270 On ch=13 n=45 v=102
29283 On ch=13 n=55 v=0
29283 On ch=13 n=50 v=82
29293 On ch=13 n=59 v=0
29293 On ch=13 n=57 v=96
29302 On ch=13 n=67 v=0
29302 On ch=13 n=62 v=96
29311 On ch=13 n=66 v=108
29723 On ch=13 n=45 v=0
29723 On ch=13 n=43 v=127
29734 On ch=13 n=50 v=0
29734 On ch=13 n=47 v=105
29742 On ch=13 n=50 v=74
29743 On ch=13 n=57 v=0
29751 On ch=13 n=55 v=105
29752 On ch=13 n=62 v=0
29760 On ch=13 n=59 v=84
29761 On ch=13 n=66 v=0
29772 On ch=13 n=67 v=93
30092 On ch=13 n=43 v=0
30198 On ch=13 n=47 v=0
30208 On ch=13 n=50 v=0
30208 On ch=13 n=45 v=120
30216 On ch=13 n=50 v=76
30217 On ch=13 n=55 v=0
30225 On ch=13 n=57 v=96
30226 On ch=13 n=59 v=0
30233 On ch=13 n=62 v=87
30234 On ch=13 n=67 v=0
30243 On ch=13 n=66 v=99
30986 On ch=13 n=66 v=0
30986 On ch=13 n=62 v=0
30986 On ch=13 n=45 v=0
30986 On ch=13 n=50 v=0
30986 On ch=13 n=57 v=0
30986 Meta TrkEnd
TrkEnd
MTrk
0 Meta 0x21 00
0 PrCh ch=14 p=9
0 Par ch=14 c=7 v=120
0 Par ch=14 c=10 v=65
0 Par ch=14 c=91 v=86
0 Par ch=14 c=93 v=72
10143 On ch=14 n=79 v=68
10201 On ch=14 n=74 v=73
10225 On ch=14 n=79 v=0
10254 On ch=14 n=79 v=63
10379 On ch=14 n=83 v=52
10452 On ch=14 n=74 v=0
10736 On ch=14 n=79 v=0
10746 On ch=14 n=74 v=40
10750 On ch=14 n=83 v=0
10789 On ch=14 n=79 v=53
10857 On ch=14 n=83 v=54
10989 On ch=14 n=79 v=0
10996 On ch=14 n=83 v=0
11015 On ch=14 n=74 v=0
11040 On ch=14 n=79 v=81
11159 On ch=14 n=74 v=44
11183 On ch=14 n=79 v=0
11210 On ch=14 n=79 v=63
11343 On ch=14 n=83 v=49
11366 On ch=14 n=83 v=0
11457 On ch=14 n=74 v=0
11466 On ch=14 n=79 v=0
11518 On ch=14 n=81 v=97
11579 On ch=14 n=81 v=0
11583 On ch=14 n=76 v=78
11644 On ch=14 n=81 v=74
11701 On ch=14 n=85 v=84
11714 On ch=14 n=76 v=0
11739 On ch=14 n=81 v=0
11755 On ch=14 n=85 v=0
11756 On ch=14 n=76 v=73
11821 On ch=14 n=81 v=60
11875 On ch=14 n=85 v=67
11898 On ch=14 n=81 v=0
11938 On ch=14 n=81 v=50
11961 On ch=14 n=85 v=0
11963 On ch=14 n=76 v=0
11967 On ch=14 n=81 v=0
12005 On ch=14 n=81 v=73
12050 On ch=14 n=76 v=68
12065 On ch=14 n=81 v=0
12114 On ch=14 n=81 v=71
12169 On ch=14 n=85 v=59
12215 On ch=14 n=76 v=0
12239 On ch=14 n=76 v=57
12275 On ch=14 n=81 v=0
12292 On ch=14 n=85 v=0
12302 On ch=14 n=81 v=65
12342 On ch=14 n=81 v=0
12357 On ch=14 n=81 v=42
12373 On ch=14 n=85 v=47
12430 On ch=14 n=85 v=0
12444 On ch=14 n=81 v=0
12455 On ch=14 n=76 v=0
30783 On ch=14 n=79 v=68
30841 On ch=14 n=74 v=73
30865 On ch=14 n=79 v=0
30894 On ch=14 n=79 v=63
31019 On ch=14 n=83 v=52
31092 On ch=14 n=74 v=0
31376 On ch=14 n=79 v=0
31386 On ch=14 n=74 v=40
31390 On ch=14 n=83 v=0
31429 On ch=14 n=79 v=53
31497 On ch=14 n=83 v=54
31629 On ch=14 n=79 v=0
31636 On ch=14 n=83 v=0
31655 On ch=14 n=74 v=0
31680 On ch=14 n=79 v=81
31799 On ch=14 n=74 v=44
31823 On ch=14 n=79 v=0
31850 On ch=14 n=79 v=63
31983 On ch=14 n=83 v=49
32006 On ch=14 n=83 v=0
32097 On ch=14 n=74 v=0
32106 On ch=14 n=79 v=0
32158 On ch=14 n=81 v=97
32219 On ch=14 n=81 v=0
32223 On ch=14 n=76 v=78
32284 On ch=14 n=81 v=74
32341 On ch=14 n=85 v=84
32354 On ch=14 n=76 v=0
32379 On ch=14 n=81 v=0
32395 On ch=14 n=85 v=0
32396 On ch=14 n=76 v=73
32461 On ch=14 n=81 v=60
32515 On ch=14 n=85 v=67
32538 On ch=14 n=81 v=0
32578 On ch=14 n=81 v=50
32601 On ch=14 n=85 v=0
32603 On ch=14 n=76 v=0
32607 On ch=14 n=81 v=0
32645 On ch=14 n=81 v=73
32690 On ch=14 n=76 v=68
32705 On ch=14 n=81 v=0
32754 On ch=14 n=81 v=71
32809 On ch=14 n=85 v=59
32855 On ch=14 n=76 v=0
32879 On ch=14 n=76 v=57
32915 On ch=14 n=81 v=0
32932 On ch=14 n=85 v=0
32942 On ch=14 n=81 v=65
32982 On ch=14 n=81 v=0
32997 On ch=14 n=81 v=42
33013 On ch=14 n=85 v=47
33070 On ch=14 n=85 v=0
33084 On ch=14 n=81 v=0
33095 On ch=14 n=76 v=0
33095 Meta TrkEnd
TrkEnd
MTrk
0 Meta 0x21 00
0 PrCh ch=1 p=11
0 Par ch=1 c=7 v=120
0 Par ch=1 c=10 v=65
0 Par ch=1 c=91 v=86
0 Par ch=1 c=93 v=72
4443 On ch=1 n=81 v=117
4466 On ch=1 n=81 v=0
4499 On ch=1 n=81 v=102
4524 On ch=1 n=81 v=0
4560 On ch=1 n=81 v=114
4602 On ch=1 n=81 v=0
4619 On ch=1 n=78 v=107
4651 On ch=1 n=78 v=0
4677 On ch=1 n=81 v=120
4719 On ch=1 n=81 v=0
4797 On ch=1 n=83 v=117
4833 On ch=1 n=83 v=0
4912 On ch=1 n=85 v=127
4948 On ch=1 n=85 v=0
4977 On ch=1 n=83 v=114
5038 On ch=1 n=83 v=0
5397 On ch=1 n=74 v=106
5424 On ch=1 n=74 v=0
5458 On ch=1 n=74 v=104
5481 On ch=1 n=74 v=0
5514 On ch=1 n=74 v=97
5547 On ch=1 n=74 v=0
5574 On ch=1 n=71 v=97
5611 On ch=1 n=71 v=0
5640 On ch=1 n=74 v=120
5679 On ch=1 n=74 v=0
5757 On ch=1 n=76 v=108
5809 On ch=1 n=76 v=0
5881 On ch=1 n=78 v=127
5918 On ch=1 n=78 v=0
5945 On ch=1 n=76 v=114
6003 On ch=1 n=76 v=0
6360 On ch=1 n=81 v=104
6385 On ch=1 n=81 v=0
6419 On ch=1 n=81 v=102
6444 On ch=1 n=81 v=0
6479 On ch=1 n=81 v=106
6515 On ch=1 n=81 v=0
6540 On ch=1 n=78 v=113
6567 On ch=1 n=78 v=0
6601 On ch=1 n=81 v=110
6637 On ch=1 n=81 v=0
6717 On ch=1 n=83 v=110
6757 On ch=1 n=83 v=0
6832 On ch=1 n=85 v=127
6865 On ch=1 n=85 v=0
6896 On ch=1 n=83 v=112
6964 On ch=1 n=83 v=0
7321 On ch=1 n=74 v=104
7346 On ch=1 n=74 v=0
7377 On ch=1 n=74 v=94
7402 On ch=1 n=74 v=0
7436 On ch=1 n=74 v=90
7473 On ch=1 n=74 v=0
7498 On ch=1 n=71 v=90
7540 On ch=1 n=71 v=0
7561 On ch=1 n=74 v=112
7604 On ch=1 n=74 v=0
7677 On ch=1 n=76 v=106
7719 On ch=1 n=76 v=0
7798 On ch=1 n=78 v=116
7832 On ch=1 n=78 v=0
7861 On ch=1 n=76 v=106
7916 On ch=1 n=76 v=0
8042 On ch=1 n=78 v=110
8073 On ch=1 n=78 v=0
8096 On ch=1 n=76 v=92
8127 On ch=1 n=76 v=0
8159 On ch=1 n=76 v=106
8234 On ch=1 n=76 v=0
8284 On ch=1 n=74 v=108
8478 On ch=1 n=74 v=0
8523 On ch=1 n=78 v=113
8558 On ch=1 n=78 v=0
8582 On ch=1 n=76 v=88
8612 On ch=1 n=76 v=0
8643 On ch=1 n=76 v=102
8719 On ch=1 n=76 v=0
8766 On ch=1 n=74 v=106
8967 On ch=1 n=74 v=0
9005 On ch=1 n=78 v=104
9042 On ch=1 n=78 v=0
9062 On ch=1 n=76 v=91
9088 On ch=1 n=76 v=0
9121 On ch=1 n=76 v=100
9158 On ch=1 n=76 v=0
9181 On ch=1 n=74 v=100
9221 On ch=1 n=74 v=0
9242 On ch=1 n=78 v=107
9276 On ch=1 n=78 v=0
9299 On ch=1 n=76 v=91
9329 On ch=1 n=76 v=0
9361 On ch=1 n=76 v=91
9401 On ch=1 n=76 v=0
9421 On ch=1 n=74 v=102
9460 On ch=1 n=74 v=0
9480 On ch=1 n=78 v=113
9514 On ch=1 n=78 v=0
9539 On ch=1 n=76 v=97
9571 On ch=1 n=76 v=0
9600 On ch=1 n=76 v=108
9678 On ch=1 n=76 v=0
9714 On ch=1 n=74 v=104
9890 On ch=1 n=74 v=0
9956 On ch=1 n=76 v=98
10001 On ch=1 n=76 v=0
10019 On ch=1 n=78 v=123
10044 On ch=1 n=78 v=0
10077 On ch=1 n=79 v=125
10132 On ch=1 n=79 v=0
10251 On ch=1 n=79 v=120
10333 On ch=1 n=79 v=0
10440 On ch=1 n=79 v=127
10492 On ch=1 n=79 v=0
10558 On ch=1 n=78 v=127
10709 On ch=1 n=78 v=0
10743 On ch=1 n=76 v=117
10887 On ch=1 n=76 v=0
11158 On ch=1 n=79 v=120
11181 On ch=1 n=79 v=0
11215 On ch=1 n=79 v=114
11240 On ch=1 n=79 v=0
11275 On ch=1 n=79 v=112
11299 On ch=1 n=79 v=0
11333 On ch=1 n=79 v=104
11357 On ch=1 n=79 v=0
11397 On ch=1 n=79 v=125
11476 On ch=1 n=79 v=0
11508 On ch=1 n=78 v=127
11664 On ch=1 n=78 v=0
11690 On ch=1 n=76 v=122
11862 On ch=1 n=76 v=0
11877 On ch=1 n=79 v=114
11986 On ch=1 n=79 v=0
12001 On ch=1 n=78 v=127
12165 On ch=1 n=78 v=0
12182 On ch=1 n=76 v=125
12390 On ch=1 n=76 v=0
12488 On ch=1 n=81 v=114
12549 On ch=1 n=81 v=0
12604 On ch=1 n=81 v=122
12671 On ch=1 n=81 v=0
12727 On ch=1 n=81 v=127
12816 On ch=1 n=81 v=0
12902 On ch=1 n=81 v=117
12982 On ch=1 n=81 v=0
13016 On ch=1 n=78 v=119
13052 On ch=1 n=78 v=0
13071 On ch=1 n=81 v=117
13115 On ch=1 n=81 v=0
13136 On ch=1 n=83 v=122
13311 On ch=1 n=83 v=0
13322 On ch=1 n=81 v=120
13396 On ch=1 n=81 v=0
13443 On ch=1 n=81 v=122
13502 On ch=1 n=81 v=0
13563 On ch=1 n=81 v=122
13618 On ch=1 n=81 v=0
13681 On ch=1 n=81 v=125
13749 On ch=1 n=81 v=0
13865 On ch=1 n=81 v=117
13944 On ch=1 n=81 v=0
13978 On ch=1 n=78 v=87
14015 On ch=1 n=78 v=0
14034 On ch=1 n=81 v=108
14078 On ch=1 n=81 v=0
14097 On ch=1 n=83 v=125
14257 On ch=1 n=83 v=0
14274 On ch=1 n=81 v=117
14351 On ch=1 n=81 v=0
14463 On ch=1 n=71 v=100
14491 On ch=1 n=71 v=0
14521 On ch=1 n=71 v=102
14557 On ch=1 n=71 v=0
14582 On ch=1 n=73 v=110
14604 On ch=1 n=73 v=0
14644 On ch=1 n=73 v=127
14671 On ch=1 n=73 v=0
14704 On ch=1 n=74 v=106
14731 On ch=1 n=74 v=0
14765 On ch=1 n=76 v=102
14794 On ch=1 n=76 v=0
14825 On ch=1 n=78 v=107
14849 On ch=1 n=78 v=0
14888 On ch=1 n=78 v=116
14921 On ch=1 n=78 v=0
14950 On ch=1 n=79 v=108
14992 On ch=1 n=79 v=0
15071 On ch=1 n=78 v=127
15124 On ch=1 n=78 v=0
15192 On ch=1 n=76 v=127
15265 On ch=1 n=76 v=0
15425 On ch=1 n=71 v=95
15454 On ch=1 n=71 v=0
15483 On ch=1 n=71 v=88
15518 On ch=1 n=71 v=0
15545 On ch=1 n=73 v=101
15568 On ch=1 n=73 v=0
15604 On ch=1 n=73 v=104
15632 On ch=1 n=73 v=0
15661 On ch=1 n=74 v=122
15689 On ch=1 n=74 v=0
15723 On ch=1 n=76 v=106
15745 On ch=1 n=76 v=0
15785 On ch=1 n=78 v=116
15838 On ch=1 n=78 v=0
15899 On ch=1 n=79 v=120
15943 On ch=1 n=79 v=0
16022 On ch=1 n=78 v=127
16080 On ch=1 n=78 v=0
16145 On ch=1 n=76 v=127
16220 On ch=1 n=76 v=0
16324 On ch=1 n=81 v=122
16386 On ch=1 n=81 v=0
16441 On ch=1 n=81 v=125
16497 On ch=1 n=81 v=0
16564 On ch=1 n=81 v=127
16649 On ch=1 n=81 v=0
16742 On ch=1 n=81 v=125
16809 On ch=1 n=81 v=0
16865 On ch=1 n=78 v=127
16893 On ch=1 n=78 v=0
16923 On ch=1 n=81 v=127
16957 On ch=1 n=81 v=0
16980 On ch=1 n=83 v=127
17145 On ch=1 n=83 v=0
17156 On ch=1 n=81 v=122
17232 On ch=1 n=81 v=0
17276 On ch=1 n=81 v=127
17331 On ch=1 n=81 v=0
17397 On ch=1 n=81 v=122
17455 On ch=1 n=81 v=0
17517 On ch=1 n=81 v=125
17605 On ch=1 n=81 v=0
17700 On ch=1 n=81 v=122
17764 On ch=1 n=81 v=0
17814 On ch=1 n=78 v=127
17847 On ch=1 n=78 v=0
17871 On ch=1 n=81 v=122
17911 On ch=1 n=81 v=0
17933 On ch=1 n=83 v=112
18082 On ch=1 n=83 v=0
18109 On ch=1 n=81 v=114
18203 On ch=1 n=81 v=0
18305 On ch=1 n=71 v=112
18336 On ch=1 n=71 v=0
18363 On ch=1 n=71 v=87
18396 On ch=1 n=71 v=0
18419 On ch=1 n=73 v=95
18440 On ch=1 n=73 v=0
18477 On ch=1 n=73 v=101
18508 On ch=1 n=73 v=0
18537 On ch=1 n=74 v=97
18567 On ch=1 n=74 v=0
18595 On ch=1 n=76 v=98
18624 On ch=1 n=76 v=0
18661 On ch=1 n=78 v=116
18716 On ch=1 n=78 v=0
18782 On ch=1 n=79 v=106
18824 On ch=1 n=79 v=0
18905 On ch=1 n=78 v=127
18955 On ch=1 n=78 v=0
19028 On ch=1 n=76 v=120
19090 On ch=1 n=76 v=0
19261 On ch=1 n=71 v=91
19290 On ch=1 n=71 v=0
19317 On ch=1 n=71 v=91
19352 On ch=1 n=71 v=0
19381 On ch=1 n=73 v=101
19406 On ch=1 n=73 v=0
19443 On ch=1 n=73 v=107
19470 On ch=1 n=73 v=0
19498 On ch=1 n=74 v=110
19529 On ch=1 n=74 v=0
19557 On ch=1 n=76 v=100
19586 On ch=1 n=76 v=0
19618 On ch=1 n=78 v=110
19685 On ch=1 n=78 v=0
19737 On ch=1 n=78 v=99
19769 On ch=1 n=78 v=0
19799 On ch=1 n=79 v=98
19833 On ch=1 n=79 v=0
19863 On ch=1 n=78 v=119
19923 On ch=1 n=78 v=0
19980 On ch=1 n=76 v=108
20046 On ch=1 n=76 v=0
20223 On ch=1 n=74 v=85
20248 On ch=1 n=74 v=0
20284 On ch=1 n=74 v=77
20308 On ch=1 n=74 v=0
20341 On ch=1 n=74 v=74
20367 On ch=1 n=74 v=0
20401 On ch=1 n=74 v=86
20430 On ch=1 n=74 v=0
20460 On ch=1 n=74 v=86
20489 On ch=1 n=74 v=0
20521 On ch=1 n=74 v=92
20547 On ch=1 n=74 v=0
20580 On ch=1 n=74 v=90
20607 On ch=1 n=74 v=0
20641 On ch=1 n=74 v=94
20669 On ch=1 n=74 v=0
20702 On ch=1 n=74 v=90
20732 On ch=1 n=74 v=0
20769 On ch=1 n=74 v=95
20794 On ch=1 n=74 v=0
20826 On ch=1 n=74 v=94
20854 On ch=1 n=74 v=0
20888 On ch=1 n=78 v=127
20927 On ch=1 n=78 v=0
21008 On ch=1 n=76 v=117
21064 On ch=1 n=76 v=0
25083 On ch=1 n=81 v=117
25106 On ch=1 n=81 v=0
25139 On ch=1 n=81 v=102
25164 On ch=1 n=81 v=0
25200 On ch=1 n=81 v=114
25242 On ch=1 n=81 v=0
25259 On ch=1 n=78 v=107
25291 On ch=1 n=78 v=0
25317 On ch=1 n=81 v=120
25359 On ch=1 n=81 v=0
25437 On ch=1 n=83 v=117
25473 On ch=1 n=83 v=0
25552 On ch=1 n=85 v=127
25588 On ch=1 n=85 v=0
25617 On ch=1 n=83 v=114
25678 On ch=1 n=83 v=0
26037 On ch=1 n=74 v=106
26064 On ch=1 n=74 v=0
26098 On ch=1 n=74 v=104
26121 On ch=1 n=74 v=0
26154 On ch=1 n=74 v=97
26187 On ch=1 n=74 v=0
26214 On ch=1 n=71 v=97
26251 On ch=1 n=71 v=0
26280 On ch=1 n=74 v=120
26319 On ch=1 n=74 v=0
26397 On ch=1 n=76 v=108
26449 On ch=1 n=76 v=0
26521 On ch=1 n=78 v=127
26558 On ch=1 n=78 v=0
26585 On ch=1 n=76 v=114
26643 On ch=1 n=76 v=0
27000 On ch=1 n=81 v=104
27025 On ch=1 n=81 v=0
27059 On ch=1 n=81 v=102
27084 On ch=1 n=81 v=0
27119 On ch=1 n=81 v=106
27155 On ch=1 n=81 v=0
27180 On ch=1 n=78 v=113
27207 On ch=1 n=78 v=0
27241 On ch=1 n=81 v=110
27277 On ch=1 n=81 v=0
27357 On ch=1 n=83 v=110
27397 On ch=1 n=83 v=0
27472 On ch=1 n=85 v=127
27505 On ch=1 n=85 v=0
27536 On ch=1 n=83 v=112
27604 On ch=1 n=83 v=0
27961 On ch=1 n=74 v=104
27986 On ch=1 n=74 v=0
28017 On ch=1 n=74 v=94
28042 On ch=1 n=74 v=0
28076 On ch=1 n=74 v=90
28113 On ch=1 n=74 v=0
28138 On ch=1 n=71 v=90
28180 On ch=1 n=71 v=0
28201 On ch=1 n=74 v=112
28244 On ch=1 n=74 v=0
28317 On ch=1 n=76 v=106
28359 On ch=1 n=76 v=0
28438 On ch=1 n=78 v=116
28472 On ch=1 n=78 v=0
28501 On ch=1 n=76 v=106
28556 On ch=1 n=76 v=0
28682 On ch=1 n=78 v=110
28713 On ch=1 n=78 v=0
28736 On ch=1 n=76 v=92
28767 On ch=1 n=76 v=0
28799 On ch=1 n=76 v=106
28874 On ch=1 n=76 v=0
28924 On ch=1 n=74 v=108
29118 On ch=1 n=74 v=0
29163 On ch=1 n=78 v=113
29198 On ch=1 n=78 v=0
29222 On ch=1 n=76 v=88
29252 On ch=1 n=76 v=0
29283 On ch=1 n=76 v=102
29359 On ch=1 n=76 v=0
29406 On ch=1 n=74 v=106
29607 On ch=1 n=74 v=0
29645 On ch=1 n=78 v=104
29682 On ch=1 n=78 v=0
29702 On ch=1 n=76 v=91
29728 On ch=1 n=76 v=0
29761 On ch=1 n=76 v=100
29798 On ch=1 n=76 v=0
29821 On ch=1 n=74 v=100
29861 On ch=1 n=74 v=0
29882 On ch=1 n=78 v=107
29916 On ch=1 n=78 v=0
29939 On ch=1 n=76 v=91
29969 On ch=1 n=76 v=0
30001 On ch=1 n=76 v=91
30041 On ch=1 n=76 v=0
30061 On ch=1 n=74 v=102
30100 On ch=1 n=74 v=0
30120 On ch=1 n=78 v=113
30154 On ch=1 n=78 v=0
30179 On ch=1 n=76 v=97
30211 On ch=1 n=76 v=0
30240 On ch=1 n=76 v=108
30318 On ch=1 n=76 v=0
30354 On ch=1 n=74 v=104
30530 On ch=1 n=74 v=0
30596 On ch=1 n=76 v=98
30641 On ch=1 n=76 v=0
30659 On ch=1 n=78 v=123
30684 On ch=1 n=78 v=0
30717 On ch=1 n=79 v=125
30772 On ch=1 n=79 v=0
30891 On ch=1 n=79 v=120
30973 On ch=1 n=79 v=0
31080 On ch=1 n=79 v=127
31132 On ch=1 n=79 v=0
31198 On ch=1 n=78 v=127
31349 On ch=1 n=78 v=0
31383 On ch=1 n=76 v=117
31527 On ch=1 n=76 v=0
31798 On ch=1 n=79 v=120
31821 On ch=1 n=79 v=0
31855 On ch=1 n=79 v=114
31880 On ch=1 n=79 v=0
31915 On ch=1 n=79 v=112
31939 On ch=1 n=79 v=0
31973 On ch=1 n=79 v=104
31997 On ch=1 n=79 v=0
32037 On ch=1 n=79 v=125
32116 On ch=1 n=79 v=0
32148 On ch=1 n=78 v=127
32304 On ch=1 n=78 v=0
32330 On ch=1 n=76 v=122
32502 On ch=1 n=76 v=0
32517 On ch=1 n=79 v=114
32626 On ch=1 n=79 v=0
32641 On ch=1 n=78 v=127
32805 On ch=1 n=78 v=0
32822 On ch=1 n=76 v=125
33030 On ch=1 n=76 v=0
33128 On ch=1 n=81 v=114
33189 On ch=1 n=81 v=0
33244 On ch=1 n=81 v=122
33311 On ch=1 n=81 v=0
33367 On ch=1 n=81 v=127
33456 On ch=1 n=81 v=0
33542 On ch=1 n=81 v=117
33622 On ch=1 n=81 v=0
33656 On ch=1 n=78 v=119
33692 On ch=1 n=78 v=0
33711 On ch=1 n=81 v=117
33755 On ch=1 n=81 v=0
33776 On ch=1 n=83 v=122
33951 On ch=1 n=83 v=0
33962 On ch=1 n=81 v=120
34036 On ch=1 n=81 v=0
34083 On ch=1 n=81 v=122
34142 On ch=1 n=81 v=0
34203 On ch=1 n=81 v=122
34258 On ch=1 n=81 v=0
34321 On ch=1 n=81 v=125
34389 On ch=1 n=81 v=0
34505 On ch=1 n=81 v=117
34584 On ch=1 n=81 v=0
34618 On ch=1 n=78 v=87
34655 On ch=1 n=78 v=0
34674 On ch=1 n=81 v=108
34718 On ch=1 n=81 v=0
34737 On ch=1 n=83 v=125
34897 On ch=1 n=83 v=0
34914 On ch=1 n=81 v=117
34991 On ch=1 n=81 v=0
35103 On ch=1 n=71 v=100
35131 On ch=1 n=71 v=0
35161 On ch=1 n=71 v=102
35197 On ch=1 n=71 v=0
35222 On ch=1 n=73 v=110
35244 On ch=1 n=73 v=0
35284 On ch=1 n=73 v=127
35311 On ch=1 n=73 v=0
35344 On ch=1 n=74 v=106
35371 On ch=1 n=74 v=0
35405 On ch=1 n=76 v=102
35434 On ch=1 n=76 v=0
35465 On ch=1 n=78 v=107
35489 On ch=1 n=78 v=0
35528 On ch=1 n=78 v=116
35561 On ch=1 n=78 v=0
35590 On ch=1 n=79 v=108
35632 On ch=1 n=79 v=0
35711 On ch=1 n=78 v=127
35764 On ch=1 n=78 v=0
35832 On ch=1 n=76 v=127
35905 On ch=1 n=76 v=0
36065 On ch=1 n=71 v=95
36094 On ch=1 n=71 v=0
36123 On ch=1 n=71 v=88
36158 On ch=1 n=71 v=0
36185 On ch=1 n=73 v=101
36208 On ch=1 n=73 v=0
36244 On ch=1 n=73 v=104
36272 On ch=1 n=73 v=0
36301 On ch=1 n=74 v=122
36329 On ch=1 n=74 v=0
36363 On ch=1 n=76 v=106
36385 On ch=1 n=76 v=0
36425 On ch=1 n=78 v=116
36478 On ch=1 n=78 v=0
36539 On ch=1 n=79 v=120
36583 On ch=1 n=79 v=0
36662 On ch=1 n=78 v=127
36720 On ch=1 n=78 v=0
36785 On ch=1 n=76 v=127
36860 On ch=1 n=76 v=0
36964 On ch=1 n=81 v=122
37026 On ch=1 n=81 v=0
37081 On ch=1 n=81 v=125
37137 On ch=1 n=81 v=0
37204 On ch=1 n=81 v=127
37289 On ch=1 n=81 v=0
37382 On ch=1 n=81 v=125
37449 On ch=1 n=81 v=0
37505 On ch=1 n=78 v=127
37533 On ch=1 n=78 v=0
37563 On ch=1 n=81 v=127
37597 On ch=1 n=81 v=0
37620 On ch=1 n=83 v=127
37785 On ch=1 n=83 v=0
37796 On ch=1 n=81 v=122
37872 On ch=1 n=81 v=0
37916 On ch=1 n=81 v=127
37971 On ch=1 n=81 v=0
38037 On ch=1 n=81 v=122
38095 On ch=1 n=81 v=0
38157 On ch=1 n=81 v=125
38245 On ch=1 n=81 v=0
38340 On ch=1 n=81 v=122
38404 On ch=1 n=81 v=0
38454 On ch=1 n=78 v=127
38487 On ch=1 n=78 v=0
38511 On ch=1 n=81 v=122
38551 On ch=1 n=81 v=0
38573 On ch=1 n=83 v=112
38722 On ch=1 n=83 v=0
38749 On ch=1 n=81 v=114
38843 On ch=1 n=81 v=0
38945 On ch=1 n=71 v=112
38976 On ch=1 n=71 v=0
39003 On ch=1 n=71 v=87
39036 On ch=1 n=71 v=0
39059 On ch=1 n=73 v=95
39080 On ch=1 n=73 v=0
39117 On ch=1 n=73 v=101
39148 On ch=1 n=73 v=0
39177 On ch=1 n=74 v=97
39207 On ch=1 n=74 v=0
39235 On ch=1 n=76 v=98
39264 On ch=1 n=76 v=0
39301 On ch=1 n=78 v=116
39356 On ch=1 n=78 v=0
39422 On ch=1 n=79 v=106
39464 On ch=1 n=79 v=0
39545 On ch=1 n=78 v=127
39595 On ch=1 n=78 v=0
39668 On ch=1 n=76 v=120
39730 On ch=1 n=76 v=0
39901 On ch=1 n=71 v=91
39930 On ch=1 n=71 v=0
39957 On ch=1 n=71 v=91
39992 On ch=1 n=71 v=0
40021 On ch=1 n=73 v=101
40046 On ch=1 n=73 v=0
40083 On ch=1 n=73 v=107
40110 On ch=1 n=73 v=0
40138 On ch=1 n=74 v=110
40169 On ch=1 n=74 v=0
40197 On ch=1 n=76 v=100
40226 On ch=1 n=76 v=0
40258 On ch=1 n=78 v=110
40325 On ch=1 n=78 v=0
40377 On ch=1 n=78 v=99
40409 On ch=1 n=78 v=0
40439 On ch=1 n=79 v=98
40473 On ch=1 n=79 v=0
40503 On ch=1 n=78 v=119
40563 On ch=1 n=78 v=0
40620 On ch=1 n=76 v=108
40686 On ch=1 n=76 v=0
40869 On ch=1 n=74 v=91
40895 On ch=1 n=74 v=0
40925 On ch=1 n=74 v=85
40951 On ch=1 n=74 v=0
40987 On ch=1 n=74 v=91
41011 On ch=1 n=74 v=0
41046 On ch=1 n=74 v=91
41072 On ch=1 n=74 v=0
41103 On ch=1 n=74 v=83
41129 On ch=1 n=74 v=0
41164 On ch=1 n=74 v=84
41190 On ch=1 n=74 v=0
41219 On ch=1 n=74 v=84
41243 On ch=1 n=74 v=0
41281 On ch=1 n=76 v=102
41305 On ch=1 n=76 v=0
41340 On ch=1 n=76 v=100
41363 On ch=1 n=76 v=0
41412 On ch=1 n=76 v=110
41432 On ch=1 n=76 v=0
41465 On ch=1 n=76 v=108
41489 On ch=1 n=76 v=0
41528 On ch=1 n=83 v=127
41589 On ch=1 n=83 v=0
41651 On ch=1 n=81 v=127
41715 On ch=1 n=81 v=0
45608 On ch=1 n=83 v=114
45669 On ch=1 n=83 v=0
45724 On ch=1 n=83 v=122
45791 On ch=1 n=83 v=0
45847 On ch=1 n=83 v=127
45936 On ch=1 n=83 v=0
46022 On ch=1 n=83 v=117
46102 On ch=1 n=83 v=0
46136 On ch=1 n=80 v=119
46172 On ch=1 n=80 v=0
46191 On ch=1 n=83 v=117
46235 On ch=1 n=83 v=0
46256 On ch=1 n=85 v=122
46431 On ch=1 n=85 v=0
46442 On ch=1 n=83 v=120
46516 On ch=1 n=83 v=0
46563 On ch=1 n=83 v=122
46622 On ch=1 n=83 v=0
46683 On ch=1 n=83 v=122
46738 On ch=1 n=83 v=0
46801 On ch=1 n=83 v=125
46869 On ch=1 n=83 v=0
46985 On ch=1 n=83 v=117
47064 On ch=1 n=83 v=0
47098 On ch=1 n=80 v=87
47135 On ch=1 n=80 v=0
47154 On ch=1 n=83 v=108
47198 On ch=1 n=83 v=0
47217 On ch=1 n=85 v=125
47377 On ch=1 n=85 v=0
47394 On ch=1 n=83 v=117
47471 On ch=1 n=83 v=0
47583 On ch=1 n=73 v=100
47611 On ch=1 n=73 v=0
47641 On ch=1 n=73 v=102
47677 On ch=1 n=73 v=0
47702 On ch=1 n=75 v=110
47724 On ch=1 n=75 v=0
47764 On ch=1 n=75 v=127
47791 On ch=1 n=75 v=0
47824 On ch=1 n=76 v=106
47851 On ch=1 n=76 v=0
47885 On ch=1 n=78 v=102
47914 On ch=1 n=78 v=0
47945 On ch=1 n=80 v=107
47969 On ch=1 n=80 v=0
48008 On ch=1 n=80 v=116
48041 On ch=1 n=80 v=0
48070 On ch=1 n=81 v=108
48112 On ch=1 n=81 v=0
48191 On ch=1 n=80 v=127
48244 On ch=1 n=80 v=0
48312 On ch=1 n=78 v=127
48385 On ch=1 n=78 v=0
48545 On ch=1 n=73 v=95
48574 On ch=1 n=73 v=0
48603 On ch=1 n=73 v=88
48638 On ch=1 n=73 v=0
48665 On ch=1 n=75 v=101
48688 On ch=1 n=75 v=0
48724 On ch=1 n=75 v=104
48752 On ch=1 n=75 v=0
48781 On ch=1 n=76 v=122
48809 On ch=1 n=76 v=0
48843 On ch=1 n=78 v=106
48865 On ch=1 n=78 v=0
48905 On ch=1 n=80 v=116
48958 On ch=1 n=80 v=0
49019 On ch=1 n=81 v=120
49063 On ch=1 n=81 v=0
49142 On ch=1 n=80 v=127
49200 On ch=1 n=80 v=0
49265 On ch=1 n=78 v=127
49340 On ch=1 n=78 v=0
49444 On ch=1 n=83 v=122
49506 On ch=1 n=83 v=0
49561 On ch=1 n=83 v=125
49617 On ch=1 n=83 v=0
49684 On ch=1 n=83 v=127
49769 On ch=1 n=83 v=0
49862 On ch=1 n=83 v=125
49929 On ch=1 n=83 v=0
49985 On ch=1 n=80 v=127
50013 On ch=1 n=80 v=0
50043 On ch=1 n=83 v=127
50077 On ch=1 n=83 v=0
50100 On ch=1 n=85 v=127
50265 On ch=1 n=85 v=0
50276 On ch=1 n=83 v=122
50352 On ch=1 n=83 v=0
50396 On ch=1 n=83 v=127
50451 On ch=1 n=83 v=0
50517 On ch=1 n=83 v=122
50575 On ch=1 n=83 v=0
50637 On ch=1 n=83 v=125
50725 On ch=1 n=83 v=0
50820 On ch=1 n=83 v=122
50884 On ch=1 n=83 v=0
50934 On ch=1 n=80 v=127
50967 On ch=1 n=80 v=0
50991 On ch=1 n=83 v=122
51031 On ch=1 n=83 v=0
51053 On ch=1 n=85 v=112
51202 On ch=1 n=85 v=0
51229 On ch=1 n=83 v=114
51323 On ch=1 n=83 v=0
51425 On ch=1 n=73 v=112
51456 On ch=1 n=73 v=0
51483 On ch=1 n=73 v=87
51516 On ch=1 n=73 v=0
51539 On ch=1 n=75 v=95
51560 On ch=1 n=75 v=0
51597 On ch=1 n=75 v=101
51628 On ch=1 n=75 v=0
51657 On ch=1 n=76 v=97
51687 On ch=1 n=76 v=0
51715 On ch=1 n=78 v=98
51744 On ch=1 n=78 v=0
51781 On ch=1 n=80 v=116
51836 On ch=1 n=80 v=0
51902 On ch=1 n=81 v=106
51944 On ch=1 n=81 v=0
52025 On ch=1 n=80 v=127
52075 On ch=1 n=80 v=0
52148 On ch=1 n=78 v=120
52210 On ch=1 n=78 v=0
52381 On ch=1 n=73 v=91
52410 On ch=1 n=73 v=0
52437 On ch=1 n=73 v=91
52472 On ch=1 n=73 v=0
52501 On ch=1 n=75 v=101
52526 On ch=1 n=75 v=0
52563 On ch=1 n=75 v=107
52590 On ch=1 n=75 v=0
52618 On ch=1 n=76 v=110
52649 On ch=1 n=76 v=0
52677 On ch=1 n=78 v=100
52706 On ch=1 n=78 v=0
52738 On ch=1 n=80 v=110
52805 On ch=1 n=80 v=0
52857 On ch=1 n=80 v=99
52889 On ch=1 n=80 v=0
52919 On ch=1 n=81 v=98
52953 On ch=1 n=81 v=0
52983 On ch=1 n=80 v=119
53043 On ch=1 n=80 v=0
53100 On ch=1 n=78 v=108
53166 On ch=1 n=78 v=0
53288 On ch=1 n=83 v=114
53349 On ch=1 n=83 v=0
53404 On ch=1 n=83 v=122
53471 On ch=1 n=83 v=0
53527 On ch=1 n=83 v=127
53616 On ch=1 n=83 v=0
53702 On ch=1 n=83 v=117
53782 On ch=1 n=83 v=0
53816 On ch=1 n=80 v=119
53852 On ch=1 n=80 v=0
53871 On ch=1 n=83 v=117
53915 On ch=1 n=83 v=0
53936 On ch=1 n=85 v=122
54111 On ch=1 n=85 v=0
54122 On ch=1 n=83 v=120
54196 On ch=1 n=83 v=0
54243 On ch=1 n=83 v=122
54302 On ch=1 n=83 v=0
54363 On ch=1 n=83 v=122
54418 On ch=1 n=83 v=0
54481 On ch=1 n=83 v=125
54549 On ch=1 n=83 v=0
54665 On ch=1 n=83 v=117
54744 On ch=1 n=83 v=0
54778 On ch=1 n=80 v=87
54815 On ch=1 n=80 v=0
54834 On ch=1 n=83 v=108
54878 On ch=1 n=83 v=0
54897 On ch=1 n=85 v=125
55057 On ch=1 n=85 v=0
55074 On ch=1 n=83 v=117
55151 On ch=1 n=83 v=0
55263 On ch=1 n=73 v=100
55291 On ch=1 n=73 v=0
55321 On ch=1 n=73 v=102
55357 On ch=1 n=73 v=0
55382 On ch=1 n=75 v=110
55404 On ch=1 n=75 v=0
55444 On ch=1 n=75 v=127
55471 On ch=1 n=75 v=0
55504 On ch=1 n=76 v=106
55531 On ch=1 n=76 v=0
55565 On ch=1 n=78 v=102
55594 On ch=1 n=78 v=0
55625 On ch=1 n=80 v=107
55649 On ch=1 n=80 v=0
55688 On ch=1 n=80 v=116
55721 On ch=1 n=80 v=0
55750 On ch=1 n=81 v=108
55792 On ch=1 n=81 v=0
55871 On ch=1 n=80 v=127
55924 On ch=1 n=80 v=0
55992 On ch=1 n=78 v=127
56065 On ch=1 n=78 v=0
56225 On ch=1 n=73 v=95
56254 On ch=1 n=73 v=0
56283 On ch=1 n=73 v=88
56318 On ch=1 n=73 v=0
56345 On ch=1 n=75 v=101
56368 On ch=1 n=75 v=0
56404 On ch=1 n=75 v=104
56432 On ch=1 n=75 v=0
56461 On ch=1 n=76 v=122
56489 On ch=1 n=76 v=0
56523 On ch=1 n=78 v=106
56545 On ch=1 n=78 v=0
56585 On ch=1 n=80 v=116
56638 On ch=1 n=80 v=0
56699 On ch=1 n=81 v=120
56743 On ch=1 n=81 v=0
56822 On ch=1 n=80 v=127
56880 On ch=1 n=80 v=0
56945 On ch=1 n=78 v=127
57020 On ch=1 n=78 v=0
57124 On ch=1 n=83 v=122
57186 On ch=1 n=83 v=0
57241 On ch=1 n=83 v=125
57297 On ch=1 n=83 v=0
57364 On ch=1 n=83 v=127
57449 On ch=1 n=83 v=0
57542 On ch=1 n=83 v=125
57609 On ch=1 n=83 v=0
57665 On ch=1 n=80 v=127
57693 On ch=1 n=80 v=0
57723 On ch=1 n=83 v=127
57757 On ch=1 n=83 v=0
57780 On ch=1 n=85 v=127
57945 On ch=1 n=85 v=0
57956 On ch=1 n=83 v=122
58032 On ch=1 n=83 v=0
58076 On ch=1 n=83 v=127
58131 On ch=1 n=83 v=0
58197 On ch=1 n=83 v=122
58255 On ch=1 n=83 v=0
58317 On ch=1 n=83 v=125
58405 On ch=1 n=83 v=0
58500 On ch=1 n=83 v=122
58564 On ch=1 n=83 v=0
58614 On ch=1 n=80 v=127
58647 On ch=1 n=80 v=0
58671 On ch=1 n=83 v=122
58711 On ch=1 n=83 v=0
58733 On ch=1 n=85 v=112
58882 On ch=1 n=85 v=0
58909 On ch=1 n=83 v=114
59003 On ch=1 n=83 v=0
59105 On ch=1 n=73 v=112
59136 On ch=1 n=73 v=0
59163 On ch=1 n=73 v=87
59196 On ch=1 n=73 v=0
59219 On ch=1 n=75 v=95
59240 On ch=1 n=75 v=0
59277 On ch=1 n=75 v=101
59308 On ch=1 n=75 v=0
59337 On ch=1 n=76 v=97
59367 On ch=1 n=76 v=0
59395 On ch=1 n=78 v=98
59424 On ch=1 n=78 v=0
59461 On ch=1 n=80 v=116
59516 On ch=1 n=80 v=0
59582 On ch=1 n=81 v=106
59624 On ch=1 n=81 v=0
59705 On ch=1 n=80 v=127
59755 On ch=1 n=80 v=0
59828 On ch=1 n=78 v=120
59890 On ch=1 n=78 v=0
60061 On ch=1 n=73 v=91
60090 On ch=1 n=73 v=0
60117 On ch=1 n=73 v=91
60152 On ch=1 n=73 v=0
60181 On ch=1 n=75 v=101
60206 On ch=1 n=75 v=0
60243 On ch=1 n=75 v=107
60270 On ch=1 n=75 v=0
60298 On ch=1 n=76 v=110
60329 On ch=1 n=76 v=0
60357 On ch=1 n=78 v=100
60386 On ch=1 n=78 v=0
60418 On ch=1 n=80 v=110
60485 On ch=1 n=80 v=0
60537 On ch=1 n=80 v=99
60569 On ch=1 n=80 v=0
60599 On ch=1 n=81 v=98
60633 On ch=1 n=81 v=0
60663 On ch=1 n=80 v=119
60723 On ch=1 n=80 v=0
60780 On ch=1 n=78 v=108
60846 On ch=1 n=78 v=0
60968 On ch=1 n=83 v=114
61029 On ch=1 n=83 v=0
61084 On ch=1 n=83 v=122
61151 On ch=1 n=83 v=0
61207 On ch=1 n=83 v=127
61296 On ch=1 n=83 v=0
61382 On ch=1 n=83 v=117
61462 On ch=1 n=83 v=0
61496 On ch=1 n=80 v=119
61532 On ch=1 n=80 v=0
61551 On ch=1 n=83 v=117
61595 On ch=1 n=83 v=0
61616 On ch=1 n=85 v=122
61791 On ch=1 n=85 v=0
61802 On ch=1 n=83 v=120
61876 On ch=1 n=83 v=0
61923 On ch=1 n=83 v=122
61982 On ch=1 n=83 v=0
62043 On ch=1 n=83 v=122
62098 On ch=1 n=83 v=0
62161 On ch=1 n=83 v=125
62229 On ch=1 n=83 v=0
62345 On ch=1 n=83 v=117
62424 On ch=1 n=83 v=0
62458 On ch=1 n=80 v=87
62495 On ch=1 n=80 v=0
62514 On ch=1 n=83 v=108
62558 On ch=1 n=83 v=0
62577 On ch=1 n=85 v=125
62737 On ch=1 n=85 v=0
62754 On ch=1 n=83 v=117
62831 On ch=1 n=83 v=0
62943 On ch=1 n=73 v=100
62971 On ch=1 n=73 v=0
63001 On ch=1 n=73 v=102
63037 On ch=1 n=73 v=0
63062 On ch=1 n=75 v=110
63084 On ch=1 n=75 v=0
63124 On ch=1 n=75 v=127
63151 On ch=1 n=75 v=0
63184 On ch=1 n=76 v=106
63211 On ch=1 n=76 v=0
63245 On ch=1 n=78 v=102
63274 On ch=1 n=78 v=0
63305 On ch=1 n=80 v=107
63329 On ch=1 n=80 v=0
63368 On ch=1 n=80 v=116
63401 On ch=1 n=80 v=0
63430 On ch=1 n=81 v=108
63472 On ch=1 n=81 v=0
63551 On ch=1 n=80 v=127
63604 On ch=1 n=80 v=0
63672 On ch=1 n=78 v=127
63745 On ch=1 n=78 v=0
63905 On ch=1 n=73 v=95
63934 On ch=1 n=73 v=0
63963 On ch=1 n=73 v=88
63998 On ch=1 n=73 v=0
64025 On ch=1 n=75 v=101
64048 On ch=1 n=75 v=0
64084 On ch=1 n=75 v=104
64112 On ch=1 n=75 v=0
64141 On ch=1 n=76 v=122
64169 On ch=1 n=76 v=0
64203 On ch=1 n=78 v=106
64225 On ch=1 n=78 v=0
64265 On ch=1 n=80 v=116
64318 On ch=1 n=80 v=0
64379 On ch=1 n=81 v=120
64423 On ch=1 n=81 v=0
64502 On ch=1 n=80 v=127
64560 On ch=1 n=80 v=0
64625 On ch=1 n=78 v=127
64700 On ch=1 n=78 v=0
64700 Meta TrkEnd
TrkEnd
MTrk
0 Meta 0x21 00
0 PrCh ch=16 p=108
0 Par ch=16 c=7 v=127
0 Par ch=16 c=10 v=65
0 Par ch=16 c=91 v=108
0 Par ch=16 c=93 v=83
7938 Pb ch=16 v=6670
7943 Pb ch=16 v=4798
7948 Pb ch=16 v=3160
7953 Pb ch=16 v=1873
7957 Pb ch=16 v=1405
7962 Pb ch=16 v=1288
7970 On ch=16 n=86 v=127
7981 Pb ch=16 v=1639
7985 Pb ch=16 v=2458
7990 Pb ch=16 v=3979
7995 Pb ch=16 v=5149
8000 Pb ch=16 v=5734
8005 Par ch=16 c=1 v=39
8006 Pb ch=16 v=6085
8009 Par ch=16 c=1 v=44
8010 Pb ch=16 v=6319
8014 Par ch=16 c=1 v=53
8015 Pb ch=16 v=6670
8019 Par ch=16 c=1 v=77
8020 Pb ch=16 v=7138
8024 Par ch=16 c=1 v=98
8025 Pb ch=16 v=7489
8029 Par ch=16 c=1 v=111
8030 Pb ch=16 v=7723
8034 Pb ch=16 v=8192
8038 Par ch=16 c=1 v=121
8048 Par ch=16 c=1 v=127
8130 Par ch=16 c=1 v=121
8136 Par ch=16 c=1 v=104
8140 Par ch=16 c=1 v=70
8145 Par ch=16 c=1 v=53
8150 Par ch=16 c=1 v=43
8155 Par ch=16 c=1 v=3
8160 Par ch=16 c=1 v=0
8183 On ch=16 n=86 v=0
20907 Pb ch=16 v=7723
20912 Pb ch=16 v=6202
20916 Pb ch=16 v=4798
20921 Pb ch=16 v=3511
20926 Pb ch=16 v=2692
20931 Pb ch=16 v=2341
20934 On ch=16 n=86 v=127
20940 Pb ch=16 v=3160
20945 Pb ch=16 v=4798
20950 Pb ch=16 v=6553
20955 Pb ch=16 v=8192
21032 On ch=16 n=86 v=0
28578 Pb ch=16 v=6670
28583 Pb ch=16 v=4798
28588 Pb ch=16 v=3160
28593 Pb ch=16 v=1873
28597 Pb ch=16 v=1405
28602 Pb ch=16 v=1288
28610 On ch=16 n=86 v=127
28621 Pb ch=16 v=1639
28625 Pb ch=16 v=2458
28630 Pb ch=16 v=3979
28635 Pb ch=16 v=5149
28640 Pb ch=16 v=5734
28645 Par ch=16 c=1 v=39
28646 Pb ch=16 v=6085
28649 Par ch=16 c=1 v=44
28650 Pb ch=16 v=6319
28654 Par ch=16 c=1 v=53
28655 Pb ch=16 v=6670
28659 Par ch=16 c=1 v=77
28660 Pb ch=16 v=7138
28664 Par ch=16 c=1 v=98
28665 Pb ch=16 v=7489
28669 Par ch=16 c=1 v=111
28670 Pb ch=16 v=7723
28674 Pb ch=16 v=8192
28678 Par ch=16 c=1 v=121
28688 Par ch=16 c=1 v=127
28770 Par ch=16 c=1 v=121
28776 Par ch=16 c=1 v=104
28780 Par ch=16 c=1 v=70
28785 Par ch=16 c=1 v=53
28790 Par ch=16 c=1 v=43
28795 Par ch=16 c=1 v=3
28800 Par ch=16 c=1 v=0
28823 On ch=16 n=86 v=0
41547 Pb ch=16 v=7723
41552 Pb ch=16 v=6202
41556 Pb ch=16 v=4798
41561 Pb ch=16 v=3511
41566 Pb ch=16 v=2692
41571 Pb ch=16 v=2341
41574 On ch=16 n=86 v=127
41580 Pb ch=16 v=3160
41585 Pb ch=16 v=4798
41590 Pb ch=16 v=6553
41595 Pb ch=16 v=8192
41672 On ch=16 n=86 v=0
41672 Meta TrkEnd
TrkEnd
