MFile 1 8 48
MTrk
0 Meta SeqName "cerises2.MID"
0 TimeSig 4/4 24 8
0 Tempo 441176
0 KeySig 0 major
0 Meta TrkEnd
TrkEnd
MTrk
0 Meta TrkName "Acoustic Guitar (nylon)"
0 PrCh ch=1 p=24
0 Par ch=1 c=7 v=127
0 Par ch=1 c=10 v=87
0 Par ch=1 c=11 v=127
0 Par ch=1 c=91 v=0
0 Par ch=1 c=93 v=0
0 On ch=1 n=80 v=100
48 On ch=1 n=80 v=0
48 On ch=1 n=79 v=100
96 On ch=1 n=79 v=0
96 On ch=1 n=77 v=100
144 On ch=1 n=77 v=0
144 On ch=1 n=75 v=100
192 On ch=1 n=75 v=0
192 On ch=1 n=74 v=100
240 On ch=1 n=74 v=0
240 On ch=1 n=72 v=100
288 On ch=1 n=72 v=0
288 On ch=1 n=74 v=100
336 On ch=1 n=74 v=0
336 On ch=1 n=70 v=100
384 On ch=1 n=70 v=0
384 On ch=1 n=79 v=100
432 On ch=1 n=79 v=0
432 On ch=1 n=77 v=100
480 On ch=1 n=77 v=0
480 On ch=1 n=75 v=100
528 On ch=1 n=75 v=0
528 On ch=1 n=79 v=100
576 On ch=1 n=79 v=0
576 On ch=1 n=72 v=100
768 On ch=1 n=72 v=0
768 On ch=1 n=77 v=100
816 On ch=1 n=77 v=0
816 On ch=1 n=75 v=100
864 On ch=1 n=75 v=0
864 On ch=1 n=74 v=100
912 On ch=1 n=74 v=0
912 On ch=1 n=72 v=100
960 On ch=1 n=72 v=0
960 On ch=1 n=71 v=100
1008 On ch=1 n=71 v=0
1008 On ch=1 n=67 v=100
1056 On ch=1 n=67 v=0
1056 On ch=1 n=74 v=100
1104 On ch=1 n=74 v=0
1104 On ch=1 n=75 v=100
1152 On ch=1 n=75 v=0
1152 On ch=1 n=75 v=100
1344 On ch=1 n=75 v=0
1344 On ch=1 n=76 v=100
1536 On ch=1 n=76 v=0
1536 On ch=1 n=80 v=100
1584 On ch=1 n=80 v=0
1584 On ch=1 n=79 v=100
1632 On ch=1 n=79 v=0
1632 On ch=1 n=77 v=100
1680 On ch=1 n=77 v=0
1680 On ch=1 n=75 v=100
1728 On ch=1 n=75 v=0
1728 On ch=1 n=74 v=100
1776 On ch=1 n=74 v=0
1776 On ch=1 n=72 v=100
1824 On ch=1 n=72 v=0
1824 On ch=1 n=74 v=100
1872 On ch=1 n=74 v=0
1872 On ch=1 n=70 v=100
1920 On ch=1 n=70 v=0
1920 On ch=1 n=79 v=100
1968 On ch=1 n=79 v=0
1968 On ch=1 n=77 v=100
2016 On ch=1 n=77 v=0
2016 On ch=1 n=75 v=100
2064 On ch=1 n=75 v=0
2064 On ch=1 n=79 v=100
2112 On ch=1 n=79 v=0
2112 On ch=1 n=72 v=100
2304 On ch=1 n=72 v=0
2304 On ch=1 n=77 v=100
2352 On ch=1 n=77 v=0
2352 On ch=1 n=75 v=100
2400 On ch=1 n=75 v=0
2400 On ch=1 n=74 v=100
2448 On ch=1 n=74 v=0
2448 On ch=1 n=72 v=100
2496 On ch=1 n=72 v=0
2496 On ch=1 n=71 v=100
2544 On ch=1 n=71 v=0
2544 On ch=1 n=67 v=100
2592 On ch=1 n=67 v=0
2592 On ch=1 n=74 v=100
2640 On ch=1 n=74 v=0
2640 On ch=1 n=75 v=100
2688 On ch=1 n=75 v=0
2688 On ch=1 n=72 v=100
2880 On ch=1 n=72 v=0
2880 On ch=1 n=75 v=100
2880 On ch=1 n=72 v=100
3072 On ch=1 n=75 v=0
3072 On ch=1 n=72 v=0
6144 On ch=1 n=80 v=100
6336 On ch=1 n=80 v=0
6336 On ch=1 n=74 v=100
6528 On ch=1 n=74 v=0
6528 On ch=1 n=79 v=100
6720 On ch=1 n=79 v=0
6720 On ch=1 n=72 v=100
6912 On ch=1 n=72 v=0
6912 On ch=1 n=77 v=100
7104 On ch=1 n=77 v=0
7104 On ch=1 n=71 v=100
7296 On ch=1 n=71 v=0
7296 On ch=1 n=75 v=100
7488 On ch=1 n=75 v=0
7488 On ch=1 n=76 v=100
7680 On ch=1 n=76 v=0
7680 On ch=1 n=80 v=100
7872 On ch=1 n=80 v=0
7872 On ch=1 n=74 v=100
8064 On ch=1 n=74 v=0
8064 On ch=1 n=79 v=100
8256 On ch=1 n=79 v=0
8256 On ch=1 n=72 v=100
8448 On ch=1 n=72 v=0
8448 On ch=1 n=77 v=100
8640 On ch=1 n=77 v=0
8640 On ch=1 n=71 v=100
8832 On ch=1 n=71 v=0
8832 On ch=1 n=72 v=100
9024 On ch=1 n=72 v=0
9024 On ch=1 n=72 v=100
9216 On ch=1 n=72 v=0
12288 On ch=1 n=80 v=100
12480 On ch=1 n=80 v=0
12480 On ch=1 n=74 v=100
12672 On ch=1 n=74 v=0
12672 On ch=1 n=79 v=100
12864 On ch=1 n=79 v=0
12864 On ch=1 n=72 v=100
13056 On ch=1 n=72 v=0
13056 On ch=1 n=77 v=100
13248 On ch=1 n=77 v=0
13248 On ch=1 n=71 v=100
13440 On ch=1 n=71 v=0
13440 On ch=1 n=72 v=100
13632 On ch=1 n=72 v=0
13632 On ch=1 n=76 v=100
13824 On ch=1 n=76 v=0
13824 On ch=1 n=80 v=100
14016 On ch=1 n=80 v=0
14016 On ch=1 n=74 v=100
14208 On ch=1 n=74 v=0
14208 On ch=1 n=79 v=100
14400 On ch=1 n=79 v=0
14400 On ch=1 n=72 v=100
14592 On ch=1 n=72 v=0
14592 On ch=1 n=77 v=100
14784 On ch=1 n=77 v=0
14784 On ch=1 n=71 v=100
14976 On ch=1 n=71 v=0
14976 On ch=1 n=72 v=100
15168 On ch=1 n=72 v=0
15168 On ch=1 n=72 v=100
15360 On ch=1 n=72 v=0
18432 On ch=1 n=80 v=100
18624 On ch=1 n=80 v=0
18624 On ch=1 n=74 v=100
18816 On ch=1 n=74 v=0
18816 On ch=1 n=79 v=100
19008 On ch=1 n=79 v=0
19008 On ch=1 n=72 v=100
19200 On ch=1 n=72 v=0
19200 On ch=1 n=77 v=100
19392 On ch=1 n=77 v=0
19392 On ch=1 n=71 v=100
19584 On ch=1 n=71 v=0
19584 On ch=1 n=72 v=100
19776 On ch=1 n=72 v=0
19776 On ch=1 n=76 v=100
19968 On ch=1 n=76 v=0
19968 On ch=1 n=80 v=100
20160 On ch=1 n=80 v=0
20160 On ch=1 n=74 v=100
20352 On ch=1 n=74 v=0
20352 On ch=1 n=79 v=100
20544 On ch=1 n=79 v=0
20544 On ch=1 n=72 v=100
20736 On ch=1 n=72 v=0
20736 On ch=1 n=77 v=100
20928 On ch=1 n=77 v=0
20928 On ch=1 n=71 v=100
21120 On ch=1 n=71 v=0
21120 On ch=1 n=72 v=100
21312 On ch=1 n=72 v=0
21312 On ch=1 n=72 v=100
21504 On ch=1 n=72 v=0
24576 On ch=1 n=80 v=100
24768 On ch=1 n=80 v=0
24768 On ch=1 n=74 v=100
24960 On ch=1 n=74 v=0
24960 On ch=1 n=79 v=100
25152 On ch=1 n=79 v=0
25152 On ch=1 n=72 v=100
25344 On ch=1 n=72 v=0
25344 On ch=1 n=77 v=100
25536 On ch=1 n=77 v=0
25536 On ch=1 n=71 v=100
25728 On ch=1 n=71 v=0
25728 On ch=1 n=72 v=100
25920 On ch=1 n=72 v=0
25920 On ch=1 n=76 v=100
26112 On ch=1 n=76 v=0
26112 On ch=1 n=80 v=100
26304 On ch=1 n=80 v=0
26304 On ch=1 n=74 v=100
26496 On ch=1 n=74 v=0
26496 On ch=1 n=79 v=100
26688 On ch=1 n=79 v=0
26688 On ch=1 n=72 v=100
26880 On ch=1 n=72 v=0
26880 On ch=1 n=77 v=100
27072 On ch=1 n=77 v=0
27072 On ch=1 n=71 v=100
27264 On ch=1 n=71 v=0
27264 On ch=1 n=72 v=100
27456 On ch=1 n=72 v=0
27456 On ch=1 n=72 v=100
27648 On ch=1 n=72 v=0
30720 On ch=1 n=80 v=100
30912 On ch=1 n=80 v=0
30912 On ch=1 n=74 v=100
31104 On ch=1 n=74 v=0
31104 On ch=1 n=79 v=100
31296 On ch=1 n=79 v=0
31296 On ch=1 n=72 v=100
31488 On ch=1 n=72 v=0
31488 On ch=1 n=77 v=100
31680 On ch=1 n=77 v=0
31680 On ch=1 n=71 v=100
31872 On ch=1 n=71 v=0
31872 On ch=1 n=72 v=100
32064 On ch=1 n=72 v=0
32064 On ch=1 n=76 v=100
32256 On ch=1 n=76 v=0
32256 On ch=1 n=80 v=100
32448 On ch=1 n=80 v=0
32448 On ch=1 n=74 v=100
32640 On ch=1 n=74 v=0
32640 On ch=1 n=79 v=100
32832 On ch=1 n=79 v=0
32832 On ch=1 n=72 v=100
33024 On ch=1 n=72 v=0
33024 On ch=1 n=77 v=100
33216 On ch=1 n=77 v=0
33216 On ch=1 n=71 v=100
33408 On ch=1 n=71 v=0
33408 On ch=1 n=72 v=100
33600 On ch=1 n=72 v=0
33600 On ch=1 n=72 v=100
33792 On ch=1 n=72 v=0
36864 On ch=1 n=80 v=100
37056 On ch=1 n=80 v=0
37056 On ch=1 n=74 v=100
37248 On ch=1 n=74 v=0
37248 On ch=1 n=79 v=100
37440 On ch=1 n=79 v=0
37440 On ch=1 n=72 v=100
37632 On ch=1 n=72 v=0
37632 On ch=1 n=77 v=100
37824 On ch=1 n=77 v=0
37824 On ch=1 n=71 v=100
38016 On ch=1 n=71 v=0
38016 On ch=1 n=72 v=100
38208 On ch=1 n=72 v=0
38208 On ch=1 n=76 v=100
38400 On ch=1 n=76 v=0
38400 On ch=1 n=80 v=100
38592 On ch=1 n=80 v=0
38592 On ch=1 n=74 v=100
38784 On ch=1 n=74 v=0
38784 On ch=1 n=79 v=100
38976 On ch=1 n=79 v=0
38976 On ch=1 n=72 v=100
39168 On ch=1 n=72 v=0
39168 On ch=1 n=77 v=100
39360 On ch=1 n=77 v=0
39360 On ch=1 n=71 v=100
39552 On ch=1 n=71 v=0
39552 On ch=1 n=72 v=100
39744 On ch=1 n=72 v=0
39744 On ch=1 n=72 v=100
39936 On ch=1 n=72 v=0
39936 Meta TrkEnd
TrkEnd
MTrk
0 Meta TrkName "Acoustic Bass"
0 PrCh ch=2 p=32
0 Par ch=2 c=7 v=100
0 Par ch=2 c=10 v=64
0 Par ch=2 c=11 v=127
0 Par ch=2 c=91 v=0
0 Par ch=2 c=93 v=0
0 Par ch=2 c=7 v=127
0 Par ch=2 c=10 v=64
0 On ch=2 n=41 v=117
67 On ch=2 n=41 v=0
72 On ch=2 n=56 v=99
167 On ch=2 n=56 v=0
168 On ch=2 n=36 v=86
181 On ch=2 n=36 v=0
192 On ch=2 n=46 v=120
260 On ch=2 n=46 v=0
264 On ch=2 n=53 v=101
309 On ch=2 n=53 v=0
312 On ch=2 n=38 v=90
336 On ch=2 n=46 v=86
338 On ch=2 n=38 v=0
360 On ch=2 n=53 v=97
363 On ch=2 n=46 v=0
382 On ch=2 n=53 v=0
384 On ch=2 n=39 v=101
455 On ch=2 n=39 v=0
456 On ch=2 n=55 v=104
547 On ch=2 n=55 v=0
552 On ch=2 n=46 v=92
562 On ch=2 n=46 v=0
564 On ch=2 n=39 v=88
573 On ch=2 n=39 v=0
576 On ch=2 n=44 v=120
644 On ch=2 n=44 v=0
648 On ch=2 n=51 v=101
693 On ch=2 n=51 v=0
696 On ch=2 n=36 v=90
720 On ch=2 n=44 v=86
722 On ch=2 n=36 v=0
744 On ch=2 n=51 v=97
747 On ch=2 n=44 v=0
766 On ch=2 n=51 v=0
768 On ch=2 n=41 v=117
835 On ch=2 n=41 v=0
840 On ch=2 n=56 v=99
935 On ch=2 n=56 v=0
936 On ch=2 n=36 v=86
949 On ch=2 n=36 v=0
960 On ch=2 n=43 v=101
1031 On ch=2 n=43 v=0
1032 On ch=2 n=59 v=104
1123 On ch=2 n=59 v=0
1128 On ch=2 n=38 v=92
1138 On ch=2 n=38 v=0
1140 On ch=2 n=38 v=88
1149 On ch=2 n=38 v=0
1152 On ch=2 n=36 v=120
1220 On ch=2 n=36 v=0
1224 On ch=2 n=51 v=101
1269 On ch=2 n=51 v=0
1272 On ch=2 n=43 v=90
1296 On ch=2 n=43 v=86
1298 On ch=2 n=43 v=0
1320 On ch=2 n=48 v=97
1323 On ch=2 n=43 v=0
1342 On ch=2 n=48 v=0
1344 On ch=2 n=36 v=117
1411 On ch=2 n=36 v=0
1416 On ch=2 n=52 v=99
1511 On ch=2 n=52 v=0
1512 On ch=2 n=43 v=86
1525 On ch=2 n=43 v=0
1536 On ch=2 n=41 v=101
1607 On ch=2 n=41 v=0
1608 On ch=2 n=56 v=104
1699 On ch=2 n=56 v=0
1704 On ch=2 n=36 v=92
1714 On ch=2 n=36 v=0
1716 On ch=2 n=36 v=88
1725 On ch=2 n=36 v=0
1728 On ch=2 n=46 v=120
1796 On ch=2 n=46 v=0
1800 On ch=2 n=53 v=101
1845 On ch=2 n=53 v=0
1848 On ch=2 n=38 v=90
1872 On ch=2 n=46 v=86
1874 On ch=2 n=38 v=0
1896 On ch=2 n=53 v=97
1899 On ch=2 n=46 v=0
1918 On ch=2 n=53 v=0
1920 On ch=2 n=39 v=117
1987 On ch=2 n=39 v=0
1992 On ch=2 n=55 v=99
2087 On ch=2 n=55 v=0
2088 On ch=2 n=46 v=86
2101 On ch=2 n=46 v=0
2112 On ch=2 n=44 v=120
2180 On ch=2 n=44 v=0
2184 On ch=2 n=51 v=101
2229 On ch=2 n=51 v=0
2232 On ch=2 n=36 v=90
2256 On ch=2 n=44 v=86
2258 On ch=2 n=36 v=0
2280 On ch=2 n=51 v=97
2283 On ch=2 n=44 v=0
2302 On ch=2 n=51 v=0
2304 On ch=2 n=41 v=101
2375 On ch=2 n=41 v=0
2376 On ch=2 n=56 v=104
2467 On ch=2 n=56 v=0
2472 On ch=2 n=36 v=92
2482 On ch=2 n=36 v=0
2484 On ch=2 n=36 v=88
2493 On ch=2 n=36 v=0
2496 On ch=2 n=43 v=101
2567 On ch=2 n=43 v=0
2568 On ch=2 n=59 v=104
2659 On ch=2 n=59 v=0
2664 On ch=2 n=38 v=92
2674 On ch=2 n=38 v=0
2676 On ch=2 n=38 v=88
2685 On ch=2 n=38 v=0
2688 On ch=2 n=36 v=101
2759 On ch=2 n=36 v=0
2760 On ch=2 n=51 v=104
2851 On ch=2 n=51 v=0
2856 On ch=2 n=43 v=92
2866 On ch=2 n=43 v=0
2868 On ch=2 n=43 v=88
2877 On ch=2 n=43 v=0
2880 On ch=2 n=36 v=101
2951 On ch=2 n=36 v=0
2952 On ch=2 n=51 v=104
3043 On ch=2 n=51 v=0
3048 On ch=2 n=43 v=92
3058 On ch=2 n=43 v=0
3060 On ch=2 n=43 v=88
3069 On ch=2 n=43 v=0
3072 On ch=2 n=36 v=117
3139 On ch=2 n=36 v=0
3144 On ch=2 n=51 v=99
3239 On ch=2 n=51 v=0
3240 On ch=2 n=43 v=86
3253 On ch=2 n=43 v=0
3264 On ch=2 n=41 v=120
3332 On ch=2 n=41 v=0
3336 On ch=2 n=56 v=101
3381 On ch=2 n=56 v=0
3384 On ch=2 n=36 v=90
3408 On ch=2 n=41 v=86
3410 On ch=2 n=36 v=0
3432 On ch=2 n=56 v=97
3435 On ch=2 n=41 v=0
3454 On ch=2 n=56 v=0
3456 On ch=2 n=43 v=101
3527 On ch=2 n=43 v=0
3528 On ch=2 n=59 v=104
3619 On ch=2 n=59 v=0
3624 On ch=2 n=38 v=92
3634 On ch=2 n=38 v=0
3636 On ch=2 n=38 v=88
3645 On ch=2 n=38 v=0
3648 On ch=2 n=36 v=117
3715 On ch=2 n=36 v=0
3720 On ch=2 n=51 v=99
3815 On ch=2 n=51 v=0
3816 On ch=2 n=43 v=86
3829 On ch=2 n=43 v=0
3840 On ch=2 n=39 v=117
3907 On ch=2 n=39 v=0
3912 On ch=2 n=55 v=99
4007 On ch=2 n=55 v=0
4008 On ch=2 n=46 v=86
4021 On ch=2 n=46 v=0
4032 On ch=2 n=41 v=101
4103 On ch=2 n=41 v=0
4104 On ch=2 n=56 v=104
4195 On ch=2 n=56 v=0
4200 On ch=2 n=36 v=92
4210 On ch=2 n=36 v=0
4212 On ch=2 n=36 v=88
4221 On ch=2 n=36 v=0
4224 On ch=2 n=46 v=117
4291 On ch=2 n=46 v=0
4296 On ch=2 n=53 v=99
4391 On ch=2 n=53 v=0
4392 On ch=2 n=38 v=86
4405 On ch=2 n=38 v=0
4416 On ch=2 n=39 v=120
4484 On ch=2 n=39 v=0
4488 On ch=2 n=55 v=101
4533 On ch=2 n=55 v=0
4536 On ch=2 n=46 v=90
4560 On ch=2 n=39 v=86
4562 On ch=2 n=46 v=0
4584 On ch=2 n=55 v=97
4587 On ch=2 n=39 v=0
4606 On ch=2 n=55 v=0
4608 On ch=2 n=39 v=120
4676 On ch=2 n=39 v=0
4680 On ch=2 n=55 v=101
4725 On ch=2 n=55 v=0
4728 On ch=2 n=46 v=90
4752 On ch=2 n=39 v=86
4754 On ch=2 n=46 v=0
4776 On ch=2 n=55 v=97
4779 On ch=2 n=39 v=0
4798 On ch=2 n=55 v=0
4800 On ch=2 n=47 v=120
4868 On ch=2 n=47 v=0
4872 On ch=2 n=53 v=101
4917 On ch=2 n=53 v=0
4920 On ch=2 n=38 v=90
4944 On ch=2 n=47 v=86
4946 On ch=2 n=38 v=0
4968 On ch=2 n=53 v=97
4971 On ch=2 n=47 v=0
4990 On ch=2 n=53 v=0
4992 On ch=2 n=41 v=101
5063 On ch=2 n=41 v=0
5064 On ch=2 n=56 v=104
5155 On ch=2 n=56 v=0
5160 On ch=2 n=47 v=92
5170 On ch=2 n=47 v=0
5172 On ch=2 n=41 v=88
5181 On ch=2 n=41 v=0
5184 On ch=2 n=36 v=101
5255 On ch=2 n=36 v=0
5256 On ch=2 n=51 v=104
5347 On ch=2 n=51 v=0
5352 On ch=2 n=43 v=92
5362 On ch=2 n=43 v=0
5364 On ch=2 n=43 v=88
5373 On ch=2 n=43 v=0
5376 On ch=2 n=36 v=120
5444 On ch=2 n=36 v=0
5448 On ch=2 n=51 v=101
5493 On ch=2 n=51 v=0
5496 On ch=2 n=43 v=90
5520 On ch=2 n=43 v=86
5522 On ch=2 n=43 v=0
5544 On ch=2 n=48 v=97
5547 On ch=2 n=43 v=0
5566 On ch=2 n=48 v=0
5568 On ch=2 n=41 v=120
5636 On ch=2 n=41 v=0
5640 On ch=2 n=56 v=101
5685 On ch=2 n=56 v=0
5688 On ch=2 n=36 v=90
5712 On ch=2 n=41 v=86
5714 On ch=2 n=36 v=0
5736 On ch=2 n=56 v=97
5739 On ch=2 n=41 v=0
5758 On ch=2 n=56 v=0
5760 On ch=2 n=43 v=117
5827 On ch=2 n=43 v=0
5832 On ch=2 n=53 v=99
5927 On ch=2 n=53 v=0
5928 On ch=2 n=47 v=86
5941 On ch=2 n=47 v=0
5952 On ch=2 n=36 v=101
6023 On ch=2 n=36 v=0
6024 On ch=2 n=51 v=104
6115 On ch=2 n=51 v=0
6120 On ch=2 n=43 v=92
6130 On ch=2 n=43 v=0
6132 On ch=2 n=43 v=88
6141 On ch=2 n=43 v=0
6144 On ch=2 n=41 v=120
6212 On ch=2 n=41 v=0
6216 On ch=2 n=56 v=101
6261 On ch=2 n=56 v=0
6264 On ch=2 n=36 v=90
6288 On ch=2 n=41 v=86
6290 On ch=2 n=36 v=0
6312 On ch=2 n=56 v=97
6315 On ch=2 n=41 v=0
6334 On ch=2 n=56 v=0
6336 On ch=2 n=46 v=101
6407 On ch=2 n=46 v=0
6408 On ch=2 n=53 v=104
6499 On ch=2 n=53 v=0
6504 On ch=2 n=38 v=92
6514 On ch=2 n=38 v=0
6516 On ch=2 n=41 v=88
6525 On ch=2 n=41 v=0
6528 On ch=2 n=39 v=117
6595 On ch=2 n=39 v=0
6600 On ch=2 n=55 v=99
6695 On ch=2 n=55 v=0
6696 On ch=2 n=46 v=86
6709 On ch=2 n=46 v=0
6720 On ch=2 n=44 v=101
6791 On ch=2 n=44 v=0
6792 On ch=2 n=51 v=104
6883 On ch=2 n=51 v=0
6888 On ch=2 n=36 v=92
6898 On ch=2 n=36 v=0
6900 On ch=2 n=39 v=88
6909 On ch=2 n=39 v=0
6912 On ch=2 n=41 v=117
6979 On ch=2 n=41 v=0
6984 On ch=2 n=56 v=99
7079 On ch=2 n=56 v=0
7080 On ch=2 n=36 v=86
7093 On ch=2 n=36 v=0
7104 On ch=2 n=43 v=117
7171 On ch=2 n=43 v=0
7176 On ch=2 n=59 v=99
7271 On ch=2 n=59 v=0
7272 On ch=2 n=38 v=86
7285 On ch=2 n=38 v=0
7296 On ch=2 n=36 v=101
7367 On ch=2 n=36 v=0
7368 On ch=2 n=51 v=104
7459 On ch=2 n=51 v=0
7464 On ch=2 n=43 v=92
7474 On ch=2 n=43 v=0
7476 On ch=2 n=43 v=88
7485 On ch=2 n=43 v=0
7488 On ch=2 n=36 v=117
7555 On ch=2 n=36 v=0
7560 On ch=2 n=52 v=99
7655 On ch=2 n=52 v=0
7656 On ch=2 n=43 v=86
7669 On ch=2 n=43 v=0
7680 On ch=2 n=41 v=117
7747 On ch=2 n=41 v=0
7752 On ch=2 n=56 v=99
7847 On ch=2 n=56 v=0
7848 On ch=2 n=36 v=86
7861 On ch=2 n=36 v=0
7872 On ch=2 n=46 v=120
7940 On ch=2 n=46 v=0
7944 On ch=2 n=53 v=101
7989 On ch=2 n=53 v=0
7992 On ch=2 n=38 v=90
8016 On ch=2 n=46 v=86
8018 On ch=2 n=38 v=0
8040 On ch=2 n=53 v=97
8043 On ch=2 n=46 v=0
8062 On ch=2 n=53 v=0
8064 On ch=2 n=39 v=101
8135 On ch=2 n=39 v=0
8136 On ch=2 n=55 v=104
8227 On ch=2 n=55 v=0
8232 On ch=2 n=46 v=92
8242 On ch=2 n=46 v=0
8244 On ch=2 n=39 v=88
8253 On ch=2 n=39 v=0
8256 On ch=2 n=44 v=120
8324 On ch=2 n=44 v=0
8328 On ch=2 n=51 v=101
8373 On ch=2 n=51 v=0
8376 On ch=2 n=36 v=90
8400 On ch=2 n=44 v=86
8402 On ch=2 n=36 v=0
8424 On ch=2 n=51 v=97
8427 On ch=2 n=44 v=0
8446 On ch=2 n=51 v=0
8448 On ch=2 n=41 v=117
8515 On ch=2 n=41 v=0
8520 On ch=2 n=56 v=99
8615 On ch=2 n=56 v=0
8616 On ch=2 n=36 v=86
8629 On ch=2 n=36 v=0
8640 On ch=2 n=43 v=117
8707 On ch=2 n=43 v=0
8712 On ch=2 n=59 v=99
8807 On ch=2 n=59 v=0
8808 On ch=2 n=38 v=86
8821 On ch=2 n=38 v=0
8832 On ch=2 n=36 v=101
8903 On ch=2 n=36 v=0
8904 On ch=2 n=51 v=104
8995 On ch=2 n=51 v=0
9000 On ch=2 n=43 v=92
9010 On ch=2 n=43 v=0
9012 On ch=2 n=43 v=88
9021 On ch=2 n=43 v=0
9024 On ch=2 n=36 v=117
9091 On ch=2 n=36 v=0
9096 On ch=2 n=51 v=99
9191 On ch=2 n=51 v=0
9192 On ch=2 n=43 v=86
9205 On ch=2 n=43 v=0
9216 On ch=2 n=36 v=101
9287 On ch=2 n=36 v=0
9288 On ch=2 n=51 v=104
9379 On ch=2 n=51 v=0
9384 On ch=2 n=43 v=92
9394 On ch=2 n=43 v=0
9396 On ch=2 n=43 v=88
9405 On ch=2 n=43 v=0
9408 On ch=2 n=41 v=120
9476 On ch=2 n=41 v=0
9480 On ch=2 n=56 v=101
9525 On ch=2 n=56 v=0
9528 On ch=2 n=36 v=90
9552 On ch=2 n=41 v=86
9554 On ch=2 n=36 v=0
9576 On ch=2 n=56 v=97
9579 On ch=2 n=41 v=0
9598 On ch=2 n=56 v=0
9600 On ch=2 n=43 v=117
9667 On ch=2 n=43 v=0
9672 On ch=2 n=59 v=99
9767 On ch=2 n=59 v=0
9768 On ch=2 n=38 v=86
9781 On ch=2 n=38 v=0
9792 On ch=2 n=36 v=101
9863 On ch=2 n=36 v=0
9864 On ch=2 n=51 v=104
9955 On ch=2 n=51 v=0
9960 On ch=2 n=43 v=92
9970 On ch=2 n=43 v=0
9972 On ch=2 n=43 v=88
9981 On ch=2 n=43 v=0
9984 On ch=2 n=39 v=117
10051 On ch=2 n=39 v=0
10056 On ch=2 n=55 v=99
10151 On ch=2 n=55 v=0
10152 On ch=2 n=46 v=86
10165 On ch=2 n=46 v=0
10176 On ch=2 n=41 v=120
10244 On ch=2 n=41 v=0
10248 On ch=2 n=56 v=101
10293 On ch=2 n=56 v=0
10296 On ch=2 n=36 v=90
10320 On ch=2 n=41 v=86
10322 On ch=2 n=36 v=0
10344 On ch=2 n=56 v=97
10347 On ch=2 n=41 v=0
10366 On ch=2 n=56 v=0
10368 On ch=2 n=46 v=101
10439 On ch=2 n=46 v=0
10440 On ch=2 n=53 v=104
10531 On ch=2 n=53 v=0
10536 On ch=2 n=38 v=92
10546 On ch=2 n=38 v=0
10548 On ch=2 n=41 v=88
10557 On ch=2 n=41 v=0
10560 On ch=2 n=39 v=120
10628 On ch=2 n=39 v=0
10632 On ch=2 n=55 v=101
10677 On ch=2 n=55 v=0
10680 On ch=2 n=46 v=90
10704 On ch=2 n=39 v=86
10706 On ch=2 n=46 v=0
10728 On ch=2 n=55 v=97
10731 On ch=2 n=39 v=0
10750 On ch=2 n=55 v=0
10752 On ch=2 n=39 v=101
10823 On ch=2 n=39 v=0
10824 On ch=2 n=55 v=104
10915 On ch=2 n=55 v=0
10920 On ch=2 n=46 v=92
10930 On ch=2 n=46 v=0
10932 On ch=2 n=39 v=88
10941 On ch=2 n=39 v=0
10944 On ch=2 n=47 v=101
11015 On ch=2 n=47 v=0
11016 On ch=2 n=53 v=104
11107 On ch=2 n=53 v=0
11112 On ch=2 n=38 v=92
11122 On ch=2 n=38 v=0
11124 On ch=2 n=41 v=88
11133 On ch=2 n=41 v=0
11136 On ch=2 n=41 v=120
11204 On ch=2 n=41 v=0
11208 On ch=2 n=56 v=101
11253 On ch=2 n=56 v=0
11256 On ch=2 n=47 v=90
11280 On ch=2 n=41 v=86
11282 On ch=2 n=47 v=0
11304 On ch=2 n=56 v=97
11307 On ch=2 n=41 v=0
11326 On ch=2 n=56 v=0
11328 On ch=2 n=36 v=117
11395 On ch=2 n=36 v=0
11400 On ch=2 n=51 v=99
11495 On ch=2 n=51 v=0
11496 On ch=2 n=43 v=86
11509 On ch=2 n=43 v=0
11520 On ch=2 n=36 v=117
11587 On ch=2 n=36 v=0
11592 On ch=2 n=51 v=99
11687 On ch=2 n=51 v=0
11688 On ch=2 n=43 v=86
11701 On ch=2 n=43 v=0
11712 On ch=2 n=41 v=101
11783 On ch=2 n=41 v=0
11784 On ch=2 n=56 v=104
11875 On ch=2 n=56 v=0
11880 On ch=2 n=36 v=92
11890 On ch=2 n=36 v=0
11892 On ch=2 n=36 v=88
11901 On ch=2 n=36 v=0
11904 On ch=2 n=43 v=117
11971 On ch=2 n=43 v=0
11976 On ch=2 n=53 v=99
12071 On ch=2 n=53 v=0
12072 On ch=2 n=47 v=86
12085 On ch=2 n=47 v=0
12096 On ch=2 n=36 v=117
12163 On ch=2 n=36 v=0
12168 On ch=2 n=51 v=99
12263 On ch=2 n=51 v=0
12264 On ch=2 n=43 v=86
12277 On ch=2 n=43 v=0
12288 On ch=2 n=41 v=120
12356 On ch=2 n=41 v=0
12360 On ch=2 n=56 v=101
12405 On ch=2 n=56 v=0
12408 On ch=2 n=36 v=90
12432 On ch=2 n=41 v=86
12434 On ch=2 n=36 v=0
12456 On ch=2 n=56 v=97
12459 On ch=2 n=41 v=0
12478 On ch=2 n=56 v=0
12480 On ch=2 n=46 v=101
12551 On ch=2 n=46 v=0
12552 On ch=2 n=53 v=104
12643 On ch=2 n=53 v=0
12648 On ch=2 n=38 v=92
12658 On ch=2 n=38 v=0
12660 On ch=2 n=41 v=88
12669 On ch=2 n=41 v=0
12672 On ch=2 n=39 v=101
12743 On ch=2 n=39 v=0
12744 On ch=2 n=55 v=104
12835 On ch=2 n=55 v=0
12840 On ch=2 n=46 v=92
12850 On ch=2 n=46 v=0
12852 On ch=2 n=39 v=88
12861 On ch=2 n=39 v=0
12864 On ch=2 n=44 v=101
12935 On ch=2 n=44 v=0
12936 On ch=2 n=51 v=104
13027 On ch=2 n=51 v=0
13032 On ch=2 n=36 v=92
13042 On ch=2 n=36 v=0
13044 On ch=2 n=39 v=88
13053 On ch=2 n=39 v=0
13056 On ch=2 n=41 v=117
13123 On ch=2 n=41 v=0
13128 On ch=2 n=56 v=99
13223 On ch=2 n=56 v=0
13224 On ch=2 n=36 v=86
13237 On ch=2 n=36 v=0
13248 On ch=2 n=43 v=117
13315 On ch=2 n=43 v=0
13320 On ch=2 n=59 v=99
13415 On ch=2 n=59 v=0
13416 On ch=2 n=38 v=86
13429 On ch=2 n=38 v=0
13440 On ch=2 n=36 v=120
13508 On ch=2 n=36 v=0
13512 On ch=2 n=51 v=101
13557 On ch=2 n=51 v=0
13560 On ch=2 n=43 v=90
13584 On ch=2 n=43 v=86
13586 On ch=2 n=43 v=0
13608 On ch=2 n=48 v=97
13611 On ch=2 n=43 v=0
13630 On ch=2 n=48 v=0
13632 On ch=2 n=36 v=101
13703 On ch=2 n=36 v=0
13704 On ch=2 n=52 v=104
13795 On ch=2 n=52 v=0
13800 On ch=2 n=43 v=92
13810 On ch=2 n=43 v=0
13812 On ch=2 n=43 v=88
13821 On ch=2 n=43 v=0
13824 On ch=2 n=41 v=117
13891 On ch=2 n=41 v=0
13896 On ch=2 n=56 v=99
13991 On ch=2 n=56 v=0
13992 On ch=2 n=36 v=86
14005 On ch=2 n=36 v=0
14016 On ch=2 n=46 v=120
14084 On ch=2 n=46 v=0
14088 On ch=2 n=53 v=101
14133 On ch=2 n=53 v=0
14136 On ch=2 n=38 v=90
14160 On ch=2 n=46 v=86
14162 On ch=2 n=38 v=0
14184 On ch=2 n=53 v=97
14187 On ch=2 n=46 v=0
14206 On ch=2 n=53 v=0
14208 On ch=2 n=39 v=101
14279 On ch=2 n=39 v=0
14280 On ch=2 n=55 v=104
14371 On ch=2 n=55 v=0
14376 On ch=2 n=46 v=92
14386 On ch=2 n=46 v=0
14388 On ch=2 n=39 v=88
14397 On ch=2 n=39 v=0
14400 On ch=2 n=44 v=101
14471 On ch=2 n=44 v=0
14472 On ch=2 n=51 v=104
14563 On ch=2 n=51 v=0
14568 On ch=2 n=36 v=92
14578 On ch=2 n=36 v=0
14580 On ch=2 n=39 v=88
14589 On ch=2 n=39 v=0
14592 On ch=2 n=41 v=101
14663 On ch=2 n=41 v=0
14664 On ch=2 n=56 v=104
14755 On ch=2 n=56 v=0
14760 On ch=2 n=36 v=92
14770 On ch=2 n=36 v=0
14772 On ch=2 n=36 v=88
14781 On ch=2 n=36 v=0
14784 On ch=2 n=43 v=120
14852 On ch=2 n=43 v=0
14856 On ch=2 n=59 v=101
14901 On ch=2 n=59 v=0
14904 On ch=2 n=38 v=90
14928 On ch=2 n=43 v=86
14930 On ch=2 n=38 v=0
14952 On ch=2 n=59 v=97
14955 On ch=2 n=43 v=0
14974 On ch=2 n=59 v=0
14976 On ch=2 n=36 v=101
15047 On ch=2 n=36 v=0
15048 On ch=2 n=51 v=104
15139 On ch=2 n=51 v=0
15144 On ch=2 n=43 v=92
15154 On ch=2 n=43 v=0
15156 On ch=2 n=43 v=88
15165 On ch=2 n=43 v=0
15168 On ch=2 n=36 v=120
15236 On ch=2 n=36 v=0
15240 On ch=2 n=51 v=101
15285 On ch=2 n=51 v=0
15288 On ch=2 n=43 v=90
15312 On ch=2 n=43 v=86
15314 On ch=2 n=43 v=0
15336 On ch=2 n=48 v=97
15339 On ch=2 n=43 v=0
15358 On ch=2 n=48 v=0
15360 On ch=2 n=36 v=117
15427 On ch=2 n=36 v=0
15432 On ch=2 n=51 v=99
15527 On ch=2 n=51 v=0
15528 On ch=2 n=43 v=86
15541 On ch=2 n=43 v=0
15552 On ch=2 n=41 v=101
15623 On ch=2 n=41 v=0
15624 On ch=2 n=56 v=104
15715 On ch=2 n=56 v=0
15720 On ch=2 n=36 v=92
15730 On ch=2 n=36 v=0
15732 On ch=2 n=36 v=88
15741 On ch=2 n=36 v=0
15744 On ch=2 n=43 v=117
15811 On ch=2 n=43 v=0
15816 On ch=2 n=59 v=99
15911 On ch=2 n=59 v=0
15912 On ch=2 n=38 v=86
15925 On ch=2 n=38 v=0
15936 On ch=2 n=36 v=117
16003 On ch=2 n=36 v=0
16008 On ch=2 n=51 v=99
16103 On ch=2 n=51 v=0
16104 On ch=2 n=43 v=86
16117 On ch=2 n=43 v=0
16128 On ch=2 n=39 v=120
16196 On ch=2 n=39 v=0
16200 On ch=2 n=55 v=101
16245 On ch=2 n=55 v=0
16248 On ch=2 n=46 v=90
16272 On ch=2 n=39 v=86
16274 On ch=2 n=46 v=0
16296 On ch=2 n=55 v=97
16299 On ch=2 n=39 v=0
16318 On ch=2 n=55 v=0
16320 On ch=2 n=41 v=117
16387 On ch=2 n=41 v=0
16392 On ch=2 n=56 v=99
16487 On ch=2 n=56 v=0
16488 On ch=2 n=36 v=86
16501 On ch=2 n=36 v=0
16512 On ch=2 n=46 v=120
16580 On ch=2 n=46 v=0
16584 On ch=2 n=53 v=101
16629 On ch=2 n=53 v=0
16632 On ch=2 n=38 v=90
16656 On ch=2 n=46 v=86
16658 On ch=2 n=38 v=0
16680 On ch=2 n=53 v=97
16683 On ch=2 n=46 v=0
16702 On ch=2 n=53 v=0
16704 On ch=2 n=39 v=101
16775 On ch=2 n=39 v=0
16776 On ch=2 n=55 v=104
16867 On ch=2 n=55 v=0
16872 On ch=2 n=46 v=92
16882 On ch=2 n=46 v=0
16884 On ch=2 n=39 v=88
16893 On ch=2 n=39 v=0
16896 On ch=2 n=39 v=101
16967 On ch=2 n=39 v=0
16968 On ch=2 n=55 v=104
17059 On ch=2 n=55 v=0
17064 On ch=2 n=46 v=92
17074 On ch=2 n=46 v=0
17076 On ch=2 n=39 v=88
17085 On ch=2 n=39 v=0
17088 On ch=2 n=47 v=120
17156 On ch=2 n=47 v=0
17160 On ch=2 n=53 v=101
17205 On ch=2 n=53 v=0
17208 On ch=2 n=38 v=90
17232 On ch=2 n=47 v=86
17234 On ch=2 n=38 v=0
17256 On ch=2 n=53 v=97
17259 On ch=2 n=47 v=0
17278 On ch=2 n=53 v=0
17280 On ch=2 n=41 v=117
17347 On ch=2 n=41 v=0
17352 On ch=2 n=56 v=99
17447 On ch=2 n=56 v=0
17448 On ch=2 n=47 v=86
17461 On ch=2 n=47 v=0
17472 On ch=2 n=36 v=101
17543 On ch=2 n=36 v=0
17544 On ch=2 n=51 v=104
17635 On ch=2 n=51 v=0
17640 On ch=2 n=43 v=92
17650 On ch=2 n=43 v=0
17652 On ch=2 n=43 v=88
17661 On ch=2 n=43 v=0
17664 On ch=2 n=36 v=120
17732 On ch=2 n=36 v=0
17736 On ch=2 n=51 v=101
17781 On ch=2 n=51 v=0
17784 On ch=2 n=43 v=90
17808 On ch=2 n=43 v=86
17810 On ch=2 n=43 v=0
17832 On ch=2 n=48 v=97
17835 On ch=2 n=43 v=0
17854 On ch=2 n=48 v=0
17856 On ch=2 n=41 v=101
17927 On ch=2 n=41 v=0
17928 On ch=2 n=56 v=104
18019 On ch=2 n=56 v=0
18024 On ch=2 n=36 v=92
18034 On ch=2 n=36 v=0
18036 On ch=2 n=36 v=88
18045 On ch=2 n=36 v=0
18048 On ch=2 n=43 v=117
18115 On ch=2 n=43 v=0
18120 On ch=2 n=53 v=99
18215 On ch=2 n=53 v=0
18216 On ch=2 n=47 v=86
18229 On ch=2 n=47 v=0
18240 On ch=2 n=36 v=101
18311 On ch=2 n=36 v=0
18312 On ch=2 n=51 v=104
18403 On ch=2 n=51 v=0
18408 On ch=2 n=43 v=92
18418 On ch=2 n=43 v=0
18420 On ch=2 n=43 v=88
18429 On ch=2 n=43 v=0
18432 On ch=2 n=41 v=120
18500 On ch=2 n=41 v=0
18504 On ch=2 n=56 v=101
18549 On ch=2 n=56 v=0
18552 On ch=2 n=36 v=90
18576 On ch=2 n=41 v=86
18578 On ch=2 n=36 v=0
18600 On ch=2 n=56 v=97
18603 On ch=2 n=41 v=0
18622 On ch=2 n=56 v=0
18624 On ch=2 n=46 v=101
18695 On ch=2 n=46 v=0
18696 On ch=2 n=53 v=104
18787 On ch=2 n=53 v=0
18792 On ch=2 n=38 v=92
18802 On ch=2 n=38 v=0
18804 On ch=2 n=41 v=88
18813 On ch=2 n=41 v=0
18816 On ch=2 n=39 v=120
18884 On ch=2 n=39 v=0
18888 On ch=2 n=55 v=101
18933 On ch=2 n=55 v=0
18936 On ch=2 n=46 v=90
18960 On ch=2 n=39 v=86
18962 On ch=2 n=46 v=0
18984 On ch=2 n=55 v=97
18987 On ch=2 n=39 v=0
19006 On ch=2 n=55 v=0
19008 On ch=2 n=44 v=101
19079 On ch=2 n=44 v=0
19080 On ch=2 n=51 v=104
19171 On ch=2 n=51 v=0
19176 On ch=2 n=36 v=92
19186 On ch=2 n=36 v=0
19188 On ch=2 n=39 v=88
19197 On ch=2 n=39 v=0
19200 On ch=2 n=41 v=120
19268 On ch=2 n=41 v=0
19272 On ch=2 n=56 v=101
19317 On ch=2 n=56 v=0
19320 On ch=2 n=36 v=90
19344 On ch=2 n=41 v=86
19346 On ch=2 n=36 v=0
19368 On ch=2 n=56 v=97
19371 On ch=2 n=41 v=0
19390 On ch=2 n=56 v=0
19392 On ch=2 n=43 v=101
19463 On ch=2 n=43 v=0
19464 On ch=2 n=59 v=104
19555 On ch=2 n=59 v=0
19560 On ch=2 n=38 v=92
19570 On ch=2 n=38 v=0
19572 On ch=2 n=38 v=88
19581 On ch=2 n=38 v=0
19584 On ch=2 n=36 v=101
19655 On ch=2 n=36 v=0
19656 On ch=2 n=51 v=104
19747 On ch=2 n=51 v=0
19752 On ch=2 n=43 v=92
19762 On ch=2 n=43 v=0
19764 On ch=2 n=43 v=88
19773 On ch=2 n=43 v=0
19776 On ch=2 n=36 v=120
19844 On ch=2 n=36 v=0
19848 On ch=2 n=52 v=101
19893 On ch=2 n=52 v=0
19896 On ch=2 n=43 v=90
19920 On ch=2 n=43 v=86
19922 On ch=2 n=43 v=0
19944 On ch=2 n=48 v=97
19947 On ch=2 n=43 v=0
19966 On ch=2 n=48 v=0
19968 On ch=2 n=41 v=117
20035 On ch=2 n=41 v=0
20040 On ch=2 n=56 v=99
20135 On ch=2 n=56 v=0
20136 On ch=2 n=36 v=86
20149 On ch=2 n=36 v=0
20160 On ch=2 n=46 v=101
20231 On ch=2 n=46 v=0
20232 On ch=2 n=53 v=104
20323 On ch=2 n=53 v=0
20328 On ch=2 n=38 v=92
20338 On ch=2 n=38 v=0
20340 On ch=2 n=41 v=88
20349 On ch=2 n=41 v=0
20352 On ch=2 n=39 v=101
20423 On ch=2 n=39 v=0
20424 On ch=2 n=55 v=104
20515 On ch=2 n=55 v=0
20520 On ch=2 n=46 v=92
20530 On ch=2 n=46 v=0
20532 On ch=2 n=39 v=88
20541 On ch=2 n=39 v=0
20544 On ch=2 n=44 v=117
20611 On ch=2 n=44 v=0
20616 On ch=2 n=51 v=99
20711 On ch=2 n=51 v=0
20712 On ch=2 n=36 v=86
20725 On ch=2 n=36 v=0
20736 On ch=2 n=41 v=117
20803 On ch=2 n=41 v=0
20808 On ch=2 n=56 v=99
20903 On ch=2 n=56 v=0
20904 On ch=2 n=36 v=86
20917 On ch=2 n=36 v=0
20928 On ch=2 n=43 v=117
20995 On ch=2 n=43 v=0
21000 On ch=2 n=59 v=99
21095 On ch=2 n=59 v=0
21096 On ch=2 n=38 v=86
21109 On ch=2 n=38 v=0
21120 On ch=2 n=36 v=117
21187 On ch=2 n=36 v=0
21192 On ch=2 n=51 v=99
21287 On ch=2 n=51 v=0
21288 On ch=2 n=43 v=86
21301 On ch=2 n=43 v=0
21312 On ch=2 n=36 v=117
21379 On ch=2 n=36 v=0
21384 On ch=2 n=51 v=99
21479 On ch=2 n=51 v=0
21480 On ch=2 n=43 v=86
21493 On ch=2 n=43 v=0
21504 On ch=2 n=36 v=120
21572 On ch=2 n=36 v=0
21576 On ch=2 n=51 v=101
21621 On ch=2 n=51 v=0
21624 On ch=2 n=43 v=90
21648 On ch=2 n=43 v=86
21650 On ch=2 n=43 v=0
21672 On ch=2 n=48 v=97
21675 On ch=2 n=43 v=0
21694 On ch=2 n=48 v=0
21696 On ch=2 n=41 v=101
21767 On ch=2 n=41 v=0
21768 On ch=2 n=56 v=104
21859 On ch=2 n=56 v=0
21864 On ch=2 n=36 v=92
21874 On ch=2 n=36 v=0
21876 On ch=2 n=36 v=88
21885 On ch=2 n=36 v=0
21888 On ch=2 n=43 v=120
21956 On ch=2 n=43 v=0
21960 On ch=2 n=59 v=101
22005 On ch=2 n=59 v=0
22008 On ch=2 n=38 v=90
22032 On ch=2 n=43 v=86
22034 On ch=2 n=38 v=0
22056 On ch=2 n=59 v=97
22059 On ch=2 n=43 v=0
22078 On ch=2 n=59 v=0
22080 On ch=2 n=36 v=101
22151 On ch=2 n=36 v=0
22152 On ch=2 n=51 v=104
22243 On ch=2 n=51 v=0
22248 On ch=2 n=43 v=92
22258 On ch=2 n=43 v=0
22260 On ch=2 n=43 v=88
22269 On ch=2 n=43 v=0
22272 On ch=2 n=39 v=117
22339 On ch=2 n=39 v=0
22344 On ch=2 n=55 v=99
22439 On ch=2 n=55 v=0
22440 On ch=2 n=46 v=86
22453 On ch=2 n=46 v=0
22464 On ch=2 n=41 v=117
22531 On ch=2 n=41 v=0
22536 On ch=2 n=56 v=99
22631 On ch=2 n=56 v=0
22632 On ch=2 n=36 v=86
22645 On ch=2 n=36 v=0
22656 On ch=2 n=46 v=117
22723 On ch=2 n=46 v=0
22728 On ch=2 n=53 v=99
22823 On ch=2 n=53 v=0
22824 On ch=2 n=38 v=86
22837 On ch=2 n=38 v=0
22848 On ch=2 n=39 v=117
22915 On ch=2 n=39 v=0
22920 On ch=2 n=55 v=99
23015 On ch=2 n=55 v=0
23016 On ch=2 n=46 v=86
23029 On ch=2 n=46 v=0
23040 On ch=2 n=39 v=117
23107 On ch=2 n=39 v=0
23112 On ch=2 n=55 v=99
23207 On ch=2 n=55 v=0
23208 On ch=2 n=46 v=86
23221 On ch=2 n=46 v=0
23232 On ch=2 n=47 v=117
23299 On ch=2 n=47 v=0
23304 On ch=2 n=53 v=99
23399 On ch=2 n=53 v=0
23400 On ch=2 n=38 v=86
23413 On ch=2 n=38 v=0
23424 On ch=2 n=41 v=117
23491 On ch=2 n=41 v=0
23496 On ch=2 n=56 v=99
23591 On ch=2 n=56 v=0
23592 On ch=2 n=47 v=86
23605 On ch=2 n=47 v=0
23616 On ch=2 n=36 v=117
23683 On ch=2 n=36 v=0
23688 On ch=2 n=51 v=99
23783 On ch=2 n=51 v=0
23784 On ch=2 n=43 v=86
23797 On ch=2 n=43 v=0
23808 On ch=2 n=36 v=120
23876 On ch=2 n=36 v=0
23880 On ch=2 n=51 v=101
23925 On ch=2 n=51 v=0
23928 On ch=2 n=43 v=90
23952 On ch=2 n=43 v=86
23954 On ch=2 n=43 v=0
23976 On ch=2 n=48 v=97
23979 On ch=2 n=43 v=0
23998 On ch=2 n=48 v=0
24000 On ch=2 n=41 v=101
24071 On ch=2 n=41 v=0
24072 On ch=2 n=56 v=104
24163 On ch=2 n=56 v=0
24168 On ch=2 n=36 v=92
24178 On ch=2 n=36 v=0
24180 On ch=2 n=36 v=88
24189 On ch=2 n=36 v=0
24192 On ch=2 n=43 v=117
24259 On ch=2 n=43 v=0
24264 On ch=2 n=53 v=99
24359 On ch=2 n=53 v=0
24360 On ch=2 n=47 v=86
24373 On ch=2 n=47 v=0
24384 On ch=2 n=36 v=117
24451 On ch=2 n=36 v=0
24456 On ch=2 n=51 v=99
24551 On ch=2 n=51 v=0
24552 On ch=2 n=43 v=86
24565 On ch=2 n=43 v=0
24576 On ch=2 n=41 v=117
24643 On ch=2 n=41 v=0
24648 On ch=2 n=56 v=99
24743 On ch=2 n=56 v=0
24744 On ch=2 n=36 v=86
24757 On ch=2 n=36 v=0
24768 On ch=2 n=46 v=117
24835 On ch=2 n=46 v=0
24840 On ch=2 n=53 v=99
24935 On ch=2 n=53 v=0
24936 On ch=2 n=38 v=86
24949 On ch=2 n=38 v=0
24960 On ch=2 n=39 v=117
25027 On ch=2 n=39 v=0
25032 On ch=2 n=55 v=99
25127 On ch=2 n=55 v=0
25128 On ch=2 n=46 v=86
25141 On ch=2 n=46 v=0
25152 On ch=2 n=44 v=101
25223 On ch=2 n=44 v=0
25224 On ch=2 n=51 v=104
25315 On ch=2 n=51 v=0
25320 On ch=2 n=36 v=92
25330 On ch=2 n=36 v=0
25332 On ch=2 n=39 v=88
25341 On ch=2 n=39 v=0
25344 On ch=2 n=41 v=120
25412 On ch=2 n=41 v=0
25416 On ch=2 n=56 v=101
25461 On ch=2 n=56 v=0
25464 On ch=2 n=36 v=90
25488 On ch=2 n=41 v=86
25490 On ch=2 n=36 v=0
25512 On ch=2 n=56 v=97
25515 On ch=2 n=41 v=0
25534 On ch=2 n=56 v=0
25536 On ch=2 n=43 v=117
25603 On ch=2 n=43 v=0
25608 On ch=2 n=59 v=99
25703 On ch=2 n=59 v=0
25704 On ch=2 n=38 v=86
25717 On ch=2 n=38 v=0
25728 On ch=2 n=36 v=117
25795 On ch=2 n=36 v=0
25800 On ch=2 n=51 v=99
25895 On ch=2 n=51 v=0
25896 On ch=2 n=43 v=86
25909 On ch=2 n=43 v=0
25920 On ch=2 n=36 v=101
25991 On ch=2 n=36 v=0
25992 On ch=2 n=52 v=104
26083 On ch=2 n=52 v=0
26088 On ch=2 n=43 v=92
26098 On ch=2 n=43 v=0
26100 On ch=2 n=43 v=88
26109 On ch=2 n=43 v=0
26112 On ch=2 n=41 v=101
26183 On ch=2 n=41 v=0
26184 On ch=2 n=56 v=104
26275 On ch=2 n=56 v=0
26280 On ch=2 n=36 v=92
26290 On ch=2 n=36 v=0
26292 On ch=2 n=36 v=88
26301 On ch=2 n=36 v=0
26304 On ch=2 n=46 v=120
26372 On ch=2 n=46 v=0
26376 On ch=2 n=53 v=101
26421 On ch=2 n=53 v=0
26424 On ch=2 n=38 v=90
26448 On ch=2 n=46 v=86
26450 On ch=2 n=38 v=0
26472 On ch=2 n=53 v=97
26475 On ch=2 n=46 v=0
26494 On ch=2 n=53 v=0
26496 On ch=2 n=39 v=117
26563 On ch=2 n=39 v=0
26568 On ch=2 n=55 v=99
26663 On ch=2 n=55 v=0
26664 On ch=2 n=46 v=86
26677 On ch=2 n=46 v=0
26688 On ch=2 n=44 v=117
26755 On ch=2 n=44 v=0
26760 On ch=2 n=51 v=99
26855 On ch=2 n=51 v=0
26856 On ch=2 n=36 v=86
26869 On ch=2 n=36 v=0
26880 On ch=2 n=41 v=117
26947 On ch=2 n=41 v=0
26952 On ch=2 n=56 v=99
27047 On ch=2 n=56 v=0
27048 On ch=2 n=36 v=86
27061 On ch=2 n=36 v=0
27072 On ch=2 n=43 v=117
27139 On ch=2 n=43 v=0
27144 On ch=2 n=59 v=99
27239 On ch=2 n=59 v=0
27240 On ch=2 n=38 v=86
27253 On ch=2 n=38 v=0
27264 On ch=2 n=36 v=101
27335 On ch=2 n=36 v=0
27336 On ch=2 n=51 v=104
27427 On ch=2 n=51 v=0
27432 On ch=2 n=43 v=92
27442 On ch=2 n=43 v=0
27444 On ch=2 n=43 v=88
27453 On ch=2 n=43 v=0
27456 On ch=2 n=36 v=101
27527 On ch=2 n=36 v=0
27528 On ch=2 n=51 v=104
27619 On ch=2 n=51 v=0
27624 On ch=2 n=43 v=92
27634 On ch=2 n=43 v=0
27636 On ch=2 n=43 v=88
27645 On ch=2 n=43 v=0
27648 On ch=2 n=36 v=120
27716 On ch=2 n=36 v=0
27720 On ch=2 n=51 v=101
27765 On ch=2 n=51 v=0
27768 On ch=2 n=43 v=90
27792 On ch=2 n=43 v=86
27794 On ch=2 n=43 v=0
27816 On ch=2 n=48 v=97
27819 On ch=2 n=43 v=0
27838 On ch=2 n=48 v=0
27840 On ch=2 n=41 v=101
27911 On ch=2 n=41 v=0
27912 On ch=2 n=56 v=104
28003 On ch=2 n=56 v=0
28008 On ch=2 n=36 v=92
28018 On ch=2 n=36 v=0
28020 On ch=2 n=36 v=88
28029 On ch=2 n=36 v=0
28032 On ch=2 n=43 v=117
28099 On ch=2 n=43 v=0
28104 On ch=2 n=59 v=99
28199 On ch=2 n=59 v=0
28200 On ch=2 n=38 v=86
28213 On ch=2 n=38 v=0
28224 On ch=2 n=36 v=120
28292 On ch=2 n=36 v=0
28296 On ch=2 n=51 v=101
28341 On ch=2 n=51 v=0
28344 On ch=2 n=43 v=90
28368 On ch=2 n=43 v=86
28370 On ch=2 n=43 v=0
28392 On ch=2 n=48 v=97
28395 On ch=2 n=43 v=0
28414 On ch=2 n=48 v=0
28416 On ch=2 n=39 v=117
28483 On ch=2 n=39 v=0
28488 On ch=2 n=55 v=99
28583 On ch=2 n=55 v=0
28584 On ch=2 n=46 v=86
28597 On ch=2 n=46 v=0
28608 On ch=2 n=41 v=101
28679 On ch=2 n=41 v=0
28680 On ch=2 n=56 v=104
28771 On ch=2 n=56 v=0
28776 On ch=2 n=36 v=92
28786 On ch=2 n=36 v=0
28788 On ch=2 n=36 v=88
28797 On ch=2 n=36 v=0
28800 On ch=2 n=46 v=101
28871 On ch=2 n=46 v=0
28872 On ch=2 n=53 v=104
28963 On ch=2 n=53 v=0
28968 On ch=2 n=38 v=92
28978 On ch=2 n=38 v=0
28980 On ch=2 n=41 v=88
28989 On ch=2 n=41 v=0
28992 On ch=2 n=39 v=117
29059 On ch=2 n=39 v=0
29064 On ch=2 n=55 v=99
29159 On ch=2 n=55 v=0
29160 On ch=2 n=46 v=86
29173 On ch=2 n=46 v=0
29184 On ch=2 n=39 v=117
29251 On ch=2 n=39 v=0
29256 On ch=2 n=55 v=99
29351 On ch=2 n=55 v=0
29352 On ch=2 n=46 v=86
29365 On ch=2 n=46 v=0
29376 On ch=2 n=47 v=101
29447 On ch=2 n=47 v=0
29448 On ch=2 n=53 v=104
29539 On ch=2 n=53 v=0
29544 On ch=2 n=38 v=92
29554 On ch=2 n=38 v=0
29556 On ch=2 n=41 v=88
29565 On ch=2 n=41 v=0
29568 On ch=2 n=41 v=117
29635 On ch=2 n=41 v=0
29640 On ch=2 n=56 v=99
29735 On ch=2 n=56 v=0
29736 On ch=2 n=47 v=86
29749 On ch=2 n=47 v=0
29760 On ch=2 n=36 v=120
29828 On ch=2 n=36 v=0
29832 On ch=2 n=51 v=101
29877 On ch=2 n=51 v=0
29880 On ch=2 n=43 v=90
29904 On ch=2 n=43 v=86
29906 On ch=2 n=43 v=0
29928 On ch=2 n=48 v=97
29931 On ch=2 n=43 v=0
29950 On ch=2 n=48 v=0
29952 On ch=2 n=36 v=101
30023 On ch=2 n=36 v=0
30024 On ch=2 n=51 v=104
30115 On ch=2 n=51 v=0
30120 On ch=2 n=43 v=92
30130 On ch=2 n=43 v=0
30132 On ch=2 n=43 v=88
30141 On ch=2 n=43 v=0
30144 On ch=2 n=41 v=101
30215 On ch=2 n=41 v=0
30216 On ch=2 n=56 v=104
30307 On ch=2 n=56 v=0
30312 On ch=2 n=36 v=92
30322 On ch=2 n=36 v=0
30324 On ch=2 n=36 v=88
30333 On ch=2 n=36 v=0
30336 On ch=2 n=43 v=117
30403 On ch=2 n=43 v=0
30408 On ch=2 n=53 v=99
30503 On ch=2 n=53 v=0
30504 On ch=2 n=47 v=86
30517 On ch=2 n=47 v=0
30528 On ch=2 n=36 v=120
30596 On ch=2 n=36 v=0
30600 On ch=2 n=51 v=101
30645 On ch=2 n=51 v=0
30648 On ch=2 n=43 v=90
30672 On ch=2 n=43 v=86
30674 On ch=2 n=43 v=0
30696 On ch=2 n=48 v=97
30699 On ch=2 n=43 v=0
30718 On ch=2 n=48 v=0
30720 On ch=2 n=41 v=120
30788 On ch=2 n=41 v=0
30792 On ch=2 n=56 v=101
30837 On ch=2 n=56 v=0
30840 On ch=2 n=36 v=90
30864 On ch=2 n=41 v=86
30866 On ch=2 n=36 v=0
30888 On ch=2 n=56 v=97
30891 On ch=2 n=41 v=0
30910 On ch=2 n=56 v=0
30912 On ch=2 n=46 v=117
30979 On ch=2 n=46 v=0
30984 On ch=2 n=53 v=99
31079 On ch=2 n=53 v=0
31080 On ch=2 n=38 v=86
31093 On ch=2 n=38 v=0
31104 On ch=2 n=39 v=101
31175 On ch=2 n=39 v=0
31176 On ch=2 n=55 v=104
31267 On ch=2 n=55 v=0
31272 On ch=2 n=46 v=92
31282 On ch=2 n=46 v=0
31284 On ch=2 n=39 v=88
31293 On ch=2 n=39 v=0
31296 On ch=2 n=44 v=117
31363 On ch=2 n=44 v=0
31368 On ch=2 n=51 v=99
31463 On ch=2 n=51 v=0
31464 On ch=2 n=36 v=86
31477 On ch=2 n=36 v=0
31488 On ch=2 n=41 v=120
31556 On ch=2 n=41 v=0
31560 On ch=2 n=56 v=101
31605 On ch=2 n=56 v=0
31608 On ch=2 n=36 v=90
31632 On ch=2 n=41 v=86
31634 On ch=2 n=36 v=0
31656 On ch=2 n=56 v=97
31659 On ch=2 n=41 v=0
31678 On ch=2 n=56 v=0
31680 On ch=2 n=43 v=120
31748 On ch=2 n=43 v=0
31752 On ch=2 n=59 v=101
31797 On ch=2 n=59 v=0
31800 On ch=2 n=38 v=90
31824 On ch=2 n=43 v=86
31826 On ch=2 n=38 v=0
31848 On ch=2 n=59 v=97
31851 On ch=2 n=43 v=0
31870 On ch=2 n=59 v=0
31872 On ch=2 n=36 v=101
31943 On ch=2 n=36 v=0
31944 On ch=2 n=51 v=104
32035 On ch=2 n=51 v=0
32040 On ch=2 n=43 v=92
32050 On ch=2 n=43 v=0
32052 On ch=2 n=43 v=88
32061 On ch=2 n=43 v=0
32064 On ch=2 n=36 v=120
32132 On ch=2 n=36 v=0
32136 On ch=2 n=52 v=101
32181 On ch=2 n=52 v=0
32184 On ch=2 n=43 v=90
32208 On ch=2 n=43 v=86
32210 On ch=2 n=43 v=0
32232 On ch=2 n=48 v=97
32235 On ch=2 n=43 v=0
32254 On ch=2 n=48 v=0
32256 On ch=2 n=41 v=117
32323 On ch=2 n=41 v=0
32328 On ch=2 n=56 v=99
32423 On ch=2 n=56 v=0
32424 On ch=2 n=36 v=86
32437 On ch=2 n=36 v=0
32448 On ch=2 n=46 v=117
32515 On ch=2 n=46 v=0
32520 On ch=2 n=53 v=99
32615 On ch=2 n=53 v=0
32616 On ch=2 n=38 v=86
32629 On ch=2 n=38 v=0
32640 On ch=2 n=39 v=101
32711 On ch=2 n=39 v=0
32712 On ch=2 n=55 v=104
32803 On ch=2 n=55 v=0
32808 On ch=2 n=46 v=92
32818 On ch=2 n=46 v=0
32820 On ch=2 n=39 v=88
32829 On ch=2 n=39 v=0
32832 On ch=2 n=44 v=120
32900 On ch=2 n=44 v=0
32904 On ch=2 n=51 v=101
32949 On ch=2 n=51 v=0
32952 On ch=2 n=36 v=90
32976 On ch=2 n=44 v=86
32978 On ch=2 n=36 v=0
33000 On ch=2 n=51 v=97
33003 On ch=2 n=44 v=0
33022 On ch=2 n=51 v=0
33024 On ch=2 n=41 v=117
33091 On ch=2 n=41 v=0
33096 On ch=2 n=56 v=99
33191 On ch=2 n=56 v=0
33192 On ch=2 n=36 v=86
33205 On ch=2 n=36 v=0
33216 On ch=2 n=43 v=101
33287 On ch=2 n=43 v=0
33288 On ch=2 n=59 v=104
33379 On ch=2 n=59 v=0
33384 On ch=2 n=38 v=92
33394 On ch=2 n=38 v=0
33396 On ch=2 n=38 v=88
33405 On ch=2 n=38 v=0
33408 On ch=2 n=36 v=101
33479 On ch=2 n=36 v=0
33480 On ch=2 n=51 v=104
33571 On ch=2 n=51 v=0
33576 On ch=2 n=43 v=92
33586 On ch=2 n=43 v=0
33588 On ch=2 n=43 v=88
33597 On ch=2 n=43 v=0
33600 On ch=2 n=36 v=120
33668 On ch=2 n=36 v=0
33672 On ch=2 n=51 v=101
33717 On ch=2 n=51 v=0
33720 On ch=2 n=43 v=90
33744 On ch=2 n=43 v=86
33746 On ch=2 n=43 v=0
33768 On ch=2 n=48 v=97
33771 On ch=2 n=43 v=0
33790 On ch=2 n=48 v=0
33792 On ch=2 n=36 v=101
33863 On ch=2 n=36 v=0
33864 On ch=2 n=51 v=104
33955 On ch=2 n=51 v=0
33960 On ch=2 n=43 v=92
33970 On ch=2 n=43 v=0
33972 On ch=2 n=43 v=88
33981 On ch=2 n=43 v=0
33984 On ch=2 n=41 v=117
34051 On ch=2 n=41 v=0
34056 On ch=2 n=56 v=99
34151 On ch=2 n=56 v=0
34152 On ch=2 n=36 v=86
34165 On ch=2 n=36 v=0
34176 On ch=2 n=43 v=120
34244 On ch=2 n=43 v=0
34248 On ch=2 n=59 v=101
34293 On ch=2 n=59 v=0
34296 On ch=2 n=38 v=90
34320 On ch=2 n=43 v=86
34322 On ch=2 n=38 v=0
34344 On ch=2 n=59 v=97
34347 On ch=2 n=43 v=0
34366 On ch=2 n=59 v=0
34368 On ch=2 n=36 v=117
34435 On ch=2 n=36 v=0
34440 On ch=2 n=51 v=99
34535 On ch=2 n=51 v=0
34536 On ch=2 n=43 v=86
34549 On ch=2 n=43 v=0
34560 On ch=2 n=39 v=120
34628 On ch=2 n=39 v=0
34632 On ch=2 n=55 v=101
34677 On ch=2 n=55 v=0
34680 On ch=2 n=46 v=90
34704 On ch=2 n=39 v=86
34706 On ch=2 n=46 v=0
34728 On ch=2 n=55 v=97
34731 On ch=2 n=39 v=0
34750 On ch=2 n=55 v=0
34752 On ch=2 n=41 v=120
34820 On ch=2 n=41 v=0
34824 On ch=2 n=56 v=101
34869 On ch=2 n=56 v=0
34872 On ch=2 n=36 v=90
34896 On ch=2 n=41 v=86
34898 On ch=2 n=36 v=0
34920 On ch=2 n=56 v=97
34923 On ch=2 n=41 v=0
34942 On ch=2 n=56 v=0
34944 On ch=2 n=46 v=120
35012 On ch=2 n=46 v=0
35016 On ch=2 n=53 v=101
35061 On ch=2 n=53 v=0
35064 On ch=2 n=38 v=90
35088 On ch=2 n=46 v=86
35090 On ch=2 n=38 v=0
35112 On ch=2 n=53 v=97
35115 On ch=2 n=46 v=0
35134 On ch=2 n=53 v=0
35136 On ch=2 n=39 v=117
35203 On ch=2 n=39 v=0
35208 On ch=2 n=55 v=99
35303 On ch=2 n=55 v=0
35304 On ch=2 n=46 v=86
35317 On ch=2 n=46 v=0
35328 On ch=2 n=39 v=101
35399 On ch=2 n=39 v=0
35400 On ch=2 n=55 v=104
35491 On ch=2 n=55 v=0
35496 On ch=2 n=46 v=92
35506 On ch=2 n=46 v=0
35508 On ch=2 n=39 v=88
35517 On ch=2 n=39 v=0
35520 On ch=2 n=47 v=101
35591 On ch=2 n=47 v=0
35592 On ch=2 n=53 v=104
35683 On ch=2 n=53 v=0
35688 On ch=2 n=38 v=92
35698 On ch=2 n=38 v=0
35700 On ch=2 n=41 v=88
35709 On ch=2 n=41 v=0
35712 On ch=2 n=41 v=101
35783 On ch=2 n=41 v=0
35784 On ch=2 n=56 v=104
35875 On ch=2 n=56 v=0
35880 On ch=2 n=47 v=92
35890 On ch=2 n=47 v=0
35892 On ch=2 n=41 v=88
35901 On ch=2 n=41 v=0
35904 On ch=2 n=36 v=117
35971 On ch=2 n=36 v=0
35976 On ch=2 n=51 v=99
36071 On ch=2 n=51 v=0
36072 On ch=2 n=43 v=86
36085 On ch=2 n=43 v=0
36096 On ch=2 n=36 v=101
36167 On ch=2 n=36 v=0
36168 On ch=2 n=51 v=104
36259 On ch=2 n=51 v=0
36264 On ch=2 n=43 v=92
36274 On ch=2 n=43 v=0
36276 On ch=2 n=43 v=88
36285 On ch=2 n=43 v=0
36288 On ch=2 n=41 v=120
36356 On ch=2 n=41 v=0
36360 On ch=2 n=56 v=101
36405 On ch=2 n=56 v=0
36408 On ch=2 n=36 v=90
36432 On ch=2 n=41 v=86
36434 On ch=2 n=36 v=0
36456 On ch=2 n=56 v=97
36459 On ch=2 n=41 v=0
36478 On ch=2 n=56 v=0
36480 On ch=2 n=43 v=120
36548 On ch=2 n=43 v=0
36552 On ch=2 n=53 v=101
36597 On ch=2 n=53 v=0
36600 On ch=2 n=38 v=90
36624 On ch=2 n=47 v=86
36626 On ch=2 n=38 v=0
36648 On ch=2 n=55 v=97
36651 On ch=2 n=47 v=0
36670 On ch=2 n=55 v=0
36672 On ch=2 n=36 v=120
36740 On ch=2 n=36 v=0
36744 On ch=2 n=51 v=101
36789 On ch=2 n=51 v=0
36792 On ch=2 n=43 v=90
36816 On ch=2 n=43 v=86
36818 On ch=2 n=43 v=0
36840 On ch=2 n=48 v=97
36843 On ch=2 n=43 v=0
36862 On ch=2 n=48 v=0
36864 On ch=2 n=41 v=120
36932 On ch=2 n=41 v=0
36936 On ch=2 n=56 v=101
36981 On ch=2 n=56 v=0
36984 On ch=2 n=36 v=90
37008 On ch=2 n=41 v=86
37010 On ch=2 n=36 v=0
37032 On ch=2 n=56 v=97
37035 On ch=2 n=41 v=0
37054 On ch=2 n=56 v=0
37056 On ch=2 n=46 v=120
37124 On ch=2 n=46 v=0
37128 On ch=2 n=53 v=101
37173 On ch=2 n=53 v=0
37176 On ch=2 n=38 v=90
37200 On ch=2 n=46 v=86
37202 On ch=2 n=38 v=0
37224 On ch=2 n=53 v=97
37227 On ch=2 n=46 v=0
37246 On ch=2 n=53 v=0
37248 On ch=2 n=39 v=101
37319 On ch=2 n=39 v=0
37320 On ch=2 n=55 v=104
37411 On ch=2 n=55 v=0
37416 On ch=2 n=46 v=92
37426 On ch=2 n=46 v=0
37428 On ch=2 n=39 v=88
37437 On ch=2 n=39 v=0
37440 On ch=2 n=44 v=117
37507 On ch=2 n=44 v=0
37512 On ch=2 n=51 v=99
37607 On ch=2 n=51 v=0
37608 On ch=2 n=36 v=86
37621 On ch=2 n=36 v=0
37632 On ch=2 n=41 v=120
37700 On ch=2 n=41 v=0
37704 On ch=2 n=56 v=101
37749 On ch=2 n=56 v=0
37752 On ch=2 n=36 v=90
37776 On ch=2 n=41 v=86
37778 On ch=2 n=36 v=0
37800 On ch=2 n=56 v=97
37803 On ch=2 n=41 v=0
37822 On ch=2 n=56 v=0
37824 On ch=2 n=43 v=117
37891 On ch=2 n=43 v=0
37896 On ch=2 n=59 v=99
37991 On ch=2 n=59 v=0
37992 On ch=2 n=38 v=86
38005 On ch=2 n=38 v=0
38016 On ch=2 n=36 v=117
38083 On ch=2 n=36 v=0
38088 On ch=2 n=51 v=99
38183 On ch=2 n=51 v=0
38184 On ch=2 n=43 v=86
38197 On ch=2 n=43 v=0
38208 On ch=2 n=36 v=120
38276 On ch=2 n=36 v=0
38280 On ch=2 n=52 v=101
38325 On ch=2 n=52 v=0
38328 On ch=2 n=43 v=90
38352 On ch=2 n=43 v=86
38354 On ch=2 n=43 v=0
38376 On ch=2 n=48 v=97
38379 On ch=2 n=43 v=0
38398 On ch=2 n=48 v=0
38400 On ch=2 n=41 v=117
38467 On ch=2 n=41 v=0
38472 On ch=2 n=56 v=99
38567 On ch=2 n=56 v=0
38568 On ch=2 n=36 v=86
38581 On ch=2 n=36 v=0
38592 On ch=2 n=46 v=101
38663 On ch=2 n=46 v=0
38664 On ch=2 n=53 v=104
38755 On ch=2 n=53 v=0
38760 On ch=2 n=38 v=92
38770 On ch=2 n=38 v=0
38772 On ch=2 n=41 v=88
38781 On ch=2 n=41 v=0
38784 On ch=2 n=39 v=117
38851 On ch=2 n=39 v=0
38856 On ch=2 n=55 v=99
38951 On ch=2 n=55 v=0
38952 On ch=2 n=46 v=86
38965 On ch=2 n=46 v=0
38976 On ch=2 n=44 v=101
39047 On ch=2 n=44 v=0
39048 On ch=2 n=51 v=104
39139 On ch=2 n=51 v=0
39144 On ch=2 n=36 v=92
39154 On ch=2 n=36 v=0
39156 On ch=2 n=39 v=88
39165 On ch=2 n=39 v=0
39168 On ch=2 n=41 v=117
39235 On ch=2 n=41 v=0
39240 On ch=2 n=56 v=99
39335 On ch=2 n=56 v=0
39336 On ch=2 n=36 v=86
39349 On ch=2 n=36 v=0
39360 On ch=2 n=43 v=101
39431 On ch=2 n=43 v=0
39432 On ch=2 n=59 v=104
39523 On ch=2 n=59 v=0
39528 On ch=2 n=38 v=92
39538 On ch=2 n=38 v=0
39540 On ch=2 n=38 v=88
39549 On ch=2 n=38 v=0
39552 On ch=2 n=36 v=117
39619 On ch=2 n=36 v=0
39624 On ch=2 n=51 v=99
39719 On ch=2 n=51 v=0
39720 On ch=2 n=43 v=86
39733 On ch=2 n=43 v=0
39744 On ch=2 n=36 v=101
39815 On ch=2 n=36 v=0
39816 On ch=2 n=51 v=104
39907 On ch=2 n=51 v=0
39912 On ch=2 n=43 v=92
39922 On ch=2 n=43 v=0
39924 On ch=2 n=43 v=88
39933 On ch=2 n=43 v=0
39936 On ch=2 n=36 v=117
40003 On ch=2 n=36 v=0
40008 On ch=2 n=51 v=99
40103 On ch=2 n=51 v=0
40104 On ch=2 n=43 v=86
40117 On ch=2 n=43 v=0
40128 On ch=2 n=36 v=117
40195 On ch=2 n=36 v=0
40200 On ch=2 n=51 v=99
40295 On ch=2 n=51 v=0
40296 On ch=2 n=43 v=86
40309 On ch=2 n=43 v=0
40309 Meta TrkEnd
TrkEnd
MTrk
0 Meta TrkName "Acoustic Guitar (nylon)"
0 PrCh ch=3 p=24
0 Par ch=3 c=7 v=100
0 Par ch=3 c=10 v=64
0 Par ch=3 c=11 v=127
0 Par ch=3 c=91 v=0
0 Par ch=3 c=93 v=0
0 Par ch=3 c=7 v=127
0 Par ch=3 c=10 v=66
0 On ch=3 n=53 v=86
0 On ch=3 n=48 v=82
0 On ch=3 n=68 v=85
0 On ch=3 n=68 v=86
0 On ch=3 n=60 v=79
192 On ch=3 n=53 v=0
192 On ch=3 n=48 v=0
192 On ch=3 n=68 v=0
192 On ch=3 n=68 v=0
192 On ch=3 n=60 v=0
216 On ch=3 n=58 v=88
240 On ch=3 n=53 v=101
264 On ch=3 n=62 v=66
264 On ch=3 n=70 v=69
266 On ch=3 n=53 v=0
268 On ch=3 n=62 v=0
268 On ch=3 n=70 v=0
336 On ch=3 n=62 v=82
336 On ch=3 n=65 v=76
336 On ch=3 n=62 v=78
336 On ch=3 n=53 v=80
345 On ch=3 n=58 v=0
359 On ch=3 n=65 v=0
360 On ch=3 n=62 v=0
360 On ch=3 n=62 v=0
360 On ch=3 n=53 v=0
360 On ch=3 n=58 v=104
384 On ch=3 n=58 v=0
384 On ch=3 n=58 v=75
384 On ch=3 n=67 v=76
384 On ch=3 n=63 v=76
384 On ch=3 n=63 v=78
432 On ch=3 n=55 v=85
434 On ch=3 n=63 v=0
434 On ch=3 n=63 v=0
435 On ch=3 n=58 v=0
435 On ch=3 n=67 v=0
456 On ch=3 n=70 v=78
456 On ch=3 n=58 v=78
456 On ch=3 n=63 v=78
456 On ch=3 n=67 v=72
459 On ch=3 n=63 v=0
459 On ch=3 n=67 v=0
460 On ch=3 n=58 v=0
461 On ch=3 n=70 v=0
466 On ch=3 n=55 v=0
504 On ch=3 n=70 v=71
504 On ch=3 n=55 v=68
504 On ch=3 n=63 v=66
504 On ch=3 n=63 v=64
576 On ch=3 n=70 v=0
576 On ch=3 n=55 v=0
576 On ch=3 n=63 v=0
576 On ch=3 n=63 v=0
600 On ch=3 n=56 v=88
624 On ch=3 n=51 v=101
648 On ch=3 n=60 v=66
648 On ch=3 n=68 v=69
650 On ch=3 n=51 v=0
652 On ch=3 n=60 v=0
652 On ch=3 n=68 v=0
720 On ch=3 n=60 v=82
720 On ch=3 n=63 v=76
720 On ch=3 n=68 v=78
720 On ch=3 n=51 v=80
729 On ch=3 n=56 v=0
743 On ch=3 n=63 v=0
744 On ch=3 n=60 v=0
744 On ch=3 n=68 v=0
744 On ch=3 n=51 v=0
744 On ch=3 n=48 v=104
768 On ch=3 n=48 v=0
768 On ch=3 n=53 v=86
768 On ch=3 n=48 v=82
768 On ch=3 n=68 v=85
768 On ch=3 n=68 v=86
768 On ch=3 n=60 v=79
960 On ch=3 n=53 v=0
960 On ch=3 n=48 v=0
960 On ch=3 n=68 v=0
960 On ch=3 n=68 v=0
960 On ch=3 n=60 v=0
960 On ch=3 n=50 v=75
960 On ch=3 n=67 v=76
960 On ch=3 n=71 v=76
960 On ch=3 n=67 v=78
1008 On ch=3 n=59 v=85
1010 On ch=3 n=71 v=0
1010 On ch=3 n=67 v=0
1011 On ch=3 n=50 v=0
1011 On ch=3 n=67 v=0
1032 On ch=3 n=62 v=78
1032 On ch=3 n=50 v=78
1032 On ch=3 n=67 v=78
1032 On ch=3 n=71 v=72
1035 On ch=3 n=67 v=0
1035 On ch=3 n=71 v=0
1036 On ch=3 n=50 v=0
1037 On ch=3 n=62 v=0
1042 On ch=3 n=59 v=0
1080 On ch=3 n=62 v=71
1080 On ch=3 n=55 v=68
1080 On ch=3 n=71 v=66
1080 On ch=3 n=67 v=64
1152 On ch=3 n=62 v=0
1152 On ch=3 n=55 v=0
1152 On ch=3 n=71 v=0
1152 On ch=3 n=67 v=0
1176 On ch=3 n=48 v=88
1200 On ch=3 n=55 v=101
1224 On ch=3 n=63 v=66
1224 On ch=3 n=60 v=69
1226 On ch=3 n=55 v=0
1228 On ch=3 n=63 v=0
1228 On ch=3 n=60 v=0
1296 On ch=3 n=63 v=82
1296 On ch=3 n=67 v=76
1296 On ch=3 n=63 v=78
1296 On ch=3 n=55 v=80
1305 On ch=3 n=48 v=0
1319 On ch=3 n=67 v=0
1320 On ch=3 n=63 v=0
1320 On ch=3 n=63 v=0
1320 On ch=3 n=55 v=0
1320 On ch=3 n=48 v=104
1344 On ch=3 n=48 v=0
1344 On ch=3 n=48 v=86
1344 On ch=3 n=55 v=82
1344 On ch=3 n=64 v=85
1344 On ch=3 n=60 v=86
1344 On ch=3 n=67 v=79
1536 On ch=3 n=48 v=0
1536 On ch=3 n=55 v=0
1536 On ch=3 n=64 v=0
1536 On ch=3 n=60 v=0
1536 On ch=3 n=67 v=0
1536 On ch=3 n=48 v=75
1536 On ch=3 n=65 v=76
1536 On ch=3 n=68 v=76
1536 On ch=3 n=68 v=78
1584 On ch=3 n=53 v=85
1586 On ch=3 n=68 v=0
1586 On ch=3 n=68 v=0
1587 On ch=3 n=48 v=0
1587 On ch=3 n=65 v=0
1608 On ch=3 n=60 v=78
1608 On ch=3 n=48 v=78
1608 On ch=3 n=68 v=78
1608 On ch=3 n=65 v=72
1611 On ch=3 n=68 v=0
1611 On ch=3 n=65 v=0
1612 On ch=3 n=48 v=0
1613 On ch=3 n=60 v=0
1618 On ch=3 n=53 v=0
1656 On ch=3 n=60 v=71
1656 On ch=3 n=53 v=68
1656 On ch=3 n=68 v=66
1656 On ch=3 n=68 v=64
1728 On ch=3 n=60 v=0
1728 On ch=3 n=53 v=0
1728 On ch=3 n=68 v=0
1728 On ch=3 n=68 v=0
1752 On ch=3 n=58 v=88
1776 On ch=3 n=53 v=101
1800 On ch=3 n=62 v=66
1800 On ch=3 n=70 v=69
1802 On ch=3 n=53 v=0
1804 On ch=3 n=62 v=0
1804 On ch=3 n=70 v=0
1872 On ch=3 n=62 v=82
1872 On ch=3 n=65 v=76
1872 On ch=3 n=62 v=78
1872 On ch=3 n=53 v=80
1881 On ch=3 n=58 v=0
1895 On ch=3 n=65 v=0
1896 On ch=3 n=62 v=0
1896 On ch=3 n=62 v=0
1896 On ch=3 n=53 v=0
1896 On ch=3 n=58 v=104
1920 On ch=3 n=58 v=0
1920 On ch=3 n=51 v=86
1920 On ch=3 n=58 v=82
1920 On ch=3 n=67 v=85
1920 On ch=3 n=63 v=86
1920 On ch=3 n=70 v=79
2112 On ch=3 n=51 v=0
2112 On ch=3 n=58 v=0
2112 On ch=3 n=67 v=0
2112 On ch=3 n=63 v=0
2112 On ch=3 n=70 v=0
2136 On ch=3 n=56 v=88
2160 On ch=3 n=51 v=101
2184 On ch=3 n=60 v=66
2184 On ch=3 n=68 v=69
2186 On ch=3 n=51 v=0
2188 On ch=3 n=60 v=0
2188 On ch=3 n=68 v=0
2256 On ch=3 n=60 v=82
2256 On ch=3 n=63 v=76
2256 On ch=3 n=68 v=78
2256 On ch=3 n=51 v=80
2265 On ch=3 n=56 v=0
2279 On ch=3 n=63 v=0
2280 On ch=3 n=60 v=0
2280 On ch=3 n=68 v=0
2280 On ch=3 n=51 v=0
2280 On ch=3 n=48 v=104
2304 On ch=3 n=48 v=0
2304 On ch=3 n=48 v=75
2304 On ch=3 n=65 v=76
2304 On ch=3 n=68 v=76
2304 On ch=3 n=68 v=78
2352 On ch=3 n=53 v=85
2354 On ch=3 n=68 v=0
2354 On ch=3 n=68 v=0
2355 On ch=3 n=48 v=0
2355 On ch=3 n=65 v=0
2376 On ch=3 n=60 v=78
2376 On ch=3 n=48 v=78
2376 On ch=3 n=68 v=78
2376 On ch=3 n=65 v=72
2379 On ch=3 n=68 v=0
2379 On ch=3 n=65 v=0
2380 On ch=3 n=48 v=0
2381 On ch=3 n=60 v=0
2386 On ch=3 n=53 v=0
2424 On ch=3 n=60 v=71
2424 On ch=3 n=53 v=68
2424 On ch=3 n=68 v=66
2424 On ch=3 n=68 v=64
2496 On ch=3 n=60 v=0
2496 On ch=3 n=53 v=0
2496 On ch=3 n=68 v=0
2496 On ch=3 n=68 v=0
2496 On ch=3 n=50 v=75
2496 On ch=3 n=67 v=76
2496 On ch=3 n=71 v=76
2496 On ch=3 n=67 v=78
2544 On ch=3 n=59 v=85
2546 On ch=3 n=71 v=0
2546 On ch=3 n=67 v=0
2547 On ch=3 n=50 v=0
2547 On ch=3 n=67 v=0
2568 On ch=3 n=62 v=78
2568 On ch=3 n=50 v=78
2568 On ch=3 n=67 v=78
2568 On ch=3 n=71 v=72
2571 On ch=3 n=67 v=0
2571 On ch=3 n=71 v=0
2572 On ch=3 n=50 v=0
2573 On ch=3 n=62 v=0
2578 On ch=3 n=59 v=0
2616 On ch=3 n=62 v=71
2616 On ch=3 n=55 v=68
2616 On ch=3 n=71 v=66
2616 On ch=3 n=67 v=64
2688 On ch=3 n=62 v=0
2688 On ch=3 n=55 v=0
2688 On ch=3 n=71 v=0
2688 On ch=3 n=67 v=0
2688 On ch=3 n=55 v=75
2688 On ch=3 n=63 v=76
2688 On ch=3 n=60 v=76
2688 On ch=3 n=63 v=78
2736 On ch=3 n=48 v=85
2738 On ch=3 n=60 v=0
2738 On ch=3 n=63 v=0
2739 On ch=3 n=55 v=0
2739 On ch=3 n=63 v=0
2760 On ch=3 n=67 v=78
2760 On ch=3 n=55 v=78
2760 On ch=3 n=63 v=78
2760 On ch=3 n=60 v=72
2763 On ch=3 n=63 v=0
2763 On ch=3 n=60 v=0
2764 On ch=3 n=55 v=0
2765 On ch=3 n=67 v=0
2770 On ch=3 n=48 v=0
2808 On ch=3 n=67 v=71
2808 On ch=3 n=51 v=68
2808 On ch=3 n=60 v=66
2808 On ch=3 n=63 v=64
2880 On ch=3 n=67 v=0
2880 On ch=3 n=51 v=0
2880 On ch=3 n=60 v=0
2880 On ch=3 n=63 v=0
2880 On ch=3 n=55 v=75
2880 On ch=3 n=63 v=76
2880 On ch=3 n=60 v=76
2880 On ch=3 n=63 v=78
2928 On ch=3 n=48 v=85
2930 On ch=3 n=60 v=0
2930 On ch=3 n=63 v=0
2931 On ch=3 n=55 v=0
2931 On ch=3 n=63 v=0
2952 On ch=3 n=67 v=78
2952 On ch=3 n=55 v=78
2952 On ch=3 n=63 v=78
2952 On ch=3 n=60 v=72
2955 On ch=3 n=63 v=0
2955 On ch=3 n=60 v=0
2956 On ch=3 n=55 v=0
2957 On ch=3 n=67 v=0
2962 On ch=3 n=48 v=0
3000 On ch=3 n=67 v=71
3000 On ch=3 n=51 v=68
3000 On ch=3 n=60 v=66
3000 On ch=3 n=63 v=64
3072 On ch=3 n=67 v=0
3072 On ch=3 n=51 v=0
3072 On ch=3 n=60 v=0
3072 On ch=3 n=63 v=0
3072 On ch=3 n=48 v=86
3072 On ch=3 n=55 v=82
3072 On ch=3 n=63 v=85
3072 On ch=3 n=63 v=86
3072 On ch=3 n=67 v=79
3264 On ch=3 n=48 v=0
3264 On ch=3 n=55 v=0
3264 On ch=3 n=63 v=0
3264 On ch=3 n=63 v=0
3264 On ch=3 n=67 v=0
3288 On ch=3 n=53 v=88
3312 On ch=3 n=48 v=101
3336 On ch=3 n=68 v=66
3336 On ch=3 n=65 v=69
3338 On ch=3 n=48 v=0
3340 On ch=3 n=68 v=0
3340 On ch=3 n=65 v=0
3408 On ch=3 n=68 v=82
3408 On ch=3 n=60 v=76
3408 On ch=3 n=68 v=78
3408 On ch=3 n=48 v=80
3417 On ch=3 n=53 v=0
3431 On ch=3 n=60 v=0
3432 On ch=3 n=68 v=0
3432 On ch=3 n=68 v=0
3432 On ch=3 n=48 v=0
3432 On ch=3 n=53 v=104
3456 On ch=3 n=53 v=0
3456 On ch=3 n=50 v=75
3456 On ch=3 n=67 v=76
3456 On ch=3 n=71 v=76
3456 On ch=3 n=67 v=78
3504 On ch=3 n=59 v=85
3506 On ch=3 n=71 v=0
3506 On ch=3 n=67 v=0
3507 On ch=3 n=50 v=0
3507 On ch=3 n=67 v=0
3528 On ch=3 n=62 v=78
3528 On ch=3 n=50 v=78
3528 On ch=3 n=67 v=78
3528 On ch=3 n=71 v=72
3531 On ch=3 n=67 v=0
3531 On ch=3 n=71 v=0
3532 On ch=3 n=50 v=0
3533 On ch=3 n=62 v=0
3538 On ch=3 n=59 v=0
3576 On ch=3 n=62 v=71
3576 On ch=3 n=55 v=68
3576 On ch=3 n=71 v=66
3576 On ch=3 n=67 v=64
3648 On ch=3 n=62 v=0
3648 On ch=3 n=55 v=0
3648 On ch=3 n=71 v=0
3648 On ch=3 n=67 v=0
3648 On ch=3 n=48 v=86
3648 On ch=3 n=55 v=82
3648 On ch=3 n=63 v=85
3648 On ch=3 n=63 v=86
3648 On ch=3 n=67 v=79
3840 On ch=3 n=48 v=0
3840 On ch=3 n=55 v=0
3840 On ch=3 n=63 v=0
3840 On ch=3 n=63 v=0
3840 On ch=3 n=67 v=0
3840 On ch=3 n=51 v=86
3840 On ch=3 n=58 v=82
3840 On ch=3 n=67 v=85
3840 On ch=3 n=63 v=86
3840 On ch=3 n=70 v=79
4032 On ch=3 n=51 v=0
4032 On ch=3 n=58 v=0
4032 On ch=3 n=67 v=0
4032 On ch=3 n=63 v=0
4032 On ch=3 n=70 v=0
4032 On ch=3 n=48 v=75
4032 On ch=3 n=65 v=76
4032 On ch=3 n=68 v=76
4032 On ch=3 n=68 v=78
4080 On ch=3 n=53 v=85
4082 On ch=3 n=68 v=0
4082 On ch=3 n=68 v=0
4083 On ch=3 n=48 v=0
4083 On ch=3 n=65 v=0
4104 On ch=3 n=60 v=78
4104 On ch=3 n=48 v=78
4104 On ch=3 n=68 v=78
4104 On ch=3 n=65 v=72
4107 On ch=3 n=68 v=0
4107 On ch=3 n=65 v=0
4108 On ch=3 n=48 v=0
4109 On ch=3 n=60 v=0
4114 On ch=3 n=53 v=0
4152 On ch=3 n=60 v=71
4152 On ch=3 n=53 v=68
4152 On ch=3 n=68 v=66
4152 On ch=3 n=68 v=64
4224 On ch=3 n=60 v=0
4224 On ch=3 n=53 v=0
4224 On ch=3 n=68 v=0
4224 On ch=3 n=68 v=0
4224 On ch=3 n=58 v=86
4224 On ch=3 n=53 v=82
4224 On ch=3 n=62 v=85
4224 On ch=3 n=62 v=86
4224 On ch=3 n=65 v=79
4416 On ch=3 n=58 v=0
4416 On ch=3 n=53 v=0
4416 On ch=3 n=62 v=0
4416 On ch=3 n=62 v=0
4416 On ch=3 n=65 v=0
4440 On ch=3 n=51 v=88
4464 On ch=3 n=58 v=101
4488 On ch=3 n=67 v=66
4488 On ch=3 n=63 v=69
4490 On ch=3 n=58 v=0
4492 On ch=3 n=67 v=0
4492 On ch=3 n=63 v=0
4560 On ch=3 n=67 v=82
4560 On ch=3 n=70 v=76
4560 On ch=3 n=63 v=78
4560 On ch=3 n=55 v=80
4569 On ch=3 n=51 v=0
4583 On ch=3 n=70 v=0
4584 On ch=3 n=67 v=0
4584 On ch=3 n=63 v=0
4584 On ch=3 n=55 v=0
4584 On ch=3 n=58 v=104
4608 On ch=3 n=58 v=0
4632 On ch=3 n=51 v=88
4656 On ch=3 n=58 v=101
4680 On ch=3 n=67 v=66
4680 On ch=3 n=63 v=69
4682 On ch=3 n=58 v=0
4684 On ch=3 n=67 v=0
4684 On ch=3 n=63 v=0
4752 On ch=3 n=67 v=82
4752 On ch=3 n=70 v=76
4752 On ch=3 n=63 v=78
4752 On ch=3 n=55 v=80
4761 On ch=3 n=51 v=0
4775 On ch=3 n=70 v=0
4776 On ch=3 n=67 v=0
4776 On ch=3 n=63 v=0
4776 On ch=3 n=55 v=0
4776 On ch=3 n=58 v=104
4800 On ch=3 n=58 v=0
4824 On ch=3 n=59 v=88
4848 On ch=3 n=53 v=101
4872 On ch=3 n=62 v=66
4872 On ch=3 n=71 v=69
4874 On ch=3 n=53 v=0
4876 On ch=3 n=62 v=0
4876 On ch=3 n=71 v=0
4944 On ch=3 n=62 v=82
4944 On ch=3 n=65 v=76
4944 On ch=3 n=62 v=78
4944 On ch=3 n=53 v=80
4953 On ch=3 n=59 v=0
4967 On ch=3 n=65 v=0
4968 On ch=3 n=62 v=0
4968 On ch=3 n=62 v=0
4968 On ch=3 n=53 v=0
4968 On ch=3 n=59 v=104
4992 On ch=3 n=59 v=0
4992 On ch=3 n=53 v=75
4992 On ch=3 n=68 v=76
4992 On ch=3 n=71 v=76
4992 On ch=3 n=68 v=78
5040 On ch=3 n=53 v=85
5042 On ch=3 n=71 v=0
5042 On ch=3 n=68 v=0
5043 On ch=3 n=53 v=0
5043 On ch=3 n=68 v=0
5064 On ch=3 n=71 v=78
5064 On ch=3 n=53 v=78
5064 On ch=3 n=68 v=78
5064 On ch=3 n=71 v=72
5067 On ch=3 n=68 v=0
5067 On ch=3 n=71 v=0
5068 On ch=3 n=53 v=0
5069 On ch=3 n=71 v=0
5074 On ch=3 n=53 v=0
5112 On ch=3 n=65 v=71
5112 On ch=3 n=56 v=68
5112 On ch=3 n=71 v=66
5112 On ch=3 n=68 v=64
5184 On ch=3 n=65 v=0
5184 On ch=3 n=56 v=0
5184 On ch=3 n=71 v=0
5184 On ch=3 n=68 v=0
5184 On ch=3 n=55 v=75
5184 On ch=3 n=63 v=76
5184 On ch=3 n=60 v=76
5184 On ch=3 n=63 v=78
5232 On ch=3 n=48 v=85
5234 On ch=3 n=60 v=0
5234 On ch=3 n=63 v=0
5235 On ch=3 n=55 v=0
5235 On ch=3 n=63 v=0
5256 On ch=3 n=67 v=78
5256 On ch=3 n=55 v=78
5256 On ch=3 n=63 v=78
5256 On ch=3 n=60 v=72
5259 On ch=3 n=63 v=0
5259 On ch=3 n=60 v=0
5260 On ch=3 n=55 v=0
5261 On ch=3 n=67 v=0
5266 On ch=3 n=48 v=0
5304 On ch=3 n=67 v=71
5304 On ch=3 n=51 v=68
5304 On ch=3 n=60 v=66
5304 On ch=3 n=63 v=64
5376 On ch=3 n=67 v=0
5376 On ch=3 n=51 v=0
5376 On ch=3 n=60 v=0
5376 On ch=3 n=63 v=0
5400 On ch=3 n=48 v=88
5424 On ch=3 n=55 v=101
5448 On ch=3 n=63 v=66
5448 On ch=3 n=60 v=69
5450 On ch=3 n=55 v=0
5452 On ch=3 n=63 v=0
5452 On ch=3 n=60 v=0
5520 On ch=3 n=63 v=82
5520 On ch=3 n=67 v=76
5520 On ch=3 n=63 v=78
5520 On ch=3 n=55 v=80
5529 On ch=3 n=48 v=0
5543 On ch=3 n=67 v=0
5544 On ch=3 n=63 v=0
5544 On ch=3 n=63 v=0
5544 On ch=3 n=55 v=0
5544 On ch=3 n=48 v=104
5568 On ch=3 n=48 v=0
5592 On ch=3 n=53 v=88
5616 On ch=3 n=48 v=101
5640 On ch=3 n=68 v=66
5640 On ch=3 n=65 v=69
5642 On ch=3 n=48 v=0
5644 On ch=3 n=68 v=0
5644 On ch=3 n=65 v=0
5712 On ch=3 n=68 v=82
5712 On ch=3 n=60 v=76
5712 On ch=3 n=68 v=78
5712 On ch=3 n=48 v=80
5721 On ch=3 n=53 v=0
5735 On ch=3 n=60 v=0
5736 On ch=3 n=68 v=0
5736 On ch=3 n=68 v=0
5736 On ch=3 n=48 v=0
5736 On ch=3 n=53 v=104
5760 On ch=3 n=53 v=0
5760 On ch=3 n=55 v=86
5760 On ch=3 n=50 v=82
5760 On ch=3 n=65 v=85
5760 On ch=3 n=71 v=86
5760 On ch=3 n=62 v=79
5952 On ch=3 n=55 v=0
5952 On ch=3 n=50 v=0
5952 On ch=3 n=65 v=0
5952 On ch=3 n=71 v=0
5952 On ch=3 n=62 v=0
5952 On ch=3 n=55 v=75
5952 On ch=3 n=63 v=76
5952 On ch=3 n=60 v=76
5952 On ch=3 n=63 v=78
6000 On ch=3 n=48 v=85
6002 On ch=3 n=60 v=0
6002 On ch=3 n=63 v=0
6003 On ch=3 n=55 v=0
6003 On ch=3 n=63 v=0
6024 On ch=3 n=67 v=78
6024 On ch=3 n=55 v=78
6024 On ch=3 n=63 v=78
6024 On ch=3 n=60 v=72
6027 On ch=3 n=63 v=0
6027 On ch=3 n=60 v=0
6028 On ch=3 n=55 v=0
6029 On ch=3 n=67 v=0
6034 On ch=3 n=48 v=0
6072 On ch=3 n=67 v=71
6072 On ch=3 n=51 v=68
6072 On ch=3 n=60 v=66
6072 On ch=3 n=63 v=64
6144 On ch=3 n=67 v=0
6144 On ch=3 n=51 v=0
6144 On ch=3 n=60 v=0
6144 On ch=3 n=63 v=0
6168 On ch=3 n=53 v=88
6192 On ch=3 n=48 v=101
6216 On ch=3 n=68 v=66
6216 On ch=3 n=65 v=69
6218 On ch=3 n=48 v=0
6220 On ch=3 n=68 v=0
6220 On ch=3 n=65 v=0
6288 On ch=3 n=68 v=82
6288 On ch=3 n=60 v=76
6288 On ch=3 n=68 v=78
6288 On ch=3 n=48 v=80
6297 On ch=3 n=53 v=0
6311 On ch=3 n=60 v=0
6312 On ch=3 n=68 v=0
6312 On ch=3 n=68 v=0
6312 On ch=3 n=48 v=0
6312 On ch=3 n=53 v=104
6336 On ch=3 n=53 v=0
6336 On ch=3 n=53 v=75
6336 On ch=3 n=62 v=76
6336 On ch=3 n=70 v=76
6336 On ch=3 n=62 v=78
6384 On ch=3 n=58 v=85
6386 On ch=3 n=70 v=0
6386 On ch=3 n=62 v=0
6387 On ch=3 n=53 v=0
6387 On ch=3 n=62 v=0
6408 On ch=3 n=65 v=78
6408 On ch=3 n=53 v=78
6408 On ch=3 n=62 v=78
6408 On ch=3 n=70 v=72
6411 On ch=3 n=62 v=0
6411 On ch=3 n=70 v=0
6412 On ch=3 n=53 v=0
6413 On ch=3 n=65 v=0
6418 On ch=3 n=58 v=0
6456 On ch=3 n=65 v=71
6456 On ch=3 n=50 v=68
6456 On ch=3 n=70 v=66
6456 On ch=3 n=62 v=64
6528 On ch=3 n=65 v=0
6528 On ch=3 n=50 v=0
6528 On ch=3 n=70 v=0
6528 On ch=3 n=62 v=0
6528 On ch=3 n=51 v=86
6528 On ch=3 n=58 v=82
6528 On ch=3 n=67 v=85
6528 On ch=3 n=63 v=86
6528 On ch=3 n=70 v=79
6720 On ch=3 n=51 v=0
6720 On ch=3 n=58 v=0
6720 On ch=3 n=67 v=0
6720 On ch=3 n=63 v=0
6720 On ch=3 n=70 v=0
6720 On ch=3 n=51 v=75
6720 On ch=3 n=60 v=76
6720 On ch=3 n=68 v=76
6720 On ch=3 n=68 v=78
6768 On ch=3 n=51 v=85
6770 On ch=3 n=68 v=0
6770 On ch=3 n=68 v=0
6771 On ch=3 n=51 v=0
6771 On ch=3 n=60 v=0
6792 On ch=3 n=60 v=78
6792 On ch=3 n=51 v=78
6792 On ch=3 n=68 v=78
6792 On ch=3 n=60 v=72
6795 On ch=3 n=68 v=0
6795 On ch=3 n=60 v=0
6796 On ch=3 n=51 v=0
6797 On ch=3 n=60 v=0
6802 On ch=3 n=51 v=0
6840 On ch=3 n=63 v=71
6840 On ch=3 n=48 v=68
6840 On ch=3 n=68 v=66
6840 On ch=3 n=68 v=64
6912 On ch=3 n=63 v=0
6912 On ch=3 n=48 v=0
6912 On ch=3 n=68 v=0
6912 On ch=3 n=68 v=0
6912 On ch=3 n=53 v=86
6912 On ch=3 n=48 v=82
6912 On ch=3 n=68 v=85
6912 On ch=3 n=68 v=86
6912 On ch=3 n=60 v=79
7104 On ch=3 n=53 v=0
7104 On ch=3 n=48 v=0
7104 On ch=3 n=68 v=0
7104 On ch=3 n=68 v=0
7104 On ch=3 n=60 v=0
7104 On ch=3 n=55 v=86
7104 On ch=3 n=50 v=82
7104 On ch=3 n=71 v=85
7104 On ch=3 n=67 v=86
7104 On ch=3 n=62 v=79
7296 On ch=3 n=55 v=0
7296 On ch=3 n=50 v=0
7296 On ch=3 n=71 v=0
7296 On ch=3 n=67 v=0
7296 On ch=3 n=62 v=0
7296 On ch=3 n=55 v=75
7296 On ch=3 n=63 v=76
7296 On ch=3 n=60 v=76
7296 On ch=3 n=63 v=78
7344 On ch=3 n=48 v=85
7346 On ch=3 n=60 v=0
7346 On ch=3 n=63 v=0
7347 On ch=3 n=55 v=0
7347 On ch=3 n=63 v=0
7368 On ch=3 n=67 v=78
7368 On ch=3 n=55 v=78
7368 On ch=3 n=63 v=78
7368 On ch=3 n=60 v=72
7371 On ch=3 n=63 v=0
7371 On ch=3 n=60 v=0
7372 On ch=3 n=55 v=0
7373 On ch=3 n=67 v=0
7378 On ch=3 n=48 v=0
7416 On ch=3 n=67 v=71
7416 On ch=3 n=51 v=68
7416 On ch=3 n=60 v=66
7416 On ch=3 n=63 v=64
7488 On ch=3 n=67 v=0
7488 On ch=3 n=51 v=0
7488 On ch=3 n=60 v=0
7488 On ch=3 n=63 v=0
7488 On ch=3 n=48 v=86
7488 On ch=3 n=55 v=82
7488 On ch=3 n=64 v=85
7488 On ch=3 n=60 v=86
7488 On ch=3 n=67 v=79
7680 On ch=3 n=48 v=0
7680 On ch=3 n=55 v=0
7680 On ch=3 n=64 v=0
7680 On ch=3 n=60 v=0
7680 On ch=3 n=67 v=0
7680 On ch=3 n=53 v=86
7680 On ch=3 n=48 v=82
7680 On ch=3 n=68 v=85
7680 On ch=3 n=68 v=86
7680 On ch=3 n=60 v=79
7872 On ch=3 n=53 v=0
7872 On ch=3 n=48 v=0
7872 On ch=3 n=68 v=0
7872 On ch=3 n=68 v=0
7872 On ch=3 n=60 v=0
7896 On ch=3 n=58 v=88
7920 On ch=3 n=53 v=101
7944 On ch=3 n=62 v=66
7944 On ch=3 n=70 v=69
7946 On ch=3 n=53 v=0
7948 On ch=3 n=62 v=0
7948 On ch=3 n=70 v=0
8016 On ch=3 n=62 v=82
8016 On ch=3 n=65 v=76
8016 On ch=3 n=62 v=78
8016 On ch=3 n=53 v=80
8025 On ch=3 n=58 v=0
8039 On ch=3 n=65 v=0
8040 On ch=3 n=62 v=0
8040 On ch=3 n=62 v=0
8040 On ch=3 n=53 v=0
8040 On ch=3 n=58 v=104
8064 On ch=3 n=58 v=0
8064 On ch=3 n=58 v=75
8064 On ch=3 n=67 v=76
8064 On ch=3 n=63 v=76
8064 On ch=3 n=63 v=78
8112 On ch=3 n=55 v=85
8114 On ch=3 n=63 v=0
8114 On ch=3 n=63 v=0
8115 On ch=3 n=58 v=0
8115 On ch=3 n=67 v=0
8136 On ch=3 n=70 v=78
8136 On ch=3 n=58 v=78
8136 On ch=3 n=63 v=78
8136 On ch=3 n=67 v=72
8139 On ch=3 n=63 v=0
8139 On ch=3 n=67 v=0
8140 On ch=3 n=58 v=0
8141 On ch=3 n=70 v=0
8146 On ch=3 n=55 v=0
8184 On ch=3 n=70 v=71
8184 On ch=3 n=55 v=68
8184 On ch=3 n=63 v=66
8184 On ch=3 n=63 v=64
8256 On ch=3 n=70 v=0
8256 On ch=3 n=55 v=0
8256 On ch=3 n=63 v=0
8256 On ch=3 n=63 v=0
8280 On ch=3 n=56 v=88
8304 On ch=3 n=51 v=101
8328 On ch=3 n=60 v=66
8328 On ch=3 n=68 v=69
8330 On ch=3 n=51 v=0
8332 On ch=3 n=60 v=0
8332 On ch=3 n=68 v=0
8400 On ch=3 n=60 v=82
8400 On ch=3 n=63 v=76
8400 On ch=3 n=68 v=78
8400 On ch=3 n=51 v=80
8409 On ch=3 n=56 v=0
8423 On ch=3 n=63 v=0
8424 On ch=3 n=60 v=0
8424 On ch=3 n=68 v=0
8424 On ch=3 n=51 v=0
8424 On ch=3 n=48 v=104
8448 On ch=3 n=48 v=0
8448 On ch=3 n=53 v=86
8448 On ch=3 n=48 v=82
8448 On ch=3 n=68 v=85
8448 On ch=3 n=68 v=86
8448 On ch=3 n=60 v=79
8640 On ch=3 n=53 v=0
8640 On ch=3 n=48 v=0
8640 On ch=3 n=68 v=0
8640 On ch=3 n=68 v=0
8640 On ch=3 n=60 v=0
8640 On ch=3 n=55 v=86
8640 On ch=3 n=50 v=82
8640 On ch=3 n=71 v=85
8640 On ch=3 n=67 v=86
8640 On ch=3 n=62 v=79
8832 On ch=3 n=55 v=0
8832 On ch=3 n=50 v=0
8832 On ch=3 n=71 v=0
8832 On ch=3 n=67 v=0
8832 On ch=3 n=62 v=0
8832 On ch=3 n=55 v=75
8832 On ch=3 n=63 v=76
8832 On ch=3 n=60 v=76
8832 On ch=3 n=63 v=78
8880 On ch=3 n=48 v=85
8882 On ch=3 n=60 v=0
8882 On ch=3 n=63 v=0
8883 On ch=3 n=55 v=0
8883 On ch=3 n=63 v=0
8904 On ch=3 n=67 v=78
8904 On ch=3 n=55 v=78
8904 On ch=3 n=63 v=78
8904 On ch=3 n=60 v=72
8907 On ch=3 n=63 v=0
8907 On ch=3 n=60 v=0
8908 On ch=3 n=55 v=0
8909 On ch=3 n=67 v=0
8914 On ch=3 n=48 v=0
8952 On ch=3 n=67 v=71
8952 On ch=3 n=51 v=68
8952 On ch=3 n=60 v=66
8952 On ch=3 n=63 v=64
9024 On ch=3 n=67 v=0
9024 On ch=3 n=51 v=0
9024 On ch=3 n=60 v=0
9024 On ch=3 n=63 v=0
9024 On ch=3 n=48 v=86
9024 On ch=3 n=55 v=82
9024 On ch=3 n=63 v=85
9024 On ch=3 n=63 v=86
9024 On ch=3 n=67 v=79
9216 On ch=3 n=48 v=0
9216 On ch=3 n=55 v=0
9216 On ch=3 n=63 v=0
9216 On ch=3 n=63 v=0
9216 On ch=3 n=67 v=0
9216 On ch=3 n=55 v=75
9216 On ch=3 n=63 v=76
9216 On ch=3 n=60 v=76
9216 On ch=3 n=63 v=78
9264 On ch=3 n=48 v=85
9266 On ch=3 n=60 v=0
9266 On ch=3 n=63 v=0
9267 On ch=3 n=55 v=0
9267 On ch=3 n=63 v=0
9288 On ch=3 n=67 v=78
9288 On ch=3 n=55 v=78
9288 On ch=3 n=63 v=78
9288 On ch=3 n=60 v=72
9291 On ch=3 n=63 v=0
9291 On ch=3 n=60 v=0
9292 On ch=3 n=55 v=0
9293 On ch=3 n=67 v=0
9298 On ch=3 n=48 v=0
9336 On ch=3 n=67 v=71
9336 On ch=3 n=51 v=68
9336 On ch=3 n=60 v=66
9336 On ch=3 n=63 v=64
9408 On ch=3 n=67 v=0
9408 On ch=3 n=51 v=0
9408 On ch=3 n=60 v=0
9408 On ch=3 n=63 v=0
9432 On ch=3 n=53 v=88
9456 On ch=3 n=48 v=101
9480 On ch=3 n=68 v=66
9480 On ch=3 n=65 v=69
9482 On ch=3 n=48 v=0
9484 On ch=3 n=68 v=0
9484 On ch=3 n=65 v=0
9552 On ch=3 n=68 v=82
9552 On ch=3 n=60 v=76
9552 On ch=3 n=68 v=78
9552 On ch=3 n=48 v=80
9561 On ch=3 n=53 v=0
9575 On ch=3 n=60 v=0
9576 On ch=3 n=68 v=0
9576 On ch=3 n=68 v=0
9576 On ch=3 n=48 v=0
9576 On ch=3 n=53 v=104
9600 On ch=3 n=53 v=0
9600 On ch=3 n=55 v=86
9600 On ch=3 n=50 v=82
9600 On ch=3 n=71 v=85
9600 On ch=3 n=67 v=86
9600 On ch=3 n=62 v=79
9792 On ch=3 n=55 v=0
9792 On ch=3 n=50 v=0
9792 On ch=3 n=71 v=0
9792 On ch=3 n=67 v=0
9792 On ch=3 n=62 v=0
9792 On ch=3 n=55 v=75
9792 On ch=3 n=63 v=76
9792 On ch=3 n=60 v=76
9792 On ch=3 n=63 v=78
9840 On ch=3 n=48 v=85
9842 On ch=3 n=60 v=0
9842 On ch=3 n=63 v=0
9843 On ch=3 n=55 v=0
9843 On ch=3 n=63 v=0
9864 On ch=3 n=67 v=78
9864 On ch=3 n=55 v=78
9864 On ch=3 n=63 v=78
9864 On ch=3 n=60 v=72
9867 On ch=3 n=63 v=0
9867 On ch=3 n=60 v=0
9868 On ch=3 n=55 v=0
9869 On ch=3 n=67 v=0
9874 On ch=3 n=48 v=0
9912 On ch=3 n=67 v=71
9912 On ch=3 n=51 v=68
9912 On ch=3 n=60 v=66
9912 On ch=3 n=63 v=64
9984 On ch=3 n=67 v=0
9984 On ch=3 n=51 v=0
9984 On ch=3 n=60 v=0
9984 On ch=3 n=63 v=0
9984 On ch=3 n=51 v=86
9984 On ch=3 n=58 v=82
9984 On ch=3 n=67 v=85
9984 On ch=3 n=63 v=86
9984 On ch=3 n=70 v=79
10176 On ch=3 n=51 v=0
10176 On ch=3 n=58 v=0
10176 On ch=3 n=67 v=0
10176 On ch=3 n=63 v=0
10176 On ch=3 n=70 v=0
10200 On ch=3 n=53 v=88
10224 On ch=3 n=48 v=101
10248 On ch=3 n=68 v=66
10248 On ch=3 n=65 v=69
10250 On ch=3 n=48 v=0
10252 On ch=3 n=68 v=0
10252 On ch=3 n=65 v=0
10320 On ch=3 n=68 v=82
10320 On ch=3 n=60 v=76
10320 On ch=3 n=68 v=78
10320 On ch=3 n=48 v=80
10329 On ch=3 n=53 v=0
10343 On ch=3 n=60 v=0
10344 On ch=3 n=68 v=0
10344 On ch=3 n=68 v=0
10344 On ch=3 n=48 v=0
10344 On ch=3 n=53 v=104
10368 On ch=3 n=53 v=0
10368 On ch=3 n=53 v=75
10368 On ch=3 n=62 v=76
10368 On ch=3 n=70 v=76
10368 On ch=3 n=62 v=78
10416 On ch=3 n=58 v=85
10418 On ch=3 n=70 v=0
10418 On ch=3 n=62 v=0
10419 On ch=3 n=53 v=0
10419 On ch=3 n=62 v=0
10440 On ch=3 n=65 v=78
10440 On ch=3 n=53 v=78
10440 On ch=3 n=62 v=78
10440 On ch=3 n=70 v=72
10443 On ch=3 n=62 v=0
10443 On ch=3 n=70 v=0
10444 On ch=3 n=53 v=0
10445 On ch=3 n=65 v=0
10450 On ch=3 n=58 v=0
10488 On ch=3 n=65 v=71
10488 On ch=3 n=50 v=68
10488 On ch=3 n=70 v=66
10488 On ch=3 n=62 v=64
10560 On ch=3 n=65 v=0
10560 On ch=3 n=50 v=0
10560 On ch=3 n=70 v=0
10560 On ch=3 n=62 v=0
10584 On ch=3 n=51 v=88
10608 On ch=3 n=58 v=101
10632 On ch=3 n=67 v=66
10632 On ch=3 n=63 v=69
10634 On ch=3 n=58 v=0
10636 On ch=3 n=67 v=0
10636 On ch=3 n=63 v=0
10704 On ch=3 n=67 v=82
10704 On ch=3 n=70 v=76
10704 On ch=3 n=63 v=78
10704 On ch=3 n=55 v=80
10713 On ch=3 n=51 v=0
10727 On ch=3 n=70 v=0
10728 On ch=3 n=67 v=0
10728 On ch=3 n=63 v=0
10728 On ch=3 n=55 v=0
10728 On ch=3 n=58 v=104
10752 On ch=3 n=58 v=0
10752 On ch=3 n=58 v=75
10752 On ch=3 n=67 v=76
10752 On ch=3 n=63 v=76
10752 On ch=3 n=63 v=78
10800 On ch=3 n=55 v=85
10802 On ch=3 n=63 v=0
10802 On ch=3 n=63 v=0
10803 On ch=3 n=58 v=0
10803 On ch=3 n=67 v=0
10824 On ch=3 n=70 v=78
10824 On ch=3 n=58 v=78
10824 On ch=3 n=63 v=78
10824 On ch=3 n=67 v=72
10827 On ch=3 n=63 v=0
10827 On ch=3 n=67 v=0
10828 On ch=3 n=58 v=0
10829 On ch=3 n=70 v=0
10834 On ch=3 n=55 v=0
10872 On ch=3 n=70 v=71
10872 On ch=3 n=55 v=68
10872 On ch=3 n=63 v=66
10872 On ch=3 n=63 v=64
10944 On ch=3 n=70 v=0
10944 On ch=3 n=55 v=0
10944 On ch=3 n=63 v=0
10944 On ch=3 n=63 v=0
10944 On ch=3 n=53 v=75
10944 On ch=3 n=62 v=76
10944 On ch=3 n=71 v=76
10944 On ch=3 n=62 v=78
10992 On ch=3 n=59 v=85
10994 On ch=3 n=71 v=0
10994 On ch=3 n=62 v=0
10995 On ch=3 n=53 v=0
10995 On ch=3 n=62 v=0
11016 On ch=3 n=65 v=78
11016 On ch=3 n=53 v=78
11016 On ch=3 n=62 v=78
11016 On ch=3 n=71 v=72
11019 On ch=3 n=62 v=0
11019 On ch=3 n=71 v=0
11020 On ch=3 n=53 v=0
11021 On ch=3 n=65 v=0
11026 On ch=3 n=59 v=0
11064 On ch=3 n=65 v=71
11064 On ch=3 n=50 v=68
11064 On ch=3 n=71 v=66
11064 On ch=3 n=62 v=64
11136 On ch=3 n=65 v=0
11136 On ch=3 n=50 v=0
11136 On ch=3 n=71 v=0
11136 On ch=3 n=62 v=0
11160 On ch=3 n=53 v=88
11184 On ch=3 n=56 v=101
11208 On ch=3 n=71 v=66
11208 On ch=3 n=65 v=69
11210 On ch=3 n=56 v=0
11212 On ch=3 n=71 v=0
11212 On ch=3 n=65 v=0
11280 On ch=3 n=68 v=82
11280 On ch=3 n=71 v=76
11280 On ch=3 n=68 v=78
11280 On ch=3 n=53 v=80
11289 On ch=3 n=53 v=0
11303 On ch=3 n=71 v=0
11304 On ch=3 n=68 v=0
11304 On ch=3 n=68 v=0
11304 On ch=3 n=53 v=0
11304 On ch=3 n=59 v=104
11328 On ch=3 n=59 v=0
11328 On ch=3 n=48 v=86
11328 On ch=3 n=55 v=82
11328 On ch=3 n=63 v=85
11328 On ch=3 n=63 v=86
11328 On ch=3 n=67 v=79
11520 On ch=3 n=48 v=0
11520 On ch=3 n=55 v=0
11520 On ch=3 n=63 v=0
11520 On ch=3 n=63 v=0
11520 On ch=3 n=67 v=0
11520 On ch=3 n=48 v=86
11520 On ch=3 n=55 v=82
11520 On ch=3 n=63 v=85
11520 On ch=3 n=63 v=86
11520 On ch=3 n=67 v=79
11712 On ch=3 n=48 v=0
11712 On ch=3 n=55 v=0
11712 On ch=3 n=63 v=0
11712 On ch=3 n=63 v=0
11712 On ch=3 n=67 v=0
11712 On ch=3 n=48 v=75
11712 On ch=3 n=65 v=76
11712 On ch=3 n=68 v=76
11712 On ch=3 n=68 v=78
11760 On ch=3 n=53 v=85
11762 On ch=3 n=68 v=0
11762 On ch=3 n=68 v=0
11763 On ch=3 n=48 v=0
11763 On ch=3 n=65 v=0
11784 On ch=3 n=60 v=78
11784 On ch=3 n=48 v=78
11784 On ch=3 n=68 v=78
11784 On ch=3 n=65 v=72
11787 On ch=3 n=68 v=0
11787 On ch=3 n=65 v=0
11788 On ch=3 n=48 v=0
11789 On ch=3 n=60 v=0
11794 On ch=3 n=53 v=0
11832 On ch=3 n=60 v=71
11832 On ch=3 n=53 v=68
11832 On ch=3 n=68 v=66
11832 On ch=3 n=68 v=64
11904 On ch=3 n=60 v=0
11904 On ch=3 n=53 v=0
11904 On ch=3 n=68 v=0
11904 On ch=3 n=68 v=0
11904 On ch=3 n=55 v=86
11904 On ch=3 n=50 v=82
11904 On ch=3 n=65 v=85
11904 On ch=3 n=71 v=86
11904 On ch=3 n=62 v=79
12096 On ch=3 n=55 v=0
12096 On ch=3 n=50 v=0
12096 On ch=3 n=65 v=0
12096 On ch=3 n=71 v=0
12096 On ch=3 n=62 v=0
12096 On ch=3 n=48 v=86
12096 On ch=3 n=55 v=82
12096 On ch=3 n=63 v=85
12096 On ch=3 n=63 v=86
12096 On ch=3 n=67 v=79
12288 On ch=3 n=48 v=0
12288 On ch=3 n=55 v=0
12288 On ch=3 n=63 v=0
12288 On ch=3 n=63 v=0
12288 On ch=3 n=67 v=0
12312 On ch=3 n=53 v=88
12336 On ch=3 n=48 v=101
12360 On ch=3 n=68 v=66
12360 On ch=3 n=65 v=69
12362 On ch=3 n=48 v=0
12364 On ch=3 n=68 v=0
12364 On ch=3 n=65 v=0
12432 On ch=3 n=68 v=82
12432 On ch=3 n=60 v=76
12432 On ch=3 n=68 v=78
12432 On ch=3 n=48 v=80
12441 On ch=3 n=53 v=0
12455 On ch=3 n=60 v=0
12456 On ch=3 n=68 v=0
12456 On ch=3 n=68 v=0
12456 On ch=3 n=48 v=0
12456 On ch=3 n=53 v=104
12480 On ch=3 n=53 v=0
12480 On ch=3 n=53 v=75
12480 On ch=3 n=62 v=76
12480 On ch=3 n=70 v=76
12480 On ch=3 n=62 v=78
12528 On ch=3 n=58 v=85
12530 On ch=3 n=70 v=0
12530 On ch=3 n=62 v=0
12531 On ch=3 n=53 v=0
12531 On ch=3 n=62 v=0
12552 On ch=3 n=65 v=78
12552 On ch=3 n=53 v=78
12552 On ch=3 n=62 v=78
12552 On ch=3 n=70 v=72
12555 On ch=3 n=62 v=0
12555 On ch=3 n=70 v=0
12556 On ch=3 n=53 v=0
12557 On ch=3 n=65 v=0
12562 On ch=3 n=58 v=0
12600 On ch=3 n=65 v=71
12600 On ch=3 n=50 v=68
12600 On ch=3 n=70 v=66
12600 On ch=3 n=62 v=64
12672 On ch=3 n=65 v=0
12672 On ch=3 n=50 v=0
12672 On ch=3 n=70 v=0
12672 On ch=3 n=62 v=0
12672 On ch=3 n=58 v=75
12672 On ch=3 n=67 v=76
12672 On ch=3 n=63 v=76
12672 On ch=3 n=63 v=78
12720 On ch=3 n=55 v=85
12722 On ch=3 n=63 v=0
12722 On ch=3 n=63 v=0
12723 On ch=3 n=58 v=0
12723 On ch=3 n=67 v=0
12744 On ch=3 n=70 v=78
12744 On ch=3 n=58 v=78
12744 On ch=3 n=63 v=78
12744 On ch=3 n=67 v=72
12747 On ch=3 n=63 v=0
12747 On ch=3 n=67 v=0
12748 On ch=3 n=58 v=0
12749 On ch=3 n=70 v=0
12754 On ch=3 n=55 v=0
12792 On ch=3 n=70 v=71
12792 On ch=3 n=55 v=68
12792 On ch=3 n=63 v=66
12792 On ch=3 n=63 v=64
12864 On ch=3 n=70 v=0
12864 On ch=3 n=55 v=0
12864 On ch=3 n=63 v=0
12864 On ch=3 n=63 v=0
12864 On ch=3 n=51 v=75
12864 On ch=3 n=60 v=76
12864 On ch=3 n=68 v=76
12864 On ch=3 n=68 v=78
12912 On ch=3 n=51 v=85
12914 On ch=3 n=68 v=0
12914 On ch=3 n=68 v=0
12915 On ch=3 n=51 v=0
12915 On ch=3 n=60 v=0
12936 On ch=3 n=60 v=78
12936 On ch=3 n=51 v=78
12936 On ch=3 n=68 v=78
12936 On ch=3 n=60 v=72
12939 On ch=3 n=68 v=0
12939 On ch=3 n=60 v=0
12940 On ch=3 n=51 v=0
12941 On ch=3 n=60 v=0
12946 On ch=3 n=51 v=0
12984 On ch=3 n=63 v=71
12984 On ch=3 n=48 v=68
12984 On ch=3 n=68 v=66
12984 On ch=3 n=68 v=64
13056 On ch=3 n=63 v=0
13056 On ch=3 n=48 v=0
13056 On ch=3 n=68 v=0
13056 On ch=3 n=68 v=0
13056 On ch=3 n=53 v=86
13056 On ch=3 n=48 v=82
13056 On ch=3 n=68 v=85
13056 On ch=3 n=68 v=86
13056 On ch=3 n=60 v=79
13248 On ch=3 n=53 v=0
13248 On ch=3 n=48 v=0
13248 On ch=3 n=68 v=0
13248 On ch=3 n=68 v=0
13248 On ch=3 n=60 v=0
13248 On ch=3 n=55 v=86
13248 On ch=3 n=50 v=82
13248 On ch=3 n=71 v=85
13248 On ch=3 n=67 v=86
13248 On ch=3 n=62 v=79
13440 On ch=3 n=55 v=0
13440 On ch=3 n=50 v=0
13440 On ch=3 n=71 v=0
13440 On ch=3 n=67 v=0
13440 On ch=3 n=62 v=0
13464 On ch=3 n=48 v=88
13488 On ch=3 n=55 v=101
13512 On ch=3 n=63 v=66
13512 On ch=3 n=60 v=69
13514 On ch=3 n=55 v=0
13516 On ch=3 n=63 v=0
13516 On ch=3 n=60 v=0
13584 On ch=3 n=63 v=82
13584 On ch=3 n=67 v=76
13584 On ch=3 n=63 v=78
13584 On ch=3 n=55 v=80
13593 On ch=3 n=48 v=0
13607 On ch=3 n=67 v=0
13608 On ch=3 n=63 v=0
13608 On ch=3 n=63 v=0
13608 On ch=3 n=55 v=0
13608 On ch=3 n=48 v=104
13632 On ch=3 n=48 v=0
13632 On ch=3 n=55 v=75
13632 On ch=3 n=64 v=76
13632 On ch=3 n=60 v=76
13632 On ch=3 n=60 v=78
13680 On ch=3 n=52 v=85
13682 On ch=3 n=60 v=0
13682 On ch=3 n=60 v=0
13683 On ch=3 n=55 v=0
13683 On ch=3 n=64 v=0
13704 On ch=3 n=67 v=78
13704 On ch=3 n=55 v=78
13704 On ch=3 n=60 v=78
13704 On ch=3 n=64 v=72
13707 On ch=3 n=60 v=0
13707 On ch=3 n=64 v=0
13708 On ch=3 n=55 v=0
13709 On ch=3 n=67 v=0
13714 On ch=3 n=52 v=0
13752 On ch=3 n=67 v=71
13752 On ch=3 n=52 v=68
13752 On ch=3 n=60 v=66
13752 On ch=3 n=60 v=64
13824 On ch=3 n=67 v=0
13824 On ch=3 n=52 v=0
13824 On ch=3 n=60 v=0
13824 On ch=3 n=60 v=0
13824 On ch=3 n=53 v=86
13824 On ch=3 n=48 v=82
13824 On ch=3 n=68 v=85
13824 On ch=3 n=68 v=86
13824 On ch=3 n=60 v=79
14016 On ch=3 n=53 v=0
14016 On ch=3 n=48 v=0
14016 On ch=3 n=68 v=0
14016 On ch=3 n=68 v=0
14016 On ch=3 n=60 v=0
14040 On ch=3 n=58 v=88
14064 On ch=3 n=53 v=101
14088 On ch=3 n=62 v=66
14088 On ch=3 n=70 v=69
14090 On ch=3 n=53 v=0
14092 On ch=3 n=62 v=0
14092 On ch=3 n=70 v=0
14160 On ch=3 n=62 v=82
14160 On ch=3 n=65 v=76
14160 On ch=3 n=62 v=78
14160 On ch=3 n=53 v=80
14169 On ch=3 n=58 v=0
14183 On ch=3 n=65 v=0
14184 On ch=3 n=62 v=0
14184 On ch=3 n=62 v=0
14184 On ch=3 n=53 v=0
14184 On ch=3 n=58 v=104
14208 On ch=3 n=58 v=0
14208 On ch=3 n=58 v=75
14208 On ch=3 n=67 v=76
14208 On ch=3 n=63 v=76
14208 On ch=3 n=63 v=78
14256 On ch=3 n=55 v=85
14258 On ch=3 n=63 v=0
14258 On ch=3 n=63 v=0
14259 On ch=3 n=58 v=0
14259 On ch=3 n=67 v=0
14280 On ch=3 n=70 v=78
14280 On ch=3 n=58 v=78
14280 On ch=3 n=63 v=78
14280 On ch=3 n=67 v=72
14283 On ch=3 n=63 v=0
14283 On ch=3 n=67 v=0
14284 On ch=3 n=58 v=0
14285 On ch=3 n=70 v=0
14290 On ch=3 n=55 v=0
14328 On ch=3 n=70 v=71
14328 On ch=3 n=55 v=68
14328 On ch=3 n=63 v=66
14328 On ch=3 n=63 v=64
14400 On ch=3 n=70 v=0
14400 On ch=3 n=55 v=0
14400 On ch=3 n=63 v=0
14400 On ch=3 n=63 v=0
14400 On ch=3 n=51 v=75
14400 On ch=3 n=60 v=76
14400 On ch=3 n=68 v=76
14400 On ch=3 n=68 v=78
14448 On ch=3 n=51 v=85
14450 On ch=3 n=68 v=0
14450 On ch=3 n=68 v=0
14451 On ch=3 n=51 v=0
14451 On ch=3 n=60 v=0
14472 On ch=3 n=60 v=78
14472 On ch=3 n=51 v=78
14472 On ch=3 n=68 v=78
14472 On ch=3 n=60 v=72
14475 On ch=3 n=68 v=0
14475 On ch=3 n=60 v=0
14476 On ch=3 n=51 v=0
14477 On ch=3 n=60 v=0
14482 On ch=3 n=51 v=0
14520 On ch=3 n=63 v=71
14520 On ch=3 n=48 v=68
14520 On ch=3 n=68 v=66
14520 On ch=3 n=68 v=64
14592 On ch=3 n=63 v=0
14592 On ch=3 n=48 v=0
14592 On ch=3 n=68 v=0
14592 On ch=3 n=68 v=0
14592 On ch=3 n=48 v=75
14592 On ch=3 n=65 v=76
14592 On ch=3 n=68 v=76
14592 On ch=3 n=68 v=78
14640 On ch=3 n=53 v=85
14642 On ch=3 n=68 v=0
14642 On ch=3 n=68 v=0
14643 On ch=3 n=48 v=0
14643 On ch=3 n=65 v=0
14664 On ch=3 n=60 v=78
14664 On ch=3 n=48 v=78
14664 On ch=3 n=68 v=78
14664 On ch=3 n=65 v=72
14667 On ch=3 n=68 v=0
14667 On ch=3 n=65 v=0
14668 On ch=3 n=48 v=0
14669 On ch=3 n=60 v=0
14674 On ch=3 n=53 v=0
14712 On ch=3 n=60 v=71
14712 On ch=3 n=53 v=68
14712 On ch=3 n=68 v=66
14712 On ch=3 n=68 v=64
14784 On ch=3 n=60 v=0
14784 On ch=3 n=53 v=0
14784 On ch=3 n=68 v=0
14784 On ch=3 n=68 v=0
14808 On ch=3 n=55 v=88
14832 On ch=3 n=50 v=101
14856 On ch=3 n=71 v=66
14856 On ch=3 n=67 v=69
14858 On ch=3 n=50 v=0
14860 On ch=3 n=71 v=0
14860 On ch=3 n=67 v=0
14928 On ch=3 n=71 v=82
14928 On ch=3 n=62 v=76
14928 On ch=3 n=67 v=78
14928 On ch=3 n=50 v=80
14937 On ch=3 n=55 v=0
14951 On ch=3 n=62 v=0
14952 On ch=3 n=71 v=0
14952 On ch=3 n=67 v=0
14952 On ch=3 n=50 v=0
14952 On ch=3 n=59 v=104
14976 On ch=3 n=59 v=0
14976 On ch=3 n=55 v=75
14976 On ch=3 n=63 v=76
14976 On ch=3 n=60 v=76
14976 On ch=3 n=63 v=78
15024 On ch=3 n=48 v=85
15026 On ch=3 n=60 v=0
15026 On ch=3 n=63 v=0
15027 On ch=3 n=55 v=0
15027 On ch=3 n=63 v=0
15048 On ch=3 n=67 v=78
15048 On ch=3 n=55 v=78
15048 On ch=3 n=63 v=78
15048 On ch=3 n=60 v=72
15051 On ch=3 n=63 v=0
15051 On ch=3 n=60 v=0
15052 On ch=3 n=55 v=0
15053 On ch=3 n=67 v=0
15058 On ch=3 n=48 v=0
15096 On ch=3 n=67 v=71
15096 On ch=3 n=51 v=68
15096 On ch=3 n=60 v=66
15096 On ch=3 n=63 v=64
15168 On ch=3 n=67 v=0
15168 On ch=3 n=51 v=0
15168 On ch=3 n=60 v=0
15168 On ch=3 n=63 v=0
15192 On ch=3 n=48 v=88
15216 On ch=3 n=55 v=101
15240 On ch=3 n=63 v=66
15240 On ch=3 n=60 v=69
15242 On ch=3 n=55 v=0
15244 On ch=3 n=63 v=0
15244 On ch=3 n=60 v=0
15312 On ch=3 n=63 v=82
15312 On ch=3 n=67 v=76
15312 On ch=3 n=63 v=78
15312 On ch=3 n=55 v=80
15321 On ch=3 n=48 v=0
15335 On ch=3 n=67 v=0
15336 On ch=3 n=63 v=0
15336 On ch=3 n=63 v=0
15336 On ch=3 n=55 v=0
15336 On ch=3 n=48 v=104
15360 On ch=3 n=48 v=0
15360 On ch=3 n=48 v=86
15360 On ch=3 n=55 v=82
15360 On ch=3 n=63 v=85
15360 On ch=3 n=63 v=86
15360 On ch=3 n=67 v=79
15552 On ch=3 n=48 v=0
15552 On ch=3 n=55 v=0
15552 On ch=3 n=63 v=0
15552 On ch=3 n=63 v=0
15552 On ch=3 n=67 v=0
15552 On ch=3 n=48 v=75
15552 On ch=3 n=65 v=76
15552 On ch=3 n=68 v=76
15552 On ch=3 n=68 v=78
15600 On ch=3 n=53 v=85
15602 On ch=3 n=68 v=0
15602 On ch=3 n=68 v=0
15603 On ch=3 n=48 v=0
15603 On ch=3 n=65 v=0
15624 On ch=3 n=60 v=78
15624 On ch=3 n=48 v=78
15624 On ch=3 n=68 v=78
15624 On ch=3 n=65 v=72
15627 On ch=3 n=68 v=0
15627 On ch=3 n=65 v=0
15628 On ch=3 n=48 v=0
15629 On ch=3 n=60 v=0
15634 On ch=3 n=53 v=0
15672 On ch=3 n=60 v=71
15672 On ch=3 n=53 v=68
15672 On ch=3 n=68 v=66
15672 On ch=3 n=68 v=64
15744 On ch=3 n=60 v=0
15744 On ch=3 n=53 v=0
15744 On ch=3 n=68 v=0
15744 On ch=3 n=68 v=0
15744 On ch=3 n=55 v=86
15744 On ch=3 n=50 v=82
15744 On ch=3 n=71 v=85
15744 On ch=3 n=67 v=86
15744 On ch=3 n=62 v=79
15936 On ch=3 n=55 v=0
15936 On ch=3 n=50 v=0
15936 On ch=3 n=71 v=0
15936 On ch=3 n=67 v=0
15936 On ch=3 n=62 v=0
15936 On ch=3 n=48 v=86
15936 On ch=3 n=55 v=82
15936 On ch=3 n=63 v=85
15936 On ch=3 n=63 v=86
15936 On ch=3 n=67 v=79
16128 On ch=3 n=48 v=0
16128 On ch=3 n=55 v=0
16128 On ch=3 n=63 v=0
16128 On ch=3 n=63 v=0
16128 On ch=3 n=67 v=0
16152 On ch=3 n=51 v=88
16176 On ch=3 n=58 v=101
16200 On ch=3 n=67 v=66
16200 On ch=3 n=63 v=69
16202 On ch=3 n=58 v=0
16204 On ch=3 n=67 v=0
16204 On ch=3 n=63 v=0
16272 On ch=3 n=67 v=82
16272 On ch=3 n=70 v=76
16272 On ch=3 n=63 v=78
16272 On ch=3 n=55 v=80
16281 On ch=3 n=51 v=0
16295 On ch=3 n=70 v=0
16296 On ch=3 n=67 v=0
16296 On ch=3 n=63 v=0
16296 On ch=3 n=55 v=0
16296 On ch=3 n=58 v=104
16320 On ch=3 n=58 v=0
16320 On ch=3 n=53 v=86
16320 On ch=3 n=48 v=82
16320 On ch=3 n=68 v=85
16320 On ch=3 n=68 v=86
16320 On ch=3 n=60 v=79
16512 On ch=3 n=53 v=0
16512 On ch=3 n=48 v=0
16512 On ch=3 n=68 v=0
16512 On ch=3 n=68 v=0
16512 On ch=3 n=60 v=0
16536 On ch=3 n=58 v=88
16560 On ch=3 n=53 v=101
16584 On ch=3 n=62 v=66
16584 On ch=3 n=70 v=69
16586 On ch=3 n=53 v=0
16588 On ch=3 n=62 v=0
16588 On ch=3 n=70 v=0
16656 On ch=3 n=62 v=82
16656 On ch=3 n=65 v=76
16656 On ch=3 n=62 v=78
16656 On ch=3 n=53 v=80
16665 On ch=3 n=58 v=0
16679 On ch=3 n=65 v=0
16680 On ch=3 n=62 v=0
16680 On ch=3 n=62 v=0
16680 On ch=3 n=53 v=0
16680 On ch=3 n=58 v=104
16704 On ch=3 n=58 v=0
16704 On ch=3 n=58 v=75
16704 On ch=3 n=67 v=76
16704 On ch=3 n=63 v=76
16704 On ch=3 n=63 v=78
16752 On ch=3 n=55 v=85
16754 On ch=3 n=63 v=0
16754 On ch=3 n=63 v=0
16755 On ch=3 n=58 v=0
16755 On ch=3 n=67 v=0
16776 On ch=3 n=70 v=78
16776 On ch=3 n=58 v=78
16776 On ch=3 n=63 v=78
16776 On ch=3 n=67 v=72
16779 On ch=3 n=63 v=0
16779 On ch=3 n=67 v=0
16780 On ch=3 n=58 v=0
16781 On ch=3 n=70 v=0
16786 On ch=3 n=55 v=0
16824 On ch=3 n=70 v=71
16824 On ch=3 n=55 v=68
16824 On ch=3 n=63 v=66
16824 On ch=3 n=63 v=64
16896 On ch=3 n=70 v=0
16896 On ch=3 n=55 v=0
16896 On ch=3 n=63 v=0
16896 On ch=3 n=63 v=0
16896 On ch=3 n=58 v=75
16896 On ch=3 n=67 v=76
16896 On ch=3 n=63 v=76
16896 On ch=3 n=63 v=78
16944 On ch=3 n=55 v=85
16946 On ch=3 n=63 v=0
16946 On ch=3 n=63 v=0
16947 On ch=3 n=58 v=0
16947 On ch=3 n=67 v=0
16968 On ch=3 n=70 v=78
16968 On ch=3 n=58 v=78
16968 On ch=3 n=63 v=78
16968 On ch=3 n=67 v=72
16971 On ch=3 n=63 v=0
16971 On ch=3 n=67 v=0
16972 On ch=3 n=58 v=0
16973 On ch=3 n=70 v=0
16978 On ch=3 n=55 v=0
17016 On ch=3 n=70 v=71
17016 On ch=3 n=55 v=68
17016 On ch=3 n=63 v=66
17016 On ch=3 n=63 v=64
17088 On ch=3 n=70 v=0
17088 On ch=3 n=55 v=0
17088 On ch=3 n=63 v=0
17088 On ch=3 n=63 v=0
17112 On ch=3 n=59 v=88
17136 On ch=3 n=53 v=101
17160 On ch=3 n=62 v=66
17160 On ch=3 n=71 v=69
17162 On ch=3 n=53 v=0
17164 On ch=3 n=62 v=0
17164 On ch=3 n=71 v=0
17232 On ch=3 n=62 v=82
17232 On ch=3 n=65 v=76
17232 On ch=3 n=62 v=78
17232 On ch=3 n=53 v=80
17241 On ch=3 n=59 v=0
17255 On ch=3 n=65 v=0
17256 On ch=3 n=62 v=0
17256 On ch=3 n=62 v=0
17256 On ch=3 n=53 v=0
17256 On ch=3 n=59 v=104
17280 On ch=3 n=59 v=0
17280 On ch=3 n=53 v=86
17280 On ch=3 n=56 v=82
17280 On ch=3 n=71 v=85
17280 On ch=3 n=68 v=86
17280 On ch=3 n=65 v=79
17472 On ch=3 n=53 v=0
17472 On ch=3 n=56 v=0
17472 On ch=3 n=71 v=0
17472 On ch=3 n=68 v=0
17472 On ch=3 n=65 v=0
17472 On ch=3 n=55 v=75
17472 On ch=3 n=63 v=76
17472 On ch=3 n=60 v=76
17472 On ch=3 n=63 v=78
17520 On ch=3 n=48 v=85
17522 On ch=3 n=60 v=0
17522 On ch=3 n=63 v=0
17523 On ch=3 n=55 v=0
17523 On ch=3 n=63 v=0
17544 On ch=3 n=67 v=78
17544 On ch=3 n=55 v=78
17544 On ch=3 n=63 v=78
17544 On ch=3 n=60 v=72
17547 On ch=3 n=63 v=0
17547 On ch=3 n=60 v=0
17548 On ch=3 n=55 v=0
17549 On ch=3 n=67 v=0
17554 On ch=3 n=48 v=0
17592 On ch=3 n=67 v=71
17592 On ch=3 n=51 v=68
17592 On ch=3 n=60 v=66
17592 On ch=3 n=63 v=64
17664 On ch=3 n=67 v=0
17664 On ch=3 n=51 v=0
17664 On ch=3 n=60 v=0
17664 On ch=3 n=63 v=0
17688 On ch=3 n=48 v=88
17712 On ch=3 n=55 v=101
17736 On ch=3 n=63 v=66
17736 On ch=3 n=60 v=69
17738 On ch=3 n=55 v=0
17740 On ch=3 n=63 v=0
17740 On ch=3 n=60 v=0
17808 On ch=3 n=63 v=82
17808 On ch=3 n=67 v=76
17808 On ch=3 n=63 v=78
17808 On ch=3 n=55 v=80
17817 On ch=3 n=48 v=0
17831 On ch=3 n=67 v=0
17832 On ch=3 n=63 v=0
17832 On ch=3 n=63 v=0
17832 On ch=3 n=55 v=0
17832 On ch=3 n=48 v=104
17856 On ch=3 n=48 v=0
17856 On ch=3 n=48 v=75
17856 On ch=3 n=65 v=76
17856 On ch=3 n=68 v=76
17856 On ch=3 n=68 v=78
17904 On ch=3 n=53 v=85
17906 On ch=3 n=68 v=0
17906 On ch=3 n=68 v=0
17907 On ch=3 n=48 v=0
17907 On ch=3 n=65 v=0
17928 On ch=3 n=60 v=78
17928 On ch=3 n=48 v=78
17928 On ch=3 n=68 v=78
17928 On ch=3 n=65 v=72
17931 On ch=3 n=68 v=0
17931 On ch=3 n=65 v=0
17932 On ch=3 n=48 v=0
17933 On ch=3 n=60 v=0
17938 On ch=3 n=53 v=0
17976 On ch=3 n=60 v=71
17976 On ch=3 n=53 v=68
17976 On ch=3 n=68 v=66
17976 On ch=3 n=68 v=64
18048 On ch=3 n=60 v=0
18048 On ch=3 n=53 v=0
18048 On ch=3 n=68 v=0
18048 On ch=3 n=68 v=0
18048 On ch=3 n=55 v=86
18048 On ch=3 n=50 v=82
18048 On ch=3 n=65 v=85
18048 On ch=3 n=71 v=86
18048 On ch=3 n=62 v=79
18240 On ch=3 n=55 v=0
18240 On ch=3 n=50 v=0
18240 On ch=3 n=65 v=0
18240 On ch=3 n=71 v=0
18240 On ch=3 n=62 v=0
18240 On ch=3 n=55 v=75
18240 On ch=3 n=63 v=76
18240 On ch=3 n=60 v=76
18240 On ch=3 n=63 v=78
18288 On ch=3 n=48 v=85
18290 On ch=3 n=60 v=0
18290 On ch=3 n=63 v=0
18291 On ch=3 n=55 v=0
18291 On ch=3 n=63 v=0
18312 On ch=3 n=67 v=78
18312 On ch=3 n=55 v=78
18312 On ch=3 n=63 v=78
18312 On ch=3 n=60 v=72
18315 On ch=3 n=63 v=0
18315 On ch=3 n=60 v=0
18316 On ch=3 n=55 v=0
18317 On ch=3 n=67 v=0
18322 On ch=3 n=48 v=0
18360 On ch=3 n=67 v=71
18360 On ch=3 n=51 v=68
18360 On ch=3 n=60 v=66
18360 On ch=3 n=63 v=64
18432 On ch=3 n=67 v=0
18432 On ch=3 n=51 v=0
18432 On ch=3 n=60 v=0
18432 On ch=3 n=63 v=0
18456 On ch=3 n=53 v=88
18480 On ch=3 n=48 v=101
18504 On ch=3 n=68 v=66
18504 On ch=3 n=65 v=69
18506 On ch=3 n=48 v=0
18508 On ch=3 n=68 v=0
18508 On ch=3 n=65 v=0
18576 On ch=3 n=68 v=82
18576 On ch=3 n=60 v=76
18576 On ch=3 n=68 v=78
18576 On ch=3 n=48 v=80
18585 On ch=3 n=53 v=0
18599 On ch=3 n=60 v=0
18600 On ch=3 n=68 v=0
18600 On ch=3 n=68 v=0
18600 On ch=3 n=48 v=0
18600 On ch=3 n=53 v=104
18624 On ch=3 n=53 v=0
18624 On ch=3 n=53 v=75
18624 On ch=3 n=62 v=76
18624 On ch=3 n=70 v=76
18624 On ch=3 n=62 v=78
18672 On ch=3 n=58 v=85
18674 On ch=3 n=70 v=0
18674 On ch=3 n=62 v=0
18675 On ch=3 n=53 v=0
18675 On ch=3 n=62 v=0
18696 On ch=3 n=65 v=78
18696 On ch=3 n=53 v=78
18696 On ch=3 n=62 v=78
18696 On ch=3 n=70 v=72
18699 On ch=3 n=62 v=0
18699 On ch=3 n=70 v=0
18700 On ch=3 n=53 v=0
18701 On ch=3 n=65 v=0
18706 On ch=3 n=58 v=0
18744 On ch=3 n=65 v=71
18744 On ch=3 n=50 v=68
18744 On ch=3 n=70 v=66
18744 On ch=3 n=62 v=64
18816 On ch=3 n=65 v=0
18816 On ch=3 n=50 v=0
18816 On ch=3 n=70 v=0
18816 On ch=3 n=62 v=0
18840 On ch=3 n=51 v=88
18864 On ch=3 n=58 v=101
18888 On ch=3 n=67 v=66
18888 On ch=3 n=63 v=69
18890 On ch=3 n=58 v=0
18892 On ch=3 n=67 v=0
18892 On ch=3 n=63 v=0
18960 On ch=3 n=67 v=82
18960 On ch=3 n=70 v=76
18960 On ch=3 n=63 v=78
18960 On ch=3 n=55 v=80
18969 On ch=3 n=51 v=0
18983 On ch=3 n=70 v=0
18984 On ch=3 n=67 v=0
18984 On ch=3 n=63 v=0
18984 On ch=3 n=55 v=0
18984 On ch=3 n=58 v=104
19008 On ch=3 n=58 v=0
19008 On ch=3 n=51 v=75
19008 On ch=3 n=60 v=76
19008 On ch=3 n=68 v=76
19008 On ch=3 n=68 v=78
19056 On ch=3 n=51 v=85
19058 On ch=3 n=68 v=0
19058 On ch=3 n=68 v=0
19059 On ch=3 n=51 v=0
19059 On ch=3 n=60 v=0
19080 On ch=3 n=60 v=78
19080 On ch=3 n=51 v=78
19080 On ch=3 n=68 v=78
19080 On ch=3 n=60 v=72
19083 On ch=3 n=68 v=0
19083 On ch=3 n=60 v=0
19084 On ch=3 n=51 v=0
19085 On ch=3 n=60 v=0
19090 On ch=3 n=51 v=0
19128 On ch=3 n=63 v=71
19128 On ch=3 n=48 v=68
19128 On ch=3 n=68 v=66
19128 On ch=3 n=68 v=64
19200 On ch=3 n=63 v=0
19200 On ch=3 n=48 v=0
19200 On ch=3 n=68 v=0
19200 On ch=3 n=68 v=0
19224 On ch=3 n=53 v=88
19248 On ch=3 n=48 v=101
19272 On ch=3 n=68 v=66
19272 On ch=3 n=65 v=69
19274 On ch=3 n=48 v=0
19276 On ch=3 n=68 v=0
19276 On ch=3 n=65 v=0
19344 On ch=3 n=68 v=82
19344 On ch=3 n=60 v=76
19344 On ch=3 n=68 v=78
19344 On ch=3 n=48 v=80
19353 On ch=3 n=53 v=0
19367 On ch=3 n=60 v=0
19368 On ch=3 n=68 v=0
19368 On ch=3 n=68 v=0
19368 On ch=3 n=48 v=0
19368 On ch=3 n=53 v=104
19392 On ch=3 n=53 v=0
19392 On ch=3 n=50 v=75
19392 On ch=3 n=67 v=76
19392 On ch=3 n=71 v=76
19392 On ch=3 n=67 v=78
19440 On ch=3 n=59 v=85
19442 On ch=3 n=71 v=0
19442 On ch=3 n=67 v=0
19443 On ch=3 n=50 v=0
19443 On ch=3 n=67 v=0
19464 On ch=3 n=62 v=78
19464 On ch=3 n=50 v=78
19464 On ch=3 n=67 v=78
19464 On ch=3 n=71 v=72
19467 On ch=3 n=67 v=0
19467 On ch=3 n=71 v=0
19468 On ch=3 n=50 v=0
19469 On ch=3 n=62 v=0
19474 On ch=3 n=59 v=0
19512 On ch=3 n=62 v=71
19512 On ch=3 n=55 v=68
19512 On ch=3 n=71 v=66
19512 On ch=3 n=67 v=64
19584 On ch=3 n=62 v=0
19584 On ch=3 n=55 v=0
19584 On ch=3 n=71 v=0
19584 On ch=3 n=67 v=0
19584 On ch=3 n=55 v=75
19584 On ch=3 n=63 v=76
19584 On ch=3 n=60 v=76
19584 On ch=3 n=63 v=78
19632 On ch=3 n=48 v=85
19634 On ch=3 n=60 v=0
19634 On ch=3 n=63 v=0
19635 On ch=3 n=55 v=0
19635 On ch=3 n=63 v=0
19656 On ch=3 n=67 v=78
19656 On ch=3 n=55 v=78
19656 On ch=3 n=63 v=78
19656 On ch=3 n=60 v=72
19659 On ch=3 n=63 v=0
19659 On ch=3 n=60 v=0
19660 On ch=3 n=55 v=0
19661 On ch=3 n=67 v=0
19666 On ch=3 n=48 v=0
19704 On ch=3 n=67 v=71
19704 On ch=3 n=51 v=68
19704 On ch=3 n=60 v=66
19704 On ch=3 n=63 v=64
19776 On ch=3 n=67 v=0
19776 On ch=3 n=51 v=0
19776 On ch=3 n=60 v=0
19776 On ch=3 n=63 v=0
19800 On ch=3 n=48 v=88
19824 On ch=3 n=55 v=101
19848 On ch=3 n=64 v=66
19848 On ch=3 n=60 v=69
19850 On ch=3 n=55 v=0
19852 On ch=3 n=64 v=0
19852 On ch=3 n=60 v=0
19920 On ch=3 n=64 v=82
19920 On ch=3 n=67 v=76
19920 On ch=3 n=60 v=78
19920 On ch=3 n=55 v=80
19929 On ch=3 n=48 v=0
19943 On ch=3 n=67 v=0
19944 On ch=3 n=64 v=0
19944 On ch=3 n=60 v=0
19944 On ch=3 n=55 v=0
19944 On ch=3 n=52 v=104
19968 On ch=3 n=52 v=0
19968 On ch=3 n=53 v=86
19968 On ch=3 n=48 v=82
19968 On ch=3 n=68 v=85
19968 On ch=3 n=68 v=86
19968 On ch=3 n=60 v=79
20160 On ch=3 n=53 v=0
20160 On ch=3 n=48 v=0
20160 On ch=3 n=68 v=0
20160 On ch=3 n=68 v=0
20160 On ch=3 n=60 v=0
20160 On ch=3 n=53 v=75
20160 On ch=3 n=62 v=76
20160 On ch=3 n=70 v=76
20160 On ch=3 n=62 v=78
20208 On ch=3 n=58 v=85
20210 On ch=3 n=70 v=0
20210 On ch=3 n=62 v=0
20211 On ch=3 n=53 v=0
20211 On ch=3 n=62 v=0
20232 On ch=3 n=65 v=78
20232 On ch=3 n=53 v=78
20232 On ch=3 n=62 v=78
20232 On ch=3 n=70 v=72
20235 On ch=3 n=62 v=0
20235 On ch=3 n=70 v=0
20236 On ch=3 n=53 v=0
20237 On ch=3 n=65 v=0
20242 On ch=3 n=58 v=0
20280 On ch=3 n=65 v=71
20280 On ch=3 n=50 v=68
20280 On ch=3 n=70 v=66
20280 On ch=3 n=62 v=64
20352 On ch=3 n=65 v=0
20352 On ch=3 n=50 v=0
20352 On ch=3 n=70 v=0
20352 On ch=3 n=62 v=0
20352 On ch=3 n=58 v=75
20352 On ch=3 n=67 v=76
20352 On ch=3 n=63 v=76
20352 On ch=3 n=63 v=78
20400 On ch=3 n=55 v=85
20402 On ch=3 n=63 v=0
20402 On ch=3 n=63 v=0
20403 On ch=3 n=58 v=0
20403 On ch=3 n=67 v=0
20424 On ch=3 n=70 v=78
20424 On ch=3 n=58 v=78
20424 On ch=3 n=63 v=78
20424 On ch=3 n=67 v=72
20427 On ch=3 n=63 v=0
20427 On ch=3 n=67 v=0
20428 On ch=3 n=58 v=0
20429 On ch=3 n=70 v=0
20434 On ch=3 n=55 v=0
20472 On ch=3 n=70 v=71
20472 On ch=3 n=55 v=68
20472 On ch=3 n=63 v=66
20472 On ch=3 n=63 v=64
20544 On ch=3 n=70 v=0
20544 On ch=3 n=55 v=0
20544 On ch=3 n=63 v=0
20544 On ch=3 n=63 v=0
20544 On ch=3 n=56 v=86
20544 On ch=3 n=51 v=82
20544 On ch=3 n=60 v=85
20544 On ch=3 n=68 v=86
20544 On ch=3 n=63 v=79
20736 On ch=3 n=56 v=0
20736 On ch=3 n=51 v=0
20736 On ch=3 n=60 v=0
20736 On ch=3 n=68 v=0
20736 On ch=3 n=63 v=0
20736 On ch=3 n=53 v=86
20736 On ch=3 n=48 v=82
20736 On ch=3 n=68 v=85
20736 On ch=3 n=68 v=86
20736 On ch=3 n=60 v=79
20928 On ch=3 n=53 v=0
20928 On ch=3 n=48 v=0
20928 On ch=3 n=68 v=0
20928 On ch=3 n=68 v=0
20928 On ch=3 n=60 v=0
20928 On ch=3 n=55 v=86
20928 On ch=3 n=50 v=82
20928 On ch=3 n=71 v=85
20928 On ch=3 n=67 v=86
20928 On ch=3 n=62 v=79
21120 On ch=3 n=55 v=0
21120 On ch=3 n=50 v=0
21120 On ch=3 n=71 v=0
21120 On ch=3 n=67 v=0
21120 On ch=3 n=62 v=0
21120 On ch=3 n=48 v=86
21120 On ch=3 n=55 v=82
21120 On ch=3 n=63 v=85
21120 On ch=3 n=63 v=86
21120 On ch=3 n=67 v=79
21312 On ch=3 n=48 v=0
21312 On ch=3 n=55 v=0
21312 On ch=3 n=63 v=0
21312 On ch=3 n=63 v=0
21312 On ch=3 n=67 v=0
21312 On ch=3 n=48 v=86
21312 On ch=3 n=55 v=82
21312 On ch=3 n=63 v=85
21312 On ch=3 n=63 v=86
21312 On ch=3 n=67 v=79
21504 On ch=3 n=48 v=0
21504 On ch=3 n=55 v=0
21504 On ch=3 n=63 v=0
21504 On ch=3 n=63 v=0
21504 On ch=3 n=67 v=0
21528 On ch=3 n=48 v=88
21552 On ch=3 n=55 v=101
21576 On ch=3 n=63 v=66
21576 On ch=3 n=60 v=69
21578 On ch=3 n=55 v=0
21580 On ch=3 n=63 v=0
21580 On ch=3 n=60 v=0
21648 On ch=3 n=63 v=82
21648 On ch=3 n=67 v=76
21648 On ch=3 n=63 v=78
21648 On ch=3 n=55 v=80
21657 On ch=3 n=48 v=0
21671 On ch=3 n=67 v=0
21672 On ch=3 n=63 v=0
21672 On ch=3 n=63 v=0
21672 On ch=3 n=55 v=0
21672 On ch=3 n=48 v=104
21696 On ch=3 n=48 v=0
21696 On ch=3 n=48 v=75
21696 On ch=3 n=65 v=76
21696 On ch=3 n=68 v=76
21696 On ch=3 n=68 v=78
21744 On ch=3 n=53 v=85
21746 On ch=3 n=68 v=0
21746 On ch=3 n=68 v=0
21747 On ch=3 n=48 v=0
21747 On ch=3 n=65 v=0
21768 On ch=3 n=60 v=78
21768 On ch=3 n=48 v=78
21768 On ch=3 n=68 v=78
21768 On ch=3 n=65 v=72
21771 On ch=3 n=68 v=0
21771 On ch=3 n=65 v=0
21772 On ch=3 n=48 v=0
21773 On ch=3 n=60 v=0
21778 On ch=3 n=53 v=0
21816 On ch=3 n=60 v=71
21816 On ch=3 n=53 v=68
21816 On ch=3 n=68 v=66
21816 On ch=3 n=68 v=64
21888 On ch=3 n=60 v=0
21888 On ch=3 n=53 v=0
21888 On ch=3 n=68 v=0
21888 On ch=3 n=68 v=0
21912 On ch=3 n=55 v=88
21936 On ch=3 n=50 v=101
21960 On ch=3 n=71 v=66
21960 On ch=3 n=67 v=69
21962 On ch=3 n=50 v=0
21964 On ch=3 n=71 v=0
21964 On ch=3 n=67 v=0
22032 On ch=3 n=71 v=82
22032 On ch=3 n=62 v=76
22032 On ch=3 n=67 v=78
22032 On ch=3 n=50 v=80
22041 On ch=3 n=55 v=0
22055 On ch=3 n=62 v=0
22056 On ch=3 n=71 v=0
22056 On ch=3 n=67 v=0
22056 On ch=3 n=50 v=0
22056 On ch=3 n=59 v=104
22080 On ch=3 n=59 v=0
22080 On ch=3 n=55 v=75
22080 On ch=3 n=63 v=76
22080 On ch=3 n=60 v=76
22080 On ch=3 n=63 v=78
22128 On ch=3 n=48 v=85
22130 On ch=3 n=60 v=0
22130 On ch=3 n=63 v=0
22131 On ch=3 n=55 v=0
22131 On ch=3 n=63 v=0
22152 On ch=3 n=67 v=78
22152 On ch=3 n=55 v=78
22152 On ch=3 n=63 v=78
22152 On ch=3 n=60 v=72
22155 On ch=3 n=63 v=0
22155 On ch=3 n=60 v=0
22156 On ch=3 n=55 v=0
22157 On ch=3 n=67 v=0
22162 On ch=3 n=48 v=0
22200 On ch=3 n=67 v=71
22200 On ch=3 n=51 v=68
22200 On ch=3 n=60 v=66
22200 On ch=3 n=63 v=64
22272 On ch=3 n=67 v=0
22272 On ch=3 n=51 v=0
22272 On ch=3 n=60 v=0
22272 On ch=3 n=63 v=0
22272 On ch=3 n=51 v=86
22272 On ch=3 n=58 v=82
22272 On ch=3 n=67 v=85
22272 On ch=3 n=63 v=86
22272 On ch=3 n=70 v=79
22464 On ch=3 n=51 v=0
22464 On ch=3 n=58 v=0
22464 On ch=3 n=67 v=0
22464 On ch=3 n=63 v=0
22464 On ch=3 n=70 v=0
22464 On ch=3 n=53 v=86
22464 On ch=3 n=48 v=82
22464 On ch=3 n=68 v=85
22464 On ch=3 n=68 v=86
22464 On ch=3 n=60 v=79
22656 On ch=3 n=53 v=0
22656 On ch=3 n=48 v=0
22656 On ch=3 n=68 v=0
22656 On ch=3 n=68 v=0
22656 On ch=3 n=60 v=0
22656 On ch=3 n=58 v=86
22656 On ch=3 n=53 v=82
22656 On ch=3 n=62 v=85
22656 On ch=3 n=62 v=86
22656 On ch=3 n=65 v=79
22848 On ch=3 n=58 v=0
22848 On ch=3 n=53 v=0
22848 On ch=3 n=62 v=0
22848 On ch=3 n=62 v=0
22848 On ch=3 n=65 v=0
22848 On ch=3 n=51 v=86
22848 On ch=3 n=58 v=82
22848 On ch=3 n=67 v=85
22848 On ch=3 n=63 v=86
22848 On ch=3 n=70 v=79
23040 On ch=3 n=51 v=0
23040 On ch=3 n=58 v=0
23040 On ch=3 n=67 v=0
23040 On ch=3 n=63 v=0
23040 On ch=3 n=70 v=0
23040 On ch=3 n=51 v=86
23040 On ch=3 n=58 v=82
23040 On ch=3 n=67 v=85
23040 On ch=3 n=63 v=86
23040 On ch=3 n=70 v=79
23232 On ch=3 n=51 v=0
23232 On ch=3 n=58 v=0
23232 On ch=3 n=67 v=0
23232 On ch=3 n=63 v=0
23232 On ch=3 n=70 v=0
23232 On ch=3 n=59 v=86
23232 On ch=3 n=53 v=82
23232 On ch=3 n=62 v=85
23232 On ch=3 n=62 v=86
23232 On ch=3 n=65 v=79
23424 On ch=3 n=59 v=0
23424 On ch=3 n=53 v=0
23424 On ch=3 n=62 v=0
23424 On ch=3 n=62 v=0
23424 On ch=3 n=65 v=0
23424 On ch=3 n=53 v=86
23424 On ch=3 n=56 v=82
23424 On ch=3 n=71 v=85
23424 On ch=3 n=68 v=86
23424 On ch=3 n=65 v=79
23616 On ch=3 n=53 v=0
23616 On ch=3 n=56 v=0
23616 On ch=3 n=71 v=0
23616 On ch=3 n=68 v=0
23616 On ch=3 n=65 v=0
23616 On ch=3 n=48 v=86
23616 On ch=3 n=55 v=82
23616 On ch=3 n=63 v=85
23616 On ch=3 n=63 v=86
23616 On ch=3 n=67 v=79
23808 On ch=3 n=48 v=0
23808 On ch=3 n=55 v=0
23808 On ch=3 n=63 v=0
23808 On ch=3 n=63 v=0
23808 On ch=3 n=67 v=0
23832 On ch=3 n=48 v=88
23856 On ch=3 n=55 v=101
23880 On ch=3 n=63 v=66
23880 On ch=3 n=60 v=69
23882 On ch=3 n=55 v=0
23884 On ch=3 n=63 v=0
23884 On ch=3 n=60 v=0
23952 On ch=3 n=63 v=82
23952 On ch=3 n=67 v=76
23952 On ch=3 n=63 v=78
23952 On ch=3 n=55 v=80
23961 On ch=3 n=48 v=0
23975 On ch=3 n=67 v=0
23976 On ch=3 n=63 v=0
23976 On ch=3 n=63 v=0
23976 On ch=3 n=55 v=0
23976 On ch=3 n=48 v=104
24000 On ch=3 n=48 v=0
24000 On ch=3 n=48 v=75
24000 On ch=3 n=65 v=76
24000 On ch=3 n=68 v=76
24000 On ch=3 n=68 v=78
24048 On ch=3 n=53 v=85
24050 On ch=3 n=68 v=0
24050 On ch=3 n=68 v=0
24051 On ch=3 n=48 v=0
24051 On ch=3 n=65 v=0
24072 On ch=3 n=60 v=78
24072 On ch=3 n=48 v=78
24072 On ch=3 n=68 v=78
24072 On ch=3 n=65 v=72
24075 On ch=3 n=68 v=0
24075 On ch=3 n=65 v=0
24076 On ch=3 n=48 v=0
24077 On ch=3 n=60 v=0
24082 On ch=3 n=53 v=0
24120 On ch=3 n=60 v=71
24120 On ch=3 n=53 v=68
24120 On ch=3 n=68 v=66
24120 On ch=3 n=68 v=64
24192 On ch=3 n=60 v=0
24192 On ch=3 n=53 v=0
24192 On ch=3 n=68 v=0
24192 On ch=3 n=68 v=0
24192 On ch=3 n=55 v=86
24192 On ch=3 n=50 v=82
24192 On ch=3 n=65 v=85
24192 On ch=3 n=71 v=86
24192 On ch=3 n=62 v=79
24384 On ch=3 n=55 v=0
24384 On ch=3 n=50 v=0
24384 On ch=3 n=65 v=0
24384 On ch=3 n=71 v=0
24384 On ch=3 n=62 v=0
24384 On ch=3 n=48 v=86
24384 On ch=3 n=55 v=82
24384 On ch=3 n=63 v=85
24384 On ch=3 n=63 v=86
24384 On ch=3 n=67 v=79
24576 On ch=3 n=48 v=0
24576 On ch=3 n=55 v=0
24576 On ch=3 n=63 v=0
24576 On ch=3 n=63 v=0
24576 On ch=3 n=67 v=0
24576 On ch=3 n=53 v=86
24576 On ch=3 n=48 v=82
24576 On ch=3 n=68 v=85
24576 On ch=3 n=68 v=86
24576 On ch=3 n=60 v=79
24768 On ch=3 n=53 v=0
24768 On ch=3 n=48 v=0
24768 On ch=3 n=68 v=0
24768 On ch=3 n=68 v=0
24768 On ch=3 n=60 v=0
24768 On ch=3 n=58 v=86
24768 On ch=3 n=53 v=82
24768 On ch=3 n=62 v=85
24768 On ch=3 n=62 v=86
24768 On ch=3 n=65 v=79
24960 On ch=3 n=58 v=0
24960 On ch=3 n=53 v=0
24960 On ch=3 n=62 v=0
24960 On ch=3 n=62 v=0
24960 On ch=3 n=65 v=0
24960 On ch=3 n=51 v=86
24960 On ch=3 n=58 v=82
24960 On ch=3 n=67 v=85
24960 On ch=3 n=63 v=86
24960 On ch=3 n=70 v=79
25152 On ch=3 n=51 v=0
25152 On ch=3 n=58 v=0
25152 On ch=3 n=67 v=0
25152 On ch=3 n=63 v=0
25152 On ch=3 n=70 v=0
25152 On ch=3 n=51 v=75
25152 On ch=3 n=60 v=76
25152 On ch=3 n=68 v=76
25152 On ch=3 n=68 v=78
25200 On ch=3 n=51 v=85
25202 On ch=3 n=68 v=0
25202 On ch=3 n=68 v=0
25203 On ch=3 n=51 v=0
25203 On ch=3 n=60 v=0
25224 On ch=3 n=60 v=78
25224 On ch=3 n=51 v=78
25224 On ch=3 n=68 v=78
25224 On ch=3 n=60 v=72
25227 On ch=3 n=68 v=0
25227 On ch=3 n=60 v=0
25228 On ch=3 n=51 v=0
25229 On ch=3 n=60 v=0
25234 On ch=3 n=51 v=0
25272 On ch=3 n=63 v=71
25272 On ch=3 n=48 v=68
25272 On ch=3 n=68 v=66
25272 On ch=3 n=68 v=64
25344 On ch=3 n=63 v=0
25344 On ch=3 n=48 v=0
25344 On ch=3 n=68 v=0
25344 On ch=3 n=68 v=0
25368 On ch=3 n=53 v=88
25392 On ch=3 n=48 v=101
25416 On ch=3 n=68 v=66
25416 On ch=3 n=65 v=69
25418 On ch=3 n=48 v=0
25420 On ch=3 n=68 v=0
25420 On ch=3 n=65 v=0
25488 On ch=3 n=68 v=82
25488 On ch=3 n=60 v=76
25488 On ch=3 n=68 v=78
25488 On ch=3 n=48 v=80
25497 On ch=3 n=53 v=0
25511 On ch=3 n=60 v=0
25512 On ch=3 n=68 v=0
25512 On ch=3 n=68 v=0
25512 On ch=3 n=48 v=0
25512 On ch=3 n=53 v=104
25536 On ch=3 n=53 v=0
25536 On ch=3 n=55 v=86
25536 On ch=3 n=50 v=82
25536 On ch=3 n=71 v=85
25536 On ch=3 n=67 v=86
25536 On ch=3 n=62 v=79
25728 On ch=3 n=55 v=0
25728 On ch=3 n=50 v=0
25728 On ch=3 n=71 v=0
25728 On ch=3 n=67 v=0
25728 On ch=3 n=62 v=0
25728 On ch=3 n=48 v=86
25728 On ch=3 n=55 v=82
25728 On ch=3 n=63 v=85
25728 On ch=3 n=63 v=86
25728 On ch=3 n=67 v=79
25920 On ch=3 n=48 v=0
25920 On ch=3 n=55 v=0
25920 On ch=3 n=63 v=0
25920 On ch=3 n=63 v=0
25920 On ch=3 n=67 v=0
25920 On ch=3 n=55 v=75
25920 On ch=3 n=64 v=76
25920 On ch=3 n=60 v=76
25920 On ch=3 n=60 v=78
25968 On ch=3 n=52 v=85
25970 On ch=3 n=60 v=0
25970 On ch=3 n=60 v=0
25971 On ch=3 n=55 v=0
25971 On ch=3 n=64 v=0
25992 On ch=3 n=67 v=78
25992 On ch=3 n=55 v=78
25992 On ch=3 n=60 v=78
25992 On ch=3 n=64 v=72
25995 On ch=3 n=60 v=0
25995 On ch=3 n=64 v=0
25996 On ch=3 n=55 v=0
25997 On ch=3 n=67 v=0
26002 On ch=3 n=52 v=0
26040 On ch=3 n=67 v=71
26040 On ch=3 n=52 v=68
26040 On ch=3 n=60 v=66
26040 On ch=3 n=60 v=64
26112 On ch=3 n=67 v=0
26112 On ch=3 n=52 v=0
26112 On ch=3 n=60 v=0
26112 On ch=3 n=60 v=0
26112 On ch=3 n=48 v=75
26112 On ch=3 n=65 v=76
26112 On ch=3 n=68 v=76
26112 On ch=3 n=68 v=78
26160 On ch=3 n=53 v=85
26162 On ch=3 n=68 v=0
26162 On ch=3 n=68 v=0
26163 On ch=3 n=48 v=0
26163 On ch=3 n=65 v=0
26184 On ch=3 n=60 v=78
26184 On ch=3 n=48 v=78
26184 On ch=3 n=68 v=78
26184 On ch=3 n=65 v=72
26187 On ch=3 n=68 v=0
26187 On ch=3 n=65 v=0
26188 On ch=3 n=48 v=0
26189 On ch=3 n=60 v=0
26194 On ch=3 n=53 v=0
26232 On ch=3 n=60 v=71
26232 On ch=3 n=53 v=68
26232 On ch=3 n=68 v=66
26232 On ch=3 n=68 v=64
26304 On ch=3 n=60 v=0
26304 On ch=3 n=53 v=0
26304 On ch=3 n=68 v=0
26304 On ch=3 n=68 v=0
26328 On ch=3 n=58 v=88
26352 On ch=3 n=53 v=101
26376 On ch=3 n=62 v=66
26376 On ch=3 n=70 v=69
26378 On ch=3 n=53 v=0
26380 On ch=3 n=62 v=0
26380 On ch=3 n=70 v=0
26448 On ch=3 n=62 v=82
26448 On ch=3 n=65 v=76
26448 On ch=3 n=62 v=78
26448 On ch=3 n=53 v=80
26457 On ch=3 n=58 v=0
26471 On ch=3 n=65 v=0
26472 On ch=3 n=62 v=0
26472 On ch=3 n=62 v=0
26472 On ch=3 n=53 v=0
26472 On ch=3 n=58 v=104
26496 On ch=3 n=58 v=0
26496 On ch=3 n=51 v=86
26496 On ch=3 n=58 v=82
26496 On ch=3 n=67 v=85
26496 On ch=3 n=63 v=86
26496 On ch=3 n=70 v=79
26688 On ch=3 n=51 v=0
26688 On ch=3 n=58 v=0
26688 On ch=3 n=67 v=0
26688 On ch=3 n=63 v=0
26688 On ch=3 n=70 v=0
26688 On ch=3 n=56 v=86
26688 On ch=3 n=51 v=82
26688 On ch=3 n=60 v=85
26688 On ch=3 n=68 v=86
26688 On ch=3 n=63 v=79
26880 On ch=3 n=56 v=0
26880 On ch=3 n=51 v=0
26880 On ch=3 n=60 v=0
26880 On ch=3 n=68 v=0
26880 On ch=3 n=63 v=0
26880 On ch=3 n=53 v=86
26880 On ch=3 n=48 v=82
26880 On ch=3 n=68 v=85
26880 On ch=3 n=68 v=86
26880 On ch=3 n=60 v=79
27072 On ch=3 n=53 v=0
27072 On ch=3 n=48 v=0
27072 On ch=3 n=68 v=0
27072 On ch=3 n=68 v=0
27072 On ch=3 n=60 v=0
27072 On ch=3 n=55 v=86
27072 On ch=3 n=50 v=82
27072 On ch=3 n=71 v=85
27072 On ch=3 n=67 v=86
27072 On ch=3 n=62 v=79
27264 On ch=3 n=55 v=0
27264 On ch=3 n=50 v=0
27264 On ch=3 n=71 v=0
27264 On ch=3 n=67 v=0
27264 On ch=3 n=62 v=0
27264 On ch=3 n=55 v=75
27264 On ch=3 n=63 v=76
27264 On ch=3 n=60 v=76
27264 On ch=3 n=63 v=78
27312 On ch=3 n=48 v=85
27314 On ch=3 n=60 v=0
27314 On ch=3 n=63 v=0
27315 On ch=3 n=55 v=0
27315 On ch=3 n=63 v=0
27336 On ch=3 n=67 v=78
27336 On ch=3 n=55 v=78
27336 On ch=3 n=63 v=78
27336 On ch=3 n=60 v=72
27339 On ch=3 n=63 v=0
27339 On ch=3 n=60 v=0
27340 On ch=3 n=55 v=0
27341 On ch=3 n=67 v=0
27346 On ch=3 n=48 v=0
27384 On ch=3 n=67 v=71
27384 On ch=3 n=51 v=68
27384 On ch=3 n=60 v=66
27384 On ch=3 n=63 v=64
27456 On ch=3 n=67 v=0
27456 On ch=3 n=51 v=0
27456 On ch=3 n=60 v=0
27456 On ch=3 n=63 v=0
27456 On ch=3 n=55 v=75
27456 On ch=3 n=63 v=76
27456 On ch=3 n=60 v=76
27456 On ch=3 n=63 v=78
27504 On ch=3 n=48 v=85
27506 On ch=3 n=60 v=0
27506 On ch=3 n=63 v=0
27507 On ch=3 n=55 v=0
27507 On ch=3 n=63 v=0
27528 On ch=3 n=67 v=78
27528 On ch=3 n=55 v=78
27528 On ch=3 n=63 v=78
27528 On ch=3 n=60 v=72
27531 On ch=3 n=63 v=0
27531 On ch=3 n=60 v=0
27532 On ch=3 n=55 v=0
27533 On ch=3 n=67 v=0
27538 On ch=3 n=48 v=0
27576 On ch=3 n=67 v=71
27576 On ch=3 n=51 v=68
27576 On ch=3 n=60 v=66
27576 On ch=3 n=63 v=64
27648 On ch=3 n=67 v=0
27648 On ch=3 n=51 v=0
27648 On ch=3 n=60 v=0
27648 On ch=3 n=63 v=0
27672 On ch=3 n=48 v=88
27696 On ch=3 n=55 v=101
27720 On ch=3 n=63 v=66
27720 On ch=3 n=60 v=69
27722 On ch=3 n=55 v=0
27724 On ch=3 n=63 v=0
27724 On ch=3 n=60 v=0
27792 On ch=3 n=63 v=82
27792 On ch=3 n=67 v=76
27792 On ch=3 n=63 v=78
27792 On ch=3 n=55 v=80
27801 On ch=3 n=48 v=0
27815 On ch=3 n=67 v=0
27816 On ch=3 n=63 v=0
27816 On ch=3 n=63 v=0
27816 On ch=3 n=55 v=0
27816 On ch=3 n=48 v=104
27840 On ch=3 n=48 v=0
27840 On ch=3 n=48 v=75
27840 On ch=3 n=65 v=76
27840 On ch=3 n=68 v=76
27840 On ch=3 n=68 v=78
27888 On ch=3 n=53 v=85
27890 On ch=3 n=68 v=0
27890 On ch=3 n=68 v=0
27891 On ch=3 n=48 v=0
27891 On ch=3 n=65 v=0
27912 On ch=3 n=60 v=78
27912 On ch=3 n=48 v=78
27912 On ch=3 n=68 v=78
27912 On ch=3 n=65 v=72
27915 On ch=3 n=68 v=0
27915 On ch=3 n=65 v=0
27916 On ch=3 n=48 v=0
27917 On ch=3 n=60 v=0
27922 On ch=3 n=53 v=0
27960 On ch=3 n=60 v=71
27960 On ch=3 n=53 v=68
27960 On ch=3 n=68 v=66
27960 On ch=3 n=68 v=64
28032 On ch=3 n=60 v=0
28032 On ch=3 n=53 v=0
28032 On ch=3 n=68 v=0
28032 On ch=3 n=68 v=0
28032 On ch=3 n=55 v=86
28032 On ch=3 n=50 v=82
28032 On ch=3 n=71 v=85
28032 On ch=3 n=67 v=86
28032 On ch=3 n=62 v=79
28224 On ch=3 n=55 v=0
28224 On ch=3 n=50 v=0
28224 On ch=3 n=71 v=0
28224 On ch=3 n=67 v=0
28224 On ch=3 n=62 v=0
28248 On ch=3 n=48 v=88
28272 On ch=3 n=55 v=101
28296 On ch=3 n=63 v=66
28296 On ch=3 n=60 v=69
28298 On ch=3 n=55 v=0
28300 On ch=3 n=63 v=0
28300 On ch=3 n=60 v=0
28368 On ch=3 n=63 v=82
28368 On ch=3 n=67 v=76
28368 On ch=3 n=63 v=78
28368 On ch=3 n=55 v=80
28377 On ch=3 n=48 v=0
28391 On ch=3 n=67 v=0
28392 On ch=3 n=63 v=0
28392 On ch=3 n=63 v=0
28392 On ch=3 n=55 v=0
28392 On ch=3 n=48 v=104
28416 On ch=3 n=48 v=0
28416 On ch=3 n=51 v=86
28416 On ch=3 n=58 v=82
28416 On ch=3 n=67 v=85
28416 On ch=3 n=63 v=86
28416 On ch=3 n=70 v=79
28608 On ch=3 n=51 v=0
28608 On ch=3 n=58 v=0
28608 On ch=3 n=67 v=0
28608 On ch=3 n=63 v=0
28608 On ch=3 n=70 v=0
28608 On ch=3 n=48 v=75
28608 On ch=3 n=65 v=76
28608 On ch=3 n=68 v=76
28608 On ch=3 n=68 v=78
28656 On ch=3 n=53 v=85
28658 On ch=3 n=68 v=0
28658 On ch=3 n=68 v=0
28659 On ch=3 n=48 v=0
28659 On ch=3 n=65 v=0
28680 On ch=3 n=60 v=78
28680 On ch=3 n=48 v=78
28680 On ch=3 n=68 v=78
28680 On ch=3 n=65 v=72
28683 On ch=3 n=68 v=0
28683 On ch=3 n=65 v=0
28684 On ch=3 n=48 v=0
28685 On ch=3 n=60 v=0
28690 On ch=3 n=53 v=0
28728 On ch=3 n=60 v=71
28728 On ch=3 n=53 v=68
28728 On ch=3 n=68 v=66
28728 On ch=3 n=68 v=64
28800 On ch=3 n=60 v=0
28800 On ch=3 n=53 v=0
28800 On ch=3 n=68 v=0
28800 On ch=3 n=68 v=0
28800 On ch=3 n=53 v=75
28800 On ch=3 n=62 v=76
28800 On ch=3 n=70 v=76
28800 On ch=3 n=62 v=78
28848 On ch=3 n=58 v=85
28850 On ch=3 n=70 v=0
28850 On ch=3 n=62 v=0
28851 On ch=3 n=53 v=0
28851 On ch=3 n=62 v=0
28872 On ch=3 n=65 v=78
28872 On ch=3 n=53 v=78
28872 On ch=3 n=62 v=78
28872 On ch=3 n=70 v=72
28875 On ch=3 n=62 v=0
28875 On ch=3 n=70 v=0
28876 On ch=3 n=53 v=0
28877 On ch=3 n=65 v=0
28882 On ch=3 n=58 v=0
28920 On ch=3 n=65 v=71
28920 On ch=3 n=50 v=68
28920 On ch=3 n=70 v=66
28920 On ch=3 n=62 v=64
28992 On ch=3 n=65 v=0
28992 On ch=3 n=50 v=0
28992 On ch=3 n=70 v=0
28992 On ch=3 n=62 v=0
28992 On ch=3 n=51 v=86
28992 On ch=3 n=58 v=82
28992 On ch=3 n=67 v=85
28992 On ch=3 n=63 v=86
28992 On ch=3 n=70 v=79
29184 On ch=3 n=51 v=0
29184 On ch=3 n=58 v=0
29184 On ch=3 n=67 v=0
29184 On ch=3 n=63 v=0
29184 On ch=3 n=70 v=0
29184 On ch=3 n=51 v=86
29184 On ch=3 n=58 v=82
29184 On ch=3 n=67 v=85
29184 On ch=3 n=63 v=86
29184 On ch=3 n=70 v=79
29376 On ch=3 n=51 v=0
29376 On ch=3 n=58 v=0
29376 On ch=3 n=67 v=0
29376 On ch=3 n=63 v=0
29376 On ch=3 n=70 v=0
29376 On ch=3 n=53 v=75
29376 On ch=3 n=62 v=76
29376 On ch=3 n=71 v=76
29376 On ch=3 n=62 v=78
29424 On ch=3 n=59 v=85
29426 On ch=3 n=71 v=0
29426 On ch=3 n=62 v=0
29427 On ch=3 n=53 v=0
29427 On ch=3 n=62 v=0
29448 On ch=3 n=65 v=78
29448 On ch=3 n=53 v=78
29448 On ch=3 n=62 v=78
29448 On ch=3 n=71 v=72
29451 On ch=3 n=62 v=0
29451 On ch=3 n=71 v=0
29452 On ch=3 n=53 v=0
29453 On ch=3 n=65 v=0
29458 On ch=3 n=59 v=0
29496 On ch=3 n=65 v=71
29496 On ch=3 n=50 v=68
29496 On ch=3 n=71 v=66
29496 On ch=3 n=62 v=64
29568 On ch=3 n=65 v=0
29568 On ch=3 n=50 v=0
29568 On ch=3 n=71 v=0
29568 On ch=3 n=62 v=0
29568 On ch=3 n=53 v=86
29568 On ch=3 n=56 v=82
29568 On ch=3 n=71 v=85
29568 On ch=3 n=68 v=86
29568 On ch=3 n=65 v=79
29760 On ch=3 n=53 v=0
29760 On ch=3 n=56 v=0
29760 On ch=3 n=71 v=0
29760 On ch=3 n=68 v=0
29760 On ch=3 n=65 v=0
29784 On ch=3 n=48 v=88
29808 On ch=3 n=55 v=101
29832 On ch=3 n=63 v=66
29832 On ch=3 n=60 v=69
29834 On ch=3 n=55 v=0
29836 On ch=3 n=63 v=0
29836 On ch=3 n=60 v=0
29904 On ch=3 n=63 v=82
29904 On ch=3 n=67 v=76
29904 On ch=3 n=63 v=78
29904 On ch=3 n=55 v=80
29913 On ch=3 n=48 v=0
29927 On ch=3 n=67 v=0
29928 On ch=3 n=63 v=0
29928 On ch=3 n=63 v=0
29928 On ch=3 n=55 v=0
29928 On ch=3 n=48 v=104
29952 On ch=3 n=48 v=0
29952 On ch=3 n=55 v=75
29952 On ch=3 n=63 v=76
29952 On ch=3 n=60 v=76
29952 On ch=3 n=63 v=78
30000 On ch=3 n=48 v=85
30002 On ch=3 n=60 v=0
30002 On ch=3 n=63 v=0
30003 On ch=3 n=55 v=0
30003 On ch=3 n=63 v=0
30024 On ch=3 n=67 v=78
30024 On ch=3 n=55 v=78
30024 On ch=3 n=63 v=78
30024 On ch=3 n=60 v=72
30027 On ch=3 n=63 v=0
30027 On ch=3 n=60 v=0
30028 On ch=3 n=55 v=0
30029 On ch=3 n=67 v=0
30034 On ch=3 n=48 v=0
30072 On ch=3 n=67 v=71
30072 On ch=3 n=51 v=68
30072 On ch=3 n=60 v=66
30072 On ch=3 n=63 v=64
30144 On ch=3 n=67 v=0
30144 On ch=3 n=51 v=0
30144 On ch=3 n=60 v=0
30144 On ch=3 n=63 v=0
30144 On ch=3 n=48 v=75
30144 On ch=3 n=65 v=76
30144 On ch=3 n=68 v=76
30144 On ch=3 n=68 v=78
30192 On ch=3 n=53 v=85
30194 On ch=3 n=68 v=0
30194 On ch=3 n=68 v=0
30195 On ch=3 n=48 v=0
30195 On ch=3 n=65 v=0
30216 On ch=3 n=60 v=78
30216 On ch=3 n=48 v=78
30216 On ch=3 n=68 v=78
30216 On ch=3 n=65 v=72
30219 On ch=3 n=68 v=0
30219 On ch=3 n=65 v=0
30220 On ch=3 n=48 v=0
30221 On ch=3 n=60 v=0
30226 On ch=3 n=53 v=0
30264 On ch=3 n=60 v=71
30264 On ch=3 n=53 v=68
30264 On ch=3 n=68 v=66
30264 On ch=3 n=68 v=64
30336 On ch=3 n=60 v=0
30336 On ch=3 n=53 v=0
30336 On ch=3 n=68 v=0
30336 On ch=3 n=68 v=0
30336 On ch=3 n=55 v=86
30336 On ch=3 n=50 v=82
30336 On ch=3 n=65 v=85
30336 On ch=3 n=71 v=86
30336 On ch=3 n=62 v=79
30528 On ch=3 n=55 v=0
30528 On ch=3 n=50 v=0
30528 On ch=3 n=65 v=0
30528 On ch=3 n=71 v=0
30528 On ch=3 n=62 v=0
30552 On ch=3 n=48 v=88
30576 On ch=3 n=55 v=101
30600 On ch=3 n=63 v=66
30600 On ch=3 n=60 v=69
30602 On ch=3 n=55 v=0
30604 On ch=3 n=63 v=0
30604 On ch=3 n=60 v=0
30672 On ch=3 n=63 v=82
30672 On ch=3 n=67 v=76
30672 On ch=3 n=63 v=78
30672 On ch=3 n=55 v=80
30681 On ch=3 n=48 v=0
30695 On ch=3 n=67 v=0
30696 On ch=3 n=63 v=0
30696 On ch=3 n=63 v=0
30696 On ch=3 n=55 v=0
30696 On ch=3 n=48 v=104
30720 On ch=3 n=48 v=0
30744 On ch=3 n=53 v=88
30768 On ch=3 n=48 v=101
30792 On ch=3 n=68 v=66
30792 On ch=3 n=65 v=69
30794 On ch=3 n=48 v=0
30796 On ch=3 n=68 v=0
30796 On ch=3 n=65 v=0
30864 On ch=3 n=68 v=82
30864 On ch=3 n=60 v=76
30864 On ch=3 n=68 v=78
30864 On ch=3 n=48 v=80
30873 On ch=3 n=53 v=0
30887 On ch=3 n=60 v=0
30888 On ch=3 n=68 v=0
30888 On ch=3 n=68 v=0
30888 On ch=3 n=48 v=0
30888 On ch=3 n=53 v=104
30912 On ch=3 n=53 v=0
30912 On ch=3 n=58 v=86
30912 On ch=3 n=53 v=82
30912 On ch=3 n=62 v=85
30912 On ch=3 n=62 v=86
30912 On ch=3 n=65 v=79
31104 On ch=3 n=58 v=0
31104 On ch=3 n=53 v=0
31104 On ch=3 n=62 v=0
31104 On ch=3 n=62 v=0
31104 On ch=3 n=65 v=0
31104 On ch=3 n=58 v=75
31104 On ch=3 n=67 v=76
31104 On ch=3 n=63 v=76
31104 On ch=3 n=63 v=78
31152 On ch=3 n=55 v=85
31154 On ch=3 n=63 v=0
31154 On ch=3 n=63 v=0
31155 On ch=3 n=58 v=0
31155 On ch=3 n=67 v=0
31176 On ch=3 n=70 v=78
31176 On ch=3 n=58 v=78
31176 On ch=3 n=63 v=78
31176 On ch=3 n=67 v=72
31179 On ch=3 n=63 v=0
31179 On ch=3 n=67 v=0
31180 On ch=3 n=58 v=0
31181 On ch=3 n=70 v=0
31186 On ch=3 n=55 v=0
31224 On ch=3 n=70 v=71
31224 On ch=3 n=55 v=68
31224 On ch=3 n=63 v=66
31224 On ch=3 n=63 v=64
31296 On ch=3 n=70 v=0
31296 On ch=3 n=55 v=0
31296 On ch=3 n=63 v=0
31296 On ch=3 n=63 v=0
31296 On ch=3 n=56 v=86
31296 On ch=3 n=51 v=82
31296 On ch=3 n=60 v=85
31296 On ch=3 n=68 v=86
31296 On ch=3 n=63 v=79
31488 On ch=3 n=56 v=0
31488 On ch=3 n=51 v=0
31488 On ch=3 n=60 v=0
31488 On ch=3 n=68 v=0
31488 On ch=3 n=63 v=0
31512 On ch=3 n=53 v=88
31536 On ch=3 n=48 v=101
31560 On ch=3 n=68 v=66
31560 On ch=3 n=65 v=69
31562 On ch=3 n=48 v=0
31564 On ch=3 n=68 v=0
31564 On ch=3 n=65 v=0
31632 On ch=3 n=68 v=82
31632 On ch=3 n=60 v=76
31632 On ch=3 n=68 v=78
31632 On ch=3 n=48 v=80
31641 On ch=3 n=53 v=0
31655 On ch=3 n=60 v=0
31656 On ch=3 n=68 v=0
31656 On ch=3 n=68 v=0
31656 On ch=3 n=48 v=0
31656 On ch=3 n=53 v=104
31680 On ch=3 n=53 v=0
31704 On ch=3 n=55 v=88
31728 On ch=3 n=50 v=101
31752 On ch=3 n=71 v=66
31752 On ch=3 n=67 v=69
31754 On ch=3 n=50 v=0
31756 On ch=3 n=71 v=0
31756 On ch=3 n=67 v=0
31824 On ch=3 n=71 v=82
31824 On ch=3 n=62 v=76
31824 On ch=3 n=67 v=78
31824 On ch=3 n=50 v=80
31833 On ch=3 n=55 v=0
31847 On ch=3 n=62 v=0
31848 On ch=3 n=71 v=0
31848 On ch=3 n=67 v=0
31848 On ch=3 n=50 v=0
31848 On ch=3 n=59 v=104
31872 On ch=3 n=59 v=0
31872 On ch=3 n=55 v=75
31872 On ch=3 n=63 v=76
31872 On ch=3 n=60 v=76
31872 On ch=3 n=63 v=78
31920 On ch=3 n=48 v=85
31922 On ch=3 n=60 v=0
31922 On ch=3 n=63 v=0
31923 On ch=3 n=55 v=0
31923 On ch=3 n=63 v=0
31944 On ch=3 n=67 v=78
31944 On ch=3 n=55 v=78
31944 On ch=3 n=63 v=78
31944 On ch=3 n=60 v=72
31947 On ch=3 n=63 v=0
31947 On ch=3 n=60 v=0
31948 On ch=3 n=55 v=0
31949 On ch=3 n=67 v=0
31954 On ch=3 n=48 v=0
31992 On ch=3 n=67 v=71
31992 On ch=3 n=51 v=68
31992 On ch=3 n=60 v=66
31992 On ch=3 n=63 v=64
32064 On ch=3 n=67 v=0
32064 On ch=3 n=51 v=0
32064 On ch=3 n=60 v=0
32064 On ch=3 n=63 v=0
32088 On ch=3 n=48 v=88
32112 On ch=3 n=55 v=101
32136 On ch=3 n=64 v=66
32136 On ch=3 n=60 v=69
32138 On ch=3 n=55 v=0
32140 On ch=3 n=64 v=0
32140 On ch=3 n=60 v=0
32208 On ch=3 n=64 v=82
32208 On ch=3 n=67 v=76
32208 On ch=3 n=60 v=78
32208 On ch=3 n=55 v=80
32217 On ch=3 n=48 v=0
32231 On ch=3 n=67 v=0
32232 On ch=3 n=64 v=0
32232 On ch=3 n=60 v=0
32232 On ch=3 n=55 v=0
32232 On ch=3 n=52 v=104
32256 On ch=3 n=52 v=0
32256 On ch=3 n=53 v=86
32256 On ch=3 n=48 v=82
32256 On ch=3 n=68 v=85
32256 On ch=3 n=68 v=86
32256 On ch=3 n=60 v=79
32448 On ch=3 n=53 v=0
32448 On ch=3 n=48 v=0
32448 On ch=3 n=68 v=0
32448 On ch=3 n=68 v=0
32448 On ch=3 n=60 v=0
32448 On ch=3 n=58 v=86
32448 On ch=3 n=53 v=82
32448 On ch=3 n=62 v=85
32448 On ch=3 n=62 v=86
32448 On ch=3 n=65 v=79
32640 On ch=3 n=58 v=0
32640 On ch=3 n=53 v=0
32640 On ch=3 n=62 v=0
32640 On ch=3 n=62 v=0
32640 On ch=3 n=65 v=0
32640 On ch=3 n=58 v=75
32640 On ch=3 n=67 v=76
32640 On ch=3 n=63 v=76
32640 On ch=3 n=63 v=78
32688 On ch=3 n=55 v=85
32690 On ch=3 n=63 v=0
32690 On ch=3 n=63 v=0
32691 On ch=3 n=58 v=0
32691 On ch=3 n=67 v=0
32712 On ch=3 n=70 v=78
32712 On ch=3 n=58 v=78
32712 On ch=3 n=63 v=78
32712 On ch=3 n=67 v=72
32715 On ch=3 n=63 v=0
32715 On ch=3 n=67 v=0
32716 On ch=3 n=58 v=0
32717 On ch=3 n=70 v=0
32722 On ch=3 n=55 v=0
32760 On ch=3 n=70 v=71
32760 On ch=3 n=55 v=68
32760 On ch=3 n=63 v=66
32760 On ch=3 n=63 v=64
32832 On ch=3 n=70 v=0
32832 On ch=3 n=55 v=0
32832 On ch=3 n=63 v=0
32832 On ch=3 n=63 v=0
32856 On ch=3 n=56 v=88
32880 On ch=3 n=51 v=101
32904 On ch=3 n=60 v=66
32904 On ch=3 n=68 v=69
32906 On ch=3 n=51 v=0
32908 On ch=3 n=60 v=0
32908 On ch=3 n=68 v=0
32976 On ch=3 n=60 v=82
32976 On ch=3 n=63 v=76
32976 On ch=3 n=68 v=78
32976 On ch=3 n=51 v=80
32985 On ch=3 n=56 v=0
32999 On ch=3 n=63 v=0
33000 On ch=3 n=60 v=0
33000 On ch=3 n=68 v=0
33000 On ch=3 n=51 v=0
33000 On ch=3 n=48 v=104
33024 On ch=3 n=48 v=0
33024 On ch=3 n=53 v=86
33024 On ch=3 n=48 v=82
33024 On ch=3 n=68 v=85
33024 On ch=3 n=68 v=86
33024 On ch=3 n=60 v=79
33216 On ch=3 n=53 v=0
33216 On ch=3 n=48 v=0
33216 On ch=3 n=68 v=0
33216 On ch=3 n=68 v=0
33216 On ch=3 n=60 v=0
33216 On ch=3 n=50 v=75
33216 On ch=3 n=67 v=76
33216 On ch=3 n=71 v=76
33216 On ch=3 n=67 v=78
33264 On ch=3 n=59 v=85
33266 On ch=3 n=71 v=0
33266 On ch=3 n=67 v=0
33267 On ch=3 n=50 v=0
33267 On ch=3 n=67 v=0
33288 On ch=3 n=62 v=78
33288 On ch=3 n=50 v=78
33288 On ch=3 n=67 v=78
33288 On ch=3 n=71 v=72
33291 On ch=3 n=67 v=0
33291 On ch=3 n=71 v=0
33292 On ch=3 n=50 v=0
33293 On ch=3 n=62 v=0
33298 On ch=3 n=59 v=0
33336 On ch=3 n=62 v=71
33336 On ch=3 n=55 v=68
33336 On ch=3 n=71 v=66
33336 On ch=3 n=67 v=64
33408 On ch=3 n=62 v=0
33408 On ch=3 n=55 v=0
33408 On ch=3 n=71 v=0
33408 On ch=3 n=67 v=0
33408 On ch=3 n=55 v=75
33408 On ch=3 n=63 v=76
33408 On ch=3 n=60 v=76
33408 On ch=3 n=63 v=78
33456 On ch=3 n=48 v=85
33458 On ch=3 n=60 v=0
33458 On ch=3 n=63 v=0
33459 On ch=3 n=55 v=0
33459 On ch=3 n=63 v=0
33480 On ch=3 n=67 v=78
33480 On ch=3 n=55 v=78
33480 On ch=3 n=63 v=78
33480 On ch=3 n=60 v=72
33483 On ch=3 n=63 v=0
33483 On ch=3 n=60 v=0
33484 On ch=3 n=55 v=0
33485 On ch=3 n=67 v=0
33490 On ch=3 n=48 v=0
33528 On ch=3 n=67 v=71
33528 On ch=3 n=51 v=68
33528 On ch=3 n=60 v=66
33528 On ch=3 n=63 v=64
33600 On ch=3 n=67 v=0
33600 On ch=3 n=51 v=0
33600 On ch=3 n=60 v=0
33600 On ch=3 n=63 v=0
33624 On ch=3 n=48 v=88
33648 On ch=3 n=55 v=101
33672 On ch=3 n=63 v=66
33672 On ch=3 n=60 v=69
33674 On ch=3 n=55 v=0
33676 On ch=3 n=63 v=0
33676 On ch=3 n=60 v=0
33744 On ch=3 n=63 v=82
33744 On ch=3 n=67 v=76
33744 On ch=3 n=63 v=78
33744 On ch=3 n=55 v=80
33753 On ch=3 n=48 v=0
33767 On ch=3 n=67 v=0
33768 On ch=3 n=63 v=0
33768 On ch=3 n=63 v=0
33768 On ch=3 n=55 v=0
33768 On ch=3 n=48 v=104
33792 On ch=3 n=48 v=0
33792 On ch=3 n=55 v=75
33792 On ch=3 n=63 v=76
33792 On ch=3 n=60 v=76
33792 On ch=3 n=63 v=78
33840 On ch=3 n=48 v=85
33842 On ch=3 n=60 v=0
33842 On ch=3 n=63 v=0
33843 On ch=3 n=55 v=0
33843 On ch=3 n=63 v=0
33864 On ch=3 n=67 v=78
33864 On ch=3 n=55 v=78
33864 On ch=3 n=63 v=78
33864 On ch=3 n=60 v=72
33867 On ch=3 n=63 v=0
33867 On ch=3 n=60 v=0
33868 On ch=3 n=55 v=0
33869 On ch=3 n=67 v=0
33874 On ch=3 n=48 v=0
33912 On ch=3 n=67 v=71
33912 On ch=3 n=51 v=68
33912 On ch=3 n=60 v=66
33912 On ch=3 n=63 v=64
33984 On ch=3 n=67 v=0
33984 On ch=3 n=51 v=0
33984 On ch=3 n=60 v=0
33984 On ch=3 n=63 v=0
33984 On ch=3 n=53 v=86
33984 On ch=3 n=48 v=82
33984 On ch=3 n=68 v=85
33984 On ch=3 n=68 v=86
33984 On ch=3 n=60 v=79
34176 On ch=3 n=53 v=0
34176 On ch=3 n=48 v=0
34176 On ch=3 n=68 v=0
34176 On ch=3 n=68 v=0
34176 On ch=3 n=60 v=0
34200 On ch=3 n=55 v=88
34224 On ch=3 n=50 v=101
34248 On ch=3 n=71 v=66
34248 On ch=3 n=67 v=69
34250 On ch=3 n=50 v=0
34252 On ch=3 n=71 v=0
34252 On ch=3 n=67 v=0
34320 On ch=3 n=71 v=82
34320 On ch=3 n=62 v=76
34320 On ch=3 n=67 v=78
34320 On ch=3 n=50 v=80
34329 On ch=3 n=55 v=0
34343 On ch=3 n=62 v=0
34344 On ch=3 n=71 v=0
34344 On ch=3 n=67 v=0
34344 On ch=3 n=50 v=0
34344 On ch=3 n=59 v=104
34368 On ch=3 n=59 v=0
34368 On ch=3 n=48 v=86
34368 On ch=3 n=55 v=82
34368 On ch=3 n=63 v=85
34368 On ch=3 n=63 v=86
34368 On ch=3 n=67 v=79
34560 On ch=3 n=48 v=0
34560 On ch=3 n=55 v=0
34560 On ch=3 n=63 v=0
34560 On ch=3 n=63 v=0
34560 On ch=3 n=67 v=0
34584 On ch=3 n=51 v=88
34608 On ch=3 n=58 v=101
34632 On ch=3 n=67 v=66
34632 On ch=3 n=63 v=69
34634 On ch=3 n=58 v=0
34636 On ch=3 n=67 v=0
34636 On ch=3 n=63 v=0
34704 On ch=3 n=67 v=82
34704 On ch=3 n=70 v=76
34704 On ch=3 n=63 v=78
34704 On ch=3 n=55 v=80
34713 On ch=3 n=51 v=0
34727 On ch=3 n=70 v=0
34728 On ch=3 n=67 v=0
34728 On ch=3 n=63 v=0
34728 On ch=3 n=55 v=0
34728 On ch=3 n=58 v=104
34752 On ch=3 n=58 v=0
34776 On ch=3 n=53 v=88
34800 On ch=3 n=48 v=101
34824 On ch=3 n=68 v=66
34824 On ch=3 n=65 v=69
34826 On ch=3 n=48 v=0
34828 On ch=3 n=68 v=0
34828 On ch=3 n=65 v=0
34896 On ch=3 n=68 v=82
34896 On ch=3 n=60 v=76
34896 On ch=3 n=68 v=78
34896 On ch=3 n=48 v=80
34905 On ch=3 n=53 v=0
34919 On ch=3 n=60 v=0
34920 On ch=3 n=68 v=0
34920 On ch=3 n=68 v=0
34920 On ch=3 n=48 v=0
34920 On ch=3 n=53 v=104
34944 On ch=3 n=53 v=0
34968 On ch=3 n=58 v=88
34992 On ch=3 n=53 v=101
35016 On ch=3 n=62 v=66
35016 On ch=3 n=70 v=69
35018 On ch=3 n=53 v=0
35020 On ch=3 n=62 v=0
35020 On ch=3 n=70 v=0
35088 On ch=3 n=62 v=82
35088 On ch=3 n=65 v=76
35088 On ch=3 n=62 v=78
35088 On ch=3 n=53 v=80
35097 On ch=3 n=58 v=0
35111 On ch=3 n=65 v=0
35112 On ch=3 n=62 v=0
35112 On ch=3 n=62 v=0
35112 On ch=3 n=53 v=0
35112 On ch=3 n=58 v=104
35136 On ch=3 n=58 v=0
35136 On ch=3 n=51 v=86
35136 On ch=3 n=58 v=82
35136 On ch=3 n=67 v=85
35136 On ch=3 n=63 v=86
35136 On ch=3 n=70 v=79
35328 On ch=3 n=51 v=0
35328 On ch=3 n=58 v=0
35328 On ch=3 n=67 v=0
35328 On ch=3 n=63 v=0
35328 On ch=3 n=70 v=0
35328 On ch=3 n=58 v=75
35328 On ch=3 n=67 v=76
35328 On ch=3 n=63 v=76
35328 On ch=3 n=63 v=78
35376 On ch=3 n=55 v=85
35378 On ch=3 n=63 v=0
35378 On ch=3 n=63 v=0
35379 On ch=3 n=58 v=0
35379 On ch=3 n=67 v=0
35400 On ch=3 n=70 v=78
35400 On ch=3 n=58 v=78
35400 On ch=3 n=63 v=78
35400 On ch=3 n=67 v=72
35403 On ch=3 n=63 v=0
35403 On ch=3 n=67 v=0
35404 On ch=3 n=58 v=0
35405 On ch=3 n=70 v=0
35410 On ch=3 n=55 v=0
35448 On ch=3 n=70 v=71
35448 On ch=3 n=55 v=68
35448 On ch=3 n=63 v=66
35448 On ch=3 n=63 v=64
35520 On ch=3 n=70 v=0
35520 On ch=3 n=55 v=0
35520 On ch=3 n=63 v=0
35520 On ch=3 n=63 v=0
35520 On ch=3 n=53 v=75
35520 On ch=3 n=62 v=76
35520 On ch=3 n=71 v=76
35520 On ch=3 n=62 v=78
35568 On ch=3 n=59 v=85
35570 On ch=3 n=71 v=0
35570 On ch=3 n=62 v=0
35571 On ch=3 n=53 v=0
35571 On ch=3 n=62 v=0
35592 On ch=3 n=65 v=78
35592 On ch=3 n=53 v=78
35592 On ch=3 n=62 v=78
35592 On ch=3 n=71 v=72
35595 On ch=3 n=62 v=0
35595 On ch=3 n=71 v=0
35596 On ch=3 n=53 v=0
35597 On ch=3 n=65 v=0
35602 On ch=3 n=59 v=0
35640 On ch=3 n=65 v=71
35640 On ch=3 n=50 v=68
35640 On ch=3 n=71 v=66
35640 On ch=3 n=62 v=64
35712 On ch=3 n=65 v=0
35712 On ch=3 n=50 v=0
35712 On ch=3 n=71 v=0
35712 On ch=3 n=62 v=0
35712 On ch=3 n=53 v=75
35712 On ch=3 n=68 v=76
35712 On ch=3 n=71 v=76
35712 On ch=3 n=68 v=78
35760 On ch=3 n=53 v=85
35762 On ch=3 n=71 v=0
35762 On ch=3 n=68 v=0
35763 On ch=3 n=53 v=0
35763 On ch=3 n=68 v=0
35784 On ch=3 n=71 v=78
35784 On ch=3 n=53 v=78
35784 On ch=3 n=68 v=78
35784 On ch=3 n=71 v=72
35787 On ch=3 n=68 v=0
35787 On ch=3 n=71 v=0
35788 On ch=3 n=53 v=0
35789 On ch=3 n=71 v=0
35794 On ch=3 n=53 v=0
35832 On ch=3 n=65 v=71
35832 On ch=3 n=56 v=68
35832 On ch=3 n=71 v=66
35832 On ch=3 n=68 v=64
35904 On ch=3 n=65 v=0
35904 On ch=3 n=56 v=0
35904 On ch=3 n=71 v=0
35904 On ch=3 n=68 v=0
35904 On ch=3 n=48 v=86
35904 On ch=3 n=55 v=82
35904 On ch=3 n=63 v=85
35904 On ch=3 n=63 v=86
35904 On ch=3 n=67 v=79
36096 On ch=3 n=48 v=0
36096 On ch=3 n=55 v=0
36096 On ch=3 n=63 v=0
36096 On ch=3 n=63 v=0
36096 On ch=3 n=67 v=0
36096 On ch=3 n=55 v=75
36096 On ch=3 n=63 v=76
36096 On ch=3 n=60 v=76
36096 On ch=3 n=63 v=78
36144 On ch=3 n=48 v=85
36146 On ch=3 n=60 v=0
36146 On ch=3 n=63 v=0
36147 On ch=3 n=55 v=0
36147 On ch=3 n=63 v=0
36168 On ch=3 n=67 v=78
36168 On ch=3 n=55 v=78
36168 On ch=3 n=63 v=78
36168 On ch=3 n=60 v=72
36171 On ch=3 n=63 v=0
36171 On ch=3 n=60 v=0
36172 On ch=3 n=55 v=0
36173 On ch=3 n=67 v=0
36178 On ch=3 n=48 v=0
36216 On ch=3 n=67 v=71
36216 On ch=3 n=51 v=68
36216 On ch=3 n=60 v=66
36216 On ch=3 n=63 v=64
36288 On ch=3 n=67 v=0
36288 On ch=3 n=51 v=0
36288 On ch=3 n=60 v=0
36288 On ch=3 n=63 v=0
36312 On ch=3 n=53 v=88
36336 On ch=3 n=48 v=101
36360 On ch=3 n=68 v=66
36360 On ch=3 n=65 v=69
36362 On ch=3 n=48 v=0
36364 On ch=3 n=68 v=0
36364 On ch=3 n=65 v=0
36432 On ch=3 n=68 v=82
36432 On ch=3 n=60 v=76
36432 On ch=3 n=68 v=78
36432 On ch=3 n=48 v=80
36441 On ch=3 n=53 v=0
36455 On ch=3 n=60 v=0
36456 On ch=3 n=68 v=0
36456 On ch=3 n=68 v=0
36456 On ch=3 n=48 v=0
36456 On ch=3 n=53 v=104
36480 On ch=3 n=53 v=0
36504 On ch=3 n=55 v=88
36528 On ch=3 n=50 v=101
36552 On ch=3 n=71 v=66
36552 On ch=3 n=65 v=69
36554 On ch=3 n=50 v=0
36556 On ch=3 n=71 v=0
36556 On ch=3 n=65 v=0
36624 On ch=3 n=71 v=82
36624 On ch=3 n=65 v=76
36624 On ch=3 n=67 v=78
36624 On ch=3 n=50 v=80
36633 On ch=3 n=55 v=0
36647 On ch=3 n=65 v=0
36648 On ch=3 n=71 v=0
36648 On ch=3 n=67 v=0
36648 On ch=3 n=50 v=0
36648 On ch=3 n=55 v=104
36672 On ch=3 n=55 v=0
36696 On ch=3 n=48 v=88
36720 On ch=3 n=55 v=101
36744 On ch=3 n=63 v=66
36744 On ch=3 n=60 v=69
36746 On ch=3 n=55 v=0
36748 On ch=3 n=63 v=0
36748 On ch=3 n=60 v=0
36816 On ch=3 n=63 v=82
36816 On ch=3 n=67 v=76
36816 On ch=3 n=63 v=78
36816 On ch=3 n=55 v=80
36825 On ch=3 n=48 v=0
36839 On ch=3 n=67 v=0
36840 On ch=3 n=63 v=0
36840 On ch=3 n=63 v=0
36840 On ch=3 n=55 v=0
36840 On ch=3 n=48 v=104
36864 On ch=3 n=48 v=0
36888 On ch=3 n=53 v=88
36912 On ch=3 n=48 v=101
36936 On ch=3 n=68 v=66
36936 On ch=3 n=65 v=69
36938 On ch=3 n=48 v=0
36940 On ch=3 n=68 v=0
36940 On ch=3 n=65 v=0
37008 On ch=3 n=68 v=82
37008 On ch=3 n=60 v=76
37008 On ch=3 n=68 v=78
37008 On ch=3 n=48 v=80
37017 On ch=3 n=53 v=0
37031 On ch=3 n=60 v=0
37032 On ch=3 n=68 v=0
37032 On ch=3 n=68 v=0
37032 On ch=3 n=48 v=0
37032 On ch=3 n=53 v=104
37056 On ch=3 n=53 v=0
37080 On ch=3 n=58 v=88
37104 On ch=3 n=53 v=101
37128 On ch=3 n=62 v=66
37128 On ch=3 n=70 v=69
37130 On ch=3 n=53 v=0
37132 On ch=3 n=62 v=0
37132 On ch=3 n=70 v=0
37200 On ch=3 n=62 v=82
37200 On ch=3 n=65 v=76
37200 On ch=3 n=62 v=78
37200 On ch=3 n=53 v=80
37209 On ch=3 n=58 v=0
37223 On ch=3 n=65 v=0
37224 On ch=3 n=62 v=0
37224 On ch=3 n=62 v=0
37224 On ch=3 n=53 v=0
37224 On ch=3 n=58 v=104
37248 On ch=3 n=58 v=0
37248 On ch=3 n=58 v=75
37248 On ch=3 n=67 v=76
37248 On ch=3 n=63 v=76
37248 On ch=3 n=63 v=78
37296 On ch=3 n=55 v=85
37298 On ch=3 n=63 v=0
37298 On ch=3 n=63 v=0
37299 On ch=3 n=58 v=0
37299 On ch=3 n=67 v=0
37320 On ch=3 n=70 v=78
37320 On ch=3 n=58 v=78
37320 On ch=3 n=63 v=78
37320 On ch=3 n=67 v=72
37323 On ch=3 n=63 v=0
37323 On ch=3 n=67 v=0
37324 On ch=3 n=58 v=0
37325 On ch=3 n=70 v=0
37330 On ch=3 n=55 v=0
37368 On ch=3 n=70 v=71
37368 On ch=3 n=55 v=68
37368 On ch=3 n=63 v=66
37368 On ch=3 n=63 v=64
37440 On ch=3 n=70 v=0
37440 On ch=3 n=55 v=0
37440 On ch=3 n=63 v=0
37440 On ch=3 n=63 v=0
37440 On ch=3 n=56 v=86
37440 On ch=3 n=51 v=82
37440 On ch=3 n=60 v=85
37440 On ch=3 n=68 v=86
37440 On ch=3 n=63 v=79
37632 On ch=3 n=56 v=0
37632 On ch=3 n=51 v=0
37632 On ch=3 n=60 v=0
37632 On ch=3 n=68 v=0
37632 On ch=3 n=63 v=0
37656 On ch=3 n=53 v=88
37680 On ch=3 n=48 v=101
37704 On ch=3 n=68 v=66
37704 On ch=3 n=65 v=69
37706 On ch=3 n=48 v=0
37708 On ch=3 n=68 v=0
37708 On ch=3 n=65 v=0
37776 On ch=3 n=68 v=82
37776 On ch=3 n=60 v=76
37776 On ch=3 n=68 v=78
37776 On ch=3 n=48 v=80
37785 On ch=3 n=53 v=0
37799 On ch=3 n=60 v=0
37800 On ch=3 n=68 v=0
37800 On ch=3 n=68 v=0
37800 On ch=3 n=48 v=0
37800 On ch=3 n=53 v=104
37824 On ch=3 n=53 v=0
37824 On ch=3 n=55 v=86
37824 On ch=3 n=50 v=82
37824 On ch=3 n=71 v=85
37824 On ch=3 n=67 v=86
37824 On ch=3 n=62 v=79
38016 On ch=3 n=55 v=0
38016 On ch=3 n=50 v=0
38016 On ch=3 n=71 v=0
38016 On ch=3 n=67 v=0
38016 On ch=3 n=62 v=0
38016 On ch=3 n=48 v=86
38016 On ch=3 n=55 v=82
38016 On ch=3 n=63 v=85
38016 On ch=3 n=63 v=86
38016 On ch=3 n=67 v=79
38208 On ch=3 n=48 v=0
38208 On ch=3 n=55 v=0
38208 On ch=3 n=63 v=0
38208 On ch=3 n=63 v=0
38208 On ch=3 n=67 v=0
38232 On ch=3 n=48 v=88
38256 On ch=3 n=55 v=101
38280 On ch=3 n=64 v=66
38280 On ch=3 n=60 v=69
38282 On ch=3 n=55 v=0
38284 On ch=3 n=64 v=0
38284 On ch=3 n=60 v=0
38352 On ch=3 n=64 v=82
38352 On ch=3 n=67 v=76
38352 On ch=3 n=60 v=78
38352 On ch=3 n=55 v=80
38361 On ch=3 n=48 v=0
38375 On ch=3 n=67 v=0
38376 On ch=3 n=64 v=0
38376 On ch=3 n=60 v=0
38376 On ch=3 n=55 v=0
38376 On ch=3 n=52 v=104
38400 On ch=3 n=52 v=0
38400 On ch=3 n=53 v=86
38400 On ch=3 n=48 v=82
38400 On ch=3 n=68 v=85
38400 On ch=3 n=68 v=86
38400 On ch=3 n=60 v=79
38592 On ch=3 n=53 v=0
38592 On ch=3 n=48 v=0
38592 On ch=3 n=68 v=0
38592 On ch=3 n=68 v=0
38592 On ch=3 n=60 v=0
38592 On ch=3 n=53 v=75
38592 On ch=3 n=62 v=76
38592 On ch=3 n=70 v=76
38592 On ch=3 n=62 v=78
38640 On ch=3 n=58 v=85
38642 On ch=3 n=70 v=0
38642 On ch=3 n=62 v=0
38643 On ch=3 n=53 v=0
38643 On ch=3 n=62 v=0
38664 On ch=3 n=65 v=78
38664 On ch=3 n=53 v=78
38664 On ch=3 n=62 v=78
38664 On ch=3 n=70 v=72
38667 On ch=3 n=62 v=0
38667 On ch=3 n=70 v=0
38668 On ch=3 n=53 v=0
38669 On ch=3 n=65 v=0
38674 On ch=3 n=58 v=0
38712 On ch=3 n=65 v=71
38712 On ch=3 n=50 v=68
38712 On ch=3 n=70 v=66
38712 On ch=3 n=62 v=64
38784 On ch=3 n=65 v=0
38784 On ch=3 n=50 v=0
38784 On ch=3 n=70 v=0
38784 On ch=3 n=62 v=0
38784 On ch=3 n=51 v=86
38784 On ch=3 n=58 v=82
38784 On ch=3 n=67 v=85
38784 On ch=3 n=63 v=86
38784 On ch=3 n=70 v=79
38976 On ch=3 n=51 v=0
38976 On ch=3 n=58 v=0
38976 On ch=3 n=67 v=0
38976 On ch=3 n=63 v=0
38976 On ch=3 n=70 v=0
38976 On ch=3 n=51 v=75
38976 On ch=3 n=60 v=76
38976 On ch=3 n=68 v=76
38976 On ch=3 n=68 v=78
39024 On ch=3 n=51 v=85
39026 On ch=3 n=68 v=0
39026 On ch=3 n=68 v=0
39027 On ch=3 n=51 v=0
39027 On ch=3 n=60 v=0
39048 On ch=3 n=60 v=78
39048 On ch=3 n=51 v=78
39048 On ch=3 n=68 v=78
39048 On ch=3 n=60 v=72
39051 On ch=3 n=68 v=0
39051 On ch=3 n=60 v=0
39052 On ch=3 n=51 v=0
39053 On ch=3 n=60 v=0
39058 On ch=3 n=51 v=0
39096 On ch=3 n=63 v=71
39096 On ch=3 n=48 v=68
39096 On ch=3 n=68 v=66
39096 On ch=3 n=68 v=64
39168 On ch=3 n=63 v=0
39168 On ch=3 n=48 v=0
39168 On ch=3 n=68 v=0
39168 On ch=3 n=68 v=0
39168 On ch=3 n=53 v=86
39168 On ch=3 n=48 v=82
39168 On ch=3 n=68 v=85
39168 On ch=3 n=68 v=86
39168 On ch=3 n=60 v=79
39360 On ch=3 n=53 v=0
39360 On ch=3 n=48 v=0
39360 On ch=3 n=68 v=0
39360 On ch=3 n=68 v=0
39360 On ch=3 n=60 v=0
39360 On ch=3 n=50 v=75
39360 On ch=3 n=67 v=76
39360 On ch=3 n=71 v=76
39360 On ch=3 n=67 v=78
39408 On ch=3 n=59 v=85
39410 On ch=3 n=71 v=0
39410 On ch=3 n=67 v=0
39411 On ch=3 n=50 v=0
39411 On ch=3 n=67 v=0
39432 On ch=3 n=62 v=78
39432 On ch=3 n=50 v=78
39432 On ch=3 n=67 v=78
39432 On ch=3 n=71 v=72
39435 On ch=3 n=67 v=0
39435 On ch=3 n=71 v=0
39436 On ch=3 n=50 v=0
39437 On ch=3 n=62 v=0
39442 On ch=3 n=59 v=0
39480 On ch=3 n=62 v=71
39480 On ch=3 n=55 v=68
39480 On ch=3 n=71 v=66
39480 On ch=3 n=67 v=64
39552 On ch=3 n=62 v=0
39552 On ch=3 n=55 v=0
39552 On ch=3 n=71 v=0
39552 On ch=3 n=67 v=0
39552 On ch=3 n=48 v=86
39552 On ch=3 n=55 v=82
39552 On ch=3 n=63 v=85
39552 On ch=3 n=63 v=86
39552 On ch=3 n=67 v=79
39744 On ch=3 n=48 v=0
39744 On ch=3 n=55 v=0
39744 On ch=3 n=63 v=0
39744 On ch=3 n=63 v=0
39744 On ch=3 n=67 v=0
39744 On ch=3 n=55 v=75
39744 On ch=3 n=63 v=76
39744 On ch=3 n=60 v=76
39744 On ch=3 n=63 v=78
39792 On ch=3 n=48 v=85
39794 On ch=3 n=60 v=0
39794 On ch=3 n=63 v=0
39795 On ch=3 n=55 v=0
39795 On ch=3 n=63 v=0
39816 On ch=3 n=67 v=78
39816 On ch=3 n=55 v=78
39816 On ch=3 n=63 v=78
39816 On ch=3 n=60 v=72
39819 On ch=3 n=63 v=0
39819 On ch=3 n=60 v=0
39820 On ch=3 n=55 v=0
39821 On ch=3 n=67 v=0
39826 On ch=3 n=48 v=0
39864 On ch=3 n=67 v=71
39864 On ch=3 n=51 v=68
39864 On ch=3 n=60 v=66
39864 On ch=3 n=63 v=64
39936 On ch=3 n=67 v=0
39936 On ch=3 n=51 v=0
39936 On ch=3 n=60 v=0
39936 On ch=3 n=63 v=0
39936 On ch=3 n=48 v=86
39936 On ch=3 n=55 v=82
39936 On ch=3 n=63 v=85
39936 On ch=3 n=63 v=86
39936 On ch=3 n=67 v=79
40128 On ch=3 n=48 v=0
40128 On ch=3 n=55 v=0
40128 On ch=3 n=63 v=0
40128 On ch=3 n=63 v=0
40128 On ch=3 n=67 v=0
40128 On ch=3 n=48 v=86
40128 On ch=3 n=55 v=82
40128 On ch=3 n=63 v=85
40128 On ch=3 n=63 v=86
40128 On ch=3 n=67 v=79
40320 On ch=3 n=48 v=0
40320 On ch=3 n=55 v=0
40320 On ch=3 n=63 v=0
40320 On ch=3 n=63 v=0
40320 On ch=3 n=67 v=0
40320 Meta TrkEnd
TrkEnd
MTrk
0 Meta TrkName "Acoustic Guitar (nylon)"
0 PrCh ch=4 p=24
0 Par ch=4 c=7 v=100
0 Par ch=4 c=10 v=64
0 Par ch=4 c=11 v=127
0 Par ch=4 c=91 v=0
0 Par ch=4 c=93 v=0
0 Par ch=4 c=7 v=104
0 Par ch=4 c=10 v=0
0 On ch=4 n=53 v=88
23 On ch=4 n=53 v=0
24 On ch=4 n=56 v=86
41 On ch=4 n=56 v=0
48 On ch=4 n=48 v=74
48 On ch=4 n=68 v=86
60 On ch=4 n=48 v=0
61 On ch=4 n=68 v=0
72 On ch=4 n=48 v=72
72 On ch=4 n=65 v=82
86 On ch=4 n=65 v=0
88 On ch=4 n=48 v=0
96 On ch=4 n=48 v=65
96 On ch=4 n=65 v=78
108 On ch=4 n=65 v=0
110 On ch=4 n=48 v=0
120 On ch=4 n=56 v=76
144 On ch=4 n=56 v=0
168 On ch=4 n=68 v=86
168 On ch=4 n=48 v=73
179 On ch=4 n=68 v=0
179 On ch=4 n=48 v=0
216 On ch=4 n=53 v=80
216 On ch=4 n=70 v=83
226 On ch=4 n=53 v=0
226 On ch=4 n=70 v=0
240 On ch=4 n=50 v=99
255 On ch=4 n=50 v=0
264 On ch=4 n=62 v=85
264 On ch=4 n=53 v=71
273 On ch=4 n=53 v=0
275 On ch=4 n=62 v=0
288 On ch=4 n=70 v=88
288 On ch=4 n=53 v=73
297 On ch=4 n=53 v=0
299 On ch=4 n=70 v=0
312 On ch=4 n=58 v=90
330 On ch=4 n=58 v=0
336 On ch=4 n=62 v=86
336 On ch=4 n=53 v=75
345 On ch=4 n=62 v=0
345 On ch=4 n=53 v=0
360 On ch=4 n=70 v=85
360 On ch=4 n=50 v=70
374 On ch=4 n=70 v=0
374 On ch=4 n=50 v=0
384 On ch=4 n=51 v=94
402 On ch=4 n=51 v=0
408 On ch=4 n=58 v=58
408 On ch=4 n=67 v=68
414 On ch=4 n=67 v=0
415 On ch=4 n=58 v=0
432 On ch=4 n=63 v=88
432 On ch=4 n=58 v=78
449 On ch=4 n=63 v=0
449 On ch=4 n=58 v=0
456 On ch=4 n=55 v=88
480 On ch=4 n=63 v=88
480 On ch=4 n=58 v=73
481 On ch=4 n=55 v=0
495 On ch=4 n=63 v=0
495 On ch=4 n=58 v=0
504 On ch=4 n=55 v=94
529 On ch=4 n=55 v=0
552 On ch=4 n=63 v=85
552 On ch=4 n=58 v=68
565 On ch=4 n=63 v=0
565 On ch=4 n=58 v=0
600 On ch=4 n=51 v=80
600 On ch=4 n=68 v=83
610 On ch=4 n=51 v=0
610 On ch=4 n=68 v=0
624 On ch=4 n=48 v=99
639 On ch=4 n=48 v=0
648 On ch=4 n=68 v=85
648 On ch=4 n=51 v=71
657 On ch=4 n=51 v=0
659 On ch=4 n=68 v=0
672 On ch=4 n=60 v=88
672 On ch=4 n=51 v=73
681 On ch=4 n=51 v=0
683 On ch=4 n=60 v=0
696 On ch=4 n=56 v=90
714 On ch=4 n=56 v=0
720 On ch=4 n=60 v=86
720 On ch=4 n=51 v=75
729 On ch=4 n=60 v=0
729 On ch=4 n=51 v=0
744 On ch=4 n=68 v=85
744 On ch=4 n=48 v=70
758 On ch=4 n=68 v=0
758 On ch=4 n=48 v=0
768 On ch=4 n=53 v=88
791 On ch=4 n=53 v=0
792 On ch=4 n=56 v=86
809 On ch=4 n=56 v=0
816 On ch=4 n=48 v=74
816 On ch=4 n=68 v=86
828 On ch=4 n=48 v=0
829 On ch=4 n=68 v=0
840 On ch=4 n=48 v=72
840 On ch=4 n=65 v=82
854 On ch=4 n=65 v=0
856 On ch=4 n=48 v=0
864 On ch=4 n=48 v=65
864 On ch=4 n=65 v=78
876 On ch=4 n=65 v=0
878 On ch=4 n=48 v=0
888 On ch=4 n=56 v=76
912 On ch=4 n=56 v=0
936 On ch=4 n=68 v=86
936 On ch=4 n=48 v=73
947 On ch=4 n=68 v=0
947 On ch=4 n=48 v=0
960 On ch=4 n=55 v=94
978 On ch=4 n=55 v=0
984 On ch=4 n=50 v=58
984 On ch=4 n=71 v=68
990 On ch=4 n=71 v=0
991 On ch=4 n=50 v=0
1008 On ch=4 n=67 v=88
1008 On ch=4 n=50 v=78
1025 On ch=4 n=67 v=0
1025 On ch=4 n=50 v=0
1032 On ch=4 n=59 v=88
1056 On ch=4 n=67 v=88
1056 On ch=4 n=50 v=73
1057 On ch=4 n=59 v=0
1071 On ch=4 n=67 v=0
1071 On ch=4 n=50 v=0
1080 On ch=4 n=59 v=94
1105 On ch=4 n=59 v=0
1128 On ch=4 n=67 v=85
1128 On ch=4 n=50 v=68
1141 On ch=4 n=67 v=0
1141 On ch=4 n=50 v=0
1176 On ch=4 n=55 v=80
1176 On ch=4 n=60 v=83
1186 On ch=4 n=55 v=0
1186 On ch=4 n=60 v=0
1200 On ch=4 n=51 v=99
1215 On ch=4 n=51 v=0
1224 On ch=4 n=63 v=85
1224 On ch=4 n=55 v=71
1233 On ch=4 n=55 v=0
1235 On ch=4 n=63 v=0
1248 On ch=4 n=60 v=88
1248 On ch=4 n=55 v=73
1257 On ch=4 n=55 v=0
1259 On ch=4 n=60 v=0
1272 On ch=4 n=48 v=90
1290 On ch=4 n=48 v=0
1296 On ch=4 n=63 v=86
1296 On ch=4 n=55 v=75
1305 On ch=4 n=63 v=0
1305 On ch=4 n=55 v=0
1320 On ch=4 n=60 v=85
1320 On ch=4 n=51 v=70
1334 On ch=4 n=60 v=0
1334 On ch=4 n=51 v=0
1344 On ch=4 n=48 v=88
1367 On ch=4 n=48 v=0
1368 On ch=4 n=52 v=86
1385 On ch=4 n=52 v=0
1392 On ch=4 n=55 v=74
1392 On ch=4 n=60 v=86
1404 On ch=4 n=55 v=0
1405 On ch=4 n=60 v=0
1416 On ch=4 n=55 v=72
1416 On ch=4 n=64 v=82
1430 On ch=4 n=64 v=0
1432 On ch=4 n=55 v=0
1440 On ch=4 n=55 v=65
1440 On ch=4 n=60 v=78
1452 On ch=4 n=60 v=0
1454 On ch=4 n=55 v=0
1464 On ch=4 n=52 v=76
1488 On ch=4 n=52 v=0
1512 On ch=4 n=60 v=86
1512 On ch=4 n=55 v=73
1523 On ch=4 n=60 v=0
1523 On ch=4 n=55 v=0
1536 On ch=4 n=56 v=94
1554 On ch=4 n=56 v=0
1560 On ch=4 n=48 v=58
1560 On ch=4 n=65 v=68
1566 On ch=4 n=65 v=0
1567 On ch=4 n=48 v=0
1584 On ch=4 n=68 v=88
1584 On ch=4 n=48 v=78
1601 On ch=4 n=68 v=0
1601 On ch=4 n=48 v=0
1608 On ch=4 n=53 v=88
1632 On ch=4 n=65 v=88
1632 On ch=4 n=48 v=73
1633 On ch=4 n=53 v=0
1647 On ch=4 n=65 v=0
1647 On ch=4 n=48 v=0
1656 On ch=4 n=56 v=94
1681 On ch=4 n=56 v=0
1704 On ch=4 n=68 v=85
1704 On ch=4 n=48 v=68
1717 On ch=4 n=68 v=0
1717 On ch=4 n=48 v=0
1752 On ch=4 n=53 v=80
1752 On ch=4 n=70 v=83
1762 On ch=4 n=53 v=0
1762 On ch=4 n=70 v=0
1776 On ch=4 n=50 v=99
1791 On ch=4 n=50 v=0
1800 On ch=4 n=62 v=85
1800 On ch=4 n=53 v=71
1809 On ch=4 n=53 v=0
1811 On ch=4 n=62 v=0
1824 On ch=4 n=70 v=88
1824 On ch=4 n=53 v=73
1833 On ch=4 n=53 v=0
1835 On ch=4 n=70 v=0
1848 On ch=4 n=58 v=90
1866 On ch=4 n=58 v=0
1872 On ch=4 n=62 v=86
1872 On ch=4 n=53 v=75
1881 On ch=4 n=62 v=0
1881 On ch=4 n=53 v=0
1896 On ch=4 n=70 v=85
1896 On ch=4 n=50 v=70
1910 On ch=4 n=70 v=0
1910 On ch=4 n=50 v=0
1920 On ch=4 n=51 v=88
1943 On ch=4 n=51 v=0
1944 On ch=4 n=55 v=86
1961 On ch=4 n=55 v=0
1968 On ch=4 n=58 v=74
1968 On ch=4 n=63 v=86
1980 On ch=4 n=58 v=0
1981 On ch=4 n=63 v=0
1992 On ch=4 n=58 v=72
1992 On ch=4 n=67 v=82
2006 On ch=4 n=67 v=0
2008 On ch=4 n=58 v=0
2016 On ch=4 n=58 v=65
2016 On ch=4 n=63 v=78
2028 On ch=4 n=63 v=0
2030 On ch=4 n=58 v=0
2040 On ch=4 n=55 v=76
2064 On ch=4 n=55 v=0
2088 On ch=4 n=63 v=86
2088 On ch=4 n=58 v=73
2099 On ch=4 n=63 v=0
2099 On ch=4 n=58 v=0
2136 On ch=4 n=51 v=80
2136 On ch=4 n=68 v=83
2146 On ch=4 n=51 v=0
2146 On ch=4 n=68 v=0
2160 On ch=4 n=48 v=99
2175 On ch=4 n=48 v=0
2184 On ch=4 n=68 v=85
2184 On ch=4 n=51 v=71
2193 On ch=4 n=51 v=0
2195 On ch=4 n=68 v=0
2208 On ch=4 n=60 v=88
2208 On ch=4 n=51 v=73
2217 On ch=4 n=51 v=0
2219 On ch=4 n=60 v=0
2232 On ch=4 n=56 v=90
2250 On ch=4 n=56 v=0
2256 On ch=4 n=60 v=86
2256 On ch=4 n=51 v=75
2265 On ch=4 n=60 v=0
2265 On ch=4 n=51 v=0
2280 On ch=4 n=68 v=85
2280 On ch=4 n=48 v=70
2294 On ch=4 n=68 v=0
2294 On ch=4 n=48 v=0
2304 On ch=4 n=56 v=94
2322 On ch=4 n=56 v=0
2328 On ch=4 n=48 v=58
2328 On ch=4 n=65 v=68
2334 On ch=4 n=65 v=0
2335 On ch=4 n=48 v=0
2352 On ch=4 n=68 v=88
2352 On ch=4 n=48 v=78
2369 On ch=4 n=68 v=0
2369 On ch=4 n=48 v=0
2376 On ch=4 n=53 v=88
2400 On ch=4 n=65 v=88
2400 On ch=4 n=48 v=73
2401 On ch=4 n=53 v=0
2415 On ch=4 n=65 v=0
2415 On ch=4 n=48 v=0
2424 On ch=4 n=56 v=94
2449 On ch=4 n=56 v=0
2472 On ch=4 n=68 v=85
2472 On ch=4 n=48 v=68
2485 On ch=4 n=68 v=0
2485 On ch=4 n=48 v=0
2496 On ch=4 n=55 v=94
2514 On ch=4 n=55 v=0
2520 On ch=4 n=50 v=58
2520 On ch=4 n=71 v=68
2526 On ch=4 n=71 v=0
2527 On ch=4 n=50 v=0
2544 On ch=4 n=67 v=88
2544 On ch=4 n=50 v=78
2561 On ch=4 n=67 v=0
2561 On ch=4 n=50 v=0
2568 On ch=4 n=59 v=88
2592 On ch=4 n=67 v=88
2592 On ch=4 n=50 v=73
2593 On ch=4 n=59 v=0
2607 On ch=4 n=67 v=0
2607 On ch=4 n=50 v=0
2616 On ch=4 n=59 v=94
2641 On ch=4 n=59 v=0
2664 On ch=4 n=67 v=85
2664 On ch=4 n=50 v=68
2677 On ch=4 n=67 v=0
2677 On ch=4 n=50 v=0
2688 On ch=4 n=51 v=94
2706 On ch=4 n=51 v=0
2712 On ch=4 n=55 v=58
2712 On ch=4 n=60 v=68
2718 On ch=4 n=60 v=0
2719 On ch=4 n=55 v=0
2736 On ch=4 n=63 v=88
2736 On ch=4 n=55 v=78
2753 On ch=4 n=63 v=0
2753 On ch=4 n=55 v=0
2760 On ch=4 n=48 v=88
2784 On ch=4 n=60 v=88
2784 On ch=4 n=55 v=73
2785 On ch=4 n=48 v=0
2799 On ch=4 n=60 v=0
2799 On ch=4 n=55 v=0
2808 On ch=4 n=51 v=94
2833 On ch=4 n=51 v=0
2856 On ch=4 n=63 v=85
2856 On ch=4 n=55 v=68
2869 On ch=4 n=63 v=0
2869 On ch=4 n=55 v=0
2880 On ch=4 n=51 v=94
2898 On ch=4 n=51 v=0
2904 On ch=4 n=55 v=58
2904 On ch=4 n=60 v=68
2910 On ch=4 n=60 v=0
2911 On ch=4 n=55 v=0
2928 On ch=4 n=63 v=88
2928 On ch=4 n=55 v=78
2945 On ch=4 n=63 v=0
2945 On ch=4 n=55 v=0
2952 On ch=4 n=48 v=88
2976 On ch=4 n=60 v=88
2976 On ch=4 n=55 v=73
2977 On ch=4 n=48 v=0
2991 On ch=4 n=60 v=0
2991 On ch=4 n=55 v=0
3000 On ch=4 n=51 v=94
3025 On ch=4 n=51 v=0
3048 On ch=4 n=63 v=85
3048 On ch=4 n=55 v=68
3061 On ch=4 n=63 v=0
3061 On ch=4 n=55 v=0
3072 On ch=4 n=48 v=88
3095 On ch=4 n=48 v=0
3096 On ch=4 n=51 v=86
3113 On ch=4 n=51 v=0
3120 On ch=4 n=55 v=74
3120 On ch=4 n=63 v=86
3132 On ch=4 n=55 v=0
3133 On ch=4 n=63 v=0
3144 On ch=4 n=55 v=72
3144 On ch=4 n=60 v=82
3158 On ch=4 n=60 v=0
3160 On ch=4 n=55 v=0
3168 On ch=4 n=55 v=65
3168 On ch=4 n=60 v=78
3180 On ch=4 n=60 v=0
3182 On ch=4 n=55 v=0
3192 On ch=4 n=51 v=76
3216 On ch=4 n=51 v=0
3240 On ch=4 n=63 v=86
3240 On ch=4 n=55 v=73
3251 On ch=4 n=63 v=0
3251 On ch=4 n=55 v=0
3288 On ch=4 n=48 v=80
3288 On ch=4 n=65 v=83
3298 On ch=4 n=48 v=0
3298 On ch=4 n=65 v=0
3312 On ch=4 n=56 v=99
3327 On ch=4 n=56 v=0
3336 On ch=4 n=68 v=85
3336 On ch=4 n=48 v=71
3345 On ch=4 n=48 v=0
3347 On ch=4 n=68 v=0
3360 On ch=4 n=65 v=88
3360 On ch=4 n=48 v=73
3369 On ch=4 n=48 v=0
3371 On ch=4 n=65 v=0
3384 On ch=4 n=53 v=90
3402 On ch=4 n=53 v=0
3408 On ch=4 n=68 v=86
3408 On ch=4 n=48 v=75
3417 On ch=4 n=68 v=0
3417 On ch=4 n=48 v=0
3432 On ch=4 n=65 v=85
3432 On ch=4 n=56 v=70
3446 On ch=4 n=65 v=0
3446 On ch=4 n=56 v=0
3456 On ch=4 n=55 v=94
3474 On ch=4 n=55 v=0
3480 On ch=4 n=50 v=58
3480 On ch=4 n=71 v=68
3486 On ch=4 n=71 v=0
3487 On ch=4 n=50 v=0
3504 On ch=4 n=67 v=88
3504 On ch=4 n=50 v=78
3521 On ch=4 n=67 v=0
3521 On ch=4 n=50 v=0
3528 On ch=4 n=59 v=88
3552 On ch=4 n=67 v=88
3552 On ch=4 n=50 v=73
3553 On ch=4 n=59 v=0
3567 On ch=4 n=67 v=0
3567 On ch=4 n=50 v=0
3576 On ch=4 n=59 v=94
3601 On ch=4 n=59 v=0
3624 On ch=4 n=67 v=85
3624 On ch=4 n=50 v=68
3637 On ch=4 n=67 v=0
3637 On ch=4 n=50 v=0
3648 On ch=4 n=48 v=88
3671 On ch=4 n=48 v=0
3672 On ch=4 n=51 v=86
3689 On ch=4 n=51 v=0
3696 On ch=4 n=55 v=74
3696 On ch=4 n=63 v=86
3708 On ch=4 n=55 v=0
3709 On ch=4 n=63 v=0
3720 On ch=4 n=55 v=72
3720 On ch=4 n=60 v=82
3734 On ch=4 n=60 v=0
3736 On ch=4 n=55 v=0
3744 On ch=4 n=55 v=65
3744 On ch=4 n=60 v=78
3756 On ch=4 n=60 v=0
3758 On ch=4 n=55 v=0
3768 On ch=4 n=51 v=76
3792 On ch=4 n=51 v=0
3816 On ch=4 n=63 v=86
3816 On ch=4 n=55 v=73
3827 On ch=4 n=63 v=0
3827 On ch=4 n=55 v=0
3840 On ch=4 n=51 v=88
3863 On ch=4 n=51 v=0
3864 On ch=4 n=55 v=86
3881 On ch=4 n=55 v=0
3888 On ch=4 n=58 v=74
3888 On ch=4 n=63 v=86
3900 On ch=4 n=58 v=0
3901 On ch=4 n=63 v=0
3912 On ch=4 n=58 v=72
3912 On ch=4 n=67 v=82
3926 On ch=4 n=67 v=0
3928 On ch=4 n=58 v=0
3936 On ch=4 n=58 v=65
3936 On ch=4 n=63 v=78
3948 On ch=4 n=63 v=0
3950 On ch=4 n=58 v=0
3960 On ch=4 n=55 v=76
3984 On ch=4 n=55 v=0
4008 On ch=4 n=63 v=86
4008 On ch=4 n=58 v=73
4019 On ch=4 n=63 v=0
4019 On ch=4 n=58 v=0
4032 On ch=4 n=56 v=94
4050 On ch=4 n=56 v=0
4056 On ch=4 n=48 v=58
4056 On ch=4 n=65 v=68
4062 On ch=4 n=65 v=0
4063 On ch=4 n=48 v=0
4080 On ch=4 n=68 v=88
4080 On ch=4 n=48 v=78
4097 On ch=4 n=68 v=0
4097 On ch=4 n=48 v=0
4104 On ch=4 n=53 v=88
4128 On ch=4 n=65 v=88
4128 On ch=4 n=48 v=73
4129 On ch=4 n=53 v=0
4143 On ch=4 n=65 v=0
4143 On ch=4 n=48 v=0
4152 On ch=4 n=56 v=94
4177 On ch=4 n=56 v=0
4200 On ch=4 n=68 v=85
4200 On ch=4 n=48 v=68
4213 On ch=4 n=68 v=0
4213 On ch=4 n=48 v=0
4224 On ch=4 n=58 v=88
4247 On ch=4 n=58 v=0
4248 On ch=4 n=50 v=86
4265 On ch=4 n=50 v=0
4272 On ch=4 n=53 v=74
4272 On ch=4 n=62 v=86
4284 On ch=4 n=53 v=0
4285 On ch=4 n=62 v=0
4296 On ch=4 n=53 v=72
4296 On ch=4 n=70 v=82
4310 On ch=4 n=70 v=0
4312 On ch=4 n=53 v=0
4320 On ch=4 n=53 v=65
4320 On ch=4 n=70 v=78
4332 On ch=4 n=70 v=0
4334 On ch=4 n=53 v=0
4344 On ch=4 n=50 v=76
4368 On ch=4 n=50 v=0
4392 On ch=4 n=62 v=86
4392 On ch=4 n=53 v=73
4403 On ch=4 n=62 v=0
4403 On ch=4 n=53 v=0
4440 On ch=4 n=58 v=80
4440 On ch=4 n=63 v=83
4450 On ch=4 n=58 v=0
4450 On ch=4 n=63 v=0
4464 On ch=4 n=55 v=99
4479 On ch=4 n=55 v=0
4488 On ch=4 n=63 v=85
4488 On ch=4 n=58 v=71
4497 On ch=4 n=58 v=0
4499 On ch=4 n=63 v=0
4512 On ch=4 n=67 v=88
4512 On ch=4 n=58 v=73
4521 On ch=4 n=58 v=0
4523 On ch=4 n=67 v=0
4536 On ch=4 n=51 v=90
4554 On ch=4 n=51 v=0
4560 On ch=4 n=67 v=86
4560 On ch=4 n=58 v=75
4569 On ch=4 n=67 v=0
4569 On ch=4 n=58 v=0
4584 On ch=4 n=63 v=85
4584 On ch=4 n=55 v=70
4598 On ch=4 n=63 v=0
4598 On ch=4 n=55 v=0
4632 On ch=4 n=58 v=80
4632 On ch=4 n=63 v=83
4642 On ch=4 n=58 v=0
4642 On ch=4 n=63 v=0
4656 On ch=4 n=55 v=99
4671 On ch=4 n=55 v=0
4680 On ch=4 n=63 v=85
4680 On ch=4 n=58 v=71
4689 On ch=4 n=58 v=0
4691 On ch=4 n=63 v=0
4704 On ch=4 n=67 v=88
4704 On ch=4 n=58 v=73
4713 On ch=4 n=58 v=0
4715 On ch=4 n=67 v=0
4728 On ch=4 n=51 v=90
4746 On ch=4 n=51 v=0
4752 On ch=4 n=67 v=86
4752 On ch=4 n=58 v=75
4761 On ch=4 n=67 v=0
4761 On ch=4 n=58 v=0
4776 On ch=4 n=63 v=85
4776 On ch=4 n=55 v=70
4790 On ch=4 n=63 v=0
4790 On ch=4 n=55 v=0
4824 On ch=4 n=53 v=80
4824 On ch=4 n=71 v=83
4834 On ch=4 n=53 v=0
4834 On ch=4 n=71 v=0
4848 On ch=4 n=50 v=99
4863 On ch=4 n=50 v=0
4872 On ch=4 n=62 v=85
4872 On ch=4 n=53 v=71
4881 On ch=4 n=53 v=0
4883 On ch=4 n=62 v=0
4896 On ch=4 n=71 v=88
4896 On ch=4 n=53 v=73
4905 On ch=4 n=53 v=0
4907 On ch=4 n=71 v=0
4920 On ch=4 n=59 v=90
4938 On ch=4 n=59 v=0
4944 On ch=4 n=62 v=86
4944 On ch=4 n=53 v=75
4953 On ch=4 n=62 v=0
4953 On ch=4 n=53 v=0
4968 On ch=4 n=71 v=85
4968 On ch=4 n=50 v=70
4982 On ch=4 n=71 v=0
4982 On ch=4 n=50 v=0
4992 On ch=4 n=56 v=94
5010 On ch=4 n=56 v=0
5016 On ch=4 n=53 v=58
5016 On ch=4 n=71 v=68
5022 On ch=4 n=71 v=0
5023 On ch=4 n=53 v=0
5040 On ch=4 n=68 v=88
5040 On ch=4 n=53 v=78
5057 On ch=4 n=68 v=0
5057 On ch=4 n=53 v=0
5064 On ch=4 n=59 v=88
5088 On ch=4 n=65 v=88
5088 On ch=4 n=56 v=73
5089 On ch=4 n=59 v=0
5103 On ch=4 n=65 v=0
5103 On ch=4 n=56 v=0
5112 On ch=4 n=59 v=94
5137 On ch=4 n=59 v=0
5160 On ch=4 n=68 v=85
5160 On ch=4 n=53 v=68
5173 On ch=4 n=68 v=0
5173 On ch=4 n=53 v=0
5184 On ch=4 n=51 v=94
5202 On ch=4 n=51 v=0
5208 On ch=4 n=55 v=58
5208 On ch=4 n=60 v=68
5214 On ch=4 n=60 v=0
5215 On ch=4 n=55 v=0
5232 On ch=4 n=63 v=88
5232 On ch=4 n=55 v=78
5249 On ch=4 n=63 v=0
5249 On ch=4 n=55 v=0
5256 On ch=4 n=48 v=88
5280 On ch=4 n=60 v=88
5280 On ch=4 n=55 v=73
5281 On ch=4 n=48 v=0
5295 On ch=4 n=60 v=0
5295 On ch=4 n=55 v=0
5304 On ch=4 n=51 v=94
5329 On ch=4 n=51 v=0
5352 On ch=4 n=63 v=85
5352 On ch=4 n=55 v=68
5365 On ch=4 n=63 v=0
5365 On ch=4 n=55 v=0
5400 On ch=4 n=55 v=80
5400 On ch=4 n=60 v=83
5410 On ch=4 n=55 v=0
5410 On ch=4 n=60 v=0
5424 On ch=4 n=51 v=99
5439 On ch=4 n=51 v=0
5448 On ch=4 n=63 v=85
5448 On ch=4 n=55 v=71
5457 On ch=4 n=55 v=0
5459 On ch=4 n=63 v=0
5472 On ch=4 n=60 v=88
5472 On ch=4 n=55 v=73
5481 On ch=4 n=55 v=0
5483 On ch=4 n=60 v=0
5496 On ch=4 n=48 v=90
5514 On ch=4 n=48 v=0
5520 On ch=4 n=63 v=86
5520 On ch=4 n=55 v=75
5529 On ch=4 n=63 v=0
5529 On ch=4 n=55 v=0
5544 On ch=4 n=60 v=85
5544 On ch=4 n=51 v=70
5558 On ch=4 n=60 v=0
5558 On ch=4 n=51 v=0
5592 On ch=4 n=48 v=80
5592 On ch=4 n=65 v=83
5602 On ch=4 n=48 v=0
5602 On ch=4 n=65 v=0
5616 On ch=4 n=56 v=99
5631 On ch=4 n=56 v=0
5640 On ch=4 n=68 v=85
5640 On ch=4 n=48 v=71
5649 On ch=4 n=48 v=0
5651 On ch=4 n=68 v=0
5664 On ch=4 n=65 v=88
5664 On ch=4 n=48 v=73
5673 On ch=4 n=48 v=0
5675 On ch=4 n=65 v=0
5688 On ch=4 n=53 v=90
5706 On ch=4 n=53 v=0
5712 On ch=4 n=68 v=86
5712 On ch=4 n=48 v=75
5721 On ch=4 n=68 v=0
5721 On ch=4 n=48 v=0
5736 On ch=4 n=65 v=85
5736 On ch=4 n=56 v=70
5750 On ch=4 n=65 v=0
5750 On ch=4 n=56 v=0
5760 On ch=4 n=55 v=88
5783 On ch=4 n=55 v=0
5784 On ch=4 n=59 v=86
5801 On ch=4 n=59 v=0
5808 On ch=4 n=50 v=74
5808 On ch=4 n=65 v=86
5820 On ch=4 n=50 v=0
5821 On ch=4 n=65 v=0
5832 On ch=4 n=50 v=72
5832 On ch=4 n=67 v=82
5846 On ch=4 n=67 v=0
5848 On ch=4 n=50 v=0
5856 On ch=4 n=53 v=65
5856 On ch=4 n=71 v=78
5868 On ch=4 n=71 v=0
5870 On ch=4 n=53 v=0
5880 On ch=4 n=55 v=76
5904 On ch=4 n=55 v=0
5928 On ch=4 n=71 v=86
5928 On ch=4 n=50 v=73
5939 On ch=4 n=71 v=0
5939 On ch=4 n=50 v=0
5952 On ch=4 n=51 v=94
5970 On ch=4 n=51 v=0
5976 On ch=4 n=55 v=58
5976 On ch=4 n=60 v=68
5982 On ch=4 n=60 v=0
5983 On ch=4 n=55 v=0
6000 On ch=4 n=63 v=88
6000 On ch=4 n=55 v=78
6017 On ch=4 n=63 v=0
6017 On ch=4 n=55 v=0
6024 On ch=4 n=48 v=88
6048 On ch=4 n=60 v=88
6048 On ch=4 n=55 v=73
6049 On ch=4 n=48 v=0
6063 On ch=4 n=60 v=0
6063 On ch=4 n=55 v=0
6072 On ch=4 n=51 v=94
6097 On ch=4 n=51 v=0
6120 On ch=4 n=63 v=85
6120 On ch=4 n=55 v=68
6133 On ch=4 n=63 v=0
6133 On ch=4 n=55 v=0
6168 On ch=4 n=48 v=80
6168 On ch=4 n=65 v=83
6178 On ch=4 n=48 v=0
6178 On ch=4 n=65 v=0
6192 On ch=4 n=56 v=99
6207 On ch=4 n=56 v=0
6216 On ch=4 n=68 v=85
6216 On ch=4 n=48 v=71
6225 On ch=4 n=48 v=0
6227 On ch=4 n=68 v=0
6240 On ch=4 n=65 v=88
6240 On ch=4 n=48 v=73
6249 On ch=4 n=48 v=0
6251 On ch=4 n=65 v=0
6264 On ch=4 n=53 v=90
6282 On ch=4 n=53 v=0
6288 On ch=4 n=68 v=86
6288 On ch=4 n=48 v=75
6297 On ch=4 n=68 v=0
6297 On ch=4 n=48 v=0
6312 On ch=4 n=65 v=85
6312 On ch=4 n=56 v=70
6326 On ch=4 n=65 v=0
6326 On ch=4 n=56 v=0
6336 On ch=4 n=50 v=94
6354 On ch=4 n=50 v=0
6360 On ch=4 n=53 v=58
6360 On ch=4 n=70 v=68
6366 On ch=4 n=70 v=0
6367 On ch=4 n=53 v=0
6384 On ch=4 n=62 v=88
6384 On ch=4 n=53 v=78
6401 On ch=4 n=62 v=0
6401 On ch=4 n=53 v=0
6408 On ch=4 n=58 v=88
6432 On ch=4 n=70 v=88
6432 On ch=4 n=53 v=73
6433 On ch=4 n=58 v=0
6447 On ch=4 n=70 v=0
6447 On ch=4 n=53 v=0
6456 On ch=4 n=50 v=94
6481 On ch=4 n=50 v=0
6504 On ch=4 n=62 v=85
6504 On ch=4 n=53 v=68
6517 On ch=4 n=62 v=0
6517 On ch=4 n=53 v=0
6528 On ch=4 n=51 v=88
6551 On ch=4 n=51 v=0
6552 On ch=4 n=55 v=86
6569 On ch=4 n=55 v=0
6576 On ch=4 n=58 v=74
6576 On ch=4 n=63 v=86
6588 On ch=4 n=58 v=0
6589 On ch=4 n=63 v=0
6600 On ch=4 n=58 v=72
6600 On ch=4 n=67 v=82
6614 On ch=4 n=67 v=0
6616 On ch=4 n=58 v=0
6624 On ch=4 n=58 v=65
6624 On ch=4 n=63 v=78
6636 On ch=4 n=63 v=0
6638 On ch=4 n=58 v=0
6648 On ch=4 n=55 v=76
6672 On ch=4 n=55 v=0
6696 On ch=4 n=63 v=86
6696 On ch=4 n=58 v=73
6707 On ch=4 n=63 v=0
6707 On ch=4 n=58 v=0
6720 On ch=4 n=56 v=94
6738 On ch=4 n=56 v=0
6744 On ch=4 n=51 v=58
6744 On ch=4 n=60 v=68
6750 On ch=4 n=60 v=0
6751 On ch=4 n=51 v=0
6768 On ch=4 n=68 v=88
6768 On ch=4 n=51 v=78
6785 On ch=4 n=68 v=0
6785 On ch=4 n=51 v=0
6792 On ch=4 n=48 v=88
6816 On ch=4 n=68 v=88
6816 On ch=4 n=51 v=73
6817 On ch=4 n=48 v=0
6831 On ch=4 n=68 v=0
6831 On ch=4 n=51 v=0
6840 On ch=4 n=48 v=94
6865 On ch=4 n=48 v=0
6888 On ch=4 n=68 v=85
6888 On ch=4 n=51 v=68
6901 On ch=4 n=68 v=0
6901 On ch=4 n=51 v=0
6912 On ch=4 n=53 v=88
6935 On ch=4 n=53 v=0
6936 On ch=4 n=56 v=86
6953 On ch=4 n=56 v=0
6960 On ch=4 n=48 v=74
6960 On ch=4 n=68 v=86
6972 On ch=4 n=48 v=0
6973 On ch=4 n=68 v=0
6984 On ch=4 n=48 v=72
6984 On ch=4 n=65 v=82
6998 On ch=4 n=65 v=0
7000 On ch=4 n=48 v=0
7008 On ch=4 n=48 v=65
7008 On ch=4 n=65 v=78
7020 On ch=4 n=65 v=0
7022 On ch=4 n=48 v=0
7032 On ch=4 n=56 v=76
7056 On ch=4 n=56 v=0
7080 On ch=4 n=68 v=86
7080 On ch=4 n=48 v=73
7091 On ch=4 n=68 v=0
7091 On ch=4 n=48 v=0
7104 On ch=4 n=55 v=88
7127 On ch=4 n=55 v=0
7128 On ch=4 n=59 v=86
7145 On ch=4 n=59 v=0
7152 On ch=4 n=50 v=74
7152 On ch=4 n=67 v=86
7164 On ch=4 n=50 v=0
7165 On ch=4 n=67 v=0
7176 On ch=4 n=50 v=72
7176 On ch=4 n=71 v=82
7190 On ch=4 n=71 v=0
7192 On ch=4 n=50 v=0
7200 On ch=4 n=50 v=65
7200 On ch=4 n=67 v=78
7212 On ch=4 n=67 v=0
7214 On ch=4 n=50 v=0
7224 On ch=4 n=59 v=76
7248 On ch=4 n=59 v=0
7272 On ch=4 n=67 v=86
7272 On ch=4 n=50 v=73
7283 On ch=4 n=67 v=0
7283 On ch=4 n=50 v=0
7296 On ch=4 n=51 v=94
7314 On ch=4 n=51 v=0
7320 On ch=4 n=55 v=58
7320 On ch=4 n=60 v=68
7326 On ch=4 n=60 v=0
7327 On ch=4 n=55 v=0
7344 On ch=4 n=63 v=88
7344 On ch=4 n=55 v=78
7361 On ch=4 n=63 v=0
7361 On ch=4 n=55 v=0
7368 On ch=4 n=48 v=88
7392 On ch=4 n=60 v=88
7392 On ch=4 n=55 v=73
7393 On ch=4 n=48 v=0
7407 On ch=4 n=60 v=0
7407 On ch=4 n=55 v=0
7416 On ch=4 n=51 v=94
7441 On ch=4 n=51 v=0
7464 On ch=4 n=63 v=85
7464 On ch=4 n=55 v=68
7477 On ch=4 n=63 v=0
7477 On ch=4 n=55 v=0
7488 On ch=4 n=48 v=88
7511 On ch=4 n=48 v=0
7512 On ch=4 n=52 v=86
7529 On ch=4 n=52 v=0
7536 On ch=4 n=55 v=74
7536 On ch=4 n=60 v=86
7548 On ch=4 n=55 v=0
7549 On ch=4 n=60 v=0
7560 On ch=4 n=55 v=72
7560 On ch=4 n=64 v=82
7574 On ch=4 n=64 v=0
7576 On ch=4 n=55 v=0
7584 On ch=4 n=55 v=65
7584 On ch=4 n=60 v=78
7596 On ch=4 n=60 v=0
7598 On ch=4 n=55 v=0
7608 On ch=4 n=52 v=76
7632 On ch=4 n=52 v=0
7656 On ch=4 n=60 v=86
7656 On ch=4 n=55 v=73
7667 On ch=4 n=60 v=0
7667 On ch=4 n=55 v=0
7680 On ch=4 n=53 v=88
7703 On ch=4 n=53 v=0
7704 On ch=4 n=56 v=86
7721 On ch=4 n=56 v=0
7728 On ch=4 n=48 v=74
7728 On ch=4 n=68 v=86
7740 On ch=4 n=48 v=0
7741 On ch=4 n=68 v=0
7752 On ch=4 n=48 v=72
7752 On ch=4 n=65 v=82
7766 On ch=4 n=65 v=0
7768 On ch=4 n=48 v=0
7776 On ch=4 n=48 v=65
7776 On ch=4 n=65 v=78
7788 On ch=4 n=65 v=0
7790 On ch=4 n=48 v=0
7800 On ch=4 n=56 v=76
7824 On ch=4 n=56 v=0
7848 On ch=4 n=68 v=86
7848 On ch=4 n=48 v=73
7859 On ch=4 n=68 v=0
7859 On ch=4 n=48 v=0
7896 On ch=4 n=53 v=80
7896 On ch=4 n=70 v=83
7906 On ch=4 n=53 v=0
7906 On ch=4 n=70 v=0
7920 On ch=4 n=50 v=99
7935 On ch=4 n=50 v=0
7944 On ch=4 n=62 v=85
7944 On ch=4 n=53 v=71
7953 On ch=4 n=53 v=0
7955 On ch=4 n=62 v=0
7968 On ch=4 n=70 v=88
7968 On ch=4 n=53 v=73
7977 On ch=4 n=53 v=0
7979 On ch=4 n=70 v=0
7992 On ch=4 n=58 v=90
8010 On ch=4 n=58 v=0
8016 On ch=4 n=62 v=86
8016 On ch=4 n=53 v=75
8025 On ch=4 n=62 v=0
8025 On ch=4 n=53 v=0
8040 On ch=4 n=70 v=85
8040 On ch=4 n=50 v=70
8054 On ch=4 n=70 v=0
8054 On ch=4 n=50 v=0
8064 On ch=4 n=51 v=94
8082 On ch=4 n=51 v=0
8088 On ch=4 n=58 v=58
8088 On ch=4 n=67 v=68
8094 On ch=4 n=67 v=0
8095 On ch=4 n=58 v=0
8112 On ch=4 n=63 v=88
8112 On ch=4 n=58 v=78
8129 On ch=4 n=63 v=0
8129 On ch=4 n=58 v=0
8136 On ch=4 n=55 v=88
8160 On ch=4 n=63 v=88
8160 On ch=4 n=58 v=73
8161 On ch=4 n=55 v=0
8175 On ch=4 n=63 v=0
8175 On ch=4 n=58 v=0
8184 On ch=4 n=55 v=94
8209 On ch=4 n=55 v=0
8232 On ch=4 n=63 v=85
8232 On ch=4 n=58 v=68
8245 On ch=4 n=63 v=0
8245 On ch=4 n=58 v=0
8280 On ch=4 n=51 v=80
8280 On ch=4 n=68 v=83
8290 On ch=4 n=51 v=0
8290 On ch=4 n=68 v=0
8304 On ch=4 n=48 v=99
8319 On ch=4 n=48 v=0
8328 On ch=4 n=68 v=85
8328 On ch=4 n=51 v=71
8337 On ch=4 n=51 v=0
8339 On ch=4 n=68 v=0
8352 On ch=4 n=60 v=88
8352 On ch=4 n=51 v=73
8361 On ch=4 n=51 v=0
8363 On ch=4 n=60 v=0
8376 On ch=4 n=56 v=90
8394 On ch=4 n=56 v=0
8400 On ch=4 n=60 v=86
8400 On ch=4 n=51 v=75
8409 On ch=4 n=60 v=0
8409 On ch=4 n=51 v=0
8424 On ch=4 n=68 v=85
8424 On ch=4 n=48 v=70
8438 On ch=4 n=68 v=0
8438 On ch=4 n=48 v=0
8448 On ch=4 n=53 v=88
8471 On ch=4 n=53 v=0
8472 On ch=4 n=56 v=86
8489 On ch=4 n=56 v=0
8496 On ch=4 n=48 v=74
8496 On ch=4 n=68 v=86
8508 On ch=4 n=48 v=0
8509 On ch=4 n=68 v=0
8520 On ch=4 n=48 v=72
8520 On ch=4 n=65 v=82
8534 On ch=4 n=65 v=0
8536 On ch=4 n=48 v=0
8544 On ch=4 n=48 v=65
8544 On ch=4 n=65 v=78
8556 On ch=4 n=65 v=0
8558 On ch=4 n=48 v=0
8568 On ch=4 n=56 v=76
8592 On ch=4 n=56 v=0
8616 On ch=4 n=68 v=86
8616 On ch=4 n=48 v=73
8627 On ch=4 n=68 v=0
8627 On ch=4 n=48 v=0
8640 On ch=4 n=55 v=88
8663 On ch=4 n=55 v=0
8664 On ch=4 n=59 v=86
8681 On ch=4 n=59 v=0
8688 On ch=4 n=50 v=74
8688 On ch=4 n=67 v=86
8700 On ch=4 n=50 v=0
8701 On ch=4 n=67 v=0
8712 On ch=4 n=50 v=72
8712 On ch=4 n=71 v=82
8726 On ch=4 n=71 v=0
8728 On ch=4 n=50 v=0
8736 On ch=4 n=50 v=65
8736 On ch=4 n=67 v=78
8748 On ch=4 n=67 v=0
8750 On ch=4 n=50 v=0
8760 On ch=4 n=59 v=76
8784 On ch=4 n=59 v=0
8808 On ch=4 n=67 v=86
8808 On ch=4 n=50 v=73
8819 On ch=4 n=67 v=0
8819 On ch=4 n=50 v=0
8832 On ch=4 n=51 v=94
8850 On ch=4 n=51 v=0
8856 On ch=4 n=55 v=58
8856 On ch=4 n=60 v=68
8862 On ch=4 n=60 v=0
8863 On ch=4 n=55 v=0
8880 On ch=4 n=63 v=88
8880 On ch=4 n=55 v=78
8897 On ch=4 n=63 v=0
8897 On ch=4 n=55 v=0
8904 On ch=4 n=48 v=88
8928 On ch=4 n=60 v=88
8928 On ch=4 n=55 v=73
8929 On ch=4 n=48 v=0
8943 On ch=4 n=60 v=0
8943 On ch=4 n=55 v=0
8952 On ch=4 n=51 v=94
8977 On ch=4 n=51 v=0
9000 On ch=4 n=63 v=85
9000 On ch=4 n=55 v=68
9013 On ch=4 n=63 v=0
9013 On ch=4 n=55 v=0
9024 On ch=4 n=48 v=88
9047 On ch=4 n=48 v=0
9048 On ch=4 n=51 v=86
9065 On ch=4 n=51 v=0
9072 On ch=4 n=55 v=74
9072 On ch=4 n=63 v=86
9084 On ch=4 n=55 v=0
9085 On ch=4 n=63 v=0
9096 On ch=4 n=55 v=72
9096 On ch=4 n=60 v=82
9110 On ch=4 n=60 v=0
9112 On ch=4 n=55 v=0
9120 On ch=4 n=55 v=65
9120 On ch=4 n=60 v=78
9132 On ch=4 n=60 v=0
9134 On ch=4 n=55 v=0
9144 On ch=4 n=51 v=76
9168 On ch=4 n=51 v=0
9192 On ch=4 n=63 v=86
9192 On ch=4 n=55 v=73
9203 On ch=4 n=63 v=0
9203 On ch=4 n=55 v=0
9216 On ch=4 n=51 v=94
9234 On ch=4 n=51 v=0
9240 On ch=4 n=55 v=58
9240 On ch=4 n=60 v=68
9246 On ch=4 n=60 v=0
9247 On ch=4 n=55 v=0
9264 On ch=4 n=63 v=88
9264 On ch=4 n=55 v=78
9281 On ch=4 n=63 v=0
9281 On ch=4 n=55 v=0
9288 On ch=4 n=48 v=88
9312 On ch=4 n=60 v=88
9312 On ch=4 n=55 v=73
9313 On ch=4 n=48 v=0
9327 On ch=4 n=60 v=0
9327 On ch=4 n=55 v=0
9336 On ch=4 n=51 v=94
9361 On ch=4 n=51 v=0
9384 On ch=4 n=63 v=85
9384 On ch=4 n=55 v=68
9397 On ch=4 n=63 v=0
9397 On ch=4 n=55 v=0
9432 On ch=4 n=48 v=80
9432 On ch=4 n=65 v=83
9442 On ch=4 n=48 v=0
9442 On ch=4 n=65 v=0
9456 On ch=4 n=56 v=99
9471 On ch=4 n=56 v=0
9480 On ch=4 n=68 v=85
9480 On ch=4 n=48 v=71
9489 On ch=4 n=48 v=0
9491 On ch=4 n=68 v=0
9504 On ch=4 n=65 v=88
9504 On ch=4 n=48 v=73
9513 On ch=4 n=48 v=0
9515 On ch=4 n=65 v=0
9528 On ch=4 n=53 v=90
9546 On ch=4 n=53 v=0
9552 On ch=4 n=68 v=86
9552 On ch=4 n=48 v=75
9561 On ch=4 n=68 v=0
9561 On ch=4 n=48 v=0
9576 On ch=4 n=65 v=85
9576 On ch=4 n=56 v=70
9590 On ch=4 n=65 v=0
9590 On ch=4 n=56 v=0
9600 On ch=4 n=55 v=88
9623 On ch=4 n=55 v=0
9624 On ch=4 n=59 v=86
9641 On ch=4 n=59 v=0
9648 On ch=4 n=50 v=74
9648 On ch=4 n=67 v=86
9660 On ch=4 n=50 v=0
9661 On ch=4 n=67 v=0
9672 On ch=4 n=50 v=72
9672 On ch=4 n=71 v=82
9686 On ch=4 n=71 v=0
9688 On ch=4 n=50 v=0
9696 On ch=4 n=50 v=65
9696 On ch=4 n=67 v=78
9708 On ch=4 n=67 v=0
9710 On ch=4 n=50 v=0
9720 On ch=4 n=59 v=76
9744 On ch=4 n=59 v=0
9768 On ch=4 n=67 v=86
9768 On ch=4 n=50 v=73
9779 On ch=4 n=67 v=0
9779 On ch=4 n=50 v=0
9792 On ch=4 n=51 v=94
9810 On ch=4 n=51 v=0
9816 On ch=4 n=55 v=58
9816 On ch=4 n=60 v=68
9822 On ch=4 n=60 v=0
9823 On ch=4 n=55 v=0
9840 On ch=4 n=63 v=88
9840 On ch=4 n=55 v=78
9857 On ch=4 n=63 v=0
9857 On ch=4 n=55 v=0
9864 On ch=4 n=48 v=88
9888 On ch=4 n=60 v=88
9888 On ch=4 n=55 v=73
9889 On ch=4 n=48 v=0
9903 On ch=4 n=60 v=0
9903 On ch=4 n=55 v=0
9912 On ch=4 n=51 v=94
9937 On ch=4 n=51 v=0
9960 On ch=4 n=63 v=85
9960 On ch=4 n=55 v=68
9973 On ch=4 n=63 v=0
9973 On ch=4 n=55 v=0
9984 On ch=4 n=51 v=88
10007 On ch=4 n=51 v=0
10008 On ch=4 n=55 v=86
10025 On ch=4 n=55 v=0
10032 On ch=4 n=58 v=74
10032 On ch=4 n=63 v=86
10044 On ch=4 n=58 v=0
10045 On ch=4 n=63 v=0
10056 On ch=4 n=58 v=72
10056 On ch=4 n=67 v=82
10070 On ch=4 n=67 v=0
10072 On ch=4 n=58 v=0
10080 On ch=4 n=58 v=65
10080 On ch=4 n=63 v=78
10092 On ch=4 n=63 v=0
10094 On ch=4 n=58 v=0
10104 On ch=4 n=55 v=76
10128 On ch=4 n=55 v=0
10152 On ch=4 n=63 v=86
10152 On ch=4 n=58 v=73
10163 On ch=4 n=63 v=0
10163 On ch=4 n=58 v=0
10200 On ch=4 n=48 v=80
10200 On ch=4 n=65 v=83
10210 On ch=4 n=48 v=0
10210 On ch=4 n=65 v=0
10224 On ch=4 n=56 v=99
10239 On ch=4 n=56 v=0
10248 On ch=4 n=68 v=85
10248 On ch=4 n=48 v=71
10257 On ch=4 n=48 v=0
10259 On ch=4 n=68 v=0
10272 On ch=4 n=65 v=88
10272 On ch=4 n=48 v=73
10281 On ch=4 n=48 v=0
10283 On ch=4 n=65 v=0
10296 On ch=4 n=53 v=90
10314 On ch=4 n=53 v=0
10320 On ch=4 n=68 v=86
10320 On ch=4 n=48 v=75
10329 On ch=4 n=68 v=0
10329 On ch=4 n=48 v=0
10344 On ch=4 n=65 v=85
10344 On ch=4 n=56 v=70
10358 On ch=4 n=65 v=0
10358 On ch=4 n=56 v=0
10368 On ch=4 n=50 v=94
10386 On ch=4 n=50 v=0
10392 On ch=4 n=53 v=58
10392 On ch=4 n=70 v=68
10398 On ch=4 n=70 v=0
10399 On ch=4 n=53 v=0
10416 On ch=4 n=62 v=88
10416 On ch=4 n=53 v=78
10433 On ch=4 n=62 v=0
10433 On ch=4 n=53 v=0
10440 On ch=4 n=58 v=88
10464 On ch=4 n=70 v=88
10464 On ch=4 n=53 v=73
10465 On ch=4 n=58 v=0
10479 On ch=4 n=70 v=0
10479 On ch=4 n=53 v=0
10488 On ch=4 n=50 v=94
10513 On ch=4 n=50 v=0
10536 On ch=4 n=62 v=85
10536 On ch=4 n=53 v=68
10549 On ch=4 n=62 v=0
10549 On ch=4 n=53 v=0
10584 On ch=4 n=58 v=80
10584 On ch=4 n=63 v=83
10594 On ch=4 n=58 v=0
10594 On ch=4 n=63 v=0
10608 On ch=4 n=55 v=99
10623 On ch=4 n=55 v=0
10632 On ch=4 n=63 v=85
10632 On ch=4 n=58 v=71
10641 On ch=4 n=58 v=0
10643 On ch=4 n=63 v=0
10656 On ch=4 n=67 v=88
10656 On ch=4 n=58 v=73
10665 On ch=4 n=58 v=0
10667 On ch=4 n=67 v=0
10680 On ch=4 n=51 v=90
10698 On ch=4 n=51 v=0
10704 On ch=4 n=67 v=86
10704 On ch=4 n=58 v=75
10713 On ch=4 n=67 v=0
10713 On ch=4 n=58 v=0
10728 On ch=4 n=63 v=85
10728 On ch=4 n=55 v=70
10742 On ch=4 n=63 v=0
10742 On ch=4 n=55 v=0
10752 On ch=4 n=51 v=94
10770 On ch=4 n=51 v=0
10776 On ch=4 n=58 v=58
10776 On ch=4 n=67 v=68
10782 On ch=4 n=67 v=0
10783 On ch=4 n=58 v=0
10800 On ch=4 n=63 v=88
10800 On ch=4 n=58 v=78
10817 On ch=4 n=63 v=0
10817 On ch=4 n=58 v=0
10824 On ch=4 n=55 v=88
10848 On ch=4 n=63 v=88
10848 On ch=4 n=58 v=73
10849 On ch=4 n=55 v=0
10863 On ch=4 n=63 v=0
10863 On ch=4 n=58 v=0
10872 On ch=4 n=55 v=94
10897 On ch=4 n=55 v=0
10920 On ch=4 n=63 v=85
10920 On ch=4 n=58 v=68
10933 On ch=4 n=63 v=0
10933 On ch=4 n=58 v=0
10944 On ch=4 n=50 v=94
10962 On ch=4 n=50 v=0
10968 On ch=4 n=53 v=58
10968 On ch=4 n=71 v=68
10974 On ch=4 n=71 v=0
10975 On ch=4 n=53 v=0
10992 On ch=4 n=62 v=88
10992 On ch=4 n=53 v=78
11009 On ch=4 n=62 v=0
11009 On ch=4 n=53 v=0
11016 On ch=4 n=59 v=88
11040 On ch=4 n=71 v=88
11040 On ch=4 n=53 v=73
11041 On ch=4 n=59 v=0
11055 On ch=4 n=71 v=0
11055 On ch=4 n=53 v=0
11064 On ch=4 n=50 v=94
11089 On ch=4 n=50 v=0
11112 On ch=4 n=62 v=85
11112 On ch=4 n=53 v=68
11125 On ch=4 n=62 v=0
11125 On ch=4 n=53 v=0
11160 On ch=4 n=53 v=80
11160 On ch=4 n=68 v=83
11170 On ch=4 n=53 v=0
11170 On ch=4 n=68 v=0
11184 On ch=4 n=59 v=99
11199 On ch=4 n=59 v=0
11208 On ch=4 n=68 v=85
11208 On ch=4 n=53 v=71
11217 On ch=4 n=53 v=0
11219 On ch=4 n=68 v=0
11232 On ch=4 n=71 v=88
11232 On ch=4 n=53 v=73
11241 On ch=4 n=53 v=0
11243 On ch=4 n=71 v=0
11256 On ch=4 n=56 v=90
11274 On ch=4 n=56 v=0
11280 On ch=4 n=71 v=86
11280 On ch=4 n=53 v=75
11289 On ch=4 n=71 v=0
11289 On ch=4 n=53 v=0
11304 On ch=4 n=68 v=85
11304 On ch=4 n=59 v=70
11318 On ch=4 n=68 v=0
11318 On ch=4 n=59 v=0
11328 On ch=4 n=48 v=88
11351 On ch=4 n=48 v=0
11352 On ch=4 n=51 v=86
11369 On ch=4 n=51 v=0
11376 On ch=4 n=55 v=74
11376 On ch=4 n=63 v=86
11388 On ch=4 n=55 v=0
11389 On ch=4 n=63 v=0
11400 On ch=4 n=55 v=72
11400 On ch=4 n=60 v=82
11414 On ch=4 n=60 v=0
11416 On ch=4 n=55 v=0
11424 On ch=4 n=55 v=65
11424 On ch=4 n=60 v=78
11436 On ch=4 n=60 v=0
11438 On ch=4 n=55 v=0
11448 On ch=4 n=51 v=76
11472 On ch=4 n=51 v=0
11496 On ch=4 n=63 v=86
11496 On ch=4 n=55 v=73
11507 On ch=4 n=63 v=0
11507 On ch=4 n=55 v=0
11520 On ch=4 n=48 v=88
11543 On ch=4 n=48 v=0
11544 On ch=4 n=51 v=86
11561 On ch=4 n=51 v=0
11568 On ch=4 n=55 v=74
11568 On ch=4 n=63 v=86
11580 On ch=4 n=55 v=0
11581 On ch=4 n=63 v=0
11592 On ch=4 n=55 v=72
11592 On ch=4 n=60 v=82
11606 On ch=4 n=60 v=0
11608 On ch=4 n=55 v=0
11616 On ch=4 n=55 v=65
11616 On ch=4 n=60 v=78
11628 On ch=4 n=60 v=0
11630 On ch=4 n=55 v=0
11640 On ch=4 n=51 v=76
11664 On ch=4 n=51 v=0
11688 On ch=4 n=63 v=86
11688 On ch=4 n=55 v=73
11699 On ch=4 n=63 v=0
11699 On ch=4 n=55 v=0
11712 On ch=4 n=56 v=94
11730 On ch=4 n=56 v=0
11736 On ch=4 n=48 v=58
11736 On ch=4 n=65 v=68
11742 On ch=4 n=65 v=0
11743 On ch=4 n=48 v=0
11760 On ch=4 n=68 v=88
11760 On ch=4 n=48 v=78
11777 On ch=4 n=68 v=0
11777 On ch=4 n=48 v=0
11784 On ch=4 n=53 v=88
11808 On ch=4 n=65 v=88
11808 On ch=4 n=48 v=73
11809 On ch=4 n=53 v=0
11823 On ch=4 n=65 v=0
11823 On ch=4 n=48 v=0
11832 On ch=4 n=56 v=94
11857 On ch=4 n=56 v=0
11880 On ch=4 n=68 v=85
11880 On ch=4 n=48 v=68
11893 On ch=4 n=68 v=0
11893 On ch=4 n=48 v=0
11904 On ch=4 n=55 v=88
11927 On ch=4 n=55 v=0
11928 On ch=4 n=59 v=86
11945 On ch=4 n=59 v=0
11952 On ch=4 n=50 v=74
11952 On ch=4 n=65 v=86
11964 On ch=4 n=50 v=0
11965 On ch=4 n=65 v=0
11976 On ch=4 n=50 v=72
11976 On ch=4 n=67 v=82
11990 On ch=4 n=67 v=0
11992 On ch=4 n=50 v=0
12000 On ch=4 n=53 v=65
12000 On ch=4 n=71 v=78
12012 On ch=4 n=71 v=0
12014 On ch=4 n=53 v=0
12024 On ch=4 n=55 v=76
12048 On ch=4 n=55 v=0
12072 On ch=4 n=71 v=86
12072 On ch=4 n=50 v=73
12083 On ch=4 n=71 v=0
12083 On ch=4 n=50 v=0
12096 On ch=4 n=48 v=88
12119 On ch=4 n=48 v=0
12120 On ch=4 n=51 v=86
12137 On ch=4 n=51 v=0
12144 On ch=4 n=55 v=74
12144 On ch=4 n=63 v=86
12156 On ch=4 n=55 v=0
12157 On ch=4 n=63 v=0
12168 On ch=4 n=55 v=72
12168 On ch=4 n=60 v=82
12182 On ch=4 n=60 v=0
12184 On ch=4 n=55 v=0
12192 On ch=4 n=55 v=65
12192 On ch=4 n=60 v=78
12204 On ch=4 n=60 v=0
12206 On ch=4 n=55 v=0
12216 On ch=4 n=51 v=76
12240 On ch=4 n=51 v=0
12264 On ch=4 n=63 v=86
12264 On ch=4 n=55 v=73
12275 On ch=4 n=63 v=0
12275 On ch=4 n=55 v=0
12312 On ch=4 n=48 v=80
12312 On ch=4 n=65 v=83
12322 On ch=4 n=48 v=0
12322 On ch=4 n=65 v=0
12336 On ch=4 n=56 v=99
12351 On ch=4 n=56 v=0
12360 On ch=4 n=68 v=85
12360 On ch=4 n=48 v=71
12369 On ch=4 n=48 v=0
12371 On ch=4 n=68 v=0
12384 On ch=4 n=65 v=88
12384 On ch=4 n=48 v=73
12393 On ch=4 n=48 v=0
12395 On ch=4 n=65 v=0
12408 On ch=4 n=53 v=90
12426 On ch=4 n=53 v=0
12432 On ch=4 n=68 v=86
12432 On ch=4 n=48 v=75
12441 On ch=4 n=68 v=0
12441 On ch=4 n=48 v=0
12456 On ch=4 n=65 v=85
12456 On ch=4 n=56 v=70
12470 On ch=4 n=65 v=0
12470 On ch=4 n=56 v=0
12480 On ch=4 n=50 v=94
12498 On ch=4 n=50 v=0
12504 On ch=4 n=53 v=58
12504 On ch=4 n=70 v=68
12510 On ch=4 n=70 v=0
12511 On ch=4 n=53 v=0
12528 On ch=4 n=62 v=88
12528 On ch=4 n=53 v=78
12545 On ch=4 n=62 v=0
12545 On ch=4 n=53 v=0
12552 On ch=4 n=58 v=88
12576 On ch=4 n=70 v=88
12576 On ch=4 n=53 v=73
12577 On ch=4 n=58 v=0
12591 On ch=4 n=70 v=0
12591 On ch=4 n=53 v=0
12600 On ch=4 n=50 v=94
12625 On ch=4 n=50 v=0
12648 On ch=4 n=62 v=85
12648 On ch=4 n=53 v=68
12661 On ch=4 n=62 v=0
12661 On ch=4 n=53 v=0
12672 On ch=4 n=51 v=94
12690 On ch=4 n=51 v=0
12696 On ch=4 n=58 v=58
12696 On ch=4 n=67 v=68
12702 On ch=4 n=67 v=0
12703 On ch=4 n=58 v=0
12720 On ch=4 n=63 v=88
12720 On ch=4 n=58 v=78
12737 On ch=4 n=63 v=0
12737 On ch=4 n=58 v=0
12744 On ch=4 n=55 v=88
12768 On ch=4 n=63 v=88
12768 On ch=4 n=58 v=73
12769 On ch=4 n=55 v=0
12783 On ch=4 n=63 v=0
12783 On ch=4 n=58 v=0
12792 On ch=4 n=55 v=94
12817 On ch=4 n=55 v=0
12840 On ch=4 n=63 v=85
12840 On ch=4 n=58 v=68
12853 On ch=4 n=63 v=0
12853 On ch=4 n=58 v=0
12864 On ch=4 n=56 v=94
12882 On ch=4 n=56 v=0
12888 On ch=4 n=51 v=58
12888 On ch=4 n=60 v=68
12894 On ch=4 n=60 v=0
12895 On ch=4 n=51 v=0
12912 On ch=4 n=68 v=88
12912 On ch=4 n=51 v=78
12929 On ch=4 n=68 v=0
12929 On ch=4 n=51 v=0
12936 On ch=4 n=48 v=88
12960 On ch=4 n=68 v=88
12960 On ch=4 n=51 v=73
12961 On ch=4 n=48 v=0
12975 On ch=4 n=68 v=0
12975 On ch=4 n=51 v=0
12984 On ch=4 n=48 v=94
13009 On ch=4 n=48 v=0
13032 On ch=4 n=68 v=85
13032 On ch=4 n=51 v=68
13045 On ch=4 n=68 v=0
13045 On ch=4 n=51 v=0
13056 On ch=4 n=53 v=88
13079 On ch=4 n=53 v=0
13080 On ch=4 n=56 v=86
13097 On ch=4 n=56 v=0
13104 On ch=4 n=48 v=74
13104 On ch=4 n=68 v=86
13116 On ch=4 n=48 v=0
13117 On ch=4 n=68 v=0
13128 On ch=4 n=48 v=72
13128 On ch=4 n=65 v=82
13142 On ch=4 n=65 v=0
13144 On ch=4 n=48 v=0
13152 On ch=4 n=48 v=65
13152 On ch=4 n=65 v=78
13164 On ch=4 n=65 v=0
13166 On ch=4 n=48 v=0
13176 On ch=4 n=56 v=76
13200 On ch=4 n=56 v=0
13224 On ch=4 n=68 v=86
13224 On ch=4 n=48 v=73
13235 On ch=4 n=68 v=0
13235 On ch=4 n=48 v=0
13248 On ch=4 n=55 v=88
13271 On ch=4 n=55 v=0
13272 On ch=4 n=59 v=86
13289 On ch=4 n=59 v=0
13296 On ch=4 n=50 v=74
13296 On ch=4 n=67 v=86
13308 On ch=4 n=50 v=0
13309 On ch=4 n=67 v=0
13320 On ch=4 n=50 v=72
13320 On ch=4 n=71 v=82
13334 On ch=4 n=71 v=0
13336 On ch=4 n=50 v=0
13344 On ch=4 n=50 v=65
13344 On ch=4 n=67 v=78
13356 On ch=4 n=67 v=0
13358 On ch=4 n=50 v=0
13368 On ch=4 n=59 v=76
13392 On ch=4 n=59 v=0
13416 On ch=4 n=67 v=86
13416 On ch=4 n=50 v=73
13427 On ch=4 n=67 v=0
13427 On ch=4 n=50 v=0
13464 On ch=4 n=55 v=80
13464 On ch=4 n=60 v=83
13474 On ch=4 n=55 v=0
13474 On ch=4 n=60 v=0
13488 On ch=4 n=51 v=99
13503 On ch=4 n=51 v=0
13512 On ch=4 n=63 v=85
13512 On ch=4 n=55 v=71
13521 On ch=4 n=55 v=0
13523 On ch=4 n=63 v=0
13536 On ch=4 n=60 v=88
13536 On ch=4 n=55 v=73
13545 On ch=4 n=55 v=0
13547 On ch=4 n=60 v=0
13560 On ch=4 n=48 v=90
13578 On ch=4 n=48 v=0
13584 On ch=4 n=63 v=86
13584 On ch=4 n=55 v=75
13593 On ch=4 n=63 v=0
13593 On ch=4 n=55 v=0
13608 On ch=4 n=60 v=85
13608 On ch=4 n=51 v=70
13622 On ch=4 n=60 v=0
13622 On ch=4 n=51 v=0
13632 On ch=4 n=48 v=94
13650 On ch=4 n=48 v=0
13656 On ch=4 n=55 v=58
13656 On ch=4 n=64 v=68
13662 On ch=4 n=64 v=0
13663 On ch=4 n=55 v=0
13680 On ch=4 n=60 v=88
13680 On ch=4 n=55 v=78
13697 On ch=4 n=60 v=0
13697 On ch=4 n=55 v=0
13704 On ch=4 n=52 v=88
13728 On ch=4 n=60 v=88
13728 On ch=4 n=55 v=73
13729 On ch=4 n=52 v=0
13743 On ch=4 n=60 v=0
13743 On ch=4 n=55 v=0
13752 On ch=4 n=52 v=94
13777 On ch=4 n=52 v=0
13800 On ch=4 n=60 v=85
13800 On ch=4 n=55 v=68
13813 On ch=4 n=60 v=0
13813 On ch=4 n=55 v=0
13824 On ch=4 n=53 v=88
13847 On ch=4 n=53 v=0
13848 On ch=4 n=56 v=86
13865 On ch=4 n=56 v=0
13872 On ch=4 n=48 v=74
13872 On ch=4 n=68 v=86
13884 On ch=4 n=48 v=0
13885 On ch=4 n=68 v=0
13896 On ch=4 n=48 v=72
13896 On ch=4 n=65 v=82
13910 On ch=4 n=65 v=0
13912 On ch=4 n=48 v=0
13920 On ch=4 n=48 v=65
13920 On ch=4 n=65 v=78
13932 On ch=4 n=65 v=0
13934 On ch=4 n=48 v=0
13944 On ch=4 n=56 v=76
13968 On ch=4 n=56 v=0
13992 On ch=4 n=68 v=86
13992 On ch=4 n=48 v=73
14003 On ch=4 n=68 v=0
14003 On ch=4 n=48 v=0
14040 On ch=4 n=53 v=80
14040 On ch=4 n=70 v=83
14050 On ch=4 n=53 v=0
14050 On ch=4 n=70 v=0
14064 On ch=4 n=50 v=99
14079 On ch=4 n=50 v=0
14088 On ch=4 n=62 v=85
14088 On ch=4 n=53 v=71
14097 On ch=4 n=53 v=0
14099 On ch=4 n=62 v=0
14112 On ch=4 n=70 v=88
14112 On ch=4 n=53 v=73
14121 On ch=4 n=53 v=0
14123 On ch=4 n=70 v=0
14136 On ch=4 n=58 v=90
14154 On ch=4 n=58 v=0
14160 On ch=4 n=62 v=86
14160 On ch=4 n=53 v=75
14169 On ch=4 n=62 v=0
14169 On ch=4 n=53 v=0
14184 On ch=4 n=70 v=85
14184 On ch=4 n=50 v=70
14198 On ch=4 n=70 v=0
14198 On ch=4 n=50 v=0
14208 On ch=4 n=51 v=94
14226 On ch=4 n=51 v=0
14232 On ch=4 n=58 v=58
14232 On ch=4 n=67 v=68
14238 On ch=4 n=67 v=0
14239 On ch=4 n=58 v=0
14256 On ch=4 n=63 v=88
14256 On ch=4 n=58 v=78
14273 On ch=4 n=63 v=0
14273 On ch=4 n=58 v=0
14280 On ch=4 n=55 v=88
14304 On ch=4 n=63 v=88
14304 On ch=4 n=58 v=73
14305 On ch=4 n=55 v=0
14319 On ch=4 n=63 v=0
14319 On ch=4 n=58 v=0
14328 On ch=4 n=55 v=94
14353 On ch=4 n=55 v=0
14376 On ch=4 n=63 v=85
14376 On ch=4 n=58 v=68
14389 On ch=4 n=63 v=0
14389 On ch=4 n=58 v=0
14400 On ch=4 n=56 v=94
14418 On ch=4 n=56 v=0
14424 On ch=4 n=51 v=58
14424 On ch=4 n=60 v=68
14430 On ch=4 n=60 v=0
14431 On ch=4 n=51 v=0
14448 On ch=4 n=68 v=88
14448 On ch=4 n=51 v=78
14465 On ch=4 n=68 v=0
14465 On ch=4 n=51 v=0
14472 On ch=4 n=48 v=88
14496 On ch=4 n=68 v=88
14496 On ch=4 n=51 v=73
14497 On ch=4 n=48 v=0
14511 On ch=4 n=68 v=0
14511 On ch=4 n=51 v=0
14520 On ch=4 n=48 v=94
14545 On ch=4 n=48 v=0
14568 On ch=4 n=68 v=85
14568 On ch=4 n=51 v=68
14581 On ch=4 n=68 v=0
14581 On ch=4 n=51 v=0
14592 On ch=4 n=56 v=94
14610 On ch=4 n=56 v=0
14616 On ch=4 n=48 v=58
14616 On ch=4 n=65 v=68
14622 On ch=4 n=65 v=0
14623 On ch=4 n=48 v=0
14640 On ch=4 n=68 v=88
14640 On ch=4 n=48 v=78
14657 On ch=4 n=68 v=0
14657 On ch=4 n=48 v=0
14664 On ch=4 n=53 v=88
14688 On ch=4 n=65 v=88
14688 On ch=4 n=48 v=73
14689 On ch=4 n=53 v=0
14703 On ch=4 n=65 v=0
14703 On ch=4 n=48 v=0
14712 On ch=4 n=56 v=94
14737 On ch=4 n=56 v=0
14760 On ch=4 n=68 v=85
14760 On ch=4 n=48 v=68
14773 On ch=4 n=68 v=0
14773 On ch=4 n=48 v=0
14808 On ch=4 n=50 v=80
14808 On ch=4 n=67 v=83
14818 On ch=4 n=50 v=0
14818 On ch=4 n=67 v=0
14832 On ch=4 n=59 v=99
14847 On ch=4 n=59 v=0
14856 On ch=4 n=67 v=85
14856 On ch=4 n=50 v=71
14865 On ch=4 n=50 v=0
14867 On ch=4 n=67 v=0
14880 On ch=4 n=71 v=88
14880 On ch=4 n=50 v=73
14889 On ch=4 n=50 v=0
14891 On ch=4 n=71 v=0
14904 On ch=4 n=55 v=90
14922 On ch=4 n=55 v=0
14928 On ch=4 n=71 v=86
14928 On ch=4 n=50 v=75
14937 On ch=4 n=71 v=0
14937 On ch=4 n=50 v=0
14952 On ch=4 n=67 v=85
14952 On ch=4 n=59 v=70
14966 On ch=4 n=67 v=0
14966 On ch=4 n=59 v=0
14976 On ch=4 n=51 v=94
14994 On ch=4 n=51 v=0
15000 On ch=4 n=55 v=58
15000 On ch=4 n=60 v=68
15006 On ch=4 n=60 v=0
15007 On ch=4 n=55 v=0
15024 On ch=4 n=63 v=88
15024 On ch=4 n=55 v=78
15041 On ch=4 n=63 v=0
15041 On ch=4 n=55 v=0
15048 On ch=4 n=48 v=88
15072 On ch=4 n=60 v=88
15072 On ch=4 n=55 v=73
15073 On ch=4 n=48 v=0
15087 On ch=4 n=60 v=0
15087 On ch=4 n=55 v=0
15096 On ch=4 n=51 v=94
15121 On ch=4 n=51 v=0
15144 On ch=4 n=63 v=85
15144 On ch=4 n=55 v=68
15157 On ch=4 n=63 v=0
15157 On ch=4 n=55 v=0
15192 On ch=4 n=55 v=80
15192 On ch=4 n=60 v=83
15202 On ch=4 n=55 v=0
15202 On ch=4 n=60 v=0
15216 On ch=4 n=51 v=99
15231 On ch=4 n=51 v=0
15240 On ch=4 n=63 v=85
15240 On ch=4 n=55 v=71
15249 On ch=4 n=55 v=0
15251 On ch=4 n=63 v=0
15264 On ch=4 n=60 v=88
15264 On ch=4 n=55 v=73
15273 On ch=4 n=55 v=0
15275 On ch=4 n=60 v=0
15288 On ch=4 n=48 v=90
15306 On ch=4 n=48 v=0
15312 On ch=4 n=63 v=86
15312 On ch=4 n=55 v=75
15321 On ch=4 n=63 v=0
15321 On ch=4 n=55 v=0
15336 On ch=4 n=60 v=85
15336 On ch=4 n=51 v=70
15350 On ch=4 n=60 v=0
15350 On ch=4 n=51 v=0
15360 On ch=4 n=48 v=88
15383 On ch=4 n=48 v=0
15384 On ch=4 n=51 v=86
15401 On ch=4 n=51 v=0
15408 On ch=4 n=55 v=74
15408 On ch=4 n=63 v=86
15420 On ch=4 n=55 v=0
15421 On ch=4 n=63 v=0
15432 On ch=4 n=55 v=72
15432 On ch=4 n=60 v=82
15446 On ch=4 n=60 v=0
15448 On ch=4 n=55 v=0
15456 On ch=4 n=55 v=65
15456 On ch=4 n=60 v=78
15468 On ch=4 n=60 v=0
15470 On ch=4 n=55 v=0
15480 On ch=4 n=51 v=76
15504 On ch=4 n=51 v=0
15528 On ch=4 n=63 v=86
15528 On ch=4 n=55 v=73
15539 On ch=4 n=63 v=0
15539 On ch=4 n=55 v=0
15552 On ch=4 n=56 v=94
15570 On ch=4 n=56 v=0
15576 On ch=4 n=48 v=58
15576 On ch=4 n=65 v=68
15582 On ch=4 n=65 v=0
15583 On ch=4 n=48 v=0
15600 On ch=4 n=68 v=88
15600 On ch=4 n=48 v=78
15617 On ch=4 n=68 v=0
15617 On ch=4 n=48 v=0
15624 On ch=4 n=53 v=88
15648 On ch=4 n=65 v=88
15648 On ch=4 n=48 v=73
15649 On ch=4 n=53 v=0
15663 On ch=4 n=65 v=0
15663 On ch=4 n=48 v=0
15672 On ch=4 n=56 v=94
15697 On ch=4 n=56 v=0
15720 On ch=4 n=68 v=85
15720 On ch=4 n=48 v=68
15733 On ch=4 n=68 v=0
15733 On ch=4 n=48 v=0
15744 On ch=4 n=55 v=88
15767 On ch=4 n=55 v=0
15768 On ch=4 n=59 v=86
15785 On ch=4 n=59 v=0
15792 On ch=4 n=50 v=74
15792 On ch=4 n=67 v=86
15804 On ch=4 n=50 v=0
15805 On ch=4 n=67 v=0
15816 On ch=4 n=50 v=72
15816 On ch=4 n=71 v=82
15830 On ch=4 n=71 v=0
15832 On ch=4 n=50 v=0
15840 On ch=4 n=50 v=65
15840 On ch=4 n=67 v=78
15852 On ch=4 n=67 v=0
15854 On ch=4 n=50 v=0
15864 On ch=4 n=59 v=76
15888 On ch=4 n=59 v=0
15912 On ch=4 n=67 v=86
15912 On ch=4 n=50 v=73
15923 On ch=4 n=67 v=0
15923 On ch=4 n=50 v=0
15936 On ch=4 n=48 v=88
15959 On ch=4 n=48 v=0
15960 On ch=4 n=51 v=86
15977 On ch=4 n=51 v=0
15984 On ch=4 n=55 v=74
15984 On ch=4 n=63 v=86
15996 On ch=4 n=55 v=0
15997 On ch=4 n=63 v=0
16008 On ch=4 n=55 v=72
16008 On ch=4 n=60 v=82
16022 On ch=4 n=60 v=0
16024 On ch=4 n=55 v=0
16032 On ch=4 n=55 v=65
16032 On ch=4 n=60 v=78
16044 On ch=4 n=60 v=0
16046 On ch=4 n=55 v=0
16056 On ch=4 n=51 v=76
16080 On ch=4 n=51 v=0
16104 On ch=4 n=63 v=86
16104 On ch=4 n=55 v=73
16115 On ch=4 n=63 v=0
16115 On ch=4 n=55 v=0
16152 On ch=4 n=58 v=80
16152 On ch=4 n=63 v=83
16162 On ch=4 n=58 v=0
16162 On ch=4 n=63 v=0
16176 On ch=4 n=55 v=99
16191 On ch=4 n=55 v=0
16200 On ch=4 n=63 v=85
16200 On ch=4 n=58 v=71
16209 On ch=4 n=58 v=0
16211 On ch=4 n=63 v=0
16224 On ch=4 n=67 v=88
16224 On ch=4 n=58 v=73
16233 On ch=4 n=58 v=0
16235 On ch=4 n=67 v=0
16248 On ch=4 n=51 v=90
16266 On ch=4 n=51 v=0
16272 On ch=4 n=67 v=86
16272 On ch=4 n=58 v=75
16281 On ch=4 n=67 v=0
16281 On ch=4 n=58 v=0
16296 On ch=4 n=63 v=85
16296 On ch=4 n=55 v=70
16310 On ch=4 n=63 v=0
16310 On ch=4 n=55 v=0
16320 On ch=4 n=53 v=88
16343 On ch=4 n=53 v=0
16344 On ch=4 n=56 v=86
16361 On ch=4 n=56 v=0
16368 On ch=4 n=48 v=74
16368 On ch=4 n=68 v=86
16380 On ch=4 n=48 v=0
16381 On ch=4 n=68 v=0
16392 On ch=4 n=48 v=72
16392 On ch=4 n=65 v=82
16406 On ch=4 n=65 v=0
16408 On ch=4 n=48 v=0
16416 On ch=4 n=48 v=65
16416 On ch=4 n=65 v=78
16428 On ch=4 n=65 v=0
16430 On ch=4 n=48 v=0
16440 On ch=4 n=56 v=76
16464 On ch=4 n=56 v=0
16488 On ch=4 n=68 v=86
16488 On ch=4 n=48 v=73
16499 On ch=4 n=68 v=0
16499 On ch=4 n=48 v=0
16536 On ch=4 n=53 v=80
16536 On ch=4 n=70 v=83
16546 On ch=4 n=53 v=0
16546 On ch=4 n=70 v=0
16560 On ch=4 n=50 v=99
16575 On ch=4 n=50 v=0
16584 On ch=4 n=62 v=85
16584 On ch=4 n=53 v=71
16593 On ch=4 n=53 v=0
16595 On ch=4 n=62 v=0
16608 On ch=4 n=70 v=88
16608 On ch=4 n=53 v=73
16617 On ch=4 n=53 v=0
16619 On ch=4 n=70 v=0
16632 On ch=4 n=58 v=90
16650 On ch=4 n=58 v=0
16656 On ch=4 n=62 v=86
16656 On ch=4 n=53 v=75
16665 On ch=4 n=62 v=0
16665 On ch=4 n=53 v=0
16680 On ch=4 n=70 v=85
16680 On ch=4 n=50 v=70
16694 On ch=4 n=70 v=0
16694 On ch=4 n=50 v=0
16704 On ch=4 n=51 v=94
16722 On ch=4 n=51 v=0
16728 On ch=4 n=58 v=58
16728 On ch=4 n=67 v=68
16734 On ch=4 n=67 v=0
16735 On ch=4 n=58 v=0
16752 On ch=4 n=63 v=88
16752 On ch=4 n=58 v=78
16769 On ch=4 n=63 v=0
16769 On ch=4 n=58 v=0
16776 On ch=4 n=55 v=88
16800 On ch=4 n=63 v=88
16800 On ch=4 n=58 v=73
16801 On ch=4 n=55 v=0
16815 On ch=4 n=63 v=0
16815 On ch=4 n=58 v=0
16824 On ch=4 n=55 v=94
16849 On ch=4 n=55 v=0
16872 On ch=4 n=63 v=85
16872 On ch=4 n=58 v=68
16885 On ch=4 n=63 v=0
16885 On ch=4 n=58 v=0
16896 On ch=4 n=51 v=94
16914 On ch=4 n=51 v=0
16920 On ch=4 n=58 v=58
16920 On ch=4 n=67 v=68
16926 On ch=4 n=67 v=0
16927 On ch=4 n=58 v=0
16944 On ch=4 n=63 v=88
16944 On ch=4 n=58 v=78
16961 On ch=4 n=63 v=0
16961 On ch=4 n=58 v=0
16968 On ch=4 n=55 v=88
16992 On ch=4 n=63 v=88
16992 On ch=4 n=58 v=73
16993 On ch=4 n=55 v=0
17007 On ch=4 n=63 v=0
17007 On ch=4 n=58 v=0
17016 On ch=4 n=55 v=94
17041 On ch=4 n=55 v=0
17064 On ch=4 n=63 v=85
17064 On ch=4 n=58 v=68
17077 On ch=4 n=63 v=0
17077 On ch=4 n=58 v=0
17112 On ch=4 n=53 v=80
17112 On ch=4 n=71 v=83
17122 On ch=4 n=53 v=0
17122 On ch=4 n=71 v=0
17136 On ch=4 n=50 v=99
17151 On ch=4 n=50 v=0
17160 On ch=4 n=62 v=85
17160 On ch=4 n=53 v=71
17169 On ch=4 n=53 v=0
17171 On ch=4 n=62 v=0
17184 On ch=4 n=71 v=88
17184 On ch=4 n=53 v=73
17193 On ch=4 n=53 v=0
17195 On ch=4 n=71 v=0
17208 On ch=4 n=59 v=90
17226 On ch=4 n=59 v=0
17232 On ch=4 n=62 v=86
17232 On ch=4 n=53 v=75
17241 On ch=4 n=62 v=0
17241 On ch=4 n=53 v=0
17256 On ch=4 n=71 v=85
17256 On ch=4 n=50 v=70
17270 On ch=4 n=71 v=0
17270 On ch=4 n=50 v=0
17280 On ch=4 n=53 v=88
17303 On ch=4 n=53 v=0
17304 On ch=4 n=56 v=86
17321 On ch=4 n=56 v=0
17328 On ch=4 n=59 v=74
17328 On ch=4 n=68 v=86
17340 On ch=4 n=59 v=0
17341 On ch=4 n=68 v=0
17352 On ch=4 n=53 v=72
17352 On ch=4 n=71 v=82
17366 On ch=4 n=71 v=0
17368 On ch=4 n=53 v=0
17376 On ch=4 n=53 v=65
17376 On ch=4 n=68 v=78
17388 On ch=4 n=68 v=0
17390 On ch=4 n=53 v=0
17400 On ch=4 n=59 v=76
17424 On ch=4 n=59 v=0
17448 On ch=4 n=68 v=86
17448 On ch=4 n=53 v=73
17459 On ch=4 n=68 v=0
17459 On ch=4 n=53 v=0
17472 On ch=4 n=51 v=94
17490 On ch=4 n=51 v=0
17496 On ch=4 n=55 v=58
17496 On ch=4 n=60 v=68
17502 On ch=4 n=60 v=0
17503 On ch=4 n=55 v=0
17520 On ch=4 n=63 v=88
17520 On ch=4 n=55 v=78
17537 On ch=4 n=63 v=0
17537 On ch=4 n=55 v=0
17544 On ch=4 n=48 v=88
17568 On ch=4 n=60 v=88
17568 On ch=4 n=55 v=73
17569 On ch=4 n=48 v=0
17583 On ch=4 n=60 v=0
17583 On ch=4 n=55 v=0
17592 On ch=4 n=51 v=94
17617 On ch=4 n=51 v=0
17640 On ch=4 n=63 v=85
17640 On ch=4 n=55 v=68
17653 On ch=4 n=63 v=0
17653 On ch=4 n=55 v=0
17688 On ch=4 n=55 v=80
17688 On ch=4 n=60 v=83
17698 On ch=4 n=55 v=0
17698 On ch=4 n=60 v=0
17712 On ch=4 n=51 v=99
17727 On ch=4 n=51 v=0
17736 On ch=4 n=63 v=85
17736 On ch=4 n=55 v=71
17745 On ch=4 n=55 v=0
17747 On ch=4 n=63 v=0
17760 On ch=4 n=60 v=88
17760 On ch=4 n=55 v=73
17769 On ch=4 n=55 v=0
17771 On ch=4 n=60 v=0
17784 On ch=4 n=48 v=90
17802 On ch=4 n=48 v=0
17808 On ch=4 n=63 v=86
17808 On ch=4 n=55 v=75
17817 On ch=4 n=63 v=0
17817 On ch=4 n=55 v=0
17832 On ch=4 n=60 v=85
17832 On ch=4 n=51 v=70
17846 On ch=4 n=60 v=0
17846 On ch=4 n=51 v=0
17856 On ch=4 n=56 v=94
17874 On ch=4 n=56 v=0
17880 On ch=4 n=48 v=58
17880 On ch=4 n=65 v=68
17886 On ch=4 n=65 v=0
17887 On ch=4 n=48 v=0
17904 On ch=4 n=68 v=88
17904 On ch=4 n=48 v=78
17921 On ch=4 n=68 v=0
17921 On ch=4 n=48 v=0
17928 On ch=4 n=53 v=88
17952 On ch=4 n=65 v=88
17952 On ch=4 n=48 v=73
17953 On ch=4 n=53 v=0
17967 On ch=4 n=65 v=0
17967 On ch=4 n=48 v=0
17976 On ch=4 n=56 v=94
18001 On ch=4 n=56 v=0
18024 On ch=4 n=68 v=85
18024 On ch=4 n=48 v=68
18037 On ch=4 n=68 v=0
18037 On ch=4 n=48 v=0
18048 On ch=4 n=55 v=88
18071 On ch=4 n=55 v=0
18072 On ch=4 n=59 v=86
18089 On ch=4 n=59 v=0
18096 On ch=4 n=50 v=74
18096 On ch=4 n=65 v=86
18108 On ch=4 n=50 v=0
18109 On ch=4 n=65 v=0
18120 On ch=4 n=50 v=72
18120 On ch=4 n=67 v=82
18134 On ch=4 n=67 v=0
18136 On ch=4 n=50 v=0
18144 On ch=4 n=53 v=65
18144 On ch=4 n=71 v=78
18156 On ch=4 n=71 v=0
18158 On ch=4 n=53 v=0
18168 On ch=4 n=55 v=76
18192 On ch=4 n=55 v=0
18216 On ch=4 n=71 v=86
18216 On ch=4 n=50 v=73
18227 On ch=4 n=71 v=0
18227 On ch=4 n=50 v=0
18240 On ch=4 n=51 v=94
18258 On ch=4 n=51 v=0
18264 On ch=4 n=55 v=58
18264 On ch=4 n=60 v=68
18270 On ch=4 n=60 v=0
18271 On ch=4 n=55 v=0
18288 On ch=4 n=63 v=88
18288 On ch=4 n=55 v=78
18305 On ch=4 n=63 v=0
18305 On ch=4 n=55 v=0
18312 On ch=4 n=48 v=88
18336 On ch=4 n=60 v=88
18336 On ch=4 n=55 v=73
18337 On ch=4 n=48 v=0
18351 On ch=4 n=60 v=0
18351 On ch=4 n=55 v=0
18360 On ch=4 n=51 v=94
18385 On ch=4 n=51 v=0
18408 On ch=4 n=63 v=85
18408 On ch=4 n=55 v=68
18421 On ch=4 n=63 v=0
18421 On ch=4 n=55 v=0
18456 On ch=4 n=48 v=80
18456 On ch=4 n=65 v=83
18466 On ch=4 n=48 v=0
18466 On ch=4 n=65 v=0
18480 On ch=4 n=56 v=99
18495 On ch=4 n=56 v=0
18504 On ch=4 n=68 v=85
18504 On ch=4 n=48 v=71
18513 On ch=4 n=48 v=0
18515 On ch=4 n=68 v=0
18528 On ch=4 n=65 v=88
18528 On ch=4 n=48 v=73
18537 On ch=4 n=48 v=0
18539 On ch=4 n=65 v=0
18552 On ch=4 n=53 v=90
18570 On ch=4 n=53 v=0
18576 On ch=4 n=68 v=86
18576 On ch=4 n=48 v=75
18585 On ch=4 n=68 v=0
18585 On ch=4 n=48 v=0
18600 On ch=4 n=65 v=85
18600 On ch=4 n=56 v=70
18614 On ch=4 n=65 v=0
18614 On ch=4 n=56 v=0
18624 On ch=4 n=50 v=94
18642 On ch=4 n=50 v=0
18648 On ch=4 n=53 v=58
18648 On ch=4 n=70 v=68
18654 On ch=4 n=70 v=0
18655 On ch=4 n=53 v=0
18672 On ch=4 n=62 v=88
18672 On ch=4 n=53 v=78
18689 On ch=4 n=62 v=0
18689 On ch=4 n=53 v=0
18696 On ch=4 n=58 v=88
18720 On ch=4 n=70 v=88
18720 On ch=4 n=53 v=73
18721 On ch=4 n=58 v=0
18735 On ch=4 n=70 v=0
18735 On ch=4 n=53 v=0
18744 On ch=4 n=50 v=94
18769 On ch=4 n=50 v=0
18792 On ch=4 n=62 v=85
18792 On ch=4 n=53 v=68
18805 On ch=4 n=62 v=0
18805 On ch=4 n=53 v=0
18840 On ch=4 n=58 v=80
18840 On ch=4 n=63 v=83
18850 On ch=4 n=58 v=0
18850 On ch=4 n=63 v=0
18864 On ch=4 n=55 v=99
18879 On ch=4 n=55 v=0
18888 On ch=4 n=63 v=85
18888 On ch=4 n=58 v=71
18897 On ch=4 n=58 v=0
18899 On ch=4 n=63 v=0
18912 On ch=4 n=67 v=88
18912 On ch=4 n=58 v=73
18921 On ch=4 n=58 v=0
18923 On ch=4 n=67 v=0
18936 On ch=4 n=51 v=90
18954 On ch=4 n=51 v=0
18960 On ch=4 n=67 v=86
18960 On ch=4 n=58 v=75
18969 On ch=4 n=67 v=0
18969 On ch=4 n=58 v=0
18984 On ch=4 n=63 v=85
18984 On ch=4 n=55 v=70
18998 On ch=4 n=63 v=0
18998 On ch=4 n=55 v=0
19008 On ch=4 n=56 v=94
19026 On ch=4 n=56 v=0
19032 On ch=4 n=51 v=58
19032 On ch=4 n=60 v=68
19038 On ch=4 n=60 v=0
19039 On ch=4 n=51 v=0
19056 On ch=4 n=68 v=88
19056 On ch=4 n=51 v=78
19073 On ch=4 n=68 v=0
19073 On ch=4 n=51 v=0
19080 On ch=4 n=48 v=88
19104 On ch=4 n=68 v=88
19104 On ch=4 n=51 v=73
19105 On ch=4 n=48 v=0
19119 On ch=4 n=68 v=0
19119 On ch=4 n=51 v=0
19128 On ch=4 n=48 v=94
19153 On ch=4 n=48 v=0
19176 On ch=4 n=68 v=85
19176 On ch=4 n=51 v=68
19189 On ch=4 n=68 v=0
19189 On ch=4 n=51 v=0
19224 On ch=4 n=48 v=80
19224 On ch=4 n=65 v=83
19234 On ch=4 n=48 v=0
19234 On ch=4 n=65 v=0
19248 On ch=4 n=56 v=99
19263 On ch=4 n=56 v=0
19272 On ch=4 n=68 v=85
19272 On ch=4 n=48 v=71
19281 On ch=4 n=48 v=0
19283 On ch=4 n=68 v=0
19296 On ch=4 n=65 v=88
19296 On ch=4 n=48 v=73
19305 On ch=4 n=48 v=0
19307 On ch=4 n=65 v=0
19320 On ch=4 n=53 v=90
19338 On ch=4 n=53 v=0
19344 On ch=4 n=68 v=86
19344 On ch=4 n=48 v=75
19353 On ch=4 n=68 v=0
19353 On ch=4 n=48 v=0
19368 On ch=4 n=65 v=85
19368 On ch=4 n=56 v=70
19382 On ch=4 n=65 v=0
19382 On ch=4 n=56 v=0
19392 On ch=4 n=55 v=94
19410 On ch=4 n=55 v=0
19416 On ch=4 n=50 v=58
19416 On ch=4 n=71 v=68
19422 On ch=4 n=71 v=0
19423 On ch=4 n=50 v=0
19440 On ch=4 n=67 v=88
19440 On ch=4 n=50 v=78
19457 On ch=4 n=67 v=0
19457 On ch=4 n=50 v=0
19464 On ch=4 n=59 v=88
19488 On ch=4 n=67 v=88
19488 On ch=4 n=50 v=73
19489 On ch=4 n=59 v=0
19503 On ch=4 n=67 v=0
19503 On ch=4 n=50 v=0
19512 On ch=4 n=59 v=94
19537 On ch=4 n=59 v=0
19560 On ch=4 n=67 v=85
19560 On ch=4 n=50 v=68
19573 On ch=4 n=67 v=0
19573 On ch=4 n=50 v=0
19584 On ch=4 n=51 v=94
19602 On ch=4 n=51 v=0
19608 On ch=4 n=55 v=58
19608 On ch=4 n=60 v=68
19614 On ch=4 n=60 v=0
19615 On ch=4 n=55 v=0
19632 On ch=4 n=63 v=88
19632 On ch=4 n=55 v=78
19649 On ch=4 n=63 v=0
19649 On ch=4 n=55 v=0
19656 On ch=4 n=48 v=88
19680 On ch=4 n=60 v=88
19680 On ch=4 n=55 v=73
19681 On ch=4 n=48 v=0
19695 On ch=4 n=60 v=0
19695 On ch=4 n=55 v=0
19704 On ch=4 n=51 v=94
19729 On ch=4 n=51 v=0
19752 On ch=4 n=63 v=85
19752 On ch=4 n=55 v=68
19765 On ch=4 n=63 v=0
19765 On ch=4 n=55 v=0
19800 On ch=4 n=55 v=80
19800 On ch=4 n=60 v=83
19810 On ch=4 n=55 v=0
19810 On ch=4 n=60 v=0
19824 On ch=4 n=52 v=99
19839 On ch=4 n=52 v=0
19848 On ch=4 n=60 v=85
19848 On ch=4 n=55 v=71
19857 On ch=4 n=55 v=0
19859 On ch=4 n=60 v=0
19872 On ch=4 n=64 v=88
19872 On ch=4 n=55 v=73
19881 On ch=4 n=55 v=0
19883 On ch=4 n=64 v=0
19896 On ch=4 n=48 v=90
19914 On ch=4 n=48 v=0
19920 On ch=4 n=64 v=86
19920 On ch=4 n=55 v=75
19929 On ch=4 n=64 v=0
19929 On ch=4 n=55 v=0
19944 On ch=4 n=60 v=85
19944 On ch=4 n=52 v=70
19958 On ch=4 n=60 v=0
19958 On ch=4 n=52 v=0
19968 On ch=4 n=53 v=88
19991 On ch=4 n=53 v=0
19992 On ch=4 n=56 v=86
20009 On ch=4 n=56 v=0
20016 On ch=4 n=48 v=74
20016 On ch=4 n=68 v=86
20028 On ch=4 n=48 v=0
20029 On ch=4 n=68 v=0
20040 On ch=4 n=48 v=72
20040 On ch=4 n=65 v=82
20054 On ch=4 n=65 v=0
20056 On ch=4 n=48 v=0
20064 On ch=4 n=48 v=65
20064 On ch=4 n=65 v=78
20076 On ch=4 n=65 v=0
20078 On ch=4 n=48 v=0
20088 On ch=4 n=56 v=76
20112 On ch=4 n=56 v=0
20136 On ch=4 n=68 v=86
20136 On ch=4 n=48 v=73
20147 On ch=4 n=68 v=0
20147 On ch=4 n=48 v=0
20160 On ch=4 n=50 v=94
20178 On ch=4 n=50 v=0
20184 On ch=4 n=53 v=58
20184 On ch=4 n=70 v=68
20190 On ch=4 n=70 v=0
20191 On ch=4 n=53 v=0
20208 On ch=4 n=62 v=88
20208 On ch=4 n=53 v=78
20225 On ch=4 n=62 v=0
20225 On ch=4 n=53 v=0
20232 On ch=4 n=58 v=88
20256 On ch=4 n=70 v=88
20256 On ch=4 n=53 v=73
20257 On ch=4 n=58 v=0
20271 On ch=4 n=70 v=0
20271 On ch=4 n=53 v=0
20280 On ch=4 n=50 v=94
20305 On ch=4 n=50 v=0
20328 On ch=4 n=62 v=85
20328 On ch=4 n=53 v=68
20341 On ch=4 n=62 v=0
20341 On ch=4 n=53 v=0
20352 On ch=4 n=51 v=94
20370 On ch=4 n=51 v=0
20376 On ch=4 n=58 v=58
20376 On ch=4 n=67 v=68
20382 On ch=4 n=67 v=0
20383 On ch=4 n=58 v=0
20400 On ch=4 n=63 v=88
20400 On ch=4 n=58 v=78
20417 On ch=4 n=63 v=0
20417 On ch=4 n=58 v=0
20424 On ch=4 n=55 v=88
20448 On ch=4 n=63 v=88
20448 On ch=4 n=58 v=73
20449 On ch=4 n=55 v=0
20463 On ch=4 n=63 v=0
20463 On ch=4 n=58 v=0
20472 On ch=4 n=55 v=94
20497 On ch=4 n=55 v=0
20520 On ch=4 n=63 v=85
20520 On ch=4 n=58 v=68
20533 On ch=4 n=63 v=0
20533 On ch=4 n=58 v=0
20544 On ch=4 n=56 v=88
20567 On ch=4 n=56 v=0
20568 On ch=4 n=51 v=86
20585 On ch=4 n=51 v=0
20592 On ch=4 n=48 v=74
20592 On ch=4 n=68 v=86
20604 On ch=4 n=48 v=0
20605 On ch=4 n=68 v=0
20616 On ch=4 n=51 v=72
20616 On ch=4 n=60 v=82
20630 On ch=4 n=60 v=0
20632 On ch=4 n=51 v=0
20640 On ch=4 n=51 v=65
20640 On ch=4 n=68 v=78
20652 On ch=4 n=68 v=0
20654 On ch=4 n=51 v=0
20664 On ch=4 n=48 v=76
20688 On ch=4 n=48 v=0
20712 On ch=4 n=68 v=86
20712 On ch=4 n=51 v=73
20723 On ch=4 n=68 v=0
20723 On ch=4 n=51 v=0
20736 On ch=4 n=53 v=88
20759 On ch=4 n=53 v=0
20760 On ch=4 n=56 v=86
20777 On ch=4 n=56 v=0
20784 On ch=4 n=48 v=74
20784 On ch=4 n=68 v=86
20796 On ch=4 n=48 v=0
20797 On ch=4 n=68 v=0
20808 On ch=4 n=48 v=72
20808 On ch=4 n=65 v=82
20822 On ch=4 n=65 v=0
20824 On ch=4 n=48 v=0
20832 On ch=4 n=48 v=65
20832 On ch=4 n=65 v=78
20844 On ch=4 n=65 v=0
20846 On ch=4 n=48 v=0
20856 On ch=4 n=56 v=76
20880 On ch=4 n=56 v=0
20904 On ch=4 n=68 v=86
20904 On ch=4 n=48 v=73
20915 On ch=4 n=68 v=0
20915 On ch=4 n=48 v=0
20928 On ch=4 n=55 v=88
20951 On ch=4 n=55 v=0
20952 On ch=4 n=59 v=86
20969 On ch=4 n=59 v=0
20976 On ch=4 n=50 v=74
20976 On ch=4 n=67 v=86
20988 On ch=4 n=50 v=0
20989 On ch=4 n=67 v=0
21000 On ch=4 n=50 v=72
21000 On ch=4 n=71 v=82
21014 On ch=4 n=71 v=0
21016 On ch=4 n=50 v=0
21024 On ch=4 n=50 v=65
21024 On ch=4 n=67 v=78
21036 On ch=4 n=67 v=0
21038 On ch=4 n=50 v=0
21048 On ch=4 n=59 v=76
21072 On ch=4 n=59 v=0
21096 On ch=4 n=67 v=86
21096 On ch=4 n=50 v=73
21107 On ch=4 n=67 v=0
21107 On ch=4 n=50 v=0
21120 On ch=4 n=48 v=88
21143 On ch=4 n=48 v=0
21144 On ch=4 n=51 v=86
21161 On ch=4 n=51 v=0
21168 On ch=4 n=55 v=74
21168 On ch=4 n=63 v=86
21180 On ch=4 n=55 v=0
21181 On ch=4 n=63 v=0
21192 On ch=4 n=55 v=72
21192 On ch=4 n=60 v=82
21206 On ch=4 n=60 v=0
21208 On ch=4 n=55 v=0
21216 On ch=4 n=55 v=65
21216 On ch=4 n=60 v=78
21228 On ch=4 n=60 v=0
21230 On ch=4 n=55 v=0
21240 On ch=4 n=51 v=76
21264 On ch=4 n=51 v=0
21288 On ch=4 n=63 v=86
21288 On ch=4 n=55 v=73
21299 On ch=4 n=63 v=0
21299 On ch=4 n=55 v=0
21312 On ch=4 n=48 v=88
21335 On ch=4 n=48 v=0
21336 On ch=4 n=51 v=86
21353 On ch=4 n=51 v=0
21360 On ch=4 n=55 v=74
21360 On ch=4 n=63 v=86
21372 On ch=4 n=55 v=0
21373 On ch=4 n=63 v=0
21384 On ch=4 n=55 v=72
21384 On ch=4 n=60 v=82
21398 On ch=4 n=60 v=0
21400 On ch=4 n=55 v=0
21408 On ch=4 n=55 v=65
21408 On ch=4 n=60 v=78
21420 On ch=4 n=60 v=0
21422 On ch=4 n=55 v=0
21432 On ch=4 n=51 v=76
21456 On ch=4 n=51 v=0
21480 On ch=4 n=63 v=86
21480 On ch=4 n=55 v=73
21491 On ch=4 n=63 v=0
21491 On ch=4 n=55 v=0
21528 On ch=4 n=55 v=80
21528 On ch=4 n=60 v=83
21538 On ch=4 n=55 v=0
21538 On ch=4 n=60 v=0
21552 On ch=4 n=51 v=99
21567 On ch=4 n=51 v=0
21576 On ch=4 n=63 v=85
21576 On ch=4 n=55 v=71
21585 On ch=4 n=55 v=0
21587 On ch=4 n=63 v=0
21600 On ch=4 n=60 v=88
21600 On ch=4 n=55 v=73
21609 On ch=4 n=55 v=0
21611 On ch=4 n=60 v=0
21624 On ch=4 n=48 v=90
21642 On ch=4 n=48 v=0
21648 On ch=4 n=63 v=86
21648 On ch=4 n=55 v=75
21657 On ch=4 n=63 v=0
21657 On ch=4 n=55 v=0
21672 On ch=4 n=60 v=85
21672 On ch=4 n=51 v=70
21686 On ch=4 n=60 v=0
21686 On ch=4 n=51 v=0
21696 On ch=4 n=56 v=94
21714 On ch=4 n=56 v=0
21720 On ch=4 n=48 v=58
21720 On ch=4 n=65 v=68
21726 On ch=4 n=65 v=0
21727 On ch=4 n=48 v=0
21744 On ch=4 n=68 v=88
21744 On ch=4 n=48 v=78
21761 On ch=4 n=68 v=0
21761 On ch=4 n=48 v=0
21768 On ch=4 n=53 v=88
21792 On ch=4 n=65 v=88
21792 On ch=4 n=48 v=73
21793 On ch=4 n=53 v=0
21807 On ch=4 n=65 v=0
21807 On ch=4 n=48 v=0
21816 On ch=4 n=56 v=94
21841 On ch=4 n=56 v=0
21864 On ch=4 n=68 v=85
21864 On ch=4 n=48 v=68
21877 On ch=4 n=68 v=0
21877 On ch=4 n=48 v=0
21912 On ch=4 n=50 v=80
21912 On ch=4 n=67 v=83
21922 On ch=4 n=50 v=0
21922 On ch=4 n=67 v=0
21936 On ch=4 n=59 v=99
21951 On ch=4 n=59 v=0
21960 On ch=4 n=67 v=85
21960 On ch=4 n=50 v=71
21969 On ch=4 n=50 v=0
21971 On ch=4 n=67 v=0
21984 On ch=4 n=71 v=88
21984 On ch=4 n=50 v=73
21993 On ch=4 n=50 v=0
21995 On ch=4 n=71 v=0
22008 On ch=4 n=55 v=90
22026 On ch=4 n=55 v=0
22032 On ch=4 n=71 v=86
22032 On ch=4 n=50 v=75
22041 On ch=4 n=71 v=0
22041 On ch=4 n=50 v=0
22056 On ch=4 n=67 v=85
22056 On ch=4 n=59 v=70
22070 On ch=4 n=67 v=0
22070 On ch=4 n=59 v=0
22080 On ch=4 n=51 v=94
22098 On ch=4 n=51 v=0
22104 On ch=4 n=55 v=58
22104 On ch=4 n=60 v=68
22110 On ch=4 n=60 v=0
22111 On ch=4 n=55 v=0
22128 On ch=4 n=63 v=88
22128 On ch=4 n=55 v=78
22145 On ch=4 n=63 v=0
22145 On ch=4 n=55 v=0
22152 On ch=4 n=48 v=88
22176 On ch=4 n=60 v=88
22176 On ch=4 n=55 v=73
22177 On ch=4 n=48 v=0
22191 On ch=4 n=60 v=0
22191 On ch=4 n=55 v=0
22200 On ch=4 n=51 v=94
22225 On ch=4 n=51 v=0
22248 On ch=4 n=63 v=85
22248 On ch=4 n=55 v=68
22261 On ch=4 n=63 v=0
22261 On ch=4 n=55 v=0
22272 On ch=4 n=51 v=88
22295 On ch=4 n=51 v=0
22296 On ch=4 n=55 v=86
22313 On ch=4 n=55 v=0
22320 On ch=4 n=58 v=74
22320 On ch=4 n=63 v=86
22332 On ch=4 n=58 v=0
22333 On ch=4 n=63 v=0
22344 On ch=4 n=58 v=72
22344 On ch=4 n=67 v=82
22358 On ch=4 n=67 v=0
22360 On ch=4 n=58 v=0
22368 On ch=4 n=58 v=65
22368 On ch=4 n=63 v=78
22380 On ch=4 n=63 v=0
22382 On ch=4 n=58 v=0
22392 On ch=4 n=55 v=76
22416 On ch=4 n=55 v=0
22440 On ch=4 n=63 v=86
22440 On ch=4 n=58 v=73
22451 On ch=4 n=63 v=0
22451 On ch=4 n=58 v=0
22464 On ch=4 n=53 v=88
22487 On ch=4 n=53 v=0
22488 On ch=4 n=56 v=86
22505 On ch=4 n=56 v=0
22512 On ch=4 n=48 v=74
22512 On ch=4 n=68 v=86
22524 On ch=4 n=48 v=0
22525 On ch=4 n=68 v=0
22536 On ch=4 n=48 v=72
22536 On ch=4 n=65 v=82
22550 On ch=4 n=65 v=0
22552 On ch=4 n=48 v=0
22560 On ch=4 n=48 v=65
22560 On ch=4 n=65 v=78
22572 On ch=4 n=65 v=0
22574 On ch=4 n=48 v=0
22584 On ch=4 n=56 v=76
22608 On ch=4 n=56 v=0
22632 On ch=4 n=68 v=86
22632 On ch=4 n=48 v=73
22643 On ch=4 n=68 v=0
22643 On ch=4 n=48 v=0
22656 On ch=4 n=58 v=88
22679 On ch=4 n=58 v=0
22680 On ch=4 n=50 v=86
22697 On ch=4 n=50 v=0
22704 On ch=4 n=53 v=74
22704 On ch=4 n=62 v=86
22716 On ch=4 n=53 v=0
22717 On ch=4 n=62 v=0
22728 On ch=4 n=53 v=72
22728 On ch=4 n=70 v=82
22742 On ch=4 n=70 v=0
22744 On ch=4 n=53 v=0
22752 On ch=4 n=53 v=65
22752 On ch=4 n=70 v=78
22764 On ch=4 n=70 v=0
22766 On ch=4 n=53 v=0
22776 On ch=4 n=50 v=76
22800 On ch=4 n=50 v=0
22824 On ch=4 n=62 v=86
22824 On ch=4 n=53 v=73
22835 On ch=4 n=62 v=0
22835 On ch=4 n=53 v=0
22848 On ch=4 n=51 v=88
22871 On ch=4 n=51 v=0
22872 On ch=4 n=55 v=86
22889 On ch=4 n=55 v=0
22896 On ch=4 n=58 v=74
22896 On ch=4 n=63 v=86
22908 On ch=4 n=58 v=0
22909 On ch=4 n=63 v=0
22920 On ch=4 n=58 v=72
22920 On ch=4 n=67 v=82
22934 On ch=4 n=67 v=0
22936 On ch=4 n=58 v=0
22944 On ch=4 n=58 v=65
22944 On ch=4 n=63 v=78
22956 On ch=4 n=63 v=0
22958 On ch=4 n=58 v=0
22968 On ch=4 n=55 v=76
22992 On ch=4 n=55 v=0
23016 On ch=4 n=63 v=86
23016 On ch=4 n=58 v=73
23027 On ch=4 n=63 v=0
23027 On ch=4 n=58 v=0
23040 On ch=4 n=51 v=88
23063 On ch=4 n=51 v=0
23064 On ch=4 n=55 v=86
23081 On ch=4 n=55 v=0
23088 On ch=4 n=58 v=74
23088 On ch=4 n=63 v=86
23100 On ch=4 n=58 v=0
23101 On ch=4 n=63 v=0
23112 On ch=4 n=58 v=72
23112 On ch=4 n=67 v=82
23126 On ch=4 n=67 v=0
23128 On ch=4 n=58 v=0
23136 On ch=4 n=58 v=65
23136 On ch=4 n=63 v=78
23148 On ch=4 n=63 v=0
23150 On ch=4 n=58 v=0
23160 On ch=4 n=55 v=76
23184 On ch=4 n=55 v=0
23208 On ch=4 n=63 v=86
23208 On ch=4 n=58 v=73
23219 On ch=4 n=63 v=0
23219 On ch=4 n=58 v=0
23232 On ch=4 n=59 v=88
23255 On ch=4 n=59 v=0
23256 On ch=4 n=50 v=86
23273 On ch=4 n=50 v=0
23280 On ch=4 n=53 v=74
23280 On ch=4 n=62 v=86
23292 On ch=4 n=53 v=0
23293 On ch=4 n=62 v=0
23304 On ch=4 n=53 v=72
23304 On ch=4 n=71 v=82
23318 On ch=4 n=71 v=0
23320 On ch=4 n=53 v=0
23328 On ch=4 n=53 v=65
23328 On ch=4 n=71 v=78
23340 On ch=4 n=71 v=0
23342 On ch=4 n=53 v=0
23352 On ch=4 n=50 v=76
23376 On ch=4 n=50 v=0
23400 On ch=4 n=62 v=86
23400 On ch=4 n=53 v=73
23411 On ch=4 n=62 v=0
23411 On ch=4 n=53 v=0
23424 On ch=4 n=53 v=88
23447 On ch=4 n=53 v=0
23448 On ch=4 n=56 v=86
23465 On ch=4 n=56 v=0
23472 On ch=4 n=59 v=74
23472 On ch=4 n=68 v=86
23484 On ch=4 n=59 v=0
23485 On ch=4 n=68 v=0
23496 On ch=4 n=53 v=72
23496 On ch=4 n=71 v=82
23510 On ch=4 n=71 v=0
23512 On ch=4 n=53 v=0
23520 On ch=4 n=53 v=65
23520 On ch=4 n=68 v=78
23532 On ch=4 n=68 v=0
23534 On ch=4 n=53 v=0
23544 On ch=4 n=59 v=76
23568 On ch=4 n=59 v=0
23592 On ch=4 n=68 v=86
23592 On ch=4 n=53 v=73
23603 On ch=4 n=68 v=0
23603 On ch=4 n=53 v=0
23616 On ch=4 n=48 v=88
23639 On ch=4 n=48 v=0
23640 On ch=4 n=51 v=86
23657 On ch=4 n=51 v=0
23664 On ch=4 n=55 v=74
23664 On ch=4 n=63 v=86
23676 On ch=4 n=55 v=0
23677 On ch=4 n=63 v=0
23688 On ch=4 n=55 v=72
23688 On ch=4 n=60 v=82
23702 On ch=4 n=60 v=0
23704 On ch=4 n=55 v=0
23712 On ch=4 n=55 v=65
23712 On ch=4 n=60 v=78
23724 On ch=4 n=60 v=0
23726 On ch=4 n=55 v=0
23736 On ch=4 n=51 v=76
23760 On ch=4 n=51 v=0
23784 On ch=4 n=63 v=86
23784 On ch=4 n=55 v=73
23795 On ch=4 n=63 v=0
23795 On ch=4 n=55 v=0
23832 On ch=4 n=55 v=80
23832 On ch=4 n=60 v=83
23842 On ch=4 n=55 v=0
23842 On ch=4 n=60 v=0
23856 On ch=4 n=51 v=99
23871 On ch=4 n=51 v=0
23880 On ch=4 n=63 v=85
23880 On ch=4 n=55 v=71
23889 On ch=4 n=55 v=0
23891 On ch=4 n=63 v=0
23904 On ch=4 n=60 v=88
23904 On ch=4 n=55 v=73
23913 On ch=4 n=55 v=0
23915 On ch=4 n=60 v=0
23928 On ch=4 n=48 v=90
23946 On ch=4 n=48 v=0
23952 On ch=4 n=63 v=86
23952 On ch=4 n=55 v=75
23961 On ch=4 n=63 v=0
23961 On ch=4 n=55 v=0
23976 On ch=4 n=60 v=85
23976 On ch=4 n=51 v=70
23990 On ch=4 n=60 v=0
23990 On ch=4 n=51 v=0
24000 On ch=4 n=56 v=94
24018 On ch=4 n=56 v=0
24024 On ch=4 n=48 v=58
24024 On ch=4 n=65 v=68
24030 On ch=4 n=65 v=0
24031 On ch=4 n=48 v=0
24048 On ch=4 n=68 v=88
24048 On ch=4 n=48 v=78
24065 On ch=4 n=68 v=0
24065 On ch=4 n=48 v=0
24072 On ch=4 n=53 v=88
24096 On ch=4 n=65 v=88
24096 On ch=4 n=48 v=73
24097 On ch=4 n=53 v=0
24111 On ch=4 n=65 v=0
24111 On ch=4 n=48 v=0
24120 On ch=4 n=56 v=94
24145 On ch=4 n=56 v=0
24168 On ch=4 n=68 v=85
24168 On ch=4 n=48 v=68
24181 On ch=4 n=68 v=0
24181 On ch=4 n=48 v=0
24192 On ch=4 n=55 v=88
24215 On ch=4 n=55 v=0
24216 On ch=4 n=59 v=86
24233 On ch=4 n=59 v=0
24240 On ch=4 n=50 v=74
24240 On ch=4 n=65 v=86
24252 On ch=4 n=50 v=0
24253 On ch=4 n=65 v=0
24264 On ch=4 n=50 v=72
24264 On ch=4 n=67 v=82
24278 On ch=4 n=67 v=0
24280 On ch=4 n=50 v=0
24288 On ch=4 n=53 v=65
24288 On ch=4 n=71 v=78
24300 On ch=4 n=71 v=0
24302 On ch=4 n=53 v=0
24312 On ch=4 n=55 v=76
24336 On ch=4 n=55 v=0
24360 On ch=4 n=71 v=86
24360 On ch=4 n=50 v=73
24371 On ch=4 n=71 v=0
24371 On ch=4 n=50 v=0
24384 On ch=4 n=48 v=88
24407 On ch=4 n=48 v=0
24408 On ch=4 n=51 v=86
24425 On ch=4 n=51 v=0
24432 On ch=4 n=55 v=74
24432 On ch=4 n=63 v=86
24444 On ch=4 n=55 v=0
24445 On ch=4 n=63 v=0
24456 On ch=4 n=55 v=72
24456 On ch=4 n=60 v=82
24470 On ch=4 n=60 v=0
24472 On ch=4 n=55 v=0
24480 On ch=4 n=55 v=65
24480 On ch=4 n=60 v=78
24492 On ch=4 n=60 v=0
24494 On ch=4 n=55 v=0
24504 On ch=4 n=51 v=76
24528 On ch=4 n=51 v=0
24552 On ch=4 n=63 v=86
24552 On ch=4 n=55 v=73
24563 On ch=4 n=63 v=0
24563 On ch=4 n=55 v=0
24576 On ch=4 n=53 v=88
24599 On ch=4 n=53 v=0
24600 On ch=4 n=56 v=86
24617 On ch=4 n=56 v=0
24624 On ch=4 n=48 v=74
24624 On ch=4 n=68 v=86
24636 On ch=4 n=48 v=0
24637 On ch=4 n=68 v=0
24648 On ch=4 n=48 v=72
24648 On ch=4 n=65 v=82
24662 On ch=4 n=65 v=0
24664 On ch=4 n=48 v=0
24672 On ch=4 n=48 v=65
24672 On ch=4 n=65 v=78
24684 On ch=4 n=65 v=0
24686 On ch=4 n=48 v=0
24696 On ch=4 n=56 v=76
24720 On ch=4 n=56 v=0
24744 On ch=4 n=68 v=86
24744 On ch=4 n=48 v=73
24755 On ch=4 n=68 v=0
24755 On ch=4 n=48 v=0
24768 On ch=4 n=58 v=88
24791 On ch=4 n=58 v=0
24792 On ch=4 n=50 v=86
24809 On ch=4 n=50 v=0
24816 On ch=4 n=53 v=74
24816 On ch=4 n=62 v=86
24828 On ch=4 n=53 v=0
24829 On ch=4 n=62 v=0
24840 On ch=4 n=53 v=72
24840 On ch=4 n=70 v=82
24854 On ch=4 n=70 v=0
24856 On ch=4 n=53 v=0
24864 On ch=4 n=53 v=65
24864 On ch=4 n=70 v=78
24876 On ch=4 n=70 v=0
24878 On ch=4 n=53 v=0
24888 On ch=4 n=50 v=76
24912 On ch=4 n=50 v=0
24936 On ch=4 n=62 v=86
24936 On ch=4 n=53 v=73
24947 On ch=4 n=62 v=0
24947 On ch=4 n=53 v=0
24960 On ch=4 n=51 v=88
24983 On ch=4 n=51 v=0
24984 On ch=4 n=55 v=86
25001 On ch=4 n=55 v=0
25008 On ch=4 n=58 v=74
25008 On ch=4 n=63 v=86
25020 On ch=4 n=58 v=0
25021 On ch=4 n=63 v=0
25032 On ch=4 n=58 v=72
25032 On ch=4 n=67 v=82
25046 On ch=4 n=67 v=0
25048 On ch=4 n=58 v=0
25056 On ch=4 n=58 v=65
25056 On ch=4 n=63 v=78
25068 On ch=4 n=63 v=0
25070 On ch=4 n=58 v=0
25080 On ch=4 n=55 v=76
25104 On ch=4 n=55 v=0
25128 On ch=4 n=63 v=86
25128 On ch=4 n=58 v=73
25139 On ch=4 n=63 v=0
25139 On ch=4 n=58 v=0
25152 On ch=4 n=56 v=94
25170 On ch=4 n=56 v=0
25176 On ch=4 n=51 v=58
25176 On ch=4 n=60 v=68
25182 On ch=4 n=60 v=0
25183 On ch=4 n=51 v=0
25200 On ch=4 n=68 v=88
25200 On ch=4 n=51 v=78
25217 On ch=4 n=68 v=0
25217 On ch=4 n=51 v=0
25224 On ch=4 n=48 v=88
25248 On ch=4 n=68 v=88
25248 On ch=4 n=51 v=73
25249 On ch=4 n=48 v=0
25263 On ch=4 n=68 v=0
25263 On ch=4 n=51 v=0
25272 On ch=4 n=48 v=94
25297 On ch=4 n=48 v=0
25320 On ch=4 n=68 v=85
25320 On ch=4 n=51 v=68
25333 On ch=4 n=68 v=0
25333 On ch=4 n=51 v=0
25368 On ch=4 n=48 v=80
25368 On ch=4 n=65 v=83
25378 On ch=4 n=48 v=0
25378 On ch=4 n=65 v=0
25392 On ch=4 n=56 v=99
25407 On ch=4 n=56 v=0
25416 On ch=4 n=68 v=85
25416 On ch=4 n=48 v=71
25425 On ch=4 n=48 v=0
25427 On ch=4 n=68 v=0
25440 On ch=4 n=65 v=88
25440 On ch=4 n=48 v=73
25449 On ch=4 n=48 v=0
25451 On ch=4 n=65 v=0
25464 On ch=4 n=53 v=90
25482 On ch=4 n=53 v=0
25488 On ch=4 n=68 v=86
25488 On ch=4 n=48 v=75
25497 On ch=4 n=68 v=0
25497 On ch=4 n=48 v=0
25512 On ch=4 n=65 v=85
25512 On ch=4 n=56 v=70
25526 On ch=4 n=65 v=0
25526 On ch=4 n=56 v=0
25536 On ch=4 n=55 v=88
25559 On ch=4 n=55 v=0
25560 On ch=4 n=59 v=86
25577 On ch=4 n=59 v=0
25584 On ch=4 n=50 v=74
25584 On ch=4 n=67 v=86
25596 On ch=4 n=50 v=0
25597 On ch=4 n=67 v=0
25608 On ch=4 n=50 v=72
25608 On ch=4 n=71 v=82
25622 On ch=4 n=71 v=0
25624 On ch=4 n=50 v=0
25632 On ch=4 n=50 v=65
25632 On ch=4 n=67 v=78
25644 On ch=4 n=67 v=0
25646 On ch=4 n=50 v=0
25656 On ch=4 n=59 v=76
25680 On ch=4 n=59 v=0
25704 On ch=4 n=67 v=86
25704 On ch=4 n=50 v=73
25715 On ch=4 n=67 v=0
25715 On ch=4 n=50 v=0
25728 On ch=4 n=48 v=88
25751 On ch=4 n=48 v=0
25752 On ch=4 n=51 v=86
25769 On ch=4 n=51 v=0
25776 On ch=4 n=55 v=74
25776 On ch=4 n=63 v=86
25788 On ch=4 n=55 v=0
25789 On ch=4 n=63 v=0
25800 On ch=4 n=55 v=72
25800 On ch=4 n=60 v=82
25814 On ch=4 n=60 v=0
25816 On ch=4 n=55 v=0
25824 On ch=4 n=55 v=65
25824 On ch=4 n=60 v=78
25836 On ch=4 n=60 v=0
25838 On ch=4 n=55 v=0
25848 On ch=4 n=51 v=76
25872 On ch=4 n=51 v=0
25896 On ch=4 n=63 v=86
25896 On ch=4 n=55 v=73
25907 On ch=4 n=63 v=0
25907 On ch=4 n=55 v=0
25920 On ch=4 n=48 v=94
25938 On ch=4 n=48 v=0
25944 On ch=4 n=55 v=58
25944 On ch=4 n=64 v=68
25950 On ch=4 n=64 v=0
25951 On ch=4 n=55 v=0
25968 On ch=4 n=60 v=88
25968 On ch=4 n=55 v=78
25985 On ch=4 n=60 v=0
25985 On ch=4 n=55 v=0
25992 On ch=4 n=52 v=88
26016 On ch=4 n=60 v=88
26016 On ch=4 n=55 v=73
26017 On ch=4 n=52 v=0
26031 On ch=4 n=60 v=0
26031 On ch=4 n=55 v=0
26040 On ch=4 n=52 v=94
26065 On ch=4 n=52 v=0
26088 On ch=4 n=60 v=85
26088 On ch=4 n=55 v=68
26101 On ch=4 n=60 v=0
26101 On ch=4 n=55 v=0
26112 On ch=4 n=56 v=94
26130 On ch=4 n=56 v=0
26136 On ch=4 n=48 v=58
26136 On ch=4 n=65 v=68
26142 On ch=4 n=65 v=0
26143 On ch=4 n=48 v=0
26160 On ch=4 n=68 v=88
26160 On ch=4 n=48 v=78
26177 On ch=4 n=68 v=0
26177 On ch=4 n=48 v=0
26184 On ch=4 n=53 v=88
26208 On ch=4 n=65 v=88
26208 On ch=4 n=48 v=73
26209 On ch=4 n=53 v=0
26223 On ch=4 n=65 v=0
26223 On ch=4 n=48 v=0
26232 On ch=4 n=56 v=94
26257 On ch=4 n=56 v=0
26280 On ch=4 n=68 v=85
26280 On ch=4 n=48 v=68
26293 On ch=4 n=68 v=0
26293 On ch=4 n=48 v=0
26328 On ch=4 n=53 v=80
26328 On ch=4 n=70 v=83
26338 On ch=4 n=53 v=0
26338 On ch=4 n=70 v=0
26352 On ch=4 n=50 v=99
26367 On ch=4 n=50 v=0
26376 On ch=4 n=62 v=85
26376 On ch=4 n=53 v=71
26385 On ch=4 n=53 v=0
26387 On ch=4 n=62 v=0
26400 On ch=4 n=70 v=88
26400 On ch=4 n=53 v=73
26409 On ch=4 n=53 v=0
26411 On ch=4 n=70 v=0
26424 On ch=4 n=58 v=90
26442 On ch=4 n=58 v=0
26448 On ch=4 n=62 v=86
26448 On ch=4 n=53 v=75
26457 On ch=4 n=62 v=0
26457 On ch=4 n=53 v=0
26472 On ch=4 n=70 v=85
26472 On ch=4 n=50 v=70
26486 On ch=4 n=70 v=0
26486 On ch=4 n=50 v=0
26496 On ch=4 n=51 v=88
26519 On ch=4 n=51 v=0
26520 On ch=4 n=55 v=86
26537 On ch=4 n=55 v=0
26544 On ch=4 n=58 v=74
26544 On ch=4 n=63 v=86
26556 On ch=4 n=58 v=0
26557 On ch=4 n=63 v=0
26568 On ch=4 n=58 v=72
26568 On ch=4 n=67 v=82
26582 On ch=4 n=67 v=0
26584 On ch=4 n=58 v=0
26592 On ch=4 n=58 v=65
26592 On ch=4 n=63 v=78
26604 On ch=4 n=63 v=0
26606 On ch=4 n=58 v=0
26616 On ch=4 n=55 v=76
26640 On ch=4 n=55 v=0
26664 On ch=4 n=63 v=86
26664 On ch=4 n=58 v=73
26675 On ch=4 n=63 v=0
26675 On ch=4 n=58 v=0
26688 On ch=4 n=56 v=88
26711 On ch=4 n=56 v=0
26712 On ch=4 n=51 v=86
26729 On ch=4 n=51 v=0
26736 On ch=4 n=48 v=74
26736 On ch=4 n=68 v=86
26748 On ch=4 n=48 v=0
26749 On ch=4 n=68 v=0
26760 On ch=4 n=51 v=72
26760 On ch=4 n=60 v=82
26774 On ch=4 n=60 v=0
26776 On ch=4 n=51 v=0
26784 On ch=4 n=51 v=65
26784 On ch=4 n=68 v=78
26796 On ch=4 n=68 v=0
26798 On ch=4 n=51 v=0
26808 On ch=4 n=48 v=76
26832 On ch=4 n=48 v=0
26856 On ch=4 n=68 v=86
26856 On ch=4 n=51 v=73
26867 On ch=4 n=68 v=0
26867 On ch=4 n=51 v=0
26880 On ch=4 n=53 v=88
26903 On ch=4 n=53 v=0
26904 On ch=4 n=56 v=86
26921 On ch=4 n=56 v=0
26928 On ch=4 n=48 v=74
26928 On ch=4 n=68 v=86
26940 On ch=4 n=48 v=0
26941 On ch=4 n=68 v=0
26952 On ch=4 n=48 v=72
26952 On ch=4 n=65 v=82
26966 On ch=4 n=65 v=0
26968 On ch=4 n=48 v=0
26976 On ch=4 n=48 v=65
26976 On ch=4 n=65 v=78
26988 On ch=4 n=65 v=0
26990 On ch=4 n=48 v=0
27000 On ch=4 n=56 v=76
27024 On ch=4 n=56 v=0
27048 On ch=4 n=68 v=86
27048 On ch=4 n=48 v=73
27059 On ch=4 n=68 v=0
27059 On ch=4 n=48 v=0
27072 On ch=4 n=55 v=88
27095 On ch=4 n=55 v=0
27096 On ch=4 n=59 v=86
27113 On ch=4 n=59 v=0
27120 On ch=4 n=50 v=74
27120 On ch=4 n=67 v=86
27132 On ch=4 n=50 v=0
27133 On ch=4 n=67 v=0
27144 On ch=4 n=50 v=72
27144 On ch=4 n=71 v=82
27158 On ch=4 n=71 v=0
27160 On ch=4 n=50 v=0
27168 On ch=4 n=50 v=65
27168 On ch=4 n=67 v=78
27180 On ch=4 n=67 v=0
27182 On ch=4 n=50 v=0
27192 On ch=4 n=59 v=76
27216 On ch=4 n=59 v=0
27240 On ch=4 n=67 v=86
27240 On ch=4 n=50 v=73
27251 On ch=4 n=67 v=0
27251 On ch=4 n=50 v=0
27264 On ch=4 n=51 v=94
27282 On ch=4 n=51 v=0
27288 On ch=4 n=55 v=58
27288 On ch=4 n=60 v=68
27294 On ch=4 n=60 v=0
27295 On ch=4 n=55 v=0
27312 On ch=4 n=63 v=88
27312 On ch=4 n=55 v=78
27329 On ch=4 n=63 v=0
27329 On ch=4 n=55 v=0
27336 On ch=4 n=48 v=88
27360 On ch=4 n=60 v=88
27360 On ch=4 n=55 v=73
27361 On ch=4 n=48 v=0
27375 On ch=4 n=60 v=0
27375 On ch=4 n=55 v=0
27384 On ch=4 n=51 v=94
27409 On ch=4 n=51 v=0
27432 On ch=4 n=63 v=85
27432 On ch=4 n=55 v=68
27445 On ch=4 n=63 v=0
27445 On ch=4 n=55 v=0
27456 On ch=4 n=51 v=94
27474 On ch=4 n=51 v=0
27480 On ch=4 n=55 v=58
27480 On ch=4 n=60 v=68
27486 On ch=4 n=60 v=0
27487 On ch=4 n=55 v=0
27504 On ch=4 n=63 v=88
27504 On ch=4 n=55 v=78
27521 On ch=4 n=63 v=0
27521 On ch=4 n=55 v=0
27528 On ch=4 n=48 v=88
27552 On ch=4 n=60 v=88
27552 On ch=4 n=55 v=73
27553 On ch=4 n=48 v=0
27567 On ch=4 n=60 v=0
27567 On ch=4 n=55 v=0
27576 On ch=4 n=51 v=94
27601 On ch=4 n=51 v=0
27624 On ch=4 n=63 v=85
27624 On ch=4 n=55 v=68
27637 On ch=4 n=63 v=0
27637 On ch=4 n=55 v=0
27672 On ch=4 n=55 v=80
27672 On ch=4 n=60 v=83
27682 On ch=4 n=55 v=0
27682 On ch=4 n=60 v=0
27696 On ch=4 n=51 v=99
27711 On ch=4 n=51 v=0
27720 On ch=4 n=63 v=85
27720 On ch=4 n=55 v=71
27729 On ch=4 n=55 v=0
27731 On ch=4 n=63 v=0
27744 On ch=4 n=60 v=88
27744 On ch=4 n=55 v=73
27753 On ch=4 n=55 v=0
27755 On ch=4 n=60 v=0
27768 On ch=4 n=48 v=90
27786 On ch=4 n=48 v=0
27792 On ch=4 n=63 v=86
27792 On ch=4 n=55 v=75
27801 On ch=4 n=63 v=0
27801 On ch=4 n=55 v=0
27816 On ch=4 n=60 v=85
27816 On ch=4 n=51 v=70
27830 On ch=4 n=60 v=0
27830 On ch=4 n=51 v=0
27840 On ch=4 n=56 v=94
27858 On ch=4 n=56 v=0
27864 On ch=4 n=48 v=58
27864 On ch=4 n=65 v=68
27870 On ch=4 n=65 v=0
27871 On ch=4 n=48 v=0
27888 On ch=4 n=68 v=88
27888 On ch=4 n=48 v=78
27905 On ch=4 n=68 v=0
27905 On ch=4 n=48 v=0
27912 On ch=4 n=53 v=88
27936 On ch=4 n=65 v=88
27936 On ch=4 n=48 v=73
27937 On ch=4 n=53 v=0
27951 On ch=4 n=65 v=0
27951 On ch=4 n=48 v=0
27960 On ch=4 n=56 v=94
27985 On ch=4 n=56 v=0
28008 On ch=4 n=68 v=85
28008 On ch=4 n=48 v=68
28021 On ch=4 n=68 v=0
28021 On ch=4 n=48 v=0
28032 On ch=4 n=55 v=88
28055 On ch=4 n=55 v=0
28056 On ch=4 n=59 v=86
28073 On ch=4 n=59 v=0
28080 On ch=4 n=50 v=74
28080 On ch=4 n=67 v=86
28092 On ch=4 n=50 v=0
28093 On ch=4 n=67 v=0
28104 On ch=4 n=50 v=72
28104 On ch=4 n=71 v=82
28118 On ch=4 n=71 v=0
28120 On ch=4 n=50 v=0
28128 On ch=4 n=50 v=65
28128 On ch=4 n=67 v=78
28140 On ch=4 n=67 v=0
28142 On ch=4 n=50 v=0
28152 On ch=4 n=59 v=76
28176 On ch=4 n=59 v=0
28200 On ch=4 n=67 v=86
28200 On ch=4 n=50 v=73
28211 On ch=4 n=67 v=0
28211 On ch=4 n=50 v=0
28248 On ch=4 n=55 v=80
28248 On ch=4 n=60 v=83
28258 On ch=4 n=55 v=0
28258 On ch=4 n=60 v=0
28272 On ch=4 n=51 v=99
28287 On ch=4 n=51 v=0
28296 On ch=4 n=63 v=85
28296 On ch=4 n=55 v=71
28305 On ch=4 n=55 v=0
28307 On ch=4 n=63 v=0
28320 On ch=4 n=60 v=88
28320 On ch=4 n=55 v=73
28329 On ch=4 n=55 v=0
28331 On ch=4 n=60 v=0
28344 On ch=4 n=48 v=90
28362 On ch=4 n=48 v=0
28368 On ch=4 n=63 v=86
28368 On ch=4 n=55 v=75
28377 On ch=4 n=63 v=0
28377 On ch=4 n=55 v=0
28392 On ch=4 n=60 v=85
28392 On ch=4 n=51 v=70
28406 On ch=4 n=60 v=0
28406 On ch=4 n=51 v=0
28416 On ch=4 n=51 v=88
28439 On ch=4 n=51 v=0
28440 On ch=4 n=55 v=86
28457 On ch=4 n=55 v=0
28464 On ch=4 n=58 v=74
28464 On ch=4 n=63 v=86
28476 On ch=4 n=58 v=0
28477 On ch=4 n=63 v=0
28488 On ch=4 n=58 v=72
28488 On ch=4 n=67 v=82
28502 On ch=4 n=67 v=0
28504 On ch=4 n=58 v=0
28512 On ch=4 n=58 v=65
28512 On ch=4 n=63 v=78
28524 On ch=4 n=63 v=0
28526 On ch=4 n=58 v=0
28536 On ch=4 n=55 v=76
28560 On ch=4 n=55 v=0
28584 On ch=4 n=63 v=86
28584 On ch=4 n=58 v=73
28595 On ch=4 n=63 v=0
28595 On ch=4 n=58 v=0
28608 On ch=4 n=56 v=94
28626 On ch=4 n=56 v=0
28632 On ch=4 n=48 v=58
28632 On ch=4 n=65 v=68
28638 On ch=4 n=65 v=0
28639 On ch=4 n=48 v=0
28656 On ch=4 n=68 v=88
28656 On ch=4 n=48 v=78
28673 On ch=4 n=68 v=0
28673 On ch=4 n=48 v=0
28680 On ch=4 n=53 v=88
28704 On ch=4 n=65 v=88
28704 On ch=4 n=48 v=73
28705 On ch=4 n=53 v=0
28719 On ch=4 n=65 v=0
28719 On ch=4 n=48 v=0
28728 On ch=4 n=56 v=94
28753 On ch=4 n=56 v=0
28776 On ch=4 n=68 v=85
28776 On ch=4 n=48 v=68
28789 On ch=4 n=68 v=0
28789 On ch=4 n=48 v=0
28800 On ch=4 n=50 v=94
28818 On ch=4 n=50 v=0
28824 On ch=4 n=53 v=58
28824 On ch=4 n=70 v=68
28830 On ch=4 n=70 v=0
28831 On ch=4 n=53 v=0
28848 On ch=4 n=62 v=88
28848 On ch=4 n=53 v=78
28865 On ch=4 n=62 v=0
28865 On ch=4 n=53 v=0
28872 On ch=4 n=58 v=88
28896 On ch=4 n=70 v=88
28896 On ch=4 n=53 v=73
28897 On ch=4 n=58 v=0
28911 On ch=4 n=70 v=0
28911 On ch=4 n=53 v=0
28920 On ch=4 n=50 v=94
28945 On ch=4 n=50 v=0
28968 On ch=4 n=62 v=85
28968 On ch=4 n=53 v=68
28981 On ch=4 n=62 v=0
28981 On ch=4 n=53 v=0
28992 On ch=4 n=51 v=88
29015 On ch=4 n=51 v=0
29016 On ch=4 n=55 v=86
29033 On ch=4 n=55 v=0
29040 On ch=4 n=58 v=74
29040 On ch=4 n=63 v=86
29052 On ch=4 n=58 v=0
29053 On ch=4 n=63 v=0
29064 On ch=4 n=58 v=72
29064 On ch=4 n=67 v=82
29078 On ch=4 n=67 v=0
29080 On ch=4 n=58 v=0
29088 On ch=4 n=58 v=65
29088 On ch=4 n=63 v=78
29100 On ch=4 n=63 v=0
29102 On ch=4 n=58 v=0
29112 On ch=4 n=55 v=76
29136 On ch=4 n=55 v=0
29160 On ch=4 n=63 v=86
29160 On ch=4 n=58 v=73
29171 On ch=4 n=63 v=0
29171 On ch=4 n=58 v=0
29184 On ch=4 n=51 v=88
29207 On ch=4 n=51 v=0
29208 On ch=4 n=55 v=86
29225 On ch=4 n=55 v=0
29232 On ch=4 n=58 v=74
29232 On ch=4 n=63 v=86
29244 On ch=4 n=58 v=0
29245 On ch=4 n=63 v=0
29256 On ch=4 n=58 v=72
29256 On ch=4 n=67 v=82
29270 On ch=4 n=67 v=0
29272 On ch=4 n=58 v=0
29280 On ch=4 n=58 v=65
29280 On ch=4 n=63 v=78
29292 On ch=4 n=63 v=0
29294 On ch=4 n=58 v=0
29304 On ch=4 n=55 v=76
29328 On ch=4 n=55 v=0
29352 On ch=4 n=63 v=86
29352 On ch=4 n=58 v=73
29363 On ch=4 n=63 v=0
29363 On ch=4 n=58 v=0
29376 On ch=4 n=50 v=94
29394 On ch=4 n=50 v=0
29400 On ch=4 n=53 v=58
29400 On ch=4 n=71 v=68
29406 On ch=4 n=71 v=0
29407 On ch=4 n=53 v=0
29424 On ch=4 n=62 v=88
29424 On ch=4 n=53 v=78
29441 On ch=4 n=62 v=0
29441 On ch=4 n=53 v=0
29448 On ch=4 n=59 v=88
29472 On ch=4 n=71 v=88
29472 On ch=4 n=53 v=73
29473 On ch=4 n=59 v=0
29487 On ch=4 n=71 v=0
29487 On ch=4 n=53 v=0
29496 On ch=4 n=50 v=94
29521 On ch=4 n=50 v=0
29544 On ch=4 n=62 v=85
29544 On ch=4 n=53 v=68
29557 On ch=4 n=62 v=0
29557 On ch=4 n=53 v=0
29568 On ch=4 n=53 v=88
29591 On ch=4 n=53 v=0
29592 On ch=4 n=56 v=86
29609 On ch=4 n=56 v=0
29616 On ch=4 n=59 v=74
29616 On ch=4 n=68 v=86
29628 On ch=4 n=59 v=0
29629 On ch=4 n=68 v=0
29640 On ch=4 n=53 v=72
29640 On ch=4 n=71 v=82
29654 On ch=4 n=71 v=0
29656 On ch=4 n=53 v=0
29664 On ch=4 n=53 v=65
29664 On ch=4 n=68 v=78
29676 On ch=4 n=68 v=0
29678 On ch=4 n=53 v=0
29688 On ch=4 n=59 v=76
29712 On ch=4 n=59 v=0
29736 On ch=4 n=68 v=86
29736 On ch=4 n=53 v=73
29747 On ch=4 n=68 v=0
29747 On ch=4 n=53 v=0
29784 On ch=4 n=55 v=80
29784 On ch=4 n=60 v=83
29794 On ch=4 n=55 v=0
29794 On ch=4 n=60 v=0
29808 On ch=4 n=51 v=99
29823 On ch=4 n=51 v=0
29832 On ch=4 n=63 v=85
29832 On ch=4 n=55 v=71
29841 On ch=4 n=55 v=0
29843 On ch=4 n=63 v=0
29856 On ch=4 n=60 v=88
29856 On ch=4 n=55 v=73
29865 On ch=4 n=55 v=0
29867 On ch=4 n=60 v=0
29880 On ch=4 n=48 v=90
29898 On ch=4 n=48 v=0
29904 On ch=4 n=63 v=86
29904 On ch=4 n=55 v=75
29913 On ch=4 n=63 v=0
29913 On ch=4 n=55 v=0
29928 On ch=4 n=60 v=85
29928 On ch=4 n=51 v=70
29942 On ch=4 n=60 v=0
29942 On ch=4 n=51 v=0
29952 On ch=4 n=51 v=94
29970 On ch=4 n=51 v=0
29976 On ch=4 n=55 v=58
29976 On ch=4 n=60 v=68
29982 On ch=4 n=60 v=0
29983 On ch=4 n=55 v=0
30000 On ch=4 n=63 v=88
30000 On ch=4 n=55 v=78
30017 On ch=4 n=63 v=0
30017 On ch=4 n=55 v=0
30024 On ch=4 n=48 v=88
30048 On ch=4 n=60 v=88
30048 On ch=4 n=55 v=73
30049 On ch=4 n=48 v=0
30063 On ch=4 n=60 v=0
30063 On ch=4 n=55 v=0
30072 On ch=4 n=51 v=94
30097 On ch=4 n=51 v=0
30120 On ch=4 n=63 v=85
30120 On ch=4 n=55 v=68
30133 On ch=4 n=63 v=0
30133 On ch=4 n=55 v=0
30144 On ch=4 n=56 v=94
30162 On ch=4 n=56 v=0
30168 On ch=4 n=48 v=58
30168 On ch=4 n=65 v=68
30174 On ch=4 n=65 v=0
30175 On ch=4 n=48 v=0
30192 On ch=4 n=68 v=88
30192 On ch=4 n=48 v=78
30209 On ch=4 n=68 v=0
30209 On ch=4 n=48 v=0
30216 On ch=4 n=53 v=88
30240 On ch=4 n=65 v=88
30240 On ch=4 n=48 v=73
30241 On ch=4 n=53 v=0
30255 On ch=4 n=65 v=0
30255 On ch=4 n=48 v=0
30264 On ch=4 n=56 v=94
30289 On ch=4 n=56 v=0
30312 On ch=4 n=68 v=85
30312 On ch=4 n=48 v=68
30325 On ch=4 n=68 v=0
30325 On ch=4 n=48 v=0
30336 On ch=4 n=55 v=88
30359 On ch=4 n=55 v=0
30360 On ch=4 n=59 v=86
30377 On ch=4 n=59 v=0
30384 On ch=4 n=50 v=74
30384 On ch=4 n=65 v=86
30396 On ch=4 n=50 v=0
30397 On ch=4 n=65 v=0
30408 On ch=4 n=50 v=72
30408 On ch=4 n=67 v=82
30422 On ch=4 n=67 v=0
30424 On ch=4 n=50 v=0
30432 On ch=4 n=53 v=65
30432 On ch=4 n=71 v=78
30444 On ch=4 n=71 v=0
30446 On ch=4 n=53 v=0
30456 On ch=4 n=55 v=76
30480 On ch=4 n=55 v=0
30504 On ch=4 n=71 v=86
30504 On ch=4 n=50 v=73
30515 On ch=4 n=71 v=0
30515 On ch=4 n=50 v=0
30552 On ch=4 n=55 v=80
30552 On ch=4 n=60 v=83
30562 On ch=4 n=55 v=0
30562 On ch=4 n=60 v=0
30576 On ch=4 n=51 v=99
30591 On ch=4 n=51 v=0
30600 On ch=4 n=63 v=85
30600 On ch=4 n=55 v=71
30609 On ch=4 n=55 v=0
30611 On ch=4 n=63 v=0
30624 On ch=4 n=60 v=88
30624 On ch=4 n=55 v=73
30633 On ch=4 n=55 v=0
30635 On ch=4 n=60 v=0
30648 On ch=4 n=48 v=90
30666 On ch=4 n=48 v=0
30672 On ch=4 n=63 v=86
30672 On ch=4 n=55 v=75
30681 On ch=4 n=63 v=0
30681 On ch=4 n=55 v=0
30696 On ch=4 n=60 v=85
30696 On ch=4 n=51 v=70
30710 On ch=4 n=60 v=0
30710 On ch=4 n=51 v=0
30744 On ch=4 n=48 v=80
30744 On ch=4 n=65 v=83
30754 On ch=4 n=48 v=0
30754 On ch=4 n=65 v=0
30768 On ch=4 n=56 v=99
30783 On ch=4 n=56 v=0
30792 On ch=4 n=68 v=85
30792 On ch=4 n=48 v=71
30801 On ch=4 n=48 v=0
30803 On ch=4 n=68 v=0
30816 On ch=4 n=65 v=88
30816 On ch=4 n=48 v=73
30825 On ch=4 n=48 v=0
30827 On ch=4 n=65 v=0
30840 On ch=4 n=53 v=90
30858 On ch=4 n=53 v=0
30864 On ch=4 n=68 v=86
30864 On ch=4 n=48 v=75
30873 On ch=4 n=68 v=0
30873 On ch=4 n=48 v=0
30888 On ch=4 n=65 v=85
30888 On ch=4 n=56 v=70
30902 On ch=4 n=65 v=0
30902 On ch=4 n=56 v=0
30912 On ch=4 n=58 v=88
30935 On ch=4 n=58 v=0
30936 On ch=4 n=50 v=86
30953 On ch=4 n=50 v=0
30960 On ch=4 n=53 v=74
30960 On ch=4 n=62 v=86
30972 On ch=4 n=53 v=0
30973 On ch=4 n=62 v=0
30984 On ch=4 n=53 v=72
30984 On ch=4 n=70 v=82
30998 On ch=4 n=70 v=0
31000 On ch=4 n=53 v=0
31008 On ch=4 n=53 v=65
31008 On ch=4 n=70 v=78
31020 On ch=4 n=70 v=0
31022 On ch=4 n=53 v=0
31032 On ch=4 n=50 v=76
31056 On ch=4 n=50 v=0
31080 On ch=4 n=62 v=86
31080 On ch=4 n=53 v=73
31091 On ch=4 n=62 v=0
31091 On ch=4 n=53 v=0
31104 On ch=4 n=51 v=94
31122 On ch=4 n=51 v=0
31128 On ch=4 n=58 v=58
31128 On ch=4 n=67 v=68
31134 On ch=4 n=67 v=0
31135 On ch=4 n=58 v=0
31152 On ch=4 n=63 v=88
31152 On ch=4 n=58 v=78
31169 On ch=4 n=63 v=0
31169 On ch=4 n=58 v=0
31176 On ch=4 n=55 v=88
31200 On ch=4 n=63 v=88
31200 On ch=4 n=58 v=73
31201 On ch=4 n=55 v=0
31215 On ch=4 n=63 v=0
31215 On ch=4 n=58 v=0
31224 On ch=4 n=55 v=94
31249 On ch=4 n=55 v=0
31272 On ch=4 n=63 v=85
31272 On ch=4 n=58 v=68
31285 On ch=4 n=63 v=0
31285 On ch=4 n=58 v=0
31296 On ch=4 n=56 v=88
31319 On ch=4 n=56 v=0
31320 On ch=4 n=51 v=86
31337 On ch=4 n=51 v=0
31344 On ch=4 n=48 v=74
31344 On ch=4 n=68 v=86
31356 On ch=4 n=48 v=0
31357 On ch=4 n=68 v=0
31368 On ch=4 n=51 v=72
31368 On ch=4 n=60 v=82
31382 On ch=4 n=60 v=0
31384 On ch=4 n=51 v=0
31392 On ch=4 n=51 v=65
31392 On ch=4 n=68 v=78
31404 On ch=4 n=68 v=0
31406 On ch=4 n=51 v=0
31416 On ch=4 n=48 v=76
31440 On ch=4 n=48 v=0
31464 On ch=4 n=68 v=86
31464 On ch=4 n=51 v=73
31475 On ch=4 n=68 v=0
31475 On ch=4 n=51 v=0
31512 On ch=4 n=48 v=80
31512 On ch=4 n=65 v=83
31522 On ch=4 n=48 v=0
31522 On ch=4 n=65 v=0
31536 On ch=4 n=56 v=99
31551 On ch=4 n=56 v=0
31560 On ch=4 n=68 v=85
31560 On ch=4 n=48 v=71
31569 On ch=4 n=48 v=0
31571 On ch=4 n=68 v=0
31584 On ch=4 n=65 v=88
31584 On ch=4 n=48 v=73
31593 On ch=4 n=48 v=0
31595 On ch=4 n=65 v=0
31608 On ch=4 n=53 v=90
31626 On ch=4 n=53 v=0
31632 On ch=4 n=68 v=86
31632 On ch=4 n=48 v=75
31641 On ch=4 n=68 v=0
31641 On ch=4 n=48 v=0
31656 On ch=4 n=65 v=85
31656 On ch=4 n=56 v=70
31670 On ch=4 n=65 v=0
31670 On ch=4 n=56 v=0
31704 On ch=4 n=50 v=80
31704 On ch=4 n=67 v=83
31714 On ch=4 n=50 v=0
31714 On ch=4 n=67 v=0
31728 On ch=4 n=59 v=99
31743 On ch=4 n=59 v=0
31752 On ch=4 n=67 v=85
31752 On ch=4 n=50 v=71
31761 On ch=4 n=50 v=0
31763 On ch=4 n=67 v=0
31776 On ch=4 n=71 v=88
31776 On ch=4 n=50 v=73
31785 On ch=4 n=50 v=0
31787 On ch=4 n=71 v=0
31800 On ch=4 n=55 v=90
31818 On ch=4 n=55 v=0
31824 On ch=4 n=71 v=86
31824 On ch=4 n=50 v=75
31833 On ch=4 n=71 v=0
31833 On ch=4 n=50 v=0
31848 On ch=4 n=67 v=85
31848 On ch=4 n=59 v=70
31862 On ch=4 n=67 v=0
31862 On ch=4 n=59 v=0
31872 On ch=4 n=51 v=94
31890 On ch=4 n=51 v=0
31896 On ch=4 n=55 v=58
31896 On ch=4 n=60 v=68
31902 On ch=4 n=60 v=0
31903 On ch=4 n=55 v=0
31920 On ch=4 n=63 v=88
31920 On ch=4 n=55 v=78
31937 On ch=4 n=63 v=0
31937 On ch=4 n=55 v=0
31944 On ch=4 n=48 v=88
31968 On ch=4 n=60 v=88
31968 On ch=4 n=55 v=73
31969 On ch=4 n=48 v=0
31983 On ch=4 n=60 v=0
31983 On ch=4 n=55 v=0
31992 On ch=4 n=51 v=94
32017 On ch=4 n=51 v=0
32040 On ch=4 n=63 v=85
32040 On ch=4 n=55 v=68
32053 On ch=4 n=63 v=0
32053 On ch=4 n=55 v=0
32088 On ch=4 n=55 v=80
32088 On ch=4 n=60 v=83
32098 On ch=4 n=55 v=0
32098 On ch=4 n=60 v=0
32112 On ch=4 n=52 v=99
32127 On ch=4 n=52 v=0
32136 On ch=4 n=60 v=85
32136 On ch=4 n=55 v=71
32145 On ch=4 n=55 v=0
32147 On ch=4 n=60 v=0
32160 On ch=4 n=64 v=88
32160 On ch=4 n=55 v=73
32169 On ch=4 n=55 v=0
32171 On ch=4 n=64 v=0
32184 On ch=4 n=48 v=90
32202 On ch=4 n=48 v=0
32208 On ch=4 n=64 v=86
32208 On ch=4 n=55 v=75
32217 On ch=4 n=64 v=0
32217 On ch=4 n=55 v=0
32232 On ch=4 n=60 v=85
32232 On ch=4 n=52 v=70
32246 On ch=4 n=60 v=0
32246 On ch=4 n=52 v=0
32256 On ch=4 n=53 v=88
32279 On ch=4 n=53 v=0
32280 On ch=4 n=56 v=86
32297 On ch=4 n=56 v=0
32304 On ch=4 n=48 v=74
32304 On ch=4 n=68 v=86
32316 On ch=4 n=48 v=0
32317 On ch=4 n=68 v=0
32328 On ch=4 n=48 v=72
32328 On ch=4 n=65 v=82
32342 On ch=4 n=65 v=0
32344 On ch=4 n=48 v=0
32352 On ch=4 n=48 v=65
32352 On ch=4 n=65 v=78
32364 On ch=4 n=65 v=0
32366 On ch=4 n=48 v=0
32376 On ch=4 n=56 v=76
32400 On ch=4 n=56 v=0
32424 On ch=4 n=68 v=86
32424 On ch=4 n=48 v=73
32435 On ch=4 n=68 v=0
32435 On ch=4 n=48 v=0
32448 On ch=4 n=58 v=88
32471 On ch=4 n=58 v=0
32472 On ch=4 n=50 v=86
32489 On ch=4 n=50 v=0
32496 On ch=4 n=53 v=74
32496 On ch=4 n=62 v=86
32508 On ch=4 n=53 v=0
32509 On ch=4 n=62 v=0
32520 On ch=4 n=53 v=72
32520 On ch=4 n=70 v=82
32534 On ch=4 n=70 v=0
32536 On ch=4 n=53 v=0
32544 On ch=4 n=53 v=65
32544 On ch=4 n=70 v=78
32556 On ch=4 n=70 v=0
32558 On ch=4 n=53 v=0
32568 On ch=4 n=50 v=76
32592 On ch=4 n=50 v=0
32616 On ch=4 n=62 v=86
32616 On ch=4 n=53 v=73
32627 On ch=4 n=62 v=0
32627 On ch=4 n=53 v=0
32640 On ch=4 n=51 v=94
32658 On ch=4 n=51 v=0
32664 On ch=4 n=58 v=58
32664 On ch=4 n=67 v=68
32670 On ch=4 n=67 v=0
32671 On ch=4 n=58 v=0
32688 On ch=4 n=63 v=88
32688 On ch=4 n=58 v=78
32705 On ch=4 n=63 v=0
32705 On ch=4 n=58 v=0
32712 On ch=4 n=55 v=88
32736 On ch=4 n=63 v=88
32736 On ch=4 n=58 v=73
32737 On ch=4 n=55 v=0
32751 On ch=4 n=63 v=0
32751 On ch=4 n=58 v=0
32760 On ch=4 n=55 v=94
32785 On ch=4 n=55 v=0
32808 On ch=4 n=63 v=85
32808 On ch=4 n=58 v=68
32821 On ch=4 n=63 v=0
32821 On ch=4 n=58 v=0
32856 On ch=4 n=51 v=80
32856 On ch=4 n=68 v=83
32866 On ch=4 n=51 v=0
32866 On ch=4 n=68 v=0
32880 On ch=4 n=48 v=99
32895 On ch=4 n=48 v=0
32904 On ch=4 n=68 v=85
32904 On ch=4 n=51 v=71
32913 On ch=4 n=51 v=0
32915 On ch=4 n=68 v=0
32928 On ch=4 n=60 v=88
32928 On ch=4 n=51 v=73
32937 On ch=4 n=51 v=0
32939 On ch=4 n=60 v=0
32952 On ch=4 n=56 v=90
32970 On ch=4 n=56 v=0
32976 On ch=4 n=60 v=86
32976 On ch=4 n=51 v=75
32985 On ch=4 n=60 v=0
32985 On ch=4 n=51 v=0
33000 On ch=4 n=68 v=85
33000 On ch=4 n=48 v=70
33014 On ch=4 n=68 v=0
33014 On ch=4 n=48 v=0
33024 On ch=4 n=53 v=88
33047 On ch=4 n=53 v=0
33048 On ch=4 n=56 v=86
33065 On ch=4 n=56 v=0
33072 On ch=4 n=48 v=74
33072 On ch=4 n=68 v=86
33084 On ch=4 n=48 v=0
33085 On ch=4 n=68 v=0
33096 On ch=4 n=48 v=72
33096 On ch=4 n=65 v=82
33110 On ch=4 n=65 v=0
33112 On ch=4 n=48 v=0
33120 On ch=4 n=48 v=65
33120 On ch=4 n=65 v=78
33132 On ch=4 n=65 v=0
33134 On ch=4 n=48 v=0
33144 On ch=4 n=56 v=76
33168 On ch=4 n=56 v=0
33192 On ch=4 n=68 v=86
33192 On ch=4 n=48 v=73
33203 On ch=4 n=68 v=0
33203 On ch=4 n=48 v=0
33216 On ch=4 n=55 v=94
33234 On ch=4 n=55 v=0
33240 On ch=4 n=50 v=58
33240 On ch=4 n=71 v=68
33246 On ch=4 n=71 v=0
33247 On ch=4 n=50 v=0
33264 On ch=4 n=67 v=88
33264 On ch=4 n=50 v=78
33281 On ch=4 n=67 v=0
33281 On ch=4 n=50 v=0
33288 On ch=4 n=59 v=88
33312 On ch=4 n=67 v=88
33312 On ch=4 n=50 v=73
33313 On ch=4 n=59 v=0
33327 On ch=4 n=67 v=0
33327 On ch=4 n=50 v=0
33336 On ch=4 n=59 v=94
33361 On ch=4 n=59 v=0
33384 On ch=4 n=67 v=85
33384 On ch=4 n=50 v=68
33397 On ch=4 n=67 v=0
33397 On ch=4 n=50 v=0
33408 On ch=4 n=51 v=94
33426 On ch=4 n=51 v=0
33432 On ch=4 n=55 v=58
33432 On ch=4 n=60 v=68
33438 On ch=4 n=60 v=0
33439 On ch=4 n=55 v=0
33456 On ch=4 n=63 v=88
33456 On ch=4 n=55 v=78
33473 On ch=4 n=63 v=0
33473 On ch=4 n=55 v=0
33480 On ch=4 n=48 v=88
33504 On ch=4 n=60 v=88
33504 On ch=4 n=55 v=73
33505 On ch=4 n=48 v=0
33519 On ch=4 n=60 v=0
33519 On ch=4 n=55 v=0
33528 On ch=4 n=51 v=94
33553 On ch=4 n=51 v=0
33576 On ch=4 n=63 v=85
33576 On ch=4 n=55 v=68
33589 On ch=4 n=63 v=0
33589 On ch=4 n=55 v=0
33624 On ch=4 n=55 v=80
33624 On ch=4 n=60 v=83
33634 On ch=4 n=55 v=0
33634 On ch=4 n=60 v=0
33648 On ch=4 n=51 v=99
33663 On ch=4 n=51 v=0
33672 On ch=4 n=63 v=85
33672 On ch=4 n=55 v=71
33681 On ch=4 n=55 v=0
33683 On ch=4 n=63 v=0
33696 On ch=4 n=60 v=88
33696 On ch=4 n=55 v=73
33705 On ch=4 n=55 v=0
33707 On ch=4 n=60 v=0
33720 On ch=4 n=48 v=90
33738 On ch=4 n=48 v=0
33744 On ch=4 n=63 v=86
33744 On ch=4 n=55 v=75
33753 On ch=4 n=63 v=0
33753 On ch=4 n=55 v=0
33768 On ch=4 n=60 v=85
33768 On ch=4 n=51 v=70
33782 On ch=4 n=60 v=0
33782 On ch=4 n=51 v=0
33792 On ch=4 n=51 v=94
33810 On ch=4 n=51 v=0
33816 On ch=4 n=55 v=58
33816 On ch=4 n=60 v=68
33822 On ch=4 n=60 v=0
33823 On ch=4 n=55 v=0
33840 On ch=4 n=63 v=88
33840 On ch=4 n=55 v=78
33857 On ch=4 n=63 v=0
33857 On ch=4 n=55 v=0
33864 On ch=4 n=48 v=88
33888 On ch=4 n=60 v=88
33888 On ch=4 n=55 v=73
33889 On ch=4 n=48 v=0
33903 On ch=4 n=60 v=0
33903 On ch=4 n=55 v=0
33912 On ch=4 n=51 v=94
33937 On ch=4 n=51 v=0
33960 On ch=4 n=63 v=85
33960 On ch=4 n=55 v=68
33973 On ch=4 n=63 v=0
33973 On ch=4 n=55 v=0
33984 On ch=4 n=53 v=88
34007 On ch=4 n=53 v=0
34008 On ch=4 n=56 v=86
34025 On ch=4 n=56 v=0
34032 On ch=4 n=48 v=74
34032 On ch=4 n=68 v=86
34044 On ch=4 n=48 v=0
34045 On ch=4 n=68 v=0
34056 On ch=4 n=48 v=72
34056 On ch=4 n=65 v=82
34070 On ch=4 n=65 v=0
34072 On ch=4 n=48 v=0
34080 On ch=4 n=48 v=65
34080 On ch=4 n=65 v=78
34092 On ch=4 n=65 v=0
34094 On ch=4 n=48 v=0
34104 On ch=4 n=56 v=76
34128 On ch=4 n=56 v=0
34152 On ch=4 n=68 v=86
34152 On ch=4 n=48 v=73
34163 On ch=4 n=68 v=0
34163 On ch=4 n=48 v=0
34200 On ch=4 n=50 v=80
34200 On ch=4 n=67 v=83
34210 On ch=4 n=50 v=0
34210 On ch=4 n=67 v=0
34224 On ch=4 n=59 v=99
34239 On ch=4 n=59 v=0
34248 On ch=4 n=67 v=85
34248 On ch=4 n=50 v=71
34257 On ch=4 n=50 v=0
34259 On ch=4 n=67 v=0
34272 On ch=4 n=71 v=88
34272 On ch=4 n=50 v=73
34281 On ch=4 n=50 v=0
34283 On ch=4 n=71 v=0
34296 On ch=4 n=55 v=90
34314 On ch=4 n=55 v=0
34320 On ch=4 n=71 v=86
34320 On ch=4 n=50 v=75
34329 On ch=4 n=71 v=0
34329 On ch=4 n=50 v=0
34344 On ch=4 n=67 v=85
34344 On ch=4 n=59 v=70
34358 On ch=4 n=67 v=0
34358 On ch=4 n=59 v=0
34368 On ch=4 n=48 v=88
34391 On ch=4 n=48 v=0
34392 On ch=4 n=51 v=86
34409 On ch=4 n=51 v=0
34416 On ch=4 n=55 v=74
34416 On ch=4 n=63 v=86
34428 On ch=4 n=55 v=0
34429 On ch=4 n=63 v=0
34440 On ch=4 n=55 v=72
34440 On ch=4 n=60 v=82
34454 On ch=4 n=60 v=0
34456 On ch=4 n=55 v=0
34464 On ch=4 n=55 v=65
34464 On ch=4 n=60 v=78
34476 On ch=4 n=60 v=0
34478 On ch=4 n=55 v=0
34488 On ch=4 n=51 v=76
34512 On ch=4 n=51 v=0
34536 On ch=4 n=63 v=86
34536 On ch=4 n=55 v=73
34547 On ch=4 n=63 v=0
34547 On ch=4 n=55 v=0
34584 On ch=4 n=58 v=80
34584 On ch=4 n=63 v=83
34594 On ch=4 n=58 v=0
34594 On ch=4 n=63 v=0
34608 On ch=4 n=55 v=99
34623 On ch=4 n=55 v=0
34632 On ch=4 n=63 v=85
34632 On ch=4 n=58 v=71
34641 On ch=4 n=58 v=0
34643 On ch=4 n=63 v=0
34656 On ch=4 n=67 v=88
34656 On ch=4 n=58 v=73
34665 On ch=4 n=58 v=0
34667 On ch=4 n=67 v=0
34680 On ch=4 n=51 v=90
34698 On ch=4 n=51 v=0
34704 On ch=4 n=67 v=86
34704 On ch=4 n=58 v=75
34713 On ch=4 n=67 v=0
34713 On ch=4 n=58 v=0
34728 On ch=4 n=63 v=85
34728 On ch=4 n=55 v=70
34742 On ch=4 n=63 v=0
34742 On ch=4 n=55 v=0
34776 On ch=4 n=48 v=80
34776 On ch=4 n=65 v=83
34786 On ch=4 n=48 v=0
34786 On ch=4 n=65 v=0
34800 On ch=4 n=56 v=99
34815 On ch=4 n=56 v=0
34824 On ch=4 n=68 v=85
34824 On ch=4 n=48 v=71
34833 On ch=4 n=48 v=0
34835 On ch=4 n=68 v=0
34848 On ch=4 n=65 v=88
34848 On ch=4 n=48 v=73
34857 On ch=4 n=48 v=0
34859 On ch=4 n=65 v=0
34872 On ch=4 n=53 v=90
34890 On ch=4 n=53 v=0
34896 On ch=4 n=68 v=86
34896 On ch=4 n=48 v=75
34905 On ch=4 n=68 v=0
34905 On ch=4 n=48 v=0
34920 On ch=4 n=65 v=85
34920 On ch=4 n=56 v=70
34934 On ch=4 n=65 v=0
34934 On ch=4 n=56 v=0
34968 On ch=4 n=53 v=80
34968 On ch=4 n=70 v=83
34978 On ch=4 n=53 v=0
34978 On ch=4 n=70 v=0
34992 On ch=4 n=50 v=99
35007 On ch=4 n=50 v=0
35016 On ch=4 n=62 v=85
35016 On ch=4 n=53 v=71
35025 On ch=4 n=53 v=0
35027 On ch=4 n=62 v=0
35040 On ch=4 n=70 v=88
35040 On ch=4 n=53 v=73
35049 On ch=4 n=53 v=0
35051 On ch=4 n=70 v=0
35064 On ch=4 n=58 v=90
35082 On ch=4 n=58 v=0
35088 On ch=4 n=62 v=86
35088 On ch=4 n=53 v=75
35097 On ch=4 n=62 v=0
35097 On ch=4 n=53 v=0
35112 On ch=4 n=70 v=85
35112 On ch=4 n=50 v=70
35126 On ch=4 n=70 v=0
35126 On ch=4 n=50 v=0
35136 On ch=4 n=51 v=88
35159 On ch=4 n=51 v=0
35160 On ch=4 n=55 v=86
35177 On ch=4 n=55 v=0
35184 On ch=4 n=58 v=74
35184 On ch=4 n=63 v=86
35196 On ch=4 n=58 v=0
35197 On ch=4 n=63 v=0
35208 On ch=4 n=58 v=72
35208 On ch=4 n=67 v=82
35222 On ch=4 n=67 v=0
35224 On ch=4 n=58 v=0
35232 On ch=4 n=58 v=65
35232 On ch=4 n=63 v=78
35244 On ch=4 n=63 v=0
35246 On ch=4 n=58 v=0
35256 On ch=4 n=55 v=76
35280 On ch=4 n=55 v=0
35304 On ch=4 n=63 v=86
35304 On ch=4 n=58 v=73
35315 On ch=4 n=63 v=0
35315 On ch=4 n=58 v=0
35328 On ch=4 n=51 v=94
35346 On ch=4 n=51 v=0
35352 On ch=4 n=58 v=58
35352 On ch=4 n=67 v=68
35358 On ch=4 n=67 v=0
35359 On ch=4 n=58 v=0
35376 On ch=4 n=63 v=88
35376 On ch=4 n=58 v=78
35393 On ch=4 n=63 v=0
35393 On ch=4 n=58 v=0
35400 On ch=4 n=55 v=88
35424 On ch=4 n=63 v=88
35424 On ch=4 n=58 v=73
35425 On ch=4 n=55 v=0
35439 On ch=4 n=63 v=0
35439 On ch=4 n=58 v=0
35448 On ch=4 n=55 v=94
35473 On ch=4 n=55 v=0
35496 On ch=4 n=63 v=85
35496 On ch=4 n=58 v=68
35509 On ch=4 n=63 v=0
35509 On ch=4 n=58 v=0
35520 On ch=4 n=50 v=94
35538 On ch=4 n=50 v=0
35544 On ch=4 n=53 v=58
35544 On ch=4 n=71 v=68
35550 On ch=4 n=71 v=0
35551 On ch=4 n=53 v=0
35568 On ch=4 n=62 v=88
35568 On ch=4 n=53 v=78
35585 On ch=4 n=62 v=0
35585 On ch=4 n=53 v=0
35592 On ch=4 n=59 v=88
35616 On ch=4 n=71 v=88
35616 On ch=4 n=53 v=73
35617 On ch=4 n=59 v=0
35631 On ch=4 n=71 v=0
35631 On ch=4 n=53 v=0
35640 On ch=4 n=50 v=94
35665 On ch=4 n=50 v=0
35688 On ch=4 n=62 v=85
35688 On ch=4 n=53 v=68
35701 On ch=4 n=62 v=0
35701 On ch=4 n=53 v=0
35712 On ch=4 n=56 v=94
35730 On ch=4 n=56 v=0
35736 On ch=4 n=53 v=58
35736 On ch=4 n=71 v=68
35742 On ch=4 n=71 v=0
35743 On ch=4 n=53 v=0
35760 On ch=4 n=68 v=88
35760 On ch=4 n=53 v=78
35777 On ch=4 n=68 v=0
35777 On ch=4 n=53 v=0
35784 On ch=4 n=59 v=88
35808 On ch=4 n=65 v=88
35808 On ch=4 n=56 v=73
35809 On ch=4 n=59 v=0
35823 On ch=4 n=65 v=0
35823 On ch=4 n=56 v=0
35832 On ch=4 n=59 v=94
35857 On ch=4 n=59 v=0
35880 On ch=4 n=68 v=85
35880 On ch=4 n=53 v=68
35893 On ch=4 n=68 v=0
35893 On ch=4 n=53 v=0
35904 On ch=4 n=48 v=88
35927 On ch=4 n=48 v=0
35928 On ch=4 n=51 v=86
35945 On ch=4 n=51 v=0
35952 On ch=4 n=55 v=74
35952 On ch=4 n=63 v=86
35964 On ch=4 n=55 v=0
35965 On ch=4 n=63 v=0
35976 On ch=4 n=55 v=72
35976 On ch=4 n=60 v=82
35990 On ch=4 n=60 v=0
35992 On ch=4 n=55 v=0
36000 On ch=4 n=55 v=65
36000 On ch=4 n=60 v=78
36012 On ch=4 n=60 v=0
36014 On ch=4 n=55 v=0
36024 On ch=4 n=51 v=76
36048 On ch=4 n=51 v=0
36072 On ch=4 n=63 v=86
36072 On ch=4 n=55 v=73
36083 On ch=4 n=63 v=0
36083 On ch=4 n=55 v=0
36096 On ch=4 n=51 v=94
36114 On ch=4 n=51 v=0
36120 On ch=4 n=55 v=58
36120 On ch=4 n=60 v=68
36126 On ch=4 n=60 v=0
36127 On ch=4 n=55 v=0
36144 On ch=4 n=63 v=88
36144 On ch=4 n=55 v=78
36161 On ch=4 n=63 v=0
36161 On ch=4 n=55 v=0
36168 On ch=4 n=48 v=88
36192 On ch=4 n=60 v=88
36192 On ch=4 n=55 v=73
36193 On ch=4 n=48 v=0
36207 On ch=4 n=60 v=0
36207 On ch=4 n=55 v=0
36216 On ch=4 n=51 v=94
36241 On ch=4 n=51 v=0
36264 On ch=4 n=63 v=85
36264 On ch=4 n=55 v=68
36277 On ch=4 n=63 v=0
36277 On ch=4 n=55 v=0
36312 On ch=4 n=48 v=80
36312 On ch=4 n=65 v=83
36322 On ch=4 n=48 v=0
36322 On ch=4 n=65 v=0
36336 On ch=4 n=56 v=99
36351 On ch=4 n=56 v=0
36360 On ch=4 n=68 v=85
36360 On ch=4 n=48 v=71
36369 On ch=4 n=48 v=0
36371 On ch=4 n=68 v=0
36384 On ch=4 n=65 v=88
36384 On ch=4 n=48 v=73
36393 On ch=4 n=48 v=0
36395 On ch=4 n=65 v=0
36408 On ch=4 n=53 v=90
36426 On ch=4 n=53 v=0
36432 On ch=4 n=68 v=86
36432 On ch=4 n=48 v=75
36441 On ch=4 n=68 v=0
36441 On ch=4 n=48 v=0
36456 On ch=4 n=65 v=85
36456 On ch=4 n=56 v=70
36470 On ch=4 n=65 v=0
36470 On ch=4 n=56 v=0
36504 On ch=4 n=50 v=80
36504 On ch=4 n=67 v=83
36514 On ch=4 n=50 v=0
36514 On ch=4 n=67 v=0
36528 On ch=4 n=59 v=99
36543 On ch=4 n=59 v=0
36552 On ch=4 n=65 v=85
36552 On ch=4 n=50 v=71
36561 On ch=4 n=50 v=0
36563 On ch=4 n=65 v=0
36576 On ch=4 n=67 v=88
36576 On ch=4 n=53 v=73
36585 On ch=4 n=53 v=0
36587 On ch=4 n=67 v=0
36600 On ch=4 n=59 v=90
36618 On ch=4 n=59 v=0
36624 On ch=4 n=67 v=86
36624 On ch=4 n=50 v=75
36633 On ch=4 n=67 v=0
36633 On ch=4 n=50 v=0
36648 On ch=4 n=65 v=85
36648 On ch=4 n=59 v=70
36662 On ch=4 n=65 v=0
36662 On ch=4 n=59 v=0
36696 On ch=4 n=55 v=80
36696 On ch=4 n=60 v=83
36706 On ch=4 n=55 v=0
36706 On ch=4 n=60 v=0
36720 On ch=4 n=51 v=99
36735 On ch=4 n=51 v=0
36744 On ch=4 n=63 v=85
36744 On ch=4 n=55 v=71
36753 On ch=4 n=55 v=0
36755 On ch=4 n=63 v=0
36768 On ch=4 n=60 v=88
36768 On ch=4 n=55 v=73
36777 On ch=4 n=55 v=0
36779 On ch=4 n=60 v=0
36792 On ch=4 n=48 v=90
36810 On ch=4 n=48 v=0
36816 On ch=4 n=63 v=86
36816 On ch=4 n=55 v=75
36825 On ch=4 n=63 v=0
36825 On ch=4 n=55 v=0
36840 On ch=4 n=60 v=85
36840 On ch=4 n=51 v=70
36854 On ch=4 n=60 v=0
36854 On ch=4 n=51 v=0
36888 On ch=4 n=48 v=80
36888 On ch=4 n=65 v=83
36898 On ch=4 n=48 v=0
36898 On ch=4 n=65 v=0
36912 On ch=4 n=56 v=99
36927 On ch=4 n=56 v=0
36936 On ch=4 n=68 v=85
36936 On ch=4 n=48 v=71
36945 On ch=4 n=48 v=0
36947 On ch=4 n=68 v=0
36960 On ch=4 n=65 v=88
36960 On ch=4 n=48 v=73
36969 On ch=4 n=48 v=0
36971 On ch=4 n=65 v=0
36984 On ch=4 n=53 v=90
37002 On ch=4 n=53 v=0
37008 On ch=4 n=68 v=86
37008 On ch=4 n=48 v=75
37017 On ch=4 n=68 v=0
37017 On ch=4 n=48 v=0
37032 On ch=4 n=65 v=85
37032 On ch=4 n=56 v=70
37046 On ch=4 n=65 v=0
37046 On ch=4 n=56 v=0
37080 On ch=4 n=53 v=80
37080 On ch=4 n=70 v=83
37090 On ch=4 n=53 v=0
37090 On ch=4 n=70 v=0
37104 On ch=4 n=50 v=99
37119 On ch=4 n=50 v=0
37128 On ch=4 n=62 v=85
37128 On ch=4 n=53 v=71
37137 On ch=4 n=53 v=0
37139 On ch=4 n=62 v=0
37152 On ch=4 n=70 v=88
37152 On ch=4 n=53 v=73
37161 On ch=4 n=53 v=0
37163 On ch=4 n=70 v=0
37176 On ch=4 n=58 v=90
37194 On ch=4 n=58 v=0
37200 On ch=4 n=62 v=86
37200 On ch=4 n=53 v=75
37209 On ch=4 n=62 v=0
37209 On ch=4 n=53 v=0
37224 On ch=4 n=70 v=85
37224 On ch=4 n=50 v=70
37238 On ch=4 n=70 v=0
37238 On ch=4 n=50 v=0
37248 On ch=4 n=51 v=94
37266 On ch=4 n=51 v=0
37272 On ch=4 n=58 v=58
37272 On ch=4 n=67 v=68
37278 On ch=4 n=67 v=0
37279 On ch=4 n=58 v=0
37296 On ch=4 n=63 v=88
37296 On ch=4 n=58 v=78
37313 On ch=4 n=63 v=0
37313 On ch=4 n=58 v=0
37320 On ch=4 n=55 v=88
37344 On ch=4 n=63 v=88
37344 On ch=4 n=58 v=73
37345 On ch=4 n=55 v=0
37359 On ch=4 n=63 v=0
37359 On ch=4 n=58 v=0
37368 On ch=4 n=55 v=94
37393 On ch=4 n=55 v=0
37416 On ch=4 n=63 v=85
37416 On ch=4 n=58 v=68
37429 On ch=4 n=63 v=0
37429 On ch=4 n=58 v=0
37440 On ch=4 n=56 v=88
37463 On ch=4 n=56 v=0
37464 On ch=4 n=51 v=86
37481 On ch=4 n=51 v=0
37488 On ch=4 n=48 v=74
37488 On ch=4 n=68 v=86
37500 On ch=4 n=48 v=0
37501 On ch=4 n=68 v=0
37512 On ch=4 n=51 v=72
37512 On ch=4 n=60 v=82
37526 On ch=4 n=60 v=0
37528 On ch=4 n=51 v=0
37536 On ch=4 n=51 v=65
37536 On ch=4 n=68 v=78
37548 On ch=4 n=68 v=0
37550 On ch=4 n=51 v=0
37560 On ch=4 n=48 v=76
37584 On ch=4 n=48 v=0
37608 On ch=4 n=68 v=86
37608 On ch=4 n=51 v=73
37619 On ch=4 n=68 v=0
37619 On ch=4 n=51 v=0
37656 On ch=4 n=48 v=80
37656 On ch=4 n=65 v=83
37666 On ch=4 n=48 v=0
37666 On ch=4 n=65 v=0
37680 On ch=4 n=56 v=99
37695 On ch=4 n=56 v=0
37704 On ch=4 n=68 v=85
37704 On ch=4 n=48 v=71
37713 On ch=4 n=48 v=0
37715 On ch=4 n=68 v=0
37728 On ch=4 n=65 v=88
37728 On ch=4 n=48 v=73
37737 On ch=4 n=48 v=0
37739 On ch=4 n=65 v=0
37752 On ch=4 n=53 v=90
37770 On ch=4 n=53 v=0
37776 On ch=4 n=68 v=86
37776 On ch=4 n=48 v=75
37785 On ch=4 n=68 v=0
37785 On ch=4 n=48 v=0
37800 On ch=4 n=65 v=85
37800 On ch=4 n=56 v=70
37814 On ch=4 n=65 v=0
37814 On ch=4 n=56 v=0
37824 On ch=4 n=55 v=88
37847 On ch=4 n=55 v=0
37848 On ch=4 n=59 v=86
37865 On ch=4 n=59 v=0
37872 On ch=4 n=50 v=74
37872 On ch=4 n=67 v=86
37884 On ch=4 n=50 v=0
37885 On ch=4 n=67 v=0
37896 On ch=4 n=50 v=72
37896 On ch=4 n=71 v=82
37910 On ch=4 n=71 v=0
37912 On ch=4 n=50 v=0
37920 On ch=4 n=50 v=65
37920 On ch=4 n=67 v=78
37932 On ch=4 n=67 v=0
37934 On ch=4 n=50 v=0
37944 On ch=4 n=59 v=76
37968 On ch=4 n=59 v=0
37992 On ch=4 n=67 v=86
37992 On ch=4 n=50 v=73
38003 On ch=4 n=67 v=0
38003 On ch=4 n=50 v=0
38016 On ch=4 n=48 v=88
38039 On ch=4 n=48 v=0
38040 On ch=4 n=51 v=86
38057 On ch=4 n=51 v=0
38064 On ch=4 n=55 v=74
38064 On ch=4 n=63 v=86
38076 On ch=4 n=55 v=0
38077 On ch=4 n=63 v=0
38088 On ch=4 n=55 v=72
38088 On ch=4 n=60 v=82
38102 On ch=4 n=60 v=0
38104 On ch=4 n=55 v=0
38112 On ch=4 n=55 v=65
38112 On ch=4 n=60 v=78
38124 On ch=4 n=60 v=0
38126 On ch=4 n=55 v=0
38136 On ch=4 n=51 v=76
38160 On ch=4 n=51 v=0
38184 On ch=4 n=63 v=86
38184 On ch=4 n=55 v=73
38195 On ch=4 n=63 v=0
38195 On ch=4 n=55 v=0
38232 On ch=4 n=55 v=80
38232 On ch=4 n=60 v=83
38242 On ch=4 n=55 v=0
38242 On ch=4 n=60 v=0
38256 On ch=4 n=52 v=99
38271 On ch=4 n=52 v=0
38280 On ch=4 n=60 v=85
38280 On ch=4 n=55 v=71
38289 On ch=4 n=55 v=0
38291 On ch=4 n=60 v=0
38304 On ch=4 n=64 v=88
38304 On ch=4 n=55 v=73
38313 On ch=4 n=55 v=0
38315 On ch=4 n=64 v=0
38328 On ch=4 n=48 v=90
38346 On ch=4 n=48 v=0
38352 On ch=4 n=64 v=86
38352 On ch=4 n=55 v=75
38361 On ch=4 n=64 v=0
38361 On ch=4 n=55 v=0
38376 On ch=4 n=60 v=85
38376 On ch=4 n=52 v=70
38390 On ch=4 n=60 v=0
38390 On ch=4 n=52 v=0
38400 On ch=4 n=53 v=88
38423 On ch=4 n=53 v=0
38424 On ch=4 n=56 v=86
38441 On ch=4 n=56 v=0
38448 On ch=4 n=48 v=74
38448 On ch=4 n=68 v=86
38460 On ch=4 n=48 v=0
38461 On ch=4 n=68 v=0
38472 On ch=4 n=48 v=72
38472 On ch=4 n=65 v=82
38486 On ch=4 n=65 v=0
38488 On ch=4 n=48 v=0
38496 On ch=4 n=48 v=65
38496 On ch=4 n=65 v=78
38508 On ch=4 n=65 v=0
38510 On ch=4 n=48 v=0
38520 On ch=4 n=56 v=76
38544 On ch=4 n=56 v=0
38568 On ch=4 n=68 v=86
38568 On ch=4 n=48 v=73
38579 On ch=4 n=68 v=0
38579 On ch=4 n=48 v=0
38592 On ch=4 n=50 v=94
38610 On ch=4 n=50 v=0
38616 On ch=4 n=53 v=58
38616 On ch=4 n=70 v=68
38622 On ch=4 n=70 v=0
38623 On ch=4 n=53 v=0
38640 On ch=4 n=62 v=88
38640 On ch=4 n=53 v=78
38657 On ch=4 n=62 v=0
38657 On ch=4 n=53 v=0
38664 On ch=4 n=58 v=88
38688 On ch=4 n=70 v=88
38688 On ch=4 n=53 v=73
38689 On ch=4 n=58 v=0
38703 On ch=4 n=70 v=0
38703 On ch=4 n=53 v=0
38712 On ch=4 n=50 v=94
38737 On ch=4 n=50 v=0
38760 On ch=4 n=62 v=85
38760 On ch=4 n=53 v=68
38773 On ch=4 n=62 v=0
38773 On ch=4 n=53 v=0
38784 On ch=4 n=51 v=88
38807 On ch=4 n=51 v=0
38808 On ch=4 n=55 v=86
38825 On ch=4 n=55 v=0
38832 On ch=4 n=58 v=74
38832 On ch=4 n=63 v=86
38844 On ch=4 n=58 v=0
38845 On ch=4 n=63 v=0
38856 On ch=4 n=58 v=72
38856 On ch=4 n=67 v=82
38870 On ch=4 n=67 v=0
38872 On ch=4 n=58 v=0
38880 On ch=4 n=58 v=65
38880 On ch=4 n=63 v=78
38892 On ch=4 n=63 v=0
38894 On ch=4 n=58 v=0
38904 On ch=4 n=55 v=76
38928 On ch=4 n=55 v=0
38952 On ch=4 n=63 v=86
38952 On ch=4 n=58 v=73
38963 On ch=4 n=63 v=0
38963 On ch=4 n=58 v=0
38976 On ch=4 n=56 v=94
38994 On ch=4 n=56 v=0
39000 On ch=4 n=51 v=58
39000 On ch=4 n=60 v=68
39006 On ch=4 n=60 v=0
39007 On ch=4 n=51 v=0
39024 On ch=4 n=68 v=88
39024 On ch=4 n=51 v=78
39041 On ch=4 n=68 v=0
39041 On ch=4 n=51 v=0
39048 On ch=4 n=48 v=88
39072 On ch=4 n=68 v=88
39072 On ch=4 n=51 v=73
39073 On ch=4 n=48 v=0
39087 On ch=4 n=68 v=0
39087 On ch=4 n=51 v=0
39096 On ch=4 n=48 v=94
39121 On ch=4 n=48 v=0
39144 On ch=4 n=68 v=85
39144 On ch=4 n=51 v=68
39157 On ch=4 n=68 v=0
39157 On ch=4 n=51 v=0
39168 On ch=4 n=53 v=88
39191 On ch=4 n=53 v=0
39192 On ch=4 n=56 v=86
39209 On ch=4 n=56 v=0
39216 On ch=4 n=48 v=74
39216 On ch=4 n=68 v=86
39228 On ch=4 n=48 v=0
39229 On ch=4 n=68 v=0
39240 On ch=4 n=48 v=72
39240 On ch=4 n=65 v=82
39254 On ch=4 n=65 v=0
39256 On ch=4 n=48 v=0
39264 On ch=4 n=48 v=65
39264 On ch=4 n=65 v=78
39276 On ch=4 n=65 v=0
39278 On ch=4 n=48 v=0
39288 On ch=4 n=56 v=76
39312 On ch=4 n=56 v=0
39336 On ch=4 n=68 v=86
39336 On ch=4 n=48 v=73
39347 On ch=4 n=68 v=0
39347 On ch=4 n=48 v=0
39360 On ch=4 n=55 v=94
39378 On ch=4 n=55 v=0
39384 On ch=4 n=50 v=58
39384 On ch=4 n=71 v=68
39390 On ch=4 n=71 v=0
39391 On ch=4 n=50 v=0
39408 On ch=4 n=67 v=88
39408 On ch=4 n=50 v=78
39425 On ch=4 n=67 v=0
39425 On ch=4 n=50 v=0
39432 On ch=4 n=59 v=88
39456 On ch=4 n=67 v=88
39456 On ch=4 n=50 v=73
39457 On ch=4 n=59 v=0
39471 On ch=4 n=67 v=0
39471 On ch=4 n=50 v=0
39480 On ch=4 n=59 v=94
39505 On ch=4 n=59 v=0
39528 On ch=4 n=67 v=85
39528 On ch=4 n=50 v=68
39541 On ch=4 n=67 v=0
39541 On ch=4 n=50 v=0
39552 On ch=4 n=48 v=88
39575 On ch=4 n=48 v=0
39576 On ch=4 n=51 v=86
39593 On ch=4 n=51 v=0
39600 On ch=4 n=55 v=74
39600 On ch=4 n=63 v=86
39612 On ch=4 n=55 v=0
39613 On ch=4 n=63 v=0
39624 On ch=4 n=55 v=72
39624 On ch=4 n=60 v=82
39638 On ch=4 n=60 v=0
39640 On ch=4 n=55 v=0
39648 On ch=4 n=55 v=65
39648 On ch=4 n=60 v=78
39660 On ch=4 n=60 v=0
39662 On ch=4 n=55 v=0
39672 On ch=4 n=51 v=76
39696 On ch=4 n=51 v=0
39720 On ch=4 n=63 v=86
39720 On ch=4 n=55 v=73
39731 On ch=4 n=63 v=0
39731 On ch=4 n=55 v=0
39744 On ch=4 n=51 v=94
39762 On ch=4 n=51 v=0
39768 On ch=4 n=55 v=58
39768 On ch=4 n=60 v=68
39774 On ch=4 n=60 v=0
39775 On ch=4 n=55 v=0
39792 On ch=4 n=63 v=88
39792 On ch=4 n=55 v=78
39809 On ch=4 n=63 v=0
39809 On ch=4 n=55 v=0
39816 On ch=4 n=48 v=88
39840 On ch=4 n=60 v=88
39840 On ch=4 n=55 v=73
39841 On ch=4 n=48 v=0
39855 On ch=4 n=60 v=0
39855 On ch=4 n=55 v=0
39864 On ch=4 n=51 v=94
39889 On ch=4 n=51 v=0
39912 On ch=4 n=63 v=85
39912 On ch=4 n=55 v=68
39925 On ch=4 n=63 v=0
39925 On ch=4 n=55 v=0
39936 On ch=4 n=48 v=88
39959 On ch=4 n=48 v=0
39960 On ch=4 n=51 v=86
39977 On ch=4 n=51 v=0
39984 On ch=4 n=55 v=74
39984 On ch=4 n=63 v=86
39996 On ch=4 n=55 v=0
39997 On ch=4 n=63 v=0
40008 On ch=4 n=55 v=72
40008 On ch=4 n=60 v=82
40022 On ch=4 n=60 v=0
40024 On ch=4 n=55 v=0
40032 On ch=4 n=55 v=65
40032 On ch=4 n=60 v=78
40044 On ch=4 n=60 v=0
40046 On ch=4 n=55 v=0
40056 On ch=4 n=51 v=76
40080 On ch=4 n=51 v=0
40104 On ch=4 n=63 v=86
40104 On ch=4 n=55 v=73
40115 On ch=4 n=63 v=0
40115 On ch=4 n=55 v=0
40128 On ch=4 n=48 v=88
40151 On ch=4 n=48 v=0
40152 On ch=4 n=51 v=86
40169 On ch=4 n=51 v=0
40176 On ch=4 n=55 v=74
40176 On ch=4 n=63 v=86
40188 On ch=4 n=55 v=0
40189 On ch=4 n=63 v=0
40200 On ch=4 n=55 v=72
40200 On ch=4 n=60 v=82
40214 On ch=4 n=60 v=0
40216 On ch=4 n=55 v=0
40224 On ch=4 n=55 v=65
40224 On ch=4 n=60 v=78
40236 On ch=4 n=60 v=0
40238 On ch=4 n=55 v=0
40248 On ch=4 n=51 v=76
40272 On ch=4 n=51 v=0
40296 On ch=4 n=63 v=86
40296 On ch=4 n=55 v=73
40307 On ch=4 n=63 v=0
40307 On ch=4 n=55 v=0
40307 Meta TrkEnd
TrkEnd
MTrk
0 Meta TrkName "Acoustic Guitar (nylon)"
0 PrCh ch=5 p=24
0 Par ch=5 c=7 v=100
0 Par ch=5 c=10 v=64
0 Par ch=5 c=11 v=127
0 Par ch=5 c=91 v=0
0 Par ch=5 c=93 v=0
0 Par ch=5 c=7 v=63
0 Par ch=5 c=10 v=64
144 On ch=5 n=80 v=78
150 On ch=5 n=80 v=0
168 On ch=5 n=77 v=73
173 On ch=5 n=77 v=0
360 On ch=5 n=74 v=55
369 On ch=5 n=74 v=0
384 On ch=5 n=75 v=85
392 On ch=5 n=75 v=0
408 On ch=5 n=70 v=73
408 On ch=5 n=79 v=72
413 On ch=5 n=70 v=0
416 On ch=5 n=79 v=0
432 On ch=5 n=70 v=62
432 On ch=5 n=75 v=61
437 On ch=5 n=70 v=0
440 On ch=5 n=75 v=0
456 On ch=5 n=67 v=51
456 On ch=5 n=70 v=53
456 On ch=5 n=75 v=52
461 On ch=5 n=67 v=0
461 On ch=5 n=70 v=0
464 On ch=5 n=75 v=0
480 On ch=5 n=67 v=43
480 On ch=5 n=70 v=45
480 On ch=5 n=75 v=44
485 On ch=5 n=67 v=0
485 On ch=5 n=70 v=0
488 On ch=5 n=75 v=0
504 On ch=5 n=67 v=36
504 On ch=5 n=70 v=38
509 On ch=5 n=67 v=0
509 On ch=5 n=70 v=0
528 On ch=5 n=63 v=30
533 On ch=5 n=63 v=0
552 On ch=5 n=67 v=25
557 On ch=5 n=67 v=0
744 On ch=5 n=80 v=55
753 On ch=5 n=80 v=0
912 On ch=5 n=80 v=78
918 On ch=5 n=80 v=0
936 On ch=5 n=77 v=73
941 On ch=5 n=77 v=0
960 On ch=5 n=79 v=85
968 On ch=5 n=79 v=0
984 On ch=5 n=62 v=73
984 On ch=5 n=83 v=72
989 On ch=5 n=62 v=0
992 On ch=5 n=83 v=0
1008 On ch=5 n=62 v=62
1008 On ch=5 n=79 v=61
1013 On ch=5 n=62 v=0
1016 On ch=5 n=79 v=0
1032 On ch=5 n=71 v=51
1032 On ch=5 n=62 v=53
1032 On ch=5 n=79 v=52
1037 On ch=5 n=71 v=0
1037 On ch=5 n=62 v=0
1040 On ch=5 n=79 v=0
1056 On ch=5 n=71 v=43
1056 On ch=5 n=62 v=45
1056 On ch=5 n=79 v=44
1061 On ch=5 n=71 v=0
1061 On ch=5 n=62 v=0
1064 On ch=5 n=79 v=0
1080 On ch=5 n=71 v=36
1080 On ch=5 n=62 v=38
1085 On ch=5 n=71 v=0
1085 On ch=5 n=62 v=0
1104 On ch=5 n=67 v=30
1109 On ch=5 n=67 v=0
1128 On ch=5 n=71 v=25
1133 On ch=5 n=71 v=0
1320 On ch=5 n=75 v=55
1329 On ch=5 n=75 v=0
1488 On ch=5 n=72 v=78
1494 On ch=5 n=72 v=0
1512 On ch=5 n=76 v=73
1517 On ch=5 n=76 v=0
1536 On ch=5 n=77 v=85
1544 On ch=5 n=77 v=0
1560 On ch=5 n=60 v=73
1560 On ch=5 n=80 v=72
1565 On ch=5 n=60 v=0
1568 On ch=5 n=80 v=0
1584 On ch=5 n=60 v=62
1584 On ch=5 n=77 v=61
1589 On ch=5 n=60 v=0
1592 On ch=5 n=77 v=0
1608 On ch=5 n=68 v=51
1608 On ch=5 n=60 v=53
1608 On ch=5 n=77 v=52
1613 On ch=5 n=68 v=0
1613 On ch=5 n=60 v=0
1616 On ch=5 n=77 v=0
1632 On ch=5 n=68 v=43
1632 On ch=5 n=60 v=45
1632 On ch=5 n=77 v=44
1637 On ch=5 n=68 v=0
1637 On ch=5 n=60 v=0
1640 On ch=5 n=77 v=0
1656 On ch=5 n=68 v=36
1656 On ch=5 n=60 v=38
1661 On ch=5 n=68 v=0
1661 On ch=5 n=60 v=0
1680 On ch=5 n=68 v=30
1685 On ch=5 n=68 v=0
1704 On ch=5 n=65 v=25
1709 On ch=5 n=65 v=0
1896 On ch=5 n=74 v=55
1905 On ch=5 n=74 v=0
2064 On ch=5 n=75 v=78
2070 On ch=5 n=75 v=0
2088 On ch=5 n=79 v=73
2093 On ch=5 n=79 v=0
2280 On ch=5 n=80 v=55
2289 On ch=5 n=80 v=0
2304 On ch=5 n=77 v=85
2312 On ch=5 n=77 v=0
2328 On ch=5 n=60 v=73
2328 On ch=5 n=80 v=72
2333 On ch=5 n=60 v=0
2336 On ch=5 n=80 v=0
2352 On ch=5 n=60 v=62
2352 On ch=5 n=77 v=61
2357 On ch=5 n=60 v=0
2360 On ch=5 n=77 v=0
2376 On ch=5 n=68 v=51
2376 On ch=5 n=60 v=53
2376 On ch=5 n=77 v=52
2381 On ch=5 n=68 v=0
2381 On ch=5 n=60 v=0
2384 On ch=5 n=77 v=0
2400 On ch=5 n=68 v=43
2400 On ch=5 n=60 v=45
2400 On ch=5 n=77 v=44
2405 On ch=5 n=68 v=0
2405 On ch=5 n=60 v=0
2408 On ch=5 n=77 v=0
2424 On ch=5 n=68 v=36
2424 On ch=5 n=60 v=38
2429 On ch=5 n=68 v=0
2429 On ch=5 n=60 v=0
2448 On ch=5 n=68 v=30
2453 On ch=5 n=68 v=0
2472 On ch=5 n=65 v=25
2477 On ch=5 n=65 v=0
2496 On ch=5 n=79 v=85
2504 On ch=5 n=79 v=0
2520 On ch=5 n=62 v=73
2520 On ch=5 n=83 v=72
2525 On ch=5 n=62 v=0
2528 On ch=5 n=83 v=0
2544 On ch=5 n=62 v=62
2544 On ch=5 n=79 v=61
2549 On ch=5 n=62 v=0
2552 On ch=5 n=79 v=0
2568 On ch=5 n=71 v=51
2568 On ch=5 n=62 v=53
2568 On ch=5 n=79 v=52
2573 On ch=5 n=71 v=0
2573 On ch=5 n=62 v=0
2576 On ch=5 n=79 v=0
2592 On ch=5 n=71 v=43
2592 On ch=5 n=62 v=45
2592 On ch=5 n=79 v=44
2597 On ch=5 n=71 v=0
2597 On ch=5 n=62 v=0
2600 On ch=5 n=79 v=0
2616 On ch=5 n=71 v=36
2616 On ch=5 n=62 v=38
2621 On ch=5 n=71 v=0
2621 On ch=5 n=62 v=0
2640 On ch=5 n=67 v=30
2645 On ch=5 n=67 v=0
2664 On ch=5 n=71 v=25
2669 On ch=5 n=71 v=0
2688 On ch=5 n=72 v=85
2696 On ch=5 n=72 v=0
2712 On ch=5 n=67 v=73
2712 On ch=5 n=75 v=72
2717 On ch=5 n=67 v=0
2720 On ch=5 n=75 v=0
2736 On ch=5 n=67 v=62
2736 On ch=5 n=72 v=61
2741 On ch=5 n=67 v=0
2744 On ch=5 n=72 v=0
2760 On ch=5 n=63 v=51
2760 On ch=5 n=67 v=53
2760 On ch=5 n=72 v=52
2765 On ch=5 n=63 v=0
2765 On ch=5 n=67 v=0
2768 On ch=5 n=72 v=0
2784 On ch=5 n=63 v=43
2784 On ch=5 n=67 v=45
2784 On ch=5 n=72 v=44
2789 On ch=5 n=63 v=0
2789 On ch=5 n=67 v=0
2792 On ch=5 n=72 v=0
2808 On ch=5 n=63 v=36
2808 On ch=5 n=67 v=38
2813 On ch=5 n=63 v=0
2813 On ch=5 n=67 v=0
2832 On ch=5 n=63 v=30
2837 On ch=5 n=63 v=0
2856 On ch=5 n=60 v=25
2861 On ch=5 n=60 v=0
2880 On ch=5 n=72 v=85
2888 On ch=5 n=72 v=0
2904 On ch=5 n=67 v=73
2904 On ch=5 n=75 v=72
2909 On ch=5 n=67 v=0
2912 On ch=5 n=75 v=0
2928 On ch=5 n=67 v=62
2928 On ch=5 n=72 v=61
2933 On ch=5 n=67 v=0
2936 On ch=5 n=72 v=0
2952 On ch=5 n=63 v=51
2952 On ch=5 n=67 v=53
2952 On ch=5 n=72 v=52
2957 On ch=5 n=63 v=0
2957 On ch=5 n=67 v=0
2960 On ch=5 n=72 v=0
2976 On ch=5 n=63 v=43
2976 On ch=5 n=67 v=45
2976 On ch=5 n=72 v=44
2981 On ch=5 n=63 v=0
2981 On ch=5 n=67 v=0
2984 On ch=5 n=72 v=0
3000 On ch=5 n=63 v=36
3000 On ch=5 n=67 v=38
3005 On ch=5 n=63 v=0
3005 On ch=5 n=67 v=0
3024 On ch=5 n=63 v=30
3029 On ch=5 n=63 v=0
3048 On ch=5 n=60 v=25
3053 On ch=5 n=60 v=0
3216 On ch=5 n=75 v=78
3222 On ch=5 n=75 v=0
3240 On ch=5 n=72 v=73
3245 On ch=5 n=72 v=0
3432 On ch=5 n=80 v=55
3441 On ch=5 n=80 v=0
3456 On ch=5 n=79 v=85
3464 On ch=5 n=79 v=0
3480 On ch=5 n=62 v=73
3480 On ch=5 n=83 v=72
3485 On ch=5 n=62 v=0
3488 On ch=5 n=83 v=0
3504 On ch=5 n=62 v=62
3504 On ch=5 n=79 v=61
3509 On ch=5 n=62 v=0
3512 On ch=5 n=79 v=0
3528 On ch=5 n=71 v=51
3528 On ch=5 n=62 v=53
3528 On ch=5 n=79 v=52
3533 On ch=5 n=71 v=0
3533 On ch=5 n=62 v=0
3536 On ch=5 n=79 v=0
3552 On ch=5 n=71 v=43
3552 On ch=5 n=62 v=45
3552 On ch=5 n=79 v=44
3557 On ch=5 n=71 v=0
3557 On ch=5 n=62 v=0
3560 On ch=5 n=79 v=0
3576 On ch=5 n=71 v=36
3576 On ch=5 n=62 v=38
3581 On ch=5 n=71 v=0
3581 On ch=5 n=62 v=0
3600 On ch=5 n=67 v=30
3605 On ch=5 n=67 v=0
3624 On ch=5 n=71 v=25
3629 On ch=5 n=71 v=0
3792 On ch=5 n=75 v=78
3798 On ch=5 n=75 v=0
3816 On ch=5 n=72 v=73
3821 On ch=5 n=72 v=0
3984 On ch=5 n=75 v=78
3990 On ch=5 n=75 v=0
4008 On ch=5 n=79 v=73
4013 On ch=5 n=79 v=0
4032 On ch=5 n=77 v=85
4040 On ch=5 n=77 v=0
4056 On ch=5 n=60 v=73
4056 On ch=5 n=80 v=72
4061 On ch=5 n=60 v=0
4064 On ch=5 n=80 v=0
4080 On ch=5 n=60 v=62
4080 On ch=5 n=77 v=61
4085 On ch=5 n=60 v=0
4088 On ch=5 n=77 v=0
4104 On ch=5 n=68 v=51
4104 On ch=5 n=60 v=53
4104 On ch=5 n=77 v=52
4109 On ch=5 n=68 v=0
4109 On ch=5 n=60 v=0
4112 On ch=5 n=77 v=0
4128 On ch=5 n=68 v=43
4128 On ch=5 n=60 v=45
4128 On ch=5 n=77 v=44
4133 On ch=5 n=68 v=0
4133 On ch=5 n=60 v=0
4136 On ch=5 n=77 v=0
4152 On ch=5 n=68 v=36
4152 On ch=5 n=60 v=38
4157 On ch=5 n=68 v=0
4157 On ch=5 n=60 v=0
4176 On ch=5 n=68 v=30
4181 On ch=5 n=68 v=0
4200 On ch=5 n=65 v=25
4205 On ch=5 n=65 v=0
4368 On ch=5 n=74 v=78
4374 On ch=5 n=74 v=0
4392 On ch=5 n=82 v=73
4397 On ch=5 n=82 v=0
4584 On ch=5 n=75 v=55
4593 On ch=5 n=75 v=0
4776 On ch=5 n=75 v=55
4785 On ch=5 n=75 v=0
4968 On ch=5 n=74 v=55
4977 On ch=5 n=74 v=0
4992 On ch=5 n=77 v=85
5000 On ch=5 n=77 v=0
5016 On ch=5 n=68 v=73
5016 On ch=5 n=83 v=72
5021 On ch=5 n=68 v=0
5024 On ch=5 n=83 v=0
5040 On ch=5 n=65 v=62
5040 On ch=5 n=80 v=61
5045 On ch=5 n=65 v=0
5048 On ch=5 n=80 v=0
5064 On ch=5 n=71 v=51
5064 On ch=5 n=65 v=53
5064 On ch=5 n=80 v=52
5069 On ch=5 n=71 v=0
5069 On ch=5 n=65 v=0
5072 On ch=5 n=80 v=0
5088 On ch=5 n=71 v=43
5088 On ch=5 n=65 v=45
5088 On ch=5 n=80 v=44
5093 On ch=5 n=71 v=0
5093 On ch=5 n=65 v=0
5096 On ch=5 n=80 v=0
5112 On ch=5 n=71 v=36
5112 On ch=5 n=65 v=38
5117 On ch=5 n=71 v=0
5117 On ch=5 n=65 v=0
5136 On ch=5 n=68 v=30
5141 On ch=5 n=68 v=0
5160 On ch=5 n=71 v=25
5165 On ch=5 n=71 v=0
5184 On ch=5 n=72 v=85
5192 On ch=5 n=72 v=0
5208 On ch=5 n=67 v=73
5208 On ch=5 n=75 v=72
5213 On ch=5 n=67 v=0
5216 On ch=5 n=75 v=0
5232 On ch=5 n=67 v=62
5232 On ch=5 n=72 v=61
5237 On ch=5 n=67 v=0
5240 On ch=5 n=72 v=0
5256 On ch=5 n=63 v=51
5256 On ch=5 n=67 v=53
5256 On ch=5 n=72 v=52
5261 On ch=5 n=63 v=0
5261 On ch=5 n=67 v=0
5264 On ch=5 n=72 v=0
5280 On ch=5 n=63 v=43
5280 On ch=5 n=67 v=45
5280 On ch=5 n=72 v=44
5285 On ch=5 n=63 v=0
5285 On ch=5 n=67 v=0
5288 On ch=5 n=72 v=0
5304 On ch=5 n=63 v=36
5304 On ch=5 n=67 v=38
5309 On ch=5 n=63 v=0
5309 On ch=5 n=67 v=0
5328 On ch=5 n=63 v=30
5333 On ch=5 n=63 v=0
5352 On ch=5 n=60 v=25
5357 On ch=5 n=60 v=0
5544 On ch=5 n=75 v=55
5553 On ch=5 n=75 v=0
5736 On ch=5 n=80 v=55
5745 On ch=5 n=80 v=0
5904 On ch=5 n=79 v=78
5910 On ch=5 n=79 v=0
5928 On ch=5 n=77 v=73
5933 On ch=5 n=77 v=0
5952 On ch=5 n=72 v=85
5960 On ch=5 n=72 v=0
5976 On ch=5 n=67 v=73
5976 On ch=5 n=75 v=72
5981 On ch=5 n=67 v=0
5984 On ch=5 n=75 v=0
6000 On ch=5 n=67 v=62
6000 On ch=5 n=72 v=61
6005 On ch=5 n=67 v=0
6008 On ch=5 n=72 v=0
6024 On ch=5 n=63 v=51
6024 On ch=5 n=67 v=53
6024 On ch=5 n=72 v=52
6029 On ch=5 n=63 v=0
6029 On ch=5 n=67 v=0
6032 On ch=5 n=72 v=0
6048 On ch=5 n=63 v=43
6048 On ch=5 n=67 v=45
6048 On ch=5 n=72 v=44
6053 On ch=5 n=63 v=0
6053 On ch=5 n=67 v=0
6056 On ch=5 n=72 v=0
6072 On ch=5 n=63 v=36
6072 On ch=5 n=67 v=38
6077 On ch=5 n=63 v=0
6077 On ch=5 n=67 v=0
6096 On ch=5 n=63 v=30
6101 On ch=5 n=63 v=0
6120 On ch=5 n=60 v=25
6125 On ch=5 n=60 v=0
6312 On ch=5 n=80 v=55
6321 On ch=5 n=80 v=0
6336 On ch=5 n=82 v=85
6344 On ch=5 n=82 v=0
6360 On ch=5 n=65 v=73
6360 On ch=5 n=74 v=72
6365 On ch=5 n=65 v=0
6368 On ch=5 n=74 v=0
6384 On ch=5 n=65 v=62
6384 On ch=5 n=82 v=61
6389 On ch=5 n=65 v=0
6392 On ch=5 n=82 v=0
6408 On ch=5 n=62 v=51
6408 On ch=5 n=65 v=53
6408 On ch=5 n=82 v=52
6413 On ch=5 n=62 v=0
6413 On ch=5 n=65 v=0
6416 On ch=5 n=82 v=0
6432 On ch=5 n=62 v=43
6432 On ch=5 n=65 v=45
6432 On ch=5 n=82 v=44
6437 On ch=5 n=62 v=0
6437 On ch=5 n=65 v=0
6440 On ch=5 n=82 v=0
6456 On ch=5 n=62 v=36
6456 On ch=5 n=65 v=38
6461 On ch=5 n=62 v=0
6461 On ch=5 n=65 v=0
6480 On ch=5 n=62 v=30
6485 On ch=5 n=62 v=0
6504 On ch=5 n=70 v=25
6509 On ch=5 n=70 v=0
6672 On ch=5 n=75 v=78
6678 On ch=5 n=75 v=0
6696 On ch=5 n=79 v=73
6701 On ch=5 n=79 v=0
6720 On ch=5 n=80 v=85
6728 On ch=5 n=80 v=0
6744 On ch=5 n=63 v=73
6744 On ch=5 n=72 v=72
6749 On ch=5 n=63 v=0
6752 On ch=5 n=72 v=0
6768 On ch=5 n=63 v=62
6768 On ch=5 n=80 v=61
6773 On ch=5 n=63 v=0
6776 On ch=5 n=80 v=0
6792 On ch=5 n=60 v=51
6792 On ch=5 n=63 v=53
6792 On ch=5 n=80 v=52
6797 On ch=5 n=60 v=0
6797 On ch=5 n=63 v=0
6800 On ch=5 n=80 v=0
6816 On ch=5 n=60 v=43
6816 On ch=5 n=63 v=45
6816 On ch=5 n=80 v=44
6821 On ch=5 n=60 v=0
6821 On ch=5 n=63 v=0
6824 On ch=5 n=80 v=0
6840 On ch=5 n=60 v=36
6840 On ch=5 n=63 v=38
6845 On ch=5 n=60 v=0
6845 On ch=5 n=63 v=0
6864 On ch=5 n=68 v=30
6869 On ch=5 n=68 v=0
6888 On ch=5 n=60 v=25
6893 On ch=5 n=60 v=0
7056 On ch=5 n=80 v=78
7062 On ch=5 n=80 v=0
7080 On ch=5 n=77 v=73
7085 On ch=5 n=77 v=0
7248 On ch=5 n=79 v=78
7254 On ch=5 n=79 v=0
7272 On ch=5 n=83 v=73
7277 On ch=5 n=83 v=0
7296 On ch=5 n=72 v=85
7304 On ch=5 n=72 v=0
7320 On ch=5 n=67 v=73
7320 On ch=5 n=75 v=72
7325 On ch=5 n=67 v=0
7328 On ch=5 n=75 v=0
7344 On ch=5 n=67 v=62
7344 On ch=5 n=72 v=61
7349 On ch=5 n=67 v=0
7352 On ch=5 n=72 v=0
7368 On ch=5 n=63 v=51
7368 On ch=5 n=67 v=53
7368 On ch=5 n=72 v=52
7373 On ch=5 n=63 v=0
7373 On ch=5 n=67 v=0
7376 On ch=5 n=72 v=0
7392 On ch=5 n=63 v=43
7392 On ch=5 n=67 v=45
7392 On ch=5 n=72 v=44
7397 On ch=5 n=63 v=0
7397 On ch=5 n=67 v=0
7400 On ch=5 n=72 v=0
7416 On ch=5 n=63 v=36
7416 On ch=5 n=67 v=38
7421 On ch=5 n=63 v=0
7421 On ch=5 n=67 v=0
7440 On ch=5 n=63 v=30
7445 On ch=5 n=63 v=0
7464 On ch=5 n=60 v=25
7469 On ch=5 n=60 v=0
7632 On ch=5 n=72 v=78
7638 On ch=5 n=72 v=0
7656 On ch=5 n=76 v=73
7661 On ch=5 n=76 v=0
7824 On ch=5 n=80 v=78
7830 On ch=5 n=80 v=0
7848 On ch=5 n=77 v=73
7853 On ch=5 n=77 v=0
8040 On ch=5 n=74 v=55
8049 On ch=5 n=74 v=0
8064 On ch=5 n=75 v=85
8072 On ch=5 n=75 v=0
8088 On ch=5 n=70 v=73
8088 On ch=5 n=79 v=72
8093 On ch=5 n=70 v=0
8096 On ch=5 n=79 v=0
8112 On ch=5 n=70 v=62
8112 On ch=5 n=75 v=61
8117 On ch=5 n=70 v=0
8120 On ch=5 n=75 v=0
8136 On ch=5 n=67 v=51
8136 On ch=5 n=70 v=53
8136 On ch=5 n=75 v=52
8141 On ch=5 n=67 v=0
8141 On ch=5 n=70 v=0
8144 On ch=5 n=75 v=0
8160 On ch=5 n=67 v=43
8160 On ch=5 n=70 v=45
8160 On ch=5 n=75 v=44
8165 On ch=5 n=67 v=0
8165 On ch=5 n=70 v=0
8168 On ch=5 n=75 v=0
8184 On ch=5 n=67 v=36
8184 On ch=5 n=70 v=38
8189 On ch=5 n=67 v=0
8189 On ch=5 n=70 v=0
8208 On ch=5 n=63 v=30
8213 On ch=5 n=63 v=0
8232 On ch=5 n=67 v=25
8237 On ch=5 n=67 v=0
8424 On ch=5 n=80 v=55
8433 On ch=5 n=80 v=0
8592 On ch=5 n=80 v=78
8598 On ch=5 n=80 v=0
8616 On ch=5 n=77 v=73
8621 On ch=5 n=77 v=0
8784 On ch=5 n=79 v=78
8790 On ch=5 n=79 v=0
8808 On ch=5 n=83 v=73
8813 On ch=5 n=83 v=0
8832 On ch=5 n=72 v=85
8840 On ch=5 n=72 v=0
8856 On ch=5 n=67 v=73
8856 On ch=5 n=75 v=72
8861 On ch=5 n=67 v=0
8864 On ch=5 n=75 v=0
8880 On ch=5 n=67 v=62
8880 On ch=5 n=72 v=61
8885 On ch=5 n=67 v=0
8888 On ch=5 n=72 v=0
8904 On ch=5 n=63 v=51
8904 On ch=5 n=67 v=53
8904 On ch=5 n=72 v=52
8909 On ch=5 n=63 v=0
8909 On ch=5 n=67 v=0
8912 On ch=5 n=72 v=0
8928 On ch=5 n=63 v=43
8928 On ch=5 n=67 v=45
8928 On ch=5 n=72 v=44
8933 On ch=5 n=63 v=0
8933 On ch=5 n=67 v=0
8936 On ch=5 n=72 v=0
8952 On ch=5 n=63 v=36
8952 On ch=5 n=67 v=38
8957 On ch=5 n=63 v=0
8957 On ch=5 n=67 v=0
8976 On ch=5 n=63 v=30
8981 On ch=5 n=63 v=0
9000 On ch=5 n=60 v=25
9005 On ch=5 n=60 v=0
9168 On ch=5 n=75 v=78
9174 On ch=5 n=75 v=0
9192 On ch=5 n=72 v=73
9197 On ch=5 n=72 v=0
9216 On ch=5 n=72 v=85
9224 On ch=5 n=72 v=0
9240 On ch=5 n=67 v=73
9240 On ch=5 n=75 v=72
9245 On ch=5 n=67 v=0
9248 On ch=5 n=75 v=0
9264 On ch=5 n=67 v=62
9264 On ch=5 n=72 v=61
9269 On ch=5 n=67 v=0
9272 On ch=5 n=72 v=0
9288 On ch=5 n=63 v=51
9288 On ch=5 n=67 v=53
9288 On ch=5 n=72 v=52
9293 On ch=5 n=63 v=0
9293 On ch=5 n=67 v=0
9296 On ch=5 n=72 v=0
9312 On ch=5 n=63 v=43
9312 On ch=5 n=67 v=45
9312 On ch=5 n=72 v=44
9317 On ch=5 n=63 v=0
9317 On ch=5 n=67 v=0
9320 On ch=5 n=72 v=0
9336 On ch=5 n=63 v=36
9336 On ch=5 n=67 v=38
9341 On ch=5 n=63 v=0
9341 On ch=5 n=67 v=0
9360 On ch=5 n=63 v=30
9365 On ch=5 n=63 v=0
9384 On ch=5 n=60 v=25
9389 On ch=5 n=60 v=0
9576 On ch=5 n=80 v=55
9585 On ch=5 n=80 v=0
9744 On ch=5 n=79 v=78
9750 On ch=5 n=79 v=0
9768 On ch=5 n=83 v=73
9773 On ch=5 n=83 v=0
9792 On ch=5 n=72 v=85
9800 On ch=5 n=72 v=0
9816 On ch=5 n=67 v=73
9816 On ch=5 n=75 v=72
9821 On ch=5 n=67 v=0
9824 On ch=5 n=75 v=0
9840 On ch=5 n=67 v=62
9840 On ch=5 n=72 v=61
9845 On ch=5 n=67 v=0
9848 On ch=5 n=72 v=0
9864 On ch=5 n=63 v=51
9864 On ch=5 n=67 v=53
9864 On ch=5 n=72 v=52
9869 On ch=5 n=63 v=0
9869 On ch=5 n=67 v=0
9872 On ch=5 n=72 v=0
9888 On ch=5 n=63 v=43
9888 On ch=5 n=67 v=45
9888 On ch=5 n=72 v=44
9893 On ch=5 n=63 v=0
9893 On ch=5 n=67 v=0
9896 On ch=5 n=72 v=0
9912 On ch=5 n=63 v=36
9912 On ch=5 n=67 v=38
9917 On ch=5 n=63 v=0
9917 On ch=5 n=67 v=0
9936 On ch=5 n=63 v=30
9941 On ch=5 n=63 v=0
9960 On ch=5 n=60 v=25
9965 On ch=5 n=60 v=0
10128 On ch=5 n=75 v=78
10134 On ch=5 n=75 v=0
10152 On ch=5 n=79 v=73
10157 On ch=5 n=79 v=0
10344 On ch=5 n=80 v=55
10353 On ch=5 n=80 v=0
10368 On ch=5 n=82 v=85
10376 On ch=5 n=82 v=0
10392 On ch=5 n=65 v=73
10392 On ch=5 n=74 v=72
10397 On ch=5 n=65 v=0
10400 On ch=5 n=74 v=0
10416 On ch=5 n=65 v=62
10416 On ch=5 n=82 v=61
10421 On ch=5 n=65 v=0
10424 On ch=5 n=82 v=0
10440 On ch=5 n=62 v=51
10440 On ch=5 n=65 v=53
10440 On ch=5 n=82 v=52
10445 On ch=5 n=62 v=0
10445 On ch=5 n=65 v=0
10448 On ch=5 n=82 v=0
10464 On ch=5 n=62 v=43
10464 On ch=5 n=65 v=45
10464 On ch=5 n=82 v=44
10469 On ch=5 n=62 v=0
10469 On ch=5 n=65 v=0
10472 On ch=5 n=82 v=0
10488 On ch=5 n=62 v=36
10488 On ch=5 n=65 v=38
10493 On ch=5 n=62 v=0
10493 On ch=5 n=65 v=0
10512 On ch=5 n=62 v=30
10517 On ch=5 n=62 v=0
10536 On ch=5 n=70 v=25
10541 On ch=5 n=70 v=0
10728 On ch=5 n=75 v=55
10737 On ch=5 n=75 v=0
10752 On ch=5 n=75 v=85
10760 On ch=5 n=75 v=0
10776 On ch=5 n=70 v=73
10776 On ch=5 n=79 v=72
10781 On ch=5 n=70 v=0
10784 On ch=5 n=79 v=0
10800 On ch=5 n=70 v=62
10800 On ch=5 n=75 v=61
10805 On ch=5 n=70 v=0
10808 On ch=5 n=75 v=0
10824 On ch=5 n=67 v=51
10824 On ch=5 n=70 v=53
10824 On ch=5 n=75 v=52
10829 On ch=5 n=67 v=0
10829 On ch=5 n=70 v=0
10832 On ch=5 n=75 v=0
10848 On ch=5 n=67 v=43
10848 On ch=5 n=70 v=45
10848 On ch=5 n=75 v=44
10853 On ch=5 n=67 v=0
10853 On ch=5 n=70 v=0
10856 On ch=5 n=75 v=0
10872 On ch=5 n=67 v=36
10872 On ch=5 n=70 v=38
10877 On ch=5 n=67 v=0
10877 On ch=5 n=70 v=0
10896 On ch=5 n=63 v=30
10901 On ch=5 n=63 v=0
10920 On ch=5 n=67 v=25
10925 On ch=5 n=67 v=0
10944 On ch=5 n=83 v=85
10952 On ch=5 n=83 v=0
10968 On ch=5 n=65 v=73
10968 On ch=5 n=74 v=72
10973 On ch=5 n=65 v=0
10976 On ch=5 n=74 v=0
10992 On ch=5 n=65 v=62
10992 On ch=5 n=83 v=61
10997 On ch=5 n=65 v=0
11000 On ch=5 n=83 v=0
11016 On ch=5 n=62 v=51
11016 On ch=5 n=65 v=53
11016 On ch=5 n=83 v=52
11021 On ch=5 n=62 v=0
11021 On ch=5 n=65 v=0
11024 On ch=5 n=83 v=0
11040 On ch=5 n=62 v=43
11040 On ch=5 n=65 v=45
11040 On ch=5 n=83 v=44
11045 On ch=5 n=62 v=0
11045 On ch=5 n=65 v=0
11048 On ch=5 n=83 v=0
11064 On ch=5 n=62 v=36
11064 On ch=5 n=65 v=38
11069 On ch=5 n=62 v=0
11069 On ch=5 n=65 v=0
11088 On ch=5 n=62 v=30
11093 On ch=5 n=62 v=0
11112 On ch=5 n=71 v=25
11117 On ch=5 n=71 v=0
11304 On ch=5 n=80 v=55
11313 On ch=5 n=80 v=0
11472 On ch=5 n=75 v=78
11478 On ch=5 n=75 v=0
11496 On ch=5 n=72 v=73
11501 On ch=5 n=72 v=0
11664 On ch=5 n=75 v=78
11670 On ch=5 n=75 v=0
11688 On ch=5 n=72 v=73
11693 On ch=5 n=72 v=0
11712 On ch=5 n=77 v=85
11720 On ch=5 n=77 v=0
11736 On ch=5 n=60 v=73
11736 On ch=5 n=80 v=72
11741 On ch=5 n=60 v=0
11744 On ch=5 n=80 v=0
11760 On ch=5 n=60 v=62
11760 On ch=5 n=77 v=61
11765 On ch=5 n=60 v=0
11768 On ch=5 n=77 v=0
11784 On ch=5 n=68 v=51
11784 On ch=5 n=60 v=53
11784 On ch=5 n=77 v=52
11789 On ch=5 n=68 v=0
11789 On ch=5 n=60 v=0
11792 On ch=5 n=77 v=0
11808 On ch=5 n=68 v=43
11808 On ch=5 n=60 v=45
11808 On ch=5 n=77 v=44
11813 On ch=5 n=68 v=0
11813 On ch=5 n=60 v=0
11816 On ch=5 n=77 v=0
11832 On ch=5 n=68 v=36
11832 On ch=5 n=60 v=38
11837 On ch=5 n=68 v=0
11837 On ch=5 n=60 v=0
11856 On ch=5 n=68 v=30
11861 On ch=5 n=68 v=0
11880 On ch=5 n=65 v=25
11885 On ch=5 n=65 v=0
12048 On ch=5 n=79 v=78
12054 On ch=5 n=79 v=0
12072 On ch=5 n=77 v=73
12077 On ch=5 n=77 v=0
12240 On ch=5 n=75 v=78
12246 On ch=5 n=75 v=0
12264 On ch=5 n=72 v=73
12269 On ch=5 n=72 v=0
12456 On ch=5 n=80 v=55
12465 On ch=5 n=80 v=0
12480 On ch=5 n=82 v=85
12488 On ch=5 n=82 v=0
12504 On ch=5 n=65 v=73
12504 On ch=5 n=74 v=72
12509 On ch=5 n=65 v=0
12512 On ch=5 n=74 v=0
12528 On ch=5 n=65 v=62
12528 On ch=5 n=82 v=61
12533 On ch=5 n=65 v=0
12536 On ch=5 n=82 v=0
12552 On ch=5 n=62 v=51
12552 On ch=5 n=65 v=53
12552 On ch=5 n=82 v=52
12557 On ch=5 n=62 v=0
12557 On ch=5 n=65 v=0
12560 On ch=5 n=82 v=0
12576 On ch=5 n=62 v=43
12576 On ch=5 n=65 v=45
12576 On ch=5 n=82 v=44
12581 On ch=5 n=62 v=0
12581 On ch=5 n=65 v=0
12584 On ch=5 n=82 v=0
12600 On ch=5 n=62 v=36
12600 On ch=5 n=65 v=38
12605 On ch=5 n=62 v=0
12605 On ch=5 n=65 v=0
12624 On ch=5 n=62 v=30
12629 On ch=5 n=62 v=0
12648 On ch=5 n=70 v=25
12653 On ch=5 n=70 v=0
12672 On ch=5 n=75 v=85
12680 On ch=5 n=75 v=0
12696 On ch=5 n=70 v=73
12696 On ch=5 n=79 v=72
12701 On ch=5 n=70 v=0
12704 On ch=5 n=79 v=0
12720 On ch=5 n=70 v=62
12720 On ch=5 n=75 v=61
12725 On ch=5 n=70 v=0
12728 On ch=5 n=75 v=0
12744 On ch=5 n=67 v=51
12744 On ch=5 n=70 v=53
12744 On ch=5 n=75 v=52
12749 On ch=5 n=67 v=0
12749 On ch=5 n=70 v=0
12752 On ch=5 n=75 v=0
12768 On ch=5 n=67 v=43
12768 On ch=5 n=70 v=45
12768 On ch=5 n=75 v=44
12773 On ch=5 n=67 v=0
12773 On ch=5 n=70 v=0
12776 On ch=5 n=75 v=0
12792 On ch=5 n=67 v=36
12792 On ch=5 n=70 v=38
12797 On ch=5 n=67 v=0
12797 On ch=5 n=70 v=0
12816 On ch=5 n=63 v=30
12821 On ch=5 n=63 v=0
12840 On ch=5 n=67 v=25
12845 On ch=5 n=67 v=0
12864 On ch=5 n=80 v=85
12872 On ch=5 n=80 v=0
12888 On ch=5 n=63 v=73
12888 On ch=5 n=72 v=72
12893 On ch=5 n=63 v=0
12896 On ch=5 n=72 v=0
12912 On ch=5 n=63 v=62
12912 On ch=5 n=80 v=61
12917 On ch=5 n=63 v=0
12920 On ch=5 n=80 v=0
12936 On ch=5 n=60 v=51
12936 On ch=5 n=63 v=53
12936 On ch=5 n=80 v=52
12941 On ch=5 n=60 v=0
12941 On ch=5 n=63 v=0
12944 On ch=5 n=80 v=0
12960 On ch=5 n=60 v=43
12960 On ch=5 n=63 v=45
12960 On ch=5 n=80 v=44
12965 On ch=5 n=60 v=0
12965 On ch=5 n=63 v=0
12968 On ch=5 n=80 v=0
12984 On ch=5 n=60 v=36
12984 On ch=5 n=63 v=38
12989 On ch=5 n=60 v=0
12989 On ch=5 n=63 v=0
13008 On ch=5 n=68 v=30
13013 On ch=5 n=68 v=0
13032 On ch=5 n=60 v=25
13037 On ch=5 n=60 v=0
13200 On ch=5 n=80 v=78
13206 On ch=5 n=80 v=0
13224 On ch=5 n=77 v=73
13229 On ch=5 n=77 v=0
13392 On ch=5 n=79 v=78
13398 On ch=5 n=79 v=0
13416 On ch=5 n=83 v=73
13421 On ch=5 n=83 v=0
13608 On ch=5 n=75 v=55
13617 On ch=5 n=75 v=0
13632 On ch=5 n=72 v=85
13640 On ch=5 n=72 v=0
13656 On ch=5 n=67 v=73
13656 On ch=5 n=76 v=72
13661 On ch=5 n=67 v=0
13664 On ch=5 n=76 v=0
13680 On ch=5 n=67 v=62
13680 On ch=5 n=72 v=61
13685 On ch=5 n=67 v=0
13688 On ch=5 n=72 v=0
13704 On ch=5 n=64 v=51
13704 On ch=5 n=67 v=53
13704 On ch=5 n=72 v=52
13709 On ch=5 n=64 v=0
13709 On ch=5 n=67 v=0
13712 On ch=5 n=72 v=0
13728 On ch=5 n=64 v=43
13728 On ch=5 n=67 v=45
13728 On ch=5 n=72 v=44
13733 On ch=5 n=64 v=0
13733 On ch=5 n=67 v=0
13736 On ch=5 n=72 v=0
13752 On ch=5 n=64 v=36
13752 On ch=5 n=67 v=38
13757 On ch=5 n=64 v=0
13757 On ch=5 n=67 v=0
13776 On ch=5 n=60 v=30
13781 On ch=5 n=60 v=0
13800 On ch=5 n=64 v=25
13805 On ch=5 n=64 v=0
13968 On ch=5 n=80 v=78
13974 On ch=5 n=80 v=0
13992 On ch=5 n=77 v=73
13997 On ch=5 n=77 v=0
14184 On ch=5 n=74 v=55
14193 On ch=5 n=74 v=0
14208 On ch=5 n=75 v=85
14216 On ch=5 n=75 v=0
14232 On ch=5 n=70 v=73
14232 On ch=5 n=79 v=72
14237 On ch=5 n=70 v=0
14240 On ch=5 n=79 v=0
14256 On ch=5 n=70 v=62
14256 On ch=5 n=75 v=61
14261 On ch=5 n=70 v=0
14264 On ch=5 n=75 v=0
14280 On ch=5 n=67 v=51
14280 On ch=5 n=70 v=53
14280 On ch=5 n=75 v=52
14285 On ch=5 n=67 v=0
14285 On ch=5 n=70 v=0
14288 On ch=5 n=75 v=0
14304 On ch=5 n=67 v=43
14304 On ch=5 n=70 v=45
14304 On ch=5 n=75 v=44
14309 On ch=5 n=67 v=0
14309 On ch=5 n=70 v=0
14312 On ch=5 n=75 v=0
14328 On ch=5 n=67 v=36
14328 On ch=5 n=70 v=38
14333 On ch=5 n=67 v=0
14333 On ch=5 n=70 v=0
14352 On ch=5 n=63 v=30
14357 On ch=5 n=63 v=0
14376 On ch=5 n=67 v=25
14381 On ch=5 n=67 v=0
14400 On ch=5 n=80 v=85
14408 On ch=5 n=80 v=0
14424 On ch=5 n=63 v=73
14424 On ch=5 n=72 v=72
14429 On ch=5 n=63 v=0
14432 On ch=5 n=72 v=0
14448 On ch=5 n=63 v=62
14448 On ch=5 n=80 v=61
14453 On ch=5 n=63 v=0
14456 On ch=5 n=80 v=0
14472 On ch=5 n=60 v=51
14472 On ch=5 n=63 v=53
14472 On ch=5 n=80 v=52
14477 On ch=5 n=60 v=0
14477 On ch=5 n=63 v=0
14480 On ch=5 n=80 v=0
14496 On ch=5 n=60 v=43
14496 On ch=5 n=63 v=45
14496 On ch=5 n=80 v=44
14501 On ch=5 n=60 v=0
14501 On ch=5 n=63 v=0
14504 On ch=5 n=80 v=0
14520 On ch=5 n=60 v=36
14520 On ch=5 n=63 v=38
14525 On ch=5 n=60 v=0
14525 On ch=5 n=63 v=0
14544 On ch=5 n=68 v=30
14549 On ch=5 n=68 v=0
14568 On ch=5 n=60 v=25
14573 On ch=5 n=60 v=0
14592 On ch=5 n=77 v=85
14600 On ch=5 n=77 v=0
14616 On ch=5 n=60 v=73
14616 On ch=5 n=80 v=72
14621 On ch=5 n=60 v=0
14624 On ch=5 n=80 v=0
14640 On ch=5 n=60 v=62
14640 On ch=5 n=77 v=61
14645 On ch=5 n=60 v=0
14648 On ch=5 n=77 v=0
14664 On ch=5 n=68 v=51
14664 On ch=5 n=60 v=53
14664 On ch=5 n=77 v=52
14669 On ch=5 n=68 v=0
14669 On ch=5 n=60 v=0
14672 On ch=5 n=77 v=0
14688 On ch=5 n=68 v=43
14688 On ch=5 n=60 v=45
14688 On ch=5 n=77 v=44
14693 On ch=5 n=68 v=0
14693 On ch=5 n=60 v=0
14696 On ch=5 n=77 v=0
14712 On ch=5 n=68 v=36
14712 On ch=5 n=60 v=38
14717 On ch=5 n=68 v=0
14717 On ch=5 n=60 v=0
14736 On ch=5 n=68 v=30
14741 On ch=5 n=68 v=0
14760 On ch=5 n=65 v=25
14765 On ch=5 n=65 v=0
14952 On ch=5 n=79 v=55
14961 On ch=5 n=79 v=0
14976 On ch=5 n=72 v=85
14984 On ch=5 n=72 v=0
15000 On ch=5 n=67 v=73
15000 On ch=5 n=75 v=72
15005 On ch=5 n=67 v=0
15008 On ch=5 n=75 v=0
15024 On ch=5 n=67 v=62
15024 On ch=5 n=72 v=61
15029 On ch=5 n=67 v=0
15032 On ch=5 n=72 v=0
15048 On ch=5 n=63 v=51
15048 On ch=5 n=67 v=53
15048 On ch=5 n=72 v=52
15053 On ch=5 n=63 v=0
15053 On ch=5 n=67 v=0
15056 On ch=5 n=72 v=0
15072 On ch=5 n=63 v=43
15072 On ch=5 n=67 v=45
15072 On ch=5 n=72 v=44
15077 On ch=5 n=63 v=0
15077 On ch=5 n=67 v=0
15080 On ch=5 n=72 v=0
15096 On ch=5 n=63 v=36
15096 On ch=5 n=67 v=38
15101 On ch=5 n=63 v=0
15101 On ch=5 n=67 v=0
15120 On ch=5 n=63 v=30
15125 On ch=5 n=63 v=0
15144 On ch=5 n=60 v=25
15149 On ch=5 n=60 v=0
15336 On ch=5 n=75 v=55
15345 On ch=5 n=75 v=0
15504 On ch=5 n=75 v=78
15510 On ch=5 n=75 v=0
15528 On ch=5 n=72 v=73
15533 On ch=5 n=72 v=0
15552 On ch=5 n=77 v=85
15560 On ch=5 n=77 v=0
15576 On ch=5 n=60 v=73
15576 On ch=5 n=80 v=72
15581 On ch=5 n=60 v=0
15584 On ch=5 n=80 v=0
15600 On ch=5 n=60 v=62
15600 On ch=5 n=77 v=61
15605 On ch=5 n=60 v=0
15608 On ch=5 n=77 v=0
15624 On ch=5 n=68 v=51
15624 On ch=5 n=60 v=53
15624 On ch=5 n=77 v=52
15629 On ch=5 n=68 v=0
15629 On ch=5 n=60 v=0
15632 On ch=5 n=77 v=0
15648 On ch=5 n=68 v=43
15648 On ch=5 n=60 v=45
15648 On ch=5 n=77 v=44
15653 On ch=5 n=68 v=0
15653 On ch=5 n=60 v=0
15656 On ch=5 n=77 v=0
15672 On ch=5 n=68 v=36
15672 On ch=5 n=60 v=38
15677 On ch=5 n=68 v=0
15677 On ch=5 n=60 v=0
15696 On ch=5 n=68 v=30
15701 On ch=5 n=68 v=0
15720 On ch=5 n=65 v=25
15725 On ch=5 n=65 v=0
15888 On ch=5 n=79 v=78
15894 On ch=5 n=79 v=0
15912 On ch=5 n=83 v=73
15917 On ch=5 n=83 v=0
16080 On ch=5 n=75 v=78
16086 On ch=5 n=75 v=0
16104 On ch=5 n=72 v=73
16109 On ch=5 n=72 v=0
16296 On ch=5 n=75 v=55
16305 On ch=5 n=75 v=0
16464 On ch=5 n=80 v=78
16470 On ch=5 n=80 v=0
16488 On ch=5 n=77 v=73
16493 On ch=5 n=77 v=0
16680 On ch=5 n=74 v=55
16689 On ch=5 n=74 v=0
16704 On ch=5 n=75 v=85
16712 On ch=5 n=75 v=0
16728 On ch=5 n=70 v=73
16728 On ch=5 n=79 v=72
16733 On ch=5 n=70 v=0
16736 On ch=5 n=79 v=0
16752 On ch=5 n=70 v=62
16752 On ch=5 n=75 v=61
16757 On ch=5 n=70 v=0
16760 On ch=5 n=75 v=0
16776 On ch=5 n=67 v=51
16776 On ch=5 n=70 v=53
16776 On ch=5 n=75 v=52
16781 On ch=5 n=67 v=0
16781 On ch=5 n=70 v=0
16784 On ch=5 n=75 v=0
16800 On ch=5 n=67 v=43
16800 On ch=5 n=70 v=45
16800 On ch=5 n=75 v=44
16805 On ch=5 n=67 v=0
16805 On ch=5 n=70 v=0
16808 On ch=5 n=75 v=0
16824 On ch=5 n=67 v=36
16824 On ch=5 n=70 v=38
16829 On ch=5 n=67 v=0
16829 On ch=5 n=70 v=0
16848 On ch=5 n=63 v=30
16853 On ch=5 n=63 v=0
16872 On ch=5 n=67 v=25
16877 On ch=5 n=67 v=0
16896 On ch=5 n=75 v=85
16904 On ch=5 n=75 v=0
16920 On ch=5 n=70 v=73
16920 On ch=5 n=79 v=72
16925 On ch=5 n=70 v=0
16928 On ch=5 n=79 v=0
16944 On ch=5 n=70 v=62
16944 On ch=5 n=75 v=61
16949 On ch=5 n=70 v=0
16952 On ch=5 n=75 v=0
16968 On ch=5 n=67 v=51
16968 On ch=5 n=70 v=53
16968 On ch=5 n=75 v=52
16973 On ch=5 n=67 v=0
16973 On ch=5 n=70 v=0
16976 On ch=5 n=75 v=0
16992 On ch=5 n=67 v=43
16992 On ch=5 n=70 v=45
16992 On ch=5 n=75 v=44
16997 On ch=5 n=67 v=0
16997 On ch=5 n=70 v=0
17000 On ch=5 n=75 v=0
17016 On ch=5 n=67 v=36
17016 On ch=5 n=70 v=38
17021 On ch=5 n=67 v=0
17021 On ch=5 n=70 v=0
17040 On ch=5 n=63 v=30
17045 On ch=5 n=63 v=0
17064 On ch=5 n=67 v=25
17069 On ch=5 n=67 v=0
17256 On ch=5 n=74 v=55
17265 On ch=5 n=74 v=0
17424 On ch=5 n=80 v=78
17430 On ch=5 n=80 v=0
17448 On ch=5 n=77 v=73
17453 On ch=5 n=77 v=0
17472 On ch=5 n=72 v=85
17480 On ch=5 n=72 v=0
17496 On ch=5 n=67 v=73
17496 On ch=5 n=75 v=72
17501 On ch=5 n=67 v=0
17504 On ch=5 n=75 v=0
17520 On ch=5 n=67 v=62
17520 On ch=5 n=72 v=61
17525 On ch=5 n=67 v=0
17528 On ch=5 n=72 v=0
17544 On ch=5 n=63 v=51
17544 On ch=5 n=67 v=53
17544 On ch=5 n=72 v=52
17549 On ch=5 n=63 v=0
17549 On ch=5 n=67 v=0
17552 On ch=5 n=72 v=0
17568 On ch=5 n=63 v=43
17568 On ch=5 n=67 v=45
17568 On ch=5 n=72 v=44
17573 On ch=5 n=63 v=0
17573 On ch=5 n=67 v=0
17576 On ch=5 n=72 v=0
17592 On ch=5 n=63 v=36
17592 On ch=5 n=67 v=38
17597 On ch=5 n=63 v=0
17597 On ch=5 n=67 v=0
17616 On ch=5 n=63 v=30
17621 On ch=5 n=63 v=0
17640 On ch=5 n=60 v=25
17645 On ch=5 n=60 v=0
17832 On ch=5 n=75 v=55
17841 On ch=5 n=75 v=0
17856 On ch=5 n=77 v=85
17864 On ch=5 n=77 v=0
17880 On ch=5 n=60 v=73
17880 On ch=5 n=80 v=72
17885 On ch=5 n=60 v=0
17888 On ch=5 n=80 v=0
17904 On ch=5 n=60 v=62
17904 On ch=5 n=77 v=61
17909 On ch=5 n=60 v=0
17912 On ch=5 n=77 v=0
17928 On ch=5 n=68 v=51
17928 On ch=5 n=60 v=53
17928 On ch=5 n=77 v=52
17933 On ch=5 n=68 v=0
17933 On ch=5 n=60 v=0
17936 On ch=5 n=77 v=0
17952 On ch=5 n=68 v=43
17952 On ch=5 n=60 v=45
17952 On ch=5 n=77 v=44
17957 On ch=5 n=68 v=0
17957 On ch=5 n=60 v=0
17960 On ch=5 n=77 v=0
17976 On ch=5 n=68 v=36
17976 On ch=5 n=60 v=38
17981 On ch=5 n=68 v=0
17981 On ch=5 n=60 v=0
18000 On ch=5 n=68 v=30
18005 On ch=5 n=68 v=0
18024 On ch=5 n=65 v=25
18029 On ch=5 n=65 v=0
18192 On ch=5 n=79 v=78
18198 On ch=5 n=79 v=0
18216 On ch=5 n=77 v=73
18221 On ch=5 n=77 v=0
18240 On ch=5 n=72 v=85
18248 On ch=5 n=72 v=0
18264 On ch=5 n=67 v=73
18264 On ch=5 n=75 v=72
18269 On ch=5 n=67 v=0
18272 On ch=5 n=75 v=0
18288 On ch=5 n=67 v=62
18288 On ch=5 n=72 v=61
18293 On ch=5 n=67 v=0
18296 On ch=5 n=72 v=0
18312 On ch=5 n=63 v=51
18312 On ch=5 n=67 v=53
18312 On ch=5 n=72 v=52
18317 On ch=5 n=63 v=0
18317 On ch=5 n=67 v=0
18320 On ch=5 n=72 v=0
18336 On ch=5 n=63 v=43
18336 On ch=5 n=67 v=45
18336 On ch=5 n=72 v=44
18341 On ch=5 n=63 v=0
18341 On ch=5 n=67 v=0
18344 On ch=5 n=72 v=0
18360 On ch=5 n=63 v=36
18360 On ch=5 n=67 v=38
18365 On ch=5 n=63 v=0
18365 On ch=5 n=67 v=0
18384 On ch=5 n=63 v=30
18389 On ch=5 n=63 v=0
18408 On ch=5 n=60 v=25
18413 On ch=5 n=60 v=0
18600 On ch=5 n=80 v=55
18609 On ch=5 n=80 v=0
18624 On ch=5 n=82 v=85
18632 On ch=5 n=82 v=0
18648 On ch=5 n=65 v=73
18648 On ch=5 n=74 v=72
18653 On ch=5 n=65 v=0
18656 On ch=5 n=74 v=0
18672 On ch=5 n=65 v=62
18672 On ch=5 n=82 v=61
18677 On ch=5 n=65 v=0
18680 On ch=5 n=82 v=0
18696 On ch=5 n=62 v=51
18696 On ch=5 n=65 v=53
18696 On ch=5 n=82 v=52
18701 On ch=5 n=62 v=0
18701 On ch=5 n=65 v=0
18704 On ch=5 n=82 v=0
18720 On ch=5 n=62 v=43
18720 On ch=5 n=65 v=45
18720 On ch=5 n=82 v=44
18725 On ch=5 n=62 v=0
18725 On ch=5 n=65 v=0
18728 On ch=5 n=82 v=0
18744 On ch=5 n=62 v=36
18744 On ch=5 n=65 v=38
18749 On ch=5 n=62 v=0
18749 On ch=5 n=65 v=0
18768 On ch=5 n=62 v=30
18773 On ch=5 n=62 v=0
18792 On ch=5 n=70 v=25
18797 On ch=5 n=70 v=0
18984 On ch=5 n=75 v=55
18993 On ch=5 n=75 v=0
19008 On ch=5 n=80 v=85
19016 On ch=5 n=80 v=0
19032 On ch=5 n=63 v=73
19032 On ch=5 n=72 v=72
19037 On ch=5 n=63 v=0
19040 On ch=5 n=72 v=0
19056 On ch=5 n=63 v=62
19056 On ch=5 n=80 v=61
19061 On ch=5 n=63 v=0
19064 On ch=5 n=80 v=0
19080 On ch=5 n=60 v=51
19080 On ch=5 n=63 v=53
19080 On ch=5 n=80 v=52
19085 On ch=5 n=60 v=0
19085 On ch=5 n=63 v=0
19088 On ch=5 n=80 v=0
19104 On ch=5 n=60 v=43
19104 On ch=5 n=63 v=45
19104 On ch=5 n=80 v=44
19109 On ch=5 n=60 v=0
19109 On ch=5 n=63 v=0
19112 On ch=5 n=80 v=0
19128 On ch=5 n=60 v=36
19128 On ch=5 n=63 v=38
19133 On ch=5 n=60 v=0
19133 On ch=5 n=63 v=0
19152 On ch=5 n=68 v=30
19157 On ch=5 n=68 v=0
19176 On ch=5 n=60 v=25
19181 On ch=5 n=60 v=0
19368 On ch=5 n=80 v=55
19377 On ch=5 n=80 v=0
19392 On ch=5 n=79 v=85
19400 On ch=5 n=79 v=0
19416 On ch=5 n=62 v=73
19416 On ch=5 n=83 v=72
19421 On ch=5 n=62 v=0
19424 On ch=5 n=83 v=0
19440 On ch=5 n=62 v=62
19440 On ch=5 n=79 v=61
19445 On ch=5 n=62 v=0
19448 On ch=5 n=79 v=0
19464 On ch=5 n=71 v=51
19464 On ch=5 n=62 v=53
19464 On ch=5 n=79 v=52
19469 On ch=5 n=71 v=0
19469 On ch=5 n=62 v=0
19472 On ch=5 n=79 v=0
19488 On ch=5 n=71 v=43
19488 On ch=5 n=62 v=45
19488 On ch=5 n=79 v=44
19493 On ch=5 n=71 v=0
19493 On ch=5 n=62 v=0
19496 On ch=5 n=79 v=0
19512 On ch=5 n=71 v=36
19512 On ch=5 n=62 v=38
19517 On ch=5 n=71 v=0
19517 On ch=5 n=62 v=0
19536 On ch=5 n=67 v=30
19541 On ch=5 n=67 v=0
19560 On ch=5 n=71 v=25
19565 On ch=5 n=71 v=0
19584 On ch=5 n=72 v=85
19592 On ch=5 n=72 v=0
19608 On ch=5 n=67 v=73
19608 On ch=5 n=75 v=72
19613 On ch=5 n=67 v=0
19616 On ch=5 n=75 v=0
19632 On ch=5 n=67 v=62
19632 On ch=5 n=72 v=61
19637 On ch=5 n=67 v=0
19640 On ch=5 n=72 v=0
19656 On ch=5 n=63 v=51
19656 On ch=5 n=67 v=53
19656 On ch=5 n=72 v=52
19661 On ch=5 n=63 v=0
19661 On ch=5 n=67 v=0
19664 On ch=5 n=72 v=0
19680 On ch=5 n=63 v=43
19680 On ch=5 n=67 v=45
19680 On ch=5 n=72 v=44
19685 On ch=5 n=63 v=0
19685 On ch=5 n=67 v=0
19688 On ch=5 n=72 v=0
19704 On ch=5 n=63 v=36
19704 On ch=5 n=67 v=38
19709 On ch=5 n=63 v=0
19709 On ch=5 n=67 v=0
19728 On ch=5 n=63 v=30
19733 On ch=5 n=63 v=0
19752 On ch=5 n=60 v=25
19757 On ch=5 n=60 v=0
19944 On ch=5 n=72 v=55
19953 On ch=5 n=72 v=0
20112 On ch=5 n=80 v=78
20118 On ch=5 n=80 v=0
20136 On ch=5 n=77 v=73
20141 On ch=5 n=77 v=0
20160 On ch=5 n=82 v=85
20168 On ch=5 n=82 v=0
20184 On ch=5 n=65 v=73
20184 On ch=5 n=74 v=72
20189 On ch=5 n=65 v=0
20192 On ch=5 n=74 v=0
20208 On ch=5 n=65 v=62
20208 On ch=5 n=82 v=61
20213 On ch=5 n=65 v=0
20216 On ch=5 n=82 v=0
20232 On ch=5 n=62 v=51
20232 On ch=5 n=65 v=53
20232 On ch=5 n=82 v=52
20237 On ch=5 n=62 v=0
20237 On ch=5 n=65 v=0
20240 On ch=5 n=82 v=0
20256 On ch=5 n=62 v=43
20256 On ch=5 n=65 v=45
20256 On ch=5 n=82 v=44
20261 On ch=5 n=62 v=0
20261 On ch=5 n=65 v=0
20264 On ch=5 n=82 v=0
20280 On ch=5 n=62 v=36
20280 On ch=5 n=65 v=38
20285 On ch=5 n=62 v=0
20285 On ch=5 n=65 v=0
20304 On ch=5 n=62 v=30
20309 On ch=5 n=62 v=0
20328 On ch=5 n=70 v=25
20333 On ch=5 n=70 v=0
20352 On ch=5 n=75 v=85
20360 On ch=5 n=75 v=0
20376 On ch=5 n=70 v=73
20376 On ch=5 n=79 v=72
20381 On ch=5 n=70 v=0
20384 On ch=5 n=79 v=0
20400 On ch=5 n=70 v=62
20400 On ch=5 n=75 v=61
20405 On ch=5 n=70 v=0
20408 On ch=5 n=75 v=0
20424 On ch=5 n=67 v=51
20424 On ch=5 n=70 v=53
20424 On ch=5 n=75 v=52
20429 On ch=5 n=67 v=0
20429 On ch=5 n=70 v=0
20432 On ch=5 n=75 v=0
20448 On ch=5 n=67 v=43
20448 On ch=5 n=70 v=45
20448 On ch=5 n=75 v=44
20453 On ch=5 n=67 v=0
20453 On ch=5 n=70 v=0
20456 On ch=5 n=75 v=0
20472 On ch=5 n=67 v=36
20472 On ch=5 n=70 v=38
20477 On ch=5 n=67 v=0
20477 On ch=5 n=70 v=0
20496 On ch=5 n=63 v=30
20501 On ch=5 n=63 v=0
20520 On ch=5 n=67 v=25
20525 On ch=5 n=67 v=0
20688 On ch=5 n=80 v=78
20694 On ch=5 n=80 v=0
20712 On ch=5 n=75 v=73
20717 On ch=5 n=75 v=0
20880 On ch=5 n=80 v=78
20886 On ch=5 n=80 v=0
20904 On ch=5 n=77 v=73
20909 On ch=5 n=77 v=0
21072 On ch=5 n=79 v=78
21078 On ch=5 n=79 v=0
21096 On ch=5 n=83 v=73
21101 On ch=5 n=83 v=0
21264 On ch=5 n=75 v=78
21270 On ch=5 n=75 v=0
21288 On ch=5 n=72 v=73
21293 On ch=5 n=72 v=0
21456 On ch=5 n=75 v=78
21462 On ch=5 n=75 v=0
21480 On ch=5 n=72 v=73
21485 On ch=5 n=72 v=0
21672 On ch=5 n=75 v=55
21681 On ch=5 n=75 v=0
21696 On ch=5 n=77 v=85
21704 On ch=5 n=77 v=0
21720 On ch=5 n=60 v=73
21720 On ch=5 n=80 v=72
21725 On ch=5 n=60 v=0
21728 On ch=5 n=80 v=0
21744 On ch=5 n=60 v=62
21744 On ch=5 n=77 v=61
21749 On ch=5 n=60 v=0
21752 On ch=5 n=77 v=0
21768 On ch=5 n=68 v=51
21768 On ch=5 n=60 v=53
21768 On ch=5 n=77 v=52
21773 On ch=5 n=68 v=0
21773 On ch=5 n=60 v=0
21776 On ch=5 n=77 v=0
21792 On ch=5 n=68 v=43
21792 On ch=5 n=60 v=45
21792 On ch=5 n=77 v=44
21797 On ch=5 n=68 v=0
21797 On ch=5 n=60 v=0
21800 On ch=5 n=77 v=0
21816 On ch=5 n=68 v=36
21816 On ch=5 n=60 v=38
21821 On ch=5 n=68 v=0
21821 On ch=5 n=60 v=0
21840 On ch=5 n=68 v=30
21845 On ch=5 n=68 v=0
21864 On ch=5 n=65 v=25
21869 On ch=5 n=65 v=0
22056 On ch=5 n=79 v=55
22065 On ch=5 n=79 v=0
22080 On ch=5 n=72 v=85
22088 On ch=5 n=72 v=0
22104 On ch=5 n=67 v=73
22104 On ch=5 n=75 v=72
22109 On ch=5 n=67 v=0
22112 On ch=5 n=75 v=0
22128 On ch=5 n=67 v=62
22128 On ch=5 n=72 v=61
22133 On ch=5 n=67 v=0
22136 On ch=5 n=72 v=0
22152 On ch=5 n=63 v=51
22152 On ch=5 n=67 v=53
22152 On ch=5 n=72 v=52
22157 On ch=5 n=63 v=0
22157 On ch=5 n=67 v=0
22160 On ch=5 n=72 v=0
22176 On ch=5 n=63 v=43
22176 On ch=5 n=67 v=45
22176 On ch=5 n=72 v=44
22181 On ch=5 n=63 v=0
22181 On ch=5 n=67 v=0
22184 On ch=5 n=72 v=0
22200 On ch=5 n=63 v=36
22200 On ch=5 n=67 v=38
22205 On ch=5 n=63 v=0
22205 On ch=5 n=67 v=0
22224 On ch=5 n=63 v=30
22229 On ch=5 n=63 v=0
22248 On ch=5 n=60 v=25
22253 On ch=5 n=60 v=0
22416 On ch=5 n=75 v=78
22422 On ch=5 n=75 v=0
22440 On ch=5 n=79 v=73
22445 On ch=5 n=79 v=0
22608 On ch=5 n=80 v=78
22614 On ch=5 n=80 v=0
22632 On ch=5 n=77 v=73
22637 On ch=5 n=77 v=0
22800 On ch=5 n=74 v=78
22806 On ch=5 n=74 v=0
22824 On ch=5 n=82 v=73
22829 On ch=5 n=82 v=0
22992 On ch=5 n=75 v=78
22998 On ch=5 n=75 v=0
23016 On ch=5 n=79 v=73
23021 On ch=5 n=79 v=0
23184 On ch=5 n=75 v=78
23190 On ch=5 n=75 v=0
23208 On ch=5 n=79 v=73
23213 On ch=5 n=79 v=0
23376 On ch=5 n=74 v=78
23382 On ch=5 n=74 v=0
23400 On ch=5 n=83 v=73
23405 On ch=5 n=83 v=0
23568 On ch=5 n=80 v=78
23574 On ch=5 n=80 v=0
23592 On ch=5 n=77 v=73
23597 On ch=5 n=77 v=0
23760 On ch=5 n=75 v=78
23766 On ch=5 n=75 v=0
23784 On ch=5 n=72 v=73
23789 On ch=5 n=72 v=0
23976 On ch=5 n=75 v=55
23985 On ch=5 n=75 v=0
24000 On ch=5 n=77 v=85
24008 On ch=5 n=77 v=0
24024 On ch=5 n=60 v=73
24024 On ch=5 n=80 v=72
24029 On ch=5 n=60 v=0
24032 On ch=5 n=80 v=0
24048 On ch=5 n=60 v=62
24048 On ch=5 n=77 v=61
24053 On ch=5 n=60 v=0
24056 On ch=5 n=77 v=0
24072 On ch=5 n=68 v=51
24072 On ch=5 n=60 v=53
24072 On ch=5 n=77 v=52
24077 On ch=5 n=68 v=0
24077 On ch=5 n=60 v=0
24080 On ch=5 n=77 v=0
24096 On ch=5 n=68 v=43
24096 On ch=5 n=60 v=45
24096 On ch=5 n=77 v=44
24101 On ch=5 n=68 v=0
24101 On ch=5 n=60 v=0
24104 On ch=5 n=77 v=0
24120 On ch=5 n=68 v=36
24120 On ch=5 n=60 v=38
24125 On ch=5 n=68 v=0
24125 On ch=5 n=60 v=0
24144 On ch=5 n=68 v=30
24149 On ch=5 n=68 v=0
24168 On ch=5 n=65 v=25
24173 On ch=5 n=65 v=0
24336 On ch=5 n=79 v=78
24342 On ch=5 n=79 v=0
24360 On ch=5 n=77 v=73
24365 On ch=5 n=77 v=0
24528 On ch=5 n=75 v=78
24534 On ch=5 n=75 v=0
24552 On ch=5 n=72 v=73
24557 On ch=5 n=72 v=0
24720 On ch=5 n=80 v=78
24726 On ch=5 n=80 v=0
24744 On ch=5 n=77 v=73
24749 On ch=5 n=77 v=0
24912 On ch=5 n=74 v=78
24918 On ch=5 n=74 v=0
24936 On ch=5 n=82 v=73
24941 On ch=5 n=82 v=0
25104 On ch=5 n=75 v=78
25110 On ch=5 n=75 v=0
25128 On ch=5 n=79 v=73
25133 On ch=5 n=79 v=0
25152 On ch=5 n=80 v=85
25160 On ch=5 n=80 v=0
25176 On ch=5 n=63 v=73
25176 On ch=5 n=72 v=72
25181 On ch=5 n=63 v=0
25184 On ch=5 n=72 v=0
25200 On ch=5 n=63 v=62
25200 On ch=5 n=80 v=61
25205 On ch=5 n=63 v=0
25208 On ch=5 n=80 v=0
25224 On ch=5 n=60 v=51
25224 On ch=5 n=63 v=53
25224 On ch=5 n=80 v=52
25229 On ch=5 n=60 v=0
25229 On ch=5 n=63 v=0
25232 On ch=5 n=80 v=0
25248 On ch=5 n=60 v=43
25248 On ch=5 n=63 v=45
25248 On ch=5 n=80 v=44
25253 On ch=5 n=60 v=0
25253 On ch=5 n=63 v=0
25256 On ch=5 n=80 v=0
25272 On ch=5 n=60 v=36
25272 On ch=5 n=63 v=38
25277 On ch=5 n=60 v=0
25277 On ch=5 n=63 v=0
25296 On ch=5 n=68 v=30
25301 On ch=5 n=68 v=0
25320 On ch=5 n=60 v=25
25325 On ch=5 n=60 v=0
25512 On ch=5 n=80 v=55
25521 On ch=5 n=80 v=0
25680 On ch=5 n=79 v=78
25686 On ch=5 n=79 v=0
25704 On ch=5 n=83 v=73
25709 On ch=5 n=83 v=0
25872 On ch=5 n=75 v=78
25878 On ch=5 n=75 v=0
25896 On ch=5 n=72 v=73
25901 On ch=5 n=72 v=0
25920 On ch=5 n=72 v=85
25928 On ch=5 n=72 v=0
25944 On ch=5 n=67 v=73
25944 On ch=5 n=76 v=72
25949 On ch=5 n=67 v=0
25952 On ch=5 n=76 v=0
25968 On ch=5 n=67 v=62
25968 On ch=5 n=72 v=61
25973 On ch=5 n=67 v=0
25976 On ch=5 n=72 v=0
25992 On ch=5 n=64 v=51
25992 On ch=5 n=67 v=53
25992 On ch=5 n=72 v=52
25997 On ch=5 n=64 v=0
25997 On ch=5 n=67 v=0
26000 On ch=5 n=72 v=0
26016 On ch=5 n=64 v=43
26016 On ch=5 n=67 v=45
26016 On ch=5 n=72 v=44
26021 On ch=5 n=64 v=0
26021 On ch=5 n=67 v=0
26024 On ch=5 n=72 v=0
26040 On ch=5 n=64 v=36
26040 On ch=5 n=67 v=38
26045 On ch=5 n=64 v=0
26045 On ch=5 n=67 v=0
26064 On ch=5 n=60 v=30
26069 On ch=5 n=60 v=0
26088 On ch=5 n=64 v=25
26093 On ch=5 n=64 v=0
26112 On ch=5 n=77 v=85
26120 On ch=5 n=77 v=0
26136 On ch=5 n=60 v=73
26136 On ch=5 n=80 v=72
26141 On ch=5 n=60 v=0
26144 On ch=5 n=80 v=0
26160 On ch=5 n=60 v=62
26160 On ch=5 n=77 v=61
26165 On ch=5 n=60 v=0
26168 On ch=5 n=77 v=0
26184 On ch=5 n=68 v=51
26184 On ch=5 n=60 v=53
26184 On ch=5 n=77 v=52
26189 On ch=5 n=68 v=0
26189 On ch=5 n=60 v=0
26192 On ch=5 n=77 v=0
26208 On ch=5 n=68 v=43
26208 On ch=5 n=60 v=45
26208 On ch=5 n=77 v=44
26213 On ch=5 n=68 v=0
26213 On ch=5 n=60 v=0
26216 On ch=5 n=77 v=0
26232 On ch=5 n=68 v=36
26232 On ch=5 n=60 v=38
26237 On ch=5 n=68 v=0
26237 On ch=5 n=60 v=0
26256 On ch=5 n=68 v=30
26261 On ch=5 n=68 v=0
26280 On ch=5 n=65 v=25
26285 On ch=5 n=65 v=0
26472 On ch=5 n=74 v=55
26481 On ch=5 n=74 v=0
26640 On ch=5 n=75 v=78
26646 On ch=5 n=75 v=0
26664 On ch=5 n=79 v=73
26669 On ch=5 n=79 v=0
26832 On ch=5 n=80 v=78
26838 On ch=5 n=80 v=0
26856 On ch=5 n=75 v=73
26861 On ch=5 n=75 v=0
27024 On ch=5 n=80 v=78
27030 On ch=5 n=80 v=0
27048 On ch=5 n=77 v=73
27053 On ch=5 n=77 v=0
27216 On ch=5 n=79 v=78
27222 On ch=5 n=79 v=0
27240 On ch=5 n=83 v=73
27245 On ch=5 n=83 v=0
27264 On ch=5 n=72 v=85
27272 On ch=5 n=72 v=0
27288 On ch=5 n=67 v=73
27288 On ch=5 n=75 v=72
27293 On ch=5 n=67 v=0
27296 On ch=5 n=75 v=0
27312 On ch=5 n=67 v=62
27312 On ch=5 n=72 v=61
27317 On ch=5 n=67 v=0
27320 On ch=5 n=72 v=0
27336 On ch=5 n=63 v=51
27336 On ch=5 n=67 v=53
27336 On ch=5 n=72 v=52
27341 On ch=5 n=63 v=0
27341 On ch=5 n=67 v=0
27344 On ch=5 n=72 v=0
27360 On ch=5 n=63 v=43
27360 On ch=5 n=67 v=45
27360 On ch=5 n=72 v=44
27365 On ch=5 n=63 v=0
27365 On ch=5 n=67 v=0
27368 On ch=5 n=72 v=0
27384 On ch=5 n=63 v=36
27384 On ch=5 n=67 v=38
27389 On ch=5 n=63 v=0
27389 On ch=5 n=67 v=0
27408 On ch=5 n=63 v=30
27413 On ch=5 n=63 v=0
27432 On ch=5 n=60 v=25
27437 On ch=5 n=60 v=0
27456 On ch=5 n=72 v=85
27464 On ch=5 n=72 v=0
27480 On ch=5 n=67 v=73
27480 On ch=5 n=75 v=72
27485 On ch=5 n=67 v=0
27488 On ch=5 n=75 v=0
27504 On ch=5 n=67 v=62
27504 On ch=5 n=72 v=61
27509 On ch=5 n=67 v=0
27512 On ch=5 n=72 v=0
27528 On ch=5 n=63 v=51
27528 On ch=5 n=67 v=53
27528 On ch=5 n=72 v=52
27533 On ch=5 n=63 v=0
27533 On ch=5 n=67 v=0
27536 On ch=5 n=72 v=0
27552 On ch=5 n=63 v=43
27552 On ch=5 n=67 v=45
27552 On ch=5 n=72 v=44
27557 On ch=5 n=63 v=0
27557 On ch=5 n=67 v=0
27560 On ch=5 n=72 v=0
27576 On ch=5 n=63 v=36
27576 On ch=5 n=67 v=38
27581 On ch=5 n=63 v=0
27581 On ch=5 n=67 v=0
27600 On ch=5 n=63 v=30
27605 On ch=5 n=63 v=0
27624 On ch=5 n=60 v=25
27629 On ch=5 n=60 v=0
27816 On ch=5 n=75 v=55
27825 On ch=5 n=75 v=0
27840 On ch=5 n=77 v=85
27848 On ch=5 n=77 v=0
27864 On ch=5 n=60 v=73
27864 On ch=5 n=80 v=72
27869 On ch=5 n=60 v=0
27872 On ch=5 n=80 v=0
27888 On ch=5 n=60 v=62
27888 On ch=5 n=77 v=61
27893 On ch=5 n=60 v=0
27896 On ch=5 n=77 v=0
27912 On ch=5 n=68 v=51
27912 On ch=5 n=60 v=53
27912 On ch=5 n=77 v=52
27917 On ch=5 n=68 v=0
27917 On ch=5 n=60 v=0
27920 On ch=5 n=77 v=0
27936 On ch=5 n=68 v=43
27936 On ch=5 n=60 v=45
27936 On ch=5 n=77 v=44
27941 On ch=5 n=68 v=0
27941 On ch=5 n=60 v=0
27944 On ch=5 n=77 v=0
27960 On ch=5 n=68 v=36
27960 On ch=5 n=60 v=38
27965 On ch=5 n=68 v=0
27965 On ch=5 n=60 v=0
27984 On ch=5 n=68 v=30
27989 On ch=5 n=68 v=0
28008 On ch=5 n=65 v=25
28013 On ch=5 n=65 v=0
28176 On ch=5 n=79 v=78
28182 On ch=5 n=79 v=0
28200 On ch=5 n=83 v=73
28205 On ch=5 n=83 v=0
28392 On ch=5 n=75 v=55
28401 On ch=5 n=75 v=0
28560 On ch=5 n=75 v=78
28566 On ch=5 n=75 v=0
28584 On ch=5 n=79 v=73
28589 On ch=5 n=79 v=0
28608 On ch=5 n=77 v=85
28616 On ch=5 n=77 v=0
28632 On ch=5 n=60 v=73
28632 On ch=5 n=80 v=72
28637 On ch=5 n=60 v=0
28640 On ch=5 n=80 v=0
28656 On ch=5 n=60 v=62
28656 On ch=5 n=77 v=61
28661 On ch=5 n=60 v=0
28664 On ch=5 n=77 v=0
28680 On ch=5 n=68 v=51
28680 On ch=5 n=60 v=53
28680 On ch=5 n=77 v=52
28685 On ch=5 n=68 v=0
28685 On ch=5 n=60 v=0
28688 On ch=5 n=77 v=0
28704 On ch=5 n=68 v=43
28704 On ch=5 n=60 v=45
28704 On ch=5 n=77 v=44
28709 On ch=5 n=68 v=0
28709 On ch=5 n=60 v=0
28712 On ch=5 n=77 v=0
28728 On ch=5 n=68 v=36
28728 On ch=5 n=60 v=38
28733 On ch=5 n=68 v=0
28733 On ch=5 n=60 v=0
28752 On ch=5 n=68 v=30
28757 On ch=5 n=68 v=0
28776 On ch=5 n=65 v=25
28781 On ch=5 n=65 v=0
28800 On ch=5 n=82 v=85
28808 On ch=5 n=82 v=0
28824 On ch=5 n=65 v=73
28824 On ch=5 n=74 v=72
28829 On ch=5 n=65 v=0
28832 On ch=5 n=74 v=0
28848 On ch=5 n=65 v=62
28848 On ch=5 n=82 v=61
28853 On ch=5 n=65 v=0
28856 On ch=5 n=82 v=0
28872 On ch=5 n=62 v=51
28872 On ch=5 n=65 v=53
28872 On ch=5 n=82 v=52
28877 On ch=5 n=62 v=0
28877 On ch=5 n=65 v=0
28880 On ch=5 n=82 v=0
28896 On ch=5 n=62 v=43
28896 On ch=5 n=65 v=45
28896 On ch=5 n=82 v=44
28901 On ch=5 n=62 v=0
28901 On ch=5 n=65 v=0
28904 On ch=5 n=82 v=0
28920 On ch=5 n=62 v=36
28920 On ch=5 n=65 v=38
28925 On ch=5 n=62 v=0
28925 On ch=5 n=65 v=0
28944 On ch=5 n=62 v=30
28949 On ch=5 n=62 v=0
28968 On ch=5 n=70 v=25
28973 On ch=5 n=70 v=0
29136 On ch=5 n=75 v=78
29142 On ch=5 n=75 v=0
29160 On ch=5 n=79 v=73
29165 On ch=5 n=79 v=0
29328 On ch=5 n=75 v=78
29334 On ch=5 n=75 v=0
29352 On ch=5 n=79 v=73
29357 On ch=5 n=79 v=0
29376 On ch=5 n=83 v=85
29384 On ch=5 n=83 v=0
29400 On ch=5 n=65 v=73
29400 On ch=5 n=74 v=72
29405 On ch=5 n=65 v=0
29408 On ch=5 n=74 v=0
29424 On ch=5 n=65 v=62
29424 On ch=5 n=83 v=61
29429 On ch=5 n=65 v=0
29432 On ch=5 n=83 v=0
29448 On ch=5 n=62 v=51
29448 On ch=5 n=65 v=53
29448 On ch=5 n=83 v=52
29453 On ch=5 n=62 v=0
29453 On ch=5 n=65 v=0
29456 On ch=5 n=83 v=0
29472 On ch=5 n=62 v=43
29472 On ch=5 n=65 v=45
29472 On ch=5 n=83 v=44
29477 On ch=5 n=62 v=0
29477 On ch=5 n=65 v=0
29480 On ch=5 n=83 v=0
29496 On ch=5 n=62 v=36
29496 On ch=5 n=65 v=38
29501 On ch=5 n=62 v=0
29501 On ch=5 n=65 v=0
29520 On ch=5 n=62 v=30
29525 On ch=5 n=62 v=0
29544 On ch=5 n=71 v=25
29549 On ch=5 n=71 v=0
29712 On ch=5 n=80 v=78
29718 On ch=5 n=80 v=0
29736 On ch=5 n=77 v=73
29741 On ch=5 n=77 v=0
29928 On ch=5 n=75 v=55
29937 On ch=5 n=75 v=0
29952 On ch=5 n=72 v=85
29960 On ch=5 n=72 v=0
29976 On ch=5 n=67 v=73
29976 On ch=5 n=75 v=72
29981 On ch=5 n=67 v=0
29984 On ch=5 n=75 v=0
30000 On ch=5 n=67 v=62
30000 On ch=5 n=72 v=61
30005 On ch=5 n=67 v=0
30008 On ch=5 n=72 v=0
30024 On ch=5 n=63 v=51
30024 On ch=5 n=67 v=53
30024 On ch=5 n=72 v=52
30029 On ch=5 n=63 v=0
30029 On ch=5 n=67 v=0
30032 On ch=5 n=72 v=0
30048 On ch=5 n=63 v=43
30048 On ch=5 n=67 v=45
30048 On ch=5 n=72 v=44
30053 On ch=5 n=63 v=0
30053 On ch=5 n=67 v=0
30056 On ch=5 n=72 v=0
30072 On ch=5 n=63 v=36
30072 On ch=5 n=67 v=38
30077 On ch=5 n=63 v=0
30077 On ch=5 n=67 v=0
30096 On ch=5 n=63 v=30
30101 On ch=5 n=63 v=0
30120 On ch=5 n=60 v=25
30125 On ch=5 n=60 v=0
30144 On ch=5 n=77 v=85
30152 On ch=5 n=77 v=0
30168 On ch=5 n=60 v=73
30168 On ch=5 n=80 v=72
30173 On ch=5 n=60 v=0
30176 On ch=5 n=80 v=0
30192 On ch=5 n=60 v=62
30192 On ch=5 n=77 v=61
30197 On ch=5 n=60 v=0
30200 On ch=5 n=77 v=0
30216 On ch=5 n=68 v=51
30216 On ch=5 n=60 v=53
30216 On ch=5 n=77 v=52
30221 On ch=5 n=68 v=0
30221 On ch=5 n=60 v=0
30224 On ch=5 n=77 v=0
30240 On ch=5 n=68 v=43
30240 On ch=5 n=60 v=45
30240 On ch=5 n=77 v=44
30245 On ch=5 n=68 v=0
30245 On ch=5 n=60 v=0
30248 On ch=5 n=77 v=0
30264 On ch=5 n=68 v=36
30264 On ch=5 n=60 v=38
30269 On ch=5 n=68 v=0
30269 On ch=5 n=60 v=0
30288 On ch=5 n=68 v=30
30293 On ch=5 n=68 v=0
30312 On ch=5 n=65 v=25
30317 On ch=5 n=65 v=0
30480 On ch=5 n=79 v=78
30486 On ch=5 n=79 v=0
30504 On ch=5 n=77 v=73
30509 On ch=5 n=77 v=0
30696 On ch=5 n=75 v=55
30705 On ch=5 n=75 v=0
30888 On ch=5 n=80 v=55
30897 On ch=5 n=80 v=0
31056 On ch=5 n=74 v=78
31062 On ch=5 n=74 v=0
31080 On ch=5 n=82 v=73
31085 On ch=5 n=82 v=0
31104 On ch=5 n=75 v=85
31112 On ch=5 n=75 v=0
31128 On ch=5 n=70 v=73
31128 On ch=5 n=79 v=72
31133 On ch=5 n=70 v=0
31136 On ch=5 n=79 v=0
31152 On ch=5 n=70 v=62
31152 On ch=5 n=75 v=61
31157 On ch=5 n=70 v=0
31160 On ch=5 n=75 v=0
31176 On ch=5 n=67 v=51
31176 On ch=5 n=70 v=53
31176 On ch=5 n=75 v=52
31181 On ch=5 n=67 v=0
31181 On ch=5 n=70 v=0
31184 On ch=5 n=75 v=0
31200 On ch=5 n=67 v=43
31200 On ch=5 n=70 v=45
31200 On ch=5 n=75 v=44
31205 On ch=5 n=67 v=0
31205 On ch=5 n=70 v=0
31208 On ch=5 n=75 v=0
31224 On ch=5 n=67 v=36
31224 On ch=5 n=70 v=38
31229 On ch=5 n=67 v=0
31229 On ch=5 n=70 v=0
31248 On ch=5 n=63 v=30
31253 On ch=5 n=63 v=0
31272 On ch=5 n=67 v=25
31277 On ch=5 n=67 v=0
31440 On ch=5 n=80 v=78
31446 On ch=5 n=80 v=0
31464 On ch=5 n=75 v=73
31469 On ch=5 n=75 v=0
31656 On ch=5 n=80 v=55
31665 On ch=5 n=80 v=0
31848 On ch=5 n=79 v=55
31857 On ch=5 n=79 v=0
31872 On ch=5 n=72 v=85
31880 On ch=5 n=72 v=0
31896 On ch=5 n=67 v=73
31896 On ch=5 n=75 v=72
31901 On ch=5 n=67 v=0
31904 On ch=5 n=75 v=0
31920 On ch=5 n=67 v=62
31920 On ch=5 n=72 v=61
31925 On ch=5 n=67 v=0
31928 On ch=5 n=72 v=0
31944 On ch=5 n=63 v=51
31944 On ch=5 n=67 v=53
31944 On ch=5 n=72 v=52
31949 On ch=5 n=63 v=0
31949 On ch=5 n=67 v=0
31952 On ch=5 n=72 v=0
31968 On ch=5 n=63 v=43
31968 On ch=5 n=67 v=45
31968 On ch=5 n=72 v=44
31973 On ch=5 n=63 v=0
31973 On ch=5 n=67 v=0
31976 On ch=5 n=72 v=0
31992 On ch=5 n=63 v=36
31992 On ch=5 n=67 v=38
31997 On ch=5 n=63 v=0
31997 On ch=5 n=67 v=0
32016 On ch=5 n=63 v=30
32021 On ch=5 n=63 v=0
32040 On ch=5 n=60 v=25
32045 On ch=5 n=60 v=0
32232 On ch=5 n=72 v=55
32241 On ch=5 n=72 v=0
32400 On ch=5 n=80 v=78
32406 On ch=5 n=80 v=0
32424 On ch=5 n=77 v=73
32429 On ch=5 n=77 v=0
32592 On ch=5 n=74 v=78
32598 On ch=5 n=74 v=0
32616 On ch=5 n=82 v=73
32621 On ch=5 n=82 v=0
32640 On ch=5 n=75 v=85
32648 On ch=5 n=75 v=0
32664 On ch=5 n=70 v=73
32664 On ch=5 n=79 v=72
32669 On ch=5 n=70 v=0
32672 On ch=5 n=79 v=0
32688 On ch=5 n=70 v=62
32688 On ch=5 n=75 v=61
32693 On ch=5 n=70 v=0
32696 On ch=5 n=75 v=0
32712 On ch=5 n=67 v=51
32712 On ch=5 n=70 v=53
32712 On ch=5 n=75 v=52
32717 On ch=5 n=67 v=0
32717 On ch=5 n=70 v=0
32720 On ch=5 n=75 v=0
32736 On ch=5 n=67 v=43
32736 On ch=5 n=70 v=45
32736 On ch=5 n=75 v=44
32741 On ch=5 n=67 v=0
32741 On ch=5 n=70 v=0
32744 On ch=5 n=75 v=0
32760 On ch=5 n=67 v=36
32760 On ch=5 n=70 v=38
32765 On ch=5 n=67 v=0
32765 On ch=5 n=70 v=0
32784 On ch=5 n=63 v=30
32789 On ch=5 n=63 v=0
32808 On ch=5 n=67 v=25
32813 On ch=5 n=67 v=0
33000 On ch=5 n=80 v=55
33009 On ch=5 n=80 v=0
33168 On ch=5 n=80 v=78
33174 On ch=5 n=80 v=0
33192 On ch=5 n=77 v=73
33197 On ch=5 n=77 v=0
33216 On ch=5 n=79 v=85
33224 On ch=5 n=79 v=0
33240 On ch=5 n=62 v=73
33240 On ch=5 n=83 v=72
33245 On ch=5 n=62 v=0
33248 On ch=5 n=83 v=0
33264 On ch=5 n=62 v=62
33264 On ch=5 n=79 v=61
33269 On ch=5 n=62 v=0
33272 On ch=5 n=79 v=0
33288 On ch=5 n=71 v=51
33288 On ch=5 n=62 v=53
33288 On ch=5 n=79 v=52
33293 On ch=5 n=71 v=0
33293 On ch=5 n=62 v=0
33296 On ch=5 n=79 v=0
33312 On ch=5 n=71 v=43
33312 On ch=5 n=62 v=45
33312 On ch=5 n=79 v=44
33317 On ch=5 n=71 v=0
33317 On ch=5 n=62 v=0
33320 On ch=5 n=79 v=0
33336 On ch=5 n=71 v=36
33336 On ch=5 n=62 v=38
33341 On ch=5 n=71 v=0
33341 On ch=5 n=62 v=0
33360 On ch=5 n=67 v=30
33365 On ch=5 n=67 v=0
33384 On ch=5 n=71 v=25
33389 On ch=5 n=71 v=0
33408 On ch=5 n=72 v=85
33416 On ch=5 n=72 v=0
33432 On ch=5 n=67 v=73
33432 On ch=5 n=75 v=72
33437 On ch=5 n=67 v=0
33440 On ch=5 n=75 v=0
33456 On ch=5 n=67 v=62
33456 On ch=5 n=72 v=61
33461 On ch=5 n=67 v=0
33464 On ch=5 n=72 v=0
33480 On ch=5 n=63 v=51
33480 On ch=5 n=67 v=53
33480 On ch=5 n=72 v=52
33485 On ch=5 n=63 v=0
33485 On ch=5 n=67 v=0
33488 On ch=5 n=72 v=0
33504 On ch=5 n=63 v=43
33504 On ch=5 n=67 v=45
33504 On ch=5 n=72 v=44
33509 On ch=5 n=63 v=0
33509 On ch=5 n=67 v=0
33512 On ch=5 n=72 v=0
33528 On ch=5 n=63 v=36
33528 On ch=5 n=67 v=38
33533 On ch=5 n=63 v=0
33533 On ch=5 n=67 v=0
33552 On ch=5 n=63 v=30
33557 On ch=5 n=63 v=0
33576 On ch=5 n=60 v=25
33581 On ch=5 n=60 v=0
33768 On ch=5 n=75 v=55
33777 On ch=5 n=75 v=0
33792 On ch=5 n=72 v=85
33800 On ch=5 n=72 v=0
33816 On ch=5 n=67 v=73
33816 On ch=5 n=75 v=72
33821 On ch=5 n=67 v=0
33824 On ch=5 n=75 v=0
33840 On ch=5 n=67 v=62
33840 On ch=5 n=72 v=61
33845 On ch=5 n=67 v=0
33848 On ch=5 n=72 v=0
33864 On ch=5 n=63 v=51
33864 On ch=5 n=67 v=53
33864 On ch=5 n=72 v=52
33869 On ch=5 n=63 v=0
33869 On ch=5 n=67 v=0
33872 On ch=5 n=72 v=0
33888 On ch=5 n=63 v=43
33888 On ch=5 n=67 v=45
33888 On ch=5 n=72 v=44
33893 On ch=5 n=63 v=0
33893 On ch=5 n=67 v=0
33896 On ch=5 n=72 v=0
33912 On ch=5 n=63 v=36
33912 On ch=5 n=67 v=38
33917 On ch=5 n=63 v=0
33917 On ch=5 n=67 v=0
33936 On ch=5 n=63 v=30
33941 On ch=5 n=63 v=0
33960 On ch=5 n=60 v=25
33965 On ch=5 n=60 v=0
34128 On ch=5 n=80 v=78
34134 On ch=5 n=80 v=0
34152 On ch=5 n=77 v=73
34157 On ch=5 n=77 v=0
34344 On ch=5 n=79 v=55
34353 On ch=5 n=79 v=0
34512 On ch=5 n=75 v=78
34518 On ch=5 n=75 v=0
34536 On ch=5 n=72 v=73
34541 On ch=5 n=72 v=0
34728 On ch=5 n=75 v=55
34737 On ch=5 n=75 v=0
34920 On ch=5 n=80 v=55
34929 On ch=5 n=80 v=0
35112 On ch=5 n=74 v=55
35121 On ch=5 n=74 v=0
35280 On ch=5 n=75 v=78
35286 On ch=5 n=75 v=0
35304 On ch=5 n=79 v=73
35309 On ch=5 n=79 v=0
35328 On ch=5 n=75 v=85
35336 On ch=5 n=75 v=0
35352 On ch=5 n=70 v=73
35352 On ch=5 n=79 v=72
35357 On ch=5 n=70 v=0
35360 On ch=5 n=79 v=0
35376 On ch=5 n=70 v=62
35376 On ch=5 n=75 v=61
35381 On ch=5 n=70 v=0
35384 On ch=5 n=75 v=0
35400 On ch=5 n=67 v=51
35400 On ch=5 n=70 v=53
35400 On ch=5 n=75 v=52
35405 On ch=5 n=67 v=0
35405 On ch=5 n=70 v=0
35408 On ch=5 n=75 v=0
35424 On ch=5 n=67 v=43
35424 On ch=5 n=70 v=45
35424 On ch=5 n=75 v=44
35429 On ch=5 n=67 v=0
35429 On ch=5 n=70 v=0
35432 On ch=5 n=75 v=0
35448 On ch=5 n=67 v=36
35448 On ch=5 n=70 v=38
35453 On ch=5 n=67 v=0
35453 On ch=5 n=70 v=0
35472 On ch=5 n=63 v=30
35477 On ch=5 n=63 v=0
35496 On ch=5 n=67 v=25
35501 On ch=5 n=67 v=0
35520 On ch=5 n=83 v=85
35528 On ch=5 n=83 v=0
35544 On ch=5 n=65 v=73
35544 On ch=5 n=74 v=72
35549 On ch=5 n=65 v=0
35552 On ch=5 n=74 v=0
35568 On ch=5 n=65 v=62
35568 On ch=5 n=83 v=61
35573 On ch=5 n=65 v=0
35576 On ch=5 n=83 v=0
35592 On ch=5 n=62 v=51
35592 On ch=5 n=65 v=53
35592 On ch=5 n=83 v=52
35597 On ch=5 n=62 v=0
35597 On ch=5 n=65 v=0
35600 On ch=5 n=83 v=0
35616 On ch=5 n=62 v=43
35616 On ch=5 n=65 v=45
35616 On ch=5 n=83 v=44
35621 On ch=5 n=62 v=0
35621 On ch=5 n=65 v=0
35624 On ch=5 n=83 v=0
35640 On ch=5 n=62 v=36
35640 On ch=5 n=65 v=38
35645 On ch=5 n=62 v=0
35645 On ch=5 n=65 v=0
35664 On ch=5 n=62 v=30
35669 On ch=5 n=62 v=0
35688 On ch=5 n=71 v=25
35693 On ch=5 n=71 v=0
35712 On ch=5 n=77 v=85
35720 On ch=5 n=77 v=0
35736 On ch=5 n=68 v=73
35736 On ch=5 n=83 v=72
35741 On ch=5 n=68 v=0
35744 On ch=5 n=83 v=0
35760 On ch=5 n=65 v=62
35760 On ch=5 n=80 v=61
35765 On ch=5 n=65 v=0
35768 On ch=5 n=80 v=0
35784 On ch=5 n=71 v=51
35784 On ch=5 n=65 v=53
35784 On ch=5 n=80 v=52
35789 On ch=5 n=71 v=0
35789 On ch=5 n=65 v=0
35792 On ch=5 n=80 v=0
35808 On ch=5 n=71 v=43
35808 On ch=5 n=65 v=45
35808 On ch=5 n=80 v=44
35813 On ch=5 n=71 v=0
35813 On ch=5 n=65 v=0
35816 On ch=5 n=80 v=0
35832 On ch=5 n=71 v=36
35832 On ch=5 n=65 v=38
35837 On ch=5 n=71 v=0
35837 On ch=5 n=65 v=0
35856 On ch=5 n=68 v=30
35861 On ch=5 n=68 v=0
35880 On ch=5 n=71 v=25
35885 On ch=5 n=71 v=0
36048 On ch=5 n=75 v=78
36054 On ch=5 n=75 v=0
36072 On ch=5 n=72 v=73
36077 On ch=5 n=72 v=0
36096 On ch=5 n=72 v=85
36104 On ch=5 n=72 v=0
36120 On ch=5 n=67 v=73
36120 On ch=5 n=75 v=72
36125 On ch=5 n=67 v=0
36128 On ch=5 n=75 v=0
36144 On ch=5 n=67 v=62
36144 On ch=5 n=72 v=61
36149 On ch=5 n=67 v=0
36152 On ch=5 n=72 v=0
36168 On ch=5 n=63 v=51
36168 On ch=5 n=67 v=53
36168 On ch=5 n=72 v=52
36173 On ch=5 n=63 v=0
36173 On ch=5 n=67 v=0
36176 On ch=5 n=72 v=0
36192 On ch=5 n=63 v=43
36192 On ch=5 n=67 v=45
36192 On ch=5 n=72 v=44
36197 On ch=5 n=63 v=0
36197 On ch=5 n=67 v=0
36200 On ch=5 n=72 v=0
36216 On ch=5 n=63 v=36
36216 On ch=5 n=67 v=38
36221 On ch=5 n=63 v=0
36221 On ch=5 n=67 v=0
36240 On ch=5 n=63 v=30
36245 On ch=5 n=63 v=0
36264 On ch=5 n=60 v=25
36269 On ch=5 n=60 v=0
36456 On ch=5 n=80 v=55
36465 On ch=5 n=80 v=0
36648 On ch=5 n=79 v=55
36657 On ch=5 n=79 v=0
36840 On ch=5 n=75 v=55
36849 On ch=5 n=75 v=0
37032 On ch=5 n=80 v=55
37041 On ch=5 n=80 v=0
37224 On ch=5 n=74 v=55
37233 On ch=5 n=74 v=0
37248 On ch=5 n=75 v=85
37256 On ch=5 n=75 v=0
37272 On ch=5 n=70 v=73
37272 On ch=5 n=79 v=72
37277 On ch=5 n=70 v=0
37280 On ch=5 n=79 v=0
37296 On ch=5 n=70 v=62
37296 On ch=5 n=75 v=61
37301 On ch=5 n=70 v=0
37304 On ch=5 n=75 v=0
37320 On ch=5 n=67 v=51
37320 On ch=5 n=70 v=53
37320 On ch=5 n=75 v=52
37325 On ch=5 n=67 v=0
37325 On ch=5 n=70 v=0
37328 On ch=5 n=75 v=0
37344 On ch=5 n=67 v=43
37344 On ch=5 n=70 v=45
37344 On ch=5 n=75 v=44
37349 On ch=5 n=67 v=0
37349 On ch=5 n=70 v=0
37352 On ch=5 n=75 v=0
37368 On ch=5 n=67 v=36
37368 On ch=5 n=70 v=38
37373 On ch=5 n=67 v=0
37373 On ch=5 n=70 v=0
37392 On ch=5 n=63 v=30
37397 On ch=5 n=63 v=0
37416 On ch=5 n=67 v=25
37421 On ch=5 n=67 v=0
37584 On ch=5 n=80 v=78
37590 On ch=5 n=80 v=0
37608 On ch=5 n=75 v=73
37613 On ch=5 n=75 v=0
37800 On ch=5 n=80 v=55
37809 On ch=5 n=80 v=0
37968 On ch=5 n=79 v=78
37974 On ch=5 n=79 v=0
37992 On ch=5 n=83 v=73
37997 On ch=5 n=83 v=0
38160 On ch=5 n=75 v=78
38166 On ch=5 n=75 v=0
38184 On ch=5 n=72 v=73
38189 On ch=5 n=72 v=0
38376 On ch=5 n=72 v=55
38385 On ch=5 n=72 v=0
38544 On ch=5 n=80 v=78
38550 On ch=5 n=80 v=0
38568 On ch=5 n=77 v=73
38573 On ch=5 n=77 v=0
38592 On ch=5 n=82 v=85
38600 On ch=5 n=82 v=0
38616 On ch=5 n=65 v=73
38616 On ch=5 n=74 v=72
38621 On ch=5 n=65 v=0
38624 On ch=5 n=74 v=0
38640 On ch=5 n=65 v=62
38640 On ch=5 n=82 v=61
38645 On ch=5 n=65 v=0
38648 On ch=5 n=82 v=0
38664 On ch=5 n=62 v=51
38664 On ch=5 n=65 v=53
38664 On ch=5 n=82 v=52
38669 On ch=5 n=62 v=0
38669 On ch=5 n=65 v=0
38672 On ch=5 n=82 v=0
38688 On ch=5 n=62 v=43
38688 On ch=5 n=65 v=45
38688 On ch=5 n=82 v=44
38693 On ch=5 n=62 v=0
38693 On ch=5 n=65 v=0
38696 On ch=5 n=82 v=0
38712 On ch=5 n=62 v=36
38712 On ch=5 n=65 v=38
38717 On ch=5 n=62 v=0
38717 On ch=5 n=65 v=0
38736 On ch=5 n=62 v=30
38741 On ch=5 n=62 v=0
38760 On ch=5 n=70 v=25
38765 On ch=5 n=70 v=0
38928 On ch=5 n=75 v=78
38934 On ch=5 n=75 v=0
38952 On ch=5 n=79 v=73
38957 On ch=5 n=79 v=0
38976 On ch=5 n=80 v=85
38984 On ch=5 n=80 v=0
39000 On ch=5 n=63 v=73
39000 On ch=5 n=72 v=72
39005 On ch=5 n=63 v=0
39008 On ch=5 n=72 v=0
39024 On ch=5 n=63 v=62
39024 On ch=5 n=80 v=61
39029 On ch=5 n=63 v=0
39032 On ch=5 n=80 v=0
39048 On ch=5 n=60 v=51
39048 On ch=5 n=63 v=53
39048 On ch=5 n=80 v=52
39053 On ch=5 n=60 v=0
39053 On ch=5 n=63 v=0
39056 On ch=5 n=80 v=0
39072 On ch=5 n=60 v=43
39072 On ch=5 n=63 v=45
39072 On ch=5 n=80 v=44
39077 On ch=5 n=60 v=0
39077 On ch=5 n=63 v=0
39080 On ch=5 n=80 v=0
39096 On ch=5 n=60 v=36
39096 On ch=5 n=63 v=38
39101 On ch=5 n=60 v=0
39101 On ch=5 n=63 v=0
39120 On ch=5 n=68 v=30
39125 On ch=5 n=68 v=0
39144 On ch=5 n=60 v=25
39149 On ch=5 n=60 v=0
39312 On ch=5 n=80 v=78
39318 On ch=5 n=80 v=0
39336 On ch=5 n=77 v=73
39341 On ch=5 n=77 v=0
39360 On ch=5 n=79 v=85
39368 On ch=5 n=79 v=0
39384 On ch=5 n=62 v=73
39384 On ch=5 n=83 v=72
39389 On ch=5 n=62 v=0
39392 On ch=5 n=83 v=0
39408 On ch=5 n=62 v=62
39408 On ch=5 n=79 v=61
39413 On ch=5 n=62 v=0
39416 On ch=5 n=79 v=0
39432 On ch=5 n=71 v=51
39432 On ch=5 n=62 v=53
39432 On ch=5 n=79 v=52
39437 On ch=5 n=71 v=0
39437 On ch=5 n=62 v=0
39440 On ch=5 n=79 v=0
39456 On ch=5 n=71 v=43
39456 On ch=5 n=62 v=45
39456 On ch=5 n=79 v=44
39461 On ch=5 n=71 v=0
39461 On ch=5 n=62 v=0
39464 On ch=5 n=79 v=0
39480 On ch=5 n=71 v=36
39480 On ch=5 n=62 v=38
39485 On ch=5 n=71 v=0
39485 On ch=5 n=62 v=0
39504 On ch=5 n=67 v=30
39509 On ch=5 n=67 v=0
39528 On ch=5 n=71 v=25
39533 On ch=5 n=71 v=0
39696 On ch=5 n=75 v=78
39702 On ch=5 n=75 v=0
39720 On ch=5 n=72 v=73
39725 On ch=5 n=72 v=0
39744 On ch=5 n=72 v=85
39752 On ch=5 n=72 v=0
39768 On ch=5 n=67 v=73
39768 On ch=5 n=75 v=72
39773 On ch=5 n=67 v=0
39776 On ch=5 n=75 v=0
39792 On ch=5 n=67 v=62
39792 On ch=5 n=72 v=61
39797 On ch=5 n=67 v=0
39800 On ch=5 n=72 v=0
39816 On ch=5 n=63 v=51
39816 On ch=5 n=67 v=53
39816 On ch=5 n=72 v=52
39821 On ch=5 n=63 v=0
39821 On ch=5 n=67 v=0
39824 On ch=5 n=72 v=0
39840 On ch=5 n=63 v=43
39840 On ch=5 n=67 v=45
39840 On ch=5 n=72 v=44
39845 On ch=5 n=63 v=0
39845 On ch=5 n=67 v=0
39848 On ch=5 n=72 v=0
39864 On ch=5 n=63 v=36
39864 On ch=5 n=67 v=38
39869 On ch=5 n=63 v=0
39869 On ch=5 n=67 v=0
39888 On ch=5 n=63 v=30
39893 On ch=5 n=63 v=0
39912 On ch=5 n=60 v=25
39917 On ch=5 n=60 v=0
40080 On ch=5 n=75 v=78
40086 On ch=5 n=75 v=0
40104 On ch=5 n=72 v=73
40109 On ch=5 n=72 v=0
40272 On ch=5 n=75 v=78
40278 On ch=5 n=75 v=0
40296 On ch=5 n=72 v=73
40301 On ch=5 n=72 v=0
40301 Meta TrkEnd
TrkEnd
MTrk
0 Meta TrkName "Acoustic Guitar (nylon)"
0 PrCh ch=6 p=24
0 Par ch=6 c=7 v=100
0 Par ch=6 c=10 v=64
0 Par ch=6 c=11 v=127
0 Par ch=6 c=91 v=0
0 Par ch=6 c=93 v=0
0 Par ch=6 c=7 v=127
0 Par ch=6 c=10 v=127
0 On ch=6 n=53 v=127
24 On ch=6 n=48 v=95
48 On ch=6 n=68 v=102
72 On ch=6 n=68 v=96
72 On ch=6 n=60 v=95
106 On ch=6 n=68 v=0
110 On ch=6 n=68 v=0
120 On ch=6 n=65 v=98
120 On ch=6 n=65 v=96
124 On ch=6 n=48 v=0
144 On ch=6 n=48 v=104
149 On ch=6 n=65 v=0
150 On ch=6 n=65 v=0
168 On ch=6 n=68 v=90
168 On ch=6 n=65 v=88
175 On ch=6 n=53 v=0
192 On ch=6 n=60 v=0
192 On ch=6 n=48 v=0
192 On ch=6 n=68 v=0
192 On ch=6 n=65 v=0
192 On ch=6 n=58 v=114
216 On ch=6 n=53 v=104
240 On ch=6 n=62 v=89
261 On ch=6 n=62 v=0
264 On ch=6 n=70 v=60
264 On ch=6 n=62 v=95
264 On ch=6 n=65 v=98
298 On ch=6 n=53 v=0
312 On ch=6 n=53 v=100
317 On ch=6 n=65 v=0
319 On ch=6 n=62 v=0
319 On ch=6 n=70 v=0
336 On ch=6 n=62 v=96
336 On ch=6 n=70 v=102
336 On ch=6 n=70 v=96
341 On ch=6 n=53 v=0
360 On ch=6 n=53 v=111
369 On ch=6 n=58 v=0
384 On ch=6 n=62 v=0
384 On ch=6 n=70 v=0
384 On ch=6 n=70 v=0
384 On ch=6 n=53 v=0
384 On ch=6 n=51 v=117
408 On ch=6 n=58 v=102
432 On ch=6 n=67 v=93
456 On ch=6 n=63 v=90
456 On ch=6 n=70 v=104
491 On ch=6 n=58 v=0
497 On ch=6 n=67 v=0
501 On ch=6 n=63 v=0
501 On ch=6 n=70 v=0
504 On ch=6 n=67 v=92
504 On ch=6 n=63 v=71
510 On ch=6 n=63 v=0
527 On ch=6 n=67 v=0
528 On ch=6 n=58 v=117
552 On ch=6 n=67 v=102
552 On ch=6 n=63 v=100
557 On ch=6 n=51 v=0
576 On ch=6 n=58 v=0
576 On ch=6 n=67 v=0
576 On ch=6 n=63 v=0
576 On ch=6 n=56 v=114
600 On ch=6 n=51 v=104
624 On ch=6 n=60 v=89
645 On ch=6 n=60 v=0
648 On ch=6 n=68 v=60
648 On ch=6 n=63 v=95
648 On ch=6 n=60 v=98
682 On ch=6 n=51 v=0
696 On ch=6 n=51 v=100
701 On ch=6 n=60 v=0
703 On ch=6 n=63 v=0
703 On ch=6 n=68 v=0
720 On ch=6 n=60 v=96
720 On ch=6 n=68 v=102
720 On ch=6 n=68 v=96
725 On ch=6 n=51 v=0
744 On ch=6 n=51 v=111
753 On ch=6 n=56 v=0
768 On ch=6 n=60 v=0
768 On ch=6 n=68 v=0
768 On ch=6 n=68 v=0
768 On ch=6 n=51 v=0
768 On ch=6 n=53 v=127
792 On ch=6 n=48 v=95
816 On ch=6 n=68 v=102
840 On ch=6 n=68 v=96
840 On ch=6 n=60 v=95
874 On ch=6 n=68 v=0
878 On ch=6 n=68 v=0
888 On ch=6 n=65 v=98
888 On ch=6 n=65 v=96
892 On ch=6 n=48 v=0
912 On ch=6 n=48 v=104
917 On ch=6 n=65 v=0
918 On ch=6 n=65 v=0
936 On ch=6 n=68 v=90
936 On ch=6 n=65 v=88
943 On ch=6 n=53 v=0
960 On ch=6 n=60 v=0
960 On ch=6 n=48 v=0
960 On ch=6 n=68 v=0
960 On ch=6 n=65 v=0
960 On ch=6 n=55 v=117
984 On ch=6 n=50 v=102
1008 On ch=6 n=71 v=93
1032 On ch=6 n=67 v=90
1032 On ch=6 n=62 v=104
1067 On ch=6 n=50 v=0
1073 On ch=6 n=71 v=0
1077 On ch=6 n=67 v=0
1077 On ch=6 n=62 v=0
1080 On ch=6 n=71 v=92
1080 On ch=6 n=67 v=71
1086 On ch=6 n=67 v=0
1103 On ch=6 n=71 v=0
1104 On ch=6 n=50 v=117
1128 On ch=6 n=71 v=102
1128 On ch=6 n=67 v=100
1133 On ch=6 n=55 v=0
1152 On ch=6 n=50 v=0
1152 On ch=6 n=71 v=0
1152 On ch=6 n=67 v=0
1152 On ch=6 n=48 v=114
1176 On ch=6 n=55 v=104
1200 On ch=6 n=63 v=89
1221 On ch=6 n=63 v=0
1224 On ch=6 n=60 v=60
1224 On ch=6 n=63 v=95
1224 On ch=6 n=67 v=98
1258 On ch=6 n=55 v=0
1272 On ch=6 n=55 v=100
1277 On ch=6 n=67 v=0
1279 On ch=6 n=63 v=0
1279 On ch=6 n=60 v=0
1296 On ch=6 n=63 v=96
1296 On ch=6 n=60 v=102
1296 On ch=6 n=60 v=96
1301 On ch=6 n=55 v=0
1320 On ch=6 n=55 v=111
1329 On ch=6 n=48 v=0
1344 On ch=6 n=63 v=0
1344 On ch=6 n=60 v=0
1344 On ch=6 n=60 v=0
1344 On ch=6 n=55 v=0
1344 On ch=6 n=48 v=127
1368 On ch=6 n=55 v=95
1392 On ch=6 n=64 v=102
1416 On ch=6 n=60 v=96
1416 On ch=6 n=67 v=95
1450 On ch=6 n=60 v=0
1454 On ch=6 n=64 v=0
1464 On ch=6 n=64 v=98
1464 On ch=6 n=60 v=96
1468 On ch=6 n=55 v=0
1488 On ch=6 n=55 v=104
1493 On ch=6 n=60 v=0
1494 On ch=6 n=64 v=0
1512 On ch=6 n=64 v=90
1512 On ch=6 n=60 v=88
1519 On ch=6 n=48 v=0
1536 On ch=6 n=67 v=0
1536 On ch=6 n=55 v=0
1536 On ch=6 n=64 v=0
1536 On ch=6 n=60 v=0
1536 On ch=6 n=53 v=117
1560 On ch=6 n=48 v=102
1584 On ch=6 n=68 v=93
1608 On ch=6 n=68 v=90
1608 On ch=6 n=60 v=104
1643 On ch=6 n=48 v=0
1649 On ch=6 n=68 v=0
1653 On ch=6 n=68 v=0
1653 On ch=6 n=60 v=0
1656 On ch=6 n=65 v=92
1656 On ch=6 n=68 v=71
1662 On ch=6 n=68 v=0
1679 On ch=6 n=65 v=0
1680 On ch=6 n=48 v=117
1704 On ch=6 n=65 v=102
1704 On ch=6 n=68 v=100
1709 On ch=6 n=53 v=0
1728 On ch=6 n=48 v=0
1728 On ch=6 n=65 v=0
1728 On ch=6 n=68 v=0
1728 On ch=6 n=58 v=114
1752 On ch=6 n=53 v=104
1776 On ch=6 n=62 v=89
1797 On ch=6 n=62 v=0
1800 On ch=6 n=70 v=60
1800 On ch=6 n=62 v=95
1800 On ch=6 n=65 v=98
1834 On ch=6 n=53 v=0
1848 On ch=6 n=53 v=100
1853 On ch=6 n=65 v=0
1855 On ch=6 n=62 v=0
1855 On ch=6 n=70 v=0
1872 On ch=6 n=62 v=96
1872 On ch=6 n=70 v=102
1872 On ch=6 n=70 v=96
1877 On ch=6 n=53 v=0
1896 On ch=6 n=53 v=111
1905 On ch=6 n=58 v=0
1920 On ch=6 n=62 v=0
1920 On ch=6 n=70 v=0
1920 On ch=6 n=70 v=0
1920 On ch=6 n=53 v=0
1920 On ch=6 n=51 v=127
1944 On ch=6 n=58 v=95
1968 On ch=6 n=67 v=102
1992 On ch=6 n=63 v=96
1992 On ch=6 n=70 v=95
2026 On ch=6 n=63 v=0
2030 On ch=6 n=67 v=0
2040 On ch=6 n=67 v=98
2040 On ch=6 n=63 v=96
2044 On ch=6 n=58 v=0
2064 On ch=6 n=58 v=104
2069 On ch=6 n=63 v=0
2070 On ch=6 n=67 v=0
2088 On ch=6 n=67 v=90
2088 On ch=6 n=63 v=88
2095 On ch=6 n=51 v=0
2112 On ch=6 n=70 v=0
2112 On ch=6 n=58 v=0
2112 On ch=6 n=67 v=0
2112 On ch=6 n=63 v=0
2112 On ch=6 n=56 v=114
2136 On ch=6 n=51 v=104
2160 On ch=6 n=60 v=89
2181 On ch=6 n=60 v=0
2184 On ch=6 n=68 v=60
2184 On ch=6 n=63 v=95
2184 On ch=6 n=60 v=98
2218 On ch=6 n=51 v=0
2232 On ch=6 n=51 v=100
2237 On ch=6 n=60 v=0
2239 On ch=6 n=63 v=0
2239 On ch=6 n=68 v=0
2256 On ch=6 n=60 v=96
2256 On ch=6 n=68 v=102
2256 On ch=6 n=68 v=96
2261 On ch=6 n=51 v=0
2280 On ch=6 n=51 v=111
2289 On ch=6 n=56 v=0
2304 On ch=6 n=60 v=0
2304 On ch=6 n=68 v=0
2304 On ch=6 n=68 v=0
2304 On ch=6 n=51 v=0
2304 On ch=6 n=53 v=117
2328 On ch=6 n=48 v=102
2352 On ch=6 n=68 v=93
2376 On ch=6 n=68 v=90
2376 On ch=6 n=60 v=104
2411 On ch=6 n=48 v=0
2417 On ch=6 n=68 v=0
2421 On ch=6 n=68 v=0
2421 On ch=6 n=60 v=0
2424 On ch=6 n=65 v=92
2424 On ch=6 n=68 v=71
2430 On ch=6 n=68 v=0
2447 On ch=6 n=65 v=0
2448 On ch=6 n=48 v=117
2472 On ch=6 n=65 v=102
2472 On ch=6 n=68 v=100
2477 On ch=6 n=53 v=0
2496 On ch=6 n=48 v=0
2496 On ch=6 n=65 v=0
2496 On ch=6 n=68 v=0
2496 On ch=6 n=55 v=117
2520 On ch=6 n=50 v=102
2544 On ch=6 n=71 v=93
2568 On ch=6 n=67 v=90
2568 On ch=6 n=62 v=104
2603 On ch=6 n=50 v=0
2609 On ch=6 n=71 v=0
2613 On ch=6 n=67 v=0
2613 On ch=6 n=62 v=0
2616 On ch=6 n=71 v=92
2616 On ch=6 n=67 v=71
2622 On ch=6 n=67 v=0
2639 On ch=6 n=71 v=0
2640 On ch=6 n=50 v=117
2664 On ch=6 n=71 v=102
2664 On ch=6 n=67 v=100
2669 On ch=6 n=55 v=0
2688 On ch=6 n=50 v=0
2688 On ch=6 n=71 v=0
2688 On ch=6 n=67 v=0
2688 On ch=6 n=48 v=117
2712 On ch=6 n=55 v=102
2736 On ch=6 n=63 v=93
2760 On ch=6 n=63 v=90
2760 On ch=6 n=67 v=104
2795 On ch=6 n=55 v=0
2801 On ch=6 n=63 v=0
2805 On ch=6 n=63 v=0
2805 On ch=6 n=67 v=0
2808 On ch=6 n=60 v=92
2808 On ch=6 n=63 v=71
2814 On ch=6 n=63 v=0
2831 On ch=6 n=60 v=0
2832 On ch=6 n=55 v=117
2856 On ch=6 n=60 v=102
2856 On ch=6 n=63 v=100
2861 On ch=6 n=48 v=0
2880 On ch=6 n=55 v=0
2880 On ch=6 n=60 v=0
2880 On ch=6 n=63 v=0
2880 On ch=6 n=48 v=117
2904 On ch=6 n=55 v=102
2928 On ch=6 n=63 v=93
2952 On ch=6 n=63 v=90
2952 On ch=6 n=67 v=104
2987 On ch=6 n=55 v=0
2993 On ch=6 n=63 v=0
2997 On ch=6 n=63 v=0
2997 On ch=6 n=67 v=0
3000 On ch=6 n=60 v=92
3000 On ch=6 n=63 v=71
3006 On ch=6 n=63 v=0
3023 On ch=6 n=60 v=0
3024 On ch=6 n=55 v=117
3048 On ch=6 n=60 v=102
3048 On ch=6 n=63 v=100
3053 On ch=6 n=48 v=0
3072 On ch=6 n=55 v=0
3072 On ch=6 n=60 v=0
3072 On ch=6 n=63 v=0
3072 On ch=6 n=48 v=127
3096 On ch=6 n=55 v=95
3120 On ch=6 n=63 v=102
3144 On ch=6 n=63 v=96
3144 On ch=6 n=67 v=95
3178 On ch=6 n=63 v=0
3182 On ch=6 n=63 v=0
3192 On ch=6 n=60 v=98
3192 On ch=6 n=60 v=96
3196 On ch=6 n=55 v=0
3216 On ch=6 n=55 v=104
3221 On ch=6 n=60 v=0
3222 On ch=6 n=60 v=0
3240 On ch=6 n=63 v=90
3240 On ch=6 n=60 v=88
3247 On ch=6 n=48 v=0
3264 On ch=6 n=67 v=0
3264 On ch=6 n=55 v=0
3264 On ch=6 n=63 v=0
3264 On ch=6 n=60 v=0
3264 On ch=6 n=53 v=114
3288 On ch=6 n=48 v=104
3312 On ch=6 n=68 v=89
3333 On ch=6 n=68 v=0
3336 On ch=6 n=65 v=60
3336 On ch=6 n=68 v=95
3336 On ch=6 n=60 v=98
3370 On ch=6 n=48 v=0
3384 On ch=6 n=48 v=100
3389 On ch=6 n=60 v=0
3391 On ch=6 n=68 v=0
3391 On ch=6 n=65 v=0
3408 On ch=6 n=65 v=96
3408 On ch=6 n=68 v=102
3408 On ch=6 n=65 v=96
3413 On ch=6 n=48 v=0
3432 On ch=6 n=48 v=111
3441 On ch=6 n=53 v=0
3456 On ch=6 n=65 v=0
3456 On ch=6 n=68 v=0
3456 On ch=6 n=65 v=0
3456 On ch=6 n=48 v=0
3456 On ch=6 n=55 v=117
3480 On ch=6 n=50 v=102
3504 On ch=6 n=71 v=93
3528 On ch=6 n=67 v=90
3528 On ch=6 n=62 v=104
3563 On ch=6 n=50 v=0
3569 On ch=6 n=71 v=0
3573 On ch=6 n=67 v=0
3573 On ch=6 n=62 v=0
3576 On ch=6 n=71 v=92
3576 On ch=6 n=67 v=71
3582 On ch=6 n=67 v=0
3599 On ch=6 n=71 v=0
3600 On ch=6 n=50 v=117
3624 On ch=6 n=71 v=102
3624 On ch=6 n=67 v=100
3629 On ch=6 n=55 v=0
3648 On ch=6 n=50 v=0
3648 On ch=6 n=71 v=0
3648 On ch=6 n=67 v=0
3648 On ch=6 n=48 v=127
3672 On ch=6 n=55 v=95
3696 On ch=6 n=63 v=102
3720 On ch=6 n=63 v=96
3720 On ch=6 n=67 v=95
3754 On ch=6 n=63 v=0
3758 On ch=6 n=63 v=0
3768 On ch=6 n=60 v=98
3768 On ch=6 n=60 v=96
3772 On ch=6 n=55 v=0
3792 On ch=6 n=55 v=104
3797 On ch=6 n=60 v=0
3798 On ch=6 n=60 v=0
3816 On ch=6 n=63 v=90
3816 On ch=6 n=60 v=88
3823 On ch=6 n=48 v=0
3840 On ch=6 n=67 v=0
3840 On ch=6 n=55 v=0
3840 On ch=6 n=63 v=0
3840 On ch=6 n=60 v=0
3840 On ch=6 n=51 v=127
3864 On ch=6 n=58 v=95
3888 On ch=6 n=67 v=102
3912 On ch=6 n=63 v=96
3912 On ch=6 n=70 v=95
3946 On ch=6 n=63 v=0
3950 On ch=6 n=67 v=0
3960 On ch=6 n=67 v=98
3960 On ch=6 n=63 v=96
3964 On ch=6 n=58 v=0
3984 On ch=6 n=58 v=104
3989 On ch=6 n=63 v=0
3990 On ch=6 n=67 v=0
4008 On ch=6 n=67 v=90
4008 On ch=6 n=63 v=88
4015 On ch=6 n=51 v=0
4032 On ch=6 n=70 v=0
4032 On ch=6 n=58 v=0
4032 On ch=6 n=67 v=0
4032 On ch=6 n=63 v=0
4032 On ch=6 n=53 v=117
4056 On ch=6 n=48 v=102
4080 On ch=6 n=68 v=93
4104 On ch=6 n=68 v=90
4104 On ch=6 n=60 v=104
4139 On ch=6 n=48 v=0
4145 On ch=6 n=68 v=0
4149 On ch=6 n=68 v=0
4149 On ch=6 n=60 v=0
4152 On ch=6 n=65 v=92
4152 On ch=6 n=68 v=71
4158 On ch=6 n=68 v=0
4175 On ch=6 n=65 v=0
4176 On ch=6 n=48 v=117
4200 On ch=6 n=65 v=102
4200 On ch=6 n=68 v=100
4205 On ch=6 n=53 v=0
4224 On ch=6 n=48 v=0
4224 On ch=6 n=65 v=0
4224 On ch=6 n=68 v=0
4224 On ch=6 n=58 v=127
4248 On ch=6 n=53 v=95
4272 On ch=6 n=62 v=102
4296 On ch=6 n=62 v=96
4296 On ch=6 n=65 v=95
4330 On ch=6 n=62 v=0
4334 On ch=6 n=62 v=0
4344 On ch=6 n=70 v=98
4344 On ch=6 n=70 v=96
4348 On ch=6 n=53 v=0
4368 On ch=6 n=53 v=104
4373 On ch=6 n=70 v=0
4374 On ch=6 n=70 v=0
4392 On ch=6 n=62 v=90
4392 On ch=6 n=70 v=88
4399 On ch=6 n=58 v=0
4416 On ch=6 n=65 v=0
4416 On ch=6 n=53 v=0
4416 On ch=6 n=62 v=0
4416 On ch=6 n=70 v=0
4416 On ch=6 n=51 v=114
4440 On ch=6 n=58 v=104
4464 On ch=6 n=67 v=89
4485 On ch=6 n=67 v=0
4488 On ch=6 n=63 v=60
4488 On ch=6 n=67 v=95
4488 On ch=6 n=70 v=98
4522 On ch=6 n=58 v=0
4536 On ch=6 n=58 v=100
4541 On ch=6 n=70 v=0
4543 On ch=6 n=67 v=0
4543 On ch=6 n=63 v=0
4560 On ch=6 n=67 v=96
4560 On ch=6 n=63 v=102
4560 On ch=6 n=63 v=96
4565 On ch=6 n=58 v=0
4584 On ch=6 n=58 v=111
4593 On ch=6 n=51 v=0
4608 On ch=6 n=67 v=0
4608 On ch=6 n=63 v=0
4608 On ch=6 n=63 v=0
4608 On ch=6 n=58 v=0
4608 On ch=6 n=51 v=114
4632 On ch=6 n=58 v=104
4656 On ch=6 n=67 v=89
4677 On ch=6 n=67 v=0
4680 On ch=6 n=63 v=60
4680 On ch=6 n=67 v=95
4680 On ch=6 n=70 v=98
4714 On ch=6 n=58 v=0
4728 On ch=6 n=58 v=100
4733 On ch=6 n=70 v=0
4735 On ch=6 n=67 v=0
4735 On ch=6 n=63 v=0
4752 On ch=6 n=67 v=96
4752 On ch=6 n=63 v=102
4752 On ch=6 n=63 v=96
4757 On ch=6 n=58 v=0
4776 On ch=6 n=58 v=111
4785 On ch=6 n=51 v=0
4800 On ch=6 n=67 v=0
4800 On ch=6 n=63 v=0
4800 On ch=6 n=63 v=0
4800 On ch=6 n=58 v=0
4800 On ch=6 n=59 v=114
4824 On ch=6 n=53 v=104
4848 On ch=6 n=62 v=89
4869 On ch=6 n=62 v=0
4872 On ch=6 n=71 v=60
4872 On ch=6 n=62 v=95
4872 On ch=6 n=65 v=98
4906 On ch=6 n=53 v=0
4920 On ch=6 n=53 v=100
4925 On ch=6 n=65 v=0
4927 On ch=6 n=62 v=0
4927 On ch=6 n=71 v=0
4944 On ch=6 n=62 v=96
4944 On ch=6 n=71 v=102
4944 On ch=6 n=71 v=96
4949 On ch=6 n=53 v=0
4968 On ch=6 n=53 v=111
4977 On ch=6 n=59 v=0
4992 On ch=6 n=62 v=0
4992 On ch=6 n=71 v=0
4992 On ch=6 n=71 v=0
4992 On ch=6 n=53 v=0
4992 On ch=6 n=53 v=117
5016 On ch=6 n=56 v=102
5040 On ch=6 n=71 v=93
5064 On ch=6 n=68 v=90
5064 On ch=6 n=65 v=104
5099 On ch=6 n=56 v=0
5105 On ch=6 n=71 v=0
5109 On ch=6 n=68 v=0
5109 On ch=6 n=65 v=0
5112 On ch=6 n=71 v=92
5112 On ch=6 n=68 v=71
5118 On ch=6 n=68 v=0
5135 On ch=6 n=71 v=0
5136 On ch=6 n=53 v=117
5160 On ch=6 n=71 v=102
5160 On ch=6 n=68 v=100
5165 On ch=6 n=53 v=0
5184 On ch=6 n=53 v=0
5184 On ch=6 n=71 v=0
5184 On ch=6 n=68 v=0
5184 On ch=6 n=48 v=117
5208 On ch=6 n=55 v=102
5232 On ch=6 n=63 v=93
5256 On ch=6 n=63 v=90
5256 On ch=6 n=67 v=104
5291 On ch=6 n=55 v=0
5297 On ch=6 n=63 v=0
5301 On ch=6 n=63 v=0
5301 On ch=6 n=67 v=0
5304 On ch=6 n=60 v=92
5304 On ch=6 n=63 v=71
5310 On ch=6 n=63 v=0
5327 On ch=6 n=60 v=0
5328 On ch=6 n=55 v=117
5352 On ch=6 n=60 v=102
5352 On ch=6 n=63 v=100
5357 On ch=6 n=48 v=0
5376 On ch=6 n=55 v=0
5376 On ch=6 n=60 v=0
5376 On ch=6 n=63 v=0
5376 On ch=6 n=48 v=114
5400 On ch=6 n=55 v=104
5424 On ch=6 n=63 v=89
5445 On ch=6 n=63 v=0
5448 On ch=6 n=60 v=60
5448 On ch=6 n=63 v=95
5448 On ch=6 n=67 v=98
5482 On ch=6 n=55 v=0
5496 On ch=6 n=55 v=100
5501 On ch=6 n=67 v=0
5503 On ch=6 n=63 v=0
5503 On ch=6 n=60 v=0
5520 On ch=6 n=63 v=96
5520 On ch=6 n=60 v=102
5520 On ch=6 n=60 v=96
5525 On ch=6 n=55 v=0
5544 On ch=6 n=55 v=111
5553 On ch=6 n=48 v=0
5568 On ch=6 n=63 v=0
5568 On ch=6 n=60 v=0
5568 On ch=6 n=60 v=0
5568 On ch=6 n=55 v=0
5568 On ch=6 n=53 v=114
5592 On ch=6 n=48 v=104
5616 On ch=6 n=68 v=89
5637 On ch=6 n=68 v=0
5640 On ch=6 n=65 v=60
5640 On ch=6 n=68 v=95
5640 On ch=6 n=60 v=98
5674 On ch=6 n=48 v=0
5688 On ch=6 n=48 v=100
5693 On ch=6 n=60 v=0
5695 On ch=6 n=68 v=0
5695 On ch=6 n=65 v=0
5712 On ch=6 n=65 v=96
5712 On ch=6 n=68 v=102
5712 On ch=6 n=65 v=96
5717 On ch=6 n=48 v=0
5736 On ch=6 n=48 v=111
5745 On ch=6 n=53 v=0
5760 On ch=6 n=65 v=0
5760 On ch=6 n=68 v=0
5760 On ch=6 n=65 v=0
5760 On ch=6 n=48 v=0
5760 On ch=6 n=55 v=127
5784 On ch=6 n=50 v=95
5808 On ch=6 n=65 v=102
5832 On ch=6 n=71 v=96
5832 On ch=6 n=62 v=95
5866 On ch=6 n=71 v=0
5870 On ch=6 n=65 v=0
5880 On ch=6 n=67 v=98
5880 On ch=6 n=65 v=96
5884 On ch=6 n=50 v=0
5904 On ch=6 n=59 v=104
5909 On ch=6 n=65 v=0
5910 On ch=6 n=67 v=0
5928 On ch=6 n=67 v=90
5928 On ch=6 n=65 v=88
5935 On ch=6 n=55 v=0
5952 On ch=6 n=62 v=0
5952 On ch=6 n=59 v=0
5952 On ch=6 n=67 v=0
5952 On ch=6 n=65 v=0
5952 On ch=6 n=48 v=117
5976 On ch=6 n=55 v=102
6000 On ch=6 n=63 v=93
6024 On ch=6 n=63 v=90
6024 On ch=6 n=67 v=104
6059 On ch=6 n=55 v=0
6065 On ch=6 n=63 v=0
6069 On ch=6 n=63 v=0
6069 On ch=6 n=67 v=0
6072 On ch=6 n=60 v=92
6072 On ch=6 n=63 v=71
6078 On ch=6 n=63 v=0
6095 On ch=6 n=60 v=0
6096 On ch=6 n=55 v=117
6120 On ch=6 n=60 v=102
6120 On ch=6 n=63 v=100
6125 On ch=6 n=48 v=0
6144 On ch=6 n=55 v=0
6144 On ch=6 n=60 v=0
6144 On ch=6 n=63 v=0
6144 On ch=6 n=53 v=114
6168 On ch=6 n=48 v=104
6192 On ch=6 n=68 v=89
6213 On ch=6 n=68 v=0
6216 On ch=6 n=65 v=60
6216 On ch=6 n=68 v=95
6216 On ch=6 n=60 v=98
6250 On ch=6 n=48 v=0
6264 On ch=6 n=48 v=100
6269 On ch=6 n=60 v=0
6271 On ch=6 n=68 v=0
6271 On ch=6 n=65 v=0
6288 On ch=6 n=65 v=96
6288 On ch=6 n=68 v=102
6288 On ch=6 n=65 v=96
6293 On ch=6 n=48 v=0
6312 On ch=6 n=48 v=111
6321 On ch=6 n=53 v=0
6336 On ch=6 n=65 v=0
6336 On ch=6 n=68 v=0
6336 On ch=6 n=65 v=0
6336 On ch=6 n=48 v=0
6336 On ch=6 n=58 v=117
6360 On ch=6 n=53 v=102
6384 On ch=6 n=62 v=93
6408 On ch=6 n=62 v=90
6408 On ch=6 n=65 v=104
6443 On ch=6 n=53 v=0
6449 On ch=6 n=62 v=0
6453 On ch=6 n=62 v=0
6453 On ch=6 n=65 v=0
6456 On ch=6 n=70 v=92
6456 On ch=6 n=62 v=71
6462 On ch=6 n=62 v=0
6479 On ch=6 n=70 v=0
6480 On ch=6 n=53 v=117
6504 On ch=6 n=70 v=102
6504 On ch=6 n=62 v=100
6509 On ch=6 n=58 v=0
6528 On ch=6 n=53 v=0
6528 On ch=6 n=70 v=0
6528 On ch=6 n=62 v=0
6528 On ch=6 n=51 v=127
6552 On ch=6 n=58 v=95
6576 On ch=6 n=67 v=102
6600 On ch=6 n=63 v=96
6600 On ch=6 n=70 v=95
6634 On ch=6 n=63 v=0
6638 On ch=6 n=67 v=0
6648 On ch=6 n=67 v=98
6648 On ch=6 n=63 v=96
6652 On ch=6 n=58 v=0
6672 On ch=6 n=58 v=104
6677 On ch=6 n=63 v=0
6678 On ch=6 n=67 v=0
6696 On ch=6 n=67 v=90
6696 On ch=6 n=63 v=88
6703 On ch=6 n=51 v=0
6720 On ch=6 n=70 v=0
6720 On ch=6 n=58 v=0
6720 On ch=6 n=67 v=0
6720 On ch=6 n=63 v=0
6720 On ch=6 n=56 v=117
6744 On ch=6 n=51 v=102
6768 On ch=6 n=60 v=93
6792 On ch=6 n=68 v=90
6792 On ch=6 n=63 v=104
6827 On ch=6 n=51 v=0
6833 On ch=6 n=60 v=0
6837 On ch=6 n=68 v=0
6837 On ch=6 n=63 v=0
6840 On ch=6 n=60 v=92
6840 On ch=6 n=68 v=71
6846 On ch=6 n=68 v=0
6863 On ch=6 n=60 v=0
6864 On ch=6 n=51 v=117
6888 On ch=6 n=60 v=102
6888 On ch=6 n=68 v=100
6893 On ch=6 n=56 v=0
6912 On ch=6 n=51 v=0
6912 On ch=6 n=60 v=0
6912 On ch=6 n=68 v=0
6912 On ch=6 n=53 v=127
6936 On ch=6 n=48 v=95
6960 On ch=6 n=68 v=102
6984 On ch=6 n=68 v=96
6984 On ch=6 n=60 v=95
7018 On ch=6 n=68 v=0
7022 On ch=6 n=68 v=0
7032 On ch=6 n=65 v=98
7032 On ch=6 n=65 v=96
7036 On ch=6 n=48 v=0
7056 On ch=6 n=48 v=104
7061 On ch=6 n=65 v=0
7062 On ch=6 n=65 v=0
7080 On ch=6 n=68 v=90
7080 On ch=6 n=65 v=88
7087 On ch=6 n=53 v=0
7104 On ch=6 n=60 v=0
7104 On ch=6 n=48 v=0
7104 On ch=6 n=68 v=0
7104 On ch=6 n=65 v=0
7104 On ch=6 n=55 v=127
7128 On ch=6 n=50 v=95
7152 On ch=6 n=71 v=102
7176 On ch=6 n=67 v=96
7176 On ch=6 n=62 v=95
7210 On ch=6 n=67 v=0
7214 On ch=6 n=71 v=0
7224 On ch=6 n=71 v=98
7224 On ch=6 n=67 v=96
7228 On ch=6 n=50 v=0
7248 On ch=6 n=50 v=104
7253 On ch=6 n=67 v=0
7254 On ch=6 n=71 v=0
7272 On ch=6 n=71 v=90
7272 On ch=6 n=67 v=88
7279 On ch=6 n=55 v=0
7296 On ch=6 n=62 v=0
7296 On ch=6 n=50 v=0
7296 On ch=6 n=71 v=0
7296 On ch=6 n=67 v=0
7296 On ch=6 n=48 v=117
7320 On ch=6 n=55 v=102
7344 On ch=6 n=63 v=93
7368 On ch=6 n=63 v=90
7368 On ch=6 n=67 v=104
7403 On ch=6 n=55 v=0
7409 On ch=6 n=63 v=0
7413 On ch=6 n=63 v=0
7413 On ch=6 n=67 v=0
7416 On ch=6 n=60 v=92
7416 On ch=6 n=63 v=71
7422 On ch=6 n=63 v=0
7439 On ch=6 n=60 v=0
7440 On ch=6 n=55 v=117
7464 On ch=6 n=60 v=102
7464 On ch=6 n=63 v=100
7469 On ch=6 n=48 v=0
7488 On ch=6 n=55 v=0
7488 On ch=6 n=60 v=0
7488 On ch=6 n=63 v=0
7488 On ch=6 n=48 v=127
7512 On ch=6 n=55 v=95
7536 On ch=6 n=64 v=102
7560 On ch=6 n=60 v=96
7560 On ch=6 n=67 v=95
7594 On ch=6 n=60 v=0
7598 On ch=6 n=64 v=0
7608 On ch=6 n=64 v=98
7608 On ch=6 n=60 v=96
7612 On ch=6 n=55 v=0
7632 On ch=6 n=55 v=104
7637 On ch=6 n=60 v=0
7638 On ch=6 n=64 v=0
7656 On ch=6 n=64 v=90
7656 On ch=6 n=60 v=88
7663 On ch=6 n=48 v=0
7680 On ch=6 n=67 v=0
7680 On ch=6 n=55 v=0
7680 On ch=6 n=64 v=0
7680 On ch=6 n=60 v=0
7680 On ch=6 n=53 v=127
7704 On ch=6 n=48 v=95
7728 On ch=6 n=68 v=102
7752 On ch=6 n=68 v=96
7752 On ch=6 n=60 v=95
7786 On ch=6 n=68 v=0
7790 On ch=6 n=68 v=0
7800 On ch=6 n=65 v=98
7800 On ch=6 n=65 v=96
7804 On ch=6 n=48 v=0
7824 On ch=6 n=48 v=104
7829 On ch=6 n=65 v=0
7830 On ch=6 n=65 v=0
7848 On ch=6 n=68 v=90
7848 On ch=6 n=65 v=88
7855 On ch=6 n=53 v=0
7872 On ch=6 n=60 v=0
7872 On ch=6 n=48 v=0
7872 On ch=6 n=68 v=0
7872 On ch=6 n=65 v=0
7872 On ch=6 n=58 v=114
7896 On ch=6 n=53 v=104
7920 On ch=6 n=62 v=89
7941 On ch=6 n=62 v=0
7944 On ch=6 n=70 v=60
7944 On ch=6 n=62 v=95
7944 On ch=6 n=65 v=98
7978 On ch=6 n=53 v=0
7992 On ch=6 n=53 v=100
7997 On ch=6 n=65 v=0
7999 On ch=6 n=62 v=0
7999 On ch=6 n=70 v=0
8016 On ch=6 n=62 v=96
8016 On ch=6 n=70 v=102
8016 On ch=6 n=70 v=96
8021 On ch=6 n=53 v=0
8040 On ch=6 n=53 v=111
8049 On ch=6 n=58 v=0
8064 On ch=6 n=62 v=0
8064 On ch=6 n=70 v=0
8064 On ch=6 n=70 v=0
8064 On ch=6 n=53 v=0
8064 On ch=6 n=51 v=117
8088 On ch=6 n=58 v=102
8112 On ch=6 n=67 v=93
8136 On ch=6 n=63 v=90
8136 On ch=6 n=70 v=104
8171 On ch=6 n=58 v=0
8177 On ch=6 n=67 v=0
8181 On ch=6 n=63 v=0
8181 On ch=6 n=70 v=0
8184 On ch=6 n=67 v=92
8184 On ch=6 n=63 v=71
8190 On ch=6 n=63 v=0
8207 On ch=6 n=67 v=0
8208 On ch=6 n=58 v=117
8232 On ch=6 n=67 v=102
8232 On ch=6 n=63 v=100
8237 On ch=6 n=51 v=0
8256 On ch=6 n=58 v=0
8256 On ch=6 n=67 v=0
8256 On ch=6 n=63 v=0
8256 On ch=6 n=56 v=114
8280 On ch=6 n=51 v=104
8304 On ch=6 n=60 v=89
8325 On ch=6 n=60 v=0
8328 On ch=6 n=68 v=60
8328 On ch=6 n=63 v=95
8328 On ch=6 n=60 v=98
8362 On ch=6 n=51 v=0
8376 On ch=6 n=51 v=100
8381 On ch=6 n=60 v=0
8383 On ch=6 n=63 v=0
8383 On ch=6 n=68 v=0
8400 On ch=6 n=60 v=96
8400 On ch=6 n=68 v=102
8400 On ch=6 n=68 v=96
8405 On ch=6 n=51 v=0
8424 On ch=6 n=51 v=111
8433 On ch=6 n=56 v=0
8448 On ch=6 n=60 v=0
8448 On ch=6 n=68 v=0
8448 On ch=6 n=68 v=0
8448 On ch=6 n=51 v=0
8448 On ch=6 n=53 v=127
8472 On ch=6 n=48 v=95
8496 On ch=6 n=68 v=102
8520 On ch=6 n=68 v=96
8520 On ch=6 n=60 v=95
8554 On ch=6 n=68 v=0
8558 On ch=6 n=68 v=0
8568 On ch=6 n=65 v=98
8568 On ch=6 n=65 v=96
8572 On ch=6 n=48 v=0
8592 On ch=6 n=48 v=104
8597 On ch=6 n=65 v=0
8598 On ch=6 n=65 v=0
8616 On ch=6 n=68 v=90
8616 On ch=6 n=65 v=88
8623 On ch=6 n=53 v=0
8640 On ch=6 n=60 v=0
8640 On ch=6 n=48 v=0
8640 On ch=6 n=68 v=0
8640 On ch=6 n=65 v=0
8640 On ch=6 n=55 v=127
8664 On ch=6 n=50 v=95
8688 On ch=6 n=71 v=102
8712 On ch=6 n=67 v=96
8712 On ch=6 n=62 v=95
8746 On ch=6 n=67 v=0
8750 On ch=6 n=71 v=0
8760 On ch=6 n=71 v=98
8760 On ch=6 n=67 v=96
8764 On ch=6 n=50 v=0
8784 On ch=6 n=50 v=104
8789 On ch=6 n=67 v=0
8790 On ch=6 n=71 v=0
8808 On ch=6 n=71 v=90
8808 On ch=6 n=67 v=88
8815 On ch=6 n=55 v=0
8832 On ch=6 n=62 v=0
8832 On ch=6 n=50 v=0
8832 On ch=6 n=71 v=0
8832 On ch=6 n=67 v=0
8832 On ch=6 n=48 v=117
8856 On ch=6 n=55 v=102
8880 On ch=6 n=63 v=93
8904 On ch=6 n=63 v=90
8904 On ch=6 n=67 v=104
8939 On ch=6 n=55 v=0
8945 On ch=6 n=63 v=0
8949 On ch=6 n=63 v=0
8949 On ch=6 n=67 v=0
8952 On ch=6 n=60 v=92
8952 On ch=6 n=63 v=71
8958 On ch=6 n=63 v=0
8975 On ch=6 n=60 v=0
8976 On ch=6 n=55 v=117
9000 On ch=6 n=60 v=102
9000 On ch=6 n=63 v=100
9005 On ch=6 n=48 v=0
9024 On ch=6 n=55 v=0
9024 On ch=6 n=60 v=0
9024 On ch=6 n=63 v=0
9024 On ch=6 n=48 v=127
9048 On ch=6 n=55 v=95
9072 On ch=6 n=63 v=102
9096 On ch=6 n=63 v=96
9096 On ch=6 n=67 v=95
9130 On ch=6 n=63 v=0
9134 On ch=6 n=63 v=0
9144 On ch=6 n=60 v=98
9144 On ch=6 n=60 v=96
9148 On ch=6 n=55 v=0
9168 On ch=6 n=55 v=104
9173 On ch=6 n=60 v=0
9174 On ch=6 n=60 v=0
9192 On ch=6 n=63 v=90
9192 On ch=6 n=60 v=88
9199 On ch=6 n=48 v=0
9216 On ch=6 n=67 v=0
9216 On ch=6 n=55 v=0
9216 On ch=6 n=63 v=0
9216 On ch=6 n=60 v=0
9216 On ch=6 n=48 v=117
9240 On ch=6 n=55 v=102
9264 On ch=6 n=63 v=93
9288 On ch=6 n=63 v=90
9288 On ch=6 n=67 v=104
9323 On ch=6 n=55 v=0
9329 On ch=6 n=63 v=0
9333 On ch=6 n=63 v=0
9333 On ch=6 n=67 v=0
9336 On ch=6 n=60 v=92
9336 On ch=6 n=63 v=71
9342 On ch=6 n=63 v=0
9359 On ch=6 n=60 v=0
9360 On ch=6 n=55 v=117
9384 On ch=6 n=60 v=102
9384 On ch=6 n=63 v=100
9389 On ch=6 n=48 v=0
9408 On ch=6 n=55 v=0
9408 On ch=6 n=60 v=0
9408 On ch=6 n=63 v=0
9408 On ch=6 n=53 v=114
9432 On ch=6 n=48 v=104
9456 On ch=6 n=68 v=89
9477 On ch=6 n=68 v=0
9480 On ch=6 n=65 v=60
9480 On ch=6 n=68 v=95
9480 On ch=6 n=60 v=98
9514 On ch=6 n=48 v=0
9528 On ch=6 n=48 v=100
9533 On ch=6 n=60 v=0
9535 On ch=6 n=68 v=0
9535 On ch=6 n=65 v=0
9552 On ch=6 n=65 v=96
9552 On ch=6 n=68 v=102
9552 On ch=6 n=65 v=96
9557 On ch=6 n=48 v=0
9576 On ch=6 n=48 v=111
9585 On ch=6 n=53 v=0
9600 On ch=6 n=65 v=0
9600 On ch=6 n=68 v=0
9600 On ch=6 n=65 v=0
9600 On ch=6 n=48 v=0
9600 On ch=6 n=55 v=127
9624 On ch=6 n=50 v=95
9648 On ch=6 n=71 v=102
9672 On ch=6 n=67 v=96
9672 On ch=6 n=62 v=95
9706 On ch=6 n=67 v=0
9710 On ch=6 n=71 v=0
9720 On ch=6 n=71 v=98
9720 On ch=6 n=67 v=96
9724 On ch=6 n=50 v=0
9744 On ch=6 n=50 v=104
9749 On ch=6 n=67 v=0
9750 On ch=6 n=71 v=0
9768 On ch=6 n=71 v=90
9768 On ch=6 n=67 v=88
9775 On ch=6 n=55 v=0
9792 On ch=6 n=62 v=0
9792 On ch=6 n=50 v=0
9792 On ch=6 n=71 v=0
9792 On ch=6 n=67 v=0
9792 On ch=6 n=48 v=117
9816 On ch=6 n=55 v=102
9840 On ch=6 n=63 v=93
9864 On ch=6 n=63 v=90
9864 On ch=6 n=67 v=104
9899 On ch=6 n=55 v=0
9905 On ch=6 n=63 v=0
9909 On ch=6 n=63 v=0
9909 On ch=6 n=67 v=0
9912 On ch=6 n=60 v=92
9912 On ch=6 n=63 v=71
9918 On ch=6 n=63 v=0
9935 On ch=6 n=60 v=0
9936 On ch=6 n=55 v=117
9960 On ch=6 n=60 v=102
9960 On ch=6 n=63 v=100
9965 On ch=6 n=48 v=0
9984 On ch=6 n=55 v=0
9984 On ch=6 n=60 v=0
9984 On ch=6 n=63 v=0
9984 On ch=6 n=51 v=127
10008 On ch=6 n=58 v=95
10032 On ch=6 n=67 v=102
10056 On ch=6 n=63 v=96
10056 On ch=6 n=70 v=95
10090 On ch=6 n=63 v=0
10094 On ch=6 n=67 v=0
10104 On ch=6 n=67 v=98
10104 On ch=6 n=63 v=96
10108 On ch=6 n=58 v=0
10128 On ch=6 n=58 v=104
10133 On ch=6 n=63 v=0
10134 On ch=6 n=67 v=0
10152 On ch=6 n=67 v=90
10152 On ch=6 n=63 v=88
10159 On ch=6 n=51 v=0
10176 On ch=6 n=70 v=0
10176 On ch=6 n=58 v=0
10176 On ch=6 n=67 v=0
10176 On ch=6 n=63 v=0
10176 On ch=6 n=53 v=114
10200 On ch=6 n=48 v=104
10224 On ch=6 n=68 v=89
10245 On ch=6 n=68 v=0
10248 On ch=6 n=65 v=60
10248 On ch=6 n=68 v=95
10248 On ch=6 n=60 v=98
10282 On ch=6 n=48 v=0
10296 On ch=6 n=48 v=100
10301 On ch=6 n=60 v=0
10303 On ch=6 n=68 v=0
10303 On ch=6 n=65 v=0
10320 On ch=6 n=65 v=96
10320 On ch=6 n=68 v=102
10320 On ch=6 n=65 v=96
10325 On ch=6 n=48 v=0
10344 On ch=6 n=48 v=111
10353 On ch=6 n=53 v=0
10368 On ch=6 n=65 v=0
10368 On ch=6 n=68 v=0
10368 On ch=6 n=65 v=0
10368 On ch=6 n=48 v=0
10368 On ch=6 n=58 v=117
10392 On ch=6 n=53 v=102
10416 On ch=6 n=62 v=93
10440 On ch=6 n=62 v=90
10440 On ch=6 n=65 v=104
10475 On ch=6 n=53 v=0
10481 On ch=6 n=62 v=0
10485 On ch=6 n=62 v=0
10485 On ch=6 n=65 v=0
10488 On ch=6 n=70 v=92
10488 On ch=6 n=62 v=71
10494 On ch=6 n=62 v=0
10511 On ch=6 n=70 v=0
10512 On ch=6 n=53 v=117
10536 On ch=6 n=70 v=102
10536 On ch=6 n=62 v=100
10541 On ch=6 n=58 v=0
10560 On ch=6 n=53 v=0
10560 On ch=6 n=70 v=0
10560 On ch=6 n=62 v=0
10560 On ch=6 n=51 v=114
10584 On ch=6 n=58 v=104
10608 On ch=6 n=67 v=89
10629 On ch=6 n=67 v=0
10632 On ch=6 n=63 v=60
10632 On ch=6 n=67 v=95
10632 On ch=6 n=70 v=98
10666 On ch=6 n=58 v=0
10680 On ch=6 n=58 v=100
10685 On ch=6 n=70 v=0
10687 On ch=6 n=67 v=0
10687 On ch=6 n=63 v=0
10704 On ch=6 n=67 v=96
10704 On ch=6 n=63 v=102
10704 On ch=6 n=63 v=96
10709 On ch=6 n=58 v=0
10728 On ch=6 n=58 v=111
10737 On ch=6 n=51 v=0
10752 On ch=6 n=67 v=0
10752 On ch=6 n=63 v=0
10752 On ch=6 n=63 v=0
10752 On ch=6 n=58 v=0
10752 On ch=6 n=51 v=117
10776 On ch=6 n=58 v=102
10800 On ch=6 n=67 v=93
10824 On ch=6 n=63 v=90
10824 On ch=6 n=70 v=104
10859 On ch=6 n=58 v=0
10865 On ch=6 n=67 v=0
10869 On ch=6 n=63 v=0
10869 On ch=6 n=70 v=0
10872 On ch=6 n=67 v=92
10872 On ch=6 n=63 v=71
10878 On ch=6 n=63 v=0
10895 On ch=6 n=67 v=0
10896 On ch=6 n=58 v=117
10920 On ch=6 n=67 v=102
10920 On ch=6 n=63 v=100
10925 On ch=6 n=51 v=0
10944 On ch=6 n=58 v=0
10944 On ch=6 n=67 v=0
10944 On ch=6 n=63 v=0
10944 On ch=6 n=59 v=117
10968 On ch=6 n=53 v=102
10992 On ch=6 n=62 v=93
11016 On ch=6 n=62 v=90
11016 On ch=6 n=65 v=104
11051 On ch=6 n=53 v=0
11057 On ch=6 n=62 v=0
11061 On ch=6 n=62 v=0
11061 On ch=6 n=65 v=0
11064 On ch=6 n=71 v=92
11064 On ch=6 n=62 v=71
11070 On ch=6 n=62 v=0
11087 On ch=6 n=71 v=0
11088 On ch=6 n=53 v=117
11112 On ch=6 n=71 v=102
11112 On ch=6 n=62 v=100
11117 On ch=6 n=59 v=0
11136 On ch=6 n=53 v=0
11136 On ch=6 n=71 v=0
11136 On ch=6 n=62 v=0
11136 On ch=6 n=53 v=114
11160 On ch=6 n=56 v=104
11184 On ch=6 n=71 v=89
11205 On ch=6 n=71 v=0
11208 On ch=6 n=65 v=60
11208 On ch=6 n=68 v=95
11208 On ch=6 n=71 v=98
11242 On ch=6 n=56 v=0
11256 On ch=6 n=53 v=100
11261 On ch=6 n=71 v=0
11263 On ch=6 n=68 v=0
11263 On ch=6 n=65 v=0
11280 On ch=6 n=68 v=96
11280 On ch=6 n=71 v=102
11280 On ch=6 n=65 v=96
11285 On ch=6 n=53 v=0
11304 On ch=6 n=56 v=111
11313 On ch=6 n=53 v=0
11328 On ch=6 n=68 v=0
11328 On ch=6 n=71 v=0
11328 On ch=6 n=65 v=0
11328 On ch=6 n=56 v=0
11328 On ch=6 n=48 v=127
11352 On ch=6 n=55 v=95
11376 On ch=6 n=63 v=102
11400 On ch=6 n=63 v=96
11400 On ch=6 n=67 v=95
11434 On ch=6 n=63 v=0
11438 On ch=6 n=63 v=0
11448 On ch=6 n=60 v=98
11448 On ch=6 n=60 v=96
11452 On ch=6 n=55 v=0
11472 On ch=6 n=55 v=104
11477 On ch=6 n=60 v=0
11478 On ch=6 n=60 v=0
11496 On ch=6 n=63 v=90
11496 On ch=6 n=60 v=88
11503 On ch=6 n=48 v=0
11520 On ch=6 n=67 v=0
11520 On ch=6 n=55 v=0
11520 On ch=6 n=63 v=0
11520 On ch=6 n=60 v=0
11520 On ch=6 n=48 v=127
11544 On ch=6 n=55 v=95
11568 On ch=6 n=63 v=102
11592 On ch=6 n=63 v=96
11592 On ch=6 n=67 v=95
11626 On ch=6 n=63 v=0
11630 On ch=6 n=63 v=0
11640 On ch=6 n=60 v=98
11640 On ch=6 n=60 v=96
11644 On ch=6 n=55 v=0
11664 On ch=6 n=55 v=104
11669 On ch=6 n=60 v=0
11670 On ch=6 n=60 v=0
11688 On ch=6 n=63 v=90
11688 On ch=6 n=60 v=88
11695 On ch=6 n=48 v=0
11712 On ch=6 n=67 v=0
11712 On ch=6 n=55 v=0
11712 On ch=6 n=63 v=0
11712 On ch=6 n=60 v=0
11712 On ch=6 n=53 v=117
11736 On ch=6 n=48 v=102
11760 On ch=6 n=68 v=93
11784 On ch=6 n=68 v=90
11784 On ch=6 n=60 v=104
11819 On ch=6 n=48 v=0
11825 On ch=6 n=68 v=0
11829 On ch=6 n=68 v=0
11829 On ch=6 n=60 v=0
11832 On ch=6 n=65 v=92
11832 On ch=6 n=68 v=71
11838 On ch=6 n=68 v=0
11855 On ch=6 n=65 v=0
11856 On ch=6 n=48 v=117
11880 On ch=6 n=65 v=102
11880 On ch=6 n=68 v=100
11885 On ch=6 n=53 v=0
11904 On ch=6 n=48 v=0
11904 On ch=6 n=65 v=0
11904 On ch=6 n=68 v=0
11904 On ch=6 n=55 v=127
11928 On ch=6 n=50 v=95
11952 On ch=6 n=65 v=102
11976 On ch=6 n=71 v=96
11976 On ch=6 n=62 v=95
12010 On ch=6 n=71 v=0
12014 On ch=6 n=65 v=0
12024 On ch=6 n=67 v=98
12024 On ch=6 n=65 v=96
12028 On ch=6 n=50 v=0
12048 On ch=6 n=59 v=104
12053 On ch=6 n=65 v=0
12054 On ch=6 n=67 v=0
12072 On ch=6 n=67 v=90
12072 On ch=6 n=65 v=88
12079 On ch=6 n=55 v=0
12096 On ch=6 n=62 v=0
12096 On ch=6 n=59 v=0
12096 On ch=6 n=67 v=0
12096 On ch=6 n=65 v=0
12096 On ch=6 n=48 v=127
12120 On ch=6 n=55 v=95
12144 On ch=6 n=63 v=102
12168 On ch=6 n=63 v=96
12168 On ch=6 n=67 v=95
12202 On ch=6 n=63 v=0
12206 On ch=6 n=63 v=0
12216 On ch=6 n=60 v=98
12216 On ch=6 n=60 v=96
12220 On ch=6 n=55 v=0
12240 On ch=6 n=55 v=104
12245 On ch=6 n=60 v=0
12246 On ch=6 n=60 v=0
12264 On ch=6 n=63 v=90
12264 On ch=6 n=60 v=88
12271 On ch=6 n=48 v=0
12288 On ch=6 n=67 v=0
12288 On ch=6 n=55 v=0
12288 On ch=6 n=63 v=0
12288 On ch=6 n=60 v=0
12288 On ch=6 n=53 v=114
12312 On ch=6 n=48 v=104
12336 On ch=6 n=68 v=89
12357 On ch=6 n=68 v=0
12360 On ch=6 n=65 v=60
12360 On ch=6 n=68 v=95
12360 On ch=6 n=60 v=98
12394 On ch=6 n=48 v=0
12408 On ch=6 n=48 v=100
12413 On ch=6 n=60 v=0
12415 On ch=6 n=68 v=0
12415 On ch=6 n=65 v=0
12432 On ch=6 n=65 v=96
12432 On ch=6 n=68 v=102
12432 On ch=6 n=65 v=96
12437 On ch=6 n=48 v=0
12456 On ch=6 n=48 v=111
12465 On ch=6 n=53 v=0
12480 On ch=6 n=65 v=0
12480 On ch=6 n=68 v=0
12480 On ch=6 n=65 v=0
12480 On ch=6 n=48 v=0
12480 On ch=6 n=58 v=117
12504 On ch=6 n=53 v=102
12528 On ch=6 n=62 v=93
12552 On ch=6 n=62 v=90
12552 On ch=6 n=65 v=104
12587 On ch=6 n=53 v=0
12593 On ch=6 n=62 v=0
12597 On ch=6 n=62 v=0
12597 On ch=6 n=65 v=0
12600 On ch=6 n=70 v=92
12600 On ch=6 n=62 v=71
12606 On ch=6 n=62 v=0
12623 On ch=6 n=70 v=0
12624 On ch=6 n=53 v=117
12648 On ch=6 n=70 v=102
12648 On ch=6 n=62 v=100
12653 On ch=6 n=58 v=0
12672 On ch=6 n=53 v=0
12672 On ch=6 n=70 v=0
12672 On ch=6 n=62 v=0
12672 On ch=6 n=51 v=117
12696 On ch=6 n=58 v=102
12720 On ch=6 n=67 v=93
12744 On ch=6 n=63 v=90
12744 On ch=6 n=70 v=104
12779 On ch=6 n=58 v=0
12785 On ch=6 n=67 v=0
12789 On ch=6 n=63 v=0
12789 On ch=6 n=70 v=0
12792 On ch=6 n=67 v=92
12792 On ch=6 n=63 v=71
12798 On ch=6 n=63 v=0
12815 On ch=6 n=67 v=0
12816 On ch=6 n=58 v=117
12840 On ch=6 n=67 v=102
12840 On ch=6 n=63 v=100
12845 On ch=6 n=51 v=0
12864 On ch=6 n=58 v=0
12864 On ch=6 n=67 v=0
12864 On ch=6 n=63 v=0
12864 On ch=6 n=56 v=117
12888 On ch=6 n=51 v=102
12912 On ch=6 n=60 v=93
12936 On ch=6 n=68 v=90
12936 On ch=6 n=63 v=104
12971 On ch=6 n=51 v=0
12977 On ch=6 n=60 v=0
12981 On ch=6 n=68 v=0
12981 On ch=6 n=63 v=0
12984 On ch=6 n=60 v=92
12984 On ch=6 n=68 v=71
12990 On ch=6 n=68 v=0
13007 On ch=6 n=60 v=0
13008 On ch=6 n=51 v=117
13032 On ch=6 n=60 v=102
13032 On ch=6 n=68 v=100
13037 On ch=6 n=56 v=0
13056 On ch=6 n=51 v=0
13056 On ch=6 n=60 v=0
13056 On ch=6 n=68 v=0
13056 On ch=6 n=53 v=127
13080 On ch=6 n=48 v=95
13104 On ch=6 n=68 v=102
13128 On ch=6 n=68 v=96
13128 On ch=6 n=60 v=95
13162 On ch=6 n=68 v=0
13166 On ch=6 n=68 v=0
13176 On ch=6 n=65 v=98
13176 On ch=6 n=65 v=96
13180 On ch=6 n=48 v=0
13200 On ch=6 n=48 v=104
13205 On ch=6 n=65 v=0
13206 On ch=6 n=65 v=0
13224 On ch=6 n=68 v=90
13224 On ch=6 n=65 v=88
13231 On ch=6 n=53 v=0
13248 On ch=6 n=60 v=0
13248 On ch=6 n=48 v=0
13248 On ch=6 n=68 v=0
13248 On ch=6 n=65 v=0
13248 On ch=6 n=55 v=127
13272 On ch=6 n=50 v=95
13296 On ch=6 n=71 v=102
13320 On ch=6 n=67 v=96
13320 On ch=6 n=62 v=95
13354 On ch=6 n=67 v=0
13358 On ch=6 n=71 v=0
13368 On ch=6 n=71 v=98
13368 On ch=6 n=67 v=96
13372 On ch=6 n=50 v=0
13392 On ch=6 n=50 v=104
13397 On ch=6 n=67 v=0
13398 On ch=6 n=71 v=0
13416 On ch=6 n=71 v=90
13416 On ch=6 n=67 v=88
13423 On ch=6 n=55 v=0
13440 On ch=6 n=62 v=0
13440 On ch=6 n=50 v=0
13440 On ch=6 n=71 v=0
13440 On ch=6 n=67 v=0
13440 On ch=6 n=48 v=114
13464 On ch=6 n=55 v=104
13488 On ch=6 n=63 v=89
13509 On ch=6 n=63 v=0
13512 On ch=6 n=60 v=60
13512 On ch=6 n=63 v=95
13512 On ch=6 n=67 v=98
13546 On ch=6 n=55 v=0
13560 On ch=6 n=55 v=100
13565 On ch=6 n=67 v=0
13567 On ch=6 n=63 v=0
13567 On ch=6 n=60 v=0
13584 On ch=6 n=63 v=96
13584 On ch=6 n=60 v=102
13584 On ch=6 n=60 v=96
13589 On ch=6 n=55 v=0
13608 On ch=6 n=55 v=111
13617 On ch=6 n=48 v=0
13632 On ch=6 n=63 v=0
13632 On ch=6 n=60 v=0
13632 On ch=6 n=60 v=0
13632 On ch=6 n=55 v=0
13632 On ch=6 n=48 v=117
13656 On ch=6 n=55 v=102
13680 On ch=6 n=64 v=93
13704 On ch=6 n=60 v=90
13704 On ch=6 n=67 v=104
13739 On ch=6 n=55 v=0
13745 On ch=6 n=64 v=0
13749 On ch=6 n=60 v=0
13749 On ch=6 n=67 v=0
13752 On ch=6 n=64 v=92
13752 On ch=6 n=60 v=71
13758 On ch=6 n=60 v=0
13775 On ch=6 n=64 v=0
13776 On ch=6 n=55 v=117
13800 On ch=6 n=64 v=102
13800 On ch=6 n=60 v=100
13805 On ch=6 n=48 v=0
13824 On ch=6 n=55 v=0
13824 On ch=6 n=64 v=0
13824 On ch=6 n=60 v=0
13824 On ch=6 n=53 v=127
13848 On ch=6 n=48 v=95
13872 On ch=6 n=68 v=102
13896 On ch=6 n=68 v=96
13896 On ch=6 n=60 v=95
13930 On ch=6 n=68 v=0
13934 On ch=6 n=68 v=0
13944 On ch=6 n=65 v=98
13944 On ch=6 n=65 v=96
13948 On ch=6 n=48 v=0
13968 On ch=6 n=48 v=104
13973 On ch=6 n=65 v=0
13974 On ch=6 n=65 v=0
13992 On ch=6 n=68 v=90
13992 On ch=6 n=65 v=88
13999 On ch=6 n=53 v=0
14016 On ch=6 n=60 v=0
14016 On ch=6 n=48 v=0
14016 On ch=6 n=68 v=0
14016 On ch=6 n=65 v=0
14016 On ch=6 n=58 v=114
14040 On ch=6 n=53 v=104
14064 On ch=6 n=62 v=89
14085 On ch=6 n=62 v=0
14088 On ch=6 n=70 v=60
14088 On ch=6 n=62 v=95
14088 On ch=6 n=65 v=98
14122 On ch=6 n=53 v=0
14136 On ch=6 n=53 v=100
14141 On ch=6 n=65 v=0
14143 On ch=6 n=62 v=0
14143 On ch=6 n=70 v=0
14160 On ch=6 n=62 v=96
14160 On ch=6 n=70 v=102
14160 On ch=6 n=70 v=96
14165 On ch=6 n=53 v=0
14184 On ch=6 n=53 v=111
14193 On ch=6 n=58 v=0
14208 On ch=6 n=62 v=0
14208 On ch=6 n=70 v=0
14208 On ch=6 n=70 v=0
14208 On ch=6 n=53 v=0
14208 On ch=6 n=51 v=117
14232 On ch=6 n=58 v=102
14256 On ch=6 n=67 v=93
14280 On ch=6 n=63 v=90
14280 On ch=6 n=70 v=104
14315 On ch=6 n=58 v=0
14321 On ch=6 n=67 v=0
14325 On ch=6 n=63 v=0
14325 On ch=6 n=70 v=0
14328 On ch=6 n=67 v=92
14328 On ch=6 n=63 v=71
14334 On ch=6 n=63 v=0
14351 On ch=6 n=67 v=0
14352 On ch=6 n=58 v=117
14376 On ch=6 n=67 v=102
14376 On ch=6 n=63 v=100
14381 On ch=6 n=51 v=0
14400 On ch=6 n=58 v=0
14400 On ch=6 n=67 v=0
14400 On ch=6 n=63 v=0
14400 On ch=6 n=56 v=117
14424 On ch=6 n=51 v=102
14448 On ch=6 n=60 v=93
14472 On ch=6 n=68 v=90
14472 On ch=6 n=63 v=104
14507 On ch=6 n=51 v=0
14513 On ch=6 n=60 v=0
14517 On ch=6 n=68 v=0
14517 On ch=6 n=63 v=0
14520 On ch=6 n=60 v=92
14520 On ch=6 n=68 v=71
14526 On ch=6 n=68 v=0
14543 On ch=6 n=60 v=0
14544 On ch=6 n=51 v=117
14568 On ch=6 n=60 v=102
14568 On ch=6 n=68 v=100
14573 On ch=6 n=56 v=0
14592 On ch=6 n=51 v=0
14592 On ch=6 n=60 v=0
14592 On ch=6 n=68 v=0
14592 On ch=6 n=53 v=117
14616 On ch=6 n=48 v=102
14640 On ch=6 n=68 v=93
14664 On ch=6 n=68 v=90
14664 On ch=6 n=60 v=104
14699 On ch=6 n=48 v=0
14705 On ch=6 n=68 v=0
14709 On ch=6 n=68 v=0
14709 On ch=6 n=60 v=0
14712 On ch=6 n=65 v=92
14712 On ch=6 n=68 v=71
14718 On ch=6 n=68 v=0
14735 On ch=6 n=65 v=0
14736 On ch=6 n=48 v=117
14760 On ch=6 n=65 v=102
14760 On ch=6 n=68 v=100
14765 On ch=6 n=53 v=0
14784 On ch=6 n=48 v=0
14784 On ch=6 n=65 v=0
14784 On ch=6 n=68 v=0
14784 On ch=6 n=55 v=114
14808 On ch=6 n=50 v=104
14832 On ch=6 n=71 v=89
14853 On ch=6 n=71 v=0
14856 On ch=6 n=67 v=60
14856 On ch=6 n=71 v=95
14856 On ch=6 n=62 v=98
14890 On ch=6 n=50 v=0
14904 On ch=6 n=50 v=100
14909 On ch=6 n=62 v=0
14911 On ch=6 n=71 v=0
14911 On ch=6 n=67 v=0
14928 On ch=6 n=67 v=96
14928 On ch=6 n=71 v=102
14928 On ch=6 n=67 v=96
14933 On ch=6 n=50 v=0
14952 On ch=6 n=50 v=111
14961 On ch=6 n=55 v=0
14976 On ch=6 n=67 v=0
14976 On ch=6 n=71 v=0
14976 On ch=6 n=67 v=0
14976 On ch=6 n=50 v=0
14976 On ch=6 n=48 v=117
15000 On ch=6 n=55 v=102
15024 On ch=6 n=63 v=93
15048 On ch=6 n=63 v=90
15048 On ch=6 n=67 v=104
15083 On ch=6 n=55 v=0
15089 On ch=6 n=63 v=0
15093 On ch=6 n=63 v=0
15093 On ch=6 n=67 v=0
15096 On ch=6 n=60 v=92
15096 On ch=6 n=63 v=71
15102 On ch=6 n=63 v=0
15119 On ch=6 n=60 v=0
15120 On ch=6 n=55 v=117
15144 On ch=6 n=60 v=102
15144 On ch=6 n=63 v=100
15149 On ch=6 n=48 v=0
15168 On ch=6 n=55 v=0
15168 On ch=6 n=60 v=0
15168 On ch=6 n=63 v=0
15168 On ch=6 n=48 v=114
15192 On ch=6 n=55 v=104
15216 On ch=6 n=63 v=89
15237 On ch=6 n=63 v=0
15240 On ch=6 n=60 v=60
15240 On ch=6 n=63 v=95
15240 On ch=6 n=67 v=98
15274 On ch=6 n=55 v=0
15288 On ch=6 n=55 v=100
15293 On ch=6 n=67 v=0
15295 On ch=6 n=63 v=0
15295 On ch=6 n=60 v=0
15312 On ch=6 n=63 v=96
15312 On ch=6 n=60 v=102
15312 On ch=6 n=60 v=96
15317 On ch=6 n=55 v=0
15336 On ch=6 n=55 v=111
15345 On ch=6 n=48 v=0
15360 On ch=6 n=63 v=0
15360 On ch=6 n=60 v=0
15360 On ch=6 n=60 v=0
15360 On ch=6 n=55 v=0
15360 On ch=6 n=48 v=127
15384 On ch=6 n=55 v=95
15408 On ch=6 n=63 v=102
15432 On ch=6 n=63 v=96
15432 On ch=6 n=67 v=95
15466 On ch=6 n=63 v=0
15470 On ch=6 n=63 v=0
15480 On ch=6 n=60 v=98
15480 On ch=6 n=60 v=96
15484 On ch=6 n=55 v=0
15504 On ch=6 n=55 v=104
15509 On ch=6 n=60 v=0
15510 On ch=6 n=60 v=0
15528 On ch=6 n=63 v=90
15528 On ch=6 n=60 v=88
15535 On ch=6 n=48 v=0
15552 On ch=6 n=67 v=0
15552 On ch=6 n=55 v=0
15552 On ch=6 n=63 v=0
15552 On ch=6 n=60 v=0
15552 On ch=6 n=53 v=117
15576 On ch=6 n=48 v=102
15600 On ch=6 n=68 v=93
15624 On ch=6 n=68 v=90
15624 On ch=6 n=60 v=104
15659 On ch=6 n=48 v=0
15665 On ch=6 n=68 v=0
15669 On ch=6 n=68 v=0
15669 On ch=6 n=60 v=0
15672 On ch=6 n=65 v=92
15672 On ch=6 n=68 v=71
15678 On ch=6 n=68 v=0
15695 On ch=6 n=65 v=0
15696 On ch=6 n=48 v=117
15720 On ch=6 n=65 v=102
15720 On ch=6 n=68 v=100
15725 On ch=6 n=53 v=0
15744 On ch=6 n=48 v=0
15744 On ch=6 n=65 v=0
15744 On ch=6 n=68 v=0
15744 On ch=6 n=55 v=127
15768 On ch=6 n=50 v=95
15792 On ch=6 n=71 v=102
15816 On ch=6 n=67 v=96
15816 On ch=6 n=62 v=95
15850 On ch=6 n=67 v=0
15854 On ch=6 n=71 v=0
15864 On ch=6 n=71 v=98
15864 On ch=6 n=67 v=96
15868 On ch=6 n=50 v=0
15888 On ch=6 n=50 v=104
15893 On ch=6 n=67 v=0
15894 On ch=6 n=71 v=0
15912 On ch=6 n=71 v=90
15912 On ch=6 n=67 v=88
15919 On ch=6 n=55 v=0
15936 On ch=6 n=62 v=0
15936 On ch=6 n=50 v=0
15936 On ch=6 n=71 v=0
15936 On ch=6 n=67 v=0
15936 On ch=6 n=48 v=127
15960 On ch=6 n=55 v=95
15984 On ch=6 n=63 v=102
16008 On ch=6 n=63 v=96
16008 On ch=6 n=67 v=95
16042 On ch=6 n=63 v=0
16046 On ch=6 n=63 v=0
16056 On ch=6 n=60 v=98
16056 On ch=6 n=60 v=96
16060 On ch=6 n=55 v=0
16080 On ch=6 n=55 v=104
16085 On ch=6 n=60 v=0
16086 On ch=6 n=60 v=0
16104 On ch=6 n=63 v=90
16104 On ch=6 n=60 v=88
16111 On ch=6 n=48 v=0
16128 On ch=6 n=67 v=0
16128 On ch=6 n=55 v=0
16128 On ch=6 n=63 v=0
16128 On ch=6 n=60 v=0
16128 On ch=6 n=51 v=114
16152 On ch=6 n=58 v=104
16176 On ch=6 n=67 v=89
16197 On ch=6 n=67 v=0
16200 On ch=6 n=63 v=60
16200 On ch=6 n=67 v=95
16200 On ch=6 n=70 v=98
16234 On ch=6 n=58 v=0
16248 On ch=6 n=58 v=100
16253 On ch=6 n=70 v=0
16255 On ch=6 n=67 v=0
16255 On ch=6 n=63 v=0
16272 On ch=6 n=67 v=96
16272 On ch=6 n=63 v=102
16272 On ch=6 n=63 v=96
16277 On ch=6 n=58 v=0
16296 On ch=6 n=58 v=111
16305 On ch=6 n=51 v=0
16320 On ch=6 n=67 v=0
16320 On ch=6 n=63 v=0
16320 On ch=6 n=63 v=0
16320 On ch=6 n=58 v=0
16320 On ch=6 n=53 v=127
16344 On ch=6 n=48 v=95
16368 On ch=6 n=68 v=102
16392 On ch=6 n=68 v=96
16392 On ch=6 n=60 v=95
16426 On ch=6 n=68 v=0
16430 On ch=6 n=68 v=0
16440 On ch=6 n=65 v=98
16440 On ch=6 n=65 v=96
16444 On ch=6 n=48 v=0
16464 On ch=6 n=48 v=104
16469 On ch=6 n=65 v=0
16470 On ch=6 n=65 v=0
16488 On ch=6 n=68 v=90
16488 On ch=6 n=65 v=88
16495 On ch=6 n=53 v=0
16512 On ch=6 n=60 v=0
16512 On ch=6 n=48 v=0
16512 On ch=6 n=68 v=0
16512 On ch=6 n=65 v=0
16512 On ch=6 n=58 v=114
16536 On ch=6 n=53 v=104
16560 On ch=6 n=62 v=89
16581 On ch=6 n=62 v=0
16584 On ch=6 n=70 v=60
16584 On ch=6 n=62 v=95
16584 On ch=6 n=65 v=98
16618 On ch=6 n=53 v=0
16632 On ch=6 n=53 v=100
16637 On ch=6 n=65 v=0
16639 On ch=6 n=62 v=0
16639 On ch=6 n=70 v=0
16656 On ch=6 n=62 v=96
16656 On ch=6 n=70 v=102
16656 On ch=6 n=70 v=96
16661 On ch=6 n=53 v=0
16680 On ch=6 n=53 v=111
16689 On ch=6 n=58 v=0
16704 On ch=6 n=62 v=0
16704 On ch=6 n=70 v=0
16704 On ch=6 n=70 v=0
16704 On ch=6 n=53 v=0
16704 On ch=6 n=51 v=117
16728 On ch=6 n=58 v=102
16752 On ch=6 n=67 v=93
16776 On ch=6 n=63 v=90
16776 On ch=6 n=70 v=104
16811 On ch=6 n=58 v=0
16817 On ch=6 n=67 v=0
16821 On ch=6 n=63 v=0
16821 On ch=6 n=70 v=0
16824 On ch=6 n=67 v=92
16824 On ch=6 n=63 v=71
16830 On ch=6 n=63 v=0
16847 On ch=6 n=67 v=0
16848 On ch=6 n=58 v=117
16872 On ch=6 n=67 v=102
16872 On ch=6 n=63 v=100
16877 On ch=6 n=51 v=0
16896 On ch=6 n=58 v=0
16896 On ch=6 n=67 v=0
16896 On ch=6 n=63 v=0
16896 On ch=6 n=51 v=117
16920 On ch=6 n=58 v=102
16944 On ch=6 n=67 v=93
16968 On ch=6 n=63 v=90
16968 On ch=6 n=70 v=104
17003 On ch=6 n=58 v=0
17009 On ch=6 n=67 v=0
17013 On ch=6 n=63 v=0
17013 On ch=6 n=70 v=0
17016 On ch=6 n=67 v=92
17016 On ch=6 n=63 v=71
17022 On ch=6 n=63 v=0
17039 On ch=6 n=67 v=0
17040 On ch=6 n=58 v=117
17064 On ch=6 n=67 v=102
17064 On ch=6 n=63 v=100
17069 On ch=6 n=51 v=0
17088 On ch=6 n=58 v=0
17088 On ch=6 n=67 v=0
17088 On ch=6 n=63 v=0
17088 On ch=6 n=59 v=114
17112 On ch=6 n=53 v=104
17136 On ch=6 n=62 v=89
17157 On ch=6 n=62 v=0
17160 On ch=6 n=71 v=60
17160 On ch=6 n=62 v=95
17160 On ch=6 n=65 v=98
17194 On ch=6 n=53 v=0
17208 On ch=6 n=53 v=100
17213 On ch=6 n=65 v=0
17215 On ch=6 n=62 v=0
17215 On ch=6 n=71 v=0
17232 On ch=6 n=62 v=96
17232 On ch=6 n=71 v=102
17232 On ch=6 n=71 v=96
17237 On ch=6 n=53 v=0
17256 On ch=6 n=53 v=111
17265 On ch=6 n=59 v=0
17280 On ch=6 n=62 v=0
17280 On ch=6 n=71 v=0
17280 On ch=6 n=71 v=0
17280 On ch=6 n=53 v=0
17280 On ch=6 n=53 v=127
17304 On ch=6 n=56 v=95
17328 On ch=6 n=71 v=102
17352 On ch=6 n=68 v=96
17352 On ch=6 n=65 v=95
17386 On ch=6 n=68 v=0
17390 On ch=6 n=71 v=0
17400 On ch=6 n=71 v=98
17400 On ch=6 n=65 v=96
17404 On ch=6 n=56 v=0
17424 On ch=6 n=56 v=104
17429 On ch=6 n=65 v=0
17430 On ch=6 n=71 v=0
17448 On ch=6 n=71 v=90
17448 On ch=6 n=65 v=88
17455 On ch=6 n=53 v=0
17472 On ch=6 n=65 v=0
17472 On ch=6 n=56 v=0
17472 On ch=6 n=71 v=0
17472 On ch=6 n=65 v=0
17472 On ch=6 n=48 v=117
17496 On ch=6 n=55 v=102
17520 On ch=6 n=63 v=93
17544 On ch=6 n=63 v=90
17544 On ch=6 n=67 v=104
17579 On ch=6 n=55 v=0
17585 On ch=6 n=63 v=0
17589 On ch=6 n=63 v=0
17589 On ch=6 n=67 v=0
17592 On ch=6 n=60 v=92
17592 On ch=6 n=63 v=71
17598 On ch=6 n=63 v=0
17615 On ch=6 n=60 v=0
17616 On ch=6 n=55 v=117
17640 On ch=6 n=60 v=102
17640 On ch=6 n=63 v=100
17645 On ch=6 n=48 v=0
17664 On ch=6 n=55 v=0
17664 On ch=6 n=60 v=0
17664 On ch=6 n=63 v=0
17664 On ch=6 n=48 v=114
17688 On ch=6 n=55 v=104
17712 On ch=6 n=63 v=89
17733 On ch=6 n=63 v=0
17736 On ch=6 n=60 v=60
17736 On ch=6 n=63 v=95
17736 On ch=6 n=67 v=98
17770 On ch=6 n=55 v=0
17784 On ch=6 n=55 v=100
17789 On ch=6 n=67 v=0
17791 On ch=6 n=63 v=0
17791 On ch=6 n=60 v=0
17808 On ch=6 n=63 v=96
17808 On ch=6 n=60 v=102
17808 On ch=6 n=60 v=96
17813 On ch=6 n=55 v=0
17832 On ch=6 n=55 v=111
17841 On ch=6 n=48 v=0
17856 On ch=6 n=63 v=0
17856 On ch=6 n=60 v=0
17856 On ch=6 n=60 v=0
17856 On ch=6 n=55 v=0
17856 On ch=6 n=53 v=117
17880 On ch=6 n=48 v=102
17904 On ch=6 n=68 v=93
17928 On ch=6 n=68 v=90
17928 On ch=6 n=60 v=104
17963 On ch=6 n=48 v=0
17969 On ch=6 n=68 v=0
17973 On ch=6 n=68 v=0
17973 On ch=6 n=60 v=0
17976 On ch=6 n=65 v=92
17976 On ch=6 n=68 v=71
17982 On ch=6 n=68 v=0
17999 On ch=6 n=65 v=0
18000 On ch=6 n=48 v=117
18024 On ch=6 n=65 v=102
18024 On ch=6 n=68 v=100
18029 On ch=6 n=53 v=0
18048 On ch=6 n=48 v=0
18048 On ch=6 n=65 v=0
18048 On ch=6 n=68 v=0
18048 On ch=6 n=55 v=127
18072 On ch=6 n=50 v=95
18096 On ch=6 n=65 v=102
18120 On ch=6 n=71 v=96
18120 On ch=6 n=62 v=95
18154 On ch=6 n=71 v=0
18158 On ch=6 n=65 v=0
18168 On ch=6 n=67 v=98
18168 On ch=6 n=65 v=96
18172 On ch=6 n=50 v=0
18192 On ch=6 n=59 v=104
18197 On ch=6 n=65 v=0
18198 On ch=6 n=67 v=0
18216 On ch=6 n=67 v=90
18216 On ch=6 n=65 v=88
18223 On ch=6 n=55 v=0
18240 On ch=6 n=62 v=0
18240 On ch=6 n=59 v=0
18240 On ch=6 n=67 v=0
18240 On ch=6 n=65 v=0
18240 On ch=6 n=48 v=117
18264 On ch=6 n=55 v=102
18288 On ch=6 n=63 v=93
18312 On ch=6 n=63 v=90
18312 On ch=6 n=67 v=104
18347 On ch=6 n=55 v=0
18353 On ch=6 n=63 v=0
18357 On ch=6 n=63 v=0
18357 On ch=6 n=67 v=0
18360 On ch=6 n=60 v=92
18360 On ch=6 n=63 v=71
18366 On ch=6 n=63 v=0
18383 On ch=6 n=60 v=0
18384 On ch=6 n=55 v=117
18408 On ch=6 n=60 v=102
18408 On ch=6 n=63 v=100
18413 On ch=6 n=48 v=0
18432 On ch=6 n=55 v=0
18432 On ch=6 n=60 v=0
18432 On ch=6 n=63 v=0
18432 On ch=6 n=53 v=114
18456 On ch=6 n=48 v=104
18480 On ch=6 n=68 v=89
18501 On ch=6 n=68 v=0
18504 On ch=6 n=65 v=60
18504 On ch=6 n=68 v=95
18504 On ch=6 n=60 v=98
18538 On ch=6 n=48 v=0
18552 On ch=6 n=48 v=100
18557 On ch=6 n=60 v=0
18559 On ch=6 n=68 v=0
18559 On ch=6 n=65 v=0
18576 On ch=6 n=65 v=96
18576 On ch=6 n=68 v=102
18576 On ch=6 n=65 v=96
18581 On ch=6 n=48 v=0
18600 On ch=6 n=48 v=111
18609 On ch=6 n=53 v=0
18624 On ch=6 n=65 v=0
18624 On ch=6 n=68 v=0
18624 On ch=6 n=65 v=0
18624 On ch=6 n=48 v=0
18624 On ch=6 n=58 v=117
18648 On ch=6 n=53 v=102
18672 On ch=6 n=62 v=93
18696 On ch=6 n=62 v=90
18696 On ch=6 n=65 v=104
18731 On ch=6 n=53 v=0
18737 On ch=6 n=62 v=0
18741 On ch=6 n=62 v=0
18741 On ch=6 n=65 v=0
18744 On ch=6 n=70 v=92
18744 On ch=6 n=62 v=71
18750 On ch=6 n=62 v=0
18767 On ch=6 n=70 v=0
18768 On ch=6 n=53 v=117
18792 On ch=6 n=70 v=102
18792 On ch=6 n=62 v=100
18797 On ch=6 n=58 v=0
18816 On ch=6 n=53 v=0
18816 On ch=6 n=70 v=0
18816 On ch=6 n=62 v=0
18816 On ch=6 n=51 v=114
18840 On ch=6 n=58 v=104
18864 On ch=6 n=67 v=89
18885 On ch=6 n=67 v=0
18888 On ch=6 n=63 v=60
18888 On ch=6 n=67 v=95
18888 On ch=6 n=70 v=98
18922 On ch=6 n=58 v=0
18936 On ch=6 n=58 v=100
18941 On ch=6 n=70 v=0
18943 On ch=6 n=67 v=0
18943 On ch=6 n=63 v=0
18960 On ch=6 n=67 v=96
18960 On ch=6 n=63 v=102
18960 On ch=6 n=63 v=96
18965 On ch=6 n=58 v=0
18984 On ch=6 n=58 v=111
18993 On ch=6 n=51 v=0
19008 On ch=6 n=67 v=0
19008 On ch=6 n=63 v=0
19008 On ch=6 n=63 v=0
19008 On ch=6 n=58 v=0
19008 On ch=6 n=56 v=117
19032 On ch=6 n=51 v=102
19056 On ch=6 n=60 v=93
19080 On ch=6 n=68 v=90
19080 On ch=6 n=63 v=104
19115 On ch=6 n=51 v=0
19121 On ch=6 n=60 v=0
19125 On ch=6 n=68 v=0
19125 On ch=6 n=63 v=0
19128 On ch=6 n=60 v=92
19128 On ch=6 n=68 v=71
19134 On ch=6 n=68 v=0
19151 On ch=6 n=60 v=0
19152 On ch=6 n=51 v=117
19176 On ch=6 n=60 v=102
19176 On ch=6 n=68 v=100
19181 On ch=6 n=56 v=0
19200 On ch=6 n=51 v=0
19200 On ch=6 n=60 v=0
19200 On ch=6 n=68 v=0
19200 On ch=6 n=53 v=114
19224 On ch=6 n=48 v=104
19248 On ch=6 n=68 v=89
19269 On ch=6 n=68 v=0
19272 On ch=6 n=65 v=60
19272 On ch=6 n=68 v=95
19272 On ch=6 n=60 v=98
19306 On ch=6 n=48 v=0
19320 On ch=6 n=48 v=100
19325 On ch=6 n=60 v=0
19327 On ch=6 n=68 v=0
19327 On ch=6 n=65 v=0
19344 On ch=6 n=65 v=96
19344 On ch=6 n=68 v=102
19344 On ch=6 n=65 v=96
19349 On ch=6 n=48 v=0
19368 On ch=6 n=48 v=111
19377 On ch=6 n=53 v=0
19392 On ch=6 n=65 v=0
19392 On ch=6 n=68 v=0
19392 On ch=6 n=65 v=0
19392 On ch=6 n=48 v=0
19392 On ch=6 n=55 v=117
19416 On ch=6 n=50 v=102
19440 On ch=6 n=71 v=93
19464 On ch=6 n=67 v=90
19464 On ch=6 n=62 v=104
19499 On ch=6 n=50 v=0
19505 On ch=6 n=71 v=0
19509 On ch=6 n=67 v=0
19509 On ch=6 n=62 v=0
19512 On ch=6 n=71 v=92
19512 On ch=6 n=67 v=71
19518 On ch=6 n=67 v=0
19535 On ch=6 n=71 v=0
19536 On ch=6 n=50 v=117
19560 On ch=6 n=71 v=102
19560 On ch=6 n=67 v=100
19565 On ch=6 n=55 v=0
19584 On ch=6 n=50 v=0
19584 On ch=6 n=71 v=0
19584 On ch=6 n=67 v=0
19584 On ch=6 n=48 v=117
19608 On ch=6 n=55 v=102
19632 On ch=6 n=63 v=93
19656 On ch=6 n=63 v=90
19656 On ch=6 n=67 v=104
19691 On ch=6 n=55 v=0
19697 On ch=6 n=63 v=0
19701 On ch=6 n=63 v=0
19701 On ch=6 n=67 v=0
19704 On ch=6 n=60 v=92
19704 On ch=6 n=63 v=71
19710 On ch=6 n=63 v=0
19727 On ch=6 n=60 v=0
19728 On ch=6 n=55 v=117
19752 On ch=6 n=60 v=102
19752 On ch=6 n=63 v=100
19757 On ch=6 n=48 v=0
19776 On ch=6 n=55 v=0
19776 On ch=6 n=60 v=0
19776 On ch=6 n=63 v=0
19776 On ch=6 n=48 v=114
19800 On ch=6 n=55 v=104
19824 On ch=6 n=64 v=89
19845 On ch=6 n=64 v=0
19848 On ch=6 n=60 v=60
19848 On ch=6 n=64 v=95
19848 On ch=6 n=67 v=98
19882 On ch=6 n=55 v=0
19896 On ch=6 n=55 v=100
19901 On ch=6 n=67 v=0
19903 On ch=6 n=64 v=0
19903 On ch=6 n=60 v=0
19920 On ch=6 n=64 v=96
19920 On ch=6 n=60 v=102
19920 On ch=6 n=60 v=96
19925 On ch=6 n=55 v=0
19944 On ch=6 n=55 v=111
19953 On ch=6 n=48 v=0
19968 On ch=6 n=64 v=0
19968 On ch=6 n=60 v=0
19968 On ch=6 n=60 v=0
19968 On ch=6 n=55 v=0
19968 On ch=6 n=53 v=127
19992 On ch=6 n=48 v=95
20016 On ch=6 n=68 v=102
20040 On ch=6 n=68 v=96
20040 On ch=6 n=60 v=95
20074 On ch=6 n=68 v=0
20078 On ch=6 n=68 v=0
20088 On ch=6 n=65 v=98
20088 On ch=6 n=65 v=96
20092 On ch=6 n=48 v=0
20112 On ch=6 n=48 v=104
20117 On ch=6 n=65 v=0
20118 On ch=6 n=65 v=0
20136 On ch=6 n=68 v=90
20136 On ch=6 n=65 v=88
20143 On ch=6 n=53 v=0
20160 On ch=6 n=60 v=0
20160 On ch=6 n=48 v=0
20160 On ch=6 n=68 v=0
20160 On ch=6 n=65 v=0
20160 On ch=6 n=58 v=117
20184 On ch=6 n=53 v=102
20208 On ch=6 n=62 v=93
20232 On ch=6 n=62 v=90
20232 On ch=6 n=65 v=104
20267 On ch=6 n=53 v=0
20273 On ch=6 n=62 v=0
20277 On ch=6 n=62 v=0
20277 On ch=6 n=65 v=0
20280 On ch=6 n=70 v=92
20280 On ch=6 n=62 v=71
20286 On ch=6 n=62 v=0
20303 On ch=6 n=70 v=0
20304 On ch=6 n=53 v=117
20328 On ch=6 n=70 v=102
20328 On ch=6 n=62 v=100
20333 On ch=6 n=58 v=0
20352 On ch=6 n=53 v=0
20352 On ch=6 n=70 v=0
20352 On ch=6 n=62 v=0
20352 On ch=6 n=51 v=117
20376 On ch=6 n=58 v=102
20400 On ch=6 n=67 v=93
20424 On ch=6 n=63 v=90
20424 On ch=6 n=70 v=104
20459 On ch=6 n=58 v=0
20465 On ch=6 n=67 v=0
20469 On ch=6 n=63 v=0
20469 On ch=6 n=70 v=0
20472 On ch=6 n=67 v=92
20472 On ch=6 n=63 v=71
20478 On ch=6 n=63 v=0
20495 On ch=6 n=67 v=0
20496 On ch=6 n=58 v=117
20520 On ch=6 n=67 v=102
20520 On ch=6 n=63 v=100
20525 On ch=6 n=51 v=0
20544 On ch=6 n=58 v=0
20544 On ch=6 n=67 v=0
20544 On ch=6 n=63 v=0
20544 On ch=6 n=56 v=127
20568 On ch=6 n=51 v=95
20592 On ch=6 n=60 v=102
20616 On ch=6 n=68 v=96
20616 On ch=6 n=63 v=95
20650 On ch=6 n=68 v=0
20654 On ch=6 n=60 v=0
20664 On ch=6 n=60 v=98
20664 On ch=6 n=68 v=96
20668 On ch=6 n=51 v=0
20688 On ch=6 n=51 v=104
20693 On ch=6 n=68 v=0
20694 On ch=6 n=60 v=0
20712 On ch=6 n=60 v=90
20712 On ch=6 n=68 v=88
20719 On ch=6 n=56 v=0
20736 On ch=6 n=63 v=0
20736 On ch=6 n=51 v=0
20736 On ch=6 n=60 v=0
20736 On ch=6 n=68 v=0
20736 On ch=6 n=53 v=127
20760 On ch=6 n=48 v=95
20784 On ch=6 n=68 v=102
20808 On ch=6 n=68 v=96
20808 On ch=6 n=60 v=95
20842 On ch=6 n=68 v=0
20846 On ch=6 n=68 v=0
20856 On ch=6 n=65 v=98
20856 On ch=6 n=65 v=96
20860 On ch=6 n=48 v=0
20880 On ch=6 n=48 v=104
20885 On ch=6 n=65 v=0
20886 On ch=6 n=65 v=0
20904 On ch=6 n=68 v=90
20904 On ch=6 n=65 v=88
20911 On ch=6 n=53 v=0
20928 On ch=6 n=60 v=0
20928 On ch=6 n=48 v=0
20928 On ch=6 n=68 v=0
20928 On ch=6 n=65 v=0
20928 On ch=6 n=55 v=127
20952 On ch=6 n=50 v=95
20976 On ch=6 n=71 v=102
21000 On ch=6 n=67 v=96
21000 On ch=6 n=62 v=95
21034 On ch=6 n=67 v=0
21038 On ch=6 n=71 v=0
21048 On ch=6 n=71 v=98
21048 On ch=6 n=67 v=96
21052 On ch=6 n=50 v=0
21072 On ch=6 n=50 v=104
21077 On ch=6 n=67 v=0
21078 On ch=6 n=71 v=0
21096 On ch=6 n=71 v=90
21096 On ch=6 n=67 v=88
21103 On ch=6 n=55 v=0
21120 On ch=6 n=62 v=0
21120 On ch=6 n=50 v=0
21120 On ch=6 n=71 v=0
21120 On ch=6 n=67 v=0
21120 On ch=6 n=48 v=127
21144 On ch=6 n=55 v=95
21168 On ch=6 n=63 v=102
21192 On ch=6 n=63 v=96
21192 On ch=6 n=67 v=95
21226 On ch=6 n=63 v=0
21230 On ch=6 n=63 v=0
21240 On ch=6 n=60 v=98
21240 On ch=6 n=60 v=96
21244 On ch=6 n=55 v=0
21264 On ch=6 n=55 v=104
21269 On ch=6 n=60 v=0
21270 On ch=6 n=60 v=0
21288 On ch=6 n=63 v=90
21288 On ch=6 n=60 v=88
21295 On ch=6 n=48 v=0
21312 On ch=6 n=67 v=0
21312 On ch=6 n=55 v=0
21312 On ch=6 n=63 v=0
21312 On ch=6 n=60 v=0
21312 On ch=6 n=48 v=127
21336 On ch=6 n=55 v=95
21360 On ch=6 n=63 v=102
21384 On ch=6 n=63 v=96
21384 On ch=6 n=67 v=95
21418 On ch=6 n=63 v=0
21422 On ch=6 n=63 v=0
21432 On ch=6 n=60 v=98
21432 On ch=6 n=60 v=96
21436 On ch=6 n=55 v=0
21456 On ch=6 n=55 v=104
21461 On ch=6 n=60 v=0
21462 On ch=6 n=60 v=0
21480 On ch=6 n=63 v=90
21480 On ch=6 n=60 v=88
21487 On ch=6 n=48 v=0
21504 On ch=6 n=67 v=0
21504 On ch=6 n=55 v=0
21504 On ch=6 n=63 v=0
21504 On ch=6 n=60 v=0
21504 On ch=6 n=48 v=114
21528 On ch=6 n=55 v=104
21552 On ch=6 n=63 v=89
21573 On ch=6 n=63 v=0
21576 On ch=6 n=60 v=60
21576 On ch=6 n=63 v=95
21576 On ch=6 n=67 v=98
21610 On ch=6 n=55 v=0
21624 On ch=6 n=55 v=100
21629 On ch=6 n=67 v=0
21631 On ch=6 n=63 v=0
21631 On ch=6 n=60 v=0
21648 On ch=6 n=63 v=96
21648 On ch=6 n=60 v=102
21648 On ch=6 n=60 v=96
21653 On ch=6 n=55 v=0
21672 On ch=6 n=55 v=111
21681 On ch=6 n=48 v=0
21696 On ch=6 n=63 v=0
21696 On ch=6 n=60 v=0
21696 On ch=6 n=60 v=0
21696 On ch=6 n=55 v=0
21696 On ch=6 n=53 v=117
21720 On ch=6 n=48 v=102
21744 On ch=6 n=68 v=93
21768 On ch=6 n=68 v=90
21768 On ch=6 n=60 v=104
21803 On ch=6 n=48 v=0
21809 On ch=6 n=68 v=0
21813 On ch=6 n=68 v=0
21813 On ch=6 n=60 v=0
21816 On ch=6 n=65 v=92
21816 On ch=6 n=68 v=71
21822 On ch=6 n=68 v=0
21839 On ch=6 n=65 v=0
21840 On ch=6 n=48 v=117
21864 On ch=6 n=65 v=102
21864 On ch=6 n=68 v=100
21869 On ch=6 n=53 v=0
21888 On ch=6 n=48 v=0
21888 On ch=6 n=65 v=0
21888 On ch=6 n=68 v=0
21888 On ch=6 n=55 v=114
21912 On ch=6 n=50 v=104
21936 On ch=6 n=71 v=89
21957 On ch=6 n=71 v=0
21960 On ch=6 n=67 v=60
21960 On ch=6 n=71 v=95
21960 On ch=6 n=62 v=98
21994 On ch=6 n=50 v=0
22008 On ch=6 n=50 v=100
22013 On ch=6 n=62 v=0
22015 On ch=6 n=71 v=0
22015 On ch=6 n=67 v=0
22032 On ch=6 n=67 v=96
22032 On ch=6 n=71 v=102
22032 On ch=6 n=67 v=96
22037 On ch=6 n=50 v=0
22056 On ch=6 n=50 v=111
22065 On ch=6 n=55 v=0
22080 On ch=6 n=67 v=0
22080 On ch=6 n=71 v=0
22080 On ch=6 n=67 v=0
22080 On ch=6 n=50 v=0
22080 On ch=6 n=48 v=117
22104 On ch=6 n=55 v=102
22128 On ch=6 n=63 v=93
22152 On ch=6 n=63 v=90
22152 On ch=6 n=67 v=104
22187 On ch=6 n=55 v=0
22193 On ch=6 n=63 v=0
22197 On ch=6 n=63 v=0
22197 On ch=6 n=67 v=0
22200 On ch=6 n=60 v=92
22200 On ch=6 n=63 v=71
22206 On ch=6 n=63 v=0
22223 On ch=6 n=60 v=0
22224 On ch=6 n=55 v=117
22248 On ch=6 n=60 v=102
22248 On ch=6 n=63 v=100
22253 On ch=6 n=48 v=0
22272 On ch=6 n=55 v=0
22272 On ch=6 n=60 v=0
22272 On ch=6 n=63 v=0
22272 On ch=6 n=51 v=127
22296 On ch=6 n=58 v=95
22320 On ch=6 n=67 v=102
22344 On ch=6 n=63 v=96
22344 On ch=6 n=70 v=95
22378 On ch=6 n=63 v=0
22382 On ch=6 n=67 v=0
22392 On ch=6 n=67 v=98
22392 On ch=6 n=63 v=96
22396 On ch=6 n=58 v=0
22416 On ch=6 n=58 v=104
22421 On ch=6 n=63 v=0
22422 On ch=6 n=67 v=0
22440 On ch=6 n=67 v=90
22440 On ch=6 n=63 v=88
22447 On ch=6 n=51 v=0
22464 On ch=6 n=70 v=0
22464 On ch=6 n=58 v=0
22464 On ch=6 n=67 v=0
22464 On ch=6 n=63 v=0
22464 On ch=6 n=53 v=127
22488 On ch=6 n=48 v=95
22512 On ch=6 n=68 v=102
22536 On ch=6 n=68 v=96
22536 On ch=6 n=60 v=95
22570 On ch=6 n=68 v=0
22574 On ch=6 n=68 v=0
22584 On ch=6 n=65 v=98
22584 On ch=6 n=65 v=96
22588 On ch=6 n=48 v=0
22608 On ch=6 n=48 v=104
22613 On ch=6 n=65 v=0
22614 On ch=6 n=65 v=0
22632 On ch=6 n=68 v=90
22632 On ch=6 n=65 v=88
22639 On ch=6 n=53 v=0
22656 On ch=6 n=60 v=0
22656 On ch=6 n=48 v=0
22656 On ch=6 n=68 v=0
22656 On ch=6 n=65 v=0
22656 On ch=6 n=58 v=127
22680 On ch=6 n=53 v=95
22704 On ch=6 n=62 v=102
22728 On ch=6 n=62 v=96
22728 On ch=6 n=65 v=95
22762 On ch=6 n=62 v=0
22766 On ch=6 n=62 v=0
22776 On ch=6 n=70 v=98
22776 On ch=6 n=70 v=96
22780 On ch=6 n=53 v=0
22800 On ch=6 n=53 v=104
22805 On ch=6 n=70 v=0
22806 On ch=6 n=70 v=0
22824 On ch=6 n=62 v=90
22824 On ch=6 n=70 v=88
22831 On ch=6 n=58 v=0
22848 On ch=6 n=65 v=0
22848 On ch=6 n=53 v=0
22848 On ch=6 n=62 v=0
22848 On ch=6 n=70 v=0
22848 On ch=6 n=51 v=127
22872 On ch=6 n=58 v=95
22896 On ch=6 n=67 v=102
22920 On ch=6 n=63 v=96
22920 On ch=6 n=70 v=95
22954 On ch=6 n=63 v=0
22958 On ch=6 n=67 v=0
22968 On ch=6 n=67 v=98
22968 On ch=6 n=63 v=96
22972 On ch=6 n=58 v=0
22992 On ch=6 n=58 v=104
22997 On ch=6 n=63 v=0
22998 On ch=6 n=67 v=0
23016 On ch=6 n=67 v=90
23016 On ch=6 n=63 v=88
23023 On ch=6 n=51 v=0
23040 On ch=6 n=70 v=0
23040 On ch=6 n=58 v=0
23040 On ch=6 n=67 v=0
23040 On ch=6 n=63 v=0
23040 On ch=6 n=51 v=127
23064 On ch=6 n=58 v=95
23088 On ch=6 n=67 v=102
23112 On ch=6 n=63 v=96
23112 On ch=6 n=70 v=95
23146 On ch=6 n=63 v=0
23150 On ch=6 n=67 v=0
23160 On ch=6 n=67 v=98
23160 On ch=6 n=63 v=96
23164 On ch=6 n=58 v=0
23184 On ch=6 n=58 v=104
23189 On ch=6 n=63 v=0
23190 On ch=6 n=67 v=0
23208 On ch=6 n=67 v=90
23208 On ch=6 n=63 v=88
23215 On ch=6 n=51 v=0
23232 On ch=6 n=70 v=0
23232 On ch=6 n=58 v=0
23232 On ch=6 n=67 v=0
23232 On ch=6 n=63 v=0
23232 On ch=6 n=59 v=127
23256 On ch=6 n=53 v=95
23280 On ch=6 n=62 v=102
23304 On ch=6 n=62 v=96
23304 On ch=6 n=65 v=95
23338 On ch=6 n=62 v=0
23342 On ch=6 n=62 v=0
23352 On ch=6 n=71 v=98
23352 On ch=6 n=71 v=96
23356 On ch=6 n=53 v=0
23376 On ch=6 n=53 v=104
23381 On ch=6 n=71 v=0
23382 On ch=6 n=71 v=0
23400 On ch=6 n=62 v=90
23400 On ch=6 n=71 v=88
23407 On ch=6 n=59 v=0
23424 On ch=6 n=65 v=0
23424 On ch=6 n=53 v=0
23424 On ch=6 n=62 v=0
23424 On ch=6 n=71 v=0
23424 On ch=6 n=53 v=127
23448 On ch=6 n=56 v=95
23472 On ch=6 n=71 v=102
23496 On ch=6 n=68 v=96
23496 On ch=6 n=65 v=95
23530 On ch=6 n=68 v=0
23534 On ch=6 n=71 v=0
23544 On ch=6 n=71 v=98
23544 On ch=6 n=65 v=96
23548 On ch=6 n=56 v=0
23568 On ch=6 n=56 v=104
23573 On ch=6 n=65 v=0
23574 On ch=6 n=71 v=0
23592 On ch=6 n=71 v=90
23592 On ch=6 n=65 v=88
23599 On ch=6 n=53 v=0
23616 On ch=6 n=65 v=0
23616 On ch=6 n=56 v=0
23616 On ch=6 n=71 v=0
23616 On ch=6 n=65 v=0
23616 On ch=6 n=48 v=127
23640 On ch=6 n=55 v=95
23664 On ch=6 n=63 v=102
23688 On ch=6 n=63 v=96
23688 On ch=6 n=67 v=95
23722 On ch=6 n=63 v=0
23726 On ch=6 n=63 v=0
23736 On ch=6 n=60 v=98
23736 On ch=6 n=60 v=96
23740 On ch=6 n=55 v=0
23760 On ch=6 n=55 v=104
23765 On ch=6 n=60 v=0
23766 On ch=6 n=60 v=0
23784 On ch=6 n=63 v=90
23784 On ch=6 n=60 v=88
23791 On ch=6 n=48 v=0
23808 On ch=6 n=67 v=0
23808 On ch=6 n=55 v=0
23808 On ch=6 n=63 v=0
23808 On ch=6 n=60 v=0
23808 On ch=6 n=48 v=114
23832 On ch=6 n=55 v=104
23856 On ch=6 n=63 v=89
23877 On ch=6 n=63 v=0
23880 On ch=6 n=60 v=60
23880 On ch=6 n=63 v=95
23880 On ch=6 n=67 v=98
23914 On ch=6 n=55 v=0
23928 On ch=6 n=55 v=100
23933 On ch=6 n=67 v=0
23935 On ch=6 n=63 v=0
23935 On ch=6 n=60 v=0
23952 On ch=6 n=63 v=96
23952 On ch=6 n=60 v=102
23952 On ch=6 n=60 v=96
23957 On ch=6 n=55 v=0
23976 On ch=6 n=55 v=111
23985 On ch=6 n=48 v=0
24000 On ch=6 n=63 v=0
24000 On ch=6 n=60 v=0
24000 On ch=6 n=60 v=0
24000 On ch=6 n=55 v=0
24000 On ch=6 n=53 v=117
24024 On ch=6 n=48 v=102
24048 On ch=6 n=68 v=93
24072 On ch=6 n=68 v=90
24072 On ch=6 n=60 v=104
24107 On ch=6 n=48 v=0
24113 On ch=6 n=68 v=0
24117 On ch=6 n=68 v=0
24117 On ch=6 n=60 v=0
24120 On ch=6 n=65 v=92
24120 On ch=6 n=68 v=71
24126 On ch=6 n=68 v=0
24143 On ch=6 n=65 v=0
24144 On ch=6 n=48 v=117
24168 On ch=6 n=65 v=102
24168 On ch=6 n=68 v=100
24173 On ch=6 n=53 v=0
24192 On ch=6 n=48 v=0
24192 On ch=6 n=65 v=0
24192 On ch=6 n=68 v=0
24192 On ch=6 n=55 v=127
24216 On ch=6 n=50 v=95
24240 On ch=6 n=65 v=102
24264 On ch=6 n=71 v=96
24264 On ch=6 n=62 v=95
24298 On ch=6 n=71 v=0
24302 On ch=6 n=65 v=0
24312 On ch=6 n=67 v=98
24312 On ch=6 n=65 v=96
24316 On ch=6 n=50 v=0
24336 On ch=6 n=59 v=104
24341 On ch=6 n=65 v=0
24342 On ch=6 n=67 v=0
24360 On ch=6 n=67 v=90
24360 On ch=6 n=65 v=88
24367 On ch=6 n=55 v=0
24384 On ch=6 n=62 v=0
24384 On ch=6 n=59 v=0
24384 On ch=6 n=67 v=0
24384 On ch=6 n=65 v=0
24384 On ch=6 n=48 v=127
24408 On ch=6 n=55 v=95
24432 On ch=6 n=63 v=102
24456 On ch=6 n=63 v=96
24456 On ch=6 n=67 v=95
24490 On ch=6 n=63 v=0
24494 On ch=6 n=63 v=0
24504 On ch=6 n=60 v=98
24504 On ch=6 n=60 v=96
24508 On ch=6 n=55 v=0
24528 On ch=6 n=55 v=104
24533 On ch=6 n=60 v=0
24534 On ch=6 n=60 v=0
24552 On ch=6 n=63 v=90
24552 On ch=6 n=60 v=88
24559 On ch=6 n=48 v=0
24576 On ch=6 n=67 v=0
24576 On ch=6 n=55 v=0
24576 On ch=6 n=63 v=0
24576 On ch=6 n=60 v=0
24576 On ch=6 n=53 v=127
24600 On ch=6 n=48 v=95
24624 On ch=6 n=68 v=102
24648 On ch=6 n=68 v=96
24648 On ch=6 n=60 v=95
24682 On ch=6 n=68 v=0
24686 On ch=6 n=68 v=0
24696 On ch=6 n=65 v=98
24696 On ch=6 n=65 v=96
24700 On ch=6 n=48 v=0
24720 On ch=6 n=48 v=104
24725 On ch=6 n=65 v=0
24726 On ch=6 n=65 v=0
24744 On ch=6 n=68 v=90
24744 On ch=6 n=65 v=88
24751 On ch=6 n=53 v=0
24768 On ch=6 n=60 v=0
24768 On ch=6 n=48 v=0
24768 On ch=6 n=68 v=0
24768 On ch=6 n=65 v=0
24768 On ch=6 n=58 v=127
24792 On ch=6 n=53 v=95
24816 On ch=6 n=62 v=102
24840 On ch=6 n=62 v=96
24840 On ch=6 n=65 v=95
24874 On ch=6 n=62 v=0
24878 On ch=6 n=62 v=0
24888 On ch=6 n=70 v=98
24888 On ch=6 n=70 v=96
24892 On ch=6 n=53 v=0
24912 On ch=6 n=53 v=104
24917 On ch=6 n=70 v=0
24918 On ch=6 n=70 v=0
24936 On ch=6 n=62 v=90
24936 On ch=6 n=70 v=88
24943 On ch=6 n=58 v=0
24960 On ch=6 n=65 v=0
24960 On ch=6 n=53 v=0
24960 On ch=6 n=62 v=0
24960 On ch=6 n=70 v=0
24960 On ch=6 n=51 v=127
24984 On ch=6 n=58 v=95
25008 On ch=6 n=67 v=102
25032 On ch=6 n=63 v=96
25032 On ch=6 n=70 v=95
25066 On ch=6 n=63 v=0
25070 On ch=6 n=67 v=0
25080 On ch=6 n=67 v=98
25080 On ch=6 n=63 v=96
25084 On ch=6 n=58 v=0
25104 On ch=6 n=58 v=104
25109 On ch=6 n=63 v=0
25110 On ch=6 n=67 v=0
25128 On ch=6 n=67 v=90
25128 On ch=6 n=63 v=88
25135 On ch=6 n=51 v=0
25152 On ch=6 n=70 v=0
25152 On ch=6 n=58 v=0
25152 On ch=6 n=67 v=0
25152 On ch=6 n=63 v=0
25152 On ch=6 n=56 v=117
25176 On ch=6 n=51 v=102
25200 On ch=6 n=60 v=93
25224 On ch=6 n=68 v=90
25224 On ch=6 n=63 v=104
25259 On ch=6 n=51 v=0
25265 On ch=6 n=60 v=0
25269 On ch=6 n=68 v=0
25269 On ch=6 n=63 v=0
25272 On ch=6 n=60 v=92
25272 On ch=6 n=68 v=71
25278 On ch=6 n=68 v=0
25295 On ch=6 n=60 v=0
25296 On ch=6 n=51 v=117
25320 On ch=6 n=60 v=102
25320 On ch=6 n=68 v=100
25325 On ch=6 n=56 v=0
25344 On ch=6 n=51 v=0
25344 On ch=6 n=60 v=0
25344 On ch=6 n=68 v=0
25344 On ch=6 n=53 v=114
25368 On ch=6 n=48 v=104
25392 On ch=6 n=68 v=89
25413 On ch=6 n=68 v=0
25416 On ch=6 n=65 v=60
25416 On ch=6 n=68 v=95
25416 On ch=6 n=60 v=98
25450 On ch=6 n=48 v=0
25464 On ch=6 n=48 v=100
25469 On ch=6 n=60 v=0
25471 On ch=6 n=68 v=0
25471 On ch=6 n=65 v=0
25488 On ch=6 n=65 v=96
25488 On ch=6 n=68 v=102
25488 On ch=6 n=65 v=96
25493 On ch=6 n=48 v=0
25512 On ch=6 n=48 v=111
25521 On ch=6 n=53 v=0
25536 On ch=6 n=65 v=0
25536 On ch=6 n=68 v=0
25536 On ch=6 n=65 v=0
25536 On ch=6 n=48 v=0
25536 On ch=6 n=55 v=127
25560 On ch=6 n=50 v=95
25584 On ch=6 n=71 v=102
25608 On ch=6 n=67 v=96
25608 On ch=6 n=62 v=95
25642 On ch=6 n=67 v=0
25646 On ch=6 n=71 v=0
25656 On ch=6 n=71 v=98
25656 On ch=6 n=67 v=96
25660 On ch=6 n=50 v=0
25680 On ch=6 n=50 v=104
25685 On ch=6 n=67 v=0
25686 On ch=6 n=71 v=0
25704 On ch=6 n=71 v=90
25704 On ch=6 n=67 v=88
25711 On ch=6 n=55 v=0
25728 On ch=6 n=62 v=0
25728 On ch=6 n=50 v=0
25728 On ch=6 n=71 v=0
25728 On ch=6 n=67 v=0
25728 On ch=6 n=48 v=127
25752 On ch=6 n=55 v=95
25776 On ch=6 n=63 v=102
25800 On ch=6 n=63 v=96
25800 On ch=6 n=67 v=95
25834 On ch=6 n=63 v=0
25838 On ch=6 n=63 v=0
25848 On ch=6 n=60 v=98
25848 On ch=6 n=60 v=96
25852 On ch=6 n=55 v=0
25872 On ch=6 n=55 v=104
25877 On ch=6 n=60 v=0
25878 On ch=6 n=60 v=0
25896 On ch=6 n=63 v=90
25896 On ch=6 n=60 v=88
25903 On ch=6 n=48 v=0
25920 On ch=6 n=67 v=0
25920 On ch=6 n=55 v=0
25920 On ch=6 n=63 v=0
25920 On ch=6 n=60 v=0
25920 On ch=6 n=48 v=117
25944 On ch=6 n=55 v=102
25968 On ch=6 n=64 v=93
25992 On ch=6 n=60 v=90
25992 On ch=6 n=67 v=104
26027 On ch=6 n=55 v=0
26033 On ch=6 n=64 v=0
26037 On ch=6 n=60 v=0
26037 On ch=6 n=67 v=0
26040 On ch=6 n=64 v=92
26040 On ch=6 n=60 v=71
26046 On ch=6 n=60 v=0
26063 On ch=6 n=64 v=0
26064 On ch=6 n=55 v=117
26088 On ch=6 n=64 v=102
26088 On ch=6 n=60 v=100
26093 On ch=6 n=48 v=0
26112 On ch=6 n=55 v=0
26112 On ch=6 n=64 v=0
26112 On ch=6 n=60 v=0
26112 On ch=6 n=53 v=117
26136 On ch=6 n=48 v=102
26160 On ch=6 n=68 v=93
26184 On ch=6 n=68 v=90
26184 On ch=6 n=60 v=104
26219 On ch=6 n=48 v=0
26225 On ch=6 n=68 v=0
26229 On ch=6 n=68 v=0
26229 On ch=6 n=60 v=0
26232 On ch=6 n=65 v=92
26232 On ch=6 n=68 v=71
26238 On ch=6 n=68 v=0
26255 On ch=6 n=65 v=0
26256 On ch=6 n=48 v=117
26280 On ch=6 n=65 v=102
26280 On ch=6 n=68 v=100
26285 On ch=6 n=53 v=0
26304 On ch=6 n=48 v=0
26304 On ch=6 n=65 v=0
26304 On ch=6 n=68 v=0
26304 On ch=6 n=58 v=114
26328 On ch=6 n=53 v=104
26352 On ch=6 n=62 v=89
26373 On ch=6 n=62 v=0
26376 On ch=6 n=70 v=60
26376 On ch=6 n=62 v=95
26376 On ch=6 n=65 v=98
26410 On ch=6 n=53 v=0
26424 On ch=6 n=53 v=100
26429 On ch=6 n=65 v=0
26431 On ch=6 n=62 v=0
26431 On ch=6 n=70 v=0
26448 On ch=6 n=62 v=96
26448 On ch=6 n=70 v=102
26448 On ch=6 n=70 v=96
26453 On ch=6 n=53 v=0
26472 On ch=6 n=53 v=111
26481 On ch=6 n=58 v=0
26496 On ch=6 n=62 v=0
26496 On ch=6 n=70 v=0
26496 On ch=6 n=70 v=0
26496 On ch=6 n=53 v=0
26496 On ch=6 n=51 v=127
26520 On ch=6 n=58 v=95
26544 On ch=6 n=67 v=102
26568 On ch=6 n=63 v=96
26568 On ch=6 n=70 v=95
26602 On ch=6 n=63 v=0
26606 On ch=6 n=67 v=0
26616 On ch=6 n=67 v=98
26616 On ch=6 n=63 v=96
26620 On ch=6 n=58 v=0
26640 On ch=6 n=58 v=104
26645 On ch=6 n=63 v=0
26646 On ch=6 n=67 v=0
26664 On ch=6 n=67 v=90
26664 On ch=6 n=63 v=88
26671 On ch=6 n=51 v=0
26688 On ch=6 n=70 v=0
26688 On ch=6 n=58 v=0
26688 On ch=6 n=67 v=0
26688 On ch=6 n=63 v=0
26688 On ch=6 n=56 v=127
26712 On ch=6 n=51 v=95
26736 On ch=6 n=60 v=102
26760 On ch=6 n=68 v=96
26760 On ch=6 n=63 v=95
26794 On ch=6 n=68 v=0
26798 On ch=6 n=60 v=0
26808 On ch=6 n=60 v=98
26808 On ch=6 n=68 v=96
26812 On ch=6 n=51 v=0
26832 On ch=6 n=51 v=104
26837 On ch=6 n=68 v=0
26838 On ch=6 n=60 v=0
26856 On ch=6 n=60 v=90
26856 On ch=6 n=68 v=88
26863 On ch=6 n=56 v=0
26880 On ch=6 n=63 v=0
26880 On ch=6 n=51 v=0
26880 On ch=6 n=60 v=0
26880 On ch=6 n=68 v=0
26880 On ch=6 n=53 v=127
26904 On ch=6 n=48 v=95
26928 On ch=6 n=68 v=102
26952 On ch=6 n=68 v=96
26952 On ch=6 n=60 v=95
26986 On ch=6 n=68 v=0
26990 On ch=6 n=68 v=0
27000 On ch=6 n=65 v=98
27000 On ch=6 n=65 v=96
27004 On ch=6 n=48 v=0
27024 On ch=6 n=48 v=104
27029 On ch=6 n=65 v=0
27030 On ch=6 n=65 v=0
27048 On ch=6 n=68 v=90
27048 On ch=6 n=65 v=88
27055 On ch=6 n=53 v=0
27072 On ch=6 n=60 v=0
27072 On ch=6 n=48 v=0
27072 On ch=6 n=68 v=0
27072 On ch=6 n=65 v=0
27072 On ch=6 n=55 v=127
27096 On ch=6 n=50 v=95
27120 On ch=6 n=71 v=102
27144 On ch=6 n=67 v=96
27144 On ch=6 n=62 v=95
27178 On ch=6 n=67 v=0
27182 On ch=6 n=71 v=0
27192 On ch=6 n=71 v=98
27192 On ch=6 n=67 v=96
27196 On ch=6 n=50 v=0
27216 On ch=6 n=50 v=104
27221 On ch=6 n=67 v=0
27222 On ch=6 n=71 v=0
27240 On ch=6 n=71 v=90
27240 On ch=6 n=67 v=88
27247 On ch=6 n=55 v=0
27264 On ch=6 n=62 v=0
27264 On ch=6 n=50 v=0
27264 On ch=6 n=71 v=0
27264 On ch=6 n=67 v=0
27264 On ch=6 n=48 v=117
27288 On ch=6 n=55 v=102
27312 On ch=6 n=63 v=93
27336 On ch=6 n=63 v=90
27336 On ch=6 n=67 v=104
27371 On ch=6 n=55 v=0
27377 On ch=6 n=63 v=0
27381 On ch=6 n=63 v=0
27381 On ch=6 n=67 v=0
27384 On ch=6 n=60 v=92
27384 On ch=6 n=63 v=71
27390 On ch=6 n=63 v=0
27407 On ch=6 n=60 v=0
27408 On ch=6 n=55 v=117
27432 On ch=6 n=60 v=102
27432 On ch=6 n=63 v=100
27437 On ch=6 n=48 v=0
27456 On ch=6 n=55 v=0
27456 On ch=6 n=60 v=0
27456 On ch=6 n=63 v=0
27456 On ch=6 n=48 v=117
27480 On ch=6 n=55 v=102
27504 On ch=6 n=63 v=93
27528 On ch=6 n=63 v=90
27528 On ch=6 n=67 v=104
27563 On ch=6 n=55 v=0
27569 On ch=6 n=63 v=0
27573 On ch=6 n=63 v=0
27573 On ch=6 n=67 v=0
27576 On ch=6 n=60 v=92
27576 On ch=6 n=63 v=71
27582 On ch=6 n=63 v=0
27599 On ch=6 n=60 v=0
27600 On ch=6 n=55 v=117
27624 On ch=6 n=60 v=102
27624 On ch=6 n=63 v=100
27629 On ch=6 n=48 v=0
27648 On ch=6 n=55 v=0
27648 On ch=6 n=60 v=0
27648 On ch=6 n=63 v=0
27648 On ch=6 n=48 v=114
27672 On ch=6 n=55 v=104
27696 On ch=6 n=63 v=89
27717 On ch=6 n=63 v=0
27720 On ch=6 n=60 v=60
27720 On ch=6 n=63 v=95
27720 On ch=6 n=67 v=98
27754 On ch=6 n=55 v=0
27768 On ch=6 n=55 v=100
27773 On ch=6 n=67 v=0
27775 On ch=6 n=63 v=0
27775 On ch=6 n=60 v=0
27792 On ch=6 n=63 v=96
27792 On ch=6 n=60 v=102
27792 On ch=6 n=60 v=96
27797 On ch=6 n=55 v=0
27816 On ch=6 n=55 v=111
27825 On ch=6 n=48 v=0
27840 On ch=6 n=63 v=0
27840 On ch=6 n=60 v=0
27840 On ch=6 n=60 v=0
27840 On ch=6 n=55 v=0
27840 On ch=6 n=53 v=117
27864 On ch=6 n=48 v=102
27888 On ch=6 n=68 v=93
27912 On ch=6 n=68 v=90
27912 On ch=6 n=60 v=104
27947 On ch=6 n=48 v=0
27953 On ch=6 n=68 v=0
27957 On ch=6 n=68 v=0
27957 On ch=6 n=60 v=0
27960 On ch=6 n=65 v=92
27960 On ch=6 n=68 v=71
27966 On ch=6 n=68 v=0
27983 On ch=6 n=65 v=0
27984 On ch=6 n=48 v=117
28008 On ch=6 n=65 v=102
28008 On ch=6 n=68 v=100
28013 On ch=6 n=53 v=0
28032 On ch=6 n=48 v=0
28032 On ch=6 n=65 v=0
28032 On ch=6 n=68 v=0
28032 On ch=6 n=55 v=127
28056 On ch=6 n=50 v=95
28080 On ch=6 n=71 v=102
28104 On ch=6 n=67 v=96
28104 On ch=6 n=62 v=95
28138 On ch=6 n=67 v=0
28142 On ch=6 n=71 v=0
28152 On ch=6 n=71 v=98
28152 On ch=6 n=67 v=96
28156 On ch=6 n=50 v=0
28176 On ch=6 n=50 v=104
28181 On ch=6 n=67 v=0
28182 On ch=6 n=71 v=0
28200 On ch=6 n=71 v=90
28200 On ch=6 n=67 v=88
28207 On ch=6 n=55 v=0
28224 On ch=6 n=62 v=0
28224 On ch=6 n=50 v=0
28224 On ch=6 n=71 v=0
28224 On ch=6 n=67 v=0
28224 On ch=6 n=48 v=114
28248 On ch=6 n=55 v=104
28272 On ch=6 n=63 v=89
28293 On ch=6 n=63 v=0
28296 On ch=6 n=60 v=60
28296 On ch=6 n=63 v=95
28296 On ch=6 n=67 v=98
28330 On ch=6 n=55 v=0
28344 On ch=6 n=55 v=100
28349 On ch=6 n=67 v=0
28351 On ch=6 n=63 v=0
28351 On ch=6 n=60 v=0
28368 On ch=6 n=63 v=96
28368 On ch=6 n=60 v=102
28368 On ch=6 n=60 v=96
28373 On ch=6 n=55 v=0
28392 On ch=6 n=55 v=111
28401 On ch=6 n=48 v=0
28416 On ch=6 n=63 v=0
28416 On ch=6 n=60 v=0
28416 On ch=6 n=60 v=0
28416 On ch=6 n=55 v=0
28416 On ch=6 n=51 v=127
28440 On ch=6 n=58 v=95
28464 On ch=6 n=67 v=102
28488 On ch=6 n=63 v=96
28488 On ch=6 n=70 v=95
28522 On ch=6 n=63 v=0
28526 On ch=6 n=67 v=0
28536 On ch=6 n=67 v=98
28536 On ch=6 n=63 v=96
28540 On ch=6 n=58 v=0
28560 On ch=6 n=58 v=104
28565 On ch=6 n=63 v=0
28566 On ch=6 n=67 v=0
28584 On ch=6 n=67 v=90
28584 On ch=6 n=63 v=88
28591 On ch=6 n=51 v=0
28608 On ch=6 n=70 v=0
28608 On ch=6 n=58 v=0
28608 On ch=6 n=67 v=0
28608 On ch=6 n=63 v=0
28608 On ch=6 n=53 v=117
28632 On ch=6 n=48 v=102
28656 On ch=6 n=68 v=93
28680 On ch=6 n=68 v=90
28680 On ch=6 n=60 v=104
28715 On ch=6 n=48 v=0
28721 On ch=6 n=68 v=0
28725 On ch=6 n=68 v=0
28725 On ch=6 n=60 v=0
28728 On ch=6 n=65 v=92
28728 On ch=6 n=68 v=71
28734 On ch=6 n=68 v=0
28751 On ch=6 n=65 v=0
28752 On ch=6 n=48 v=117
28776 On ch=6 n=65 v=102
28776 On ch=6 n=68 v=100
28781 On ch=6 n=53 v=0
28800 On ch=6 n=48 v=0
28800 On ch=6 n=65 v=0
28800 On ch=6 n=68 v=0
28800 On ch=6 n=58 v=117
28824 On ch=6 n=53 v=102
28848 On ch=6 n=62 v=93
28872 On ch=6 n=62 v=90
28872 On ch=6 n=65 v=104
28907 On ch=6 n=53 v=0
28913 On ch=6 n=62 v=0
28917 On ch=6 n=62 v=0
28917 On ch=6 n=65 v=0
28920 On ch=6 n=70 v=92
28920 On ch=6 n=62 v=71
28926 On ch=6 n=62 v=0
28943 On ch=6 n=70 v=0
28944 On ch=6 n=53 v=117
28968 On ch=6 n=70 v=102
28968 On ch=6 n=62 v=100
28973 On ch=6 n=58 v=0
28992 On ch=6 n=53 v=0
28992 On ch=6 n=70 v=0
28992 On ch=6 n=62 v=0
28992 On ch=6 n=51 v=127
29016 On ch=6 n=58 v=95
29040 On ch=6 n=67 v=102
29064 On ch=6 n=63 v=96
29064 On ch=6 n=70 v=95
29098 On ch=6 n=63 v=0
29102 On ch=6 n=67 v=0
29112 On ch=6 n=67 v=98
29112 On ch=6 n=63 v=96
29116 On ch=6 n=58 v=0
29136 On ch=6 n=58 v=104
29141 On ch=6 n=63 v=0
29142 On ch=6 n=67 v=0
29160 On ch=6 n=67 v=90
29160 On ch=6 n=63 v=88
29167 On ch=6 n=51 v=0
29184 On ch=6 n=70 v=0
29184 On ch=6 n=58 v=0
29184 On ch=6 n=67 v=0
29184 On ch=6 n=63 v=0
29184 On ch=6 n=51 v=127
29208 On ch=6 n=58 v=95
29232 On ch=6 n=67 v=102
29256 On ch=6 n=63 v=96
29256 On ch=6 n=70 v=95
29290 On ch=6 n=63 v=0
29294 On ch=6 n=67 v=0
29304 On ch=6 n=67 v=98
29304 On ch=6 n=63 v=96
29308 On ch=6 n=58 v=0
29328 On ch=6 n=58 v=104
29333 On ch=6 n=63 v=0
29334 On ch=6 n=67 v=0
29352 On ch=6 n=67 v=90
29352 On ch=6 n=63 v=88
29359 On ch=6 n=51 v=0
29376 On ch=6 n=70 v=0
29376 On ch=6 n=58 v=0
29376 On ch=6 n=67 v=0
29376 On ch=6 n=63 v=0
29376 On ch=6 n=59 v=117
29400 On ch=6 n=53 v=102
29424 On ch=6 n=62 v=93
29448 On ch=6 n=62 v=90
29448 On ch=6 n=65 v=104
29483 On ch=6 n=53 v=0
29489 On ch=6 n=62 v=0
29493 On ch=6 n=62 v=0
29493 On ch=6 n=65 v=0
29496 On ch=6 n=71 v=92
29496 On ch=6 n=62 v=71
29502 On ch=6 n=62 v=0
29519 On ch=6 n=71 v=0
29520 On ch=6 n=53 v=117
29544 On ch=6 n=71 v=102
29544 On ch=6 n=62 v=100
29549 On ch=6 n=59 v=0
29568 On ch=6 n=53 v=0
29568 On ch=6 n=71 v=0
29568 On ch=6 n=62 v=0
29568 On ch=6 n=53 v=127
29592 On ch=6 n=56 v=95
29616 On ch=6 n=71 v=102
29640 On ch=6 n=68 v=96
29640 On ch=6 n=65 v=95
29674 On ch=6 n=68 v=0
29678 On ch=6 n=71 v=0
29688 On ch=6 n=71 v=98
29688 On ch=6 n=65 v=96
29692 On ch=6 n=56 v=0
29712 On ch=6 n=56 v=104
29717 On ch=6 n=65 v=0
29718 On ch=6 n=71 v=0
29736 On ch=6 n=71 v=90
29736 On ch=6 n=65 v=88
29743 On ch=6 n=53 v=0
29760 On ch=6 n=65 v=0
29760 On ch=6 n=56 v=0
29760 On ch=6 n=71 v=0
29760 On ch=6 n=65 v=0
29760 On ch=6 n=48 v=114
29784 On ch=6 n=55 v=104
29808 On ch=6 n=63 v=89
29829 On ch=6 n=63 v=0
29832 On ch=6 n=60 v=60
29832 On ch=6 n=63 v=95
29832 On ch=6 n=67 v=98
29866 On ch=6 n=55 v=0
29880 On ch=6 n=55 v=100
29885 On ch=6 n=67 v=0
29887 On ch=6 n=63 v=0
29887 On ch=6 n=60 v=0
29904 On ch=6 n=63 v=96
29904 On ch=6 n=60 v=102
29904 On ch=6 n=60 v=96
29909 On ch=6 n=55 v=0
29928 On ch=6 n=55 v=111
29937 On ch=6 n=48 v=0
29952 On ch=6 n=63 v=0
29952 On ch=6 n=60 v=0
29952 On ch=6 n=60 v=0
29952 On ch=6 n=55 v=0
29952 On ch=6 n=48 v=117
29976 On ch=6 n=55 v=102
30000 On ch=6 n=63 v=93
30024 On ch=6 n=63 v=90
30024 On ch=6 n=67 v=104
30059 On ch=6 n=55 v=0
30065 On ch=6 n=63 v=0
30069 On ch=6 n=63 v=0
30069 On ch=6 n=67 v=0
30072 On ch=6 n=60 v=92
30072 On ch=6 n=63 v=71
30078 On ch=6 n=63 v=0
30095 On ch=6 n=60 v=0
30096 On ch=6 n=55 v=117
30120 On ch=6 n=60 v=102
30120 On ch=6 n=63 v=100
30125 On ch=6 n=48 v=0
30144 On ch=6 n=55 v=0
30144 On ch=6 n=60 v=0
30144 On ch=6 n=63 v=0
30144 On ch=6 n=53 v=117
30168 On ch=6 n=48 v=102
30192 On ch=6 n=68 v=93
30216 On ch=6 n=68 v=90
30216 On ch=6 n=60 v=104
30251 On ch=6 n=48 v=0
30257 On ch=6 n=68 v=0
30261 On ch=6 n=68 v=0
30261 On ch=6 n=60 v=0
30264 On ch=6 n=65 v=92
30264 On ch=6 n=68 v=71
30270 On ch=6 n=68 v=0
30287 On ch=6 n=65 v=0
30288 On ch=6 n=48 v=117
30312 On ch=6 n=65 v=102
30312 On ch=6 n=68 v=100
30317 On ch=6 n=53 v=0
30336 On ch=6 n=48 v=0
30336 On ch=6 n=65 v=0
30336 On ch=6 n=68 v=0
30336 On ch=6 n=55 v=127
30360 On ch=6 n=50 v=95
30384 On ch=6 n=65 v=102
30408 On ch=6 n=71 v=96
30408 On ch=6 n=62 v=95
30442 On ch=6 n=71 v=0
30446 On ch=6 n=65 v=0
30456 On ch=6 n=67 v=98
30456 On ch=6 n=65 v=96
30460 On ch=6 n=50 v=0
30480 On ch=6 n=59 v=104
30485 On ch=6 n=65 v=0
30486 On ch=6 n=67 v=0
30504 On ch=6 n=67 v=90
30504 On ch=6 n=65 v=88
30511 On ch=6 n=55 v=0
30528 On ch=6 n=62 v=0
30528 On ch=6 n=59 v=0
30528 On ch=6 n=67 v=0
30528 On ch=6 n=65 v=0
30528 On ch=6 n=48 v=114
30552 On ch=6 n=55 v=104
30576 On ch=6 n=63 v=89
30597 On ch=6 n=63 v=0
30600 On ch=6 n=60 v=60
30600 On ch=6 n=63 v=95
30600 On ch=6 n=67 v=98
30634 On ch=6 n=55 v=0
30648 On ch=6 n=55 v=100
30653 On ch=6 n=67 v=0
30655 On ch=6 n=63 v=0
30655 On ch=6 n=60 v=0
30672 On ch=6 n=63 v=96
30672 On ch=6 n=60 v=102
30672 On ch=6 n=60 v=96
30677 On ch=6 n=55 v=0
30696 On ch=6 n=55 v=111
30705 On ch=6 n=48 v=0
30720 On ch=6 n=63 v=0
30720 On ch=6 n=60 v=0
30720 On ch=6 n=60 v=0
30720 On ch=6 n=55 v=0
30720 On ch=6 n=53 v=114
30744 On ch=6 n=48 v=104
30768 On ch=6 n=68 v=89
30789 On ch=6 n=68 v=0
30792 On ch=6 n=65 v=60
30792 On ch=6 n=68 v=95
30792 On ch=6 n=60 v=98
30826 On ch=6 n=48 v=0
30840 On ch=6 n=48 v=100
30845 On ch=6 n=60 v=0
30847 On ch=6 n=68 v=0
30847 On ch=6 n=65 v=0
30864 On ch=6 n=65 v=96
30864 On ch=6 n=68 v=102
30864 On ch=6 n=65 v=96
30869 On ch=6 n=48 v=0
30888 On ch=6 n=48 v=111
30897 On ch=6 n=53 v=0
30912 On ch=6 n=65 v=0
30912 On ch=6 n=68 v=0
30912 On ch=6 n=65 v=0
30912 On ch=6 n=48 v=0
30912 On ch=6 n=58 v=127
30936 On ch=6 n=53 v=95
30960 On ch=6 n=62 v=102
30984 On ch=6 n=62 v=96
30984 On ch=6 n=65 v=95
31018 On ch=6 n=62 v=0
31022 On ch=6 n=62 v=0
31032 On ch=6 n=70 v=98
31032 On ch=6 n=70 v=96
31036 On ch=6 n=53 v=0
31056 On ch=6 n=53 v=104
31061 On ch=6 n=70 v=0
31062 On ch=6 n=70 v=0
31080 On ch=6 n=62 v=90
31080 On ch=6 n=70 v=88
31087 On ch=6 n=58 v=0
31104 On ch=6 n=65 v=0
31104 On ch=6 n=53 v=0
31104 On ch=6 n=62 v=0
31104 On ch=6 n=70 v=0
31104 On ch=6 n=51 v=117
31128 On ch=6 n=58 v=102
31152 On ch=6 n=67 v=93
31176 On ch=6 n=63 v=90
31176 On ch=6 n=70 v=104
31211 On ch=6 n=58 v=0
31217 On ch=6 n=67 v=0
31221 On ch=6 n=63 v=0
31221 On ch=6 n=70 v=0
31224 On ch=6 n=67 v=92
31224 On ch=6 n=63 v=71
31230 On ch=6 n=63 v=0
31247 On ch=6 n=67 v=0
31248 On ch=6 n=58 v=117
31272 On ch=6 n=67 v=102
31272 On ch=6 n=63 v=100
31277 On ch=6 n=51 v=0
31296 On ch=6 n=58 v=0
31296 On ch=6 n=67 v=0
31296 On ch=6 n=63 v=0
31296 On ch=6 n=56 v=127
31320 On ch=6 n=51 v=95
31344 On ch=6 n=60 v=102
31368 On ch=6 n=68 v=96
31368 On ch=6 n=63 v=95
31402 On ch=6 n=68 v=0
31406 On ch=6 n=60 v=0
31416 On ch=6 n=60 v=98
31416 On ch=6 n=68 v=96
31420 On ch=6 n=51 v=0
31440 On ch=6 n=51 v=104
31445 On ch=6 n=68 v=0
31446 On ch=6 n=60 v=0
31464 On ch=6 n=60 v=90
31464 On ch=6 n=68 v=88
31471 On ch=6 n=56 v=0
31488 On ch=6 n=63 v=0
31488 On ch=6 n=51 v=0
31488 On ch=6 n=60 v=0
31488 On ch=6 n=68 v=0
31488 On ch=6 n=53 v=114
31512 On ch=6 n=48 v=104
31536 On ch=6 n=68 v=89
31557 On ch=6 n=68 v=0
31560 On ch=6 n=65 v=60
31560 On ch=6 n=68 v=95
31560 On ch=6 n=60 v=98
31594 On ch=6 n=48 v=0
31608 On ch=6 n=48 v=100
31613 On ch=6 n=60 v=0
31615 On ch=6 n=68 v=0
31615 On ch=6 n=65 v=0
31632 On ch=6 n=65 v=96
31632 On ch=6 n=68 v=102
31632 On ch=6 n=65 v=96
31637 On ch=6 n=48 v=0
31656 On ch=6 n=48 v=111
31665 On ch=6 n=53 v=0
31680 On ch=6 n=65 v=0
31680 On ch=6 n=68 v=0
31680 On ch=6 n=65 v=0
31680 On ch=6 n=48 v=0
31680 On ch=6 n=55 v=114
31704 On ch=6 n=50 v=104
31728 On ch=6 n=71 v=89
31749 On ch=6 n=71 v=0
31752 On ch=6 n=67 v=60
31752 On ch=6 n=71 v=95
31752 On ch=6 n=62 v=98
31786 On ch=6 n=50 v=0
31800 On ch=6 n=50 v=100
31805 On ch=6 n=62 v=0
31807 On ch=6 n=71 v=0
31807 On ch=6 n=67 v=0
31824 On ch=6 n=67 v=96
31824 On ch=6 n=71 v=102
31824 On ch=6 n=67 v=96
31829 On ch=6 n=50 v=0
31848 On ch=6 n=50 v=111
31857 On ch=6 n=55 v=0
31872 On ch=6 n=67 v=0
31872 On ch=6 n=71 v=0
31872 On ch=6 n=67 v=0
31872 On ch=6 n=50 v=0
31872 On ch=6 n=48 v=117
31896 On ch=6 n=55 v=102
31920 On ch=6 n=63 v=93
31944 On ch=6 n=63 v=90
31944 On ch=6 n=67 v=104
31979 On ch=6 n=55 v=0
31985 On ch=6 n=63 v=0
31989 On ch=6 n=63 v=0
31989 On ch=6 n=67 v=0
31992 On ch=6 n=60 v=92
31992 On ch=6 n=63 v=71
31998 On ch=6 n=63 v=0
32015 On ch=6 n=60 v=0
32016 On ch=6 n=55 v=117
32040 On ch=6 n=60 v=102
32040 On ch=6 n=63 v=100
32045 On ch=6 n=48 v=0
32064 On ch=6 n=55 v=0
32064 On ch=6 n=60 v=0
32064 On ch=6 n=63 v=0
32064 On ch=6 n=48 v=114
32088 On ch=6 n=55 v=104
32112 On ch=6 n=64 v=89
32133 On ch=6 n=64 v=0
32136 On ch=6 n=60 v=60
32136 On ch=6 n=64 v=95
32136 On ch=6 n=67 v=98
32170 On ch=6 n=55 v=0
32184 On ch=6 n=55 v=100
32189 On ch=6 n=67 v=0
32191 On ch=6 n=64 v=0
32191 On ch=6 n=60 v=0
32208 On ch=6 n=64 v=96
32208 On ch=6 n=60 v=102
32208 On ch=6 n=60 v=96
32213 On ch=6 n=55 v=0
32232 On ch=6 n=55 v=111
32241 On ch=6 n=48 v=0
32256 On ch=6 n=64 v=0
32256 On ch=6 n=60 v=0
32256 On ch=6 n=60 v=0
32256 On ch=6 n=55 v=0
32256 On ch=6 n=53 v=127
32280 On ch=6 n=48 v=95
32304 On ch=6 n=68 v=102
32328 On ch=6 n=68 v=96
32328 On ch=6 n=60 v=95
32362 On ch=6 n=68 v=0
32366 On ch=6 n=68 v=0
32376 On ch=6 n=65 v=98
32376 On ch=6 n=65 v=96
32380 On ch=6 n=48 v=0
32400 On ch=6 n=48 v=104
32405 On ch=6 n=65 v=0
32406 On ch=6 n=65 v=0
32424 On ch=6 n=68 v=90
32424 On ch=6 n=65 v=88
32431 On ch=6 n=53 v=0
32448 On ch=6 n=60 v=0
32448 On ch=6 n=48 v=0
32448 On ch=6 n=68 v=0
32448 On ch=6 n=65 v=0
32448 On ch=6 n=58 v=127
32472 On ch=6 n=53 v=95
32496 On ch=6 n=62 v=102
32520 On ch=6 n=62 v=96
32520 On ch=6 n=65 v=95
32554 On ch=6 n=62 v=0
32558 On ch=6 n=62 v=0
32568 On ch=6 n=70 v=98
32568 On ch=6 n=70 v=96
32572 On ch=6 n=53 v=0
32592 On ch=6 n=53 v=104
32597 On ch=6 n=70 v=0
32598 On ch=6 n=70 v=0
32616 On ch=6 n=62 v=90
32616 On ch=6 n=70 v=88
32623 On ch=6 n=58 v=0
32640 On ch=6 n=65 v=0
32640 On ch=6 n=53 v=0
32640 On ch=6 n=62 v=0
32640 On ch=6 n=70 v=0
32640 On ch=6 n=51 v=117
32664 On ch=6 n=58 v=102
32688 On ch=6 n=67 v=93
32712 On ch=6 n=63 v=90
32712 On ch=6 n=70 v=104
32747 On ch=6 n=58 v=0
32753 On ch=6 n=67 v=0
32757 On ch=6 n=63 v=0
32757 On ch=6 n=70 v=0
32760 On ch=6 n=67 v=92
32760 On ch=6 n=63 v=71
32766 On ch=6 n=63 v=0
32783 On ch=6 n=67 v=0
32784 On ch=6 n=58 v=117
32808 On ch=6 n=67 v=102
32808 On ch=6 n=63 v=100
32813 On ch=6 n=51 v=0
32832 On ch=6 n=58 v=0
32832 On ch=6 n=67 v=0
32832 On ch=6 n=63 v=0
32832 On ch=6 n=56 v=114
32856 On ch=6 n=51 v=104
32880 On ch=6 n=60 v=89
32901 On ch=6 n=60 v=0
32904 On ch=6 n=68 v=60
32904 On ch=6 n=63 v=95
32904 On ch=6 n=60 v=98
32938 On ch=6 n=51 v=0
32952 On ch=6 n=51 v=100
32957 On ch=6 n=60 v=0
32959 On ch=6 n=63 v=0
32959 On ch=6 n=68 v=0
32976 On ch=6 n=60 v=96
32976 On ch=6 n=68 v=102
32976 On ch=6 n=68 v=96
32981 On ch=6 n=51 v=0
33000 On ch=6 n=51 v=111
33009 On ch=6 n=56 v=0
33024 On ch=6 n=60 v=0
33024 On ch=6 n=68 v=0
33024 On ch=6 n=68 v=0
33024 On ch=6 n=51 v=0
33024 On ch=6 n=53 v=127
33048 On ch=6 n=48 v=95
33072 On ch=6 n=68 v=102
33096 On ch=6 n=68 v=96
33096 On ch=6 n=60 v=95
33130 On ch=6 n=68 v=0
33134 On ch=6 n=68 v=0
33144 On ch=6 n=65 v=98
33144 On ch=6 n=65 v=96
33148 On ch=6 n=48 v=0
33168 On ch=6 n=48 v=104
33173 On ch=6 n=65 v=0
33174 On ch=6 n=65 v=0
33192 On ch=6 n=68 v=90
33192 On ch=6 n=65 v=88
33199 On ch=6 n=53 v=0
33216 On ch=6 n=60 v=0
33216 On ch=6 n=48 v=0
33216 On ch=6 n=68 v=0
33216 On ch=6 n=65 v=0
33216 On ch=6 n=55 v=117
33240 On ch=6 n=50 v=102
33264 On ch=6 n=71 v=93
33288 On ch=6 n=67 v=90
33288 On ch=6 n=62 v=104
33323 On ch=6 n=50 v=0
33329 On ch=6 n=71 v=0
33333 On ch=6 n=67 v=0
33333 On ch=6 n=62 v=0
33336 On ch=6 n=71 v=92
33336 On ch=6 n=67 v=71
33342 On ch=6 n=67 v=0
33359 On ch=6 n=71 v=0
33360 On ch=6 n=50 v=117
33384 On ch=6 n=71 v=102
33384 On ch=6 n=67 v=100
33389 On ch=6 n=55 v=0
33408 On ch=6 n=50 v=0
33408 On ch=6 n=71 v=0
33408 On ch=6 n=67 v=0
33408 On ch=6 n=48 v=117
33432 On ch=6 n=55 v=102
33456 On ch=6 n=63 v=93
33480 On ch=6 n=63 v=90
33480 On ch=6 n=67 v=104
33515 On ch=6 n=55 v=0
33521 On ch=6 n=63 v=0
33525 On ch=6 n=63 v=0
33525 On ch=6 n=67 v=0
33528 On ch=6 n=60 v=92
33528 On ch=6 n=63 v=71
33534 On ch=6 n=63 v=0
33551 On ch=6 n=60 v=0
33552 On ch=6 n=55 v=117
33576 On ch=6 n=60 v=102
33576 On ch=6 n=63 v=100
33581 On ch=6 n=48 v=0
33600 On ch=6 n=55 v=0
33600 On ch=6 n=60 v=0
33600 On ch=6 n=63 v=0
33600 On ch=6 n=48 v=114
33624 On ch=6 n=55 v=104
33648 On ch=6 n=63 v=89
33669 On ch=6 n=63 v=0
33672 On ch=6 n=60 v=60
33672 On ch=6 n=63 v=95
33672 On ch=6 n=67 v=98
33706 On ch=6 n=55 v=0
33720 On ch=6 n=55 v=100
33725 On ch=6 n=67 v=0
33727 On ch=6 n=63 v=0
33727 On ch=6 n=60 v=0
33744 On ch=6 n=63 v=96
33744 On ch=6 n=60 v=102
33744 On ch=6 n=60 v=96
33749 On ch=6 n=55 v=0
33768 On ch=6 n=55 v=111
33777 On ch=6 n=48 v=0
33792 On ch=6 n=63 v=0
33792 On ch=6 n=60 v=0
33792 On ch=6 n=60 v=0
33792 On ch=6 n=55 v=0
33792 On ch=6 n=48 v=117
33816 On ch=6 n=55 v=102
33840 On ch=6 n=63 v=93
33864 On ch=6 n=63 v=90
33864 On ch=6 n=67 v=104
33899 On ch=6 n=55 v=0
33905 On ch=6 n=63 v=0
33909 On ch=6 n=63 v=0
33909 On ch=6 n=67 v=0
33912 On ch=6 n=60 v=92
33912 On ch=6 n=63 v=71
33918 On ch=6 n=63 v=0
33935 On ch=6 n=60 v=0
33936 On ch=6 n=55 v=117
33960 On ch=6 n=60 v=102
33960 On ch=6 n=63 v=100
33965 On ch=6 n=48 v=0
33984 On ch=6 n=55 v=0
33984 On ch=6 n=60 v=0
33984 On ch=6 n=63 v=0
33984 On ch=6 n=53 v=127
34008 On ch=6 n=48 v=95
34032 On ch=6 n=68 v=102
34056 On ch=6 n=68 v=96
34056 On ch=6 n=60 v=95
34090 On ch=6 n=68 v=0
34094 On ch=6 n=68 v=0
34104 On ch=6 n=65 v=98
34104 On ch=6 n=65 v=96
34108 On ch=6 n=48 v=0
34128 On ch=6 n=48 v=104
34133 On ch=6 n=65 v=0
34134 On ch=6 n=65 v=0
34152 On ch=6 n=68 v=90
34152 On ch=6 n=65 v=88
34159 On ch=6 n=53 v=0
34176 On ch=6 n=60 v=0
34176 On ch=6 n=48 v=0
34176 On ch=6 n=68 v=0
34176 On ch=6 n=65 v=0
34176 On ch=6 n=55 v=114
34200 On ch=6 n=50 v=104
34224 On ch=6 n=71 v=89
34245 On ch=6 n=71 v=0
34248 On ch=6 n=67 v=60
34248 On ch=6 n=71 v=95
34248 On ch=6 n=62 v=98
34282 On ch=6 n=50 v=0
34296 On ch=6 n=50 v=100
34301 On ch=6 n=62 v=0
34303 On ch=6 n=71 v=0
34303 On ch=6 n=67 v=0
34320 On ch=6 n=67 v=96
34320 On ch=6 n=71 v=102
34320 On ch=6 n=67 v=96
34325 On ch=6 n=50 v=0
34344 On ch=6 n=50 v=111
34353 On ch=6 n=55 v=0
34368 On ch=6 n=67 v=0
34368 On ch=6 n=71 v=0
34368 On ch=6 n=67 v=0
34368 On ch=6 n=50 v=0
34368 On ch=6 n=48 v=127
34392 On ch=6 n=55 v=95
34416 On ch=6 n=63 v=102
34440 On ch=6 n=63 v=96
34440 On ch=6 n=67 v=95
34474 On ch=6 n=63 v=0
34478 On ch=6 n=63 v=0
34488 On ch=6 n=60 v=98
34488 On ch=6 n=60 v=96
34492 On ch=6 n=55 v=0
34512 On ch=6 n=55 v=104
34517 On ch=6 n=60 v=0
34518 On ch=6 n=60 v=0
34536 On ch=6 n=63 v=90
34536 On ch=6 n=60 v=88
34543 On ch=6 n=48 v=0
34560 On ch=6 n=67 v=0
34560 On ch=6 n=55 v=0
34560 On ch=6 n=63 v=0
34560 On ch=6 n=60 v=0
34560 On ch=6 n=51 v=114
34584 On ch=6 n=58 v=104
34608 On ch=6 n=67 v=89
34629 On ch=6 n=67 v=0
34632 On ch=6 n=63 v=60
34632 On ch=6 n=67 v=95
34632 On ch=6 n=70 v=98
34666 On ch=6 n=58 v=0
34680 On ch=6 n=58 v=100
34685 On ch=6 n=70 v=0
34687 On ch=6 n=67 v=0
34687 On ch=6 n=63 v=0
34704 On ch=6 n=67 v=96
34704 On ch=6 n=63 v=102
34704 On ch=6 n=63 v=96
34709 On ch=6 n=58 v=0
34728 On ch=6 n=58 v=111
34737 On ch=6 n=51 v=0
34752 On ch=6 n=67 v=0
34752 On ch=6 n=63 v=0
34752 On ch=6 n=63 v=0
34752 On ch=6 n=58 v=0
34752 On ch=6 n=53 v=114
34776 On ch=6 n=48 v=104
34800 On ch=6 n=68 v=89
34821 On ch=6 n=68 v=0
34824 On ch=6 n=65 v=60
34824 On ch=6 n=68 v=95
34824 On ch=6 n=60 v=98
34858 On ch=6 n=48 v=0
34872 On ch=6 n=48 v=100
34877 On ch=6 n=60 v=0
34879 On ch=6 n=68 v=0
34879 On ch=6 n=65 v=0
34896 On ch=6 n=65 v=96
34896 On ch=6 n=68 v=102
34896 On ch=6 n=65 v=96
34901 On ch=6 n=48 v=0
34920 On ch=6 n=48 v=111
34929 On ch=6 n=53 v=0
34944 On ch=6 n=65 v=0
34944 On ch=6 n=68 v=0
34944 On ch=6 n=65 v=0
34944 On ch=6 n=48 v=0
34944 On ch=6 n=58 v=114
34968 On ch=6 n=53 v=104
34992 On ch=6 n=62 v=89
35013 On ch=6 n=62 v=0
35016 On ch=6 n=70 v=60
35016 On ch=6 n=62 v=95
35016 On ch=6 n=65 v=98
35050 On ch=6 n=53 v=0
35064 On ch=6 n=53 v=100
35069 On ch=6 n=65 v=0
35071 On ch=6 n=62 v=0
35071 On ch=6 n=70 v=0
35088 On ch=6 n=62 v=96
35088 On ch=6 n=70 v=102
35088 On ch=6 n=70 v=96
35093 On ch=6 n=53 v=0
35112 On ch=6 n=53 v=111
35121 On ch=6 n=58 v=0
35136 On ch=6 n=62 v=0
35136 On ch=6 n=70 v=0
35136 On ch=6 n=70 v=0
35136 On ch=6 n=53 v=0
35136 On ch=6 n=51 v=127
35160 On ch=6 n=58 v=95
35184 On ch=6 n=67 v=102
35208 On ch=6 n=63 v=96
35208 On ch=6 n=70 v=95
35242 On ch=6 n=63 v=0
35246 On ch=6 n=67 v=0
35256 On ch=6 n=67 v=98
35256 On ch=6 n=63 v=96
35260 On ch=6 n=58 v=0
35280 On ch=6 n=58 v=104
35285 On ch=6 n=63 v=0
35286 On ch=6 n=67 v=0
35304 On ch=6 n=67 v=90
35304 On ch=6 n=63 v=88
35311 On ch=6 n=51 v=0
35328 On ch=6 n=70 v=0
35328 On ch=6 n=58 v=0
35328 On ch=6 n=67 v=0
35328 On ch=6 n=63 v=0
35328 On ch=6 n=51 v=117
35352 On ch=6 n=58 v=102
35376 On ch=6 n=67 v=93
35400 On ch=6 n=63 v=90
35400 On ch=6 n=70 v=104
35435 On ch=6 n=58 v=0
35441 On ch=6 n=67 v=0
35445 On ch=6 n=63 v=0
35445 On ch=6 n=70 v=0
35448 On ch=6 n=67 v=92
35448 On ch=6 n=63 v=71
35454 On ch=6 n=63 v=0
35471 On ch=6 n=67 v=0
35472 On ch=6 n=58 v=117
35496 On ch=6 n=67 v=102
35496 On ch=6 n=63 v=100
35501 On ch=6 n=51 v=0
35520 On ch=6 n=58 v=0
35520 On ch=6 n=67 v=0
35520 On ch=6 n=63 v=0
35520 On ch=6 n=59 v=117
35544 On ch=6 n=53 v=102
35568 On ch=6 n=62 v=93
35592 On ch=6 n=62 v=90
35592 On ch=6 n=65 v=104
35627 On ch=6 n=53 v=0
35633 On ch=6 n=62 v=0
35637 On ch=6 n=62 v=0
35637 On ch=6 n=65 v=0
35640 On ch=6 n=71 v=92
35640 On ch=6 n=62 v=71
35646 On ch=6 n=62 v=0
35663 On ch=6 n=71 v=0
35664 On ch=6 n=53 v=117
35688 On ch=6 n=71 v=102
35688 On ch=6 n=62 v=100
35693 On ch=6 n=59 v=0
35712 On ch=6 n=53 v=0
35712 On ch=6 n=71 v=0
35712 On ch=6 n=62 v=0
35712 On ch=6 n=53 v=117
35736 On ch=6 n=56 v=102
35760 On ch=6 n=71 v=93
35784 On ch=6 n=68 v=90
35784 On ch=6 n=65 v=104
35819 On ch=6 n=56 v=0
35825 On ch=6 n=71 v=0
35829 On ch=6 n=68 v=0
35829 On ch=6 n=65 v=0
35832 On ch=6 n=71 v=92
35832 On ch=6 n=68 v=71
35838 On ch=6 n=68 v=0
35855 On ch=6 n=71 v=0
35856 On ch=6 n=53 v=117
35880 On ch=6 n=71 v=102
35880 On ch=6 n=68 v=100
35885 On ch=6 n=53 v=0
35904 On ch=6 n=53 v=0
35904 On ch=6 n=71 v=0
35904 On ch=6 n=68 v=0
35904 On ch=6 n=48 v=127
35928 On ch=6 n=55 v=95
35952 On ch=6 n=63 v=102
35976 On ch=6 n=63 v=96
35976 On ch=6 n=67 v=95
36010 On ch=6 n=63 v=0
36014 On ch=6 n=63 v=0
36024 On ch=6 n=60 v=98
36024 On ch=6 n=60 v=96
36028 On ch=6 n=55 v=0
36048 On ch=6 n=55 v=104
36053 On ch=6 n=60 v=0
36054 On ch=6 n=60 v=0
36072 On ch=6 n=63 v=90
36072 On ch=6 n=60 v=88
36079 On ch=6 n=48 v=0
36096 On ch=6 n=67 v=0
36096 On ch=6 n=55 v=0
36096 On ch=6 n=63 v=0
36096 On ch=6 n=60 v=0
36096 On ch=6 n=48 v=117
36120 On ch=6 n=55 v=102
36144 On ch=6 n=63 v=93
36168 On ch=6 n=63 v=90
36168 On ch=6 n=67 v=104
36203 On ch=6 n=55 v=0
36209 On ch=6 n=63 v=0
36213 On ch=6 n=63 v=0
36213 On ch=6 n=67 v=0
36216 On ch=6 n=60 v=92
36216 On ch=6 n=63 v=71
36222 On ch=6 n=63 v=0
36239 On ch=6 n=60 v=0
36240 On ch=6 n=55 v=117
36264 On ch=6 n=60 v=102
36264 On ch=6 n=63 v=100
36269 On ch=6 n=48 v=0
36288 On ch=6 n=55 v=0
36288 On ch=6 n=60 v=0
36288 On ch=6 n=63 v=0
36288 On ch=6 n=53 v=114
36312 On ch=6 n=48 v=104
36336 On ch=6 n=68 v=89
36357 On ch=6 n=68 v=0
36360 On ch=6 n=65 v=60
36360 On ch=6 n=68 v=95
36360 On ch=6 n=60 v=98
36394 On ch=6 n=48 v=0
36408 On ch=6 n=48 v=100
36413 On ch=6 n=60 v=0
36415 On ch=6 n=68 v=0
36415 On ch=6 n=65 v=0
36432 On ch=6 n=65 v=96
36432 On ch=6 n=68 v=102
36432 On ch=6 n=65 v=96
36437 On ch=6 n=48 v=0
36456 On ch=6 n=48 v=111
36465 On ch=6 n=53 v=0
36480 On ch=6 n=65 v=0
36480 On ch=6 n=68 v=0
36480 On ch=6 n=65 v=0
36480 On ch=6 n=48 v=0
36480 On ch=6 n=55 v=114
36504 On ch=6 n=50 v=104
36528 On ch=6 n=65 v=89
36549 On ch=6 n=65 v=0
36552 On ch=6 n=71 v=60
36552 On ch=6 n=67 v=95
36552 On ch=6 n=62 v=98
36586 On ch=6 n=50 v=0
36600 On ch=6 n=53 v=100
36605 On ch=6 n=62 v=0
36607 On ch=6 n=67 v=0
36607 On ch=6 n=71 v=0
36624 On ch=6 n=71 v=96
36624 On ch=6 n=67 v=102
36624 On ch=6 n=65 v=96
36629 On ch=6 n=53 v=0
36648 On ch=6 n=50 v=111
36657 On ch=6 n=55 v=0
36672 On ch=6 n=71 v=0
36672 On ch=6 n=67 v=0
36672 On ch=6 n=65 v=0
36672 On ch=6 n=50 v=0
36672 On ch=6 n=48 v=114
36696 On ch=6 n=55 v=104
36720 On ch=6 n=63 v=89
36741 On ch=6 n=63 v=0
36744 On ch=6 n=60 v=60
36744 On ch=6 n=63 v=95
36744 On ch=6 n=67 v=98
36778 On ch=6 n=55 v=0
36792 On ch=6 n=55 v=100
36797 On ch=6 n=67 v=0
36799 On ch=6 n=63 v=0
36799 On ch=6 n=60 v=0
36816 On ch=6 n=63 v=96
36816 On ch=6 n=60 v=102
36816 On ch=6 n=60 v=96
36821 On ch=6 n=55 v=0
36840 On ch=6 n=55 v=111
36849 On ch=6 n=48 v=0
36864 On ch=6 n=63 v=0
36864 On ch=6 n=60 v=0
36864 On ch=6 n=60 v=0
36864 On ch=6 n=55 v=0
36864 On ch=6 n=53 v=114
36888 On ch=6 n=48 v=104
36912 On ch=6 n=68 v=89
36933 On ch=6 n=68 v=0
36936 On ch=6 n=65 v=60
36936 On ch=6 n=68 v=95
36936 On ch=6 n=60 v=98
36970 On ch=6 n=48 v=0
36984 On ch=6 n=48 v=100
36989 On ch=6 n=60 v=0
36991 On ch=6 n=68 v=0
36991 On ch=6 n=65 v=0
37008 On ch=6 n=65 v=96
37008 On ch=6 n=68 v=102
37008 On ch=6 n=65 v=96
37013 On ch=6 n=48 v=0
37032 On ch=6 n=48 v=111
37041 On ch=6 n=53 v=0
37056 On ch=6 n=65 v=0
37056 On ch=6 n=68 v=0
37056 On ch=6 n=65 v=0
37056 On ch=6 n=48 v=0
37056 On ch=6 n=58 v=114
37080 On ch=6 n=53 v=104
37104 On ch=6 n=62 v=89
37125 On ch=6 n=62 v=0
37128 On ch=6 n=70 v=60
37128 On ch=6 n=62 v=95
37128 On ch=6 n=65 v=98
37162 On ch=6 n=53 v=0
37176 On ch=6 n=53 v=100
37181 On ch=6 n=65 v=0
37183 On ch=6 n=62 v=0
37183 On ch=6 n=70 v=0
37200 On ch=6 n=62 v=96
37200 On ch=6 n=70 v=102
37200 On ch=6 n=70 v=96
37205 On ch=6 n=53 v=0
37224 On ch=6 n=53 v=111
37233 On ch=6 n=58 v=0
37248 On ch=6 n=62 v=0
37248 On ch=6 n=70 v=0
37248 On ch=6 n=70 v=0
37248 On ch=6 n=53 v=0
37248 On ch=6 n=51 v=117
37272 On ch=6 n=58 v=102
37296 On ch=6 n=67 v=93
37320 On ch=6 n=63 v=90
37320 On ch=6 n=70 v=104
37355 On ch=6 n=58 v=0
37361 On ch=6 n=67 v=0
37365 On ch=6 n=63 v=0
37365 On ch=6 n=70 v=0
37368 On ch=6 n=67 v=92
37368 On ch=6 n=63 v=71
37374 On ch=6 n=63 v=0
37391 On ch=6 n=67 v=0
37392 On ch=6 n=58 v=117
37416 On ch=6 n=67 v=102
37416 On ch=6 n=63 v=100
37421 On ch=6 n=51 v=0
37440 On ch=6 n=58 v=0
37440 On ch=6 n=67 v=0
37440 On ch=6 n=63 v=0
37440 On ch=6 n=56 v=127
37464 On ch=6 n=51 v=95
37488 On ch=6 n=60 v=102
37512 On ch=6 n=68 v=96
37512 On ch=6 n=63 v=95
37546 On ch=6 n=68 v=0
37550 On ch=6 n=60 v=0
37560 On ch=6 n=60 v=98
37560 On ch=6 n=68 v=96
37564 On ch=6 n=51 v=0
37584 On ch=6 n=51 v=104
37589 On ch=6 n=68 v=0
37590 On ch=6 n=60 v=0
37608 On ch=6 n=60 v=90
37608 On ch=6 n=68 v=88
37615 On ch=6 n=56 v=0
37632 On ch=6 n=63 v=0
37632 On ch=6 n=51 v=0
37632 On ch=6 n=60 v=0
37632 On ch=6 n=68 v=0
37632 On ch=6 n=53 v=114
37656 On ch=6 n=48 v=104
37680 On ch=6 n=68 v=89
37701 On ch=6 n=68 v=0
37704 On ch=6 n=65 v=60
37704 On ch=6 n=68 v=95
37704 On ch=6 n=60 v=98
37738 On ch=6 n=48 v=0
37752 On ch=6 n=48 v=100
37757 On ch=6 n=60 v=0
37759 On ch=6 n=68 v=0
37759 On ch=6 n=65 v=0
37776 On ch=6 n=65 v=96
37776 On ch=6 n=68 v=102
37776 On ch=6 n=65 v=96
37781 On ch=6 n=48 v=0
37800 On ch=6 n=48 v=111
37809 On ch=6 n=53 v=0
37824 On ch=6 n=65 v=0
37824 On ch=6 n=68 v=0
37824 On ch=6 n=65 v=0
37824 On ch=6 n=48 v=0
37824 On ch=6 n=55 v=127
37848 On ch=6 n=50 v=95
37872 On ch=6 n=71 v=102
37896 On ch=6 n=67 v=96
37896 On ch=6 n=62 v=95
37930 On ch=6 n=67 v=0
37934 On ch=6 n=71 v=0
37944 On ch=6 n=71 v=98
37944 On ch=6 n=67 v=96
37948 On ch=6 n=50 v=0
37968 On ch=6 n=50 v=104
37973 On ch=6 n=67 v=0
37974 On ch=6 n=71 v=0
37992 On ch=6 n=71 v=90
37992 On ch=6 n=67 v=88
37999 On ch=6 n=55 v=0
38016 On ch=6 n=62 v=0
38016 On ch=6 n=50 v=0
38016 On ch=6 n=71 v=0
38016 On ch=6 n=67 v=0
38016 On ch=6 n=48 v=127
38040 On ch=6 n=55 v=95
38064 On ch=6 n=63 v=102
38088 On ch=6 n=63 v=96
38088 On ch=6 n=67 v=95
38122 On ch=6 n=63 v=0
38126 On ch=6 n=63 v=0
38136 On ch=6 n=60 v=98
38136 On ch=6 n=60 v=96
38140 On ch=6 n=55 v=0
38160 On ch=6 n=55 v=104
38165 On ch=6 n=60 v=0
38166 On ch=6 n=60 v=0
38184 On ch=6 n=63 v=90
38184 On ch=6 n=60 v=88
38191 On ch=6 n=48 v=0
38208 On ch=6 n=67 v=0
38208 On ch=6 n=55 v=0
38208 On ch=6 n=63 v=0
38208 On ch=6 n=60 v=0
38208 On ch=6 n=48 v=114
38232 On ch=6 n=55 v=104
38256 On ch=6 n=64 v=89
38277 On ch=6 n=64 v=0
38280 On ch=6 n=60 v=60
38280 On ch=6 n=64 v=95
38280 On ch=6 n=67 v=98
38314 On ch=6 n=55 v=0
38328 On ch=6 n=55 v=100
38333 On ch=6 n=67 v=0
38335 On ch=6 n=64 v=0
38335 On ch=6 n=60 v=0
38352 On ch=6 n=64 v=96
38352 On ch=6 n=60 v=102
38352 On ch=6 n=60 v=96
38357 On ch=6 n=55 v=0
38376 On ch=6 n=55 v=111
38385 On ch=6 n=48 v=0
38400 On ch=6 n=64 v=0
38400 On ch=6 n=60 v=0
38400 On ch=6 n=60 v=0
38400 On ch=6 n=55 v=0
38400 On ch=6 n=53 v=127
38424 On ch=6 n=48 v=95
38448 On ch=6 n=68 v=102
38472 On ch=6 n=68 v=96
38472 On ch=6 n=60 v=95
38506 On ch=6 n=68 v=0
38510 On ch=6 n=68 v=0
38520 On ch=6 n=65 v=98
38520 On ch=6 n=65 v=96
38524 On ch=6 n=48 v=0
38544 On ch=6 n=48 v=104
38549 On ch=6 n=65 v=0
38550 On ch=6 n=65 v=0
38568 On ch=6 n=68 v=90
38568 On ch=6 n=65 v=88
38575 On ch=6 n=53 v=0
38592 On ch=6 n=60 v=0
38592 On ch=6 n=48 v=0
38592 On ch=6 n=68 v=0
38592 On ch=6 n=65 v=0
38592 On ch=6 n=58 v=117
38616 On ch=6 n=53 v=102
38640 On ch=6 n=62 v=93
38664 On ch=6 n=62 v=90
38664 On ch=6 n=65 v=104
38699 On ch=6 n=53 v=0
38705 On ch=6 n=62 v=0
38709 On ch=6 n=62 v=0
38709 On ch=6 n=65 v=0
38712 On ch=6 n=70 v=92
38712 On ch=6 n=62 v=71
38718 On ch=6 n=62 v=0
38735 On ch=6 n=70 v=0
38736 On ch=6 n=53 v=117
38760 On ch=6 n=70 v=102
38760 On ch=6 n=62 v=100
38765 On ch=6 n=58 v=0
38784 On ch=6 n=53 v=0
38784 On ch=6 n=70 v=0
38784 On ch=6 n=62 v=0
38784 On ch=6 n=51 v=127
38808 On ch=6 n=58 v=95
38832 On ch=6 n=67 v=102
38856 On ch=6 n=63 v=96
38856 On ch=6 n=70 v=95
38890 On ch=6 n=63 v=0
38894 On ch=6 n=67 v=0
38904 On ch=6 n=67 v=98
38904 On ch=6 n=63 v=96
38908 On ch=6 n=58 v=0
38928 On ch=6 n=58 v=104
38933 On ch=6 n=63 v=0
38934 On ch=6 n=67 v=0
38952 On ch=6 n=67 v=90
38952 On ch=6 n=63 v=88
38959 On ch=6 n=51 v=0
38976 On ch=6 n=70 v=0
38976 On ch=6 n=58 v=0
38976 On ch=6 n=67 v=0
38976 On ch=6 n=63 v=0
38976 On ch=6 n=56 v=117
39000 On ch=6 n=51 v=102
39024 On ch=6 n=60 v=93
39048 On ch=6 n=68 v=90
39048 On ch=6 n=63 v=104
39083 On ch=6 n=51 v=0
39089 On ch=6 n=60 v=0
39093 On ch=6 n=68 v=0
39093 On ch=6 n=63 v=0
39096 On ch=6 n=60 v=92
39096 On ch=6 n=68 v=71
39102 On ch=6 n=68 v=0
39119 On ch=6 n=60 v=0
39120 On ch=6 n=51 v=117
39144 On ch=6 n=60 v=102
39144 On ch=6 n=68 v=100
39149 On ch=6 n=56 v=0
39168 On ch=6 n=51 v=0
39168 On ch=6 n=60 v=0
39168 On ch=6 n=68 v=0
39168 On ch=6 n=53 v=127
39192 On ch=6 n=48 v=95
39216 On ch=6 n=68 v=102
39240 On ch=6 n=68 v=96
39240 On ch=6 n=60 v=95
39274 On ch=6 n=68 v=0
39278 On ch=6 n=68 v=0
39288 On ch=6 n=65 v=98
39288 On ch=6 n=65 v=96
39292 On ch=6 n=48 v=0
39312 On ch=6 n=48 v=104
39317 On ch=6 n=65 v=0
39318 On ch=6 n=65 v=0
39336 On ch=6 n=68 v=90
39336 On ch=6 n=65 v=88
39343 On ch=6 n=53 v=0
39360 On ch=6 n=60 v=0
39360 On ch=6 n=48 v=0
39360 On ch=6 n=68 v=0
39360 On ch=6 n=65 v=0
39360 On ch=6 n=55 v=117
39384 On ch=6 n=50 v=102
39408 On ch=6 n=71 v=93
39432 On ch=6 n=67 v=90
39432 On ch=6 n=62 v=104
39467 On ch=6 n=50 v=0
39473 On ch=6 n=71 v=0
39477 On ch=6 n=67 v=0
39477 On ch=6 n=62 v=0
39480 On ch=6 n=71 v=92
39480 On ch=6 n=67 v=71
39486 On ch=6 n=67 v=0
39503 On ch=6 n=71 v=0
39504 On ch=6 n=50 v=117
39528 On ch=6 n=71 v=102
39528 On ch=6 n=67 v=100
39533 On ch=6 n=55 v=0
39552 On ch=6 n=50 v=0
39552 On ch=6 n=71 v=0
39552 On ch=6 n=67 v=0
39552 On ch=6 n=48 v=127
39576 On ch=6 n=55 v=95
39600 On ch=6 n=63 v=102
39624 On ch=6 n=63 v=96
39624 On ch=6 n=67 v=95
39658 On ch=6 n=63 v=0
39662 On ch=6 n=63 v=0
39672 On ch=6 n=60 v=98
39672 On ch=6 n=60 v=96
39676 On ch=6 n=55 v=0
39696 On ch=6 n=55 v=104
39701 On ch=6 n=60 v=0
39702 On ch=6 n=60 v=0
39720 On ch=6 n=63 v=90
39720 On ch=6 n=60 v=88
39727 On ch=6 n=48 v=0
39744 On ch=6 n=67 v=0
39744 On ch=6 n=55 v=0
39744 On ch=6 n=63 v=0
39744 On ch=6 n=60 v=0
39744 On ch=6 n=48 v=117
39768 On ch=6 n=55 v=102
39792 On ch=6 n=63 v=93
39816 On ch=6 n=63 v=90
39816 On ch=6 n=67 v=104
39851 On ch=6 n=55 v=0
39857 On ch=6 n=63 v=0
39861 On ch=6 n=63 v=0
39861 On ch=6 n=67 v=0
39864 On ch=6 n=60 v=92
39864 On ch=6 n=63 v=71
39870 On ch=6 n=63 v=0
39887 On ch=6 n=60 v=0
39888 On ch=6 n=55 v=117
39912 On ch=6 n=60 v=102
39912 On ch=6 n=63 v=100
39917 On ch=6 n=48 v=0
39936 On ch=6 n=55 v=0
39936 On ch=6 n=60 v=0
39936 On ch=6 n=63 v=0
39936 On ch=6 n=48 v=127
39960 On ch=6 n=55 v=95
39984 On ch=6 n=63 v=102
40008 On ch=6 n=63 v=96
40008 On ch=6 n=67 v=95
40042 On ch=6 n=63 v=0
40046 On ch=6 n=63 v=0
40056 On ch=6 n=60 v=98
40056 On ch=6 n=60 v=96
40060 On ch=6 n=55 v=0
40080 On ch=6 n=55 v=104
40085 On ch=6 n=60 v=0
40086 On ch=6 n=60 v=0
40104 On ch=6 n=63 v=90
40104 On ch=6 n=60 v=88
40111 On ch=6 n=48 v=0
40128 On ch=6 n=67 v=0
40128 On ch=6 n=55 v=0
40128 On ch=6 n=63 v=0
40128 On ch=6 n=60 v=0
40128 On ch=6 n=48 v=127
40152 On ch=6 n=55 v=95
40176 On ch=6 n=63 v=102
40200 On ch=6 n=63 v=96
40200 On ch=6 n=67 v=95
40234 On ch=6 n=63 v=0
40238 On ch=6 n=63 v=0
40248 On ch=6 n=60 v=98
40248 On ch=6 n=60 v=96
40252 On ch=6 n=55 v=0
40272 On ch=6 n=55 v=104
40277 On ch=6 n=60 v=0
40278 On ch=6 n=60 v=0
40296 On ch=6 n=63 v=90
40296 On ch=6 n=60 v=88
40303 On ch=6 n=48 v=0
40320 On ch=6 n=67 v=0
40320 On ch=6 n=55 v=0
40320 On ch=6 n=63 v=0
40320 On ch=6 n=60 v=0
40320 Meta TrkEnd
TrkEnd
MTrk
0 Meta TrkName "Drum"
0 PrCh ch=10 p=0
0 Par ch=10 c=7 v=100
0 Par ch=10 c=10 v=64
0 Par ch=10 c=11 v=127
0 Par ch=10 c=91 v=0
0 Par ch=10 c=93 v=0
0 Par ch=10 c=7 v=127
0 Par ch=10 c=10 v=64
0 On ch=10 n=42 v=100
0 On ch=10 n=36 v=120
26 On ch=10 n=42 v=0
48 On ch=10 n=42 v=92
67 On ch=10 n=36 v=0
69 On ch=10 n=42 v=0
72 On ch=10 n=36 v=90
96 On ch=10 n=42 v=89
103 On ch=10 n=36 v=0
108 On ch=10 n=42 v=0
120 On ch=10 n=37 v=119
144 On ch=10 n=42 v=104
150 On ch=10 n=37 v=0
160 On ch=10 n=42 v=0
168 On ch=10 n=36 v=73
180 On ch=10 n=36 v=0
192 On ch=10 n=42 v=100
192 On ch=10 n=36 v=120
218 On ch=10 n=42 v=0
240 On ch=10 n=42 v=92
259 On ch=10 n=36 v=0
261 On ch=10 n=42 v=0
264 On ch=10 n=36 v=90
288 On ch=10 n=42 v=89
295 On ch=10 n=36 v=0
300 On ch=10 n=42 v=0
312 On ch=10 n=37 v=119
336 On ch=10 n=42 v=104
342 On ch=10 n=37 v=0
352 On ch=10 n=42 v=0
360 On ch=10 n=36 v=73
372 On ch=10 n=36 v=0
384 On ch=10 n=36 v=120
384 On ch=10 n=42 v=109
402 On ch=10 n=42 v=0
432 On ch=10 n=42 v=84
450 On ch=10 n=36 v=0
452 On ch=10 n=42 v=0
456 On ch=10 n=36 v=92
480 On ch=10 n=42 v=86
493 On ch=10 n=42 v=0
500 On ch=10 n=36 v=0
504 On ch=10 n=38 v=107
528 On ch=10 n=42 v=96
550 On ch=10 n=38 v=0
550 On ch=10 n=42 v=0
552 On ch=10 n=36 v=88
566 On ch=10 n=36 v=0
576 On ch=10 n=42 v=89
576 On ch=10 n=36 v=120
590 On ch=10 n=42 v=0
624 On ch=10 n=42 v=86
633 On ch=10 n=36 v=0
640 On ch=10 n=42 v=0
648 On ch=10 n=37 v=114
672 On ch=10 n=42 v=96
688 On ch=10 n=42 v=0
720 On ch=10 n=42 v=100
724 On ch=10 n=37 v=0
734 On ch=10 n=42 v=0
744 On ch=10 n=36 v=97
752 On ch=10 n=36 v=0
768 On ch=10 n=36 v=120
768 On ch=10 n=42 v=109
786 On ch=10 n=42 v=0
816 On ch=10 n=42 v=84
834 On ch=10 n=36 v=0
836 On ch=10 n=42 v=0
840 On ch=10 n=36 v=92
864 On ch=10 n=42 v=86
877 On ch=10 n=42 v=0
884 On ch=10 n=36 v=0
888 On ch=10 n=38 v=107
912 On ch=10 n=42 v=96
934 On ch=10 n=38 v=0
934 On ch=10 n=42 v=0
936 On ch=10 n=36 v=88
950 On ch=10 n=36 v=0
960 On ch=10 n=42 v=100
960 On ch=10 n=36 v=120
986 On ch=10 n=42 v=0
1008 On ch=10 n=42 v=92
1027 On ch=10 n=36 v=0
1029 On ch=10 n=42 v=0
1032 On ch=10 n=36 v=90
1056 On ch=10 n=42 v=89
1063 On ch=10 n=36 v=0
1068 On ch=10 n=42 v=0
1080 On ch=10 n=37 v=119
1104 On ch=10 n=42 v=104
1110 On ch=10 n=37 v=0
1120 On ch=10 n=42 v=0
1128 On ch=10 n=36 v=73
1140 On ch=10 n=36 v=0
1152 On ch=10 n=42 v=89
1152 On ch=10 n=36 v=120
1166 On ch=10 n=42 v=0
1200 On ch=10 n=42 v=86
1209 On ch=10 n=36 v=0
1216 On ch=10 n=42 v=0
1224 On ch=10 n=37 v=114
1248 On ch=10 n=42 v=96
1264 On ch=10 n=42 v=0
1296 On ch=10 n=42 v=100
1300 On ch=10 n=37 v=0
1310 On ch=10 n=42 v=0
1320 On ch=10 n=36 v=97
1328 On ch=10 n=36 v=0
1344 On ch=10 n=51 v=96
1344 On ch=10 n=36 v=120
1344 On ch=10 n=37 v=74
1364 On ch=10 n=51 v=0
1374 On ch=10 n=37 v=0
1392 On ch=10 n=51 v=109
1404 On ch=10 n=36 v=0
1411 On ch=10 n=51 v=0
1416 On ch=10 n=38 v=110
1440 On ch=10 n=51 v=109
1449 On ch=10 n=38 v=0
1453 On ch=10 n=51 v=0
1464 On ch=10 n=38 v=110
1488 On ch=10 n=51 v=104
1499 On ch=10 n=51 v=0
1511 On ch=10 n=38 v=0
1512 On ch=10 n=36 v=113
1526 On ch=10 n=36 v=0
1536 On ch=10 n=42 v=100
1536 On ch=10 n=36 v=120
1562 On ch=10 n=42 v=0
1584 On ch=10 n=42 v=92
1603 On ch=10 n=36 v=0
1605 On ch=10 n=42 v=0
1608 On ch=10 n=36 v=90
1632 On ch=10 n=42 v=89
1639 On ch=10 n=36 v=0
1644 On ch=10 n=42 v=0
1656 On ch=10 n=37 v=119
1680 On ch=10 n=42 v=104
1686 On ch=10 n=37 v=0
1696 On ch=10 n=42 v=0
1704 On ch=10 n=36 v=73
1716 On ch=10 n=36 v=0
1728 On ch=10 n=42 v=89
1728 On ch=10 n=36 v=120
1742 On ch=10 n=42 v=0
1776 On ch=10 n=42 v=86
1785 On ch=10 n=36 v=0
1792 On ch=10 n=42 v=0
1800 On ch=10 n=37 v=114
1824 On ch=10 n=42 v=96
1840 On ch=10 n=42 v=0
1872 On ch=10 n=42 v=100
1876 On ch=10 n=37 v=0
1886 On ch=10 n=42 v=0
1896 On ch=10 n=36 v=97
1904 On ch=10 n=36 v=0
1920 On ch=10 n=42 v=89
1920 On ch=10 n=36 v=120
1934 On ch=10 n=42 v=0
1968 On ch=10 n=42 v=86
1977 On ch=10 n=36 v=0
1984 On ch=10 n=42 v=0
1992 On ch=10 n=37 v=114
2016 On ch=10 n=42 v=96
2032 On ch=10 n=42 v=0
2064 On ch=10 n=42 v=100
2068 On ch=10 n=37 v=0
2078 On ch=10 n=42 v=0
2088 On ch=10 n=36 v=97
2096 On ch=10 n=36 v=0
2112 On ch=10 n=42 v=89
2112 On ch=10 n=36 v=120
2126 On ch=10 n=42 v=0
2160 On ch=10 n=42 v=86
2169 On ch=10 n=36 v=0
2176 On ch=10 n=42 v=0
2184 On ch=10 n=37 v=114
2208 On ch=10 n=42 v=96
2224 On ch=10 n=42 v=0
2256 On ch=10 n=42 v=100
2260 On ch=10 n=37 v=0
2270 On ch=10 n=42 v=0
2280 On ch=10 n=36 v=97
2288 On ch=10 n=36 v=0
2304 On ch=10 n=42 v=89
2304 On ch=10 n=36 v=120
2318 On ch=10 n=42 v=0
2352 On ch=10 n=42 v=86
2361 On ch=10 n=36 v=0
2368 On ch=10 n=42 v=0
2376 On ch=10 n=37 v=114
2400 On ch=10 n=42 v=96
2416 On ch=10 n=42 v=0
2448 On ch=10 n=42 v=100
2452 On ch=10 n=37 v=0
2462 On ch=10 n=42 v=0
2472 On ch=10 n=36 v=97
2480 On ch=10 n=36 v=0
2496 On ch=10 n=36 v=120
2496 On ch=10 n=42 v=109
2514 On ch=10 n=42 v=0
2544 On ch=10 n=42 v=84
2562 On ch=10 n=36 v=0
2564 On ch=10 n=42 v=0
2568 On ch=10 n=36 v=92
2592 On ch=10 n=42 v=86
2605 On ch=10 n=42 v=0
2612 On ch=10 n=36 v=0
2616 On ch=10 n=38 v=107
2640 On ch=10 n=42 v=96
2662 On ch=10 n=38 v=0
2662 On ch=10 n=42 v=0
2664 On ch=10 n=36 v=88
2678 On ch=10 n=36 v=0
2688 On ch=10 n=42 v=89
2688 On ch=10 n=36 v=120
2702 On ch=10 n=42 v=0
2736 On ch=10 n=42 v=86
2745 On ch=10 n=36 v=0
2752 On ch=10 n=42 v=0
2760 On ch=10 n=37 v=114
2784 On ch=10 n=42 v=96
2800 On ch=10 n=42 v=0
2832 On ch=10 n=42 v=100
2836 On ch=10 n=37 v=0
2846 On ch=10 n=42 v=0
2856 On ch=10 n=36 v=97
2864 On ch=10 n=36 v=0
2880 On ch=10 n=51 v=89
2888 On ch=10 n=51 v=0
2892 On ch=10 n=51 v=56
2899 On ch=10 n=51 v=0
2904 On ch=10 n=51 v=71
2911 On ch=10 n=51 v=0
2916 On ch=10 n=51 v=71
2925 On ch=10 n=51 v=0
2928 On ch=10 n=51 v=81
2933 On ch=10 n=51 v=0
3072 On ch=10 n=36 v=120
3072 On ch=10 n=42 v=109
3090 On ch=10 n=42 v=0
3120 On ch=10 n=42 v=84
3138 On ch=10 n=36 v=0
3140 On ch=10 n=42 v=0
3144 On ch=10 n=36 v=92
3168 On ch=10 n=42 v=86
3181 On ch=10 n=42 v=0
3188 On ch=10 n=36 v=0
3192 On ch=10 n=38 v=107
3216 On ch=10 n=42 v=96
3238 On ch=10 n=38 v=0
3238 On ch=10 n=42 v=0
3240 On ch=10 n=36 v=88
3254 On ch=10 n=36 v=0
3264 On ch=10 n=42 v=89
3264 On ch=10 n=36 v=120
3278 On ch=10 n=42 v=0
3312 On ch=10 n=42 v=86
3321 On ch=10 n=36 v=0
3328 On ch=10 n=42 v=0
3336 On ch=10 n=37 v=114
3360 On ch=10 n=42 v=96
3376 On ch=10 n=42 v=0
3408 On ch=10 n=42 v=100
3412 On ch=10 n=37 v=0
3422 On ch=10 n=42 v=0
3432 On ch=10 n=36 v=97
3440 On ch=10 n=36 v=0
3456 On ch=10 n=42 v=100
3456 On ch=10 n=36 v=120
3482 On ch=10 n=42 v=0
3504 On ch=10 n=42 v=92
3523 On ch=10 n=36 v=0
3525 On ch=10 n=42 v=0
3528 On ch=10 n=36 v=90
3552 On ch=10 n=42 v=89
3559 On ch=10 n=36 v=0
3564 On ch=10 n=42 v=0
3576 On ch=10 n=37 v=119
3600 On ch=10 n=42 v=104
3606 On ch=10 n=37 v=0
3616 On ch=10 n=42 v=0
3624 On ch=10 n=36 v=73
3636 On ch=10 n=36 v=0
3648 On ch=10 n=36 v=120
3648 On ch=10 n=42 v=109
3666 On ch=10 n=42 v=0
3696 On ch=10 n=42 v=84
3714 On ch=10 n=36 v=0
3716 On ch=10 n=42 v=0
3720 On ch=10 n=36 v=92
3744 On ch=10 n=42 v=86
3757 On ch=10 n=42 v=0
3764 On ch=10 n=36 v=0
3768 On ch=10 n=38 v=107
3792 On ch=10 n=42 v=96
3814 On ch=10 n=38 v=0
3814 On ch=10 n=42 v=0
3816 On ch=10 n=36 v=88
3830 On ch=10 n=36 v=0
3840 On ch=10 n=42 v=89
3840 On ch=10 n=36 v=120
3854 On ch=10 n=42 v=0
3888 On ch=10 n=42 v=86
3897 On ch=10 n=36 v=0
3904 On ch=10 n=42 v=0
3912 On ch=10 n=37 v=114
3936 On ch=10 n=42 v=96
3952 On ch=10 n=42 v=0
3984 On ch=10 n=42 v=100
3988 On ch=10 n=37 v=0
3998 On ch=10 n=42 v=0
4008 On ch=10 n=36 v=97
4016 On ch=10 n=36 v=0
4032 On ch=10 n=36 v=120
4032 On ch=10 n=42 v=109
4050 On ch=10 n=42 v=0
4080 On ch=10 n=42 v=84
4098 On ch=10 n=36 v=0
4100 On ch=10 n=42 v=0
4104 On ch=10 n=36 v=92
4128 On ch=10 n=42 v=86
4141 On ch=10 n=42 v=0
4148 On ch=10 n=36 v=0
4152 On ch=10 n=38 v=107
4176 On ch=10 n=42 v=96
4198 On ch=10 n=38 v=0
4198 On ch=10 n=42 v=0
4200 On ch=10 n=36 v=88
4214 On ch=10 n=36 v=0
4224 On ch=10 n=42 v=100
4224 On ch=10 n=36 v=120
4250 On ch=10 n=42 v=0
4272 On ch=10 n=42 v=92
4291 On ch=10 n=36 v=0
4293 On ch=10 n=42 v=0
4296 On ch=10 n=36 v=90
4320 On ch=10 n=42 v=89
4327 On ch=10 n=36 v=0
4332 On ch=10 n=42 v=0
4344 On ch=10 n=37 v=119
4368 On ch=10 n=42 v=104
4374 On ch=10 n=37 v=0
4384 On ch=10 n=42 v=0
4392 On ch=10 n=36 v=73
4404 On ch=10 n=36 v=0
4416 On ch=10 n=51 v=96
4416 On ch=10 n=36 v=120
4416 On ch=10 n=37 v=74
4436 On ch=10 n=51 v=0
4446 On ch=10 n=37 v=0
4464 On ch=10 n=51 v=109
4476 On ch=10 n=36 v=0
4483 On ch=10 n=51 v=0
4488 On ch=10 n=38 v=110
4512 On ch=10 n=51 v=109
4521 On ch=10 n=38 v=0
4525 On ch=10 n=51 v=0
4536 On ch=10 n=38 v=110
4560 On ch=10 n=51 v=104
4571 On ch=10 n=51 v=0
4583 On ch=10 n=38 v=0
4584 On ch=10 n=36 v=113
4598 On ch=10 n=36 v=0
4608 On ch=10 n=42 v=89
4608 On ch=10 n=36 v=120
4622 On ch=10 n=42 v=0
4656 On ch=10 n=42 v=86
4665 On ch=10 n=36 v=0
4672 On ch=10 n=42 v=0
4680 On ch=10 n=37 v=114
4704 On ch=10 n=42 v=96
4720 On ch=10 n=42 v=0
4752 On ch=10 n=42 v=100
4756 On ch=10 n=37 v=0
4766 On ch=10 n=42 v=0
4776 On ch=10 n=36 v=97
4784 On ch=10 n=36 v=0
4800 On ch=10 n=42 v=100
4800 On ch=10 n=36 v=120
4826 On ch=10 n=42 v=0
4848 On ch=10 n=42 v=92
4867 On ch=10 n=36 v=0
4869 On ch=10 n=42 v=0
4872 On ch=10 n=36 v=90
4896 On ch=10 n=42 v=89
4903 On ch=10 n=36 v=0
4908 On ch=10 n=42 v=0
4920 On ch=10 n=37 v=119
4944 On ch=10 n=42 v=104
4950 On ch=10 n=37 v=0
4960 On ch=10 n=42 v=0
4968 On ch=10 n=36 v=73
4980 On ch=10 n=36 v=0
4992 On ch=10 n=42 v=89
4992 On ch=10 n=36 v=120
5006 On ch=10 n=42 v=0
5040 On ch=10 n=42 v=86
5049 On ch=10 n=36 v=0
5056 On ch=10 n=42 v=0
5064 On ch=10 n=37 v=114
5088 On ch=10 n=42 v=96
5104 On ch=10 n=42 v=0
5136 On ch=10 n=42 v=100
5140 On ch=10 n=37 v=0
5150 On ch=10 n=42 v=0
5160 On ch=10 n=36 v=97
5168 On ch=10 n=36 v=0
5184 On ch=10 n=42 v=100
5184 On ch=10 n=36 v=120
5210 On ch=10 n=42 v=0
5232 On ch=10 n=42 v=92
5251 On ch=10 n=36 v=0
5253 On ch=10 n=42 v=0
5256 On ch=10 n=36 v=90
5280 On ch=10 n=42 v=89
5287 On ch=10 n=36 v=0
5292 On ch=10 n=42 v=0
5304 On ch=10 n=37 v=119
5328 On ch=10 n=42 v=104
5334 On ch=10 n=37 v=0
5344 On ch=10 n=42 v=0
5352 On ch=10 n=36 v=73
5364 On ch=10 n=36 v=0
5376 On ch=10 n=36 v=120
5376 On ch=10 n=42 v=109
5394 On ch=10 n=42 v=0
5424 On ch=10 n=42 v=84
5442 On ch=10 n=36 v=0
5444 On ch=10 n=42 v=0
5448 On ch=10 n=36 v=92
5472 On ch=10 n=42 v=86
5485 On ch=10 n=42 v=0
5492 On ch=10 n=36 v=0
5496 On ch=10 n=38 v=107
5520 On ch=10 n=42 v=96
5542 On ch=10 n=38 v=0
5542 On ch=10 n=42 v=0
5544 On ch=10 n=36 v=88
5558 On ch=10 n=36 v=0
5568 On ch=10 n=36 v=120
5568 On ch=10 n=42 v=109
5586 On ch=10 n=42 v=0
5616 On ch=10 n=42 v=84
5634 On ch=10 n=36 v=0
5636 On ch=10 n=42 v=0
5640 On ch=10 n=36 v=92
5664 On ch=10 n=42 v=86
5677 On ch=10 n=42 v=0
5684 On ch=10 n=36 v=0
5688 On ch=10 n=38 v=107
5712 On ch=10 n=42 v=96
5734 On ch=10 n=38 v=0
5734 On ch=10 n=42 v=0
5736 On ch=10 n=36 v=88
5750 On ch=10 n=36 v=0
5760 On ch=10 n=36 v=120
5760 On ch=10 n=42 v=109
5778 On ch=10 n=42 v=0
5808 On ch=10 n=42 v=84
5826 On ch=10 n=36 v=0
5828 On ch=10 n=42 v=0
5832 On ch=10 n=36 v=92
5856 On ch=10 n=42 v=86
5869 On ch=10 n=42 v=0
5876 On ch=10 n=36 v=0
5880 On ch=10 n=38 v=107
5904 On ch=10 n=42 v=96
5926 On ch=10 n=38 v=0
5926 On ch=10 n=42 v=0
5928 On ch=10 n=36 v=88
5942 On ch=10 n=36 v=0
5952 On ch=10 n=51 v=89
5960 On ch=10 n=51 v=0
5964 On ch=10 n=51 v=56
5971 On ch=10 n=51 v=0
5976 On ch=10 n=51 v=71
5983 On ch=10 n=51 v=0
5988 On ch=10 n=51 v=71
5997 On ch=10 n=51 v=0
6000 On ch=10 n=51 v=81
6005 On ch=10 n=51 v=0
6144 On ch=10 n=42 v=100
6144 On ch=10 n=36 v=120
6170 On ch=10 n=42 v=0
6192 On ch=10 n=42 v=92
6211 On ch=10 n=36 v=0
6213 On ch=10 n=42 v=0
6216 On ch=10 n=36 v=90
6240 On ch=10 n=42 v=89
6247 On ch=10 n=36 v=0
6252 On ch=10 n=42 v=0
6264 On ch=10 n=37 v=119
6288 On ch=10 n=42 v=104
6294 On ch=10 n=37 v=0
6304 On ch=10 n=42 v=0
6312 On ch=10 n=36 v=73
6324 On ch=10 n=36 v=0
6336 On ch=10 n=42 v=89
6336 On ch=10 n=36 v=120
6350 On ch=10 n=42 v=0
6384 On ch=10 n=42 v=86
6393 On ch=10 n=36 v=0
6400 On ch=10 n=42 v=0
6408 On ch=10 n=37 v=114
6432 On ch=10 n=42 v=96
6448 On ch=10 n=42 v=0
6480 On ch=10 n=42 v=100
6484 On ch=10 n=37 v=0
6494 On ch=10 n=42 v=0
6504 On ch=10 n=36 v=97
6512 On ch=10 n=36 v=0
6528 On ch=10 n=36 v=120
6528 On ch=10 n=42 v=109
6546 On ch=10 n=42 v=0
6576 On ch=10 n=42 v=84
6594 On ch=10 n=36 v=0
6596 On ch=10 n=42 v=0
6600 On ch=10 n=36 v=92
6624 On ch=10 n=42 v=86
6637 On ch=10 n=42 v=0
6644 On ch=10 n=36 v=0
6648 On ch=10 n=38 v=107
6672 On ch=10 n=42 v=96
6694 On ch=10 n=38 v=0
6694 On ch=10 n=42 v=0
6696 On ch=10 n=36 v=88
6710 On ch=10 n=36 v=0
6720 On ch=10 n=42 v=89
6720 On ch=10 n=36 v=120
6734 On ch=10 n=42 v=0
6768 On ch=10 n=42 v=86
6777 On ch=10 n=36 v=0
6784 On ch=10 n=42 v=0
6792 On ch=10 n=37 v=114
6816 On ch=10 n=42 v=96
6832 On ch=10 n=42 v=0
6864 On ch=10 n=42 v=100
6868 On ch=10 n=37 v=0
6878 On ch=10 n=42 v=0
6888 On ch=10 n=36 v=97
6896 On ch=10 n=36 v=0
6912 On ch=10 n=42 v=100
6912 On ch=10 n=36 v=120
6938 On ch=10 n=42 v=0
6960 On ch=10 n=42 v=92
6979 On ch=10 n=36 v=0
6981 On ch=10 n=42 v=0
6984 On ch=10 n=36 v=90
7008 On ch=10 n=42 v=89
7015 On ch=10 n=36 v=0
7020 On ch=10 n=42 v=0
7032 On ch=10 n=37 v=119
7056 On ch=10 n=42 v=104
7062 On ch=10 n=37 v=0
7072 On ch=10 n=42 v=0
7080 On ch=10 n=36 v=73
7092 On ch=10 n=36 v=0
7104 On ch=10 n=36 v=120
7104 On ch=10 n=42 v=109
7122 On ch=10 n=42 v=0
7152 On ch=10 n=42 v=84
7170 On ch=10 n=36 v=0
7172 On ch=10 n=42 v=0
7176 On ch=10 n=36 v=92
7200 On ch=10 n=42 v=86
7213 On ch=10 n=42 v=0
7220 On ch=10 n=36 v=0
7224 On ch=10 n=38 v=107
7248 On ch=10 n=42 v=96
7270 On ch=10 n=38 v=0
7270 On ch=10 n=42 v=0
7272 On ch=10 n=36 v=88
7286 On ch=10 n=36 v=0
7296 On ch=10 n=42 v=100
7296 On ch=10 n=36 v=120
7322 On ch=10 n=42 v=0
7344 On ch=10 n=42 v=92
7363 On ch=10 n=36 v=0
7365 On ch=10 n=42 v=0
7368 On ch=10 n=36 v=90
7392 On ch=10 n=42 v=89
7399 On ch=10 n=36 v=0
7404 On ch=10 n=42 v=0
7416 On ch=10 n=37 v=119
7440 On ch=10 n=42 v=104
7446 On ch=10 n=37 v=0
7456 On ch=10 n=42 v=0
7464 On ch=10 n=36 v=73
7476 On ch=10 n=36 v=0
7488 On ch=10 n=51 v=96
7488 On ch=10 n=36 v=120
7488 On ch=10 n=37 v=74
7508 On ch=10 n=51 v=0
7518 On ch=10 n=37 v=0
7536 On ch=10 n=51 v=109
7548 On ch=10 n=36 v=0
7555 On ch=10 n=51 v=0
7560 On ch=10 n=38 v=110
7584 On ch=10 n=51 v=109
7593 On ch=10 n=38 v=0
7597 On ch=10 n=51 v=0
7608 On ch=10 n=38 v=110
7632 On ch=10 n=51 v=104
7643 On ch=10 n=51 v=0
7655 On ch=10 n=38 v=0
7656 On ch=10 n=36 v=113
7670 On ch=10 n=36 v=0
7680 On ch=10 n=42 v=89
7680 On ch=10 n=36 v=120
7694 On ch=10 n=42 v=0
7728 On ch=10 n=42 v=86
7737 On ch=10 n=36 v=0
7744 On ch=10 n=42 v=0
7752 On ch=10 n=37 v=114
7776 On ch=10 n=42 v=96
7792 On ch=10 n=42 v=0
7824 On ch=10 n=42 v=100
7828 On ch=10 n=37 v=0
7838 On ch=10 n=42 v=0
7848 On ch=10 n=36 v=97
7856 On ch=10 n=36 v=0
7872 On ch=10 n=42 v=89
7872 On ch=10 n=36 v=120
7886 On ch=10 n=42 v=0
7920 On ch=10 n=42 v=86
7929 On ch=10 n=36 v=0
7936 On ch=10 n=42 v=0
7944 On ch=10 n=37 v=114
7968 On ch=10 n=42 v=96
7984 On ch=10 n=42 v=0
8016 On ch=10 n=42 v=100
8020 On ch=10 n=37 v=0
8030 On ch=10 n=42 v=0
8040 On ch=10 n=36 v=97
8048 On ch=10 n=36 v=0
8064 On ch=10 n=36 v=120
8064 On ch=10 n=42 v=109
8082 On ch=10 n=42 v=0
8112 On ch=10 n=42 v=84
8130 On ch=10 n=36 v=0
8132 On ch=10 n=42 v=0
8136 On ch=10 n=36 v=92
8160 On ch=10 n=42 v=86
8173 On ch=10 n=42 v=0
8180 On ch=10 n=36 v=0
8184 On ch=10 n=38 v=107
8208 On ch=10 n=42 v=96
8230 On ch=10 n=38 v=0
8230 On ch=10 n=42 v=0
8232 On ch=10 n=36 v=88
8246 On ch=10 n=36 v=0
8256 On ch=10 n=42 v=100
8256 On ch=10 n=36 v=120
8282 On ch=10 n=42 v=0
8304 On ch=10 n=42 v=92
8323 On ch=10 n=36 v=0
8325 On ch=10 n=42 v=0
8328 On ch=10 n=36 v=90
8352 On ch=10 n=42 v=89
8359 On ch=10 n=36 v=0
8364 On ch=10 n=42 v=0
8376 On ch=10 n=37 v=119
8400 On ch=10 n=42 v=104
8406 On ch=10 n=37 v=0
8416 On ch=10 n=42 v=0
8424 On ch=10 n=36 v=73
8436 On ch=10 n=36 v=0
8448 On ch=10 n=36 v=120
8448 On ch=10 n=42 v=109
8466 On ch=10 n=42 v=0
8496 On ch=10 n=42 v=84
8514 On ch=10 n=36 v=0
8516 On ch=10 n=42 v=0
8520 On ch=10 n=36 v=92
8544 On ch=10 n=42 v=86
8557 On ch=10 n=42 v=0
8564 On ch=10 n=36 v=0
8568 On ch=10 n=38 v=107
8592 On ch=10 n=42 v=96
8614 On ch=10 n=38 v=0
8614 On ch=10 n=42 v=0
8616 On ch=10 n=36 v=88
8630 On ch=10 n=36 v=0
8640 On ch=10 n=42 v=100
8640 On ch=10 n=36 v=120
8666 On ch=10 n=42 v=0
8688 On ch=10 n=42 v=92
8707 On ch=10 n=36 v=0
8709 On ch=10 n=42 v=0
8712 On ch=10 n=36 v=90
8736 On ch=10 n=42 v=89
8743 On ch=10 n=36 v=0
8748 On ch=10 n=42 v=0
8760 On ch=10 n=37 v=119
8784 On ch=10 n=42 v=104
8790 On ch=10 n=37 v=0
8800 On ch=10 n=42 v=0
8808 On ch=10 n=36 v=73
8820 On ch=10 n=36 v=0
8832 On ch=10 n=36 v=120
8832 On ch=10 n=42 v=109
8850 On ch=10 n=42 v=0
8880 On ch=10 n=42 v=84
8898 On ch=10 n=36 v=0
8900 On ch=10 n=42 v=0
8904 On ch=10 n=36 v=92
8928 On ch=10 n=42 v=86
8941 On ch=10 n=42 v=0
8948 On ch=10 n=36 v=0
8952 On ch=10 n=38 v=107
8976 On ch=10 n=42 v=96
8998 On ch=10 n=38 v=0
8998 On ch=10 n=42 v=0
9000 On ch=10 n=36 v=88
9014 On ch=10 n=36 v=0
9024 On ch=10 n=51 v=96
9024 On ch=10 n=36 v=120
9024 On ch=10 n=37 v=74
9044 On ch=10 n=51 v=0
9054 On ch=10 n=37 v=0
9072 On ch=10 n=51 v=109
9084 On ch=10 n=36 v=0
9091 On ch=10 n=51 v=0
9096 On ch=10 n=38 v=110
9120 On ch=10 n=51 v=109
9129 On ch=10 n=38 v=0
9133 On ch=10 n=51 v=0
9144 On ch=10 n=38 v=110
9168 On ch=10 n=51 v=104
9179 On ch=10 n=51 v=0
9191 On ch=10 n=38 v=0
9192 On ch=10 n=36 v=113
9206 On ch=10 n=36 v=0
9216 On ch=10 n=36 v=120
9216 On ch=10 n=42 v=109
9234 On ch=10 n=42 v=0
9264 On ch=10 n=42 v=84
9282 On ch=10 n=36 v=0
9284 On ch=10 n=42 v=0
9288 On ch=10 n=36 v=92
9312 On ch=10 n=42 v=86
9325 On ch=10 n=42 v=0
9332 On ch=10 n=36 v=0
9336 On ch=10 n=38 v=107
9360 On ch=10 n=42 v=96
9382 On ch=10 n=38 v=0
9382 On ch=10 n=42 v=0
9384 On ch=10 n=36 v=88
9398 On ch=10 n=36 v=0
9408 On ch=10 n=42 v=89
9408 On ch=10 n=36 v=120
9422 On ch=10 n=42 v=0
9456 On ch=10 n=42 v=86
9465 On ch=10 n=36 v=0
9472 On ch=10 n=42 v=0
9480 On ch=10 n=37 v=114
9504 On ch=10 n=42 v=96
9520 On ch=10 n=42 v=0
9552 On ch=10 n=42 v=100
9556 On ch=10 n=37 v=0
9566 On ch=10 n=42 v=0
9576 On ch=10 n=36 v=97
9584 On ch=10 n=36 v=0
9600 On ch=10 n=42 v=100
9600 On ch=10 n=36 v=120
9626 On ch=10 n=42 v=0
9648 On ch=10 n=42 v=92
9667 On ch=10 n=36 v=0
9669 On ch=10 n=42 v=0
9672 On ch=10 n=36 v=90
9696 On ch=10 n=42 v=89
9703 On ch=10 n=36 v=0
9708 On ch=10 n=42 v=0
9720 On ch=10 n=37 v=119
9744 On ch=10 n=42 v=104
9750 On ch=10 n=37 v=0
9760 On ch=10 n=42 v=0
9768 On ch=10 n=36 v=73
9780 On ch=10 n=36 v=0
9792 On ch=10 n=36 v=120
9792 On ch=10 n=42 v=109
9810 On ch=10 n=42 v=0
9840 On ch=10 n=42 v=84
9858 On ch=10 n=36 v=0
9860 On ch=10 n=42 v=0
9864 On ch=10 n=36 v=92
9888 On ch=10 n=42 v=86
9901 On ch=10 n=42 v=0
9908 On ch=10 n=36 v=0
9912 On ch=10 n=38 v=107
9936 On ch=10 n=42 v=96
9958 On ch=10 n=38 v=0
9958 On ch=10 n=42 v=0
9960 On ch=10 n=36 v=88
9974 On ch=10 n=36 v=0
9984 On ch=10 n=42 v=89
9984 On ch=10 n=36 v=120
9998 On ch=10 n=42 v=0
10032 On ch=10 n=42 v=86
10041 On ch=10 n=36 v=0
10048 On ch=10 n=42 v=0
10056 On ch=10 n=37 v=114
10080 On ch=10 n=42 v=96
10096 On ch=10 n=42 v=0
10128 On ch=10 n=42 v=100
10132 On ch=10 n=37 v=0
10142 On ch=10 n=42 v=0
10152 On ch=10 n=36 v=97
10160 On ch=10 n=36 v=0
10176 On ch=10 n=42 v=89
10176 On ch=10 n=36 v=120
10190 On ch=10 n=42 v=0
10224 On ch=10 n=42 v=86
10233 On ch=10 n=36 v=0
10240 On ch=10 n=42 v=0
10248 On ch=10 n=37 v=114
10272 On ch=10 n=42 v=96
10288 On ch=10 n=42 v=0
10320 On ch=10 n=42 v=100
10324 On ch=10 n=37 v=0
10334 On ch=10 n=42 v=0
10344 On ch=10 n=36 v=97
10352 On ch=10 n=36 v=0
10368 On ch=10 n=42 v=89
10368 On ch=10 n=36 v=120
10382 On ch=10 n=42 v=0
10416 On ch=10 n=42 v=86
10425 On ch=10 n=36 v=0
10432 On ch=10 n=42 v=0
10440 On ch=10 n=37 v=114
10464 On ch=10 n=42 v=96
10480 On ch=10 n=42 v=0
10512 On ch=10 n=42 v=100
10516 On ch=10 n=37 v=0
10526 On ch=10 n=42 v=0
10536 On ch=10 n=36 v=97
10544 On ch=10 n=36 v=0
10560 On ch=10 n=51 v=96
10560 On ch=10 n=36 v=120
10560 On ch=10 n=37 v=74
10580 On ch=10 n=51 v=0
10590 On ch=10 n=37 v=0
10608 On ch=10 n=51 v=109
10620 On ch=10 n=36 v=0
10627 On ch=10 n=51 v=0
10632 On ch=10 n=38 v=110
10656 On ch=10 n=51 v=109
10665 On ch=10 n=38 v=0
10669 On ch=10 n=51 v=0
10680 On ch=10 n=38 v=110
10704 On ch=10 n=51 v=104
10715 On ch=10 n=51 v=0
10727 On ch=10 n=38 v=0
10728 On ch=10 n=36 v=113
10742 On ch=10 n=36 v=0
10752 On ch=10 n=42 v=89
10752 On ch=10 n=36 v=120
10766 On ch=10 n=42 v=0
10800 On ch=10 n=42 v=86
10809 On ch=10 n=36 v=0
10816 On ch=10 n=42 v=0
10824 On ch=10 n=37 v=114
10848 On ch=10 n=42 v=96
10864 On ch=10 n=42 v=0
10896 On ch=10 n=42 v=100
10900 On ch=10 n=37 v=0
10910 On ch=10 n=42 v=0
10920 On ch=10 n=36 v=97
10928 On ch=10 n=36 v=0
10944 On ch=10 n=42 v=89
10944 On ch=10 n=36 v=120
10958 On ch=10 n=42 v=0
10992 On ch=10 n=42 v=86
11001 On ch=10 n=36 v=0
11008 On ch=10 n=42 v=0
11016 On ch=10 n=37 v=114
11040 On ch=10 n=42 v=96
11056 On ch=10 n=42 v=0
11088 On ch=10 n=42 v=100
11092 On ch=10 n=37 v=0
11102 On ch=10 n=42 v=0
11112 On ch=10 n=36 v=97
11120 On ch=10 n=36 v=0
11136 On ch=10 n=42 v=100
11136 On ch=10 n=36 v=120
11162 On ch=10 n=42 v=0
11184 On ch=10 n=42 v=92
11203 On ch=10 n=36 v=0
11205 On ch=10 n=42 v=0
11208 On ch=10 n=36 v=90
11232 On ch=10 n=42 v=89
11239 On ch=10 n=36 v=0
11244 On ch=10 n=42 v=0
11256 On ch=10 n=37 v=119
11280 On ch=10 n=42 v=104
11286 On ch=10 n=37 v=0
11296 On ch=10 n=42 v=0
11304 On ch=10 n=36 v=73
11316 On ch=10 n=36 v=0
11328 On ch=10 n=36 v=120
11328 On ch=10 n=42 v=109
11346 On ch=10 n=42 v=0
11376 On ch=10 n=42 v=84
11394 On ch=10 n=36 v=0
11396 On ch=10 n=42 v=0
11400 On ch=10 n=36 v=92
11424 On ch=10 n=42 v=86
11437 On ch=10 n=42 v=0
11444 On ch=10 n=36 v=0
11448 On ch=10 n=38 v=107
11472 On ch=10 n=42 v=96
11494 On ch=10 n=38 v=0
11494 On ch=10 n=42 v=0
11496 On ch=10 n=36 v=88
11510 On ch=10 n=36 v=0
11520 On ch=10 n=42 v=100
11520 On ch=10 n=36 v=120
11546 On ch=10 n=42 v=0
11568 On ch=10 n=42 v=92
11587 On ch=10 n=36 v=0
11589 On ch=10 n=42 v=0
11592 On ch=10 n=36 v=90
11616 On ch=10 n=42 v=89
11623 On ch=10 n=36 v=0
11628 On ch=10 n=42 v=0
11640 On ch=10 n=37 v=119
11664 On ch=10 n=42 v=104
11670 On ch=10 n=37 v=0
11680 On ch=10 n=42 v=0
11688 On ch=10 n=36 v=73
11700 On ch=10 n=36 v=0
11712 On ch=10 n=42 v=89
11712 On ch=10 n=36 v=120
11726 On ch=10 n=42 v=0
11760 On ch=10 n=42 v=86
11769 On ch=10 n=36 v=0
11776 On ch=10 n=42 v=0
11784 On ch=10 n=37 v=114
11808 On ch=10 n=42 v=96
11824 On ch=10 n=42 v=0
11856 On ch=10 n=42 v=100
11860 On ch=10 n=37 v=0
11870 On ch=10 n=42 v=0
11880 On ch=10 n=36 v=97
11888 On ch=10 n=36 v=0
11904 On ch=10 n=42 v=89
11904 On ch=10 n=36 v=120
11918 On ch=10 n=42 v=0
11952 On ch=10 n=42 v=86
11961 On ch=10 n=36 v=0
11968 On ch=10 n=42 v=0
11976 On ch=10 n=37 v=114
12000 On ch=10 n=42 v=96
12016 On ch=10 n=42 v=0
12048 On ch=10 n=42 v=100
12052 On ch=10 n=37 v=0
12062 On ch=10 n=42 v=0
12072 On ch=10 n=36 v=97
12080 On ch=10 n=36 v=0
12096 On ch=10 n=51 v=89
12104 On ch=10 n=51 v=0
12108 On ch=10 n=51 v=56
12115 On ch=10 n=51 v=0
12120 On ch=10 n=51 v=71
12127 On ch=10 n=51 v=0
12132 On ch=10 n=51 v=71
12141 On ch=10 n=51 v=0
12144 On ch=10 n=51 v=81
12149 On ch=10 n=51 v=0
12288 On ch=10 n=42 v=89
12288 On ch=10 n=36 v=120
12302 On ch=10 n=42 v=0
12336 On ch=10 n=42 v=86
12345 On ch=10 n=36 v=0
12352 On ch=10 n=42 v=0
12360 On ch=10 n=37 v=114
12384 On ch=10 n=42 v=96
12400 On ch=10 n=42 v=0
12432 On ch=10 n=42 v=100
12436 On ch=10 n=37 v=0
12446 On ch=10 n=42 v=0
12456 On ch=10 n=36 v=97
12464 On ch=10 n=36 v=0
12480 On ch=10 n=36 v=120
12480 On ch=10 n=42 v=109
12498 On ch=10 n=42 v=0
12528 On ch=10 n=42 v=84
12546 On ch=10 n=36 v=0
12548 On ch=10 n=42 v=0
12552 On ch=10 n=36 v=92
12576 On ch=10 n=42 v=86
12589 On ch=10 n=42 v=0
12596 On ch=10 n=36 v=0
12600 On ch=10 n=38 v=107
12624 On ch=10 n=42 v=96
12646 On ch=10 n=38 v=0
12646 On ch=10 n=42 v=0
12648 On ch=10 n=36 v=88
12662 On ch=10 n=36 v=0
12672 On ch=10 n=42 v=100
12672 On ch=10 n=36 v=120
12698 On ch=10 n=42 v=0
12720 On ch=10 n=42 v=92
12739 On ch=10 n=36 v=0
12741 On ch=10 n=42 v=0
12744 On ch=10 n=36 v=90
12768 On ch=10 n=42 v=89
12775 On ch=10 n=36 v=0
12780 On ch=10 n=42 v=0
12792 On ch=10 n=37 v=119
12816 On ch=10 n=42 v=104
12822 On ch=10 n=37 v=0
12832 On ch=10 n=42 v=0
12840 On ch=10 n=36 v=73
12852 On ch=10 n=36 v=0
12864 On ch=10 n=42 v=89
12864 On ch=10 n=36 v=120
12878 On ch=10 n=42 v=0
12912 On ch=10 n=42 v=86
12921 On ch=10 n=36 v=0
12928 On ch=10 n=42 v=0
12936 On ch=10 n=37 v=114
12960 On ch=10 n=42 v=96
12976 On ch=10 n=42 v=0
13008 On ch=10 n=42 v=100
13012 On ch=10 n=37 v=0
13022 On ch=10 n=42 v=0
13032 On ch=10 n=36 v=97
13040 On ch=10 n=36 v=0
13056 On ch=10 n=42 v=89
13056 On ch=10 n=36 v=120
13070 On ch=10 n=42 v=0
13104 On ch=10 n=42 v=86
13113 On ch=10 n=36 v=0
13120 On ch=10 n=42 v=0
13128 On ch=10 n=37 v=114
13152 On ch=10 n=42 v=96
13168 On ch=10 n=42 v=0
13200 On ch=10 n=42 v=100
13204 On ch=10 n=37 v=0
13214 On ch=10 n=42 v=0
13224 On ch=10 n=36 v=97
13232 On ch=10 n=36 v=0
13248 On ch=10 n=36 v=120
13248 On ch=10 n=42 v=109
13266 On ch=10 n=42 v=0
13296 On ch=10 n=42 v=84
13314 On ch=10 n=36 v=0
13316 On ch=10 n=42 v=0
13320 On ch=10 n=36 v=92
13344 On ch=10 n=42 v=86
13357 On ch=10 n=42 v=0
13364 On ch=10 n=36 v=0
13368 On ch=10 n=38 v=107
13392 On ch=10 n=42 v=96
13414 On ch=10 n=38 v=0
13414 On ch=10 n=42 v=0
13416 On ch=10 n=36 v=88
13430 On ch=10 n=36 v=0
13440 On ch=10 n=36 v=120
13440 On ch=10 n=42 v=109
13458 On ch=10 n=42 v=0
13488 On ch=10 n=42 v=84
13506 On ch=10 n=36 v=0
13508 On ch=10 n=42 v=0
13512 On ch=10 n=36 v=92
13536 On ch=10 n=42 v=86
13549 On ch=10 n=42 v=0
13556 On ch=10 n=36 v=0
13560 On ch=10 n=38 v=107
13584 On ch=10 n=42 v=96
13606 On ch=10 n=38 v=0
13606 On ch=10 n=42 v=0
13608 On ch=10 n=36 v=88
13622 On ch=10 n=36 v=0
13632 On ch=10 n=51 v=96
13632 On ch=10 n=36 v=120
13632 On ch=10 n=37 v=74
13652 On ch=10 n=51 v=0
13662 On ch=10 n=37 v=0
13680 On ch=10 n=51 v=109
13692 On ch=10 n=36 v=0
13699 On ch=10 n=51 v=0
13704 On ch=10 n=38 v=110
13728 On ch=10 n=51 v=109
13737 On ch=10 n=38 v=0
13741 On ch=10 n=51 v=0
13752 On ch=10 n=38 v=110
13776 On ch=10 n=51 v=104
13787 On ch=10 n=51 v=0
13799 On ch=10 n=38 v=0
13800 On ch=10 n=36 v=113
13814 On ch=10 n=36 v=0
13824 On ch=10 n=36 v=120
13824 On ch=10 n=42 v=109
13842 On ch=10 n=42 v=0
13872 On ch=10 n=42 v=84
13890 On ch=10 n=36 v=0
13892 On ch=10 n=42 v=0
13896 On ch=10 n=36 v=92
13920 On ch=10 n=42 v=86
13933 On ch=10 n=42 v=0
13940 On ch=10 n=36 v=0
13944 On ch=10 n=38 v=107
13968 On ch=10 n=42 v=96
13990 On ch=10 n=38 v=0
13990 On ch=10 n=42 v=0
13992 On ch=10 n=36 v=88
14006 On ch=10 n=36 v=0
14016 On ch=10 n=42 v=89
14016 On ch=10 n=36 v=120
14030 On ch=10 n=42 v=0
14064 On ch=10 n=42 v=86
14073 On ch=10 n=36 v=0
14080 On ch=10 n=42 v=0
14088 On ch=10 n=37 v=114
14112 On ch=10 n=42 v=96
14128 On ch=10 n=42 v=0
14160 On ch=10 n=42 v=100
14164 On ch=10 n=37 v=0
14174 On ch=10 n=42 v=0
14184 On ch=10 n=36 v=97
14192 On ch=10 n=36 v=0
14208 On ch=10 n=36 v=120
14208 On ch=10 n=42 v=109
14226 On ch=10 n=42 v=0
14256 On ch=10 n=42 v=84
14274 On ch=10 n=36 v=0
14276 On ch=10 n=42 v=0
14280 On ch=10 n=36 v=92
14304 On ch=10 n=42 v=86
14317 On ch=10 n=42 v=0
14324 On ch=10 n=36 v=0
14328 On ch=10 n=38 v=107
14352 On ch=10 n=42 v=96
14374 On ch=10 n=38 v=0
14374 On ch=10 n=42 v=0
14376 On ch=10 n=36 v=88
14390 On ch=10 n=36 v=0
14400 On ch=10 n=42 v=100
14400 On ch=10 n=36 v=120
14426 On ch=10 n=42 v=0
14448 On ch=10 n=42 v=92
14467 On ch=10 n=36 v=0
14469 On ch=10 n=42 v=0
14472 On ch=10 n=36 v=90
14496 On ch=10 n=42 v=89
14503 On ch=10 n=36 v=0
14508 On ch=10 n=42 v=0
14520 On ch=10 n=37 v=119
14544 On ch=10 n=42 v=104
14550 On ch=10 n=37 v=0
14560 On ch=10 n=42 v=0
14568 On ch=10 n=36 v=73
14580 On ch=10 n=36 v=0
14592 On ch=10 n=42 v=100
14592 On ch=10 n=36 v=120
14618 On ch=10 n=42 v=0
14640 On ch=10 n=42 v=92
14659 On ch=10 n=36 v=0
14661 On ch=10 n=42 v=0
14664 On ch=10 n=36 v=90
14688 On ch=10 n=42 v=89
14695 On ch=10 n=36 v=0
14700 On ch=10 n=42 v=0
14712 On ch=10 n=37 v=119
14736 On ch=10 n=42 v=104
14742 On ch=10 n=37 v=0
14752 On ch=10 n=42 v=0
14760 On ch=10 n=36 v=73
14772 On ch=10 n=36 v=0
14784 On ch=10 n=36 v=120
14784 On ch=10 n=42 v=109
14802 On ch=10 n=42 v=0
14832 On ch=10 n=42 v=84
14850 On ch=10 n=36 v=0
14852 On ch=10 n=42 v=0
14856 On ch=10 n=36 v=92
14880 On ch=10 n=42 v=86
14893 On ch=10 n=42 v=0
14900 On ch=10 n=36 v=0
14904 On ch=10 n=38 v=107
14928 On ch=10 n=42 v=96
14950 On ch=10 n=38 v=0
14950 On ch=10 n=42 v=0
14952 On ch=10 n=36 v=88
14966 On ch=10 n=36 v=0
14976 On ch=10 n=42 v=89
14976 On ch=10 n=36 v=120
14990 On ch=10 n=42 v=0
15024 On ch=10 n=42 v=86
15033 On ch=10 n=36 v=0
15040 On ch=10 n=42 v=0
15048 On ch=10 n=37 v=114
15072 On ch=10 n=42 v=96
15088 On ch=10 n=42 v=0
15120 On ch=10 n=42 v=100
15124 On ch=10 n=37 v=0
15134 On ch=10 n=42 v=0
15144 On ch=10 n=36 v=97
15152 On ch=10 n=36 v=0
15168 On ch=10 n=51 v=89
15176 On ch=10 n=51 v=0
15180 On ch=10 n=51 v=56
15187 On ch=10 n=51 v=0
15192 On ch=10 n=51 v=71
15199 On ch=10 n=51 v=0
15204 On ch=10 n=51 v=71
15213 On ch=10 n=51 v=0
15216 On ch=10 n=51 v=81
15221 On ch=10 n=51 v=0
15360 On ch=10 n=42 v=100
15360 On ch=10 n=36 v=120
15386 On ch=10 n=42 v=0
15408 On ch=10 n=42 v=92
15427 On ch=10 n=36 v=0
15429 On ch=10 n=42 v=0
15432 On ch=10 n=36 v=90
15456 On ch=10 n=42 v=89
15463 On ch=10 n=36 v=0
15468 On ch=10 n=42 v=0
15480 On ch=10 n=37 v=119
15504 On ch=10 n=42 v=104
15510 On ch=10 n=37 v=0
15520 On ch=10 n=42 v=0
15528 On ch=10 n=36 v=73
15540 On ch=10 n=36 v=0
15552 On ch=10 n=42 v=100
15552 On ch=10 n=36 v=120
15578 On ch=10 n=42 v=0
15600 On ch=10 n=42 v=92
15619 On ch=10 n=36 v=0
15621 On ch=10 n=42 v=0
15624 On ch=10 n=36 v=90
15648 On ch=10 n=42 v=89
15655 On ch=10 n=36 v=0
15660 On ch=10 n=42 v=0
15672 On ch=10 n=37 v=119
15696 On ch=10 n=42 v=104
15702 On ch=10 n=37 v=0
15712 On ch=10 n=42 v=0
15720 On ch=10 n=36 v=73
15732 On ch=10 n=36 v=0
15744 On ch=10 n=36 v=120
15744 On ch=10 n=42 v=109
15762 On ch=10 n=42 v=0
15792 On ch=10 n=42 v=84
15810 On ch=10 n=36 v=0
15812 On ch=10 n=42 v=0
15816 On ch=10 n=36 v=92
15840 On ch=10 n=42 v=86
15853 On ch=10 n=42 v=0
15860 On ch=10 n=36 v=0
15864 On ch=10 n=38 v=107
15888 On ch=10 n=42 v=96
15910 On ch=10 n=38 v=0
15910 On ch=10 n=42 v=0
15912 On ch=10 n=36 v=88
15926 On ch=10 n=36 v=0
15936 On ch=10 n=42 v=89
15936 On ch=10 n=36 v=120
15950 On ch=10 n=42 v=0
15984 On ch=10 n=42 v=86
15993 On ch=10 n=36 v=0
16000 On ch=10 n=42 v=0
16008 On ch=10 n=37 v=114
16032 On ch=10 n=42 v=96
16048 On ch=10 n=42 v=0
16080 On ch=10 n=42 v=100
16084 On ch=10 n=37 v=0
16094 On ch=10 n=42 v=0
16104 On ch=10 n=36 v=97
16112 On ch=10 n=36 v=0
16128 On ch=10 n=42 v=89
16128 On ch=10 n=36 v=120
16142 On ch=10 n=42 v=0
16176 On ch=10 n=42 v=86
16185 On ch=10 n=36 v=0
16192 On ch=10 n=42 v=0
16200 On ch=10 n=37 v=114
16224 On ch=10 n=42 v=96
16240 On ch=10 n=42 v=0
16272 On ch=10 n=42 v=100
16276 On ch=10 n=37 v=0
16286 On ch=10 n=42 v=0
16296 On ch=10 n=36 v=97
16304 On ch=10 n=36 v=0
16320 On ch=10 n=36 v=120
16320 On ch=10 n=42 v=109
16338 On ch=10 n=42 v=0
16368 On ch=10 n=42 v=84
16386 On ch=10 n=36 v=0
16388 On ch=10 n=42 v=0
16392 On ch=10 n=36 v=92
16416 On ch=10 n=42 v=86
16429 On ch=10 n=42 v=0
16436 On ch=10 n=36 v=0
16440 On ch=10 n=38 v=107
16464 On ch=10 n=42 v=96
16486 On ch=10 n=38 v=0
16486 On ch=10 n=42 v=0
16488 On ch=10 n=36 v=88
16502 On ch=10 n=36 v=0
16512 On ch=10 n=42 v=89
16512 On ch=10 n=36 v=120
16526 On ch=10 n=42 v=0
16560 On ch=10 n=42 v=86
16569 On ch=10 n=36 v=0
16576 On ch=10 n=42 v=0
16584 On ch=10 n=37 v=114
16608 On ch=10 n=42 v=96
16624 On ch=10 n=42 v=0
16656 On ch=10 n=42 v=100
16660 On ch=10 n=37 v=0
16670 On ch=10 n=42 v=0
16680 On ch=10 n=36 v=97
16688 On ch=10 n=36 v=0
16704 On ch=10 n=51 v=89
16712 On ch=10 n=51 v=0
16716 On ch=10 n=51 v=56
16723 On ch=10 n=51 v=0
16728 On ch=10 n=51 v=71
16735 On ch=10 n=51 v=0
16740 On ch=10 n=51 v=71
16749 On ch=10 n=51 v=0
16752 On ch=10 n=51 v=81
16757 On ch=10 n=51 v=0
16896 On ch=10 n=42 v=100
16896 On ch=10 n=36 v=120
16922 On ch=10 n=42 v=0
16944 On ch=10 n=42 v=92
16963 On ch=10 n=36 v=0
16965 On ch=10 n=42 v=0
16968 On ch=10 n=36 v=90
16992 On ch=10 n=42 v=89
16999 On ch=10 n=36 v=0
17004 On ch=10 n=42 v=0
17016 On ch=10 n=37 v=119
17040 On ch=10 n=42 v=104
17046 On ch=10 n=37 v=0
17056 On ch=10 n=42 v=0
17064 On ch=10 n=36 v=73
17076 On ch=10 n=36 v=0
17088 On ch=10 n=42 v=89
17088 On ch=10 n=36 v=120
17102 On ch=10 n=42 v=0
17136 On ch=10 n=42 v=86
17145 On ch=10 n=36 v=0
17152 On ch=10 n=42 v=0
17160 On ch=10 n=37 v=114
17184 On ch=10 n=42 v=96
17200 On ch=10 n=42 v=0
17232 On ch=10 n=42 v=100
17236 On ch=10 n=37 v=0
17246 On ch=10 n=42 v=0
17256 On ch=10 n=36 v=97
17264 On ch=10 n=36 v=0
17280 On ch=10 n=36 v=120
17280 On ch=10 n=42 v=109
17298 On ch=10 n=42 v=0
17328 On ch=10 n=42 v=84
17346 On ch=10 n=36 v=0
17348 On ch=10 n=42 v=0
17352 On ch=10 n=36 v=92
17376 On ch=10 n=42 v=86
17389 On ch=10 n=42 v=0
17396 On ch=10 n=36 v=0
17400 On ch=10 n=38 v=107
17424 On ch=10 n=42 v=96
17446 On ch=10 n=38 v=0
17446 On ch=10 n=42 v=0
17448 On ch=10 n=36 v=88
17462 On ch=10 n=36 v=0
17472 On ch=10 n=42 v=89
17472 On ch=10 n=36 v=120
17486 On ch=10 n=42 v=0
17520 On ch=10 n=42 v=86
17529 On ch=10 n=36 v=0
17536 On ch=10 n=42 v=0
17544 On ch=10 n=37 v=114
17568 On ch=10 n=42 v=96
17584 On ch=10 n=42 v=0
17616 On ch=10 n=42 v=100
17620 On ch=10 n=37 v=0
17630 On ch=10 n=42 v=0
17640 On ch=10 n=36 v=97
17648 On ch=10 n=36 v=0
17664 On ch=10 n=42 v=100
17664 On ch=10 n=36 v=120
17690 On ch=10 n=42 v=0
17712 On ch=10 n=42 v=92
17731 On ch=10 n=36 v=0
17733 On ch=10 n=42 v=0
17736 On ch=10 n=36 v=90
17760 On ch=10 n=42 v=89
17767 On ch=10 n=36 v=0
17772 On ch=10 n=42 v=0
17784 On ch=10 n=37 v=119
17808 On ch=10 n=42 v=104
17814 On ch=10 n=37 v=0
17824 On ch=10 n=42 v=0
17832 On ch=10 n=36 v=73
17844 On ch=10 n=36 v=0
17856 On ch=10 n=36 v=120
17856 On ch=10 n=42 v=109
17874 On ch=10 n=42 v=0
17904 On ch=10 n=42 v=84
17922 On ch=10 n=36 v=0
17924 On ch=10 n=42 v=0
17928 On ch=10 n=36 v=92
17952 On ch=10 n=42 v=86
17965 On ch=10 n=42 v=0
17972 On ch=10 n=36 v=0
17976 On ch=10 n=38 v=107
18000 On ch=10 n=42 v=96
18022 On ch=10 n=38 v=0
18022 On ch=10 n=42 v=0
18024 On ch=10 n=36 v=88
18038 On ch=10 n=36 v=0
18048 On ch=10 n=42 v=89
18048 On ch=10 n=36 v=120
18062 On ch=10 n=42 v=0
18096 On ch=10 n=42 v=86
18105 On ch=10 n=36 v=0
18112 On ch=10 n=42 v=0
18120 On ch=10 n=37 v=114
18144 On ch=10 n=42 v=96
18160 On ch=10 n=42 v=0
18192 On ch=10 n=42 v=100
18196 On ch=10 n=37 v=0
18206 On ch=10 n=42 v=0
18216 On ch=10 n=36 v=97
18224 On ch=10 n=36 v=0
18240 On ch=10 n=51 v=89
18248 On ch=10 n=51 v=0
18252 On ch=10 n=51 v=56
18259 On ch=10 n=51 v=0
18264 On ch=10 n=51 v=71
18271 On ch=10 n=51 v=0
18276 On ch=10 n=51 v=71
18285 On ch=10 n=51 v=0
18288 On ch=10 n=51 v=81
18293 On ch=10 n=51 v=0
18432 On ch=10 n=42 v=100
18432 On ch=10 n=36 v=120
18458 On ch=10 n=42 v=0
18480 On ch=10 n=42 v=92
18499 On ch=10 n=36 v=0
18501 On ch=10 n=42 v=0
18504 On ch=10 n=36 v=90
18528 On ch=10 n=42 v=89
18535 On ch=10 n=36 v=0
18540 On ch=10 n=42 v=0
18552 On ch=10 n=37 v=119
18576 On ch=10 n=42 v=104
18582 On ch=10 n=37 v=0
18592 On ch=10 n=42 v=0
18600 On ch=10 n=36 v=73
18612 On ch=10 n=36 v=0
18624 On ch=10 n=36 v=120
18624 On ch=10 n=42 v=109
18642 On ch=10 n=42 v=0
18672 On ch=10 n=42 v=84
18690 On ch=10 n=36 v=0
18692 On ch=10 n=42 v=0
18696 On ch=10 n=36 v=92
18720 On ch=10 n=42 v=86
18733 On ch=10 n=42 v=0
18740 On ch=10 n=36 v=0
18744 On ch=10 n=38 v=107
18768 On ch=10 n=42 v=96
18790 On ch=10 n=38 v=0
18790 On ch=10 n=42 v=0
18792 On ch=10 n=36 v=88
18806 On ch=10 n=36 v=0
18816 On ch=10 n=42 v=89
18816 On ch=10 n=36 v=120
18830 On ch=10 n=42 v=0
18864 On ch=10 n=42 v=86
18873 On ch=10 n=36 v=0
18880 On ch=10 n=42 v=0
18888 On ch=10 n=37 v=114
18912 On ch=10 n=42 v=96
18928 On ch=10 n=42 v=0
18960 On ch=10 n=42 v=100
18964 On ch=10 n=37 v=0
18974 On ch=10 n=42 v=0
18984 On ch=10 n=36 v=97
18992 On ch=10 n=36 v=0
19008 On ch=10 n=36 v=120
19008 On ch=10 n=42 v=109
19026 On ch=10 n=42 v=0
19056 On ch=10 n=42 v=84
19074 On ch=10 n=36 v=0
19076 On ch=10 n=42 v=0
19080 On ch=10 n=36 v=92
19104 On ch=10 n=42 v=86
19117 On ch=10 n=42 v=0
19124 On ch=10 n=36 v=0
19128 On ch=10 n=38 v=107
19152 On ch=10 n=42 v=96
19174 On ch=10 n=38 v=0
19174 On ch=10 n=42 v=0
19176 On ch=10 n=36 v=88
19190 On ch=10 n=36 v=0
19200 On ch=10 n=36 v=120
19200 On ch=10 n=42 v=109
19218 On ch=10 n=42 v=0
19248 On ch=10 n=42 v=84
19266 On ch=10 n=36 v=0
19268 On ch=10 n=42 v=0
19272 On ch=10 n=36 v=92
19296 On ch=10 n=42 v=86
19309 On ch=10 n=42 v=0
19316 On ch=10 n=36 v=0
19320 On ch=10 n=38 v=107
19344 On ch=10 n=42 v=96
19366 On ch=10 n=38 v=0
19366 On ch=10 n=42 v=0
19368 On ch=10 n=36 v=88
19382 On ch=10 n=36 v=0
19392 On ch=10 n=42 v=100
19392 On ch=10 n=36 v=120
19418 On ch=10 n=42 v=0
19440 On ch=10 n=42 v=92
19459 On ch=10 n=36 v=0
19461 On ch=10 n=42 v=0
19464 On ch=10 n=36 v=90
19488 On ch=10 n=42 v=89
19495 On ch=10 n=36 v=0
19500 On ch=10 n=42 v=0
19512 On ch=10 n=37 v=119
19536 On ch=10 n=42 v=104
19542 On ch=10 n=37 v=0
19552 On ch=10 n=42 v=0
19560 On ch=10 n=36 v=73
19572 On ch=10 n=36 v=0
19584 On ch=10 n=42 v=100
19584 On ch=10 n=36 v=120
19610 On ch=10 n=42 v=0
19632 On ch=10 n=42 v=92
19651 On ch=10 n=36 v=0
19653 On ch=10 n=42 v=0
19656 On ch=10 n=36 v=90
19680 On ch=10 n=42 v=89
19687 On ch=10 n=36 v=0
19692 On ch=10 n=42 v=0
19704 On ch=10 n=37 v=119
19728 On ch=10 n=42 v=104
19734 On ch=10 n=37 v=0
19744 On ch=10 n=42 v=0
19752 On ch=10 n=36 v=73
19764 On ch=10 n=36 v=0
19776 On ch=10 n=51 v=96
19776 On ch=10 n=36 v=120
19776 On ch=10 n=37 v=74
19796 On ch=10 n=51 v=0
19806 On ch=10 n=37 v=0
19824 On ch=10 n=51 v=109
19836 On ch=10 n=36 v=0
19843 On ch=10 n=51 v=0
19848 On ch=10 n=38 v=110
19872 On ch=10 n=51 v=109
19881 On ch=10 n=38 v=0
19885 On ch=10 n=51 v=0
19896 On ch=10 n=38 v=110
19920 On ch=10 n=51 v=104
19931 On ch=10 n=51 v=0
19943 On ch=10 n=38 v=0
19944 On ch=10 n=36 v=113
19958 On ch=10 n=36 v=0
19968 On ch=10 n=36 v=120
19968 On ch=10 n=42 v=109
19986 On ch=10 n=42 v=0
20016 On ch=10 n=42 v=84
20034 On ch=10 n=36 v=0
20036 On ch=10 n=42 v=0
20040 On ch=10 n=36 v=92
20064 On ch=10 n=42 v=86
20077 On ch=10 n=42 v=0
20084 On ch=10 n=36 v=0
20088 On ch=10 n=38 v=107
20112 On ch=10 n=42 v=96
20134 On ch=10 n=38 v=0
20134 On ch=10 n=42 v=0
20136 On ch=10 n=36 v=88
20150 On ch=10 n=36 v=0
20160 On ch=10 n=42 v=89
20160 On ch=10 n=36 v=120
20174 On ch=10 n=42 v=0
20208 On ch=10 n=42 v=86
20217 On ch=10 n=36 v=0
20224 On ch=10 n=42 v=0
20232 On ch=10 n=37 v=114
20256 On ch=10 n=42 v=96
20272 On ch=10 n=42 v=0
20304 On ch=10 n=42 v=100
20308 On ch=10 n=37 v=0
20318 On ch=10 n=42 v=0
20328 On ch=10 n=36 v=97
20336 On ch=10 n=36 v=0
20352 On ch=10 n=42 v=100
20352 On ch=10 n=36 v=120
20378 On ch=10 n=42 v=0
20400 On ch=10 n=42 v=92
20419 On ch=10 n=36 v=0
20421 On ch=10 n=42 v=0
20424 On ch=10 n=36 v=90
20448 On ch=10 n=42 v=89
20455 On ch=10 n=36 v=0
20460 On ch=10 n=42 v=0
20472 On ch=10 n=37 v=119
20496 On ch=10 n=42 v=104
20502 On ch=10 n=37 v=0
20512 On ch=10 n=42 v=0
20520 On ch=10 n=36 v=73
20532 On ch=10 n=36 v=0
20544 On ch=10 n=36 v=120
20544 On ch=10 n=42 v=109
20562 On ch=10 n=42 v=0
20592 On ch=10 n=42 v=84
20610 On ch=10 n=36 v=0
20612 On ch=10 n=42 v=0
20616 On ch=10 n=36 v=92
20640 On ch=10 n=42 v=86
20653 On ch=10 n=42 v=0
20660 On ch=10 n=36 v=0
20664 On ch=10 n=38 v=107
20688 On ch=10 n=42 v=96
20710 On ch=10 n=38 v=0
20710 On ch=10 n=42 v=0
20712 On ch=10 n=36 v=88
20726 On ch=10 n=36 v=0
20736 On ch=10 n=36 v=120
20736 On ch=10 n=42 v=109
20754 On ch=10 n=42 v=0
20784 On ch=10 n=42 v=84
20802 On ch=10 n=36 v=0
20804 On ch=10 n=42 v=0
20808 On ch=10 n=36 v=92
20832 On ch=10 n=42 v=86
20845 On ch=10 n=42 v=0
20852 On ch=10 n=36 v=0
20856 On ch=10 n=38 v=107
20880 On ch=10 n=42 v=96
20902 On ch=10 n=38 v=0
20902 On ch=10 n=42 v=0
20904 On ch=10 n=36 v=88
20918 On ch=10 n=36 v=0
20928 On ch=10 n=36 v=120
20928 On ch=10 n=42 v=109
20946 On ch=10 n=42 v=0
20976 On ch=10 n=42 v=84
20994 On ch=10 n=36 v=0
20996 On ch=10 n=42 v=0
21000 On ch=10 n=36 v=92
21024 On ch=10 n=42 v=86
21037 On ch=10 n=42 v=0
21044 On ch=10 n=36 v=0
21048 On ch=10 n=38 v=107
21072 On ch=10 n=42 v=96
21094 On ch=10 n=38 v=0
21094 On ch=10 n=42 v=0
21096 On ch=10 n=36 v=88
21110 On ch=10 n=36 v=0
21120 On ch=10 n=36 v=120
21120 On ch=10 n=42 v=109
21138 On ch=10 n=42 v=0
21168 On ch=10 n=42 v=84
21186 On ch=10 n=36 v=0
21188 On ch=10 n=42 v=0
21192 On ch=10 n=36 v=92
21216 On ch=10 n=42 v=86
21229 On ch=10 n=42 v=0
21236 On ch=10 n=36 v=0
21240 On ch=10 n=38 v=107
21264 On ch=10 n=42 v=96
21286 On ch=10 n=38 v=0
21286 On ch=10 n=42 v=0
21288 On ch=10 n=36 v=88
21302 On ch=10 n=36 v=0
21312 On ch=10 n=51 v=96
21312 On ch=10 n=36 v=120
21312 On ch=10 n=37 v=74
21332 On ch=10 n=51 v=0
21342 On ch=10 n=37 v=0
21360 On ch=10 n=51 v=109
21372 On ch=10 n=36 v=0
21379 On ch=10 n=51 v=0
21384 On ch=10 n=38 v=110
21408 On ch=10 n=51 v=109
21417 On ch=10 n=38 v=0
21421 On ch=10 n=51 v=0
21432 On ch=10 n=38 v=110
21456 On ch=10 n=51 v=104
21467 On ch=10 n=51 v=0
21479 On ch=10 n=38 v=0
21480 On ch=10 n=36 v=113
21494 On ch=10 n=36 v=0
21504 On ch=10 n=42 v=89
21504 On ch=10 n=36 v=120
21518 On ch=10 n=42 v=0
21552 On ch=10 n=42 v=86
21561 On ch=10 n=36 v=0
21568 On ch=10 n=42 v=0
21576 On ch=10 n=37 v=114
21600 On ch=10 n=42 v=96
21616 On ch=10 n=42 v=0
21648 On ch=10 n=42 v=100
21652 On ch=10 n=37 v=0
21662 On ch=10 n=42 v=0
21672 On ch=10 n=36 v=97
21680 On ch=10 n=36 v=0
21696 On ch=10 n=42 v=100
21696 On ch=10 n=36 v=120
21722 On ch=10 n=42 v=0
21744 On ch=10 n=42 v=92
21763 On ch=10 n=36 v=0
21765 On ch=10 n=42 v=0
21768 On ch=10 n=36 v=90
21792 On ch=10 n=42 v=89
21799 On ch=10 n=36 v=0
21804 On ch=10 n=42 v=0
21816 On ch=10 n=37 v=119
21840 On ch=10 n=42 v=104
21846 On ch=10 n=37 v=0
21856 On ch=10 n=42 v=0
21864 On ch=10 n=36 v=73
21876 On ch=10 n=36 v=0
21888 On ch=10 n=42 v=100
21888 On ch=10 n=36 v=120
21914 On ch=10 n=42 v=0
21936 On ch=10 n=42 v=92
21955 On ch=10 n=36 v=0
21957 On ch=10 n=42 v=0
21960 On ch=10 n=36 v=90
21984 On ch=10 n=42 v=89
21991 On ch=10 n=36 v=0
21996 On ch=10 n=42 v=0
22008 On ch=10 n=37 v=119
22032 On ch=10 n=42 v=104
22038 On ch=10 n=37 v=0
22048 On ch=10 n=42 v=0
22056 On ch=10 n=36 v=73
22068 On ch=10 n=36 v=0
22080 On ch=10 n=42 v=89
22080 On ch=10 n=36 v=120
22094 On ch=10 n=42 v=0
22128 On ch=10 n=42 v=86
22137 On ch=10 n=36 v=0
22144 On ch=10 n=42 v=0
22152 On ch=10 n=37 v=114
22176 On ch=10 n=42 v=96
22192 On ch=10 n=42 v=0
22224 On ch=10 n=42 v=100
22228 On ch=10 n=37 v=0
22238 On ch=10 n=42 v=0
22248 On ch=10 n=36 v=97
22256 On ch=10 n=36 v=0
22272 On ch=10 n=42 v=100
22272 On ch=10 n=36 v=120
22298 On ch=10 n=42 v=0
22320 On ch=10 n=42 v=92
22339 On ch=10 n=36 v=0
22341 On ch=10 n=42 v=0
22344 On ch=10 n=36 v=90
22368 On ch=10 n=42 v=89
22375 On ch=10 n=36 v=0
22380 On ch=10 n=42 v=0
22392 On ch=10 n=37 v=119
22416 On ch=10 n=42 v=104
22422 On ch=10 n=37 v=0
22432 On ch=10 n=42 v=0
22440 On ch=10 n=36 v=73
22452 On ch=10 n=36 v=0
22464 On ch=10 n=42 v=100
22464 On ch=10 n=36 v=120
22490 On ch=10 n=42 v=0
22512 On ch=10 n=42 v=92
22531 On ch=10 n=36 v=0
22533 On ch=10 n=42 v=0
22536 On ch=10 n=36 v=90
22560 On ch=10 n=42 v=89
22567 On ch=10 n=36 v=0
22572 On ch=10 n=42 v=0
22584 On ch=10 n=37 v=119
22608 On ch=10 n=42 v=104
22614 On ch=10 n=37 v=0
22624 On ch=10 n=42 v=0
22632 On ch=10 n=36 v=73
22644 On ch=10 n=36 v=0
22656 On ch=10 n=42 v=89
22656 On ch=10 n=36 v=120
22670 On ch=10 n=42 v=0
22704 On ch=10 n=42 v=86
22713 On ch=10 n=36 v=0
22720 On ch=10 n=42 v=0
22728 On ch=10 n=37 v=114
22752 On ch=10 n=42 v=96
22768 On ch=10 n=42 v=0
22800 On ch=10 n=42 v=100
22804 On ch=10 n=37 v=0
22814 On ch=10 n=42 v=0
22824 On ch=10 n=36 v=97
22832 On ch=10 n=36 v=0
22848 On ch=10 n=51 v=89
22856 On ch=10 n=51 v=0
22860 On ch=10 n=51 v=56
22867 On ch=10 n=51 v=0
22872 On ch=10 n=51 v=71
22879 On ch=10 n=51 v=0
22884 On ch=10 n=51 v=71
22893 On ch=10 n=51 v=0
22896 On ch=10 n=51 v=81
22901 On ch=10 n=51 v=0
23040 On ch=10 n=36 v=120
23040 On ch=10 n=42 v=109
23058 On ch=10 n=42 v=0
23088 On ch=10 n=42 v=84
23106 On ch=10 n=36 v=0
23108 On ch=10 n=42 v=0
23112 On ch=10 n=36 v=92
23136 On ch=10 n=42 v=86
23149 On ch=10 n=42 v=0
23156 On ch=10 n=36 v=0
23160 On ch=10 n=38 v=107
23184 On ch=10 n=42 v=96
23206 On ch=10 n=38 v=0
23206 On ch=10 n=42 v=0
23208 On ch=10 n=36 v=88
23222 On ch=10 n=36 v=0
23232 On ch=10 n=36 v=120
23232 On ch=10 n=42 v=109
23250 On ch=10 n=42 v=0
23280 On ch=10 n=42 v=84
23298 On ch=10 n=36 v=0
23300 On ch=10 n=42 v=0
23304 On ch=10 n=36 v=92
23328 On ch=10 n=42 v=86
23341 On ch=10 n=42 v=0
23348 On ch=10 n=36 v=0
23352 On ch=10 n=38 v=107
23376 On ch=10 n=42 v=96
23398 On ch=10 n=38 v=0
23398 On ch=10 n=42 v=0
23400 On ch=10 n=36 v=88
23414 On ch=10 n=36 v=0
23424 On ch=10 n=42 v=89
23424 On ch=10 n=36 v=120
23438 On ch=10 n=42 v=0
23472 On ch=10 n=42 v=86
23481 On ch=10 n=36 v=0
23488 On ch=10 n=42 v=0
23496 On ch=10 n=37 v=114
23520 On ch=10 n=42 v=96
23536 On ch=10 n=42 v=0
23568 On ch=10 n=42 v=100
23572 On ch=10 n=37 v=0
23582 On ch=10 n=42 v=0
23592 On ch=10 n=36 v=97
23600 On ch=10 n=36 v=0
23616 On ch=10 n=36 v=120
23616 On ch=10 n=42 v=109
23634 On ch=10 n=42 v=0
23664 On ch=10 n=42 v=84
23682 On ch=10 n=36 v=0
23684 On ch=10 n=42 v=0
23688 On ch=10 n=36 v=92
23712 On ch=10 n=42 v=86
23725 On ch=10 n=42 v=0
23732 On ch=10 n=36 v=0
23736 On ch=10 n=38 v=107
23760 On ch=10 n=42 v=96
23782 On ch=10 n=38 v=0
23782 On ch=10 n=42 v=0
23784 On ch=10 n=36 v=88
23798 On ch=10 n=36 v=0
23808 On ch=10 n=42 v=100
23808 On ch=10 n=36 v=120
23834 On ch=10 n=42 v=0
23856 On ch=10 n=42 v=92
23875 On ch=10 n=36 v=0
23877 On ch=10 n=42 v=0
23880 On ch=10 n=36 v=90
23904 On ch=10 n=42 v=89
23911 On ch=10 n=36 v=0
23916 On ch=10 n=42 v=0
23928 On ch=10 n=37 v=119
23952 On ch=10 n=42 v=104
23958 On ch=10 n=37 v=0
23968 On ch=10 n=42 v=0
23976 On ch=10 n=36 v=73
23988 On ch=10 n=36 v=0
24000 On ch=10 n=42 v=100
24000 On ch=10 n=36 v=120
24026 On ch=10 n=42 v=0
24048 On ch=10 n=42 v=92
24067 On ch=10 n=36 v=0
24069 On ch=10 n=42 v=0
24072 On ch=10 n=36 v=90
24096 On ch=10 n=42 v=89
24103 On ch=10 n=36 v=0
24108 On ch=10 n=42 v=0
24120 On ch=10 n=37 v=119
24144 On ch=10 n=42 v=104
24150 On ch=10 n=37 v=0
24160 On ch=10 n=42 v=0
24168 On ch=10 n=36 v=73
24180 On ch=10 n=36 v=0
24192 On ch=10 n=42 v=89
24192 On ch=10 n=36 v=120
24206 On ch=10 n=42 v=0
24240 On ch=10 n=42 v=86
24249 On ch=10 n=36 v=0
24256 On ch=10 n=42 v=0
24264 On ch=10 n=37 v=114
24288 On ch=10 n=42 v=96
24304 On ch=10 n=42 v=0
24336 On ch=10 n=42 v=100
24340 On ch=10 n=37 v=0
24350 On ch=10 n=42 v=0
24360 On ch=10 n=36 v=97
24368 On ch=10 n=36 v=0
24384 On ch=10 n=51 v=96
24384 On ch=10 n=36 v=120
24384 On ch=10 n=37 v=74
24404 On ch=10 n=51 v=0
24414 On ch=10 n=37 v=0
24432 On ch=10 n=51 v=109
24444 On ch=10 n=36 v=0
24451 On ch=10 n=51 v=0
24456 On ch=10 n=38 v=110
24480 On ch=10 n=51 v=109
24489 On ch=10 n=38 v=0
24493 On ch=10 n=51 v=0
24504 On ch=10 n=38 v=110
24528 On ch=10 n=51 v=104
24539 On ch=10 n=51 v=0
24551 On ch=10 n=38 v=0
24552 On ch=10 n=36 v=113
24566 On ch=10 n=36 v=0
24576 On ch=10 n=42 v=100
24576 On ch=10 n=36 v=120
24602 On ch=10 n=42 v=0
24624 On ch=10 n=42 v=92
24643 On ch=10 n=36 v=0
24645 On ch=10 n=42 v=0
24648 On ch=10 n=36 v=90
24672 On ch=10 n=42 v=89
24679 On ch=10 n=36 v=0
24684 On ch=10 n=42 v=0
24696 On ch=10 n=37 v=119
24720 On ch=10 n=42 v=104
24726 On ch=10 n=37 v=0
24736 On ch=10 n=42 v=0
24744 On ch=10 n=36 v=73
24756 On ch=10 n=36 v=0
24768 On ch=10 n=36 v=120
24768 On ch=10 n=42 v=109
24786 On ch=10 n=42 v=0
24816 On ch=10 n=42 v=84
24834 On ch=10 n=36 v=0
24836 On ch=10 n=42 v=0
24840 On ch=10 n=36 v=92
24864 On ch=10 n=42 v=86
24877 On ch=10 n=42 v=0
24884 On ch=10 n=36 v=0
24888 On ch=10 n=38 v=107
24912 On ch=10 n=42 v=96
24934 On ch=10 n=38 v=0
24934 On ch=10 n=42 v=0
24936 On ch=10 n=36 v=88
24950 On ch=10 n=36 v=0
24960 On ch=10 n=42 v=89
24960 On ch=10 n=36 v=120
24974 On ch=10 n=42 v=0
25008 On ch=10 n=42 v=86
25017 On ch=10 n=36 v=0
25024 On ch=10 n=42 v=0
25032 On ch=10 n=37 v=114
25056 On ch=10 n=42 v=96
25072 On ch=10 n=42 v=0
25104 On ch=10 n=42 v=100
25108 On ch=10 n=37 v=0
25118 On ch=10 n=42 v=0
25128 On ch=10 n=36 v=97
25136 On ch=10 n=36 v=0
25152 On ch=10 n=42 v=100
25152 On ch=10 n=36 v=120
25178 On ch=10 n=42 v=0
25200 On ch=10 n=42 v=92
25219 On ch=10 n=36 v=0
25221 On ch=10 n=42 v=0
25224 On ch=10 n=36 v=90
25248 On ch=10 n=42 v=89
25255 On ch=10 n=36 v=0
25260 On ch=10 n=42 v=0
25272 On ch=10 n=37 v=119
25296 On ch=10 n=42 v=104
25302 On ch=10 n=37 v=0
25312 On ch=10 n=42 v=0
25320 On ch=10 n=36 v=73
25332 On ch=10 n=36 v=0
25344 On ch=10 n=42 v=89
25344 On ch=10 n=36 v=120
25358 On ch=10 n=42 v=0
25392 On ch=10 n=42 v=86
25401 On ch=10 n=36 v=0
25408 On ch=10 n=42 v=0
25416 On ch=10 n=37 v=114
25440 On ch=10 n=42 v=96
25456 On ch=10 n=42 v=0
25488 On ch=10 n=42 v=100
25492 On ch=10 n=37 v=0
25502 On ch=10 n=42 v=0
25512 On ch=10 n=36 v=97
25520 On ch=10 n=36 v=0
25536 On ch=10 n=42 v=100
25536 On ch=10 n=36 v=120
25562 On ch=10 n=42 v=0
25584 On ch=10 n=42 v=92
25603 On ch=10 n=36 v=0
25605 On ch=10 n=42 v=0
25608 On ch=10 n=36 v=90
25632 On ch=10 n=42 v=89
25639 On ch=10 n=36 v=0
25644 On ch=10 n=42 v=0
25656 On ch=10 n=37 v=119
25680 On ch=10 n=42 v=104
25686 On ch=10 n=37 v=0
25696 On ch=10 n=42 v=0
25704 On ch=10 n=36 v=73
25716 On ch=10 n=36 v=0
25728 On ch=10 n=42 v=100
25728 On ch=10 n=36 v=120
25754 On ch=10 n=42 v=0
25776 On ch=10 n=42 v=92
25795 On ch=10 n=36 v=0
25797 On ch=10 n=42 v=0
25800 On ch=10 n=36 v=90
25824 On ch=10 n=42 v=89
25831 On ch=10 n=36 v=0
25836 On ch=10 n=42 v=0
25848 On ch=10 n=37 v=119
25872 On ch=10 n=42 v=104
25878 On ch=10 n=37 v=0
25888 On ch=10 n=42 v=0
25896 On ch=10 n=36 v=73
25908 On ch=10 n=36 v=0
25920 On ch=10 n=51 v=89
25928 On ch=10 n=51 v=0
25932 On ch=10 n=51 v=56
25939 On ch=10 n=51 v=0
25944 On ch=10 n=51 v=71
25951 On ch=10 n=51 v=0
25956 On ch=10 n=51 v=71
25965 On ch=10 n=51 v=0
25968 On ch=10 n=51 v=81
25973 On ch=10 n=51 v=0
26112 On ch=10 n=36 v=120
26112 On ch=10 n=42 v=109
26130 On ch=10 n=42 v=0
26160 On ch=10 n=42 v=84
26178 On ch=10 n=36 v=0
26180 On ch=10 n=42 v=0
26184 On ch=10 n=36 v=92
26208 On ch=10 n=42 v=86
26221 On ch=10 n=42 v=0
26228 On ch=10 n=36 v=0
26232 On ch=10 n=38 v=107
26256 On ch=10 n=42 v=96
26278 On ch=10 n=38 v=0
26278 On ch=10 n=42 v=0
26280 On ch=10 n=36 v=88
26294 On ch=10 n=36 v=0
26304 On ch=10 n=42 v=89
26304 On ch=10 n=36 v=120
26318 On ch=10 n=42 v=0
26352 On ch=10 n=42 v=86
26361 On ch=10 n=36 v=0
26368 On ch=10 n=42 v=0
26376 On ch=10 n=37 v=114
26400 On ch=10 n=42 v=96
26416 On ch=10 n=42 v=0
26448 On ch=10 n=42 v=100
26452 On ch=10 n=37 v=0
26462 On ch=10 n=42 v=0
26472 On ch=10 n=36 v=97
26480 On ch=10 n=36 v=0
26496 On ch=10 n=36 v=120
26496 On ch=10 n=42 v=109
26514 On ch=10 n=42 v=0
26544 On ch=10 n=42 v=84
26562 On ch=10 n=36 v=0
26564 On ch=10 n=42 v=0
26568 On ch=10 n=36 v=92
26592 On ch=10 n=42 v=86
26605 On ch=10 n=42 v=0
26612 On ch=10 n=36 v=0
26616 On ch=10 n=38 v=107
26640 On ch=10 n=42 v=96
26662 On ch=10 n=38 v=0
26662 On ch=10 n=42 v=0
26664 On ch=10 n=36 v=88
26678 On ch=10 n=36 v=0
26688 On ch=10 n=42 v=100
26688 On ch=10 n=36 v=120
26714 On ch=10 n=42 v=0
26736 On ch=10 n=42 v=92
26755 On ch=10 n=36 v=0
26757 On ch=10 n=42 v=0
26760 On ch=10 n=36 v=90
26784 On ch=10 n=42 v=89
26791 On ch=10 n=36 v=0
26796 On ch=10 n=42 v=0
26808 On ch=10 n=37 v=119
26832 On ch=10 n=42 v=104
26838 On ch=10 n=37 v=0
26848 On ch=10 n=42 v=0
26856 On ch=10 n=36 v=73
26868 On ch=10 n=36 v=0
26880 On ch=10 n=42 v=89
26880 On ch=10 n=36 v=120
26894 On ch=10 n=42 v=0
26928 On ch=10 n=42 v=86
26937 On ch=10 n=36 v=0
26944 On ch=10 n=42 v=0
26952 On ch=10 n=37 v=114
26976 On ch=10 n=42 v=96
26992 On ch=10 n=42 v=0
27024 On ch=10 n=42 v=100
27028 On ch=10 n=37 v=0
27038 On ch=10 n=42 v=0
27048 On ch=10 n=36 v=97
27056 On ch=10 n=36 v=0
27072 On ch=10 n=42 v=100
27072 On ch=10 n=36 v=120
27098 On ch=10 n=42 v=0
27120 On ch=10 n=42 v=92
27139 On ch=10 n=36 v=0
27141 On ch=10 n=42 v=0
27144 On ch=10 n=36 v=90
27168 On ch=10 n=42 v=89
27175 On ch=10 n=36 v=0
27180 On ch=10 n=42 v=0
27192 On ch=10 n=37 v=119
27216 On ch=10 n=42 v=104
27222 On ch=10 n=37 v=0
27232 On ch=10 n=42 v=0
27240 On ch=10 n=36 v=73
27252 On ch=10 n=36 v=0
27264 On ch=10 n=36 v=120
27264 On ch=10 n=42 v=109
27282 On ch=10 n=42 v=0
27312 On ch=10 n=42 v=84
27330 On ch=10 n=36 v=0
27332 On ch=10 n=42 v=0
27336 On ch=10 n=36 v=92
27360 On ch=10 n=42 v=86
27373 On ch=10 n=42 v=0
27380 On ch=10 n=36 v=0
27384 On ch=10 n=38 v=107
27408 On ch=10 n=42 v=96
27430 On ch=10 n=38 v=0
27430 On ch=10 n=42 v=0
27432 On ch=10 n=36 v=88
27446 On ch=10 n=36 v=0
27456 On ch=10 n=51 v=96
27456 On ch=10 n=36 v=120
27456 On ch=10 n=37 v=74
27476 On ch=10 n=51 v=0
27486 On ch=10 n=37 v=0
27504 On ch=10 n=51 v=109
27516 On ch=10 n=36 v=0
27523 On ch=10 n=51 v=0
27528 On ch=10 n=38 v=110
27552 On ch=10 n=51 v=109
27561 On ch=10 n=38 v=0
27565 On ch=10 n=51 v=0
27576 On ch=10 n=38 v=110
27600 On ch=10 n=51 v=104
27611 On ch=10 n=51 v=0
27623 On ch=10 n=38 v=0
27624 On ch=10 n=36 v=113
27638 On ch=10 n=36 v=0
27648 On ch=10 n=42 v=89
27648 On ch=10 n=36 v=120
27662 On ch=10 n=42 v=0
27696 On ch=10 n=42 v=86
27705 On ch=10 n=36 v=0
27712 On ch=10 n=42 v=0
27720 On ch=10 n=37 v=114
27744 On ch=10 n=42 v=96
27760 On ch=10 n=42 v=0
27792 On ch=10 n=42 v=100
27796 On ch=10 n=37 v=0
27806 On ch=10 n=42 v=0
27816 On ch=10 n=36 v=97
27824 On ch=10 n=36 v=0
27840 On ch=10 n=36 v=120
27840 On ch=10 n=42 v=109
27858 On ch=10 n=42 v=0
27888 On ch=10 n=42 v=84
27906 On ch=10 n=36 v=0
27908 On ch=10 n=42 v=0
27912 On ch=10 n=36 v=92
27936 On ch=10 n=42 v=86
27949 On ch=10 n=42 v=0
27956 On ch=10 n=36 v=0
27960 On ch=10 n=38 v=107
27984 On ch=10 n=42 v=96
28006 On ch=10 n=38 v=0
28006 On ch=10 n=42 v=0
28008 On ch=10 n=36 v=88
28022 On ch=10 n=36 v=0
28032 On ch=10 n=42 v=100
28032 On ch=10 n=36 v=120
28058 On ch=10 n=42 v=0
28080 On ch=10 n=42 v=92
28099 On ch=10 n=36 v=0
28101 On ch=10 n=42 v=0
28104 On ch=10 n=36 v=90
28128 On ch=10 n=42 v=89
28135 On ch=10 n=36 v=0
28140 On ch=10 n=42 v=0
28152 On ch=10 n=37 v=119
28176 On ch=10 n=42 v=104
28182 On ch=10 n=37 v=0
28192 On ch=10 n=42 v=0
28200 On ch=10 n=36 v=73
28212 On ch=10 n=36 v=0
28224 On ch=10 n=36 v=120
28224 On ch=10 n=42 v=109
28242 On ch=10 n=42 v=0
28272 On ch=10 n=42 v=84
28290 On ch=10 n=36 v=0
28292 On ch=10 n=42 v=0
28296 On ch=10 n=36 v=92
28320 On ch=10 n=42 v=86
28333 On ch=10 n=42 v=0
28340 On ch=10 n=36 v=0
28344 On ch=10 n=38 v=107
28368 On ch=10 n=42 v=96
28390 On ch=10 n=38 v=0
28390 On ch=10 n=42 v=0
28392 On ch=10 n=36 v=88
28406 On ch=10 n=36 v=0
28416 On ch=10 n=42 v=100
28416 On ch=10 n=36 v=120
28442 On ch=10 n=42 v=0
28464 On ch=10 n=42 v=92
28483 On ch=10 n=36 v=0
28485 On ch=10 n=42 v=0
28488 On ch=10 n=36 v=90
28512 On ch=10 n=42 v=89
28519 On ch=10 n=36 v=0
28524 On ch=10 n=42 v=0
28536 On ch=10 n=37 v=119
28560 On ch=10 n=42 v=104
28566 On ch=10 n=37 v=0
28576 On ch=10 n=42 v=0
28584 On ch=10 n=36 v=73
28596 On ch=10 n=36 v=0
28608 On ch=10 n=36 v=120
28608 On ch=10 n=42 v=109
28626 On ch=10 n=42 v=0
28656 On ch=10 n=42 v=84
28674 On ch=10 n=36 v=0
28676 On ch=10 n=42 v=0
28680 On ch=10 n=36 v=92
28704 On ch=10 n=42 v=86
28717 On ch=10 n=42 v=0
28724 On ch=10 n=36 v=0
28728 On ch=10 n=38 v=107
28752 On ch=10 n=42 v=96
28774 On ch=10 n=38 v=0
28774 On ch=10 n=42 v=0
28776 On ch=10 n=36 v=88
28790 On ch=10 n=36 v=0
28800 On ch=10 n=36 v=120
28800 On ch=10 n=42 v=109
28818 On ch=10 n=42 v=0
28848 On ch=10 n=42 v=84
28866 On ch=10 n=36 v=0
28868 On ch=10 n=42 v=0
28872 On ch=10 n=36 v=92
28896 On ch=10 n=42 v=86
28909 On ch=10 n=42 v=0
28916 On ch=10 n=36 v=0
28920 On ch=10 n=38 v=107
28944 On ch=10 n=42 v=96
28966 On ch=10 n=38 v=0
28966 On ch=10 n=42 v=0
28968 On ch=10 n=36 v=88
28982 On ch=10 n=36 v=0
28992 On ch=10 n=51 v=96
28992 On ch=10 n=36 v=120
28992 On ch=10 n=37 v=74
29012 On ch=10 n=51 v=0
29022 On ch=10 n=37 v=0
29040 On ch=10 n=51 v=109
29052 On ch=10 n=36 v=0
29059 On ch=10 n=51 v=0
29064 On ch=10 n=38 v=110
29088 On ch=10 n=51 v=109
29097 On ch=10 n=38 v=0
29101 On ch=10 n=51 v=0
29112 On ch=10 n=38 v=110
29136 On ch=10 n=51 v=104
29147 On ch=10 n=51 v=0
29159 On ch=10 n=38 v=0
29160 On ch=10 n=36 v=113
29174 On ch=10 n=36 v=0
29184 On ch=10 n=42 v=89
29184 On ch=10 n=36 v=120
29198 On ch=10 n=42 v=0
29232 On ch=10 n=42 v=86
29241 On ch=10 n=36 v=0
29248 On ch=10 n=42 v=0
29256 On ch=10 n=37 v=114
29280 On ch=10 n=42 v=96
29296 On ch=10 n=42 v=0
29328 On ch=10 n=42 v=100
29332 On ch=10 n=37 v=0
29342 On ch=10 n=42 v=0
29352 On ch=10 n=36 v=97
29360 On ch=10 n=36 v=0
29376 On ch=10 n=36 v=120
29376 On ch=10 n=42 v=109
29394 On ch=10 n=42 v=0
29424 On ch=10 n=42 v=84
29442 On ch=10 n=36 v=0
29444 On ch=10 n=42 v=0
29448 On ch=10 n=36 v=92
29472 On ch=10 n=42 v=86
29485 On ch=10 n=42 v=0
29492 On ch=10 n=36 v=0
29496 On ch=10 n=38 v=107
29520 On ch=10 n=42 v=96
29542 On ch=10 n=38 v=0
29542 On ch=10 n=42 v=0
29544 On ch=10 n=36 v=88
29558 On ch=10 n=36 v=0
29568 On ch=10 n=36 v=120
29568 On ch=10 n=42 v=109
29586 On ch=10 n=42 v=0
29616 On ch=10 n=42 v=84
29634 On ch=10 n=36 v=0
29636 On ch=10 n=42 v=0
29640 On ch=10 n=36 v=92
29664 On ch=10 n=42 v=86
29677 On ch=10 n=42 v=0
29684 On ch=10 n=36 v=0
29688 On ch=10 n=38 v=107
29712 On ch=10 n=42 v=96
29734 On ch=10 n=38 v=0
29734 On ch=10 n=42 v=0
29736 On ch=10 n=36 v=88
29750 On ch=10 n=36 v=0
29760 On ch=10 n=42 v=89
29760 On ch=10 n=36 v=120
29774 On ch=10 n=42 v=0
29808 On ch=10 n=42 v=86
29817 On ch=10 n=36 v=0
29824 On ch=10 n=42 v=0
29832 On ch=10 n=37 v=114
29856 On ch=10 n=42 v=96
29872 On ch=10 n=42 v=0
29904 On ch=10 n=42 v=100
29908 On ch=10 n=37 v=0
29918 On ch=10 n=42 v=0
29928 On ch=10 n=36 v=97
29936 On ch=10 n=36 v=0
29952 On ch=10 n=42 v=100
29952 On ch=10 n=36 v=120
29978 On ch=10 n=42 v=0
30000 On ch=10 n=42 v=92
30019 On ch=10 n=36 v=0
30021 On ch=10 n=42 v=0
30024 On ch=10 n=36 v=90
30048 On ch=10 n=42 v=89
30055 On ch=10 n=36 v=0
30060 On ch=10 n=42 v=0
30072 On ch=10 n=37 v=119
30096 On ch=10 n=42 v=104
30102 On ch=10 n=37 v=0
30112 On ch=10 n=42 v=0
30120 On ch=10 n=36 v=73
30132 On ch=10 n=36 v=0
30144 On ch=10 n=42 v=89
30144 On ch=10 n=36 v=120
30158 On ch=10 n=42 v=0
30192 On ch=10 n=42 v=86
30201 On ch=10 n=36 v=0
30208 On ch=10 n=42 v=0
30216 On ch=10 n=37 v=114
30240 On ch=10 n=42 v=96
30256 On ch=10 n=42 v=0
30288 On ch=10 n=42 v=100
30292 On ch=10 n=37 v=0
30302 On ch=10 n=42 v=0
30312 On ch=10 n=36 v=97
30320 On ch=10 n=36 v=0
30336 On ch=10 n=42 v=89
30336 On ch=10 n=36 v=120
30350 On ch=10 n=42 v=0
30384 On ch=10 n=42 v=86
30393 On ch=10 n=36 v=0
30400 On ch=10 n=42 v=0
30408 On ch=10 n=37 v=114
30432 On ch=10 n=42 v=96
30448 On ch=10 n=42 v=0
30480 On ch=10 n=42 v=100
30484 On ch=10 n=37 v=0
30494 On ch=10 n=42 v=0
30504 On ch=10 n=36 v=97
30512 On ch=10 n=36 v=0
30528 On ch=10 n=51 v=96
30528 On ch=10 n=36 v=120
30528 On ch=10 n=37 v=74
30548 On ch=10 n=51 v=0
30558 On ch=10 n=37 v=0
30576 On ch=10 n=51 v=109
30588 On ch=10 n=36 v=0
30595 On ch=10 n=51 v=0
30600 On ch=10 n=38 v=110
30624 On ch=10 n=51 v=109
30633 On ch=10 n=38 v=0
30637 On ch=10 n=51 v=0
30648 On ch=10 n=38 v=110
30672 On ch=10 n=51 v=104
30683 On ch=10 n=51 v=0
30695 On ch=10 n=38 v=0
30696 On ch=10 n=36 v=113
30710 On ch=10 n=36 v=0
30720 On ch=10 n=42 v=89
30720 On ch=10 n=36 v=120
30734 On ch=10 n=42 v=0
30768 On ch=10 n=42 v=86
30777 On ch=10 n=36 v=0
30784 On ch=10 n=42 v=0
30792 On ch=10 n=37 v=114
30816 On ch=10 n=42 v=96
30832 On ch=10 n=42 v=0
30864 On ch=10 n=42 v=100
30868 On ch=10 n=37 v=0
30878 On ch=10 n=42 v=0
30888 On ch=10 n=36 v=97
30896 On ch=10 n=36 v=0
30912 On ch=10 n=42 v=89
30912 On ch=10 n=36 v=120
30926 On ch=10 n=42 v=0
30960 On ch=10 n=42 v=86
30969 On ch=10 n=36 v=0
30976 On ch=10 n=42 v=0
30984 On ch=10 n=37 v=114
31008 On ch=10 n=42 v=96
31024 On ch=10 n=42 v=0
31056 On ch=10 n=42 v=100
31060 On ch=10 n=37 v=0
31070 On ch=10 n=42 v=0
31080 On ch=10 n=36 v=97
31088 On ch=10 n=36 v=0
31104 On ch=10 n=36 v=120
31104 On ch=10 n=42 v=109
31122 On ch=10 n=42 v=0
31152 On ch=10 n=42 v=84
31170 On ch=10 n=36 v=0
31172 On ch=10 n=42 v=0
31176 On ch=10 n=36 v=92
31200 On ch=10 n=42 v=86
31213 On ch=10 n=42 v=0
31220 On ch=10 n=36 v=0
31224 On ch=10 n=38 v=107
31248 On ch=10 n=42 v=96
31270 On ch=10 n=38 v=0
31270 On ch=10 n=42 v=0
31272 On ch=10 n=36 v=88
31286 On ch=10 n=36 v=0
31296 On ch=10 n=42 v=89
31296 On ch=10 n=36 v=120
31310 On ch=10 n=42 v=0
31344 On ch=10 n=42 v=86
31353 On ch=10 n=36 v=0
31360 On ch=10 n=42 v=0
31368 On ch=10 n=37 v=114
31392 On ch=10 n=42 v=96
31408 On ch=10 n=42 v=0
31440 On ch=10 n=42 v=100
31444 On ch=10 n=37 v=0
31454 On ch=10 n=42 v=0
31464 On ch=10 n=36 v=97
31472 On ch=10 n=36 v=0
31488 On ch=10 n=42 v=100
31488 On ch=10 n=36 v=120
31514 On ch=10 n=42 v=0
31536 On ch=10 n=42 v=92
31555 On ch=10 n=36 v=0
31557 On ch=10 n=42 v=0
31560 On ch=10 n=36 v=90
31584 On ch=10 n=42 v=89
31591 On ch=10 n=36 v=0
31596 On ch=10 n=42 v=0
31608 On ch=10 n=37 v=119
31632 On ch=10 n=42 v=104
31638 On ch=10 n=37 v=0
31648 On ch=10 n=42 v=0
31656 On ch=10 n=36 v=73
31668 On ch=10 n=36 v=0
31680 On ch=10 n=36 v=120
31680 On ch=10 n=42 v=109
31698 On ch=10 n=42 v=0
31728 On ch=10 n=42 v=84
31746 On ch=10 n=36 v=0
31748 On ch=10 n=42 v=0
31752 On ch=10 n=36 v=92
31776 On ch=10 n=42 v=86
31789 On ch=10 n=42 v=0
31796 On ch=10 n=36 v=0
31800 On ch=10 n=38 v=107
31824 On ch=10 n=42 v=96
31846 On ch=10 n=38 v=0
31846 On ch=10 n=42 v=0
31848 On ch=10 n=36 v=88
31862 On ch=10 n=36 v=0
31872 On ch=10 n=42 v=100
31872 On ch=10 n=36 v=120
31898 On ch=10 n=42 v=0
31920 On ch=10 n=42 v=92
31939 On ch=10 n=36 v=0
31941 On ch=10 n=42 v=0
31944 On ch=10 n=36 v=90
31968 On ch=10 n=42 v=89
31975 On ch=10 n=36 v=0
31980 On ch=10 n=42 v=0
31992 On ch=10 n=37 v=119
32016 On ch=10 n=42 v=104
32022 On ch=10 n=37 v=0
32032 On ch=10 n=42 v=0
32040 On ch=10 n=36 v=73
32052 On ch=10 n=36 v=0
32064 On ch=10 n=51 v=89
32072 On ch=10 n=51 v=0
32076 On ch=10 n=51 v=56
32083 On ch=10 n=51 v=0
32088 On ch=10 n=51 v=71
32095 On ch=10 n=51 v=0
32100 On ch=10 n=51 v=71
32109 On ch=10 n=51 v=0
32112 On ch=10 n=51 v=81
32117 On ch=10 n=51 v=0
32256 On ch=10 n=36 v=120
32256 On ch=10 n=42 v=109
32274 On ch=10 n=42 v=0
32304 On ch=10 n=42 v=84
32322 On ch=10 n=36 v=0
32324 On ch=10 n=42 v=0
32328 On ch=10 n=36 v=92
32352 On ch=10 n=42 v=86
32365 On ch=10 n=42 v=0
32372 On ch=10 n=36 v=0
32376 On ch=10 n=38 v=107
32400 On ch=10 n=42 v=96
32422 On ch=10 n=38 v=0
32422 On ch=10 n=42 v=0
32424 On ch=10 n=36 v=88
32438 On ch=10 n=36 v=0
32448 On ch=10 n=36 v=120
32448 On ch=10 n=42 v=109
32466 On ch=10 n=42 v=0
32496 On ch=10 n=42 v=84
32514 On ch=10 n=36 v=0
32516 On ch=10 n=42 v=0
32520 On ch=10 n=36 v=92
32544 On ch=10 n=42 v=86
32557 On ch=10 n=42 v=0
32564 On ch=10 n=36 v=0
32568 On ch=10 n=38 v=107
32592 On ch=10 n=42 v=96
32614 On ch=10 n=38 v=0
32614 On ch=10 n=42 v=0
32616 On ch=10 n=36 v=88
32630 On ch=10 n=36 v=0
32640 On ch=10 n=42 v=89
32640 On ch=10 n=36 v=120
32654 On ch=10 n=42 v=0
32688 On ch=10 n=42 v=86
32697 On ch=10 n=36 v=0
32704 On ch=10 n=42 v=0
32712 On ch=10 n=37 v=114
32736 On ch=10 n=42 v=96
32752 On ch=10 n=42 v=0
32784 On ch=10 n=42 v=100
32788 On ch=10 n=37 v=0
32798 On ch=10 n=42 v=0
32808 On ch=10 n=36 v=97
32816 On ch=10 n=36 v=0
32832 On ch=10 n=36 v=120
32832 On ch=10 n=42 v=109
32850 On ch=10 n=42 v=0
32880 On ch=10 n=42 v=84
32898 On ch=10 n=36 v=0
32900 On ch=10 n=42 v=0
32904 On ch=10 n=36 v=92
32928 On ch=10 n=42 v=86
32941 On ch=10 n=42 v=0
32948 On ch=10 n=36 v=0
32952 On ch=10 n=38 v=107
32976 On ch=10 n=42 v=96
32998 On ch=10 n=38 v=0
32998 On ch=10 n=42 v=0
33000 On ch=10 n=36 v=88
33014 On ch=10 n=36 v=0
33024 On ch=10 n=36 v=120
33024 On ch=10 n=42 v=109
33042 On ch=10 n=42 v=0
33072 On ch=10 n=42 v=84
33090 On ch=10 n=36 v=0
33092 On ch=10 n=42 v=0
33096 On ch=10 n=36 v=92
33120 On ch=10 n=42 v=86
33133 On ch=10 n=42 v=0
33140 On ch=10 n=36 v=0
33144 On ch=10 n=38 v=107
33168 On ch=10 n=42 v=96
33190 On ch=10 n=38 v=0
33190 On ch=10 n=42 v=0
33192 On ch=10 n=36 v=88
33206 On ch=10 n=36 v=0
33216 On ch=10 n=42 v=100
33216 On ch=10 n=36 v=120
33242 On ch=10 n=42 v=0
33264 On ch=10 n=42 v=92
33283 On ch=10 n=36 v=0
33285 On ch=10 n=42 v=0
33288 On ch=10 n=36 v=90
33312 On ch=10 n=42 v=89
33319 On ch=10 n=36 v=0
33324 On ch=10 n=42 v=0
33336 On ch=10 n=37 v=119
33360 On ch=10 n=42 v=104
33366 On ch=10 n=37 v=0
33376 On ch=10 n=42 v=0
33384 On ch=10 n=36 v=73
33396 On ch=10 n=36 v=0
33408 On ch=10 n=42 v=89
33408 On ch=10 n=36 v=120
33422 On ch=10 n=42 v=0
33456 On ch=10 n=42 v=86
33465 On ch=10 n=36 v=0
33472 On ch=10 n=42 v=0
33480 On ch=10 n=37 v=114
33504 On ch=10 n=42 v=96
33520 On ch=10 n=42 v=0
33552 On ch=10 n=42 v=100
33556 On ch=10 n=37 v=0
33566 On ch=10 n=42 v=0
33576 On ch=10 n=36 v=97
33584 On ch=10 n=36 v=0
33600 On ch=10 n=51 v=96
33600 On ch=10 n=36 v=120
33600 On ch=10 n=37 v=74
33620 On ch=10 n=51 v=0
33630 On ch=10 n=37 v=0
33648 On ch=10 n=51 v=109
33660 On ch=10 n=36 v=0
33667 On ch=10 n=51 v=0
33672 On ch=10 n=38 v=110
33696 On ch=10 n=51 v=109
33705 On ch=10 n=38 v=0
33709 On ch=10 n=51 v=0
33720 On ch=10 n=38 v=110
33744 On ch=10 n=51 v=104
33755 On ch=10 n=51 v=0
33767 On ch=10 n=38 v=0
33768 On ch=10 n=36 v=113
33782 On ch=10 n=36 v=0
33792 On ch=10 n=36 v=120
33792 On ch=10 n=42 v=109
33810 On ch=10 n=42 v=0
33840 On ch=10 n=42 v=84
33858 On ch=10 n=36 v=0
33860 On ch=10 n=42 v=0
33864 On ch=10 n=36 v=92
33888 On ch=10 n=42 v=86
33901 On ch=10 n=42 v=0
33908 On ch=10 n=36 v=0
33912 On ch=10 n=38 v=107
33936 On ch=10 n=42 v=96
33958 On ch=10 n=38 v=0
33958 On ch=10 n=42 v=0
33960 On ch=10 n=36 v=88
33974 On ch=10 n=36 v=0
33984 On ch=10 n=36 v=120
33984 On ch=10 n=42 v=109
34002 On ch=10 n=42 v=0
34032 On ch=10 n=42 v=84
34050 On ch=10 n=36 v=0
34052 On ch=10 n=42 v=0
34056 On ch=10 n=36 v=92
34080 On ch=10 n=42 v=86
34093 On ch=10 n=42 v=0
34100 On ch=10 n=36 v=0
34104 On ch=10 n=38 v=107
34128 On ch=10 n=42 v=96
34150 On ch=10 n=38 v=0
34150 On ch=10 n=42 v=0
34152 On ch=10 n=36 v=88
34166 On ch=10 n=36 v=0
34176 On ch=10 n=42 v=89
34176 On ch=10 n=36 v=120
34190 On ch=10 n=42 v=0
34224 On ch=10 n=42 v=86
34233 On ch=10 n=36 v=0
34240 On ch=10 n=42 v=0
34248 On ch=10 n=37 v=114
34272 On ch=10 n=42 v=96
34288 On ch=10 n=42 v=0
34320 On ch=10 n=42 v=100
34324 On ch=10 n=37 v=0
34334 On ch=10 n=42 v=0
34344 On ch=10 n=36 v=97
34352 On ch=10 n=36 v=0
34368 On ch=10 n=36 v=120
34368 On ch=10 n=42 v=109
34386 On ch=10 n=42 v=0
34416 On ch=10 n=42 v=84
34434 On ch=10 n=36 v=0
34436 On ch=10 n=42 v=0
34440 On ch=10 n=36 v=92
34464 On ch=10 n=42 v=86
34477 On ch=10 n=42 v=0
34484 On ch=10 n=36 v=0
34488 On ch=10 n=38 v=107
34512 On ch=10 n=42 v=96
34534 On ch=10 n=38 v=0
34534 On ch=10 n=42 v=0
34536 On ch=10 n=36 v=88
34550 On ch=10 n=36 v=0
34560 On ch=10 n=36 v=120
34560 On ch=10 n=42 v=109
34578 On ch=10 n=42 v=0
34608 On ch=10 n=42 v=84
34626 On ch=10 n=36 v=0
34628 On ch=10 n=42 v=0
34632 On ch=10 n=36 v=92
34656 On ch=10 n=42 v=86
34669 On ch=10 n=42 v=0
34676 On ch=10 n=36 v=0
34680 On ch=10 n=38 v=107
34704 On ch=10 n=42 v=96
34726 On ch=10 n=38 v=0
34726 On ch=10 n=42 v=0
34728 On ch=10 n=36 v=88
34742 On ch=10 n=36 v=0
34752 On ch=10 n=42 v=89
34752 On ch=10 n=36 v=120
34766 On ch=10 n=42 v=0
34800 On ch=10 n=42 v=86
34809 On ch=10 n=36 v=0
34816 On ch=10 n=42 v=0
34824 On ch=10 n=37 v=114
34848 On ch=10 n=42 v=96
34864 On ch=10 n=42 v=0
34896 On ch=10 n=42 v=100
34900 On ch=10 n=37 v=0
34910 On ch=10 n=42 v=0
34920 On ch=10 n=36 v=97
34928 On ch=10 n=36 v=0
34944 On ch=10 n=42 v=89
34944 On ch=10 n=36 v=120
34958 On ch=10 n=42 v=0
34992 On ch=10 n=42 v=86
35001 On ch=10 n=36 v=0
35008 On ch=10 n=42 v=0
35016 On ch=10 n=37 v=114
35040 On ch=10 n=42 v=96
35056 On ch=10 n=42 v=0
35088 On ch=10 n=42 v=100
35092 On ch=10 n=37 v=0
35102 On ch=10 n=42 v=0
35112 On ch=10 n=36 v=97
35120 On ch=10 n=36 v=0
35136 On ch=10 n=51 v=89
35144 On ch=10 n=51 v=0
35148 On ch=10 n=51 v=56
35155 On ch=10 n=51 v=0
35160 On ch=10 n=51 v=71
35167 On ch=10 n=51 v=0
35172 On ch=10 n=51 v=71
35181 On ch=10 n=51 v=0
35184 On ch=10 n=51 v=81
35189 On ch=10 n=51 v=0
35328 On ch=10 n=42 v=100
35328 On ch=10 n=36 v=120
35354 On ch=10 n=42 v=0
35376 On ch=10 n=42 v=92
35395 On ch=10 n=36 v=0
35397 On ch=10 n=42 v=0
35400 On ch=10 n=36 v=90
35424 On ch=10 n=42 v=89
35431 On ch=10 n=36 v=0
35436 On ch=10 n=42 v=0
35448 On ch=10 n=37 v=119
35472 On ch=10 n=42 v=104
35478 On ch=10 n=37 v=0
35488 On ch=10 n=42 v=0
35496 On ch=10 n=36 v=73
35508 On ch=10 n=36 v=0
35520 On ch=10 n=42 v=89
35520 On ch=10 n=36 v=120
35534 On ch=10 n=42 v=0
35568 On ch=10 n=42 v=86
35577 On ch=10 n=36 v=0
35584 On ch=10 n=42 v=0
35592 On ch=10 n=37 v=114
35616 On ch=10 n=42 v=96
35632 On ch=10 n=42 v=0
35664 On ch=10 n=42 v=100
35668 On ch=10 n=37 v=0
35678 On ch=10 n=42 v=0
35688 On ch=10 n=36 v=97
35696 On ch=10 n=36 v=0
35712 On ch=10 n=36 v=120
35712 On ch=10 n=42 v=109
35730 On ch=10 n=42 v=0
35760 On ch=10 n=42 v=84
35778 On ch=10 n=36 v=0
35780 On ch=10 n=42 v=0
35784 On ch=10 n=36 v=92
35808 On ch=10 n=42 v=86
35821 On ch=10 n=42 v=0
35828 On ch=10 n=36 v=0
35832 On ch=10 n=38 v=107
35856 On ch=10 n=42 v=96
35878 On ch=10 n=38 v=0
35878 On ch=10 n=42 v=0
35880 On ch=10 n=36 v=88
35894 On ch=10 n=36 v=0
35904 On ch=10 n=42 v=89
35904 On ch=10 n=36 v=120
35918 On ch=10 n=42 v=0
35952 On ch=10 n=42 v=86
35961 On ch=10 n=36 v=0
35968 On ch=10 n=42 v=0
35976 On ch=10 n=37 v=114
36000 On ch=10 n=42 v=96
36016 On ch=10 n=42 v=0
36048 On ch=10 n=42 v=100
36052 On ch=10 n=37 v=0
36062 On ch=10 n=42 v=0
36072 On ch=10 n=36 v=97
36080 On ch=10 n=36 v=0
36096 On ch=10 n=36 v=120
36096 On ch=10 n=42 v=109
36114 On ch=10 n=42 v=0
36144 On ch=10 n=42 v=84
36162 On ch=10 n=36 v=0
36164 On ch=10 n=42 v=0
36168 On ch=10 n=36 v=92
36192 On ch=10 n=42 v=86
36205 On ch=10 n=42 v=0
36212 On ch=10 n=36 v=0
36216 On ch=10 n=38 v=107
36240 On ch=10 n=42 v=96
36262 On ch=10 n=38 v=0
36262 On ch=10 n=42 v=0
36264 On ch=10 n=36 v=88
36278 On ch=10 n=36 v=0
36288 On ch=10 n=42 v=100
36288 On ch=10 n=36 v=120
36314 On ch=10 n=42 v=0
36336 On ch=10 n=42 v=92
36355 On ch=10 n=36 v=0
36357 On ch=10 n=42 v=0
36360 On ch=10 n=36 v=90
36384 On ch=10 n=42 v=89
36391 On ch=10 n=36 v=0
36396 On ch=10 n=42 v=0
36408 On ch=10 n=37 v=119
36432 On ch=10 n=42 v=104
36438 On ch=10 n=37 v=0
36448 On ch=10 n=42 v=0
36456 On ch=10 n=36 v=73
36468 On ch=10 n=36 v=0
36480 On ch=10 n=42 v=89
36480 On ch=10 n=36 v=120
36494 On ch=10 n=42 v=0
36528 On ch=10 n=42 v=86
36537 On ch=10 n=36 v=0
36544 On ch=10 n=42 v=0
36552 On ch=10 n=37 v=114
36576 On ch=10 n=42 v=96
36592 On ch=10 n=42 v=0
36624 On ch=10 n=42 v=100
36628 On ch=10 n=37 v=0
36638 On ch=10 n=42 v=0
36648 On ch=10 n=36 v=97
36656 On ch=10 n=36 v=0
36672 On ch=10 n=51 v=89
36680 On ch=10 n=51 v=0
36684 On ch=10 n=51 v=56
36691 On ch=10 n=51 v=0
36696 On ch=10 n=51 v=71
36703 On ch=10 n=51 v=0
36708 On ch=10 n=51 v=71
36717 On ch=10 n=51 v=0
36720 On ch=10 n=51 v=81
36725 On ch=10 n=51 v=0
36864 On ch=10 n=42 v=89
36864 On ch=10 n=36 v=120
36878 On ch=10 n=42 v=0
36912 On ch=10 n=42 v=86
36921 On ch=10 n=36 v=0
36928 On ch=10 n=42 v=0
36936 On ch=10 n=37 v=114
36960 On ch=10 n=42 v=96
36976 On ch=10 n=42 v=0
37008 On ch=10 n=42 v=100
37012 On ch=10 n=37 v=0
37022 On ch=10 n=42 v=0
37032 On ch=10 n=36 v=97
37040 On ch=10 n=36 v=0
37056 On ch=10 n=36 v=120
37056 On ch=10 n=42 v=109
37074 On ch=10 n=42 v=0
37104 On ch=10 n=42 v=84
37122 On ch=10 n=36 v=0
37124 On ch=10 n=42 v=0
37128 On ch=10 n=36 v=92
37152 On ch=10 n=42 v=86
37165 On ch=10 n=42 v=0
37172 On ch=10 n=36 v=0
37176 On ch=10 n=38 v=107
37200 On ch=10 n=42 v=96
37222 On ch=10 n=38 v=0
37222 On ch=10 n=42 v=0
37224 On ch=10 n=36 v=88
37238 On ch=10 n=36 v=0
37248 On ch=10 n=36 v=120
37248 On ch=10 n=42 v=109
37266 On ch=10 n=42 v=0
37296 On ch=10 n=42 v=84
37314 On ch=10 n=36 v=0
37316 On ch=10 n=42 v=0
37320 On ch=10 n=36 v=92
37344 On ch=10 n=42 v=86
37357 On ch=10 n=42 v=0
37364 On ch=10 n=36 v=0
37368 On ch=10 n=38 v=107
37392 On ch=10 n=42 v=96
37414 On ch=10 n=38 v=0
37414 On ch=10 n=42 v=0
37416 On ch=10 n=36 v=88
37430 On ch=10 n=36 v=0
37440 On ch=10 n=42 v=100
37440 On ch=10 n=36 v=120
37466 On ch=10 n=42 v=0
37488 On ch=10 n=42 v=92
37507 On ch=10 n=36 v=0
37509 On ch=10 n=42 v=0
37512 On ch=10 n=36 v=90
37536 On ch=10 n=42 v=89
37543 On ch=10 n=36 v=0
37548 On ch=10 n=42 v=0
37560 On ch=10 n=37 v=119
37584 On ch=10 n=42 v=104
37590 On ch=10 n=37 v=0
37600 On ch=10 n=42 v=0
37608 On ch=10 n=36 v=73
37620 On ch=10 n=36 v=0
37632 On ch=10 n=42 v=100
37632 On ch=10 n=36 v=120
37658 On ch=10 n=42 v=0
37680 On ch=10 n=42 v=92
37699 On ch=10 n=36 v=0
37701 On ch=10 n=42 v=0
37704 On ch=10 n=36 v=90
37728 On ch=10 n=42 v=89
37735 On ch=10 n=36 v=0
37740 On ch=10 n=42 v=0
37752 On ch=10 n=37 v=119
37776 On ch=10 n=42 v=104
37782 On ch=10 n=37 v=0
37792 On ch=10 n=42 v=0
37800 On ch=10 n=36 v=73
37812 On ch=10 n=36 v=0
37824 On ch=10 n=42 v=100
37824 On ch=10 n=36 v=120
37850 On ch=10 n=42 v=0
37872 On ch=10 n=42 v=92
37891 On ch=10 n=36 v=0
37893 On ch=10 n=42 v=0
37896 On ch=10 n=36 v=90
37920 On ch=10 n=42 v=89
37927 On ch=10 n=36 v=0
37932 On ch=10 n=42 v=0
37944 On ch=10 n=37 v=119
37968 On ch=10 n=42 v=104
37974 On ch=10 n=37 v=0
37984 On ch=10 n=42 v=0
37992 On ch=10 n=36 v=73
38004 On ch=10 n=36 v=0
38016 On ch=10 n=42 v=100
38016 On ch=10 n=36 v=120
38042 On ch=10 n=42 v=0
38064 On ch=10 n=42 v=92
38083 On ch=10 n=36 v=0
38085 On ch=10 n=42 v=0
38088 On ch=10 n=36 v=90
38112 On ch=10 n=42 v=89
38119 On ch=10 n=36 v=0
38124 On ch=10 n=42 v=0
38136 On ch=10 n=37 v=119
38160 On ch=10 n=42 v=104
38166 On ch=10 n=37 v=0
38176 On ch=10 n=42 v=0
38184 On ch=10 n=36 v=73
38196 On ch=10 n=36 v=0
38208 On ch=10 n=51 v=89
38216 On ch=10 n=51 v=0
38220 On ch=10 n=51 v=56
38227 On ch=10 n=51 v=0
38232 On ch=10 n=51 v=71
38239 On ch=10 n=51 v=0
38244 On ch=10 n=51 v=71
38253 On ch=10 n=51 v=0
38256 On ch=10 n=51 v=81
38261 On ch=10 n=51 v=0
38400 On ch=10 n=36 v=120
38400 On ch=10 n=42 v=109
38418 On ch=10 n=42 v=0
38448 On ch=10 n=42 v=84
38466 On ch=10 n=36 v=0
38468 On ch=10 n=42 v=0
38472 On ch=10 n=36 v=92
38496 On ch=10 n=42 v=86
38509 On ch=10 n=42 v=0
38516 On ch=10 n=36 v=0
38520 On ch=10 n=38 v=107
38544 On ch=10 n=42 v=96
38566 On ch=10 n=38 v=0
38566 On ch=10 n=42 v=0
38568 On ch=10 n=36 v=88
38582 On ch=10 n=36 v=0
38592 On ch=10 n=36 v=120
38592 On ch=10 n=42 v=109
38610 On ch=10 n=42 v=0
38640 On ch=10 n=42 v=84
38658 On ch=10 n=36 v=0
38660 On ch=10 n=42 v=0
38664 On ch=10 n=36 v=92
38688 On ch=10 n=42 v=86
38701 On ch=10 n=42 v=0
38708 On ch=10 n=36 v=0
38712 On ch=10 n=38 v=107
38736 On ch=10 n=42 v=96
38758 On ch=10 n=38 v=0
38758 On ch=10 n=42 v=0
38760 On ch=10 n=36 v=88
38774 On ch=10 n=36 v=0
38784 On ch=10 n=36 v=120
38784 On ch=10 n=42 v=109
38802 On ch=10 n=42 v=0
38832 On ch=10 n=42 v=84
38850 On ch=10 n=36 v=0
38852 On ch=10 n=42 v=0
38856 On ch=10 n=36 v=92
38880 On ch=10 n=42 v=86
38893 On ch=10 n=42 v=0
38900 On ch=10 n=36 v=0
38904 On ch=10 n=38 v=107
38928 On ch=10 n=42 v=96
38950 On ch=10 n=38 v=0
38950 On ch=10 n=42 v=0
38952 On ch=10 n=36 v=88
38966 On ch=10 n=36 v=0
38976 On ch=10 n=36 v=120
38976 On ch=10 n=42 v=109
38994 On ch=10 n=42 v=0
39024 On ch=10 n=42 v=84
39042 On ch=10 n=36 v=0
39044 On ch=10 n=42 v=0
39048 On ch=10 n=36 v=92
39072 On ch=10 n=42 v=86
39085 On ch=10 n=42 v=0
39092 On ch=10 n=36 v=0
39096 On ch=10 n=38 v=107
39120 On ch=10 n=42 v=96
39142 On ch=10 n=38 v=0
39142 On ch=10 n=42 v=0
39144 On ch=10 n=36 v=88
39158 On ch=10 n=36 v=0
39168 On ch=10 n=36 v=120
39168 On ch=10 n=42 v=109
39186 On ch=10 n=42 v=0
39216 On ch=10 n=42 v=84
39234 On ch=10 n=36 v=0
39236 On ch=10 n=42 v=0
39240 On ch=10 n=36 v=92
39264 On ch=10 n=42 v=86
39277 On ch=10 n=42 v=0
39284 On ch=10 n=36 v=0
39288 On ch=10 n=38 v=107
39312 On ch=10 n=42 v=96
39334 On ch=10 n=38 v=0
39334 On ch=10 n=42 v=0
39336 On ch=10 n=36 v=88
39350 On ch=10 n=36 v=0
39360 On ch=10 n=36 v=120
39360 On ch=10 n=42 v=109
39378 On ch=10 n=42 v=0
39408 On ch=10 n=42 v=84
39426 On ch=10 n=36 v=0
39428 On ch=10 n=42 v=0
39432 On ch=10 n=36 v=92
39456 On ch=10 n=42 v=86
39469 On ch=10 n=42 v=0
39476 On ch=10 n=36 v=0
39480 On ch=10 n=38 v=107
39504 On ch=10 n=42 v=96
39526 On ch=10 n=38 v=0
39526 On ch=10 n=42 v=0
39528 On ch=10 n=36 v=88
39542 On ch=10 n=36 v=0
39552 On ch=10 n=42 v=89
39552 On ch=10 n=36 v=120
39566 On ch=10 n=42 v=0
39600 On ch=10 n=42 v=86
39609 On ch=10 n=36 v=0
39616 On ch=10 n=42 v=0
39624 On ch=10 n=37 v=114
39648 On ch=10 n=42 v=96
39664 On ch=10 n=42 v=0
39696 On ch=10 n=42 v=100
39700 On ch=10 n=37 v=0
39710 On ch=10 n=42 v=0
39720 On ch=10 n=36 v=97
39728 On ch=10 n=36 v=0
39744 On ch=10 n=51 v=96
39744 On ch=10 n=36 v=120
39744 On ch=10 n=37 v=74
39764 On ch=10 n=51 v=0
39774 On ch=10 n=37 v=0
39792 On ch=10 n=51 v=109
39804 On ch=10 n=36 v=0
39811 On ch=10 n=51 v=0
39816 On ch=10 n=38 v=110
39840 On ch=10 n=51 v=109
39849 On ch=10 n=38 v=0
39853 On ch=10 n=51 v=0
39864 On ch=10 n=38 v=110
39888 On ch=10 n=51 v=104
39899 On ch=10 n=51 v=0
39911 On ch=10 n=38 v=0
39912 On ch=10 n=36 v=113
39926 On ch=10 n=36 v=0
39926 Meta TrkEnd
TrkEnd
