MFile 1 10 384
MTrk
0 TimeSig 4/4 24 8
0 Tempo 631570
213504 Meta TrkEnd
TrkEnd
MTrk
0 Meta TrkName "harpsichor"
374 Par ch=1 c=7 v=50
374 PrCh ch=1 p=6
3288 On ch=1 n=62 v=59
3685 On ch=1 n=61 v=65
3718 Off ch=1 n=62 v=59
3858 On ch=1 n=62 v=54
3859 Off ch=1 n=61 v=65
4461 On ch=1 n=57 v=49
4534 Off ch=1 n=62 v=54
5571 On ch=1 n=62 v=65
5947 On ch=1 n=61 v=60
5985 Off ch=1 n=62 v=65
6136 On ch=1 n=62 v=73
6177 Off ch=1 n=61 v=60
6443 Off ch=1 n=57 v=49
6909 On ch=1 n=65 v=65
6929 Off ch=1 n=62 v=73
7109 On ch=1 n=62 v=71
7200 Off ch=1 n=65 v=65
7431 Off ch=1 n=62 v=71
7444 On ch=1 n=61 v=60
7673 On ch=1 n=62 v=51
7695 Off ch=1 n=61 v=60
8106 On ch=1 n=45 v=101
8185 On ch=1 n=48 v=69
8204 Off ch=1 n=62 v=51
8310 On ch=1 n=49 v=62
8320 Off ch=1 n=45 v=101
8389 Off ch=1 n=48 v=69
8411 Off ch=1 n=49 v=62
8419 On ch=1 n=50 v=72
9332 Off ch=1 n=50 v=72
10219 On ch=1 n=62 v=66
10608 On ch=1 n=61 v=58
10664 Off ch=1 n=62 v=66
10770 On ch=1 n=62 v=57
10801 Off ch=1 n=61 v=58
11515 On ch=1 n=64 v=54
11515 On ch=1 n=65 v=59
11597 Off ch=1 n=62 v=57
11782 On ch=1 n=62 v=59
11931 Off ch=1 n=64 v=54
11950 Off ch=1 n=65 v=59
12288 Off ch=1 n=62 v=59
12288 Par ch=1 c=7 v=45
12307 On ch=1 n=61 v=70
12494 On ch=1 n=62 v=70
12534 Off ch=1 n=61 v=70
13053 On ch=1 n=65 v=65
13105 Off ch=1 n=62 v=70
13245 On ch=1 n=62 v=67
13248 On ch=1 n=62 v=85
13357 Off ch=1 n=62 v=67
13423 On ch=1 n=62 v=65
13468 Off ch=1 n=65 v=65
13623 On ch=1 n=61 v=70
13628 Off ch=1 n=62 v=85
13632 On ch=1 n=61 v=85
13677 Off ch=1 n=62 v=65
13803 On ch=1 n=62 v=66
13820 Off ch=1 n=61 v=85
13824 On ch=1 n=62 v=85
13843 Off ch=1 n=61 v=70
14525 Off ch=1 n=62 v=66
14588 Off ch=1 n=62 v=85
14784 On ch=1 n=62 v=85
15164 Off ch=1 n=62 v=85
15168 On ch=1 n=61 v=85
15356 Off ch=1 n=61 v=85
15360 On ch=1 n=62 v=85
15913 On ch=1 n=57 v=74
16124 Off ch=1 n=62 v=85
16539 Off ch=1 n=57 v=74
16896 On ch=1 n=69 v=85
16896 On ch=1 n=62 v=85
17084 Off ch=1 n=69 v=85
17088 On ch=1 n=69 v=85
17276 Off ch=1 n=69 v=85
17280 On ch=1 n=69 v=85
17468 Off ch=1 n=69 v=85
17472 On ch=1 n=69 v=85
18428 Off ch=1 n=62 v=85
18432 Off ch=1 n=69 v=85
18816 On ch=1 n=72 v=85
18816 On ch=1 n=60 v=85
19196 Off ch=1 n=72 v=85
19200 On ch=1 n=72 v=85
19388 Off ch=1 n=72 v=85
19392 On ch=1 n=71 v=85
19964 Off ch=1 n=71 v=85
19964 Off ch=1 n=60 v=85
19968 On ch=1 n=69 v=85
19968 On ch=1 n=62 v=85
20732 Off ch=1 n=62 v=85
20928 On ch=1 n=62 v=85
21312 On ch=1 n=61 v=85
21315 Off ch=1 n=62 v=85
21500 Off ch=1 n=61 v=85
21500 Off ch=1 n=69 v=85
21504 On ch=1 n=62 v=83
22272 Off ch=1 n=62 v=83
22464 On ch=1 n=62 v=85
22848 On ch=1 n=61 v=85
22851 Off ch=1 n=62 v=85
23036 Off ch=1 n=61 v=85
23040 On ch=1 n=62 v=32
23040 On ch=1 n=69 v=85
23228 Off ch=1 n=69 v=85
23232 On ch=1 n=69 v=82
23420 Off ch=1 n=69 v=82
23424 Off ch=1 n=62 v=32
23424 On ch=1 n=69 v=85
23612 Off ch=1 n=69 v=85
23616 On ch=1 n=69 v=85
24576 Off ch=1 n=69 v=85
24960 On ch=1 n=72 v=85
24960 On ch=1 n=60 v=85
25340 Off ch=1 n=72 v=85
25344 On ch=1 n=72 v=85
25724 Off ch=1 n=72 v=85
25724 Off ch=1 n=60 v=85
25728 On ch=1 n=67 v=85
26108 Off ch=1 n=67 v=85
26112 Par ch=1 c=7 v=47
26112 On ch=1 n=69 v=85
26112 On ch=1 n=62 v=85
26684 Off ch=1 n=69 v=85
26688 On ch=1 n=72 v=85
26876 Off ch=1 n=72 v=85
26876 Off ch=1 n=62 v=85
26880 On ch=1 n=69 v=85
27072 On ch=1 n=62 v=85
27456 On ch=1 n=61 v=85
27459 Off ch=1 n=62 v=85
27644 Off ch=1 n=61 v=85
27644 Off ch=1 n=69 v=85
27648 On ch=1 n=62 v=77
28416 Off ch=1 n=62 v=77
28416 On ch=1 n=71 v=86
28800 Off ch=1 n=71 v=86
28800 Par ch=1 c=7 v=47
28800 On ch=1 n=72 v=85
28800 On ch=1 n=64 v=85
28800 On ch=1 n=67 v=85
29180 Off ch=1 n=72 v=85
29184 On ch=1 n=74 v=85
29564 Off ch=1 n=74 v=85
29564 Off ch=1 n=67 v=85
29564 Off ch=1 n=64 v=85
29568 On ch=1 n=71 v=85
29568 On ch=1 n=67 v=85
29568 On ch=1 n=62 v=85
29948 Off ch=1 n=71 v=85
29952 On ch=1 n=67 v=85
30332 Off ch=1 n=67 v=85
30332 Off ch=1 n=62 v=85
30332 Off ch=1 n=67 v=85
30336 Par ch=1 c=7 v=47
30336 On ch=1 n=69 v=85
30336 On ch=1 n=62 v=85
30908 Off ch=1 n=69 v=85
30912 On ch=1 n=72 v=85
31100 Off ch=1 n=72 v=85
31100 Off ch=1 n=62 v=85
31104 On ch=1 n=69 v=85
31296 On ch=1 n=62 v=85
31680 On ch=1 n=61 v=85
31683 Off ch=1 n=62 v=85
31868 Off ch=1 n=61 v=85
31868 Off ch=1 n=69 v=85
31872 On ch=1 n=62 v=77
32640 Off ch=1 n=62 v=77
32640 On ch=1 n=71 v=86
33024 Off ch=1 n=71 v=86
33024 Par ch=1 c=7 v=47
33024 On ch=1 n=72 v=85
33024 On ch=1 n=64 v=85
33024 On ch=1 n=67 v=85
33404 Off ch=1 n=72 v=85
33408 On ch=1 n=74 v=85
33788 Off ch=1 n=74 v=85
33788 Off ch=1 n=67 v=85
33788 Off ch=1 n=64 v=85
33792 On ch=1 n=71 v=85
33792 On ch=1 n=67 v=85
33792 On ch=1 n=62 v=85
34172 Off ch=1 n=71 v=85
34176 On ch=1 n=67 v=85
34556 Off ch=1 n=67 v=85
34556 Off ch=1 n=62 v=85
34556 Off ch=1 n=67 v=85
34560 Par ch=1 c=7 v=47
34560 On ch=1 n=69 v=85
34560 On ch=1 n=62 v=85
35132 Off ch=1 n=69 v=85
35136 On ch=1 n=72 v=85
35324 Off ch=1 n=72 v=85
35324 Off ch=1 n=62 v=85
35328 On ch=1 n=69 v=85
35520 On ch=1 n=62 v=85
35904 On ch=1 n=61 v=85
35907 Off ch=1 n=62 v=85
36092 Off ch=1 n=61 v=85
36092 Off ch=1 n=69 v=85
36096 On ch=1 n=62 v=77
36864 Off ch=1 n=62 v=77
36864 On ch=1 n=71 v=86
37248 Off ch=1 n=71 v=86
37248 Par ch=1 c=7 v=47
37248 On ch=1 n=72 v=85
37248 On ch=1 n=64 v=85
37248 On ch=1 n=67 v=85
37628 Off ch=1 n=72 v=85
37632 On ch=1 n=74 v=85
38012 Off ch=1 n=74 v=85
38012 Off ch=1 n=67 v=85
38012 Off ch=1 n=64 v=85
38016 On ch=1 n=71 v=85
38016 On ch=1 n=67 v=85
38016 On ch=1 n=62 v=85
38396 Off ch=1 n=71 v=85
38400 On ch=1 n=67 v=85
38780 Off ch=1 n=67 v=85
38780 Off ch=1 n=62 v=85
38780 Off ch=1 n=67 v=85
38784 Par ch=1 c=7 v=47
38784 On ch=1 n=69 v=85
38784 On ch=1 n=62 v=85
39356 Off ch=1 n=69 v=85
39360 On ch=1 n=72 v=85
39548 Off ch=1 n=72 v=85
39548 Off ch=1 n=62 v=85
39552 On ch=1 n=69 v=85
39744 On ch=1 n=62 v=85
40128 On ch=1 n=61 v=85
40131 Off ch=1 n=62 v=85
40316 Off ch=1 n=61 v=85
40316 Off ch=1 n=69 v=85
40320 On ch=1 n=62 v=77
41088 Off ch=1 n=62 v=77
41088 On ch=1 n=71 v=86
41472 Off ch=1 n=71 v=86
41472 Par ch=1 c=7 v=47
41472 On ch=1 n=64 v=75
41472 On ch=1 n=74 v=75
41472 On ch=1 n=67 v=75
41664 Off ch=1 n=74 v=75
41664 On ch=1 n=72 v=85
42240 Off ch=1 n=72 v=85
42240 Off ch=1 n=67 v=75
42240 Off ch=1 n=64 v=75
42240 On ch=1 n=64 v=86
42240 On ch=1 n=74 v=86
42240 On ch=1 n=67 v=86
42624 Off ch=1 n=74 v=86
42624 On ch=1 n=74 v=90
43008 Off ch=1 n=74 v=90
43008 Off ch=1 n=67 v=86
43008 Off ch=1 n=64 v=86
43008 On ch=1 n=74 v=86
43008 On ch=1 n=64 v=83
43008 On ch=1 n=67 v=83
43200 Off ch=1 n=74 v=86
43200 On ch=1 n=72 v=90
43776 Off ch=1 n=72 v=90
43776 Off ch=1 n=67 v=83
43776 Off ch=1 n=64 v=83
43776 On ch=1 n=62 v=85
43776 On ch=1 n=69 v=85
44928 Off ch=1 n=69 v=85
44928 On ch=1 n=72 v=85
45312 Off ch=1 n=72 v=85
45312 Off ch=1 n=62 v=85
45312 On ch=1 n=69 v=86
45312 On ch=1 n=62 v=86
46080 Off ch=1 n=62 v=86
46272 On ch=1 n=62 v=85
46656 Off ch=1 n=62 v=85
46656 On ch=1 n=61 v=82
46848 Off ch=1 n=61 v=82
46848 On ch=1 n=62 v=80
47616 Off ch=1 n=62 v=80
47808 On ch=1 n=62 v=85
48192 Off ch=1 n=62 v=85
48192 On ch=1 n=61 v=86
48384 Off ch=1 n=61 v=86
48384 Off ch=1 n=69 v=86
48384 Par ch=1 c=10 v=127
48384 On ch=1 n=62 v=85
49152 On ch=1 n=69 v=85
49532 Off ch=1 n=69 v=85
49536 On ch=1 n=69 v=85
49916 Off ch=1 n=69 v=85
49916 Off ch=1 n=62 v=85
49920 On ch=1 n=76 v=85
49920 On ch=1 n=72 v=85
49920 On ch=1 n=64 v=85
49920 On ch=1 n=67 v=85
50108 Off ch=1 n=76 v=85
50112 On ch=1 n=76 v=85
50876 Off ch=1 n=76 v=85
50880 On ch=1 n=76 v=85
51068 Off ch=1 n=76 v=85
51072 On ch=1 n=76 v=85
51452 Off ch=1 n=76 v=85
51452 Off ch=1 n=67 v=85
51452 Off ch=1 n=64 v=85
51452 Off ch=1 n=72 v=85
51456 On ch=1 n=74 v=85
51456 On ch=1 n=69 v=85
51456 On ch=1 n=62 v=85
52604 Off ch=1 n=62 v=85
52604 Off ch=1 n=69 v=85
52604 Off ch=1 n=74 v=85
52608 On ch=1 n=76 v=85
52608 On ch=1 n=65 v=85
52796 Off ch=1 n=76 v=85
52800 On ch=1 n=74 v=85
52988 Off ch=1 n=74 v=85
52988 Off ch=1 n=65 v=85
52992 On ch=1 n=77 v=85
52992 On ch=1 n=65 v=85
53372 Off ch=1 n=65 v=85
53372 Off ch=1 n=77 v=85
53376 On ch=1 n=67 v=85
54528 Off ch=1 n=67 v=85
54528 On ch=1 n=69 v=85
54528 On ch=1 n=62 v=85
54528 On ch=1 n=57 v=85
56060 Off ch=1 n=57 v=85
56060 Off ch=1 n=62 v=85
56060 Off ch=1 n=69 v=85
56064 On ch=1 n=74 v=85
56064 On ch=1 n=62 v=85
56444 Off ch=1 n=62 v=85
56444 Off ch=1 n=74 v=85
56448 On ch=1 n=73 v=85
56448 On ch=1 n=67 v=85
57600 Off ch=1 n=67 v=85
57600 Off ch=1 n=73 v=85
57600 On ch=1 n=74 v=85
57600 On ch=1 n=62 v=85
57788 Off ch=1 n=74 v=85
57792 On ch=1 n=69 v=85
58364 Off ch=1 n=69 v=85
58560 On ch=1 n=72 v=85
58748 Off ch=1 n=72 v=85
58752 On ch=1 n=72 v=85
59132 Off ch=1 n=72 v=85
59132 Off ch=1 n=62 v=85
59904 On ch=1 n=72 v=85
59904 On ch=1 n=62 v=85
60284 Off ch=1 n=72 v=85
60288 On ch=1 n=67 v=85
60668 Off ch=1 n=67 v=85
60668 Off ch=1 n=62 v=85
60672 On ch=1 n=79 v=85
61436 Off ch=1 n=79 v=85
61440 On ch=1 n=69 v=85
61440 On ch=1 n=62 v=85
62204 Off ch=1 n=69 v=85
62208 Off ch=1 n=62 v=85
62976 On ch=1 n=77 v=85
62976 On ch=1 n=65 v=85
63356 Off ch=1 n=65 v=85
63356 Off ch=1 n=77 v=85
63360 On ch=1 n=72 v=85
63744 Off ch=1 n=72 v=85
63744 On ch=1 n=74 v=85
63744 On ch=1 n=69 v=85
63744 On ch=1 n=62 v=85
64508 Off ch=1 n=62 v=85
64512 On ch=1 n=62 v=85
64896 On ch=1 n=61 v=85
64899 Off ch=1 n=62 v=85
65084 Off ch=1 n=61 v=85
66240 On ch=1 n=62 v=85
66624 On ch=1 n=61 v=85
66627 Off ch=1 n=62 v=85
66812 Off ch=1 n=61 v=85
67776 On ch=1 n=62 v=85
68160 On ch=1 n=61 v=85
68163 Off ch=1 n=62 v=85
68348 Off ch=1 n=61 v=85
70656 Par ch=1 c=7 v=50
70656 PrCh ch=1 p=6
73728 Par ch=1 c=7 v=50
73728 PrCh ch=1 p=6
76800 Par ch=1 c=7 v=50
76800 PrCh ch=1 p=6
79100 Off ch=1 n=69 v=85
79100 Off ch=1 n=74 v=85
79872 Par ch=1 c=7 v=50
79872 PrCh ch=1 p=6
82944 Par ch=1 c=7 v=50
82944 PrCh ch=1 p=6
86016 Par ch=1 c=7 v=50
86016 PrCh ch=1 p=6
89088 Par ch=1 c=7 v=50
89088 PrCh ch=1 p=6
92160 Par ch=1 c=7 v=50
92160 PrCh ch=1 p=6
95232 Par ch=1 c=7 v=50
95232 PrCh ch=1 p=6
98304 Par ch=1 c=7 v=50
98304 PrCh ch=1 p=6
101376 Par ch=1 c=7 v=50
101376 PrCh ch=1 p=6
104448 Par ch=1 c=7 v=50
104448 PrCh ch=1 p=6
107520 Par ch=1 c=7 v=50
107520 PrCh ch=1 p=6
110592 Par ch=1 c=7 v=50
110592 PrCh ch=1 p=6
113664 Par ch=1 c=7 v=50
113664 PrCh ch=1 p=6
116736 Par ch=1 c=7 v=50
116736 PrCh ch=1 p=6
119808 Par ch=1 c=7 v=50
119808 PrCh ch=1 p=6
122880 Par ch=1 c=7 v=50
122880 PrCh ch=1 p=6
125952 Par ch=1 c=7 v=50
125952 PrCh ch=1 p=6
129024 Par ch=1 c=7 v=50
129024 PrCh ch=1 p=6
132096 Par ch=1 c=7 v=50
132096 PrCh ch=1 p=6
135168 Par ch=1 c=7 v=50
135168 PrCh ch=1 p=6
138240 Par ch=1 c=7 v=50
138240 PrCh ch=1 p=6
141312 Par ch=1 c=7 v=50
141312 PrCh ch=1 p=6
144384 Par ch=1 c=7 v=50
144384 PrCh ch=1 p=6
147456 Par ch=1 c=7 v=50
147456 PrCh ch=1 p=6
150528 Par ch=1 c=7 v=50
150528 PrCh ch=1 p=6
153600 Par ch=1 c=7 v=50
153600 PrCh ch=1 p=6
156672 Par ch=1 c=7 v=50
156672 PrCh ch=1 p=6
159744 Par ch=1 c=7 v=50
159744 PrCh ch=1 p=6
162816 Par ch=1 c=7 v=50
162816 PrCh ch=1 p=6
165888 Par ch=1 c=7 v=50
165888 PrCh ch=1 p=6
168960 Par ch=1 c=7 v=50
168960 PrCh ch=1 p=6
172032 Par ch=1 c=7 v=50
172032 PrCh ch=1 p=6
175104 Par ch=1 c=7 v=50
175104 PrCh ch=1 p=6
178176 Par ch=1 c=7 v=50
178176 PrCh ch=1 p=6
181248 Par ch=1 c=7 v=50
181248 PrCh ch=1 p=6
184320 Par ch=1 c=7 v=50
184320 PrCh ch=1 p=6
187392 Par ch=1 c=7 v=50
187392 PrCh ch=1 p=6
190464 Par ch=1 c=7 v=50
190464 PrCh ch=1 p=6
193536 Par ch=1 c=7 v=50
193536 PrCh ch=1 p=6
196608 Par ch=1 c=7 v=50
196608 PrCh ch=1 p=6
199680 Par ch=1 c=7 v=50
199680 PrCh ch=1 p=6
202752 Par ch=1 c=7 v=50
202752 PrCh ch=1 p=6
205824 Par ch=1 c=7 v=50
205851 On ch=1 n=69 v=81
206601 On ch=1 n=67 v=91
206645 Off ch=1 n=69 v=81
207443 On ch=1 n=65 v=89
207492 Off ch=1 n=67 v=91
208260 On ch=1 n=62 v=76
208316 Off ch=1 n=65 v=89
211827 Off ch=1 n=62 v=76
213504 Meta TrkEnd
TrkEnd
MTrk
0 Meta TrkName "clickorgan"
0 Par ch=2 c=7 v=84
0 PrCh ch=2 p=17
0 PrCh ch=2 p=17
0 On ch=2 n=38 v=85
572 Off ch=2 n=38 v=85
576 On ch=2 n=45 v=85
764 Off ch=2 n=45 v=85
768 On ch=2 n=50 v=85
1148 Off ch=2 n=50 v=85
1152 On ch=2 n=45 v=85
1179 On ch=2 n=58 v=101
1340 Off ch=2 n=45 v=85
1344 On ch=2 n=50 v=85
1532 Off ch=2 n=50 v=85
1536 On ch=2 n=38 v=85
1558 Off ch=2 n=58 v=101
2108 Off ch=2 n=38 v=85
2112 On ch=2 n=45 v=85
2300 Off ch=2 n=45 v=85
2304 On ch=2 n=50 v=85
2684 Off ch=2 n=50 v=85
2688 On ch=2 n=45 v=85
2876 Off ch=2 n=45 v=85
2880 On ch=2 n=50 v=85
3068 Off ch=2 n=50 v=85
3072 On ch=2 n=38 v=85
3644 Off ch=2 n=38 v=85
3648 On ch=2 n=45 v=85
3836 Off ch=2 n=45 v=85
3840 On ch=2 n=50 v=85
4220 Off ch=2 n=50 v=85
4224 On ch=2 n=45 v=85
4412 Off ch=2 n=45 v=85
4416 On ch=2 n=50 v=85
4604 Off ch=2 n=50 v=85
4608 On ch=2 n=38 v=85
5180 Off ch=2 n=38 v=85
5184 On ch=2 n=45 v=85
5372 Off ch=2 n=45 v=85
5376 On ch=2 n=50 v=85
5756 Off ch=2 n=50 v=85
5760 On ch=2 n=45 v=85
5948 Off ch=2 n=45 v=85
5952 On ch=2 n=50 v=85
6140 Off ch=2 n=50 v=85
6144 On ch=2 n=38 v=85
6716 Off ch=2 n=38 v=85
6720 On ch=2 n=45 v=85
6908 Off ch=2 n=45 v=85
6912 On ch=2 n=50 v=85
7292 Off ch=2 n=50 v=85
7296 On ch=2 n=45 v=85
7484 Off ch=2 n=45 v=85
7488 On ch=2 n=50 v=85
7676 Off ch=2 n=50 v=85
7680 On ch=2 n=38 v=85
8252 Off ch=2 n=38 v=85
8256 On ch=2 n=45 v=85
8444 Off ch=2 n=45 v=85
8448 On ch=2 n=50 v=85
8828 Off ch=2 n=50 v=85
8832 On ch=2 n=45 v=85
9020 Off ch=2 n=45 v=85
9024 On ch=2 n=50 v=85
9212 Off ch=2 n=50 v=85
9216 On ch=2 n=38 v=85
9788 Off ch=2 n=38 v=85
9792 On ch=2 n=45 v=85
9980 Off ch=2 n=45 v=85
9984 On ch=2 n=50 v=85
10364 Off ch=2 n=50 v=85
10368 On ch=2 n=45 v=85
10556 Off ch=2 n=45 v=85
10560 On ch=2 n=50 v=85
10748 Off ch=2 n=50 v=85
10752 On ch=2 n=38 v=85
11324 Off ch=2 n=38 v=85
11328 On ch=2 n=45 v=85
11516 Off ch=2 n=45 v=85
11520 On ch=2 n=50 v=85
11900 Off ch=2 n=50 v=85
11904 On ch=2 n=45 v=85
12092 Off ch=2 n=45 v=85
12096 On ch=2 n=50 v=85
12284 Off ch=2 n=50 v=85
12288 On ch=2 n=38 v=85
12860 Off ch=2 n=38 v=85
12864 On ch=2 n=45 v=85
13052 Off ch=2 n=45 v=85
13056 On ch=2 n=50 v=85
13436 Off ch=2 n=50 v=85
13440 On ch=2 n=45 v=85
13628 Off ch=2 n=45 v=85
13632 On ch=2 n=50 v=85
13820 Off ch=2 n=50 v=85
13824 On ch=2 n=38 v=85
14396 Off ch=2 n=38 v=85
14400 On ch=2 n=45 v=85
14588 Off ch=2 n=45 v=85
14592 On ch=2 n=50 v=85
14972 Off ch=2 n=50 v=85
14976 On ch=2 n=45 v=85
15164 Off ch=2 n=45 v=85
15168 On ch=2 n=50 v=85
15356 Off ch=2 n=50 v=85
15360 On ch=2 n=38 v=85
15932 Off ch=2 n=38 v=85
15936 On ch=2 n=45 v=85
16124 Off ch=2 n=45 v=85
16128 On ch=2 n=50 v=85
16508 Off ch=2 n=50 v=85
16512 On ch=2 n=45 v=85
16700 Off ch=2 n=45 v=85
16704 On ch=2 n=50 v=85
16892 Off ch=2 n=50 v=85
16896 On ch=2 n=38 v=85
17468 Off ch=2 n=38 v=85
17472 On ch=2 n=45 v=85
17660 Off ch=2 n=45 v=85
17664 On ch=2 n=50 v=85
18044 Off ch=2 n=50 v=85
18048 On ch=2 n=45 v=85
18236 Off ch=2 n=45 v=85
18240 On ch=2 n=47 v=85
18428 Off ch=2 n=47 v=85
18432 On ch=2 n=48 v=85
18432 On ch=2 n=43 v=85
18432 On ch=2 n=36 v=85
19004 Off ch=2 n=36 v=85
19004 Off ch=2 n=43 v=85
19004 Off ch=2 n=48 v=85
19008 On ch=2 n=43 v=85
19200 Off ch=2 n=43 v=85
19200 On ch=2 n=48 v=85
19580 Off ch=2 n=48 v=85
19584 On ch=2 n=43 v=85
19772 Off ch=2 n=43 v=85
19776 On ch=2 n=48 v=85
19968 Off ch=2 n=48 v=85
19968 On ch=2 n=45 v=85
19968 On ch=2 n=38 v=85
20540 Off ch=2 n=38 v=85
20540 Off ch=2 n=45 v=85
20544 On ch=2 n=45 v=85
20732 Off ch=2 n=45 v=85
20736 On ch=2 n=50 v=85
21116 Off ch=2 n=50 v=85
21120 On ch=2 n=45 v=85
21308 Off ch=2 n=45 v=85
21312 On ch=2 n=50 v=85
21500 Off ch=2 n=50 v=85
21504 On ch=2 n=38 v=85
22076 Off ch=2 n=38 v=85
22080 On ch=2 n=45 v=85
22268 Off ch=2 n=45 v=85
22272 On ch=2 n=50 v=85
22652 Off ch=2 n=50 v=85
22656 On ch=2 n=45 v=85
22844 Off ch=2 n=45 v=85
22848 On ch=2 n=50 v=85
23036 Off ch=2 n=50 v=85
23040 On ch=2 n=38 v=85
23612 Off ch=2 n=38 v=85
23616 On ch=2 n=45 v=85
23804 Off ch=2 n=45 v=85
23808 On ch=2 n=50 v=85
24188 Off ch=2 n=50 v=85
24192 On ch=2 n=45 v=85
24380 Off ch=2 n=45 v=85
24384 On ch=2 n=47 v=85
24572 Off ch=2 n=47 v=85
24576 On ch=2 n=48 v=85
24576 On ch=2 n=43 v=85
24576 On ch=2 n=36 v=85
25148 Off ch=2 n=36 v=85
25148 Off ch=2 n=43 v=85
25148 Off ch=2 n=48 v=85
25152 On ch=2 n=43 v=85
25340 Off ch=2 n=43 v=85
25344 On ch=2 n=48 v=85
25724 Off ch=2 n=48 v=85
25728 On ch=2 n=43 v=85
25916 Off ch=2 n=43 v=85
25920 On ch=2 n=48 v=85
26108 Off ch=2 n=48 v=85
26112 On ch=2 n=45 v=85
26112 On ch=2 n=38 v=85
26684 Off ch=2 n=38 v=85
26684 Off ch=2 n=45 v=85
26688 On ch=2 n=45 v=85
26876 Off ch=2 n=45 v=85
26880 On ch=2 n=50 v=85
27260 Off ch=2 n=50 v=85
27264 On ch=2 n=45 v=85
27452 Off ch=2 n=45 v=85
27456 On ch=2 n=50 v=85
27644 Off ch=2 n=50 v=85
27648 On ch=2 n=38 v=32
27648 On ch=2 n=45 v=32
28224 Off ch=2 n=45 v=32
28224 Off ch=2 n=38 v=32
28224 On ch=2 n=45 v=32
28416 Off ch=2 n=45 v=32
28416 On ch=2 n=50 v=32
28800 Off ch=2 n=50 v=32
28800 On ch=2 n=36 v=85
28800 On ch=2 n=43 v=85
28800 On ch=2 n=45 v=32
28992 Off ch=2 n=45 v=32
28992 On ch=2 n=50 v=32
29180 Off ch=2 n=43 v=85
29180 Off ch=2 n=36 v=85
29184 Off ch=2 n=50 v=32
29184 On ch=2 n=43 v=85
29184 On ch=2 n=38 v=32
29372 Off ch=2 n=43 v=85
29376 On ch=2 n=48 v=85
29564 Off ch=2 n=48 v=85
29568 Off ch=2 n=38 v=32
29568 On ch=2 n=43 v=85
29568 On ch=2 n=45 v=32
29760 Off ch=2 n=45 v=32
29760 On ch=2 n=50 v=32
29948 Off ch=2 n=43 v=85
29952 Off ch=2 n=50 v=32
29952 On ch=2 n=47 v=85
30140 Off ch=2 n=47 v=85
30144 On ch=2 n=50 v=85
30332 Off ch=2 n=50 v=85
30336 On ch=2 n=45 v=85
30336 On ch=2 n=38 v=85
30908 Off ch=2 n=38 v=85
30908 Off ch=2 n=45 v=85
30912 On ch=2 n=45 v=85
31100 Off ch=2 n=45 v=85
31104 On ch=2 n=50 v=85
31484 Off ch=2 n=50 v=85
31488 On ch=2 n=45 v=85
31676 Off ch=2 n=45 v=85
31680 On ch=2 n=50 v=85
31868 Off ch=2 n=50 v=85
31872 On ch=2 n=38 v=32
31872 On ch=2 n=45 v=32
32448 Off ch=2 n=45 v=32
32448 Off ch=2 n=38 v=32
32448 On ch=2 n=45 v=32
32640 Off ch=2 n=45 v=32
32640 On ch=2 n=50 v=32
33024 Off ch=2 n=50 v=32
33024 On ch=2 n=36 v=85
33024 On ch=2 n=43 v=85
33024 On ch=2 n=45 v=32
33216 Off ch=2 n=45 v=32
33216 On ch=2 n=50 v=32
33404 Off ch=2 n=43 v=85
33404 Off ch=2 n=36 v=85
33408 Off ch=2 n=50 v=32
33408 On ch=2 n=43 v=85
33408 On ch=2 n=38 v=32
33596 Off ch=2 n=43 v=85
33600 On ch=2 n=48 v=85
33788 Off ch=2 n=48 v=85
33792 Off ch=2 n=38 v=32
33792 On ch=2 n=43 v=85
33792 On ch=2 n=45 v=32
33984 Off ch=2 n=45 v=32
33984 On ch=2 n=50 v=32
34172 Off ch=2 n=43 v=85
34176 Off ch=2 n=50 v=32
34176 On ch=2 n=47 v=85
34364 Off ch=2 n=47 v=85
34368 On ch=2 n=50 v=85
34556 Off ch=2 n=50 v=85
34560 On ch=2 n=45 v=85
34560 On ch=2 n=38 v=85
35132 Off ch=2 n=38 v=85
35132 Off ch=2 n=45 v=85
35136 On ch=2 n=45 v=85
35324 Off ch=2 n=45 v=85
35328 On ch=2 n=50 v=85
35708 Off ch=2 n=50 v=85
35712 On ch=2 n=45 v=85
35900 Off ch=2 n=45 v=85
35904 On ch=2 n=50 v=85
36092 Off ch=2 n=50 v=85
36096 On ch=2 n=38 v=32
36096 On ch=2 n=45 v=32
36672 Off ch=2 n=45 v=32
36672 Off ch=2 n=38 v=32
36672 On ch=2 n=45 v=32
36864 Off ch=2 n=45 v=32
36864 On ch=2 n=50 v=32
37248 Off ch=2 n=50 v=32
37248 On ch=2 n=36 v=85
37248 On ch=2 n=43 v=85
37248 On ch=2 n=45 v=32
37440 Off ch=2 n=45 v=32
37440 On ch=2 n=50 v=32
37628 Off ch=2 n=43 v=85
37628 Off ch=2 n=36 v=85
37632 Off ch=2 n=50 v=32
37632 On ch=2 n=43 v=85
37632 On ch=2 n=38 v=32
37820 Off ch=2 n=43 v=85
37824 On ch=2 n=48 v=85
38012 Off ch=2 n=48 v=85
38016 Off ch=2 n=38 v=32
38016 On ch=2 n=43 v=85
38016 On ch=2 n=45 v=32
38208 Off ch=2 n=45 v=32
38208 On ch=2 n=50 v=32
38396 Off ch=2 n=43 v=85
38400 Off ch=2 n=50 v=32
38400 On ch=2 n=47 v=85
38588 Off ch=2 n=47 v=85
38592 On ch=2 n=50 v=85
38780 Off ch=2 n=50 v=85
38784 On ch=2 n=45 v=85
38784 On ch=2 n=38 v=85
39356 Off ch=2 n=38 v=85
39356 Off ch=2 n=45 v=85
39360 On ch=2 n=45 v=85
39548 Off ch=2 n=45 v=85
39552 On ch=2 n=50 v=85
39932 Off ch=2 n=50 v=85
39936 On ch=2 n=45 v=85
40124 Off ch=2 n=45 v=85
40128 On ch=2 n=50 v=85
40316 Off ch=2 n=50 v=85
40320 On ch=2 n=38 v=32
40320 On ch=2 n=45 v=32
40896 Off ch=2 n=45 v=32
40896 Off ch=2 n=38 v=32
40896 On ch=2 n=45 v=32
41088 Off ch=2 n=45 v=32
41088 On ch=2 n=50 v=32
41472 Off ch=2 n=50 v=32
41472 On ch=2 n=36 v=80
41856 Off ch=2 n=36 v=80
41856 On ch=2 n=43 v=68
42240 Off ch=2 n=43 v=68
42240 On ch=2 n=48 v=67
42624 Off ch=2 n=48 v=67
42624 On ch=2 n=43 v=77
43008 Off ch=2 n=43 v=77
43008 On ch=2 n=36 v=78
43392 Off ch=2 n=36 v=78
43392 On ch=2 n=43 v=78
43584 Off ch=2 n=43 v=78
43584 On ch=2 n=48 v=78
43776 Off ch=2 n=48 v=78
43776 On ch=2 n=38 v=78
44352 Off ch=2 n=38 v=78
44352 On ch=2 n=45 v=78
44544 Off ch=2 n=45 v=78
44544 On ch=2 n=50 v=78
45312 Off ch=2 n=50 v=78
45312 On ch=2 n=38 v=85
45884 Off ch=2 n=38 v=85
45888 On ch=2 n=45 v=85
46076 Off ch=2 n=45 v=85
46080 On ch=2 n=50 v=85
46460 Off ch=2 n=50 v=85
46464 On ch=2 n=45 v=85
46652 Off ch=2 n=45 v=85
46656 On ch=2 n=50 v=85
46844 Off ch=2 n=50 v=85
46848 On ch=2 n=38 v=85
47420 Off ch=2 n=38 v=85
47424 On ch=2 n=45 v=85
47612 Off ch=2 n=45 v=85
47616 On ch=2 n=50 v=85
47996 Off ch=2 n=50 v=85
48000 On ch=2 n=45 v=85
48188 Off ch=2 n=45 v=85
48192 On ch=2 n=50 v=85
48380 Off ch=2 n=50 v=85
48384 Par ch=2 c=10 v=0
48384 On ch=2 n=38 v=85
48956 Off ch=2 n=38 v=85
48960 On ch=2 n=45 v=85
49148 Off ch=2 n=45 v=85
49152 On ch=2 n=50 v=85
49532 Off ch=2 n=50 v=85
49536 On ch=2 n=45 v=85
49724 Off ch=2 n=45 v=85
49728 On ch=2 n=50 v=85
49916 Off ch=2 n=50 v=85
49920 On ch=2 n=36 v=85
50492 Off ch=2 n=36 v=85
50496 On ch=2 n=43 v=85
50684 Off ch=2 n=43 v=85
50688 On ch=2 n=48 v=85
51068 Off ch=2 n=48 v=85
51072 On ch=2 n=43 v=85
51260 Off ch=2 n=43 v=85
51264 On ch=2 n=48 v=85
51452 Off ch=2 n=48 v=85
51456 On ch=2 n=38 v=85
52028 Off ch=2 n=38 v=85
52032 On ch=2 n=45 v=85
52220 Off ch=2 n=45 v=85
52224 On ch=2 n=50 v=85
52604 Off ch=2 n=50 v=85
52608 On ch=2 n=45 v=85
52796 Off ch=2 n=45 v=85
52800 On ch=2 n=50 v=85
52988 Off ch=2 n=50 v=85
52992 On ch=2 n=43 v=85
53564 Off ch=2 n=43 v=85
53568 On ch=2 n=47 v=85
53756 Off ch=2 n=47 v=85
53760 On ch=2 n=50 v=85
53948 Off ch=2 n=50 v=85
53952 On ch=2 n=43 v=85
54140 Off ch=2 n=43 v=85
54144 On ch=2 n=47 v=85
54332 Off ch=2 n=47 v=85
54336 On ch=2 n=50 v=85
54524 Off ch=2 n=50 v=85
54528 On ch=2 n=38 v=85
55100 Off ch=2 n=38 v=85
55104 On ch=2 n=45 v=85
55292 Off ch=2 n=45 v=85
55296 On ch=2 n=50 v=85
55676 Off ch=2 n=50 v=85
55680 On ch=2 n=45 v=85
55868 Off ch=2 n=45 v=85
55872 On ch=2 n=50 v=85
56060 Off ch=2 n=50 v=85
56064 On ch=2 n=43 v=85
56064 On ch=2 n=36 v=85
56636 Off ch=2 n=36 v=85
56636 Off ch=2 n=43 v=85
56640 On ch=2 n=43 v=85
56924 Off ch=2 n=43 v=85
56928 On ch=2 n=48 v=85
57308 Off ch=2 n=48 v=85
57312 On ch=2 n=43 v=85
57500 Off ch=2 n=43 v=85
57504 On ch=2 n=48 v=85
57600 Off ch=2 n=48 v=85
57600 On ch=2 n=45 v=85
57600 On ch=2 n=38 v=85
58172 Off ch=2 n=38 v=85
58172 Off ch=2 n=45 v=85
58176 On ch=2 n=45 v=85
58364 Off ch=2 n=45 v=85
58368 On ch=2 n=50 v=85
58748 Off ch=2 n=50 v=85
58752 On ch=2 n=45 v=85
58940 Off ch=2 n=45 v=85
58944 On ch=2 n=50 v=85
59136 On ch=2 n=43 v=85
59708 Off ch=2 n=43 v=85
59708 Off ch=2 n=50 v=85
59712 On ch=2 n=47 v=85
59900 Off ch=2 n=47 v=85
59904 On ch=2 n=50 v=85
60092 Off ch=2 n=50 v=85
60096 On ch=2 n=43 v=85
60284 Off ch=2 n=43 v=85
60288 On ch=2 n=47 v=85
60476 Off ch=2 n=47 v=85
60480 On ch=2 n=50 v=85
60668 Off ch=2 n=50 v=85
60672 On ch=2 n=45 v=85
60672 On ch=2 n=38 v=85
61244 Off ch=2 n=38 v=85
61244 Off ch=2 n=45 v=85
61248 On ch=2 n=45 v=85
61436 Off ch=2 n=45 v=85
61440 On ch=2 n=50 v=85
61820 Off ch=2 n=50 v=85
61824 On ch=2 n=50 v=85
62012 Off ch=2 n=50 v=85
62208 On ch=2 n=43 v=85
62208 On ch=2 n=36 v=85
62780 Off ch=2 n=36 v=85
62780 Off ch=2 n=43 v=85
62784 On ch=2 n=43 v=85
63068 Off ch=2 n=43 v=85
63072 On ch=2 n=48 v=85
63452 Off ch=2 n=48 v=85
63456 On ch=2 n=43 v=85
63644 Off ch=2 n=43 v=85
63648 On ch=2 n=48 v=85
63744 Off ch=2 n=48 v=85
63744 On ch=2 n=45 v=85
63744 On ch=2 n=38 v=85
64316 Off ch=2 n=38 v=85
64316 Off ch=2 n=45 v=85
64320 On ch=2 n=45 v=85
64508 Off ch=2 n=45 v=85
64512 On ch=2 n=50 v=85
64892 Off ch=2 n=50 v=85
64896 On ch=2 n=45 v=85
65084 Off ch=2 n=45 v=85
65088 On ch=2 n=50 v=85
65276 Off ch=2 n=50 v=85
65280 On ch=2 n=38 v=85
65852 Off ch=2 n=38 v=85
65856 On ch=2 n=45 v=85
66044 Off ch=2 n=45 v=85
66048 On ch=2 n=50 v=85
66240 On ch=2 n=45 v=85
66428 Off ch=2 n=45 v=85
66428 Off ch=2 n=50 v=85
66816 On ch=2 n=38 v=85
67388 Off ch=2 n=38 v=85
67392 On ch=2 n=45 v=85
67580 Off ch=2 n=45 v=85
67584 On ch=2 n=50 v=85
67964 Off ch=2 n=50 v=85
67968 On ch=2 n=45 v=85
68156 Off ch=2 n=45 v=85
68160 On ch=2 n=50 v=85
68348 Off ch=2 n=50 v=85
68352 On ch=2 n=38 v=85
68924 Off ch=2 n=38 v=85
68928 On ch=2 n=45 v=85
69116 Off ch=2 n=45 v=85
69120 On ch=2 n=50 v=85
69500 Off ch=2 n=50 v=85
69504 On ch=2 n=45 v=85
69692 Off ch=2 n=45 v=85
69696 On ch=2 n=50 v=85
69884 Off ch=2 n=50 v=85
69888 On ch=2 n=38 v=85
70460 Off ch=2 n=38 v=85
70464 On ch=2 n=45 v=85
70652 Off ch=2 n=45 v=85
70656 Par ch=2 c=7 v=84
70656 PrCh ch=2 p=17
70656 On ch=2 n=50 v=85
71036 Off ch=2 n=50 v=85
71040 On ch=2 n=45 v=85
71228 Off ch=2 n=45 v=85
71232 On ch=2 n=50 v=85
71420 Off ch=2 n=50 v=85
71424 On ch=2 n=38 v=85
71996 Off ch=2 n=38 v=85
72000 On ch=2 n=45 v=85
72188 Off ch=2 n=45 v=85
72192 On ch=2 n=50 v=85
72572 Off ch=2 n=50 v=85
72576 On ch=2 n=45 v=85
72764 Off ch=2 n=45 v=85
72768 On ch=2 n=50 v=85
72956 Off ch=2 n=50 v=85
72960 On ch=2 n=38 v=85
73532 Off ch=2 n=38 v=85
73536 On ch=2 n=45 v=85
73724 Off ch=2 n=45 v=85
73728 Par ch=2 c=7 v=84
73728 PrCh ch=2 p=17
73728 On ch=2 n=50 v=85
74108 Off ch=2 n=50 v=85
74112 On ch=2 n=45 v=85
74300 Off ch=2 n=45 v=85
74304 On ch=2 n=50 v=85
74492 Off ch=2 n=50 v=85
74496 On ch=2 n=38 v=85
75068 Off ch=2 n=38 v=85
75072 On ch=2 n=45 v=85
75260 Off ch=2 n=45 v=85
75264 On ch=2 n=50 v=85
75644 Off ch=2 n=50 v=85
75648 On ch=2 n=45 v=85
75836 Off ch=2 n=45 v=85
75840 On ch=2 n=50 v=85
76028 Off ch=2 n=50 v=85
76032 On ch=2 n=38 v=85
76604 Off ch=2 n=38 v=85
76608 On ch=2 n=45 v=85
76796 Off ch=2 n=45 v=85
76800 Par ch=2 c=7 v=84
76800 PrCh ch=2 p=17
76800 On ch=2 n=50 v=85
77180 Off ch=2 n=50 v=85
77184 On ch=2 n=45 v=85
77372 Off ch=2 n=45 v=85
77376 On ch=2 n=50 v=85
77564 Off ch=2 n=50 v=85
77568 On ch=2 n=38 v=85
78140 Off ch=2 n=38 v=85
78144 On ch=2 n=45 v=85
78332 Off ch=2 n=45 v=85
78336 On ch=2 n=50 v=85
78716 Off ch=2 n=50 v=85
78720 On ch=2 n=45 v=85
78908 Off ch=2 n=45 v=85
78912 On ch=2 n=50 v=85
79100 Off ch=2 n=50 v=85
79104 On ch=2 n=38 v=85
79676 Off ch=2 n=38 v=85
79680 On ch=2 n=45 v=85
79868 Off ch=2 n=45 v=85
79872 Par ch=2 c=7 v=84
79872 PrCh ch=2 p=17
79872 On ch=2 n=50 v=85
80252 Off ch=2 n=50 v=85
80256 On ch=2 n=45 v=85
80444 Off ch=2 n=45 v=85
80448 On ch=2 n=50 v=85
80636 Off ch=2 n=50 v=85
80640 On ch=2 n=38 v=85
81212 Off ch=2 n=38 v=85
81216 On ch=2 n=45 v=85
81404 Off ch=2 n=45 v=85
81408 On ch=2 n=50 v=85
81788 Off ch=2 n=50 v=85
81792 On ch=2 n=45 v=85
81980 Off ch=2 n=45 v=85
81984 On ch=2 n=50 v=85
82172 Off ch=2 n=50 v=85
82176 On ch=2 n=38 v=85
82748 Off ch=2 n=38 v=85
82752 On ch=2 n=45 v=85
82940 Off ch=2 n=45 v=85
82944 Par ch=2 c=7 v=84
82944 PrCh ch=2 p=17
82944 On ch=2 n=50 v=85
83324 Off ch=2 n=50 v=85
83328 On ch=2 n=45 v=85
83516 Off ch=2 n=45 v=85
83520 On ch=2 n=50 v=85
83708 Off ch=2 n=50 v=85
83712 On ch=2 n=38 v=85
84284 Off ch=2 n=38 v=85
84288 On ch=2 n=45 v=85
84476 Off ch=2 n=45 v=85
84480 On ch=2 n=50 v=85
84860 Off ch=2 n=50 v=85
84864 On ch=2 n=45 v=85
85052 Off ch=2 n=45 v=85
85056 On ch=2 n=50 v=85
85244 Off ch=2 n=50 v=85
85248 On ch=2 n=38 v=85
85820 Off ch=2 n=38 v=85
85824 On ch=2 n=45 v=85
86012 Off ch=2 n=45 v=85
86016 Par ch=2 c=7 v=84
86016 PrCh ch=2 p=17
86016 On ch=2 n=50 v=85
86396 Off ch=2 n=50 v=85
86400 On ch=2 n=45 v=85
86588 Off ch=2 n=45 v=85
86592 On ch=2 n=50 v=85
86780 Off ch=2 n=50 v=85
86784 On ch=2 n=38 v=85
87356 Off ch=2 n=38 v=85
87360 On ch=2 n=45 v=85
87548 Off ch=2 n=45 v=85
87552 On ch=2 n=50 v=85
87932 Off ch=2 n=50 v=85
87936 On ch=2 n=45 v=85
88124 Off ch=2 n=45 v=85
88128 On ch=2 n=50 v=85
88316 Off ch=2 n=50 v=85
88320 On ch=2 n=38 v=85
88892 Off ch=2 n=38 v=85
88896 On ch=2 n=45 v=85
89084 Off ch=2 n=45 v=85
89088 Par ch=2 c=7 v=84
89088 PrCh ch=2 p=17
89088 On ch=2 n=50 v=85
89468 Off ch=2 n=50 v=85
89472 On ch=2 n=45 v=85
89660 Off ch=2 n=45 v=85
89664 On ch=2 n=50 v=85
89852 Off ch=2 n=50 v=85
89856 On ch=2 n=38 v=85
90428 Off ch=2 n=38 v=85
90432 On ch=2 n=45 v=85
90620 Off ch=2 n=45 v=85
90624 On ch=2 n=50 v=85
91004 Off ch=2 n=50 v=85
91008 On ch=2 n=45 v=85
91196 Off ch=2 n=45 v=85
91200 On ch=2 n=50 v=85
91388 Off ch=2 n=50 v=85
91392 On ch=2 n=38 v=85
91964 Off ch=2 n=38 v=85
91968 On ch=2 n=45 v=85
92156 Off ch=2 n=45 v=85
92160 Par ch=2 c=7 v=84
92160 PrCh ch=2 p=17
92160 On ch=2 n=50 v=85
92540 Off ch=2 n=50 v=85
92544 On ch=2 n=45 v=85
92732 Off ch=2 n=45 v=85
92736 On ch=2 n=50 v=85
92924 Off ch=2 n=50 v=85
92928 On ch=2 n=38 v=85
93500 Off ch=2 n=38 v=85
93504 On ch=2 n=45 v=85
93692 Off ch=2 n=45 v=85
93696 On ch=2 n=50 v=85
94076 Off ch=2 n=50 v=85
94080 On ch=2 n=45 v=85
94268 Off ch=2 n=45 v=85
94272 On ch=2 n=50 v=85
94460 Off ch=2 n=50 v=85
94464 On ch=2 n=38 v=85
95036 Off ch=2 n=38 v=85
95040 On ch=2 n=45 v=85
95228 Off ch=2 n=45 v=85
95232 Par ch=2 c=7 v=84
95232 PrCh ch=2 p=17
95232 On ch=2 n=50 v=85
95612 Off ch=2 n=50 v=85
95616 On ch=2 n=45 v=85
95804 Off ch=2 n=45 v=85
95808 On ch=2 n=50 v=85
95996 Off ch=2 n=50 v=85
96000 On ch=2 n=38 v=85
96572 Off ch=2 n=38 v=85
96576 On ch=2 n=45 v=85
96764 Off ch=2 n=45 v=85
96768 On ch=2 n=50 v=85
97148 Off ch=2 n=50 v=85
97152 On ch=2 n=45 v=85
97340 Off ch=2 n=45 v=85
97344 On ch=2 n=50 v=85
97532 Off ch=2 n=50 v=85
97536 On ch=2 n=38 v=85
98108 Off ch=2 n=38 v=85
98112 On ch=2 n=45 v=85
98300 Off ch=2 n=45 v=85
98304 Par ch=2 c=7 v=84
98304 PrCh ch=2 p=17
98304 On ch=2 n=50 v=85
98684 Off ch=2 n=50 v=85
98688 On ch=2 n=45 v=85
98876 Off ch=2 n=45 v=85
98880 On ch=2 n=50 v=85
99068 Off ch=2 n=50 v=85
99072 On ch=2 n=38 v=85
99644 Off ch=2 n=38 v=85
99648 On ch=2 n=45 v=85
99836 Off ch=2 n=45 v=85
99840 On ch=2 n=50 v=85
100220 Off ch=2 n=50 v=85
100224 On ch=2 n=45 v=85
100412 Off ch=2 n=45 v=85
100416 On ch=2 n=50 v=85
100604 Off ch=2 n=50 v=85
100608 On ch=2 n=38 v=85
101180 Off ch=2 n=38 v=85
101184 On ch=2 n=45 v=85
101372 Off ch=2 n=45 v=85
101376 Par ch=2 c=7 v=84
101376 PrCh ch=2 p=17
101376 On ch=2 n=50 v=85
101756 Off ch=2 n=50 v=85
101760 On ch=2 n=45 v=85
101948 Off ch=2 n=45 v=85
101952 On ch=2 n=50 v=85
102140 Off ch=2 n=50 v=85
102144 On ch=2 n=38 v=85
102716 Off ch=2 n=38 v=85
102720 On ch=2 n=45 v=85
102908 Off ch=2 n=45 v=85
102912 On ch=2 n=50 v=85
103292 Off ch=2 n=50 v=85
103296 On ch=2 n=45 v=85
103484 Off ch=2 n=45 v=85
103488 On ch=2 n=50 v=85
103676 Off ch=2 n=50 v=85
103680 On ch=2 n=38 v=85
104252 Off ch=2 n=38 v=85
104256 On ch=2 n=45 v=85
104444 Off ch=2 n=45 v=85
104448 Par ch=2 c=7 v=84
104448 PrCh ch=2 p=17
104448 On ch=2 n=50 v=85
104828 Off ch=2 n=50 v=85
104832 On ch=2 n=45 v=85
105020 Off ch=2 n=45 v=85
105024 On ch=2 n=50 v=85
105212 Off ch=2 n=50 v=85
105216 On ch=2 n=38 v=85
105788 Off ch=2 n=38 v=85
105792 On ch=2 n=45 v=85
105980 Off ch=2 n=45 v=85
105984 On ch=2 n=50 v=85
106364 Off ch=2 n=50 v=85
106368 On ch=2 n=45 v=85
106556 Off ch=2 n=45 v=85
106560 On ch=2 n=50 v=85
106748 Off ch=2 n=50 v=85
106752 On ch=2 n=38 v=85
107324 Off ch=2 n=38 v=85
107328 On ch=2 n=45 v=85
107516 Off ch=2 n=45 v=85
107520 Par ch=2 c=7 v=84
107520 PrCh ch=2 p=17
107520 On ch=2 n=50 v=85
107900 Off ch=2 n=50 v=85
107904 On ch=2 n=45 v=85
108092 Off ch=2 n=45 v=85
108096 On ch=2 n=50 v=85
108284 Off ch=2 n=50 v=85
108288 On ch=2 n=38 v=85
108860 Off ch=2 n=38 v=85
108864 On ch=2 n=45 v=85
109052 Off ch=2 n=45 v=85
109056 On ch=2 n=50 v=85
109436 Off ch=2 n=50 v=85
109440 On ch=2 n=45 v=85
109628 Off ch=2 n=45 v=85
109632 On ch=2 n=50 v=85
109820 Off ch=2 n=50 v=85
109824 On ch=2 n=38 v=85
110396 Off ch=2 n=38 v=85
110400 On ch=2 n=45 v=85
110588 Off ch=2 n=45 v=85
110592 Par ch=2 c=7 v=84
110592 PrCh ch=2 p=17
110592 On ch=2 n=50 v=85
110972 Off ch=2 n=50 v=85
110976 On ch=2 n=45 v=85
111164 Off ch=2 n=45 v=85
111168 On ch=2 n=50 v=85
111356 Off ch=2 n=50 v=85
111360 On ch=2 n=38 v=85
111932 Off ch=2 n=38 v=85
111936 On ch=2 n=45 v=85
112124 Off ch=2 n=45 v=85
112128 On ch=2 n=50 v=85
112508 Off ch=2 n=50 v=85
112512 On ch=2 n=45 v=85
112700 Off ch=2 n=45 v=85
112704 On ch=2 n=50 v=85
112892 Off ch=2 n=50 v=85
112896 On ch=2 n=38 v=85
113468 Off ch=2 n=38 v=85
113472 On ch=2 n=45 v=85
113660 Off ch=2 n=45 v=85
113664 Par ch=2 c=7 v=84
113664 PrCh ch=2 p=17
113664 On ch=2 n=50 v=85
114044 Off ch=2 n=50 v=85
114048 On ch=2 n=45 v=85
114236 Off ch=2 n=45 v=85
114240 On ch=2 n=50 v=85
114428 Off ch=2 n=50 v=85
114432 On ch=2 n=38 v=85
115004 Off ch=2 n=38 v=85
115008 On ch=2 n=45 v=85
115196 Off ch=2 n=45 v=85
115200 On ch=2 n=50 v=85
115580 Off ch=2 n=50 v=85
115584 On ch=2 n=45 v=85
115772 Off ch=2 n=45 v=85
115776 On ch=2 n=50 v=85
115964 Off ch=2 n=50 v=85
115968 On ch=2 n=38 v=85
116540 Off ch=2 n=38 v=85
116544 On ch=2 n=45 v=85
116732 Off ch=2 n=45 v=85
116736 Par ch=2 c=7 v=84
116736 PrCh ch=2 p=17
116736 On ch=2 n=50 v=85
117116 Off ch=2 n=50 v=85
117120 On ch=2 n=45 v=85
117308 Off ch=2 n=45 v=85
117312 On ch=2 n=50 v=85
117500 Off ch=2 n=50 v=85
117504 On ch=2 n=38 v=85
118076 Off ch=2 n=38 v=85
118080 On ch=2 n=45 v=85
118268 Off ch=2 n=45 v=85
118272 On ch=2 n=50 v=85
118652 Off ch=2 n=50 v=85
118656 On ch=2 n=45 v=85
118844 Off ch=2 n=45 v=85
118848 On ch=2 n=50 v=85
119036 Off ch=2 n=50 v=85
119040 On ch=2 n=38 v=85
119612 Off ch=2 n=38 v=85
119616 On ch=2 n=45 v=85
119804 Off ch=2 n=45 v=85
119808 Par ch=2 c=7 v=84
119808 PrCh ch=2 p=17
119808 On ch=2 n=50 v=85
120188 Off ch=2 n=50 v=85
120192 On ch=2 n=45 v=85
120380 Off ch=2 n=45 v=85
120384 On ch=2 n=50 v=85
120572 Off ch=2 n=50 v=85
120576 On ch=2 n=38 v=85
121148 Off ch=2 n=38 v=85
121152 On ch=2 n=45 v=85
121340 Off ch=2 n=45 v=85
121344 On ch=2 n=50 v=85
121724 Off ch=2 n=50 v=85
121728 On ch=2 n=45 v=85
121916 Off ch=2 n=45 v=85
121920 On ch=2 n=50 v=85
122108 Off ch=2 n=50 v=85
122112 On ch=2 n=38 v=85
122684 Off ch=2 n=38 v=85
122688 On ch=2 n=45 v=85
122876 Off ch=2 n=45 v=85
122880 Par ch=2 c=7 v=84
122880 PrCh ch=2 p=17
122880 On ch=2 n=50 v=85
123260 Off ch=2 n=50 v=85
123264 On ch=2 n=45 v=85
123452 Off ch=2 n=45 v=85
123456 On ch=2 n=50 v=85
123644 Off ch=2 n=50 v=85
123648 On ch=2 n=38 v=85
124220 Off ch=2 n=38 v=85
124224 On ch=2 n=45 v=85
124412 Off ch=2 n=45 v=85
124416 On ch=2 n=50 v=85
124796 Off ch=2 n=50 v=85
124800 On ch=2 n=45 v=85
124988 Off ch=2 n=45 v=85
124992 On ch=2 n=50 v=85
125180 Off ch=2 n=50 v=85
125184 On ch=2 n=38 v=85
125756 Off ch=2 n=38 v=85
125760 On ch=2 n=45 v=85
125948 Off ch=2 n=45 v=85
125952 Par ch=2 c=7 v=84
125952 PrCh ch=2 p=17
125952 On ch=2 n=50 v=85
126332 Off ch=2 n=50 v=85
126336 On ch=2 n=45 v=85
126524 Off ch=2 n=45 v=85
126528 On ch=2 n=50 v=85
126716 Off ch=2 n=50 v=85
126720 On ch=2 n=38 v=85
127292 Off ch=2 n=38 v=85
127296 On ch=2 n=45 v=85
127484 Off ch=2 n=45 v=85
127488 On ch=2 n=50 v=85
127868 Off ch=2 n=50 v=85
127872 On ch=2 n=45 v=85
128060 Off ch=2 n=45 v=85
128064 On ch=2 n=50 v=85
128252 Off ch=2 n=50 v=85
128256 On ch=2 n=38 v=85
128828 Off ch=2 n=38 v=85
128832 On ch=2 n=45 v=85
129020 Off ch=2 n=45 v=85
129024 Par ch=2 c=7 v=84
129024 PrCh ch=2 p=17
129024 On ch=2 n=50 v=85
129404 Off ch=2 n=50 v=85
129408 On ch=2 n=45 v=85
129596 Off ch=2 n=45 v=85
129600 On ch=2 n=50 v=85
129788 Off ch=2 n=50 v=85
129792 On ch=2 n=38 v=85
130364 Off ch=2 n=38 v=85
130368 On ch=2 n=45 v=85
130556 Off ch=2 n=45 v=85
130560 On ch=2 n=50 v=85
130940 Off ch=2 n=50 v=85
130944 On ch=2 n=45 v=85
131132 Off ch=2 n=45 v=85
131136 On ch=2 n=50 v=85
131324 Off ch=2 n=50 v=85
131328 On ch=2 n=38 v=85
131900 Off ch=2 n=38 v=85
131904 On ch=2 n=45 v=85
132092 Off ch=2 n=45 v=85
132096 Par ch=2 c=7 v=84
132096 PrCh ch=2 p=17
132096 On ch=2 n=50 v=85
132476 Off ch=2 n=50 v=85
132480 On ch=2 n=45 v=85
132668 Off ch=2 n=45 v=85
132672 On ch=2 n=50 v=85
132860 Off ch=2 n=50 v=85
132864 On ch=2 n=38 v=85
133436 Off ch=2 n=38 v=85
133440 On ch=2 n=45 v=85
133628 Off ch=2 n=45 v=85
133632 On ch=2 n=50 v=85
134012 Off ch=2 n=50 v=85
134016 On ch=2 n=45 v=85
134204 Off ch=2 n=45 v=85
134208 On ch=2 n=50 v=85
134396 Off ch=2 n=50 v=85
134400 On ch=2 n=38 v=85
134972 Off ch=2 n=38 v=85
134976 On ch=2 n=45 v=85
135164 Off ch=2 n=45 v=85
135168 Par ch=2 c=7 v=84
135168 PrCh ch=2 p=17
135168 On ch=2 n=50 v=85
135548 Off ch=2 n=50 v=85
135552 On ch=2 n=45 v=85
135740 Off ch=2 n=45 v=85
135744 On ch=2 n=50 v=85
135932 Off ch=2 n=50 v=85
135936 On ch=2 n=38 v=85
136508 Off ch=2 n=38 v=85
136512 On ch=2 n=45 v=85
136700 Off ch=2 n=45 v=85
136704 On ch=2 n=50 v=85
137084 Off ch=2 n=50 v=85
137088 On ch=2 n=45 v=85
137276 Off ch=2 n=45 v=85
137280 On ch=2 n=50 v=85
137468 Off ch=2 n=50 v=85
137472 On ch=2 n=38 v=85
138044 Off ch=2 n=38 v=85
138048 On ch=2 n=45 v=85
138236 Off ch=2 n=45 v=85
138240 Par ch=2 c=7 v=84
138240 PrCh ch=2 p=17
138240 On ch=2 n=50 v=85
138620 Off ch=2 n=50 v=85
138624 On ch=2 n=45 v=85
138812 Off ch=2 n=45 v=85
138816 On ch=2 n=50 v=85
139004 Off ch=2 n=50 v=85
139008 On ch=2 n=38 v=85
139580 Off ch=2 n=38 v=85
139584 On ch=2 n=45 v=85
139772 Off ch=2 n=45 v=85
139776 On ch=2 n=50 v=85
140156 Off ch=2 n=50 v=85
140160 On ch=2 n=45 v=85
140348 Off ch=2 n=45 v=85
140352 On ch=2 n=50 v=85
140540 Off ch=2 n=50 v=85
140544 On ch=2 n=38 v=85
141116 Off ch=2 n=38 v=85
141120 On ch=2 n=45 v=85
141308 Off ch=2 n=45 v=85
141312 Par ch=2 c=7 v=84
141312 PrCh ch=2 p=17
141312 On ch=2 n=50 v=85
141692 Off ch=2 n=50 v=85
141696 On ch=2 n=45 v=85
141884 Off ch=2 n=45 v=85
141888 On ch=2 n=50 v=85
142076 Off ch=2 n=50 v=85
142080 On ch=2 n=38 v=85
142652 Off ch=2 n=38 v=85
142656 On ch=2 n=45 v=85
142844 Off ch=2 n=45 v=85
142848 On ch=2 n=50 v=85
143228 Off ch=2 n=50 v=85
143232 On ch=2 n=45 v=85
143420 Off ch=2 n=45 v=85
143424 On ch=2 n=50 v=85
143612 Off ch=2 n=50 v=85
143616 On ch=2 n=38 v=85
144188 Off ch=2 n=38 v=85
144192 On ch=2 n=45 v=85
144380 Off ch=2 n=45 v=85
144384 Par ch=2 c=7 v=84
144384 PrCh ch=2 p=17
144384 On ch=2 n=50 v=85
144764 Off ch=2 n=50 v=85
144768 On ch=2 n=45 v=85
144956 Off ch=2 n=45 v=85
144960 On ch=2 n=50 v=85
145148 Off ch=2 n=50 v=85
145152 On ch=2 n=38 v=85
145724 Off ch=2 n=38 v=85
145728 On ch=2 n=45 v=85
145916 Off ch=2 n=45 v=85
145920 On ch=2 n=50 v=85
146300 Off ch=2 n=50 v=85
146304 On ch=2 n=45 v=85
146492 Off ch=2 n=45 v=85
146496 On ch=2 n=50 v=85
146684 Off ch=2 n=50 v=85
146688 On ch=2 n=38 v=85
147260 Off ch=2 n=38 v=85
147264 On ch=2 n=45 v=85
147452 Off ch=2 n=45 v=85
147456 Par ch=2 c=7 v=84
147456 PrCh ch=2 p=17
147456 On ch=2 n=50 v=85
147836 Off ch=2 n=50 v=85
147840 On ch=2 n=45 v=85
148028 Off ch=2 n=45 v=85
148032 On ch=2 n=50 v=85
148220 Off ch=2 n=50 v=85
148224 On ch=2 n=38 v=85
148796 Off ch=2 n=38 v=85
148800 On ch=2 n=45 v=85
148988 Off ch=2 n=45 v=85
148992 On ch=2 n=50 v=85
149372 Off ch=2 n=50 v=85
149376 On ch=2 n=45 v=85
149564 Off ch=2 n=45 v=85
149568 On ch=2 n=50 v=85
149756 Off ch=2 n=50 v=85
149760 On ch=2 n=38 v=85
150332 Off ch=2 n=38 v=85
150336 On ch=2 n=45 v=85
150524 Off ch=2 n=45 v=85
150528 Par ch=2 c=7 v=84
150528 PrCh ch=2 p=17
150528 On ch=2 n=50 v=85
150908 Off ch=2 n=50 v=85
150912 On ch=2 n=45 v=85
151100 Off ch=2 n=45 v=85
151104 On ch=2 n=50 v=85
151292 Off ch=2 n=50 v=85
151296 On ch=2 n=38 v=85
151868 Off ch=2 n=38 v=85
151872 On ch=2 n=45 v=85
152060 Off ch=2 n=45 v=85
152064 On ch=2 n=50 v=85
152444 Off ch=2 n=50 v=85
152448 On ch=2 n=45 v=85
152636 Off ch=2 n=45 v=85
152640 On ch=2 n=50 v=85
152828 Off ch=2 n=50 v=85
152832 On ch=2 n=38 v=85
153404 Off ch=2 n=38 v=85
153408 On ch=2 n=45 v=85
153596 Off ch=2 n=45 v=85
153600 Par ch=2 c=7 v=84
153600 PrCh ch=2 p=17
153600 On ch=2 n=50 v=85
153980 Off ch=2 n=50 v=85
153984 On ch=2 n=45 v=85
154172 Off ch=2 n=45 v=85
154176 On ch=2 n=50 v=85
154364 Off ch=2 n=50 v=85
154368 On ch=2 n=38 v=85
154940 Off ch=2 n=38 v=85
154944 On ch=2 n=45 v=85
155132 Off ch=2 n=45 v=85
155136 On ch=2 n=50 v=85
155516 Off ch=2 n=50 v=85
155520 On ch=2 n=45 v=85
155708 Off ch=2 n=45 v=85
155712 On ch=2 n=50 v=85
155900 Off ch=2 n=50 v=85
155904 On ch=2 n=38 v=85
156476 Off ch=2 n=38 v=85
156480 On ch=2 n=45 v=85
156668 Off ch=2 n=45 v=85
156672 Par ch=2 c=7 v=84
156672 PrCh ch=2 p=17
156672 On ch=2 n=50 v=85
157052 Off ch=2 n=50 v=85
157056 On ch=2 n=45 v=85
157244 Off ch=2 n=45 v=85
157248 On ch=2 n=50 v=85
157436 Off ch=2 n=50 v=85
157440 On ch=2 n=38 v=85
158012 Off ch=2 n=38 v=85
158016 On ch=2 n=45 v=85
158204 Off ch=2 n=45 v=85
158208 On ch=2 n=50 v=85
158588 Off ch=2 n=50 v=85
158592 On ch=2 n=45 v=85
158780 Off ch=2 n=45 v=85
158784 On ch=2 n=50 v=85
158972 Off ch=2 n=50 v=85
158976 On ch=2 n=38 v=85
159548 Off ch=2 n=38 v=85
159552 On ch=2 n=45 v=85
159740 Off ch=2 n=45 v=85
159744 Par ch=2 c=7 v=84
159744 PrCh ch=2 p=17
159744 On ch=2 n=50 v=85
160124 Off ch=2 n=50 v=85
160128 On ch=2 n=45 v=85
160316 Off ch=2 n=45 v=85
160320 On ch=2 n=50 v=85
160508 Off ch=2 n=50 v=85
160512 On ch=2 n=38 v=85
161084 Off ch=2 n=38 v=85
161088 On ch=2 n=45 v=85
161276 Off ch=2 n=45 v=85
161280 On ch=2 n=50 v=85
161660 Off ch=2 n=50 v=85
161664 On ch=2 n=45 v=85
161852 Off ch=2 n=45 v=85
161856 On ch=2 n=50 v=85
162044 Off ch=2 n=50 v=85
162048 On ch=2 n=38 v=85
162620 Off ch=2 n=38 v=85
162624 On ch=2 n=45 v=85
162812 Off ch=2 n=45 v=85
162816 Par ch=2 c=7 v=84
162816 PrCh ch=2 p=17
162816 On ch=2 n=50 v=85
163196 Off ch=2 n=50 v=85
163200 On ch=2 n=45 v=85
163388 Off ch=2 n=45 v=85
163392 On ch=2 n=50 v=85
163580 Off ch=2 n=50 v=85
163584 On ch=2 n=38 v=85
164156 Off ch=2 n=38 v=85
164160 On ch=2 n=45 v=85
164348 Off ch=2 n=45 v=85
164352 On ch=2 n=50 v=85
164732 Off ch=2 n=50 v=85
164736 On ch=2 n=45 v=85
164924 Off ch=2 n=45 v=85
164928 On ch=2 n=50 v=85
165116 Off ch=2 n=50 v=85
165120 On ch=2 n=38 v=85
165692 Off ch=2 n=38 v=85
165696 On ch=2 n=45 v=85
165884 Off ch=2 n=45 v=85
165888 Par ch=2 c=7 v=84
165888 PrCh ch=2 p=17
165888 On ch=2 n=50 v=85
166268 Off ch=2 n=50 v=85
166272 On ch=2 n=45 v=85
166460 Off ch=2 n=45 v=85
166464 On ch=2 n=50 v=85
166652 Off ch=2 n=50 v=85
166656 On ch=2 n=38 v=85
167228 Off ch=2 n=38 v=85
167232 On ch=2 n=45 v=85
167420 Off ch=2 n=45 v=85
167424 On ch=2 n=50 v=85
167804 Off ch=2 n=50 v=85
167808 On ch=2 n=45 v=85
167996 Off ch=2 n=45 v=85
168000 On ch=2 n=50 v=85
168188 Off ch=2 n=50 v=85
168192 On ch=2 n=38 v=85
168764 Off ch=2 n=38 v=85
168768 On ch=2 n=45 v=85
168956 Off ch=2 n=45 v=85
168960 Par ch=2 c=7 v=84
168960 PrCh ch=2 p=17
168960 On ch=2 n=50 v=85
169340 Off ch=2 n=50 v=85
169344 On ch=2 n=45 v=85
169532 Off ch=2 n=45 v=85
169536 On ch=2 n=50 v=85
169724 Off ch=2 n=50 v=85
169728 On ch=2 n=38 v=85
170300 Off ch=2 n=38 v=85
170304 On ch=2 n=45 v=85
170492 Off ch=2 n=45 v=85
170496 On ch=2 n=50 v=85
170876 Off ch=2 n=50 v=85
170880 On ch=2 n=45 v=85
171068 Off ch=2 n=45 v=85
171072 On ch=2 n=50 v=85
171260 Off ch=2 n=50 v=85
171264 On ch=2 n=38 v=85
171836 Off ch=2 n=38 v=85
171840 On ch=2 n=45 v=85
172028 Off ch=2 n=45 v=85
172032 Par ch=2 c=7 v=84
172032 PrCh ch=2 p=17
172032 On ch=2 n=50 v=85
172412 Off ch=2 n=50 v=85
172416 On ch=2 n=45 v=85
172604 Off ch=2 n=45 v=85
172608 On ch=2 n=50 v=85
172796 Off ch=2 n=50 v=85
172800 On ch=2 n=38 v=85
173372 Off ch=2 n=38 v=85
173376 On ch=2 n=45 v=85
173564 Off ch=2 n=45 v=85
173568 On ch=2 n=50 v=85
173948 Off ch=2 n=50 v=85
173952 On ch=2 n=45 v=85
174140 Off ch=2 n=45 v=85
174144 On ch=2 n=50 v=85
174332 Off ch=2 n=50 v=85
174336 On ch=2 n=38 v=85
174908 Off ch=2 n=38 v=85
174912 On ch=2 n=45 v=85
175100 Off ch=2 n=45 v=85
175104 Par ch=2 c=7 v=84
175104 PrCh ch=2 p=17
175104 On ch=2 n=50 v=85
175484 Off ch=2 n=50 v=85
175488 On ch=2 n=45 v=85
175676 Off ch=2 n=45 v=85
175680 On ch=2 n=50 v=85
175868 Off ch=2 n=50 v=85
175872 On ch=2 n=38 v=85
176444 Off ch=2 n=38 v=85
176448 On ch=2 n=45 v=85
176636 Off ch=2 n=45 v=85
176640 On ch=2 n=50 v=85
177020 Off ch=2 n=50 v=85
177024 On ch=2 n=45 v=85
177212 Off ch=2 n=45 v=85
177216 On ch=2 n=50 v=85
177404 Off ch=2 n=50 v=85
177408 On ch=2 n=38 v=85
177980 Off ch=2 n=38 v=85
177984 On ch=2 n=45 v=85
178172 Off ch=2 n=45 v=85
178176 Par ch=2 c=7 v=84
178176 PrCh ch=2 p=17
178176 On ch=2 n=50 v=85
178556 Off ch=2 n=50 v=85
178560 On ch=2 n=45 v=85
178748 Off ch=2 n=45 v=85
178752 On ch=2 n=50 v=85
178940 Off ch=2 n=50 v=85
178944 On ch=2 n=38 v=85
179516 Off ch=2 n=38 v=85
179520 On ch=2 n=45 v=85
179708 Off ch=2 n=45 v=85
179712 On ch=2 n=50 v=85
180092 Off ch=2 n=50 v=85
180096 On ch=2 n=45 v=85
180284 Off ch=2 n=45 v=85
180288 On ch=2 n=50 v=85
180476 Off ch=2 n=50 v=85
180480 On ch=2 n=38 v=85
181052 Off ch=2 n=38 v=85
181056 On ch=2 n=45 v=85
181244 Off ch=2 n=45 v=85
181248 Par ch=2 c=7 v=84
181248 PrCh ch=2 p=17
181248 On ch=2 n=50 v=85
181628 Off ch=2 n=50 v=85
181632 On ch=2 n=45 v=85
181820 Off ch=2 n=45 v=85
181824 On ch=2 n=50 v=85
182012 Off ch=2 n=50 v=85
182016 On ch=2 n=38 v=85
182588 Off ch=2 n=38 v=85
182592 On ch=2 n=45 v=85
182780 Off ch=2 n=45 v=85
182784 On ch=2 n=50 v=85
183164 Off ch=2 n=50 v=85
183168 On ch=2 n=45 v=85
183356 Off ch=2 n=45 v=85
183360 On ch=2 n=50 v=85
183548 Off ch=2 n=50 v=85
183552 On ch=2 n=38 v=85
184124 Off ch=2 n=38 v=85
184128 On ch=2 n=45 v=85
184316 Off ch=2 n=45 v=85
184320 Par ch=2 c=7 v=84
184320 PrCh ch=2 p=17
184320 On ch=2 n=50 v=85
184700 Off ch=2 n=50 v=85
184704 On ch=2 n=45 v=85
184892 Off ch=2 n=45 v=85
184896 On ch=2 n=50 v=85
185084 Off ch=2 n=50 v=85
185088 On ch=2 n=38 v=85
185660 Off ch=2 n=38 v=85
185664 On ch=2 n=45 v=85
185852 Off ch=2 n=45 v=85
185856 On ch=2 n=50 v=85
186236 Off ch=2 n=50 v=85
186240 On ch=2 n=45 v=85
186428 Off ch=2 n=45 v=85
186432 On ch=2 n=50 v=85
186620 Off ch=2 n=50 v=85
186624 On ch=2 n=38 v=85
187196 Off ch=2 n=38 v=85
187200 On ch=2 n=45 v=85
187388 Off ch=2 n=45 v=85
187392 Par ch=2 c=7 v=84
187392 PrCh ch=2 p=17
187392 On ch=2 n=50 v=85
187772 Off ch=2 n=50 v=85
187776 On ch=2 n=45 v=85
187964 Off ch=2 n=45 v=85
187968 On ch=2 n=50 v=85
188156 Off ch=2 n=50 v=85
188160 On ch=2 n=38 v=85
188732 Off ch=2 n=38 v=85
188736 On ch=2 n=45 v=85
188924 Off ch=2 n=45 v=85
188928 On ch=2 n=50 v=85
189308 Off ch=2 n=50 v=85
189312 On ch=2 n=45 v=85
189500 Off ch=2 n=45 v=85
189504 On ch=2 n=50 v=85
189692 Off ch=2 n=50 v=85
189696 On ch=2 n=38 v=85
190268 Off ch=2 n=38 v=85
190272 On ch=2 n=45 v=85
190460 Off ch=2 n=45 v=85
190464 Par ch=2 c=7 v=84
190464 PrCh ch=2 p=17
190464 On ch=2 n=50 v=85
190844 Off ch=2 n=50 v=85
190848 On ch=2 n=45 v=85
191036 Off ch=2 n=45 v=85
191040 On ch=2 n=50 v=85
191228 Off ch=2 n=50 v=85
191232 On ch=2 n=38 v=85
191804 Off ch=2 n=38 v=85
191808 On ch=2 n=45 v=85
191996 Off ch=2 n=45 v=85
192000 On ch=2 n=50 v=85
192380 Off ch=2 n=50 v=85
192384 On ch=2 n=45 v=85
192572 Off ch=2 n=45 v=85
192576 On ch=2 n=50 v=85
192764 Off ch=2 n=50 v=85
192768 On ch=2 n=38 v=85
193340 Off ch=2 n=38 v=85
193344 On ch=2 n=45 v=85
193532 Off ch=2 n=45 v=85
193536 Par ch=2 c=7 v=84
193536 PrCh ch=2 p=17
193536 On ch=2 n=50 v=85
193916 Off ch=2 n=50 v=85
193920 On ch=2 n=45 v=85
194108 Off ch=2 n=45 v=85
194112 On ch=2 n=50 v=85
194300 Off ch=2 n=50 v=85
194304 On ch=2 n=38 v=85
194876 Off ch=2 n=38 v=85
194880 On ch=2 n=45 v=85
195068 Off ch=2 n=45 v=85
195072 On ch=2 n=50 v=85
195452 Off ch=2 n=50 v=85
195456 On ch=2 n=45 v=85
195644 Off ch=2 n=45 v=85
195648 On ch=2 n=50 v=85
195836 Off ch=2 n=50 v=85
195840 On ch=2 n=38 v=85
196412 Off ch=2 n=38 v=85
196416 On ch=2 n=45 v=85
196604 Off ch=2 n=45 v=85
196608 Par ch=2 c=7 v=84
196608 PrCh ch=2 p=17
196608 On ch=2 n=50 v=85
196988 Off ch=2 n=50 v=85
196992 On ch=2 n=45 v=85
197180 Off ch=2 n=45 v=85
197184 On ch=2 n=50 v=85
197372 Off ch=2 n=50 v=85
197376 On ch=2 n=38 v=85
197948 Off ch=2 n=38 v=85
197952 On ch=2 n=45 v=85
198140 Off ch=2 n=45 v=85
198144 On ch=2 n=50 v=85
198524 Off ch=2 n=50 v=85
198528 On ch=2 n=45 v=85
198716 Off ch=2 n=45 v=85
198720 On ch=2 n=50 v=85
198908 Off ch=2 n=50 v=85
198912 On ch=2 n=38 v=85
199484 Off ch=2 n=38 v=85
199488 On ch=2 n=45 v=85
199676 Off ch=2 n=45 v=85
199680 Par ch=2 c=7 v=84
199680 PrCh ch=2 p=17
199680 On ch=2 n=50 v=85
200060 Off ch=2 n=50 v=85
200064 On ch=2 n=45 v=85
200252 Off ch=2 n=45 v=85
200256 On ch=2 n=50 v=85
200444 Off ch=2 n=50 v=85
200448 On ch=2 n=38 v=85
201020 Off ch=2 n=38 v=85
201024 On ch=2 n=45 v=85
201212 Off ch=2 n=45 v=85
201216 On ch=2 n=50 v=85
201596 Off ch=2 n=50 v=85
201600 On ch=2 n=45 v=85
201788 Off ch=2 n=45 v=85
201792 On ch=2 n=50 v=85
201980 Off ch=2 n=50 v=85
201984 On ch=2 n=38 v=85
202556 Off ch=2 n=38 v=85
202560 On ch=2 n=45 v=85
202748 Off ch=2 n=45 v=85
202752 Par ch=2 c=7 v=84
202752 PrCh ch=2 p=17
202752 On ch=2 n=50 v=85
203132 Off ch=2 n=50 v=85
203136 On ch=2 n=45 v=85
203324 Off ch=2 n=45 v=85
203328 On ch=2 n=50 v=85
203516 Off ch=2 n=50 v=85
203520 On ch=2 n=38 v=85
204092 Off ch=2 n=38 v=85
204096 On ch=2 n=45 v=85
204284 Off ch=2 n=45 v=85
204288 On ch=2 n=50 v=85
204668 Off ch=2 n=50 v=85
204672 On ch=2 n=45 v=85
204860 Off ch=2 n=45 v=85
204864 On ch=2 n=50 v=85
205052 Off ch=2 n=50 v=85
205056 On ch=2 n=38 v=85
205628 Off ch=2 n=38 v=85
205824 Par ch=2 c=7 v=84
205824 PrCh ch=2 p=17
205851 On ch=2 n=45 v=81
206601 On ch=2 n=43 v=91
206645 Off ch=2 n=45 v=81
207443 On ch=2 n=41 v=89
207492 Off ch=2 n=43 v=91
208260 On ch=2 n=38 v=76
208316 Off ch=2 n=41 v=89
211827 Off ch=2 n=38 v=76
213504 Meta TrkEnd
TrkEnd
MTrk
0 Meta TrkName "elecorgan"
847 Par ch=3 c=7 v=49
847 PrCh ch=3 p=16
16908 On ch=3 n=81 v=44
18804 On ch=3 n=84 v=41
18810 On ch=3 n=72 v=48
18816 Off ch=3 n=81 v=44
19160 Off ch=3 n=84 v=41
19211 On ch=3 n=84 v=36
19584 On ch=3 n=83 v=32
19807 Off ch=3 n=84 v=36
19950 On ch=3 n=74 v=65
19956 On ch=3 n=81 v=70
19968 Off ch=3 n=83 v=32
19968 Off ch=3 n=72 v=48
22914 Off ch=3 n=81 v=70
23040 Off ch=3 n=74 v=65
23040 On ch=3 n=62 v=32
23040 On ch=3 n=69 v=85
23228 Off ch=3 n=69 v=85
23232 On ch=3 n=69 v=82
23420 Off ch=3 n=69 v=82
23424 Off ch=3 n=62 v=32
23424 On ch=3 n=69 v=85
23612 Off ch=3 n=69 v=85
23616 On ch=3 n=69 v=85
24576 Off ch=3 n=69 v=85
24576 Par ch=3 c=7 v=34
24960 On ch=3 n=72 v=65
24960 On ch=3 n=60 v=65
25340 Off ch=3 n=72 v=65
25344 On ch=3 n=72 v=64
25724 Off ch=3 n=72 v=64
25724 Off ch=3 n=60 v=65
25728 On ch=3 n=67 v=67
26108 Off ch=3 n=67 v=67
26112 Par ch=3 c=7 v=47
26112 On ch=3 n=69 v=85
26112 On ch=3 n=62 v=85
26684 Off ch=3 n=69 v=85
26688 On ch=3 n=72 v=85
26876 Off ch=3 n=72 v=85
26876 Off ch=3 n=62 v=85
26880 On ch=3 n=69 v=85
27072 On ch=3 n=62 v=85
27456 On ch=3 n=61 v=85
27459 Off ch=3 n=62 v=85
27644 Off ch=3 n=61 v=85
27644 Off ch=3 n=69 v=85
27648 On ch=3 n=62 v=77
28416 Off ch=3 n=62 v=77
28416 On ch=3 n=71 v=86
28800 Off ch=3 n=71 v=86
28800 On ch=3 n=72 v=85
28800 On ch=3 n=64 v=85
28800 On ch=3 n=67 v=85
29180 Off ch=3 n=72 v=85
29184 On ch=3 n=74 v=85
29564 Off ch=3 n=74 v=85
29564 Off ch=3 n=67 v=85
29564 Off ch=3 n=64 v=85
29568 On ch=3 n=71 v=85
29568 On ch=3 n=67 v=85
29568 On ch=3 n=62 v=85
29948 Off ch=3 n=71 v=85
29952 On ch=3 n=67 v=85
30332 Off ch=3 n=67 v=85
30332 Off ch=3 n=62 v=85
30332 Off ch=3 n=67 v=85
30336 On ch=3 n=69 v=85
30336 On ch=3 n=62 v=85
30908 Off ch=3 n=69 v=85
30912 On ch=3 n=72 v=85
31100 Off ch=3 n=72 v=85
31100 Off ch=3 n=62 v=85
31104 On ch=3 n=69 v=85
31296 On ch=3 n=62 v=85
31680 On ch=3 n=61 v=85
31683 Off ch=3 n=62 v=85
31868 Off ch=3 n=61 v=85
31868 Off ch=3 n=69 v=85
31872 On ch=3 n=62 v=77
32640 Off ch=3 n=62 v=77
32640 On ch=3 n=71 v=86
33024 Off ch=3 n=71 v=86
33024 On ch=3 n=72 v=85
33024 On ch=3 n=64 v=85
33024 On ch=3 n=67 v=85
33404 Off ch=3 n=72 v=85
33408 On ch=3 n=74 v=85
33788 Off ch=3 n=74 v=85
33788 Off ch=3 n=67 v=85
33788 Off ch=3 n=64 v=85
33792 On ch=3 n=71 v=85
33792 On ch=3 n=67 v=85
33792 On ch=3 n=62 v=85
34172 Off ch=3 n=71 v=85
34176 On ch=3 n=67 v=85
34556 Off ch=3 n=67 v=85
34556 Off ch=3 n=62 v=85
34556 Off ch=3 n=67 v=85
34560 Par ch=3 c=7 v=47
34560 On ch=3 n=69 v=85
34560 On ch=3 n=62 v=85
35132 Off ch=3 n=69 v=85
35136 On ch=3 n=72 v=85
35324 Off ch=3 n=72 v=85
35324 Off ch=3 n=62 v=85
35328 On ch=3 n=69 v=85
35520 On ch=3 n=62 v=85
35904 On ch=3 n=61 v=85
35907 Off ch=3 n=62 v=85
36092 Off ch=3 n=61 v=85
36092 Off ch=3 n=69 v=85
36096 On ch=3 n=62 v=77
36864 Off ch=3 n=62 v=77
36864 On ch=3 n=71 v=86
37248 Off ch=3 n=71 v=86
37248 Par ch=3 c=7 v=47
37248 On ch=3 n=72 v=85
37248 On ch=3 n=64 v=85
37248 On ch=3 n=67 v=85
37628 Off ch=3 n=72 v=85
37632 On ch=3 n=74 v=85
38012 Off ch=3 n=74 v=85
38012 Off ch=3 n=67 v=85
38012 Off ch=3 n=64 v=85
38016 On ch=3 n=71 v=85
38016 On ch=3 n=67 v=85
38016 On ch=3 n=62 v=85
38396 Off ch=3 n=71 v=85
38400 On ch=3 n=67 v=85
38780 Off ch=3 n=67 v=85
38780 Off ch=3 n=62 v=85
38780 Off ch=3 n=67 v=85
38784 Par ch=3 c=7 v=47
38784 On ch=3 n=69 v=85
38784 On ch=3 n=62 v=85
39356 Off ch=3 n=69 v=85
39360 On ch=3 n=72 v=85
39548 Off ch=3 n=72 v=85
39548 Off ch=3 n=62 v=85
39552 On ch=3 n=69 v=85
39744 On ch=3 n=62 v=85
40128 On ch=3 n=61 v=85
40131 Off ch=3 n=62 v=85
40316 Off ch=3 n=61 v=85
40316 Off ch=3 n=69 v=85
40320 On ch=3 n=62 v=77
41088 Off ch=3 n=62 v=77
41088 On ch=3 n=71 v=86
41472 Off ch=3 n=71 v=86
41472 Par ch=3 c=7 v=47
41472 On ch=3 n=64 v=75
41472 On ch=3 n=74 v=75
41472 On ch=3 n=67 v=75
41664 Off ch=3 n=74 v=75
41664 On ch=3 n=72 v=85
42240 Off ch=3 n=72 v=85
42240 Off ch=3 n=67 v=75
42240 Off ch=3 n=64 v=75
42240 On ch=3 n=64 v=86
42240 On ch=3 n=74 v=86
42240 On ch=3 n=67 v=86
42624 Off ch=3 n=74 v=86
42624 On ch=3 n=74 v=90
43008 Off ch=3 n=74 v=90
43008 Off ch=3 n=67 v=86
43008 Off ch=3 n=64 v=86
43008 On ch=3 n=74 v=86
43008 On ch=3 n=64 v=83
43008 On ch=3 n=67 v=83
43200 Off ch=3 n=74 v=86
43200 On ch=3 n=72 v=90
43776 Off ch=3 n=72 v=90
43776 Off ch=3 n=67 v=83
43776 Off ch=3 n=64 v=83
43776 On ch=3 n=62 v=85
43776 On ch=3 n=69 v=85
44928 Off ch=3 n=69 v=85
44928 On ch=3 n=72 v=85
45312 Off ch=3 n=72 v=85
45312 Off ch=3 n=62 v=85
45312 On ch=3 n=69 v=86
45312 On ch=3 n=62 v=86
46080 Off ch=3 n=62 v=86
46272 On ch=3 n=62 v=85
46656 Off ch=3 n=62 v=85
46656 On ch=3 n=61 v=82
46848 Off ch=3 n=61 v=82
46848 On ch=3 n=62 v=80
47616 Off ch=3 n=62 v=80
47808 On ch=3 n=62 v=85
48192 Off ch=3 n=62 v=85
48192 On ch=3 n=61 v=86
48384 Off ch=3 n=61 v=86
48384 Off ch=3 n=69 v=86
48384 Par ch=3 c=10 v=127
48384 On ch=3 n=62 v=85
49152 On ch=3 n=69 v=85
49532 Off ch=3 n=69 v=85
49536 On ch=3 n=69 v=85
49916 Off ch=3 n=69 v=85
49916 Off ch=3 n=62 v=85
49920 On ch=3 n=76 v=85
49920 On ch=3 n=72 v=85
49920 On ch=3 n=64 v=85
49920 On ch=3 n=67 v=85
50108 Off ch=3 n=76 v=85
50112 On ch=3 n=76 v=85
50876 Off ch=3 n=76 v=85
50880 On ch=3 n=76 v=85
51068 Off ch=3 n=76 v=85
51072 On ch=3 n=76 v=85
51452 Off ch=3 n=76 v=85
51452 Off ch=3 n=67 v=85
51452 Off ch=3 n=64 v=85
51452 Off ch=3 n=72 v=85
51456 On ch=3 n=74 v=85
51456 On ch=3 n=69 v=85
51456 On ch=3 n=62 v=85
52604 Off ch=3 n=62 v=85
52604 Off ch=3 n=69 v=85
52604 Off ch=3 n=74 v=85
52608 On ch=3 n=76 v=85
52608 On ch=3 n=65 v=85
52796 Off ch=3 n=76 v=85
52800 On ch=3 n=74 v=85
52988 Off ch=3 n=74 v=85
52988 Off ch=3 n=65 v=85
52992 On ch=3 n=67 v=85
52992 On ch=3 n=77 v=85
52992 On ch=3 n=65 v=85
53372 Off ch=3 n=65 v=85
53372 Off ch=3 n=77 v=85
53376 On ch=3 n=64 v=82
53376 On ch=3 n=76 v=82
53760 Off ch=3 n=76 v=82
53760 Off ch=3 n=64 v=82
53760 On ch=3 n=62 v=82
53760 On ch=3 n=74 v=82
54144 Off ch=3 n=74 v=82
54144 Off ch=3 n=62 v=82
54144 Off ch=3 n=67 v=85
54144 On ch=3 n=60 v=82
54144 On ch=3 n=72 v=82
54528 Off ch=3 n=72 v=82
54528 Off ch=3 n=60 v=82
54528 On ch=3 n=69 v=85
54528 On ch=3 n=62 v=85
54528 On ch=3 n=57 v=85
56060 Off ch=3 n=57 v=85
56060 Off ch=3 n=62 v=85
56060 Off ch=3 n=69 v=85
56064 On ch=3 n=67 v=85
56064 On ch=3 n=73 v=85
56064 On ch=3 n=74 v=85
56064 On ch=3 n=62 v=85
56444 Off ch=3 n=62 v=85
56444 Off ch=3 n=74 v=85
56448 On ch=3 n=74 v=85
56448 On ch=3 n=62 v=85
56828 Off ch=3 n=62 v=85
56828 Off ch=3 n=74 v=85
56832 On ch=3 n=74 v=85
56832 On ch=3 n=62 v=85
57212 Off ch=3 n=62 v=85
57212 Off ch=3 n=74 v=85
57216 On ch=3 n=74 v=85
57216 On ch=3 n=62 v=85
57504 Off ch=3 n=73 v=85
57504 Off ch=3 n=67 v=85
57596 Off ch=3 n=62 v=85
57596 Off ch=3 n=74 v=85
57600 On ch=3 n=74 v=85
57600 On ch=3 n=62 v=85
57788 Off ch=3 n=74 v=85
57792 On ch=3 n=69 v=85
58364 Off ch=3 n=69 v=85
58560 On ch=3 n=72 v=85
58748 Off ch=3 n=72 v=85
58752 On ch=3 n=72 v=85
59132 Off ch=3 n=72 v=85
59132 Off ch=3 n=62 v=85
59904 On ch=3 n=72 v=85
59904 On ch=3 n=62 v=85
60284 Off ch=3 n=72 v=85
60288 On ch=3 n=67 v=85
60668 Off ch=3 n=67 v=85
60668 Off ch=3 n=62 v=85
60672 On ch=3 n=79 v=85
61436 Off ch=3 n=79 v=85
61440 On ch=3 n=69 v=85
61440 On ch=3 n=62 v=85
62204 Off ch=3 n=69 v=85
62208 Off ch=3 n=62 v=85
62976 On ch=3 n=77 v=85
62976 On ch=3 n=65 v=85
63356 Off ch=3 n=65 v=85
63356 Off ch=3 n=77 v=85
63360 On ch=3 n=72 v=85
63744 Off ch=3 n=72 v=85
63744 On ch=3 n=74 v=85
63744 On ch=3 n=69 v=85
63744 On ch=3 n=62 v=85
64508 Off ch=3 n=62 v=85
64512 On ch=3 n=62 v=85
64896 On ch=3 n=61 v=85
64899 Off ch=3 n=62 v=85
65084 Off ch=3 n=61 v=85
66240 On ch=3 n=62 v=114
66624 On ch=3 n=61 v=111
66627 Off ch=3 n=62 v=114
66812 Off ch=3 n=61 v=111
67776 On ch=3 n=62 v=95
68160 On ch=3 n=61 v=113
68163 Off ch=3 n=62 v=95
68348 Off ch=3 n=61 v=113
70656 Par ch=3 c=7 v=49
70656 PrCh ch=3 p=16
70656 On ch=3 n=62 v=70
70656 On ch=3 n=69 v=69
71787 On ch=3 n=67 v=76
71882 Off ch=3 n=62 v=70
71904 Off ch=3 n=69 v=69
72194 On ch=3 n=62 v=66
72199 On ch=3 n=69 v=69
72264 Off ch=3 n=67 v=76
73700 Off ch=3 n=69 v=69
73713 Off ch=3 n=62 v=66
73728 Par ch=3 c=7 v=49
73728 PrCh ch=3 p=16
73728 On ch=3 n=62 v=70
73728 On ch=3 n=69 v=69
74859 On ch=3 n=67 v=76
74954 Off ch=3 n=62 v=70
74976 Off ch=3 n=69 v=69
75266 On ch=3 n=62 v=66
75271 On ch=3 n=69 v=69
75336 Off ch=3 n=67 v=76
76772 Off ch=3 n=69 v=69
76785 Off ch=3 n=62 v=66
76800 Par ch=3 c=7 v=49
76800 PrCh ch=3 p=16
76800 On ch=3 n=62 v=70
76800 On ch=3 n=69 v=69
77931 On ch=3 n=67 v=76
78026 Off ch=3 n=62 v=70
78048 Off ch=3 n=69 v=69
78338 On ch=3 n=62 v=66
78343 On ch=3 n=69 v=69
78408 Off ch=3 n=67 v=76
79100 Off ch=3 n=69 v=85
79100 Off ch=3 n=74 v=85
79844 Off ch=3 n=69 v=69
79857 Off ch=3 n=62 v=66
79872 Par ch=3 c=7 v=49
79872 PrCh ch=3 p=16
79872 On ch=3 n=62 v=70
79872 On ch=3 n=69 v=69
81003 On ch=3 n=67 v=76
81098 Off ch=3 n=62 v=70
81120 Off ch=3 n=69 v=69
81410 On ch=3 n=62 v=66
81415 On ch=3 n=69 v=69
81480 Off ch=3 n=67 v=76
82916 Off ch=3 n=69 v=69
82929 Off ch=3 n=62 v=66
82944 Par ch=3 c=7 v=49
82944 PrCh ch=3 p=16
82944 On ch=3 n=62 v=70
82944 On ch=3 n=69 v=69
84075 On ch=3 n=67 v=76
84170 Off ch=3 n=62 v=70
84192 Off ch=3 n=69 v=69
84482 On ch=3 n=62 v=66
84487 On ch=3 n=69 v=69
84552 Off ch=3 n=67 v=76
85988 Off ch=3 n=69 v=69
86001 Off ch=3 n=62 v=66
86016 Par ch=3 c=7 v=49
86016 PrCh ch=3 p=16
86016 On ch=3 n=62 v=70
86016 On ch=3 n=69 v=69
87147 On ch=3 n=67 v=76
87242 Off ch=3 n=62 v=70
87264 Off ch=3 n=69 v=69
87554 On ch=3 n=62 v=66
87559 On ch=3 n=69 v=69
87624 Off ch=3 n=67 v=76
89060 Off ch=3 n=69 v=69
89073 Off ch=3 n=62 v=66
89088 Par ch=3 c=7 v=49
89088 PrCh ch=3 p=16
89088 On ch=3 n=62 v=70
89088 On ch=3 n=69 v=69
90219 On ch=3 n=67 v=76
90314 Off ch=3 n=62 v=70
90336 Off ch=3 n=69 v=69
90626 On ch=3 n=62 v=66
90631 On ch=3 n=69 v=69
90696 Off ch=3 n=67 v=76
92132 Off ch=3 n=69 v=69
92145 Off ch=3 n=62 v=66
92160 Par ch=3 c=7 v=49
92160 PrCh ch=3 p=16
92160 On ch=3 n=62 v=70
92160 On ch=3 n=69 v=69
93291 On ch=3 n=67 v=76
93386 Off ch=3 n=62 v=70
93408 Off ch=3 n=69 v=69
93698 On ch=3 n=62 v=66
93703 On ch=3 n=69 v=69
93768 Off ch=3 n=67 v=76
95204 Off ch=3 n=69 v=69
95217 Off ch=3 n=62 v=66
95232 Par ch=3 c=7 v=49
95232 PrCh ch=3 p=16
95232 On ch=3 n=62 v=70
95232 On ch=3 n=69 v=69
96363 On ch=3 n=67 v=76
96458 Off ch=3 n=62 v=70
96480 Off ch=3 n=69 v=69
96770 On ch=3 n=62 v=66
96775 On ch=3 n=69 v=69
96840 Off ch=3 n=67 v=76
98276 Off ch=3 n=69 v=69
98289 Off ch=3 n=62 v=66
98304 Par ch=3 c=7 v=49
98304 PrCh ch=3 p=16
98304 On ch=3 n=62 v=70
98304 On ch=3 n=69 v=69
99435 On ch=3 n=67 v=76
99530 Off ch=3 n=62 v=70
99552 Off ch=3 n=69 v=69
99842 On ch=3 n=62 v=66
99847 On ch=3 n=69 v=69
99912 Off ch=3 n=67 v=76
101348 Off ch=3 n=69 v=69
101361 Off ch=3 n=62 v=66
101376 Par ch=3 c=7 v=49
101376 PrCh ch=3 p=16
101376 On ch=3 n=62 v=70
101376 On ch=3 n=69 v=69
102507 On ch=3 n=67 v=76
102602 Off ch=3 n=62 v=70
102624 Off ch=3 n=69 v=69
102914 On ch=3 n=62 v=66
102919 On ch=3 n=69 v=69
102984 Off ch=3 n=67 v=76
104420 Off ch=3 n=69 v=69
104433 Off ch=3 n=62 v=66
104448 Par ch=3 c=7 v=49
104448 PrCh ch=3 p=16
104448 On ch=3 n=62 v=70
104448 On ch=3 n=69 v=69
105579 On ch=3 n=67 v=76
105674 Off ch=3 n=62 v=70
105696 Off ch=3 n=69 v=69
105986 On ch=3 n=62 v=66
105991 On ch=3 n=69 v=69
106056 Off ch=3 n=67 v=76
107492 Off ch=3 n=69 v=69
107505 Off ch=3 n=62 v=66
107520 Par ch=3 c=7 v=49
107520 PrCh ch=3 p=16
107520 On ch=3 n=62 v=70
107520 On ch=3 n=69 v=69
108651 On ch=3 n=67 v=76
108746 Off ch=3 n=62 v=70
108768 Off ch=3 n=69 v=69
109058 On ch=3 n=62 v=66
109063 On ch=3 n=69 v=69
109128 Off ch=3 n=67 v=76
110564 Off ch=3 n=69 v=69
110577 Off ch=3 n=62 v=66
110592 Par ch=3 c=7 v=49
110592 PrCh ch=3 p=16
110592 On ch=3 n=62 v=70
110592 On ch=3 n=69 v=69
111723 On ch=3 n=67 v=76
111818 Off ch=3 n=62 v=70
111840 Off ch=3 n=69 v=69
112130 On ch=3 n=62 v=66
112135 On ch=3 n=69 v=69
112200 Off ch=3 n=67 v=76
113636 Off ch=3 n=69 v=69
113649 Off ch=3 n=62 v=66
113664 Par ch=3 c=7 v=49
113664 PrCh ch=3 p=16
113664 On ch=3 n=62 v=70
113664 On ch=3 n=69 v=69
114795 On ch=3 n=67 v=76
114890 Off ch=3 n=62 v=70
114912 Off ch=3 n=69 v=69
115202 On ch=3 n=62 v=66
115207 On ch=3 n=69 v=69
115272 Off ch=3 n=67 v=76
116708 Off ch=3 n=69 v=69
116721 Off ch=3 n=62 v=66
116736 Par ch=3 c=7 v=49
116736 PrCh ch=3 p=16
116736 On ch=3 n=62 v=70
116736 On ch=3 n=69 v=69
117867 On ch=3 n=67 v=76
117962 Off ch=3 n=62 v=70
117984 Off ch=3 n=69 v=69
118274 On ch=3 n=62 v=66
118279 On ch=3 n=69 v=69
118344 Off ch=3 n=67 v=76
119780 Off ch=3 n=69 v=69
119793 Off ch=3 n=62 v=66
119808 Par ch=3 c=7 v=49
119808 PrCh ch=3 p=16
119808 On ch=3 n=62 v=70
119808 On ch=3 n=69 v=69
120939 On ch=3 n=67 v=76
121034 Off ch=3 n=62 v=70
121056 Off ch=3 n=69 v=69
121346 On ch=3 n=62 v=66
121351 On ch=3 n=69 v=69
121416 Off ch=3 n=67 v=76
122852 Off ch=3 n=69 v=69
122865 Off ch=3 n=62 v=66
122880 Par ch=3 c=7 v=49
122880 PrCh ch=3 p=16
122880 On ch=3 n=62 v=70
122880 On ch=3 n=69 v=69
124011 On ch=3 n=67 v=76
124106 Off ch=3 n=62 v=70
124128 Off ch=3 n=69 v=69
124418 On ch=3 n=62 v=66
124423 On ch=3 n=69 v=69
124488 Off ch=3 n=67 v=76
125924 Off ch=3 n=69 v=69
125937 Off ch=3 n=62 v=66
125952 Par ch=3 c=7 v=49
125952 PrCh ch=3 p=16
125952 On ch=3 n=62 v=70
125952 On ch=3 n=69 v=69
127083 On ch=3 n=67 v=76
127178 Off ch=3 n=62 v=70
127200 Off ch=3 n=69 v=69
127490 On ch=3 n=62 v=66
127495 On ch=3 n=69 v=69
127560 Off ch=3 n=67 v=76
128996 Off ch=3 n=69 v=69
129009 Off ch=3 n=62 v=66
129024 Par ch=3 c=7 v=49
129024 PrCh ch=3 p=16
129024 On ch=3 n=62 v=70
129024 On ch=3 n=69 v=69
130155 On ch=3 n=67 v=76
130250 Off ch=3 n=62 v=70
130272 Off ch=3 n=69 v=69
130562 On ch=3 n=62 v=66
130567 On ch=3 n=69 v=69
130632 Off ch=3 n=67 v=76
132068 Off ch=3 n=69 v=69
132081 Off ch=3 n=62 v=66
132096 Par ch=3 c=7 v=49
132096 PrCh ch=3 p=16
132096 On ch=3 n=62 v=70
132096 On ch=3 n=69 v=69
133227 On ch=3 n=67 v=76
133322 Off ch=3 n=62 v=70
133344 Off ch=3 n=69 v=69
133634 On ch=3 n=62 v=66
133639 On ch=3 n=69 v=69
133704 Off ch=3 n=67 v=76
135140 Off ch=3 n=69 v=69
135153 Off ch=3 n=62 v=66
135168 Par ch=3 c=7 v=49
135168 PrCh ch=3 p=16
135168 On ch=3 n=62 v=70
135168 On ch=3 n=69 v=69
136299 On ch=3 n=67 v=76
136394 Off ch=3 n=62 v=70
136416 Off ch=3 n=69 v=69
136706 On ch=3 n=62 v=66
136711 On ch=3 n=69 v=69
136776 Off ch=3 n=67 v=76
138212 Off ch=3 n=69 v=69
138225 Off ch=3 n=62 v=66
138240 Par ch=3 c=7 v=49
138240 PrCh ch=3 p=16
138240 On ch=3 n=62 v=70
138240 On ch=3 n=69 v=69
139371 On ch=3 n=67 v=76
139466 Off ch=3 n=62 v=70
139488 Off ch=3 n=69 v=69
139778 On ch=3 n=62 v=66
139783 On ch=3 n=69 v=69
139848 Off ch=3 n=67 v=76
141284 Off ch=3 n=69 v=69
141297 Off ch=3 n=62 v=66
141312 Par ch=3 c=7 v=49
141312 PrCh ch=3 p=16
141312 On ch=3 n=62 v=70
141312 On ch=3 n=69 v=69
142443 On ch=3 n=67 v=76
142538 Off ch=3 n=62 v=70
142560 Off ch=3 n=69 v=69
142850 On ch=3 n=62 v=66
142855 On ch=3 n=69 v=69
142920 Off ch=3 n=67 v=76
144356 Off ch=3 n=69 v=69
144369 Off ch=3 n=62 v=66
144384 Par ch=3 c=7 v=49
144384 PrCh ch=3 p=16
144384 On ch=3 n=62 v=70
144384 On ch=3 n=69 v=69
145515 On ch=3 n=67 v=76
145610 Off ch=3 n=62 v=70
145632 Off ch=3 n=69 v=69
145922 On ch=3 n=62 v=66
145927 On ch=3 n=69 v=69
145992 Off ch=3 n=67 v=76
147428 Off ch=3 n=69 v=69
147441 Off ch=3 n=62 v=66
147456 Par ch=3 c=7 v=49
147456 PrCh ch=3 p=16
147456 On ch=3 n=62 v=70
147456 On ch=3 n=69 v=69
148587 On ch=3 n=67 v=76
148682 Off ch=3 n=62 v=70
148704 Off ch=3 n=69 v=69
148994 On ch=3 n=62 v=66
148999 On ch=3 n=69 v=69
149064 Off ch=3 n=67 v=76
150500 Off ch=3 n=69 v=69
150513 Off ch=3 n=62 v=66
150528 Par ch=3 c=7 v=49
150528 PrCh ch=3 p=16
150528 On ch=3 n=62 v=70
150528 On ch=3 n=69 v=69
151659 On ch=3 n=67 v=76
151754 Off ch=3 n=62 v=70
151776 Off ch=3 n=69 v=69
152066 On ch=3 n=62 v=66
152071 On ch=3 n=69 v=69
152136 Off ch=3 n=67 v=76
153572 Off ch=3 n=69 v=69
153585 Off ch=3 n=62 v=66
153600 Par ch=3 c=7 v=49
153600 PrCh ch=3 p=16
153600 On ch=3 n=62 v=70
153600 On ch=3 n=69 v=69
154731 On ch=3 n=67 v=76
154826 Off ch=3 n=62 v=70
154848 Off ch=3 n=69 v=69
155138 On ch=3 n=62 v=66
155143 On ch=3 n=69 v=69
155208 Off ch=3 n=67 v=76
156644 Off ch=3 n=69 v=69
156657 Off ch=3 n=62 v=66
156672 Par ch=3 c=7 v=49
156672 PrCh ch=3 p=16
156672 On ch=3 n=62 v=70
156672 On ch=3 n=69 v=69
157803 On ch=3 n=67 v=76
157898 Off ch=3 n=62 v=70
157920 Off ch=3 n=69 v=69
158210 On ch=3 n=62 v=66
158215 On ch=3 n=69 v=69
158280 Off ch=3 n=67 v=76
159716 Off ch=3 n=69 v=69
159729 Off ch=3 n=62 v=66
159744 Par ch=3 c=7 v=49
159744 PrCh ch=3 p=16
159744 On ch=3 n=62 v=70
159744 On ch=3 n=69 v=69
160875 On ch=3 n=67 v=76
160970 Off ch=3 n=62 v=70
160992 Off ch=3 n=69 v=69
161282 On ch=3 n=62 v=66
161287 On ch=3 n=69 v=69
161352 Off ch=3 n=67 v=76
162788 Off ch=3 n=69 v=69
162801 Off ch=3 n=62 v=66
162816 Par ch=3 c=7 v=49
162816 PrCh ch=3 p=16
162816 On ch=3 n=62 v=70
162816 On ch=3 n=69 v=69
163947 On ch=3 n=67 v=76
164042 Off ch=3 n=62 v=70
164064 Off ch=3 n=69 v=69
164354 On ch=3 n=62 v=66
164359 On ch=3 n=69 v=69
164424 Off ch=3 n=67 v=76
165860 Off ch=3 n=69 v=69
165873 Off ch=3 n=62 v=66
165888 Par ch=3 c=7 v=49
165888 PrCh ch=3 p=16
165888 On ch=3 n=62 v=70
165888 On ch=3 n=69 v=69
167019 On ch=3 n=67 v=76
167114 Off ch=3 n=62 v=70
167136 Off ch=3 n=69 v=69
167426 On ch=3 n=62 v=66
167431 On ch=3 n=69 v=69
167496 Off ch=3 n=67 v=76
168932 Off ch=3 n=69 v=69
168945 Off ch=3 n=62 v=66
168960 Par ch=3 c=7 v=49
168960 PrCh ch=3 p=16
168960 On ch=3 n=62 v=70
168960 On ch=3 n=69 v=69
170091 On ch=3 n=67 v=76
170186 Off ch=3 n=62 v=70
170208 Off ch=3 n=69 v=69
170498 On ch=3 n=62 v=66
170503 On ch=3 n=69 v=69
170568 Off ch=3 n=67 v=76
172004 Off ch=3 n=69 v=69
172017 Off ch=3 n=62 v=66
172032 Par ch=3 c=7 v=49
172032 PrCh ch=3 p=16
172032 On ch=3 n=62 v=70
172032 On ch=3 n=69 v=69
173163 On ch=3 n=67 v=76
173258 Off ch=3 n=62 v=70
173280 Off ch=3 n=69 v=69
173570 On ch=3 n=62 v=66
173575 On ch=3 n=69 v=69
173640 Off ch=3 n=67 v=76
175076 Off ch=3 n=69 v=69
175089 Off ch=3 n=62 v=66
175104 Par ch=3 c=7 v=49
175104 PrCh ch=3 p=16
175104 On ch=3 n=62 v=70
175104 On ch=3 n=69 v=69
176235 On ch=3 n=67 v=76
176330 Off ch=3 n=62 v=70
176352 Off ch=3 n=69 v=69
176642 On ch=3 n=62 v=66
176647 On ch=3 n=69 v=69
176712 Off ch=3 n=67 v=76
178148 Off ch=3 n=69 v=69
178161 Off ch=3 n=62 v=66
178176 Par ch=3 c=7 v=49
178176 PrCh ch=3 p=16
178176 On ch=3 n=62 v=70
178176 On ch=3 n=69 v=69
179307 On ch=3 n=67 v=76
179402 Off ch=3 n=62 v=70
179424 Off ch=3 n=69 v=69
179714 On ch=3 n=62 v=66
179719 On ch=3 n=69 v=69
179784 Off ch=3 n=67 v=76
181220 Off ch=3 n=69 v=69
181233 Off ch=3 n=62 v=66
181248 Par ch=3 c=7 v=49
181248 PrCh ch=3 p=16
181248 On ch=3 n=62 v=70
181248 On ch=3 n=69 v=69
182379 On ch=3 n=67 v=76
182474 Off ch=3 n=62 v=70
182496 Off ch=3 n=69 v=69
182786 On ch=3 n=62 v=66
182791 On ch=3 n=69 v=69
182856 Off ch=3 n=67 v=76
184292 Off ch=3 n=69 v=69
184305 Off ch=3 n=62 v=66
184320 Par ch=3 c=7 v=49
184320 PrCh ch=3 p=16
184320 On ch=3 n=62 v=70
184320 On ch=3 n=69 v=69
185451 On ch=3 n=67 v=76
185546 Off ch=3 n=62 v=70
185568 Off ch=3 n=69 v=69
185858 On ch=3 n=62 v=66
185863 On ch=3 n=69 v=69
185928 Off ch=3 n=67 v=76
187364 Off ch=3 n=69 v=69
187377 Off ch=3 n=62 v=66
187392 Par ch=3 c=7 v=49
187392 PrCh ch=3 p=16
187392 On ch=3 n=62 v=70
187392 On ch=3 n=69 v=69
188523 On ch=3 n=67 v=76
188618 Off ch=3 n=62 v=70
188640 Off ch=3 n=69 v=69
188930 On ch=3 n=62 v=66
188935 On ch=3 n=69 v=69
189000 Off ch=3 n=67 v=76
190436 Off ch=3 n=69 v=69
190449 Off ch=3 n=62 v=66
190464 Par ch=3 c=7 v=49
190464 PrCh ch=3 p=16
190464 On ch=3 n=62 v=70
190464 On ch=3 n=69 v=69
191595 On ch=3 n=67 v=76
191690 Off ch=3 n=62 v=70
191712 Off ch=3 n=69 v=69
192002 On ch=3 n=62 v=66
192007 On ch=3 n=69 v=69
192072 Off ch=3 n=67 v=76
193508 Off ch=3 n=69 v=69
193521 Off ch=3 n=62 v=66
193536 Par ch=3 c=7 v=49
193536 PrCh ch=3 p=16
193536 On ch=3 n=62 v=70
193536 On ch=3 n=69 v=69
194667 On ch=3 n=67 v=76
194762 Off ch=3 n=62 v=70
194784 Off ch=3 n=69 v=69
195074 On ch=3 n=62 v=66
195079 On ch=3 n=69 v=69
195144 Off ch=3 n=67 v=76
196580 Off ch=3 n=69 v=69
196593 Off ch=3 n=62 v=66
196608 Par ch=3 c=7 v=49
196608 PrCh ch=3 p=16
196608 On ch=3 n=62 v=70
196608 On ch=3 n=69 v=69
197739 On ch=3 n=67 v=76
197834 Off ch=3 n=62 v=70
197856 Off ch=3 n=69 v=69
198146 On ch=3 n=62 v=66
198151 On ch=3 n=69 v=69
198216 Off ch=3 n=67 v=76
199652 Off ch=3 n=69 v=69
199665 Off ch=3 n=62 v=66
199680 Par ch=3 c=7 v=49
199680 PrCh ch=3 p=16
199680 On ch=3 n=62 v=70
199680 On ch=3 n=69 v=69
200811 On ch=3 n=67 v=76
200906 Off ch=3 n=62 v=70
200928 Off ch=3 n=69 v=69
201218 On ch=3 n=62 v=66
201223 On ch=3 n=69 v=69
201288 Off ch=3 n=67 v=76
202724 Off ch=3 n=69 v=69
202737 Off ch=3 n=62 v=66
202752 Par ch=3 c=7 v=49
202752 PrCh ch=3 p=16
202752 On ch=3 n=62 v=70
202752 On ch=3 n=69 v=69
203883 On ch=3 n=67 v=76
203978 Off ch=3 n=62 v=70
204000 Off ch=3 n=69 v=69
204290 On ch=3 n=62 v=66
204295 On ch=3 n=69 v=69
204360 Off ch=3 n=67 v=76
205796 Off ch=3 n=69 v=69
205809 Off ch=3 n=62 v=66
205824 Par ch=3 c=7 v=49
205851 On ch=3 n=45 v=81
206601 On ch=3 n=43 v=91
206645 Off ch=3 n=45 v=81
207443 On ch=3 n=41 v=89
207492 Off ch=3 n=43 v=91
208260 On ch=3 n=38 v=76
208316 Off ch=3 n=41 v=89
211827 Off ch=3 n=38 v=76
213504 Meta TrkEnd
TrkEnd
MTrk
0 Meta TrkName "warmpad"
16896 Par ch=4 c=7 v=75
16896 PrCh ch=4 p=89
16896 On ch=4 n=57 v=85
17084 Off ch=4 n=57 v=85
17088 On ch=4 n=57 v=85
17276 Off ch=4 n=57 v=85
17280 On ch=4 n=57 v=85
17468 Off ch=4 n=57 v=85
17472 On ch=4 n=57 v=85
18432 Off ch=4 n=57 v=85
18816 On ch=4 n=60 v=85
19196 Off ch=4 n=60 v=85
19200 On ch=4 n=60 v=85
19388 Off ch=4 n=60 v=85
19392 On ch=4 n=59 v=85
19964 Off ch=4 n=59 v=85
19968 On ch=4 n=57 v=85
21500 Off ch=4 n=57 v=85
23040 On ch=4 n=57 v=85
23228 Off ch=4 n=57 v=85
23232 On ch=4 n=57 v=82
23420 Off ch=4 n=57 v=82
23424 On ch=4 n=57 v=85
23612 Off ch=4 n=57 v=85
23616 On ch=4 n=57 v=85
24576 Off ch=4 n=57 v=85
24960 On ch=4 n=60 v=85
25340 Off ch=4 n=60 v=85
25344 On ch=4 n=60 v=85
25724 Off ch=4 n=60 v=85
25728 On ch=4 n=55 v=85
26108 Off ch=4 n=55 v=85
26112 On ch=4 n=57 v=85
26684 Off ch=4 n=57 v=85
26688 On ch=4 n=60 v=85
26876 Off ch=4 n=60 v=85
26880 On ch=4 n=57 v=85
27644 Off ch=4 n=57 v=85
28416 On ch=4 n=59 v=86
28800 Off ch=4 n=59 v=86
28800 On ch=4 n=60 v=85
29180 Off ch=4 n=60 v=85
29184 On ch=4 n=62 v=85
29564 Off ch=4 n=62 v=85
29568 On ch=4 n=59 v=85
29948 Off ch=4 n=59 v=85
30336 On ch=4 n=57 v=85
30908 Off ch=4 n=57 v=85
30912 On ch=4 n=60 v=85
31100 Off ch=4 n=60 v=85
31104 On ch=4 n=57 v=85
31868 Off ch=4 n=57 v=85
32640 On ch=4 n=59 v=86
33024 Off ch=4 n=59 v=86
33024 On ch=4 n=60 v=85
33404 Off ch=4 n=60 v=85
33408 On ch=4 n=62 v=85
33788 Off ch=4 n=62 v=85
33792 On ch=4 n=59 v=85
34172 Off ch=4 n=59 v=85
34560 On ch=4 n=57 v=85
35132 Off ch=4 n=57 v=85
35136 On ch=4 n=60 v=85
35324 Off ch=4 n=60 v=85
35328 On ch=4 n=57 v=85
36092 Off ch=4 n=57 v=85
36864 On ch=4 n=59 v=86
37248 Off ch=4 n=59 v=86
37248 On ch=4 n=60 v=85
37628 Off ch=4 n=60 v=85
37632 On ch=4 n=62 v=85
38012 Off ch=4 n=62 v=85
38016 On ch=4 n=59 v=85
38396 Off ch=4 n=59 v=85
38784 On ch=4 n=57 v=85
39356 Off ch=4 n=57 v=85
39360 On ch=4 n=60 v=85
39548 Off ch=4 n=60 v=85
39552 On ch=4 n=57 v=85
40316 Off ch=4 n=57 v=85
41088 On ch=4 n=59 v=86
41472 Off ch=4 n=59 v=86
41472 On ch=4 n=62 v=75
41664 Off ch=4 n=62 v=75
41664 On ch=4 n=60 v=85
42240 Off ch=4 n=60 v=85
42240 On ch=4 n=62 v=86
42624 Off ch=4 n=62 v=86
42624 On ch=4 n=62 v=90
43008 Off ch=4 n=62 v=90
43008 On ch=4 n=62 v=86
43200 Off ch=4 n=62 v=86
43200 On ch=4 n=60 v=90
43776 Off ch=4 n=60 v=90
43776 On ch=4 n=57 v=85
44928 Off ch=4 n=57 v=85
44928 On ch=4 n=60 v=85
45312 Off ch=4 n=60 v=85
45312 On ch=4 n=57 v=86
48384 Off ch=4 n=57 v=86
49344 On ch=4 n=57 v=85
49724 Off ch=4 n=57 v=85
49728 On ch=4 n=57 v=85
49920 Off ch=4 n=57 v=85
49920 On ch=4 n=64 v=85
50300 Off ch=4 n=64 v=85
50304 On ch=4 n=64 v=85
51068 Off ch=4 n=64 v=85
51072 On ch=4 n=64 v=85
51260 Off ch=4 n=64 v=85
51264 On ch=4 n=64 v=85
51456 Off ch=4 n=64 v=85
51456 On ch=4 n=62 v=85
52604 Off ch=4 n=62 v=85
52608 On ch=4 n=64 v=85
52796 Off ch=4 n=64 v=85
52800 On ch=4 n=62 v=85
52988 Off ch=4 n=62 v=85
52992 On ch=4 n=65 v=85
53372 Off ch=4 n=65 v=85
53376 On ch=4 n=64 v=85
53756 Off ch=4 n=64 v=85
53760 On ch=4 n=62 v=85
54140 Off ch=4 n=62 v=85
54144 On ch=4 n=60 v=85
54524 Off ch=4 n=60 v=85
54528 On ch=4 n=57 v=85
56060 Off ch=4 n=57 v=85
56064 On ch=4 n=62 v=85
56444 Off ch=4 n=62 v=85
56448 On ch=4 n=62 v=85
56828 Off ch=4 n=62 v=85
56832 On ch=4 n=62 v=85
57212 Off ch=4 n=62 v=85
57216 On ch=4 n=62 v=85
57596 Off ch=4 n=62 v=85
57600 On ch=4 n=62 v=85
57788 Off ch=4 n=62 v=85
57792 On ch=4 n=57 v=85
58364 Off ch=4 n=57 v=85
58560 On ch=4 n=60 v=85
58748 Off ch=4 n=60 v=85
58752 On ch=4 n=60 v=85
59132 Off ch=4 n=60 v=85
59904 On ch=4 n=60 v=85
60284 Off ch=4 n=60 v=85
60288 On ch=4 n=55 v=85
60668 Off ch=4 n=55 v=85
60672 On ch=4 n=57 v=109
61632 On ch=4 n=60 v=85
61820 Off ch=4 n=60 v=85
61824 On ch=4 n=60 v=85
62112 Off ch=4 n=57 v=109
62204 Off ch=4 n=60 v=85
62976 On ch=4 n=65 v=85
63356 Off ch=4 n=65 v=85
63360 On ch=4 n=64 v=85
63740 Off ch=4 n=64 v=85
63744 On ch=4 n=62 v=85
65276 Off ch=4 n=62 v=85
70656 Par ch=4 c=7 v=75
70656 PrCh ch=4 p=89
70656 On ch=4 n=69 v=85
71420 Off ch=4 n=69 v=85
71424 On ch=4 n=69 v=85
71612 Off ch=4 n=69 v=85
71616 On ch=4 n=69 v=85
72188 Off ch=4 n=69 v=85
72192 On ch=4 n=69 v=85
72380 Off ch=4 n=69 v=85
72384 On ch=4 n=69 v=85
73724 Off ch=4 n=69 v=85
73728 On ch=4 n=72 v=85
74108 Off ch=4 n=72 v=85
74112 On ch=4 n=72 v=85
74492 Off ch=4 n=72 v=85
74496 On ch=4 n=72 v=85
74684 Off ch=4 n=72 v=85
74688 On ch=4 n=71 v=85
75260 Off ch=4 n=71 v=85
75264 On ch=4 n=69 v=85
76028 Off ch=4 n=69 v=85
78144 On ch=4 n=67 v=85
78332 Off ch=4 n=67 v=85
78336 On ch=4 n=69 v=85
79484 Off ch=4 n=69 v=85
79488 On ch=4 n=67 v=85
79868 Off ch=4 n=67 v=85
79872 On ch=4 n=72 v=85
80636 Off ch=4 n=72 v=85
80640 On ch=4 n=67 v=85
81404 Off ch=4 n=67 v=85
81408 On ch=4 n=72 v=85
82172 Off ch=4 n=72 v=85
82176 On ch=4 n=67 v=85
82940 Off ch=4 n=67 v=85
82944 On ch=4 n=69 v=85
84476 Off ch=4 n=69 v=85
86976 On ch=4 n=69 v=85
87164 Off ch=4 n=69 v=85
87168 On ch=4 n=69 v=85
87548 Off ch=4 n=69 v=85
87552 On ch=4 n=69 v=85
87740 Off ch=4 n=69 v=85
87744 On ch=4 n=69 v=85
88700 Off ch=4 n=69 v=85
89088 On ch=4 n=72 v=85
89852 Off ch=4 n=72 v=85
89856 On ch=4 n=67 v=85
90620 Off ch=4 n=67 v=85
90624 On ch=4 n=69 v=85
92156 Off ch=4 n=69 v=85
93696 Par ch=4 c=7 v=75
93696 PrCh ch=4 p=89
93696 On ch=4 n=77 v=85
93884 Off ch=4 n=77 v=85
93888 On ch=4 n=74 v=85
94460 Off ch=4 n=74 v=85
94464 On ch=4 n=74 v=85
94844 Off ch=4 n=74 v=85
94848 On ch=4 n=74 v=85
95228 Off ch=4 n=74 v=85
95232 On ch=4 n=77 v=85
95420 Off ch=4 n=77 v=85
95424 On ch=4 n=77 v=85
95996 Off ch=4 n=77 v=85
96000 On ch=4 n=77 v=85
96380 Off ch=4 n=77 v=85
96384 On ch=4 n=74 v=85
98300 Off ch=4 n=74 v=85
101184 On ch=4 n=67 v=85
101372 Off ch=4 n=67 v=85
101376 Par ch=4 c=7 v=75
101376 PrCh ch=4 p=89
101376 On ch=4 n=72 v=85
101564 Off ch=4 n=72 v=85
101568 On ch=4 n=69 v=85
102332 Off ch=4 n=69 v=85
102336 On ch=4 n=69 v=85
102524 Off ch=4 n=69 v=85
102528 On ch=4 n=69 v=85
102908 Off ch=4 n=69 v=85
102912 On ch=4 n=69 v=85
103100 Off ch=4 n=69 v=85
103104 On ch=4 n=69 v=85
103292 Off ch=4 n=69 v=85
103296 On ch=4 n=67 v=85
103676 Off ch=4 n=67 v=85
103680 On ch=4 n=69 v=85
104444 Off ch=4 n=69 v=85
181248 Par ch=4 c=7 v=75
181248 PrCh ch=4 p=89
181632 On ch=4 n=69 v=85
182012 Off ch=4 n=69 v=85
182016 On ch=4 n=69 v=85
182396 Off ch=4 n=69 v=85
182400 On ch=4 n=72 v=85
183548 Off ch=4 n=72 v=85
184128 On ch=4 n=69 v=85
184316 Off ch=4 n=69 v=85
184320 On ch=4 n=74 v=85
184700 Off ch=4 n=74 v=85
184704 On ch=4 n=72 v=85
185084 Off ch=4 n=72 v=85
185088 On ch=4 n=69 v=85
186620 Off ch=4 n=69 v=85
204288 Par ch=4 c=7 v=75
204288 PrCh ch=4 p=89
204288 On ch=4 n=69 v=85
205052 Off ch=4 n=69 v=85
205824 Par ch=4 c=7 v=75
205824 PrCh ch=4 p=89
205851 On ch=4 n=57 v=81
206601 On ch=4 n=55 v=91
206645 Off ch=4 n=57 v=81
207443 On ch=4 n=53 v=89
207492 Off ch=4 n=55 v=91
208260 On ch=4 n=50 v=76
208316 Off ch=4 n=53 v=89
211827 Off ch=4 n=50 v=76
213504 Meta TrkEnd
TrkEnd
MTrk
0 Meta TrkName "clav1"
70656 Par ch=5 c=7 v=91
70656 PrCh ch=5 p=7
70656 On ch=5 n=69 v=85
71420 Off ch=5 n=69 v=85
71424 On ch=5 n=69 v=85
71612 Off ch=5 n=69 v=85
71616 On ch=5 n=69 v=85
72188 Off ch=5 n=69 v=85
72192 On ch=5 n=69 v=85
72380 Off ch=5 n=69 v=85
72384 On ch=5 n=69 v=85
73724 Off ch=5 n=69 v=85
73728 On ch=5 n=72 v=85
74108 Off ch=5 n=72 v=85
74112 On ch=5 n=72 v=85
74492 Off ch=5 n=72 v=85
74496 On ch=5 n=72 v=85
74684 Off ch=5 n=72 v=85
74688 On ch=5 n=71 v=85
75260 Off ch=5 n=71 v=85
75264 On ch=5 n=69 v=85
76028 Off ch=5 n=69 v=85
78144 On ch=5 n=67 v=85
78332 Off ch=5 n=67 v=85
78336 On ch=5 n=69 v=85
79484 Off ch=5 n=69 v=85
79488 On ch=5 n=67 v=85
79868 Off ch=5 n=67 v=85
79872 On ch=5 n=72 v=85
80636 Off ch=5 n=72 v=85
80640 On ch=5 n=67 v=85
81404 Off ch=5 n=67 v=85
81408 On ch=5 n=72 v=85
82172 Off ch=5 n=72 v=85
82176 On ch=5 n=67 v=85
82940 Off ch=5 n=67 v=85
82944 On ch=5 n=69 v=85
84476 Off ch=5 n=69 v=85
86976 On ch=5 n=69 v=85
87164 Off ch=5 n=69 v=85
87168 On ch=5 n=69 v=85
87548 Off ch=5 n=69 v=85
87552 On ch=5 n=69 v=85
87740 Off ch=5 n=69 v=85
87744 On ch=5 n=69 v=85
88700 Off ch=5 n=69 v=85
89088 On ch=5 n=72 v=85
89852 Off ch=5 n=72 v=85
89856 On ch=5 n=67 v=85
90620 Off ch=5 n=67 v=85
90624 On ch=5 n=69 v=85
92156 Off ch=5 n=69 v=85
93696 Par ch=5 c=7 v=91
93696 PrCh ch=5 p=7
93696 On ch=5 n=77 v=85
93884 Off ch=5 n=77 v=85
93888 On ch=5 n=74 v=85
94460 Off ch=5 n=74 v=85
94464 On ch=5 n=74 v=85
94844 Off ch=5 n=74 v=85
94848 On ch=5 n=74 v=85
95228 Off ch=5 n=74 v=85
95232 On ch=5 n=77 v=85
95420 Off ch=5 n=77 v=85
95424 On ch=5 n=77 v=85
95996 Off ch=5 n=77 v=85
96000 On ch=5 n=77 v=85
96380 Off ch=5 n=77 v=85
96384 On ch=5 n=74 v=85
98300 Off ch=5 n=74 v=85
101184 On ch=5 n=67 v=85
101372 Off ch=5 n=67 v=85
101376 Par ch=5 c=7 v=91
101376 PrCh ch=5 p=7
101376 On ch=5 n=72 v=85
101564 Off ch=5 n=72 v=85
101568 On ch=5 n=69 v=85
102332 Off ch=5 n=69 v=85
102336 On ch=5 n=69 v=85
102524 Off ch=5 n=69 v=85
102528 On ch=5 n=69 v=85
102908 Off ch=5 n=69 v=85
102912 On ch=5 n=69 v=85
103100 Off ch=5 n=69 v=85
103104 On ch=5 n=69 v=85
103292 Off ch=5 n=69 v=85
103296 On ch=5 n=67 v=85
103676 Off ch=5 n=67 v=85
103680 On ch=5 n=69 v=85
104444 Off ch=5 n=69 v=85
107520 Par ch=5 c=7 v=91
107520 PrCh ch=5 p=7
107520 On ch=5 n=69 v=85
107520 On ch=5 n=69 v=85
107900 Off ch=5 n=69 v=85
107900 Off ch=5 n=69 v=85
107904 On ch=5 n=67 v=85
107904 On ch=5 n=67 v=85
108092 Off ch=5 n=67 v=85
108092 Off ch=5 n=67 v=85
108096 On ch=5 n=69 v=85
108096 On ch=5 n=69 v=85
108860 Off ch=5 n=69 v=85
108860 Off ch=5 n=69 v=85
108864 On ch=5 n=69 v=85
108864 On ch=5 n=69 v=85
109244 Off ch=5 n=69 v=85
109244 Off ch=5 n=69 v=85
109248 On ch=5 n=62 v=85
109248 On ch=5 n=62 v=85
110396 Off ch=5 n=62 v=85
110396 Off ch=5 n=62 v=85
113664 Par ch=5 c=7 v=91
113664 PrCh ch=5 p=7
113664 On ch=5 n=72 v=85
114428 Off ch=5 n=72 v=85
114432 On ch=5 n=72 v=85
115004 Off ch=5 n=72 v=85
115008 On ch=5 n=71 v=85
115196 Off ch=5 n=71 v=85
115200 On ch=5 n=72 v=85
115772 Off ch=5 n=72 v=85
115776 On ch=5 n=71 v=85
115964 Off ch=5 n=71 v=85
115968 On ch=5 n=72 v=85
116348 Off ch=5 n=72 v=85
116352 On ch=5 n=69 v=85
117500 Off ch=5 n=69 v=85
119808 On ch=5 n=69 v=85
120188 Off ch=5 n=69 v=85
120192 On ch=5 n=67 v=85
120380 Off ch=5 n=67 v=85
120384 On ch=5 n=69 v=85
120572 Off ch=5 n=69 v=85
120576 On ch=5 n=69 v=85
120956 Off ch=5 n=69 v=85
120960 On ch=5 n=69 v=85
121340 Off ch=5 n=69 v=85
121344 On ch=5 n=69 v=85
121532 Off ch=5 n=69 v=85
121536 On ch=5 n=62 v=85
122108 Off ch=5 n=62 v=85
122112 On ch=5 n=69 v=85
122300 Off ch=5 n=69 v=85
122304 On ch=5 n=62 v=85
122876 Off ch=5 n=62 v=85
125952 Par ch=5 c=7 v=91
125952 PrCh ch=5 p=7
126336 On ch=5 n=69 v=85
127100 Off ch=5 n=69 v=85
127104 On ch=5 n=67 v=85
127484 Off ch=5 n=67 v=85
127488 On ch=5 n=69 v=85
128252 Off ch=5 n=69 v=85
129024 Par ch=5 c=7 v=91
129024 PrCh ch=5 p=7
129408 On ch=5 n=69 v=85
130172 Off ch=5 n=69 v=85
130176 On ch=5 n=67 v=85
130556 Off ch=5 n=67 v=85
130560 On ch=5 n=69 v=85
131324 Off ch=5 n=69 v=85
132096 Par ch=5 c=7 v=91
132096 PrCh ch=5 p=7
132864 On ch=5 n=69 v=85
133436 Off ch=5 n=69 v=85
133440 On ch=5 n=67 v=85
133628 Off ch=5 n=67 v=85
133632 On ch=5 n=69 v=85
134396 Off ch=5 n=69 v=85
135168 Par ch=5 c=7 v=91
135168 PrCh ch=5 p=7
135936 On ch=5 n=69 v=85
136508 Off ch=5 n=69 v=85
136512 On ch=5 n=67 v=85
136700 Off ch=5 n=67 v=85
136704 On ch=5 n=69 v=85
137468 Off ch=5 n=69 v=85
138240 Par ch=5 c=7 v=91
138240 PrCh ch=5 p=7
138336 On ch=5 n=69 v=85
138524 Off ch=5 n=69 v=85
138528 On ch=5 n=69 v=85
138908 Off ch=5 n=69 v=85
138912 On ch=5 n=69 v=85
139292 Off ch=5 n=69 v=85
139776 On ch=5 n=69 v=85
140540 Off ch=5 n=69 v=85
141312 Par ch=5 c=7 v=91
141312 PrCh ch=5 p=7
141408 On ch=5 n=69 v=85
141596 Off ch=5 n=69 v=85
141600 On ch=5 n=69 v=85
141980 Off ch=5 n=69 v=85
141984 On ch=5 n=69 v=85
142364 Off ch=5 n=69 v=85
142848 On ch=5 n=69 v=85
143612 Off ch=5 n=69 v=85
144384 Par ch=5 c=7 v=91
144384 PrCh ch=5 p=7
145152 On ch=5 n=69 v=85
145532 Off ch=5 n=69 v=85
145536 On ch=5 n=69 v=85
145916 Off ch=5 n=69 v=85
145920 On ch=5 n=69 v=85
146684 Off ch=5 n=69 v=85
147456 Par ch=5 c=7 v=91
147456 PrCh ch=5 p=7
148224 On ch=5 n=69 v=85
148604 Off ch=5 n=69 v=85
148608 On ch=5 n=69 v=85
148988 Off ch=5 n=69 v=85
148992 On ch=5 n=69 v=85
149756 Off ch=5 n=69 v=85
150528 Par ch=5 c=7 v=91
150528 PrCh ch=5 p=7
151872 On ch=5 n=67 v=85
152060 Off ch=5 n=67 v=85
152064 On ch=5 n=69 v=85
152828 Off ch=5 n=69 v=85
154560 On ch=5 n=67 v=85
154748 Off ch=5 n=67 v=85
154752 On ch=5 n=67 v=85
155132 Off ch=5 n=67 v=85
155136 On ch=5 n=69 v=85
155516 Off ch=5 n=69 v=85
155520 On ch=5 n=69 v=85
155708 Off ch=5 n=69 v=85
155712 On ch=5 n=69 v=85
156284 Off ch=5 n=69 v=85
158016 On ch=5 n=67 v=85
158204 Off ch=5 n=67 v=85
158208 On ch=5 n=69 v=85
158588 Off ch=5 n=69 v=85
158976 On ch=5 n=69 v=85
159548 Off ch=5 n=69 v=85
159552 On ch=5 n=67 v=85
159740 Off ch=5 n=67 v=85
159744 On ch=5 n=69 v=85
160508 Off ch=5 n=69 v=85
162816 Par ch=5 c=7 v=91
162816 PrCh ch=5 p=7
162816 Par ch=5 c=7 v=91
162816 PrCh ch=5 p=7
164160 On ch=5 n=67 v=85
164160 On ch=5 n=67 v=85
164348 Off ch=5 n=67 v=85
164348 Off ch=5 n=67 v=85
164352 On ch=5 n=72 v=85
164352 On ch=5 n=72 v=85
164732 Off ch=5 n=72 v=85
164732 Off ch=5 n=72 v=85
164928 On ch=5 n=67 v=85
164928 On ch=5 n=67 v=85
165020 Off ch=5 n=67 v=85
165020 Off ch=5 n=67 v=85
165024 On ch=5 n=67 v=85
165024 On ch=5 n=67 v=85
165116 Off ch=5 n=67 v=85
165116 Off ch=5 n=67 v=85
165120 On ch=5 n=69 v=85
165120 On ch=5 n=69 v=85
165884 Off ch=5 n=69 v=85
165884 Off ch=5 n=69 v=85
168960 Par ch=5 c=7 v=91
168960 PrCh ch=5 p=7
169152 On ch=5 n=69 v=85
169340 Off ch=5 n=69 v=85
169344 On ch=5 n=69 v=78
169724 Off ch=5 n=69 v=78
170112 On ch=5 n=69 v=77
170240 Off ch=5 n=69 v=77
170240 On ch=5 n=69 v=85
170368 Off ch=5 n=69 v=85
170368 On ch=5 n=69 v=78
170496 Off ch=5 n=69 v=78
170496 On ch=5 n=69 v=85
171260 Off ch=5 n=69 v=85
175104 Par ch=5 c=7 v=91
175104 PrCh ch=5 p=7
175488 On ch=5 n=69 v=85
175868 Off ch=5 n=69 v=85
175872 On ch=5 n=69 v=85
176252 Off ch=5 n=69 v=85
176256 On ch=5 n=72 v=85
177404 Off ch=5 n=72 v=85
177984 On ch=5 n=69 v=85
178172 Off ch=5 n=69 v=85
178176 On ch=5 n=74 v=85
178556 Off ch=5 n=74 v=85
178560 On ch=5 n=72 v=85
178940 Off ch=5 n=72 v=85
178944 On ch=5 n=69 v=85
180476 Off ch=5 n=69 v=85
181248 Par ch=5 c=7 v=91
181248 PrCh ch=5 p=7
181632 On ch=5 n=69 v=85
182012 Off ch=5 n=69 v=85
182016 On ch=5 n=69 v=85
182396 Off ch=5 n=69 v=85
182400 On ch=5 n=72 v=85
183548 Off ch=5 n=72 v=85
184128 On ch=5 n=69 v=85
184316 Off ch=5 n=69 v=85
184320 On ch=5 n=74 v=85
184700 Off ch=5 n=74 v=85
184704 On ch=5 n=72 v=85
185084 Off ch=5 n=72 v=85
185088 On ch=5 n=69 v=85
186620 Off ch=5 n=69 v=85
187392 Par ch=5 c=7 v=91
187392 PrCh ch=5 p=7
187392 On ch=5 n=69 v=85
187772 Off ch=5 n=69 v=85
187776 On ch=5 n=69 v=85
188156 Off ch=5 n=69 v=85
188160 On ch=5 n=69 v=85
188540 Off ch=5 n=69 v=85
188544 On ch=5 n=69 v=85
188924 Off ch=5 n=69 v=85
188928 On ch=5 n=72 v=85
189308 Off ch=5 n=72 v=85
189312 On ch=5 n=67 v=85
189500 Off ch=5 n=67 v=85
189504 On ch=5 n=69 v=85
190460 Off ch=5 n=69 v=85
193344 On ch=5 n=69 v=85
193532 Off ch=5 n=69 v=85
193536 On ch=5 n=74 v=85
194684 Off ch=5 n=74 v=85
194688 On ch=5 n=72 v=85
195068 Off ch=5 n=72 v=85
195072 On ch=5 n=69 v=85
195452 Off ch=5 n=69 v=85
195456 On ch=5 n=69 v=85
195836 Off ch=5 n=69 v=85
196224 On ch=5 n=69 v=85
196604 Off ch=5 n=69 v=85
196608 On ch=5 n=72 v=85
196988 Off ch=5 n=72 v=85
196992 On ch=5 n=69 v=85
197372 Off ch=5 n=69 v=85
199488 On ch=5 n=69 v=85
199676 Off ch=5 n=69 v=85
199680 On ch=5 n=69 v=85
200828 Off ch=5 n=69 v=85
200832 On ch=5 n=69 v=85
201212 Off ch=5 n=69 v=85
201216 On ch=5 n=72 v=83
201984 Off ch=5 n=72 v=83
201984 On ch=5 n=69 v=85
202748 Off ch=5 n=69 v=85
202752 On ch=5 n=72 v=85
203516 Off ch=5 n=72 v=85
203520 On ch=5 n=67 v=85
204284 Off ch=5 n=67 v=85
204288 Par ch=5 c=7 v=91
204288 PrCh ch=5 p=7
204288 On ch=5 n=69 v=85
205052 Off ch=5 n=69 v=85
205824 Par ch=5 c=7 v=91
205824 PrCh ch=5 p=7
205851 On ch=5 n=57 v=81
206601 On ch=5 n=55 v=91
206645 Off ch=5 n=57 v=81
207443 On ch=5 n=53 v=89
207492 Off ch=5 n=55 v=91
208260 On ch=5 n=50 v=76
208316 Off ch=5 n=53 v=89
211827 Off ch=5 n=50 v=76
213504 Meta TrkEnd
TrkEnd
MTrk
0 Meta TrkName "harpsichor"
23040 Par ch=6 c=7 v=80
23040 On ch=6 n=57 v=85
23228 Off ch=6 n=57 v=85
23232 On ch=6 n=57 v=82
23420 Off ch=6 n=57 v=82
23424 On ch=6 n=57 v=85
23612 Off ch=6 n=57 v=85
23616 On ch=6 n=57 v=85
24576 Off ch=6 n=57 v=85
24960 On ch=6 n=60 v=85
25340 Off ch=6 n=60 v=85
25344 On ch=6 n=60 v=85
25724 Off ch=6 n=60 v=85
25728 On ch=6 n=55 v=85
26108 Off ch=6 n=55 v=85
26112 On ch=6 n=57 v=85
26684 Off ch=6 n=57 v=85
26688 On ch=6 n=60 v=85
26876 Off ch=6 n=60 v=85
26880 On ch=6 n=57 v=85
27644 Off ch=6 n=57 v=85
28416 On ch=6 n=59 v=86
28800 Off ch=6 n=59 v=86
28800 On ch=6 n=60 v=85
29180 Off ch=6 n=60 v=85
29184 On ch=6 n=62 v=85
29564 Off ch=6 n=62 v=85
29568 On ch=6 n=59 v=85
29948 Off ch=6 n=59 v=85
30336 On ch=6 n=57 v=85
30908 Off ch=6 n=57 v=85
30912 On ch=6 n=60 v=85
31100 Off ch=6 n=60 v=85
31104 On ch=6 n=57 v=85
31868 Off ch=6 n=57 v=85
32640 On ch=6 n=59 v=86
33024 Off ch=6 n=59 v=86
33024 On ch=6 n=60 v=85
33404 Off ch=6 n=60 v=85
33408 On ch=6 n=62 v=85
33788 Off ch=6 n=62 v=85
33792 On ch=6 n=59 v=85
34172 Off ch=6 n=59 v=85
34560 On ch=6 n=57 v=85
35132 Off ch=6 n=57 v=85
35136 On ch=6 n=60 v=85
35324 Off ch=6 n=60 v=85
35328 On ch=6 n=57 v=85
36092 Off ch=6 n=57 v=85
36864 On ch=6 n=59 v=86
37248 Off ch=6 n=59 v=86
37248 On ch=6 n=60 v=85
37628 Off ch=6 n=60 v=85
37632 On ch=6 n=62 v=85
38012 Off ch=6 n=62 v=85
38016 On ch=6 n=59 v=85
38396 Off ch=6 n=59 v=85
38784 On ch=6 n=57 v=85
39356 Off ch=6 n=57 v=85
39360 On ch=6 n=60 v=85
39548 Off ch=6 n=60 v=85
39552 On ch=6 n=57 v=85
40316 Off ch=6 n=57 v=85
41088 On ch=6 n=59 v=86
41472 Off ch=6 n=59 v=86
41472 On ch=6 n=62 v=75
41664 Off ch=6 n=62 v=75
41664 On ch=6 n=60 v=85
42240 Off ch=6 n=60 v=85
42240 On ch=6 n=62 v=86
42624 Off ch=6 n=62 v=86
42624 On ch=6 n=62 v=90
43008 Off ch=6 n=62 v=90
43008 On ch=6 n=62 v=86
43200 Off ch=6 n=62 v=86
43200 On ch=6 n=60 v=90
43776 Off ch=6 n=60 v=90
43776 On ch=6 n=57 v=85
44928 Off ch=6 n=57 v=85
44928 On ch=6 n=60 v=85
45312 Off ch=6 n=60 v=85
45312 On ch=6 n=57 v=86
48384 Off ch=6 n=57 v=86
49344 On ch=6 n=57 v=85
49724 Off ch=6 n=57 v=85
49728 On ch=6 n=57 v=85
49920 Off ch=6 n=57 v=85
49920 On ch=6 n=64 v=85
50300 Off ch=6 n=64 v=85
50304 On ch=6 n=64 v=85
51068 Off ch=6 n=64 v=85
51072 On ch=6 n=64 v=85
51260 Off ch=6 n=64 v=85
51264 On ch=6 n=64 v=85
51456 Off ch=6 n=64 v=85
51456 On ch=6 n=62 v=85
52604 Off ch=6 n=62 v=85
52608 On ch=6 n=64 v=85
52796 Off ch=6 n=64 v=85
52800 On ch=6 n=62 v=85
52988 Off ch=6 n=62 v=85
52992 On ch=6 n=65 v=85
53372 Off ch=6 n=65 v=85
53376 On ch=6 n=64 v=85
53756 Off ch=6 n=64 v=85
53760 On ch=6 n=62 v=85
54140 Off ch=6 n=62 v=85
54144 On ch=6 n=60 v=85
54524 Off ch=6 n=60 v=85
54528 On ch=6 n=57 v=85
56060 Off ch=6 n=57 v=85
56064 On ch=6 n=62 v=85
56444 Off ch=6 n=62 v=85
56448 On ch=6 n=62 v=85
56828 Off ch=6 n=62 v=85
56832 On ch=6 n=62 v=85
57212 Off ch=6 n=62 v=85
57216 On ch=6 n=62 v=85
57596 Off ch=6 n=62 v=85
57600 On ch=6 n=62 v=85
57788 Off ch=6 n=62 v=85
57792 On ch=6 n=57 v=85
58364 Off ch=6 n=57 v=85
58560 On ch=6 n=60 v=85
58748 Off ch=6 n=60 v=85
58752 On ch=6 n=60 v=85
59132 Off ch=6 n=60 v=85
59904 On ch=6 n=60 v=85
60284 Off ch=6 n=60 v=85
60288 On ch=6 n=55 v=85
60668 Off ch=6 n=55 v=85
60672 On ch=6 n=57 v=109
61632 On ch=6 n=60 v=85
61820 Off ch=6 n=60 v=85
61824 On ch=6 n=60 v=85
62112 Off ch=6 n=57 v=109
62204 Off ch=6 n=60 v=85
62976 On ch=6 n=65 v=85
63356 Off ch=6 n=65 v=85
63360 On ch=6 n=64 v=85
63740 Off ch=6 n=64 v=85
63744 On ch=6 n=62 v=85
65276 Off ch=6 n=62 v=85
93696 Par ch=6 c=7 v=80
93696 On ch=6 n=77 v=85
93884 Off ch=6 n=77 v=85
93888 On ch=6 n=74 v=85
94460 Off ch=6 n=74 v=85
94464 On ch=6 n=74 v=85
94844 Off ch=6 n=74 v=85
94848 On ch=6 n=74 v=85
95228 Off ch=6 n=74 v=85
95232 On ch=6 n=77 v=85
95420 Off ch=6 n=77 v=85
95424 On ch=6 n=77 v=85
95996 Off ch=6 n=77 v=85
96000 On ch=6 n=74 v=85
97916 Off ch=6 n=74 v=85
101184 On ch=6 n=67 v=85
101372 Off ch=6 n=67 v=85
101376 Par ch=6 c=7 v=80
101376 PrCh ch=6 p=6
101376 On ch=6 n=72 v=85
101564 Off ch=6 n=72 v=85
101568 On ch=6 n=69 v=85
102332 Off ch=6 n=69 v=85
102336 On ch=6 n=69 v=85
102524 Off ch=6 n=69 v=85
102528 On ch=6 n=69 v=85
102908 Off ch=6 n=69 v=85
102912 On ch=6 n=69 v=85
103100 Off ch=6 n=69 v=85
103104 On ch=6 n=69 v=85
103292 Off ch=6 n=69 v=85
103296 On ch=6 n=67 v=85
103676 Off ch=6 n=67 v=85
103680 On ch=6 n=69 v=85
104444 Off ch=6 n=69 v=85
107520 Par ch=6 c=7 v=80
107520 PrCh ch=6 p=6
107520 On ch=6 n=69 v=85
107520 On ch=6 n=69 v=85
107900 Off ch=6 n=69 v=85
107900 Off ch=6 n=69 v=85
107904 On ch=6 n=67 v=85
107904 On ch=6 n=67 v=85
108092 Off ch=6 n=67 v=85
108092 Off ch=6 n=67 v=85
108096 On ch=6 n=69 v=85
108096 On ch=6 n=69 v=85
108860 Off ch=6 n=69 v=85
108860 Off ch=6 n=69 v=85
108864 On ch=6 n=69 v=85
108864 On ch=6 n=69 v=85
109244 Off ch=6 n=69 v=85
109244 Off ch=6 n=69 v=85
109248 On ch=6 n=62 v=85
109248 On ch=6 n=62 v=85
110396 Off ch=6 n=62 v=85
110396 Off ch=6 n=62 v=85
113664 Par ch=6 c=7 v=80
113664 On ch=6 n=72 v=85
114428 Off ch=6 n=72 v=85
114432 On ch=6 n=72 v=85
115004 Off ch=6 n=72 v=85
115008 On ch=6 n=71 v=85
115196 Off ch=6 n=71 v=85
115200 On ch=6 n=72 v=85
115772 Off ch=6 n=72 v=85
115776 On ch=6 n=71 v=85
115964 Off ch=6 n=71 v=85
115968 On ch=6 n=72 v=85
116348 Off ch=6 n=72 v=85
116352 On ch=6 n=69 v=85
117500 Off ch=6 n=69 v=85
119808 On ch=6 n=69 v=85
120188 Off ch=6 n=69 v=85
120192 On ch=6 n=67 v=85
120380 Off ch=6 n=67 v=85
120384 On ch=6 n=69 v=85
120572 Off ch=6 n=69 v=85
120576 On ch=6 n=69 v=85
120956 Off ch=6 n=69 v=85
120960 On ch=6 n=69 v=85
121340 Off ch=6 n=69 v=85
121344 On ch=6 n=69 v=85
121532 Off ch=6 n=69 v=85
121536 On ch=6 n=62 v=85
122108 Off ch=6 n=62 v=85
122112 On ch=6 n=69 v=85
122300 Off ch=6 n=69 v=85
122304 On ch=6 n=62 v=85
122876 Off ch=6 n=62 v=85
125952 Par ch=6 c=7 v=80
126336 On ch=6 n=69 v=85
127100 Off ch=6 n=69 v=85
127104 On ch=6 n=67 v=85
127484 Off ch=6 n=67 v=85
127488 On ch=6 n=69 v=85
128252 Off ch=6 n=69 v=85
129024 Par ch=6 c=7 v=80
129408 On ch=6 n=69 v=85
130172 Off ch=6 n=69 v=85
130176 On ch=6 n=67 v=85
130556 Off ch=6 n=67 v=85
130560 On ch=6 n=69 v=85
131324 Off ch=6 n=69 v=85
132096 Par ch=6 c=7 v=80
132864 On ch=6 n=69 v=85
133436 Off ch=6 n=69 v=85
133440 On ch=6 n=67 v=85
133628 Off ch=6 n=67 v=85
133632 On ch=6 n=69 v=85
134396 Off ch=6 n=69 v=85
135168 Par ch=6 c=7 v=80
135936 On ch=6 n=69 v=85
136508 Off ch=6 n=69 v=85
136512 On ch=6 n=67 v=85
136700 Off ch=6 n=67 v=85
136704 On ch=6 n=69 v=85
137468 Off ch=6 n=69 v=85
138240 Par ch=6 c=7 v=80
138336 On ch=6 n=69 v=85
138524 Off ch=6 n=69 v=85
138528 On ch=6 n=69 v=85
138908 Off ch=6 n=69 v=85
138912 On ch=6 n=69 v=85
139292 Off ch=6 n=69 v=85
139776 On ch=6 n=69 v=85
140540 Off ch=6 n=69 v=85
141312 Par ch=6 c=7 v=80
141408 On ch=6 n=69 v=85
141596 Off ch=6 n=69 v=85
141600 On ch=6 n=69 v=85
141980 Off ch=6 n=69 v=85
141984 On ch=6 n=69 v=85
142364 Off ch=6 n=69 v=85
142848 On ch=6 n=69 v=85
143612 Off ch=6 n=69 v=85
144384 Par ch=6 c=7 v=80
145152 On ch=6 n=69 v=85
145532 Off ch=6 n=69 v=85
145536 On ch=6 n=69 v=85
145916 Off ch=6 n=69 v=85
145920 On ch=6 n=69 v=85
146684 Off ch=6 n=69 v=85
147456 Par ch=6 c=7 v=80
148224 On ch=6 n=69 v=85
148604 Off ch=6 n=69 v=85
148608 On ch=6 n=69 v=85
148988 Off ch=6 n=69 v=85
148992 On ch=6 n=69 v=85
149756 Off ch=6 n=69 v=85
150528 Par ch=6 c=7 v=80
151872 On ch=6 n=67 v=85
152060 Off ch=6 n=67 v=85
152064 On ch=6 n=69 v=85
152828 Off ch=6 n=69 v=85
154560 On ch=6 n=67 v=85
154748 Off ch=6 n=67 v=85
154752 On ch=6 n=67 v=85
155132 Off ch=6 n=67 v=85
155136 On ch=6 n=69 v=85
155516 Off ch=6 n=69 v=85
155520 On ch=6 n=69 v=85
155708 Off ch=6 n=69 v=85
155712 On ch=6 n=69 v=85
156284 Off ch=6 n=69 v=85
158016 On ch=6 n=67 v=85
158204 Off ch=6 n=67 v=85
158208 On ch=6 n=69 v=85
158588 Off ch=6 n=69 v=85
158976 On ch=6 n=69 v=85
159548 Off ch=6 n=69 v=85
159552 On ch=6 n=67 v=85
159740 Off ch=6 n=67 v=85
159744 On ch=6 n=69 v=85
160508 Off ch=6 n=69 v=85
162816 Par ch=6 c=7 v=80
162816 Par ch=6 c=7 v=80
164160 On ch=6 n=67 v=85
164160 On ch=6 n=67 v=85
164348 Off ch=6 n=67 v=85
164348 Off ch=6 n=67 v=85
164352 On ch=6 n=72 v=85
164352 On ch=6 n=72 v=85
164732 Off ch=6 n=72 v=85
164732 Off ch=6 n=72 v=85
164928 On ch=6 n=67 v=85
164928 On ch=6 n=67 v=85
165020 Off ch=6 n=67 v=85
165020 Off ch=6 n=67 v=85
165024 On ch=6 n=67 v=85
165024 On ch=6 n=67 v=85
165116 Off ch=6 n=67 v=85
165116 Off ch=6 n=67 v=85
165120 On ch=6 n=69 v=85
165120 On ch=6 n=69 v=85
165884 Off ch=6 n=69 v=85
165884 Off ch=6 n=69 v=85
168960 Par ch=6 c=7 v=80
169152 On ch=6 n=69 v=85
169340 Off ch=6 n=69 v=85
169344 On ch=6 n=69 v=85
169724 Off ch=6 n=69 v=85
170112 On ch=6 n=69 v=93
170240 Off ch=6 n=69 v=93
170240 On ch=6 n=69 v=93
170368 Off ch=6 n=69 v=93
170368 On ch=6 n=69 v=93
170496 Off ch=6 n=69 v=93
170496 On ch=6 n=69 v=85
171260 Off ch=6 n=69 v=85
175104 Par ch=6 c=7 v=80
175488 On ch=6 n=69 v=85
175868 Off ch=6 n=69 v=85
175872 On ch=6 n=69 v=85
176252 Off ch=6 n=69 v=85
176256 On ch=6 n=72 v=85
177404 Off ch=6 n=72 v=85
177984 On ch=6 n=69 v=85
178172 Off ch=6 n=69 v=85
178176 On ch=6 n=74 v=85
178556 Off ch=6 n=74 v=85
178560 On ch=6 n=72 v=85
178940 Off ch=6 n=72 v=85
178944 On ch=6 n=69 v=85
180476 Off ch=6 n=69 v=85
181248 Par ch=6 c=7 v=80
181632 On ch=6 n=69 v=85
182012 Off ch=6 n=69 v=85
182016 On ch=6 n=69 v=85
182396 Off ch=6 n=69 v=85
182400 On ch=6 n=72 v=85
183548 Off ch=6 n=72 v=85
184128 On ch=6 n=69 v=85
184316 Off ch=6 n=69 v=85
184320 On ch=6 n=74 v=85
184700 Off ch=6 n=74 v=85
184704 On ch=6 n=72 v=85
185084 Off ch=6 n=72 v=85
185088 On ch=6 n=69 v=85
186620 Off ch=6 n=69 v=85
187392 Par ch=6 c=7 v=80
187392 On ch=6 n=69 v=85
187772 Off ch=6 n=69 v=85
187776 On ch=6 n=69 v=85
188156 Off ch=6 n=69 v=85
188160 On ch=6 n=69 v=85
188540 Off ch=6 n=69 v=85
188544 On ch=6 n=69 v=85
188924 Off ch=6 n=69 v=85
188928 On ch=6 n=72 v=85
189308 Off ch=6 n=72 v=85
189312 On ch=6 n=67 v=85
189500 Off ch=6 n=67 v=85
189504 On ch=6 n=69 v=85
190460 Off ch=6 n=69 v=85
193344 On ch=6 n=69 v=85
193532 Off ch=6 n=69 v=85
193536 On ch=6 n=74 v=85
194684 Off ch=6 n=74 v=85
194688 On ch=6 n=72 v=85
195068 Off ch=6 n=72 v=85
195072 On ch=6 n=69 v=85
195452 Off ch=6 n=69 v=85
195456 On ch=6 n=69 v=85
195836 Off ch=6 n=69 v=85
196224 On ch=6 n=69 v=85
196604 Off ch=6 n=69 v=85
196608 On ch=6 n=72 v=85
196988 Off ch=6 n=72 v=85
196992 On ch=6 n=69 v=85
197372 Off ch=6 n=69 v=85
199488 On ch=6 n=69 v=85
199676 Off ch=6 n=69 v=85
199680 On ch=6 n=69 v=85
200828 Off ch=6 n=69 v=85
200832 On ch=6 n=69 v=85
201212 Off ch=6 n=69 v=85
201216 On ch=6 n=72 v=83
201984 Off ch=6 n=72 v=83
201984 On ch=6 n=69 v=85
202748 Off ch=6 n=69 v=85
202752 On ch=6 n=72 v=85
203516 Off ch=6 n=72 v=85
203520 On ch=6 n=67 v=85
204284 Off ch=6 n=67 v=85
204288 On ch=6 n=69 v=85
205052 Off ch=6 n=69 v=85
205824 Par ch=6 c=7 v=80
205851 On ch=6 n=57 v=81
206601 On ch=6 n=55 v=91
206645 Off ch=6 n=57 v=81
207443 On ch=6 n=53 v=89
207492 Off ch=6 n=55 v=91
208260 On ch=6 n=50 v=76
208316 Off ch=6 n=53 v=89
211827 Off ch=6 n=50 v=76
213504 Meta TrkEnd
TrkEnd
MTrk
0 Meta TrkName "Track 7"
280 PrCh ch=7 p=119
3012 On ch=7 n=81 v=46
4376 On ch=7 n=74 v=32
4487 Off ch=7 n=81 v=46
5964 On ch=7 n=69 v=10
6122 Off ch=7 n=74 v=32
7061 On ch=7 n=74 v=19
7333 Off ch=7 n=69 v=10
8222 On ch=7 n=81 v=47
8474 Off ch=7 n=74 v=19
9616 Off ch=7 n=81 v=47
9667 On ch=7 n=84 v=27
9817 On ch=7 n=86 v=29
9922 Off ch=7 n=84 v=27
11057 On ch=7 n=84 v=53
11192 Off ch=7 n=86 v=29
12234 On ch=7 n=81 v=27
12296 Off ch=7 n=84 v=53
12960 On ch=7 n=79 v=62
13056 Off ch=7 n=81 v=27
13762 On ch=7 n=74 v=39
13855 Off ch=7 n=79 v=62
14970 On ch=7 n=69 v=13
15156 Off ch=7 n=74 v=39
16094 On ch=7 n=62 v=33
16214 Off ch=7 n=69 v=13
17194 Off ch=7 n=62 v=33
17960 Meta TrkEnd
TrkEnd
MTrk
0 Meta TrkName "Track 10"
1808 Par ch=10 c=7 v=127
4241 On ch=10 n=51 v=111
4797 Off ch=10 n=51 v=111
4977 On ch=10 n=51 v=99
5294 Off ch=10 n=51 v=99
5356 On ch=10 n=42 v=94
5519 On ch=10 n=51 v=93
5574 Off ch=10 n=42 v=94
5745 Off ch=10 n=51 v=93
5909 On ch=10 n=51 v=84
6106 On ch=10 n=42 v=89
6138 Off ch=10 n=51 v=84
6438 Off ch=10 n=42 v=89
6486 On ch=10 n=51 v=59
6887 On ch=10 n=42 v=96
6889 Off ch=10 n=51 v=59
7057 On ch=10 n=51 v=83
7117 Off ch=10 n=42 v=96
7281 Off ch=10 n=51 v=83
7451 On ch=10 n=51 v=83
7659 On ch=10 n=42 v=94
7699 Off ch=10 n=51 v=83
8026 Off ch=10 n=42 v=94
8035 On ch=10 n=51 v=89
8401 Off ch=10 n=51 v=89
8454 On ch=10 n=42 v=94
8644 On ch=10 n=51 v=84
8704 Off ch=10 n=42 v=94
8941 Off ch=10 n=51 v=84
9031 On ch=10 n=51 v=83
9223 On ch=10 n=42 v=83
9271 Off ch=10 n=51 v=83
9577 Off ch=10 n=42 v=83
9584 On ch=10 n=51 v=96
9984 On ch=10 n=42 v=84
10014 Off ch=10 n=51 v=96
10169 On ch=10 n=51 v=78
10209 Off ch=10 n=42 v=84
10418 Off ch=10 n=51 v=78
10531 On ch=10 n=51 v=79
10762 On ch=10 n=42 v=92
10796 Off ch=10 n=51 v=79
11122 On ch=10 n=51 v=92
11130 Off ch=10 n=42 v=92
11543 On ch=10 n=42 v=80
11559 Off ch=10 n=51 v=92
11722 On ch=10 n=51 v=86
11764 Off ch=10 n=42 v=80
11915 Off ch=10 n=51 v=86
12116 On ch=10 n=51 v=94
12324 On ch=10 n=42 v=81
12352 Off ch=10 n=51 v=94
12639 On ch=10 n=51 v=56
12652 Off ch=10 n=42 v=81
13027 Off ch=10 n=51 v=56
13054 On ch=10 n=42 v=81
13237 On ch=10 n=51 v=79
13282 Off ch=10 n=42 v=81
13397 Off ch=10 n=51 v=79
13581 On ch=10 n=51 v=90
13802 On ch=10 n=42 v=96
13818 Off ch=10 n=51 v=90
14009 On ch=10 n=51 v=83
14041 Off ch=10 n=42 v=96
14534 On ch=10 n=42 v=92
14543 Off ch=10 n=51 v=83
14743 Off ch=10 n=42 v=92
14751 On ch=10 n=51 v=86
14996 Off ch=10 n=51 v=86
15148 On ch=10 n=51 v=56
15345 On ch=10 n=42 v=94
15396 Off ch=10 n=51 v=56
15722 On ch=10 n=51 v=66
15756 Off ch=10 n=42 v=94
16126 On ch=10 n=42 v=86
16166 Off ch=10 n=51 v=66
16386 On ch=10 n=51 v=64
16442 Off ch=10 n=42 v=86
16881 On ch=10 n=42 v=85
16896 Par ch=10 c=7 v=127
16897 Off ch=10 n=51 v=64
17062 On ch=10 n=51 v=87
17088 Off ch=10 n=42 v=85
17262 Off ch=10 n=51 v=87
17447 On ch=10 n=51 v=87
17656 On ch=10 n=42 v=92
17697 Off ch=10 n=51 v=87
18030 On ch=10 n=51 v=96
18055 Off ch=10 n=42 v=92
18429 On ch=10 n=42 v=86
18473 Off ch=10 n=51 v=96
18637 On ch=10 n=51 v=85
18682 Off ch=10 n=42 v=86
18856 Off ch=10 n=51 v=85
18979 On ch=10 n=51 v=103
19177 On ch=10 n=42 v=88
19227 Off ch=10 n=51 v=103
19559 On ch=10 n=51 v=100
19606 Off ch=10 n=42 v=88
19956 On ch=10 n=42 v=99
19968 Par ch=10 c=7 v=127
19969 Off ch=10 n=42 v=99
19969 Off ch=10 n=51 v=100
20134 On ch=10 n=51 v=87
20334 Off ch=10 n=51 v=87
20519 On ch=10 n=51 v=87
20728 On ch=10 n=42 v=92
20769 Off ch=10 n=51 v=87
21102 On ch=10 n=51 v=96
21127 Off ch=10 n=42 v=92
21501 On ch=10 n=42 v=86
21545 Off ch=10 n=51 v=96
21709 On ch=10 n=51 v=85
21754 Off ch=10 n=42 v=86
21928 Off ch=10 n=51 v=85
22051 On ch=10 n=51 v=103
22249 On ch=10 n=42 v=88
22299 Off ch=10 n=51 v=103
22631 On ch=10 n=51 v=100
22678 Off ch=10 n=42 v=88
23028 On ch=10 n=42 v=99
23040 Par ch=10 c=7 v=127
23041 Off ch=10 n=42 v=99
23041 Off ch=10 n=51 v=100
23206 On ch=10 n=51 v=87
23406 Off ch=10 n=51 v=87
23591 On ch=10 n=51 v=87
23800 On ch=10 n=42 v=92
23841 Off ch=10 n=51 v=87
24174 On ch=10 n=51 v=96
24199 Off ch=10 n=42 v=92
24573 On ch=10 n=42 v=86
24617 Off ch=10 n=51 v=96
24781 On ch=10 n=51 v=85
24826 Off ch=10 n=42 v=86
25000 Off ch=10 n=51 v=85
25123 On ch=10 n=51 v=103
25321 On ch=10 n=42 v=88
25371 Off ch=10 n=51 v=103
25703 On ch=10 n=51 v=100
25750 Off ch=10 n=42 v=88
26100 On ch=10 n=42 v=99
26112 Par ch=10 c=7 v=127
26113 Off ch=10 n=42 v=99
26113 Off ch=10 n=51 v=100
26278 On ch=10 n=51 v=87
26478 Off ch=10 n=51 v=87
26663 On ch=10 n=51 v=87
26872 On ch=10 n=42 v=92
26913 Off ch=10 n=51 v=87
27246 On ch=10 n=51 v=96
27271 Off ch=10 n=42 v=92
27645 On ch=10 n=42 v=86
27689 Off ch=10 n=51 v=96
27853 On ch=10 n=51 v=85
27898 Off ch=10 n=42 v=86
28072 Off ch=10 n=51 v=85
28195 On ch=10 n=51 v=103
28393 On ch=10 n=42 v=88
28443 Off ch=10 n=51 v=103
28775 On ch=10 n=51 v=100
28822 Off ch=10 n=42 v=88
29172 On ch=10 n=42 v=99
29184 Par ch=10 c=7 v=127
29185 Off ch=10 n=42 v=99
29185 Off ch=10 n=51 v=100
29350 On ch=10 n=51 v=87
29550 Off ch=10 n=51 v=87
29735 On ch=10 n=51 v=87
29944 On ch=10 n=42 v=92
29985 Off ch=10 n=51 v=87
30318 On ch=10 n=51 v=96
30343 Off ch=10 n=42 v=92
30717 On ch=10 n=42 v=86
30761 Off ch=10 n=51 v=96
30925 On ch=10 n=51 v=85
30970 Off ch=10 n=42 v=86
31144 Off ch=10 n=51 v=85
31267 On ch=10 n=51 v=103
31465 On ch=10 n=42 v=88
31515 Off ch=10 n=51 v=103
31847 On ch=10 n=51 v=100
31894 Off ch=10 n=42 v=88
32244 On ch=10 n=42 v=99
32256 Par ch=10 c=7 v=127
32257 Off ch=10 n=42 v=99
32257 Off ch=10 n=51 v=100
32422 On ch=10 n=51 v=87
32622 Off ch=10 n=51 v=87
32807 On ch=10 n=51 v=87
33016 On ch=10 n=42 v=92
33057 Off ch=10 n=51 v=87
33390 On ch=10 n=51 v=96
33415 Off ch=10 n=42 v=92
33789 On ch=10 n=42 v=86
33833 Off ch=10 n=51 v=96
33997 On ch=10 n=51 v=85
34042 Off ch=10 n=42 v=86
34216 Off ch=10 n=51 v=85
34339 On ch=10 n=51 v=103
34537 On ch=10 n=42 v=88
34587 Off ch=10 n=51 v=103
34919 On ch=10 n=51 v=100
34966 Off ch=10 n=42 v=88
35316 On ch=10 n=42 v=99
35328 Par ch=10 c=7 v=127
35329 Off ch=10 n=42 v=99
35329 Off ch=10 n=51 v=100
35494 On ch=10 n=51 v=87
35694 Off ch=10 n=51 v=87
35879 On ch=10 n=51 v=87
36088 On ch=10 n=42 v=92
36129 Off ch=10 n=51 v=87
36462 On ch=10 n=51 v=96
36487 Off ch=10 n=42 v=92
36861 On ch=10 n=42 v=86
36905 Off ch=10 n=51 v=96
37069 On ch=10 n=51 v=85
37114 Off ch=10 n=42 v=86
37288 Off ch=10 n=51 v=85
37411 On ch=10 n=51 v=103
37609 On ch=10 n=42 v=88
37659 Off ch=10 n=51 v=103
37991 On ch=10 n=51 v=100
38038 Off ch=10 n=42 v=88
38388 On ch=10 n=42 v=99
38400 Par ch=10 c=7 v=127
38401 Off ch=10 n=42 v=99
38401 Off ch=10 n=51 v=100
38566 On ch=10 n=51 v=87
38766 Off ch=10 n=51 v=87
38951 On ch=10 n=51 v=87
39160 On ch=10 n=42 v=92
39201 Off ch=10 n=51 v=87
39534 On ch=10 n=51 v=96
39559 Off ch=10 n=42 v=92
39933 On ch=10 n=42 v=86
39977 Off ch=10 n=51 v=96
40141 On ch=10 n=51 v=85
40186 Off ch=10 n=42 v=86
40360 Off ch=10 n=51 v=85
40483 On ch=10 n=51 v=103
40681 On ch=10 n=42 v=88
40731 Off ch=10 n=51 v=103
41063 On ch=10 n=51 v=100
41110 Off ch=10 n=42 v=88
41460 On ch=10 n=42 v=99
41472 Par ch=10 c=7 v=127
41473 Off ch=10 n=42 v=99
41473 Off ch=10 n=51 v=100
41638 On ch=10 n=51 v=87
41838 Off ch=10 n=51 v=87
42023 On ch=10 n=51 v=87
42232 On ch=10 n=42 v=92
42273 Off ch=10 n=51 v=87
42606 On ch=10 n=51 v=96
42631 Off ch=10 n=42 v=92
43005 On ch=10 n=42 v=86
43049 Off ch=10 n=51 v=96
43213 On ch=10 n=51 v=85
43258 Off ch=10 n=42 v=86
43432 Off ch=10 n=51 v=85
43555 On ch=10 n=51 v=103
43753 On ch=10 n=42 v=88
43803 Off ch=10 n=51 v=103
44135 On ch=10 n=51 v=100
44182 Off ch=10 n=42 v=88
44532 On ch=10 n=42 v=99
44544 Par ch=10 c=7 v=127
44545 Off ch=10 n=42 v=99
44545 Off ch=10 n=51 v=100
44710 On ch=10 n=51 v=87
44910 Off ch=10 n=51 v=87
45095 On ch=10 n=51 v=87
45304 On ch=10 n=42 v=92
45345 Off ch=10 n=51 v=87
45678 On ch=10 n=51 v=96
45703 Off ch=10 n=42 v=92
46077 On ch=10 n=42 v=86
46121 Off ch=10 n=51 v=96
46285 On ch=10 n=51 v=85
46330 Off ch=10 n=42 v=86
46504 Off ch=10 n=51 v=85
46627 On ch=10 n=51 v=103
46825 On ch=10 n=42 v=88
46875 Off ch=10 n=51 v=103
47207 On ch=10 n=51 v=100
47254 Off ch=10 n=42 v=88
47604 On ch=10 n=42 v=99
47616 Par ch=10 c=7 v=127
47617 Off ch=10 n=42 v=99
47617 Off ch=10 n=51 v=100
47782 On ch=10 n=51 v=87
47982 Off ch=10 n=51 v=87
48167 On ch=10 n=51 v=87
48376 On ch=10 n=42 v=92
48417 Off ch=10 n=51 v=87
48750 On ch=10 n=51 v=96
48775 Off ch=10 n=42 v=92
49149 On ch=10 n=42 v=86
49193 Off ch=10 n=51 v=96
49357 On ch=10 n=51 v=85
49402 Off ch=10 n=42 v=86
49576 Off ch=10 n=51 v=85
49699 On ch=10 n=51 v=103
49897 On ch=10 n=42 v=88
49947 Off ch=10 n=51 v=103
50279 On ch=10 n=51 v=100
50326 Off ch=10 n=42 v=88
50676 On ch=10 n=42 v=99
50688 Par ch=10 c=7 v=127
50689 Off ch=10 n=42 v=99
50689 Off ch=10 n=51 v=100
50854 On ch=10 n=51 v=87
51054 Off ch=10 n=51 v=87
51239 On ch=10 n=51 v=87
51448 On ch=10 n=42 v=92
51489 Off ch=10 n=51 v=87
51822 On ch=10 n=51 v=96
51847 Off ch=10 n=42 v=92
52221 On ch=10 n=42 v=86
52265 Off ch=10 n=51 v=96
52429 On ch=10 n=51 v=85
52474 Off ch=10 n=42 v=86
52648 Off ch=10 n=51 v=85
52771 On ch=10 n=51 v=103
52969 On ch=10 n=42 v=88
53019 Off ch=10 n=51 v=103
53351 On ch=10 n=51 v=100
53398 Off ch=10 n=42 v=88
53748 On ch=10 n=42 v=99
53760 Par ch=10 c=7 v=127
53761 Off ch=10 n=42 v=99
53761 Off ch=10 n=51 v=100
53926 On ch=10 n=51 v=87
54126 Off ch=10 n=51 v=87
54311 On ch=10 n=51 v=87
54520 On ch=10 n=42 v=92
54561 Off ch=10 n=51 v=87
54894 On ch=10 n=51 v=96
54919 Off ch=10 n=42 v=92
55293 On ch=10 n=42 v=86
55337 Off ch=10 n=51 v=96
55501 On ch=10 n=51 v=85
55546 Off ch=10 n=42 v=86
55720 Off ch=10 n=51 v=85
55843 On ch=10 n=51 v=103
56041 On ch=10 n=42 v=88
56091 Off ch=10 n=51 v=103
56423 On ch=10 n=51 v=100
56470 Off ch=10 n=42 v=88
56820 On ch=10 n=42 v=99
56832 Par ch=10 c=7 v=127
56833 Off ch=10 n=42 v=99
56833 Off ch=10 n=51 v=100
56998 On ch=10 n=51 v=87
57198 Off ch=10 n=51 v=87
57383 On ch=10 n=51 v=87
57592 On ch=10 n=42 v=92
57633 Off ch=10 n=51 v=87
57966 On ch=10 n=51 v=96
57991 Off ch=10 n=42 v=92
58365 On ch=10 n=42 v=86
58409 Off ch=10 n=51 v=96
58573 On ch=10 n=51 v=85
58618 Off ch=10 n=42 v=86
58792 Off ch=10 n=51 v=85
58915 On ch=10 n=51 v=103
59113 On ch=10 n=42 v=88
59163 Off ch=10 n=51 v=103
59495 On ch=10 n=51 v=100
59542 Off ch=10 n=42 v=88
59892 On ch=10 n=42 v=99
59904 Par ch=10 c=7 v=127
59905 Off ch=10 n=42 v=99
59905 Off ch=10 n=51 v=100
60070 On ch=10 n=51 v=87
60270 Off ch=10 n=51 v=87
60455 On ch=10 n=51 v=87
60664 On ch=10 n=42 v=92
60705 Off ch=10 n=51 v=87
61038 On ch=10 n=51 v=96
61063 Off ch=10 n=42 v=92
61437 On ch=10 n=42 v=86
61481 Off ch=10 n=51 v=96
61645 On ch=10 n=51 v=85
61690 Off ch=10 n=42 v=86
61864 Off ch=10 n=51 v=85
61987 On ch=10 n=51 v=103
62185 On ch=10 n=42 v=88
62235 Off ch=10 n=51 v=103
62567 On ch=10 n=51 v=100
62614 Off ch=10 n=42 v=88
62964 On ch=10 n=42 v=99
62976 Par ch=10 c=7 v=127
62977 Off ch=10 n=42 v=99
62977 Off ch=10 n=51 v=100
63142 On ch=10 n=51 v=87
63342 Off ch=10 n=51 v=87
63527 On ch=10 n=51 v=87
63736 On ch=10 n=42 v=92
63777 Off ch=10 n=51 v=87
64110 On ch=10 n=51 v=96
64135 Off ch=10 n=42 v=92
64509 On ch=10 n=42 v=86
64553 Off ch=10 n=51 v=96
64717 On ch=10 n=51 v=85
64762 Off ch=10 n=42 v=86
64936 Off ch=10 n=51 v=85
65059 On ch=10 n=51 v=103
65257 On ch=10 n=42 v=88
65307 Off ch=10 n=51 v=103
65639 On ch=10 n=51 v=100
65686 Off ch=10 n=42 v=88
66036 On ch=10 n=42 v=99
66049 Off ch=10 n=42 v=99
66049 Off ch=10 n=51 v=100
66176 Meta TrkEnd
TrkEnd
MTrk
0 Meta TrkName "Track 11"
28790 On ch=10 n=46 v=105
29371 Off ch=10 n=46 v=105
29547 On ch=10 n=46 v=105
30125 Off ch=10 n=46 v=105
30330 On ch=10 n=46 v=97
30887 On ch=10 n=52 v=37
30974 Off ch=10 n=46 v=97
31071 On ch=10 n=46 v=43
31144 Off ch=10 n=52 v=37
31842 On ch=10 n=49 v=18
31858 Off ch=10 n=46 v=43
31861 On ch=10 n=52 v=6
31985 Off ch=10 n=52 v=6
32066 On ch=10 n=46 v=20
32099 Off ch=10 n=49 v=18
32375 Off ch=10 n=46 v=20
32436 On ch=10 n=46 v=57
32588 Off ch=10 n=46 v=57
32971 On ch=10 n=46 v=79
33592 Off ch=10 n=46 v=79
33779 On ch=10 n=46 v=67
34289 Off ch=10 n=46 v=67
34554 On ch=10 n=46 v=64
34769 On ch=10 n=52 v=53
35009 Off ch=10 n=46 v=64
35259 On ch=10 n=49 v=48
35413 Off ch=10 n=52 v=53
35653 Off ch=10 n=49 v=48
35921 On ch=10 n=49 v=50
36464 On ch=10 n=52 v=23
36540 Off ch=10 n=49 v=50
36782 Off ch=10 n=52 v=23
37200 On ch=10 n=49 v=48
37469 On ch=10 n=52 v=25
37599 Off ch=10 n=49 v=48
37671 Off ch=10 n=52 v=25
37807 On ch=10 n=52 v=29
37983 On ch=10 n=49 v=49
38114 Off ch=10 n=52 v=29
38376 On ch=10 n=52 v=33
38431 Off ch=10 n=49 v=49
38741 Off ch=10 n=52 v=33
38779 On ch=10 n=49 v=16
38985 On ch=10 n=52 v=56
39172 Off ch=10 n=49 v=16
39366 On ch=10 n=49 v=46
39419 Off ch=10 n=52 v=56
39575 On ch=10 n=52 v=45
39739 Off ch=10 n=49 v=46
39988 Off ch=10 n=52 v=45
41062 On ch=10 n=49 v=49
41647 Off ch=10 n=49 v=49
41863 On ch=10 n=49 v=64
42907 Off ch=10 n=49 v=64
42977 On ch=10 n=49 v=64
43241 Off ch=10 n=49 v=64
43380 On ch=10 n=49 v=43
43631 Off ch=10 n=49 v=43
43749 On ch=10 n=49 v=37
44323 On ch=10 n=52 v=21
44398 Off ch=10 n=49 v=37
44528 On ch=10 n=49 v=19
44619 Off ch=10 n=52 v=21
45072 Off ch=10 n=49 v=19
45297 On ch=10 n=49 v=32
45927 On ch=10 n=52 v=27
46029 Off ch=10 n=49 v=32
46230 Off ch=10 n=52 v=27
46448 On ch=10 n=52 v=25
46633 On ch=10 n=49 v=65
46637 Off ch=10 n=52 v=25
46951 On ch=10 n=52 v=14
47003 Off ch=10 n=49 v=65
47249 Off ch=10 n=52 v=14
47408 On ch=10 n=52 v=34
47579 On ch=10 n=49 v=52
47710 Off ch=10 n=52 v=34
47959 Off ch=10 n=49 v=52
48403 On ch=10 n=49 v=15
48582 On ch=10 n=52 v=29
48667 Off ch=10 n=49 v=15
48824 Off ch=10 n=52 v=29
48930 On ch=10 n=52 v=20
49122 On ch=10 n=49 v=14
49184 Off ch=10 n=52 v=20
49455 Off ch=10 n=49 v=14
49580 On ch=10 n=49 v=13
49658 Off ch=10 n=49 v=13
49726 On ch=10 n=49 v=41
49930 On ch=10 n=52 v=39
49987 Off ch=10 n=49 v=41
50141 Off ch=10 n=52 v=39
50640 On ch=10 n=52 v=24
50851 Off ch=10 n=52 v=24
51041 On ch=10 n=52 v=20
51236 Off ch=10 n=52 v=20
51403 On ch=10 n=49 v=52
51893 Off ch=10 n=49 v=52
52223 On ch=10 n=52 v=27
52368 Off ch=10 n=52 v=27
52544 On ch=10 n=52 v=13
52688 Off ch=10 n=52 v=13
52824 On ch=10 n=52 v=45
53178 Off ch=10 n=52 v=45
53359 On ch=10 n=52 v=28
53733 On ch=10 n=49 v=29
53865 Off ch=10 n=52 v=28
54296 Off ch=10 n=49 v=29
54505 On ch=10 n=49 v=21
54764 On ch=10 n=52 v=24
54887 Off ch=10 n=49 v=21
54961 Off ch=10 n=52 v=24
55078 On ch=10 n=52 v=39
55272 On ch=10 n=49 v=26
55357 Off ch=10 n=52 v=39
55515 Off ch=10 n=49 v=26
56245 On ch=10 n=52 v=42
56482 Off ch=10 n=52 v=42
56604 On ch=10 n=52 v=41
56826 On ch=10 n=49 v=21
56887 Off ch=10 n=52 v=41
57068 Off ch=10 n=49 v=21
57147 On ch=10 n=49 v=31
57185 On ch=10 n=52 v=60
57259 Off ch=10 n=49 v=31
57422 Off ch=10 n=52 v=60
57550 On ch=10 n=52 v=46
57786 On ch=10 n=49 v=47
57802 Off ch=10 n=52 v=46
58615 Off ch=10 n=49 v=47
59861 On ch=10 n=52 v=38
60249 On ch=10 n=49 v=50
60298 Off ch=10 n=52 v=38
60629 Off ch=10 n=49 v=50
60708 On ch=10 n=49 v=21
60839 Off ch=10 n=49 v=21
61210 On ch=10 n=49 v=35
61329 Off ch=10 n=49 v=35
61687 On ch=10 n=49 v=14
61946 Off ch=10 n=49 v=14
62017 On ch=10 n=49 v=51
62956 Off ch=10 n=49 v=51
62959 On ch=10 n=52 v=35
63704 On ch=10 n=49 v=57
63860 Off ch=10 n=52 v=35
65195 Off ch=10 n=49 v=57
66050 On ch=10 n=48 v=89
67409 Off ch=10 n=48 v=89
67609 On ch=10 n=48 v=83
67813 On ch=10 n=45 v=79
67923 Off ch=10 n=48 v=83
68080 Off ch=10 n=45 v=79
68139 On ch=10 n=45 v=74
68341 On ch=10 n=41 v=68
68457 Off ch=10 n=45 v=74
69019 Off ch=10 n=41 v=68
70690 On ch=10 n=48 v=68
71215 Off ch=10 n=48 v=68
71445 On ch=10 n=48 v=61
71962 Off ch=10 n=48 v=61
72168 On ch=10 n=48 v=56
72756 Off ch=10 n=48 v=56
72925 On ch=10 n=48 v=45
73129 On ch=10 n=37 v=33
73133 Off ch=10 n=48 v=45
73254 Off ch=10 n=37 v=33
73486 On ch=10 n=37 v=52
73604 Off ch=10 n=37 v=52
73648 On ch=10 n=48 v=47
74240 Off ch=10 n=48 v=47
74480 On ch=10 n=48 v=43
74993 Off ch=10 n=48 v=43
75239 On ch=10 n=48 v=44
75475 On ch=10 n=37 v=13
75492 Off ch=10 n=48 v=44
75607 Off ch=10 n=37 v=13
75736 On ch=10 n=37 v=21
75945 Off ch=10 n=37 v=21
75977 On ch=10 n=48 v=49
76499 Off ch=10 n=48 v=49
76792 On ch=10 n=48 v=54
77290 Off ch=10 n=48 v=54
77582 On ch=10 n=48 v=49
78004 Off ch=10 n=48 v=49
78343 On ch=10 n=48 v=61
78515 On ch=10 n=37 v=56
78558 Off ch=10 n=48 v=61
78691 Off ch=10 n=37 v=56
78904 On ch=10 n=37 v=62
79047 Off ch=10 n=37 v=62
79080 On ch=10 n=48 v=56
79453 Off ch=10 n=48 v=56
79855 On ch=10 n=48 v=52
80295 Off ch=10 n=48 v=52
80612 On ch=10 n=48 v=59
81073 Off ch=10 n=48 v=59
81393 On ch=10 n=48 v=65
81860 Off ch=10 n=48 v=65
82192 On ch=10 n=48 v=48
82642 Off ch=10 n=48 v=48
82972 On ch=10 n=48 v=31
83191 On ch=10 n=37 v=25
83194 Off ch=10 n=48 v=31
83296 Off ch=10 n=37 v=25
83527 On ch=10 n=37 v=67
83689 Off ch=10 n=37 v=67
83758 On ch=10 n=48 v=22
83981 Off ch=10 n=48 v=22
84091 On ch=10 n=48 v=43
84342 Off ch=10 n=48 v=43
84472 On ch=10 n=48 v=49
84674 Off ch=10 n=48 v=49
84689 On ch=10 n=37 v=60
84876 Off ch=10 n=37 v=60
85036 On ch=10 n=37 v=47
85200 Off ch=10 n=37 v=47
85227 On ch=10 n=48 v=58
85637 Off ch=10 n=48 v=58
86008 On ch=10 n=48 v=66
86441 Off ch=10 n=48 v=66
86794 On ch=10 n=48 v=58
87210 Off ch=10 n=48 v=58
87541 On ch=10 n=48 v=63
87753 Off ch=10 n=48 v=63
87785 On ch=10 n=37 v=14
87890 Off ch=10 n=37 v=14
88102 On ch=10 n=37 v=67
88258 Off ch=10 n=37 v=67
88299 On ch=10 n=48 v=52
88567 Off ch=10 n=48 v=52
89052 On ch=10 n=48 v=60
89229 Off ch=10 n=48 v=60
89259 On ch=10 n=37 v=56
89366 Off ch=10 n=37 v=56
89628 On ch=10 n=37 v=68
89765 Off ch=10 n=37 v=68
89810 On ch=10 n=48 v=59
90124 Off ch=10 n=48 v=59
90608 On ch=10 n=37 v=59
90776 Off ch=10 n=37 v=59
90821 On ch=10 n=48 v=55
90929 Off ch=10 n=48 v=55
91162 On ch=10 n=48 v=63
91328 Off ch=10 n=48 v=63
91359 On ch=10 n=37 v=73
91549 Off ch=10 n=37 v=73
92129 On ch=10 n=48 v=60
92551 Off ch=10 n=48 v=60
92919 On ch=10 n=48 v=55
93156 Off ch=10 n=48 v=55
93696 On ch=10 n=48 v=70
93822 Off ch=10 n=48 v=70
93925 On ch=10 n=37 v=67
94028 Off ch=10 n=37 v=67
94261 On ch=10 n=37 v=60
94415 Off ch=10 n=37 v=60
94437 On ch=10 n=48 v=62
94540 Off ch=10 n=48 v=62
95205 On ch=10 n=48 v=67
95417 Off ch=10 n=48 v=67
95941 On ch=10 n=37 v=51
96430 Off ch=10 n=37 v=51
96758 On ch=10 n=48 v=60
96939 Off ch=10 n=48 v=60
96971 On ch=10 n=37 v=34
97089 Off ch=10 n=37 v=34
97342 On ch=10 n=37 v=64
97515 Off ch=10 n=37 v=64
97527 On ch=10 n=48 v=58
97780 Off ch=10 n=48 v=58
98327 On ch=10 n=48 v=68
98511 Off ch=10 n=48 v=68
99097 On ch=10 n=48 v=73
99189 Off ch=10 n=48 v=73
99295 On ch=10 n=37 v=65
99453 Off ch=10 n=37 v=65
99646 On ch=10 n=37 v=72
99779 Off ch=10 n=37 v=72
99825 On ch=10 n=48 v=72
99954 Off ch=10 n=48 v=72
100624 On ch=10 n=48 v=69
100947 Off ch=10 n=48 v=69
101416 On ch=10 n=48 v=71
101496 Off ch=10 n=48 v=71
101591 On ch=10 n=37 v=62
101722 Off ch=10 n=37 v=62
101935 On ch=10 n=37 v=63
102015 Off ch=10 n=37 v=63
102146 On ch=10 n=37 v=64
102295 Off ch=10 n=37 v=64
102877 On ch=10 n=48 v=65
102954 Off ch=10 n=48 v=65
103663 On ch=10 n=48 v=63
103742 Off ch=10 n=48 v=63
103886 On ch=10 n=37 v=58
104189 Off ch=10 n=37 v=58
104425 On ch=10 n=37 v=37
104766 Off ch=10 n=37 v=37
105180 On ch=10 n=37 v=69
105371 Off ch=10 n=37 v=69
105377 On ch=10 n=48 v=63
105471 Off ch=10 n=48 v=63
105725 On ch=10 n=48 v=68
105803 Off ch=10 n=48 v=68
105914 On ch=10 n=37 v=71
106120 Off ch=10 n=37 v=71
106729 On ch=10 n=37 v=62
107111 Off ch=10 n=37 v=62
107504 On ch=10 n=37 v=73
107927 Off ch=10 n=37 v=73
108281 On ch=10 n=37 v=76
108704 Off ch=10 n=37 v=76
109052 On ch=10 n=37 v=77
109427 Off ch=10 n=37 v=77
109822 On ch=10 n=37 v=69
110178 Off ch=10 n=37 v=69
110184 On ch=10 n=48 v=76
110341 On ch=10 n=36 v=48
110429 Off ch=10 n=48 v=76
110555 Off ch=10 n=36 v=48
110561 On ch=10 n=37 v=74
110998 Off ch=10 n=37 v=74
111347 On ch=10 n=37 v=69
111718 Off ch=10 n=37 v=69
112110 On ch=10 n=37 v=77
112293 On ch=10 n=48 v=72
112388 Off ch=10 n=48 v=72
112407 Off ch=10 n=37 v=77
112645 On ch=10 n=48 v=79
112831 On ch=10 n=37 v=76
112870 Off ch=10 n=48 v=79
113251 Off ch=10 n=37 v=76
113655 On ch=10 n=37 v=71
114024 Off ch=10 n=37 v=71
114430 On ch=10 n=37 v=72
114793 Off ch=10 n=37 v=72
115209 On ch=10 n=37 v=71
115587 Off ch=10 n=37 v=71
115963 On ch=10 n=37 v=67
116350 Off ch=10 n=37 v=67
116712 On ch=10 n=37 v=71
117100 Off ch=10 n=37 v=71
117452 On ch=10 n=37 v=60
117481 On ch=10 n=41 v=77
117663 On ch=10 n=45 v=70
117824 Off ch=10 n=41 v=77
118013 On ch=10 n=47 v=72
118057 Off ch=10 n=45 v=70
118205 On ch=10 n=48 v=60
118216 Off ch=10 n=37 v=60
118285 Off ch=10 n=47 v=72
118680 Off ch=10 n=48 v=60
119026 On ch=10 n=37 v=58
119416 Off ch=10 n=37 v=58
119809 On ch=10 n=37 v=58
120189 Off ch=10 n=37 v=58
120565 On ch=10 n=37 v=64
120959 Off ch=10 n=37 v=64
121339 On ch=10 n=37 v=69
121544 Off ch=10 n=37 v=69
122079 On ch=10 n=37 v=65
122451 Off ch=10 n=37 v=65
122838 On ch=10 n=37 v=67
123256 Off ch=10 n=37 v=67
123597 On ch=10 n=37 v=67
123640 On ch=10 n=41 v=74
123862 On ch=10 n=45 v=66
124012 Off ch=10 n=37 v=67
124199 On ch=10 n=47 v=55
124263 Off ch=10 n=45 v=66
124375 On ch=10 n=48 v=66
124423 On ch=10 n=37 v=63
124443 Off ch=10 n=47 v=55
124575 Off ch=10 n=41 v=74
124813 Off ch=10 n=37 v=63
124888 Off ch=10 n=48 v=66
125191 On ch=10 n=37 v=64
125581 Off ch=10 n=37 v=64
125943 On ch=10 n=37 v=66
126329 Off ch=10 n=37 v=66
126701 On ch=10 n=37 v=61
127060 Off ch=10 n=37 v=61
127456 On ch=10 n=37 v=60
127856 Off ch=10 n=37 v=60
128242 On ch=10 n=37 v=60
128457 On ch=10 n=48 v=46
128462 Off ch=10 n=37 v=60
128635 Off ch=10 n=48 v=46
128805 On ch=10 n=48 v=40
129004 On ch=10 n=37 v=67
129115 Off ch=10 n=48 v=40
129404 Off ch=10 n=37 v=67
129762 On ch=10 n=37 v=55
130161 Off ch=10 n=37 v=55
130528 On ch=10 n=37 v=56
130908 On ch=10 n=48 v=53
131006 Off ch=10 n=37 v=56
131318 On ch=10 n=37 v=53
131400 Off ch=10 n=48 v=53
131469 On ch=10 n=48 v=54
131533 Off ch=10 n=37 v=53
131693 Off ch=10 n=48 v=54
131865 On ch=10 n=48 v=56
132058 On ch=10 n=47 v=55
132138 Off ch=10 n=48 v=56
132275 On ch=10 n=45 v=61
132309 Off ch=10 n=47 v=55
132616 On ch=10 n=43 v=66
132661 Off ch=10 n=45 v=61
132801 On ch=10 n=41 v=70
132855 Off ch=10 n=43 v=66
133263 On ch=10 n=37 v=65
133272 Off ch=10 n=41 v=70
133567 Off ch=10 n=37 v=65
134027 On ch=10 n=37 v=57
134351 Off ch=10 n=37 v=57
134775 On ch=10 n=37 v=58
135008 Off ch=10 n=37 v=58
135388 On ch=10 n=37 v=19
135566 Off ch=10 n=37 v=19
135763 On ch=10 n=37 v=60
135933 Off ch=10 n=37 v=60
136294 On ch=10 n=37 v=64
136563 Off ch=10 n=37 v=64
137058 On ch=10 n=37 v=33
137379 Off ch=10 n=37 v=33
137613 On ch=10 n=37 v=62
137807 Off ch=10 n=37 v=62
137990 On ch=10 n=37 v=73
138167 Off ch=10 n=37 v=73
138639 On ch=10 n=37 v=64
138805 Off ch=10 n=37 v=64
139024 On ch=10 n=37 v=63
139461 Off ch=10 n=37 v=63
139775 On ch=10 n=37 v=62
140216 Off ch=10 n=37 v=62
140538 On ch=10 n=37 v=37
140922 Off ch=10 n=37 v=37
141294 On ch=10 n=37 v=54
141749 Off ch=10 n=37 v=54
142053 On ch=10 n=37 v=51
142454 Off ch=10 n=37 v=51
142818 On ch=10 n=37 v=56
143290 Off ch=10 n=37 v=56
143594 On ch=10 n=37 v=32
143962 Off ch=10 n=37 v=32
144357 On ch=10 n=37 v=44
144622 Off ch=10 n=37 v=44
145153 On ch=10 n=37 v=47
145487 Off ch=10 n=37 v=47
145875 On ch=10 n=37 v=54
146122 Off ch=10 n=37 v=54
146696 On ch=10 n=37 v=26
146977 Off ch=10 n=37 v=26
147446 On ch=10 n=37 v=56
147641 Off ch=10 n=37 v=56
147655 On ch=10 n=50 v=25
147906 Off ch=10 n=50 v=25
147998 On ch=10 n=50 v=22
148196 On ch=10 n=37 v=52
148287 Off ch=10 n=50 v=22
148461 Off ch=10 n=37 v=52
148959 On ch=10 n=50 v=57
149417 On ch=10 n=37 v=50
149674 Off ch=10 n=37 v=50
150212 Off ch=10 n=50 v=57
150293 On ch=10 n=50 v=24
150564 On ch=10 n=37 v=9
150631 Off ch=10 n=50 v=24
150768 Off ch=10 n=37 v=9
150769 On ch=10 n=50 v=51
151245 On ch=10 n=37 v=54
151352 Off ch=10 n=50 v=51
151522 Off ch=10 n=37 v=54
151858 On ch=10 n=50 v=40
152062 On ch=10 n=37 v=42
152455 On ch=10 n=47 v=35
152513 Off ch=10 n=37 v=42
152669 Off ch=10 n=50 v=40
152839 On ch=10 n=37 v=27
152896 Off ch=10 n=47 v=35
153217 Off ch=10 n=37 v=27
153434 On ch=10 n=37 v=62
153620 On ch=10 n=50 v=46
153634 Off ch=10 n=37 v=62
153830 On ch=10 n=47 v=41
154166 On ch=10 n=43 v=52
154292 Off ch=10 n=50 v=46
154319 Off ch=10 n=47 v=41
154375 On ch=10 n=37 v=47
154380 Off ch=10 n=43 v=52
154782 Off ch=10 n=37 v=47
155112 On ch=10 n=37 v=56
155307 On ch=10 n=50 v=43
155453 Off ch=10 n=37 v=56
155697 On ch=10 n=47 v=38
155932 On ch=10 n=43 v=25
155948 Off ch=10 n=47 v=38
156012 Off ch=10 n=50 v=43
156116 Off ch=10 n=43 v=25
156194 On ch=10 n=37 v=14
156447 Off ch=10 n=37 v=14
156457 On ch=10 n=43 v=56
156632 On ch=10 n=37 v=65
157027 Off ch=10 n=43 v=56
157032 Off ch=10 n=37 v=65
157168 On ch=10 n=47 v=10
157371 On ch=10 n=37 v=53
157394 Off ch=10 n=47 v=10
157731 Off ch=10 n=37 v=53
158180 On ch=10 n=37 v=41
158382 On ch=10 n=43 v=39
158493 Off ch=10 n=37 v=41
158671 Off ch=10 n=43 v=39
158797 On ch=10 n=47 v=21
158941 Off ch=10 n=47 v=21
158951 On ch=10 n=37 v=57
159205 Off ch=10 n=37 v=57
159714 On ch=10 n=37 v=60
159920 On ch=10 n=43 v=36
160030 Off ch=10 n=37 v=60
160313 On ch=10 n=47 v=40
160416 Off ch=10 n=43 v=36
160494 On ch=10 n=50 v=37
160609 Off ch=10 n=47 v=40
160806 Off ch=10 n=50 v=37
160896 On ch=10 n=37 v=52
161009 Off ch=10 n=37 v=52
161302 On ch=10 n=37 v=51
161470 On ch=10 n=43 v=54
161479 Off ch=10 n=37 v=51
161819 On ch=10 n=37 v=57
162030 Off ch=10 n=43 v=54
162073 Off ch=10 n=37 v=57
162842 On ch=10 n=37 v=44
163012 On ch=10 n=43 v=53
163232 Off ch=10 n=37 v=44
163438 Off ch=10 n=43 v=53
163548 On ch=10 n=47 v=12
163795 Off ch=10 n=47 v=12
163906 On ch=10 n=37 v=9
164092 Off ch=10 n=37 v=9
164199 On ch=10 n=47 v=14
164342 On ch=10 n=37 v=50
164403 Off ch=10 n=47 v=14
164542 On ch=10 n=47 v=52
164603 Off ch=10 n=37 v=50
164828 Off ch=10 n=47 v=52
164874 On ch=10 n=37 v=56
164953 On ch=10 n=47 v=44
165051 Off ch=10 n=37 v=56
165482 On ch=10 n=37 v=51
165586 Off ch=10 n=47 v=44
165693 Off ch=10 n=37 v=51
165933 On ch=10 n=43 v=25
166380 Off ch=10 n=43 v=25
166549 On ch=10 n=37 v=37
166974 Off ch=10 n=37 v=37
167426 On ch=10 n=37 v=35
167673 On ch=10 n=43 v=18
167887 Off ch=10 n=37 v=35
167908 Off ch=10 n=43 v=18
167976 On ch=10 n=43 v=37
168189 On ch=10 n=47 v=33
168405 On ch=10 n=50 v=16
168433 Off ch=10 n=43 v=37
168608 Off ch=10 n=47 v=33
168805 On ch=10 n=47 v=38
169174 Off ch=10 n=50 v=16
169187 On ch=10 n=37 v=20
169361 Off ch=10 n=47 v=38
169487 Off ch=10 n=37 v=20
169514 On ch=10 n=43 v=54
169685 On ch=10 n=37 v=62
169833 Off ch=10 n=43 v=54
170115 Off ch=10 n=37 v=62
170430 On ch=10 n=37 v=57
170814 On ch=10 n=43 v=17
170865 Off ch=10 n=37 v=57
171275 On ch=10 n=37 v=20
171343 Off ch=10 n=43 v=17
171646 Off ch=10 n=37 v=20
171671 On ch=10 n=43 v=18
172020 On ch=10 n=37 v=14
172170 Off ch=10 n=43 v=18
172357 On ch=10 n=47 v=12
172482 Off ch=10 n=37 v=14
172657 On ch=10 n=50 v=52
172783 Off ch=10 n=47 v=12
172863 On ch=10 n=37 v=46
173014 Off ch=10 n=50 v=52
173240 Off ch=10 n=37 v=46
173338 On ch=10 n=50 v=24
173527 On ch=10 n=37 v=62
173738 Off ch=10 n=50 v=24
174256 Off ch=10 n=37 v=62
174388 On ch=10 n=37 v=16
174761 Off ch=10 n=37 v=16
175047 On ch=10 n=37 v=51
175548 Off ch=10 n=37 v=51
181273 On ch=10 n=48 v=89
181726 Off ch=10 n=48 v=89
181817 On ch=10 n=48 v=71
182030 On ch=10 n=37 v=74
182087 Off ch=10 n=48 v=71
182385 On ch=10 n=48 v=60
182401 Off ch=10 n=37 v=74
182719 On ch=10 n=37 v=67
182791 Off ch=10 n=48 v=60
183306 On ch=10 n=48 v=68
183395 Off ch=10 n=37 v=67
183499 On ch=10 n=37 v=56
183541 Off ch=10 n=48 v=68
183893 On ch=10 n=48 v=65
183980 Off ch=10 n=48 v=65
184061 Off ch=10 n=37 v=56
184089 On ch=10 n=48 v=56
184275 On ch=10 n=37 v=72
184423 Off ch=10 n=48 v=56
184657 On ch=10 n=48 v=60
184932 Off ch=10 n=37 v=72
185044 On ch=10 n=37 v=62
185168 Off ch=10 n=48 v=60
186233 On ch=10 n=48 v=57
186302 Off ch=10 n=48 v=57
186420 On ch=10 n=45 v=65
186565 Off ch=10 n=37 v=62
186627 On ch=10 n=41 v=70
186709 Off ch=10 n=45 v=65
186961 On ch=10 n=37 v=67
187161 On ch=10 n=45 v=66
187199 Off ch=10 n=37 v=67
187434 Off ch=10 n=41 v=70
187683 Off ch=10 n=45 v=66
187704 On ch=10 n=37 v=74
187899 On ch=10 n=41 v=55
188031 Off ch=10 n=37 v=74
188108 On ch=10 n=45 v=55
188923 On ch=10 n=37 v=66
188954 Off ch=10 n=45 v=55
188993 Off ch=10 n=41 v=55
189098 On ch=10 n=41 v=35
189140 Off ch=10 n=37 v=66
189393 Off ch=10 n=41 v=35
189488 On ch=10 n=41 v=45
189672 On ch=10 n=37 v=69
190175 Off ch=10 n=37 v=69
190300 Off ch=10 n=41 v=45
190415 On ch=10 n=37 v=73
190606 On ch=10 n=41 v=44
190812 Off ch=10 n=37 v=73
191001 On ch=10 n=45 v=66
191198 On ch=10 n=37 v=76
191229 Off ch=10 n=45 v=66
191267 Off ch=10 n=41 v=44
191672 Off ch=10 n=37 v=76
191991 On ch=10 n=37 v=55
192189 On ch=10 n=41 v=29
192507 Off ch=10 n=37 v=55
192590 On ch=10 n=45 v=24
193134 On ch=10 n=48 v=38
193225 Off ch=10 n=45 v=24
193361 On ch=10 n=45 v=59
193400 Off ch=10 n=48 v=38
193525 On ch=10 n=37 v=67
193562 Off ch=10 n=45 v=59
193896 On ch=10 n=45 v=44
193947 Off ch=10 n=37 v=67
194278 On ch=10 n=37 v=54
194322 Off ch=10 n=45 v=44
194354 Off ch=10 n=41 v=29
194774 Off ch=10 n=37 v=54
194863 On ch=10 n=45 v=53
194897 On ch=10 n=41 v=13
195048 On ch=10 n=37 v=65
195096 Off ch=10 n=45 v=53
195243 Off ch=10 n=41 v=13
195533 Off ch=10 n=37 v=65
195800 On ch=10 n=37 v=61
196364 Off ch=10 n=37 v=61
196575 On ch=10 n=37 v=62
196738 On ch=10 n=41 v=16
196845 On ch=10 n=45 v=40
196993 Off ch=10 n=45 v=40
197028 Off ch=10 n=41 v=16
197109 Off ch=10 n=37 v=62
197152 On ch=10 n=45 v=56
197379 On ch=10 n=48 v=31
197763 On ch=10 n=37 v=66
197781 Off ch=10 n=45 v=56
197809 Off ch=10 n=48 v=31
197972 On ch=10 n=41 v=53
198213 Off ch=10 n=37 v=66
198895 On ch=10 n=37 v=43
199395 Off ch=10 n=37 v=43
199398 On ch=10 n=45 v=9
199594 Off ch=10 n=45 v=9
199623 On ch=10 n=37 v=60
199958 On ch=10 n=45 v=37
200104 Off ch=10 n=37 v=60
200223 On ch=10 n=48 v=18
200371 Off ch=10 n=45 v=37
200386 On ch=10 n=37 v=60
200504 Off ch=10 n=48 v=18
200892 Off ch=10 n=37 v=60
201151 On ch=10 n=37 v=51
201620 On ch=10 n=48 v=12
201776 Off ch=10 n=37 v=51
201968 On ch=10 n=37 v=57
202036 Off ch=10 n=48 v=12
202249 On ch=10 n=45 v=21
202569 On ch=10 n=48 v=27
202611 Off ch=10 n=45 v=21
202632 Off ch=10 n=37 v=57
203054 Off ch=10 n=48 v=27
203083 On ch=10 n=37 v=13
203326 Off ch=10 n=37 v=13
203429 Off ch=10 n=41 v=53
203489 On ch=10 n=50 v=19
203639 Off ch=10 n=50 v=19
203710 On ch=10 n=50 v=37
203901 On ch=10 n=37 v=41
204179 Off ch=10 n=50 v=37
204179 On ch=10 n=48 v=19
204288 Off ch=10 n=37 v=41
204710 On ch=10 n=37 v=40
204825 Off ch=10 n=48 v=19
205093 On ch=10 n=48 v=43
205654 Off ch=10 n=37 v=40
205842 On ch=10 n=37 v=62
205875 On ch=10 n=47 v=63
205954 Off ch=10 n=48 v=43
206649 On ch=10 n=43 v=74
206778 Off ch=10 n=47 v=63
207385 On ch=10 n=40 v=78
207699 Off ch=10 n=43 v=74
207766 Off ch=10 n=37 v=62
208331 On ch=10 n=36 v=79
208432 Off ch=10 n=40 v=78
209030 On ch=10 n=38 v=42
209096 Off ch=10 n=38 v=42
209198 On ch=10 n=38 v=40
209270 Off ch=10 n=38 v=40
209351 On ch=10 n=38 v=33
209422 Off ch=10 n=38 v=33
209507 On ch=10 n=38 v=41
209578 Off ch=10 n=38 v=41
209663 On ch=10 n=38 v=39
209731 Off ch=10 n=38 v=39
209828 On ch=10 n=38 v=29
209895 Off ch=10 n=38 v=29
209987 On ch=10 n=38 v=28
210060 Off ch=10 n=38 v=28
210137 On ch=10 n=38 v=27
210211 Off ch=10 n=38 v=27
210274 On ch=10 n=38 v=27
210345 Off ch=10 n=38 v=27
210411 On ch=10 n=38 v=31
210473 Off ch=10 n=38 v=31
210559 On ch=10 n=38 v=27
210610 Off ch=10 n=38 v=27
210684 On ch=10 n=38 v=37
210763 Off ch=10 n=38 v=37
210818 On ch=10 n=38 v=31
210879 Off ch=10 n=38 v=31
210944 On ch=10 n=38 v=31
211010 Off ch=10 n=38 v=31
211078 On ch=10 n=38 v=36
211132 Off ch=10 n=38 v=36
211202 On ch=10 n=38 v=37
211264 Off ch=10 n=38 v=37
211358 On ch=10 n=38 v=27
211415 Off ch=10 n=38 v=27
211544 On ch=10 n=38 v=30
211646 Off ch=10 n=38 v=30
212210 Off ch=10 n=36 v=79
212936 Meta TrkEnd
TrkEnd
