MFile 1 8 120
MTrk
0 TimeSig 4/4 24 8
0 KeySig 0 major
0 Tempo 545455
0 Meta Marker "Touch Me, by the Doors. Setup for Roland SC-88  4/20/95"
0 Meta TrkEnd
TrkEnd
MTrk
0 Meta 0x21 00
0 Meta TrkName "Organ "
0 Par ch=2 c=0 v=0
0 PrCh ch=2 p=19
0 Par ch=2 c=7 v=102
0 Par ch=2 c=0 v=0
0 PrCh ch=2 p=19
480 On ch=2 n=68 v=82
494 On ch=2 n=68 v=0
540 On ch=2 n=68 v=71
557 On ch=2 n=68 v=0
600 On ch=2 n=68 v=82
656 On ch=2 n=68 v=0
660 On ch=2 n=66 v=52
690 On ch=2 n=68 v=71
694 On ch=2 n=66 v=0
712 On ch=2 n=68 v=0
750 On ch=2 n=68 v=90
802 On ch=2 n=68 v=0
810 On ch=2 n=66 v=53
840 On ch=2 n=68 v=78
844 On ch=2 n=66 v=0
898 On ch=2 n=68 v=0
900 On ch=2 n=70 v=73
960 On ch=2 n=68 v=78
962 On ch=2 n=70 v=0
980 On ch=2 n=68 v=0
1020 On ch=2 n=68 v=70
1040 On ch=2 n=68 v=0
1080 On ch=2 n=68 v=93
1140 On ch=2 n=66 v=49
1145 On ch=2 n=68 v=0
1170 On ch=2 n=68 v=58
1173 On ch=2 n=66 v=0
1196 On ch=2 n=68 v=0
1230 On ch=2 n=68 v=82
1285 On ch=2 n=68 v=0
1290 On ch=2 n=66 v=60
1320 On ch=2 n=68 v=76
1321 On ch=2 n=66 v=0
1380 On ch=2 n=70 v=71
1384 On ch=2 n=68 v=0
1440 On ch=2 n=71 v=74
1440 On ch=2 n=68 v=82
1441 On ch=2 n=70 v=0
1461 On ch=2 n=68 v=0
1465 On ch=2 n=71 v=0
1500 On ch=2 n=71 v=70
1500 On ch=2 n=68 v=87
1520 On ch=2 n=68 v=0
1520 On ch=2 n=71 v=0
1560 On ch=2 n=71 v=69
1560 On ch=2 n=68 v=93
1613 On ch=2 n=68 v=0
1620 On ch=2 n=70 v=57
1620 On ch=2 n=66 v=65
1622 On ch=2 n=71 v=0
1650 On ch=2 n=71 v=70
1650 On ch=2 n=68 v=90
1654 On ch=2 n=70 v=0
1659 On ch=2 n=66 v=0
1670 On ch=2 n=68 v=0
1673 On ch=2 n=71 v=0
1710 On ch=2 n=71 v=66
1710 On ch=2 n=68 v=96
1763 On ch=2 n=68 v=0
1770 On ch=2 n=70 v=58
1770 On ch=2 n=66 v=70
1774 On ch=2 n=71 v=0
1798 On ch=2 n=66 v=0
1800 On ch=2 n=71 v=75
1800 On ch=2 n=68 v=80
1802 On ch=2 n=70 v=0
1857 On ch=2 n=71 v=0
1858 On ch=2 n=68 v=0
1860 On ch=2 n=73 v=73
1860 On ch=2 n=70 v=78
1919 On ch=2 n=70 v=0
1920 On ch=2 n=71 v=79
1920 On ch=2 n=68 v=87
1924 On ch=2 n=73 v=0
1939 On ch=2 n=68 v=0
1946 On ch=2 n=71 v=0
1980 On ch=2 n=71 v=79
1980 On ch=2 n=68 v=90
2000 On ch=2 n=68 v=0
2002 On ch=2 n=71 v=0
2040 On ch=2 n=71 v=83
2040 On ch=2 n=68 v=96
2098 On ch=2 n=68 v=0
2100 On ch=2 n=70 v=57
2100 On ch=2 n=66 v=66
2104 On ch=2 n=71 v=0
2130 On ch=2 n=71 v=74
2130 On ch=2 n=68 v=82
2131 On ch=2 n=70 v=0
2136 On ch=2 n=66 v=0
2150 On ch=2 n=71 v=0
2154 On ch=2 n=68 v=0
2190 On ch=2 n=71 v=77
2190 On ch=2 n=68 v=93
2245 On ch=2 n=68 v=0
2250 On ch=2 n=70 v=67
2250 On ch=2 n=66 v=80
2252 On ch=2 n=71 v=0
2275 On ch=2 n=70 v=0
2280 On ch=2 n=71 v=74
2280 On ch=2 n=68 v=85
2281 On ch=2 n=66 v=0
2333 On ch=2 n=71 v=0
2340 On ch=2 n=73 v=67
2340 On ch=2 n=70 v=80
2344 On ch=2 n=68 v=0
2400 On ch=2 n=75 v=90
2400 On ch=2 n=71 v=70
2400 On ch=2 n=68 v=87
2402 On ch=2 n=70 v=0
2402 On ch=2 n=73 v=0
2420 On ch=2 n=75 v=0
2423 On ch=2 n=71 v=0
2423 On ch=2 n=68 v=0
2460 On ch=2 n=75 v=80
2460 On ch=2 n=71 v=78
2460 On ch=2 n=68 v=90
2480 On ch=2 n=71 v=0
2480 On ch=2 n=75 v=0
2483 On ch=2 n=68 v=0
2520 On ch=2 n=75 v=82
2520 On ch=2 n=71 v=92
2520 On ch=2 n=68 v=104
2548 On ch=2 n=71 v=0
2578 On ch=2 n=68 v=0
2580 On ch=2 n=73 v=59
2580 On ch=2 n=70 v=75
2580 On ch=2 n=66 v=73
2581 On ch=2 n=75 v=0
2602 On ch=2 n=70 v=0
2610 On ch=2 n=75 v=73
2610 On ch=2 n=71 v=83
2610 On ch=2 n=68 v=85
2613 On ch=2 n=66 v=0
2620 On ch=2 n=73 v=0
2627 On ch=2 n=71 v=0
2629 On ch=2 n=68 v=0
2633 On ch=2 n=75 v=0
2670 On ch=2 n=75 v=90
2670 On ch=2 n=71 v=79
2670 On ch=2 n=68 v=100
2725 On ch=2 n=68 v=0
2725 On ch=2 n=71 v=0
2727 On ch=2 n=75 v=0
2730 On ch=2 n=73 v=58
2730 On ch=2 n=70 v=70
2730 On ch=2 n=66 v=71
2753 On ch=2 n=70 v=0
2760 On ch=2 n=75 v=73
2760 On ch=2 n=71 v=79
2760 On ch=2 n=68 v=90
2763 On ch=2 n=66 v=0
2766 On ch=2 n=73 v=0
2816 On ch=2 n=75 v=0
2817 On ch=2 n=71 v=0
2819 On ch=2 n=68 v=0
2820 On ch=2 n=76 v=87
2820 On ch=2 n=73 v=76
2820 On ch=2 n=70 v=78
2880 On ch=2 n=78 v=93
2880 On ch=2 n=75 v=82
2880 On ch=2 n=71 v=77
2880 On ch=2 n=68 v=85
2883 On ch=2 n=76 v=0
2884 On ch=2 n=73 v=0
2885 On ch=2 n=70 v=0
2902 On ch=2 n=75 v=0
2902 On ch=2 n=68 v=0
2905 On ch=2 n=78 v=0
2911 On ch=2 n=71 v=0
2940 On ch=2 n=78 v=90
2940 On ch=2 n=75 v=80
2940 On ch=2 n=71 v=74
2940 On ch=2 n=68 v=90
2960 On ch=2 n=75 v=0
2960 On ch=2 n=78 v=0
2964 On ch=2 n=71 v=0
2965 On ch=2 n=68 v=0
3000 On ch=2 n=78 v=93
3000 On ch=2 n=75 v=96
3000 On ch=2 n=71 v=78
3000 On ch=2 n=68 v=96
3055 On ch=2 n=71 v=0
3056 On ch=2 n=75 v=0
3059 On ch=2 n=68 v=0
3060 On ch=2 n=77 v=74
3060 On ch=2 n=73 v=60
3060 On ch=2 n=70 v=57
3060 On ch=2 n=66 v=82
3065 On ch=2 n=78 v=0
3090 On ch=2 n=78 v=96
3090 On ch=2 n=75 v=82
3090 On ch=2 n=71 v=70
3090 On ch=2 n=68 v=90
3092 On ch=2 n=66 v=0
3094 On ch=2 n=70 v=0
3103 On ch=2 n=77 v=0
3105 On ch=2 n=73 v=0
3110 On ch=2 n=78 v=0
3110 On ch=2 n=75 v=0
3113 On ch=2 n=68 v=0
3118 On ch=2 n=71 v=0
3150 On ch=2 n=78 v=93
3150 On ch=2 n=75 v=82
3150 On ch=2 n=71 v=81
3150 On ch=2 n=68 v=96
3205 On ch=2 n=68 v=0
3208 On ch=2 n=78 v=0
3210 On ch=2 n=77 v=76
3210 On ch=2 n=73 v=76
3210 On ch=2 n=70 v=57
3210 On ch=2 n=66 v=85
3211 On ch=2 n=71 v=0
3211 On ch=2 n=75 v=0
3238 On ch=2 n=73 v=0
3240 On ch=2 n=78 v=104
3240 On ch=2 n=75 v=85
3240 On ch=2 n=71 v=72
3240 On ch=2 n=68 v=90
3241 On ch=2 n=66 v=0
3244 On ch=2 n=70 v=0
3245 On ch=2 n=77 v=0
3296 On ch=2 n=75 v=0
3297 On ch=2 n=68 v=0
3298 On ch=2 n=71 v=0
3298 On ch=2 n=78 v=0
3300 On ch=2 n=80 v=87
3300 On ch=2 n=76 v=84
3300 On ch=2 n=73 v=68
3300 On ch=2 n=70 v=85
3359 On ch=2 n=80 v=0
3360 On ch=2 n=82 v=96
3360 On ch=2 n=78 v=66
3360 On ch=2 n=75 v=80
3360 On ch=2 n=71 v=82
3360 On ch=2 n=68 v=87
3366 On ch=2 n=76 v=0
3367 On ch=2 n=70 v=0
3367 On ch=2 n=73 v=0
3377 On ch=2 n=68 v=0
3381 On ch=2 n=71 v=0
3382 On ch=2 n=82 v=0
3383 On ch=2 n=78 v=0
3383 On ch=2 n=75 v=0
3420 On ch=2 n=82 v=90
3420 On ch=2 n=78 v=93
3420 On ch=2 n=75 v=76
3420 On ch=2 n=71 v=70
3420 On ch=2 n=68 v=93
3437 On ch=2 n=78 v=0
3440 On ch=2 n=68 v=0
3441 On ch=2 n=82 v=0
3442 On ch=2 n=75 v=0
3446 On ch=2 n=71 v=0
3480 On ch=2 n=82 v=96
3480 On ch=2 n=78 v=108
3480 On ch=2 n=75 v=96
3480 On ch=2 n=71 v=84
3480 On ch=2 n=68 v=104
3533 On ch=2 n=68 v=0
3533 On ch=2 n=75 v=0
3536 On ch=2 n=82 v=0
3539 On ch=2 n=71 v=0
3540 On ch=2 n=80 v=73
3540 On ch=2 n=77 v=57
3540 On ch=2 n=73 v=59
3540 On ch=2 n=70 v=60
3540 On ch=2 n=66 v=85
3542 On ch=2 n=78 v=0
3570 On ch=2 n=82 v=90
3570 On ch=2 n=78 v=108
3570 On ch=2 n=75 v=82
3570 On ch=2 n=71 v=72
3570 On ch=2 n=68 v=90
3574 On ch=2 n=70 v=0
3577 On ch=2 n=80 v=0
3577 On ch=2 n=66 v=0
3582 On ch=2 n=73 v=0
3582 On ch=2 n=77 v=0
3590 On ch=2 n=68 v=0
3591 On ch=2 n=75 v=0
3592 On ch=2 n=71 v=0
3594 On ch=2 n=78 v=0
3594 On ch=2 n=82 v=0
3630 On ch=2 n=82 v=96
3630 On ch=2 n=78 v=100
3630 On ch=2 n=75 v=96
3630 On ch=2 n=71 v=83
3630 On ch=2 n=68 v=100
3683 On ch=2 n=68 v=0
3685 On ch=2 n=75 v=0
3689 On ch=2 n=82 v=0
3689 On ch=2 n=78 v=0
3690 On ch=2 n=80 v=76
3690 On ch=2 n=77 v=70
3690 On ch=2 n=73 v=66
3690 On ch=2 n=70 v=61
3690 On ch=2 n=66 v=93
3692 On ch=2 n=71 v=0
3719 On ch=2 n=73 v=0
3720 On ch=2 n=82 v=87
3720 On ch=2 n=78 v=93
3720 On ch=2 n=75 v=71
3720 On ch=2 n=71 v=78
3720 On ch=2 n=68 v=93
3721 On ch=2 n=77 v=0
3724 On ch=2 n=80 v=0
3724 On ch=2 n=70 v=0
3730 On ch=2 n=66 v=0
3771 On ch=2 n=71 v=0
3773 On ch=2 n=68 v=0
3776 On ch=2 n=78 v=0
3779 On ch=2 n=82 v=0
3780 On ch=2 n=75 v=0
3780 On ch=2 n=83 v=82
3780 On ch=2 n=80 v=82
3780 On ch=2 n=76 v=86
3780 On ch=2 n=73 v=58
3780 On ch=2 n=70 v=87
3840 On ch=2 n=82 v=93
3840 On ch=2 n=78 v=68
3840 On ch=2 n=75 v=85
3840 On ch=2 n=71 v=90
3840 On ch=2 n=68 v=104
3842 On ch=2 n=80 v=0
3845 On ch=2 n=70 v=0
3845 On ch=2 n=76 v=0
3846 On ch=2 n=73 v=0
3847 On ch=2 n=83 v=0
3849 On ch=2 n=78 v=0
3883 On ch=2 n=75 v=0
3883 On ch=2 n=82 v=0
3885 On ch=2 n=71 v=0
3890 On ch=2 n=68 v=0
4320 On ch=2 n=66 v=76
4320 On ch=2 n=73 v=61
4320 On ch=2 n=70 v=75
4700 On ch=2 n=70 v=0
4709 On ch=2 n=73 v=0
4709 On ch=2 n=66 v=0
4740 On ch=2 n=66 v=100
4740 On ch=2 n=70 v=100
4740 On ch=2 n=73 v=87
4796 On ch=2 n=66 v=0
4799 On ch=2 n=70 v=0
4800 On ch=2 n=73 v=0
4800 On ch=2 n=73 v=60
4800 On ch=2 n=70 v=58
4800 On ch=2 n=77 v=63
4800 On ch=2 n=70 v=71
4800 On ch=2 n=73 v=71
4800 On ch=2 n=77 v=76
5187 On ch=2 n=77 v=0
5192 On ch=2 n=73 v=0
5215 On ch=2 n=70 v=0
5252 On ch=2 n=77 v=0
5252 On ch=2 n=70 v=0
5256 On ch=2 n=73 v=0
5280 On ch=2 n=78 v=56
5280 On ch=2 n=71 v=67
5280 On ch=2 n=75 v=59
5728 On ch=2 n=71 v=0
5730 On ch=2 n=75 v=0
5734 On ch=2 n=78 v=0
5760 On ch=2 n=74 v=76
5760 On ch=2 n=78 v=68
5760 On ch=2 n=81 v=72
6231 On ch=2 n=81 v=0
6232 On ch=2 n=74 v=0
6235 On ch=2 n=78 v=0
6240 On ch=2 n=69 v=70
6240 On ch=2 n=73 v=62
6240 On ch=2 n=76 v=63
6256 On ch=2 n=76 v=0
6256 On ch=2 n=73 v=0
6262 On ch=2 n=69 v=0
6300 On ch=2 n=69 v=65
6300 On ch=2 n=73 v=59
6300 On ch=2 n=76 v=67
6316 On ch=2 n=73 v=0
6318 On ch=2 n=69 v=0
6319 On ch=2 n=76 v=0
6360 On ch=2 n=69 v=89
6360 On ch=2 n=73 v=80
6360 On ch=2 n=76 v=94
6418 On ch=2 n=73 v=0
6423 On ch=2 n=69 v=0
6425 On ch=2 n=76 v=0
6450 On ch=2 n=69 v=77
6450 On ch=2 n=73 v=82
6450 On ch=2 n=76 v=84
6463 On ch=2 n=73 v=0
6467 On ch=2 n=76 v=0
6467 On ch=2 n=69 v=0
6510 On ch=2 n=69 v=70
6510 On ch=2 n=73 v=80
6510 On ch=2 n=76 v=78
6527 On ch=2 n=73 v=0
6527 On ch=2 n=69 v=0
6530 On ch=2 n=76 v=0
6570 On ch=2 n=69 v=66
6570 On ch=2 n=73 v=71
6570 On ch=2 n=76 v=73
6579 On ch=2 n=73 v=0
6585 On ch=2 n=69 v=0
6588 On ch=2 n=76 v=0
6600 On ch=2 n=69 v=78
6600 On ch=2 n=73 v=82
6600 On ch=2 n=76 v=81
6675 On ch=2 n=76 v=0
6675 On ch=2 n=73 v=0
6678 On ch=2 n=69 v=0
6720 On ch=2 n=73 v=70
6720 On ch=2 n=76 v=90
6720 On ch=2 n=80 v=80
6736 On ch=2 n=76 v=0
6740 On ch=2 n=80 v=0
6740 On ch=2 n=73 v=0
6780 On ch=2 n=73 v=68
6780 On ch=2 n=80 v=73
6780 On ch=2 n=76 v=87
6796 On ch=2 n=76 v=0
6802 On ch=2 n=73 v=0
6803 On ch=2 n=80 v=0
6840 On ch=2 n=73 v=70
6840 On ch=2 n=76 v=92
6840 On ch=2 n=80 v=76
6908 On ch=2 n=80 v=0
6908 On ch=2 n=76 v=0
6908 On ch=2 n=73 v=0
6930 On ch=2 n=73 v=67
6930 On ch=2 n=76 v=90
6930 On ch=2 n=80 v=78
6949 On ch=2 n=76 v=0
6949 On ch=2 n=73 v=0
6950 On ch=2 n=80 v=0
6990 On ch=2 n=73 v=68
6990 On ch=2 n=76 v=90
6990 On ch=2 n=80 v=78
7011 On ch=2 n=80 v=0
7012 On ch=2 n=76 v=0
7012 On ch=2 n=73 v=0
7050 On ch=2 n=73 v=57
7050 On ch=2 n=76 v=77
7050 On ch=2 n=80 v=68
7059 On ch=2 n=76 v=0
7062 On ch=2 n=80 v=0
7063 On ch=2 n=73 v=0
7080 On ch=2 n=73 v=68
7080 On ch=2 n=80 v=78
7080 On ch=2 n=76 v=100
7153 On ch=2 n=76 v=0
7154 On ch=2 n=73 v=0
7158 On ch=2 n=80 v=0
7200 On ch=2 n=74 v=82
7200 On ch=2 n=78 v=82
7200 On ch=2 n=81 v=83
7222 On ch=2 n=78 v=0
7222 On ch=2 n=74 v=0
7228 On ch=2 n=81 v=0
7260 On ch=2 n=74 v=83
7260 On ch=2 n=78 v=82
7260 On ch=2 n=81 v=86
7279 On ch=2 n=74 v=0
7281 On ch=2 n=78 v=0
7283 On ch=2 n=81 v=0
7320 On ch=2 n=74 v=87
7320 On ch=2 n=78 v=93
7320 On ch=2 n=81 v=92
7385 On ch=2 n=78 v=0
7385 On ch=2 n=74 v=0
7388 On ch=2 n=81 v=0
7410 On ch=2 n=74 v=82
7410 On ch=2 n=78 v=80
7410 On ch=2 n=81 v=83
7426 On ch=2 n=78 v=0
7429 On ch=2 n=74 v=0
7431 On ch=2 n=81 v=0
7470 On ch=2 n=74 v=87
7470 On ch=2 n=78 v=87
7470 On ch=2 n=81 v=90
7487 On ch=2 n=78 v=0
7491 On ch=2 n=81 v=0
7491 On ch=2 n=74 v=0
7530 On ch=2 n=74 v=78
7530 On ch=2 n=78 v=73
7530 On ch=2 n=81 v=77
7543 On ch=2 n=78 v=0
7546 On ch=2 n=81 v=0
7547 On ch=2 n=74 v=0
7560 On ch=2 n=74 v=84
7560 On ch=2 n=78 v=90
7560 On ch=2 n=81 v=77
7634 On ch=2 n=78 v=0
7634 On ch=2 n=74 v=0
7637 On ch=2 n=81 v=0
7680 On ch=2 n=77 v=63
7680 On ch=2 n=81 v=70
7680 On ch=2 n=84 v=63
7680 On ch=2 n=86 v=65
7712 On ch=2 n=86 v=0
8114 On ch=2 n=84 v=0
8118 On ch=2 n=81 v=0
8121 On ch=2 n=77 v=0
8160 On ch=2 n=72 v=79
8160 On ch=2 n=76 v=78
8160 On ch=2 n=79 v=70
8180 On ch=2 n=79 v=0
8180 On ch=2 n=76 v=0
8185 On ch=2 n=72 v=0
8220 On ch=2 n=76 v=81
8220 On ch=2 n=72 v=70
8220 On ch=2 n=79 v=74
8235 On ch=2 n=79 v=0
8235 On ch=2 n=72 v=0
8242 On ch=2 n=76 v=0
8280 On ch=2 n=72 v=86
8280 On ch=2 n=76 v=90
8280 On ch=2 n=79 v=87
8342 On ch=2 n=79 v=0
8342 On ch=2 n=76 v=0
8342 On ch=2 n=72 v=0
8370 On ch=2 n=72 v=71
8370 On ch=2 n=76 v=77
8370 On ch=2 n=79 v=76
8386 On ch=2 n=79 v=0
8386 On ch=2 n=76 v=0
8386 On ch=2 n=72 v=0
8430 On ch=2 n=72 v=66
8430 On ch=2 n=76 v=74
8430 On ch=2 n=79 v=70
8445 On ch=2 n=79 v=0
8446 On ch=2 n=76 v=0
8450 On ch=2 n=72 v=0
8490 On ch=2 n=72 v=56
8490 On ch=2 n=76 v=60
8490 On ch=2 n=79 v=56
8497 On ch=2 n=79 v=0
8501 On ch=2 n=76 v=0
8501 On ch=2 n=72 v=0
8520 On ch=2 n=72 v=82
8520 On ch=2 n=76 v=83
8520 On ch=2 n=79 v=83
8595 On ch=2 n=79 v=0
8595 On ch=2 n=76 v=0
8598 On ch=2 n=72 v=0
8640 On ch=2 n=72 v=78
8640 On ch=2 n=76 v=84
8640 On ch=2 n=79 v=73
8657 On ch=2 n=79 v=0
8661 On ch=2 n=76 v=0
8661 On ch=2 n=72 v=0
8700 On ch=2 n=72 v=71
8700 On ch=2 n=76 v=81
8700 On ch=2 n=79 v=74
8719 On ch=2 n=72 v=0
8721 On ch=2 n=79 v=0
8721 On ch=2 n=76 v=0
8760 On ch=2 n=76 v=87
8760 On ch=2 n=79 v=84
8760 On ch=2 n=72 v=84
8815 On ch=2 n=72 v=0
8815 On ch=2 n=79 v=0
8819 On ch=2 n=76 v=0
8850 On ch=2 n=72 v=76
8850 On ch=2 n=79 v=81
8850 On ch=2 n=76 v=82
8865 On ch=2 n=76 v=0
8869 On ch=2 n=79 v=0
8873 On ch=2 n=72 v=0
8910 On ch=2 n=72 v=71
8910 On ch=2 n=76 v=76
8910 On ch=2 n=79 v=76
8932 On ch=2 n=79 v=0
8932 On ch=2 n=76 v=0
8933 On ch=2 n=72 v=0
8970 On ch=2 n=72 v=70
8970 On ch=2 n=76 v=70
8970 On ch=2 n=79 v=69
8979 On ch=2 n=79 v=0
8982 On ch=2 n=76 v=0
8982 On ch=2 n=72 v=0
9000 On ch=2 n=79 v=94
9000 On ch=2 n=72 v=90
9000 On ch=2 n=76 v=96
9079 On ch=2 n=76 v=0
9080 On ch=2 n=72 v=0
9080 On ch=2 n=79 v=0
9120 On ch=2 n=69 v=73
9120 On ch=2 n=72 v=71
9120 On ch=2 n=65 v=70
9547 On ch=2 n=72 v=0
9552 On ch=2 n=69 v=0
9561 On ch=2 n=65 v=0
9600 On ch=2 n=64 v=69
9600 On ch=2 n=67 v=70
9600 On ch=2 n=71 v=68
10025 On ch=2 n=71 v=0
10025 On ch=2 n=64 v=0
10027 On ch=2 n=67 v=0
10080 On ch=2 n=65 v=75
10080 On ch=2 n=69 v=84
10080 On ch=2 n=72 v=78
10253 On ch=2 n=65 v=0
10257 On ch=2 n=72 v=0
10257 On ch=2 n=69 v=0
10320 On ch=2 n=67 v=75
10320 On ch=2 n=71 v=84
10320 On ch=2 n=74 v=79
10476 On ch=2 n=74 v=0
10483 On ch=2 n=71 v=0
10487 On ch=2 n=67 v=0
10560 On ch=2 n=60 v=63
10560 On ch=2 n=64 v=69
10560 On ch=2 n=67 v=66
10959 On ch=2 n=60 v=0
10963 On ch=2 n=64 v=0
10967 On ch=2 n=67 v=0
11040 On ch=2 n=65 v=68
11040 On ch=2 n=69 v=77
11040 On ch=2 n=72 v=63
11443 On ch=2 n=72 v=0
11450 On ch=2 n=69 v=0
11463 On ch=2 n=65 v=0
11520 On ch=2 n=64 v=60
11520 On ch=2 n=67 v=66
11520 On ch=2 n=71 v=64
11939 On ch=2 n=67 v=0
11939 On ch=2 n=64 v=0
11948 On ch=2 n=71 v=0
12000 On ch=2 n=65 v=79
12000 On ch=2 n=69 v=87
12000 On ch=2 n=72 v=87
12165 On ch=2 n=65 v=0
12169 On ch=2 n=69 v=0
12175 On ch=2 n=72 v=0
12240 On ch=2 n=67 v=76
12240 On ch=2 n=71 v=86
12240 On ch=2 n=74 v=81
12418 On ch=2 n=74 v=0
12421 On ch=2 n=71 v=0
12425 On ch=2 n=67 v=0
12480 On ch=2 n=65 v=86
12480 On ch=2 n=69 v=90
12480 On ch=2 n=72 v=83
12848 On ch=2 n=69 v=0
12848 On ch=2 n=65 v=0
12854 On ch=2 n=72 v=0
12960 On ch=2 n=72 v=70
12960 On ch=2 n=76 v=77
12960 On ch=2 n=79 v=76
12977 On ch=2 n=76 v=0
12980 On ch=2 n=79 v=0
12984 On ch=2 n=72 v=0
13020 On ch=2 n=72 v=72
13020 On ch=2 n=76 v=78
13020 On ch=2 n=79 v=81
13036 On ch=2 n=76 v=0
13039 On ch=2 n=79 v=0
13039 On ch=2 n=72 v=0
13080 On ch=2 n=72 v=78
13080 On ch=2 n=76 v=89
13080 On ch=2 n=79 v=86
13145 On ch=2 n=79 v=0
13145 On ch=2 n=76 v=0
13149 On ch=2 n=72 v=0
13170 On ch=2 n=72 v=70
13170 On ch=2 n=76 v=79
13170 On ch=2 n=79 v=73
13191 On ch=2 n=79 v=0
13191 On ch=2 n=76 v=0
13194 On ch=2 n=72 v=0
13230 On ch=2 n=72 v=71
13230 On ch=2 n=79 v=78
13230 On ch=2 n=76 v=78
13242 On ch=2 n=76 v=0
13250 On ch=2 n=79 v=0
13250 On ch=2 n=72 v=0
13290 On ch=2 n=79 v=70
13290 On ch=2 n=72 v=59
13290 On ch=2 n=76 v=67
13300 On ch=2 n=76 v=0
13303 On ch=2 n=72 v=0
13305 On ch=2 n=79 v=0
13320 On ch=2 n=72 v=73
13320 On ch=2 n=76 v=83
13320 On ch=2 n=79 v=81
13400 On ch=2 n=79 v=0
13400 On ch=2 n=76 v=0
13400 On ch=2 n=72 v=0
13440 On ch=2 n=72 v=74
13440 On ch=2 n=76 v=83
13440 On ch=2 n=79 v=79
13462 On ch=2 n=79 v=0
13462 On ch=2 n=76 v=0
13463 On ch=2 n=72 v=0
13500 On ch=2 n=72 v=79
13500 On ch=2 n=76 v=81
13500 On ch=2 n=79 v=79
13516 On ch=2 n=76 v=0
13519 On ch=2 n=79 v=0
13522 On ch=2 n=72 v=0
13560 On ch=2 n=72 v=83
13560 On ch=2 n=76 v=86
13560 On ch=2 n=79 v=83
13625 On ch=2 n=79 v=0
13625 On ch=2 n=76 v=0
13625 On ch=2 n=72 v=0
13650 On ch=2 n=72 v=75
13650 On ch=2 n=79 v=76
13650 On ch=2 n=76 v=79
13665 On ch=2 n=76 v=0
13669 On ch=2 n=79 v=0
13669 On ch=2 n=72 v=0
13710 On ch=2 n=72 v=71
13710 On ch=2 n=76 v=76
13710 On ch=2 n=79 v=77
13732 On ch=2 n=79 v=0
13732 On ch=2 n=76 v=0
13732 On ch=2 n=72 v=0
13770 On ch=2 n=72 v=71
13770 On ch=2 n=76 v=76
13770 On ch=2 n=79 v=74
13784 On ch=2 n=79 v=0
13784 On ch=2 n=76 v=0
13787 On ch=2 n=72 v=0
13800 On ch=2 n=72 v=86
13800 On ch=2 n=76 v=89
13800 On ch=2 n=79 v=79
13877 On ch=2 n=76 v=0
13877 On ch=2 n=72 v=0
13880 On ch=2 n=79 v=0
13920 On ch=2 n=68 v=82
13934 On ch=2 n=68 v=0
13980 On ch=2 n=68 v=71
13997 On ch=2 n=68 v=0
14040 On ch=2 n=68 v=82
14096 On ch=2 n=68 v=0
14100 On ch=2 n=66 v=52
14130 On ch=2 n=68 v=71
14134 On ch=2 n=66 v=0
14152 On ch=2 n=68 v=0
14190 On ch=2 n=68 v=90
14242 On ch=2 n=68 v=0
14250 On ch=2 n=66 v=53
14280 On ch=2 n=68 v=78
14284 On ch=2 n=66 v=0
14338 On ch=2 n=68 v=0
14340 On ch=2 n=70 v=73
14400 On ch=2 n=68 v=78
14402 On ch=2 n=70 v=0
14420 On ch=2 n=68 v=0
14460 On ch=2 n=68 v=70
14480 On ch=2 n=68 v=0
14520 On ch=2 n=68 v=93
14580 On ch=2 n=66 v=49
14585 On ch=2 n=68 v=0
14610 On ch=2 n=68 v=58
14613 On ch=2 n=66 v=0
14636 On ch=2 n=68 v=0
14670 On ch=2 n=68 v=82
14725 On ch=2 n=68 v=0
14730 On ch=2 n=66 v=60
14760 On ch=2 n=68 v=76
14761 On ch=2 n=66 v=0
14820 On ch=2 n=70 v=71
14824 On ch=2 n=68 v=0
14880 On ch=2 n=71 v=74
14880 On ch=2 n=68 v=82
14881 On ch=2 n=70 v=0
14901 On ch=2 n=68 v=0
14905 On ch=2 n=71 v=0
14940 On ch=2 n=71 v=70
14940 On ch=2 n=68 v=87
14960 On ch=2 n=68 v=0
14960 On ch=2 n=71 v=0
15000 On ch=2 n=71 v=69
15000 On ch=2 n=68 v=93
15053 On ch=2 n=68 v=0
15060 On ch=2 n=70 v=57
15060 On ch=2 n=66 v=65
15062 On ch=2 n=71 v=0
15090 On ch=2 n=71 v=70
15090 On ch=2 n=68 v=90
15094 On ch=2 n=70 v=0
15099 On ch=2 n=66 v=0
15110 On ch=2 n=68 v=0
15113 On ch=2 n=71 v=0
15150 On ch=2 n=71 v=66
15150 On ch=2 n=68 v=96
15203 On ch=2 n=68 v=0
15210 On ch=2 n=70 v=58
15210 On ch=2 n=66 v=70
15214 On ch=2 n=71 v=0
15238 On ch=2 n=66 v=0
15240 On ch=2 n=71 v=75
15240 On ch=2 n=68 v=80
15242 On ch=2 n=70 v=0
15297 On ch=2 n=71 v=0
15298 On ch=2 n=68 v=0
15300 On ch=2 n=73 v=73
15300 On ch=2 n=70 v=78
15359 On ch=2 n=70 v=0
15360 On ch=2 n=71 v=79
15360 On ch=2 n=68 v=87
15364 On ch=2 n=73 v=0
15379 On ch=2 n=68 v=0
15386 On ch=2 n=71 v=0
15420 On ch=2 n=71 v=79
15420 On ch=2 n=68 v=90
15440 On ch=2 n=68 v=0
15442 On ch=2 n=71 v=0
15480 On ch=2 n=71 v=83
15480 On ch=2 n=68 v=96
15538 On ch=2 n=68 v=0
15540 On ch=2 n=70 v=57
15540 On ch=2 n=66 v=66
15544 On ch=2 n=71 v=0
15570 On ch=2 n=71 v=74
15570 On ch=2 n=68 v=82
15571 On ch=2 n=70 v=0
15576 On ch=2 n=66 v=0
15590 On ch=2 n=71 v=0
15594 On ch=2 n=68 v=0
15630 On ch=2 n=71 v=77
15630 On ch=2 n=68 v=93
15685 On ch=2 n=68 v=0
15690 On ch=2 n=70 v=67
15690 On ch=2 n=66 v=80
15692 On ch=2 n=71 v=0
15715 On ch=2 n=70 v=0
15720 On ch=2 n=71 v=74
15720 On ch=2 n=68 v=85
15721 On ch=2 n=66 v=0
15773 On ch=2 n=71 v=0
15780 On ch=2 n=73 v=67
15780 On ch=2 n=70 v=80
15784 On ch=2 n=68 v=0
15840 On ch=2 n=75 v=90
15840 On ch=2 n=71 v=70
15840 On ch=2 n=68 v=87
15842 On ch=2 n=70 v=0
15842 On ch=2 n=73 v=0
15860 On ch=2 n=75 v=0
15863 On ch=2 n=71 v=0
15863 On ch=2 n=68 v=0
15900 On ch=2 n=75 v=80
15900 On ch=2 n=71 v=78
15900 On ch=2 n=68 v=90
15920 On ch=2 n=71 v=0
15920 On ch=2 n=75 v=0
15923 On ch=2 n=68 v=0
15960 On ch=2 n=75 v=82
15960 On ch=2 n=71 v=92
15960 On ch=2 n=68 v=104
15988 On ch=2 n=71 v=0
16018 On ch=2 n=68 v=0
16020 On ch=2 n=73 v=59
16020 On ch=2 n=70 v=75
16020 On ch=2 n=66 v=73
16021 On ch=2 n=75 v=0
16042 On ch=2 n=70 v=0
16050 On ch=2 n=75 v=73
16050 On ch=2 n=71 v=83
16050 On ch=2 n=68 v=85
16053 On ch=2 n=66 v=0
16060 On ch=2 n=73 v=0
16067 On ch=2 n=71 v=0
16069 On ch=2 n=68 v=0
16073 On ch=2 n=75 v=0
16110 On ch=2 n=75 v=90
16110 On ch=2 n=71 v=79
16110 On ch=2 n=68 v=100
16165 On ch=2 n=68 v=0
16165 On ch=2 n=71 v=0
16167 On ch=2 n=75 v=0
16170 On ch=2 n=73 v=58
16170 On ch=2 n=70 v=70
16170 On ch=2 n=66 v=71
16193 On ch=2 n=70 v=0
16200 On ch=2 n=75 v=73
16200 On ch=2 n=71 v=79
16200 On ch=2 n=68 v=90
16203 On ch=2 n=66 v=0
16206 On ch=2 n=73 v=0
16256 On ch=2 n=75 v=0
16257 On ch=2 n=71 v=0
16259 On ch=2 n=68 v=0
16260 On ch=2 n=76 v=87
16260 On ch=2 n=73 v=76
16260 On ch=2 n=70 v=78
16320 On ch=2 n=78 v=93
16320 On ch=2 n=75 v=82
16320 On ch=2 n=71 v=77
16320 On ch=2 n=68 v=85
16323 On ch=2 n=76 v=0
16324 On ch=2 n=73 v=0
16325 On ch=2 n=70 v=0
16342 On ch=2 n=75 v=0
16342 On ch=2 n=68 v=0
16345 On ch=2 n=78 v=0
16351 On ch=2 n=71 v=0
16380 On ch=2 n=78 v=90
16380 On ch=2 n=75 v=80
16380 On ch=2 n=71 v=74
16380 On ch=2 n=68 v=90
16400 On ch=2 n=75 v=0
16400 On ch=2 n=78 v=0
16404 On ch=2 n=71 v=0
16405 On ch=2 n=68 v=0
16440 On ch=2 n=78 v=93
16440 On ch=2 n=75 v=96
16440 On ch=2 n=71 v=78
16440 On ch=2 n=68 v=96
16495 On ch=2 n=71 v=0
16496 On ch=2 n=75 v=0
16499 On ch=2 n=68 v=0
16500 On ch=2 n=77 v=74
16500 On ch=2 n=73 v=60
16500 On ch=2 n=70 v=57
16500 On ch=2 n=66 v=82
16505 On ch=2 n=78 v=0
16530 On ch=2 n=78 v=96
16530 On ch=2 n=75 v=82
16530 On ch=2 n=71 v=70
16530 On ch=2 n=68 v=90
16532 On ch=2 n=66 v=0
16534 On ch=2 n=70 v=0
16543 On ch=2 n=77 v=0
16545 On ch=2 n=73 v=0
16550 On ch=2 n=78 v=0
16550 On ch=2 n=75 v=0
16553 On ch=2 n=68 v=0
16558 On ch=2 n=71 v=0
16590 On ch=2 n=78 v=93
16590 On ch=2 n=75 v=82
16590 On ch=2 n=71 v=81
16590 On ch=2 n=68 v=96
16645 On ch=2 n=68 v=0
16648 On ch=2 n=78 v=0
16650 On ch=2 n=77 v=76
16650 On ch=2 n=73 v=76
16650 On ch=2 n=70 v=57
16650 On ch=2 n=66 v=85
16651 On ch=2 n=71 v=0
16651 On ch=2 n=75 v=0
16678 On ch=2 n=73 v=0
16680 On ch=2 n=78 v=104
16680 On ch=2 n=75 v=85
16680 On ch=2 n=71 v=72
16680 On ch=2 n=68 v=90
16681 On ch=2 n=66 v=0
16684 On ch=2 n=70 v=0
16685 On ch=2 n=77 v=0
16736 On ch=2 n=75 v=0
16737 On ch=2 n=68 v=0
16738 On ch=2 n=71 v=0
16738 On ch=2 n=78 v=0
16740 On ch=2 n=80 v=87
16740 On ch=2 n=76 v=84
16740 On ch=2 n=73 v=68
16740 On ch=2 n=70 v=85
16799 On ch=2 n=80 v=0
16800 On ch=2 n=82 v=96
16800 On ch=2 n=78 v=66
16800 On ch=2 n=75 v=80
16800 On ch=2 n=71 v=82
16800 On ch=2 n=68 v=87
16806 On ch=2 n=76 v=0
16807 On ch=2 n=70 v=0
16807 On ch=2 n=73 v=0
16817 On ch=2 n=68 v=0
16821 On ch=2 n=71 v=0
16822 On ch=2 n=82 v=0
16823 On ch=2 n=78 v=0
16823 On ch=2 n=75 v=0
16860 On ch=2 n=82 v=90
16860 On ch=2 n=78 v=93
16860 On ch=2 n=75 v=76
16860 On ch=2 n=71 v=70
16860 On ch=2 n=68 v=93
16877 On ch=2 n=78 v=0
16880 On ch=2 n=68 v=0
16881 On ch=2 n=82 v=0
16882 On ch=2 n=75 v=0
16886 On ch=2 n=71 v=0
16920 On ch=2 n=82 v=96
16920 On ch=2 n=78 v=108
16920 On ch=2 n=75 v=96
16920 On ch=2 n=71 v=84
16920 On ch=2 n=68 v=104
16973 On ch=2 n=68 v=0
16973 On ch=2 n=75 v=0
16976 On ch=2 n=82 v=0
16979 On ch=2 n=71 v=0
16980 On ch=2 n=80 v=73
16980 On ch=2 n=77 v=57
16980 On ch=2 n=73 v=59
16980 On ch=2 n=70 v=60
16980 On ch=2 n=66 v=85
16982 On ch=2 n=78 v=0
17010 On ch=2 n=82 v=90
17010 On ch=2 n=78 v=108
17010 On ch=2 n=75 v=82
17010 On ch=2 n=71 v=72
17010 On ch=2 n=68 v=90
17014 On ch=2 n=70 v=0
17017 On ch=2 n=80 v=0
17017 On ch=2 n=66 v=0
17022 On ch=2 n=73 v=0
17022 On ch=2 n=77 v=0
17030 On ch=2 n=68 v=0
17031 On ch=2 n=75 v=0
17032 On ch=2 n=71 v=0
17034 On ch=2 n=78 v=0
17034 On ch=2 n=82 v=0
17070 On ch=2 n=82 v=96
17070 On ch=2 n=78 v=100
17070 On ch=2 n=75 v=96
17070 On ch=2 n=71 v=83
17070 On ch=2 n=68 v=100
17123 On ch=2 n=68 v=0
17125 On ch=2 n=75 v=0
17129 On ch=2 n=82 v=0
17129 On ch=2 n=78 v=0
17130 On ch=2 n=80 v=76
17130 On ch=2 n=77 v=70
17130 On ch=2 n=73 v=66
17130 On ch=2 n=70 v=61
17130 On ch=2 n=66 v=93
17132 On ch=2 n=71 v=0
17159 On ch=2 n=73 v=0
17160 On ch=2 n=82 v=87
17160 On ch=2 n=78 v=93
17160 On ch=2 n=75 v=71
17160 On ch=2 n=71 v=78
17160 On ch=2 n=68 v=93
17161 On ch=2 n=77 v=0
17164 On ch=2 n=80 v=0
17164 On ch=2 n=70 v=0
17170 On ch=2 n=66 v=0
17211 On ch=2 n=71 v=0
17213 On ch=2 n=68 v=0
17216 On ch=2 n=78 v=0
17219 On ch=2 n=82 v=0
17220 On ch=2 n=75 v=0
17220 On ch=2 n=83 v=82
17220 On ch=2 n=80 v=82
17220 On ch=2 n=76 v=86
17220 On ch=2 n=73 v=58
17220 On ch=2 n=70 v=87
17280 On ch=2 n=82 v=93
17280 On ch=2 n=78 v=68
17280 On ch=2 n=75 v=85
17280 On ch=2 n=71 v=90
17280 On ch=2 n=68 v=104
17282 On ch=2 n=80 v=0
17285 On ch=2 n=70 v=0
17285 On ch=2 n=76 v=0
17286 On ch=2 n=73 v=0
17287 On ch=2 n=83 v=0
17289 On ch=2 n=78 v=0
17323 On ch=2 n=75 v=0
17323 On ch=2 n=82 v=0
17325 On ch=2 n=71 v=0
17330 On ch=2 n=68 v=0
17760 On ch=2 n=66 v=76
17760 On ch=2 n=73 v=61
17760 On ch=2 n=70 v=75
18140 On ch=2 n=70 v=0
18149 On ch=2 n=73 v=0
18149 On ch=2 n=66 v=0
18180 On ch=2 n=66 v=100
18180 On ch=2 n=70 v=100
18180 On ch=2 n=73 v=87
18236 On ch=2 n=66 v=0
18239 On ch=2 n=70 v=0
18240 On ch=2 n=73 v=0
18240 On ch=2 n=73 v=60
18240 On ch=2 n=70 v=58
18240 On ch=2 n=77 v=63
18240 On ch=2 n=70 v=71
18240 On ch=2 n=73 v=71
18240 On ch=2 n=77 v=76
18627 On ch=2 n=77 v=0
18632 On ch=2 n=73 v=0
18655 On ch=2 n=70 v=0
18692 On ch=2 n=77 v=0
18692 On ch=2 n=70 v=0
18696 On ch=2 n=73 v=0
18720 On ch=2 n=78 v=56
18720 On ch=2 n=71 v=67
18720 On ch=2 n=75 v=59
19168 On ch=2 n=71 v=0
19170 On ch=2 n=75 v=0
19174 On ch=2 n=78 v=0
19200 On ch=2 n=74 v=76
19200 On ch=2 n=78 v=68
19200 On ch=2 n=81 v=72
19671 On ch=2 n=81 v=0
19672 On ch=2 n=74 v=0
19675 On ch=2 n=78 v=0
19680 On ch=2 n=69 v=70
19680 On ch=2 n=73 v=62
19680 On ch=2 n=76 v=63
19696 On ch=2 n=76 v=0
19696 On ch=2 n=73 v=0
19702 On ch=2 n=69 v=0
19740 On ch=2 n=69 v=65
19740 On ch=2 n=73 v=59
19740 On ch=2 n=76 v=67
19756 On ch=2 n=73 v=0
19758 On ch=2 n=69 v=0
19759 On ch=2 n=76 v=0
19800 On ch=2 n=69 v=89
19800 On ch=2 n=73 v=80
19800 On ch=2 n=76 v=94
19858 On ch=2 n=73 v=0
19863 On ch=2 n=69 v=0
19865 On ch=2 n=76 v=0
19890 On ch=2 n=69 v=77
19890 On ch=2 n=73 v=82
19890 On ch=2 n=76 v=84
19903 On ch=2 n=73 v=0
19907 On ch=2 n=76 v=0
19907 On ch=2 n=69 v=0
19950 On ch=2 n=69 v=70
19950 On ch=2 n=73 v=80
19950 On ch=2 n=76 v=78
19967 On ch=2 n=73 v=0
19967 On ch=2 n=69 v=0
19970 On ch=2 n=76 v=0
20010 On ch=2 n=69 v=66
20010 On ch=2 n=73 v=71
20010 On ch=2 n=76 v=73
20019 On ch=2 n=73 v=0
20025 On ch=2 n=69 v=0
20028 On ch=2 n=76 v=0
20040 On ch=2 n=69 v=78
20040 On ch=2 n=73 v=82
20040 On ch=2 n=76 v=81
20115 On ch=2 n=76 v=0
20115 On ch=2 n=73 v=0
20118 On ch=2 n=69 v=0
20160 On ch=2 n=73 v=70
20160 On ch=2 n=76 v=90
20160 On ch=2 n=80 v=80
20176 On ch=2 n=76 v=0
20180 On ch=2 n=80 v=0
20180 On ch=2 n=73 v=0
20220 On ch=2 n=73 v=68
20220 On ch=2 n=80 v=73
20220 On ch=2 n=76 v=87
20236 On ch=2 n=76 v=0
20242 On ch=2 n=73 v=0
20243 On ch=2 n=80 v=0
20280 On ch=2 n=73 v=70
20280 On ch=2 n=76 v=92
20280 On ch=2 n=80 v=76
20348 On ch=2 n=80 v=0
20348 On ch=2 n=76 v=0
20348 On ch=2 n=73 v=0
20370 On ch=2 n=73 v=67
20370 On ch=2 n=76 v=90
20370 On ch=2 n=80 v=78
20389 On ch=2 n=76 v=0
20389 On ch=2 n=73 v=0
20390 On ch=2 n=80 v=0
20430 On ch=2 n=73 v=68
20430 On ch=2 n=76 v=90
20430 On ch=2 n=80 v=78
20451 On ch=2 n=80 v=0
20452 On ch=2 n=76 v=0
20452 On ch=2 n=73 v=0
20490 On ch=2 n=73 v=57
20490 On ch=2 n=76 v=77
20490 On ch=2 n=80 v=68
20499 On ch=2 n=76 v=0
20502 On ch=2 n=80 v=0
20503 On ch=2 n=73 v=0
20520 On ch=2 n=73 v=68
20520 On ch=2 n=80 v=78
20520 On ch=2 n=76 v=100
20593 On ch=2 n=76 v=0
20594 On ch=2 n=73 v=0
20598 On ch=2 n=80 v=0
20640 On ch=2 n=74 v=82
20640 On ch=2 n=78 v=82
20640 On ch=2 n=81 v=83
20662 On ch=2 n=78 v=0
20662 On ch=2 n=74 v=0
20668 On ch=2 n=81 v=0
20700 On ch=2 n=74 v=83
20700 On ch=2 n=78 v=82
20700 On ch=2 n=81 v=86
20719 On ch=2 n=74 v=0
20721 On ch=2 n=78 v=0
20723 On ch=2 n=81 v=0
20760 On ch=2 n=74 v=87
20760 On ch=2 n=78 v=93
20760 On ch=2 n=81 v=92
20825 On ch=2 n=78 v=0
20825 On ch=2 n=74 v=0
20828 On ch=2 n=81 v=0
20850 On ch=2 n=74 v=82
20850 On ch=2 n=78 v=80
20850 On ch=2 n=81 v=83
20866 On ch=2 n=78 v=0
20869 On ch=2 n=74 v=0
20871 On ch=2 n=81 v=0
20910 On ch=2 n=74 v=87
20910 On ch=2 n=78 v=87
20910 On ch=2 n=81 v=90
20927 On ch=2 n=78 v=0
20931 On ch=2 n=81 v=0
20931 On ch=2 n=74 v=0
20970 On ch=2 n=74 v=78
20970 On ch=2 n=78 v=73
20970 On ch=2 n=81 v=77
20983 On ch=2 n=78 v=0
20986 On ch=2 n=81 v=0
20987 On ch=2 n=74 v=0
21000 On ch=2 n=74 v=84
21000 On ch=2 n=78 v=90
21000 On ch=2 n=81 v=77
21074 On ch=2 n=78 v=0
21074 On ch=2 n=74 v=0
21077 On ch=2 n=81 v=0
21120 On ch=2 n=77 v=63
21120 On ch=2 n=81 v=70
21120 On ch=2 n=84 v=63
21120 On ch=2 n=86 v=65
21152 On ch=2 n=86 v=0
21554 On ch=2 n=84 v=0
21558 On ch=2 n=81 v=0
21561 On ch=2 n=77 v=0
21600 On ch=2 n=72 v=79
21600 On ch=2 n=76 v=78
21600 On ch=2 n=79 v=70
21620 On ch=2 n=79 v=0
21620 On ch=2 n=76 v=0
21625 On ch=2 n=72 v=0
21660 On ch=2 n=76 v=81
21660 On ch=2 n=72 v=70
21660 On ch=2 n=79 v=74
21675 On ch=2 n=79 v=0
21675 On ch=2 n=72 v=0
21682 On ch=2 n=76 v=0
21720 On ch=2 n=72 v=86
21720 On ch=2 n=76 v=90
21720 On ch=2 n=79 v=87
21782 On ch=2 n=79 v=0
21782 On ch=2 n=76 v=0
21782 On ch=2 n=72 v=0
21810 On ch=2 n=72 v=71
21810 On ch=2 n=76 v=77
21810 On ch=2 n=79 v=76
21826 On ch=2 n=79 v=0
21826 On ch=2 n=76 v=0
21826 On ch=2 n=72 v=0
21870 On ch=2 n=72 v=66
21870 On ch=2 n=76 v=74
21870 On ch=2 n=79 v=70
21885 On ch=2 n=79 v=0
21886 On ch=2 n=76 v=0
21890 On ch=2 n=72 v=0
21930 On ch=2 n=72 v=56
21930 On ch=2 n=76 v=60
21930 On ch=2 n=79 v=56
21937 On ch=2 n=79 v=0
21941 On ch=2 n=76 v=0
21941 On ch=2 n=72 v=0
21960 On ch=2 n=72 v=82
21960 On ch=2 n=76 v=83
21960 On ch=2 n=79 v=83
22035 On ch=2 n=79 v=0
22035 On ch=2 n=76 v=0
22038 On ch=2 n=72 v=0
22080 On ch=2 n=72 v=78
22080 On ch=2 n=76 v=84
22080 On ch=2 n=79 v=73
22097 On ch=2 n=79 v=0
22101 On ch=2 n=76 v=0
22101 On ch=2 n=72 v=0
22140 On ch=2 n=72 v=71
22140 On ch=2 n=76 v=81
22140 On ch=2 n=79 v=74
22159 On ch=2 n=72 v=0
22161 On ch=2 n=79 v=0
22161 On ch=2 n=76 v=0
22200 On ch=2 n=76 v=87
22200 On ch=2 n=79 v=84
22200 On ch=2 n=72 v=84
22255 On ch=2 n=72 v=0
22255 On ch=2 n=79 v=0
22259 On ch=2 n=76 v=0
22290 On ch=2 n=72 v=76
22290 On ch=2 n=79 v=81
22290 On ch=2 n=76 v=82
22305 On ch=2 n=76 v=0
22309 On ch=2 n=79 v=0
22313 On ch=2 n=72 v=0
22350 On ch=2 n=72 v=71
22350 On ch=2 n=76 v=76
22350 On ch=2 n=79 v=76
22372 On ch=2 n=79 v=0
22372 On ch=2 n=76 v=0
22373 On ch=2 n=72 v=0
22410 On ch=2 n=72 v=70
22410 On ch=2 n=76 v=70
22410 On ch=2 n=79 v=69
22419 On ch=2 n=79 v=0
22422 On ch=2 n=76 v=0
22422 On ch=2 n=72 v=0
22440 On ch=2 n=79 v=94
22440 On ch=2 n=72 v=90
22440 On ch=2 n=76 v=96
22519 On ch=2 n=76 v=0
22520 On ch=2 n=72 v=0
22520 On ch=2 n=79 v=0
22560 On ch=2 n=69 v=73
22560 On ch=2 n=72 v=71
22560 On ch=2 n=65 v=70
22987 On ch=2 n=72 v=0
22992 On ch=2 n=69 v=0
23001 On ch=2 n=65 v=0
23040 On ch=2 n=64 v=69
23040 On ch=2 n=67 v=70
23040 On ch=2 n=71 v=68
23465 On ch=2 n=71 v=0
23465 On ch=2 n=64 v=0
23467 On ch=2 n=67 v=0
23520 On ch=2 n=65 v=75
23520 On ch=2 n=69 v=84
23520 On ch=2 n=72 v=78
23693 On ch=2 n=65 v=0
23697 On ch=2 n=72 v=0
23697 On ch=2 n=69 v=0
23760 On ch=2 n=67 v=75
23760 On ch=2 n=71 v=84
23760 On ch=2 n=74 v=79
23916 On ch=2 n=74 v=0
23923 On ch=2 n=71 v=0
23927 On ch=2 n=67 v=0
24000 On ch=2 n=60 v=63
24000 On ch=2 n=64 v=69
24000 On ch=2 n=67 v=66
24399 On ch=2 n=60 v=0
24403 On ch=2 n=64 v=0
24407 On ch=2 n=67 v=0
24480 On ch=2 n=65 v=68
24480 On ch=2 n=69 v=77
24480 On ch=2 n=72 v=63
24883 On ch=2 n=72 v=0
24890 On ch=2 n=69 v=0
24903 On ch=2 n=65 v=0
24960 On ch=2 n=64 v=60
24960 On ch=2 n=67 v=66
24960 On ch=2 n=71 v=64
25379 On ch=2 n=67 v=0
25379 On ch=2 n=64 v=0
25388 On ch=2 n=71 v=0
25440 On ch=2 n=65 v=79
25440 On ch=2 n=69 v=87
25440 On ch=2 n=72 v=87
25605 On ch=2 n=65 v=0
25609 On ch=2 n=69 v=0
25615 On ch=2 n=72 v=0
25680 On ch=2 n=67 v=76
25680 On ch=2 n=71 v=86
25680 On ch=2 n=74 v=81
25858 On ch=2 n=74 v=0
25861 On ch=2 n=71 v=0
25865 On ch=2 n=67 v=0
25920 On ch=2 n=65 v=86
25920 On ch=2 n=69 v=90
25920 On ch=2 n=72 v=83
26288 On ch=2 n=69 v=0
26288 On ch=2 n=65 v=0
26294 On ch=2 n=72 v=0
26400 On ch=2 n=72 v=70
26400 On ch=2 n=76 v=77
26400 On ch=2 n=79 v=76
26417 On ch=2 n=76 v=0
26420 On ch=2 n=79 v=0
26424 On ch=2 n=72 v=0
26460 On ch=2 n=72 v=72
26460 On ch=2 n=76 v=78
26460 On ch=2 n=79 v=81
26476 On ch=2 n=76 v=0
26479 On ch=2 n=79 v=0
26479 On ch=2 n=72 v=0
26520 On ch=2 n=72 v=78
26520 On ch=2 n=76 v=89
26520 On ch=2 n=79 v=86
26585 On ch=2 n=79 v=0
26585 On ch=2 n=76 v=0
26589 On ch=2 n=72 v=0
26610 On ch=2 n=72 v=70
26610 On ch=2 n=76 v=79
26610 On ch=2 n=79 v=73
26631 On ch=2 n=79 v=0
26631 On ch=2 n=76 v=0
26634 On ch=2 n=72 v=0
26670 On ch=2 n=72 v=71
26670 On ch=2 n=79 v=78
26670 On ch=2 n=76 v=78
26682 On ch=2 n=76 v=0
26690 On ch=2 n=79 v=0
26690 On ch=2 n=72 v=0
26730 On ch=2 n=79 v=70
26730 On ch=2 n=72 v=59
26730 On ch=2 n=76 v=67
26740 On ch=2 n=76 v=0
26743 On ch=2 n=72 v=0
26745 On ch=2 n=79 v=0
26760 On ch=2 n=72 v=73
26760 On ch=2 n=76 v=83
26760 On ch=2 n=79 v=81
26840 On ch=2 n=79 v=0
26840 On ch=2 n=76 v=0
26840 On ch=2 n=72 v=0
26880 On ch=2 n=72 v=74
26880 On ch=2 n=76 v=83
26880 On ch=2 n=79 v=79
26902 On ch=2 n=79 v=0
26902 On ch=2 n=76 v=0
26903 On ch=2 n=72 v=0
26940 On ch=2 n=72 v=79
26940 On ch=2 n=76 v=81
26940 On ch=2 n=79 v=79
26956 On ch=2 n=76 v=0
26959 On ch=2 n=79 v=0
26962 On ch=2 n=72 v=0
27000 On ch=2 n=72 v=83
27000 On ch=2 n=76 v=86
27000 On ch=2 n=79 v=83
27065 On ch=2 n=79 v=0
27065 On ch=2 n=76 v=0
27065 On ch=2 n=72 v=0
27090 On ch=2 n=72 v=75
27090 On ch=2 n=79 v=76
27090 On ch=2 n=76 v=79
27105 On ch=2 n=76 v=0
27109 On ch=2 n=79 v=0
27109 On ch=2 n=72 v=0
27150 On ch=2 n=72 v=71
27150 On ch=2 n=76 v=76
27150 On ch=2 n=79 v=77
27172 On ch=2 n=79 v=0
27172 On ch=2 n=76 v=0
27172 On ch=2 n=72 v=0
27210 On ch=2 n=72 v=71
27210 On ch=2 n=76 v=76
27210 On ch=2 n=79 v=74
27224 On ch=2 n=79 v=0
27224 On ch=2 n=76 v=0
27227 On ch=2 n=72 v=0
27240 On ch=2 n=72 v=86
27240 On ch=2 n=76 v=89
27240 On ch=2 n=79 v=79
27317 On ch=2 n=76 v=0
27317 On ch=2 n=72 v=0
27320 On ch=2 n=79 v=0
27360 On ch=2 n=69 v=73
27360 On ch=2 n=72 v=71
27360 On ch=2 n=65 v=70
27787 On ch=2 n=72 v=0
27792 On ch=2 n=69 v=0
27801 On ch=2 n=65 v=0
27840 On ch=2 n=64 v=69
27840 On ch=2 n=67 v=70
27840 On ch=2 n=71 v=68
28265 On ch=2 n=71 v=0
28265 On ch=2 n=64 v=0
28267 On ch=2 n=67 v=0
28320 On ch=2 n=65 v=75
28320 On ch=2 n=69 v=84
28320 On ch=2 n=72 v=78
28493 On ch=2 n=65 v=0
28497 On ch=2 n=72 v=0
28497 On ch=2 n=69 v=0
28560 On ch=2 n=67 v=75
28560 On ch=2 n=71 v=84
28560 On ch=2 n=74 v=79
28716 On ch=2 n=74 v=0
28723 On ch=2 n=71 v=0
28727 On ch=2 n=67 v=0
28800 On ch=2 n=60 v=63
28800 On ch=2 n=64 v=69
28800 On ch=2 n=67 v=66
29199 On ch=2 n=60 v=0
29203 On ch=2 n=64 v=0
29207 On ch=2 n=67 v=0
29280 On ch=2 n=65 v=68
29280 On ch=2 n=69 v=77
29280 On ch=2 n=72 v=63
29683 On ch=2 n=72 v=0
29690 On ch=2 n=69 v=0
29703 On ch=2 n=65 v=0
29760 On ch=2 n=64 v=60
29760 On ch=2 n=67 v=66
29760 On ch=2 n=71 v=64
30179 On ch=2 n=67 v=0
30179 On ch=2 n=64 v=0
30188 On ch=2 n=71 v=0
30240 On ch=2 n=65 v=79
30240 On ch=2 n=69 v=87
30240 On ch=2 n=72 v=87
30405 On ch=2 n=65 v=0
30409 On ch=2 n=69 v=0
30415 On ch=2 n=72 v=0
30480 On ch=2 n=67 v=76
30480 On ch=2 n=71 v=86
30480 On ch=2 n=74 v=81
30658 On ch=2 n=74 v=0
30661 On ch=2 n=71 v=0
30665 On ch=2 n=67 v=0
30720 On ch=2 n=65 v=86
30720 On ch=2 n=69 v=90
30720 On ch=2 n=72 v=83
31088 On ch=2 n=69 v=0
31088 On ch=2 n=65 v=0
31094 On ch=2 n=72 v=0
31200 On ch=2 n=72 v=70
31200 On ch=2 n=76 v=77
31200 On ch=2 n=79 v=76
31217 On ch=2 n=76 v=0
31220 On ch=2 n=79 v=0
31224 On ch=2 n=72 v=0
31260 On ch=2 n=72 v=72
31260 On ch=2 n=76 v=78
31260 On ch=2 n=79 v=81
31276 On ch=2 n=76 v=0
31279 On ch=2 n=79 v=0
31279 On ch=2 n=72 v=0
31320 On ch=2 n=72 v=78
31320 On ch=2 n=76 v=89
31320 On ch=2 n=79 v=86
31385 On ch=2 n=79 v=0
31385 On ch=2 n=76 v=0
31389 On ch=2 n=72 v=0
31410 On ch=2 n=72 v=70
31410 On ch=2 n=76 v=79
31410 On ch=2 n=79 v=73
31431 On ch=2 n=79 v=0
31431 On ch=2 n=76 v=0
31434 On ch=2 n=72 v=0
31470 On ch=2 n=72 v=71
31470 On ch=2 n=79 v=78
31470 On ch=2 n=76 v=78
31482 On ch=2 n=76 v=0
31490 On ch=2 n=79 v=0
31490 On ch=2 n=72 v=0
31530 On ch=2 n=79 v=70
31530 On ch=2 n=72 v=59
31530 On ch=2 n=76 v=67
31540 On ch=2 n=76 v=0
31543 On ch=2 n=72 v=0
31545 On ch=2 n=79 v=0
31560 On ch=2 n=72 v=73
31560 On ch=2 n=76 v=83
31560 On ch=2 n=79 v=81
31640 On ch=2 n=79 v=0
31640 On ch=2 n=76 v=0
31640 On ch=2 n=72 v=0
31680 On ch=2 n=72 v=74
31680 On ch=2 n=76 v=83
31680 On ch=2 n=79 v=79
31702 On ch=2 n=79 v=0
31702 On ch=2 n=76 v=0
31703 On ch=2 n=72 v=0
31740 On ch=2 n=72 v=79
31740 On ch=2 n=76 v=81
31740 On ch=2 n=79 v=79
31756 On ch=2 n=76 v=0
31759 On ch=2 n=79 v=0
31762 On ch=2 n=72 v=0
31800 On ch=2 n=72 v=83
31800 On ch=2 n=76 v=86
31800 On ch=2 n=79 v=83
31865 On ch=2 n=79 v=0
31865 On ch=2 n=76 v=0
31865 On ch=2 n=72 v=0
31890 On ch=2 n=72 v=75
31890 On ch=2 n=79 v=76
31890 On ch=2 n=76 v=79
31905 On ch=2 n=76 v=0
31909 On ch=2 n=79 v=0
31909 On ch=2 n=72 v=0
31950 On ch=2 n=72 v=71
31950 On ch=2 n=76 v=76
31950 On ch=2 n=79 v=77
31972 On ch=2 n=79 v=0
31972 On ch=2 n=76 v=0
31972 On ch=2 n=72 v=0
32010 On ch=2 n=72 v=71
32010 On ch=2 n=76 v=76
32010 On ch=2 n=79 v=74
32024 On ch=2 n=79 v=0
32024 On ch=2 n=76 v=0
32027 On ch=2 n=72 v=0
32040 On ch=2 n=72 v=86
32040 On ch=2 n=76 v=89
32040 On ch=2 n=79 v=79
32117 On ch=2 n=76 v=0
32117 On ch=2 n=72 v=0
32120 On ch=2 n=79 v=0
32162 On ch=2 n=32 v=87
32180 On ch=2 n=32 v=0
32221 On ch=2 n=32 v=82
32237 On ch=2 n=32 v=0
32281 On ch=2 n=32 v=87
32337 On ch=2 n=32 v=0
32340 On ch=2 n=30 v=53
32372 On ch=2 n=32 v=90
32376 On ch=2 n=30 v=0
32395 On ch=2 n=32 v=0
32431 On ch=2 n=32 v=90
32486 On ch=2 n=32 v=0
32491 On ch=2 n=30 v=65
32519 On ch=2 n=32 v=90
32527 On ch=2 n=30 v=0
32577 On ch=2 n=32 v=0
32579 On ch=2 n=34 v=87
32626 On ch=2 n=34 v=0
32640 On ch=2 n=32 v=70
32668 On ch=2 n=32 v=0
32701 On ch=2 n=32 v=85
32723 On ch=2 n=32 v=0
32761 On ch=2 n=32 v=90
32813 On ch=2 n=32 v=0
32820 On ch=2 n=30 v=58
32851 On ch=2 n=32 v=87
32858 On ch=2 n=30 v=0
32876 On ch=2 n=32 v=0
32911 On ch=2 n=32 v=93
32960 On ch=2 n=32 v=0
32971 On ch=2 n=30 v=66
33001 On ch=2 n=32 v=90
33005 On ch=2 n=30 v=0
33060 On ch=2 n=32 v=0
33061 On ch=2 n=34 v=75
33121 On ch=2 n=32 v=87
33129 On ch=2 n=34 v=0
33146 On ch=2 n=32 v=0
33181 On ch=2 n=32 v=70
33203 On ch=2 n=32 v=0
33241 On ch=2 n=32 v=90
33296 On ch=2 n=32 v=0
33301 On ch=2 n=30 v=67
33331 On ch=2 n=32 v=73
33335 On ch=2 n=30 v=0
33355 On ch=2 n=32 v=0
33391 On ch=2 n=32 v=78
33443 On ch=2 n=32 v=0
33451 On ch=2 n=30 v=62
33479 On ch=2 n=30 v=0
33481 On ch=2 n=32 v=87
33541 On ch=2 n=34 v=73
33543 On ch=2 n=32 v=0
33601 On ch=2 n=32 v=68
33602 On ch=2 n=34 v=0
33627 On ch=2 n=32 v=0
33661 On ch=2 n=32 v=90
33686 On ch=2 n=32 v=0
33721 On ch=2 n=32 v=93
33773 On ch=2 n=32 v=0
33781 On ch=2 n=30 v=62
33811 On ch=2 n=32 v=85
33819 On ch=2 n=30 v=0
33832 On ch=2 n=32 v=0
33871 On ch=2 n=32 v=87
33927 On ch=2 n=32 v=0
33931 On ch=2 n=30 v=73
33960 On ch=2 n=30 v=0
33961 On ch=2 n=32 v=80
34021 On ch=2 n=34 v=75
34023 On ch=2 n=32 v=0
34081 On ch=2 n=32 v=85
34089 On ch=2 n=34 v=0
34103 On ch=2 n=32 v=0
34141 On ch=2 n=32 v=87
34159 On ch=2 n=32 v=0
34201 On ch=2 n=32 v=93
34258 On ch=2 n=32 v=0
34261 On ch=2 n=30 v=65
34291 On ch=2 n=32 v=93
34303 On ch=2 n=30 v=0
34313 On ch=2 n=32 v=0
34351 On ch=2 n=32 v=90
34400 On ch=2 n=32 v=0
34411 On ch=2 n=30 v=75
34441 On ch=2 n=32 v=100
34446 On ch=2 n=30 v=0
34499 On ch=2 n=32 v=0
34501 On ch=2 n=34 v=76
34561 On ch=2 n=32 v=90
34562 On ch=2 n=34 v=0
34582 On ch=2 n=32 v=0
34621 On ch=2 n=32 v=80
34645 On ch=2 n=32 v=0
34681 On ch=2 n=32 v=100
34739 On ch=2 n=32 v=0
34741 On ch=2 n=30 v=67
34771 On ch=2 n=32 v=85
34772 On ch=2 n=30 v=0
34796 On ch=2 n=32 v=0
34831 On ch=2 n=32 v=96
34886 On ch=2 n=32 v=0
34891 On ch=2 n=30 v=75
34921 On ch=2 n=32 v=87
34922 On ch=2 n=30 v=0
34981 On ch=2 n=34 v=78
34983 On ch=2 n=32 v=0
35041 On ch=2 n=32 v=90
35047 On ch=2 n=34 v=0
35065 On ch=2 n=32 v=0
35101 On ch=2 n=32 v=93
35126 On ch=2 n=32 v=0
35161 On ch=2 n=32 v=100
35214 On ch=2 n=32 v=0
35221 On ch=2 n=30 v=67
35251 On ch=2 n=32 v=87
35262 On ch=2 n=30 v=0
35275 On ch=2 n=32 v=0
35339 On ch=2 n=32 v=90
35371 On ch=2 n=30 v=85
35392 On ch=2 n=32 v=0
35401 On ch=2 n=32 v=90
35406 On ch=2 n=30 v=0
35460 On ch=2 n=32 v=0
35461 On ch=2 n=34 v=80
35521 On ch=2 n=32 v=85
35526 On ch=2 n=34 v=0
35546 On ch=2 n=32 v=0
35581 On ch=2 n=32 v=85
35603 On ch=2 n=32 v=0
35641 On ch=2 n=32 v=100
35696 On ch=2 n=32 v=0
35701 On ch=2 n=30 v=53
35731 On ch=2 n=32 v=93
35738 On ch=2 n=30 v=0
35757 On ch=2 n=32 v=0
35791 On ch=2 n=32 v=96
35843 On ch=2 n=32 v=0
35851 On ch=2 n=30 v=82
35881 On ch=2 n=32 v=78
35883 On ch=2 n=30 v=0
35941 On ch=2 n=34 v=80
35943 On ch=2 n=32 v=0
36000 On ch=2 n=34 v=0
36001 On ch=2 n=32 v=82
36026 On ch=2 n=32 v=0
36061 On ch=2 n=32 v=90
36083 On ch=2 n=32 v=0
36121 On ch=2 n=32 v=104
36179 On ch=2 n=32 v=0
36181 On ch=2 n=30 v=55
36211 On ch=2 n=32 v=90
36225 On ch=2 n=30 v=0
36239 On ch=2 n=32 v=0
36271 On ch=2 n=32 v=93
36320 On ch=2 n=32 v=0
36331 On ch=2 n=30 v=70
36361 On ch=2 n=32 v=90
36369 On ch=2 n=30 v=0
36421 On ch=2 n=34 v=78
36426 On ch=2 n=32 v=0
36480 On ch=2 n=34 v=0
36481 On ch=2 n=32 v=80
36506 On ch=2 n=32 v=0
36541 On ch=2 n=32 v=87
36559 On ch=2 n=32 v=0
36601 On ch=2 n=32 v=104
36653 On ch=2 n=32 v=0
36661 On ch=2 n=30 v=73
36691 On ch=2 n=32 v=87
36695 On ch=2 n=30 v=0
36713 On ch=2 n=32 v=0
36751 On ch=2 n=32 v=96
36807 On ch=2 n=32 v=0
36811 On ch=2 n=30 v=76
36839 On ch=2 n=30 v=0
36841 On ch=2 n=32 v=85
36900 On ch=2 n=32 v=0
36901 On ch=2 n=34 v=85
36961 On ch=2 n=32 v=87
36964 On ch=2 n=34 v=0
36983 On ch=2 n=32 v=0
37021 On ch=2 n=32 v=90
37042 On ch=2 n=32 v=0
37081 On ch=2 n=32 v=108
37139 On ch=2 n=32 v=0
37141 On ch=2 n=30 v=78
37171 On ch=2 n=32 v=85
37176 On ch=2 n=30 v=0
37193 On ch=2 n=32 v=0
37231 On ch=2 n=32 v=96
37287 On ch=2 n=32 v=0
37291 On ch=2 n=30 v=78
37321 On ch=2 n=30 v=0
37321 On ch=2 n=32 v=85
37377 On ch=2 n=32 v=0
37381 On ch=2 n=34 v=76
37441 On ch=2 n=32 v=87
37443 On ch=2 n=34 v=0
37463 On ch=2 n=32 v=0
37501 On ch=2 n=32 v=80
37520 On ch=2 n=32 v=0
37561 On ch=2 n=32 v=96
37616 On ch=2 n=32 v=0
37621 On ch=2 n=30 v=63
37651 On ch=2 n=32 v=82
37655 On ch=2 n=30 v=0
37673 On ch=2 n=32 v=0
37711 On ch=2 n=32 v=96
37763 On ch=2 n=32 v=0
37771 On ch=2 n=30 v=75
37801 On ch=2 n=32 v=90
37806 On ch=2 n=30 v=0
37858 On ch=2 n=32 v=0
37861 On ch=2 n=34 v=73
37920 On ch=2 n=34 v=0
37920 On ch=2 n=32 v=87
37942 On ch=2 n=32 v=0
37980 On ch=2 n=32 v=93
38001 On ch=2 n=32 v=0
38041 On ch=2 n=32 v=104
38099 On ch=2 n=32 v=0
38101 On ch=2 n=30 v=68
38131 On ch=2 n=32 v=90
38135 On ch=2 n=30 v=0
38154 On ch=2 n=32 v=0
38191 On ch=2 n=32 v=96
38243 On ch=2 n=32 v=0
38251 On ch=2 n=30 v=76
38281 On ch=2 n=32 v=87
38285 On ch=2 n=30 v=0
38341 On ch=2 n=34 v=70
38342 On ch=2 n=32 v=0
38400 On ch=2 n=34 v=0
38401 On ch=2 n=32 v=85
38423 On ch=2 n=32 v=0
38461 On ch=2 n=32 v=93
38482 On ch=2 n=32 v=0
38521 On ch=2 n=32 v=104
38576 On ch=2 n=32 v=0
38581 On ch=2 n=30 v=71
38611 On ch=2 n=32 v=78
38614 On ch=2 n=30 v=0
38633 On ch=2 n=32 v=0
38671 On ch=2 n=32 v=96
38720 On ch=2 n=32 v=0
38731 On ch=2 n=30 v=73
38761 On ch=2 n=32 v=82
38766 On ch=2 n=30 v=0
38820 On ch=2 n=32 v=0
38821 On ch=2 n=34 v=78
38881 On ch=2 n=32 v=87
38882 On ch=2 n=34 v=0
38900 On ch=2 n=32 v=0
38939 On ch=2 n=32 v=87
38961 On ch=2 n=32 v=0
39001 On ch=2 n=32 v=100
39057 On ch=2 n=32 v=0
39061 On ch=2 n=30 v=78
39091 On ch=2 n=32 v=90
39105 On ch=2 n=30 v=0
39113 On ch=2 n=32 v=0
39151 On ch=2 n=32 v=96
39204 On ch=2 n=32 v=0
39211 On ch=2 n=30 v=80
39241 On ch=2 n=32 v=85
39245 On ch=2 n=30 v=0
39301 On ch=2 n=34 v=75
39304 On ch=2 n=32 v=0
39361 On ch=2 n=32 v=85
39362 On ch=2 n=34 v=0
39387 On ch=2 n=32 v=0
39421 On ch=2 n=32 v=78
39446 On ch=2 n=32 v=0
39481 On ch=2 n=32 v=100
39534 On ch=2 n=32 v=0
39541 On ch=2 n=30 v=66
39571 On ch=2 n=32 v=82
39582 On ch=2 n=30 v=0
39596 On ch=2 n=32 v=0
39631 On ch=2 n=32 v=87
39690 On ch=2 n=32 v=0
39691 On ch=2 n=30 v=78
39721 On ch=2 n=32 v=70
39725 On ch=2 n=30 v=0
39781 On ch=2 n=34 v=78
39783 On ch=2 n=32 v=0
39839 On ch=2 n=34 v=0
39841 On ch=2 n=32 v=80
39859 On ch=2 n=32 v=0
39899 On ch=2 n=32 v=96
39924 On ch=2 n=32 v=0
39961 On ch=2 n=32 v=100
40017 On ch=2 n=32 v=0
40019 On ch=2 n=30 v=76
40051 On ch=2 n=32 v=96
40066 On ch=2 n=30 v=0
40076 On ch=2 n=32 v=0
40111 On ch=2 n=32 v=93
40166 On ch=2 n=32 v=0
40171 On ch=2 n=30 v=80
40201 On ch=2 n=32 v=82
40204 On ch=2 n=30 v=0
40259 On ch=2 n=32 v=0
40261 On ch=2 n=34 v=82
40321 On ch=2 n=34 v=0
40321 On ch=2 n=32 v=85
40346 On ch=2 n=32 v=0
40381 On ch=2 n=32 v=100
40403 On ch=2 n=32 v=0
40441 On ch=2 n=32 v=104
40499 On ch=2 n=32 v=0
40501 On ch=2 n=30 v=68
40539 On ch=2 n=30 v=0
40559 On ch=2 n=32 v=90
40581 On ch=2 n=32 v=0
40619 On ch=2 n=32 v=93
40651 On ch=2 n=30 v=85
40669 On ch=2 n=32 v=0
40676 On ch=2 n=30 v=0
40681 On ch=2 n=32 v=71
40741 On ch=2 n=34 v=78
40742 On ch=2 n=32 v=0
40801 On ch=2 n=32 v=82
40806 On ch=2 n=34 v=0
40820 On ch=2 n=32 v=0
40861 On ch=2 n=32 v=90
40883 On ch=2 n=32 v=0
40921 On ch=2 n=32 v=100
40973 On ch=2 n=32 v=0
40979 On ch=2 n=30 v=71
41011 On ch=2 n=32 v=90
41014 On ch=2 n=30 v=0
41034 On ch=2 n=32 v=0
41071 On ch=2 n=32 v=100
41129 On ch=2 n=32 v=0
41131 On ch=2 n=30 v=75
41161 On ch=2 n=32 v=80
41163 On ch=2 n=30 v=0
41221 On ch=2 n=34 v=76
41229 On ch=2 n=32 v=0
41277 On ch=2 n=34 v=0
41281 On ch=2 n=32 v=85
41303 On ch=2 n=32 v=0
41341 On ch=2 n=32 v=93
41363 On ch=2 n=32 v=0
41401 On ch=2 n=32 v=104
41456 On ch=2 n=32 v=0
41461 On ch=2 n=30 v=80
41491 On ch=2 n=32 v=96
41501 On ch=2 n=30 v=0
41516 On ch=2 n=32 v=0
41551 On ch=2 n=32 v=96
41606 On ch=2 n=32 v=0
41611 On ch=2 n=30 v=85
41641 On ch=2 n=32 v=87
41645 On ch=2 n=30 v=0
41699 On ch=2 n=32 v=0
41701 On ch=2 n=34 v=76
41761 On ch=2 n=32 v=96
41766 On ch=2 n=34 v=0
41784 On ch=2 n=32 v=0
41821 On ch=2 n=32 v=85
41843 On ch=2 n=32 v=0
41881 On ch=2 n=32 v=104
41937 On ch=2 n=32 v=0
41941 On ch=2 n=30 v=78
41971 On ch=2 n=32 v=85
41977 On ch=2 n=30 v=0
41996 On ch=2 n=32 v=0
42031 On ch=2 n=32 v=96
42086 On ch=2 n=32 v=0
42091 On ch=2 n=30 v=87
42121 On ch=2 n=32 v=80
42123 On ch=2 n=30 v=0
42180 On ch=2 n=32 v=0
42181 On ch=2 n=34 v=76
42241 On ch=2 n=32 v=90
42245 On ch=2 n=34 v=0
42260 On ch=2 n=32 v=0
42301 On ch=2 n=32 v=87
42326 On ch=2 n=32 v=0
42361 On ch=2 n=32 v=100
42416 On ch=2 n=32 v=0
42421 On ch=2 n=30 v=80
42451 On ch=2 n=32 v=80
42453 On ch=2 n=30 v=0
42475 On ch=2 n=32 v=0
42511 On ch=2 n=32 v=93
42563 On ch=2 n=32 v=0
42571 On ch=2 n=30 v=76
42601 On ch=2 n=32 v=85
42604 On ch=2 n=30 v=0
42661 On ch=2 n=34 v=82
42663 On ch=2 n=32 v=0
42721 On ch=2 n=32 v=90
42726 On ch=2 n=34 v=0
42746 On ch=2 n=32 v=0
42781 On ch=2 n=32 v=87
42802 On ch=2 n=32 v=0
42841 On ch=2 n=32 v=100
42899 On ch=2 n=32 v=0
42901 On ch=2 n=30 v=76
42931 On ch=2 n=32 v=87
42937 On ch=2 n=30 v=0
42954 On ch=2 n=32 v=0
42991 On ch=2 n=32 v=100
43043 On ch=2 n=32 v=0
43051 On ch=2 n=30 v=76
43081 On ch=2 n=32 v=90
43088 On ch=2 n=30 v=0
43139 On ch=2 n=32 v=0
43141 On ch=2 n=34 v=85
43201 On ch=2 n=32 v=87
43208 On ch=2 n=34 v=0
43220 On ch=2 n=32 v=0
43261 On ch=2 n=32 v=90
43286 On ch=2 n=32 v=0
43321 On ch=2 n=32 v=100
43379 On ch=2 n=32 v=0
43380 On ch=2 n=30 v=70
43411 On ch=2 n=32 v=96
43423 On ch=2 n=30 v=0
43436 On ch=2 n=32 v=0
43471 On ch=2 n=32 v=96
43527 On ch=2 n=32 v=0
43531 On ch=2 n=30 v=80
43561 On ch=2 n=32 v=90
43569 On ch=2 n=30 v=0
43621 On ch=2 n=34 v=85
43630 On ch=2 n=32 v=0
43673 On ch=2 n=34 v=0
43681 On ch=2 n=32 v=90
43703 On ch=2 n=32 v=0
43741 On ch=2 n=32 v=100
43765 On ch=2 n=32 v=0
43801 On ch=2 n=32 v=104
43860 On ch=2 n=32 v=0
43861 On ch=2 n=30 v=80
43891 On ch=2 n=32 v=90
43904 On ch=2 n=30 v=0
43919 On ch=2 n=32 v=0
43951 On ch=2 n=32 v=96
44003 On ch=2 n=32 v=0
44011 On ch=2 n=30 v=85
44041 On ch=2 n=32 v=87
44046 On ch=2 n=30 v=0
44101 On ch=2 n=34 v=78
44106 On ch=2 n=32 v=0
44161 On ch=2 n=32 v=87
44166 On ch=2 n=34 v=0
44186 On ch=2 n=32 v=0
44221 On ch=2 n=32 v=93
44246 On ch=2 n=32 v=0
44281 On ch=2 n=32 v=108
44336 On ch=2 n=32 v=0
44340 On ch=2 n=30 v=76
44371 On ch=2 n=32 v=96
44383 On ch=2 n=30 v=0
44400 On ch=2 n=32 v=0
44431 On ch=2 n=32 v=100
44487 On ch=2 n=32 v=0
44491 On ch=2 n=30 v=85
44521 On ch=2 n=32 v=87
44529 On ch=2 n=30 v=0
44581 On ch=2 n=34 v=80
44583 On ch=2 n=32 v=0
44637 On ch=2 n=34 v=0
44641 On ch=2 n=32 v=87
44666 On ch=2 n=32 v=0
44701 On ch=2 n=32 v=100
44722 On ch=2 n=32 v=0
44761 On ch=2 n=32 v=108
44819 On ch=2 n=32 v=0
44821 On ch=2 n=30 v=85
44851 On ch=2 n=32 v=93
44861 On ch=2 n=30 v=0
44879 On ch=2 n=32 v=0
44911 On ch=2 n=32 v=93
44966 On ch=2 n=32 v=0
44971 On ch=2 n=30 v=82
45001 On ch=2 n=32 v=96
45008 On ch=2 n=30 v=0
45061 On ch=2 n=34 v=78
45066 On ch=2 n=32 v=0
45121 On ch=2 n=32 v=87
45126 On ch=2 n=34 v=0
45149 On ch=2 n=32 v=0
45181 On ch=2 n=32 v=90
45203 On ch=2 n=32 v=0
45241 On ch=2 n=32 v=100
45293 On ch=2 n=32 v=0
45300 On ch=2 n=30 v=63
45331 On ch=2 n=32 v=96
45344 On ch=2 n=30 v=0
45355 On ch=2 n=32 v=0
45391 On ch=2 n=32 v=96
45441 On ch=2 n=32 v=0
45451 On ch=2 n=30 v=82
45480 On ch=2 n=32 v=80
45485 On ch=2 n=30 v=0
45540 On ch=2 n=32 v=0
45540 On ch=2 n=34 v=78
45600 On ch=2 n=32 v=93
45608 On ch=2 n=34 v=0
45623 On ch=2 n=32 v=0
45661 On ch=2 n=32 v=96
45682 On ch=2 n=32 v=0
45721 On ch=2 n=32 v=108
45780 On ch=2 n=32 v=0
45781 On ch=2 n=30 v=76
45811 On ch=2 n=32 v=87
45819 On ch=2 n=30 v=0
45840 On ch=2 n=32 v=0
45871 On ch=2 n=32 v=90
45930 On ch=2 n=32 v=0
45931 On ch=2 n=30 v=78
45961 On ch=2 n=32 v=80
45965 On ch=2 n=30 v=0
46021 On ch=2 n=34 v=76
46023 On ch=2 n=32 v=0
46081 On ch=2 n=32 v=96
46086 On ch=2 n=34 v=0
46105 On ch=2 n=32 v=0
46141 On ch=2 n=32 v=82
46165 On ch=2 n=32 v=0
46201 On ch=2 n=32 v=104
46256 On ch=2 n=32 v=0
46261 On ch=2 n=30 v=80
46291 On ch=2 n=32 v=82
46300 On ch=2 n=30 v=0
46313 On ch=2 n=32 v=0
46351 On ch=2 n=32 v=93
46404 On ch=2 n=32 v=0
46411 On ch=2 n=30 v=87
46441 On ch=2 n=32 v=87
46447 On ch=2 n=30 v=0
46500 On ch=2 n=34 v=76
46503 On ch=2 n=32 v=0
46561 On ch=2 n=32 v=93
46565 On ch=2 n=34 v=0
46580 On ch=2 n=32 v=0
46619 On ch=2 n=32 v=100
46641 On ch=2 n=32 v=0
46680 On ch=2 n=32 v=104
46733 On ch=2 n=32 v=0
46739 On ch=2 n=30 v=80
46771 On ch=2 n=32 v=93
46783 On ch=2 n=30 v=0
46793 On ch=2 n=32 v=0
46831 On ch=2 n=32 v=96
46889 On ch=2 n=32 v=0
46891 On ch=2 n=30 v=82
46921 On ch=2 n=32 v=85
46926 On ch=2 n=30 v=0
46980 On ch=2 n=32 v=0
46981 On ch=2 n=34 v=85
47042 On ch=2 n=32 v=87
47049 On ch=2 n=34 v=0
47061 On ch=2 n=32 v=0
47102 On ch=2 n=32 v=100
47124 On ch=2 n=32 v=0
47162 On ch=2 n=32 v=108
47215 On ch=2 n=32 v=0
47221 On ch=2 n=30 v=80
47253 On ch=2 n=32 v=93
47265 On ch=2 n=30 v=0
47274 On ch=2 n=32 v=0
47313 On ch=2 n=32 v=90
47369 On ch=2 n=32 v=0
47373 On ch=2 n=30 v=90
47402 On ch=2 n=32 v=85
47404 On ch=2 n=30 v=0
47462 On ch=2 n=34 v=80
47464 On ch=2 n=32 v=0
47505 On ch=2 n=34 v=0
47521 On ch=2 n=32 v=90
47544 On ch=2 n=32 v=0
47581 On ch=2 n=32 v=113
47640 On ch=2 n=32 v=0
47642 On ch=2 n=30 v=108
47701 On ch=2 n=32 v=104
47710 On ch=2 n=30 v=0
47771 On ch=2 n=32 v=0
47771 Meta TrkEnd
TrkEnd
MTrk
0 Meta 0x21 00
0 Meta TrkName "Bass "
0 Par ch=3 c=0 v=0
0 PrCh ch=3 p=33
0 Par ch=3 c=7 v=127
480 On ch=3 n=44 v=76
480 On ch=3 n=32 v=80
498 On ch=3 n=32 v=0
499 On ch=3 n=44 v=0
540 On ch=3 n=44 v=70
540 On ch=3 n=32 v=70
560 On ch=3 n=32 v=0
562 On ch=3 n=44 v=0
600 On ch=3 n=32 v=78
600 On ch=3 n=44 v=82
657 On ch=3 n=44 v=0
660 On ch=3 n=30 v=63
660 On ch=3 n=42 v=63
663 On ch=3 n=32 v=0
689 On ch=3 n=30 v=0
690 On ch=3 n=32 v=82
690 On ch=3 n=44 v=80
698 On ch=3 n=42 v=0
714 On ch=3 n=44 v=0
714 On ch=3 n=32 v=0
750 On ch=3 n=32 v=80
750 On ch=3 n=44 v=85
800 On ch=3 n=44 v=0
806 On ch=3 n=32 v=0
810 On ch=3 n=42 v=75
810 On ch=3 n=30 v=71
836 On ch=3 n=30 v=0
840 On ch=3 n=32 v=75
840 On ch=3 n=44 v=82
844 On ch=3 n=42 v=0
900 On ch=3 n=46 v=61
900 On ch=3 n=34 v=80
908 On ch=3 n=44 v=0
916 On ch=3 n=32 v=0
957 On ch=3 n=46 v=0
960 On ch=3 n=32 v=85
960 On ch=3 n=44 v=71
966 On ch=3 n=34 v=0
978 On ch=3 n=44 v=0
980 On ch=3 n=32 v=0
1020 On ch=3 n=44 v=85
1020 On ch=3 n=32 v=93
1040 On ch=3 n=32 v=0
1043 On ch=3 n=44 v=0
1080 On ch=3 n=32 v=93
1080 On ch=3 n=44 v=90
1139 On ch=3 n=44 v=0
1140 On ch=3 n=30 v=63
1140 On ch=3 n=42 v=78
1142 On ch=3 n=32 v=0
1168 On ch=3 n=42 v=0
1169 On ch=3 n=30 v=0
1170 On ch=3 n=32 v=87
1170 On ch=3 n=44 v=82
1194 On ch=3 n=32 v=0
1195 On ch=3 n=44 v=0
1230 On ch=3 n=32 v=85
1230 On ch=3 n=44 v=85
1281 On ch=3 n=44 v=0
1284 On ch=3 n=32 v=0
1290 On ch=3 n=42 v=80
1290 On ch=3 n=30 v=70
1315 On ch=3 n=42 v=0
1316 On ch=3 n=30 v=0
1320 On ch=3 n=44 v=78
1320 On ch=3 n=32 v=82
1379 On ch=3 n=44 v=0
1380 On ch=3 n=46 v=70
1380 On ch=3 n=34 v=87
1383 On ch=3 n=32 v=0
1431 On ch=3 n=46 v=0
1440 On ch=3 n=44 v=70
1440 On ch=3 n=32 v=87
1443 On ch=3 n=34 v=0
1457 On ch=3 n=32 v=0
1460 On ch=3 n=44 v=0
1500 On ch=3 n=44 v=87
1500 On ch=3 n=32 v=80
1520 On ch=3 n=32 v=0
1523 On ch=3 n=44 v=0
1560 On ch=3 n=32 v=93
1560 On ch=3 n=44 v=93
1619 On ch=3 n=44 v=0
1620 On ch=3 n=30 v=71
1620 On ch=3 n=42 v=85
1625 On ch=3 n=32 v=0
1646 On ch=3 n=30 v=0
1648 On ch=3 n=42 v=0
1650 On ch=3 n=32 v=85
1650 On ch=3 n=44 v=87
1675 On ch=3 n=44 v=0
1675 On ch=3 n=32 v=0
1710 On ch=3 n=32 v=90
1710 On ch=3 n=44 v=90
1764 On ch=3 n=44 v=0
1768 On ch=3 n=32 v=0
1770 On ch=3 n=42 v=85
1770 On ch=3 n=30 v=76
1796 On ch=3 n=30 v=0
1798 On ch=3 n=42 v=0
1800 On ch=3 n=44 v=80
1800 On ch=3 n=32 v=85
1852 On ch=3 n=32 v=0
1857 On ch=3 n=44 v=0
1860 On ch=3 n=34 v=90
1860 On ch=3 n=46 v=73
1910 On ch=3 n=46 v=0
1920 On ch=3 n=44 v=80
1920 On ch=3 n=32 v=85
1928 On ch=3 n=34 v=0
1941 On ch=3 n=32 v=0
1943 On ch=3 n=44 v=0
1980 On ch=3 n=32 v=100
1980 On ch=3 n=44 v=90
2000 On ch=3 n=32 v=0
2003 On ch=3 n=44 v=0
2040 On ch=3 n=32 v=104
2040 On ch=3 n=44 v=96
2098 On ch=3 n=44 v=0
2100 On ch=3 n=30 v=68
2100 On ch=3 n=42 v=78
2105 On ch=3 n=32 v=0
2129 On ch=3 n=30 v=0
2130 On ch=3 n=32 v=90
2130 On ch=3 n=44 v=78
2136 On ch=3 n=42 v=0
2154 On ch=3 n=44 v=0
2158 On ch=3 n=32 v=0
2190 On ch=3 n=32 v=87
2190 On ch=3 n=44 v=87
2237 On ch=3 n=44 v=0
2241 On ch=3 n=32 v=0
2250 On ch=3 n=30 v=73
2250 On ch=3 n=42 v=87
2278 On ch=3 n=42 v=0
2278 On ch=3 n=30 v=0
2280 On ch=3 n=44 v=80
2280 On ch=3 n=32 v=87
2340 On ch=3 n=32 v=0
2340 On ch=3 n=34 v=87
2340 On ch=3 n=46 v=73
2341 On ch=3 n=44 v=0
2392 On ch=3 n=46 v=0
2400 On ch=3 n=44 v=76
2400 On ch=3 n=32 v=80
2401 On ch=3 n=34 v=0
2420 On ch=3 n=32 v=0
2422 On ch=3 n=44 v=0
2460 On ch=3 n=32 v=96
2460 On ch=3 n=44 v=90
2480 On ch=3 n=32 v=0
2483 On ch=3 n=44 v=0
2520 On ch=3 n=44 v=100
2520 On ch=3 n=32 v=100
2579 On ch=3 n=44 v=0
2580 On ch=3 n=32 v=0
2580 On ch=3 n=30 v=63
2580 On ch=3 n=42 v=78
2602 On ch=3 n=30 v=0
2610 On ch=3 n=32 v=85
2610 On ch=3 n=44 v=82
2619 On ch=3 n=42 v=0
2636 On ch=3 n=44 v=0
2636 On ch=3 n=32 v=0
2670 On ch=3 n=32 v=80
2670 On ch=3 n=44 v=93
2723 On ch=3 n=44 v=0
2730 On ch=3 n=32 v=0
2730 On ch=3 n=42 v=85
2730 On ch=3 n=30 v=73
2758 On ch=3 n=30 v=0
2759 On ch=3 n=42 v=0
2760 On ch=3 n=44 v=80
2760 On ch=3 n=32 v=80
2815 On ch=3 n=32 v=0
2820 On ch=3 n=34 v=96
2820 On ch=3 n=46 v=82
2835 On ch=3 n=44 v=0
2880 On ch=3 n=44 v=80
2880 On ch=3 n=32 v=90
2886 On ch=3 n=46 v=0
2888 On ch=3 n=34 v=0
2903 On ch=3 n=44 v=0
2903 On ch=3 n=32 v=0
2940 On ch=3 n=32 v=87
2940 On ch=3 n=44 v=90
2960 On ch=3 n=32 v=0
2964 On ch=3 n=44 v=0
3000 On ch=3 n=32 v=90
3000 On ch=3 n=44 v=96
3058 On ch=3 n=44 v=0
3059 On ch=3 n=32 v=0
3060 On ch=3 n=30 v=73
3060 On ch=3 n=42 v=85
3088 On ch=3 n=30 v=0
3090 On ch=3 n=32 v=90
3090 On ch=3 n=44 v=85
3098 On ch=3 n=42 v=0
3112 On ch=3 n=44 v=0
3118 On ch=3 n=32 v=0
3150 On ch=3 n=32 v=82
3150 On ch=3 n=44 v=90
3202 On ch=3 n=32 v=0
3203 On ch=3 n=44 v=0
3210 On ch=3 n=30 v=73
3210 On ch=3 n=42 v=87
3233 On ch=3 n=42 v=0
3237 On ch=3 n=30 v=0
3240 On ch=3 n=44 v=80
3240 On ch=3 n=32 v=87
3300 On ch=3 n=34 v=87
3300 On ch=3 n=46 v=76
3305 On ch=3 n=32 v=0
3309 On ch=3 n=44 v=0
3336 On ch=3 n=46 v=0
3360 On ch=3 n=44 v=73
3360 On ch=3 n=32 v=90
3361 On ch=3 n=34 v=0
3388 On ch=3 n=32 v=0
3392 On ch=3 n=44 v=0
3420 On ch=3 n=32 v=90
3420 On ch=3 n=44 v=90
3437 On ch=3 n=32 v=0
3441 On ch=3 n=44 v=0
3480 On ch=3 n=32 v=96
3480 On ch=3 n=44 v=96
3530 On ch=3 n=32 v=0
3536 On ch=3 n=44 v=0
3540 On ch=3 n=42 v=93
3540 On ch=3 n=30 v=70
3565 On ch=3 n=30 v=0
3570 On ch=3 n=32 v=82
3570 On ch=3 n=44 v=87
3583 On ch=3 n=42 v=0
3596 On ch=3 n=44 v=0
3597 On ch=3 n=32 v=0
3630 On ch=3 n=32 v=85
3630 On ch=3 n=44 v=93
3682 On ch=3 n=32 v=0
3683 On ch=3 n=44 v=0
3690 On ch=3 n=42 v=90
3690 On ch=3 n=30 v=76
3720 On ch=3 n=30 v=0
3720 On ch=3 n=44 v=85
3720 On ch=3 n=32 v=87
3724 On ch=3 n=42 v=0
3771 On ch=3 n=32 v=0
3780 On ch=3 n=34 v=90
3780 On ch=3 n=46 v=82
3789 On ch=3 n=44 v=0
3823 On ch=3 n=46 v=0
3840 On ch=3 n=44 v=104
3840 On ch=3 n=32 v=104
3851 On ch=3 n=34 v=0
3899 On ch=3 n=32 v=0
3916 On ch=3 n=44 v=0
4320 On ch=3 n=30 v=113
4385 On ch=3 n=30 v=0
4410 On ch=3 n=30 v=82
4440 On ch=3 n=42 v=96
4441 On ch=3 n=30 v=0
4500 On ch=3 n=30 v=108
4506 On ch=3 n=42 v=0
4578 On ch=3 n=30 v=0
4620 On ch=3 n=30 v=100
4680 On ch=3 n=42 v=104
4685 On ch=3 n=30 v=0
4740 On ch=3 n=30 v=119
4742 On ch=3 n=42 v=0
4792 On ch=3 n=30 v=0
4800 On ch=3 n=34 v=113
4865 On ch=3 n=34 v=0
4890 On ch=3 n=34 v=85
4918 On ch=3 n=34 v=0
4920 On ch=3 n=46 v=104
4980 On ch=3 n=34 v=113
4982 On ch=3 n=46 v=0
5045 On ch=3 n=34 v=0
5100 On ch=3 n=34 v=104
5160 On ch=3 n=46 v=104
5165 On ch=3 n=34 v=0
5218 On ch=3 n=46 v=0
5220 On ch=3 n=34 v=113
5268 On ch=3 n=34 v=0
5280 On ch=3 n=35 v=100
5347 On ch=3 n=35 v=0
5370 On ch=3 n=35 v=78
5400 On ch=3 n=27 v=90
5411 On ch=3 n=35 v=0
5516 On ch=3 n=27 v=0
5520 On ch=3 n=28 v=96
5640 On ch=3 n=29 v=94
5650 On ch=3 n=28 v=0
5710 On ch=3 n=29 v=0
5760 On ch=3 n=26 v=78
5822 On ch=3 n=26 v=0
5850 On ch=3 n=38 v=73
5878 On ch=3 n=38 v=0
5880 On ch=3 n=31 v=92
6000 On ch=3 n=31 v=0
6000 On ch=3 n=32 v=104
6116 On ch=3 n=32 v=0
6120 On ch=3 n=33 v=100
6188 On ch=3 n=33 v=0
6240 On ch=3 n=33 v=92
6265 On ch=3 n=33 v=0
6300 On ch=3 n=33 v=87
6322 On ch=3 n=33 v=0
6360 On ch=3 n=33 v=100
6390 On ch=3 n=33 v=0
6450 On ch=3 n=33 v=96
6476 On ch=3 n=33 v=0
6510 On ch=3 n=33 v=90
6538 On ch=3 n=33 v=0
6570 On ch=3 n=33 v=81
6578 On ch=3 n=33 v=0
6600 On ch=3 n=33 v=104
6671 On ch=3 n=33 v=0
6720 On ch=3 n=37 v=113
6738 On ch=3 n=37 v=0
6780 On ch=3 n=37 v=104
6798 On ch=3 n=37 v=0
6840 On ch=3 n=37 v=108
6895 On ch=3 n=37 v=0
6930 On ch=3 n=37 v=113
6948 On ch=3 n=37 v=0
6990 On ch=3 n=37 v=104
7011 On ch=3 n=37 v=0
7050 On ch=3 n=37 v=96
7058 On ch=3 n=37 v=0
7080 On ch=3 n=37 v=108
7148 On ch=3 n=37 v=0
7200 On ch=3 n=38 v=107
7226 On ch=3 n=38 v=0
7260 On ch=3 n=38 v=98
7283 On ch=3 n=38 v=0
7320 On ch=3 n=38 v=109
7380 On ch=3 n=38 v=0
7410 On ch=3 n=38 v=104
7435 On ch=3 n=38 v=0
7470 On ch=3 n=38 v=100
7500 On ch=3 n=38 v=0
7530 On ch=3 n=38 v=90
7537 On ch=3 n=38 v=0
7560 On ch=3 n=38 v=104
7611 On ch=3 n=38 v=0
7650 On ch=3 n=38 v=92
7673 On ch=3 n=38 v=0
7680 On ch=3 n=41 v=112
7755 On ch=3 n=41 v=0
7800 On ch=3 n=33 v=102
7920 On ch=3 n=34 v=104
7935 On ch=3 n=33 v=0
8040 On ch=3 n=35 v=102
8043 On ch=3 n=34 v=0
8108 On ch=3 n=35 v=0
8160 On ch=3 n=36 v=98
8180 On ch=3 n=36 v=0
8220 On ch=3 n=36 v=94
8238 On ch=3 n=36 v=0
8280 On ch=3 n=36 v=104
8341 On ch=3 n=36 v=0
8370 On ch=3 n=36 v=98
8393 On ch=3 n=36 v=0
8430 On ch=3 n=36 v=98
8453 On ch=3 n=36 v=0
8490 On ch=3 n=36 v=92
8502 On ch=3 n=36 v=0
8520 On ch=3 n=36 v=96
8583 On ch=3 n=36 v=0
8640 On ch=3 n=36 v=92
8660 On ch=3 n=36 v=0
8700 On ch=3 n=36 v=89
8721 On ch=3 n=36 v=0
8760 On ch=3 n=36 v=100
8820 On ch=3 n=36 v=0
8850 On ch=3 n=36 v=92
8869 On ch=3 n=36 v=0
8910 On ch=3 n=36 v=94
8933 On ch=3 n=36 v=0
8970 On ch=3 n=36 v=94
8983 On ch=3 n=36 v=0
9000 On ch=3 n=36 v=90
9063 On ch=3 n=36 v=0
9120 On ch=3 n=41 v=89
9196 On ch=3 n=41 v=0
9210 On ch=3 n=41 v=76
9232 On ch=3 n=41 v=0
9240 On ch=3 n=36 v=84
9300 On ch=3 n=41 v=92
9315 On ch=3 n=36 v=0
9420 On ch=3 n=36 v=83
9424 On ch=3 n=41 v=0
9480 On ch=3 n=41 v=98
9485 On ch=3 n=36 v=0
9540 On ch=3 n=36 v=72
9543 On ch=3 n=41 v=0
9600 On ch=3 n=40 v=87
9603 On ch=3 n=36 v=0
9665 On ch=3 n=40 v=0
9690 On ch=3 n=40 v=71
9718 On ch=3 n=40 v=0
9720 On ch=3 n=35 v=90
9780 On ch=3 n=40 v=90
9786 On ch=3 n=35 v=0
9893 On ch=3 n=40 v=0
9900 On ch=3 n=35 v=92
9960 On ch=3 n=40 v=87
9966 On ch=3 n=35 v=0
10020 On ch=3 n=35 v=61
10026 On ch=3 n=40 v=0
10080 On ch=3 n=41 v=98
10086 On ch=3 n=35 v=0
10200 On ch=3 n=36 v=96
10205 On ch=3 n=41 v=0
10260 On ch=3 n=41 v=89
10263 On ch=3 n=36 v=0
10280 On ch=3 n=41 v=0
10290 On ch=3 n=36 v=41
10303 On ch=3 n=36 v=0
10320 On ch=3 n=43 v=104
10434 On ch=3 n=43 v=0
10440 On ch=3 n=38 v=98
10500 On ch=3 n=43 v=96
10508 On ch=3 n=38 v=0
10553 On ch=3 n=43 v=0
10560 On ch=3 n=36 v=100
10581 On ch=3 n=36 v=0
10620 On ch=3 n=36 v=90
10635 On ch=3 n=36 v=0
10680 On ch=3 n=36 v=104
10738 On ch=3 n=36 v=0
10770 On ch=3 n=36 v=96
10795 On ch=3 n=36 v=0
10830 On ch=3 n=36 v=109
10852 On ch=3 n=36 v=0
10890 On ch=3 n=36 v=94
10901 On ch=3 n=36 v=0
10920 On ch=3 n=36 v=98
10980 On ch=3 n=36 v=0
11040 On ch=3 n=41 v=92
11108 On ch=3 n=41 v=0
11130 On ch=3 n=41 v=72
11156 On ch=3 n=41 v=0
11160 On ch=3 n=36 v=86
11220 On ch=3 n=41 v=92
11223 On ch=3 n=36 v=0
11338 On ch=3 n=41 v=0
11340 On ch=3 n=36 v=92
11399 On ch=3 n=36 v=0
11400 On ch=3 n=41 v=87
11460 On ch=3 n=41 v=0
11460 On ch=3 n=36 v=76
11495 On ch=3 n=36 v=0
11520 On ch=3 n=40 v=83
11578 On ch=3 n=40 v=0
11610 On ch=3 n=40 v=63
11638 On ch=3 n=40 v=0
11640 On ch=3 n=35 v=89
11700 On ch=3 n=40 v=94
11702 On ch=3 n=35 v=0
11815 On ch=3 n=40 v=0
11820 On ch=3 n=35 v=86
11878 On ch=3 n=35 v=0
11880 On ch=3 n=40 v=94
11939 On ch=3 n=40 v=0
11940 On ch=3 n=35 v=70
12000 On ch=3 n=41 v=102
12003 On ch=3 n=35 v=0
12120 On ch=3 n=36 v=96
12121 On ch=3 n=41 v=0
12180 On ch=3 n=41 v=102
12188 On ch=3 n=36 v=0
12211 On ch=3 n=41 v=0
12240 On ch=3 n=43 v=102
12357 On ch=3 n=43 v=0
12360 On ch=3 n=38 v=94
12420 On ch=3 n=43 v=94
12426 On ch=3 n=38 v=0
12480 On ch=3 n=43 v=0
12480 On ch=3 n=41 v=100
12553 On ch=3 n=41 v=0
12570 On ch=3 n=41 v=81
12600 On ch=3 n=40 v=104
12611 On ch=3 n=41 v=0
12666 On ch=3 n=40 v=0
12690 On ch=3 n=40 v=79
12720 On ch=3 n=38 v=109
12728 On ch=3 n=40 v=0
12783 On ch=3 n=38 v=0
12810 On ch=3 n=38 v=77
12840 On ch=3 n=31 v=100
12848 On ch=3 n=38 v=0
12900 On ch=3 n=33 v=94
12906 On ch=3 n=31 v=0
12918 On ch=3 n=33 v=0
12960 On ch=3 n=36 v=76
12988 On ch=3 n=36 v=0
13020 On ch=3 n=36 v=104
13041 On ch=3 n=36 v=0
13080 On ch=3 n=36 v=115
13140 On ch=3 n=36 v=0
13170 On ch=3 n=36 v=109
13201 On ch=3 n=36 v=0
13230 On ch=3 n=36 v=107
13257 On ch=3 n=36 v=0
13290 On ch=3 n=36 v=96
13303 On ch=3 n=36 v=0
13320 On ch=3 n=36 v=109
13390 On ch=3 n=36 v=0
13440 On ch=3 n=36 v=107
13463 On ch=3 n=36 v=0
13500 On ch=3 n=36 v=109
13522 On ch=3 n=36 v=0
13560 On ch=3 n=36 v=118
13617 On ch=3 n=36 v=0
13650 On ch=3 n=36 v=107
13676 On ch=3 n=36 v=0
13710 On ch=3 n=36 v=104
13735 On ch=3 n=36 v=0
13770 On ch=3 n=36 v=87
13783 On ch=3 n=36 v=0
13800 On ch=3 n=36 v=98
13858 On ch=3 n=36 v=0
13920 On ch=3 n=44 v=76
13920 On ch=3 n=32 v=80
13938 On ch=3 n=32 v=0
13939 On ch=3 n=44 v=0
13980 On ch=3 n=44 v=70
13980 On ch=3 n=32 v=70
14000 On ch=3 n=32 v=0
14002 On ch=3 n=44 v=0
14040 On ch=3 n=32 v=78
14040 On ch=3 n=44 v=82
14097 On ch=3 n=44 v=0
14100 On ch=3 n=30 v=63
14100 On ch=3 n=42 v=63
14103 On ch=3 n=32 v=0
14129 On ch=3 n=30 v=0
14130 On ch=3 n=32 v=82
14130 On ch=3 n=44 v=80
14138 On ch=3 n=42 v=0
14154 On ch=3 n=44 v=0
14154 On ch=3 n=32 v=0
14190 On ch=3 n=32 v=80
14190 On ch=3 n=44 v=85
14240 On ch=3 n=44 v=0
14246 On ch=3 n=32 v=0
14250 On ch=3 n=42 v=75
14250 On ch=3 n=30 v=71
14276 On ch=3 n=30 v=0
14280 On ch=3 n=32 v=75
14280 On ch=3 n=44 v=82
14284 On ch=3 n=42 v=0
14340 On ch=3 n=46 v=61
14340 On ch=3 n=34 v=80
14348 On ch=3 n=44 v=0
14356 On ch=3 n=32 v=0
14397 On ch=3 n=46 v=0
14400 On ch=3 n=32 v=85
14400 On ch=3 n=44 v=71
14406 On ch=3 n=34 v=0
14418 On ch=3 n=44 v=0
14420 On ch=3 n=32 v=0
14460 On ch=3 n=44 v=85
14460 On ch=3 n=32 v=93
14480 On ch=3 n=32 v=0
14483 On ch=3 n=44 v=0
14520 On ch=3 n=32 v=93
14520 On ch=3 n=44 v=90
14579 On ch=3 n=44 v=0
14580 On ch=3 n=30 v=63
14580 On ch=3 n=42 v=78
14582 On ch=3 n=32 v=0
14608 On ch=3 n=42 v=0
14609 On ch=3 n=30 v=0
14610 On ch=3 n=32 v=87
14610 On ch=3 n=44 v=82
14634 On ch=3 n=32 v=0
14635 On ch=3 n=44 v=0
14670 On ch=3 n=32 v=85
14670 On ch=3 n=44 v=85
14721 On ch=3 n=44 v=0
14724 On ch=3 n=32 v=0
14730 On ch=3 n=42 v=80
14730 On ch=3 n=30 v=70
14755 On ch=3 n=42 v=0
14756 On ch=3 n=30 v=0
14760 On ch=3 n=44 v=78
14760 On ch=3 n=32 v=82
14819 On ch=3 n=44 v=0
14820 On ch=3 n=46 v=70
14820 On ch=3 n=34 v=87
14823 On ch=3 n=32 v=0
14871 On ch=3 n=46 v=0
14880 On ch=3 n=44 v=70
14880 On ch=3 n=32 v=87
14883 On ch=3 n=34 v=0
14897 On ch=3 n=32 v=0
14900 On ch=3 n=44 v=0
14940 On ch=3 n=44 v=87
14940 On ch=3 n=32 v=80
14960 On ch=3 n=32 v=0
14963 On ch=3 n=44 v=0
15000 On ch=3 n=32 v=93
15000 On ch=3 n=44 v=93
15059 On ch=3 n=44 v=0
15060 On ch=3 n=30 v=71
15060 On ch=3 n=42 v=85
15065 On ch=3 n=32 v=0
15086 On ch=3 n=30 v=0
15088 On ch=3 n=42 v=0
15090 On ch=3 n=32 v=85
15090 On ch=3 n=44 v=87
15115 On ch=3 n=44 v=0
15115 On ch=3 n=32 v=0
15150 On ch=3 n=32 v=90
15150 On ch=3 n=44 v=90
15204 On ch=3 n=44 v=0
15208 On ch=3 n=32 v=0
15210 On ch=3 n=42 v=85
15210 On ch=3 n=30 v=76
15236 On ch=3 n=30 v=0
15238 On ch=3 n=42 v=0
15240 On ch=3 n=44 v=80
15240 On ch=3 n=32 v=85
15292 On ch=3 n=32 v=0
15297 On ch=3 n=44 v=0
15300 On ch=3 n=34 v=90
15300 On ch=3 n=46 v=73
15350 On ch=3 n=46 v=0
15360 On ch=3 n=44 v=80
15360 On ch=3 n=32 v=85
15368 On ch=3 n=34 v=0
15381 On ch=3 n=32 v=0
15383 On ch=3 n=44 v=0
15420 On ch=3 n=32 v=100
15420 On ch=3 n=44 v=90
15440 On ch=3 n=32 v=0
15443 On ch=3 n=44 v=0
15480 On ch=3 n=32 v=104
15480 On ch=3 n=44 v=96
15538 On ch=3 n=44 v=0
15540 On ch=3 n=30 v=68
15540 On ch=3 n=42 v=78
15545 On ch=3 n=32 v=0
15569 On ch=3 n=30 v=0
15570 On ch=3 n=32 v=90
15570 On ch=3 n=44 v=78
15576 On ch=3 n=42 v=0
15594 On ch=3 n=44 v=0
15598 On ch=3 n=32 v=0
15630 On ch=3 n=32 v=87
15630 On ch=3 n=44 v=87
15677 On ch=3 n=44 v=0
15681 On ch=3 n=32 v=0
15690 On ch=3 n=30 v=73
15690 On ch=3 n=42 v=87
15718 On ch=3 n=42 v=0
15718 On ch=3 n=30 v=0
15720 On ch=3 n=44 v=80
15720 On ch=3 n=32 v=87
15780 On ch=3 n=32 v=0
15780 On ch=3 n=34 v=87
15780 On ch=3 n=46 v=73
15781 On ch=3 n=44 v=0
15832 On ch=3 n=46 v=0
15840 On ch=3 n=44 v=76
15840 On ch=3 n=32 v=80
15841 On ch=3 n=34 v=0
15860 On ch=3 n=32 v=0
15862 On ch=3 n=44 v=0
15900 On ch=3 n=32 v=96
15900 On ch=3 n=44 v=90
15920 On ch=3 n=32 v=0
15923 On ch=3 n=44 v=0
15960 On ch=3 n=44 v=100
15960 On ch=3 n=32 v=100
16019 On ch=3 n=44 v=0
16020 On ch=3 n=32 v=0
16020 On ch=3 n=30 v=63
16020 On ch=3 n=42 v=78
16042 On ch=3 n=30 v=0
16050 On ch=3 n=32 v=85
16050 On ch=3 n=44 v=82
16059 On ch=3 n=42 v=0
16076 On ch=3 n=44 v=0
16076 On ch=3 n=32 v=0
16110 On ch=3 n=32 v=80
16110 On ch=3 n=44 v=93
16163 On ch=3 n=44 v=0
16170 On ch=3 n=32 v=0
16170 On ch=3 n=42 v=85
16170 On ch=3 n=30 v=73
16198 On ch=3 n=30 v=0
16199 On ch=3 n=42 v=0
16200 On ch=3 n=44 v=80
16200 On ch=3 n=32 v=80
16255 On ch=3 n=32 v=0
16260 On ch=3 n=34 v=96
16260 On ch=3 n=46 v=82
16275 On ch=3 n=44 v=0
16320 On ch=3 n=44 v=80
16320 On ch=3 n=32 v=90
16326 On ch=3 n=46 v=0
16328 On ch=3 n=34 v=0
16343 On ch=3 n=44 v=0
16343 On ch=3 n=32 v=0
16380 On ch=3 n=32 v=87
16380 On ch=3 n=44 v=90
16400 On ch=3 n=32 v=0
16404 On ch=3 n=44 v=0
16440 On ch=3 n=32 v=90
16440 On ch=3 n=44 v=96
16498 On ch=3 n=44 v=0
16499 On ch=3 n=32 v=0
16500 On ch=3 n=30 v=73
16500 On ch=3 n=42 v=85
16528 On ch=3 n=30 v=0
16530 On ch=3 n=32 v=90
16530 On ch=3 n=44 v=85
16538 On ch=3 n=42 v=0
16552 On ch=3 n=44 v=0
16558 On ch=3 n=32 v=0
16590 On ch=3 n=32 v=82
16590 On ch=3 n=44 v=90
16642 On ch=3 n=32 v=0
16643 On ch=3 n=44 v=0
16650 On ch=3 n=30 v=73
16650 On ch=3 n=42 v=87
16673 On ch=3 n=42 v=0
16677 On ch=3 n=30 v=0
16680 On ch=3 n=44 v=80
16680 On ch=3 n=32 v=87
16740 On ch=3 n=34 v=87
16740 On ch=3 n=46 v=76
16745 On ch=3 n=32 v=0
16749 On ch=3 n=44 v=0
16776 On ch=3 n=46 v=0
16800 On ch=3 n=44 v=73
16800 On ch=3 n=32 v=90
16801 On ch=3 n=34 v=0
16828 On ch=3 n=32 v=0
16832 On ch=3 n=44 v=0
16860 On ch=3 n=32 v=90
16860 On ch=3 n=44 v=90
16877 On ch=3 n=32 v=0
16881 On ch=3 n=44 v=0
16920 On ch=3 n=32 v=96
16920 On ch=3 n=44 v=96
16970 On ch=3 n=32 v=0
16976 On ch=3 n=44 v=0
16980 On ch=3 n=42 v=93
16980 On ch=3 n=30 v=70
17005 On ch=3 n=30 v=0
17010 On ch=3 n=32 v=82
17010 On ch=3 n=44 v=87
17023 On ch=3 n=42 v=0
17036 On ch=3 n=44 v=0
17037 On ch=3 n=32 v=0
17070 On ch=3 n=32 v=85
17070 On ch=3 n=44 v=93
17122 On ch=3 n=32 v=0
17123 On ch=3 n=44 v=0
17130 On ch=3 n=42 v=90
17130 On ch=3 n=30 v=76
17160 On ch=3 n=30 v=0
17160 On ch=3 n=44 v=85
17160 On ch=3 n=32 v=87
17164 On ch=3 n=42 v=0
17211 On ch=3 n=32 v=0
17220 On ch=3 n=34 v=90
17220 On ch=3 n=46 v=82
17229 On ch=3 n=44 v=0
17263 On ch=3 n=46 v=0
17280 On ch=3 n=44 v=104
17280 On ch=3 n=32 v=104
17291 On ch=3 n=34 v=0
17339 On ch=3 n=32 v=0
17356 On ch=3 n=44 v=0
17760 On ch=3 n=30 v=113
17825 On ch=3 n=30 v=0
17850 On ch=3 n=30 v=82
17880 On ch=3 n=42 v=96
17881 On ch=3 n=30 v=0
17940 On ch=3 n=30 v=108
17946 On ch=3 n=42 v=0
18018 On ch=3 n=30 v=0
18060 On ch=3 n=30 v=100
18120 On ch=3 n=42 v=104
18125 On ch=3 n=30 v=0
18180 On ch=3 n=30 v=119
18182 On ch=3 n=42 v=0
18232 On ch=3 n=30 v=0
18240 On ch=3 n=34 v=113
18305 On ch=3 n=34 v=0
18330 On ch=3 n=34 v=85
18358 On ch=3 n=34 v=0
18360 On ch=3 n=46 v=104
18420 On ch=3 n=34 v=113
18422 On ch=3 n=46 v=0
18485 On ch=3 n=34 v=0
18540 On ch=3 n=34 v=104
18600 On ch=3 n=46 v=104
18605 On ch=3 n=34 v=0
18658 On ch=3 n=46 v=0
18660 On ch=3 n=34 v=113
18708 On ch=3 n=34 v=0
18720 On ch=3 n=35 v=100
18787 On ch=3 n=35 v=0
18810 On ch=3 n=35 v=78
18840 On ch=3 n=27 v=90
18851 On ch=3 n=35 v=0
18956 On ch=3 n=27 v=0
18960 On ch=3 n=28 v=96
19080 On ch=3 n=29 v=94
19090 On ch=3 n=28 v=0
19150 On ch=3 n=29 v=0
19200 On ch=3 n=26 v=78
19262 On ch=3 n=26 v=0
19290 On ch=3 n=38 v=73
19318 On ch=3 n=38 v=0
19320 On ch=3 n=31 v=92
19440 On ch=3 n=31 v=0
19440 On ch=3 n=32 v=104
19556 On ch=3 n=32 v=0
19560 On ch=3 n=33 v=100
19628 On ch=3 n=33 v=0
19680 On ch=3 n=33 v=92
19705 On ch=3 n=33 v=0
19740 On ch=3 n=33 v=87
19762 On ch=3 n=33 v=0
19800 On ch=3 n=33 v=100
19830 On ch=3 n=33 v=0
19890 On ch=3 n=33 v=96
19916 On ch=3 n=33 v=0
19950 On ch=3 n=33 v=90
19978 On ch=3 n=33 v=0
20010 On ch=3 n=33 v=81
20018 On ch=3 n=33 v=0
20040 On ch=3 n=33 v=104
20111 On ch=3 n=33 v=0
20160 On ch=3 n=37 v=113
20178 On ch=3 n=37 v=0
20220 On ch=3 n=37 v=104
20238 On ch=3 n=37 v=0
20280 On ch=3 n=37 v=108
20335 On ch=3 n=37 v=0
20370 On ch=3 n=37 v=113
20388 On ch=3 n=37 v=0
20430 On ch=3 n=37 v=104
20451 On ch=3 n=37 v=0
20490 On ch=3 n=37 v=96
20498 On ch=3 n=37 v=0
20520 On ch=3 n=37 v=108
20588 On ch=3 n=37 v=0
20640 On ch=3 n=38 v=107
20666 On ch=3 n=38 v=0
20700 On ch=3 n=38 v=98
20723 On ch=3 n=38 v=0
20760 On ch=3 n=38 v=109
20820 On ch=3 n=38 v=0
20850 On ch=3 n=38 v=104
20875 On ch=3 n=38 v=0
20910 On ch=3 n=38 v=100
20940 On ch=3 n=38 v=0
20970 On ch=3 n=38 v=90
20977 On ch=3 n=38 v=0
21000 On ch=3 n=38 v=104
21051 On ch=3 n=38 v=0
21090 On ch=3 n=38 v=92
21113 On ch=3 n=38 v=0
21120 On ch=3 n=41 v=112
21195 On ch=3 n=41 v=0
21240 On ch=3 n=33 v=102
21360 On ch=3 n=34 v=104
21375 On ch=3 n=33 v=0
21480 On ch=3 n=35 v=102
21483 On ch=3 n=34 v=0
21548 On ch=3 n=35 v=0
21600 On ch=3 n=36 v=98
21620 On ch=3 n=36 v=0
21660 On ch=3 n=36 v=94
21678 On ch=3 n=36 v=0
21720 On ch=3 n=36 v=104
21781 On ch=3 n=36 v=0
21810 On ch=3 n=36 v=98
21833 On ch=3 n=36 v=0
21870 On ch=3 n=36 v=98
21893 On ch=3 n=36 v=0
21930 On ch=3 n=36 v=92
21942 On ch=3 n=36 v=0
21960 On ch=3 n=36 v=96
22023 On ch=3 n=36 v=0
22080 On ch=3 n=36 v=92
22100 On ch=3 n=36 v=0
22140 On ch=3 n=36 v=89
22161 On ch=3 n=36 v=0
22200 On ch=3 n=36 v=100
22260 On ch=3 n=36 v=0
22290 On ch=3 n=36 v=92
22309 On ch=3 n=36 v=0
22350 On ch=3 n=36 v=94
22373 On ch=3 n=36 v=0
22410 On ch=3 n=36 v=94
22423 On ch=3 n=36 v=0
22440 On ch=3 n=36 v=90
22503 On ch=3 n=36 v=0
22560 On ch=3 n=41 v=89
22636 On ch=3 n=41 v=0
22650 On ch=3 n=41 v=76
22672 On ch=3 n=41 v=0
22680 On ch=3 n=36 v=84
22740 On ch=3 n=41 v=92
22755 On ch=3 n=36 v=0
22860 On ch=3 n=36 v=83
22864 On ch=3 n=41 v=0
22920 On ch=3 n=41 v=98
22925 On ch=3 n=36 v=0
22980 On ch=3 n=36 v=72
22983 On ch=3 n=41 v=0
23040 On ch=3 n=40 v=87
23043 On ch=3 n=36 v=0
23105 On ch=3 n=40 v=0
23130 On ch=3 n=40 v=71
23158 On ch=3 n=40 v=0
23160 On ch=3 n=35 v=90
23220 On ch=3 n=40 v=90
23226 On ch=3 n=35 v=0
23333 On ch=3 n=40 v=0
23340 On ch=3 n=35 v=92
23400 On ch=3 n=40 v=87
23406 On ch=3 n=35 v=0
23460 On ch=3 n=35 v=61
23466 On ch=3 n=40 v=0
23520 On ch=3 n=41 v=98
23526 On ch=3 n=35 v=0
23640 On ch=3 n=36 v=96
23645 On ch=3 n=41 v=0
23700 On ch=3 n=41 v=89
23703 On ch=3 n=36 v=0
23720 On ch=3 n=41 v=0
23730 On ch=3 n=36 v=41
23743 On ch=3 n=36 v=0
23760 On ch=3 n=43 v=104
23874 On ch=3 n=43 v=0
23880 On ch=3 n=38 v=98
23940 On ch=3 n=43 v=96
23948 On ch=3 n=38 v=0
23993 On ch=3 n=43 v=0
24000 On ch=3 n=36 v=100
24021 On ch=3 n=36 v=0
24060 On ch=3 n=36 v=90
24075 On ch=3 n=36 v=0
24120 On ch=3 n=36 v=104
24178 On ch=3 n=36 v=0
24210 On ch=3 n=36 v=96
24235 On ch=3 n=36 v=0
24270 On ch=3 n=36 v=109
24292 On ch=3 n=36 v=0
24330 On ch=3 n=36 v=94
24341 On ch=3 n=36 v=0
24360 On ch=3 n=36 v=98
24420 On ch=3 n=36 v=0
24480 On ch=3 n=41 v=92
24548 On ch=3 n=41 v=0
24570 On ch=3 n=41 v=72
24596 On ch=3 n=41 v=0
24600 On ch=3 n=36 v=86
24660 On ch=3 n=41 v=92
24663 On ch=3 n=36 v=0
24778 On ch=3 n=41 v=0
24780 On ch=3 n=36 v=92
24839 On ch=3 n=36 v=0
24840 On ch=3 n=41 v=87
24900 On ch=3 n=41 v=0
24900 On ch=3 n=36 v=76
24935 On ch=3 n=36 v=0
24960 On ch=3 n=40 v=83
25018 On ch=3 n=40 v=0
25050 On ch=3 n=40 v=63
25078 On ch=3 n=40 v=0
25080 On ch=3 n=35 v=89
25140 On ch=3 n=40 v=94
25142 On ch=3 n=35 v=0
25255 On ch=3 n=40 v=0
25260 On ch=3 n=35 v=86
25318 On ch=3 n=35 v=0
25320 On ch=3 n=40 v=94
25379 On ch=3 n=40 v=0
25380 On ch=3 n=35 v=70
25440 On ch=3 n=41 v=102
25443 On ch=3 n=35 v=0
25560 On ch=3 n=36 v=96
25561 On ch=3 n=41 v=0
25620 On ch=3 n=41 v=102
25628 On ch=3 n=36 v=0
25651 On ch=3 n=41 v=0
25680 On ch=3 n=43 v=102
25797 On ch=3 n=43 v=0
25800 On ch=3 n=38 v=94
25860 On ch=3 n=43 v=94
25866 On ch=3 n=38 v=0
25920 On ch=3 n=43 v=0
25920 On ch=3 n=41 v=100
25993 On ch=3 n=41 v=0
26010 On ch=3 n=41 v=81
26040 On ch=3 n=40 v=104
26051 On ch=3 n=41 v=0
26106 On ch=3 n=40 v=0
26130 On ch=3 n=40 v=79
26160 On ch=3 n=38 v=109
26168 On ch=3 n=40 v=0
26223 On ch=3 n=38 v=0
26250 On ch=3 n=38 v=77
26280 On ch=3 n=31 v=100
26288 On ch=3 n=38 v=0
26340 On ch=3 n=33 v=94
26346 On ch=3 n=31 v=0
26358 On ch=3 n=33 v=0
26400 On ch=3 n=36 v=76
26428 On ch=3 n=36 v=0
26460 On ch=3 n=36 v=104
26481 On ch=3 n=36 v=0
26520 On ch=3 n=36 v=115
26580 On ch=3 n=36 v=0
26610 On ch=3 n=36 v=109
26641 On ch=3 n=36 v=0
26670 On ch=3 n=36 v=107
26697 On ch=3 n=36 v=0
26730 On ch=3 n=36 v=96
26743 On ch=3 n=36 v=0
26760 On ch=3 n=36 v=109
26830 On ch=3 n=36 v=0
26880 On ch=3 n=36 v=107
26903 On ch=3 n=36 v=0
26940 On ch=3 n=36 v=109
26962 On ch=3 n=36 v=0
27000 On ch=3 n=36 v=118
27057 On ch=3 n=36 v=0
27090 On ch=3 n=36 v=107
27116 On ch=3 n=36 v=0
27150 On ch=3 n=36 v=104
27175 On ch=3 n=36 v=0
27210 On ch=3 n=36 v=87
27223 On ch=3 n=36 v=0
27240 On ch=3 n=36 v=98
27298 On ch=3 n=36 v=0
27360 On ch=3 n=41 v=89
27436 On ch=3 n=41 v=0
27450 On ch=3 n=41 v=76
27472 On ch=3 n=41 v=0
27480 On ch=3 n=36 v=84
27540 On ch=3 n=41 v=92
27555 On ch=3 n=36 v=0
27660 On ch=3 n=36 v=83
27664 On ch=3 n=41 v=0
27720 On ch=3 n=41 v=98
27725 On ch=3 n=36 v=0
27780 On ch=3 n=36 v=72
27783 On ch=3 n=41 v=0
27840 On ch=3 n=40 v=87
27843 On ch=3 n=36 v=0
27905 On ch=3 n=40 v=0
27930 On ch=3 n=40 v=71
27958 On ch=3 n=40 v=0
27960 On ch=3 n=35 v=90
28020 On ch=3 n=40 v=90
28026 On ch=3 n=35 v=0
28133 On ch=3 n=40 v=0
28140 On ch=3 n=35 v=92
28200 On ch=3 n=40 v=87
28206 On ch=3 n=35 v=0
28260 On ch=3 n=35 v=61
28266 On ch=3 n=40 v=0
28320 On ch=3 n=41 v=98
28326 On ch=3 n=35 v=0
28440 On ch=3 n=36 v=96
28445 On ch=3 n=41 v=0
28500 On ch=3 n=41 v=89
28503 On ch=3 n=36 v=0
28520 On ch=3 n=41 v=0
28530 On ch=3 n=36 v=41
28543 On ch=3 n=36 v=0
28560 On ch=3 n=43 v=104
28674 On ch=3 n=43 v=0
28680 On ch=3 n=38 v=98
28740 On ch=3 n=43 v=96
28748 On ch=3 n=38 v=0
28793 On ch=3 n=43 v=0
28800 On ch=3 n=36 v=100
28821 On ch=3 n=36 v=0
28860 On ch=3 n=36 v=90
28875 On ch=3 n=36 v=0
28920 On ch=3 n=36 v=104
28978 On ch=3 n=36 v=0
29010 On ch=3 n=36 v=96
29035 On ch=3 n=36 v=0
29070 On ch=3 n=36 v=109
29092 On ch=3 n=36 v=0
29130 On ch=3 n=36 v=94
29141 On ch=3 n=36 v=0
29160 On ch=3 n=36 v=98
29220 On ch=3 n=36 v=0
29280 On ch=3 n=41 v=92
29348 On ch=3 n=41 v=0
29370 On ch=3 n=41 v=72
29396 On ch=3 n=41 v=0
29400 On ch=3 n=36 v=86
29460 On ch=3 n=41 v=92
29463 On ch=3 n=36 v=0
29578 On ch=3 n=41 v=0
29580 On ch=3 n=36 v=92
29639 On ch=3 n=36 v=0
29640 On ch=3 n=41 v=87
29700 On ch=3 n=41 v=0
29700 On ch=3 n=36 v=76
29735 On ch=3 n=36 v=0
29760 On ch=3 n=40 v=83
29818 On ch=3 n=40 v=0
29850 On ch=3 n=40 v=63
29878 On ch=3 n=40 v=0
29880 On ch=3 n=35 v=89
29940 On ch=3 n=40 v=94
29942 On ch=3 n=35 v=0
30055 On ch=3 n=40 v=0
30060 On ch=3 n=35 v=86
30118 On ch=3 n=35 v=0
30120 On ch=3 n=40 v=94
30179 On ch=3 n=40 v=0
30180 On ch=3 n=35 v=70
30240 On ch=3 n=41 v=102
30243 On ch=3 n=35 v=0
30360 On ch=3 n=36 v=96
30361 On ch=3 n=41 v=0
30420 On ch=3 n=41 v=102
30428 On ch=3 n=36 v=0
30451 On ch=3 n=41 v=0
30480 On ch=3 n=43 v=102
30597 On ch=3 n=43 v=0
30600 On ch=3 n=38 v=94
30660 On ch=3 n=43 v=94
30666 On ch=3 n=38 v=0
30720 On ch=3 n=43 v=0
30720 On ch=3 n=41 v=100
30793 On ch=3 n=41 v=0
30810 On ch=3 n=41 v=81
30840 On ch=3 n=40 v=104
30851 On ch=3 n=41 v=0
30906 On ch=3 n=40 v=0
30930 On ch=3 n=40 v=79
30960 On ch=3 n=38 v=109
30968 On ch=3 n=40 v=0
31023 On ch=3 n=38 v=0
31050 On ch=3 n=38 v=77
31080 On ch=3 n=31 v=100
31088 On ch=3 n=38 v=0
31140 On ch=3 n=33 v=94
31146 On ch=3 n=31 v=0
31158 On ch=3 n=33 v=0
31200 On ch=3 n=36 v=76
31228 On ch=3 n=36 v=0
31260 On ch=3 n=36 v=104
31281 On ch=3 n=36 v=0
31320 On ch=3 n=36 v=115
31380 On ch=3 n=36 v=0
31410 On ch=3 n=36 v=109
31441 On ch=3 n=36 v=0
31470 On ch=3 n=36 v=107
31497 On ch=3 n=36 v=0
31530 On ch=3 n=36 v=96
31543 On ch=3 n=36 v=0
31560 On ch=3 n=36 v=109
31630 On ch=3 n=36 v=0
31680 On ch=3 n=36 v=107
31703 On ch=3 n=36 v=0
31740 On ch=3 n=36 v=109
31762 On ch=3 n=36 v=0
31800 On ch=3 n=36 v=118
31857 On ch=3 n=36 v=0
31890 On ch=3 n=36 v=107
31916 On ch=3 n=36 v=0
31950 On ch=3 n=36 v=104
31975 On ch=3 n=36 v=0
32010 On ch=3 n=36 v=87
32023 On ch=3 n=36 v=0
32040 On ch=3 n=36 v=98
32098 On ch=3 n=36 v=0
32159 On ch=3 n=32 v=80
32181 On ch=3 n=32 v=0
32219 On ch=3 n=32 v=76
32233 On ch=3 n=32 v=0
32281 On ch=3 n=32 v=85
32336 On ch=3 n=32 v=0
32339 On ch=3 n=30 v=56
32371 On ch=3 n=32 v=87
32380 On ch=3 n=30 v=0
32389 On ch=3 n=32 v=0
32430 On ch=3 n=32 v=82
32485 On ch=3 n=32 v=0
32489 On ch=3 n=30 v=63
32518 On ch=3 n=32 v=93
32521 On ch=3 n=30 v=0
32575 On ch=3 n=32 v=0
32578 On ch=3 n=34 v=90
32624 On ch=3 n=34 v=0
32641 On ch=3 n=32 v=78
32661 On ch=3 n=32 v=0
32701 On ch=3 n=32 v=82
32722 On ch=3 n=32 v=0
32761 On ch=3 n=32 v=93
32816 On ch=3 n=32 v=0
32821 On ch=3 n=30 v=65
32851 On ch=3 n=32 v=90
32852 On ch=3 n=30 v=0
32872 On ch=3 n=32 v=0
32911 On ch=3 n=32 v=87
32967 On ch=3 n=32 v=0
32970 On ch=3 n=30 v=67
32999 On ch=3 n=32 v=87
33000 On ch=3 n=30 v=0
33059 On ch=3 n=34 v=73
33060 On ch=3 n=32 v=0
33120 On ch=3 n=32 v=78
33124 On ch=3 n=34 v=0
33142 On ch=3 n=32 v=0
33179 On ch=3 n=32 v=82
33201 On ch=3 n=32 v=0
33239 On ch=3 n=32 v=93
33300 On ch=3 n=32 v=0
33301 On ch=3 n=30 v=68
33331 On ch=3 n=30 v=0
33331 On ch=3 n=32 v=78
33353 On ch=3 n=32 v=0
33391 On ch=3 n=32 v=87
33443 On ch=3 n=32 v=0
33451 On ch=3 n=30 v=60
33480 On ch=3 n=30 v=0
33481 On ch=3 n=32 v=82
33539 On ch=3 n=32 v=0
33541 On ch=3 n=34 v=73
33601 On ch=3 n=32 v=80
33605 On ch=3 n=34 v=0
33623 On ch=3 n=32 v=0
33659 On ch=3 n=32 v=85
33685 On ch=3 n=32 v=0
33721 On ch=3 n=32 v=90
33781 On ch=3 n=30 v=68
33783 On ch=3 n=32 v=0
33811 On ch=3 n=32 v=85
33812 On ch=3 n=30 v=0
33833 On ch=3 n=32 v=0
33871 On ch=3 n=32 v=93
33926 On ch=3 n=32 v=0
33931 On ch=3 n=30 v=70
33961 On ch=3 n=30 v=0
33961 On ch=3 n=32 v=78
34020 On ch=3 n=32 v=0
34021 On ch=3 n=34 v=76
34081 On ch=3 n=32 v=85
34086 On ch=3 n=34 v=0
34104 On ch=3 n=32 v=0
34139 On ch=3 n=32 v=66
34164 On ch=3 n=32 v=0
34200 On ch=3 n=32 v=96
34258 On ch=3 n=32 v=0
34261 On ch=3 n=30 v=63
34291 On ch=3 n=32 v=85
34292 On ch=3 n=30 v=0
34311 On ch=3 n=32 v=0
34351 On ch=3 n=32 v=90
34403 On ch=3 n=32 v=0
34410 On ch=3 n=30 v=68
34438 On ch=3 n=30 v=0
34439 On ch=3 n=32 v=85
34495 On ch=3 n=32 v=0
34499 On ch=3 n=34 v=73
34559 On ch=3 n=32 v=80
34564 On ch=3 n=34 v=0
34585 On ch=3 n=32 v=0
34621 On ch=3 n=32 v=87
34643 On ch=3 n=32 v=0
34681 On ch=3 n=32 v=93
34741 On ch=3 n=32 v=0
34741 On ch=3 n=30 v=66
34771 On ch=3 n=32 v=82
34776 On ch=3 n=30 v=0
34792 On ch=3 n=32 v=0
34831 On ch=3 n=32 v=100
34883 On ch=3 n=32 v=0
34891 On ch=3 n=30 v=65
34919 On ch=3 n=30 v=0
34921 On ch=3 n=32 v=82
34980 On ch=3 n=32 v=0
34980 On ch=3 n=34 v=78
35041 On ch=3 n=32 v=85
35045 On ch=3 n=34 v=0
35063 On ch=3 n=32 v=0
35099 On ch=3 n=32 v=90
35121 On ch=3 n=32 v=0
35160 On ch=3 n=32 v=96
35220 On ch=3 n=32 v=0
35221 On ch=3 n=30 v=76
35251 On ch=3 n=30 v=0
35251 On ch=3 n=32 v=87
35273 On ch=3 n=32 v=0
35311 On ch=3 n=32 v=100
35366 On ch=3 n=32 v=0
35371 On ch=3 n=30 v=68
35399 On ch=3 n=30 v=0
35401 On ch=3 n=32 v=87
35456 On ch=3 n=32 v=0
35461 On ch=3 n=34 v=82
35516 On ch=3 n=34 v=0
35521 On ch=3 n=32 v=90
35539 On ch=3 n=32 v=0
35581 On ch=3 n=32 v=96
35604 On ch=3 n=32 v=0
35641 On ch=3 n=32 v=100
35697 On ch=3 n=32 v=0
35701 On ch=3 n=30 v=71
35731 On ch=3 n=32 v=87
35732 On ch=3 n=30 v=0
35751 On ch=3 n=32 v=0
35791 On ch=3 n=32 v=96
35841 On ch=3 n=32 v=0
35849 On ch=3 n=30 v=75
35879 On ch=3 n=32 v=90
35884 On ch=3 n=30 v=0
35934 On ch=3 n=32 v=0
35939 On ch=3 n=34 v=82
35999 On ch=3 n=32 v=82
36001 On ch=3 n=34 v=0
36019 On ch=3 n=32 v=0
36061 On ch=3 n=32 v=96
36080 On ch=3 n=32 v=0
36121 On ch=3 n=32 v=100
36180 On ch=3 n=32 v=0
36181 On ch=3 n=30 v=70
36209 On ch=3 n=30 v=0
36211 On ch=3 n=32 v=82
36237 On ch=3 n=32 v=0
36271 On ch=3 n=32 v=100
36323 On ch=3 n=32 v=0
36331 On ch=3 n=30 v=73
36360 On ch=3 n=32 v=78
36361 On ch=3 n=30 v=0
36417 On ch=3 n=32 v=0
36420 On ch=3 n=34 v=82
36479 On ch=3 n=32 v=87
36482 On ch=3 n=34 v=0
36504 On ch=3 n=32 v=0
36541 On ch=3 n=32 v=100
36559 On ch=3 n=32 v=0
36601 On ch=3 n=32 v=104
36659 On ch=3 n=32 v=0
36661 On ch=3 n=30 v=75
36691 On ch=3 n=32 v=90
36697 On ch=3 n=30 v=0
36717 On ch=3 n=32 v=0
36751 On ch=3 n=32 v=104
36803 On ch=3 n=32 v=0
36811 On ch=3 n=30 v=71
36839 On ch=3 n=30 v=0
36841 On ch=3 n=32 v=82
36896 On ch=3 n=32 v=0
36901 On ch=3 n=34 v=87
36956 On ch=3 n=34 v=0
36961 On ch=3 n=32 v=93
36980 On ch=3 n=32 v=0
37021 On ch=3 n=32 v=93
37039 On ch=3 n=32 v=0
37081 On ch=3 n=32 v=104
37133 On ch=3 n=32 v=0
37141 On ch=3 n=30 v=78
37169 On ch=3 n=30 v=0
37170 On ch=3 n=32 v=78
37188 On ch=3 n=32 v=0
37231 On ch=3 n=32 v=100
37280 On ch=3 n=32 v=0
37291 On ch=3 n=30 v=73
37319 On ch=3 n=30 v=0
37320 On ch=3 n=32 v=87
37375 On ch=3 n=32 v=0
37379 On ch=3 n=34 v=80
37437 On ch=3 n=34 v=0
37440 On ch=3 n=32 v=90
37462 On ch=3 n=32 v=0
37500 On ch=3 n=32 v=100
37519 On ch=3 n=32 v=0
37561 On ch=3 n=32 v=104
37617 On ch=3 n=32 v=0
37620 On ch=3 n=30 v=71
37651 On ch=3 n=32 v=82
37652 On ch=3 n=30 v=0
37672 On ch=3 n=32 v=0
37711 On ch=3 n=32 v=104
37764 On ch=3 n=32 v=0
37770 On ch=3 n=30 v=76
37798 On ch=3 n=30 v=0
37799 On ch=3 n=32 v=80
37857 On ch=3 n=32 v=0
37859 On ch=3 n=34 v=82
37917 On ch=3 n=34 v=0
37919 On ch=3 n=32 v=90
37944 On ch=3 n=32 v=0
37979 On ch=3 n=32 v=93
37997 On ch=3 n=32 v=0
38041 On ch=3 n=32 v=104
38097 On ch=3 n=32 v=0
38100 On ch=3 n=30 v=82
38128 On ch=3 n=30 v=0
38131 On ch=3 n=32 v=76
38153 On ch=3 n=32 v=0
38191 On ch=3 n=32 v=100
38240 On ch=3 n=32 v=0
38250 On ch=3 n=30 v=78
38281 On ch=3 n=30 v=0
38281 On ch=3 n=32 v=93
38336 On ch=3 n=32 v=0
38340 On ch=3 n=34 v=80
38395 On ch=3 n=34 v=0
38401 On ch=3 n=32 v=90
38419 On ch=3 n=32 v=0
38461 On ch=3 n=32 v=93
38480 On ch=3 n=32 v=0
38521 On ch=3 n=32 v=104
38581 On ch=3 n=30 v=80
38582 On ch=3 n=32 v=0
38609 On ch=3 n=30 v=0
38611 On ch=3 n=32 v=75
38637 On ch=3 n=32 v=0
38671 On ch=3 n=32 v=100
38720 On ch=3 n=32 v=0
38731 On ch=3 n=30 v=87
38760 On ch=3 n=32 v=87
38762 On ch=3 n=30 v=0
38815 On ch=3 n=32 v=0
38821 On ch=3 n=34 v=80
38877 On ch=3 n=34 v=0
38880 On ch=3 n=32 v=87
38899 On ch=3 n=32 v=0
38941 On ch=3 n=32 v=96
38959 On ch=3 n=32 v=0
39000 On ch=3 n=32 v=104
39055 On ch=3 n=32 v=0
39059 On ch=3 n=30 v=85
39091 On ch=3 n=32 v=93
39096 On ch=3 n=30 v=0
39113 On ch=3 n=32 v=0
39151 On ch=3 n=32 v=96
39200 On ch=3 n=32 v=0
39211 On ch=3 n=30 v=80
39241 On ch=3 n=32 v=93
39242 On ch=3 n=30 v=0
39297 On ch=3 n=32 v=0
39301 On ch=3 n=34 v=85
39357 On ch=3 n=34 v=0
39361 On ch=3 n=32 v=96
39383 On ch=3 n=32 v=0
39421 On ch=3 n=32 v=90
39439 On ch=3 n=32 v=0
39481 On ch=3 n=32 v=100
39533 On ch=3 n=32 v=0
39541 On ch=3 n=30 v=75
39569 On ch=3 n=30 v=0
39571 On ch=3 n=32 v=80
39593 On ch=3 n=32 v=0
39631 On ch=3 n=32 v=96
39680 On ch=3 n=32 v=0
39689 On ch=3 n=30 v=80
39716 On ch=3 n=30 v=0
39719 On ch=3 n=32 v=87
39773 On ch=3 n=32 v=0
39779 On ch=3 n=34 v=82
39835 On ch=3 n=34 v=0
39839 On ch=3 n=32 v=93
39858 On ch=3 n=32 v=0
39899 On ch=3 n=32 v=100
39918 On ch=3 n=32 v=0
39961 On ch=3 n=32 v=104
40014 On ch=3 n=32 v=0
40019 On ch=3 n=30 v=82
40051 On ch=3 n=32 v=96
40053 On ch=3 n=30 v=0
40072 On ch=3 n=32 v=0
40111 On ch=3 n=32 v=96
40163 On ch=3 n=32 v=0
40171 On ch=3 n=30 v=87
40201 On ch=3 n=32 v=90
40208 On ch=3 n=30 v=0
40254 On ch=3 n=32 v=0
40261 On ch=3 n=34 v=87
40317 On ch=3 n=34 v=0
40321 On ch=3 n=32 v=93
40343 On ch=3 n=32 v=0
40379 On ch=3 n=32 v=96
40401 On ch=3 n=32 v=0
40440 On ch=3 n=32 v=104
40493 On ch=3 n=32 v=0
40500 On ch=3 n=30 v=82
40531 On ch=3 n=32 v=90
40540 On ch=3 n=30 v=0
40556 On ch=3 n=32 v=0
40591 On ch=3 n=32 v=100
40641 On ch=3 n=32 v=0
40651 On ch=3 n=30 v=87
40681 On ch=3 n=32 v=90
40688 On ch=3 n=30 v=0
40740 On ch=3 n=32 v=0
40741 On ch=3 n=34 v=78
40797 On ch=3 n=34 v=0
40801 On ch=3 n=32 v=96
40819 On ch=3 n=32 v=0
40861 On ch=3 n=32 v=100
40880 On ch=3 n=32 v=0
40921 On ch=3 n=32 v=108
40967 On ch=3 n=32 v=0
40980 On ch=3 n=30 v=73
41011 On ch=3 n=32 v=87
41013 On ch=3 n=30 v=0
41033 On ch=3 n=32 v=0
41071 On ch=3 n=32 v=100
41120 On ch=3 n=32 v=0
41131 On ch=3 n=30 v=82
41160 On ch=3 n=32 v=76
41162 On ch=3 n=30 v=0
41212 On ch=3 n=32 v=0
41219 On ch=3 n=34 v=85
41250 On ch=3 n=34 v=0
41279 On ch=3 n=32 v=90
41281 On ch=3 n=33 v=82
41298 On ch=3 n=33 v=0
41298 On ch=3 n=32 v=0
41339 On ch=3 n=32 v=90
41355 On ch=3 n=32 v=0
41399 On ch=3 n=32 v=104
41457 On ch=3 n=32 v=0
41459 On ch=3 n=30 v=71
41489 On ch=3 n=32 v=93
41491 On ch=3 n=30 v=0
41510 On ch=3 n=32 v=0
41550 On ch=3 n=32 v=104
41605 On ch=3 n=32 v=0
41611 On ch=3 n=30 v=75
41639 On ch=3 n=32 v=78
41642 On ch=3 n=30 v=0
41700 On ch=3 n=34 v=78
41701 On ch=3 n=32 v=0
41757 On ch=3 n=34 v=0
41760 On ch=3 n=32 v=87
41779 On ch=3 n=32 v=0
41820 On ch=3 n=32 v=96
41842 On ch=3 n=32 v=0
41881 On ch=3 n=32 v=104
41939 On ch=3 n=32 v=0
41941 On ch=3 n=30 v=70
41971 On ch=3 n=32 v=93
41975 On ch=3 n=30 v=0
41994 On ch=3 n=32 v=0
42031 On ch=3 n=32 v=100
42086 On ch=3 n=32 v=0
42091 On ch=3 n=30 v=75
42121 On ch=3 n=32 v=82
42122 On ch=3 n=30 v=0
42177 On ch=3 n=32 v=0
42181 On ch=3 n=34 v=78
42239 On ch=3 n=34 v=0
42241 On ch=3 n=32 v=82
42260 On ch=3 n=32 v=0
42299 On ch=3 n=32 v=75
42321 On ch=3 n=32 v=0
42361 On ch=3 n=32 v=104
42419 On ch=3 n=32 v=0
42421 On ch=3 n=30 v=73
42446 On ch=3 n=30 v=0
42451 On ch=3 n=32 v=75
42476 On ch=3 n=32 v=0
42511 On ch=3 n=32 v=100
42567 On ch=3 n=32 v=0
42571 On ch=3 n=30 v=76
42601 On ch=3 n=32 v=82
42602 On ch=3 n=30 v=0
42660 On ch=3 n=32 v=0
42661 On ch=3 n=34 v=80
42712 On ch=3 n=34 v=0
42721 On ch=3 n=32 v=78
42739 On ch=3 n=32 v=0
42779 On ch=3 n=32 v=100
42801 On ch=3 n=32 v=0
42841 On ch=3 n=32 v=104
42896 On ch=3 n=32 v=0
42900 On ch=3 n=30 v=75
42930 On ch=3 n=30 v=0
42930 On ch=3 n=32 v=90
42953 On ch=3 n=32 v=0
42991 On ch=3 n=32 v=96
43044 On ch=3 n=32 v=0
43051 On ch=3 n=30 v=78
43080 On ch=3 n=32 v=82
43086 On ch=3 n=30 v=0
43136 On ch=3 n=32 v=0
43141 On ch=3 n=34 v=80
43199 On ch=3 n=34 v=0
43201 On ch=3 n=32 v=85
43221 On ch=3 n=32 v=0
43261 On ch=3 n=32 v=100
43280 On ch=3 n=32 v=0
43321 On ch=3 n=32 v=108
43377 On ch=3 n=32 v=0
43381 On ch=3 n=30 v=67
43411 On ch=3 n=32 v=85
43415 On ch=3 n=30 v=0
43432 On ch=3 n=32 v=0
43471 On ch=3 n=32 v=100
43526 On ch=3 n=32 v=0
43531 On ch=3 n=30 v=80
43561 On ch=3 n=32 v=82
43568 On ch=3 n=30 v=0
43616 On ch=3 n=32 v=0
43621 On ch=3 n=34 v=82
43673 On ch=3 n=34 v=0
43681 On ch=3 n=32 v=87
43699 On ch=3 n=32 v=0
43740 On ch=3 n=32 v=100
43762 On ch=3 n=32 v=0
43801 On ch=3 n=32 v=108
43855 On ch=3 n=32 v=0
43860 On ch=3 n=30 v=71
43891 On ch=3 n=32 v=96
43895 On ch=3 n=30 v=0
43915 On ch=3 n=32 v=0
43951 On ch=3 n=32 v=100
44003 On ch=3 n=32 v=0
44011 On ch=3 n=30 v=80
44041 On ch=3 n=32 v=87
44044 On ch=3 n=30 v=0
44101 On ch=3 n=34 v=80
44103 On ch=3 n=32 v=0
44161 On ch=3 n=32 v=87
44162 On ch=3 n=34 v=0
44182 On ch=3 n=32 v=0
44221 On ch=3 n=32 v=93
44239 On ch=3 n=32 v=0
44281 On ch=3 n=32 v=104
44336 On ch=3 n=32 v=0
44341 On ch=3 n=30 v=80
44371 On ch=3 n=32 v=87
44376 On ch=3 n=30 v=0
44393 On ch=3 n=32 v=0
44431 On ch=3 n=32 v=104
44486 On ch=3 n=32 v=0
44491 On ch=3 n=30 v=80
44521 On ch=3 n=32 v=90
44525 On ch=3 n=30 v=0
44546 On ch=3 n=32 v=0
44581 On ch=3 n=34 v=90
44611 On ch=3 n=34 v=0
44641 On ch=3 n=32 v=80
44666 On ch=3 n=32 v=0
44701 On ch=3 n=32 v=100
44723 On ch=3 n=32 v=0
44761 On ch=3 n=32 v=108
44810 On ch=3 n=32 v=0
44821 On ch=3 n=30 v=80
44848 On ch=3 n=30 v=0
44851 On ch=3 n=32 v=80
44872 On ch=3 n=32 v=0
44911 On ch=3 n=32 v=100
44964 On ch=3 n=32 v=0
44971 On ch=3 n=30 v=76
45000 On ch=3 n=32 v=90
45002 On ch=3 n=30 v=0
45056 On ch=3 n=32 v=0
45061 On ch=3 n=34 v=87
45113 On ch=3 n=34 v=0
45121 On ch=3 n=32 v=85
45139 On ch=3 n=32 v=0
45179 On ch=3 n=32 v=100
45202 On ch=3 n=32 v=0
45240 On ch=3 n=32 v=108
45293 On ch=3 n=32 v=0
45299 On ch=3 n=30 v=75
45329 On ch=3 n=30 v=0
45330 On ch=3 n=32 v=90
45353 On ch=3 n=32 v=0
45390 On ch=3 n=32 v=100
45445 On ch=3 n=32 v=0
45449 On ch=3 n=30 v=80
45479 On ch=3 n=32 v=87
45483 On ch=3 n=30 v=0
45539 On ch=3 n=34 v=82
45544 On ch=3 n=32 v=0
45592 On ch=3 n=34 v=0
45601 On ch=3 n=32 v=90
45616 On ch=3 n=32 v=0
45660 On ch=3 n=32 v=93
45679 On ch=3 n=32 v=0
45721 On ch=3 n=32 v=108
45777 On ch=3 n=32 v=0
45779 On ch=3 n=30 v=67
45811 On ch=3 n=32 v=96
45813 On ch=3 n=30 v=0
45833 On ch=3 n=32 v=0
45871 On ch=3 n=32 v=96
45927 On ch=3 n=32 v=0
45931 On ch=3 n=30 v=82
45961 On ch=3 n=32 v=85
45965 On ch=3 n=30 v=0
46013 On ch=3 n=32 v=0
46021 On ch=3 n=34 v=82
46080 On ch=3 n=34 v=0
46081 On ch=3 n=32 v=80
46100 On ch=3 n=32 v=0
46141 On ch=3 n=32 v=100
46163 On ch=3 n=32 v=0
46201 On ch=3 n=32 v=104
46250 On ch=3 n=32 v=0
46259 On ch=3 n=30 v=78
46291 On ch=3 n=32 v=93
46292 On ch=3 n=30 v=0
46315 On ch=3 n=32 v=0
46351 On ch=3 n=32 v=100
46406 On ch=3 n=32 v=0
46411 On ch=3 n=30 v=82
46441 On ch=3 n=32 v=85
46446 On ch=3 n=30 v=0
46497 On ch=3 n=32 v=0
46501 On ch=3 n=34 v=85
46559 On ch=3 n=34 v=0
46561 On ch=3 n=32 v=87
46580 On ch=3 n=32 v=0
46621 On ch=3 n=32 v=100
46640 On ch=3 n=32 v=0
46681 On ch=3 n=32 v=108
46733 On ch=3 n=32 v=0
46739 On ch=3 n=30 v=76
46767 On ch=3 n=30 v=0
46771 On ch=3 n=32 v=87
46793 On ch=3 n=32 v=0
46831 On ch=3 n=32 v=96
46891 On ch=3 n=30 v=90
46892 On ch=3 n=32 v=0
46921 On ch=3 n=30 v=0
46921 On ch=3 n=32 v=85
46952 On ch=3 n=32 v=0
46981 On ch=3 n=34 v=75
47013 On ch=3 n=34 v=0
47041 On ch=3 n=32 v=96
47063 On ch=3 n=32 v=0
47101 On ch=3 n=32 v=96
47121 On ch=3 n=32 v=0
47161 On ch=3 n=32 v=104
47210 On ch=3 n=32 v=0
47219 On ch=3 n=30 v=63
47250 On ch=3 n=32 v=93
47252 On ch=3 n=30 v=0
47275 On ch=3 n=32 v=0
47311 On ch=3 n=32 v=96
47365 On ch=3 n=32 v=0
47371 On ch=3 n=30 v=82
47401 On ch=3 n=32 v=87
47405 On ch=3 n=30 v=0
47429 On ch=3 n=32 v=0
47461 On ch=3 n=34 v=76
47461 On ch=3 n=35 v=82
47483 On ch=3 n=35 v=0
47483 On ch=3 n=34 v=0
47521 On ch=3 n=32 v=73
47552 On ch=3 n=32 v=0
47581 On ch=3 n=32 v=96
47603 On ch=3 n=32 v=0
47641 On ch=3 n=32 v=108
47687 On ch=3 n=32 v=0
47699 On ch=3 n=30 v=82
47728 On ch=3 n=30 v=0
47729 On ch=3 n=32 v=93
47779 On ch=3 n=32 v=0
47779 Meta TrkEnd
TrkEnd
MTrk
0 Meta 0x21 00
0 Meta TrkName "Hi Hat"
0 Par ch=10 c=0 v=0
0 Par ch=10 c=32 v=0
481 On ch=10 n=42 v=104
502 On ch=10 n=42 v=0
540 On ch=10 n=42 v=93
556 On ch=10 n=42 v=0
599 On ch=10 n=42 v=96
616 On ch=10 n=42 v=0
659 On ch=10 n=42 v=96
675 On ch=10 n=42 v=0
719 On ch=10 n=42 v=85
736 On ch=10 n=42 v=0
778 On ch=10 n=42 v=93
797 On ch=10 n=42 v=0
838 On ch=10 n=42 v=87
858 On ch=10 n=42 v=0
899 On ch=10 n=42 v=104
917 On ch=10 n=42 v=0
958 On ch=10 n=42 v=59
971 On ch=10 n=42 v=0
1022 On ch=10 n=42 v=104
1038 On ch=10 n=42 v=0
1079 On ch=10 n=42 v=68
1096 On ch=10 n=42 v=0
1140 On ch=10 n=42 v=108
1165 On ch=10 n=42 v=0
1202 On ch=10 n=42 v=68
1213 On ch=10 n=42 v=0
1261 On ch=10 n=42 v=104
1283 On ch=10 n=42 v=0
1320 On ch=10 n=42 v=61
1331 On ch=10 n=42 v=0
1379 On ch=10 n=42 v=100
1397 On ch=10 n=42 v=0
1440 On ch=10 n=42 v=80
1454 On ch=10 n=42 v=0
1502 On ch=10 n=42 v=96
1515 On ch=10 n=42 v=0
1560 On ch=10 n=42 v=75
1577 On ch=10 n=42 v=0
1620 On ch=10 n=42 v=96
1637 On ch=10 n=42 v=0
1679 On ch=10 n=42 v=71
1693 On ch=10 n=42 v=0
1738 On ch=10 n=42 v=96
1755 On ch=10 n=42 v=0
1798 On ch=10 n=42 v=73
1810 On ch=10 n=42 v=0
1859 On ch=10 n=42 v=96
1875 On ch=10 n=42 v=0
1919 On ch=10 n=42 v=71
1930 On ch=10 n=42 v=0
1980 On ch=10 n=42 v=96
1997 On ch=10 n=42 v=0
2039 On ch=10 n=42 v=68
2055 On ch=10 n=42 v=0
2100 On ch=10 n=42 v=90
2120 On ch=10 n=42 v=0
2159 On ch=10 n=42 v=67
2171 On ch=10 n=42 v=0
2219 On ch=10 n=42 v=87
2239 On ch=10 n=42 v=0
2279 On ch=10 n=42 v=73
2297 On ch=10 n=42 v=0
2339 On ch=10 n=42 v=87
2360 On ch=10 n=42 v=0
2400 On ch=10 n=42 v=66
2415 On ch=10 n=42 v=0
2459 On ch=10 n=42 v=93
2478 On ch=10 n=42 v=0
2519 On ch=10 n=42 v=78
2534 On ch=10 n=42 v=0
2579 On ch=10 n=42 v=93
2600 On ch=10 n=42 v=0
2641 On ch=10 n=42 v=76
2653 On ch=10 n=42 v=0
2701 On ch=10 n=42 v=100
2719 On ch=10 n=42 v=0
2759 On ch=10 n=42 v=75
2773 On ch=10 n=42 v=0
2819 On ch=10 n=42 v=100
2839 On ch=10 n=42 v=0
2880 On ch=10 n=42 v=76
2886 On ch=10 n=42 v=0
2939 On ch=10 n=42 v=96
2958 On ch=10 n=42 v=0
3000 On ch=10 n=42 v=75
3014 On ch=10 n=42 v=0
3060 On ch=10 n=42 v=104
3083 On ch=10 n=42 v=0
3121 On ch=10 n=42 v=65
3134 On ch=10 n=42 v=0
3181 On ch=10 n=42 v=100
3200 On ch=10 n=42 v=0
3239 On ch=10 n=42 v=80
3254 On ch=10 n=42 v=0
3299 On ch=10 n=42 v=104
3319 On ch=10 n=42 v=0
3359 On ch=10 n=42 v=82
3376 On ch=10 n=42 v=0
3422 On ch=10 n=42 v=96
3439 On ch=10 n=42 v=0
3480 On ch=10 n=42 v=90
3501 On ch=10 n=42 v=0
3540 On ch=10 n=42 v=93
3561 On ch=10 n=42 v=0
3601 On ch=10 n=42 v=68
3610 On ch=10 n=42 v=0
3659 On ch=10 n=42 v=96
3678 On ch=10 n=42 v=0
3719 On ch=10 n=42 v=70
3729 On ch=10 n=42 v=0
3780 On ch=10 n=42 v=96
3796 On ch=10 n=42 v=0
3840 On ch=10 n=42 v=108
3856 On ch=10 n=42 v=0
4443 On ch=10 n=42 v=108
4468 On ch=10 n=42 v=0
4503 On ch=10 n=42 v=67
4513 On ch=10 n=42 v=0
4563 On ch=10 n=42 v=80
4575 On ch=10 n=42 v=0
4624 On ch=10 n=42 v=82
4637 On ch=10 n=42 v=0
4684 On ch=10 n=42 v=100
4735 On ch=10 n=42 v=0
4740 On ch=10 n=44 v=96
4804 On ch=10 n=42 v=96
4815 On ch=10 n=44 v=0
4824 On ch=10 n=42 v=0
4922 On ch=10 n=42 v=104
4971 On ch=10 n=42 v=0
4983 On ch=10 n=44 v=30
5041 On ch=10 n=44 v=0
5041 On ch=10 n=42 v=90
5098 On ch=10 n=44 v=63
5099 On ch=10 n=42 v=0
5160 On ch=10 n=42 v=113
5163 On ch=10 n=44 v=0
5218 On ch=10 n=42 v=0
5219 On ch=10 n=44 v=78
5244 On ch=10 n=44 v=0
5280 On ch=10 n=42 v=108
5324 On ch=10 n=42 v=0
5402 On ch=10 n=42 v=108
5445 On ch=10 n=42 v=0
5522 On ch=10 n=42 v=87
5523 On ch=10 n=44 v=65
5535 On ch=10 n=44 v=0
5545 On ch=10 n=42 v=0
5642 On ch=10 n=42 v=96
5644 On ch=10 n=44 v=78
5659 On ch=10 n=44 v=0
5663 On ch=10 n=42 v=0
5763 On ch=10 n=42 v=104
5763 On ch=10 n=44 v=80
5769 On ch=10 n=44 v=0
5775 On ch=10 n=42 v=0
5823 On ch=10 n=42 v=57
5841 On ch=10 n=42 v=0
5880 On ch=10 n=44 v=80
5914 On ch=10 n=44 v=0
5943 On ch=10 n=42 v=58
5955 On ch=10 n=42 v=0
5999 On ch=10 n=42 v=80
5999 On ch=10 n=44 v=90
6015 On ch=10 n=42 v=0
6019 On ch=10 n=44 v=0
6058 On ch=10 n=42 v=48
6070 On ch=10 n=42 v=0
6121 On ch=10 n=42 v=87
6121 On ch=10 n=44 v=87
6135 On ch=10 n=42 v=0
6139 On ch=10 n=44 v=0
6180 On ch=10 n=42 v=66
6192 On ch=10 n=42 v=0
6240 On ch=10 n=42 v=96
6255 On ch=10 n=42 v=0
6300 On ch=10 n=42 v=78
6314 On ch=10 n=42 v=0
6361 On ch=10 n=42 v=104
6435 On ch=10 n=42 v=0
6480 On ch=10 n=42 v=96
6550 On ch=10 n=42 v=0
6600 On ch=10 n=42 v=104
6674 On ch=10 n=42 v=0
6722 On ch=10 n=42 v=100
6782 On ch=10 n=42 v=0
6843 On ch=10 n=42 v=108
6903 On ch=10 n=42 v=0
6960 On ch=10 n=42 v=108
7025 On ch=10 n=42 v=0
7078 On ch=10 n=42 v=108
7146 On ch=10 n=42 v=0
7200 On ch=10 n=42 v=104
7264 On ch=10 n=42 v=0
7321 On ch=10 n=42 v=108
7384 On ch=10 n=42 v=0
7440 On ch=10 n=42 v=93
7503 On ch=10 n=42 v=0
7560 On ch=10 n=42 v=100
7614 On ch=10 n=42 v=0
7680 On ch=10 n=42 v=93
7745 On ch=10 n=42 v=0
7802 On ch=10 n=42 v=104
7804 On ch=10 n=44 v=78
7810 On ch=10 n=44 v=0
7831 On ch=10 n=42 v=0
7924 On ch=10 n=42 v=100
7992 On ch=10 n=42 v=0
8044 On ch=10 n=46 v=104
8102 On ch=10 n=46 v=0
8103 On ch=10 n=42 v=78
8119 On ch=10 n=42 v=0
8162 On ch=10 n=42 v=80
8192 On ch=10 n=42 v=0
8222 On ch=10 n=42 v=28
8230 On ch=10 n=42 v=0
8284 On ch=10 n=42 v=104
8285 On ch=10 n=44 v=53
8292 On ch=10 n=44 v=0
8321 On ch=10 n=42 v=0
8402 On ch=10 n=42 v=96
8473 On ch=10 n=42 v=0
8520 On ch=10 n=42 v=104
8593 On ch=10 n=42 v=0
8642 On ch=10 n=42 v=100
8659 On ch=10 n=42 v=0
8762 On ch=10 n=42 v=113
8764 On ch=10 n=44 v=78
8768 On ch=10 n=44 v=0
8778 On ch=10 n=42 v=0
8883 On ch=10 n=42 v=93
8900 On ch=10 n=42 v=0
8997 On ch=10 n=42 v=100
9013 On ch=10 n=42 v=0
9120 On ch=10 n=42 v=93
9260 On ch=10 n=42 v=0
9303 On ch=10 n=42 v=82
9460 On ch=10 n=42 v=0
9483 On ch=10 n=42 v=87
9518 On ch=10 n=42 v=0
9602 On ch=10 n=42 v=87
9674 On ch=10 n=42 v=0
9724 On ch=10 n=42 v=75
9788 On ch=10 n=42 v=0
9844 On ch=10 n=42 v=85
9860 On ch=10 n=42 v=0
9962 On ch=10 n=42 v=80
9984 On ch=10 n=42 v=0
10082 On ch=10 n=42 v=80
10133 On ch=10 n=42 v=0
10202 On ch=10 n=42 v=71
10228 On ch=10 n=42 v=0
10322 On ch=10 n=42 v=100
10386 On ch=10 n=42 v=0
10442 On ch=10 n=42 v=96
10469 On ch=10 n=42 v=0
10561 On ch=10 n=42 v=85
10598 On ch=10 n=42 v=0
10681 On ch=10 n=42 v=93
10700 On ch=10 n=42 v=0
10742 On ch=10 n=42 v=50
10754 On ch=10 n=42 v=0
10802 On ch=10 n=42 v=40
10829 On ch=10 n=42 v=0
10861 On ch=10 n=42 v=54
10877 On ch=10 n=42 v=0
10924 On ch=10 n=42 v=93
10941 On ch=10 n=42 v=0
10982 On ch=10 n=42 v=70
10994 On ch=10 n=42 v=0
11041 On ch=10 n=42 v=100
11123 On ch=10 n=42 v=0
11163 On ch=10 n=42 v=87
11240 On ch=10 n=42 v=0
11284 On ch=10 n=42 v=93
11354 On ch=10 n=42 v=0
11402 On ch=10 n=42 v=104
11474 On ch=10 n=42 v=0
11520 On ch=10 n=42 v=93
11606 On ch=10 n=42 v=0
11642 On ch=10 n=42 v=85
11712 On ch=10 n=42 v=0
11762 On ch=10 n=42 v=80
11833 On ch=10 n=42 v=0
11883 On ch=10 n=42 v=93
11884 On ch=10 n=44 v=48
11886 On ch=10 n=44 v=0
11923 On ch=10 n=42 v=0
11945 On ch=10 n=42 v=62
11961 On ch=10 n=42 v=0
12004 On ch=10 n=44 v=70
12005 On ch=10 n=42 v=56
12011 On ch=10 n=42 v=0
12021 On ch=10 n=44 v=0
12062 On ch=10 n=42 v=58
12081 On ch=10 n=42 v=0
12122 On ch=10 n=42 v=82
12122 On ch=10 n=44 v=56
12132 On ch=10 n=44 v=0
12158 On ch=10 n=42 v=0
12180 On ch=10 n=42 v=51
12201 On ch=10 n=42 v=0
12240 On ch=10 n=42 v=80
12241 On ch=10 n=44 v=57
12272 On ch=10 n=42 v=0
12276 On ch=10 n=44 v=0
12301 On ch=10 n=42 v=46
12319 On ch=10 n=42 v=0
12360 On ch=10 n=42 v=73
12360 On ch=10 n=44 v=73
12402 On ch=10 n=42 v=0
12405 On ch=10 n=44 v=0
12419 On ch=10 n=42 v=48
12447 On ch=10 n=42 v=0
12481 On ch=10 n=42 v=75
12481 On ch=10 n=44 v=73
12527 On ch=10 n=44 v=0
12527 On ch=10 n=42 v=0
12537 On ch=10 n=42 v=32
12566 On ch=10 n=42 v=0
12600 On ch=10 n=42 v=80
12600 On ch=10 n=44 v=75
12636 On ch=10 n=42 v=0
12653 On ch=10 n=44 v=0
12661 On ch=10 n=42 v=55
12682 On ch=10 n=42 v=0
12720 On ch=10 n=42 v=100
12720 On ch=10 n=44 v=90
12765 On ch=10 n=42 v=0
12767 On ch=10 n=44 v=0
12780 On ch=10 n=42 v=53
12806 On ch=10 n=42 v=0
12840 On ch=10 n=42 v=108
12840 On ch=10 n=44 v=104
12887 On ch=10 n=42 v=0
12896 On ch=10 n=44 v=0
12900 On ch=10 n=42 v=51
12916 On ch=10 n=42 v=0
12962 On ch=10 n=42 v=87
13028 On ch=10 n=42 v=0
13080 On ch=10 n=42 v=100
13160 On ch=10 n=42 v=0
13202 On ch=10 n=42 v=82
13264 On ch=10 n=42 v=0
13318 On ch=10 n=42 v=96
13390 On ch=10 n=42 v=0
13440 On ch=10 n=42 v=104
13508 On ch=10 n=42 v=0
13562 On ch=10 n=42 v=93
13627 On ch=10 n=42 v=0
13679 On ch=10 n=42 v=90
13744 On ch=10 n=42 v=0
13797 On ch=10 n=42 v=104
13831 On ch=10 n=42 v=0
13862 On ch=10 n=42 v=82
13870 On ch=10 n=42 v=0
13922 On ch=10 n=42 v=90
13932 On ch=10 n=42 v=0
13980 On ch=10 n=42 v=85
13997 On ch=10 n=42 v=0
14040 On ch=10 n=42 v=96
14060 On ch=10 n=42 v=0
14100 On ch=10 n=42 v=85
14120 On ch=10 n=42 v=0
14160 On ch=10 n=42 v=78
14177 On ch=10 n=42 v=0
14220 On ch=10 n=42 v=93
14239 On ch=10 n=42 v=0
14281 On ch=10 n=42 v=90
14299 On ch=10 n=42 v=0
14339 On ch=10 n=42 v=87
14354 On ch=10 n=42 v=0
14400 On ch=10 n=42 v=93
14415 On ch=10 n=42 v=0
14460 On ch=10 n=42 v=93
14475 On ch=10 n=42 v=0
14520 On ch=10 n=42 v=100
14537 On ch=10 n=42 v=0
14580 On ch=10 n=42 v=82
14595 On ch=10 n=42 v=0
14642 On ch=10 n=42 v=96
14654 On ch=10 n=42 v=0
14700 On ch=10 n=42 v=85
14710 On ch=10 n=42 v=0
14760 On ch=10 n=42 v=96
14776 On ch=10 n=42 v=0
14821 On ch=10 n=42 v=85
14833 On ch=10 n=42 v=0
14882 On ch=10 n=42 v=96
14897 On ch=10 n=42 v=0
14940 On ch=10 n=42 v=80
14953 On ch=10 n=42 v=0
15001 On ch=10 n=42 v=96
15018 On ch=10 n=42 v=0
15059 On ch=10 n=42 v=85
15072 On ch=10 n=42 v=0
15121 On ch=10 n=42 v=90
15137 On ch=10 n=42 v=0
15181 On ch=10 n=42 v=87
15198 On ch=10 n=42 v=0
15240 On ch=10 n=42 v=96
15260 On ch=10 n=42 v=0
15300 On ch=10 n=42 v=87
15316 On ch=10 n=42 v=0
15362 On ch=10 n=42 v=96
15374 On ch=10 n=42 v=0
15420 On ch=10 n=42 v=90
15436 On ch=10 n=42 v=0
15480 On ch=10 n=42 v=90
15499 On ch=10 n=42 v=0
15538 On ch=10 n=42 v=87
15557 On ch=10 n=42 v=0
15600 On ch=10 n=42 v=90
15621 On ch=10 n=42 v=0
15663 On ch=10 n=42 v=87
15678 On ch=10 n=42 v=0
15722 On ch=10 n=42 v=93
15738 On ch=10 n=42 v=0
15781 On ch=10 n=42 v=85
15797 On ch=10 n=42 v=0
15840 On ch=10 n=42 v=90
15859 On ch=10 n=42 v=0
15900 On ch=10 n=42 v=85
15916 On ch=10 n=42 v=0
15963 On ch=10 n=42 v=100
15976 On ch=10 n=42 v=0
16019 On ch=10 n=42 v=82
16035 On ch=10 n=42 v=0
16082 On ch=10 n=42 v=93
16100 On ch=10 n=42 v=0
16143 On ch=10 n=42 v=78
16155 On ch=10 n=42 v=0
16200 On ch=10 n=42 v=93
16221 On ch=10 n=42 v=0
16260 On ch=10 n=42 v=85
16278 On ch=10 n=42 v=0
16322 On ch=10 n=42 v=93
16339 On ch=10 n=42 v=0
16380 On ch=10 n=42 v=85
16397 On ch=10 n=42 v=0
16442 On ch=10 n=42 v=96
16460 On ch=10 n=42 v=0
16500 On ch=10 n=42 v=90
16515 On ch=10 n=42 v=0
16562 On ch=10 n=42 v=90
16581 On ch=10 n=42 v=0
16620 On ch=10 n=42 v=87
16635 On ch=10 n=42 v=0
16679 On ch=10 n=42 v=90
16699 On ch=10 n=42 v=0
16739 On ch=10 n=42 v=87
16759 On ch=10 n=42 v=0
16800 On ch=10 n=42 v=100
16820 On ch=10 n=42 v=0
16860 On ch=10 n=42 v=85
16878 On ch=10 n=42 v=0
16923 On ch=10 n=42 v=100
16942 On ch=10 n=42 v=0
16980 On ch=10 n=42 v=85
16996 On ch=10 n=42 v=0
17042 On ch=10 n=42 v=87
17058 On ch=10 n=42 v=0
17100 On ch=10 n=42 v=87
17115 On ch=10 n=42 v=0
17158 On ch=10 n=42 v=93
17177 On ch=10 n=42 v=0
17219 On ch=10 n=42 v=96
17238 On ch=10 n=42 v=0
17280 On ch=10 n=42 v=113
17280 On ch=10 n=44 v=100
17291 On ch=10 n=44 v=0
17296 On ch=10 n=42 v=0
17762 On ch=10 n=42 v=85
17795 On ch=10 n=42 v=0
17822 On ch=10 n=42 v=53
17834 On ch=10 n=42 v=0
17883 On ch=10 n=42 v=80
17893 On ch=10 n=42 v=0
17944 On ch=10 n=42 v=78
17951 On ch=10 n=42 v=0
18060 On ch=10 n=42 v=85
18136 On ch=10 n=42 v=0
18179 On ch=10 n=42 v=96
18254 On ch=10 n=42 v=0
18302 On ch=10 n=42 v=104
18361 On ch=10 n=42 v=0
18483 On ch=10 n=42 v=59
18490 On ch=10 n=42 v=0
18602 On ch=10 n=42 v=87
18658 On ch=10 n=42 v=0
18720 On ch=10 n=42 v=100
18782 On ch=10 n=42 v=0
18842 On ch=10 n=42 v=104
18911 On ch=10 n=42 v=0
18961 On ch=10 n=42 v=104
19024 On ch=10 n=42 v=0
19082 On ch=10 n=42 v=108
19146 On ch=10 n=42 v=0
19202 On ch=10 n=42 v=90
19269 On ch=10 n=42 v=0
19323 On ch=10 n=42 v=100
19392 On ch=10 n=42 v=0
19440 On ch=10 n=42 v=104
19515 On ch=10 n=42 v=0
19562 On ch=10 n=42 v=90
19625 On ch=10 n=42 v=0
19682 On ch=10 n=42 v=93
19747 On ch=10 n=42 v=0
19803 On ch=10 n=42 v=82
19874 On ch=10 n=42 v=0
19921 On ch=10 n=42 v=87
19992 On ch=10 n=42 v=0
20039 On ch=10 n=42 v=87
20107 On ch=10 n=42 v=0
20161 On ch=10 n=42 v=80
20180 On ch=10 n=42 v=0
20219 On ch=10 n=42 v=82
20238 On ch=10 n=42 v=0
20279 On ch=10 n=42 v=87
20302 On ch=10 n=42 v=0
20340 On ch=10 n=42 v=65
20358 On ch=10 n=42 v=0
20402 On ch=10 n=42 v=66
20421 On ch=10 n=42 v=0
20463 On ch=10 n=42 v=78
20479 On ch=10 n=42 v=0
20522 On ch=10 n=42 v=87
20544 On ch=10 n=42 v=0
20582 On ch=10 n=42 v=65
20598 On ch=10 n=42 v=0
20639 On ch=10 n=42 v=73
20659 On ch=10 n=42 v=0
20700 On ch=10 n=42 v=80
20718 On ch=10 n=42 v=0
20760 On ch=10 n=42 v=82
20784 On ch=10 n=42 v=0
20819 On ch=10 n=42 v=76
20836 On ch=10 n=42 v=0
20879 On ch=10 n=42 v=78
20898 On ch=10 n=42 v=0
20939 On ch=10 n=42 v=73
20954 On ch=10 n=42 v=0
21000 On ch=10 n=42 v=80
21026 On ch=10 n=42 v=0
21061 On ch=10 n=42 v=65
21074 On ch=10 n=42 v=0
21120 On ch=10 n=42 v=100
21197 On ch=10 n=42 v=0
21244 On ch=10 n=42 v=100
21320 On ch=10 n=42 v=0
21362 On ch=10 n=42 v=87
21439 On ch=10 n=42 v=0
21484 On ch=10 n=42 v=93
21549 On ch=10 n=42 v=0
21600 On ch=10 n=42 v=96
21678 On ch=10 n=42 v=0
21724 On ch=10 n=42 v=100
21792 On ch=10 n=42 v=0
21842 On ch=10 n=42 v=66
21897 On ch=10 n=42 v=0
21959 On ch=10 n=42 v=96
22035 On ch=10 n=42 v=0
22082 On ch=10 n=42 v=67
22147 On ch=10 n=42 v=0
22202 On ch=10 n=42 v=93
22277 On ch=10 n=42 v=0
22324 On ch=10 n=42 v=67
22388 On ch=10 n=42 v=0
22442 On ch=10 n=42 v=96
22507 On ch=10 n=42 v=0
22559 On ch=10 n=42 v=90
22645 On ch=10 n=42 v=0
22744 On ch=10 n=42 v=96
22951 On ch=10 n=42 v=0
23042 On ch=10 n=42 v=96
23156 On ch=10 n=42 v=0
23222 On ch=10 n=42 v=96
23468 On ch=10 n=42 v=0
23519 On ch=10 n=42 v=75
23552 On ch=10 n=42 v=0
23582 On ch=10 n=42 v=34
23600 On ch=10 n=42 v=0
23644 On ch=10 n=42 v=93
23669 On ch=10 n=42 v=0
23702 On ch=10 n=42 v=48
23711 On ch=10 n=42 v=0
23760 On ch=10 n=42 v=90
23795 On ch=10 n=42 v=0
23882 On ch=10 n=42 v=87
23955 On ch=10 n=42 v=0
24000 On ch=10 n=42 v=87
24038 On ch=10 n=42 v=0
24059 On ch=10 n=42 v=49
24092 On ch=10 n=42 v=0
24121 On ch=10 n=42 v=56
24162 On ch=10 n=42 v=0
24183 On ch=10 n=42 v=25
24193 On ch=10 n=42 v=0
24242 On ch=10 n=42 v=82
24325 On ch=10 n=42 v=0
24364 On ch=10 n=42 v=96
24437 On ch=10 n=42 v=0
24483 On ch=10 n=42 v=85
24617 On ch=10 n=42 v=0
24664 On ch=10 n=42 v=113
24912 On ch=10 n=42 v=0
24960 On ch=10 n=42 v=108
25095 On ch=10 n=42 v=0
25140 On ch=10 n=42 v=113
25376 On ch=10 n=42 v=0
25440 On ch=10 n=42 v=78
25523 On ch=10 n=42 v=0
25564 On ch=10 n=42 v=87
25637 On ch=10 n=42 v=0
25684 On ch=10 n=42 v=96
25754 On ch=10 n=42 v=0
25805 On ch=10 n=42 v=108
25876 On ch=10 n=42 v=0
25923 On ch=10 n=42 v=93
25996 On ch=10 n=42 v=0
26043 On ch=10 n=42 v=100
26118 On ch=10 n=42 v=0
26163 On ch=10 n=42 v=93
26231 On ch=10 n=42 v=0
26280 On ch=10 n=42 v=80
26347 On ch=10 n=42 v=0
26400 On ch=10 n=42 v=90
26479 On ch=10 n=42 v=0
26523 On ch=10 n=42 v=100
26596 On ch=10 n=42 v=0
26641 On ch=10 n=42 v=85
26709 On ch=10 n=42 v=0
26759 On ch=10 n=42 v=90
26830 On ch=10 n=42 v=0
26882 On ch=10 n=42 v=90
26946 On ch=10 n=42 v=0
27002 On ch=10 n=42 v=104
27069 On ch=10 n=42 v=0
27121 On ch=10 n=42 v=82
27193 On ch=10 n=42 v=0
27239 On ch=10 n=42 v=96
27311 On ch=10 n=42 v=0
27360 On ch=10 n=42 v=87
27422 On ch=10 n=42 v=0
27542 On ch=10 n=42 v=93
27786 On ch=10 n=42 v=0
27842 On ch=10 n=42 v=104
27969 On ch=10 n=42 v=0
28022 On ch=10 n=42 v=104
28254 On ch=10 n=42 v=0
28319 On ch=10 n=42 v=82
28395 On ch=10 n=42 v=0
28442 On ch=10 n=42 v=76
28516 On ch=10 n=42 v=0
28561 On ch=10 n=42 v=85
28644 On ch=10 n=42 v=0
28684 On ch=10 n=42 v=85
28757 On ch=10 n=42 v=0
28802 On ch=10 n=42 v=87
28883 On ch=10 n=42 v=0
28923 On ch=10 n=42 v=87
29009 On ch=10 n=42 v=0
29044 On ch=10 n=42 v=96
29120 On ch=10 n=42 v=0
29164 On ch=10 n=42 v=104
29227 On ch=10 n=42 v=0
29284 On ch=10 n=42 v=108
29358 On ch=10 n=42 v=0
29402 On ch=10 n=42 v=104
29460 On ch=10 n=42 v=0
29523 On ch=10 n=42 v=100
29597 On ch=10 n=42 v=0
29644 On ch=10 n=42 v=104
29712 On ch=10 n=42 v=0
29760 On ch=10 n=42 v=93
29842 On ch=10 n=42 v=0
29882 On ch=10 n=42 v=100
29952 On ch=10 n=42 v=0
30001 On ch=10 n=42 v=82
30077 On ch=10 n=42 v=0
30120 On ch=10 n=42 v=90
30195 On ch=10 n=42 v=0
30239 On ch=10 n=42 v=96
30316 On ch=10 n=42 v=0
30363 On ch=10 n=42 v=96
30381 On ch=10 n=42 v=0
30479 On ch=10 n=42 v=96
30562 On ch=10 n=42 v=0
30602 On ch=10 n=42 v=96
30675 On ch=10 n=42 v=0
30720 On ch=10 n=42 v=100
30762 On ch=10 n=42 v=0
30843 On ch=10 n=42 v=108
30917 On ch=10 n=42 v=0
30962 On ch=10 n=42 v=100
31040 On ch=10 n=42 v=0
31079 On ch=10 n=42 v=104
31146 On ch=10 n=42 v=0
31200 On ch=10 n=42 v=87
31223 On ch=10 n=42 v=0
31260 On ch=10 n=42 v=70
31273 On ch=10 n=42 v=0
31320 On ch=10 n=42 v=93
31348 On ch=10 n=42 v=0
31379 On ch=10 n=42 v=54
31394 On ch=10 n=42 v=0
31441 On ch=10 n=42 v=75
31464 On ch=10 n=42 v=0
31502 On ch=10 n=42 v=71
31521 On ch=10 n=42 v=0
31562 On ch=10 n=42 v=93
31591 On ch=10 n=42 v=0
31621 On ch=10 n=42 v=57
31636 On ch=10 n=42 v=0
31679 On ch=10 n=42 v=90
31704 On ch=10 n=42 v=0
31738 On ch=10 n=42 v=76
31753 On ch=10 n=42 v=0
31800 On ch=10 n=42 v=100
31823 On ch=10 n=42 v=0
31861 On ch=10 n=42 v=67
31873 On ch=10 n=42 v=0
31922 On ch=10 n=42 v=96
31941 On ch=10 n=42 v=0
31981 On ch=10 n=42 v=87
31993 On ch=10 n=42 v=0
32041 On ch=10 n=42 v=113
32061 On ch=10 n=42 v=0
32102 On ch=10 n=42 v=119
32118 On ch=10 n=42 v=0
32118 Meta TrkEnd
TrkEnd
MTrk
0 Meta 0x21 00
0 Meta TrkName "Ride/Crash"
0 Par ch=10 c=0 v=0
0 Par ch=10 c=32 v=0
477 On ch=10 n=36 v=102
482 On ch=10 n=38 v=102
490 On ch=10 n=38 v=0
493 On ch=10 n=36 v=0
513 On ch=10 n=38 v=68
520 On ch=10 n=38 v=0
537 On ch=10 n=36 v=89
540 On ch=10 n=38 v=81
545 On ch=10 n=38 v=0
548 On ch=10 n=36 v=0
571 On ch=10 n=38 v=92
581 On ch=10 n=38 v=0
599 On ch=10 n=38 v=118
601 On ch=10 n=36 v=104
618 On ch=10 n=36 v=0
618 On ch=10 n=38 v=0
631 On ch=10 n=38 v=79
641 On ch=10 n=38 v=0
658 On ch=10 n=38 v=72
663 On ch=10 n=36 v=87
667 On ch=10 n=38 v=0
669 On ch=10 n=36 v=0
689 On ch=10 n=38 v=98
694 On ch=10 n=36 v=89
700 On ch=10 n=38 v=0
708 On ch=10 n=36 v=0
718 On ch=10 n=38 v=81
728 On ch=10 n=38 v=0
749 On ch=10 n=38 v=87
753 On ch=10 n=36 v=104
761 On ch=10 n=38 v=0
766 On ch=10 n=36 v=0
780 On ch=10 n=38 v=102
795 On ch=10 n=38 v=0
810 On ch=10 n=36 v=77
810 On ch=10 n=38 v=90
820 On ch=10 n=38 v=0
820 On ch=10 n=36 v=0
838 On ch=10 n=36 v=94
840 On ch=10 n=38 v=102
855 On ch=10 n=38 v=0
857 On ch=10 n=36 v=0
871 On ch=10 n=38 v=84
884 On ch=10 n=38 v=0
898 On ch=10 n=36 v=104
902 On ch=10 n=38 v=122
911 On ch=10 n=36 v=0
919 On ch=10 n=38 v=0
929 On ch=10 n=38 v=50
945 On ch=10 n=38 v=0
958 On ch=10 n=49 v=126
958 On ch=10 n=51 v=126
960 On ch=10 n=36 v=102
961 On ch=10 n=38 v=89
971 On ch=10 n=38 v=0
971 On ch=10 n=36 v=0
974 On ch=10 n=51 v=0
974 On ch=10 n=49 v=0
991 On ch=10 n=38 v=72
1000 On ch=10 n=38 v=0
1019 On ch=10 n=36 v=100
1022 On ch=10 n=38 v=115
1035 On ch=10 n=36 v=0
1040 On ch=10 n=38 v=0
1049 On ch=10 n=38 v=43
1064 On ch=10 n=38 v=0
1080 On ch=10 n=36 v=107
1082 On ch=10 n=38 v=90
1091 On ch=10 n=38 v=0
1100 On ch=10 n=36 v=0
1109 On ch=10 n=38 v=75
1118 On ch=10 n=38 v=0
1139 On ch=10 n=36 v=96
1139 On ch=10 n=38 v=118
1153 On ch=10 n=36 v=0
1158 On ch=10 n=38 v=0
1168 On ch=10 n=38 v=48
1172 On ch=10 n=36 v=96
1183 On ch=10 n=38 v=0
1188 On ch=10 n=36 v=0
1198 On ch=10 n=38 v=83
1209 On ch=10 n=38 v=0
1229 On ch=10 n=38 v=94
1232 On ch=10 n=36 v=107
1242 On ch=10 n=38 v=0
1244 On ch=10 n=36 v=0
1259 On ch=10 n=38 v=100
1276 On ch=10 n=38 v=0
1289 On ch=10 n=38 v=100
1290 On ch=10 n=36 v=92
1298 On ch=10 n=38 v=0
1300 On ch=10 n=36 v=0
1318 On ch=10 n=36 v=94
1320 On ch=10 n=38 v=90
1326 On ch=10 n=38 v=0
1338 On ch=10 n=36 v=0
1352 On ch=10 n=38 v=90
1361 On ch=10 n=38 v=0
1379 On ch=10 n=36 v=104
1382 On ch=10 n=38 v=122
1394 On ch=10 n=36 v=0
1402 On ch=10 n=38 v=0
1412 On ch=10 n=38 v=73
1421 On ch=10 n=38 v=0
1436 On ch=10 n=49 v=113
1436 On ch=10 n=51 v=108
1440 On ch=10 n=36 v=102
1440 On ch=10 n=38 v=86
1450 On ch=10 n=38 v=0
1457 On ch=10 n=36 v=0
1465 On ch=10 n=51 v=0
1465 On ch=10 n=49 v=0
1472 On ch=10 n=38 v=84
1479 On ch=10 n=38 v=0
1500 On ch=10 n=36 v=98
1500 On ch=10 n=38 v=109
1518 On ch=10 n=38 v=0
1518 On ch=10 n=36 v=0
1530 On ch=10 n=38 v=75
1539 On ch=10 n=38 v=0
1559 On ch=10 n=38 v=92
1560 On ch=10 n=36 v=104
1569 On ch=10 n=38 v=0
1580 On ch=10 n=36 v=0
1590 On ch=10 n=38 v=94
1600 On ch=10 n=38 v=0
1619 On ch=10 n=38 v=126
1621 On ch=10 n=36 v=98
1636 On ch=10 n=36 v=0
1637 On ch=10 n=38 v=0
1648 On ch=10 n=38 v=102
1653 On ch=10 n=36 v=96
1661 On ch=10 n=38 v=0
1667 On ch=10 n=36 v=0
1679 On ch=10 n=38 v=90
1686 On ch=10 n=38 v=0
1710 On ch=10 n=36 v=112
1710 On ch=10 n=38 v=92
1720 On ch=10 n=38 v=0
1729 On ch=10 n=36 v=0
1739 On ch=10 n=38 v=118
1758 On ch=10 n=38 v=0
1768 On ch=10 n=38 v=81
1769 On ch=10 n=36 v=90
1780 On ch=10 n=36 v=0
1780 On ch=10 n=38 v=0
1797 On ch=10 n=36 v=89
1798 On ch=10 n=38 v=90
1810 On ch=10 n=38 v=0
1819 On ch=10 n=36 v=0
1830 On ch=10 n=38 v=82
1839 On ch=10 n=38 v=0
1858 On ch=10 n=36 v=100
1859 On ch=10 n=38 v=109
1874 On ch=10 n=36 v=0
1879 On ch=10 n=38 v=0
1887 On ch=10 n=38 v=45
1901 On ch=10 n=38 v=0
1918 On ch=10 n=38 v=96
1920 On ch=10 n=49 v=113
1920 On ch=10 n=51 v=113
1921 On ch=10 n=36 v=100
1927 On ch=10 n=38 v=0
1936 On ch=10 n=36 v=0
1951 On ch=10 n=38 v=96
1956 On ch=10 n=51 v=0
1956 On ch=10 n=49 v=0
1960 On ch=10 n=38 v=0
1979 On ch=10 n=36 v=98
1980 On ch=10 n=38 v=109
1995 On ch=10 n=36 v=0
1998 On ch=10 n=38 v=0
2011 On ch=10 n=38 v=87
2021 On ch=10 n=38 v=0
2040 On ch=10 n=36 v=104
2040 On ch=10 n=38 v=90
2050 On ch=10 n=38 v=0
2058 On ch=10 n=36 v=0
2071 On ch=10 n=38 v=90
2081 On ch=10 n=38 v=0
2100 On ch=10 n=36 v=100
2102 On ch=10 n=38 v=122
2115 On ch=10 n=36 v=0
2120 On ch=10 n=38 v=0
2130 On ch=10 n=38 v=76
2131 On ch=10 n=36 v=100
2144 On ch=10 n=38 v=0
2150 On ch=10 n=36 v=0
2159 On ch=10 n=38 v=90
2166 On ch=10 n=38 v=0
2189 On ch=10 n=38 v=90
2192 On ch=10 n=36 v=109
2201 On ch=10 n=38 v=0
2204 On ch=10 n=36 v=0
2219 On ch=10 n=38 v=122
2239 On ch=10 n=38 v=0
2249 On ch=10 n=38 v=82
2250 On ch=10 n=36 v=92
2259 On ch=10 n=36 v=0
2263 On ch=10 n=38 v=0
2278 On ch=10 n=36 v=94
2279 On ch=10 n=38 v=96
2286 On ch=10 n=38 v=0
2298 On ch=10 n=36 v=0
2309 On ch=10 n=38 v=83
2319 On ch=10 n=38 v=0
2339 On ch=10 n=36 v=104
2339 On ch=10 n=38 v=107
2355 On ch=10 n=38 v=0
2355 On ch=10 n=36 v=0
2369 On ch=10 n=38 v=73
2378 On ch=10 n=38 v=0
2399 On ch=10 n=38 v=100
2400 On ch=10 n=36 v=104
2400 On ch=10 n=49 v=126
2400 On ch=10 n=51 v=119
2405 On ch=10 n=38 v=0
2417 On ch=10 n=36 v=0
2432 On ch=10 n=38 v=87
2441 On ch=10 n=38 v=0
2460 On ch=10 n=36 v=100
2460 On ch=10 n=38 v=107
2475 On ch=10 n=36 v=0
2480 On ch=10 n=38 v=0
2489 On ch=10 n=38 v=79
2501 On ch=10 n=38 v=0
2511 On ch=10 n=49 v=0
2513 On ch=10 n=51 v=0
2520 On ch=10 n=36 v=107
2520 On ch=10 n=38 v=96
2530 On ch=10 n=38 v=0
2542 On ch=10 n=36 v=0
2553 On ch=10 n=38 v=90
2562 On ch=10 n=38 v=0
2580 On ch=10 n=36 v=102
2580 On ch=10 n=38 v=109
2595 On ch=10 n=36 v=0
2600 On ch=10 n=38 v=0
2610 On ch=10 n=38 v=104
2612 On ch=10 n=36 v=98
2626 On ch=10 n=38 v=0
2632 On ch=10 n=36 v=0
2641 On ch=10 n=38 v=79
2647 On ch=10 n=38 v=0
2670 On ch=10 n=36 v=112
2670 On ch=10 n=38 v=90
2685 On ch=10 n=38 v=0
2687 On ch=10 n=36 v=0
2701 On ch=10 n=38 v=107
2720 On ch=10 n=38 v=0
2728 On ch=10 n=36 v=102
2729 On ch=10 n=38 v=102
2741 On ch=10 n=36 v=0
2742 On ch=10 n=38 v=0
2758 On ch=10 n=36 v=87
2759 On ch=10 n=38 v=86
2761 On ch=10 n=38 v=0
2780 On ch=10 n=36 v=0
2792 On ch=10 n=38 v=94
2800 On ch=10 n=38 v=0
2818 On ch=10 n=38 v=109
2820 On ch=10 n=36 v=107
2838 On ch=10 n=36 v=0
2839 On ch=10 n=38 v=0
2847 On ch=10 n=38 v=60
2863 On ch=10 n=38 v=0
2879 On ch=10 n=38 v=96
2880 On ch=10 n=49 v=126
2880 On ch=10 n=51 v=119
2882 On ch=10 n=36 v=109
2889 On ch=10 n=38 v=0
2899 On ch=10 n=36 v=0
2911 On ch=10 n=38 v=71
2923 On ch=10 n=38 v=0
2940 On ch=10 n=38 v=122
2944 On ch=10 n=36 v=112
2957 On ch=10 n=36 v=0
2957 On ch=10 n=38 v=0
2972 On ch=10 n=38 v=49
2978 On ch=10 n=38 v=0
2999 On ch=10 n=38 v=87
3000 On ch=10 n=51 v=0
3000 On ch=10 n=49 v=0
3001 On ch=10 n=36 v=115
3009 On ch=10 n=38 v=0
3025 On ch=10 n=36 v=0
3032 On ch=10 n=38 v=90
3041 On ch=10 n=38 v=0
3060 On ch=10 n=36 v=102
3062 On ch=10 n=38 v=122
3075 On ch=10 n=36 v=0
3083 On ch=10 n=38 v=0
3090 On ch=10 n=38 v=74
3094 On ch=10 n=36 v=98
3105 On ch=10 n=38 v=0
3109 On ch=10 n=36 v=0
3122 On ch=10 n=38 v=81
3132 On ch=10 n=38 v=0
3150 On ch=10 n=36 v=115
3152 On ch=10 n=38 v=78
3160 On ch=10 n=38 v=0
3168 On ch=10 n=36 v=0
3183 On ch=10 n=38 v=126
3200 On ch=10 n=38 v=0
3208 On ch=10 n=36 v=100
3211 On ch=10 n=38 v=68
3220 On ch=10 n=36 v=0
3224 On ch=10 n=38 v=0
3237 On ch=10 n=36 v=100
3240 On ch=10 n=38 v=98
3245 On ch=10 n=38 v=0
3255 On ch=10 n=36 v=0
3273 On ch=10 n=38 v=100
3289 On ch=10 n=38 v=0
3299 On ch=10 n=36 v=115
3304 On ch=10 n=38 v=107
3313 On ch=10 n=36 v=0
3322 On ch=10 n=38 v=0
3329 On ch=10 n=38 v=107
3343 On ch=10 n=38 v=0
3360 On ch=10 n=36 v=112
3360 On ch=10 n=38 v=107
3360 On ch=10 n=49 v=126
3360 On ch=10 n=51 v=119
3372 On ch=10 n=38 v=0
3377 On ch=10 n=36 v=0
3392 On ch=10 n=38 v=81
3401 On ch=10 n=38 v=0
3420 On ch=10 n=38 v=118
3422 On ch=10 n=36 v=112
3437 On ch=10 n=36 v=0
3440 On ch=10 n=38 v=0
3452 On ch=10 n=38 v=81
3458 On ch=10 n=38 v=0
3474 On ch=10 n=49 v=0
3479 On ch=10 n=51 v=0
3479 On ch=10 n=38 v=102
3482 On ch=10 n=36 v=115
3492 On ch=10 n=38 v=0
3503 On ch=10 n=36 v=0
3511 On ch=10 n=38 v=96
3527 On ch=10 n=38 v=0
3540 On ch=10 n=38 v=107
3541 On ch=10 n=36 v=102
3553 On ch=10 n=36 v=0
3565 On ch=10 n=38 v=0
3570 On ch=10 n=36 v=100
3570 On ch=10 n=38 v=92
3587 On ch=10 n=38 v=0
3588 On ch=10 n=36 v=0
3601 On ch=10 n=38 v=76
3612 On ch=10 n=38 v=0
3629 On ch=10 n=36 v=112
3630 On ch=10 n=38 v=96
3645 On ch=10 n=36 v=0
3650 On ch=10 n=38 v=0
3662 On ch=10 n=38 v=118
3680 On ch=10 n=38 v=0
3689 On ch=10 n=36 v=107
3689 On ch=10 n=38 v=83
3701 On ch=10 n=36 v=0
3704 On ch=10 n=38 v=0
3718 On ch=10 n=36 v=100
3720 On ch=10 n=38 v=92
3730 On ch=10 n=38 v=0
3736 On ch=10 n=36 v=0
3751 On ch=10 n=38 v=96
3764 On ch=10 n=38 v=0
3780 On ch=10 n=36 v=115
3780 On ch=10 n=38 v=102
3780 On ch=10 n=40 v=92
3799 On ch=10 n=40 v=0
3799 On ch=10 n=36 v=0
3803 On ch=10 n=38 v=0
3816 On ch=10 n=38 v=92
3830 On ch=10 n=38 v=0
3840 On ch=10 n=49 v=126
3840 On ch=10 n=51 v=126
3842 On ch=10 n=36 v=115
3842 On ch=10 n=38 v=112
3842 On ch=10 n=40 v=75
3856 On ch=10 n=40 v=0
3865 On ch=10 n=36 v=0
3865 On ch=10 n=49 v=0
3865 On ch=10 n=51 v=0
3865 On ch=10 n=38 v=0
4316 On ch=10 n=49 v=119
4316 On ch=10 n=51 v=113
4318 On ch=10 n=36 v=115
4373 On ch=10 n=36 v=0
4382 On ch=10 n=49 v=0
4386 On ch=10 n=51 v=0
4409 On ch=10 n=36 v=94
4421 On ch=10 n=36 v=0
4497 On ch=10 n=49 v=108
4497 On ch=10 n=51 v=100
4499 On ch=10 n=36 v=109
4569 On ch=10 n=36 v=0
4569 On ch=10 n=51 v=0
4578 On ch=10 n=49 v=0
4618 On ch=10 n=36 v=107
4686 On ch=10 n=36 v=0
4740 On ch=10 n=36 v=107
4756 On ch=10 n=36 v=0
4800 On ch=10 n=36 v=107
4801 On ch=10 n=49 v=119
4801 On ch=10 n=51 v=113
4818 On ch=10 n=51 v=0
4818 On ch=10 n=49 v=0
4852 On ch=10 n=36 v=0
4890 On ch=10 n=36 v=107
4926 On ch=10 n=36 v=0
4980 On ch=10 n=36 v=112
4982 On ch=10 n=49 v=108
4982 On ch=10 n=51 v=104
4997 On ch=10 n=51 v=0
5002 On ch=10 n=49 v=0
5045 On ch=10 n=36 v=0
5098 On ch=10 n=36 v=109
5174 On ch=10 n=36 v=0
5219 On ch=10 n=36 v=109
5236 On ch=10 n=36 v=0
5279 On ch=10 n=36 v=112
5282 On ch=10 n=49 v=100
5282 On ch=10 n=51 v=62
5289 On ch=10 n=51 v=0
5296 On ch=10 n=49 v=0
5329 On ch=10 n=36 v=0
5368 On ch=10 n=36 v=104
5403 On ch=10 n=51 v=93
5411 On ch=10 n=36 v=0
5415 On ch=10 n=51 v=0
5461 On ch=10 n=36 v=109
5480 On ch=10 n=36 v=0
5521 On ch=10 n=36 v=102
5521 On ch=10 n=51 v=104
5539 On ch=10 n=36 v=0
5542 On ch=10 n=51 v=0
5580 On ch=10 n=36 v=86
5584 On ch=10 n=51 v=53
5590 On ch=10 n=51 v=0
5594 On ch=10 n=36 v=0
5640 On ch=10 n=36 v=112
5643 On ch=10 n=51 v=119
5664 On ch=10 n=51 v=0
5693 On ch=10 n=36 v=0
5702 On ch=10 n=51 v=75
5712 On ch=10 n=51 v=0
5762 On ch=10 n=51 v=113
5763 On ch=10 n=36 v=104
5785 On ch=10 n=51 v=0
5794 On ch=10 n=36 v=0
5823 On ch=10 n=51 v=78
5829 On ch=10 n=51 v=0
5852 On ch=10 n=36 v=84
5855 On ch=10 n=51 v=104
5864 On ch=10 n=51 v=0
5864 On ch=10 n=36 v=0
5883 On ch=10 n=51 v=108
5898 On ch=10 n=51 v=0
5942 On ch=10 n=51 v=96
5944 On ch=10 n=36 v=96
5949 On ch=10 n=51 v=0
5959 On ch=10 n=36 v=0
5972 On ch=10 n=51 v=85
5983 On ch=10 n=51 v=0
5998 On ch=10 n=51 v=93
6002 On ch=10 n=36 v=87
6011 On ch=10 n=36 v=0
6016 On ch=10 n=51 v=0
6058 On ch=10 n=36 v=90
6062 On ch=10 n=51 v=100
6068 On ch=10 n=51 v=0
6071 On ch=10 n=36 v=0
6091 On ch=10 n=51 v=85
6101 On ch=10 n=51 v=0
6118 On ch=10 n=51 v=87
6120 On ch=10 n=36 v=107
6138 On ch=10 n=51 v=0
6178 On ch=10 n=51 v=100
6187 On ch=10 n=51 v=0
6197 On ch=10 n=36 v=0
6238 On ch=10 n=49 v=108
6238 On ch=10 n=51 v=87
6242 On ch=10 n=36 v=104
6243 On ch=10 n=51 v=0
6250 On ch=10 n=49 v=0
6300 On ch=10 n=51 v=87
6308 On ch=10 n=51 v=0
6308 On ch=10 n=36 v=0
6360 On ch=10 n=51 v=104
6362 On ch=10 n=36 v=89
6372 On ch=10 n=51 v=0
6381 On ch=10 n=36 v=0
6422 On ch=10 n=36 v=78
6435 On ch=10 n=36 v=0
6450 On ch=10 n=51 v=93
6452 On ch=10 n=36 v=92
6461 On ch=10 n=51 v=0
6475 On ch=10 n=36 v=0
6507 On ch=10 n=51 v=85
6513 On ch=10 n=36 v=90
6516 On ch=10 n=51 v=0
6527 On ch=10 n=36 v=0
6567 On ch=10 n=51 v=87
6570 On ch=10 n=36 v=87
6573 On ch=10 n=51 v=0
6584 On ch=10 n=36 v=0
6597 On ch=10 n=51 v=100
6599 On ch=10 n=36 v=90
6623 On ch=10 n=36 v=0
6624 On ch=10 n=51 v=0
6658 On ch=10 n=51 v=96
6660 On ch=10 n=36 v=98
6668 On ch=10 n=51 v=0
6671 On ch=10 n=36 v=0
6718 On ch=10 n=49 v=104
6718 On ch=10 n=51 v=96
6720 On ch=10 n=36 v=102
6722 On ch=10 n=51 v=0
6725 On ch=10 n=49 v=0
6738 On ch=10 n=36 v=0
6780 On ch=10 n=36 v=100
6780 On ch=10 n=51 v=82
6787 On ch=10 n=51 v=0
6796 On ch=10 n=36 v=0
6840 On ch=10 n=36 v=102
6842 On ch=10 n=51 v=104
6856 On ch=10 n=51 v=0
6860 On ch=10 n=36 v=0
6899 On ch=10 n=51 v=80
6901 On ch=10 n=36 v=98
6906 On ch=10 n=51 v=0
6912 On ch=10 n=36 v=0
6930 On ch=10 n=36 v=94
6930 On ch=10 n=51 v=93
6943 On ch=10 n=51 v=0
6948 On ch=10 n=36 v=0
6988 On ch=10 n=51 v=96
6991 On ch=10 n=36 v=107
7003 On ch=10 n=51 v=0
7005 On ch=10 n=36 v=0
7048 On ch=10 n=51 v=87
7050 On ch=10 n=36 v=94
7053 On ch=10 n=51 v=0
7058 On ch=10 n=36 v=0
7078 On ch=10 n=36 v=92
7078 On ch=10 n=51 v=100
7093 On ch=10 n=51 v=0
7099 On ch=10 n=36 v=0
7137 On ch=10 n=51 v=93
7140 On ch=10 n=36 v=87
7143 On ch=10 n=51 v=0
7147 On ch=10 n=36 v=0
7171 On ch=10 n=36 v=74
7177 On ch=10 n=36 v=0
7199 On ch=10 n=36 v=102
7199 On ch=10 n=49 v=104
7199 On ch=10 n=51 v=96
7210 On ch=10 n=51 v=0
7214 On ch=10 n=49 v=0
7220 On ch=10 n=36 v=0
7260 On ch=10 n=36 v=94
7263 On ch=10 n=49 v=66
7263 On ch=10 n=51 v=78
7268 On ch=10 n=51 v=0
7268 On ch=10 n=49 v=0
7274 On ch=10 n=36 v=0
7321 On ch=10 n=51 v=100
7322 On ch=10 n=36 v=109
7334 On ch=10 n=51 v=0
7338 On ch=10 n=36 v=0
7378 On ch=10 n=51 v=90
7382 On ch=10 n=36 v=83
7387 On ch=10 n=51 v=0
7388 On ch=10 n=36 v=0
7408 On ch=10 n=51 v=96
7410 On ch=10 n=36 v=92
7421 On ch=10 n=51 v=0
7430 On ch=10 n=36 v=0
7468 On ch=10 n=51 v=100
7470 On ch=10 n=36 v=102
7481 On ch=10 n=51 v=0
7487 On ch=10 n=36 v=0
7527 On ch=10 n=51 v=90
7529 On ch=10 n=36 v=83
7533 On ch=10 n=51 v=0
7539 On ch=10 n=36 v=0
7556 On ch=10 n=51 v=104
7558 On ch=10 n=36 v=90
7569 On ch=10 n=51 v=0
7582 On ch=10 n=36 v=0
7617 On ch=10 n=51 v=100
7621 On ch=10 n=36 v=94
7627 On ch=10 n=51 v=0
7634 On ch=10 n=36 v=0
7677 On ch=10 n=49 v=100
7677 On ch=10 n=51 v=96
7682 On ch=10 n=36 v=107
7684 On ch=10 n=51 v=0
7684 On ch=10 n=49 v=0
7694 On ch=10 n=36 v=0
7741 On ch=10 n=49 v=61
7742 On ch=10 n=36 v=87
7747 On ch=10 n=49 v=0
7749 On ch=10 n=36 v=0
7774 On ch=10 n=36 v=65
7779 On ch=10 n=36 v=0
7801 On ch=10 n=36 v=100
7802 On ch=10 n=49 v=85
7818 On ch=10 n=49 v=0
7820 On ch=10 n=36 v=0
7862 On ch=10 n=36 v=81
7871 On ch=10 n=36 v=0
7923 On ch=10 n=51 v=100
7924 On ch=10 n=36 v=102
7931 On ch=10 n=51 v=0
7941 On ch=10 n=36 v=0
7978 On ch=10 n=51 v=62
7983 On ch=10 n=36 v=78
7988 On ch=10 n=51 v=0
7996 On ch=10 n=36 v=0
8042 On ch=10 n=51 v=100
8044 On ch=10 n=36 v=107
8054 On ch=10 n=51 v=0
8062 On ch=10 n=36 v=0
8101 On ch=10 n=51 v=76
8102 On ch=10 n=36 v=90
8107 On ch=10 n=51 v=0
8112 On ch=10 n=36 v=0
8158 On ch=10 n=49 v=75
8158 On ch=10 n=51 v=68
8160 On ch=10 n=36 v=102
8161 On ch=10 n=51 v=0
8172 On ch=10 n=49 v=0
8179 On ch=10 n=36 v=0
8216 On ch=10 n=51 v=70
8220 On ch=10 n=36 v=98
8226 On ch=10 n=51 v=0
8238 On ch=10 n=36 v=0
8282 On ch=10 n=36 v=109
8282 On ch=10 n=51 v=100
8290 On ch=10 n=51 v=0
8301 On ch=10 n=36 v=0
8339 On ch=10 n=51 v=65
8341 On ch=10 n=36 v=90
8344 On ch=10 n=51 v=0
8353 On ch=10 n=36 v=0
8370 On ch=10 n=36 v=90
8370 On ch=10 n=51 v=90
8380 On ch=10 n=51 v=0
8389 On ch=10 n=36 v=0
8428 On ch=10 n=51 v=93
8431 On ch=10 n=36 v=102
8437 On ch=10 n=51 v=0
8445 On ch=10 n=36 v=0
8487 On ch=10 n=51 v=78
8490 On ch=10 n=36 v=86
8491 On ch=10 n=51 v=0
8500 On ch=10 n=36 v=0
8517 On ch=10 n=51 v=93
8518 On ch=10 n=36 v=90
8529 On ch=10 n=51 v=0
8539 On ch=10 n=36 v=0
8577 On ch=10 n=51 v=93
8579 On ch=10 n=36 v=100
8583 On ch=10 n=51 v=0
8591 On ch=10 n=36 v=0
8607 On ch=10 n=51 v=80
8612 On ch=10 n=36 v=84
8615 On ch=10 n=51 v=0
8621 On ch=10 n=36 v=0
8637 On ch=10 n=51 v=90
8640 On ch=10 n=36 v=104
8652 On ch=10 n=51 v=0
8660 On ch=10 n=36 v=0
8700 On ch=10 n=36 v=96
8700 On ch=10 n=51 v=96
8709 On ch=10 n=51 v=0
8713 On ch=10 n=36 v=0
8732 On ch=10 n=51 v=75
8738 On ch=10 n=51 v=0
8759 On ch=10 n=36 v=104
8760 On ch=10 n=51 v=100
8776 On ch=10 n=36 v=0
8778 On ch=10 n=51 v=0
8818 On ch=10 n=36 v=86
8819 On ch=10 n=51 v=90
8826 On ch=10 n=36 v=0
8828 On ch=10 n=51 v=0
8848 On ch=10 n=36 v=86
8850 On ch=10 n=51 v=93
8864 On ch=10 n=51 v=0
8868 On ch=10 n=36 v=0
8908 On ch=10 n=36 v=102
8910 On ch=10 n=51 v=113
8921 On ch=10 n=51 v=0
8923 On ch=10 n=36 v=0
8966 On ch=10 n=36 v=89
8968 On ch=10 n=51 v=75
8976 On ch=10 n=51 v=0
8979 On ch=10 n=36 v=0
8997 On ch=10 n=36 v=94
8998 On ch=10 n=51 v=104
9014 On ch=10 n=51 v=0
9019 On ch=10 n=36 v=0
9058 On ch=10 n=51 v=104
9059 On ch=10 n=36 v=100
9067 On ch=10 n=51 v=0
9069 On ch=10 n=36 v=0
9116 On ch=10 n=49 v=108
9118 On ch=10 n=51 v=93
9120 On ch=10 n=36 v=115
9123 On ch=10 n=51 v=0
9124 On ch=10 n=49 v=0
9180 On ch=10 n=36 v=0
9211 On ch=10 n=36 v=65
9218 On ch=10 n=36 v=0
9239 On ch=10 n=36 v=87
9239 On ch=10 n=51 v=70
9245 On ch=10 n=51 v=0
9254 On ch=10 n=36 v=0
9300 On ch=10 n=49 v=85
9300 On ch=10 n=51 v=96
9302 On ch=10 n=51 v=0
9302 On ch=10 n=49 v=0
9302 On ch=10 n=36 v=115
9340 On ch=10 n=36 v=0
9418 On ch=10 n=51 v=80
9421 On ch=10 n=36 v=102
9427 On ch=10 n=51 v=0
9480 On ch=10 n=51 v=100
9485 On ch=10 n=51 v=0
9485 On ch=10 n=36 v=0
9539 On ch=10 n=51 v=90
9540 On ch=10 n=36 v=89
9544 On ch=10 n=51 v=0
9556 On ch=10 n=36 v=0
9599 On ch=10 n=36 v=107
9599 On ch=10 n=49 v=108
9600 On ch=10 n=51 v=104
9603 On ch=10 n=51 v=0
9612 On ch=10 n=49 v=0
9648 On ch=10 n=36 v=0
9659 On ch=10 n=51 v=90
9663 On ch=10 n=51 v=0
9688 On ch=10 n=36 v=79
9688 On ch=10 n=51 v=82
9694 On ch=10 n=51 v=0
9696 On ch=10 n=36 v=0
9716 On ch=10 n=36 v=90
9716 On ch=10 n=51 v=78
9725 On ch=10 n=51 v=0
9744 On ch=10 n=36 v=0
9777 On ch=10 n=49 v=113
9778 On ch=10 n=51 v=100
9780 On ch=10 n=36 v=107
9781 On ch=10 n=51 v=0
9783 On ch=10 n=49 v=0
9848 On ch=10 n=36 v=0
9895 On ch=10 n=51 v=93
9899 On ch=10 n=36 v=104
9900 On ch=10 n=51 v=0
9958 On ch=10 n=51 v=100
9963 On ch=10 n=51 v=0
9970 On ch=10 n=36 v=0
10019 On ch=10 n=51 v=85
10022 On ch=10 n=36 v=92
10025 On ch=10 n=51 v=0
10036 On ch=10 n=36 v=0
10049 On ch=10 n=51 v=80
10056 On ch=10 n=51 v=0
10080 On ch=10 n=36 v=102
10081 On ch=10 n=49 v=93
10081 On ch=10 n=51 v=78
10091 On ch=10 n=51 v=0
10094 On ch=10 n=49 v=0
10116 On ch=10 n=36 v=0
10144 On ch=10 n=51 v=90
10150 On ch=10 n=51 v=0
10167 On ch=10 n=36 v=81
10174 On ch=10 n=51 v=70
10177 On ch=10 n=36 v=0
10180 On ch=10 n=51 v=0
10195 On ch=10 n=36 v=89
10204 On ch=10 n=51 v=90
10205 On ch=10 n=49 v=66
10212 On ch=10 n=49 v=0
10216 On ch=10 n=51 v=0
10222 On ch=10 n=36 v=0
10261 On ch=10 n=36 v=98
10263 On ch=10 n=51 v=80
10265 On ch=10 n=51 v=0
10273 On ch=10 n=36 v=0
10318 On ch=10 n=49 v=100
10318 On ch=10 n=51 v=93
10321 On ch=10 n=51 v=0
10321 On ch=10 n=36 v=98
10322 On ch=10 n=49 v=0
10342 On ch=10 n=36 v=0
10378 On ch=10 n=51 v=76
10384 On ch=10 n=51 v=0
10408 On ch=10 n=51 v=82
10412 On ch=10 n=36 v=90
10414 On ch=10 n=51 v=0
10423 On ch=10 n=36 v=0
10438 On ch=10 n=51 v=96
10439 On ch=10 n=36 v=83
10447 On ch=10 n=51 v=0
10460 On ch=10 n=36 v=0
10501 On ch=10 n=51 v=76
10502 On ch=10 n=36 v=100
10506 On ch=10 n=51 v=0
10515 On ch=10 n=36 v=0
10558 On ch=10 n=49 v=100
10559 On ch=10 n=51 v=90
10561 On ch=10 n=51 v=0
10561 On ch=10 n=49 v=0
10562 On ch=10 n=36 v=107
10581 On ch=10 n=36 v=0
10620 On ch=10 n=51 v=63
10621 On ch=10 n=51 v=0
10621 On ch=10 n=36 v=89
10633 On ch=10 n=36 v=0
10649 On ch=10 n=51 v=85
10655 On ch=10 n=51 v=0
10680 On ch=10 n=51 v=93
10682 On ch=10 n=36 v=102
10691 On ch=10 n=51 v=0
10701 On ch=10 n=36 v=0
10740 On ch=10 n=36 v=82
10740 On ch=10 n=51 v=96
10747 On ch=10 n=51 v=0
10751 On ch=10 n=36 v=0
10772 On ch=10 n=36 v=94
10788 On ch=10 n=36 v=0
10801 On ch=10 n=51 v=93
10809 On ch=10 n=51 v=0
10831 On ch=10 n=36 v=102
10844 On ch=10 n=36 v=0
10862 On ch=10 n=51 v=96
10869 On ch=10 n=51 v=0
10891 On ch=10 n=36 v=75
10897 On ch=10 n=36 v=0
10917 On ch=10 n=36 v=84
10920 On ch=10 n=51 v=113
10929 On ch=10 n=51 v=0
10938 On ch=10 n=36 v=0
10978 On ch=10 n=51 v=85
10982 On ch=10 n=36 v=102
10983 On ch=10 n=51 v=0
10991 On ch=10 n=36 v=0
11039 On ch=10 n=49 v=113
11039 On ch=10 n=51 v=104
11042 On ch=10 n=51 v=0
11042 On ch=10 n=36 v=98
11047 On ch=10 n=49 v=0
11056 On ch=10 n=36 v=0
11100 On ch=10 n=51 v=87
11102 On ch=10 n=36 v=89
11106 On ch=10 n=51 v=0
11115 On ch=10 n=36 v=0
11132 On ch=10 n=51 v=93
11138 On ch=10 n=51 v=0
11160 On ch=10 n=51 v=93
11162 On ch=10 n=36 v=104
11171 On ch=10 n=51 v=0
11181 On ch=10 n=36 v=0
11218 On ch=10 n=49 v=104
11220 On ch=10 n=51 v=73
11223 On ch=10 n=51 v=0
11224 On ch=10 n=36 v=89
11226 On ch=10 n=49 v=0
11231 On ch=10 n=36 v=0
11337 On ch=10 n=51 v=108
11340 On ch=10 n=36 v=102
11343 On ch=10 n=51 v=0
11357 On ch=10 n=36 v=0
11398 On ch=10 n=51 v=96
11400 On ch=10 n=36 v=109
11408 On ch=10 n=51 v=0
11415 On ch=10 n=36 v=0
11459 On ch=10 n=36 v=87
11459 On ch=10 n=51 v=96
11466 On ch=10 n=51 v=0
11468 On ch=10 n=36 v=0
11489 On ch=10 n=51 v=85
11498 On ch=10 n=51 v=0
11520 On ch=10 n=36 v=104
11520 On ch=10 n=49 v=104
11530 On ch=10 n=49 v=0
11535 On ch=10 n=36 v=0
11584 On ch=10 n=51 v=66
11587 On ch=10 n=51 v=0
11606 On ch=10 n=36 v=90
11612 On ch=10 n=51 v=87
11618 On ch=10 n=51 v=0
11621 On ch=10 n=36 v=0
11638 On ch=10 n=36 v=90
11642 On ch=10 n=51 v=76
11651 On ch=10 n=51 v=0
11656 On ch=10 n=36 v=0
11700 On ch=10 n=36 v=112
11702 On ch=10 n=49 v=100
11702 On ch=10 n=51 v=82
11704 On ch=10 n=51 v=0
11709 On ch=10 n=49 v=0
11757 On ch=10 n=36 v=0
11816 On ch=10 n=51 v=100
11821 On ch=10 n=36 v=102
11822 On ch=10 n=51 v=0
11833 On ch=10 n=36 v=0
11877 On ch=10 n=51 v=90
11882 On ch=10 n=36 v=100
11885 On ch=10 n=51 v=0
11893 On ch=10 n=36 v=0
11937 On ch=10 n=51 v=96
11938 On ch=10 n=36 v=94
11942 On ch=10 n=51 v=0
11950 On ch=10 n=36 v=0
11997 On ch=10 n=49 v=108
11998 On ch=10 n=51 v=104
12000 On ch=10 n=36 v=109
12003 On ch=10 n=51 v=0
12003 On ch=10 n=49 v=0
12018 On ch=10 n=36 v=0
12059 On ch=10 n=51 v=90
12062 On ch=10 n=51 v=0
12090 On ch=10 n=51 v=80
12096 On ch=10 n=51 v=0
12119 On ch=10 n=51 v=100
12124 On ch=10 n=36 v=94
12131 On ch=10 n=51 v=0
12142 On ch=10 n=36 v=0
12180 On ch=10 n=36 v=73
12182 On ch=10 n=51 v=87
12188 On ch=10 n=51 v=0
12197 On ch=10 n=36 v=0
12212 On ch=10 n=51 v=90
12216 On ch=10 n=51 v=0
12240 On ch=10 n=49 v=104
12240 On ch=10 n=51 v=87
12242 On ch=10 n=51 v=0
12242 On ch=10 n=36 v=100
12251 On ch=10 n=49 v=0
12300 On ch=10 n=36 v=0
12304 On ch=10 n=51 v=66
12310 On ch=10 n=51 v=0
12333 On ch=10 n=51 v=65
12340 On ch=10 n=51 v=0
12364 On ch=10 n=36 v=100
12364 On ch=10 n=51 v=104
12374 On ch=10 n=51 v=0
12380 On ch=10 n=36 v=0
12422 On ch=10 n=36 v=96
12423 On ch=10 n=51 v=87
12432 On ch=10 n=51 v=0
12433 On ch=10 n=36 v=0
12453 On ch=10 n=51 v=57
12456 On ch=10 n=51 v=0
12481 On ch=10 n=49 v=108
12481 On ch=10 n=51 v=96
12484 On ch=10 n=36 v=107
12492 On ch=10 n=51 v=0
12496 On ch=10 n=49 v=0
12502 On ch=10 n=36 v=0
12540 On ch=10 n=36 v=84
12542 On ch=10 n=51 v=85
12547 On ch=10 n=51 v=0
12553 On ch=10 n=36 v=0
12574 On ch=10 n=51 v=85
12581 On ch=10 n=51 v=0
12600 On ch=10 n=36 v=107
12603 On ch=10 n=51 v=90
12609 On ch=10 n=51 v=0
12622 On ch=10 n=36 v=0
12660 On ch=10 n=36 v=86
12673 On ch=10 n=36 v=0
12692 On ch=10 n=51 v=100
12701 On ch=10 n=51 v=0
12720 On ch=10 n=36 v=102
12722 On ch=10 n=51 v=96
12733 On ch=10 n=51 v=0
12742 On ch=10 n=36 v=0
12780 On ch=10 n=36 v=86
12782 On ch=10 n=51 v=100
12787 On ch=10 n=51 v=0
12792 On ch=10 n=36 v=0
12812 On ch=10 n=51 v=96
12822 On ch=10 n=51 v=0
12842 On ch=10 n=36 v=104
12843 On ch=10 n=51 v=100
12855 On ch=10 n=51 v=0
12863 On ch=10 n=36 v=0
12899 On ch=10 n=36 v=82
12899 On ch=10 n=51 v=87
12900 On ch=10 n=51 v=0
12912 On ch=10 n=36 v=0
12958 On ch=10 n=49 v=108
12959 On ch=10 n=51 v=113
12960 On ch=10 n=36 v=107
12961 On ch=10 n=51 v=0
12961 On ch=10 n=49 v=0
12976 On ch=10 n=36 v=0
13017 On ch=10 n=51 v=104
13020 On ch=10 n=36 v=100
13027 On ch=10 n=51 v=0
13034 On ch=10 n=36 v=0
13080 On ch=10 n=36 v=102
13080 On ch=10 n=51 v=108
13093 On ch=10 n=51 v=0
13100 On ch=10 n=36 v=0
13140 On ch=10 n=51 v=87
13142 On ch=10 n=36 v=96
13145 On ch=10 n=51 v=0
13155 On ch=10 n=36 v=0
13170 On ch=10 n=49 v=68
13170 On ch=10 n=51 v=100
13173 On ch=10 n=36 v=89
13178 On ch=10 n=49 v=0
13183 On ch=10 n=51 v=0
13191 On ch=10 n=36 v=0
13232 On ch=10 n=36 v=100
13232 On ch=10 n=49 v=78
13233 On ch=10 n=51 v=108
13239 On ch=10 n=51 v=0
13239 On ch=10 n=49 v=0
13247 On ch=10 n=36 v=0
13290 On ch=10 n=36 v=87
13290 On ch=10 n=51 v=76
13295 On ch=10 n=51 v=0
13300 On ch=10 n=36 v=0
13318 On ch=10 n=36 v=89
13318 On ch=10 n=51 v=100
13330 On ch=10 n=51 v=0
13339 On ch=10 n=36 v=0
13377 On ch=10 n=51 v=100
13382 On ch=10 n=36 v=100
13388 On ch=10 n=51 v=0
13394 On ch=10 n=36 v=0
13410 On ch=10 n=51 v=96
13415 On ch=10 n=51 v=0
13440 On ch=10 n=36 v=100
13442 On ch=10 n=49 v=93
13442 On ch=10 n=51 v=108
13452 On ch=10 n=51 v=0
13452 On ch=10 n=49 v=0
13458 On ch=10 n=36 v=0
13497 On ch=10 n=51 v=82
13500 On ch=10 n=36 v=89
13504 On ch=10 n=51 v=0
13515 On ch=10 n=36 v=0
13560 On ch=10 n=36 v=104
13560 On ch=10 n=51 v=113
13571 On ch=10 n=51 v=0
13581 On ch=10 n=36 v=0
13622 On ch=10 n=36 v=94
13622 On ch=10 n=51 v=104
13628 On ch=10 n=51 v=0
13634 On ch=10 n=36 v=0
13652 On ch=10 n=36 v=94
13653 On ch=10 n=49 v=87
13653 On ch=10 n=51 v=108
13656 On ch=10 n=49 v=0
13661 On ch=10 n=51 v=0
13671 On ch=10 n=36 v=0
13710 On ch=10 n=51 v=104
13712 On ch=10 n=36 v=100
13721 On ch=10 n=51 v=0
13727 On ch=10 n=36 v=0
13769 On ch=10 n=36 v=83
13769 On ch=10 n=51 v=90
13777 On ch=10 n=51 v=0
13779 On ch=10 n=36 v=0
13798 On ch=10 n=36 v=87
13798 On ch=10 n=51 v=96
13799 On ch=10 n=49 v=59
13801 On ch=10 n=49 v=0
13811 On ch=10 n=51 v=0
13818 On ch=10 n=36 v=0
13858 On ch=10 n=51 v=108
13861 On ch=10 n=36 v=107
13867 On ch=10 n=51 v=0
13873 On ch=10 n=36 v=0
13918 On ch=10 n=51 v=93
13922 On ch=10 n=36 v=104
13929 On ch=10 n=51 v=0
13933 On ch=10 n=36 v=0
13980 On ch=10 n=51 v=82
13982 On ch=10 n=51 v=0
13982 On ch=10 n=36 v=100
13994 On ch=10 n=36 v=0
14040 On ch=10 n=36 v=104
14042 On ch=10 n=51 v=104
14052 On ch=10 n=51 v=0
14058 On ch=10 n=36 v=0
14100 On ch=10 n=36 v=96
14102 On ch=10 n=51 v=82
14108 On ch=10 n=51 v=0
14115 On ch=10 n=36 v=0
14130 On ch=10 n=36 v=92
14133 On ch=10 n=51 v=87
14140 On ch=10 n=51 v=0
14150 On ch=10 n=36 v=0
14189 On ch=10 n=36 v=102
14191 On ch=10 n=51 v=96
14204 On ch=10 n=51 v=0
14205 On ch=10 n=36 v=0
14250 On ch=10 n=36 v=89
14250 On ch=10 n=51 v=90
14257 On ch=10 n=51 v=0
14263 On ch=10 n=36 v=0
14278 On ch=10 n=36 v=92
14280 On ch=10 n=51 v=96
14294 On ch=10 n=51 v=0
14303 On ch=10 n=36 v=0
14339 On ch=10 n=36 v=98
14340 On ch=10 n=51 v=108
14352 On ch=10 n=51 v=0
14354 On ch=10 n=36 v=0
14400 On ch=10 n=36 v=98
14400 On ch=10 n=51 v=93
14411 On ch=10 n=51 v=0
14416 On ch=10 n=36 v=0
14460 On ch=10 n=51 v=100
14461 On ch=10 n=36 v=94
14471 On ch=10 n=51 v=0
14479 On ch=10 n=36 v=0
14521 On ch=10 n=51 v=113
14522 On ch=10 n=36 v=100
14536 On ch=10 n=51 v=0
14537 On ch=10 n=36 v=0
14578 On ch=10 n=51 v=87
14580 On ch=10 n=36 v=90
14582 On ch=10 n=51 v=0
14596 On ch=10 n=36 v=0
14610 On ch=10 n=51 v=96
14612 On ch=10 n=36 v=84
14622 On ch=10 n=51 v=0
14632 On ch=10 n=36 v=0
14670 On ch=10 n=51 v=108
14672 On ch=10 n=36 v=98
14679 On ch=10 n=51 v=0
14690 On ch=10 n=36 v=0
14728 On ch=10 n=51 v=93
14732 On ch=10 n=36 v=90
14735 On ch=10 n=51 v=0
14744 On ch=10 n=36 v=0
14758 On ch=10 n=51 v=100
14760 On ch=10 n=36 v=89
14769 On ch=10 n=51 v=0
14781 On ch=10 n=36 v=0
14820 On ch=10 n=51 v=104
14821 On ch=10 n=51 v=0
14822 On ch=10 n=36 v=102
14839 On ch=10 n=36 v=0
14879 On ch=10 n=49 v=108
14879 On ch=10 n=51 v=113
14881 On ch=10 n=36 v=98
14884 On ch=10 n=51 v=0
14884 On ch=10 n=49 v=0
14902 On ch=10 n=36 v=0
14940 On ch=10 n=36 v=90
14940 On ch=10 n=51 v=100
14953 On ch=10 n=51 v=0
14960 On ch=10 n=36 v=0
15001 On ch=10 n=51 v=100
15002 On ch=10 n=36 v=100
15017 On ch=10 n=51 v=0
15019 On ch=10 n=36 v=0
15058 On ch=10 n=51 v=90
15060 On ch=10 n=36 v=90
15061 On ch=10 n=51 v=0
15075 On ch=10 n=36 v=0
15088 On ch=10 n=51 v=104
15090 On ch=10 n=36 v=83
15105 On ch=10 n=51 v=0
15113 On ch=10 n=36 v=0
15148 On ch=10 n=51 v=119
15152 On ch=10 n=36 v=100
15161 On ch=10 n=51 v=0
15171 On ch=10 n=36 v=0
15209 On ch=10 n=51 v=104
15210 On ch=10 n=36 v=90
15220 On ch=10 n=51 v=0
15224 On ch=10 n=36 v=0
15238 On ch=10 n=36 v=84
15241 On ch=10 n=51 v=100
15253 On ch=10 n=51 v=0
15263 On ch=10 n=36 v=0
15298 On ch=10 n=51 v=108
15301 On ch=10 n=36 v=104
15307 On ch=10 n=51 v=0
15317 On ch=10 n=36 v=0
15329 On ch=10 n=51 v=100
15339 On ch=10 n=51 v=0
15361 On ch=10 n=49 v=100
15361 On ch=10 n=51 v=100
15363 On ch=10 n=51 v=0
15365 On ch=10 n=49 v=0
15365 On ch=10 n=36 v=98
15377 On ch=10 n=36 v=0
15421 On ch=10 n=51 v=108
15422 On ch=10 n=36 v=96
15433 On ch=10 n=51 v=0
15440 On ch=10 n=36 v=0
15454 On ch=10 n=51 v=85
15464 On ch=10 n=51 v=0
15480 On ch=10 n=36 v=100
15482 On ch=10 n=51 v=93
15496 On ch=10 n=51 v=0
15502 On ch=10 n=36 v=0
15539 On ch=10 n=51 v=82
15540 On ch=10 n=36 v=84
15546 On ch=10 n=51 v=0
15555 On ch=10 n=36 v=0
15569 On ch=10 n=51 v=90
15572 On ch=10 n=36 v=92
15581 On ch=10 n=51 v=0
15593 On ch=10 n=36 v=0
15629 On ch=10 n=51 v=119
15632 On ch=10 n=36 v=100
15639 On ch=10 n=51 v=0
15650 On ch=10 n=36 v=0
15689 On ch=10 n=51 v=82
15690 On ch=10 n=36 v=82
15696 On ch=10 n=51 v=0
15707 On ch=10 n=36 v=0
15718 On ch=10 n=36 v=79
15719 On ch=10 n=51 v=96
15723 On ch=10 n=51 v=0
15741 On ch=10 n=36 v=0
15748 On ch=10 n=51 v=90
15760 On ch=10 n=51 v=0
15779 On ch=10 n=36 v=100
15779 On ch=10 n=51 v=100
15789 On ch=10 n=51 v=0
15799 On ch=10 n=36 v=0
15840 On ch=10 n=49 v=104
15840 On ch=10 n=51 v=100
15841 On ch=10 n=51 v=0
15841 On ch=10 n=36 v=104
15847 On ch=10 n=49 v=0
15859 On ch=10 n=36 v=0
15901 On ch=10 n=51 v=96
15902 On ch=10 n=36 v=96
15910 On ch=10 n=51 v=0
15914 On ch=10 n=36 v=0
15962 On ch=10 n=36 v=98
15962 On ch=10 n=51 v=104
15973 On ch=10 n=51 v=0
15981 On ch=10 n=36 v=0
16019 On ch=10 n=36 v=87
16019 On ch=10 n=51 v=93
16030 On ch=10 n=51 v=0
16037 On ch=10 n=36 v=0
16050 On ch=10 n=51 v=100
16053 On ch=10 n=36 v=86
16065 On ch=10 n=51 v=0
16070 On ch=10 n=36 v=0
16109 On ch=10 n=51 v=119
16112 On ch=10 n=36 v=98
16122 On ch=10 n=51 v=0
16127 On ch=10 n=36 v=0
16170 On ch=10 n=36 v=89
16170 On ch=10 n=51 v=82
16171 On ch=10 n=51 v=0
16187 On ch=10 n=36 v=0
16199 On ch=10 n=51 v=96
16200 On ch=10 n=36 v=81
16216 On ch=10 n=51 v=0
16221 On ch=10 n=36 v=0
16258 On ch=10 n=51 v=100
16259 On ch=10 n=36 v=98
16267 On ch=10 n=51 v=0
16281 On ch=10 n=36 v=0
16289 On ch=10 n=51 v=93
16299 On ch=10 n=51 v=0
16320 On ch=10 n=36 v=96
16320 On ch=10 n=49 v=100
16320 On ch=10 n=51 v=100
16325 On ch=10 n=51 v=0
16334 On ch=10 n=49 v=0
16342 On ch=10 n=36 v=0
16382 On ch=10 n=36 v=100
16383 On ch=10 n=51 v=96
16393 On ch=10 n=51 v=0
16398 On ch=10 n=36 v=0
16442 On ch=10 n=51 v=104
16443 On ch=10 n=36 v=107
16457 On ch=10 n=51 v=0
16461 On ch=10 n=36 v=0
16498 On ch=10 n=51 v=85
16500 On ch=10 n=36 v=94
16512 On ch=10 n=51 v=0
16520 On ch=10 n=36 v=0
16530 On ch=10 n=51 v=100
16531 On ch=10 n=36 v=89
16548 On ch=10 n=51 v=0
16549 On ch=10 n=36 v=0
16590 On ch=10 n=36 v=107
16590 On ch=10 n=51 v=108
16604 On ch=10 n=51 v=0
16607 On ch=10 n=36 v=0
16649 On ch=10 n=36 v=98
16649 On ch=10 n=51 v=87
16651 On ch=10 n=51 v=0
16664 On ch=10 n=36 v=0
16678 On ch=10 n=36 v=84
16679 On ch=10 n=51 v=93
16696 On ch=10 n=51 v=0
16700 On ch=10 n=36 v=0
16739 On ch=10 n=36 v=104
16739 On ch=10 n=51 v=104
16748 On ch=10 n=51 v=0
16755 On ch=10 n=36 v=0
16800 On ch=10 n=36 v=107
16801 On ch=10 n=49 v=108
16801 On ch=10 n=51 v=113
16811 On ch=10 n=51 v=0
16816 On ch=10 n=49 v=0
16821 On ch=10 n=36 v=0
16860 On ch=10 n=36 v=102
16864 On ch=10 n=51 v=87
16872 On ch=10 n=51 v=0
16877 On ch=10 n=36 v=0
16920 On ch=10 n=51 v=96
16922 On ch=10 n=36 v=107
16936 On ch=10 n=51 v=0
16943 On ch=10 n=36 v=0
16979 On ch=10 n=51 v=90
16980 On ch=10 n=36 v=89
16987 On ch=10 n=51 v=0
16997 On ch=10 n=36 v=0
17010 On ch=10 n=36 v=94
17010 On ch=10 n=51 v=90
17022 On ch=10 n=51 v=0
17034 On ch=10 n=36 v=0
17069 On ch=10 n=51 v=113
17070 On ch=10 n=36 v=112
17078 On ch=10 n=51 v=0
17090 On ch=10 n=36 v=0
17127 On ch=10 n=51 v=100
17130 On ch=10 n=36 v=100
17134 On ch=10 n=51 v=0
17145 On ch=10 n=36 v=0
17158 On ch=10 n=51 v=100
17159 On ch=10 n=36 v=96
17173 On ch=10 n=51 v=0
17182 On ch=10 n=36 v=0
17218 On ch=10 n=51 v=108
17220 On ch=10 n=36 v=112
17222 On ch=10 n=51 v=0
17239 On ch=10 n=36 v=0
17279 On ch=10 n=49 v=127
17279 On ch=10 n=51 v=113
17281 On ch=10 n=51 v=0
17281 On ch=10 n=49 v=0
17282 On ch=10 n=36 v=115
17311 On ch=10 n=36 v=0
17755 On ch=10 n=49 v=113
17756 On ch=10 n=51 v=100
17758 On ch=10 n=36 v=115
17761 On ch=10 n=51 v=0
17766 On ch=10 n=49 v=0
17813 On ch=10 n=36 v=0
17847 On ch=10 n=36 v=92
17876 On ch=10 n=51 v=104
17878 On ch=10 n=49 v=52
17881 On ch=10 n=49 v=0
17884 On ch=10 n=51 v=0
17887 On ch=10 n=36 v=0
17939 On ch=10 n=49 v=104
17939 On ch=10 n=51 v=80
17940 On ch=10 n=51 v=0
17940 On ch=10 n=36 v=107
17944 On ch=10 n=49 v=0
18014 On ch=10 n=36 v=0
18059 On ch=10 n=36 v=109
18060 On ch=10 n=51 v=93
18065 On ch=10 n=51 v=0
18122 On ch=10 n=51 v=96
18127 On ch=10 n=51 v=0
18133 On ch=10 n=36 v=0
18179 On ch=10 n=36 v=102
18181 On ch=10 n=51 v=87
18181 On ch=10 n=51 v=0
18195 On ch=10 n=36 v=0
18210 On ch=10 n=51 v=96
18220 On ch=10 n=51 v=0
18240 On ch=10 n=36 v=104
18240 On ch=10 n=49 v=104
18250 On ch=10 n=49 v=0
18264 On ch=10 n=36 v=0
18302 On ch=10 n=51 v=85
18308 On ch=10 n=51 v=0
18330 On ch=10 n=36 v=102
18332 On ch=10 n=51 v=82
18342 On ch=10 n=51 v=0
18362 On ch=10 n=51 v=93
18375 On ch=10 n=51 v=0
18375 On ch=10 n=36 v=0
18422 On ch=10 n=51 v=108
18423 On ch=10 n=36 v=109
18432 On ch=10 n=51 v=0
18452 On ch=10 n=51 v=93
18465 On ch=10 n=51 v=0
18482 On ch=10 n=51 v=82
18487 On ch=10 n=36 v=0
18495 On ch=10 n=51 v=0
18539 On ch=10 n=36 v=104
18542 On ch=10 n=51 v=96
18548 On ch=10 n=51 v=0
18572 On ch=10 n=51 v=90
18579 On ch=10 n=51 v=0
18602 On ch=10 n=51 v=96
18610 On ch=10 n=36 v=0
18615 On ch=10 n=51 v=0
18659 On ch=10 n=36 v=102
18662 On ch=10 n=51 v=108
18671 On ch=10 n=51 v=0
18675 On ch=10 n=36 v=0
18719 On ch=10 n=36 v=100
18720 On ch=10 n=49 v=100
18720 On ch=10 n=51 v=87
18730 On ch=10 n=51 v=0
18730 On ch=10 n=49 v=0
18771 On ch=10 n=36 v=0
18782 On ch=10 n=51 v=85
18789 On ch=10 n=51 v=0
18809 On ch=10 n=36 v=98
18811 On ch=10 n=38 v=70
18811 On ch=10 n=51 v=93
18823 On ch=10 n=38 v=0
18826 On ch=10 n=51 v=0
18840 On ch=10 n=51 v=87
18849 On ch=10 n=36 v=0
18861 On ch=10 n=51 v=0
18902 On ch=10 n=51 v=85
18903 On ch=10 n=36 v=109
18910 On ch=10 n=51 v=0
18921 On ch=10 n=36 v=0
18932 On ch=10 n=51 v=90
18942 On ch=10 n=51 v=0
18961 On ch=10 n=51 v=93
18962 On ch=10 n=36 v=89
18964 On ch=10 n=35 v=84
18971 On ch=10 n=35 v=0
18975 On ch=10 n=36 v=0
18977 On ch=10 n=51 v=0
19022 On ch=10 n=36 v=100
19022 On ch=10 n=51 v=104
19030 On ch=10 n=51 v=0
19083 On ch=10 n=51 v=119
19093 On ch=10 n=51 v=0
19094 On ch=10 n=36 v=0
19141 On ch=10 n=51 v=90
19142 On ch=10 n=36 v=84
19148 On ch=10 n=51 v=0
19158 On ch=10 n=36 v=0
19199 On ch=10 n=49 v=87
19199 On ch=10 n=51 v=76
19200 On ch=10 n=36 v=109
19202 On ch=10 n=51 v=0
19202 On ch=10 n=49 v=0
19240 On ch=10 n=36 v=0
19261 On ch=10 n=51 v=78
19267 On ch=10 n=51 v=0
19287 On ch=10 n=36 v=89
19299 On ch=10 n=36 v=0
19316 On ch=10 n=36 v=92
19324 On ch=10 n=51 v=113
19333 On ch=10 n=51 v=0
19344 On ch=10 n=36 v=0
19380 On ch=10 n=36 v=100
19382 On ch=10 n=51 v=96
19392 On ch=10 n=51 v=0
19396 On ch=10 n=36 v=0
19413 On ch=10 n=51 v=96
19423 On ch=10 n=51 v=0
19440 On ch=10 n=36 v=90
19442 On ch=10 n=51 v=90
19454 On ch=10 n=51 v=0
19459 On ch=10 n=36 v=0
19501 On ch=10 n=51 v=90
19502 On ch=10 n=36 v=84
19506 On ch=10 n=51 v=0
19517 On ch=10 n=36 v=0
19530 On ch=10 n=51 v=85
19542 On ch=10 n=51 v=0
19560 On ch=10 n=36 v=90
19560 On ch=10 n=51 v=87
19573 On ch=10 n=51 v=0
19581 On ch=10 n=36 v=0
19619 On ch=10 n=36 v=72
19621 On ch=10 n=51 v=108
19631 On ch=10 n=51 v=0
19639 On ch=10 n=36 v=0
19679 On ch=10 n=49 v=119
19680 On ch=10 n=36 v=96
19680 On ch=10 n=51 v=113
19687 On ch=10 n=51 v=0
19688 On ch=10 n=49 v=0
19696 On ch=10 n=36 v=0
19740 On ch=10 n=36 v=92
19740 On ch=10 n=51 v=90
19751 On ch=10 n=51 v=0
19756 On ch=10 n=36 v=0
19800 On ch=10 n=36 v=94
19800 On ch=10 n=51 v=119
19813 On ch=10 n=51 v=0
19823 On ch=10 n=36 v=0
19858 On ch=10 n=51 v=85
19861 On ch=10 n=36 v=94
19864 On ch=10 n=51 v=0
19877 On ch=10 n=36 v=0
19890 On ch=10 n=36 v=89
19890 On ch=10 n=51 v=113
19899 On ch=10 n=51 v=0
19911 On ch=10 n=36 v=0
19947 On ch=10 n=51 v=113
19950 On ch=10 n=36 v=100
19958 On ch=10 n=51 v=0
19967 On ch=10 n=36 v=0
20008 On ch=10 n=51 v=87
20009 On ch=10 n=36 v=90
20010 On ch=10 n=51 v=0
20023 On ch=10 n=36 v=0
20037 On ch=10 n=36 v=86
20037 On ch=10 n=51 v=100
20050 On ch=10 n=51 v=0
20067 On ch=10 n=36 v=0
20098 On ch=10 n=36 v=94
20098 On ch=10 n=51 v=96
20104 On ch=10 n=51 v=0
20111 On ch=10 n=36 v=0
20128 On ch=10 n=51 v=96
20129 On ch=10 n=36 v=89
20137 On ch=10 n=51 v=0
20142 On ch=10 n=36 v=0
20158 On ch=10 n=36 v=100
20158 On ch=10 n=49 v=104
20159 On ch=10 n=51 v=73
20161 On ch=10 n=51 v=0
20169 On ch=10 n=49 v=0
20179 On ch=10 n=36 v=0
20219 On ch=10 n=36 v=98
20220 On ch=10 n=51 v=85
20228 On ch=10 n=51 v=0
20232 On ch=10 n=36 v=0
20253 On ch=10 n=51 v=80
20260 On ch=10 n=51 v=0
20279 On ch=10 n=36 v=102
20280 On ch=10 n=51 v=96
20296 On ch=10 n=51 v=0
20296 On ch=10 n=36 v=0
20339 On ch=10 n=36 v=84
20340 On ch=10 n=51 v=93
20348 On ch=10 n=51 v=0
20349 On ch=10 n=36 v=0
20368 On ch=10 n=36 v=86
20371 On ch=10 n=51 v=104
20380 On ch=10 n=51 v=0
20386 On ch=10 n=36 v=0
20428 On ch=10 n=51 v=113
20430 On ch=10 n=36 v=96
20435 On ch=10 n=51 v=0
20445 On ch=10 n=36 v=0
20488 On ch=10 n=51 v=104
20490 On ch=10 n=36 v=86
20491 On ch=10 n=51 v=0
20502 On ch=10 n=36 v=0
20519 On ch=10 n=36 v=89
20519 On ch=10 n=51 v=104
20531 On ch=10 n=51 v=0
20541 On ch=10 n=36 v=0
20579 On ch=10 n=51 v=93
20580 On ch=10 n=36 v=89
20585 On ch=10 n=51 v=0
20594 On ch=10 n=36 v=0
20608 On ch=10 n=51 v=90
20609 On ch=10 n=36 v=76
20618 On ch=10 n=51 v=0
20626 On ch=10 n=36 v=0
20639 On ch=10 n=36 v=90
20640 On ch=10 n=49 v=104
20640 On ch=10 n=51 v=93
20648 On ch=10 n=51 v=0
20655 On ch=10 n=49 v=0
20663 On ch=10 n=36 v=0
20700 On ch=10 n=36 v=96
20702 On ch=10 n=51 v=100
20707 On ch=10 n=51 v=0
20713 On ch=10 n=36 v=0
20733 On ch=10 n=51 v=96
20744 On ch=10 n=51 v=0
20762 On ch=10 n=36 v=104
20762 On ch=10 n=51 v=90
20777 On ch=10 n=51 v=0
20778 On ch=10 n=36 v=0
20820 On ch=10 n=36 v=82
20821 On ch=10 n=51 v=96
20828 On ch=10 n=51 v=0
20828 On ch=10 n=36 v=0
20850 On ch=10 n=36 v=92
20852 On ch=10 n=51 v=104
20861 On ch=10 n=51 v=0
20869 On ch=10 n=36 v=0
20909 On ch=10 n=51 v=113
20910 On ch=10 n=36 v=102
20919 On ch=10 n=51 v=0
20929 On ch=10 n=36 v=0
20966 On ch=10 n=51 v=87
20968 On ch=10 n=36 v=79
20972 On ch=10 n=51 v=0
20980 On ch=10 n=36 v=0
20996 On ch=10 n=36 v=94
20997 On ch=10 n=51 v=108
21009 On ch=10 n=51 v=0
21022 On ch=10 n=36 v=0
21057 On ch=10 n=51 v=100
21061 On ch=10 n=36 v=102
21065 On ch=10 n=51 v=0
21074 On ch=10 n=36 v=0
21118 On ch=10 n=49 v=119
21120 On ch=10 n=51 v=108
21120 On ch=10 n=51 v=0
21122 On ch=10 n=36 v=107
21125 On ch=10 n=49 v=0
21138 On ch=10 n=36 v=0
21176 On ch=10 n=51 v=53
21183 On ch=10 n=36 v=78
21184 On ch=10 n=51 v=0
21190 On ch=10 n=36 v=0
21212 On ch=10 n=36 v=72
21223 On ch=10 n=36 v=0
21240 On ch=10 n=36 v=87
21240 On ch=10 n=51 v=100
21242 On ch=10 n=49 v=65
21246 On ch=10 n=49 v=0
21253 On ch=10 n=51 v=0
21260 On ch=10 n=36 v=0
21302 On ch=10 n=36 v=82
21303 On ch=10 n=51 v=78
21310 On ch=10 n=51 v=0
21311 On ch=10 n=36 v=0
21332 On ch=10 n=36 v=78
21345 On ch=10 n=36 v=0
21362 On ch=10 n=36 v=92
21363 On ch=10 n=51 v=113
21375 On ch=10 n=51 v=0
21383 On ch=10 n=36 v=0
21420 On ch=10 n=36 v=70
21424 On ch=10 n=51 v=85
21429 On ch=10 n=51 v=0
21433 On ch=10 n=36 v=0
21452 On ch=10 n=36 v=77
21465 On ch=10 n=36 v=0
21480 On ch=10 n=36 v=82
21482 On ch=10 n=51 v=113
21498 On ch=10 n=51 v=0
21509 On ch=10 n=36 v=0
21541 On ch=10 n=51 v=96
21542 On ch=10 n=36 v=98
21553 On ch=10 n=51 v=0
21556 On ch=10 n=36 v=0
21599 On ch=10 n=49 v=104
21599 On ch=10 n=51 v=104
21600 On ch=10 n=36 v=90
21609 On ch=10 n=51 v=0
21609 On ch=10 n=49 v=0
21619 On ch=10 n=36 v=0
21660 On ch=10 n=36 v=83
21660 On ch=10 n=49 v=75
21660 On ch=10 n=51 v=73
21665 On ch=10 n=51 v=0
21669 On ch=10 n=49 v=0
21677 On ch=10 n=36 v=0
21720 On ch=10 n=36 v=92
21720 On ch=10 n=51 v=108
21732 On ch=10 n=51 v=0
21740 On ch=10 n=36 v=0
21778 On ch=10 n=51 v=100
21781 On ch=10 n=36 v=87
21784 On ch=10 n=51 v=0
21794 On ch=10 n=36 v=0
21811 On ch=10 n=36 v=89
21811 On ch=10 n=51 v=113
21824 On ch=10 n=51 v=0
21829 On ch=10 n=36 v=0
21868 On ch=10 n=51 v=104
21870 On ch=10 n=36 v=92
21878 On ch=10 n=51 v=0
21885 On ch=10 n=36 v=0
21927 On ch=10 n=51 v=90
21929 On ch=10 n=36 v=86
21930 On ch=10 n=51 v=0
21935 On ch=10 n=36 v=0
21958 On ch=10 n=36 v=92
21958 On ch=10 n=51 v=104
21971 On ch=10 n=51 v=0
21984 On ch=10 n=36 v=0
22018 On ch=10 n=51 v=104
22022 On ch=10 n=36 v=94
22025 On ch=10 n=51 v=0
22032 On ch=10 n=36 v=0
22049 On ch=10 n=51 v=100
22054 On ch=10 n=36 v=78
22059 On ch=10 n=51 v=0
22064 On ch=10 n=36 v=0
22079 On ch=10 n=51 v=104
22083 On ch=10 n=36 v=89
22092 On ch=10 n=51 v=0
22102 On ch=10 n=36 v=0
22139 On ch=10 n=51 v=104
22142 On ch=10 n=36 v=87
22148 On ch=10 n=51 v=0
22156 On ch=10 n=36 v=0
22171 On ch=10 n=51 v=100
22184 On ch=10 n=51 v=0
22201 On ch=10 n=36 v=102
22201 On ch=10 n=51 v=108
22203 On ch=10 n=35 v=90
22213 On ch=10 n=35 v=0
22217 On ch=10 n=51 v=0
22219 On ch=10 n=36 v=0
22260 On ch=10 n=51 v=100
22261 On ch=10 n=36 v=77
22268 On ch=10 n=51 v=0
22273 On ch=10 n=36 v=0
22289 On ch=10 n=36 v=83
22291 On ch=10 n=51 v=108
22302 On ch=10 n=51 v=0
22310 On ch=10 n=36 v=0
22350 On ch=10 n=36 v=96
22350 On ch=10 n=51 v=113
22360 On ch=10 n=51 v=0
22367 On ch=10 n=36 v=0
22408 On ch=10 n=36 v=84
22408 On ch=10 n=51 v=93
22411 On ch=10 n=51 v=0
22421 On ch=10 n=36 v=0
22437 On ch=10 n=36 v=92
22438 On ch=10 n=51 v=108
22451 On ch=10 n=51 v=0
22460 On ch=10 n=36 v=0
22498 On ch=10 n=51 v=113
22500 On ch=10 n=36 v=102
22508 On ch=10 n=51 v=0
22513 On ch=10 n=36 v=0
22559 On ch=10 n=49 v=104
22559 On ch=10 n=51 v=76
22560 On ch=10 n=51 v=0
22560 On ch=10 n=49 v=0
22560 On ch=10 n=36 v=112
22620 On ch=10 n=36 v=0
22650 On ch=10 n=51 v=90
22652 On ch=10 n=36 v=63
22654 On ch=10 n=36 v=0
22659 On ch=10 n=51 v=0
22680 On ch=10 n=36 v=92
22680 On ch=10 n=51 v=90
22692 On ch=10 n=51 v=0
22696 On ch=10 n=36 v=0
22739 On ch=10 n=49 v=100
22739 On ch=10 n=51 v=93
22743 On ch=10 n=36 v=112
22744 On ch=10 n=51 v=0
22744 On ch=10 n=49 v=0
22814 On ch=10 n=36 v=0
22858 On ch=10 n=51 v=108
22860 On ch=10 n=36 v=94
22867 On ch=10 n=51 v=0
22880 On ch=10 n=36 v=0
22919 On ch=10 n=51 v=100
22926 On ch=10 n=51 v=0
22978 On ch=10 n=36 v=96
22979 On ch=10 n=51 v=104
22985 On ch=10 n=51 v=0
22996 On ch=10 n=36 v=0
23038 On ch=10 n=36 v=102
23039 On ch=10 n=49 v=104
23039 On ch=10 n=51 v=93
23045 On ch=10 n=51 v=0
23045 On ch=10 n=49 v=0
23072 On ch=10 n=36 v=0
23101 On ch=10 n=51 v=90
23104 On ch=10 n=51 v=0
23131 On ch=10 n=36 v=78
23132 On ch=10 n=51 v=96
23140 On ch=10 n=36 v=0
23145 On ch=10 n=51 v=0
23158 On ch=10 n=36 v=87
23160 On ch=10 n=51 v=75
23175 On ch=10 n=51 v=0
23183 On ch=10 n=36 v=0
23218 On ch=10 n=49 v=100
23219 On ch=10 n=36 v=107
23219 On ch=10 n=51 v=71
23221 On ch=10 n=51 v=0
23223 On ch=10 n=49 v=0
23296 On ch=10 n=36 v=0
23334 On ch=10 n=51 v=85
23339 On ch=10 n=36 v=100
23341 On ch=10 n=51 v=0
23396 On ch=10 n=51 v=104
23404 On ch=10 n=51 v=0
23406 On ch=10 n=36 v=0
23458 On ch=10 n=51 v=96
23459 On ch=10 n=49 v=58
23460 On ch=10 n=49 v=0
23460 On ch=10 n=36 v=100
23462 On ch=10 n=51 v=0
23479 On ch=10 n=36 v=0
23519 On ch=10 n=36 v=98
23519 On ch=10 n=49 v=104
23519 On ch=10 n=51 v=100
23520 On ch=10 n=51 v=0
23520 On ch=10 n=49 v=0
23551 On ch=10 n=36 v=0
23580 On ch=10 n=51 v=87
23582 On ch=10 n=51 v=0
23608 On ch=10 n=36 v=77
23612 On ch=10 n=51 v=80
23618 On ch=10 n=36 v=0
23620 On ch=10 n=51 v=0
23638 On ch=10 n=36 v=86
23639 On ch=10 n=51 v=96
23656 On ch=10 n=51 v=0
23661 On ch=10 n=36 v=0
23698 On ch=10 n=36 v=98
23701 On ch=10 n=51 v=119
23707 On ch=10 n=51 v=0
23714 On ch=10 n=36 v=0
23759 On ch=10 n=36 v=94
23763 On ch=10 n=49 v=100
23763 On ch=10 n=51 v=75
23766 On ch=10 n=49 v=0
23767 On ch=10 n=51 v=0
23821 On ch=10 n=51 v=100
23822 On ch=10 n=36 v=0
23825 On ch=10 n=51 v=0
23850 On ch=10 n=36 v=86
23850 On ch=10 n=51 v=82
23860 On ch=10 n=51 v=0
23864 On ch=10 n=36 v=0
23879 On ch=10 n=36 v=86
23879 On ch=10 n=51 v=100
23892 On ch=10 n=51 v=0
23898 On ch=10 n=36 v=0
23939 On ch=10 n=36 v=94
23939 On ch=10 n=51 v=100
23947 On ch=10 n=51 v=0
23951 On ch=10 n=36 v=0
23969 On ch=10 n=51 v=104
23979 On ch=10 n=51 v=0
24000 On ch=10 n=36 v=98
24000 On ch=10 n=49 v=100
24010 On ch=10 n=49 v=0
24020 On ch=10 n=36 v=0
24060 On ch=10 n=36 v=86
24063 On ch=10 n=51 v=80
24067 On ch=10 n=51 v=0
24074 On ch=10 n=36 v=0
24093 On ch=10 n=51 v=85
24101 On ch=10 n=51 v=0
24122 On ch=10 n=36 v=94
24123 On ch=10 n=51 v=93
24133 On ch=10 n=51 v=0
24140 On ch=10 n=36 v=0
24182 On ch=10 n=36 v=87
24183 On ch=10 n=51 v=104
24191 On ch=10 n=51 v=0
24198 On ch=10 n=36 v=0
24212 On ch=10 n=51 v=108
24225 On ch=10 n=51 v=0
24243 On ch=10 n=36 v=84
24262 On ch=10 n=36 v=0
24274 On ch=10 n=51 v=113
24283 On ch=10 n=51 v=0
24303 On ch=10 n=36 v=82
24319 On ch=10 n=36 v=0
24332 On ch=10 n=51 v=70
24338 On ch=10 n=51 v=0
24361 On ch=10 n=51 v=108
24362 On ch=10 n=36 v=100
24373 On ch=10 n=51 v=0
24384 On ch=10 n=36 v=0
24420 On ch=10 n=51 v=113
24422 On ch=10 n=36 v=89
24430 On ch=10 n=51 v=0
24432 On ch=10 n=36 v=0
24480 On ch=10 n=49 v=113
24480 On ch=10 n=51 v=100
24482 On ch=10 n=36 v=100
24483 On ch=10 n=51 v=0
24483 On ch=10 n=49 v=0
24501 On ch=10 n=36 v=0
24541 On ch=10 n=36 v=90
24542 On ch=10 n=51 v=96
24548 On ch=10 n=51 v=0
24558 On ch=10 n=36 v=0
24571 On ch=10 n=51 v=93
24587 On ch=10 n=51 v=0
24603 On ch=10 n=51 v=85
24604 On ch=10 n=36 v=98
24613 On ch=10 n=51 v=0
24616 On ch=10 n=36 v=0
24660 On ch=10 n=49 v=113
24660 On ch=10 n=51 v=100
24662 On ch=10 n=36 v=109
24664 On ch=10 n=51 v=0
24664 On ch=10 n=49 v=0
24737 On ch=10 n=36 v=0
24777 On ch=10 n=51 v=93
24781 On ch=10 n=36 v=92
24782 On ch=10 n=51 v=0
24797 On ch=10 n=36 v=0
24839 On ch=10 n=51 v=104
24853 On ch=10 n=51 v=0
24900 On ch=10 n=36 v=100
24902 On ch=10 n=51 v=96
24907 On ch=10 n=51 v=0
24916 On ch=10 n=36 v=0
24931 On ch=10 n=51 v=104
24940 On ch=10 n=51 v=0
24960 On ch=10 n=36 v=102
24960 On ch=10 n=49 v=100
24963 On ch=10 n=51 v=100
24966 On ch=10 n=51 v=0
24973 On ch=10 n=49 v=0
24988 On ch=10 n=36 v=0
25023 On ch=10 n=51 v=93
25030 On ch=10 n=51 v=0
25048 On ch=10 n=36 v=75
25054 On ch=10 n=51 v=87
25060 On ch=10 n=36 v=0
25063 On ch=10 n=51 v=0
25077 On ch=10 n=36 v=86
25083 On ch=10 n=51 v=93
25097 On ch=10 n=51 v=0
25103 On ch=10 n=36 v=0
25138 On ch=10 n=49 v=104
25141 On ch=10 n=36 v=104
25143 On ch=10 n=49 v=0
25211 On ch=10 n=36 v=0
25257 On ch=10 n=51 v=82
25260 On ch=10 n=36 v=100
25263 On ch=10 n=51 v=0
25273 On ch=10 n=36 v=0
25319 On ch=10 n=51 v=100
25320 On ch=10 n=36 v=100
25327 On ch=10 n=51 v=0
25336 On ch=10 n=36 v=0
25377 On ch=10 n=51 v=104
25380 On ch=10 n=36 v=87
25383 On ch=10 n=51 v=0
25392 On ch=10 n=36 v=0
25440 On ch=10 n=36 v=109
25440 On ch=10 n=49 v=119
25440 On ch=10 n=51 v=108
25448 On ch=10 n=51 v=0
25448 On ch=10 n=49 v=0
25473 On ch=10 n=36 v=0
25531 On ch=10 n=36 v=78
25533 On ch=10 n=51 v=96
25541 On ch=10 n=51 v=0
25541 On ch=10 n=36 v=0
25559 On ch=10 n=36 v=84
25564 On ch=10 n=51 v=108
25576 On ch=10 n=51 v=0
25581 On ch=10 n=36 v=0
25621 On ch=10 n=36 v=104
25623 On ch=10 n=51 v=96
25630 On ch=10 n=51 v=0
25633 On ch=10 n=36 v=0
25652 On ch=10 n=51 v=104
25658 On ch=10 n=51 v=0
25682 On ch=10 n=49 v=108
25683 On ch=10 n=36 v=112
25691 On ch=10 n=49 v=0
25703 On ch=10 n=36 v=0
25743 On ch=10 n=51 v=93
25749 On ch=10 n=51 v=0
25774 On ch=10 n=36 v=86
25774 On ch=10 n=51 v=96
25784 On ch=10 n=51 v=0
25790 On ch=10 n=36 v=0
25801 On ch=10 n=51 v=96
25802 On ch=10 n=36 v=84
25814 On ch=10 n=51 v=0
25829 On ch=10 n=36 v=0
25860 On ch=10 n=51 v=85
25862 On ch=10 n=36 v=89
25865 On ch=10 n=51 v=0
25875 On ch=10 n=36 v=0
25889 On ch=10 n=51 v=104
25899 On ch=10 n=51 v=0
25920 On ch=10 n=49 v=113
25924 On ch=10 n=49 v=0
25924 On ch=10 n=36 v=112
25940 On ch=10 n=36 v=0
25982 On ch=10 n=36 v=60
25984 On ch=10 n=51 v=70
25986 On ch=10 n=51 v=0
25987 On ch=10 n=36 v=0
26012 On ch=10 n=36 v=68
26012 On ch=10 n=51 v=93
26022 On ch=10 n=51 v=0
26022 On ch=10 n=36 v=0
26041 On ch=10 n=36 v=96
26042 On ch=10 n=51 v=100
26056 On ch=10 n=51 v=0
26059 On ch=10 n=36 v=0
26099 On ch=10 n=36 v=66
26103 On ch=10 n=51 v=82
26106 On ch=10 n=36 v=0
26107 On ch=10 n=51 v=0
26128 On ch=10 n=36 v=79
26134 On ch=10 n=51 v=96
26139 On ch=10 n=51 v=0
26144 On ch=10 n=36 v=0
26156 On ch=10 n=36 v=87
26164 On ch=10 n=51 v=108
26171 On ch=10 n=51 v=0
26178 On ch=10 n=36 v=0
26219 On ch=10 n=36 v=78
26219 On ch=10 n=51 v=104
26227 On ch=10 n=51 v=0
26232 On ch=10 n=36 v=0
26250 On ch=10 n=51 v=119
26251 On ch=10 n=36 v=84
26259 On ch=10 n=51 v=0
26279 On ch=10 n=51 v=104
26292 On ch=10 n=51 v=0
26300 On ch=10 n=36 v=0
26339 On ch=10 n=36 v=92
26339 On ch=10 n=51 v=96
26346 On ch=10 n=51 v=0
26352 On ch=10 n=36 v=0
26400 On ch=10 n=36 v=89
26400 On ch=10 n=49 v=108
26400 On ch=10 n=51 v=90
26405 On ch=10 n=51 v=0
26405 On ch=10 n=49 v=0
26417 On ch=10 n=36 v=0
26459 On ch=10 n=36 v=84
26459 On ch=10 n=51 v=85
26467 On ch=10 n=51 v=0
26472 On ch=10 n=36 v=0
26520 On ch=10 n=36 v=100
26524 On ch=10 n=51 v=113
26533 On ch=10 n=51 v=0
26540 On ch=10 n=36 v=0
26579 On ch=10 n=36 v=73
26579 On ch=10 n=51 v=80
26585 On ch=10 n=51 v=0
26589 On ch=10 n=36 v=0
26609 On ch=10 n=36 v=94
26610 On ch=10 n=51 v=96
26622 On ch=10 n=51 v=0
26629 On ch=10 n=36 v=0
26670 On ch=10 n=51 v=100
26671 On ch=10 n=36 v=98
26685 On ch=10 n=51 v=0
26689 On ch=10 n=36 v=0
26729 On ch=10 n=51 v=90
26730 On ch=10 n=36 v=72
26736 On ch=10 n=51 v=0
26742 On ch=10 n=36 v=0
26759 On ch=10 n=36 v=87
26759 On ch=10 n=51 v=108
26772 On ch=10 n=51 v=0
26786 On ch=10 n=36 v=0
26821 On ch=10 n=51 v=96
26822 On ch=10 n=36 v=90
26829 On ch=10 n=51 v=0
26838 On ch=10 n=36 v=0
26849 On ch=10 n=51 v=90
26854 On ch=10 n=36 v=79
26859 On ch=10 n=51 v=0
26865 On ch=10 n=36 v=0
26881 On ch=10 n=49 v=113
26881 On ch=10 n=51 v=104
26882 On ch=10 n=51 v=0
26883 On ch=10 n=36 v=90
26890 On ch=10 n=49 v=0
26901 On ch=10 n=36 v=0
26941 On ch=10 n=51 v=104
26942 On ch=10 n=36 v=100
26953 On ch=10 n=51 v=0
26958 On ch=10 n=36 v=0
26999 On ch=10 n=36 v=100
27001 On ch=10 n=51 v=119
27003 On ch=10 n=54 v=62
27007 On ch=10 n=54 v=0
27016 On ch=10 n=51 v=0
27020 On ch=10 n=36 v=0
27058 On ch=10 n=51 v=100
27061 On ch=10 n=36 v=78
27068 On ch=10 n=51 v=0
27071 On ch=10 n=36 v=0
27090 On ch=10 n=36 v=96
27090 On ch=10 n=51 v=113
27099 On ch=10 n=51 v=0
27105 On ch=10 n=36 v=0
27150 On ch=10 n=36 v=104
27150 On ch=10 n=51 v=100
27160 On ch=10 n=51 v=0
27165 On ch=10 n=36 v=0
27212 On ch=10 n=36 v=83
27212 On ch=10 n=51 v=85
27212 On ch=10 n=51 v=0
27222 On ch=10 n=36 v=0
27238 On ch=10 n=36 v=86
27239 On ch=10 n=51 v=104
27251 On ch=10 n=51 v=0
27259 On ch=10 n=36 v=0
27299 On ch=10 n=36 v=100
27299 On ch=10 n=51 v=119
27304 On ch=10 n=51 v=0
27311 On ch=10 n=36 v=0
27360 On ch=10 n=36 v=115
27380 On ch=10 n=36 v=0
27419 On ch=10 n=36 v=66
27419 On ch=10 n=51 v=96
27425 On ch=10 n=36 v=0
27429 On ch=10 n=51 v=0
27541 On ch=10 n=51 v=108
27542 On ch=10 n=36 v=115
27554 On ch=10 n=51 v=0
27624 On ch=10 n=36 v=0
27662 On ch=10 n=51 v=90
27663 On ch=10 n=36 v=98
27670 On ch=10 n=51 v=0
27722 On ch=10 n=51 v=108
27726 On ch=10 n=51 v=0
27730 On ch=10 n=36 v=0
27781 On ch=10 n=51 v=85
27782 On ch=10 n=36 v=96
27786 On ch=10 n=51 v=0
27795 On ch=10 n=36 v=0
27842 On ch=10 n=36 v=100
27842 On ch=10 n=51 v=119
27857 On ch=10 n=51 v=0
27867 On ch=10 n=36 v=0
27900 On ch=10 n=51 v=73
27903 On ch=10 n=51 v=0
27929 On ch=10 n=36 v=79
27929 On ch=10 n=51 v=100
27939 On ch=10 n=36 v=0
27942 On ch=10 n=51 v=0
27957 On ch=10 n=36 v=86
27958 On ch=10 n=51 v=104
27971 On ch=10 n=51 v=0
27985 On ch=10 n=36 v=0
28019 On ch=10 n=51 v=126
28020 On ch=10 n=36 v=104
28029 On ch=10 n=51 v=0
28096 On ch=10 n=36 v=0
28139 On ch=10 n=51 v=104
28140 On ch=10 n=36 v=109
28148 On ch=10 n=51 v=0
28199 On ch=10 n=51 v=113
28211 On ch=10 n=51 v=0
28217 On ch=10 n=36 v=0
28257 On ch=10 n=51 v=93
28262 On ch=10 n=36 v=96
28263 On ch=10 n=51 v=0
28278 On ch=10 n=36 v=0
28287 On ch=10 n=51 v=104
28297 On ch=10 n=51 v=0
28320 On ch=10 n=36 v=102
28355 On ch=10 n=36 v=0
28382 On ch=10 n=51 v=96
28388 On ch=10 n=51 v=0
28411 On ch=10 n=36 v=83
28411 On ch=10 n=51 v=104
28424 On ch=10 n=36 v=0
28426 On ch=10 n=51 v=0
28441 On ch=10 n=36 v=94
28441 On ch=10 n=51 v=108
28456 On ch=10 n=51 v=0
28464 On ch=10 n=36 v=0
28501 On ch=10 n=36 v=90
28503 On ch=10 n=51 v=104
28509 On ch=10 n=51 v=0
28514 On ch=10 n=36 v=0
28532 On ch=10 n=51 v=119
28543 On ch=10 n=51 v=0
28560 On ch=10 n=36 v=104
28580 On ch=10 n=36 v=0
28624 On ch=10 n=51 v=90
28630 On ch=10 n=51 v=0
28653 On ch=10 n=51 v=104
28654 On ch=10 n=36 v=98
28666 On ch=10 n=51 v=0
28673 On ch=10 n=36 v=0
28680 On ch=10 n=36 v=60
28682 On ch=10 n=51 v=119
28696 On ch=10 n=51 v=0
28712 On ch=10 n=36 v=0
28742 On ch=10 n=36 v=90
28755 On ch=10 n=36 v=0
28768 On ch=10 n=51 v=100
28777 On ch=10 n=51 v=0
28802 On ch=10 n=36 v=98
28818 On ch=10 n=36 v=0
28863 On ch=10 n=51 v=75
28870 On ch=10 n=51 v=0
28921 On ch=10 n=51 v=90
28922 On ch=10 n=36 v=98
28930 On ch=10 n=51 v=0
28948 On ch=10 n=36 v=0
28983 On ch=10 n=51 v=113
28989 On ch=10 n=51 v=0
29010 On ch=10 n=51 v=113
29012 On ch=10 n=54 v=76
29016 On ch=10 n=54 v=0
29025 On ch=10 n=51 v=0
29066 On ch=10 n=36 v=90
29072 On ch=10 n=51 v=113
29079 On ch=10 n=36 v=0
29081 On ch=10 n=51 v=0
29132 On ch=10 n=51 v=104
29138 On ch=10 n=51 v=0
29160 On ch=10 n=51 v=113
29164 On ch=10 n=36 v=112
29174 On ch=10 n=51 v=0
29183 On ch=10 n=36 v=0
29220 On ch=10 n=51 v=108
29231 On ch=10 n=51 v=0
29280 On ch=10 n=36 v=100
29281 On ch=10 n=51 v=119
29296 On ch=10 n=51 v=0
29300 On ch=10 n=36 v=0
29340 On ch=10 n=51 v=85
29344 On ch=10 n=51 v=0
29367 On ch=10 n=36 v=82
29370 On ch=10 n=51 v=100
29380 On ch=10 n=36 v=0
29382 On ch=10 n=51 v=0
29397 On ch=10 n=36 v=87
29400 On ch=10 n=51 v=100
29412 On ch=10 n=51 v=0
29424 On ch=10 n=36 v=0
29459 On ch=10 n=36 v=107
29459 On ch=10 n=51 v=119
29470 On ch=10 n=51 v=0
29533 On ch=10 n=36 v=0
29578 On ch=10 n=51 v=100
29579 On ch=10 n=36 v=109
29586 On ch=10 n=51 v=0
29638 On ch=10 n=51 v=90
29650 On ch=10 n=51 v=0
29651 On ch=10 n=36 v=0
29698 On ch=10 n=51 v=73
29700 On ch=10 n=36 v=94
29708 On ch=10 n=51 v=0
29716 On ch=10 n=36 v=0
29760 On ch=10 n=36 v=102
29760 On ch=10 n=51 v=104
29775 On ch=10 n=51 v=0
29780 On ch=10 n=36 v=0
29822 On ch=10 n=51 v=75
29825 On ch=10 n=51 v=0
29826 On ch=10 n=36 v=56
29833 On ch=10 n=36 v=0
29850 On ch=10 n=51 v=85
29853 On ch=10 n=36 v=84
29866 On ch=10 n=51 v=0
29879 On ch=10 n=51 v=71
29896 On ch=10 n=51 v=0
29902 On ch=10 n=36 v=0
29941 On ch=10 n=51 v=119
29942 On ch=10 n=36 v=104
29971 On ch=10 n=51 v=0
30013 On ch=10 n=36 v=0
30059 On ch=10 n=51 v=108
30062 On ch=10 n=36 v=107
30093 On ch=10 n=51 v=0
30115 On ch=10 n=51 v=18
30127 On ch=10 n=36 v=0
30130 On ch=10 n=51 v=0
30179 On ch=10 n=36 v=96
30179 On ch=10 n=51 v=108
30188 On ch=10 n=51 v=0
30193 On ch=10 n=36 v=0
30239 On ch=10 n=36 v=104
30239 On ch=10 n=51 v=87
30240 On ch=10 n=49 v=51
30241 On ch=10 n=49 v=0
30248 On ch=10 n=51 v=0
30292 On ch=10 n=36 v=0
30299 On ch=10 n=51 v=76
30302 On ch=10 n=51 v=0
30327 On ch=10 n=36 v=78
30328 On ch=10 n=51 v=93
30337 On ch=10 n=36 v=0
30342 On ch=10 n=51 v=0
30358 On ch=10 n=36 v=96
30358 On ch=10 n=51 v=90
30373 On ch=10 n=51 v=0
30376 On ch=10 n=36 v=0
30419 On ch=10 n=36 v=104
30419 On ch=10 n=51 v=104
30425 On ch=10 n=51 v=0
30431 On ch=10 n=36 v=0
30449 On ch=10 n=51 v=104
30462 On ch=10 n=51 v=0
30478 On ch=10 n=51 v=104
30481 On ch=10 n=36 v=104
30498 On ch=10 n=51 v=0
30499 On ch=10 n=36 v=0
30540 On ch=10 n=51 v=66
30543 On ch=10 n=51 v=0
30568 On ch=10 n=51 v=85
30570 On ch=10 n=36 v=89
30579 On ch=10 n=51 v=0
30584 On ch=10 n=36 v=0
30598 On ch=10 n=36 v=79
30598 On ch=10 n=51 v=104
30611 On ch=10 n=51 v=0
30624 On ch=10 n=36 v=0
30658 On ch=10 n=51 v=90
30661 On ch=10 n=36 v=92
30662 On ch=10 n=51 v=0
30671 On ch=10 n=36 v=0
30689 On ch=10 n=51 v=100
30698 On ch=10 n=51 v=0
30718 On ch=10 n=51 v=104
30720 On ch=10 n=36 v=109
30736 On ch=10 n=51 v=0
30737 On ch=10 n=36 v=0
30781 On ch=10 n=51 v=68
30786 On ch=10 n=51 v=0
30808 On ch=10 n=36 v=72
30810 On ch=10 n=51 v=104
30814 On ch=10 n=36 v=0
30825 On ch=10 n=51 v=0
30838 On ch=10 n=36 v=89
30838 On ch=10 n=51 v=100
30852 On ch=10 n=51 v=0
30859 On ch=10 n=36 v=0
30901 On ch=10 n=36 v=77
30906 On ch=10 n=36 v=0
30927 On ch=10 n=51 v=82
30930 On ch=10 n=36 v=79
30933 On ch=10 n=51 v=0
30948 On ch=10 n=36 v=0
30957 On ch=10 n=51 v=104
30958 On ch=10 n=36 v=66
30972 On ch=10 n=51 v=0
30983 On ch=10 n=36 v=0
31018 On ch=10 n=51 v=78
31019 On ch=10 n=36 v=74
31024 On ch=10 n=36 v=0
31025 On ch=10 n=51 v=0
31049 On ch=10 n=36 v=81
31049 On ch=10 n=51 v=96
31056 On ch=10 n=51 v=0
31059 On ch=10 n=36 v=0
31079 On ch=10 n=36 v=104
31079 On ch=10 n=51 v=96
31097 On ch=10 n=51 v=0
31098 On ch=10 n=36 v=0
31139 On ch=10 n=36 v=98
31139 On ch=10 n=51 v=80
31146 On ch=10 n=51 v=0
31151 On ch=10 n=36 v=0
31168 On ch=10 n=51 v=87
31171 On ch=10 n=51 v=0
31200 On ch=10 n=51 v=100
31201 On ch=10 n=36 v=100
31213 On ch=10 n=36 v=0
31215 On ch=10 n=51 v=0
31258 On ch=10 n=36 v=83
31260 On ch=10 n=51 v=87
31269 On ch=10 n=51 v=0
31274 On ch=10 n=36 v=0
31320 On ch=10 n=36 v=104
31320 On ch=10 n=51 v=100
31338 On ch=10 n=36 v=0
31341 On ch=10 n=51 v=0
31379 On ch=10 n=36 v=79
31379 On ch=10 n=51 v=85
31389 On ch=10 n=36 v=0
31395 On ch=10 n=51 v=0
31410 On ch=10 n=36 v=90
31410 On ch=10 n=51 v=96
31429 On ch=10 n=51 v=0
31430 On ch=10 n=36 v=0
31472 On ch=10 n=36 v=98
31473 On ch=10 n=51 v=87
31476 On ch=10 n=51 v=0
31488 On ch=10 n=36 v=0
31528 On ch=10 n=51 v=96
31530 On ch=10 n=36 v=82
31532 On ch=10 n=51 v=0
31543 On ch=10 n=36 v=0
31558 On ch=10 n=36 v=94
31560 On ch=10 n=51 v=108
31578 On ch=10 n=51 v=0
31587 On ch=10 n=36 v=0
31622 On ch=10 n=36 v=100
31622 On ch=10 n=51 v=70
31627 On ch=10 n=51 v=0
31633 On ch=10 n=36 v=0
31650 On ch=10 n=51 v=96
31653 On ch=10 n=51 v=0
31682 On ch=10 n=51 v=96
31683 On ch=10 n=36 v=96
31696 On ch=10 n=51 v=0
31699 On ch=10 n=36 v=0
31709 On ch=10 n=51 v=90
31717 On ch=10 n=51 v=0
31742 On ch=10 n=36 v=100
31743 On ch=10 n=51 v=85
31753 On ch=10 n=51 v=0
31757 On ch=10 n=36 v=0
31773 On ch=10 n=51 v=82
31778 On ch=10 n=51 v=0
31801 On ch=10 n=51 v=96
31802 On ch=10 n=36 v=107
31820 On ch=10 n=51 v=0
31823 On ch=10 n=36 v=0
31833 On ch=10 n=51 v=63
31839 On ch=10 n=51 v=0
31860 On ch=10 n=36 v=66
31863 On ch=10 n=51 v=80
31869 On ch=10 n=36 v=0
31875 On ch=10 n=51 v=0
31891 On ch=10 n=51 v=113
31892 On ch=10 n=36 v=100
31906 On ch=10 n=36 v=0
31906 On ch=10 n=51 v=0
31924 On ch=10 n=51 v=65
31932 On ch=10 n=51 v=0
31950 On ch=10 n=51 v=96
31952 On ch=10 n=36 v=104
31958 On ch=10 n=51 v=0
31963 On ch=10 n=36 v=0
31983 On ch=10 n=51 v=78
31992 On ch=10 n=51 v=0
32010 On ch=10 n=36 v=87
32012 On ch=10 n=51 v=93
32015 On ch=10 n=51 v=0
32020 On ch=10 n=36 v=0
32040 On ch=10 n=36 v=94
32040 On ch=10 n=51 v=90
32057 On ch=10 n=51 v=0
32057 On ch=10 n=36 v=0
32101 On ch=10 n=36 v=115
32101 On ch=10 n=51 v=108
32116 On ch=10 n=36 v=0
32119 On ch=10 n=51 v=0
32161 On ch=10 n=46 v=87
32161 On ch=10 n=36 v=102
32162 On ch=10 n=51 v=78
32173 On ch=10 n=51 v=0
32173 On ch=10 n=46 v=0
32180 On ch=10 n=36 v=0
32191 On ch=10 n=44 v=51
32198 On ch=10 n=44 v=0
32219 On ch=10 n=46 v=68
32220 On ch=10 n=36 v=87
32222 On ch=10 n=38 v=94
32222 On ch=10 n=51 v=93
32230 On ch=10 n=38 v=0
32232 On ch=10 n=46 v=0
32235 On ch=10 n=51 v=0
32236 On ch=10 n=36 v=0
32252 On ch=10 n=38 v=57
32258 On ch=10 n=38 v=0
32280 On ch=10 n=46 v=93
32281 On ch=10 n=36 v=87
32297 On ch=10 n=46 v=0
32302 On ch=10 n=36 v=0
32309 On ch=10 n=44 v=63
32313 On ch=10 n=38 v=70
32319 On ch=10 n=44 v=0
32320 On ch=10 n=38 v=0
32339 On ch=10 n=36 v=86
32340 On ch=10 n=38 v=96
32341 On ch=10 n=51 v=93
32342 On ch=10 n=46 v=60
32352 On ch=10 n=38 v=0
32355 On ch=10 n=36 v=0
32356 On ch=10 n=51 v=0
32357 On ch=10 n=46 v=0
32371 On ch=10 n=44 v=96
32384 On ch=10 n=44 v=0
32402 On ch=10 n=36 v=63
32421 On ch=10 n=36 v=0
32428 On ch=10 n=44 v=71
32438 On ch=10 n=44 v=0
32456 On ch=10 n=46 v=90
32457 On ch=10 n=38 v=90
32461 On ch=10 n=36 v=77
32461 On ch=10 n=51 v=90
32466 On ch=10 n=51 v=0
32466 On ch=10 n=38 v=0
32469 On ch=10 n=46 v=0
32483 On ch=10 n=36 v=0
32488 On ch=10 n=44 v=71
32498 On ch=10 n=44 v=0
32518 On ch=10 n=46 v=60
32521 On ch=10 n=36 v=72
32527 On ch=10 n=46 v=0
32540 On ch=10 n=36 v=0
32547 On ch=10 n=44 v=76
32550 On ch=10 n=38 v=84
32562 On ch=10 n=38 v=0
32562 On ch=10 n=44 v=0
32578 On ch=10 n=46 v=100
32578 On ch=10 n=36 v=86
32578 On ch=10 n=63 v=100
32580 On ch=10 n=38 v=78
32590 On ch=10 n=38 v=0
32592 On ch=10 n=63 v=0
32596 On ch=10 n=46 v=0
32601 On ch=10 n=36 v=0
32607 On ch=10 n=44 v=87
32619 On ch=10 n=44 v=0
32638 On ch=10 n=46 v=65
32639 On ch=10 n=36 v=73
32650 On ch=10 n=46 v=0
32651 On ch=10 n=36 v=0
32668 On ch=10 n=44 v=82
32680 On ch=10 n=44 v=0
32698 On ch=10 n=36 v=98
32698 On ch=10 n=38 v=86
32699 On ch=10 n=46 v=100
32707 On ch=10 n=38 v=0
32717 On ch=10 n=46 v=0
32721 On ch=10 n=36 v=0
32728 On ch=10 n=44 v=78
32738 On ch=10 n=44 v=0
32757 On ch=10 n=36 v=75
32759 On ch=10 n=46 v=60
32768 On ch=10 n=46 v=0
32770 On ch=10 n=36 v=0
32788 On ch=10 n=44 v=85
32804 On ch=10 n=44 v=0
32817 On ch=10 n=36 v=98
32818 On ch=10 n=38 v=64
32819 On ch=10 n=46 v=96
32828 On ch=10 n=38 v=0
32838 On ch=10 n=46 v=0
32842 On ch=10 n=36 v=0
32846 On ch=10 n=38 v=64
32848 On ch=10 n=44 v=87
32852 On ch=10 n=38 v=0
32867 On ch=10 n=44 v=0
32877 On ch=10 n=36 v=70
32880 On ch=10 n=46 v=40
32888 On ch=10 n=46 v=0
32895 On ch=10 n=36 v=0
32908 On ch=10 n=44 v=87
32921 On ch=10 n=44 v=0
32937 On ch=10 n=36 v=94
32939 On ch=10 n=38 v=78
32941 On ch=10 n=46 v=93
32948 On ch=10 n=38 v=0
32954 On ch=10 n=46 v=0
32955 On ch=10 n=36 v=0
32969 On ch=10 n=44 v=93
32982 On ch=10 n=44 v=0
32998 On ch=10 n=36 v=76
32999 On ch=10 n=46 v=75
33011 On ch=10 n=36 v=0
33012 On ch=10 n=46 v=0
33032 On ch=10 n=44 v=82
33041 On ch=10 n=44 v=0
33057 On ch=10 n=38 v=72
33058 On ch=10 n=36 v=92
33059 On ch=10 n=63 v=96
33062 On ch=10 n=46 v=104
33064 On ch=10 n=38 v=0
33073 On ch=10 n=63 v=0
33078 On ch=10 n=46 v=0
33080 On ch=10 n=36 v=0
33086 On ch=10 n=38 v=66
33089 On ch=10 n=63 v=87
33090 On ch=10 n=44 v=93
33093 On ch=10 n=38 v=0
33103 On ch=10 n=44 v=0
33119 On ch=10 n=36 v=78
33120 On ch=10 n=46 v=63
33134 On ch=10 n=46 v=0
33135 On ch=10 n=36 v=0
33150 On ch=10 n=44 v=87
33165 On ch=10 n=44 v=0
33165 On ch=10 n=63 v=0
33179 On ch=10 n=36 v=86
33180 On ch=10 n=38 v=78
33181 On ch=10 n=46 v=100
33194 On ch=10 n=38 v=0
33197 On ch=10 n=36 v=0
33203 On ch=10 n=46 v=0
33210 On ch=10 n=44 v=93
33210 On ch=10 n=38 v=67
33222 On ch=10 n=38 v=0
33222 On ch=10 n=44 v=0
33238 On ch=10 n=36 v=84
33239 On ch=10 n=46 v=75
33255 On ch=10 n=46 v=0
33260 On ch=10 n=36 v=0
33272 On ch=10 n=44 v=93
33272 On ch=10 n=38 v=60
33281 On ch=10 n=38 v=0
33285 On ch=10 n=44 v=0
33299 On ch=10 n=36 v=83
33299 On ch=10 n=38 v=104
33301 On ch=10 n=46 v=100
33317 On ch=10 n=38 v=0
33318 On ch=10 n=36 v=0
33324 On ch=10 n=46 v=0
33328 On ch=10 n=38 v=77
33330 On ch=10 n=44 v=96
33340 On ch=10 n=38 v=0
33345 On ch=10 n=44 v=0
33359 On ch=10 n=46 v=57
33359 On ch=10 n=36 v=66
33369 On ch=10 n=46 v=0
33372 On ch=10 n=36 v=0
33390 On ch=10 n=44 v=96
33390 On ch=10 n=38 v=51
33399 On ch=10 n=38 v=0
33408 On ch=10 n=44 v=0
33419 On ch=10 n=36 v=98
33421 On ch=10 n=46 v=100
33421 On ch=10 n=38 v=81
33430 On ch=10 n=38 v=0
33440 On ch=10 n=46 v=0
33441 On ch=10 n=36 v=0
33448 On ch=10 n=44 v=93
33463 On ch=10 n=44 v=0
33478 On ch=10 n=46 v=82
33478 On ch=10 n=36 v=76
33490 On ch=10 n=36 v=0
33496 On ch=10 n=46 v=0
33508 On ch=10 n=44 v=96
33508 On ch=10 n=38 v=46
33517 On ch=10 n=38 v=0
33526 On ch=10 n=44 v=0
33537 On ch=10 n=38 v=90
33538 On ch=10 n=36 v=98
33538 On ch=10 n=63 v=93
33539 On ch=10 n=46 v=104
33552 On ch=10 n=63 v=0
33560 On ch=10 n=36 v=0
33561 On ch=10 n=46 v=0
33562 On ch=10 n=38 v=0
33568 On ch=10 n=44 v=93
33568 On ch=10 n=38 v=66
33568 On ch=10 n=63 v=85
33581 On ch=10 n=38 v=0
33583 On ch=10 n=44 v=0
33599 On ch=10 n=46 v=76
33599 On ch=10 n=36 v=79
33599 On ch=10 n=38 v=49
33611 On ch=10 n=38 v=0
33614 On ch=10 n=36 v=0
33618 On ch=10 n=46 v=0
33628 On ch=10 n=44 v=93
33628 On ch=10 n=38 v=39
33637 On ch=10 n=38 v=0
33641 On ch=10 n=63 v=0
33644 On ch=10 n=44 v=0
33657 On ch=10 n=38 v=82
33658 On ch=10 n=36 v=96
33661 On ch=10 n=46 v=100
33680 On ch=10 n=36 v=0
33682 On ch=10 n=46 v=0
33685 On ch=10 n=38 v=0
33689 On ch=10 n=44 v=93
33705 On ch=10 n=44 v=0
33718 On ch=10 n=36 v=82
33721 On ch=10 n=46 v=73
33721 On ch=10 n=38 v=74
33736 On ch=10 n=36 v=0
33738 On ch=10 n=38 v=0
33739 On ch=10 n=46 v=0
33751 On ch=10 n=44 v=87
33766 On ch=10 n=44 v=0
33778 On ch=10 n=36 v=92
33780 On ch=10 n=38 v=76
33782 On ch=10 n=46 v=93
33792 On ch=10 n=38 v=0
33800 On ch=10 n=36 v=0
33806 On ch=10 n=38 v=66
33808 On ch=10 n=46 v=0
33811 On ch=10 n=44 v=100
33816 On ch=10 n=38 v=0
33829 On ch=10 n=44 v=0
33838 On ch=10 n=36 v=72
33841 On ch=10 n=46 v=60
33853 On ch=10 n=46 v=0
33857 On ch=10 n=36 v=0
33869 On ch=10 n=44 v=90
33871 On ch=10 n=38 v=70
33883 On ch=10 n=38 v=0
33888 On ch=10 n=44 v=0
33898 On ch=10 n=36 v=100
33900 On ch=10 n=46 v=100
33900 On ch=10 n=38 v=79
33917 On ch=10 n=38 v=0
33919 On ch=10 n=36 v=0
33922 On ch=10 n=46 v=0
33928 On ch=10 n=38 v=69
33929 On ch=10 n=44 v=90
33942 On ch=10 n=38 v=0
33945 On ch=10 n=44 v=0
33958 On ch=10 n=46 v=75
33958 On ch=10 n=36 v=77
33958 On ch=10 n=38 v=59
33972 On ch=10 n=38 v=0
33973 On ch=10 n=36 v=0
33977 On ch=10 n=46 v=0
33989 On ch=10 n=44 v=90
33990 On ch=10 n=38 v=65
34004 On ch=10 n=44 v=0
34007 On ch=10 n=38 v=0
34018 On ch=10 n=46 v=93
34018 On ch=10 n=38 v=104
34018 On ch=10 n=63 v=93
34019 On ch=10 n=36 v=104
34031 On ch=10 n=63 v=0
34037 On ch=10 n=36 v=0
34041 On ch=10 n=46 v=0
34043 On ch=10 n=38 v=0
34048 On ch=10 n=44 v=90
34048 On ch=10 n=38 v=63
34048 On ch=10 n=63 v=93
34063 On ch=10 n=44 v=0
34064 On ch=10 n=38 v=0
34079 On ch=10 n=36 v=90
34080 On ch=10 n=46 v=78
34081 On ch=10 n=38 v=50
34089 On ch=10 n=38 v=0
34097 On ch=10 n=36 v=0
34098 On ch=10 n=46 v=0
34111 On ch=10 n=44 v=85
34116 On ch=10 n=63 v=0
34123 On ch=10 n=44 v=0
34138 On ch=10 n=36 v=96
34140 On ch=10 n=38 v=94
34142 On ch=10 n=46 v=96
34157 On ch=10 n=38 v=0
34159 On ch=10 n=36 v=0
34163 On ch=10 n=46 v=0
34171 On ch=10 n=44 v=93
34187 On ch=10 n=44 v=0
34199 On ch=10 n=46 v=70
34199 On ch=10 n=36 v=87
34201 On ch=10 n=38 v=67
34211 On ch=10 n=38 v=0
34215 On ch=10 n=46 v=0
34218 On ch=10 n=36 v=0
34231 On ch=10 n=44 v=85
34247 On ch=10 n=44 v=0
34259 On ch=10 n=38 v=84
34261 On ch=10 n=46 v=100
34261 On ch=10 n=36 v=100
34272 On ch=10 n=38 v=0
34281 On ch=10 n=46 v=0
34284 On ch=10 n=36 v=0
34288 On ch=10 n=38 v=82
34291 On ch=10 n=44 v=96
34298 On ch=10 n=38 v=0
34305 On ch=10 n=44 v=0
34318 On ch=10 n=46 v=71
34322 On ch=10 n=36 v=83
34333 On ch=10 n=46 v=0
34338 On ch=10 n=36 v=0
34351 On ch=10 n=44 v=90
34351 On ch=10 n=38 v=35
34361 On ch=10 n=38 v=0
34369 On ch=10 n=44 v=0
34379 On ch=10 n=38 v=87
34380 On ch=10 n=46 v=90
34380 On ch=10 n=36 v=102
34389 On ch=10 n=38 v=0
34400 On ch=10 n=46 v=0
34403 On ch=10 n=36 v=0
34409 On ch=10 n=44 v=93
34409 On ch=10 n=38 v=73
34417 On ch=10 n=38 v=0
34427 On ch=10 n=44 v=0
34438 On ch=10 n=46 v=75
34438 On ch=10 n=38 v=77
34441 On ch=10 n=36 v=82
34449 On ch=10 n=38 v=0
34455 On ch=10 n=36 v=0
34457 On ch=10 n=46 v=0
34468 On ch=10 n=44 v=90
34470 On ch=10 n=38 v=69
34484 On ch=10 n=44 v=0
34485 On ch=10 n=38 v=0
34497 On ch=10 n=36 v=98
34498 On ch=10 n=38 v=112
34499 On ch=10 n=46 v=100
34499 On ch=10 n=63 v=104
34514 On ch=10 n=63 v=0
34520 On ch=10 n=36 v=0
34522 On ch=10 n=38 v=0
34527 On ch=10 n=44 v=87
34528 On ch=10 n=46 v=0
34550 On ch=10 n=44 v=0
34558 On ch=10 n=46 v=65
34558 On ch=10 n=36 v=79
34562 On ch=10 n=38 v=50
34568 On ch=10 n=38 v=0
34577 On ch=10 n=36 v=0
34580 On ch=10 n=46 v=0
34588 On ch=10 n=44 v=93
34609 On ch=10 n=44 v=0
34619 On ch=10 n=46 v=96
34619 On ch=10 n=36 v=96
34621 On ch=10 n=38 v=96
34634 On ch=10 n=38 v=0
34641 On ch=10 n=36 v=0
34644 On ch=10 n=46 v=0
34648 On ch=10 n=44 v=85
34669 On ch=10 n=44 v=0
34679 On ch=10 n=46 v=75
34679 On ch=10 n=36 v=82
34684 On ch=10 n=38 v=53
34690 On ch=10 n=38 v=0
34698 On ch=10 n=36 v=0
34698 On ch=10 n=46 v=0
34708 On ch=10 n=44 v=78
34714 On ch=10 n=38 v=50
34726 On ch=10 n=38 v=0
34727 On ch=10 n=44 v=0
34739 On ch=10 n=46 v=93
34741 On ch=10 n=36 v=102
34742 On ch=10 n=38 v=79
34757 On ch=10 n=38 v=0
34763 On ch=10 n=36 v=0
34764 On ch=10 n=46 v=0
34767 On ch=10 n=44 v=87
34770 On ch=10 n=38 v=84
34785 On ch=10 n=38 v=0
34795 On ch=10 n=44 v=0
34796 On ch=10 n=46 v=57
34801 On ch=10 n=36 v=87
34801 On ch=10 n=38 v=60
34810 On ch=10 n=38 v=0
34813 On ch=10 n=46 v=0
34820 On ch=10 n=36 v=0
34827 On ch=10 n=44 v=85
34833 On ch=10 n=38 v=66
34845 On ch=10 n=38 v=0
34848 On ch=10 n=44 v=0
34858 On ch=10 n=46 v=96
34861 On ch=10 n=36 v=100
34862 On ch=10 n=38 v=104
34880 On ch=10 n=46 v=0
34881 On ch=10 n=38 v=0
34882 On ch=10 n=36 v=0
34888 On ch=10 n=44 v=93
34893 On ch=10 n=38 v=63
34902 On ch=10 n=38 v=0
34909 On ch=10 n=44 v=0
34918 On ch=10 n=46 v=71
34920 On ch=10 n=38 v=64
34922 On ch=10 n=36 v=79
34934 On ch=10 n=46 v=0
34937 On ch=10 n=36 v=0
34937 On ch=10 n=38 v=0
34949 On ch=10 n=44 v=85
34953 On ch=10 n=38 v=86
34965 On ch=10 n=44 v=0
34975 On ch=10 n=38 v=0
34978 On ch=10 n=63 v=96
34980 On ch=10 n=46 v=100
34980 On ch=10 n=36 v=107
34980 On ch=10 n=38 v=104
34991 On ch=10 n=63 v=0
35002 On ch=10 n=46 v=0
35005 On ch=10 n=36 v=0
35005 On ch=10 n=38 v=0
35009 On ch=10 n=44 v=87
35028 On ch=10 n=44 v=0
35038 On ch=10 n=46 v=71
35042 On ch=10 n=36 v=84
35042 On ch=10 n=38 v=75
35055 On ch=10 n=38 v=0
35057 On ch=10 n=46 v=0
35060 On ch=10 n=36 v=0
35069 On ch=10 n=44 v=96
35091 On ch=10 n=44 v=0
35099 On ch=10 n=46 v=100
35101 On ch=10 n=36 v=104
35101 On ch=10 n=38 v=98
35118 On ch=10 n=38 v=0
35121 On ch=10 n=46 v=0
35123 On ch=10 n=36 v=0
35129 On ch=10 n=44 v=87
35147 On ch=10 n=44 v=0
35159 On ch=10 n=46 v=66
35162 On ch=10 n=36 v=89
35162 On ch=10 n=38 v=71
35171 On ch=10 n=38 v=0
35175 On ch=10 n=46 v=0
35181 On ch=10 n=36 v=0
35189 On ch=10 n=44 v=90
35192 On ch=10 n=38 v=70
35206 On ch=10 n=38 v=0
35208 On ch=10 n=44 v=0
35217 On ch=10 n=63 v=100
35220 On ch=10 n=38 v=87
35221 On ch=10 n=46 v=100
35221 On ch=10 n=36 v=102
35234 On ch=10 n=63 v=0
35239 On ch=10 n=38 v=0
35242 On ch=10 n=36 v=0
35244 On ch=10 n=46 v=0
35249 On ch=10 n=38 v=96
35251 On ch=10 n=44 v=96
35267 On ch=10 n=38 v=0
35270 On ch=10 n=44 v=0
35279 On ch=10 n=46 v=71
35279 On ch=10 n=36 v=72
35292 On ch=10 n=46 v=0
35300 On ch=10 n=36 v=0
35309 On ch=10 n=38 v=57
35310 On ch=10 n=44 v=100
35322 On ch=10 n=38 v=0
35329 On ch=10 n=44 v=0
35338 On ch=10 n=36 v=102
35339 On ch=10 n=38 v=107
35341 On ch=10 n=46 v=108
35359 On ch=10 n=38 v=0
35361 On ch=10 n=36 v=0
35363 On ch=10 n=46 v=0
35368 On ch=10 n=38 v=78
35372 On ch=10 n=44 v=93
35380 On ch=10 n=38 v=0
35388 On ch=10 n=44 v=0
35398 On ch=10 n=36 v=94
35398 On ch=10 n=38 v=75
35399 On ch=10 n=46 v=71
35411 On ch=10 n=46 v=0
35417 On ch=10 n=38 v=0
35417 On ch=10 n=36 v=0
35429 On ch=10 n=38 v=96
35431 On ch=10 n=44 v=96
35449 On ch=10 n=44 v=0
35449 On ch=10 n=38 v=0
35458 On ch=10 n=36 v=100
35458 On ch=10 n=38 v=107
35458 On ch=10 n=63 v=100
35461 On ch=10 n=46 v=108
35476 On ch=10 n=63 v=0
35477 On ch=10 n=36 v=0
35483 On ch=10 n=46 v=0
35485 On ch=10 n=38 v=0
35492 On ch=10 n=44 v=90
35494 On ch=10 n=38 v=57
35500 On ch=10 n=38 v=0
35510 On ch=10 n=44 v=0
35519 On ch=10 n=36 v=87
35521 On ch=10 n=46 v=68
35535 On ch=10 n=36 v=0
35537 On ch=10 n=46 v=0
35552 On ch=10 n=44 v=96
35571 On ch=10 n=44 v=0
35579 On ch=10 n=36 v=96
35579 On ch=10 n=38 v=107
35582 On ch=10 n=46 v=108
35598 On ch=10 n=38 v=0
35599 On ch=10 n=36 v=0
35604 On ch=10 n=46 v=0
35612 On ch=10 n=44 v=100
35630 On ch=10 n=44 v=0
35638 On ch=10 n=36 v=83
35642 On ch=10 n=46 v=75
35642 On ch=10 n=38 v=81
35654 On ch=10 n=38 v=0
35658 On ch=10 n=46 v=0
35660 On ch=10 n=36 v=0
35671 On ch=10 n=44 v=90
35687 On ch=10 n=44 v=0
35697 On ch=10 n=63 v=93
35698 On ch=10 n=36 v=98
35704 On ch=10 n=46 v=104
35705 On ch=10 n=49 v=53
35706 On ch=10 n=38 v=100
35709 On ch=10 n=49 v=0
35719 On ch=10 n=63 v=0
35720 On ch=10 n=36 v=0
35725 On ch=10 n=38 v=0
35726 On ch=10 n=46 v=0
35733 On ch=10 n=44 v=96
35734 On ch=10 n=38 v=98
35752 On ch=10 n=44 v=0
35753 On ch=10 n=38 v=0
35758 On ch=10 n=36 v=75
35762 On ch=10 n=46 v=75
35771 On ch=10 n=46 v=0
35774 On ch=10 n=36 v=0
35793 On ch=10 n=44 v=93
35794 On ch=10 n=38 v=79
35809 On ch=10 n=44 v=0
35814 On ch=10 n=38 v=0
35818 On ch=10 n=36 v=98
35822 On ch=10 n=46 v=100
35822 On ch=10 n=38 v=107
35839 On ch=10 n=36 v=0
35841 On ch=10 n=38 v=0
35845 On ch=10 n=46 v=0
35849 On ch=10 n=38 v=81
35852 On ch=10 n=44 v=96
35870 On ch=10 n=44 v=0
35870 On ch=10 n=38 v=0
35878 On ch=10 n=36 v=84
35881 On ch=10 n=46 v=75
35882 On ch=10 n=38 v=74
35893 On ch=10 n=36 v=0
35896 On ch=10 n=46 v=0
35898 On ch=10 n=38 v=0
35911 On ch=10 n=38 v=73
35912 On ch=10 n=44 v=93
35931 On ch=10 n=44 v=0
35937 On ch=10 n=36 v=98
35942 On ch=10 n=46 v=113
35959 On ch=10 n=36 v=0
35964 On ch=10 n=38 v=0
35967 On ch=10 n=46 v=0
35972 On ch=10 n=44 v=90
35987 On ch=10 n=44 v=0
35999 On ch=10 n=36 v=84
35999 On ch=10 n=38 v=73
36000 On ch=10 n=46 v=87
36015 On ch=10 n=38 v=0
36017 On ch=10 n=46 v=0
36018 On ch=10 n=36 v=0
36032 On ch=10 n=44 v=100
36050 On ch=10 n=44 v=0
36056 On ch=10 n=36 v=92
36061 On ch=10 n=38 v=79
36062 On ch=10 n=46 v=108
36078 On ch=10 n=36 v=0
36081 On ch=10 n=38 v=0
36084 On ch=10 n=46 v=0
36089 On ch=10 n=44 v=90
36102 On ch=10 n=44 v=0
36119 On ch=10 n=46 v=80
36119 On ch=10 n=36 v=94
36138 On ch=10 n=46 v=0
36140 On ch=10 n=36 v=0
36152 On ch=10 n=44 v=104
36154 On ch=10 n=38 v=87
36170 On ch=10 n=38 v=0
36170 On ch=10 n=44 v=0
36179 On ch=10 n=36 v=90
36179 On ch=10 n=38 v=92
36182 On ch=10 n=46 v=100
36195 On ch=10 n=38 v=0
36197 On ch=10 n=36 v=0
36203 On ch=10 n=46 v=0
36210 On ch=10 n=44 v=100
36210 On ch=10 n=38 v=87
36225 On ch=10 n=38 v=0
36228 On ch=10 n=44 v=0
36239 On ch=10 n=36 v=82
36240 On ch=10 n=46 v=53
36247 On ch=10 n=46 v=0
36259 On ch=10 n=36 v=0
36268 On ch=10 n=44 v=96
36293 On ch=10 n=44 v=0
36298 On ch=10 n=38 v=81
36300 On ch=10 n=46 v=104
36302 On ch=10 n=36 v=98
36311 On ch=10 n=38 v=0
36319 On ch=10 n=46 v=0
36320 On ch=10 n=36 v=0
36326 On ch=10 n=44 v=90
36326 On ch=10 n=38 v=72
36340 On ch=10 n=38 v=0
36345 On ch=10 n=44 v=0
36357 On ch=10 n=46 v=87
36358 On ch=10 n=38 v=62
36359 On ch=10 n=36 v=90
36370 On ch=10 n=38 v=0
36373 On ch=10 n=46 v=0
36378 On ch=10 n=36 v=0
36388 On ch=10 n=44 v=96
36389 On ch=10 n=38 v=84
36405 On ch=10 n=38 v=0
36407 On ch=10 n=44 v=0
36418 On ch=10 n=46 v=108
36419 On ch=10 n=36 v=100
36419 On ch=10 n=38 v=81
36437 On ch=10 n=46 v=0
36444 On ch=10 n=36 v=0
36448 On ch=10 n=44 v=90
36454 On ch=10 n=38 v=0
36464 On ch=10 n=44 v=0
36479 On ch=10 n=46 v=78
36482 On ch=10 n=36 v=87
36491 On ch=10 n=46 v=0
36497 On ch=10 n=36 v=0
36508 On ch=10 n=44 v=93
36530 On ch=10 n=44 v=0
36538 On ch=10 n=46 v=100
36539 On ch=10 n=38 v=87
36541 On ch=10 n=36 v=94
36558 On ch=10 n=38 v=0
36559 On ch=10 n=36 v=0
36563 On ch=10 n=46 v=0
36566 On ch=10 n=44 v=93
36570 On ch=10 n=38 v=70
36580 On ch=10 n=38 v=0
36585 On ch=10 n=44 v=0
36597 On ch=10 n=46 v=76
36601 On ch=10 n=36 v=89
36601 On ch=10 n=38 v=59
36611 On ch=10 n=38 v=0
36616 On ch=10 n=46 v=0
36618 On ch=10 n=36 v=0
36625 On ch=10 n=44 v=96
36630 On ch=10 n=38 v=73
36646 On ch=10 n=38 v=0
36646 On ch=10 n=44 v=0
36657 On ch=10 n=38 v=86
36660 On ch=10 n=46 v=96
36662 On ch=10 n=36 v=104
36678 On ch=10 n=38 v=0
36681 On ch=10 n=36 v=0
36684 On ch=10 n=46 v=0
36686 On ch=10 n=44 v=93
36688 On ch=10 n=38 v=86
36705 On ch=10 n=44 v=0
36714 On ch=10 n=38 v=0
36718 On ch=10 n=46 v=85
36722 On ch=10 n=36 v=79
36734 On ch=10 n=36 v=0
36736 On ch=10 n=46 v=0
36748 On ch=10 n=38 v=78
36752 On ch=10 n=44 v=104
36767 On ch=10 n=38 v=0
36771 On ch=10 n=44 v=0
36778 On ch=10 n=38 v=86
36780 On ch=10 n=36 v=102
36781 On ch=10 n=46 v=90
36794 On ch=10 n=46 v=0
36797 On ch=10 n=38 v=0
36802 On ch=10 n=36 v=0
36807 On ch=10 n=38 v=81
36812 On ch=10 n=44 v=100
36820 On ch=10 n=38 v=0
36831 On ch=10 n=44 v=0
36836 On ch=10 n=38 v=66
36841 On ch=10 n=46 v=93
36842 On ch=10 n=36 v=83
36855 On ch=10 n=36 v=0
36855 On ch=10 n=46 v=0
36855 On ch=10 n=38 v=0
36868 On ch=10 n=38 v=100
36872 On ch=10 n=44 v=90
36889 On ch=10 n=38 v=0
36891 On ch=10 n=44 v=0
36898 On ch=10 n=63 v=75
36899 On ch=10 n=38 v=112
36901 On ch=10 n=46 v=104
36902 On ch=10 n=36 v=104
36916 On ch=10 n=63 v=0
36921 On ch=10 n=46 v=0
36924 On ch=10 n=36 v=0
36929 On ch=10 n=63 v=100
36933 On ch=10 n=44 v=90
36936 On ch=10 n=38 v=0
36945 On ch=10 n=63 v=0
36950 On ch=10 n=44 v=0
36963 On ch=10 n=46 v=85
36963 On ch=10 n=38 v=79
36964 On ch=10 n=36 v=90
36972 On ch=10 n=38 v=0
36977 On ch=10 n=46 v=0
36981 On ch=10 n=36 v=0
36993 On ch=10 n=44 v=96
37011 On ch=10 n=44 v=0
37021 On ch=10 n=36 v=90
37023 On ch=10 n=38 v=109
37024 On ch=10 n=46 v=108
37037 On ch=10 n=38 v=0
37041 On ch=10 n=36 v=0
37042 On ch=10 n=46 v=0
37053 On ch=10 n=44 v=96
37068 On ch=10 n=44 v=0
37082 On ch=10 n=46 v=85
37082 On ch=10 n=36 v=92
37083 On ch=10 n=38 v=70
37093 On ch=10 n=38 v=0
37095 On ch=10 n=46 v=0
37102 On ch=10 n=36 v=0
37113 On ch=10 n=44 v=100
37114 On ch=10 n=38 v=82
37130 On ch=10 n=38 v=0
37131 On ch=10 n=44 v=0
37141 On ch=10 n=38 v=94
37142 On ch=10 n=46 v=100
37142 On ch=10 n=36 v=100
37160 On ch=10 n=46 v=0
37161 On ch=10 n=36 v=0
37166 On ch=10 n=38 v=0
37171 On ch=10 n=38 v=92
37172 On ch=10 n=44 v=96
37189 On ch=10 n=38 v=0
37190 On ch=10 n=44 v=0
37199 On ch=10 n=46 v=60
37199 On ch=10 n=36 v=78
37203 On ch=10 n=38 v=46
37212 On ch=10 n=38 v=0
37215 On ch=10 n=36 v=0
37215 On ch=10 n=46 v=0
37231 On ch=10 n=44 v=100
37232 On ch=10 n=38 v=98
37251 On ch=10 n=38 v=0
37251 On ch=10 n=44 v=0
37260 On ch=10 n=36 v=100
37261 On ch=10 n=46 v=96
37264 On ch=10 n=38 v=70
37273 On ch=10 n=38 v=0
37278 On ch=10 n=36 v=0
37283 On ch=10 n=46 v=0
37290 On ch=10 n=44 v=96
37292 On ch=10 n=38 v=73
37305 On ch=10 n=38 v=0
37311 On ch=10 n=44 v=0
37319 On ch=10 n=46 v=80
37319 On ch=10 n=36 v=94
37323 On ch=10 n=38 v=90
37332 On ch=10 n=46 v=0
37341 On ch=10 n=36 v=0
37342 On ch=10 n=38 v=0
37348 On ch=10 n=44 v=90
37356 On ch=10 n=38 v=86
37367 On ch=10 n=44 v=0
37368 On ch=10 n=38 v=0
37379 On ch=10 n=46 v=100
37381 On ch=10 n=36 v=100
37383 On ch=10 n=38 v=104
37400 On ch=10 n=46 v=0
37401 On ch=10 n=38 v=0
37404 On ch=10 n=36 v=0
37407 On ch=10 n=44 v=85
37429 On ch=10 n=44 v=0
37438 On ch=10 n=46 v=82
37442 On ch=10 n=36 v=87
37453 On ch=10 n=46 v=0
37458 On ch=10 n=36 v=0
37470 On ch=10 n=44 v=96
37491 On ch=10 n=44 v=0
37499 On ch=10 n=46 v=100
37500 On ch=10 n=36 v=92
37502 On ch=10 n=48 v=92
37518 On ch=10 n=48 v=0
37519 On ch=10 n=36 v=0
37521 On ch=10 n=46 v=0
37529 On ch=10 n=44 v=96
37533 On ch=10 n=48 v=24
37548 On ch=10 n=48 v=0
37548 On ch=10 n=44 v=0
37559 On ch=10 n=46 v=61
37561 On ch=10 n=36 v=92
37562 On ch=10 n=48 v=90
37568 On ch=10 n=46 v=0
37580 On ch=10 n=36 v=0
37581 On ch=10 n=48 v=0
37588 On ch=10 n=44 v=90
37593 On ch=10 n=45 v=94
37593 On ch=10 n=47 v=86
37606 On ch=10 n=47 v=0
37609 On ch=10 n=45 v=0
37610 On ch=10 n=44 v=0
37620 On ch=10 n=46 v=104
37622 On ch=10 n=36 v=98
37641 On ch=10 n=36 v=0
37642 On ch=10 n=46 v=0
37649 On ch=10 n=44 v=90
37654 On ch=10 n=45 v=107
37667 On ch=10 n=44 v=0
37669 On ch=10 n=45 v=0
37678 On ch=10 n=46 v=75
37682 On ch=10 n=36 v=76
37694 On ch=10 n=46 v=0
37695 On ch=10 n=36 v=0
37709 On ch=10 n=44 v=90
37714 On ch=10 n=45 v=104
37726 On ch=10 n=45 v=0
37728 On ch=10 n=44 v=0
37740 On ch=10 n=46 v=93
37741 On ch=10 n=43 v=109
37742 On ch=10 n=36 v=102
37753 On ch=10 n=43 v=0
37761 On ch=10 n=46 v=0
37763 On ch=10 n=36 v=0
37769 On ch=10 n=44 v=93
37787 On ch=10 n=44 v=0
37797 On ch=10 n=46 v=67
37802 On ch=10 n=36 v=83
37805 On ch=10 n=43 v=89
37805 On ch=10 n=45 v=78
37815 On ch=10 n=45 v=0
37815 On ch=10 n=43 v=0
37816 On ch=10 n=46 v=0
37817 On ch=10 n=36 v=0
37828 On ch=10 n=44 v=93
37849 On ch=10 n=44 v=0
37860 On ch=10 n=36 v=98
37862 On ch=10 n=46 v=100
37883 On ch=10 n=36 v=0
37884 On ch=10 n=46 v=0
37891 On ch=10 n=44 v=96
37910 On ch=10 n=44 v=0
37919 On ch=10 n=46 v=78
37920 On ch=10 n=36 v=83
37935 On ch=10 n=46 v=0
37937 On ch=10 n=36 v=0
37951 On ch=10 n=44 v=93
37970 On ch=10 n=44 v=0
37979 On ch=10 n=38 v=83
37981 On ch=10 n=36 v=102
37982 On ch=10 n=46 v=100
37982 On ch=10 n=63 v=75
37991 On ch=10 n=38 v=0
38000 On ch=10 n=36 v=0
38001 On ch=10 n=63 v=0
38003 On ch=10 n=46 v=0
38010 On ch=10 n=44 v=96
38033 On ch=10 n=44 v=0
38041 On ch=10 n=46 v=73
38041 On ch=10 n=36 v=87
38059 On ch=10 n=36 v=0
38060 On ch=10 n=46 v=0
38069 On ch=10 n=38 v=94
38072 On ch=10 n=44 v=93
38081 On ch=10 n=38 v=0
38091 On ch=10 n=44 v=0
38100 On ch=10 n=38 v=67
38102 On ch=10 n=36 v=102
38103 On ch=10 n=46 v=96
38106 On ch=10 n=38 v=0
38121 On ch=10 n=36 v=0
38124 On ch=10 n=46 v=0
38129 On ch=10 n=44 v=87
38152 On ch=10 n=44 v=0
38155 On ch=10 n=38 v=115
38159 On ch=10 n=46 v=70
38159 On ch=10 n=36 v=83
38173 On ch=10 n=38 v=0
38174 On ch=10 n=46 v=0
38176 On ch=10 n=36 v=0
38190 On ch=10 n=44 v=96
38212 On ch=10 n=44 v=0
38221 On ch=10 n=36 v=96
38222 On ch=10 n=46 v=108
38239 On ch=10 n=36 v=0
38240 On ch=10 n=46 v=0
38249 On ch=10 n=44 v=93
38269 On ch=10 n=44 v=0
38279 On ch=10 n=46 v=80
38283 On ch=10 n=36 v=87
38295 On ch=10 n=36 v=0
38298 On ch=10 n=46 v=0
38312 On ch=10 n=44 v=96
38331 On ch=10 n=44 v=0
38339 On ch=10 n=36 v=94
38342 On ch=10 n=46 v=108
38344 On ch=10 n=63 v=93
38362 On ch=10 n=63 v=0
38363 On ch=10 n=46 v=0
38363 On ch=10 n=36 v=0
38369 On ch=10 n=44 v=96
38375 On ch=10 n=63 v=82
38382 On ch=10 n=63 v=0
38388 On ch=10 n=44 v=0
38400 On ch=10 n=46 v=87
38400 On ch=10 n=36 v=87
38402 On ch=10 n=41 v=70
38415 On ch=10 n=41 v=0
38419 On ch=10 n=46 v=0
38420 On ch=10 n=36 v=0
38431 On ch=10 n=41 v=76
38432 On ch=10 n=44 v=93
38441 On ch=10 n=41 v=0
38447 On ch=10 n=44 v=0
38461 On ch=10 n=46 v=100
38461 On ch=10 n=36 v=90
38480 On ch=10 n=36 v=0
38486 On ch=10 n=46 v=0
38489 On ch=10 n=44 v=96
38491 On ch=10 n=43 v=102
38503 On ch=10 n=43 v=0
38508 On ch=10 n=44 v=0
38520 On ch=10 n=46 v=75
38520 On ch=10 n=36 v=78
38533 On ch=10 n=36 v=0
38536 On ch=10 n=46 v=0
38548 On ch=10 n=45 v=92
38551 On ch=10 n=44 v=96
38557 On ch=10 n=45 v=0
38570 On ch=10 n=44 v=0
38580 On ch=10 n=36 v=107
38582 On ch=10 n=46 v=113
38602 On ch=10 n=36 v=0
38603 On ch=10 n=46 v=0
38612 On ch=10 n=44 v=100
38631 On ch=10 n=44 v=0
38638 On ch=10 n=46 v=75
38640 On ch=10 n=36 v=84
38642 On ch=10 n=41 v=87
38652 On ch=10 n=46 v=0
38654 On ch=10 n=41 v=0
38659 On ch=10 n=36 v=0
38671 On ch=10 n=44 v=93
38690 On ch=10 n=44 v=0
38700 On ch=10 n=36 v=96
38702 On ch=10 n=46 v=100
38720 On ch=10 n=46 v=0
38720 On ch=10 n=36 v=0
38728 On ch=10 n=41 v=94
38731 On ch=10 n=44 v=96
38738 On ch=10 n=41 v=0
38750 On ch=10 n=44 v=0
38761 On ch=10 n=46 v=82
38763 On ch=10 n=36 v=70
38775 On ch=10 n=36 v=0
38775 On ch=10 n=46 v=0
38791 On ch=10 n=41 v=75
38792 On ch=10 n=44 v=96
38800 On ch=10 n=41 v=0
38810 On ch=10 n=44 v=0
38817 On ch=10 n=45 v=94
38821 On ch=10 n=36 v=98
38822 On ch=10 n=46 v=104
38836 On ch=10 n=45 v=0
38840 On ch=10 n=36 v=0
38844 On ch=10 n=46 v=0
38851 On ch=10 n=44 v=96
38869 On ch=10 n=44 v=0
38881 On ch=10 n=46 v=75
38881 On ch=10 n=36 v=78
38894 On ch=10 n=36 v=0
38897 On ch=10 n=46 v=0
38912 On ch=10 n=44 v=93
38932 On ch=10 n=44 v=0
38940 On ch=10 n=36 v=98
38940 On ch=10 n=38 v=83
38940 On ch=10 n=63 v=100
38942 On ch=10 n=46 v=100
38951 On ch=10 n=38 v=0
38959 On ch=10 n=36 v=0
38959 On ch=10 n=63 v=0
38964 On ch=10 n=46 v=0
38972 On ch=10 n=44 v=96
38988 On ch=10 n=44 v=0
38999 On ch=10 n=46 v=73
39002 On ch=10 n=36 v=76
39015 On ch=10 n=36 v=0
39018 On ch=10 n=46 v=0
39028 On ch=10 n=38 v=86
39031 On ch=10 n=44 v=90
39034 On ch=10 n=38 v=0
39049 On ch=10 n=44 v=0
39058 On ch=10 n=38 v=56
39061 On ch=10 n=36 v=98
39063 On ch=10 n=46 v=108
39065 On ch=10 n=38 v=0
39082 On ch=10 n=36 v=0
39084 On ch=10 n=46 v=0
39091 On ch=10 n=44 v=93
39112 On ch=10 n=44 v=0
39119 On ch=10 n=38 v=73
39121 On ch=10 n=46 v=68
39122 On ch=10 n=36 v=74
39128 On ch=10 n=38 v=0
39132 On ch=10 n=36 v=0
39137 On ch=10 n=46 v=0
39152 On ch=10 n=44 v=93
39152 On ch=10 n=38 v=73
39161 On ch=10 n=38 v=0
39174 On ch=10 n=44 v=0
39179 On ch=10 n=36 v=92
39179 On ch=10 n=38 v=66
39182 On ch=10 n=46 v=104
39191 On ch=10 n=38 v=0
39201 On ch=10 n=36 v=0
39204 On ch=10 n=46 v=0
39209 On ch=10 n=38 v=98
39212 On ch=10 n=44 v=90
39226 On ch=10 n=38 v=0
39231 On ch=10 n=44 v=0
39241 On ch=10 n=46 v=76
39241 On ch=10 n=36 v=75
39256 On ch=10 n=36 v=0
39260 On ch=10 n=46 v=0
39271 On ch=10 n=38 v=82
39272 On ch=10 n=44 v=93
39282 On ch=10 n=38 v=0
39288 On ch=10 n=44 v=0
39298 On ch=10 n=63 v=93
39302 On ch=10 n=46 v=108
39302 On ch=10 n=36 v=102
39302 On ch=10 n=38 v=100
39311 On ch=10 n=63 v=0
39316 On ch=10 n=38 v=0
39322 On ch=10 n=36 v=0
39327 On ch=10 n=46 v=0
39329 On ch=10 n=44 v=87
39332 On ch=10 n=38 v=92
39341 On ch=10 n=38 v=0
39351 On ch=10 n=44 v=0
39361 On ch=10 n=46 v=75
39361 On ch=10 n=36 v=83
39362 On ch=10 n=43 v=96
39369 On ch=10 n=43 v=0
39377 On ch=10 n=36 v=0
39379 On ch=10 n=46 v=0
39392 On ch=10 n=44 v=96
39412 On ch=10 n=44 v=0
39422 On ch=10 n=46 v=104
39422 On ch=10 n=36 v=102
39422 On ch=10 n=43 v=102
39423 On ch=10 n=63 v=85
39427 On ch=10 n=43 v=0
39436 On ch=10 n=63 v=0
39440 On ch=10 n=36 v=0
39447 On ch=10 n=46 v=0
39451 On ch=10 n=43 v=98
39452 On ch=10 n=44 v=87
39464 On ch=10 n=43 v=0
39468 On ch=10 n=44 v=0
39481 On ch=10 n=45 v=98
39482 On ch=10 n=46 v=62
39482 On ch=10 n=36 v=82
39494 On ch=10 n=45 v=0
39496 On ch=10 n=36 v=0
39498 On ch=10 n=46 v=0
39510 On ch=10 n=45 v=100
39512 On ch=10 n=44 v=87
39526 On ch=10 n=45 v=0
39532 On ch=10 n=44 v=0
39537 On ch=10 n=48 v=94
39539 On ch=10 n=47 v=59
39541 On ch=10 n=47 v=0
39542 On ch=10 n=36 v=100
39543 On ch=10 n=46 v=104
39549 On ch=10 n=48 v=0
39564 On ch=10 n=36 v=0
39565 On ch=10 n=46 v=0
39569 On ch=10 n=47 v=78
39569 On ch=10 n=48 v=94
39571 On ch=10 n=44 v=87
39576 On ch=10 n=47 v=0
39585 On ch=10 n=48 v=0
39591 On ch=10 n=44 v=0
39602 On ch=10 n=46 v=71
39602 On ch=10 n=36 v=70
39618 On ch=10 n=36 v=0
39620 On ch=10 n=46 v=0
39631 On ch=10 n=44 v=87
39632 On ch=10 n=48 v=109
39648 On ch=10 n=48 v=0
39657 On ch=10 n=44 v=0
39663 On ch=10 n=46 v=100
39663 On ch=10 n=36 v=102
39681 On ch=10 n=36 v=0
39685 On ch=10 n=46 v=0
39691 On ch=10 n=47 v=102
39692 On ch=10 n=44 v=96
39702 On ch=10 n=47 v=0
39710 On ch=10 n=44 v=0
39721 On ch=10 n=41 v=96
39722 On ch=10 n=36 v=79
39723 On ch=10 n=46 v=75
39731 On ch=10 n=41 v=0
39735 On ch=10 n=36 v=0
39739 On ch=10 n=46 v=0
39748 On ch=10 n=43 v=98
39752 On ch=10 n=44 v=87
39755 On ch=10 n=43 v=0
39768 On ch=10 n=44 v=0
39778 On ch=10 n=38 v=100
39781 On ch=10 n=36 v=102
39782 On ch=10 n=63 v=87
39784 On ch=10 n=46 v=108
39786 On ch=10 n=38 v=0
39794 On ch=10 n=63 v=0
39804 On ch=10 n=36 v=0
39807 On ch=10 n=46 v=0
39811 On ch=10 n=63 v=87
39814 On ch=10 n=44 v=96
39817 On ch=10 n=63 v=0
39832 On ch=10 n=44 v=0
39841 On ch=10 n=36 v=81
39841 On ch=10 n=63 v=90
39842 On ch=10 n=46 v=78
39842 On ch=10 n=38 v=94
39849 On ch=10 n=38 v=0
39854 On ch=10 n=63 v=0
39855 On ch=10 n=36 v=0
39857 On ch=10 n=46 v=0
39872 On ch=10 n=44 v=93
39872 On ch=10 n=63 v=100
39891 On ch=10 n=44 v=0
39896 On ch=10 n=63 v=0
39901 On ch=10 n=36 v=98
39902 On ch=10 n=46 v=104
39902 On ch=10 n=38 v=71
39912 On ch=10 n=38 v=0
39920 On ch=10 n=36 v=0
39927 On ch=10 n=46 v=0
39928 On ch=10 n=44 v=93
39933 On ch=10 n=38 v=89
39943 On ch=10 n=38 v=0
39947 On ch=10 n=44 v=0
39959 On ch=10 n=46 v=73
39961 On ch=10 n=36 v=79
39961 On ch=10 n=38 v=87
39976 On ch=10 n=36 v=0
39978 On ch=10 n=38 v=0
39978 On ch=10 n=46 v=0
39990 On ch=10 n=44 v=96
39990 On ch=10 n=38 v=96
40004 On ch=10 n=38 v=0
40009 On ch=10 n=44 v=0
40020 On ch=10 n=36 v=100
40020 On ch=10 n=38 v=70
40022 On ch=10 n=46 v=108
40032 On ch=10 n=38 v=0
40042 On ch=10 n=36 v=0
40046 On ch=10 n=46 v=0
40046 On ch=10 n=38 v=92
40051 On ch=10 n=44 v=90
40064 On ch=10 n=38 v=0
40069 On ch=10 n=44 v=0
40080 On ch=10 n=36 v=76
40081 On ch=10 n=46 v=76
40093 On ch=10 n=36 v=0
40097 On ch=10 n=46 v=0
40108 On ch=10 n=38 v=78
40110 On ch=10 n=44 v=90
40118 On ch=10 n=38 v=0
40129 On ch=10 n=44 v=0
40138 On ch=10 n=38 v=104
40140 On ch=10 n=36 v=100
40142 On ch=10 n=46 v=100
40147 On ch=10 n=38 v=0
40162 On ch=10 n=36 v=0
40167 On ch=10 n=46 v=0
40170 On ch=10 n=44 v=100
40170 On ch=10 n=38 v=82
40181 On ch=10 n=38 v=0
40189 On ch=10 n=44 v=0
40200 On ch=10 n=36 v=78
40200 On ch=10 n=38 v=92
40201 On ch=10 n=46 v=73
40208 On ch=10 n=38 v=0
40215 On ch=10 n=36 v=0
40217 On ch=10 n=46 v=0
40230 On ch=10 n=44 v=93
40230 On ch=10 n=38 v=107
40249 On ch=10 n=44 v=0
40258 On ch=10 n=63 v=90
40261 On ch=10 n=36 v=102
40262 On ch=10 n=46 v=108
40264 On ch=10 n=38 v=0
40274 On ch=10 n=63 v=0
40281 On ch=10 n=36 v=0
40286 On ch=10 n=46 v=0
40288 On ch=10 n=63 v=82
40292 On ch=10 n=44 v=96
40299 On ch=10 n=63 v=0
40311 On ch=10 n=44 v=0
40316 On ch=10 n=42 v=100
40319 On ch=10 n=63 v=82
40321 On ch=10 n=46 v=71
40322 On ch=10 n=36 v=82
40329 On ch=10 n=42 v=0
40335 On ch=10 n=36 v=0
40336 On ch=10 n=46 v=0
40338 On ch=10 n=63 v=0
40348 On ch=10 n=42 v=113
40351 On ch=10 n=63 v=108
40352 On ch=10 n=44 v=93
40361 On ch=10 n=42 v=0
40366 On ch=10 n=63 v=0
40373 On ch=10 n=44 v=0
40375 On ch=10 n=44 v=73
40382 On ch=10 n=44 v=0
40382 On ch=10 n=46 v=108
40382 On ch=10 n=36 v=102
40403 On ch=10 n=46 v=0
40404 On ch=10 n=36 v=0
40407 On ch=10 n=44 v=113
40412 On ch=10 n=44 v=96
40414 On ch=10 n=63 v=108
40420 On ch=10 n=44 v=0
40430 On ch=10 n=63 v=0
40430 On ch=10 n=44 v=0
40437 On ch=10 n=45 v=90
40438 On ch=10 n=47 v=59
40440 On ch=10 n=46 v=73
40442 On ch=10 n=36 v=77
40443 On ch=10 n=47 v=0
40453 On ch=10 n=45 v=0
40456 On ch=10 n=46 v=0
40458 On ch=10 n=36 v=0
40466 On ch=10 n=46 v=90
40472 On ch=10 n=44 v=93
40480 On ch=10 n=46 v=0
40494 On ch=10 n=44 v=0
40496 On ch=10 n=45 v=86
40501 On ch=10 n=36 v=98
40502 On ch=10 n=46 v=113
40510 On ch=10 n=45 v=0
40522 On ch=10 n=36 v=0
40523 On ch=10 n=46 v=0
40529 On ch=10 n=43 v=83
40531 On ch=10 n=44 v=90
40542 On ch=10 n=43 v=0
40550 On ch=10 n=44 v=0
40559 On ch=10 n=36 v=75
40561 On ch=10 n=46 v=75
40573 On ch=10 n=46 v=0
40573 On ch=10 n=36 v=0
40592 On ch=10 n=44 v=93
40593 On ch=10 n=45 v=100
40609 On ch=10 n=45 v=0
40611 On ch=10 n=44 v=0
40618 On ch=10 n=36 v=102
40620 On ch=10 n=43 v=89
40622 On ch=10 n=46 v=113
40629 On ch=10 n=43 v=0
40640 On ch=10 n=36 v=0
40641 On ch=10 n=46 v=0
40651 On ch=10 n=44 v=96
40651 On ch=10 n=45 v=79
40673 On ch=10 n=45 v=0
40674 On ch=10 n=44 v=0
40680 On ch=10 n=36 v=77
40681 On ch=10 n=43 v=107
40682 On ch=10 n=46 v=73
40693 On ch=10 n=36 v=0
40694 On ch=10 n=46 v=0
40702 On ch=10 n=43 v=0
40711 On ch=10 n=45 v=94
40712 On ch=10 n=44 v=93
40729 On ch=10 n=45 v=0
40734 On ch=10 n=44 v=0
40738 On ch=10 n=36 v=102
40738 On ch=10 n=63 v=73
40741 On ch=10 n=46 v=113
40741 On ch=10 n=40 v=82
40741 On ch=10 n=41 v=86
40754 On ch=10 n=63 v=0
40755 On ch=10 n=40 v=0
40755 On ch=10 n=41 v=0
40763 On ch=10 n=36 v=0
40764 On ch=10 n=46 v=0
40767 On ch=10 n=63 v=58
40771 On ch=10 n=44 v=93
40775 On ch=10 n=63 v=0
40790 On ch=10 n=44 v=0
40799 On ch=10 n=63 v=60
40800 On ch=10 n=46 v=85
40801 On ch=10 n=36 v=84
40803 On ch=10 n=38 v=86
40815 On ch=10 n=63 v=0
40816 On ch=10 n=38 v=0
40816 On ch=10 n=36 v=0
40819 On ch=10 n=46 v=0
40830 On ch=10 n=63 v=93
40832 On ch=10 n=44 v=96
40840 On ch=10 n=63 v=0
40850 On ch=10 n=44 v=0
40861 On ch=10 n=36 v=100
40863 On ch=10 n=46 v=113
40863 On ch=10 n=38 v=87
40869 On ch=10 n=38 v=0
40883 On ch=10 n=36 v=0
40884 On ch=10 n=46 v=0
40892 On ch=10 n=38 v=92
40892 On ch=10 n=63 v=90
40896 On ch=10 n=44 v=55
40901 On ch=10 n=38 v=0
40914 On ch=10 n=44 v=0
40916 On ch=10 n=63 v=0
40921 On ch=10 n=38 v=70
40922 On ch=10 n=36 v=84
40925 On ch=10 n=46 v=80
40934 On ch=10 n=36 v=0
40934 On ch=10 n=38 v=0
40938 On ch=10 n=46 v=0
40951 On ch=10 n=38 v=94
40952 On ch=10 n=63 v=66
40967 On ch=10 n=38 v=0
40974 On ch=10 n=63 v=0
40976 On ch=10 n=44 v=104
40979 On ch=10 n=38 v=82
40980 On ch=10 n=36 v=104
40995 On ch=10 n=38 v=0
40998 On ch=10 n=44 v=0
41003 On ch=10 n=36 v=0
41004 On ch=10 n=46 v=108
41009 On ch=10 n=38 v=92
41014 On ch=10 n=44 v=93
41016 On ch=10 n=46 v=0
41025 On ch=10 n=38 v=0
41032 On ch=10 n=44 v=0
41040 On ch=10 n=36 v=74
41041 On ch=10 n=46 v=90
41053 On ch=10 n=36 v=0
41055 On ch=10 n=46 v=0
41070 On ch=10 n=38 v=96
41071 On ch=10 n=44 v=85
41087 On ch=10 n=38 v=0
41093 On ch=10 n=44 v=0
41099 On ch=10 n=46 v=113
41099 On ch=10 n=36 v=92
41102 On ch=10 n=38 v=94
41112 On ch=10 n=38 v=0
41119 On ch=10 n=36 v=0
41124 On ch=10 n=46 v=0
41130 On ch=10 n=44 v=87
41130 On ch=10 n=38 v=78
41144 On ch=10 n=38 v=0
41150 On ch=10 n=44 v=0
41159 On ch=10 n=46 v=70
41159 On ch=10 n=36 v=81
41159 On ch=10 n=38 v=92
41172 On ch=10 n=36 v=0
41175 On ch=10 n=38 v=0
41178 On ch=10 n=46 v=0
41189 On ch=10 n=38 v=107
41190 On ch=10 n=44 v=71
41204 On ch=10 n=38 v=0
41210 On ch=10 n=44 v=0
41218 On ch=10 n=38 v=70
41219 On ch=10 n=46 v=104
41222 On ch=10 n=36 v=104
41237 On ch=10 n=36 v=0
41240 On ch=10 n=38 v=0
41241 On ch=10 n=46 v=0
41248 On ch=10 n=44 v=96
41249 On ch=10 n=38 v=104
41264 On ch=10 n=38 v=0
41266 On ch=10 n=44 v=0
41279 On ch=10 n=46 v=93
41281 On ch=10 n=36 v=79
41295 On ch=10 n=36 v=0
41301 On ch=10 n=46 v=0
41310 On ch=10 n=44 v=96
41329 On ch=10 n=44 v=0
41340 On ch=10 n=63 v=104
41341 On ch=10 n=46 v=100
41341 On ch=10 n=36 v=96
41344 On ch=10 n=48 v=112
41355 On ch=10 n=48 v=0
41359 On ch=10 n=63 v=0
41360 On ch=10 n=46 v=0
41361 On ch=10 n=36 v=0
41368 On ch=10 n=44 v=90
41386 On ch=10 n=44 v=0
41398 On ch=10 n=48 v=73
41399 On ch=10 n=46 v=87
41402 On ch=10 n=36 v=78
41411 On ch=10 n=48 v=0
41414 On ch=10 n=36 v=0
41417 On ch=10 n=46 v=0
41430 On ch=10 n=44 v=93
41431 On ch=10 n=48 v=112
41449 On ch=10 n=48 v=0
41449 On ch=10 n=44 v=0
41461 On ch=10 n=46 v=104
41461 On ch=10 n=36 v=100
41482 On ch=10 n=36 v=0
41486 On ch=10 n=46 v=0
41487 On ch=10 n=44 v=85
41512 On ch=10 n=44 v=0
41519 On ch=10 n=46 v=68
41520 On ch=10 n=36 v=74
41523 On ch=10 n=45 v=100
41533 On ch=10 n=36 v=0
41537 On ch=10 n=46 v=0
41542 On ch=10 n=45 v=0
41548 On ch=10 n=44 v=85
41551 On ch=10 n=45 v=86
41562 On ch=10 n=45 v=0
41573 On ch=10 n=44 v=0
41580 On ch=10 n=46 v=104
41580 On ch=10 n=36 v=100
41580 On ch=10 n=45 v=92
41599 On ch=10 n=36 v=0
41605 On ch=10 n=45 v=0
41605 On ch=10 n=46 v=0
41609 On ch=10 n=44 v=87
41611 On ch=10 n=45 v=118
41628 On ch=10 n=45 v=0
41631 On ch=10 n=44 v=0
41638 On ch=10 n=46 v=76
41639 On ch=10 n=36 v=79
41650 On ch=10 n=36 v=0
41657 On ch=10 n=46 v=0
41669 On ch=10 n=44 v=85
41669 On ch=10 n=43 v=98
41688 On ch=10 n=44 v=0
41690 On ch=10 n=43 v=0
41698 On ch=10 n=36 v=100
41699 On ch=10 n=43 v=118
41701 On ch=10 n=46 v=108
41717 On ch=10 n=36 v=0
41721 On ch=10 n=43 v=0
41724 On ch=10 n=46 v=0
41731 On ch=10 n=44 v=90
41731 On ch=10 n=43 v=112
41749 On ch=10 n=44 v=0
41760 On ch=10 n=43 v=0
41761 On ch=10 n=36 v=76
41762 On ch=10 n=46 v=73
41772 On ch=10 n=46 v=0
41774 On ch=10 n=36 v=0
41791 On ch=10 n=44 v=90
41794 On ch=10 n=41 v=109
41812 On ch=10 n=41 v=0
41813 On ch=10 n=44 v=0
41819 On ch=10 n=41 v=115
41820 On ch=10 n=46 v=104
41821 On ch=10 n=36 v=96
41823 On ch=10 n=63 v=126
41833 On ch=10 n=41 v=0
41837 On ch=10 n=63 v=0
41840 On ch=10 n=36 v=0
41841 On ch=10 n=46 v=0
41851 On ch=10 n=44 v=85
41851 On ch=10 n=41 v=90
41870 On ch=10 n=41 v=0
41870 On ch=10 n=44 v=0
41879 On ch=10 n=46 v=67
41879 On ch=10 n=36 v=72
41881 On ch=10 n=41 v=127
41891 On ch=10 n=36 v=0
41891 On ch=10 n=46 v=0
41903 On ch=10 n=41 v=0
41911 On ch=10 n=44 v=85
41930 On ch=10 n=44 v=0
41939 On ch=10 n=36 v=104
41942 On ch=10 n=46 v=100
41944 On ch=10 n=41 v=82
41951 On ch=10 n=41 v=0
41958 On ch=10 n=36 v=0
41960 On ch=10 n=46 v=0
41971 On ch=10 n=44 v=90
41971 On ch=10 n=41 v=122
41985 On ch=10 n=41 v=0
41993 On ch=10 n=44 v=0
41998 On ch=10 n=46 v=82
42001 On ch=10 n=36 v=64
42013 On ch=10 n=46 v=0
42014 On ch=10 n=36 v=0
42031 On ch=10 n=44 v=93
42031 On ch=10 n=41 v=102
42050 On ch=10 n=41 v=0
42056 On ch=10 n=44 v=0
42059 On ch=10 n=46 v=113
42061 On ch=10 n=36 v=94
42062 On ch=10 n=41 v=122
42077 On ch=10 n=41 v=0
42078 On ch=10 n=46 v=0
42083 On ch=10 n=36 v=0
42088 On ch=10 n=44 v=78
42111 On ch=10 n=44 v=0
42118 On ch=10 n=46 v=67
42122 On ch=10 n=41 v=86
42124 On ch=10 n=36 v=79
42131 On ch=10 n=46 v=0
42134 On ch=10 n=36 v=0
42136 On ch=10 n=41 v=0
42151 On ch=10 n=41 v=126
42152 On ch=10 n=44 v=90
42165 On ch=10 n=41 v=0
42171 On ch=10 n=44 v=0
42179 On ch=10 n=46 v=100
42183 On ch=10 n=36 v=102
42197 On ch=10 n=46 v=0
42203 On ch=10 n=36 v=0
42207 On ch=10 n=44 v=78
42222 On ch=10 n=44 v=0
42235 On ch=10 n=41 v=14
42238 On ch=10 n=46 v=60
42244 On ch=10 n=36 v=50
42245 On ch=10 n=41 v=0
42245 On ch=10 n=38 v=112
42246 On ch=10 n=37 v=67
42251 On ch=10 n=37 v=0
42251 On ch=10 n=36 v=0
42253 On ch=10 n=46 v=0
42261 On ch=10 n=38 v=0
42268 On ch=10 n=44 v=85
42289 On ch=10 n=44 v=0
42299 On ch=10 n=46 v=108
42302 On ch=10 n=36 v=102
42304 On ch=10 n=63 v=113
42306 On ch=10 n=38 v=112
42320 On ch=10 n=63 v=0
42320 On ch=10 n=46 v=0
42320 On ch=10 n=36 v=0
42322 On ch=10 n=38 v=0
42330 On ch=10 n=44 v=78
42346 On ch=10 n=44 v=0
42359 On ch=10 n=46 v=75
42359 On ch=10 n=36 v=70
42366 On ch=10 n=38 v=109
42372 On ch=10 n=36 v=0
42375 On ch=10 n=46 v=0
42383 On ch=10 n=38 v=0
42394 On ch=10 n=44 v=93
42409 On ch=10 n=44 v=0
42421 On ch=10 n=46 v=108
42421 On ch=10 n=36 v=104
42426 On ch=10 n=38 v=90
42439 On ch=10 n=38 v=0
42440 On ch=10 n=36 v=0
42443 On ch=10 n=46 v=0
42449 On ch=10 n=44 v=85
42454 On ch=10 n=38 v=94
42466 On ch=10 n=38 v=0
42468 On ch=10 n=44 v=0
42479 On ch=10 n=46 v=71
42482 On ch=10 n=36 v=75
42492 On ch=10 n=46 v=0
42493 On ch=10 n=36 v=0
42511 On ch=10 n=44 v=93
42513 On ch=10 n=38 v=102
42528 On ch=10 n=38 v=0
42535 On ch=10 n=44 v=0
42541 On ch=10 n=46 v=108
42541 On ch=10 n=36 v=98
42560 On ch=10 n=46 v=0
42564 On ch=10 n=36 v=0
42570 On ch=10 n=44 v=80
42575 On ch=10 n=38 v=100
42587 On ch=10 n=38 v=0
42588 On ch=10 n=44 v=0
42598 On ch=10 n=46 v=80
42602 On ch=10 n=38 v=89
42604 On ch=10 n=36 v=79
42610 On ch=10 n=36 v=0
42611 On ch=10 n=46 v=0
42622 On ch=10 n=38 v=0
42629 On ch=10 n=44 v=93
42631 On ch=10 n=38 v=107
42647 On ch=10 n=38 v=0
42651 On ch=10 n=44 v=0
42658 On ch=10 n=46 v=108
42660 On ch=10 n=36 v=100
42660 On ch=10 n=38 v=107
42660 On ch=10 n=63 v=119
42676 On ch=10 n=63 v=0
42680 On ch=10 n=46 v=0
42682 On ch=10 n=36 v=0
42688 On ch=10 n=38 v=0
42689 On ch=10 n=44 v=87
42708 On ch=10 n=44 v=0
42717 On ch=10 n=46 v=75
42720 On ch=10 n=36 v=72
42733 On ch=10 n=36 v=0
42735 On ch=10 n=46 v=0
42749 On ch=10 n=44 v=90
42772 On ch=10 n=44 v=0
42778 On ch=10 n=46 v=104
42779 On ch=10 n=36 v=96
42781 On ch=10 n=41 v=109
42798 On ch=10 n=41 v=0
42799 On ch=10 n=36 v=0
42803 On ch=10 n=46 v=0
42809 On ch=10 n=44 v=90
42811 On ch=10 n=41 v=102
42826 On ch=10 n=41 v=0
42830 On ch=10 n=44 v=0
42840 On ch=10 n=46 v=70
42840 On ch=10 n=36 v=79
42841 On ch=10 n=43 v=92
42851 On ch=10 n=43 v=0
42853 On ch=10 n=36 v=0
42853 On ch=10 n=46 v=0
42869 On ch=10 n=44 v=87
42870 On ch=10 n=43 v=112
42887 On ch=10 n=43 v=0
42893 On ch=10 n=44 v=0
42899 On ch=10 n=36 v=100
42900 On ch=10 n=45 v=109
42901 On ch=10 n=46 v=108
42915 On ch=10 n=45 v=0
42919 On ch=10 n=36 v=0
42924 On ch=10 n=46 v=0
42929 On ch=10 n=44 v=87
42932 On ch=10 n=45 v=115
42950 On ch=10 n=45 v=0
42953 On ch=10 n=44 v=0
42958 On ch=10 n=46 v=49
42959 On ch=10 n=36 v=76
42959 On ch=10 n=45 v=62
42963 On ch=10 n=45 v=0
42973 On ch=10 n=36 v=0
42975 On ch=10 n=46 v=0
42989 On ch=10 n=44 v=87
43010 On ch=10 n=44 v=0
43014 On ch=10 n=47 v=115
43019 On ch=10 n=36 v=102
43021 On ch=10 n=46 v=96
43028 On ch=10 n=47 v=0
43037 On ch=10 n=36 v=0
43045 On ch=10 n=46 v=0
43048 On ch=10 n=44 v=104
43071 On ch=10 n=44 v=0
43079 On ch=10 n=46 v=82
43079 On ch=10 n=36 v=76
43092 On ch=10 n=36 v=0
43098 On ch=10 n=46 v=0
43112 On ch=10 n=44 v=90
43131 On ch=10 n=44 v=0
43139 On ch=10 n=36 v=100
43141 On ch=10 n=46 v=104
43144 On ch=10 n=48 v=115
43144 On ch=10 n=63 v=119
43160 On ch=10 n=63 v=0
43161 On ch=10 n=48 v=0
43161 On ch=10 n=36 v=0
43164 On ch=10 n=46 v=0
43170 On ch=10 n=44 v=96
43171 On ch=10 n=63 v=90
43172 On ch=10 n=48 v=107
43185 On ch=10 n=48 v=0
43188 On ch=10 n=44 v=0
43200 On ch=10 n=36 v=79
43200 On ch=10 n=48 v=96
43201 On ch=10 n=46 v=85
43217 On ch=10 n=36 v=0
43218 On ch=10 n=46 v=0
43224 On ch=10 n=48 v=0
43229 On ch=10 n=63 v=0
43230 On ch=10 n=48 v=122
43232 On ch=10 n=44 v=96
43249 On ch=10 n=48 v=0
43250 On ch=10 n=44 v=0
43260 On ch=10 n=36 v=100
43261 On ch=10 n=46 v=113
43283 On ch=10 n=46 v=0
43283 On ch=10 n=36 v=0
43289 On ch=10 n=44 v=90
43294 On ch=10 n=50 v=115
43308 On ch=10 n=44 v=0
43309 On ch=10 n=50 v=0
43319 On ch=10 n=46 v=82
43319 On ch=10 n=36 v=75
43333 On ch=10 n=36 v=0
43335 On ch=10 n=46 v=0
43350 On ch=10 n=44 v=100
43371 On ch=10 n=44 v=0
43382 On ch=10 n=46 v=108
43382 On ch=10 n=36 v=104
43403 On ch=10 n=36 v=0
43404 On ch=10 n=46 v=0
43409 On ch=10 n=44 v=100
43434 On ch=10 n=44 v=0
43439 On ch=10 n=36 v=61
43440 On ch=10 n=46 v=68
43452 On ch=10 n=36 v=0
43454 On ch=10 n=46 v=0
43475 On ch=10 n=44 v=96
43498 On ch=10 n=44 v=0
43499 On ch=10 n=36 v=104
43503 On ch=10 n=46 v=100
43519 On ch=10 n=46 v=0
43522 On ch=10 n=36 v=0
43531 On ch=10 n=44 v=85
43551 On ch=10 n=44 v=0
43558 On ch=10 n=46 v=82
43561 On ch=10 n=36 v=75
43569 On ch=10 n=36 v=0
43577 On ch=10 n=46 v=0
43592 On ch=10 n=44 v=96
43614 On ch=10 n=44 v=0
43619 On ch=10 n=36 v=104
43621 On ch=10 n=40 v=115
43621 On ch=10 n=63 v=73
43622 On ch=10 n=46 v=113
43631 On ch=10 n=63 v=0
43639 On ch=10 n=40 v=0
43640 On ch=10 n=36 v=0
43644 On ch=10 n=46 v=0
43649 On ch=10 n=40 v=94
43651 On ch=10 n=44 v=93
43662 On ch=10 n=40 v=0
43669 On ch=10 n=44 v=0
43679 On ch=10 n=36 v=70
43680 On ch=10 n=46 v=75
43680 On ch=10 n=40 v=109
43684 On ch=10 n=63 v=71
43692 On ch=10 n=46 v=0
43692 On ch=10 n=36 v=0
43694 On ch=10 n=63 v=0
43706 On ch=10 n=40 v=0
43709 On ch=10 n=44 v=93
43709 On ch=10 n=40 v=122
43712 On ch=10 n=39 v=76
43714 On ch=10 n=39 v=0
43714 On ch=10 n=63 v=73
43721 On ch=10 n=63 v=0
43729 On ch=10 n=40 v=0
43729 On ch=10 n=44 v=0
43740 On ch=10 n=36 v=102
43741 On ch=10 n=46 v=113
43743 On ch=10 n=49 v=70
43743 On ch=10 n=63 v=52
43747 On ch=10 n=49 v=0
43749 On ch=10 n=63 v=0
43759 On ch=10 n=36 v=0
43765 On ch=10 n=46 v=0
43769 On ch=10 n=44 v=96
43769 On ch=10 n=40 v=109
43774 On ch=10 n=63 v=90
43783 On ch=10 n=63 v=0
43787 On ch=10 n=44 v=0
43794 On ch=10 n=40 v=0
43800 On ch=10 n=46 v=73
43802 On ch=10 n=36 v=71
43803 On ch=10 n=38 v=112
43804 On ch=10 n=63 v=104
43811 On ch=10 n=36 v=0
43812 On ch=10 n=46 v=0
43816 On ch=10 n=38 v=0
43821 On ch=10 n=63 v=0
43831 On ch=10 n=44 v=96
43834 On ch=10 n=63 v=58
43841 On ch=10 n=63 v=0
43850 On ch=10 n=44 v=0
43861 On ch=10 n=36 v=102
43862 On ch=10 n=40 v=107
43862 On ch=10 n=63 v=56
43863 On ch=10 n=46 v=113
43864 On ch=10 n=49 v=62
43868 On ch=10 n=49 v=0
43877 On ch=10 n=63 v=0
43881 On ch=10 n=36 v=0
43882 On ch=10 n=40 v=0
43886 On ch=10 n=46 v=0
43889 On ch=10 n=44 v=96
43892 On ch=10 n=63 v=108
43894 On ch=10 n=38 v=118
43905 On ch=10 n=63 v=0
43911 On ch=10 n=38 v=0
43911 On ch=10 n=44 v=0
43919 On ch=10 n=46 v=73
43922 On ch=10 n=36 v=70
43931 On ch=10 n=36 v=0
43935 On ch=10 n=46 v=0
43948 On ch=10 n=63 v=82
43950 On ch=10 n=40 v=107
43953 On ch=10 n=63 v=0
43955 On ch=10 n=44 v=100
43973 On ch=10 n=40 v=0
43980 On ch=10 n=44 v=0
43980 On ch=10 n=63 v=119
43981 On ch=10 n=36 v=102
43982 On ch=10 n=38 v=115
43983 On ch=10 n=46 v=113
44000 On ch=10 n=36 v=0
44001 On ch=10 n=46 v=0
44002 On ch=10 n=38 v=0
44003 On ch=10 n=63 v=0
44009 On ch=10 n=44 v=73
44028 On ch=10 n=44 v=0
44040 On ch=10 n=46 v=82
44041 On ch=10 n=36 v=74
44042 On ch=10 n=40 v=102
44053 On ch=10 n=46 v=0
44055 On ch=10 n=36 v=0
44068 On ch=10 n=40 v=0
44072 On ch=10 n=44 v=100
44074 On ch=10 n=38 v=115
44096 On ch=10 n=38 v=0
44097 On ch=10 n=44 v=0
44101 On ch=10 n=46 v=113
44101 On ch=10 n=36 v=102
44120 On ch=10 n=36 v=0
44121 On ch=10 n=46 v=0
44129 On ch=10 n=44 v=87
44146 On ch=10 n=44 v=0
44155 On ch=10 n=40 v=21
44160 On ch=10 n=46 v=82
44161 On ch=10 n=40 v=0
44161 On ch=10 n=36 v=72
44174 On ch=10 n=36 v=0
44175 On ch=10 n=46 v=0
44184 On ch=10 n=38 v=104
44191 On ch=10 n=44 v=96
44195 On ch=10 n=38 v=0
44210 On ch=10 n=44 v=0
44221 On ch=10 n=46 v=113
44221 On ch=10 n=36 v=102
44224 On ch=10 n=63 v=108
44234 On ch=10 n=63 v=0
44239 On ch=10 n=36 v=0
44241 On ch=10 n=46 v=0
44249 On ch=10 n=44 v=87
44249 On ch=10 n=63 v=108
44253 On ch=10 n=63 v=0
44256 On ch=10 n=63 v=96
44265 On ch=10 n=44 v=0
44268 On ch=10 n=63 v=0
44279 On ch=10 n=46 v=87
44281 On ch=10 n=36 v=82
44282 On ch=10 n=63 v=126
44284 On ch=10 n=61 v=76
44286 On ch=10 n=61 v=0
44290 On ch=10 n=36 v=0
44295 On ch=10 n=46 v=0
44298 On ch=10 n=63 v=0
44311 On ch=10 n=44 v=96
44330 On ch=10 n=44 v=0
44338 On ch=10 n=36 v=102
44341 On ch=10 n=46 v=108
44361 On ch=10 n=36 v=0
44364 On ch=10 n=46 v=0
44369 On ch=10 n=44 v=100
44374 On ch=10 n=63 v=108
44390 On ch=10 n=63 v=0
44394 On ch=10 n=44 v=0
44397 On ch=10 n=36 v=68
44399 On ch=10 n=46 v=73
44409 On ch=10 n=46 v=0
44411 On ch=10 n=36 v=0
44432 On ch=10 n=44 v=96
44433 On ch=10 n=63 v=96
44442 On ch=10 n=63 v=0
44452 On ch=10 n=44 v=0
44457 On ch=10 n=36 v=100
44462 On ch=10 n=46 v=100
44462 On ch=10 n=63 v=104
44478 On ch=10 n=36 v=0
44480 On ch=10 n=46 v=0
44491 On ch=10 n=44 v=87
44512 On ch=10 n=44 v=0
44516 On ch=10 n=36 v=79
44518 On ch=10 n=46 v=75
44529 On ch=10 n=36 v=0
44533 On ch=10 n=46 v=0
44550 On ch=10 n=63 v=0
44553 On ch=10 n=44 v=93
44571 On ch=10 n=44 v=0
44579 On ch=10 n=36 v=107
44581 On ch=10 n=38 v=109
44582 On ch=10 n=46 v=113
44597 On ch=10 n=38 v=0
44598 On ch=10 n=36 v=0
44601 On ch=10 n=46 v=0
44608 On ch=10 n=44 v=87
44608 On ch=10 n=38 v=92
44621 On ch=10 n=38 v=0
44623 On ch=10 n=44 v=0
44638 On ch=10 n=38 v=79
44638 On ch=10 n=40 v=73
44639 On ch=10 n=46 v=82
44641 On ch=10 n=36 v=83
44654 On ch=10 n=38 v=0
44655 On ch=10 n=40 v=0
44655 On ch=10 n=46 v=0
44656 On ch=10 n=36 v=0
44668 On ch=10 n=38 v=115
44672 On ch=10 n=44 v=104
44686 On ch=10 n=38 v=0
44693 On ch=10 n=44 v=0
44696 On ch=10 n=41 v=109
44696 On ch=10 n=43 v=102
44701 On ch=10 n=46 v=108
44702 On ch=10 n=36 v=107
44712 On ch=10 n=43 v=0
44714 On ch=10 n=41 v=0
44719 On ch=10 n=36 v=0
44721 On ch=10 n=46 v=0
44728 On ch=10 n=44 v=96
44746 On ch=10 n=44 v=0
44761 On ch=10 n=46 v=90
44763 On ch=10 n=36 v=71
44772 On ch=10 n=36 v=0
44777 On ch=10 n=46 v=0
44794 On ch=10 n=44 v=96
44813 On ch=10 n=44 v=0
44822 On ch=10 n=36 v=109
44823 On ch=10 n=46 v=113
44825 On ch=10 n=49 v=62
44829 On ch=10 n=49 v=0
44840 On ch=10 n=46 v=0
44844 On ch=10 n=36 v=0
44852 On ch=10 n=44 v=93
44871 On ch=10 n=44 v=0
44881 On ch=10 n=46 v=71
44884 On ch=10 n=36 v=70
44884 On ch=10 n=38 v=89
44890 On ch=10 n=46 v=0
44894 On ch=10 n=38 v=0
44894 On ch=10 n=36 v=0
44912 On ch=10 n=38 v=98
44913 On ch=10 n=44 v=104
44921 On ch=10 n=38 v=0
44937 On ch=10 n=44 v=0
44941 On ch=10 n=36 v=104
44942 On ch=10 n=46 v=108
44961 On ch=10 n=46 v=0
44963 On ch=10 n=36 v=0
44970 On ch=10 n=44 v=90
44976 On ch=10 n=41 v=109
44988 On ch=10 n=41 v=0
44992 On ch=10 n=44 v=0
44998 On ch=10 n=46 v=82
45001 On ch=10 n=36 v=70
45014 On ch=10 n=46 v=0
45019 On ch=10 n=36 v=0
45030 On ch=10 n=44 v=100
45052 On ch=10 n=44 v=0
45061 On ch=10 n=46 v=113
45061 On ch=10 n=36 v=109
45080 On ch=10 n=36 v=0
45083 On ch=10 n=46 v=0
45088 On ch=10 n=44 v=96
45106 On ch=10 n=44 v=0
45118 On ch=10 n=46 v=80
45121 On ch=10 n=36 v=72
45121 On ch=10 n=38 v=96
45132 On ch=10 n=38 v=0
45134 On ch=10 n=46 v=0
45135 On ch=10 n=36 v=0
45149 On ch=10 n=44 v=104
45152 On ch=10 n=38 v=84
45158 On ch=10 n=38 v=0
45172 On ch=10 n=44 v=0
45179 On ch=10 n=36 v=107
45182 On ch=10 n=46 v=113
45199 On ch=10 n=46 v=0
45199 On ch=10 n=36 v=0
45208 On ch=10 n=44 v=90
45208 On ch=10 n=38 v=96
45218 On ch=10 n=38 v=0
45226 On ch=10 n=44 v=0
45239 On ch=10 n=36 v=70
45240 On ch=10 n=46 v=87
45248 On ch=10 n=36 v=0
45256 On ch=10 n=46 v=0
45267 On ch=10 n=41 v=87
45271 On ch=10 n=44 v=100
45276 On ch=10 n=41 v=0
45290 On ch=10 n=44 v=0
45297 On ch=10 n=41 v=98
45300 On ch=10 n=36 v=109
45302 On ch=10 n=46 v=119
45304 On ch=10 n=41 v=0
45319 On ch=10 n=36 v=0
45321 On ch=10 n=46 v=0
45328 On ch=10 n=43 v=100
45331 On ch=10 n=44 v=93
45343 On ch=10 n=43 v=0
45354 On ch=10 n=44 v=0
45357 On ch=10 n=43 v=102
45360 On ch=10 n=46 v=66
45360 On ch=10 n=36 v=63
45367 On ch=10 n=46 v=0
45370 On ch=10 n=43 v=0
45373 On ch=10 n=36 v=0
45389 On ch=10 n=45 v=107
45391 On ch=10 n=44 v=104
45410 On ch=10 n=45 v=0
45414 On ch=10 n=44 v=0
45417 On ch=10 n=45 v=100
45418 On ch=10 n=36 v=104
45419 On ch=10 n=63 v=93
45422 On ch=10 n=46 v=119
45432 On ch=10 n=45 v=0
45435 On ch=10 n=63 v=0
45441 On ch=10 n=46 v=0
45442 On ch=10 n=36 v=0
45449 On ch=10 n=44 v=93
45468 On ch=10 n=44 v=0
45477 On ch=10 n=46 v=82
45479 On ch=10 n=36 v=81
45479 On ch=10 n=63 v=104
45482 On ch=10 n=47 v=112
45482 On ch=10 n=48 v=87
45493 On ch=10 n=36 v=0
45496 On ch=10 n=46 v=0
45496 On ch=10 n=48 v=0
45499 On ch=10 n=47 v=0
45511 On ch=10 n=44 v=100
45525 On ch=10 n=63 v=0
45529 On ch=10 n=44 v=0
45539 On ch=10 n=36 v=107
45542 On ch=10 n=46 v=113
45559 On ch=10 n=36 v=0
45564 On ch=10 n=46 v=0
45569 On ch=10 n=44 v=85
45588 On ch=10 n=44 v=0
45598 On ch=10 n=46 v=68
45599 On ch=10 n=36 v=61
45602 On ch=10 n=38 v=100
45608 On ch=10 n=36 v=0
45609 On ch=10 n=38 v=0
45614 On ch=10 n=46 v=0
45628 On ch=10 n=44 v=82
45630 On ch=10 n=38 v=81
45640 On ch=10 n=38 v=0
45650 On ch=10 n=44 v=0
45658 On ch=10 n=36 v=104
45660 On ch=10 n=46 v=119
45660 On ch=10 n=38 v=60
45660 On ch=10 n=40 v=79
45665 On ch=10 n=38 v=0
45666 On ch=10 n=40 v=0
45679 On ch=10 n=36 v=0
45687 On ch=10 n=46 v=0
45688 On ch=10 n=44 v=76
45694 On ch=10 n=41 v=112
45706 On ch=10 n=41 v=0
45710 On ch=10 n=44 v=0
45719 On ch=10 n=36 v=77
45720 On ch=10 n=46 v=93
45731 On ch=10 n=36 v=0
45735 On ch=10 n=46 v=0
45753 On ch=10 n=41 v=115
45756 On ch=10 n=44 v=96
45767 On ch=10 n=41 v=0
45773 On ch=10 n=44 v=0
45780 On ch=10 n=36 v=107
45784 On ch=10 n=46 v=113
45799 On ch=10 n=36 v=0
45800 On ch=10 n=46 v=0
45812 On ch=10 n=44 v=96
45812 On ch=10 n=45 v=107
45828 On ch=10 n=45 v=0
45831 On ch=10 n=44 v=0
45839 On ch=10 n=46 v=82
45840 On ch=10 n=36 v=64
45842 On ch=10 n=45 v=107
45849 On ch=10 n=36 v=0
45849 On ch=10 n=46 v=0
45858 On ch=10 n=45 v=0
45870 On ch=10 n=45 v=107
45871 On ch=10 n=44 v=104
45886 On ch=10 n=45 v=0
45896 On ch=10 n=44 v=0
45899 On ch=10 n=36 v=98
45901 On ch=10 n=46 v=108
45901 On ch=10 n=45 v=63
45918 On ch=10 n=45 v=0
45920 On ch=10 n=46 v=0
45920 On ch=10 n=36 v=0
45927 On ch=10 n=45 v=60
45930 On ch=10 n=45 v=0
45931 On ch=10 n=44 v=96
45951 On ch=10 n=44 v=0
45956 On ch=10 n=36 v=71
45958 On ch=10 n=46 v=75
45958 On ch=10 n=48 v=118
45959 On ch=10 n=63 v=113
45971 On ch=10 n=36 v=0
45972 On ch=10 n=46 v=0
45978 On ch=10 n=48 v=0
45983 On ch=10 n=63 v=0
45990 On ch=10 n=44 v=96
46010 On ch=10 n=44 v=0
46017 On ch=10 n=36 v=109
46019 On ch=10 n=48 v=118
46019 On ch=10 n=63 v=119
46021 On ch=10 n=46 v=119
46036 On ch=10 n=36 v=0
46038 On ch=10 n=48 v=0
46044 On ch=10 n=46 v=0
46050 On ch=10 n=44 v=90
46066 On ch=10 n=44 v=0
46079 On ch=10 n=46 v=82
46079 On ch=10 n=48 v=115
46081 On ch=10 n=36 v=96
46094 On ch=10 n=48 v=0
46094 On ch=10 n=46 v=0
46100 On ch=10 n=63 v=0
46100 On ch=10 n=36 v=0
46106 On ch=10 n=45 v=102
46110 On ch=10 n=44 v=104
46122 On ch=10 n=45 v=0
46132 On ch=10 n=44 v=0
46138 On ch=10 n=48 v=118
46139 On ch=10 n=36 v=83
46141 On ch=10 n=46 v=119
46151 On ch=10 n=48 v=0
46154 On ch=10 n=36 v=0
46160 On ch=10 n=46 v=0
46168 On ch=10 n=44 v=80
46170 On ch=10 n=48 v=127
46183 On ch=10 n=48 v=0
46184 On ch=10 n=44 v=0
46198 On ch=10 n=46 v=85
46199 On ch=10 n=36 v=70
46211 On ch=10 n=36 v=0
46215 On ch=10 n=46 v=0
46229 On ch=10 n=48 v=112
46232 On ch=10 n=44 v=100
46245 On ch=10 n=48 v=0
46254 On ch=10 n=44 v=0
46259 On ch=10 n=46 v=113
46259 On ch=10 n=45 v=112
46261 On ch=10 n=36 v=112
46275 On ch=10 n=45 v=0
46279 On ch=10 n=36 v=0
46283 On ch=10 n=46 v=0
46290 On ch=10 n=44 v=100
46290 On ch=10 n=48 v=118
46309 On ch=10 n=44 v=0
46312 On ch=10 n=48 v=0
46318 On ch=10 n=46 v=73
46321 On ch=10 n=36 v=65
46322 On ch=10 n=48 v=94
46328 On ch=10 n=48 v=0
46328 On ch=10 n=46 v=0
46333 On ch=10 n=36 v=0
46352 On ch=10 n=44 v=96
46353 On ch=10 n=48 v=104
46371 On ch=10 n=48 v=0
46373 On ch=10 n=44 v=0
46379 On ch=10 n=36 v=109
46381 On ch=10 n=46 v=113
46383 On ch=10 n=45 v=104
46385 On ch=10 n=47 v=66
46388 On ch=10 n=47 v=0
46397 On ch=10 n=45 v=0
46397 On ch=10 n=46 v=0
46400 On ch=10 n=36 v=0
46409 On ch=10 n=44 v=85
46413 On ch=10 n=48 v=102
46425 On ch=10 n=44 v=0
46428 On ch=10 n=48 v=0
46438 On ch=10 n=46 v=87
46441 On ch=10 n=63 v=108
46442 On ch=10 n=36 v=68
46443 On ch=10 n=48 v=115
46452 On ch=10 n=36 v=0
46453 On ch=10 n=48 v=0
46454 On ch=10 n=46 v=0
46458 On ch=10 n=63 v=0
46471 On ch=10 n=44 v=104
46472 On ch=10 n=63 v=100
46473 On ch=10 n=48 v=112
46482 On ch=10 n=63 v=0
46490 On ch=10 n=44 v=0
46493 On ch=10 n=48 v=0
46500 On ch=10 n=46 v=113
46500 On ch=10 n=36 v=109
46500 On ch=10 n=63 v=108
46502 On ch=10 n=45 v=115
46512 On ch=10 n=63 v=0
46519 On ch=10 n=45 v=0
46519 On ch=10 n=36 v=0
46520 On ch=10 n=46 v=0
46528 On ch=10 n=45 v=54
46529 On ch=10 n=44 v=90
46531 On ch=10 n=45 v=0
46533 On ch=10 n=48 v=115
46548 On ch=10 n=44 v=0
46551 On ch=10 n=48 v=0
46559 On ch=10 n=46 v=85
46561 On ch=10 n=36 v=86
46570 On ch=10 n=36 v=0
46571 On ch=10 n=46 v=0
46592 On ch=10 n=44 v=104
46611 On ch=10 n=44 v=0
46619 On ch=10 n=36 v=104
46621 On ch=10 n=46 v=113
46622 On ch=10 n=48 v=122
46638 On ch=10 n=36 v=0
46639 On ch=10 n=46 v=0
46642 On ch=10 n=48 v=0
46648 On ch=10 n=44 v=100
46667 On ch=10 n=44 v=0
46679 On ch=10 n=46 v=87
46682 On ch=10 n=36 v=70
46685 On ch=10 n=48 v=118
46693 On ch=10 n=36 v=0
46694 On ch=10 n=46 v=0
46700 On ch=10 n=48 v=0
46712 On ch=10 n=44 v=104
46734 On ch=10 n=44 v=0
46741 On ch=10 n=36 v=115
46742 On ch=10 n=46 v=119
46743 On ch=10 n=48 v=96
46756 On ch=10 n=48 v=0
46759 On ch=10 n=36 v=0
46762 On ch=10 n=46 v=0
46771 On ch=10 n=45 v=107
46772 On ch=10 n=44 v=100
46787 On ch=10 n=44 v=0
46787 On ch=10 n=45 v=0
46800 On ch=10 n=46 v=80
46803 On ch=10 n=36 v=73
46803 On ch=10 n=48 v=102
46810 On ch=10 n=46 v=0
46813 On ch=10 n=36 v=0
46818 On ch=10 n=48 v=0
46834 On ch=10 n=44 v=113
46834 On ch=10 n=48 v=118
46847 On ch=10 n=48 v=0
46853 On ch=10 n=44 v=0
46861 On ch=10 n=36 v=112
46862 On ch=10 n=46 v=119
46863 On ch=10 n=49 v=73
46863 On ch=10 n=48 v=86
46866 On ch=10 n=49 v=0
46874 On ch=10 n=48 v=0
46881 On ch=10 n=46 v=0
46883 On ch=10 n=36 v=0
46892 On ch=10 n=44 v=87
46895 On ch=10 n=45 v=104
46909 On ch=10 n=44 v=0
46911 On ch=10 n=45 v=0
46920 On ch=10 n=46 v=76
46921 On ch=10 n=36 v=62
46925 On ch=10 n=48 v=109
46930 On ch=10 n=36 v=0
46937 On ch=10 n=46 v=0
46940 On ch=10 n=48 v=0
46955 On ch=10 n=48 v=107
46967 On ch=10 n=48 v=0
46974 On ch=10 n=44 v=104
46978 On ch=10 n=36 v=112
46982 On ch=10 n=48 v=107
46983 On ch=10 n=63 v=104
46986 On ch=10 n=46 v=119
46995 On ch=10 n=44 v=0
46999 On ch=10 n=63 v=0
47001 On ch=10 n=36 v=0
47003 On ch=10 n=48 v=0
47004 On ch=10 n=46 v=0
47012 On ch=10 n=44 v=87
47012 On ch=10 n=45 v=107
47028 On ch=10 n=44 v=0
47031 On ch=10 n=45 v=0
47041 On ch=10 n=36 v=92
47043 On ch=10 n=46 v=96
47043 On ch=10 n=48 v=107
47055 On ch=10 n=46 v=0
47055 On ch=10 n=36 v=0
47062 On ch=10 n=48 v=0
47074 On ch=10 n=44 v=104
47074 On ch=10 n=48 v=104
47086 On ch=10 n=48 v=0
47096 On ch=10 n=44 v=0
47102 On ch=10 n=36 v=112
47103 On ch=10 n=46 v=119
47103 On ch=10 n=48 v=100
47104 On ch=10 n=49 v=67
47108 On ch=10 n=49 v=0
47120 On ch=10 n=36 v=0
47121 On ch=10 n=48 v=0
47122 On ch=10 n=46 v=0
47131 On ch=10 n=44 v=96
47134 On ch=10 n=45 v=109
47135 On ch=10 n=43 v=78
47138 On ch=10 n=43 v=0
47147 On ch=10 n=44 v=0
47150 On ch=10 n=45 v=0
47159 On ch=10 n=46 v=85
47162 On ch=10 n=36 v=84
47164 On ch=10 n=48 v=109
47175 On ch=10 n=36 v=0
47178 On ch=10 n=46 v=0
47181 On ch=10 n=48 v=0
47193 On ch=10 n=44 v=104
47194 On ch=10 n=48 v=115
47206 On ch=10 n=48 v=0
47211 On ch=10 n=44 v=0
47221 On ch=10 n=36 v=115
47222 On ch=10 n=46 v=82
47223 On ch=10 n=48 v=104
47224 On ch=10 n=63 v=104
47240 On ch=10 n=63 v=0
47241 On ch=10 n=36 v=0
47245 On ch=10 n=48 v=0
47247 On ch=10 n=46 v=0
47249 On ch=10 n=44 v=104
47252 On ch=10 n=45 v=112
47268 On ch=10 n=45 v=0
47270 On ch=10 n=44 v=0
47279 On ch=10 n=45 v=55
47281 On ch=10 n=45 v=0
47282 On ch=10 n=46 v=87
47282 On ch=10 n=36 v=81
47284 On ch=10 n=48 v=104
47289 On ch=10 n=46 v=0
47295 On ch=10 n=36 v=0
47300 On ch=10 n=48 v=0
47312 On ch=10 n=44 v=104
47316 On ch=10 n=48 v=104
47334 On ch=10 n=44 v=0
47337 On ch=10 n=48 v=0
47341 On ch=10 n=46 v=104
47341 On ch=10 n=36 v=115
47356 On ch=10 n=46 v=0
47364 On ch=10 n=36 v=0
47372 On ch=10 n=44 v=104
47394 On ch=10 n=44 v=0
47402 On ch=10 n=36 v=89
47403 On ch=10 n=46 v=104
47417 On ch=10 n=36 v=0
47420 On ch=10 n=46 v=0
47458 On ch=10 n=44 v=113
47462 On ch=10 n=36 v=115
47463 On ch=10 n=45 v=109
47463 On ch=10 n=63 v=104
47476 On ch=10 n=44 v=0
47478 On ch=10 n=36 v=0
47478 On ch=10 n=45 v=0
47479 On ch=10 n=63 v=0
47492 On ch=10 n=45 v=100
47492 On ch=10 n=63 v=90
47516 On ch=10 n=45 v=0
47518 On ch=10 n=63 v=0
47518 On ch=10 n=46 v=119
47520 On ch=10 n=44 v=113
47520 On ch=10 n=41 v=87
47520 On ch=10 n=43 v=109
47522 On ch=10 n=36 v=118
47525 On ch=10 n=63 v=30
47534 On ch=10 n=46 v=0
47535 On ch=10 n=43 v=0
47535 On ch=10 n=41 v=0
47536 On ch=10 n=44 v=0
47541 On ch=10 n=36 v=0
47551 On ch=10 n=63 v=0
47578 On ch=10 n=46 v=113
47580 On ch=10 n=44 v=104
47583 On ch=10 n=36 v=115
47583 On ch=10 n=45 v=112
47594 On ch=10 n=46 v=0
47596 On ch=10 n=44 v=0
47596 On ch=10 n=45 v=0
47599 On ch=10 n=36 v=0
47640 On ch=10 n=44 v=108
47640 On ch=10 n=46 v=126
47643 On ch=10 n=36 v=118
47656 On ch=10 n=44 v=0
47657 On ch=10 n=46 v=0
47659 On ch=10 n=36 v=0
47700 On ch=10 n=46 v=126
47701 On ch=10 n=36 v=118
47702 On ch=10 n=44 v=108
47703 On ch=10 n=41 v=90
47704 On ch=10 n=63 v=104
47716 On ch=10 n=46 v=0
47718 On ch=10 n=41 v=0
47718 On ch=10 n=44 v=0
47720 On ch=10 n=63 v=0
47757 On ch=10 n=36 v=0
47757 Meta TrkEnd
TrkEnd
MTrk
0 Meta 0x21 01
0 Meta TrkName "Horns"
0 Par ch=4 c=0 v=0
0 PrCh ch=4 p=61
0 Par ch=4 c=7 v=100
4680 On ch=4 n=54 v=108
4680 On ch=4 n=42 v=100
4696 On ch=4 n=54 v=0
4698 On ch=4 n=42 v=0
4710 On ch=4 n=54 v=96
4710 On ch=4 n=42 v=78
4734 On ch=4 n=54 v=0
4735 On ch=4 n=42 v=0
4770 On ch=4 n=54 v=90
4770 On ch=4 n=42 v=90
4797 On ch=4 n=42 v=0
4798 On ch=4 n=54 v=0
4800 On ch=4 n=58 v=76
4800 On ch=4 n=46 v=87
5242 On ch=4 n=46 v=0
5264 On ch=4 n=58 v=0
5520 On ch=4 n=54 v=93
5535 On ch=4 n=54 v=0
5550 On ch=4 n=54 v=80
5577 On ch=4 n=54 v=0
5610 On ch=4 n=54 v=96
5632 On ch=4 n=54 v=0
5670 On ch=4 n=54 v=104
5688 On ch=4 n=54 v=0
5730 On ch=4 n=54 v=78
5760 On ch=4 n=57 v=72
5760 On ch=4 n=45 v=87
5764 On ch=4 n=54 v=0
6185 On ch=4 n=45 v=0
6193 On ch=4 n=57 v=0
6240 On ch=4 n=52 v=107
6262 On ch=4 n=52 v=0
6300 On ch=4 n=52 v=100
6694 On ch=4 n=52 v=0
6720 On ch=4 n=56 v=108
6720 On ch=4 n=68 v=93
6739 On ch=4 n=68 v=0
6741 On ch=4 n=56 v=0
6780 On ch=4 n=56 v=104
6780 On ch=4 n=68 v=82
7152 On ch=4 n=68 v=0
7200 On ch=4 n=57 v=92
7200 On ch=4 n=69 v=96
7201 On ch=4 n=56 v=0
7226 On ch=4 n=69 v=0
7260 On ch=4 n=69 v=90
7630 On ch=4 n=69 v=0
7680 On ch=4 n=72 v=100
7680 On ch=4 n=60 v=107
7690 On ch=4 n=57 v=0
8084 On ch=4 n=60 v=0
8126 On ch=4 n=72 v=0
8160 On ch=4 n=67 v=100
8182 On ch=4 n=67 v=0
8220 On ch=4 n=67 v=92
8280 On ch=4 n=69 v=102
8287 On ch=4 n=67 v=0
8339 On ch=4 n=69 v=0
8340 On ch=4 n=67 v=78
8365 On ch=4 n=67 v=0
8370 On ch=4 n=71 v=107
8406 On ch=4 n=71 v=0
8430 On ch=4 n=69 v=96
8479 On ch=4 n=69 v=0
8490 On ch=4 n=67 v=82
8520 On ch=4 n=69 v=109
8530 On ch=4 n=67 v=0
8591 On ch=4 n=69 v=0
8640 On ch=4 n=67 v=96
8664 On ch=4 n=67 v=0
8700 On ch=4 n=67 v=104
8759 On ch=4 n=67 v=0
8760 On ch=4 n=69 v=109
8820 On ch=4 n=67 v=79
8825 On ch=4 n=69 v=0
8845 On ch=4 n=67 v=0
8850 On ch=4 n=71 v=109
8895 On ch=4 n=71 v=0
8910 On ch=4 n=69 v=79
8969 On ch=4 n=69 v=0
8970 On ch=4 n=67 v=84
9000 On ch=4 n=69 v=112
9004 On ch=4 n=67 v=0
9058 On ch=4 n=69 v=0
10560 On ch=4 n=67 v=92
10582 On ch=4 n=67 v=0
10620 On ch=4 n=67 v=90
10680 On ch=4 n=69 v=109
10685 On ch=4 n=67 v=0
10740 On ch=4 n=67 v=84
10748 On ch=4 n=69 v=0
10763 On ch=4 n=67 v=0
10770 On ch=4 n=71 v=102
10800 On ch=4 n=71 v=0
10830 On ch=4 n=69 v=112
10886 On ch=4 n=69 v=0
10890 On ch=4 n=67 v=83
10920 On ch=4 n=69 v=115
10924 On ch=4 n=67 v=0
10985 On ch=4 n=69 v=0
12960 On ch=4 n=67 v=98
12981 On ch=4 n=67 v=0
13020 On ch=4 n=67 v=98
13080 On ch=4 n=69 v=100
13089 On ch=4 n=67 v=0
13140 On ch=4 n=67 v=87
13142 On ch=4 n=69 v=0
13159 On ch=4 n=67 v=0
13170 On ch=4 n=71 v=98
13196 On ch=4 n=71 v=0
13230 On ch=4 n=69 v=104
13286 On ch=4 n=69 v=0
13290 On ch=4 n=67 v=82
13319 On ch=4 n=67 v=0
13320 On ch=4 n=69 v=104
13381 On ch=4 n=69 v=0
13440 On ch=4 n=67 v=89
13468 On ch=4 n=67 v=0
13500 On ch=4 n=67 v=100
13560 On ch=4 n=69 v=107
13562 On ch=4 n=67 v=0
13620 On ch=4 n=67 v=84
13622 On ch=4 n=69 v=0
13645 On ch=4 n=67 v=0
13650 On ch=4 n=71 v=109
13677 On ch=4 n=71 v=0
13710 On ch=4 n=69 v=107
13768 On ch=4 n=69 v=0
13770 On ch=4 n=67 v=90
13800 On ch=4 n=69 v=118
13803 On ch=4 n=67 v=0
13859 On ch=4 n=69 v=0
18120 On ch=4 n=54 v=108
18120 On ch=4 n=42 v=100
18136 On ch=4 n=54 v=0
18138 On ch=4 n=42 v=0
18150 On ch=4 n=54 v=96
18150 On ch=4 n=42 v=78
18174 On ch=4 n=54 v=0
18175 On ch=4 n=42 v=0
18210 On ch=4 n=54 v=90
18210 On ch=4 n=42 v=90
18237 On ch=4 n=42 v=0
18238 On ch=4 n=54 v=0
18240 On ch=4 n=58 v=76
18240 On ch=4 n=46 v=87
18682 On ch=4 n=46 v=0
18704 On ch=4 n=58 v=0
18960 On ch=4 n=54 v=93
18975 On ch=4 n=54 v=0
18990 On ch=4 n=54 v=80
19017 On ch=4 n=54 v=0
19050 On ch=4 n=54 v=96
19072 On ch=4 n=54 v=0
19110 On ch=4 n=54 v=104
19128 On ch=4 n=54 v=0
19170 On ch=4 n=54 v=78
19200 On ch=4 n=57 v=72
19200 On ch=4 n=45 v=87
19204 On ch=4 n=54 v=0
19625 On ch=4 n=45 v=0
19633 On ch=4 n=57 v=0
19680 On ch=4 n=52 v=107
19702 On ch=4 n=52 v=0
19740 On ch=4 n=52 v=100
20134 On ch=4 n=52 v=0
20160 On ch=4 n=56 v=108
20160 On ch=4 n=68 v=93
20179 On ch=4 n=68 v=0
20181 On ch=4 n=56 v=0
20220 On ch=4 n=56 v=104
20220 On ch=4 n=68 v=82
20592 On ch=4 n=68 v=0
20640 On ch=4 n=57 v=92
20640 On ch=4 n=69 v=96
20641 On ch=4 n=56 v=0
20666 On ch=4 n=69 v=0
20700 On ch=4 n=69 v=90
21070 On ch=4 n=69 v=0
21120 On ch=4 n=72 v=100
21120 On ch=4 n=60 v=107
21130 On ch=4 n=57 v=0
21524 On ch=4 n=60 v=0
21566 On ch=4 n=72 v=0
21600 On ch=4 n=67 v=100
21622 On ch=4 n=67 v=0
21660 On ch=4 n=67 v=92
21720 On ch=4 n=69 v=102
21727 On ch=4 n=67 v=0
21779 On ch=4 n=69 v=0
21780 On ch=4 n=67 v=78
21805 On ch=4 n=67 v=0
21810 On ch=4 n=71 v=107
21846 On ch=4 n=71 v=0
21870 On ch=4 n=69 v=96
21919 On ch=4 n=69 v=0
21930 On ch=4 n=67 v=82
21960 On ch=4 n=69 v=109
21970 On ch=4 n=67 v=0
22031 On ch=4 n=69 v=0
22080 On ch=4 n=67 v=96
22104 On ch=4 n=67 v=0
22140 On ch=4 n=67 v=104
22199 On ch=4 n=67 v=0
22200 On ch=4 n=69 v=109
22260 On ch=4 n=67 v=79
22265 On ch=4 n=69 v=0
22285 On ch=4 n=67 v=0
22290 On ch=4 n=71 v=109
22335 On ch=4 n=71 v=0
22350 On ch=4 n=69 v=79
22409 On ch=4 n=69 v=0
22410 On ch=4 n=67 v=84
22440 On ch=4 n=69 v=112
22444 On ch=4 n=67 v=0
22498 On ch=4 n=69 v=0
24000 On ch=4 n=67 v=92
24022 On ch=4 n=67 v=0
24060 On ch=4 n=67 v=90
24120 On ch=4 n=69 v=109
24125 On ch=4 n=67 v=0
24180 On ch=4 n=67 v=84
24188 On ch=4 n=69 v=0
24203 On ch=4 n=67 v=0
24210 On ch=4 n=71 v=102
24240 On ch=4 n=71 v=0
24270 On ch=4 n=69 v=112
24326 On ch=4 n=69 v=0
24330 On ch=4 n=67 v=83
24360 On ch=4 n=69 v=115
24364 On ch=4 n=67 v=0
24425 On ch=4 n=69 v=0
26400 On ch=4 n=67 v=98
26421 On ch=4 n=67 v=0
26460 On ch=4 n=67 v=98
26520 On ch=4 n=69 v=100
26529 On ch=4 n=67 v=0
26580 On ch=4 n=67 v=87
26582 On ch=4 n=69 v=0
26599 On ch=4 n=67 v=0
26610 On ch=4 n=71 v=98
26636 On ch=4 n=71 v=0
26670 On ch=4 n=69 v=104
26726 On ch=4 n=69 v=0
26730 On ch=4 n=67 v=82
26759 On ch=4 n=67 v=0
26760 On ch=4 n=69 v=104
26821 On ch=4 n=69 v=0
26880 On ch=4 n=67 v=89
26908 On ch=4 n=67 v=0
26940 On ch=4 n=67 v=100
27000 On ch=4 n=69 v=107
27002 On ch=4 n=67 v=0
27060 On ch=4 n=67 v=84
27062 On ch=4 n=69 v=0
27085 On ch=4 n=67 v=0
27090 On ch=4 n=71 v=109
27117 On ch=4 n=71 v=0
27150 On ch=4 n=69 v=107
27208 On ch=4 n=69 v=0
27210 On ch=4 n=67 v=90
27240 On ch=4 n=69 v=118
27243 On ch=4 n=67 v=0
27299 On ch=4 n=69 v=0
31200 On ch=4 n=67 v=92
31226 On ch=4 n=67 v=0
31260 On ch=4 n=67 v=87
31320 On ch=4 n=69 v=92
31328 On ch=4 n=67 v=0
31380 On ch=4 n=67 v=62
31382 On ch=4 n=69 v=0
31405 On ch=4 n=67 v=0
31410 On ch=4 n=71 v=102
31470 On ch=4 n=69 v=74
31472 On ch=4 n=71 v=0
31529 On ch=4 n=69 v=0
31530 On ch=4 n=67 v=62
31560 On ch=4 n=69 v=109
31561 On ch=4 n=67 v=0
31613 On ch=4 n=69 v=0
31680 On ch=4 n=67 v=94
31705 On ch=4 n=67 v=0
31740 On ch=4 n=67 v=98
31796 On ch=4 n=67 v=0
31800 On ch=4 n=69 v=104
31848 On ch=4 n=69 v=0
31860 On ch=4 n=67 v=58
31874 On ch=4 n=67 v=0
31890 On ch=4 n=71 v=107
31924 On ch=4 n=71 v=0
31950 On ch=4 n=69 v=100
31999 On ch=4 n=69 v=0
32010 On ch=4 n=67 v=72
32036 On ch=4 n=67 v=0
32040 On ch=4 n=69 v=96
32102 On ch=4 n=69 v=0
32102 Meta TrkEnd
TrkEnd
MTrk
0 Meta 0x21 01
0 Meta TrkName "Strings"
0 Par ch=5 c=0 v=0
0 PrCh ch=5 p=49
0 Par ch=5 c=7 v=100
9720 On ch=5 n=79 v=78
9837 On ch=5 n=79 v=0
9840 On ch=5 n=76 v=83
9958 On ch=5 n=76 v=0
9960 On ch=5 n=74 v=98
10076 On ch=5 n=74 v=0
10080 On ch=5 n=72 v=98
10319 On ch=5 n=72 v=0
11640 On ch=5 n=79 v=79
11760 On ch=5 n=76 v=86
11772 On ch=5 n=79 v=0
11880 On ch=5 n=74 v=70
11882 On ch=5 n=76 v=0
12000 On ch=5 n=72 v=86
12003 On ch=5 n=74 v=0
12240 On ch=5 n=74 v=81
12251 On ch=5 n=72 v=0
12480 On ch=5 n=77 v=100
12482 On ch=5 n=74 v=0
12907 On ch=5 n=77 v=0
12960 On ch=5 n=79 v=81
13873 On ch=5 n=79 v=0
23160 On ch=5 n=79 v=82
23280 On ch=5 n=76 v=81
23286 On ch=5 n=79 v=0
23400 On ch=5 n=74 v=82
23406 On ch=5 n=76 v=0
23520 On ch=5 n=72 v=92
23522 On ch=5 n=74 v=0
23841 On ch=5 n=72 v=0
25080 On ch=5 n=79 v=75
25200 On ch=5 n=76 v=77
25209 On ch=5 n=79 v=0
25320 On ch=5 n=74 v=78
25326 On ch=5 n=76 v=0
25440 On ch=5 n=72 v=87
25447 On ch=5 n=74 v=0
25680 On ch=5 n=74 v=77
25684 On ch=5 n=72 v=0
25920 On ch=5 n=77 v=89
25923 On ch=5 n=74 v=0
26396 On ch=5 n=77 v=0
26400 On ch=5 n=79 v=82
27316 On ch=5 n=79 v=0
27960 On ch=5 n=79 v=87
28080 On ch=5 n=76 v=77
28083 On ch=5 n=79 v=0
28200 On ch=5 n=74 v=78
28206 On ch=5 n=76 v=0
28320 On ch=5 n=72 v=92
28329 On ch=5 n=74 v=0
28547 On ch=5 n=72 v=0
29880 On ch=5 n=79 v=74
30000 On ch=5 n=76 v=75
30011 On ch=5 n=79 v=0
30120 On ch=5 n=74 v=73
30123 On ch=5 n=76 v=0
30240 On ch=5 n=72 v=81
30249 On ch=5 n=74 v=0
30476 On ch=5 n=72 v=0
30480 On ch=5 n=74 v=83
30716 On ch=5 n=74 v=0
30720 On ch=5 n=77 v=92
31200 On ch=5 n=79 v=81
31207 On ch=5 n=77 v=0
32143 On ch=5 n=79 v=0
32143 Meta TrkEnd
TrkEnd
MTrk
0 Meta 0x21 01
0 Meta TrkName "Sax Solo"
0 Par ch=6 c=0 v=0
0 PrCh ch=6 p=65
0 Par ch=6 c=7 v=127
0 Par ch=6 c=0 v=0
0 PrCh ch=6 p=65
33083 On ch=6 n=66 v=73
33105 On ch=6 n=68 v=100
33109 On ch=6 n=66 v=0
33127 On ch=6 n=70 v=100
33129 On ch=6 n=68 v=0
33539 On ch=6 n=70 v=0
33541 On ch=6 n=66 v=85
33565 On ch=6 n=70 v=76
33567 On ch=6 n=66 v=0
33592 On ch=6 n=66 v=90
33594 On ch=6 n=70 v=0
33689 On ch=6 n=63 v=87
33692 On ch=6 n=66 v=0
33731 On ch=6 n=63 v=0
34017 On ch=6 n=66 v=87
34047 On ch=6 n=68 v=104
34053 On ch=6 n=66 v=0
34076 On ch=6 n=70 v=100
34082 On ch=6 n=68 v=0
34501 On ch=6 n=70 v=0
34501 On ch=6 n=66 v=96
34527 On ch=6 n=70 v=93
34529 On ch=6 n=66 v=0
34553 On ch=6 n=70 v=0
34555 On ch=6 n=66 v=104
34648 On ch=6 n=63 v=100
34658 On ch=6 n=66 v=0
34693 On ch=6 n=63 v=0
34984 On ch=6 n=63 v=104
35006 On ch=6 n=66 v=48
35013 On ch=6 n=63 v=0
35039 On ch=6 n=68 v=90
35043 On ch=6 n=66 v=0
35053 On ch=6 n=68 v=0
35069 On ch=6 n=68 v=93
35099 On ch=6 n=66 v=96
35101 On ch=6 n=68 v=0
35122 On ch=6 n=66 v=0
35128 On ch=6 n=68 v=100
35152 On ch=6 n=68 v=0
35221 On ch=6 n=68 v=93
35237 On ch=6 n=68 v=0
35249 On ch=6 n=68 v=90
35279 On ch=6 n=66 v=87
35281 On ch=6 n=68 v=0
35310 On ch=6 n=68 v=108
35314 On ch=6 n=66 v=0
35327 On ch=6 n=68 v=0
35402 On ch=6 n=68 v=100
35414 On ch=6 n=68 v=0
35428 On ch=6 n=68 v=93
35454 On ch=6 n=66 v=90
35456 On ch=6 n=68 v=0
35479 On ch=6 n=66 v=0
35524 On ch=6 n=70 v=108
35615 On ch=6 n=66 v=78
35617 On ch=6 n=70 v=0
35662 On ch=6 n=66 v=0
35942 On ch=6 n=63 v=100
35966 On ch=6 n=66 v=56
35972 On ch=6 n=63 v=0
35997 On ch=6 n=68 v=100
36001 On ch=6 n=66 v=0
36010 On ch=6 n=68 v=0
36027 On ch=6 n=68 v=90
36059 On ch=6 n=68 v=0
36059 On ch=6 n=66 v=90
36087 On ch=6 n=68 v=104
36092 On ch=6 n=66 v=0
36102 On ch=6 n=68 v=0
36182 On ch=6 n=68 v=108
36194 On ch=6 n=68 v=0
36208 On ch=6 n=68 v=96
36237 On ch=6 n=66 v=90
36239 On ch=6 n=68 v=0
36271 On ch=6 n=68 v=104
36275 On ch=6 n=66 v=0
36287 On ch=6 n=68 v=0
36361 On ch=6 n=68 v=104
36372 On ch=6 n=68 v=0
36387 On ch=6 n=68 v=93
36416 On ch=6 n=66 v=100
36418 On ch=6 n=68 v=0
36453 On ch=6 n=66 v=0
36479 On ch=6 n=70 v=108
36573 On ch=6 n=63 v=108
36575 On ch=6 n=70 v=0
36615 On ch=6 n=63 v=0
36957 On ch=6 n=80 v=87
36959 On ch=6 n=68 v=73
36988 On ch=6 n=66 v=57
36989 On ch=6 n=78 v=75
37002 On ch=6 n=80 v=0
37005 On ch=6 n=68 v=0
37020 On ch=6 n=63 v=54
37021 On ch=6 n=66 v=0
37023 On ch=6 n=78 v=0
37023 On ch=6 n=75 v=76
37042 On ch=6 n=75 v=0
37051 On ch=6 n=63 v=0
37052 On ch=6 n=80 v=80
37053 On ch=6 n=68 v=85
37081 On ch=6 n=78 v=78
37085 On ch=6 n=66 v=62
37095 On ch=6 n=68 v=0
37095 On ch=6 n=80 v=0
37111 On ch=6 n=78 v=0
37111 On ch=6 n=75 v=71
37113 On ch=6 n=63 v=61
37114 On ch=6 n=66 v=0
37133 On ch=6 n=75 v=0
37140 On ch=6 n=80 v=85
37141 On ch=6 n=63 v=0
37141 On ch=6 n=68 v=87
37171 On ch=6 n=78 v=82
37173 On ch=6 n=66 v=62
37183 On ch=6 n=68 v=0
37186 On ch=6 n=80 v=0
37200 On ch=6 n=78 v=0
37200 On ch=6 n=75 v=56
37203 On ch=6 n=63 v=65
37205 On ch=6 n=66 v=0
37229 On ch=6 n=75 v=0
37232 On ch=6 n=80 v=82
37235 On ch=6 n=68 v=75
37239 On ch=6 n=63 v=0
37252 On ch=6 n=66 v=56
37262 On ch=6 n=78 v=54
37275 On ch=6 n=68 v=0
37280 On ch=6 n=80 v=0
37290 On ch=6 n=63 v=68
37292 On ch=6 n=66 v=0
37294 On ch=6 n=75 v=52
37296 On ch=6 n=78 v=0
37316 On ch=6 n=75 v=0
37321 On ch=6 n=68 v=82
37323 On ch=6 n=80 v=70
37327 On ch=6 n=63 v=0
37349 On ch=6 n=66 v=61
37352 On ch=6 n=78 v=67
37370 On ch=6 n=68 v=0
37371 On ch=6 n=80 v=0
37381 On ch=6 n=75 v=63
37383 On ch=6 n=63 v=70
37384 On ch=6 n=78 v=0
37388 On ch=6 n=66 v=0
37409 On ch=6 n=80 v=80
37411 On ch=6 n=75 v=0
37438 On ch=6 n=68 v=93
37440 On ch=6 n=78 v=85
37443 On ch=6 n=63 v=0
37453 On ch=6 n=80 v=0
37455 On ch=6 n=66 v=68
37467 On ch=6 n=75 v=57
37470 On ch=6 n=78 v=0
37474 On ch=6 n=68 v=0
37489 On ch=6 n=63 v=70
37491 On ch=6 n=66 v=0
37499 On ch=6 n=80 v=87
37501 On ch=6 n=75 v=0
37531 On ch=6 n=68 v=76
37531 On ch=6 n=78 v=82
37536 On ch=6 n=63 v=0
37545 On ch=6 n=80 v=0
37558 On ch=6 n=78 v=0
37558 On ch=6 n=75 v=51
37562 On ch=6 n=66 v=54
37575 On ch=6 n=68 v=0
37590 On ch=6 n=63 v=58
37590 On ch=6 n=80 v=85
37593 On ch=6 n=75 v=0
37595 On ch=6 n=66 v=0
37619 On ch=6 n=78 v=80
37624 On ch=6 n=68 v=93
37629 On ch=6 n=63 v=0
37630 On ch=6 n=80 v=0
37648 On ch=6 n=75 v=73
37651 On ch=6 n=78 v=0
37655 On ch=6 n=66 v=67
37665 On ch=6 n=68 v=0
37680 On ch=6 n=63 v=56
37680 On ch=6 n=80 v=90
37684 On ch=6 n=75 v=0
37685 On ch=6 n=66 v=0
37712 On ch=6 n=68 v=90
37713 On ch=6 n=78 v=85
37719 On ch=6 n=63 v=0
37721 On ch=6 n=80 v=0
37738 On ch=6 n=75 v=71
37740 On ch=6 n=78 v=0
37741 On ch=6 n=66 v=75
37751 On ch=6 n=68 v=0
37765 On ch=6 n=75 v=0
37768 On ch=6 n=80 v=87
37770 On ch=6 n=63 v=71
37772 On ch=6 n=66 v=0
37795 On ch=6 n=78 v=87
37802 On ch=6 n=68 v=90
37807 On ch=6 n=63 v=0
37817 On ch=6 n=80 v=0
37826 On ch=6 n=75 v=70
37828 On ch=6 n=78 v=0
37830 On ch=6 n=66 v=76
37841 On ch=6 n=68 v=0
37858 On ch=6 n=75 v=0
37858 On ch=6 n=80 v=93
37860 On ch=6 n=63 v=78
37866 On ch=6 n=66 v=0
37890 On ch=6 n=78 v=76
37901 On ch=6 n=63 v=0
37903 On ch=6 n=80 v=0
37919 On ch=6 n=68 v=87
37920 On ch=6 n=75 v=57
37924 On ch=6 n=78 v=0
37950 On ch=6 n=66 v=73
37950 On ch=6 n=80 v=70
37957 On ch=6 n=75 v=0
37961 On ch=6 n=68 v=0
37980 On ch=6 n=78 v=66
37980 On ch=6 n=63 v=80
37987 On ch=6 n=66 v=0
37993 On ch=6 n=80 v=0
38010 On ch=6 n=68 v=87
38010 On ch=6 n=75 v=78
38012 On ch=6 n=78 v=0
38018 On ch=6 n=63 v=0
38040 On ch=6 n=75 v=0
38040 On ch=6 n=66 v=80
38040 On ch=6 n=80 v=85
38055 On ch=6 n=68 v=0
38070 On ch=6 n=78 v=75
38070 On ch=6 n=63 v=76
38072 On ch=6 n=66 v=0
38082 On ch=6 n=80 v=0
38100 On ch=6 n=78 v=0
38100 On ch=6 n=75 v=70
38100 On ch=6 n=68 v=87
38105 On ch=6 n=63 v=0
38115 On ch=6 n=66 v=58
38130 On ch=6 n=80 v=75
38139 On ch=6 n=75 v=0
38144 On ch=6 n=68 v=0
38160 On ch=6 n=63 v=87
38160 On ch=6 n=78 v=78
38162 On ch=6 n=66 v=0
38170 On ch=6 n=80 v=0
38190 On ch=6 n=75 v=71
38190 On ch=6 n=68 v=100
38191 On ch=6 n=78 v=0
38205 On ch=6 n=63 v=0
38213 On ch=6 n=75 v=0
38220 On ch=6 n=66 v=78
38220 On ch=6 n=80 v=68
38227 On ch=6 n=68 v=0
38250 On ch=6 n=78 v=48
38250 On ch=6 n=63 v=75
38257 On ch=6 n=80 v=0
38261 On ch=6 n=66 v=0
38280 On ch=6 n=75 v=76
38280 On ch=6 n=68 v=96
38282 On ch=6 n=78 v=0
38289 On ch=6 n=63 v=0
38310 On ch=6 n=66 v=16
38310 On ch=6 n=80 v=85
38320 On ch=6 n=75 v=0
38323 On ch=6 n=68 v=0
38340 On ch=6 n=78 v=70
38340 On ch=6 n=63 v=93
38346 On ch=6 n=66 v=0
38348 On ch=6 n=80 v=0
38365 On ch=6 n=63 v=0
38370 On ch=6 n=75 v=70
38390 On ch=6 n=78 v=0
38400 On ch=6 n=82 v=100
38400 On ch=6 n=68 v=108
38404 On ch=6 n=75 v=0
38430 On ch=6 n=66 v=66
38441 On ch=6 n=68 v=0
38460 On ch=6 n=63 v=57
38464 On ch=6 n=66 v=0
38490 On ch=6 n=68 v=93
38497 On ch=6 n=63 v=0
38497 On ch=6 n=82 v=0
38505 On ch=6 n=75 v=100
38520 On ch=6 n=66 v=68
38533 On ch=6 n=68 v=0
38550 On ch=6 n=63 v=75
38552 On ch=6 n=66 v=0
38554 On ch=6 n=75 v=0
38580 On ch=6 n=68 v=87
38584 On ch=6 n=63 v=0
38610 On ch=6 n=66 v=68
38619 On ch=6 n=68 v=0
38640 On ch=6 n=63 v=62
38641 On ch=6 n=66 v=0
38670 On ch=6 n=68 v=90
38678 On ch=6 n=63 v=0
38685 On ch=6 n=66 v=68
38716 On ch=6 n=68 v=0
38728 On ch=6 n=66 v=0
38730 On ch=6 n=63 v=67
38760 On ch=6 n=68 v=96
38775 On ch=6 n=63 v=0
38775 On ch=6 n=66 v=73
38790 On ch=6 n=75 v=96
38802 On ch=6 n=68 v=0
38820 On ch=6 n=63 v=82
38820 On ch=6 n=78 v=82
38826 On ch=6 n=75 v=0
38827 On ch=6 n=66 v=0
38843 On ch=6 n=78 v=0
38850 On ch=6 n=68 v=48
38850 On ch=6 n=75 v=66
38852 On ch=6 n=63 v=0
38854 On ch=6 n=68 v=0
38868 On ch=6 n=75 v=0
38880 On ch=6 n=70 v=119
38880 On ch=6 n=80 v=90
38910 On ch=6 n=78 v=76
38922 On ch=6 n=80 v=0
38940 On ch=6 n=75 v=66
38943 On ch=6 n=78 v=0
38962 On ch=6 n=75 v=0
38970 On ch=6 n=80 v=82
38981 On ch=6 n=70 v=0
38985 On ch=6 n=66 v=100
39000 On ch=6 n=78 v=85
39019 On ch=6 n=80 v=0
39030 On ch=6 n=75 v=68
39032 On ch=6 n=78 v=0
39060 On ch=6 n=80 v=85
39063 On ch=6 n=75 v=0
39087 On ch=6 n=66 v=0
39090 On ch=6 n=78 v=80
39108 On ch=6 n=80 v=0
39120 On ch=6 n=75 v=71
39122 On ch=6 n=78 v=0
39150 On ch=6 n=80 v=76
39160 On ch=6 n=75 v=0
39180 On ch=6 n=78 v=87
39204 On ch=6 n=80 v=0
39210 On ch=6 n=75 v=76
39219 On ch=6 n=78 v=0
39240 On ch=6 n=80 v=85
39242 On ch=6 n=75 v=0
39270 On ch=6 n=78 v=87
39286 On ch=6 n=80 v=0
39300 On ch=6 n=63 v=104
39300 On ch=6 n=75 v=82
39301 On ch=6 n=78 v=0
39330 On ch=6 n=66 v=70
39330 On ch=6 n=80 v=80
39335 On ch=6 n=75 v=0
39341 On ch=6 n=63 v=0
39345 On ch=6 n=78 v=49
39355 On ch=6 n=78 v=0
39360 On ch=6 n=68 v=90
39360 On ch=6 n=78 v=53
39363 On ch=6 n=66 v=0
39372 On ch=6 n=80 v=0
39383 On ch=6 n=78 v=0
39390 On ch=6 n=75 v=70
39390 On ch=6 n=66 v=67
39401 On ch=6 n=68 v=0
39414 On ch=6 n=66 v=0
39420 On ch=6 n=80 v=73
39420 On ch=6 n=63 v=63
39429 On ch=6 n=75 v=0
39450 On ch=6 n=68 v=93
39450 On ch=6 n=78 v=85
39454 On ch=6 n=63 v=0
39471 On ch=6 n=80 v=0
39480 On ch=6 n=66 v=70
39480 On ch=6 n=75 v=76
39484 On ch=6 n=78 v=0
39497 On ch=6 n=68 v=0
39510 On ch=6 n=63 v=58
39510 On ch=6 n=80 v=87
39511 On ch=6 n=66 v=0
39519 On ch=6 n=75 v=0
39540 On ch=6 n=68 v=100
39540 On ch=6 n=78 v=78
39553 On ch=6 n=63 v=0
39559 On ch=6 n=80 v=0
39567 On ch=6 n=78 v=0
39570 On ch=6 n=66 v=70
39570 On ch=6 n=75 v=68
39586 On ch=6 n=68 v=0
39600 On ch=6 n=63 v=68
39600 On ch=6 n=80 v=87
39603 On ch=6 n=75 v=0
39606 On ch=6 n=66 v=0
39630 On ch=6 n=68 v=73
39630 On ch=6 n=78 v=82
39641 On ch=6 n=63 v=0
39641 On ch=6 n=80 v=0
39660 On ch=6 n=75 v=71
39660 On ch=6 n=66 v=62
39661 On ch=6 n=78 v=0
39673 On ch=6 n=68 v=0
39690 On ch=6 n=63 v=73
39690 On ch=6 n=80 v=75
39692 On ch=6 n=66 v=0
39698 On ch=6 n=75 v=0
39720 On ch=6 n=78 v=78
39720 On ch=6 n=68 v=82
39732 On ch=6 n=63 v=0
39740 On ch=6 n=80 v=0
39750 On ch=6 n=66 v=70
39750 On ch=6 n=75 v=68
39754 On ch=6 n=78 v=0
39759 On ch=6 n=68 v=0
39780 On ch=6 n=80 v=87
39780 On ch=6 n=63 v=82
39781 On ch=6 n=75 v=0
39786 On ch=6 n=66 v=0
39810 On ch=6 n=78 v=78
39823 On ch=6 n=80 v=0
39838 On ch=6 n=78 v=0
39840 On ch=6 n=75 v=61
39840 On ch=6 n=68 v=85
39846 On ch=6 n=63 v=0
39870 On ch=6 n=80 v=80
39870 On ch=6 n=66 v=71
39880 On ch=6 n=68 v=0
39880 On ch=6 n=75 v=0
39900 On ch=6 n=66 v=0
39900 On ch=6 n=63 v=66
39900 On ch=6 n=78 v=87
39924 On ch=6 n=80 v=0
39930 On ch=6 n=68 v=100
39930 On ch=6 n=75 v=68
39932 On ch=6 n=78 v=0
39941 On ch=6 n=63 v=0
39960 On ch=6 n=66 v=73
39960 On ch=6 n=80 v=76
39965 On ch=6 n=75 v=0
39971 On ch=6 n=68 v=0
39990 On ch=6 n=63 v=70
39990 On ch=6 n=78 v=71
39994 On ch=6 n=66 v=0
40010 On ch=6 n=80 v=0
40020 On ch=6 n=68 v=100
40020 On ch=6 n=75 v=67
40025 On ch=6 n=78 v=0
40029 On ch=6 n=63 v=0
40050 On ch=6 n=66 v=80
40050 On ch=6 n=80 v=85
40057 On ch=6 n=75 v=0
40059 On ch=6 n=68 v=0
40080 On ch=6 n=63 v=80
40080 On ch=6 n=78 v=73
40083 On ch=6 n=66 v=0
40096 On ch=6 n=80 v=0
40108 On ch=6 n=78 v=0
40110 On ch=6 n=68 v=87
40110 On ch=6 n=75 v=68
40118 On ch=6 n=63 v=0
40140 On ch=6 n=66 v=57
40140 On ch=6 n=80 v=87
40147 On ch=6 n=75 v=0
40153 On ch=6 n=68 v=0
40170 On ch=6 n=63 v=78
40170 On ch=6 n=78 v=63
40172 On ch=6 n=66 v=0
40183 On ch=6 n=80 v=0
40199 On ch=6 n=78 v=0
40200 On ch=6 n=68 v=104
40200 On ch=6 n=75 v=70
40211 On ch=6 n=63 v=0
40230 On ch=6 n=80 v=93
40230 On ch=6 n=66 v=78
40234 On ch=6 n=75 v=0
40244 On ch=6 n=68 v=0
40260 On ch=6 n=78 v=87
40260 On ch=6 n=63 v=85
40264 On ch=6 n=66 v=0
40269 On ch=6 n=80 v=0
40290 On ch=6 n=75 v=78
40296 On ch=6 n=78 v=0
40320 On ch=6 n=82 v=104
40320 On ch=6 n=68 v=104
40327 On ch=6 n=63 v=0
40329 On ch=6 n=75 v=0
40350 On ch=6 n=66 v=51
40361 On ch=6 n=68 v=0
40380 On ch=6 n=66 v=0
40380 On ch=6 n=63 v=85
40410 On ch=6 n=68 v=90
40410 On ch=6 n=75 v=100
40415 On ch=6 n=82 v=0
40418 On ch=6 n=63 v=0
40440 On ch=6 n=66 v=87
40448 On ch=6 n=68 v=0
40470 On ch=6 n=63 v=71
40472 On ch=6 n=66 v=0
40500 On ch=6 n=68 v=104
40509 On ch=6 n=63 v=0
40515 On ch=6 n=75 v=0
40530 On ch=6 n=66 v=75
40543 On ch=6 n=68 v=0
40560 On ch=6 n=63 v=78
40564 On ch=6 n=66 v=0
40590 On ch=6 n=68 v=100
40598 On ch=6 n=63 v=0
40620 On ch=6 n=66 v=85
40633 On ch=6 n=68 v=0
40650 On ch=6 n=63 v=76
40652 On ch=6 n=66 v=0
40680 On ch=6 n=66 v=93
40691 On ch=6 n=63 v=0
40710 On ch=6 n=66 v=0
40710 On ch=6 n=63 v=75
40740 On ch=6 n=66 v=93
40740 On ch=6 n=75 v=90
40746 On ch=6 n=63 v=0
40770 On ch=6 n=78 v=57
40770 On ch=6 n=63 v=53
40777 On ch=6 n=75 v=0
40780 On ch=6 n=66 v=0
40790 On ch=6 n=78 v=0
40800 On ch=6 n=80 v=61
40800 On ch=6 n=70 v=90
40808 On ch=6 n=63 v=0
40816 On ch=6 n=80 v=0
40830 On ch=6 n=80 v=78
40860 On ch=6 n=78 v=96
40865 On ch=6 n=80 v=0
40876 On ch=6 n=78 v=0
40890 On ch=6 n=80 v=108
40890 On ch=6 n=63 v=108
40891 On ch=6 n=70 v=0
40908 On ch=6 n=80 v=0
40980 On ch=6 n=80 v=100
40992 On ch=6 n=80 v=0
41010 On ch=6 n=80 v=96
41032 On ch=6 n=80 v=0
41040 On ch=6 n=78 v=71
41056 On ch=6 n=78 v=0
41070 On ch=6 n=80 v=108
41092 On ch=6 n=80 v=0
41160 On ch=6 n=80 v=100
41179 On ch=6 n=80 v=0
41182 On ch=6 n=63 v=0
41190 On ch=6 n=80 v=87
41219 On ch=6 n=80 v=0
41220 On ch=6 n=78 v=90
41220 On ch=6 n=63 v=93
41235 On ch=6 n=66 v=76
41238 On ch=6 n=78 v=0
41250 On ch=6 n=78 v=61
41254 On ch=6 n=78 v=0
41264 On ch=6 n=66 v=0
41265 On ch=6 n=63 v=0
41265 On ch=6 n=68 v=85
41280 On ch=6 n=82 v=108
41282 On ch=6 n=68 v=0
41310 On ch=6 n=68 v=90
41340 On ch=6 n=66 v=71
41354 On ch=6 n=68 v=0
41370 On ch=6 n=68 v=96
41373 On ch=6 n=66 v=0
41397 On ch=6 n=82 v=0
41400 On ch=6 n=75 v=108
41416 On ch=6 n=75 v=0
41427 On ch=6 n=68 v=0
41460 On ch=6 n=68 v=104
41476 On ch=6 n=68 v=0
41490 On ch=6 n=68 v=76
41520 On ch=6 n=66 v=90
41524 On ch=6 n=68 v=0
41544 On ch=6 n=66 v=0
41550 On ch=6 n=68 v=108
41592 On ch=6 n=68 v=0
41640 On ch=6 n=68 v=104
41655 On ch=6 n=68 v=0
41670 On ch=6 n=68 v=90
41700 On ch=6 n=66 v=100
41700 On ch=6 n=75 v=104
41703 On ch=6 n=68 v=0
41715 On ch=6 n=66 v=0
41730 On ch=6 n=78 v=78
41730 On ch=6 n=66 v=80
41739 On ch=6 n=75 v=0
41749 On ch=6 n=78 v=0
41760 On ch=6 n=80 v=90
41760 On ch=6 n=70 v=104
41766 On ch=6 n=66 v=0
41776 On ch=6 n=80 v=0
41790 On ch=6 n=80 v=93
41820 On ch=6 n=80 v=0
41820 On ch=6 n=78 v=93
41832 On ch=6 n=78 v=0
41849 On ch=6 n=70 v=0
41850 On ch=6 n=63 v=100
41850 On ch=6 n=80 v=108
41863 On ch=6 n=80 v=0
41940 On ch=6 n=80 v=108
41954 On ch=6 n=80 v=0
41970 On ch=6 n=80 v=90
41997 On ch=6 n=80 v=0
42000 On ch=6 n=78 v=87
42018 On ch=6 n=78 v=0
42030 On ch=6 n=80 v=108
42046 On ch=6 n=80 v=0
42120 On ch=6 n=80 v=90
42134 On ch=6 n=80 v=0
42139 On ch=6 n=63 v=0
42150 On ch=6 n=80 v=87
42177 On ch=6 n=80 v=0
42180 On ch=6 n=78 v=90
42180 On ch=6 n=63 v=96
42189 On ch=6 n=78 v=0
42210 On ch=6 n=66 v=73
42210 On ch=6 n=78 v=78
42223 On ch=6 n=78 v=0
42228 On ch=6 n=63 v=0
42240 On ch=6 n=68 v=82
42240 On ch=6 n=82 v=108
42244 On ch=6 n=66 v=0
42258 On ch=6 n=82 v=0
42258 On ch=6 n=68 v=0
42270 On ch=6 n=68 v=80
42270 On ch=6 n=82 v=93
42300 On ch=6 n=66 v=90
42303 On ch=6 n=68 v=0
42314 On ch=6 n=66 v=0
42315 On ch=6 n=82 v=0
42330 On ch=6 n=68 v=108
42330 On ch=6 n=75 v=80
42364 On ch=6 n=75 v=0
42395 On ch=6 n=68 v=0
42420 On ch=6 n=68 v=100
42438 On ch=6 n=68 v=0
42450 On ch=6 n=68 v=82
42480 On ch=6 n=66 v=96
42483 On ch=6 n=68 v=0
42501 On ch=6 n=66 v=0
42510 On ch=6 n=68 v=108
42537 On ch=6 n=68 v=0
42540 On ch=6 n=68 v=44
42549 On ch=6 n=68 v=0
42600 On ch=6 n=68 v=104
42617 On ch=6 n=68 v=0
42630 On ch=6 n=68 v=87
42660 On ch=6 n=66 v=85
42666 On ch=6 n=68 v=0
42675 On ch=6 n=66 v=0
42690 On ch=6 n=66 v=78
42717 On ch=6 n=66 v=0
42720 On ch=6 n=70 v=90
42720 On ch=6 n=80 v=85
42740 On ch=6 n=70 v=0
42750 On ch=6 n=78 v=68
42750 On ch=6 n=70 v=87
42761 On ch=6 n=80 v=0
42777 On ch=6 n=78 v=0
42780 On ch=6 n=75 v=57
42801 On ch=6 n=75 v=0
42808 On ch=6 n=70 v=0
42810 On ch=6 n=80 v=75
42810 On ch=6 n=63 v=100
42840 On ch=6 n=78 v=73
42857 On ch=6 n=80 v=0
42870 On ch=6 n=75 v=61
42875 On ch=6 n=78 v=0
42888 On ch=6 n=75 v=0
42900 On ch=6 n=80 v=73
42930 On ch=6 n=78 v=59
42945 On ch=6 n=80 v=0
42960 On ch=6 n=78 v=0
42960 On ch=6 n=75 v=53
42986 On ch=6 n=75 v=0
42990 On ch=6 n=80 v=54
43020 On ch=6 n=78 v=78
43036 On ch=6 n=80 v=0
43050 On ch=6 n=75 v=57
43056 On ch=6 n=78 v=0
43077 On ch=6 n=75 v=0
43080 On ch=6 n=80 v=59
43110 On ch=6 n=78 v=73
43123 On ch=6 n=80 v=0
43138 On ch=6 n=63 v=0
43140 On ch=6 n=75 v=65
43145 On ch=6 n=78 v=0
43200 On ch=6 n=73 v=58
43200 On ch=6 n=80 v=82
43210 On ch=6 n=75 v=0
43230 On ch=6 n=78 v=44
43230 On ch=6 n=70 v=58
43236 On ch=6 n=80 v=0
43236 On ch=6 n=73 v=0
43260 On ch=6 n=68 v=68
43260 On ch=6 n=75 v=67
43263 On ch=6 n=70 v=0
43275 On ch=6 n=78 v=0
43289 On ch=6 n=75 v=0
43290 On ch=6 n=73 v=67
43290 On ch=6 n=80 v=57
43291 On ch=6 n=68 v=0
43320 On ch=6 n=70 v=55
43320 On ch=6 n=78 v=55
43331 On ch=6 n=73 v=0
43338 On ch=6 n=80 v=0
43350 On ch=6 n=68 v=68
43350 On ch=6 n=75 v=54
43353 On ch=6 n=70 v=0
43357 On ch=6 n=78 v=0
43379 On ch=6 n=75 v=0
43380 On ch=6 n=73 v=68
43380 On ch=6 n=80 v=76
43389 On ch=6 n=68 v=0
43410 On ch=6 n=70 v=45
43410 On ch=6 n=78 v=76
43424 On ch=6 n=73 v=0
43428 On ch=6 n=80 v=0
43440 On ch=6 n=68 v=70
43440 On ch=6 n=75 v=62
43445 On ch=6 n=78 v=0
43450 On ch=6 n=70 v=0
43470 On ch=6 n=73 v=65
43470 On ch=6 n=80 v=82
43472 On ch=6 n=68 v=0
43475 On ch=6 n=75 v=0
43500 On ch=6 n=70 v=67
43500 On ch=6 n=78 v=76
43510 On ch=6 n=80 v=0
43511 On ch=6 n=73 v=0
43530 On ch=6 n=68 v=71
43530 On ch=6 n=75 v=71
43534 On ch=6 n=70 v=0
43534 On ch=6 n=78 v=0
43560 On ch=6 n=73 v=78
43560 On ch=6 n=80 v=87
43565 On ch=6 n=75 v=0
43570 On ch=6 n=68 v=0
43575 On ch=6 n=70 v=65
43590 On ch=6 n=78 v=67
43599 On ch=6 n=80 v=0
43603 On ch=6 n=73 v=0
43615 On ch=6 n=70 v=0
43620 On ch=6 n=68 v=85
43620 On ch=6 n=75 v=78
43622 On ch=6 n=78 v=0
43646 On ch=6 n=75 v=0
43650 On ch=6 n=73 v=75
43657 On ch=6 n=68 v=0
43680 On ch=6 n=70 v=73
43680 On ch=6 n=80 v=100
43688 On ch=6 n=73 v=0
43710 On ch=6 n=68 v=85
43710 On ch=6 n=78 v=12
43712 On ch=6 n=70 v=0
43722 On ch=6 n=80 v=0
43739 On ch=6 n=78 v=0
43740 On ch=6 n=73 v=82
43748 On ch=6 n=68 v=0
43755 On ch=6 n=75 v=55
43770 On ch=6 n=70 v=82
43770 On ch=6 n=80 v=76
43782 On ch=6 n=75 v=0
43783 On ch=6 n=73 v=0
43800 On ch=6 n=68 v=82
43800 On ch=6 n=78 v=76
43803 On ch=6 n=70 v=0
43813 On ch=6 n=80 v=0
43830 On ch=6 n=73 v=78
43830 On ch=6 n=75 v=49
43833 On ch=6 n=78 v=0
43836 On ch=6 n=68 v=0
43860 On ch=6 n=70 v=14
43860 On ch=6 n=80 v=90
43862 On ch=6 n=75 v=0
43873 On ch=6 n=73 v=0
43889 On ch=6 n=70 v=0
43890 On ch=6 n=68 v=68
43890 On ch=6 n=78 v=66
43901 On ch=6 n=80 v=0
43919 On ch=6 n=78 v=0
43920 On ch=6 n=73 v=76
43920 On ch=6 n=75 v=55
43933 On ch=6 n=68 v=0
43946 On ch=6 n=75 v=0
43950 On ch=6 n=70 v=53
43950 On ch=6 n=80 v=85
43963 On ch=6 n=73 v=0
43980 On ch=6 n=68 v=73
43980 On ch=6 n=78 v=70
43983 On ch=6 n=70 v=0
43988 On ch=6 n=80 v=0
44010 On ch=6 n=73 v=76
44010 On ch=6 n=75 v=66
44015 On ch=6 n=78 v=0
44018 On ch=6 n=68 v=0
44032 On ch=6 n=75 v=0
44040 On ch=6 n=70 v=66
44040 On ch=6 n=80 v=85
44049 On ch=6 n=73 v=0
44070 On ch=6 n=68 v=80
44070 On ch=6 n=78 v=78
44074 On ch=6 n=70 v=0
44080 On ch=6 n=80 v=0
44100 On ch=6 n=73 v=75
44100 On ch=6 n=75 v=76
44102 On ch=6 n=78 v=0
44103 On ch=6 n=68 v=0
44115 On ch=6 n=70 v=70
44120 On ch=6 n=75 v=0
44132 On ch=6 n=73 v=0
44137 On ch=6 n=70 v=0
44160 On ch=6 n=80 v=108
44160 On ch=6 n=75 v=90
44190 On ch=6 n=73 v=70
44190 On ch=6 n=78 v=60
44199 On ch=6 n=80 v=0
44204 On ch=6 n=75 v=0
44220 On ch=6 n=75 v=60
44220 On ch=6 n=70 v=71
44225 On ch=6 n=78 v=0
44226 On ch=6 n=73 v=0
44247 On ch=6 n=75 v=0
44250 On ch=6 n=75 v=80
44250 On ch=6 n=80 v=100
44252 On ch=6 n=70 v=0
44280 On ch=6 n=78 v=73
44280 On ch=6 n=73 v=76
44292 On ch=6 n=80 v=0
44295 On ch=6 n=75 v=0
44310 On ch=6 n=73 v=0
44310 On ch=6 n=70 v=66
44310 On ch=6 n=75 v=73
44312 On ch=6 n=78 v=0
44333 On ch=6 n=75 v=0
44340 On ch=6 n=80 v=100
44340 On ch=6 n=75 v=96
44346 On ch=6 n=70 v=0
44370 On ch=6 n=73 v=76
44370 On ch=6 n=78 v=78
44380 On ch=6 n=75 v=0
44381 On ch=6 n=80 v=0
44400 On ch=6 n=78 v=0
44400 On ch=6 n=70 v=68
44400 On ch=6 n=75 v=60
44404 On ch=6 n=73 v=0
44426 On ch=6 n=75 v=0
44430 On ch=6 n=75 v=87
44430 On ch=6 n=80 v=96
44439 On ch=6 n=70 v=0
44460 On ch=6 n=73 v=73
44460 On ch=6 n=78 v=61
44469 On ch=6 n=75 v=0
44471 On ch=6 n=80 v=0
44490 On ch=6 n=70 v=71
44490 On ch=6 n=75 v=73
44494 On ch=6 n=73 v=0
44494 On ch=6 n=78 v=0
44520 On ch=6 n=75 v=0
44520 On ch=6 n=75 v=96
44520 On ch=6 n=80 v=93
44524 On ch=6 n=70 v=0
44550 On ch=6 n=73 v=76
44550 On ch=6 n=78 v=66
44556 On ch=6 n=80 v=0
44560 On ch=6 n=75 v=0
44580 On ch=6 n=70 v=62
44580 On ch=6 n=75 v=82
44584 On ch=6 n=78 v=0
44585 On ch=6 n=73 v=0
44602 On ch=6 n=75 v=0
44621 On ch=6 n=70 v=0
44640 On ch=6 n=78 v=104
44640 On ch=6 n=80 v=108
44670 On ch=6 n=78 v=48
44670 On ch=6 n=75 v=71
44680 On ch=6 n=80 v=0
44683 On ch=6 n=78 v=0
44700 On ch=6 n=75 v=67
44700 On ch=6 n=73 v=66
44700 On ch=6 n=72 v=84
44702 On ch=6 n=75 v=0
44705 On ch=6 n=78 v=0
44712 On ch=6 n=72 v=0
44716 On ch=6 n=73 v=0
44730 On ch=6 n=80 v=87
44730 On ch=6 n=78 v=57
44733 On ch=6 n=75 v=0
44760 On ch=6 n=75 v=80
44760 On ch=6 n=78 v=65
44771 On ch=6 n=80 v=0
44777 On ch=6 n=78 v=0
44790 On ch=6 n=73 v=58
44790 On ch=6 n=75 v=43
44792 On ch=6 n=78 v=0
44799 On ch=6 n=75 v=0
44814 On ch=6 n=75 v=0
44820 On ch=6 n=78 v=80
44820 On ch=6 n=80 v=100
44827 On ch=6 n=73 v=0
44850 On ch=6 n=78 v=82
44850 On ch=6 n=75 v=65
44857 On ch=6 n=80 v=0
44866 On ch=6 n=78 v=0
44880 On ch=6 n=73 v=68
44880 On ch=6 n=75 v=80
44887 On ch=6 n=78 v=0
44888 On ch=6 n=75 v=0
44907 On ch=6 n=75 v=0
44910 On ch=6 n=78 v=80
44910 On ch=6 n=80 v=104
44917 On ch=6 n=73 v=0
44940 On ch=6 n=75 v=39
44940 On ch=6 n=78 v=87
44951 On ch=6 n=80 v=0
44959 On ch=6 n=78 v=0
44970 On ch=6 n=73 v=48
44970 On ch=6 n=75 v=80
44973 On ch=6 n=78 v=0
44982 On ch=6 n=75 v=0
45000 On ch=6 n=78 v=73
45000 On ch=6 n=80 v=108
45002 On ch=6 n=75 v=0
45009 On ch=6 n=73 v=0
45030 On ch=6 n=78 v=37
45030 On ch=6 n=75 v=71
45039 On ch=6 n=80 v=0
45054 On ch=6 n=78 v=0
45060 On ch=6 n=75 v=96
45060 On ch=6 n=73 v=65
45061 On ch=6 n=78 v=0
45068 On ch=6 n=75 v=0
45074 On ch=6 n=73 v=0
45094 On ch=6 n=75 v=0
45120 On ch=6 n=85 v=96
45135 On ch=6 n=80 v=113
45150 On ch=6 n=78 v=85
45150 On ch=6 n=82 v=75
45160 On ch=6 n=85 v=0
45175 On ch=6 n=80 v=0
45180 On ch=6 n=80 v=60
45180 On ch=6 n=75 v=75
45183 On ch=6 n=82 v=0
45189 On ch=6 n=78 v=0
45204 On ch=6 n=75 v=0
45210 On ch=6 n=85 v=85
45210 On ch=6 n=80 v=104
45214 On ch=6 n=80 v=0
45240 On ch=6 n=82 v=66
45240 On ch=6 n=78 v=73
45253 On ch=6 n=80 v=0
45257 On ch=6 n=85 v=0
45270 On ch=6 n=75 v=75
45271 On ch=6 n=78 v=0
45280 On ch=6 n=82 v=0
45285 On ch=6 n=80 v=70
45295 On ch=6 n=75 v=0
45300 On ch=6 n=80 v=100
45300 On ch=6 n=85 v=82
45315 On ch=6 n=80 v=0
45330 On ch=6 n=78 v=90
45330 On ch=6 n=82 v=85
45338 On ch=6 n=80 v=0
45346 On ch=6 n=85 v=0
45360 On ch=6 n=75 v=78
45360 On ch=6 n=80 v=71
45361 On ch=6 n=82 v=0
45364 On ch=6 n=78 v=0
45390 On ch=6 n=80 v=93
45390 On ch=6 n=85 v=82
45392 On ch=6 n=80 v=0
45394 On ch=6 n=75 v=0
45420 On ch=6 n=78 v=80
45420 On ch=6 n=82 v=66
45431 On ch=6 n=80 v=0
45436 On ch=6 n=85 v=0
45450 On ch=6 n=75 v=80
45450 On ch=6 n=80 v=67
45454 On ch=6 n=78 v=0
45456 On ch=6 n=82 v=0
45480 On ch=6 n=80 v=100
45480 On ch=6 n=85 v=96
45484 On ch=6 n=75 v=0
45489 On ch=6 n=80 v=0
45510 On ch=6 n=78 v=75
45510 On ch=6 n=82 v=80
45521 On ch=6 n=85 v=0
45525 On ch=6 n=80 v=0
45540 On ch=6 n=75 v=90
45540 On ch=6 n=80 v=85
45545 On ch=6 n=78 v=0
45549 On ch=6 n=82 v=0
45563 On ch=6 n=75 v=0
45566 On ch=6 n=80 v=0
45600 On ch=6 n=80 v=108
45600 On ch=6 n=87 v=90
45630 On ch=6 n=78 v=85
45630 On ch=6 n=85 v=75
45633 On ch=6 n=87 v=0
45645 On ch=6 n=80 v=0
45660 On ch=6 n=75 v=76
45660 On ch=6 n=82 v=75
45667 On ch=6 n=78 v=0
45673 On ch=6 n=85 v=0
45690 On ch=6 n=80 v=90
45690 On ch=6 n=87 v=75
45699 On ch=6 n=75 v=0
45700 On ch=6 n=82 v=0
45720 On ch=6 n=78 v=80
45733 On ch=6 n=80 v=0
45735 On ch=6 n=85 v=66
45738 On ch=6 n=87 v=0
45747 On ch=6 n=78 v=0
45750 On ch=6 n=75 v=80
45765 On ch=6 n=82 v=65
45769 On ch=6 n=85 v=0
45773 On ch=6 n=75 v=0
45780 On ch=6 n=80 v=104
45780 On ch=6 n=87 v=78
45797 On ch=6 n=82 v=0
45810 On ch=6 n=78 v=75
45810 On ch=6 n=85 v=75
45821 On ch=6 n=87 v=0
45823 On ch=6 n=80 v=0
45838 On ch=6 n=78 v=0
45840 On ch=6 n=75 v=70
45846 On ch=6 n=85 v=0
45855 On ch=6 n=82 v=73
45870 On ch=6 n=75 v=0
45870 On ch=6 n=80 v=104
45870 On ch=6 n=87 v=75
45887 On ch=6 n=82 v=0
45900 On ch=6 n=85 v=60
45900 On ch=6 n=78 v=67
45913 On ch=6 n=87 v=0
45913 On ch=6 n=80 v=0
45930 On ch=6 n=75 v=82
45930 On ch=6 n=82 v=71
45934 On ch=6 n=78 v=0
45940 On ch=6 n=85 v=0
45960 On ch=6 n=80 v=104
45960 On ch=6 n=87 v=90
45965 On ch=6 n=75 v=0
45969 On ch=6 n=82 v=0
45990 On ch=6 n=78 v=62
45990 On ch=6 n=85 v=85
45999 On ch=6 n=80 v=0
46001 On ch=6 n=87 v=0
46018 On ch=6 n=78 v=0
46020 On ch=6 n=75 v=100
46020 On ch=6 n=82 v=76
46026 On ch=6 n=85 v=0
46050 On ch=6 n=87 v=96
46052 On ch=6 n=75 v=0
46057 On ch=6 n=82 v=0
46080 On ch=6 n=85 v=78
46080 On ch=6 n=80 v=108
46094 On ch=6 n=87 v=0
46110 On ch=6 n=78 v=71
46110 On ch=6 n=82 v=68
46116 On ch=6 n=85 v=0
46122 On ch=6 n=80 v=0
46140 On ch=6 n=87 v=96
46140 On ch=6 n=75 v=85
46146 On ch=6 n=78 v=0
46146 On ch=6 n=82 v=0
46169 On ch=6 n=75 v=0
46170 On ch=6 n=85 v=51
46170 On ch=6 n=80 v=100
46181 On ch=6 n=87 v=0
46200 On ch=6 n=78 v=45
46200 On ch=6 n=82 v=75
46207 On ch=6 n=85 v=0
46213 On ch=6 n=80 v=0
46230 On ch=6 n=87 v=76
46230 On ch=6 n=75 v=56
46234 On ch=6 n=78 v=0
46237 On ch=6 n=82 v=0
46245 On ch=6 n=85 v=45
46254 On ch=6 n=75 v=0
46260 On ch=6 n=80 v=93
46278 On ch=6 n=87 v=0
46290 On ch=6 n=85 v=0
46290 On ch=6 n=82 v=67
46290 On ch=6 n=78 v=82
46301 On ch=6 n=80 v=0
46320 On ch=6 n=75 v=75
46320 On ch=6 n=87 v=100
46321 On ch=6 n=78 v=0
46328 On ch=6 n=82 v=0
46350 On ch=6 n=80 v=93
46350 On ch=6 n=85 v=63
46354 On ch=6 n=75 v=0
46359 On ch=6 n=87 v=0
46380 On ch=6 n=78 v=73
46380 On ch=6 n=82 v=68
46384 On ch=6 n=85 v=0
46399 On ch=6 n=80 v=0
46410 On ch=6 n=75 v=65
46410 On ch=6 n=87 v=85
46416 On ch=6 n=78 v=0
46422 On ch=6 n=82 v=0
46440 On ch=6 n=80 v=100
46440 On ch=6 n=85 v=48
46446 On ch=6 n=75 v=0
46453 On ch=6 n=87 v=0
46470 On ch=6 n=78 v=75
46470 On ch=6 n=82 v=85
46481 On ch=6 n=80 v=0
46484 On ch=6 n=85 v=0
46500 On ch=6 n=75 v=93
46506 On ch=6 n=78 v=0
46515 On ch=6 n=82 v=0
46515 On ch=6 n=87 v=96
46522 On ch=6 n=75 v=0
46525 On ch=6 n=87 v=0
46560 On ch=6 n=80 v=100
46560 On ch=6 n=90 v=80
46590 On ch=6 n=87 v=67
46590 On ch=6 n=78 v=78
46594 On ch=6 n=90 v=0
46597 On ch=6 n=80 v=0
46620 On ch=6 n=85 v=65
46620 On ch=6 n=75 v=82
46621 On ch=6 n=78 v=0
46627 On ch=6 n=87 v=0
46650 On ch=6 n=80 v=96
46650 On ch=6 n=90 v=90
46657 On ch=6 n=85 v=0
46657 On ch=6 n=75 v=0
46665 On ch=6 n=87 v=67
46680 On ch=6 n=78 v=80
46691 On ch=6 n=90 v=0
46696 On ch=6 n=80 v=0
46710 On ch=6 n=85 v=62
46710 On ch=6 n=75 v=75
46712 On ch=6 n=78 v=0
46714 On ch=6 n=87 v=0
46733 On ch=6 n=75 v=0
46740 On ch=6 n=80 v=93
46740 On ch=6 n=90 v=90
46753 On ch=6 n=85 v=0
46770 On ch=6 n=78 v=76
46770 On ch=6 n=87 v=62
46775 On ch=6 n=90 v=0
46785 On ch=6 n=80 v=0
46800 On ch=6 n=75 v=80
46800 On ch=6 n=85 v=66
46802 On ch=6 n=87 v=0
46804 On ch=6 n=78 v=0
46830 On ch=6 n=90 v=93
46830 On ch=6 n=80 v=80
46833 On ch=6 n=85 v=0
46835 On ch=6 n=75 v=0
46860 On ch=6 n=78 v=63
46860 On ch=6 n=87 v=73
46875 On ch=6 n=90 v=0
46875 On ch=6 n=80 v=0
46890 On ch=6 n=75 v=76
46890 On ch=6 n=85 v=65
46892 On ch=6 n=78 v=0
46896 On ch=6 n=87 v=0
46920 On ch=6 n=80 v=93
46920 On ch=6 n=90 v=93
46925 On ch=6 n=75 v=0
46927 On ch=6 n=85 v=0
46950 On ch=6 n=78 v=82
46950 On ch=6 n=87 v=51
46957 On ch=6 n=90 v=0
46960 On ch=6 n=80 v=0
46980 On ch=6 n=75 v=96
46980 On ch=6 n=85 v=75
46988 On ch=6 n=78 v=0
46990 On ch=6 n=87 v=0
47008 On ch=6 n=85 v=0
47016 On ch=6 n=75 v=0
47040 On ch=6 n=92 v=96
47040 On ch=6 n=78 v=104
47054 On ch=6 n=78 v=0
47070 On ch=6 n=90 v=59
47082 On ch=6 n=92 v=0
47100 On ch=6 n=87 v=67
47108 On ch=6 n=90 v=0
47130 On ch=6 n=92 v=90
47136 On ch=6 n=87 v=0
47160 On ch=6 n=90 v=53
47160 On ch=6 n=78 v=66
47171 On ch=6 n=92 v=0
47205 On ch=6 n=87 v=68
47213 On ch=6 n=90 v=0
47235 On ch=6 n=92 v=80
47236 On ch=6 n=87 v=0
47250 On ch=6 n=90 v=41
47276 On ch=6 n=92 v=0
47291 On ch=6 n=90 v=0
47295 On ch=6 n=87 v=63
47310 On ch=6 n=92 v=80
47331 On ch=6 n=87 v=0
47340 On ch=6 n=90 v=57
47353 On ch=6 n=92 v=0
47370 On ch=6 n=87 v=59
47372 On ch=6 n=90 v=0
47399 On ch=6 n=87 v=0
47400 On ch=6 n=92 v=93
47430 On ch=6 n=90 v=70
47445 On ch=6 n=92 v=0
47460 On ch=6 n=87 v=82
47469 On ch=6 n=90 v=0
47470 On ch=6 n=78 v=0
47517 On ch=6 n=87 v=0
47520 On ch=6 n=80 v=100
47520 On ch=6 n=92 v=113
47537 On ch=6 n=80 v=0
47580 On ch=6 n=80 v=113
47633 On ch=6 n=92 v=0
47640 On ch=6 n=90 v=104
47640 On ch=6 n=78 v=87
47648 On ch=6 n=80 v=0
47666 On ch=6 n=78 v=0
47700 On ch=6 n=80 v=108
47700 On ch=6 n=92 v=100
47706 On ch=6 n=90 v=0
47754 On ch=6 n=90 v=33
47759 On ch=6 n=92 v=0
47773 On ch=6 n=87 v=53
47775 On ch=6 n=90 v=0
47783 On ch=6 n=80 v=0
47789 On ch=6 n=85 v=37
47793 On ch=6 n=87 v=0
47803 On ch=6 n=85 v=0
47803 On ch=6 n=82 v=55
47812 On ch=6 n=80 v=53
47817 On ch=6 n=82 v=0
47819 On ch=6 n=78 v=39
47819 On ch=6 n=82 v=52
47822 On ch=6 n=82 v=0
47824 On ch=6 n=80 v=0
47829 On ch=6 n=75 v=55
47831 On ch=6 n=78 v=0
47834 On ch=6 n=78 v=57
47836 On ch=6 n=78 v=0
47841 On ch=6 n=73 v=51
47843 On ch=6 n=75 v=0
47847 On ch=6 n=70 v=87
47850 On ch=6 n=73 v=0
47857 On ch=6 n=68 v=57
47860 On ch=6 n=70 v=0
47865 On ch=6 n=66 v=59
47867 On ch=6 n=68 v=0
47874 On ch=6 n=66 v=0
47874 On ch=6 n=63 v=90
47877 On ch=6 n=66 v=51
47879 On ch=6 n=66 v=0
47881 On ch=6 n=61 v=71
47884 On ch=6 n=63 v=0
47886 On ch=6 n=63 v=56
47889 On ch=6 n=63 v=0
47891 On ch=6 n=61 v=0
47891 On ch=6 n=58 v=90
47900 On ch=6 n=56 v=65
47903 On ch=6 n=58 v=0
47905 On ch=6 n=58 v=53
47907 On ch=6 n=54 v=57
47908 On ch=6 n=58 v=0
47910 On ch=6 n=56 v=0
47919 On ch=6 n=54 v=0
47919 On ch=6 n=51 v=87
47922 On ch=6 n=54 v=56
47925 On ch=6 n=54 v=0
47932 On ch=6 n=51 v=0
47932 On ch=6 n=49 v=66
47941 On ch=6 n=46 v=82
47942 On ch=6 n=49 v=0
47955 On ch=6 n=46 v=0
47955 On ch=6 n=44 v=53
47958 On ch=6 n=46 v=57
47960 On ch=6 n=46 v=0
47965 On ch=6 n=44 v=0
47965 On ch=6 n=42 v=52
47974 On ch=6 n=42 v=0
47976 On ch=6 n=39 v=71
47977 On ch=6 n=42 v=57
47979 On ch=6 n=42 v=0
47988 On ch=6 n=39 v=0
47988 On ch=6 n=37 v=75
47999 On ch=6 n=37 v=0
47999 On ch=6 n=34 v=62
48016 On ch=6 n=34 v=0
48016 On ch=6 n=32 v=63
48025 On ch=6 n=32 v=0
48025 Meta TrkEnd
TrkEnd
