MFile 1 17 480
MTrk
0 Meta Text "\n"
0 Meta SeqName "untitled"
0 Tempo 500000
0 TimeSig 4/4 24 8
0 KeySig 0 major
0 Meta TrkEnd
TrkEnd
MTrk
0 Meta TrkName "Bass                "
0 Meta 0x21 00
0 Meta 0x20 01
0 Par ch=2 c=7 v=100
0 Par ch=2 c=10 v=74
0 PrCh ch=2 p=33
0 Par ch=2 c=121 v=0
0 Pb ch=2 v=8192
0 Par ch=2 c=91 v=40
0 Par ch=2 c=93 v=40
0 Par ch=2 c=4 v=0
0 Par ch=2 c=8 v=0
0 Par ch=2 c=64 v=0
0 Par ch=2 c=65 v=0
0 Par ch=2 c=66 v=0
0 Par ch=2 c=67 v=0
0 Par ch=2 c=68 v=0
0 Par ch=2 c=2 v=127
1 Par ch=2 c=11 v=127
1 Par ch=2 c=1 v=0
80 Par ch=2 c=101 v=0
120 Par ch=2 c=100 v=0
360 Par ch=2 c=6 v=12
1200 Par ch=2 c=91 v=84
1200 Par ch=2 c=91 v=80
1280 Par ch=2 c=93 v=63
1440 Par ch=2 c=0 v=0
1920 On ch=2 n=41 v=100
2400 Off ch=2 n=41 v=64
2400 On ch=2 n=45 v=100
2640 Off ch=2 n=45 v=64
2640 On ch=2 n=48 v=100
2880 Off ch=2 n=48 v=64
2880 On ch=2 n=46 v=100
3360 Off ch=2 n=46 v=64
3360 On ch=2 n=50 v=100
3600 Off ch=2 n=50 v=64
3600 On ch=2 n=53 v=100
3840 Off ch=2 n=53 v=64
3840 On ch=2 n=39 v=100
4320 Off ch=2 n=39 v=64
4320 On ch=2 n=43 v=100
4560 Off ch=2 n=43 v=64
4560 On ch=2 n=46 v=100
4800 Off ch=2 n=46 v=64
4800 On ch=2 n=44 v=100
5280 Off ch=2 n=44 v=64
5280 On ch=2 n=48 v=100
5520 Off ch=2 n=48 v=64
5520 On ch=2 n=51 v=100
5760 Off ch=2 n=51 v=64
5760 On ch=2 n=45 v=100
6240 Off ch=2 n=45 v=64
6240 On ch=2 n=49 v=100
6480 Off ch=2 n=49 v=64
6480 On ch=2 n=52 v=100
6720 Off ch=2 n=52 v=64
6720 On ch=2 n=45 v=100
6960 Off ch=2 n=45 v=64
6960 On ch=2 n=45 v=100
7200 Off ch=2 n=45 v=64
7200 On ch=2 n=45 v=100
7440 Off ch=2 n=45 v=64
7440 On ch=2 n=45 v=100
7680 Off ch=2 n=45 v=64
7680 On ch=2 n=45 v=100
7920 Off ch=2 n=45 v=64
7920 On ch=2 n=45 v=100
8160 Off ch=2 n=45 v=64
8160 On ch=2 n=49 v=100
8400 Off ch=2 n=49 v=64
8400 On ch=2 n=52 v=100
8640 Off ch=2 n=52 v=64
8640 On ch=2 n=45 v=100
8880 Off ch=2 n=45 v=64
8880 On ch=2 n=45 v=100
9120 Off ch=2 n=45 v=64
9120 On ch=2 n=45 v=100
9360 Off ch=2 n=45 v=64
9360 On ch=2 n=45 v=100
9600 Off ch=2 n=45 v=64
9600 On ch=2 n=45 v=100
10080 Off ch=2 n=45 v=64
10080 On ch=2 n=55 v=100
10320 Off ch=2 n=55 v=64
10320 On ch=2 n=48 v=100
10560 Off ch=2 n=48 v=64
10560 On ch=2 n=52 v=100
11040 Off ch=2 n=52 v=64
11040 On ch=2 n=48 v=100
11280 Off ch=2 n=48 v=64
11280 On ch=2 n=52 v=100
11520 Off ch=2 n=52 v=64
11520 On ch=2 n=42 v=100
12000 Off ch=2 n=42 v=64
12000 On ch=2 n=52 v=100
12240 Off ch=2 n=52 v=64
12240 On ch=2 n=45 v=100
12480 Off ch=2 n=45 v=64
12480 On ch=2 n=49 v=100
12960 Off ch=2 n=49 v=64
12960 On ch=2 n=45 v=100
13200 Off ch=2 n=45 v=64
13200 On ch=2 n=48 v=100
13440 Off ch=2 n=48 v=64
13440 On ch=2 n=45 v=100
13920 Off ch=2 n=45 v=64
13920 On ch=2 n=55 v=100
14160 Off ch=2 n=55 v=64
14160 On ch=2 n=48 v=100
14400 Off ch=2 n=48 v=64
14400 On ch=2 n=52 v=100
14880 Off ch=2 n=52 v=64
14880 On ch=2 n=48 v=100
15120 Off ch=2 n=48 v=64
15120 On ch=2 n=52 v=100
15360 Off ch=2 n=52 v=64
15360 On ch=2 n=42 v=100
15840 Off ch=2 n=42 v=64
15840 On ch=2 n=52 v=100
16080 Off ch=2 n=52 v=64
16080 On ch=2 n=45 v=100
16320 Off ch=2 n=45 v=64
16320 On ch=2 n=49 v=100
16800 Off ch=2 n=49 v=64
16800 On ch=2 n=45 v=100
17040 Off ch=2 n=45 v=64
17040 On ch=2 n=48 v=100
17280 Off ch=2 n=48 v=64
17280 On ch=2 n=45 v=100
17760 Off ch=2 n=45 v=64
17760 On ch=2 n=55 v=100
18000 Off ch=2 n=55 v=64
18000 On ch=2 n=48 v=100
18240 Off ch=2 n=48 v=64
18240 On ch=2 n=52 v=100
18720 Off ch=2 n=52 v=64
18720 On ch=2 n=48 v=100
18960 Off ch=2 n=48 v=64
18960 On ch=2 n=52 v=100
19200 Off ch=2 n=52 v=64
19200 On ch=2 n=42 v=100
19680 Off ch=2 n=42 v=64
19680 On ch=2 n=52 v=100
19920 Off ch=2 n=52 v=64
19920 On ch=2 n=45 v=100
20160 Off ch=2 n=45 v=64
20160 On ch=2 n=49 v=100
20640 Off ch=2 n=49 v=64
20640 On ch=2 n=45 v=100
20880 Off ch=2 n=45 v=64
20880 On ch=2 n=48 v=100
21120 Off ch=2 n=48 v=64
21120 On ch=2 n=45 v=100
21600 Off ch=2 n=45 v=64
21600 On ch=2 n=55 v=100
21840 Off ch=2 n=55 v=64
21840 On ch=2 n=48 v=100
22080 Off ch=2 n=48 v=64
22080 On ch=2 n=52 v=100
22560 Off ch=2 n=52 v=64
22560 On ch=2 n=48 v=100
22800 Off ch=2 n=48 v=64
22800 On ch=2 n=52 v=100
23040 Off ch=2 n=52 v=64
23040 On ch=2 n=42 v=100
23520 Off ch=2 n=42 v=64
23520 On ch=2 n=52 v=100
23760 Off ch=2 n=52 v=64
23760 On ch=2 n=45 v=100
24000 Off ch=2 n=45 v=64
24000 On ch=2 n=49 v=100
24480 Off ch=2 n=49 v=64
24480 On ch=2 n=45 v=100
24720 Off ch=2 n=45 v=64
24720 On ch=2 n=48 v=100
24960 Off ch=2 n=48 v=64
24960 On ch=2 n=43 v=100
25440 Off ch=2 n=43 v=64
25440 On ch=2 n=47 v=100
25680 Off ch=2 n=47 v=64
25680 On ch=2 n=50 v=100
25920 Off ch=2 n=50 v=64
25920 On ch=2 n=45 v=100
26400 Off ch=2 n=45 v=64
26400 On ch=2 n=49 v=100
26640 Off ch=2 n=49 v=64
26640 On ch=2 n=45 v=100
26880 Off ch=2 n=45 v=64
26880 On ch=2 n=38 v=100
27360 Off ch=2 n=38 v=64
27360 On ch=2 n=42 v=100
27600 Off ch=2 n=42 v=64
27600 On ch=2 n=45 v=100
28080 Off ch=2 n=45 v=64
28080 On ch=2 n=41 v=100
28320 Off ch=2 n=41 v=64
28320 On ch=2 n=45 v=100
28560 Off ch=2 n=45 v=64
28560 On ch=2 n=50 v=100
28800 Off ch=2 n=50 v=64
28800 On ch=2 n=43 v=100
29280 Off ch=2 n=43 v=64
29280 On ch=2 n=47 v=100
29520 Off ch=2 n=47 v=64
29520 On ch=2 n=50 v=100
29760 Off ch=2 n=50 v=64
29760 On ch=2 n=45 v=100
30240 Off ch=2 n=45 v=64
30240 On ch=2 n=49 v=100
30480 Off ch=2 n=49 v=64
30480 On ch=2 n=45 v=100
30720 Off ch=2 n=45 v=64
30720 On ch=2 n=38 v=100
31200 Off ch=2 n=38 v=64
31200 On ch=2 n=42 v=100
31440 Off ch=2 n=42 v=64
31440 On ch=2 n=45 v=100
31680 Off ch=2 n=45 v=64
31680 On ch=2 n=35 v=100
32160 Off ch=2 n=35 v=64
32160 On ch=2 n=38 v=100
32400 Off ch=2 n=38 v=64
32400 On ch=2 n=41 v=100
32640 Off ch=2 n=41 v=64
32640 On ch=2 n=43 v=100
33120 Off ch=2 n=43 v=64
33120 On ch=2 n=50 v=100
33360 Off ch=2 n=50 v=64
33360 On ch=2 n=53 v=100
33600 Off ch=2 n=53 v=64
33600 On ch=2 n=38 v=100
34080 Off ch=2 n=38 v=64
34080 On ch=2 n=42 v=100
34320 Off ch=2 n=42 v=64
34320 On ch=2 n=45 v=100
34560 Off ch=2 n=45 v=64
34560 On ch=2 n=40 v=100
35040 Off ch=2 n=40 v=64
35040 On ch=2 n=44 v=100
35280 Off ch=2 n=44 v=64
35280 On ch=2 n=47 v=100
35520 Off ch=2 n=47 v=64
35520 On ch=2 n=40 v=100
36000 Off ch=2 n=40 v=64
36000 On ch=2 n=47 v=100
36240 Off ch=2 n=47 v=64
36240 On ch=2 n=52 v=100
36480 Off ch=2 n=52 v=64
36480 On ch=2 n=40 v=100
36720 Off ch=2 n=40 v=64
36720 On ch=2 n=40 v=100
36960 Off ch=2 n=40 v=64
36960 On ch=2 n=40 v=100
37200 Off ch=2 n=40 v=64
37200 On ch=2 n=40 v=100
37440 Off ch=2 n=40 v=64
37440 On ch=2 n=40 v=100
37680 Off ch=2 n=40 v=64
37680 On ch=2 n=40 v=100
37920 Off ch=2 n=40 v=64
37920 On ch=2 n=40 v=100
38160 Off ch=2 n=40 v=64
38160 On ch=2 n=40 v=100
38400 Off ch=2 n=40 v=64
38400 On ch=2 n=45 v=100
38880 Off ch=2 n=45 v=64
38880 On ch=2 n=55 v=100
39120 Off ch=2 n=55 v=64
39120 On ch=2 n=48 v=100
39360 Off ch=2 n=48 v=64
39360 On ch=2 n=52 v=100
39840 Off ch=2 n=52 v=64
39840 On ch=2 n=48 v=100
40080 Off ch=2 n=48 v=64
40080 On ch=2 n=52 v=100
40320 Off ch=2 n=52 v=64
40320 On ch=2 n=42 v=100
40800 Off ch=2 n=42 v=64
40800 On ch=2 n=52 v=100
41040 Off ch=2 n=52 v=64
41040 On ch=2 n=45 v=100
41280 Off ch=2 n=45 v=64
41280 On ch=2 n=49 v=100
41760 Off ch=2 n=49 v=64
41760 On ch=2 n=45 v=100
42000 Off ch=2 n=45 v=64
42000 On ch=2 n=48 v=100
42240 Off ch=2 n=48 v=64
42240 On ch=2 n=45 v=100
42720 Off ch=2 n=45 v=64
42720 On ch=2 n=55 v=100
42960 Off ch=2 n=55 v=64
42960 On ch=2 n=48 v=100
43200 Off ch=2 n=48 v=64
43200 On ch=2 n=52 v=100
43680 Off ch=2 n=52 v=64
43680 On ch=2 n=48 v=100
43920 Off ch=2 n=48 v=64
43920 On ch=2 n=52 v=100
44160 Off ch=2 n=52 v=64
44160 On ch=2 n=42 v=100
44640 Off ch=2 n=42 v=64
44640 On ch=2 n=52 v=100
44880 Off ch=2 n=52 v=64
44880 On ch=2 n=45 v=100
45120 Off ch=2 n=45 v=64
45120 On ch=2 n=49 v=100
45600 Off ch=2 n=49 v=64
45600 On ch=2 n=45 v=100
45840 Off ch=2 n=45 v=64
45840 On ch=2 n=48 v=100
46080 Off ch=2 n=48 v=64
46080 On ch=2 n=45 v=100
46560 Off ch=2 n=45 v=64
46560 On ch=2 n=55 v=100
46800 Off ch=2 n=55 v=64
46800 On ch=2 n=48 v=100
47040 Off ch=2 n=48 v=64
47040 On ch=2 n=52 v=100
47520 Off ch=2 n=52 v=64
47520 On ch=2 n=48 v=100
47760 Off ch=2 n=48 v=64
47760 On ch=2 n=52 v=100
48000 Off ch=2 n=52 v=64
48000 On ch=2 n=42 v=100
48480 Off ch=2 n=42 v=64
48480 On ch=2 n=52 v=100
48720 Off ch=2 n=52 v=64
48720 On ch=2 n=45 v=100
48960 Off ch=2 n=45 v=64
48960 On ch=2 n=49 v=100
49440 Off ch=2 n=49 v=64
49440 On ch=2 n=45 v=100
49680 Off ch=2 n=45 v=64
49680 On ch=2 n=48 v=100
49920 Off ch=2 n=48 v=64
49920 On ch=2 n=45 v=100
50400 Off ch=2 n=45 v=64
50400 On ch=2 n=55 v=100
50640 Off ch=2 n=55 v=64
50640 On ch=2 n=48 v=100
50880 Off ch=2 n=48 v=64
50880 On ch=2 n=52 v=100
51360 Off ch=2 n=52 v=64
51360 On ch=2 n=48 v=100
51600 Off ch=2 n=48 v=64
51600 On ch=2 n=52 v=100
51840 Off ch=2 n=52 v=64
51840 On ch=2 n=42 v=100
52320 Off ch=2 n=42 v=64
52320 On ch=2 n=52 v=100
52560 Off ch=2 n=52 v=64
52560 On ch=2 n=45 v=100
52800 Off ch=2 n=45 v=64
52800 On ch=2 n=49 v=100
53280 Off ch=2 n=49 v=64
53280 On ch=2 n=45 v=100
53520 Off ch=2 n=45 v=64
53520 On ch=2 n=48 v=100
53760 Off ch=2 n=48 v=64
53760 On ch=2 n=43 v=100
54240 Off ch=2 n=43 v=64
54240 On ch=2 n=47 v=100
54480 Off ch=2 n=47 v=64
54480 On ch=2 n=50 v=100
54720 Off ch=2 n=50 v=64
54720 On ch=2 n=45 v=100
55200 Off ch=2 n=45 v=64
55200 On ch=2 n=49 v=100
55440 Off ch=2 n=49 v=64
55440 On ch=2 n=45 v=100
55680 Off ch=2 n=45 v=64
55680 On ch=2 n=38 v=100
56160 Off ch=2 n=38 v=64
56160 On ch=2 n=42 v=100
56400 Off ch=2 n=42 v=64
56400 On ch=2 n=45 v=100
56880 Off ch=2 n=45 v=64
56880 On ch=2 n=41 v=100
57120 Off ch=2 n=41 v=64
57120 On ch=2 n=45 v=100
57360 Off ch=2 n=45 v=64
57360 On ch=2 n=50 v=100
57600 Off ch=2 n=50 v=64
57600 On ch=2 n=43 v=100
58080 Off ch=2 n=43 v=64
58080 On ch=2 n=47 v=100
58320 Off ch=2 n=47 v=64
58320 On ch=2 n=50 v=100
58560 Off ch=2 n=50 v=64
58560 On ch=2 n=45 v=100
59040 Off ch=2 n=45 v=64
59040 On ch=2 n=49 v=100
59280 Off ch=2 n=49 v=64
59280 On ch=2 n=45 v=100
59520 Off ch=2 n=45 v=64
59520 On ch=2 n=38 v=100
60000 Off ch=2 n=38 v=64
60000 On ch=2 n=42 v=100
60240 Off ch=2 n=42 v=64
60240 On ch=2 n=45 v=100
60480 Off ch=2 n=45 v=64
60480 On ch=2 n=35 v=100
60960 Off ch=2 n=35 v=64
60960 On ch=2 n=38 v=100
61200 Off ch=2 n=38 v=64
61200 On ch=2 n=41 v=100
61440 Off ch=2 n=41 v=64
61440 On ch=2 n=43 v=100
61920 Off ch=2 n=43 v=64
61920 On ch=2 n=50 v=100
62160 Off ch=2 n=50 v=64
62160 On ch=2 n=53 v=100
62400 Off ch=2 n=53 v=64
62400 On ch=2 n=38 v=100
62880 Off ch=2 n=38 v=64
62880 On ch=2 n=42 v=100
63120 Off ch=2 n=42 v=64
63120 On ch=2 n=45 v=100
63360 Off ch=2 n=45 v=64
63360 On ch=2 n=40 v=100
63840 Off ch=2 n=40 v=64
63840 On ch=2 n=44 v=100
64080 Off ch=2 n=44 v=64
64080 On ch=2 n=47 v=100
64320 Off ch=2 n=47 v=64
64320 On ch=2 n=40 v=100
64800 Off ch=2 n=40 v=64
64800 On ch=2 n=47 v=100
65040 Off ch=2 n=47 v=64
65040 On ch=2 n=52 v=100
65280 Off ch=2 n=52 v=64
65280 On ch=2 n=40 v=100
65520 Off ch=2 n=40 v=64
65520 On ch=2 n=40 v=100
65760 Off ch=2 n=40 v=64
65760 On ch=2 n=40 v=100
66000 Off ch=2 n=40 v=64
66000 On ch=2 n=40 v=100
66240 Off ch=2 n=40 v=64
66240 On ch=2 n=40 v=100
66480 Off ch=2 n=40 v=64
66480 On ch=2 n=40 v=100
66720 Off ch=2 n=40 v=64
66720 On ch=2 n=40 v=100
66960 Off ch=2 n=40 v=64
66960 On ch=2 n=40 v=100
67200 Off ch=2 n=40 v=64
67200 On ch=2 n=45 v=100
67680 Off ch=2 n=45 v=64
67680 On ch=2 n=48 v=100
67920 On ch=2 n=52 v=100
67960 Off ch=2 n=48 v=64
68140 On ch=2 n=47 v=100
68160 Off ch=2 n=52 v=64
68620 Off ch=2 n=47 v=64
68620 On ch=2 n=50 v=100
68860 On ch=2 n=54 v=100
68940 Off ch=2 n=50 v=64
69080 Off ch=2 n=54 v=64
69100 On ch=2 n=45 v=100
69600 On ch=2 n=48 v=100
69640 Off ch=2 n=45 v=64
69820 On ch=2 n=52 v=100
69840 Off ch=2 n=48 v=64
70060 Off ch=2 n=52 v=64
70060 On ch=2 n=47 v=100
70540 On ch=2 n=50 v=100
70580 Off ch=2 n=47 v=64
70780 On ch=2 n=54 v=100
70800 Off ch=2 n=50 v=64
71040 Off ch=2 n=54 v=64
71040 On ch=2 n=45 v=100
71520 Off ch=2 n=45 v=64
71520 On ch=2 n=48 v=100
71760 On ch=2 n=52 v=100
71800 Off ch=2 n=48 v=64
71980 On ch=2 n=47 v=100
72000 Off ch=2 n=52 v=64
72460 Off ch=2 n=47 v=64
72460 On ch=2 n=50 v=100
72700 On ch=2 n=54 v=100
72780 Off ch=2 n=50 v=64
72920 Off ch=2 n=54 v=64
72940 On ch=2 n=45 v=100
73440 On ch=2 n=48 v=100
73480 Off ch=2 n=45 v=64
73660 On ch=2 n=52 v=100
73680 Off ch=2 n=48 v=64
73900 Off ch=2 n=52 v=64
73900 On ch=2 n=47 v=100
74380 On ch=2 n=50 v=100
74420 Off ch=2 n=47 v=64
74620 On ch=2 n=54 v=100
74640 Off ch=2 n=50 v=64
74880 Off ch=2 n=54 v=64
74880 On ch=2 n=45 v=100
75360 On ch=2 n=48 v=100
75400 Off ch=2 n=45 v=64
75580 On ch=2 n=52 v=100
75600 Off ch=2 n=48 v=64
75820 Off ch=2 n=52 v=64
75820 On ch=2 n=47 v=100
76300 On ch=2 n=50 v=100
76340 Off ch=2 n=47 v=64
76540 On ch=2 n=54 v=100
76560 Off ch=2 n=50 v=64
76800 Off ch=2 n=54 v=64
76800 On ch=2 n=45 v=100
77280 On ch=2 n=48 v=100
77320 Off ch=2 n=45 v=64
77500 On ch=2 n=52 v=100
77520 Off ch=2 n=48 v=64
77740 Off ch=2 n=52 v=64
77740 On ch=2 n=47 v=100
78220 On ch=2 n=50 v=100
78260 Off ch=2 n=47 v=64
78460 On ch=2 n=54 v=100
78480 Off ch=2 n=50 v=64
78720 Off ch=2 n=54 v=64
78720 On ch=2 n=45 v=100
79200 On ch=2 n=48 v=100
79240 Off ch=2 n=45 v=64
79420 On ch=2 n=52 v=100
79440 Off ch=2 n=48 v=64
79660 Off ch=2 n=52 v=64
79660 On ch=2 n=47 v=100
80140 On ch=2 n=50 v=100
80180 Off ch=2 n=47 v=64
80380 On ch=2 n=54 v=100
80400 Off ch=2 n=50 v=64
80640 Off ch=2 n=54 v=64
80640 On ch=2 n=45 v=100
81120 Off ch=2 n=45 v=64
81120 On ch=2 n=48 v=100
81360 On ch=2 n=52 v=100
81400 Off ch=2 n=48 v=64
81580 On ch=2 n=47 v=100
81600 Off ch=2 n=52 v=64
82060 Off ch=2 n=47 v=64
82060 On ch=2 n=50 v=100
82300 On ch=2 n=54 v=100
82380 Off ch=2 n=50 v=64
82520 Off ch=2 n=54 v=64
82540 On ch=2 n=45 v=100
83040 On ch=2 n=48 v=100
83080 Off ch=2 n=45 v=64
83260 On ch=2 n=52 v=100
83280 Off ch=2 n=48 v=64
83500 Off ch=2 n=52 v=64
83500 On ch=2 n=47 v=100
83980 On ch=2 n=50 v=100
84020 Off ch=2 n=47 v=64
84220 On ch=2 n=54 v=100
84240 Off ch=2 n=50 v=64
84480 Off ch=2 n=54 v=64
84480 On ch=2 n=45 v=100
84960 Off ch=2 n=45 v=64
84960 On ch=2 n=48 v=100
85200 On ch=2 n=52 v=100
85240 Off ch=2 n=48 v=64
85420 On ch=2 n=47 v=100
85440 Off ch=2 n=52 v=64
85900 Off ch=2 n=47 v=64
85900 On ch=2 n=50 v=100
86140 On ch=2 n=54 v=100
86220 Off ch=2 n=50 v=64
86360 Off ch=2 n=54 v=64
86380 On ch=2 n=45 v=100
86880 On ch=2 n=48 v=100
86920 Off ch=2 n=45 v=64
87100 On ch=2 n=52 v=100
87120 Off ch=2 n=48 v=64
87340 Off ch=2 n=52 v=64
87340 On ch=2 n=47 v=100
87820 On ch=2 n=50 v=100
87860 Off ch=2 n=47 v=64
88060 On ch=2 n=54 v=100
88080 Off ch=2 n=50 v=64
88320 Off ch=2 n=54 v=64
88320 On ch=2 n=45 v=100
88800 Off ch=2 n=45 v=64
88800 On ch=2 n=48 v=100
89040 On ch=2 n=52 v=100
89080 Off ch=2 n=48 v=64
89260 On ch=2 n=47 v=100
89280 Off ch=2 n=52 v=64
89740 Off ch=2 n=47 v=64
89740 On ch=2 n=50 v=100
89980 On ch=2 n=54 v=100
90060 Off ch=2 n=50 v=64
90200 Off ch=2 n=54 v=64
90220 On ch=2 n=45 v=100
90720 On ch=2 n=48 v=100
90760 Off ch=2 n=45 v=64
90940 On ch=2 n=52 v=100
90960 Off ch=2 n=48 v=64
91180 Off ch=2 n=52 v=64
91180 On ch=2 n=47 v=100
91660 On ch=2 n=50 v=100
91700 Off ch=2 n=47 v=64
91900 On ch=2 n=54 v=100
91920 Off ch=2 n=50 v=64
92160 Off ch=2 n=54 v=64
92160 On ch=2 n=45 v=100
92640 Off ch=2 n=45 v=64
92640 On ch=2 n=48 v=100
92880 On ch=2 n=52 v=100
92920 Off ch=2 n=48 v=64
93100 On ch=2 n=47 v=100
93120 Off ch=2 n=52 v=64
93580 Off ch=2 n=47 v=64
93580 On ch=2 n=50 v=100
93820 On ch=2 n=54 v=100
93900 Off ch=2 n=50 v=64
94040 Off ch=2 n=54 v=64
94060 On ch=2 n=45 v=100
94560 On ch=2 n=48 v=100
94600 Off ch=2 n=45 v=64
94780 On ch=2 n=52 v=100
94800 Off ch=2 n=48 v=64
95020 Off ch=2 n=52 v=64
95020 On ch=2 n=47 v=100
95500 On ch=2 n=50 v=100
95540 Off ch=2 n=47 v=64
95740 On ch=2 n=54 v=100
95760 Off ch=2 n=50 v=64
96000 Off ch=2 n=54 v=64
96000 On ch=2 n=45 v=100
96480 Off ch=2 n=45 v=64
96480 On ch=2 n=48 v=100
96720 On ch=2 n=52 v=100
96760 Off ch=2 n=48 v=64
96940 On ch=2 n=47 v=100
96960 Off ch=2 n=52 v=64
97420 Off ch=2 n=47 v=64
97420 On ch=2 n=50 v=100
97660 On ch=2 n=54 v=100
97740 Off ch=2 n=50 v=64
97880 Off ch=2 n=54 v=64
97920 On ch=2 n=45 v=100
98400 Off ch=2 n=45 v=64
98400 On ch=2 n=48 v=100
98640 On ch=2 n=52 v=100
98680 Off ch=2 n=48 v=64
98860 On ch=2 n=47 v=100
98880 Off ch=2 n=52 v=64
99340 Off ch=2 n=47 v=64
99340 On ch=2 n=50 v=100
99580 On ch=2 n=54 v=100
99660 Off ch=2 n=50 v=64
99800 Off ch=2 n=54 v=64
99820 On ch=2 n=45 v=100
100320 On ch=2 n=48 v=100
100360 Off ch=2 n=45 v=64
100540 On ch=2 n=52 v=100
100560 Off ch=2 n=48 v=64
100780 Off ch=2 n=52 v=64
100780 On ch=2 n=47 v=100
101260 On ch=2 n=50 v=100
101300 Off ch=2 n=47 v=64
101500 On ch=2 n=54 v=100
101520 Off ch=2 n=50 v=64
101760 Off ch=2 n=54 v=64
101760 On ch=2 n=45 v=100
102240 Off ch=2 n=45 v=64
102240 On ch=2 n=48 v=100
102480 On ch=2 n=52 v=100
102520 Off ch=2 n=48 v=64
102700 On ch=2 n=47 v=100
102720 Off ch=2 n=52 v=64
103180 Off ch=2 n=47 v=64
103180 On ch=2 n=50 v=100
103420 On ch=2 n=54 v=100
103500 Off ch=2 n=50 v=64
103640 Off ch=2 n=54 v=64
103660 On ch=2 n=45 v=100
104160 On ch=2 n=48 v=100
104200 Off ch=2 n=45 v=64
104380 On ch=2 n=52 v=100
104400 Off ch=2 n=48 v=64
104620 Off ch=2 n=52 v=64
104620 On ch=2 n=47 v=100
105100 On ch=2 n=50 v=100
105140 Off ch=2 n=47 v=64
105340 On ch=2 n=54 v=100
105360 Off ch=2 n=50 v=64
105600 Off ch=2 n=54 v=64
105600 On ch=2 n=45 v=100
106080 Off ch=2 n=45 v=64
106080 On ch=2 n=48 v=100
106320 On ch=2 n=52 v=100
106360 Off ch=2 n=48 v=64
106540 On ch=2 n=47 v=100
106560 Off ch=2 n=52 v=64
107020 Off ch=2 n=47 v=64
107020 On ch=2 n=50 v=100
107260 On ch=2 n=54 v=100
107340 Off ch=2 n=50 v=64
107480 Off ch=2 n=54 v=64
107500 On ch=2 n=45 v=100
108000 On ch=2 n=48 v=100
108040 Off ch=2 n=45 v=64
108220 On ch=2 n=52 v=100
108240 Off ch=2 n=48 v=64
108460 Off ch=2 n=52 v=64
108460 On ch=2 n=47 v=100
108940 On ch=2 n=50 v=100
108980 Off ch=2 n=47 v=64
109180 On ch=2 n=54 v=100
109200 Off ch=2 n=50 v=64
109440 Off ch=2 n=54 v=64
109440 On ch=2 n=45 v=100
109920 Off ch=2 n=45 v=64
109920 On ch=2 n=48 v=100
110160 On ch=2 n=52 v=100
110200 Off ch=2 n=48 v=64
110380 On ch=2 n=47 v=100
110400 Off ch=2 n=52 v=64
110860 Off ch=2 n=47 v=64
110860 On ch=2 n=50 v=100
111100 On ch=2 n=54 v=100
111180 Off ch=2 n=50 v=64
111320 Off ch=2 n=54 v=64
111340 On ch=2 n=45 v=100
111840 On ch=2 n=48 v=100
111880 Off ch=2 n=45 v=64
112060 On ch=2 n=52 v=100
112080 Off ch=2 n=48 v=64
112300 Off ch=2 n=52 v=64
112300 On ch=2 n=47 v=100
112780 On ch=2 n=50 v=100
112820 Off ch=2 n=47 v=64
113020 On ch=2 n=54 v=100
113040 Off ch=2 n=50 v=64
113280 Off ch=2 n=54 v=64
113280 On ch=2 n=45 v=100
113760 Off ch=2 n=45 v=64
113760 On ch=2 n=48 v=100
114000 On ch=2 n=52 v=100
114040 Off ch=2 n=48 v=64
114220 On ch=2 n=47 v=100
114240 Off ch=2 n=52 v=64
114700 Off ch=2 n=47 v=64
114700 On ch=2 n=50 v=100
114940 On ch=2 n=54 v=100
115020 Off ch=2 n=50 v=64
115160 Off ch=2 n=54 v=64
115180 On ch=2 n=45 v=100
115680 On ch=2 n=48 v=100
115720 Off ch=2 n=45 v=64
115900 On ch=2 n=52 v=100
115920 Off ch=2 n=48 v=64
116140 Off ch=2 n=52 v=64
116140 On ch=2 n=47 v=100
116620 On ch=2 n=50 v=100
116660 Off ch=2 n=47 v=64
116860 On ch=2 n=54 v=100
116880 Off ch=2 n=50 v=64
117120 Off ch=2 n=54 v=64
117120 On ch=2 n=45 v=100
117600 Off ch=2 n=45 v=64
117600 On ch=2 n=48 v=100
117840 On ch=2 n=52 v=100
117880 Off ch=2 n=48 v=64
118060 On ch=2 n=47 v=100
118080 Off ch=2 n=52 v=64
118540 Off ch=2 n=47 v=64
118540 On ch=2 n=50 v=100
118780 On ch=2 n=54 v=100
118860 Off ch=2 n=50 v=64
119000 Off ch=2 n=54 v=64
119020 On ch=2 n=45 v=100
119520 On ch=2 n=48 v=100
119560 Off ch=2 n=45 v=64
119740 On ch=2 n=52 v=100
119760 Off ch=2 n=48 v=64
119980 Off ch=2 n=52 v=64
119980 On ch=2 n=47 v=100
120460 On ch=2 n=50 v=100
120500 Off ch=2 n=47 v=64
120700 On ch=2 n=54 v=100
120720 Off ch=2 n=50 v=64
120960 Off ch=2 n=54 v=64
120960 On ch=2 n=45 v=100
121440 Off ch=2 n=45 v=64
121440 On ch=2 n=48 v=100
121680 On ch=2 n=52 v=100
121720 Off ch=2 n=48 v=64
121900 On ch=2 n=47 v=100
121920 Off ch=2 n=52 v=64
122380 Off ch=2 n=47 v=64
122380 On ch=2 n=50 v=100
122620 On ch=2 n=54 v=100
122700 Off ch=2 n=50 v=64
122840 Off ch=2 n=54 v=64
122860 On ch=2 n=45 v=100
123360 On ch=2 n=48 v=100
123400 Off ch=2 n=45 v=64
123580 On ch=2 n=52 v=100
123600 Off ch=2 n=48 v=64
123820 Off ch=2 n=52 v=64
123820 On ch=2 n=47 v=100
124300 On ch=2 n=50 v=100
124340 Off ch=2 n=47 v=64
124540 On ch=2 n=54 v=100
124560 Off ch=2 n=50 v=64
124800 Off ch=2 n=54 v=64
124800 On ch=2 n=45 v=100
125280 Off ch=2 n=45 v=64
125280 On ch=2 n=48 v=100
125520 On ch=2 n=52 v=100
125560 Off ch=2 n=48 v=64
125740 On ch=2 n=47 v=100
125760 Off ch=2 n=52 v=64
126220 Off ch=2 n=47 v=64
126220 On ch=2 n=50 v=100
126460 On ch=2 n=54 v=100
126540 Off ch=2 n=50 v=64
126680 Off ch=2 n=54 v=64
126700 On ch=2 n=45 v=100
127200 On ch=2 n=48 v=100
127240 Off ch=2 n=45 v=64
127420 On ch=2 n=52 v=100
127440 Off ch=2 n=48 v=64
127660 Off ch=2 n=52 v=64
127660 On ch=2 n=47 v=100
128140 On ch=2 n=50 v=100
128180 Off ch=2 n=47 v=64
128380 On ch=2 n=54 v=100
128400 Off ch=2 n=50 v=64
128640 Off ch=2 n=54 v=64
128640 On ch=2 n=45 v=100
129120 Off ch=2 n=45 v=64
129120 On ch=2 n=48 v=100
129360 On ch=2 n=52 v=100
129400 Off ch=2 n=48 v=64
129580 On ch=2 n=47 v=100
129600 Off ch=2 n=52 v=64
130060 Off ch=2 n=47 v=64
130060 On ch=2 n=50 v=100
130300 On ch=2 n=54 v=100
130380 Off ch=2 n=50 v=64
130520 Off ch=2 n=54 v=64
130540 On ch=2 n=45 v=100
131040 On ch=2 n=48 v=100
131080 Off ch=2 n=45 v=64
131260 On ch=2 n=52 v=100
131280 Off ch=2 n=48 v=64
131500 Off ch=2 n=52 v=64
131500 On ch=2 n=47 v=100
131980 On ch=2 n=50 v=100
132020 Off ch=2 n=47 v=64
132220 On ch=2 n=54 v=100
132240 Off ch=2 n=50 v=64
132480 Off ch=2 n=54 v=64
132480 On ch=2 n=45 v=100
132960 On ch=2 n=48 v=100
133000 Off ch=2 n=45 v=64
133180 On ch=2 n=52 v=100
133200 Off ch=2 n=48 v=64
133420 Off ch=2 n=52 v=64
133420 On ch=2 n=47 v=100
133900 On ch=2 n=50 v=100
133940 Off ch=2 n=47 v=64
134140 On ch=2 n=54 v=100
134160 Off ch=2 n=50 v=64
134400 Off ch=2 n=54 v=64
134400 On ch=2 n=45 v=100
134880 Off ch=2 n=45 v=64
134880 On ch=2 n=48 v=100
135120 On ch=2 n=52 v=100
135160 Off ch=2 n=48 v=64
135340 On ch=2 n=47 v=100
135360 Off ch=2 n=52 v=64
135820 Off ch=2 n=47 v=64
135820 On ch=2 n=50 v=100
136060 On ch=2 n=54 v=100
136140 Off ch=2 n=50 v=64
136280 Off ch=2 n=54 v=64
136300 On ch=2 n=45 v=100
136800 On ch=2 n=48 v=100
136840 Off ch=2 n=45 v=64
137020 On ch=2 n=52 v=100
137040 Off ch=2 n=48 v=64
137260 Off ch=2 n=52 v=64
137260 On ch=2 n=47 v=100
137740 On ch=2 n=50 v=100
137780 Off ch=2 n=47 v=64
137980 On ch=2 n=54 v=100
138000 Off ch=2 n=50 v=64
138240 Off ch=2 n=54 v=64
138240 On ch=2 n=45 v=100
138720 Off ch=2 n=45 v=64
138720 On ch=2 n=48 v=100
138960 On ch=2 n=52 v=100
139000 Off ch=2 n=48 v=64
139180 On ch=2 n=47 v=100
139200 Off ch=2 n=52 v=64
139660 Off ch=2 n=47 v=64
139660 On ch=2 n=50 v=100
139900 On ch=2 n=54 v=100
139980 Off ch=2 n=50 v=64
140120 Off ch=2 n=54 v=64
140140 On ch=2 n=45 v=100
140640 On ch=2 n=48 v=100
140680 Off ch=2 n=45 v=64
140860 On ch=2 n=52 v=100
140880 Off ch=2 n=48 v=64
141100 Off ch=2 n=52 v=64
141100 On ch=2 n=47 v=100
141580 On ch=2 n=50 v=100
141620 Off ch=2 n=47 v=64
141820 On ch=2 n=54 v=100
141840 Off ch=2 n=50 v=64
142080 Off ch=2 n=54 v=64
142080 On ch=2 n=45 v=100
142560 Off ch=2 n=45 v=64
142560 On ch=2 n=48 v=100
142800 On ch=2 n=52 v=100
142840 Off ch=2 n=48 v=64
143020 On ch=2 n=47 v=100
143040 Off ch=2 n=52 v=64
143500 Off ch=2 n=47 v=64
143500 On ch=2 n=50 v=100
143740 On ch=2 n=54 v=100
143820 Off ch=2 n=50 v=64
143960 Off ch=2 n=54 v=64
143980 On ch=2 n=45 v=100
144480 On ch=2 n=48 v=100
144520 Off ch=2 n=45 v=64
144700 On ch=2 n=52 v=100
144720 Off ch=2 n=48 v=64
144940 Off ch=2 n=52 v=64
144940 On ch=2 n=47 v=100
145420 On ch=2 n=50 v=100
145460 Off ch=2 n=47 v=64
145660 On ch=2 n=54 v=100
145680 Off ch=2 n=50 v=64
145920 Off ch=2 n=54 v=64
145920 On ch=2 n=45 v=100
146400 Off ch=2 n=45 v=64
146400 On ch=2 n=48 v=100
146640 On ch=2 n=52 v=100
146680 Off ch=2 n=48 v=64
146860 On ch=2 n=47 v=100
146880 Off ch=2 n=52 v=64
147340 Off ch=2 n=47 v=64
147340 On ch=2 n=50 v=100
147580 On ch=2 n=54 v=100
147660 Off ch=2 n=50 v=64
147800 Off ch=2 n=54 v=64
147820 On ch=2 n=45 v=100
148320 On ch=2 n=48 v=100
148360 Off ch=2 n=45 v=64
148540 On ch=2 n=52 v=100
148560 Off ch=2 n=48 v=64
148780 Off ch=2 n=52 v=64
148780 On ch=2 n=47 v=100
149260 On ch=2 n=50 v=100
149300 Off ch=2 n=47 v=64
149500 On ch=2 n=54 v=100
149520 Off ch=2 n=50 v=64
149760 Off ch=2 n=54 v=64
149760 On ch=2 n=45 v=100
150240 Off ch=2 n=45 v=64
150240 On ch=2 n=48 v=100
150480 On ch=2 n=52 v=100
150520 Off ch=2 n=48 v=64
150700 On ch=2 n=47 v=100
150720 Off ch=2 n=52 v=64
151180 Off ch=2 n=47 v=64
151180 On ch=2 n=50 v=100
151420 On ch=2 n=54 v=100
151500 Off ch=2 n=50 v=64
151640 Off ch=2 n=54 v=64
151660 On ch=2 n=45 v=100
151680 Off ch=2 n=45 v=64
151680 On ch=2 n=45 v=100
152160 Off ch=2 n=45 v=64
152160 On ch=2 n=48 v=100
152400 On ch=2 n=52 v=100
152440 Off ch=2 n=48 v=64
152620 On ch=2 n=47 v=100
152640 Off ch=2 n=52 v=64
153100 Off ch=2 n=47 v=64
153100 On ch=2 n=50 v=100
153340 On ch=2 n=54 v=100
153420 Off ch=2 n=50 v=64
153560 Off ch=2 n=54 v=64
153580 On ch=2 n=45 v=100
154080 On ch=2 n=48 v=100
154120 Off ch=2 n=45 v=64
154300 On ch=2 n=52 v=100
154320 Off ch=2 n=48 v=64
154540 Off ch=2 n=52 v=64
154540 On ch=2 n=47 v=100
155020 On ch=2 n=50 v=100
155060 Off ch=2 n=47 v=64
155260 On ch=2 n=54 v=100
155280 Off ch=2 n=50 v=64
155520 Off ch=2 n=54 v=64
155520 On ch=2 n=45 v=100
156000 On ch=2 n=48 v=100
156040 Off ch=2 n=45 v=64
156220 On ch=2 n=52 v=100
156240 Off ch=2 n=48 v=64
156460 Off ch=2 n=52 v=64
156460 On ch=2 n=47 v=100
156940 On ch=2 n=50 v=100
156980 Off ch=2 n=47 v=64
157180 On ch=2 n=54 v=100
157200 Off ch=2 n=50 v=64
157440 Off ch=2 n=54 v=64
157440 On ch=2 n=45 v=100
157920 Off ch=2 n=45 v=64
157920 On ch=2 n=48 v=100
158160 On ch=2 n=52 v=100
158200 Off ch=2 n=48 v=64
158380 On ch=2 n=47 v=100
158400 Off ch=2 n=52 v=64
158860 Off ch=2 n=47 v=64
158860 On ch=2 n=50 v=100
159100 On ch=2 n=54 v=100
159180 Off ch=2 n=50 v=64
159320 Off ch=2 n=54 v=64
159340 On ch=2 n=45 v=100
159840 On ch=2 n=48 v=100
159880 Off ch=2 n=45 v=64
160060 On ch=2 n=52 v=100
160080 Off ch=2 n=48 v=64
160300 Off ch=2 n=52 v=64
160300 On ch=2 n=47 v=100
160780 On ch=2 n=50 v=100
160820 Off ch=2 n=47 v=64
161020 On ch=2 n=54 v=100
161040 Off ch=2 n=50 v=64
161280 Off ch=2 n=54 v=64
161280 On ch=2 n=45 v=100
161760 Off ch=2 n=45 v=64
161760 On ch=2 n=48 v=100
162000 On ch=2 n=52 v=100
162040 Off ch=2 n=48 v=64
162220 On ch=2 n=47 v=100
162240 Off ch=2 n=52 v=64
162700 Off ch=2 n=47 v=64
162700 On ch=2 n=50 v=100
162940 On ch=2 n=54 v=100
163020 Off ch=2 n=50 v=64
163160 Off ch=2 n=54 v=64
163180 On ch=2 n=45 v=100
163680 On ch=2 n=48 v=100
163720 Off ch=2 n=45 v=64
163900 On ch=2 n=52 v=100
163920 Off ch=2 n=48 v=64
164140 Off ch=2 n=52 v=64
164140 On ch=2 n=47 v=100
164620 On ch=2 n=50 v=100
164660 Off ch=2 n=47 v=64
164860 On ch=2 n=54 v=100
164880 Off ch=2 n=50 v=64
165120 Off ch=2 n=54 v=64
165120 On ch=2 n=45 v=100
165600 Off ch=2 n=45 v=64
165600 On ch=2 n=48 v=100
165840 On ch=2 n=52 v=100
165880 Off ch=2 n=48 v=64
166060 On ch=2 n=47 v=100
166080 Off ch=2 n=52 v=64
166540 Off ch=2 n=47 v=64
166540 On ch=2 n=50 v=100
166780 On ch=2 n=54 v=100
166860 Off ch=2 n=50 v=64
167000 Off ch=2 n=54 v=64
167020 On ch=2 n=45 v=100
167520 On ch=2 n=48 v=100
167560 Off ch=2 n=45 v=64
167740 On ch=2 n=52 v=100
167760 Off ch=2 n=48 v=64
167980 Off ch=2 n=52 v=64
167980 On ch=2 n=47 v=100
168460 On ch=2 n=50 v=100
168500 Off ch=2 n=47 v=64
168700 On ch=2 n=54 v=100
168720 Off ch=2 n=50 v=64
168960 Off ch=2 n=54 v=64
168960 On ch=2 n=45 v=100
169440 Off ch=2 n=45 v=64
169440 On ch=2 n=48 v=100
169680 On ch=2 n=52 v=100
169720 Off ch=2 n=48 v=64
169900 On ch=2 n=47 v=100
169920 Off ch=2 n=52 v=64
170380 Off ch=2 n=47 v=64
170380 On ch=2 n=50 v=100
170620 On ch=2 n=54 v=100
170700 Off ch=2 n=50 v=64
170840 Off ch=2 n=54 v=64
170860 On ch=2 n=45 v=100
171360 On ch=2 n=48 v=100
171400 Off ch=2 n=45 v=64
171580 On ch=2 n=52 v=100
171600 Off ch=2 n=48 v=64
171820 Off ch=2 n=52 v=64
171820 On ch=2 n=47 v=100
172300 On ch=2 n=50 v=100
172340 Off ch=2 n=47 v=64
172540 On ch=2 n=54 v=100
172560 Off ch=2 n=50 v=64
172800 Off ch=2 n=54 v=64
172800 On ch=2 n=45 v=100
173280 Off ch=2 n=45 v=64
173280 On ch=2 n=48 v=100
173520 On ch=2 n=52 v=100
173560 Off ch=2 n=48 v=64
173740 On ch=2 n=47 v=100
173760 Off ch=2 n=52 v=64
174220 Off ch=2 n=47 v=64
174220 On ch=2 n=50 v=100
174460 On ch=2 n=54 v=100
174540 Off ch=2 n=50 v=64
174680 Off ch=2 n=54 v=64
174700 On ch=2 n=45 v=100
175200 On ch=2 n=48 v=100
175240 Off ch=2 n=45 v=64
175420 On ch=2 n=52 v=100
175440 Off ch=2 n=48 v=64
175660 Off ch=2 n=52 v=64
175660 On ch=2 n=47 v=100
176140 On ch=2 n=50 v=100
176180 Off ch=2 n=47 v=64
176380 On ch=2 n=54 v=100
176400 Off ch=2 n=50 v=64
176640 Off ch=2 n=54 v=64
176640 On ch=2 n=45 v=100
177120 Off ch=2 n=45 v=64
177120 On ch=2 n=48 v=100
177360 On ch=2 n=52 v=100
177400 Off ch=2 n=48 v=64
177580 On ch=2 n=47 v=100
177600 Off ch=2 n=52 v=64
178060 Off ch=2 n=47 v=64
178060 On ch=2 n=50 v=100
178300 On ch=2 n=54 v=100
178380 Off ch=2 n=50 v=64
178520 Off ch=2 n=54 v=64
178540 On ch=2 n=45 v=100
179040 On ch=2 n=48 v=100
179080 Off ch=2 n=45 v=64
179260 On ch=2 n=52 v=100
179280 Off ch=2 n=48 v=64
179500 Off ch=2 n=52 v=64
179500 On ch=2 n=47 v=100
179980 On ch=2 n=50 v=100
180020 Off ch=2 n=47 v=64
180220 On ch=2 n=54 v=100
180240 Off ch=2 n=50 v=64
180480 Off ch=2 n=54 v=64
180480 On ch=2 n=45 v=100
180960 Off ch=2 n=45 v=64
180960 On ch=2 n=48 v=100
181200 On ch=2 n=52 v=100
181240 Off ch=2 n=48 v=64
181420 On ch=2 n=47 v=100
181440 Off ch=2 n=52 v=64
181900 Off ch=2 n=47 v=64
181900 On ch=2 n=50 v=100
182140 On ch=2 n=54 v=100
182220 Off ch=2 n=50 v=64
182360 Off ch=2 n=54 v=64
182380 On ch=2 n=45 v=100
182880 On ch=2 n=48 v=100
182920 Off ch=2 n=45 v=64
183100 On ch=2 n=52 v=100
183120 Off ch=2 n=48 v=64
183340 Off ch=2 n=52 v=64
183340 On ch=2 n=47 v=100
183820 On ch=2 n=50 v=100
183860 Off ch=2 n=47 v=64
184060 On ch=2 n=54 v=100
184080 Off ch=2 n=50 v=64
184320 Off ch=2 n=54 v=64
184320 On ch=2 n=45 v=100
184800 Off ch=2 n=45 v=64
184800 On ch=2 n=48 v=100
185040 On ch=2 n=52 v=100
185080 Off ch=2 n=48 v=64
185260 On ch=2 n=47 v=100
185280 Off ch=2 n=52 v=64
185740 Off ch=2 n=47 v=64
185740 On ch=2 n=50 v=100
185980 On ch=2 n=54 v=100
186060 Off ch=2 n=50 v=64
186200 Off ch=2 n=54 v=64
186220 On ch=2 n=45 v=100
186720 On ch=2 n=48 v=100
186760 Off ch=2 n=45 v=64
186940 On ch=2 n=52 v=100
186960 Off ch=2 n=48 v=64
187180 Off ch=2 n=52 v=64
187180 On ch=2 n=47 v=100
187660 On ch=2 n=50 v=100
187700 Off ch=2 n=47 v=64
187900 On ch=2 n=54 v=100
187920 Off ch=2 n=50 v=64
188160 Off ch=2 n=54 v=64
188160 On ch=2 n=45 v=100
188640 Off ch=2 n=45 v=64
188640 On ch=2 n=48 v=100
188880 On ch=2 n=52 v=100
188920 Off ch=2 n=48 v=64
189100 On ch=2 n=47 v=100
189120 Off ch=2 n=52 v=64
189580 Off ch=2 n=47 v=64
189580 On ch=2 n=50 v=100
189820 On ch=2 n=54 v=100
189900 Off ch=2 n=50 v=64
190040 Off ch=2 n=54 v=64
190060 On ch=2 n=45 v=100
190560 On ch=2 n=48 v=100
190600 Off ch=2 n=45 v=64
190780 On ch=2 n=52 v=100
190800 Off ch=2 n=48 v=64
191020 Off ch=2 n=52 v=64
191020 On ch=2 n=47 v=100
191500 On ch=2 n=50 v=100
191540 Off ch=2 n=47 v=64
191740 On ch=2 n=54 v=100
191760 Off ch=2 n=50 v=64
192000 Off ch=2 n=54 v=64
192000 On ch=2 n=45 v=100
192480 Off ch=2 n=45 v=64
192480 On ch=2 n=48 v=100
192720 On ch=2 n=52 v=100
192760 Off ch=2 n=48 v=64
192940 On ch=2 n=47 v=100
192960 Off ch=2 n=52 v=64
193420 Off ch=2 n=47 v=64
193420 On ch=2 n=50 v=100
193660 On ch=2 n=54 v=100
193740 Off ch=2 n=50 v=64
193880 Off ch=2 n=54 v=64
193920 On ch=2 n=45 v=100
194400 On ch=2 n=48 v=100
194440 Off ch=2 n=45 v=64
194620 On ch=2 n=52 v=100
194640 Off ch=2 n=48 v=64
194860 Off ch=2 n=52 v=64
194860 On ch=2 n=47 v=100
195340 On ch=2 n=50 v=100
195380 Off ch=2 n=47 v=64
195580 On ch=2 n=54 v=100
195600 Off ch=2 n=50 v=64
195840 Off ch=2 n=54 v=64
195840 On ch=2 n=45 v=100
196320 On ch=2 n=48 v=100
196360 Off ch=2 n=45 v=64
196540 On ch=2 n=52 v=100
196560 Off ch=2 n=48 v=64
196780 Off ch=2 n=52 v=64
196780 On ch=2 n=47 v=100
197260 On ch=2 n=50 v=100
197300 Off ch=2 n=47 v=64
197500 On ch=2 n=54 v=100
197520 Off ch=2 n=50 v=64
197760 Off ch=2 n=54 v=64
197760 On ch=2 n=45 v=100
198240 On ch=2 n=48 v=100
198280 Off ch=2 n=45 v=64
198460 On ch=2 n=52 v=100
198480 Off ch=2 n=48 v=64
198700 Off ch=2 n=52 v=64
198700 On ch=2 n=47 v=100
199180 On ch=2 n=50 v=100
199220 Off ch=2 n=47 v=64
199420 On ch=2 n=54 v=100
199440 Off ch=2 n=50 v=64
199680 Off ch=2 n=54 v=64
199680 On ch=2 n=45 v=100
200160 On ch=2 n=48 v=100
200200 Off ch=2 n=45 v=64
200380 On ch=2 n=52 v=100
200400 Off ch=2 n=48 v=64
200620 Off ch=2 n=52 v=64
200620 On ch=2 n=47 v=100
201100 On ch=2 n=50 v=100
201140 Off ch=2 n=47 v=64
201340 On ch=2 n=54 v=100
201360 Off ch=2 n=50 v=64
201600 Off ch=2 n=54 v=64
201600 On ch=2 n=45 v=100
202080 Off ch=2 n=45 v=64
202080 On ch=2 n=48 v=100
202320 On ch=2 n=52 v=100
202360 Off ch=2 n=48 v=64
202540 On ch=2 n=47 v=100
202560 Off ch=2 n=52 v=64
203020 Off ch=2 n=47 v=64
203020 On ch=2 n=50 v=100
203260 On ch=2 n=54 v=100
203340 Off ch=2 n=50 v=64
203480 Off ch=2 n=54 v=64
203500 On ch=2 n=45 v=100
204000 On ch=2 n=48 v=100
204040 Off ch=2 n=45 v=64
204220 On ch=2 n=52 v=100
204240 Off ch=2 n=48 v=64
204460 Off ch=2 n=52 v=64
204460 On ch=2 n=47 v=100
204940 On ch=2 n=50 v=100
204980 Off ch=2 n=47 v=64
205180 On ch=2 n=54 v=100
205200 Off ch=2 n=50 v=64
205440 Off ch=2 n=54 v=64
205440 On ch=2 n=45 v=100
205920 Off ch=2 n=45 v=64
205920 On ch=2 n=48 v=100
206160 On ch=2 n=52 v=100
206200 Off ch=2 n=48 v=64
206380 On ch=2 n=47 v=100
206400 Off ch=2 n=52 v=64
206860 Off ch=2 n=47 v=64
206860 On ch=2 n=50 v=100
207100 On ch=2 n=54 v=100
207180 Off ch=2 n=50 v=64
207320 Off ch=2 n=54 v=64
207340 On ch=2 n=45 v=100
207840 On ch=2 n=48 v=100
207880 Off ch=2 n=45 v=64
208060 On ch=2 n=52 v=100
208080 Off ch=2 n=48 v=64
208300 Off ch=2 n=52 v=64
208300 On ch=2 n=47 v=100
208780 On ch=2 n=50 v=100
208820 Off ch=2 n=47 v=64
209020 On ch=2 n=54 v=100
209040 Off ch=2 n=50 v=64
209280 Off ch=2 n=54 v=64
209280 On ch=2 n=45 v=100
209760 Off ch=2 n=45 v=64
209760 On ch=2 n=48 v=100
210000 On ch=2 n=52 v=100
210040 Off ch=2 n=48 v=64
210220 On ch=2 n=47 v=100
210240 Off ch=2 n=52 v=64
210700 Off ch=2 n=47 v=64
210700 On ch=2 n=50 v=100
210940 On ch=2 n=54 v=100
211020 Off ch=2 n=50 v=64
211160 Off ch=2 n=54 v=64
211180 On ch=2 n=45 v=100
211680 On ch=2 n=48 v=100
211720 Off ch=2 n=45 v=64
211900 On ch=2 n=52 v=100
211920 Off ch=2 n=48 v=64
212140 Off ch=2 n=52 v=64
212140 On ch=2 n=47 v=100
212620 On ch=2 n=50 v=100
212660 Off ch=2 n=47 v=64
212860 On ch=2 n=54 v=100
212880 Off ch=2 n=50 v=64
213120 Off ch=2 n=54 v=64
213120 On ch=2 n=45 v=100
213600 Off ch=2 n=45 v=64
213600 On ch=2 n=48 v=100
213840 On ch=2 n=52 v=100
213880 Off ch=2 n=48 v=64
214060 On ch=2 n=47 v=100
214080 Off ch=2 n=52 v=64
214540 Off ch=2 n=47 v=64
214540 On ch=2 n=50 v=100
214780 On ch=2 n=54 v=100
214860 Off ch=2 n=50 v=64
215000 Off ch=2 n=54 v=64
215020 On ch=2 n=45 v=100
215520 On ch=2 n=48 v=100
215560 Off ch=2 n=45 v=64
215740 On ch=2 n=52 v=100
215760 Off ch=2 n=48 v=64
215980 Off ch=2 n=52 v=64
215980 On ch=2 n=47 v=100
216460 On ch=2 n=50 v=100
216500 Off ch=2 n=47 v=64
216700 On ch=2 n=54 v=100
216720 Off ch=2 n=50 v=64
216960 Off ch=2 n=54 v=64
216960 On ch=2 n=45 v=100
217440 Off ch=2 n=45 v=64
217440 On ch=2 n=48 v=100
217680 On ch=2 n=52 v=100
217720 Off ch=2 n=48 v=64
217900 On ch=2 n=47 v=100
217920 Off ch=2 n=52 v=64
218380 Off ch=2 n=47 v=64
218380 On ch=2 n=50 v=100
218620 On ch=2 n=54 v=100
218700 Off ch=2 n=50 v=64
218840 Off ch=2 n=54 v=64
218860 On ch=2 n=45 v=100
219360 On ch=2 n=48 v=100
219400 Off ch=2 n=45 v=64
219580 On ch=2 n=52 v=100
219600 Off ch=2 n=48 v=64
219820 Off ch=2 n=52 v=64
219820 On ch=2 n=47 v=100
220300 On ch=2 n=50 v=100
220340 Off ch=2 n=47 v=64
220540 On ch=2 n=54 v=100
220560 Off ch=2 n=50 v=64
220800 Off ch=2 n=54 v=64
220800 On ch=2 n=45 v=100
221280 Off ch=2 n=45 v=64
221280 On ch=2 n=48 v=100
221520 On ch=2 n=52 v=100
221560 Off ch=2 n=48 v=64
221740 On ch=2 n=47 v=100
221760 Off ch=2 n=52 v=64
222220 Off ch=2 n=47 v=64
222220 On ch=2 n=50 v=100
222460 On ch=2 n=54 v=100
222540 Off ch=2 n=50 v=64
222680 Off ch=2 n=54 v=64
222700 On ch=2 n=45 v=100
223200 On ch=2 n=48 v=100
223240 Off ch=2 n=45 v=64
223420 On ch=2 n=52 v=100
223440 Off ch=2 n=48 v=64
223660 Off ch=2 n=52 v=64
223660 On ch=2 n=47 v=100
224140 On ch=2 n=50 v=100
224180 Off ch=2 n=47 v=64
224380 On ch=2 n=54 v=100
224400 Off ch=2 n=50 v=64
224640 Off ch=2 n=54 v=64
224640 On ch=2 n=45 v=100
225120 Off ch=2 n=45 v=64
225120 On ch=2 n=48 v=100
225360 On ch=2 n=52 v=100
225400 Off ch=2 n=48 v=64
225580 On ch=2 n=47 v=100
225600 Off ch=2 n=52 v=64
226060 Off ch=2 n=47 v=64
226060 On ch=2 n=50 v=100
226300 On ch=2 n=54 v=100
226380 Off ch=2 n=50 v=64
226520 Off ch=2 n=54 v=64
226540 On ch=2 n=45 v=100
227040 On ch=2 n=48 v=100
227080 Off ch=2 n=45 v=64
227260 On ch=2 n=52 v=100
227280 Off ch=2 n=48 v=64
227500 Off ch=2 n=52 v=64
227500 On ch=2 n=47 v=100
227980 On ch=2 n=50 v=100
228020 Off ch=2 n=47 v=64
228220 On ch=2 n=54 v=100
228240 Off ch=2 n=50 v=64
228480 Off ch=2 n=54 v=64
228480 On ch=2 n=45 v=100
228960 Off ch=2 n=45 v=64
228960 On ch=2 n=48 v=100
229200 On ch=2 n=52 v=100
229240 Off ch=2 n=48 v=64
229420 On ch=2 n=47 v=100
229440 Off ch=2 n=52 v=64
229900 Off ch=2 n=47 v=64
229900 On ch=2 n=50 v=100
230140 On ch=2 n=54 v=100
230220 Off ch=2 n=50 v=64
230360 Off ch=2 n=54 v=64
230380 On ch=2 n=45 v=100
230880 On ch=2 n=48 v=100
230920 Off ch=2 n=45 v=64
231100 On ch=2 n=52 v=100
231120 Off ch=2 n=48 v=64
231340 Off ch=2 n=52 v=64
231340 On ch=2 n=47 v=100
231820 On ch=2 n=50 v=100
231860 Off ch=2 n=47 v=64
232060 On ch=2 n=54 v=100
232080 Off ch=2 n=50 v=64
232320 Off ch=2 n=54 v=64
232320 On ch=2 n=45 v=100
232800 Off ch=2 n=45 v=64
232800 On ch=2 n=48 v=100
233040 On ch=2 n=52 v=100
233080 Off ch=2 n=48 v=64
233260 On ch=2 n=47 v=100
233280 Off ch=2 n=52 v=64
233740 Off ch=2 n=47 v=64
233740 On ch=2 n=50 v=100
233980 On ch=2 n=54 v=100
234060 Off ch=2 n=50 v=64
234200 Off ch=2 n=54 v=64
234220 On ch=2 n=45 v=100
234720 On ch=2 n=48 v=100
234760 Off ch=2 n=45 v=64
234940 On ch=2 n=52 v=100
234960 Off ch=2 n=48 v=64
235180 Off ch=2 n=52 v=64
235180 On ch=2 n=47 v=100
235660 On ch=2 n=50 v=100
235700 Off ch=2 n=47 v=64
235900 On ch=2 n=54 v=100
235920 Off ch=2 n=50 v=64
236160 Off ch=2 n=54 v=64
236160 On ch=2 n=45 v=100
236640 Off ch=2 n=45 v=64
236640 On ch=2 n=48 v=100
236880 On ch=2 n=52 v=100
236920 Off ch=2 n=48 v=64
237100 On ch=2 n=47 v=100
237120 Off ch=2 n=52 v=64
237580 Off ch=2 n=47 v=64
237580 On ch=2 n=50 v=100
237820 On ch=2 n=54 v=100
237900 Off ch=2 n=50 v=64
238040 Off ch=2 n=54 v=64
238060 On ch=2 n=45 v=100
238560 On ch=2 n=48 v=100
238600 Off ch=2 n=45 v=64
238780 On ch=2 n=52 v=100
238800 Off ch=2 n=48 v=64
239020 Off ch=2 n=52 v=64
239020 On ch=2 n=47 v=100
239500 On ch=2 n=50 v=100
239540 Off ch=2 n=47 v=64
239740 On ch=2 n=54 v=100
239760 Off ch=2 n=50 v=64
240000 Off ch=2 n=54 v=64
240000 On ch=2 n=45 v=100
240480 Off ch=2 n=45 v=64
240480 On ch=2 n=48 v=100
240720 On ch=2 n=52 v=100
240760 Off ch=2 n=48 v=64
240940 On ch=2 n=47 v=100
240960 Off ch=2 n=52 v=64
241420 Off ch=2 n=47 v=64
241420 On ch=2 n=50 v=100
241660 On ch=2 n=54 v=100
241740 Off ch=2 n=50 v=64
241880 Off ch=2 n=54 v=64
241900 On ch=2 n=45 v=100
242400 On ch=2 n=48 v=100
242440 Off ch=2 n=45 v=64
242620 On ch=2 n=52 v=100
242640 Off ch=2 n=48 v=64
242860 Off ch=2 n=52 v=64
242860 On ch=2 n=47 v=100
243340 On ch=2 n=50 v=100
243380 Off ch=2 n=47 v=64
243580 On ch=2 n=54 v=100
243600 Off ch=2 n=50 v=64
243840 Off ch=2 n=54 v=64
243840 On ch=2 n=45 v=100
244320 Off ch=2 n=45 v=64
244320 On ch=2 n=48 v=100
244560 On ch=2 n=52 v=100
244600 Off ch=2 n=48 v=64
244780 On ch=2 n=47 v=100
244800 Off ch=2 n=52 v=64
245260 Off ch=2 n=47 v=64
245260 On ch=2 n=50 v=100
245500 On ch=2 n=54 v=100
245580 Off ch=2 n=50 v=64
245720 Off ch=2 n=54 v=64
245740 On ch=2 n=45 v=100
246240 On ch=2 n=48 v=100
246280 Off ch=2 n=45 v=64
246460 On ch=2 n=52 v=100
246480 Off ch=2 n=48 v=64
246700 Off ch=2 n=52 v=64
246700 On ch=2 n=47 v=100
247180 On ch=2 n=50 v=100
247220 Off ch=2 n=47 v=64
247420 On ch=2 n=54 v=100
247440 Off ch=2 n=50 v=64
247680 Off ch=2 n=54 v=64
247680 On ch=2 n=45 v=100
248160 Off ch=2 n=45 v=64
248160 On ch=2 n=48 v=100
248400 On ch=2 n=52 v=100
248440 Off ch=2 n=48 v=64
248620 On ch=2 n=47 v=100
248640 Off ch=2 n=52 v=64
249100 Off ch=2 n=47 v=64
249100 On ch=2 n=50 v=100
249340 On ch=2 n=54 v=100
249420 Off ch=2 n=50 v=64
249560 Off ch=2 n=54 v=64
249600 On ch=2 n=45 v=100
250080 Off ch=2 n=45 v=64
250080 On ch=2 n=48 v=100
250320 On ch=2 n=52 v=100
250360 Off ch=2 n=48 v=64
250540 On ch=2 n=47 v=100
250560 Off ch=2 n=52 v=64
251020 Off ch=2 n=47 v=64
251020 On ch=2 n=50 v=100
251260 On ch=2 n=54 v=100
251340 Off ch=2 n=50 v=64
251480 Off ch=2 n=54 v=64
251520 On ch=2 n=45 v=100
252000 On ch=2 n=48 v=100
252040 Off ch=2 n=45 v=64
252220 On ch=2 n=52 v=100
252240 Off ch=2 n=48 v=64
252460 Off ch=2 n=52 v=64
252460 On ch=2 n=47 v=100
252940 On ch=2 n=50 v=100
252980 Off ch=2 n=47 v=64
253180 On ch=2 n=54 v=100
253200 Off ch=2 n=50 v=64
253440 Off ch=2 n=54 v=64
253440 On ch=2 n=45 v=100
253920 Off ch=2 n=45 v=64
253920 On ch=2 n=48 v=100
254160 On ch=2 n=52 v=100
254200 Off ch=2 n=48 v=64
254380 On ch=2 n=47 v=100
254400 Off ch=2 n=52 v=64
254860 Off ch=2 n=47 v=64
254860 On ch=2 n=50 v=100
255100 On ch=2 n=54 v=100
255180 Off ch=2 n=50 v=64
255320 Off ch=2 n=54 v=64
255340 On ch=2 n=45 v=100
255840 On ch=2 n=48 v=100
255880 Off ch=2 n=45 v=64
256060 On ch=2 n=52 v=100
256080 Off ch=2 n=48 v=64
256300 Off ch=2 n=52 v=64
256300 On ch=2 n=47 v=100
256780 On ch=2 n=50 v=100
256820 Off ch=2 n=47 v=64
257020 On ch=2 n=54 v=100
257040 Off ch=2 n=50 v=64
257280 Off ch=2 n=54 v=64
257280 On ch=2 n=45 v=100
257760 Off ch=2 n=45 v=64
257760 On ch=2 n=48 v=100
258000 On ch=2 n=52 v=100
258040 Off ch=2 n=48 v=64
258220 On ch=2 n=47 v=100
258240 Off ch=2 n=52 v=64
258700 Off ch=2 n=47 v=64
258700 On ch=2 n=50 v=100
258940 On ch=2 n=54 v=100
259020 Off ch=2 n=50 v=64
259160 Off ch=2 n=54 v=64
259180 On ch=2 n=45 v=100
259680 On ch=2 n=48 v=100
259720 Off ch=2 n=45 v=64
259900 On ch=2 n=52 v=100
259920 Off ch=2 n=48 v=64
260140 Off ch=2 n=52 v=64
260140 On ch=2 n=47 v=100
260620 On ch=2 n=50 v=100
260660 Off ch=2 n=47 v=64
260860 On ch=2 n=54 v=100
260880 Off ch=2 n=50 v=64
261120 Off ch=2 n=54 v=64
261120 On ch=2 n=45 v=100
261600 Off ch=2 n=45 v=64
261600 On ch=2 n=48 v=100
261840 On ch=2 n=52 v=100
261880 Off ch=2 n=48 v=64
262060 On ch=2 n=47 v=100
262080 Off ch=2 n=52 v=64
262540 Off ch=2 n=47 v=64
262540 On ch=2 n=50 v=100
262780 On ch=2 n=54 v=100
262860 Off ch=2 n=50 v=64
263000 Off ch=2 n=54 v=64
263020 On ch=2 n=45 v=100
263520 On ch=2 n=48 v=100
263560 Off ch=2 n=45 v=64
263740 On ch=2 n=52 v=100
263760 Off ch=2 n=48 v=64
263980 Off ch=2 n=52 v=64
263980 On ch=2 n=47 v=100
264460 On ch=2 n=50 v=100
264500 Off ch=2 n=47 v=64
264700 On ch=2 n=54 v=100
264720 Off ch=2 n=50 v=64
264960 Off ch=2 n=54 v=64
264960 On ch=2 n=45 v=100
265440 Off ch=2 n=45 v=64
265440 On ch=2 n=48 v=100
265680 On ch=2 n=52 v=100
265720 Off ch=2 n=48 v=64
265900 On ch=2 n=47 v=100
265920 Off ch=2 n=52 v=64
266380 Off ch=2 n=47 v=64
266380 On ch=2 n=50 v=100
266620 On ch=2 n=54 v=100
266700 Off ch=2 n=50 v=64
266840 Off ch=2 n=54 v=64
266860 On ch=2 n=45 v=100
267360 On ch=2 n=48 v=100
267400 Off ch=2 n=45 v=64
267580 On ch=2 n=52 v=100
267600 Off ch=2 n=48 v=64
267820 Off ch=2 n=52 v=64
267820 On ch=2 n=47 v=100
268300 On ch=2 n=50 v=100
268340 Off ch=2 n=47 v=64
268540 On ch=2 n=54 v=100
268560 Off ch=2 n=50 v=64
268800 Off ch=2 n=54 v=64
268800 On ch=2 n=45 v=100
269280 Off ch=2 n=45 v=64
269280 On ch=2 n=48 v=100
269520 On ch=2 n=52 v=100
269560 Off ch=2 n=48 v=64
269740 On ch=2 n=47 v=100
269760 Off ch=2 n=52 v=64
270220 Off ch=2 n=47 v=64
270220 On ch=2 n=50 v=100
270460 On ch=2 n=54 v=100
270540 Off ch=2 n=50 v=64
270680 Off ch=2 n=54 v=64
270700 On ch=2 n=45 v=100
271200 On ch=2 n=48 v=100
271240 Off ch=2 n=45 v=64
271420 On ch=2 n=52 v=100
271440 Off ch=2 n=48 v=64
271660 Off ch=2 n=52 v=64
271660 On ch=2 n=47 v=100
272140 On ch=2 n=50 v=100
272180 Off ch=2 n=47 v=64
272380 On ch=2 n=54 v=100
272400 Off ch=2 n=50 v=64
272640 Off ch=2 n=54 v=64
272640 On ch=2 n=45 v=100
273120 Off ch=2 n=45 v=64
273120 On ch=2 n=48 v=100
273360 On ch=2 n=52 v=100
273400 Off ch=2 n=48 v=64
273580 On ch=2 n=47 v=100
273600 Off ch=2 n=52 v=64
274060 Off ch=2 n=47 v=64
274060 On ch=2 n=50 v=100
274300 On ch=2 n=54 v=100
274380 Off ch=2 n=50 v=64
274520 Off ch=2 n=54 v=64
274540 On ch=2 n=45 v=100
275040 On ch=2 n=48 v=100
275080 Off ch=2 n=45 v=64
275260 On ch=2 n=52 v=100
275280 Off ch=2 n=48 v=64
275500 Off ch=2 n=52 v=64
275500 On ch=2 n=47 v=100
275980 On ch=2 n=50 v=100
276020 Off ch=2 n=47 v=64
276220 On ch=2 n=54 v=100
276240 Off ch=2 n=50 v=64
276480 Off ch=2 n=54 v=64
276480 On ch=2 n=45 v=100
276960 Off ch=2 n=45 v=64
276960 On ch=2 n=48 v=100
277200 On ch=2 n=52 v=100
277240 Off ch=2 n=48 v=64
277420 On ch=2 n=47 v=100
277440 Off ch=2 n=52 v=64
277900 Off ch=2 n=47 v=64
277900 On ch=2 n=50 v=100
278140 On ch=2 n=54 v=100
278220 Off ch=2 n=50 v=64
278360 Off ch=2 n=54 v=64
278380 On ch=2 n=45 v=100
278880 On ch=2 n=48 v=100
278920 Off ch=2 n=45 v=64
279100 On ch=2 n=52 v=100
279120 Off ch=2 n=48 v=64
279340 Off ch=2 n=52 v=64
279340 On ch=2 n=47 v=100
279820 On ch=2 n=50 v=100
279860 Off ch=2 n=47 v=64
280060 On ch=2 n=54 v=100
280080 Off ch=2 n=50 v=64
280320 Off ch=2 n=54 v=64
280320 On ch=2 n=45 v=100
280800 Off ch=2 n=45 v=64
280800 On ch=2 n=48 v=100
281040 On ch=2 n=52 v=100
281080 Off ch=2 n=48 v=64
281260 On ch=2 n=47 v=100
281280 Off ch=2 n=52 v=64
281740 Off ch=2 n=47 v=64
281740 On ch=2 n=50 v=100
281980 On ch=2 n=54 v=100
282060 Off ch=2 n=50 v=64
282200 Off ch=2 n=54 v=64
282220 On ch=2 n=45 v=100
282720 On ch=2 n=48 v=100
282760 Off ch=2 n=45 v=64
282940 On ch=2 n=52 v=100
282960 Off ch=2 n=48 v=64
283180 Off ch=2 n=52 v=64
283180 On ch=2 n=47 v=100
283660 On ch=2 n=50 v=100
283700 Off ch=2 n=47 v=64
283900 On ch=2 n=54 v=100
283920 Off ch=2 n=50 v=64
284160 Off ch=2 n=54 v=64
284160 On ch=2 n=45 v=100
284640 Off ch=2 n=45 v=64
284640 On ch=2 n=48 v=100
284880 On ch=2 n=52 v=100
284920 Off ch=2 n=48 v=64
285100 On ch=2 n=47 v=100
285120 Off ch=2 n=52 v=64
285580 Off ch=2 n=47 v=64
285580 On ch=2 n=50 v=100
285820 On ch=2 n=54 v=100
285900 Off ch=2 n=50 v=64
286040 Off ch=2 n=54 v=64
286060 On ch=2 n=45 v=100
286560 On ch=2 n=48 v=100
286600 Off ch=2 n=45 v=64
286780 On ch=2 n=52 v=100
286800 Off ch=2 n=48 v=64
287020 Off ch=2 n=52 v=64
287020 On ch=2 n=47 v=100
287500 On ch=2 n=50 v=100
287540 Off ch=2 n=47 v=64
287740 On ch=2 n=54 v=100
287760 Off ch=2 n=50 v=64
288000 Off ch=2 n=54 v=64
288000 On ch=2 n=45 v=100
288480 Off ch=2 n=45 v=64
288480 On ch=2 n=48 v=100
288720 On ch=2 n=52 v=100
288760 Off ch=2 n=48 v=64
288940 On ch=2 n=47 v=100
288960 Off ch=2 n=52 v=64
289420 Off ch=2 n=47 v=64
289420 On ch=2 n=50 v=100
289660 On ch=2 n=54 v=100
289740 Off ch=2 n=50 v=64
289880 Off ch=2 n=54 v=64
289900 On ch=2 n=45 v=100
290400 On ch=2 n=48 v=100
290440 Off ch=2 n=45 v=64
290620 On ch=2 n=52 v=100
290640 Off ch=2 n=48 v=64
290860 Off ch=2 n=52 v=64
290860 On ch=2 n=47 v=100
291340 On ch=2 n=50 v=100
291380 Off ch=2 n=47 v=64
291580 On ch=2 n=54 v=100
291600 Off ch=2 n=50 v=64
291840 Off ch=2 n=54 v=64
293760 On ch=2 n=45 v=100
294240 Off ch=2 n=45 v=64
294240 On ch=2 n=48 v=100
294480 On ch=2 n=52 v=100
294520 Off ch=2 n=48 v=64
294700 On ch=2 n=47 v=100
294720 Off ch=2 n=52 v=64
295180 Off ch=2 n=47 v=64
295180 On ch=2 n=50 v=100
295420 On ch=2 n=54 v=100
295500 Off ch=2 n=50 v=64
295640 Off ch=2 n=54 v=64
295660 On ch=2 n=45 v=100
296160 On ch=2 n=48 v=100
296200 Off ch=2 n=45 v=64
296380 On ch=2 n=52 v=100
296400 Off ch=2 n=48 v=64
296620 Off ch=2 n=52 v=64
296620 On ch=2 n=47 v=100
297100 On ch=2 n=50 v=100
297140 Off ch=2 n=47 v=64
297340 On ch=2 n=54 v=100
297360 Off ch=2 n=50 v=64
297600 Off ch=2 n=54 v=64
297600 On ch=2 n=45 v=100
298080 Off ch=2 n=45 v=64
298080 On ch=2 n=48 v=100
298320 On ch=2 n=52 v=100
298360 Off ch=2 n=48 v=64
298540 On ch=2 n=47 v=100
298560 Off ch=2 n=52 v=64
299020 Off ch=2 n=47 v=64
299020 On ch=2 n=50 v=100
299260 On ch=2 n=54 v=100
299340 Off ch=2 n=50 v=64
299480 Off ch=2 n=54 v=64
299500 On ch=2 n=45 v=100
300000 On ch=2 n=48 v=100
300040 Off ch=2 n=45 v=64
300220 On ch=2 n=52 v=100
300240 Off ch=2 n=48 v=64
300460 Off ch=2 n=52 v=64
300460 On ch=2 n=47 v=100
300940 On ch=2 n=50 v=100
300980 Off ch=2 n=47 v=64
301180 On ch=2 n=54 v=100
301200 Off ch=2 n=50 v=64
301440 Off ch=2 n=54 v=64
301440 On ch=2 n=45 v=100
301920 Off ch=2 n=45 v=64
301920 On ch=2 n=48 v=100
302160 On ch=2 n=52 v=100
302200 Off ch=2 n=48 v=64
302380 On ch=2 n=47 v=100
302400 Off ch=2 n=52 v=64
302860 Off ch=2 n=47 v=64
302860 On ch=2 n=50 v=100
303100 On ch=2 n=54 v=100
303180 Off ch=2 n=50 v=64
303320 Off ch=2 n=54 v=64
303340 On ch=2 n=45 v=100
303840 On ch=2 n=48 v=100
303880 Off ch=2 n=45 v=64
304060 On ch=2 n=52 v=100
304080 Off ch=2 n=48 v=64
304300 Off ch=2 n=52 v=64
304300 On ch=2 n=47 v=100
304780 On ch=2 n=50 v=100
304820 Off ch=2 n=47 v=64
305020 On ch=2 n=54 v=100
305040 Off ch=2 n=50 v=64
305280 Off ch=2 n=54 v=64
305280 On ch=2 n=45 v=100
305760 Off ch=2 n=45 v=64
305760 On ch=2 n=48 v=100
306000 On ch=2 n=52 v=100
306040 Off ch=2 n=48 v=64
306220 On ch=2 n=47 v=100
306240 Off ch=2 n=52 v=64
306700 Off ch=2 n=47 v=64
306700 On ch=2 n=50 v=100
306940 On ch=2 n=54 v=100
307020 Off ch=2 n=50 v=64
307160 Off ch=2 n=54 v=64
307180 On ch=2 n=45 v=100
307680 On ch=2 n=48 v=100
307720 Off ch=2 n=45 v=64
307900 On ch=2 n=52 v=100
307920 Off ch=2 n=48 v=64
308140 Off ch=2 n=52 v=64
308140 On ch=2 n=47 v=100
308620 On ch=2 n=50 v=100
308660 Off ch=2 n=47 v=64
308860 On ch=2 n=54 v=100
308880 Off ch=2 n=50 v=64
309120 Off ch=2 n=54 v=64
309120 On ch=2 n=45 v=100
309600 Off ch=2 n=45 v=64
309600 On ch=2 n=48 v=100
309840 On ch=2 n=52 v=100
309880 Off ch=2 n=48 v=64
310060 On ch=2 n=47 v=100
310080 Off ch=2 n=52 v=64
310540 Off ch=2 n=47 v=64
310540 On ch=2 n=50 v=100
310780 On ch=2 n=54 v=100
310860 Off ch=2 n=50 v=64
311000 Off ch=2 n=54 v=64
311020 On ch=2 n=45 v=100
311520 On ch=2 n=48 v=100
311560 Off ch=2 n=45 v=64
311740 On ch=2 n=52 v=100
311760 Off ch=2 n=48 v=64
311980 Off ch=2 n=52 v=64
311980 On ch=2 n=47 v=100
312460 On ch=2 n=50 v=100
312500 Off ch=2 n=47 v=64
312700 On ch=2 n=54 v=100
312720 Off ch=2 n=50 v=64
312960 Off ch=2 n=54 v=64
312960 On ch=2 n=45 v=100
313440 Off ch=2 n=45 v=64
313440 On ch=2 n=48 v=100
313680 On ch=2 n=52 v=100
313720 Off ch=2 n=48 v=64
313900 On ch=2 n=47 v=100
313920 Off ch=2 n=52 v=64
314380 Off ch=2 n=47 v=64
314380 On ch=2 n=50 v=100
314620 On ch=2 n=54 v=100
314700 Off ch=2 n=50 v=64
314840 Off ch=2 n=54 v=64
314860 On ch=2 n=45 v=100
315360 On ch=2 n=48 v=100
315400 Off ch=2 n=45 v=64
315580 On ch=2 n=52 v=100
315600 Off ch=2 n=48 v=64
315820 Off ch=2 n=52 v=64
315820 On ch=2 n=47 v=100
316300 On ch=2 n=50 v=100
316340 Off ch=2 n=47 v=64
316540 On ch=2 n=54 v=100
316560 Off ch=2 n=50 v=64
316800 Off ch=2 n=54 v=64
316800 On ch=2 n=45 v=100
317280 Off ch=2 n=45 v=64
317280 On ch=2 n=48 v=100
317520 On ch=2 n=52 v=100
317560 Off ch=2 n=48 v=64
317740 On ch=2 n=47 v=100
317760 Off ch=2 n=52 v=64
318220 Off ch=2 n=47 v=64
318220 On ch=2 n=50 v=100
318460 On ch=2 n=54 v=100
318540 Off ch=2 n=50 v=64
318680 Off ch=2 n=54 v=64
318700 On ch=2 n=45 v=100
319200 On ch=2 n=48 v=100
319240 Off ch=2 n=45 v=64
319420 On ch=2 n=52 v=100
319440 Off ch=2 n=48 v=64
319660 Off ch=2 n=52 v=64
319660 On ch=2 n=47 v=100
320140 On ch=2 n=50 v=100
320180 Off ch=2 n=47 v=64
320380 On ch=2 n=54 v=100
320400 Off ch=2 n=50 v=64
320640 Off ch=2 n=54 v=64
320640 On ch=2 n=45 v=100
321120 Off ch=2 n=45 v=64
321120 On ch=2 n=48 v=100
321360 On ch=2 n=52 v=100
321400 Off ch=2 n=48 v=64
321580 On ch=2 n=47 v=100
321600 Off ch=2 n=52 v=64
322060 Off ch=2 n=47 v=64
322060 On ch=2 n=50 v=100
322300 On ch=2 n=54 v=100
322380 Off ch=2 n=50 v=64
322520 Off ch=2 n=54 v=64
322540 On ch=2 n=45 v=100
323040 On ch=2 n=48 v=100
323080 Off ch=2 n=45 v=64
323260 On ch=2 n=52 v=100
323280 Off ch=2 n=48 v=64
323500 Off ch=2 n=52 v=64
323500 On ch=2 n=47 v=100
323980 On ch=2 n=50 v=100
324020 Off ch=2 n=47 v=64
324220 On ch=2 n=54 v=100
324240 Off ch=2 n=50 v=64
324480 Off ch=2 n=54 v=64
324480 On ch=2 n=45 v=100
324960 Off ch=2 n=45 v=64
324960 On ch=2 n=48 v=100
325200 On ch=2 n=52 v=100
325240 Off ch=2 n=48 v=64
325420 On ch=2 n=47 v=100
325440 Off ch=2 n=52 v=64
325900 Off ch=2 n=47 v=64
325900 On ch=2 n=50 v=100
326140 On ch=2 n=54 v=100
326220 Off ch=2 n=50 v=64
326360 Off ch=2 n=54 v=64
326400 On ch=2 n=45 v=100
326400 On ch=2 n=52 v=100
326580 Off ch=2 n=52 v=64
326640 On ch=2 n=52 v=100
326820 Off ch=2 n=52 v=64
326880 On ch=2 n=52 v=100
326920 Off ch=2 n=45 v=64
327060 Off ch=2 n=52 v=64
327120 On ch=2 n=52 v=100
327300 Off ch=2 n=52 v=64
327360 On ch=2 n=52 v=100
327540 Off ch=2 n=52 v=64
327600 On ch=2 n=52 v=100
327780 Off ch=2 n=52 v=64
327840 On ch=2 n=52 v=100
328020 Off ch=2 n=52 v=64
328080 On ch=2 n=44 v=100
328260 Off ch=2 n=44 v=64
328320 On ch=2 n=52 v=100
328500 Off ch=2 n=52 v=64
328560 On ch=2 n=52 v=100
328740 Off ch=2 n=52 v=64
328800 On ch=2 n=52 v=100
328980 Off ch=2 n=52 v=64
329040 On ch=2 n=52 v=100
329220 Off ch=2 n=52 v=64
329280 On ch=2 n=52 v=100
329460 Off ch=2 n=52 v=64
329520 On ch=2 n=52 v=100
329700 Off ch=2 n=52 v=64
329760 On ch=2 n=52 v=100
329940 Off ch=2 n=52 v=64
330000 On ch=2 n=44 v=100
330180 Off ch=2 n=44 v=64
330240 On ch=2 n=45 v=100
330720 Off ch=2 n=45 v=64
330720 On ch=2 n=55 v=100
330960 Off ch=2 n=55 v=64
330960 On ch=2 n=48 v=100
331200 Off ch=2 n=48 v=64
331200 On ch=2 n=52 v=100
331680 Off ch=2 n=52 v=64
331680 On ch=2 n=48 v=100
331920 Off ch=2 n=48 v=64
331920 On ch=2 n=52 v=100
332160 Off ch=2 n=52 v=64
332160 On ch=2 n=42 v=100
332640 Off ch=2 n=42 v=64
332640 On ch=2 n=52 v=100
332880 Off ch=2 n=52 v=64
332880 On ch=2 n=45 v=100
333120 Off ch=2 n=45 v=64
333120 On ch=2 n=49 v=100
333600 Off ch=2 n=49 v=64
333600 On ch=2 n=45 v=100
333840 Off ch=2 n=45 v=64
333840 On ch=2 n=48 v=100
334080 Off ch=2 n=48 v=64
334080 On ch=2 n=45 v=100
334560 Off ch=2 n=45 v=64
334560 On ch=2 n=55 v=100
334800 Off ch=2 n=55 v=64
334800 On ch=2 n=48 v=100
335040 Off ch=2 n=48 v=64
335040 On ch=2 n=52 v=100
335520 Off ch=2 n=52 v=64
335520 On ch=2 n=48 v=100
335760 Off ch=2 n=48 v=64
335760 On ch=2 n=52 v=100
336000 Off ch=2 n=52 v=64
336000 On ch=2 n=42 v=100
336480 Off ch=2 n=42 v=64
336480 On ch=2 n=52 v=100
336720 Off ch=2 n=52 v=64
336720 On ch=2 n=45 v=100
336960 Off ch=2 n=45 v=64
336960 On ch=2 n=49 v=100
337440 Off ch=2 n=49 v=64
337440 On ch=2 n=45 v=100
337680 Off ch=2 n=45 v=64
337680 On ch=2 n=48 v=100
337920 Off ch=2 n=48 v=64
337920 On ch=2 n=45 v=100
338400 Off ch=2 n=45 v=64
338400 On ch=2 n=55 v=100
338640 Off ch=2 n=55 v=64
338640 On ch=2 n=48 v=100
338880 Off ch=2 n=48 v=64
338880 On ch=2 n=52 v=100
339360 Off ch=2 n=52 v=64
339360 On ch=2 n=48 v=100
339600 Off ch=2 n=48 v=64
339600 On ch=2 n=52 v=100
339840 Off ch=2 n=52 v=64
339840 On ch=2 n=42 v=100
340320 Off ch=2 n=42 v=64
340320 On ch=2 n=52 v=100
340560 Off ch=2 n=52 v=64
340560 On ch=2 n=45 v=100
340800 Off ch=2 n=45 v=64
340800 On ch=2 n=49 v=100
341280 Off ch=2 n=49 v=64
341280 On ch=2 n=45 v=100
341520 Off ch=2 n=45 v=64
341520 On ch=2 n=48 v=100
341760 Off ch=2 n=48 v=64
341760 On ch=2 n=45 v=100
342240 Off ch=2 n=45 v=64
342240 On ch=2 n=55 v=100
342480 Off ch=2 n=55 v=64
342480 On ch=2 n=48 v=100
342720 Off ch=2 n=48 v=64
342720 On ch=2 n=52 v=100
343200 Off ch=2 n=52 v=64
343200 On ch=2 n=48 v=100
343440 Off ch=2 n=48 v=64
343440 On ch=2 n=52 v=100
343680 Off ch=2 n=52 v=64
343680 On ch=2 n=42 v=100
344160 Off ch=2 n=42 v=64
344160 On ch=2 n=52 v=100
344400 Off ch=2 n=52 v=64
344400 On ch=2 n=45 v=100
344640 Off ch=2 n=45 v=64
344640 On ch=2 n=49 v=100
345120 Off ch=2 n=49 v=64
345120 On ch=2 n=45 v=100
345360 Off ch=2 n=45 v=64
345360 On ch=2 n=48 v=100
345600 Off ch=2 n=48 v=64
345600 On ch=2 n=43 v=100
346080 Off ch=2 n=43 v=64
346080 On ch=2 n=47 v=100
346320 Off ch=2 n=47 v=64
346320 On ch=2 n=50 v=100
346560 Off ch=2 n=50 v=64
346560 On ch=2 n=45 v=100
347040 Off ch=2 n=45 v=64
347040 On ch=2 n=49 v=100
347280 Off ch=2 n=49 v=64
347280 On ch=2 n=45 v=100
347520 Off ch=2 n=45 v=64
347520 On ch=2 n=38 v=100
348000 Off ch=2 n=38 v=64
348000 On ch=2 n=50 v=100
348240 Off ch=2 n=50 v=64
348240 On ch=2 n=42 v=100
348480 Off ch=2 n=42 v=64
348480 On ch=2 n=45 v=100
348960 Off ch=2 n=45 v=64
348960 On ch=2 n=41 v=100
349200 Off ch=2 n=41 v=64
349200 On ch=2 n=45 v=100
349440 Off ch=2 n=45 v=64
349440 On ch=2 n=43 v=100
349920 Off ch=2 n=43 v=64
349920 On ch=2 n=47 v=100
350160 Off ch=2 n=47 v=64
350160 On ch=2 n=50 v=100
350400 Off ch=2 n=50 v=64
350400 On ch=2 n=45 v=100
350880 Off ch=2 n=45 v=64
350880 On ch=2 n=49 v=100
351120 Off ch=2 n=49 v=64
351120 On ch=2 n=45 v=100
351360 Off ch=2 n=45 v=64
351360 On ch=2 n=38 v=100
351840 Off ch=2 n=38 v=64
351840 On ch=2 n=50 v=100
352080 Off ch=2 n=50 v=64
352080 On ch=2 n=42 v=100
352320 Off ch=2 n=42 v=64
352320 On ch=2 n=45 v=100
352800 Off ch=2 n=45 v=64
352800 On ch=2 n=41 v=100
353040 Off ch=2 n=41 v=64
353040 On ch=2 n=45 v=100
353280 Off ch=2 n=45 v=64
353280 On ch=2 n=41 v=100
353760 Off ch=2 n=41 v=64
353760 On ch=2 n=45 v=100
354000 Off ch=2 n=45 v=64
354000 On ch=2 n=48 v=100
354240 Off ch=2 n=48 v=64
354240 On ch=2 n=36 v=100
354720 Off ch=2 n=36 v=64
354720 On ch=2 n=40 v=100
354960 Off ch=2 n=40 v=64
354960 On ch=2 n=43 v=100
355200 Off ch=2 n=43 v=64
355200 On ch=2 n=38 v=100
355680 Off ch=2 n=38 v=64
355680 On ch=2 n=50 v=100
355920 Off ch=2 n=50 v=64
355920 On ch=2 n=42 v=100
356160 Off ch=2 n=42 v=64
356160 On ch=2 n=45 v=100
356640 Off ch=2 n=45 v=64
356640 On ch=2 n=41 v=100
356880 Off ch=2 n=41 v=64
356880 On ch=2 n=45 v=100
357120 Off ch=2 n=45 v=64
357120 On ch=2 n=41 v=100
357600 Off ch=2 n=41 v=64
357600 On ch=2 n=45 v=100
357840 Off ch=2 n=45 v=64
357840 On ch=2 n=48 v=100
358080 Off ch=2 n=48 v=64
358080 On ch=2 n=36 v=100
358560 Off ch=2 n=36 v=64
358560 On ch=2 n=40 v=100
358800 Off ch=2 n=40 v=64
358800 On ch=2 n=43 v=100
359040 Off ch=2 n=43 v=64
359040 On ch=2 n=38 v=100
359520 Off ch=2 n=38 v=64
359520 On ch=2 n=50 v=100
359760 Off ch=2 n=50 v=64
359760 On ch=2 n=42 v=100
360000 Off ch=2 n=42 v=64
360000 On ch=2 n=45 v=100
360480 Off ch=2 n=45 v=64
360480 On ch=2 n=41 v=100
360720 Off ch=2 n=41 v=64
360720 On ch=2 n=45 v=100
360960 Off ch=2 n=45 v=64
360960 On ch=2 n=41 v=100
361440 Off ch=2 n=41 v=64
361440 On ch=2 n=45 v=100
361680 Off ch=2 n=45 v=64
361680 On ch=2 n=48 v=100
361920 Off ch=2 n=48 v=64
361920 On ch=2 n=36 v=100
362400 Off ch=2 n=36 v=64
362400 On ch=2 n=40 v=100
362640 Off ch=2 n=40 v=64
362640 On ch=2 n=43 v=100
362880 Off ch=2 n=43 v=64
362880 On ch=2 n=38 v=100
363360 Off ch=2 n=38 v=64
363360 On ch=2 n=50 v=100
363600 Off ch=2 n=50 v=64
363600 On ch=2 n=42 v=100
363840 Off ch=2 n=42 v=64
363840 On ch=2 n=45 v=100
364320 Off ch=2 n=45 v=64
364320 On ch=2 n=41 v=100
364560 Off ch=2 n=41 v=64
364560 On ch=2 n=45 v=100
364800 Off ch=2 n=45 v=64
364800 On ch=2 n=41 v=100
365040 Off ch=2 n=41 v=64
365040 On ch=2 n=41 v=100
365280 Off ch=2 n=41 v=64
365280 On ch=2 n=45 v=100
365520 Off ch=2 n=45 v=64
365520 On ch=2 n=48 v=100
365760 Off ch=2 n=48 v=64
365760 On ch=2 n=36 v=100
366000 Off ch=2 n=36 v=64
366000 On ch=2 n=36 v=100
366240 Off ch=2 n=36 v=64
366240 On ch=2 n=40 v=100
366480 Off ch=2 n=40 v=64
366480 On ch=2 n=43 v=100
366720 Off ch=2 n=43 v=64
366720 On ch=2 n=50 v=100
370080 Off ch=2 n=50 v=64
370560 On ch=2 n=55 v=100
371040 On ch=2 n=59 v=100
371080 Off ch=2 n=55 v=64
371280 On ch=2 n=62 v=100
371320 Off ch=2 n=59 v=64
371460 Off ch=2 n=62 v=64
371520 On ch=2 n=48 v=100
372000 On ch=2 n=52 v=100
372040 Off ch=2 n=48 v=64
372240 On ch=2 n=55 v=100
372280 Off ch=2 n=52 v=64
372440 Off ch=2 n=55 v=64
372480 On ch=2 n=53 v=100
372960 Off ch=2 n=53 v=64
372960 On ch=2 n=57 v=100
373200 Off ch=2 n=57 v=64
373200 On ch=2 n=60 v=100
373400 Off ch=2 n=60 v=64
373440 On ch=2 n=46 v=100
373920 Off ch=2 n=46 v=64
373920 On ch=2 n=50 v=100
374160 On ch=2 n=53 v=100
374180 Off ch=2 n=50 v=64
374320 Off ch=2 n=53 v=64
374400 On ch=2 n=51 v=100
374880 On ch=2 n=55 v=100
374940 Off ch=2 n=51 v=64
375120 On ch=2 n=58 v=100
375160 Off ch=2 n=55 v=64
375320 Off ch=2 n=58 v=64
375360 On ch=2 n=44 v=100
375840 On ch=2 n=48 v=100
375900 Off ch=2 n=44 v=64
376080 On ch=2 n=51 v=100
376100 Off ch=2 n=48 v=64
376320 On ch=2 n=57 v=100
376340 Off ch=2 n=51 v=64
376480 On ch=2 n=45 v=100
376520 Off ch=2 n=57 v=64
376680 Off ch=2 n=45 v=64
376680 On ch=2 n=57 v=100
376880 Off ch=2 n=57 v=64
376900 On ch=2 n=45 v=100
377040 Off ch=2 n=45 v=64
377060 On ch=2 n=57 v=100
377240 On ch=2 n=45 v=100
377260 Off ch=2 n=57 v=64
377380 Off ch=2 n=45 v=64
377420 On ch=2 n=57 v=100
377560 Off ch=2 n=57 v=64
377560 On ch=2 n=45 v=100
377660 Off ch=2 n=45 v=64
377700 On ch=2 n=57 v=100
377820 Off ch=2 n=57 v=64
377820 On ch=2 n=45 v=100
377920 Off ch=2 n=45 v=64
377920 On ch=2 n=57 v=100
378020 Off ch=2 n=57 v=64
378040 On ch=2 n=45 v=100
378120 Off ch=2 n=45 v=64
378120 On ch=2 n=57 v=100
378220 Off ch=2 n=57 v=64
378240 On ch=2 n=45 v=100
378320 Off ch=2 n=45 v=64
378320 On ch=2 n=57 v=100
378400 Off ch=2 n=57 v=64
378420 On ch=2 n=45 v=100
378500 Off ch=2 n=45 v=64
378500 On ch=2 n=57 v=100
378600 Off ch=2 n=57 v=64
378600 On ch=2 n=45 v=100
378700 Off ch=2 n=45 v=64
378700 On ch=2 n=57 v=100
378800 On ch=2 n=45 v=100
378820 Off ch=2 n=57 v=64
378880 Off ch=2 n=45 v=64
378900 On ch=2 n=57 v=100
379000 Off ch=2 n=57 v=64
379020 On ch=2 n=45 v=100
379080 Off ch=2 n=45 v=64
379120 On ch=2 n=57 v=100
379200 Off ch=2 n=57 v=64
379220 On ch=2 n=45 v=100
379300 Off ch=2 n=45 v=64
379320 On ch=2 n=57 v=100
380340 Off ch=2 n=57 v=64
382080 Par ch=2 c=68 v=0
382080 Par ch=2 c=67 v=0
382080 Par ch=2 c=66 v=0
382080 Par ch=2 c=65 v=0
382080 Par ch=2 c=10 v=64
382080 Par ch=2 c=8 v=0
382080 Par ch=2 c=4 v=0
382080 PoPr ch=2 n=0 v=0
382080 Pb ch=2 v=8192
382080 ChPr ch=2 v=0
382080 Par ch=2 c=1 v=0
382092 Par ch=2 c=2 v=0
382105 Par ch=2 c=7 v=100
382117 Par ch=2 c=11 v=100
382130 Par ch=2 c=64 v=0
382142 Par ch=2 c=91 v=40
382155 Par ch=2 c=93 v=40
382560 Par ch=2 c=99 v=1
382590 Par ch=2 c=98 v=8
382620 Par ch=2 c=6 v=64
382685 Par ch=2 c=99 v=1
382715 Par ch=2 c=98 v=9
382745 Par ch=2 c=6 v=64
382910 Par ch=2 c=99 v=1
382940 Par ch=2 c=98 v=10
382970 Par ch=2 c=6 v=64
383035 Par ch=2 c=99 v=1
383065 Par ch=2 c=98 v=32
383095 Par ch=2 c=6 v=64
383160 Par ch=2 c=99 v=1
383190 Par ch=2 c=98 v=33
383220 Par ch=2 c=6 v=64
383285 Par ch=2 c=99 v=1
383315 Par ch=2 c=98 v=99
383345 Par ch=2 c=6 v=64
383410 Par ch=2 c=99 v=1
383435 Par ch=2 c=99 v=1
383440 Par ch=2 c=98 v=100
383465 Par ch=2 c=98 v=102
383470 Par ch=2 c=6 v=64
383495 Par ch=2 c=6 v=64
383560 Par ch=2 c=101 v=0
383590 Par ch=2 c=100 v=0
383620 Par ch=2 c=6 v=2
383685 Par ch=2 c=0 v=0
383686 Par ch=2 c=32 v=0
383715 Par ch=2 c=121 v=0
383715 Meta TrkEnd
TrkEnd
MTrk
0 Meta TrkName "Rhythm1             "
0 Meta 0x21 00
0 Meta 0x20 02
0 Par ch=3 c=7 v=100
0 Par ch=3 c=10 v=69
0 PrCh ch=3 p=18
0 Par ch=3 c=121 v=0
0 Pb ch=3 v=8192
0 Par ch=3 c=91 v=40
0 Par ch=3 c=93 v=40
0 Par ch=3 c=4 v=0
0 Par ch=3 c=8 v=0
0 Par ch=3 c=64 v=0
0 Par ch=3 c=65 v=0
0 Par ch=3 c=66 v=0
0 Par ch=3 c=67 v=0
0 Par ch=3 c=68 v=0
0 Par ch=3 c=2 v=127
1 Par ch=3 c=11 v=127
1 Par ch=3 c=1 v=0
80 Par ch=3 c=101 v=0
120 Par ch=3 c=100 v=0
360 Par ch=3 c=6 v=12
1120 Par ch=3 c=91 v=82
1380 Par ch=3 c=93 v=67
1380 Par ch=3 c=93 v=63
1440 Par ch=3 c=0 v=0
1920 On ch=3 n=81 v=119
2160 Off ch=3 n=81 v=64
2160 On ch=3 n=77 v=119
2280 Off ch=3 n=77 v=64
2280 On ch=3 n=81 v=119
2400 Off ch=3 n=81 v=64
2400 On ch=3 n=84 v=119
2640 Off ch=3 n=84 v=64
2640 On ch=3 n=89 v=119
2880 Off ch=3 n=89 v=64
2880 On ch=3 n=86 v=119
3000 Off ch=3 n=86 v=64
3000 On ch=3 n=84 v=119
3120 Off ch=3 n=84 v=64
3120 On ch=3 n=82 v=119
3240 Off ch=3 n=82 v=64
3240 On ch=3 n=79 v=119
3360 Off ch=3 n=79 v=64
3360 On ch=3 n=80 v=119
3600 Off ch=3 n=80 v=64
3600 On ch=3 n=79 v=119
3840 Off ch=3 n=79 v=64
3840 On ch=3 n=80 v=119
4080 Off ch=3 n=80 v=64
4080 On ch=3 n=79 v=119
4200 Off ch=3 n=79 v=64
4200 On ch=3 n=81 v=119
4320 Off ch=3 n=81 v=64
4320 On ch=3 n=82 v=119
4560 Off ch=3 n=82 v=64
4560 On ch=3 n=84 v=119
4800 Off ch=3 n=84 v=64
4800 On ch=3 n=83 v=119
4920 Off ch=3 n=83 v=64
4920 On ch=3 n=81 v=119
5040 Off ch=3 n=81 v=64
5040 On ch=3 n=79 v=119
5160 Off ch=3 n=79 v=64
5160 On ch=3 n=77 v=119
5280 Off ch=3 n=77 v=64
5280 On ch=3 n=75 v=119
5520 Off ch=3 n=75 v=64
5520 On ch=3 n=77 v=119
5760 Off ch=3 n=77 v=64
5760 On ch=3 n=69 v=119
5760 On ch=3 n=81 v=119
5760 On ch=3 n=61 v=119
5760 On ch=3 n=64 v=119
5980 On ch=3 n=73 v=119
6200 Off ch=3 n=73 v=64
6200 On ch=3 n=76 v=119
6440 On ch=3 n=73 v=119
6460 Off ch=3 n=76 v=64
6560 Off ch=3 n=81 v=64
6680 On ch=3 n=81 v=119
6720 Off ch=3 n=73 v=64
6920 On ch=3 n=73 v=119
7160 Off ch=3 n=73 v=64
7160 On ch=3 n=76 v=119
7400 On ch=3 n=73 v=119
7420 Off ch=3 n=76 v=64
7520 Off ch=3 n=81 v=64
7620 On ch=3 n=81 v=119
7700 Off ch=3 n=73 v=64
7900 On ch=3 n=73 v=119
8120 Off ch=3 n=73 v=64
8140 On ch=3 n=76 v=119
8360 Off ch=3 n=76 v=64
8360 On ch=3 n=73 v=119
8500 Off ch=3 n=81 v=64
8620 On ch=3 n=81 v=119
8680 Off ch=3 n=73 v=64
8860 On ch=3 n=73 v=119
9100 On ch=3 n=76 v=119
9140 Off ch=3 n=73 v=64
9340 Off ch=3 n=61 v=64
9340 On ch=3 n=73 v=119
9360 Off ch=3 n=64 v=64
9360 Off ch=3 n=76 v=64
9380 Off ch=3 n=69 v=64
9380 Off ch=3 n=81 v=64
9540 Off ch=3 n=73 v=64
10080 On ch=3 n=79 v=119
10560 Off ch=3 n=79 v=64
10800 On ch=3 n=79 v=119
11040 Off ch=3 n=79 v=64
11040 On ch=3 n=79 v=119
11280 Off ch=3 n=79 v=64
11280 On ch=3 n=78 v=119
12000 Off ch=3 n=78 v=64
12000 On ch=3 n=78 v=119
12480 Off ch=3 n=78 v=64
12720 On ch=3 n=78 v=119
12960 Off ch=3 n=78 v=64
12960 On ch=3 n=78 v=119
13200 Off ch=3 n=78 v=64
13200 On ch=3 n=79 v=119
13920 Off ch=3 n=79 v=64
13920 On ch=3 n=79 v=119
14400 Off ch=3 n=79 v=64
14640 On ch=3 n=79 v=119
14880 Off ch=3 n=79 v=64
14880 On ch=3 n=79 v=119
15120 Off ch=3 n=79 v=64
15120 On ch=3 n=78 v=119
15840 Off ch=3 n=78 v=64
15840 On ch=3 n=78 v=119
16320 Off ch=3 n=78 v=64
16560 On ch=3 n=78 v=119
16800 Off ch=3 n=78 v=64
16800 On ch=3 n=78 v=119
17040 Off ch=3 n=78 v=64
17040 On ch=3 n=79 v=119
17760 Off ch=3 n=79 v=64
17760 On ch=3 n=79 v=119
18240 Off ch=3 n=79 v=64
18480 On ch=3 n=76 v=119
18720 Off ch=3 n=76 v=64
18720 On ch=3 n=76 v=119
18960 Off ch=3 n=76 v=64
18960 On ch=3 n=78 v=119
19680 Off ch=3 n=78 v=64
19680 On ch=3 n=78 v=119
20160 Off ch=3 n=78 v=64
20400 On ch=3 n=78 v=119
20640 Off ch=3 n=78 v=64
20640 On ch=3 n=78 v=119
20880 Off ch=3 n=78 v=64
20880 On ch=3 n=79 v=119
21600 Off ch=3 n=79 v=64
21600 On ch=3 n=79 v=119
22080 Off ch=3 n=79 v=64
22320 On ch=3 n=79 v=119
22560 Off ch=3 n=79 v=64
22560 On ch=3 n=79 v=119
22800 Off ch=3 n=79 v=64
22800 On ch=3 n=78 v=119
23520 Off ch=3 n=78 v=64
23520 On ch=3 n=73 v=119
23760 Off ch=3 n=73 v=64
23760 On ch=3 n=78 v=119
24240 Off ch=3 n=78 v=64
24240 On ch=3 n=69 v=119
24480 Off ch=3 n=69 v=64
24480 On ch=3 n=72 v=119
24720 Off ch=3 n=72 v=64
24720 On ch=3 n=77 v=119
24960 Off ch=3 n=77 v=64
24960 On ch=3 n=71 v=119
25440 Off ch=3 n=71 v=64
25440 On ch=3 n=74 v=119
25920 Off ch=3 n=74 v=64
25920 On ch=3 n=73 v=119
26400 Off ch=3 n=73 v=64
26400 On ch=3 n=69 v=119
27360 Off ch=3 n=69 v=64
27360 On ch=3 n=69 v=119
27600 Off ch=3 n=69 v=64
27600 On ch=3 n=74 v=119
27840 Off ch=3 n=74 v=64
27840 On ch=3 n=67 v=119
28080 Off ch=3 n=67 v=64
28080 On ch=3 n=69 v=119
28320 Off ch=3 n=69 v=64
28320 On ch=3 n=74 v=119
28560 Off ch=3 n=74 v=64
28560 On ch=3 n=69 v=119
28800 Off ch=3 n=69 v=64
28800 On ch=3 n=71 v=119
29280 Off ch=3 n=71 v=64
29280 On ch=3 n=74 v=119
29760 Off ch=3 n=74 v=64
29760 On ch=3 n=73 v=119
30240 Off ch=3 n=73 v=64
30240 On ch=3 n=69 v=119
31200 Off ch=3 n=69 v=64
31200 On ch=3 n=69 v=119
31440 Off ch=3 n=69 v=64
31440 On ch=3 n=74 v=119
31680 Off ch=3 n=74 v=64
31680 On ch=3 n=71 v=119
32160 Off ch=3 n=71 v=64
32160 On ch=3 n=65 v=119
32400 Off ch=3 n=65 v=64
32400 On ch=3 n=71 v=119
33120 Off ch=3 n=71 v=64
33120 On ch=3 n=74 v=119
33600 Off ch=3 n=74 v=64
33600 On ch=3 n=69 v=119
34080 Off ch=3 n=69 v=64
34080 On ch=3 n=74 v=119
34560 Off ch=3 n=74 v=64
34560 On ch=3 n=71 v=119
35760 Off ch=3 n=71 v=64
35760 On ch=3 n=76 v=119
36000 Off ch=3 n=76 v=64
36000 On ch=3 n=67 v=119
36240 Off ch=3 n=67 v=64
36240 On ch=3 n=71 v=119
36480 Off ch=3 n=71 v=64
36480 On ch=3 n=76 v=119
36720 Off ch=3 n=76 v=64
36720 On ch=3 n=68 v=119
36960 Off ch=3 n=68 v=64
36960 On ch=3 n=71 v=119
37200 Off ch=3 n=71 v=64
37200 On ch=3 n=76 v=119
37440 Off ch=3 n=76 v=64
37440 On ch=3 n=67 v=119
37680 Off ch=3 n=67 v=64
37680 On ch=3 n=71 v=119
37920 Off ch=3 n=71 v=64
37920 On ch=3 n=76 v=119
38160 Off ch=3 n=76 v=64
38160 On ch=3 n=81 v=119
38400 Off ch=3 n=81 v=64
38880 On ch=3 n=79 v=119
39360 Off ch=3 n=79 v=64
39600 On ch=3 n=79 v=119
39840 Off ch=3 n=79 v=64
39840 On ch=3 n=79 v=119
40080 Off ch=3 n=79 v=64
40080 On ch=3 n=78 v=119
40800 Off ch=3 n=78 v=64
40800 On ch=3 n=78 v=119
41280 Off ch=3 n=78 v=64
41520 On ch=3 n=78 v=119
41760 Off ch=3 n=78 v=64
41760 On ch=3 n=78 v=119
42000 Off ch=3 n=78 v=64
42000 On ch=3 n=79 v=119
42720 Off ch=3 n=79 v=64
42720 On ch=3 n=79 v=119
43200 Off ch=3 n=79 v=64
43440 On ch=3 n=79 v=119
43680 Off ch=3 n=79 v=64
43680 On ch=3 n=79 v=119
43920 Off ch=3 n=79 v=64
43920 On ch=3 n=78 v=119
44640 Off ch=3 n=78 v=64
44640 On ch=3 n=78 v=119
45120 Off ch=3 n=78 v=64
45360 On ch=3 n=78 v=119
45600 Off ch=3 n=78 v=64
45600 On ch=3 n=78 v=119
45840 Off ch=3 n=78 v=64
45840 On ch=3 n=79 v=119
46560 Off ch=3 n=79 v=64
46560 On ch=3 n=79 v=119
47040 Off ch=3 n=79 v=64
47280 On ch=3 n=76 v=119
47520 Off ch=3 n=76 v=64
47520 On ch=3 n=76 v=119
47760 Off ch=3 n=76 v=64
47760 On ch=3 n=78 v=119
48480 Off ch=3 n=78 v=64
48480 On ch=3 n=78 v=119
48960 Off ch=3 n=78 v=64
49200 On ch=3 n=78 v=119
49440 Off ch=3 n=78 v=64
49440 On ch=3 n=78 v=119
49680 Off ch=3 n=78 v=64
49680 On ch=3 n=79 v=119
50400 Off ch=3 n=79 v=64
50400 On ch=3 n=79 v=119
50880 Off ch=3 n=79 v=64
51120 On ch=3 n=79 v=119
51360 Off ch=3 n=79 v=64
51360 On ch=3 n=79 v=119
51600 Off ch=3 n=79 v=64
51600 On ch=3 n=78 v=119
52320 Off ch=3 n=78 v=64
52320 On ch=3 n=73 v=119
52560 Off ch=3 n=73 v=64
52560 On ch=3 n=78 v=119
53040 Off ch=3 n=78 v=64
53040 On ch=3 n=69 v=119
53280 Off ch=3 n=69 v=64
53280 On ch=3 n=72 v=119
53520 Off ch=3 n=72 v=64
53520 On ch=3 n=77 v=119
53760 Off ch=3 n=77 v=64
53760 On ch=3 n=71 v=119
54240 Off ch=3 n=71 v=64
54240 On ch=3 n=74 v=119
54720 Off ch=3 n=74 v=64
54720 On ch=3 n=73 v=119
55200 Off ch=3 n=73 v=64
55200 On ch=3 n=69 v=119
56160 Off ch=3 n=69 v=64
56160 On ch=3 n=69 v=119
56400 Off ch=3 n=69 v=64
56400 On ch=3 n=74 v=119
56640 Off ch=3 n=74 v=64
56640 On ch=3 n=67 v=119
56880 Off ch=3 n=67 v=64
56880 On ch=3 n=69 v=119
57120 Off ch=3 n=69 v=64
57120 On ch=3 n=74 v=119
57360 Off ch=3 n=74 v=64
57360 On ch=3 n=69 v=119
57600 Off ch=3 n=69 v=64
57600 On ch=3 n=71 v=119
58080 Off ch=3 n=71 v=64
58080 On ch=3 n=74 v=119
58560 Off ch=3 n=74 v=64
58560 On ch=3 n=73 v=119
59040 Off ch=3 n=73 v=64
59040 On ch=3 n=69 v=119
60000 Off ch=3 n=69 v=64
60000 On ch=3 n=69 v=119
60240 Off ch=3 n=69 v=64
60240 On ch=3 n=74 v=119
60480 Off ch=3 n=74 v=64
60480 On ch=3 n=71 v=119
60960 Off ch=3 n=71 v=64
60960 On ch=3 n=65 v=119
61200 Off ch=3 n=65 v=64
61200 On ch=3 n=71 v=119
61440 Off ch=3 n=71 v=64
61440 On ch=3 n=71 v=119
61920 Off ch=3 n=71 v=64
61920 On ch=3 n=74 v=119
62400 Off ch=3 n=74 v=64
62400 On ch=3 n=69 v=119
62880 Off ch=3 n=69 v=64
62880 On ch=3 n=74 v=119
63360 Off ch=3 n=74 v=64
63360 On ch=3 n=74 v=104
63360 On ch=3 n=69 v=104
63360 On ch=3 n=89 v=104
63360 On ch=3 n=88 v=104
63360 Par ch=3 c=10 v=74
63370 On ch=3 n=84 v=104
63382 On ch=3 n=83 v=104
63440 Off ch=3 n=89 v=64
63470 Off ch=3 n=88 v=64
63470 On ch=3 n=79 v=104
63480 Off ch=3 n=69 v=64
63480 Off ch=3 n=74 v=64
63490 Off ch=3 n=84 v=64
63490 On ch=3 n=77 v=104
63502 Off ch=3 n=83 v=64
63590 Off ch=3 n=79 v=64
63610 On ch=3 n=79 v=104
63630 Off ch=3 n=77 v=64
63652 On ch=3 n=81 v=104
63672 On ch=3 n=83 v=104
63692 Off ch=3 n=79 v=64
63702 On ch=3 n=84 v=104
63730 On ch=3 n=86 v=104
63772 Off ch=3 n=81 v=64
63772 On ch=3 n=88 v=104
63782 On ch=3 n=89 v=104
63792 Off ch=3 n=83 v=64
63810 On ch=3 n=91 v=104
63822 Off ch=3 n=84 v=64
63840 On ch=3 n=93 v=104
63850 Off ch=3 n=86 v=64
63870 On ch=3 n=95 v=104
63872 Off ch=3 n=91 v=64
63872 On ch=3 n=91 v=104
63890 Off ch=3 n=93 v=64
63890 On ch=3 n=93 v=104
63892 Off ch=3 n=88 v=64
63902 Off ch=3 n=89 v=64
63922 On ch=3 n=99 v=104
63970 On ch=3 n=100 v=104
63990 Off ch=3 n=95 v=64
63990 Off ch=3 n=91 v=64
63992 On ch=3 n=95 v=104
64010 Off ch=3 n=93 v=64
64012 On ch=3 n=98 v=104
64042 Off ch=3 n=99 v=64
64132 Off ch=3 n=98 v=64
65142 On ch=3 n=93 v=104
65182 Off ch=3 n=95 v=64
65292 On ch=3 n=94 v=104
65300 On ch=3 n=98 v=104
65350 On ch=3 n=95 v=104
65412 Off ch=3 n=94 v=64
65682 Off ch=3 n=95 v=64
65702 Off ch=3 n=98 v=64
65760 On ch=3 n=98 v=104
65790 On ch=3 n=94 v=104
65852 On ch=3 n=95 v=104
65910 Off ch=3 n=94 v=64
66172 Off ch=3 n=95 v=64
66222 Off ch=3 n=93 v=64
66272 On ch=3 n=94 v=104
66292 On ch=3 n=95 v=104
66512 Off ch=3 n=94 v=64
66662 Off ch=3 n=100 v=64
66670 Off ch=3 n=98 v=64
66682 Off ch=3 n=95 v=64
66750 On ch=3 n=95 v=104
66750 On ch=3 n=100 v=104
66810 On ch=3 n=97 v=104
67050 Off ch=3 n=97 v=64
67182 Off ch=3 n=100 v=64
70920 Off ch=3 n=95 v=64
71052 On ch=3 n=81 v=94
71070 On ch=3 n=84 v=94
71100 On ch=3 n=88 v=94
71130 On ch=3 n=91 v=94
71440 Off ch=3 n=84 v=64
71450 Off ch=3 n=81 v=64
71492 Off ch=3 n=88 v=64
71530 Off ch=3 n=91 v=64
71552 On ch=3 n=81 v=94
71580 On ch=3 n=84 v=94
71610 On ch=3 n=91 v=94
71610 On ch=3 n=88 v=94
71730 Off ch=3 n=81 v=64
71802 On ch=3 n=81 v=94
71822 Off ch=3 n=84 v=64
71890 Off ch=3 n=88 v=64
71912 Off ch=3 n=81 v=64
71992 Off ch=3 n=91 v=64
72010 On ch=3 n=83 v=94
72030 On ch=3 n=86 v=94
72060 On ch=3 n=90 v=94
72090 On ch=3 n=93 v=94
72172 Off ch=3 n=86 v=64
72190 Off ch=3 n=83 v=64
72220 Off ch=3 n=90 v=64
72272 Off ch=3 n=93 v=64
72272 On ch=3 n=83 v=94
72330 On ch=3 n=93 v=94
72330 On ch=3 n=90 v=94
72330 On ch=3 n=86 v=94
72690 Off ch=3 n=83 v=64
72750 On ch=3 n=83 v=94
72880 Off ch=3 n=86 v=64
72910 Off ch=3 n=90 v=64
72930 Off ch=3 n=93 v=64
72932 Off ch=3 n=83 v=64
72960 On ch=3 n=91 v=94
72990 On ch=3 n=88 v=94
73020 On ch=3 n=81 v=94
73020 On ch=3 n=84 v=94
73122 Off ch=3 n=88 v=64
73140 Off ch=3 n=84 v=64
73142 Off ch=3 n=91 v=64
73160 Off ch=3 n=81 v=64
73230 On ch=3 n=81 v=94
73232 On ch=3 n=88 v=94
73290 On ch=3 n=91 v=94
73320 On ch=3 n=84 v=94
73430 Off ch=3 n=81 v=64
73512 On ch=3 n=81 v=94
73540 Off ch=3 n=88 v=64
73600 Off ch=3 n=84 v=64
73612 Off ch=3 n=81 v=64
73670 Off ch=3 n=91 v=64
73680 On ch=3 n=90 v=94
73720 On ch=3 n=83 v=94
73742 On ch=3 n=86 v=94
73830 On ch=3 n=93 v=94
74272 Off ch=3 n=83 v=64
74340 Off ch=3 n=90 v=64
74372 Off ch=3 n=86 v=64
74412 On ch=3 n=83 v=94
74490 Off ch=3 n=93 v=64
74522 On ch=3 n=86 v=94
74590 On ch=3 n=90 v=94
74622 Off ch=3 n=83 v=64
74682 Off ch=3 n=86 v=64
74710 On ch=3 n=93 v=94
74782 Off ch=3 n=90 v=64
74842 Off ch=3 n=93 v=64
74892 On ch=3 n=91 v=94
74940 On ch=3 n=88 v=94
74970 On ch=3 n=84 v=94
75030 On ch=3 n=81 v=94
75230 Off ch=3 n=88 v=64
75240 Off ch=3 n=91 v=64
75290 Off ch=3 n=84 v=64
75350 Off ch=3 n=81 v=64
75380 On ch=3 n=81 v=94
75392 On ch=3 n=91 v=94
75480 On ch=3 n=88 v=94
75540 On ch=3 n=84 v=94
75562 Off ch=3 n=81 v=64
75630 On ch=3 n=81 v=94
75722 Off ch=3 n=81 v=64
75730 Off ch=3 n=91 v=64
75782 Off ch=3 n=84 v=64
75840 Off ch=3 n=88 v=64
75860 On ch=3 n=93 v=94
75900 On ch=3 n=90 v=94
75900 On ch=3 n=86 v=94
75960 On ch=3 n=83 v=94
75992 Off ch=3 n=93 v=64
76020 Off ch=3 n=86 v=64
76032 Off ch=3 n=90 v=64
76072 Off ch=3 n=83 v=64
76110 On ch=3 n=93 v=94
76170 On ch=3 n=86 v=94
76170 On ch=3 n=90 v=94
76230 On ch=3 n=83 v=94
76760 Off ch=3 n=86 v=64
76762 Off ch=3 n=93 v=64
76790 Off ch=3 n=90 v=64
76830 On ch=3 n=88 v=94
76832 On ch=3 n=91 v=94
76890 Off ch=3 n=83 v=64
76890 On ch=3 n=84 v=94
76932 Off ch=3 n=88 v=64
76950 Off ch=3 n=91 v=64
76950 On ch=3 n=81 v=94
77010 Off ch=3 n=84 v=64
77070 Off ch=3 n=81 v=64
77070 On ch=3 n=91 v=94
77100 On ch=3 n=88 v=94
77160 On ch=3 n=81 v=94
77160 On ch=3 n=84 v=94
77322 Off ch=3 n=88 v=64
77322 Off ch=3 n=91 v=64
77360 Off ch=3 n=84 v=64
77380 Off ch=3 n=81 v=64
77572 On ch=3 n=93 v=94
77610 On ch=3 n=90 v=94
77640 On ch=3 n=86 v=94
77670 On ch=3 n=83 v=94
78502 Off ch=3 n=90 v=64
78562 Off ch=3 n=93 v=64
78720 Off ch=3 n=86 v=64
78720 On ch=3 n=91 v=94
78742 On ch=3 n=84 v=94
78750 On ch=3 n=88 v=94
78780 On ch=3 n=81 v=94
78822 Off ch=3 n=83 v=64
78862 Off ch=3 n=84 v=64
78882 Off ch=3 n=88 v=64
78902 Off ch=3 n=91 v=64
78920 Off ch=3 n=81 v=64
78990 On ch=3 n=81 v=94
79000 On ch=3 n=91 v=94
79050 On ch=3 n=88 v=94
79080 On ch=3 n=84 v=94
79190 Off ch=3 n=81 v=64
79272 On ch=3 n=81 v=94
79372 Off ch=3 n=81 v=64
79380 Off ch=3 n=91 v=64
79410 Off ch=3 n=88 v=64
79440 Off ch=3 n=84 v=64
79482 On ch=3 n=90 v=94
79482 On ch=3 n=93 v=94
79502 On ch=3 n=86 v=94
79620 On ch=3 n=83 v=94
80132 Off ch=3 n=86 v=64
80142 Off ch=3 n=93 v=64
80142 Off ch=3 n=90 v=64
80172 Off ch=3 n=83 v=64
80172 On ch=3 n=83 v=94
80282 On ch=3 n=86 v=94
80350 On ch=3 n=90 v=94
80382 Off ch=3 n=83 v=64
80442 Off ch=3 n=86 v=64
80470 On ch=3 n=93 v=94
80542 Off ch=3 n=90 v=64
80602 Off ch=3 n=93 v=64
80652 On ch=3 n=91 v=94
80680 On ch=3 n=88 v=94
80730 On ch=3 n=84 v=94
80790 On ch=3 n=81 v=94
80970 Off ch=3 n=88 v=64
81000 Off ch=3 n=91 v=64
81050 Off ch=3 n=84 v=64
81110 Off ch=3 n=81 v=64
81152 On ch=3 n=91 v=94
81180 On ch=3 n=81 v=94
81240 On ch=3 n=88 v=94
81300 On ch=3 n=84 v=94
81362 Off ch=3 n=81 v=64
81390 On ch=3 n=81 v=94
81482 Off ch=3 n=81 v=64
81490 Off ch=3 n=91 v=64
81542 Off ch=3 n=84 v=64
81600 Off ch=3 n=88 v=64
81620 On ch=3 n=93 v=94
81630 On ch=3 n=90 v=94
81690 On ch=3 n=86 v=94
81720 On ch=3 n=83 v=94
81752 Off ch=3 n=93 v=64
81762 Off ch=3 n=90 v=64
81810 Off ch=3 n=86 v=64
81832 Off ch=3 n=83 v=64
81870 On ch=3 n=93 v=94
81900 On ch=3 n=90 v=94
81930 On ch=3 n=86 v=94
81960 On ch=3 n=83 v=94
82520 Off ch=3 n=86 v=64
82520 Off ch=3 n=90 v=64
82522 Off ch=3 n=93 v=64
82592 On ch=3 n=91 v=94
82620 Off ch=3 n=83 v=64
82650 On ch=3 n=88 v=94
82650 On ch=3 n=81 v=94
82680 On ch=3 n=84 v=94
82712 Off ch=3 n=91 v=64
82770 Off ch=3 n=88 v=64
82770 Off ch=3 n=81 v=64
82800 Off ch=3 n=84 v=64
82830 On ch=3 n=91 v=94
82890 On ch=3 n=88 v=94
82950 On ch=3 n=84 v=94
83010 On ch=3 n=81 v=94
83082 Off ch=3 n=91 v=64
83112 Off ch=3 n=88 v=64
83150 Off ch=3 n=84 v=64
83230 Off ch=3 n=81 v=64
83250 On ch=3 n=93 v=94
83340 On ch=3 n=86 v=94
83340 On ch=3 n=90 v=94
83370 On ch=3 n=83 v=94
84232 Off ch=3 n=90 v=64
84240 Off ch=3 n=93 v=64
84420 Off ch=3 n=86 v=64
84480 On ch=3 n=91 v=94
84510 On ch=3 n=88 v=94
84522 Off ch=3 n=83 v=64
84570 On ch=3 n=84 v=94
84600 On ch=3 n=81 v=94
84642 Off ch=3 n=88 v=64
84662 Off ch=3 n=91 v=64
84690 Off ch=3 n=84 v=64
84720 On ch=3 n=91 v=94
84740 Off ch=3 n=81 v=64
84780 On ch=3 n=88 v=94
84840 On ch=3 n=84 v=94
84870 On ch=3 n=81 v=94
85032 Off ch=3 n=81 v=64
85032 On ch=3 n=81 v=94
85082 Off ch=3 n=88 v=64
85100 Off ch=3 n=91 v=64
85120 Off ch=3 n=84 v=64
85132 Off ch=3 n=81 v=64
85170 On ch=3 n=93 v=94
85242 On ch=3 n=90 v=94
85262 On ch=3 n=86 v=94
85380 On ch=3 n=83 v=94
85830 Off ch=3 n=93 v=64
85892 Off ch=3 n=86 v=64
85902 Off ch=3 n=90 v=64
85932 Off ch=3 n=83 v=64
85932 On ch=3 n=83 v=94
86042 On ch=3 n=86 v=94
86110 On ch=3 n=90 v=94
86142 Off ch=3 n=83 v=64
86202 Off ch=3 n=86 v=64
86230 On ch=3 n=93 v=94
86302 Off ch=3 n=90 v=64
86362 Off ch=3 n=93 v=64
86412 On ch=3 n=81 v=94
86430 On ch=3 n=84 v=94
86460 On ch=3 n=88 v=94
86490 On ch=3 n=91 v=94
86800 Off ch=3 n=84 v=64
86810 Off ch=3 n=81 v=64
86852 Off ch=3 n=88 v=64
86890 Off ch=3 n=91 v=64
86912 On ch=3 n=81 v=94
86940 On ch=3 n=84 v=94
86970 On ch=3 n=91 v=94
86970 On ch=3 n=88 v=94
87090 Off ch=3 n=81 v=64
87162 On ch=3 n=81 v=94
87182 Off ch=3 n=84 v=64
87250 Off ch=3 n=88 v=64
87272 Off ch=3 n=81 v=64
87352 Off ch=3 n=91 v=64
87370 On ch=3 n=83 v=94
87390 On ch=3 n=86 v=94
87420 On ch=3 n=90 v=94
87450 On ch=3 n=93 v=94
87532 Off ch=3 n=86 v=64
87550 Off ch=3 n=83 v=64
87580 Off ch=3 n=90 v=64
87632 Off ch=3 n=93 v=64
87632 On ch=3 n=83 v=94
87690 On ch=3 n=93 v=94
87690 On ch=3 n=90 v=94
87690 On ch=3 n=86 v=94
88050 Off ch=3 n=83 v=64
88110 On ch=3 n=83 v=94
88240 Off ch=3 n=86 v=64
88270 Off ch=3 n=90 v=64
88290 Off ch=3 n=93 v=64
88292 Off ch=3 n=83 v=64
88320 On ch=3 n=91 v=94
88350 On ch=3 n=88 v=94
88380 On ch=3 n=81 v=94
88380 On ch=3 n=84 v=94
88482 Off ch=3 n=88 v=64
88500 Off ch=3 n=84 v=64
88502 Off ch=3 n=91 v=64
88520 Off ch=3 n=81 v=64
88590 On ch=3 n=81 v=94
88592 On ch=3 n=88 v=94
88650 On ch=3 n=91 v=94
88680 On ch=3 n=84 v=94
88790 Off ch=3 n=81 v=64
88872 On ch=3 n=81 v=94
88900 Off ch=3 n=88 v=64
88960 Off ch=3 n=84 v=64
88972 Off ch=3 n=81 v=64
89030 Off ch=3 n=91 v=64
89040 On ch=3 n=90 v=94
89080 On ch=3 n=83 v=94
89102 On ch=3 n=86 v=94
89190 On ch=3 n=93 v=94
89632 Off ch=3 n=83 v=64
89700 Off ch=3 n=90 v=64
89732 Off ch=3 n=86 v=64
89772 On ch=3 n=83 v=94
89850 Off ch=3 n=93 v=64
89882 On ch=3 n=86 v=94
89950 On ch=3 n=90 v=94
89982 Off ch=3 n=83 v=64
90042 Off ch=3 n=86 v=64
90070 On ch=3 n=93 v=94
90142 Off ch=3 n=90 v=64
90202 Off ch=3 n=93 v=64
90252 On ch=3 n=91 v=94
90300 On ch=3 n=88 v=94
90330 On ch=3 n=84 v=94
90390 On ch=3 n=81 v=94
90590 Off ch=3 n=88 v=64
90600 Off ch=3 n=91 v=64
90650 Off ch=3 n=84 v=64
90710 Off ch=3 n=81 v=64
90740 On ch=3 n=81 v=94
90752 On ch=3 n=91 v=94
90840 On ch=3 n=88 v=94
90900 On ch=3 n=84 v=94
90922 Off ch=3 n=81 v=64
90990 On ch=3 n=81 v=94
91082 Off ch=3 n=81 v=64
91090 Off ch=3 n=91 v=64
91142 Off ch=3 n=84 v=64
91200 Off ch=3 n=88 v=64
91220 On ch=3 n=93 v=94
91260 On ch=3 n=90 v=94
91260 On ch=3 n=86 v=94
91320 On ch=3 n=83 v=94
91352 Off ch=3 n=93 v=64
91380 Off ch=3 n=86 v=64
91392 Off ch=3 n=90 v=64
91432 Off ch=3 n=83 v=64
91470 On ch=3 n=93 v=94
91530 On ch=3 n=86 v=94
91530 On ch=3 n=90 v=94
91590 On ch=3 n=83 v=94
92120 Off ch=3 n=86 v=64
92122 Off ch=3 n=93 v=64
92150 Off ch=3 n=90 v=64
92190 On ch=3 n=88 v=94
92192 On ch=3 n=91 v=94
92250 Off ch=3 n=83 v=64
92250 On ch=3 n=84 v=94
92292 Off ch=3 n=88 v=64
92310 Off ch=3 n=91 v=64
92310 On ch=3 n=81 v=94
92370 Off ch=3 n=84 v=64
92430 Off ch=3 n=81 v=64
92430 On ch=3 n=91 v=94
92460 On ch=3 n=88 v=94
92520 On ch=3 n=81 v=94
92520 On ch=3 n=84 v=94
92682 Off ch=3 n=88 v=64
92682 Off ch=3 n=91 v=64
92720 Off ch=3 n=84 v=64
92740 Off ch=3 n=81 v=64
92932 On ch=3 n=93 v=94
92970 On ch=3 n=90 v=94
93000 On ch=3 n=86 v=94
93030 On ch=3 n=83 v=94
93862 Off ch=3 n=90 v=64
93922 Off ch=3 n=93 v=64
94080 Off ch=3 n=86 v=64
94080 On ch=3 n=91 v=94
94102 On ch=3 n=84 v=94
94110 On ch=3 n=88 v=94
94140 On ch=3 n=81 v=94
94182 Off ch=3 n=83 v=64
94222 Off ch=3 n=84 v=64
94242 Off ch=3 n=88 v=64
94262 Off ch=3 n=91 v=64
94280 Off ch=3 n=81 v=64
94350 On ch=3 n=81 v=94
94360 On ch=3 n=91 v=94
94410 On ch=3 n=88 v=94
94440 On ch=3 n=84 v=94
94550 Off ch=3 n=81 v=64
94632 On ch=3 n=81 v=94
94732 Off ch=3 n=81 v=64
94740 Off ch=3 n=91 v=64
94770 Off ch=3 n=88 v=64
94800 Off ch=3 n=84 v=64
94842 On ch=3 n=90 v=94
94842 On ch=3 n=93 v=94
94862 On ch=3 n=86 v=94
94980 On ch=3 n=83 v=94
95492 Off ch=3 n=86 v=64
95502 Off ch=3 n=93 v=64
95502 Off ch=3 n=90 v=64
95532 Off ch=3 n=83 v=64
95532 On ch=3 n=83 v=94
95642 On ch=3 n=86 v=94
95710 On ch=3 n=90 v=94
95742 Off ch=3 n=83 v=64
95802 Off ch=3 n=86 v=64
95830 On ch=3 n=93 v=94
95902 Off ch=3 n=90 v=64
95962 Off ch=3 n=93 v=64
96012 On ch=3 n=91 v=94
96040 On ch=3 n=88 v=94
96090 On ch=3 n=84 v=94
96150 On ch=3 n=81 v=94
96330 Off ch=3 n=88 v=64
96360 Off ch=3 n=91 v=64
96410 Off ch=3 n=84 v=64
96470 Off ch=3 n=81 v=64
96512 On ch=3 n=91 v=94
96540 On ch=3 n=81 v=94
96600 On ch=3 n=88 v=94
96660 On ch=3 n=84 v=94
96722 Off ch=3 n=81 v=64
96750 On ch=3 n=81 v=94
96842 Off ch=3 n=81 v=64
96850 Off ch=3 n=91 v=64
96902 Off ch=3 n=84 v=64
96960 Off ch=3 n=88 v=64
96980 On ch=3 n=93 v=94
96990 On ch=3 n=90 v=94
97050 On ch=3 n=86 v=94
97080 On ch=3 n=83 v=94
97112 Off ch=3 n=93 v=64
97122 Off ch=3 n=90 v=64
97170 Off ch=3 n=86 v=64
97192 Off ch=3 n=83 v=64
97230 On ch=3 n=93 v=94
97260 On ch=3 n=90 v=94
97290 On ch=3 n=86 v=94
97320 On ch=3 n=83 v=94
97880 Off ch=3 n=86 v=64
97880 Off ch=3 n=90 v=64
97882 Off ch=3 n=93 v=64
97952 On ch=3 n=91 v=94
97980 Off ch=3 n=83 v=64
98010 On ch=3 n=88 v=94
98010 On ch=3 n=81 v=94
98040 On ch=3 n=84 v=94
98072 Off ch=3 n=91 v=64
98130 Off ch=3 n=88 v=64
98130 Off ch=3 n=81 v=64
98160 Off ch=3 n=84 v=64
98190 On ch=3 n=91 v=94
98250 On ch=3 n=88 v=94
98310 On ch=3 n=84 v=94
98370 On ch=3 n=81 v=94
98442 Off ch=3 n=91 v=64
98472 Off ch=3 n=88 v=64
98510 Off ch=3 n=84 v=64
98590 Off ch=3 n=81 v=64
98610 On ch=3 n=93 v=94
98700 On ch=3 n=86 v=94
98700 On ch=3 n=90 v=94
98730 On ch=3 n=83 v=94
99592 Off ch=3 n=90 v=64
99600 Off ch=3 n=93 v=64
99780 Off ch=3 n=86 v=64
99840 On ch=3 n=91 v=94
99870 On ch=3 n=88 v=94
99882 Off ch=3 n=83 v=64
99930 On ch=3 n=84 v=94
99960 On ch=3 n=81 v=94
100002 Off ch=3 n=88 v=64
100022 Off ch=3 n=91 v=64
100050 Off ch=3 n=84 v=64
100080 On ch=3 n=91 v=94
100100 Off ch=3 n=81 v=64
100140 On ch=3 n=88 v=94
100200 On ch=3 n=84 v=94
100230 On ch=3 n=81 v=94
100392 Off ch=3 n=81 v=64
100392 On ch=3 n=81 v=94
100442 Off ch=3 n=88 v=64
100460 Off ch=3 n=91 v=64
100480 Off ch=3 n=84 v=64
100492 Off ch=3 n=81 v=64
100530 On ch=3 n=93 v=94
100602 On ch=3 n=90 v=94
100622 On ch=3 n=86 v=94
100740 On ch=3 n=83 v=94
101190 Off ch=3 n=93 v=64
101252 Off ch=3 n=86 v=64
101262 Off ch=3 n=90 v=64
101292 Off ch=3 n=83 v=64
101292 On ch=3 n=83 v=94
101402 On ch=3 n=86 v=94
101470 On ch=3 n=90 v=94
101502 Off ch=3 n=83 v=64
101562 Off ch=3 n=86 v=64
101590 On ch=3 n=93 v=94
101662 Off ch=3 n=90 v=64
101722 Off ch=3 n=93 v=64
101772 On ch=3 n=81 v=94
101790 On ch=3 n=84 v=94
101820 On ch=3 n=88 v=94
101850 On ch=3 n=91 v=94
102160 Off ch=3 n=84 v=64
102170 Off ch=3 n=81 v=64
102212 Off ch=3 n=88 v=64
102250 Off ch=3 n=91 v=64
102272 On ch=3 n=81 v=94
102300 On ch=3 n=84 v=94
102330 On ch=3 n=91 v=94
102330 On ch=3 n=88 v=94
102450 Off ch=3 n=81 v=64
102522 On ch=3 n=81 v=94
102542 Off ch=3 n=84 v=64
102610 Off ch=3 n=88 v=64
102632 Off ch=3 n=81 v=64
102712 Off ch=3 n=91 v=64
102730 On ch=3 n=83 v=94
102750 On ch=3 n=86 v=94
102780 On ch=3 n=90 v=94
102810 On ch=3 n=93 v=94
102892 Off ch=3 n=86 v=64
102910 Off ch=3 n=83 v=64
102940 Off ch=3 n=90 v=64
102992 Off ch=3 n=93 v=64
102992 On ch=3 n=83 v=94
103050 On ch=3 n=93 v=94
103050 On ch=3 n=90 v=94
103050 On ch=3 n=86 v=94
103410 Off ch=3 n=83 v=64
103470 On ch=3 n=83 v=94
103600 Off ch=3 n=86 v=64
103630 Off ch=3 n=90 v=64
103650 Off ch=3 n=93 v=64
103652 Off ch=3 n=83 v=64
103680 On ch=3 n=91 v=94
103710 On ch=3 n=88 v=94
103740 On ch=3 n=81 v=94
103740 On ch=3 n=84 v=94
103842 Off ch=3 n=88 v=64
103860 Off ch=3 n=84 v=64
103862 Off ch=3 n=91 v=64
103880 Off ch=3 n=81 v=64
103950 On ch=3 n=81 v=94
103952 On ch=3 n=88 v=94
104010 On ch=3 n=91 v=94
104040 On ch=3 n=84 v=94
104150 Off ch=3 n=81 v=64
104232 On ch=3 n=81 v=94
104260 Off ch=3 n=88 v=64
104320 Off ch=3 n=84 v=64
104332 Off ch=3 n=81 v=64
104390 Off ch=3 n=91 v=64
104400 On ch=3 n=90 v=94
104440 On ch=3 n=83 v=94
104462 On ch=3 n=86 v=94
104550 On ch=3 n=93 v=94
104992 Off ch=3 n=83 v=64
105060 Off ch=3 n=90 v=64
105092 Off ch=3 n=86 v=64
105132 On ch=3 n=83 v=94
105210 Off ch=3 n=93 v=64
105242 On ch=3 n=86 v=94
105310 On ch=3 n=90 v=94
105342 Off ch=3 n=83 v=64
105402 Off ch=3 n=86 v=64
105430 On ch=3 n=93 v=94
105502 Off ch=3 n=90 v=64
105562 Off ch=3 n=93 v=64
105612 On ch=3 n=91 v=94
105660 On ch=3 n=88 v=94
105690 On ch=3 n=84 v=94
105750 On ch=3 n=81 v=94
105950 Off ch=3 n=88 v=64
105960 Off ch=3 n=91 v=64
106010 Off ch=3 n=84 v=64
106070 Off ch=3 n=81 v=64
106100 On ch=3 n=81 v=94
106112 On ch=3 n=91 v=94
106200 On ch=3 n=88 v=94
106260 On ch=3 n=84 v=94
106282 Off ch=3 n=81 v=64
106350 On ch=3 n=81 v=94
106442 Off ch=3 n=81 v=64
106450 Off ch=3 n=91 v=64
106502 Off ch=3 n=84 v=64
106560 Off ch=3 n=88 v=64
106580 On ch=3 n=93 v=94
106620 On ch=3 n=90 v=94
106620 On ch=3 n=86 v=94
106680 On ch=3 n=83 v=94
106712 Off ch=3 n=93 v=64
106740 Off ch=3 n=86 v=64
106752 Off ch=3 n=90 v=64
106792 Off ch=3 n=83 v=64
106830 On ch=3 n=93 v=94
106890 On ch=3 n=86 v=94
106890 On ch=3 n=90 v=94
106950 On ch=3 n=83 v=94
107480 Off ch=3 n=86 v=64
107482 Off ch=3 n=93 v=64
107510 Off ch=3 n=90 v=64
107550 On ch=3 n=88 v=94
107552 On ch=3 n=91 v=94
107610 Off ch=3 n=83 v=64
107610 On ch=3 n=84 v=94
107652 Off ch=3 n=88 v=64
107670 Off ch=3 n=91 v=64
107670 On ch=3 n=81 v=94
107730 Off ch=3 n=84 v=64
107790 Off ch=3 n=81 v=64
107790 On ch=3 n=91 v=94
107820 On ch=3 n=88 v=94
107880 On ch=3 n=81 v=94
107880 On ch=3 n=84 v=94
108042 Off ch=3 n=88 v=64
108042 Off ch=3 n=91 v=64
108080 Off ch=3 n=84 v=64
108100 Off ch=3 n=81 v=64
108292 On ch=3 n=93 v=94
108330 On ch=3 n=90 v=94
108360 On ch=3 n=86 v=94
108390 On ch=3 n=83 v=94
109222 Off ch=3 n=90 v=64
109282 Off ch=3 n=93 v=64
109440 Off ch=3 n=86 v=64
109440 On ch=3 n=91 v=94
109462 On ch=3 n=84 v=94
109470 On ch=3 n=88 v=94
109500 On ch=3 n=81 v=94
109542 Off ch=3 n=83 v=64
109582 Off ch=3 n=84 v=64
109602 Off ch=3 n=88 v=64
109622 Off ch=3 n=91 v=64
109640 Off ch=3 n=81 v=64
109710 On ch=3 n=81 v=94
109720 On ch=3 n=91 v=94
109770 On ch=3 n=88 v=94
109800 On ch=3 n=84 v=94
109910 Off ch=3 n=81 v=64
109992 On ch=3 n=81 v=94
110092 Off ch=3 n=81 v=64
110100 Off ch=3 n=91 v=64
110130 Off ch=3 n=88 v=64
110160 Off ch=3 n=84 v=64
110202 On ch=3 n=90 v=94
110202 On ch=3 n=93 v=94
110222 On ch=3 n=86 v=94
110340 On ch=3 n=83 v=94
110852 Off ch=3 n=86 v=64
110862 Off ch=3 n=93 v=64
110862 Off ch=3 n=90 v=64
110892 Off ch=3 n=83 v=64
110892 On ch=3 n=83 v=94
111002 On ch=3 n=86 v=94
111070 On ch=3 n=90 v=94
111102 Off ch=3 n=83 v=64
111162 Off ch=3 n=86 v=64
111190 On ch=3 n=93 v=94
111262 Off ch=3 n=90 v=64
111322 Off ch=3 n=93 v=64
111372 On ch=3 n=91 v=94
111400 On ch=3 n=88 v=94
111450 On ch=3 n=84 v=94
111510 On ch=3 n=81 v=94
111690 Off ch=3 n=88 v=64
111720 Off ch=3 n=91 v=64
111770 Off ch=3 n=84 v=64
111830 Off ch=3 n=81 v=64
111872 On ch=3 n=91 v=94
111900 On ch=3 n=81 v=94
111960 On ch=3 n=88 v=94
112020 On ch=3 n=84 v=94
112082 Off ch=3 n=81 v=64
112110 On ch=3 n=81 v=94
112202 Off ch=3 n=81 v=64
112210 Off ch=3 n=91 v=64
112262 Off ch=3 n=84 v=64
112320 Off ch=3 n=88 v=64
112340 On ch=3 n=93 v=94
112350 On ch=3 n=90 v=94
112410 On ch=3 n=86 v=94
112440 On ch=3 n=83 v=94
112472 Off ch=3 n=93 v=64
112482 Off ch=3 n=90 v=64
112530 Off ch=3 n=86 v=64
112552 Off ch=3 n=83 v=64
112590 On ch=3 n=93 v=94
112620 On ch=3 n=90 v=94
112650 On ch=3 n=86 v=94
112680 On ch=3 n=83 v=94
113240 Off ch=3 n=86 v=64
113240 Off ch=3 n=90 v=64
113242 Off ch=3 n=93 v=64
113312 On ch=3 n=91 v=94
113340 Off ch=3 n=83 v=64
113370 On ch=3 n=88 v=94
113370 On ch=3 n=81 v=94
113400 On ch=3 n=84 v=94
113432 Off ch=3 n=91 v=64
113490 Off ch=3 n=88 v=64
113490 Off ch=3 n=81 v=64
113520 Off ch=3 n=84 v=64
113550 On ch=3 n=91 v=94
113610 On ch=3 n=88 v=94
113670 On ch=3 n=84 v=94
113730 On ch=3 n=81 v=94
113802 Off ch=3 n=91 v=64
113832 Off ch=3 n=88 v=64
113870 Off ch=3 n=84 v=64
113950 Off ch=3 n=81 v=64
113970 On ch=3 n=93 v=94
114060 On ch=3 n=86 v=94
114060 On ch=3 n=90 v=94
114090 On ch=3 n=83 v=94
114952 Off ch=3 n=90 v=64
114960 Off ch=3 n=93 v=64
115140 Off ch=3 n=86 v=64
115200 On ch=3 n=91 v=94
115230 On ch=3 n=88 v=94
115242 Off ch=3 n=83 v=64
115290 On ch=3 n=84 v=94
115320 On ch=3 n=81 v=94
115362 Off ch=3 n=88 v=64
115382 Off ch=3 n=91 v=64
115410 Off ch=3 n=84 v=64
115440 On ch=3 n=91 v=94
115460 Off ch=3 n=81 v=64
115500 On ch=3 n=88 v=94
115560 On ch=3 n=84 v=94
115590 On ch=3 n=81 v=94
115752 Off ch=3 n=81 v=64
115752 On ch=3 n=81 v=94
115802 Off ch=3 n=88 v=64
115820 Off ch=3 n=91 v=64
115840 Off ch=3 n=84 v=64
115852 Off ch=3 n=81 v=64
115890 On ch=3 n=93 v=94
115962 On ch=3 n=90 v=94
115982 On ch=3 n=86 v=94
116100 On ch=3 n=83 v=94
116550 Off ch=3 n=93 v=64
116612 Off ch=3 n=86 v=64
116622 Off ch=3 n=90 v=64
116652 Off ch=3 n=83 v=64
116652 On ch=3 n=83 v=94
116762 On ch=3 n=86 v=94
116830 On ch=3 n=90 v=94
116862 Off ch=3 n=83 v=64
116922 Off ch=3 n=86 v=64
116950 On ch=3 n=93 v=94
117022 Off ch=3 n=90 v=64
117082 Off ch=3 n=93 v=64
117132 On ch=3 n=81 v=94
117150 On ch=3 n=84 v=94
117180 On ch=3 n=88 v=94
117210 On ch=3 n=91 v=94
117520 Off ch=3 n=84 v=64
117530 Off ch=3 n=81 v=64
117572 Off ch=3 n=88 v=64
117610 Off ch=3 n=91 v=64
117632 On ch=3 n=81 v=94
117660 On ch=3 n=84 v=94
117690 On ch=3 n=91 v=94
117690 On ch=3 n=88 v=94
117810 Off ch=3 n=81 v=64
117882 On ch=3 n=81 v=94
117902 Off ch=3 n=84 v=64
117970 Off ch=3 n=88 v=64
117992 Off ch=3 n=81 v=64
118072 Off ch=3 n=91 v=64
118090 On ch=3 n=83 v=94
118110 On ch=3 n=86 v=94
118140 On ch=3 n=90 v=94
118170 On ch=3 n=93 v=94
118252 Off ch=3 n=86 v=64
118270 Off ch=3 n=83 v=64
118300 Off ch=3 n=90 v=64
118352 Off ch=3 n=93 v=64
118352 On ch=3 n=83 v=94
118410 On ch=3 n=93 v=94
118410 On ch=3 n=90 v=94
118410 On ch=3 n=86 v=94
118770 Off ch=3 n=83 v=64
118830 On ch=3 n=83 v=94
118960 Off ch=3 n=86 v=64
118990 Off ch=3 n=90 v=64
119010 Off ch=3 n=93 v=64
119012 Off ch=3 n=83 v=64
119040 On ch=3 n=91 v=94
119070 On ch=3 n=88 v=94
119100 On ch=3 n=81 v=94
119100 On ch=3 n=84 v=94
119202 Off ch=3 n=88 v=64
119220 Off ch=3 n=84 v=64
119222 Off ch=3 n=91 v=64
119240 Off ch=3 n=81 v=64
119310 On ch=3 n=81 v=94
119312 On ch=3 n=88 v=94
119370 On ch=3 n=91 v=94
119400 On ch=3 n=84 v=94
119510 Off ch=3 n=81 v=64
119592 On ch=3 n=81 v=94
119620 Off ch=3 n=88 v=64
119680 Off ch=3 n=84 v=64
119692 Off ch=3 n=81 v=64
119750 Off ch=3 n=91 v=64
119760 On ch=3 n=90 v=94
119800 On ch=3 n=83 v=94
119822 On ch=3 n=86 v=94
119910 On ch=3 n=93 v=94
120352 Off ch=3 n=83 v=64
120420 Off ch=3 n=90 v=64
120452 Off ch=3 n=86 v=64
120492 On ch=3 n=83 v=94
120570 Off ch=3 n=93 v=64
120602 On ch=3 n=86 v=94
120670 On ch=3 n=90 v=94
120702 Off ch=3 n=83 v=64
120762 Off ch=3 n=86 v=64
120790 On ch=3 n=93 v=94
120862 Off ch=3 n=90 v=64
120922 Off ch=3 n=93 v=64
120972 On ch=3 n=91 v=94
121020 On ch=3 n=88 v=94
121050 On ch=3 n=84 v=94
121110 On ch=3 n=81 v=94
121310 Off ch=3 n=88 v=64
121320 Off ch=3 n=91 v=64
121370 Off ch=3 n=84 v=64
121430 Off ch=3 n=81 v=64
121460 On ch=3 n=81 v=94
121472 On ch=3 n=91 v=94
121560 On ch=3 n=88 v=94
121620 On ch=3 n=84 v=94
121642 Off ch=3 n=81 v=64
121710 On ch=3 n=81 v=94
121802 Off ch=3 n=81 v=64
121810 Off ch=3 n=91 v=64
121862 Off ch=3 n=84 v=64
121920 Off ch=3 n=88 v=64
121940 On ch=3 n=93 v=94
121980 On ch=3 n=90 v=94
121980 On ch=3 n=86 v=94
122040 On ch=3 n=83 v=94
122072 Off ch=3 n=93 v=64
122100 Off ch=3 n=86 v=64
122112 Off ch=3 n=90 v=64
122152 Off ch=3 n=83 v=64
122190 On ch=3 n=93 v=94
122250 On ch=3 n=86 v=94
122250 On ch=3 n=90 v=94
122310 On ch=3 n=83 v=94
122840 Off ch=3 n=86 v=64
122842 Off ch=3 n=93 v=64
122870 Off ch=3 n=90 v=64
122910 On ch=3 n=88 v=94
122912 On ch=3 n=91 v=94
122970 Off ch=3 n=83 v=64
122970 On ch=3 n=84 v=94
123012 Off ch=3 n=88 v=64
123030 Off ch=3 n=91 v=64
123030 On ch=3 n=81 v=94
123090 Off ch=3 n=84 v=64
123150 Off ch=3 n=81 v=64
123150 On ch=3 n=91 v=94
123180 On ch=3 n=88 v=94
123240 On ch=3 n=81 v=94
123240 On ch=3 n=84 v=94
123402 Off ch=3 n=88 v=64
123402 Off ch=3 n=91 v=64
123440 Off ch=3 n=84 v=64
123460 Off ch=3 n=81 v=64
123652 On ch=3 n=93 v=94
123690 On ch=3 n=90 v=94
123720 On ch=3 n=86 v=94
123750 On ch=3 n=83 v=94
124582 Off ch=3 n=90 v=64
124642 Off ch=3 n=93 v=64
124800 Off ch=3 n=86 v=64
124800 On ch=3 n=91 v=94
124822 On ch=3 n=84 v=94
124830 On ch=3 n=88 v=94
124860 On ch=3 n=81 v=94
124902 Off ch=3 n=83 v=64
124942 Off ch=3 n=84 v=64
124962 Off ch=3 n=88 v=64
124982 Off ch=3 n=91 v=64
125000 Off ch=3 n=81 v=64
125070 On ch=3 n=81 v=94
125080 On ch=3 n=91 v=94
125130 On ch=3 n=88 v=94
125160 On ch=3 n=84 v=94
125270 Off ch=3 n=81 v=64
125352 On ch=3 n=81 v=94
125452 Off ch=3 n=81 v=64
125460 Off ch=3 n=91 v=64
125490 Off ch=3 n=88 v=64
125520 Off ch=3 n=84 v=64
125562 On ch=3 n=90 v=94
125562 On ch=3 n=93 v=94
125582 On ch=3 n=86 v=94
125700 On ch=3 n=83 v=94
126212 Off ch=3 n=86 v=64
126222 Off ch=3 n=93 v=64
126222 Off ch=3 n=90 v=64
126252 Off ch=3 n=83 v=64
126252 On ch=3 n=83 v=94
126362 On ch=3 n=86 v=94
126430 On ch=3 n=90 v=94
126462 Off ch=3 n=83 v=64
126522 Off ch=3 n=86 v=64
126550 On ch=3 n=93 v=94
126622 Off ch=3 n=90 v=64
126682 Off ch=3 n=93 v=64
126732 On ch=3 n=91 v=94
126760 On ch=3 n=88 v=94
126810 On ch=3 n=84 v=94
126870 On ch=3 n=81 v=94
127050 Off ch=3 n=88 v=64
127080 Off ch=3 n=91 v=64
127130 Off ch=3 n=84 v=64
127190 Off ch=3 n=81 v=64
127232 On ch=3 n=91 v=94
127260 On ch=3 n=81 v=94
127320 On ch=3 n=88 v=94
127380 On ch=3 n=84 v=94
127442 Off ch=3 n=81 v=64
127470 On ch=3 n=81 v=94
127562 Off ch=3 n=81 v=64
127570 Off ch=3 n=91 v=64
127622 Off ch=3 n=84 v=64
127680 Off ch=3 n=88 v=64
127700 On ch=3 n=93 v=94
127710 On ch=3 n=90 v=94
127770 On ch=3 n=86 v=94
127800 On ch=3 n=83 v=94
127832 Off ch=3 n=93 v=64
127842 Off ch=3 n=90 v=64
127890 Off ch=3 n=86 v=64
127912 Off ch=3 n=83 v=64
127950 On ch=3 n=93 v=94
127980 On ch=3 n=90 v=94
128010 On ch=3 n=86 v=94
128040 On ch=3 n=83 v=94
128600 Off ch=3 n=86 v=64
128600 Off ch=3 n=90 v=64
128602 Off ch=3 n=93 v=64
128672 On ch=3 n=91 v=94
128700 Off ch=3 n=83 v=64
128730 On ch=3 n=88 v=94
128730 On ch=3 n=81 v=94
128760 On ch=3 n=84 v=94
128792 Off ch=3 n=91 v=64
128850 Off ch=3 n=88 v=64
128850 Off ch=3 n=81 v=64
128880 Off ch=3 n=84 v=64
128910 On ch=3 n=91 v=94
128970 On ch=3 n=88 v=94
129030 On ch=3 n=84 v=94
129090 On ch=3 n=81 v=94
129162 Off ch=3 n=91 v=64
129192 Off ch=3 n=88 v=64
129230 Off ch=3 n=84 v=64
129310 Off ch=3 n=81 v=64
129330 On ch=3 n=93 v=94
129420 On ch=3 n=86 v=94
129420 On ch=3 n=90 v=94
129450 On ch=3 n=83 v=94
130312 Off ch=3 n=90 v=64
130320 Off ch=3 n=93 v=64
130500 Off ch=3 n=86 v=64
130560 On ch=3 n=91 v=94
130590 On ch=3 n=88 v=94
130602 Off ch=3 n=83 v=64
130650 On ch=3 n=84 v=94
130680 On ch=3 n=81 v=94
130722 Off ch=3 n=88 v=64
130742 Off ch=3 n=91 v=64
130770 Off ch=3 n=84 v=64
130800 On ch=3 n=91 v=94
130820 Off ch=3 n=81 v=64
130860 On ch=3 n=88 v=94
130920 On ch=3 n=84 v=94
130950 On ch=3 n=81 v=94
131112 Off ch=3 n=81 v=64
131112 On ch=3 n=81 v=94
131162 Off ch=3 n=88 v=64
131180 Off ch=3 n=91 v=64
131200 Off ch=3 n=84 v=64
131212 Off ch=3 n=81 v=64
131250 On ch=3 n=93 v=94
131322 On ch=3 n=90 v=94
131342 On ch=3 n=86 v=94
131460 On ch=3 n=83 v=94
131910 Off ch=3 n=93 v=64
131972 Off ch=3 n=86 v=64
131982 Off ch=3 n=90 v=64
132012 Off ch=3 n=83 v=64
132012 On ch=3 n=83 v=94
132122 On ch=3 n=86 v=94
132190 On ch=3 n=90 v=94
132222 Off ch=3 n=83 v=64
132282 Off ch=3 n=86 v=64
132310 On ch=3 n=93 v=94
132382 Off ch=3 n=90 v=64
132442 Off ch=3 n=93 v=64
132480 On ch=3 n=83 v=94
132512 On ch=3 n=91 v=94
132540 Off ch=3 n=83 v=64
132570 On ch=3 n=88 v=94
132570 On ch=3 n=81 v=94
132600 On ch=3 n=84 v=94
132632 Off ch=3 n=91 v=64
132690 Off ch=3 n=88 v=64
132690 Off ch=3 n=81 v=64
132720 Off ch=3 n=84 v=64
132750 On ch=3 n=91 v=94
132810 On ch=3 n=88 v=94
132870 On ch=3 n=84 v=94
132930 On ch=3 n=81 v=94
133002 Off ch=3 n=91 v=64
133032 Off ch=3 n=88 v=64
133070 Off ch=3 n=84 v=64
133150 Off ch=3 n=81 v=64
133170 On ch=3 n=93 v=94
133260 On ch=3 n=86 v=94
133260 On ch=3 n=90 v=94
133290 On ch=3 n=83 v=94
134152 Off ch=3 n=90 v=64
134160 Off ch=3 n=93 v=64
134340 Off ch=3 n=86 v=64
134400 On ch=3 n=91 v=94
134430 On ch=3 n=88 v=94
134442 Off ch=3 n=83 v=64
134490 On ch=3 n=84 v=94
134520 On ch=3 n=81 v=94
134562 Off ch=3 n=88 v=64
134582 Off ch=3 n=91 v=64
134610 Off ch=3 n=84 v=64
134640 On ch=3 n=91 v=94
134660 Off ch=3 n=81 v=64
134700 On ch=3 n=88 v=94
134760 On ch=3 n=84 v=94
134790 On ch=3 n=81 v=94
134952 Off ch=3 n=81 v=64
134952 On ch=3 n=81 v=94
135002 Off ch=3 n=88 v=64
135020 Off ch=3 n=91 v=64
135040 Off ch=3 n=84 v=64
135052 Off ch=3 n=81 v=64
135090 On ch=3 n=93 v=94
135162 On ch=3 n=90 v=94
135182 On ch=3 n=86 v=94
135300 On ch=3 n=83 v=94
135750 Off ch=3 n=93 v=64
135812 Off ch=3 n=86 v=64
135822 Off ch=3 n=90 v=64
135852 Off ch=3 n=83 v=64
135852 On ch=3 n=83 v=94
135962 On ch=3 n=86 v=94
136030 On ch=3 n=90 v=94
136062 Off ch=3 n=83 v=64
136122 Off ch=3 n=86 v=64
136150 On ch=3 n=93 v=94
136222 Off ch=3 n=90 v=64
136282 Off ch=3 n=93 v=64
136320 On ch=3 n=83 v=94
136352 On ch=3 n=91 v=94
136380 Off ch=3 n=83 v=64
136410 On ch=3 n=88 v=94
136410 On ch=3 n=81 v=94
136440 On ch=3 n=84 v=94
136472 Off ch=3 n=91 v=64
136530 Off ch=3 n=88 v=64
136530 Off ch=3 n=81 v=64
136560 Off ch=3 n=84 v=64
136590 On ch=3 n=91 v=94
136650 On ch=3 n=88 v=94
136710 On ch=3 n=84 v=94
136770 On ch=3 n=81 v=94
136842 Off ch=3 n=91 v=64
136872 Off ch=3 n=88 v=64
136910 Off ch=3 n=84 v=64
136990 Off ch=3 n=81 v=64
137010 On ch=3 n=93 v=94
137100 On ch=3 n=86 v=94
137100 On ch=3 n=90 v=94
137130 On ch=3 n=83 v=94
137992 Off ch=3 n=90 v=64
138000 Off ch=3 n=93 v=64
138180 Off ch=3 n=86 v=64
138240 On ch=3 n=91 v=94
138270 On ch=3 n=88 v=94
138282 Off ch=3 n=83 v=64
138330 On ch=3 n=84 v=94
138360 On ch=3 n=81 v=94
138402 Off ch=3 n=88 v=64
138422 Off ch=3 n=91 v=64
138450 Off ch=3 n=84 v=64
138480 On ch=3 n=91 v=94
138500 Off ch=3 n=81 v=64
138540 On ch=3 n=88 v=94
138600 On ch=3 n=84 v=94
138630 On ch=3 n=81 v=94
138792 Off ch=3 n=81 v=64
138792 On ch=3 n=81 v=94
138842 Off ch=3 n=88 v=64
138860 Off ch=3 n=91 v=64
138880 Off ch=3 n=84 v=64
138892 Off ch=3 n=81 v=64
138930 On ch=3 n=93 v=94
139002 On ch=3 n=90 v=94
139022 On ch=3 n=86 v=94
139140 On ch=3 n=83 v=94
139590 Off ch=3 n=93 v=64
139652 Off ch=3 n=86 v=64
139662 Off ch=3 n=90 v=64
139692 Off ch=3 n=83 v=64
139692 On ch=3 n=83 v=94
139802 On ch=3 n=86 v=94
139870 On ch=3 n=90 v=94
139902 Off ch=3 n=83 v=64
139962 Off ch=3 n=86 v=64
139990 On ch=3 n=93 v=94
140062 Off ch=3 n=90 v=64
140122 Off ch=3 n=93 v=64
140160 On ch=3 n=83 v=94
140192 On ch=3 n=91 v=94
140220 Off ch=3 n=83 v=64
140250 On ch=3 n=88 v=94
140250 On ch=3 n=81 v=94
140280 On ch=3 n=84 v=94
140312 Off ch=3 n=91 v=64
140370 Off ch=3 n=88 v=64
140370 Off ch=3 n=81 v=64
140400 Off ch=3 n=84 v=64
140430 On ch=3 n=91 v=94
140490 On ch=3 n=88 v=94
140550 On ch=3 n=84 v=94
140610 On ch=3 n=81 v=94
140682 Off ch=3 n=91 v=64
140712 Off ch=3 n=88 v=64
140750 Off ch=3 n=84 v=64
140830 Off ch=3 n=81 v=64
140850 On ch=3 n=93 v=94
140940 On ch=3 n=86 v=94
140940 On ch=3 n=90 v=94
140970 On ch=3 n=83 v=94
141832 Off ch=3 n=90 v=64
141840 Off ch=3 n=93 v=64
142020 Off ch=3 n=86 v=64
142080 On ch=3 n=91 v=94
142082 Off ch=3 n=83 v=64
142110 On ch=3 n=88 v=94
142170 On ch=3 n=84 v=94
142200 On ch=3 n=81 v=94
142242 Off ch=3 n=88 v=64
142262 Off ch=3 n=91 v=64
142290 Off ch=3 n=84 v=64
142320 On ch=3 n=91 v=94
142340 Off ch=3 n=81 v=64
142380 On ch=3 n=88 v=94
142440 On ch=3 n=84 v=94
142470 On ch=3 n=81 v=94
142632 Off ch=3 n=81 v=64
142632 On ch=3 n=81 v=94
142682 Off ch=3 n=88 v=64
142700 Off ch=3 n=91 v=64
142720 Off ch=3 n=84 v=64
142732 Off ch=3 n=81 v=64
142770 On ch=3 n=93 v=94
142842 On ch=3 n=90 v=94
142862 On ch=3 n=86 v=94
142980 On ch=3 n=83 v=94
143430 Off ch=3 n=93 v=64
143492 Off ch=3 n=86 v=64
143502 Off ch=3 n=90 v=64
143532 Off ch=3 n=83 v=64
143532 On ch=3 n=83 v=94
143642 On ch=3 n=86 v=94
143710 On ch=3 n=90 v=94
143802 Off ch=3 n=86 v=64
143830 On ch=3 n=93 v=94
143902 Off ch=3 n=90 v=64
143962 Off ch=3 n=93 v=64
144002 Off ch=3 n=83 v=64
144032 On ch=3 n=91 v=94
144090 On ch=3 n=88 v=94
144090 On ch=3 n=81 v=94
144120 On ch=3 n=84 v=94
144152 Off ch=3 n=91 v=64
144210 Off ch=3 n=88 v=64
144210 Off ch=3 n=81 v=64
144240 Off ch=3 n=84 v=64
144270 On ch=3 n=91 v=94
144330 On ch=3 n=88 v=94
144390 On ch=3 n=84 v=94
144450 On ch=3 n=81 v=94
144522 Off ch=3 n=91 v=64
144552 Off ch=3 n=88 v=64
144590 Off ch=3 n=84 v=64
144670 Off ch=3 n=81 v=64
144690 On ch=3 n=93 v=94
144780 On ch=3 n=86 v=94
144780 On ch=3 n=90 v=94
144810 On ch=3 n=83 v=94
145672 Off ch=3 n=90 v=64
145680 Off ch=3 n=93 v=64
145860 Off ch=3 n=86 v=64
145920 On ch=3 n=91 v=94
145922 Off ch=3 n=83 v=64
145950 On ch=3 n=88 v=94
146010 On ch=3 n=84 v=94
146040 On ch=3 n=81 v=94
146082 Off ch=3 n=88 v=64
146102 Off ch=3 n=91 v=64
146130 Off ch=3 n=84 v=64
146160 On ch=3 n=91 v=94
146180 Off ch=3 n=81 v=64
146220 On ch=3 n=88 v=94
146280 On ch=3 n=84 v=94
146310 On ch=3 n=81 v=94
146472 Off ch=3 n=81 v=64
146472 On ch=3 n=81 v=94
146522 Off ch=3 n=88 v=64
146540 Off ch=3 n=91 v=64
146560 Off ch=3 n=84 v=64
146572 Off ch=3 n=81 v=64
146610 On ch=3 n=93 v=94
146682 On ch=3 n=90 v=94
146702 On ch=3 n=86 v=94
146820 On ch=3 n=83 v=94
147270 Off ch=3 n=93 v=64
147332 Off ch=3 n=86 v=64
147342 Off ch=3 n=90 v=64
147372 Off ch=3 n=83 v=64
147372 On ch=3 n=83 v=94
147482 On ch=3 n=86 v=94
147550 On ch=3 n=90 v=94
147642 Off ch=3 n=86 v=64
147670 On ch=3 n=93 v=94
147742 Off ch=3 n=90 v=64
147802 Off ch=3 n=93 v=64
147842 Off ch=3 n=83 v=64
147872 On ch=3 n=91 v=94
147930 On ch=3 n=88 v=94
147930 On ch=3 n=81 v=94
147960 On ch=3 n=84 v=94
147992 Off ch=3 n=91 v=64
148050 Off ch=3 n=88 v=64
148050 Off ch=3 n=81 v=64
148080 Off ch=3 n=84 v=64
148110 On ch=3 n=91 v=94
148170 On ch=3 n=88 v=94
148230 On ch=3 n=84 v=94
148290 On ch=3 n=81 v=94
148362 Off ch=3 n=91 v=64
148392 Off ch=3 n=88 v=64
148430 Off ch=3 n=84 v=64
148510 Off ch=3 n=81 v=64
148530 On ch=3 n=93 v=94
148620 On ch=3 n=86 v=94
148620 On ch=3 n=90 v=94
148650 On ch=3 n=83 v=94
149512 Off ch=3 n=90 v=64
149520 Off ch=3 n=93 v=64
149700 Off ch=3 n=86 v=64
149760 On ch=3 n=91 v=94
149762 Off ch=3 n=83 v=64
149790 On ch=3 n=88 v=94
149850 On ch=3 n=84 v=94
149880 On ch=3 n=81 v=94
149922 Off ch=3 n=88 v=64
149942 Off ch=3 n=91 v=64
149970 Off ch=3 n=84 v=64
150000 On ch=3 n=91 v=94
150020 Off ch=3 n=81 v=64
150060 On ch=3 n=88 v=94
150120 On ch=3 n=84 v=94
150150 On ch=3 n=81 v=94
150312 Off ch=3 n=81 v=64
150312 On ch=3 n=81 v=94
150362 Off ch=3 n=88 v=64
150380 Off ch=3 n=91 v=64
150400 Off ch=3 n=84 v=64
150412 Off ch=3 n=81 v=64
150450 On ch=3 n=93 v=94
150522 On ch=3 n=90 v=94
150542 On ch=3 n=86 v=94
150660 On ch=3 n=83 v=94
151110 Off ch=3 n=93 v=64
151172 Off ch=3 n=86 v=64
151182 Off ch=3 n=90 v=64
151212 Off ch=3 n=83 v=64
151212 On ch=3 n=83 v=94
151322 On ch=3 n=86 v=94
151390 On ch=3 n=90 v=94
151482 Off ch=3 n=86 v=64
151510 On ch=3 n=93 v=94
151582 Off ch=3 n=90 v=64
151642 Off ch=3 n=93 v=64
151700 On ch=3 n=79 v=94
151700 On ch=3 n=76 v=94
151700 On ch=3 n=72 v=94
151700 On ch=3 n=81 v=94
151840 Off ch=3 n=81 v=64
151840 Off ch=3 n=72 v=64
151840 Off ch=3 n=76 v=64
151840 Off ch=3 n=79 v=64
151920 On ch=3 n=79 v=94
151920 On ch=3 n=76 v=94
151920 On ch=3 n=72 v=94
151920 On ch=3 n=81 v=94
152160 Off ch=3 n=81 v=64
152160 Off ch=3 n=72 v=64
152160 Off ch=3 n=76 v=64
152160 Off ch=3 n=79 v=64
152660 On ch=3 n=74 v=94
152660 On ch=3 n=71 v=94
152660 On ch=3 n=69 v=94
152660 On ch=3 n=78 v=94
152960 Off ch=3 n=78 v=64
152960 Off ch=3 n=69 v=64
152960 Off ch=3 n=71 v=64
152960 Off ch=3 n=74 v=64
153120 On ch=3 n=74 v=94
153120 On ch=3 n=71 v=94
153140 On ch=3 n=69 v=94
153140 On ch=3 n=78 v=94
153420 Off ch=3 n=78 v=64
153420 Off ch=3 n=69 v=64
153420 Off ch=3 n=71 v=64
153420 Off ch=3 n=74 v=64
153620 On ch=3 n=79 v=94
153620 On ch=3 n=76 v=94
153620 On ch=3 n=72 v=94
153620 On ch=3 n=81 v=94
154400 Off ch=3 n=81 v=64
154400 Off ch=3 n=72 v=64
154400 Off ch=3 n=76 v=64
154400 Off ch=3 n=79 v=64
154580 On ch=3 n=74 v=94
154580 On ch=3 n=71 v=94
154580 On ch=3 n=69 v=94
154580 On ch=3 n=78 v=94
154720 Off ch=3 n=78 v=64
154720 Off ch=3 n=69 v=64
154720 Off ch=3 n=71 v=64
154720 Off ch=3 n=74 v=64
154800 On ch=3 n=74 v=94
154800 On ch=3 n=71 v=94
154820 On ch=3 n=69 v=94
154820 On ch=3 n=78 v=94
155040 Off ch=3 n=78 v=64
155040 Off ch=3 n=69 v=64
155040 Off ch=3 n=71 v=64
155040 Off ch=3 n=74 v=64
155540 On ch=3 n=79 v=94
155540 On ch=3 n=76 v=94
155540 On ch=3 n=72 v=94
155540 On ch=3 n=81 v=94
156320 Off ch=3 n=81 v=64
156320 Off ch=3 n=72 v=64
156320 Off ch=3 n=76 v=64
156320 Off ch=3 n=79 v=64
156500 On ch=3 n=74 v=94
156500 On ch=3 n=71 v=94
156500 On ch=3 n=69 v=94
156500 On ch=3 n=78 v=94
156640 Off ch=3 n=78 v=64
156640 Off ch=3 n=69 v=64
156640 Off ch=3 n=71 v=64
156640 Off ch=3 n=74 v=64
156720 On ch=3 n=74 v=94
156720 On ch=3 n=71 v=94
156740 On ch=3 n=69 v=94
156740 On ch=3 n=78 v=94
156960 Off ch=3 n=78 v=64
156960 Off ch=3 n=69 v=64
156960 Off ch=3 n=71 v=64
156960 Off ch=3 n=74 v=64
157460 On ch=3 n=79 v=94
157460 On ch=3 n=76 v=94
157460 On ch=3 n=72 v=94
157460 On ch=3 n=81 v=94
157600 Off ch=3 n=81 v=64
157600 Off ch=3 n=72 v=64
157600 Off ch=3 n=76 v=64
157600 Off ch=3 n=79 v=64
157680 On ch=3 n=79 v=94
157680 On ch=3 n=76 v=94
157680 On ch=3 n=72 v=94
157680 On ch=3 n=81 v=94
157920 Off ch=3 n=81 v=64
157920 Off ch=3 n=72 v=64
157920 Off ch=3 n=76 v=64
157920 Off ch=3 n=79 v=64
158420 On ch=3 n=74 v=94
158420 On ch=3 n=71 v=94
158420 On ch=3 n=69 v=94
158420 On ch=3 n=78 v=94
158720 Off ch=3 n=78 v=64
158720 Off ch=3 n=69 v=64
158720 Off ch=3 n=71 v=64
158720 Off ch=3 n=74 v=64
158880 On ch=3 n=74 v=94
158880 On ch=3 n=71 v=94
158900 On ch=3 n=69 v=94
158900 On ch=3 n=78 v=94
159180 Off ch=3 n=78 v=64
159180 Off ch=3 n=69 v=64
159180 Off ch=3 n=71 v=64
159180 Off ch=3 n=74 v=64
159380 On ch=3 n=79 v=94
159380 On ch=3 n=76 v=94
159380 On ch=3 n=72 v=94
159380 On ch=3 n=81 v=94
160160 Off ch=3 n=81 v=64
160160 Off ch=3 n=72 v=64
160160 Off ch=3 n=76 v=64
160160 Off ch=3 n=79 v=64
160340 On ch=3 n=74 v=94
160340 On ch=3 n=71 v=94
160340 On ch=3 n=69 v=94
160340 On ch=3 n=78 v=94
160480 Off ch=3 n=78 v=64
160480 Off ch=3 n=69 v=64
160480 Off ch=3 n=71 v=64
160480 Off ch=3 n=74 v=64
160560 On ch=3 n=74 v=94
160560 On ch=3 n=71 v=94
160580 On ch=3 n=69 v=94
160580 On ch=3 n=78 v=94
160800 Off ch=3 n=78 v=64
160800 Off ch=3 n=69 v=64
160800 Off ch=3 n=71 v=64
160800 Off ch=3 n=74 v=64
161300 On ch=3 n=72 v=94
161310 On ch=3 n=76 v=94
161340 On ch=3 n=79 v=94
161430 On ch=3 n=81 v=94
161440 Off ch=3 n=72 v=64
161450 Off ch=3 n=76 v=64
161480 Off ch=3 n=79 v=64
161520 On ch=3 n=72 v=94
161570 Off ch=3 n=81 v=64
161580 On ch=3 n=76 v=94
161640 On ch=3 n=79 v=94
161670 On ch=3 n=81 v=94
161760 Off ch=3 n=72 v=64
161820 Off ch=3 n=76 v=64
161880 Off ch=3 n=79 v=64
161910 Off ch=3 n=81 v=64
162260 On ch=3 n=69 v=94
162300 On ch=3 n=71 v=94
162360 On ch=3 n=74 v=94
162450 On ch=3 n=78 v=94
162560 Off ch=3 n=69 v=64
162600 Off ch=3 n=71 v=64
162660 Off ch=3 n=74 v=64
162740 On ch=3 n=69 v=94
162750 Off ch=3 n=78 v=64
162810 On ch=3 n=71 v=94
162840 On ch=3 n=74 v=94
162870 On ch=3 n=78 v=94
163020 Off ch=3 n=69 v=64
163110 Off ch=3 n=71 v=64
163140 Off ch=3 n=74 v=64
163150 Off ch=3 n=78 v=64
163220 On ch=3 n=79 v=94
163220 On ch=3 n=76 v=94
163220 On ch=3 n=72 v=94
163220 On ch=3 n=81 v=94
164000 Off ch=3 n=81 v=64
164000 Off ch=3 n=72 v=64
164000 Off ch=3 n=76 v=64
164000 Off ch=3 n=79 v=64
164180 On ch=3 n=69 v=94
164250 On ch=3 n=71 v=94
164280 On ch=3 n=74 v=94
164320 Off ch=3 n=69 v=64
164340 On ch=3 n=78 v=94
164390 Off ch=3 n=71 v=64
164420 Off ch=3 n=74 v=64
164420 On ch=3 n=69 v=94
164480 Off ch=3 n=78 v=64
164490 On ch=3 n=74 v=94
164490 On ch=3 n=71 v=94
164550 On ch=3 n=78 v=94
164640 Off ch=3 n=69 v=64
164730 Off ch=3 n=74 v=64
164730 Off ch=3 n=71 v=64
164770 Off ch=3 n=78 v=64
165140 On ch=3 n=79 v=94
165140 On ch=3 n=76 v=94
165140 On ch=3 n=72 v=94
165140 On ch=3 n=81 v=94
165440 Off ch=3 n=81 v=64
165440 Off ch=3 n=72 v=64
165440 Off ch=3 n=76 v=64
165440 Off ch=3 n=79 v=64
165600 On ch=3 n=79 v=94
165600 On ch=3 n=76 v=94
165600 On ch=3 n=72 v=94
165600 On ch=3 n=81 v=94
165900 Off ch=3 n=81 v=64
165900 Off ch=3 n=72 v=64
165900 Off ch=3 n=76 v=64
165900 Off ch=3 n=79 v=64
166080 On ch=3 n=74 v=94
166080 On ch=3 n=71 v=94
166100 On ch=3 n=69 v=94
166100 On ch=3 n=78 v=94
166400 Off ch=3 n=78 v=64
166400 Off ch=3 n=69 v=64
166400 Off ch=3 n=71 v=64
166400 Off ch=3 n=74 v=64
166560 On ch=3 n=74 v=94
166560 On ch=3 n=71 v=94
166580 On ch=3 n=69 v=94
166580 On ch=3 n=78 v=94
166860 Off ch=3 n=78 v=64
166860 Off ch=3 n=69 v=64
166860 Off ch=3 n=71 v=64
166860 Off ch=3 n=74 v=64
167060 On ch=3 n=79 v=94
167060 On ch=3 n=76 v=94
167060 On ch=3 n=72 v=94
167060 On ch=3 n=81 v=94
167840 Off ch=3 n=81 v=64
167840 Off ch=3 n=72 v=64
167840 Off ch=3 n=76 v=64
167840 Off ch=3 n=79 v=64
168020 On ch=3 n=74 v=94
168020 On ch=3 n=71 v=94
168020 On ch=3 n=69 v=94
168020 On ch=3 n=78 v=94
168800 Off ch=3 n=78 v=64
168800 Off ch=3 n=69 v=64
168800 Off ch=3 n=71 v=64
168800 Off ch=3 n=74 v=64
169220 On ch=3 n=79 v=94
169220 On ch=3 n=76 v=94
169220 On ch=3 n=72 v=94
169220 On ch=3 n=81 v=94
169520 Off ch=3 n=81 v=64
169520 Off ch=3 n=72 v=64
169520 Off ch=3 n=76 v=64
169520 Off ch=3 n=79 v=64
169940 On ch=3 n=74 v=94
169940 On ch=3 n=71 v=94
169940 On ch=3 n=69 v=94
169940 On ch=3 n=78 v=94
170720 Off ch=3 n=78 v=64
170720 Off ch=3 n=69 v=64
170720 Off ch=3 n=71 v=64
170720 Off ch=3 n=74 v=64
170880 On ch=3 n=79 v=94
170880 On ch=3 n=76 v=94
170900 On ch=3 n=72 v=94
170900 On ch=3 n=81 v=94
171200 Off ch=3 n=81 v=64
171200 Off ch=3 n=72 v=64
171200 Off ch=3 n=76 v=64
171200 Off ch=3 n=79 v=64
171360 On ch=3 n=79 v=94
171360 On ch=3 n=76 v=94
171380 On ch=3 n=72 v=94
171380 On ch=3 n=81 v=94
171660 Off ch=3 n=81 v=64
171660 Off ch=3 n=72 v=64
171660 Off ch=3 n=76 v=64
171660 Off ch=3 n=79 v=64
171860 On ch=3 n=74 v=94
171860 On ch=3 n=71 v=94
171860 On ch=3 n=69 v=94
171860 On ch=3 n=78 v=94
172160 Off ch=3 n=78 v=64
172160 Off ch=3 n=69 v=64
172160 Off ch=3 n=71 v=64
172160 Off ch=3 n=74 v=64
172320 On ch=3 n=74 v=94
172320 On ch=3 n=71 v=94
172320 On ch=3 n=69 v=94
172340 On ch=3 n=78 v=94
172620 Off ch=3 n=78 v=64
172620 Off ch=3 n=69 v=64
172620 Off ch=3 n=71 v=64
172620 Off ch=3 n=74 v=64
173040 On ch=3 n=72 v=94
173130 On ch=3 n=76 v=94
173160 On ch=3 n=79 v=94
173220 On ch=3 n=81 v=94
173360 Off ch=3 n=72 v=64
173450 Off ch=3 n=76 v=64
173480 Off ch=3 n=79 v=64
173540 Off ch=3 n=81 v=64
173780 On ch=3 n=69 v=94
173850 On ch=3 n=71 v=94
173880 On ch=3 n=74 v=94
173910 On ch=3 n=78 v=94
173920 Off ch=3 n=69 v=64
173990 Off ch=3 n=71 v=64
174000 On ch=3 n=69 v=94
174020 Off ch=3 n=74 v=64
174050 Off ch=3 n=78 v=64
174060 On ch=3 n=71 v=94
174090 On ch=3 n=74 v=94
174120 On ch=3 n=78 v=94
174240 Off ch=3 n=69 v=64
174300 Off ch=3 n=71 v=64
174330 Off ch=3 n=74 v=64
174360 Off ch=3 n=78 v=64
174740 On ch=3 n=72 v=94
174750 On ch=3 n=76 v=94
174780 On ch=3 n=79 v=94
174840 On ch=3 n=81 v=94
175520 Off ch=3 n=72 v=64
175530 Off ch=3 n=76 v=64
175580 Off ch=3 n=79 v=64
175620 Off ch=3 n=81 v=64
175700 On ch=3 n=69 v=94
175710 On ch=3 n=71 v=94
175740 On ch=3 n=74 v=94
175800 On ch=3 n=78 v=94
175840 Off ch=3 n=69 v=64
175850 Off ch=3 n=71 v=64
175900 Off ch=3 n=74 v=64
175920 On ch=3 n=69 v=94
175940 Off ch=3 n=78 v=64
175980 On ch=3 n=71 v=94
176010 On ch=3 n=74 v=94
176040 On ch=3 n=78 v=94
176160 Off ch=3 n=69 v=64
176220 Off ch=3 n=71 v=64
176250 Off ch=3 n=74 v=64
176280 Off ch=3 n=78 v=64
176660 On ch=3 n=79 v=94
176660 On ch=3 n=76 v=94
176660 On ch=3 n=72 v=94
176660 On ch=3 n=81 v=94
176960 Off ch=3 n=81 v=64
176960 Off ch=3 n=72 v=64
176960 Off ch=3 n=76 v=64
176960 Off ch=3 n=79 v=64
177120 On ch=3 n=79 v=94
177120 On ch=3 n=76 v=94
177120 On ch=3 n=72 v=94
177140 On ch=3 n=81 v=94
177420 Off ch=3 n=81 v=64
177420 Off ch=3 n=72 v=64
177420 Off ch=3 n=76 v=64
177420 Off ch=3 n=79 v=64
177840 On ch=3 n=74 v=94
177840 On ch=3 n=71 v=94
177840 On ch=3 n=69 v=94
177840 On ch=3 n=78 v=94
178160 Off ch=3 n=78 v=64
178160 Off ch=3 n=69 v=64
178160 Off ch=3 n=71 v=64
178160 Off ch=3 n=74 v=64
178580 On ch=3 n=72 v=94
178620 On ch=3 n=76 v=94
178650 On ch=3 n=79 v=94
178770 On ch=3 n=81 v=94
178880 Off ch=3 n=72 v=64
178920 Off ch=3 n=76 v=64
178950 Off ch=3 n=79 v=64
179060 On ch=3 n=72 v=94
179070 Off ch=3 n=81 v=64
179100 On ch=3 n=76 v=94
179160 On ch=3 n=79 v=94
179250 On ch=3 n=81 v=94
179340 Off ch=3 n=72 v=64
179400 Off ch=3 n=76 v=64
179460 Off ch=3 n=79 v=64
179530 Off ch=3 n=81 v=64
179540 On ch=3 n=69 v=94
179610 On ch=3 n=71 v=94
179640 On ch=3 n=74 v=94
179700 On ch=3 n=78 v=94
180320 Off ch=3 n=69 v=64
180390 Off ch=3 n=71 v=64
180420 Off ch=3 n=74 v=64
180480 Off ch=3 n=78 v=64
180720 On ch=3 n=79 v=94
180720 On ch=3 n=76 v=94
180720 On ch=3 n=72 v=94
180720 On ch=3 n=81 v=94
181040 Off ch=3 n=81 v=64
181040 Off ch=3 n=72 v=64
181040 Off ch=3 n=76 v=64
181040 Off ch=3 n=79 v=64
181680 On ch=3 n=74 v=94
181680 On ch=3 n=71 v=94
181680 On ch=3 n=69 v=94
181680 On ch=3 n=78 v=94
182000 Off ch=3 n=78 v=64
182000 Off ch=3 n=69 v=64
182000 Off ch=3 n=71 v=64
182000 Off ch=3 n=74 v=64
182420 On ch=3 n=79 v=94
182420 On ch=3 n=76 v=94
182420 On ch=3 n=72 v=94
182420 On ch=3 n=81 v=94
182560 Off ch=3 n=81 v=64
182560 Off ch=3 n=72 v=64
182560 Off ch=3 n=76 v=64
182560 Off ch=3 n=79 v=64
182640 On ch=3 n=79 v=94
182640 On ch=3 n=76 v=94
182640 On ch=3 n=72 v=94
182660 On ch=3 n=81 v=94
182880 Off ch=3 n=81 v=64
182880 Off ch=3 n=72 v=64
182880 Off ch=3 n=76 v=64
182880 Off ch=3 n=79 v=64
183380 On ch=3 n=74 v=94
183380 On ch=3 n=71 v=94
183380 On ch=3 n=69 v=94
183380 On ch=3 n=78 v=94
183520 Off ch=3 n=78 v=64
183520 Off ch=3 n=69 v=64
183520 Off ch=3 n=71 v=64
183520 Off ch=3 n=74 v=64
183600 On ch=3 n=74 v=94
183600 On ch=3 n=71 v=94
183620 On ch=3 n=69 v=94
183620 On ch=3 n=78 v=94
183840 Off ch=3 n=78 v=64
183840 Off ch=3 n=69 v=64
183840 Off ch=3 n=71 v=64
183840 Off ch=3 n=74 v=64
184340 On ch=3 n=72 v=94
184380 On ch=3 n=76 v=94
184440 On ch=3 n=79 v=94
184470 On ch=3 n=81 v=94
184480 Off ch=3 n=72 v=64
184520 Off ch=3 n=76 v=64
184560 On ch=3 n=72 v=94
184580 Off ch=3 n=79 v=64
184610 Off ch=3 n=81 v=64
184620 On ch=3 n=76 v=94
184650 On ch=3 n=79 v=94
184680 On ch=3 n=81 v=94
184800 Off ch=3 n=72 v=64
184860 Off ch=3 n=76 v=64
184890 Off ch=3 n=79 v=64
184920 Off ch=3 n=81 v=64
185300 On ch=3 n=69 v=94
185340 On ch=3 n=71 v=94
185370 On ch=3 n=74 v=94
185400 On ch=3 n=78 v=94
185600 Off ch=3 n=69 v=64
185640 Off ch=3 n=71 v=64
185670 Off ch=3 n=74 v=64
185700 Off ch=3 n=78 v=64
185780 On ch=3 n=69 v=94
185790 On ch=3 n=71 v=94
185820 On ch=3 n=74 v=94
185850 On ch=3 n=78 v=94
186060 Off ch=3 n=69 v=64
186090 Off ch=3 n=71 v=64
186120 Off ch=3 n=74 v=64
186130 Off ch=3 n=78 v=64
186240 On ch=3 n=72 v=94
186300 On ch=3 n=76 v=94
186330 On ch=3 n=79 v=94
186420 On ch=3 n=81 v=94
187040 Off ch=3 n=72 v=64
187100 Off ch=3 n=76 v=64
187130 Off ch=3 n=79 v=64
187220 Off ch=3 n=81 v=64
187220 On ch=3 n=69 v=94
187260 On ch=3 n=71 v=94
187320 On ch=3 n=74 v=94
187350 On ch=3 n=78 v=94
187360 Off ch=3 n=69 v=64
187400 Off ch=3 n=71 v=64
187440 On ch=3 n=69 v=94
187460 Off ch=3 n=74 v=64
187490 Off ch=3 n=78 v=64
187530 On ch=3 n=71 v=94
187560 On ch=3 n=74 v=94
187590 On ch=3 n=78 v=94
187680 Off ch=3 n=69 v=64
187770 Off ch=3 n=71 v=64
187800 Off ch=3 n=74 v=64
187830 Off ch=3 n=78 v=64
188400 On ch=3 n=79 v=94
188400 On ch=3 n=76 v=94
188400 On ch=3 n=72 v=94
188400 On ch=3 n=81 v=94
188720 Off ch=3 n=81 v=64
188720 Off ch=3 n=72 v=64
188720 Off ch=3 n=76 v=64
188720 Off ch=3 n=79 v=64
189120 On ch=3 n=74 v=94
189120 On ch=3 n=71 v=94
189120 On ch=3 n=69 v=94
189140 On ch=3 n=78 v=94
189920 Off ch=3 n=78 v=64
189920 Off ch=3 n=69 v=64
189920 Off ch=3 n=71 v=64
189920 Off ch=3 n=74 v=64
190100 On ch=3 n=72 v=94
190140 On ch=3 n=76 v=94
190200 On ch=3 n=79 v=94
190290 On ch=3 n=81 v=94
190880 Off ch=3 n=72 v=64
190940 Off ch=3 n=76 v=64
191000 Off ch=3 n=79 v=64
191060 On ch=3 n=69 v=94
191070 Off ch=3 n=81 v=64
191100 On ch=3 n=74 v=94
191100 On ch=3 n=71 v=94
191160 On ch=3 n=78 v=94
191200 Off ch=3 n=69 v=64
191240 Off ch=3 n=71 v=64
191260 Off ch=3 n=74 v=64
191280 On ch=3 n=69 v=94
191300 Off ch=3 n=78 v=64
191340 On ch=3 n=71 v=94
191370 On ch=3 n=78 v=94
191370 On ch=3 n=74 v=94
191520 Off ch=3 n=69 v=64
191580 Off ch=3 n=71 v=64
191610 Off ch=3 n=78 v=64
191610 Off ch=3 n=74 v=64
192020 On ch=3 n=72 v=94
192030 On ch=3 n=76 v=94
192090 On ch=3 n=79 v=94
192090 On ch=3 n=81 v=94
192160 Off ch=3 n=72 v=64
192170 Off ch=3 n=76 v=64
192230 Off ch=3 n=79 v=64
192230 Off ch=3 n=81 v=64
192240 On ch=3 n=72 v=94
192300 On ch=3 n=79 v=94
192330 On ch=3 n=76 v=94
192360 On ch=3 n=81 v=94
192480 Off ch=3 n=72 v=64
192540 Off ch=3 n=79 v=64
192570 Off ch=3 n=76 v=64
192600 Off ch=3 n=81 v=64
192980 On ch=3 n=69 v=94
193050 On ch=3 n=71 v=94
193110 On ch=3 n=74 v=94
193140 On ch=3 n=78 v=94
193280 Off ch=3 n=69 v=64
193350 Off ch=3 n=71 v=64
193410 Off ch=3 n=74 v=64
193440 Off ch=3 n=78 v=64
193440 On ch=3 n=69 v=94
193500 On ch=3 n=71 v=94
193560 On ch=3 n=74 v=94
193650 On ch=3 n=78 v=94
193720 Off ch=3 n=69 v=64
193800 Off ch=3 n=71 v=64
193860 Off ch=3 n=74 v=64
193920 Off ch=3 n=78 v=64
193940 On ch=3 n=72 v=94
193950 On ch=3 n=76 v=94
194010 On ch=3 n=79 v=94
194010 On ch=3 n=81 v=94
194080 Off ch=3 n=72 v=64
194090 Off ch=3 n=76 v=64
194150 Off ch=3 n=79 v=64
194150 Off ch=3 n=81 v=64
194160 On ch=3 n=72 v=94
194220 On ch=3 n=79 v=94
194250 On ch=3 n=76 v=94
194280 On ch=3 n=81 v=94
194400 Off ch=3 n=72 v=64
194460 Off ch=3 n=79 v=64
194490 Off ch=3 n=76 v=64
194520 Off ch=3 n=81 v=64
194900 On ch=3 n=69 v=94
194970 On ch=3 n=71 v=94
195030 On ch=3 n=74 v=94
195060 On ch=3 n=78 v=94
195200 Off ch=3 n=69 v=64
195270 Off ch=3 n=71 v=64
195330 Off ch=3 n=74 v=64
195360 Off ch=3 n=78 v=64
195360 On ch=3 n=69 v=94
195420 On ch=3 n=71 v=94
195480 On ch=3 n=74 v=94
195570 On ch=3 n=78 v=94
195640 Off ch=3 n=69 v=64
195720 Off ch=3 n=71 v=64
195780 Off ch=3 n=74 v=64
195840 Off ch=3 n=78 v=64
195860 On ch=3 n=72 v=94
195870 On ch=3 n=76 v=94
195930 On ch=3 n=79 v=94
195930 On ch=3 n=81 v=94
196000 Off ch=3 n=72 v=64
196010 Off ch=3 n=76 v=64
196070 Off ch=3 n=79 v=64
196070 Off ch=3 n=81 v=64
196080 On ch=3 n=72 v=94
196140 On ch=3 n=79 v=94
196170 On ch=3 n=76 v=94
196200 On ch=3 n=81 v=94
196320 Off ch=3 n=72 v=64
196380 Off ch=3 n=79 v=64
196410 Off ch=3 n=76 v=64
196440 Off ch=3 n=81 v=64
196820 On ch=3 n=69 v=94
196890 On ch=3 n=71 v=94
196950 On ch=3 n=74 v=94
196980 On ch=3 n=78 v=94
197120 Off ch=3 n=69 v=64
197190 Off ch=3 n=71 v=64
197250 Off ch=3 n=74 v=64
197280 Off ch=3 n=78 v=64
197280 On ch=3 n=69 v=94
197340 On ch=3 n=71 v=94
197400 On ch=3 n=74 v=94
197490 On ch=3 n=78 v=94
197560 Off ch=3 n=69 v=64
197640 Off ch=3 n=71 v=64
197700 Off ch=3 n=74 v=64
197760 Off ch=3 n=78 v=64
197780 On ch=3 n=72 v=94
197790 On ch=3 n=76 v=94
197850 On ch=3 n=79 v=94
197850 On ch=3 n=81 v=94
197920 Off ch=3 n=72 v=64
197930 Off ch=3 n=76 v=64
197990 Off ch=3 n=79 v=64
197990 Off ch=3 n=81 v=64
198000 On ch=3 n=72 v=94
198060 On ch=3 n=79 v=94
198090 On ch=3 n=76 v=94
198120 On ch=3 n=81 v=94
198240 Off ch=3 n=72 v=64
198300 Off ch=3 n=79 v=64
198330 Off ch=3 n=76 v=64
198360 Off ch=3 n=81 v=64
198740 On ch=3 n=69 v=94
198810 On ch=3 n=71 v=94
198870 On ch=3 n=74 v=94
198900 On ch=3 n=78 v=94
199040 Off ch=3 n=69 v=64
199110 Off ch=3 n=71 v=64
199170 Off ch=3 n=74 v=64
199200 Off ch=3 n=78 v=64
199200 On ch=3 n=69 v=94
199260 On ch=3 n=71 v=94
199320 On ch=3 n=74 v=94
199410 On ch=3 n=78 v=94
199480 Off ch=3 n=69 v=64
199560 Off ch=3 n=71 v=64
199620 Off ch=3 n=74 v=64
199680 Off ch=3 n=78 v=64
199700 On ch=3 n=72 v=94
199710 On ch=3 n=76 v=94
199770 On ch=3 n=79 v=94
199770 On ch=3 n=81 v=94
199840 Off ch=3 n=72 v=64
199850 Off ch=3 n=76 v=64
199910 Off ch=3 n=79 v=64
199910 Off ch=3 n=81 v=64
199920 On ch=3 n=72 v=94
199980 On ch=3 n=79 v=94
200010 On ch=3 n=76 v=94
200040 On ch=3 n=81 v=94
200160 Off ch=3 n=72 v=64
200220 Off ch=3 n=79 v=64
200250 Off ch=3 n=76 v=64
200280 Off ch=3 n=81 v=64
200660 On ch=3 n=69 v=94
200730 On ch=3 n=71 v=94
200790 On ch=3 n=74 v=94
200820 On ch=3 n=78 v=94
200848 Off ch=3 n=83 v=64
200960 Off ch=3 n=69 v=64
201030 Off ch=3 n=71 v=64
201090 Off ch=3 n=74 v=64
201120 Off ch=3 n=78 v=64
201120 On ch=3 n=69 v=94
201180 On ch=3 n=71 v=94
201240 On ch=3 n=74 v=94
201330 On ch=3 n=78 v=94
201400 Off ch=3 n=69 v=64
201480 Off ch=3 n=71 v=64
201540 Off ch=3 n=74 v=64
201600 Off ch=3 n=78 v=64
201620 On ch=3 n=72 v=94
201630 On ch=3 n=76 v=94
201660 On ch=3 n=79 v=94
201690 On ch=3 n=81 v=94
202400 Off ch=3 n=72 v=64
202410 Off ch=3 n=76 v=64
202440 Off ch=3 n=79 v=64
202470 Off ch=3 n=81 v=64
202580 On ch=3 n=69 v=94
202620 On ch=3 n=71 v=94
202650 On ch=3 n=74 v=94
202710 On ch=3 n=78 v=94
202720 Off ch=3 n=69 v=64
202760 Off ch=3 n=71 v=64
202790 Off ch=3 n=74 v=64
202820 On ch=3 n=69 v=94
202850 Off ch=3 n=78 v=64
202920 On ch=3 n=71 v=94
203010 On ch=3 n=74 v=94
203040 Off ch=3 n=69 v=64
203100 On ch=3 n=78 v=94
203160 Off ch=3 n=71 v=64
203250 Off ch=3 n=74 v=64
203320 Off ch=3 n=78 v=64
203540 On ch=3 n=72 v=94
203550 On ch=3 n=76 v=94
203580 On ch=3 n=79 v=94
203670 On ch=3 n=81 v=94
203840 Off ch=3 n=72 v=64
203850 Off ch=3 n=76 v=64
203880 Off ch=3 n=79 v=64
203970 Off ch=3 n=81 v=64
204000 On ch=3 n=72 v=94
204060 On ch=3 n=76 v=94
204120 On ch=3 n=79 v=94
204180 On ch=3 n=81 v=94
204300 Off ch=3 n=72 v=64
204360 Off ch=3 n=76 v=64
204420 Off ch=3 n=79 v=64
204480 Off ch=3 n=81 v=64
204500 On ch=3 n=69 v=94
204540 On ch=3 n=71 v=94
204570 On ch=3 n=74 v=94
204600 On ch=3 n=78 v=94
204800 Off ch=3 n=69 v=64
204860 Off ch=3 n=71 v=64
204890 Off ch=3 n=74 v=64
204900 Off ch=3 n=78 v=64
204980 On ch=3 n=69 v=94
205020 On ch=3 n=71 v=94
205050 On ch=3 n=74 v=94
205110 On ch=3 n=78 v=94
205260 Off ch=3 n=69 v=64
205320 Off ch=3 n=71 v=64
205350 Off ch=3 n=74 v=64
205390 Off ch=3 n=78 v=64
205460 On ch=3 n=72 v=94
205470 On ch=3 n=76 v=94
205530 On ch=3 n=79 v=94
205620 On ch=3 n=81 v=94
206240 Off ch=3 n=72 v=64
206250 Off ch=3 n=76 v=64
206310 Off ch=3 n=79 v=64
206400 Off ch=3 n=81 v=64
206420 On ch=3 n=69 v=94
206490 On ch=3 n=71 v=94
206520 On ch=3 n=74 v=94
206580 On ch=3 n=78 v=94
207200 Off ch=3 n=69 v=64
207270 Off ch=3 n=71 v=64
207300 Off ch=3 n=74 v=64
207360 Off ch=3 n=78 v=64
207620 On ch=3 n=72 v=94
207690 On ch=3 n=76 v=94
207810 On ch=3 n=81 v=94
207920 Off ch=3 n=72 v=64
207990 Off ch=3 n=76 v=64
208110 Off ch=3 n=81 v=64
208340 On ch=3 n=69 v=94
208350 On ch=3 n=71 v=94
208410 On ch=3 n=74 v=94
208500 On ch=3 n=78 v=94
209120 Off ch=3 n=69 v=64
209130 Off ch=3 n=71 v=64
209190 Off ch=3 n=74 v=64
209280 Off ch=3 n=78 v=64
209300 On ch=3 n=72 v=94
209310 On ch=3 n=76 v=94
209340 On ch=3 n=79 v=94
209430 On ch=3 n=81 v=94
209600 Off ch=3 n=72 v=64
209610 Off ch=3 n=76 v=64
209640 Off ch=3 n=79 v=64
209730 Off ch=3 n=81 v=64
209760 On ch=3 n=72 v=94
209820 On ch=3 n=76 v=94
209880 On ch=3 n=79 v=94
209940 On ch=3 n=81 v=94
210060 Off ch=3 n=72 v=64
210120 Off ch=3 n=76 v=64
210180 Off ch=3 n=79 v=64
210240 Off ch=3 n=81 v=64
210260 On ch=3 n=69 v=94
210300 On ch=3 n=71 v=94
210330 On ch=3 n=74 v=94
210360 On ch=3 n=78 v=94
210560 Off ch=3 n=69 v=64
210620 Off ch=3 n=71 v=64
210650 Off ch=3 n=74 v=64
210660 Off ch=3 n=78 v=64
210740 On ch=3 n=69 v=94
210780 On ch=3 n=71 v=94
210810 On ch=3 n=74 v=94
210870 On ch=3 n=78 v=94
211020 Off ch=3 n=69 v=64
211080 Off ch=3 n=71 v=64
211110 Off ch=3 n=74 v=64
211150 Off ch=3 n=78 v=64
211440 On ch=3 n=72 v=94
211500 On ch=3 n=76 v=94
211530 On ch=3 n=79 v=94
211650 On ch=3 n=81 v=94
211760 Off ch=3 n=72 v=64
211820 Off ch=3 n=76 v=64
211850 Off ch=3 n=79 v=64
211970 Off ch=3 n=81 v=64
212180 On ch=3 n=69 v=94
212250 On ch=3 n=71 v=94
212310 On ch=3 n=74 v=94
212320 Off ch=3 n=69 v=64
212340 On ch=3 n=78 v=94
212390 Off ch=3 n=71 v=64
212400 On ch=3 n=69 v=94
212450 Off ch=3 n=74 v=64
212480 Off ch=3 n=78 v=64
212490 On ch=3 n=71 v=94
212520 On ch=3 n=74 v=94
212550 On ch=3 n=78 v=94
212640 Off ch=3 n=69 v=64
212730 Off ch=3 n=71 v=64
212760 Off ch=3 n=74 v=64
212790 Off ch=3 n=78 v=64
213140 On ch=3 n=72 v=94
213150 On ch=3 n=76 v=94
213210 On ch=3 n=79 v=94
213210 On ch=3 n=81 v=94
213280 Off ch=3 n=72 v=64
213290 Off ch=3 n=76 v=64
213350 Off ch=3 n=79 v=64
213350 Off ch=3 n=81 v=64
213360 On ch=3 n=72 v=94
213420 On ch=3 n=79 v=94
213450 On ch=3 n=76 v=94
213480 On ch=3 n=81 v=94
213600 Off ch=3 n=72 v=64
213660 Off ch=3 n=79 v=64
213690 Off ch=3 n=76 v=64
213720 Off ch=3 n=81 v=64
214100 On ch=3 n=69 v=94
214170 On ch=3 n=71 v=94
214230 On ch=3 n=74 v=94
214260 On ch=3 n=78 v=94
214400 Off ch=3 n=69 v=64
214470 Off ch=3 n=71 v=64
214530 Off ch=3 n=74 v=64
214560 Off ch=3 n=78 v=64
214560 On ch=3 n=69 v=94
214620 On ch=3 n=71 v=94
214680 On ch=3 n=74 v=94
214770 On ch=3 n=78 v=94
214840 Off ch=3 n=69 v=64
214920 Off ch=3 n=71 v=64
214980 Off ch=3 n=74 v=64
215040 Off ch=3 n=78 v=64
215060 On ch=3 n=79 v=94
215060 On ch=3 n=76 v=94
215060 On ch=3 n=72 v=94
215060 On ch=3 n=81 v=94
215360 Off ch=3 n=81 v=64
215360 Off ch=3 n=72 v=64
215360 Off ch=3 n=76 v=64
215360 Off ch=3 n=79 v=64
215520 On ch=3 n=79 v=94
215520 On ch=3 n=76 v=94
215520 On ch=3 n=72 v=94
215540 On ch=3 n=81 v=94
215820 Off ch=3 n=81 v=64
215820 Off ch=3 n=72 v=64
215820 Off ch=3 n=76 v=64
215820 Off ch=3 n=79 v=64
216240 On ch=3 n=74 v=94
216240 On ch=3 n=71 v=94
216240 On ch=3 n=69 v=94
216240 On ch=3 n=78 v=94
216560 Off ch=3 n=78 v=64
216560 Off ch=3 n=69 v=64
216560 Off ch=3 n=71 v=64
216560 Off ch=3 n=74 v=64
216980 On ch=3 n=79 v=94
216980 On ch=3 n=76 v=94
216980 On ch=3 n=72 v=94
216980 On ch=3 n=81 v=94
217280 Off ch=3 n=81 v=64
217280 Off ch=3 n=72 v=64
217280 Off ch=3 n=76 v=64
217280 Off ch=3 n=79 v=64
217440 On ch=3 n=79 v=94
217440 On ch=3 n=76 v=94
217460 On ch=3 n=72 v=94
217460 On ch=3 n=81 v=94
217740 Off ch=3 n=81 v=64
217740 Off ch=3 n=72 v=64
217740 Off ch=3 n=76 v=64
217740 Off ch=3 n=79 v=64
217940 On ch=3 n=74 v=94
217940 On ch=3 n=71 v=94
217940 On ch=3 n=69 v=94
217940 On ch=3 n=78 v=94
218720 Off ch=3 n=78 v=64
218720 Off ch=3 n=69 v=64
218720 Off ch=3 n=71 v=64
218720 Off ch=3 n=74 v=64
219120 On ch=3 n=79 v=94
219120 On ch=3 n=76 v=94
219120 On ch=3 n=72 v=94
219120 On ch=3 n=81 v=94
219440 Off ch=3 n=81 v=64
219440 Off ch=3 n=72 v=64
219440 Off ch=3 n=76 v=64
219440 Off ch=3 n=79 v=64
220080 On ch=3 n=74 v=94
220080 On ch=3 n=71 v=94
220080 On ch=3 n=69 v=94
220080 On ch=3 n=78 v=94
220400 Off ch=3 n=78 v=64
220400 Off ch=3 n=69 v=64
220400 Off ch=3 n=71 v=64
220400 Off ch=3 n=74 v=64
220820 On ch=3 n=79 v=94
220820 On ch=3 n=76 v=94
220820 On ch=3 n=72 v=94
220820 On ch=3 n=81 v=94
220960 Off ch=3 n=81 v=64
220960 Off ch=3 n=72 v=64
220960 Off ch=3 n=76 v=64
220960 Off ch=3 n=79 v=64
221040 On ch=3 n=79 v=94
221040 On ch=3 n=76 v=94
221040 On ch=3 n=72 v=94
221060 On ch=3 n=81 v=94
221280 Off ch=3 n=81 v=64
221280 Off ch=3 n=72 v=64
221280 Off ch=3 n=76 v=64
221280 Off ch=3 n=79 v=64
221780 On ch=3 n=74 v=94
221780 On ch=3 n=71 v=94
221780 On ch=3 n=69 v=94
221780 On ch=3 n=78 v=94
221920 Off ch=3 n=78 v=64
221920 Off ch=3 n=69 v=64
221920 Off ch=3 n=71 v=64
221920 Off ch=3 n=74 v=64
222000 On ch=3 n=74 v=94
222000 On ch=3 n=71 v=94
222020 On ch=3 n=69 v=94
222020 On ch=3 n=78 v=94
222240 Off ch=3 n=78 v=64
222240 Off ch=3 n=69 v=64
222240 Off ch=3 n=71 v=64
222240 Off ch=3 n=74 v=64
222740 On ch=3 n=79 v=94
222740 On ch=3 n=76 v=94
222740 On ch=3 n=72 v=94
222740 On ch=3 n=81 v=94
222880 Off ch=3 n=81 v=64
222880 Off ch=3 n=72 v=64
222880 Off ch=3 n=76 v=64
222880 Off ch=3 n=79 v=64
222960 On ch=3 n=79 v=94
222960 On ch=3 n=76 v=94
222960 On ch=3 n=72 v=94
222960 On ch=3 n=81 v=94
223200 Off ch=3 n=81 v=64
223200 Off ch=3 n=72 v=64
223200 Off ch=3 n=76 v=64
223200 Off ch=3 n=79 v=64
223700 On ch=3 n=74 v=94
223700 On ch=3 n=71 v=94
223700 On ch=3 n=69 v=94
223700 On ch=3 n=78 v=94
224000 Off ch=3 n=78 v=64
224000 Off ch=3 n=69 v=64
224000 Off ch=3 n=71 v=64
224000 Off ch=3 n=74 v=64
224160 On ch=3 n=74 v=94
224160 On ch=3 n=71 v=94
224180 On ch=3 n=69 v=94
224180 On ch=3 n=78 v=94
224460 Off ch=3 n=78 v=64
224460 Off ch=3 n=69 v=64
224460 Off ch=3 n=71 v=64
224460 Off ch=3 n=74 v=64
224640 On ch=3 n=79 v=94
224640 On ch=3 n=76 v=94
224640 On ch=3 n=72 v=94
224640 On ch=3 n=81 v=94
225440 Off ch=3 n=81 v=64
225440 Off ch=3 n=72 v=64
225440 Off ch=3 n=76 v=64
225440 Off ch=3 n=79 v=64
225620 On ch=3 n=74 v=94
225620 On ch=3 n=71 v=94
225620 On ch=3 n=69 v=94
225620 On ch=3 n=78 v=94
225760 Off ch=3 n=78 v=64
225760 Off ch=3 n=69 v=64
225760 Off ch=3 n=71 v=64
225760 Off ch=3 n=74 v=64
225840 On ch=3 n=74 v=94
225840 On ch=3 n=71 v=94
225840 On ch=3 n=69 v=94
225840 On ch=3 n=78 v=94
226080 Off ch=3 n=78 v=64
226080 Off ch=3 n=69 v=64
226080 Off ch=3 n=71 v=64
226080 Off ch=3 n=74 v=64
226800 On ch=3 n=79 v=94
226800 On ch=3 n=76 v=94
226800 On ch=3 n=72 v=94
226800 On ch=3 n=81 v=94
227120 Off ch=3 n=81 v=64
227120 Off ch=3 n=72 v=64
227120 Off ch=3 n=76 v=64
227120 Off ch=3 n=79 v=64
227520 On ch=3 n=74 v=94
227520 On ch=3 n=71 v=94
227520 On ch=3 n=69 v=94
227540 On ch=3 n=78 v=94
228320 Off ch=3 n=78 v=64
228320 Off ch=3 n=69 v=64
228320 Off ch=3 n=71 v=64
228320 Off ch=3 n=74 v=64
228480 On ch=3 n=79 v=94
228480 On ch=3 n=76 v=94
228500 On ch=3 n=72 v=94
228500 On ch=3 n=81 v=94
229280 Off ch=3 n=81 v=64
229280 Off ch=3 n=72 v=64
229280 Off ch=3 n=76 v=64
229280 Off ch=3 n=79 v=64
229440 On ch=3 n=74 v=94
229460 On ch=3 n=71 v=94
229460 On ch=3 n=69 v=94
229460 On ch=3 n=78 v=94
229600 Off ch=3 n=78 v=64
229600 Off ch=3 n=69 v=64
229600 Off ch=3 n=71 v=64
229600 Off ch=3 n=74 v=64
229680 On ch=3 n=74 v=94
229680 On ch=3 n=71 v=94
229680 On ch=3 n=69 v=94
229680 On ch=3 n=78 v=94
229920 Off ch=3 n=78 v=64
229920 Off ch=3 n=69 v=64
229920 Off ch=3 n=71 v=64
229920 Off ch=3 n=74 v=64
230420 On ch=3 n=79 v=94
230420 On ch=3 n=76 v=94
230420 On ch=3 n=72 v=94
230420 On ch=3 n=81 v=94
230560 Off ch=3 n=81 v=64
230560 Off ch=3 n=72 v=64
230560 Off ch=3 n=76 v=64
230560 Off ch=3 n=79 v=64
230640 On ch=3 n=79 v=94
230640 On ch=3 n=76 v=94
230640 On ch=3 n=72 v=94
230640 On ch=3 n=81 v=94
230880 Off ch=3 n=81 v=64
230880 Off ch=3 n=72 v=64
230880 Off ch=3 n=76 v=64
230880 Off ch=3 n=79 v=64
231380 On ch=3 n=74 v=94
231380 On ch=3 n=71 v=94
231380 On ch=3 n=69 v=94
231380 On ch=3 n=78 v=94
231680 Off ch=3 n=78 v=64
231680 Off ch=3 n=69 v=64
231680 Off ch=3 n=71 v=64
231680 Off ch=3 n=74 v=64
231840 On ch=3 n=74 v=94
231840 On ch=3 n=71 v=94
231860 On ch=3 n=69 v=94
231860 On ch=3 n=78 v=94
232140 Off ch=3 n=78 v=64
232140 Off ch=3 n=69 v=64
232140 Off ch=3 n=71 v=64
232140 Off ch=3 n=74 v=64
232340 On ch=3 n=79 v=94
232340 On ch=3 n=76 v=94
232340 On ch=3 n=72 v=94
232340 On ch=3 n=81 v=94
233120 Off ch=3 n=81 v=64
233120 Off ch=3 n=72 v=64
233120 Off ch=3 n=76 v=64
233120 Off ch=3 n=79 v=64
233300 On ch=3 n=74 v=94
233300 On ch=3 n=71 v=94
233300 On ch=3 n=69 v=94
233300 On ch=3 n=78 v=94
233440 Off ch=3 n=78 v=64
233440 Off ch=3 n=69 v=64
233440 Off ch=3 n=71 v=64
233440 Off ch=3 n=74 v=64
233520 On ch=3 n=74 v=94
233520 On ch=3 n=71 v=94
233540 On ch=3 n=69 v=94
233540 On ch=3 n=78 v=94
233760 Off ch=3 n=78 v=64
233760 Off ch=3 n=69 v=64
233760 Off ch=3 n=71 v=64
233760 Off ch=3 n=74 v=64
234260 On ch=3 n=79 v=94
234260 On ch=3 n=76 v=94
234260 On ch=3 n=72 v=94
234260 On ch=3 n=81 v=94
234560 Off ch=3 n=81 v=64
234560 Off ch=3 n=72 v=64
234560 Off ch=3 n=76 v=64
234560 Off ch=3 n=79 v=64
234720 On ch=3 n=79 v=94
234720 On ch=3 n=76 v=94
234720 On ch=3 n=72 v=94
234720 On ch=3 n=81 v=94
235020 Off ch=3 n=81 v=64
235020 Off ch=3 n=72 v=64
235020 Off ch=3 n=76 v=64
235020 Off ch=3 n=79 v=64
235200 On ch=3 n=74 v=94
235200 On ch=3 n=71 v=94
235220 On ch=3 n=69 v=94
235220 On ch=3 n=78 v=94
235520 Off ch=3 n=78 v=64
235520 Off ch=3 n=69 v=64
235520 Off ch=3 n=71 v=64
235520 Off ch=3 n=74 v=64
235680 On ch=3 n=74 v=94
235680 On ch=3 n=71 v=94
235700 On ch=3 n=69 v=94
235700 On ch=3 n=78 v=94
235980 Off ch=3 n=78 v=64
235980 Off ch=3 n=69 v=64
235980 Off ch=3 n=71 v=64
235980 Off ch=3 n=74 v=64
236180 On ch=3 n=79 v=94
236180 On ch=3 n=76 v=94
236180 On ch=3 n=72 v=94
236180 On ch=3 n=81 v=94
236960 Off ch=3 n=81 v=64
236960 Off ch=3 n=72 v=64
236960 Off ch=3 n=76 v=64
236960 Off ch=3 n=79 v=64
237140 On ch=3 n=74 v=94
237140 On ch=3 n=71 v=94
237140 On ch=3 n=69 v=94
237140 On ch=3 n=78 v=94
237280 Off ch=3 n=78 v=64
237280 Off ch=3 n=69 v=64
237280 Off ch=3 n=71 v=64
237280 Off ch=3 n=74 v=64
237360 On ch=3 n=74 v=94
237360 On ch=3 n=71 v=94
237380 On ch=3 n=69 v=94
237380 On ch=3 n=78 v=94
237600 Off ch=3 n=78 v=64
237600 Off ch=3 n=69 v=64
237600 Off ch=3 n=71 v=64
237600 Off ch=3 n=74 v=64
238100 On ch=3 n=79 v=94
238100 On ch=3 n=76 v=94
238100 On ch=3 n=72 v=94
238100 On ch=3 n=81 v=94
238400 Off ch=3 n=81 v=64
238400 Off ch=3 n=72 v=64
238400 Off ch=3 n=76 v=64
238400 Off ch=3 n=79 v=64
238560 On ch=3 n=79 v=94
238560 On ch=3 n=76 v=94
238560 On ch=3 n=72 v=94
238560 On ch=3 n=81 v=94
238860 Off ch=3 n=81 v=64
238860 Off ch=3 n=72 v=64
238860 Off ch=3 n=76 v=64
238860 Off ch=3 n=79 v=64
239040 On ch=3 n=74 v=94
239040 On ch=3 n=71 v=94
239060 On ch=3 n=69 v=94
239060 On ch=3 n=78 v=94
239360 Off ch=3 n=78 v=64
239360 Off ch=3 n=69 v=64
239360 Off ch=3 n=71 v=64
239360 Off ch=3 n=74 v=64
239520 On ch=3 n=74 v=94
239520 On ch=3 n=71 v=94
239540 On ch=3 n=69 v=94
239540 On ch=3 n=78 v=94
239820 Off ch=3 n=78 v=64
239820 Off ch=3 n=69 v=64
239820 Off ch=3 n=71 v=64
239820 Off ch=3 n=74 v=64
240020 On ch=3 n=79 v=94
240020 On ch=3 n=76 v=94
240020 On ch=3 n=72 v=94
240020 On ch=3 n=81 v=94
240800 Off ch=3 n=81 v=64
240800 Off ch=3 n=72 v=64
240800 Off ch=3 n=76 v=64
240800 Off ch=3 n=79 v=64
240980 On ch=3 n=74 v=94
240980 On ch=3 n=71 v=94
240980 On ch=3 n=69 v=94
240980 On ch=3 n=78 v=94
241760 Off ch=3 n=78 v=64
241760 Off ch=3 n=69 v=64
241760 Off ch=3 n=71 v=64
241760 Off ch=3 n=74 v=64
242180 On ch=3 n=79 v=94
242180 On ch=3 n=76 v=94
242180 On ch=3 n=72 v=94
242180 On ch=3 n=81 v=94
242480 Off ch=3 n=81 v=64
242480 Off ch=3 n=72 v=64
242480 Off ch=3 n=76 v=64
242480 Off ch=3 n=79 v=64
242900 On ch=3 n=74 v=94
242900 On ch=3 n=71 v=94
242900 On ch=3 n=69 v=94
242900 On ch=3 n=78 v=94
243680 Off ch=3 n=78 v=64
243680 Off ch=3 n=69 v=64
243680 Off ch=3 n=71 v=64
243680 Off ch=3 n=74 v=64
243840 On ch=3 n=79 v=94
243840 On ch=3 n=76 v=94
243860 On ch=3 n=72 v=94
243860 On ch=3 n=81 v=94
244160 Off ch=3 n=81 v=64
244160 Off ch=3 n=72 v=64
244160 Off ch=3 n=76 v=64
244160 Off ch=3 n=79 v=64
244320 On ch=3 n=79 v=94
244320 On ch=3 n=76 v=94
244340 On ch=3 n=72 v=94
244340 On ch=3 n=81 v=94
244620 Off ch=3 n=81 v=64
244620 Off ch=3 n=72 v=64
244620 Off ch=3 n=76 v=64
244620 Off ch=3 n=79 v=64
244820 On ch=3 n=74 v=94
244820 On ch=3 n=71 v=94
244820 On ch=3 n=69 v=94
244820 On ch=3 n=78 v=94
245120 Off ch=3 n=78 v=64
245120 Off ch=3 n=69 v=64
245120 Off ch=3 n=71 v=64
245120 Off ch=3 n=74 v=64
245280 On ch=3 n=74 v=94
245280 On ch=3 n=71 v=94
245280 On ch=3 n=69 v=94
245300 On ch=3 n=78 v=94
245580 Off ch=3 n=78 v=64
245580 Off ch=3 n=69 v=64
245580 Off ch=3 n=71 v=64
245580 Off ch=3 n=74 v=64
246000 On ch=3 n=79 v=94
246000 On ch=3 n=76 v=94
246000 On ch=3 n=72 v=94
246000 On ch=3 n=81 v=94
246320 Off ch=3 n=81 v=64
246320 Off ch=3 n=72 v=64
246320 Off ch=3 n=76 v=64
246320 Off ch=3 n=79 v=64
246740 On ch=3 n=74 v=94
246740 On ch=3 n=71 v=94
246740 On ch=3 n=69 v=94
246740 On ch=3 n=78 v=94
246880 Off ch=3 n=78 v=64
246880 Off ch=3 n=69 v=64
246880 Off ch=3 n=71 v=64
246880 Off ch=3 n=74 v=64
246960 On ch=3 n=74 v=94
246960 On ch=3 n=71 v=94
246960 On ch=3 n=69 v=94
246960 On ch=3 n=78 v=94
247200 Off ch=3 n=78 v=64
247200 Off ch=3 n=69 v=64
247200 Off ch=3 n=71 v=64
247200 Off ch=3 n=74 v=64
247680 On ch=3 n=79 v=94
247700 On ch=3 n=76 v=94
247700 On ch=3 n=72 v=94
247700 On ch=3 n=81 v=94
248480 Off ch=3 n=81 v=64
248480 Off ch=3 n=72 v=64
248480 Off ch=3 n=76 v=64
248480 Off ch=3 n=79 v=64
248640 On ch=3 n=74 v=94
248660 On ch=3 n=71 v=94
248660 On ch=3 n=69 v=94
248660 On ch=3 n=78 v=94
248800 Off ch=3 n=78 v=64
248800 Off ch=3 n=69 v=64
248800 Off ch=3 n=71 v=64
248800 Off ch=3 n=74 v=64
248880 On ch=3 n=74 v=94
248880 On ch=3 n=71 v=94
248880 On ch=3 n=69 v=94
248880 On ch=3 n=78 v=94
249120 Off ch=3 n=78 v=64
249120 Off ch=3 n=69 v=64
249120 Off ch=3 n=71 v=64
249120 Off ch=3 n=74 v=64
249600 On ch=3 n=79 v=94
249620 On ch=3 n=76 v=94
249620 On ch=3 n=72 v=94
249620 On ch=3 n=81 v=94
250400 Off ch=3 n=81 v=64
250400 Off ch=3 n=72 v=64
250400 Off ch=3 n=76 v=64
250400 Off ch=3 n=79 v=64
250560 On ch=3 n=74 v=94
250580 On ch=3 n=71 v=94
250580 On ch=3 n=69 v=94
250580 On ch=3 n=78 v=94
250720 Off ch=3 n=78 v=64
250720 Off ch=3 n=69 v=64
250720 Off ch=3 n=71 v=64
250720 Off ch=3 n=74 v=64
250800 On ch=3 n=74 v=94
250800 On ch=3 n=71 v=94
250800 On ch=3 n=69 v=94
250800 On ch=3 n=78 v=94
251040 Off ch=3 n=78 v=64
251040 Off ch=3 n=69 v=64
251040 Off ch=3 n=71 v=64
251040 Off ch=3 n=74 v=64
251540 On ch=3 n=79 v=94
251540 On ch=3 n=76 v=94
251540 On ch=3 n=72 v=94
251540 On ch=3 n=81 v=94
251840 Off ch=3 n=81 v=64
251840 Off ch=3 n=72 v=64
251840 Off ch=3 n=76 v=64
251840 Off ch=3 n=79 v=64
252000 On ch=3 n=79 v=94
252000 On ch=3 n=76 v=94
252000 On ch=3 n=72 v=94
252020 On ch=3 n=81 v=94
252300 Off ch=3 n=81 v=64
252300 Off ch=3 n=72 v=64
252300 Off ch=3 n=76 v=64
252300 Off ch=3 n=79 v=64
252720 On ch=3 n=74 v=94
252720 On ch=3 n=71 v=94
252720 On ch=3 n=69 v=94
252720 On ch=3 n=78 v=94
253040 Off ch=3 n=78 v=64
253040 Off ch=3 n=69 v=64
253040 Off ch=3 n=71 v=64
253040 Off ch=3 n=74 v=64
253460 On ch=3 n=79 v=94
253460 On ch=3 n=76 v=94
253460 On ch=3 n=72 v=94
253460 On ch=3 n=81 v=94
253760 Off ch=3 n=81 v=64
253760 Off ch=3 n=72 v=64
253760 Off ch=3 n=76 v=64
253760 Off ch=3 n=79 v=64
253920 On ch=3 n=79 v=94
253920 On ch=3 n=76 v=94
253940 On ch=3 n=72 v=94
253940 On ch=3 n=81 v=94
254220 Off ch=3 n=81 v=64
254220 Off ch=3 n=72 v=64
254220 Off ch=3 n=76 v=64
254220 Off ch=3 n=79 v=64
254420 On ch=3 n=74 v=94
254420 On ch=3 n=71 v=94
254420 On ch=3 n=69 v=94
254420 On ch=3 n=78 v=94
255200 Off ch=3 n=78 v=64
255200 Off ch=3 n=69 v=64
255200 Off ch=3 n=71 v=64
255200 Off ch=3 n=74 v=64
255600 On ch=3 n=79 v=94
255600 On ch=3 n=76 v=94
255600 On ch=3 n=72 v=94
255600 On ch=3 n=81 v=94
255920 Off ch=3 n=81 v=64
255920 Off ch=3 n=72 v=64
255920 Off ch=3 n=76 v=64
255920 Off ch=3 n=79 v=64
256560 On ch=3 n=74 v=94
256560 On ch=3 n=71 v=94
256560 On ch=3 n=69 v=94
256560 On ch=3 n=78 v=94
256880 Off ch=3 n=78 v=64
256880 Off ch=3 n=69 v=64
256880 Off ch=3 n=71 v=64
256880 Off ch=3 n=74 v=64
257300 On ch=3 n=79 v=94
257300 On ch=3 n=76 v=94
257300 On ch=3 n=72 v=94
257300 On ch=3 n=81 v=94
257440 Off ch=3 n=81 v=64
257440 Off ch=3 n=72 v=64
257440 Off ch=3 n=76 v=64
257440 Off ch=3 n=79 v=64
257520 On ch=3 n=79 v=94
257520 On ch=3 n=76 v=94
257520 On ch=3 n=72 v=94
257520 On ch=3 n=81 v=94
257760 Off ch=3 n=81 v=64
257760 Off ch=3 n=72 v=64
257760 Off ch=3 n=76 v=64
257760 Off ch=3 n=79 v=64
258260 On ch=3 n=74 v=94
258260 On ch=3 n=71 v=94
258260 On ch=3 n=69 v=94
258260 On ch=3 n=78 v=94
258400 Off ch=3 n=78 v=64
258400 Off ch=3 n=69 v=64
258400 Off ch=3 n=71 v=64
258400 Off ch=3 n=74 v=64
258480 On ch=3 n=74 v=94
258480 On ch=3 n=71 v=94
258480 On ch=3 n=69 v=94
258480 On ch=3 n=78 v=94
258720 Off ch=3 n=78 v=64
258720 Off ch=3 n=69 v=64
258720 Off ch=3 n=71 v=64
258720 Off ch=3 n=74 v=64
259220 On ch=3 n=79 v=94
259220 On ch=3 n=76 v=94
259220 On ch=3 n=72 v=94
259220 On ch=3 n=81 v=94
259360 Off ch=3 n=81 v=64
259360 Off ch=3 n=72 v=64
259360 Off ch=3 n=76 v=64
259360 Off ch=3 n=79 v=64
259440 On ch=3 n=79 v=94
259440 On ch=3 n=76 v=94
259440 On ch=3 n=72 v=94
259440 On ch=3 n=81 v=94
259680 Off ch=3 n=81 v=64
259680 Off ch=3 n=72 v=64
259680 Off ch=3 n=76 v=64
259680 Off ch=3 n=79 v=64
260180 On ch=3 n=74 v=94
260180 On ch=3 n=71 v=94
260180 On ch=3 n=69 v=94
260180 On ch=3 n=78 v=94
260480 Off ch=3 n=78 v=64
260480 Off ch=3 n=69 v=64
260480 Off ch=3 n=71 v=64
260480 Off ch=3 n=74 v=64
260640 On ch=3 n=74 v=94
260640 On ch=3 n=71 v=94
260660 On ch=3 n=69 v=94
260660 On ch=3 n=78 v=94
260940 Off ch=3 n=78 v=64
260940 Off ch=3 n=69 v=64
260940 Off ch=3 n=71 v=64
260940 Off ch=3 n=74 v=64
261120 On ch=3 n=79 v=94
261120 On ch=3 n=76 v=94
261120 On ch=3 n=72 v=94
261120 On ch=3 n=81 v=94
261920 Off ch=3 n=81 v=64
261920 Off ch=3 n=72 v=64
261920 Off ch=3 n=76 v=64
261920 Off ch=3 n=79 v=64
262100 On ch=3 n=74 v=94
262100 On ch=3 n=71 v=94
262100 On ch=3 n=69 v=94
262100 On ch=3 n=78 v=94
262240 Off ch=3 n=78 v=64
262240 Off ch=3 n=69 v=64
262240 Off ch=3 n=71 v=64
262240 Off ch=3 n=74 v=64
262320 On ch=3 n=74 v=94
262320 On ch=3 n=71 v=94
262320 On ch=3 n=69 v=94
262320 On ch=3 n=78 v=94
262560 Off ch=3 n=78 v=64
262560 Off ch=3 n=69 v=64
262560 Off ch=3 n=71 v=64
262560 Off ch=3 n=74 v=64
263280 On ch=3 n=79 v=94
263280 On ch=3 n=76 v=94
263280 On ch=3 n=72 v=94
263280 On ch=3 n=81 v=94
263600 Off ch=3 n=81 v=64
263600 Off ch=3 n=72 v=64
263600 Off ch=3 n=76 v=64
263600 Off ch=3 n=79 v=64
264000 On ch=3 n=74 v=94
264000 On ch=3 n=71 v=94
264000 On ch=3 n=69 v=94
264020 On ch=3 n=78 v=94
264800 Off ch=3 n=78 v=64
264800 Off ch=3 n=69 v=64
264800 Off ch=3 n=71 v=64
264800 Off ch=3 n=74 v=64
264980 On ch=3 n=79 v=94
264980 On ch=3 n=76 v=94
264980 On ch=3 n=72 v=94
264980 On ch=3 n=81 v=94
265120 Off ch=3 n=81 v=64
265120 Off ch=3 n=72 v=64
265120 Off ch=3 n=76 v=64
265120 Off ch=3 n=79 v=64
265200 On ch=3 n=79 v=94
265200 On ch=3 n=76 v=94
265200 On ch=3 n=72 v=94
265200 On ch=3 n=81 v=94
265440 Off ch=3 n=81 v=64
265440 Off ch=3 n=72 v=64
265440 Off ch=3 n=76 v=64
265440 Off ch=3 n=79 v=64
265940 On ch=3 n=74 v=94
265940 On ch=3 n=71 v=94
265940 On ch=3 n=69 v=94
265940 On ch=3 n=78 v=94
266240 Off ch=3 n=78 v=64
266240 Off ch=3 n=69 v=64
266240 Off ch=3 n=71 v=64
266240 Off ch=3 n=74 v=64
266400 On ch=3 n=74 v=94
266400 On ch=3 n=71 v=94
266420 On ch=3 n=69 v=94
266420 On ch=3 n=78 v=94
266700 Off ch=3 n=78 v=64
266700 Off ch=3 n=69 v=64
266700 Off ch=3 n=71 v=64
266700 Off ch=3 n=74 v=64
266900 On ch=3 n=79 v=94
266900 On ch=3 n=76 v=94
266900 On ch=3 n=72 v=94
266900 On ch=3 n=81 v=94
267680 Off ch=3 n=81 v=64
267680 Off ch=3 n=72 v=64
267680 Off ch=3 n=76 v=64
267680 Off ch=3 n=79 v=64
267860 On ch=3 n=74 v=94
267860 On ch=3 n=71 v=94
267860 On ch=3 n=69 v=94
267860 On ch=3 n=78 v=94
268000 Off ch=3 n=78 v=64
268000 Off ch=3 n=69 v=64
268000 Off ch=3 n=71 v=64
268000 Off ch=3 n=74 v=64
268080 On ch=3 n=74 v=94
268080 On ch=3 n=71 v=94
268100 On ch=3 n=69 v=94
268100 On ch=3 n=78 v=94
268320 Off ch=3 n=78 v=64
268320 Off ch=3 n=69 v=64
268320 Off ch=3 n=71 v=64
268320 Off ch=3 n=74 v=64
268820 On ch=3 n=79 v=94
268820 On ch=3 n=76 v=94
268820 On ch=3 n=72 v=94
268820 On ch=3 n=81 v=94
269120 Off ch=3 n=81 v=64
269120 Off ch=3 n=72 v=64
269120 Off ch=3 n=76 v=64
269120 Off ch=3 n=79 v=64
269280 On ch=3 n=79 v=94
269280 On ch=3 n=76 v=94
269280 On ch=3 n=72 v=94
269280 On ch=3 n=81 v=94
269580 Off ch=3 n=81 v=64
269580 Off ch=3 n=72 v=64
269580 Off ch=3 n=76 v=64
269580 Off ch=3 n=79 v=64
269760 On ch=3 n=74 v=94
269760 On ch=3 n=71 v=94
269780 On ch=3 n=69 v=94
269780 On ch=3 n=78 v=94
270080 Off ch=3 n=78 v=64
270080 Off ch=3 n=69 v=64
270080 Off ch=3 n=71 v=64
270080 Off ch=3 n=74 v=64
270240 On ch=3 n=74 v=94
270240 On ch=3 n=71 v=94
270260 On ch=3 n=69 v=94
270260 On ch=3 n=78 v=94
270540 Off ch=3 n=78 v=64
270540 Off ch=3 n=69 v=64
270540 Off ch=3 n=71 v=64
270540 Off ch=3 n=74 v=64
270740 On ch=3 n=79 v=94
270740 On ch=3 n=76 v=94
270740 On ch=3 n=72 v=94
270740 On ch=3 n=81 v=94
271520 Off ch=3 n=81 v=64
271520 Off ch=3 n=72 v=64
271520 Off ch=3 n=76 v=64
271520 Off ch=3 n=79 v=64
271700 On ch=3 n=74 v=94
271700 On ch=3 n=71 v=94
271700 On ch=3 n=69 v=94
271700 On ch=3 n=78 v=94
272480 Off ch=3 n=78 v=64
272480 Off ch=3 n=69 v=64
272480 Off ch=3 n=71 v=64
272480 Off ch=3 n=74 v=64
272900 On ch=3 n=79 v=94
272900 On ch=3 n=76 v=94
272900 On ch=3 n=72 v=94
272900 On ch=3 n=81 v=94
273200 Off ch=3 n=81 v=64
273200 Off ch=3 n=72 v=64
273200 Off ch=3 n=76 v=64
273200 Off ch=3 n=79 v=64
273620 On ch=3 n=74 v=94
273620 On ch=3 n=71 v=94
273620 On ch=3 n=69 v=94
273620 On ch=3 n=78 v=94
274400 Off ch=3 n=78 v=64
274400 Off ch=3 n=69 v=64
274400 Off ch=3 n=71 v=64
274400 Off ch=3 n=74 v=64
274560 On ch=3 n=79 v=94
274560 On ch=3 n=76 v=94
274580 On ch=3 n=72 v=94
274580 On ch=3 n=81 v=94
274880 Off ch=3 n=81 v=64
274880 Off ch=3 n=72 v=64
274880 Off ch=3 n=76 v=64
274880 Off ch=3 n=79 v=64
275040 On ch=3 n=79 v=94
275040 On ch=3 n=76 v=94
275060 On ch=3 n=72 v=94
275060 On ch=3 n=81 v=94
275340 Off ch=3 n=81 v=64
275340 Off ch=3 n=72 v=64
275340 Off ch=3 n=76 v=64
275340 Off ch=3 n=79 v=64
275540 On ch=3 n=74 v=94
275540 On ch=3 n=71 v=94
275540 On ch=3 n=69 v=94
275540 On ch=3 n=78 v=94
275840 Off ch=3 n=78 v=64
275840 Off ch=3 n=69 v=64
275840 Off ch=3 n=71 v=64
275840 Off ch=3 n=74 v=64
276000 On ch=3 n=74 v=94
276000 On ch=3 n=71 v=94
276000 On ch=3 n=69 v=94
276020 On ch=3 n=78 v=94
276300 Off ch=3 n=78 v=64
276300 Off ch=3 n=69 v=64
276300 Off ch=3 n=71 v=64
276300 Off ch=3 n=74 v=64
276720 On ch=3 n=79 v=94
276720 On ch=3 n=76 v=94
276720 On ch=3 n=72 v=94
276720 On ch=3 n=81 v=94
277040 Off ch=3 n=81 v=64
277040 Off ch=3 n=72 v=64
277040 Off ch=3 n=76 v=64
277040 Off ch=3 n=79 v=64
277460 On ch=3 n=74 v=94
277460 On ch=3 n=71 v=94
277460 On ch=3 n=69 v=94
277460 On ch=3 n=78 v=94
277600 Off ch=3 n=78 v=64
277600 Off ch=3 n=69 v=64
277600 Off ch=3 n=71 v=64
277600 Off ch=3 n=74 v=64
277680 On ch=3 n=74 v=94
277680 On ch=3 n=71 v=94
277680 On ch=3 n=69 v=94
277680 On ch=3 n=78 v=94
277920 Off ch=3 n=78 v=64
277920 Off ch=3 n=69 v=64
277920 Off ch=3 n=71 v=64
277920 Off ch=3 n=74 v=64
278400 On ch=3 n=79 v=94
278420 On ch=3 n=76 v=94
278420 On ch=3 n=72 v=94
278420 On ch=3 n=81 v=94
279200 Off ch=3 n=81 v=64
279200 Off ch=3 n=72 v=64
279200 Off ch=3 n=76 v=64
279200 Off ch=3 n=79 v=64
279360 On ch=3 n=74 v=94
279380 On ch=3 n=71 v=94
279380 On ch=3 n=69 v=94
279380 On ch=3 n=78 v=94
279520 Off ch=3 n=78 v=64
279520 Off ch=3 n=69 v=64
279520 Off ch=3 n=71 v=64
279520 Off ch=3 n=74 v=64
279600 On ch=3 n=74 v=94
279600 On ch=3 n=71 v=94
279600 On ch=3 n=69 v=94
279600 On ch=3 n=78 v=94
279840 Off ch=3 n=78 v=64
279840 Off ch=3 n=69 v=64
279840 Off ch=3 n=71 v=64
279840 Off ch=3 n=74 v=64
280340 On ch=3 n=79 v=94
280340 On ch=3 n=76 v=94
280340 On ch=3 n=72 v=94
280340 On ch=3 n=81 v=94
280640 Off ch=3 n=81 v=64
280640 Off ch=3 n=72 v=64
280640 Off ch=3 n=76 v=64
280640 Off ch=3 n=79 v=64
280800 On ch=3 n=79 v=94
280800 On ch=3 n=76 v=94
280800 On ch=3 n=72 v=94
280820 On ch=3 n=81 v=94
281100 Off ch=3 n=81 v=64
281100 Off ch=3 n=72 v=64
281100 Off ch=3 n=76 v=64
281100 Off ch=3 n=79 v=64
281520 On ch=3 n=74 v=94
281520 On ch=3 n=71 v=94
281520 On ch=3 n=69 v=94
281520 On ch=3 n=78 v=94
281840 Off ch=3 n=78 v=64
281840 Off ch=3 n=69 v=64
281840 Off ch=3 n=71 v=64
281840 Off ch=3 n=74 v=64
282260 On ch=3 n=79 v=94
282260 On ch=3 n=76 v=94
282260 On ch=3 n=72 v=94
282260 On ch=3 n=81 v=94
282560 Off ch=3 n=81 v=64
282560 Off ch=3 n=72 v=64
282560 Off ch=3 n=76 v=64
282560 Off ch=3 n=79 v=64
282720 On ch=3 n=79 v=94
282720 On ch=3 n=76 v=94
282740 On ch=3 n=72 v=94
282740 On ch=3 n=81 v=94
283020 Off ch=3 n=81 v=64
283020 Off ch=3 n=72 v=64
283020 Off ch=3 n=76 v=64
283020 Off ch=3 n=79 v=64
283220 On ch=3 n=74 v=94
283220 On ch=3 n=71 v=94
283220 On ch=3 n=69 v=94
283220 On ch=3 n=78 v=94
284000 Off ch=3 n=78 v=64
284000 Off ch=3 n=69 v=64
284000 Off ch=3 n=71 v=64
284000 Off ch=3 n=74 v=64
284400 On ch=3 n=79 v=94
284400 On ch=3 n=76 v=94
284400 On ch=3 n=72 v=94
284400 On ch=3 n=81 v=94
284720 Off ch=3 n=81 v=64
284720 Off ch=3 n=72 v=64
284720 Off ch=3 n=76 v=64
284720 Off ch=3 n=79 v=64
285360 On ch=3 n=74 v=94
285360 On ch=3 n=71 v=94
285360 On ch=3 n=69 v=94
285360 On ch=3 n=78 v=94
285680 Off ch=3 n=78 v=64
285680 Off ch=3 n=69 v=64
285680 Off ch=3 n=71 v=64
285680 Off ch=3 n=74 v=64
286100 On ch=3 n=79 v=94
286100 On ch=3 n=76 v=94
286100 On ch=3 n=72 v=94
286100 On ch=3 n=81 v=94
286240 Off ch=3 n=81 v=64
286240 Off ch=3 n=72 v=64
286240 Off ch=3 n=76 v=64
286240 Off ch=3 n=79 v=64
286320 On ch=3 n=79 v=94
286320 On ch=3 n=76 v=94
286320 On ch=3 n=72 v=94
286340 On ch=3 n=81 v=94
286560 Off ch=3 n=81 v=64
286560 Off ch=3 n=72 v=64
286560 Off ch=3 n=76 v=64
286560 Off ch=3 n=79 v=64
287060 On ch=3 n=74 v=94
287060 On ch=3 n=71 v=94
287060 On ch=3 n=69 v=94
287060 On ch=3 n=78 v=94
287200 Off ch=3 n=78 v=64
287200 Off ch=3 n=69 v=64
287200 Off ch=3 n=71 v=64
287200 Off ch=3 n=74 v=64
287280 On ch=3 n=74 v=94
287280 On ch=3 n=71 v=94
287300 On ch=3 n=69 v=94
287300 On ch=3 n=78 v=94
287520 Off ch=3 n=78 v=64
287520 Off ch=3 n=69 v=64
287520 Off ch=3 n=71 v=64
287520 Off ch=3 n=74 v=64
288020 On ch=3 n=79 v=94
288020 On ch=3 n=76 v=94
288020 On ch=3 n=72 v=94
288020 On ch=3 n=81 v=94
288160 Off ch=3 n=81 v=64
288160 Off ch=3 n=72 v=64
288160 Off ch=3 n=76 v=64
288160 Off ch=3 n=79 v=64
288240 On ch=3 n=79 v=94
288240 On ch=3 n=76 v=94
288240 On ch=3 n=72 v=94
288240 On ch=3 n=81 v=94
288480 Off ch=3 n=81 v=64
288480 Off ch=3 n=72 v=64
288480 Off ch=3 n=76 v=64
288480 Off ch=3 n=79 v=64
288980 On ch=3 n=74 v=94
288980 On ch=3 n=71 v=94
288980 On ch=3 n=69 v=94
288980 On ch=3 n=78 v=94
289280 Off ch=3 n=78 v=64
289280 Off ch=3 n=69 v=64
289280 Off ch=3 n=71 v=64
289280 Off ch=3 n=74 v=64
289440 On ch=3 n=74 v=94
289440 On ch=3 n=71 v=94
289460 On ch=3 n=69 v=94
289460 On ch=3 n=78 v=94
289740 Off ch=3 n=78 v=64
289740 Off ch=3 n=69 v=64
289740 Off ch=3 n=71 v=64
289740 Off ch=3 n=74 v=64
289920 On ch=3 n=79 v=94
289920 On ch=3 n=76 v=94
289920 On ch=3 n=72 v=94
289920 On ch=3 n=81 v=94
290720 Off ch=3 n=81 v=64
290720 Off ch=3 n=72 v=64
290720 Off ch=3 n=76 v=64
290720 Off ch=3 n=79 v=64
290900 On ch=3 n=74 v=94
290900 On ch=3 n=71 v=94
290900 On ch=3 n=69 v=94
290900 On ch=3 n=78 v=94
291040 Off ch=3 n=78 v=64
291040 Off ch=3 n=69 v=64
291040 Off ch=3 n=71 v=64
291040 Off ch=3 n=74 v=64
291120 On ch=3 n=74 v=94
291120 On ch=3 n=71 v=94
291120 On ch=3 n=69 v=94
291120 On ch=3 n=78 v=94
291360 Off ch=3 n=78 v=64
291360 Off ch=3 n=69 v=64
291360 Off ch=3 n=71 v=64
291360 Off ch=3 n=74 v=64
294000 On ch=3 n=79 v=94
294000 On ch=3 n=76 v=94
294000 On ch=3 n=72 v=94
294000 On ch=3 n=81 v=94
294320 Off ch=3 n=81 v=64
294320 Off ch=3 n=72 v=64
294320 Off ch=3 n=76 v=64
294320 Off ch=3 n=79 v=64
294720 On ch=3 n=74 v=94
294720 On ch=3 n=71 v=94
294720 On ch=3 n=69 v=94
294740 On ch=3 n=78 v=94
295520 Off ch=3 n=78 v=64
295520 Off ch=3 n=69 v=64
295520 Off ch=3 n=71 v=64
295520 Off ch=3 n=74 v=64
295680 On ch=3 n=79 v=94
295680 On ch=3 n=76 v=94
295700 On ch=3 n=72 v=94
295700 On ch=3 n=81 v=94
296480 Off ch=3 n=81 v=64
296480 Off ch=3 n=72 v=64
296480 Off ch=3 n=76 v=64
296480 Off ch=3 n=79 v=64
296640 On ch=3 n=74 v=94
296660 On ch=3 n=71 v=94
296660 On ch=3 n=69 v=94
296660 On ch=3 n=78 v=94
296800 Off ch=3 n=78 v=64
296800 Off ch=3 n=69 v=64
296800 Off ch=3 n=71 v=64
296800 Off ch=3 n=74 v=64
296880 On ch=3 n=74 v=94
296880 On ch=3 n=71 v=94
296880 On ch=3 n=69 v=94
296880 On ch=3 n=78 v=94
297120 Off ch=3 n=78 v=64
297120 Off ch=3 n=69 v=64
297120 Off ch=3 n=71 v=64
297120 Off ch=3 n=74 v=64
297620 On ch=3 n=79 v=94
297620 On ch=3 n=76 v=94
297620 On ch=3 n=72 v=94
297620 On ch=3 n=81 v=94
297760 Off ch=3 n=81 v=64
297760 Off ch=3 n=72 v=64
297760 Off ch=3 n=76 v=64
297760 Off ch=3 n=79 v=64
297840 On ch=3 n=79 v=94
297840 On ch=3 n=76 v=94
297840 On ch=3 n=72 v=94
297840 On ch=3 n=81 v=94
298080 Off ch=3 n=81 v=64
298080 Off ch=3 n=72 v=64
298080 Off ch=3 n=76 v=64
298080 Off ch=3 n=79 v=64
298580 On ch=3 n=74 v=94
298580 On ch=3 n=71 v=94
298580 On ch=3 n=69 v=94
298580 On ch=3 n=78 v=94
298880 Off ch=3 n=78 v=64
298880 Off ch=3 n=69 v=64
298880 Off ch=3 n=71 v=64
298880 Off ch=3 n=74 v=64
299040 On ch=3 n=74 v=94
299040 On ch=3 n=71 v=94
299060 On ch=3 n=69 v=94
299060 On ch=3 n=78 v=94
299340 Off ch=3 n=78 v=64
299340 Off ch=3 n=69 v=64
299340 Off ch=3 n=71 v=64
299340 Off ch=3 n=74 v=64
299540 On ch=3 n=79 v=94
299540 On ch=3 n=76 v=94
299540 On ch=3 n=72 v=94
299540 On ch=3 n=81 v=94
300320 Off ch=3 n=81 v=64
300320 Off ch=3 n=72 v=64
300320 Off ch=3 n=76 v=64
300320 Off ch=3 n=79 v=64
300500 On ch=3 n=74 v=94
300500 On ch=3 n=71 v=94
300500 On ch=3 n=69 v=94
300500 On ch=3 n=78 v=94
300640 Off ch=3 n=78 v=64
300640 Off ch=3 n=69 v=64
300640 Off ch=3 n=71 v=64
300640 Off ch=3 n=74 v=64
300720 On ch=3 n=74 v=94
300720 On ch=3 n=71 v=94
300740 On ch=3 n=69 v=94
300740 On ch=3 n=78 v=94
300960 Off ch=3 n=78 v=64
300960 Off ch=3 n=69 v=64
300960 Off ch=3 n=71 v=64
300960 Off ch=3 n=74 v=64
301460 On ch=3 n=79 v=94
301460 On ch=3 n=76 v=94
301460 On ch=3 n=72 v=94
301460 On ch=3 n=81 v=94
301760 Off ch=3 n=81 v=64
301760 Off ch=3 n=72 v=64
301760 Off ch=3 n=76 v=64
301760 Off ch=3 n=79 v=64
301920 On ch=3 n=79 v=94
301920 On ch=3 n=76 v=94
301920 On ch=3 n=72 v=94
301920 On ch=3 n=81 v=94
302220 Off ch=3 n=81 v=64
302220 Off ch=3 n=72 v=64
302220 Off ch=3 n=76 v=64
302220 Off ch=3 n=79 v=64
302400 On ch=3 n=74 v=94
302400 On ch=3 n=71 v=94
302420 On ch=3 n=69 v=94
302420 On ch=3 n=78 v=94
302720 Off ch=3 n=78 v=64
302720 Off ch=3 n=69 v=64
302720 Off ch=3 n=71 v=64
302720 Off ch=3 n=74 v=64
302880 On ch=3 n=74 v=94
302880 On ch=3 n=71 v=94
302900 On ch=3 n=69 v=94
302900 On ch=3 n=78 v=94
303180 Off ch=3 n=78 v=64
303180 Off ch=3 n=69 v=64
303180 Off ch=3 n=71 v=64
303180 Off ch=3 n=74 v=64
303380 On ch=3 n=79 v=94
303380 On ch=3 n=76 v=94
303380 On ch=3 n=72 v=94
303380 On ch=3 n=81 v=94
304160 Off ch=3 n=81 v=64
304160 Off ch=3 n=72 v=64
304160 Off ch=3 n=76 v=64
304160 Off ch=3 n=79 v=64
304340 On ch=3 n=74 v=94
304340 On ch=3 n=71 v=94
304340 On ch=3 n=69 v=94
304340 On ch=3 n=78 v=94
305120 Off ch=3 n=78 v=64
305120 Off ch=3 n=69 v=64
305120 Off ch=3 n=71 v=64
305120 Off ch=3 n=74 v=64
305540 On ch=3 n=79 v=94
305540 On ch=3 n=76 v=94
305540 On ch=3 n=72 v=94
305540 On ch=3 n=81 v=94
305840 Off ch=3 n=81 v=64
305840 Off ch=3 n=72 v=64
305840 Off ch=3 n=76 v=64
305840 Off ch=3 n=79 v=64
306260 On ch=3 n=74 v=94
306260 On ch=3 n=71 v=94
306260 On ch=3 n=69 v=94
306260 On ch=3 n=78 v=94
307040 Off ch=3 n=78 v=64
307040 Off ch=3 n=69 v=64
307040 Off ch=3 n=71 v=64
307040 Off ch=3 n=74 v=64
307200 On ch=3 n=79 v=94
307200 On ch=3 n=76 v=94
307220 On ch=3 n=72 v=94
307220 On ch=3 n=81 v=94
307520 Off ch=3 n=81 v=64
307520 Off ch=3 n=72 v=64
307520 Off ch=3 n=76 v=64
307520 Off ch=3 n=79 v=64
307680 On ch=3 n=79 v=94
307680 On ch=3 n=76 v=94
307700 On ch=3 n=72 v=94
307700 On ch=3 n=81 v=94
307980 Off ch=3 n=81 v=64
307980 Off ch=3 n=72 v=64
307980 Off ch=3 n=76 v=64
307980 Off ch=3 n=79 v=64
308180 On ch=3 n=74 v=94
308180 On ch=3 n=71 v=94
308180 On ch=3 n=69 v=94
308180 On ch=3 n=78 v=94
308480 Off ch=3 n=78 v=64
308480 Off ch=3 n=69 v=64
308480 Off ch=3 n=71 v=64
308480 Off ch=3 n=74 v=64
308640 On ch=3 n=74 v=94
308640 On ch=3 n=71 v=94
308640 On ch=3 n=69 v=94
308660 On ch=3 n=78 v=94
308940 Off ch=3 n=78 v=64
308940 Off ch=3 n=69 v=64
308940 Off ch=3 n=71 v=64
308940 Off ch=3 n=74 v=64
309360 On ch=3 n=79 v=94
309360 On ch=3 n=76 v=94
309360 On ch=3 n=72 v=94
309360 On ch=3 n=81 v=94
309680 Off ch=3 n=81 v=64
309680 Off ch=3 n=72 v=64
309680 Off ch=3 n=76 v=64
309680 Off ch=3 n=79 v=64
310100 On ch=3 n=74 v=94
310100 On ch=3 n=71 v=94
310100 On ch=3 n=69 v=94
310100 On ch=3 n=78 v=94
310240 Off ch=3 n=78 v=64
310240 Off ch=3 n=69 v=64
310240 Off ch=3 n=71 v=64
310240 Off ch=3 n=74 v=64
310320 On ch=3 n=74 v=94
310320 On ch=3 n=71 v=94
310320 On ch=3 n=69 v=94
310320 On ch=3 n=78 v=94
310560 Off ch=3 n=78 v=64
310560 Off ch=3 n=69 v=64
310560 Off ch=3 n=71 v=64
310560 Off ch=3 n=74 v=64
311040 On ch=3 n=79 v=94
311060 On ch=3 n=76 v=94
311060 On ch=3 n=72 v=94
311060 On ch=3 n=81 v=94
311840 Off ch=3 n=81 v=64
311840 Off ch=3 n=72 v=64
311840 Off ch=3 n=76 v=64
311840 Off ch=3 n=79 v=64
312000 On ch=3 n=74 v=94
312020 On ch=3 n=71 v=94
312020 On ch=3 n=69 v=94
312020 On ch=3 n=78 v=94
312160 Off ch=3 n=78 v=64
312160 Off ch=3 n=69 v=64
312160 Off ch=3 n=71 v=64
312160 Off ch=3 n=74 v=64
312240 On ch=3 n=74 v=94
312240 On ch=3 n=71 v=94
312240 On ch=3 n=69 v=94
312240 On ch=3 n=78 v=94
312480 Off ch=3 n=78 v=64
312480 Off ch=3 n=69 v=64
312480 Off ch=3 n=71 v=64
312480 Off ch=3 n=74 v=64
312980 On ch=3 n=79 v=94
312980 On ch=3 n=76 v=94
312980 On ch=3 n=72 v=94
312980 On ch=3 n=81 v=94
313280 Off ch=3 n=81 v=64
313280 Off ch=3 n=72 v=64
313280 Off ch=3 n=76 v=64
313280 Off ch=3 n=79 v=64
313440 On ch=3 n=79 v=94
313440 On ch=3 n=76 v=94
313440 On ch=3 n=72 v=94
313460 On ch=3 n=81 v=94
313740 Off ch=3 n=81 v=64
313740 Off ch=3 n=72 v=64
313740 Off ch=3 n=76 v=64
313740 Off ch=3 n=79 v=64
314160 On ch=3 n=74 v=94
314160 On ch=3 n=71 v=94
314160 On ch=3 n=69 v=94
314160 On ch=3 n=78 v=94
314480 Off ch=3 n=78 v=64
314480 Off ch=3 n=69 v=64
314480 Off ch=3 n=71 v=64
314480 Off ch=3 n=74 v=64
314900 On ch=3 n=79 v=94
314900 On ch=3 n=76 v=94
314900 On ch=3 n=72 v=94
314900 On ch=3 n=81 v=94
315200 Off ch=3 n=81 v=64
315200 Off ch=3 n=72 v=64
315200 Off ch=3 n=76 v=64
315200 Off ch=3 n=79 v=64
315360 On ch=3 n=79 v=94
315360 On ch=3 n=76 v=94
315380 On ch=3 n=72 v=94
315380 On ch=3 n=81 v=94
315660 Off ch=3 n=81 v=64
315660 Off ch=3 n=72 v=64
315660 Off ch=3 n=76 v=64
315660 Off ch=3 n=79 v=64
315860 On ch=3 n=74 v=94
315860 On ch=3 n=71 v=94
315860 On ch=3 n=69 v=94
315860 On ch=3 n=78 v=94
316640 Off ch=3 n=78 v=64
316640 Off ch=3 n=69 v=64
316640 Off ch=3 n=71 v=64
316640 Off ch=3 n=74 v=64
317040 On ch=3 n=79 v=94
317040 On ch=3 n=76 v=94
317040 On ch=3 n=72 v=94
317040 On ch=3 n=81 v=94
317360 Off ch=3 n=81 v=64
317360 Off ch=3 n=72 v=64
317360 Off ch=3 n=76 v=64
317360 Off ch=3 n=79 v=64
318000 On ch=3 n=74 v=94
318000 On ch=3 n=71 v=94
318000 On ch=3 n=69 v=94
318000 On ch=3 n=78 v=94
318320 Off ch=3 n=78 v=64
318320 Off ch=3 n=69 v=64
318320 Off ch=3 n=71 v=64
318320 Off ch=3 n=74 v=64
318740 On ch=3 n=79 v=94
318740 On ch=3 n=76 v=94
318740 On ch=3 n=72 v=94
318740 On ch=3 n=81 v=94
318880 Off ch=3 n=81 v=64
318880 Off ch=3 n=72 v=64
318880 Off ch=3 n=76 v=64
318880 Off ch=3 n=79 v=64
318960 On ch=3 n=79 v=94
318960 On ch=3 n=76 v=94
318960 On ch=3 n=72 v=94
318960 On ch=3 n=81 v=94
319200 Off ch=3 n=81 v=64
319200 Off ch=3 n=72 v=64
319200 Off ch=3 n=76 v=64
319200 Off ch=3 n=79 v=64
319700 On ch=3 n=74 v=94
319700 On ch=3 n=71 v=94
319700 On ch=3 n=69 v=94
319700 On ch=3 n=78 v=94
319840 Off ch=3 n=78 v=64
319840 Off ch=3 n=69 v=64
319840 Off ch=3 n=71 v=64
319840 Off ch=3 n=74 v=64
319920 On ch=3 n=74 v=94
319920 On ch=3 n=71 v=94
319920 On ch=3 n=69 v=94
319920 On ch=3 n=78 v=94
320160 Off ch=3 n=78 v=64
320160 Off ch=3 n=69 v=64
320160 Off ch=3 n=71 v=64
320160 Off ch=3 n=74 v=64
320660 On ch=3 n=79 v=94
320660 On ch=3 n=76 v=94
320660 On ch=3 n=72 v=94
320660 On ch=3 n=81 v=94
320800 Off ch=3 n=81 v=64
320800 Off ch=3 n=72 v=64
320800 Off ch=3 n=76 v=64
320800 Off ch=3 n=79 v=64
320880 On ch=3 n=79 v=94
320880 On ch=3 n=76 v=94
320880 On ch=3 n=72 v=94
320880 On ch=3 n=81 v=94
321120 Off ch=3 n=81 v=64
321120 Off ch=3 n=72 v=64
321120 Off ch=3 n=76 v=64
321120 Off ch=3 n=79 v=64
321620 On ch=3 n=74 v=94
321620 On ch=3 n=71 v=94
321620 On ch=3 n=69 v=94
321620 On ch=3 n=78 v=94
321920 Off ch=3 n=78 v=64
321920 Off ch=3 n=69 v=64
321920 Off ch=3 n=71 v=64
321920 Off ch=3 n=74 v=64
322080 On ch=3 n=74 v=94
322080 On ch=3 n=71 v=94
322100 On ch=3 n=69 v=94
322100 On ch=3 n=78 v=94
322380 Off ch=3 n=78 v=64
322380 Off ch=3 n=69 v=64
322380 Off ch=3 n=71 v=64
322380 Off ch=3 n=74 v=64
322560 On ch=3 n=79 v=94
322560 On ch=3 n=76 v=94
322560 On ch=3 n=72 v=94
322560 On ch=3 n=81 v=94
323360 Off ch=3 n=81 v=64
323360 Off ch=3 n=72 v=64
323360 Off ch=3 n=76 v=64
323360 Off ch=3 n=79 v=64
323540 On ch=3 n=74 v=94
323540 On ch=3 n=71 v=94
323540 On ch=3 n=69 v=94
323540 On ch=3 n=78 v=94
323680 Off ch=3 n=78 v=64
323680 Off ch=3 n=69 v=64
323680 Off ch=3 n=71 v=64
323680 Off ch=3 n=74 v=64
323760 On ch=3 n=74 v=94
323760 On ch=3 n=71 v=94
323760 On ch=3 n=69 v=94
323760 On ch=3 n=78 v=94
324000 Off ch=3 n=78 v=64
324000 Off ch=3 n=69 v=64
324000 Off ch=3 n=71 v=64
324000 Off ch=3 n=74 v=64
324720 On ch=3 n=79 v=94
324720 On ch=3 n=76 v=94
324720 On ch=3 n=72 v=94
324720 On ch=3 n=81 v=94
325040 Off ch=3 n=81 v=64
325040 Off ch=3 n=72 v=64
325040 Off ch=3 n=76 v=64
325040 Off ch=3 n=79 v=64
325440 On ch=3 n=74 v=94
325440 On ch=3 n=71 v=94
325440 On ch=3 n=69 v=94
325460 On ch=3 n=78 v=94
326240 Off ch=3 n=78 v=64
326240 Off ch=3 n=69 v=64
326240 Off ch=3 n=71 v=64
326240 Off ch=3 n=74 v=64
326400 On ch=3 n=74 v=94
326400 On ch=3 n=76 v=94
326400 On ch=3 n=71 v=94
326400 On ch=3 n=80 v=94
326940 Off ch=3 n=71 v=64
327020 Off ch=3 n=74 v=64
327060 On ch=3 n=71 v=94
327100 Off ch=3 n=76 v=64
327160 Off ch=3 n=80 v=64
327300 On ch=3 n=80 v=94
327320 On ch=3 n=74 v=94
327320 On ch=3 n=76 v=94
327660 Off ch=3 n=76 v=64
327660 Off ch=3 n=74 v=64
327680 Off ch=3 n=80 v=64
327720 Off ch=3 n=71 v=64
327760 On ch=3 n=71 v=94
327780 On ch=3 n=74 v=94
327780 On ch=3 n=80 v=94
327800 On ch=3 n=76 v=94
327860 Off ch=3 n=71 v=64
328000 Off ch=3 n=76 v=64
328060 On ch=3 n=71 v=94
328080 On ch=3 n=76 v=94
328100 Off ch=3 n=76 v=64
328160 Off ch=3 n=74 v=64
328180 Off ch=3 n=80 v=64
328300 On ch=3 n=76 v=94
328320 Off ch=3 n=71 v=64
328320 Off ch=3 n=76 v=64
328320 On ch=3 n=71 v=94
328320 On ch=3 n=74 v=94
328320 On ch=3 n=80 v=94
328320 On ch=3 n=76 v=94
328322 Off ch=3 n=76 v=64
328322 Off ch=3 n=71 v=64
328420 Off ch=3 n=74 v=64
328420 Off ch=3 n=80 v=64
328500 On ch=3 n=71 v=94
328500 On ch=3 n=80 v=94
328500 On ch=3 n=74 v=94
328500 On ch=3 n=76 v=94
328660 Off ch=3 n=76 v=64
328660 Off ch=3 n=74 v=64
328680 Off ch=3 n=80 v=64
328680 Off ch=3 n=71 v=64
328780 On ch=3 n=71 v=94
328780 On ch=3 n=80 v=94
328780 On ch=3 n=74 v=94
328780 On ch=3 n=76 v=94
328920 Off ch=3 n=76 v=64
328920 Off ch=3 n=74 v=64
328940 Off ch=3 n=71 v=64
328960 Off ch=3 n=80 v=64
329000 On ch=3 n=80 v=94
329000 On ch=3 n=71 v=94
329020 On ch=3 n=74 v=94
329020 On ch=3 n=76 v=94
329140 Off ch=3 n=76 v=64
329140 Off ch=3 n=74 v=64
329160 Off ch=3 n=71 v=64
329180 Off ch=3 n=80 v=64
329260 On ch=3 n=71 v=94
329260 On ch=3 n=80 v=94
329260 On ch=3 n=74 v=94
329260 On ch=3 n=76 v=94
329400 Off ch=3 n=76 v=64
329420 Off ch=3 n=74 v=64
329420 Off ch=3 n=80 v=64
329420 Off ch=3 n=71 v=64
329500 On ch=3 n=80 v=94
329500 On ch=3 n=71 v=94
329500 On ch=3 n=74 v=94
329500 On ch=3 n=76 v=94
329660 Off ch=3 n=76 v=64
329660 Off ch=3 n=74 v=64
329680 Off ch=3 n=71 v=64
329680 Off ch=3 n=80 v=64
329740 On ch=3 n=80 v=94
329740 On ch=3 n=71 v=94
329740 On ch=3 n=74 v=94
329760 On ch=3 n=76 v=94
329880 Off ch=3 n=76 v=64
329880 Off ch=3 n=74 v=64
329900 Off ch=3 n=71 v=64
329900 Off ch=3 n=80 v=64
329960 On ch=3 n=71 v=94
329960 On ch=3 n=80 v=94
329960 On ch=3 n=74 v=94
329960 On ch=3 n=76 v=94
330100 Off ch=3 n=76 v=64
330100 Off ch=3 n=74 v=64
330100 Off ch=3 n=80 v=64
330100 Off ch=3 n=71 v=64
330616 On ch=3 n=72 v=117
331096 Off ch=3 n=72 v=64
331336 On ch=3 n=72 v=117
331576 Off ch=3 n=72 v=64
331576 On ch=3 n=72 v=117
331816 Off ch=3 n=72 v=64
331816 On ch=3 n=71 v=117
332536 Off ch=3 n=71 v=64
332536 On ch=3 n=71 v=117
333256 Off ch=3 n=71 v=64
333256 On ch=3 n=71 v=117
333496 Off ch=3 n=71 v=64
333496 On ch=3 n=71 v=117
333612 On ch=3 n=71 v=117
333625 Off ch=3 n=71 v=64
333736 Off ch=3 n=71 v=64
334560 On ch=3 n=72 v=117
335040 Off ch=3 n=72 v=64
335280 On ch=3 n=72 v=117
335520 Off ch=3 n=72 v=64
335520 On ch=3 n=72 v=117
335760 Off ch=3 n=72 v=64
335760 On ch=3 n=71 v=117
336480 Off ch=3 n=71 v=64
336480 On ch=3 n=71 v=117
337200 Off ch=3 n=71 v=64
337200 On ch=3 n=71 v=117
337440 Off ch=3 n=71 v=64
337440 On ch=3 n=71 v=117
337556 On ch=3 n=71 v=117
337569 Off ch=3 n=71 v=64
337680 Off ch=3 n=71 v=64
338140 On ch=3 n=72 v=117
338620 Off ch=3 n=72 v=64
338860 On ch=3 n=72 v=117
339100 Off ch=3 n=72 v=64
339100 On ch=3 n=72 v=117
339340 Off ch=3 n=72 v=64
339340 On ch=3 n=71 v=117
340060 Off ch=3 n=71 v=64
340398 On ch=3 n=72 v=117
340878 Off ch=3 n=72 v=64
341066 On ch=3 n=72 v=117
341306 Off ch=3 n=72 v=64
341306 On ch=3 n=72 v=117
341546 Off ch=3 n=72 v=64
341546 On ch=3 n=71 v=117
342266 Off ch=3 n=71 v=64
342266 On ch=3 n=71 v=117
342986 Off ch=3 n=71 v=64
342986 On ch=3 n=71 v=117
343226 Off ch=3 n=71 v=64
343226 On ch=3 n=71 v=117
343342 On ch=3 n=71 v=117
343355 Off ch=3 n=71 v=64
343466 Off ch=3 n=71 v=64
346080 On ch=3 n=67 v=117
346560 Off ch=3 n=67 v=64
346560 On ch=3 n=73 v=117
347040 Off ch=3 n=73 v=64
347040 On ch=3 n=69 v=117
347760 Off ch=3 n=69 v=64
347760 On ch=3 n=66 v=117
347880 Off ch=3 n=66 v=64
347880 On ch=3 n=67 v=117
348000 Off ch=3 n=67 v=64
348000 On ch=3 n=69 v=117
348240 Off ch=3 n=69 v=64
348240 On ch=3 n=74 v=117
348480 Off ch=3 n=74 v=64
348480 On ch=3 n=69 v=117
348720 Off ch=3 n=69 v=64
348720 On ch=3 n=67 v=117
348960 Off ch=3 n=67 v=64
348960 On ch=3 n=69 v=117
349200 Off ch=3 n=69 v=64
349200 On ch=3 n=74 v=117
349440 Off ch=3 n=74 v=64
349440 On ch=3 n=67 v=117
350400 Off ch=3 n=67 v=64
350400 On ch=3 n=69 v=117
352560 Off ch=3 n=69 v=64
352560 On ch=3 n=67 v=117
352800 Off ch=3 n=67 v=64
352800 On ch=3 n=69 v=117
353040 Off ch=3 n=69 v=64
353040 On ch=3 n=62 v=117
353280 Off ch=3 n=62 v=64
353280 On ch=3 n=69 v=117
354240 Off ch=3 n=69 v=64
354240 On ch=3 n=67 v=117
355200 Off ch=3 n=67 v=64
355200 On ch=3 n=69 v=117
356400 Off ch=3 n=69 v=64
356400 On ch=3 n=67 v=117
356640 Off ch=3 n=67 v=64
356640 On ch=3 n=69 v=117
356880 Off ch=3 n=69 v=64
356880 On ch=3 n=74 v=117
357120 Off ch=3 n=74 v=64
357120 On ch=3 n=69 v=117
358080 Off ch=3 n=69 v=64
358080 On ch=3 n=67 v=117
359040 Off ch=3 n=67 v=64
359040 On ch=3 n=69 v=117
360240 Off ch=3 n=69 v=64
360240 On ch=3 n=67 v=117
360480 Off ch=3 n=67 v=64
360480 On ch=3 n=69 v=117
360720 Off ch=3 n=69 v=64
360720 On ch=3 n=74 v=117
360960 Off ch=3 n=74 v=64
360960 On ch=3 n=69 v=117
361920 Off ch=3 n=69 v=64
361920 On ch=3 n=67 v=117
362880 Off ch=3 n=67 v=64
362880 On ch=3 n=69 v=117
364080 Off ch=3 n=69 v=64
364080 On ch=3 n=67 v=117
364320 Off ch=3 n=67 v=64
364320 On ch=3 n=69 v=117
364560 Off ch=3 n=69 v=64
364560 On ch=3 n=74 v=117
364800 Off ch=3 n=74 v=64
364800 On ch=3 n=72 v=117
365760 Off ch=3 n=72 v=64
365760 On ch=3 n=72 v=117
366720 Off ch=3 n=72 v=64
366720 On ch=3 n=74 v=117
367680 Off ch=3 n=74 v=64
367920 On ch=3 n=74 v=117
368160 Off ch=3 n=74 v=64
368160 On ch=3 n=69 v=117
368400 Off ch=3 n=69 v=64
368400 On ch=3 n=81 v=117
368640 Off ch=3 n=81 v=64
368640 On ch=3 n=74 v=117
369600 Off ch=3 n=74 v=64
370560 Pb ch=3 v=8294
370560 On ch=3 n=71 v=127
370780 On ch=3 n=67 v=127
370800 Off ch=3 n=71 v=64
370900 On ch=3 n=69 v=127
370920 Off ch=3 n=67 v=64
371000 On ch=3 n=71 v=127
371040 Off ch=3 n=69 v=64
371240 Off ch=3 n=71 v=64
371240 On ch=3 n=74 v=127
371500 On ch=3 n=72 v=127
371520 Off ch=3 n=74 v=64
371740 On ch=3 n=71 v=127
371820 Off ch=3 n=72 v=64
371980 Off ch=3 n=71 v=64
371980 On ch=3 n=69 v=127
372220 On ch=3 n=67 v=127
372260 Off ch=3 n=69 v=64
372460 Off ch=3 n=67 v=64
372460 On ch=3 n=69 v=127
372700 On ch=3 n=65 v=127
372740 Off ch=3 n=69 v=64
372820 On ch=3 n=67 v=127
372840 Off ch=3 n=65 v=64
372920 On ch=3 n=69 v=127
372960 Off ch=3 n=67 v=64
373120 Off ch=3 n=69 v=64
373180 On ch=3 n=77 v=127
373380 Off ch=3 n=77 v=64
373380 On ch=3 n=74 v=127
373420 Off ch=3 n=74 v=64
373420 On ch=3 n=74 v=127
373520 Off ch=3 n=74 v=64
373540 On ch=3 n=72 v=127
373640 Off ch=3 n=72 v=64
373660 On ch=3 n=70 v=127
373780 Off ch=3 n=70 v=64
373780 On ch=3 n=69 v=127
373900 Off ch=3 n=69 v=64
373920 On ch=3 n=67 v=127
374100 Off ch=3 n=67 v=64
374160 On ch=3 n=65 v=127
374340 Off ch=3 n=65 v=64
374400 On ch=3 n=67 v=127
374620 On ch=3 n=63 v=127
374660 Off ch=3 n=67 v=64
374740 On ch=3 n=65 v=127
374780 Off ch=3 n=63 v=64
374860 On ch=3 n=67 v=127
374900 Off ch=3 n=65 v=64
375060 Off ch=3 n=67 v=64
375080 On ch=3 n=70 v=127
375340 Off ch=3 n=70 v=64
375340 On ch=3 n=68 v=127
375460 Off ch=3 n=68 v=64
375460 On ch=3 n=67 v=127
375580 Off ch=3 n=67 v=64
375580 On ch=3 n=65 v=127
375700 On ch=3 n=63 v=127
375740 Off ch=3 n=65 v=64
375820 On ch=3 n=62 v=127
375840 Off ch=3 n=63 v=64
376080 On ch=3 n=63 v=127
376140 Off ch=3 n=62 v=64
376300 Off ch=3 n=63 v=64
376320 On ch=3 n=81 v=127
376320 On ch=3 n=61 v=127
376320 On ch=3 n=64 v=127
376320 On ch=3 n=69 v=127
376340 Off ch=3 n=81 v=64
376340 On ch=3 n=76 v=127
376340 On ch=3 n=73 v=127
379900 Off ch=3 n=61 v=64
379920 Off ch=3 n=64 v=64
379940 Off ch=3 n=69 v=64
380140 Off ch=3 n=73 v=64
380160 Off ch=3 n=76 v=64
382080 Par ch=3 c=68 v=0
382080 Par ch=3 c=67 v=0
382080 Par ch=3 c=66 v=0
382080 Par ch=3 c=65 v=0
382080 Par ch=3 c=10 v=64
382080 Par ch=3 c=8 v=0
382080 Par ch=3 c=4 v=0
382080 PoPr ch=3 n=0 v=0
382080 Pb ch=3 v=8192
382080 ChPr ch=3 v=0
382080 Par ch=3 c=1 v=0
382092 Par ch=3 c=2 v=0
382105 Par ch=3 c=7 v=100
382117 Par ch=3 c=11 v=100
382130 Par ch=3 c=64 v=0
382142 Par ch=3 c=91 v=40
382155 Par ch=3 c=93 v=40
382560 Par ch=3 c=99 v=1
382590 Par ch=3 c=98 v=8
382620 Par ch=3 c=6 v=64
382685 Par ch=3 c=99 v=1
382715 Par ch=3 c=98 v=9
382745 Par ch=3 c=6 v=64
382910 Par ch=3 c=99 v=1
382940 Par ch=3 c=98 v=10
382970 Par ch=3 c=6 v=64
383035 Par ch=3 c=99 v=1
383065 Par ch=3 c=98 v=32
383095 Par ch=3 c=6 v=64
383160 Par ch=3 c=99 v=1
383190 Par ch=3 c=98 v=33
383220 Par ch=3 c=6 v=64
383285 Par ch=3 c=99 v=1
383315 Par ch=3 c=98 v=99
383345 Par ch=3 c=6 v=64
383410 Par ch=3 c=99 v=1
383435 Par ch=3 c=99 v=1
383440 Par ch=3 c=98 v=100
383465 Par ch=3 c=98 v=102
383470 Par ch=3 c=6 v=64
383495 Par ch=3 c=6 v=64
383560 Par ch=3 c=101 v=0
383590 Par ch=3 c=100 v=0
383620 Par ch=3 c=6 v=2
383685 Par ch=3 c=0 v=0
383686 Par ch=3 c=32 v=0
383715 Par ch=3 c=121 v=0
383715 Meta TrkEnd
TrkEnd
MTrk
0 Meta TrkName "Rhythm 2            "
0 Meta 0x21 00
0 Meta 0x20 03
0 Par ch=4 c=7 v=100
0 Par ch=4 c=10 v=54
0 PrCh ch=4 p=18
0 Par ch=4 c=121 v=0
0 Pb ch=4 v=8192
0 Par ch=4 c=91 v=40
0 Par ch=4 c=93 v=40
0 Par ch=4 c=4 v=0
0 Par ch=4 c=8 v=0
0 Par ch=4 c=64 v=0
0 Par ch=4 c=65 v=0
0 Par ch=4 c=66 v=0
0 Par ch=4 c=67 v=0
0 Par ch=4 c=68 v=0
0 Par ch=4 c=2 v=127
1 Par ch=4 c=11 v=127
1 Par ch=4 c=1 v=0
80 Par ch=4 c=101 v=0
120 Par ch=4 c=100 v=0
360 Par ch=4 c=6 v=12
1020 Par ch=4 c=91 v=86
1440 Par ch=4 c=0 v=0
1480 Par ch=4 c=93 v=66
1680 Par ch=4 c=93 v=37
1680 Par ch=4 c=93 v=40
1680 Par ch=4 c=93 v=38
10080 On ch=4 n=76 v=109
10560 Off ch=4 n=76 v=64
10800 On ch=4 n=76 v=109
11040 Off ch=4 n=76 v=64
11040 On ch=4 n=76 v=109
11280 Off ch=4 n=76 v=64
11280 On ch=4 n=76 v=109
12000 Off ch=4 n=76 v=64
12000 On ch=4 n=76 v=109
12480 Off ch=4 n=76 v=64
12720 On ch=4 n=76 v=109
12960 Off ch=4 n=76 v=64
12960 On ch=4 n=76 v=109
13200 Off ch=4 n=76 v=64
13200 On ch=4 n=76 v=109
13920 Off ch=4 n=76 v=64
13920 On ch=4 n=76 v=109
14400 Off ch=4 n=76 v=64
14640 On ch=4 n=76 v=109
14880 Off ch=4 n=76 v=64
14880 On ch=4 n=76 v=109
15120 Off ch=4 n=76 v=64
15120 On ch=4 n=76 v=109
15840 Off ch=4 n=76 v=64
15840 On ch=4 n=76 v=109
16320 Off ch=4 n=76 v=64
16560 On ch=4 n=76 v=109
16800 Off ch=4 n=76 v=64
16800 On ch=4 n=76 v=109
17040 Off ch=4 n=76 v=64
17040 On ch=4 n=76 v=109
17760 Off ch=4 n=76 v=64
17760 On ch=4 n=76 v=109
18240 Off ch=4 n=76 v=64
18960 On ch=4 n=76 v=109
19680 Off ch=4 n=76 v=64
20400 On ch=4 n=76 v=109
20640 Off ch=4 n=76 v=64
20640 On ch=4 n=76 v=109
20880 Off ch=4 n=76 v=64
20880 On ch=4 n=76 v=109
21600 Off ch=4 n=76 v=64
21600 On ch=4 n=76 v=109
22080 Off ch=4 n=76 v=64
22320 On ch=4 n=76 v=109
22560 Off ch=4 n=76 v=64
22560 On ch=4 n=76 v=109
22800 Off ch=4 n=76 v=64
22800 On ch=4 n=76 v=109
23520 Off ch=4 n=76 v=64
31680 On ch=4 n=66 v=109
32160 Off ch=4 n=66 v=64
34560 On ch=4 n=68 v=109
35760 Off ch=4 n=68 v=64
38880 On ch=4 n=76 v=109
39360 Off ch=4 n=76 v=64
39600 On ch=4 n=76 v=109
39840 Off ch=4 n=76 v=64
39840 On ch=4 n=76 v=109
40080 Off ch=4 n=76 v=64
40080 On ch=4 n=76 v=109
40800 Off ch=4 n=76 v=64
40800 On ch=4 n=76 v=109
41280 Off ch=4 n=76 v=64
41520 On ch=4 n=76 v=109
41760 Off ch=4 n=76 v=64
41760 On ch=4 n=76 v=109
42000 Off ch=4 n=76 v=64
42000 On ch=4 n=76 v=109
42720 Off ch=4 n=76 v=64
42720 On ch=4 n=76 v=109
43200 Off ch=4 n=76 v=64
43440 On ch=4 n=76 v=109
43680 Off ch=4 n=76 v=64
43680 On ch=4 n=76 v=109
43920 Off ch=4 n=76 v=64
43920 On ch=4 n=76 v=109
44640 Off ch=4 n=76 v=64
44640 On ch=4 n=76 v=109
45120 Off ch=4 n=76 v=64
45360 On ch=4 n=76 v=109
45600 Off ch=4 n=76 v=64
45600 On ch=4 n=76 v=109
45840 Off ch=4 n=76 v=64
45840 On ch=4 n=76 v=109
46560 Off ch=4 n=76 v=64
46560 On ch=4 n=76 v=109
47040 Off ch=4 n=76 v=64
47760 On ch=4 n=76 v=109
48480 Off ch=4 n=76 v=64
49200 On ch=4 n=76 v=109
49440 Off ch=4 n=76 v=64
49440 On ch=4 n=76 v=109
49680 Off ch=4 n=76 v=64
49680 On ch=4 n=76 v=109
50400 Off ch=4 n=76 v=64
50400 On ch=4 n=76 v=109
50880 Off ch=4 n=76 v=64
51120 On ch=4 n=76 v=109
51360 Off ch=4 n=76 v=64
51360 On ch=4 n=76 v=109
51600 Off ch=4 n=76 v=64
51600 On ch=4 n=76 v=109
52320 Off ch=4 n=76 v=64
60480 On ch=4 n=66 v=109
60960 Off ch=4 n=66 v=64
63360 On ch=4 n=74 v=94
63360 On ch=4 n=69 v=94
63360 On ch=4 n=89 v=94
63360 On ch=4 n=88 v=94
63360 Par ch=4 c=10 v=54
63370 On ch=4 n=84 v=94
63382 On ch=4 n=83 v=94
63440 Off ch=4 n=89 v=64
63470 Off ch=4 n=88 v=64
63470 On ch=4 n=79 v=94
63480 Off ch=4 n=69 v=64
63480 Off ch=4 n=74 v=64
63490 Off ch=4 n=84 v=64
63490 On ch=4 n=77 v=94
63502 Off ch=4 n=83 v=64
63590 Off ch=4 n=79 v=64
63610 On ch=4 n=79 v=94
63630 Off ch=4 n=77 v=64
63652 On ch=4 n=81 v=94
63672 On ch=4 n=83 v=94
63692 Off ch=4 n=79 v=64
63702 On ch=4 n=84 v=94
63730 On ch=4 n=86 v=94
63772 Off ch=4 n=81 v=64
63772 On ch=4 n=88 v=94
63782 On ch=4 n=89 v=94
63792 Off ch=4 n=83 v=64
63810 On ch=4 n=91 v=94
63822 Off ch=4 n=84 v=64
63840 On ch=4 n=93 v=94
63850 Off ch=4 n=86 v=64
63870 On ch=4 n=95 v=94
63872 Off ch=4 n=91 v=64
63872 On ch=4 n=91 v=94
63890 Off ch=4 n=93 v=64
63890 On ch=4 n=93 v=94
63892 Off ch=4 n=88 v=64
63902 Off ch=4 n=89 v=64
63922 On ch=4 n=99 v=94
63970 On ch=4 n=100 v=94
63990 Off ch=4 n=95 v=64
63990 Off ch=4 n=91 v=64
63992 On ch=4 n=95 v=94
64010 Off ch=4 n=93 v=64
64012 On ch=4 n=98 v=94
64042 Off ch=4 n=99 v=64
64132 Off ch=4 n=98 v=64
65142 On ch=4 n=93 v=94
65182 Off ch=4 n=95 v=64
65292 On ch=4 n=94 v=94
65300 On ch=4 n=98 v=94
65350 On ch=4 n=95 v=94
65412 Off ch=4 n=94 v=64
65682 Off ch=4 n=95 v=64
65702 Off ch=4 n=98 v=64
65760 On ch=4 n=98 v=94
65790 On ch=4 n=94 v=94
65852 On ch=4 n=95 v=94
65910 Off ch=4 n=94 v=64
66172 Off ch=4 n=95 v=64
66222 Off ch=4 n=93 v=64
66272 On ch=4 n=94 v=94
66292 On ch=4 n=95 v=94
66512 Off ch=4 n=94 v=64
66662 Off ch=4 n=100 v=64
66670 Off ch=4 n=98 v=64
66682 Off ch=4 n=95 v=64
66750 On ch=4 n=95 v=94
66750 On ch=4 n=100 v=94
66810 On ch=4 n=97 v=94
67092 Off ch=4 n=95 v=64
67182 Off ch=4 n=100 v=64
70680 Off ch=4 n=97 v=64
71052 On ch=4 n=69 v=84
71070 On ch=4 n=72 v=84
71100 On ch=4 n=76 v=84
71130 On ch=4 n=79 v=84
71440 Off ch=4 n=72 v=64
71450 Off ch=4 n=69 v=64
71492 Off ch=4 n=76 v=64
71530 Off ch=4 n=79 v=64
71552 On ch=4 n=69 v=84
71580 On ch=4 n=72 v=84
71610 On ch=4 n=79 v=84
71610 On ch=4 n=76 v=84
71730 Off ch=4 n=69 v=64
71802 On ch=4 n=69 v=84
71822 Off ch=4 n=72 v=64
71890 Off ch=4 n=76 v=64
71912 Off ch=4 n=69 v=64
71992 Off ch=4 n=79 v=64
72010 On ch=4 n=71 v=84
72030 On ch=4 n=74 v=84
72060 On ch=4 n=78 v=84
72090 On ch=4 n=81 v=84
72172 Off ch=4 n=74 v=64
72190 Off ch=4 n=71 v=64
72220 Off ch=4 n=78 v=64
72272 Off ch=4 n=81 v=64
72272 On ch=4 n=71 v=84
72330 On ch=4 n=81 v=84
72330 On ch=4 n=78 v=84
72330 On ch=4 n=74 v=84
72690 Off ch=4 n=71 v=64
72750 On ch=4 n=71 v=84
72880 Off ch=4 n=74 v=64
72910 Off ch=4 n=78 v=64
72930 Off ch=4 n=81 v=64
72932 Off ch=4 n=71 v=64
72960 On ch=4 n=79 v=84
72990 On ch=4 n=76 v=84
73020 On ch=4 n=69 v=84
73020 On ch=4 n=72 v=84
73122 Off ch=4 n=76 v=64
73140 Off ch=4 n=72 v=64
73142 Off ch=4 n=79 v=64
73160 Off ch=4 n=69 v=64
73230 On ch=4 n=69 v=84
73232 On ch=4 n=76 v=84
73290 On ch=4 n=79 v=84
73320 On ch=4 n=72 v=84
73430 Off ch=4 n=69 v=64
73512 On ch=4 n=69 v=84
73540 Off ch=4 n=76 v=64
73600 Off ch=4 n=72 v=64
73612 Off ch=4 n=69 v=64
73670 Off ch=4 n=79 v=64
73680 On ch=4 n=78 v=84
73720 On ch=4 n=71 v=84
73742 On ch=4 n=74 v=84
73830 On ch=4 n=81 v=84
74272 Off ch=4 n=71 v=64
74340 Off ch=4 n=78 v=64
74372 Off ch=4 n=74 v=64
74412 On ch=4 n=71 v=84
74490 Off ch=4 n=81 v=64
74522 On ch=4 n=74 v=84
74590 On ch=4 n=78 v=84
74622 Off ch=4 n=71 v=64
74682 Off ch=4 n=74 v=64
74710 On ch=4 n=81 v=84
74782 Off ch=4 n=78 v=64
74842 Off ch=4 n=81 v=64
74892 On ch=4 n=79 v=84
74940 On ch=4 n=76 v=84
74970 On ch=4 n=72 v=84
75030 On ch=4 n=69 v=84
75230 Off ch=4 n=76 v=64
75240 Off ch=4 n=79 v=64
75290 Off ch=4 n=72 v=64
75350 Off ch=4 n=69 v=64
75380 On ch=4 n=69 v=84
75392 On ch=4 n=79 v=84
75480 On ch=4 n=76 v=84
75540 On ch=4 n=72 v=84
75562 Off ch=4 n=69 v=64
75630 On ch=4 n=69 v=84
75722 Off ch=4 n=69 v=64
75730 Off ch=4 n=79 v=64
75782 Off ch=4 n=72 v=64
75840 Off ch=4 n=76 v=64
75860 On ch=4 n=81 v=84
75900 On ch=4 n=78 v=84
75900 On ch=4 n=74 v=84
75960 On ch=4 n=71 v=84
75992 Off ch=4 n=81 v=64
76020 Off ch=4 n=74 v=64
76032 Off ch=4 n=78 v=64
76072 Off ch=4 n=71 v=64
76110 On ch=4 n=81 v=84
76170 On ch=4 n=74 v=84
76170 On ch=4 n=78 v=84
76230 On ch=4 n=71 v=84
76760 Off ch=4 n=74 v=64
76762 Off ch=4 n=81 v=64
76790 Off ch=4 n=78 v=64
76830 On ch=4 n=76 v=84
76832 On ch=4 n=79 v=84
76890 Off ch=4 n=71 v=64
76890 On ch=4 n=72 v=84
76932 Off ch=4 n=76 v=64
76950 Off ch=4 n=79 v=64
76950 On ch=4 n=69 v=84
77010 Off ch=4 n=72 v=64
77070 Off ch=4 n=69 v=64
77070 On ch=4 n=79 v=84
77100 On ch=4 n=76 v=84
77160 On ch=4 n=69 v=84
77160 On ch=4 n=72 v=84
77322 Off ch=4 n=76 v=64
77322 Off ch=4 n=79 v=64
77360 Off ch=4 n=72 v=64
77380 Off ch=4 n=69 v=64
77572 On ch=4 n=81 v=84
77610 On ch=4 n=78 v=84
77640 On ch=4 n=74 v=84
77670 On ch=4 n=71 v=84
78502 Off ch=4 n=78 v=64
78562 Off ch=4 n=81 v=64
78720 Off ch=4 n=74 v=64
78720 On ch=4 n=79 v=84
78742 On ch=4 n=72 v=84
78750 On ch=4 n=76 v=84
78780 On ch=4 n=69 v=84
78822 Off ch=4 n=71 v=64
78862 Off ch=4 n=72 v=64
78882 Off ch=4 n=76 v=64
78902 Off ch=4 n=79 v=64
78920 Off ch=4 n=69 v=64
78990 On ch=4 n=69 v=84
79000 On ch=4 n=79 v=84
79050 On ch=4 n=76 v=84
79080 On ch=4 n=72 v=84
79190 Off ch=4 n=69 v=64
79272 On ch=4 n=69 v=84
79372 Off ch=4 n=69 v=64
79380 Off ch=4 n=79 v=64
79410 Off ch=4 n=76 v=64
79440 Off ch=4 n=72 v=64
79482 On ch=4 n=78 v=84
79482 On ch=4 n=81 v=84
79502 On ch=4 n=74 v=84
79620 On ch=4 n=71 v=84
80132 Off ch=4 n=74 v=64
80142 Off ch=4 n=81 v=64
80142 Off ch=4 n=78 v=64
80172 Off ch=4 n=71 v=64
80172 On ch=4 n=71 v=84
80282 On ch=4 n=74 v=84
80350 On ch=4 n=78 v=84
80382 Off ch=4 n=71 v=64
80442 Off ch=4 n=74 v=64
80470 On ch=4 n=81 v=84
80542 Off ch=4 n=78 v=64
80602 Off ch=4 n=81 v=64
80652 On ch=4 n=79 v=84
80680 On ch=4 n=76 v=84
80730 On ch=4 n=72 v=84
80790 On ch=4 n=69 v=84
80970 Off ch=4 n=76 v=64
81000 Off ch=4 n=79 v=64
81050 Off ch=4 n=72 v=64
81110 Off ch=4 n=69 v=64
81152 On ch=4 n=79 v=84
81180 On ch=4 n=69 v=84
81240 On ch=4 n=76 v=84
81300 On ch=4 n=72 v=84
81362 Off ch=4 n=69 v=64
81390 On ch=4 n=69 v=84
81482 Off ch=4 n=69 v=64
81490 Off ch=4 n=79 v=64
81542 Off ch=4 n=72 v=64
81600 Off ch=4 n=76 v=64
81620 On ch=4 n=81 v=84
81630 On ch=4 n=78 v=84
81690 On ch=4 n=74 v=84
81720 On ch=4 n=71 v=84
81752 Off ch=4 n=81 v=64
81762 Off ch=4 n=78 v=64
81810 Off ch=4 n=74 v=64
81832 Off ch=4 n=71 v=64
81870 On ch=4 n=81 v=84
81900 On ch=4 n=78 v=84
81930 On ch=4 n=74 v=84
81960 On ch=4 n=71 v=84
82520 Off ch=4 n=74 v=64
82520 Off ch=4 n=78 v=64
82522 Off ch=4 n=81 v=64
82592 On ch=4 n=79 v=84
82620 Off ch=4 n=71 v=64
82650 On ch=4 n=76 v=84
82650 On ch=4 n=69 v=84
82680 On ch=4 n=72 v=84
82712 Off ch=4 n=79 v=64
82770 Off ch=4 n=76 v=64
82770 Off ch=4 n=69 v=64
82800 Off ch=4 n=72 v=64
82830 On ch=4 n=79 v=84
82890 On ch=4 n=76 v=84
82950 On ch=4 n=72 v=84
83010 On ch=4 n=69 v=84
83082 Off ch=4 n=79 v=64
83112 Off ch=4 n=76 v=64
83150 Off ch=4 n=72 v=64
83230 Off ch=4 n=69 v=64
83250 On ch=4 n=81 v=84
83340 On ch=4 n=74 v=84
83340 On ch=4 n=78 v=84
83370 On ch=4 n=71 v=84
84232 Off ch=4 n=78 v=64
84240 Off ch=4 n=81 v=64
84420 Off ch=4 n=74 v=64
84480 On ch=4 n=79 v=84
84510 On ch=4 n=76 v=84
84522 Off ch=4 n=71 v=64
84570 On ch=4 n=72 v=84
84600 On ch=4 n=69 v=84
84642 Off ch=4 n=76 v=64
84662 Off ch=4 n=79 v=64
84690 Off ch=4 n=72 v=64
84720 On ch=4 n=79 v=84
84740 Off ch=4 n=69 v=64
84780 On ch=4 n=76 v=84
84840 On ch=4 n=72 v=84
84870 On ch=4 n=69 v=84
85032 Off ch=4 n=69 v=64
85032 On ch=4 n=69 v=84
85082 Off ch=4 n=76 v=64
85100 Off ch=4 n=79 v=64
85120 Off ch=4 n=72 v=64
85132 Off ch=4 n=69 v=64
85170 On ch=4 n=81 v=84
85242 On ch=4 n=78 v=84
85262 On ch=4 n=74 v=84
85380 On ch=4 n=71 v=84
85830 Off ch=4 n=81 v=64
85892 Off ch=4 n=74 v=64
85902 Off ch=4 n=78 v=64
85932 Off ch=4 n=71 v=64
85932 On ch=4 n=71 v=84
86042 On ch=4 n=74 v=84
86110 On ch=4 n=78 v=84
86142 Off ch=4 n=71 v=64
86202 Off ch=4 n=74 v=64
86230 On ch=4 n=81 v=84
86302 Off ch=4 n=78 v=64
86362 Off ch=4 n=81 v=64
86412 On ch=4 n=69 v=84
86430 On ch=4 n=72 v=84
86460 On ch=4 n=76 v=84
86490 On ch=4 n=79 v=84
86800 Off ch=4 n=72 v=64
86810 Off ch=4 n=69 v=64
86852 Off ch=4 n=76 v=64
86890 Off ch=4 n=79 v=64
86912 On ch=4 n=69 v=84
86940 On ch=4 n=72 v=84
86970 On ch=4 n=79 v=84
86970 On ch=4 n=76 v=84
87090 Off ch=4 n=69 v=64
87162 On ch=4 n=69 v=84
87182 Off ch=4 n=72 v=64
87250 Off ch=4 n=76 v=64
87272 Off ch=4 n=69 v=64
87352 Off ch=4 n=79 v=64
87370 On ch=4 n=71 v=84
87390 On ch=4 n=74 v=84
87420 On ch=4 n=78 v=84
87450 On ch=4 n=81 v=84
87532 Off ch=4 n=74 v=64
87550 Off ch=4 n=71 v=64
87580 Off ch=4 n=78 v=64
87632 Off ch=4 n=81 v=64
87632 On ch=4 n=71 v=84
87690 On ch=4 n=81 v=84
87690 On ch=4 n=78 v=84
87690 On ch=4 n=74 v=84
88050 Off ch=4 n=71 v=64
88110 On ch=4 n=71 v=84
88240 Off ch=4 n=74 v=64
88270 Off ch=4 n=78 v=64
88290 Off ch=4 n=81 v=64
88292 Off ch=4 n=71 v=64
88320 On ch=4 n=79 v=84
88350 On ch=4 n=76 v=84
88380 On ch=4 n=69 v=84
88380 On ch=4 n=72 v=84
88482 Off ch=4 n=76 v=64
88500 Off ch=4 n=72 v=64
88502 Off ch=4 n=79 v=64
88520 Off ch=4 n=69 v=64
88590 On ch=4 n=69 v=84
88592 On ch=4 n=76 v=84
88650 On ch=4 n=79 v=84
88680 On ch=4 n=72 v=84
88790 Off ch=4 n=69 v=64
88872 On ch=4 n=69 v=84
88900 Off ch=4 n=76 v=64
88960 Off ch=4 n=72 v=64
88972 Off ch=4 n=69 v=64
89030 Off ch=4 n=79 v=64
89040 On ch=4 n=78 v=84
89080 On ch=4 n=71 v=84
89102 On ch=4 n=74 v=84
89190 On ch=4 n=81 v=84
89632 Off ch=4 n=71 v=64
89700 Off ch=4 n=78 v=64
89732 Off ch=4 n=74 v=64
89772 On ch=4 n=71 v=84
89850 Off ch=4 n=81 v=64
89882 On ch=4 n=74 v=84
89950 On ch=4 n=78 v=84
89982 Off ch=4 n=71 v=64
90042 Off ch=4 n=74 v=64
90070 On ch=4 n=81 v=84
90142 Off ch=4 n=78 v=64
90202 Off ch=4 n=81 v=64
90252 On ch=4 n=79 v=84
90300 On ch=4 n=76 v=84
90330 On ch=4 n=72 v=84
90390 On ch=4 n=69 v=84
90590 Off ch=4 n=76 v=64
90600 Off ch=4 n=79 v=64
90650 Off ch=4 n=72 v=64
90710 Off ch=4 n=69 v=64
90740 On ch=4 n=69 v=84
90752 On ch=4 n=79 v=84
90840 On ch=4 n=76 v=84
90900 On ch=4 n=72 v=84
90922 Off ch=4 n=69 v=64
90990 On ch=4 n=69 v=84
91082 Off ch=4 n=69 v=64
91090 Off ch=4 n=79 v=64
91142 Off ch=4 n=72 v=64
91200 Off ch=4 n=76 v=64
91220 On ch=4 n=81 v=84
91260 On ch=4 n=78 v=84
91260 On ch=4 n=74 v=84
91320 On ch=4 n=71 v=84
91352 Off ch=4 n=81 v=64
91380 Off ch=4 n=74 v=64
91392 Off ch=4 n=78 v=64
91432 Off ch=4 n=71 v=64
91470 On ch=4 n=81 v=84
91530 On ch=4 n=74 v=84
91530 On ch=4 n=78 v=84
91590 On ch=4 n=71 v=84
92120 Off ch=4 n=74 v=64
92122 Off ch=4 n=81 v=64
92150 Off ch=4 n=78 v=64
92190 On ch=4 n=76 v=84
92192 On ch=4 n=79 v=84
92250 Off ch=4 n=71 v=64
92250 On ch=4 n=72 v=84
92292 Off ch=4 n=76 v=64
92310 Off ch=4 n=79 v=64
92310 On ch=4 n=69 v=84
92370 Off ch=4 n=72 v=64
92430 Off ch=4 n=69 v=64
92430 On ch=4 n=79 v=84
92460 On ch=4 n=76 v=84
92520 On ch=4 n=69 v=84
92520 On ch=4 n=72 v=84
92682 Off ch=4 n=76 v=64
92682 Off ch=4 n=79 v=64
92720 Off ch=4 n=72 v=64
92740 Off ch=4 n=69 v=64
92932 On ch=4 n=81 v=84
92970 On ch=4 n=78 v=84
93000 On ch=4 n=74 v=84
93030 On ch=4 n=71 v=84
93862 Off ch=4 n=78 v=64
93922 Off ch=4 n=81 v=64
94080 Off ch=4 n=74 v=64
94080 On ch=4 n=79 v=84
94102 On ch=4 n=72 v=84
94110 On ch=4 n=76 v=84
94140 On ch=4 n=69 v=84
94182 Off ch=4 n=71 v=64
94222 Off ch=4 n=72 v=64
94242 Off ch=4 n=76 v=64
94262 Off ch=4 n=79 v=64
94280 Off ch=4 n=69 v=64
94350 On ch=4 n=69 v=84
94360 On ch=4 n=79 v=84
94410 On ch=4 n=76 v=84
94440 On ch=4 n=72 v=84
94550 Off ch=4 n=69 v=64
94632 On ch=4 n=69 v=84
94732 Off ch=4 n=69 v=64
94740 Off ch=4 n=79 v=64
94770 Off ch=4 n=76 v=64
94800 Off ch=4 n=72 v=64
94842 On ch=4 n=78 v=84
94842 On ch=4 n=81 v=84
94862 On ch=4 n=74 v=84
94980 On ch=4 n=71 v=84
95492 Off ch=4 n=74 v=64
95502 Off ch=4 n=81 v=64
95502 Off ch=4 n=78 v=64
95532 Off ch=4 n=71 v=64
95532 On ch=4 n=71 v=84
95642 On ch=4 n=74 v=84
95710 On ch=4 n=78 v=84
95742 Off ch=4 n=71 v=64
95802 Off ch=4 n=74 v=64
95830 On ch=4 n=81 v=84
95902 Off ch=4 n=78 v=64
95962 Off ch=4 n=81 v=64
96012 On ch=4 n=79 v=84
96040 On ch=4 n=76 v=84
96090 On ch=4 n=72 v=84
96150 On ch=4 n=69 v=84
96330 Off ch=4 n=76 v=64
96360 Off ch=4 n=79 v=64
96410 Off ch=4 n=72 v=64
96470 Off ch=4 n=69 v=64
96512 On ch=4 n=79 v=84
96540 On ch=4 n=69 v=84
96600 On ch=4 n=76 v=84
96660 On ch=4 n=72 v=84
96722 Off ch=4 n=69 v=64
96750 On ch=4 n=69 v=84
96842 Off ch=4 n=69 v=64
96850 Off ch=4 n=79 v=64
96902 Off ch=4 n=72 v=64
96960 Off ch=4 n=76 v=64
96980 On ch=4 n=81 v=84
96990 On ch=4 n=78 v=84
97050 On ch=4 n=74 v=84
97080 On ch=4 n=71 v=84
97112 Off ch=4 n=81 v=64
97122 Off ch=4 n=78 v=64
97170 Off ch=4 n=74 v=64
97192 Off ch=4 n=71 v=64
97230 On ch=4 n=81 v=84
97260 On ch=4 n=78 v=84
97290 On ch=4 n=74 v=84
97320 On ch=4 n=71 v=84
97880 Off ch=4 n=74 v=64
97880 Off ch=4 n=78 v=64
97882 Off ch=4 n=81 v=64
97952 On ch=4 n=79 v=84
97980 Off ch=4 n=71 v=64
98010 On ch=4 n=76 v=84
98010 On ch=4 n=69 v=84
98040 On ch=4 n=72 v=84
98072 Off ch=4 n=79 v=64
98130 Off ch=4 n=76 v=64
98130 Off ch=4 n=69 v=64
98160 Off ch=4 n=72 v=64
98190 On ch=4 n=79 v=84
98250 On ch=4 n=76 v=84
98310 On ch=4 n=72 v=84
98370 On ch=4 n=69 v=84
98442 Off ch=4 n=79 v=64
98472 Off ch=4 n=76 v=64
98510 Off ch=4 n=72 v=64
98590 Off ch=4 n=69 v=64
98610 On ch=4 n=81 v=84
98700 On ch=4 n=74 v=84
98700 On ch=4 n=78 v=84
98730 On ch=4 n=71 v=84
99592 Off ch=4 n=78 v=64
99600 Off ch=4 n=81 v=64
99780 Off ch=4 n=74 v=64
99840 On ch=4 n=79 v=84
99870 On ch=4 n=76 v=84
99882 Off ch=4 n=71 v=64
99930 On ch=4 n=72 v=84
99960 On ch=4 n=69 v=84
100002 Off ch=4 n=76 v=64
100022 Off ch=4 n=79 v=64
100050 Off ch=4 n=72 v=64
100080 On ch=4 n=79 v=84
100100 Off ch=4 n=69 v=64
100140 On ch=4 n=76 v=84
100200 On ch=4 n=72 v=84
100230 On ch=4 n=69 v=84
100392 Off ch=4 n=69 v=64
100392 On ch=4 n=69 v=84
100442 Off ch=4 n=76 v=64
100460 Off ch=4 n=79 v=64
100480 Off ch=4 n=72 v=64
100492 Off ch=4 n=69 v=64
100530 On ch=4 n=81 v=84
100602 On ch=4 n=78 v=84
100622 On ch=4 n=74 v=84
100740 On ch=4 n=71 v=84
101190 Off ch=4 n=81 v=64
101252 Off ch=4 n=74 v=64
101262 Off ch=4 n=78 v=64
101292 Off ch=4 n=71 v=64
101292 On ch=4 n=71 v=84
101402 On ch=4 n=74 v=84
101470 On ch=4 n=78 v=84
101502 Off ch=4 n=71 v=64
101562 Off ch=4 n=74 v=64
101590 On ch=4 n=81 v=84
101662 Off ch=4 n=78 v=64
101722 Off ch=4 n=81 v=64
101772 On ch=4 n=69 v=84
101790 On ch=4 n=72 v=84
101820 On ch=4 n=76 v=84
101850 On ch=4 n=79 v=84
102160 Off ch=4 n=72 v=64
102170 Off ch=4 n=69 v=64
102212 Off ch=4 n=76 v=64
102250 Off ch=4 n=79 v=64
102272 On ch=4 n=69 v=84
102300 On ch=4 n=72 v=84
102330 On ch=4 n=79 v=84
102330 On ch=4 n=76 v=84
102450 Off ch=4 n=69 v=64
102522 On ch=4 n=69 v=84
102542 Off ch=4 n=72 v=64
102610 Off ch=4 n=76 v=64
102632 Off ch=4 n=69 v=64
102712 Off ch=4 n=79 v=64
102730 On ch=4 n=71 v=84
102750 On ch=4 n=74 v=84
102780 On ch=4 n=78 v=84
102810 On ch=4 n=81 v=84
102892 Off ch=4 n=74 v=64
102910 Off ch=4 n=71 v=64
102940 Off ch=4 n=78 v=64
102992 Off ch=4 n=81 v=64
102992 On ch=4 n=71 v=84
103050 On ch=4 n=81 v=84
103050 On ch=4 n=78 v=84
103050 On ch=4 n=74 v=84
103410 Off ch=4 n=71 v=64
103470 On ch=4 n=71 v=84
103600 Off ch=4 n=74 v=64
103630 Off ch=4 n=78 v=64
103650 Off ch=4 n=81 v=64
103652 Off ch=4 n=71 v=64
103680 On ch=4 n=79 v=84
103710 On ch=4 n=76 v=84
103740 On ch=4 n=69 v=84
103740 On ch=4 n=72 v=84
103842 Off ch=4 n=76 v=64
103860 Off ch=4 n=72 v=64
103862 Off ch=4 n=79 v=64
103880 Off ch=4 n=69 v=64
103950 On ch=4 n=69 v=84
103952 On ch=4 n=76 v=84
104010 On ch=4 n=79 v=84
104040 On ch=4 n=72 v=84
104150 Off ch=4 n=69 v=64
104232 On ch=4 n=69 v=84
104260 Off ch=4 n=76 v=64
104320 Off ch=4 n=72 v=64
104332 Off ch=4 n=69 v=64
104390 Off ch=4 n=79 v=64
104400 On ch=4 n=78 v=84
104440 On ch=4 n=71 v=84
104462 On ch=4 n=74 v=84
104550 On ch=4 n=81 v=84
104992 Off ch=4 n=71 v=64
105060 Off ch=4 n=78 v=64
105092 Off ch=4 n=74 v=64
105132 On ch=4 n=71 v=84
105210 Off ch=4 n=81 v=64
105242 On ch=4 n=74 v=84
105310 On ch=4 n=78 v=84
105342 Off ch=4 n=71 v=64
105402 Off ch=4 n=74 v=64
105430 On ch=4 n=81 v=84
105502 Off ch=4 n=78 v=64
105562 Off ch=4 n=81 v=64
105612 On ch=4 n=79 v=84
105660 On ch=4 n=76 v=84
105690 On ch=4 n=72 v=84
105750 On ch=4 n=69 v=84
105950 Off ch=4 n=76 v=64
105960 Off ch=4 n=79 v=64
106010 Off ch=4 n=72 v=64
106070 Off ch=4 n=69 v=64
106100 On ch=4 n=69 v=84
106112 On ch=4 n=79 v=84
106200 On ch=4 n=76 v=84
106260 On ch=4 n=72 v=84
106282 Off ch=4 n=69 v=64
106350 On ch=4 n=69 v=84
106442 Off ch=4 n=69 v=64
106450 Off ch=4 n=79 v=64
106502 Off ch=4 n=72 v=64
106560 Off ch=4 n=76 v=64
106580 On ch=4 n=81 v=84
106620 On ch=4 n=78 v=84
106620 On ch=4 n=74 v=84
106680 On ch=4 n=71 v=84
106712 Off ch=4 n=81 v=64
106740 Off ch=4 n=74 v=64
106752 Off ch=4 n=78 v=64
106792 Off ch=4 n=71 v=64
106830 On ch=4 n=81 v=84
106890 On ch=4 n=74 v=84
106890 On ch=4 n=78 v=84
106950 On ch=4 n=71 v=84
107480 Off ch=4 n=74 v=64
107482 Off ch=4 n=81 v=64
107510 Off ch=4 n=78 v=64
107550 On ch=4 n=76 v=84
107552 On ch=4 n=79 v=84
107610 Off ch=4 n=71 v=64
107610 On ch=4 n=72 v=84
107652 Off ch=4 n=76 v=64
107670 Off ch=4 n=79 v=64
107670 On ch=4 n=69 v=84
107730 Off ch=4 n=72 v=64
107790 Off ch=4 n=69 v=64
107790 On ch=4 n=79 v=84
107820 On ch=4 n=76 v=84
107880 On ch=4 n=69 v=84
107880 On ch=4 n=72 v=84
108042 Off ch=4 n=76 v=64
108042 Off ch=4 n=79 v=64
108080 Off ch=4 n=72 v=64
108100 Off ch=4 n=69 v=64
108292 On ch=4 n=81 v=84
108330 On ch=4 n=78 v=84
108360 On ch=4 n=74 v=84
108390 On ch=4 n=71 v=84
109222 Off ch=4 n=78 v=64
109282 Off ch=4 n=81 v=64
109440 Off ch=4 n=74 v=64
109440 On ch=4 n=79 v=84
109462 On ch=4 n=72 v=84
109470 On ch=4 n=76 v=84
109500 On ch=4 n=69 v=84
109542 Off ch=4 n=71 v=64
109582 Off ch=4 n=72 v=64
109602 Off ch=4 n=76 v=64
109622 Off ch=4 n=79 v=64
109640 Off ch=4 n=69 v=64
109710 On ch=4 n=69 v=84
109720 On ch=4 n=79 v=84
109770 On ch=4 n=76 v=84
109800 On ch=4 n=72 v=84
109910 Off ch=4 n=69 v=64
109992 On ch=4 n=69 v=84
110092 Off ch=4 n=69 v=64
110100 Off ch=4 n=79 v=64
110130 Off ch=4 n=76 v=64
110160 Off ch=4 n=72 v=64
110202 On ch=4 n=78 v=84
110202 On ch=4 n=81 v=84
110222 On ch=4 n=74 v=84
110340 On ch=4 n=71 v=84
110852 Off ch=4 n=74 v=64
110862 Off ch=4 n=81 v=64
110862 Off ch=4 n=78 v=64
110892 Off ch=4 n=71 v=64
110892 On ch=4 n=71 v=84
111002 On ch=4 n=74 v=84
111070 On ch=4 n=78 v=84
111102 Off ch=4 n=71 v=64
111162 Off ch=4 n=74 v=64
111190 On ch=4 n=81 v=84
111262 Off ch=4 n=78 v=64
111322 Off ch=4 n=81 v=64
111372 On ch=4 n=79 v=84
111400 On ch=4 n=76 v=84
111450 On ch=4 n=72 v=84
111510 On ch=4 n=69 v=84
111690 Off ch=4 n=76 v=64
111720 Off ch=4 n=79 v=64
111770 Off ch=4 n=72 v=64
111830 Off ch=4 n=69 v=64
111872 On ch=4 n=79 v=84
111900 On ch=4 n=69 v=84
111960 On ch=4 n=76 v=84
112020 On ch=4 n=72 v=84
112082 Off ch=4 n=69 v=64
112110 On ch=4 n=69 v=84
112202 Off ch=4 n=69 v=64
112210 Off ch=4 n=79 v=64
112262 Off ch=4 n=72 v=64
112320 Off ch=4 n=76 v=64
112340 On ch=4 n=81 v=84
112350 On ch=4 n=78 v=84
112410 On ch=4 n=74 v=84
112440 On ch=4 n=71 v=84
112472 Off ch=4 n=81 v=64
112482 Off ch=4 n=78 v=64
112530 Off ch=4 n=74 v=64
112552 Off ch=4 n=71 v=64
112590 On ch=4 n=81 v=84
112620 On ch=4 n=78 v=84
112650 On ch=4 n=74 v=84
112680 On ch=4 n=71 v=84
113240 Off ch=4 n=74 v=64
113240 Off ch=4 n=78 v=64
113242 Off ch=4 n=81 v=64
113312 On ch=4 n=79 v=84
113340 Off ch=4 n=71 v=64
113370 On ch=4 n=76 v=84
113370 On ch=4 n=69 v=84
113400 On ch=4 n=72 v=84
113432 Off ch=4 n=79 v=64
113490 Off ch=4 n=76 v=64
113490 Off ch=4 n=69 v=64
113520 Off ch=4 n=72 v=64
113550 On ch=4 n=79 v=84
113610 On ch=4 n=76 v=84
113670 On ch=4 n=72 v=84
113730 On ch=4 n=69 v=84
113802 Off ch=4 n=79 v=64
113832 Off ch=4 n=76 v=64
113870 Off ch=4 n=72 v=64
113950 Off ch=4 n=69 v=64
113970 On ch=4 n=81 v=84
114060 On ch=4 n=74 v=84
114060 On ch=4 n=78 v=84
114090 On ch=4 n=71 v=84
114952 Off ch=4 n=78 v=64
114960 Off ch=4 n=81 v=64
115140 Off ch=4 n=74 v=64
115200 On ch=4 n=79 v=84
115230 On ch=4 n=76 v=84
115242 Off ch=4 n=71 v=64
115290 On ch=4 n=72 v=84
115320 On ch=4 n=69 v=84
115362 Off ch=4 n=76 v=64
115382 Off ch=4 n=79 v=64
115410 Off ch=4 n=72 v=64
115440 On ch=4 n=79 v=84
115460 Off ch=4 n=69 v=64
115500 On ch=4 n=76 v=84
115560 On ch=4 n=72 v=84
115590 On ch=4 n=69 v=84
115752 Off ch=4 n=69 v=64
115752 On ch=4 n=69 v=84
115802 Off ch=4 n=76 v=64
115820 Off ch=4 n=79 v=64
115840 Off ch=4 n=72 v=64
115852 Off ch=4 n=69 v=64
115890 On ch=4 n=81 v=84
115962 On ch=4 n=78 v=84
115982 On ch=4 n=74 v=84
116100 On ch=4 n=71 v=84
116550 Off ch=4 n=81 v=64
116612 Off ch=4 n=74 v=64
116622 Off ch=4 n=78 v=64
116652 Off ch=4 n=71 v=64
116652 On ch=4 n=71 v=84
116762 On ch=4 n=74 v=84
116830 On ch=4 n=78 v=84
116862 Off ch=4 n=71 v=64
116922 Off ch=4 n=74 v=64
116950 On ch=4 n=81 v=84
117022 Off ch=4 n=78 v=64
117082 Off ch=4 n=81 v=64
117132 On ch=4 n=69 v=84
117150 On ch=4 n=72 v=84
117180 On ch=4 n=76 v=84
117210 On ch=4 n=79 v=84
117520 Off ch=4 n=72 v=64
117530 Off ch=4 n=69 v=64
117572 Off ch=4 n=76 v=64
117610 Off ch=4 n=79 v=64
117632 On ch=4 n=69 v=84
117660 On ch=4 n=72 v=84
117690 On ch=4 n=79 v=84
117690 On ch=4 n=76 v=84
117810 Off ch=4 n=69 v=64
117882 On ch=4 n=69 v=84
117902 Off ch=4 n=72 v=64
117970 Off ch=4 n=76 v=64
117992 Off ch=4 n=69 v=64
118072 Off ch=4 n=79 v=64
118090 On ch=4 n=71 v=84
118110 On ch=4 n=74 v=84
118140 On ch=4 n=78 v=84
118170 On ch=4 n=81 v=84
118252 Off ch=4 n=74 v=64
118270 Off ch=4 n=71 v=64
118300 Off ch=4 n=78 v=64
118352 Off ch=4 n=81 v=64
118352 On ch=4 n=71 v=84
118410 On ch=4 n=81 v=84
118410 On ch=4 n=78 v=84
118410 On ch=4 n=74 v=84
118770 Off ch=4 n=71 v=64
118830 On ch=4 n=71 v=84
118960 Off ch=4 n=74 v=64
118990 Off ch=4 n=78 v=64
119010 Off ch=4 n=81 v=64
119012 Off ch=4 n=71 v=64
119040 On ch=4 n=79 v=84
119070 On ch=4 n=76 v=84
119100 On ch=4 n=69 v=84
119100 On ch=4 n=72 v=84
119202 Off ch=4 n=76 v=64
119220 Off ch=4 n=72 v=64
119222 Off ch=4 n=79 v=64
119240 Off ch=4 n=69 v=64
119310 On ch=4 n=69 v=84
119312 On ch=4 n=76 v=84
119370 On ch=4 n=79 v=84
119400 On ch=4 n=72 v=84
119510 Off ch=4 n=69 v=64
119592 On ch=4 n=69 v=84
119620 Off ch=4 n=76 v=64
119680 Off ch=4 n=72 v=64
119692 Off ch=4 n=69 v=64
119750 Off ch=4 n=79 v=64
119760 On ch=4 n=78 v=84
119800 On ch=4 n=71 v=84
119822 On ch=4 n=74 v=84
119910 On ch=4 n=81 v=84
120352 Off ch=4 n=71 v=64
120420 Off ch=4 n=78 v=64
120452 Off ch=4 n=74 v=64
120492 On ch=4 n=71 v=84
120570 Off ch=4 n=81 v=64
120602 On ch=4 n=74 v=84
120670 On ch=4 n=78 v=84
120702 Off ch=4 n=71 v=64
120762 Off ch=4 n=74 v=64
120790 On ch=4 n=81 v=84
120862 Off ch=4 n=78 v=64
120922 Off ch=4 n=81 v=64
120972 On ch=4 n=79 v=84
121020 On ch=4 n=76 v=84
121050 On ch=4 n=72 v=84
121110 On ch=4 n=69 v=84
121310 Off ch=4 n=76 v=64
121320 Off ch=4 n=79 v=64
121370 Off ch=4 n=72 v=64
121430 Off ch=4 n=69 v=64
121460 On ch=4 n=69 v=84
121472 On ch=4 n=79 v=84
121560 On ch=4 n=76 v=84
121620 On ch=4 n=72 v=84
121642 Off ch=4 n=69 v=64
121710 On ch=4 n=69 v=84
121802 Off ch=4 n=69 v=64
121810 Off ch=4 n=79 v=64
121862 Off ch=4 n=72 v=64
121920 Off ch=4 n=76 v=64
121940 On ch=4 n=81 v=84
121980 On ch=4 n=78 v=84
121980 On ch=4 n=74 v=84
122040 On ch=4 n=71 v=84
122072 Off ch=4 n=81 v=64
122100 Off ch=4 n=74 v=64
122112 Off ch=4 n=78 v=64
122152 Off ch=4 n=71 v=64
122190 On ch=4 n=81 v=84
122250 On ch=4 n=74 v=84
122250 On ch=4 n=78 v=84
122310 On ch=4 n=71 v=84
122840 Off ch=4 n=74 v=64
122842 Off ch=4 n=81 v=64
122870 Off ch=4 n=78 v=64
122910 On ch=4 n=76 v=84
122912 On ch=4 n=79 v=84
122970 Off ch=4 n=71 v=64
122970 On ch=4 n=72 v=84
123012 Off ch=4 n=76 v=64
123030 Off ch=4 n=79 v=64
123030 On ch=4 n=69 v=84
123090 Off ch=4 n=72 v=64
123150 Off ch=4 n=69 v=64
123150 On ch=4 n=79 v=84
123180 On ch=4 n=76 v=84
123240 On ch=4 n=69 v=84
123240 On ch=4 n=72 v=84
123402 Off ch=4 n=76 v=64
123402 Off ch=4 n=79 v=64
123440 Off ch=4 n=72 v=64
123460 Off ch=4 n=69 v=64
123652 On ch=4 n=81 v=84
123690 On ch=4 n=78 v=84
123720 On ch=4 n=74 v=84
123750 On ch=4 n=71 v=84
124582 Off ch=4 n=78 v=64
124642 Off ch=4 n=81 v=64
124800 Off ch=4 n=74 v=64
124800 On ch=4 n=79 v=84
124822 On ch=4 n=72 v=84
124830 On ch=4 n=76 v=84
124860 On ch=4 n=69 v=84
124902 Off ch=4 n=71 v=64
124942 Off ch=4 n=72 v=64
124962 Off ch=4 n=76 v=64
124982 Off ch=4 n=79 v=64
125000 Off ch=4 n=69 v=64
125070 On ch=4 n=69 v=84
125080 On ch=4 n=79 v=84
125130 On ch=4 n=76 v=84
125160 On ch=4 n=72 v=84
125270 Off ch=4 n=69 v=64
125352 On ch=4 n=69 v=84
125452 Off ch=4 n=69 v=64
125460 Off ch=4 n=79 v=64
125490 Off ch=4 n=76 v=64
125520 Off ch=4 n=72 v=64
125562 On ch=4 n=78 v=84
125562 On ch=4 n=81 v=84
125582 On ch=4 n=74 v=84
125700 On ch=4 n=71 v=84
126212 Off ch=4 n=74 v=64
126222 Off ch=4 n=81 v=64
126222 Off ch=4 n=78 v=64
126252 Off ch=4 n=71 v=64
126252 On ch=4 n=71 v=84
126362 On ch=4 n=74 v=84
126430 On ch=4 n=78 v=84
126462 Off ch=4 n=71 v=64
126522 Off ch=4 n=74 v=64
126550 On ch=4 n=81 v=84
126622 Off ch=4 n=78 v=64
126682 Off ch=4 n=81 v=64
126732 On ch=4 n=79 v=84
126760 On ch=4 n=76 v=84
126810 On ch=4 n=72 v=84
126870 On ch=4 n=69 v=84
127050 Off ch=4 n=76 v=64
127080 Off ch=4 n=79 v=64
127130 Off ch=4 n=72 v=64
127190 Off ch=4 n=69 v=64
127232 On ch=4 n=79 v=84
127260 On ch=4 n=69 v=84
127320 On ch=4 n=76 v=84
127380 On ch=4 n=72 v=84
127442 Off ch=4 n=69 v=64
127470 On ch=4 n=69 v=84
127562 Off ch=4 n=69 v=64
127570 Off ch=4 n=79 v=64
127622 Off ch=4 n=72 v=64
127680 Off ch=4 n=76 v=64
127700 On ch=4 n=81 v=84
127710 On ch=4 n=78 v=84
127770 On ch=4 n=74 v=84
127800 On ch=4 n=71 v=84
127832 Off ch=4 n=81 v=64
127842 Off ch=4 n=78 v=64
127890 Off ch=4 n=74 v=64
127912 Off ch=4 n=71 v=64
127950 On ch=4 n=81 v=84
127980 On ch=4 n=78 v=84
128010 On ch=4 n=74 v=84
128040 On ch=4 n=71 v=84
128600 Off ch=4 n=74 v=64
128600 Off ch=4 n=78 v=64
128602 Off ch=4 n=81 v=64
128672 On ch=4 n=79 v=84
128700 Off ch=4 n=71 v=64
128730 On ch=4 n=76 v=84
128730 On ch=4 n=69 v=84
128760 On ch=4 n=72 v=84
128792 Off ch=4 n=79 v=64
128850 Off ch=4 n=76 v=64
128850 Off ch=4 n=69 v=64
128880 Off ch=4 n=72 v=64
128910 On ch=4 n=79 v=84
128970 On ch=4 n=76 v=84
129030 On ch=4 n=72 v=84
129090 On ch=4 n=69 v=84
129162 Off ch=4 n=79 v=64
129192 Off ch=4 n=76 v=64
129230 Off ch=4 n=72 v=64
129310 Off ch=4 n=69 v=64
129330 On ch=4 n=81 v=84
129420 On ch=4 n=74 v=84
129420 On ch=4 n=78 v=84
129450 On ch=4 n=71 v=84
130312 Off ch=4 n=78 v=64
130320 Off ch=4 n=81 v=64
130500 Off ch=4 n=74 v=64
130560 On ch=4 n=79 v=84
130590 On ch=4 n=76 v=84
130602 Off ch=4 n=71 v=64
130650 On ch=4 n=72 v=84
130680 On ch=4 n=69 v=84
130722 Off ch=4 n=76 v=64
130742 Off ch=4 n=79 v=64
130770 Off ch=4 n=72 v=64
130800 On ch=4 n=79 v=84
130820 Off ch=4 n=69 v=64
130860 On ch=4 n=76 v=84
130920 On ch=4 n=72 v=84
130950 On ch=4 n=69 v=84
131112 Off ch=4 n=69 v=64
131112 On ch=4 n=69 v=84
131162 Off ch=4 n=76 v=64
131180 Off ch=4 n=79 v=64
131200 Off ch=4 n=72 v=64
131212 Off ch=4 n=69 v=64
131250 On ch=4 n=81 v=84
131322 On ch=4 n=78 v=84
131342 On ch=4 n=74 v=84
131460 On ch=4 n=71 v=84
131910 Off ch=4 n=81 v=64
131972 Off ch=4 n=74 v=64
131982 Off ch=4 n=78 v=64
132012 Off ch=4 n=71 v=64
132012 On ch=4 n=71 v=84
132122 On ch=4 n=74 v=84
132190 On ch=4 n=78 v=84
132222 Off ch=4 n=71 v=64
132282 Off ch=4 n=74 v=64
132310 On ch=4 n=81 v=84
132382 Off ch=4 n=78 v=64
132442 Off ch=4 n=81 v=64
132480 On ch=4 n=71 v=84
132512 On ch=4 n=79 v=84
132540 Off ch=4 n=71 v=64
132570 On ch=4 n=76 v=84
132570 On ch=4 n=69 v=84
132600 On ch=4 n=72 v=84
132632 Off ch=4 n=79 v=64
132690 Off ch=4 n=76 v=64
132690 Off ch=4 n=69 v=64
132720 Off ch=4 n=72 v=64
132750 On ch=4 n=79 v=84
132810 On ch=4 n=76 v=84
132870 On ch=4 n=72 v=84
132930 On ch=4 n=69 v=84
133002 Off ch=4 n=79 v=64
133032 Off ch=4 n=76 v=64
133070 Off ch=4 n=72 v=64
133150 Off ch=4 n=69 v=64
133170 On ch=4 n=81 v=84
133260 On ch=4 n=74 v=84
133260 On ch=4 n=78 v=84
133290 On ch=4 n=71 v=84
134152 Off ch=4 n=78 v=64
134160 Off ch=4 n=81 v=64
134340 Off ch=4 n=74 v=64
134400 On ch=4 n=79 v=84
134430 On ch=4 n=76 v=84
134442 Off ch=4 n=71 v=64
134490 On ch=4 n=72 v=84
134520 On ch=4 n=69 v=84
134562 Off ch=4 n=76 v=64
134582 Off ch=4 n=79 v=64
134610 Off ch=4 n=72 v=64
134640 On ch=4 n=79 v=84
134660 Off ch=4 n=69 v=64
134700 On ch=4 n=76 v=84
134760 On ch=4 n=72 v=84
134790 On ch=4 n=69 v=84
134952 Off ch=4 n=69 v=64
134952 On ch=4 n=69 v=84
135002 Off ch=4 n=76 v=64
135020 Off ch=4 n=79 v=64
135040 Off ch=4 n=72 v=64
135052 Off ch=4 n=69 v=64
135090 On ch=4 n=81 v=84
135162 On ch=4 n=78 v=84
135182 On ch=4 n=74 v=84
135300 On ch=4 n=71 v=84
135750 Off ch=4 n=81 v=64
135812 Off ch=4 n=74 v=64
135822 Off ch=4 n=78 v=64
135852 Off ch=4 n=71 v=64
135852 On ch=4 n=71 v=84
135962 On ch=4 n=74 v=84
136030 On ch=4 n=78 v=84
136062 Off ch=4 n=71 v=64
136122 Off ch=4 n=74 v=64
136150 On ch=4 n=81 v=84
136222 Off ch=4 n=78 v=64
136282 Off ch=4 n=81 v=64
136320 On ch=4 n=71 v=84
136352 On ch=4 n=79 v=84
136380 Off ch=4 n=71 v=64
136410 On ch=4 n=76 v=84
136410 On ch=4 n=69 v=84
136440 On ch=4 n=72 v=84
136472 Off ch=4 n=79 v=64
136530 Off ch=4 n=76 v=64
136530 Off ch=4 n=69 v=64
136560 Off ch=4 n=72 v=64
136590 On ch=4 n=79 v=84
136650 On ch=4 n=76 v=84
136710 On ch=4 n=72 v=84
136770 On ch=4 n=69 v=84
136842 Off ch=4 n=79 v=64
136872 Off ch=4 n=76 v=64
136910 Off ch=4 n=72 v=64
136990 Off ch=4 n=69 v=64
137010 On ch=4 n=81 v=84
137100 On ch=4 n=74 v=84
137100 On ch=4 n=78 v=84
137130 On ch=4 n=71 v=84
137992 Off ch=4 n=78 v=64
138000 Off ch=4 n=81 v=64
138180 Off ch=4 n=74 v=64
138240 On ch=4 n=79 v=84
138270 On ch=4 n=76 v=84
138282 Off ch=4 n=71 v=64
138330 On ch=4 n=72 v=84
138360 On ch=4 n=69 v=84
138402 Off ch=4 n=76 v=64
138422 Off ch=4 n=79 v=64
138450 Off ch=4 n=72 v=64
138480 On ch=4 n=79 v=84
138500 Off ch=4 n=69 v=64
138540 On ch=4 n=76 v=84
138600 On ch=4 n=72 v=84
138630 On ch=4 n=69 v=84
138792 Off ch=4 n=69 v=64
138792 On ch=4 n=69 v=84
138842 Off ch=4 n=76 v=64
138860 Off ch=4 n=79 v=64
138880 Off ch=4 n=72 v=64
138892 Off ch=4 n=69 v=64
138930 On ch=4 n=81 v=84
139002 On ch=4 n=78 v=84
139022 On ch=4 n=74 v=84
139140 On ch=4 n=71 v=84
139590 Off ch=4 n=81 v=64
139652 Off ch=4 n=74 v=64
139662 Off ch=4 n=78 v=64
139692 Off ch=4 n=71 v=64
139692 On ch=4 n=71 v=84
139802 On ch=4 n=74 v=84
139870 On ch=4 n=78 v=84
139902 Off ch=4 n=71 v=64
139962 Off ch=4 n=74 v=64
139990 On ch=4 n=81 v=84
140062 Off ch=4 n=78 v=64
140122 Off ch=4 n=81 v=64
140160 On ch=4 n=71 v=84
140192 On ch=4 n=79 v=84
140220 Off ch=4 n=71 v=64
140250 On ch=4 n=76 v=84
140250 On ch=4 n=69 v=84
140280 On ch=4 n=72 v=84
140312 Off ch=4 n=79 v=64
140370 Off ch=4 n=76 v=64
140370 Off ch=4 n=69 v=64
140400 Off ch=4 n=72 v=64
140430 On ch=4 n=79 v=84
140490 On ch=4 n=76 v=84
140550 On ch=4 n=72 v=84
140610 On ch=4 n=69 v=84
140682 Off ch=4 n=79 v=64
140712 Off ch=4 n=76 v=64
140750 Off ch=4 n=72 v=64
140830 Off ch=4 n=69 v=64
140850 On ch=4 n=81 v=84
140940 On ch=4 n=74 v=84
140940 On ch=4 n=78 v=84
140970 On ch=4 n=71 v=84
141832 Off ch=4 n=78 v=64
141840 Off ch=4 n=81 v=64
142020 Off ch=4 n=74 v=64
142080 On ch=4 n=79 v=84
142082 Off ch=4 n=71 v=64
142110 On ch=4 n=76 v=84
142170 On ch=4 n=72 v=84
142200 On ch=4 n=69 v=84
142242 Off ch=4 n=76 v=64
142262 Off ch=4 n=79 v=64
142290 Off ch=4 n=72 v=64
142320 On ch=4 n=79 v=84
142340 Off ch=4 n=69 v=64
142380 On ch=4 n=76 v=84
142440 On ch=4 n=72 v=84
142470 On ch=4 n=69 v=84
142632 Off ch=4 n=69 v=64
142632 On ch=4 n=69 v=84
142682 Off ch=4 n=76 v=64
142700 Off ch=4 n=79 v=64
142720 Off ch=4 n=72 v=64
142732 Off ch=4 n=69 v=64
142770 On ch=4 n=81 v=84
142842 On ch=4 n=78 v=84
142862 On ch=4 n=74 v=84
142980 On ch=4 n=71 v=84
143430 Off ch=4 n=81 v=64
143492 Off ch=4 n=74 v=64
143502 Off ch=4 n=78 v=64
143532 Off ch=4 n=71 v=64
143532 On ch=4 n=71 v=84
143642 On ch=4 n=74 v=84
143710 On ch=4 n=78 v=84
143802 Off ch=4 n=74 v=64
143830 On ch=4 n=81 v=84
143902 Off ch=4 n=78 v=64
143962 Off ch=4 n=81 v=64
144002 Off ch=4 n=71 v=64
144032 On ch=4 n=79 v=84
144090 On ch=4 n=76 v=84
144090 On ch=4 n=69 v=84
144120 On ch=4 n=72 v=84
144152 Off ch=4 n=79 v=64
144210 Off ch=4 n=76 v=64
144210 Off ch=4 n=69 v=64
144240 Off ch=4 n=72 v=64
144270 On ch=4 n=79 v=84
144330 On ch=4 n=76 v=84
144390 On ch=4 n=72 v=84
144450 On ch=4 n=69 v=84
144522 Off ch=4 n=79 v=64
144552 Off ch=4 n=76 v=64
144590 Off ch=4 n=72 v=64
144670 Off ch=4 n=69 v=64
144690 On ch=4 n=81 v=84
144780 On ch=4 n=74 v=84
144780 On ch=4 n=78 v=84
144810 On ch=4 n=71 v=84
145672 Off ch=4 n=78 v=64
145680 Off ch=4 n=81 v=64
145860 Off ch=4 n=74 v=64
145920 On ch=4 n=79 v=84
145922 Off ch=4 n=71 v=64
145950 On ch=4 n=76 v=84
146010 On ch=4 n=72 v=84
146040 On ch=4 n=69 v=84
146082 Off ch=4 n=76 v=64
146102 Off ch=4 n=79 v=64
146130 Off ch=4 n=72 v=64
146160 On ch=4 n=79 v=84
146180 Off ch=4 n=69 v=64
146220 On ch=4 n=76 v=84
146280 On ch=4 n=72 v=84
146310 On ch=4 n=69 v=84
146472 Off ch=4 n=69 v=64
146472 On ch=4 n=69 v=84
146522 Off ch=4 n=76 v=64
146540 Off ch=4 n=79 v=64
146560 Off ch=4 n=72 v=64
146572 Off ch=4 n=69 v=64
146610 On ch=4 n=81 v=84
146682 On ch=4 n=78 v=84
146702 On ch=4 n=74 v=84
146820 On ch=4 n=71 v=84
147270 Off ch=4 n=81 v=64
147332 Off ch=4 n=74 v=64
147342 Off ch=4 n=78 v=64
147372 Off ch=4 n=71 v=64
147372 On ch=4 n=71 v=84
147482 On ch=4 n=74 v=84
147550 On ch=4 n=78 v=84
147642 Off ch=4 n=74 v=64
147670 On ch=4 n=81 v=84
147742 Off ch=4 n=78 v=64
147802 Off ch=4 n=81 v=64
147842 Off ch=4 n=71 v=64
147872 On ch=4 n=79 v=84
147930 On ch=4 n=76 v=84
147930 On ch=4 n=69 v=84
147960 On ch=4 n=72 v=84
147992 Off ch=4 n=79 v=64
148050 Off ch=4 n=76 v=64
148050 Off ch=4 n=69 v=64
148080 Off ch=4 n=72 v=64
148110 On ch=4 n=79 v=84
148170 On ch=4 n=76 v=84
148230 On ch=4 n=72 v=84
148290 On ch=4 n=69 v=84
148362 Off ch=4 n=79 v=64
148392 Off ch=4 n=76 v=64
148430 Off ch=4 n=72 v=64
148510 Off ch=4 n=69 v=64
148530 On ch=4 n=81 v=84
148620 On ch=4 n=74 v=84
148620 On ch=4 n=78 v=84
148650 On ch=4 n=71 v=84
149512 Off ch=4 n=78 v=64
149520 Off ch=4 n=81 v=64
149700 Off ch=4 n=74 v=64
149760 On ch=4 n=79 v=84
149762 Off ch=4 n=71 v=64
149790 On ch=4 n=76 v=84
149850 On ch=4 n=72 v=84
149880 On ch=4 n=69 v=84
149922 Off ch=4 n=76 v=64
149942 Off ch=4 n=79 v=64
149970 Off ch=4 n=72 v=64
150000 On ch=4 n=79 v=84
150020 Off ch=4 n=69 v=64
150060 On ch=4 n=76 v=84
150120 On ch=4 n=72 v=84
150150 On ch=4 n=69 v=84
150312 Off ch=4 n=69 v=64
150312 On ch=4 n=69 v=84
150362 Off ch=4 n=76 v=64
150380 Off ch=4 n=79 v=64
150400 Off ch=4 n=72 v=64
150412 Off ch=4 n=69 v=64
150450 On ch=4 n=81 v=84
150522 On ch=4 n=78 v=84
150542 On ch=4 n=74 v=84
150660 On ch=4 n=71 v=84
151110 Off ch=4 n=81 v=64
151172 Off ch=4 n=74 v=64
151182 Off ch=4 n=78 v=64
151212 Off ch=4 n=71 v=64
151212 On ch=4 n=71 v=84
151322 On ch=4 n=74 v=84
151390 On ch=4 n=78 v=84
151482 Off ch=4 n=74 v=64
151510 On ch=4 n=81 v=84
151582 Off ch=4 n=78 v=64
151642 Off ch=4 n=81 v=64
185474 Off ch=4 n=71 v=64
195720 Pb ch=4 v=8090
195720 Par ch=4 c=2 v=127
195720 PrCh ch=4 p=16
195840 On ch=4 n=57 v=109
196320 On ch=4 n=60 v=109
196360 Off ch=4 n=57 v=64
196540 On ch=4 n=64 v=109
196560 Off ch=4 n=60 v=64
196780 Off ch=4 n=64 v=64
196780 On ch=4 n=59 v=109
197260 On ch=4 n=62 v=109
197300 Off ch=4 n=59 v=64
197500 On ch=4 n=66 v=109
197520 Off ch=4 n=62 v=64
197760 Off ch=4 n=66 v=64
197760 On ch=4 n=57 v=109
198240 Off ch=4 n=57 v=64
198240 On ch=4 n=60 v=109
198480 On ch=4 n=64 v=109
198520 Off ch=4 n=60 v=64
198700 On ch=4 n=59 v=109
198720 Off ch=4 n=64 v=64
199180 Off ch=4 n=59 v=64
199180 On ch=4 n=62 v=109
199420 On ch=4 n=66 v=109
199500 Off ch=4 n=62 v=64
199640 Off ch=4 n=66 v=64
199660 On ch=4 n=57 v=109
200160 On ch=4 n=60 v=109
200200 Off ch=4 n=57 v=64
200380 On ch=4 n=64 v=109
200400 Off ch=4 n=60 v=64
200620 Off ch=4 n=64 v=64
200620 On ch=4 n=59 v=109
201100 On ch=4 n=62 v=109
201140 Off ch=4 n=59 v=64
201340 On ch=4 n=66 v=109
201360 Off ch=4 n=62 v=64
201600 Off ch=4 n=66 v=64
201600 On ch=4 n=57 v=109
202080 Off ch=4 n=57 v=64
202080 On ch=4 n=60 v=109
202320 On ch=4 n=64 v=109
202360 Off ch=4 n=60 v=64
202540 On ch=4 n=59 v=109
202560 Off ch=4 n=64 v=64
203020 Off ch=4 n=59 v=64
203020 On ch=4 n=62 v=109
203260 On ch=4 n=66 v=109
203340 Off ch=4 n=62 v=64
203480 Off ch=4 n=66 v=64
203500 On ch=4 n=57 v=109
204000 On ch=4 n=60 v=109
204040 Off ch=4 n=57 v=64
204220 On ch=4 n=64 v=109
204240 Off ch=4 n=60 v=64
204460 Off ch=4 n=64 v=64
204460 On ch=4 n=59 v=109
204940 On ch=4 n=62 v=109
204980 Off ch=4 n=59 v=64
205180 On ch=4 n=66 v=109
205200 Off ch=4 n=62 v=64
205440 Off ch=4 n=66 v=64
205440 On ch=4 n=57 v=109
205920 Off ch=4 n=57 v=64
205920 On ch=4 n=60 v=109
206160 On ch=4 n=64 v=109
206200 Off ch=4 n=60 v=64
206380 On ch=4 n=59 v=109
206400 Off ch=4 n=64 v=64
206860 Off ch=4 n=59 v=64
206860 On ch=4 n=62 v=109
207100 On ch=4 n=66 v=109
207180 Off ch=4 n=62 v=64
207320 Off ch=4 n=66 v=64
207340 On ch=4 n=57 v=109
207840 On ch=4 n=60 v=109
207880 Off ch=4 n=57 v=64
208060 On ch=4 n=64 v=109
208080 Off ch=4 n=60 v=64
208300 Off ch=4 n=64 v=64
208300 On ch=4 n=59 v=109
208780 On ch=4 n=62 v=109
208820 Off ch=4 n=59 v=64
209020 On ch=4 n=66 v=109
209040 Off ch=4 n=62 v=64
209280 Off ch=4 n=66 v=64
209280 On ch=4 n=57 v=109
209760 Off ch=4 n=57 v=64
209760 On ch=4 n=60 v=109
210000 On ch=4 n=64 v=109
210040 Off ch=4 n=60 v=64
210220 On ch=4 n=59 v=109
210240 Off ch=4 n=64 v=64
210700 Off ch=4 n=59 v=64
210700 On ch=4 n=62 v=109
210940 On ch=4 n=66 v=109
211020 Off ch=4 n=62 v=64
211160 Off ch=4 n=66 v=64
211180 On ch=4 n=57 v=109
211680 On ch=4 n=60 v=109
211720 Off ch=4 n=57 v=64
211900 On ch=4 n=64 v=109
211920 Off ch=4 n=60 v=64
212140 Off ch=4 n=64 v=64
212140 On ch=4 n=59 v=109
212620 On ch=4 n=62 v=109
212660 Off ch=4 n=59 v=64
212860 On ch=4 n=66 v=109
212880 Off ch=4 n=62 v=64
213120 Off ch=4 n=66 v=64
213120 On ch=4 n=57 v=109
213600 Off ch=4 n=57 v=64
213600 On ch=4 n=60 v=109
213840 On ch=4 n=64 v=109
213880 Off ch=4 n=60 v=64
214060 On ch=4 n=59 v=109
214080 Off ch=4 n=64 v=64
214540 Off ch=4 n=59 v=64
214540 On ch=4 n=62 v=109
214780 On ch=4 n=66 v=109
214860 Off ch=4 n=62 v=64
215000 Off ch=4 n=66 v=64
215020 On ch=4 n=57 v=109
215520 On ch=4 n=60 v=109
215560 Off ch=4 n=57 v=64
215740 On ch=4 n=64 v=109
215760 Off ch=4 n=60 v=64
215980 Off ch=4 n=64 v=64
215980 On ch=4 n=59 v=109
216460 On ch=4 n=62 v=109
216500 Off ch=4 n=59 v=64
216700 On ch=4 n=66 v=109
216720 Off ch=4 n=62 v=64
216960 Off ch=4 n=66 v=64
216960 On ch=4 n=57 v=109
217440 Off ch=4 n=57 v=64
217440 On ch=4 n=60 v=109
217680 On ch=4 n=64 v=109
217720 Off ch=4 n=60 v=64
217900 On ch=4 n=59 v=109
217920 Off ch=4 n=64 v=64
218380 Off ch=4 n=59 v=64
218380 On ch=4 n=62 v=109
218620 On ch=4 n=66 v=109
218700 Off ch=4 n=62 v=64
218840 Off ch=4 n=66 v=64
218860 On ch=4 n=57 v=109
219360 On ch=4 n=60 v=109
219400 Off ch=4 n=57 v=64
219580 On ch=4 n=64 v=109
219600 Off ch=4 n=60 v=64
219820 Off ch=4 n=64 v=64
219820 On ch=4 n=59 v=109
220300 On ch=4 n=62 v=109
220340 Off ch=4 n=59 v=64
220540 On ch=4 n=66 v=109
220560 Off ch=4 n=62 v=64
220800 Off ch=4 n=66 v=64
220800 On ch=4 n=57 v=109
221280 Off ch=4 n=57 v=64
221280 On ch=4 n=60 v=109
221520 On ch=4 n=64 v=109
221560 Off ch=4 n=60 v=64
221740 On ch=4 n=59 v=109
221760 Off ch=4 n=64 v=64
222220 Off ch=4 n=59 v=64
222220 On ch=4 n=62 v=109
222460 On ch=4 n=66 v=109
222540 Off ch=4 n=62 v=64
222680 Off ch=4 n=66 v=64
222700 On ch=4 n=57 v=109
223200 On ch=4 n=60 v=109
223240 Off ch=4 n=57 v=64
223420 On ch=4 n=64 v=109
223440 Off ch=4 n=60 v=64
223660 Off ch=4 n=64 v=64
223660 On ch=4 n=59 v=109
224140 On ch=4 n=62 v=109
224180 Off ch=4 n=59 v=64
224380 On ch=4 n=66 v=109
224400 Off ch=4 n=62 v=64
224640 Off ch=4 n=66 v=64
224640 On ch=4 n=57 v=109
225120 Off ch=4 n=57 v=64
225120 On ch=4 n=60 v=109
225360 On ch=4 n=64 v=109
225400 Off ch=4 n=60 v=64
225580 On ch=4 n=59 v=109
225600 Off ch=4 n=64 v=64
226060 Off ch=4 n=59 v=64
226060 On ch=4 n=62 v=109
226300 On ch=4 n=66 v=109
226380 Off ch=4 n=62 v=64
226520 Off ch=4 n=66 v=64
226540 On ch=4 n=57 v=109
227040 On ch=4 n=60 v=109
227080 Off ch=4 n=57 v=64
227260 On ch=4 n=64 v=109
227280 Off ch=4 n=60 v=64
227500 Off ch=4 n=64 v=64
227500 On ch=4 n=59 v=109
227980 On ch=4 n=62 v=109
228020 Off ch=4 n=59 v=64
228220 On ch=4 n=66 v=109
228240 Off ch=4 n=62 v=64
228480 Off ch=4 n=66 v=64
228480 On ch=4 n=57 v=109
228960 Off ch=4 n=57 v=64
228960 On ch=4 n=60 v=109
229200 On ch=4 n=64 v=109
229240 Off ch=4 n=60 v=64
229420 On ch=4 n=59 v=109
229440 Off ch=4 n=64 v=64
229900 Off ch=4 n=59 v=64
229900 On ch=4 n=62 v=109
230140 On ch=4 n=66 v=109
230220 Off ch=4 n=62 v=64
230360 Off ch=4 n=66 v=64
230380 On ch=4 n=57 v=109
230880 On ch=4 n=60 v=109
230920 Off ch=4 n=57 v=64
231100 On ch=4 n=64 v=109
231120 Off ch=4 n=60 v=64
231340 Off ch=4 n=64 v=64
231340 On ch=4 n=59 v=109
231820 On ch=4 n=62 v=109
231860 Off ch=4 n=59 v=64
232060 On ch=4 n=66 v=109
232080 Off ch=4 n=62 v=64
232320 Off ch=4 n=66 v=64
232320 On ch=4 n=57 v=109
232800 Off ch=4 n=57 v=64
232800 On ch=4 n=60 v=109
233040 On ch=4 n=64 v=109
233080 Off ch=4 n=60 v=64
233260 On ch=4 n=59 v=109
233280 Off ch=4 n=64 v=64
233740 Off ch=4 n=59 v=64
233740 On ch=4 n=62 v=109
233980 On ch=4 n=66 v=109
234060 Off ch=4 n=62 v=64
234200 Off ch=4 n=66 v=64
234220 On ch=4 n=57 v=109
234720 On ch=4 n=60 v=109
234760 Off ch=4 n=57 v=64
234940 On ch=4 n=64 v=109
234960 Off ch=4 n=60 v=64
235180 Off ch=4 n=64 v=64
235180 On ch=4 n=59 v=109
235660 On ch=4 n=62 v=109
235700 Off ch=4 n=59 v=64
235900 On ch=4 n=66 v=109
235920 Off ch=4 n=62 v=64
236160 Off ch=4 n=66 v=64
236160 On ch=4 n=57 v=109
236640 Off ch=4 n=57 v=64
236640 On ch=4 n=60 v=109
236880 On ch=4 n=64 v=109
236920 Off ch=4 n=60 v=64
237100 On ch=4 n=59 v=109
237120 Off ch=4 n=64 v=64
237580 Off ch=4 n=59 v=64
237580 On ch=4 n=62 v=109
237820 On ch=4 n=66 v=109
237900 Off ch=4 n=62 v=64
238040 Off ch=4 n=66 v=64
238060 On ch=4 n=57 v=109
238560 On ch=4 n=60 v=109
238600 Off ch=4 n=57 v=64
238780 On ch=4 n=64 v=109
238800 Off ch=4 n=60 v=64
239020 Off ch=4 n=64 v=64
239020 On ch=4 n=59 v=109
239500 On ch=4 n=62 v=109
239540 Off ch=4 n=59 v=64
239740 On ch=4 n=66 v=109
239760 Off ch=4 n=62 v=64
240000 Off ch=4 n=66 v=64
240000 On ch=4 n=57 v=109
240480 Off ch=4 n=57 v=64
240480 On ch=4 n=60 v=109
240720 On ch=4 n=64 v=109
240760 Off ch=4 n=60 v=64
240940 On ch=4 n=59 v=109
240960 Off ch=4 n=64 v=64
241420 Off ch=4 n=59 v=64
241420 On ch=4 n=62 v=109
241660 On ch=4 n=66 v=109
241740 Off ch=4 n=62 v=64
241880 Off ch=4 n=66 v=64
241900 On ch=4 n=57 v=109
242400 On ch=4 n=60 v=109
242440 Off ch=4 n=57 v=64
242620 On ch=4 n=64 v=109
242640 Off ch=4 n=60 v=64
242860 Off ch=4 n=64 v=64
242860 On ch=4 n=59 v=109
243340 On ch=4 n=62 v=109
243380 Off ch=4 n=59 v=64
243580 On ch=4 n=66 v=109
243600 Off ch=4 n=62 v=64
243840 Off ch=4 n=66 v=64
243840 On ch=4 n=57 v=109
244320 Off ch=4 n=57 v=64
244320 On ch=4 n=60 v=109
244560 On ch=4 n=64 v=109
244600 Off ch=4 n=60 v=64
244780 On ch=4 n=59 v=109
244800 Off ch=4 n=64 v=64
245260 Off ch=4 n=59 v=64
245260 On ch=4 n=62 v=109
245500 On ch=4 n=66 v=109
245580 Off ch=4 n=62 v=64
245720 Off ch=4 n=66 v=64
245740 On ch=4 n=57 v=109
246240 On ch=4 n=60 v=109
246280 Off ch=4 n=57 v=64
246460 On ch=4 n=64 v=109
246480 Off ch=4 n=60 v=64
246700 Off ch=4 n=64 v=64
246700 On ch=4 n=59 v=109
247180 On ch=4 n=62 v=109
247220 Off ch=4 n=59 v=64
247420 On ch=4 n=66 v=109
247440 Off ch=4 n=62 v=64
247680 Off ch=4 n=66 v=64
247680 On ch=4 n=57 v=109
248160 Off ch=4 n=57 v=64
248160 On ch=4 n=60 v=109
248400 On ch=4 n=64 v=109
248440 Off ch=4 n=60 v=64
248620 On ch=4 n=59 v=109
248640 Off ch=4 n=64 v=64
249100 Off ch=4 n=59 v=64
249100 On ch=4 n=62 v=109
249340 On ch=4 n=66 v=109
249420 Off ch=4 n=62 v=64
249560 Off ch=4 n=66 v=64
249600 On ch=4 n=57 v=109
250080 Off ch=4 n=57 v=64
250080 On ch=4 n=60 v=109
250320 On ch=4 n=64 v=109
250360 Off ch=4 n=60 v=64
250540 On ch=4 n=59 v=109
250560 Off ch=4 n=64 v=64
251020 Off ch=4 n=59 v=64
251020 On ch=4 n=62 v=109
251260 On ch=4 n=66 v=109
251340 Off ch=4 n=62 v=64
251480 Off ch=4 n=66 v=64
251520 On ch=4 n=57 v=109
252000 On ch=4 n=60 v=109
252040 Off ch=4 n=57 v=64
252220 On ch=4 n=64 v=109
252240 Off ch=4 n=60 v=64
252460 Off ch=4 n=64 v=64
252460 On ch=4 n=59 v=109
252940 On ch=4 n=62 v=109
252980 Off ch=4 n=59 v=64
253180 On ch=4 n=66 v=109
253200 Off ch=4 n=62 v=64
253440 Off ch=4 n=66 v=64
253440 On ch=4 n=57 v=109
253920 Off ch=4 n=57 v=64
253920 On ch=4 n=60 v=109
254160 On ch=4 n=64 v=109
254200 Off ch=4 n=60 v=64
254380 On ch=4 n=59 v=109
254400 Off ch=4 n=64 v=64
254860 Off ch=4 n=59 v=64
254860 On ch=4 n=62 v=109
255100 On ch=4 n=66 v=109
255180 Off ch=4 n=62 v=64
255320 Off ch=4 n=66 v=64
255340 On ch=4 n=57 v=109
255840 On ch=4 n=60 v=109
255880 Off ch=4 n=57 v=64
256060 On ch=4 n=64 v=109
256080 Off ch=4 n=60 v=64
256300 Off ch=4 n=64 v=64
256300 On ch=4 n=59 v=109
256780 On ch=4 n=62 v=109
256820 Off ch=4 n=59 v=64
257020 On ch=4 n=66 v=109
257040 Off ch=4 n=62 v=64
257280 Off ch=4 n=66 v=64
257280 On ch=4 n=57 v=109
257760 Off ch=4 n=57 v=64
257760 On ch=4 n=60 v=109
258000 On ch=4 n=64 v=109
258040 Off ch=4 n=60 v=64
258220 On ch=4 n=59 v=109
258240 Off ch=4 n=64 v=64
258700 Off ch=4 n=59 v=64
258700 On ch=4 n=62 v=109
258940 On ch=4 n=66 v=109
259020 Off ch=4 n=62 v=64
259160 Off ch=4 n=66 v=64
259180 On ch=4 n=57 v=109
259680 On ch=4 n=60 v=109
259720 Off ch=4 n=57 v=64
259900 On ch=4 n=64 v=109
259920 Off ch=4 n=60 v=64
260140 Off ch=4 n=64 v=64
260140 On ch=4 n=59 v=109
260620 On ch=4 n=62 v=109
260660 Off ch=4 n=59 v=64
260860 On ch=4 n=66 v=109
260880 Off ch=4 n=62 v=64
261120 Off ch=4 n=66 v=64
261120 On ch=4 n=57 v=109
261600 Off ch=4 n=57 v=64
261600 On ch=4 n=60 v=109
261840 On ch=4 n=64 v=109
261880 Off ch=4 n=60 v=64
262060 On ch=4 n=59 v=109
262080 Off ch=4 n=64 v=64
262540 Off ch=4 n=59 v=64
262540 On ch=4 n=62 v=109
262780 On ch=4 n=66 v=109
262860 Off ch=4 n=62 v=64
263000 Off ch=4 n=66 v=64
263020 On ch=4 n=57 v=109
263520 On ch=4 n=60 v=109
263560 Off ch=4 n=57 v=64
263740 On ch=4 n=64 v=109
263760 Off ch=4 n=60 v=64
263980 Off ch=4 n=64 v=64
263980 On ch=4 n=59 v=109
264460 On ch=4 n=62 v=109
264500 Off ch=4 n=59 v=64
264700 On ch=4 n=66 v=109
264720 Off ch=4 n=62 v=64
264960 Off ch=4 n=66 v=64
264960 On ch=4 n=57 v=109
265440 Off ch=4 n=57 v=64
265440 On ch=4 n=60 v=109
265680 On ch=4 n=64 v=109
265720 Off ch=4 n=60 v=64
265900 On ch=4 n=59 v=109
265920 Off ch=4 n=64 v=64
266380 Off ch=4 n=59 v=64
266380 On ch=4 n=62 v=109
266620 On ch=4 n=66 v=109
266700 Off ch=4 n=62 v=64
266840 Off ch=4 n=66 v=64
266860 On ch=4 n=57 v=109
267360 On ch=4 n=60 v=109
267400 Off ch=4 n=57 v=64
267580 On ch=4 n=64 v=109
267600 Off ch=4 n=60 v=64
267820 Off ch=4 n=64 v=64
267820 On ch=4 n=59 v=109
268300 On ch=4 n=62 v=109
268340 Off ch=4 n=59 v=64
268540 On ch=4 n=66 v=109
268560 Off ch=4 n=62 v=64
268800 Off ch=4 n=66 v=64
268800 On ch=4 n=57 v=109
269280 Off ch=4 n=57 v=64
269280 On ch=4 n=60 v=109
269520 On ch=4 n=64 v=109
269560 Off ch=4 n=60 v=64
269740 On ch=4 n=59 v=109
269760 Off ch=4 n=64 v=64
270220 Off ch=4 n=59 v=64
270220 On ch=4 n=62 v=109
270460 On ch=4 n=66 v=109
270540 Off ch=4 n=62 v=64
270680 Off ch=4 n=66 v=64
270700 On ch=4 n=57 v=109
271200 On ch=4 n=60 v=109
271240 Off ch=4 n=57 v=64
271420 On ch=4 n=64 v=109
271440 Off ch=4 n=60 v=64
271660 Off ch=4 n=64 v=64
271660 On ch=4 n=59 v=109
272140 On ch=4 n=62 v=109
272180 Off ch=4 n=59 v=64
272380 On ch=4 n=66 v=109
272400 Off ch=4 n=62 v=64
272640 Off ch=4 n=66 v=64
272640 On ch=4 n=57 v=109
273120 Off ch=4 n=57 v=64
273120 On ch=4 n=60 v=109
273360 On ch=4 n=64 v=109
273400 Off ch=4 n=60 v=64
273580 On ch=4 n=59 v=109
273600 Off ch=4 n=64 v=64
274060 Off ch=4 n=59 v=64
274060 On ch=4 n=62 v=109
274300 On ch=4 n=66 v=109
274380 Off ch=4 n=62 v=64
274520 Off ch=4 n=66 v=64
274540 On ch=4 n=57 v=109
275040 On ch=4 n=60 v=109
275080 Off ch=4 n=57 v=64
275260 On ch=4 n=64 v=109
275280 Off ch=4 n=60 v=64
275500 Off ch=4 n=64 v=64
275500 On ch=4 n=59 v=109
275980 On ch=4 n=62 v=109
276020 Off ch=4 n=59 v=64
276220 On ch=4 n=66 v=109
276240 Off ch=4 n=62 v=64
276480 Off ch=4 n=66 v=64
276480 On ch=4 n=57 v=109
276960 Off ch=4 n=57 v=64
276960 On ch=4 n=60 v=109
277200 On ch=4 n=64 v=109
277240 Off ch=4 n=60 v=64
277420 On ch=4 n=59 v=109
277440 Off ch=4 n=64 v=64
277900 Off ch=4 n=59 v=64
277900 On ch=4 n=62 v=109
278140 On ch=4 n=66 v=109
278220 Off ch=4 n=62 v=64
278360 Off ch=4 n=66 v=64
278380 On ch=4 n=57 v=109
278880 On ch=4 n=60 v=109
278920 Off ch=4 n=57 v=64
279100 On ch=4 n=64 v=109
279120 Off ch=4 n=60 v=64
279340 Off ch=4 n=64 v=64
279340 On ch=4 n=59 v=109
279820 On ch=4 n=62 v=109
279860 Off ch=4 n=59 v=64
280060 On ch=4 n=66 v=109
280080 Off ch=4 n=62 v=64
280320 Off ch=4 n=66 v=64
280320 On ch=4 n=57 v=109
280800 Off ch=4 n=57 v=64
280800 On ch=4 n=60 v=109
281040 On ch=4 n=64 v=109
281080 Off ch=4 n=60 v=64
281260 On ch=4 n=59 v=109
281280 Off ch=4 n=64 v=64
281740 Off ch=4 n=59 v=64
281740 On ch=4 n=62 v=109
281980 On ch=4 n=66 v=109
282060 Off ch=4 n=62 v=64
282200 Off ch=4 n=66 v=64
282220 On ch=4 n=57 v=109
282720 On ch=4 n=60 v=109
282760 Off ch=4 n=57 v=64
282940 On ch=4 n=64 v=109
282960 Off ch=4 n=60 v=64
283180 Off ch=4 n=64 v=64
283180 On ch=4 n=59 v=109
283660 On ch=4 n=62 v=109
283700 Off ch=4 n=59 v=64
283900 On ch=4 n=66 v=109
283920 Off ch=4 n=62 v=64
284160 Off ch=4 n=66 v=64
284160 On ch=4 n=57 v=109
284640 Off ch=4 n=57 v=64
284640 On ch=4 n=60 v=109
284880 On ch=4 n=64 v=109
284920 Off ch=4 n=60 v=64
285100 On ch=4 n=59 v=109
285120 Off ch=4 n=64 v=64
285580 Off ch=4 n=59 v=64
285580 On ch=4 n=62 v=109
285820 On ch=4 n=66 v=109
285900 Off ch=4 n=62 v=64
286040 Off ch=4 n=66 v=64
286060 On ch=4 n=57 v=109
286560 On ch=4 n=60 v=109
286600 Off ch=4 n=57 v=64
286780 On ch=4 n=64 v=109
286800 Off ch=4 n=60 v=64
287020 Off ch=4 n=64 v=64
287020 On ch=4 n=59 v=109
287500 On ch=4 n=62 v=109
287540 Off ch=4 n=59 v=64
287740 On ch=4 n=66 v=109
287760 Off ch=4 n=62 v=64
288000 Off ch=4 n=66 v=64
288000 On ch=4 n=57 v=109
288480 Off ch=4 n=57 v=64
288480 On ch=4 n=60 v=109
288720 On ch=4 n=64 v=109
288760 Off ch=4 n=60 v=64
288940 On ch=4 n=59 v=109
288960 Off ch=4 n=64 v=64
289420 Off ch=4 n=59 v=64
289420 On ch=4 n=62 v=109
289660 On ch=4 n=66 v=109
289740 Off ch=4 n=62 v=64
289880 Off ch=4 n=66 v=64
289900 On ch=4 n=57 v=109
290400 On ch=4 n=60 v=109
290440 Off ch=4 n=57 v=64
290620 On ch=4 n=64 v=109
290640 Off ch=4 n=60 v=64
290860 Off ch=4 n=64 v=64
290860 On ch=4 n=59 v=109
291340 On ch=4 n=62 v=109
291380 Off ch=4 n=59 v=64
291580 On ch=4 n=66 v=109
291600 Off ch=4 n=62 v=64
291840 Off ch=4 n=66 v=64
293760 On ch=4 n=57 v=109
294240 Off ch=4 n=57 v=64
294240 On ch=4 n=60 v=109
294480 On ch=4 n=64 v=109
294520 Off ch=4 n=60 v=64
294700 On ch=4 n=59 v=109
294720 Off ch=4 n=64 v=64
295180 Off ch=4 n=59 v=64
295180 On ch=4 n=62 v=109
295420 On ch=4 n=66 v=109
295500 Off ch=4 n=62 v=64
295640 Off ch=4 n=66 v=64
295660 On ch=4 n=57 v=109
296160 On ch=4 n=60 v=109
296200 Off ch=4 n=57 v=64
296380 On ch=4 n=64 v=109
296400 Off ch=4 n=60 v=64
296620 Off ch=4 n=64 v=64
296620 On ch=4 n=59 v=109
297100 On ch=4 n=62 v=109
297140 Off ch=4 n=59 v=64
297340 On ch=4 n=66 v=109
297360 Off ch=4 n=62 v=64
297600 Off ch=4 n=66 v=64
297600 On ch=4 n=57 v=109
298080 Off ch=4 n=57 v=64
298080 On ch=4 n=60 v=109
298320 On ch=4 n=64 v=109
298360 Off ch=4 n=60 v=64
298540 On ch=4 n=59 v=109
298560 Off ch=4 n=64 v=64
299020 Off ch=4 n=59 v=64
299020 On ch=4 n=62 v=109
299260 On ch=4 n=66 v=109
299340 Off ch=4 n=62 v=64
299480 Off ch=4 n=66 v=64
299500 On ch=4 n=57 v=109
300000 On ch=4 n=60 v=109
300040 Off ch=4 n=57 v=64
300220 On ch=4 n=64 v=109
300240 Off ch=4 n=60 v=64
300460 Off ch=4 n=64 v=64
300460 On ch=4 n=59 v=109
300940 On ch=4 n=62 v=109
300980 Off ch=4 n=59 v=64
301180 On ch=4 n=66 v=109
301200 Off ch=4 n=62 v=64
301440 Off ch=4 n=66 v=64
301440 On ch=4 n=57 v=109
301920 Off ch=4 n=57 v=64
301920 On ch=4 n=60 v=109
302160 On ch=4 n=64 v=109
302200 Off ch=4 n=60 v=64
302380 On ch=4 n=59 v=109
302400 Off ch=4 n=64 v=64
302860 Off ch=4 n=59 v=64
302860 On ch=4 n=62 v=109
303100 On ch=4 n=66 v=109
303180 Off ch=4 n=62 v=64
303320 Off ch=4 n=66 v=64
303340 On ch=4 n=57 v=109
303840 On ch=4 n=60 v=109
303880 Off ch=4 n=57 v=64
304060 On ch=4 n=64 v=109
304080 Off ch=4 n=60 v=64
304300 Off ch=4 n=64 v=64
304300 On ch=4 n=59 v=109
304780 On ch=4 n=62 v=109
304820 Off ch=4 n=59 v=64
305020 On ch=4 n=66 v=109
305040 Off ch=4 n=62 v=64
305280 Off ch=4 n=66 v=64
305280 On ch=4 n=57 v=109
305760 Off ch=4 n=57 v=64
305760 On ch=4 n=60 v=109
306000 On ch=4 n=64 v=109
306040 Off ch=4 n=60 v=64
306220 On ch=4 n=59 v=109
306240 Off ch=4 n=64 v=64
306700 Off ch=4 n=59 v=64
306700 On ch=4 n=62 v=109
306940 On ch=4 n=66 v=109
307020 Off ch=4 n=62 v=64
307160 Off ch=4 n=66 v=64
307180 On ch=4 n=57 v=109
307680 On ch=4 n=60 v=109
307720 Off ch=4 n=57 v=64
307900 On ch=4 n=64 v=109
307920 Off ch=4 n=60 v=64
308140 Off ch=4 n=64 v=64
308140 On ch=4 n=59 v=109
308620 On ch=4 n=62 v=109
308660 Off ch=4 n=59 v=64
308860 On ch=4 n=66 v=109
308880 Off ch=4 n=62 v=64
309120 Off ch=4 n=66 v=64
309120 On ch=4 n=57 v=109
309600 Off ch=4 n=57 v=64
309600 On ch=4 n=60 v=109
309840 On ch=4 n=64 v=109
309880 Off ch=4 n=60 v=64
310060 On ch=4 n=59 v=109
310080 Off ch=4 n=64 v=64
310540 Off ch=4 n=59 v=64
310540 On ch=4 n=62 v=109
310780 On ch=4 n=66 v=109
310860 Off ch=4 n=62 v=64
311000 Off ch=4 n=66 v=64
311020 On ch=4 n=57 v=109
311520 On ch=4 n=60 v=109
311560 Off ch=4 n=57 v=64
311740 On ch=4 n=64 v=109
311760 Off ch=4 n=60 v=64
311980 Off ch=4 n=64 v=64
311980 On ch=4 n=59 v=109
312460 On ch=4 n=62 v=109
312500 Off ch=4 n=59 v=64
312700 On ch=4 n=66 v=109
312720 Off ch=4 n=62 v=64
312960 Off ch=4 n=66 v=64
312960 On ch=4 n=57 v=109
313440 Off ch=4 n=57 v=64
313440 On ch=4 n=60 v=109
313680 On ch=4 n=64 v=109
313720 Off ch=4 n=60 v=64
313900 On ch=4 n=59 v=109
313920 Off ch=4 n=64 v=64
314380 Off ch=4 n=59 v=64
314380 On ch=4 n=62 v=109
314620 On ch=4 n=66 v=109
314700 Off ch=4 n=62 v=64
314840 Off ch=4 n=66 v=64
314860 On ch=4 n=57 v=109
315360 On ch=4 n=60 v=109
315400 Off ch=4 n=57 v=64
315580 On ch=4 n=64 v=109
315600 Off ch=4 n=60 v=64
315820 Off ch=4 n=64 v=64
315820 On ch=4 n=59 v=109
316300 On ch=4 n=62 v=109
316340 Off ch=4 n=59 v=64
316540 On ch=4 n=66 v=109
316560 Off ch=4 n=62 v=64
316800 Off ch=4 n=66 v=64
316800 On ch=4 n=57 v=109
317280 Off ch=4 n=57 v=64
317280 On ch=4 n=60 v=109
317520 On ch=4 n=64 v=109
317560 Off ch=4 n=60 v=64
317740 On ch=4 n=59 v=109
317760 Off ch=4 n=64 v=64
318220 Off ch=4 n=59 v=64
318220 On ch=4 n=62 v=109
318460 On ch=4 n=66 v=109
318540 Off ch=4 n=62 v=64
318680 Off ch=4 n=66 v=64
318700 On ch=4 n=57 v=109
319200 On ch=4 n=60 v=109
319240 Off ch=4 n=57 v=64
319420 On ch=4 n=64 v=109
319440 Off ch=4 n=60 v=64
319660 Off ch=4 n=64 v=64
319660 On ch=4 n=59 v=109
320140 On ch=4 n=62 v=109
320180 Off ch=4 n=59 v=64
320380 On ch=4 n=66 v=109
320400 Off ch=4 n=62 v=64
320640 Off ch=4 n=66 v=64
320640 On ch=4 n=57 v=109
321120 Off ch=4 n=57 v=64
321120 On ch=4 n=60 v=109
321360 On ch=4 n=64 v=109
321400 Off ch=4 n=60 v=64
321580 On ch=4 n=59 v=109
321600 Off ch=4 n=64 v=64
322060 Off ch=4 n=59 v=64
322060 On ch=4 n=62 v=109
322300 On ch=4 n=66 v=109
322380 Off ch=4 n=62 v=64
322520 Off ch=4 n=66 v=64
322540 On ch=4 n=57 v=109
323040 On ch=4 n=60 v=109
323080 Off ch=4 n=57 v=64
323260 On ch=4 n=64 v=109
323280 Off ch=4 n=60 v=64
323500 Off ch=4 n=64 v=64
323500 On ch=4 n=59 v=109
323980 On ch=4 n=62 v=109
324020 Off ch=4 n=59 v=64
324220 On ch=4 n=66 v=109
324240 Off ch=4 n=62 v=64
324480 Off ch=4 n=66 v=64
324480 On ch=4 n=57 v=109
324960 Off ch=4 n=57 v=64
324960 On ch=4 n=60 v=109
325200 On ch=4 n=64 v=109
325240 Off ch=4 n=60 v=64
325420 On ch=4 n=59 v=109
325440 Off ch=4 n=64 v=64
325900 Off ch=4 n=59 v=64
325900 On ch=4 n=62 v=109
326140 On ch=4 n=66 v=109
326220 Off ch=4 n=62 v=64
326360 Off ch=4 n=66 v=64
326370 PrCh ch=4 p=29
326400 On ch=4 n=57 v=109
326400 On ch=4 n=64 v=109
326580 Off ch=4 n=64 v=64
326640 On ch=4 n=64 v=109
326820 Off ch=4 n=64 v=64
326880 On ch=4 n=64 v=109
326920 Off ch=4 n=57 v=64
327060 Off ch=4 n=64 v=64
327120 On ch=4 n=64 v=109
327300 Off ch=4 n=64 v=64
327360 On ch=4 n=64 v=109
327540 Off ch=4 n=64 v=64
327600 On ch=4 n=64 v=109
327780 Off ch=4 n=64 v=64
327840 On ch=4 n=64 v=109
328020 Off ch=4 n=64 v=64
328080 On ch=4 n=56 v=109
328260 Off ch=4 n=56 v=64
328320 On ch=4 n=64 v=109
328500 Off ch=4 n=64 v=64
328560 On ch=4 n=64 v=109
328740 Off ch=4 n=64 v=64
328800 On ch=4 n=64 v=109
328980 Off ch=4 n=64 v=64
329040 On ch=4 n=64 v=109
329220 Off ch=4 n=64 v=64
329280 On ch=4 n=64 v=109
329460 Off ch=4 n=64 v=64
329520 On ch=4 n=64 v=109
329700 Off ch=4 n=64 v=64
329760 On ch=4 n=64 v=109
329940 Off ch=4 n=64 v=64
330000 On ch=4 n=56 v=109
330180 Off ch=4 n=56 v=64
330720 On ch=4 n=57 v=109
331200 Off ch=4 n=57 v=64
331440 On ch=4 n=57 v=109
331680 Off ch=4 n=57 v=64
331680 On ch=4 n=57 v=109
331920 Off ch=4 n=57 v=64
331920 On ch=4 n=57 v=109
332640 Off ch=4 n=57 v=64
332640 On ch=4 n=57 v=109
333120 Off ch=4 n=57 v=64
333360 On ch=4 n=57 v=109
333600 Off ch=4 n=57 v=64
333600 On ch=4 n=57 v=109
333840 Off ch=4 n=57 v=64
333840 On ch=4 n=57 v=109
334560 Off ch=4 n=57 v=64
334560 On ch=4 n=57 v=109
335040 Off ch=4 n=57 v=64
335280 On ch=4 n=57 v=109
335520 Off ch=4 n=57 v=64
335520 On ch=4 n=57 v=109
335760 Off ch=4 n=57 v=64
335760 On ch=4 n=57 v=109
336480 Off ch=4 n=57 v=64
336480 On ch=4 n=57 v=109
336960 Off ch=4 n=57 v=64
337200 On ch=4 n=57 v=109
337440 Off ch=4 n=57 v=64
337440 On ch=4 n=57 v=109
337680 Off ch=4 n=57 v=64
337680 On ch=4 n=57 v=109
338400 Off ch=4 n=57 v=64
338400 On ch=4 n=57 v=109
338880 Off ch=4 n=57 v=64
339120 On ch=4 n=57 v=109
339360 Off ch=4 n=57 v=64
339360 On ch=4 n=57 v=109
339600 Off ch=4 n=57 v=64
339600 On ch=4 n=57 v=109
340320 Off ch=4 n=57 v=64
340320 On ch=4 n=57 v=109
340800 Off ch=4 n=57 v=64
341040 On ch=4 n=57 v=109
341280 Off ch=4 n=57 v=64
341280 On ch=4 n=57 v=109
341520 Off ch=4 n=57 v=64
341520 On ch=4 n=57 v=109
342240 Off ch=4 n=57 v=64
342240 On ch=4 n=57 v=109
342720 Off ch=4 n=57 v=64
342960 On ch=4 n=57 v=109
343200 Off ch=4 n=57 v=64
343200 On ch=4 n=57 v=109
343440 Off ch=4 n=57 v=64
343440 On ch=4 n=57 v=109
344160 Off ch=4 n=57 v=64
344160 On ch=4 n=57 v=109
344640 Off ch=4 n=57 v=64
344880 On ch=4 n=57 v=109
345120 Off ch=4 n=57 v=64
345120 On ch=4 n=57 v=109
345360 Off ch=4 n=57 v=64
345360 On ch=4 n=57 v=109
345600 Off ch=4 n=57 v=64
345600 Pb ch=4 v=8294
345600 On ch=4 n=59 v=109
346080 Off ch=4 n=59 v=64
346080 On ch=4 n=55 v=109
346560 Off ch=4 n=55 v=64
346560 On ch=4 n=61 v=109
347040 Off ch=4 n=61 v=64
347040 On ch=4 n=57 v=109
347760 Off ch=4 n=57 v=64
347760 On ch=4 n=54 v=109
347880 Off ch=4 n=54 v=64
347880 On ch=4 n=55 v=109
348000 Off ch=4 n=55 v=64
348000 On ch=4 n=57 v=109
348240 Off ch=4 n=57 v=64
348240 On ch=4 n=62 v=109
348480 Off ch=4 n=62 v=64
348480 On ch=4 n=57 v=109
348720 Off ch=4 n=57 v=64
348720 On ch=4 n=55 v=109
348960 Off ch=4 n=55 v=64
348960 On ch=4 n=57 v=109
349200 Off ch=4 n=57 v=64
349200 On ch=4 n=62 v=109
349440 Off ch=4 n=62 v=64
349440 On ch=4 n=55 v=109
350400 Off ch=4 n=55 v=64
350400 On ch=4 n=57 v=109
352560 Off ch=4 n=57 v=64
352560 On ch=4 n=55 v=109
352800 Off ch=4 n=55 v=64
352800 On ch=4 n=57 v=109
353040 Off ch=4 n=57 v=64
353040 On ch=4 n=50 v=109
353280 Off ch=4 n=50 v=64
353280 On ch=4 n=57 v=109
354240 Off ch=4 n=57 v=64
354240 On ch=4 n=55 v=109
355200 Off ch=4 n=55 v=64
355200 On ch=4 n=57 v=109
356400 Off ch=4 n=57 v=64
356400 On ch=4 n=55 v=109
356640 Off ch=4 n=55 v=64
356640 On ch=4 n=57 v=109
356880 Off ch=4 n=57 v=64
356880 On ch=4 n=62 v=109
357120 Off ch=4 n=62 v=64
357120 On ch=4 n=57 v=109
358080 Off ch=4 n=57 v=64
358080 On ch=4 n=55 v=109
359040 Off ch=4 n=55 v=64
359040 On ch=4 n=57 v=109
360240 Off ch=4 n=57 v=64
360240 On ch=4 n=55 v=109
360480 Off ch=4 n=55 v=64
360480 On ch=4 n=57 v=109
360720 Off ch=4 n=57 v=64
360720 On ch=4 n=62 v=109
360960 Off ch=4 n=62 v=64
360960 On ch=4 n=57 v=109
361920 Off ch=4 n=57 v=64
361920 On ch=4 n=55 v=109
362880 Off ch=4 n=55 v=64
362880 On ch=4 n=57 v=109
364080 Off ch=4 n=57 v=64
364080 On ch=4 n=55 v=109
364320 Off ch=4 n=55 v=64
364320 On ch=4 n=57 v=109
364560 Off ch=4 n=57 v=64
364560 On ch=4 n=62 v=109
364800 Off ch=4 n=62 v=64
364800 On ch=4 n=60 v=109
365760 Off ch=4 n=60 v=64
365760 On ch=4 n=60 v=109
366720 Off ch=4 n=60 v=64
367200 On ch=4 n=50 v=109
367440 Off ch=4 n=50 v=64
367440 On ch=4 n=57 v=109
367680 Off ch=4 n=57 v=64
367680 On ch=4 n=62 v=109
369600 Off ch=4 n=62 v=64
370560 On ch=4 n=71 v=109
370560 Par ch=4 c=10 v=10
370560 Pb ch=4 v=8294
370780 On ch=4 n=67 v=109
370800 Off ch=4 n=71 v=64
370900 On ch=4 n=69 v=109
370920 Off ch=4 n=67 v=64
371000 On ch=4 n=71 v=109
371040 Off ch=4 n=69 v=64
371240 Off ch=4 n=71 v=64
371240 On ch=4 n=74 v=109
371500 On ch=4 n=72 v=109
371520 Off ch=4 n=74 v=64
371740 On ch=4 n=71 v=109
371820 Off ch=4 n=72 v=64
371980 Off ch=4 n=71 v=64
371980 On ch=4 n=69 v=109
372220 On ch=4 n=67 v=109
372260 Off ch=4 n=69 v=64
372460 Off ch=4 n=67 v=64
372460 On ch=4 n=69 v=109
372700 On ch=4 n=65 v=109
372740 Off ch=4 n=69 v=64
372820 On ch=4 n=67 v=109
372840 Off ch=4 n=65 v=64
372920 On ch=4 n=69 v=109
372960 Off ch=4 n=67 v=64
373120 Off ch=4 n=69 v=64
373180 On ch=4 n=77 v=109
373380 Off ch=4 n=77 v=64
373380 On ch=4 n=74 v=109
373420 Off ch=4 n=74 v=64
373420 On ch=4 n=74 v=109
373520 Off ch=4 n=74 v=64
373540 On ch=4 n=72 v=109
373640 Off ch=4 n=72 v=64
373660 On ch=4 n=70 v=109
373780 Off ch=4 n=70 v=64
373780 On ch=4 n=69 v=109
373900 Off ch=4 n=69 v=64
373920 On ch=4 n=67 v=109
374100 Off ch=4 n=67 v=64
374160 On ch=4 n=65 v=109
374340 Off ch=4 n=65 v=64
374400 On ch=4 n=67 v=109
374620 On ch=4 n=63 v=109
374660 Off ch=4 n=67 v=64
374740 On ch=4 n=65 v=109
374780 Off ch=4 n=63 v=64
374860 On ch=4 n=67 v=109
374900 Off ch=4 n=65 v=64
375060 Off ch=4 n=67 v=64
375080 On ch=4 n=70 v=109
375340 Off ch=4 n=70 v=64
375340 On ch=4 n=68 v=109
375460 Off ch=4 n=68 v=64
375460 On ch=4 n=67 v=109
375580 Off ch=4 n=67 v=64
375580 On ch=4 n=65 v=109
375700 On ch=4 n=63 v=109
375740 Off ch=4 n=65 v=64
375820 On ch=4 n=62 v=109
375840 Off ch=4 n=63 v=64
376080 On ch=4 n=63 v=109
376140 Off ch=4 n=62 v=64
376300 Off ch=4 n=63 v=64
376320 On ch=4 n=57 v=109
376320 On ch=4 n=52 v=109
376320 On ch=4 n=49 v=109
376320 On ch=4 n=69 v=109
376340 Off ch=4 n=69 v=64
376340 On ch=4 n=64 v=109
376340 On ch=4 n=61 v=109
379900 Off ch=4 n=49 v=64
379920 Off ch=4 n=52 v=64
379940 Off ch=4 n=57 v=64
380140 Off ch=4 n=61 v=64
380160 Off ch=4 n=64 v=64
382080 Par ch=4 c=68 v=0
382080 Par ch=4 c=67 v=0
382080 Par ch=4 c=66 v=0
382080 Par ch=4 c=65 v=0
382080 Par ch=4 c=10 v=64
382080 Par ch=4 c=8 v=0
382080 Par ch=4 c=4 v=0
382080 PoPr ch=4 n=0 v=0
382080 Pb ch=4 v=8192
382080 ChPr ch=4 v=0
382080 Par ch=4 c=1 v=0
382092 Par ch=4 c=2 v=0
382105 Par ch=4 c=7 v=100
382117 Par ch=4 c=11 v=100
382130 Par ch=4 c=64 v=0
382142 Par ch=4 c=91 v=40
382155 Par ch=4 c=93 v=40
382560 Par ch=4 c=99 v=1
382590 Par ch=4 c=98 v=8
382620 Par ch=4 c=6 v=64
382685 Par ch=4 c=99 v=1
382715 Par ch=4 c=98 v=9
382745 Par ch=4 c=6 v=64
382910 Par ch=4 c=99 v=1
382940 Par ch=4 c=98 v=10
382970 Par ch=4 c=6 v=64
383035 Par ch=4 c=99 v=1
383065 Par ch=4 c=98 v=32
383095 Par ch=4 c=6 v=64
383160 Par ch=4 c=99 v=1
383190 Par ch=4 c=98 v=33
383220 Par ch=4 c=6 v=64
383285 Par ch=4 c=99 v=1
383315 Par ch=4 c=98 v=99
383345 Par ch=4 c=6 v=64
383410 Par ch=4 c=99 v=1
383435 Par ch=4 c=99 v=1
383440 Par ch=4 c=98 v=100
383465 Par ch=4 c=98 v=102
383470 Par ch=4 c=6 v=64
383495 Par ch=4 c=6 v=64
383560 Par ch=4 c=101 v=0
383590 Par ch=4 c=100 v=0
383620 Par ch=4 c=6 v=2
383685 Par ch=4 c=0 v=0
383686 Par ch=4 c=32 v=0
383715 Par ch=4 c=121 v=0
383715 Meta TrkEnd
TrkEnd
MTrk
0 Meta TrkName "Rhthm 3             "
0 Meta 0x21 00
0 Meta 0x20 04
0 Par ch=5 c=7 v=100
0 Par ch=5 c=10 v=75
0 PrCh ch=5 p=28
0 Par ch=5 c=121 v=0
0 Pb ch=5 v=8192
0 Par ch=5 c=91 v=40
0 Par ch=5 c=93 v=40
0 Par ch=5 c=4 v=0
0 Par ch=5 c=8 v=0
0 Par ch=5 c=64 v=0
0 Par ch=5 c=65 v=0
0 Par ch=5 c=66 v=0
0 Par ch=5 c=67 v=0
0 Par ch=5 c=68 v=0
0 Par ch=5 c=2 v=127
1 Par ch=5 c=11 v=127
1 Par ch=5 c=1 v=0
80 Par ch=5 c=101 v=0
120 Par ch=5 c=100 v=0
360 Par ch=5 c=6 v=12
959 Par ch=5 c=91 v=80
1440 Par ch=5 c=0 v=0
1920 On ch=5 n=65 v=89
1920 On ch=5 n=60 v=89
1920 On ch=5 n=57 v=89
2790 Off ch=5 n=57 v=64
2790 Off ch=5 n=60 v=64
2790 Off ch=5 n=65 v=64
3120 On ch=5 n=65 v=89
3120 On ch=5 n=62 v=89
3120 On ch=5 n=58 v=89
3640 Off ch=5 n=58 v=64
3640 Off ch=5 n=62 v=64
3640 Off ch=5 n=65 v=64
3840 On ch=5 n=67 v=89
3840 On ch=5 n=63 v=89
3840 On ch=5 n=58 v=89
4710 Off ch=5 n=58 v=64
4710 Off ch=5 n=63 v=64
4710 Off ch=5 n=67 v=64
4800 On ch=5 n=63 v=89
4800 On ch=5 n=60 v=89
4800 On ch=5 n=56 v=89
5670 Off ch=5 n=56 v=64
5670 Off ch=5 n=60 v=64
5670 Off ch=5 n=63 v=64
5760 On ch=5 n=64 v=89
5760 On ch=5 n=61 v=89
5760 On ch=5 n=57 v=89
7590 Off ch=5 n=57 v=64
7590 Off ch=5 n=61 v=64
7590 Off ch=5 n=64 v=64
7680 On ch=5 n=64 v=89
7680 On ch=5 n=61 v=89
7680 On ch=5 n=57 v=89
8640 Off ch=5 n=57 v=64
8640 On ch=5 n=57 v=89
8880 Off ch=5 n=61 v=64
8880 On ch=5 n=61 v=89
8902 Off ch=5 n=64 v=64
8902 Off ch=5 n=57 v=64
9120 On ch=5 n=64 v=89
9122 Off ch=5 n=61 v=64
9350 Off ch=5 n=64 v=64
9360 On ch=5 n=69 v=89
9440 Off ch=5 n=69 v=64
9600 On ch=5 n=67 v=89
9600 On ch=5 n=64 v=89
9600 On ch=5 n=60 v=89
9600 On ch=5 n=69 v=89
9762 Off ch=5 n=69 v=64
9762 Off ch=5 n=60 v=64
9762 Off ch=5 n=64 v=64
9762 Off ch=5 n=67 v=64
9840 On ch=5 n=67 v=89
9840 On ch=5 n=64 v=89
9840 On ch=5 n=60 v=89
9840 On ch=5 n=69 v=89
9970 Off ch=5 n=69 v=64
9970 Off ch=5 n=60 v=64
9970 Off ch=5 n=64 v=64
9970 Off ch=5 n=67 v=64
10320 On ch=5 n=67 v=89
10320 On ch=5 n=64 v=89
10320 On ch=5 n=60 v=89
10320 On ch=5 n=69 v=89
11070 Off ch=5 n=69 v=64
11070 Off ch=5 n=60 v=64
11070 Off ch=5 n=64 v=64
11070 Off ch=5 n=67 v=64
11520 On ch=5 n=66 v=89
11520 On ch=5 n=64 v=89
11520 On ch=5 n=61 v=89
11520 On ch=5 n=69 v=89
12480 On ch=5 n=54 v=89
12720 Off ch=5 n=54 v=64
12720 On ch=5 n=57 v=89
12742 Off ch=5 n=69 v=64
12742 Off ch=5 n=61 v=64
12742 Off ch=5 n=64 v=64
12742 Off ch=5 n=66 v=64
12960 On ch=5 n=61 v=89
12962 Off ch=5 n=57 v=64
13190 Off ch=5 n=61 v=64
13200 On ch=5 n=66 v=89
13280 Off ch=5 n=66 v=64
13440 On ch=5 n=67 v=89
13440 On ch=5 n=64 v=89
13440 On ch=5 n=60 v=89
13440 On ch=5 n=69 v=89
14160 On ch=5 n=45 v=89
14190 Off ch=5 n=69 v=64
14190 Off ch=5 n=60 v=64
14190 Off ch=5 n=64 v=64
14190 Off ch=5 n=67 v=64
14400 On ch=5 n=67 v=89
14400 On ch=5 n=64 v=89
14400 On ch=5 n=60 v=89
14400 On ch=5 n=69 v=89
14422 Off ch=5 n=45 v=64
14720 Off ch=5 n=67 v=64
14720 Off ch=5 n=64 v=64
14720 Off ch=5 n=60 v=64
14720 Off ch=5 n=69 v=64
14880 On ch=5 n=67 v=89
14880 On ch=5 n=64 v=89
14880 On ch=5 n=60 v=89
14880 On ch=5 n=69 v=89
15040 Off ch=5 n=69 v=64
15040 Off ch=5 n=60 v=64
15040 Off ch=5 n=64 v=64
15040 Off ch=5 n=67 v=64
15600 On ch=5 n=69 v=89
15600 On ch=5 n=66 v=89
15600 On ch=5 n=64 v=89
15600 On ch=5 n=73 v=89
15780 Off ch=5 n=73 v=64
15780 Off ch=5 n=64 v=64
15780 Off ch=5 n=66 v=64
15780 Off ch=5 n=69 v=64
16080 On ch=5 n=42 v=89
16320 On ch=5 n=69 v=89
16320 On ch=5 n=66 v=89
16320 On ch=5 n=64 v=89
16320 On ch=5 n=73 v=89
16360 Off ch=5 n=42 v=64
16600 Off ch=5 n=69 v=64
16600 Off ch=5 n=66 v=64
16600 Off ch=5 n=64 v=64
16600 Off ch=5 n=73 v=64
16800 On ch=5 n=69 v=89
16800 On ch=5 n=66 v=89
16800 On ch=5 n=64 v=89
16800 On ch=5 n=73 v=89
16950 Off ch=5 n=73 v=64
16950 Off ch=5 n=64 v=64
16950 Off ch=5 n=66 v=64
16950 Off ch=5 n=69 v=64
17280 On ch=5 n=67 v=89
17280 On ch=5 n=64 v=89
17280 On ch=5 n=60 v=89
17280 On ch=5 n=69 v=89
18240 On ch=5 n=57 v=89
18480 Off ch=5 n=57 v=64
18480 Off ch=5 n=60 v=64
18480 On ch=5 n=60 v=89
18502 Off ch=5 n=64 v=64
18502 Off ch=5 n=67 v=64
18502 Off ch=5 n=69 v=64
18720 On ch=5 n=64 v=89
18722 Off ch=5 n=60 v=64
18950 Off ch=5 n=64 v=64
18960 On ch=5 n=69 v=89
19040 Off ch=5 n=69 v=64
19200 On ch=5 n=66 v=89
19200 On ch=5 n=64 v=89
19200 On ch=5 n=61 v=89
19200 On ch=5 n=69 v=89
21030 Off ch=5 n=69 v=64
21030 Off ch=5 n=61 v=64
21030 Off ch=5 n=64 v=64
21030 Off ch=5 n=66 v=64
21120 On ch=5 n=67 v=89
21120 On ch=5 n=64 v=89
21120 On ch=5 n=60 v=89
21120 On ch=5 n=69 v=89
22080 On ch=5 n=57 v=89
22320 Off ch=5 n=57 v=64
22320 Off ch=5 n=60 v=64
22320 On ch=5 n=60 v=89
22342 Off ch=5 n=64 v=64
22342 Off ch=5 n=67 v=64
22342 Off ch=5 n=69 v=64
22560 On ch=5 n=64 v=89
22562 Off ch=5 n=60 v=64
22790 Off ch=5 n=64 v=64
22800 On ch=5 n=69 v=89
22880 Off ch=5 n=69 v=64
23040 On ch=5 n=69 v=89
23040 On ch=5 n=66 v=89
23040 On ch=5 n=64 v=89
23040 On ch=5 n=73 v=89
23202 Off ch=5 n=73 v=64
23202 Off ch=5 n=64 v=64
23202 Off ch=5 n=66 v=64
23202 Off ch=5 n=69 v=64
23280 On ch=5 n=69 v=89
23280 On ch=5 n=66 v=89
23280 On ch=5 n=64 v=89
23280 On ch=5 n=73 v=89
23410 Off ch=5 n=73 v=64
23410 Off ch=5 n=64 v=64
23410 Off ch=5 n=66 v=64
23410 Off ch=5 n=69 v=64
23760 On ch=5 n=69 v=89
23760 On ch=5 n=66 v=89
23760 On ch=5 n=64 v=89
23760 On ch=5 n=73 v=89
24510 Off ch=5 n=73 v=64
24510 Off ch=5 n=64 v=64
24510 Off ch=5 n=66 v=64
24510 Off ch=5 n=69 v=64
24960 On ch=5 n=62 v=89
24960 On ch=5 n=59 v=89
24960 On ch=5 n=55 v=89
25830 Off ch=5 n=55 v=64
25830 Off ch=5 n=59 v=64
25830 Off ch=5 n=62 v=64
26160 On ch=5 n=64 v=89
26160 On ch=5 n=61 v=89
26160 On ch=5 n=57 v=89
26680 Off ch=5 n=57 v=64
26680 Off ch=5 n=61 v=64
26680 Off ch=5 n=64 v=64
26880 On ch=5 n=66 v=89
26880 On ch=5 n=62 v=89
26880 On ch=5 n=57 v=89
27600 On ch=5 n=50 v=89
27630 Off ch=5 n=57 v=64
27630 Off ch=5 n=62 v=64
27630 Off ch=5 n=66 v=64
27840 On ch=5 n=66 v=89
27840 On ch=5 n=62 v=89
27840 On ch=5 n=57 v=89
27862 Off ch=5 n=50 v=64
28160 Off ch=5 n=66 v=64
28160 Off ch=5 n=62 v=64
28160 Off ch=5 n=57 v=64
28320 On ch=5 n=66 v=89
28320 On ch=5 n=62 v=89
28320 On ch=5 n=57 v=89
28480 Off ch=5 n=57 v=64
28480 Off ch=5 n=62 v=64
28480 Off ch=5 n=66 v=64
28800 On ch=5 n=62 v=89
28800 On ch=5 n=59 v=89
28800 On ch=5 n=55 v=89
29670 Off ch=5 n=55 v=64
29670 Off ch=5 n=59 v=64
29670 Off ch=5 n=62 v=64
29760 On ch=5 n=64 v=89
29760 On ch=5 n=61 v=89
29760 On ch=5 n=57 v=89
30630 Off ch=5 n=57 v=64
30630 Off ch=5 n=61 v=64
30630 Off ch=5 n=64 v=64
30960 On ch=5 n=66 v=89
30960 On ch=5 n=62 v=89
30960 On ch=5 n=57 v=89
31480 Off ch=5 n=57 v=64
31480 Off ch=5 n=62 v=64
31480 Off ch=5 n=66 v=64
31680 On ch=5 n=63 v=89
31680 On ch=5 n=59 v=89
31680 On ch=5 n=54 v=89
32550 Off ch=5 n=54 v=64
32550 Off ch=5 n=59 v=64
32550 Off ch=5 n=63 v=64
32640 On ch=5 n=62 v=89
32640 On ch=5 n=59 v=89
32640 On ch=5 n=55 v=89
33510 Off ch=5 n=55 v=64
33510 Off ch=5 n=59 v=64
33510 Off ch=5 n=62 v=64
33600 On ch=5 n=66 v=89
33600 On ch=5 n=62 v=89
33600 On ch=5 n=57 v=89
34470 Off ch=5 n=57 v=64
34470 Off ch=5 n=62 v=64
34470 Off ch=5 n=66 v=64
34560 On ch=5 n=64 v=89
34560 On ch=5 n=59 v=89
34560 On ch=5 n=56 v=89
35520 Off ch=5 n=64 v=64
35520 On ch=5 n=64 v=89
35760 On ch=5 n=68 v=89
35782 Off ch=5 n=59 v=64
35782 Off ch=5 n=56 v=64
35782 Off ch=5 n=64 v=64
36000 On ch=5 n=71 v=89
36002 Off ch=5 n=68 v=64
36230 Off ch=5 n=71 v=64
36240 On ch=5 n=76 v=89
36320 Off ch=5 n=76 v=64
36480 On ch=5 n=64 v=89
36480 On ch=5 n=61 v=89
36480 On ch=5 n=57 v=89
38310 Off ch=5 n=57 v=64
38310 Off ch=5 n=61 v=64
38310 Off ch=5 n=64 v=64
38400 On ch=5 n=67 v=89
38400 On ch=5 n=64 v=89
38400 On ch=5 n=60 v=89
38400 On ch=5 n=69 v=89
39120 On ch=5 n=45 v=89
39150 Off ch=5 n=69 v=64
39150 Off ch=5 n=60 v=64
39150 Off ch=5 n=64 v=64
39150 Off ch=5 n=67 v=64
39360 On ch=5 n=67 v=89
39360 On ch=5 n=64 v=89
39360 On ch=5 n=60 v=89
39360 On ch=5 n=69 v=89
39382 Off ch=5 n=45 v=64
39680 Off ch=5 n=67 v=64
39680 Off ch=5 n=64 v=64
39680 Off ch=5 n=60 v=64
39680 Off ch=5 n=69 v=64
39840 On ch=5 n=67 v=89
39840 On ch=5 n=64 v=89
39840 On ch=5 n=60 v=89
39840 On ch=5 n=69 v=89
40000 Off ch=5 n=69 v=64
40000 Off ch=5 n=60 v=64
40000 Off ch=5 n=64 v=64
40000 Off ch=5 n=67 v=64
40320 On ch=5 n=64 v=89
40320 On ch=5 n=61 v=89
40320 On ch=5 n=57 v=89
40320 On ch=5 n=66 v=89
42150 Off ch=5 n=66 v=64
42150 Off ch=5 n=57 v=64
42150 Off ch=5 n=61 v=64
42150 Off ch=5 n=64 v=64
42240 On ch=5 n=67 v=89
42240 On ch=5 n=64 v=89
42240 On ch=5 n=60 v=89
42240 On ch=5 n=69 v=89
42402 Off ch=5 n=69 v=64
42402 Off ch=5 n=60 v=64
42402 Off ch=5 n=64 v=64
42402 Off ch=5 n=67 v=64
42480 On ch=5 n=67 v=89
42480 On ch=5 n=64 v=89
42480 On ch=5 n=60 v=89
42480 On ch=5 n=69 v=89
42610 Off ch=5 n=69 v=64
42610 Off ch=5 n=60 v=64
42610 Off ch=5 n=64 v=64
42610 Off ch=5 n=67 v=64
42960 On ch=5 n=67 v=89
42960 On ch=5 n=64 v=89
42960 On ch=5 n=60 v=89
42960 On ch=5 n=69 v=89
43710 Off ch=5 n=69 v=64
43710 Off ch=5 n=60 v=64
43710 Off ch=5 n=64 v=64
43710 Off ch=5 n=67 v=64
44160 On ch=5 n=66 v=89
44160 On ch=5 n=64 v=89
44160 On ch=5 n=61 v=89
44160 On ch=5 n=69 v=89
45120 On ch=5 n=54 v=89
45360 Off ch=5 n=54 v=64
45360 On ch=5 n=57 v=89
45382 Off ch=5 n=69 v=64
45382 Off ch=5 n=61 v=64
45382 Off ch=5 n=64 v=64
45382 Off ch=5 n=66 v=64
45600 On ch=5 n=61 v=89
45602 Off ch=5 n=57 v=64
45830 Off ch=5 n=61 v=64
45840 On ch=5 n=66 v=89
45920 Off ch=5 n=66 v=64
46080 On ch=5 n=67 v=89
46080 On ch=5 n=64 v=89
46080 On ch=5 n=60 v=89
46080 On ch=5 n=69 v=89
46242 Off ch=5 n=69 v=64
46242 Off ch=5 n=60 v=64
46242 Off ch=5 n=64 v=64
46242 Off ch=5 n=67 v=64
46320 On ch=5 n=67 v=89
46320 On ch=5 n=64 v=89
46320 On ch=5 n=60 v=89
46320 On ch=5 n=69 v=89
46450 Off ch=5 n=69 v=64
46450 Off ch=5 n=60 v=64
46450 Off ch=5 n=64 v=64
46450 Off ch=5 n=67 v=64
46800 On ch=5 n=67 v=89
46800 On ch=5 n=64 v=89
46800 On ch=5 n=60 v=89
46800 On ch=5 n=69 v=89
47550 Off ch=5 n=69 v=64
47550 Off ch=5 n=60 v=64
47550 Off ch=5 n=64 v=64
47550 Off ch=5 n=67 v=64
48240 On ch=5 n=66 v=89
48240 On ch=5 n=64 v=89
48240 On ch=5 n=61 v=89
48240 On ch=5 n=69 v=89
48420 Off ch=5 n=69 v=64
48420 Off ch=5 n=61 v=64
48420 Off ch=5 n=64 v=64
48420 Off ch=5 n=66 v=64
48720 On ch=5 n=42 v=89
48960 On ch=5 n=66 v=89
48960 On ch=5 n=64 v=89
48960 On ch=5 n=61 v=89
48960 On ch=5 n=69 v=89
49000 Off ch=5 n=42 v=64
49240 Off ch=5 n=66 v=64
49240 Off ch=5 n=64 v=64
49240 Off ch=5 n=61 v=64
49240 Off ch=5 n=69 v=64
49440 On ch=5 n=66 v=89
49440 On ch=5 n=64 v=89
49440 On ch=5 n=61 v=89
49440 On ch=5 n=69 v=89
49590 Off ch=5 n=69 v=64
49590 Off ch=5 n=61 v=64
49590 Off ch=5 n=64 v=64
49590 Off ch=5 n=66 v=64
49920 On ch=5 n=67 v=89
49920 On ch=5 n=64 v=89
49920 On ch=5 n=60 v=89
49920 On ch=5 n=69 v=89
50640 On ch=5 n=45 v=89
50670 Off ch=5 n=69 v=64
50670 Off ch=5 n=60 v=64
50670 Off ch=5 n=64 v=64
50670 Off ch=5 n=67 v=64
50880 On ch=5 n=67 v=89
50880 On ch=5 n=64 v=89
50880 On ch=5 n=60 v=89
50880 On ch=5 n=69 v=89
50902 Off ch=5 n=45 v=64
51200 Off ch=5 n=67 v=64
51200 Off ch=5 n=64 v=64
51200 Off ch=5 n=60 v=64
51200 Off ch=5 n=69 v=64
51360 On ch=5 n=67 v=89
51360 On ch=5 n=64 v=89
51360 On ch=5 n=60 v=89
51360 On ch=5 n=69 v=89
51520 Off ch=5 n=69 v=64
51520 Off ch=5 n=60 v=64
51520 Off ch=5 n=64 v=64
51520 Off ch=5 n=67 v=64
52080 On ch=5 n=69 v=89
52080 On ch=5 n=66 v=89
52080 On ch=5 n=64 v=89
52080 On ch=5 n=73 v=89
52260 Off ch=5 n=73 v=64
52260 Off ch=5 n=64 v=64
52260 Off ch=5 n=66 v=64
52260 Off ch=5 n=69 v=64
52560 On ch=5 n=42 v=89
52800 On ch=5 n=69 v=89
52800 On ch=5 n=66 v=89
52800 On ch=5 n=64 v=89
52800 On ch=5 n=73 v=89
52840 Off ch=5 n=42 v=64
53080 Off ch=5 n=69 v=64
53080 Off ch=5 n=66 v=64
53080 Off ch=5 n=64 v=64
53080 Off ch=5 n=73 v=64
53280 On ch=5 n=69 v=89
53280 On ch=5 n=66 v=89
53280 On ch=5 n=64 v=89
53280 On ch=5 n=73 v=89
53430 Off ch=5 n=73 v=64
53430 Off ch=5 n=64 v=64
53430 Off ch=5 n=66 v=64
53430 Off ch=5 n=69 v=64
54000 On ch=5 n=62 v=89
54000 On ch=5 n=59 v=89
54000 On ch=5 n=55 v=89
54520 Off ch=5 n=55 v=64
54520 Off ch=5 n=59 v=64
54520 Off ch=5 n=62 v=64
54960 On ch=5 n=64 v=89
54960 On ch=5 n=61 v=89
54960 On ch=5 n=57 v=89
55480 Off ch=5 n=57 v=64
55480 Off ch=5 n=61 v=64
55480 Off ch=5 n=64 v=64
55680 On ch=5 n=66 v=89
55680 On ch=5 n=62 v=89
55680 On ch=5 n=57 v=89
56640 Off ch=5 n=62 v=64
56640 On ch=5 n=62 v=89
56880 Off ch=5 n=66 v=64
56880 On ch=5 n=66 v=89
56902 Off ch=5 n=57 v=64
56902 Off ch=5 n=62 v=64
57120 On ch=5 n=69 v=89
57122 Off ch=5 n=66 v=64
57350 Off ch=5 n=69 v=64
57360 On ch=5 n=74 v=89
57440 Off ch=5 n=74 v=64
57600 On ch=5 n=62 v=89
57600 On ch=5 n=59 v=89
57600 On ch=5 n=55 v=89
58470 Off ch=5 n=55 v=64
58470 Off ch=5 n=59 v=64
58470 Off ch=5 n=62 v=64
58800 On ch=5 n=64 v=89
58800 On ch=5 n=61 v=89
58800 On ch=5 n=57 v=89
59320 Off ch=5 n=57 v=64
59320 Off ch=5 n=61 v=64
59320 Off ch=5 n=64 v=64
59520 On ch=5 n=66 v=89
59520 On ch=5 n=62 v=89
59520 On ch=5 n=57 v=89
60390 Off ch=5 n=57 v=64
60390 Off ch=5 n=62 v=64
60390 Off ch=5 n=66 v=64
60480 On ch=5 n=63 v=89
60480 On ch=5 n=59 v=89
60480 On ch=5 n=54 v=89
61350 Off ch=5 n=54 v=64
61350 Off ch=5 n=59 v=64
61350 Off ch=5 n=63 v=64
61440 On ch=5 n=62 v=89
61440 On ch=5 n=59 v=89
61440 On ch=5 n=55 v=89
62310 Off ch=5 n=55 v=64
62310 Off ch=5 n=59 v=64
62310 Off ch=5 n=62 v=64
62640 On ch=5 n=66 v=89
62640 On ch=5 n=62 v=89
62640 On ch=5 n=57 v=89
63160 Off ch=5 n=57 v=64
63160 Off ch=5 n=62 v=64
63160 Off ch=5 n=66 v=64
63360 On ch=5 n=64 v=89
63360 On ch=5 n=59 v=89
63360 On ch=5 n=56 v=89
64320 Off ch=5 n=64 v=64
64320 On ch=5 n=64 v=89
64560 On ch=5 n=68 v=89
64582 Off ch=5 n=59 v=64
64582 Off ch=5 n=56 v=64
64582 Off ch=5 n=64 v=64
64800 On ch=5 n=71 v=89
64802 Off ch=5 n=68 v=64
65030 Off ch=5 n=71 v=64
65040 On ch=5 n=76 v=89
65120 Off ch=5 n=76 v=64
65280 On ch=5 n=64 v=89
65280 On ch=5 n=61 v=89
65280 On ch=5 n=57 v=89
66000 On ch=5 n=45 v=89
66030 Off ch=5 n=57 v=64
66030 Off ch=5 n=61 v=64
66030 Off ch=5 n=64 v=64
66240 On ch=5 n=64 v=89
66240 On ch=5 n=61 v=89
66240 On ch=5 n=57 v=89
66262 Off ch=5 n=45 v=64
66560 Off ch=5 n=64 v=64
66560 Off ch=5 n=61 v=64
66560 Off ch=5 n=57 v=64
66720 On ch=5 n=64 v=89
66720 On ch=5 n=61 v=89
66720 On ch=5 n=57 v=89
66880 Off ch=5 n=57 v=64
66880 Off ch=5 n=61 v=64
66880 Off ch=5 n=64 v=64
132450 Pb ch=5 v=8294
151680 PrCh ch=5 p=84
151700 On ch=5 n=64 v=109
151740 On ch=5 n=67 v=109
152480 Off ch=5 n=64 v=64
152520 Off ch=5 n=67 v=64
152640 On ch=5 n=59 v=109
152700 On ch=5 n=62 v=109
153440 Off ch=5 n=59 v=64
153500 Off ch=5 n=62 v=64
153600 On ch=5 n=64 v=109
153690 On ch=5 n=67 v=109
154400 Off ch=5 n=64 v=64
154490 Off ch=5 n=67 v=64
154560 On ch=5 n=59 v=109
154650 On ch=5 n=62 v=109
155360 Off ch=5 n=59 v=64
155450 Off ch=5 n=62 v=64
155520 On ch=5 n=64 v=109
155610 On ch=5 n=67 v=109
156320 Off ch=5 n=64 v=64
156410 Off ch=5 n=67 v=64
156480 On ch=5 n=59 v=109
156570 On ch=5 n=62 v=109
157280 Off ch=5 n=59 v=64
157370 Off ch=5 n=62 v=64
157460 On ch=5 n=64 v=109
157530 On ch=5 n=67 v=109
158240 Off ch=5 n=64 v=64
158310 Off ch=5 n=67 v=64
158400 On ch=5 n=59 v=109
158490 On ch=5 n=62 v=109
159200 Off ch=5 n=59 v=64
159290 Off ch=5 n=62 v=64
159360 On ch=5 n=64 v=109
159480 On ch=5 n=67 v=109
160160 Off ch=5 n=64 v=64
160280 Off ch=5 n=67 v=64
160320 On ch=5 n=59 v=109
160470 On ch=5 n=62 v=109
161120 Off ch=5 n=59 v=64
161270 Off ch=5 n=62 v=64
161300 On ch=5 n=64 v=109
161370 On ch=5 n=67 v=109
162080 Off ch=5 n=64 v=64
162150 Off ch=5 n=67 v=64
162240 On ch=5 n=59 v=109
162300 On ch=5 n=62 v=109
163040 Off ch=5 n=59 v=64
163100 Off ch=5 n=62 v=64
163200 On ch=5 n=64 v=109
163290 On ch=5 n=67 v=109
164000 Off ch=5 n=64 v=64
164090 Off ch=5 n=67 v=64
164160 On ch=5 n=59 v=109
164250 On ch=5 n=62 v=109
164960 Off ch=5 n=59 v=64
165050 Off ch=5 n=62 v=64
165140 On ch=5 n=64 v=109
165240 On ch=5 n=67 v=109
165920 Off ch=5 n=64 v=64
166040 Off ch=5 n=67 v=64
166320 On ch=5 n=59 v=109
166410 On ch=5 n=62 v=109
166920 Off ch=5 n=59 v=64
167010 Off ch=5 n=62 v=64
167040 On ch=5 n=64 v=109
167130 On ch=5 n=67 v=109
167840 Off ch=5 n=64 v=64
167930 Off ch=5 n=67 v=64
168000 On ch=5 n=59 v=109
168120 On ch=5 n=62 v=109
168800 Off ch=5 n=59 v=64
168920 Off ch=5 n=62 v=64
169200 On ch=5 n=64 v=109
169290 On ch=5 n=67 v=109
169800 Off ch=5 n=64 v=64
169890 Off ch=5 n=67 v=64
169920 On ch=5 n=59 v=109
170040 On ch=5 n=62 v=109
170720 Off ch=5 n=59 v=64
170840 Off ch=5 n=62 v=64
171120 On ch=5 n=64 v=109
171210 On ch=5 n=67 v=109
171720 Off ch=5 n=64 v=64
171810 Off ch=5 n=67 v=64
171840 On ch=5 n=59 v=109
171990 On ch=5 n=62 v=109
172640 Off ch=5 n=59 v=64
172790 Off ch=5 n=62 v=64
172800 On ch=5 n=64 v=109
172920 On ch=5 n=67 v=109
173600 Off ch=5 n=64 v=64
173720 Off ch=5 n=67 v=64
173760 On ch=5 n=59 v=109
173910 On ch=5 n=62 v=109
174560 Off ch=5 n=59 v=64
174710 Off ch=5 n=62 v=64
174720 On ch=5 n=64 v=109
174840 On ch=5 n=67 v=109
175520 Off ch=5 n=64 v=64
175640 Off ch=5 n=67 v=64
175680 On ch=5 n=59 v=109
175830 On ch=5 n=62 v=109
176480 Off ch=5 n=59 v=64
176630 Off ch=5 n=62 v=64
176880 On ch=5 n=64 v=109
177000 On ch=5 n=67 v=109
177480 Off ch=5 n=64 v=64
177600 Off ch=5 n=67 v=64
177600 On ch=5 n=59 v=109
177780 On ch=5 n=62 v=109
178400 Off ch=5 n=59 v=64
178560 On ch=5 n=64 v=109
178580 Off ch=5 n=62 v=64
178710 On ch=5 n=67 v=109
179360 Off ch=5 n=64 v=64
179510 Off ch=5 n=67 v=64
179520 On ch=5 n=59 v=109
179700 On ch=5 n=62 v=109
180320 Off ch=5 n=59 v=64
180480 On ch=5 n=64 v=109
180500 Off ch=5 n=62 v=64
180600 On ch=5 n=67 v=109
181280 Off ch=5 n=64 v=64
181400 Off ch=5 n=67 v=64
181440 On ch=5 n=59 v=109
181620 On ch=5 n=62 v=109
182240 Off ch=5 n=59 v=64
182400 On ch=5 n=64 v=109
182420 Off ch=5 n=62 v=64
182520 On ch=5 n=67 v=109
183200 Off ch=5 n=64 v=64
183320 Off ch=5 n=67 v=64
183360 On ch=5 n=59 v=109
183510 On ch=5 n=62 v=109
184160 Off ch=5 n=59 v=64
184310 Off ch=5 n=62 v=64
184320 On ch=5 n=64 v=109
184470 On ch=5 n=67 v=109
185120 Off ch=5 n=64 v=64
185270 Off ch=5 n=67 v=64
185280 On ch=5 n=59 v=109
185400 On ch=5 n=62 v=109
186080 Off ch=5 n=59 v=64
186200 Off ch=5 n=62 v=64
186240 On ch=5 n=64 v=109
186390 On ch=5 n=67 v=109
187040 Off ch=5 n=64 v=64
187190 Off ch=5 n=67 v=64
187200 On ch=5 n=59 v=109
187290 On ch=5 n=62 v=109
188000 Off ch=5 n=59 v=64
188090 Off ch=5 n=62 v=64
188160 On ch=5 n=64 v=109
188370 On ch=5 n=67 v=109
188960 Off ch=5 n=64 v=64
189120 On ch=5 n=59 v=109
189170 Off ch=5 n=67 v=64
189300 On ch=5 n=62 v=109
189920 Off ch=5 n=59 v=64
190080 On ch=5 n=64 v=109
190100 Off ch=5 n=62 v=64
190230 On ch=5 n=67 v=109
190880 Off ch=5 n=64 v=64
191030 Off ch=5 n=67 v=64
191040 On ch=5 n=59 v=109
191190 On ch=5 n=62 v=109
191840 Off ch=5 n=59 v=64
191990 Off ch=5 n=62 v=64
192000 On ch=5 n=64 v=109
192120 On ch=5 n=67 v=109
192800 Off ch=5 n=64 v=64
192920 Off ch=5 n=67 v=64
192960 On ch=5 n=59 v=109
193110 On ch=5 n=62 v=109
193760 Off ch=5 n=59 v=64
193910 Off ch=5 n=62 v=64
193920 On ch=5 n=64 v=109
194040 On ch=5 n=67 v=109
194720 Off ch=5 n=64 v=64
194840 Off ch=5 n=67 v=64
194880 On ch=5 n=59 v=109
195030 On ch=5 n=62 v=109
195680 Off ch=5 n=59 v=64
195830 Off ch=5 n=62 v=64
195840 On ch=5 n=64 v=109
195990 On ch=5 n=67 v=109
196640 Off ch=5 n=64 v=64
196790 Off ch=5 n=67 v=64
196800 On ch=5 n=59 v=109
196980 On ch=5 n=62 v=109
197600 Off ch=5 n=59 v=64
197760 Off ch=5 n=62 v=64
197760 On ch=5 n=64 v=109
197880 On ch=5 n=67 v=109
198560 Off ch=5 n=64 v=64
198680 Off ch=5 n=67 v=64
198720 On ch=5 n=59 v=109
198870 On ch=5 n=62 v=109
199520 Off ch=5 n=59 v=64
199670 Off ch=5 n=62 v=64
199680 On ch=5 n=64 v=109
199830 On ch=5 n=67 v=109
200480 Off ch=5 n=64 v=64
200630 Off ch=5 n=67 v=64
200640 On ch=5 n=59 v=109
200820 On ch=5 n=62 v=109
201440 Off ch=5 n=59 v=64
201600 On ch=5 n=64 v=109
201620 Off ch=5 n=62 v=64
201750 On ch=5 n=67 v=109
202400 Off ch=5 n=64 v=64
202550 Off ch=5 n=67 v=64
202560 On ch=5 n=59 v=109
202740 On ch=5 n=62 v=109
203360 Off ch=5 n=59 v=64
203520 On ch=5 n=64 v=109
203540 Off ch=5 n=62 v=64
203640 On ch=5 n=67 v=109
204320 Off ch=5 n=64 v=64
204440 Off ch=5 n=67 v=64
204480 On ch=5 n=59 v=109
204630 On ch=5 n=62 v=109
205280 Off ch=5 n=59 v=64
205430 Off ch=5 n=62 v=64
205440 On ch=5 n=64 v=109
205530 On ch=5 n=67 v=109
206240 Off ch=5 n=64 v=64
206330 Off ch=5 n=67 v=64
206400 On ch=5 n=59 v=109
206580 On ch=5 n=62 v=109
207200 Off ch=5 n=59 v=64
207380 Off ch=5 n=62 v=64
207600 On ch=5 n=64 v=109
207690 On ch=5 n=67 v=109
208200 Off ch=5 n=64 v=64
208290 Off ch=5 n=67 v=64
208320 On ch=5 n=59 v=109
208440 On ch=5 n=62 v=109
209120 Off ch=5 n=59 v=64
209240 Off ch=5 n=62 v=64
209520 On ch=5 n=67 v=109
209520 On ch=5 n=64 v=109
210120 Off ch=5 n=64 v=64
210120 Off ch=5 n=67 v=64
210240 On ch=5 n=62 v=109
210240 On ch=5 n=59 v=109
211040 Off ch=5 n=59 v=64
211040 Off ch=5 n=62 v=64
211200 On ch=5 n=67 v=109
211200 On ch=5 n=64 v=109
212000 Off ch=5 n=64 v=64
212000 Off ch=5 n=67 v=64
212160 On ch=5 n=62 v=109
212160 On ch=5 n=59 v=109
212960 Off ch=5 n=59 v=64
212960 Off ch=5 n=62 v=64
213120 On ch=5 n=67 v=109
213120 On ch=5 n=64 v=109
213920 Off ch=5 n=64 v=64
213920 Off ch=5 n=67 v=64
214080 On ch=5 n=62 v=109
214080 On ch=5 n=59 v=109
214880 Off ch=5 n=59 v=64
214880 Off ch=5 n=62 v=64
215280 On ch=5 n=67 v=109
215280 On ch=5 n=64 v=109
215880 Off ch=5 n=64 v=64
215880 Off ch=5 n=67 v=64
216000 On ch=5 n=62 v=109
216000 On ch=5 n=59 v=109
216800 Off ch=5 n=59 v=64
216800 Off ch=5 n=62 v=64
216960 On ch=5 n=67 v=109
216960 On ch=5 n=64 v=109
217760 Off ch=5 n=64 v=64
217760 Off ch=5 n=67 v=64
217920 On ch=5 n=62 v=109
217920 On ch=5 n=59 v=109
218720 Off ch=5 n=59 v=64
218720 Off ch=5 n=62 v=64
218880 On ch=5 n=67 v=109
218880 On ch=5 n=64 v=109
219680 Off ch=5 n=64 v=64
219680 Off ch=5 n=67 v=64
219840 On ch=5 n=62 v=109
219840 On ch=5 n=59 v=109
220640 Off ch=5 n=59 v=64
220640 Off ch=5 n=62 v=64
220800 On ch=5 n=67 v=109
220800 On ch=5 n=64 v=109
221600 Off ch=5 n=64 v=64
221600 Off ch=5 n=67 v=64
221760 On ch=5 n=62 v=109
221760 On ch=5 n=59 v=109
222560 Off ch=5 n=59 v=64
222560 Off ch=5 n=62 v=64
222720 On ch=5 n=67 v=109
222720 On ch=5 n=64 v=109
223520 Off ch=5 n=64 v=64
223520 Off ch=5 n=67 v=64
223680 On ch=5 n=62 v=109
223680 On ch=5 n=59 v=109
224480 Off ch=5 n=59 v=64
224480 Off ch=5 n=62 v=64
224640 On ch=5 n=67 v=109
224640 On ch=5 n=64 v=109
225440 Off ch=5 n=64 v=64
225440 Off ch=5 n=67 v=64
225600 On ch=5 n=62 v=109
225600 On ch=5 n=59 v=109
226400 Off ch=5 n=59 v=64
226400 Off ch=5 n=62 v=64
226560 On ch=5 n=67 v=109
226560 On ch=5 n=64 v=109
227360 Off ch=5 n=64 v=64
227360 Off ch=5 n=67 v=64
227520 On ch=5 n=62 v=109
227520 On ch=5 n=59 v=109
228320 Off ch=5 n=59 v=64
228320 Off ch=5 n=62 v=64
228480 On ch=5 n=67 v=109
228480 On ch=5 n=64 v=109
229280 Off ch=5 n=64 v=64
229280 Off ch=5 n=67 v=64
229440 On ch=5 n=62 v=109
229440 On ch=5 n=59 v=109
230240 Off ch=5 n=59 v=64
230240 Off ch=5 n=62 v=64
230400 On ch=5 n=67 v=109
230400 On ch=5 n=64 v=109
231200 Off ch=5 n=64 v=64
231200 Off ch=5 n=67 v=64
231360 On ch=5 n=62 v=109
231360 On ch=5 n=59 v=109
232160 Off ch=5 n=59 v=64
232160 Off ch=5 n=62 v=64
232320 On ch=5 n=67 v=109
232320 On ch=5 n=64 v=109
233120 Off ch=5 n=64 v=64
233120 Off ch=5 n=67 v=64
233280 On ch=5 n=62 v=109
233280 On ch=5 n=59 v=109
234080 Off ch=5 n=59 v=64
234080 Off ch=5 n=62 v=64
234240 On ch=5 n=67 v=109
234240 On ch=5 n=64 v=109
235040 Off ch=5 n=64 v=64
235040 Off ch=5 n=67 v=64
235200 On ch=5 n=62 v=109
235200 On ch=5 n=59 v=109
236000 Off ch=5 n=59 v=64
236000 Off ch=5 n=62 v=64
236160 On ch=5 n=67 v=109
236160 On ch=5 n=64 v=109
236960 Off ch=5 n=64 v=64
236960 Off ch=5 n=67 v=64
237120 On ch=5 n=62 v=109
237120 On ch=5 n=59 v=109
237920 Off ch=5 n=59 v=64
237920 Off ch=5 n=62 v=64
238080 On ch=5 n=67 v=109
238080 On ch=5 n=64 v=109
238880 Off ch=5 n=64 v=64
238880 Off ch=5 n=67 v=64
239040 On ch=5 n=62 v=109
239040 On ch=5 n=59 v=109
239840 Off ch=5 n=59 v=64
239840 Off ch=5 n=62 v=64
240000 On ch=5 n=67 v=109
240000 On ch=5 n=64 v=109
240800 Off ch=5 n=64 v=64
240800 Off ch=5 n=67 v=64
240960 On ch=5 n=62 v=109
240960 On ch=5 n=59 v=109
241760 Off ch=5 n=59 v=64
241760 Off ch=5 n=62 v=64
242160 On ch=5 n=67 v=109
242160 On ch=5 n=64 v=109
242760 Off ch=5 n=64 v=64
242760 Off ch=5 n=67 v=64
242880 On ch=5 n=62 v=109
242880 On ch=5 n=59 v=109
243680 Off ch=5 n=59 v=64
243680 Off ch=5 n=62 v=64
244080 On ch=5 n=67 v=109
244080 On ch=5 n=64 v=109
244680 Off ch=5 n=64 v=64
244680 Off ch=5 n=67 v=64
244800 On ch=5 n=62 v=109
244800 On ch=5 n=59 v=109
245600 Off ch=5 n=59 v=64
245600 Off ch=5 n=62 v=64
245760 On ch=5 n=67 v=109
245760 On ch=5 n=64 v=109
246560 Off ch=5 n=64 v=64
246560 Off ch=5 n=67 v=64
246720 On ch=5 n=62 v=109
246720 On ch=5 n=59 v=109
247520 Off ch=5 n=59 v=64
247520 Off ch=5 n=62 v=64
247680 On ch=5 n=67 v=109
247680 On ch=5 n=64 v=109
248480 Off ch=5 n=64 v=64
248480 Off ch=5 n=67 v=64
248640 On ch=5 n=62 v=109
248640 On ch=5 n=59 v=109
249440 Off ch=5 n=59 v=64
249440 Off ch=5 n=62 v=64
249600 On ch=5 n=67 v=109
249600 On ch=5 n=64 v=109
250400 Off ch=5 n=64 v=64
250400 Off ch=5 n=67 v=64
250560 On ch=5 n=62 v=109
250560 On ch=5 n=59 v=109
251360 Off ch=5 n=59 v=64
251360 Off ch=5 n=62 v=64
251760 On ch=5 n=67 v=109
251760 On ch=5 n=64 v=109
252360 Off ch=5 n=64 v=64
252360 Off ch=5 n=67 v=64
252480 On ch=5 n=62 v=109
252480 On ch=5 n=59 v=109
253280 Off ch=5 n=59 v=64
253280 Off ch=5 n=62 v=64
253440 On ch=5 n=67 v=109
253440 On ch=5 n=64 v=109
254240 Off ch=5 n=64 v=64
254240 Off ch=5 n=67 v=64
254400 On ch=5 n=62 v=109
254400 On ch=5 n=59 v=109
255200 Off ch=5 n=59 v=64
255200 Off ch=5 n=62 v=64
255360 On ch=5 n=67 v=109
255360 On ch=5 n=64 v=109
256160 Off ch=5 n=64 v=64
256160 Off ch=5 n=67 v=64
256320 On ch=5 n=62 v=109
256320 On ch=5 n=59 v=109
257120 Off ch=5 n=59 v=64
257120 Off ch=5 n=62 v=64
257280 On ch=5 n=67 v=109
257280 On ch=5 n=64 v=109
258080 Off ch=5 n=64 v=64
258080 Off ch=5 n=67 v=64
258240 On ch=5 n=62 v=109
258240 On ch=5 n=59 v=109
259040 Off ch=5 n=59 v=64
259040 Off ch=5 n=62 v=64
259200 On ch=5 n=67 v=109
259220 On ch=5 n=64 v=109
260000 Off ch=5 n=64 v=64
260000 Off ch=5 n=67 v=64
260160 On ch=5 n=69 v=109
260160 On ch=5 n=66 v=109
260960 Off ch=5 n=66 v=64
260960 Off ch=5 n=69 v=64
261120 On ch=5 n=67 v=109
261120 On ch=5 n=64 v=109
261920 Off ch=5 n=64 v=64
261920 Off ch=5 n=67 v=64
262080 On ch=5 n=62 v=109
262080 On ch=5 n=59 v=109
262880 Off ch=5 n=59 v=64
262880 Off ch=5 n=62 v=64
263040 On ch=5 n=67 v=109
263040 On ch=5 n=64 v=109
263840 Off ch=5 n=64 v=64
263840 Off ch=5 n=67 v=64
264000 On ch=5 n=62 v=109
264000 On ch=5 n=59 v=109
264800 Off ch=5 n=59 v=64
264800 Off ch=5 n=62 v=64
264960 On ch=5 n=67 v=109
264960 On ch=5 n=64 v=109
265760 Off ch=5 n=64 v=64
265760 Off ch=5 n=67 v=64
265920 On ch=5 n=62 v=109
265920 On ch=5 n=59 v=109
266720 Off ch=5 n=59 v=64
266720 Off ch=5 n=62 v=64
266880 On ch=5 n=67 v=109
266880 On ch=5 n=64 v=109
267680 Off ch=5 n=64 v=64
267680 Off ch=5 n=67 v=64
267840 On ch=5 n=62 v=109
267840 On ch=5 n=59 v=109
268640 Off ch=5 n=59 v=64
268640 Off ch=5 n=62 v=64
268800 On ch=5 n=67 v=109
268800 On ch=5 n=64 v=109
269600 Off ch=5 n=64 v=64
269600 Off ch=5 n=67 v=64
269760 On ch=5 n=62 v=109
269760 On ch=5 n=59 v=109
270560 Off ch=5 n=59 v=64
270560 Off ch=5 n=62 v=64
270720 On ch=5 n=67 v=109
270720 On ch=5 n=64 v=109
271520 Off ch=5 n=64 v=64
271520 Off ch=5 n=67 v=64
271680 On ch=5 n=62 v=109
271680 On ch=5 n=59 v=109
272480 Off ch=5 n=59 v=64
272480 Off ch=5 n=62 v=64
272880 On ch=5 n=67 v=109
272880 On ch=5 n=64 v=109
273480 Off ch=5 n=64 v=64
273480 Off ch=5 n=67 v=64
273600 On ch=5 n=62 v=109
273600 On ch=5 n=59 v=109
274400 Off ch=5 n=59 v=64
274400 Off ch=5 n=62 v=64
274800 On ch=5 n=67 v=109
274800 On ch=5 n=64 v=109
275400 Off ch=5 n=64 v=64
275400 Off ch=5 n=67 v=64
275520 On ch=5 n=62 v=109
275520 On ch=5 n=59 v=109
276320 Off ch=5 n=59 v=64
276320 Off ch=5 n=62 v=64
276480 On ch=5 n=67 v=109
276480 On ch=5 n=64 v=109
277280 Off ch=5 n=64 v=64
277280 Off ch=5 n=67 v=64
277440 On ch=5 n=62 v=109
277440 On ch=5 n=59 v=109
278240 Off ch=5 n=59 v=64
278240 Off ch=5 n=62 v=64
278400 On ch=5 n=67 v=109
278400 On ch=5 n=64 v=109
279200 Off ch=5 n=64 v=64
279200 Off ch=5 n=67 v=64
279360 On ch=5 n=62 v=109
279360 On ch=5 n=59 v=109
280160 Off ch=5 n=59 v=64
280160 Off ch=5 n=62 v=64
280560 On ch=5 n=67 v=109
280560 On ch=5 n=64 v=109
281160 Off ch=5 n=64 v=64
281160 Off ch=5 n=67 v=64
281280 On ch=5 n=62 v=109
281280 On ch=5 n=59 v=109
282080 Off ch=5 n=59 v=64
282080 Off ch=5 n=62 v=64
282240 On ch=5 n=67 v=109
282240 On ch=5 n=64 v=109
283040 Off ch=5 n=64 v=64
283040 Off ch=5 n=67 v=64
283200 On ch=5 n=62 v=109
283200 On ch=5 n=59 v=109
284000 Off ch=5 n=59 v=64
284000 Off ch=5 n=62 v=64
284160 On ch=5 n=67 v=109
284160 On ch=5 n=64 v=109
284960 Off ch=5 n=64 v=64
284960 Off ch=5 n=67 v=64
285120 On ch=5 n=62 v=109
285120 On ch=5 n=59 v=109
285920 Off ch=5 n=59 v=64
285920 Off ch=5 n=62 v=64
286080 On ch=5 n=67 v=109
286080 On ch=5 n=64 v=109
286880 Off ch=5 n=64 v=64
286880 Off ch=5 n=67 v=64
287040 On ch=5 n=62 v=109
287040 On ch=5 n=59 v=109
287840 Off ch=5 n=59 v=64
287840 Off ch=5 n=62 v=64
288000 On ch=5 n=67 v=109
288020 On ch=5 n=64 v=109
288800 Off ch=5 n=64 v=64
288800 Off ch=5 n=67 v=64
288960 On ch=5 n=69 v=109
288960 On ch=5 n=66 v=109
289760 Off ch=5 n=66 v=64
289760 Off ch=5 n=69 v=64
289920 On ch=5 n=67 v=109
289920 On ch=5 n=64 v=109
290720 Off ch=5 n=64 v=64
290720 Off ch=5 n=67 v=64
290880 On ch=5 n=62 v=109
290880 On ch=5 n=59 v=109
291680 Off ch=5 n=59 v=64
291680 Off ch=5 n=62 v=64
293760 On ch=5 n=67 v=109
293760 On ch=5 n=64 v=109
294560 Off ch=5 n=64 v=64
294560 Off ch=5 n=67 v=64
294960 On ch=5 n=62 v=109
294960 On ch=5 n=59 v=109
295560 Off ch=5 n=59 v=64
295560 Off ch=5 n=62 v=64
295680 On ch=5 n=67 v=109
295680 On ch=5 n=64 v=109
296480 Off ch=5 n=64 v=64
296480 Off ch=5 n=67 v=64
296640 On ch=5 n=62 v=109
296640 On ch=5 n=59 v=109
297440 Off ch=5 n=59 v=64
297440 Off ch=5 n=62 v=64
297600 On ch=5 n=67 v=109
297600 On ch=5 n=64 v=109
298400 Off ch=5 n=64 v=64
298400 Off ch=5 n=67 v=64
298560 On ch=5 n=62 v=109
298560 On ch=5 n=59 v=109
299360 Off ch=5 n=59 v=64
299360 Off ch=5 n=62 v=64
299520 On ch=5 n=67 v=109
299520 On ch=5 n=64 v=109
300320 Off ch=5 n=64 v=64
300320 Off ch=5 n=67 v=64
300480 On ch=5 n=62 v=109
300480 On ch=5 n=59 v=109
301280 Off ch=5 n=59 v=64
301280 Off ch=5 n=62 v=64
301440 On ch=5 n=67 v=109
301460 On ch=5 n=64 v=109
302240 Off ch=5 n=64 v=64
302240 Off ch=5 n=67 v=64
302640 On ch=5 n=62 v=109
302640 On ch=5 n=59 v=109
303240 Off ch=5 n=59 v=64
303240 Off ch=5 n=62 v=64
303360 On ch=5 n=67 v=109
303360 On ch=5 n=64 v=109
304160 Off ch=5 n=64 v=64
304160 Off ch=5 n=67 v=64
304320 On ch=5 n=62 v=109
304320 On ch=5 n=59 v=109
305120 Off ch=5 n=59 v=64
305120 Off ch=5 n=62 v=64
305520 On ch=5 n=67 v=109
305520 On ch=5 n=64 v=109
306120 Off ch=5 n=64 v=64
306120 Off ch=5 n=67 v=64
306240 On ch=5 n=62 v=109
306240 On ch=5 n=59 v=109
307040 Off ch=5 n=59 v=64
307040 Off ch=5 n=62 v=64
307440 On ch=5 n=67 v=109
307440 On ch=5 n=64 v=109
308040 Off ch=5 n=64 v=64
308040 Off ch=5 n=67 v=64
308160 On ch=5 n=62 v=109
308160 On ch=5 n=59 v=109
308960 Off ch=5 n=59 v=64
308960 Off ch=5 n=62 v=64
309120 On ch=5 n=67 v=109
309120 On ch=5 n=64 v=109
309920 Off ch=5 n=64 v=64
309920 Off ch=5 n=67 v=64
310080 On ch=5 n=62 v=109
310080 On ch=5 n=59 v=109
310880 Off ch=5 n=59 v=64
310880 Off ch=5 n=62 v=64
311040 On ch=5 n=67 v=109
311040 On ch=5 n=64 v=109
311840 Off ch=5 n=64 v=64
311840 Off ch=5 n=67 v=64
312000 On ch=5 n=62 v=109
312000 On ch=5 n=59 v=109
312800 Off ch=5 n=59 v=64
312800 Off ch=5 n=62 v=64
313200 On ch=5 n=67 v=109
313200 On ch=5 n=64 v=109
313800 Off ch=5 n=64 v=64
313800 Off ch=5 n=67 v=64
313920 On ch=5 n=62 v=109
313920 On ch=5 n=59 v=109
314720 Off ch=5 n=59 v=64
314720 Off ch=5 n=62 v=64
314880 On ch=5 n=67 v=109
314880 On ch=5 n=64 v=109
315680 Off ch=5 n=64 v=64
315680 Off ch=5 n=67 v=64
315840 On ch=5 n=62 v=109
315840 On ch=5 n=59 v=109
316640 Off ch=5 n=59 v=64
316640 Off ch=5 n=62 v=64
316800 On ch=5 n=67 v=109
316800 On ch=5 n=64 v=109
317600 Off ch=5 n=64 v=64
317600 Off ch=5 n=67 v=64
317760 On ch=5 n=62 v=109
317760 On ch=5 n=59 v=109
318560 Off ch=5 n=59 v=64
318560 Off ch=5 n=62 v=64
318720 On ch=5 n=67 v=109
318720 On ch=5 n=64 v=109
319520 Off ch=5 n=64 v=64
319520 Off ch=5 n=67 v=64
319680 On ch=5 n=62 v=109
319680 On ch=5 n=59 v=109
320480 Off ch=5 n=59 v=64
320480 Off ch=5 n=62 v=64
320640 On ch=5 n=67 v=109
320660 On ch=5 n=64 v=109
321440 Off ch=5 n=64 v=64
321440 Off ch=5 n=67 v=64
321600 On ch=5 n=69 v=109
321600 On ch=5 n=66 v=109
322400 Off ch=5 n=66 v=64
322400 Off ch=5 n=69 v=64
322560 On ch=5 n=67 v=109
322560 On ch=5 n=64 v=109
323360 Off ch=5 n=64 v=64
323360 Off ch=5 n=67 v=64
323520 On ch=5 n=62 v=109
323520 On ch=5 n=59 v=109
324320 Off ch=5 n=59 v=64
324320 Off ch=5 n=62 v=64
324480 On ch=5 n=67 v=109
324480 On ch=5 n=64 v=109
325280 Off ch=5 n=64 v=64
325280 Off ch=5 n=67 v=64
325680 On ch=5 n=62 v=109
325680 On ch=5 n=59 v=109
326280 Off ch=5 n=59 v=64
326280 Off ch=5 n=62 v=64
328290 PrCh ch=5 p=7
330120 PoPr ch=5 n=0 v=0
330120 ChPr ch=5 v=0
330120 Pb ch=5 v=8192
330120 Par ch=5 c=2 v=0
330120 Par ch=5 c=1 v=0
330120 Par ch=5 c=8 v=0
330240 On ch=5 n=67 v=109
330240 On ch=5 n=64 v=109
330402 Off ch=5 n=64 v=64
330402 Off ch=5 n=67 v=64
330480 On ch=5 n=67 v=109
330480 On ch=5 n=64 v=109
330610 Off ch=5 n=64 v=64
330610 Off ch=5 n=67 v=64
330960 On ch=5 n=67 v=109
330960 On ch=5 n=64 v=109
331710 Off ch=5 n=64 v=64
331710 Off ch=5 n=67 v=64
332160 On ch=5 n=66 v=109
332160 On ch=5 n=64 v=109
332322 Off ch=5 n=64 v=64
332322 Off ch=5 n=66 v=64
332400 On ch=5 n=66 v=109
332400 On ch=5 n=64 v=109
332530 Off ch=5 n=64 v=64
332530 Off ch=5 n=66 v=64
332880 On ch=5 n=66 v=109
332880 On ch=5 n=64 v=109
333630 Off ch=5 n=64 v=64
333630 Off ch=5 n=66 v=64
334080 On ch=5 n=67 v=109
334080 On ch=5 n=64 v=109
334080 On ch=5 n=60 v=109
334080 On ch=5 n=69 v=109
335040 On ch=5 n=57 v=109
335280 Off ch=5 n=57 v=64
335280 Off ch=5 n=60 v=64
335280 On ch=5 n=60 v=109
335302 Off ch=5 n=64 v=64
335302 Off ch=5 n=67 v=64
335302 Off ch=5 n=69 v=64
335520 On ch=5 n=64 v=109
335522 Off ch=5 n=60 v=64
335750 Off ch=5 n=64 v=64
335760 On ch=5 n=69 v=109
335840 Off ch=5 n=69 v=64
336240 On ch=5 n=66 v=109
336240 On ch=5 n=64 v=109
336240 On ch=5 n=61 v=109
336240 On ch=5 n=69 v=109
336420 Off ch=5 n=69 v=64
336420 Off ch=5 n=61 v=64
336420 Off ch=5 n=64 v=64
336420 Off ch=5 n=66 v=64
336960 On ch=5 n=66 v=109
336960 On ch=5 n=64 v=109
336960 On ch=5 n=61 v=109
336960 On ch=5 n=69 v=109
337240 Off ch=5 n=69 v=64
337240 Off ch=5 n=61 v=64
337240 Off ch=5 n=64 v=64
337240 Off ch=5 n=66 v=64
337440 On ch=5 n=66 v=109
337440 On ch=5 n=64 v=109
337440 On ch=5 n=61 v=109
337440 On ch=5 n=69 v=109
337590 Off ch=5 n=69 v=64
337590 Off ch=5 n=61 v=64
337590 Off ch=5 n=64 v=64
337590 Off ch=5 n=66 v=64
337920 On ch=5 n=60 v=109
337980 On ch=5 n=64 v=109
338040 On ch=5 n=67 v=109
338082 Off ch=5 n=60 v=64
338100 On ch=5 n=69 v=109
338142 Off ch=5 n=64 v=64
338202 Off ch=5 n=67 v=64
338250 On ch=5 n=60 v=109
338262 Off ch=5 n=69 v=64
338280 On ch=5 n=64 v=109
338310 On ch=5 n=67 v=109
338340 On ch=5 n=69 v=109
338380 Off ch=5 n=60 v=64
338410 Off ch=5 n=64 v=64
338440 Off ch=5 n=67 v=64
338470 Off ch=5 n=69 v=64
338640 On ch=5 n=60 v=109
338820 On ch=5 n=64 v=109
338910 On ch=5 n=67 v=109
339060 On ch=5 n=69 v=109
339390 Off ch=5 n=60 v=64
339570 Off ch=5 n=64 v=64
339660 Off ch=5 n=67 v=64
339810 Off ch=5 n=69 v=64
339870 On ch=5 n=64 v=109
339930 On ch=5 n=66 v=109
339990 On ch=5 n=69 v=109
340080 On ch=5 n=73 v=109
340620 Off ch=5 n=64 v=64
340680 Off ch=5 n=66 v=64
340740 Off ch=5 n=69 v=64
340830 Off ch=5 n=73 v=64
340860 On ch=5 n=64 v=109
340980 On ch=5 n=66 v=109
341010 On ch=5 n=69 v=109
341130 On ch=5 n=73 v=109
341180 Off ch=5 n=64 v=64
341280 On ch=5 n=64 v=109
341300 Off ch=5 n=66 v=64
341330 Off ch=5 n=69 v=64
341430 On ch=5 n=66 v=109
341440 Off ch=5 n=64 v=64
341450 Off ch=5 n=73 v=64
341520 On ch=5 n=69 v=109
341580 On ch=5 n=73 v=109
341590 Off ch=5 n=66 v=64
341680 Off ch=5 n=69 v=64
341740 Off ch=5 n=73 v=64
341790 On ch=5 n=60 v=109
341820 On ch=5 n=64 v=109
341850 On ch=5 n=67 v=109
341940 On ch=5 n=69 v=109
342540 Off ch=5 n=60 v=64
342570 Off ch=5 n=64 v=64
342600 Off ch=5 n=67 v=64
342690 Off ch=5 n=69 v=64
342720 On ch=5 n=60 v=109
342810 On ch=5 n=64 v=109
342900 On ch=5 n=67 v=109
342990 On ch=5 n=69 v=109
343040 Off ch=5 n=60 v=64
343130 Off ch=5 n=64 v=64
343200 On ch=5 n=60 v=109
343260 Off ch=5 n=67 v=64
343290 On ch=5 n=64 v=109
343310 Off ch=5 n=69 v=64
343320 On ch=5 n=67 v=109
343360 Off ch=5 n=60 v=64
343380 On ch=5 n=69 v=109
343450 Off ch=5 n=64 v=64
343480 Off ch=5 n=67 v=64
343540 Off ch=5 n=69 v=64
343920 On ch=5 n=61 v=109
343980 On ch=5 n=64 v=109
344040 On ch=5 n=66 v=109
344100 Off ch=5 n=61 v=64
344100 On ch=5 n=69 v=109
344160 Off ch=5 n=64 v=64
344220 Off ch=5 n=66 v=64
344280 Off ch=5 n=69 v=64
344640 On ch=5 n=61 v=109
344700 On ch=5 n=64 v=109
344730 On ch=5 n=66 v=109
344790 On ch=5 n=69 v=109
344920 Off ch=5 n=61 v=64
344980 Off ch=5 n=64 v=64
345010 Off ch=5 n=66 v=64
345070 Off ch=5 n=69 v=64
345120 On ch=5 n=61 v=109
345180 On ch=5 n=64 v=109
345210 On ch=5 n=66 v=109
345270 Off ch=5 n=61 v=64
345270 On ch=5 n=69 v=109
345330 Off ch=5 n=64 v=64
345360 Off ch=5 n=66 v=64
345420 Off ch=5 n=69 v=64
345630 On ch=5 n=55 v=109
345660 On ch=5 n=59 v=109
345690 On ch=5 n=62 v=109
346500 Off ch=5 n=55 v=64
346530 Off ch=5 n=59 v=64
346560 Off ch=5 n=62 v=64
346800 On ch=5 n=57 v=109
346860 On ch=5 n=61 v=109
346950 On ch=5 n=64 v=109
347320 Off ch=5 n=57 v=64
347380 Off ch=5 n=61 v=64
347470 Off ch=5 n=64 v=64
347520 On ch=5 n=57 v=109
347550 On ch=5 n=62 v=109
347682 Off ch=5 n=57 v=64
347712 Off ch=5 n=62 v=64
347760 On ch=5 n=57 v=109
347850 On ch=5 n=62 v=109
347890 Off ch=5 n=57 v=64
347980 Off ch=5 n=62 v=64
348240 On ch=5 n=57 v=109
348330 On ch=5 n=62 v=109
348990 Off ch=5 n=57 v=64
349080 Off ch=5 n=62 v=64
349470 On ch=5 n=55 v=109
349500 On ch=5 n=59 v=109
349560 On ch=5 n=62 v=109
350340 Off ch=5 n=55 v=64
350370 Off ch=5 n=59 v=64
350430 Off ch=5 n=62 v=64
350460 On ch=5 n=61 v=109
350490 On ch=5 n=64 v=109
350550 On ch=5 n=57 v=109
351330 Off ch=5 n=61 v=64
351360 Off ch=5 n=64 v=64
351360 Off ch=5 n=57 v=64
351360 On ch=5 n=66 v=109
351360 On ch=5 n=62 v=109
351360 On ch=5 n=57 v=109
351522 Off ch=5 n=57 v=64
351522 Off ch=5 n=62 v=64
351522 Off ch=5 n=66 v=64
351600 On ch=5 n=66 v=109
351600 On ch=5 n=62 v=109
351600 On ch=5 n=57 v=109
351730 Off ch=5 n=57 v=64
351730 Off ch=5 n=62 v=64
351730 Off ch=5 n=66 v=64
352080 On ch=5 n=66 v=109
352080 On ch=5 n=62 v=109
352080 On ch=5 n=57 v=109
352830 Off ch=5 n=57 v=64
352830 Off ch=5 n=62 v=64
352830 Off ch=5 n=66 v=64
353280 Par ch=5 c=64 v=0
353280 On ch=5 n=57 v=109
353310 On ch=5 n=60 v=109
353370 On ch=5 n=65 v=109
354150 Off ch=5 n=57 v=64
354180 Off ch=5 n=60 v=64
354240 Off ch=5 n=65 v=64
354480 On ch=5 n=55 v=109
354570 On ch=5 n=60 v=109
354600 On ch=5 n=64 v=109
355000 Off ch=5 n=55 v=64
355090 Off ch=5 n=60 v=64
355120 Off ch=5 n=64 v=64
355200 On ch=5 n=57 v=109
355290 On ch=5 n=62 v=109
355350 On ch=5 n=66 v=109
355362 Off ch=5 n=57 v=64
355440 On ch=5 n=57 v=109
355452 Off ch=5 n=62 v=64
355512 Off ch=5 n=66 v=64
355530 On ch=5 n=62 v=109
355560 On ch=5 n=66 v=109
355570 Off ch=5 n=57 v=64
355660 Off ch=5 n=62 v=64
355690 Off ch=5 n=66 v=64
355920 On ch=5 n=57 v=109
356010 On ch=5 n=62 v=109
356100 On ch=5 n=66 v=109
356670 Off ch=5 n=57 v=64
356760 Off ch=5 n=62 v=64
356850 Off ch=5 n=66 v=64
357120 On ch=5 n=57 v=109
357210 On ch=5 n=60 v=109
357240 On ch=5 n=65 v=109
357990 Off ch=5 n=57 v=64
358080 Off ch=5 n=60 v=64
358080 On ch=5 n=55 v=109
358110 Off ch=5 n=65 v=64
358140 On ch=5 n=60 v=109
358170 On ch=5 n=64 v=109
358950 Off ch=5 n=55 v=64
359010 Off ch=5 n=60 v=64
359040 Off ch=5 n=64 v=64
359280 On ch=5 n=66 v=109
359280 On ch=5 n=62 v=109
359280 On ch=5 n=57 v=109
359460 Off ch=5 n=57 v=64
359460 Off ch=5 n=62 v=64
359460 Off ch=5 n=66 v=64
359760 On ch=5 n=50 v=109
360000 On ch=5 n=66 v=109
360000 On ch=5 n=62 v=109
360000 On ch=5 n=57 v=109
360040 Off ch=5 n=50 v=64
360280 Off ch=5 n=66 v=64
360280 Off ch=5 n=62 v=64
360280 Off ch=5 n=57 v=64
360480 On ch=5 n=66 v=109
360480 On ch=5 n=62 v=109
360480 On ch=5 n=57 v=109
360630 Off ch=5 n=57 v=64
360630 Off ch=5 n=62 v=64
360630 Off ch=5 n=66 v=64
360960 On ch=5 n=57 v=109
361080 On ch=5 n=65 v=109
361140 On ch=5 n=60 v=109
361480 Off ch=5 n=57 v=64
361600 Off ch=5 n=65 v=64
361660 Off ch=5 n=60 v=64
361770 On ch=5 n=64 v=109
361830 On ch=5 n=60 v=109
361950 On ch=5 n=55 v=109
362640 Off ch=5 n=64 v=64
362700 Off ch=5 n=60 v=64
362820 Off ch=5 n=55 v=64
363120 On ch=5 n=66 v=109
363120 On ch=5 n=62 v=109
363120 On ch=5 n=57 v=109
363300 Off ch=5 n=57 v=64
363300 Off ch=5 n=62 v=64
363300 Off ch=5 n=66 v=64
363600 On ch=5 n=50 v=109
363840 On ch=5 n=66 v=109
363840 On ch=5 n=62 v=109
363840 On ch=5 n=57 v=109
363880 Off ch=5 n=50 v=64
364120 Off ch=5 n=66 v=64
364120 Off ch=5 n=62 v=64
364120 Off ch=5 n=57 v=64
364320 On ch=5 n=66 v=109
364320 On ch=5 n=62 v=109
364320 On ch=5 n=57 v=109
364470 Off ch=5 n=57 v=64
364470 Off ch=5 n=62 v=64
364470 Off ch=5 n=66 v=64
365040 On ch=5 n=65 v=109
365040 On ch=5 n=60 v=109
365040 On ch=5 n=57 v=109
365560 Off ch=5 n=57 v=64
365560 Off ch=5 n=60 v=64
365560 Off ch=5 n=65 v=64
366000 On ch=5 n=64 v=109
366000 On ch=5 n=60 v=109
366000 On ch=5 n=55 v=109
366520 Off ch=5 n=55 v=64
366520 Off ch=5 n=60 v=64
366520 Off ch=5 n=64 v=64
366750 On ch=5 n=57 v=109
366870 On ch=5 n=62 v=109
366990 On ch=5 n=66 v=109
367500 Off ch=5 n=57 v=64
367620 Off ch=5 n=62 v=64
367710 On ch=5 n=57 v=109
367740 Off ch=5 n=66 v=64
367770 On ch=5 n=62 v=109
367890 On ch=5 n=66 v=109
368030 Off ch=5 n=57 v=64
368090 Off ch=5 n=62 v=64
368210 Off ch=5 n=66 v=64
368220 On ch=5 n=57 v=109
368310 On ch=5 n=62 v=109
368370 On ch=5 n=66 v=109
368380 Off ch=5 n=57 v=64
368470 Off ch=5 n=62 v=64
368530 Off ch=5 n=66 v=64
368640 On ch=5 n=66 v=109
368640 On ch=5 n=62 v=109
368640 On ch=5 n=57 v=109
369360 On ch=5 n=50 v=109
369390 Off ch=5 n=57 v=64
369390 Off ch=5 n=62 v=64
369390 Off ch=5 n=66 v=64
369600 On ch=5 n=66 v=109
369600 On ch=5 n=62 v=109
369600 On ch=5 n=57 v=109
369622 Off ch=5 n=50 v=64
369920 Off ch=5 n=66 v=64
369920 Off ch=5 n=62 v=64
369920 Off ch=5 n=57 v=64
370080 On ch=5 n=66 v=109
370080 On ch=5 n=62 v=109
370080 On ch=5 n=57 v=109
370240 Off ch=5 n=57 v=64
370240 Off ch=5 n=62 v=64
370240 Off ch=5 n=66 v=64
370560 Pb ch=5 v=8294
370560 Par ch=5 c=10 v=40
370560 On ch=5 n=55 v=109
370560 On ch=5 n=59 v=109
370560 On ch=5 n=62 v=109
371340 Off ch=5 n=59 v=64
371360 Off ch=5 n=62 v=64
371520 On ch=5 n=60 v=109
371520 On ch=5 n=64 v=109
372220 Off ch=5 n=55 v=64
372240 Off ch=5 n=64 v=64
372260 Off ch=5 n=60 v=64
372460 On ch=5 n=69 v=109
372480 Off ch=5 n=69 v=64
372480 On ch=5 n=57 v=109
372480 On ch=5 n=53 v=109
372480 On ch=5 n=60 v=109
373260 Off ch=5 n=60 v=64
373260 Off ch=5 n=57 v=64
373320 Off ch=5 n=53 v=64
373440 On ch=5 n=53 v=109
373440 On ch=5 n=58 v=109
373440 On ch=5 n=62 v=109
374300 Off ch=5 n=62 v=64
374320 Off ch=5 n=58 v=64
374320 Off ch=5 n=53 v=64
374400 On ch=5 n=55 v=109
374400 On ch=5 n=58 v=109
374400 On ch=5 n=51 v=109
375220 Off ch=5 n=55 v=64
375260 Off ch=5 n=58 v=64
375360 On ch=5 n=60 v=109
375360 On ch=5 n=56 v=109
376260 Off ch=5 n=56 v=64
376280 Off ch=5 n=60 v=64
376280 On ch=5 n=52 v=109
376280 On ch=5 n=57 v=109
376300 Off ch=5 n=51 v=64
376300 On ch=5 n=49 v=109
376320 On ch=5 n=69 v=109
376340 Off ch=5 n=69 v=64
376340 On ch=5 n=69 v=109
376340 On ch=5 n=64 v=109
376340 On ch=5 n=61 v=109
379900 Off ch=5 n=49 v=64
379920 Off ch=5 n=52 v=64
379940 Off ch=5 n=57 v=64
380140 Off ch=5 n=61 v=64
380160 Off ch=5 n=64 v=64
380180 Off ch=5 n=69 v=64
382080 Par ch=5 c=68 v=0
382080 Par ch=5 c=67 v=0
382080 Par ch=5 c=66 v=0
382080 Par ch=5 c=65 v=0
382080 Par ch=5 c=10 v=64
382080 Par ch=5 c=8 v=0
382080 Par ch=5 c=4 v=0
382080 PoPr ch=5 n=0 v=0
382080 Pb ch=5 v=8192
382080 ChPr ch=5 v=0
382080 Par ch=5 c=1 v=0
382092 Par ch=5 c=2 v=0
382105 Par ch=5 c=7 v=100
382117 Par ch=5 c=11 v=100
382130 Par ch=5 c=64 v=0
382142 Par ch=5 c=91 v=40
382155 Par ch=5 c=93 v=40
382560 Par ch=5 c=99 v=1
382590 Par ch=5 c=98 v=8
382620 Par ch=5 c=6 v=64
382685 Par ch=5 c=99 v=1
382715 Par ch=5 c=98 v=9
382745 Par ch=5 c=6 v=64
382910 Par ch=5 c=99 v=1
382940 Par ch=5 c=98 v=10
382970 Par ch=5 c=6 v=64
383035 Par ch=5 c=99 v=1
383065 Par ch=5 c=98 v=32
383095 Par ch=5 c=6 v=64
383160 Par ch=5 c=99 v=1
383190 Par ch=5 c=98 v=33
383220 Par ch=5 c=6 v=64
383285 Par ch=5 c=99 v=1
383315 Par ch=5 c=98 v=99
383345 Par ch=5 c=6 v=64
383410 Par ch=5 c=99 v=1
383435 Par ch=5 c=99 v=1
383440 Par ch=5 c=98 v=100
383465 Par ch=5 c=98 v=102
383470 Par ch=5 c=6 v=64
383495 Par ch=5 c=6 v=64
383560 Par ch=5 c=101 v=0
383590 Par ch=5 c=100 v=0
383620 Par ch=5 c=6 v=2
383685 Par ch=5 c=0 v=0
383686 Par ch=5 c=32 v=0
383715 Par ch=5 c=121 v=0
383715 Meta TrkEnd
TrkEnd
MTrk
0 Meta TrkName "Lead 1              "
0 Meta 0x21 00
0 Meta 0x20 05
0 Par ch=6 c=7 v=100
0 Par ch=6 c=10 v=44
0 PrCh ch=6 p=7
0 Par ch=6 c=121 v=0
0 Pb ch=6 v=8192
0 Par ch=6 c=91 v=40
0 Par ch=6 c=93 v=40
0 Par ch=6 c=4 v=0
0 Par ch=6 c=8 v=0
0 Par ch=6 c=64 v=0
0 Par ch=6 c=65 v=0
0 Par ch=6 c=66 v=0
0 Par ch=6 c=67 v=0
0 Par ch=6 c=68 v=0
0 Par ch=6 c=2 v=127
1 Par ch=6 c=11 v=127
1 Par ch=6 c=1 v=0
80 Par ch=6 c=101 v=0
120 Par ch=6 c=100 v=0
360 Par ch=6 c=6 v=12
600 Par ch=6 c=93 v=75
600 Par ch=6 c=93 v=68
660 Par ch=6 c=91 v=63
1440 Par ch=6 c=0 v=0
9360 On ch=6 n=69 v=109
9600 Off ch=6 n=69 v=64
9600 On ch=6 n=72 v=109
9840 Off ch=6 n=72 v=64
9840 On ch=6 n=69 v=109
10080 Off ch=6 n=69 v=64
10080 On ch=6 n=72 v=109
10320 Off ch=6 n=72 v=64
10320 On ch=6 n=69 v=109
10560 Off ch=6 n=69 v=64
10560 On ch=6 n=72 v=109
10800 Off ch=6 n=72 v=64
10800 On ch=6 n=71 v=109
11280 Off ch=6 n=71 v=64
11280 On ch=6 n=69 v=109
12480 Off ch=6 n=69 v=64
13200 On ch=6 n=69 v=109
13440 Off ch=6 n=69 v=64
13440 On ch=6 n=72 v=109
13680 Off ch=6 n=72 v=64
13680 On ch=6 n=69 v=109
13920 Off ch=6 n=69 v=64
13920 On ch=6 n=72 v=109
14160 Off ch=6 n=72 v=64
14160 On ch=6 n=69 v=109
14400 Off ch=6 n=69 v=64
14400 On ch=6 n=72 v=109
14640 Off ch=6 n=72 v=64
14640 On ch=6 n=71 v=109
15120 Off ch=6 n=71 v=64
15120 On ch=6 n=69 v=109
16320 Off ch=6 n=69 v=64
17280 On ch=6 n=72 v=109
17520 Off ch=6 n=72 v=64
17520 On ch=6 n=69 v=109
17760 Off ch=6 n=69 v=64
17760 On ch=6 n=72 v=109
18000 Off ch=6 n=72 v=64
18000 On ch=6 n=69 v=109
18240 Off ch=6 n=69 v=64
18240 On ch=6 n=72 v=109
18720 Off ch=6 n=72 v=64
18720 On ch=6 n=67 v=109
18960 Off ch=6 n=67 v=64
18960 On ch=6 n=69 v=109
20160 Off ch=6 n=69 v=64
20640 On ch=6 n=72 v=109
20880 Off ch=6 n=72 v=64
20880 On ch=6 n=69 v=109
21120 Off ch=6 n=69 v=64
21120 On ch=6 n=72 v=109
21360 Off ch=6 n=72 v=64
21360 On ch=6 n=69 v=109
21600 Off ch=6 n=69 v=64
21600 On ch=6 n=72 v=109
21840 Off ch=6 n=72 v=64
21840 On ch=6 n=69 v=109
22080 Off ch=6 n=69 v=64
22080 On ch=6 n=72 v=109
22320 Off ch=6 n=72 v=64
22320 On ch=6 n=71 v=109
22800 Off ch=6 n=71 v=64
22800 On ch=6 n=69 v=109
24000 Off ch=6 n=69 v=64
24960 On ch=6 n=67 v=109
25200 Off ch=6 n=67 v=64
25200 On ch=6 n=67 v=109
25440 Off ch=6 n=67 v=64
25440 On ch=6 n=67 v=109
25680 Off ch=6 n=67 v=64
25680 On ch=6 n=67 v=109
25920 Off ch=6 n=67 v=64
25920 On ch=6 n=66 v=109
26160 Off ch=6 n=66 v=64
26160 On ch=6 n=65 v=109
26640 Off ch=6 n=65 v=64
26640 On ch=6 n=62 v=109
27840 Off ch=6 n=62 v=64
28800 On ch=6 n=67 v=109
29040 Off ch=6 n=67 v=64
29040 On ch=6 n=67 v=109
29280 Off ch=6 n=67 v=64
29280 On ch=6 n=67 v=109
29520 Off ch=6 n=67 v=64
29520 On ch=6 n=67 v=109
29760 Off ch=6 n=67 v=64
29760 On ch=6 n=66 v=109
30000 Off ch=6 n=66 v=64
30000 On ch=6 n=65 v=109
30480 Off ch=6 n=65 v=64
30480 On ch=6 n=62 v=109
31680 Off ch=6 n=62 v=64
32640 On ch=6 n=67 v=109
32880 Off ch=6 n=67 v=64
32880 On ch=6 n=67 v=109
33120 Off ch=6 n=67 v=64
33120 On ch=6 n=67 v=109
33360 Off ch=6 n=67 v=64
33360 On ch=6 n=67 v=109
33600 Off ch=6 n=67 v=64
33600 On ch=6 n=66 v=109
33840 Off ch=6 n=66 v=64
33840 On ch=6 n=65 v=109
34560 Off ch=6 n=65 v=64
35040 On ch=6 n=64 v=109
36480 Off ch=6 n=64 v=64
37920 Par ch=6 c=1 v=45
38160 On ch=6 n=69 v=109
38400 Off ch=6 n=69 v=64
38400 On ch=6 n=72 v=109
38640 Off ch=6 n=72 v=64
38640 On ch=6 n=69 v=109
38880 Off ch=6 n=69 v=64
38880 On ch=6 n=72 v=109
39120 Off ch=6 n=72 v=64
39120 On ch=6 n=69 v=109
39360 Off ch=6 n=69 v=64
39360 On ch=6 n=72 v=109
39600 Off ch=6 n=72 v=64
39600 On ch=6 n=71 v=109
40080 Off ch=6 n=71 v=64
40080 On ch=6 n=69 v=109
41280 Off ch=6 n=69 v=64
42000 On ch=6 n=69 v=109
42240 Off ch=6 n=69 v=64
42240 On ch=6 n=72 v=109
42480 Off ch=6 n=72 v=64
42480 On ch=6 n=69 v=109
42720 Off ch=6 n=69 v=64
42720 On ch=6 n=72 v=109
42960 Off ch=6 n=72 v=64
42960 On ch=6 n=69 v=109
43200 Off ch=6 n=69 v=64
43200 On ch=6 n=72 v=109
43440 Off ch=6 n=72 v=64
43440 On ch=6 n=71 v=109
43920 Off ch=6 n=71 v=64
43920 On ch=6 n=69 v=109
45120 Off ch=6 n=69 v=64
46080 On ch=6 n=72 v=109
46320 Off ch=6 n=72 v=64
46320 On ch=6 n=69 v=109
46560 Off ch=6 n=69 v=64
46560 On ch=6 n=72 v=109
46800 Off ch=6 n=72 v=64
46800 On ch=6 n=69 v=109
47040 Off ch=6 n=69 v=64
47040 On ch=6 n=72 v=109
47520 Off ch=6 n=72 v=64
47520 On ch=6 n=67 v=109
47760 Off ch=6 n=67 v=64
47760 On ch=6 n=69 v=109
48960 Off ch=6 n=69 v=64
49440 On ch=6 n=72 v=109
49680 Off ch=6 n=72 v=64
49680 On ch=6 n=69 v=109
49920 Off ch=6 n=69 v=64
49920 On ch=6 n=72 v=109
50160 Off ch=6 n=72 v=64
50160 On ch=6 n=69 v=109
50400 Off ch=6 n=69 v=64
50400 On ch=6 n=72 v=109
50640 Off ch=6 n=72 v=64
50640 On ch=6 n=69 v=109
50880 Off ch=6 n=69 v=64
50880 On ch=6 n=72 v=109
51120 Off ch=6 n=72 v=64
51120 On ch=6 n=71 v=109
51600 Off ch=6 n=71 v=64
51600 On ch=6 n=69 v=109
52800 Off ch=6 n=69 v=64
53760 On ch=6 n=67 v=109
54000 Off ch=6 n=67 v=64
54000 On ch=6 n=67 v=109
54240 Off ch=6 n=67 v=64
54240 On ch=6 n=67 v=109
54480 Off ch=6 n=67 v=64
54480 On ch=6 n=67 v=109
54720 Off ch=6 n=67 v=64
54720 On ch=6 n=66 v=109
54960 Off ch=6 n=66 v=64
54960 On ch=6 n=65 v=109
55440 Off ch=6 n=65 v=64
55440 On ch=6 n=62 v=109
56640 Off ch=6 n=62 v=64
57600 On ch=6 n=67 v=109
57840 Off ch=6 n=67 v=64
57840 On ch=6 n=67 v=109
58080 Off ch=6 n=67 v=64
58080 On ch=6 n=67 v=109
58320 Off ch=6 n=67 v=64
58320 On ch=6 n=67 v=109
58560 Off ch=6 n=67 v=64
58560 On ch=6 n=66 v=109
58800 Off ch=6 n=66 v=64
58800 On ch=6 n=65 v=109
59280 Off ch=6 n=65 v=64
59280 On ch=6 n=62 v=109
60480 Off ch=6 n=62 v=64
61440 On ch=6 n=67 v=109
61680 Off ch=6 n=67 v=64
61680 On ch=6 n=67 v=109
61920 Off ch=6 n=67 v=64
61920 On ch=6 n=67 v=109
62160 Off ch=6 n=67 v=64
62160 On ch=6 n=67 v=109
62400 Off ch=6 n=67 v=64
62400 On ch=6 n=66 v=109
62640 Off ch=6 n=66 v=64
62640 On ch=6 n=65 v=109
63360 Off ch=6 n=65 v=64
74880 Par ch=6 c=10 v=47
75240 Par ch=6 c=2 v=127
75720 Par ch=6 c=1 v=15
75750 Par ch=6 c=10 v=46
76320 PrCh ch=6 p=7
76590 Par ch=6 c=10 v=45
76800 On ch=6 n=69 v=109
76800 On ch=6 n=64 v=109
77430 Par ch=6 c=10 v=44
78270 Par ch=6 c=10 v=43
78690 Off ch=6 n=69 v=64
78690 On ch=6 n=69 v=109
78720 Off ch=6 n=64 v=64
78935 On ch=6 n=72 v=109
79040 Off ch=6 n=69 v=64
79110 Par ch=6 c=10 v=42
79175 Off ch=6 n=72 v=64
79192 On ch=6 n=76 v=109
79410 On ch=6 n=72 v=109
79432 Off ch=6 n=76 v=64
79650 Off ch=6 n=72 v=64
79715 On ch=6 n=71 v=109
79920 On ch=6 n=74 v=109
79950 Par ch=6 c=10 v=41
79955 Off ch=6 n=71 v=64
80135 On ch=6 n=78 v=109
80160 Off ch=6 n=74 v=64
80375 Off ch=6 n=78 v=64
80405 On ch=6 n=74 v=109
80640 On ch=6 n=69 v=109
80645 Off ch=6 n=74 v=64
80790 Par ch=6 c=10 v=40
80847 On ch=6 n=72 v=109
80880 Off ch=6 n=69 v=64
81105 On ch=6 n=76 v=109
81160 Off ch=6 n=72 v=64
81330 On ch=6 n=72 v=109
81345 Off ch=6 n=76 v=64
81570 Off ch=6 n=72 v=64
81587 On ch=6 n=71 v=109
81630 Par ch=6 c=10 v=39
81795 On ch=6 n=74 v=109
82045 On ch=6 n=78 v=109
82117 Off ch=6 n=74 v=64
82177 Off ch=6 n=71 v=64
82345 On ch=6 n=74 v=109
82405 Off ch=6 n=78 v=64
82470 Par ch=6 c=10 v=38
82557 On ch=6 n=69 v=109
82585 Off ch=6 n=74 v=64
82672 Off ch=6 n=69 v=64
82767 On ch=6 n=69 v=109
83017 On ch=6 n=72 v=109
83057 Off ch=6 n=69 v=64
83310 Par ch=6 c=10 v=37
83507 Off ch=6 n=72 v=64
83565 On ch=6 n=69 v=109
83645 Off ch=6 n=69 v=64
83745 On ch=6 n=69 v=109
83985 Off ch=6 n=69 v=64
84010 On ch=6 n=67 v=109
84180 Par ch=6 c=10 v=36
84387 Off ch=6 n=67 v=64
84470 On ch=6 n=69 v=109
84595 Off ch=6 n=69 v=64
84705 On ch=6 n=69 v=109
84905 Off ch=6 n=69 v=64
84917 On ch=6 n=72 v=109
85020 Par ch=6 c=10 v=35
85152 On ch=6 n=74 v=109
85202 Off ch=6 n=72 v=64
85412 On ch=6 n=76 v=109
85420 On ch=6 n=75 v=109
85432 Off ch=6 n=74 v=64
85482 Off ch=6 n=75 v=64
85630 On ch=6 n=74 v=109
85710 Off ch=6 n=76 v=64
85860 Par ch=6 c=10 v=34
85892 On ch=6 n=72 v=109
85925 Off ch=6 n=74 v=64
86142 On ch=6 n=74 v=109
86170 Off ch=6 n=72 v=64
86360 On ch=6 n=72 v=109
86432 Off ch=6 n=74 v=64
86610 On ch=6 n=69 v=109
86660 Off ch=6 n=72 v=64
86700 Par ch=6 c=10 v=33
86850 On ch=6 n=67 v=109
87032 Off ch=6 n=69 v=64
87047 Off ch=6 n=67 v=64
87075 On ch=6 n=69 v=109
87352 On ch=6 n=67 v=109
87387 Off ch=6 n=69 v=64
87540 Par ch=6 c=10 v=32
87600 On ch=6 n=69 v=109
87602 Off ch=6 n=67 v=64
87820 On ch=6 n=67 v=109
87840 Off ch=6 n=69 v=64
88062 On ch=6 n=69 v=109
88092 Off ch=6 n=67 v=64
88322 On ch=6 n=72 v=109
88350 Off ch=6 n=69 v=64
88380 Par ch=6 c=10 v=31
88757 On ch=6 n=74 v=109
88795 Off ch=6 n=72 v=64
89220 Par ch=6 c=10 v=30
89262 On ch=6 n=76 v=109
89297 Off ch=6 n=74 v=64
89775 On ch=6 n=74 v=109
89805 Off ch=6 n=76 v=64
90005 On ch=6 n=76 v=109
90025 Off ch=6 n=74 v=64
90060 Par ch=6 c=10 v=29
90230 On ch=6 n=79 v=109
90272 Off ch=6 n=76 v=64
90480 On ch=6 n=81 v=109
90515 Off ch=6 n=79 v=64
90900 Par ch=6 c=10 v=28
91175 On ch=6 n=84 v=109
91195 Off ch=6 n=81 v=64
91405 On ch=6 n=81 v=109
91452 Off ch=6 n=84 v=64
91740 Par ch=6 c=10 v=27
92152 On ch=6 n=76 v=109
92182 Off ch=6 n=81 v=64
92365 On ch=6 n=79 v=109
92425 Off ch=6 n=76 v=64
92607 On ch=6 n=81 v=109
92610 Par ch=6 c=10 v=26
92630 Off ch=6 n=79 v=64
92835 On ch=6 n=76 v=109
92882 Off ch=6 n=81 v=64
93102 On ch=6 n=79 v=109
93150 Off ch=6 n=76 v=64
93335 On ch=6 n=81 v=109
93360 Off ch=6 n=79 v=64
93450 Par ch=6 c=10 v=25
93565 On ch=6 n=79 v=109
93615 Off ch=6 n=81 v=64
93810 On ch=6 n=76 v=109
93847 Off ch=6 n=79 v=64
94032 On ch=6 n=79 v=109
94075 Off ch=6 n=76 v=64
94290 Par ch=6 c=10 v=24
94300 On ch=6 n=76 v=109
94332 Off ch=6 n=79 v=64
94540 Off ch=6 n=76 v=64
94560 On ch=6 n=72 v=109
95010 Off ch=6 n=72 v=64
95040 On ch=6 n=71 v=109
95130 Par ch=6 c=10 v=23
95520 Off ch=6 n=71 v=64
95520 On ch=6 n=72 v=109
95682 On ch=6 n=74 v=109
95925 Off ch=6 n=72 v=64
95925 On ch=6 n=72 v=109
95970 Par ch=6 c=10 v=22
95982 Off ch=6 n=74 v=64
96212 On ch=6 n=69 v=109
96245 Off ch=6 n=72 v=64
96810 Par ch=6 c=10 v=21
96902 On ch=6 n=72 v=109
96957 Off ch=6 n=69 v=64
97142 Off ch=6 n=72 v=64
97170 On ch=6 n=74 v=109
97370 On ch=6 n=76 v=109
97402 Off ch=6 n=74 v=64
97650 Par ch=6 c=10 v=20
97657 On ch=6 n=74 v=109
97700 Off ch=6 n=76 v=64
97920 Off ch=6 n=74 v=64
97927 On ch=6 n=69 v=109
98040 Off ch=6 n=69 v=64
98145 On ch=6 n=69 v=109
98250 Par ch=6 c=10 v=17
98275 Off ch=6 n=69 v=64
98387 On ch=6 n=67 v=109
98492 Off ch=6 n=67 v=64
98620 On ch=6 n=69 v=109
98765 Off ch=6 n=69 v=64
98872 On ch=6 n=67 v=109
99047 Off ch=6 n=67 v=64
99090 Par ch=6 c=10 v=16
99112 On ch=6 n=64 v=109
99712 Off ch=6 n=64 v=64
99775 On ch=6 n=64 v=109
99895 On ch=6 n=67 v=109
99945 Off ch=6 n=64 v=64
99960 Par ch=6 c=10 v=15
100045 On ch=6 n=69 v=109
100077 Off ch=6 n=67 v=64
100770 On ch=6 n=72 v=109
100787 Off ch=6 n=69 v=64
100800 Par ch=6 c=10 v=14
101000 On ch=6 n=69 v=109
101025 Off ch=6 n=72 v=64
101230 On ch=6 n=74 v=109
101262 Off ch=6 n=69 v=64
101490 On ch=6 n=69 v=109
101502 Off ch=6 n=74 v=64
101640 Par ch=6 c=10 v=13
101730 On ch=6 n=76 v=109
101765 Off ch=6 n=69 v=64
101972 On ch=6 n=69 v=109
101995 Off ch=6 n=76 v=64
102230 On ch=6 n=74 v=109
102270 Off ch=6 n=69 v=64
102480 Par ch=6 c=10 v=12
102492 On ch=6 n=69 v=109
102515 Off ch=6 n=74 v=64
102730 On ch=6 n=72 v=109
102762 Off ch=6 n=69 v=64
102957 On ch=6 n=69 v=109
102977 Off ch=6 n=72 v=64
103202 On ch=6 n=74 v=109
103232 Off ch=6 n=69 v=64
103320 Par ch=6 c=10 v=11
103347 On ch=6 n=69 v=109
103385 Off ch=6 n=74 v=64
103667 On ch=6 n=76 v=109
103707 Off ch=6 n=69 v=64
103902 On ch=6 n=69 v=109
103927 Off ch=6 n=76 v=64
104150 On ch=6 n=74 v=109
104160 Par ch=6 c=10 v=10
104190 Off ch=6 n=69 v=64
104385 On ch=6 n=69 v=109
104407 Off ch=6 n=74 v=64
104617 On ch=6 n=72 v=109
104650 Off ch=6 n=69 v=64
104857 On ch=6 n=69 v=109
104885 Off ch=6 n=72 v=64
105000 Par ch=6 c=10 v=9
105095 Off ch=6 n=69 v=64
105150 On ch=6 n=72 v=109
105360 On ch=6 n=69 v=109
105390 Off ch=6 n=72 v=64
105592 Off ch=6 n=69 v=64
105592 On ch=6 n=69 v=109
105602 On ch=6 n=72 v=109
105702 Off ch=6 n=69 v=64
105727 Off ch=6 n=72 v=64
105835 On ch=6 n=69 v=109
105835 On ch=6 n=72 v=109
105840 Par ch=6 c=10 v=8
105922 Off ch=6 n=72 v=64
105922 Off ch=6 n=69 v=64
106095 On ch=6 n=71 v=109
106102 On ch=6 n=74 v=109
106445 Off ch=6 n=74 v=64
106445 Off ch=6 n=71 v=64
106560 On ch=6 n=71 v=109
106567 On ch=6 n=74 v=109
106655 Off ch=6 n=71 v=64
106660 Off ch=6 n=74 v=64
106680 Par ch=6 c=10 v=7
106790 On ch=6 n=71 v=109
106792 On ch=6 n=74 v=109
106877 Off ch=6 n=74 v=64
106882 Off ch=6 n=71 v=64
107045 On ch=6 n=72 v=109
107055 On ch=6 n=69 v=109
107372 Off ch=6 n=69 v=64
107372 Off ch=6 n=72 v=64
107530 On ch=6 n=69 v=109
107532 On ch=6 n=72 v=109
107627 Off ch=6 n=72 v=64
107637 Off ch=6 n=69 v=64
107765 On ch=6 n=69 v=109
107765 On ch=6 n=72 v=109
107850 Off ch=6 n=72 v=64
107850 Off ch=6 n=69 v=64
108005 On ch=6 n=74 v=109
108010 On ch=6 n=71 v=109
108072 Off ch=6 n=71 v=64
108080 Off ch=6 n=74 v=64
108220 On ch=6 n=71 v=109
108220 On ch=6 n=74 v=109
108297 Off ch=6 n=74 v=64
108297 Off ch=6 n=71 v=64
108480 On ch=6 n=69 v=109
108482 On ch=6 n=72 v=109
108565 Off ch=6 n=72 v=64
108565 Off ch=6 n=69 v=64
108712 On ch=6 n=72 v=109
108720 On ch=6 n=69 v=109
108782 Off ch=6 n=69 v=64
108787 Off ch=6 n=72 v=64
108985 On ch=6 n=71 v=109
108987 On ch=6 n=74 v=109
109197 Off ch=6 n=74 v=64
109225 Off ch=6 n=71 v=64
109457 On ch=6 n=69 v=109
109460 On ch=6 n=72 v=109
109545 Off ch=6 n=69 v=64
109557 Off ch=6 n=72 v=64
109692 On ch=6 n=72 v=109
109700 On ch=6 n=69 v=109
109762 Off ch=6 n=69 v=64
109772 Off ch=6 n=72 v=64
109952 On ch=6 n=71 v=109
109952 On ch=6 n=74 v=109
110250 Off ch=6 n=74 v=64
110250 Off ch=6 n=71 v=64
110387 On ch=6 n=72 v=109
110395 On ch=6 n=69 v=109
110465 Off ch=6 n=72 v=64
110475 Off ch=6 n=69 v=64
110602 On ch=6 n=69 v=109
110612 On ch=6 n=72 v=109
110672 Off ch=6 n=72 v=64
110677 Off ch=6 n=69 v=64
110865 On ch=6 n=71 v=109
111117 On ch=6 n=74 v=109
111160 Off ch=6 n=71 v=64
111350 On ch=6 n=76 v=109
111372 Off ch=6 n=74 v=64
111577 On ch=6 n=74 v=109
111617 Off ch=6 n=76 v=64
111827 On ch=6 n=72 v=109
111862 Off ch=6 n=74 v=64
112072 Off ch=6 n=72 v=64
112072 On ch=6 n=74 v=109
112310 On ch=6 n=72 v=109
112355 Off ch=6 n=74 v=64
112552 On ch=6 n=69 v=109
112572 Off ch=6 n=72 v=64
112785 On ch=6 n=72 v=109
112790 Off ch=6 n=69 v=64
113030 On ch=6 n=69 v=109
113072 Off ch=6 n=72 v=64
113280 On ch=6 n=67 v=109
113312 Off ch=6 n=69 v=64
113492 Off ch=6 n=67 v=64
113495 On ch=6 n=69 v=109
113747 On ch=6 n=67 v=109
113790 Off ch=6 n=69 v=64
113992 On ch=6 n=64 v=109
114022 Off ch=6 n=67 v=64
114217 On ch=6 n=67 v=109
114245 Off ch=6 n=64 v=64
114460 On ch=6 n=69 v=109
114470 Off ch=6 n=67 v=64
114700 On ch=6 n=67 v=109
114742 Off ch=6 n=69 v=64
114947 On ch=6 n=64 v=109
114977 Off ch=6 n=67 v=64
115185 On ch=6 n=67 v=109
115197 Off ch=6 n=64 v=64
115437 On ch=6 n=64 v=109
115472 Off ch=6 n=67 v=64
115687 On ch=6 n=62 v=109
115722 Off ch=6 n=64 v=64
115902 On ch=6 n=64 v=109
115912 Off ch=6 n=62 v=64
116130 On ch=6 n=62 v=109
116182 Off ch=6 n=64 v=64
116392 On ch=6 n=60 v=109
116420 Off ch=6 n=62 v=64
116617 On ch=6 n=62 v=109
116630 Off ch=6 n=60 v=64
116855 On ch=6 n=60 v=109
116895 Off ch=6 n=62 v=64
117127 On ch=6 n=57 v=109
117172 Off ch=6 n=60 v=64
117622 On ch=6 n=59 v=109
117645 Off ch=6 n=57 v=64
117827 On ch=6 n=60 v=109
117850 Off ch=6 n=59 v=64
118060 On ch=6 n=59 v=109
118097 Off ch=6 n=60 v=64
118290 On ch=6 n=57 v=109
118362 Off ch=6 n=59 v=64
119027 On ch=6 n=59 v=109
119067 Off ch=6 n=57 v=64
119217 On ch=6 n=60 v=109
119242 Off ch=6 n=59 v=64
119512 On ch=6 n=62 v=109
119540 Off ch=6 n=60 v=64
119725 On ch=6 n=64 v=109
119740 Off ch=6 n=62 v=64
119972 On ch=6 n=62 v=109
119987 Off ch=6 n=64 v=64
120215 On ch=6 n=64 v=109
120242 Off ch=6 n=62 v=64
120425 On ch=6 n=65 v=109
120455 Off ch=6 n=64 v=64
120657 On ch=6 n=67 v=109
120700 Off ch=6 n=65 v=64
120935 On ch=6 n=69 v=109
121087 Off ch=6 n=67 v=64
121920 On ch=6 n=72 v=109
121952 Off ch=6 n=69 v=64
122142 On ch=6 n=69 v=109
122172 Off ch=6 n=72 v=64
122387 On ch=6 n=72 v=109
122407 Off ch=6 n=69 v=64
122627 On ch=6 n=74 v=109
122642 Off ch=6 n=72 v=64
122867 Off ch=6 n=74 v=64
122880 On ch=6 n=76 v=109
123100 On ch=6 n=74 v=109
123147 Off ch=6 n=76 v=64
123330 On ch=6 n=72 v=109
123375 Off ch=6 n=74 v=64
123547 On ch=6 n=69 v=109
123562 Off ch=6 n=72 v=64
123822 On ch=6 n=72 v=109
123847 Off ch=6 n=69 v=64
124055 On ch=6 n=69 v=109
124090 Off ch=6 n=72 v=64
124800 Off ch=6 n=69 v=64
124800 On ch=6 n=76 v=109
124925 On ch=6 n=75 v=109
124960 Off ch=6 n=76 v=64
125057 On ch=6 n=74 v=109
125085 Off ch=6 n=75 v=64
125250 On ch=6 n=72 v=109
125282 Off ch=6 n=74 v=64
125450 Off ch=6 n=72 v=64
125472 On ch=6 n=74 v=109
125717 On ch=6 n=72 v=109
125775 Off ch=6 n=74 v=64
125960 On ch=6 n=69 v=109
125982 Off ch=6 n=72 v=64
126207 On ch=6 n=72 v=109
126235 Off ch=6 n=69 v=64
126442 On ch=6 n=69 v=109
126470 Off ch=6 n=72 v=64
126682 On ch=6 n=67 v=109
126712 Off ch=6 n=69 v=64
126917 On ch=6 n=69 v=109
126960 Off ch=6 n=67 v=64
127572 Off ch=6 n=69 v=64
127760 On ch=6 n=69 v=109
127760 On ch=6 n=72 v=109
127760 On ch=6 n=76 v=109
127760 On ch=6 n=81 v=109
127840 Off ch=6 n=81 v=64
127840 Off ch=6 n=76 v=64
127840 Off ch=6 n=72 v=64
127840 Off ch=6 n=69 v=64
128240 On ch=6 n=71 v=109
128240 On ch=6 n=74 v=109
128240 On ch=6 n=78 v=109
128320 Off ch=6 n=78 v=64
128320 Off ch=6 n=74 v=64
128320 Off ch=6 n=71 v=64
128630 On ch=6 n=69 v=109
128735 Off ch=6 n=69 v=64
128860 On ch=6 n=69 v=109
129107 On ch=6 n=72 v=109
129212 Off ch=6 n=69 v=64
129612 On ch=6 n=69 v=109
129637 Off ch=6 n=72 v=64
129722 Off ch=6 n=69 v=64
129837 On ch=6 n=69 v=109
130085 On ch=6 n=74 v=109
130422 Off ch=6 n=69 v=64
130567 On ch=6 n=69 v=109
130575 Off ch=6 n=74 v=64
130665 Off ch=6 n=69 v=64
130800 On ch=6 n=69 v=109
130915 Off ch=6 n=69 v=64
131045 On ch=6 n=76 v=109
131132 On ch=6 n=74 v=109
131177 Off ch=6 n=76 v=64
131212 On ch=6 n=72 v=109
131237 Off ch=6 n=74 v=64
131482 On ch=6 n=74 v=109
131507 Off ch=6 n=72 v=64
131690 On ch=6 n=72 v=109
131735 Off ch=6 n=74 v=64
131992 On ch=6 n=69 v=109
132002 Off ch=6 n=72 v=64
132312 Off ch=6 n=69 v=64
132480 On ch=6 n=81 v=109
132500 On ch=6 n=75 v=109
132502 On ch=6 n=76 v=109
132570 Off ch=6 n=81 v=64
132620 Off ch=6 n=75 v=64
132732 On ch=6 n=74 v=109
132760 Off ch=6 n=76 v=64
132842 On ch=6 n=76 v=109
132852 Off ch=6 n=74 v=64
132902 On ch=6 n=74 v=109
133082 Off ch=6 n=76 v=64
133180 On ch=6 n=76 v=109
133192 Off ch=6 n=74 v=64
133460 On ch=6 n=74 v=109
133512 Off ch=6 n=76 v=64
133820 On ch=6 n=69 v=109
133832 Off ch=6 n=74 v=64
134140 On ch=6 n=74 v=109
134180 Off ch=6 n=69 v=64
134420 On ch=6 n=76 v=109
134520 Off ch=6 n=74 v=64
134632 On ch=6 n=74 v=109
134680 Off ch=6 n=76 v=64
134722 Off ch=6 n=74 v=64
134750 On ch=6 n=76 v=109
134810 On ch=6 n=74 v=109
134852 Off ch=6 n=76 v=64
135140 On ch=6 n=69 v=109
135152 Off ch=6 n=74 v=64
135372 On ch=6 n=74 v=109
135432 Off ch=6 n=69 v=64
135740 On ch=6 n=76 v=109
135772 Off ch=6 n=74 v=64
136092 On ch=6 n=74 v=109
136132 Off ch=6 n=76 v=64
136310 Off ch=6 n=74 v=64
136332 On ch=6 n=78 v=109
136342 On ch=6 n=74 v=109
136622 Off ch=6 n=74 v=64
136630 Off ch=6 n=78 v=64
136662 On ch=6 n=76 v=109
136690 On ch=6 n=79 v=109
136902 Off ch=6 n=76 v=64
136910 Off ch=6 n=79 v=64
136990 On ch=6 n=81 v=109
137010 On ch=6 n=78 v=109
137222 Off ch=6 n=81 v=64
137242 Off ch=6 n=78 v=64
137332 On ch=6 n=83 v=109
137352 On ch=6 n=79 v=109
137532 Off ch=6 n=79 v=64
137552 Off ch=6 n=83 v=64
137652 On ch=6 n=81 v=109
137660 On ch=6 n=84 v=109
137882 Off ch=6 n=84 v=64
137902 Off ch=6 n=81 v=64
137992 On ch=6 n=83 v=109
138010 On ch=6 n=86 v=109
138132 Off ch=6 n=83 v=64
138162 Off ch=6 n=86 v=64
138290 On ch=6 n=74 v=109
138290 On ch=6 n=78 v=109
138542 Off ch=6 n=78 v=64
138602 Off ch=6 n=74 v=64
138622 On ch=6 n=76 v=109
138650 On ch=6 n=79 v=109
138862 Off ch=6 n=79 v=64
138902 Off ch=6 n=76 v=64
138950 On ch=6 n=78 v=109
138950 On ch=6 n=81 v=109
139150 Off ch=6 n=81 v=64
139182 Off ch=6 n=78 v=64
139232 On ch=6 n=79 v=109
139232 On ch=6 n=83 v=109
139492 Off ch=6 n=79 v=64
139522 Off ch=6 n=83 v=64
139562 On ch=6 n=81 v=109
139582 On ch=6 n=78 v=109
139830 Off ch=6 n=78 v=64
139832 Off ch=6 n=81 v=64
139892 On ch=6 n=79 v=109
139912 On ch=6 n=76 v=109
140092 Off ch=6 n=79 v=64
140112 Off ch=6 n=76 v=64
140200 On ch=6 n=74 v=109
140202 On ch=6 n=78 v=109
140492 Off ch=6 n=78 v=64
140522 Off ch=6 n=74 v=64
140542 On ch=6 n=76 v=109
140542 On ch=6 n=79 v=109
140782 Off ch=6 n=76 v=64
140812 Off ch=6 n=79 v=64
140850 On ch=6 n=81 v=109
140870 On ch=6 n=78 v=109
141050 Off ch=6 n=78 v=64
141070 Off ch=6 n=81 v=64
141140 On ch=6 n=83 v=109
141152 On ch=6 n=79 v=109
141350 Off ch=6 n=79 v=64
141350 Off ch=6 n=83 v=64
141492 On ch=6 n=81 v=109
141492 On ch=6 n=84 v=109
141712 Off ch=6 n=81 v=64
141740 Off ch=6 n=84 v=64
141812 On ch=6 n=83 v=109
141850 On ch=6 n=86 v=109
141992 Off ch=6 n=83 v=64
142022 Off ch=6 n=86 v=64
142142 On ch=6 n=74 v=109
142150 On ch=6 n=78 v=109
142442 Off ch=6 n=78 v=64
142442 Off ch=6 n=74 v=64
142462 On ch=6 n=79 v=109
142490 On ch=6 n=76 v=109
142702 Off ch=6 n=76 v=64
142710 Off ch=6 n=79 v=64
142770 On ch=6 n=78 v=109
142772 On ch=6 n=81 v=109
142950 Off ch=6 n=78 v=64
142972 Off ch=6 n=81 v=64
143060 On ch=6 n=79 v=109
143060 On ch=6 n=83 v=109
143260 Off ch=6 n=83 v=64
143260 Off ch=6 n=79 v=64
143392 On ch=6 n=81 v=109
143402 On ch=6 n=84 v=109
143612 Off ch=6 n=81 v=64
143622 Off ch=6 n=84 v=64
143742 On ch=6 n=83 v=109
143742 On ch=6 n=86 v=109
143902 Off ch=6 n=83 v=64
143930 Off ch=6 n=86 v=64
144050 On ch=6 n=74 v=109
144052 On ch=6 n=78 v=109
144332 Off ch=6 n=78 v=64
144350 Off ch=6 n=74 v=64
144372 On ch=6 n=79 v=109
144392 On ch=6 n=76 v=109
144612 Off ch=6 n=76 v=64
144612 Off ch=6 n=79 v=64
144680 On ch=6 n=81 v=109
144700 On ch=6 n=78 v=109
144900 Off ch=6 n=81 v=64
144902 Off ch=6 n=78 v=64
144980 On ch=6 n=78 v=109
144982 On ch=6 n=83 v=109
145172 Off ch=6 n=78 v=64
145202 Off ch=6 n=83 v=64
145302 On ch=6 n=81 v=109
145302 On ch=6 n=84 v=109
145542 Off ch=6 n=81 v=64
145550 Off ch=6 n=84 v=64
145630 On ch=6 n=83 v=109
145630 On ch=6 n=86 v=109
145810 Off ch=6 n=86 v=64
145810 Off ch=6 n=83 v=64
145940 On ch=6 n=74 v=109
145952 On ch=6 n=78 v=109
146252 Off ch=6 n=78 v=64
146260 On ch=6 n=79 v=109
146270 Off ch=6 n=74 v=64
146272 On ch=6 n=76 v=109
146552 Off ch=6 n=79 v=64
146580 Off ch=6 n=76 v=64
146590 On ch=6 n=78 v=109
146590 On ch=6 n=81 v=109
146762 Off ch=6 n=78 v=64
146790 Off ch=6 n=81 v=64
146852 On ch=6 n=79 v=109
146852 On ch=6 n=83 v=109
147072 Off ch=6 n=79 v=64
147100 Off ch=6 n=83 v=64
147222 On ch=6 n=81 v=109
147222 On ch=6 n=84 v=109
147462 Off ch=6 n=84 v=64
147462 Off ch=6 n=81 v=64
147570 On ch=6 n=83 v=109
147570 On ch=6 n=86 v=109
147722 Off ch=6 n=83 v=64
147750 Off ch=6 n=86 v=64
147860 On ch=6 n=74 v=109
147870 On ch=6 n=78 v=109
148172 Off ch=6 n=78 v=64
148190 Off ch=6 n=74 v=64
148210 On ch=6 n=79 v=109
148230 On ch=6 n=76 v=109
148492 Off ch=6 n=79 v=64
148510 On ch=6 n=78 v=109
148512 On ch=6 n=81 v=109
148570 Off ch=6 n=76 v=64
148710 Off ch=6 n=78 v=64
148740 Off ch=6 n=81 v=64
148792 On ch=6 n=79 v=109
148792 On ch=6 n=83 v=109
149032 Off ch=6 n=79 v=64
149060 Off ch=6 n=83 v=64
149162 On ch=6 n=81 v=109
149162 On ch=6 n=84 v=109
149372 Off ch=6 n=81 v=64
149390 Off ch=6 n=84 v=64
149462 On ch=6 n=83 v=109
149490 On ch=6 n=86 v=109
149642 Off ch=6 n=83 v=64
149650 Off ch=6 n=86 v=64
149790 On ch=6 n=74 v=109
149790 On ch=6 n=78 v=109
150062 Off ch=6 n=78 v=64
150100 Off ch=6 n=74 v=64
150112 On ch=6 n=79 v=109
150130 On ch=6 n=76 v=109
150342 Off ch=6 n=76 v=64
150350 Off ch=6 n=79 v=64
150430 On ch=6 n=78 v=109
150430 On ch=6 n=81 v=109
150630 Off ch=6 n=81 v=64
150632 Off ch=6 n=78 v=64
150740 On ch=6 n=79 v=109
150740 On ch=6 n=83 v=109
150952 Off ch=6 n=79 v=64
150980 Off ch=6 n=83 v=64
151090 On ch=6 n=81 v=109
151090 On ch=6 n=84 v=109
151330 Off ch=6 n=84 v=64
151330 Off ch=6 n=81 v=64
151402 On ch=6 n=83 v=109
151430 On ch=6 n=86 v=109
151602 Off ch=6 n=83 v=64
151630 Off ch=6 n=86 v=64
157200 Par ch=6 c=10 v=48
159120 On ch=6 n=57 v=127
159120 Par ch=6 c=2 v=0
159120 PrCh ch=6 p=84
159750 Off ch=6 n=57 v=64
159860 On ch=6 n=60 v=127
160065 Off ch=6 n=60 v=64
160140 On ch=6 n=64 v=127
160320 On ch=6 n=59 v=127
160345 Off ch=6 n=64 v=64
160530 Off ch=6 n=59 v=64
160620 On ch=6 n=62 v=127
160825 Off ch=6 n=62 v=64
160825 On ch=6 n=62 v=127
161035 Off ch=6 n=62 v=64
161060 On ch=6 n=66 v=127
161275 Off ch=6 n=66 v=64
161285 On ch=6 n=67 v=127
161735 Off ch=6 n=67 v=64
161760 On ch=6 n=60 v=127
161980 Off ch=6 n=60 v=64
162030 On ch=6 n=64 v=127
162255 Off ch=6 n=64 v=64
162265 On ch=6 n=69 v=127
162690 Off ch=6 n=69 v=64
162725 On ch=6 n=66 v=127
162955 Off ch=6 n=66 v=64
162960 On ch=6 n=62 v=127
163185 Off ch=6 n=62 v=64
163200 On ch=6 n=76 v=127
163430 Off ch=6 n=76 v=64
163470 On ch=6 n=72 v=127
163680 Off ch=6 n=72 v=64
163690 On ch=6 n=67 v=127
163910 Off ch=6 n=67 v=64
163950 On ch=6 n=69 v=127
164170 Off ch=6 n=69 v=64
164180 On ch=6 n=71 v=127
164375 Off ch=6 n=71 v=64
164430 On ch=6 n=78 v=127
164645 On ch=6 n=74 v=127
164665 Off ch=6 n=78 v=64
164750 Off ch=6 n=74 v=64
164790 On ch=6 n=71 v=127
164895 Off ch=6 n=71 v=64
164910 On ch=6 n=69 v=127
165580 Off ch=6 n=69 v=64
165620 On ch=6 n=67 v=127
165695 Off ch=6 n=67 v=64
165720 On ch=6 n=64 v=127
165835 Off ch=6 n=64 v=64
165850 On ch=6 n=69 v=127
166565 Off ch=6 n=69 v=64
166800 On ch=6 n=59 v=127
166915 Off ch=6 n=59 v=64
166930 On ch=6 n=62 v=127
167035 Off ch=6 n=62 v=64
167040 On ch=6 n=57 v=127
167130 Off ch=6 n=57 v=64
167190 On ch=6 n=60 v=127
167295 Off ch=6 n=60 v=64
167305 On ch=6 n=64 v=127
167395 Off ch=6 n=64 v=64
167430 On ch=6 n=60 v=127
167535 Off ch=6 n=60 v=64
167545 On ch=6 n=60 v=127
167750 Off ch=6 n=60 v=64
167765 On ch=6 n=64 v=127
168005 Off ch=6 n=64 v=64
168255 On ch=6 n=59 v=127
168355 Off ch=6 n=59 v=64
168390 On ch=6 n=62 v=127
168480 On ch=6 n=59 v=127
168495 Off ch=6 n=62 v=64
168585 Off ch=6 n=59 v=64
168605 On ch=6 n=62 v=127
168710 Off ch=6 n=62 v=64
168720 On ch=6 n=69 v=127
168825 Off ch=6 n=69 v=64
168870 On ch=6 n=66 v=127
168955 Off ch=6 n=66 v=64
168960 On ch=6 n=60 v=127
169415 Off ch=6 n=60 v=64
169445 On ch=6 n=69 v=127
169675 Off ch=6 n=69 v=64
169710 On ch=6 n=64 v=127
169935 Off ch=6 n=64 v=64
169945 On ch=6 n=59 v=127
170150 Off ch=6 n=59 v=64
170175 On ch=6 n=66 v=127
170605 Off ch=6 n=66 v=64
170640 On ch=6 n=69 v=127
170855 Off ch=6 n=69 v=64
170885 On ch=6 n=69 v=127
171380 Off ch=6 n=69 v=64
171865 On ch=6 n=66 v=127
172070 Off ch=6 n=66 v=64
172110 On ch=6 n=71 v=127
172325 Off ch=6 n=71 v=64
172330 On ch=6 n=69 v=127
172555 Off ch=6 n=69 v=64
172560 On ch=6 n=66 v=127
172780 Off ch=6 n=66 v=64
172820 On ch=6 n=69 v=127
173030 Off ch=6 n=69 v=64
173060 On ch=6 n=72 v=127
173280 On ch=6 n=67 v=127
173300 Off ch=6 n=72 v=64
173520 Off ch=6 n=67 v=64
173550 On ch=6 n=69 v=127
174255 Off ch=6 n=69 v=64
174510 On ch=6 n=66 v=127
174600 On ch=6 n=71 v=127
174615 Off ch=6 n=66 v=64
174705 Off ch=6 n=71 v=64
174740 On ch=6 n=67 v=127
174835 Off ch=6 n=67 v=64
174845 On ch=6 n=64 v=127
174950 Off ch=6 n=64 v=64
175020 On ch=6 n=67 v=127
175220 On ch=6 n=64 v=127
175225 Off ch=6 n=67 v=64
175315 Off ch=6 n=64 v=64
175330 On ch=6 n=60 v=127
175435 Off ch=6 n=60 v=64
175470 On ch=6 n=67 v=127
175565 Off ch=6 n=67 v=64
175565 On ch=6 n=64 v=127
175675 Off ch=6 n=64 v=64
175710 On ch=6 n=69 v=127
175905 Off ch=6 n=69 v=64
175940 On ch=6 n=62 v=127
176035 Off ch=6 n=62 v=64
176070 On ch=6 n=66 v=127
176160 On ch=6 n=69 v=127
176175 Off ch=6 n=66 v=64
176270 Off ch=6 n=69 v=64
176290 On ch=6 n=66 v=127
176395 Off ch=6 n=66 v=64
176400 On ch=6 n=69 v=127
176625 Off ch=6 n=69 v=64
176645 On ch=6 n=60 v=127
176745 Off ch=6 n=60 v=64
176770 On ch=6 n=64 v=127
176865 Off ch=6 n=64 v=64
176910 On ch=6 n=67 v=127
176985 Off ch=6 n=67 v=64
177030 On ch=6 n=69 v=127
177130 Off ch=6 n=69 v=64
177140 On ch=6 n=64 v=127
177235 Off ch=6 n=64 v=64
177250 On ch=6 n=60 v=127
177350 Off ch=6 n=60 v=64
177370 On ch=6 n=64 v=127
177475 Off ch=6 n=64 v=64
177510 On ch=6 n=60 v=127
177615 Off ch=6 n=60 v=64
177625 On ch=6 n=66 v=127
177715 Off ch=6 n=66 v=64
177730 On ch=6 n=69 v=127
177835 Off ch=6 n=69 v=64
177860 On ch=6 n=66 v=127
177955 Off ch=6 n=66 v=64
177965 On ch=6 n=62 v=127
178070 Off ch=6 n=62 v=64
178085 On ch=6 n=59 v=127
178190 Off ch=6 n=59 v=64
178210 On ch=6 n=62 v=127
178310 Off ch=6 n=62 v=64
178330 On ch=6 n=66 v=127
178415 Off ch=6 n=66 v=64
178440 On ch=6 n=69 v=127
178550 Off ch=6 n=69 v=64
178565 On ch=6 n=69 v=127
178795 Off ch=6 n=69 v=64
178825 On ch=6 n=67 v=127
179035 Off ch=6 n=67 v=64
179050 On ch=6 n=72 v=127
179270 Off ch=6 n=72 v=64
179280 On ch=6 n=69 v=127
179965 Off ch=6 n=69 v=64
180000 On ch=6 n=71 v=127
180235 Off ch=6 n=71 v=64
180270 On ch=6 n=74 v=127
180480 Off ch=6 n=74 v=64
180480 On ch=6 n=67 v=127
181175 Off ch=6 n=67 v=64
181230 On ch=6 n=69 v=127
181945 Off ch=6 n=69 v=64
182420 On ch=6 n=69 v=127
182630 Off ch=6 n=69 v=64
182660 On ch=6 n=69 v=127
182870 Off ch=6 n=69 v=64
182900 On ch=6 n=67 v=127
183115 Off ch=6 n=67 v=64
183125 On ch=6 n=64 v=127
183355 Off ch=6 n=64 v=64
183360 On ch=6 n=69 v=127
183790 Off ch=6 n=69 v=64
183845 On ch=6 n=66 v=127
183915 Off ch=6 n=66 v=64
183930 On ch=6 n=62 v=127
183970 On ch=6 n=59 v=127
183980 Off ch=6 n=62 v=64
184075 Off ch=6 n=59 v=64
184090 On ch=6 n=66 v=127
184310 Off ch=6 n=66 v=64
184325 On ch=6 n=64 v=127
184550 Off ch=6 n=64 v=64
184620 On ch=6 n=81 v=127
186495 Off ch=6 n=81 v=64
186510 On ch=6 n=79 v=127
186945 Off ch=6 n=79 v=64
186990 On ch=6 n=81 v=127
187435 Off ch=6 n=81 v=64
187440 On ch=6 n=78 v=127
187500 Off ch=6 n=78 v=64
187560 On ch=6 n=74 v=127
187590 On ch=6 n=71 v=127
187610 Off ch=6 n=74 v=64
187680 On ch=6 n=69 v=127
187690 Off ch=6 n=71 v=64
187900 Off ch=6 n=69 v=64
187930 On ch=6 n=57 v=127
188150 Off ch=6 n=57 v=64
188430 On ch=6 n=60 v=127
188645 Off ch=6 n=60 v=64
188665 On ch=6 n=64 v=127
188875 Off ch=6 n=64 v=64
188905 On ch=6 n=67 v=127
189115 Off ch=6 n=67 v=64
189145 On ch=6 n=69 v=127
189355 Off ch=6 n=69 v=64
189370 On ch=6 n=69 v=127
189590 Off ch=6 n=69 v=64
189610 On ch=6 n=66 v=127
189830 Off ch=6 n=66 v=64
189850 On ch=6 n=69 v=127
190535 Off ch=6 n=69 v=64
190570 On ch=6 n=64 v=127
190795 Off ch=6 n=64 v=64
190815 On ch=6 n=60 v=127
191030 Off ch=6 n=60 v=64
191040 On ch=6 n=59 v=127
191250 Off ch=6 n=59 v=64
191290 On ch=6 n=57 v=127
191515 Off ch=6 n=57 v=64
191525 On ch=6 n=54 v=127
191755 Off ch=6 n=54 v=64
191760 On ch=6 n=57 v=127
192960 Off ch=6 n=57 v=64
200900 PrCh ch=6 p=29
201590 ChPr ch=6 v=0
201590 Par ch=6 c=1 v=22
201590 Pb ch=6 v=8192
201590 Par ch=6 c=10 v=73
201600 On ch=6 n=69 v=114
201600 On ch=6 n=64 v=114
202230 Par ch=6 c=10 v=44
203070 Par ch=6 c=10 v=43
203490 Off ch=6 n=69 v=64
203490 On ch=6 n=69 v=114
203520 Off ch=6 n=64 v=64
203735 On ch=6 n=72 v=114
203840 Off ch=6 n=69 v=64
203910 Par ch=6 c=10 v=42
203975 Off ch=6 n=72 v=64
203992 On ch=6 n=76 v=114
204210 On ch=6 n=72 v=114
204232 Off ch=6 n=76 v=64
204450 Off ch=6 n=72 v=64
204515 On ch=6 n=71 v=114
204720 On ch=6 n=74 v=114
204750 Par ch=6 c=10 v=41
204755 Off ch=6 n=71 v=64
204935 On ch=6 n=78 v=114
204960 Off ch=6 n=74 v=64
205175 Off ch=6 n=78 v=64
205205 On ch=6 n=74 v=114
205440 On ch=6 n=69 v=114
205445 Off ch=6 n=74 v=64
205590 Par ch=6 c=10 v=40
205647 On ch=6 n=72 v=114
205680 Off ch=6 n=69 v=64
205905 On ch=6 n=76 v=114
205960 Off ch=6 n=72 v=64
206130 On ch=6 n=72 v=114
206145 Off ch=6 n=76 v=64
206370 Off ch=6 n=72 v=64
206387 On ch=6 n=71 v=114
206430 Par ch=6 c=10 v=39
206595 On ch=6 n=74 v=114
206845 On ch=6 n=78 v=114
206917 Off ch=6 n=74 v=64
206977 Off ch=6 n=71 v=64
207145 On ch=6 n=74 v=114
207205 Off ch=6 n=78 v=64
207270 Par ch=6 c=10 v=38
207357 On ch=6 n=69 v=114
207385 Off ch=6 n=74 v=64
207472 Off ch=6 n=69 v=64
207567 On ch=6 n=69 v=114
207817 On ch=6 n=72 v=114
207857 Off ch=6 n=69 v=64
208110 Par ch=6 c=10 v=37
208307 Off ch=6 n=72 v=64
208365 On ch=6 n=69 v=114
208445 Off ch=6 n=69 v=64
208545 On ch=6 n=69 v=114
208785 Off ch=6 n=69 v=64
208810 On ch=6 n=67 v=114
208980 Par ch=6 c=10 v=36
209187 Off ch=6 n=67 v=64
209280 On ch=6 n=69 v=114
209395 Off ch=6 n=69 v=64
209505 On ch=6 n=69 v=114
209705 Off ch=6 n=69 v=64
209717 On ch=6 n=72 v=114
209952 On ch=6 n=74 v=114
210002 Off ch=6 n=72 v=64
210212 On ch=6 n=76 v=114
210220 On ch=6 n=75 v=114
210232 Off ch=6 n=74 v=64
210282 Off ch=6 n=75 v=64
210430 On ch=6 n=74 v=114
210510 Off ch=6 n=76 v=64
210692 On ch=6 n=72 v=114
210725 Off ch=6 n=74 v=64
210942 On ch=6 n=74 v=114
210970 Off ch=6 n=72 v=64
211160 On ch=6 n=72 v=114
211232 Off ch=6 n=74 v=64
211410 On ch=6 n=69 v=114
211460 Off ch=6 n=72 v=64
211650 On ch=6 n=67 v=114
211832 Off ch=6 n=69 v=64
211847 Off ch=6 n=67 v=64
211875 On ch=6 n=69 v=114
212152 On ch=6 n=67 v=114
212187 Off ch=6 n=69 v=64
212377 On ch=6 n=69 v=114
212402 Off ch=6 n=67 v=64
212620 On ch=6 n=67 v=114
212642 Off ch=6 n=69 v=64
212862 On ch=6 n=69 v=114
212892 Off ch=6 n=67 v=64
213122 On ch=6 n=72 v=114
213150 Off ch=6 n=69 v=64
213557 On ch=6 n=74 v=114
213595 Off ch=6 n=72 v=64
214062 On ch=6 n=76 v=114
214097 Off ch=6 n=74 v=64
214575 On ch=6 n=74 v=114
214605 Off ch=6 n=76 v=64
214805 On ch=6 n=76 v=114
214825 Off ch=6 n=74 v=64
215030 On ch=6 n=79 v=114
215072 Off ch=6 n=76 v=64
215280 On ch=6 n=81 v=114
215315 Off ch=6 n=79 v=64
215975 On ch=6 n=84 v=114
215995 Off ch=6 n=81 v=64
216205 On ch=6 n=81 v=114
216252 Off ch=6 n=84 v=64
216952 On ch=6 n=76 v=114
216982 Off ch=6 n=81 v=64
217165 On ch=6 n=79 v=114
217225 Off ch=6 n=76 v=64
217407 On ch=6 n=81 v=114
217430 Off ch=6 n=79 v=64
217635 On ch=6 n=76 v=114
217682 Off ch=6 n=81 v=64
217902 On ch=6 n=79 v=114
217950 Off ch=6 n=76 v=64
218135 On ch=6 n=81 v=114
218160 Off ch=6 n=79 v=64
218365 On ch=6 n=79 v=114
218415 Off ch=6 n=81 v=64
218610 On ch=6 n=76 v=114
218647 Off ch=6 n=79 v=64
218832 On ch=6 n=79 v=114
218875 Off ch=6 n=76 v=64
219100 On ch=6 n=76 v=114
219132 Off ch=6 n=79 v=64
219220 Off ch=6 n=76 v=64
219360 On ch=6 n=72 v=114
219810 Off ch=6 n=72 v=64
219840 On ch=6 n=71 v=114
220320 Off ch=6 n=71 v=64
220320 On ch=6 n=72 v=114
220482 On ch=6 n=74 v=114
220725 Off ch=6 n=72 v=64
220725 On ch=6 n=72 v=114
220782 Off ch=6 n=74 v=64
221012 On ch=6 n=69 v=114
221045 Off ch=6 n=72 v=64
221702 On ch=6 n=72 v=114
221757 Off ch=6 n=69 v=64
221950 On ch=6 n=74 v=114
221980 Off ch=6 n=72 v=64
222170 On ch=6 n=76 v=114
222182 Off ch=6 n=74 v=64
222457 On ch=6 n=74 v=114
222500 Off ch=6 n=76 v=64
222680 On ch=6 n=72 v=114
222732 Off ch=6 n=74 v=64
222912 On ch=6 n=69 v=114
222940 Off ch=6 n=72 v=64
223060 Off ch=6 n=69 v=64
223175 On ch=6 n=69 v=114
223525 Off ch=6 n=69 v=64
223660 On ch=6 n=69 v=114
223807 Off ch=6 n=69 v=64
223910 On ch=6 n=69 v=114
224105 Off ch=6 n=69 v=64
224167 On ch=6 n=72 v=114
224497 Off ch=6 n=72 v=64
224647 On ch=6 n=69 v=114
224760 Off ch=6 n=69 v=64
224865 On ch=6 n=69 v=114
224995 Off ch=6 n=69 v=64
225107 On ch=6 n=67 v=114
225212 Off ch=6 n=67 v=64
225340 On ch=6 n=69 v=114
225485 Off ch=6 n=69 v=64
225592 On ch=6 n=67 v=114
225767 Off ch=6 n=67 v=64
225832 On ch=6 n=64 v=114
226130 Off ch=6 n=64 v=64
226495 On ch=6 n=64 v=114
226615 On ch=6 n=67 v=114
226665 Off ch=6 n=64 v=64
226765 On ch=6 n=69 v=114
226797 Off ch=6 n=67 v=64
227490 On ch=6 n=72 v=114
227507 Off ch=6 n=69 v=64
227720 On ch=6 n=69 v=114
227745 Off ch=6 n=72 v=64
227950 On ch=6 n=74 v=114
227982 Off ch=6 n=69 v=64
228210 On ch=6 n=69 v=114
228222 Off ch=6 n=74 v=64
228450 On ch=6 n=76 v=114
228485 Off ch=6 n=69 v=64
228692 On ch=6 n=69 v=114
228715 Off ch=6 n=76 v=64
228950 On ch=6 n=74 v=114
228990 Off ch=6 n=69 v=64
229212 On ch=6 n=69 v=114
229235 Off ch=6 n=74 v=64
229450 On ch=6 n=72 v=114
229482 Off ch=6 n=69 v=64
229677 On ch=6 n=69 v=114
229697 Off ch=6 n=72 v=64
229922 On ch=6 n=74 v=114
229952 Off ch=6 n=69 v=64
230067 On ch=6 n=69 v=114
230105 Off ch=6 n=74 v=64
230387 On ch=6 n=76 v=114
230427 Off ch=6 n=69 v=64
230622 On ch=6 n=69 v=109
230647 Off ch=6 n=76 v=64
230870 On ch=6 n=74 v=109
230910 Off ch=6 n=69 v=64
231105 On ch=6 n=69 v=109
231127 Off ch=6 n=74 v=64
231337 On ch=6 n=72 v=109
231370 Off ch=6 n=69 v=64
231577 On ch=6 n=69 v=109
231605 Off ch=6 n=72 v=64
231815 Off ch=6 n=69 v=64
231870 On ch=6 n=72 v=109
232080 On ch=6 n=69 v=109
232110 Off ch=6 n=72 v=64
232290 Par ch=6 c=10 v=20
232290 PrCh ch=6 p=16
232312 Off ch=6 n=69 v=64
232320 On ch=6 n=69 v=124
232322 On ch=6 n=72 v=124
232422 Off ch=6 n=69 v=64
232447 Off ch=6 n=72 v=64
232555 On ch=6 n=69 v=124
232555 On ch=6 n=72 v=124
232642 Off ch=6 n=72 v=64
232642 Off ch=6 n=69 v=64
232815 On ch=6 n=71 v=124
232822 On ch=6 n=74 v=124
233165 Off ch=6 n=74 v=64
233165 Off ch=6 n=71 v=64
233280 On ch=6 n=71 v=124
233287 On ch=6 n=74 v=124
233375 Off ch=6 n=71 v=64
233380 Off ch=6 n=74 v=64
233510 On ch=6 n=71 v=124
233512 On ch=6 n=74 v=124
233597 Off ch=6 n=74 v=64
233602 Off ch=6 n=71 v=64
233765 On ch=6 n=72 v=124
233775 On ch=6 n=69 v=124
234092 Off ch=6 n=69 v=64
234092 Off ch=6 n=72 v=64
234210 Par ch=6 c=10 v=107
234210 PrCh ch=6 p=29
234250 On ch=6 n=69 v=114
234252 On ch=6 n=72 v=114
234347 Off ch=6 n=72 v=64
234357 Off ch=6 n=69 v=64
234485 On ch=6 n=69 v=114
234485 On ch=6 n=72 v=114
234570 Off ch=6 n=72 v=64
234570 Off ch=6 n=69 v=64
234725 On ch=6 n=74 v=114
234730 On ch=6 n=71 v=114
234792 Off ch=6 n=71 v=64
234800 Off ch=6 n=74 v=64
234940 On ch=6 n=71 v=114
234940 On ch=6 n=74 v=114
235017 Off ch=6 n=74 v=64
235017 Off ch=6 n=71 v=64
235200 On ch=6 n=69 v=114
235202 On ch=6 n=72 v=114
235285 Off ch=6 n=72 v=64
235285 Off ch=6 n=69 v=64
235432 On ch=6 n=72 v=114
235440 On ch=6 n=69 v=114
235502 Off ch=6 n=69 v=64
235507 Off ch=6 n=72 v=64
235705 On ch=6 n=71 v=114
235707 On ch=6 n=74 v=114
235917 Off ch=6 n=74 v=64
235945 Off ch=6 n=71 v=64
236040 Par ch=6 c=10 v=20
236040 PrCh ch=6 p=16
236160 On ch=6 n=69 v=124
236162 On ch=6 n=72 v=124
236262 Off ch=6 n=69 v=64
236287 Off ch=6 n=72 v=64
236395 On ch=6 n=69 v=124
236395 On ch=6 n=72 v=124
236482 Off ch=6 n=72 v=64
236482 Off ch=6 n=69 v=64
236655 On ch=6 n=71 v=124
236662 On ch=6 n=74 v=124
237005 Off ch=6 n=74 v=64
237005 Off ch=6 n=71 v=64
237120 On ch=6 n=71 v=124
237127 On ch=6 n=74 v=124
237215 Off ch=6 n=71 v=64
237220 Off ch=6 n=74 v=64
237350 On ch=6 n=71 v=124
237352 On ch=6 n=74 v=124
237437 Off ch=6 n=74 v=64
237442 Off ch=6 n=71 v=64
237605 On ch=6 n=72 v=124
237615 On ch=6 n=69 v=124
237932 Off ch=6 n=69 v=64
237932 Off ch=6 n=72 v=64
238050 Par ch=6 c=10 v=107
238050 PrCh ch=6 p=29
238090 On ch=6 n=69 v=114
238092 On ch=6 n=72 v=114
238187 Off ch=6 n=72 v=64
238197 Off ch=6 n=69 v=64
238325 On ch=6 n=69 v=114
238325 On ch=6 n=72 v=114
238410 Off ch=6 n=72 v=64
238410 Off ch=6 n=69 v=64
238565 On ch=6 n=74 v=114
238570 On ch=6 n=71 v=114
238632 Off ch=6 n=71 v=64
238640 Off ch=6 n=74 v=64
238780 On ch=6 n=71 v=114
238780 On ch=6 n=74 v=114
238857 Off ch=6 n=74 v=64
238857 Off ch=6 n=71 v=64
239040 On ch=6 n=69 v=114
239042 On ch=6 n=72 v=114
239125 Off ch=6 n=72 v=64
239125 Off ch=6 n=69 v=64
239272 On ch=6 n=72 v=114
239280 On ch=6 n=69 v=114
239342 Off ch=6 n=69 v=64
239347 Off ch=6 n=72 v=64
239545 On ch=6 n=71 v=114
239547 On ch=6 n=74 v=114
239757 Off ch=6 n=74 v=64
239785 Off ch=6 n=71 v=64
239970 Par ch=6 c=10 v=20
239970 PrCh ch=6 p=16
240017 On ch=6 n=69 v=124
240020 On ch=6 n=72 v=124
240105 Off ch=6 n=69 v=64
240117 Off ch=6 n=72 v=64
240252 On ch=6 n=72 v=124
240260 On ch=6 n=69 v=124
240322 Off ch=6 n=69 v=64
240332 Off ch=6 n=72 v=64
240512 On ch=6 n=71 v=124
240512 On ch=6 n=74 v=124
240810 Off ch=6 n=74 v=64
240810 Off ch=6 n=71 v=64
240947 On ch=6 n=72 v=124
240955 On ch=6 n=69 v=124
241025 Off ch=6 n=72 v=64
241035 Off ch=6 n=69 v=64
241162 On ch=6 n=69 v=124
241172 On ch=6 n=72 v=124
241232 Off ch=6 n=72 v=64
241237 Off ch=6 n=69 v=64
241320 Par ch=6 c=10 v=107
241320 PrCh ch=6 p=29
241425 On ch=6 n=71 v=114
241677 On ch=6 n=74 v=114
241720 Off ch=6 n=71 v=64
241910 On ch=6 n=76 v=114
241932 Off ch=6 n=74 v=64
242137 On ch=6 n=74 v=114
242177 Off ch=6 n=76 v=64
242387 On ch=6 n=72 v=114
242422 Off ch=6 n=74 v=64
242632 Off ch=6 n=72 v=64
242632 On ch=6 n=74 v=114
242870 On ch=6 n=72 v=114
242915 Off ch=6 n=74 v=64
243112 On ch=6 n=69 v=114
243132 Off ch=6 n=72 v=64
243345 On ch=6 n=72 v=114
243350 Off ch=6 n=69 v=64
243590 On ch=6 n=69 v=114
243632 Off ch=6 n=72 v=64
243840 On ch=6 n=67 v=114
243872 Off ch=6 n=69 v=64
244052 Off ch=6 n=67 v=64
244055 On ch=6 n=69 v=114
244307 On ch=6 n=67 v=114
244350 Off ch=6 n=69 v=64
244552 On ch=6 n=64 v=114
244582 Off ch=6 n=67 v=64
244777 On ch=6 n=67 v=114
244805 Off ch=6 n=64 v=64
245020 On ch=6 n=69 v=114
245030 Off ch=6 n=67 v=64
245260 On ch=6 n=67 v=114
245302 Off ch=6 n=69 v=64
245507 On ch=6 n=64 v=114
245537 Off ch=6 n=67 v=64
245745 On ch=6 n=67 v=114
245757 Off ch=6 n=64 v=64
245997 On ch=6 n=64 v=114
246032 Off ch=6 n=67 v=64
246247 On ch=6 n=62 v=114
246282 Off ch=6 n=64 v=64
246462 On ch=6 n=64 v=114
246472 Off ch=6 n=62 v=64
246690 On ch=6 n=62 v=114
246742 Off ch=6 n=64 v=64
246952 On ch=6 n=60 v=114
246980 Off ch=6 n=62 v=64
247177 On ch=6 n=62 v=114
247190 Off ch=6 n=60 v=64
247415 On ch=6 n=60 v=114
247455 Off ch=6 n=62 v=64
247680 Off ch=6 n=60 v=64
247687 On ch=6 n=57 v=114
248182 On ch=6 n=59 v=114
248205 Off ch=6 n=57 v=64
248387 On ch=6 n=60 v=114
248410 Off ch=6 n=59 v=64
248620 On ch=6 n=59 v=114
248657 Off ch=6 n=60 v=64
248850 On ch=6 n=57 v=114
248922 Off ch=6 n=59 v=64
249607 Off ch=6 n=57 v=64
249607 On ch=6 n=57 v=114
251047 Off ch=6 n=57 v=64
251520 PrCh ch=6 p=16
251520 PoPr ch=6 n=1 v=60
251520 Par ch=6 c=2 v=60
251520 Par ch=6 c=1 v=30
251520 Par ch=6 c=4 v=60
251520 Par ch=6 c=10 v=78
251520 On ch=6 n=59 v=124
251697 On ch=6 n=60 v=124
251722 Off ch=6 n=59 v=64
251992 On ch=6 n=62 v=124
252020 Off ch=6 n=60 v=64
252090 Par ch=6 c=10 v=79
252205 On ch=6 n=64 v=124
252220 Off ch=6 n=62 v=64
252452 On ch=6 n=62 v=124
252467 Off ch=6 n=64 v=64
252630 Par ch=6 c=10 v=80
252695 On ch=6 n=64 v=124
252722 Off ch=6 n=62 v=64
252935 Off ch=6 n=64 v=64
252960 On ch=6 n=65 v=124
253170 Par ch=6 c=10 v=81
253170 On ch=6 n=67 v=124
253200 Off ch=6 n=65 v=64
253415 On ch=6 n=69 v=124
253475 Off ch=6 n=67 v=64
253710 Par ch=6 c=10 v=82
254250 Par ch=6 c=10 v=83
254400 On ch=6 n=72 v=124
254432 Off ch=6 n=69 v=64
254622 On ch=6 n=69 v=124
254652 Off ch=6 n=72 v=64
254790 Par ch=6 c=10 v=84
254867 On ch=6 n=72 v=124
254887 Off ch=6 n=69 v=64
255107 On ch=6 n=74 v=124
255122 Off ch=6 n=72 v=64
255330 Par ch=6 c=10 v=85
255360 On ch=6 n=76 v=124
255380 Off ch=6 n=74 v=64
255580 On ch=6 n=74 v=124
255627 Off ch=6 n=76 v=64
255810 On ch=6 n=72 v=124
255855 Off ch=6 n=74 v=64
255870 Par ch=6 c=10 v=86
256027 On ch=6 n=69 v=124
256042 Off ch=6 n=72 v=64
256302 On ch=6 n=72 v=124
256327 Off ch=6 n=69 v=64
256410 Par ch=6 c=10 v=87
256535 On ch=6 n=69 v=124
256570 Off ch=6 n=72 v=64
256950 Par ch=6 c=10 v=88
257280 Off ch=6 n=69 v=64
257280 On ch=6 n=76 v=124
257405 On ch=6 n=75 v=124
257440 Off ch=6 n=76 v=64
257490 Par ch=6 c=10 v=89
257537 On ch=6 n=74 v=124
257565 Off ch=6 n=75 v=64
257730 On ch=6 n=72 v=124
257762 Off ch=6 n=74 v=64
257930 Off ch=6 n=72 v=64
257952 On ch=6 n=74 v=124
258030 Par ch=6 c=10 v=90
258197 On ch=6 n=72 v=124
258255 Off ch=6 n=74 v=64
258440 On ch=6 n=69 v=124
258462 Off ch=6 n=72 v=64
258570 Par ch=6 c=10 v=91
258687 On ch=6 n=72 v=124
258715 Off ch=6 n=69 v=64
258922 On ch=6 n=69 v=124
258950 Off ch=6 n=72 v=64
259110 Par ch=6 c=10 v=92
259162 On ch=6 n=67 v=124
259192 Off ch=6 n=69 v=64
259397 On ch=6 n=69 v=124
259440 Off ch=6 n=67 v=64
259650 Par ch=6 c=10 v=93
260052 Off ch=6 n=69 v=64
260160 On ch=6 n=72 v=124
260190 Par ch=6 c=10 v=94
260640 Off ch=6 n=72 v=64
260670 On ch=6 n=71 v=124
260730 Par ch=6 c=10 v=95
260910 Off ch=6 n=71 v=64
260940 On ch=6 n=69 v=124
261060 Off ch=6 n=69 v=64
261110 On ch=6 n=69 v=124
261215 Off ch=6 n=69 v=64
261270 Par ch=6 c=10 v=96
261340 On ch=6 n=69 v=124
261587 On ch=6 n=72 v=124
261692 Off ch=6 n=69 v=64
261810 Par ch=6 c=10 v=97
262092 On ch=6 n=69 v=124
262117 Off ch=6 n=72 v=64
262202 Off ch=6 n=69 v=64
262317 On ch=6 n=69 v=124
262350 Par ch=6 c=10 v=98
262565 On ch=6 n=74 v=124
262902 Off ch=6 n=69 v=64
262920 Par ch=6 c=10 v=99
263047 On ch=6 n=69 v=124
263055 Off ch=6 n=74 v=64
263145 Off ch=6 n=69 v=64
263280 On ch=6 n=69 v=124
263395 Off ch=6 n=69 v=64
263460 Par ch=6 c=10 v=100
263525 On ch=6 n=76 v=124
263612 On ch=6 n=74 v=124
263657 Off ch=6 n=76 v=64
263692 On ch=6 n=72 v=124
263717 Off ch=6 n=74 v=64
263962 On ch=6 n=74 v=124
263987 Off ch=6 n=72 v=64
264000 Par ch=6 c=10 v=101
264170 On ch=6 n=72 v=124
264215 Off ch=6 n=74 v=64
264472 On ch=6 n=69 v=124
264482 Off ch=6 n=72 v=64
264540 Par ch=6 c=10 v=102
264792 Off ch=6 n=69 v=64
264950 On ch=6 n=69 v=124
265080 Par ch=6 c=10 v=103
265180 On ch=6 n=81 v=124
265230 Off ch=6 n=69 v=64
265447 Off ch=6 n=81 v=64
265447 On ch=6 n=69 v=124
265620 Par ch=6 c=10 v=104
265705 On ch=6 n=81 v=124
265720 Off ch=6 n=69 v=64
265950 On ch=6 n=69 v=124
265982 On ch=6 n=79 v=124
266007 Off ch=6 n=81 v=64
266060 Off ch=6 n=69 v=64
266160 Par ch=6 c=10 v=105
266415 Off ch=6 n=79 v=64
266422 On ch=6 n=69 v=124
266700 Par ch=6 c=10 v=106
266877 On ch=6 n=81 v=124
266927 Off ch=6 n=69 v=64
267142 On ch=6 n=69 v=124
267145 On ch=6 n=79 v=124
267207 Off ch=6 n=81 v=64
267240 Off ch=6 n=79 v=64
267240 Par ch=6 c=10 v=107
267405 On ch=6 n=79 v=124
267487 Off ch=6 n=69 v=64
267657 On ch=6 n=81 v=124
267675 Off ch=6 n=79 v=64
267780 Par ch=6 c=10 v=108
267872 On ch=6 n=79 v=124
267937 Off ch=6 n=81 v=64
268120 On ch=6 n=76 v=124
268142 Off ch=6 n=79 v=64
268320 Par ch=6 c=10 v=109
268332 On ch=6 n=79 v=124
268370 Off ch=6 n=76 v=64
268565 On ch=6 n=76 v=124
268615 Off ch=6 n=79 v=64
268802 On ch=6 n=74 v=124
268855 Off ch=6 n=76 v=64
268860 Par ch=6 c=10 v=110
269015 On ch=6 n=76 v=124
269027 Off ch=6 n=74 v=64
269237 On ch=6 n=74 v=124
269292 Off ch=6 n=76 v=64
269400 Par ch=6 c=10 v=111
269502 On ch=6 n=72 v=124
269535 Off ch=6 n=74 v=64
269742 On ch=6 n=74 v=124
269772 Off ch=6 n=72 v=64
269940 Par ch=6 c=10 v=112
270200 On ch=6 n=76 v=124
270232 Off ch=6 n=74 v=64
270480 Par ch=6 c=10 v=113
270690 On ch=6 n=72 v=124
270740 Off ch=6 n=76 v=64
270925 On ch=6 n=74 v=124
270957 Off ch=6 n=72 v=64
271020 Par ch=6 c=10 v=114
271167 On ch=6 n=72 v=124
271212 Off ch=6 n=74 v=64
271560 Par ch=6 c=10 v=115
271652 On ch=6 n=69 v=124
271660 Off ch=6 n=72 v=64
272100 Par ch=6 c=10 v=116
272195 Off ch=6 n=69 v=64
272625 On ch=6 n=69 v=124
272637 Par ch=6 c=10 v=117
272640 Par ch=6 c=10 v=116
272857 On ch=6 n=72 v=124
273117 On ch=6 n=76 v=124
273150 Par ch=6 c=10 v=115
273157 Off ch=6 n=72 v=64
273257 Off ch=6 n=69 v=64
273585 On ch=6 n=71 v=124
273630 Par ch=6 c=10 v=114
273635 Off ch=6 n=76 v=64
273832 On ch=6 n=74 v=124
274072 On ch=6 n=78 v=124
274122 Off ch=6 n=74 v=64
274140 Par ch=6 c=10 v=113
274152 Off ch=6 n=71 v=64
274525 On ch=6 n=69 v=124
274532 On ch=6 n=67 v=124
274547 Off ch=6 n=78 v=64
274575 Off ch=6 n=67 v=64
274620 Par ch=6 c=10 v=112
274762 On ch=6 n=72 v=124
275020 On ch=6 n=76 v=124
275065 Off ch=6 n=72 v=64
275130 Par ch=6 c=10 v=111
275180 Off ch=6 n=69 v=64
275490 On ch=6 n=71 v=124
275552 Off ch=6 n=76 v=64
275610 Par ch=6 c=10 v=110
275732 On ch=6 n=74 v=124
275985 On ch=6 n=78 v=124
276025 Off ch=6 n=74 v=64
276090 Par ch=6 c=10 v=109
276442 On ch=6 n=74 v=124
276462 Off ch=6 n=78 v=64
276475 Off ch=6 n=71 v=64
276600 Par ch=6 c=10 v=108
276657 On ch=6 n=78 v=124
276710 Off ch=6 n=74 v=64
276935 On ch=6 n=72 v=124
276945 Off ch=6 n=78 v=64
277080 Par ch=6 c=10 v=107
277155 On ch=6 n=76 v=124
277230 Off ch=6 n=72 v=64
277425 On ch=6 n=74 v=124
277442 Off ch=6 n=76 v=64
277590 Par ch=6 c=10 v=106
277667 On ch=6 n=79 v=124
277715 Off ch=6 n=74 v=64
277912 On ch=6 n=76 v=124
277920 Off ch=6 n=79 v=64
278070 Par ch=6 c=10 v=105
278150 On ch=6 n=81 v=124
278160 On ch=6 n=83 v=124
278197 Off ch=6 n=76 v=64
278227 Off ch=6 n=83 v=64
278385 Off ch=6 n=81 v=64
278385 On ch=6 n=74 v=124
278550 Par ch=6 c=10 v=104
278622 On ch=6 n=79 v=124
278697 Off ch=6 n=74 v=64
278892 On ch=6 n=76 v=124
278925 Off ch=6 n=79 v=64
279060 Par ch=6 c=10 v=103
279152 On ch=6 n=79 v=124
279185 Off ch=6 n=76 v=64
279335 Off ch=6 n=79 v=64
279390 On ch=6 n=74 v=124
279540 Par ch=6 c=10 v=102
279630 Off ch=6 n=74 v=64
279630 On ch=6 n=79 v=124
279840 On ch=6 n=76 v=124
279870 Off ch=6 n=79 v=64
280050 Par ch=6 c=10 v=101
280200 Off ch=6 n=76 v=64
280295 On ch=6 n=76 v=124
280530 Par ch=6 c=10 v=100
280550 On ch=6 n=79 v=124
280612 Off ch=6 n=76 v=64
280792 On ch=6 n=81 v=124
280825 Off ch=6 n=79 v=64
281010 Par ch=6 c=10 v=99
281250 On ch=6 n=79 v=124
281297 Off ch=6 n=81 v=64
281497 On ch=6 n=76 v=124
281520 Par ch=6 c=10 v=98
281537 Off ch=6 n=79 v=64
281987 Off ch=6 n=76 v=64
282000 Par ch=6 c=10 v=97
282212 On ch=6 n=76 v=124
282212 On ch=6 n=79 v=124
282220 On ch=6 n=81 v=124
282320 Off ch=6 n=81 v=64
282340 Off ch=6 n=76 v=64
282350 Off ch=6 n=79 v=64
282460 On ch=6 n=79 v=124
282462 On ch=6 n=81 v=124
282472 On ch=6 n=76 v=124
282510 Par ch=6 c=10 v=96
282580 Off ch=6 n=79 v=64
282582 Off ch=6 n=81 v=64
282592 Off ch=6 n=76 v=64
282702 On ch=6 n=76 v=124
282717 On ch=6 n=79 v=124
282717 On ch=6 n=81 v=124
282832 Off ch=6 n=76 v=64
282837 Off ch=6 n=79 v=64
282837 Off ch=6 n=81 v=64
282960 On ch=6 n=76 v=124
282965 On ch=6 n=79 v=124
282965 On ch=6 n=81 v=124
282990 Par ch=6 c=10 v=95
283080 Off ch=6 n=76 v=64
283085 Off ch=6 n=79 v=64
283085 Off ch=6 n=81 v=64
283197 On ch=6 n=81 v=124
283425 On ch=6 n=79 v=124
283470 Par ch=6 c=10 v=94
283490 Off ch=6 n=81 v=64
283677 On ch=6 n=76 v=124
283700 Off ch=6 n=79 v=64
283922 Off ch=6 n=76 v=64
283922 On ch=6 n=79 v=124
283980 Par ch=6 c=10 v=93
284152 On ch=6 n=76 v=124
284187 Off ch=6 n=79 v=64
284395 On ch=6 n=74 v=124
284435 Off ch=6 n=76 v=64
284460 Par ch=6 c=10 v=92
284612 On ch=6 n=76 v=124
284625 Off ch=6 n=74 v=64
284880 On ch=6 n=74 v=124
284932 Off ch=6 n=76 v=64
284970 Par ch=6 c=10 v=91
285112 On ch=6 n=72 v=124
285145 Off ch=6 n=74 v=64
285350 On ch=6 n=74 v=124
285382 Off ch=6 n=72 v=64
285450 Par ch=6 c=10 v=90
285590 On ch=6 n=72 v=124
285645 Off ch=6 n=74 v=64
285817 On ch=6 n=69 v=124
285860 Off ch=6 n=72 v=64
285960 Par ch=6 c=10 v=89
286007 Off ch=6 n=69 v=64
286077 On ch=6 n=69 v=124
286395 Off ch=6 n=69 v=64
286440 Par ch=6 c=10 v=88
286560 On ch=6 n=76 v=124
286592 On ch=6 n=72 v=124
286680 Off ch=6 n=72 v=64
286800 On ch=6 n=81 v=124
286802 On ch=6 n=72 v=124
286920 Par ch=6 c=10 v=87
286930 Off ch=6 n=72 v=64
287040 Off ch=6 n=76 v=64
287040 Off ch=6 n=81 v=64
287070 On ch=6 n=84 v=124
287070 On ch=6 n=79 v=124
287280 On ch=6 n=81 v=124
287310 Off ch=6 n=79 v=64
287310 Off ch=6 n=84 v=64
287430 Par ch=6 c=10 v=86
287520 Off ch=6 n=81 v=64
287550 On ch=6 n=84 v=124
287550 On ch=6 n=79 v=124
287790 Off ch=6 n=79 v=64
287790 Off ch=6 n=84 v=64
287790 On ch=6 n=81 v=124
287910 Par ch=6 c=10 v=85
288007 On ch=6 n=84 v=124
288030 Off ch=6 n=81 v=64
288227 On ch=6 n=81 v=124
288267 Off ch=6 n=84 v=64
288420 Par ch=6 c=10 v=84
288462 On ch=6 n=79 v=124
288472 Off ch=6 n=81 v=64
288667 Off ch=6 n=79 v=64
288680 On ch=6 n=81 v=124
288900 Par ch=6 c=10 v=83
288920 On ch=6 n=79 v=124
288955 Off ch=6 n=81 v=64
289200 On ch=6 n=81 v=124
289260 Off ch=6 n=79 v=64
289380 Par ch=6 c=10 v=82
289890 Par ch=6 c=10 v=81
289920 Off ch=6 n=81 v=64
289922 On ch=6 n=81 v=124
290137 On ch=6 n=76 v=124
290165 Off ch=6 n=81 v=64
290370 Par ch=6 c=10 v=80
290402 On ch=6 n=72 v=124
290427 Off ch=6 n=76 v=64
290627 On ch=6 n=74 v=124
290635 Off ch=6 n=72 v=64
290880 Par ch=6 c=10 v=79
291360 Par ch=6 c=10 v=78
291372 On ch=6 n=72 v=124
291415 Off ch=6 n=74 v=64
291577 On ch=6 n=71 v=124
291635 Off ch=6 n=72 v=64
292320 Par ch=6 c=1 v=35
292320 Par ch=6 c=64 v=10
292320 Par ch=6 c=2 v=100
292800 Par ch=6 c=1 v=40
293280 Par ch=6 c=1 v=45
293760 Off ch=6 n=71 v=64
293760 On ch=6 n=69 v=124
294562 Off ch=6 n=69 v=64
294657 On ch=6 n=69 v=124
294925 On ch=6 n=72 v=124
294967 Off ch=6 n=69 v=64
295677 On ch=6 n=69 v=124
295702 Off ch=6 n=72 v=64
295887 On ch=6 n=72 v=124
295932 Off ch=6 n=69 v=64
296135 On ch=6 n=74 v=124
296145 Off ch=6 n=72 v=64
296350 On ch=6 n=72 v=124
296420 Off ch=6 n=74 v=64
296610 On ch=6 n=69 v=124
296635 Off ch=6 n=72 v=64
297595 On ch=6 n=72 v=124
297637 Off ch=6 n=69 v=64
297842 On ch=6 n=69 v=124
297877 Off ch=6 n=72 v=64
298092 On ch=6 n=72 v=124
298130 Off ch=6 n=69 v=64
298300 On ch=6 n=69 v=124
298332 Off ch=6 n=72 v=64
298570 On ch=6 n=72 v=124
298590 Off ch=6 n=69 v=64
298815 On ch=6 n=71 v=124
298855 Off ch=6 n=72 v=64
299512 On ch=6 n=69 v=124
299560 Off ch=6 n=71 v=64
299745 On ch=6 n=67 v=124
299792 Off ch=6 n=69 v=64
299970 Off ch=6 n=67 v=64
299980 On ch=6 n=69 v=124
300195 On ch=6 n=67 v=124
300265 Off ch=6 n=69 v=64
300455 On ch=6 n=64 v=124
300475 Off ch=6 n=67 v=64
300680 On ch=6 n=67 v=124
300735 Off ch=6 n=64 v=64
300925 On ch=6 n=69 v=124
300980 Off ch=6 n=67 v=64
301455 On ch=6 n=72 v=124
301467 Off ch=6 n=69 v=64
301660 On ch=6 n=69 v=124
301670 Off ch=6 n=72 v=64
301880 On ch=6 n=72 v=124
301907 Off ch=6 n=69 v=64
302135 On ch=6 n=69 v=124
302162 Off ch=6 n=72 v=64
302387 On ch=6 n=72 v=124
302412 Off ch=6 n=69 v=64
302637 On ch=6 n=71 v=124
302690 Off ch=6 n=72 v=64
302867 On ch=6 n=69 v=124
302895 Off ch=6 n=71 v=64
303090 On ch=6 n=71 v=124
303147 Off ch=6 n=69 v=64
303357 On ch=6 n=72 v=124
303387 Off ch=6 n=71 v=64
303850 On ch=6 n=74 v=124
303880 Off ch=6 n=72 v=64
304317 On ch=6 n=72 v=124
304337 Off ch=6 n=74 v=64
304525 On ch=6 n=74 v=124
304565 Off ch=6 n=72 v=64
304972 Off ch=6 n=74 v=64
305302 On ch=6 n=74 v=124
305405 On ch=6 n=75 v=124
305452 Off ch=6 n=74 v=64
305550 On ch=6 n=76 v=124
305575 Off ch=6 n=75 v=64
306170 On ch=6 n=74 v=124
306205 Off ch=6 n=76 v=64
306445 On ch=6 n=72 v=124
306475 Off ch=6 n=74 v=64
306912 Off ch=6 n=72 v=64
307177 On ch=6 n=74 v=124
307302 On ch=6 n=75 v=124
307345 Off ch=6 n=74 v=64
307457 On ch=6 n=76 v=124
307482 Off ch=6 n=75 v=64
308217 On ch=6 n=74 v=124
308262 Off ch=6 n=76 v=64
308425 On ch=6 n=72 v=124
308445 Off ch=6 n=74 v=64
308795 Off ch=6 n=72 v=64
309070 On ch=6 n=74 v=124
309182 On ch=6 n=75 v=124
309247 Off ch=6 n=74 v=64
309337 On ch=6 n=76 v=124
309347 Off ch=6 n=75 v=64
309572 Off ch=6 n=76 v=64
309582 On ch=6 n=79 v=124
309847 Off ch=6 n=79 v=64
309852 On ch=6 n=76 v=124
310085 On ch=6 n=79 v=124
310107 Off ch=6 n=76 v=64
310312 Off ch=6 n=79 v=64
310315 On ch=6 n=81 v=124
310590 On ch=6 n=84 v=124
310650 Off ch=6 n=81 v=64
310695 On ch=6 n=81 v=124
310700 Off ch=6 n=81 v=64
310950 Off ch=6 n=84 v=64
310977 On ch=6 n=81 v=124
311237 On ch=6 n=79 v=124
311262 Off ch=6 n=81 v=64
311462 On ch=6 n=76 v=124
311475 Off ch=6 n=79 v=64
311970 On ch=6 n=74 v=124
312010 Off ch=6 n=76 v=64
312935 On ch=6 n=72 v=124
312962 Off ch=6 n=74 v=64
313175 On ch=6 n=74 v=124
313202 Off ch=6 n=72 v=64
313410 On ch=6 n=72 v=124
313445 Off ch=6 n=74 v=64
313667 On ch=6 n=69 v=124
313692 Off ch=6 n=72 v=64
313882 On ch=6 n=72 v=124
313915 Off ch=6 n=69 v=64
314367 On ch=6 n=74 v=124
314397 Off ch=6 n=72 v=64
314622 On ch=6 n=72 v=124
314685 Off ch=6 n=74 v=64
314837 On ch=6 n=71 v=124
314875 Off ch=6 n=72 v=64
315097 On ch=6 n=69 v=124
315132 Off ch=6 n=71 v=64
315367 On ch=6 n=71 v=124
315442 Off ch=6 n=71 v=64
315817 On ch=6 n=71 v=124
315855 Off ch=6 n=69 v=64
316787 On ch=6 n=67 v=124
316817 Off ch=6 n=71 v=64
316945 On ch=6 n=69 v=124
316982 Off ch=6 n=67 v=64
317067 On ch=6 n=71 v=124
317085 Off ch=6 n=69 v=64
317265 On ch=6 n=72 v=124
317285 Off ch=6 n=71 v=64
317770 On ch=6 n=71 v=124
317775 Off ch=6 n=72 v=64
318015 On ch=6 n=72 v=124
318040 Off ch=6 n=71 v=64
318250 On ch=6 n=74 v=124
318275 Off ch=6 n=72 v=64
318722 On ch=6 n=72 v=124
318740 Off ch=6 n=74 v=64
318952 On ch=6 n=74 v=124
319000 Off ch=6 n=72 v=64
319170 On ch=6 n=76 v=124
319210 Off ch=6 n=74 v=64
319410 On ch=6 n=79 v=124
319432 Off ch=6 n=76 v=64
319650 On ch=6 n=76 v=124
319682 Off ch=6 n=79 v=64
320140 On ch=6 n=74 v=124
320190 Off ch=6 n=76 v=64
320377 On ch=6 n=72 v=124
320410 Off ch=6 n=74 v=64
320640 Off ch=6 n=72 v=64
320660 On ch=6 n=74 v=124
320900 Off ch=6 n=74 v=64
320900 On ch=6 n=75 v=124
321140 Off ch=6 n=75 v=64
321200 On ch=6 n=74 v=124
321380 On ch=6 n=72 v=124
321440 Off ch=6 n=74 v=64
321620 Off ch=6 n=72 v=64
321650 On ch=6 n=74 v=124
321860 On ch=6 n=72 v=124
321890 Off ch=6 n=74 v=64
322100 Off ch=6 n=72 v=64
322100 On ch=6 n=69 v=124
322310 Off ch=6 n=69 v=64
322310 On ch=6 n=69 v=124
322542 On ch=6 n=72 v=124
322595 Off ch=6 n=69 v=64
322802 On ch=6 n=69 v=124
322850 Off ch=6 n=72 v=64
323042 On ch=6 n=72 v=124
323077 Off ch=6 n=69 v=64
323257 On ch=6 n=69 v=124
323300 Off ch=6 n=72 v=64
323505 On ch=6 n=72 v=124
323535 Off ch=6 n=69 v=64
323732 On ch=6 n=71 v=124
323787 Off ch=6 n=72 v=64
324462 On ch=6 n=69 v=124
324500 Off ch=6 n=71 v=64
324672 On ch=6 n=71 v=124
324707 Off ch=6 n=69 v=64
324947 On ch=6 n=72 v=124
324987 Off ch=6 n=71 v=64
325177 On ch=6 n=74 v=124
325232 Off ch=6 n=72 v=64
325415 On ch=6 n=76 v=124
325455 Off ch=6 n=74 v=64
325642 On ch=6 n=74 v=124
325702 Off ch=6 n=76 v=64
325885 On ch=6 n=72 v=124
325955 Off ch=6 n=74 v=64
326120 On ch=6 n=71 v=124
326147 Off ch=6 n=72 v=64
326400 Off ch=6 n=71 v=64
326400 On ch=6 n=72 v=124
326615 On ch=6 n=74 v=124
326665 Off ch=6 n=72 v=64
326875 On ch=6 n=76 v=124
326925 Off ch=6 n=74 v=64
328180 Off ch=6 n=76 v=64
328287 On ch=6 n=76 v=124
328297 On ch=6 n=71 v=124
328300 On ch=6 n=74 v=124
328425 Off ch=6 n=71 v=64
328445 Off ch=6 n=74 v=64
328452 Off ch=6 n=76 v=64
328527 On ch=6 n=71 v=124
328530 On ch=6 n=74 v=124
328530 On ch=6 n=76 v=124
328632 Off ch=6 n=71 v=64
328650 Off ch=6 n=74 v=64
328650 Off ch=6 n=76 v=64
328767 On ch=6 n=71 v=124
328770 On ch=6 n=74 v=124
328770 On ch=6 n=76 v=124
328890 Off ch=6 n=76 v=64
328890 Off ch=6 n=71 v=64
328897 Off ch=6 n=74 v=64
328997 On ch=6 n=71 v=124
328997 On ch=6 n=74 v=124
329000 On ch=6 n=76 v=124
329105 Off ch=6 n=71 v=64
329115 Off ch=6 n=76 v=64
329120 Off ch=6 n=74 v=64
329240 On ch=6 n=71 v=124
329242 On ch=6 n=74 v=124
329245 On ch=6 n=76 v=124
329607 Off ch=6 n=76 v=64
329607 Off ch=6 n=71 v=64
329615 Off ch=6 n=74 v=64
329725 On ch=6 n=71 v=124
329727 On ch=6 n=74 v=124
329730 On ch=6 n=76 v=124
329877 Off ch=6 n=71 v=64
329895 Off ch=6 n=74 v=64
329895 Off ch=6 n=76 v=64
329987 On ch=6 n=71 v=124
329995 On ch=6 n=74 v=124
329997 On ch=6 n=76 v=124
330130 Off ch=6 n=71 v=64
330132 Off ch=6 n=74 v=64
330132 Off ch=6 n=76 v=64
330240 PrCh ch=6 p=84
330240 Par ch=6 c=1 v=30
330240 Par ch=6 c=2 v=30
330240 Par ch=6 c=10 v=93
330240 On ch=6 n=79 v=127
330480 Off ch=6 n=79 v=64
330480 On ch=6 n=76 v=127
330720 Off ch=6 n=76 v=64
330720 On ch=6 n=79 v=127
330960 Off ch=6 n=79 v=64
330960 On ch=6 n=76 v=127
331200 Off ch=6 n=76 v=64
331200 On ch=6 n=79 v=127
331440 Off ch=6 n=79 v=64
331440 On ch=6 n=76 v=127
331920 Off ch=6 n=76 v=64
331920 On ch=6 n=74 v=127
333120 Off ch=6 n=74 v=64
333840 On ch=6 n=76 v=127
334080 Off ch=6 n=76 v=64
334080 On ch=6 n=79 v=127
334320 Off ch=6 n=79 v=64
334320 On ch=6 n=76 v=127
334560 Off ch=6 n=76 v=64
334560 On ch=6 n=79 v=127
334800 Off ch=6 n=79 v=64
334800 On ch=6 n=76 v=127
335040 Off ch=6 n=76 v=64
335040 On ch=6 n=79 v=127
335280 Off ch=6 n=79 v=64
335280 On ch=6 n=76 v=127
335760 Off ch=6 n=76 v=64
335760 On ch=6 n=74 v=127
336960 Off ch=6 n=74 v=64
337920 On ch=6 n=79 v=127
338160 Off ch=6 n=79 v=64
338160 On ch=6 n=76 v=127
338400 Off ch=6 n=76 v=64
338400 On ch=6 n=79 v=127
338640 Off ch=6 n=79 v=64
338640 On ch=6 n=76 v=127
338880 Off ch=6 n=76 v=64
338880 On ch=6 n=79 v=127
339360 Off ch=6 n=79 v=64
339360 On ch=6 n=76 v=127
339600 Off ch=6 n=76 v=64
339600 On ch=6 n=74 v=127
340800 Off ch=6 n=74 v=64
341280 On ch=6 n=79 v=127
341520 Off ch=6 n=79 v=64
341520 On ch=6 n=76 v=127
341760 Off ch=6 n=76 v=64
341760 On ch=6 n=79 v=127
342000 Off ch=6 n=79 v=64
342000 On ch=6 n=76 v=127
342240 Off ch=6 n=76 v=64
342240 On ch=6 n=79 v=127
342480 Off ch=6 n=79 v=64
342480 On ch=6 n=76 v=127
342720 Off ch=6 n=76 v=64
342720 On ch=6 n=79 v=127
342960 Off ch=6 n=79 v=64
342960 On ch=6 n=76 v=127
343440 Off ch=6 n=76 v=64
343440 On ch=6 n=74 v=127
344640 Off ch=6 n=74 v=64
345600 On ch=6 n=74 v=127
345840 Off ch=6 n=74 v=64
345840 On ch=6 n=74 v=127
346080 Off ch=6 n=74 v=64
346080 On ch=6 n=74 v=127
346320 Off ch=6 n=74 v=64
346320 On ch=6 n=74 v=127
346560 Off ch=6 n=74 v=64
346560 On ch=6 n=78 v=127
346800 Off ch=6 n=78 v=64
346800 On ch=6 n=77 v=127
347520 Off ch=6 n=77 v=64
347520 On ch=6 n=77 v=127
348480 Off ch=6 n=77 v=64
348600 Pb ch=6 v=8192
349440 On ch=6 n=74 v=127
349680 Off ch=6 n=74 v=64
349680 On ch=6 n=74 v=127
349920 Off ch=6 n=74 v=64
349920 On ch=6 n=74 v=127
350160 Off ch=6 n=74 v=64
350160 On ch=6 n=74 v=127
350400 Off ch=6 n=74 v=64
350400 On ch=6 n=78 v=127
350640 Off ch=6 n=78 v=64
350640 On ch=6 n=77 v=127
351120 Off ch=6 n=77 v=64
351120 On ch=6 n=74 v=127
351510 Pb ch=6 v=7742
351540 Pb ch=6 v=7142
351570 Pb ch=6 v=6692
351600 Pb ch=6 v=6145
352260 Pb ch=6 v=6842
352290 Pb ch=6 v=7292
352320 Off ch=6 n=74 v=64
352320 Pb ch=6 v=7697
352350 Pb ch=6 v=8192
353280 On ch=6 n=74 v=127
353520 Off ch=6 n=74 v=64
353520 On ch=6 n=72 v=127
353760 Off ch=6 n=72 v=64
353760 On ch=6 n=74 v=127
354000 Off ch=6 n=74 v=64
354000 On ch=6 n=72 v=127
354240 Off ch=6 n=72 v=64
354240 On ch=6 n=76 v=127
354480 Off ch=6 n=76 v=64
354480 On ch=6 n=76 v=127
354960 Off ch=6 n=76 v=64
354960 On ch=6 n=77 v=127
356160 Off ch=6 n=77 v=64
357120 On ch=6 n=74 v=127
357360 Off ch=6 n=74 v=64
357360 On ch=6 n=74 v=127
357600 Off ch=6 n=74 v=64
357600 On ch=6 n=74 v=127
357840 Off ch=6 n=74 v=64
357840 On ch=6 n=74 v=127
358080 Off ch=6 n=74 v=64
358080 On ch=6 n=78 v=127
358320 Off ch=6 n=78 v=64
358320 On ch=6 n=77 v=127
358800 Off ch=6 n=77 v=64
358800 On ch=6 n=74 v=127
359190 Pb ch=6 v=7742
359220 Pb ch=6 v=7142
359250 Pb ch=6 v=6692
359280 Pb ch=6 v=6145
359940 Pb ch=6 v=6842
359970 Pb ch=6 v=7292
360000 Off ch=6 n=74 v=64
360000 Pb ch=6 v=7697
360030 Pb ch=6 v=8192
360960 On ch=6 n=74 v=127
361200 Off ch=6 n=74 v=64
361200 On ch=6 n=72 v=127
361440 Off ch=6 n=72 v=64
361440 On ch=6 n=74 v=127
361680 Off ch=6 n=74 v=64
361680 On ch=6 n=72 v=127
361920 Off ch=6 n=72 v=64
361920 On ch=6 n=76 v=127
362160 Off ch=6 n=76 v=64
362160 On ch=6 n=76 v=127
362640 Off ch=6 n=76 v=64
362640 On ch=6 n=77 v=127
363840 Off ch=6 n=77 v=64
364800 On ch=6 n=81 v=127
365040 Off ch=6 n=81 v=64
365040 On ch=6 n=81 v=127
365280 Off ch=6 n=81 v=64
365280 On ch=6 n=81 v=127
365520 Off ch=6 n=81 v=64
365520 On ch=6 n=81 v=127
365760 Off ch=6 n=81 v=64
365760 On ch=6 n=79 v=127
366000 Off ch=6 n=79 v=64
366000 On ch=6 n=79 v=127
366720 Off ch=6 n=79 v=64
366720 On ch=6 n=81 v=127
369600 Off ch=6 n=81 v=64
370560 PrCh ch=6 p=7
370560 Pb ch=6 v=8039
370560 Par ch=6 c=10 v=117
370560 On ch=6 n=71 v=109
370780 On ch=6 n=67 v=109
370800 Off ch=6 n=71 v=64
370900 On ch=6 n=69 v=109
370920 Off ch=6 n=67 v=64
371000 On ch=6 n=71 v=109
371040 Off ch=6 n=69 v=64
371240 Off ch=6 n=71 v=64
371240 On ch=6 n=74 v=109
371500 On ch=6 n=72 v=109
371520 Off ch=6 n=74 v=64
371740 On ch=6 n=71 v=109
371820 Off ch=6 n=72 v=64
371980 Off ch=6 n=71 v=64
371980 On ch=6 n=69 v=109
372220 On ch=6 n=67 v=109
372260 Off ch=6 n=69 v=64
372460 Off ch=6 n=67 v=64
372460 On ch=6 n=69 v=109
372700 On ch=6 n=65 v=109
372740 Off ch=6 n=69 v=64
372820 On ch=6 n=67 v=109
372840 Off ch=6 n=65 v=64
372920 On ch=6 n=69 v=109
372960 Off ch=6 n=67 v=64
373120 Off ch=6 n=69 v=64
373180 On ch=6 n=77 v=109
373380 Off ch=6 n=77 v=64
373380 On ch=6 n=74 v=109
373420 Off ch=6 n=74 v=64
373420 On ch=6 n=74 v=109
373520 Off ch=6 n=74 v=64
373540 On ch=6 n=72 v=109
373640 Off ch=6 n=72 v=64
373660 On ch=6 n=70 v=109
373780 Off ch=6 n=70 v=64
373780 On ch=6 n=69 v=109
373900 Off ch=6 n=69 v=64
373920 On ch=6 n=67 v=109
374100 Off ch=6 n=67 v=64
374160 On ch=6 n=65 v=109
374340 Off ch=6 n=65 v=64
374400 On ch=6 n=67 v=109
374620 On ch=6 n=63 v=109
374660 Off ch=6 n=67 v=64
374740 On ch=6 n=65 v=109
374780 Off ch=6 n=63 v=64
374860 On ch=6 n=67 v=109
374900 Off ch=6 n=65 v=64
375060 Off ch=6 n=67 v=64
375080 On ch=6 n=70 v=109
375340 Off ch=6 n=70 v=64
375340 On ch=6 n=68 v=109
375460 Off ch=6 n=68 v=64
375460 On ch=6 n=67 v=109
375580 Off ch=6 n=67 v=64
375580 On ch=6 n=65 v=109
375700 On ch=6 n=63 v=109
375740 Off ch=6 n=65 v=64
375820 On ch=6 n=62 v=109
375840 Off ch=6 n=63 v=64
376080 On ch=6 n=63 v=109
376140 Off ch=6 n=62 v=64
376300 Off ch=6 n=63 v=64
376320 On ch=6 n=49 v=109
376320 On ch=6 n=52 v=109
376320 On ch=6 n=57 v=109
376320 On ch=6 n=69 v=109
376340 Off ch=6 n=69 v=64
376340 On ch=6 n=64 v=109
376340 On ch=6 n=61 v=109
379900 Off ch=6 n=49 v=64
379920 Off ch=6 n=52 v=64
379940 Off ch=6 n=57 v=64
380140 Off ch=6 n=61 v=64
380160 Off ch=6 n=64 v=64
382080 Par ch=6 c=68 v=0
382080 Par ch=6 c=67 v=0
382080 Par ch=6 c=66 v=0
382080 Par ch=6 c=65 v=0
382080 Par ch=6 c=10 v=64
382080 Par ch=6 c=8 v=0
382080 Par ch=6 c=4 v=0
382080 PoPr ch=6 n=0 v=0
382080 Pb ch=6 v=8192
382080 ChPr ch=6 v=0
382080 Par ch=6 c=1 v=0
382092 Par ch=6 c=2 v=0
382105 Par ch=6 c=7 v=100
382117 Par ch=6 c=11 v=100
382130 Par ch=6 c=64 v=0
382142 Par ch=6 c=91 v=40
382155 Par ch=6 c=93 v=40
382560 Par ch=6 c=99 v=1
382590 Par ch=6 c=98 v=8
382620 Par ch=6 c=6 v=64
382685 Par ch=6 c=99 v=1
382715 Par ch=6 c=98 v=9
382745 Par ch=6 c=6 v=64
382910 Par ch=6 c=99 v=1
382940 Par ch=6 c=98 v=10
382970 Par ch=6 c=6 v=64
383035 Par ch=6 c=99 v=1
383065 Par ch=6 c=98 v=32
383095 Par ch=6 c=6 v=64
383160 Par ch=6 c=99 v=1
383190 Par ch=6 c=98 v=33
383220 Par ch=6 c=6 v=64
383285 Par ch=6 c=99 v=1
383315 Par ch=6 c=98 v=99
383345 Par ch=6 c=6 v=64
383410 Par ch=6 c=99 v=1
383435 Par ch=6 c=99 v=1
383440 Par ch=6 c=98 v=100
383465 Par ch=6 c=98 v=102
383470 Par ch=6 c=6 v=64
383495 Par ch=6 c=6 v=64
383560 Par ch=6 c=101 v=0
383590 Par ch=6 c=100 v=0
383620 Par ch=6 c=6 v=2
383685 Par ch=6 c=0 v=0
383686 Par ch=6 c=32 v=0
383715 Par ch=6 c=121 v=0
383715 Meta TrkEnd
TrkEnd
MTrk
0 Meta TrkName "Lead 2"
0 Meta 0x21 00
0 Meta 0x20 06
0 Par ch=7 c=7 v=100
0 Par ch=7 c=10 v=44
0 PrCh ch=7 p=7
0 Par ch=7 c=121 v=0
0 Pb ch=7 v=8072
0 Par ch=7 c=91 v=40
0 Par ch=7 c=93 v=40
0 Par ch=7 c=4 v=0
0 Par ch=7 c=8 v=0
0 Par ch=7 c=64 v=0
0 Par ch=7 c=65 v=0
0 Par ch=7 c=66 v=0
0 Par ch=7 c=67 v=0
0 Par ch=7 c=68 v=0
0 Par ch=7 c=2 v=127
1 Par ch=7 c=11 v=127
1 Par ch=7 c=1 v=0
80 Par ch=7 c=101 v=0
120 Par ch=7 c=100 v=0
360 Par ch=7 c=6 v=12
460 Par ch=7 c=91 v=70
540 Par ch=7 c=93 v=82
540 Par ch=7 c=93 v=84
540 Par ch=7 c=93 v=81
1440 Par ch=7 c=0 v=0
9360 On ch=7 n=69 v=109
9600 Off ch=7 n=69 v=64
9600 On ch=7 n=72 v=109
9840 Off ch=7 n=72 v=64
9840 On ch=7 n=69 v=109
10080 Off ch=7 n=69 v=64
10080 On ch=7 n=72 v=109
10320 Off ch=7 n=72 v=64
10320 On ch=7 n=69 v=109
10560 Off ch=7 n=69 v=64
10560 On ch=7 n=72 v=109
10800 Off ch=7 n=72 v=64
10800 On ch=7 n=71 v=109
11280 Off ch=7 n=71 v=64
11280 On ch=7 n=69 v=109
12480 Off ch=7 n=69 v=64
13200 On ch=7 n=69 v=109
13440 Off ch=7 n=69 v=64
13440 On ch=7 n=72 v=109
13680 Off ch=7 n=72 v=64
13680 On ch=7 n=69 v=109
13920 Off ch=7 n=69 v=64
13920 On ch=7 n=72 v=109
14160 Off ch=7 n=72 v=64
14160 On ch=7 n=69 v=109
14400 Off ch=7 n=69 v=64
14400 On ch=7 n=72 v=109
14640 Off ch=7 n=72 v=64
14640 On ch=7 n=71 v=109
15120 Off ch=7 n=71 v=64
15120 On ch=7 n=69 v=109
16320 Off ch=7 n=69 v=64
17280 On ch=7 n=72 v=109
17520 Off ch=7 n=72 v=64
17520 On ch=7 n=69 v=109
17760 Off ch=7 n=69 v=64
17760 On ch=7 n=72 v=109
18000 Off ch=7 n=72 v=64
18000 On ch=7 n=69 v=109
18240 Off ch=7 n=69 v=64
18240 On ch=7 n=72 v=109
18720 Off ch=7 n=72 v=64
18720 On ch=7 n=67 v=109
18960 Off ch=7 n=67 v=64
18960 On ch=7 n=69 v=109
20160 Off ch=7 n=69 v=64
20640 On ch=7 n=72 v=109
20880 Off ch=7 n=72 v=64
20880 On ch=7 n=69 v=109
21120 Off ch=7 n=69 v=64
21120 On ch=7 n=72 v=109
21360 Off ch=7 n=72 v=64
21360 On ch=7 n=69 v=109
21600 Off ch=7 n=69 v=64
21600 On ch=7 n=72 v=109
21840 Off ch=7 n=72 v=64
21840 On ch=7 n=69 v=109
22080 Off ch=7 n=69 v=64
22080 On ch=7 n=72 v=109
22320 Off ch=7 n=72 v=64
22320 On ch=7 n=71 v=109
22800 Off ch=7 n=71 v=64
22800 On ch=7 n=69 v=109
24000 Off ch=7 n=69 v=64
24960 On ch=7 n=67 v=109
25200 Off ch=7 n=67 v=64
25200 On ch=7 n=67 v=109
25440 Off ch=7 n=67 v=64
25440 On ch=7 n=67 v=109
25680 Off ch=7 n=67 v=64
25680 On ch=7 n=67 v=109
25920 Off ch=7 n=67 v=64
25920 On ch=7 n=66 v=109
26160 Off ch=7 n=66 v=64
26160 On ch=7 n=65 v=109
26640 Off ch=7 n=65 v=64
26640 On ch=7 n=62 v=109
27840 Off ch=7 n=62 v=64
28800 On ch=7 n=67 v=109
29040 Off ch=7 n=67 v=64
29040 On ch=7 n=67 v=109
29280 Off ch=7 n=67 v=64
29280 On ch=7 n=67 v=109
29520 Off ch=7 n=67 v=64
29520 On ch=7 n=67 v=109
29760 Off ch=7 n=67 v=64
29760 On ch=7 n=66 v=109
30000 Off ch=7 n=66 v=64
30000 On ch=7 n=65 v=109
30480 Off ch=7 n=65 v=64
30480 On ch=7 n=62 v=109
31680 Off ch=7 n=62 v=64
32640 On ch=7 n=67 v=109
32880 Off ch=7 n=67 v=64
32880 On ch=7 n=67 v=109
33120 Off ch=7 n=67 v=64
33120 On ch=7 n=67 v=109
33360 Off ch=7 n=67 v=64
33360 On ch=7 n=67 v=109
33600 Off ch=7 n=67 v=64
33600 On ch=7 n=66 v=109
33840 Off ch=7 n=66 v=64
33840 On ch=7 n=65 v=109
34560 Off ch=7 n=65 v=64
35040 On ch=7 n=64 v=109
36480 Off ch=7 n=64 v=64
37920 Par ch=7 c=1 v=45
38160 On ch=7 n=69 v=109
38400 Off ch=7 n=69 v=64
38400 On ch=7 n=72 v=109
38640 Off ch=7 n=72 v=64
38640 On ch=7 n=69 v=109
38880 Off ch=7 n=69 v=64
38880 On ch=7 n=72 v=109
39120 Off ch=7 n=72 v=64
39120 On ch=7 n=69 v=109
39360 Off ch=7 n=69 v=64
39360 On ch=7 n=72 v=109
39600 Off ch=7 n=72 v=64
39600 On ch=7 n=71 v=109
40080 Off ch=7 n=71 v=64
40080 On ch=7 n=69 v=109
41280 Off ch=7 n=69 v=64
42000 On ch=7 n=69 v=109
42240 Off ch=7 n=69 v=64
42240 On ch=7 n=72 v=109
42480 Off ch=7 n=72 v=64
42480 On ch=7 n=69 v=109
42720 Off ch=7 n=69 v=64
42720 On ch=7 n=72 v=109
42960 Off ch=7 n=72 v=64
42960 On ch=7 n=69 v=109
43200 Off ch=7 n=69 v=64
43200 On ch=7 n=72 v=109
43440 Off ch=7 n=72 v=64
43440 On ch=7 n=71 v=109
43920 Off ch=7 n=71 v=64
43920 On ch=7 n=69 v=109
45120 Off ch=7 n=69 v=64
46080 On ch=7 n=72 v=109
46320 Off ch=7 n=72 v=64
46320 On ch=7 n=69 v=109
46560 Off ch=7 n=69 v=64
46560 On ch=7 n=72 v=109
46800 Off ch=7 n=72 v=64
46800 On ch=7 n=69 v=109
47040 Off ch=7 n=69 v=64
47040 On ch=7 n=72 v=109
47520 Off ch=7 n=72 v=64
47520 On ch=7 n=67 v=109
47760 Off ch=7 n=67 v=64
47760 On ch=7 n=69 v=109
48960 Off ch=7 n=69 v=64
49440 On ch=7 n=72 v=109
49680 Off ch=7 n=72 v=64
49680 On ch=7 n=69 v=109
49920 Off ch=7 n=69 v=64
49920 On ch=7 n=72 v=109
50160 Off ch=7 n=72 v=64
50160 On ch=7 n=69 v=109
50400 Off ch=7 n=69 v=64
50400 On ch=7 n=72 v=109
50640 Off ch=7 n=72 v=64
50640 On ch=7 n=69 v=109
50880 Off ch=7 n=69 v=64
50880 On ch=7 n=72 v=109
51120 Off ch=7 n=72 v=64
51120 On ch=7 n=71 v=109
51600 Off ch=7 n=71 v=64
51600 On ch=7 n=69 v=109
52800 Off ch=7 n=69 v=64
53760 On ch=7 n=67 v=109
54000 Off ch=7 n=67 v=64
54000 On ch=7 n=67 v=109
54240 Off ch=7 n=67 v=64
54240 On ch=7 n=67 v=109
54480 Off ch=7 n=67 v=64
54480 On ch=7 n=67 v=109
54720 Off ch=7 n=67 v=64
54720 On ch=7 n=66 v=109
54960 Off ch=7 n=66 v=64
54960 On ch=7 n=65 v=109
55440 Off ch=7 n=65 v=64
55440 On ch=7 n=62 v=109
56640 Off ch=7 n=62 v=64
57600 On ch=7 n=67 v=109
57840 Off ch=7 n=67 v=64
57840 On ch=7 n=67 v=109
58080 Off ch=7 n=67 v=64
58080 On ch=7 n=67 v=109
58320 Off ch=7 n=67 v=64
58320 On ch=7 n=67 v=109
58560 Off ch=7 n=67 v=64
58560 On ch=7 n=66 v=109
58800 Off ch=7 n=66 v=64
58800 On ch=7 n=65 v=109
59280 Off ch=7 n=65 v=64
59280 On ch=7 n=62 v=109
60480 Off ch=7 n=62 v=64
61440 On ch=7 n=67 v=109
61680 Off ch=7 n=67 v=64
61680 On ch=7 n=67 v=109
61920 Off ch=7 n=67 v=64
61920 On ch=7 n=67 v=109
62160 Off ch=7 n=67 v=64
62160 On ch=7 n=67 v=109
62400 Off ch=7 n=67 v=64
62400 On ch=7 n=66 v=109
62640 Off ch=7 n=66 v=64
62640 On ch=7 n=65 v=109
63360 Off ch=7 n=65 v=64
74880 Par ch=7 c=10 v=47
75240 Par ch=7 c=2 v=127
75720 Par ch=7 c=1 v=15
75750 Par ch=7 c=10 v=46
76320 PrCh ch=7 p=7
76590 Par ch=7 c=10 v=45
76800 On ch=7 n=69 v=109
76800 On ch=7 n=64 v=109
77430 Par ch=7 c=10 v=44
78270 Par ch=7 c=10 v=43
78690 Off ch=7 n=69 v=64
78690 On ch=7 n=69 v=109
78720 Off ch=7 n=64 v=64
78935 On ch=7 n=72 v=109
79040 Off ch=7 n=69 v=64
79110 Par ch=7 c=10 v=42
79175 Off ch=7 n=72 v=64
79192 On ch=7 n=76 v=109
79410 On ch=7 n=72 v=109
79432 Off ch=7 n=76 v=64
79650 Off ch=7 n=72 v=64
79715 On ch=7 n=71 v=109
79920 On ch=7 n=74 v=109
79950 Par ch=7 c=10 v=41
79955 Off ch=7 n=71 v=64
80135 On ch=7 n=78 v=109
80160 Off ch=7 n=74 v=64
80375 Off ch=7 n=78 v=64
80405 On ch=7 n=74 v=109
80640 On ch=7 n=69 v=109
80645 Off ch=7 n=74 v=64
80790 Par ch=7 c=10 v=40
80847 On ch=7 n=72 v=109
80880 Off ch=7 n=69 v=64
81105 On ch=7 n=76 v=109
81160 Off ch=7 n=72 v=64
81330 On ch=7 n=72 v=109
81345 Off ch=7 n=76 v=64
81570 Off ch=7 n=72 v=64
81587 On ch=7 n=71 v=109
81630 Par ch=7 c=10 v=39
81795 On ch=7 n=74 v=109
82045 On ch=7 n=78 v=109
82117 Off ch=7 n=74 v=64
82177 Off ch=7 n=71 v=64
82345 On ch=7 n=74 v=109
82405 Off ch=7 n=78 v=64
82470 Par ch=7 c=10 v=38
82557 On ch=7 n=69 v=109
82585 Off ch=7 n=74 v=64
82672 Off ch=7 n=69 v=64
82767 On ch=7 n=69 v=109
83017 On ch=7 n=72 v=109
83057 Off ch=7 n=69 v=64
83310 Par ch=7 c=10 v=37
83507 Off ch=7 n=72 v=64
83565 On ch=7 n=69 v=109
83645 Off ch=7 n=69 v=64
83745 On ch=7 n=69 v=109
83985 Off ch=7 n=69 v=64
84010 On ch=7 n=67 v=109
84180 Par ch=7 c=10 v=36
84387 Off ch=7 n=67 v=64
84470 On ch=7 n=69 v=109
84595 Off ch=7 n=69 v=64
84705 On ch=7 n=69 v=109
84905 Off ch=7 n=69 v=64
84917 On ch=7 n=72 v=109
85020 Par ch=7 c=10 v=35
85152 On ch=7 n=74 v=109
85202 Off ch=7 n=72 v=64
85412 On ch=7 n=76 v=109
85420 On ch=7 n=75 v=109
85432 Off ch=7 n=74 v=64
85482 Off ch=7 n=75 v=64
85630 On ch=7 n=74 v=109
85710 Off ch=7 n=76 v=64
85860 Par ch=7 c=10 v=34
85892 On ch=7 n=72 v=109
85925 Off ch=7 n=74 v=64
86142 On ch=7 n=74 v=109
86170 Off ch=7 n=72 v=64
86360 On ch=7 n=72 v=109
86432 Off ch=7 n=74 v=64
86610 On ch=7 n=69 v=109
86660 Off ch=7 n=72 v=64
86700 Par ch=7 c=10 v=33
86850 On ch=7 n=67 v=109
87032 Off ch=7 n=69 v=64
87047 Off ch=7 n=67 v=64
87075 On ch=7 n=69 v=109
87352 On ch=7 n=67 v=109
87387 Off ch=7 n=69 v=64
87540 Par ch=7 c=10 v=32
87600 On ch=7 n=69 v=109
87602 Off ch=7 n=67 v=64
87820 On ch=7 n=67 v=109
87840 Off ch=7 n=69 v=64
88062 On ch=7 n=69 v=109
88092 Off ch=7 n=67 v=64
88322 On ch=7 n=72 v=109
88350 Off ch=7 n=69 v=64
88380 Par ch=7 c=10 v=31
88757 On ch=7 n=74 v=109
88795 Off ch=7 n=72 v=64
89220 Par ch=7 c=10 v=30
89262 On ch=7 n=76 v=109
89297 Off ch=7 n=74 v=64
89775 On ch=7 n=74 v=109
89805 Off ch=7 n=76 v=64
90005 On ch=7 n=76 v=109
90025 Off ch=7 n=74 v=64
90060 Par ch=7 c=10 v=29
90230 On ch=7 n=79 v=109
90272 Off ch=7 n=76 v=64
90480 On ch=7 n=81 v=109
90515 Off ch=7 n=79 v=64
90900 Par ch=7 c=10 v=28
91175 On ch=7 n=84 v=109
91195 Off ch=7 n=81 v=64
91405 On ch=7 n=81 v=109
91452 Off ch=7 n=84 v=64
91740 Par ch=7 c=10 v=27
92152 On ch=7 n=76 v=109
92182 Off ch=7 n=81 v=64
92365 On ch=7 n=79 v=109
92425 Off ch=7 n=76 v=64
92607 On ch=7 n=81 v=109
92610 Par ch=7 c=10 v=26
92630 Off ch=7 n=79 v=64
92835 On ch=7 n=76 v=109
92882 Off ch=7 n=81 v=64
93102 On ch=7 n=79 v=109
93150 Off ch=7 n=76 v=64
93335 On ch=7 n=81 v=109
93360 Off ch=7 n=79 v=64
93450 Par ch=7 c=10 v=25
93565 On ch=7 n=79 v=109
93615 Off ch=7 n=81 v=64
93810 On ch=7 n=76 v=109
93847 Off ch=7 n=79 v=64
94032 On ch=7 n=79 v=109
94075 Off ch=7 n=76 v=64
94290 Par ch=7 c=10 v=24
94300 On ch=7 n=76 v=109
94332 Off ch=7 n=79 v=64
94540 Off ch=7 n=76 v=64
94560 On ch=7 n=72 v=109
95010 Off ch=7 n=72 v=64
95040 On ch=7 n=71 v=109
95130 Par ch=7 c=10 v=23
95520 Off ch=7 n=71 v=64
95520 On ch=7 n=72 v=109
95682 On ch=7 n=74 v=109
95925 Off ch=7 n=72 v=64
95925 On ch=7 n=72 v=109
95970 Par ch=7 c=10 v=22
95982 Off ch=7 n=74 v=64
96212 On ch=7 n=69 v=109
96245 Off ch=7 n=72 v=64
96810 Par ch=7 c=10 v=21
96902 On ch=7 n=72 v=109
96957 Off ch=7 n=69 v=64
97142 Off ch=7 n=72 v=64
97170 On ch=7 n=74 v=109
97370 On ch=7 n=76 v=109
97402 Off ch=7 n=74 v=64
97650 Par ch=7 c=10 v=20
97657 On ch=7 n=74 v=109
97700 Off ch=7 n=76 v=64
97920 Off ch=7 n=74 v=64
97927 On ch=7 n=69 v=109
98040 Off ch=7 n=69 v=64
98145 On ch=7 n=69 v=109
98250 Par ch=7 c=10 v=17
98275 Off ch=7 n=69 v=64
98387 On ch=7 n=67 v=109
98492 Off ch=7 n=67 v=64
98620 On ch=7 n=69 v=109
98765 Off ch=7 n=69 v=64
98872 On ch=7 n=67 v=109
99047 Off ch=7 n=67 v=64
99090 Par ch=7 c=10 v=16
99112 On ch=7 n=64 v=109
99712 Off ch=7 n=64 v=64
99775 On ch=7 n=64 v=109
99895 On ch=7 n=67 v=109
99945 Off ch=7 n=64 v=64
99960 Par ch=7 c=10 v=15
100045 On ch=7 n=69 v=109
100077 Off ch=7 n=67 v=64
100770 On ch=7 n=72 v=109
100787 Off ch=7 n=69 v=64
100800 Par ch=7 c=10 v=14
101000 On ch=7 n=69 v=109
101025 Off ch=7 n=72 v=64
101230 On ch=7 n=74 v=109
101262 Off ch=7 n=69 v=64
101490 On ch=7 n=69 v=109
101502 Off ch=7 n=74 v=64
101640 Par ch=7 c=10 v=13
101730 On ch=7 n=76 v=109
101765 Off ch=7 n=69 v=64
101972 On ch=7 n=69 v=109
101995 Off ch=7 n=76 v=64
102230 On ch=7 n=74 v=109
102270 Off ch=7 n=69 v=64
102480 Par ch=7 c=10 v=12
102492 On ch=7 n=69 v=109
102515 Off ch=7 n=74 v=64
102730 On ch=7 n=72 v=109
102762 Off ch=7 n=69 v=64
102957 On ch=7 n=69 v=109
102977 Off ch=7 n=72 v=64
103202 On ch=7 n=74 v=109
103232 Off ch=7 n=69 v=64
103320 Par ch=7 c=10 v=11
103347 On ch=7 n=69 v=109
103385 Off ch=7 n=74 v=64
103667 On ch=7 n=76 v=109
103707 Off ch=7 n=69 v=64
103902 On ch=7 n=69 v=109
103927 Off ch=7 n=76 v=64
104150 On ch=7 n=74 v=109
104160 Par ch=7 c=10 v=10
104190 Off ch=7 n=69 v=64
104385 On ch=7 n=69 v=109
104407 Off ch=7 n=74 v=64
104617 On ch=7 n=72 v=109
104650 Off ch=7 n=69 v=64
104857 On ch=7 n=69 v=109
104885 Off ch=7 n=72 v=64
105000 Par ch=7 c=10 v=9
105095 Off ch=7 n=69 v=64
105150 On ch=7 n=72 v=109
105360 On ch=7 n=69 v=109
105390 Off ch=7 n=72 v=64
105592 Off ch=7 n=69 v=64
105592 On ch=7 n=69 v=109
105602 On ch=7 n=72 v=109
105702 Off ch=7 n=69 v=64
105727 Off ch=7 n=72 v=64
105835 On ch=7 n=69 v=109
105835 On ch=7 n=72 v=109
105840 Par ch=7 c=10 v=8
105922 Off ch=7 n=72 v=64
105922 Off ch=7 n=69 v=64
106095 On ch=7 n=71 v=109
106102 On ch=7 n=74 v=109
106445 Off ch=7 n=74 v=64
106445 Off ch=7 n=71 v=64
106560 On ch=7 n=71 v=109
106567 On ch=7 n=74 v=109
106655 Off ch=7 n=71 v=64
106660 Off ch=7 n=74 v=64
106680 Par ch=7 c=10 v=7
106790 On ch=7 n=71 v=109
106792 On ch=7 n=74 v=109
106877 Off ch=7 n=74 v=64
106882 Off ch=7 n=71 v=64
107045 On ch=7 n=72 v=109
107055 On ch=7 n=69 v=109
107372 Off ch=7 n=69 v=64
107372 Off ch=7 n=72 v=64
107530 On ch=7 n=69 v=109
107532 On ch=7 n=72 v=109
107627 Off ch=7 n=72 v=64
107637 Off ch=7 n=69 v=64
107765 On ch=7 n=69 v=109
107765 On ch=7 n=72 v=109
107850 Off ch=7 n=72 v=64
107850 Off ch=7 n=69 v=64
108005 On ch=7 n=74 v=109
108010 On ch=7 n=71 v=109
108072 Off ch=7 n=71 v=64
108080 Off ch=7 n=74 v=64
108220 On ch=7 n=71 v=109
108220 On ch=7 n=74 v=109
108297 Off ch=7 n=74 v=64
108297 Off ch=7 n=71 v=64
108480 On ch=7 n=69 v=109
108482 On ch=7 n=72 v=109
108565 Off ch=7 n=72 v=64
108565 Off ch=7 n=69 v=64
108712 On ch=7 n=72 v=109
108720 On ch=7 n=69 v=109
108782 Off ch=7 n=69 v=64
108787 Off ch=7 n=72 v=64
108985 On ch=7 n=71 v=109
108987 On ch=7 n=74 v=109
109197 Off ch=7 n=74 v=64
109225 Off ch=7 n=71 v=64
109457 On ch=7 n=69 v=109
109460 On ch=7 n=72 v=109
109545 Off ch=7 n=69 v=64
109557 Off ch=7 n=72 v=64
109692 On ch=7 n=72 v=109
109700 On ch=7 n=69 v=109
109762 Off ch=7 n=69 v=64
109772 Off ch=7 n=72 v=64
109952 On ch=7 n=71 v=109
109952 On ch=7 n=74 v=109
110250 Off ch=7 n=74 v=64
110250 Off ch=7 n=71 v=64
110387 On ch=7 n=72 v=109
110395 On ch=7 n=69 v=109
110465 Off ch=7 n=72 v=64
110475 Off ch=7 n=69 v=64
110602 On ch=7 n=69 v=109
110612 On ch=7 n=72 v=109
110672 Off ch=7 n=72 v=64
110677 Off ch=7 n=69 v=64
110865 On ch=7 n=71 v=109
111117 On ch=7 n=74 v=109
111160 Off ch=7 n=71 v=64
111350 On ch=7 n=76 v=109
111372 Off ch=7 n=74 v=64
111577 On ch=7 n=74 v=109
111617 Off ch=7 n=76 v=64
111827 On ch=7 n=72 v=109
111862 Off ch=7 n=74 v=64
112072 Off ch=7 n=72 v=64
112072 On ch=7 n=74 v=109
112310 On ch=7 n=72 v=109
112355 Off ch=7 n=74 v=64
112552 On ch=7 n=69 v=109
112572 Off ch=7 n=72 v=64
112785 On ch=7 n=72 v=109
112790 Off ch=7 n=69 v=64
113030 On ch=7 n=69 v=109
113072 Off ch=7 n=72 v=64
113280 On ch=7 n=67 v=109
113312 Off ch=7 n=69 v=64
113492 Off ch=7 n=67 v=64
113495 On ch=7 n=69 v=109
113747 On ch=7 n=67 v=109
113790 Off ch=7 n=69 v=64
113992 On ch=7 n=64 v=109
114022 Off ch=7 n=67 v=64
114217 On ch=7 n=67 v=109
114245 Off ch=7 n=64 v=64
114460 On ch=7 n=69 v=109
114470 Off ch=7 n=67 v=64
114700 On ch=7 n=67 v=109
114742 Off ch=7 n=69 v=64
114947 On ch=7 n=64 v=109
114977 Off ch=7 n=67 v=64
115185 On ch=7 n=67 v=109
115197 Off ch=7 n=64 v=64
115437 On ch=7 n=64 v=109
115472 Off ch=7 n=67 v=64
115687 On ch=7 n=62 v=109
115722 Off ch=7 n=64 v=64
115902 On ch=7 n=64 v=109
115912 Off ch=7 n=62 v=64
116130 On ch=7 n=62 v=109
116182 Off ch=7 n=64 v=64
116392 On ch=7 n=60 v=109
116420 Off ch=7 n=62 v=64
116617 On ch=7 n=62 v=109
116630 Off ch=7 n=60 v=64
116855 On ch=7 n=60 v=109
116895 Off ch=7 n=62 v=64
117127 On ch=7 n=57 v=109
117172 Off ch=7 n=60 v=64
117622 On ch=7 n=59 v=109
117645 Off ch=7 n=57 v=64
117827 On ch=7 n=60 v=109
117850 Off ch=7 n=59 v=64
118060 On ch=7 n=59 v=109
118097 Off ch=7 n=60 v=64
118290 On ch=7 n=57 v=109
118362 Off ch=7 n=59 v=64
119027 On ch=7 n=59 v=109
119067 Off ch=7 n=57 v=64
119217 On ch=7 n=60 v=109
119242 Off ch=7 n=59 v=64
119512 On ch=7 n=62 v=109
119540 Off ch=7 n=60 v=64
119725 On ch=7 n=64 v=109
119740 Off ch=7 n=62 v=64
119972 On ch=7 n=62 v=109
119987 Off ch=7 n=64 v=64
120215 On ch=7 n=64 v=109
120242 Off ch=7 n=62 v=64
120425 On ch=7 n=65 v=109
120455 Off ch=7 n=64 v=64
120657 On ch=7 n=67 v=109
120700 Off ch=7 n=65 v=64
120935 On ch=7 n=69 v=109
121087 Off ch=7 n=67 v=64
121920 On ch=7 n=72 v=109
121952 Off ch=7 n=69 v=64
122142 On ch=7 n=69 v=109
122172 Off ch=7 n=72 v=64
122387 On ch=7 n=72 v=109
122407 Off ch=7 n=69 v=64
122627 On ch=7 n=74 v=109
122642 Off ch=7 n=72 v=64
122867 Off ch=7 n=74 v=64
122880 On ch=7 n=76 v=109
123100 On ch=7 n=74 v=109
123147 Off ch=7 n=76 v=64
123330 On ch=7 n=72 v=109
123375 Off ch=7 n=74 v=64
123547 On ch=7 n=69 v=109
123562 Off ch=7 n=72 v=64
123822 On ch=7 n=72 v=109
123847 Off ch=7 n=69 v=64
124055 On ch=7 n=69 v=109
124090 Off ch=7 n=72 v=64
124800 Off ch=7 n=69 v=64
124800 On ch=7 n=76 v=109
124925 On ch=7 n=75 v=109
124960 Off ch=7 n=76 v=64
125057 On ch=7 n=74 v=109
125085 Off ch=7 n=75 v=64
125250 On ch=7 n=72 v=109
125282 Off ch=7 n=74 v=64
125450 Off ch=7 n=72 v=64
125472 On ch=7 n=74 v=109
125717 On ch=7 n=72 v=109
125775 Off ch=7 n=74 v=64
125960 On ch=7 n=69 v=109
125982 Off ch=7 n=72 v=64
126207 On ch=7 n=72 v=109
126235 Off ch=7 n=69 v=64
126442 On ch=7 n=69 v=109
126470 Off ch=7 n=72 v=64
126682 On ch=7 n=67 v=109
126712 Off ch=7 n=69 v=64
126917 On ch=7 n=69 v=109
126960 Off ch=7 n=67 v=64
127572 Off ch=7 n=69 v=64
127760 On ch=7 n=69 v=109
127760 On ch=7 n=72 v=109
127760 On ch=7 n=76 v=109
127760 On ch=7 n=81 v=109
127840 Off ch=7 n=81 v=64
127840 Off ch=7 n=76 v=64
127840 Off ch=7 n=72 v=64
127840 Off ch=7 n=69 v=64
128240 On ch=7 n=71 v=109
128240 On ch=7 n=74 v=109
128240 On ch=7 n=78 v=109
128320 Off ch=7 n=78 v=64
128320 Off ch=7 n=74 v=64
128320 Off ch=7 n=71 v=64
128630 On ch=7 n=69 v=109
128735 Off ch=7 n=69 v=64
128860 On ch=7 n=69 v=109
129107 On ch=7 n=72 v=109
129212 Off ch=7 n=69 v=64
129612 On ch=7 n=69 v=109
129637 Off ch=7 n=72 v=64
129722 Off ch=7 n=69 v=64
129837 On ch=7 n=69 v=109
130085 On ch=7 n=74 v=109
130422 Off ch=7 n=69 v=64
130567 On ch=7 n=69 v=109
130575 Off ch=7 n=74 v=64
130665 Off ch=7 n=69 v=64
130800 On ch=7 n=69 v=109
130915 Off ch=7 n=69 v=64
131045 On ch=7 n=76 v=109
131132 On ch=7 n=74 v=109
131177 Off ch=7 n=76 v=64
131212 On ch=7 n=72 v=109
131237 Off ch=7 n=74 v=64
131482 On ch=7 n=74 v=109
131507 Off ch=7 n=72 v=64
131690 On ch=7 n=72 v=109
131735 Off ch=7 n=74 v=64
131992 On ch=7 n=69 v=109
132002 Off ch=7 n=72 v=64
132312 Off ch=7 n=69 v=64
132480 On ch=7 n=81 v=109
132500 On ch=7 n=75 v=109
132502 On ch=7 n=76 v=109
132570 Off ch=7 n=81 v=64
132620 Off ch=7 n=75 v=64
132732 On ch=7 n=74 v=109
132760 Off ch=7 n=76 v=64
132842 On ch=7 n=76 v=109
132852 Off ch=7 n=74 v=64
132902 On ch=7 n=74 v=109
133082 Off ch=7 n=76 v=64
133180 On ch=7 n=76 v=109
133192 Off ch=7 n=74 v=64
133460 On ch=7 n=74 v=109
133512 Off ch=7 n=76 v=64
133820 On ch=7 n=69 v=109
133832 Off ch=7 n=74 v=64
134140 On ch=7 n=74 v=109
134180 Off ch=7 n=69 v=64
134420 On ch=7 n=76 v=109
134520 Off ch=7 n=74 v=64
134632 On ch=7 n=74 v=109
134680 Off ch=7 n=76 v=64
134722 Off ch=7 n=74 v=64
134750 On ch=7 n=76 v=109
134810 On ch=7 n=74 v=109
134852 Off ch=7 n=76 v=64
135140 On ch=7 n=69 v=109
135152 Off ch=7 n=74 v=64
135372 On ch=7 n=74 v=109
135432 Off ch=7 n=69 v=64
135740 On ch=7 n=76 v=109
135772 Off ch=7 n=74 v=64
136092 On ch=7 n=74 v=109
136132 Off ch=7 n=76 v=64
136310 Off ch=7 n=74 v=64
136332 On ch=7 n=78 v=109
136342 On ch=7 n=74 v=109
136622 Off ch=7 n=74 v=64
136630 Off ch=7 n=78 v=64
136662 On ch=7 n=76 v=109
136690 On ch=7 n=79 v=109
136902 Off ch=7 n=76 v=64
136910 Off ch=7 n=79 v=64
136990 On ch=7 n=81 v=109
137010 On ch=7 n=78 v=109
137222 Off ch=7 n=81 v=64
137242 Off ch=7 n=78 v=64
137332 On ch=7 n=83 v=109
137352 On ch=7 n=79 v=109
137532 Off ch=7 n=79 v=64
137552 Off ch=7 n=83 v=64
137652 On ch=7 n=81 v=109
137660 On ch=7 n=84 v=109
137882 Off ch=7 n=84 v=64
137902 Off ch=7 n=81 v=64
137992 On ch=7 n=83 v=109
138010 On ch=7 n=86 v=109
138132 Off ch=7 n=83 v=64
138162 Off ch=7 n=86 v=64
138290 On ch=7 n=74 v=109
138290 On ch=7 n=78 v=109
138542 Off ch=7 n=78 v=64
138602 Off ch=7 n=74 v=64
138622 On ch=7 n=76 v=109
138650 On ch=7 n=79 v=109
138862 Off ch=7 n=79 v=64
138902 Off ch=7 n=76 v=64
138950 On ch=7 n=78 v=109
138950 On ch=7 n=81 v=109
139150 Off ch=7 n=81 v=64
139182 Off ch=7 n=78 v=64
139232 On ch=7 n=79 v=109
139232 On ch=7 n=83 v=109
139492 Off ch=7 n=79 v=64
139522 Off ch=7 n=83 v=64
139562 On ch=7 n=81 v=109
139582 On ch=7 n=78 v=109
139830 Off ch=7 n=78 v=64
139832 Off ch=7 n=81 v=64
139892 On ch=7 n=79 v=109
139912 On ch=7 n=76 v=109
140092 Off ch=7 n=79 v=64
140112 Off ch=7 n=76 v=64
140200 On ch=7 n=74 v=109
140202 On ch=7 n=78 v=109
140492 Off ch=7 n=78 v=64
140522 Off ch=7 n=74 v=64
140542 On ch=7 n=76 v=109
140542 On ch=7 n=79 v=109
140782 Off ch=7 n=76 v=64
140812 Off ch=7 n=79 v=64
140850 On ch=7 n=81 v=109
140870 On ch=7 n=78 v=109
141050 Off ch=7 n=78 v=64
141070 Off ch=7 n=81 v=64
141140 On ch=7 n=83 v=109
141152 On ch=7 n=79 v=109
141350 Off ch=7 n=79 v=64
141350 Off ch=7 n=83 v=64
141492 On ch=7 n=81 v=109
141492 On ch=7 n=84 v=109
141712 Off ch=7 n=81 v=64
141740 Off ch=7 n=84 v=64
141812 On ch=7 n=83 v=109
141850 On ch=7 n=86 v=109
141992 Off ch=7 n=83 v=64
142022 Off ch=7 n=86 v=64
142142 On ch=7 n=74 v=109
142150 On ch=7 n=78 v=109
142442 Off ch=7 n=78 v=64
142442 Off ch=7 n=74 v=64
142462 On ch=7 n=79 v=109
142490 On ch=7 n=76 v=109
142702 Off ch=7 n=76 v=64
142710 Off ch=7 n=79 v=64
142770 On ch=7 n=78 v=109
142772 On ch=7 n=81 v=109
142950 Off ch=7 n=78 v=64
142972 Off ch=7 n=81 v=64
143060 On ch=7 n=79 v=109
143060 On ch=7 n=83 v=109
143260 Off ch=7 n=83 v=64
143260 Off ch=7 n=79 v=64
143392 On ch=7 n=81 v=109
143402 On ch=7 n=84 v=109
143612 Off ch=7 n=81 v=64
143622 Off ch=7 n=84 v=64
143742 On ch=7 n=83 v=109
143742 On ch=7 n=86 v=109
143902 Off ch=7 n=83 v=64
143930 Off ch=7 n=86 v=64
144050 On ch=7 n=74 v=109
144052 On ch=7 n=78 v=109
144332 Off ch=7 n=78 v=64
144350 Off ch=7 n=74 v=64
144372 On ch=7 n=79 v=109
144392 On ch=7 n=76 v=109
144612 Off ch=7 n=76 v=64
144612 Off ch=7 n=79 v=64
144680 On ch=7 n=81 v=109
144700 On ch=7 n=78 v=109
144900 Off ch=7 n=81 v=64
144902 Off ch=7 n=78 v=64
144980 On ch=7 n=78 v=109
144982 On ch=7 n=83 v=109
145172 Off ch=7 n=78 v=64
145202 Off ch=7 n=83 v=64
145302 On ch=7 n=81 v=109
145302 On ch=7 n=84 v=109
145542 Off ch=7 n=81 v=64
145550 Off ch=7 n=84 v=64
145630 On ch=7 n=83 v=109
145630 On ch=7 n=86 v=109
145810 Off ch=7 n=86 v=64
145810 Off ch=7 n=83 v=64
145940 On ch=7 n=74 v=109
145952 On ch=7 n=78 v=109
146252 Off ch=7 n=78 v=64
146260 On ch=7 n=79 v=109
146270 Off ch=7 n=74 v=64
146272 On ch=7 n=76 v=109
146552 Off ch=7 n=79 v=64
146580 Off ch=7 n=76 v=64
146590 On ch=7 n=78 v=109
146590 On ch=7 n=81 v=109
146762 Off ch=7 n=78 v=64
146790 Off ch=7 n=81 v=64
146852 On ch=7 n=79 v=109
146852 On ch=7 n=83 v=109
147072 Off ch=7 n=79 v=64
147100 Off ch=7 n=83 v=64
147222 On ch=7 n=81 v=109
147222 On ch=7 n=84 v=109
147462 Off ch=7 n=84 v=64
147462 Off ch=7 n=81 v=64
147570 On ch=7 n=83 v=109
147570 On ch=7 n=86 v=109
147722 Off ch=7 n=83 v=64
147750 Off ch=7 n=86 v=64
147860 On ch=7 n=74 v=109
147870 On ch=7 n=78 v=109
148172 Off ch=7 n=78 v=64
148190 Off ch=7 n=74 v=64
148210 On ch=7 n=79 v=109
148230 On ch=7 n=76 v=109
148492 Off ch=7 n=79 v=64
148510 On ch=7 n=78 v=109
148512 On ch=7 n=81 v=109
148570 Off ch=7 n=76 v=64
148710 Off ch=7 n=78 v=64
148740 Off ch=7 n=81 v=64
148792 On ch=7 n=79 v=109
148792 On ch=7 n=83 v=109
149032 Off ch=7 n=79 v=64
149060 Off ch=7 n=83 v=64
149162 On ch=7 n=81 v=109
149162 On ch=7 n=84 v=109
149372 Off ch=7 n=81 v=64
149390 Off ch=7 n=84 v=64
149462 On ch=7 n=83 v=109
149490 On ch=7 n=86 v=109
149642 Off ch=7 n=83 v=64
149650 Off ch=7 n=86 v=64
149790 On ch=7 n=74 v=109
149790 On ch=7 n=78 v=109
150062 Off ch=7 n=78 v=64
150100 Off ch=7 n=74 v=64
150112 On ch=7 n=79 v=109
150130 On ch=7 n=76 v=109
150342 Off ch=7 n=76 v=64
150350 Off ch=7 n=79 v=64
150430 On ch=7 n=78 v=109
150430 On ch=7 n=81 v=109
150630 Off ch=7 n=81 v=64
150632 Off ch=7 n=78 v=64
150740 On ch=7 n=79 v=109
150740 On ch=7 n=83 v=109
150952 Off ch=7 n=79 v=64
150980 Off ch=7 n=83 v=64
151090 On ch=7 n=81 v=109
151090 On ch=7 n=84 v=109
151330 Off ch=7 n=84 v=64
151330 Off ch=7 n=81 v=64
151402 On ch=7 n=83 v=109
151430 On ch=7 n=86 v=109
151602 Off ch=7 n=83 v=64
151630 Off ch=7 n=86 v=64
157200 Par ch=7 c=10 v=48
159120 On ch=7 n=57 v=127
159120 Par ch=7 c=2 v=0
159120 PrCh ch=7 p=84
159750 Off ch=7 n=57 v=64
159860 On ch=7 n=60 v=127
160065 Off ch=7 n=60 v=64
160140 On ch=7 n=64 v=127
160320 On ch=7 n=59 v=127
160345 Off ch=7 n=64 v=64
160530 Off ch=7 n=59 v=64
160620 On ch=7 n=62 v=127
160825 Off ch=7 n=62 v=64
160825 On ch=7 n=62 v=127
161035 Off ch=7 n=62 v=64
161060 On ch=7 n=66 v=127
161275 Off ch=7 n=66 v=64
161285 On ch=7 n=67 v=127
161735 Off ch=7 n=67 v=64
161760 On ch=7 n=60 v=127
161980 Off ch=7 n=60 v=64
162030 On ch=7 n=64 v=127
162255 Off ch=7 n=64 v=64
162265 On ch=7 n=69 v=127
162690 Off ch=7 n=69 v=64
162725 On ch=7 n=66 v=127
162955 Off ch=7 n=66 v=64
162960 On ch=7 n=62 v=127
163185 Off ch=7 n=62 v=64
163200 On ch=7 n=76 v=127
163430 Off ch=7 n=76 v=64
163470 On ch=7 n=72 v=127
163680 Off ch=7 n=72 v=64
163690 On ch=7 n=67 v=127
163910 Off ch=7 n=67 v=64
163950 On ch=7 n=69 v=127
164170 Off ch=7 n=69 v=64
164180 On ch=7 n=71 v=127
164375 Off ch=7 n=71 v=64
164430 On ch=7 n=78 v=127
164645 On ch=7 n=74 v=127
164665 Off ch=7 n=78 v=64
164750 Off ch=7 n=74 v=64
164790 On ch=7 n=71 v=127
164895 Off ch=7 n=71 v=64
164910 On ch=7 n=69 v=127
165580 Off ch=7 n=69 v=64
165620 On ch=7 n=67 v=127
165695 Off ch=7 n=67 v=64
165720 On ch=7 n=64 v=127
165835 Off ch=7 n=64 v=64
165850 On ch=7 n=69 v=127
166565 Off ch=7 n=69 v=64
166800 On ch=7 n=59 v=127
166915 Off ch=7 n=59 v=64
166930 On ch=7 n=62 v=127
167035 Off ch=7 n=62 v=64
167040 On ch=7 n=57 v=127
167130 Off ch=7 n=57 v=64
167190 On ch=7 n=60 v=127
167295 Off ch=7 n=60 v=64
167305 On ch=7 n=64 v=127
167395 Off ch=7 n=64 v=64
167430 On ch=7 n=60 v=127
167535 Off ch=7 n=60 v=64
167545 On ch=7 n=60 v=127
167750 Off ch=7 n=60 v=64
167765 On ch=7 n=64 v=127
168005 Off ch=7 n=64 v=64
168255 On ch=7 n=59 v=127
168355 Off ch=7 n=59 v=64
168390 On ch=7 n=62 v=127
168480 On ch=7 n=59 v=127
168495 Off ch=7 n=62 v=64
168585 Off ch=7 n=59 v=64
168605 On ch=7 n=62 v=127
168710 Off ch=7 n=62 v=64
168720 On ch=7 n=69 v=127
168825 Off ch=7 n=69 v=64
168870 On ch=7 n=66 v=127
168955 Off ch=7 n=66 v=64
168960 On ch=7 n=60 v=127
169415 Off ch=7 n=60 v=64
169445 On ch=7 n=69 v=127
169675 Off ch=7 n=69 v=64
169710 On ch=7 n=64 v=127
169935 Off ch=7 n=64 v=64
169945 On ch=7 n=59 v=127
170150 Off ch=7 n=59 v=64
170175 On ch=7 n=66 v=127
170605 Off ch=7 n=66 v=64
170640 On ch=7 n=69 v=127
170855 Off ch=7 n=69 v=64
170885 On ch=7 n=69 v=127
171380 Off ch=7 n=69 v=64
171865 On ch=7 n=66 v=127
172070 Off ch=7 n=66 v=64
172110 On ch=7 n=71 v=127
172325 Off ch=7 n=71 v=64
172330 On ch=7 n=69 v=127
172555 Off ch=7 n=69 v=64
172560 On ch=7 n=66 v=127
172780 Off ch=7 n=66 v=64
172820 On ch=7 n=69 v=127
173030 Off ch=7 n=69 v=64
173060 On ch=7 n=72 v=127
173280 On ch=7 n=67 v=127
173300 Off ch=7 n=72 v=64
173520 Off ch=7 n=67 v=64
173550 On ch=7 n=69 v=127
174255 Off ch=7 n=69 v=64
174510 On ch=7 n=66 v=127
174600 On ch=7 n=71 v=127
174615 Off ch=7 n=66 v=64
174705 Off ch=7 n=71 v=64
174740 On ch=7 n=67 v=127
174835 Off ch=7 n=67 v=64
174845 On ch=7 n=64 v=127
174950 Off ch=7 n=64 v=64
175020 On ch=7 n=67 v=127
175220 On ch=7 n=64 v=127
175225 Off ch=7 n=67 v=64
175315 Off ch=7 n=64 v=64
175330 On ch=7 n=60 v=127
175435 Off ch=7 n=60 v=64
175470 On ch=7 n=67 v=127
175565 Off ch=7 n=67 v=64
175565 On ch=7 n=64 v=127
175675 Off ch=7 n=64 v=64
175710 On ch=7 n=69 v=127
175905 Off ch=7 n=69 v=64
175940 On ch=7 n=62 v=127
176035 Off ch=7 n=62 v=64
176070 On ch=7 n=66 v=127
176160 On ch=7 n=69 v=127
176175 Off ch=7 n=66 v=64
176270 Off ch=7 n=69 v=64
176290 On ch=7 n=66 v=127
176395 Off ch=7 n=66 v=64
176400 On ch=7 n=69 v=127
176625 Off ch=7 n=69 v=64
176645 On ch=7 n=60 v=127
176745 Off ch=7 n=60 v=64
176770 On ch=7 n=64 v=127
176865 Off ch=7 n=64 v=64
176910 On ch=7 n=67 v=127
176985 Off ch=7 n=67 v=64
177030 On ch=7 n=69 v=127
177130 Off ch=7 n=69 v=64
177140 On ch=7 n=64 v=127
177235 Off ch=7 n=64 v=64
177250 On ch=7 n=60 v=127
177350 Off ch=7 n=60 v=64
177370 On ch=7 n=64 v=127
177475 Off ch=7 n=64 v=64
177510 On ch=7 n=60 v=127
177615 Off ch=7 n=60 v=64
177625 On ch=7 n=66 v=127
177715 Off ch=7 n=66 v=64
177730 On ch=7 n=69 v=127
177835 Off ch=7 n=69 v=64
177860 On ch=7 n=66 v=127
177955 Off ch=7 n=66 v=64
177965 On ch=7 n=62 v=127
178070 Off ch=7 n=62 v=64
178085 On ch=7 n=59 v=127
178190 Off ch=7 n=59 v=64
178210 On ch=7 n=62 v=127
178310 Off ch=7 n=62 v=64
178330 On ch=7 n=66 v=127
178415 Off ch=7 n=66 v=64
178440 On ch=7 n=69 v=127
178550 Off ch=7 n=69 v=64
178565 On ch=7 n=69 v=127
178795 Off ch=7 n=69 v=64
178825 On ch=7 n=67 v=127
179035 Off ch=7 n=67 v=64
179050 On ch=7 n=72 v=127
179270 Off ch=7 n=72 v=64
179280 On ch=7 n=69 v=127
179965 Off ch=7 n=69 v=64
180000 On ch=7 n=71 v=127
180235 Off ch=7 n=71 v=64
180270 On ch=7 n=74 v=127
180480 Off ch=7 n=74 v=64
180480 On ch=7 n=67 v=127
181175 Off ch=7 n=67 v=64
181230 On ch=7 n=69 v=127
181945 Off ch=7 n=69 v=64
182420 On ch=7 n=69 v=127
182630 Off ch=7 n=69 v=64
182660 On ch=7 n=69 v=127
182870 Off ch=7 n=69 v=64
182900 On ch=7 n=67 v=127
183115 Off ch=7 n=67 v=64
183125 On ch=7 n=64 v=127
183355 Off ch=7 n=64 v=64
183360 On ch=7 n=69 v=127
183790 Off ch=7 n=69 v=64
183845 On ch=7 n=66 v=127
183915 Off ch=7 n=66 v=64
183930 On ch=7 n=62 v=127
183970 On ch=7 n=59 v=127
183980 Off ch=7 n=62 v=64
184075 Off ch=7 n=59 v=64
184090 On ch=7 n=66 v=127
184310 Off ch=7 n=66 v=64
184325 On ch=7 n=64 v=127
184550 Off ch=7 n=64 v=64
184620 On ch=7 n=81 v=127
186495 Off ch=7 n=81 v=64
186510 On ch=7 n=79 v=127
186945 Off ch=7 n=79 v=64
186990 On ch=7 n=81 v=127
187435 Off ch=7 n=81 v=64
187440 On ch=7 n=78 v=127
187500 Off ch=7 n=78 v=64
187560 On ch=7 n=74 v=127
187590 On ch=7 n=71 v=127
187610 Off ch=7 n=74 v=64
187680 On ch=7 n=69 v=127
187690 Off ch=7 n=71 v=64
187900 Off ch=7 n=69 v=64
187930 On ch=7 n=57 v=127
188150 Off ch=7 n=57 v=64
188430 On ch=7 n=60 v=127
188645 Off ch=7 n=60 v=64
188665 On ch=7 n=64 v=127
188875 Off ch=7 n=64 v=64
188905 On ch=7 n=67 v=127
189115 Off ch=7 n=67 v=64
189145 On ch=7 n=69 v=127
189355 Off ch=7 n=69 v=64
189370 On ch=7 n=69 v=127
189590 Off ch=7 n=69 v=64
189610 On ch=7 n=66 v=127
189830 Off ch=7 n=66 v=64
189850 On ch=7 n=69 v=127
190535 Off ch=7 n=69 v=64
190570 On ch=7 n=64 v=127
190795 Off ch=7 n=64 v=64
190815 On ch=7 n=60 v=127
191030 Off ch=7 n=60 v=64
191040 On ch=7 n=59 v=127
191250 Off ch=7 n=59 v=64
191290 On ch=7 n=57 v=127
191515 Off ch=7 n=57 v=64
191525 On ch=7 n=54 v=127
191755 Off ch=7 n=54 v=64
191760 On ch=7 n=57 v=127
192960 Off ch=7 n=57 v=64
200900 PrCh ch=7 p=29
201590 ChPr ch=7 v=0
201590 Par ch=7 c=1 v=22
201590 Pb ch=7 v=8072
201590 Par ch=7 c=10 v=73
201600 On ch=7 n=69 v=114
201600 On ch=7 n=64 v=114
202230 Par ch=7 c=10 v=44
203070 Par ch=7 c=10 v=43
203490 Off ch=7 n=69 v=64
203490 On ch=7 n=69 v=114
203520 Off ch=7 n=64 v=64
203735 On ch=7 n=72 v=114
203840 Off ch=7 n=69 v=64
203910 Par ch=7 c=10 v=42
203975 Off ch=7 n=72 v=64
203992 On ch=7 n=76 v=114
204210 On ch=7 n=72 v=114
204232 Off ch=7 n=76 v=64
204450 Off ch=7 n=72 v=64
204515 On ch=7 n=71 v=114
204720 On ch=7 n=74 v=114
204750 Par ch=7 c=10 v=41
204755 Off ch=7 n=71 v=64
204935 On ch=7 n=78 v=114
204960 Off ch=7 n=74 v=64
205175 Off ch=7 n=78 v=64
205205 On ch=7 n=74 v=114
205440 On ch=7 n=69 v=114
205445 Off ch=7 n=74 v=64
205590 Par ch=7 c=10 v=40
205647 On ch=7 n=72 v=114
205680 Off ch=7 n=69 v=64
205905 On ch=7 n=76 v=114
205960 Off ch=7 n=72 v=64
206130 On ch=7 n=72 v=114
206145 Off ch=7 n=76 v=64
206370 Off ch=7 n=72 v=64
206387 On ch=7 n=71 v=114
206430 Par ch=7 c=10 v=39
206595 On ch=7 n=74 v=114
206845 On ch=7 n=78 v=114
206917 Off ch=7 n=74 v=64
206977 Off ch=7 n=71 v=64
207145 On ch=7 n=74 v=114
207205 Off ch=7 n=78 v=64
207270 Par ch=7 c=10 v=38
207357 On ch=7 n=69 v=114
207385 Off ch=7 n=74 v=64
207472 Off ch=7 n=69 v=64
207567 On ch=7 n=69 v=114
207817 On ch=7 n=72 v=114
207857 Off ch=7 n=69 v=64
208110 Par ch=7 c=10 v=37
208307 Off ch=7 n=72 v=64
208365 On ch=7 n=69 v=114
208445 Off ch=7 n=69 v=64
208545 On ch=7 n=69 v=114
208785 Off ch=7 n=69 v=64
208810 On ch=7 n=67 v=114
208980 Par ch=7 c=10 v=36
209187 Off ch=7 n=67 v=64
209280 On ch=7 n=69 v=114
209395 Off ch=7 n=69 v=64
209505 On ch=7 n=69 v=114
209705 Off ch=7 n=69 v=64
209717 On ch=7 n=72 v=114
209952 On ch=7 n=74 v=114
210002 Off ch=7 n=72 v=64
210212 On ch=7 n=76 v=114
210220 On ch=7 n=75 v=114
210232 Off ch=7 n=74 v=64
210282 Off ch=7 n=75 v=64
210430 On ch=7 n=74 v=114
210510 Off ch=7 n=76 v=64
210692 On ch=7 n=72 v=114
210725 Off ch=7 n=74 v=64
210942 On ch=7 n=74 v=114
210970 Off ch=7 n=72 v=64
211160 On ch=7 n=72 v=114
211232 Off ch=7 n=74 v=64
211410 On ch=7 n=69 v=114
211460 Off ch=7 n=72 v=64
211650 On ch=7 n=67 v=114
211832 Off ch=7 n=69 v=64
211847 Off ch=7 n=67 v=64
211875 On ch=7 n=69 v=114
212152 On ch=7 n=67 v=114
212187 Off ch=7 n=69 v=64
212377 On ch=7 n=69 v=114
212402 Off ch=7 n=67 v=64
212620 On ch=7 n=67 v=114
212642 Off ch=7 n=69 v=64
212862 On ch=7 n=69 v=114
212892 Off ch=7 n=67 v=64
213122 On ch=7 n=72 v=114
213150 Off ch=7 n=69 v=64
213557 On ch=7 n=74 v=114
213595 Off ch=7 n=72 v=64
214062 On ch=7 n=76 v=114
214097 Off ch=7 n=74 v=64
214575 On ch=7 n=74 v=114
214605 Off ch=7 n=76 v=64
214805 On ch=7 n=76 v=114
214825 Off ch=7 n=74 v=64
215030 On ch=7 n=79 v=114
215072 Off ch=7 n=76 v=64
215280 On ch=7 n=81 v=114
215315 Off ch=7 n=79 v=64
215975 On ch=7 n=84 v=114
215995 Off ch=7 n=81 v=64
216205 On ch=7 n=81 v=114
216252 Off ch=7 n=84 v=64
216952 On ch=7 n=76 v=114
216982 Off ch=7 n=81 v=64
217165 On ch=7 n=79 v=114
217225 Off ch=7 n=76 v=64
217407 On ch=7 n=81 v=114
217430 Off ch=7 n=79 v=64
217635 On ch=7 n=76 v=114
217682 Off ch=7 n=81 v=64
217902 On ch=7 n=79 v=114
217950 Off ch=7 n=76 v=64
218135 On ch=7 n=81 v=114
218160 Off ch=7 n=79 v=64
218365 On ch=7 n=79 v=114
218415 Off ch=7 n=81 v=64
218610 On ch=7 n=76 v=114
218647 Off ch=7 n=79 v=64
218832 On ch=7 n=79 v=114
218875 Off ch=7 n=76 v=64
219100 On ch=7 n=76 v=114
219132 Off ch=7 n=79 v=64
219220 Off ch=7 n=76 v=64
219360 On ch=7 n=72 v=114
219810 Off ch=7 n=72 v=64
219840 On ch=7 n=71 v=114
220320 Off ch=7 n=71 v=64
220320 On ch=7 n=72 v=114
220482 On ch=7 n=74 v=114
220725 Off ch=7 n=72 v=64
220725 On ch=7 n=72 v=114
220782 Off ch=7 n=74 v=64
221012 On ch=7 n=69 v=114
221045 Off ch=7 n=72 v=64
221702 On ch=7 n=72 v=114
221757 Off ch=7 n=69 v=64
221950 On ch=7 n=74 v=114
221980 Off ch=7 n=72 v=64
222170 On ch=7 n=76 v=114
222182 Off ch=7 n=74 v=64
222457 On ch=7 n=74 v=114
222500 Off ch=7 n=76 v=64
222680 On ch=7 n=72 v=114
222732 Off ch=7 n=74 v=64
222912 On ch=7 n=69 v=114
222940 Off ch=7 n=72 v=64
223060 Off ch=7 n=69 v=64
223175 On ch=7 n=69 v=114
223525 Off ch=7 n=69 v=64
223660 On ch=7 n=69 v=114
223807 Off ch=7 n=69 v=64
223910 On ch=7 n=69 v=114
224105 Off ch=7 n=69 v=64
224167 On ch=7 n=72 v=114
224497 Off ch=7 n=72 v=64
224647 On ch=7 n=69 v=114
224760 Off ch=7 n=69 v=64
224865 On ch=7 n=69 v=114
224995 Off ch=7 n=69 v=64
225107 On ch=7 n=67 v=114
225212 Off ch=7 n=67 v=64
225340 On ch=7 n=69 v=114
225485 Off ch=7 n=69 v=64
225592 On ch=7 n=67 v=114
225767 Off ch=7 n=67 v=64
225832 On ch=7 n=64 v=114
226130 Off ch=7 n=64 v=64
226495 On ch=7 n=64 v=114
226615 On ch=7 n=67 v=114
226665 Off ch=7 n=64 v=64
226765 On ch=7 n=69 v=114
226797 Off ch=7 n=67 v=64
227490 On ch=7 n=72 v=114
227507 Off ch=7 n=69 v=64
227720 On ch=7 n=69 v=114
227745 Off ch=7 n=72 v=64
227950 On ch=7 n=74 v=114
227982 Off ch=7 n=69 v=64
228210 On ch=7 n=69 v=114
228222 Off ch=7 n=74 v=64
228450 On ch=7 n=76 v=114
228485 Off ch=7 n=69 v=64
228692 On ch=7 n=69 v=114
228715 Off ch=7 n=76 v=64
228950 On ch=7 n=74 v=114
228990 Off ch=7 n=69 v=64
229212 On ch=7 n=69 v=114
229235 Off ch=7 n=74 v=64
229450 On ch=7 n=72 v=114
229482 Off ch=7 n=69 v=64
229677 On ch=7 n=69 v=114
229697 Off ch=7 n=72 v=64
229922 On ch=7 n=74 v=114
229952 Off ch=7 n=69 v=64
230067 On ch=7 n=69 v=114
230105 Off ch=7 n=74 v=64
230387 On ch=7 n=76 v=114
230427 Off ch=7 n=69 v=64
230622 On ch=7 n=69 v=109
230647 Off ch=7 n=76 v=64
230870 On ch=7 n=74 v=109
230910 Off ch=7 n=69 v=64
231105 On ch=7 n=69 v=109
231127 Off ch=7 n=74 v=64
231337 On ch=7 n=72 v=109
231370 Off ch=7 n=69 v=64
231577 On ch=7 n=69 v=109
231605 Off ch=7 n=72 v=64
231815 Off ch=7 n=69 v=64
231870 On ch=7 n=72 v=109
232080 On ch=7 n=69 v=109
232110 Off ch=7 n=72 v=64
232290 Par ch=7 c=10 v=20
232290 PrCh ch=7 p=16
232312 Off ch=7 n=69 v=64
232320 On ch=7 n=69 v=124
232322 On ch=7 n=72 v=124
232422 Off ch=7 n=69 v=64
232447 Off ch=7 n=72 v=64
232555 On ch=7 n=69 v=124
232555 On ch=7 n=72 v=124
232642 Off ch=7 n=72 v=64
232642 Off ch=7 n=69 v=64
232815 On ch=7 n=71 v=124
232822 On ch=7 n=74 v=124
233165 Off ch=7 n=74 v=64
233165 Off ch=7 n=71 v=64
233280 On ch=7 n=71 v=124
233287 On ch=7 n=74 v=124
233375 Off ch=7 n=71 v=64
233380 Off ch=7 n=74 v=64
233510 On ch=7 n=71 v=124
233512 On ch=7 n=74 v=124
233597 Off ch=7 n=74 v=64
233602 Off ch=7 n=71 v=64
233765 On ch=7 n=72 v=124
233775 On ch=7 n=69 v=124
234092 Off ch=7 n=69 v=64
234092 Off ch=7 n=72 v=64
234210 Par ch=7 c=10 v=107
234210 PrCh ch=7 p=29
234250 On ch=7 n=69 v=114
234252 On ch=7 n=72 v=114
234347 Off ch=7 n=72 v=64
234357 Off ch=7 n=69 v=64
234485 On ch=7 n=69 v=114
234485 On ch=7 n=72 v=114
234570 Off ch=7 n=72 v=64
234570 Off ch=7 n=69 v=64
234725 On ch=7 n=74 v=114
234730 On ch=7 n=71 v=114
234792 Off ch=7 n=71 v=64
234800 Off ch=7 n=74 v=64
234940 On ch=7 n=71 v=114
234940 On ch=7 n=74 v=114
235017 Off ch=7 n=74 v=64
235017 Off ch=7 n=71 v=64
235200 On ch=7 n=69 v=114
235202 On ch=7 n=72 v=114
235285 Off ch=7 n=72 v=64
235285 Off ch=7 n=69 v=64
235432 On ch=7 n=72 v=114
235440 On ch=7 n=69 v=114
235502 Off ch=7 n=69 v=64
235507 Off ch=7 n=72 v=64
235705 On ch=7 n=71 v=114
235707 On ch=7 n=74 v=114
235917 Off ch=7 n=74 v=64
235945 Off ch=7 n=71 v=64
236040 Par ch=7 c=10 v=20
236040 PrCh ch=7 p=16
236160 On ch=7 n=69 v=124
236162 On ch=7 n=72 v=124
236262 Off ch=7 n=69 v=64
236287 Off ch=7 n=72 v=64
236395 On ch=7 n=69 v=124
236395 On ch=7 n=72 v=124
236482 Off ch=7 n=72 v=64
236482 Off ch=7 n=69 v=64
236655 On ch=7 n=71 v=124
236662 On ch=7 n=74 v=124
237005 Off ch=7 n=74 v=64
237005 Off ch=7 n=71 v=64
237120 On ch=7 n=71 v=124
237127 On ch=7 n=74 v=124
237215 Off ch=7 n=71 v=64
237220 Off ch=7 n=74 v=64
237350 On ch=7 n=71 v=124
237352 On ch=7 n=74 v=124
237437 Off ch=7 n=74 v=64
237442 Off ch=7 n=71 v=64
237605 On ch=7 n=72 v=124
237615 On ch=7 n=69 v=124
237932 Off ch=7 n=69 v=64
237932 Off ch=7 n=72 v=64
238050 Par ch=7 c=10 v=107
238050 PrCh ch=7 p=29
238090 On ch=7 n=69 v=114
238092 On ch=7 n=72 v=114
238187 Off ch=7 n=72 v=64
238197 Off ch=7 n=69 v=64
238325 On ch=7 n=69 v=114
238325 On ch=7 n=72 v=114
238410 Off ch=7 n=72 v=64
238410 Off ch=7 n=69 v=64
238565 On ch=7 n=74 v=114
238570 On ch=7 n=71 v=114
238632 Off ch=7 n=71 v=64
238640 Off ch=7 n=74 v=64
238780 On ch=7 n=71 v=114
238780 On ch=7 n=74 v=114
238857 Off ch=7 n=74 v=64
238857 Off ch=7 n=71 v=64
239040 On ch=7 n=69 v=114
239042 On ch=7 n=72 v=114
239125 Off ch=7 n=72 v=64
239125 Off ch=7 n=69 v=64
239272 On ch=7 n=72 v=114
239280 On ch=7 n=69 v=114
239342 Off ch=7 n=69 v=64
239347 Off ch=7 n=72 v=64
239545 On ch=7 n=71 v=114
239547 On ch=7 n=74 v=114
239757 Off ch=7 n=74 v=64
239785 Off ch=7 n=71 v=64
239970 Par ch=7 c=10 v=20
239970 PrCh ch=7 p=16
240017 On ch=7 n=69 v=124
240020 On ch=7 n=72 v=124
240105 Off ch=7 n=69 v=64
240117 Off ch=7 n=72 v=64
240252 On ch=7 n=72 v=124
240260 On ch=7 n=69 v=124
240322 Off ch=7 n=69 v=64
240332 Off ch=7 n=72 v=64
240512 On ch=7 n=71 v=124
240512 On ch=7 n=74 v=124
240810 Off ch=7 n=74 v=64
240810 Off ch=7 n=71 v=64
240947 On ch=7 n=72 v=124
240955 On ch=7 n=69 v=124
241025 Off ch=7 n=72 v=64
241035 Off ch=7 n=69 v=64
241162 On ch=7 n=69 v=124
241172 On ch=7 n=72 v=124
241232 Off ch=7 n=72 v=64
241237 Off ch=7 n=69 v=64
241320 Par ch=7 c=10 v=107
241320 PrCh ch=7 p=29
241425 On ch=7 n=71 v=114
241677 On ch=7 n=74 v=114
241720 Off ch=7 n=71 v=64
241910 On ch=7 n=76 v=114
241932 Off ch=7 n=74 v=64
242137 On ch=7 n=74 v=114
242177 Off ch=7 n=76 v=64
242387 On ch=7 n=72 v=114
242422 Off ch=7 n=74 v=64
242632 Off ch=7 n=72 v=64
242632 On ch=7 n=74 v=114
242870 On ch=7 n=72 v=114
242915 Off ch=7 n=74 v=64
243112 On ch=7 n=69 v=114
243132 Off ch=7 n=72 v=64
243345 On ch=7 n=72 v=114
243350 Off ch=7 n=69 v=64
243590 On ch=7 n=69 v=114
243632 Off ch=7 n=72 v=64
243840 On ch=7 n=67 v=114
243872 Off ch=7 n=69 v=64
244052 Off ch=7 n=67 v=64
244055 On ch=7 n=69 v=114
244307 On ch=7 n=67 v=114
244350 Off ch=7 n=69 v=64
244552 On ch=7 n=64 v=114
244582 Off ch=7 n=67 v=64
244777 On ch=7 n=67 v=114
244805 Off ch=7 n=64 v=64
245020 On ch=7 n=69 v=114
245030 Off ch=7 n=67 v=64
245260 On ch=7 n=67 v=114
245302 Off ch=7 n=69 v=64
245507 On ch=7 n=64 v=114
245537 Off ch=7 n=67 v=64
245745 On ch=7 n=67 v=114
245757 Off ch=7 n=64 v=64
245997 On ch=7 n=64 v=114
246032 Off ch=7 n=67 v=64
246247 On ch=7 n=62 v=114
246282 Off ch=7 n=64 v=64
246462 On ch=7 n=64 v=114
246472 Off ch=7 n=62 v=64
246690 On ch=7 n=62 v=114
246742 Off ch=7 n=64 v=64
246952 On ch=7 n=60 v=114
246980 Off ch=7 n=62 v=64
247177 On ch=7 n=62 v=114
247190 Off ch=7 n=60 v=64
247415 On ch=7 n=60 v=114
247455 Off ch=7 n=62 v=64
247680 Off ch=7 n=60 v=64
247687 On ch=7 n=57 v=114
248182 On ch=7 n=59 v=114
248205 Off ch=7 n=57 v=64
248387 On ch=7 n=60 v=114
248410 Off ch=7 n=59 v=64
248620 On ch=7 n=59 v=114
248657 Off ch=7 n=60 v=64
248850 On ch=7 n=57 v=114
248922 Off ch=7 n=59 v=64
249607 Off ch=7 n=57 v=64
249607 On ch=7 n=57 v=114
251047 Off ch=7 n=57 v=64
251520 PrCh ch=7 p=16
251520 PoPr ch=7 n=1 v=60
251520 Par ch=7 c=2 v=60
251520 Par ch=7 c=1 v=30
251520 Par ch=7 c=4 v=60
251520 Par ch=7 c=10 v=78
251520 On ch=7 n=59 v=124
251697 On ch=7 n=60 v=124
251722 Off ch=7 n=59 v=64
251992 On ch=7 n=62 v=124
252020 Off ch=7 n=60 v=64
252090 Par ch=7 c=10 v=79
252205 On ch=7 n=64 v=124
252220 Off ch=7 n=62 v=64
252452 On ch=7 n=62 v=124
252467 Off ch=7 n=64 v=64
252630 Par ch=7 c=10 v=80
252695 On ch=7 n=64 v=124
252722 Off ch=7 n=62 v=64
252935 Off ch=7 n=64 v=64
252960 On ch=7 n=65 v=124
253170 Par ch=7 c=10 v=81
253170 On ch=7 n=67 v=124
253200 Off ch=7 n=65 v=64
253415 On ch=7 n=69 v=124
253475 Off ch=7 n=67 v=64
253710 Par ch=7 c=10 v=82
254250 Par ch=7 c=10 v=83
254400 On ch=7 n=72 v=124
254432 Off ch=7 n=69 v=64
254622 On ch=7 n=69 v=124
254652 Off ch=7 n=72 v=64
254790 Par ch=7 c=10 v=84
254867 On ch=7 n=72 v=124
254887 Off ch=7 n=69 v=64
255107 On ch=7 n=74 v=124
255122 Off ch=7 n=72 v=64
255330 Par ch=7 c=10 v=85
255360 On ch=7 n=76 v=124
255380 Off ch=7 n=74 v=64
255580 On ch=7 n=74 v=124
255627 Off ch=7 n=76 v=64
255810 On ch=7 n=72 v=124
255855 Off ch=7 n=74 v=64
255870 Par ch=7 c=10 v=86
256027 On ch=7 n=69 v=124
256042 Off ch=7 n=72 v=64
256302 On ch=7 n=72 v=124
256327 Off ch=7 n=69 v=64
256410 Par ch=7 c=10 v=87
256535 On ch=7 n=69 v=124
256570 Off ch=7 n=72 v=64
256950 Par ch=7 c=10 v=88
257280 Off ch=7 n=69 v=64
257280 On ch=7 n=76 v=124
257405 On ch=7 n=75 v=124
257440 Off ch=7 n=76 v=64
257490 Par ch=7 c=10 v=89
257537 On ch=7 n=74 v=124
257565 Off ch=7 n=75 v=64
257730 On ch=7 n=72 v=124
257762 Off ch=7 n=74 v=64
257930 Off ch=7 n=72 v=64
257952 On ch=7 n=74 v=124
258030 Par ch=7 c=10 v=90
258197 On ch=7 n=72 v=124
258255 Off ch=7 n=74 v=64
258440 On ch=7 n=69 v=124
258462 Off ch=7 n=72 v=64
258570 Par ch=7 c=10 v=91
258687 On ch=7 n=72 v=124
258715 Off ch=7 n=69 v=64
258922 On ch=7 n=69 v=124
258950 Off ch=7 n=72 v=64
259110 Par ch=7 c=10 v=92
259162 On ch=7 n=67 v=124
259192 Off ch=7 n=69 v=64
259397 On ch=7 n=69 v=124
259440 Off ch=7 n=67 v=64
259650 Par ch=7 c=10 v=93
260052 Off ch=7 n=69 v=64
260160 On ch=7 n=72 v=124
260190 Par ch=7 c=10 v=94
260640 Off ch=7 n=72 v=64
260670 On ch=7 n=71 v=124
260730 Par ch=7 c=10 v=95
260910 Off ch=7 n=71 v=64
260940 On ch=7 n=69 v=124
261060 Off ch=7 n=69 v=64
261110 On ch=7 n=69 v=124
261215 Off ch=7 n=69 v=64
261270 Par ch=7 c=10 v=96
261340 On ch=7 n=69 v=124
261587 On ch=7 n=72 v=124
261692 Off ch=7 n=69 v=64
261810 Par ch=7 c=10 v=97
262092 On ch=7 n=69 v=124
262117 Off ch=7 n=72 v=64
262202 Off ch=7 n=69 v=64
262317 On ch=7 n=69 v=124
262350 Par ch=7 c=10 v=98
262565 On ch=7 n=74 v=124
262902 Off ch=7 n=69 v=64
262920 Par ch=7 c=10 v=99
263047 On ch=7 n=69 v=124
263055 Off ch=7 n=74 v=64
263145 Off ch=7 n=69 v=64
263280 On ch=7 n=69 v=124
263395 Off ch=7 n=69 v=64
263460 Par ch=7 c=10 v=100
263525 On ch=7 n=76 v=124
263612 On ch=7 n=74 v=124
263657 Off ch=7 n=76 v=64
263692 On ch=7 n=72 v=124
263717 Off ch=7 n=74 v=64
263962 On ch=7 n=74 v=124
263987 Off ch=7 n=72 v=64
264000 Par ch=7 c=10 v=101
264170 On ch=7 n=72 v=124
264215 Off ch=7 n=74 v=64
264472 On ch=7 n=69 v=124
264482 Off ch=7 n=72 v=64
264540 Par ch=7 c=10 v=102
264792 Off ch=7 n=69 v=64
264950 On ch=7 n=69 v=124
265080 Par ch=7 c=10 v=103
265180 On ch=7 n=81 v=124
265230 Off ch=7 n=69 v=64
265447 Off ch=7 n=81 v=64
265447 On ch=7 n=69 v=124
265620 Par ch=7 c=10 v=104
265705 On ch=7 n=81 v=124
265720 Off ch=7 n=69 v=64
265950 On ch=7 n=69 v=124
265982 On ch=7 n=79 v=124
266007 Off ch=7 n=81 v=64
266060 Off ch=7 n=69 v=64
266160 Par ch=7 c=10 v=105
266415 Off ch=7 n=79 v=64
266422 On ch=7 n=69 v=124
266700 Par ch=7 c=10 v=106
266877 On ch=7 n=81 v=124
266927 Off ch=7 n=69 v=64
267142 On ch=7 n=69 v=124
267145 On ch=7 n=79 v=124
267207 Off ch=7 n=81 v=64
267240 Off ch=7 n=79 v=64
267240 Par ch=7 c=10 v=107
267405 On ch=7 n=79 v=124
267487 Off ch=7 n=69 v=64
267657 On ch=7 n=81 v=124
267675 Off ch=7 n=79 v=64
267780 Par ch=7 c=10 v=108
267872 On ch=7 n=79 v=124
267937 Off ch=7 n=81 v=64
268120 On ch=7 n=76 v=124
268142 Off ch=7 n=79 v=64
268320 Par ch=7 c=10 v=109
268332 On ch=7 n=79 v=124
268370 Off ch=7 n=76 v=64
268565 On ch=7 n=76 v=124
268615 Off ch=7 n=79 v=64
268802 On ch=7 n=74 v=124
268855 Off ch=7 n=76 v=64
268860 Par ch=7 c=10 v=110
269015 On ch=7 n=76 v=124
269027 Off ch=7 n=74 v=64
269237 On ch=7 n=74 v=124
269292 Off ch=7 n=76 v=64
269400 Par ch=7 c=10 v=111
269502 On ch=7 n=72 v=124
269535 Off ch=7 n=74 v=64
269742 On ch=7 n=74 v=124
269772 Off ch=7 n=72 v=64
269940 Par ch=7 c=10 v=112
270200 On ch=7 n=76 v=124
270232 Off ch=7 n=74 v=64
270480 Par ch=7 c=10 v=113
270690 On ch=7 n=72 v=124
270740 Off ch=7 n=76 v=64
270925 On ch=7 n=74 v=124
270957 Off ch=7 n=72 v=64
271020 Par ch=7 c=10 v=114
271167 On ch=7 n=72 v=124
271212 Off ch=7 n=74 v=64
271560 Par ch=7 c=10 v=115
271652 On ch=7 n=69 v=124
271660 Off ch=7 n=72 v=64
272100 Par ch=7 c=10 v=116
272195 Off ch=7 n=69 v=64
272625 On ch=7 n=69 v=124
272637 Par ch=7 c=10 v=117
272640 Par ch=7 c=10 v=116
272857 On ch=7 n=72 v=124
273117 On ch=7 n=76 v=124
273150 Par ch=7 c=10 v=115
273157 Off ch=7 n=72 v=64
273257 Off ch=7 n=69 v=64
273585 On ch=7 n=71 v=124
273630 Par ch=7 c=10 v=114
273635 Off ch=7 n=76 v=64
273832 On ch=7 n=74 v=124
274072 On ch=7 n=78 v=124
274122 Off ch=7 n=74 v=64
274140 Par ch=7 c=10 v=113
274152 Off ch=7 n=71 v=64
274525 On ch=7 n=69 v=124
274532 On ch=7 n=67 v=124
274547 Off ch=7 n=78 v=64
274575 Off ch=7 n=67 v=64
274620 Par ch=7 c=10 v=112
274762 On ch=7 n=72 v=124
275020 On ch=7 n=76 v=124
275065 Off ch=7 n=72 v=64
275130 Par ch=7 c=10 v=111
275180 Off ch=7 n=69 v=64
275490 On ch=7 n=71 v=124
275552 Off ch=7 n=76 v=64
275610 Par ch=7 c=10 v=110
275732 On ch=7 n=74 v=124
275985 On ch=7 n=78 v=124
276025 Off ch=7 n=74 v=64
276090 Par ch=7 c=10 v=109
276442 On ch=7 n=74 v=124
276462 Off ch=7 n=78 v=64
276475 Off ch=7 n=71 v=64
276600 Par ch=7 c=10 v=108
276657 On ch=7 n=78 v=124
276710 Off ch=7 n=74 v=64
276935 On ch=7 n=72 v=124
276945 Off ch=7 n=78 v=64
277080 Par ch=7 c=10 v=107
277155 On ch=7 n=76 v=124
277230 Off ch=7 n=72 v=64
277425 On ch=7 n=74 v=124
277442 Off ch=7 n=76 v=64
277590 Par ch=7 c=10 v=106
277667 On ch=7 n=79 v=124
277715 Off ch=7 n=74 v=64
277912 On ch=7 n=76 v=124
277920 Off ch=7 n=79 v=64
278070 Par ch=7 c=10 v=105
278150 On ch=7 n=81 v=124
278160 On ch=7 n=83 v=124
278197 Off ch=7 n=76 v=64
278227 Off ch=7 n=83 v=64
278385 Off ch=7 n=81 v=64
278385 On ch=7 n=74 v=124
278550 Par ch=7 c=10 v=104
278622 On ch=7 n=79 v=124
278697 Off ch=7 n=74 v=64
278892 On ch=7 n=76 v=124
278925 Off ch=7 n=79 v=64
279060 Par ch=7 c=10 v=103
279152 On ch=7 n=79 v=124
279185 Off ch=7 n=76 v=64
279335 Off ch=7 n=79 v=64
279390 On ch=7 n=74 v=124
279540 Par ch=7 c=10 v=102
279630 Off ch=7 n=74 v=64
279630 On ch=7 n=79 v=124
279840 On ch=7 n=76 v=124
279870 Off ch=7 n=79 v=64
280050 Par ch=7 c=10 v=101
280200 Off ch=7 n=76 v=64
280295 On ch=7 n=76 v=124
280530 Par ch=7 c=10 v=100
280550 On ch=7 n=79 v=124
280612 Off ch=7 n=76 v=64
280792 On ch=7 n=81 v=124
280825 Off ch=7 n=79 v=64
281010 Par ch=7 c=10 v=99
281250 On ch=7 n=79 v=124
281297 Off ch=7 n=81 v=64
281497 On ch=7 n=76 v=124
281520 Par ch=7 c=10 v=98
281537 Off ch=7 n=79 v=64
281987 Off ch=7 n=76 v=64
282000 Par ch=7 c=10 v=97
282212 On ch=7 n=76 v=124
282212 On ch=7 n=79 v=124
282220 On ch=7 n=81 v=124
282320 Off ch=7 n=81 v=64
282340 Off ch=7 n=76 v=64
282350 Off ch=7 n=79 v=64
282460 On ch=7 n=79 v=124
282462 On ch=7 n=81 v=124
282472 On ch=7 n=76 v=124
282510 Par ch=7 c=10 v=96
282580 Off ch=7 n=79 v=64
282582 Off ch=7 n=81 v=64
282592 Off ch=7 n=76 v=64
282702 On ch=7 n=76 v=124
282717 On ch=7 n=79 v=124
282717 On ch=7 n=81 v=124
282832 Off ch=7 n=76 v=64
282837 Off ch=7 n=79 v=64
282837 Off ch=7 n=81 v=64
282960 On ch=7 n=76 v=124
282965 On ch=7 n=79 v=124
282965 On ch=7 n=81 v=124
282990 Par ch=7 c=10 v=95
283080 Off ch=7 n=76 v=64
283085 Off ch=7 n=79 v=64
283085 Off ch=7 n=81 v=64
283197 On ch=7 n=81 v=124
283425 On ch=7 n=79 v=124
283470 Par ch=7 c=10 v=94
283490 Off ch=7 n=81 v=64
283677 On ch=7 n=76 v=124
283700 Off ch=7 n=79 v=64
283922 Off ch=7 n=76 v=64
283922 On ch=7 n=79 v=124
283980 Par ch=7 c=10 v=93
284152 On ch=7 n=76 v=124
284187 Off ch=7 n=79 v=64
284395 On ch=7 n=74 v=124
284435 Off ch=7 n=76 v=64
284460 Par ch=7 c=10 v=92
284612 On ch=7 n=76 v=124
284625 Off ch=7 n=74 v=64
284880 On ch=7 n=74 v=124
284932 Off ch=7 n=76 v=64
284970 Par ch=7 c=10 v=91
285112 On ch=7 n=72 v=124
285145 Off ch=7 n=74 v=64
285350 On ch=7 n=74 v=124
285382 Off ch=7 n=72 v=64
285450 Par ch=7 c=10 v=90
285590 On ch=7 n=72 v=124
285645 Off ch=7 n=74 v=64
285817 On ch=7 n=69 v=124
285860 Off ch=7 n=72 v=64
285960 Par ch=7 c=10 v=89
286007 Off ch=7 n=69 v=64
286077 On ch=7 n=69 v=124
286395 Off ch=7 n=69 v=64
286440 Par ch=7 c=10 v=88
286560 On ch=7 n=76 v=124
286592 On ch=7 n=72 v=124
286680 Off ch=7 n=72 v=64
286800 On ch=7 n=81 v=124
286802 On ch=7 n=72 v=124
286920 Par ch=7 c=10 v=87
286930 Off ch=7 n=72 v=64
287040 Off ch=7 n=76 v=64
287040 Off ch=7 n=81 v=64
287070 On ch=7 n=84 v=124
287070 On ch=7 n=79 v=124
287280 On ch=7 n=81 v=124
287310 Off ch=7 n=79 v=64
287310 Off ch=7 n=84 v=64
287430 Par ch=7 c=10 v=86
287520 Off ch=7 n=81 v=64
287550 On ch=7 n=84 v=124
287550 On ch=7 n=79 v=124
287790 Off ch=7 n=79 v=64
287790 Off ch=7 n=84 v=64
287790 On ch=7 n=81 v=124
287910 Par ch=7 c=10 v=85
288007 On ch=7 n=84 v=124
288030 Off ch=7 n=81 v=64
288227 On ch=7 n=81 v=124
288267 Off ch=7 n=84 v=64
288420 Par ch=7 c=10 v=84
288462 On ch=7 n=79 v=124
288472 Off ch=7 n=81 v=64
288667 Off ch=7 n=79 v=64
288680 On ch=7 n=81 v=124
288900 Par ch=7 c=10 v=83
288920 On ch=7 n=79 v=124
288955 Off ch=7 n=81 v=64
289200 On ch=7 n=81 v=124
289260 Off ch=7 n=79 v=64
289380 Par ch=7 c=10 v=82
289890 Par ch=7 c=10 v=81
289920 Off ch=7 n=81 v=64
289922 On ch=7 n=81 v=124
290137 On ch=7 n=76 v=124
290165 Off ch=7 n=81 v=64
290370 Par ch=7 c=10 v=80
290402 On ch=7 n=72 v=124
290427 Off ch=7 n=76 v=64
290627 On ch=7 n=74 v=124
290635 Off ch=7 n=72 v=64
290880 Par ch=7 c=10 v=79
291360 Par ch=7 c=10 v=78
291372 On ch=7 n=72 v=124
291415 Off ch=7 n=74 v=64
291577 On ch=7 n=71 v=124
291635 Off ch=7 n=72 v=64
292320 Par ch=7 c=1 v=35
292320 Par ch=7 c=64 v=10
292320 Par ch=7 c=2 v=100
292800 Par ch=7 c=1 v=40
293280 Par ch=7 c=1 v=45
293760 Off ch=7 n=71 v=64
293760 On ch=7 n=69 v=124
294562 Off ch=7 n=69 v=64
294657 On ch=7 n=69 v=124
294925 On ch=7 n=72 v=124
294967 Off ch=7 n=69 v=64
295677 On ch=7 n=69 v=124
295702 Off ch=7 n=72 v=64
295887 On ch=7 n=72 v=124
295932 Off ch=7 n=69 v=64
296135 On ch=7 n=74 v=124
296145 Off ch=7 n=72 v=64
296350 On ch=7 n=72 v=124
296420 Off ch=7 n=74 v=64
296610 On ch=7 n=69 v=124
296635 Off ch=7 n=72 v=64
297595 On ch=7 n=72 v=124
297637 Off ch=7 n=69 v=64
297842 On ch=7 n=69 v=124
297877 Off ch=7 n=72 v=64
298092 On ch=7 n=72 v=124
298130 Off ch=7 n=69 v=64
298300 On ch=7 n=69 v=124
298332 Off ch=7 n=72 v=64
298570 On ch=7 n=72 v=124
298590 Off ch=7 n=69 v=64
298815 On ch=7 n=71 v=124
298855 Off ch=7 n=72 v=64
299512 On ch=7 n=69 v=124
299560 Off ch=7 n=71 v=64
299745 On ch=7 n=67 v=124
299792 Off ch=7 n=69 v=64
299970 Off ch=7 n=67 v=64
299980 On ch=7 n=69 v=124
300195 On ch=7 n=67 v=124
300265 Off ch=7 n=69 v=64
300455 On ch=7 n=64 v=124
300475 Off ch=7 n=67 v=64
300680 On ch=7 n=67 v=124
300735 Off ch=7 n=64 v=64
300925 On ch=7 n=69 v=124
300980 Off ch=7 n=67 v=64
301455 On ch=7 n=72 v=124
301467 Off ch=7 n=69 v=64
301660 On ch=7 n=69 v=124
301670 Off ch=7 n=72 v=64
301880 On ch=7 n=72 v=124
301907 Off ch=7 n=69 v=64
302135 On ch=7 n=69 v=124
302162 Off ch=7 n=72 v=64
302387 On ch=7 n=72 v=124
302412 Off ch=7 n=69 v=64
302637 On ch=7 n=71 v=124
302690 Off ch=7 n=72 v=64
302867 On ch=7 n=69 v=124
302895 Off ch=7 n=71 v=64
303090 On ch=7 n=71 v=124
303147 Off ch=7 n=69 v=64
303357 On ch=7 n=72 v=124
303387 Off ch=7 n=71 v=64
303850 On ch=7 n=74 v=124
303880 Off ch=7 n=72 v=64
304317 On ch=7 n=72 v=124
304337 Off ch=7 n=74 v=64
304525 On ch=7 n=74 v=124
304565 Off ch=7 n=72 v=64
304972 Off ch=7 n=74 v=64
305302 On ch=7 n=74 v=124
305405 On ch=7 n=75 v=124
305452 Off ch=7 n=74 v=64
305550 On ch=7 n=76 v=124
305575 Off ch=7 n=75 v=64
306170 On ch=7 n=74 v=124
306205 Off ch=7 n=76 v=64
306445 On ch=7 n=72 v=124
306475 Off ch=7 n=74 v=64
306912 Off ch=7 n=72 v=64
307177 On ch=7 n=74 v=124
307302 On ch=7 n=75 v=124
307345 Off ch=7 n=74 v=64
307457 On ch=7 n=76 v=124
307482 Off ch=7 n=75 v=64
308217 On ch=7 n=74 v=124
308262 Off ch=7 n=76 v=64
308425 On ch=7 n=72 v=124
308445 Off ch=7 n=74 v=64
308795 Off ch=7 n=72 v=64
309070 On ch=7 n=74 v=124
309182 On ch=7 n=75 v=124
309247 Off ch=7 n=74 v=64
309337 On ch=7 n=76 v=124
309347 Off ch=7 n=75 v=64
309572 Off ch=7 n=76 v=64
309582 On ch=7 n=79 v=124
309847 Off ch=7 n=79 v=64
309852 On ch=7 n=76 v=124
310085 On ch=7 n=79 v=124
310107 Off ch=7 n=76 v=64
310312 Off ch=7 n=79 v=64
310315 On ch=7 n=81 v=124
310590 On ch=7 n=84 v=124
310650 Off ch=7 n=81 v=64
310695 On ch=7 n=81 v=124
310700 Off ch=7 n=81 v=64
310950 Off ch=7 n=84 v=64
310977 On ch=7 n=81 v=124
311237 On ch=7 n=79 v=124
311262 Off ch=7 n=81 v=64
311462 On ch=7 n=76 v=124
311475 Off ch=7 n=79 v=64
311970 On ch=7 n=74 v=124
312010 Off ch=7 n=76 v=64
312935 On ch=7 n=72 v=124
312962 Off ch=7 n=74 v=64
313175 On ch=7 n=74 v=124
313202 Off ch=7 n=72 v=64
313410 On ch=7 n=72 v=124
313445 Off ch=7 n=74 v=64
313667 On ch=7 n=69 v=124
313692 Off ch=7 n=72 v=64
313882 On ch=7 n=72 v=124
313915 Off ch=7 n=69 v=64
314367 On ch=7 n=74 v=124
314397 Off ch=7 n=72 v=64
314622 On ch=7 n=72 v=124
314685 Off ch=7 n=74 v=64
314837 On ch=7 n=71 v=124
314875 Off ch=7 n=72 v=64
315097 On ch=7 n=69 v=124
315132 Off ch=7 n=71 v=64
315367 On ch=7 n=71 v=124
315442 Off ch=7 n=71 v=64
315817 On ch=7 n=71 v=124
315855 Off ch=7 n=69 v=64
316787 On ch=7 n=67 v=124
316817 Off ch=7 n=71 v=64
316945 On ch=7 n=69 v=124
316982 Off ch=7 n=67 v=64
317067 On ch=7 n=71 v=124
317085 Off ch=7 n=69 v=64
317265 On ch=7 n=72 v=124
317285 Off ch=7 n=71 v=64
317770 On ch=7 n=71 v=124
317775 Off ch=7 n=72 v=64
318015 On ch=7 n=72 v=124
318040 Off ch=7 n=71 v=64
318250 On ch=7 n=74 v=124
318275 Off ch=7 n=72 v=64
318722 On ch=7 n=72 v=124
318740 Off ch=7 n=74 v=64
318952 On ch=7 n=74 v=124
319000 Off ch=7 n=72 v=64
319170 On ch=7 n=76 v=124
319210 Off ch=7 n=74 v=64
319410 On ch=7 n=79 v=124
319432 Off ch=7 n=76 v=64
319650 On ch=7 n=76 v=124
319682 Off ch=7 n=79 v=64
320140 On ch=7 n=74 v=124
320190 Off ch=7 n=76 v=64
320377 On ch=7 n=72 v=124
320410 Off ch=7 n=74 v=64
320640 Off ch=7 n=72 v=64
320660 On ch=7 n=74 v=124
320900 Off ch=7 n=74 v=64
320900 On ch=7 n=75 v=124
321140 Off ch=7 n=75 v=64
321200 On ch=7 n=74 v=124
321380 On ch=7 n=72 v=124
321440 Off ch=7 n=74 v=64
321620 Off ch=7 n=72 v=64
321650 On ch=7 n=74 v=124
321860 On ch=7 n=72 v=124
321890 Off ch=7 n=74 v=64
322100 Off ch=7 n=72 v=64
322100 On ch=7 n=69 v=124
322310 Off ch=7 n=69 v=64
322310 On ch=7 n=69 v=124
322542 On ch=7 n=72 v=124
322595 Off ch=7 n=69 v=64
322802 On ch=7 n=69 v=124
322850 Off ch=7 n=72 v=64
323042 On ch=7 n=72 v=124
323077 Off ch=7 n=69 v=64
323257 On ch=7 n=69 v=124
323300 Off ch=7 n=72 v=64
323505 On ch=7 n=72 v=124
323535 Off ch=7 n=69 v=64
323732 On ch=7 n=71 v=124
323787 Off ch=7 n=72 v=64
324462 On ch=7 n=69 v=124
324500 Off ch=7 n=71 v=64
324672 On ch=7 n=71 v=124
324707 Off ch=7 n=69 v=64
324947 On ch=7 n=72 v=124
324987 Off ch=7 n=71 v=64
325177 On ch=7 n=74 v=124
325232 Off ch=7 n=72 v=64
325415 On ch=7 n=76 v=124
325455 Off ch=7 n=74 v=64
325642 On ch=7 n=74 v=124
325702 Off ch=7 n=76 v=64
325885 On ch=7 n=72 v=124
325955 Off ch=7 n=74 v=64
326120 On ch=7 n=71 v=124
326147 Off ch=7 n=72 v=64
326400 Off ch=7 n=71 v=64
326400 On ch=7 n=72 v=124
326615 On ch=7 n=74 v=124
326665 Off ch=7 n=72 v=64
326875 On ch=7 n=76 v=124
326925 Off ch=7 n=74 v=64
328180 Off ch=7 n=76 v=64
328287 On ch=7 n=76 v=124
328297 On ch=7 n=71 v=124
328300 On ch=7 n=74 v=124
328425 Off ch=7 n=71 v=64
328445 Off ch=7 n=74 v=64
328452 Off ch=7 n=76 v=64
328527 On ch=7 n=71 v=124
328530 On ch=7 n=74 v=124
328530 On ch=7 n=76 v=124
328632 Off ch=7 n=71 v=64
328650 Off ch=7 n=74 v=64
328650 Off ch=7 n=76 v=64
328767 On ch=7 n=71 v=124
328770 On ch=7 n=74 v=124
328770 On ch=7 n=76 v=124
328890 Off ch=7 n=76 v=64
328890 Off ch=7 n=71 v=64
328897 Off ch=7 n=74 v=64
328997 On ch=7 n=71 v=124
328997 On ch=7 n=74 v=124
329000 On ch=7 n=76 v=124
329105 Off ch=7 n=71 v=64
329115 Off ch=7 n=76 v=64
329120 Off ch=7 n=74 v=64
329240 On ch=7 n=71 v=124
329242 On ch=7 n=74 v=124
329245 On ch=7 n=76 v=124
329607 Off ch=7 n=76 v=64
329607 Off ch=7 n=71 v=64
329615 Off ch=7 n=74 v=64
329725 On ch=7 n=71 v=124
329727 On ch=7 n=74 v=124
329730 On ch=7 n=76 v=124
329877 Off ch=7 n=71 v=64
329895 Off ch=7 n=74 v=64
329895 Off ch=7 n=76 v=64
329987 On ch=7 n=71 v=124
329995 On ch=7 n=74 v=124
329997 On ch=7 n=76 v=124
330130 Off ch=7 n=71 v=64
330132 Off ch=7 n=74 v=64
330132 Off ch=7 n=76 v=64
330240 PrCh ch=7 p=84
330240 Par ch=7 c=1 v=30
330240 Par ch=7 c=2 v=30
330240 Par ch=7 c=10 v=93
330240 On ch=7 n=79 v=127
330480 Off ch=7 n=79 v=64
330480 On ch=7 n=76 v=127
330720 Off ch=7 n=76 v=64
330720 On ch=7 n=79 v=127
330960 Off ch=7 n=79 v=64
330960 On ch=7 n=76 v=127
331200 Off ch=7 n=76 v=64
331200 On ch=7 n=79 v=127
331440 Off ch=7 n=79 v=64
331440 On ch=7 n=76 v=127
331920 Off ch=7 n=76 v=64
331920 On ch=7 n=74 v=127
333120 Off ch=7 n=74 v=64
333840 On ch=7 n=76 v=127
334080 Off ch=7 n=76 v=64
334080 On ch=7 n=79 v=127
334320 Off ch=7 n=79 v=64
334320 On ch=7 n=76 v=127
334560 Off ch=7 n=76 v=64
334560 On ch=7 n=79 v=127
334800 Off ch=7 n=79 v=64
334800 On ch=7 n=76 v=127
335040 Off ch=7 n=76 v=64
335040 On ch=7 n=79 v=127
335280 Off ch=7 n=79 v=64
335280 On ch=7 n=76 v=127
335760 Off ch=7 n=76 v=64
335760 On ch=7 n=74 v=127
336960 Off ch=7 n=74 v=64
337920 On ch=7 n=79 v=127
338160 Off ch=7 n=79 v=64
338160 On ch=7 n=76 v=127
338400 Off ch=7 n=76 v=64
338400 On ch=7 n=79 v=127
338640 Off ch=7 n=79 v=64
338640 On ch=7 n=76 v=127
338880 Off ch=7 n=76 v=64
338880 On ch=7 n=79 v=127
339360 Off ch=7 n=79 v=64
339360 On ch=7 n=76 v=127
339600 Off ch=7 n=76 v=64
339600 On ch=7 n=74 v=127
340800 Off ch=7 n=74 v=64
341280 On ch=7 n=79 v=127
341520 Off ch=7 n=79 v=64
341520 On ch=7 n=76 v=127
341760 Off ch=7 n=76 v=64
341760 On ch=7 n=79 v=127
342000 Off ch=7 n=79 v=64
342000 On ch=7 n=76 v=127
342240 Off ch=7 n=76 v=64
342240 On ch=7 n=79 v=127
342480 Off ch=7 n=79 v=64
342480 On ch=7 n=76 v=127
342720 Off ch=7 n=76 v=64
342720 On ch=7 n=79 v=127
342960 Off ch=7 n=79 v=64
342960 On ch=7 n=76 v=127
343440 Off ch=7 n=76 v=64
343440 On ch=7 n=74 v=127
344640 Off ch=7 n=74 v=64
345600 On ch=7 n=74 v=127
345840 Off ch=7 n=74 v=64
345840 On ch=7 n=74 v=127
346080 Off ch=7 n=74 v=64
346080 On ch=7 n=74 v=127
346320 Off ch=7 n=74 v=64
346320 On ch=7 n=74 v=127
346560 Off ch=7 n=74 v=64
346560 On ch=7 n=78 v=127
346800 Off ch=7 n=78 v=64
346800 On ch=7 n=77 v=127
347520 Off ch=7 n=77 v=64
347520 On ch=7 n=77 v=127
348480 Off ch=7 n=77 v=64
348600 Pb ch=7 v=8072
349440 On ch=7 n=74 v=127
349680 Off ch=7 n=74 v=64
349680 On ch=7 n=74 v=127
349920 Off ch=7 n=74 v=64
349920 On ch=7 n=74 v=127
350160 Off ch=7 n=74 v=64
350160 On ch=7 n=74 v=127
350400 Off ch=7 n=74 v=64
350400 On ch=7 n=78 v=127
350640 Off ch=7 n=78 v=64
350640 On ch=7 n=77 v=127
351120 Off ch=7 n=77 v=64
351120 On ch=7 n=74 v=127
351510 Pb ch=7 v=7622
351540 Pb ch=7 v=7022
351570 Pb ch=7 v=6572
351600 Pb ch=7 v=6025
352260 Pb ch=7 v=6722
352290 Pb ch=7 v=7172
352320 Off ch=7 n=74 v=64
352320 Pb ch=7 v=7577
352350 Pb ch=7 v=8072
353280 On ch=7 n=74 v=127
353520 Off ch=7 n=74 v=64
353520 On ch=7 n=72 v=127
353760 Off ch=7 n=72 v=64
353760 On ch=7 n=74 v=127
354000 Off ch=7 n=74 v=64
354000 On ch=7 n=72 v=127
354240 Off ch=7 n=72 v=64
354240 On ch=7 n=76 v=127
354480 Off ch=7 n=76 v=64
354480 On ch=7 n=76 v=127
354960 Off ch=7 n=76 v=64
354960 On ch=7 n=77 v=127
356160 Off ch=7 n=77 v=64
357120 On ch=7 n=74 v=127
357360 Off ch=7 n=74 v=64
357360 On ch=7 n=74 v=127
357600 Off ch=7 n=74 v=64
357600 On ch=7 n=74 v=127
357840 Off ch=7 n=74 v=64
357840 On ch=7 n=74 v=127
358080 Off ch=7 n=74 v=64
358080 On ch=7 n=78 v=127
358320 Off ch=7 n=78 v=64
358320 On ch=7 n=77 v=127
358800 Off ch=7 n=77 v=64
358800 On ch=7 n=74 v=127
359190 Pb ch=7 v=7622
359220 Pb ch=7 v=7022
359250 Pb ch=7 v=6572
359280 Pb ch=7 v=6025
359940 Pb ch=7 v=6722
359970 Pb ch=7 v=7172
360000 Off ch=7 n=74 v=64
360000 Pb ch=7 v=7577
360030 Pb ch=7 v=8072
360960 On ch=7 n=74 v=127
361200 Off ch=7 n=74 v=64
361200 On ch=7 n=72 v=127
361440 Off ch=7 n=72 v=64
361440 On ch=7 n=74 v=127
361680 Off ch=7 n=74 v=64
361680 On ch=7 n=72 v=127
361920 Off ch=7 n=72 v=64
361920 On ch=7 n=76 v=127
362160 Off ch=7 n=76 v=64
362160 On ch=7 n=76 v=127
362640 Off ch=7 n=76 v=64
362640 On ch=7 n=77 v=127
363840 Off ch=7 n=77 v=64
364800 On ch=7 n=81 v=127
365040 Off ch=7 n=81 v=64
365040 On ch=7 n=81 v=127
365280 Off ch=7 n=81 v=64
365280 On ch=7 n=81 v=127
365520 Off ch=7 n=81 v=64
365520 On ch=7 n=81 v=127
365760 Off ch=7 n=81 v=64
365760 On ch=7 n=79 v=127
366000 Off ch=7 n=79 v=64
366000 On ch=7 n=79 v=127
366720 Off ch=7 n=79 v=64
366720 On ch=7 n=81 v=127
369600 Off ch=7 n=81 v=64
370560 PrCh ch=7 p=7
370560 Pb ch=7 v=7919
370560 Par ch=7 c=10 v=117
370560 On ch=7 n=71 v=109
370780 On ch=7 n=67 v=109
370800 Off ch=7 n=71 v=64
370900 On ch=7 n=69 v=109
370920 Off ch=7 n=67 v=64
371000 On ch=7 n=71 v=109
371040 Off ch=7 n=69 v=64
371240 Off ch=7 n=71 v=64
371240 On ch=7 n=74 v=109
371500 On ch=7 n=72 v=109
371520 Off ch=7 n=74 v=64
371740 On ch=7 n=71 v=109
371820 Off ch=7 n=72 v=64
371980 Off ch=7 n=71 v=64
371980 On ch=7 n=69 v=109
372220 On ch=7 n=67 v=109
372260 Off ch=7 n=69 v=64
372460 Off ch=7 n=67 v=64
372460 On ch=7 n=69 v=109
372700 On ch=7 n=65 v=109
372740 Off ch=7 n=69 v=64
372820 On ch=7 n=67 v=109
372840 Off ch=7 n=65 v=64
372920 On ch=7 n=69 v=109
372960 Off ch=7 n=67 v=64
373120 Off ch=7 n=69 v=64
373180 On ch=7 n=77 v=109
373380 Off ch=7 n=77 v=64
373380 On ch=7 n=74 v=109
373420 Off ch=7 n=74 v=64
373420 On ch=7 n=74 v=109
373520 Off ch=7 n=74 v=64
373540 On ch=7 n=72 v=109
373640 Off ch=7 n=72 v=64
373660 On ch=7 n=70 v=109
373780 Off ch=7 n=70 v=64
373780 On ch=7 n=69 v=109
373900 Off ch=7 n=69 v=64
373920 On ch=7 n=67 v=109
374100 Off ch=7 n=67 v=64
374160 On ch=7 n=65 v=109
374340 Off ch=7 n=65 v=64
374400 On ch=7 n=67 v=109
374620 On ch=7 n=63 v=109
374660 Off ch=7 n=67 v=64
374740 On ch=7 n=65 v=109
374780 Off ch=7 n=63 v=64
374860 On ch=7 n=67 v=109
374900 Off ch=7 n=65 v=64
375060 Off ch=7 n=67 v=64
375080 On ch=7 n=70 v=109
375340 Off ch=7 n=70 v=64
375340 On ch=7 n=68 v=109
375460 Off ch=7 n=68 v=64
375460 On ch=7 n=67 v=109
375580 Off ch=7 n=67 v=64
375580 On ch=7 n=65 v=109
375700 On ch=7 n=63 v=109
375740 Off ch=7 n=65 v=64
375820 On ch=7 n=62 v=109
375840 Off ch=7 n=63 v=64
376080 On ch=7 n=63 v=109
376140 Off ch=7 n=62 v=64
376300 Off ch=7 n=63 v=64
376320 On ch=7 n=49 v=109
376320 On ch=7 n=52 v=109
376320 On ch=7 n=57 v=109
376320 On ch=7 n=69 v=109
376340 Off ch=7 n=69 v=64
376340 On ch=7 n=64 v=109
376340 On ch=7 n=61 v=109
379900 Off ch=7 n=49 v=64
379920 Off ch=7 n=52 v=64
379940 Off ch=7 n=57 v=64
380140 Off ch=7 n=61 v=64
380160 Off ch=7 n=64 v=64
382080 Par ch=7 c=68 v=0
382080 Par ch=7 c=67 v=0
382080 Par ch=7 c=66 v=0
382080 Par ch=7 c=65 v=0
382080 Par ch=7 c=10 v=64
382080 Par ch=7 c=8 v=0
382080 Par ch=7 c=4 v=0
382080 PoPr ch=7 n=0 v=0
382080 Pb ch=7 v=8192
382080 ChPr ch=7 v=0
382080 Par ch=7 c=1 v=0
382092 Par ch=7 c=2 v=0
382105 Par ch=7 c=7 v=100
382117 Par ch=7 c=11 v=100
382130 Par ch=7 c=64 v=0
382142 Par ch=7 c=91 v=40
382155 Par ch=7 c=93 v=40
382560 Par ch=7 c=99 v=1
382590 Par ch=7 c=98 v=8
382620 Par ch=7 c=6 v=64
382685 Par ch=7 c=99 v=1
382715 Par ch=7 c=98 v=9
382745 Par ch=7 c=6 v=64
382910 Par ch=7 c=99 v=1
382940 Par ch=7 c=98 v=10
382970 Par ch=7 c=6 v=64
383035 Par ch=7 c=99 v=1
383065 Par ch=7 c=98 v=32
383095 Par ch=7 c=6 v=64
383160 Par ch=7 c=99 v=1
383190 Par ch=7 c=98 v=33
383220 Par ch=7 c=6 v=64
383285 Par ch=7 c=99 v=1
383315 Par ch=7 c=98 v=99
383345 Par ch=7 c=6 v=64
383410 Par ch=7 c=99 v=1
383435 Par ch=7 c=99 v=1
383440 Par ch=7 c=98 v=100
383465 Par ch=7 c=98 v=102
383470 Par ch=7 c=6 v=64
383495 Par ch=7 c=6 v=64
383560 Par ch=7 c=101 v=0
383590 Par ch=7 c=100 v=0
383620 Par ch=7 c=6 v=2
383685 Par ch=7 c=0 v=0
383686 Par ch=7 c=32 v=0
383715 Par ch=7 c=121 v=0
383715 Meta TrkEnd
TrkEnd
MTrk
0 Meta TrkName "Bass Drum           "
0 Meta 0x21 00
0 Meta 0x20 09
0 Par ch=10 c=7 v=99
0 Par ch=10 c=10 v=64
0 PrCh ch=10 p=0
0 Par ch=10 c=121 v=0
0 Pb ch=10 v=8192
0 Par ch=10 c=91 v=40
0 Par ch=10 c=93 v=40
0 Par ch=10 c=4 v=0
0 Par ch=10 c=8 v=0
0 Par ch=10 c=64 v=0
0 Par ch=10 c=65 v=0
0 Par ch=10 c=66 v=0
0 Par ch=10 c=67 v=0
0 Par ch=10 c=68 v=0
0 Par ch=10 c=2 v=127
1 Par ch=10 c=11 v=127
1 Par ch=10 c=1 v=0
80 Par ch=10 c=101 v=0
120 Par ch=10 c=100 v=0
220 Par ch=10 c=93 v=61
300 Par ch=10 c=91 v=108
360 Par ch=10 c=6 v=12
1440 Par ch=10 c=0 v=0
1920 On ch=10 n=35 v=105
2040 Off ch=10 n=35 v=64
2640 On ch=10 n=35 v=105
2760 Off ch=10 n=35 v=64
2880 On ch=10 n=35 v=105
3000 Off ch=10 n=35 v=64
3600 On ch=10 n=35 v=105
3720 Off ch=10 n=35 v=64
3840 On ch=10 n=35 v=105
3960 Off ch=10 n=35 v=64
4560 On ch=10 n=35 v=105
4680 Off ch=10 n=35 v=64
4800 On ch=10 n=35 v=105
4920 Off ch=10 n=35 v=64
6720 On ch=10 n=35 v=105
6840 Off ch=10 n=35 v=64
6960 On ch=10 n=35 v=105
7080 Off ch=10 n=35 v=64
7680 On ch=10 n=35 v=105
7800 Off ch=10 n=35 v=64
8400 On ch=10 n=35 v=105
8520 Off ch=10 n=35 v=64
9600 On ch=10 n=35 v=105
9720 Off ch=10 n=35 v=64
10320 On ch=10 n=35 v=105
10440 Off ch=10 n=35 v=64
10560 On ch=10 n=35 v=105
10680 Off ch=10 n=35 v=64
11520 On ch=10 n=35 v=105
11640 Off ch=10 n=35 v=64
12240 On ch=10 n=35 v=105
12360 Off ch=10 n=35 v=64
13440 On ch=10 n=35 v=105
13560 Off ch=10 n=35 v=64
14160 On ch=10 n=35 v=105
14280 Off ch=10 n=35 v=64
14400 On ch=10 n=35 v=105
14520 Off ch=10 n=35 v=64
15360 On ch=10 n=35 v=105
15480 Off ch=10 n=35 v=64
16080 On ch=10 n=35 v=105
16200 Off ch=10 n=35 v=64
16320 On ch=10 n=35 v=105
16440 Off ch=10 n=35 v=64
17280 On ch=10 n=35 v=105
17400 Off ch=10 n=35 v=64
18000 On ch=10 n=35 v=105
18120 Off ch=10 n=35 v=64
18240 On ch=10 n=35 v=105
18360 Off ch=10 n=35 v=64
18960 On ch=10 n=35 v=105
19080 Off ch=10 n=35 v=64
19200 On ch=10 n=35 v=105
19320 Off ch=10 n=35 v=64
19920 On ch=10 n=35 v=105
20040 Off ch=10 n=35 v=64
20160 On ch=10 n=35 v=105
20280 Off ch=10 n=35 v=64
20400 On ch=10 n=35 v=105
20520 Off ch=10 n=35 v=64
20880 On ch=10 n=35 v=105
21000 Off ch=10 n=35 v=64
21120 On ch=10 n=35 v=105
21240 Off ch=10 n=35 v=64
21840 On ch=10 n=35 v=105
21960 Off ch=10 n=35 v=64
22080 On ch=10 n=35 v=105
22200 Off ch=10 n=35 v=64
22800 On ch=10 n=35 v=105
22920 Off ch=10 n=35 v=64
23040 On ch=10 n=35 v=105
23160 Off ch=10 n=35 v=64
23760 On ch=10 n=35 v=105
23880 Off ch=10 n=35 v=64
24000 On ch=10 n=35 v=105
24120 Off ch=10 n=35 v=64
24960 On ch=10 n=35 v=105
25080 Off ch=10 n=35 v=64
25680 On ch=10 n=35 v=105
25800 Off ch=10 n=35 v=64
25920 On ch=10 n=35 v=105
26040 Off ch=10 n=35 v=64
26880 On ch=10 n=35 v=105
27000 Off ch=10 n=35 v=64
27600 On ch=10 n=35 v=105
27720 Off ch=10 n=35 v=64
27840 On ch=10 n=35 v=105
27960 Off ch=10 n=35 v=64
28800 On ch=10 n=35 v=105
28920 Off ch=10 n=35 v=64
29520 On ch=10 n=35 v=105
29640 Off ch=10 n=35 v=64
29760 On ch=10 n=35 v=105
29880 Off ch=10 n=35 v=64
30480 On ch=10 n=35 v=105
30600 Off ch=10 n=35 v=64
30720 On ch=10 n=35 v=105
30840 Off ch=10 n=35 v=64
31440 On ch=10 n=35 v=105
31560 Off ch=10 n=35 v=64
31680 On ch=10 n=35 v=105
31800 Off ch=10 n=35 v=64
31920 On ch=10 n=35 v=105
32040 Off ch=10 n=35 v=64
32400 On ch=10 n=35 v=105
32520 Off ch=10 n=35 v=64
32640 On ch=10 n=35 v=105
32760 Off ch=10 n=35 v=64
33360 On ch=10 n=35 v=105
33480 Off ch=10 n=35 v=64
33600 On ch=10 n=35 v=105
33720 Off ch=10 n=35 v=64
34320 On ch=10 n=35 v=105
34440 Off ch=10 n=35 v=64
34560 On ch=10 n=35 v=105
34680 Off ch=10 n=35 v=64
35280 On ch=10 n=35 v=105
35400 Off ch=10 n=35 v=64
35520 On ch=10 n=35 v=105
35640 Off ch=10 n=35 v=64
36480 On ch=10 n=35 v=105
36600 Off ch=10 n=35 v=64
37200 On ch=10 n=35 v=105
37320 Off ch=10 n=35 v=64
37440 On ch=10 n=35 v=105
37560 Off ch=10 n=35 v=64
38400 On ch=10 n=35 v=105
38520 Off ch=10 n=35 v=64
39120 On ch=10 n=35 v=105
39240 Off ch=10 n=35 v=64
39360 On ch=10 n=35 v=105
39480 Off ch=10 n=35 v=64
40320 On ch=10 n=35 v=105
40440 Off ch=10 n=35 v=64
41040 On ch=10 n=35 v=105
41160 Off ch=10 n=35 v=64
41280 On ch=10 n=35 v=105
41400 Off ch=10 n=35 v=64
42240 On ch=10 n=35 v=105
42360 Off ch=10 n=35 v=64
42960 On ch=10 n=35 v=105
43080 Off ch=10 n=35 v=64
43200 On ch=10 n=35 v=105
43320 Off ch=10 n=35 v=64
45120 On ch=10 n=35 v=105
45240 Off ch=10 n=35 v=64
45360 On ch=10 n=35 v=105
45480 Off ch=10 n=35 v=64
46080 On ch=10 n=35 v=105
46200 Off ch=10 n=35 v=64
46800 On ch=10 n=35 v=105
46920 Off ch=10 n=35 v=64
47040 On ch=10 n=35 v=105
47160 Off ch=10 n=35 v=64
47760 On ch=10 n=35 v=105
47880 Off ch=10 n=35 v=64
48000 On ch=10 n=35 v=105
48120 Off ch=10 n=35 v=64
48720 On ch=10 n=35 v=105
48840 Off ch=10 n=35 v=64
48960 On ch=10 n=35 v=105
49080 Off ch=10 n=35 v=64
49200 On ch=10 n=35 v=105
49320 Off ch=10 n=35 v=64
49680 On ch=10 n=35 v=105
49800 Off ch=10 n=35 v=64
49920 On ch=10 n=35 v=105
50040 Off ch=10 n=35 v=64
50640 On ch=10 n=35 v=105
50760 Off ch=10 n=35 v=64
50880 On ch=10 n=35 v=105
51000 Off ch=10 n=35 v=64
51600 On ch=10 n=35 v=105
51720 Off ch=10 n=35 v=64
51840 On ch=10 n=35 v=105
51960 Off ch=10 n=35 v=64
52560 On ch=10 n=35 v=105
52680 Off ch=10 n=35 v=64
52800 On ch=10 n=35 v=105
52920 Off ch=10 n=35 v=64
53760 On ch=10 n=35 v=105
53880 Off ch=10 n=35 v=64
54480 On ch=10 n=35 v=105
54600 Off ch=10 n=35 v=64
54720 On ch=10 n=35 v=105
54840 Off ch=10 n=35 v=64
55680 On ch=10 n=35 v=105
55800 Off ch=10 n=35 v=64
56400 On ch=10 n=35 v=105
56520 Off ch=10 n=35 v=64
56640 On ch=10 n=35 v=105
56760 Off ch=10 n=35 v=64
57600 On ch=10 n=35 v=105
57720 Off ch=10 n=35 v=64
58320 On ch=10 n=35 v=105
58440 Off ch=10 n=35 v=64
58560 On ch=10 n=35 v=105
58680 Off ch=10 n=35 v=64
59280 On ch=10 n=35 v=105
59400 Off ch=10 n=35 v=64
59520 On ch=10 n=35 v=105
59640 Off ch=10 n=35 v=64
60240 On ch=10 n=35 v=105
60360 Off ch=10 n=35 v=64
60480 On ch=10 n=35 v=105
60600 Off ch=10 n=35 v=64
60720 On ch=10 n=35 v=105
60840 Off ch=10 n=35 v=64
61200 On ch=10 n=35 v=105
61320 Off ch=10 n=35 v=64
61440 On ch=10 n=35 v=105
61560 Off ch=10 n=35 v=64
62160 On ch=10 n=35 v=105
62280 Off ch=10 n=35 v=64
62400 On ch=10 n=35 v=105
62520 Off ch=10 n=35 v=64
63120 On ch=10 n=35 v=105
63240 Off ch=10 n=35 v=64
64560 On ch=10 n=35 v=105
64680 Off ch=10 n=35 v=64
65040 On ch=10 n=35 v=105
65160 Off ch=10 n=35 v=64
66480 On ch=10 n=35 v=105
66600 Off ch=10 n=35 v=64
66960 On ch=10 n=35 v=105
67080 Off ch=10 n=35 v=64
67200 ChPr ch=10 v=60
67200 PoPr ch=10 n=1 v=0
67200 Par ch=10 c=2 v=127
67200 Par ch=10 c=4 v=127
67200 Par ch=10 c=8 v=127
67200 Par ch=10 c=64 v=60
67200 Par ch=10 c=66 v=60
67200 Par ch=10 c=67 v=60
67200 Par ch=10 c=68 v=60
67200 On ch=10 n=35 v=111
67320 Off ch=10 n=35 v=64
67920 On ch=10 n=35 v=111
68040 Off ch=10 n=35 v=64
68160 On ch=10 n=35 v=111
68280 Off ch=10 n=35 v=64
68880 On ch=10 n=35 v=111
69000 Off ch=10 n=35 v=64
69120 On ch=10 n=35 v=111
69240 Off ch=10 n=35 v=64
69840 On ch=10 n=35 v=111
69960 Off ch=10 n=35 v=64
70080 On ch=10 n=35 v=111
70200 Off ch=10 n=35 v=64
70320 On ch=10 n=35 v=111
70440 Off ch=10 n=35 v=64
70800 On ch=10 n=35 v=111
70920 Off ch=10 n=35 v=64
71040 ChPr ch=10 v=60
71040 On ch=10 n=35 v=111
71160 Off ch=10 n=35 v=64
71760 On ch=10 n=35 v=111
71880 Off ch=10 n=35 v=64
72000 On ch=10 n=35 v=111
72120 Off ch=10 n=35 v=64
72720 On ch=10 n=35 v=111
72840 Off ch=10 n=35 v=64
72960 On ch=10 n=35 v=111
73080 Off ch=10 n=35 v=64
73680 On ch=10 n=35 v=111
73800 Off ch=10 n=35 v=64
73920 On ch=10 n=35 v=111
74040 Off ch=10 n=35 v=64
74160 On ch=10 n=35 v=111
74280 Off ch=10 n=35 v=64
74640 On ch=10 n=35 v=111
74760 Off ch=10 n=35 v=64
74880 On ch=10 n=35 v=111
75000 Off ch=10 n=35 v=64
75600 On ch=10 n=35 v=111
75720 Off ch=10 n=35 v=64
75840 On ch=10 n=35 v=111
75960 Off ch=10 n=35 v=64
76560 On ch=10 n=35 v=111
76680 Off ch=10 n=35 v=64
76800 On ch=10 n=35 v=111
76920 Off ch=10 n=35 v=64
77520 On ch=10 n=35 v=111
77640 Off ch=10 n=35 v=64
77760 On ch=10 n=35 v=111
77880 Off ch=10 n=35 v=64
78000 On ch=10 n=35 v=111
78120 Off ch=10 n=35 v=64
78480 On ch=10 n=35 v=111
78600 Off ch=10 n=35 v=64
78720 On ch=10 n=35 v=111
78840 Off ch=10 n=35 v=64
79440 On ch=10 n=35 v=111
79560 Off ch=10 n=35 v=64
79680 On ch=10 n=35 v=111
79800 Off ch=10 n=35 v=64
80400 On ch=10 n=35 v=111
80520 Off ch=10 n=35 v=64
80640 On ch=10 n=35 v=111
80760 Off ch=10 n=35 v=64
81360 On ch=10 n=35 v=111
81480 Off ch=10 n=35 v=64
81600 On ch=10 n=35 v=111
81720 Off ch=10 n=35 v=64
81840 On ch=10 n=35 v=111
81960 Off ch=10 n=35 v=64
82320 On ch=10 n=35 v=111
82440 Off ch=10 n=35 v=64
82560 On ch=10 n=35 v=111
82680 Off ch=10 n=35 v=64
83280 On ch=10 n=35 v=111
83400 Off ch=10 n=35 v=64
83520 On ch=10 n=35 v=111
83640 Off ch=10 n=35 v=64
84240 On ch=10 n=35 v=111
84360 Off ch=10 n=35 v=64
84480 On ch=10 n=35 v=111
84600 Off ch=10 n=35 v=64
85200 On ch=10 n=35 v=111
85320 Off ch=10 n=35 v=64
85440 On ch=10 n=35 v=111
85560 Off ch=10 n=35 v=64
85680 On ch=10 n=35 v=111
85800 Off ch=10 n=35 v=64
86160 On ch=10 n=35 v=111
86280 Off ch=10 n=35 v=64
86400 On ch=10 n=35 v=111
86520 Off ch=10 n=35 v=64
87120 On ch=10 n=35 v=111
87240 Off ch=10 n=35 v=64
87360 On ch=10 n=35 v=111
87480 Off ch=10 n=35 v=64
88080 On ch=10 n=35 v=111
88200 Off ch=10 n=35 v=64
88320 On ch=10 n=35 v=111
88440 Off ch=10 n=35 v=64
89040 On ch=10 n=35 v=111
89160 Off ch=10 n=35 v=64
89280 On ch=10 n=35 v=111
89400 Off ch=10 n=35 v=64
89520 On ch=10 n=35 v=111
89640 Off ch=10 n=35 v=64
90000 On ch=10 n=35 v=111
90120 Off ch=10 n=35 v=64
90240 On ch=10 n=35 v=111
90360 Off ch=10 n=35 v=64
90960 On ch=10 n=35 v=111
91080 Off ch=10 n=35 v=64
91200 On ch=10 n=35 v=111
91320 Off ch=10 n=35 v=64
91920 On ch=10 n=35 v=111
92040 Off ch=10 n=35 v=64
92160 On ch=10 n=35 v=111
92280 Off ch=10 n=35 v=64
92880 On ch=10 n=35 v=111
93000 Off ch=10 n=35 v=64
93120 On ch=10 n=35 v=111
93240 Off ch=10 n=35 v=64
93360 On ch=10 n=35 v=111
93480 Off ch=10 n=35 v=64
93840 On ch=10 n=35 v=111
93960 Off ch=10 n=35 v=64
94080 On ch=10 n=35 v=111
94200 Off ch=10 n=35 v=64
94800 On ch=10 n=35 v=111
94920 Off ch=10 n=35 v=64
95040 On ch=10 n=35 v=111
95160 Off ch=10 n=35 v=64
95760 On ch=10 n=35 v=111
95880 Off ch=10 n=35 v=64
96000 On ch=10 n=35 v=111
96120 Off ch=10 n=35 v=64
96720 On ch=10 n=35 v=111
96840 Off ch=10 n=35 v=64
96960 On ch=10 n=35 v=111
97080 Off ch=10 n=35 v=64
97200 On ch=10 n=35 v=111
97320 Off ch=10 n=35 v=64
97680 On ch=10 n=35 v=111
97800 Off ch=10 n=35 v=64
97920 On ch=10 n=35 v=111
98040 Off ch=10 n=35 v=64
98640 On ch=10 n=35 v=111
98760 Off ch=10 n=35 v=64
98880 On ch=10 n=35 v=111
99000 Off ch=10 n=35 v=64
99600 On ch=10 n=35 v=111
99720 Off ch=10 n=35 v=64
99840 On ch=10 n=35 v=111
99960 Off ch=10 n=35 v=64
100560 On ch=10 n=35 v=111
100680 Off ch=10 n=35 v=64
100800 On ch=10 n=35 v=111
100920 Off ch=10 n=35 v=64
101520 On ch=10 n=35 v=111
101640 Off ch=10 n=35 v=64
101760 On ch=10 n=35 v=111
101880 Off ch=10 n=35 v=64
102480 On ch=10 n=35 v=111
102600 Off ch=10 n=35 v=64
102720 On ch=10 n=35 v=111
102840 Off ch=10 n=35 v=64
102960 On ch=10 n=35 v=111
103080 Off ch=10 n=35 v=64
103440 On ch=10 n=35 v=111
103560 Off ch=10 n=35 v=64
103680 On ch=10 n=35 v=111
103800 Off ch=10 n=35 v=64
104400 On ch=10 n=35 v=111
104520 Off ch=10 n=35 v=64
104640 On ch=10 n=35 v=111
104760 Off ch=10 n=35 v=64
105360 On ch=10 n=35 v=111
105480 Off ch=10 n=35 v=64
105600 On ch=10 n=35 v=111
105720 Off ch=10 n=35 v=64
106320 On ch=10 n=35 v=111
106440 Off ch=10 n=35 v=64
106560 On ch=10 n=35 v=111
106680 Off ch=10 n=35 v=64
106800 On ch=10 n=35 v=111
106920 Off ch=10 n=35 v=64
107280 On ch=10 n=35 v=111
107400 Off ch=10 n=35 v=64
107520 On ch=10 n=35 v=111
107640 Off ch=10 n=35 v=64
108240 On ch=10 n=35 v=111
108360 Off ch=10 n=35 v=64
108480 On ch=10 n=35 v=111
108600 Off ch=10 n=35 v=64
109200 On ch=10 n=35 v=111
109320 Off ch=10 n=35 v=64
109440 On ch=10 n=35 v=111
109560 Off ch=10 n=35 v=64
110160 On ch=10 n=35 v=111
110280 Off ch=10 n=35 v=64
110400 On ch=10 n=35 v=111
110520 Off ch=10 n=35 v=64
110640 On ch=10 n=35 v=111
110760 Off ch=10 n=35 v=64
111120 On ch=10 n=35 v=111
111240 Off ch=10 n=35 v=64
111360 On ch=10 n=35 v=111
111480 Off ch=10 n=35 v=64
112080 On ch=10 n=35 v=111
112200 Off ch=10 n=35 v=64
112320 On ch=10 n=35 v=111
112440 Off ch=10 n=35 v=64
113040 On ch=10 n=35 v=111
113160 Off ch=10 n=35 v=64
113280 On ch=10 n=35 v=111
113400 Off ch=10 n=35 v=64
114000 On ch=10 n=35 v=111
114120 Off ch=10 n=35 v=64
114240 On ch=10 n=35 v=111
114360 Off ch=10 n=35 v=64
114480 On ch=10 n=35 v=111
114600 Off ch=10 n=35 v=64
114960 On ch=10 n=35 v=111
115080 Off ch=10 n=35 v=64
115200 On ch=10 n=35 v=111
115320 Off ch=10 n=35 v=64
115920 On ch=10 n=35 v=111
116040 Off ch=10 n=35 v=64
116160 On ch=10 n=35 v=111
116280 Off ch=10 n=35 v=64
116880 On ch=10 n=35 v=111
117000 Off ch=10 n=35 v=64
117120 On ch=10 n=35 v=111
117240 Off ch=10 n=35 v=64
117840 On ch=10 n=35 v=111
117960 Off ch=10 n=35 v=64
118080 On ch=10 n=35 v=111
118200 Off ch=10 n=35 v=64
118320 On ch=10 n=35 v=111
118440 Off ch=10 n=35 v=64
118800 On ch=10 n=35 v=111
118920 Off ch=10 n=35 v=64
119040 On ch=10 n=35 v=111
119160 Off ch=10 n=35 v=64
119760 On ch=10 n=35 v=111
119880 Off ch=10 n=35 v=64
120000 On ch=10 n=35 v=111
120120 Off ch=10 n=35 v=64
120720 On ch=10 n=35 v=111
120840 Off ch=10 n=35 v=64
120960 On ch=10 n=35 v=111
121080 Off ch=10 n=35 v=64
121680 On ch=10 n=35 v=111
121800 Off ch=10 n=35 v=64
121920 On ch=10 n=35 v=111
122040 Off ch=10 n=35 v=64
122160 On ch=10 n=35 v=111
122280 Off ch=10 n=35 v=64
122640 On ch=10 n=35 v=111
122760 Off ch=10 n=35 v=64
122880 On ch=10 n=35 v=111
123000 Off ch=10 n=35 v=64
123600 On ch=10 n=35 v=111
123720 Off ch=10 n=35 v=64
123840 On ch=10 n=35 v=111
123960 Off ch=10 n=35 v=64
124560 On ch=10 n=35 v=111
124680 Off ch=10 n=35 v=64
124800 On ch=10 n=35 v=111
124920 Off ch=10 n=35 v=64
125520 On ch=10 n=35 v=111
125640 Off ch=10 n=35 v=64
125760 On ch=10 n=35 v=111
125880 Off ch=10 n=35 v=64
126000 On ch=10 n=35 v=111
126120 Off ch=10 n=35 v=64
126480 On ch=10 n=35 v=111
126600 Off ch=10 n=35 v=64
126720 On ch=10 n=35 v=111
126840 Off ch=10 n=35 v=64
127440 On ch=10 n=35 v=111
127560 Off ch=10 n=35 v=64
127680 On ch=10 n=35 v=111
127800 Off ch=10 n=35 v=64
128400 On ch=10 n=35 v=111
128520 Off ch=10 n=35 v=64
128640 On ch=10 n=35 v=111
128760 Off ch=10 n=35 v=64
129360 On ch=10 n=35 v=111
129480 Off ch=10 n=35 v=64
129600 On ch=10 n=35 v=111
129720 Off ch=10 n=35 v=64
130320 On ch=10 n=35 v=111
130440 Off ch=10 n=35 v=64
130560 On ch=10 n=35 v=111
130680 Off ch=10 n=35 v=64
131280 On ch=10 n=35 v=111
131400 Off ch=10 n=35 v=64
131520 On ch=10 n=35 v=111
131640 Off ch=10 n=35 v=64
132240 On ch=10 n=35 v=111
132360 Off ch=10 n=35 v=64
132480 On ch=10 n=35 v=111
132600 Off ch=10 n=35 v=64
133200 On ch=10 n=35 v=111
133320 Off ch=10 n=35 v=64
133440 On ch=10 n=35 v=111
133560 Off ch=10 n=35 v=64
134160 On ch=10 n=35 v=111
134280 Off ch=10 n=35 v=64
134400 On ch=10 n=35 v=111
134520 Off ch=10 n=35 v=64
135120 On ch=10 n=35 v=111
135240 Off ch=10 n=35 v=64
135360 On ch=10 n=35 v=111
135480 Off ch=10 n=35 v=64
135600 On ch=10 n=35 v=111
135720 Off ch=10 n=35 v=64
136080 On ch=10 n=35 v=111
136200 Off ch=10 n=35 v=64
136320 On ch=10 n=35 v=111
136440 Off ch=10 n=35 v=64
137040 On ch=10 n=35 v=111
137160 Off ch=10 n=35 v=64
137280 On ch=10 n=35 v=111
137400 Off ch=10 n=35 v=64
138000 On ch=10 n=35 v=111
138120 Off ch=10 n=35 v=64
138240 On ch=10 n=35 v=111
138360 Off ch=10 n=35 v=64
138960 On ch=10 n=35 v=111
139080 Off ch=10 n=35 v=64
139200 On ch=10 n=35 v=111
139320 Off ch=10 n=35 v=64
139440 On ch=10 n=35 v=111
139560 Off ch=10 n=35 v=64
139920 On ch=10 n=35 v=111
140040 Off ch=10 n=35 v=64
140160 On ch=10 n=35 v=111
140280 Off ch=10 n=35 v=64
140880 On ch=10 n=35 v=111
141000 Off ch=10 n=35 v=64
141120 On ch=10 n=35 v=111
141240 Off ch=10 n=35 v=64
141840 On ch=10 n=35 v=111
141960 Off ch=10 n=35 v=64
142080 On ch=10 n=35 v=111
142200 Off ch=10 n=35 v=64
142800 On ch=10 n=35 v=111
142920 Off ch=10 n=35 v=64
143040 On ch=10 n=35 v=111
143160 Off ch=10 n=35 v=64
143760 On ch=10 n=35 v=111
143880 Off ch=10 n=35 v=64
144000 On ch=10 n=35 v=111
144120 Off ch=10 n=35 v=64
144720 On ch=10 n=35 v=111
144840 Off ch=10 n=35 v=64
144960 On ch=10 n=35 v=111
145080 Off ch=10 n=35 v=64
145680 On ch=10 n=35 v=111
145800 Off ch=10 n=35 v=64
145920 On ch=10 n=35 v=111
146040 Off ch=10 n=35 v=64
146640 On ch=10 n=35 v=111
146760 Off ch=10 n=35 v=64
146880 On ch=10 n=35 v=111
147000 Off ch=10 n=35 v=64
147120 On ch=10 n=35 v=111
147240 Off ch=10 n=35 v=64
147600 On ch=10 n=35 v=111
147720 Off ch=10 n=35 v=64
147840 On ch=10 n=35 v=111
147960 Off ch=10 n=35 v=64
148560 On ch=10 n=35 v=111
148680 Off ch=10 n=35 v=64
148800 On ch=10 n=35 v=111
148920 Off ch=10 n=35 v=64
149520 On ch=10 n=35 v=111
149640 Off ch=10 n=35 v=64
149760 On ch=10 n=35 v=111
149880 Off ch=10 n=35 v=64
150480 On ch=10 n=35 v=111
150600 Off ch=10 n=35 v=64
150720 On ch=10 n=35 v=111
150840 Off ch=10 n=35 v=64
150960 On ch=10 n=35 v=111
151080 Off ch=10 n=35 v=64
151440 On ch=10 n=35 v=111
151560 Off ch=10 n=35 v=64
151680 On ch=10 n=35 v=111
151800 Off ch=10 n=35 v=64
152400 On ch=10 n=35 v=111
152520 Off ch=10 n=35 v=64
152640 On ch=10 n=35 v=111
152760 Off ch=10 n=35 v=64
152880 On ch=10 n=35 v=111
153000 Off ch=10 n=35 v=64
153360 On ch=10 n=35 v=111
153480 Off ch=10 n=35 v=64
153600 On ch=10 n=35 v=111
153720 Off ch=10 n=35 v=64
154320 On ch=10 n=35 v=111
154440 Off ch=10 n=35 v=64
154560 On ch=10 n=35 v=111
154680 Off ch=10 n=35 v=64
154800 On ch=10 n=35 v=111
154920 Off ch=10 n=35 v=64
155280 On ch=10 n=35 v=111
155400 Off ch=10 n=35 v=64
155520 On ch=10 n=35 v=111
155640 Off ch=10 n=35 v=64
156240 On ch=10 n=35 v=111
156360 Off ch=10 n=35 v=64
156480 On ch=10 n=35 v=111
156600 Off ch=10 n=35 v=64
157200 On ch=10 n=35 v=111
157320 Off ch=10 n=35 v=64
157440 On ch=10 n=35 v=111
157560 Off ch=10 n=35 v=64
158160 On ch=10 n=35 v=111
158280 Off ch=10 n=35 v=64
158400 On ch=10 n=35 v=111
158520 Off ch=10 n=35 v=64
158640 On ch=10 n=35 v=111
158760 Off ch=10 n=35 v=64
159120 On ch=10 n=35 v=111
159240 Off ch=10 n=35 v=64
159360 On ch=10 n=35 v=111
159480 Off ch=10 n=35 v=64
160080 On ch=10 n=35 v=111
160200 Off ch=10 n=35 v=64
160320 On ch=10 n=35 v=111
160440 Off ch=10 n=35 v=64
161040 On ch=10 n=35 v=111
161160 Off ch=10 n=35 v=64
161280 On ch=10 n=35 v=111
161400 Off ch=10 n=35 v=64
162000 On ch=10 n=35 v=111
162120 Off ch=10 n=35 v=64
162240 On ch=10 n=35 v=111
162360 Off ch=10 n=35 v=64
162480 On ch=10 n=35 v=111
162600 Off ch=10 n=35 v=64
162960 On ch=10 n=35 v=111
163080 Off ch=10 n=35 v=64
163200 On ch=10 n=35 v=111
163320 Off ch=10 n=35 v=64
163920 On ch=10 n=35 v=111
164040 Off ch=10 n=35 v=64
164160 On ch=10 n=35 v=111
164280 Off ch=10 n=35 v=64
164880 On ch=10 n=35 v=111
165000 Off ch=10 n=35 v=64
165120 On ch=10 n=35 v=111
165240 Off ch=10 n=35 v=64
165840 On ch=10 n=35 v=111
165960 Off ch=10 n=35 v=64
166080 On ch=10 n=35 v=111
166200 Off ch=10 n=35 v=64
166320 On ch=10 n=35 v=111
166440 Off ch=10 n=35 v=64
166800 On ch=10 n=35 v=111
166920 Off ch=10 n=35 v=64
167040 On ch=10 n=35 v=111
167160 Off ch=10 n=35 v=64
167760 On ch=10 n=35 v=111
167880 Off ch=10 n=35 v=64
168000 On ch=10 n=35 v=111
168120 Off ch=10 n=35 v=64
168720 On ch=10 n=35 v=111
168840 Off ch=10 n=35 v=64
168960 On ch=10 n=35 v=111
169080 Off ch=10 n=35 v=64
169680 On ch=10 n=35 v=111
169800 Off ch=10 n=35 v=64
169920 On ch=10 n=35 v=111
170040 Off ch=10 n=35 v=64
170640 On ch=10 n=35 v=111
170760 Off ch=10 n=35 v=64
170880 On ch=10 n=35 v=111
171000 Off ch=10 n=35 v=64
171600 On ch=10 n=35 v=111
171720 Off ch=10 n=35 v=64
171840 On ch=10 n=35 v=111
171960 Off ch=10 n=35 v=64
172560 On ch=10 n=35 v=111
172680 Off ch=10 n=35 v=64
172800 On ch=10 n=35 v=111
172920 Off ch=10 n=35 v=64
173520 On ch=10 n=35 v=111
173640 Off ch=10 n=35 v=64
173760 On ch=10 n=35 v=111
173880 Off ch=10 n=35 v=64
174000 On ch=10 n=35 v=111
174120 Off ch=10 n=35 v=64
174480 On ch=10 n=35 v=111
174600 Off ch=10 n=35 v=64
174720 On ch=10 n=35 v=111
174840 Off ch=10 n=35 v=64
175440 On ch=10 n=35 v=111
175560 Off ch=10 n=35 v=64
175680 On ch=10 n=35 v=111
175800 Off ch=10 n=35 v=64
176400 On ch=10 n=35 v=111
176520 Off ch=10 n=35 v=64
176640 On ch=10 n=35 v=111
176760 Off ch=10 n=35 v=64
177360 On ch=10 n=35 v=111
177480 Off ch=10 n=35 v=64
177600 On ch=10 n=35 v=111
177720 Off ch=10 n=35 v=64
177840 On ch=10 n=35 v=111
177960 Off ch=10 n=35 v=64
178320 On ch=10 n=35 v=111
178440 Off ch=10 n=35 v=64
178560 On ch=10 n=35 v=111
178680 Off ch=10 n=35 v=64
179280 On ch=10 n=35 v=111
179400 Off ch=10 n=35 v=64
179520 On ch=10 n=35 v=111
179640 Off ch=10 n=35 v=64
180240 On ch=10 n=35 v=111
180360 Off ch=10 n=35 v=64
180480 On ch=10 n=35 v=111
180600 Off ch=10 n=35 v=64
181200 On ch=10 n=35 v=111
181320 Off ch=10 n=35 v=64
181440 On ch=10 n=35 v=111
181560 Off ch=10 n=35 v=64
181680 On ch=10 n=35 v=111
181800 Off ch=10 n=35 v=64
182160 On ch=10 n=35 v=111
182280 Off ch=10 n=35 v=64
182400 On ch=10 n=35 v=111
182520 Off ch=10 n=35 v=64
183120 On ch=10 n=35 v=111
183240 Off ch=10 n=35 v=64
183360 On ch=10 n=35 v=111
183480 Off ch=10 n=35 v=64
184080 On ch=10 n=35 v=111
184200 Off ch=10 n=35 v=64
184320 On ch=10 n=35 v=111
184440 Off ch=10 n=35 v=64
185040 On ch=10 n=35 v=111
185160 Off ch=10 n=35 v=64
185280 On ch=10 n=35 v=111
185400 Off ch=10 n=35 v=64
186000 On ch=10 n=35 v=111
186120 Off ch=10 n=35 v=64
186240 On ch=10 n=35 v=111
186360 Off ch=10 n=35 v=64
186960 On ch=10 n=35 v=111
187080 Off ch=10 n=35 v=64
187200 On ch=10 n=35 v=111
187320 Off ch=10 n=35 v=64
187920 On ch=10 n=35 v=111
188040 Off ch=10 n=35 v=64
188160 On ch=10 n=35 v=111
188280 Off ch=10 n=35 v=64
188880 On ch=10 n=35 v=111
189000 Off ch=10 n=35 v=64
189120 On ch=10 n=35 v=111
189240 Off ch=10 n=35 v=64
189360 On ch=10 n=35 v=111
189480 Off ch=10 n=35 v=64
189840 On ch=10 n=35 v=111
189960 Off ch=10 n=35 v=64
190080 On ch=10 n=35 v=111
190200 Off ch=10 n=35 v=64
190800 On ch=10 n=35 v=111
190920 Off ch=10 n=35 v=64
191040 On ch=10 n=35 v=111
191160 Off ch=10 n=35 v=64
191760 On ch=10 n=35 v=111
191880 Off ch=10 n=35 v=64
192000 On ch=10 n=35 v=111
192120 Off ch=10 n=35 v=64
192720 On ch=10 n=35 v=111
192840 Off ch=10 n=35 v=64
192960 On ch=10 n=35 v=111
193080 Off ch=10 n=35 v=64
193200 On ch=10 n=35 v=111
193320 Off ch=10 n=35 v=64
193680 On ch=10 n=35 v=111
193800 Off ch=10 n=35 v=64
193920 On ch=10 n=35 v=111
194040 Off ch=10 n=35 v=64
194640 On ch=10 n=35 v=111
194760 Off ch=10 n=35 v=64
194880 On ch=10 n=35 v=111
195000 Off ch=10 n=35 v=64
195120 On ch=10 n=35 v=111
195240 Off ch=10 n=35 v=64
195600 On ch=10 n=35 v=111
195720 Off ch=10 n=35 v=64
195840 On ch=10 n=35 v=111
195960 Off ch=10 n=35 v=64
196560 On ch=10 n=35 v=111
196680 Off ch=10 n=35 v=64
196800 On ch=10 n=35 v=111
196920 Off ch=10 n=35 v=64
197040 On ch=10 n=35 v=111
197160 Off ch=10 n=35 v=64
197520 On ch=10 n=35 v=111
197640 Off ch=10 n=35 v=64
197760 On ch=10 n=35 v=111
197880 Off ch=10 n=35 v=64
198480 On ch=10 n=35 v=111
198600 Off ch=10 n=35 v=64
198720 On ch=10 n=35 v=111
198840 Off ch=10 n=35 v=64
198960 On ch=10 n=35 v=111
199080 Off ch=10 n=35 v=64
199440 On ch=10 n=35 v=111
199560 Off ch=10 n=35 v=64
199680 On ch=10 n=35 v=111
199800 Off ch=10 n=35 v=64
200400 On ch=10 n=35 v=111
200520 Off ch=10 n=35 v=64
200640 On ch=10 n=35 v=111
200760 Off ch=10 n=35 v=64
201360 On ch=10 n=35 v=111
201480 Off ch=10 n=35 v=64
201600 On ch=10 n=35 v=111
201720 Off ch=10 n=35 v=64
202320 On ch=10 n=35 v=111
202440 Off ch=10 n=35 v=64
202560 On ch=10 n=35 v=111
202680 Off ch=10 n=35 v=64
202800 On ch=10 n=35 v=111
202920 Off ch=10 n=35 v=64
203280 On ch=10 n=35 v=111
203400 Off ch=10 n=35 v=64
203520 On ch=10 n=35 v=111
203640 Off ch=10 n=35 v=64
204240 On ch=10 n=35 v=111
204360 Off ch=10 n=35 v=64
204480 On ch=10 n=35 v=111
204600 Off ch=10 n=35 v=64
205200 On ch=10 n=35 v=111
205320 Off ch=10 n=35 v=64
205440 On ch=10 n=35 v=111
205560 Off ch=10 n=35 v=64
206160 On ch=10 n=35 v=111
206280 Off ch=10 n=35 v=64
206400 On ch=10 n=35 v=111
206520 Off ch=10 n=35 v=64
206640 On ch=10 n=35 v=111
206760 Off ch=10 n=35 v=64
207120 On ch=10 n=35 v=111
207240 Off ch=10 n=35 v=64
207360 On ch=10 n=35 v=111
207480 Off ch=10 n=35 v=64
208080 On ch=10 n=35 v=111
208200 Off ch=10 n=35 v=64
208320 On ch=10 n=35 v=111
208440 Off ch=10 n=35 v=64
209040 On ch=10 n=35 v=111
209160 Off ch=10 n=35 v=64
209280 On ch=10 n=35 v=111
209400 Off ch=10 n=35 v=64
210000 On ch=10 n=35 v=111
210120 Off ch=10 n=35 v=64
210240 On ch=10 n=35 v=111
210360 Off ch=10 n=35 v=64
210480 On ch=10 n=35 v=111
210600 Off ch=10 n=35 v=64
210960 On ch=10 n=35 v=111
211080 Off ch=10 n=35 v=64
211200 On ch=10 n=35 v=111
211320 Off ch=10 n=35 v=64
211920 On ch=10 n=35 v=111
212040 Off ch=10 n=35 v=64
212160 On ch=10 n=35 v=111
212280 Off ch=10 n=35 v=64
212880 On ch=10 n=35 v=111
213000 Off ch=10 n=35 v=64
213120 On ch=10 n=35 v=111
213240 Off ch=10 n=35 v=64
213840 On ch=10 n=35 v=111
213960 Off ch=10 n=35 v=64
214080 On ch=10 n=35 v=111
214200 Off ch=10 n=35 v=64
214320 On ch=10 n=35 v=111
214440 Off ch=10 n=35 v=64
214800 On ch=10 n=35 v=111
214920 Off ch=10 n=35 v=64
215040 On ch=10 n=35 v=111
215160 Off ch=10 n=35 v=64
215760 On ch=10 n=35 v=111
215880 Off ch=10 n=35 v=64
216000 On ch=10 n=35 v=111
216120 Off ch=10 n=35 v=64
216720 On ch=10 n=35 v=111
216840 Off ch=10 n=35 v=64
216960 On ch=10 n=35 v=111
217080 Off ch=10 n=35 v=64
217680 On ch=10 n=35 v=111
217800 Off ch=10 n=35 v=64
217920 On ch=10 n=35 v=111
218040 Off ch=10 n=35 v=64
218160 On ch=10 n=35 v=111
218280 Off ch=10 n=35 v=64
218640 On ch=10 n=35 v=111
218760 Off ch=10 n=35 v=64
218880 On ch=10 n=35 v=111
219000 Off ch=10 n=35 v=64
219600 On ch=10 n=35 v=111
219720 Off ch=10 n=35 v=64
219840 On ch=10 n=35 v=111
219960 Off ch=10 n=35 v=64
220560 On ch=10 n=35 v=111
220680 Off ch=10 n=35 v=64
220800 On ch=10 n=35 v=111
220920 Off ch=10 n=35 v=64
221520 On ch=10 n=35 v=111
221640 Off ch=10 n=35 v=64
221760 On ch=10 n=35 v=111
221880 Off ch=10 n=35 v=64
222000 On ch=10 n=35 v=111
222120 Off ch=10 n=35 v=64
222480 On ch=10 n=35 v=111
222600 Off ch=10 n=35 v=64
222720 On ch=10 n=35 v=111
222840 Off ch=10 n=35 v=64
223440 On ch=10 n=35 v=111
223560 Off ch=10 n=35 v=64
223680 On ch=10 n=35 v=111
223800 Off ch=10 n=35 v=64
224400 On ch=10 n=35 v=111
224520 Off ch=10 n=35 v=64
224640 On ch=10 n=35 v=111
224760 Off ch=10 n=35 v=64
225360 On ch=10 n=35 v=111
225480 Off ch=10 n=35 v=64
225600 On ch=10 n=35 v=111
225720 Off ch=10 n=35 v=64
226320 On ch=10 n=35 v=111
226440 Off ch=10 n=35 v=64
226560 On ch=10 n=35 v=111
226680 Off ch=10 n=35 v=64
227280 On ch=10 n=35 v=111
227400 Off ch=10 n=35 v=64
227520 On ch=10 n=35 v=111
227640 Off ch=10 n=35 v=64
228240 On ch=10 n=35 v=111
228360 Off ch=10 n=35 v=64
228480 On ch=10 n=35 v=111
228600 Off ch=10 n=35 v=64
229200 On ch=10 n=35 v=111
229320 Off ch=10 n=35 v=64
229440 On ch=10 n=35 v=111
229560 Off ch=10 n=35 v=64
229680 On ch=10 n=35 v=111
229800 Off ch=10 n=35 v=64
230160 On ch=10 n=35 v=111
230280 Off ch=10 n=35 v=64
230400 On ch=10 n=35 v=111
230520 Off ch=10 n=35 v=64
231120 On ch=10 n=35 v=111
231240 Off ch=10 n=35 v=64
231360 On ch=10 n=35 v=111
231480 Off ch=10 n=35 v=64
232080 On ch=10 n=35 v=111
232200 Off ch=10 n=35 v=64
232320 On ch=10 n=35 v=111
232440 Off ch=10 n=35 v=64
233040 On ch=10 n=35 v=111
233160 Off ch=10 n=35 v=64
233280 On ch=10 n=35 v=111
233400 Off ch=10 n=35 v=64
233520 On ch=10 n=35 v=111
233640 Off ch=10 n=35 v=64
234000 On ch=10 n=35 v=111
234120 Off ch=10 n=35 v=64
234240 On ch=10 n=35 v=111
234360 Off ch=10 n=35 v=64
234960 On ch=10 n=35 v=111
235080 Off ch=10 n=35 v=64
235200 On ch=10 n=35 v=111
235320 Off ch=10 n=35 v=64
235920 On ch=10 n=35 v=111
236040 Off ch=10 n=35 v=64
236160 On ch=10 n=35 v=111
236280 Off ch=10 n=35 v=64
236880 On ch=10 n=35 v=111
237000 Off ch=10 n=35 v=64
237120 On ch=10 n=35 v=111
237240 Off ch=10 n=35 v=64
237360 On ch=10 n=35 v=111
237480 Off ch=10 n=35 v=64
237840 On ch=10 n=35 v=111
237960 Off ch=10 n=35 v=64
238080 On ch=10 n=35 v=111
238200 Off ch=10 n=35 v=64
238800 On ch=10 n=35 v=111
238920 Off ch=10 n=35 v=64
239040 On ch=10 n=35 v=111
239160 Off ch=10 n=35 v=64
239760 On ch=10 n=35 v=111
239880 Off ch=10 n=35 v=64
240000 On ch=10 n=35 v=111
240120 Off ch=10 n=35 v=64
240720 On ch=10 n=35 v=111
240840 Off ch=10 n=35 v=64
240960 On ch=10 n=35 v=111
241080 Off ch=10 n=35 v=64
241200 On ch=10 n=35 v=111
241320 Off ch=10 n=35 v=64
241680 On ch=10 n=35 v=111
241800 Off ch=10 n=35 v=64
241920 On ch=10 n=35 v=111
242040 Off ch=10 n=35 v=64
242640 On ch=10 n=35 v=111
242760 Off ch=10 n=35 v=64
242880 On ch=10 n=35 v=111
243000 Off ch=10 n=35 v=64
243600 On ch=10 n=35 v=111
243720 Off ch=10 n=35 v=64
243840 On ch=10 n=35 v=111
243960 Off ch=10 n=35 v=64
244560 On ch=10 n=35 v=111
244680 Off ch=10 n=35 v=64
244800 On ch=10 n=35 v=111
244920 Off ch=10 n=35 v=64
245040 On ch=10 n=35 v=111
245160 Off ch=10 n=35 v=64
245520 On ch=10 n=35 v=111
245640 Off ch=10 n=35 v=64
245760 On ch=10 n=35 v=111
245880 Off ch=10 n=35 v=64
246480 On ch=10 n=35 v=111
246600 Off ch=10 n=35 v=64
246720 On ch=10 n=35 v=111
246840 Off ch=10 n=35 v=64
247440 On ch=10 n=35 v=111
247560 Off ch=10 n=35 v=64
247680 On ch=10 n=35 v=111
247800 Off ch=10 n=35 v=64
248400 On ch=10 n=35 v=111
248520 Off ch=10 n=35 v=64
248640 On ch=10 n=35 v=111
248760 Off ch=10 n=35 v=64
249360 On ch=10 n=35 v=111
249480 Off ch=10 n=35 v=64
249600 On ch=10 n=35 v=111
249720 Off ch=10 n=35 v=64
250320 On ch=10 n=35 v=111
250440 Off ch=10 n=35 v=64
250560 On ch=10 n=35 v=111
250680 Off ch=10 n=35 v=64
250800 On ch=10 n=35 v=111
250920 Off ch=10 n=35 v=64
251280 On ch=10 n=35 v=111
251400 Off ch=10 n=35 v=64
251520 On ch=10 n=35 v=111
251640 Off ch=10 n=35 v=64
252240 On ch=10 n=35 v=111
252360 Off ch=10 n=35 v=64
252480 On ch=10 n=35 v=111
252600 Off ch=10 n=35 v=64
253200 On ch=10 n=35 v=111
253320 Off ch=10 n=35 v=64
253440 On ch=10 n=35 v=111
253560 Off ch=10 n=35 v=64
254160 On ch=10 n=35 v=111
254280 Off ch=10 n=35 v=64
254400 On ch=10 n=35 v=111
254520 Off ch=10 n=35 v=64
254640 On ch=10 n=35 v=111
254760 Off ch=10 n=35 v=64
255120 On ch=10 n=35 v=111
255240 Off ch=10 n=35 v=64
255360 On ch=10 n=35 v=111
255480 Off ch=10 n=35 v=64
256080 On ch=10 n=35 v=111
256200 Off ch=10 n=35 v=64
256320 On ch=10 n=35 v=111
256440 Off ch=10 n=35 v=64
257040 On ch=10 n=35 v=111
257160 Off ch=10 n=35 v=64
257280 On ch=10 n=35 v=111
257400 Off ch=10 n=35 v=64
258000 On ch=10 n=35 v=111
258120 Off ch=10 n=35 v=64
258240 On ch=10 n=35 v=111
258360 Off ch=10 n=35 v=64
258480 On ch=10 n=35 v=111
258600 Off ch=10 n=35 v=64
258960 On ch=10 n=35 v=111
259080 Off ch=10 n=35 v=64
259200 On ch=10 n=35 v=111
259320 Off ch=10 n=35 v=64
259920 On ch=10 n=35 v=111
260040 Off ch=10 n=35 v=64
260160 On ch=10 n=35 v=111
260280 Off ch=10 n=35 v=64
260880 On ch=10 n=35 v=111
261000 Off ch=10 n=35 v=64
261120 On ch=10 n=35 v=111
261240 Off ch=10 n=35 v=64
261840 On ch=10 n=35 v=111
261960 Off ch=10 n=35 v=64
262080 On ch=10 n=35 v=111
262200 Off ch=10 n=35 v=64
262800 On ch=10 n=35 v=111
262920 Off ch=10 n=35 v=64
263040 On ch=10 n=35 v=111
263160 Off ch=10 n=35 v=64
263760 On ch=10 n=35 v=111
263880 Off ch=10 n=35 v=64
264000 On ch=10 n=35 v=111
264120 Off ch=10 n=35 v=64
264720 On ch=10 n=35 v=111
264840 Off ch=10 n=35 v=64
264960 On ch=10 n=35 v=111
265080 Off ch=10 n=35 v=64
265680 On ch=10 n=35 v=111
265800 Off ch=10 n=35 v=64
265920 On ch=10 n=35 v=111
266040 Off ch=10 n=35 v=64
266160 On ch=10 n=35 v=111
266280 Off ch=10 n=35 v=64
266640 On ch=10 n=35 v=111
266760 Off ch=10 n=35 v=64
266880 On ch=10 n=35 v=111
267000 Off ch=10 n=35 v=64
267600 On ch=10 n=35 v=111
267720 Off ch=10 n=35 v=64
267840 On ch=10 n=35 v=111
267960 Off ch=10 n=35 v=64
268560 On ch=10 n=35 v=111
268680 Off ch=10 n=35 v=64
268800 On ch=10 n=35 v=111
268920 Off ch=10 n=35 v=64
269520 On ch=10 n=35 v=111
269640 Off ch=10 n=35 v=64
269760 On ch=10 n=35 v=111
269880 Off ch=10 n=35 v=64
270000 On ch=10 n=35 v=111
270120 Off ch=10 n=35 v=64
270480 On ch=10 n=35 v=111
270600 Off ch=10 n=35 v=64
270720 On ch=10 n=35 v=111
270840 Off ch=10 n=35 v=64
271440 On ch=10 n=35 v=111
271560 Off ch=10 n=35 v=64
271680 On ch=10 n=35 v=111
271800 Off ch=10 n=35 v=64
272400 On ch=10 n=35 v=111
272520 Off ch=10 n=35 v=64
272640 On ch=10 n=35 v=111
272760 Off ch=10 n=35 v=64
273360 On ch=10 n=35 v=111
273480 Off ch=10 n=35 v=64
273600 On ch=10 n=35 v=111
273720 Off ch=10 n=35 v=64
273840 On ch=10 n=35 v=111
273960 Off ch=10 n=35 v=64
274320 On ch=10 n=35 v=111
274440 Off ch=10 n=35 v=64
274560 On ch=10 n=35 v=111
274680 Off ch=10 n=35 v=64
275280 On ch=10 n=35 v=111
275400 Off ch=10 n=35 v=64
275520 On ch=10 n=35 v=111
275640 Off ch=10 n=35 v=64
276240 On ch=10 n=35 v=111
276360 Off ch=10 n=35 v=64
276480 On ch=10 n=35 v=111
276600 Off ch=10 n=35 v=64
277200 On ch=10 n=35 v=111
277320 Off ch=10 n=35 v=64
277440 On ch=10 n=35 v=111
277560 Off ch=10 n=35 v=64
278160 On ch=10 n=35 v=111
278280 Off ch=10 n=35 v=64
278400 On ch=10 n=35 v=111
278520 Off ch=10 n=35 v=64
279120 On ch=10 n=35 v=111
279240 Off ch=10 n=35 v=64
279360 On ch=10 n=35 v=111
279480 Off ch=10 n=35 v=64
280080 On ch=10 n=35 v=111
280200 Off ch=10 n=35 v=64
280320 On ch=10 n=35 v=111
280440 Off ch=10 n=35 v=64
281040 On ch=10 n=35 v=111
281160 Off ch=10 n=35 v=64
281280 On ch=10 n=35 v=111
281400 Off ch=10 n=35 v=64
281520 On ch=10 n=35 v=111
281640 Off ch=10 n=35 v=64
282000 On ch=10 n=35 v=111
282120 Off ch=10 n=35 v=64
282240 On ch=10 n=35 v=111
282360 Off ch=10 n=35 v=64
282960 On ch=10 n=35 v=111
283080 Off ch=10 n=35 v=64
283200 On ch=10 n=35 v=111
283320 Off ch=10 n=35 v=64
283920 On ch=10 n=35 v=111
284040 Off ch=10 n=35 v=64
284160 On ch=10 n=35 v=111
284280 Off ch=10 n=35 v=64
284880 On ch=10 n=35 v=111
285000 Off ch=10 n=35 v=64
285120 On ch=10 n=35 v=111
285240 Off ch=10 n=35 v=64
285360 On ch=10 n=35 v=111
285480 Off ch=10 n=35 v=64
285840 On ch=10 n=35 v=111
285960 Off ch=10 n=35 v=64
286080 On ch=10 n=35 v=111
286200 Off ch=10 n=35 v=64
286800 On ch=10 n=35 v=111
286920 Off ch=10 n=35 v=64
287040 On ch=10 n=35 v=111
287160 Off ch=10 n=35 v=64
287760 On ch=10 n=35 v=111
287880 Off ch=10 n=35 v=64
288000 On ch=10 n=35 v=111
288120 Off ch=10 n=35 v=64
288720 On ch=10 n=35 v=111
288840 Off ch=10 n=35 v=64
288960 On ch=10 n=35 v=111
289080 Off ch=10 n=35 v=64
289200 On ch=10 n=35 v=111
289320 Off ch=10 n=35 v=64
289680 On ch=10 n=35 v=111
289800 Off ch=10 n=35 v=64
289920 On ch=10 n=35 v=111
290040 Off ch=10 n=35 v=64
290640 On ch=10 n=35 v=111
290760 Off ch=10 n=35 v=64
290880 On ch=10 n=35 v=111
291000 Off ch=10 n=35 v=64
291600 On ch=10 n=35 v=111
291720 Off ch=10 n=35 v=64
293760 On ch=10 n=35 v=111
293880 Off ch=10 n=35 v=64
294480 On ch=10 n=35 v=111
294600 Off ch=10 n=35 v=64
294720 On ch=10 n=35 v=111
294840 Off ch=10 n=35 v=64
295440 On ch=10 n=35 v=111
295560 Off ch=10 n=35 v=64
295680 On ch=10 n=35 v=111
295800 Off ch=10 n=35 v=64
296400 On ch=10 n=35 v=111
296520 Off ch=10 n=35 v=64
296640 On ch=10 n=35 v=111
296760 Off ch=10 n=35 v=64
296880 On ch=10 n=35 v=111
297000 Off ch=10 n=35 v=64
297360 On ch=10 n=35 v=111
297480 Off ch=10 n=35 v=64
297600 On ch=10 n=35 v=111
297720 Off ch=10 n=35 v=64
298320 On ch=10 n=35 v=111
298440 Off ch=10 n=35 v=64
298560 On ch=10 n=35 v=111
298680 Off ch=10 n=35 v=64
299280 On ch=10 n=35 v=111
299400 Off ch=10 n=35 v=64
299520 On ch=10 n=35 v=111
299640 Off ch=10 n=35 v=64
300240 On ch=10 n=35 v=111
300360 Off ch=10 n=35 v=64
300480 On ch=10 n=35 v=111
300600 Off ch=10 n=35 v=64
300720 On ch=10 n=35 v=111
300840 Off ch=10 n=35 v=64
301200 On ch=10 n=35 v=111
301320 Off ch=10 n=35 v=64
301440 On ch=10 n=35 v=111
301560 Off ch=10 n=35 v=64
302160 On ch=10 n=35 v=111
302280 Off ch=10 n=35 v=64
302400 On ch=10 n=35 v=111
302520 Off ch=10 n=35 v=64
303120 On ch=10 n=35 v=111
303240 Off ch=10 n=35 v=64
303360 On ch=10 n=35 v=111
303480 Off ch=10 n=35 v=64
304080 On ch=10 n=35 v=111
304200 Off ch=10 n=35 v=64
304320 On ch=10 n=35 v=111
304440 Off ch=10 n=35 v=64
304560 On ch=10 n=35 v=111
304680 Off ch=10 n=35 v=64
305040 On ch=10 n=35 v=111
305160 Off ch=10 n=35 v=64
305280 On ch=10 n=35 v=111
305400 Off ch=10 n=35 v=64
306000 On ch=10 n=35 v=111
306120 Off ch=10 n=35 v=64
306240 On ch=10 n=35 v=111
306360 Off ch=10 n=35 v=64
306960 On ch=10 n=35 v=111
307080 Off ch=10 n=35 v=64
307200 On ch=10 n=35 v=111
307320 Off ch=10 n=35 v=64
307920 On ch=10 n=35 v=111
308040 Off ch=10 n=35 v=64
308160 On ch=10 n=35 v=111
308280 Off ch=10 n=35 v=64
308880 On ch=10 n=35 v=111
309000 Off ch=10 n=35 v=64
309120 On ch=10 n=35 v=111
309240 Off ch=10 n=35 v=64
309840 On ch=10 n=35 v=111
309960 Off ch=10 n=35 v=64
310080 On ch=10 n=35 v=111
310200 Off ch=10 n=35 v=64
310800 On ch=10 n=35 v=111
310920 Off ch=10 n=35 v=64
311040 On ch=10 n=35 v=111
311160 Off ch=10 n=35 v=64
311760 On ch=10 n=35 v=111
311880 Off ch=10 n=35 v=64
312000 On ch=10 n=35 v=111
312120 Off ch=10 n=35 v=64
312240 On ch=10 n=35 v=111
312360 Off ch=10 n=35 v=64
312720 On ch=10 n=35 v=111
312840 Off ch=10 n=35 v=64
312960 On ch=10 n=35 v=111
313080 Off ch=10 n=35 v=64
313680 On ch=10 n=35 v=111
313800 Off ch=10 n=35 v=64
313920 On ch=10 n=35 v=111
314040 Off ch=10 n=35 v=64
314640 On ch=10 n=35 v=111
314760 Off ch=10 n=35 v=64
314880 On ch=10 n=35 v=111
315000 Off ch=10 n=35 v=64
315600 On ch=10 n=35 v=111
315720 Off ch=10 n=35 v=64
315840 On ch=10 n=35 v=111
315960 Off ch=10 n=35 v=64
316080 On ch=10 n=35 v=111
316200 Off ch=10 n=35 v=64
316560 On ch=10 n=35 v=111
316680 Off ch=10 n=35 v=64
316800 On ch=10 n=35 v=111
316920 Off ch=10 n=35 v=64
317520 On ch=10 n=35 v=111
317640 Off ch=10 n=35 v=64
317760 On ch=10 n=35 v=111
317880 Off ch=10 n=35 v=64
318480 On ch=10 n=35 v=111
318600 Off ch=10 n=35 v=64
318720 On ch=10 n=35 v=111
318840 Off ch=10 n=35 v=64
319440 On ch=10 n=35 v=111
319560 Off ch=10 n=35 v=64
319680 On ch=10 n=35 v=111
319800 Off ch=10 n=35 v=64
319920 On ch=10 n=35 v=111
320040 Off ch=10 n=35 v=64
320400 On ch=10 n=35 v=111
320520 Off ch=10 n=35 v=64
320640 On ch=10 n=35 v=111
320760 Off ch=10 n=35 v=64
321360 On ch=10 n=35 v=111
321480 Off ch=10 n=35 v=64
321600 On ch=10 n=35 v=111
321720 Off ch=10 n=35 v=64
322320 On ch=10 n=35 v=111
322440 Off ch=10 n=35 v=64
322560 On ch=10 n=35 v=111
322680 Off ch=10 n=35 v=64
322800 On ch=10 n=35 v=111
322920 Off ch=10 n=35 v=64
323040 On ch=10 n=35 v=111
323160 Off ch=10 n=35 v=64
323280 On ch=10 n=35 v=111
323380 Off ch=10 n=35 v=64
323520 On ch=10 n=35 v=111
323640 Off ch=10 n=35 v=64
323760 On ch=10 n=35 v=111
323880 Off ch=10 n=35 v=64
324000 On ch=10 n=35 v=111
324100 Off ch=10 n=35 v=64
324240 On ch=10 n=35 v=111
324340 Off ch=10 n=35 v=64
324480 On ch=10 n=35 v=111
324600 Off ch=10 n=35 v=64
324720 On ch=10 n=35 v=111
324840 Off ch=10 n=35 v=64
324960 On ch=10 n=35 v=111
325080 Off ch=10 n=35 v=64
325200 On ch=10 n=35 v=111
325300 Off ch=10 n=35 v=64
325440 On ch=10 n=35 v=111
325560 Off ch=10 n=35 v=64
325680 On ch=10 n=35 v=111
325800 Off ch=10 n=35 v=64
325920 On ch=10 n=35 v=111
326020 Off ch=10 n=35 v=64
326160 On ch=10 n=35 v=111
326260 Off ch=10 n=35 v=64
326400 On ch=10 n=35 v=111
326520 Off ch=10 n=35 v=64
326640 On ch=10 n=35 v=111
326760 Off ch=10 n=35 v=64
326880 On ch=10 n=35 v=111
327000 Off ch=10 n=35 v=64
327120 On ch=10 n=35 v=111
327220 Off ch=10 n=35 v=64
327360 On ch=10 n=35 v=111
327480 Off ch=10 n=35 v=64
327600 On ch=10 n=35 v=111
327720 Off ch=10 n=35 v=64
327840 On ch=10 n=35 v=111
327940 Off ch=10 n=35 v=64
328080 On ch=10 n=35 v=111
328180 Off ch=10 n=35 v=64
328320 On ch=10 n=36 v=103
328440 Off ch=10 n=36 v=64
328560 On ch=10 n=36 v=103
328680 Off ch=10 n=36 v=64
328800 On ch=10 n=36 v=103
328920 Off ch=10 n=36 v=64
329040 On ch=10 n=36 v=103
329160 Off ch=10 n=36 v=64
329280 On ch=10 n=36 v=103
329400 Off ch=10 n=36 v=64
329520 On ch=10 n=36 v=103
329640 Off ch=10 n=36 v=64
329760 On ch=10 n=36 v=103
329880 Off ch=10 n=36 v=64
330000 On ch=10 n=36 v=103
330120 Off ch=10 n=36 v=64
330240 On ch=10 n=36 v=103
330360 Off ch=10 n=36 v=64
330480 On ch=10 n=36 v=103
330600 Off ch=10 n=36 v=64
330720 On ch=10 n=36 v=103
330840 Off ch=10 n=36 v=64
330960 On ch=10 n=36 v=103
331080 Off ch=10 n=36 v=64
331200 On ch=10 n=36 v=103
331320 Off ch=10 n=36 v=64
331440 On ch=10 n=36 v=103
331560 Off ch=10 n=36 v=64
331680 On ch=10 n=36 v=103
331800 Off ch=10 n=36 v=64
331920 On ch=10 n=36 v=103
332040 Off ch=10 n=36 v=64
332160 On ch=10 n=36 v=103
332280 Off ch=10 n=36 v=64
332400 On ch=10 n=36 v=103
332520 Off ch=10 n=36 v=64
332640 On ch=10 n=36 v=103
332760 Off ch=10 n=36 v=64
332880 On ch=10 n=36 v=103
333000 Off ch=10 n=36 v=64
333120 On ch=10 n=36 v=103
333240 Off ch=10 n=36 v=64
333360 On ch=10 n=36 v=103
333480 Off ch=10 n=36 v=64
333600 On ch=10 n=36 v=103
333720 Off ch=10 n=36 v=64
333840 On ch=10 n=36 v=103
333960 Off ch=10 n=36 v=64
334080 On ch=10 n=36 v=103
334200 Off ch=10 n=36 v=64
334320 On ch=10 n=36 v=103
334440 Off ch=10 n=36 v=64
334560 On ch=10 n=36 v=103
334680 Off ch=10 n=36 v=64
334800 On ch=10 n=36 v=103
334920 Off ch=10 n=36 v=64
335040 On ch=10 n=36 v=103
335160 Off ch=10 n=36 v=64
335280 On ch=10 n=36 v=103
335400 Off ch=10 n=36 v=64
335520 On ch=10 n=36 v=103
335640 Off ch=10 n=36 v=64
335760 On ch=10 n=36 v=103
335880 Off ch=10 n=36 v=64
336000 On ch=10 n=36 v=103
336120 Off ch=10 n=36 v=64
336240 On ch=10 n=36 v=103
336360 Off ch=10 n=36 v=64
336480 On ch=10 n=36 v=103
336600 Off ch=10 n=36 v=64
336720 On ch=10 n=36 v=103
336840 Off ch=10 n=36 v=64
336960 On ch=10 n=36 v=103
337080 Off ch=10 n=36 v=64
337200 On ch=10 n=36 v=103
337320 Off ch=10 n=36 v=64
337440 On ch=10 n=36 v=103
337560 Off ch=10 n=36 v=64
337680 On ch=10 n=36 v=103
337800 Off ch=10 n=36 v=64
337920 On ch=10 n=36 v=103
338040 Off ch=10 n=36 v=64
338160 On ch=10 n=36 v=103
338280 Off ch=10 n=36 v=64
338400 On ch=10 n=36 v=103
338520 Off ch=10 n=36 v=64
338640 On ch=10 n=36 v=103
338760 Off ch=10 n=36 v=64
338880 On ch=10 n=36 v=103
339000 Off ch=10 n=36 v=64
339120 On ch=10 n=36 v=103
339240 Off ch=10 n=36 v=64
339360 On ch=10 n=36 v=103
339480 Off ch=10 n=36 v=64
339600 On ch=10 n=36 v=103
339720 Off ch=10 n=36 v=64
339840 On ch=10 n=36 v=103
339960 Off ch=10 n=36 v=64
340080 On ch=10 n=36 v=103
340200 Off ch=10 n=36 v=64
340320 On ch=10 n=36 v=103
340440 Off ch=10 n=36 v=64
340560 On ch=10 n=36 v=103
340680 Off ch=10 n=36 v=64
340800 On ch=10 n=36 v=103
340920 Off ch=10 n=36 v=64
341040 On ch=10 n=36 v=103
341160 Off ch=10 n=36 v=64
341280 On ch=10 n=36 v=103
341400 Off ch=10 n=36 v=64
341520 On ch=10 n=36 v=103
341640 Off ch=10 n=36 v=64
341760 On ch=10 n=36 v=103
341880 Off ch=10 n=36 v=64
342000 On ch=10 n=36 v=103
342120 Off ch=10 n=36 v=64
342240 On ch=10 n=36 v=103
342360 Off ch=10 n=36 v=64
342480 On ch=10 n=36 v=103
342600 Off ch=10 n=36 v=64
342720 On ch=10 n=36 v=103
342840 Off ch=10 n=36 v=64
342960 On ch=10 n=36 v=103
343080 Off ch=10 n=36 v=64
343200 On ch=10 n=36 v=103
343320 Off ch=10 n=36 v=64
343440 On ch=10 n=36 v=103
343560 Off ch=10 n=36 v=64
343680 On ch=10 n=36 v=103
343800 Off ch=10 n=36 v=64
343920 On ch=10 n=36 v=103
344040 Off ch=10 n=36 v=64
344160 On ch=10 n=36 v=103
344280 Off ch=10 n=36 v=64
344400 On ch=10 n=36 v=103
344520 Off ch=10 n=36 v=64
344640 On ch=10 n=36 v=103
344760 Off ch=10 n=36 v=64
344880 On ch=10 n=36 v=103
345000 Off ch=10 n=36 v=64
345120 On ch=10 n=36 v=103
345240 Off ch=10 n=36 v=64
345360 On ch=10 n=36 v=103
345480 Off ch=10 n=36 v=64
345600 On ch=10 n=36 v=103
345720 Off ch=10 n=36 v=64
345840 On ch=10 n=36 v=103
345960 Off ch=10 n=36 v=64
346080 On ch=10 n=36 v=103
346200 Off ch=10 n=36 v=64
346320 On ch=10 n=36 v=103
346440 Off ch=10 n=36 v=64
346560 On ch=10 n=36 v=103
346680 Off ch=10 n=36 v=64
346800 On ch=10 n=36 v=103
346920 Off ch=10 n=36 v=64
347040 On ch=10 n=36 v=103
347160 Off ch=10 n=36 v=64
347280 On ch=10 n=36 v=103
347400 Off ch=10 n=36 v=64
347520 On ch=10 n=36 v=103
347640 Off ch=10 n=36 v=64
347760 On ch=10 n=36 v=103
347880 Off ch=10 n=36 v=64
348000 On ch=10 n=36 v=103
348120 Off ch=10 n=36 v=64
348240 On ch=10 n=36 v=103
348360 Off ch=10 n=36 v=64
348480 On ch=10 n=36 v=103
348600 Off ch=10 n=36 v=64
348720 On ch=10 n=36 v=103
348840 Off ch=10 n=36 v=64
348960 On ch=10 n=36 v=103
349080 Off ch=10 n=36 v=64
349200 On ch=10 n=36 v=103
349320 Off ch=10 n=36 v=64
349440 On ch=10 n=36 v=103
349560 Off ch=10 n=36 v=64
349680 On ch=10 n=36 v=103
349800 Off ch=10 n=36 v=64
349920 On ch=10 n=36 v=103
350040 Off ch=10 n=36 v=64
350160 On ch=10 n=36 v=103
350280 Off ch=10 n=36 v=64
350400 On ch=10 n=36 v=103
350520 Off ch=10 n=36 v=64
350640 On ch=10 n=36 v=103
350760 Off ch=10 n=36 v=64
350880 On ch=10 n=36 v=103
351000 Off ch=10 n=36 v=64
351120 On ch=10 n=36 v=103
351240 Off ch=10 n=36 v=64
351360 On ch=10 n=36 v=103
351480 Off ch=10 n=36 v=64
351600 On ch=10 n=36 v=103
351720 Off ch=10 n=36 v=64
351840 On ch=10 n=36 v=103
351960 Off ch=10 n=36 v=64
352080 On ch=10 n=36 v=103
352200 Off ch=10 n=36 v=64
352320 On ch=10 n=36 v=103
352440 Off ch=10 n=36 v=64
352560 On ch=10 n=36 v=103
352680 Off ch=10 n=36 v=64
352800 On ch=10 n=36 v=103
352920 Off ch=10 n=36 v=64
353040 On ch=10 n=36 v=103
353160 Off ch=10 n=36 v=64
353280 On ch=10 n=36 v=103
353400 Off ch=10 n=36 v=64
353520 On ch=10 n=36 v=103
353640 Off ch=10 n=36 v=64
353760 On ch=10 n=36 v=103
353880 Off ch=10 n=36 v=64
354000 On ch=10 n=36 v=103
354120 Off ch=10 n=36 v=64
354240 On ch=10 n=36 v=103
354360 Off ch=10 n=36 v=64
354480 On ch=10 n=36 v=103
354600 Off ch=10 n=36 v=64
354720 On ch=10 n=36 v=103
354840 Off ch=10 n=36 v=64
354960 On ch=10 n=36 v=103
355080 Off ch=10 n=36 v=64
355200 On ch=10 n=36 v=103
355320 Off ch=10 n=36 v=64
355440 On ch=10 n=36 v=103
355560 Off ch=10 n=36 v=64
355680 On ch=10 n=36 v=103
355800 Off ch=10 n=36 v=64
355920 On ch=10 n=36 v=103
356040 Off ch=10 n=36 v=64
356160 On ch=10 n=36 v=103
356280 Off ch=10 n=36 v=64
356400 On ch=10 n=36 v=103
356520 Off ch=10 n=36 v=64
356640 On ch=10 n=36 v=103
356760 Off ch=10 n=36 v=64
356880 On ch=10 n=36 v=103
357000 Off ch=10 n=36 v=64
357120 On ch=10 n=36 v=103
357240 Off ch=10 n=36 v=64
357360 On ch=10 n=36 v=103
357480 Off ch=10 n=36 v=64
357600 On ch=10 n=36 v=103
357720 Off ch=10 n=36 v=64
357840 On ch=10 n=36 v=103
357960 Off ch=10 n=36 v=64
358080 On ch=10 n=36 v=103
358200 Off ch=10 n=36 v=64
358320 On ch=10 n=36 v=103
358440 Off ch=10 n=36 v=64
358560 On ch=10 n=36 v=103
358680 Off ch=10 n=36 v=64
358800 On ch=10 n=36 v=103
358920 Off ch=10 n=36 v=64
359040 On ch=10 n=36 v=103
359160 Off ch=10 n=36 v=64
359280 On ch=10 n=36 v=103
359400 Off ch=10 n=36 v=64
359520 On ch=10 n=36 v=103
359640 Off ch=10 n=36 v=64
359760 On ch=10 n=36 v=103
359880 Off ch=10 n=36 v=64
360000 On ch=10 n=36 v=103
360120 Off ch=10 n=36 v=64
360240 On ch=10 n=36 v=103
360360 Off ch=10 n=36 v=64
360480 On ch=10 n=36 v=103
360600 Off ch=10 n=36 v=64
360720 On ch=10 n=36 v=103
360840 Off ch=10 n=36 v=64
360960 On ch=10 n=36 v=103
361080 Off ch=10 n=36 v=64
361200 On ch=10 n=36 v=103
361320 Off ch=10 n=36 v=64
361440 On ch=10 n=36 v=103
361560 Off ch=10 n=36 v=64
361680 On ch=10 n=36 v=103
361800 Off ch=10 n=36 v=64
361920 On ch=10 n=36 v=103
362040 Off ch=10 n=36 v=64
362160 On ch=10 n=36 v=103
362280 Off ch=10 n=36 v=64
362400 On ch=10 n=36 v=103
362520 Off ch=10 n=36 v=64
362640 On ch=10 n=36 v=103
362760 Off ch=10 n=36 v=64
362880 On ch=10 n=36 v=103
363000 Off ch=10 n=36 v=64
363120 On ch=10 n=36 v=103
363240 Off ch=10 n=36 v=64
363360 On ch=10 n=36 v=103
363480 Off ch=10 n=36 v=64
363600 On ch=10 n=36 v=103
363720 Off ch=10 n=36 v=64
363840 On ch=10 n=36 v=103
363960 Off ch=10 n=36 v=64
364080 On ch=10 n=36 v=103
364200 Off ch=10 n=36 v=64
364320 On ch=10 n=36 v=103
364440 Off ch=10 n=36 v=64
364560 On ch=10 n=36 v=103
364680 Off ch=10 n=36 v=64
364800 On ch=10 n=36 v=103
364920 Off ch=10 n=36 v=64
365040 On ch=10 n=36 v=103
365160 Off ch=10 n=36 v=64
365280 On ch=10 n=36 v=103
365400 Off ch=10 n=36 v=64
365520 On ch=10 n=36 v=103
365640 Off ch=10 n=36 v=64
365760 On ch=10 n=36 v=103
365880 Off ch=10 n=36 v=64
366000 On ch=10 n=36 v=103
366120 Off ch=10 n=36 v=64
366240 On ch=10 n=36 v=103
366360 Off ch=10 n=36 v=64
366480 On ch=10 n=36 v=103
366600 Off ch=10 n=36 v=64
366720 On ch=10 n=36 v=103
366840 Off ch=10 n=36 v=64
366960 On ch=10 n=36 v=103
367080 Off ch=10 n=36 v=64
367200 On ch=10 n=36 v=103
367320 Off ch=10 n=36 v=64
367440 On ch=10 n=36 v=103
367560 Off ch=10 n=36 v=64
367680 On ch=10 n=36 v=103
367800 Off ch=10 n=36 v=64
367920 On ch=10 n=36 v=103
368040 Off ch=10 n=36 v=64
368160 On ch=10 n=36 v=103
368280 Off ch=10 n=36 v=64
368400 On ch=10 n=36 v=103
368520 Off ch=10 n=36 v=64
368640 On ch=10 n=36 v=103
368760 Off ch=10 n=36 v=64
368880 On ch=10 n=36 v=103
369000 Off ch=10 n=36 v=64
369120 On ch=10 n=36 v=103
369240 Off ch=10 n=36 v=64
369360 On ch=10 n=36 v=103
369480 Off ch=10 n=36 v=64
369600 On ch=10 n=36 v=103
369720 Off ch=10 n=36 v=64
369840 On ch=10 n=36 v=103
369960 Off ch=10 n=36 v=64
370080 On ch=10 n=36 v=103
370200 Off ch=10 n=36 v=64
370320 On ch=10 n=36 v=103
370440 Off ch=10 n=36 v=64
370560 On ch=10 n=36 v=113
370680 Off ch=10 n=36 v=64
370800 On ch=10 n=36 v=113
370920 Off ch=10 n=36 v=64
371040 On ch=10 n=36 v=113
371160 Off ch=10 n=36 v=64
371280 On ch=10 n=36 v=113
371400 Off ch=10 n=36 v=64
371520 On ch=10 n=36 v=113
371640 Off ch=10 n=36 v=64
371760 On ch=10 n=36 v=113
371880 Off ch=10 n=36 v=64
372000 On ch=10 n=36 v=113
372120 Off ch=10 n=36 v=64
372240 On ch=10 n=36 v=113
372360 Off ch=10 n=36 v=64
372480 On ch=10 n=36 v=113
372600 Off ch=10 n=36 v=64
372720 On ch=10 n=36 v=113
372840 Off ch=10 n=36 v=64
372960 On ch=10 n=36 v=113
373080 Off ch=10 n=36 v=64
373200 On ch=10 n=36 v=113
373320 Off ch=10 n=36 v=64
373440 On ch=10 n=36 v=113
373560 Off ch=10 n=36 v=64
373680 On ch=10 n=36 v=113
373800 Off ch=10 n=36 v=64
373920 On ch=10 n=36 v=113
374040 Off ch=10 n=36 v=64
374160 On ch=10 n=36 v=113
374280 Off ch=10 n=36 v=64
374400 On ch=10 n=36 v=113
374520 Off ch=10 n=36 v=64
374640 On ch=10 n=36 v=113
374760 Off ch=10 n=36 v=64
374880 On ch=10 n=36 v=113
375000 Off ch=10 n=36 v=64
375120 On ch=10 n=36 v=113
375240 Off ch=10 n=36 v=64
375360 On ch=10 n=36 v=113
375480 Off ch=10 n=36 v=64
375600 On ch=10 n=36 v=113
375720 Off ch=10 n=36 v=64
375840 On ch=10 n=36 v=113
375960 Off ch=10 n=36 v=64
376080 On ch=10 n=36 v=113
376200 Off ch=10 n=36 v=64
378000 On ch=10 n=36 v=127
378120 Off ch=10 n=36 v=64
379280 On ch=10 n=35 v=127
379400 Off ch=10 n=35 v=64
380580 On ch=10 n=35 v=127
380700 Off ch=10 n=35 v=64
382080 Par ch=10 c=68 v=0
382080 Par ch=10 c=67 v=0
382080 Par ch=10 c=66 v=0
382080 Par ch=10 c=65 v=0
382080 Par ch=10 c=10 v=64
382080 Par ch=10 c=8 v=0
382080 Par ch=10 c=4 v=0
382080 PoPr ch=10 n=0 v=0
382080 Pb ch=10 v=8192
382080 ChPr ch=10 v=0
382080 Par ch=10 c=1 v=0
382092 Par ch=10 c=2 v=0
382105 Par ch=10 c=7 v=100
382117 Par ch=10 c=11 v=100
382130 Par ch=10 c=64 v=0
382142 Par ch=10 c=91 v=40
382155 Par ch=10 c=93 v=40
382560 Par ch=10 c=99 v=1
382590 Par ch=10 c=98 v=8
382620 Par ch=10 c=6 v=64
382685 Par ch=10 c=99 v=1
382715 Par ch=10 c=98 v=9
382745 Par ch=10 c=6 v=64
382910 Par ch=10 c=99 v=1
382940 Par ch=10 c=98 v=10
382970 Par ch=10 c=6 v=64
383035 Par ch=10 c=99 v=1
383065 Par ch=10 c=98 v=32
383095 Par ch=10 c=6 v=64
383160 Par ch=10 c=99 v=1
383190 Par ch=10 c=98 v=33
383220 Par ch=10 c=6 v=64
383285 Par ch=10 c=99 v=1
383315 Par ch=10 c=98 v=99
383345 Par ch=10 c=6 v=64
383410 Par ch=10 c=99 v=1
383435 Par ch=10 c=99 v=1
383440 Par ch=10 c=98 v=100
383465 Par ch=10 c=98 v=102
383470 Par ch=10 c=6 v=64
383495 Par ch=10 c=6 v=64
383560 Par ch=10 c=101 v=0
383590 Par ch=10 c=100 v=0
383620 Par ch=10 c=6 v=2
383685 Par ch=10 c=0 v=0
383686 Par ch=10 c=32 v=0
383715 Par ch=10 c=121 v=0
383715 Meta TrkEnd
TrkEnd
MTrk
0 Meta TrkName "Acoustic Snare      "
0 Meta 0x21 00
0 Meta 0x20 09
0 Par ch=10 c=7 v=99
0 Par ch=10 c=10 v=64
0 PrCh ch=10 p=0
2400 On ch=10 n=38 v=96
2520 Off ch=10 n=38 v=64
3360 On ch=10 n=38 v=96
3480 Off ch=10 n=38 v=64
4320 On ch=10 n=38 v=96
4440 Off ch=10 n=38 v=64
5280 On ch=10 n=38 v=96
5400 Off ch=10 n=38 v=64
5760 On ch=10 n=38 v=96
5880 Off ch=10 n=38 v=64
5880 On ch=10 n=38 v=96
6000 Off ch=10 n=38 v=64
6000 On ch=10 n=38 v=96
6120 Off ch=10 n=38 v=64
6240 On ch=10 n=38 v=96
6360 Off ch=10 n=38 v=64
6480 On ch=10 n=38 v=96
6600 Off ch=10 n=38 v=64
7200 On ch=10 n=38 v=96
7320 Off ch=10 n=38 v=64
8160 On ch=10 n=38 v=96
8280 Off ch=10 n=38 v=64
10080 On ch=10 n=38 v=96
10200 Off ch=10 n=38 v=64
11040 On ch=10 n=38 v=96
11160 Off ch=10 n=38 v=64
12000 On ch=10 n=38 v=96
12120 Off ch=10 n=38 v=64
13920 On ch=10 n=38 v=96
14040 Off ch=10 n=38 v=64
14880 On ch=10 n=38 v=96
15000 Off ch=10 n=38 v=64
15840 On ch=10 n=38 v=96
15960 Off ch=10 n=38 v=64
17760 On ch=10 n=38 v=96
17880 Off ch=10 n=38 v=64
18720 On ch=10 n=38 v=96
18840 Off ch=10 n=38 v=64
19680 On ch=10 n=38 v=96
19800 Off ch=10 n=38 v=64
20640 On ch=10 n=38 v=96
20760 Off ch=10 n=38 v=64
21600 On ch=10 n=38 v=96
21720 Off ch=10 n=38 v=64
22560 On ch=10 n=38 v=96
22680 Off ch=10 n=38 v=64
23520 On ch=10 n=38 v=96
23640 Off ch=10 n=38 v=64
24240 On ch=10 n=38 v=96
24360 Off ch=10 n=38 v=64
24360 On ch=10 n=38 v=96
24480 Off ch=10 n=38 v=64
24480 On ch=10 n=38 v=96
24600 Off ch=10 n=38 v=64
24720 On ch=10 n=38 v=96
24840 Off ch=10 n=38 v=64
25440 On ch=10 n=38 v=96
25560 Off ch=10 n=38 v=64
25920 On ch=10 n=38 v=96
26040 Off ch=10 n=38 v=64
26040 On ch=10 n=38 v=96
26160 Off ch=10 n=38 v=64
26160 On ch=10 n=38 v=96
26280 Off ch=10 n=38 v=64
26280 On ch=10 n=38 v=96
26400 Off ch=10 n=38 v=64
27360 On ch=10 n=38 v=96
27480 Off ch=10 n=38 v=64
28080 On ch=10 n=38 v=96
28200 Off ch=10 n=38 v=64
28200 On ch=10 n=38 v=96
28320 Off ch=10 n=38 v=64
28320 On ch=10 n=38 v=96
28440 Off ch=10 n=38 v=64
28560 On ch=10 n=38 v=96
28680 Off ch=10 n=38 v=64
29280 On ch=10 n=38 v=96
29400 Off ch=10 n=38 v=64
30240 On ch=10 n=38 v=96
30360 Off ch=10 n=38 v=64
31200 On ch=10 n=38 v=96
31320 Off ch=10 n=38 v=64
32160 On ch=10 n=38 v=96
32280 Off ch=10 n=38 v=64
33120 On ch=10 n=38 v=96
33240 Off ch=10 n=38 v=64
34080 On ch=10 n=38 v=96
34200 Off ch=10 n=38 v=64
35040 On ch=10 n=38 v=96
35160 Off ch=10 n=38 v=64
35760 On ch=10 n=38 v=96
35880 Off ch=10 n=38 v=64
35880 On ch=10 n=38 v=96
36000 Off ch=10 n=38 v=64
36000 On ch=10 n=38 v=96
36120 Off ch=10 n=38 v=64
36120 On ch=10 n=38 v=96
36240 Off ch=10 n=38 v=64
36240 On ch=10 n=38 v=96
36360 Off ch=10 n=38 v=64
36360 On ch=10 n=38 v=96
36480 Off ch=10 n=38 v=64
36960 On ch=10 n=38 v=96
37080 Off ch=10 n=38 v=64
37680 On ch=10 n=38 v=96
37800 Off ch=10 n=38 v=64
37800 On ch=10 n=38 v=96
37920 Off ch=10 n=38 v=64
37920 On ch=10 n=38 v=96
38040 Off ch=10 n=38 v=64
38040 On ch=10 n=38 v=96
38160 Off ch=10 n=38 v=64
38160 On ch=10 n=38 v=96
38280 Off ch=10 n=38 v=64
38280 On ch=10 n=38 v=96
38400 Off ch=10 n=38 v=64
38880 On ch=10 n=38 v=96
39000 Off ch=10 n=38 v=64
39840 On ch=10 n=38 v=96
39960 Off ch=10 n=38 v=64
40800 On ch=10 n=38 v=96
40920 Off ch=10 n=38 v=64
42720 On ch=10 n=38 v=96
42840 Off ch=10 n=38 v=64
43680 On ch=10 n=38 v=96
43800 Off ch=10 n=38 v=64
44160 On ch=10 n=38 v=96
44280 Off ch=10 n=38 v=64
44280 On ch=10 n=38 v=96
44400 Off ch=10 n=38 v=64
44400 On ch=10 n=38 v=96
44520 Off ch=10 n=38 v=64
44640 On ch=10 n=38 v=96
44760 Off ch=10 n=38 v=64
44880 On ch=10 n=38 v=96
45000 Off ch=10 n=38 v=64
45600 On ch=10 n=38 v=96
45720 Off ch=10 n=38 v=64
46560 On ch=10 n=38 v=96
46680 Off ch=10 n=38 v=64
47520 On ch=10 n=38 v=96
47640 Off ch=10 n=38 v=64
48480 On ch=10 n=38 v=96
48600 Off ch=10 n=38 v=64
49440 On ch=10 n=38 v=96
49560 Off ch=10 n=38 v=64
50400 On ch=10 n=38 v=96
50520 Off ch=10 n=38 v=64
51360 On ch=10 n=38 v=96
51480 Off ch=10 n=38 v=64
52320 On ch=10 n=38 v=96
52440 Off ch=10 n=38 v=64
53040 On ch=10 n=38 v=96
53160 Off ch=10 n=38 v=64
53160 On ch=10 n=38 v=96
53280 Off ch=10 n=38 v=64
53280 On ch=10 n=38 v=96
53400 Off ch=10 n=38 v=64
53520 On ch=10 n=38 v=96
53640 Off ch=10 n=38 v=64
54240 On ch=10 n=38 v=96
54360 Off ch=10 n=38 v=64
54960 On ch=10 n=38 v=96
55080 Off ch=10 n=38 v=64
55080 On ch=10 n=38 v=96
55200 Off ch=10 n=38 v=64
55200 On ch=10 n=38 v=96
55320 Off ch=10 n=38 v=64
55440 On ch=10 n=38 v=96
55560 Off ch=10 n=38 v=64
56160 On ch=10 n=38 v=96
56280 Off ch=10 n=38 v=64
56880 On ch=10 n=38 v=96
57000 Off ch=10 n=38 v=64
57000 On ch=10 n=38 v=96
57120 Off ch=10 n=38 v=64
57120 On ch=10 n=38 v=96
57240 Off ch=10 n=38 v=64
57360 On ch=10 n=38 v=96
57480 Off ch=10 n=38 v=64
58080 On ch=10 n=38 v=96
58200 Off ch=10 n=38 v=64
59040 On ch=10 n=38 v=96
59160 Off ch=10 n=38 v=64
60000 On ch=10 n=38 v=96
60120 Off ch=10 n=38 v=64
60960 On ch=10 n=38 v=96
61080 Off ch=10 n=38 v=64
61920 On ch=10 n=38 v=96
62040 Off ch=10 n=38 v=64
62880 On ch=10 n=38 v=96
63000 Off ch=10 n=38 v=64
63360 On ch=10 n=38 v=96
63480 Off ch=10 n=38 v=64
63600 On ch=10 n=38 v=96
63720 Off ch=10 n=38 v=64
63840 On ch=10 n=38 v=96
63960 Off ch=10 n=38 v=64
64080 On ch=10 n=38 v=96
64200 Off ch=10 n=38 v=64
64320 On ch=10 n=38 v=96
64440 Off ch=10 n=38 v=64
64800 On ch=10 n=38 v=96
64920 Off ch=10 n=38 v=64
65280 On ch=10 n=38 v=96
65400 Off ch=10 n=38 v=64
65520 On ch=10 n=38 v=96
65640 Off ch=10 n=38 v=64
65760 On ch=10 n=38 v=96
65880 Off ch=10 n=38 v=64
66000 On ch=10 n=38 v=96
66120 Off ch=10 n=38 v=64
66240 On ch=10 n=38 v=96
66360 Off ch=10 n=38 v=64
66720 On ch=10 n=38 v=96
66840 Off ch=10 n=38 v=64
67680 On ch=10 n=38 v=102
67800 Off ch=10 n=38 v=64
68640 On ch=10 n=38 v=102
68760 Off ch=10 n=38 v=64
69600 On ch=10 n=38 v=102
69720 Off ch=10 n=38 v=64
70560 On ch=10 n=38 v=102
70680 Off ch=10 n=38 v=64
71520 On ch=10 n=38 v=102
71640 Off ch=10 n=38 v=64
72480 On ch=10 n=38 v=102
72600 Off ch=10 n=38 v=64
73440 On ch=10 n=38 v=102
73560 Off ch=10 n=38 v=64
74400 On ch=10 n=38 v=102
74520 Off ch=10 n=38 v=64
75360 On ch=10 n=38 v=102
75480 Off ch=10 n=38 v=64
76320 On ch=10 n=38 v=102
76440 Off ch=10 n=38 v=64
77280 On ch=10 n=38 v=102
77400 Off ch=10 n=38 v=64
78240 On ch=10 n=38 v=102
78360 Off ch=10 n=38 v=64
79200 On ch=10 n=38 v=102
79320 Off ch=10 n=38 v=64
80160 On ch=10 n=38 v=102
80280 Off ch=10 n=38 v=64
81120 On ch=10 n=38 v=102
81240 Off ch=10 n=38 v=64
82080 On ch=10 n=38 v=102
82200 Off ch=10 n=38 v=64
83040 On ch=10 n=38 v=102
83160 Off ch=10 n=38 v=64
84000 On ch=10 n=38 v=102
84120 Off ch=10 n=38 v=64
84960 On ch=10 n=38 v=102
85080 Off ch=10 n=38 v=64
85700 On ch=10 n=38 v=102
85820 Off ch=10 n=38 v=64
85920 On ch=10 n=38 v=102
85940 Off ch=10 n=38 v=64
85940 On ch=10 n=38 v=102
86060 Off ch=10 n=38 v=64
86080 On ch=10 n=38 v=102
86140 Off ch=10 n=38 v=64
86140 On ch=10 n=38 v=102
86260 Off ch=10 n=38 v=64
86880 On ch=10 n=38 v=102
87000 Off ch=10 n=38 v=64
87840 On ch=10 n=38 v=102
87960 Off ch=10 n=38 v=64
88800 On ch=10 n=38 v=102
88920 Off ch=10 n=38 v=64
89760 On ch=10 n=38 v=102
89880 Off ch=10 n=38 v=64
90720 On ch=10 n=38 v=102
90840 Off ch=10 n=38 v=64
91680 On ch=10 n=38 v=102
91800 Off ch=10 n=38 v=64
92640 On ch=10 n=38 v=102
92760 Off ch=10 n=38 v=64
93600 On ch=10 n=38 v=102
93720 Off ch=10 n=38 v=64
94560 On ch=10 n=38 v=102
94680 Off ch=10 n=38 v=64
95520 On ch=10 n=38 v=102
95640 Off ch=10 n=38 v=64
96480 On ch=10 n=38 v=102
96600 Off ch=10 n=38 v=64
97440 On ch=10 n=38 v=102
97560 Off ch=10 n=38 v=64
98400 On ch=10 n=38 v=102
98520 Off ch=10 n=38 v=64
98880 On ch=10 n=38 v=102
99000 Off ch=10 n=38 v=64
99000 On ch=10 n=38 v=102
99120 Off ch=10 n=38 v=64
99120 On ch=10 n=38 v=102
99240 Off ch=10 n=38 v=64
99240 On ch=10 n=38 v=102
99360 Off ch=10 n=38 v=64
100320 On ch=10 n=38 v=102
100440 Off ch=10 n=38 v=64
101280 On ch=10 n=38 v=102
101400 Off ch=10 n=38 v=64
102240 On ch=10 n=38 v=102
102360 Off ch=10 n=38 v=64
103200 On ch=10 n=38 v=102
103320 Off ch=10 n=38 v=64
104160 On ch=10 n=38 v=102
104280 Off ch=10 n=38 v=64
105120 On ch=10 n=38 v=102
105240 Off ch=10 n=38 v=64
106080 On ch=10 n=38 v=102
106200 Off ch=10 n=38 v=64
107040 On ch=10 n=38 v=102
107160 Off ch=10 n=38 v=64
108000 On ch=10 n=38 v=102
108120 Off ch=10 n=38 v=64
108960 On ch=10 n=38 v=102
109080 Off ch=10 n=38 v=64
109920 On ch=10 n=38 v=102
110040 Off ch=10 n=38 v=64
110880 On ch=10 n=38 v=102
111000 Off ch=10 n=38 v=64
111840 On ch=10 n=38 v=102
111960 Off ch=10 n=38 v=64
112800 On ch=10 n=38 v=102
112920 Off ch=10 n=38 v=64
113760 On ch=10 n=38 v=102
113880 Off ch=10 n=38 v=64
114500 On ch=10 n=38 v=102
114620 Off ch=10 n=38 v=64
114720 On ch=10 n=38 v=102
114740 Off ch=10 n=38 v=64
114740 On ch=10 n=38 v=102
114860 Off ch=10 n=38 v=64
114880 On ch=10 n=38 v=102
114940 Off ch=10 n=38 v=64
114940 On ch=10 n=38 v=102
115060 Off ch=10 n=38 v=64
115680 On ch=10 n=38 v=102
115800 Off ch=10 n=38 v=64
116640 On ch=10 n=38 v=102
116760 Off ch=10 n=38 v=64
117600 On ch=10 n=38 v=102
117720 Off ch=10 n=38 v=64
118560 On ch=10 n=38 v=102
118680 Off ch=10 n=38 v=64
119520 On ch=10 n=38 v=102
119640 Off ch=10 n=38 v=64
120480 On ch=10 n=38 v=102
120600 Off ch=10 n=38 v=64
121440 On ch=10 n=38 v=102
121560 Off ch=10 n=38 v=64
122400 On ch=10 n=38 v=102
122520 Off ch=10 n=38 v=64
123360 On ch=10 n=38 v=102
123480 Off ch=10 n=38 v=64
124320 On ch=10 n=38 v=102
124440 Off ch=10 n=38 v=64
125280 On ch=10 n=38 v=102
125400 Off ch=10 n=38 v=64
126240 On ch=10 n=38 v=102
126360 Off ch=10 n=38 v=64
127200 On ch=10 n=38 v=102
127320 Off ch=10 n=38 v=64
128160 On ch=10 n=38 v=102
128280 Off ch=10 n=38 v=64
129120 On ch=10 n=38 v=102
129240 Off ch=10 n=38 v=64
129600 On ch=10 n=38 v=102
129720 Off ch=10 n=38 v=64
129720 On ch=10 n=38 v=102
129840 Off ch=10 n=38 v=64
129840 On ch=10 n=38 v=102
129960 Off ch=10 n=38 v=64
129960 On ch=10 n=38 v=102
130080 Off ch=10 n=38 v=64
131040 On ch=10 n=38 v=102
131160 Off ch=10 n=38 v=64
132000 On ch=10 n=38 v=102
132120 Off ch=10 n=38 v=64
132960 On ch=10 n=38 v=102
133080 Off ch=10 n=38 v=64
133920 On ch=10 n=38 v=102
134040 Off ch=10 n=38 v=64
134880 On ch=10 n=38 v=102
135000 Off ch=10 n=38 v=64
135840 On ch=10 n=38 v=102
135960 Off ch=10 n=38 v=64
136800 On ch=10 n=38 v=102
136920 Off ch=10 n=38 v=64
137760 On ch=10 n=38 v=102
137880 Off ch=10 n=38 v=64
138720 On ch=10 n=38 v=102
138840 Off ch=10 n=38 v=64
139680 On ch=10 n=38 v=102
139800 Off ch=10 n=38 v=64
140640 On ch=10 n=38 v=102
140760 Off ch=10 n=38 v=64
141600 On ch=10 n=38 v=102
141720 Off ch=10 n=38 v=64
142560 On ch=10 n=38 v=102
142680 Off ch=10 n=38 v=64
143040 On ch=10 n=38 v=102
143160 Off ch=10 n=38 v=64
143160 On ch=10 n=38 v=102
143280 Off ch=10 n=38 v=64
143280 On ch=10 n=38 v=102
143400 Off ch=10 n=38 v=64
143400 On ch=10 n=38 v=102
143520 Off ch=10 n=38 v=64
144480 On ch=10 n=38 v=102
144600 Off ch=10 n=38 v=64
145440 On ch=10 n=38 v=102
145560 Off ch=10 n=38 v=64
146400 On ch=10 n=38 v=102
146520 Off ch=10 n=38 v=64
147360 On ch=10 n=38 v=102
147480 Off ch=10 n=38 v=64
148320 On ch=10 n=38 v=102
148440 Off ch=10 n=38 v=64
149280 On ch=10 n=38 v=102
149400 Off ch=10 n=38 v=64
150240 On ch=10 n=38 v=102
150360 Off ch=10 n=38 v=64
151200 On ch=10 n=38 v=102
151320 Off ch=10 n=38 v=64
152160 On ch=10 n=38 v=102
152280 Off ch=10 n=38 v=64
153120 On ch=10 n=38 v=102
153240 Off ch=10 n=38 v=64
154080 On ch=10 n=38 v=102
154200 Off ch=10 n=38 v=64
155040 On ch=10 n=38 v=102
155160 Off ch=10 n=38 v=64
156000 On ch=10 n=38 v=102
156120 Off ch=10 n=38 v=64
156960 On ch=10 n=38 v=102
157080 Off ch=10 n=38 v=64
157920 On ch=10 n=38 v=102
158040 Off ch=10 n=38 v=64
158880 On ch=10 n=38 v=102
159000 Off ch=10 n=38 v=64
159840 On ch=10 n=38 v=102
159960 Off ch=10 n=38 v=64
160800 On ch=10 n=38 v=102
160920 Off ch=10 n=38 v=64
161760 On ch=10 n=38 v=102
161880 Off ch=10 n=38 v=64
162720 On ch=10 n=38 v=102
162840 Off ch=10 n=38 v=64
163680 On ch=10 n=38 v=102
163800 Off ch=10 n=38 v=64
164640 On ch=10 n=38 v=102
164760 Off ch=10 n=38 v=64
165600 On ch=10 n=38 v=102
165720 Off ch=10 n=38 v=64
166560 On ch=10 n=38 v=102
166680 Off ch=10 n=38 v=64
167520 On ch=10 n=38 v=102
167640 Off ch=10 n=38 v=64
168480 On ch=10 n=38 v=102
168600 Off ch=10 n=38 v=64
169440 On ch=10 n=38 v=102
169560 Off ch=10 n=38 v=64
169920 On ch=10 n=38 v=102
170040 Off ch=10 n=38 v=64
170040 On ch=10 n=38 v=102
170160 Off ch=10 n=38 v=64
170160 On ch=10 n=38 v=102
170280 Off ch=10 n=38 v=64
170280 On ch=10 n=38 v=102
170400 Off ch=10 n=38 v=64
171360 On ch=10 n=38 v=102
171480 Off ch=10 n=38 v=64
172320 On ch=10 n=38 v=102
172440 Off ch=10 n=38 v=64
173280 On ch=10 n=38 v=102
173400 Off ch=10 n=38 v=64
174240 On ch=10 n=38 v=102
174360 Off ch=10 n=38 v=64
175200 On ch=10 n=38 v=102
175320 Off ch=10 n=38 v=64
176160 On ch=10 n=38 v=102
176280 Off ch=10 n=38 v=64
177120 On ch=10 n=38 v=102
177240 Off ch=10 n=38 v=64
178080 On ch=10 n=38 v=102
178200 Off ch=10 n=38 v=64
179040 On ch=10 n=38 v=102
179160 Off ch=10 n=38 v=64
180000 On ch=10 n=38 v=102
180120 Off ch=10 n=38 v=64
180960 On ch=10 n=38 v=102
181080 Off ch=10 n=38 v=64
181920 On ch=10 n=38 v=102
182040 Off ch=10 n=38 v=64
182880 On ch=10 n=38 v=102
183000 Off ch=10 n=38 v=64
183840 On ch=10 n=38 v=102
183960 Off ch=10 n=38 v=64
184800 On ch=10 n=38 v=102
184920 Off ch=10 n=38 v=64
185280 On ch=10 n=38 v=102
185400 Off ch=10 n=38 v=64
185400 On ch=10 n=38 v=102
185520 Off ch=10 n=38 v=64
185520 On ch=10 n=38 v=102
185640 Off ch=10 n=38 v=64
185640 On ch=10 n=38 v=102
185760 Off ch=10 n=38 v=64
186720 On ch=10 n=38 v=102
186840 Off ch=10 n=38 v=64
187680 On ch=10 n=38 v=102
187800 Off ch=10 n=38 v=64
188640 On ch=10 n=38 v=102
188760 Off ch=10 n=38 v=64
189600 On ch=10 n=38 v=102
189720 Off ch=10 n=38 v=64
190560 On ch=10 n=38 v=102
190680 Off ch=10 n=38 v=64
191520 On ch=10 n=38 v=102
191640 Off ch=10 n=38 v=64
192480 On ch=10 n=38 v=102
192600 Off ch=10 n=38 v=64
193440 On ch=10 n=38 v=102
193560 Off ch=10 n=38 v=64
194400 On ch=10 n=38 v=102
194520 Off ch=10 n=38 v=64
195360 On ch=10 n=38 v=102
195480 Off ch=10 n=38 v=64
196320 On ch=10 n=38 v=102
196440 Off ch=10 n=38 v=64
197280 On ch=10 n=38 v=102
197400 Off ch=10 n=38 v=64
198240 On ch=10 n=38 v=102
198360 Off ch=10 n=38 v=64
199200 On ch=10 n=38 v=102
199320 Off ch=10 n=38 v=64
200160 On ch=10 n=38 v=102
200280 Off ch=10 n=38 v=64
201120 On ch=10 n=38 v=102
201240 Off ch=10 n=38 v=64
202080 On ch=10 n=38 v=102
202200 Off ch=10 n=38 v=64
203040 On ch=10 n=38 v=102
203160 Off ch=10 n=38 v=64
204000 On ch=10 n=38 v=102
204120 Off ch=10 n=38 v=64
204960 On ch=10 n=38 v=102
205080 Off ch=10 n=38 v=64
205920 On ch=10 n=38 v=102
206040 Off ch=10 n=38 v=64
206880 On ch=10 n=38 v=102
207000 Off ch=10 n=38 v=64
207840 On ch=10 n=38 v=102
207960 Off ch=10 n=38 v=64
208800 On ch=10 n=38 v=102
208920 Off ch=10 n=38 v=64
209760 On ch=10 n=38 v=102
209880 Off ch=10 n=38 v=64
210500 On ch=10 n=38 v=102
210620 Off ch=10 n=38 v=64
210720 On ch=10 n=38 v=102
210740 Off ch=10 n=38 v=64
210740 On ch=10 n=38 v=102
210860 Off ch=10 n=38 v=64
210880 On ch=10 n=38 v=102
210940 Off ch=10 n=38 v=64
210940 On ch=10 n=38 v=102
211060 Off ch=10 n=38 v=64
211680 On ch=10 n=38 v=102
211800 Off ch=10 n=38 v=64
212640 On ch=10 n=38 v=102
212760 Off ch=10 n=38 v=64
213600 On ch=10 n=38 v=102
213720 Off ch=10 n=38 v=64
214560 On ch=10 n=38 v=102
214680 Off ch=10 n=38 v=64
215520 On ch=10 n=38 v=102
215640 Off ch=10 n=38 v=64
216480 On ch=10 n=38 v=102
216600 Off ch=10 n=38 v=64
217440 On ch=10 n=38 v=102
217560 Off ch=10 n=38 v=64
218400 On ch=10 n=38 v=102
218520 Off ch=10 n=38 v=64
219360 On ch=10 n=38 v=102
219480 Off ch=10 n=38 v=64
220320 On ch=10 n=38 v=102
220440 Off ch=10 n=38 v=64
221280 On ch=10 n=38 v=102
221400 Off ch=10 n=38 v=64
222240 On ch=10 n=38 v=102
222360 Off ch=10 n=38 v=64
223200 On ch=10 n=38 v=102
223320 Off ch=10 n=38 v=64
224160 On ch=10 n=38 v=102
224280 Off ch=10 n=38 v=64
225120 On ch=10 n=38 v=102
225240 Off ch=10 n=38 v=64
225600 On ch=10 n=38 v=102
225720 Off ch=10 n=38 v=64
225720 On ch=10 n=38 v=102
225840 Off ch=10 n=38 v=64
225840 On ch=10 n=38 v=102
225960 Off ch=10 n=38 v=64
225960 On ch=10 n=38 v=102
226080 Off ch=10 n=38 v=64
227040 On ch=10 n=38 v=102
227160 Off ch=10 n=38 v=64
228000 On ch=10 n=38 v=102
228120 Off ch=10 n=38 v=64
228960 On ch=10 n=38 v=102
229080 Off ch=10 n=38 v=64
229920 On ch=10 n=38 v=102
230040 Off ch=10 n=38 v=64
230880 On ch=10 n=38 v=102
231000 Off ch=10 n=38 v=64
231840 On ch=10 n=38 v=102
231960 Off ch=10 n=38 v=64
232800 On ch=10 n=38 v=102
232920 Off ch=10 n=38 v=64
233760 On ch=10 n=38 v=102
233880 Off ch=10 n=38 v=64
234720 On ch=10 n=38 v=102
234840 Off ch=10 n=38 v=64
235680 On ch=10 n=38 v=102
235800 Off ch=10 n=38 v=64
236640 On ch=10 n=38 v=102
236760 Off ch=10 n=38 v=64
237600 On ch=10 n=38 v=102
237720 Off ch=10 n=38 v=64
238560 On ch=10 n=38 v=102
238680 Off ch=10 n=38 v=64
239520 On ch=10 n=38 v=102
239640 Off ch=10 n=38 v=64
240480 On ch=10 n=38 v=102
240600 Off ch=10 n=38 v=64
241440 On ch=10 n=38 v=102
241560 Off ch=10 n=38 v=64
242400 On ch=10 n=38 v=102
242520 Off ch=10 n=38 v=64
243360 On ch=10 n=38 v=102
243480 Off ch=10 n=38 v=64
244320 On ch=10 n=38 v=102
244440 Off ch=10 n=38 v=64
245060 On ch=10 n=38 v=102
245180 Off ch=10 n=38 v=64
245280 On ch=10 n=38 v=102
245300 Off ch=10 n=38 v=64
245300 On ch=10 n=38 v=102
245420 Off ch=10 n=38 v=64
245440 On ch=10 n=38 v=102
245500 Off ch=10 n=38 v=64
245500 On ch=10 n=38 v=102
245620 Off ch=10 n=38 v=64
246240 On ch=10 n=38 v=102
246360 Off ch=10 n=38 v=64
247200 On ch=10 n=38 v=102
247320 Off ch=10 n=38 v=64
248160 On ch=10 n=38 v=102
248280 Off ch=10 n=38 v=64
249120 On ch=10 n=38 v=102
249240 Off ch=10 n=38 v=64
250080 On ch=10 n=38 v=102
250200 Off ch=10 n=38 v=64
251040 On ch=10 n=38 v=102
251160 Off ch=10 n=38 v=64
252000 On ch=10 n=38 v=102
252120 Off ch=10 n=38 v=64
252960 On ch=10 n=38 v=102
253080 Off ch=10 n=38 v=64
253920 On ch=10 n=38 v=102
254040 Off ch=10 n=38 v=64
254880 On ch=10 n=38 v=102
255000 Off ch=10 n=38 v=64
255840 On ch=10 n=38 v=102
255960 Off ch=10 n=38 v=64
256800 On ch=10 n=38 v=102
256920 Off ch=10 n=38 v=64
257760 On ch=10 n=38 v=102
257880 Off ch=10 n=38 v=64
258720 On ch=10 n=38 v=102
258840 Off ch=10 n=38 v=64
259680 On ch=10 n=38 v=102
259800 Off ch=10 n=38 v=64
260640 On ch=10 n=38 v=102
260760 Off ch=10 n=38 v=64
261600 On ch=10 n=38 v=102
261720 Off ch=10 n=38 v=64
262080 On ch=10 n=38 v=102
262200 Off ch=10 n=38 v=64
262200 On ch=10 n=38 v=102
262320 Off ch=10 n=38 v=64
262320 On ch=10 n=38 v=102
262440 Off ch=10 n=38 v=64
262440 On ch=10 n=38 v=102
262560 Off ch=10 n=38 v=64
263520 On ch=10 n=38 v=102
263640 Off ch=10 n=38 v=64
264480 On ch=10 n=38 v=102
264600 Off ch=10 n=38 v=64
265440 On ch=10 n=38 v=102
265560 Off ch=10 n=38 v=64
266400 On ch=10 n=38 v=102
266520 Off ch=10 n=38 v=64
267360 On ch=10 n=38 v=102
267480 Off ch=10 n=38 v=64
268320 On ch=10 n=38 v=102
268440 Off ch=10 n=38 v=64
269280 On ch=10 n=38 v=102
269400 Off ch=10 n=38 v=64
270240 On ch=10 n=38 v=102
270360 Off ch=10 n=38 v=64
271200 On ch=10 n=38 v=102
271320 Off ch=10 n=38 v=64
272160 On ch=10 n=38 v=102
272280 Off ch=10 n=38 v=64
273120 On ch=10 n=38 v=102
273240 Off ch=10 n=38 v=64
274080 On ch=10 n=38 v=102
274200 Off ch=10 n=38 v=64
275040 On ch=10 n=38 v=102
275160 Off ch=10 n=38 v=64
276000 On ch=10 n=38 v=102
276120 Off ch=10 n=38 v=64
276960 On ch=10 n=38 v=102
277080 Off ch=10 n=38 v=64
277440 On ch=10 n=38 v=102
277560 Off ch=10 n=38 v=64
277560 On ch=10 n=38 v=102
277680 Off ch=10 n=38 v=64
277680 On ch=10 n=38 v=102
277800 Off ch=10 n=38 v=64
277800 On ch=10 n=38 v=102
277920 Off ch=10 n=38 v=64
278880 On ch=10 n=38 v=102
279000 Off ch=10 n=38 v=64
279840 On ch=10 n=38 v=102
279960 Off ch=10 n=38 v=64
280800 On ch=10 n=38 v=102
280920 Off ch=10 n=38 v=64
281760 On ch=10 n=38 v=102
281880 Off ch=10 n=38 v=64
282720 On ch=10 n=38 v=102
282840 Off ch=10 n=38 v=64
283680 On ch=10 n=38 v=102
283800 Off ch=10 n=38 v=64
284640 On ch=10 n=38 v=102
284760 Off ch=10 n=38 v=64
285600 On ch=10 n=38 v=102
285720 Off ch=10 n=38 v=64
286560 On ch=10 n=38 v=102
286680 Off ch=10 n=38 v=64
287520 On ch=10 n=38 v=102
287640 Off ch=10 n=38 v=64
288480 On ch=10 n=38 v=102
288600 Off ch=10 n=38 v=64
289440 On ch=10 n=38 v=102
289560 Off ch=10 n=38 v=64
290400 On ch=10 n=38 v=102
290520 Off ch=10 n=38 v=64
290880 On ch=10 n=38 v=102
291000 Off ch=10 n=38 v=64
291000 On ch=10 n=38 v=102
291120 Off ch=10 n=38 v=64
291120 On ch=10 n=38 v=102
291240 Off ch=10 n=38 v=64
291240 On ch=10 n=38 v=102
291360 Off ch=10 n=38 v=64
294240 On ch=10 n=38 v=102
294360 Off ch=10 n=38 v=64
295200 On ch=10 n=38 v=102
295320 Off ch=10 n=38 v=64
296160 On ch=10 n=38 v=102
296280 Off ch=10 n=38 v=64
297120 On ch=10 n=38 v=102
297240 Off ch=10 n=38 v=64
298080 On ch=10 n=38 v=102
298200 Off ch=10 n=38 v=64
299040 On ch=10 n=38 v=102
299160 Off ch=10 n=38 v=64
300000 On ch=10 n=38 v=102
300120 Off ch=10 n=38 v=64
300960 On ch=10 n=38 v=102
301080 Off ch=10 n=38 v=64
301920 On ch=10 n=38 v=102
302040 Off ch=10 n=38 v=64
302880 On ch=10 n=38 v=102
303000 Off ch=10 n=38 v=64
303840 On ch=10 n=38 v=102
303960 Off ch=10 n=38 v=64
304800 On ch=10 n=38 v=102
304920 Off ch=10 n=38 v=64
305760 On ch=10 n=38 v=102
305880 Off ch=10 n=38 v=64
306720 On ch=10 n=38 v=102
306840 Off ch=10 n=38 v=64
307680 On ch=10 n=38 v=102
307800 Off ch=10 n=38 v=64
308160 On ch=10 n=38 v=102
308280 Off ch=10 n=38 v=64
308280 On ch=10 n=38 v=102
308400 Off ch=10 n=38 v=64
308400 On ch=10 n=38 v=102
308520 Off ch=10 n=38 v=64
308520 On ch=10 n=38 v=102
308640 Off ch=10 n=38 v=64
309600 On ch=10 n=38 v=102
309720 Off ch=10 n=38 v=64
310560 On ch=10 n=38 v=102
310680 Off ch=10 n=38 v=64
311520 On ch=10 n=38 v=102
311640 Off ch=10 n=38 v=64
312480 On ch=10 n=38 v=102
312600 Off ch=10 n=38 v=64
313440 On ch=10 n=38 v=102
313560 Off ch=10 n=38 v=64
314400 On ch=10 n=38 v=102
314520 Off ch=10 n=38 v=64
315360 On ch=10 n=38 v=102
315480 Off ch=10 n=38 v=64
316320 On ch=10 n=38 v=102
316440 Off ch=10 n=38 v=64
317280 On ch=10 n=38 v=102
317400 Off ch=10 n=38 v=64
318240 On ch=10 n=38 v=102
318360 Off ch=10 n=38 v=64
319200 On ch=10 n=38 v=102
319320 Off ch=10 n=38 v=64
320160 On ch=10 n=38 v=102
320280 Off ch=10 n=38 v=64
321120 On ch=10 n=38 v=102
321240 Off ch=10 n=38 v=64
322080 On ch=10 n=38 v=102
322200 Off ch=10 n=38 v=64
322560 On ch=10 n=38 v=102
322800 Off ch=10 n=38 v=64
322800 On ch=10 n=38 v=102
322920 Off ch=10 n=38 v=64
323040 On ch=10 n=38 v=102
323160 Off ch=10 n=38 v=64
323280 On ch=10 n=38 v=102
323400 Off ch=10 n=38 v=64
323520 On ch=10 n=38 v=102
323640 Off ch=10 n=38 v=64
323760 On ch=10 n=38 v=102
323860 Off ch=10 n=38 v=64
324000 On ch=10 n=38 v=102
324100 Off ch=10 n=38 v=64
324240 On ch=10 n=38 v=102
324340 Off ch=10 n=38 v=64
324480 On ch=10 n=38 v=102
324720 Off ch=10 n=38 v=64
324720 On ch=10 n=38 v=102
324840 Off ch=10 n=38 v=64
324960 On ch=10 n=38 v=102
325080 Off ch=10 n=38 v=64
325200 On ch=10 n=38 v=102
325320 Off ch=10 n=38 v=64
325440 On ch=10 n=38 v=102
325560 Off ch=10 n=38 v=64
325680 On ch=10 n=38 v=102
325780 Off ch=10 n=38 v=64
325920 On ch=10 n=38 v=102
326020 Off ch=10 n=38 v=64
326160 On ch=10 n=38 v=102
326260 Off ch=10 n=38 v=64
326400 On ch=10 n=38 v=102
326640 Off ch=10 n=38 v=64
326640 On ch=10 n=38 v=102
326760 Off ch=10 n=38 v=64
326880 On ch=10 n=38 v=102
327000 Off ch=10 n=38 v=64
327120 On ch=10 n=38 v=102
327240 Off ch=10 n=38 v=64
327360 On ch=10 n=38 v=102
327480 Off ch=10 n=38 v=64
327600 On ch=10 n=38 v=102
327700 Off ch=10 n=38 v=64
327840 On ch=10 n=38 v=102
327940 Off ch=10 n=38 v=64
328080 On ch=10 n=38 v=102
328180 Off ch=10 n=38 v=64
328800 On ch=10 n=38 v=102
328920 Off ch=10 n=38 v=64
329760 On ch=10 n=38 v=102
329880 Off ch=10 n=38 v=64
330240 On ch=10 n=38 v=102
330360 Off ch=10 n=38 v=64
330360 On ch=10 n=38 v=102
330480 Off ch=10 n=38 v=64
330480 On ch=10 n=38 v=102
330600 Off ch=10 n=38 v=64
330720 On ch=10 n=38 v=102
330840 Off ch=10 n=38 v=64
330960 On ch=10 n=38 v=102
331080 Off ch=10 n=38 v=64
331680 On ch=10 n=38 v=102
331800 Off ch=10 n=38 v=64
332640 On ch=10 n=38 v=102
332760 Off ch=10 n=38 v=64
333600 On ch=10 n=38 v=102
333720 Off ch=10 n=38 v=64
334560 On ch=10 n=38 v=102
334680 Off ch=10 n=38 v=64
335040 On ch=10 n=38 v=102
335160 Off ch=10 n=38 v=64
335160 On ch=10 n=38 v=102
335280 Off ch=10 n=38 v=64
335280 On ch=10 n=38 v=102
335400 Off ch=10 n=38 v=64
335400 On ch=10 n=38 v=102
335520 Off ch=10 n=38 v=64
336480 On ch=10 n=38 v=102
336600 Off ch=10 n=38 v=64
337440 On ch=10 n=38 v=102
337560 Off ch=10 n=38 v=64
338400 On ch=10 n=38 v=102
338520 Off ch=10 n=38 v=64
339360 On ch=10 n=38 v=102
339480 Off ch=10 n=38 v=64
340320 On ch=10 n=38 v=102
340440 Off ch=10 n=38 v=64
341280 On ch=10 n=38 v=102
341400 Off ch=10 n=38 v=64
342240 On ch=10 n=38 v=102
342360 Off ch=10 n=38 v=64
342960 On ch=10 n=38 v=102
343080 Off ch=10 n=38 v=64
343080 On ch=10 n=38 v=102
343200 Off ch=10 n=38 v=64
343200 On ch=10 n=38 v=102
343320 Off ch=10 n=38 v=64
343320 On ch=10 n=38 v=102
343440 Off ch=10 n=38 v=64
343440 On ch=10 n=38 v=102
343560 Off ch=10 n=38 v=64
343560 On ch=10 n=38 v=102
343680 Off ch=10 n=38 v=64
344160 On ch=10 n=38 v=102
344280 Off ch=10 n=38 v=64
345120 On ch=10 n=38 v=102
345240 Off ch=10 n=38 v=64
346080 On ch=10 n=38 v=102
346200 Off ch=10 n=38 v=64
348000 On ch=10 n=38 v=102
348120 Off ch=10 n=38 v=64
348960 On ch=10 n=38 v=102
349080 Off ch=10 n=38 v=64
349920 On ch=10 n=38 v=102
350040 Off ch=10 n=38 v=64
351840 On ch=10 n=38 v=102
351960 Off ch=10 n=38 v=64
353760 On ch=10 n=38 v=102
353880 Off ch=10 n=38 v=64
355680 On ch=10 n=38 v=102
355800 Off ch=10 n=38 v=64
356640 On ch=10 n=38 v=102
356760 Off ch=10 n=38 v=64
357600 On ch=10 n=38 v=102
357720 Off ch=10 n=38 v=64
359040 On ch=10 n=38 v=102
359160 Off ch=10 n=38 v=64
359160 On ch=10 n=38 v=102
359280 Off ch=10 n=38 v=64
359280 On ch=10 n=38 v=102
359400 Off ch=10 n=38 v=64
359400 On ch=10 n=38 v=102
359520 Off ch=10 n=38 v=64
359520 On ch=10 n=38 v=102
359640 Off ch=10 n=38 v=64
359640 On ch=10 n=38 v=102
359760 Off ch=10 n=38 v=64
359760 On ch=10 n=38 v=102
359880 Off ch=10 n=38 v=64
359880 On ch=10 n=38 v=102
360000 Off ch=10 n=38 v=64
360000 On ch=10 n=38 v=102
360120 Off ch=10 n=38 v=64
360120 On ch=10 n=38 v=102
360240 Off ch=10 n=38 v=64
360240 On ch=10 n=38 v=102
360360 Off ch=10 n=38 v=64
360360 On ch=10 n=38 v=102
360480 Off ch=10 n=38 v=64
360480 On ch=10 n=38 v=102
360600 Off ch=10 n=38 v=64
360600 On ch=10 n=38 v=102
360720 Off ch=10 n=38 v=64
360960 On ch=10 n=38 v=102
361080 Off ch=10 n=38 v=64
361200 On ch=10 n=38 v=102
361320 Off ch=10 n=38 v=64
361440 On ch=10 n=38 v=102
361560 Off ch=10 n=38 v=64
361680 On ch=10 n=38 v=102
361800 Off ch=10 n=38 v=64
361920 On ch=10 n=38 v=102
362040 Off ch=10 n=38 v=64
362400 On ch=10 n=38 v=102
362520 Off ch=10 n=38 v=64
362880 On ch=10 n=38 v=102
363000 Off ch=10 n=38 v=64
363120 On ch=10 n=38 v=102
363240 Off ch=10 n=38 v=64
363360 On ch=10 n=38 v=102
363480 Off ch=10 n=38 v=64
363600 On ch=10 n=38 v=102
363720 Off ch=10 n=38 v=64
363840 On ch=10 n=38 v=102
363960 Off ch=10 n=38 v=64
364320 On ch=10 n=38 v=102
364440 Off ch=10 n=38 v=64
365280 On ch=10 n=38 v=102
365400 Off ch=10 n=38 v=64
367200 On ch=10 n=38 v=102
367320 Off ch=10 n=38 v=64
369120 On ch=10 n=38 v=102
369240 Off ch=10 n=38 v=64
370080 On ch=10 n=38 v=102
370200 Off ch=10 n=38 v=64
371040 On ch=10 n=38 v=121
371160 Off ch=10 n=38 v=64
372000 On ch=10 n=38 v=121
372120 Off ch=10 n=38 v=64
372960 On ch=10 n=38 v=121
373080 Off ch=10 n=38 v=64
373920 On ch=10 n=38 v=121
374040 Off ch=10 n=38 v=64
374880 On ch=10 n=38 v=121
375000 Off ch=10 n=38 v=64
375840 On ch=10 n=38 v=121
375960 Off ch=10 n=38 v=64
376320 On ch=10 n=38 v=121
376440 Off ch=10 n=38 v=64
376440 On ch=10 n=38 v=121
376560 Off ch=10 n=38 v=64
376560 On ch=10 n=38 v=121
376562 Off ch=10 n=38 v=64
376680 On ch=10 n=38 v=121
376760 Off ch=10 n=38 v=64
376800 On ch=10 n=38 v=121
376860 Off ch=10 n=38 v=64
376920 On ch=10 n=38 v=121
377000 Off ch=10 n=38 v=64
377040 On ch=10 n=38 v=121
377160 Off ch=10 n=38 v=64
377160 On ch=10 n=38 v=121
377240 Off ch=10 n=38 v=64
377280 On ch=10 n=38 v=121
377360 Off ch=10 n=38 v=64
377400 On ch=10 n=38 v=121
377460 Off ch=10 n=38 v=64
377520 On ch=10 n=38 v=121
377640 Off ch=10 n=38 v=64
377640 On ch=10 n=38 v=121
377720 Off ch=10 n=38 v=64
377760 On ch=10 n=38 v=121
377820 Off ch=10 n=38 v=64
377880 On ch=10 n=38 v=121
377960 Off ch=10 n=38 v=64
378000 On ch=10 n=38 v=121
378120 Off ch=10 n=38 v=64
378120 On ch=10 n=38 v=121
378180 Off ch=10 n=38 v=64
378240 On ch=10 n=38 v=121
378320 Off ch=10 n=38 v=64
378360 On ch=10 n=38 v=121
378440 Off ch=10 n=38 v=64
378480 On ch=10 n=38 v=121
378560 Off ch=10 n=38 v=64
378600 On ch=10 n=38 v=121
378720 Off ch=10 n=38 v=64
378720 On ch=10 n=38 v=121
378800 Off ch=10 n=38 v=64
378840 On ch=10 n=38 v=121
378940 Off ch=10 n=38 v=64
378960 On ch=10 n=38 v=121
379020 Off ch=10 n=38 v=64
379080 On ch=10 n=38 v=121
379180 Off ch=10 n=38 v=64
379200 On ch=10 n=38 v=121
379202 Off ch=10 n=38 v=64
379320 On ch=10 n=38 v=121
379440 Off ch=10 n=38 v=64
380400 On ch=10 n=38 v=121
380520 Off ch=10 n=38 v=64
380520 On ch=10 n=38 v=121
380640 Off ch=10 n=38 v=64
382080 Par ch=10 c=7 v=100
382080 Par ch=10 c=2 v=0
382080 Par ch=10 c=1 v=0
382080 ChPr ch=10 v=0
382080 Pb ch=10 v=8192
382080 PoPr ch=10 n=0 v=0
382080 Par ch=10 c=4 v=0
382080 Par ch=10 c=8 v=0
382080 Par ch=10 c=10 v=63
382080 Par ch=10 c=64 v=0
382080 Par ch=10 c=66 v=0
382080 Par ch=10 c=67 v=0
382080 Par ch=10 c=68 v=0
382080 Par ch=10 c=65 v=0
382080 Meta TrkEnd
TrkEnd
MTrk
0 Meta TrkName "Elec. Snare         "
0 Meta 0x21 00
0 Meta 0x20 09
0 Par ch=10 c=7 v=99
0 Par ch=10 c=10 v=64
0 PrCh ch=10 p=0
67200 On ch=10 n=40 v=94
67320 Off ch=10 n=40 v=64
67440 On ch=10 n=40 v=94
67560 Off ch=10 n=40 v=64
67680 On ch=10 n=40 v=94
67800 Off ch=10 n=40 v=64
67920 On ch=10 n=40 v=94
68040 Off ch=10 n=40 v=64
68160 On ch=10 n=40 v=94
68280 Off ch=10 n=40 v=64
68400 On ch=10 n=40 v=94
68520 Off ch=10 n=40 v=64
68640 On ch=10 n=40 v=94
68760 Off ch=10 n=40 v=64
68880 On ch=10 n=40 v=94
69000 Off ch=10 n=40 v=64
69120 On ch=10 n=40 v=94
69240 Off ch=10 n=40 v=64
69360 On ch=10 n=40 v=94
69480 Off ch=10 n=40 v=64
69600 On ch=10 n=40 v=94
69720 Off ch=10 n=40 v=64
69840 On ch=10 n=40 v=94
69960 Off ch=10 n=40 v=64
70080 On ch=10 n=40 v=94
70200 Off ch=10 n=40 v=64
70320 On ch=10 n=40 v=94
70440 Off ch=10 n=40 v=64
70560 On ch=10 n=40 v=94
70680 Off ch=10 n=40 v=64
70800 On ch=10 n=40 v=94
70920 Off ch=10 n=40 v=64
71040 On ch=10 n=40 v=94
71160 Off ch=10 n=40 v=64
71280 On ch=10 n=40 v=94
71400 Off ch=10 n=40 v=64
71520 On ch=10 n=40 v=94
71640 Off ch=10 n=40 v=64
71760 On ch=10 n=40 v=94
71880 Off ch=10 n=40 v=64
72000 On ch=10 n=40 v=94
72120 Off ch=10 n=40 v=64
72240 On ch=10 n=40 v=94
72360 Off ch=10 n=40 v=64
72480 On ch=10 n=40 v=94
72600 Off ch=10 n=40 v=64
72720 On ch=10 n=40 v=94
72840 Off ch=10 n=40 v=64
72960 On ch=10 n=40 v=94
73080 Off ch=10 n=40 v=64
73200 On ch=10 n=40 v=94
73320 Off ch=10 n=40 v=64
73440 On ch=10 n=40 v=94
73560 Off ch=10 n=40 v=64
73680 On ch=10 n=40 v=94
73800 Off ch=10 n=40 v=64
73920 On ch=10 n=40 v=94
74040 Off ch=10 n=40 v=64
74160 On ch=10 n=40 v=94
74280 Off ch=10 n=40 v=64
74400 On ch=10 n=40 v=94
74520 Off ch=10 n=40 v=64
74640 On ch=10 n=40 v=94
74760 Off ch=10 n=40 v=64
74880 On ch=10 n=40 v=94
75000 Off ch=10 n=40 v=64
75120 On ch=10 n=40 v=94
75240 Off ch=10 n=40 v=64
75360 On ch=10 n=40 v=94
75480 Off ch=10 n=40 v=64
75600 On ch=10 n=40 v=94
75720 Off ch=10 n=40 v=64
75840 On ch=10 n=40 v=94
75960 Off ch=10 n=40 v=64
76080 On ch=10 n=40 v=94
76200 Off ch=10 n=40 v=64
76320 On ch=10 n=40 v=94
76440 Off ch=10 n=40 v=64
76560 On ch=10 n=40 v=94
76680 Off ch=10 n=40 v=64
76800 On ch=10 n=40 v=94
76920 Off ch=10 n=40 v=64
77040 On ch=10 n=40 v=94
77160 Off ch=10 n=40 v=64
77280 On ch=10 n=40 v=94
77400 Off ch=10 n=40 v=64
77520 On ch=10 n=40 v=94
77640 Off ch=10 n=40 v=64
77760 On ch=10 n=40 v=94
77880 Off ch=10 n=40 v=64
78000 On ch=10 n=40 v=94
78120 Off ch=10 n=40 v=64
78240 On ch=10 n=40 v=94
78360 Off ch=10 n=40 v=64
78480 On ch=10 n=40 v=94
78600 Off ch=10 n=40 v=64
78720 On ch=10 n=40 v=94
78840 Off ch=10 n=40 v=64
78960 On ch=10 n=40 v=94
79080 Off ch=10 n=40 v=64
79200 On ch=10 n=40 v=94
79320 Off ch=10 n=40 v=64
79440 On ch=10 n=40 v=94
79560 Off ch=10 n=40 v=64
79680 On ch=10 n=40 v=94
79800 Off ch=10 n=40 v=64
79920 On ch=10 n=40 v=94
80040 Off ch=10 n=40 v=64
80160 On ch=10 n=40 v=94
80280 Off ch=10 n=40 v=64
80400 On ch=10 n=40 v=94
80520 Off ch=10 n=40 v=64
80640 On ch=10 n=40 v=94
80760 Off ch=10 n=40 v=64
80880 On ch=10 n=40 v=94
81000 Off ch=10 n=40 v=64
81120 On ch=10 n=40 v=94
81240 Off ch=10 n=40 v=64
81360 On ch=10 n=40 v=94
81480 Off ch=10 n=40 v=64
81600 On ch=10 n=40 v=94
81720 Off ch=10 n=40 v=64
81840 On ch=10 n=40 v=94
81960 Off ch=10 n=40 v=64
82080 On ch=10 n=40 v=94
82200 Off ch=10 n=40 v=64
82320 On ch=10 n=40 v=94
82440 Off ch=10 n=40 v=64
82560 On ch=10 n=40 v=94
82680 Off ch=10 n=40 v=64
82800 On ch=10 n=40 v=94
82920 Off ch=10 n=40 v=64
83040 On ch=10 n=40 v=94
83160 Off ch=10 n=40 v=64
83280 On ch=10 n=40 v=94
83400 Off ch=10 n=40 v=64
83520 On ch=10 n=40 v=94
83640 Off ch=10 n=40 v=64
83760 On ch=10 n=40 v=94
83880 Off ch=10 n=40 v=64
84000 On ch=10 n=40 v=94
84120 Off ch=10 n=40 v=64
84240 On ch=10 n=40 v=94
84360 Off ch=10 n=40 v=64
84480 On ch=10 n=40 v=94
84600 Off ch=10 n=40 v=64
84720 On ch=10 n=40 v=94
84840 Off ch=10 n=40 v=64
84960 On ch=10 n=40 v=94
85080 Off ch=10 n=40 v=64
85200 On ch=10 n=40 v=94
85320 Off ch=10 n=40 v=64
85440 On ch=10 n=40 v=94
85560 Off ch=10 n=40 v=64
85680 On ch=10 n=40 v=94
85800 Off ch=10 n=40 v=64
85920 On ch=10 n=40 v=94
86040 Off ch=10 n=40 v=64
86160 On ch=10 n=40 v=94
86280 Off ch=10 n=40 v=64
86400 On ch=10 n=40 v=94
86520 Off ch=10 n=40 v=64
86640 On ch=10 n=40 v=94
86760 Off ch=10 n=40 v=64
86880 On ch=10 n=40 v=94
87000 Off ch=10 n=40 v=64
87120 On ch=10 n=40 v=94
87240 Off ch=10 n=40 v=64
87360 On ch=10 n=40 v=94
87480 Off ch=10 n=40 v=64
87600 On ch=10 n=40 v=94
87720 Off ch=10 n=40 v=64
87840 On ch=10 n=40 v=94
87960 Off ch=10 n=40 v=64
88080 On ch=10 n=40 v=94
88200 Off ch=10 n=40 v=64
88320 On ch=10 n=40 v=94
88440 Off ch=10 n=40 v=64
88560 On ch=10 n=40 v=94
88680 Off ch=10 n=40 v=64
88800 On ch=10 n=40 v=94
88920 Off ch=10 n=40 v=64
89040 On ch=10 n=40 v=94
89160 Off ch=10 n=40 v=64
89280 On ch=10 n=40 v=94
89400 Off ch=10 n=40 v=64
89520 On ch=10 n=40 v=94
89640 Off ch=10 n=40 v=64
89760 On ch=10 n=40 v=94
89880 Off ch=10 n=40 v=64
90000 On ch=10 n=40 v=94
90120 Off ch=10 n=40 v=64
90240 On ch=10 n=40 v=94
90360 Off ch=10 n=40 v=64
90480 On ch=10 n=40 v=94
90600 Off ch=10 n=40 v=64
90720 On ch=10 n=40 v=94
90840 Off ch=10 n=40 v=64
90960 On ch=10 n=40 v=94
91080 Off ch=10 n=40 v=64
91200 On ch=10 n=40 v=94
91320 Off ch=10 n=40 v=64
91440 On ch=10 n=40 v=94
91560 Off ch=10 n=40 v=64
91680 On ch=10 n=40 v=94
91800 Off ch=10 n=40 v=64
91920 On ch=10 n=40 v=94
92040 Off ch=10 n=40 v=64
92160 On ch=10 n=40 v=94
92280 Off ch=10 n=40 v=64
92400 On ch=10 n=40 v=94
92520 Off ch=10 n=40 v=64
92640 On ch=10 n=40 v=94
92760 Off ch=10 n=40 v=64
92880 On ch=10 n=40 v=94
93000 Off ch=10 n=40 v=64
93120 On ch=10 n=40 v=94
93240 Off ch=10 n=40 v=64
93360 On ch=10 n=40 v=94
93480 Off ch=10 n=40 v=64
93600 On ch=10 n=40 v=94
93720 Off ch=10 n=40 v=64
93840 On ch=10 n=40 v=94
93960 Off ch=10 n=40 v=64
94080 On ch=10 n=40 v=94
94200 Off ch=10 n=40 v=64
94320 On ch=10 n=40 v=94
94440 Off ch=10 n=40 v=64
94560 On ch=10 n=40 v=94
94680 Off ch=10 n=40 v=64
94800 On ch=10 n=40 v=94
94920 Off ch=10 n=40 v=64
95040 On ch=10 n=40 v=94
95160 Off ch=10 n=40 v=64
95280 On ch=10 n=40 v=94
95400 Off ch=10 n=40 v=64
95520 On ch=10 n=40 v=94
95640 Off ch=10 n=40 v=64
95760 On ch=10 n=40 v=94
95880 Off ch=10 n=40 v=64
96000 On ch=10 n=40 v=94
96120 Off ch=10 n=40 v=64
96240 On ch=10 n=40 v=94
96360 Off ch=10 n=40 v=64
96480 On ch=10 n=40 v=94
96600 Off ch=10 n=40 v=64
96720 On ch=10 n=40 v=94
96840 Off ch=10 n=40 v=64
96960 On ch=10 n=40 v=94
97080 Off ch=10 n=40 v=64
97200 On ch=10 n=40 v=94
97320 Off ch=10 n=40 v=64
97440 On ch=10 n=40 v=94
97560 Off ch=10 n=40 v=64
97680 On ch=10 n=40 v=94
97800 Off ch=10 n=40 v=64
97920 On ch=10 n=40 v=94
98040 Off ch=10 n=40 v=64
98160 On ch=10 n=40 v=94
98280 Off ch=10 n=40 v=64
98400 On ch=10 n=40 v=94
98520 Off ch=10 n=40 v=64
98640 On ch=10 n=40 v=94
98760 Off ch=10 n=40 v=64
98880 On ch=10 n=40 v=94
99000 Off ch=10 n=40 v=64
99120 On ch=10 n=40 v=94
99240 Off ch=10 n=40 v=64
99360 On ch=10 n=40 v=94
99480 Off ch=10 n=40 v=64
99600 On ch=10 n=40 v=94
99720 Off ch=10 n=40 v=64
99840 On ch=10 n=40 v=94
99960 Off ch=10 n=40 v=64
100080 On ch=10 n=40 v=94
100200 Off ch=10 n=40 v=64
100320 On ch=10 n=40 v=94
100440 Off ch=10 n=40 v=64
100560 On ch=10 n=40 v=94
100680 Off ch=10 n=40 v=64
100800 On ch=10 n=40 v=94
100920 Off ch=10 n=40 v=64
101040 On ch=10 n=40 v=94
101160 Off ch=10 n=40 v=64
101280 On ch=10 n=40 v=94
101400 Off ch=10 n=40 v=64
101520 On ch=10 n=40 v=94
101640 Off ch=10 n=40 v=64
101760 On ch=10 n=40 v=94
101880 Off ch=10 n=40 v=64
102000 On ch=10 n=40 v=94
102120 Off ch=10 n=40 v=64
102240 On ch=10 n=40 v=94
102360 Off ch=10 n=40 v=64
102480 On ch=10 n=40 v=94
102600 Off ch=10 n=40 v=64
102720 On ch=10 n=40 v=94
102840 Off ch=10 n=40 v=64
102960 On ch=10 n=40 v=94
103080 Off ch=10 n=40 v=64
103200 On ch=10 n=40 v=94
103320 Off ch=10 n=40 v=64
103440 On ch=10 n=40 v=94
103560 Off ch=10 n=40 v=64
103680 On ch=10 n=40 v=94
103800 Off ch=10 n=40 v=64
103920 On ch=10 n=40 v=94
104040 Off ch=10 n=40 v=64
104160 On ch=10 n=40 v=94
104280 Off ch=10 n=40 v=64
104400 On ch=10 n=40 v=94
104520 Off ch=10 n=40 v=64
104640 On ch=10 n=40 v=94
104760 Off ch=10 n=40 v=64
104880 On ch=10 n=40 v=94
105000 Off ch=10 n=40 v=64
105120 On ch=10 n=40 v=94
105240 Off ch=10 n=40 v=64
105360 On ch=10 n=40 v=94
105480 Off ch=10 n=40 v=64
105600 On ch=10 n=40 v=94
105720 Off ch=10 n=40 v=64
105840 On ch=10 n=40 v=94
105960 Off ch=10 n=40 v=64
106080 On ch=10 n=40 v=94
106200 Off ch=10 n=40 v=64
106320 On ch=10 n=40 v=94
106440 Off ch=10 n=40 v=64
106560 On ch=10 n=40 v=94
106680 Off ch=10 n=40 v=64
106800 On ch=10 n=40 v=94
106920 Off ch=10 n=40 v=64
107040 On ch=10 n=40 v=94
107160 Off ch=10 n=40 v=64
107280 On ch=10 n=40 v=94
107400 Off ch=10 n=40 v=64
107520 On ch=10 n=40 v=94
107640 Off ch=10 n=40 v=64
107760 On ch=10 n=40 v=94
107880 Off ch=10 n=40 v=64
108000 On ch=10 n=40 v=94
108120 Off ch=10 n=40 v=64
108240 On ch=10 n=40 v=94
108360 Off ch=10 n=40 v=64
108480 On ch=10 n=40 v=94
108600 Off ch=10 n=40 v=64
108720 On ch=10 n=40 v=94
108840 Off ch=10 n=40 v=64
108960 On ch=10 n=40 v=94
109080 Off ch=10 n=40 v=64
109200 On ch=10 n=40 v=94
109320 Off ch=10 n=40 v=64
109440 On ch=10 n=40 v=94
109560 Off ch=10 n=40 v=64
109680 On ch=10 n=40 v=94
109800 Off ch=10 n=40 v=64
109920 On ch=10 n=40 v=94
110040 Off ch=10 n=40 v=64
110160 On ch=10 n=40 v=94
110280 Off ch=10 n=40 v=64
110400 On ch=10 n=40 v=94
110520 Off ch=10 n=40 v=64
110640 On ch=10 n=40 v=94
110760 Off ch=10 n=40 v=64
110880 On ch=10 n=40 v=94
111000 Off ch=10 n=40 v=64
111120 On ch=10 n=40 v=94
111240 Off ch=10 n=40 v=64
111360 On ch=10 n=40 v=94
111480 Off ch=10 n=40 v=64
111600 On ch=10 n=40 v=94
111720 Off ch=10 n=40 v=64
111840 On ch=10 n=40 v=94
111960 Off ch=10 n=40 v=64
112080 On ch=10 n=40 v=94
112200 Off ch=10 n=40 v=64
112320 On ch=10 n=40 v=94
112440 Off ch=10 n=40 v=64
112560 On ch=10 n=40 v=94
112680 Off ch=10 n=40 v=64
112800 On ch=10 n=40 v=94
112920 Off ch=10 n=40 v=64
113040 On ch=10 n=40 v=94
113160 Off ch=10 n=40 v=64
113280 On ch=10 n=40 v=94
113400 Off ch=10 n=40 v=64
113520 On ch=10 n=40 v=94
113640 Off ch=10 n=40 v=64
113760 On ch=10 n=40 v=94
113880 Off ch=10 n=40 v=64
114000 On ch=10 n=40 v=94
114120 Off ch=10 n=40 v=64
114240 On ch=10 n=40 v=94
114360 Off ch=10 n=40 v=64
114480 On ch=10 n=40 v=94
114600 Off ch=10 n=40 v=64
114720 On ch=10 n=40 v=94
114840 Off ch=10 n=40 v=64
114960 On ch=10 n=40 v=94
115080 Off ch=10 n=40 v=64
115200 On ch=10 n=40 v=94
115320 Off ch=10 n=40 v=64
115440 On ch=10 n=40 v=94
115560 Off ch=10 n=40 v=64
115680 On ch=10 n=40 v=94
115800 Off ch=10 n=40 v=64
115920 On ch=10 n=40 v=94
116040 Off ch=10 n=40 v=64
116160 On ch=10 n=40 v=94
116280 Off ch=10 n=40 v=64
116400 On ch=10 n=40 v=94
116520 Off ch=10 n=40 v=64
116640 On ch=10 n=40 v=94
116760 Off ch=10 n=40 v=64
116880 On ch=10 n=40 v=94
117000 Off ch=10 n=40 v=64
117120 On ch=10 n=40 v=94
117240 Off ch=10 n=40 v=64
117360 On ch=10 n=40 v=94
117480 Off ch=10 n=40 v=64
117600 On ch=10 n=40 v=94
117720 Off ch=10 n=40 v=64
117840 On ch=10 n=40 v=94
117960 Off ch=10 n=40 v=64
118080 On ch=10 n=40 v=94
118200 Off ch=10 n=40 v=64
118320 On ch=10 n=40 v=94
118440 Off ch=10 n=40 v=64
118560 On ch=10 n=40 v=94
118680 Off ch=10 n=40 v=64
118800 On ch=10 n=40 v=94
118920 Off ch=10 n=40 v=64
119040 On ch=10 n=40 v=94
119160 Off ch=10 n=40 v=64
119280 On ch=10 n=40 v=94
119400 Off ch=10 n=40 v=64
119520 On ch=10 n=40 v=94
119640 Off ch=10 n=40 v=64
119760 On ch=10 n=40 v=94
119880 Off ch=10 n=40 v=64
120000 On ch=10 n=40 v=94
120120 Off ch=10 n=40 v=64
120240 On ch=10 n=40 v=94
120360 Off ch=10 n=40 v=64
120480 On ch=10 n=40 v=94
120600 Off ch=10 n=40 v=64
120720 On ch=10 n=40 v=94
120840 Off ch=10 n=40 v=64
120960 On ch=10 n=40 v=94
121080 Off ch=10 n=40 v=64
121200 On ch=10 n=40 v=94
121320 Off ch=10 n=40 v=64
121440 On ch=10 n=40 v=94
121560 Off ch=10 n=40 v=64
121680 On ch=10 n=40 v=94
121800 Off ch=10 n=40 v=64
121920 On ch=10 n=40 v=94
122040 Off ch=10 n=40 v=64
122160 On ch=10 n=40 v=94
122280 Off ch=10 n=40 v=64
122400 On ch=10 n=40 v=94
122520 Off ch=10 n=40 v=64
122640 On ch=10 n=40 v=94
122760 Off ch=10 n=40 v=64
122880 On ch=10 n=40 v=94
123000 Off ch=10 n=40 v=64
123120 On ch=10 n=40 v=94
123240 Off ch=10 n=40 v=64
123360 On ch=10 n=40 v=94
123480 Off ch=10 n=40 v=64
123600 On ch=10 n=40 v=94
123720 Off ch=10 n=40 v=64
123840 On ch=10 n=40 v=94
123960 Off ch=10 n=40 v=64
124080 On ch=10 n=40 v=94
124200 Off ch=10 n=40 v=64
124320 On ch=10 n=40 v=94
124440 Off ch=10 n=40 v=64
124560 On ch=10 n=40 v=94
124680 Off ch=10 n=40 v=64
124800 On ch=10 n=40 v=94
124920 Off ch=10 n=40 v=64
125040 On ch=10 n=40 v=94
125160 Off ch=10 n=40 v=64
125280 On ch=10 n=40 v=94
125400 Off ch=10 n=40 v=64
125520 On ch=10 n=40 v=94
125640 Off ch=10 n=40 v=64
125760 On ch=10 n=40 v=94
125880 Off ch=10 n=40 v=64
126000 On ch=10 n=40 v=94
126120 Off ch=10 n=40 v=64
126240 On ch=10 n=40 v=94
126360 Off ch=10 n=40 v=64
126480 On ch=10 n=40 v=94
126600 Off ch=10 n=40 v=64
126720 On ch=10 n=40 v=94
126840 Off ch=10 n=40 v=64
126960 On ch=10 n=40 v=94
127080 Off ch=10 n=40 v=64
127200 On ch=10 n=40 v=94
127320 Off ch=10 n=40 v=64
127440 On ch=10 n=40 v=94
127560 Off ch=10 n=40 v=64
127680 On ch=10 n=40 v=94
127800 Off ch=10 n=40 v=64
127920 On ch=10 n=40 v=94
128040 Off ch=10 n=40 v=64
128160 On ch=10 n=40 v=94
128280 Off ch=10 n=40 v=64
128400 On ch=10 n=40 v=94
128520 Off ch=10 n=40 v=64
128640 On ch=10 n=40 v=94
128720 Off ch=10 n=40 v=64
128880 On ch=10 n=40 v=94
128960 Off ch=10 n=40 v=64
129120 On ch=10 n=40 v=94
129220 Off ch=10 n=40 v=64
129360 On ch=10 n=40 v=94
129460 Off ch=10 n=40 v=64
129600 On ch=10 n=40 v=94
129700 Off ch=10 n=40 v=64
129840 On ch=10 n=40 v=94
129940 Off ch=10 n=40 v=64
130080 On ch=10 n=40 v=94
130180 Off ch=10 n=40 v=64
130320 On ch=10 n=40 v=94
130400 Off ch=10 n=40 v=64
130560 On ch=10 n=40 v=94
130680 Off ch=10 n=40 v=64
130800 On ch=10 n=40 v=94
130920 Off ch=10 n=40 v=64
131040 On ch=10 n=40 v=94
131160 Off ch=10 n=40 v=64
131280 On ch=10 n=40 v=94
131400 Off ch=10 n=40 v=64
131520 On ch=10 n=40 v=94
131640 Off ch=10 n=40 v=64
131760 On ch=10 n=40 v=94
131880 Off ch=10 n=40 v=64
132000 On ch=10 n=40 v=94
132120 Off ch=10 n=40 v=64
132240 On ch=10 n=40 v=94
132360 Off ch=10 n=40 v=64
132480 On ch=10 n=40 v=94
132600 Off ch=10 n=40 v=64
132720 On ch=10 n=40 v=94
132840 Off ch=10 n=40 v=64
132960 On ch=10 n=40 v=94
133080 Off ch=10 n=40 v=64
133200 On ch=10 n=40 v=94
133320 Off ch=10 n=40 v=64
133440 On ch=10 n=40 v=94
133560 Off ch=10 n=40 v=64
133680 On ch=10 n=40 v=94
133800 Off ch=10 n=40 v=64
133920 On ch=10 n=40 v=94
134040 Off ch=10 n=40 v=64
134160 On ch=10 n=40 v=94
134280 Off ch=10 n=40 v=64
134400 On ch=10 n=40 v=94
134520 Off ch=10 n=40 v=64
134640 On ch=10 n=40 v=94
134760 Off ch=10 n=40 v=64
134880 On ch=10 n=40 v=94
135000 Off ch=10 n=40 v=64
135120 On ch=10 n=40 v=94
135240 Off ch=10 n=40 v=64
135360 On ch=10 n=40 v=94
135480 Off ch=10 n=40 v=64
135600 On ch=10 n=40 v=94
135720 Off ch=10 n=40 v=64
135840 On ch=10 n=40 v=94
135960 Off ch=10 n=40 v=64
136080 On ch=10 n=40 v=94
136200 Off ch=10 n=40 v=64
136320 On ch=10 n=40 v=94
136440 Off ch=10 n=40 v=64
136560 On ch=10 n=40 v=94
136680 Off ch=10 n=40 v=64
136800 On ch=10 n=40 v=94
136920 Off ch=10 n=40 v=64
137040 On ch=10 n=40 v=94
137160 Off ch=10 n=40 v=64
137280 On ch=10 n=40 v=94
137400 Off ch=10 n=40 v=64
137520 On ch=10 n=40 v=94
137640 Off ch=10 n=40 v=64
137760 On ch=10 n=40 v=94
137880 Off ch=10 n=40 v=64
138000 On ch=10 n=40 v=94
138120 Off ch=10 n=40 v=64
138240 On ch=10 n=40 v=94
138360 Off ch=10 n=40 v=64
138480 On ch=10 n=40 v=94
138600 Off ch=10 n=40 v=64
138720 On ch=10 n=40 v=94
138840 Off ch=10 n=40 v=64
138960 On ch=10 n=40 v=94
139080 Off ch=10 n=40 v=64
139200 On ch=10 n=40 v=94
139320 Off ch=10 n=40 v=64
139440 On ch=10 n=40 v=94
139560 Off ch=10 n=40 v=64
139680 On ch=10 n=40 v=94
139800 Off ch=10 n=40 v=64
139920 On ch=10 n=40 v=94
140040 Off ch=10 n=40 v=64
140160 On ch=10 n=40 v=94
140280 Off ch=10 n=40 v=64
140400 On ch=10 n=40 v=94
140520 Off ch=10 n=40 v=64
140640 On ch=10 n=40 v=94
140760 Off ch=10 n=40 v=64
140880 On ch=10 n=40 v=94
141000 Off ch=10 n=40 v=64
141120 On ch=10 n=40 v=94
141240 Off ch=10 n=40 v=64
141360 On ch=10 n=40 v=94
141480 Off ch=10 n=40 v=64
141600 On ch=10 n=40 v=94
141720 Off ch=10 n=40 v=64
141840 On ch=10 n=40 v=94
141960 Off ch=10 n=40 v=64
142080 On ch=10 n=40 v=94
142200 Off ch=10 n=40 v=64
142320 On ch=10 n=40 v=94
142440 Off ch=10 n=40 v=64
142560 On ch=10 n=40 v=94
142680 Off ch=10 n=40 v=64
142800 On ch=10 n=40 v=94
142920 Off ch=10 n=40 v=64
143040 On ch=10 n=40 v=94
143160 Off ch=10 n=40 v=64
143280 On ch=10 n=40 v=94
143400 Off ch=10 n=40 v=64
143520 On ch=10 n=40 v=94
143640 Off ch=10 n=40 v=64
143760 On ch=10 n=40 v=94
143880 Off ch=10 n=40 v=64
144000 On ch=10 n=40 v=94
144120 Off ch=10 n=40 v=64
144240 On ch=10 n=40 v=94
144360 Off ch=10 n=40 v=64
144480 On ch=10 n=40 v=94
144600 Off ch=10 n=40 v=64
144720 On ch=10 n=40 v=94
144840 Off ch=10 n=40 v=64
144960 On ch=10 n=40 v=94
145080 Off ch=10 n=40 v=64
145200 On ch=10 n=40 v=94
145320 Off ch=10 n=40 v=64
145440 On ch=10 n=40 v=94
145560 Off ch=10 n=40 v=64
145680 On ch=10 n=40 v=94
145800 Off ch=10 n=40 v=64
145920 On ch=10 n=40 v=94
146040 Off ch=10 n=40 v=64
146160 On ch=10 n=40 v=94
146280 Off ch=10 n=40 v=64
146400 On ch=10 n=40 v=94
146520 Off ch=10 n=40 v=64
146640 On ch=10 n=40 v=94
146760 Off ch=10 n=40 v=64
146880 On ch=10 n=40 v=94
147000 Off ch=10 n=40 v=64
147120 On ch=10 n=40 v=94
147240 Off ch=10 n=40 v=64
147360 On ch=10 n=40 v=94
147480 Off ch=10 n=40 v=64
147600 On ch=10 n=40 v=94
147720 Off ch=10 n=40 v=64
147840 On ch=10 n=40 v=94
147960 Off ch=10 n=40 v=64
148080 On ch=10 n=40 v=94
148200 Off ch=10 n=40 v=64
148320 On ch=10 n=40 v=94
148440 Off ch=10 n=40 v=64
148560 On ch=10 n=40 v=94
148680 Off ch=10 n=40 v=64
148800 On ch=10 n=40 v=94
148920 Off ch=10 n=40 v=64
149040 On ch=10 n=40 v=94
149160 Off ch=10 n=40 v=64
149280 On ch=10 n=40 v=94
149400 Off ch=10 n=40 v=64
149520 On ch=10 n=40 v=94
149640 Off ch=10 n=40 v=64
149760 On ch=10 n=40 v=94
149880 Off ch=10 n=40 v=64
150000 On ch=10 n=40 v=94
150120 Off ch=10 n=40 v=64
150240 On ch=10 n=40 v=94
150360 Off ch=10 n=40 v=64
150480 On ch=10 n=40 v=94
150600 Off ch=10 n=40 v=64
150720 On ch=10 n=40 v=94
150840 Off ch=10 n=40 v=64
150960 On ch=10 n=40 v=94
151080 Off ch=10 n=40 v=64
151200 On ch=10 n=40 v=94
151320 Off ch=10 n=40 v=64
151440 On ch=10 n=40 v=94
151560 Off ch=10 n=40 v=64
151680 On ch=10 n=40 v=94
151800 Off ch=10 n=40 v=64
151920 On ch=10 n=40 v=94
152040 Off ch=10 n=40 v=64
152160 On ch=10 n=40 v=94
152280 Off ch=10 n=40 v=64
152400 On ch=10 n=40 v=94
152520 Off ch=10 n=40 v=64
152640 On ch=10 n=40 v=94
152760 Off ch=10 n=40 v=64
152880 On ch=10 n=40 v=94
153000 Off ch=10 n=40 v=64
153120 On ch=10 n=40 v=94
153240 Off ch=10 n=40 v=64
153360 On ch=10 n=40 v=94
153480 Off ch=10 n=40 v=64
153600 On ch=10 n=40 v=94
153720 Off ch=10 n=40 v=64
153840 On ch=10 n=40 v=94
153960 Off ch=10 n=40 v=64
154080 On ch=10 n=40 v=94
154200 Off ch=10 n=40 v=64
154320 On ch=10 n=40 v=94
154440 Off ch=10 n=40 v=64
154560 On ch=10 n=40 v=94
154680 Off ch=10 n=40 v=64
154800 On ch=10 n=40 v=94
154920 Off ch=10 n=40 v=64
155040 On ch=10 n=40 v=94
155160 Off ch=10 n=40 v=64
155280 On ch=10 n=40 v=94
155400 Off ch=10 n=40 v=64
155520 On ch=10 n=40 v=94
155640 Off ch=10 n=40 v=64
155760 On ch=10 n=40 v=94
155880 Off ch=10 n=40 v=64
156000 On ch=10 n=40 v=94
156120 Off ch=10 n=40 v=64
156240 On ch=10 n=40 v=94
156360 Off ch=10 n=40 v=64
156480 On ch=10 n=40 v=94
156600 Off ch=10 n=40 v=64
156720 On ch=10 n=40 v=94
156840 Off ch=10 n=40 v=64
156960 On ch=10 n=40 v=94
157080 Off ch=10 n=40 v=64
157200 On ch=10 n=40 v=94
157320 Off ch=10 n=40 v=64
157440 On ch=10 n=40 v=94
157560 Off ch=10 n=40 v=64
157680 On ch=10 n=40 v=94
157800 Off ch=10 n=40 v=64
157920 On ch=10 n=40 v=94
158040 Off ch=10 n=40 v=64
158160 On ch=10 n=40 v=94
158280 Off ch=10 n=40 v=64
158400 On ch=10 n=40 v=94
158520 Off ch=10 n=40 v=64
158640 On ch=10 n=40 v=94
158760 Off ch=10 n=40 v=64
158880 On ch=10 n=40 v=94
159000 Off ch=10 n=40 v=64
159120 On ch=10 n=40 v=94
159240 Off ch=10 n=40 v=64
159360 On ch=10 n=40 v=94
159480 Off ch=10 n=40 v=64
159600 On ch=10 n=40 v=94
159720 Off ch=10 n=40 v=64
159840 On ch=10 n=40 v=94
159960 Off ch=10 n=40 v=64
160080 On ch=10 n=40 v=94
160200 Off ch=10 n=40 v=64
160320 On ch=10 n=40 v=94
160440 Off ch=10 n=40 v=64
160560 On ch=10 n=40 v=94
160680 Off ch=10 n=40 v=64
160800 On ch=10 n=40 v=94
160920 Off ch=10 n=40 v=64
161040 On ch=10 n=40 v=94
161160 Off ch=10 n=40 v=64
161280 On ch=10 n=40 v=94
161400 Off ch=10 n=40 v=64
161520 On ch=10 n=40 v=94
161640 Off ch=10 n=40 v=64
161760 On ch=10 n=40 v=94
161880 Off ch=10 n=40 v=64
162000 On ch=10 n=40 v=94
162120 Off ch=10 n=40 v=64
162240 On ch=10 n=40 v=94
162360 Off ch=10 n=40 v=64
162480 On ch=10 n=40 v=94
162600 Off ch=10 n=40 v=64
162720 On ch=10 n=40 v=94
162840 Off ch=10 n=40 v=64
162960 On ch=10 n=40 v=94
163080 Off ch=10 n=40 v=64
163200 On ch=10 n=40 v=94
163320 Off ch=10 n=40 v=64
163440 On ch=10 n=40 v=94
163560 Off ch=10 n=40 v=64
163680 On ch=10 n=40 v=94
163800 Off ch=10 n=40 v=64
163920 On ch=10 n=40 v=94
164040 Off ch=10 n=40 v=64
164160 On ch=10 n=40 v=94
164280 Off ch=10 n=40 v=64
164400 On ch=10 n=40 v=94
164520 Off ch=10 n=40 v=64
164640 On ch=10 n=40 v=94
164760 Off ch=10 n=40 v=64
164880 On ch=10 n=40 v=94
165000 Off ch=10 n=40 v=64
165120 On ch=10 n=40 v=94
165240 Off ch=10 n=40 v=64
165360 On ch=10 n=40 v=94
165480 Off ch=10 n=40 v=64
165600 On ch=10 n=40 v=94
165720 Off ch=10 n=40 v=64
165840 On ch=10 n=40 v=94
165960 Off ch=10 n=40 v=64
166080 On ch=10 n=40 v=94
166200 Off ch=10 n=40 v=64
166320 On ch=10 n=40 v=94
166440 Off ch=10 n=40 v=64
166560 On ch=10 n=40 v=94
166680 Off ch=10 n=40 v=64
166800 On ch=10 n=40 v=94
166920 Off ch=10 n=40 v=64
167040 On ch=10 n=40 v=94
167160 Off ch=10 n=40 v=64
167280 On ch=10 n=40 v=94
167400 Off ch=10 n=40 v=64
167520 On ch=10 n=40 v=94
167640 Off ch=10 n=40 v=64
167760 On ch=10 n=40 v=94
167880 Off ch=10 n=40 v=64
168000 On ch=10 n=40 v=94
168120 Off ch=10 n=40 v=64
168240 On ch=10 n=40 v=94
168360 Off ch=10 n=40 v=64
168480 On ch=10 n=40 v=94
168600 Off ch=10 n=40 v=64
168720 On ch=10 n=40 v=94
168840 Off ch=10 n=40 v=64
168960 On ch=10 n=40 v=94
169040 Off ch=10 n=40 v=64
169200 On ch=10 n=40 v=94
169280 Off ch=10 n=40 v=64
169440 On ch=10 n=40 v=94
169540 Off ch=10 n=40 v=64
169680 On ch=10 n=40 v=94
169780 Off ch=10 n=40 v=64
169920 On ch=10 n=40 v=94
170020 Off ch=10 n=40 v=64
170160 On ch=10 n=40 v=94
170260 Off ch=10 n=40 v=64
170400 On ch=10 n=40 v=94
170500 Off ch=10 n=40 v=64
170640 On ch=10 n=40 v=94
170720 Off ch=10 n=40 v=64
170880 On ch=10 n=40 v=94
171000 Off ch=10 n=40 v=64
171120 On ch=10 n=40 v=94
171240 Off ch=10 n=40 v=64
171360 On ch=10 n=40 v=94
171480 Off ch=10 n=40 v=64
171600 On ch=10 n=40 v=94
171720 Off ch=10 n=40 v=64
171840 On ch=10 n=40 v=94
171960 Off ch=10 n=40 v=64
172080 On ch=10 n=40 v=94
172200 Off ch=10 n=40 v=64
172320 On ch=10 n=40 v=94
172440 Off ch=10 n=40 v=64
172560 On ch=10 n=40 v=94
172680 Off ch=10 n=40 v=64
172800 On ch=10 n=40 v=94
172920 Off ch=10 n=40 v=64
173040 On ch=10 n=40 v=94
173160 Off ch=10 n=40 v=64
173280 On ch=10 n=40 v=94
173400 Off ch=10 n=40 v=64
173520 On ch=10 n=40 v=94
173640 Off ch=10 n=40 v=64
173760 On ch=10 n=40 v=94
173880 Off ch=10 n=40 v=64
174000 On ch=10 n=40 v=94
174120 Off ch=10 n=40 v=64
174240 On ch=10 n=40 v=94
174360 Off ch=10 n=40 v=64
174480 On ch=10 n=40 v=94
174600 Off ch=10 n=40 v=64
174720 On ch=10 n=40 v=94
174840 Off ch=10 n=40 v=64
174960 On ch=10 n=40 v=94
175080 Off ch=10 n=40 v=64
175200 On ch=10 n=40 v=94
175320 Off ch=10 n=40 v=64
175440 On ch=10 n=40 v=94
175560 Off ch=10 n=40 v=64
175680 On ch=10 n=40 v=94
175800 Off ch=10 n=40 v=64
175920 On ch=10 n=40 v=94
176040 Off ch=10 n=40 v=64
176160 On ch=10 n=40 v=94
176280 Off ch=10 n=40 v=64
176400 On ch=10 n=40 v=94
176520 Off ch=10 n=40 v=64
176640 On ch=10 n=40 v=94
176760 Off ch=10 n=40 v=64
176880 On ch=10 n=40 v=94
177000 Off ch=10 n=40 v=64
177120 On ch=10 n=40 v=94
177240 Off ch=10 n=40 v=64
177360 On ch=10 n=40 v=94
177480 Off ch=10 n=40 v=64
177600 On ch=10 n=40 v=94
177720 Off ch=10 n=40 v=64
177840 On ch=10 n=40 v=94
177960 Off ch=10 n=40 v=64
178080 On ch=10 n=40 v=94
178200 Off ch=10 n=40 v=64
178320 On ch=10 n=40 v=94
178440 Off ch=10 n=40 v=64
178560 On ch=10 n=40 v=94
178680 Off ch=10 n=40 v=64
178800 On ch=10 n=40 v=94
178920 Off ch=10 n=40 v=64
179040 On ch=10 n=40 v=94
179160 Off ch=10 n=40 v=64
179280 On ch=10 n=40 v=94
179400 Off ch=10 n=40 v=64
179520 On ch=10 n=40 v=94
179640 Off ch=10 n=40 v=64
179760 On ch=10 n=40 v=94
179880 Off ch=10 n=40 v=64
180000 On ch=10 n=40 v=94
180120 Off ch=10 n=40 v=64
180240 On ch=10 n=40 v=94
180360 Off ch=10 n=40 v=64
180480 On ch=10 n=40 v=94
180600 Off ch=10 n=40 v=64
180720 On ch=10 n=40 v=94
180840 Off ch=10 n=40 v=64
180960 On ch=10 n=40 v=94
181080 Off ch=10 n=40 v=64
181200 On ch=10 n=40 v=94
181320 Off ch=10 n=40 v=64
181440 On ch=10 n=40 v=94
181560 Off ch=10 n=40 v=64
181680 On ch=10 n=40 v=94
181800 Off ch=10 n=40 v=64
181920 On ch=10 n=40 v=94
182040 Off ch=10 n=40 v=64
182160 On ch=10 n=40 v=94
182280 Off ch=10 n=40 v=64
182400 On ch=10 n=40 v=94
182520 Off ch=10 n=40 v=64
182640 On ch=10 n=40 v=94
182760 Off ch=10 n=40 v=64
182880 On ch=10 n=40 v=94
183000 Off ch=10 n=40 v=64
183120 On ch=10 n=40 v=94
183240 Off ch=10 n=40 v=64
183360 On ch=10 n=40 v=94
183480 Off ch=10 n=40 v=64
183600 On ch=10 n=40 v=94
183720 Off ch=10 n=40 v=64
183840 On ch=10 n=40 v=94
183960 Off ch=10 n=40 v=64
184080 On ch=10 n=40 v=94
184200 Off ch=10 n=40 v=64
184320 On ch=10 n=40 v=94
184400 Off ch=10 n=40 v=64
184560 On ch=10 n=40 v=94
184640 Off ch=10 n=40 v=64
184800 On ch=10 n=40 v=94
185040 Off ch=10 n=40 v=64
185040 On ch=10 n=40 v=94
185140 Off ch=10 n=40 v=64
185280 On ch=10 n=40 v=94
185380 Off ch=10 n=40 v=64
185520 On ch=10 n=40 v=94
185620 Off ch=10 n=40 v=64
185760 On ch=10 n=40 v=94
185860 Off ch=10 n=40 v=64
186000 On ch=10 n=40 v=94
186080 Off ch=10 n=40 v=64
186240 On ch=10 n=40 v=94
186360 Off ch=10 n=40 v=64
186480 On ch=10 n=40 v=94
186600 Off ch=10 n=40 v=64
186720 On ch=10 n=40 v=94
186840 Off ch=10 n=40 v=64
186960 On ch=10 n=40 v=94
187080 Off ch=10 n=40 v=64
187200 On ch=10 n=40 v=94
187320 Off ch=10 n=40 v=64
187440 On ch=10 n=40 v=94
187560 Off ch=10 n=40 v=64
187680 On ch=10 n=40 v=94
187800 Off ch=10 n=40 v=64
187920 On ch=10 n=40 v=94
188040 Off ch=10 n=40 v=64
188160 On ch=10 n=40 v=94
188280 Off ch=10 n=40 v=64
188400 On ch=10 n=40 v=94
188520 Off ch=10 n=40 v=64
188640 On ch=10 n=40 v=94
188760 Off ch=10 n=40 v=64
188880 On ch=10 n=40 v=94
189000 Off ch=10 n=40 v=64
189120 On ch=10 n=40 v=94
189240 Off ch=10 n=40 v=64
189360 On ch=10 n=40 v=94
189480 Off ch=10 n=40 v=64
189600 On ch=10 n=40 v=94
189720 Off ch=10 n=40 v=64
189840 On ch=10 n=40 v=94
189960 Off ch=10 n=40 v=64
190080 On ch=10 n=40 v=94
190200 Off ch=10 n=40 v=64
190320 On ch=10 n=40 v=94
190440 Off ch=10 n=40 v=64
190560 On ch=10 n=40 v=94
190680 Off ch=10 n=40 v=64
190800 On ch=10 n=40 v=94
190920 Off ch=10 n=40 v=64
191040 On ch=10 n=40 v=94
191160 Off ch=10 n=40 v=64
191280 On ch=10 n=40 v=94
191400 Off ch=10 n=40 v=64
191520 On ch=10 n=40 v=94
191640 Off ch=10 n=40 v=64
191760 On ch=10 n=40 v=94
191880 Off ch=10 n=40 v=64
192000 On ch=10 n=40 v=94
192120 Off ch=10 n=40 v=64
192240 On ch=10 n=40 v=94
192360 Off ch=10 n=40 v=64
192480 On ch=10 n=40 v=94
192600 Off ch=10 n=40 v=64
192720 On ch=10 n=40 v=94
192840 Off ch=10 n=40 v=64
192960 On ch=10 n=40 v=94
193080 Off ch=10 n=40 v=64
193200 On ch=10 n=40 v=94
193320 Off ch=10 n=40 v=64
193440 On ch=10 n=40 v=94
193560 Off ch=10 n=40 v=64
193680 On ch=10 n=40 v=94
193800 Off ch=10 n=40 v=64
193920 On ch=10 n=40 v=94
194040 Off ch=10 n=40 v=64
194160 On ch=10 n=40 v=94
194280 Off ch=10 n=40 v=64
194400 On ch=10 n=40 v=94
194520 Off ch=10 n=40 v=64
194640 On ch=10 n=40 v=94
194760 Off ch=10 n=40 v=64
194880 On ch=10 n=40 v=94
195000 Off ch=10 n=40 v=64
195120 On ch=10 n=40 v=94
195240 Off ch=10 n=40 v=64
195360 On ch=10 n=40 v=94
195480 Off ch=10 n=40 v=64
195600 On ch=10 n=40 v=94
195720 Off ch=10 n=40 v=64
195840 On ch=10 n=40 v=94
195960 Off ch=10 n=40 v=64
196080 On ch=10 n=40 v=94
196200 Off ch=10 n=40 v=64
196320 On ch=10 n=40 v=94
196440 Off ch=10 n=40 v=64
196560 On ch=10 n=40 v=94
196680 Off ch=10 n=40 v=64
196800 On ch=10 n=40 v=94
196920 Off ch=10 n=40 v=64
197040 On ch=10 n=40 v=94
197160 Off ch=10 n=40 v=64
197280 On ch=10 n=40 v=94
197400 Off ch=10 n=40 v=64
197520 On ch=10 n=40 v=94
197640 Off ch=10 n=40 v=64
197760 On ch=10 n=40 v=94
197880 Off ch=10 n=40 v=64
198000 On ch=10 n=40 v=94
198120 Off ch=10 n=40 v=64
198240 On ch=10 n=40 v=94
198360 Off ch=10 n=40 v=64
198480 On ch=10 n=40 v=94
198600 Off ch=10 n=40 v=64
198720 On ch=10 n=40 v=94
198840 Off ch=10 n=40 v=64
198960 On ch=10 n=40 v=94
199080 Off ch=10 n=40 v=64
199200 On ch=10 n=40 v=94
199320 Off ch=10 n=40 v=64
199440 On ch=10 n=40 v=94
199560 Off ch=10 n=40 v=64
199680 On ch=10 n=40 v=94
199800 Off ch=10 n=40 v=64
199920 On ch=10 n=40 v=94
200040 Off ch=10 n=40 v=64
200160 On ch=10 n=40 v=94
200280 Off ch=10 n=40 v=64
200400 On ch=10 n=40 v=94
200520 Off ch=10 n=40 v=64
200640 On ch=10 n=40 v=94
200760 Off ch=10 n=40 v=64
200880 On ch=10 n=40 v=94
201000 Off ch=10 n=40 v=64
201120 On ch=10 n=40 v=94
201240 Off ch=10 n=40 v=64
201360 On ch=10 n=40 v=94
201480 Off ch=10 n=40 v=64
201600 On ch=10 n=40 v=94
201720 Off ch=10 n=40 v=64
201840 On ch=10 n=40 v=94
201960 Off ch=10 n=40 v=64
202080 On ch=10 n=40 v=94
202200 Off ch=10 n=40 v=64
202320 On ch=10 n=40 v=94
202440 Off ch=10 n=40 v=64
202560 On ch=10 n=40 v=94
202680 Off ch=10 n=40 v=64
202800 On ch=10 n=40 v=94
202920 Off ch=10 n=40 v=64
203040 On ch=10 n=40 v=94
203160 Off ch=10 n=40 v=64
203280 On ch=10 n=40 v=94
203400 Off ch=10 n=40 v=64
203520 On ch=10 n=40 v=94
203640 Off ch=10 n=40 v=64
203760 On ch=10 n=40 v=94
203880 Off ch=10 n=40 v=64
204000 On ch=10 n=40 v=94
204120 Off ch=10 n=40 v=64
204240 On ch=10 n=40 v=94
204360 Off ch=10 n=40 v=64
204480 On ch=10 n=40 v=94
204600 Off ch=10 n=40 v=64
204720 On ch=10 n=40 v=94
204840 Off ch=10 n=40 v=64
204960 On ch=10 n=40 v=94
205080 Off ch=10 n=40 v=64
205200 On ch=10 n=40 v=94
205320 Off ch=10 n=40 v=64
205440 On ch=10 n=40 v=94
205560 Off ch=10 n=40 v=64
205680 On ch=10 n=40 v=94
205800 Off ch=10 n=40 v=64
205920 On ch=10 n=40 v=94
206040 Off ch=10 n=40 v=64
206160 On ch=10 n=40 v=94
206280 Off ch=10 n=40 v=64
206400 On ch=10 n=40 v=94
206520 Off ch=10 n=40 v=64
206640 On ch=10 n=40 v=94
206760 Off ch=10 n=40 v=64
206880 On ch=10 n=40 v=94
207000 Off ch=10 n=40 v=64
207120 On ch=10 n=40 v=94
207240 Off ch=10 n=40 v=64
207360 On ch=10 n=40 v=94
207480 Off ch=10 n=40 v=64
207600 On ch=10 n=40 v=94
207720 Off ch=10 n=40 v=64
207840 On ch=10 n=40 v=94
207960 Off ch=10 n=40 v=64
208080 On ch=10 n=40 v=94
208200 Off ch=10 n=40 v=64
208320 On ch=10 n=40 v=94
208440 Off ch=10 n=40 v=64
208560 On ch=10 n=40 v=94
208680 Off ch=10 n=40 v=64
208800 On ch=10 n=40 v=94
208920 Off ch=10 n=40 v=64
209040 On ch=10 n=40 v=94
209160 Off ch=10 n=40 v=64
209280 On ch=10 n=40 v=94
209400 Off ch=10 n=40 v=64
209520 On ch=10 n=40 v=94
209640 Off ch=10 n=40 v=64
209760 On ch=10 n=40 v=94
209880 Off ch=10 n=40 v=64
210000 On ch=10 n=40 v=94
210120 Off ch=10 n=40 v=64
210240 On ch=10 n=40 v=94
210360 Off ch=10 n=40 v=64
210480 On ch=10 n=40 v=94
210600 Off ch=10 n=40 v=64
210720 On ch=10 n=40 v=94
210840 Off ch=10 n=40 v=64
210960 On ch=10 n=40 v=94
211080 Off ch=10 n=40 v=64
211200 On ch=10 n=40 v=94
211320 Off ch=10 n=40 v=64
211440 On ch=10 n=40 v=94
211560 Off ch=10 n=40 v=64
211680 On ch=10 n=40 v=94
211800 Off ch=10 n=40 v=64
211920 On ch=10 n=40 v=94
212040 Off ch=10 n=40 v=64
212160 On ch=10 n=40 v=94
212280 Off ch=10 n=40 v=64
212400 On ch=10 n=40 v=94
212520 Off ch=10 n=40 v=64
212640 On ch=10 n=40 v=94
212760 Off ch=10 n=40 v=64
212880 On ch=10 n=40 v=94
213000 Off ch=10 n=40 v=64
213120 On ch=10 n=40 v=94
213240 Off ch=10 n=40 v=64
213360 On ch=10 n=40 v=94
213480 Off ch=10 n=40 v=64
213600 On ch=10 n=40 v=94
213720 Off ch=10 n=40 v=64
213840 On ch=10 n=40 v=94
213960 Off ch=10 n=40 v=64
214080 On ch=10 n=40 v=94
214200 Off ch=10 n=40 v=64
214320 On ch=10 n=40 v=94
214440 Off ch=10 n=40 v=64
214560 On ch=10 n=40 v=94
214680 Off ch=10 n=40 v=64
214800 On ch=10 n=40 v=94
214920 Off ch=10 n=40 v=64
215040 On ch=10 n=40 v=94
215160 Off ch=10 n=40 v=64
215280 On ch=10 n=40 v=94
215400 Off ch=10 n=40 v=64
215520 On ch=10 n=40 v=94
215640 Off ch=10 n=40 v=64
215760 On ch=10 n=40 v=94
215880 Off ch=10 n=40 v=64
216000 On ch=10 n=40 v=94
216120 Off ch=10 n=40 v=64
216240 On ch=10 n=40 v=94
216360 Off ch=10 n=40 v=64
216480 On ch=10 n=40 v=94
216600 Off ch=10 n=40 v=64
216720 On ch=10 n=40 v=94
216840 Off ch=10 n=40 v=64
216960 On ch=10 n=40 v=94
217080 Off ch=10 n=40 v=64
217200 On ch=10 n=40 v=94
217320 Off ch=10 n=40 v=64
217440 On ch=10 n=40 v=94
217560 Off ch=10 n=40 v=64
217680 On ch=10 n=40 v=94
217800 Off ch=10 n=40 v=64
217920 On ch=10 n=40 v=94
218040 Off ch=10 n=40 v=64
218160 On ch=10 n=40 v=94
218280 Off ch=10 n=40 v=64
218400 On ch=10 n=40 v=94
218520 Off ch=10 n=40 v=64
218640 On ch=10 n=40 v=94
218760 Off ch=10 n=40 v=64
218880 On ch=10 n=40 v=94
219000 Off ch=10 n=40 v=64
219120 On ch=10 n=40 v=94
219240 Off ch=10 n=40 v=64
219360 On ch=10 n=40 v=94
219480 Off ch=10 n=40 v=64
219600 On ch=10 n=40 v=94
219720 Off ch=10 n=40 v=64
219840 On ch=10 n=40 v=94
219960 Off ch=10 n=40 v=64
220080 On ch=10 n=40 v=94
220200 Off ch=10 n=40 v=64
220320 On ch=10 n=40 v=94
220440 Off ch=10 n=40 v=64
220560 On ch=10 n=40 v=94
220680 Off ch=10 n=40 v=64
220800 On ch=10 n=40 v=94
220920 Off ch=10 n=40 v=64
221040 On ch=10 n=40 v=94
221160 Off ch=10 n=40 v=64
221280 On ch=10 n=40 v=94
221400 Off ch=10 n=40 v=64
221520 On ch=10 n=40 v=94
221640 Off ch=10 n=40 v=64
221760 On ch=10 n=40 v=94
221880 Off ch=10 n=40 v=64
222000 On ch=10 n=40 v=94
222120 Off ch=10 n=40 v=64
222240 On ch=10 n=40 v=94
222360 Off ch=10 n=40 v=64
222480 On ch=10 n=40 v=94
222600 Off ch=10 n=40 v=64
222720 On ch=10 n=40 v=94
222840 Off ch=10 n=40 v=64
222960 On ch=10 n=40 v=94
223080 Off ch=10 n=40 v=64
223200 On ch=10 n=40 v=94
223320 Off ch=10 n=40 v=64
223440 On ch=10 n=40 v=94
223560 Off ch=10 n=40 v=64
223680 On ch=10 n=40 v=94
223800 Off ch=10 n=40 v=64
223920 On ch=10 n=40 v=94
224040 Off ch=10 n=40 v=64
224160 On ch=10 n=40 v=94
224280 Off ch=10 n=40 v=64
224400 On ch=10 n=40 v=94
224520 Off ch=10 n=40 v=64
224640 On ch=10 n=40 v=94
224720 Off ch=10 n=40 v=64
224880 On ch=10 n=40 v=94
224960 Off ch=10 n=40 v=64
225120 On ch=10 n=40 v=94
225220 Off ch=10 n=40 v=64
225360 On ch=10 n=40 v=94
225460 Off ch=10 n=40 v=64
225600 On ch=10 n=40 v=94
225700 Off ch=10 n=40 v=64
225840 On ch=10 n=40 v=94
225940 Off ch=10 n=40 v=64
226080 On ch=10 n=40 v=94
226180 Off ch=10 n=40 v=64
226320 On ch=10 n=40 v=94
226400 Off ch=10 n=40 v=64
226560 On ch=10 n=40 v=94
226680 Off ch=10 n=40 v=64
226800 On ch=10 n=40 v=94
226920 Off ch=10 n=40 v=64
227040 On ch=10 n=40 v=94
227160 Off ch=10 n=40 v=64
227280 On ch=10 n=40 v=94
227400 Off ch=10 n=40 v=64
227520 On ch=10 n=40 v=94
227640 Off ch=10 n=40 v=64
227760 On ch=10 n=40 v=94
227880 Off ch=10 n=40 v=64
228000 On ch=10 n=40 v=94
228120 Off ch=10 n=40 v=64
228240 On ch=10 n=40 v=94
228360 Off ch=10 n=40 v=64
228480 On ch=10 n=40 v=94
228600 Off ch=10 n=40 v=64
228720 On ch=10 n=40 v=94
228840 Off ch=10 n=40 v=64
228960 On ch=10 n=40 v=94
229080 Off ch=10 n=40 v=64
229200 On ch=10 n=40 v=94
229320 Off ch=10 n=40 v=64
229440 On ch=10 n=40 v=94
229560 Off ch=10 n=40 v=64
229680 On ch=10 n=40 v=94
229800 Off ch=10 n=40 v=64
229920 On ch=10 n=40 v=94
230040 Off ch=10 n=40 v=64
230160 On ch=10 n=40 v=94
230280 Off ch=10 n=40 v=64
230400 On ch=10 n=40 v=94
230520 Off ch=10 n=40 v=64
230640 On ch=10 n=40 v=94
230760 Off ch=10 n=40 v=64
230880 On ch=10 n=40 v=94
231000 Off ch=10 n=40 v=64
231120 On ch=10 n=40 v=94
231240 Off ch=10 n=40 v=64
231360 On ch=10 n=40 v=94
231480 Off ch=10 n=40 v=64
231600 On ch=10 n=40 v=94
231720 Off ch=10 n=40 v=64
231840 On ch=10 n=40 v=94
231960 Off ch=10 n=40 v=64
232080 On ch=10 n=40 v=94
232200 Off ch=10 n=40 v=64
232320 On ch=10 n=40 v=94
232440 Off ch=10 n=40 v=64
232560 On ch=10 n=40 v=94
232680 Off ch=10 n=40 v=64
232800 On ch=10 n=40 v=94
232920 Off ch=10 n=40 v=64
233040 On ch=10 n=40 v=94
233160 Off ch=10 n=40 v=64
233280 On ch=10 n=40 v=94
233400 Off ch=10 n=40 v=64
233520 On ch=10 n=40 v=94
233640 Off ch=10 n=40 v=64
233760 On ch=10 n=40 v=94
233880 Off ch=10 n=40 v=64
234000 On ch=10 n=40 v=94
234120 Off ch=10 n=40 v=64
234240 On ch=10 n=40 v=94
234360 Off ch=10 n=40 v=64
234480 On ch=10 n=40 v=94
234600 Off ch=10 n=40 v=64
234720 On ch=10 n=40 v=94
234840 Off ch=10 n=40 v=64
234960 On ch=10 n=40 v=94
235080 Off ch=10 n=40 v=64
235200 On ch=10 n=40 v=94
235320 Off ch=10 n=40 v=64
235440 On ch=10 n=40 v=94
235560 Off ch=10 n=40 v=64
235680 On ch=10 n=40 v=94
235800 Off ch=10 n=40 v=64
235920 On ch=10 n=40 v=94
236040 Off ch=10 n=40 v=64
236160 On ch=10 n=40 v=94
236280 Off ch=10 n=40 v=64
236400 On ch=10 n=40 v=94
236520 Off ch=10 n=40 v=64
236640 On ch=10 n=40 v=94
236760 Off ch=10 n=40 v=64
236880 On ch=10 n=40 v=94
237000 Off ch=10 n=40 v=64
237120 On ch=10 n=40 v=94
237240 Off ch=10 n=40 v=64
237360 On ch=10 n=40 v=94
237480 Off ch=10 n=40 v=64
237600 On ch=10 n=40 v=94
237720 Off ch=10 n=40 v=64
237840 On ch=10 n=40 v=94
237960 Off ch=10 n=40 v=64
238080 On ch=10 n=40 v=94
238200 Off ch=10 n=40 v=64
238320 On ch=10 n=40 v=94
238440 Off ch=10 n=40 v=64
238560 On ch=10 n=40 v=94
238680 Off ch=10 n=40 v=64
238800 On ch=10 n=40 v=94
238920 Off ch=10 n=40 v=64
239040 On ch=10 n=40 v=94
239160 Off ch=10 n=40 v=64
239280 On ch=10 n=40 v=94
239400 Off ch=10 n=40 v=64
239520 On ch=10 n=40 v=94
239640 Off ch=10 n=40 v=64
239760 On ch=10 n=40 v=94
239880 Off ch=10 n=40 v=64
240000 On ch=10 n=40 v=94
240120 Off ch=10 n=40 v=64
240240 On ch=10 n=40 v=94
240360 Off ch=10 n=40 v=64
240480 On ch=10 n=40 v=94
240600 Off ch=10 n=40 v=64
240720 On ch=10 n=40 v=94
240840 Off ch=10 n=40 v=64
240960 On ch=10 n=40 v=94
241080 Off ch=10 n=40 v=64
241200 On ch=10 n=40 v=94
241320 Off ch=10 n=40 v=64
241440 On ch=10 n=40 v=94
241560 Off ch=10 n=40 v=64
241680 On ch=10 n=40 v=94
241800 Off ch=10 n=40 v=64
241920 On ch=10 n=40 v=94
242040 Off ch=10 n=40 v=64
242160 On ch=10 n=40 v=94
242280 Off ch=10 n=40 v=64
242400 On ch=10 n=40 v=94
242520 Off ch=10 n=40 v=64
242640 On ch=10 n=40 v=94
242760 Off ch=10 n=40 v=64
242880 On ch=10 n=40 v=94
243000 Off ch=10 n=40 v=64
243120 On ch=10 n=40 v=94
243240 Off ch=10 n=40 v=64
243360 On ch=10 n=40 v=94
243480 Off ch=10 n=40 v=64
243600 On ch=10 n=40 v=94
243720 Off ch=10 n=40 v=64
243840 On ch=10 n=40 v=94
243960 Off ch=10 n=40 v=64
244080 On ch=10 n=40 v=94
244200 Off ch=10 n=40 v=64
244320 On ch=10 n=40 v=94
244440 Off ch=10 n=40 v=64
244560 On ch=10 n=40 v=94
244680 Off ch=10 n=40 v=64
244800 On ch=10 n=40 v=94
244920 Off ch=10 n=40 v=64
245040 On ch=10 n=40 v=94
245160 Off ch=10 n=40 v=64
245280 On ch=10 n=40 v=94
245400 Off ch=10 n=40 v=64
245520 On ch=10 n=40 v=94
245640 Off ch=10 n=40 v=64
245760 On ch=10 n=40 v=94
245880 Off ch=10 n=40 v=64
246000 On ch=10 n=40 v=94
246120 Off ch=10 n=40 v=64
246240 On ch=10 n=40 v=94
246360 Off ch=10 n=40 v=64
246480 On ch=10 n=40 v=94
246600 Off ch=10 n=40 v=64
246720 On ch=10 n=40 v=94
246840 Off ch=10 n=40 v=64
246960 On ch=10 n=40 v=94
247080 Off ch=10 n=40 v=64
247200 On ch=10 n=40 v=94
247320 Off ch=10 n=40 v=64
247440 On ch=10 n=40 v=94
247560 Off ch=10 n=40 v=64
247680 On ch=10 n=40 v=94
247800 Off ch=10 n=40 v=64
247920 On ch=10 n=40 v=94
248040 Off ch=10 n=40 v=64
248160 On ch=10 n=40 v=94
248280 Off ch=10 n=40 v=64
248400 On ch=10 n=40 v=94
248520 Off ch=10 n=40 v=64
248640 On ch=10 n=40 v=94
248760 Off ch=10 n=40 v=64
248880 On ch=10 n=40 v=94
249000 Off ch=10 n=40 v=64
249120 On ch=10 n=40 v=94
249240 Off ch=10 n=40 v=64
249360 On ch=10 n=40 v=94
249480 Off ch=10 n=40 v=64
249600 On ch=10 n=40 v=94
249720 Off ch=10 n=40 v=64
249840 On ch=10 n=40 v=94
249960 Off ch=10 n=40 v=64
250080 On ch=10 n=40 v=94
250200 Off ch=10 n=40 v=64
250320 On ch=10 n=40 v=94
250440 Off ch=10 n=40 v=64
250560 On ch=10 n=40 v=94
250680 Off ch=10 n=40 v=64
250800 On ch=10 n=40 v=94
250920 Off ch=10 n=40 v=64
251040 On ch=10 n=40 v=94
251160 Off ch=10 n=40 v=64
251280 On ch=10 n=40 v=94
251400 Off ch=10 n=40 v=64
251520 On ch=10 n=40 v=94
251640 Off ch=10 n=40 v=64
251760 On ch=10 n=40 v=94
251880 Off ch=10 n=40 v=64
252000 On ch=10 n=40 v=94
252120 Off ch=10 n=40 v=64
252240 On ch=10 n=40 v=94
252360 Off ch=10 n=40 v=64
252480 On ch=10 n=40 v=94
252600 Off ch=10 n=40 v=64
252720 On ch=10 n=40 v=94
252840 Off ch=10 n=40 v=64
252960 On ch=10 n=40 v=94
253080 Off ch=10 n=40 v=64
253200 On ch=10 n=40 v=94
253320 Off ch=10 n=40 v=64
253440 On ch=10 n=40 v=94
253560 Off ch=10 n=40 v=64
253680 On ch=10 n=40 v=94
253800 Off ch=10 n=40 v=64
253920 On ch=10 n=40 v=94
254040 Off ch=10 n=40 v=64
254160 On ch=10 n=40 v=94
254280 Off ch=10 n=40 v=64
254400 On ch=10 n=40 v=94
254520 Off ch=10 n=40 v=64
254640 On ch=10 n=40 v=94
254760 Off ch=10 n=40 v=64
254880 On ch=10 n=40 v=94
255000 Off ch=10 n=40 v=64
255120 On ch=10 n=40 v=94
255240 Off ch=10 n=40 v=64
255360 On ch=10 n=40 v=94
255480 Off ch=10 n=40 v=64
255600 On ch=10 n=40 v=94
255720 Off ch=10 n=40 v=64
255840 On ch=10 n=40 v=94
255960 Off ch=10 n=40 v=64
256080 On ch=10 n=40 v=94
256200 Off ch=10 n=40 v=64
256320 On ch=10 n=40 v=94
256440 Off ch=10 n=40 v=64
256560 On ch=10 n=40 v=94
256680 Off ch=10 n=40 v=64
256800 On ch=10 n=40 v=94
256920 Off ch=10 n=40 v=64
257040 On ch=10 n=40 v=94
257160 Off ch=10 n=40 v=64
257280 On ch=10 n=40 v=94
257400 Off ch=10 n=40 v=64
257520 On ch=10 n=40 v=94
257640 Off ch=10 n=40 v=64
257760 On ch=10 n=40 v=94
257880 Off ch=10 n=40 v=64
258000 On ch=10 n=40 v=94
258120 Off ch=10 n=40 v=64
258240 On ch=10 n=40 v=94
258360 Off ch=10 n=40 v=64
258480 On ch=10 n=40 v=94
258600 Off ch=10 n=40 v=64
258720 On ch=10 n=40 v=94
258840 Off ch=10 n=40 v=64
258960 On ch=10 n=40 v=94
259080 Off ch=10 n=40 v=64
259200 On ch=10 n=40 v=94
259320 Off ch=10 n=40 v=64
259440 On ch=10 n=40 v=94
259560 Off ch=10 n=40 v=64
259680 On ch=10 n=40 v=94
259800 Off ch=10 n=40 v=64
259920 On ch=10 n=40 v=94
260040 Off ch=10 n=40 v=64
260160 On ch=10 n=40 v=94
260280 Off ch=10 n=40 v=64
260400 On ch=10 n=40 v=94
260520 Off ch=10 n=40 v=64
260640 On ch=10 n=40 v=94
260760 Off ch=10 n=40 v=64
260880 On ch=10 n=40 v=94
261000 Off ch=10 n=40 v=64
261120 On ch=10 n=40 v=94
261200 Off ch=10 n=40 v=64
261360 On ch=10 n=40 v=94
261440 Off ch=10 n=40 v=64
261600 On ch=10 n=40 v=94
261700 Off ch=10 n=40 v=64
261840 On ch=10 n=40 v=94
261940 Off ch=10 n=40 v=64
262080 On ch=10 n=40 v=94
262180 Off ch=10 n=40 v=64
262320 On ch=10 n=40 v=94
262420 Off ch=10 n=40 v=64
262560 On ch=10 n=40 v=94
262660 Off ch=10 n=40 v=64
262800 On ch=10 n=40 v=94
262880 Off ch=10 n=40 v=64
263040 On ch=10 n=40 v=94
263160 Off ch=10 n=40 v=64
263280 On ch=10 n=40 v=94
263400 Off ch=10 n=40 v=64
263520 On ch=10 n=40 v=94
263640 Off ch=10 n=40 v=64
263760 On ch=10 n=40 v=94
263880 Off ch=10 n=40 v=64
264000 On ch=10 n=40 v=94
264120 Off ch=10 n=40 v=64
264240 On ch=10 n=40 v=94
264360 Off ch=10 n=40 v=64
264480 On ch=10 n=40 v=94
264600 Off ch=10 n=40 v=64
264720 On ch=10 n=40 v=94
264840 Off ch=10 n=40 v=64
264960 On ch=10 n=40 v=94
265080 Off ch=10 n=40 v=64
265200 On ch=10 n=40 v=94
265320 Off ch=10 n=40 v=64
265440 On ch=10 n=40 v=94
265560 Off ch=10 n=40 v=64
265680 On ch=10 n=40 v=94
265800 Off ch=10 n=40 v=64
265920 On ch=10 n=40 v=94
266040 Off ch=10 n=40 v=64
266160 On ch=10 n=40 v=94
266280 Off ch=10 n=40 v=64
266400 On ch=10 n=40 v=94
266520 Off ch=10 n=40 v=64
266640 On ch=10 n=40 v=94
266760 Off ch=10 n=40 v=64
266880 On ch=10 n=40 v=94
267000 Off ch=10 n=40 v=64
267120 On ch=10 n=40 v=94
267240 Off ch=10 n=40 v=64
267360 On ch=10 n=40 v=94
267480 Off ch=10 n=40 v=64
267600 On ch=10 n=40 v=94
267720 Off ch=10 n=40 v=64
267840 On ch=10 n=40 v=94
267960 Off ch=10 n=40 v=64
268080 On ch=10 n=40 v=94
268200 Off ch=10 n=40 v=64
268320 On ch=10 n=40 v=94
268440 Off ch=10 n=40 v=64
268560 On ch=10 n=40 v=94
268680 Off ch=10 n=40 v=64
268800 On ch=10 n=40 v=94
268920 Off ch=10 n=40 v=64
269040 On ch=10 n=40 v=94
269160 Off ch=10 n=40 v=64
269280 On ch=10 n=40 v=94
269400 Off ch=10 n=40 v=64
269520 On ch=10 n=40 v=94
269640 Off ch=10 n=40 v=64
269760 On ch=10 n=40 v=94
269880 Off ch=10 n=40 v=64
270000 On ch=10 n=40 v=94
270120 Off ch=10 n=40 v=64
270240 On ch=10 n=40 v=94
270360 Off ch=10 n=40 v=64
270480 On ch=10 n=40 v=94
270600 Off ch=10 n=40 v=64
270720 On ch=10 n=40 v=94
270840 Off ch=10 n=40 v=64
270960 On ch=10 n=40 v=94
271080 Off ch=10 n=40 v=64
271200 On ch=10 n=40 v=94
271320 Off ch=10 n=40 v=64
271440 On ch=10 n=40 v=94
271560 Off ch=10 n=40 v=64
271680 On ch=10 n=40 v=94
271800 Off ch=10 n=40 v=64
271920 On ch=10 n=40 v=94
272040 Off ch=10 n=40 v=64
272160 On ch=10 n=40 v=94
272280 Off ch=10 n=40 v=64
272400 On ch=10 n=40 v=94
272520 Off ch=10 n=40 v=64
272640 On ch=10 n=40 v=94
272760 Off ch=10 n=40 v=64
272880 On ch=10 n=40 v=94
273000 Off ch=10 n=40 v=64
273120 On ch=10 n=40 v=94
273240 Off ch=10 n=40 v=64
273360 On ch=10 n=40 v=94
273480 Off ch=10 n=40 v=64
273600 On ch=10 n=40 v=94
273720 Off ch=10 n=40 v=64
273840 On ch=10 n=40 v=94
273960 Off ch=10 n=40 v=64
274080 On ch=10 n=40 v=94
274200 Off ch=10 n=40 v=64
274320 On ch=10 n=40 v=94
274440 Off ch=10 n=40 v=64
274560 On ch=10 n=40 v=94
274680 Off ch=10 n=40 v=64
274800 On ch=10 n=40 v=94
274920 Off ch=10 n=40 v=64
275040 On ch=10 n=40 v=94
275160 Off ch=10 n=40 v=64
275280 On ch=10 n=40 v=94
275400 Off ch=10 n=40 v=64
275520 On ch=10 n=40 v=94
275640 Off ch=10 n=40 v=64
275760 On ch=10 n=40 v=94
275880 Off ch=10 n=40 v=64
276000 On ch=10 n=40 v=94
276120 Off ch=10 n=40 v=64
276240 On ch=10 n=40 v=94
276360 Off ch=10 n=40 v=64
276480 On ch=10 n=40 v=94
276560 Off ch=10 n=40 v=64
276720 On ch=10 n=40 v=94
276800 Off ch=10 n=40 v=64
276960 On ch=10 n=40 v=94
277060 Off ch=10 n=40 v=64
277200 On ch=10 n=40 v=94
277300 Off ch=10 n=40 v=64
277440 On ch=10 n=40 v=94
277540 Off ch=10 n=40 v=64
277680 On ch=10 n=40 v=94
277780 Off ch=10 n=40 v=64
277920 On ch=10 n=40 v=94
278020 Off ch=10 n=40 v=64
278160 On ch=10 n=40 v=94
278240 Off ch=10 n=40 v=64
278400 On ch=10 n=40 v=94
278520 Off ch=10 n=40 v=64
278640 On ch=10 n=40 v=94
278760 Off ch=10 n=40 v=64
278880 On ch=10 n=40 v=94
279000 Off ch=10 n=40 v=64
279120 On ch=10 n=40 v=94
279240 Off ch=10 n=40 v=64
279360 On ch=10 n=40 v=94
279480 Off ch=10 n=40 v=64
279600 On ch=10 n=40 v=94
279720 Off ch=10 n=40 v=64
279840 On ch=10 n=40 v=94
279960 Off ch=10 n=40 v=64
280080 On ch=10 n=40 v=94
280200 Off ch=10 n=40 v=64
280320 On ch=10 n=40 v=94
280440 Off ch=10 n=40 v=64
280560 On ch=10 n=40 v=94
280680 Off ch=10 n=40 v=64
280800 On ch=10 n=40 v=94
280920 Off ch=10 n=40 v=64
281040 On ch=10 n=40 v=94
281160 Off ch=10 n=40 v=64
281280 On ch=10 n=40 v=94
281400 Off ch=10 n=40 v=64
281520 On ch=10 n=40 v=94
281640 Off ch=10 n=40 v=64
281760 On ch=10 n=40 v=94
281880 Off ch=10 n=40 v=64
282000 On ch=10 n=40 v=94
282120 Off ch=10 n=40 v=64
282240 On ch=10 n=40 v=94
282360 Off ch=10 n=40 v=64
282480 On ch=10 n=40 v=94
282600 Off ch=10 n=40 v=64
282720 On ch=10 n=40 v=94
282840 Off ch=10 n=40 v=64
282960 On ch=10 n=40 v=94
283080 Off ch=10 n=40 v=64
283200 On ch=10 n=40 v=94
283320 Off ch=10 n=40 v=64
283440 On ch=10 n=40 v=94
283560 Off ch=10 n=40 v=64
283680 On ch=10 n=40 v=94
283800 Off ch=10 n=40 v=64
283920 On ch=10 n=40 v=94
284040 Off ch=10 n=40 v=64
284160 On ch=10 n=40 v=94
284280 Off ch=10 n=40 v=64
284400 On ch=10 n=40 v=94
284520 Off ch=10 n=40 v=64
284640 On ch=10 n=40 v=94
284760 Off ch=10 n=40 v=64
284880 On ch=10 n=40 v=94
285000 Off ch=10 n=40 v=64
285120 On ch=10 n=40 v=94
285240 Off ch=10 n=40 v=64
285360 On ch=10 n=40 v=94
285480 Off ch=10 n=40 v=64
285600 On ch=10 n=40 v=94
285720 Off ch=10 n=40 v=64
285840 On ch=10 n=40 v=94
285960 Off ch=10 n=40 v=64
286080 On ch=10 n=40 v=94
286200 Off ch=10 n=40 v=64
286320 On ch=10 n=40 v=94
286440 Off ch=10 n=40 v=64
286560 On ch=10 n=40 v=94
286680 Off ch=10 n=40 v=64
286800 On ch=10 n=40 v=94
286920 Off ch=10 n=40 v=64
287040 On ch=10 n=40 v=94
287160 Off ch=10 n=40 v=64
287280 On ch=10 n=40 v=94
287400 Off ch=10 n=40 v=64
287520 On ch=10 n=40 v=94
287640 Off ch=10 n=40 v=64
287760 On ch=10 n=40 v=94
287880 Off ch=10 n=40 v=64
288000 On ch=10 n=40 v=94
288120 Off ch=10 n=40 v=64
288240 On ch=10 n=40 v=94
288360 Off ch=10 n=40 v=64
288480 On ch=10 n=40 v=94
288600 Off ch=10 n=40 v=64
288720 On ch=10 n=40 v=94
288840 Off ch=10 n=40 v=64
288960 On ch=10 n=40 v=94
289080 Off ch=10 n=40 v=64
289200 On ch=10 n=40 v=94
289320 Off ch=10 n=40 v=64
289440 On ch=10 n=40 v=94
289560 Off ch=10 n=40 v=64
289680 On ch=10 n=40 v=94
289800 Off ch=10 n=40 v=64
289920 On ch=10 n=40 v=94
290000 Off ch=10 n=40 v=64
290160 On ch=10 n=40 v=94
290240 Off ch=10 n=40 v=64
290400 On ch=10 n=40 v=94
290640 Off ch=10 n=40 v=64
290640 On ch=10 n=40 v=94
290740 Off ch=10 n=40 v=64
290880 On ch=10 n=40 v=94
290980 Off ch=10 n=40 v=64
291120 On ch=10 n=40 v=94
291220 Off ch=10 n=40 v=64
291360 On ch=10 n=40 v=94
291460 Off ch=10 n=40 v=64
291600 On ch=10 n=40 v=94
291680 Off ch=10 n=40 v=64
293760 On ch=10 n=40 v=94
293880 Off ch=10 n=40 v=64
294000 On ch=10 n=40 v=94
294120 Off ch=10 n=40 v=64
294240 On ch=10 n=40 v=94
294360 Off ch=10 n=40 v=64
294480 On ch=10 n=40 v=94
294600 Off ch=10 n=40 v=64
294720 On ch=10 n=40 v=94
294840 Off ch=10 n=40 v=64
294960 On ch=10 n=40 v=94
295080 Off ch=10 n=40 v=64
295200 On ch=10 n=40 v=94
295320 Off ch=10 n=40 v=64
295440 On ch=10 n=40 v=94
295560 Off ch=10 n=40 v=64
295680 On ch=10 n=40 v=94
295800 Off ch=10 n=40 v=64
295920 On ch=10 n=40 v=94
296040 Off ch=10 n=40 v=64
296160 On ch=10 n=40 v=94
296280 Off ch=10 n=40 v=64
296400 On ch=10 n=40 v=94
296520 Off ch=10 n=40 v=64
296640 On ch=10 n=40 v=94
296760 Off ch=10 n=40 v=64
296880 On ch=10 n=40 v=94
297000 Off ch=10 n=40 v=64
297120 On ch=10 n=40 v=94
297240 Off ch=10 n=40 v=64
297360 On ch=10 n=40 v=94
297480 Off ch=10 n=40 v=64
297600 On ch=10 n=40 v=94
297720 Off ch=10 n=40 v=64
297840 On ch=10 n=40 v=94
297960 Off ch=10 n=40 v=64
298080 On ch=10 n=40 v=94
298200 Off ch=10 n=40 v=64
298320 On ch=10 n=40 v=94
298440 Off ch=10 n=40 v=64
298560 On ch=10 n=40 v=94
298680 Off ch=10 n=40 v=64
298800 On ch=10 n=40 v=94
298920 Off ch=10 n=40 v=64
299040 On ch=10 n=40 v=94
299160 Off ch=10 n=40 v=64
299280 On ch=10 n=40 v=94
299400 Off ch=10 n=40 v=64
299520 On ch=10 n=40 v=94
299640 Off ch=10 n=40 v=64
299760 On ch=10 n=40 v=94
299880 Off ch=10 n=40 v=64
300000 On ch=10 n=40 v=94
300120 Off ch=10 n=40 v=64
300240 On ch=10 n=40 v=94
300360 Off ch=10 n=40 v=64
300480 On ch=10 n=40 v=94
300600 Off ch=10 n=40 v=64
300720 On ch=10 n=40 v=94
300840 Off ch=10 n=40 v=64
300960 On ch=10 n=40 v=94
301080 Off ch=10 n=40 v=64
301200 On ch=10 n=40 v=94
301320 Off ch=10 n=40 v=64
301440 On ch=10 n=40 v=94
301560 Off ch=10 n=40 v=64
301680 On ch=10 n=40 v=94
301800 Off ch=10 n=40 v=64
301920 On ch=10 n=40 v=94
302040 Off ch=10 n=40 v=64
302160 On ch=10 n=40 v=94
302280 Off ch=10 n=40 v=64
302400 On ch=10 n=40 v=94
302520 Off ch=10 n=40 v=64
302640 On ch=10 n=40 v=94
302760 Off ch=10 n=40 v=64
302880 On ch=10 n=40 v=94
303000 Off ch=10 n=40 v=64
303120 On ch=10 n=40 v=94
303240 Off ch=10 n=40 v=64
303360 On ch=10 n=40 v=94
303480 Off ch=10 n=40 v=64
303600 On ch=10 n=40 v=94
303720 Off ch=10 n=40 v=64
303840 On ch=10 n=40 v=94
303960 Off ch=10 n=40 v=64
304080 On ch=10 n=40 v=94
304200 Off ch=10 n=40 v=64
304320 On ch=10 n=40 v=94
304440 Off ch=10 n=40 v=64
304560 On ch=10 n=40 v=94
304680 Off ch=10 n=40 v=64
304800 On ch=10 n=40 v=94
304920 Off ch=10 n=40 v=64
305040 On ch=10 n=40 v=94
305160 Off ch=10 n=40 v=64
305280 On ch=10 n=40 v=94
305400 Off ch=10 n=40 v=64
305520 On ch=10 n=40 v=94
305640 Off ch=10 n=40 v=64
305760 On ch=10 n=40 v=94
305880 Off ch=10 n=40 v=64
306000 On ch=10 n=40 v=94
306120 Off ch=10 n=40 v=64
306240 On ch=10 n=40 v=94
306360 Off ch=10 n=40 v=64
306480 On ch=10 n=40 v=94
306600 Off ch=10 n=40 v=64
306720 On ch=10 n=40 v=94
306840 Off ch=10 n=40 v=64
306960 On ch=10 n=40 v=94
307080 Off ch=10 n=40 v=64
307200 On ch=10 n=40 v=94
307280 Off ch=10 n=40 v=64
307440 On ch=10 n=40 v=94
307520 Off ch=10 n=40 v=64
307680 On ch=10 n=40 v=94
307780 Off ch=10 n=40 v=64
307920 On ch=10 n=40 v=94
308020 Off ch=10 n=40 v=64
308160 On ch=10 n=40 v=94
308260 Off ch=10 n=40 v=64
308400 On ch=10 n=40 v=94
308500 Off ch=10 n=40 v=64
308640 On ch=10 n=40 v=94
308740 Off ch=10 n=40 v=64
308880 On ch=10 n=40 v=94
308960 Off ch=10 n=40 v=64
309120 On ch=10 n=40 v=94
309240 Off ch=10 n=40 v=64
309360 On ch=10 n=40 v=94
309480 Off ch=10 n=40 v=64
309600 On ch=10 n=40 v=94
309720 Off ch=10 n=40 v=64
309840 On ch=10 n=40 v=94
309960 Off ch=10 n=40 v=64
310080 On ch=10 n=40 v=94
310200 Off ch=10 n=40 v=64
310320 On ch=10 n=40 v=94
310440 Off ch=10 n=40 v=64
310560 On ch=10 n=40 v=94
310680 Off ch=10 n=40 v=64
310800 On ch=10 n=40 v=94
310920 Off ch=10 n=40 v=64
311040 On ch=10 n=40 v=94
311160 Off ch=10 n=40 v=64
311280 On ch=10 n=40 v=94
311400 Off ch=10 n=40 v=64
311520 On ch=10 n=40 v=94
311640 Off ch=10 n=40 v=64
311760 On ch=10 n=40 v=94
311880 Off ch=10 n=40 v=64
312000 On ch=10 n=40 v=94
312120 Off ch=10 n=40 v=64
312240 On ch=10 n=40 v=94
312360 Off ch=10 n=40 v=64
312480 On ch=10 n=40 v=94
312600 Off ch=10 n=40 v=64
312720 On ch=10 n=40 v=94
312840 Off ch=10 n=40 v=64
312960 On ch=10 n=40 v=94
313080 Off ch=10 n=40 v=64
313200 On ch=10 n=40 v=94
313320 Off ch=10 n=40 v=64
313440 On ch=10 n=40 v=94
313560 Off ch=10 n=40 v=64
313680 On ch=10 n=40 v=94
313800 Off ch=10 n=40 v=64
313920 On ch=10 n=40 v=94
314040 Off ch=10 n=40 v=64
314160 On ch=10 n=40 v=94
314280 Off ch=10 n=40 v=64
314400 On ch=10 n=40 v=94
314520 Off ch=10 n=40 v=64
314640 On ch=10 n=40 v=94
314760 Off ch=10 n=40 v=64
314880 On ch=10 n=40 v=94
315000 Off ch=10 n=40 v=64
315120 On ch=10 n=40 v=94
315240 Off ch=10 n=40 v=64
315360 On ch=10 n=40 v=94
315480 Off ch=10 n=40 v=64
315600 On ch=10 n=40 v=94
315720 Off ch=10 n=40 v=64
315840 On ch=10 n=40 v=94
315960 Off ch=10 n=40 v=64
316080 On ch=10 n=40 v=94
316200 Off ch=10 n=40 v=64
316320 On ch=10 n=40 v=94
316440 Off ch=10 n=40 v=64
316560 On ch=10 n=40 v=94
316680 Off ch=10 n=40 v=64
316800 On ch=10 n=40 v=94
316920 Off ch=10 n=40 v=64
317040 On ch=10 n=40 v=94
317160 Off ch=10 n=40 v=64
317280 On ch=10 n=40 v=94
317400 Off ch=10 n=40 v=64
317520 On ch=10 n=40 v=94
317640 Off ch=10 n=40 v=64
317760 On ch=10 n=40 v=94
317880 Off ch=10 n=40 v=64
318000 On ch=10 n=40 v=94
318120 Off ch=10 n=40 v=64
318240 On ch=10 n=40 v=94
318360 Off ch=10 n=40 v=64
318480 On ch=10 n=40 v=94
318600 Off ch=10 n=40 v=64
318720 On ch=10 n=40 v=94
318840 Off ch=10 n=40 v=64
318960 On ch=10 n=40 v=94
319080 Off ch=10 n=40 v=64
319200 On ch=10 n=40 v=94
319320 Off ch=10 n=40 v=64
319440 On ch=10 n=40 v=94
319560 Off ch=10 n=40 v=64
319680 On ch=10 n=40 v=94
319800 Off ch=10 n=40 v=64
319920 On ch=10 n=40 v=94
320040 Off ch=10 n=40 v=64
320160 On ch=10 n=40 v=94
320280 Off ch=10 n=40 v=64
320400 On ch=10 n=40 v=94
320520 Off ch=10 n=40 v=64
320640 On ch=10 n=40 v=94
320760 Off ch=10 n=40 v=64
320880 On ch=10 n=40 v=94
321000 Off ch=10 n=40 v=64
321120 On ch=10 n=40 v=94
321240 Off ch=10 n=40 v=64
321360 On ch=10 n=40 v=94
321480 Off ch=10 n=40 v=64
321600 On ch=10 n=40 v=94
321720 Off ch=10 n=40 v=64
321840 On ch=10 n=40 v=94
321960 Off ch=10 n=40 v=64
322080 On ch=10 n=40 v=94
322200 Off ch=10 n=40 v=64
322320 On ch=10 n=40 v=94
322440 Off ch=10 n=40 v=64
322560 On ch=10 n=40 v=94
322680 Off ch=10 n=40 v=64
322800 On ch=10 n=40 v=94
322920 Off ch=10 n=40 v=64
323040 On ch=10 n=40 v=94
323160 Off ch=10 n=40 v=64
323280 On ch=10 n=40 v=94
323400 Off ch=10 n=40 v=64
323520 On ch=10 n=40 v=94
323640 Off ch=10 n=40 v=64
323760 On ch=10 n=40 v=94
323880 Off ch=10 n=40 v=64
324000 On ch=10 n=40 v=94
324120 Off ch=10 n=40 v=64
324240 On ch=10 n=40 v=94
324360 Off ch=10 n=40 v=64
324480 On ch=10 n=40 v=94
324600 Off ch=10 n=40 v=64
324720 On ch=10 n=40 v=94
324840 Off ch=10 n=40 v=64
324960 On ch=10 n=40 v=94
325080 Off ch=10 n=40 v=64
325200 On ch=10 n=40 v=94
325320 Off ch=10 n=40 v=64
325440 On ch=10 n=40 v=94
325560 Off ch=10 n=40 v=64
325680 On ch=10 n=40 v=94
325800 Off ch=10 n=40 v=64
325920 On ch=10 n=40 v=94
326040 Off ch=10 n=40 v=64
326160 On ch=10 n=40 v=94
326280 Off ch=10 n=40 v=64
326400 On ch=10 n=40 v=94
326520 Off ch=10 n=40 v=64
326640 On ch=10 n=40 v=94
326760 Off ch=10 n=40 v=64
326880 On ch=10 n=40 v=94
327000 Off ch=10 n=40 v=64
327120 On ch=10 n=40 v=94
327240 Off ch=10 n=40 v=64
327360 On ch=10 n=40 v=94
327480 Off ch=10 n=40 v=64
327600 On ch=10 n=40 v=94
327720 Off ch=10 n=40 v=64
327840 On ch=10 n=40 v=94
327960 Off ch=10 n=40 v=64
328080 On ch=10 n=40 v=94
328200 Off ch=10 n=40 v=64
328320 On ch=10 n=40 v=94
328440 Off ch=10 n=40 v=64
328560 On ch=10 n=40 v=94
328680 Off ch=10 n=40 v=64
328800 On ch=10 n=40 v=94
328920 Off ch=10 n=40 v=64
329040 On ch=10 n=40 v=94
329160 Off ch=10 n=40 v=64
329280 On ch=10 n=40 v=94
329400 Off ch=10 n=40 v=64
329520 On ch=10 n=40 v=94
329640 Off ch=10 n=40 v=64
329760 On ch=10 n=40 v=94
329880 Off ch=10 n=40 v=64
330000 On ch=10 n=40 v=94
330120 Off ch=10 n=40 v=64
330240 On ch=10 n=40 v=94
330360 Off ch=10 n=40 v=64
330480 On ch=10 n=40 v=94
330600 Off ch=10 n=40 v=64
330720 On ch=10 n=40 v=94
330840 Off ch=10 n=40 v=64
330960 On ch=10 n=40 v=94
331080 Off ch=10 n=40 v=64
331200 On ch=10 n=40 v=94
331320 Off ch=10 n=40 v=64
331440 On ch=10 n=40 v=94
331560 Off ch=10 n=40 v=64
331680 On ch=10 n=40 v=94
331800 Off ch=10 n=40 v=64
331920 On ch=10 n=40 v=94
332040 Off ch=10 n=40 v=64
332160 On ch=10 n=40 v=94
332280 Off ch=10 n=40 v=64
332400 On ch=10 n=40 v=94
332520 Off ch=10 n=40 v=64
332640 On ch=10 n=40 v=94
332760 Off ch=10 n=40 v=64
332880 On ch=10 n=40 v=94
333000 Off ch=10 n=40 v=64
333120 On ch=10 n=40 v=94
333240 Off ch=10 n=40 v=64
333360 On ch=10 n=40 v=94
333480 Off ch=10 n=40 v=64
333600 On ch=10 n=40 v=94
333720 Off ch=10 n=40 v=64
333840 On ch=10 n=40 v=94
333960 Off ch=10 n=40 v=64
334080 On ch=10 n=40 v=94
334200 Off ch=10 n=40 v=64
334320 On ch=10 n=40 v=94
334440 Off ch=10 n=40 v=64
334560 On ch=10 n=40 v=94
334680 Off ch=10 n=40 v=64
334800 On ch=10 n=40 v=94
334920 Off ch=10 n=40 v=64
335040 On ch=10 n=40 v=94
335160 Off ch=10 n=40 v=64
335280 On ch=10 n=40 v=94
335400 Off ch=10 n=40 v=64
335520 On ch=10 n=40 v=94
335640 Off ch=10 n=40 v=64
335760 On ch=10 n=40 v=94
335880 Off ch=10 n=40 v=64
336000 On ch=10 n=40 v=94
336120 Off ch=10 n=40 v=64
336240 On ch=10 n=40 v=94
336360 Off ch=10 n=40 v=64
336480 On ch=10 n=40 v=94
336600 Off ch=10 n=40 v=64
336720 On ch=10 n=40 v=94
336840 Off ch=10 n=40 v=64
336960 On ch=10 n=40 v=94
337080 Off ch=10 n=40 v=64
337200 On ch=10 n=40 v=94
337320 Off ch=10 n=40 v=64
337440 On ch=10 n=40 v=94
337560 Off ch=10 n=40 v=64
337680 On ch=10 n=40 v=94
337800 Off ch=10 n=40 v=64
337920 On ch=10 n=40 v=94
338040 Off ch=10 n=40 v=64
338160 On ch=10 n=40 v=94
338280 Off ch=10 n=40 v=64
338400 On ch=10 n=40 v=94
338520 Off ch=10 n=40 v=64
338640 On ch=10 n=40 v=94
338760 Off ch=10 n=40 v=64
338880 On ch=10 n=40 v=94
339000 Off ch=10 n=40 v=64
339120 On ch=10 n=40 v=94
339240 Off ch=10 n=40 v=64
339360 On ch=10 n=40 v=94
339480 Off ch=10 n=40 v=64
339600 On ch=10 n=40 v=94
339720 Off ch=10 n=40 v=64
339840 On ch=10 n=40 v=94
339960 Off ch=10 n=40 v=64
340080 On ch=10 n=40 v=94
340200 Off ch=10 n=40 v=64
340320 On ch=10 n=40 v=94
340440 Off ch=10 n=40 v=64
340560 On ch=10 n=40 v=94
340680 Off ch=10 n=40 v=64
340800 On ch=10 n=40 v=94
340920 Off ch=10 n=40 v=64
341040 On ch=10 n=40 v=94
341160 Off ch=10 n=40 v=64
341280 On ch=10 n=40 v=94
341400 Off ch=10 n=40 v=64
341520 On ch=10 n=40 v=94
341640 Off ch=10 n=40 v=64
341760 On ch=10 n=40 v=94
341880 Off ch=10 n=40 v=64
342000 On ch=10 n=40 v=94
342120 Off ch=10 n=40 v=64
342240 On ch=10 n=40 v=94
342360 Off ch=10 n=40 v=64
342480 On ch=10 n=40 v=94
342600 Off ch=10 n=40 v=64
342720 On ch=10 n=40 v=94
342840 Off ch=10 n=40 v=64
342960 On ch=10 n=40 v=94
343080 Off ch=10 n=40 v=64
343200 On ch=10 n=40 v=94
343320 Off ch=10 n=40 v=64
343440 On ch=10 n=40 v=94
343560 Off ch=10 n=40 v=64
343680 On ch=10 n=40 v=94
343800 Off ch=10 n=40 v=64
343920 On ch=10 n=40 v=94
344040 Off ch=10 n=40 v=64
344160 On ch=10 n=40 v=94
344280 Off ch=10 n=40 v=64
344400 On ch=10 n=40 v=94
344520 Off ch=10 n=40 v=64
344640 On ch=10 n=40 v=94
344760 Off ch=10 n=40 v=64
344880 On ch=10 n=40 v=94
345000 Off ch=10 n=40 v=64
345120 On ch=10 n=40 v=94
345240 Off ch=10 n=40 v=64
345360 On ch=10 n=40 v=94
345480 Off ch=10 n=40 v=64
345600 On ch=10 n=40 v=94
345720 Off ch=10 n=40 v=64
345840 On ch=10 n=40 v=94
345960 Off ch=10 n=40 v=64
346080 On ch=10 n=40 v=94
346200 Off ch=10 n=40 v=64
346320 On ch=10 n=40 v=94
346440 Off ch=10 n=40 v=64
346560 On ch=10 n=40 v=94
346680 Off ch=10 n=40 v=64
346800 On ch=10 n=40 v=94
346920 Off ch=10 n=40 v=64
347040 On ch=10 n=40 v=94
347160 Off ch=10 n=40 v=64
347280 On ch=10 n=40 v=94
347400 Off ch=10 n=40 v=64
347520 On ch=10 n=40 v=94
347640 Off ch=10 n=40 v=64
347760 On ch=10 n=40 v=94
347880 Off ch=10 n=40 v=64
348000 On ch=10 n=40 v=94
348120 Off ch=10 n=40 v=64
348240 On ch=10 n=40 v=94
348360 Off ch=10 n=40 v=64
348480 On ch=10 n=40 v=94
348600 Off ch=10 n=40 v=64
348720 On ch=10 n=40 v=94
348840 Off ch=10 n=40 v=64
348960 On ch=10 n=40 v=94
349080 Off ch=10 n=40 v=64
349200 On ch=10 n=40 v=94
349320 Off ch=10 n=40 v=64
349440 On ch=10 n=40 v=94
349560 Off ch=10 n=40 v=64
349680 On ch=10 n=40 v=94
349800 Off ch=10 n=40 v=64
349920 On ch=10 n=40 v=94
350040 Off ch=10 n=40 v=64
350160 On ch=10 n=40 v=94
350280 Off ch=10 n=40 v=64
350400 On ch=10 n=40 v=94
350520 Off ch=10 n=40 v=64
350640 On ch=10 n=40 v=94
350760 Off ch=10 n=40 v=64
350880 On ch=10 n=40 v=94
351000 Off ch=10 n=40 v=64
351120 On ch=10 n=40 v=94
351240 Off ch=10 n=40 v=64
351360 On ch=10 n=40 v=94
351480 Off ch=10 n=40 v=64
351600 On ch=10 n=40 v=94
351720 Off ch=10 n=40 v=64
351840 On ch=10 n=40 v=94
351960 Off ch=10 n=40 v=64
352080 On ch=10 n=40 v=94
352200 Off ch=10 n=40 v=64
352320 On ch=10 n=40 v=94
352440 Off ch=10 n=40 v=64
352560 On ch=10 n=40 v=94
352680 Off ch=10 n=40 v=64
352800 On ch=10 n=40 v=94
352920 Off ch=10 n=40 v=64
353040 On ch=10 n=40 v=94
353160 Off ch=10 n=40 v=64
353280 On ch=10 n=40 v=94
353400 Off ch=10 n=40 v=64
353520 On ch=10 n=40 v=94
353640 Off ch=10 n=40 v=64
353760 On ch=10 n=40 v=94
353880 Off ch=10 n=40 v=64
354000 On ch=10 n=40 v=94
354120 Off ch=10 n=40 v=64
354240 On ch=10 n=40 v=94
354360 Off ch=10 n=40 v=64
354480 On ch=10 n=40 v=94
354600 Off ch=10 n=40 v=64
354720 On ch=10 n=40 v=94
354840 Off ch=10 n=40 v=64
354960 On ch=10 n=40 v=94
355080 Off ch=10 n=40 v=64
355200 On ch=10 n=40 v=94
355320 Off ch=10 n=40 v=64
355440 On ch=10 n=40 v=94
355560 Off ch=10 n=40 v=64
355680 On ch=10 n=40 v=94
355800 Off ch=10 n=40 v=64
355920 On ch=10 n=40 v=94
356040 Off ch=10 n=40 v=64
356160 On ch=10 n=40 v=94
356280 Off ch=10 n=40 v=64
356400 On ch=10 n=40 v=94
356520 Off ch=10 n=40 v=64
356640 On ch=10 n=40 v=94
356760 Off ch=10 n=40 v=64
356880 On ch=10 n=40 v=94
357000 Off ch=10 n=40 v=64
357120 On ch=10 n=40 v=94
357240 Off ch=10 n=40 v=64
357360 On ch=10 n=40 v=94
357480 Off ch=10 n=40 v=64
357600 On ch=10 n=40 v=94
357720 Off ch=10 n=40 v=64
357840 On ch=10 n=40 v=94
357960 Off ch=10 n=40 v=64
358080 On ch=10 n=40 v=94
358200 Off ch=10 n=40 v=64
358320 On ch=10 n=40 v=94
358440 Off ch=10 n=40 v=64
358560 On ch=10 n=40 v=94
358680 Off ch=10 n=40 v=64
358800 On ch=10 n=40 v=94
358920 Off ch=10 n=40 v=64
359040 On ch=10 n=40 v=94
359160 Off ch=10 n=40 v=64
359280 On ch=10 n=40 v=94
359400 Off ch=10 n=40 v=64
359520 On ch=10 n=40 v=94
359640 Off ch=10 n=40 v=64
359760 On ch=10 n=40 v=94
359880 Off ch=10 n=40 v=64
360000 On ch=10 n=40 v=94
360120 Off ch=10 n=40 v=64
360240 On ch=10 n=40 v=94
360360 Off ch=10 n=40 v=64
360480 On ch=10 n=40 v=94
360600 Off ch=10 n=40 v=64
360720 On ch=10 n=40 v=94
360840 Off ch=10 n=40 v=64
360960 On ch=10 n=40 v=94
361080 Off ch=10 n=40 v=64
361200 On ch=10 n=40 v=94
361320 Off ch=10 n=40 v=64
361440 On ch=10 n=40 v=94
361560 Off ch=10 n=40 v=64
361680 On ch=10 n=40 v=94
361800 Off ch=10 n=40 v=64
361920 On ch=10 n=40 v=94
362040 Off ch=10 n=40 v=64
362160 On ch=10 n=40 v=94
362280 Off ch=10 n=40 v=64
362400 On ch=10 n=40 v=94
362520 Off ch=10 n=40 v=64
362640 On ch=10 n=40 v=94
362760 Off ch=10 n=40 v=64
362880 On ch=10 n=40 v=94
363000 Off ch=10 n=40 v=64
363120 On ch=10 n=40 v=94
363240 Off ch=10 n=40 v=64
363360 On ch=10 n=40 v=94
363480 Off ch=10 n=40 v=64
363600 On ch=10 n=40 v=94
363720 Off ch=10 n=40 v=64
363840 On ch=10 n=40 v=94
363960 Off ch=10 n=40 v=64
364080 On ch=10 n=40 v=94
364200 Off ch=10 n=40 v=64
364320 On ch=10 n=40 v=94
364440 Off ch=10 n=40 v=64
364560 On ch=10 n=40 v=94
364680 Off ch=10 n=40 v=64
364800 On ch=10 n=40 v=94
364920 Off ch=10 n=40 v=64
365040 On ch=10 n=40 v=94
365160 Off ch=10 n=40 v=64
365280 On ch=10 n=40 v=94
365400 Off ch=10 n=40 v=64
365520 On ch=10 n=40 v=94
365640 Off ch=10 n=40 v=64
365760 On ch=10 n=40 v=94
365880 Off ch=10 n=40 v=64
366000 On ch=10 n=40 v=94
366120 Off ch=10 n=40 v=64
366240 On ch=10 n=40 v=94
366360 Off ch=10 n=40 v=64
366480 On ch=10 n=40 v=94
366600 Off ch=10 n=40 v=64
366720 On ch=10 n=40 v=94
366840 Off ch=10 n=40 v=64
366960 On ch=10 n=40 v=94
367080 Off ch=10 n=40 v=64
367200 On ch=10 n=40 v=94
367320 Off ch=10 n=40 v=64
367440 On ch=10 n=40 v=94
367560 Off ch=10 n=40 v=64
367680 On ch=10 n=40 v=94
367800 Off ch=10 n=40 v=64
367920 On ch=10 n=40 v=94
368040 Off ch=10 n=40 v=64
368160 On ch=10 n=40 v=94
368280 Off ch=10 n=40 v=64
368400 On ch=10 n=40 v=94
368520 Off ch=10 n=40 v=64
368640 On ch=10 n=40 v=94
368760 Off ch=10 n=40 v=64
368880 On ch=10 n=40 v=94
369000 Off ch=10 n=40 v=64
369120 On ch=10 n=40 v=94
369240 Off ch=10 n=40 v=64
369360 On ch=10 n=40 v=94
369480 Off ch=10 n=40 v=64
369600 On ch=10 n=40 v=94
369720 Off ch=10 n=40 v=64
369840 On ch=10 n=40 v=94
369960 Off ch=10 n=40 v=64
370080 On ch=10 n=40 v=94
370200 Off ch=10 n=40 v=64
370320 On ch=10 n=40 v=94
370440 Off ch=10 n=40 v=64
370560 On ch=10 n=40 v=104
370680 Off ch=10 n=40 v=64
370800 On ch=10 n=40 v=104
370920 Off ch=10 n=40 v=64
371040 On ch=10 n=40 v=104
371160 Off ch=10 n=40 v=64
371280 On ch=10 n=40 v=104
371400 Off ch=10 n=40 v=64
371520 On ch=10 n=40 v=104
371640 Off ch=10 n=40 v=64
371760 On ch=10 n=40 v=104
371880 Off ch=10 n=40 v=64
372000 On ch=10 n=40 v=104
372120 Off ch=10 n=40 v=64
372240 On ch=10 n=40 v=104
372360 Off ch=10 n=40 v=64
372480 On ch=10 n=40 v=104
372600 Off ch=10 n=40 v=64
372720 On ch=10 n=40 v=104
372840 Off ch=10 n=40 v=64
372960 On ch=10 n=40 v=104
373080 Off ch=10 n=40 v=64
373200 On ch=10 n=40 v=104
373320 Off ch=10 n=40 v=64
373440 On ch=10 n=40 v=104
373560 Off ch=10 n=40 v=64
373680 On ch=10 n=40 v=104
373800 Off ch=10 n=40 v=64
373920 On ch=10 n=40 v=104
374040 Off ch=10 n=40 v=64
374160 On ch=10 n=40 v=104
374280 Off ch=10 n=40 v=64
374400 On ch=10 n=40 v=104
374520 Off ch=10 n=40 v=64
374640 On ch=10 n=40 v=104
374760 Off ch=10 n=40 v=64
374880 On ch=10 n=40 v=104
375000 Off ch=10 n=40 v=64
375120 On ch=10 n=40 v=104
375240 Off ch=10 n=40 v=64
375360 On ch=10 n=40 v=104
375480 Off ch=10 n=40 v=64
375600 On ch=10 n=40 v=104
375720 Off ch=10 n=40 v=64
375840 On ch=10 n=40 v=104
375960 Off ch=10 n=40 v=64
376080 On ch=10 n=40 v=104
376200 Off ch=10 n=40 v=64
378000 On ch=10 n=40 v=121
378120 Off ch=10 n=40 v=64
382080 Par ch=10 c=7 v=100
382080 Par ch=10 c=2 v=0
382080 Par ch=10 c=1 v=0
382080 ChPr ch=10 v=0
382080 Pb ch=10 v=8192
382080 PoPr ch=10 n=0 v=0
382080 Par ch=10 c=4 v=0
382080 Par ch=10 c=8 v=0
382080 Par ch=10 c=10 v=63
382080 Par ch=10 c=64 v=0
382080 Par ch=10 c=66 v=0
382080 Par ch=10 c=67 v=0
382080 Par ch=10 c=68 v=0
382080 Par ch=10 c=65 v=0
382080 Meta TrkEnd
TrkEnd
MTrk
0 Meta TrkName "Toms                "
0 Meta 0x21 00
0 Meta 0x20 09
0 Par ch=10 c=7 v=99
0 Par ch=10 c=10 v=64
0 PrCh ch=10 p=0
8640 On ch=10 n=48 v=98
8760 Off ch=10 n=48 v=64
9000 On ch=10 n=45 v=98
9120 Off ch=10 n=45 v=64
9120 On ch=10 n=45 v=98
9240 Off ch=10 n=45 v=64
9240 On ch=10 n=41 v=98
9360 Off ch=10 n=41 v=64
9360 On ch=10 n=41 v=98
9480 Off ch=10 n=41 v=64
12480 On ch=10 n=48 v=98
12600 Off ch=10 n=48 v=64
12840 On ch=10 n=45 v=98
12960 Off ch=10 n=45 v=64
12960 On ch=10 n=45 v=98
13080 Off ch=10 n=45 v=64
13080 On ch=10 n=41 v=98
13200 Off ch=10 n=41 v=64
13200 On ch=10 n=41 v=98
13320 Off ch=10 n=41 v=64
16080 On ch=10 n=45 v=98
16200 Off ch=10 n=45 v=64
16320 On ch=10 n=48 v=98
16440 Off ch=10 n=48 v=64
16560 On ch=10 n=45 v=98
16680 Off ch=10 n=45 v=64
16800 On ch=10 n=45 v=98
16920 Off ch=10 n=45 v=64
17040 On ch=10 n=41 v=98
17160 Off ch=10 n=41 v=64
21840 On ch=10 n=45 v=98
21960 Off ch=10 n=45 v=64
22080 On ch=10 n=48 v=98
22200 Off ch=10 n=48 v=64
22320 On ch=10 n=45 v=98
22440 Off ch=10 n=45 v=64
22560 On ch=10 n=45 v=98
22680 Off ch=10 n=45 v=64
22800 On ch=10 n=41 v=98
22920 Off ch=10 n=41 v=64
26400 On ch=10 n=48 v=98
26520 Off ch=10 n=48 v=64
26520 On ch=10 n=45 v=98
26640 Off ch=10 n=45 v=64
26640 On ch=10 n=43 v=98
26760 Off ch=10 n=43 v=64
26760 On ch=10 n=43 v=98
26880 Off ch=10 n=43 v=64
41040 On ch=10 n=45 v=98
41160 Off ch=10 n=45 v=64
41280 On ch=10 n=48 v=98
41400 Off ch=10 n=48 v=64
41520 On ch=10 n=45 v=98
41640 Off ch=10 n=45 v=64
41760 On ch=10 n=45 v=98
41880 Off ch=10 n=45 v=64
42000 On ch=10 n=41 v=98
42120 Off ch=10 n=41 v=64
50640 On ch=10 n=45 v=98
50760 Off ch=10 n=45 v=64
50880 On ch=10 n=48 v=98
51000 Off ch=10 n=48 v=64
51120 On ch=10 n=45 v=98
51240 Off ch=10 n=45 v=64
51360 On ch=10 n=45 v=98
51480 Off ch=10 n=45 v=64
51600 On ch=10 n=41 v=98
51720 Off ch=10 n=41 v=64
52560 On ch=10 n=45 v=98
52680 Off ch=10 n=45 v=64
52800 On ch=10 n=48 v=98
52920 Off ch=10 n=48 v=64
53040 On ch=10 n=45 v=98
53160 Off ch=10 n=45 v=64
53280 On ch=10 n=45 v=98
53400 Off ch=10 n=45 v=64
53520 On ch=10 n=41 v=98
53640 Off ch=10 n=41 v=64
56400 On ch=10 n=45 v=98
56520 Off ch=10 n=45 v=64
56640 On ch=10 n=48 v=98
56760 Off ch=10 n=48 v=64
56880 On ch=10 n=45 v=98
57000 Off ch=10 n=45 v=64
57120 On ch=10 n=45 v=98
57240 Off ch=10 n=45 v=64
57360 On ch=10 n=41 v=98
57480 Off ch=10 n=41 v=64
60240 On ch=10 n=45 v=98
60360 Off ch=10 n=45 v=64
60480 On ch=10 n=48 v=98
60600 Off ch=10 n=48 v=64
60720 On ch=10 n=45 v=98
60840 Off ch=10 n=45 v=64
60960 On ch=10 n=45 v=98
61080 Off ch=10 n=45 v=64
61200 On ch=10 n=41 v=98
61320 Off ch=10 n=41 v=64
63600 On ch=10 n=41 v=98
63720 Off ch=10 n=41 v=64
63840 On ch=10 n=41 v=98
63960 Off ch=10 n=41 v=64
64080 On ch=10 n=41 v=98
64200 Off ch=10 n=41 v=64
64320 On ch=10 n=41 v=98
64440 Off ch=10 n=41 v=64
64800 On ch=10 n=41 v=98
64920 Off ch=10 n=41 v=64
65520 On ch=10 n=41 v=98
65640 Off ch=10 n=41 v=64
65760 On ch=10 n=41 v=98
65880 Off ch=10 n=41 v=64
66000 On ch=10 n=41 v=98
66120 Off ch=10 n=41 v=64
66240 On ch=10 n=41 v=98
66360 Off ch=10 n=41 v=64
66720 On ch=10 n=41 v=98
66840 Off ch=10 n=41 v=64
77040 On ch=10 n=41 v=104
77160 Off ch=10 n=41 v=64
78240 On ch=10 n=45 v=104
78360 Off ch=10 n=45 v=64
78480 On ch=10 n=45 v=104
78600 Off ch=10 n=45 v=64
92400 On ch=10 n=41 v=104
92520 Off ch=10 n=41 v=64
93600 On ch=10 n=48 v=104
93720 Off ch=10 n=48 v=64
93840 On ch=10 n=45 v=104
93960 Off ch=10 n=45 v=64
99120 On ch=10 n=45 v=104
99240 Off ch=10 n=45 v=64
99360 On ch=10 n=48 v=104
99480 Off ch=10 n=48 v=64
99480 On ch=10 n=48 v=104
99600 Off ch=10 n=48 v=64
99600 On ch=10 n=45 v=104
99720 Off ch=10 n=45 v=64
99720 On ch=10 n=45 v=104
99840 Off ch=10 n=45 v=64
105840 On ch=10 n=41 v=104
105960 Off ch=10 n=41 v=64
107040 On ch=10 n=48 v=104
107160 Off ch=10 n=48 v=64
107280 On ch=10 n=45 v=104
107400 Off ch=10 n=45 v=64
121200 On ch=10 n=41 v=104
121320 Off ch=10 n=41 v=64
122400 On ch=10 n=48 v=104
122520 Off ch=10 n=48 v=64
122640 On ch=10 n=45 v=104
122760 Off ch=10 n=45 v=64
129840 On ch=10 n=45 v=104
129960 Off ch=10 n=45 v=64
130080 On ch=10 n=48 v=104
130200 Off ch=10 n=48 v=64
130200 On ch=10 n=48 v=104
130320 Off ch=10 n=48 v=64
130320 On ch=10 n=45 v=104
130440 Off ch=10 n=45 v=64
130440 On ch=10 n=45 v=104
130560 Off ch=10 n=45 v=64
134640 On ch=10 n=41 v=104
134760 Off ch=10 n=41 v=64
135840 On ch=10 n=48 v=104
135960 Off ch=10 n=48 v=64
136080 On ch=10 n=45 v=104
136200 Off ch=10 n=45 v=64
143280 On ch=10 n=45 v=104
143400 Off ch=10 n=45 v=64
143520 On ch=10 n=48 v=104
143640 Off ch=10 n=48 v=64
143640 On ch=10 n=48 v=104
143760 Off ch=10 n=48 v=64
143760 On ch=10 n=45 v=104
143880 Off ch=10 n=45 v=64
143880 On ch=10 n=45 v=104
144000 Off ch=10 n=45 v=64
150000 On ch=10 n=41 v=104
150120 Off ch=10 n=41 v=64
151200 On ch=10 n=48 v=104
151320 Off ch=10 n=48 v=64
151440 On ch=10 n=45 v=104
151560 Off ch=10 n=45 v=64
151920 On ch=10 n=41 v=104
152040 Off ch=10 n=41 v=64
153120 On ch=10 n=48 v=104
153240 Off ch=10 n=48 v=64
153360 On ch=10 n=45 v=104
153480 Off ch=10 n=45 v=64
153840 On ch=10 n=41 v=104
153960 Off ch=10 n=41 v=64
155040 On ch=10 n=48 v=104
155160 Off ch=10 n=48 v=64
155280 On ch=10 n=45 v=104
155400 Off ch=10 n=45 v=64
161520 On ch=10 n=41 v=104
161640 Off ch=10 n=41 v=64
162720 On ch=10 n=48 v=104
162840 Off ch=10 n=48 v=64
162960 On ch=10 n=45 v=104
163080 Off ch=10 n=45 v=64
170160 On ch=10 n=45 v=104
170280 Off ch=10 n=45 v=64
170400 On ch=10 n=48 v=104
170520 Off ch=10 n=48 v=64
170520 On ch=10 n=48 v=104
170640 Off ch=10 n=48 v=64
170640 On ch=10 n=45 v=104
170760 Off ch=10 n=45 v=64
170760 On ch=10 n=45 v=104
170880 Off ch=10 n=45 v=64
176880 On ch=10 n=41 v=104
177000 Off ch=10 n=41 v=64
178080 On ch=10 n=48 v=104
178200 Off ch=10 n=48 v=64
178320 On ch=10 n=45 v=104
178440 Off ch=10 n=45 v=64
185520 On ch=10 n=45 v=104
185640 Off ch=10 n=45 v=64
185760 On ch=10 n=48 v=104
185880 Off ch=10 n=48 v=64
185880 On ch=10 n=48 v=104
186000 Off ch=10 n=48 v=64
186000 On ch=10 n=45 v=104
186120 Off ch=10 n=45 v=64
186120 On ch=10 n=45 v=104
186240 Off ch=10 n=45 v=64
192240 On ch=10 n=41 v=104
192360 Off ch=10 n=41 v=64
193440 On ch=10 n=48 v=104
193560 Off ch=10 n=48 v=64
193680 On ch=10 n=45 v=104
193800 Off ch=10 n=45 v=64
196080 On ch=10 n=41 v=104
196200 Off ch=10 n=41 v=64
197280 On ch=10 n=48 v=104
197400 Off ch=10 n=48 v=64
197520 On ch=10 n=45 v=104
197640 Off ch=10 n=45 v=64
201840 On ch=10 n=41 v=104
201960 Off ch=10 n=41 v=64
203040 On ch=10 n=48 v=104
203160 Off ch=10 n=48 v=64
203280 On ch=10 n=45 v=104
203400 Off ch=10 n=45 v=64
217200 On ch=10 n=41 v=104
217320 Off ch=10 n=41 v=64
218400 On ch=10 n=48 v=104
218520 Off ch=10 n=48 v=64
218640 On ch=10 n=45 v=104
218760 Off ch=10 n=45 v=64
225840 On ch=10 n=45 v=104
225960 Off ch=10 n=45 v=64
226080 On ch=10 n=48 v=104
226200 Off ch=10 n=48 v=64
226200 On ch=10 n=48 v=104
226320 Off ch=10 n=48 v=64
226320 On ch=10 n=45 v=104
226440 Off ch=10 n=45 v=64
226440 On ch=10 n=45 v=104
226560 Off ch=10 n=45 v=64
232560 On ch=10 n=41 v=104
232680 Off ch=10 n=41 v=64
233760 On ch=10 n=48 v=104
233880 Off ch=10 n=48 v=64
234000 On ch=10 n=45 v=104
234120 Off ch=10 n=45 v=64
236400 On ch=10 n=41 v=104
236520 Off ch=10 n=41 v=64
237600 On ch=10 n=48 v=104
237720 Off ch=10 n=48 v=64
237840 On ch=10 n=45 v=104
237960 Off ch=10 n=45 v=64
253680 On ch=10 n=41 v=104
253800 Off ch=10 n=41 v=64
254880 On ch=10 n=48 v=104
255000 Off ch=10 n=48 v=64
255120 On ch=10 n=45 v=104
255240 Off ch=10 n=45 v=64
262320 On ch=10 n=45 v=104
262440 Off ch=10 n=45 v=64
262560 On ch=10 n=48 v=104
262680 Off ch=10 n=48 v=64
262680 On ch=10 n=48 v=104
262800 Off ch=10 n=48 v=64
262800 On ch=10 n=45 v=104
262920 Off ch=10 n=45 v=64
262920 On ch=10 n=45 v=104
263040 Off ch=10 n=45 v=64
269040 On ch=10 n=41 v=104
269160 Off ch=10 n=41 v=64
270240 On ch=10 n=48 v=104
270360 Off ch=10 n=48 v=64
270480 On ch=10 n=45 v=104
270600 Off ch=10 n=45 v=64
277680 On ch=10 n=45 v=104
277800 Off ch=10 n=45 v=64
277920 On ch=10 n=48 v=104
278040 Off ch=10 n=48 v=64
278040 On ch=10 n=48 v=104
278160 Off ch=10 n=48 v=64
278160 On ch=10 n=45 v=104
278280 Off ch=10 n=45 v=64
278280 On ch=10 n=45 v=104
278400 Off ch=10 n=45 v=64
284400 On ch=10 n=41 v=104
284520 Off ch=10 n=41 v=64
285600 On ch=10 n=48 v=104
285720 Off ch=10 n=48 v=64
285840 On ch=10 n=45 v=104
285960 Off ch=10 n=45 v=64
291120 On ch=10 n=45 v=104
291240 Off ch=10 n=45 v=64
291360 On ch=10 n=48 v=104
291480 Off ch=10 n=48 v=64
291480 On ch=10 n=48 v=104
291600 Off ch=10 n=48 v=64
291600 On ch=10 n=45 v=104
291720 Off ch=10 n=45 v=64
291720 On ch=10 n=45 v=104
291840 Off ch=10 n=45 v=64
299760 On ch=10 n=41 v=104
299880 Off ch=10 n=41 v=64
300960 On ch=10 n=48 v=104
301080 Off ch=10 n=48 v=64
301200 On ch=10 n=45 v=104
301320 Off ch=10 n=45 v=64
308400 On ch=10 n=45 v=104
308520 Off ch=10 n=45 v=64
308640 On ch=10 n=48 v=104
308760 Off ch=10 n=48 v=64
308760 On ch=10 n=48 v=104
308880 Off ch=10 n=48 v=64
308880 On ch=10 n=45 v=104
309000 Off ch=10 n=45 v=64
309000 On ch=10 n=45 v=104
309120 Off ch=10 n=45 v=64
315120 On ch=10 n=41 v=104
315240 Off ch=10 n=41 v=64
316320 On ch=10 n=48 v=104
316440 Off ch=10 n=48 v=64
316560 On ch=10 n=45 v=104
316680 Off ch=10 n=45 v=64
335520 On ch=10 n=48 v=104
335640 Off ch=10 n=48 v=64
335640 On ch=10 n=45 v=104
335760 Off ch=10 n=45 v=64
335760 On ch=10 n=43 v=104
335880 Off ch=10 n=43 v=64
335880 On ch=10 n=43 v=104
336000 Off ch=10 n=43 v=64
338640 On ch=10 n=45 v=104
338760 Off ch=10 n=45 v=64
338880 On ch=10 n=48 v=104
339000 Off ch=10 n=48 v=64
339120 On ch=10 n=45 v=104
339240 Off ch=10 n=45 v=64
339360 On ch=10 n=45 v=104
339480 Off ch=10 n=45 v=64
339600 On ch=10 n=41 v=104
339840 Off ch=10 n=41 v=64
346560 On ch=10 n=48 v=104
346680 Off ch=10 n=48 v=64
346920 On ch=10 n=45 v=104
347040 Off ch=10 n=45 v=64
347040 On ch=10 n=45 v=104
347160 Off ch=10 n=45 v=64
347160 On ch=10 n=41 v=104
347280 Off ch=10 n=41 v=64
347280 On ch=10 n=41 v=104
347400 Off ch=10 n=41 v=64
350400 On ch=10 n=48 v=104
350520 Off ch=10 n=48 v=64
350760 On ch=10 n=45 v=104
350880 Off ch=10 n=45 v=64
350880 On ch=10 n=45 v=104
351000 Off ch=10 n=45 v=64
351000 On ch=10 n=41 v=104
351120 Off ch=10 n=41 v=64
351120 On ch=10 n=41 v=104
351240 Off ch=10 n=41 v=64
352320 On ch=10 n=48 v=104
352440 Off ch=10 n=48 v=64
352680 On ch=10 n=45 v=104
352800 Off ch=10 n=45 v=64
352800 On ch=10 n=45 v=104
352920 Off ch=10 n=45 v=64
352920 On ch=10 n=41 v=104
353040 Off ch=10 n=41 v=64
353040 On ch=10 n=41 v=104
353160 Off ch=10 n=41 v=64
354240 On ch=10 n=48 v=104
354360 Off ch=10 n=48 v=64
354600 On ch=10 n=45 v=104
354720 Off ch=10 n=45 v=64
354720 On ch=10 n=45 v=104
354840 Off ch=10 n=45 v=64
354840 On ch=10 n=41 v=104
354960 Off ch=10 n=41 v=64
354960 On ch=10 n=41 v=104
355080 Off ch=10 n=41 v=64
355920 On ch=10 n=45 v=104
356040 Off ch=10 n=45 v=64
356160 On ch=10 n=48 v=104
356280 Off ch=10 n=48 v=64
356400 On ch=10 n=45 v=104
356520 Off ch=10 n=45 v=64
356640 On ch=10 n=45 v=104
356760 Off ch=10 n=45 v=64
356880 On ch=10 n=41 v=104
357000 Off ch=10 n=41 v=64
358080 On ch=10 n=48 v=104
358200 Off ch=10 n=48 v=64
358440 On ch=10 n=45 v=104
358560 Off ch=10 n=45 v=64
358560 On ch=10 n=45 v=104
358680 Off ch=10 n=45 v=64
358680 On ch=10 n=41 v=104
358800 Off ch=10 n=41 v=64
358800 On ch=10 n=41 v=104
358920 Off ch=10 n=41 v=64
359760 On ch=10 n=45 v=104
359880 Off ch=10 n=45 v=64
360000 On ch=10 n=48 v=104
360120 Off ch=10 n=48 v=64
360240 On ch=10 n=45 v=104
360360 Off ch=10 n=45 v=64
360480 On ch=10 n=45 v=104
360600 Off ch=10 n=45 v=64
360720 On ch=10 n=41 v=104
360840 Off ch=10 n=41 v=64
361200 On ch=10 n=41 v=104
361320 Off ch=10 n=41 v=64
361440 On ch=10 n=41 v=104
361560 Off ch=10 n=41 v=64
361680 On ch=10 n=41 v=104
361800 Off ch=10 n=41 v=64
361920 On ch=10 n=41 v=104
362040 Off ch=10 n=41 v=64
362400 On ch=10 n=41 v=104
362520 Off ch=10 n=41 v=64
363120 On ch=10 n=41 v=104
363240 Off ch=10 n=41 v=64
363360 On ch=10 n=41 v=104
363480 Off ch=10 n=41 v=64
363600 On ch=10 n=41 v=104
363720 Off ch=10 n=41 v=64
363840 On ch=10 n=41 v=104
363960 Off ch=10 n=41 v=64
364320 On ch=10 n=41 v=104
364440 Off ch=10 n=41 v=64
365520 On ch=10 n=45 v=104
365640 Off ch=10 n=45 v=64
365760 On ch=10 n=48 v=104
365880 Off ch=10 n=48 v=64
366000 On ch=10 n=45 v=104
366120 Off ch=10 n=45 v=64
366240 On ch=10 n=45 v=104
366360 Off ch=10 n=45 v=64
366480 On ch=10 n=41 v=104
366600 Off ch=10 n=41 v=64
367440 On ch=10 n=45 v=104
367560 Off ch=10 n=45 v=64
367680 On ch=10 n=48 v=104
367800 Off ch=10 n=48 v=64
367920 On ch=10 n=45 v=104
368040 Off ch=10 n=45 v=64
368160 On ch=10 n=45 v=104
368280 Off ch=10 n=45 v=64
368400 On ch=10 n=41 v=104
368520 Off ch=10 n=41 v=64
382080 Par ch=10 c=7 v=100
382080 Par ch=10 c=2 v=0
382080 Par ch=10 c=1 v=0
382080 ChPr ch=10 v=0
382080 Pb ch=10 v=8192
382080 PoPr ch=10 n=0 v=0
382080 Par ch=10 c=4 v=0
382080 Par ch=10 c=8 v=0
382080 Par ch=10 c=10 v=63
382080 Par ch=10 c=64 v=0
382080 Par ch=10 c=66 v=0
382080 Par ch=10 c=67 v=0
382080 Par ch=10 c=68 v=0
382080 Par ch=10 c=65 v=0
382080 Meta TrkEnd
TrkEnd
MTrk
0 Meta TrkName "Closed Hi Hat       "
0 Meta 0x21 00
0 Meta 0x20 09
0 Par ch=10 c=7 v=99
0 Par ch=10 c=10 v=64
0 PrCh ch=10 p=0
1920 On ch=10 n=42 v=100
2040 Off ch=10 n=42 v=64
2160 On ch=10 n=42 v=100
2280 Off ch=10 n=42 v=64
2400 On ch=10 n=42 v=100
2520 Off ch=10 n=42 v=64
2640 On ch=10 n=42 v=100
2760 Off ch=10 n=42 v=64
2880 On ch=10 n=42 v=100
3000 Off ch=10 n=42 v=64
3120 On ch=10 n=42 v=100
3240 Off ch=10 n=42 v=64
3360 On ch=10 n=42 v=100
3480 Off ch=10 n=42 v=64
3840 On ch=10 n=42 v=100
3960 Off ch=10 n=42 v=64
4080 On ch=10 n=42 v=100
4200 Off ch=10 n=42 v=64
4320 On ch=10 n=42 v=100
4440 Off ch=10 n=42 v=64
4560 On ch=10 n=42 v=100
4680 Off ch=10 n=42 v=64
4800 On ch=10 n=42 v=100
4920 Off ch=10 n=42 v=64
5040 On ch=10 n=42 v=100
5160 Off ch=10 n=42 v=64
5280 On ch=10 n=42 v=100
5400 Off ch=10 n=42 v=64
5520 On ch=10 n=42 v=100
5640 Off ch=10 n=42 v=64
7680 On ch=10 n=42 v=100
7800 Off ch=10 n=42 v=64
7920 On ch=10 n=42 v=100
8040 Off ch=10 n=42 v=64
9600 On ch=10 n=42 v=100
9720 Off ch=10 n=42 v=64
9840 On ch=10 n=42 v=100
9960 Off ch=10 n=42 v=64
10080 On ch=10 n=42 v=100
10200 Off ch=10 n=42 v=64
10320 On ch=10 n=42 v=100
10440 Off ch=10 n=42 v=64
10560 On ch=10 n=42 v=100
10680 Off ch=10 n=42 v=64
10800 On ch=10 n=42 v=100
10920 Off ch=10 n=42 v=64
11040 On ch=10 n=42 v=100
11160 Off ch=10 n=42 v=64
11280 On ch=10 n=42 v=100
11400 Off ch=10 n=42 v=64
11520 On ch=10 n=42 v=100
11640 Off ch=10 n=42 v=64
11760 On ch=10 n=42 v=100
11880 Off ch=10 n=42 v=64
13440 On ch=10 n=42 v=100
13560 Off ch=10 n=42 v=64
13680 On ch=10 n=42 v=100
13800 Off ch=10 n=42 v=64
13920 On ch=10 n=42 v=100
14040 Off ch=10 n=42 v=64
14160 On ch=10 n=42 v=100
14280 Off ch=10 n=42 v=64
14400 On ch=10 n=42 v=100
14520 Off ch=10 n=42 v=64
14640 On ch=10 n=42 v=100
14760 Off ch=10 n=42 v=64
14880 On ch=10 n=42 v=100
15000 Off ch=10 n=42 v=64
15120 On ch=10 n=42 v=100
15240 Off ch=10 n=42 v=64
15360 On ch=10 n=42 v=100
15480 Off ch=10 n=42 v=64
15600 On ch=10 n=42 v=100
15720 Off ch=10 n=42 v=64
15720 On ch=10 n=42 v=100
15840 Off ch=10 n=42 v=64
16800 On ch=10 n=42 v=100
16920 Off ch=10 n=42 v=64
17280 On ch=10 n=42 v=100
17400 Off ch=10 n=42 v=64
17520 On ch=10 n=42 v=100
17640 Off ch=10 n=42 v=64
17760 On ch=10 n=42 v=100
17880 Off ch=10 n=42 v=64
18000 On ch=10 n=42 v=100
18120 Off ch=10 n=42 v=64
18240 On ch=10 n=42 v=100
18360 Off ch=10 n=42 v=64
18480 On ch=10 n=42 v=100
18600 Off ch=10 n=42 v=64
18720 On ch=10 n=42 v=100
18840 Off ch=10 n=42 v=64
18960 On ch=10 n=42 v=100
19080 Off ch=10 n=42 v=64
19200 On ch=10 n=42 v=100
19320 Off ch=10 n=42 v=64
19440 On ch=10 n=42 v=100
19560 Off ch=10 n=42 v=64
19680 On ch=10 n=42 v=100
19800 Off ch=10 n=42 v=64
19920 On ch=10 n=42 v=100
20040 Off ch=10 n=42 v=64
20160 On ch=10 n=42 v=100
20280 Off ch=10 n=42 v=64
20400 On ch=10 n=42 v=100
20520 Off ch=10 n=42 v=64
20640 On ch=10 n=42 v=100
20760 Off ch=10 n=42 v=64
20880 On ch=10 n=42 v=100
21000 Off ch=10 n=42 v=64
21120 On ch=10 n=42 v=100
21240 Off ch=10 n=42 v=64
21360 On ch=10 n=42 v=100
21480 Off ch=10 n=42 v=64
21600 On ch=10 n=42 v=100
21720 Off ch=10 n=42 v=64
21840 On ch=10 n=42 v=100
21960 Off ch=10 n=42 v=64
22080 On ch=10 n=42 v=100
22200 Off ch=10 n=42 v=64
22560 On ch=10 n=42 v=100
22680 Off ch=10 n=42 v=64
22800 On ch=10 n=42 v=100
22920 Off ch=10 n=42 v=64
23040 On ch=10 n=42 v=100
23160 Off ch=10 n=42 v=64
23280 On ch=10 n=42 v=100
23400 Off ch=10 n=42 v=64
23520 On ch=10 n=42 v=100
23640 Off ch=10 n=42 v=64
23760 On ch=10 n=42 v=100
23880 Off ch=10 n=42 v=64
24000 On ch=10 n=42 v=100
24120 Off ch=10 n=42 v=64
24960 On ch=10 n=42 v=100
25080 Off ch=10 n=42 v=64
25200 On ch=10 n=42 v=100
25320 Off ch=10 n=42 v=64
25440 On ch=10 n=42 v=100
25560 Off ch=10 n=42 v=64
25680 On ch=10 n=42 v=100
25800 Off ch=10 n=42 v=64
25920 On ch=10 n=42 v=100
26040 Off ch=10 n=42 v=64
26880 On ch=10 n=42 v=100
27000 Off ch=10 n=42 v=64
27120 On ch=10 n=42 v=100
27240 Off ch=10 n=42 v=64
27360 On ch=10 n=42 v=100
27480 Off ch=10 n=42 v=64
27600 On ch=10 n=42 v=100
27720 Off ch=10 n=42 v=64
27840 On ch=10 n=42 v=100
27960 Off ch=10 n=42 v=64
28800 On ch=10 n=42 v=100
28920 Off ch=10 n=42 v=64
29040 On ch=10 n=42 v=100
29160 Off ch=10 n=42 v=64
29280 On ch=10 n=42 v=100
29400 Off ch=10 n=42 v=64
29520 On ch=10 n=42 v=100
29640 Off ch=10 n=42 v=64
29760 On ch=10 n=42 v=100
29880 Off ch=10 n=42 v=64
30000 On ch=10 n=42 v=100
30120 Off ch=10 n=42 v=64
30240 On ch=10 n=42 v=100
30360 Off ch=10 n=42 v=64
30480 On ch=10 n=42 v=100
30600 Off ch=10 n=42 v=64
30720 On ch=10 n=42 v=100
30840 Off ch=10 n=42 v=64
30960 On ch=10 n=42 v=100
31080 Off ch=10 n=42 v=64
31200 On ch=10 n=42 v=100
31320 Off ch=10 n=42 v=64
31440 On ch=10 n=42 v=100
31560 Off ch=10 n=42 v=64
31680 On ch=10 n=42 v=100
31800 Off ch=10 n=42 v=64
31920 On ch=10 n=42 v=100
32040 Off ch=10 n=42 v=64
32160 On ch=10 n=42 v=100
32280 Off ch=10 n=42 v=64
32640 On ch=10 n=42 v=100
32760 Off ch=10 n=42 v=64
32880 On ch=10 n=42 v=100
33000 Off ch=10 n=42 v=64
33120 On ch=10 n=42 v=100
33240 Off ch=10 n=42 v=64
33360 On ch=10 n=42 v=100
33480 Off ch=10 n=42 v=64
33600 On ch=10 n=42 v=100
33720 Off ch=10 n=42 v=64
33840 On ch=10 n=42 v=100
33960 Off ch=10 n=42 v=64
34080 On ch=10 n=42 v=100
34200 Off ch=10 n=42 v=64
34320 On ch=10 n=42 v=100
34440 Off ch=10 n=42 v=64
34560 On ch=10 n=42 v=100
34680 Off ch=10 n=42 v=64
34800 On ch=10 n=42 v=100
34920 Off ch=10 n=42 v=64
35040 On ch=10 n=42 v=100
35160 Off ch=10 n=42 v=64
35280 On ch=10 n=42 v=100
35400 Off ch=10 n=42 v=64
35520 On ch=10 n=42 v=100
35640 Off ch=10 n=42 v=64
36480 On ch=10 n=42 v=100
36600 Off ch=10 n=42 v=64
36720 On ch=10 n=42 v=100
36840 Off ch=10 n=42 v=64
36960 On ch=10 n=42 v=100
37080 Off ch=10 n=42 v=64
37200 On ch=10 n=42 v=100
37320 Off ch=10 n=42 v=64
37440 On ch=10 n=42 v=100
37560 Off ch=10 n=42 v=64
38400 On ch=10 n=42 v=100
38520 Off ch=10 n=42 v=64
38640 On ch=10 n=42 v=100
38760 Off ch=10 n=42 v=64
38880 On ch=10 n=42 v=100
39000 Off ch=10 n=42 v=64
39120 On ch=10 n=42 v=100
39240 Off ch=10 n=42 v=64
39360 On ch=10 n=42 v=100
39480 Off ch=10 n=42 v=64
39600 On ch=10 n=42 v=100
39720 Off ch=10 n=42 v=64
39840 On ch=10 n=42 v=100
39960 Off ch=10 n=42 v=64
40080 On ch=10 n=42 v=100
40200 Off ch=10 n=42 v=64
40320 On ch=10 n=42 v=100
40440 Off ch=10 n=42 v=64
40560 On ch=10 n=42 v=100
40680 Off ch=10 n=42 v=64
40680 On ch=10 n=42 v=100
40800 Off ch=10 n=42 v=64
41760 On ch=10 n=42 v=100
41880 Off ch=10 n=42 v=64
42240 On ch=10 n=42 v=100
42360 Off ch=10 n=42 v=64
42480 On ch=10 n=42 v=100
42600 Off ch=10 n=42 v=64
42720 On ch=10 n=42 v=100
42840 Off ch=10 n=42 v=64
42960 On ch=10 n=42 v=100
43080 Off ch=10 n=42 v=64
43200 On ch=10 n=42 v=100
43320 Off ch=10 n=42 v=64
43440 On ch=10 n=42 v=100
43560 Off ch=10 n=42 v=64
43680 On ch=10 n=42 v=100
43800 Off ch=10 n=42 v=64
43920 On ch=10 n=42 v=100
44040 Off ch=10 n=42 v=64
46080 On ch=10 n=42 v=100
46200 Off ch=10 n=42 v=64
46320 On ch=10 n=42 v=100
46440 Off ch=10 n=42 v=64
46560 On ch=10 n=42 v=100
46680 Off ch=10 n=42 v=64
46800 On ch=10 n=42 v=100
46920 Off ch=10 n=42 v=64
47040 On ch=10 n=42 v=100
47160 Off ch=10 n=42 v=64
47280 On ch=10 n=42 v=100
47400 Off ch=10 n=42 v=64
47520 On ch=10 n=42 v=100
47640 Off ch=10 n=42 v=64
47760 On ch=10 n=42 v=100
47880 Off ch=10 n=42 v=64
48000 On ch=10 n=42 v=100
48120 Off ch=10 n=42 v=64
48240 On ch=10 n=42 v=100
48360 Off ch=10 n=42 v=64
48480 On ch=10 n=42 v=100
48600 Off ch=10 n=42 v=64
48720 On ch=10 n=42 v=100
48840 Off ch=10 n=42 v=64
48960 On ch=10 n=42 v=100
49080 Off ch=10 n=42 v=64
49200 On ch=10 n=42 v=100
49320 Off ch=10 n=42 v=64
49440 On ch=10 n=42 v=100
49560 Off ch=10 n=42 v=64
49920 On ch=10 n=42 v=100
50040 Off ch=10 n=42 v=64
50160 On ch=10 n=42 v=100
50280 Off ch=10 n=42 v=64
50400 On ch=10 n=42 v=100
50520 Off ch=10 n=42 v=64
50640 On ch=10 n=42 v=100
50760 Off ch=10 n=42 v=64
50880 On ch=10 n=42 v=100
51000 Off ch=10 n=42 v=64
51360 On ch=10 n=42 v=100
51480 Off ch=10 n=42 v=64
51600 On ch=10 n=42 v=100
51720 Off ch=10 n=42 v=64
51840 On ch=10 n=42 v=100
51960 Off ch=10 n=42 v=64
52080 On ch=10 n=42 v=100
52200 Off ch=10 n=42 v=64
52320 On ch=10 n=42 v=100
52440 Off ch=10 n=42 v=64
52560 On ch=10 n=42 v=100
52680 Off ch=10 n=42 v=64
52800 On ch=10 n=42 v=100
52920 Off ch=10 n=42 v=64
53760 On ch=10 n=42 v=100
53880 Off ch=10 n=42 v=64
54000 On ch=10 n=42 v=100
54120 Off ch=10 n=42 v=64
54240 On ch=10 n=42 v=100
54360 Off ch=10 n=42 v=64
54480 On ch=10 n=42 v=100
54600 Off ch=10 n=42 v=64
54720 On ch=10 n=42 v=100
54840 Off ch=10 n=42 v=64
55440 On ch=10 n=42 v=100
55560 Off ch=10 n=42 v=64
55680 On ch=10 n=42 v=100
55800 Off ch=10 n=42 v=64
55920 On ch=10 n=42 v=100
56040 Off ch=10 n=42 v=64
56160 On ch=10 n=42 v=100
56280 Off ch=10 n=42 v=64
56400 On ch=10 n=42 v=100
56520 Off ch=10 n=42 v=64
56640 On ch=10 n=42 v=100
56760 Off ch=10 n=42 v=64
57360 On ch=10 n=42 v=100
57480 Off ch=10 n=42 v=64
57600 On ch=10 n=42 v=100
57720 Off ch=10 n=42 v=64
57840 On ch=10 n=42 v=100
57960 Off ch=10 n=42 v=64
58080 On ch=10 n=42 v=100
58200 Off ch=10 n=42 v=64
58320 On ch=10 n=42 v=100
58440 Off ch=10 n=42 v=64
58560 On ch=10 n=42 v=100
58680 Off ch=10 n=42 v=64
58800 On ch=10 n=42 v=100
58920 Off ch=10 n=42 v=64
59040 On ch=10 n=42 v=100
59160 Off ch=10 n=42 v=64
59280 On ch=10 n=42 v=100
59400 Off ch=10 n=42 v=64
61440 On ch=10 n=42 v=100
61560 Off ch=10 n=42 v=64
61680 On ch=10 n=42 v=100
61800 Off ch=10 n=42 v=64
61920 On ch=10 n=42 v=100
62040 Off ch=10 n=42 v=64
62160 On ch=10 n=42 v=100
62280 Off ch=10 n=42 v=64
62400 On ch=10 n=42 v=100
62520 Off ch=10 n=42 v=64
62640 On ch=10 n=42 v=100
62760 Off ch=10 n=42 v=64
62880 On ch=10 n=42 v=100
63000 Off ch=10 n=42 v=64
63120 On ch=10 n=42 v=100
63240 Off ch=10 n=42 v=64
63360 On ch=10 n=42 v=100
63480 Off ch=10 n=42 v=64
63600 On ch=10 n=42 v=100
63720 Off ch=10 n=42 v=64
63840 On ch=10 n=42 v=100
63960 Off ch=10 n=42 v=64
64080 On ch=10 n=42 v=100
64200 Off ch=10 n=42 v=64
64320 On ch=10 n=42 v=100
64440 Off ch=10 n=42 v=64
64560 On ch=10 n=42 v=100
64680 Off ch=10 n=42 v=64
64800 On ch=10 n=42 v=100
64920 Off ch=10 n=42 v=64
65040 On ch=10 n=42 v=100
65160 Off ch=10 n=42 v=64
69120 On ch=10 n=42 v=106
69240 Off ch=10 n=42 v=64
69360 On ch=10 n=42 v=106
69480 Off ch=10 n=42 v=64
69600 On ch=10 n=42 v=106
69720 Off ch=10 n=42 v=64
69840 On ch=10 n=42 v=106
69960 Off ch=10 n=42 v=64
70080 On ch=10 n=42 v=106
70200 Off ch=10 n=42 v=64
70320 On ch=10 n=42 v=106
70440 Off ch=10 n=42 v=64
70560 On ch=10 n=42 v=106
70680 Off ch=10 n=42 v=64
70800 On ch=10 n=42 v=106
70920 Off ch=10 n=42 v=64
72960 On ch=10 n=42 v=106
73080 Off ch=10 n=42 v=64
73200 On ch=10 n=42 v=106
73320 Off ch=10 n=42 v=64
73440 On ch=10 n=42 v=106
73560 Off ch=10 n=42 v=64
73680 On ch=10 n=42 v=106
73800 Off ch=10 n=42 v=64
73920 On ch=10 n=42 v=106
74040 Off ch=10 n=42 v=64
74160 On ch=10 n=42 v=106
74280 Off ch=10 n=42 v=64
74400 On ch=10 n=42 v=106
74520 Off ch=10 n=42 v=64
74640 On ch=10 n=42 v=106
74760 Off ch=10 n=42 v=64
74880 On ch=10 n=42 v=106
75000 Off ch=10 n=42 v=64
75120 On ch=10 n=42 v=106
75240 Off ch=10 n=42 v=64
75360 On ch=10 n=42 v=106
75480 Off ch=10 n=42 v=64
75600 On ch=10 n=42 v=106
75720 Off ch=10 n=42 v=64
75840 On ch=10 n=42 v=106
75960 Off ch=10 n=42 v=64
76080 On ch=10 n=42 v=106
76200 Off ch=10 n=42 v=64
76320 On ch=10 n=42 v=106
76440 Off ch=10 n=42 v=64
76560 On ch=10 n=42 v=106
76680 Off ch=10 n=42 v=64
76800 On ch=10 n=42 v=106
76920 Off ch=10 n=42 v=64
77040 On ch=10 n=42 v=106
77160 Off ch=10 n=42 v=64
77280 On ch=10 n=42 v=106
77400 Off ch=10 n=42 v=64
77520 On ch=10 n=42 v=106
77640 Off ch=10 n=42 v=64
77760 On ch=10 n=42 v=106
77880 Off ch=10 n=42 v=64
78000 On ch=10 n=42 v=106
78120 Off ch=10 n=42 v=64
78240 On ch=10 n=42 v=106
78360 Off ch=10 n=42 v=64
78480 On ch=10 n=42 v=106
78600 Off ch=10 n=42 v=64
78720 On ch=10 n=42 v=106
78840 Off ch=10 n=42 v=64
78960 On ch=10 n=42 v=106
79080 Off ch=10 n=42 v=64
79200 On ch=10 n=42 v=106
79320 Off ch=10 n=42 v=64
79440 On ch=10 n=42 v=106
79560 Off ch=10 n=42 v=64
79680 On ch=10 n=42 v=106
79800 Off ch=10 n=42 v=64
79920 On ch=10 n=42 v=106
80040 Off ch=10 n=42 v=64
80160 On ch=10 n=42 v=106
80280 Off ch=10 n=42 v=64
80400 On ch=10 n=42 v=106
80520 Off ch=10 n=42 v=64
80640 On ch=10 n=42 v=106
80760 Off ch=10 n=42 v=64
80880 On ch=10 n=42 v=106
81000 Off ch=10 n=42 v=64
81120 On ch=10 n=42 v=106
81240 Off ch=10 n=42 v=64
81360 On ch=10 n=42 v=106
81480 Off ch=10 n=42 v=64
81600 On ch=10 n=42 v=106
81720 Off ch=10 n=42 v=64
81840 On ch=10 n=42 v=106
81960 Off ch=10 n=42 v=64
82080 On ch=10 n=42 v=106
82200 Off ch=10 n=42 v=64
82320 On ch=10 n=42 v=106
82440 Off ch=10 n=42 v=64
82560 On ch=10 n=42 v=106
82680 Off ch=10 n=42 v=64
82800 On ch=10 n=42 v=106
82920 Off ch=10 n=42 v=64
83040 On ch=10 n=42 v=106
83160 Off ch=10 n=42 v=64
83280 On ch=10 n=42 v=106
83400 Off ch=10 n=42 v=64
83520 On ch=10 n=42 v=106
83640 Off ch=10 n=42 v=64
83760 On ch=10 n=42 v=106
83880 Off ch=10 n=42 v=64
84000 On ch=10 n=42 v=106
84120 Off ch=10 n=42 v=64
84240 On ch=10 n=42 v=106
84360 Off ch=10 n=42 v=64
84480 On ch=10 n=42 v=106
84600 Off ch=10 n=42 v=64
84720 On ch=10 n=42 v=106
84840 Off ch=10 n=42 v=64
84960 On ch=10 n=42 v=106
85080 Off ch=10 n=42 v=64
85200 On ch=10 n=42 v=106
85320 Off ch=10 n=42 v=64
85440 On ch=10 n=42 v=106
85560 Off ch=10 n=42 v=64
85680 On ch=10 n=42 v=106
85800 Off ch=10 n=42 v=64
85920 On ch=10 n=42 v=106
86040 Off ch=10 n=42 v=64
86160 On ch=10 n=42 v=106
86280 Off ch=10 n=42 v=64
86400 On ch=10 n=42 v=106
86520 Off ch=10 n=42 v=64
86640 On ch=10 n=42 v=106
86760 Off ch=10 n=42 v=64
86880 On ch=10 n=42 v=106
87000 Off ch=10 n=42 v=64
87120 On ch=10 n=42 v=106
87240 Off ch=10 n=42 v=64
87360 On ch=10 n=42 v=106
87480 Off ch=10 n=42 v=64
87600 On ch=10 n=42 v=106
87720 Off ch=10 n=42 v=64
87840 On ch=10 n=42 v=106
87960 Off ch=10 n=42 v=64
88080 On ch=10 n=42 v=106
88200 Off ch=10 n=42 v=64
88320 On ch=10 n=42 v=106
88440 Off ch=10 n=42 v=64
88560 On ch=10 n=42 v=106
88680 Off ch=10 n=42 v=64
88800 On ch=10 n=42 v=106
88920 Off ch=10 n=42 v=64
89040 On ch=10 n=42 v=106
89160 Off ch=10 n=42 v=64
89280 On ch=10 n=42 v=106
89400 Off ch=10 n=42 v=64
89520 On ch=10 n=42 v=106
89640 Off ch=10 n=42 v=64
89760 On ch=10 n=42 v=106
89880 Off ch=10 n=42 v=64
90000 On ch=10 n=42 v=106
90120 Off ch=10 n=42 v=64
90240 On ch=10 n=42 v=106
90360 Off ch=10 n=42 v=64
90480 On ch=10 n=42 v=106
90600 Off ch=10 n=42 v=64
90720 On ch=10 n=42 v=106
90840 Off ch=10 n=42 v=64
90960 On ch=10 n=42 v=106
91080 Off ch=10 n=42 v=64
91200 On ch=10 n=42 v=106
91320 Off ch=10 n=42 v=64
91440 On ch=10 n=42 v=106
91560 Off ch=10 n=42 v=64
91680 On ch=10 n=42 v=106
91800 Off ch=10 n=42 v=64
91920 On ch=10 n=42 v=106
92040 Off ch=10 n=42 v=64
92160 On ch=10 n=42 v=106
92280 Off ch=10 n=42 v=64
92400 On ch=10 n=42 v=106
92520 Off ch=10 n=42 v=64
92640 On ch=10 n=42 v=106
92760 Off ch=10 n=42 v=64
92880 On ch=10 n=42 v=106
93000 Off ch=10 n=42 v=64
93120 On ch=10 n=42 v=106
93240 Off ch=10 n=42 v=64
93360 On ch=10 n=42 v=106
93480 Off ch=10 n=42 v=64
93600 On ch=10 n=42 v=106
93720 Off ch=10 n=42 v=64
93840 On ch=10 n=42 v=106
93960 Off ch=10 n=42 v=64
94080 On ch=10 n=42 v=106
94200 Off ch=10 n=42 v=64
94320 On ch=10 n=42 v=106
94440 Off ch=10 n=42 v=64
94560 On ch=10 n=42 v=106
94680 Off ch=10 n=42 v=64
94800 On ch=10 n=42 v=106
94920 Off ch=10 n=42 v=64
95040 On ch=10 n=42 v=106
95160 Off ch=10 n=42 v=64
95280 On ch=10 n=42 v=106
95400 Off ch=10 n=42 v=64
95520 On ch=10 n=42 v=106
95640 Off ch=10 n=42 v=64
95760 On ch=10 n=42 v=106
95880 Off ch=10 n=42 v=64
96000 On ch=10 n=42 v=106
96120 Off ch=10 n=42 v=64
96240 On ch=10 n=42 v=106
96360 Off ch=10 n=42 v=64
96480 On ch=10 n=42 v=106
96600 Off ch=10 n=42 v=64
96720 On ch=10 n=42 v=106
96840 Off ch=10 n=42 v=64
96960 On ch=10 n=42 v=106
97080 Off ch=10 n=42 v=64
97200 On ch=10 n=42 v=106
97320 Off ch=10 n=42 v=64
97440 On ch=10 n=42 v=106
97560 Off ch=10 n=42 v=64
97680 On ch=10 n=42 v=106
97800 Off ch=10 n=42 v=64
97920 On ch=10 n=42 v=106
98040 Off ch=10 n=42 v=64
98160 On ch=10 n=42 v=106
98280 Off ch=10 n=42 v=64
98400 On ch=10 n=42 v=106
98520 Off ch=10 n=42 v=64
98640 On ch=10 n=42 v=106
98760 Off ch=10 n=42 v=64
98880 On ch=10 n=42 v=106
99000 Off ch=10 n=42 v=64
99120 On ch=10 n=42 v=106
99240 Off ch=10 n=42 v=64
99360 On ch=10 n=42 v=106
99480 Off ch=10 n=42 v=64
99600 On ch=10 n=42 v=106
99720 Off ch=10 n=42 v=64
99840 On ch=10 n=42 v=106
99960 Off ch=10 n=42 v=64
100080 On ch=10 n=42 v=106
100200 Off ch=10 n=42 v=64
100320 On ch=10 n=42 v=106
100440 Off ch=10 n=42 v=64
100560 On ch=10 n=42 v=106
100680 Off ch=10 n=42 v=64
100800 On ch=10 n=42 v=106
100920 Off ch=10 n=42 v=64
101040 On ch=10 n=42 v=106
101160 Off ch=10 n=42 v=64
101280 On ch=10 n=42 v=106
101400 Off ch=10 n=42 v=64
101520 On ch=10 n=42 v=106
101640 Off ch=10 n=42 v=64
101760 On ch=10 n=42 v=106
101880 Off ch=10 n=42 v=64
102000 On ch=10 n=42 v=106
102120 Off ch=10 n=42 v=64
102240 On ch=10 n=42 v=106
102360 Off ch=10 n=42 v=64
102480 On ch=10 n=42 v=106
102600 Off ch=10 n=42 v=64
102720 On ch=10 n=42 v=106
102840 Off ch=10 n=42 v=64
102960 On ch=10 n=42 v=106
103080 Off ch=10 n=42 v=64
103200 On ch=10 n=42 v=106
103320 Off ch=10 n=42 v=64
103440 On ch=10 n=42 v=106
103560 Off ch=10 n=42 v=64
103680 On ch=10 n=42 v=106
103800 Off ch=10 n=42 v=64
103920 On ch=10 n=42 v=106
104040 Off ch=10 n=42 v=64
104160 On ch=10 n=42 v=106
104280 Off ch=10 n=42 v=64
104400 On ch=10 n=42 v=106
104520 Off ch=10 n=42 v=64
104640 On ch=10 n=42 v=106
104760 Off ch=10 n=42 v=64
104880 On ch=10 n=42 v=106
105000 Off ch=10 n=42 v=64
105120 On ch=10 n=42 v=106
105240 Off ch=10 n=42 v=64
105360 On ch=10 n=42 v=106
105480 Off ch=10 n=42 v=64
105600 On ch=10 n=42 v=106
105720 Off ch=10 n=42 v=64
105840 On ch=10 n=42 v=106
105960 Off ch=10 n=42 v=64
106080 On ch=10 n=42 v=106
106200 Off ch=10 n=42 v=64
106320 On ch=10 n=42 v=106
106440 Off ch=10 n=42 v=64
106560 On ch=10 n=42 v=106
106680 Off ch=10 n=42 v=64
106800 On ch=10 n=42 v=106
106920 Off ch=10 n=42 v=64
107040 On ch=10 n=42 v=106
107160 Off ch=10 n=42 v=64
107280 On ch=10 n=42 v=106
107400 Off ch=10 n=42 v=64
107520 On ch=10 n=42 v=106
107640 Off ch=10 n=42 v=64
107760 On ch=10 n=42 v=106
107880 Off ch=10 n=42 v=64
108000 On ch=10 n=42 v=106
108120 Off ch=10 n=42 v=64
108240 On ch=10 n=42 v=106
108360 Off ch=10 n=42 v=64
108480 On ch=10 n=42 v=106
108600 Off ch=10 n=42 v=64
108720 On ch=10 n=42 v=106
108840 Off ch=10 n=42 v=64
108960 On ch=10 n=42 v=106
109080 Off ch=10 n=42 v=64
109200 On ch=10 n=42 v=106
109320 Off ch=10 n=42 v=64
109440 On ch=10 n=42 v=106
109560 Off ch=10 n=42 v=64
109680 On ch=10 n=42 v=106
109800 Off ch=10 n=42 v=64
109920 On ch=10 n=42 v=106
110040 Off ch=10 n=42 v=64
110160 On ch=10 n=42 v=106
110280 Off ch=10 n=42 v=64
110400 On ch=10 n=42 v=106
110520 Off ch=10 n=42 v=64
110640 On ch=10 n=42 v=106
110760 Off ch=10 n=42 v=64
110880 On ch=10 n=42 v=106
111000 Off ch=10 n=42 v=64
111120 On ch=10 n=42 v=106
111240 Off ch=10 n=42 v=64
111360 On ch=10 n=42 v=106
111480 Off ch=10 n=42 v=64
111600 On ch=10 n=42 v=106
111720 Off ch=10 n=42 v=64
111840 On ch=10 n=42 v=106
111960 Off ch=10 n=42 v=64
112080 On ch=10 n=42 v=106
112200 Off ch=10 n=42 v=64
112320 On ch=10 n=42 v=106
112440 Off ch=10 n=42 v=64
112560 On ch=10 n=42 v=106
112680 Off ch=10 n=42 v=64
112800 On ch=10 n=42 v=106
112920 Off ch=10 n=42 v=64
113040 On ch=10 n=42 v=106
113160 Off ch=10 n=42 v=64
113280 On ch=10 n=42 v=106
113400 Off ch=10 n=42 v=64
113520 On ch=10 n=42 v=106
113640 Off ch=10 n=42 v=64
113760 On ch=10 n=42 v=106
113880 Off ch=10 n=42 v=64
114000 On ch=10 n=42 v=106
114120 Off ch=10 n=42 v=64
114240 On ch=10 n=42 v=106
114360 Off ch=10 n=42 v=64
114480 On ch=10 n=42 v=106
114600 Off ch=10 n=42 v=64
114720 On ch=10 n=42 v=106
114840 Off ch=10 n=42 v=64
114960 On ch=10 n=42 v=106
115080 Off ch=10 n=42 v=64
115200 On ch=10 n=42 v=106
115320 Off ch=10 n=42 v=64
115440 On ch=10 n=42 v=106
115560 Off ch=10 n=42 v=64
115680 On ch=10 n=42 v=106
115800 Off ch=10 n=42 v=64
115920 On ch=10 n=42 v=106
116040 Off ch=10 n=42 v=64
116160 On ch=10 n=42 v=106
116280 Off ch=10 n=42 v=64
116400 On ch=10 n=42 v=106
116520 Off ch=10 n=42 v=64
116640 On ch=10 n=42 v=106
116760 Off ch=10 n=42 v=64
116880 On ch=10 n=42 v=106
117000 Off ch=10 n=42 v=64
117120 On ch=10 n=42 v=106
117240 Off ch=10 n=42 v=64
117360 On ch=10 n=42 v=106
117480 Off ch=10 n=42 v=64
117600 On ch=10 n=42 v=106
117720 Off ch=10 n=42 v=64
117840 On ch=10 n=42 v=106
117960 Off ch=10 n=42 v=64
118080 On ch=10 n=42 v=106
118200 Off ch=10 n=42 v=64
118320 On ch=10 n=42 v=106
118440 Off ch=10 n=42 v=64
118560 On ch=10 n=42 v=106
118680 Off ch=10 n=42 v=64
118800 On ch=10 n=42 v=106
118920 Off ch=10 n=42 v=64
119040 On ch=10 n=42 v=106
119160 Off ch=10 n=42 v=64
119280 On ch=10 n=42 v=106
119400 Off ch=10 n=42 v=64
119520 On ch=10 n=42 v=106
119640 Off ch=10 n=42 v=64
119760 On ch=10 n=42 v=106
119880 Off ch=10 n=42 v=64
120000 On ch=10 n=42 v=106
120120 Off ch=10 n=42 v=64
120240 On ch=10 n=42 v=106
120360 Off ch=10 n=42 v=64
120480 On ch=10 n=42 v=106
120600 Off ch=10 n=42 v=64
120720 On ch=10 n=42 v=106
120840 Off ch=10 n=42 v=64
120960 On ch=10 n=42 v=106
121080 Off ch=10 n=42 v=64
121200 On ch=10 n=42 v=106
121320 Off ch=10 n=42 v=64
121440 On ch=10 n=42 v=106
121560 Off ch=10 n=42 v=64
121680 On ch=10 n=42 v=106
121800 Off ch=10 n=42 v=64
121920 On ch=10 n=42 v=106
122040 Off ch=10 n=42 v=64
122160 On ch=10 n=42 v=106
122280 Off ch=10 n=42 v=64
122400 On ch=10 n=42 v=106
122520 Off ch=10 n=42 v=64
122640 On ch=10 n=42 v=106
122760 Off ch=10 n=42 v=64
122880 On ch=10 n=42 v=106
123000 Off ch=10 n=42 v=64
123120 On ch=10 n=42 v=106
123240 Off ch=10 n=42 v=64
123360 On ch=10 n=42 v=106
123480 Off ch=10 n=42 v=64
123600 On ch=10 n=42 v=106
123720 Off ch=10 n=42 v=64
123840 On ch=10 n=42 v=106
123960 Off ch=10 n=42 v=64
124080 On ch=10 n=42 v=106
124200 Off ch=10 n=42 v=64
124320 On ch=10 n=42 v=106
124440 Off ch=10 n=42 v=64
124560 On ch=10 n=42 v=106
124680 Off ch=10 n=42 v=64
124800 On ch=10 n=42 v=106
124920 Off ch=10 n=42 v=64
125040 On ch=10 n=42 v=106
125160 Off ch=10 n=42 v=64
125280 On ch=10 n=42 v=106
125400 Off ch=10 n=42 v=64
125520 On ch=10 n=42 v=106
125640 Off ch=10 n=42 v=64
125760 On ch=10 n=42 v=106
125880 Off ch=10 n=42 v=64
126000 On ch=10 n=42 v=106
126120 Off ch=10 n=42 v=64
126240 On ch=10 n=42 v=106
126360 Off ch=10 n=42 v=64
126480 On ch=10 n=42 v=106
126600 Off ch=10 n=42 v=64
126720 On ch=10 n=42 v=106
126840 Off ch=10 n=42 v=64
126960 On ch=10 n=42 v=106
127080 Off ch=10 n=42 v=64
127200 On ch=10 n=42 v=106
127320 Off ch=10 n=42 v=64
127440 On ch=10 n=42 v=106
127560 Off ch=10 n=42 v=64
127680 On ch=10 n=42 v=106
127800 Off ch=10 n=42 v=64
127920 On ch=10 n=42 v=106
128040 Off ch=10 n=42 v=64
128160 On ch=10 n=42 v=106
128280 Off ch=10 n=42 v=64
128400 On ch=10 n=42 v=106
128520 Off ch=10 n=42 v=64
128640 On ch=10 n=42 v=106
128760 Off ch=10 n=42 v=64
128880 On ch=10 n=42 v=106
129000 Off ch=10 n=42 v=64
129120 On ch=10 n=42 v=106
129240 Off ch=10 n=42 v=64
129360 On ch=10 n=42 v=106
129480 Off ch=10 n=42 v=64
129600 On ch=10 n=42 v=106
129720 Off ch=10 n=42 v=64
129840 On ch=10 n=42 v=106
129960 Off ch=10 n=42 v=64
130080 On ch=10 n=42 v=106
130200 Off ch=10 n=42 v=64
130320 On ch=10 n=42 v=106
130440 Off ch=10 n=42 v=64
130560 On ch=10 n=42 v=106
130680 Off ch=10 n=42 v=64
130800 On ch=10 n=42 v=106
130920 Off ch=10 n=42 v=64
131040 On ch=10 n=42 v=106
131160 Off ch=10 n=42 v=64
131280 On ch=10 n=42 v=106
131400 Off ch=10 n=42 v=64
131520 On ch=10 n=42 v=106
131640 Off ch=10 n=42 v=64
131760 On ch=10 n=42 v=106
131880 Off ch=10 n=42 v=64
132000 On ch=10 n=42 v=106
132120 Off ch=10 n=42 v=64
132240 On ch=10 n=42 v=106
132360 Off ch=10 n=42 v=64
132480 On ch=10 n=42 v=106
132600 Off ch=10 n=42 v=64
132720 On ch=10 n=42 v=106
132840 Off ch=10 n=42 v=64
132960 On ch=10 n=42 v=106
133080 Off ch=10 n=42 v=64
133200 On ch=10 n=42 v=106
133320 Off ch=10 n=42 v=64
133440 On ch=10 n=42 v=106
133560 Off ch=10 n=42 v=64
133680 On ch=10 n=42 v=106
133800 Off ch=10 n=42 v=64
133920 On ch=10 n=42 v=106
134040 Off ch=10 n=42 v=64
134160 On ch=10 n=42 v=106
134280 Off ch=10 n=42 v=64
134400 On ch=10 n=42 v=106
134520 Off ch=10 n=42 v=64
134640 On ch=10 n=42 v=106
134760 Off ch=10 n=42 v=64
134880 On ch=10 n=42 v=106
135000 Off ch=10 n=42 v=64
135120 On ch=10 n=42 v=106
135240 Off ch=10 n=42 v=64
135360 On ch=10 n=42 v=106
135480 Off ch=10 n=42 v=64
135600 On ch=10 n=42 v=106
135720 Off ch=10 n=42 v=64
135840 On ch=10 n=42 v=106
135960 Off ch=10 n=42 v=64
136080 On ch=10 n=42 v=106
136200 Off ch=10 n=42 v=64
136320 On ch=10 n=42 v=106
136440 Off ch=10 n=42 v=64
136560 On ch=10 n=42 v=106
136680 Off ch=10 n=42 v=64
136800 On ch=10 n=42 v=106
136920 Off ch=10 n=42 v=64
137040 On ch=10 n=42 v=106
137160 Off ch=10 n=42 v=64
137280 On ch=10 n=42 v=106
137400 Off ch=10 n=42 v=64
137520 On ch=10 n=42 v=106
137640 Off ch=10 n=42 v=64
137760 On ch=10 n=42 v=106
137880 Off ch=10 n=42 v=64
138000 On ch=10 n=42 v=106
138120 Off ch=10 n=42 v=64
138240 On ch=10 n=42 v=106
138360 Off ch=10 n=42 v=64
138480 On ch=10 n=42 v=106
138600 Off ch=10 n=42 v=64
138720 On ch=10 n=42 v=106
138840 Off ch=10 n=42 v=64
138960 On ch=10 n=42 v=106
139080 Off ch=10 n=42 v=64
139200 On ch=10 n=42 v=106
139320 Off ch=10 n=42 v=64
139440 On ch=10 n=42 v=106
139560 Off ch=10 n=42 v=64
139680 On ch=10 n=42 v=106
139800 Off ch=10 n=42 v=64
139920 On ch=10 n=42 v=106
140040 Off ch=10 n=42 v=64
140160 On ch=10 n=42 v=106
140280 Off ch=10 n=42 v=64
140400 On ch=10 n=42 v=106
140520 Off ch=10 n=42 v=64
140640 On ch=10 n=42 v=106
140760 Off ch=10 n=42 v=64
140880 On ch=10 n=42 v=106
141000 Off ch=10 n=42 v=64
141120 On ch=10 n=42 v=106
141240 Off ch=10 n=42 v=64
141360 On ch=10 n=42 v=106
141480 Off ch=10 n=42 v=64
141600 On ch=10 n=42 v=106
141720 Off ch=10 n=42 v=64
141840 On ch=10 n=42 v=106
141960 Off ch=10 n=42 v=64
142080 On ch=10 n=42 v=106
142200 Off ch=10 n=42 v=64
142320 On ch=10 n=42 v=106
142440 Off ch=10 n=42 v=64
142560 On ch=10 n=42 v=106
142680 Off ch=10 n=42 v=64
142800 On ch=10 n=42 v=106
142920 Off ch=10 n=42 v=64
143040 On ch=10 n=42 v=106
143160 Off ch=10 n=42 v=64
143280 On ch=10 n=42 v=106
143400 Off ch=10 n=42 v=64
143520 On ch=10 n=42 v=106
143640 Off ch=10 n=42 v=64
143760 On ch=10 n=42 v=106
143880 Off ch=10 n=42 v=64
144000 On ch=10 n=42 v=106
144120 Off ch=10 n=42 v=64
144240 On ch=10 n=42 v=106
144360 Off ch=10 n=42 v=64
144480 On ch=10 n=42 v=106
144600 Off ch=10 n=42 v=64
144720 On ch=10 n=42 v=106
144840 Off ch=10 n=42 v=64
144960 On ch=10 n=42 v=106
145080 Off ch=10 n=42 v=64
145200 On ch=10 n=42 v=106
145320 Off ch=10 n=42 v=64
145440 On ch=10 n=42 v=106
145560 Off ch=10 n=42 v=64
145680 On ch=10 n=42 v=106
145800 Off ch=10 n=42 v=64
145920 On ch=10 n=42 v=106
146040 Off ch=10 n=42 v=64
146160 On ch=10 n=42 v=106
146280 Off ch=10 n=42 v=64
146400 On ch=10 n=42 v=106
146520 Off ch=10 n=42 v=64
146640 On ch=10 n=42 v=106
146760 Off ch=10 n=42 v=64
146880 On ch=10 n=42 v=106
147000 Off ch=10 n=42 v=64
147120 On ch=10 n=42 v=106
147240 Off ch=10 n=42 v=64
147360 On ch=10 n=42 v=106
147480 Off ch=10 n=42 v=64
147600 On ch=10 n=42 v=106
147720 Off ch=10 n=42 v=64
147840 On ch=10 n=42 v=106
147960 Off ch=10 n=42 v=64
148080 On ch=10 n=42 v=106
148200 Off ch=10 n=42 v=64
148320 On ch=10 n=42 v=106
148440 Off ch=10 n=42 v=64
148560 On ch=10 n=42 v=106
148680 Off ch=10 n=42 v=64
148800 On ch=10 n=42 v=106
148920 Off ch=10 n=42 v=64
149040 On ch=10 n=42 v=106
149160 Off ch=10 n=42 v=64
149280 On ch=10 n=42 v=106
149400 Off ch=10 n=42 v=64
149520 On ch=10 n=42 v=106
149640 Off ch=10 n=42 v=64
149760 On ch=10 n=42 v=106
149880 Off ch=10 n=42 v=64
150000 On ch=10 n=42 v=106
150120 Off ch=10 n=42 v=64
150240 On ch=10 n=42 v=106
150360 Off ch=10 n=42 v=64
150480 On ch=10 n=42 v=106
150600 Off ch=10 n=42 v=64
150720 On ch=10 n=42 v=106
150840 Off ch=10 n=42 v=64
150960 On ch=10 n=42 v=106
151080 Off ch=10 n=42 v=64
151200 On ch=10 n=42 v=106
151320 Off ch=10 n=42 v=64
151440 On ch=10 n=42 v=106
151560 Off ch=10 n=42 v=64
151680 On ch=10 n=42 v=106
151800 Off ch=10 n=42 v=64
151920 On ch=10 n=42 v=106
152040 Off ch=10 n=42 v=64
152160 On ch=10 n=42 v=106
152280 Off ch=10 n=42 v=64
152400 On ch=10 n=42 v=106
152520 Off ch=10 n=42 v=64
152640 On ch=10 n=42 v=106
152760 Off ch=10 n=42 v=64
152880 On ch=10 n=42 v=106
153000 Off ch=10 n=42 v=64
153120 On ch=10 n=42 v=106
153240 Off ch=10 n=42 v=64
153360 On ch=10 n=42 v=106
153480 Off ch=10 n=42 v=64
153600 On ch=10 n=42 v=106
153720 Off ch=10 n=42 v=64
153840 On ch=10 n=42 v=106
153960 Off ch=10 n=42 v=64
154080 On ch=10 n=42 v=106
154200 Off ch=10 n=42 v=64
154320 On ch=10 n=42 v=106
154440 Off ch=10 n=42 v=64
154560 On ch=10 n=42 v=106
154680 Off ch=10 n=42 v=64
154800 On ch=10 n=42 v=106
154920 Off ch=10 n=42 v=64
155040 On ch=10 n=42 v=106
155160 Off ch=10 n=42 v=64
155280 On ch=10 n=42 v=106
155400 Off ch=10 n=42 v=64
155520 On ch=10 n=42 v=106
155640 Off ch=10 n=42 v=64
155760 On ch=10 n=42 v=106
155880 Off ch=10 n=42 v=64
156000 On ch=10 n=42 v=106
156120 Off ch=10 n=42 v=64
156240 On ch=10 n=42 v=106
156360 Off ch=10 n=42 v=64
156480 On ch=10 n=42 v=106
156600 Off ch=10 n=42 v=64
156720 On ch=10 n=42 v=106
156840 Off ch=10 n=42 v=64
156960 On ch=10 n=42 v=106
157080 Off ch=10 n=42 v=64
157200 On ch=10 n=42 v=106
157320 Off ch=10 n=42 v=64
157440 On ch=10 n=42 v=106
157560 Off ch=10 n=42 v=64
157680 On ch=10 n=42 v=106
157800 Off ch=10 n=42 v=64
157920 On ch=10 n=42 v=106
158040 Off ch=10 n=42 v=64
158160 On ch=10 n=42 v=106
158280 Off ch=10 n=42 v=64
158400 On ch=10 n=42 v=106
158520 Off ch=10 n=42 v=64
158640 On ch=10 n=42 v=106
158760 Off ch=10 n=42 v=64
158880 On ch=10 n=42 v=106
159000 Off ch=10 n=42 v=64
159120 On ch=10 n=42 v=106
159240 Off ch=10 n=42 v=64
159360 On ch=10 n=42 v=106
159480 Off ch=10 n=42 v=64
159600 On ch=10 n=42 v=106
159720 Off ch=10 n=42 v=64
159840 On ch=10 n=42 v=106
159960 Off ch=10 n=42 v=64
160080 On ch=10 n=42 v=106
160200 Off ch=10 n=42 v=64
160320 On ch=10 n=42 v=106
160440 Off ch=10 n=42 v=64
160560 On ch=10 n=42 v=106
160680 Off ch=10 n=42 v=64
160800 On ch=10 n=42 v=106
160920 Off ch=10 n=42 v=64
161040 On ch=10 n=42 v=106
161160 Off ch=10 n=42 v=64
161280 On ch=10 n=42 v=106
161400 Off ch=10 n=42 v=64
161520 On ch=10 n=42 v=106
161640 Off ch=10 n=42 v=64
161760 On ch=10 n=42 v=106
161880 Off ch=10 n=42 v=64
162000 On ch=10 n=42 v=106
162120 Off ch=10 n=42 v=64
162240 On ch=10 n=42 v=106
162360 Off ch=10 n=42 v=64
162480 On ch=10 n=42 v=106
162600 Off ch=10 n=42 v=64
162720 On ch=10 n=42 v=106
162840 Off ch=10 n=42 v=64
162960 On ch=10 n=42 v=106
163080 Off ch=10 n=42 v=64
163200 On ch=10 n=42 v=106
163320 Off ch=10 n=42 v=64
163440 On ch=10 n=42 v=106
163560 Off ch=10 n=42 v=64
163680 On ch=10 n=42 v=106
163800 Off ch=10 n=42 v=64
163920 On ch=10 n=42 v=106
164040 Off ch=10 n=42 v=64
164160 On ch=10 n=42 v=106
164280 Off ch=10 n=42 v=64
164400 On ch=10 n=42 v=106
164520 Off ch=10 n=42 v=64
164640 On ch=10 n=42 v=106
164760 Off ch=10 n=42 v=64
164880 On ch=10 n=42 v=106
165000 Off ch=10 n=42 v=64
165120 On ch=10 n=42 v=106
165240 Off ch=10 n=42 v=64
165360 On ch=10 n=42 v=106
165480 Off ch=10 n=42 v=64
165600 On ch=10 n=42 v=106
165720 Off ch=10 n=42 v=64
165840 On ch=10 n=42 v=106
165960 Off ch=10 n=42 v=64
166080 On ch=10 n=42 v=106
166200 Off ch=10 n=42 v=64
166320 On ch=10 n=42 v=106
166440 Off ch=10 n=42 v=64
166560 On ch=10 n=42 v=106
166680 Off ch=10 n=42 v=64
166800 On ch=10 n=42 v=106
166920 Off ch=10 n=42 v=64
167040 On ch=10 n=42 v=106
167160 Off ch=10 n=42 v=64
167280 On ch=10 n=42 v=106
167400 Off ch=10 n=42 v=64
167520 On ch=10 n=42 v=106
167640 Off ch=10 n=42 v=64
167760 On ch=10 n=42 v=106
167880 Off ch=10 n=42 v=64
168000 On ch=10 n=42 v=106
168120 Off ch=10 n=42 v=64
168240 On ch=10 n=42 v=106
168360 Off ch=10 n=42 v=64
168480 On ch=10 n=42 v=106
168600 Off ch=10 n=42 v=64
168720 On ch=10 n=42 v=106
168840 Off ch=10 n=42 v=64
168960 On ch=10 n=42 v=106
169080 Off ch=10 n=42 v=64
169200 On ch=10 n=42 v=106
169320 Off ch=10 n=42 v=64
169440 On ch=10 n=42 v=106
169560 Off ch=10 n=42 v=64
169680 On ch=10 n=42 v=106
169800 Off ch=10 n=42 v=64
169920 On ch=10 n=42 v=106
170040 Off ch=10 n=42 v=64
170160 On ch=10 n=42 v=106
170280 Off ch=10 n=42 v=64
170400 On ch=10 n=42 v=106
170520 Off ch=10 n=42 v=64
170640 On ch=10 n=42 v=106
170760 Off ch=10 n=42 v=64
170880 On ch=10 n=42 v=106
171000 Off ch=10 n=42 v=64
171120 On ch=10 n=42 v=106
171240 Off ch=10 n=42 v=64
171360 On ch=10 n=42 v=106
171480 Off ch=10 n=42 v=64
171600 On ch=10 n=42 v=106
171720 Off ch=10 n=42 v=64
171840 On ch=10 n=42 v=106
171960 Off ch=10 n=42 v=64
172080 On ch=10 n=42 v=106
172200 Off ch=10 n=42 v=64
172320 On ch=10 n=42 v=106
172440 Off ch=10 n=42 v=64
172560 On ch=10 n=42 v=106
172680 Off ch=10 n=42 v=64
172800 On ch=10 n=42 v=106
172920 Off ch=10 n=42 v=64
173040 On ch=10 n=42 v=106
173160 Off ch=10 n=42 v=64
173280 On ch=10 n=42 v=106
173400 Off ch=10 n=42 v=64
173520 On ch=10 n=42 v=106
173640 Off ch=10 n=42 v=64
173760 On ch=10 n=42 v=106
173880 Off ch=10 n=42 v=64
174000 On ch=10 n=42 v=106
174120 Off ch=10 n=42 v=64
174240 On ch=10 n=42 v=106
174360 Off ch=10 n=42 v=64
174480 On ch=10 n=42 v=106
174600 Off ch=10 n=42 v=64
174720 On ch=10 n=42 v=106
174840 Off ch=10 n=42 v=64
174960 On ch=10 n=42 v=106
175080 Off ch=10 n=42 v=64
175200 On ch=10 n=42 v=106
175320 Off ch=10 n=42 v=64
175440 On ch=10 n=42 v=106
175560 Off ch=10 n=42 v=64
175680 On ch=10 n=42 v=106
175800 Off ch=10 n=42 v=64
175920 On ch=10 n=42 v=106
176040 Off ch=10 n=42 v=64
176160 On ch=10 n=42 v=106
176280 Off ch=10 n=42 v=64
176400 On ch=10 n=42 v=106
176520 Off ch=10 n=42 v=64
176640 On ch=10 n=42 v=106
176760 Off ch=10 n=42 v=64
176880 On ch=10 n=42 v=106
177000 Off ch=10 n=42 v=64
177120 On ch=10 n=42 v=106
177240 Off ch=10 n=42 v=64
177360 On ch=10 n=42 v=106
177480 Off ch=10 n=42 v=64
177600 On ch=10 n=42 v=106
177720 Off ch=10 n=42 v=64
177840 On ch=10 n=42 v=106
177960 Off ch=10 n=42 v=64
178080 On ch=10 n=42 v=106
178200 Off ch=10 n=42 v=64
178320 On ch=10 n=42 v=106
178440 Off ch=10 n=42 v=64
178560 On ch=10 n=42 v=106
178680 Off ch=10 n=42 v=64
178800 On ch=10 n=42 v=106
178920 Off ch=10 n=42 v=64
179040 On ch=10 n=42 v=106
179160 Off ch=10 n=42 v=64
179280 On ch=10 n=42 v=106
179400 Off ch=10 n=42 v=64
179520 On ch=10 n=42 v=106
179640 Off ch=10 n=42 v=64
179760 On ch=10 n=42 v=106
179880 Off ch=10 n=42 v=64
180000 On ch=10 n=42 v=106
180120 Off ch=10 n=42 v=64
180240 On ch=10 n=42 v=106
180360 Off ch=10 n=42 v=64
180480 On ch=10 n=42 v=106
180600 Off ch=10 n=42 v=64
180720 On ch=10 n=42 v=106
180840 Off ch=10 n=42 v=64
180960 On ch=10 n=42 v=106
181080 Off ch=10 n=42 v=64
181200 On ch=10 n=42 v=106
181320 Off ch=10 n=42 v=64
181440 On ch=10 n=42 v=106
181560 Off ch=10 n=42 v=64
181680 On ch=10 n=42 v=106
181800 Off ch=10 n=42 v=64
181920 On ch=10 n=42 v=106
182040 Off ch=10 n=42 v=64
182160 On ch=10 n=42 v=106
182280 Off ch=10 n=42 v=64
182400 On ch=10 n=42 v=106
182520 Off ch=10 n=42 v=64
182640 On ch=10 n=42 v=106
182760 Off ch=10 n=42 v=64
182880 On ch=10 n=42 v=106
183000 Off ch=10 n=42 v=64
183120 On ch=10 n=42 v=106
183240 Off ch=10 n=42 v=64
183360 On ch=10 n=42 v=106
183480 Off ch=10 n=42 v=64
183600 On ch=10 n=42 v=106
183720 Off ch=10 n=42 v=64
183840 On ch=10 n=42 v=106
183960 Off ch=10 n=42 v=64
184080 On ch=10 n=42 v=106
184200 Off ch=10 n=42 v=64
184320 On ch=10 n=42 v=106
184440 Off ch=10 n=42 v=64
184560 On ch=10 n=42 v=106
184680 Off ch=10 n=42 v=64
184800 On ch=10 n=42 v=106
184920 Off ch=10 n=42 v=64
185040 On ch=10 n=42 v=106
185160 Off ch=10 n=42 v=64
185280 On ch=10 n=42 v=106
185400 Off ch=10 n=42 v=64
185520 On ch=10 n=42 v=106
185640 Off ch=10 n=42 v=64
185760 On ch=10 n=42 v=106
185880 Off ch=10 n=42 v=64
186000 On ch=10 n=42 v=106
186120 Off ch=10 n=42 v=64
186240 On ch=10 n=42 v=106
186360 Off ch=10 n=42 v=64
186480 On ch=10 n=42 v=106
186600 Off ch=10 n=42 v=64
186720 On ch=10 n=42 v=106
186840 Off ch=10 n=42 v=64
186960 On ch=10 n=42 v=106
187080 Off ch=10 n=42 v=64
187200 On ch=10 n=42 v=106
187320 Off ch=10 n=42 v=64
187440 On ch=10 n=42 v=106
187560 Off ch=10 n=42 v=64
187680 On ch=10 n=42 v=106
187800 Off ch=10 n=42 v=64
187920 On ch=10 n=42 v=106
188040 Off ch=10 n=42 v=64
188160 On ch=10 n=42 v=106
188280 Off ch=10 n=42 v=64
188400 On ch=10 n=42 v=106
188520 Off ch=10 n=42 v=64
188640 On ch=10 n=42 v=106
188760 Off ch=10 n=42 v=64
188880 On ch=10 n=42 v=106
189000 Off ch=10 n=42 v=64
189120 On ch=10 n=42 v=106
189240 Off ch=10 n=42 v=64
189360 On ch=10 n=42 v=106
189480 Off ch=10 n=42 v=64
189600 On ch=10 n=42 v=106
189720 Off ch=10 n=42 v=64
189840 On ch=10 n=42 v=106
189960 Off ch=10 n=42 v=64
190080 On ch=10 n=42 v=106
190200 Off ch=10 n=42 v=64
190320 On ch=10 n=42 v=106
190440 Off ch=10 n=42 v=64
190560 On ch=10 n=42 v=106
190680 Off ch=10 n=42 v=64
190800 On ch=10 n=42 v=106
190920 Off ch=10 n=42 v=64
191040 On ch=10 n=42 v=106
191160 Off ch=10 n=42 v=64
191280 On ch=10 n=42 v=106
191400 Off ch=10 n=42 v=64
191520 On ch=10 n=42 v=106
191640 Off ch=10 n=42 v=64
191760 On ch=10 n=42 v=106
191880 Off ch=10 n=42 v=64
192000 On ch=10 n=42 v=106
192120 Off ch=10 n=42 v=64
192240 On ch=10 n=42 v=106
192360 Off ch=10 n=42 v=64
192480 On ch=10 n=42 v=106
192600 Off ch=10 n=42 v=64
192720 On ch=10 n=42 v=106
192840 Off ch=10 n=42 v=64
192960 On ch=10 n=42 v=106
193080 Off ch=10 n=42 v=64
193200 On ch=10 n=42 v=106
193320 Off ch=10 n=42 v=64
193440 On ch=10 n=42 v=106
193560 Off ch=10 n=42 v=64
193680 On ch=10 n=42 v=106
193800 Off ch=10 n=42 v=64
193920 On ch=10 n=42 v=106
194040 Off ch=10 n=42 v=64
194160 On ch=10 n=42 v=106
194280 Off ch=10 n=42 v=64
194400 On ch=10 n=42 v=106
194520 Off ch=10 n=42 v=64
194640 On ch=10 n=42 v=106
194760 Off ch=10 n=42 v=64
194880 On ch=10 n=42 v=106
195000 Off ch=10 n=42 v=64
195120 On ch=10 n=42 v=106
195240 Off ch=10 n=42 v=64
195360 On ch=10 n=42 v=106
195480 Off ch=10 n=42 v=64
195600 On ch=10 n=42 v=106
195720 Off ch=10 n=42 v=64
195840 On ch=10 n=42 v=106
195960 Off ch=10 n=42 v=64
196080 On ch=10 n=42 v=106
196200 Off ch=10 n=42 v=64
196320 On ch=10 n=42 v=106
196440 Off ch=10 n=42 v=64
196560 On ch=10 n=42 v=106
196680 Off ch=10 n=42 v=64
196800 On ch=10 n=42 v=106
196920 Off ch=10 n=42 v=64
197040 On ch=10 n=42 v=106
197160 Off ch=10 n=42 v=64
197280 On ch=10 n=42 v=106
197400 Off ch=10 n=42 v=64
197520 On ch=10 n=42 v=106
197640 Off ch=10 n=42 v=64
197760 On ch=10 n=42 v=106
197880 Off ch=10 n=42 v=64
198000 On ch=10 n=42 v=106
198120 Off ch=10 n=42 v=64
198240 On ch=10 n=42 v=106
198360 Off ch=10 n=42 v=64
198480 On ch=10 n=42 v=106
198600 Off ch=10 n=42 v=64
198720 On ch=10 n=42 v=106
198840 Off ch=10 n=42 v=64
198960 On ch=10 n=42 v=106
199080 Off ch=10 n=42 v=64
199200 On ch=10 n=42 v=106
199320 Off ch=10 n=42 v=64
199440 On ch=10 n=42 v=106
199560 Off ch=10 n=42 v=64
199680 On ch=10 n=42 v=106
199800 Off ch=10 n=42 v=64
199920 On ch=10 n=42 v=106
200040 Off ch=10 n=42 v=64
200160 On ch=10 n=42 v=106
200280 Off ch=10 n=42 v=64
200400 On ch=10 n=42 v=106
200520 Off ch=10 n=42 v=64
200640 On ch=10 n=42 v=106
200760 Off ch=10 n=42 v=64
200880 On ch=10 n=42 v=106
201000 Off ch=10 n=42 v=64
201120 On ch=10 n=42 v=106
201240 Off ch=10 n=42 v=64
201360 On ch=10 n=42 v=106
201480 Off ch=10 n=42 v=64
201600 On ch=10 n=42 v=106
201720 Off ch=10 n=42 v=64
201840 On ch=10 n=42 v=106
201960 Off ch=10 n=42 v=64
202080 On ch=10 n=42 v=106
202200 Off ch=10 n=42 v=64
202320 On ch=10 n=42 v=106
202440 Off ch=10 n=42 v=64
202560 On ch=10 n=42 v=106
202680 Off ch=10 n=42 v=64
202800 On ch=10 n=42 v=106
202920 Off ch=10 n=42 v=64
203040 On ch=10 n=42 v=106
203160 Off ch=10 n=42 v=64
203280 On ch=10 n=42 v=106
203400 Off ch=10 n=42 v=64
203520 On ch=10 n=42 v=106
203640 Off ch=10 n=42 v=64
203760 On ch=10 n=42 v=106
203880 Off ch=10 n=42 v=64
204000 On ch=10 n=42 v=106
204120 Off ch=10 n=42 v=64
204240 On ch=10 n=42 v=106
204360 Off ch=10 n=42 v=64
204480 On ch=10 n=42 v=106
204600 Off ch=10 n=42 v=64
204720 On ch=10 n=42 v=106
204840 Off ch=10 n=42 v=64
204960 On ch=10 n=42 v=106
205080 Off ch=10 n=42 v=64
205200 On ch=10 n=42 v=106
205320 Off ch=10 n=42 v=64
205440 On ch=10 n=42 v=106
205560 Off ch=10 n=42 v=64
205680 On ch=10 n=42 v=106
205800 Off ch=10 n=42 v=64
205920 On ch=10 n=42 v=106
206040 Off ch=10 n=42 v=64
206160 On ch=10 n=42 v=106
206280 Off ch=10 n=42 v=64
206400 On ch=10 n=42 v=106
206520 Off ch=10 n=42 v=64
206640 On ch=10 n=42 v=106
206760 Off ch=10 n=42 v=64
206880 On ch=10 n=42 v=106
207000 Off ch=10 n=42 v=64
207120 On ch=10 n=42 v=106
207240 Off ch=10 n=42 v=64
207360 On ch=10 n=42 v=106
207480 Off ch=10 n=42 v=64
207600 On ch=10 n=42 v=106
207720 Off ch=10 n=42 v=64
207840 On ch=10 n=42 v=106
207960 Off ch=10 n=42 v=64
208080 On ch=10 n=42 v=106
208200 Off ch=10 n=42 v=64
208320 On ch=10 n=42 v=106
208440 Off ch=10 n=42 v=64
208560 On ch=10 n=42 v=106
208680 Off ch=10 n=42 v=64
208800 On ch=10 n=42 v=106
208920 Off ch=10 n=42 v=64
209040 On ch=10 n=42 v=106
209160 Off ch=10 n=42 v=64
209280 On ch=10 n=42 v=106
209400 Off ch=10 n=42 v=64
209520 On ch=10 n=42 v=106
209640 Off ch=10 n=42 v=64
209760 On ch=10 n=42 v=106
209880 Off ch=10 n=42 v=64
210000 On ch=10 n=42 v=106
210120 Off ch=10 n=42 v=64
210240 On ch=10 n=42 v=106
210360 Off ch=10 n=42 v=64
210480 On ch=10 n=42 v=106
210600 Off ch=10 n=42 v=64
210720 On ch=10 n=42 v=106
210840 Off ch=10 n=42 v=64
210960 On ch=10 n=42 v=106
211080 Off ch=10 n=42 v=64
211200 On ch=10 n=42 v=106
211320 Off ch=10 n=42 v=64
211440 On ch=10 n=42 v=106
211560 Off ch=10 n=42 v=64
211680 On ch=10 n=42 v=106
211800 Off ch=10 n=42 v=64
211920 On ch=10 n=42 v=106
212040 Off ch=10 n=42 v=64
212160 On ch=10 n=42 v=106
212280 Off ch=10 n=42 v=64
212400 On ch=10 n=42 v=106
212520 Off ch=10 n=42 v=64
212640 On ch=10 n=42 v=106
212760 Off ch=10 n=42 v=64
212880 On ch=10 n=42 v=106
213000 Off ch=10 n=42 v=64
213120 On ch=10 n=42 v=106
213240 Off ch=10 n=42 v=64
213360 On ch=10 n=42 v=106
213480 Off ch=10 n=42 v=64
213600 On ch=10 n=42 v=106
213720 Off ch=10 n=42 v=64
213840 On ch=10 n=42 v=106
213960 Off ch=10 n=42 v=64
214080 On ch=10 n=42 v=106
214200 Off ch=10 n=42 v=64
214320 On ch=10 n=42 v=106
214440 Off ch=10 n=42 v=64
214560 On ch=10 n=42 v=106
214680 Off ch=10 n=42 v=64
214800 On ch=10 n=42 v=106
214920 Off ch=10 n=42 v=64
215040 On ch=10 n=42 v=106
215160 Off ch=10 n=42 v=64
215280 On ch=10 n=42 v=106
215400 Off ch=10 n=42 v=64
215520 On ch=10 n=42 v=106
215640 Off ch=10 n=42 v=64
215760 On ch=10 n=42 v=106
215880 Off ch=10 n=42 v=64
216000 On ch=10 n=42 v=106
216120 Off ch=10 n=42 v=64
216240 On ch=10 n=42 v=106
216360 Off ch=10 n=42 v=64
216480 On ch=10 n=42 v=106
216600 Off ch=10 n=42 v=64
216720 On ch=10 n=42 v=106
216840 Off ch=10 n=42 v=64
216960 On ch=10 n=42 v=106
217080 Off ch=10 n=42 v=64
217200 On ch=10 n=42 v=106
217320 Off ch=10 n=42 v=64
217440 On ch=10 n=42 v=106
217560 Off ch=10 n=42 v=64
217680 On ch=10 n=42 v=106
217800 Off ch=10 n=42 v=64
217920 On ch=10 n=42 v=106
218040 Off ch=10 n=42 v=64
218160 On ch=10 n=42 v=106
218280 Off ch=10 n=42 v=64
218400 On ch=10 n=42 v=106
218520 Off ch=10 n=42 v=64
218640 On ch=10 n=42 v=106
218760 Off ch=10 n=42 v=64
218880 On ch=10 n=42 v=106
219000 Off ch=10 n=42 v=64
219120 On ch=10 n=42 v=106
219240 Off ch=10 n=42 v=64
219360 On ch=10 n=42 v=106
219480 Off ch=10 n=42 v=64
219600 On ch=10 n=42 v=106
219720 Off ch=10 n=42 v=64
219840 On ch=10 n=42 v=106
219960 Off ch=10 n=42 v=64
220080 On ch=10 n=42 v=106
220200 Off ch=10 n=42 v=64
220320 On ch=10 n=42 v=106
220440 Off ch=10 n=42 v=64
220560 On ch=10 n=42 v=106
220680 Off ch=10 n=42 v=64
220800 On ch=10 n=42 v=106
220920 Off ch=10 n=42 v=64
221040 On ch=10 n=42 v=106
221160 Off ch=10 n=42 v=64
221280 On ch=10 n=42 v=106
221400 Off ch=10 n=42 v=64
221520 On ch=10 n=42 v=106
221640 Off ch=10 n=42 v=64
221760 On ch=10 n=42 v=106
221880 Off ch=10 n=42 v=64
222000 On ch=10 n=42 v=106
222120 Off ch=10 n=42 v=64
222240 On ch=10 n=42 v=106
222360 Off ch=10 n=42 v=64
222480 On ch=10 n=42 v=106
222600 Off ch=10 n=42 v=64
222720 On ch=10 n=42 v=106
222840 Off ch=10 n=42 v=64
222960 On ch=10 n=42 v=106
223080 Off ch=10 n=42 v=64
223200 On ch=10 n=42 v=106
223320 Off ch=10 n=42 v=64
223440 On ch=10 n=42 v=106
223560 Off ch=10 n=42 v=64
223680 On ch=10 n=42 v=106
223800 Off ch=10 n=42 v=64
223920 On ch=10 n=42 v=106
224040 Off ch=10 n=42 v=64
224160 On ch=10 n=42 v=106
224280 Off ch=10 n=42 v=64
224400 On ch=10 n=42 v=106
224520 Off ch=10 n=42 v=64
224640 On ch=10 n=42 v=106
224760 Off ch=10 n=42 v=64
224880 On ch=10 n=42 v=106
225000 Off ch=10 n=42 v=64
225120 On ch=10 n=42 v=106
225240 Off ch=10 n=42 v=64
225360 On ch=10 n=42 v=106
225480 Off ch=10 n=42 v=64
225600 On ch=10 n=42 v=106
225720 Off ch=10 n=42 v=64
225840 On ch=10 n=42 v=106
225960 Off ch=10 n=42 v=64
226080 On ch=10 n=42 v=106
226200 Off ch=10 n=42 v=64
226320 On ch=10 n=42 v=106
226440 Off ch=10 n=42 v=64
226560 On ch=10 n=42 v=106
226680 Off ch=10 n=42 v=64
226800 On ch=10 n=42 v=106
226920 Off ch=10 n=42 v=64
227040 On ch=10 n=42 v=106
227160 Off ch=10 n=42 v=64
227280 On ch=10 n=42 v=106
227400 Off ch=10 n=42 v=64
227520 On ch=10 n=42 v=106
227640 Off ch=10 n=42 v=64
227760 On ch=10 n=42 v=106
227880 Off ch=10 n=42 v=64
228000 On ch=10 n=42 v=106
228120 Off ch=10 n=42 v=64
228240 On ch=10 n=42 v=106
228360 Off ch=10 n=42 v=64
228480 On ch=10 n=42 v=106
228600 Off ch=10 n=42 v=64
228720 On ch=10 n=42 v=106
228840 Off ch=10 n=42 v=64
228960 On ch=10 n=42 v=106
229080 Off ch=10 n=42 v=64
229200 On ch=10 n=42 v=106
229320 Off ch=10 n=42 v=64
229440 On ch=10 n=42 v=106
229560 Off ch=10 n=42 v=64
229680 On ch=10 n=42 v=106
229800 Off ch=10 n=42 v=64
229920 On ch=10 n=42 v=106
230040 Off ch=10 n=42 v=64
230160 On ch=10 n=42 v=106
230280 Off ch=10 n=42 v=64
230400 On ch=10 n=42 v=106
230520 Off ch=10 n=42 v=64
230640 On ch=10 n=42 v=106
230760 Off ch=10 n=42 v=64
230880 On ch=10 n=42 v=106
231000 Off ch=10 n=42 v=64
231120 On ch=10 n=42 v=106
231240 Off ch=10 n=42 v=64
231360 On ch=10 n=42 v=106
231480 Off ch=10 n=42 v=64
231600 On ch=10 n=42 v=106
231720 Off ch=10 n=42 v=64
231840 On ch=10 n=42 v=106
231960 Off ch=10 n=42 v=64
232080 On ch=10 n=42 v=106
232200 Off ch=10 n=42 v=64
232320 On ch=10 n=42 v=106
232440 Off ch=10 n=42 v=64
232560 On ch=10 n=42 v=106
232680 Off ch=10 n=42 v=64
232800 On ch=10 n=42 v=106
232920 Off ch=10 n=42 v=64
233040 On ch=10 n=42 v=106
233160 Off ch=10 n=42 v=64
233280 On ch=10 n=42 v=106
233400 Off ch=10 n=42 v=64
233520 On ch=10 n=42 v=106
233640 Off ch=10 n=42 v=64
233760 On ch=10 n=42 v=106
233880 Off ch=10 n=42 v=64
234000 On ch=10 n=42 v=106
234120 Off ch=10 n=42 v=64
234240 On ch=10 n=42 v=106
234360 Off ch=10 n=42 v=64
234480 On ch=10 n=42 v=106
234600 Off ch=10 n=42 v=64
234720 On ch=10 n=42 v=106
234840 Off ch=10 n=42 v=64
234960 On ch=10 n=42 v=106
235080 Off ch=10 n=42 v=64
235200 On ch=10 n=42 v=106
235320 Off ch=10 n=42 v=64
235440 On ch=10 n=42 v=106
235560 Off ch=10 n=42 v=64
235680 On ch=10 n=42 v=106
235800 Off ch=10 n=42 v=64
235920 On ch=10 n=42 v=106
236040 Off ch=10 n=42 v=64
236160 On ch=10 n=42 v=106
236280 Off ch=10 n=42 v=64
236400 On ch=10 n=42 v=106
236520 Off ch=10 n=42 v=64
236640 On ch=10 n=42 v=106
236760 Off ch=10 n=42 v=64
236880 On ch=10 n=42 v=106
237000 Off ch=10 n=42 v=64
237120 On ch=10 n=42 v=106
237240 Off ch=10 n=42 v=64
237360 On ch=10 n=42 v=106
237480 Off ch=10 n=42 v=64
237600 On ch=10 n=42 v=106
237720 Off ch=10 n=42 v=64
237840 On ch=10 n=42 v=106
237960 Off ch=10 n=42 v=64
238080 On ch=10 n=42 v=106
238200 Off ch=10 n=42 v=64
238320 On ch=10 n=42 v=106
238440 Off ch=10 n=42 v=64
238560 On ch=10 n=42 v=106
238680 Off ch=10 n=42 v=64
238800 On ch=10 n=42 v=106
238920 Off ch=10 n=42 v=64
239040 On ch=10 n=42 v=106
239160 Off ch=10 n=42 v=64
239280 On ch=10 n=42 v=106
239400 Off ch=10 n=42 v=64
239520 On ch=10 n=42 v=106
239640 Off ch=10 n=42 v=64
239760 On ch=10 n=42 v=106
239880 Off ch=10 n=42 v=64
240000 On ch=10 n=42 v=106
240120 Off ch=10 n=42 v=64
240240 On ch=10 n=42 v=106
240360 Off ch=10 n=42 v=64
240480 On ch=10 n=42 v=106
240600 Off ch=10 n=42 v=64
240720 On ch=10 n=42 v=106
240840 Off ch=10 n=42 v=64
240960 On ch=10 n=42 v=106
241080 Off ch=10 n=42 v=64
241200 On ch=10 n=42 v=106
241320 Off ch=10 n=42 v=64
241440 On ch=10 n=42 v=106
241560 Off ch=10 n=42 v=64
241680 On ch=10 n=42 v=106
241800 Off ch=10 n=42 v=64
241920 On ch=10 n=42 v=106
242040 Off ch=10 n=42 v=64
242160 On ch=10 n=42 v=106
242280 Off ch=10 n=42 v=64
242400 On ch=10 n=42 v=106
242520 Off ch=10 n=42 v=64
242640 On ch=10 n=42 v=106
242760 Off ch=10 n=42 v=64
242880 On ch=10 n=42 v=106
243000 Off ch=10 n=42 v=64
243120 On ch=10 n=42 v=106
243240 Off ch=10 n=42 v=64
243360 On ch=10 n=42 v=106
243480 Off ch=10 n=42 v=64
243600 On ch=10 n=42 v=106
243720 Off ch=10 n=42 v=64
243840 On ch=10 n=42 v=106
243960 Off ch=10 n=42 v=64
244080 On ch=10 n=42 v=106
244200 Off ch=10 n=42 v=64
244320 On ch=10 n=42 v=106
244440 Off ch=10 n=42 v=64
244560 On ch=10 n=42 v=106
244680 Off ch=10 n=42 v=64
244800 On ch=10 n=42 v=106
244920 Off ch=10 n=42 v=64
245040 On ch=10 n=42 v=106
245160 Off ch=10 n=42 v=64
245280 On ch=10 n=42 v=106
245400 Off ch=10 n=42 v=64
245520 On ch=10 n=42 v=106
245640 Off ch=10 n=42 v=64
245760 On ch=10 n=42 v=106
245880 Off ch=10 n=42 v=64
246000 On ch=10 n=42 v=106
246120 Off ch=10 n=42 v=64
246240 On ch=10 n=42 v=106
246360 Off ch=10 n=42 v=64
246480 On ch=10 n=42 v=106
246600 Off ch=10 n=42 v=64
246720 On ch=10 n=42 v=106
246840 Off ch=10 n=42 v=64
246960 On ch=10 n=42 v=106
247080 Off ch=10 n=42 v=64
247200 On ch=10 n=42 v=106
247320 Off ch=10 n=42 v=64
247440 On ch=10 n=42 v=106
247560 Off ch=10 n=42 v=64
247680 On ch=10 n=42 v=106
247800 Off ch=10 n=42 v=64
247920 On ch=10 n=42 v=106
248040 Off ch=10 n=42 v=64
248160 On ch=10 n=42 v=106
248280 Off ch=10 n=42 v=64
248400 On ch=10 n=42 v=106
248520 Off ch=10 n=42 v=64
248640 On ch=10 n=42 v=106
248760 Off ch=10 n=42 v=64
248880 On ch=10 n=42 v=106
249000 Off ch=10 n=42 v=64
249120 On ch=10 n=42 v=106
249240 Off ch=10 n=42 v=64
249360 On ch=10 n=42 v=106
249480 Off ch=10 n=42 v=64
249600 On ch=10 n=42 v=106
249720 Off ch=10 n=42 v=64
249840 On ch=10 n=42 v=106
249960 Off ch=10 n=42 v=64
250080 On ch=10 n=42 v=106
250200 Off ch=10 n=42 v=64
250320 On ch=10 n=42 v=106
250440 Off ch=10 n=42 v=64
250560 On ch=10 n=42 v=106
250680 Off ch=10 n=42 v=64
250800 On ch=10 n=42 v=106
250920 Off ch=10 n=42 v=64
251040 On ch=10 n=42 v=106
251160 Off ch=10 n=42 v=64
251280 On ch=10 n=42 v=106
251400 Off ch=10 n=42 v=64
251520 On ch=10 n=42 v=106
251640 Off ch=10 n=42 v=64
251760 On ch=10 n=42 v=106
251880 Off ch=10 n=42 v=64
252000 On ch=10 n=42 v=106
252120 Off ch=10 n=42 v=64
252240 On ch=10 n=42 v=106
252360 Off ch=10 n=42 v=64
252480 On ch=10 n=42 v=106
252600 Off ch=10 n=42 v=64
252720 On ch=10 n=42 v=106
252840 Off ch=10 n=42 v=64
252960 On ch=10 n=42 v=106
253080 Off ch=10 n=42 v=64
253200 On ch=10 n=42 v=106
253320 Off ch=10 n=42 v=64
253440 On ch=10 n=42 v=106
253560 Off ch=10 n=42 v=64
253680 On ch=10 n=42 v=106
253800 Off ch=10 n=42 v=64
253920 On ch=10 n=42 v=106
254040 Off ch=10 n=42 v=64
254160 On ch=10 n=42 v=106
254280 Off ch=10 n=42 v=64
254400 On ch=10 n=42 v=106
254520 Off ch=10 n=42 v=64
254640 On ch=10 n=42 v=106
254760 Off ch=10 n=42 v=64
254880 On ch=10 n=42 v=106
255000 Off ch=10 n=42 v=64
255120 On ch=10 n=42 v=106
255240 Off ch=10 n=42 v=64
255360 On ch=10 n=42 v=106
255480 Off ch=10 n=42 v=64
255600 On ch=10 n=42 v=106
255720 Off ch=10 n=42 v=64
255840 On ch=10 n=42 v=106
255960 Off ch=10 n=42 v=64
256080 On ch=10 n=42 v=106
256200 Off ch=10 n=42 v=64
256320 On ch=10 n=42 v=106
256440 Off ch=10 n=42 v=64
256560 On ch=10 n=42 v=106
256680 Off ch=10 n=42 v=64
256800 On ch=10 n=42 v=106
256920 Off ch=10 n=42 v=64
257040 On ch=10 n=42 v=106
257160 Off ch=10 n=42 v=64
257280 On ch=10 n=42 v=106
257400 Off ch=10 n=42 v=64
257520 On ch=10 n=42 v=106
257640 Off ch=10 n=42 v=64
257760 On ch=10 n=42 v=106
257880 Off ch=10 n=42 v=64
258000 On ch=10 n=42 v=106
258120 Off ch=10 n=42 v=64
258240 On ch=10 n=42 v=106
258360 Off ch=10 n=42 v=64
258480 On ch=10 n=42 v=106
258600 Off ch=10 n=42 v=64
258720 On ch=10 n=42 v=106
258840 Off ch=10 n=42 v=64
258960 On ch=10 n=42 v=106
259080 Off ch=10 n=42 v=64
259200 On ch=10 n=42 v=106
259320 Off ch=10 n=42 v=64
259440 On ch=10 n=42 v=106
259560 Off ch=10 n=42 v=64
259680 On ch=10 n=42 v=106
259800 Off ch=10 n=42 v=64
259920 On ch=10 n=42 v=106
260040 Off ch=10 n=42 v=64
260160 On ch=10 n=42 v=106
260280 Off ch=10 n=42 v=64
260400 On ch=10 n=42 v=106
260520 Off ch=10 n=42 v=64
260640 On ch=10 n=42 v=106
260760 Off ch=10 n=42 v=64
260880 On ch=10 n=42 v=106
261000 Off ch=10 n=42 v=64
261120 On ch=10 n=42 v=106
261240 Off ch=10 n=42 v=64
261360 On ch=10 n=42 v=106
261480 Off ch=10 n=42 v=64
261600 On ch=10 n=42 v=106
261720 Off ch=10 n=42 v=64
261840 On ch=10 n=42 v=106
261960 Off ch=10 n=42 v=64
262080 On ch=10 n=42 v=106
262200 Off ch=10 n=42 v=64
262320 On ch=10 n=42 v=106
262440 Off ch=10 n=42 v=64
262560 On ch=10 n=42 v=106
262680 Off ch=10 n=42 v=64
262800 On ch=10 n=42 v=106
262920 Off ch=10 n=42 v=64
263040 On ch=10 n=42 v=106
263160 Off ch=10 n=42 v=64
263280 On ch=10 n=42 v=106
263400 Off ch=10 n=42 v=64
263520 On ch=10 n=42 v=106
263640 Off ch=10 n=42 v=64
263760 On ch=10 n=42 v=106
263880 Off ch=10 n=42 v=64
264000 On ch=10 n=42 v=106
264120 Off ch=10 n=42 v=64
264240 On ch=10 n=42 v=106
264360 Off ch=10 n=42 v=64
264480 On ch=10 n=42 v=106
264600 Off ch=10 n=42 v=64
264720 On ch=10 n=42 v=106
264840 Off ch=10 n=42 v=64
264960 On ch=10 n=42 v=106
265080 Off ch=10 n=42 v=64
265200 On ch=10 n=42 v=106
265320 Off ch=10 n=42 v=64
265440 On ch=10 n=42 v=106
265560 Off ch=10 n=42 v=64
265680 On ch=10 n=42 v=106
265800 Off ch=10 n=42 v=64
265920 On ch=10 n=42 v=106
266040 Off ch=10 n=42 v=64
266160 On ch=10 n=42 v=106
266280 Off ch=10 n=42 v=64
266400 On ch=10 n=42 v=106
266520 Off ch=10 n=42 v=64
266640 On ch=10 n=42 v=106
266760 Off ch=10 n=42 v=64
266880 On ch=10 n=42 v=106
267000 Off ch=10 n=42 v=64
267120 On ch=10 n=42 v=106
267240 Off ch=10 n=42 v=64
267360 On ch=10 n=42 v=106
267480 Off ch=10 n=42 v=64
267600 On ch=10 n=42 v=106
267720 Off ch=10 n=42 v=64
267840 On ch=10 n=42 v=106
267960 Off ch=10 n=42 v=64
268080 On ch=10 n=42 v=106
268200 Off ch=10 n=42 v=64
268320 On ch=10 n=42 v=106
268440 Off ch=10 n=42 v=64
268560 On ch=10 n=42 v=106
268680 Off ch=10 n=42 v=64
268800 On ch=10 n=42 v=106
268920 Off ch=10 n=42 v=64
269040 On ch=10 n=42 v=106
269160 Off ch=10 n=42 v=64
269280 On ch=10 n=42 v=106
269400 Off ch=10 n=42 v=64
269520 On ch=10 n=42 v=106
269640 Off ch=10 n=42 v=64
269760 On ch=10 n=42 v=106
269880 Off ch=10 n=42 v=64
270000 On ch=10 n=42 v=106
270120 Off ch=10 n=42 v=64
270240 On ch=10 n=42 v=106
270360 Off ch=10 n=42 v=64
270480 On ch=10 n=42 v=106
270600 Off ch=10 n=42 v=64
270720 On ch=10 n=42 v=106
270840 Off ch=10 n=42 v=64
270960 On ch=10 n=42 v=106
271080 Off ch=10 n=42 v=64
271200 On ch=10 n=42 v=106
271320 Off ch=10 n=42 v=64
271440 On ch=10 n=42 v=106
271560 Off ch=10 n=42 v=64
271680 On ch=10 n=42 v=106
271800 Off ch=10 n=42 v=64
271920 On ch=10 n=42 v=106
272040 Off ch=10 n=42 v=64
272160 On ch=10 n=42 v=106
272280 Off ch=10 n=42 v=64
272400 On ch=10 n=42 v=106
272520 Off ch=10 n=42 v=64
272640 On ch=10 n=42 v=106
272760 Off ch=10 n=42 v=64
272880 On ch=10 n=42 v=106
273000 Off ch=10 n=42 v=64
273120 On ch=10 n=42 v=106
273240 Off ch=10 n=42 v=64
273360 On ch=10 n=42 v=106
273480 Off ch=10 n=42 v=64
273600 On ch=10 n=42 v=106
273720 Off ch=10 n=42 v=64
273840 On ch=10 n=42 v=106
273960 Off ch=10 n=42 v=64
274080 On ch=10 n=42 v=106
274200 Off ch=10 n=42 v=64
274320 On ch=10 n=42 v=106
274440 Off ch=10 n=42 v=64
274560 On ch=10 n=42 v=106
274680 Off ch=10 n=42 v=64
274800 On ch=10 n=42 v=106
274920 Off ch=10 n=42 v=64
275040 On ch=10 n=42 v=106
275160 Off ch=10 n=42 v=64
275280 On ch=10 n=42 v=106
275400 Off ch=10 n=42 v=64
275520 On ch=10 n=42 v=106
275640 Off ch=10 n=42 v=64
275760 On ch=10 n=42 v=106
275880 Off ch=10 n=42 v=64
276000 On ch=10 n=42 v=106
276120 Off ch=10 n=42 v=64
276240 On ch=10 n=42 v=106
276360 Off ch=10 n=42 v=64
276480 On ch=10 n=42 v=106
276600 Off ch=10 n=42 v=64
276720 On ch=10 n=42 v=106
276840 Off ch=10 n=42 v=64
276960 On ch=10 n=42 v=106
277080 Off ch=10 n=42 v=64
277200 On ch=10 n=42 v=106
277320 Off ch=10 n=42 v=64
277440 On ch=10 n=42 v=106
277560 Off ch=10 n=42 v=64
277680 On ch=10 n=42 v=106
277800 Off ch=10 n=42 v=64
277920 On ch=10 n=42 v=106
278040 Off ch=10 n=42 v=64
278160 On ch=10 n=42 v=106
278280 Off ch=10 n=42 v=64
278400 On ch=10 n=42 v=106
278520 Off ch=10 n=42 v=64
278640 On ch=10 n=42 v=106
278760 Off ch=10 n=42 v=64
278880 On ch=10 n=42 v=106
279000 Off ch=10 n=42 v=64
279120 On ch=10 n=42 v=106
279240 Off ch=10 n=42 v=64
279360 On ch=10 n=42 v=106
279480 Off ch=10 n=42 v=64
279600 On ch=10 n=42 v=106
279720 Off ch=10 n=42 v=64
279840 On ch=10 n=42 v=106
279960 Off ch=10 n=42 v=64
280080 On ch=10 n=42 v=106
280200 Off ch=10 n=42 v=64
280320 On ch=10 n=42 v=106
280440 Off ch=10 n=42 v=64
280560 On ch=10 n=42 v=106
280680 Off ch=10 n=42 v=64
280800 On ch=10 n=42 v=106
280920 Off ch=10 n=42 v=64
281040 On ch=10 n=42 v=106
281160 Off ch=10 n=42 v=64
281280 On ch=10 n=42 v=106
281400 Off ch=10 n=42 v=64
281520 On ch=10 n=42 v=106
281640 Off ch=10 n=42 v=64
281760 On ch=10 n=42 v=106
281880 Off ch=10 n=42 v=64
282000 On ch=10 n=42 v=106
282120 Off ch=10 n=42 v=64
282240 On ch=10 n=42 v=106
282360 Off ch=10 n=42 v=64
282480 On ch=10 n=42 v=106
282600 Off ch=10 n=42 v=64
282720 On ch=10 n=42 v=106
282840 Off ch=10 n=42 v=64
282960 On ch=10 n=42 v=106
283080 Off ch=10 n=42 v=64
283200 On ch=10 n=42 v=106
283320 Off ch=10 n=42 v=64
283440 On ch=10 n=42 v=106
283560 Off ch=10 n=42 v=64
283680 On ch=10 n=42 v=106
283800 Off ch=10 n=42 v=64
283920 On ch=10 n=42 v=106
284040 Off ch=10 n=42 v=64
284160 On ch=10 n=42 v=106
284280 Off ch=10 n=42 v=64
284400 On ch=10 n=42 v=106
284520 Off ch=10 n=42 v=64
284640 On ch=10 n=42 v=106
284760 Off ch=10 n=42 v=64
284880 On ch=10 n=42 v=106
285000 Off ch=10 n=42 v=64
285120 On ch=10 n=42 v=106
285240 Off ch=10 n=42 v=64
285360 On ch=10 n=42 v=106
285480 Off ch=10 n=42 v=64
285600 On ch=10 n=42 v=106
285720 Off ch=10 n=42 v=64
285840 On ch=10 n=42 v=106
285960 Off ch=10 n=42 v=64
286080 On ch=10 n=42 v=106
286200 Off ch=10 n=42 v=64
286320 On ch=10 n=42 v=106
286440 Off ch=10 n=42 v=64
286560 On ch=10 n=42 v=106
286680 Off ch=10 n=42 v=64
286800 On ch=10 n=42 v=106
286920 Off ch=10 n=42 v=64
287040 On ch=10 n=42 v=106
287160 Off ch=10 n=42 v=64
287280 On ch=10 n=42 v=106
287400 Off ch=10 n=42 v=64
287520 On ch=10 n=42 v=106
287640 Off ch=10 n=42 v=64
287760 On ch=10 n=42 v=106
287880 Off ch=10 n=42 v=64
288000 On ch=10 n=42 v=106
288120 Off ch=10 n=42 v=64
288240 On ch=10 n=42 v=106
288360 Off ch=10 n=42 v=64
288480 On ch=10 n=42 v=106
288600 Off ch=10 n=42 v=64
288720 On ch=10 n=42 v=106
288840 Off ch=10 n=42 v=64
288960 On ch=10 n=42 v=106
289080 Off ch=10 n=42 v=64
289200 On ch=10 n=42 v=106
289320 Off ch=10 n=42 v=64
289440 On ch=10 n=42 v=106
289560 Off ch=10 n=42 v=64
289680 On ch=10 n=42 v=106
289800 Off ch=10 n=42 v=64
289920 On ch=10 n=42 v=106
290040 Off ch=10 n=42 v=64
290160 On ch=10 n=42 v=106
290280 Off ch=10 n=42 v=64
290400 On ch=10 n=42 v=106
290520 Off ch=10 n=42 v=64
290640 On ch=10 n=42 v=106
290760 Off ch=10 n=42 v=64
290880 On ch=10 n=42 v=106
291000 Off ch=10 n=42 v=64
291120 On ch=10 n=42 v=106
291240 Off ch=10 n=42 v=64
291360 On ch=10 n=42 v=106
291480 Off ch=10 n=42 v=64
291600 On ch=10 n=42 v=106
291720 Off ch=10 n=42 v=64
291840 On ch=10 n=42 v=106
291960 Off ch=10 n=42 v=64
292080 On ch=10 n=42 v=106
292200 Off ch=10 n=42 v=64
292320 On ch=10 n=42 v=106
292440 Off ch=10 n=42 v=64
292560 On ch=10 n=42 v=106
292680 Off ch=10 n=42 v=64
292800 On ch=10 n=42 v=106
292920 Off ch=10 n=42 v=64
293040 On ch=10 n=42 v=106
293160 Off ch=10 n=42 v=64
293280 On ch=10 n=42 v=106
293400 Off ch=10 n=42 v=64
293520 On ch=10 n=42 v=106
293640 Off ch=10 n=42 v=64
293760 On ch=10 n=42 v=106
293880 Off ch=10 n=42 v=64
294000 On ch=10 n=42 v=106
294120 Off ch=10 n=42 v=64
294240 On ch=10 n=42 v=106
294360 Off ch=10 n=42 v=64
294480 On ch=10 n=42 v=106
294600 Off ch=10 n=42 v=64
294720 On ch=10 n=42 v=106
294840 Off ch=10 n=42 v=64
294960 On ch=10 n=42 v=106
295080 Off ch=10 n=42 v=64
295200 On ch=10 n=42 v=106
295320 Off ch=10 n=42 v=64
295440 On ch=10 n=42 v=106
295560 Off ch=10 n=42 v=64
295680 On ch=10 n=42 v=106
295800 Off ch=10 n=42 v=64
295920 On ch=10 n=42 v=106
296040 Off ch=10 n=42 v=64
296160 On ch=10 n=42 v=106
296280 Off ch=10 n=42 v=64
296400 On ch=10 n=42 v=106
296520 Off ch=10 n=42 v=64
296640 On ch=10 n=42 v=106
296760 Off ch=10 n=42 v=64
296880 On ch=10 n=42 v=106
297000 Off ch=10 n=42 v=64
297120 On ch=10 n=42 v=106
297240 Off ch=10 n=42 v=64
297360 On ch=10 n=42 v=106
297480 Off ch=10 n=42 v=64
297600 On ch=10 n=42 v=106
297720 Off ch=10 n=42 v=64
297840 On ch=10 n=42 v=106
297960 Off ch=10 n=42 v=64
298080 On ch=10 n=42 v=106
298200 Off ch=10 n=42 v=64
298320 On ch=10 n=42 v=106
298440 Off ch=10 n=42 v=64
298560 On ch=10 n=42 v=106
298680 Off ch=10 n=42 v=64
298800 On ch=10 n=42 v=106
298920 Off ch=10 n=42 v=64
299040 On ch=10 n=42 v=106
299160 Off ch=10 n=42 v=64
299280 On ch=10 n=42 v=106
299400 Off ch=10 n=42 v=64
299520 On ch=10 n=42 v=106
299640 Off ch=10 n=42 v=64
299760 On ch=10 n=42 v=106
299880 Off ch=10 n=42 v=64
300000 On ch=10 n=42 v=106
300120 Off ch=10 n=42 v=64
300240 On ch=10 n=42 v=106
300360 Off ch=10 n=42 v=64
300480 On ch=10 n=42 v=106
300600 Off ch=10 n=42 v=64
300720 On ch=10 n=42 v=106
300840 Off ch=10 n=42 v=64
300960 On ch=10 n=42 v=106
301080 Off ch=10 n=42 v=64
301200 On ch=10 n=42 v=106
301320 Off ch=10 n=42 v=64
301440 On ch=10 n=42 v=106
301560 Off ch=10 n=42 v=64
301680 On ch=10 n=42 v=106
301800 Off ch=10 n=42 v=64
301920 On ch=10 n=42 v=106
302040 Off ch=10 n=42 v=64
302160 On ch=10 n=42 v=106
302280 Off ch=10 n=42 v=64
302400 On ch=10 n=42 v=106
302520 Off ch=10 n=42 v=64
302640 On ch=10 n=42 v=106
302760 Off ch=10 n=42 v=64
302880 On ch=10 n=42 v=106
303000 Off ch=10 n=42 v=64
303120 On ch=10 n=42 v=106
303240 Off ch=10 n=42 v=64
303360 On ch=10 n=42 v=106
303480 Off ch=10 n=42 v=64
303600 On ch=10 n=42 v=106
303720 Off ch=10 n=42 v=64
303840 On ch=10 n=42 v=106
303960 Off ch=10 n=42 v=64
304080 On ch=10 n=42 v=106
304200 Off ch=10 n=42 v=64
304320 On ch=10 n=42 v=106
304440 Off ch=10 n=42 v=64
304560 On ch=10 n=42 v=106
304680 Off ch=10 n=42 v=64
304800 On ch=10 n=42 v=106
304920 Off ch=10 n=42 v=64
305040 On ch=10 n=42 v=106
305160 Off ch=10 n=42 v=64
305280 On ch=10 n=42 v=106
305400 Off ch=10 n=42 v=64
305520 On ch=10 n=42 v=106
305640 Off ch=10 n=42 v=64
305760 On ch=10 n=42 v=106
305880 Off ch=10 n=42 v=64
306000 On ch=10 n=42 v=106
306120 Off ch=10 n=42 v=64
306240 On ch=10 n=42 v=106
306360 Off ch=10 n=42 v=64
306480 On ch=10 n=42 v=106
306600 Off ch=10 n=42 v=64
306720 On ch=10 n=42 v=106
306840 Off ch=10 n=42 v=64
306960 On ch=10 n=42 v=106
307080 Off ch=10 n=42 v=64
307200 On ch=10 n=42 v=106
307320 Off ch=10 n=42 v=64
307440 On ch=10 n=42 v=106
307560 Off ch=10 n=42 v=64
307680 On ch=10 n=42 v=106
307800 Off ch=10 n=42 v=64
307920 On ch=10 n=42 v=106
308040 Off ch=10 n=42 v=64
308160 On ch=10 n=42 v=106
308280 Off ch=10 n=42 v=64
308400 On ch=10 n=42 v=106
308520 Off ch=10 n=42 v=64
308640 On ch=10 n=42 v=106
308760 Off ch=10 n=42 v=64
308880 On ch=10 n=42 v=106
309000 Off ch=10 n=42 v=64
309120 On ch=10 n=42 v=106
309240 Off ch=10 n=42 v=64
309360 On ch=10 n=42 v=106
309480 Off ch=10 n=42 v=64
309600 On ch=10 n=42 v=106
309720 Off ch=10 n=42 v=64
309840 On ch=10 n=42 v=106
309960 Off ch=10 n=42 v=64
310080 On ch=10 n=42 v=106
310200 Off ch=10 n=42 v=64
310320 On ch=10 n=42 v=106
310440 Off ch=10 n=42 v=64
310560 On ch=10 n=42 v=106
310680 Off ch=10 n=42 v=64
310800 On ch=10 n=42 v=106
310920 Off ch=10 n=42 v=64
311040 On ch=10 n=42 v=106
311160 Off ch=10 n=42 v=64
311280 On ch=10 n=42 v=106
311400 Off ch=10 n=42 v=64
311520 On ch=10 n=42 v=106
311640 Off ch=10 n=42 v=64
311760 On ch=10 n=42 v=106
311880 Off ch=10 n=42 v=64
312000 On ch=10 n=42 v=106
312120 Off ch=10 n=42 v=64
312240 On ch=10 n=42 v=106
312360 Off ch=10 n=42 v=64
312480 On ch=10 n=42 v=106
312600 Off ch=10 n=42 v=64
312720 On ch=10 n=42 v=106
312840 Off ch=10 n=42 v=64
312960 On ch=10 n=42 v=106
313080 Off ch=10 n=42 v=64
313200 On ch=10 n=42 v=106
313320 Off ch=10 n=42 v=64
313440 On ch=10 n=42 v=106
313560 Off ch=10 n=42 v=64
313680 On ch=10 n=42 v=106
313800 Off ch=10 n=42 v=64
313920 On ch=10 n=42 v=106
314040 Off ch=10 n=42 v=64
314160 On ch=10 n=42 v=106
314280 Off ch=10 n=42 v=64
314400 On ch=10 n=42 v=106
314520 Off ch=10 n=42 v=64
314640 On ch=10 n=42 v=106
314760 Off ch=10 n=42 v=64
314880 On ch=10 n=42 v=106
315000 Off ch=10 n=42 v=64
315120 On ch=10 n=42 v=106
315240 Off ch=10 n=42 v=64
315360 On ch=10 n=42 v=106
315480 Off ch=10 n=42 v=64
315600 On ch=10 n=42 v=106
315720 Off ch=10 n=42 v=64
315840 On ch=10 n=42 v=106
315960 Off ch=10 n=42 v=64
316080 On ch=10 n=42 v=106
316200 Off ch=10 n=42 v=64
316320 On ch=10 n=42 v=106
316440 Off ch=10 n=42 v=64
316560 On ch=10 n=42 v=106
316680 Off ch=10 n=42 v=64
316800 On ch=10 n=42 v=106
316920 Off ch=10 n=42 v=64
317040 On ch=10 n=42 v=106
317160 Off ch=10 n=42 v=64
317280 On ch=10 n=42 v=106
317400 Off ch=10 n=42 v=64
317520 On ch=10 n=42 v=106
317640 Off ch=10 n=42 v=64
317760 On ch=10 n=42 v=106
317880 Off ch=10 n=42 v=64
318000 On ch=10 n=42 v=106
318120 Off ch=10 n=42 v=64
318240 On ch=10 n=42 v=106
318360 Off ch=10 n=42 v=64
318480 On ch=10 n=42 v=106
318600 Off ch=10 n=42 v=64
318720 On ch=10 n=42 v=106
318840 Off ch=10 n=42 v=64
318960 On ch=10 n=42 v=106
319080 Off ch=10 n=42 v=64
319200 On ch=10 n=42 v=106
319320 Off ch=10 n=42 v=64
319440 On ch=10 n=42 v=106
319560 Off ch=10 n=42 v=64
319680 On ch=10 n=42 v=106
319800 Off ch=10 n=42 v=64
319920 On ch=10 n=42 v=106
320040 Off ch=10 n=42 v=64
320160 On ch=10 n=42 v=106
320280 Off ch=10 n=42 v=64
320400 On ch=10 n=42 v=106
320520 Off ch=10 n=42 v=64
320640 On ch=10 n=42 v=106
320760 Off ch=10 n=42 v=64
320880 On ch=10 n=42 v=106
321000 Off ch=10 n=42 v=64
321120 On ch=10 n=42 v=106
321240 Off ch=10 n=42 v=64
321360 On ch=10 n=42 v=106
321480 Off ch=10 n=42 v=64
321600 On ch=10 n=42 v=106
321720 Off ch=10 n=42 v=64
321840 On ch=10 n=42 v=106
321960 Off ch=10 n=42 v=64
322080 On ch=10 n=42 v=106
322200 Off ch=10 n=42 v=64
322320 On ch=10 n=42 v=106
322440 Off ch=10 n=42 v=64
322560 On ch=10 n=42 v=106
322680 Off ch=10 n=42 v=64
322800 On ch=10 n=42 v=106
322920 Off ch=10 n=42 v=64
323040 On ch=10 n=42 v=106
323160 Off ch=10 n=42 v=64
323280 On ch=10 n=42 v=106
323400 Off ch=10 n=42 v=64
323520 On ch=10 n=42 v=106
323640 Off ch=10 n=42 v=64
323760 On ch=10 n=42 v=106
323880 Off ch=10 n=42 v=64
324000 On ch=10 n=42 v=106
324120 Off ch=10 n=42 v=64
324240 On ch=10 n=42 v=106
324360 Off ch=10 n=42 v=64
324480 On ch=10 n=42 v=106
324600 Off ch=10 n=42 v=64
324720 On ch=10 n=42 v=106
324840 Off ch=10 n=42 v=64
324960 On ch=10 n=42 v=106
325080 Off ch=10 n=42 v=64
325200 On ch=10 n=42 v=106
325320 Off ch=10 n=42 v=64
325440 On ch=10 n=42 v=106
325560 Off ch=10 n=42 v=64
325680 On ch=10 n=42 v=106
325800 Off ch=10 n=42 v=64
325920 On ch=10 n=42 v=106
326040 Off ch=10 n=42 v=64
326160 On ch=10 n=42 v=106
326280 Off ch=10 n=42 v=64
326400 On ch=10 n=42 v=106
326520 Off ch=10 n=42 v=64
326640 On ch=10 n=42 v=106
326760 Off ch=10 n=42 v=64
326880 On ch=10 n=42 v=106
327000 Off ch=10 n=42 v=64
327120 On ch=10 n=42 v=106
327240 Off ch=10 n=42 v=64
327360 On ch=10 n=42 v=106
327480 Off ch=10 n=42 v=64
327600 On ch=10 n=42 v=106
327720 Off ch=10 n=42 v=64
327840 On ch=10 n=42 v=106
327960 Off ch=10 n=42 v=64
328080 On ch=10 n=42 v=106
328200 Off ch=10 n=42 v=64
328320 On ch=10 n=42 v=106
328440 Off ch=10 n=42 v=64
328560 On ch=10 n=42 v=106
328680 Off ch=10 n=42 v=64
328800 On ch=10 n=42 v=106
328920 Off ch=10 n=42 v=64
329040 On ch=10 n=42 v=106
329160 Off ch=10 n=42 v=64
329280 On ch=10 n=42 v=106
329400 Off ch=10 n=42 v=64
329520 On ch=10 n=42 v=106
329640 Off ch=10 n=42 v=64
329760 On ch=10 n=42 v=106
329880 Off ch=10 n=42 v=64
330000 On ch=10 n=42 v=106
330120 Off ch=10 n=42 v=64
330240 On ch=10 n=42 v=106
330360 Off ch=10 n=42 v=64
330480 On ch=10 n=42 v=106
330600 Off ch=10 n=42 v=64
330720 On ch=10 n=42 v=106
330840 Off ch=10 n=42 v=64
330960 On ch=10 n=42 v=106
331080 Off ch=10 n=42 v=64
331200 On ch=10 n=42 v=106
331320 Off ch=10 n=42 v=64
331440 On ch=10 n=42 v=106
331560 Off ch=10 n=42 v=64
331680 On ch=10 n=42 v=106
331800 Off ch=10 n=42 v=64
331920 On ch=10 n=42 v=106
332040 Off ch=10 n=42 v=64
332160 On ch=10 n=42 v=106
332280 Off ch=10 n=42 v=64
332400 On ch=10 n=42 v=106
332520 Off ch=10 n=42 v=64
332640 On ch=10 n=42 v=106
332760 Off ch=10 n=42 v=64
332880 On ch=10 n=42 v=106
333000 Off ch=10 n=42 v=64
333120 On ch=10 n=42 v=106
333240 Off ch=10 n=42 v=64
333360 On ch=10 n=42 v=106
333480 Off ch=10 n=42 v=64
333600 On ch=10 n=42 v=106
333720 Off ch=10 n=42 v=64
333840 On ch=10 n=42 v=106
333960 Off ch=10 n=42 v=64
334080 On ch=10 n=42 v=106
334200 Off ch=10 n=42 v=64
334320 On ch=10 n=42 v=106
334440 Off ch=10 n=42 v=64
334560 On ch=10 n=42 v=106
334680 Off ch=10 n=42 v=64
334800 On ch=10 n=42 v=106
334920 Off ch=10 n=42 v=64
335040 On ch=10 n=42 v=106
335160 Off ch=10 n=42 v=64
335280 On ch=10 n=42 v=106
335400 Off ch=10 n=42 v=64
335520 On ch=10 n=42 v=106
335640 Off ch=10 n=42 v=64
335760 On ch=10 n=42 v=106
335880 Off ch=10 n=42 v=64
336000 On ch=10 n=42 v=106
336120 Off ch=10 n=42 v=64
336240 On ch=10 n=42 v=106
336360 Off ch=10 n=42 v=64
336480 On ch=10 n=42 v=106
336600 Off ch=10 n=42 v=64
336720 On ch=10 n=42 v=106
336840 Off ch=10 n=42 v=64
336960 On ch=10 n=42 v=106
337080 Off ch=10 n=42 v=64
337200 On ch=10 n=42 v=106
337320 Off ch=10 n=42 v=64
337440 On ch=10 n=42 v=106
337560 Off ch=10 n=42 v=64
337680 On ch=10 n=42 v=106
337800 Off ch=10 n=42 v=64
337920 On ch=10 n=42 v=106
338040 Off ch=10 n=42 v=64
338160 On ch=10 n=42 v=106
338280 Off ch=10 n=42 v=64
338400 On ch=10 n=42 v=106
338520 Off ch=10 n=42 v=64
338640 On ch=10 n=42 v=106
338760 Off ch=10 n=42 v=64
338880 On ch=10 n=42 v=106
339000 Off ch=10 n=42 v=64
339120 On ch=10 n=42 v=106
339240 Off ch=10 n=42 v=64
339360 On ch=10 n=42 v=106
339480 Off ch=10 n=42 v=64
339600 On ch=10 n=42 v=106
339720 Off ch=10 n=42 v=64
339840 On ch=10 n=42 v=106
339960 Off ch=10 n=42 v=64
340080 On ch=10 n=42 v=106
340200 Off ch=10 n=42 v=64
340320 On ch=10 n=42 v=106
340440 Off ch=10 n=42 v=64
340560 On ch=10 n=42 v=106
340680 Off ch=10 n=42 v=64
340800 On ch=10 n=42 v=106
340920 Off ch=10 n=42 v=64
341040 On ch=10 n=42 v=106
341160 Off ch=10 n=42 v=64
341280 On ch=10 n=42 v=106
341400 Off ch=10 n=42 v=64
341520 On ch=10 n=42 v=106
341640 Off ch=10 n=42 v=64
341760 On ch=10 n=42 v=106
341880 Off ch=10 n=42 v=64
342000 On ch=10 n=42 v=106
342120 Off ch=10 n=42 v=64
342240 On ch=10 n=42 v=106
342360 Off ch=10 n=42 v=64
342480 On ch=10 n=42 v=106
342600 Off ch=10 n=42 v=64
342720 On ch=10 n=42 v=106
342840 Off ch=10 n=42 v=64
342960 On ch=10 n=42 v=106
343080 Off ch=10 n=42 v=64
343200 On ch=10 n=42 v=106
343320 Off ch=10 n=42 v=64
343440 On ch=10 n=42 v=106
343560 Off ch=10 n=42 v=64
343680 On ch=10 n=42 v=106
343800 Off ch=10 n=42 v=64
343920 On ch=10 n=42 v=106
344040 Off ch=10 n=42 v=64
344160 On ch=10 n=42 v=106
344280 Off ch=10 n=42 v=64
344400 On ch=10 n=42 v=106
344520 Off ch=10 n=42 v=64
344640 On ch=10 n=42 v=106
344760 Off ch=10 n=42 v=64
344880 On ch=10 n=42 v=106
345000 Off ch=10 n=42 v=64
345120 On ch=10 n=42 v=106
345240 Off ch=10 n=42 v=64
345360 On ch=10 n=42 v=106
345480 Off ch=10 n=42 v=64
345600 On ch=10 n=42 v=106
345720 Off ch=10 n=42 v=64
345840 On ch=10 n=42 v=106
345960 Off ch=10 n=42 v=64
346080 On ch=10 n=42 v=106
346200 Off ch=10 n=42 v=64
346320 On ch=10 n=42 v=106
346440 Off ch=10 n=42 v=64
346560 On ch=10 n=42 v=106
346680 Off ch=10 n=42 v=64
346800 On ch=10 n=42 v=106
346920 Off ch=10 n=42 v=64
347040 On ch=10 n=42 v=106
347160 Off ch=10 n=42 v=64
347280 On ch=10 n=42 v=106
347400 Off ch=10 n=42 v=64
347520 On ch=10 n=42 v=106
347640 Off ch=10 n=42 v=64
347760 On ch=10 n=42 v=106
347880 Off ch=10 n=42 v=64
348000 On ch=10 n=42 v=106
348120 Off ch=10 n=42 v=64
348240 On ch=10 n=42 v=106
348360 Off ch=10 n=42 v=64
348480 On ch=10 n=42 v=106
348600 Off ch=10 n=42 v=64
348720 On ch=10 n=42 v=106
348840 Off ch=10 n=42 v=64
348960 On ch=10 n=42 v=106
349080 Off ch=10 n=42 v=64
349200 On ch=10 n=42 v=106
349320 Off ch=10 n=42 v=64
349440 On ch=10 n=42 v=106
349560 Off ch=10 n=42 v=64
349680 On ch=10 n=42 v=106
349800 Off ch=10 n=42 v=64
349920 On ch=10 n=42 v=106
350040 Off ch=10 n=42 v=64
350160 On ch=10 n=42 v=106
350280 Off ch=10 n=42 v=64
350400 On ch=10 n=42 v=106
350520 Off ch=10 n=42 v=64
350640 On ch=10 n=42 v=106
350760 Off ch=10 n=42 v=64
350880 On ch=10 n=42 v=106
351000 Off ch=10 n=42 v=64
351120 On ch=10 n=42 v=106
351240 Off ch=10 n=42 v=64
351360 On ch=10 n=42 v=106
351480 Off ch=10 n=42 v=64
351600 On ch=10 n=42 v=106
351720 Off ch=10 n=42 v=64
351840 On ch=10 n=42 v=106
351960 Off ch=10 n=42 v=64
352080 On ch=10 n=42 v=106
352200 Off ch=10 n=42 v=64
352320 On ch=10 n=42 v=106
352440 Off ch=10 n=42 v=64
352560 On ch=10 n=42 v=106
352680 Off ch=10 n=42 v=64
352800 On ch=10 n=42 v=106
352920 Off ch=10 n=42 v=64
353040 On ch=10 n=42 v=106
353160 Off ch=10 n=42 v=64
353280 On ch=10 n=42 v=106
353400 Off ch=10 n=42 v=64
353520 On ch=10 n=42 v=106
353640 Off ch=10 n=42 v=64
353760 On ch=10 n=42 v=106
353880 Off ch=10 n=42 v=64
354000 On ch=10 n=42 v=106
354120 Off ch=10 n=42 v=64
354240 On ch=10 n=42 v=106
354360 Off ch=10 n=42 v=64
354480 On ch=10 n=42 v=106
354600 Off ch=10 n=42 v=64
354720 On ch=10 n=42 v=106
354840 Off ch=10 n=42 v=64
354960 On ch=10 n=42 v=106
355080 Off ch=10 n=42 v=64
355200 On ch=10 n=42 v=106
355320 Off ch=10 n=42 v=64
355440 On ch=10 n=42 v=106
355560 Off ch=10 n=42 v=64
355680 On ch=10 n=42 v=106
355800 Off ch=10 n=42 v=64
355920 On ch=10 n=42 v=106
356040 Off ch=10 n=42 v=64
356160 On ch=10 n=42 v=106
356280 Off ch=10 n=42 v=64
356400 On ch=10 n=42 v=106
356520 Off ch=10 n=42 v=64
356640 On ch=10 n=42 v=106
356760 Off ch=10 n=42 v=64
356880 On ch=10 n=42 v=106
357000 Off ch=10 n=42 v=64
357120 On ch=10 n=42 v=106
357240 Off ch=10 n=42 v=64
357360 On ch=10 n=42 v=106
357480 Off ch=10 n=42 v=64
357600 On ch=10 n=42 v=106
357720 Off ch=10 n=42 v=64
357840 On ch=10 n=42 v=106
357960 Off ch=10 n=42 v=64
358080 On ch=10 n=42 v=106
358200 Off ch=10 n=42 v=64
358320 On ch=10 n=42 v=106
358440 Off ch=10 n=42 v=64
358560 On ch=10 n=42 v=106
358680 Off ch=10 n=42 v=64
358800 On ch=10 n=42 v=106
358920 Off ch=10 n=42 v=64
359040 On ch=10 n=42 v=106
359160 Off ch=10 n=42 v=64
359280 On ch=10 n=42 v=106
359400 Off ch=10 n=42 v=64
366720 On ch=10 n=42 v=106
366840 Off ch=10 n=42 v=64
366960 On ch=10 n=42 v=106
367080 Off ch=10 n=42 v=64
367080 On ch=10 n=42 v=106
367200 Off ch=10 n=42 v=64
368160 On ch=10 n=42 v=106
368280 Off ch=10 n=42 v=64
368640 On ch=10 n=42 v=106
368760 Off ch=10 n=42 v=64
368880 On ch=10 n=42 v=106
369000 Off ch=10 n=42 v=64
369000 On ch=10 n=42 v=106
369120 Off ch=10 n=42 v=64
370080 On ch=10 n=42 v=106
370200 Off ch=10 n=42 v=64
370560 On ch=10 n=42 v=106
370680 Off ch=10 n=42 v=64
370800 On ch=10 n=42 v=106
370920 Off ch=10 n=42 v=64
371040 On ch=10 n=42 v=106
371160 Off ch=10 n=42 v=64
371280 On ch=10 n=42 v=106
371400 Off ch=10 n=42 v=64
371520 On ch=10 n=42 v=106
371640 Off ch=10 n=42 v=64
371760 On ch=10 n=42 v=106
371880 Off ch=10 n=42 v=64
372000 On ch=10 n=42 v=106
372120 Off ch=10 n=42 v=64
372240 On ch=10 n=42 v=106
372360 Off ch=10 n=42 v=64
372720 On ch=10 n=42 v=113
372840 Off ch=10 n=42 v=64
372960 On ch=10 n=42 v=113
373080 Off ch=10 n=42 v=64
373200 On ch=10 n=42 v=113
373320 Off ch=10 n=42 v=64
373440 On ch=10 n=42 v=113
373560 Off ch=10 n=42 v=64
373680 On ch=10 n=42 v=113
373800 Off ch=10 n=42 v=64
373920 On ch=10 n=42 v=113
374040 Off ch=10 n=42 v=64
374160 On ch=10 n=42 v=113
374280 Off ch=10 n=42 v=64
374400 On ch=10 n=42 v=113
374520 Off ch=10 n=42 v=64
374640 On ch=10 n=42 v=113
374760 Off ch=10 n=42 v=64
374880 On ch=10 n=42 v=113
375000 Off ch=10 n=42 v=64
375120 On ch=10 n=42 v=113
375240 Off ch=10 n=42 v=64
375360 On ch=10 n=42 v=113
375480 Off ch=10 n=42 v=64
375600 On ch=10 n=42 v=113
375720 Off ch=10 n=42 v=64
375840 On ch=10 n=42 v=113
375960 Off ch=10 n=42 v=64
376080 On ch=10 n=42 v=113
376200 Off ch=10 n=42 v=64
376320 On ch=10 n=42 v=113
376440 Off ch=10 n=42 v=64
376560 On ch=10 n=42 v=113
376680 Off ch=10 n=42 v=64
376800 On ch=10 n=42 v=113
376920 Off ch=10 n=42 v=64
377040 On ch=10 n=42 v=113
377160 Off ch=10 n=42 v=64
377280 On ch=10 n=42 v=113
377400 Off ch=10 n=42 v=64
377520 On ch=10 n=42 v=113
377640 Off ch=10 n=42 v=64
377760 On ch=10 n=42 v=113
377880 Off ch=10 n=42 v=64
378000 On ch=10 n=42 v=113
378120 Off ch=10 n=42 v=64
382080 Par ch=10 c=7 v=100
382080 Par ch=10 c=2 v=0
382080 Par ch=10 c=1 v=0
382080 ChPr ch=10 v=0
382080 Pb ch=10 v=8192
382080 PoPr ch=10 n=0 v=0
382080 Par ch=10 c=4 v=0
382080 Par ch=10 c=8 v=0
382080 Par ch=10 c=10 v=63
382080 Par ch=10 c=64 v=0
382080 Par ch=10 c=66 v=0
382080 Par ch=10 c=67 v=0
382080 Par ch=10 c=68 v=0
382080 Par ch=10 c=65 v=0
382080 Meta TrkEnd
TrkEnd
MTrk
0 Meta TrkName "Open Hi Hat         "
0 Meta 0x21 00
0 Meta 0x20 09
0 Par ch=10 c=7 v=99
0 Par ch=10 c=10 v=64
0 PrCh ch=10 p=0
3600 On ch=10 n=46 v=98
3840 Off ch=10 n=46 v=64
8160 On ch=10 n=46 v=98
8400 Off ch=10 n=46 v=64
9600 On ch=10 n=46 v=98
12360 Off ch=10 n=46 v=64
13440 On ch=10 n=46 v=98
16200 Off ch=10 n=46 v=64
17040 On ch=10 n=46 v=98
17280 Off ch=10 n=46 v=64
17280 On ch=10 n=46 v=98
20640 Off ch=10 n=46 v=64
21240 On ch=10 n=46 v=98
22560 Off ch=10 n=46 v=64
24720 On ch=10 n=46 v=98
26880 Off ch=10 n=46 v=64
28560 On ch=10 n=46 v=98
28800 Off ch=10 n=46 v=64
28800 On ch=10 n=46 v=98
32160 Off ch=10 n=46 v=64
32400 On ch=10 n=46 v=98
33600 Off ch=10 n=46 v=64
38400 On ch=10 n=46 v=98
41400 Off ch=10 n=46 v=64
42000 On ch=10 n=46 v=98
42240 Off ch=10 n=46 v=64
42240 On ch=10 n=46 v=98
45600 Off ch=10 n=46 v=64
46080 On ch=10 n=46 v=98
49440 Off ch=10 n=46 v=64
49680 On ch=10 n=46 v=98
50040 Off ch=10 n=46 v=64
50040 On ch=10 n=46 v=98
51360 Off ch=10 n=46 v=64
53520 On ch=10 n=46 v=98
54720 Off ch=10 n=46 v=64
57600 On ch=10 n=46 v=98
60480 Off ch=10 n=46 v=64
63360 On ch=10 n=46 v=98
65280 Off ch=10 n=46 v=64
65280 On ch=10 n=46 v=98
67200 Off ch=10 n=46 v=64
70800 On ch=10 n=46 v=104
71040 Off ch=10 n=46 v=64
74640 On ch=10 n=46 v=104
75480 Off ch=10 n=46 v=64
75600 On ch=10 n=46 v=104
76920 Off ch=10 n=46 v=64
77520 On ch=10 n=46 v=104
78720 Off ch=10 n=46 v=64
79440 On ch=10 n=46 v=104
81600 Off ch=10 n=46 v=64
83280 On ch=10 n=46 v=104
85440 Off ch=10 n=46 v=64
90000 On ch=10 n=46 v=104
90840 Off ch=10 n=46 v=64
90960 On ch=10 n=46 v=104
92280 Off ch=10 n=46 v=64
92880 On ch=10 n=46 v=104
94560 Off ch=10 n=46 v=64
94800 On ch=10 n=46 v=104
96480 Off ch=10 n=46 v=64
97920 On ch=10 n=46 v=104
98400 Off ch=10 n=46 v=64
103440 On ch=10 n=46 v=104
104280 Off ch=10 n=46 v=64
104400 On ch=10 n=46 v=104
105720 Off ch=10 n=46 v=64
106320 On ch=10 n=46 v=104
107760 Off ch=10 n=46 v=64
108240 On ch=10 n=46 v=104
110400 Off ch=10 n=46 v=64
112080 On ch=10 n=46 v=104
113760 Off ch=10 n=46 v=64
118800 On ch=10 n=46 v=104
119640 Off ch=10 n=46 v=64
119760 On ch=10 n=46 v=104
121320 Off ch=10 n=46 v=64
121680 On ch=10 n=46 v=104
123360 Off ch=10 n=46 v=64
123600 On ch=10 n=46 v=104
125160 Off ch=10 n=46 v=64
127440 On ch=10 n=46 v=104
129120 Off ch=10 n=46 v=64
131280 On ch=10 n=46 v=104
132480 Off ch=10 n=46 v=64
132480 On ch=10 n=46 v=104
133080 Off ch=10 n=46 v=64
133200 On ch=10 n=46 v=104
134520 Off ch=10 n=46 v=64
135120 On ch=10 n=46 v=104
136800 Off ch=10 n=46 v=64
137040 On ch=10 n=46 v=104
138720 Off ch=10 n=46 v=64
140880 On ch=10 n=46 v=104
142560 Off ch=10 n=46 v=64
147600 On ch=10 n=46 v=104
148440 Off ch=10 n=46 v=64
148560 On ch=10 n=46 v=104
149880 Off ch=10 n=46 v=64
150480 On ch=10 n=46 v=104
151680 Off ch=10 n=46 v=64
151680 On ch=10 n=46 v=104
152160 Off ch=10 n=46 v=64
152400 On ch=10 n=46 v=104
153960 Off ch=10 n=46 v=64
154320 On ch=10 n=46 v=104
156120 Off ch=10 n=46 v=64
159120 On ch=10 n=46 v=104
159960 Off ch=10 n=46 v=64
160080 On ch=10 n=46 v=104
161640 Off ch=10 n=46 v=64
162000 On ch=10 n=46 v=104
163680 Off ch=10 n=46 v=64
163920 On ch=10 n=46 v=104
165480 Off ch=10 n=46 v=64
167760 On ch=10 n=46 v=104
169440 Off ch=10 n=46 v=64
174480 On ch=10 n=46 v=104
175320 Off ch=10 n=46 v=64
175440 On ch=10 n=46 v=104
177000 Off ch=10 n=46 v=64
177360 On ch=10 n=46 v=104
178920 Off ch=10 n=46 v=64
179280 On ch=10 n=46 v=104
180840 Off ch=10 n=46 v=64
183120 On ch=10 n=46 v=104
184680 Off ch=10 n=46 v=64
189840 On ch=10 n=46 v=104
190680 Off ch=10 n=46 v=64
190800 On ch=10 n=46 v=104
192480 Off ch=10 n=46 v=64
192720 On ch=10 n=46 v=104
194280 Off ch=10 n=46 v=64
195600 On ch=10 n=46 v=104
196440 Off ch=10 n=46 v=64
196560 On ch=10 n=46 v=104
198000 Off ch=10 n=46 v=64
199440 On ch=10 n=46 v=104
200280 Off ch=10 n=46 v=64
200400 On ch=10 n=46 v=104
201840 Off ch=10 n=46 v=64
202320 On ch=10 n=46 v=104
203880 Off ch=10 n=46 v=64
204240 On ch=10 n=46 v=104
205680 Off ch=10 n=46 v=64
208080 On ch=10 n=46 v=104
209640 Off ch=10 n=46 v=64
214800 On ch=10 n=46 v=104
215640 Off ch=10 n=46 v=64
215760 On ch=10 n=46 v=104
217200 Off ch=10 n=46 v=64
217680 On ch=10 n=46 v=104
219240 Off ch=10 n=46 v=64
219600 On ch=10 n=46 v=104
221040 Off ch=10 n=46 v=64
223440 On ch=10 n=46 v=104
225000 Off ch=10 n=46 v=64
230160 On ch=10 n=46 v=104
231000 Off ch=10 n=46 v=64
231120 On ch=10 n=46 v=104
232680 Off ch=10 n=46 v=64
233040 On ch=10 n=46 v=104
234480 Off ch=10 n=46 v=64
234960 On ch=10 n=46 v=104
236400 Off ch=10 n=46 v=64
236880 On ch=10 n=46 v=104
238320 Off ch=10 n=46 v=64
238800 On ch=10 n=46 v=104
240360 Off ch=10 n=46 v=64
242640 On ch=10 n=46 v=104
244200 Off ch=10 n=46 v=64
251280 On ch=10 n=46 v=104
252120 Off ch=10 n=46 v=64
252240 On ch=10 n=46 v=104
253800 Off ch=10 n=46 v=64
254160 On ch=10 n=46 v=104
255840 Off ch=10 n=46 v=64
256080 On ch=10 n=46 v=104
257760 Off ch=10 n=46 v=64
259920 On ch=10 n=46 v=104
261600 Off ch=10 n=46 v=64
266640 On ch=10 n=46 v=104
267480 Off ch=10 n=46 v=64
267600 On ch=10 n=46 v=104
269160 Off ch=10 n=46 v=64
269520 On ch=10 n=46 v=104
271080 Off ch=10 n=46 v=64
271440 On ch=10 n=46 v=104
273000 Off ch=10 n=46 v=64
275280 On ch=10 n=46 v=104
276720 Off ch=10 n=46 v=64
282000 On ch=10 n=46 v=104
282840 Off ch=10 n=46 v=64
282960 On ch=10 n=46 v=104
284400 Off ch=10 n=46 v=64
284880 On ch=10 n=46 v=104
286200 Off ch=10 n=46 v=64
286800 On ch=10 n=46 v=104
288240 Off ch=10 n=46 v=64
291600 On ch=10 n=46 v=104
292440 Off ch=10 n=46 v=64
292560 On ch=10 n=46 v=104
293760 Off ch=10 n=46 v=64
297360 On ch=10 n=46 v=104
298200 Off ch=10 n=46 v=64
298320 On ch=10 n=46 v=104
299760 Off ch=10 n=46 v=64
300240 On ch=10 n=46 v=104
301800 Off ch=10 n=46 v=64
302160 On ch=10 n=46 v=104
303720 Off ch=10 n=46 v=64
306000 On ch=10 n=46 v=104
307560 Off ch=10 n=46 v=64
312720 On ch=10 n=46 v=104
313560 Off ch=10 n=46 v=64
313680 On ch=10 n=46 v=104
315120 Off ch=10 n=46 v=64
315600 On ch=10 n=46 v=104
317040 Off ch=10 n=46 v=64
317520 On ch=10 n=46 v=104
319080 Off ch=10 n=46 v=64
321360 On ch=10 n=46 v=104
322560 Off ch=10 n=46 v=64
322560 On ch=10 n=46 v=104
322680 Off ch=10 n=46 v=64
322800 On ch=10 n=46 v=104
322920 Off ch=10 n=46 v=64
323040 On ch=10 n=46 v=104
323160 Off ch=10 n=46 v=64
323280 On ch=10 n=46 v=104
323400 Off ch=10 n=46 v=64
323520 On ch=10 n=46 v=104
323640 Off ch=10 n=46 v=64
323760 On ch=10 n=46 v=104
323880 Off ch=10 n=46 v=64
324000 On ch=10 n=46 v=104
324120 Off ch=10 n=46 v=64
324240 On ch=10 n=46 v=104
324360 Off ch=10 n=46 v=64
324480 On ch=10 n=46 v=104
324600 Off ch=10 n=46 v=64
324720 On ch=10 n=46 v=104
324840 Off ch=10 n=46 v=64
324960 On ch=10 n=46 v=104
325080 Off ch=10 n=46 v=64
325200 On ch=10 n=46 v=104
325320 Off ch=10 n=46 v=64
325440 On ch=10 n=46 v=104
325560 Off ch=10 n=46 v=64
325680 On ch=10 n=46 v=104
325800 Off ch=10 n=46 v=64
325920 On ch=10 n=46 v=104
326040 Off ch=10 n=46 v=64
326160 On ch=10 n=46 v=104
326280 Off ch=10 n=46 v=64
326400 On ch=10 n=46 v=104
326520 Off ch=10 n=46 v=64
326640 On ch=10 n=46 v=104
326760 Off ch=10 n=46 v=64
326880 On ch=10 n=46 v=104
327000 Off ch=10 n=46 v=64
327120 On ch=10 n=46 v=104
327240 Off ch=10 n=46 v=64
327360 On ch=10 n=46 v=104
327480 Off ch=10 n=46 v=64
327600 On ch=10 n=46 v=104
327720 Off ch=10 n=46 v=64
327840 On ch=10 n=46 v=104
327960 Off ch=10 n=46 v=64
328080 On ch=10 n=46 v=104
328200 Off ch=10 n=46 v=64
328320 On ch=10 n=46 v=104
330960 Off ch=10 n=46 v=64
332160 On ch=10 n=46 v=121
334800 Off ch=10 n=46 v=64
336000 On ch=10 n=46 v=121
338640 Off ch=10 n=46 v=64
341640 On ch=10 n=46 v=121
341760 Off ch=10 n=46 v=64
343680 On ch=10 n=46 v=121
346320 Off ch=10 n=46 v=64
347520 On ch=10 n=46 v=121
350160 Off ch=10 n=46 v=64
351840 On ch=10 n=46 v=121
353160 Off ch=10 n=46 v=64
353760 On ch=10 n=46 v=121
354960 Off ch=10 n=46 v=64
355200 On ch=10 n=46 v=121
357840 Off ch=10 n=46 v=64
360960 On ch=10 n=46 v=121
362880 Off ch=10 n=46 v=64
362880 On ch=10 n=46 v=121
365520 Off ch=10 n=46 v=64
366480 On ch=10 n=46 v=121
366720 Off ch=10 n=46 v=64
366720 On ch=10 n=46 v=121
367800 Off ch=10 n=46 v=64
368400 On ch=10 n=46 v=121
368640 Off ch=10 n=46 v=64
368640 On ch=10 n=46 v=121
370560 Off ch=10 n=46 v=64
382080 Par ch=10 c=7 v=100
382080 Par ch=10 c=2 v=0
382080 Par ch=10 c=1 v=0
382080 ChPr ch=10 v=0
382080 Pb ch=10 v=8192
382080 PoPr ch=10 n=0 v=0
382080 Par ch=10 c=4 v=0
382080 Par ch=10 c=8 v=0
382080 Par ch=10 c=10 v=63
382080 Par ch=10 c=64 v=0
382080 Par ch=10 c=66 v=0
382080 Par ch=10 c=67 v=0
382080 Par ch=10 c=68 v=0
382080 Par ch=10 c=65 v=0
382080 Meta TrkEnd
TrkEnd
MTrk
0 Meta TrkName "Cymbals             "
0 Meta 0x21 00
0 Meta 0x20 09
0 Par ch=10 c=7 v=99
0 Par ch=10 c=10 v=64
0 PrCh ch=10 p=0
9600 On ch=10 n=49 v=95
12240 Off ch=10 n=49 v=64
13440 On ch=10 n=49 v=95
16080 Off ch=10 n=49 v=64
17280 On ch=10 n=49 v=95
20340 Off ch=10 n=49 v=64
28800 On ch=10 n=49 v=95
31440 Off ch=10 n=49 v=64
38400 On ch=10 n=49 v=95
41040 Off ch=10 n=49 v=64
42240 On ch=10 n=49 v=95
44880 Off ch=10 n=49 v=64
46080 On ch=10 n=49 v=95
48720 Off ch=10 n=49 v=64
57600 On ch=10 n=49 v=95
60240 Off ch=10 n=49 v=64
63360 On ch=10 n=49 v=95
65280 Off ch=10 n=49 v=64
65280 On ch=10 n=49 v=95
67200 Off ch=10 n=49 v=64
67200 On ch=10 n=49 v=94
68880 Off ch=10 n=49 v=64
71040 On ch=10 n=49 v=94
72720 Off ch=10 n=49 v=64
78740 On ch=10 n=49 v=94
80420 Off ch=10 n=49 v=64
86400 On ch=10 n=49 v=94
88080 Off ch=10 n=49 v=64
94100 On ch=10 n=49 v=94
95780 Off ch=10 n=49 v=64
98400 On ch=10 n=49 v=94
99840 Off ch=10 n=49 v=64
99840 On ch=10 n=49 v=94
101520 Off ch=10 n=49 v=64
101760 On ch=10 n=49 v=94
103440 Off ch=10 n=49 v=64
105600 On ch=10 n=49 v=94
107280 Off ch=10 n=49 v=64
107540 On ch=10 n=49 v=94
109220 Off ch=10 n=49 v=64
109440 On ch=10 n=49 v=94
111120 Off ch=10 n=49 v=64
115200 On ch=10 n=49 v=94
116880 Off ch=10 n=49 v=64
119040 On ch=10 n=49 v=94
120720 Off ch=10 n=49 v=64
122880 On ch=10 n=49 v=94
122900 Off ch=10 n=49 v=64
122900 On ch=10 n=49 v=94
124580 Off ch=10 n=49 v=64
126720 On ch=10 n=49 v=94
128400 Off ch=10 n=49 v=64
129120 On ch=10 n=49 v=94
130560 Off ch=10 n=49 v=64
130560 On ch=10 n=49 v=94
132240 Off ch=10 n=49 v=64
136340 On ch=10 n=49 v=94
138020 Off ch=10 n=49 v=64
142560 On ch=10 n=49 v=94
144000 Off ch=10 n=49 v=64
144000 On ch=10 n=49 v=94
145680 Off ch=10 n=49 v=64
145920 On ch=10 n=49 v=94
147600 Off ch=10 n=49 v=64
149760 On ch=10 n=49 v=94
151440 Off ch=10 n=49 v=64
155520 On ch=10 n=49 v=94
157200 Off ch=10 n=49 v=64
159360 On ch=10 n=49 v=94
161040 Off ch=10 n=49 v=64
163200 On ch=10 n=49 v=94
164880 Off ch=10 n=49 v=64
167020 On ch=10 n=49 v=94
168700 Off ch=10 n=49 v=64
169440 On ch=10 n=49 v=94
170880 Off ch=10 n=49 v=64
170880 On ch=10 n=49 v=94
172560 Off ch=10 n=49 v=64
174720 On ch=10 n=49 v=94
176400 Off ch=10 n=49 v=64
178560 On ch=10 n=49 v=94
180240 Off ch=10 n=49 v=64
182380 On ch=10 n=49 v=94
184060 Off ch=10 n=49 v=64
184800 On ch=10 n=49 v=94
186240 Off ch=10 n=49 v=64
186240 On ch=10 n=49 v=94
187920 Off ch=10 n=49 v=64
190080 On ch=10 n=49 v=94
191760 Off ch=10 n=49 v=64
203540 On ch=10 n=49 v=94
205220 Off ch=10 n=49 v=64
211200 On ch=10 n=49 v=94
212880 Off ch=10 n=49 v=64
218900 On ch=10 n=49 v=94
220580 Off ch=10 n=49 v=64
225120 On ch=10 n=49 v=94
226560 Off ch=10 n=49 v=64
226560 On ch=10 n=49 v=94
228240 Off ch=10 n=49 v=64
238100 On ch=10 n=49 v=94
239780 Off ch=10 n=49 v=64
245760 On ch=10 n=49 v=94
247440 Off ch=10 n=49 v=64
247680 On ch=10 n=49 v=94
249360 Off ch=10 n=49 v=64
251520 On ch=10 n=49 v=94
253200 Off ch=10 n=49 v=64
255360 On ch=10 n=49 v=94
255380 Off ch=10 n=49 v=64
255380 On ch=10 n=49 v=94
257060 Off ch=10 n=49 v=64
259200 On ch=10 n=49 v=94
260880 Off ch=10 n=49 v=64
261600 On ch=10 n=49 v=94
263040 Off ch=10 n=49 v=64
263040 On ch=10 n=49 v=94
264720 Off ch=10 n=49 v=64
266880 On ch=10 n=49 v=94
268560 Off ch=10 n=49 v=64
270720 On ch=10 n=49 v=94
272400 Off ch=10 n=49 v=64
274540 On ch=10 n=49 v=94
276220 Off ch=10 n=49 v=64
276960 On ch=10 n=49 v=94
278400 Off ch=10 n=49 v=64
278400 On ch=10 n=49 v=94
280080 Off ch=10 n=49 v=64
282240 On ch=10 n=49 v=94
283920 Off ch=10 n=49 v=64
286080 On ch=10 n=49 v=94
287760 Off ch=10 n=49 v=64
290400 On ch=10 n=49 v=94
292080 Off ch=10 n=49 v=64
292320 On ch=10 n=49 v=94
293760 Off ch=10 n=49 v=64
293760 On ch=10 n=49 v=94
295440 Off ch=10 n=49 v=64
297600 On ch=10 n=49 v=94
299280 Off ch=10 n=49 v=64
301440 On ch=10 n=49 v=94
303120 Off ch=10 n=49 v=64
305260 On ch=10 n=49 v=94
306940 Off ch=10 n=49 v=64
307680 On ch=10 n=49 v=94
309120 Off ch=10 n=49 v=64
309120 On ch=10 n=49 v=94
310800 Off ch=10 n=49 v=64
312960 On ch=10 n=49 v=94
314640 Off ch=10 n=49 v=64
316800 On ch=10 n=49 v=94
318480 Off ch=10 n=49 v=64
320620 On ch=10 n=49 v=94
320640 Off ch=10 n=49 v=64
320640 On ch=10 n=49 v=94
322320 Off ch=10 n=49 v=64
328320 On ch=10 n=49 v=101
330960 Off ch=10 n=49 v=64
332160 On ch=10 n=49 v=121
334800 Off ch=10 n=49 v=64
336000 On ch=10 n=49 v=121
338640 Off ch=10 n=49 v=64
339840 On ch=10 n=49 v=121
342480 Off ch=10 n=49 v=64
343680 On ch=10 n=49 v=121
346320 Off ch=10 n=49 v=64
347520 On ch=10 n=49 v=121
350160 Off ch=10 n=49 v=64
351360 On ch=10 n=49 v=121
354000 Off ch=10 n=49 v=64
355200 On ch=10 n=49 v=121
357840 Off ch=10 n=49 v=64
360960 On ch=10 n=49 v=121
362880 Off ch=10 n=49 v=64
362880 On ch=10 n=49 v=121
365520 Off ch=10 n=49 v=64
366720 On ch=10 n=49 v=121
367440 Off ch=10 n=49 v=64
368640 On ch=10 n=49 v=121
370560 Off ch=10 n=49 v=64
370560 On ch=10 n=49 v=121
372480 Off ch=10 n=49 v=64
376340 On ch=10 n=49 v=121
376360 Off ch=10 n=49 v=64
376360 On ch=10 n=49 v=121
376940 Off ch=10 n=49 v=64
376940 On ch=10 n=49 v=121
377420 Off ch=10 n=49 v=64
377420 On ch=10 n=49 v=121
377780 Off ch=10 n=49 v=64
377800 On ch=10 n=49 v=121
378120 Off ch=10 n=49 v=64
378120 On ch=10 n=49 v=121
378240 Off ch=10 n=49 v=64
378460 On ch=10 n=49 v=121
378700 Off ch=10 n=49 v=64
378700 On ch=10 n=49 v=121
378940 Off ch=10 n=49 v=64
378980 On ch=10 n=49 v=121
379220 Off ch=10 n=49 v=64
379220 On ch=10 n=49 v=121
379280 Off ch=10 n=49 v=64
379280 On ch=10 n=49 v=121
379400 Off ch=10 n=49 v=64
379420 On ch=10 n=49 v=121
380140 Off ch=10 n=49 v=64
382080 Par ch=10 c=7 v=100
382080 Par ch=10 c=2 v=0
382080 Par ch=10 c=1 v=0
382080 ChPr ch=10 v=0
382080 Pb ch=10 v=8192
382080 PoPr ch=10 n=0 v=0
382080 Par ch=10 c=4 v=0
382080 Par ch=10 c=8 v=0
382080 Par ch=10 c=10 v=63
382080 Par ch=10 c=64 v=0
382080 Par ch=10 c=66 v=0
382080 Par ch=10 c=67 v=0
382080 Par ch=10 c=68 v=0
382080 Par ch=10 c=65 v=0
382080 Meta TrkEnd
TrkEnd
MTrk
0 Meta TrkName "Odds & Ends         "
0 Meta 0x21 00
0 Meta 0x20 09
0 Par ch=10 c=7 v=99
0 Par ch=10 c=10 v=64
0 PrCh ch=10 p=0
78020 On ch=10 n=56 v=121
78080 Off ch=10 n=56 v=64
78440 On ch=10 n=56 v=121
78500 Off ch=10 n=56 v=64
89500 On ch=10 n=56 v=121
89580 Off ch=10 n=56 v=64
89980 On ch=10 n=56 v=121
90060 Off ch=10 n=56 v=64
101020 On ch=10 n=56 v=121
101100 Off ch=10 n=56 v=64
101500 On ch=10 n=56 v=121
101580 Off ch=10 n=56 v=64
115440 On ch=10 n=56 v=121
115500 Off ch=10 n=56 v=64
115920 On ch=10 n=56 v=121
116000 Off ch=10 n=56 v=64
116400 On ch=10 n=56 v=121
116480 Off ch=10 n=56 v=64
116880 On ch=10 n=56 v=121
116960 Off ch=10 n=56 v=64
117360 On ch=10 n=56 v=121
117440 Off ch=10 n=56 v=64
117840 On ch=10 n=56 v=121
117900 Off ch=10 n=56 v=64
118320 On ch=10 n=56 v=121
118400 Off ch=10 n=56 v=64
118800 On ch=10 n=56 v=121
118860 Off ch=10 n=56 v=64
119280 On ch=10 n=56 v=121
119340 Off ch=10 n=56 v=64
119760 On ch=10 n=56 v=121
119820 Off ch=10 n=56 v=64
120240 On ch=10 n=56 v=121
120300 Off ch=10 n=56 v=64
120720 On ch=10 n=56 v=121
120800 Off ch=10 n=56 v=64
121200 On ch=10 n=56 v=121
121260 Off ch=10 n=56 v=64
121680 On ch=10 n=56 v=121
121760 Off ch=10 n=56 v=64
122160 On ch=10 n=56 v=121
122240 Off ch=10 n=56 v=64
122640 On ch=10 n=56 v=121
122642 Off ch=10 n=56 v=64
123120 On ch=10 n=56 v=121
123180 Off ch=10 n=56 v=64
123600 On ch=10 n=56 v=121
123680 Off ch=10 n=56 v=64
124080 On ch=10 n=56 v=121
124140 Off ch=10 n=56 v=64
124560 On ch=10 n=56 v=121
124620 Off ch=10 n=56 v=64
125040 On ch=10 n=56 v=121
125120 Off ch=10 n=56 v=64
125520 On ch=10 n=56 v=121
125580 Off ch=10 n=56 v=64
126000 On ch=10 n=56 v=121
126080 Off ch=10 n=56 v=64
126480 On ch=10 n=56 v=121
126540 Off ch=10 n=56 v=64
126960 On ch=10 n=56 v=121
127020 Off ch=10 n=56 v=64
127440 On ch=10 n=56 v=121
127520 Off ch=10 n=56 v=64
127920 On ch=10 n=56 v=121
127980 Off ch=10 n=56 v=64
128400 On ch=10 n=56 v=121
128460 Off ch=10 n=56 v=64
128640 On ch=10 n=56 v=121
128720 Off ch=10 n=56 v=64
128880 On ch=10 n=56 v=121
128960 Off ch=10 n=56 v=64
129120 On ch=10 n=56 v=121
129200 Off ch=10 n=56 v=64
129360 On ch=10 n=56 v=121
129440 Off ch=10 n=56 v=64
129600 On ch=10 n=56 v=121
129680 Off ch=10 n=56 v=64
129840 On ch=10 n=56 v=121
129920 Off ch=10 n=56 v=64
130080 On ch=10 n=56 v=121
130160 Off ch=10 n=56 v=64
130320 On ch=10 n=56 v=121
130400 Off ch=10 n=56 v=64
130800 On ch=10 n=56 v=121
130860 Off ch=10 n=56 v=64
131280 On ch=10 n=56 v=121
131360 Off ch=10 n=56 v=64
131760 On ch=10 n=56 v=121
131820 Off ch=10 n=56 v=64
132240 On ch=10 n=56 v=121
132300 Off ch=10 n=56 v=64
145180 On ch=10 n=56 v=121
145260 Off ch=10 n=56 v=64
145660 On ch=10 n=56 v=121
145740 Off ch=10 n=56 v=64
152920 On ch=10 n=56 v=121
152980 Off ch=10 n=56 v=64
153380 On ch=10 n=56 v=121
153440 Off ch=10 n=56 v=64
154840 On ch=10 n=56 v=121
154900 Off ch=10 n=56 v=64
155300 On ch=10 n=56 v=121
155360 Off ch=10 n=56 v=64
158680 On ch=10 n=56 v=121
158760 Off ch=10 n=56 v=64
159140 On ch=10 n=56 v=121
159200 Off ch=10 n=56 v=64
162520 On ch=10 n=56 v=121
162580 Off ch=10 n=56 v=64
162980 On ch=10 n=56 v=121
163040 Off ch=10 n=56 v=64
166360 On ch=10 n=56 v=121
166440 Off ch=10 n=56 v=64
166780 On ch=10 n=56 v=121
166860 Off ch=10 n=56 v=64
174040 On ch=10 n=56 v=121
174120 Off ch=10 n=56 v=64
174500 On ch=10 n=56 v=121
174560 Off ch=10 n=56 v=64
177880 On ch=10 n=56 v=121
177940 Off ch=10 n=56 v=64
178340 On ch=10 n=56 v=121
178400 Off ch=10 n=56 v=64
181720 On ch=10 n=56 v=121
181800 Off ch=10 n=56 v=64
182140 On ch=10 n=56 v=121
182220 Off ch=10 n=56 v=64
189400 On ch=10 n=56 v=121
189480 Off ch=10 n=56 v=64
189860 On ch=10 n=56 v=121
189920 Off ch=10 n=56 v=64
193240 On ch=10 n=56 v=121
193300 Off ch=10 n=56 v=64
193700 On ch=10 n=56 v=121
193760 Off ch=10 n=56 v=64
197080 On ch=10 n=56 v=121
197140 Off ch=10 n=56 v=64
197540 On ch=10 n=56 v=121
197600 Off ch=10 n=56 v=64
202820 On ch=10 n=56 v=121
202880 Off ch=10 n=56 v=64
203240 On ch=10 n=56 v=121
203360 Off ch=10 n=56 v=64
203760 On ch=10 n=56 v=121
203820 Off ch=10 n=56 v=64
204240 On ch=10 n=56 v=121
204320 Off ch=10 n=56 v=64
204720 On ch=10 n=56 v=121
204780 Off ch=10 n=56 v=64
205200 On ch=10 n=56 v=121
205260 Off ch=10 n=56 v=64
205680 On ch=10 n=56 v=121
205740 Off ch=10 n=56 v=64
206160 On ch=10 n=56 v=121
206240 Off ch=10 n=56 v=64
206640 On ch=10 n=56 v=121
206700 Off ch=10 n=56 v=64
207120 On ch=10 n=56 v=121
207180 Off ch=10 n=56 v=64
207600 On ch=10 n=56 v=121
207660 Off ch=10 n=56 v=64
208080 On ch=10 n=56 v=121
208160 Off ch=10 n=56 v=64
208560 On ch=10 n=56 v=121
208620 Off ch=10 n=56 v=64
209040 On ch=10 n=56 v=121
209100 Off ch=10 n=56 v=64
209520 On ch=10 n=56 v=121
209580 Off ch=10 n=56 v=64
210000 On ch=10 n=56 v=121
210080 Off ch=10 n=56 v=64
210480 On ch=10 n=56 v=121
210540 Off ch=10 n=56 v=64
210960 On ch=10 n=56 v=121
211020 Off ch=10 n=56 v=64
211440 On ch=10 n=56 v=121
211500 Off ch=10 n=56 v=64
211920 On ch=10 n=56 v=121
212000 Off ch=10 n=56 v=64
212400 On ch=10 n=56 v=121
212460 Off ch=10 n=56 v=64
212880 On ch=10 n=56 v=121
212940 Off ch=10 n=56 v=64
214300 On ch=10 n=56 v=121
214420 Off ch=10 n=56 v=64
214780 On ch=10 n=56 v=121
214900 Off ch=10 n=56 v=64
215280 On ch=10 n=56 v=121
215340 Off ch=10 n=56 v=64
215760 On ch=10 n=56 v=121
215840 Off ch=10 n=56 v=64
216240 On ch=10 n=56 v=121
216300 Off ch=10 n=56 v=64
216720 On ch=10 n=56 v=121
216780 Off ch=10 n=56 v=64
217200 On ch=10 n=56 v=121
217260 Off ch=10 n=56 v=64
217680 On ch=10 n=56 v=121
217760 Off ch=10 n=56 v=64
218160 On ch=10 n=56 v=121
218220 Off ch=10 n=56 v=64
218640 On ch=10 n=56 v=121
218700 Off ch=10 n=56 v=64
219120 On ch=10 n=56 v=121
219180 Off ch=10 n=56 v=64
219600 On ch=10 n=56 v=121
219680 Off ch=10 n=56 v=64
220080 On ch=10 n=56 v=121
220140 Off ch=10 n=56 v=64
220560 On ch=10 n=56 v=121
220620 Off ch=10 n=56 v=64
221040 On ch=10 n=56 v=121
221100 Off ch=10 n=56 v=64
221520 On ch=10 n=56 v=121
221600 Off ch=10 n=56 v=64
222000 On ch=10 n=56 v=121
222060 Off ch=10 n=56 v=64
222480 On ch=10 n=56 v=121
222540 Off ch=10 n=56 v=64
222960 On ch=10 n=56 v=121
223020 Off ch=10 n=56 v=64
223440 On ch=10 n=56 v=121
223520 Off ch=10 n=56 v=64
223920 On ch=10 n=56 v=121
223980 Off ch=10 n=56 v=64
224400 On ch=10 n=56 v=121
224460 Off ch=10 n=56 v=64
224880 On ch=10 n=56 v=121
224940 Off ch=10 n=56 v=64
225360 On ch=10 n=56 v=121
225440 Off ch=10 n=56 v=64
225840 On ch=10 n=56 v=121
225900 Off ch=10 n=56 v=64
226320 On ch=10 n=56 v=121
226380 Off ch=10 n=56 v=64
226800 On ch=10 n=56 v=121
226860 Off ch=10 n=56 v=64
227280 On ch=10 n=56 v=121
227360 Off ch=10 n=56 v=64
227760 On ch=10 n=56 v=121
227820 Off ch=10 n=56 v=64
228240 On ch=10 n=56 v=121
228300 Off ch=10 n=56 v=64
228720 On ch=10 n=56 v=121
228780 Off ch=10 n=56 v=64
229200 On ch=10 n=56 v=121
229280 Off ch=10 n=56 v=64
229680 On ch=10 n=56 v=121
229740 Off ch=10 n=56 v=64
230160 On ch=10 n=56 v=121
230220 Off ch=10 n=56 v=64
230640 On ch=10 n=56 v=121
230700 Off ch=10 n=56 v=64
231120 On ch=10 n=56 v=121
231200 Off ch=10 n=56 v=64
231600 On ch=10 n=56 v=121
231660 Off ch=10 n=56 v=64
232080 On ch=10 n=56 v=121
232140 Off ch=10 n=56 v=64
233540 On ch=10 n=56 v=121
233600 Off ch=10 n=56 v=64
233960 On ch=10 n=56 v=121
234080 Off ch=10 n=56 v=64
237380 On ch=10 n=56 v=121
237500 Off ch=10 n=56 v=64
237800 On ch=10 n=56 v=121
237920 Off ch=10 n=56 v=64
238320 On ch=10 n=56 v=121
238380 Off ch=10 n=56 v=64
238800 On ch=10 n=56 v=121
238880 Off ch=10 n=56 v=64
239280 On ch=10 n=56 v=121
239340 Off ch=10 n=56 v=64
239760 On ch=10 n=56 v=121
239820 Off ch=10 n=56 v=64
240240 On ch=10 n=56 v=121
240300 Off ch=10 n=56 v=64
240720 On ch=10 n=56 v=121
240800 Off ch=10 n=56 v=64
241200 On ch=10 n=56 v=121
241260 Off ch=10 n=56 v=64
241680 On ch=10 n=56 v=121
241740 Off ch=10 n=56 v=64
242160 On ch=10 n=56 v=121
242220 Off ch=10 n=56 v=64
242640 On ch=10 n=56 v=121
242720 Off ch=10 n=56 v=64
243120 On ch=10 n=56 v=121
243180 Off ch=10 n=56 v=64
243600 On ch=10 n=56 v=121
243660 Off ch=10 n=56 v=64
244080 On ch=10 n=56 v=121
244140 Off ch=10 n=56 v=64
244560 On ch=10 n=56 v=121
244640 Off ch=10 n=56 v=64
245040 On ch=10 n=56 v=121
245100 Off ch=10 n=56 v=64
245520 On ch=10 n=56 v=121
245580 Off ch=10 n=56 v=64
246000 On ch=10 n=56 v=121
246120 Off ch=10 n=56 v=64
246480 On ch=10 n=56 v=121
246600 Off ch=10 n=56 v=64
246960 On ch=10 n=56 v=121
247080 Off ch=10 n=56 v=64
247440 On ch=10 n=56 v=121
247560 Off ch=10 n=56 v=64
247920 On ch=10 n=56 v=121
248040 Off ch=10 n=56 v=64
248400 On ch=10 n=56 v=121
248520 Off ch=10 n=56 v=64
248880 On ch=10 n=56 v=121
249000 Off ch=10 n=56 v=64
249360 On ch=10 n=56 v=121
249480 Off ch=10 n=56 v=64
249840 On ch=10 n=56 v=121
249960 Off ch=10 n=56 v=64
250320 On ch=10 n=56 v=121
250440 Off ch=10 n=56 v=64
250800 On ch=10 n=56 v=121
250920 Off ch=10 n=56 v=64
251280 On ch=10 n=56 v=121
251400 Off ch=10 n=56 v=64
251760 On ch=10 n=56 v=121
251880 Off ch=10 n=56 v=64
252240 On ch=10 n=56 v=121
252360 Off ch=10 n=56 v=64
252720 On ch=10 n=56 v=121
252840 Off ch=10 n=56 v=64
253200 On ch=10 n=56 v=121
253320 Off ch=10 n=56 v=64
253680 On ch=10 n=56 v=121
253800 Off ch=10 n=56 v=64
254160 On ch=10 n=56 v=121
254280 Off ch=10 n=56 v=64
254640 On ch=10 n=56 v=121
254760 Off ch=10 n=56 v=64
255120 On ch=10 n=56 v=121
255240 Off ch=10 n=56 v=64
255600 On ch=10 n=56 v=121
255720 Off ch=10 n=56 v=64
256080 On ch=10 n=56 v=121
256200 Off ch=10 n=56 v=64
256560 On ch=10 n=56 v=121
256680 Off ch=10 n=56 v=64
257040 On ch=10 n=56 v=121
257160 Off ch=10 n=56 v=64
257520 On ch=10 n=56 v=121
257640 Off ch=10 n=56 v=64
258000 On ch=10 n=56 v=121
258120 Off ch=10 n=56 v=64
258480 On ch=10 n=56 v=121
258600 Off ch=10 n=56 v=64
258960 On ch=10 n=56 v=121
259080 Off ch=10 n=56 v=64
259440 On ch=10 n=56 v=121
259560 Off ch=10 n=56 v=64
259920 On ch=10 n=56 v=121
260040 Off ch=10 n=56 v=64
260400 On ch=10 n=56 v=121
260520 Off ch=10 n=56 v=64
260880 On ch=10 n=56 v=121
261000 Off ch=10 n=56 v=64
261120 On ch=10 n=56 v=121
261240 Off ch=10 n=56 v=64
261360 On ch=10 n=56 v=121
261480 Off ch=10 n=56 v=64
261600 On ch=10 n=56 v=121
261720 Off ch=10 n=56 v=64
261840 On ch=10 n=56 v=121
261960 Off ch=10 n=56 v=64
262080 On ch=10 n=56 v=121
262200 Off ch=10 n=56 v=64
262320 On ch=10 n=56 v=121
262440 Off ch=10 n=56 v=64
262560 On ch=10 n=56 v=121
262680 Off ch=10 n=56 v=64
262800 On ch=10 n=56 v=121
262920 Off ch=10 n=56 v=64
263280 On ch=10 n=56 v=121
263340 Off ch=10 n=56 v=64
263760 On ch=10 n=56 v=121
263840 Off ch=10 n=56 v=64
264240 On ch=10 n=56 v=121
264300 Off ch=10 n=56 v=64
264720 On ch=10 n=56 v=121
264780 Off ch=10 n=56 v=64
266200 On ch=10 n=56 v=121
266320 Off ch=10 n=56 v=64
266660 On ch=10 n=56 v=121
266780 Off ch=10 n=56 v=64
267120 On ch=10 n=56 v=121
267180 Off ch=10 n=56 v=64
267600 On ch=10 n=56 v=121
267680 Off ch=10 n=56 v=64
268080 On ch=10 n=56 v=121
268140 Off ch=10 n=56 v=64
268560 On ch=10 n=56 v=121
268620 Off ch=10 n=56 v=64
270040 On ch=10 n=56 v=121
270160 Off ch=10 n=56 v=64
270500 On ch=10 n=56 v=121
270620 Off ch=10 n=56 v=64
270960 On ch=10 n=56 v=121
271020 Off ch=10 n=56 v=64
271440 On ch=10 n=56 v=121
271520 Off ch=10 n=56 v=64
271920 On ch=10 n=56 v=121
271980 Off ch=10 n=56 v=64
272400 On ch=10 n=56 v=121
272460 Off ch=10 n=56 v=64
273880 On ch=10 n=56 v=121
274000 Off ch=10 n=56 v=64
274300 On ch=10 n=56 v=121
274420 Off ch=10 n=56 v=64
274800 On ch=10 n=56 v=121
274860 Off ch=10 n=56 v=64
275280 On ch=10 n=56 v=121
275360 Off ch=10 n=56 v=64
275760 On ch=10 n=56 v=121
275820 Off ch=10 n=56 v=64
276240 On ch=10 n=56 v=121
276300 Off ch=10 n=56 v=64
276720 On ch=10 n=56 v=121
276780 Off ch=10 n=56 v=64
277200 On ch=10 n=56 v=121
277280 Off ch=10 n=56 v=64
277680 On ch=10 n=56 v=121
277740 Off ch=10 n=56 v=64
278160 On ch=10 n=56 v=121
278220 Off ch=10 n=56 v=64
278640 On ch=10 n=56 v=121
278700 Off ch=10 n=56 v=64
279120 On ch=10 n=56 v=121
279200 Off ch=10 n=56 v=64
279600 On ch=10 n=56 v=121
279660 Off ch=10 n=56 v=64
280080 On ch=10 n=56 v=121
280140 Off ch=10 n=56 v=64
281560 On ch=10 n=56 v=121
281680 Off ch=10 n=56 v=64
282020 On ch=10 n=56 v=121
282140 Off ch=10 n=56 v=64
282480 On ch=10 n=56 v=121
282540 Off ch=10 n=56 v=64
282960 On ch=10 n=56 v=121
283040 Off ch=10 n=56 v=64
283440 On ch=10 n=56 v=121
283500 Off ch=10 n=56 v=64
283920 On ch=10 n=56 v=121
283980 Off ch=10 n=56 v=64
285400 On ch=10 n=56 v=121
285520 Off ch=10 n=56 v=64
285860 On ch=10 n=56 v=121
285980 Off ch=10 n=56 v=64
286320 On ch=10 n=56 v=121
286380 Off ch=10 n=56 v=64
286800 On ch=10 n=56 v=121
286880 Off ch=10 n=56 v=64
287280 On ch=10 n=56 v=121
287340 Off ch=10 n=56 v=64
287760 On ch=10 n=56 v=121
287820 Off ch=10 n=56 v=64
289240 On ch=10 n=56 v=121
289360 Off ch=10 n=56 v=64
289660 On ch=10 n=56 v=121
289780 Off ch=10 n=56 v=64
290160 On ch=10 n=56 v=121
290220 Off ch=10 n=56 v=64
290640 On ch=10 n=56 v=121
290720 Off ch=10 n=56 v=64
291120 On ch=10 n=56 v=121
291180 Off ch=10 n=56 v=64
291600 On ch=10 n=56 v=121
291660 Off ch=10 n=56 v=64
292080 On ch=10 n=56 v=121
292140 Off ch=10 n=56 v=64
292560 On ch=10 n=56 v=121
292640 Off ch=10 n=56 v=64
293040 On ch=10 n=56 v=121
293100 Off ch=10 n=56 v=64
293520 On ch=10 n=56 v=121
293580 Off ch=10 n=56 v=64
294000 On ch=10 n=56 v=121
294060 Off ch=10 n=56 v=64
294480 On ch=10 n=56 v=121
294560 Off ch=10 n=56 v=64
294960 On ch=10 n=56 v=121
295020 Off ch=10 n=56 v=64
295440 On ch=10 n=56 v=121
295500 Off ch=10 n=56 v=64
296920 On ch=10 n=56 v=121
297040 Off ch=10 n=56 v=64
297380 On ch=10 n=56 v=121
297500 Off ch=10 n=56 v=64
297840 On ch=10 n=56 v=121
297960 Off ch=10 n=56 v=64
298320 On ch=10 n=56 v=121
298440 Off ch=10 n=56 v=64
298800 On ch=10 n=56 v=121
298920 Off ch=10 n=56 v=64
299280 On ch=10 n=56 v=121
299400 Off ch=10 n=56 v=64
300760 On ch=10 n=56 v=121
300880 Off ch=10 n=56 v=64
301220 On ch=10 n=56 v=121
301340 Off ch=10 n=56 v=64
301680 On ch=10 n=56 v=121
301800 Off ch=10 n=56 v=64
302160 On ch=10 n=56 v=121
302280 Off ch=10 n=56 v=64
302640 On ch=10 n=56 v=121
302760 Off ch=10 n=56 v=64
303120 On ch=10 n=56 v=121
303240 Off ch=10 n=56 v=64
304600 On ch=10 n=56 v=121
304720 Off ch=10 n=56 v=64
305020 On ch=10 n=56 v=121
305140 Off ch=10 n=56 v=64
305520 On ch=10 n=56 v=121
305640 Off ch=10 n=56 v=64
306000 On ch=10 n=56 v=121
306120 Off ch=10 n=56 v=64
306480 On ch=10 n=56 v=121
306600 Off ch=10 n=56 v=64
306960 On ch=10 n=56 v=121
307080 Off ch=10 n=56 v=64
307440 On ch=10 n=56 v=121
307560 Off ch=10 n=56 v=64
307920 On ch=10 n=56 v=121
308040 Off ch=10 n=56 v=64
308400 On ch=10 n=56 v=121
308520 Off ch=10 n=56 v=64
308880 On ch=10 n=56 v=121
309000 Off ch=10 n=56 v=64
309360 On ch=10 n=56 v=121
309480 Off ch=10 n=56 v=64
309840 On ch=10 n=56 v=121
309960 Off ch=10 n=56 v=64
310320 On ch=10 n=56 v=121
310440 Off ch=10 n=56 v=64
310800 On ch=10 n=56 v=121
310920 Off ch=10 n=56 v=64
311280 On ch=10 n=56 v=121
311400 Off ch=10 n=56 v=64
311760 On ch=10 n=56 v=121
311880 Off ch=10 n=56 v=64
312240 On ch=10 n=56 v=121
312360 Off ch=10 n=56 v=64
312720 On ch=10 n=56 v=121
312840 Off ch=10 n=56 v=64
313200 On ch=10 n=56 v=121
313320 Off ch=10 n=56 v=64
313680 On ch=10 n=56 v=121
313800 Off ch=10 n=56 v=64
314160 On ch=10 n=56 v=121
314280 Off ch=10 n=56 v=64
314640 On ch=10 n=56 v=121
314760 Off ch=10 n=56 v=64
315120 On ch=10 n=56 v=121
315240 Off ch=10 n=56 v=64
315600 On ch=10 n=56 v=121
315720 Off ch=10 n=56 v=64
316080 On ch=10 n=56 v=121
316200 Off ch=10 n=56 v=64
316560 On ch=10 n=56 v=121
316680 Off ch=10 n=56 v=64
317040 On ch=10 n=56 v=121
317160 Off ch=10 n=56 v=64
317520 On ch=10 n=56 v=121
317640 Off ch=10 n=56 v=64
318000 On ch=10 n=56 v=121
318120 Off ch=10 n=56 v=64
318480 On ch=10 n=56 v=121
318600 Off ch=10 n=56 v=64
318960 On ch=10 n=56 v=121
319080 Off ch=10 n=56 v=64
319440 On ch=10 n=56 v=121
319560 Off ch=10 n=56 v=64
319920 On ch=10 n=56 v=121
320040 Off ch=10 n=56 v=64
320400 On ch=10 n=56 v=121
320520 Off ch=10 n=56 v=64
320880 On ch=10 n=56 v=121
321000 Off ch=10 n=56 v=64
321360 On ch=10 n=56 v=121
321480 Off ch=10 n=56 v=64
321840 On ch=10 n=56 v=121
321960 Off ch=10 n=56 v=64
322320 On ch=10 n=56 v=121
322440 Off ch=10 n=56 v=64
322560 On ch=10 n=56 v=121
322680 Off ch=10 n=56 v=64
322800 On ch=10 n=56 v=121
322920 Off ch=10 n=56 v=64
323040 On ch=10 n=56 v=121
323160 Off ch=10 n=56 v=64
323280 On ch=10 n=56 v=121
323400 Off ch=10 n=56 v=64
323520 On ch=10 n=56 v=121
323640 Off ch=10 n=56 v=64
323760 On ch=10 n=56 v=121
323880 Off ch=10 n=56 v=64
324000 On ch=10 n=56 v=121
324120 Off ch=10 n=56 v=64
324240 On ch=10 n=56 v=121
324360 Off ch=10 n=56 v=64
324720 On ch=10 n=56 v=121
324840 Off ch=10 n=56 v=64
325200 On ch=10 n=56 v=121
325320 Off ch=10 n=56 v=64
325680 On ch=10 n=56 v=121
325800 Off ch=10 n=56 v=64
326160 On ch=10 n=56 v=121
326280 Off ch=10 n=56 v=64
326640 On ch=10 n=56 v=121
326760 Off ch=10 n=56 v=64
327120 On ch=10 n=56 v=121
327240 Off ch=10 n=56 v=64
327600 On ch=10 n=56 v=121
327720 Off ch=10 n=56 v=64
328080 On ch=10 n=56 v=121
328200 Off ch=10 n=56 v=64
328560 On ch=10 n=56 v=121
328680 Off ch=10 n=56 v=64
329040 On ch=10 n=56 v=121
329160 Off ch=10 n=56 v=64
329520 On ch=10 n=56 v=121
329640 Off ch=10 n=56 v=64
330000 On ch=10 n=56 v=121
330120 Off ch=10 n=56 v=64
330480 On ch=10 n=56 v=121
330600 Off ch=10 n=56 v=64
330960 On ch=10 n=56 v=121
331080 Off ch=10 n=56 v=64
331440 On ch=10 n=56 v=121
331560 Off ch=10 n=56 v=64
331920 On ch=10 n=56 v=121
332040 Off ch=10 n=56 v=64
332400 On ch=10 n=56 v=121
332520 Off ch=10 n=56 v=64
332880 On ch=10 n=56 v=121
333000 Off ch=10 n=56 v=64
333360 On ch=10 n=56 v=121
333480 Off ch=10 n=56 v=64
333840 On ch=10 n=56 v=121
333960 Off ch=10 n=56 v=64
334320 On ch=10 n=56 v=121
334440 Off ch=10 n=56 v=64
334800 On ch=10 n=56 v=121
334920 Off ch=10 n=56 v=64
335280 On ch=10 n=56 v=121
335400 Off ch=10 n=56 v=64
335760 On ch=10 n=56 v=121
335880 Off ch=10 n=56 v=64
336240 On ch=10 n=56 v=121
336360 Off ch=10 n=56 v=64
336720 On ch=10 n=56 v=121
336840 Off ch=10 n=56 v=64
337200 On ch=10 n=56 v=121
337320 Off ch=10 n=56 v=64
337680 On ch=10 n=56 v=121
337800 Off ch=10 n=56 v=64
338160 On ch=10 n=56 v=121
338280 Off ch=10 n=56 v=64
338640 On ch=10 n=56 v=121
338760 Off ch=10 n=56 v=64
339120 On ch=10 n=56 v=121
339240 Off ch=10 n=56 v=64
339600 On ch=10 n=56 v=121
339720 Off ch=10 n=56 v=64
340080 On ch=10 n=56 v=121
340200 Off ch=10 n=56 v=64
340560 On ch=10 n=56 v=121
340680 Off ch=10 n=56 v=64
341040 On ch=10 n=56 v=121
341160 Off ch=10 n=56 v=64
341520 On ch=10 n=56 v=121
341640 Off ch=10 n=56 v=64
342000 On ch=10 n=56 v=121
342120 Off ch=10 n=56 v=64
342480 On ch=10 n=56 v=121
342600 Off ch=10 n=56 v=64
342960 On ch=10 n=56 v=121
343080 Off ch=10 n=56 v=64
343440 On ch=10 n=56 v=121
343560 Off ch=10 n=56 v=64
343920 On ch=10 n=56 v=121
344040 Off ch=10 n=56 v=64
344400 On ch=10 n=56 v=121
344520 Off ch=10 n=56 v=64
344880 On ch=10 n=56 v=121
345000 Off ch=10 n=56 v=64
345360 On ch=10 n=56 v=121
345480 Off ch=10 n=56 v=64
345840 On ch=10 n=56 v=121
345960 Off ch=10 n=56 v=64
346320 On ch=10 n=56 v=121
346440 Off ch=10 n=56 v=64
346800 On ch=10 n=56 v=121
346920 Off ch=10 n=56 v=64
347280 On ch=10 n=56 v=121
347400 Off ch=10 n=56 v=64
347760 On ch=10 n=56 v=121
347880 Off ch=10 n=56 v=64
348240 On ch=10 n=56 v=121
348360 Off ch=10 n=56 v=64
348720 On ch=10 n=56 v=121
348840 Off ch=10 n=56 v=64
349200 On ch=10 n=56 v=121
349320 Off ch=10 n=56 v=64
349680 On ch=10 n=56 v=121
349800 Off ch=10 n=56 v=64
350160 On ch=10 n=56 v=121
350280 Off ch=10 n=56 v=64
350640 On ch=10 n=56 v=121
350760 Off ch=10 n=56 v=64
351120 On ch=10 n=56 v=121
351240 Off ch=10 n=56 v=64
351600 On ch=10 n=56 v=121
351720 Off ch=10 n=56 v=64
352080 On ch=10 n=56 v=121
352200 Off ch=10 n=56 v=64
352560 On ch=10 n=56 v=121
352680 Off ch=10 n=56 v=64
353040 On ch=10 n=56 v=121
353160 Off ch=10 n=56 v=64
353520 On ch=10 n=56 v=121
353640 Off ch=10 n=56 v=64
354000 On ch=10 n=56 v=121
354120 Off ch=10 n=56 v=64
354480 On ch=10 n=56 v=121
354600 Off ch=10 n=56 v=64
354960 On ch=10 n=56 v=121
355080 Off ch=10 n=56 v=64
355440 On ch=10 n=56 v=121
355560 Off ch=10 n=56 v=64
355920 On ch=10 n=56 v=121
356040 Off ch=10 n=56 v=64
356400 On ch=10 n=56 v=121
356520 Off ch=10 n=56 v=64
356880 On ch=10 n=56 v=121
357000 Off ch=10 n=56 v=64
357360 On ch=10 n=56 v=121
357480 Off ch=10 n=56 v=64
357840 On ch=10 n=56 v=121
357960 Off ch=10 n=56 v=64
358320 On ch=10 n=56 v=121
358440 Off ch=10 n=56 v=64
358800 On ch=10 n=56 v=121
358920 Off ch=10 n=56 v=64
359280 On ch=10 n=56 v=121
359400 Off ch=10 n=56 v=64
359760 On ch=10 n=56 v=121
359880 Off ch=10 n=56 v=64
360240 On ch=10 n=56 v=121
360360 Off ch=10 n=56 v=64
360720 On ch=10 n=56 v=121
360840 Off ch=10 n=56 v=64
361200 On ch=10 n=56 v=121
361320 Off ch=10 n=56 v=64
361680 On ch=10 n=56 v=121
361800 Off ch=10 n=56 v=64
362160 On ch=10 n=56 v=121
362280 Off ch=10 n=56 v=64
362640 On ch=10 n=56 v=121
362760 Off ch=10 n=56 v=64
363120 On ch=10 n=56 v=121
363240 Off ch=10 n=56 v=64
363600 On ch=10 n=56 v=121
363720 Off ch=10 n=56 v=64
364080 On ch=10 n=56 v=121
364200 Off ch=10 n=56 v=64
364560 On ch=10 n=56 v=121
364680 Off ch=10 n=56 v=64
365040 On ch=10 n=56 v=121
365160 Off ch=10 n=56 v=64
365520 On ch=10 n=56 v=121
365640 Off ch=10 n=56 v=64
366000 On ch=10 n=56 v=121
366120 Off ch=10 n=56 v=64
366480 On ch=10 n=56 v=121
366600 Off ch=10 n=56 v=64
366960 On ch=10 n=56 v=121
367080 Off ch=10 n=56 v=64
367440 On ch=10 n=56 v=121
367560 Off ch=10 n=56 v=64
367920 On ch=10 n=56 v=121
368040 Off ch=10 n=56 v=64
368400 On ch=10 n=56 v=121
368520 Off ch=10 n=56 v=64
368880 On ch=10 n=56 v=121
369000 Off ch=10 n=56 v=64
369360 On ch=10 n=56 v=121
369480 Off ch=10 n=56 v=64
369840 On ch=10 n=56 v=121
369960 Off ch=10 n=56 v=64
370320 On ch=10 n=56 v=121
370440 Off ch=10 n=56 v=64
370560 On ch=10 n=54 v=121
370800 Off ch=10 n=54 v=64
370800 On ch=10 n=56 v=121
370800 On ch=10 n=39 v=121
370800 On ch=10 n=51 v=121
370920 Off ch=10 n=51 v=64
370920 Off ch=10 n=56 v=64
371040 Off ch=10 n=39 v=64
371040 On ch=10 n=51 v=121
371040 On ch=10 n=54 v=121
371160 Off ch=10 n=51 v=64
371280 Off ch=10 n=54 v=64
371280 On ch=10 n=56 v=121
371280 On ch=10 n=51 v=121
371400 Off ch=10 n=51 v=64
371400 Off ch=10 n=56 v=64
371520 On ch=10 n=39 v=121
371520 On ch=10 n=51 v=121
371640 Off ch=10 n=51 v=64
371640 Off ch=10 n=39 v=64
371760 On ch=10 n=56 v=121
371760 On ch=10 n=39 v=121
371760 On ch=10 n=51 v=121
371880 Off ch=10 n=51 v=64
371880 Off ch=10 n=39 v=64
371880 Off ch=10 n=56 v=64
372000 On ch=10 n=39 v=121
372000 On ch=10 n=51 v=121
372120 Off ch=10 n=51 v=64
372120 Off ch=10 n=39 v=64
372240 On ch=10 n=54 v=121
372240 On ch=10 n=56 v=121
372240 On ch=10 n=51 v=121
372360 Off ch=10 n=51 v=64
372360 Off ch=10 n=56 v=64
372480 Off ch=10 n=54 v=64
372480 On ch=10 n=51 v=121
372480 On ch=10 n=54 v=121
372600 Off ch=10 n=54 v=64
372600 Off ch=10 n=51 v=64
372720 On ch=10 n=56 v=121
372720 On ch=10 n=51 v=121
372720 On ch=10 n=54 v=121
372840 Off ch=10 n=51 v=64
372840 Off ch=10 n=56 v=64
372960 Off ch=10 n=54 v=64
372960 On ch=10 n=39 v=121
372960 On ch=10 n=51 v=121
373080 Off ch=10 n=51 v=64
373200 Off ch=10 n=39 v=64
373200 On ch=10 n=56 v=121
373200 On ch=10 n=51 v=121
373200 On ch=10 n=54 v=121
373320 Off ch=10 n=51 v=64
373320 Off ch=10 n=56 v=64
373440 Off ch=10 n=54 v=64
373440 On ch=10 n=51 v=121
373560 Off ch=10 n=51 v=64
373680 On ch=10 n=56 v=121
373680 On ch=10 n=51 v=121
373800 Off ch=10 n=51 v=64
373800 Off ch=10 n=56 v=64
373920 On ch=10 n=51 v=121
374040 Off ch=10 n=51 v=64
374160 On ch=10 n=56 v=121
374160 On ch=10 n=51 v=121
374280 Off ch=10 n=51 v=64
374280 Off ch=10 n=56 v=64
374400 On ch=10 n=51 v=121
374520 Off ch=10 n=51 v=64
374640 On ch=10 n=56 v=121
374640 On ch=10 n=51 v=121
374640 On ch=10 n=54 v=121
374760 Off ch=10 n=54 v=64
374760 Off ch=10 n=51 v=64
374760 Off ch=10 n=56 v=64
374880 On ch=10 n=51 v=121
374880 On ch=10 n=54 v=121
375000 Off ch=10 n=54 v=64
375000 Off ch=10 n=51 v=64
375120 On ch=10 n=56 v=121
375120 On ch=10 n=51 v=121
375120 On ch=10 n=54 v=121
375240 Off ch=10 n=51 v=64
375240 Off ch=10 n=56 v=64
375360 Off ch=10 n=54 v=64
375360 On ch=10 n=51 v=121
375480 Off ch=10 n=51 v=64
375600 On ch=10 n=56 v=121
375600 On ch=10 n=51 v=121
375600 On ch=10 n=54 v=121
375720 Off ch=10 n=51 v=64
375720 Off ch=10 n=56 v=64
375840 Off ch=10 n=54 v=64
375840 On ch=10 n=39 v=121
375840 On ch=10 n=51 v=121
375960 Off ch=10 n=51 v=64
375960 Off ch=10 n=39 v=64
376080 On ch=10 n=54 v=121
376080 On ch=10 n=56 v=121
376080 On ch=10 n=51 v=121
376200 Off ch=10 n=51 v=64
376200 Off ch=10 n=56 v=64
376320 Off ch=10 n=54 v=64
376660 On ch=10 n=56 v=121
376780 Off ch=10 n=56 v=64
377200 On ch=10 n=56 v=121
377320 Off ch=10 n=56 v=64
377600 On ch=10 n=56 v=121
377720 Off ch=10 n=56 v=64
377960 On ch=10 n=56 v=121
378060 Off ch=10 n=56 v=64
378280 On ch=10 n=56 v=121
378380 Off ch=10 n=56 v=64
378600 On ch=10 n=56 v=121
378680 Off ch=10 n=56 v=64
378840 On ch=10 n=56 v=121
378940 Off ch=10 n=56 v=64
379100 On ch=10 n=56 v=121
379220 Off ch=10 n=56 v=64
379340 On ch=10 n=56 v=121
379420 Off ch=10 n=56 v=64
382080 Par ch=10 c=2 v=0
382080 Par ch=10 c=1 v=0
382080 ChPr ch=10 v=0
382080 Pb ch=10 v=8192
382080 PoPr ch=10 n=0 v=0
382080 Par ch=10 c=4 v=0
382080 Par ch=10 c=8 v=0
382080 Par ch=10 c=10 v=63
382080 Par ch=10 c=64 v=0
382080 Par ch=10 c=66 v=0
382080 Par ch=10 c=67 v=0
382080 Par ch=10 c=68 v=0
382080 Par ch=10 c=65 v=0
382080 Par ch=10 c=2 v=0
382080 Par ch=10 c=1 v=0
382080 ChPr ch=10 v=0
382080 Pb ch=10 v=8192
382080 PoPr ch=10 n=0 v=0
382080 Par ch=10 c=4 v=0
382080 Par ch=10 c=8 v=0
382080 Par ch=10 c=10 v=63
382080 Par ch=10 c=64 v=0
382080 Par ch=10 c=66 v=0
382080 Par ch=10 c=67 v=0
382080 Par ch=10 c=68 v=0
382080 Par ch=10 c=65 v=0
382080 Par ch=10 c=2 v=0
382080 Par ch=10 c=1 v=0
382080 ChPr ch=10 v=0
382080 Pb ch=10 v=8192
382080 PoPr ch=10 n=0 v=0
382080 Par ch=10 c=4 v=0
382080 Par ch=10 c=8 v=0
382080 Par ch=10 c=10 v=63
382080 Par ch=10 c=64 v=0
382080 Par ch=10 c=66 v=0
382080 Par ch=10 c=67 v=0
382080 Par ch=10 c=68 v=0
382080 Par ch=10 c=65 v=0
382080 Par ch=10 c=7 v=100
382080 Par ch=10 c=2 v=0
382080 Par ch=10 c=1 v=0
382080 ChPr ch=10 v=0
382080 Pb ch=10 v=8192
382080 PoPr ch=10 n=0 v=0
382080 Par ch=10 c=4 v=0
382080 Par ch=10 c=8 v=0
382080 Par ch=10 c=10 v=63
382080 Par ch=10 c=64 v=0
382080 Par ch=10 c=66 v=0
382080 Par ch=10 c=67 v=0
382080 Par ch=10 c=68 v=0
382080 Par ch=10 c=65 v=0
382080 Meta TrkEnd
TrkEnd
MTrk
0 Meta TrkName "01/15/97"
0 Meta 0x21 00
0 Meta 0x20 09
0 Par ch=10 c=7 v=99
0 Par ch=10 c=10 v=64
0 PrCh ch=10 p=0
0 Meta TrkEnd
TrkEnd
MTrk
0 Meta TrkName "Light My Fire"
0 Meta 0x21 00
0 Meta 0x20 09
0 Par ch=10 c=7 v=99
0 Par ch=10 c=10 v=64
0 PrCh ch=10 p=0
0 Meta TrkEnd
TrkEnd
