MFile 1 10 120
MTrk
0 TimeSig 4/4 24 8
0 KeySig 0 major
0 Tempo 576923
0 Meta TrkEnd
TrkEnd
MTrk
0 Meta 0x21 00
0 Meta TrkName "thunder "
480 On ch=1 n=72 v=127
480 On ch=1 n=84 v=127
2382 On ch=1 n=84 v=0
2382 On ch=1 n=72 v=0
3840 On ch=1 n=72 v=100
3840 On ch=1 n=84 v=100
5759 On ch=1 n=84 v=0
5759 On ch=1 n=72 v=0
6720 On ch=1 n=72 v=75
6720 On ch=1 n=84 v=75
8639 On ch=1 n=84 v=0
8639 On ch=1 n=72 v=0
8640 On ch=1 n=72 v=50
10559 On ch=1 n=72 v=0
12000 On ch=1 n=48 v=103
12000 On ch=1 n=72 v=127
14009 On ch=1 n=48 v=0
14279 On ch=1 n=72 v=0
14400 On ch=1 n=60 v=84
14400 On ch=1 n=72 v=84
16079 On ch=1 n=72 v=0
16079 On ch=1 n=60 v=0
16320 On ch=1 n=72 v=90
16320 On ch=1 n=84 v=90
17999 On ch=1 n=84 v=0
17999 On ch=1 n=72 v=0
18480 On ch=1 n=60 v=57
18480 On ch=1 n=84 v=57
20399 On ch=1 n=84 v=0
20399 On ch=1 n=60 v=0
24000 On ch=1 n=60 v=123
24000 On ch=1 n=72 v=117
25902 On ch=1 n=72 v=0
25902 On ch=1 n=60 v=0
29280 On ch=1 n=60 v=57
29280 On ch=1 n=84 v=57
31199 On ch=1 n=84 v=0
31199 On ch=1 n=60 v=0
32160 On ch=1 n=72 v=57
32160 On ch=1 n=84 v=57
33119 On ch=1 n=84 v=0
33119 On ch=1 n=72 v=0
33120 On ch=1 n=60 v=57
33120 On ch=1 n=72 v=57
35039 On ch=1 n=72 v=0
35039 On ch=1 n=60 v=0
41760 On ch=1 n=48 v=114
41760 On ch=1 n=60 v=114
43662 On ch=1 n=60 v=0
43662 On ch=1 n=48 v=0
43680 On ch=1 n=48 v=69
43680 On ch=1 n=60 v=69
44159 On ch=1 n=60 v=0
44159 On ch=1 n=48 v=0
44160 On ch=1 n=48 v=125
44160 On ch=1 n=60 v=125
45719 On ch=1 n=60 v=0
45719 On ch=1 n=48 v=0
53280 On ch=1 n=24 v=127
53280 On ch=1 n=72 v=127
55182 On ch=1 n=72 v=0
55182 On ch=1 n=24 v=0
58080 On ch=1 n=24 v=127
58080 On ch=1 n=72 v=127
60479 On ch=1 n=72 v=0
60479 On ch=1 n=24 v=0
60479 Meta TrkEnd
TrkEnd
MTrk
0 Meta 0x21 00
0 Meta TrkName "bass    "
1440 On ch=2 n=28 v=110
1499 On ch=2 n=28 v=0
1500 On ch=2 n=35 v=90
1554 On ch=2 n=35 v=0
1560 On ch=2 n=31 v=100
1618 On ch=2 n=31 v=0
1620 On ch=2 n=35 v=84
1673 On ch=2 n=35 v=0
1680 On ch=2 n=28 v=104
1739 On ch=2 n=28 v=0
1740 On ch=2 n=33 v=90
1794 On ch=2 n=33 v=0
1800 On ch=2 n=37 v=100
1858 On ch=2 n=37 v=0
1860 On ch=2 n=33 v=80
1913 On ch=2 n=33 v=0
1920 On ch=2 n=28 v=110
1979 On ch=2 n=28 v=0
1980 On ch=2 n=35 v=90
2034 On ch=2 n=35 v=0
2040 On ch=2 n=31 v=100
2098 On ch=2 n=31 v=0
2100 On ch=2 n=35 v=84
2153 On ch=2 n=35 v=0
2160 On ch=2 n=28 v=104
2219 On ch=2 n=28 v=0
2220 On ch=2 n=33 v=90
2274 On ch=2 n=33 v=0
2280 On ch=2 n=37 v=100
2338 On ch=2 n=37 v=0
2340 On ch=2 n=33 v=80
2393 On ch=2 n=33 v=0
2400 On ch=2 n=28 v=110
2459 On ch=2 n=28 v=0
2460 On ch=2 n=35 v=90
2514 On ch=2 n=35 v=0
2520 On ch=2 n=31 v=100
2578 On ch=2 n=31 v=0
2580 On ch=2 n=35 v=84
2633 On ch=2 n=35 v=0
2640 On ch=2 n=28 v=104
2699 On ch=2 n=28 v=0
2700 On ch=2 n=33 v=90
2754 On ch=2 n=33 v=0
2760 On ch=2 n=37 v=100
2818 On ch=2 n=37 v=0
2820 On ch=2 n=33 v=80
2873 On ch=2 n=33 v=0
2880 On ch=2 n=28 v=110
2939 On ch=2 n=28 v=0
2940 On ch=2 n=35 v=90
2994 On ch=2 n=35 v=0
3000 On ch=2 n=31 v=100
3058 On ch=2 n=31 v=0
3060 On ch=2 n=35 v=84
3113 On ch=2 n=35 v=0
3120 On ch=2 n=28 v=104
3179 On ch=2 n=28 v=0
3180 On ch=2 n=33 v=90
3234 On ch=2 n=33 v=0
3240 On ch=2 n=37 v=100
3298 On ch=2 n=37 v=0
3300 On ch=2 n=33 v=80
3354 On ch=2 n=33 v=0
3360 On ch=2 n=28 v=110
3419 On ch=2 n=28 v=0
3420 On ch=2 n=35 v=90
3474 On ch=2 n=35 v=0
3480 On ch=2 n=31 v=100
3538 On ch=2 n=31 v=0
3540 On ch=2 n=35 v=84
3593 On ch=2 n=35 v=0
3600 On ch=2 n=28 v=104
3659 On ch=2 n=28 v=0
3660 On ch=2 n=33 v=90
3714 On ch=2 n=33 v=0
3720 On ch=2 n=37 v=100
3778 On ch=2 n=37 v=0
3780 On ch=2 n=33 v=80
3833 On ch=2 n=33 v=0
3840 On ch=2 n=28 v=110
3899 On ch=2 n=28 v=0
3900 On ch=2 n=35 v=90
3954 On ch=2 n=35 v=0
3960 On ch=2 n=31 v=100
4018 On ch=2 n=31 v=0
4020 On ch=2 n=35 v=84
4073 On ch=2 n=35 v=0
4080 On ch=2 n=28 v=104
4139 On ch=2 n=28 v=0
4140 On ch=2 n=33 v=90
4194 On ch=2 n=33 v=0
4200 On ch=2 n=37 v=100
4258 On ch=2 n=37 v=0
4260 On ch=2 n=33 v=80
4313 On ch=2 n=33 v=0
4320 On ch=2 n=28 v=110
4379 On ch=2 n=28 v=0
4380 On ch=2 n=35 v=90
4434 On ch=2 n=35 v=0
4440 On ch=2 n=31 v=100
4498 On ch=2 n=31 v=0
4500 On ch=2 n=35 v=84
4553 On ch=2 n=35 v=0
4560 On ch=2 n=28 v=104
4619 On ch=2 n=28 v=0
4620 On ch=2 n=33 v=90
4674 On ch=2 n=33 v=0
4680 On ch=2 n=37 v=100
4738 On ch=2 n=37 v=0
4740 On ch=2 n=33 v=80
4793 On ch=2 n=33 v=0
4800 On ch=2 n=28 v=110
4859 On ch=2 n=28 v=0
4860 On ch=2 n=35 v=90
4914 On ch=2 n=35 v=0
4920 On ch=2 n=31 v=100
4978 On ch=2 n=31 v=0
4980 On ch=2 n=35 v=84
5033 On ch=2 n=35 v=0
5040 On ch=2 n=28 v=104
5099 On ch=2 n=28 v=0
5100 On ch=2 n=33 v=90
5154 On ch=2 n=33 v=0
5160 On ch=2 n=37 v=100
5218 On ch=2 n=37 v=0
5220 On ch=2 n=33 v=80
5273 On ch=2 n=33 v=0
5280 On ch=2 n=28 v=110
5339 On ch=2 n=28 v=0
5340 On ch=2 n=35 v=90
5394 On ch=2 n=35 v=0
5400 On ch=2 n=31 v=100
5458 On ch=2 n=31 v=0
5460 On ch=2 n=35 v=84
5513 On ch=2 n=35 v=0
5520 On ch=2 n=28 v=104
5579 On ch=2 n=28 v=0
5580 On ch=2 n=33 v=90
5634 On ch=2 n=33 v=0
5640 On ch=2 n=37 v=100
5698 On ch=2 n=37 v=0
5700 On ch=2 n=33 v=80
5753 On ch=2 n=33 v=0
5760 On ch=2 n=28 v=110
5819 On ch=2 n=28 v=0
5820 On ch=2 n=35 v=90
5874 On ch=2 n=35 v=0
5880 On ch=2 n=31 v=100
5938 On ch=2 n=31 v=0
5940 On ch=2 n=35 v=84
5993 On ch=2 n=35 v=0
6000 On ch=2 n=28 v=104
6059 On ch=2 n=28 v=0
6060 On ch=2 n=33 v=90
6114 On ch=2 n=33 v=0
6120 On ch=2 n=37 v=100
6178 On ch=2 n=37 v=0
6180 On ch=2 n=33 v=80
6233 On ch=2 n=33 v=0
6240 On ch=2 n=28 v=110
6299 On ch=2 n=28 v=0
6300 On ch=2 n=35 v=90
6354 On ch=2 n=35 v=0
6360 On ch=2 n=31 v=100
6418 On ch=2 n=31 v=0
6420 On ch=2 n=35 v=84
6473 On ch=2 n=35 v=0
6480 On ch=2 n=28 v=104
6539 On ch=2 n=28 v=0
6540 On ch=2 n=33 v=90
6594 On ch=2 n=33 v=0
6600 On ch=2 n=37 v=100
6658 On ch=2 n=37 v=0
6660 On ch=2 n=33 v=80
6713 On ch=2 n=33 v=0
6720 On ch=2 n=28 v=110
6779 On ch=2 n=28 v=0
6780 On ch=2 n=35 v=90
6834 On ch=2 n=35 v=0
6840 On ch=2 n=31 v=100
6898 On ch=2 n=31 v=0
6900 On ch=2 n=35 v=84
6953 On ch=2 n=35 v=0
6960 On ch=2 n=28 v=104
7019 On ch=2 n=28 v=0
7020 On ch=2 n=33 v=90
7074 On ch=2 n=33 v=0
7080 On ch=2 n=37 v=100
7138 On ch=2 n=37 v=0
7140 On ch=2 n=33 v=80
7193 On ch=2 n=33 v=0
7200 On ch=2 n=28 v=110
7259 On ch=2 n=28 v=0
7260 On ch=2 n=35 v=90
7314 On ch=2 n=35 v=0
7320 On ch=2 n=31 v=100
7378 On ch=2 n=31 v=0
7380 On ch=2 n=35 v=84
7433 On ch=2 n=35 v=0
7440 On ch=2 n=28 v=104
7499 On ch=2 n=28 v=0
7500 On ch=2 n=33 v=90
7554 On ch=2 n=33 v=0
7560 On ch=2 n=37 v=100
7618 On ch=2 n=37 v=0
7620 On ch=2 n=33 v=80
7673 On ch=2 n=33 v=0
7680 On ch=2 n=28 v=110
7739 On ch=2 n=28 v=0
7740 On ch=2 n=35 v=90
7794 On ch=2 n=35 v=0
7800 On ch=2 n=31 v=100
7858 On ch=2 n=31 v=0
7860 On ch=2 n=35 v=84
7913 On ch=2 n=35 v=0
7920 On ch=2 n=28 v=104
7979 On ch=2 n=28 v=0
7980 On ch=2 n=33 v=90
8034 On ch=2 n=33 v=0
8040 On ch=2 n=37 v=100
8098 On ch=2 n=37 v=0
8100 On ch=2 n=33 v=80
8153 On ch=2 n=33 v=0
8160 On ch=2 n=28 v=110
8219 On ch=2 n=28 v=0
8220 On ch=2 n=35 v=90
8274 On ch=2 n=35 v=0
8280 On ch=2 n=31 v=100
8338 On ch=2 n=31 v=0
8340 On ch=2 n=35 v=84
8393 On ch=2 n=35 v=0
8400 On ch=2 n=28 v=104
8459 On ch=2 n=28 v=0
8460 On ch=2 n=33 v=90
8514 On ch=2 n=33 v=0
8520 On ch=2 n=37 v=100
8578 On ch=2 n=37 v=0
8580 On ch=2 n=33 v=80
8633 On ch=2 n=33 v=0
8640 On ch=2 n=28 v=110
8699 On ch=2 n=28 v=0
8700 On ch=2 n=35 v=90
8754 On ch=2 n=35 v=0
8760 On ch=2 n=31 v=100
8818 On ch=2 n=31 v=0
8820 On ch=2 n=35 v=84
8873 On ch=2 n=35 v=0
8880 On ch=2 n=28 v=104
8939 On ch=2 n=28 v=0
8940 On ch=2 n=33 v=90
8994 On ch=2 n=33 v=0
9000 On ch=2 n=37 v=100
9058 On ch=2 n=37 v=0
9060 On ch=2 n=33 v=80
9113 On ch=2 n=33 v=0
9120 On ch=2 n=28 v=110
9179 On ch=2 n=28 v=0
9180 On ch=2 n=35 v=90
9234 On ch=2 n=35 v=0
9240 On ch=2 n=31 v=100
9298 On ch=2 n=31 v=0
9300 On ch=2 n=35 v=84
9353 On ch=2 n=35 v=0
9360 On ch=2 n=28 v=104
9419 On ch=2 n=28 v=0
9420 On ch=2 n=33 v=90
9474 On ch=2 n=33 v=0
9480 On ch=2 n=37 v=100
9538 On ch=2 n=37 v=0
9540 On ch=2 n=33 v=80
9593 On ch=2 n=33 v=0
9600 On ch=2 n=33 v=84
9624 On ch=2 n=33 v=0
9660 On ch=2 n=33 v=70
9709 On ch=2 n=33 v=0
9720 On ch=2 n=45 v=80
9839 On ch=2 n=45 v=0
9840 On ch=2 n=33 v=94
9871 On ch=2 n=33 v=0
9900 On ch=2 n=33 v=80
9949 On ch=2 n=33 v=0
9960 On ch=2 n=45 v=90
10079 On ch=2 n=45 v=0
10080 On ch=2 n=33 v=100
10117 On ch=2 n=33 v=0
10140 On ch=2 n=33 v=90
10192 On ch=2 n=33 v=0
10200 On ch=2 n=45 v=100
10319 On ch=2 n=45 v=0
10320 On ch=2 n=33 v=114
10364 On ch=2 n=33 v=0
10380 On ch=2 n=33 v=100
10434 On ch=2 n=33 v=0
10440 On ch=2 n=45 v=114
10498 On ch=2 n=45 v=0
10500 On ch=2 n=33 v=90
10553 On ch=2 n=33 v=0
10560 On ch=2 n=28 v=110
10619 On ch=2 n=28 v=0
10620 On ch=2 n=35 v=90
10674 On ch=2 n=35 v=0
10680 On ch=2 n=31 v=100
10738 On ch=2 n=31 v=0
10740 On ch=2 n=35 v=84
10793 On ch=2 n=35 v=0
10800 On ch=2 n=28 v=104
10859 On ch=2 n=28 v=0
10860 On ch=2 n=33 v=90
10914 On ch=2 n=33 v=0
10920 On ch=2 n=37 v=100
10978 On ch=2 n=37 v=0
10980 On ch=2 n=33 v=80
11033 On ch=2 n=33 v=0
11040 On ch=2 n=28 v=110
11099 On ch=2 n=28 v=0
11100 On ch=2 n=35 v=90
11154 On ch=2 n=35 v=0
11160 On ch=2 n=31 v=100
11218 On ch=2 n=31 v=0
11220 On ch=2 n=35 v=84
11273 On ch=2 n=35 v=0
11280 On ch=2 n=28 v=104
11339 On ch=2 n=28 v=0
11340 On ch=2 n=33 v=90
11394 On ch=2 n=33 v=0
11400 On ch=2 n=37 v=100
11458 On ch=2 n=37 v=0
11460 On ch=2 n=33 v=80
11513 On ch=2 n=33 v=0
11520 On ch=2 n=38 v=110
11619 On ch=2 n=38 v=0
11640 On ch=2 n=38 v=110
11991 On ch=2 n=38 v=0
12000 On ch=2 n=36 v=110
12049 On ch=2 n=36 v=0
12060 On ch=2 n=36 v=94
12179 On ch=2 n=36 v=0
12180 On ch=2 n=36 v=94
12231 On ch=2 n=36 v=0
12240 On ch=2 n=36 v=104
12329 On ch=2 n=36 v=0
12330 On ch=2 n=36 v=80
12354 On ch=2 n=36 v=0
12360 On ch=2 n=35 v=94
12419 On ch=2 n=35 v=0
12420 On ch=2 n=33 v=80
12469 On ch=2 n=33 v=0
12480 On ch=2 n=28 v=110
12539 On ch=2 n=28 v=0
12540 On ch=2 n=35 v=90
12594 On ch=2 n=35 v=0
12600 On ch=2 n=31 v=100
12658 On ch=2 n=31 v=0
12660 On ch=2 n=35 v=84
12713 On ch=2 n=35 v=0
12720 On ch=2 n=28 v=104
12779 On ch=2 n=28 v=0
12780 On ch=2 n=33 v=90
12834 On ch=2 n=33 v=0
12840 On ch=2 n=37 v=100
12898 On ch=2 n=37 v=0
12900 On ch=2 n=33 v=80
12953 On ch=2 n=33 v=0
12960 On ch=2 n=28 v=110
13019 On ch=2 n=28 v=0
13020 On ch=2 n=35 v=90
13074 On ch=2 n=35 v=0
13080 On ch=2 n=31 v=100
13138 On ch=2 n=31 v=0
13140 On ch=2 n=35 v=84
13193 On ch=2 n=35 v=0
13200 On ch=2 n=28 v=104
13259 On ch=2 n=28 v=0
13260 On ch=2 n=33 v=90
13314 On ch=2 n=33 v=0
13320 On ch=2 n=37 v=100
13378 On ch=2 n=37 v=0
13380 On ch=2 n=33 v=80
13433 On ch=2 n=33 v=0
13440 On ch=2 n=28 v=110
13499 On ch=2 n=28 v=0
13500 On ch=2 n=35 v=90
13554 On ch=2 n=35 v=0
13560 On ch=2 n=31 v=100
13618 On ch=2 n=31 v=0
13620 On ch=2 n=35 v=84
13673 On ch=2 n=35 v=0
13680 On ch=2 n=28 v=104
13739 On ch=2 n=28 v=0
13740 On ch=2 n=33 v=90
13794 On ch=2 n=33 v=0
13800 On ch=2 n=37 v=100
13858 On ch=2 n=37 v=0
13860 On ch=2 n=33 v=80
13913 On ch=2 n=33 v=0
13920 On ch=2 n=28 v=110
13979 On ch=2 n=28 v=0
13980 On ch=2 n=35 v=90
14034 On ch=2 n=35 v=0
14040 On ch=2 n=31 v=100
14098 On ch=2 n=31 v=0
14100 On ch=2 n=35 v=84
14153 On ch=2 n=35 v=0
14160 On ch=2 n=28 v=104
14219 On ch=2 n=28 v=0
14220 On ch=2 n=33 v=90
14274 On ch=2 n=33 v=0
14280 On ch=2 n=37 v=100
14338 On ch=2 n=37 v=0
14340 On ch=2 n=33 v=80
14393 On ch=2 n=33 v=0
14400 On ch=2 n=28 v=110
14459 On ch=2 n=28 v=0
14460 On ch=2 n=35 v=90
14514 On ch=2 n=35 v=0
14520 On ch=2 n=31 v=100
14578 On ch=2 n=31 v=0
14580 On ch=2 n=35 v=84
14633 On ch=2 n=35 v=0
14640 On ch=2 n=28 v=104
14699 On ch=2 n=28 v=0
14700 On ch=2 n=33 v=90
14754 On ch=2 n=33 v=0
14760 On ch=2 n=37 v=100
14818 On ch=2 n=37 v=0
14820 On ch=2 n=33 v=80
14873 On ch=2 n=33 v=0
14880 On ch=2 n=28 v=110
14939 On ch=2 n=28 v=0
14940 On ch=2 n=35 v=90
14994 On ch=2 n=35 v=0
15000 On ch=2 n=31 v=100
15058 On ch=2 n=31 v=0
15060 On ch=2 n=35 v=84
15113 On ch=2 n=35 v=0
15120 On ch=2 n=28 v=104
15179 On ch=2 n=28 v=0
15180 On ch=2 n=33 v=90
15234 On ch=2 n=33 v=0
15240 On ch=2 n=37 v=100
15298 On ch=2 n=37 v=0
15300 On ch=2 n=33 v=80
15353 On ch=2 n=33 v=0
15360 On ch=2 n=33 v=84
15384 On ch=2 n=33 v=0
15420 On ch=2 n=33 v=70
15469 On ch=2 n=33 v=0
15480 On ch=2 n=45 v=80
15599 On ch=2 n=45 v=0
15600 On ch=2 n=33 v=94
15631 On ch=2 n=33 v=0
15660 On ch=2 n=33 v=80
15709 On ch=2 n=33 v=0
15720 On ch=2 n=45 v=90
15839 On ch=2 n=45 v=0
15840 On ch=2 n=33 v=100
15877 On ch=2 n=33 v=0
15900 On ch=2 n=33 v=90
15952 On ch=2 n=33 v=0
15960 On ch=2 n=45 v=100
16079 On ch=2 n=45 v=0
16080 On ch=2 n=33 v=114
16124 On ch=2 n=33 v=0
16140 On ch=2 n=33 v=100
16194 On ch=2 n=33 v=0
16200 On ch=2 n=45 v=114
16258 On ch=2 n=45 v=0
16260 On ch=2 n=33 v=90
16313 On ch=2 n=33 v=0
16320 On ch=2 n=28 v=110
16379 On ch=2 n=28 v=0
16380 On ch=2 n=35 v=90
16434 On ch=2 n=35 v=0
16440 On ch=2 n=31 v=100
16498 On ch=2 n=31 v=0
16500 On ch=2 n=35 v=84
16553 On ch=2 n=35 v=0
16560 On ch=2 n=28 v=104
16619 On ch=2 n=28 v=0
16620 On ch=2 n=33 v=90
16674 On ch=2 n=33 v=0
16680 On ch=2 n=37 v=100
16738 On ch=2 n=37 v=0
16740 On ch=2 n=33 v=80
16793 On ch=2 n=33 v=0
16800 On ch=2 n=28 v=110
16859 On ch=2 n=28 v=0
16860 On ch=2 n=35 v=90
16914 On ch=2 n=35 v=0
16920 On ch=2 n=31 v=100
16978 On ch=2 n=31 v=0
16980 On ch=2 n=35 v=84
17033 On ch=2 n=35 v=0
17040 On ch=2 n=28 v=104
17099 On ch=2 n=28 v=0
17100 On ch=2 n=33 v=90
17154 On ch=2 n=33 v=0
17160 On ch=2 n=37 v=100
17218 On ch=2 n=37 v=0
17220 On ch=2 n=33 v=80
17273 On ch=2 n=33 v=0
17280 On ch=2 n=38 v=110
17379 On ch=2 n=38 v=0
17400 On ch=2 n=38 v=110
17751 On ch=2 n=38 v=0
17760 On ch=2 n=36 v=110
17809 On ch=2 n=36 v=0
17820 On ch=2 n=36 v=94
17939 On ch=2 n=36 v=0
17940 On ch=2 n=36 v=94
17991 On ch=2 n=36 v=0
18000 On ch=2 n=36 v=104
18089 On ch=2 n=36 v=0
18090 On ch=2 n=36 v=80
18114 On ch=2 n=36 v=0
18120 On ch=2 n=35 v=94
18179 On ch=2 n=35 v=0
18180 On ch=2 n=33 v=80
18229 On ch=2 n=33 v=0
18240 On ch=2 n=28 v=110
18299 On ch=2 n=28 v=0
18300 On ch=2 n=35 v=90
18354 On ch=2 n=35 v=0
18360 On ch=2 n=31 v=100
18418 On ch=2 n=31 v=0
18420 On ch=2 n=35 v=84
18473 On ch=2 n=35 v=0
18480 On ch=2 n=28 v=104
18539 On ch=2 n=28 v=0
18540 On ch=2 n=33 v=90
18594 On ch=2 n=33 v=0
18600 On ch=2 n=37 v=100
18658 On ch=2 n=37 v=0
18660 On ch=2 n=33 v=80
18713 On ch=2 n=33 v=0
18720 On ch=2 n=28 v=110
18779 On ch=2 n=28 v=0
18780 On ch=2 n=35 v=90
18834 On ch=2 n=35 v=0
18840 On ch=2 n=31 v=100
18898 On ch=2 n=31 v=0
18900 On ch=2 n=35 v=84
18953 On ch=2 n=35 v=0
18960 On ch=2 n=28 v=104
19019 On ch=2 n=28 v=0
19020 On ch=2 n=33 v=90
19074 On ch=2 n=33 v=0
19080 On ch=2 n=37 v=100
19138 On ch=2 n=37 v=0
19140 On ch=2 n=33 v=80
19193 On ch=2 n=33 v=0
19200 On ch=2 n=28 v=110
19259 On ch=2 n=28 v=0
19260 On ch=2 n=35 v=90
19314 On ch=2 n=35 v=0
19320 On ch=2 n=31 v=100
19378 On ch=2 n=31 v=0
19380 On ch=2 n=35 v=84
19433 On ch=2 n=35 v=0
19440 On ch=2 n=28 v=104
19499 On ch=2 n=28 v=0
19500 On ch=2 n=33 v=90
19554 On ch=2 n=33 v=0
19560 On ch=2 n=37 v=100
19618 On ch=2 n=37 v=0
19620 On ch=2 n=33 v=80
19673 On ch=2 n=33 v=0
19680 On ch=2 n=28 v=110
19739 On ch=2 n=28 v=0
19740 On ch=2 n=35 v=90
19794 On ch=2 n=35 v=0
19800 On ch=2 n=31 v=100
19858 On ch=2 n=31 v=0
19860 On ch=2 n=35 v=84
19913 On ch=2 n=35 v=0
19920 On ch=2 n=28 v=104
19979 On ch=2 n=28 v=0
19980 On ch=2 n=33 v=90
20034 On ch=2 n=33 v=0
20040 On ch=2 n=37 v=100
20098 On ch=2 n=37 v=0
20100 On ch=2 n=33 v=80
20153 On ch=2 n=33 v=0
20160 On ch=2 n=28 v=110
20219 On ch=2 n=28 v=0
20220 On ch=2 n=35 v=90
20274 On ch=2 n=35 v=0
20280 On ch=2 n=31 v=100
20338 On ch=2 n=31 v=0
20340 On ch=2 n=35 v=84
20393 On ch=2 n=35 v=0
20400 On ch=2 n=28 v=104
20459 On ch=2 n=28 v=0
20460 On ch=2 n=33 v=90
20514 On ch=2 n=33 v=0
20520 On ch=2 n=37 v=100
20578 On ch=2 n=37 v=0
20580 On ch=2 n=33 v=80
20633 On ch=2 n=33 v=0
20640 On ch=2 n=28 v=110
20699 On ch=2 n=28 v=0
20700 On ch=2 n=35 v=90
20754 On ch=2 n=35 v=0
20760 On ch=2 n=31 v=100
20818 On ch=2 n=31 v=0
20820 On ch=2 n=35 v=84
20873 On ch=2 n=35 v=0
20880 On ch=2 n=28 v=104
20939 On ch=2 n=28 v=0
20940 On ch=2 n=33 v=90
20994 On ch=2 n=33 v=0
21000 On ch=2 n=37 v=100
21058 On ch=2 n=37 v=0
21060 On ch=2 n=33 v=80
21113 On ch=2 n=33 v=0
21120 On ch=2 n=33 v=84
21144 On ch=2 n=33 v=0
21180 On ch=2 n=33 v=70
21229 On ch=2 n=33 v=0
21240 On ch=2 n=45 v=80
21359 On ch=2 n=45 v=0
21360 On ch=2 n=33 v=94
21391 On ch=2 n=33 v=0
21420 On ch=2 n=33 v=80
21469 On ch=2 n=33 v=0
21480 On ch=2 n=45 v=90
21599 On ch=2 n=45 v=0
21600 On ch=2 n=33 v=100
21637 On ch=2 n=33 v=0
21660 On ch=2 n=33 v=90
21712 On ch=2 n=33 v=0
21720 On ch=2 n=45 v=100
21839 On ch=2 n=45 v=0
21840 On ch=2 n=33 v=114
21884 On ch=2 n=33 v=0
21900 On ch=2 n=33 v=100
21954 On ch=2 n=33 v=0
21960 On ch=2 n=45 v=114
22018 On ch=2 n=45 v=0
22020 On ch=2 n=33 v=90
22073 On ch=2 n=33 v=0
22080 On ch=2 n=28 v=110
22139 On ch=2 n=28 v=0
22140 On ch=2 n=35 v=90
22194 On ch=2 n=35 v=0
22200 On ch=2 n=31 v=100
22258 On ch=2 n=31 v=0
22260 On ch=2 n=35 v=84
22313 On ch=2 n=35 v=0
22320 On ch=2 n=28 v=104
22379 On ch=2 n=28 v=0
22380 On ch=2 n=33 v=90
22434 On ch=2 n=33 v=0
22440 On ch=2 n=37 v=100
22498 On ch=2 n=37 v=0
22500 On ch=2 n=33 v=80
22553 On ch=2 n=33 v=0
22560 On ch=2 n=28 v=110
22619 On ch=2 n=28 v=0
22620 On ch=2 n=35 v=90
22674 On ch=2 n=35 v=0
22680 On ch=2 n=31 v=100
22738 On ch=2 n=31 v=0
22740 On ch=2 n=35 v=84
22793 On ch=2 n=35 v=0
22800 On ch=2 n=28 v=104
22859 On ch=2 n=28 v=0
22860 On ch=2 n=33 v=90
22914 On ch=2 n=33 v=0
22920 On ch=2 n=37 v=100
22978 On ch=2 n=37 v=0
22980 On ch=2 n=33 v=80
23033 On ch=2 n=33 v=0
23040 On ch=2 n=38 v=110
23139 On ch=2 n=38 v=0
23160 On ch=2 n=38 v=110
23511 On ch=2 n=38 v=0
23520 On ch=2 n=36 v=110
23569 On ch=2 n=36 v=0
23580 On ch=2 n=36 v=94
23699 On ch=2 n=36 v=0
23700 On ch=2 n=36 v=94
23750 On ch=2 n=36 v=0
23760 On ch=2 n=36 v=104
23849 On ch=2 n=36 v=0
23850 On ch=2 n=36 v=80
23874 On ch=2 n=36 v=0
23880 On ch=2 n=35 v=94
23939 On ch=2 n=35 v=0
23940 On ch=2 n=33 v=80
23989 On ch=2 n=33 v=0
24000 On ch=2 n=28 v=110
24059 On ch=2 n=28 v=0
24060 On ch=2 n=35 v=90
24114 On ch=2 n=35 v=0
24120 On ch=2 n=31 v=100
24178 On ch=2 n=31 v=0
24180 On ch=2 n=35 v=84
24233 On ch=2 n=35 v=0
24240 On ch=2 n=28 v=104
24299 On ch=2 n=28 v=0
24300 On ch=2 n=33 v=90
24354 On ch=2 n=33 v=0
24360 On ch=2 n=37 v=100
24418 On ch=2 n=37 v=0
24420 On ch=2 n=33 v=80
24473 On ch=2 n=33 v=0
24480 On ch=2 n=28 v=110
24539 On ch=2 n=28 v=0
24540 On ch=2 n=35 v=90
24594 On ch=2 n=35 v=0
24600 On ch=2 n=31 v=100
24658 On ch=2 n=31 v=0
24660 On ch=2 n=35 v=84
24713 On ch=2 n=35 v=0
24720 On ch=2 n=28 v=104
24779 On ch=2 n=28 v=0
24780 On ch=2 n=33 v=90
24834 On ch=2 n=33 v=0
24840 On ch=2 n=37 v=100
24898 On ch=2 n=37 v=0
24900 On ch=2 n=33 v=80
24953 On ch=2 n=33 v=0
24960 On ch=2 n=28 v=110
25019 On ch=2 n=28 v=0
25020 On ch=2 n=35 v=90
25074 On ch=2 n=35 v=0
25080 On ch=2 n=31 v=100
25138 On ch=2 n=31 v=0
25140 On ch=2 n=35 v=84
25193 On ch=2 n=35 v=0
25200 On ch=2 n=28 v=104
25259 On ch=2 n=28 v=0
25260 On ch=2 n=33 v=90
25314 On ch=2 n=33 v=0
25320 On ch=2 n=37 v=100
25378 On ch=2 n=37 v=0
25380 On ch=2 n=33 v=80
25433 On ch=2 n=33 v=0
25440 On ch=2 n=28 v=110
25499 On ch=2 n=28 v=0
25500 On ch=2 n=35 v=90
25554 On ch=2 n=35 v=0
25560 On ch=2 n=31 v=100
25618 On ch=2 n=31 v=0
25620 On ch=2 n=35 v=84
25673 On ch=2 n=35 v=0
25680 On ch=2 n=28 v=104
25739 On ch=2 n=28 v=0
25740 On ch=2 n=33 v=90
25794 On ch=2 n=33 v=0
25800 On ch=2 n=37 v=100
25858 On ch=2 n=37 v=0
25860 On ch=2 n=33 v=80
25913 On ch=2 n=33 v=0
25920 On ch=2 n=28 v=110
25979 On ch=2 n=28 v=0
25980 On ch=2 n=35 v=90
26034 On ch=2 n=35 v=0
26040 On ch=2 n=31 v=100
26098 On ch=2 n=31 v=0
26100 On ch=2 n=35 v=84
26153 On ch=2 n=35 v=0
26160 On ch=2 n=28 v=104
26219 On ch=2 n=28 v=0
26220 On ch=2 n=33 v=90
26274 On ch=2 n=33 v=0
26280 On ch=2 n=37 v=100
26338 On ch=2 n=37 v=0
26340 On ch=2 n=33 v=80
26393 On ch=2 n=33 v=0
26400 On ch=2 n=28 v=110
26459 On ch=2 n=28 v=0
26460 On ch=2 n=35 v=90
26514 On ch=2 n=35 v=0
26520 On ch=2 n=31 v=100
26578 On ch=2 n=31 v=0
26580 On ch=2 n=35 v=84
26633 On ch=2 n=35 v=0
26640 On ch=2 n=28 v=104
26699 On ch=2 n=28 v=0
26700 On ch=2 n=33 v=90
26754 On ch=2 n=33 v=0
26760 On ch=2 n=37 v=100
26818 On ch=2 n=37 v=0
26820 On ch=2 n=33 v=80
26873 On ch=2 n=33 v=0
26880 On ch=2 n=28 v=110
26939 On ch=2 n=28 v=0
26940 On ch=2 n=35 v=90
26994 On ch=2 n=35 v=0
27000 On ch=2 n=31 v=100
27058 On ch=2 n=31 v=0
27060 On ch=2 n=35 v=84
27113 On ch=2 n=35 v=0
27120 On ch=2 n=28 v=104
27179 On ch=2 n=28 v=0
27180 On ch=2 n=33 v=90
27234 On ch=2 n=33 v=0
27240 On ch=2 n=37 v=100
27298 On ch=2 n=37 v=0
27300 On ch=2 n=33 v=80
27353 On ch=2 n=33 v=0
27360 On ch=2 n=28 v=110
27419 On ch=2 n=28 v=0
27420 On ch=2 n=35 v=90
27474 On ch=2 n=35 v=0
27480 On ch=2 n=31 v=100
27538 On ch=2 n=31 v=0
27540 On ch=2 n=35 v=84
27593 On ch=2 n=35 v=0
27600 On ch=2 n=28 v=104
27659 On ch=2 n=28 v=0
27660 On ch=2 n=33 v=90
27714 On ch=2 n=33 v=0
27720 On ch=2 n=37 v=100
27778 On ch=2 n=37 v=0
27780 On ch=2 n=33 v=80
27833 On ch=2 n=33 v=0
27840 On ch=2 n=33 v=84
27864 On ch=2 n=33 v=0
27900 On ch=2 n=33 v=70
27949 On ch=2 n=33 v=0
27960 On ch=2 n=45 v=80
28079 On ch=2 n=45 v=0
28080 On ch=2 n=33 v=94
28110 On ch=2 n=33 v=0
28140 On ch=2 n=33 v=80
28189 On ch=2 n=33 v=0
28200 On ch=2 n=45 v=90
28319 On ch=2 n=45 v=0
28320 On ch=2 n=33 v=100
28357 On ch=2 n=33 v=0
28380 On ch=2 n=33 v=90
28432 On ch=2 n=33 v=0
28440 On ch=2 n=45 v=100
28559 On ch=2 n=45 v=0
28560 On ch=2 n=33 v=114
28604 On ch=2 n=33 v=0
28620 On ch=2 n=33 v=100
28674 On ch=2 n=33 v=0
28680 On ch=2 n=45 v=114
28738 On ch=2 n=45 v=0
28740 On ch=2 n=33 v=90
28793 On ch=2 n=33 v=0
28800 On ch=2 n=28 v=110
28859 On ch=2 n=28 v=0
28860 On ch=2 n=35 v=90
28914 On ch=2 n=35 v=0
28920 On ch=2 n=31 v=100
28978 On ch=2 n=31 v=0
28980 On ch=2 n=35 v=84
29033 On ch=2 n=35 v=0
29040 On ch=2 n=28 v=104
29099 On ch=2 n=28 v=0
29100 On ch=2 n=33 v=90
29154 On ch=2 n=33 v=0
29160 On ch=2 n=37 v=100
29218 On ch=2 n=37 v=0
29220 On ch=2 n=33 v=80
29273 On ch=2 n=33 v=0
29280 On ch=2 n=28 v=110
29339 On ch=2 n=28 v=0
29340 On ch=2 n=35 v=90
29394 On ch=2 n=35 v=0
29400 On ch=2 n=31 v=100
29458 On ch=2 n=31 v=0
29460 On ch=2 n=35 v=84
29513 On ch=2 n=35 v=0
29520 On ch=2 n=28 v=104
29579 On ch=2 n=28 v=0
29580 On ch=2 n=33 v=90
29634 On ch=2 n=33 v=0
29640 On ch=2 n=37 v=100
29698 On ch=2 n=37 v=0
29700 On ch=2 n=33 v=80
29753 On ch=2 n=33 v=0
29760 On ch=2 n=38 v=110
29859 On ch=2 n=38 v=0
29880 On ch=2 n=38 v=110
30231 On ch=2 n=38 v=0
30240 On ch=2 n=36 v=110
30289 On ch=2 n=36 v=0
30300 On ch=2 n=36 v=94
30419 On ch=2 n=36 v=0
30420 On ch=2 n=36 v=94
30471 On ch=2 n=36 v=0
30480 On ch=2 n=36 v=104
30569 On ch=2 n=36 v=0
30570 On ch=2 n=36 v=80
30594 On ch=2 n=36 v=0
30600 On ch=2 n=35 v=94
30659 On ch=2 n=35 v=0
30660 On ch=2 n=33 v=80
30709 On ch=2 n=33 v=0
30720 On ch=2 n=28 v=110
30779 On ch=2 n=28 v=0
30780 On ch=2 n=35 v=90
30834 On ch=2 n=35 v=0
30840 On ch=2 n=31 v=100
30898 On ch=2 n=31 v=0
30900 On ch=2 n=35 v=84
30953 On ch=2 n=35 v=0
30960 On ch=2 n=28 v=104
31019 On ch=2 n=28 v=0
31020 On ch=2 n=33 v=90
31074 On ch=2 n=33 v=0
31080 On ch=2 n=37 v=100
31138 On ch=2 n=37 v=0
31140 On ch=2 n=33 v=80
31193 On ch=2 n=33 v=0
31200 On ch=2 n=28 v=110
31259 On ch=2 n=28 v=0
31260 On ch=2 n=35 v=90
31314 On ch=2 n=35 v=0
31320 On ch=2 n=31 v=100
31378 On ch=2 n=31 v=0
31380 On ch=2 n=35 v=84
31433 On ch=2 n=35 v=0
31440 On ch=2 n=28 v=104
31499 On ch=2 n=28 v=0
31500 On ch=2 n=33 v=90
31554 On ch=2 n=33 v=0
31560 On ch=2 n=37 v=100
31618 On ch=2 n=37 v=0
31620 On ch=2 n=33 v=80
31673 On ch=2 n=33 v=0
31680 On ch=2 n=28 v=110
31739 On ch=2 n=28 v=0
31740 On ch=2 n=35 v=90
31794 On ch=2 n=35 v=0
31800 On ch=2 n=31 v=100
31858 On ch=2 n=31 v=0
31860 On ch=2 n=35 v=84
31913 On ch=2 n=35 v=0
31920 On ch=2 n=28 v=104
31979 On ch=2 n=28 v=0
31980 On ch=2 n=33 v=90
32034 On ch=2 n=33 v=0
32040 On ch=2 n=37 v=100
32099 On ch=2 n=37 v=0
32100 On ch=2 n=33 v=80
32153 On ch=2 n=33 v=0
32160 On ch=2 n=28 v=110
32219 On ch=2 n=28 v=0
32220 On ch=2 n=35 v=90
32274 On ch=2 n=35 v=0
32280 On ch=2 n=31 v=100
32338 On ch=2 n=31 v=0
32340 On ch=2 n=35 v=84
32393 On ch=2 n=35 v=0
32400 On ch=2 n=28 v=104
32459 On ch=2 n=28 v=0
32460 On ch=2 n=33 v=90
32514 On ch=2 n=33 v=0
32520 On ch=2 n=37 v=100
32578 On ch=2 n=37 v=0
32580 On ch=2 n=33 v=80
32633 On ch=2 n=33 v=0
32640 On ch=2 n=28 v=110
32699 On ch=2 n=28 v=0
32700 On ch=2 n=35 v=90
32754 On ch=2 n=35 v=0
32760 On ch=2 n=31 v=100
32818 On ch=2 n=31 v=0
32820 On ch=2 n=35 v=84
32873 On ch=2 n=35 v=0
32880 On ch=2 n=28 v=104
32939 On ch=2 n=28 v=0
32940 On ch=2 n=33 v=90
32994 On ch=2 n=33 v=0
33000 On ch=2 n=37 v=100
33058 On ch=2 n=37 v=0
33060 On ch=2 n=33 v=80
33113 On ch=2 n=33 v=0
33120 On ch=2 n=28 v=110
33179 On ch=2 n=28 v=0
33180 On ch=2 n=35 v=90
33234 On ch=2 n=35 v=0
33240 On ch=2 n=31 v=100
33298 On ch=2 n=31 v=0
33300 On ch=2 n=35 v=84
33353 On ch=2 n=35 v=0
33360 On ch=2 n=28 v=104
33419 On ch=2 n=28 v=0
33420 On ch=2 n=33 v=90
33474 On ch=2 n=33 v=0
33480 On ch=2 n=37 v=100
33538 On ch=2 n=37 v=0
33540 On ch=2 n=33 v=80
33593 On ch=2 n=33 v=0
33600 On ch=2 n=28 v=110
33659 On ch=2 n=28 v=0
33660 On ch=2 n=35 v=90
33714 On ch=2 n=35 v=0
33720 On ch=2 n=31 v=100
33778 On ch=2 n=31 v=0
33780 On ch=2 n=35 v=84
33833 On ch=2 n=35 v=0
33840 On ch=2 n=28 v=104
33899 On ch=2 n=28 v=0
33900 On ch=2 n=33 v=90
33954 On ch=2 n=33 v=0
33960 On ch=2 n=37 v=100
34018 On ch=2 n=37 v=0
34020 On ch=2 n=33 v=80
34073 On ch=2 n=33 v=0
34080 On ch=2 n=28 v=110
34139 On ch=2 n=28 v=0
34140 On ch=2 n=35 v=90
34194 On ch=2 n=35 v=0
34200 On ch=2 n=31 v=100
34258 On ch=2 n=31 v=0
34260 On ch=2 n=35 v=84
34313 On ch=2 n=35 v=0
34320 On ch=2 n=28 v=104
34379 On ch=2 n=28 v=0
34380 On ch=2 n=33 v=90
34434 On ch=2 n=33 v=0
34440 On ch=2 n=37 v=100
34498 On ch=2 n=37 v=0
34500 On ch=2 n=33 v=80
34553 On ch=2 n=33 v=0
34560 On ch=2 n=28 v=110
34619 On ch=2 n=28 v=0
34620 On ch=2 n=35 v=90
34674 On ch=2 n=35 v=0
34680 On ch=2 n=31 v=100
34738 On ch=2 n=31 v=0
34740 On ch=2 n=35 v=84
34793 On ch=2 n=35 v=0
34800 On ch=2 n=28 v=104
34859 On ch=2 n=28 v=0
34860 On ch=2 n=33 v=90
34914 On ch=2 n=33 v=0
34920 On ch=2 n=37 v=100
34978 On ch=2 n=37 v=0
34980 On ch=2 n=33 v=80
35033 On ch=2 n=33 v=0
35040 On ch=2 n=28 v=110
35099 On ch=2 n=28 v=0
35100 On ch=2 n=35 v=90
35154 On ch=2 n=35 v=0
35160 On ch=2 n=31 v=100
35218 On ch=2 n=31 v=0
35220 On ch=2 n=35 v=84
35273 On ch=2 n=35 v=0
35280 On ch=2 n=28 v=104
35339 On ch=2 n=28 v=0
35340 On ch=2 n=33 v=90
35394 On ch=2 n=33 v=0
35400 On ch=2 n=37 v=100
35458 On ch=2 n=37 v=0
35460 On ch=2 n=33 v=80
35513 On ch=2 n=33 v=0
35520 On ch=2 n=28 v=110
35579 On ch=2 n=28 v=0
35580 On ch=2 n=35 v=90
35634 On ch=2 n=35 v=0
35640 On ch=2 n=31 v=100
35698 On ch=2 n=31 v=0
35700 On ch=2 n=35 v=84
35753 On ch=2 n=35 v=0
35760 On ch=2 n=28 v=104
35819 On ch=2 n=28 v=0
35820 On ch=2 n=33 v=90
35874 On ch=2 n=33 v=0
35880 On ch=2 n=37 v=100
35938 On ch=2 n=37 v=0
35940 On ch=2 n=33 v=80
35993 On ch=2 n=33 v=0
36000 On ch=2 n=28 v=110
36059 On ch=2 n=28 v=0
36060 On ch=2 n=35 v=90
36114 On ch=2 n=35 v=0
36120 On ch=2 n=31 v=100
36178 On ch=2 n=31 v=0
36180 On ch=2 n=35 v=84
36233 On ch=2 n=35 v=0
36240 On ch=2 n=28 v=104
36299 On ch=2 n=28 v=0
36300 On ch=2 n=33 v=90
36354 On ch=2 n=33 v=0
36360 On ch=2 n=37 v=100
36418 On ch=2 n=37 v=0
36420 On ch=2 n=33 v=80
36473 On ch=2 n=33 v=0
36480 On ch=2 n=28 v=110
36539 On ch=2 n=28 v=0
36540 On ch=2 n=35 v=90
36594 On ch=2 n=35 v=0
36600 On ch=2 n=31 v=100
36658 On ch=2 n=31 v=0
36660 On ch=2 n=35 v=84
36713 On ch=2 n=35 v=0
36720 On ch=2 n=28 v=104
36779 On ch=2 n=28 v=0
36780 On ch=2 n=33 v=90
36834 On ch=2 n=33 v=0
36840 On ch=2 n=37 v=100
36898 On ch=2 n=37 v=0
36900 On ch=2 n=33 v=80
36953 On ch=2 n=33 v=0
36960 On ch=2 n=28 v=110
37019 On ch=2 n=28 v=0
37020 On ch=2 n=35 v=90
37074 On ch=2 n=35 v=0
37080 On ch=2 n=31 v=100
37138 On ch=2 n=31 v=0
37140 On ch=2 n=35 v=84
37193 On ch=2 n=35 v=0
37200 On ch=2 n=28 v=104
37259 On ch=2 n=28 v=0
37260 On ch=2 n=33 v=90
37314 On ch=2 n=33 v=0
37320 On ch=2 n=37 v=100
37378 On ch=2 n=37 v=0
37380 On ch=2 n=33 v=80
37433 On ch=2 n=33 v=0
37440 On ch=2 n=28 v=110
37499 On ch=2 n=28 v=0
37500 On ch=2 n=35 v=90
37554 On ch=2 n=35 v=0
37560 On ch=2 n=31 v=100
37618 On ch=2 n=31 v=0
37620 On ch=2 n=35 v=84
37673 On ch=2 n=35 v=0
37680 On ch=2 n=28 v=104
37739 On ch=2 n=28 v=0
37740 On ch=2 n=33 v=90
37794 On ch=2 n=33 v=0
37800 On ch=2 n=37 v=100
37858 On ch=2 n=37 v=0
37860 On ch=2 n=33 v=80
37913 On ch=2 n=33 v=0
37920 On ch=2 n=28 v=110
37979 On ch=2 n=28 v=0
37980 On ch=2 n=35 v=90
38034 On ch=2 n=35 v=0
38040 On ch=2 n=31 v=100
38098 On ch=2 n=31 v=0
38100 On ch=2 n=35 v=84
38153 On ch=2 n=35 v=0
38160 On ch=2 n=28 v=104
38219 On ch=2 n=28 v=0
38220 On ch=2 n=33 v=90
38274 On ch=2 n=33 v=0
38280 On ch=2 n=37 v=100
38338 On ch=2 n=37 v=0
38340 On ch=2 n=33 v=80
38393 On ch=2 n=33 v=0
38400 On ch=2 n=28 v=110
38459 On ch=2 n=28 v=0
38460 On ch=2 n=35 v=90
38514 On ch=2 n=35 v=0
38520 On ch=2 n=31 v=100
38578 On ch=2 n=31 v=0
38580 On ch=2 n=35 v=84
38633 On ch=2 n=35 v=0
38640 On ch=2 n=28 v=104
38699 On ch=2 n=28 v=0
38700 On ch=2 n=33 v=90
38754 On ch=2 n=33 v=0
38760 On ch=2 n=37 v=100
38818 On ch=2 n=37 v=0
38820 On ch=2 n=33 v=80
38873 On ch=2 n=33 v=0
38880 On ch=2 n=28 v=110
38939 On ch=2 n=28 v=0
38940 On ch=2 n=35 v=90
38994 On ch=2 n=35 v=0
39000 On ch=2 n=31 v=100
39058 On ch=2 n=31 v=0
39060 On ch=2 n=35 v=84
39113 On ch=2 n=35 v=0
39120 On ch=2 n=28 v=104
39179 On ch=2 n=28 v=0
39180 On ch=2 n=33 v=90
39234 On ch=2 n=33 v=0
39240 On ch=2 n=37 v=100
39298 On ch=2 n=37 v=0
39300 On ch=2 n=33 v=80
39353 On ch=2 n=33 v=0
39360 On ch=2 n=28 v=110
39419 On ch=2 n=28 v=0
39420 On ch=2 n=35 v=90
39474 On ch=2 n=35 v=0
39480 On ch=2 n=31 v=100
39538 On ch=2 n=31 v=0
39540 On ch=2 n=35 v=84
39593 On ch=2 n=35 v=0
39600 On ch=2 n=28 v=104
39659 On ch=2 n=28 v=0
39660 On ch=2 n=33 v=90
39714 On ch=2 n=33 v=0
39720 On ch=2 n=37 v=100
39778 On ch=2 n=37 v=0
39780 On ch=2 n=33 v=80
39833 On ch=2 n=33 v=0
39840 On ch=2 n=28 v=110
39899 On ch=2 n=28 v=0
39900 On ch=2 n=35 v=90
39954 On ch=2 n=35 v=0
39960 On ch=2 n=31 v=100
40018 On ch=2 n=31 v=0
40020 On ch=2 n=35 v=84
40073 On ch=2 n=35 v=0
40080 On ch=2 n=28 v=104
40139 On ch=2 n=28 v=0
40140 On ch=2 n=33 v=90
40194 On ch=2 n=33 v=0
40200 On ch=2 n=37 v=100
40258 On ch=2 n=37 v=0
40260 On ch=2 n=33 v=80
40313 On ch=2 n=33 v=0
40320 On ch=2 n=28 v=110
40379 On ch=2 n=28 v=0
40380 On ch=2 n=35 v=90
40434 On ch=2 n=35 v=0
40440 On ch=2 n=31 v=100
40498 On ch=2 n=31 v=0
40500 On ch=2 n=35 v=84
40553 On ch=2 n=35 v=0
40560 On ch=2 n=28 v=104
40619 On ch=2 n=28 v=0
40620 On ch=2 n=33 v=90
40674 On ch=2 n=33 v=0
40680 On ch=2 n=37 v=100
40738 On ch=2 n=37 v=0
40740 On ch=2 n=33 v=80
40793 On ch=2 n=33 v=0
40800 On ch=2 n=28 v=110
40859 On ch=2 n=28 v=0
40860 On ch=2 n=35 v=90
40914 On ch=2 n=35 v=0
40920 On ch=2 n=31 v=100
40978 On ch=2 n=31 v=0
40980 On ch=2 n=35 v=84
41033 On ch=2 n=35 v=0
41040 On ch=2 n=28 v=104
41099 On ch=2 n=28 v=0
41100 On ch=2 n=33 v=90
41154 On ch=2 n=33 v=0
41160 On ch=2 n=37 v=100
41218 On ch=2 n=37 v=0
41220 On ch=2 n=33 v=80
41273 On ch=2 n=33 v=0
41280 On ch=2 n=28 v=110
41339 On ch=2 n=28 v=0
41340 On ch=2 n=35 v=90
41394 On ch=2 n=35 v=0
41400 On ch=2 n=31 v=100
41458 On ch=2 n=31 v=0
41460 On ch=2 n=35 v=84
41513 On ch=2 n=35 v=0
41520 On ch=2 n=28 v=104
41579 On ch=2 n=28 v=0
41580 On ch=2 n=33 v=90
41634 On ch=2 n=33 v=0
41640 On ch=2 n=37 v=100
41698 On ch=2 n=37 v=0
41700 On ch=2 n=33 v=80
41753 On ch=2 n=33 v=0
41760 On ch=2 n=28 v=110
41819 On ch=2 n=28 v=0
41820 On ch=2 n=35 v=90
41874 On ch=2 n=35 v=0
41880 On ch=2 n=31 v=100
41938 On ch=2 n=31 v=0
41940 On ch=2 n=35 v=84
41993 On ch=2 n=35 v=0
42000 On ch=2 n=28 v=104
42059 On ch=2 n=28 v=0
42060 On ch=2 n=33 v=90
42114 On ch=2 n=33 v=0
42120 On ch=2 n=37 v=100
42178 On ch=2 n=37 v=0
42180 On ch=2 n=33 v=80
42233 On ch=2 n=33 v=0
42240 On ch=2 n=28 v=110
42299 On ch=2 n=28 v=0
42300 On ch=2 n=35 v=90
42354 On ch=2 n=35 v=0
42360 On ch=2 n=31 v=100
42418 On ch=2 n=31 v=0
42420 On ch=2 n=35 v=84
42473 On ch=2 n=35 v=0
42480 On ch=2 n=28 v=104
42539 On ch=2 n=28 v=0
42540 On ch=2 n=33 v=90
42594 On ch=2 n=33 v=0
42600 On ch=2 n=37 v=100
42658 On ch=2 n=37 v=0
42660 On ch=2 n=33 v=80
42713 On ch=2 n=33 v=0
42720 On ch=2 n=28 v=110
42779 On ch=2 n=28 v=0
42780 On ch=2 n=35 v=90
42834 On ch=2 n=35 v=0
42840 On ch=2 n=31 v=100
42898 On ch=2 n=31 v=0
42900 On ch=2 n=35 v=84
42953 On ch=2 n=35 v=0
42960 On ch=2 n=28 v=104
43019 On ch=2 n=28 v=0
43020 On ch=2 n=33 v=90
43074 On ch=2 n=33 v=0
43080 On ch=2 n=37 v=100
43138 On ch=2 n=37 v=0
43140 On ch=2 n=33 v=80
43193 On ch=2 n=33 v=0
43200 On ch=2 n=28 v=94
43251 On ch=2 n=28 v=0
44640 On ch=2 n=28 v=110
44699 On ch=2 n=28 v=0
44700 On ch=2 n=35 v=90
44754 On ch=2 n=35 v=0
44760 On ch=2 n=31 v=100
44818 On ch=2 n=31 v=0
44820 On ch=2 n=35 v=84
44873 On ch=2 n=35 v=0
44880 On ch=2 n=28 v=104
44939 On ch=2 n=28 v=0
44940 On ch=2 n=33 v=90
44994 On ch=2 n=33 v=0
45000 On ch=2 n=37 v=100
45058 On ch=2 n=37 v=0
45060 On ch=2 n=33 v=80
45113 On ch=2 n=33 v=0
45120 On ch=2 n=28 v=110
45179 On ch=2 n=28 v=0
45180 On ch=2 n=35 v=90
45234 On ch=2 n=35 v=0
45240 On ch=2 n=31 v=100
45298 On ch=2 n=31 v=0
45300 On ch=2 n=35 v=84
45353 On ch=2 n=35 v=0
45360 On ch=2 n=28 v=104
45419 On ch=2 n=28 v=0
45420 On ch=2 n=33 v=90
45474 On ch=2 n=33 v=0
45480 On ch=2 n=37 v=100
45538 On ch=2 n=37 v=0
45540 On ch=2 n=33 v=80
45593 On ch=2 n=33 v=0
45600 On ch=2 n=28 v=110
45659 On ch=2 n=28 v=0
45660 On ch=2 n=35 v=90
45714 On ch=2 n=35 v=0
45720 On ch=2 n=31 v=100
45778 On ch=2 n=31 v=0
45780 On ch=2 n=35 v=84
45833 On ch=2 n=35 v=0
45840 On ch=2 n=28 v=104
45899 On ch=2 n=28 v=0
45900 On ch=2 n=33 v=90
45954 On ch=2 n=33 v=0
45960 On ch=2 n=37 v=100
46018 On ch=2 n=37 v=0
46020 On ch=2 n=33 v=80
46073 On ch=2 n=33 v=0
46080 On ch=2 n=28 v=110
46139 On ch=2 n=28 v=0
46140 On ch=2 n=35 v=90
46194 On ch=2 n=35 v=0
46200 On ch=2 n=31 v=100
46258 On ch=2 n=31 v=0
46260 On ch=2 n=35 v=84
46313 On ch=2 n=35 v=0
46320 On ch=2 n=28 v=104
46379 On ch=2 n=28 v=0
46380 On ch=2 n=33 v=90
46434 On ch=2 n=33 v=0
46440 On ch=2 n=37 v=100
46498 On ch=2 n=37 v=0
46500 On ch=2 n=33 v=80
46553 On ch=2 n=33 v=0
46560 On ch=2 n=28 v=110
46619 On ch=2 n=28 v=0
46620 On ch=2 n=35 v=90
46674 On ch=2 n=35 v=0
46680 On ch=2 n=31 v=100
46738 On ch=2 n=31 v=0
46740 On ch=2 n=35 v=84
46793 On ch=2 n=35 v=0
46800 On ch=2 n=28 v=104
46859 On ch=2 n=28 v=0
46860 On ch=2 n=33 v=90
46914 On ch=2 n=33 v=0
46920 On ch=2 n=37 v=100
46978 On ch=2 n=37 v=0
46980 On ch=2 n=33 v=80
47033 On ch=2 n=33 v=0
47040 On ch=2 n=28 v=110
47099 On ch=2 n=28 v=0
47100 On ch=2 n=35 v=90
47154 On ch=2 n=35 v=0
47160 On ch=2 n=31 v=100
47218 On ch=2 n=31 v=0
47220 On ch=2 n=35 v=84
47273 On ch=2 n=35 v=0
47280 On ch=2 n=28 v=104
47339 On ch=2 n=28 v=0
47340 On ch=2 n=33 v=90
47394 On ch=2 n=33 v=0
47400 On ch=2 n=37 v=100
47458 On ch=2 n=37 v=0
47460 On ch=2 n=33 v=80
47513 On ch=2 n=33 v=0
47520 On ch=2 n=28 v=110
47579 On ch=2 n=28 v=0
47580 On ch=2 n=35 v=90
47634 On ch=2 n=35 v=0
47640 On ch=2 n=31 v=100
47698 On ch=2 n=31 v=0
47700 On ch=2 n=35 v=84
47753 On ch=2 n=35 v=0
47760 On ch=2 n=28 v=104
47819 On ch=2 n=28 v=0
47820 On ch=2 n=33 v=90
47874 On ch=2 n=33 v=0
47880 On ch=2 n=37 v=100
47938 On ch=2 n=37 v=0
47940 On ch=2 n=33 v=80
47993 On ch=2 n=33 v=0
48000 On ch=2 n=28 v=110
48059 On ch=2 n=28 v=0
48060 On ch=2 n=35 v=90
48114 On ch=2 n=35 v=0
48120 On ch=2 n=31 v=100
48178 On ch=2 n=31 v=0
48180 On ch=2 n=35 v=84
48233 On ch=2 n=35 v=0
48240 On ch=2 n=28 v=104
48299 On ch=2 n=28 v=0
48300 On ch=2 n=33 v=90
48354 On ch=2 n=33 v=0
48360 On ch=2 n=37 v=100
48418 On ch=2 n=37 v=0
48420 On ch=2 n=33 v=80
48473 On ch=2 n=33 v=0
48480 On ch=2 n=28 v=110
48539 On ch=2 n=28 v=0
48540 On ch=2 n=35 v=90
48594 On ch=2 n=35 v=0
48600 On ch=2 n=31 v=100
48658 On ch=2 n=31 v=0
48660 On ch=2 n=35 v=84
48713 On ch=2 n=35 v=0
48720 On ch=2 n=28 v=104
48779 On ch=2 n=28 v=0
48780 On ch=2 n=33 v=90
48834 On ch=2 n=33 v=0
48840 On ch=2 n=37 v=100
48898 On ch=2 n=37 v=0
48900 On ch=2 n=33 v=80
48953 On ch=2 n=33 v=0
48960 On ch=2 n=28 v=110
49019 On ch=2 n=28 v=0
49020 On ch=2 n=35 v=90
49074 On ch=2 n=35 v=0
49080 On ch=2 n=31 v=100
49138 On ch=2 n=31 v=0
49140 On ch=2 n=35 v=84
49193 On ch=2 n=35 v=0
49200 On ch=2 n=28 v=104
49259 On ch=2 n=28 v=0
49260 On ch=2 n=33 v=90
49314 On ch=2 n=33 v=0
49320 On ch=2 n=37 v=100
49378 On ch=2 n=37 v=0
49380 On ch=2 n=33 v=80
49433 On ch=2 n=33 v=0
49440 On ch=2 n=28 v=110
49499 On ch=2 n=28 v=0
49500 On ch=2 n=35 v=90
49554 On ch=2 n=35 v=0
49560 On ch=2 n=31 v=100
49618 On ch=2 n=31 v=0
49620 On ch=2 n=35 v=84
49673 On ch=2 n=35 v=0
49680 On ch=2 n=28 v=104
49739 On ch=2 n=28 v=0
49740 On ch=2 n=33 v=90
49794 On ch=2 n=33 v=0
49800 On ch=2 n=37 v=100
49858 On ch=2 n=37 v=0
49860 On ch=2 n=33 v=80
49913 On ch=2 n=33 v=0
49920 On ch=2 n=28 v=110
49979 On ch=2 n=28 v=0
49980 On ch=2 n=35 v=90
50034 On ch=2 n=35 v=0
50040 On ch=2 n=31 v=100
50098 On ch=2 n=31 v=0
50100 On ch=2 n=35 v=84
50153 On ch=2 n=35 v=0
50160 On ch=2 n=28 v=104
50219 On ch=2 n=28 v=0
50220 On ch=2 n=33 v=90
50274 On ch=2 n=33 v=0
50280 On ch=2 n=37 v=100
50338 On ch=2 n=37 v=0
50340 On ch=2 n=33 v=80
50393 On ch=2 n=33 v=0
50400 On ch=2 n=33 v=84
50424 On ch=2 n=33 v=0
50460 On ch=2 n=33 v=70
50509 On ch=2 n=33 v=0
50520 On ch=2 n=45 v=80
50639 On ch=2 n=45 v=0
50640 On ch=2 n=33 v=94
50670 On ch=2 n=33 v=0
50700 On ch=2 n=33 v=80
50749 On ch=2 n=33 v=0
50760 On ch=2 n=45 v=90
50879 On ch=2 n=45 v=0
50880 On ch=2 n=33 v=100
50917 On ch=2 n=33 v=0
50940 On ch=2 n=33 v=90
50992 On ch=2 n=33 v=0
51000 On ch=2 n=45 v=100
51119 On ch=2 n=45 v=0
51120 On ch=2 n=33 v=114
51164 On ch=2 n=33 v=0
51180 On ch=2 n=33 v=100
51234 On ch=2 n=33 v=0
51240 On ch=2 n=45 v=114
51298 On ch=2 n=45 v=0
51300 On ch=2 n=33 v=90
51353 On ch=2 n=33 v=0
51360 On ch=2 n=28 v=110
51419 On ch=2 n=28 v=0
51420 On ch=2 n=35 v=90
51474 On ch=2 n=35 v=0
51480 On ch=2 n=31 v=100
51538 On ch=2 n=31 v=0
51540 On ch=2 n=35 v=84
51593 On ch=2 n=35 v=0
51600 On ch=2 n=28 v=104
51659 On ch=2 n=28 v=0
51660 On ch=2 n=33 v=90
51714 On ch=2 n=33 v=0
51720 On ch=2 n=37 v=100
51778 On ch=2 n=37 v=0
51780 On ch=2 n=33 v=80
51833 On ch=2 n=33 v=0
51840 On ch=2 n=28 v=110
51899 On ch=2 n=28 v=0
51900 On ch=2 n=35 v=90
51954 On ch=2 n=35 v=0
51960 On ch=2 n=31 v=100
52018 On ch=2 n=31 v=0
52020 On ch=2 n=35 v=84
52073 On ch=2 n=35 v=0
52080 On ch=2 n=28 v=104
52139 On ch=2 n=28 v=0
52140 On ch=2 n=33 v=90
52194 On ch=2 n=33 v=0
52200 On ch=2 n=37 v=100
52258 On ch=2 n=37 v=0
52260 On ch=2 n=33 v=80
52313 On ch=2 n=33 v=0
52320 On ch=2 n=38 v=110
52419 On ch=2 n=38 v=0
52440 On ch=2 n=38 v=110
52791 On ch=2 n=38 v=0
52800 On ch=2 n=36 v=110
52849 On ch=2 n=36 v=0
52860 On ch=2 n=36 v=94
52979 On ch=2 n=36 v=0
52980 On ch=2 n=36 v=94
53031 On ch=2 n=36 v=0
53040 On ch=2 n=36 v=104
53129 On ch=2 n=36 v=0
53130 On ch=2 n=36 v=80
53154 On ch=2 n=36 v=0
53160 On ch=2 n=35 v=94
53219 On ch=2 n=35 v=0
53220 On ch=2 n=33 v=80
53269 On ch=2 n=33 v=0
53281 On ch=2 n=28 v=110
53339 On ch=2 n=28 v=0
53340 On ch=2 n=35 v=90
53394 On ch=2 n=35 v=0
53400 On ch=2 n=31 v=100
53458 On ch=2 n=31 v=0
53460 On ch=2 n=35 v=84
53513 On ch=2 n=35 v=0
53520 On ch=2 n=28 v=104
53579 On ch=2 n=28 v=0
53580 On ch=2 n=33 v=90
53634 On ch=2 n=33 v=0
53640 On ch=2 n=37 v=100
53698 On ch=2 n=37 v=0
53700 On ch=2 n=33 v=80
53753 On ch=2 n=33 v=0
53760 On ch=2 n=28 v=110
53819 On ch=2 n=28 v=0
53820 On ch=2 n=35 v=90
53874 On ch=2 n=35 v=0
53880 On ch=2 n=31 v=100
53938 On ch=2 n=31 v=0
53940 On ch=2 n=35 v=84
53993 On ch=2 n=35 v=0
54000 On ch=2 n=28 v=104
54059 On ch=2 n=28 v=0
54060 On ch=2 n=33 v=90
54114 On ch=2 n=33 v=0
54120 On ch=2 n=37 v=100
54178 On ch=2 n=37 v=0
54180 On ch=2 n=33 v=80
54233 On ch=2 n=33 v=0
54240 On ch=2 n=28 v=110
54299 On ch=2 n=28 v=0
54300 On ch=2 n=35 v=90
54354 On ch=2 n=35 v=0
54360 On ch=2 n=31 v=100
54418 On ch=2 n=31 v=0
54420 On ch=2 n=35 v=84
54473 On ch=2 n=35 v=0
54480 On ch=2 n=28 v=104
54539 On ch=2 n=28 v=0
54540 On ch=2 n=33 v=90
54594 On ch=2 n=33 v=0
54600 On ch=2 n=37 v=100
54658 On ch=2 n=37 v=0
54660 On ch=2 n=33 v=80
54713 On ch=2 n=33 v=0
54720 On ch=2 n=28 v=110
54779 On ch=2 n=28 v=0
54780 On ch=2 n=35 v=90
54834 On ch=2 n=35 v=0
54840 On ch=2 n=31 v=100
54898 On ch=2 n=31 v=0
54900 On ch=2 n=35 v=84
54953 On ch=2 n=35 v=0
54960 On ch=2 n=28 v=104
55019 On ch=2 n=28 v=0
55020 On ch=2 n=33 v=90
55074 On ch=2 n=33 v=0
55080 On ch=2 n=37 v=100
55138 On ch=2 n=37 v=0
55140 On ch=2 n=33 v=80
55193 On ch=2 n=33 v=0
55200 On ch=2 n=28 v=110
55259 On ch=2 n=28 v=0
55260 On ch=2 n=35 v=90
55314 On ch=2 n=35 v=0
55320 On ch=2 n=31 v=100
55378 On ch=2 n=31 v=0
55380 On ch=2 n=35 v=84
55433 On ch=2 n=35 v=0
55440 On ch=2 n=28 v=104
55499 On ch=2 n=28 v=0
55500 On ch=2 n=33 v=90
55554 On ch=2 n=33 v=0
55560 On ch=2 n=37 v=100
55618 On ch=2 n=37 v=0
55620 On ch=2 n=33 v=80
55673 On ch=2 n=33 v=0
55680 On ch=2 n=28 v=110
55739 On ch=2 n=28 v=0
55740 On ch=2 n=35 v=90
55794 On ch=2 n=35 v=0
55800 On ch=2 n=31 v=100
55858 On ch=2 n=31 v=0
55860 On ch=2 n=35 v=84
55913 On ch=2 n=35 v=0
55920 On ch=2 n=28 v=104
55979 On ch=2 n=28 v=0
55980 On ch=2 n=33 v=90
56034 On ch=2 n=33 v=0
56040 On ch=2 n=37 v=100
56098 On ch=2 n=37 v=0
56100 On ch=2 n=33 v=80
56153 On ch=2 n=33 v=0
56160 On ch=2 n=28 v=110
56219 On ch=2 n=28 v=0
56220 On ch=2 n=35 v=90
56274 On ch=2 n=35 v=0
56280 On ch=2 n=31 v=100
56338 On ch=2 n=31 v=0
56340 On ch=2 n=35 v=84
56393 On ch=2 n=35 v=0
56400 On ch=2 n=28 v=104
56459 On ch=2 n=28 v=0
56460 On ch=2 n=33 v=90
56514 On ch=2 n=33 v=0
56520 On ch=2 n=37 v=100
56578 On ch=2 n=37 v=0
56580 On ch=2 n=33 v=80
56633 On ch=2 n=33 v=0
56640 On ch=2 n=28 v=110
56699 On ch=2 n=28 v=0
56700 On ch=2 n=35 v=90
56754 On ch=2 n=35 v=0
56760 On ch=2 n=31 v=100
56818 On ch=2 n=31 v=0
56820 On ch=2 n=35 v=84
56873 On ch=2 n=35 v=0
56880 On ch=2 n=28 v=104
56939 On ch=2 n=28 v=0
56940 On ch=2 n=33 v=90
56994 On ch=2 n=33 v=0
57000 On ch=2 n=37 v=100
57058 On ch=2 n=37 v=0
57060 On ch=2 n=33 v=80
57113 On ch=2 n=33 v=0
57120 On ch=2 n=28 v=110
57179 On ch=2 n=28 v=0
57180 On ch=2 n=35 v=90
57234 On ch=2 n=35 v=0
57240 On ch=2 n=31 v=100
57298 On ch=2 n=31 v=0
57300 On ch=2 n=35 v=84
57353 On ch=2 n=35 v=0
57360 On ch=2 n=28 v=104
57419 On ch=2 n=28 v=0
57420 On ch=2 n=33 v=90
57474 On ch=2 n=33 v=0
57480 On ch=2 n=37 v=100
57538 On ch=2 n=37 v=0
57540 On ch=2 n=33 v=80
57593 On ch=2 n=33 v=0
57600 On ch=2 n=28 v=110
57659 On ch=2 n=28 v=0
57660 On ch=2 n=35 v=90
57714 On ch=2 n=35 v=0
57720 On ch=2 n=31 v=100
57778 On ch=2 n=31 v=0
57780 On ch=2 n=35 v=84
57833 On ch=2 n=35 v=0
57840 On ch=2 n=28 v=104
57899 On ch=2 n=28 v=0
57900 On ch=2 n=33 v=90
57954 On ch=2 n=33 v=0
57960 On ch=2 n=37 v=100
58018 On ch=2 n=37 v=0
58020 On ch=2 n=33 v=80
58073 On ch=2 n=33 v=0
58081 On ch=2 n=28 v=104
58542 On ch=2 n=28 v=0
58542 Meta TrkEnd
TrkEnd
MTrk
0 Meta 0x21 00
0 Meta TrkName "piano   "
1440 On ch=3 n=52 v=113
2142 On ch=3 n=52 v=0
2280 On ch=3 n=76 v=113
2310 On ch=3 n=81 v=119
2340 On ch=3 n=83 v=113
2370 On ch=3 n=88 v=119
2400 On ch=3 n=83 v=0
2400 On ch=3 n=83 v=119
3072 On ch=3 n=81 v=0
3092 On ch=3 n=76 v=0
3094 On ch=3 n=88 v=0
3113 On ch=3 n=83 v=0
3180 On ch=3 n=79 v=99
3203 On ch=3 n=79 v=0
3210 On ch=3 n=81 v=113
3233 On ch=3 n=81 v=0
3240 On ch=3 n=79 v=113
3263 On ch=3 n=79 v=0
3270 On ch=3 n=78 v=99
3293 On ch=3 n=78 v=0
3300 On ch=3 n=76 v=103
3323 On ch=3 n=76 v=0
3330 On ch=3 n=78 v=99
3353 On ch=3 n=78 v=0
3360 On ch=3 n=79 v=113
3383 On ch=3 n=79 v=0
3390 On ch=3 n=74 v=79
3413 On ch=3 n=74 v=0
3420 On ch=3 n=78 v=113
3443 On ch=3 n=78 v=0
3540 On ch=3 n=74 v=113
3653 On ch=3 n=74 v=0
3715 On ch=3 n=74 v=89
3720 On ch=3 n=76 v=113
3723 On ch=3 n=74 v=0
3953 On ch=3 n=76 v=0
4320 On ch=3 n=95 v=113
4350 On ch=3 n=91 v=109
4368 On ch=3 n=95 v=0
4380 On ch=3 n=93 v=113
4398 On ch=3 n=91 v=0
4410 On ch=3 n=90 v=109
4428 On ch=3 n=93 v=0
4440 On ch=3 n=91 v=113
4458 On ch=3 n=90 v=0
4470 On ch=3 n=88 v=109
4488 On ch=3 n=91 v=0
4500 On ch=3 n=90 v=113
4518 On ch=3 n=88 v=0
4530 On ch=3 n=86 v=109
4548 On ch=3 n=90 v=0
4560 On ch=3 n=88 v=113
4578 On ch=3 n=86 v=0
4590 On ch=3 n=85 v=109
4608 On ch=3 n=88 v=0
4620 On ch=3 n=86 v=113
4638 On ch=3 n=85 v=0
4650 On ch=3 n=83 v=109
4668 On ch=3 n=86 v=0
4680 On ch=3 n=85 v=113
4698 On ch=3 n=83 v=0
4710 On ch=3 n=81 v=109
4728 On ch=3 n=85 v=0
4740 On ch=3 n=83 v=113
4758 On ch=3 n=81 v=0
4770 On ch=3 n=79 v=109
4788 On ch=3 n=83 v=0
4800 On ch=3 n=81 v=113
4818 On ch=3 n=79 v=0
4830 On ch=3 n=78 v=109
4848 On ch=3 n=81 v=0
4860 On ch=3 n=79 v=113
4878 On ch=3 n=78 v=0
4890 On ch=3 n=76 v=109
4908 On ch=3 n=79 v=0
4920 On ch=3 n=78 v=113
4938 On ch=3 n=76 v=0
4950 On ch=3 n=74 v=109
4968 On ch=3 n=78 v=0
4980 On ch=3 n=76 v=113
4998 On ch=3 n=74 v=0
5010 On ch=3 n=73 v=109
5028 On ch=3 n=76 v=0
5040 On ch=3 n=74 v=113
5058 On ch=3 n=73 v=0
5070 On ch=3 n=71 v=109
5088 On ch=3 n=74 v=0
5100 On ch=3 n=73 v=113
5118 On ch=3 n=71 v=0
5130 On ch=3 n=69 v=109
5148 On ch=3 n=73 v=0
5160 On ch=3 n=71 v=113
5178 On ch=3 n=69 v=0
5190 On ch=3 n=67 v=109
5208 On ch=3 n=71 v=0
5220 On ch=3 n=69 v=113
5238 On ch=3 n=67 v=0
5250 On ch=3 n=66 v=109
5268 On ch=3 n=69 v=0
5280 On ch=3 n=67 v=113
5298 On ch=3 n=66 v=0
5310 On ch=3 n=64 v=109
5328 On ch=3 n=67 v=0
5340 On ch=3 n=66 v=113
5358 On ch=3 n=64 v=0
5370 On ch=3 n=62 v=109
5388 On ch=3 n=66 v=0
5400 On ch=3 n=64 v=113
5417 On ch=3 n=62 v=0
5430 On ch=3 n=61 v=109
5448 On ch=3 n=64 v=0
5460 On ch=3 n=62 v=113
5478 On ch=3 n=61 v=0
5490 On ch=3 n=59 v=109
5508 On ch=3 n=62 v=0
5520 On ch=3 n=61 v=113
5538 On ch=3 n=59 v=0
5550 On ch=3 n=57 v=109
5568 On ch=3 n=61 v=0
5580 On ch=3 n=59 v=113
5598 On ch=3 n=57 v=0
5628 On ch=3 n=59 v=0
5640 On ch=3 n=62 v=113
5641 On ch=3 n=54 v=113
5641 On ch=3 n=57 v=113
5718 On ch=3 n=54 v=0
5718 On ch=3 n=62 v=0
5719 On ch=3 n=57 v=0
5760 On ch=3 n=59 v=113
5760 On ch=3 n=64 v=113
5761 On ch=3 n=52 v=113
5761 On ch=3 n=55 v=113
5897 On ch=3 n=52 v=0
5898 On ch=3 n=59 v=0
5898 On ch=3 n=64 v=0
5898 On ch=3 n=55 v=0
6120 On ch=3 n=62 v=103
6121 On ch=3 n=54 v=103
6121 On ch=3 n=57 v=103
6198 On ch=3 n=54 v=0
6198 On ch=3 n=62 v=0
6199 On ch=3 n=57 v=0
6240 On ch=3 n=59 v=99
6240 On ch=3 n=64 v=99
6241 On ch=3 n=52 v=99
6241 On ch=3 n=55 v=99
6378 On ch=3 n=55 v=0
6378 On ch=3 n=59 v=0
6378 On ch=3 n=64 v=0
6378 On ch=3 n=52 v=0
6600 On ch=3 n=57 v=103
6600 On ch=3 n=62 v=103
6601 On ch=3 n=54 v=103
6678 On ch=3 n=62 v=0
6678 On ch=3 n=57 v=0
6679 On ch=3 n=54 v=0
6720 On ch=3 n=59 v=93
6720 On ch=3 n=64 v=93
6721 On ch=3 n=52 v=93
6721 On ch=3 n=55 v=93
7080 On ch=3 n=62 v=103
7081 On ch=3 n=54 v=103
7081 On ch=3 n=57 v=103
7094 On ch=3 n=55 v=0
7094 On ch=3 n=52 v=0
7094 On ch=3 n=59 v=0
7094 On ch=3 n=64 v=0
7158 On ch=3 n=57 v=0
7158 On ch=3 n=62 v=0
7159 On ch=3 n=54 v=0
7200 On ch=3 n=59 v=93
7200 On ch=3 n=64 v=93
7201 On ch=3 n=52 v=93
7201 On ch=3 n=55 v=93
7337 On ch=3 n=52 v=0
7338 On ch=3 n=59 v=0
7338 On ch=3 n=64 v=0
7338 On ch=3 n=55 v=0
7680 On ch=3 n=64 v=93
7681 On ch=3 n=52 v=93
7681 On ch=3 n=55 v=93
7681 On ch=3 n=59 v=93
7817 On ch=3 n=52 v=0
7818 On ch=3 n=64 v=0
7818 On ch=3 n=55 v=0
7818 On ch=3 n=59 v=0
8040 On ch=3 n=62 v=89
8041 On ch=3 n=54 v=89
8041 On ch=3 n=57 v=89
8118 On ch=3 n=54 v=0
8118 On ch=3 n=62 v=0
8119 On ch=3 n=57 v=0
8160 On ch=3 n=59 v=93
8160 On ch=3 n=64 v=93
8161 On ch=3 n=52 v=93
8161 On ch=3 n=55 v=93
8298 On ch=3 n=55 v=0
8298 On ch=3 n=59 v=0
8298 On ch=3 n=64 v=0
8298 On ch=3 n=52 v=0
8520 On ch=3 n=57 v=89
8520 On ch=3 n=62 v=89
8521 On ch=3 n=54 v=89
8598 On ch=3 n=62 v=0
8598 On ch=3 n=57 v=0
8599 On ch=3 n=54 v=0
8640 On ch=3 n=64 v=93
8641 On ch=3 n=52 v=93
8641 On ch=3 n=55 v=93
8641 On ch=3 n=59 v=93
8777 On ch=3 n=52 v=0
8778 On ch=3 n=64 v=0
8778 On ch=3 n=55 v=0
8778 On ch=3 n=59 v=0
9000 On ch=3 n=62 v=89
9001 On ch=3 n=54 v=89
9001 On ch=3 n=57 v=89
9078 On ch=3 n=54 v=0
9078 On ch=3 n=62 v=0
9079 On ch=3 n=57 v=0
9120 On ch=3 n=59 v=93
9120 On ch=3 n=64 v=93
9121 On ch=3 n=52 v=93
9121 On ch=3 n=55 v=93
9258 On ch=3 n=55 v=0
9258 On ch=3 n=59 v=0
9258 On ch=3 n=64 v=0
9258 On ch=3 n=52 v=0
9600 On ch=3 n=64 v=103
9600 On ch=3 n=69 v=103
9601 On ch=3 n=72 v=103
9623 On ch=3 n=69 v=0
9623 On ch=3 n=64 v=0
9624 On ch=3 n=72 v=0
9660 On ch=3 n=69 v=99
9661 On ch=3 n=64 v=99
9661 On ch=3 n=72 v=99
9834 On ch=3 n=72 v=0
9834 On ch=3 n=64 v=0
9834 On ch=3 n=69 v=0
9840 On ch=3 n=66 v=109
9840 On ch=3 n=71 v=109
9841 On ch=3 n=74 v=109
9863 On ch=3 n=71 v=0
9863 On ch=3 n=66 v=0
9864 On ch=3 n=74 v=0
9900 On ch=3 n=71 v=109
9901 On ch=3 n=66 v=109
9901 On ch=3 n=74 v=109
10074 On ch=3 n=74 v=0
10074 On ch=3 n=66 v=0
10074 On ch=3 n=71 v=0
10080 On ch=3 n=67 v=113
10081 On ch=3 n=72 v=113
10081 On ch=3 n=76 v=113
10103 On ch=3 n=67 v=0
10104 On ch=3 n=76 v=0
10104 On ch=3 n=72 v=0
10140 On ch=3 n=67 v=109
10140 On ch=3 n=72 v=109
10141 On ch=3 n=76 v=109
10314 On ch=3 n=76 v=0
10314 On ch=3 n=72 v=0
10314 On ch=3 n=67 v=0
10320 On ch=3 n=74 v=119
10320 On ch=3 n=78 v=119
10321 On ch=3 n=69 v=119
10343 On ch=3 n=78 v=0
10343 On ch=3 n=74 v=0
10344 On ch=3 n=69 v=0
10380 On ch=3 n=69 v=113
10381 On ch=3 n=74 v=113
10381 On ch=3 n=78 v=113
10554 On ch=3 n=78 v=0
10554 On ch=3 n=74 v=0
10554 On ch=3 n=69 v=0
10560 On ch=3 n=59 v=93
10560 On ch=3 n=64 v=93
10561 On ch=3 n=52 v=93
10561 On ch=3 n=55 v=93
10698 On ch=3 n=55 v=0
10698 On ch=3 n=59 v=0
10698 On ch=3 n=64 v=0
10698 On ch=3 n=52 v=0
10920 On ch=3 n=57 v=89
10920 On ch=3 n=62 v=89
10921 On ch=3 n=54 v=89
10998 On ch=3 n=54 v=0
10998 On ch=3 n=62 v=0
10998 On ch=3 n=57 v=0
11040 On ch=3 n=64 v=93
11041 On ch=3 n=52 v=93
11041 On ch=3 n=55 v=93
11041 On ch=3 n=59 v=93
11177 On ch=3 n=52 v=0
11178 On ch=3 n=64 v=0
11178 On ch=3 n=55 v=0
11178 On ch=3 n=59 v=0
11520 On ch=3 n=62 v=113
11520 On ch=3 n=66 v=113
11521 On ch=3 n=69 v=113
11582 On ch=3 n=69 v=0
11582 On ch=3 n=66 v=0
11582 On ch=3 n=62 v=0
11640 On ch=3 n=66 v=113
11640 On ch=3 n=69 v=113
11641 On ch=3 n=62 v=113
11991 On ch=3 n=62 v=0
11991 On ch=3 n=69 v=0
11991 On ch=3 n=66 v=0
12000 On ch=3 n=60 v=119
12001 On ch=3 n=64 v=119
12001 On ch=3 n=67 v=119
12024 On ch=3 n=67 v=0
12024 On ch=3 n=64 v=0
12024 On ch=3 n=60 v=0
12060 On ch=3 n=67 v=113
12061 On ch=3 n=60 v=113
12061 On ch=3 n=64 v=113
12471 On ch=3 n=64 v=0
12471 On ch=3 n=60 v=0
12471 On ch=3 n=67 v=0
12480 On ch=3 n=67 v=113
12481 On ch=3 n=59 v=113
12531 On ch=3 n=59 v=0
12531 On ch=3 n=67 v=0
12540 On ch=3 n=55 v=89
12564 On ch=3 n=55 v=0
12600 On ch=3 n=67 v=119
12601 On ch=3 n=59 v=119
12612 On ch=3 n=59 v=0
12612 On ch=3 n=67 v=0
12660 On ch=3 n=69 v=119
12661 On ch=3 n=61 v=119
12771 On ch=3 n=61 v=0
12771 On ch=3 n=69 v=0
12780 On ch=3 n=55 v=89
12804 On ch=3 n=55 v=0
12840 On ch=3 n=61 v=113
12840 On ch=3 n=69 v=113
12852 On ch=3 n=69 v=0
12852 On ch=3 n=61 v=0
12900 On ch=3 n=62 v=119
12900 On ch=3 n=71 v=119
13011 On ch=3 n=71 v=0
13011 On ch=3 n=62 v=0
13020 On ch=3 n=55 v=89
13044 On ch=3 n=55 v=0
13080 On ch=3 n=62 v=119
13080 On ch=3 n=71 v=119
13092 On ch=3 n=71 v=0
13092 On ch=3 n=62 v=0
13140 On ch=3 n=61 v=113
13140 On ch=3 n=69 v=113
13251 On ch=3 n=69 v=0
13251 On ch=3 n=61 v=0
13260 On ch=3 n=55 v=89
13284 On ch=3 n=55 v=0
13320 On ch=3 n=69 v=113
13321 On ch=3 n=61 v=113
13431 On ch=3 n=61 v=0
13431 On ch=3 n=69 v=0
13440 On ch=3 n=59 v=113
13440 On ch=3 n=67 v=113
13491 On ch=3 n=67 v=0
13491 On ch=3 n=59 v=0
13500 On ch=3 n=55 v=89
13524 On ch=3 n=55 v=0
13560 On ch=3 n=59 v=119
13560 On ch=3 n=67 v=119
13572 On ch=3 n=67 v=0
13572 On ch=3 n=59 v=0
13620 On ch=3 n=61 v=119
13620 On ch=3 n=69 v=119
13731 On ch=3 n=69 v=0
13731 On ch=3 n=61 v=0
13740 On ch=3 n=55 v=89
13764 On ch=3 n=55 v=0
13800 On ch=3 n=61 v=113
13800 On ch=3 n=69 v=113
13812 On ch=3 n=69 v=0
13812 On ch=3 n=61 v=0
13860 On ch=3 n=62 v=119
13860 On ch=3 n=71 v=119
13971 On ch=3 n=71 v=0
13971 On ch=3 n=62 v=0
13980 On ch=3 n=55 v=89
14004 On ch=3 n=55 v=0
14040 On ch=3 n=62 v=119
14040 On ch=3 n=71 v=119
14051 On ch=3 n=71 v=0
14052 On ch=3 n=62 v=0
14100 On ch=3 n=61 v=113
14100 On ch=3 n=69 v=113
14211 On ch=3 n=69 v=0
14211 On ch=3 n=61 v=0
14220 On ch=3 n=55 v=89
14244 On ch=3 n=55 v=0
14280 On ch=3 n=69 v=113
14281 On ch=3 n=61 v=113
14391 On ch=3 n=61 v=0
14391 On ch=3 n=69 v=0
14400 On ch=3 n=59 v=113
14400 On ch=3 n=67 v=113
14451 On ch=3 n=67 v=0
14451 On ch=3 n=59 v=0
14460 On ch=3 n=55 v=89
14484 On ch=3 n=55 v=0
14520 On ch=3 n=59 v=119
14520 On ch=3 n=67 v=119
14531 On ch=3 n=59 v=0
14532 On ch=3 n=67 v=0
14580 On ch=3 n=61 v=119
14580 On ch=3 n=69 v=119
14691 On ch=3 n=69 v=0
14691 On ch=3 n=61 v=0
14700 On ch=3 n=55 v=89
14724 On ch=3 n=55 v=0
14760 On ch=3 n=61 v=113
14760 On ch=3 n=69 v=113
14772 On ch=3 n=69 v=0
14772 On ch=3 n=61 v=0
14820 On ch=3 n=62 v=119
14820 On ch=3 n=71 v=119
14931 On ch=3 n=71 v=0
14931 On ch=3 n=62 v=0
14940 On ch=3 n=55 v=89
14964 On ch=3 n=55 v=0
15000 On ch=3 n=62 v=119
15000 On ch=3 n=71 v=119
15012 On ch=3 n=71 v=0
15012 On ch=3 n=62 v=0
15060 On ch=3 n=69 v=113
15061 On ch=3 n=61 v=113
15171 On ch=3 n=61 v=0
15171 On ch=3 n=69 v=0
15180 On ch=3 n=55 v=89
15204 On ch=3 n=55 v=0
15240 On ch=3 n=69 v=113
15241 On ch=3 n=61 v=113
15351 On ch=3 n=61 v=0
15351 On ch=3 n=69 v=0
15360 On ch=3 n=64 v=118
15360 On ch=3 n=69 v=118
15361 On ch=3 n=72 v=118
15383 On ch=3 n=69 v=0
15383 On ch=3 n=64 v=0
15384 On ch=3 n=72 v=0
15420 On ch=3 n=69 v=114
15421 On ch=3 n=64 v=114
15421 On ch=3 n=72 v=114
15594 On ch=3 n=72 v=0
15594 On ch=3 n=64 v=0
15594 On ch=3 n=69 v=0
15600 On ch=3 n=66 v=124
15600 On ch=3 n=71 v=124
15601 On ch=3 n=74 v=124
15623 On ch=3 n=71 v=0
15623 On ch=3 n=66 v=0
15624 On ch=3 n=74 v=0
15660 On ch=3 n=66 v=124
15660 On ch=3 n=71 v=124
15661 On ch=3 n=74 v=124
15834 On ch=3 n=74 v=0
15834 On ch=3 n=71 v=0
15834 On ch=3 n=66 v=0
15840 On ch=3 n=67 v=127
15841 On ch=3 n=72 v=127
15841 On ch=3 n=76 v=127
15863 On ch=3 n=67 v=0
15864 On ch=3 n=76 v=0
15864 On ch=3 n=72 v=0
15900 On ch=3 n=72 v=124
15901 On ch=3 n=67 v=124
15901 On ch=3 n=76 v=124
16074 On ch=3 n=76 v=0
16074 On ch=3 n=67 v=0
16074 On ch=3 n=72 v=0
16080 On ch=3 n=74 v=127
16080 On ch=3 n=78 v=127
16081 On ch=3 n=69 v=127
16103 On ch=3 n=78 v=0
16103 On ch=3 n=74 v=0
16104 On ch=3 n=69 v=0
16140 On ch=3 n=69 v=127
16140 On ch=3 n=78 v=127
16141 On ch=3 n=74 v=127
16314 On ch=3 n=74 v=0
16314 On ch=3 n=78 v=0
16314 On ch=3 n=69 v=0
16320 On ch=3 n=67 v=113
16321 On ch=3 n=59 v=113
16371 On ch=3 n=59 v=0
16371 On ch=3 n=67 v=0
16380 On ch=3 n=55 v=89
16404 On ch=3 n=55 v=0
16440 On ch=3 n=59 v=119
16440 On ch=3 n=67 v=119
16452 On ch=3 n=67 v=0
16452 On ch=3 n=59 v=0
16500 On ch=3 n=61 v=119
16500 On ch=3 n=69 v=119
16611 On ch=3 n=69 v=0
16611 On ch=3 n=61 v=0
16620 On ch=3 n=55 v=89
16644 On ch=3 n=55 v=0
16680 On ch=3 n=61 v=113
16680 On ch=3 n=69 v=113
16692 On ch=3 n=69 v=0
16692 On ch=3 n=61 v=0
16740 On ch=3 n=62 v=119
16740 On ch=3 n=71 v=119
16850 On ch=3 n=62 v=0
16851 On ch=3 n=71 v=0
16860 On ch=3 n=55 v=89
16884 On ch=3 n=55 v=0
16920 On ch=3 n=62 v=119
16921 On ch=3 n=71 v=119
16932 On ch=3 n=71 v=0
16932 On ch=3 n=62 v=0
16980 On ch=3 n=61 v=113
16980 On ch=3 n=69 v=113
17090 On ch=3 n=61 v=0
17091 On ch=3 n=69 v=0
17100 On ch=3 n=55 v=89
17124 On ch=3 n=55 v=0
17160 On ch=3 n=61 v=113
17160 On ch=3 n=69 v=113
17270 On ch=3 n=61 v=0
17271 On ch=3 n=69 v=0
17280 On ch=3 n=62 v=123
17280 On ch=3 n=66 v=123
17281 On ch=3 n=69 v=123
17342 On ch=3 n=69 v=0
17342 On ch=3 n=66 v=0
17342 On ch=3 n=62 v=0
17400 On ch=3 n=69 v=123
17401 On ch=3 n=62 v=123
17401 On ch=3 n=66 v=123
17751 On ch=3 n=66 v=0
17751 On ch=3 n=62 v=0
17751 On ch=3 n=69 v=0
17760 On ch=3 n=60 v=127
17761 On ch=3 n=64 v=127
17761 On ch=3 n=67 v=127
17784 On ch=3 n=67 v=0
17784 On ch=3 n=64 v=0
17784 On ch=3 n=60 v=0
17820 On ch=3 n=64 v=123
17820 On ch=3 n=67 v=123
17821 On ch=3 n=60 v=123
18230 On ch=3 n=64 v=0
18231 On ch=3 n=60 v=0
18231 On ch=3 n=67 v=0
18240 On ch=3 n=59 v=113
18240 On ch=3 n=67 v=113
18291 On ch=3 n=67 v=0
18291 On ch=3 n=59 v=0
18300 On ch=3 n=55 v=89
18324 On ch=3 n=55 v=0
18360 On ch=3 n=59 v=119
18360 On ch=3 n=67 v=119
18372 On ch=3 n=67 v=0
18372 On ch=3 n=59 v=0
18420 On ch=3 n=61 v=119
18420 On ch=3 n=69 v=119
18531 On ch=3 n=69 v=0
18531 On ch=3 n=61 v=0
18540 On ch=3 n=55 v=89
18564 On ch=3 n=55 v=0
18600 On ch=3 n=61 v=113
18600 On ch=3 n=69 v=113
18612 On ch=3 n=61 v=0
18613 On ch=3 n=69 v=0
18660 On ch=3 n=62 v=119
18660 On ch=3 n=71 v=119
18770 On ch=3 n=62 v=0
18771 On ch=3 n=71 v=0
18780 On ch=3 n=55 v=89
18804 On ch=3 n=55 v=0
18840 On ch=3 n=62 v=119
18840 On ch=3 n=71 v=119
18852 On ch=3 n=71 v=0
18852 On ch=3 n=62 v=0
18900 On ch=3 n=61 v=113
18900 On ch=3 n=69 v=113
19011 On ch=3 n=69 v=0
19011 On ch=3 n=61 v=0
19020 On ch=3 n=55 v=89
19044 On ch=3 n=55 v=0
19080 On ch=3 n=69 v=113
19081 On ch=3 n=61 v=113
19191 On ch=3 n=61 v=0
19191 On ch=3 n=69 v=0
19200 On ch=3 n=64 v=93
19201 On ch=3 n=52 v=93
19201 On ch=3 n=55 v=93
19201 On ch=3 n=59 v=93
19337 On ch=3 n=52 v=0
19338 On ch=3 n=64 v=0
19338 On ch=3 n=55 v=0
19338 On ch=3 n=59 v=0
19560 On ch=3 n=62 v=89
19561 On ch=3 n=54 v=89
19561 On ch=3 n=57 v=89
19638 On ch=3 n=54 v=0
19638 On ch=3 n=62 v=0
19639 On ch=3 n=57 v=0
19680 On ch=3 n=59 v=93
19680 On ch=3 n=64 v=93
19681 On ch=3 n=52 v=93
19681 On ch=3 n=55 v=93
19818 On ch=3 n=55 v=0
19818 On ch=3 n=59 v=0
19818 On ch=3 n=64 v=0
19818 On ch=3 n=52 v=0
20040 On ch=3 n=57 v=89
20040 On ch=3 n=62 v=89
20041 On ch=3 n=54 v=89
20118 On ch=3 n=54 v=0
20118 On ch=3 n=62 v=0
20118 On ch=3 n=57 v=0
20160 On ch=3 n=59 v=93
20160 On ch=3 n=64 v=93
20161 On ch=3 n=52 v=93
20161 On ch=3 n=55 v=93
20297 On ch=3 n=52 v=0
20298 On ch=3 n=59 v=0
20298 On ch=3 n=64 v=0
20298 On ch=3 n=55 v=0
20520 On ch=3 n=62 v=89
20521 On ch=3 n=54 v=89
20521 On ch=3 n=57 v=89
20598 On ch=3 n=62 v=0
20599 On ch=3 n=57 v=0
20599 On ch=3 n=54 v=0
20640 On ch=3 n=59 v=93
20640 On ch=3 n=64 v=93
20641 On ch=3 n=52 v=93
20641 On ch=3 n=55 v=93
20777 On ch=3 n=52 v=0
20778 On ch=3 n=59 v=0
20778 On ch=3 n=64 v=0
20778 On ch=3 n=55 v=0
21120 On ch=3 n=64 v=118
21120 On ch=3 n=69 v=118
21121 On ch=3 n=72 v=118
21143 On ch=3 n=69 v=0
21143 On ch=3 n=64 v=0
21144 On ch=3 n=72 v=0
21180 On ch=3 n=69 v=114
21181 On ch=3 n=64 v=114
21181 On ch=3 n=72 v=114
21354 On ch=3 n=72 v=0
21354 On ch=3 n=64 v=0
21354 On ch=3 n=69 v=0
21360 On ch=3 n=66 v=124
21360 On ch=3 n=71 v=124
21361 On ch=3 n=74 v=124
21383 On ch=3 n=71 v=0
21383 On ch=3 n=66 v=0
21384 On ch=3 n=74 v=0
21420 On ch=3 n=66 v=124
21420 On ch=3 n=71 v=124
21421 On ch=3 n=74 v=124
21594 On ch=3 n=74 v=0
21594 On ch=3 n=71 v=0
21594 On ch=3 n=66 v=0
21600 On ch=3 n=67 v=127
21601 On ch=3 n=72 v=127
21601 On ch=3 n=76 v=127
21623 On ch=3 n=67 v=0
21624 On ch=3 n=76 v=0
21624 On ch=3 n=72 v=0
21660 On ch=3 n=72 v=124
21661 On ch=3 n=67 v=124
21661 On ch=3 n=76 v=124
21834 On ch=3 n=76 v=0
21834 On ch=3 n=67 v=0
21834 On ch=3 n=72 v=0
21840 On ch=3 n=74 v=127
21840 On ch=3 n=78 v=127
21841 On ch=3 n=69 v=127
21863 On ch=3 n=78 v=0
21863 On ch=3 n=74 v=0
21864 On ch=3 n=69 v=0
21900 On ch=3 n=69 v=127
21900 On ch=3 n=78 v=127
21901 On ch=3 n=74 v=127
22074 On ch=3 n=74 v=0
22074 On ch=3 n=78 v=0
22074 On ch=3 n=69 v=0
22080 On ch=3 n=59 v=93
22080 On ch=3 n=64 v=93
22081 On ch=3 n=52 v=93
22081 On ch=3 n=55 v=93
22218 On ch=3 n=55 v=0
22218 On ch=3 n=59 v=0
22218 On ch=3 n=64 v=0
22218 On ch=3 n=52 v=0
22440 On ch=3 n=62 v=89
22441 On ch=3 n=54 v=89
22441 On ch=3 n=57 v=89
22518 On ch=3 n=54 v=0
22518 On ch=3 n=62 v=0
22519 On ch=3 n=57 v=0
22560 On ch=3 n=59 v=93
22560 On ch=3 n=64 v=93
22561 On ch=3 n=52 v=93
22561 On ch=3 n=55 v=93
22697 On ch=3 n=52 v=0
22698 On ch=3 n=59 v=0
22698 On ch=3 n=64 v=0
22698 On ch=3 n=55 v=0
23040 On ch=3 n=62 v=123
23041 On ch=3 n=66 v=123
23041 On ch=3 n=69 v=123
23102 On ch=3 n=69 v=0
23102 On ch=3 n=66 v=0
23102 On ch=3 n=62 v=0
23160 On ch=3 n=69 v=123
23161 On ch=3 n=62 v=123
23161 On ch=3 n=66 v=123
23511 On ch=3 n=66 v=0
23511 On ch=3 n=62 v=0
23511 On ch=3 n=69 v=0
23520 On ch=3 n=60 v=127
23521 On ch=3 n=64 v=127
23521 On ch=3 n=67 v=127
23544 On ch=3 n=67 v=0
23544 On ch=3 n=64 v=0
23544 On ch=3 n=60 v=0
23580 On ch=3 n=67 v=123
23581 On ch=3 n=60 v=123
23581 On ch=3 n=64 v=123
23991 On ch=3 n=64 v=0
23991 On ch=3 n=60 v=0
23991 On ch=3 n=67 v=0
24001 On ch=3 n=59 v=113
24001 On ch=3 n=67 v=113
24051 On ch=3 n=67 v=0
24051 On ch=3 n=59 v=0
24060 On ch=3 n=55 v=89
24084 On ch=3 n=55 v=0
24120 On ch=3 n=67 v=119
24121 On ch=3 n=59 v=119
24132 On ch=3 n=59 v=0
24132 On ch=3 n=67 v=0
24180 On ch=3 n=61 v=119
24180 On ch=3 n=69 v=119
24291 On ch=3 n=69 v=0
24291 On ch=3 n=61 v=0
24300 On ch=3 n=55 v=89
24324 On ch=3 n=55 v=0
24360 On ch=3 n=69 v=113
24361 On ch=3 n=61 v=113
24372 On ch=3 n=61 v=0
24372 On ch=3 n=69 v=0
24420 On ch=3 n=71 v=119
24421 On ch=3 n=62 v=119
24531 On ch=3 n=62 v=0
24531 On ch=3 n=71 v=0
24540 On ch=3 n=55 v=89
24564 On ch=3 n=55 v=0
24600 On ch=3 n=62 v=119
24600 On ch=3 n=71 v=119
24611 On ch=3 n=71 v=0
24612 On ch=3 n=62 v=0
24660 On ch=3 n=61 v=113
24660 On ch=3 n=69 v=113
24771 On ch=3 n=69 v=0
24771 On ch=3 n=61 v=0
24780 On ch=3 n=55 v=89
24804 On ch=3 n=55 v=0
24840 On ch=3 n=61 v=113
24840 On ch=3 n=69 v=113
24951 On ch=3 n=69 v=0
24951 On ch=3 n=61 v=0
24960 On ch=3 n=59 v=113
24960 On ch=3 n=67 v=113
25011 On ch=3 n=67 v=0
25011 On ch=3 n=59 v=0
25020 On ch=3 n=55 v=89
25044 On ch=3 n=55 v=0
25080 On ch=3 n=59 v=119
25080 On ch=3 n=67 v=119
25092 On ch=3 n=67 v=0
25092 On ch=3 n=59 v=0
25140 On ch=3 n=61 v=119
25140 On ch=3 n=69 v=119
25251 On ch=3 n=69 v=0
25251 On ch=3 n=61 v=0
25260 On ch=3 n=55 v=89
25284 On ch=3 n=55 v=0
25320 On ch=3 n=61 v=113
25320 On ch=3 n=69 v=113
25332 On ch=3 n=69 v=0
25332 On ch=3 n=61 v=0
25380 On ch=3 n=62 v=119
25380 On ch=3 n=71 v=119
25491 On ch=3 n=71 v=0
25491 On ch=3 n=62 v=0
25500 On ch=3 n=55 v=89
25524 On ch=3 n=55 v=0
25560 On ch=3 n=62 v=119
25560 On ch=3 n=71 v=119
25571 On ch=3 n=71 v=0
25572 On ch=3 n=62 v=0
25620 On ch=3 n=61 v=113
25620 On ch=3 n=69 v=113
25731 On ch=3 n=69 v=0
25731 On ch=3 n=61 v=0
25740 On ch=3 n=55 v=89
25764 On ch=3 n=55 v=0
25800 On ch=3 n=61 v=113
25800 On ch=3 n=69 v=113
25911 On ch=3 n=69 v=0
25911 On ch=3 n=61 v=0
25920 On ch=3 n=59 v=113
25920 On ch=3 n=67 v=113
25971 On ch=3 n=67 v=0
25971 On ch=3 n=59 v=0
25980 On ch=3 n=55 v=89
26004 On ch=3 n=55 v=0
26040 On ch=3 n=59 v=119
26040 On ch=3 n=67 v=119
26052 On ch=3 n=67 v=0
26052 On ch=3 n=59 v=0
26100 On ch=3 n=69 v=119
26101 On ch=3 n=61 v=119
26211 On ch=3 n=61 v=0
26211 On ch=3 n=69 v=0
26220 On ch=3 n=55 v=89
26244 On ch=3 n=55 v=0
26280 On ch=3 n=61 v=113
26280 On ch=3 n=69 v=113
26291 On ch=3 n=61 v=0
26292 On ch=3 n=69 v=0
26340 On ch=3 n=71 v=119
26341 On ch=3 n=62 v=119
26451 On ch=3 n=62 v=0
26451 On ch=3 n=71 v=0
26460 On ch=3 n=55 v=89
26484 On ch=3 n=55 v=0
26520 On ch=3 n=62 v=119
26520 On ch=3 n=71 v=119
26532 On ch=3 n=71 v=0
26532 On ch=3 n=62 v=0
26580 On ch=3 n=61 v=113
26580 On ch=3 n=69 v=113
26690 On ch=3 n=61 v=0
26691 On ch=3 n=69 v=0
26700 On ch=3 n=55 v=89
26724 On ch=3 n=55 v=0
26760 On ch=3 n=61 v=113
26760 On ch=3 n=69 v=113
26870 On ch=3 n=61 v=0
26871 On ch=3 n=69 v=0
26880 On ch=3 n=67 v=113
26881 On ch=3 n=59 v=113
26931 On ch=3 n=59 v=0
26931 On ch=3 n=67 v=0
26940 On ch=3 n=55 v=89
26964 On ch=3 n=55 v=0
27000 On ch=3 n=59 v=119
27000 On ch=3 n=67 v=119
27012 On ch=3 n=67 v=0
27012 On ch=3 n=59 v=0
27060 On ch=3 n=61 v=119
27060 On ch=3 n=69 v=119
27171 On ch=3 n=69 v=0
27171 On ch=3 n=61 v=0
27180 On ch=3 n=55 v=89
27204 On ch=3 n=55 v=0
27240 On ch=3 n=61 v=113
27240 On ch=3 n=69 v=113
27252 On ch=3 n=69 v=0
27252 On ch=3 n=61 v=0
27300 On ch=3 n=71 v=119
27301 On ch=3 n=62 v=119
27411 On ch=3 n=62 v=0
27411 On ch=3 n=71 v=0
27420 On ch=3 n=55 v=89
27444 On ch=3 n=55 v=0
27480 On ch=3 n=62 v=119
27481 On ch=3 n=71 v=119
27492 On ch=3 n=71 v=0
27492 On ch=3 n=62 v=0
27540 On ch=3 n=61 v=113
27540 On ch=3 n=69 v=113
27650 On ch=3 n=61 v=0
27651 On ch=3 n=69 v=0
27660 On ch=3 n=55 v=89
27684 On ch=3 n=55 v=0
27720 On ch=3 n=69 v=113
27721 On ch=3 n=61 v=113
27831 On ch=3 n=61 v=0
27831 On ch=3 n=69 v=0
27840 On ch=3 n=69 v=118
27841 On ch=3 n=64 v=118
27841 On ch=3 n=72 v=118
27863 On ch=3 n=69 v=0
27864 On ch=3 n=72 v=0
27864 On ch=3 n=64 v=0
27900 On ch=3 n=69 v=114
27901 On ch=3 n=64 v=114
27901 On ch=3 n=72 v=114
28074 On ch=3 n=72 v=0
28074 On ch=3 n=64 v=0
28074 On ch=3 n=69 v=0
28080 On ch=3 n=71 v=124
28081 On ch=3 n=66 v=124
28081 On ch=3 n=74 v=124
28103 On ch=3 n=71 v=0
28104 On ch=3 n=74 v=0
28104 On ch=3 n=66 v=0
28140 On ch=3 n=71 v=124
28141 On ch=3 n=66 v=124
28141 On ch=3 n=74 v=124
28314 On ch=3 n=74 v=0
28314 On ch=3 n=66 v=0
28314 On ch=3 n=71 v=0
28320 On ch=3 n=67 v=127
28320 On ch=3 n=72 v=127
28321 On ch=3 n=76 v=127
28343 On ch=3 n=72 v=0
28343 On ch=3 n=67 v=0
28344 On ch=3 n=76 v=0
28380 On ch=3 n=72 v=124
28381 On ch=3 n=67 v=124
28381 On ch=3 n=76 v=124
28554 On ch=3 n=76 v=0
28554 On ch=3 n=67 v=0
28554 On ch=3 n=72 v=0
28560 On ch=3 n=78 v=127
28561 On ch=3 n=69 v=127
28561 On ch=3 n=74 v=127
28584 On ch=3 n=74 v=0
28584 On ch=3 n=69 v=0
28584 On ch=3 n=78 v=0
28620 On ch=3 n=69 v=127
28620 On ch=3 n=78 v=127
28621 On ch=3 n=74 v=127
28794 On ch=3 n=74 v=0
28794 On ch=3 n=78 v=0
28794 On ch=3 n=69 v=0
28800 On ch=3 n=67 v=113
28801 On ch=3 n=59 v=113
28851 On ch=3 n=59 v=0
28851 On ch=3 n=67 v=0
28860 On ch=3 n=55 v=89
28884 On ch=3 n=55 v=0
28920 On ch=3 n=59 v=119
28920 On ch=3 n=67 v=119
28932 On ch=3 n=67 v=0
28932 On ch=3 n=59 v=0
28980 On ch=3 n=61 v=119
28980 On ch=3 n=69 v=119
29090 On ch=3 n=61 v=0
29091 On ch=3 n=69 v=0
29100 On ch=3 n=55 v=89
29124 On ch=3 n=55 v=0
29160 On ch=3 n=61 v=113
29160 On ch=3 n=69 v=113
29171 On ch=3 n=61 v=0
29172 On ch=3 n=69 v=0
29220 On ch=3 n=62 v=119
29220 On ch=3 n=71 v=119
29330 On ch=3 n=62 v=0
29331 On ch=3 n=71 v=0
29340 On ch=3 n=55 v=89
29364 On ch=3 n=55 v=0
29400 On ch=3 n=62 v=119
29400 On ch=3 n=71 v=119
29412 On ch=3 n=71 v=0
29412 On ch=3 n=62 v=0
29460 On ch=3 n=61 v=113
29460 On ch=3 n=69 v=113
29571 On ch=3 n=69 v=0
29571 On ch=3 n=61 v=0
29580 On ch=3 n=55 v=89
29604 On ch=3 n=55 v=0
29640 On ch=3 n=69 v=113
29641 On ch=3 n=61 v=113
29751 On ch=3 n=61 v=0
29751 On ch=3 n=69 v=0
29760 On ch=3 n=62 v=123
29760 On ch=3 n=66 v=123
29761 On ch=3 n=69 v=123
29822 On ch=3 n=69 v=0
29822 On ch=3 n=66 v=0
29822 On ch=3 n=62 v=0
29880 On ch=3 n=66 v=123
29880 On ch=3 n=69 v=123
29881 On ch=3 n=62 v=123
30231 On ch=3 n=62 v=0
30231 On ch=3 n=69 v=0
30231 On ch=3 n=66 v=0
30240 On ch=3 n=60 v=127
30241 On ch=3 n=64 v=127
30241 On ch=3 n=67 v=127
30264 On ch=3 n=67 v=0
30264 On ch=3 n=64 v=0
30264 On ch=3 n=60 v=0
30300 On ch=3 n=64 v=123
30300 On ch=3 n=67 v=123
30301 On ch=3 n=60 v=123
30710 On ch=3 n=64 v=0
30711 On ch=3 n=60 v=0
30711 On ch=3 n=67 v=0
30720 On ch=3 n=67 v=113
30721 On ch=3 n=59 v=113
30771 On ch=3 n=59 v=0
30771 On ch=3 n=67 v=0
30780 On ch=3 n=55 v=89
30804 On ch=3 n=55 v=0
30840 On ch=3 n=59 v=119
30840 On ch=3 n=67 v=119
30852 On ch=3 n=67 v=0
30852 On ch=3 n=59 v=0
30900 On ch=3 n=61 v=119
30900 On ch=3 n=69 v=119
31010 On ch=3 n=61 v=0
31011 On ch=3 n=69 v=0
31020 On ch=3 n=55 v=89
31044 On ch=3 n=55 v=0
31080 On ch=3 n=61 v=113
31080 On ch=3 n=69 v=113
31091 On ch=3 n=61 v=0
31092 On ch=3 n=69 v=0
31140 On ch=3 n=62 v=119
31140 On ch=3 n=71 v=119
31250 On ch=3 n=62 v=0
31251 On ch=3 n=71 v=0
31260 On ch=3 n=55 v=89
31284 On ch=3 n=55 v=0
31320 On ch=3 n=62 v=119
31320 On ch=3 n=71 v=119
31332 On ch=3 n=71 v=0
31332 On ch=3 n=62 v=0
31380 On ch=3 n=61 v=113
31380 On ch=3 n=69 v=113
31491 On ch=3 n=69 v=0
31491 On ch=3 n=61 v=0
31500 On ch=3 n=55 v=89
31524 On ch=3 n=55 v=0
31560 On ch=3 n=69 v=113
31561 On ch=3 n=61 v=113
31671 On ch=3 n=61 v=0
31671 On ch=3 n=69 v=0
31680 On ch=3 n=59 v=93
31680 On ch=3 n=64 v=93
31681 On ch=3 n=52 v=93
31681 On ch=3 n=55 v=93
31817 On ch=3 n=55 v=0
31817 On ch=3 n=52 v=0
31818 On ch=3 n=64 v=0
31818 On ch=3 n=59 v=0
32040 On ch=3 n=57 v=89
32040 On ch=3 n=62 v=89
32041 On ch=3 n=54 v=89
32118 On ch=3 n=54 v=0
32118 On ch=3 n=62 v=0
32118 On ch=3 n=57 v=0
32160 On ch=3 n=59 v=93
32160 On ch=3 n=64 v=93
32161 On ch=3 n=52 v=93
32161 On ch=3 n=55 v=93
32297 On ch=3 n=52 v=0
32298 On ch=3 n=59 v=0
32298 On ch=3 n=64 v=0
32298 On ch=3 n=55 v=0
32520 On ch=3 n=57 v=89
32520 On ch=3 n=62 v=89
32521 On ch=3 n=54 v=89
32598 On ch=3 n=54 v=0
32598 On ch=3 n=62 v=0
32598 On ch=3 n=57 v=0
32640 On ch=3 n=59 v=93
32640 On ch=3 n=64 v=93
32641 On ch=3 n=52 v=93
32641 On ch=3 n=55 v=93
32777 On ch=3 n=55 v=0
32777 On ch=3 n=52 v=0
32778 On ch=3 n=64 v=0
32778 On ch=3 n=59 v=0
33000 On ch=3 n=57 v=89
33000 On ch=3 n=62 v=89
33001 On ch=3 n=54 v=89
33078 On ch=3 n=54 v=0
33078 On ch=3 n=62 v=0
33078 On ch=3 n=57 v=0
33120 On ch=3 n=64 v=93
33121 On ch=3 n=52 v=93
33121 On ch=3 n=55 v=93
33121 On ch=3 n=59 v=93
33257 On ch=3 n=52 v=0
33258 On ch=3 n=64 v=0
33258 On ch=3 n=55 v=0
33258 On ch=3 n=59 v=0
33480 On ch=3 n=62 v=89
33481 On ch=3 n=54 v=89
33481 On ch=3 n=57 v=89
33558 On ch=3 n=54 v=0
33558 On ch=3 n=62 v=0
33559 On ch=3 n=57 v=0
33600 On ch=3 n=59 v=93
33600 On ch=3 n=64 v=93
33601 On ch=3 n=52 v=93
33601 On ch=3 n=55 v=93
33737 On ch=3 n=55 v=0
33737 On ch=3 n=52 v=0
33738 On ch=3 n=64 v=0
33738 On ch=3 n=59 v=0
33960 On ch=3 n=57 v=89
33960 On ch=3 n=62 v=89
33961 On ch=3 n=54 v=89
34038 On ch=3 n=54 v=0
34038 On ch=3 n=62 v=0
34038 On ch=3 n=57 v=0
34080 On ch=3 n=59 v=93
34080 On ch=3 n=64 v=93
34081 On ch=3 n=52 v=93
34081 On ch=3 n=55 v=93
34218 On ch=3 n=55 v=0
34218 On ch=3 n=59 v=0
34218 On ch=3 n=64 v=0
34218 On ch=3 n=52 v=0
34440 On ch=3 n=62 v=89
34441 On ch=3 n=54 v=89
34441 On ch=3 n=57 v=89
34518 On ch=3 n=54 v=0
34518 On ch=3 n=62 v=0
34519 On ch=3 n=57 v=0
34560 On ch=3 n=59 v=93
34560 On ch=3 n=64 v=93
34561 On ch=3 n=52 v=93
34561 On ch=3 n=55 v=93
34697 On ch=3 n=55 v=0
34697 On ch=3 n=52 v=0
34698 On ch=3 n=64 v=0
34698 On ch=3 n=59 v=0
34920 On ch=3 n=57 v=89
34920 On ch=3 n=62 v=89
34921 On ch=3 n=54 v=89
34998 On ch=3 n=54 v=0
34998 On ch=3 n=62 v=0
34998 On ch=3 n=57 v=0
35040 On ch=3 n=59 v=93
35040 On ch=3 n=64 v=93
35041 On ch=3 n=52 v=93
35041 On ch=3 n=55 v=93
35177 On ch=3 n=55 v=0
35177 On ch=3 n=52 v=0
35178 On ch=3 n=64 v=0
35178 On ch=3 n=59 v=0
35400 On ch=3 n=57 v=89
35400 On ch=3 n=62 v=89
35401 On ch=3 n=54 v=89
35478 On ch=3 n=54 v=0
35478 On ch=3 n=62 v=0
35478 On ch=3 n=57 v=0
35520 On ch=3 n=67 v=113
35521 On ch=3 n=59 v=113
35571 On ch=3 n=59 v=0
35571 On ch=3 n=67 v=0
35580 On ch=3 n=55 v=89
35604 On ch=3 n=55 v=0
35640 On ch=3 n=67 v=119
35641 On ch=3 n=59 v=119
35652 On ch=3 n=59 v=0
35652 On ch=3 n=67 v=0
35700 On ch=3 n=61 v=119
35700 On ch=3 n=69 v=119
35810 On ch=3 n=61 v=0
35811 On ch=3 n=69 v=0
35820 On ch=3 n=55 v=89
35844 On ch=3 n=55 v=0
35880 On ch=3 n=61 v=113
35880 On ch=3 n=69 v=113
35892 On ch=3 n=69 v=0
35892 On ch=3 n=61 v=0
35940 On ch=3 n=71 v=119
35941 On ch=3 n=62 v=119
36051 On ch=3 n=62 v=0
36051 On ch=3 n=71 v=0
36060 On ch=3 n=55 v=89
36084 On ch=3 n=55 v=0
36120 On ch=3 n=62 v=119
36120 On ch=3 n=71 v=119
36132 On ch=3 n=71 v=0
36132 On ch=3 n=62 v=0
36180 On ch=3 n=69 v=113
36181 On ch=3 n=61 v=113
36291 On ch=3 n=61 v=0
36291 On ch=3 n=69 v=0
36300 On ch=3 n=55 v=89
36324 On ch=3 n=55 v=0
36360 On ch=3 n=61 v=113
36360 On ch=3 n=69 v=113
36471 On ch=3 n=69 v=0
36471 On ch=3 n=61 v=0
36480 On ch=3 n=67 v=113
36481 On ch=3 n=59 v=113
36531 On ch=3 n=59 v=0
36531 On ch=3 n=67 v=0
36540 On ch=3 n=55 v=89
36564 On ch=3 n=55 v=0
36600 On ch=3 n=59 v=119
36600 On ch=3 n=67 v=119
36612 On ch=3 n=67 v=0
36612 On ch=3 n=59 v=0
36660 On ch=3 n=61 v=119
36660 On ch=3 n=69 v=119
36771 On ch=3 n=69 v=0
36771 On ch=3 n=61 v=0
36780 On ch=3 n=55 v=89
36804 On ch=3 n=55 v=0
36840 On ch=3 n=69 v=113
36841 On ch=3 n=61 v=113
36852 On ch=3 n=61 v=0
36852 On ch=3 n=69 v=0
36900 On ch=3 n=71 v=119
36901 On ch=3 n=62 v=119
37011 On ch=3 n=62 v=0
37011 On ch=3 n=71 v=0
37020 On ch=3 n=55 v=89
37044 On ch=3 n=55 v=0
37080 On ch=3 n=62 v=119
37080 On ch=3 n=71 v=119
37092 On ch=3 n=71 v=0
37092 On ch=3 n=62 v=0
37140 On ch=3 n=61 v=113
37140 On ch=3 n=69 v=113
37251 On ch=3 n=69 v=0
37251 On ch=3 n=61 v=0
37260 On ch=3 n=55 v=89
37284 On ch=3 n=55 v=0
37320 On ch=3 n=61 v=113
37320 On ch=3 n=69 v=113
37431 On ch=3 n=69 v=0
37431 On ch=3 n=61 v=0
37440 On ch=3 n=59 v=113
37440 On ch=3 n=67 v=113
37491 On ch=3 n=67 v=0
37491 On ch=3 n=59 v=0
37500 On ch=3 n=55 v=89
37524 On ch=3 n=55 v=0
37560 On ch=3 n=67 v=119
37561 On ch=3 n=59 v=119
37572 On ch=3 n=59 v=0
37572 On ch=3 n=67 v=0
37620 On ch=3 n=61 v=119
37620 On ch=3 n=69 v=119
37731 On ch=3 n=69 v=0
37731 On ch=3 n=61 v=0
37740 On ch=3 n=55 v=89
37764 On ch=3 n=55 v=0
37800 On ch=3 n=69 v=113
37801 On ch=3 n=61 v=113
37812 On ch=3 n=61 v=0
37812 On ch=3 n=69 v=0
37860 On ch=3 n=71 v=119
37861 On ch=3 n=62 v=119
37971 On ch=3 n=62 v=0
37971 On ch=3 n=71 v=0
37980 On ch=3 n=55 v=89
38004 On ch=3 n=55 v=0
38040 On ch=3 n=62 v=119
38040 On ch=3 n=71 v=119
38052 On ch=3 n=71 v=0
38052 On ch=3 n=62 v=0
38100 On ch=3 n=61 v=113
38100 On ch=3 n=69 v=113
38211 On ch=3 n=69 v=0
38211 On ch=3 n=61 v=0
38220 On ch=3 n=55 v=89
38244 On ch=3 n=55 v=0
38280 On ch=3 n=61 v=113
38280 On ch=3 n=69 v=113
38390 On ch=3 n=61 v=0
38391 On ch=3 n=69 v=0
38400 On ch=3 n=59 v=113
38400 On ch=3 n=67 v=113
38451 On ch=3 n=67 v=0
38451 On ch=3 n=59 v=0
38460 On ch=3 n=55 v=89
38484 On ch=3 n=55 v=0
38520 On ch=3 n=59 v=119
38520 On ch=3 n=67 v=119
38532 On ch=3 n=67 v=0
38532 On ch=3 n=59 v=0
38580 On ch=3 n=69 v=119
38581 On ch=3 n=61 v=119
38691 On ch=3 n=61 v=0
38691 On ch=3 n=69 v=0
38700 On ch=3 n=55 v=89
38724 On ch=3 n=55 v=0
38760 On ch=3 n=61 v=113
38760 On ch=3 n=69 v=113
38772 On ch=3 n=69 v=0
38772 On ch=3 n=61 v=0
38820 On ch=3 n=71 v=119
38821 On ch=3 n=62 v=119
38931 On ch=3 n=62 v=0
38931 On ch=3 n=71 v=0
38940 On ch=3 n=55 v=89
38964 On ch=3 n=55 v=0
39000 On ch=3 n=62 v=119
39000 On ch=3 n=71 v=119
39012 On ch=3 n=71 v=0
39012 On ch=3 n=62 v=0
39060 On ch=3 n=69 v=113
39061 On ch=3 n=61 v=113
39171 On ch=3 n=61 v=0
39171 On ch=3 n=69 v=0
39180 On ch=3 n=55 v=89
39204 On ch=3 n=55 v=0
39240 On ch=3 n=69 v=113
39241 On ch=3 n=61 v=113
39351 On ch=3 n=61 v=0
39351 On ch=3 n=69 v=0
39360 On ch=3 n=64 v=93
39361 On ch=3 n=52 v=93
39361 On ch=3 n=55 v=93
39361 On ch=3 n=59 v=93
39497 On ch=3 n=52 v=0
39498 On ch=3 n=64 v=0
39498 On ch=3 n=55 v=0
39498 On ch=3 n=59 v=0
39720 On ch=3 n=57 v=89
39720 On ch=3 n=62 v=89
39721 On ch=3 n=54 v=89
39798 On ch=3 n=54 v=0
39798 On ch=3 n=62 v=0
39798 On ch=3 n=57 v=0
39840 On ch=3 n=64 v=93
39841 On ch=3 n=52 v=93
39841 On ch=3 n=55 v=93
39841 On ch=3 n=59 v=93
39977 On ch=3 n=55 v=0
39977 On ch=3 n=52 v=0
39978 On ch=3 n=64 v=0
39978 On ch=3 n=59 v=0
40200 On ch=3 n=57 v=89
40200 On ch=3 n=62 v=89
40201 On ch=3 n=54 v=89
40278 On ch=3 n=54 v=0
40278 On ch=3 n=62 v=0
40278 On ch=3 n=57 v=0
40320 On ch=3 n=59 v=93
40320 On ch=3 n=64 v=93
40321 On ch=3 n=52 v=93
40321 On ch=3 n=55 v=93
40457 On ch=3 n=55 v=0
40457 On ch=3 n=52 v=0
40458 On ch=3 n=64 v=0
40458 On ch=3 n=59 v=0
40680 On ch=3 n=62 v=89
40681 On ch=3 n=54 v=89
40681 On ch=3 n=57 v=89
40758 On ch=3 n=54 v=0
40758 On ch=3 n=62 v=0
40759 On ch=3 n=57 v=0
40800 On ch=3 n=59 v=93
40800 On ch=3 n=64 v=93
40801 On ch=3 n=52 v=93
40801 On ch=3 n=55 v=93
40937 On ch=3 n=52 v=0
40938 On ch=3 n=59 v=0
40938 On ch=3 n=64 v=0
40938 On ch=3 n=55 v=0
41160 On ch=3 n=57 v=89
41160 On ch=3 n=62 v=89
41161 On ch=3 n=54 v=89
41238 On ch=3 n=54 v=0
41238 On ch=3 n=62 v=0
41238 On ch=3 n=57 v=0
41280 On ch=3 n=59 v=93
41280 On ch=3 n=64 v=93
41281 On ch=3 n=52 v=93
41281 On ch=3 n=55 v=93
41417 On ch=3 n=55 v=0
41417 On ch=3 n=52 v=0
41418 On ch=3 n=64 v=0
41418 On ch=3 n=59 v=0
41640 On ch=3 n=62 v=89
41641 On ch=3 n=54 v=89
41641 On ch=3 n=57 v=89
41718 On ch=3 n=54 v=0
41718 On ch=3 n=62 v=0
41719 On ch=3 n=57 v=0
41760 On ch=3 n=64 v=93
41761 On ch=3 n=52 v=93
41761 On ch=3 n=55 v=93
41761 On ch=3 n=59 v=93
41897 On ch=3 n=55 v=0
41897 On ch=3 n=52 v=0
41898 On ch=3 n=64 v=0
41898 On ch=3 n=59 v=0
42120 On ch=3 n=57 v=89
42120 On ch=3 n=62 v=89
42121 On ch=3 n=54 v=89
42198 On ch=3 n=54 v=0
42198 On ch=3 n=62 v=0
42198 On ch=3 n=57 v=0
42240 On ch=3 n=59 v=93
42240 On ch=3 n=64 v=93
42241 On ch=3 n=52 v=93
42241 On ch=3 n=55 v=93
42377 On ch=3 n=55 v=0
42377 On ch=3 n=52 v=0
42378 On ch=3 n=64 v=0
42378 On ch=3 n=59 v=0
42600 On ch=3 n=57 v=89
42600 On ch=3 n=62 v=89
42601 On ch=3 n=54 v=89
42678 On ch=3 n=54 v=0
42678 On ch=3 n=62 v=0
42678 On ch=3 n=57 v=0
42720 On ch=3 n=59 v=93
42720 On ch=3 n=64 v=93
42721 On ch=3 n=52 v=93
42721 On ch=3 n=55 v=93
42857 On ch=3 n=55 v=0
42857 On ch=3 n=52 v=0
42858 On ch=3 n=64 v=0
42858 On ch=3 n=59 v=0
43080 On ch=3 n=57 v=89
43080 On ch=3 n=62 v=89
43081 On ch=3 n=54 v=89
43158 On ch=3 n=54 v=0
43158 On ch=3 n=62 v=0
43158 On ch=3 n=57 v=0
43200 On ch=3 n=59 v=93
43200 On ch=3 n=64 v=93
43201 On ch=3 n=52 v=93
43201 On ch=3 n=55 v=93
43338 On ch=3 n=55 v=0
43338 On ch=3 n=59 v=0
43338 On ch=3 n=64 v=0
43338 On ch=3 n=52 v=0
43560 On ch=3 n=54 v=89
43560 On ch=3 n=57 v=89
43560 On ch=3 n=62 v=89
43638 On ch=3 n=62 v=0
43638 On ch=3 n=57 v=0
43638 On ch=3 n=54 v=0
43680 On ch=3 n=55 v=93
43680 On ch=3 n=59 v=93
43680 On ch=3 n=64 v=93
43681 On ch=3 n=52 v=93
43929 On ch=3 n=52 v=0
43929 On ch=3 n=55 v=0
43929 On ch=3 n=59 v=0
43929 On ch=3 n=64 v=0
44640 On ch=3 n=59 v=113
44640 On ch=3 n=67 v=113
44691 On ch=3 n=67 v=0
44691 On ch=3 n=59 v=0
44700 On ch=3 n=55 v=89
44724 On ch=3 n=55 v=0
44760 On ch=3 n=67 v=119
44761 On ch=3 n=59 v=119
44772 On ch=3 n=59 v=0
44772 On ch=3 n=67 v=0
44820 On ch=3 n=61 v=119
44820 On ch=3 n=69 v=119
44931 On ch=3 n=69 v=0
44931 On ch=3 n=61 v=0
44940 On ch=3 n=55 v=89
44964 On ch=3 n=55 v=0
45000 On ch=3 n=61 v=113
45000 On ch=3 n=69 v=113
45011 On ch=3 n=61 v=0
45012 On ch=3 n=69 v=0
45060 On ch=3 n=62 v=119
45060 On ch=3 n=71 v=119
45171 On ch=3 n=71 v=0
45171 On ch=3 n=62 v=0
45180 On ch=3 n=55 v=89
45204 On ch=3 n=55 v=0
45240 On ch=3 n=62 v=119
45240 On ch=3 n=71 v=119
45252 On ch=3 n=71 v=0
45252 On ch=3 n=62 v=0
45300 On ch=3 n=61 v=113
45300 On ch=3 n=69 v=113
45411 On ch=3 n=69 v=0
45411 On ch=3 n=61 v=0
45420 On ch=3 n=55 v=89
45444 On ch=3 n=55 v=0
45480 On ch=3 n=61 v=113
45480 On ch=3 n=69 v=113
45591 On ch=3 n=69 v=0
45591 On ch=3 n=61 v=0
45600 On ch=3 n=59 v=113
45600 On ch=3 n=67 v=113
45651 On ch=3 n=67 v=0
45651 On ch=3 n=59 v=0
45660 On ch=3 n=55 v=89
45684 On ch=3 n=55 v=0
45720 On ch=3 n=59 v=119
45720 On ch=3 n=67 v=119
45731 On ch=3 n=59 v=0
45732 On ch=3 n=67 v=0
45780 On ch=3 n=61 v=119
45780 On ch=3 n=69 v=119
45891 On ch=3 n=69 v=0
45891 On ch=3 n=61 v=0
45900 On ch=3 n=55 v=89
45924 On ch=3 n=55 v=0
45960 On ch=3 n=69 v=113
45961 On ch=3 n=61 v=113
45972 On ch=3 n=61 v=0
45972 On ch=3 n=69 v=0
46020 On ch=3 n=62 v=119
46020 On ch=3 n=71 v=119
46131 On ch=3 n=71 v=0
46131 On ch=3 n=62 v=0
46140 On ch=3 n=55 v=89
46164 On ch=3 n=55 v=0
46200 On ch=3 n=62 v=119
46200 On ch=3 n=71 v=119
46212 On ch=3 n=71 v=0
46212 On ch=3 n=62 v=0
46260 On ch=3 n=61 v=113
46260 On ch=3 n=69 v=113
46371 On ch=3 n=69 v=0
46371 On ch=3 n=61 v=0
46380 On ch=3 n=55 v=89
46404 On ch=3 n=55 v=0
46440 On ch=3 n=69 v=113
46441 On ch=3 n=61 v=113
46551 On ch=3 n=61 v=0
46551 On ch=3 n=69 v=0
46560 On ch=3 n=67 v=113
46561 On ch=3 n=59 v=113
46611 On ch=3 n=59 v=0
46611 On ch=3 n=67 v=0
46620 On ch=3 n=55 v=89
46644 On ch=3 n=55 v=0
46680 On ch=3 n=67 v=119
46681 On ch=3 n=59 v=119
46692 On ch=3 n=59 v=0
46692 On ch=3 n=67 v=0
46740 On ch=3 n=61 v=119
46740 On ch=3 n=69 v=119
46851 On ch=3 n=69 v=0
46851 On ch=3 n=61 v=0
46860 On ch=3 n=55 v=89
46884 On ch=3 n=55 v=0
46920 On ch=3 n=61 v=113
46920 On ch=3 n=69 v=113
46931 On ch=3 n=61 v=0
46932 On ch=3 n=69 v=0
46980 On ch=3 n=62 v=119
46980 On ch=3 n=71 v=119
47091 On ch=3 n=71 v=0
47091 On ch=3 n=62 v=0
47100 On ch=3 n=55 v=89
47124 On ch=3 n=55 v=0
47160 On ch=3 n=62 v=119
47161 On ch=3 n=71 v=119
47172 On ch=3 n=71 v=0
47172 On ch=3 n=62 v=0
47220 On ch=3 n=69 v=113
47221 On ch=3 n=61 v=113
47331 On ch=3 n=61 v=0
47331 On ch=3 n=69 v=0
47340 On ch=3 n=55 v=89
47364 On ch=3 n=55 v=0
47400 On ch=3 n=61 v=113
47400 On ch=3 n=69 v=113
47511 On ch=3 n=69 v=0
47511 On ch=3 n=61 v=0
47520 On ch=3 n=59 v=113
47520 On ch=3 n=67 v=113
47571 On ch=3 n=67 v=0
47571 On ch=3 n=59 v=0
47580 On ch=3 n=55 v=89
47604 On ch=3 n=55 v=0
47640 On ch=3 n=59 v=119
47640 On ch=3 n=67 v=119
47652 On ch=3 n=67 v=0
47652 On ch=3 n=59 v=0
47700 On ch=3 n=61 v=119
47700 On ch=3 n=69 v=119
47811 On ch=3 n=69 v=0
47811 On ch=3 n=61 v=0
47820 On ch=3 n=55 v=89
47844 On ch=3 n=55 v=0
47880 On ch=3 n=69 v=113
47881 On ch=3 n=61 v=113
47892 On ch=3 n=61 v=0
47892 On ch=3 n=69 v=0
47940 On ch=3 n=71 v=119
47941 On ch=3 n=62 v=119
48051 On ch=3 n=62 v=0
48051 On ch=3 n=71 v=0
48060 On ch=3 n=55 v=89
48084 On ch=3 n=55 v=0
48120 On ch=3 n=62 v=119
48120 On ch=3 n=71 v=119
48132 On ch=3 n=71 v=0
48132 On ch=3 n=62 v=0
48180 On ch=3 n=61 v=113
48180 On ch=3 n=69 v=113
48291 On ch=3 n=69 v=0
48291 On ch=3 n=61 v=0
48300 On ch=3 n=55 v=89
48324 On ch=3 n=55 v=0
48360 On ch=3 n=69 v=113
48361 On ch=3 n=61 v=113
48471 On ch=3 n=61 v=0
48471 On ch=3 n=69 v=0
48480 On ch=3 n=59 v=93
48480 On ch=3 n=64 v=93
48481 On ch=3 n=52 v=93
48481 On ch=3 n=55 v=93
48618 On ch=3 n=55 v=0
48618 On ch=3 n=59 v=0
48618 On ch=3 n=64 v=0
48618 On ch=3 n=52 v=0
48840 On ch=3 n=57 v=89
48840 On ch=3 n=62 v=89
48841 On ch=3 n=54 v=89
48918 On ch=3 n=54 v=0
48918 On ch=3 n=62 v=0
48918 On ch=3 n=57 v=0
48960 On ch=3 n=59 v=93
48960 On ch=3 n=64 v=93
48961 On ch=3 n=52 v=93
48961 On ch=3 n=55 v=93
49098 On ch=3 n=55 v=0
49098 On ch=3 n=59 v=0
49098 On ch=3 n=64 v=0
49098 On ch=3 n=52 v=0
49320 On ch=3 n=62 v=89
49321 On ch=3 n=54 v=89
49321 On ch=3 n=57 v=89
49398 On ch=3 n=54 v=0
49398 On ch=3 n=62 v=0
49399 On ch=3 n=57 v=0
49440 On ch=3 n=59 v=93
49440 On ch=3 n=64 v=93
49441 On ch=3 n=52 v=93
49441 On ch=3 n=55 v=93
49577 On ch=3 n=52 v=0
49578 On ch=3 n=59 v=0
49578 On ch=3 n=64 v=0
49578 On ch=3 n=55 v=0
49800 On ch=3 n=62 v=89
49801 On ch=3 n=54 v=89
49801 On ch=3 n=57 v=89
49878 On ch=3 n=54 v=0
49878 On ch=3 n=62 v=0
49879 On ch=3 n=57 v=0
49920 On ch=3 n=59 v=93
49920 On ch=3 n=64 v=93
49921 On ch=3 n=52 v=93
49921 On ch=3 n=55 v=93
50057 On ch=3 n=55 v=0
50057 On ch=3 n=52 v=0
50058 On ch=3 n=64 v=0
50058 On ch=3 n=59 v=0
50400 On ch=3 n=64 v=118
50400 On ch=3 n=69 v=118
50401 On ch=3 n=72 v=118
50423 On ch=3 n=69 v=0
50423 On ch=3 n=64 v=0
50424 On ch=3 n=72 v=0
50460 On ch=3 n=69 v=114
50461 On ch=3 n=64 v=114
50461 On ch=3 n=72 v=114
50634 On ch=3 n=72 v=0
50634 On ch=3 n=64 v=0
50634 On ch=3 n=69 v=0
50640 On ch=3 n=71 v=124
50641 On ch=3 n=66 v=124
50641 On ch=3 n=74 v=124
50664 On ch=3 n=74 v=0
50664 On ch=3 n=66 v=0
50664 On ch=3 n=71 v=0
50700 On ch=3 n=71 v=124
50701 On ch=3 n=66 v=124
50701 On ch=3 n=74 v=124
50874 On ch=3 n=74 v=0
50874 On ch=3 n=66 v=0
50874 On ch=3 n=71 v=0
50880 On ch=3 n=67 v=127
50880 On ch=3 n=72 v=127
50881 On ch=3 n=76 v=127
50903 On ch=3 n=72 v=0
50903 On ch=3 n=67 v=0
50904 On ch=3 n=76 v=0
50940 On ch=3 n=72 v=124
50941 On ch=3 n=67 v=124
50941 On ch=3 n=76 v=124
51114 On ch=3 n=76 v=0
51114 On ch=3 n=67 v=0
51114 On ch=3 n=72 v=0
51120 On ch=3 n=74 v=127
51120 On ch=3 n=78 v=127
51121 On ch=3 n=69 v=127
51143 On ch=3 n=78 v=0
51143 On ch=3 n=74 v=0
51144 On ch=3 n=69 v=0
51180 On ch=3 n=69 v=127
51181 On ch=3 n=74 v=127
51181 On ch=3 n=78 v=127
51354 On ch=3 n=78 v=0
51354 On ch=3 n=74 v=0
51354 On ch=3 n=69 v=0
51360 On ch=3 n=59 v=93
51360 On ch=3 n=64 v=93
51361 On ch=3 n=52 v=93
51361 On ch=3 n=55 v=93
51498 On ch=3 n=55 v=0
51498 On ch=3 n=59 v=0
51498 On ch=3 n=64 v=0
51498 On ch=3 n=52 v=0
51720 On ch=3 n=57 v=89
51720 On ch=3 n=62 v=89
51721 On ch=3 n=54 v=89
51798 On ch=3 n=62 v=0
51798 On ch=3 n=57 v=0
51799 On ch=3 n=54 v=0
51840 On ch=3 n=59 v=93
51840 On ch=3 n=64 v=93
51841 On ch=3 n=52 v=93
51841 On ch=3 n=55 v=93
51978 On ch=3 n=55 v=0
51978 On ch=3 n=59 v=0
51978 On ch=3 n=64 v=0
51978 On ch=3 n=52 v=0
52320 On ch=3 n=62 v=123
52321 On ch=3 n=66 v=123
52321 On ch=3 n=69 v=123
52382 On ch=3 n=69 v=0
52382 On ch=3 n=66 v=0
52382 On ch=3 n=62 v=0
52440 On ch=3 n=69 v=123
52441 On ch=3 n=62 v=123
52441 On ch=3 n=66 v=123
52791 On ch=3 n=66 v=0
52791 On ch=3 n=62 v=0
52791 On ch=3 n=69 v=0
52800 On ch=3 n=60 v=127
52801 On ch=3 n=64 v=127
52801 On ch=3 n=67 v=127
52824 On ch=3 n=67 v=0
52824 On ch=3 n=64 v=0
52824 On ch=3 n=60 v=0
52860 On ch=3 n=67 v=123
52861 On ch=3 n=60 v=123
52861 On ch=3 n=64 v=123
53271 On ch=3 n=64 v=0
53271 On ch=3 n=60 v=0
53271 On ch=3 n=67 v=0
53281 On ch=3 n=67 v=113
53281 On ch=3 n=59 v=113
53330 On ch=3 n=59 v=0
53331 On ch=3 n=67 v=0
53340 On ch=3 n=55 v=89
53364 On ch=3 n=55 v=0
53400 On ch=3 n=67 v=119
53401 On ch=3 n=59 v=119
53412 On ch=3 n=59 v=0
53412 On ch=3 n=67 v=0
53460 On ch=3 n=61 v=119
53460 On ch=3 n=69 v=119
53571 On ch=3 n=69 v=0
53571 On ch=3 n=61 v=0
53580 On ch=3 n=55 v=89
53604 On ch=3 n=55 v=0
53640 On ch=3 n=61 v=113
53640 On ch=3 n=69 v=113
53652 On ch=3 n=69 v=0
53652 On ch=3 n=61 v=0
53700 On ch=3 n=62 v=119
53700 On ch=3 n=71 v=119
53811 On ch=3 n=71 v=0
53811 On ch=3 n=62 v=0
53820 On ch=3 n=55 v=89
53844 On ch=3 n=55 v=0
53880 On ch=3 n=62 v=119
53881 On ch=3 n=71 v=119
53892 On ch=3 n=71 v=0
53892 On ch=3 n=62 v=0
53940 On ch=3 n=61 v=113
53940 On ch=3 n=69 v=113
54051 On ch=3 n=69 v=0
54051 On ch=3 n=61 v=0
54060 On ch=3 n=55 v=89
54084 On ch=3 n=55 v=0
54120 On ch=3 n=69 v=113
54121 On ch=3 n=61 v=113
54231 On ch=3 n=61 v=0
54231 On ch=3 n=69 v=0
54240 On ch=3 n=67 v=113
54241 On ch=3 n=59 v=113
54291 On ch=3 n=59 v=0
54291 On ch=3 n=67 v=0
54300 On ch=3 n=55 v=89
54324 On ch=3 n=55 v=0
54360 On ch=3 n=59 v=119
54360 On ch=3 n=67 v=119
54372 On ch=3 n=67 v=0
54372 On ch=3 n=59 v=0
54420 On ch=3 n=69 v=119
54421 On ch=3 n=61 v=119
54531 On ch=3 n=61 v=0
54531 On ch=3 n=69 v=0
54540 On ch=3 n=55 v=89
54564 On ch=3 n=55 v=0
54600 On ch=3 n=69 v=113
54601 On ch=3 n=61 v=113
54612 On ch=3 n=61 v=0
54612 On ch=3 n=69 v=0
54660 On ch=3 n=62 v=119
54660 On ch=3 n=71 v=119
54771 On ch=3 n=71 v=0
54771 On ch=3 n=62 v=0
54780 On ch=3 n=55 v=89
54804 On ch=3 n=55 v=0
54840 On ch=3 n=62 v=119
54840 On ch=3 n=71 v=119
54852 On ch=3 n=71 v=0
54852 On ch=3 n=62 v=0
54900 On ch=3 n=61 v=113
54900 On ch=3 n=69 v=113
55010 On ch=3 n=61 v=0
55011 On ch=3 n=69 v=0
55020 On ch=3 n=55 v=89
55044 On ch=3 n=55 v=0
55080 On ch=3 n=61 v=113
55080 On ch=3 n=69 v=113
55191 On ch=3 n=69 v=0
55191 On ch=3 n=61 v=0
55200 On ch=3 n=59 v=113
55200 On ch=3 n=67 v=113
55251 On ch=3 n=67 v=0
55251 On ch=3 n=59 v=0
55260 On ch=3 n=55 v=89
55284 On ch=3 n=55 v=0
55320 On ch=3 n=59 v=119
55320 On ch=3 n=67 v=119
55332 On ch=3 n=67 v=0
55332 On ch=3 n=59 v=0
55380 On ch=3 n=61 v=119
55380 On ch=3 n=69 v=119
55491 On ch=3 n=69 v=0
55491 On ch=3 n=61 v=0
55500 On ch=3 n=55 v=89
55524 On ch=3 n=55 v=0
55560 On ch=3 n=69 v=113
55561 On ch=3 n=61 v=113
55572 On ch=3 n=61 v=0
55572 On ch=3 n=69 v=0
55620 On ch=3 n=62 v=119
55620 On ch=3 n=71 v=119
55731 On ch=3 n=71 v=0
55731 On ch=3 n=62 v=0
55740 On ch=3 n=55 v=89
55764 On ch=3 n=55 v=0
55800 On ch=3 n=62 v=119
55800 On ch=3 n=71 v=119
55812 On ch=3 n=71 v=0
55812 On ch=3 n=62 v=0
55860 On ch=3 n=61 v=113
55860 On ch=3 n=69 v=113
55971 On ch=3 n=69 v=0
55971 On ch=3 n=61 v=0
55980 On ch=3 n=55 v=89
56004 On ch=3 n=55 v=0
56040 On ch=3 n=61 v=113
56040 On ch=3 n=69 v=113
56150 On ch=3 n=61 v=0
56151 On ch=3 n=69 v=0
56160 On ch=3 n=59 v=113
56160 On ch=3 n=67 v=113
56210 On ch=3 n=59 v=0
56211 On ch=3 n=67 v=0
56220 On ch=3 n=55 v=89
56244 On ch=3 n=55 v=0
56280 On ch=3 n=59 v=119
56280 On ch=3 n=67 v=119
56292 On ch=3 n=67 v=0
56292 On ch=3 n=59 v=0
56340 On ch=3 n=61 v=119
56340 On ch=3 n=69 v=119
56451 On ch=3 n=69 v=0
56451 On ch=3 n=61 v=0
56460 On ch=3 n=55 v=89
56484 On ch=3 n=55 v=0
56520 On ch=3 n=61 v=113
56520 On ch=3 n=69 v=113
56532 On ch=3 n=69 v=0
56532 On ch=3 n=61 v=0
56580 On ch=3 n=71 v=119
56581 On ch=3 n=62 v=119
56691 On ch=3 n=62 v=0
56691 On ch=3 n=71 v=0
56700 On ch=3 n=55 v=89
56724 On ch=3 n=55 v=0
56760 On ch=3 n=62 v=119
56761 On ch=3 n=71 v=119
56772 On ch=3 n=71 v=0
56772 On ch=3 n=62 v=0
56820 On ch=3 n=69 v=113
56821 On ch=3 n=61 v=113
56931 On ch=3 n=61 v=0
56931 On ch=3 n=69 v=0
56940 On ch=3 n=55 v=89
56964 On ch=3 n=55 v=0
57000 On ch=3 n=69 v=113
57001 On ch=3 n=61 v=113
57111 On ch=3 n=61 v=0
57111 On ch=3 n=69 v=0
57120 On ch=3 n=59 v=113
57120 On ch=3 n=67 v=113
57171 On ch=3 n=67 v=0
57171 On ch=3 n=59 v=0
57180 On ch=3 n=55 v=89
57204 On ch=3 n=55 v=0
57241 On ch=3 n=59 v=119
57241 On ch=3 n=67 v=119
57252 On ch=3 n=67 v=0
57252 On ch=3 n=59 v=0
57300 On ch=3 n=61 v=119
57300 On ch=3 n=69 v=119
57411 On ch=3 n=69 v=0
57411 On ch=3 n=61 v=0
57420 On ch=3 n=55 v=89
57444 On ch=3 n=55 v=0
57480 On ch=3 n=61 v=113
57480 On ch=3 n=69 v=113
57492 On ch=3 n=69 v=0
57492 On ch=3 n=61 v=0
57540 On ch=3 n=62 v=119
57540 On ch=3 n=71 v=119
57651 On ch=3 n=71 v=0
57651 On ch=3 n=62 v=0
57660 On ch=3 n=55 v=89
57684 On ch=3 n=55 v=0
57720 On ch=3 n=62 v=119
57720 On ch=3 n=71 v=119
57732 On ch=3 n=71 v=0
57732 On ch=3 n=62 v=0
57781 On ch=3 n=61 v=113
57781 On ch=3 n=69 v=113
57891 On ch=3 n=69 v=0
57891 On ch=3 n=61 v=0
57900 On ch=3 n=55 v=89
57924 On ch=3 n=55 v=0
57960 On ch=3 n=61 v=113
57960 On ch=3 n=69 v=113
58071 On ch=3 n=69 v=0
58071 On ch=3 n=61 v=0
58081 On ch=3 n=59 v=113
58081 On ch=3 n=67 v=113
58081 On ch=3 n=52 v=113
58081 On ch=3 n=55 v=113
58560 On ch=3 n=55 v=0
58560 On ch=3 n=52 v=0
58561 On ch=3 n=67 v=0
58561 On ch=3 n=59 v=0
58561 Meta TrkEnd
TrkEnd
MTrk
0 Meta 0x21 00
0 Meta TrkName "thunder "
480 On ch=4 n=84 v=127
480 On ch=4 n=96 v=127
2382 On ch=4 n=96 v=0
2382 On ch=4 n=84 v=0
3840 On ch=4 n=84 v=100
3840 On ch=4 n=96 v=100
5759 On ch=4 n=96 v=0
5759 On ch=4 n=84 v=0
6720 On ch=4 n=84 v=75
6720 On ch=4 n=96 v=75
8639 On ch=4 n=96 v=0
8639 On ch=4 n=84 v=0
8640 On ch=4 n=84 v=50
10559 On ch=4 n=84 v=0
12000 On ch=4 n=60 v=103
12000 On ch=4 n=84 v=127
14009 On ch=4 n=60 v=0
14279 On ch=4 n=84 v=0
14400 On ch=4 n=72 v=84
14400 On ch=4 n=84 v=84
16079 On ch=4 n=84 v=0
16079 On ch=4 n=72 v=0
16320 On ch=4 n=84 v=90
16320 On ch=4 n=96 v=90
17999 On ch=4 n=96 v=0
17999 On ch=4 n=84 v=0
18480 On ch=4 n=72 v=57
18480 On ch=4 n=96 v=57
20399 On ch=4 n=96 v=0
20399 On ch=4 n=72 v=0
24000 On ch=4 n=72 v=123
24000 On ch=4 n=84 v=117
25902 On ch=4 n=84 v=0
25902 On ch=4 n=72 v=0
29280 On ch=4 n=72 v=57
29280 On ch=4 n=96 v=57
31199 On ch=4 n=96 v=0
31199 On ch=4 n=72 v=0
32160 On ch=4 n=84 v=57
32160 On ch=4 n=96 v=57
33119 On ch=4 n=96 v=0
33119 On ch=4 n=84 v=0
33120 On ch=4 n=72 v=57
33120 On ch=4 n=84 v=57
35039 On ch=4 n=84 v=0
35039 On ch=4 n=72 v=0
41760 On ch=4 n=60 v=114
41760 On ch=4 n=72 v=114
43662 On ch=4 n=72 v=0
43662 On ch=4 n=60 v=0
43680 On ch=4 n=60 v=69
43680 On ch=4 n=72 v=69
44159 On ch=4 n=72 v=0
44159 On ch=4 n=60 v=0
44160 On ch=4 n=60 v=125
44160 On ch=4 n=72 v=125
45719 On ch=4 n=72 v=0
45719 On ch=4 n=60 v=0
53280 On ch=4 n=36 v=127
53280 On ch=4 n=84 v=127
55182 On ch=4 n=84 v=0
55182 On ch=4 n=36 v=0
58080 On ch=4 n=36 v=127
58080 On ch=4 n=84 v=127
60479 On ch=4 n=84 v=0
60479 On ch=4 n=36 v=0
60479 Meta TrkEnd
TrkEnd
MTrk
0 Meta 0x21 00
0 Meta TrkName "rain    "
600 On ch=5 n=96 v=120
720 On ch=5 n=48 v=120
5281 On ch=5 n=72 v=66
5382 On ch=5 n=48 v=0
5382 On ch=5 n=96 v=0
11997 On ch=5 n=72 v=0
12001 On ch=5 n=48 v=77
15360 On ch=5 n=48 v=0
15360 On ch=5 n=60 v=55
18240 On ch=5 n=60 v=54
23759 On ch=5 n=60 v=0
24000 On ch=5 n=48 v=81
24000 On ch=5 n=96 v=70
24239 On ch=5 n=60 v=0
29760 On ch=5 n=62 v=58
30222 On ch=5 n=96 v=0
30222 On ch=5 n=48 v=0
36480 On ch=5 n=60 v=58
36719 On ch=5 n=62 v=0
41760 On ch=5 n=48 v=90
41999 On ch=5 n=60 v=0
43680 On ch=5 n=48 v=0
43681 On ch=5 n=48 v=100
49440 On ch=5 n=60 v=71
49499 On ch=5 n=48 v=0
53280 On ch=5 n=48 v=127
53280 On ch=5 n=96 v=101
53309 On ch=5 n=60 v=0
54720 On ch=5 n=48 v=0
55182 On ch=5 n=96 v=0
55201 On ch=5 n=48 v=101
57121 On ch=5 n=48 v=0
57121 On ch=5 n=48 v=100
58080 On ch=5 n=48 v=127
58080 On ch=5 n=96 v=127
59939 On ch=5 n=48 v=0
59999 On ch=5 n=96 v=0
59999 On ch=5 n=48 v=0
59999 Meta TrkEnd
TrkEnd
MTrk
0 Meta 0x21 00
0 Meta TrkName "rain    "
600 On ch=6 n=84 v=120
720 On ch=6 n=36 v=120
5281 On ch=6 n=60 v=66
5382 On ch=6 n=36 v=0
5382 On ch=6 n=84 v=0
11997 On ch=6 n=60 v=0
12001 On ch=6 n=36 v=77
15360 On ch=6 n=36 v=0
15360 On ch=6 n=48 v=55
18240 On ch=6 n=48 v=54
23759 On ch=6 n=48 v=0
24000 On ch=6 n=36 v=81
24000 On ch=6 n=84 v=70
24239 On ch=6 n=48 v=0
29760 On ch=6 n=50 v=58
30222 On ch=6 n=84 v=0
30222 On ch=6 n=36 v=0
36480 On ch=6 n=48 v=58
36719 On ch=6 n=50 v=0
41760 On ch=6 n=36 v=90
41999 On ch=6 n=48 v=0
43680 On ch=6 n=36 v=0
43681 On ch=6 n=36 v=100
49440 On ch=6 n=48 v=71
49499 On ch=6 n=36 v=0
53280 On ch=6 n=36 v=127
53280 On ch=6 n=84 v=101
53309 On ch=6 n=48 v=0
54720 On ch=6 n=36 v=0
55182 On ch=6 n=84 v=0
55201 On ch=6 n=36 v=101
57121 On ch=6 n=36 v=0
57121 On ch=6 n=36 v=100
58080 On ch=6 n=36 v=127
58080 On ch=6 n=84 v=127
59939 On ch=6 n=36 v=0
59999 On ch=6 n=84 v=0
59999 On ch=6 n=36 v=0
59999 Meta TrkEnd
TrkEnd
MTrk
0 Meta 0x21 00
0 Meta TrkName "drums   "
1440 On ch=10 n=35 v=100
1440 On ch=10 n=51 v=84
1455 On ch=10 n=51 v=0
1455 On ch=10 n=35 v=0
1560 On ch=10 n=42 v=84
1560 On ch=10 n=51 v=68
1560 On ch=10 n=54 v=100
1560 On ch=10 n=69 v=52
1560 On ch=10 n=76 v=100
1575 On ch=10 n=76 v=0
1575 On ch=10 n=54 v=0
1575 On ch=10 n=42 v=0
1575 On ch=10 n=51 v=0
1575 On ch=10 n=69 v=0
1620 On ch=10 n=51 v=52
1635 On ch=10 n=51 v=0
1680 On ch=10 n=51 v=84
1695 On ch=10 n=51 v=0
1740 On ch=10 n=51 v=52
1755 On ch=10 n=51 v=0
1800 On ch=10 n=42 v=84
1800 On ch=10 n=51 v=68
1800 On ch=10 n=69 v=36
1800 On ch=10 n=76 v=84
1815 On ch=10 n=76 v=0
1815 On ch=10 n=42 v=0
1815 On ch=10 n=51 v=0
1815 On ch=10 n=69 v=0
1860 On ch=10 n=51 v=52
1875 On ch=10 n=51 v=0
1920 On ch=10 n=35 v=100
1920 On ch=10 n=51 v=84
1935 On ch=10 n=51 v=0
1935 On ch=10 n=35 v=0
1980 On ch=10 n=51 v=52
1995 On ch=10 n=51 v=0
2040 On ch=10 n=42 v=84
2040 On ch=10 n=51 v=68
2040 On ch=10 n=54 v=100
2040 On ch=10 n=69 v=52
2040 On ch=10 n=76 v=100
2055 On ch=10 n=76 v=0
2055 On ch=10 n=54 v=0
2055 On ch=10 n=42 v=0
2055 On ch=10 n=51 v=0
2055 On ch=10 n=69 v=0
2100 On ch=10 n=51 v=52
2115 On ch=10 n=51 v=0
2160 On ch=10 n=51 v=84
2175 On ch=10 n=51 v=0
2220 On ch=10 n=51 v=52
2234 On ch=10 n=51 v=0
2280 On ch=10 n=42 v=84
2280 On ch=10 n=51 v=68
2280 On ch=10 n=69 v=36
2280 On ch=10 n=76 v=84
2295 On ch=10 n=76 v=0
2295 On ch=10 n=42 v=0
2295 On ch=10 n=51 v=0
2295 On ch=10 n=69 v=0
2340 On ch=10 n=51 v=52
2355 On ch=10 n=51 v=0
2400 On ch=10 n=35 v=100
2400 On ch=10 n=51 v=84
2415 On ch=10 n=51 v=0
2415 On ch=10 n=35 v=0
2460 On ch=10 n=51 v=52
2475 On ch=10 n=51 v=0
2520 On ch=10 n=42 v=84
2520 On ch=10 n=51 v=68
2520 On ch=10 n=54 v=100
2520 On ch=10 n=69 v=52
2520 On ch=10 n=76 v=100
2535 On ch=10 n=76 v=0
2535 On ch=10 n=54 v=0
2535 On ch=10 n=42 v=0
2535 On ch=10 n=51 v=0
2535 On ch=10 n=69 v=0
2580 On ch=10 n=51 v=52
2595 On ch=10 n=51 v=0
2640 On ch=10 n=51 v=84
2655 On ch=10 n=51 v=0
2700 On ch=10 n=51 v=52
2715 On ch=10 n=51 v=0
2760 On ch=10 n=42 v=84
2760 On ch=10 n=51 v=68
2760 On ch=10 n=69 v=36
2760 On ch=10 n=76 v=84
2775 On ch=10 n=76 v=0
2775 On ch=10 n=42 v=0
2775 On ch=10 n=51 v=0
2775 On ch=10 n=69 v=0
2820 On ch=10 n=51 v=52
2835 On ch=10 n=51 v=0
2880 On ch=10 n=35 v=100
2880 On ch=10 n=51 v=84
2895 On ch=10 n=51 v=0
2895 On ch=10 n=35 v=0
2940 On ch=10 n=51 v=52
2955 On ch=10 n=51 v=0
3000 On ch=10 n=42 v=84
3000 On ch=10 n=51 v=68
3000 On ch=10 n=54 v=100
3000 On ch=10 n=69 v=52
3000 On ch=10 n=76 v=100
3015 On ch=10 n=76 v=0
3015 On ch=10 n=54 v=0
3015 On ch=10 n=42 v=0
3015 On ch=10 n=51 v=0
3015 On ch=10 n=69 v=0
3060 On ch=10 n=51 v=52
3075 On ch=10 n=51 v=0
3120 On ch=10 n=51 v=84
3135 On ch=10 n=51 v=0
3180 On ch=10 n=51 v=52
3194 On ch=10 n=51 v=0
3240 On ch=10 n=42 v=84
3240 On ch=10 n=51 v=68
3240 On ch=10 n=69 v=36
3240 On ch=10 n=76 v=84
3255 On ch=10 n=76 v=0
3255 On ch=10 n=42 v=0
3255 On ch=10 n=51 v=0
3255 On ch=10 n=69 v=0
3300 On ch=10 n=51 v=52
3315 On ch=10 n=51 v=0
3360 On ch=10 n=35 v=100
3360 On ch=10 n=51 v=84
3375 On ch=10 n=51 v=0
3375 On ch=10 n=35 v=0
3420 On ch=10 n=51 v=52
3435 On ch=10 n=51 v=0
3480 On ch=10 n=42 v=84
3480 On ch=10 n=51 v=68
3480 On ch=10 n=54 v=100
3480 On ch=10 n=69 v=52
3480 On ch=10 n=76 v=100
3495 On ch=10 n=76 v=0
3495 On ch=10 n=54 v=0
3495 On ch=10 n=42 v=0
3495 On ch=10 n=51 v=0
3495 On ch=10 n=69 v=0
3540 On ch=10 n=51 v=52
3555 On ch=10 n=51 v=0
3600 On ch=10 n=51 v=84
3615 On ch=10 n=51 v=0
3660 On ch=10 n=51 v=52
3675 On ch=10 n=51 v=0
3720 On ch=10 n=42 v=84
3720 On ch=10 n=51 v=68
3720 On ch=10 n=69 v=36
3720 On ch=10 n=76 v=84
3735 On ch=10 n=76 v=0
3735 On ch=10 n=42 v=0
3735 On ch=10 n=51 v=0
3735 On ch=10 n=69 v=0
3780 On ch=10 n=51 v=52
3795 On ch=10 n=51 v=0
3840 On ch=10 n=35 v=100
3840 On ch=10 n=51 v=84
3855 On ch=10 n=51 v=0
3855 On ch=10 n=35 v=0
3900 On ch=10 n=51 v=52
3915 On ch=10 n=51 v=0
3960 On ch=10 n=42 v=84
3960 On ch=10 n=51 v=100
3960 On ch=10 n=54 v=100
3960 On ch=10 n=69 v=52
3960 On ch=10 n=76 v=100
3975 On ch=10 n=76 v=0
3975 On ch=10 n=54 v=0
3975 On ch=10 n=42 v=0
3975 On ch=10 n=51 v=0
3975 On ch=10 n=69 v=0
4020 On ch=10 n=51 v=116
4035 On ch=10 n=51 v=0
4080 On ch=10 n=51 v=84
4095 On ch=10 n=51 v=0
4140 On ch=10 n=51 v=84
4154 On ch=10 n=51 v=0
4200 On ch=10 n=42 v=84
4200 On ch=10 n=51 v=68
4200 On ch=10 n=69 v=36
4200 On ch=10 n=76 v=84
4215 On ch=10 n=76 v=0
4215 On ch=10 n=42 v=0
4215 On ch=10 n=51 v=0
4215 On ch=10 n=69 v=0
4260 On ch=10 n=51 v=52
4275 On ch=10 n=51 v=0
4320 On ch=10 n=35 v=100
4320 On ch=10 n=51 v=84
4335 On ch=10 n=51 v=0
4335 On ch=10 n=35 v=0
4380 On ch=10 n=51 v=52
4394 On ch=10 n=51 v=0
4440 On ch=10 n=42 v=84
4440 On ch=10 n=51 v=68
4440 On ch=10 n=54 v=100
4440 On ch=10 n=69 v=52
4440 On ch=10 n=76 v=100
4455 On ch=10 n=76 v=0
4455 On ch=10 n=54 v=0
4455 On ch=10 n=42 v=0
4455 On ch=10 n=51 v=0
4455 On ch=10 n=69 v=0
4500 On ch=10 n=51 v=52
4515 On ch=10 n=51 v=0
4560 On ch=10 n=51 v=84
4575 On ch=10 n=51 v=0
4620 On ch=10 n=51 v=52
4635 On ch=10 n=51 v=0
4680 On ch=10 n=42 v=84
4680 On ch=10 n=51 v=68
4680 On ch=10 n=69 v=36
4680 On ch=10 n=76 v=84
4695 On ch=10 n=76 v=0
4695 On ch=10 n=42 v=0
4695 On ch=10 n=51 v=0
4695 On ch=10 n=69 v=0
4740 On ch=10 n=51 v=52
4755 On ch=10 n=51 v=0
4800 On ch=10 n=35 v=100
4800 On ch=10 n=51 v=84
4815 On ch=10 n=51 v=0
4815 On ch=10 n=35 v=0
4860 On ch=10 n=51 v=52
4875 On ch=10 n=51 v=0
4920 On ch=10 n=51 v=68
4935 On ch=10 n=51 v=0
4980 On ch=10 n=51 v=52
4995 On ch=10 n=51 v=0
5040 On ch=10 n=51 v=84
5055 On ch=10 n=51 v=0
5100 On ch=10 n=51 v=52
5115 On ch=10 n=51 v=0
5160 On ch=10 n=42 v=84
5160 On ch=10 n=51 v=68
5160 On ch=10 n=69 v=36
5160 On ch=10 n=76 v=84
5175 On ch=10 n=76 v=0
5175 On ch=10 n=42 v=0
5175 On ch=10 n=51 v=0
5175 On ch=10 n=69 v=0
5190 On ch=10 n=51 v=52
5205 On ch=10 n=51 v=0
5220 On ch=10 n=51 v=68
5235 On ch=10 n=51 v=0
5280 On ch=10 n=35 v=100
5280 On ch=10 n=51 v=84
5295 On ch=10 n=51 v=0
5295 On ch=10 n=35 v=0
5340 On ch=10 n=51 v=52
5355 On ch=10 n=51 v=0
5400 On ch=10 n=42 v=84
5400 On ch=10 n=51 v=68
5400 On ch=10 n=54 v=100
5400 On ch=10 n=69 v=52
5400 On ch=10 n=76 v=100
5415 On ch=10 n=76 v=0
5415 On ch=10 n=54 v=0
5415 On ch=10 n=42 v=0
5415 On ch=10 n=51 v=0
5415 On ch=10 n=69 v=0
5460 On ch=10 n=51 v=52
5475 On ch=10 n=51 v=0
5520 On ch=10 n=51 v=84
5535 On ch=10 n=51 v=0
5580 On ch=10 n=51 v=52
5595 On ch=10 n=51 v=0
5640 On ch=10 n=42 v=84
5640 On ch=10 n=51 v=68
5640 On ch=10 n=69 v=36
5640 On ch=10 n=76 v=84
5655 On ch=10 n=76 v=0
5655 On ch=10 n=42 v=0
5655 On ch=10 n=51 v=0
5655 On ch=10 n=69 v=0
5700 On ch=10 n=51 v=52
5715 On ch=10 n=51 v=0
5760 On ch=10 n=35 v=100
5760 On ch=10 n=51 v=84
5775 On ch=10 n=51 v=0
5775 On ch=10 n=35 v=0
5820 On ch=10 n=51 v=52
5835 On ch=10 n=51 v=0
5880 On ch=10 n=42 v=84
5880 On ch=10 n=51 v=68
5880 On ch=10 n=54 v=100
5880 On ch=10 n=69 v=52
5880 On ch=10 n=76 v=100
5895 On ch=10 n=76 v=0
5895 On ch=10 n=54 v=0
5895 On ch=10 n=42 v=0
5895 On ch=10 n=51 v=0
5895 On ch=10 n=69 v=0
5940 On ch=10 n=51 v=52
5955 On ch=10 n=51 v=0
6000 On ch=10 n=51 v=84
6015 On ch=10 n=51 v=0
6060 On ch=10 n=51 v=52
6074 On ch=10 n=51 v=0
6120 On ch=10 n=42 v=84
6120 On ch=10 n=51 v=68
6120 On ch=10 n=69 v=36
6120 On ch=10 n=76 v=84
6135 On ch=10 n=76 v=0
6135 On ch=10 n=42 v=0
6135 On ch=10 n=51 v=0
6135 On ch=10 n=69 v=0
6180 On ch=10 n=51 v=52
6195 On ch=10 n=51 v=0
6240 On ch=10 n=35 v=100
6240 On ch=10 n=51 v=84
6255 On ch=10 n=51 v=0
6255 On ch=10 n=35 v=0
6300 On ch=10 n=51 v=52
6315 On ch=10 n=51 v=0
6360 On ch=10 n=42 v=84
6360 On ch=10 n=51 v=68
6360 On ch=10 n=54 v=100
6360 On ch=10 n=69 v=52
6360 On ch=10 n=76 v=100
6375 On ch=10 n=76 v=0
6375 On ch=10 n=54 v=0
6375 On ch=10 n=42 v=0
6375 On ch=10 n=51 v=0
6375 On ch=10 n=69 v=0
6420 On ch=10 n=51 v=52
6435 On ch=10 n=51 v=0
6480 On ch=10 n=51 v=84
6495 On ch=10 n=51 v=0
6540 On ch=10 n=51 v=52
6555 On ch=10 n=51 v=0
6600 On ch=10 n=42 v=84
6600 On ch=10 n=51 v=68
6600 On ch=10 n=69 v=36
6600 On ch=10 n=76 v=84
6615 On ch=10 n=76 v=0
6615 On ch=10 n=42 v=0
6615 On ch=10 n=51 v=0
6615 On ch=10 n=69 v=0
6660 On ch=10 n=51 v=52
6675 On ch=10 n=51 v=0
6720 On ch=10 n=35 v=100
6720 On ch=10 n=51 v=84
6735 On ch=10 n=51 v=0
6735 On ch=10 n=35 v=0
6780 On ch=10 n=51 v=52
6795 On ch=10 n=51 v=0
6840 On ch=10 n=42 v=84
6840 On ch=10 n=51 v=68
6840 On ch=10 n=54 v=100
6840 On ch=10 n=69 v=52
6840 On ch=10 n=76 v=100
6855 On ch=10 n=76 v=0
6855 On ch=10 n=54 v=0
6855 On ch=10 n=42 v=0
6855 On ch=10 n=51 v=0
6855 On ch=10 n=69 v=0
6900 On ch=10 n=51 v=52
6915 On ch=10 n=51 v=0
6960 On ch=10 n=51 v=84
6975 On ch=10 n=51 v=0
7020 On ch=10 n=51 v=52
7034 On ch=10 n=51 v=0
7080 On ch=10 n=42 v=84
7080 On ch=10 n=51 v=68
7080 On ch=10 n=69 v=36
7080 On ch=10 n=76 v=84
7095 On ch=10 n=76 v=0
7095 On ch=10 n=42 v=0
7095 On ch=10 n=51 v=0
7095 On ch=10 n=69 v=0
7140 On ch=10 n=51 v=52
7155 On ch=10 n=51 v=0
7200 On ch=10 n=35 v=100
7200 On ch=10 n=51 v=84
7215 On ch=10 n=51 v=0
7215 On ch=10 n=35 v=0
7260 On ch=10 n=51 v=52
7275 On ch=10 n=51 v=0
7320 On ch=10 n=42 v=84
7320 On ch=10 n=51 v=68
7320 On ch=10 n=54 v=100
7320 On ch=10 n=69 v=52
7320 On ch=10 n=76 v=100
7335 On ch=10 n=76 v=0
7335 On ch=10 n=54 v=0
7335 On ch=10 n=42 v=0
7335 On ch=10 n=51 v=0
7335 On ch=10 n=69 v=0
7380 On ch=10 n=51 v=52
7395 On ch=10 n=51 v=0
7440 On ch=10 n=51 v=84
7455 On ch=10 n=51 v=0
7500 On ch=10 n=51 v=52
7515 On ch=10 n=51 v=0
7560 On ch=10 n=42 v=84
7560 On ch=10 n=51 v=68
7560 On ch=10 n=69 v=36
7560 On ch=10 n=76 v=84
7575 On ch=10 n=76 v=0
7575 On ch=10 n=42 v=0
7575 On ch=10 n=51 v=0
7575 On ch=10 n=69 v=0
7620 On ch=10 n=51 v=52
7635 On ch=10 n=51 v=0
7680 On ch=10 n=35 v=100
7680 On ch=10 n=49 v=100
7680 On ch=10 n=51 v=84
7695 On ch=10 n=51 v=0
7695 On ch=10 n=49 v=0
7695 On ch=10 n=35 v=0
7740 On ch=10 n=51 v=52
7755 On ch=10 n=51 v=0
7800 On ch=10 n=42 v=84
7800 On ch=10 n=51 v=68
7800 On ch=10 n=54 v=100
7800 On ch=10 n=69 v=52
7800 On ch=10 n=76 v=127
7815 On ch=10 n=76 v=0
7815 On ch=10 n=54 v=0
7815 On ch=10 n=42 v=0
7815 On ch=10 n=51 v=0
7815 On ch=10 n=69 v=0
7860 On ch=10 n=51 v=52
7875 On ch=10 n=51 v=0
7920 On ch=10 n=51 v=84
7935 On ch=10 n=51 v=0
7980 On ch=10 n=51 v=52
7994 On ch=10 n=51 v=0
8040 On ch=10 n=42 v=84
8040 On ch=10 n=51 v=68
8040 On ch=10 n=69 v=36
8040 On ch=10 n=76 v=116
8055 On ch=10 n=76 v=0
8055 On ch=10 n=42 v=0
8055 On ch=10 n=51 v=0
8055 On ch=10 n=69 v=0
8100 On ch=10 n=51 v=52
8115 On ch=10 n=51 v=0
8160 On ch=10 n=35 v=100
8160 On ch=10 n=51 v=84
8175 On ch=10 n=51 v=0
8175 On ch=10 n=35 v=0
8220 On ch=10 n=51 v=52
8234 On ch=10 n=51 v=0
8280 On ch=10 n=42 v=84
8280 On ch=10 n=51 v=68
8280 On ch=10 n=54 v=100
8280 On ch=10 n=69 v=52
8280 On ch=10 n=76 v=127
8295 On ch=10 n=76 v=0
8295 On ch=10 n=54 v=0
8295 On ch=10 n=42 v=0
8295 On ch=10 n=51 v=0
8295 On ch=10 n=69 v=0
8340 On ch=10 n=51 v=52
8355 On ch=10 n=51 v=0
8400 On ch=10 n=51 v=84
8415 On ch=10 n=51 v=0
8460 On ch=10 n=51 v=52
8475 On ch=10 n=51 v=0
8520 On ch=10 n=42 v=84
8520 On ch=10 n=51 v=68
8520 On ch=10 n=69 v=36
8520 On ch=10 n=76 v=116
8535 On ch=10 n=76 v=0
8535 On ch=10 n=42 v=0
8535 On ch=10 n=51 v=0
8535 On ch=10 n=69 v=0
8580 On ch=10 n=51 v=52
8595 On ch=10 n=51 v=0
8640 On ch=10 n=35 v=100
8640 On ch=10 n=51 v=84
8655 On ch=10 n=51 v=0
8655 On ch=10 n=35 v=0
8700 On ch=10 n=51 v=52
8715 On ch=10 n=51 v=0
8760 On ch=10 n=42 v=84
8760 On ch=10 n=51 v=68
8760 On ch=10 n=54 v=100
8760 On ch=10 n=69 v=52
8760 On ch=10 n=76 v=127
8775 On ch=10 n=76 v=0
8775 On ch=10 n=54 v=0
8775 On ch=10 n=42 v=0
8775 On ch=10 n=51 v=0
8775 On ch=10 n=69 v=0
8820 On ch=10 n=51 v=52
8835 On ch=10 n=51 v=0
8880 On ch=10 n=51 v=84
8895 On ch=10 n=51 v=0
8940 On ch=10 n=51 v=52
8954 On ch=10 n=51 v=0
9000 On ch=10 n=42 v=84
9000 On ch=10 n=51 v=68
9000 On ch=10 n=69 v=36
9000 On ch=10 n=76 v=116
9015 On ch=10 n=76 v=0
9015 On ch=10 n=42 v=0
9015 On ch=10 n=51 v=0
9015 On ch=10 n=69 v=0
9060 On ch=10 n=51 v=52
9075 On ch=10 n=51 v=0
9120 On ch=10 n=35 v=100
9120 On ch=10 n=51 v=84
9135 On ch=10 n=51 v=0
9135 On ch=10 n=35 v=0
9180 On ch=10 n=51 v=52
9195 On ch=10 n=51 v=0
9240 On ch=10 n=42 v=84
9240 On ch=10 n=51 v=68
9240 On ch=10 n=54 v=100
9240 On ch=10 n=69 v=52
9240 On ch=10 n=76 v=127
9255 On ch=10 n=76 v=0
9255 On ch=10 n=54 v=0
9255 On ch=10 n=42 v=0
9255 On ch=10 n=51 v=0
9255 On ch=10 n=69 v=0
9300 On ch=10 n=51 v=52
9315 On ch=10 n=51 v=0
9360 On ch=10 n=51 v=84
9375 On ch=10 n=51 v=0
9420 On ch=10 n=51 v=52
9435 On ch=10 n=51 v=0
9480 On ch=10 n=42 v=84
9480 On ch=10 n=51 v=68
9480 On ch=10 n=69 v=36
9480 On ch=10 n=76 v=116
9495 On ch=10 n=76 v=0
9495 On ch=10 n=42 v=0
9495 On ch=10 n=51 v=0
9495 On ch=10 n=69 v=0
9540 On ch=10 n=51 v=52
9555 On ch=10 n=51 v=0
9600 On ch=10 n=35 v=36
9600 On ch=10 n=51 v=100
9615 On ch=10 n=51 v=0
9615 On ch=10 n=35 v=0
9660 On ch=10 n=35 v=36
9660 On ch=10 n=51 v=52
9675 On ch=10 n=51 v=0
9675 On ch=10 n=35 v=0
9720 On ch=10 n=35 v=36
9720 On ch=10 n=42 v=84
9720 On ch=10 n=51 v=68
9720 On ch=10 n=54 v=100
9720 On ch=10 n=69 v=52
9720 On ch=10 n=76 v=127
9735 On ch=10 n=76 v=0
9735 On ch=10 n=42 v=0
9735 On ch=10 n=51 v=0
9735 On ch=10 n=35 v=0
9735 On ch=10 n=69 v=0
9735 On ch=10 n=54 v=0
9780 On ch=10 n=35 v=52
9780 On ch=10 n=51 v=52
9795 On ch=10 n=51 v=0
9795 On ch=10 n=35 v=0
9840 On ch=10 n=35 v=52
9840 On ch=10 n=51 v=84
9855 On ch=10 n=51 v=0
9855 On ch=10 n=35 v=0
9900 On ch=10 n=35 v=68
9900 On ch=10 n=51 v=52
9915 On ch=10 n=51 v=0
9915 On ch=10 n=35 v=0
9960 On ch=10 n=35 v=68
9960 On ch=10 n=42 v=84
9960 On ch=10 n=51 v=68
9960 On ch=10 n=69 v=36
9960 On ch=10 n=76 v=116
9975 On ch=10 n=76 v=0
9975 On ch=10 n=51 v=0
9975 On ch=10 n=35 v=0
9975 On ch=10 n=42 v=0
9975 On ch=10 n=69 v=0
10020 On ch=10 n=35 v=68
10020 On ch=10 n=51 v=52
10035 On ch=10 n=51 v=0
10035 On ch=10 n=35 v=0
10080 On ch=10 n=35 v=84
10080 On ch=10 n=51 v=100
10095 On ch=10 n=51 v=0
10095 On ch=10 n=35 v=0
10140 On ch=10 n=35 v=84
10140 On ch=10 n=51 v=52
10155 On ch=10 n=51 v=0
10155 On ch=10 n=35 v=0
10200 On ch=10 n=35 v=84
10200 On ch=10 n=42 v=84
10200 On ch=10 n=51 v=68
10200 On ch=10 n=54 v=100
10200 On ch=10 n=69 v=52
10200 On ch=10 n=76 v=127
10215 On ch=10 n=76 v=0
10215 On ch=10 n=42 v=0
10215 On ch=10 n=51 v=0
10215 On ch=10 n=35 v=0
10215 On ch=10 n=69 v=0
10215 On ch=10 n=54 v=0
10260 On ch=10 n=35 v=100
10260 On ch=10 n=51 v=52
10275 On ch=10 n=51 v=0
10275 On ch=10 n=35 v=0
10320 On ch=10 n=35 v=100
10320 On ch=10 n=51 v=84
10335 On ch=10 n=51 v=0
10335 On ch=10 n=35 v=0
10380 On ch=10 n=35 v=100
10380 On ch=10 n=51 v=52
10395 On ch=10 n=51 v=0
10395 On ch=10 n=35 v=0
10440 On ch=10 n=35 v=116
10440 On ch=10 n=42 v=84
10440 On ch=10 n=51 v=68
10440 On ch=10 n=69 v=36
10440 On ch=10 n=76 v=116
10455 On ch=10 n=76 v=0
10455 On ch=10 n=51 v=0
10455 On ch=10 n=35 v=0
10455 On ch=10 n=42 v=0
10455 On ch=10 n=69 v=0
10500 On ch=10 n=35 v=127
10500 On ch=10 n=51 v=52
10515 On ch=10 n=51 v=0
10515 On ch=10 n=35 v=0
10560 On ch=10 n=35 v=100
10560 On ch=10 n=51 v=84
10575 On ch=10 n=51 v=0
10575 On ch=10 n=35 v=0
10620 On ch=10 n=51 v=52
10634 On ch=10 n=51 v=0
10680 On ch=10 n=42 v=84
10680 On ch=10 n=51 v=68
10680 On ch=10 n=54 v=100
10680 On ch=10 n=69 v=52
10680 On ch=10 n=76 v=127
10695 On ch=10 n=76 v=0
10695 On ch=10 n=54 v=0
10695 On ch=10 n=42 v=0
10695 On ch=10 n=51 v=0
10695 On ch=10 n=69 v=0
10740 On ch=10 n=51 v=52
10755 On ch=10 n=51 v=0
10800 On ch=10 n=51 v=84
10815 On ch=10 n=51 v=0
10860 On ch=10 n=51 v=52
10874 On ch=10 n=51 v=0
10920 On ch=10 n=42 v=84
10920 On ch=10 n=51 v=68
10920 On ch=10 n=69 v=36
10920 On ch=10 n=76 v=116
10935 On ch=10 n=76 v=0
10935 On ch=10 n=42 v=0
10935 On ch=10 n=51 v=0
10935 On ch=10 n=69 v=0
10980 On ch=10 n=51 v=52
10995 On ch=10 n=51 v=0
11040 On ch=10 n=35 v=100
11040 On ch=10 n=51 v=84
11055 On ch=10 n=51 v=0
11055 On ch=10 n=35 v=0
11100 On ch=10 n=51 v=52
11115 On ch=10 n=51 v=0
11160 On ch=10 n=42 v=84
11160 On ch=10 n=51 v=68
11160 On ch=10 n=54 v=100
11160 On ch=10 n=69 v=52
11160 On ch=10 n=76 v=127
11175 On ch=10 n=76 v=0
11175 On ch=10 n=54 v=0
11175 On ch=10 n=42 v=0
11175 On ch=10 n=51 v=0
11175 On ch=10 n=69 v=0
11220 On ch=10 n=51 v=52
11235 On ch=10 n=51 v=0
11280 On ch=10 n=51 v=84
11295 On ch=10 n=51 v=0
11340 On ch=10 n=51 v=52
11355 On ch=10 n=51 v=0
11400 On ch=10 n=42 v=84
11400 On ch=10 n=51 v=68
11400 On ch=10 n=69 v=36
11400 On ch=10 n=76 v=116
11415 On ch=10 n=76 v=0
11415 On ch=10 n=42 v=0
11415 On ch=10 n=51 v=0
11415 On ch=10 n=69 v=0
11460 On ch=10 n=51 v=52
11475 On ch=10 n=51 v=0
11520 On ch=10 n=35 v=100
11520 On ch=10 n=51 v=100
11535 On ch=10 n=51 v=0
11535 On ch=10 n=35 v=0
11640 On ch=10 n=35 v=100
11640 On ch=10 n=42 v=84
11640 On ch=10 n=51 v=100
11640 On ch=10 n=54 v=100
11640 On ch=10 n=69 v=52
11655 On ch=10 n=69 v=0
11655 On ch=10 n=51 v=0
11655 On ch=10 n=35 v=0
11655 On ch=10 n=42 v=0
11655 On ch=10 n=54 v=0
11715 On ch=10 n=76 v=36
11723 On ch=10 n=76 v=0
11730 On ch=10 n=76 v=84
11738 On ch=10 n=76 v=0
11745 On ch=10 n=76 v=68
11752 On ch=10 n=76 v=0
11760 On ch=10 n=38 v=116
11760 On ch=10 n=76 v=127
11767 On ch=10 n=76 v=0
11775 On ch=10 n=38 v=0
11790 On ch=10 n=38 v=100
11790 On ch=10 n=76 v=116
11797 On ch=10 n=76 v=0
11805 On ch=10 n=38 v=0
11880 On ch=10 n=35 v=84
11880 On ch=10 n=38 v=100
11880 On ch=10 n=42 v=84
11880 On ch=10 n=51 v=84
11880 On ch=10 n=69 v=36
11880 On ch=10 n=76 v=100
11887 On ch=10 n=76 v=0
11895 On ch=10 n=38 v=0
11895 On ch=10 n=42 v=0
11895 On ch=10 n=35 v=0
11895 On ch=10 n=69 v=0
11895 On ch=10 n=51 v=0
11940 On ch=10 n=51 v=52
11955 On ch=10 n=51 v=0
11955 On ch=10 n=76 v=36
11962 On ch=10 n=76 v=0
11970 On ch=10 n=76 v=84
11978 On ch=10 n=76 v=0
11985 On ch=10 n=76 v=68
11993 On ch=10 n=76 v=0
12000 On ch=10 n=35 v=84
12000 On ch=10 n=38 v=116
12000 On ch=10 n=76 v=127
12015 On ch=10 n=76 v=0
12015 On ch=10 n=38 v=0
12015 On ch=10 n=35 v=0
12060 On ch=10 n=38 v=100
12060 On ch=10 n=51 v=84
12060 On ch=10 n=76 v=116
12075 On ch=10 n=76 v=0
12075 On ch=10 n=51 v=0
12075 On ch=10 n=38 v=0
12180 On ch=10 n=35 v=100
12180 On ch=10 n=38 v=100
12180 On ch=10 n=51 v=68
12180 On ch=10 n=76 v=127
12195 On ch=10 n=76 v=0
12195 On ch=10 n=35 v=0
12195 On ch=10 n=38 v=0
12195 On ch=10 n=51 v=0
12240 On ch=10 n=35 v=84
12240 On ch=10 n=38 v=68
12240 On ch=10 n=51 v=84
12240 On ch=10 n=76 v=100
12255 On ch=10 n=76 v=0
12255 On ch=10 n=35 v=0
12255 On ch=10 n=38 v=0
12255 On ch=10 n=51 v=0
12300 On ch=10 n=51 v=68
12315 On ch=10 n=51 v=0
12330 On ch=10 n=48 v=36
12330 On ch=10 n=50 v=84
12345 On ch=10 n=50 v=0
12345 On ch=10 n=48 v=0
12360 On ch=10 n=45 v=52
12360 On ch=10 n=47 v=100
12375 On ch=10 n=47 v=0
12375 On ch=10 n=45 v=0
12420 On ch=10 n=41 v=36
12420 On ch=10 n=43 v=84
12435 On ch=10 n=43 v=0
12435 On ch=10 n=41 v=0
12480 On ch=10 n=35 v=100
12480 On ch=10 n=43 v=52
12480 On ch=10 n=51 v=84
12495 On ch=10 n=51 v=0
12495 On ch=10 n=43 v=0
12495 On ch=10 n=35 v=0
12540 On ch=10 n=51 v=52
12555 On ch=10 n=51 v=0
12600 On ch=10 n=42 v=84
12600 On ch=10 n=51 v=68
12600 On ch=10 n=54 v=100
12600 On ch=10 n=69 v=52
12600 On ch=10 n=76 v=127
12615 On ch=10 n=76 v=0
12615 On ch=10 n=54 v=0
12615 On ch=10 n=42 v=0
12615 On ch=10 n=51 v=0
12615 On ch=10 n=69 v=0
12660 On ch=10 n=51 v=52
12675 On ch=10 n=51 v=0
12720 On ch=10 n=51 v=84
12735 On ch=10 n=51 v=0
12780 On ch=10 n=51 v=52
12795 On ch=10 n=51 v=0
12840 On ch=10 n=42 v=84
12840 On ch=10 n=51 v=68
12840 On ch=10 n=69 v=36
12840 On ch=10 n=76 v=116
12855 On ch=10 n=76 v=0
12855 On ch=10 n=42 v=0
12855 On ch=10 n=51 v=0
12855 On ch=10 n=69 v=0
12900 On ch=10 n=51 v=52
12915 On ch=10 n=51 v=0
12960 On ch=10 n=35 v=100
12960 On ch=10 n=51 v=84
12975 On ch=10 n=51 v=0
12975 On ch=10 n=35 v=0
13020 On ch=10 n=51 v=52
13035 On ch=10 n=51 v=0
13080 On ch=10 n=42 v=84
13080 On ch=10 n=51 v=68
13080 On ch=10 n=54 v=100
13080 On ch=10 n=69 v=52
13080 On ch=10 n=76 v=127
13095 On ch=10 n=76 v=0
13095 On ch=10 n=54 v=0
13095 On ch=10 n=42 v=0
13095 On ch=10 n=51 v=0
13095 On ch=10 n=69 v=0
13140 On ch=10 n=51 v=52
13155 On ch=10 n=51 v=0
13200 On ch=10 n=51 v=84
13215 On ch=10 n=51 v=0
13260 On ch=10 n=51 v=52
13275 On ch=10 n=51 v=0
13320 On ch=10 n=42 v=84
13320 On ch=10 n=51 v=68
13320 On ch=10 n=69 v=36
13320 On ch=10 n=76 v=116
13335 On ch=10 n=76 v=0
13335 On ch=10 n=42 v=0
13335 On ch=10 n=51 v=0
13335 On ch=10 n=69 v=0
13380 On ch=10 n=51 v=52
13395 On ch=10 n=51 v=0
13440 On ch=10 n=35 v=100
13440 On ch=10 n=49 v=100
13440 On ch=10 n=51 v=84
13455 On ch=10 n=51 v=0
13455 On ch=10 n=49 v=0
13455 On ch=10 n=35 v=0
13500 On ch=10 n=51 v=52
13515 On ch=10 n=51 v=0
13560 On ch=10 n=38 v=100
13560 On ch=10 n=42 v=84
13560 On ch=10 n=51 v=68
13560 On ch=10 n=54 v=100
13560 On ch=10 n=69 v=52
13560 On ch=10 n=76 v=127
13575 On ch=10 n=76 v=0
13575 On ch=10 n=42 v=0
13575 On ch=10 n=51 v=0
13575 On ch=10 n=38 v=0
13575 On ch=10 n=69 v=0
13575 On ch=10 n=54 v=0
13620 On ch=10 n=51 v=52
13635 On ch=10 n=51 v=0
13680 On ch=10 n=51 v=84
13695 On ch=10 n=51 v=0
13740 On ch=10 n=51 v=52
13755 On ch=10 n=51 v=0
13800 On ch=10 n=38 v=84
13800 On ch=10 n=42 v=84
13800 On ch=10 n=51 v=68
13800 On ch=10 n=69 v=36
13800 On ch=10 n=76 v=116
13815 On ch=10 n=76 v=0
13815 On ch=10 n=51 v=0
13815 On ch=10 n=38 v=0
13815 On ch=10 n=42 v=0
13815 On ch=10 n=69 v=0
13860 On ch=10 n=51 v=52
13875 On ch=10 n=51 v=0
13920 On ch=10 n=35 v=100
13920 On ch=10 n=51 v=84
13935 On ch=10 n=51 v=0
13935 On ch=10 n=35 v=0
13980 On ch=10 n=51 v=52
13995 On ch=10 n=51 v=0
14040 On ch=10 n=38 v=100
14040 On ch=10 n=42 v=84
14040 On ch=10 n=51 v=68
14040 On ch=10 n=54 v=100
14040 On ch=10 n=69 v=52
14040 On ch=10 n=76 v=127
14055 On ch=10 n=76 v=0
14055 On ch=10 n=42 v=0
14055 On ch=10 n=51 v=0
14055 On ch=10 n=38 v=0
14055 On ch=10 n=69 v=0
14055 On ch=10 n=54 v=0
14100 On ch=10 n=51 v=52
14115 On ch=10 n=51 v=0
14160 On ch=10 n=51 v=84
14175 On ch=10 n=51 v=0
14220 On ch=10 n=51 v=52
14235 On ch=10 n=51 v=0
14280 On ch=10 n=38 v=84
14280 On ch=10 n=42 v=84
14280 On ch=10 n=51 v=68
14280 On ch=10 n=69 v=36
14280 On ch=10 n=76 v=116
14295 On ch=10 n=76 v=0
14295 On ch=10 n=51 v=0
14295 On ch=10 n=38 v=0
14295 On ch=10 n=42 v=0
14295 On ch=10 n=69 v=0
14340 On ch=10 n=51 v=52
14355 On ch=10 n=51 v=0
14400 On ch=10 n=35 v=100
14400 On ch=10 n=51 v=84
14415 On ch=10 n=51 v=0
14415 On ch=10 n=35 v=0
14460 On ch=10 n=51 v=52
14475 On ch=10 n=51 v=0
14520 On ch=10 n=38 v=100
14520 On ch=10 n=42 v=84
14520 On ch=10 n=51 v=68
14520 On ch=10 n=54 v=100
14520 On ch=10 n=69 v=52
14520 On ch=10 n=76 v=127
14535 On ch=10 n=76 v=0
14535 On ch=10 n=42 v=0
14535 On ch=10 n=51 v=0
14535 On ch=10 n=38 v=0
14535 On ch=10 n=69 v=0
14535 On ch=10 n=54 v=0
14580 On ch=10 n=51 v=52
14595 On ch=10 n=51 v=0
14640 On ch=10 n=51 v=84
14655 On ch=10 n=51 v=0
14700 On ch=10 n=51 v=52
14715 On ch=10 n=51 v=0
14760 On ch=10 n=38 v=84
14760 On ch=10 n=42 v=84
14760 On ch=10 n=51 v=68
14760 On ch=10 n=69 v=36
14760 On ch=10 n=76 v=116
14775 On ch=10 n=76 v=0
14775 On ch=10 n=51 v=0
14775 On ch=10 n=38 v=0
14775 On ch=10 n=42 v=0
14775 On ch=10 n=69 v=0
14820 On ch=10 n=51 v=52
14835 On ch=10 n=51 v=0
14880 On ch=10 n=35 v=100
14880 On ch=10 n=51 v=84
14895 On ch=10 n=51 v=0
14895 On ch=10 n=35 v=0
14940 On ch=10 n=51 v=52
14955 On ch=10 n=51 v=0
15000 On ch=10 n=38 v=100
15000 On ch=10 n=42 v=84
15000 On ch=10 n=51 v=68
15000 On ch=10 n=54 v=100
15000 On ch=10 n=69 v=52
15000 On ch=10 n=76 v=127
15015 On ch=10 n=76 v=0
15015 On ch=10 n=42 v=0
15015 On ch=10 n=51 v=0
15015 On ch=10 n=38 v=0
15015 On ch=10 n=69 v=0
15015 On ch=10 n=54 v=0
15060 On ch=10 n=51 v=52
15075 On ch=10 n=51 v=0
15120 On ch=10 n=51 v=84
15135 On ch=10 n=51 v=0
15180 On ch=10 n=51 v=52
15195 On ch=10 n=51 v=0
15240 On ch=10 n=38 v=84
15240 On ch=10 n=42 v=84
15240 On ch=10 n=51 v=68
15240 On ch=10 n=69 v=36
15240 On ch=10 n=76 v=116
15255 On ch=10 n=76 v=0
15255 On ch=10 n=51 v=0
15255 On ch=10 n=38 v=0
15255 On ch=10 n=42 v=0
15255 On ch=10 n=69 v=0
15300 On ch=10 n=51 v=52
15315 On ch=10 n=51 v=0
15360 On ch=10 n=35 v=36
15360 On ch=10 n=38 v=36
15360 On ch=10 n=51 v=100
15375 On ch=10 n=51 v=0
15375 On ch=10 n=38 v=0
15375 On ch=10 n=35 v=0
15420 On ch=10 n=35 v=36
15420 On ch=10 n=38 v=36
15420 On ch=10 n=51 v=52
15435 On ch=10 n=51 v=0
15435 On ch=10 n=38 v=0
15435 On ch=10 n=35 v=0
15480 On ch=10 n=35 v=52
15480 On ch=10 n=38 v=36
15480 On ch=10 n=42 v=84
15480 On ch=10 n=51 v=68
15480 On ch=10 n=54 v=100
15480 On ch=10 n=69 v=52
15480 On ch=10 n=76 v=100
15495 On ch=10 n=76 v=0
15495 On ch=10 n=54 v=0
15495 On ch=10 n=38 v=0
15495 On ch=10 n=42 v=0
15495 On ch=10 n=35 v=0
15495 On ch=10 n=69 v=0
15495 On ch=10 n=51 v=0
15540 On ch=10 n=35 v=52
15540 On ch=10 n=38 v=36
15540 On ch=10 n=51 v=52
15555 On ch=10 n=51 v=0
15555 On ch=10 n=38 v=0
15555 On ch=10 n=35 v=0
15600 On ch=10 n=35 v=68
15600 On ch=10 n=38 v=52
15600 On ch=10 n=51 v=84
15615 On ch=10 n=51 v=0
15615 On ch=10 n=38 v=0
15615 On ch=10 n=35 v=0
15660 On ch=10 n=35 v=68
15660 On ch=10 n=38 v=52
15660 On ch=10 n=51 v=52
15675 On ch=10 n=51 v=0
15675 On ch=10 n=38 v=0
15675 On ch=10 n=35 v=0
15720 On ch=10 n=35 v=84
15720 On ch=10 n=38 v=52
15720 On ch=10 n=42 v=84
15720 On ch=10 n=51 v=68
15720 On ch=10 n=69 v=36
15720 On ch=10 n=76 v=84
15735 On ch=10 n=76 v=0
15735 On ch=10 n=38 v=0
15735 On ch=10 n=42 v=0
15735 On ch=10 n=35 v=0
15735 On ch=10 n=69 v=0
15735 On ch=10 n=51 v=0
15780 On ch=10 n=35 v=84
15780 On ch=10 n=38 v=52
15780 On ch=10 n=51 v=52
15795 On ch=10 n=51 v=0
15795 On ch=10 n=38 v=0
15795 On ch=10 n=35 v=0
15840 On ch=10 n=35 v=100
15840 On ch=10 n=38 v=68
15840 On ch=10 n=51 v=100
15855 On ch=10 n=51 v=0
15855 On ch=10 n=38 v=0
15855 On ch=10 n=35 v=0
15900 On ch=10 n=35 v=100
15900 On ch=10 n=38 v=68
15900 On ch=10 n=51 v=52
15915 On ch=10 n=51 v=0
15915 On ch=10 n=38 v=0
15915 On ch=10 n=35 v=0
15960 On ch=10 n=35 v=100
15960 On ch=10 n=38 v=68
15960 On ch=10 n=42 v=84
15960 On ch=10 n=51 v=68
15960 On ch=10 n=54 v=100
15960 On ch=10 n=69 v=52
15960 On ch=10 n=76 v=100
15975 On ch=10 n=76 v=0
15975 On ch=10 n=54 v=0
15975 On ch=10 n=38 v=0
15975 On ch=10 n=42 v=0
15975 On ch=10 n=35 v=0
15975 On ch=10 n=69 v=0
15975 On ch=10 n=51 v=0
16020 On ch=10 n=35 v=116
16020 On ch=10 n=38 v=68
16020 On ch=10 n=51 v=52
16035 On ch=10 n=51 v=0
16035 On ch=10 n=38 v=0
16035 On ch=10 n=35 v=0
16080 On ch=10 n=35 v=116
16080 On ch=10 n=38 v=84
16080 On ch=10 n=51 v=84
16095 On ch=10 n=51 v=0
16095 On ch=10 n=38 v=0
16095 On ch=10 n=35 v=0
16140 On ch=10 n=35 v=116
16140 On ch=10 n=38 v=84
16140 On ch=10 n=51 v=52
16155 On ch=10 n=51 v=0
16155 On ch=10 n=38 v=0
16155 On ch=10 n=35 v=0
16200 On ch=10 n=35 v=127
16200 On ch=10 n=38 v=100
16200 On ch=10 n=42 v=84
16200 On ch=10 n=51 v=68
16200 On ch=10 n=69 v=36
16200 On ch=10 n=76 v=84
16215 On ch=10 n=76 v=0
16215 On ch=10 n=38 v=0
16215 On ch=10 n=42 v=0
16215 On ch=10 n=35 v=0
16215 On ch=10 n=69 v=0
16215 On ch=10 n=51 v=0
16260 On ch=10 n=35 v=127
16260 On ch=10 n=38 v=116
16260 On ch=10 n=51 v=52
16275 On ch=10 n=51 v=0
16275 On ch=10 n=38 v=0
16275 On ch=10 n=35 v=0
16320 On ch=10 n=35 v=100
16320 On ch=10 n=51 v=84
16335 On ch=10 n=51 v=0
16335 On ch=10 n=35 v=0
16380 On ch=10 n=51 v=52
16395 On ch=10 n=51 v=0
16440 On ch=10 n=38 v=100
16440 On ch=10 n=42 v=84
16440 On ch=10 n=51 v=68
16440 On ch=10 n=54 v=100
16440 On ch=10 n=69 v=52
16440 On ch=10 n=76 v=127
16455 On ch=10 n=76 v=0
16455 On ch=10 n=42 v=0
16455 On ch=10 n=51 v=0
16455 On ch=10 n=38 v=0
16455 On ch=10 n=69 v=0
16455 On ch=10 n=54 v=0
16500 On ch=10 n=51 v=52
16515 On ch=10 n=51 v=0
16560 On ch=10 n=51 v=84
16575 On ch=10 n=51 v=0
16620 On ch=10 n=51 v=52
16635 On ch=10 n=51 v=0
16680 On ch=10 n=38 v=84
16680 On ch=10 n=42 v=84
16680 On ch=10 n=51 v=68
16680 On ch=10 n=69 v=36
16680 On ch=10 n=76 v=116
16695 On ch=10 n=76 v=0
16695 On ch=10 n=51 v=0
16695 On ch=10 n=38 v=0
16695 On ch=10 n=42 v=0
16695 On ch=10 n=69 v=0
16740 On ch=10 n=51 v=52
16755 On ch=10 n=51 v=0
16800 On ch=10 n=35 v=100
16800 On ch=10 n=51 v=84
16815 On ch=10 n=51 v=0
16815 On ch=10 n=35 v=0
16860 On ch=10 n=51 v=52
16875 On ch=10 n=51 v=0
16920 On ch=10 n=38 v=100
16920 On ch=10 n=42 v=84
16920 On ch=10 n=51 v=68
16920 On ch=10 n=54 v=100
16920 On ch=10 n=69 v=52
16920 On ch=10 n=76 v=127
16935 On ch=10 n=76 v=0
16935 On ch=10 n=42 v=0
16935 On ch=10 n=51 v=0
16935 On ch=10 n=38 v=0
16935 On ch=10 n=69 v=0
16935 On ch=10 n=54 v=0
16980 On ch=10 n=51 v=52
16995 On ch=10 n=51 v=0
17040 On ch=10 n=51 v=84
17055 On ch=10 n=51 v=0
17100 On ch=10 n=51 v=52
17115 On ch=10 n=51 v=0
17160 On ch=10 n=38 v=84
17160 On ch=10 n=42 v=84
17160 On ch=10 n=51 v=68
17160 On ch=10 n=69 v=36
17160 On ch=10 n=76 v=116
17175 On ch=10 n=76 v=0
17175 On ch=10 n=51 v=0
17175 On ch=10 n=38 v=0
17175 On ch=10 n=42 v=0
17175 On ch=10 n=69 v=0
17220 On ch=10 n=51 v=52
17235 On ch=10 n=51 v=0
17280 On ch=10 n=35 v=100
17280 On ch=10 n=51 v=100
17295 On ch=10 n=51 v=0
17295 On ch=10 n=35 v=0
17400 On ch=10 n=35 v=100
17400 On ch=10 n=42 v=84
17400 On ch=10 n=51 v=100
17400 On ch=10 n=54 v=100
17400 On ch=10 n=69 v=52
17415 On ch=10 n=69 v=0
17415 On ch=10 n=51 v=0
17415 On ch=10 n=35 v=0
17415 On ch=10 n=42 v=0
17415 On ch=10 n=54 v=0
17475 On ch=10 n=76 v=36
17483 On ch=10 n=76 v=0
17490 On ch=10 n=76 v=84
17497 On ch=10 n=76 v=0
17505 On ch=10 n=76 v=68
17512 On ch=10 n=76 v=0
17520 On ch=10 n=38 v=116
17520 On ch=10 n=76 v=127
17527 On ch=10 n=76 v=0
17535 On ch=10 n=38 v=0
17550 On ch=10 n=38 v=100
17550 On ch=10 n=76 v=127
17557 On ch=10 n=76 v=0
17565 On ch=10 n=38 v=0
17640 On ch=10 n=35 v=68
17640 On ch=10 n=38 v=100
17640 On ch=10 n=42 v=84
17640 On ch=10 n=51 v=84
17640 On ch=10 n=69 v=36
17640 On ch=10 n=76 v=116
17648 On ch=10 n=76 v=0
17655 On ch=10 n=38 v=0
17655 On ch=10 n=42 v=0
17655 On ch=10 n=35 v=0
17655 On ch=10 n=69 v=0
17655 On ch=10 n=51 v=0
17700 On ch=10 n=38 v=100
17700 On ch=10 n=51 v=52
17715 On ch=10 n=51 v=0
17715 On ch=10 n=38 v=0
17715 On ch=10 n=76 v=36
17722 On ch=10 n=76 v=0
17730 On ch=10 n=38 v=68
17730 On ch=10 n=76 v=84
17738 On ch=10 n=76 v=0
17745 On ch=10 n=38 v=0
17745 On ch=10 n=76 v=68
17753 On ch=10 n=76 v=0
17760 On ch=10 n=35 v=84
17760 On ch=10 n=38 v=100
17760 On ch=10 n=76 v=127
17775 On ch=10 n=76 v=0
17775 On ch=10 n=38 v=0
17775 On ch=10 n=35 v=0
17820 On ch=10 n=38 v=100
17820 On ch=10 n=51 v=84
17820 On ch=10 n=76 v=116
17835 On ch=10 n=76 v=0
17835 On ch=10 n=51 v=0
17835 On ch=10 n=38 v=0
17940 On ch=10 n=35 v=100
17940 On ch=10 n=38 v=100
17940 On ch=10 n=51 v=68
17940 On ch=10 n=76 v=127
17955 On ch=10 n=76 v=0
17955 On ch=10 n=35 v=0
17955 On ch=10 n=38 v=0
17955 On ch=10 n=51 v=0
18000 On ch=10 n=35 v=84
18000 On ch=10 n=38 v=68
18000 On ch=10 n=51 v=84
18000 On ch=10 n=76 v=100
18015 On ch=10 n=76 v=0
18015 On ch=10 n=35 v=0
18015 On ch=10 n=38 v=0
18015 On ch=10 n=51 v=0
18060 On ch=10 n=51 v=68
18075 On ch=10 n=51 v=0
18090 On ch=10 n=48 v=36
18090 On ch=10 n=50 v=100
18105 On ch=10 n=50 v=0
18105 On ch=10 n=48 v=0
18120 On ch=10 n=45 v=52
18120 On ch=10 n=47 v=116
18135 On ch=10 n=47 v=0
18135 On ch=10 n=45 v=0
18180 On ch=10 n=41 v=36
18180 On ch=10 n=43 v=100
18195 On ch=10 n=43 v=0
18195 On ch=10 n=41 v=0
18240 On ch=10 n=35 v=84
18240 On ch=10 n=49 v=100
18240 On ch=10 n=51 v=84
18255 On ch=10 n=51 v=0
18255 On ch=10 n=49 v=0
18255 On ch=10 n=35 v=0
18300 On ch=10 n=51 v=52
18315 On ch=10 n=51 v=0
18360 On ch=10 n=38 v=100
18360 On ch=10 n=42 v=84
18360 On ch=10 n=51 v=68
18360 On ch=10 n=54 v=100
18360 On ch=10 n=69 v=52
18360 On ch=10 n=76 v=127
18375 On ch=10 n=76 v=0
18375 On ch=10 n=42 v=0
18375 On ch=10 n=51 v=0
18375 On ch=10 n=38 v=0
18375 On ch=10 n=69 v=0
18375 On ch=10 n=54 v=0
18420 On ch=10 n=51 v=52
18435 On ch=10 n=51 v=0
18480 On ch=10 n=51 v=84
18495 On ch=10 n=51 v=0
18540 On ch=10 n=51 v=52
18555 On ch=10 n=51 v=0
18600 On ch=10 n=38 v=84
18600 On ch=10 n=42 v=84
18600 On ch=10 n=51 v=68
18600 On ch=10 n=69 v=36
18600 On ch=10 n=76 v=116
18615 On ch=10 n=76 v=0
18615 On ch=10 n=51 v=0
18615 On ch=10 n=38 v=0
18615 On ch=10 n=42 v=0
18615 On ch=10 n=69 v=0
18660 On ch=10 n=51 v=52
18675 On ch=10 n=51 v=0
18720 On ch=10 n=35 v=100
18720 On ch=10 n=51 v=84
18735 On ch=10 n=51 v=0
18735 On ch=10 n=35 v=0
18780 On ch=10 n=51 v=52
18795 On ch=10 n=51 v=0
18840 On ch=10 n=38 v=100
18840 On ch=10 n=42 v=84
18840 On ch=10 n=51 v=68
18840 On ch=10 n=54 v=100
18840 On ch=10 n=69 v=52
18840 On ch=10 n=76 v=127
18855 On ch=10 n=76 v=0
18855 On ch=10 n=42 v=0
18855 On ch=10 n=51 v=0
18855 On ch=10 n=38 v=0
18855 On ch=10 n=69 v=0
18855 On ch=10 n=54 v=0
18900 On ch=10 n=51 v=52
18915 On ch=10 n=51 v=0
18960 On ch=10 n=51 v=84
18975 On ch=10 n=51 v=0
19020 On ch=10 n=51 v=52
19035 On ch=10 n=51 v=0
19080 On ch=10 n=38 v=84
19080 On ch=10 n=42 v=84
19080 On ch=10 n=51 v=68
19080 On ch=10 n=69 v=36
19080 On ch=10 n=76 v=116
19095 On ch=10 n=76 v=0
19095 On ch=10 n=51 v=0
19095 On ch=10 n=38 v=0
19095 On ch=10 n=42 v=0
19095 On ch=10 n=69 v=0
19140 On ch=10 n=38 v=116
19140 On ch=10 n=51 v=52
19155 On ch=10 n=51 v=0
19155 On ch=10 n=38 v=0
19200 On ch=10 n=35 v=100
19200 On ch=10 n=49 v=100
19200 On ch=10 n=51 v=84
19215 On ch=10 n=51 v=0
19215 On ch=10 n=49 v=0
19215 On ch=10 n=35 v=0
19260 On ch=10 n=51 v=52
19275 On ch=10 n=51 v=0
19320 On ch=10 n=42 v=84
19320 On ch=10 n=51 v=68
19320 On ch=10 n=54 v=100
19320 On ch=10 n=69 v=52
19320 On ch=10 n=76 v=127
19335 On ch=10 n=76 v=0
19335 On ch=10 n=54 v=0
19335 On ch=10 n=42 v=0
19335 On ch=10 n=51 v=0
19335 On ch=10 n=69 v=0
19380 On ch=10 n=51 v=52
19395 On ch=10 n=51 v=0
19440 On ch=10 n=51 v=84
19455 On ch=10 n=51 v=0
19500 On ch=10 n=51 v=52
19514 On ch=10 n=51 v=0
19560 On ch=10 n=42 v=84
19560 On ch=10 n=51 v=68
19560 On ch=10 n=69 v=36
19560 On ch=10 n=76 v=116
19575 On ch=10 n=76 v=0
19575 On ch=10 n=42 v=0
19575 On ch=10 n=51 v=0
19575 On ch=10 n=69 v=0
19620 On ch=10 n=51 v=52
19635 On ch=10 n=51 v=0
19680 On ch=10 n=35 v=100
19680 On ch=10 n=51 v=84
19695 On ch=10 n=51 v=0
19695 On ch=10 n=35 v=0
19740 On ch=10 n=51 v=52
19755 On ch=10 n=51 v=0
19800 On ch=10 n=42 v=84
19800 On ch=10 n=51 v=68
19800 On ch=10 n=54 v=100
19800 On ch=10 n=69 v=52
19800 On ch=10 n=76 v=127
19815 On ch=10 n=76 v=0
19815 On ch=10 n=54 v=0
19815 On ch=10 n=42 v=0
19815 On ch=10 n=51 v=0
19815 On ch=10 n=69 v=0
19860 On ch=10 n=51 v=52
19875 On ch=10 n=51 v=0
19920 On ch=10 n=51 v=84
19935 On ch=10 n=51 v=0
19980 On ch=10 n=51 v=52
19995 On ch=10 n=51 v=0
20040 On ch=10 n=42 v=84
20040 On ch=10 n=51 v=68
20040 On ch=10 n=69 v=36
20040 On ch=10 n=76 v=116
20055 On ch=10 n=76 v=0
20055 On ch=10 n=42 v=0
20055 On ch=10 n=51 v=0
20055 On ch=10 n=69 v=0
20100 On ch=10 n=51 v=52
20115 On ch=10 n=51 v=0
20160 On ch=10 n=35 v=100
20160 On ch=10 n=51 v=84
20175 On ch=10 n=51 v=0
20175 On ch=10 n=35 v=0
20220 On ch=10 n=51 v=52
20235 On ch=10 n=51 v=0
20280 On ch=10 n=42 v=84
20280 On ch=10 n=51 v=68
20280 On ch=10 n=54 v=100
20280 On ch=10 n=69 v=52
20280 On ch=10 n=76 v=127
20295 On ch=10 n=76 v=0
20295 On ch=10 n=54 v=0
20295 On ch=10 n=42 v=0
20295 On ch=10 n=51 v=0
20295 On ch=10 n=69 v=0
20340 On ch=10 n=51 v=52
20355 On ch=10 n=51 v=0
20400 On ch=10 n=51 v=84
20415 On ch=10 n=51 v=0
20460 On ch=10 n=51 v=52
20475 On ch=10 n=51 v=0
20520 On ch=10 n=42 v=84
20520 On ch=10 n=51 v=68
20520 On ch=10 n=69 v=36
20520 On ch=10 n=76 v=116
20535 On ch=10 n=76 v=0
20535 On ch=10 n=42 v=0
20535 On ch=10 n=51 v=0
20535 On ch=10 n=69 v=0
20580 On ch=10 n=51 v=52
20595 On ch=10 n=51 v=0
20640 On ch=10 n=35 v=100
20640 On ch=10 n=51 v=84
20655 On ch=10 n=51 v=0
20655 On ch=10 n=35 v=0
20700 On ch=10 n=51 v=52
20715 On ch=10 n=51 v=0
20760 On ch=10 n=42 v=84
20760 On ch=10 n=51 v=68
20760 On ch=10 n=54 v=100
20760 On ch=10 n=69 v=52
20760 On ch=10 n=76 v=127
20775 On ch=10 n=76 v=0
20775 On ch=10 n=54 v=0
20775 On ch=10 n=42 v=0
20775 On ch=10 n=51 v=0
20775 On ch=10 n=69 v=0
20820 On ch=10 n=51 v=52
20835 On ch=10 n=51 v=0
20880 On ch=10 n=51 v=84
20895 On ch=10 n=51 v=0
20940 On ch=10 n=51 v=52
20955 On ch=10 n=51 v=0
21000 On ch=10 n=42 v=84
21000 On ch=10 n=51 v=68
21000 On ch=10 n=69 v=36
21000 On ch=10 n=76 v=116
21015 On ch=10 n=76 v=0
21015 On ch=10 n=42 v=0
21015 On ch=10 n=51 v=0
21015 On ch=10 n=69 v=0
21060 On ch=10 n=51 v=52
21075 On ch=10 n=51 v=0
21120 On ch=10 n=35 v=36
21120 On ch=10 n=51 v=100
21135 On ch=10 n=51 v=0
21135 On ch=10 n=35 v=0
21180 On ch=10 n=35 v=36
21180 On ch=10 n=51 v=52
21195 On ch=10 n=51 v=0
21195 On ch=10 n=35 v=0
21240 On ch=10 n=35 v=36
21240 On ch=10 n=42 v=84
21240 On ch=10 n=51 v=68
21240 On ch=10 n=54 v=100
21240 On ch=10 n=69 v=52
21240 On ch=10 n=76 v=127
21255 On ch=10 n=76 v=0
21255 On ch=10 n=42 v=0
21255 On ch=10 n=51 v=0
21255 On ch=10 n=35 v=0
21255 On ch=10 n=69 v=0
21255 On ch=10 n=54 v=0
21300 On ch=10 n=35 v=52
21300 On ch=10 n=51 v=52
21315 On ch=10 n=51 v=0
21315 On ch=10 n=35 v=0
21360 On ch=10 n=35 v=52
21360 On ch=10 n=51 v=84
21375 On ch=10 n=51 v=0
21375 On ch=10 n=35 v=0
21420 On ch=10 n=35 v=68
21420 On ch=10 n=51 v=52
21435 On ch=10 n=51 v=0
21435 On ch=10 n=35 v=0
21480 On ch=10 n=35 v=68
21480 On ch=10 n=42 v=84
21480 On ch=10 n=51 v=68
21480 On ch=10 n=69 v=36
21480 On ch=10 n=76 v=116
21495 On ch=10 n=76 v=0
21495 On ch=10 n=51 v=0
21495 On ch=10 n=35 v=0
21495 On ch=10 n=42 v=0
21495 On ch=10 n=69 v=0
21540 On ch=10 n=35 v=68
21540 On ch=10 n=51 v=52
21555 On ch=10 n=51 v=0
21555 On ch=10 n=35 v=0
21600 On ch=10 n=35 v=84
21600 On ch=10 n=51 v=100
21615 On ch=10 n=51 v=0
21615 On ch=10 n=35 v=0
21660 On ch=10 n=35 v=84
21660 On ch=10 n=51 v=52
21675 On ch=10 n=51 v=0
21675 On ch=10 n=35 v=0
21720 On ch=10 n=35 v=84
21720 On ch=10 n=42 v=84
21720 On ch=10 n=51 v=68
21720 On ch=10 n=54 v=100
21720 On ch=10 n=69 v=52
21720 On ch=10 n=76 v=127
21735 On ch=10 n=76 v=0
21735 On ch=10 n=42 v=0
21735 On ch=10 n=51 v=0
21735 On ch=10 n=35 v=0
21735 On ch=10 n=69 v=0
21735 On ch=10 n=54 v=0
21780 On ch=10 n=35 v=100
21780 On ch=10 n=51 v=52
21795 On ch=10 n=51 v=0
21795 On ch=10 n=35 v=0
21840 On ch=10 n=35 v=100
21840 On ch=10 n=51 v=84
21855 On ch=10 n=51 v=0
21855 On ch=10 n=35 v=0
21900 On ch=10 n=35 v=100
21900 On ch=10 n=51 v=52
21915 On ch=10 n=51 v=0
21915 On ch=10 n=35 v=0
21960 On ch=10 n=35 v=116
21960 On ch=10 n=42 v=84
21960 On ch=10 n=51 v=68
21960 On ch=10 n=69 v=36
21960 On ch=10 n=76 v=116
21975 On ch=10 n=76 v=0
21975 On ch=10 n=51 v=0
21975 On ch=10 n=35 v=0
21975 On ch=10 n=42 v=0
21975 On ch=10 n=69 v=0
22020 On ch=10 n=35 v=127
22020 On ch=10 n=51 v=52
22035 On ch=10 n=51 v=0
22035 On ch=10 n=35 v=0
22080 On ch=10 n=35 v=100
22080 On ch=10 n=51 v=84
22095 On ch=10 n=51 v=0
22095 On ch=10 n=35 v=0
22140 On ch=10 n=51 v=52
22155 On ch=10 n=51 v=0
22200 On ch=10 n=42 v=84
22200 On ch=10 n=51 v=68
22200 On ch=10 n=54 v=100
22200 On ch=10 n=69 v=52
22200 On ch=10 n=76 v=127
22215 On ch=10 n=76 v=0
22215 On ch=10 n=54 v=0
22215 On ch=10 n=42 v=0
22215 On ch=10 n=51 v=0
22215 On ch=10 n=69 v=0
22260 On ch=10 n=51 v=52
22275 On ch=10 n=51 v=0
22320 On ch=10 n=51 v=84
22335 On ch=10 n=51 v=0
22380 On ch=10 n=51 v=52
22394 On ch=10 n=51 v=0
22440 On ch=10 n=42 v=84
22440 On ch=10 n=51 v=68
22440 On ch=10 n=69 v=36
22440 On ch=10 n=76 v=116
22455 On ch=10 n=76 v=0
22455 On ch=10 n=42 v=0
22455 On ch=10 n=51 v=0
22455 On ch=10 n=69 v=0
22500 On ch=10 n=51 v=52
22515 On ch=10 n=51 v=0
22560 On ch=10 n=35 v=100
22560 On ch=10 n=51 v=84
22575 On ch=10 n=51 v=0
22575 On ch=10 n=35 v=0
22620 On ch=10 n=51 v=52
22635 On ch=10 n=51 v=0
22680 On ch=10 n=42 v=84
22680 On ch=10 n=51 v=68
22680 On ch=10 n=54 v=100
22680 On ch=10 n=69 v=52
22680 On ch=10 n=76 v=127
22695 On ch=10 n=76 v=0
22695 On ch=10 n=54 v=0
22695 On ch=10 n=42 v=0
22695 On ch=10 n=51 v=0
22695 On ch=10 n=69 v=0
22740 On ch=10 n=51 v=52
22755 On ch=10 n=51 v=0
22800 On ch=10 n=51 v=84
22815 On ch=10 n=51 v=0
22860 On ch=10 n=51 v=52
22875 On ch=10 n=51 v=0
22920 On ch=10 n=42 v=84
22920 On ch=10 n=51 v=68
22920 On ch=10 n=69 v=36
22920 On ch=10 n=76 v=116
22935 On ch=10 n=76 v=0
22935 On ch=10 n=42 v=0
22935 On ch=10 n=51 v=0
22935 On ch=10 n=69 v=0
22980 On ch=10 n=51 v=52
22995 On ch=10 n=51 v=0
23040 On ch=10 n=35 v=100
23040 On ch=10 n=51 v=100
23055 On ch=10 n=51 v=0
23055 On ch=10 n=35 v=0
23160 On ch=10 n=35 v=100
23160 On ch=10 n=42 v=84
23160 On ch=10 n=51 v=100
23160 On ch=10 n=54 v=100
23160 On ch=10 n=69 v=52
23175 On ch=10 n=69 v=0
23175 On ch=10 n=51 v=0
23175 On ch=10 n=35 v=0
23175 On ch=10 n=42 v=0
23175 On ch=10 n=54 v=0
23235 On ch=10 n=76 v=36
23243 On ch=10 n=76 v=0
23250 On ch=10 n=76 v=84
23257 On ch=10 n=76 v=0
23265 On ch=10 n=76 v=68
23272 On ch=10 n=76 v=0
23280 On ch=10 n=38 v=116
23280 On ch=10 n=76 v=127
23287 On ch=10 n=76 v=0
23295 On ch=10 n=38 v=0
23310 On ch=10 n=38 v=100
23310 On ch=10 n=76 v=116
23317 On ch=10 n=76 v=0
23325 On ch=10 n=38 v=0
23400 On ch=10 n=35 v=84
23400 On ch=10 n=38 v=100
23400 On ch=10 n=42 v=84
23400 On ch=10 n=51 v=84
23400 On ch=10 n=69 v=36
23400 On ch=10 n=76 v=100
23408 On ch=10 n=76 v=0
23415 On ch=10 n=38 v=0
23415 On ch=10 n=42 v=0
23415 On ch=10 n=35 v=0
23415 On ch=10 n=69 v=0
23415 On ch=10 n=51 v=0
23460 On ch=10 n=51 v=52
23475 On ch=10 n=51 v=0
23475 On ch=10 n=76 v=36
23483 On ch=10 n=76 v=0
23490 On ch=10 n=76 v=84
23497 On ch=10 n=76 v=0
23505 On ch=10 n=76 v=68
23512 On ch=10 n=76 v=0
23520 On ch=10 n=35 v=84
23520 On ch=10 n=38 v=100
23520 On ch=10 n=76 v=127
23535 On ch=10 n=76 v=0
23535 On ch=10 n=38 v=0
23535 On ch=10 n=35 v=0
23580 On ch=10 n=38 v=84
23580 On ch=10 n=51 v=84
23580 On ch=10 n=76 v=116
23595 On ch=10 n=76 v=0
23595 On ch=10 n=51 v=0
23595 On ch=10 n=38 v=0
23700 On ch=10 n=35 v=100
23700 On ch=10 n=38 v=84
23700 On ch=10 n=51 v=68
23700 On ch=10 n=76 v=127
23715 On ch=10 n=76 v=0
23715 On ch=10 n=35 v=0
23715 On ch=10 n=38 v=0
23715 On ch=10 n=51 v=0
23760 On ch=10 n=35 v=84
23760 On ch=10 n=38 v=52
23760 On ch=10 n=51 v=84
23760 On ch=10 n=76 v=100
23775 On ch=10 n=76 v=0
23775 On ch=10 n=35 v=0
23775 On ch=10 n=38 v=0
23775 On ch=10 n=51 v=0
23820 On ch=10 n=51 v=68
23835 On ch=10 n=51 v=0
23850 On ch=10 n=48 v=36
23850 On ch=10 n=50 v=84
23865 On ch=10 n=50 v=0
23865 On ch=10 n=48 v=0
23880 On ch=10 n=45 v=52
23880 On ch=10 n=47 v=100
23895 On ch=10 n=47 v=0
23895 On ch=10 n=45 v=0
24000 On ch=10 n=35 v=100
24000 On ch=10 n=51 v=84
24015 On ch=10 n=51 v=0
24015 On ch=10 n=35 v=0
24060 On ch=10 n=51 v=52
24075 On ch=10 n=51 v=0
24120 On ch=10 n=42 v=84
24120 On ch=10 n=51 v=68
24120 On ch=10 n=54 v=100
24120 On ch=10 n=69 v=52
24120 On ch=10 n=76 v=127
24135 On ch=10 n=76 v=0
24135 On ch=10 n=54 v=0
24135 On ch=10 n=42 v=0
24135 On ch=10 n=51 v=0
24135 On ch=10 n=69 v=0
24180 On ch=10 n=51 v=52
24195 On ch=10 n=51 v=0
24240 On ch=10 n=51 v=84
24255 On ch=10 n=51 v=0
24300 On ch=10 n=51 v=52
24315 On ch=10 n=51 v=0
24360 On ch=10 n=42 v=84
24360 On ch=10 n=51 v=68
24360 On ch=10 n=69 v=36
24360 On ch=10 n=76 v=116
24375 On ch=10 n=76 v=0
24375 On ch=10 n=42 v=0
24375 On ch=10 n=51 v=0
24375 On ch=10 n=69 v=0
24420 On ch=10 n=51 v=52
24435 On ch=10 n=51 v=0
24480 On ch=10 n=35 v=100
24480 On ch=10 n=51 v=84
24495 On ch=10 n=51 v=0
24495 On ch=10 n=35 v=0
24540 On ch=10 n=51 v=52
24555 On ch=10 n=51 v=0
24600 On ch=10 n=42 v=84
24600 On ch=10 n=51 v=68
24600 On ch=10 n=54 v=100
24600 On ch=10 n=69 v=52
24600 On ch=10 n=76 v=127
24615 On ch=10 n=76 v=0
24615 On ch=10 n=54 v=0
24615 On ch=10 n=42 v=0
24615 On ch=10 n=51 v=0
24615 On ch=10 n=69 v=0
24660 On ch=10 n=51 v=52
24675 On ch=10 n=51 v=0
24720 On ch=10 n=51 v=84
24735 On ch=10 n=51 v=0
24780 On ch=10 n=51 v=52
24795 On ch=10 n=51 v=0
24840 On ch=10 n=42 v=84
24840 On ch=10 n=51 v=68
24840 On ch=10 n=69 v=36
24840 On ch=10 n=76 v=116
24855 On ch=10 n=76 v=0
24855 On ch=10 n=42 v=0
24855 On ch=10 n=51 v=0
24855 On ch=10 n=69 v=0
24900 On ch=10 n=51 v=52
24915 On ch=10 n=51 v=0
24960 On ch=10 n=35 v=100
24960 On ch=10 n=51 v=84
24975 On ch=10 n=51 v=0
24975 On ch=10 n=35 v=0
25020 On ch=10 n=51 v=52
25035 On ch=10 n=51 v=0
25080 On ch=10 n=42 v=84
25080 On ch=10 n=51 v=68
25080 On ch=10 n=54 v=100
25080 On ch=10 n=69 v=52
25080 On ch=10 n=76 v=127
25095 On ch=10 n=76 v=0
25095 On ch=10 n=54 v=0
25095 On ch=10 n=42 v=0
25095 On ch=10 n=51 v=0
25095 On ch=10 n=69 v=0
25140 On ch=10 n=51 v=52
25155 On ch=10 n=51 v=0
25200 On ch=10 n=51 v=84
25215 On ch=10 n=51 v=0
25260 On ch=10 n=51 v=52
25275 On ch=10 n=51 v=0
25320 On ch=10 n=42 v=84
25320 On ch=10 n=51 v=68
25320 On ch=10 n=69 v=36
25320 On ch=10 n=76 v=116
25335 On ch=10 n=76 v=0
25335 On ch=10 n=42 v=0
25335 On ch=10 n=51 v=0
25335 On ch=10 n=69 v=0
25380 On ch=10 n=51 v=52
25395 On ch=10 n=51 v=0
25440 On ch=10 n=35 v=100
25440 On ch=10 n=51 v=84
25455 On ch=10 n=51 v=0
25455 On ch=10 n=35 v=0
25500 On ch=10 n=51 v=52
25515 On ch=10 n=51 v=0
25560 On ch=10 n=42 v=84
25560 On ch=10 n=51 v=68
25560 On ch=10 n=54 v=100
25560 On ch=10 n=69 v=52
25560 On ch=10 n=76 v=127
25575 On ch=10 n=76 v=0
25575 On ch=10 n=54 v=0
25575 On ch=10 n=42 v=0
25575 On ch=10 n=51 v=0
25575 On ch=10 n=69 v=0
25620 On ch=10 n=51 v=52
25635 On ch=10 n=51 v=0
25680 On ch=10 n=51 v=84
25695 On ch=10 n=51 v=0
25740 On ch=10 n=51 v=52
25755 On ch=10 n=51 v=0
25800 On ch=10 n=42 v=84
25800 On ch=10 n=51 v=68
25800 On ch=10 n=69 v=36
25800 On ch=10 n=76 v=116
25815 On ch=10 n=76 v=0
25815 On ch=10 n=42 v=0
25815 On ch=10 n=51 v=0
25815 On ch=10 n=69 v=0
25860 On ch=10 n=51 v=52
25875 On ch=10 n=51 v=0
25920 On ch=10 n=35 v=100
25920 On ch=10 n=49 v=100
25920 On ch=10 n=51 v=84
25935 On ch=10 n=51 v=0
25935 On ch=10 n=49 v=0
25935 On ch=10 n=35 v=0
25980 On ch=10 n=51 v=52
25995 On ch=10 n=51 v=0
26040 On ch=10 n=38 v=100
26040 On ch=10 n=42 v=84
26040 On ch=10 n=51 v=68
26040 On ch=10 n=54 v=100
26040 On ch=10 n=69 v=52
26040 On ch=10 n=76 v=127
26055 On ch=10 n=76 v=0
26055 On ch=10 n=42 v=0
26055 On ch=10 n=51 v=0
26055 On ch=10 n=38 v=0
26055 On ch=10 n=69 v=0
26055 On ch=10 n=54 v=0
26100 On ch=10 n=51 v=52
26115 On ch=10 n=51 v=0
26160 On ch=10 n=51 v=84
26175 On ch=10 n=51 v=0
26220 On ch=10 n=51 v=52
26235 On ch=10 n=51 v=0
26280 On ch=10 n=38 v=84
26280 On ch=10 n=42 v=84
26280 On ch=10 n=51 v=68
26280 On ch=10 n=69 v=36
26280 On ch=10 n=76 v=116
26295 On ch=10 n=76 v=0
26295 On ch=10 n=51 v=0
26295 On ch=10 n=38 v=0
26295 On ch=10 n=42 v=0
26295 On ch=10 n=69 v=0
26340 On ch=10 n=51 v=52
26355 On ch=10 n=51 v=0
26400 On ch=10 n=35 v=100
26400 On ch=10 n=51 v=84
26415 On ch=10 n=51 v=0
26415 On ch=10 n=35 v=0
26460 On ch=10 n=51 v=52
26475 On ch=10 n=51 v=0
26520 On ch=10 n=38 v=100
26520 On ch=10 n=42 v=84
26520 On ch=10 n=51 v=68
26520 On ch=10 n=54 v=100
26520 On ch=10 n=69 v=52
26520 On ch=10 n=76 v=127
26535 On ch=10 n=76 v=0
26535 On ch=10 n=42 v=0
26535 On ch=10 n=51 v=0
26535 On ch=10 n=38 v=0
26535 On ch=10 n=69 v=0
26535 On ch=10 n=54 v=0
26580 On ch=10 n=51 v=52
26595 On ch=10 n=51 v=0
26640 On ch=10 n=51 v=84
26655 On ch=10 n=51 v=0
26700 On ch=10 n=51 v=52
26715 On ch=10 n=51 v=0
26760 On ch=10 n=38 v=84
26760 On ch=10 n=42 v=84
26760 On ch=10 n=51 v=68
26760 On ch=10 n=69 v=36
26760 On ch=10 n=76 v=116
26775 On ch=10 n=76 v=0
26775 On ch=10 n=51 v=0
26775 On ch=10 n=38 v=0
26775 On ch=10 n=42 v=0
26775 On ch=10 n=69 v=0
26820 On ch=10 n=51 v=52
26835 On ch=10 n=51 v=0
26880 On ch=10 n=35 v=100
26880 On ch=10 n=51 v=84
26895 On ch=10 n=51 v=0
26895 On ch=10 n=35 v=0
26940 On ch=10 n=51 v=52
26955 On ch=10 n=51 v=0
27000 On ch=10 n=38 v=100
27000 On ch=10 n=42 v=84
27000 On ch=10 n=51 v=68
27000 On ch=10 n=54 v=100
27000 On ch=10 n=69 v=52
27000 On ch=10 n=76 v=127
27015 On ch=10 n=76 v=0
27015 On ch=10 n=42 v=0
27015 On ch=10 n=51 v=0
27015 On ch=10 n=38 v=0
27015 On ch=10 n=69 v=0
27015 On ch=10 n=54 v=0
27060 On ch=10 n=51 v=52
27075 On ch=10 n=51 v=0
27120 On ch=10 n=51 v=84
27135 On ch=10 n=51 v=0
27180 On ch=10 n=51 v=52
27195 On ch=10 n=51 v=0
27240 On ch=10 n=38 v=84
27240 On ch=10 n=42 v=84
27240 On ch=10 n=51 v=68
27240 On ch=10 n=69 v=36
27240 On ch=10 n=76 v=116
27255 On ch=10 n=76 v=0
27255 On ch=10 n=51 v=0
27255 On ch=10 n=38 v=0
27255 On ch=10 n=42 v=0
27255 On ch=10 n=69 v=0
27300 On ch=10 n=51 v=52
27315 On ch=10 n=51 v=0
27360 On ch=10 n=35 v=100
27360 On ch=10 n=51 v=84
27375 On ch=10 n=51 v=0
27375 On ch=10 n=35 v=0
27420 On ch=10 n=51 v=52
27435 On ch=10 n=51 v=0
27480 On ch=10 n=38 v=100
27480 On ch=10 n=42 v=84
27480 On ch=10 n=51 v=68
27480 On ch=10 n=54 v=100
27480 On ch=10 n=69 v=52
27480 On ch=10 n=76 v=127
27495 On ch=10 n=76 v=0
27495 On ch=10 n=42 v=0
27495 On ch=10 n=51 v=0
27495 On ch=10 n=38 v=0
27495 On ch=10 n=69 v=0
27495 On ch=10 n=54 v=0
27540 On ch=10 n=51 v=52
27555 On ch=10 n=51 v=0
27600 On ch=10 n=51 v=84
27615 On ch=10 n=51 v=0
27660 On ch=10 n=51 v=52
27675 On ch=10 n=51 v=0
27720 On ch=10 n=38 v=84
27720 On ch=10 n=42 v=84
27720 On ch=10 n=51 v=68
27720 On ch=10 n=69 v=36
27720 On ch=10 n=76 v=116
27735 On ch=10 n=76 v=0
27735 On ch=10 n=51 v=0
27735 On ch=10 n=38 v=0
27735 On ch=10 n=42 v=0
27735 On ch=10 n=69 v=0
27780 On ch=10 n=51 v=52
27795 On ch=10 n=51 v=0
27840 On ch=10 n=35 v=36
27840 On ch=10 n=38 v=36
27840 On ch=10 n=51 v=100
27855 On ch=10 n=51 v=0
27855 On ch=10 n=38 v=0
27855 On ch=10 n=35 v=0
27900 On ch=10 n=35 v=36
27900 On ch=10 n=38 v=36
27900 On ch=10 n=51 v=52
27915 On ch=10 n=51 v=0
27915 On ch=10 n=38 v=0
27915 On ch=10 n=35 v=0
27960 On ch=10 n=35 v=52
27960 On ch=10 n=38 v=36
27960 On ch=10 n=42 v=84
27960 On ch=10 n=51 v=68
27960 On ch=10 n=54 v=100
27960 On ch=10 n=69 v=52
27960 On ch=10 n=76 v=100
27975 On ch=10 n=76 v=0
27975 On ch=10 n=54 v=0
27975 On ch=10 n=38 v=0
27975 On ch=10 n=42 v=0
27975 On ch=10 n=35 v=0
27975 On ch=10 n=69 v=0
27975 On ch=10 n=51 v=0
28020 On ch=10 n=35 v=52
28020 On ch=10 n=38 v=36
28020 On ch=10 n=51 v=52
28035 On ch=10 n=51 v=0
28035 On ch=10 n=38 v=0
28035 On ch=10 n=35 v=0
28080 On ch=10 n=35 v=68
28080 On ch=10 n=38 v=52
28080 On ch=10 n=51 v=84
28095 On ch=10 n=51 v=0
28095 On ch=10 n=38 v=0
28095 On ch=10 n=35 v=0
28140 On ch=10 n=35 v=68
28140 On ch=10 n=38 v=52
28140 On ch=10 n=51 v=52
28155 On ch=10 n=51 v=0
28155 On ch=10 n=38 v=0
28155 On ch=10 n=35 v=0
28200 On ch=10 n=35 v=84
28200 On ch=10 n=38 v=52
28200 On ch=10 n=42 v=84
28200 On ch=10 n=51 v=68
28200 On ch=10 n=69 v=36
28200 On ch=10 n=76 v=84
28215 On ch=10 n=76 v=0
28215 On ch=10 n=38 v=0
28215 On ch=10 n=42 v=0
28215 On ch=10 n=35 v=0
28215 On ch=10 n=69 v=0
28215 On ch=10 n=51 v=0
28260 On ch=10 n=35 v=84
28260 On ch=10 n=38 v=52
28260 On ch=10 n=51 v=52
28275 On ch=10 n=51 v=0
28275 On ch=10 n=38 v=0
28275 On ch=10 n=35 v=0
28320 On ch=10 n=35 v=100
28320 On ch=10 n=38 v=68
28320 On ch=10 n=51 v=100
28335 On ch=10 n=51 v=0
28335 On ch=10 n=38 v=0
28335 On ch=10 n=35 v=0
28380 On ch=10 n=35 v=100
28380 On ch=10 n=38 v=68
28380 On ch=10 n=51 v=52
28395 On ch=10 n=51 v=0
28395 On ch=10 n=38 v=0
28395 On ch=10 n=35 v=0
28440 On ch=10 n=35 v=100
28440 On ch=10 n=38 v=68
28440 On ch=10 n=42 v=84
28440 On ch=10 n=51 v=68
28440 On ch=10 n=54 v=100
28440 On ch=10 n=69 v=52
28440 On ch=10 n=76 v=100
28455 On ch=10 n=76 v=0
28455 On ch=10 n=54 v=0
28455 On ch=10 n=38 v=0
28455 On ch=10 n=42 v=0
28455 On ch=10 n=35 v=0
28455 On ch=10 n=69 v=0
28455 On ch=10 n=51 v=0
28500 On ch=10 n=35 v=116
28500 On ch=10 n=38 v=68
28500 On ch=10 n=51 v=52
28515 On ch=10 n=51 v=0
28515 On ch=10 n=38 v=0
28515 On ch=10 n=35 v=0
28560 On ch=10 n=35 v=116
28560 On ch=10 n=38 v=84
28560 On ch=10 n=51 v=84
28575 On ch=10 n=51 v=0
28575 On ch=10 n=38 v=0
28575 On ch=10 n=35 v=0
28620 On ch=10 n=35 v=116
28620 On ch=10 n=38 v=84
28620 On ch=10 n=51 v=52
28635 On ch=10 n=51 v=0
28635 On ch=10 n=38 v=0
28635 On ch=10 n=35 v=0
28680 On ch=10 n=35 v=127
28680 On ch=10 n=38 v=100
28680 On ch=10 n=42 v=84
28680 On ch=10 n=51 v=68
28680 On ch=10 n=69 v=36
28680 On ch=10 n=76 v=84
28695 On ch=10 n=76 v=0
28695 On ch=10 n=38 v=0
28695 On ch=10 n=42 v=0
28695 On ch=10 n=35 v=0
28695 On ch=10 n=69 v=0
28695 On ch=10 n=51 v=0
28740 On ch=10 n=35 v=127
28740 On ch=10 n=38 v=116
28740 On ch=10 n=51 v=52
28755 On ch=10 n=51 v=0
28755 On ch=10 n=38 v=0
28755 On ch=10 n=35 v=0
28800 On ch=10 n=35 v=100
28800 On ch=10 n=51 v=84
28815 On ch=10 n=51 v=0
28815 On ch=10 n=35 v=0
28860 On ch=10 n=51 v=52
28875 On ch=10 n=51 v=0
28920 On ch=10 n=38 v=100
28920 On ch=10 n=42 v=84
28920 On ch=10 n=51 v=68
28920 On ch=10 n=54 v=100
28920 On ch=10 n=69 v=52
28920 On ch=10 n=76 v=127
28935 On ch=10 n=76 v=0
28935 On ch=10 n=42 v=0
28935 On ch=10 n=51 v=0
28935 On ch=10 n=38 v=0
28935 On ch=10 n=69 v=0
28935 On ch=10 n=54 v=0
28980 On ch=10 n=51 v=52
28995 On ch=10 n=51 v=0
29040 On ch=10 n=51 v=84
29055 On ch=10 n=51 v=0
29100 On ch=10 n=51 v=52
29115 On ch=10 n=51 v=0
29160 On ch=10 n=38 v=84
29160 On ch=10 n=42 v=84
29160 On ch=10 n=51 v=68
29160 On ch=10 n=69 v=36
29160 On ch=10 n=76 v=116
29175 On ch=10 n=76 v=0
29175 On ch=10 n=51 v=0
29175 On ch=10 n=38 v=0
29175 On ch=10 n=42 v=0
29175 On ch=10 n=69 v=0
29220 On ch=10 n=51 v=52
29235 On ch=10 n=51 v=0
29280 On ch=10 n=35 v=100
29280 On ch=10 n=51 v=84
29295 On ch=10 n=51 v=0
29295 On ch=10 n=35 v=0
29340 On ch=10 n=51 v=52
29355 On ch=10 n=51 v=0
29400 On ch=10 n=38 v=100
29400 On ch=10 n=42 v=84
29400 On ch=10 n=51 v=68
29400 On ch=10 n=54 v=100
29400 On ch=10 n=69 v=52
29400 On ch=10 n=76 v=127
29415 On ch=10 n=76 v=0
29415 On ch=10 n=42 v=0
29415 On ch=10 n=51 v=0
29415 On ch=10 n=38 v=0
29415 On ch=10 n=69 v=0
29415 On ch=10 n=54 v=0
29460 On ch=10 n=51 v=52
29475 On ch=10 n=51 v=0
29520 On ch=10 n=51 v=84
29535 On ch=10 n=51 v=0
29580 On ch=10 n=51 v=52
29595 On ch=10 n=51 v=0
29640 On ch=10 n=38 v=84
29640 On ch=10 n=42 v=84
29640 On ch=10 n=51 v=68
29640 On ch=10 n=69 v=36
29640 On ch=10 n=76 v=116
29655 On ch=10 n=76 v=0
29655 On ch=10 n=51 v=0
29655 On ch=10 n=38 v=0
29655 On ch=10 n=42 v=0
29655 On ch=10 n=69 v=0
29700 On ch=10 n=51 v=52
29715 On ch=10 n=51 v=0
29760 On ch=10 n=35 v=100
29760 On ch=10 n=51 v=100
29775 On ch=10 n=51 v=0
29775 On ch=10 n=35 v=0
29880 On ch=10 n=35 v=100
29880 On ch=10 n=42 v=84
29880 On ch=10 n=51 v=100
29880 On ch=10 n=54 v=100
29880 On ch=10 n=69 v=52
29895 On ch=10 n=69 v=0
29895 On ch=10 n=51 v=0
29895 On ch=10 n=35 v=0
29895 On ch=10 n=42 v=0
29895 On ch=10 n=54 v=0
29955 On ch=10 n=76 v=36
29962 On ch=10 n=76 v=0
29970 On ch=10 n=76 v=84
29978 On ch=10 n=76 v=0
29985 On ch=10 n=76 v=68
29992 On ch=10 n=76 v=0
30000 On ch=10 n=38 v=116
30000 On ch=10 n=76 v=127
30007 On ch=10 n=76 v=0
30015 On ch=10 n=38 v=0
30030 On ch=10 n=38 v=100
30030 On ch=10 n=76 v=127
30037 On ch=10 n=76 v=0
30045 On ch=10 n=38 v=0
30120 On ch=10 n=35 v=68
30120 On ch=10 n=38 v=100
30120 On ch=10 n=42 v=84
30120 On ch=10 n=51 v=84
30120 On ch=10 n=69 v=36
30120 On ch=10 n=76 v=116
30128 On ch=10 n=76 v=0
30135 On ch=10 n=38 v=0
30135 On ch=10 n=42 v=0
30135 On ch=10 n=35 v=0
30135 On ch=10 n=69 v=0
30135 On ch=10 n=51 v=0
30180 On ch=10 n=38 v=100
30180 On ch=10 n=51 v=52
30195 On ch=10 n=51 v=0
30195 On ch=10 n=38 v=0
30195 On ch=10 n=76 v=36
30202 On ch=10 n=76 v=0
30210 On ch=10 n=38 v=68
30210 On ch=10 n=76 v=84
30217 On ch=10 n=76 v=0
30225 On ch=10 n=38 v=0
30225 On ch=10 n=76 v=68
30232 On ch=10 n=76 v=0
30240 On ch=10 n=35 v=84
30240 On ch=10 n=38 v=100
30240 On ch=10 n=76 v=127
30255 On ch=10 n=76 v=0
30255 On ch=10 n=38 v=0
30255 On ch=10 n=35 v=0
30300 On ch=10 n=38 v=100
30300 On ch=10 n=51 v=84
30300 On ch=10 n=76 v=116
30315 On ch=10 n=76 v=0
30315 On ch=10 n=51 v=0
30315 On ch=10 n=38 v=0
30420 On ch=10 n=35 v=100
30420 On ch=10 n=38 v=100
30420 On ch=10 n=51 v=68
30420 On ch=10 n=76 v=127
30435 On ch=10 n=76 v=0
30435 On ch=10 n=35 v=0
30435 On ch=10 n=38 v=0
30435 On ch=10 n=51 v=0
30480 On ch=10 n=35 v=84
30480 On ch=10 n=38 v=68
30480 On ch=10 n=51 v=84
30480 On ch=10 n=76 v=100
30495 On ch=10 n=76 v=0
30495 On ch=10 n=35 v=0
30495 On ch=10 n=38 v=0
30495 On ch=10 n=51 v=0
30540 On ch=10 n=51 v=68
30555 On ch=10 n=51 v=0
30570 On ch=10 n=48 v=36
30570 On ch=10 n=50 v=100
30585 On ch=10 n=50 v=0
30585 On ch=10 n=48 v=0
30600 On ch=10 n=45 v=52
30600 On ch=10 n=47 v=116
30615 On ch=10 n=47 v=0
30615 On ch=10 n=45 v=0
30660 On ch=10 n=41 v=36
30660 On ch=10 n=43 v=100
30675 On ch=10 n=43 v=0
30675 On ch=10 n=41 v=0
30720 On ch=10 n=35 v=84
30720 On ch=10 n=49 v=100
30720 On ch=10 n=51 v=84
30735 On ch=10 n=51 v=0
30735 On ch=10 n=49 v=0
30735 On ch=10 n=35 v=0
30780 On ch=10 n=51 v=52
30795 On ch=10 n=51 v=0
30840 On ch=10 n=38 v=100
30840 On ch=10 n=42 v=84
30840 On ch=10 n=51 v=68
30840 On ch=10 n=54 v=100
30840 On ch=10 n=69 v=52
30840 On ch=10 n=76 v=127
30855 On ch=10 n=76 v=0
30855 On ch=10 n=42 v=0
30855 On ch=10 n=51 v=0
30855 On ch=10 n=38 v=0
30855 On ch=10 n=69 v=0
30855 On ch=10 n=54 v=0
30900 On ch=10 n=51 v=52
30915 On ch=10 n=51 v=0
30960 On ch=10 n=51 v=84
30975 On ch=10 n=51 v=0
31020 On ch=10 n=51 v=52
31034 On ch=10 n=51 v=0
31080 On ch=10 n=38 v=84
31080 On ch=10 n=42 v=84
31080 On ch=10 n=51 v=68
31080 On ch=10 n=69 v=36
31080 On ch=10 n=76 v=116
31095 On ch=10 n=76 v=0
31095 On ch=10 n=51 v=0
31095 On ch=10 n=38 v=0
31095 On ch=10 n=42 v=0
31095 On ch=10 n=69 v=0
31140 On ch=10 n=51 v=52
31155 On ch=10 n=51 v=0
31200 On ch=10 n=35 v=100
31200 On ch=10 n=51 v=84
31215 On ch=10 n=51 v=0
31215 On ch=10 n=35 v=0
31260 On ch=10 n=51 v=52
31275 On ch=10 n=51 v=0
31320 On ch=10 n=38 v=100
31320 On ch=10 n=42 v=84
31320 On ch=10 n=51 v=68
31320 On ch=10 n=54 v=100
31320 On ch=10 n=69 v=52
31320 On ch=10 n=76 v=127
31335 On ch=10 n=76 v=0
31335 On ch=10 n=42 v=0
31335 On ch=10 n=51 v=0
31335 On ch=10 n=38 v=0
31335 On ch=10 n=69 v=0
31335 On ch=10 n=54 v=0
31380 On ch=10 n=51 v=52
31395 On ch=10 n=51 v=0
31440 On ch=10 n=51 v=84
31455 On ch=10 n=51 v=0
31500 On ch=10 n=51 v=52
31515 On ch=10 n=51 v=0
31560 On ch=10 n=38 v=84
31560 On ch=10 n=42 v=84
31560 On ch=10 n=51 v=68
31560 On ch=10 n=69 v=36
31560 On ch=10 n=76 v=116
31575 On ch=10 n=76 v=0
31575 On ch=10 n=51 v=0
31575 On ch=10 n=38 v=0
31575 On ch=10 n=42 v=0
31575 On ch=10 n=69 v=0
31620 On ch=10 n=38 v=116
31620 On ch=10 n=51 v=52
31635 On ch=10 n=51 v=0
31635 On ch=10 n=38 v=0
31680 On ch=10 n=35 v=100
31680 On ch=10 n=49 v=100
31680 On ch=10 n=51 v=84
31695 On ch=10 n=51 v=0
31695 On ch=10 n=49 v=0
31695 On ch=10 n=35 v=0
31740 On ch=10 n=51 v=52
31754 On ch=10 n=51 v=0
31800 On ch=10 n=38 v=116
31800 On ch=10 n=42 v=84
31800 On ch=10 n=51 v=68
31800 On ch=10 n=54 v=100
31800 On ch=10 n=69 v=52
31800 On ch=10 n=76 v=127
31815 On ch=10 n=76 v=0
31815 On ch=10 n=42 v=0
31815 On ch=10 n=51 v=0
31815 On ch=10 n=38 v=0
31815 On ch=10 n=69 v=0
31815 On ch=10 n=54 v=0
31860 On ch=10 n=51 v=52
31875 On ch=10 n=51 v=0
31920 On ch=10 n=35 v=84
31920 On ch=10 n=51 v=84
31935 On ch=10 n=51 v=0
31935 On ch=10 n=35 v=0
31980 On ch=10 n=51 v=52
31995 On ch=10 n=51 v=0
32040 On ch=10 n=38 v=100
32040 On ch=10 n=42 v=84
32040 On ch=10 n=51 v=68
32040 On ch=10 n=69 v=36
32040 On ch=10 n=76 v=116
32055 On ch=10 n=76 v=0
32055 On ch=10 n=51 v=0
32055 On ch=10 n=38 v=0
32055 On ch=10 n=42 v=0
32055 On ch=10 n=69 v=0
32100 On ch=10 n=35 v=68
32100 On ch=10 n=51 v=52
32115 On ch=10 n=51 v=0
32115 On ch=10 n=35 v=0
32160 On ch=10 n=35 v=100
32160 On ch=10 n=51 v=84
32175 On ch=10 n=51 v=0
32175 On ch=10 n=35 v=0
32220 On ch=10 n=51 v=52
32235 On ch=10 n=51 v=0
32280 On ch=10 n=38 v=116
32280 On ch=10 n=42 v=84
32280 On ch=10 n=51 v=68
32280 On ch=10 n=54 v=100
32280 On ch=10 n=69 v=52
32280 On ch=10 n=76 v=127
32295 On ch=10 n=76 v=0
32295 On ch=10 n=42 v=0
32295 On ch=10 n=51 v=0
32295 On ch=10 n=38 v=0
32295 On ch=10 n=69 v=0
32295 On ch=10 n=54 v=0
32340 On ch=10 n=51 v=52
32355 On ch=10 n=51 v=0
32400 On ch=10 n=35 v=84
32400 On ch=10 n=51 v=84
32415 On ch=10 n=51 v=0
32415 On ch=10 n=35 v=0
32460 On ch=10 n=51 v=52
32475 On ch=10 n=51 v=0
32520 On ch=10 n=38 v=100
32520 On ch=10 n=42 v=84
32520 On ch=10 n=51 v=68
32520 On ch=10 n=69 v=36
32520 On ch=10 n=76 v=116
32535 On ch=10 n=76 v=0
32535 On ch=10 n=51 v=0
32535 On ch=10 n=38 v=0
32535 On ch=10 n=42 v=0
32535 On ch=10 n=69 v=0
32580 On ch=10 n=35 v=68
32580 On ch=10 n=51 v=52
32595 On ch=10 n=51 v=0
32595 On ch=10 n=35 v=0
32640 On ch=10 n=35 v=100
32640 On ch=10 n=51 v=84
32655 On ch=10 n=51 v=0
32655 On ch=10 n=35 v=0
32700 On ch=10 n=51 v=52
32715 On ch=10 n=51 v=0
32760 On ch=10 n=38 v=116
32760 On ch=10 n=42 v=84
32760 On ch=10 n=51 v=68
32760 On ch=10 n=54 v=100
32760 On ch=10 n=69 v=52
32760 On ch=10 n=76 v=127
32775 On ch=10 n=76 v=0
32775 On ch=10 n=42 v=0
32775 On ch=10 n=51 v=0
32775 On ch=10 n=38 v=0
32775 On ch=10 n=69 v=0
32775 On ch=10 n=54 v=0
32820 On ch=10 n=51 v=52
32835 On ch=10 n=51 v=0
32880 On ch=10 n=35 v=84
32880 On ch=10 n=51 v=84
32895 On ch=10 n=51 v=0
32895 On ch=10 n=35 v=0
32940 On ch=10 n=51 v=52
32955 On ch=10 n=51 v=0
33000 On ch=10 n=38 v=100
33000 On ch=10 n=42 v=84
33000 On ch=10 n=51 v=68
33000 On ch=10 n=69 v=36
33000 On ch=10 n=76 v=116
33015 On ch=10 n=76 v=0
33015 On ch=10 n=51 v=0
33015 On ch=10 n=38 v=0
33015 On ch=10 n=42 v=0
33015 On ch=10 n=69 v=0
33060 On ch=10 n=35 v=68
33060 On ch=10 n=51 v=52
33075 On ch=10 n=51 v=0
33075 On ch=10 n=35 v=0
33120 On ch=10 n=35 v=100
33120 On ch=10 n=51 v=84
33135 On ch=10 n=51 v=0
33135 On ch=10 n=35 v=0
33180 On ch=10 n=51 v=52
33195 On ch=10 n=51 v=0
33240 On ch=10 n=38 v=116
33240 On ch=10 n=42 v=84
33240 On ch=10 n=51 v=68
33240 On ch=10 n=54 v=100
33240 On ch=10 n=69 v=52
33240 On ch=10 n=76 v=127
33255 On ch=10 n=76 v=0
33255 On ch=10 n=42 v=0
33255 On ch=10 n=51 v=0
33255 On ch=10 n=38 v=0
33255 On ch=10 n=69 v=0
33255 On ch=10 n=54 v=0
33300 On ch=10 n=51 v=52
33315 On ch=10 n=51 v=0
33360 On ch=10 n=35 v=84
33360 On ch=10 n=51 v=84
33375 On ch=10 n=51 v=0
33375 On ch=10 n=35 v=0
33420 On ch=10 n=51 v=52
33435 On ch=10 n=51 v=0
33480 On ch=10 n=38 v=100
33480 On ch=10 n=42 v=84
33480 On ch=10 n=51 v=68
33480 On ch=10 n=69 v=36
33480 On ch=10 n=76 v=116
33495 On ch=10 n=76 v=0
33495 On ch=10 n=51 v=0
33495 On ch=10 n=38 v=0
33495 On ch=10 n=42 v=0
33495 On ch=10 n=69 v=0
33540 On ch=10 n=35 v=68
33540 On ch=10 n=51 v=52
33555 On ch=10 n=51 v=0
33555 On ch=10 n=35 v=0
33600 On ch=10 n=35 v=100
33600 On ch=10 n=51 v=84
33615 On ch=10 n=51 v=0
33615 On ch=10 n=35 v=0
33660 On ch=10 n=51 v=52
33675 On ch=10 n=51 v=0
33720 On ch=10 n=38 v=116
33720 On ch=10 n=42 v=84
33720 On ch=10 n=51 v=68
33720 On ch=10 n=54 v=100
33720 On ch=10 n=69 v=52
33720 On ch=10 n=76 v=127
33735 On ch=10 n=76 v=0
33735 On ch=10 n=42 v=0
33735 On ch=10 n=51 v=0
33735 On ch=10 n=38 v=0
33735 On ch=10 n=69 v=0
33735 On ch=10 n=54 v=0
33780 On ch=10 n=51 v=52
33795 On ch=10 n=51 v=0
33840 On ch=10 n=35 v=84
33840 On ch=10 n=51 v=84
33855 On ch=10 n=51 v=0
33855 On ch=10 n=35 v=0
33900 On ch=10 n=51 v=52
33915 On ch=10 n=51 v=0
33960 On ch=10 n=38 v=100
33960 On ch=10 n=42 v=84
33960 On ch=10 n=51 v=68
33960 On ch=10 n=69 v=36
33960 On ch=10 n=76 v=116
33975 On ch=10 n=76 v=0
33975 On ch=10 n=51 v=0
33975 On ch=10 n=38 v=0
33975 On ch=10 n=42 v=0
33975 On ch=10 n=69 v=0
34020 On ch=10 n=35 v=68
34020 On ch=10 n=51 v=52
34035 On ch=10 n=51 v=0
34035 On ch=10 n=35 v=0
34080 On ch=10 n=35 v=100
34080 On ch=10 n=51 v=84
34095 On ch=10 n=51 v=0
34095 On ch=10 n=35 v=0
34140 On ch=10 n=51 v=52
34155 On ch=10 n=51 v=0
34200 On ch=10 n=38 v=116
34200 On ch=10 n=42 v=84
34200 On ch=10 n=51 v=68
34200 On ch=10 n=54 v=100
34200 On ch=10 n=69 v=52
34200 On ch=10 n=76 v=127
34215 On ch=10 n=76 v=0
34215 On ch=10 n=42 v=0
34215 On ch=10 n=51 v=0
34215 On ch=10 n=38 v=0
34215 On ch=10 n=69 v=0
34215 On ch=10 n=54 v=0
34260 On ch=10 n=51 v=52
34275 On ch=10 n=51 v=0
34320 On ch=10 n=35 v=84
34320 On ch=10 n=51 v=84
34335 On ch=10 n=51 v=0
34335 On ch=10 n=35 v=0
34380 On ch=10 n=51 v=52
34395 On ch=10 n=51 v=0
34440 On ch=10 n=38 v=100
34440 On ch=10 n=42 v=84
34440 On ch=10 n=51 v=68
34440 On ch=10 n=69 v=36
34440 On ch=10 n=76 v=116
34455 On ch=10 n=76 v=0
34455 On ch=10 n=51 v=0
34455 On ch=10 n=38 v=0
34455 On ch=10 n=42 v=0
34455 On ch=10 n=69 v=0
34500 On ch=10 n=35 v=68
34500 On ch=10 n=51 v=52
34515 On ch=10 n=51 v=0
34515 On ch=10 n=35 v=0
34560 On ch=10 n=35 v=100
34560 On ch=10 n=51 v=84
34575 On ch=10 n=51 v=0
34575 On ch=10 n=35 v=0
34620 On ch=10 n=51 v=52
34634 On ch=10 n=51 v=0
34680 On ch=10 n=38 v=116
34680 On ch=10 n=42 v=84
34680 On ch=10 n=51 v=68
34680 On ch=10 n=54 v=100
34680 On ch=10 n=69 v=52
34680 On ch=10 n=76 v=127
34695 On ch=10 n=76 v=0
34695 On ch=10 n=42 v=0
34695 On ch=10 n=51 v=0
34695 On ch=10 n=38 v=0
34695 On ch=10 n=69 v=0
34695 On ch=10 n=54 v=0
34740 On ch=10 n=51 v=52
34755 On ch=10 n=51 v=0
34800 On ch=10 n=35 v=84
34800 On ch=10 n=51 v=84
34815 On ch=10 n=51 v=0
34815 On ch=10 n=35 v=0
34860 On ch=10 n=51 v=52
34875 On ch=10 n=51 v=0
34920 On ch=10 n=38 v=100
34920 On ch=10 n=42 v=84
34920 On ch=10 n=51 v=68
34920 On ch=10 n=69 v=36
34920 On ch=10 n=76 v=116
34935 On ch=10 n=76 v=0
34935 On ch=10 n=51 v=0
34935 On ch=10 n=38 v=0
34935 On ch=10 n=42 v=0
34935 On ch=10 n=69 v=0
34980 On ch=10 n=35 v=68
34980 On ch=10 n=51 v=52
34995 On ch=10 n=51 v=0
34995 On ch=10 n=35 v=0
35040 On ch=10 n=35 v=100
35040 On ch=10 n=51 v=84
35055 On ch=10 n=51 v=0
35055 On ch=10 n=35 v=0
35100 On ch=10 n=51 v=52
35115 On ch=10 n=51 v=0
35160 On ch=10 n=38 v=116
35160 On ch=10 n=42 v=84
35160 On ch=10 n=51 v=68
35160 On ch=10 n=54 v=100
35160 On ch=10 n=69 v=52
35160 On ch=10 n=76 v=127
35175 On ch=10 n=76 v=0
35175 On ch=10 n=42 v=0
35175 On ch=10 n=51 v=0
35175 On ch=10 n=38 v=0
35175 On ch=10 n=69 v=0
35175 On ch=10 n=54 v=0
35220 On ch=10 n=51 v=68
35235 On ch=10 n=51 v=0
35250 On ch=10 n=38 v=84
35250 On ch=10 n=51 v=52
35250 On ch=10 n=76 v=100
35265 On ch=10 n=76 v=0
35265 On ch=10 n=51 v=0
35265 On ch=10 n=38 v=0
35280 On ch=10 n=35 v=84
35280 On ch=10 n=51 v=84
35295 On ch=10 n=51 v=0
35295 On ch=10 n=35 v=0
35340 On ch=10 n=51 v=52
35355 On ch=10 n=51 v=0
35370 On ch=10 n=38 v=116
35370 On ch=10 n=76 v=127
35385 On ch=10 n=76 v=0
35385 On ch=10 n=38 v=0
35400 On ch=10 n=42 v=84
35400 On ch=10 n=51 v=84
35400 On ch=10 n=69 v=36
35415 On ch=10 n=69 v=0
35415 On ch=10 n=51 v=0
35415 On ch=10 n=42 v=0
35430 On ch=10 n=38 v=100
35430 On ch=10 n=51 v=52
35430 On ch=10 n=76 v=116
35445 On ch=10 n=76 v=0
35445 On ch=10 n=51 v=0
35445 On ch=10 n=38 v=0
35460 On ch=10 n=35 v=68
35460 On ch=10 n=38 v=84
35460 On ch=10 n=51 v=68
35460 On ch=10 n=76 v=100
35475 On ch=10 n=76 v=0
35475 On ch=10 n=35 v=0
35475 On ch=10 n=38 v=0
35475 On ch=10 n=51 v=0
35520 On ch=10 n=35 v=100
35520 On ch=10 n=51 v=84
35535 On ch=10 n=51 v=0
35535 On ch=10 n=35 v=0
35580 On ch=10 n=51 v=52
35595 On ch=10 n=51 v=0
35640 On ch=10 n=38 v=116
35640 On ch=10 n=42 v=84
35640 On ch=10 n=51 v=68
35640 On ch=10 n=54 v=100
35640 On ch=10 n=69 v=52
35640 On ch=10 n=76 v=127
35655 On ch=10 n=76 v=0
35655 On ch=10 n=42 v=0
35655 On ch=10 n=51 v=0
35655 On ch=10 n=38 v=0
35655 On ch=10 n=69 v=0
35655 On ch=10 n=54 v=0
35700 On ch=10 n=51 v=52
35715 On ch=10 n=51 v=0
35760 On ch=10 n=35 v=84
35760 On ch=10 n=51 v=84
35775 On ch=10 n=51 v=0
35775 On ch=10 n=35 v=0
35820 On ch=10 n=51 v=52
35835 On ch=10 n=51 v=0
35880 On ch=10 n=38 v=100
35880 On ch=10 n=42 v=84
35880 On ch=10 n=51 v=68
35880 On ch=10 n=69 v=36
35880 On ch=10 n=76 v=116
35895 On ch=10 n=76 v=0
35895 On ch=10 n=51 v=0
35895 On ch=10 n=38 v=0
35895 On ch=10 n=42 v=0
35895 On ch=10 n=69 v=0
35940 On ch=10 n=35 v=68
35940 On ch=10 n=51 v=52
35955 On ch=10 n=51 v=0
35955 On ch=10 n=35 v=0
36000 On ch=10 n=35 v=100
36000 On ch=10 n=51 v=84
36015 On ch=10 n=51 v=0
36015 On ch=10 n=35 v=0
36060 On ch=10 n=51 v=52
36075 On ch=10 n=51 v=0
36120 On ch=10 n=38 v=116
36120 On ch=10 n=42 v=84
36120 On ch=10 n=51 v=68
36120 On ch=10 n=54 v=100
36120 On ch=10 n=69 v=52
36120 On ch=10 n=76 v=127
36135 On ch=10 n=76 v=0
36135 On ch=10 n=42 v=0
36135 On ch=10 n=51 v=0
36135 On ch=10 n=38 v=0
36135 On ch=10 n=69 v=0
36135 On ch=10 n=54 v=0
36180 On ch=10 n=51 v=52
36195 On ch=10 n=51 v=0
36240 On ch=10 n=35 v=84
36240 On ch=10 n=51 v=84
36255 On ch=10 n=51 v=0
36255 On ch=10 n=35 v=0
36300 On ch=10 n=51 v=52
36315 On ch=10 n=51 v=0
36360 On ch=10 n=38 v=100
36360 On ch=10 n=42 v=84
36360 On ch=10 n=51 v=68
36360 On ch=10 n=69 v=36
36360 On ch=10 n=76 v=116
36375 On ch=10 n=76 v=0
36375 On ch=10 n=51 v=0
36375 On ch=10 n=38 v=0
36375 On ch=10 n=42 v=0
36375 On ch=10 n=69 v=0
36420 On ch=10 n=35 v=68
36420 On ch=10 n=51 v=52
36435 On ch=10 n=51 v=0
36435 On ch=10 n=35 v=0
36480 On ch=10 n=35 v=100
36480 On ch=10 n=51 v=84
36495 On ch=10 n=51 v=0
36495 On ch=10 n=35 v=0
36540 On ch=10 n=51 v=52
36555 On ch=10 n=51 v=0
36600 On ch=10 n=38 v=116
36600 On ch=10 n=42 v=84
36600 On ch=10 n=51 v=68
36600 On ch=10 n=54 v=100
36600 On ch=10 n=69 v=52
36600 On ch=10 n=76 v=127
36615 On ch=10 n=76 v=0
36615 On ch=10 n=42 v=0
36615 On ch=10 n=51 v=0
36615 On ch=10 n=38 v=0
36615 On ch=10 n=69 v=0
36615 On ch=10 n=54 v=0
36660 On ch=10 n=51 v=52
36675 On ch=10 n=51 v=0
36720 On ch=10 n=35 v=84
36720 On ch=10 n=51 v=84
36735 On ch=10 n=51 v=0
36735 On ch=10 n=35 v=0
36780 On ch=10 n=51 v=52
36795 On ch=10 n=51 v=0
36840 On ch=10 n=38 v=100
36840 On ch=10 n=42 v=84
36840 On ch=10 n=51 v=68
36840 On ch=10 n=69 v=36
36840 On ch=10 n=76 v=116
36855 On ch=10 n=76 v=0
36855 On ch=10 n=51 v=0
36855 On ch=10 n=38 v=0
36855 On ch=10 n=42 v=0
36855 On ch=10 n=69 v=0
36900 On ch=10 n=35 v=68
36900 On ch=10 n=51 v=52
36915 On ch=10 n=51 v=0
36915 On ch=10 n=35 v=0
36960 On ch=10 n=35 v=100
36960 On ch=10 n=51 v=84
36975 On ch=10 n=51 v=0
36975 On ch=10 n=35 v=0
37020 On ch=10 n=51 v=52
37035 On ch=10 n=51 v=0
37080 On ch=10 n=38 v=116
37080 On ch=10 n=42 v=84
37080 On ch=10 n=51 v=68
37080 On ch=10 n=54 v=100
37080 On ch=10 n=69 v=52
37080 On ch=10 n=76 v=127
37095 On ch=10 n=76 v=0
37095 On ch=10 n=42 v=0
37095 On ch=10 n=51 v=0
37095 On ch=10 n=38 v=0
37095 On ch=10 n=69 v=0
37095 On ch=10 n=54 v=0
37140 On ch=10 n=51 v=52
37155 On ch=10 n=51 v=0
37200 On ch=10 n=35 v=84
37200 On ch=10 n=51 v=84
37215 On ch=10 n=51 v=0
37215 On ch=10 n=35 v=0
37260 On ch=10 n=51 v=52
37275 On ch=10 n=51 v=0
37320 On ch=10 n=38 v=100
37320 On ch=10 n=42 v=84
37320 On ch=10 n=51 v=68
37320 On ch=10 n=69 v=36
37320 On ch=10 n=76 v=116
37335 On ch=10 n=76 v=0
37335 On ch=10 n=51 v=0
37335 On ch=10 n=38 v=0
37335 On ch=10 n=42 v=0
37335 On ch=10 n=69 v=0
37380 On ch=10 n=35 v=68
37380 On ch=10 n=51 v=52
37395 On ch=10 n=51 v=0
37395 On ch=10 n=35 v=0
37440 On ch=10 n=35 v=100
37440 On ch=10 n=51 v=84
37455 On ch=10 n=51 v=0
37455 On ch=10 n=35 v=0
37500 On ch=10 n=51 v=52
37515 On ch=10 n=51 v=0
37560 On ch=10 n=38 v=116
37560 On ch=10 n=42 v=84
37560 On ch=10 n=51 v=68
37560 On ch=10 n=54 v=100
37560 On ch=10 n=69 v=52
37560 On ch=10 n=76 v=127
37575 On ch=10 n=76 v=0
37575 On ch=10 n=42 v=0
37575 On ch=10 n=51 v=0
37575 On ch=10 n=38 v=0
37575 On ch=10 n=69 v=0
37575 On ch=10 n=54 v=0
37620 On ch=10 n=51 v=52
37635 On ch=10 n=51 v=0
37680 On ch=10 n=35 v=84
37680 On ch=10 n=51 v=84
37695 On ch=10 n=51 v=0
37695 On ch=10 n=35 v=0
37740 On ch=10 n=51 v=52
37755 On ch=10 n=51 v=0
37800 On ch=10 n=38 v=100
37800 On ch=10 n=42 v=84
37800 On ch=10 n=51 v=68
37800 On ch=10 n=69 v=36
37800 On ch=10 n=76 v=116
37815 On ch=10 n=76 v=0
37815 On ch=10 n=51 v=0
37815 On ch=10 n=38 v=0
37815 On ch=10 n=42 v=0
37815 On ch=10 n=69 v=0
37860 On ch=10 n=35 v=68
37860 On ch=10 n=51 v=52
37875 On ch=10 n=51 v=0
37875 On ch=10 n=35 v=0
37920 On ch=10 n=35 v=100
37920 On ch=10 n=51 v=84
37935 On ch=10 n=51 v=0
37935 On ch=10 n=35 v=0
37980 On ch=10 n=51 v=52
37995 On ch=10 n=51 v=0
38040 On ch=10 n=38 v=116
38040 On ch=10 n=42 v=84
38040 On ch=10 n=51 v=68
38040 On ch=10 n=54 v=100
38040 On ch=10 n=69 v=52
38040 On ch=10 n=76 v=127
38055 On ch=10 n=76 v=0
38055 On ch=10 n=42 v=0
38055 On ch=10 n=51 v=0
38055 On ch=10 n=38 v=0
38055 On ch=10 n=69 v=0
38055 On ch=10 n=54 v=0
38100 On ch=10 n=51 v=52
38115 On ch=10 n=51 v=0
38160 On ch=10 n=35 v=84
38160 On ch=10 n=51 v=84
38175 On ch=10 n=51 v=0
38175 On ch=10 n=35 v=0
38220 On ch=10 n=51 v=52
38235 On ch=10 n=51 v=0
38280 On ch=10 n=38 v=100
38280 On ch=10 n=42 v=84
38280 On ch=10 n=51 v=68
38280 On ch=10 n=69 v=36
38280 On ch=10 n=76 v=116
38295 On ch=10 n=76 v=0
38295 On ch=10 n=51 v=0
38295 On ch=10 n=38 v=0
38295 On ch=10 n=42 v=0
38295 On ch=10 n=69 v=0
38340 On ch=10 n=35 v=68
38340 On ch=10 n=51 v=52
38355 On ch=10 n=51 v=0
38355 On ch=10 n=35 v=0
38400 On ch=10 n=35 v=100
38400 On ch=10 n=51 v=84
38415 On ch=10 n=51 v=0
38415 On ch=10 n=35 v=0
38460 On ch=10 n=51 v=52
38475 On ch=10 n=51 v=0
38520 On ch=10 n=38 v=116
38520 On ch=10 n=42 v=84
38520 On ch=10 n=51 v=68
38520 On ch=10 n=54 v=100
38520 On ch=10 n=69 v=52
38520 On ch=10 n=76 v=127
38535 On ch=10 n=76 v=0
38535 On ch=10 n=42 v=0
38535 On ch=10 n=51 v=0
38535 On ch=10 n=38 v=0
38535 On ch=10 n=69 v=0
38535 On ch=10 n=54 v=0
38580 On ch=10 n=51 v=52
38595 On ch=10 n=51 v=0
38640 On ch=10 n=35 v=84
38640 On ch=10 n=51 v=84
38655 On ch=10 n=51 v=0
38655 On ch=10 n=35 v=0
38700 On ch=10 n=51 v=52
38715 On ch=10 n=51 v=0
38760 On ch=10 n=38 v=100
38760 On ch=10 n=42 v=84
38760 On ch=10 n=51 v=68
38760 On ch=10 n=69 v=36
38760 On ch=10 n=76 v=116
38775 On ch=10 n=76 v=0
38775 On ch=10 n=51 v=0
38775 On ch=10 n=38 v=0
38775 On ch=10 n=42 v=0
38775 On ch=10 n=69 v=0
38820 On ch=10 n=35 v=68
38820 On ch=10 n=51 v=52
38835 On ch=10 n=51 v=0
38835 On ch=10 n=35 v=0
38880 On ch=10 n=35 v=100
38880 On ch=10 n=51 v=84
38895 On ch=10 n=51 v=0
38895 On ch=10 n=35 v=0
38940 On ch=10 n=38 v=116
38940 On ch=10 n=51 v=52
38940 On ch=10 n=76 v=127
38955 On ch=10 n=76 v=0
38955 On ch=10 n=51 v=0
38955 On ch=10 n=38 v=0
39000 On ch=10 n=42 v=84
39000 On ch=10 n=51 v=68
39000 On ch=10 n=54 v=100
39000 On ch=10 n=69 v=52
39015 On ch=10 n=69 v=0
39015 On ch=10 n=42 v=0
39015 On ch=10 n=51 v=0
39015 On ch=10 n=54 v=0
39030 On ch=10 n=38 v=116
39030 On ch=10 n=76 v=127
39045 On ch=10 n=76 v=0
39045 On ch=10 n=38 v=0
39060 On ch=10 n=51 v=52
39075 On ch=10 n=51 v=0
39090 On ch=10 n=38 v=100
39090 On ch=10 n=76 v=116
39105 On ch=10 n=76 v=0
39105 On ch=10 n=38 v=0
39120 On ch=10 n=35 v=84
39120 On ch=10 n=51 v=84
39135 On ch=10 n=51 v=0
39135 On ch=10 n=35 v=0
39180 On ch=10 n=51 v=52
39195 On ch=10 n=51 v=0
39240 On ch=10 n=38 v=100
39240 On ch=10 n=42 v=84
39240 On ch=10 n=51 v=68
39240 On ch=10 n=69 v=36
39240 On ch=10 n=76 v=116
39255 On ch=10 n=76 v=0
39255 On ch=10 n=51 v=0
39255 On ch=10 n=38 v=0
39255 On ch=10 n=42 v=0
39255 On ch=10 n=69 v=0
39270 On ch=10 n=38 v=68
39270 On ch=10 n=76 v=84
39285 On ch=10 n=76 v=0
39285 On ch=10 n=38 v=0
39300 On ch=10 n=35 v=68
39300 On ch=10 n=38 v=36
39300 On ch=10 n=51 v=52
39315 On ch=10 n=51 v=0
39315 On ch=10 n=38 v=0
39315 On ch=10 n=35 v=0
39360 On ch=10 n=35 v=100
39360 On ch=10 n=51 v=84
39375 On ch=10 n=51 v=0
39375 On ch=10 n=35 v=0
39420 On ch=10 n=51 v=52
39434 On ch=10 n=51 v=0
39480 On ch=10 n=38 v=116
39480 On ch=10 n=42 v=84
39480 On ch=10 n=51 v=68
39480 On ch=10 n=54 v=100
39480 On ch=10 n=69 v=52
39480 On ch=10 n=76 v=127
39495 On ch=10 n=76 v=0
39495 On ch=10 n=42 v=0
39495 On ch=10 n=51 v=0
39495 On ch=10 n=38 v=0
39495 On ch=10 n=69 v=0
39495 On ch=10 n=54 v=0
39540 On ch=10 n=51 v=52
39555 On ch=10 n=51 v=0
39600 On ch=10 n=35 v=84
39600 On ch=10 n=51 v=84
39615 On ch=10 n=51 v=0
39615 On ch=10 n=35 v=0
39660 On ch=10 n=51 v=52
39674 On ch=10 n=51 v=0
39720 On ch=10 n=38 v=100
39720 On ch=10 n=42 v=84
39720 On ch=10 n=51 v=68
39720 On ch=10 n=69 v=36
39720 On ch=10 n=76 v=116
39735 On ch=10 n=76 v=0
39735 On ch=10 n=51 v=0
39735 On ch=10 n=38 v=0
39735 On ch=10 n=42 v=0
39735 On ch=10 n=69 v=0
39780 On ch=10 n=35 v=68
39780 On ch=10 n=51 v=52
39795 On ch=10 n=51 v=0
39795 On ch=10 n=35 v=0
39840 On ch=10 n=35 v=100
39840 On ch=10 n=51 v=84
39855 On ch=10 n=51 v=0
39855 On ch=10 n=35 v=0
39900 On ch=10 n=51 v=52
39915 On ch=10 n=51 v=0
39960 On ch=10 n=38 v=116
39960 On ch=10 n=42 v=84
39960 On ch=10 n=51 v=68
39960 On ch=10 n=54 v=100
39960 On ch=10 n=69 v=52
39960 On ch=10 n=76 v=127
39975 On ch=10 n=76 v=0
39975 On ch=10 n=42 v=0
39975 On ch=10 n=51 v=0
39975 On ch=10 n=38 v=0
39975 On ch=10 n=69 v=0
39975 On ch=10 n=54 v=0
40020 On ch=10 n=51 v=52
40035 On ch=10 n=51 v=0
40080 On ch=10 n=35 v=84
40080 On ch=10 n=51 v=84
40095 On ch=10 n=51 v=0
40095 On ch=10 n=35 v=0
40140 On ch=10 n=51 v=52
40155 On ch=10 n=51 v=0
40200 On ch=10 n=38 v=100
40200 On ch=10 n=42 v=84
40200 On ch=10 n=51 v=68
40200 On ch=10 n=69 v=36
40200 On ch=10 n=76 v=116
40215 On ch=10 n=76 v=0
40215 On ch=10 n=51 v=0
40215 On ch=10 n=38 v=0
40215 On ch=10 n=42 v=0
40215 On ch=10 n=69 v=0
40260 On ch=10 n=35 v=68
40260 On ch=10 n=51 v=52
40275 On ch=10 n=51 v=0
40275 On ch=10 n=35 v=0
40320 On ch=10 n=35 v=100
40320 On ch=10 n=51 v=84
40335 On ch=10 n=51 v=0
40335 On ch=10 n=35 v=0
40380 On ch=10 n=51 v=52
40394 On ch=10 n=51 v=0
40440 On ch=10 n=38 v=116
40440 On ch=10 n=42 v=84
40440 On ch=10 n=51 v=68
40440 On ch=10 n=54 v=100
40440 On ch=10 n=69 v=52
40440 On ch=10 n=76 v=127
40455 On ch=10 n=76 v=0
40455 On ch=10 n=42 v=0
40455 On ch=10 n=51 v=0
40455 On ch=10 n=38 v=0
40455 On ch=10 n=69 v=0
40455 On ch=10 n=54 v=0
40500 On ch=10 n=51 v=52
40515 On ch=10 n=51 v=0
40560 On ch=10 n=35 v=84
40560 On ch=10 n=51 v=84
40575 On ch=10 n=51 v=0
40575 On ch=10 n=35 v=0
40620 On ch=10 n=51 v=52
40634 On ch=10 n=51 v=0
40680 On ch=10 n=38 v=100
40680 On ch=10 n=42 v=84
40680 On ch=10 n=51 v=68
40680 On ch=10 n=69 v=36
40680 On ch=10 n=76 v=116
40695 On ch=10 n=76 v=0
40695 On ch=10 n=51 v=0
40695 On ch=10 n=38 v=0
40695 On ch=10 n=42 v=0
40695 On ch=10 n=69 v=0
40740 On ch=10 n=35 v=68
40740 On ch=10 n=51 v=52
40755 On ch=10 n=51 v=0
40755 On ch=10 n=35 v=0
40800 On ch=10 n=35 v=100
40800 On ch=10 n=51 v=84
40815 On ch=10 n=51 v=0
40815 On ch=10 n=35 v=0
40860 On ch=10 n=51 v=52
40875 On ch=10 n=51 v=0
40920 On ch=10 n=38 v=116
40920 On ch=10 n=42 v=84
40920 On ch=10 n=51 v=68
40920 On ch=10 n=54 v=100
40920 On ch=10 n=69 v=52
40920 On ch=10 n=76 v=127
40935 On ch=10 n=76 v=0
40935 On ch=10 n=42 v=0
40935 On ch=10 n=51 v=0
40935 On ch=10 n=38 v=0
40935 On ch=10 n=69 v=0
40935 On ch=10 n=54 v=0
40980 On ch=10 n=51 v=52
40995 On ch=10 n=51 v=0
41040 On ch=10 n=35 v=84
41040 On ch=10 n=51 v=84
41055 On ch=10 n=51 v=0
41055 On ch=10 n=35 v=0
41100 On ch=10 n=51 v=52
41115 On ch=10 n=51 v=0
41160 On ch=10 n=38 v=100
41160 On ch=10 n=42 v=84
41160 On ch=10 n=51 v=68
41160 On ch=10 n=69 v=36
41160 On ch=10 n=76 v=116
41175 On ch=10 n=76 v=0
41175 On ch=10 n=51 v=0
41175 On ch=10 n=38 v=0
41175 On ch=10 n=42 v=0
41175 On ch=10 n=69 v=0
41220 On ch=10 n=35 v=68
41220 On ch=10 n=51 v=52
41235 On ch=10 n=51 v=0
41235 On ch=10 n=35 v=0
41280 On ch=10 n=35 v=100
41280 On ch=10 n=51 v=84
41295 On ch=10 n=51 v=0
41295 On ch=10 n=35 v=0
41340 On ch=10 n=51 v=52
41354 On ch=10 n=51 v=0
41400 On ch=10 n=38 v=116
41400 On ch=10 n=42 v=84
41400 On ch=10 n=51 v=68
41400 On ch=10 n=54 v=100
41400 On ch=10 n=69 v=52
41400 On ch=10 n=76 v=127
41415 On ch=10 n=76 v=0
41415 On ch=10 n=42 v=0
41415 On ch=10 n=51 v=0
41415 On ch=10 n=38 v=0
41415 On ch=10 n=69 v=0
41415 On ch=10 n=54 v=0
41460 On ch=10 n=51 v=52
41475 On ch=10 n=51 v=0
41520 On ch=10 n=35 v=84
41520 On ch=10 n=51 v=84
41535 On ch=10 n=51 v=0
41535 On ch=10 n=35 v=0
41580 On ch=10 n=51 v=52
41595 On ch=10 n=51 v=0
41640 On ch=10 n=38 v=100
41640 On ch=10 n=42 v=84
41640 On ch=10 n=51 v=68
41640 On ch=10 n=69 v=36
41640 On ch=10 n=76 v=116
41655 On ch=10 n=76 v=0
41655 On ch=10 n=51 v=0
41655 On ch=10 n=38 v=0
41655 On ch=10 n=42 v=0
41655 On ch=10 n=69 v=0
41700 On ch=10 n=35 v=68
41700 On ch=10 n=51 v=52
41715 On ch=10 n=51 v=0
41715 On ch=10 n=35 v=0
41760 On ch=10 n=35 v=100
41760 On ch=10 n=51 v=84
41775 On ch=10 n=51 v=0
41775 On ch=10 n=35 v=0
41820 On ch=10 n=51 v=52
41835 On ch=10 n=51 v=0
41880 On ch=10 n=38 v=116
41880 On ch=10 n=42 v=84
41880 On ch=10 n=51 v=68
41880 On ch=10 n=54 v=100
41880 On ch=10 n=69 v=52
41880 On ch=10 n=76 v=127
41895 On ch=10 n=76 v=0
41895 On ch=10 n=42 v=0
41895 On ch=10 n=51 v=0
41895 On ch=10 n=38 v=0
41895 On ch=10 n=69 v=0
41895 On ch=10 n=54 v=0
41940 On ch=10 n=51 v=52
41955 On ch=10 n=51 v=0
42000 On ch=10 n=35 v=84
42000 On ch=10 n=51 v=84
42015 On ch=10 n=51 v=0
42015 On ch=10 n=35 v=0
42060 On ch=10 n=51 v=52
42075 On ch=10 n=51 v=0
42120 On ch=10 n=38 v=100
42120 On ch=10 n=42 v=84
42120 On ch=10 n=51 v=68
42120 On ch=10 n=69 v=36
42120 On ch=10 n=76 v=116
42135 On ch=10 n=76 v=0
42135 On ch=10 n=51 v=0
42135 On ch=10 n=38 v=0
42135 On ch=10 n=42 v=0
42135 On ch=10 n=69 v=0
42180 On ch=10 n=35 v=68
42180 On ch=10 n=51 v=52
42195 On ch=10 n=51 v=0
42195 On ch=10 n=35 v=0
42240 On ch=10 n=35 v=100
42240 On ch=10 n=51 v=84
42255 On ch=10 n=51 v=0
42255 On ch=10 n=35 v=0
42300 On ch=10 n=51 v=52
42314 On ch=10 n=51 v=0
42360 On ch=10 n=38 v=116
42360 On ch=10 n=42 v=84
42360 On ch=10 n=51 v=68
42360 On ch=10 n=54 v=100
42360 On ch=10 n=69 v=52
42360 On ch=10 n=76 v=127
42375 On ch=10 n=76 v=0
42375 On ch=10 n=42 v=0
42375 On ch=10 n=51 v=0
42375 On ch=10 n=38 v=0
42375 On ch=10 n=69 v=0
42375 On ch=10 n=54 v=0
42420 On ch=10 n=51 v=52
42435 On ch=10 n=51 v=0
42480 On ch=10 n=35 v=84
42480 On ch=10 n=51 v=84
42495 On ch=10 n=51 v=0
42495 On ch=10 n=35 v=0
42540 On ch=10 n=51 v=52
42555 On ch=10 n=51 v=0
42600 On ch=10 n=38 v=100
42600 On ch=10 n=42 v=84
42600 On ch=10 n=51 v=68
42600 On ch=10 n=69 v=36
42600 On ch=10 n=76 v=116
42615 On ch=10 n=76 v=0
42615 On ch=10 n=51 v=0
42615 On ch=10 n=38 v=0
42615 On ch=10 n=42 v=0
42615 On ch=10 n=69 v=0
42660 On ch=10 n=35 v=68
42660 On ch=10 n=51 v=52
42675 On ch=10 n=51 v=0
42675 On ch=10 n=35 v=0
42720 On ch=10 n=35 v=100
42720 On ch=10 n=51 v=84
42735 On ch=10 n=51 v=0
42735 On ch=10 n=35 v=0
42780 On ch=10 n=51 v=52
42795 On ch=10 n=51 v=0
42840 On ch=10 n=38 v=116
42840 On ch=10 n=42 v=84
42840 On ch=10 n=51 v=68
42840 On ch=10 n=54 v=100
42840 On ch=10 n=69 v=52
42840 On ch=10 n=76 v=127
42855 On ch=10 n=76 v=0
42855 On ch=10 n=42 v=0
42855 On ch=10 n=51 v=0
42855 On ch=10 n=38 v=0
42855 On ch=10 n=69 v=0
42855 On ch=10 n=54 v=0
42900 On ch=10 n=51 v=52
42915 On ch=10 n=51 v=0
42960 On ch=10 n=35 v=84
42960 On ch=10 n=51 v=84
42975 On ch=10 n=51 v=0
42975 On ch=10 n=35 v=0
43020 On ch=10 n=51 v=52
43034 On ch=10 n=51 v=0
43080 On ch=10 n=38 v=100
43080 On ch=10 n=42 v=84
43080 On ch=10 n=51 v=68
43080 On ch=10 n=69 v=36
43080 On ch=10 n=76 v=116
43095 On ch=10 n=76 v=0
43095 On ch=10 n=51 v=0
43095 On ch=10 n=38 v=0
43095 On ch=10 n=42 v=0
43095 On ch=10 n=69 v=0
43140 On ch=10 n=35 v=68
43140 On ch=10 n=51 v=52
43155 On ch=10 n=51 v=0
43155 On ch=10 n=35 v=0
43200 On ch=10 n=35 v=100
43200 On ch=10 n=38 v=116
43200 On ch=10 n=51 v=100
43200 On ch=10 n=76 v=127
43215 On ch=10 n=76 v=0
43215 On ch=10 n=35 v=0
43215 On ch=10 n=38 v=0
43215 On ch=10 n=51 v=0
43320 On ch=10 n=69 v=52
43335 On ch=10 n=69 v=0
43560 On ch=10 n=69 v=36
43575 On ch=10 n=69 v=0
44490 On ch=10 n=45 v=36
44490 On ch=10 n=47 v=84
44505 On ch=10 n=47 v=0
44505 On ch=10 n=45 v=0
44520 On ch=10 n=48 v=52
44520 On ch=10 n=50 v=100
44535 On ch=10 n=50 v=0
44535 On ch=10 n=48 v=0
44580 On ch=10 n=35 v=84
44580 On ch=10 n=41 v=36
44580 On ch=10 n=43 v=84
44595 On ch=10 n=43 v=0
44595 On ch=10 n=41 v=0
44595 On ch=10 n=35 v=0
44640 On ch=10 n=35 v=100
44640 On ch=10 n=51 v=84
44655 On ch=10 n=51 v=0
44655 On ch=10 n=35 v=0
44700 On ch=10 n=51 v=52
44715 On ch=10 n=51 v=0
44760 On ch=10 n=42 v=84
44760 On ch=10 n=51 v=68
44760 On ch=10 n=54 v=100
44760 On ch=10 n=69 v=52
44760 On ch=10 n=76 v=127
44775 On ch=10 n=76 v=0
44775 On ch=10 n=54 v=0
44775 On ch=10 n=42 v=0
44775 On ch=10 n=51 v=0
44775 On ch=10 n=69 v=0
44820 On ch=10 n=51 v=52
44835 On ch=10 n=51 v=0
44880 On ch=10 n=51 v=84
44895 On ch=10 n=51 v=0
44940 On ch=10 n=51 v=52
44955 On ch=10 n=51 v=0
45000 On ch=10 n=42 v=84
45000 On ch=10 n=51 v=68
45000 On ch=10 n=69 v=36
45000 On ch=10 n=76 v=116
45015 On ch=10 n=76 v=0
45015 On ch=10 n=42 v=0
45015 On ch=10 n=51 v=0
45015 On ch=10 n=69 v=0
45060 On ch=10 n=51 v=52
45075 On ch=10 n=51 v=0
45120 On ch=10 n=35 v=100
45120 On ch=10 n=51 v=84
45135 On ch=10 n=51 v=0
45135 On ch=10 n=35 v=0
45180 On ch=10 n=51 v=52
45195 On ch=10 n=51 v=0
45240 On ch=10 n=42 v=84
45240 On ch=10 n=51 v=68
45240 On ch=10 n=54 v=100
45240 On ch=10 n=69 v=52
45240 On ch=10 n=76 v=127
45255 On ch=10 n=76 v=0
45255 On ch=10 n=54 v=0
45255 On ch=10 n=42 v=0
45255 On ch=10 n=51 v=0
45255 On ch=10 n=69 v=0
45300 On ch=10 n=51 v=52
45315 On ch=10 n=51 v=0
45360 On ch=10 n=51 v=84
45375 On ch=10 n=51 v=0
45420 On ch=10 n=51 v=52
45435 On ch=10 n=51 v=0
45480 On ch=10 n=42 v=84
45480 On ch=10 n=51 v=68
45480 On ch=10 n=69 v=36
45480 On ch=10 n=76 v=116
45495 On ch=10 n=76 v=0
45495 On ch=10 n=42 v=0
45495 On ch=10 n=51 v=0
45495 On ch=10 n=69 v=0
45540 On ch=10 n=51 v=52
45555 On ch=10 n=51 v=0
45600 On ch=10 n=35 v=100
45600 On ch=10 n=51 v=84
45615 On ch=10 n=51 v=0
45615 On ch=10 n=35 v=0
45660 On ch=10 n=51 v=52
45675 On ch=10 n=51 v=0
45720 On ch=10 n=42 v=84
45720 On ch=10 n=51 v=68
45720 On ch=10 n=54 v=100
45720 On ch=10 n=69 v=52
45720 On ch=10 n=76 v=127
45735 On ch=10 n=76 v=0
45735 On ch=10 n=54 v=0
45735 On ch=10 n=42 v=0
45735 On ch=10 n=51 v=0
45735 On ch=10 n=69 v=0
45780 On ch=10 n=51 v=52
45795 On ch=10 n=51 v=0
45840 On ch=10 n=51 v=84
45855 On ch=10 n=51 v=0
45900 On ch=10 n=51 v=52
45915 On ch=10 n=51 v=0
45960 On ch=10 n=42 v=84
45960 On ch=10 n=51 v=68
45960 On ch=10 n=69 v=36
45960 On ch=10 n=76 v=116
45975 On ch=10 n=76 v=0
45975 On ch=10 n=42 v=0
45975 On ch=10 n=51 v=0
45975 On ch=10 n=69 v=0
46020 On ch=10 n=51 v=52
46035 On ch=10 n=51 v=0
46080 On ch=10 n=35 v=100
46080 On ch=10 n=51 v=84
46095 On ch=10 n=51 v=0
46095 On ch=10 n=35 v=0
46140 On ch=10 n=51 v=52
46155 On ch=10 n=51 v=0
46200 On ch=10 n=42 v=84
46200 On ch=10 n=51 v=68
46200 On ch=10 n=54 v=100
46200 On ch=10 n=69 v=52
46200 On ch=10 n=76 v=127
46215 On ch=10 n=76 v=0
46215 On ch=10 n=54 v=0
46215 On ch=10 n=42 v=0
46215 On ch=10 n=51 v=0
46215 On ch=10 n=69 v=0
46260 On ch=10 n=51 v=52
46275 On ch=10 n=51 v=0
46320 On ch=10 n=51 v=84
46335 On ch=10 n=51 v=0
46380 On ch=10 n=51 v=52
46395 On ch=10 n=51 v=0
46440 On ch=10 n=42 v=84
46440 On ch=10 n=51 v=68
46440 On ch=10 n=69 v=36
46440 On ch=10 n=76 v=116
46455 On ch=10 n=76 v=0
46455 On ch=10 n=42 v=0
46455 On ch=10 n=51 v=0
46455 On ch=10 n=69 v=0
46500 On ch=10 n=51 v=52
46515 On ch=10 n=51 v=0
46560 On ch=10 n=35 v=100
46560 On ch=10 n=51 v=84
46575 On ch=10 n=51 v=0
46575 On ch=10 n=35 v=0
46620 On ch=10 n=51 v=52
46635 On ch=10 n=51 v=0
46680 On ch=10 n=42 v=84
46680 On ch=10 n=51 v=68
46680 On ch=10 n=54 v=100
46680 On ch=10 n=69 v=52
46680 On ch=10 n=76 v=127
46695 On ch=10 n=76 v=0
46695 On ch=10 n=54 v=0
46695 On ch=10 n=42 v=0
46695 On ch=10 n=51 v=0
46695 On ch=10 n=69 v=0
46740 On ch=10 n=51 v=52
46755 On ch=10 n=51 v=0
46800 On ch=10 n=51 v=84
46815 On ch=10 n=51 v=0
46860 On ch=10 n=51 v=52
46875 On ch=10 n=51 v=0
46920 On ch=10 n=42 v=84
46920 On ch=10 n=51 v=68
46920 On ch=10 n=69 v=36
46920 On ch=10 n=76 v=116
46935 On ch=10 n=76 v=0
46935 On ch=10 n=42 v=0
46935 On ch=10 n=51 v=0
46935 On ch=10 n=69 v=0
46980 On ch=10 n=51 v=52
46995 On ch=10 n=51 v=0
47040 On ch=10 n=35 v=100
47040 On ch=10 n=51 v=84
47055 On ch=10 n=51 v=0
47055 On ch=10 n=35 v=0
47100 On ch=10 n=51 v=52
47115 On ch=10 n=51 v=0
47160 On ch=10 n=42 v=84
47160 On ch=10 n=51 v=68
47160 On ch=10 n=54 v=100
47160 On ch=10 n=69 v=52
47160 On ch=10 n=76 v=127
47175 On ch=10 n=76 v=0
47175 On ch=10 n=54 v=0
47175 On ch=10 n=42 v=0
47175 On ch=10 n=51 v=0
47175 On ch=10 n=69 v=0
47220 On ch=10 n=51 v=52
47235 On ch=10 n=51 v=0
47280 On ch=10 n=51 v=84
47295 On ch=10 n=51 v=0
47340 On ch=10 n=51 v=52
47355 On ch=10 n=51 v=0
47400 On ch=10 n=42 v=84
47400 On ch=10 n=51 v=68
47400 On ch=10 n=69 v=36
47400 On ch=10 n=76 v=116
47415 On ch=10 n=76 v=0
47415 On ch=10 n=42 v=0
47415 On ch=10 n=51 v=0
47415 On ch=10 n=69 v=0
47460 On ch=10 n=51 v=52
47475 On ch=10 n=51 v=0
47520 On ch=10 n=35 v=100
47520 On ch=10 n=51 v=84
47535 On ch=10 n=51 v=0
47535 On ch=10 n=35 v=0
47580 On ch=10 n=51 v=52
47595 On ch=10 n=51 v=0
47640 On ch=10 n=42 v=84
47640 On ch=10 n=51 v=68
47640 On ch=10 n=54 v=100
47640 On ch=10 n=69 v=52
47640 On ch=10 n=76 v=127
47655 On ch=10 n=76 v=0
47655 On ch=10 n=54 v=0
47655 On ch=10 n=42 v=0
47655 On ch=10 n=51 v=0
47655 On ch=10 n=69 v=0
47700 On ch=10 n=51 v=52
47715 On ch=10 n=51 v=0
47760 On ch=10 n=51 v=84
47775 On ch=10 n=51 v=0
47820 On ch=10 n=51 v=52
47835 On ch=10 n=51 v=0
47880 On ch=10 n=42 v=84
47880 On ch=10 n=51 v=68
47880 On ch=10 n=69 v=36
47880 On ch=10 n=76 v=116
47895 On ch=10 n=76 v=0
47895 On ch=10 n=42 v=0
47895 On ch=10 n=51 v=0
47895 On ch=10 n=69 v=0
47940 On ch=10 n=51 v=52
47955 On ch=10 n=51 v=0
48000 On ch=10 n=35 v=100
48000 On ch=10 n=51 v=84
48015 On ch=10 n=51 v=0
48015 On ch=10 n=35 v=0
48060 On ch=10 n=51 v=52
48075 On ch=10 n=51 v=0
48120 On ch=10 n=42 v=84
48120 On ch=10 n=51 v=68
48120 On ch=10 n=54 v=100
48120 On ch=10 n=69 v=52
48120 On ch=10 n=76 v=127
48135 On ch=10 n=76 v=0
48135 On ch=10 n=54 v=0
48135 On ch=10 n=42 v=0
48135 On ch=10 n=51 v=0
48135 On ch=10 n=69 v=0
48180 On ch=10 n=51 v=52
48195 On ch=10 n=51 v=0
48240 On ch=10 n=51 v=84
48255 On ch=10 n=51 v=0
48300 On ch=10 n=51 v=52
48315 On ch=10 n=51 v=0
48360 On ch=10 n=42 v=84
48360 On ch=10 n=51 v=68
48360 On ch=10 n=69 v=36
48360 On ch=10 n=76 v=116
48375 On ch=10 n=76 v=0
48375 On ch=10 n=42 v=0
48375 On ch=10 n=51 v=0
48375 On ch=10 n=69 v=0
48420 On ch=10 n=51 v=52
48435 On ch=10 n=51 v=0
48480 On ch=10 n=35 v=100
48480 On ch=10 n=49 v=100
48480 On ch=10 n=51 v=84
48495 On ch=10 n=51 v=0
48495 On ch=10 n=49 v=0
48495 On ch=10 n=35 v=0
48540 On ch=10 n=51 v=52
48555 On ch=10 n=51 v=0
48600 On ch=10 n=42 v=84
48600 On ch=10 n=51 v=68
48600 On ch=10 n=54 v=100
48600 On ch=10 n=69 v=52
48600 On ch=10 n=76 v=127
48615 On ch=10 n=76 v=0
48615 On ch=10 n=54 v=0
48615 On ch=10 n=42 v=0
48615 On ch=10 n=51 v=0
48615 On ch=10 n=69 v=0
48660 On ch=10 n=51 v=52
48675 On ch=10 n=51 v=0
48720 On ch=10 n=51 v=84
48735 On ch=10 n=51 v=0
48780 On ch=10 n=51 v=52
48794 On ch=10 n=51 v=0
48840 On ch=10 n=42 v=84
48840 On ch=10 n=51 v=68
48840 On ch=10 n=69 v=36
48840 On ch=10 n=76 v=116
48855 On ch=10 n=76 v=0
48855 On ch=10 n=42 v=0
48855 On ch=10 n=51 v=0
48855 On ch=10 n=69 v=0
48900 On ch=10 n=51 v=52
48915 On ch=10 n=51 v=0
48960 On ch=10 n=35 v=100
48960 On ch=10 n=51 v=84
48975 On ch=10 n=51 v=0
48975 On ch=10 n=35 v=0
49020 On ch=10 n=51 v=52
49035 On ch=10 n=51 v=0
49080 On ch=10 n=42 v=84
49080 On ch=10 n=51 v=68
49080 On ch=10 n=54 v=100
49080 On ch=10 n=69 v=52
49080 On ch=10 n=76 v=127
49095 On ch=10 n=76 v=0
49095 On ch=10 n=54 v=0
49095 On ch=10 n=42 v=0
49095 On ch=10 n=51 v=0
49095 On ch=10 n=69 v=0
49140 On ch=10 n=51 v=52
49155 On ch=10 n=51 v=0
49200 On ch=10 n=51 v=84
49215 On ch=10 n=51 v=0
49260 On ch=10 n=51 v=52
49275 On ch=10 n=51 v=0
49320 On ch=10 n=42 v=84
49320 On ch=10 n=51 v=68
49320 On ch=10 n=69 v=36
49320 On ch=10 n=76 v=116
49335 On ch=10 n=76 v=0
49335 On ch=10 n=42 v=0
49335 On ch=10 n=51 v=0
49335 On ch=10 n=69 v=0
49380 On ch=10 n=51 v=52
49395 On ch=10 n=51 v=0
49440 On ch=10 n=35 v=100
49440 On ch=10 n=51 v=84
49455 On ch=10 n=51 v=0
49455 On ch=10 n=35 v=0
49500 On ch=10 n=51 v=52
49515 On ch=10 n=51 v=0
49560 On ch=10 n=42 v=84
49560 On ch=10 n=51 v=68
49560 On ch=10 n=54 v=100
49560 On ch=10 n=69 v=52
49560 On ch=10 n=76 v=127
49575 On ch=10 n=76 v=0
49575 On ch=10 n=54 v=0
49575 On ch=10 n=42 v=0
49575 On ch=10 n=51 v=0
49575 On ch=10 n=69 v=0
49620 On ch=10 n=51 v=52
49635 On ch=10 n=51 v=0
49680 On ch=10 n=51 v=84
49695 On ch=10 n=51 v=0
49740 On ch=10 n=51 v=52
49754 On ch=10 n=51 v=0
49800 On ch=10 n=42 v=84
49800 On ch=10 n=51 v=68
49800 On ch=10 n=69 v=36
49800 On ch=10 n=76 v=116
49815 On ch=10 n=76 v=0
49815 On ch=10 n=42 v=0
49815 On ch=10 n=51 v=0
49815 On ch=10 n=69 v=0
49860 On ch=10 n=51 v=52
49875 On ch=10 n=51 v=0
49920 On ch=10 n=35 v=100
49920 On ch=10 n=51 v=84
49935 On ch=10 n=51 v=0
49935 On ch=10 n=35 v=0
49980 On ch=10 n=51 v=52
49994 On ch=10 n=51 v=0
50040 On ch=10 n=42 v=84
50040 On ch=10 n=51 v=68
50040 On ch=10 n=54 v=100
50040 On ch=10 n=69 v=52
50040 On ch=10 n=76 v=127
50055 On ch=10 n=76 v=0
50055 On ch=10 n=54 v=0
50055 On ch=10 n=42 v=0
50055 On ch=10 n=51 v=0
50055 On ch=10 n=69 v=0
50100 On ch=10 n=51 v=52
50115 On ch=10 n=51 v=0
50160 On ch=10 n=51 v=84
50175 On ch=10 n=51 v=0
50220 On ch=10 n=51 v=52
50235 On ch=10 n=51 v=0
50280 On ch=10 n=42 v=84
50280 On ch=10 n=51 v=68
50280 On ch=10 n=69 v=36
50280 On ch=10 n=76 v=116
50295 On ch=10 n=76 v=0
50295 On ch=10 n=42 v=0
50295 On ch=10 n=51 v=0
50295 On ch=10 n=69 v=0
50340 On ch=10 n=51 v=52
50355 On ch=10 n=51 v=0
50400 On ch=10 n=35 v=36
50400 On ch=10 n=51 v=100
50415 On ch=10 n=51 v=0
50415 On ch=10 n=35 v=0
50460 On ch=10 n=35 v=36
50460 On ch=10 n=51 v=52
50475 On ch=10 n=51 v=0
50475 On ch=10 n=35 v=0
50520 On ch=10 n=35 v=36
50520 On ch=10 n=42 v=84
50520 On ch=10 n=51 v=68
50520 On ch=10 n=54 v=100
50520 On ch=10 n=69 v=52
50520 On ch=10 n=76 v=127
50535 On ch=10 n=76 v=0
50535 On ch=10 n=42 v=0
50535 On ch=10 n=51 v=0
50535 On ch=10 n=35 v=0
50535 On ch=10 n=69 v=0
50535 On ch=10 n=54 v=0
50580 On ch=10 n=35 v=52
50580 On ch=10 n=51 v=52
50595 On ch=10 n=51 v=0
50595 On ch=10 n=35 v=0
50640 On ch=10 n=35 v=52
50640 On ch=10 n=51 v=84
50655 On ch=10 n=51 v=0
50655 On ch=10 n=35 v=0
50700 On ch=10 n=35 v=68
50700 On ch=10 n=51 v=52
50715 On ch=10 n=51 v=0
50715 On ch=10 n=35 v=0
50760 On ch=10 n=35 v=68
50760 On ch=10 n=42 v=84
50760 On ch=10 n=51 v=68
50760 On ch=10 n=69 v=36
50760 On ch=10 n=76 v=116
50775 On ch=10 n=76 v=0
50775 On ch=10 n=51 v=0
50775 On ch=10 n=35 v=0
50775 On ch=10 n=42 v=0
50775 On ch=10 n=69 v=0
50820 On ch=10 n=35 v=68
50820 On ch=10 n=51 v=52
50835 On ch=10 n=51 v=0
50835 On ch=10 n=35 v=0
50880 On ch=10 n=35 v=84
50880 On ch=10 n=51 v=100
50895 On ch=10 n=51 v=0
50895 On ch=10 n=35 v=0
50940 On ch=10 n=35 v=84
50940 On ch=10 n=51 v=52
50955 On ch=10 n=51 v=0
50955 On ch=10 n=35 v=0
51000 On ch=10 n=35 v=84
51000 On ch=10 n=42 v=84
51000 On ch=10 n=51 v=68
51000 On ch=10 n=54 v=100
51000 On ch=10 n=69 v=52
51000 On ch=10 n=76 v=127
51015 On ch=10 n=76 v=0
51015 On ch=10 n=42 v=0
51015 On ch=10 n=51 v=0
51015 On ch=10 n=35 v=0
51015 On ch=10 n=69 v=0
51015 On ch=10 n=54 v=0
51060 On ch=10 n=35 v=100
51060 On ch=10 n=51 v=52
51075 On ch=10 n=51 v=0
51075 On ch=10 n=35 v=0
51120 On ch=10 n=35 v=100
51120 On ch=10 n=51 v=84
51135 On ch=10 n=51 v=0
51135 On ch=10 n=35 v=0
51180 On ch=10 n=35 v=100
51180 On ch=10 n=51 v=52
51195 On ch=10 n=51 v=0
51195 On ch=10 n=35 v=0
51240 On ch=10 n=35 v=116
51240 On ch=10 n=42 v=84
51240 On ch=10 n=51 v=68
51240 On ch=10 n=69 v=36
51240 On ch=10 n=76 v=116
51255 On ch=10 n=76 v=0
51255 On ch=10 n=51 v=0
51255 On ch=10 n=35 v=0
51255 On ch=10 n=42 v=0
51255 On ch=10 n=69 v=0
51300 On ch=10 n=35 v=127
51300 On ch=10 n=51 v=52
51315 On ch=10 n=51 v=0
51315 On ch=10 n=35 v=0
51360 On ch=10 n=35 v=100
51360 On ch=10 n=51 v=84
51375 On ch=10 n=51 v=0
51375 On ch=10 n=35 v=0
51420 On ch=10 n=51 v=52
51435 On ch=10 n=51 v=0
51480 On ch=10 n=42 v=84
51480 On ch=10 n=51 v=68
51480 On ch=10 n=54 v=100
51480 On ch=10 n=69 v=52
51480 On ch=10 n=76 v=127
51495 On ch=10 n=76 v=0
51495 On ch=10 n=54 v=0
51495 On ch=10 n=42 v=0
51495 On ch=10 n=51 v=0
51495 On ch=10 n=69 v=0
51540 On ch=10 n=51 v=52
51555 On ch=10 n=51 v=0
51600 On ch=10 n=51 v=84
51615 On ch=10 n=51 v=0
51660 On ch=10 n=51 v=52
51675 On ch=10 n=51 v=0
51720 On ch=10 n=42 v=84
51720 On ch=10 n=51 v=68
51720 On ch=10 n=69 v=36
51720 On ch=10 n=76 v=116
51735 On ch=10 n=76 v=0
51735 On ch=10 n=42 v=0
51735 On ch=10 n=51 v=0
51735 On ch=10 n=69 v=0
51780 On ch=10 n=51 v=52
51795 On ch=10 n=51 v=0
51840 On ch=10 n=35 v=100
51840 On ch=10 n=51 v=84
51855 On ch=10 n=51 v=0
51855 On ch=10 n=35 v=0
51900 On ch=10 n=51 v=52
51914 On ch=10 n=51 v=0
51960 On ch=10 n=42 v=84
51960 On ch=10 n=51 v=68
51960 On ch=10 n=54 v=100
51960 On ch=10 n=69 v=52
51960 On ch=10 n=76 v=127
51975 On ch=10 n=76 v=0
51975 On ch=10 n=54 v=0
51975 On ch=10 n=42 v=0
51975 On ch=10 n=51 v=0
51975 On ch=10 n=69 v=0
52020 On ch=10 n=51 v=52
52035 On ch=10 n=51 v=0
52080 On ch=10 n=51 v=84
52095 On ch=10 n=51 v=0
52140 On ch=10 n=51 v=52
52155 On ch=10 n=51 v=0
52200 On ch=10 n=42 v=84
52200 On ch=10 n=51 v=68
52200 On ch=10 n=69 v=36
52200 On ch=10 n=76 v=116
52215 On ch=10 n=76 v=0
52215 On ch=10 n=42 v=0
52215 On ch=10 n=51 v=0
52215 On ch=10 n=69 v=0
52260 On ch=10 n=51 v=52
52275 On ch=10 n=51 v=0
52320 On ch=10 n=35 v=100
52320 On ch=10 n=51 v=100
52335 On ch=10 n=51 v=0
52335 On ch=10 n=35 v=0
52440 On ch=10 n=35 v=100
52440 On ch=10 n=42 v=84
52440 On ch=10 n=51 v=100
52440 On ch=10 n=54 v=100
52440 On ch=10 n=69 v=52
52455 On ch=10 n=69 v=0
52455 On ch=10 n=51 v=0
52455 On ch=10 n=35 v=0
52455 On ch=10 n=42 v=0
52455 On ch=10 n=54 v=0
52515 On ch=10 n=76 v=36
52523 On ch=10 n=76 v=0
52530 On ch=10 n=76 v=84
52537 On ch=10 n=76 v=0
52545 On ch=10 n=76 v=68
52552 On ch=10 n=76 v=0
52560 On ch=10 n=38 v=116
52560 On ch=10 n=76 v=127
52567 On ch=10 n=76 v=0
52575 On ch=10 n=38 v=0
52590 On ch=10 n=38 v=100
52590 On ch=10 n=76 v=116
52597 On ch=10 n=76 v=0
52605 On ch=10 n=38 v=0
52680 On ch=10 n=35 v=84
52680 On ch=10 n=38 v=100
52680 On ch=10 n=42 v=84
52680 On ch=10 n=51 v=84
52680 On ch=10 n=69 v=36
52680 On ch=10 n=76 v=100
52688 On ch=10 n=76 v=0
52695 On ch=10 n=38 v=0
52695 On ch=10 n=42 v=0
52695 On ch=10 n=35 v=0
52695 On ch=10 n=69 v=0
52695 On ch=10 n=51 v=0
52740 On ch=10 n=51 v=52
52755 On ch=10 n=51 v=0
52755 On ch=10 n=76 v=36
52763 On ch=10 n=76 v=0
52770 On ch=10 n=76 v=84
52777 On ch=10 n=76 v=0
52785 On ch=10 n=76 v=68
52792 On ch=10 n=76 v=0
52800 On ch=10 n=35 v=84
52800 On ch=10 n=38 v=116
52800 On ch=10 n=76 v=127
52815 On ch=10 n=76 v=0
52815 On ch=10 n=38 v=0
52815 On ch=10 n=35 v=0
52860 On ch=10 n=38 v=100
52860 On ch=10 n=51 v=84
52860 On ch=10 n=76 v=116
52875 On ch=10 n=76 v=0
52875 On ch=10 n=51 v=0
52875 On ch=10 n=38 v=0
52980 On ch=10 n=35 v=100
52980 On ch=10 n=38 v=100
52980 On ch=10 n=51 v=68
52980 On ch=10 n=76 v=127
52995 On ch=10 n=76 v=0
52995 On ch=10 n=35 v=0
52995 On ch=10 n=38 v=0
52995 On ch=10 n=51 v=0
53040 On ch=10 n=35 v=84
53040 On ch=10 n=38 v=68
53040 On ch=10 n=51 v=84
53040 On ch=10 n=76 v=100
53055 On ch=10 n=76 v=0
53055 On ch=10 n=35 v=0
53055 On ch=10 n=38 v=0
53055 On ch=10 n=51 v=0
53100 On ch=10 n=51 v=68
53115 On ch=10 n=51 v=0
53130 On ch=10 n=48 v=36
53130 On ch=10 n=50 v=84
53145 On ch=10 n=50 v=0
53145 On ch=10 n=48 v=0
53160 On ch=10 n=45 v=52
53160 On ch=10 n=47 v=100
53175 On ch=10 n=47 v=0
53175 On ch=10 n=45 v=0
53220 On ch=10 n=41 v=36
53220 On ch=10 n=43 v=84
53235 On ch=10 n=43 v=0
53235 On ch=10 n=41 v=0
53280 On ch=10 n=35 v=100
53280 On ch=10 n=43 v=52
53280 On ch=10 n=51 v=84
53295 On ch=10 n=51 v=0
53295 On ch=10 n=43 v=0
53295 On ch=10 n=35 v=0
53340 On ch=10 n=51 v=52
53355 On ch=10 n=51 v=0
53400 On ch=10 n=42 v=84
53400 On ch=10 n=51 v=68
53400 On ch=10 n=54 v=100
53400 On ch=10 n=69 v=52
53400 On ch=10 n=76 v=127
53415 On ch=10 n=76 v=0
53415 On ch=10 n=54 v=0
53415 On ch=10 n=42 v=0
53415 On ch=10 n=51 v=0
53415 On ch=10 n=69 v=0
53460 On ch=10 n=51 v=52
53475 On ch=10 n=51 v=0
53520 On ch=10 n=51 v=84
53535 On ch=10 n=51 v=0
53580 On ch=10 n=51 v=52
53595 On ch=10 n=51 v=0
53640 On ch=10 n=42 v=84
53640 On ch=10 n=51 v=68
53640 On ch=10 n=69 v=36
53640 On ch=10 n=76 v=116
53655 On ch=10 n=76 v=0
53655 On ch=10 n=42 v=0
53655 On ch=10 n=51 v=0
53655 On ch=10 n=69 v=0
53700 On ch=10 n=51 v=52
53715 On ch=10 n=51 v=0
53760 On ch=10 n=35 v=100
53760 On ch=10 n=51 v=84
53775 On ch=10 n=51 v=0
53775 On ch=10 n=35 v=0
53820 On ch=10 n=51 v=52
53835 On ch=10 n=51 v=0
53880 On ch=10 n=42 v=84
53880 On ch=10 n=51 v=68
53880 On ch=10 n=54 v=100
53880 On ch=10 n=69 v=52
53880 On ch=10 n=76 v=127
53895 On ch=10 n=76 v=0
53895 On ch=10 n=54 v=0
53895 On ch=10 n=42 v=0
53895 On ch=10 n=51 v=0
53895 On ch=10 n=69 v=0
53940 On ch=10 n=51 v=52
53955 On ch=10 n=51 v=0
54000 On ch=10 n=51 v=84
54015 On ch=10 n=51 v=0
54060 On ch=10 n=51 v=52
54075 On ch=10 n=51 v=0
54120 On ch=10 n=42 v=84
54120 On ch=10 n=51 v=68
54120 On ch=10 n=69 v=36
54120 On ch=10 n=76 v=116
54135 On ch=10 n=76 v=0
54135 On ch=10 n=42 v=0
54135 On ch=10 n=51 v=0
54135 On ch=10 n=69 v=0
54180 On ch=10 n=51 v=52
54195 On ch=10 n=51 v=0
54240 On ch=10 n=35 v=100
54240 On ch=10 n=51 v=84
54255 On ch=10 n=51 v=0
54255 On ch=10 n=35 v=0
54300 On ch=10 n=51 v=52
54315 On ch=10 n=51 v=0
54360 On ch=10 n=38 v=100
54360 On ch=10 n=42 v=84
54360 On ch=10 n=51 v=68
54360 On ch=10 n=54 v=100
54360 On ch=10 n=69 v=52
54360 On ch=10 n=76 v=127
54375 On ch=10 n=76 v=0
54375 On ch=10 n=42 v=0
54375 On ch=10 n=51 v=0
54375 On ch=10 n=38 v=0
54375 On ch=10 n=69 v=0
54375 On ch=10 n=54 v=0
54420 On ch=10 n=51 v=52
54435 On ch=10 n=51 v=0
54480 On ch=10 n=51 v=84
54495 On ch=10 n=51 v=0
54540 On ch=10 n=51 v=52
54555 On ch=10 n=51 v=0
54600 On ch=10 n=38 v=84
54600 On ch=10 n=42 v=84
54600 On ch=10 n=51 v=68
54600 On ch=10 n=69 v=36
54600 On ch=10 n=76 v=116
54615 On ch=10 n=76 v=0
54615 On ch=10 n=51 v=0
54615 On ch=10 n=38 v=0
54615 On ch=10 n=42 v=0
54615 On ch=10 n=69 v=0
54660 On ch=10 n=51 v=52
54675 On ch=10 n=51 v=0
54720 On ch=10 n=35 v=100
54720 On ch=10 n=51 v=84
54735 On ch=10 n=51 v=0
54735 On ch=10 n=35 v=0
54780 On ch=10 n=51 v=52
54795 On ch=10 n=51 v=0
54840 On ch=10 n=38 v=100
54840 On ch=10 n=42 v=84
54840 On ch=10 n=51 v=68
54840 On ch=10 n=54 v=100
54840 On ch=10 n=69 v=52
54840 On ch=10 n=76 v=127
54855 On ch=10 n=76 v=0
54855 On ch=10 n=42 v=0
54855 On ch=10 n=51 v=0
54855 On ch=10 n=38 v=0
54855 On ch=10 n=69 v=0
54855 On ch=10 n=54 v=0
54900 On ch=10 n=51 v=52
54915 On ch=10 n=51 v=0
54960 On ch=10 n=51 v=84
54975 On ch=10 n=51 v=0
55020 On ch=10 n=51 v=52
55035 On ch=10 n=51 v=0
55080 On ch=10 n=38 v=84
55080 On ch=10 n=42 v=84
55080 On ch=10 n=51 v=68
55080 On ch=10 n=69 v=36
55080 On ch=10 n=76 v=116
55095 On ch=10 n=76 v=0
55095 On ch=10 n=51 v=0
55095 On ch=10 n=38 v=0
55095 On ch=10 n=42 v=0
55095 On ch=10 n=69 v=0
55140 On ch=10 n=51 v=52
55155 On ch=10 n=51 v=0
55200 On ch=10 n=35 v=100
55200 On ch=10 n=51 v=84
55215 On ch=10 n=51 v=0
55215 On ch=10 n=35 v=0
55260 On ch=10 n=51 v=52
55275 On ch=10 n=51 v=0
55320 On ch=10 n=38 v=100
55320 On ch=10 n=42 v=84
55320 On ch=10 n=51 v=68
55320 On ch=10 n=54 v=100
55320 On ch=10 n=69 v=52
55320 On ch=10 n=76 v=127
55335 On ch=10 n=76 v=0
55335 On ch=10 n=42 v=0
55335 On ch=10 n=51 v=0
55335 On ch=10 n=38 v=0
55335 On ch=10 n=69 v=0
55335 On ch=10 n=54 v=0
55380 On ch=10 n=51 v=52
55395 On ch=10 n=51 v=0
55440 On ch=10 n=51 v=84
55455 On ch=10 n=51 v=0
55500 On ch=10 n=51 v=52
55515 On ch=10 n=51 v=0
55560 On ch=10 n=38 v=84
55560 On ch=10 n=42 v=84
55560 On ch=10 n=51 v=68
55560 On ch=10 n=69 v=36
55560 On ch=10 n=76 v=116
55575 On ch=10 n=76 v=0
55575 On ch=10 n=51 v=0
55575 On ch=10 n=38 v=0
55575 On ch=10 n=42 v=0
55575 On ch=10 n=69 v=0
55620 On ch=10 n=51 v=52
55635 On ch=10 n=51 v=0
55680 On ch=10 n=35 v=100
55680 On ch=10 n=51 v=84
55695 On ch=10 n=51 v=0
55695 On ch=10 n=35 v=0
55740 On ch=10 n=51 v=52
55755 On ch=10 n=51 v=0
55800 On ch=10 n=38 v=100
55800 On ch=10 n=42 v=84
55800 On ch=10 n=51 v=68
55800 On ch=10 n=54 v=100
55800 On ch=10 n=69 v=52
55800 On ch=10 n=76 v=127
55815 On ch=10 n=76 v=0
55815 On ch=10 n=42 v=0
55815 On ch=10 n=51 v=0
55815 On ch=10 n=38 v=0
55815 On ch=10 n=69 v=0
55815 On ch=10 n=54 v=0
55860 On ch=10 n=51 v=52
55875 On ch=10 n=51 v=0
55920 On ch=10 n=51 v=84
55935 On ch=10 n=51 v=0
55980 On ch=10 n=51 v=52
55995 On ch=10 n=51 v=0
56040 On ch=10 n=38 v=84
56040 On ch=10 n=42 v=84
56040 On ch=10 n=51 v=68
56040 On ch=10 n=69 v=36
56040 On ch=10 n=76 v=116
56055 On ch=10 n=76 v=0
56055 On ch=10 n=51 v=0
56055 On ch=10 n=38 v=0
56055 On ch=10 n=42 v=0
56055 On ch=10 n=69 v=0
56100 On ch=10 n=51 v=52
56115 On ch=10 n=51 v=0
56160 On ch=10 n=35 v=100
56160 On ch=10 n=51 v=84
56175 On ch=10 n=51 v=0
56175 On ch=10 n=35 v=0
56220 On ch=10 n=51 v=52
56235 On ch=10 n=51 v=0
56280 On ch=10 n=38 v=100
56280 On ch=10 n=42 v=84
56280 On ch=10 n=51 v=68
56280 On ch=10 n=54 v=100
56280 On ch=10 n=69 v=52
56280 On ch=10 n=76 v=127
56295 On ch=10 n=76 v=0
56295 On ch=10 n=42 v=0
56295 On ch=10 n=51 v=0
56295 On ch=10 n=38 v=0
56295 On ch=10 n=69 v=0
56295 On ch=10 n=54 v=0
56340 On ch=10 n=51 v=52
56355 On ch=10 n=51 v=0
56400 On ch=10 n=51 v=84
56415 On ch=10 n=51 v=0
56460 On ch=10 n=51 v=52
56475 On ch=10 n=51 v=0
56520 On ch=10 n=38 v=84
56520 On ch=10 n=42 v=84
56520 On ch=10 n=51 v=68
56520 On ch=10 n=69 v=36
56520 On ch=10 n=76 v=116
56535 On ch=10 n=76 v=0
56535 On ch=10 n=51 v=0
56535 On ch=10 n=38 v=0
56535 On ch=10 n=42 v=0
56535 On ch=10 n=69 v=0
56580 On ch=10 n=51 v=52
56595 On ch=10 n=51 v=0
56640 On ch=10 n=35 v=100
56640 On ch=10 n=51 v=84
56655 On ch=10 n=51 v=0
56655 On ch=10 n=35 v=0
56700 On ch=10 n=51 v=52
56715 On ch=10 n=51 v=0
56760 On ch=10 n=38 v=100
56760 On ch=10 n=42 v=84
56760 On ch=10 n=51 v=68
56760 On ch=10 n=54 v=100
56760 On ch=10 n=69 v=52
56760 On ch=10 n=76 v=127
56775 On ch=10 n=76 v=0
56775 On ch=10 n=42 v=0
56775 On ch=10 n=51 v=0
56775 On ch=10 n=38 v=0
56775 On ch=10 n=69 v=0
56775 On ch=10 n=54 v=0
56820 On ch=10 n=51 v=52
56835 On ch=10 n=51 v=0
56880 On ch=10 n=51 v=84
56895 On ch=10 n=51 v=0
56940 On ch=10 n=51 v=52
56955 On ch=10 n=51 v=0
57000 On ch=10 n=38 v=84
57000 On ch=10 n=42 v=84
57000 On ch=10 n=51 v=68
57000 On ch=10 n=69 v=36
57000 On ch=10 n=76 v=116
57015 On ch=10 n=76 v=0
57015 On ch=10 n=51 v=0
57015 On ch=10 n=38 v=0
57015 On ch=10 n=42 v=0
57015 On ch=10 n=69 v=0
57060 On ch=10 n=51 v=52
57075 On ch=10 n=51 v=0
57120 On ch=10 n=35 v=100
57120 On ch=10 n=51 v=84
57135 On ch=10 n=51 v=0
57135 On ch=10 n=35 v=0
57180 On ch=10 n=51 v=52
57195 On ch=10 n=51 v=0
57240 On ch=10 n=38 v=100
57240 On ch=10 n=42 v=84
57240 On ch=10 n=51 v=68
57240 On ch=10 n=54 v=100
57240 On ch=10 n=69 v=52
57240 On ch=10 n=76 v=127
57255 On ch=10 n=76 v=0
57255 On ch=10 n=42 v=0
57255 On ch=10 n=51 v=0
57255 On ch=10 n=38 v=0
57255 On ch=10 n=69 v=0
57255 On ch=10 n=54 v=0
57300 On ch=10 n=51 v=52
57315 On ch=10 n=51 v=0
57360 On ch=10 n=51 v=84
57375 On ch=10 n=51 v=0
57420 On ch=10 n=51 v=52
57435 On ch=10 n=51 v=0
57480 On ch=10 n=38 v=84
57480 On ch=10 n=42 v=84
57480 On ch=10 n=51 v=68
57480 On ch=10 n=69 v=36
57480 On ch=10 n=76 v=116
57495 On ch=10 n=76 v=0
57495 On ch=10 n=51 v=0
57495 On ch=10 n=38 v=0
57495 On ch=10 n=42 v=0
57495 On ch=10 n=69 v=0
57540 On ch=10 n=51 v=52
57555 On ch=10 n=51 v=0
57600 On ch=10 n=35 v=100
57600 On ch=10 n=51 v=84
57615 On ch=10 n=51 v=0
57615 On ch=10 n=35 v=0
57660 On ch=10 n=51 v=52
57675 On ch=10 n=51 v=0
57720 On ch=10 n=38 v=100
57720 On ch=10 n=42 v=84
57720 On ch=10 n=51 v=68
57720 On ch=10 n=54 v=100
57720 On ch=10 n=69 v=52
57720 On ch=10 n=76 v=127
57735 On ch=10 n=76 v=0
57735 On ch=10 n=42 v=0
57735 On ch=10 n=51 v=0
57735 On ch=10 n=38 v=0
57735 On ch=10 n=69 v=0
57735 On ch=10 n=54 v=0
57780 On ch=10 n=51 v=52
57795 On ch=10 n=51 v=0
57840 On ch=10 n=51 v=84
57855 On ch=10 n=51 v=0
57900 On ch=10 n=51 v=52
57915 On ch=10 n=51 v=0
57960 On ch=10 n=38 v=84
57960 On ch=10 n=42 v=84
57960 On ch=10 n=51 v=68
57960 On ch=10 n=69 v=36
57960 On ch=10 n=76 v=116
57975 On ch=10 n=76 v=0
57975 On ch=10 n=51 v=0
57975 On ch=10 n=38 v=0
57975 On ch=10 n=42 v=0
57975 On ch=10 n=69 v=0
58020 On ch=10 n=51 v=52
58035 On ch=10 n=51 v=0
58080 On ch=10 n=35 v=100
58080 On ch=10 n=76 v=100
58095 On ch=10 n=76 v=0
58095 On ch=10 n=35 v=0
58095 Meta TrkEnd
TrkEnd
MTrk
0 Meta 0x21 00
0 Meta TrkName "Tempo   "
0 Meta TrkEnd
TrkEnd
MTrk
0 Meta 0x21 00
0 Meta TrkName "DATA    "
0 PrCh ch=4 p=122
0 Par ch=4 c=7 v=127
0 Par ch=4 c=10 v=35
0 Meta Text "Riders On The Storm"
9 Meta Text " (C) 1992  MASTER SEQUENCE"
208 Par ch=1 c=121 v=0
210 Par ch=1 c=0 v=2
216 Par ch=1 c=91 v=117
218 Par ch=1 c=93 v=108
238 Par ch=2 c=121 v=0
240 Par ch=2 c=0 v=0
243 PrCh ch=2 p=35
244 Par ch=2 c=7 v=120
245 Par ch=2 c=10 v=63
246 Par ch=2 c=91 v=20
248 Par ch=2 c=93 v=0
268 Par ch=3 c=121 v=0
270 Par ch=3 c=0 v=0
273 PrCh ch=3 p=0
274 Par ch=3 c=7 v=113
275 Par ch=3 c=10 v=80
276 Par ch=3 c=91 v=63
278 Par ch=3 c=93 v=60
313 Par ch=4 c=121 v=0
315 Par ch=4 c=0 v=2
318 PrCh ch=4 p=122
319 Par ch=4 c=7 v=121
320 Par ch=4 c=10 v=106
321 Par ch=4 c=91 v=91
323 Par ch=4 c=93 v=127
343 Par ch=5 c=121 v=0
345 Par ch=5 c=0 v=1
348 PrCh ch=5 p=122
349 Par ch=5 c=7 v=120
350 Par ch=5 c=10 v=115
351 Par ch=5 c=91 v=114
353 Par ch=5 c=93 v=107
388 Par ch=6 c=121 v=0
390 Par ch=6 c=0 v=1
393 PrCh ch=6 p=122
394 Par ch=6 c=7 v=100
395 Par ch=6 c=10 v=22
396 Par ch=6 c=91 v=70
398 Par ch=6 c=93 v=50
448 Par ch=10 c=121 v=0
450 Par ch=10 c=0 v=0
453 PrCh ch=10 p=0
454 Par ch=10 c=7 v=100
455 Par ch=10 c=10 v=63
456 Par ch=10 c=91 v=64
458 Par ch=10 c=93 v=0
458 Meta TrkEnd
TrkEnd
