MFile 1 15 480
MTrk
0 SeqSpec 05 0f 1c 32 30 30 34 2e 30 35 2e 30 33
0 SeqSpec 05 0f 09 00 48
0 SeqSpec 05 0f 06 47 65 6e 65 72 61 6c 20 4d 49 44 49
0 SeqSpec 05 0f 12 00 00 7f 7f 00
0 TimeSig 4/4 24 8
0 Meta SeqName "Dragostea Din Tei (c)HitBit;Balan"
0 Meta InstrName "Canvas"
0 KeySig 2 minor
0 SMPTE 32 0 0 0 0
0 Meta Lyric "Edited using the HitBit PROcessor+"
0 Meta Lyric "\r"
0 Meta Lyric "\n"
0 Meta Lyric "Dragostea Din Tei"
0 Meta Lyric "\r"
0 Meta Lyric "\n"
0 Tempo 461538
0 SysEx f0 7e 7f 09 01 f7
10 SysEx f0 41 10 42 12 40 00 7f 00 41 f7
20 SysEx f0 43 11 4c 00 00 7e 00 f7
4583 Meta Lyric "Ma-ia-hii, ma-ia-huu"
4583 Meta Lyric "\r"
8369 Meta Lyric "Ma-ia-hoo, ma-ia-ha-ha"
8369 Meta Lyric "\r"
12261 Meta Lyric "Ma-ia-hii, ma-ia-huu"
12261 Meta Lyric "\r"
16064 Meta Lyric "Ma-ia-hoo, ma-ia-ha-ha"
16064 Meta Lyric "\r"
16064 Meta Lyric "\n"
19939 Meta Lyric "Ma-ia-hii, ma-ia-huu"
19939 Meta Lyric "\r"
23730 Meta Lyric "Ma-ia-hoo, ma-ia-ha-ha"
23730 Meta Lyric "\r"
27593 Meta Lyric "Ma-ia-hii, ma-ia-huu"
27593 Meta Lyric "\r"
31418 Meta Lyric "Ma-ia-hoo, ma-ia-ha-ha"
31418 Meta Lyric "\r"
31418 Meta Lyric "\n"
37954 Meta Lyric "Alo, salut"
37954 Meta Lyric "\r"
41522 Meta Lyric "Sunt eu, un haiduc"
41522 Meta Lyric "\r"
45275 Meta Lyric "Si te rog, iubirea mea"
45275 Meta Lyric "\r"
49372 Meta Lyric "Primeste fericirea"
49372 Meta Lyric "\r"
49372 Meta Lyric "\n"
53088 Meta Lyric "Alo, alo"
53088 Meta Lyric "\r"
56851 Meta Lyric "Sunt eu picasso"
56851 Meta Lyric "\r"
60122 Meta Lyric "Ti-am dat beep, si sunt voinic"
60122 Meta Lyric "\r"
64191 Meta Lyric "Dar sa stii nu-ti cer nimic"
64191 Meta Lyric "\r"
64191 Meta Lyric "\n"
67879 Meta Lyric "Vrei sa pleci dar"
67879 Meta Lyric "\r"
69844 Meta Lyric "Nu ma, nu ma iei"
69844 Meta Lyric "\r"
71781 Meta Lyric "Nu ma, nu ma iei"
71781 Meta Lyric "\r"
73723 Meta Lyric "Nu ma, nu ma, nu ma iei"
73723 Meta Lyric "\r"
75625 Meta Lyric "Chipul tau si"
75625 Meta Lyric "\r"
77580 Meta Lyric "Dragostea din tei"
77580 Meta Lyric "\r"
79423 Meta Lyric "Mi-amintesc de ochii tai"
79423 Meta Lyric "\r"
79423 Meta Lyric "\n"
83269 Meta Lyric "Vrei sa pleci dar"
83269 Meta Lyric "\r"
85189 Meta Lyric "Nu ma, nu ma iei"
85189 Meta Lyric "\r"
87139 Meta Lyric "Nu ma, nu ma iei"
87139 Meta Lyric "\r"
88952 Meta Lyric "Nu ma, nu ma, nu ma iei"
88952 Meta Lyric "\r"
90935 Meta Lyric "Chipul tau si"
90935 Meta Lyric "\r"
92843 Meta Lyric "Dragostea din tei"
92843 Meta Lyric "\r"
94743 Meta Lyric "Mi-amintesc de ochii tai"
94743 Meta Lyric "\r"
94743 Meta Lyric "\n"
99238 Meta Lyric "Te sun, sa-ti spun"
99238 Meta Lyric "\r"
103002 Meta Lyric "Ce simt acum"
103002 Meta Lyric "\r"
106883 Meta Lyric "Alo, iubirea mea"
106883 Meta Lyric "\r"
110611 Meta Lyric "Sunt eu, fericirea"
110611 Meta Lyric "\r"
110611 Meta Lyric "\n"
114503 Meta Lyric "Alo, alo"
114503 Meta Lyric "\r"
118076 Meta Lyric "Sunt iarasi eu, picasso"
118076 Meta Lyric "\r"
121598 Meta Lyric "Ti-am dat beep, si sunt voinic"
121598 Meta Lyric "\r"
125497 Meta Lyric "Dar sa stii nu-ti cer nimic"
125497 Meta Lyric "\r"
125497 Meta Lyric "\n"
129327 Meta Lyric "Vrei sa pleci dar"
129327 Meta Lyric "\r"
131197 Meta Lyric "Nu ma, nu ma iei"
131197 Meta Lyric "\r"
133186 Meta Lyric "Nu ma, nu ma iei"
133186 Meta Lyric "\r"
135103 Meta Lyric "Nu ma, nu ma, nu ma iei"
135103 Meta Lyric "\r"
137000 Meta Lyric "Chipul tau si"
137000 Meta Lyric "\r"
138947 Meta Lyric "Dragostea din tei"
138947 Meta Lyric "\r"
140890 Meta Lyric "Mi-amintesc de ochii tai"
140890 Meta Lyric "\r"
140890 Meta Lyric "\n"
144673 Meta Lyric "Vrei sa pleci dar"
144673 Meta Lyric "\r"
146622 Meta Lyric "Nu ma, nu ma iei"
146622 Meta Lyric "\r"
148529 Meta Lyric "Nu ma, nu ma iei"
148529 Meta Lyric "\r"
150432 Meta Lyric "Nu ma, nu ma, nu ma iei"
150432 Meta Lyric "\r"
152451 Meta Lyric "Chipul tau si"
152451 Meta Lyric "\r"
154348 Meta Lyric "Dragostea din tei"
154348 Meta Lyric "\r"
156228 Meta Lyric "Mi-amintesc de ochii tai"
156228 Meta Lyric "\r"
156228 Meta Lyric "\n"
160001 Meta Lyric "Ma-ia-hii, ma-ia-huu"
160001 Meta Lyric "\r"
163810 Meta Lyric "Ma-ia-hoo, ma-ia-ha-ha"
163810 Meta Lyric "\r"
167727 Meta Lyric "Ma-ia-hii, ma-ia-huu"
167727 Meta Lyric "\r"
171589 Meta Lyric "Ma-ia-hoo, ma-ia-ha-ha"
171589 Meta Lyric "\r"
171589 Meta Lyric "\n"
175448 Meta Lyric "Ma-ia-hii, ma-ia-huu"
175448 Meta Lyric "\r"
179307 Meta Lyric "Ma-ia-hoo, ma-ia-ha-ha"
179307 Meta Lyric "\r"
183127 Meta Lyric "Ma-ia-hii, ma-ia-huu"
183127 Meta Lyric "\r"
186894 Meta Lyric "Ma-ia-hoo, ma-ia-ha-ha"
186894 Meta Lyric "\r"
186894 Meta Lyric "\n"
190768 Meta Lyric "Vrei sa pleci dar"
190768 Meta Lyric "\r"
192711 Meta Lyric "Nu ma, nu ma iei"
192711 Meta Lyric "\r"
194682 Meta Lyric "Nu ma, nu ma iei"
194682 Meta Lyric "\r"
196665 Meta Lyric "Nu ma, nu ma, nu ma iei"
196665 Meta Lyric "\r"
198484 Meta Lyric "Chipul tau si"
198484 Meta Lyric "\r"
200384 Meta Lyric "Dragostea din tei"
200384 Meta Lyric "\r"
202348 Meta Lyric "Mi-amintesc de ochii tai"
202348 Meta Lyric "\r"
202348 Meta Lyric "\n"
206179 Meta Lyric "Vrei sa pleci dar"
206179 Meta Lyric "\r"
208103 Meta Lyric "Nu ma, nu ma iei"
208103 Meta Lyric "\r"
210024 Meta Lyric "Nu ma, nu ma iei"
210024 Meta Lyric "\r"
211893 Meta Lyric "Nu ma, nu ma, nu ma iei"
211893 Meta Lyric "\r"
213870 Meta Lyric "Chipul tau si"
213870 Meta Lyric "\r"
215768 Meta Lyric "Dragostea din tei"
215768 Meta Lyric "\r"
217693 Meta Lyric "Mi-amintesc de ochii tai"
217693 Meta Lyric "\r"
222709 SysEx f0 7e 7f 09 02 f7
222709 Meta TrkEnd
TrkEnd
MTrk
0 SeqSpec 05 0f 09 40 48
0 SeqSpec 05 0f 06 47 65 6e 65 72 61 6c 20 4d 49 44 49
0 Meta TrkName "Track 2"
0 Meta 0x20 00
480 Par ch=1 c=0 v=0
500 PrCh ch=1 p=65
510 Par ch=1 c=7 v=122
520 Par ch=1 c=10 v=62
530 Par ch=1 c=11 v=127
540 Par ch=1 c=91 v=86
550 Par ch=1 c=93 v=10
560 Par ch=1 c=64 v=0
570 Par ch=1 c=1 v=0
580 Pb ch=1 v=8192
4784 Pb ch=1 v=758
4795 On ch=1 n=62 v=99
4812 Pb ch=1 v=2048
4831 Pb ch=1 v=4247
4850 Pb ch=1 v=7812
4868 Pb ch=1 v=8192
5028 Off ch=1 n=62 v=64
5035 On ch=1 n=61 v=94
5268 Off ch=1 n=61 v=64
5275 On ch=1 n=62 v=99
5508 Off ch=1 n=62 v=64
5515 On ch=1 n=71 v=95
5915 Par ch=1 c=1 v=4
5952 Par ch=1 c=1 v=11
5989 Par ch=1 c=1 v=17
6046 Par ch=1 c=1 v=32
6060 Off ch=1 n=71 v=64
6101 Par ch=1 c=1 v=0
6695 Pb ch=1 v=1289
6715 On ch=1 n=62 v=97
6733 Pb ch=1 v=2578
6751 Pb ch=1 v=4626
6770 Pb ch=1 v=7205
6789 Pb ch=1 v=8192
6948 Off ch=1 n=62 v=64
6955 On ch=1 n=61 v=99
7188 Off ch=1 n=61 v=64
7195 On ch=1 n=62 v=99
7428 Off ch=1 n=62 v=64
7435 On ch=1 n=69 v=99
7854 Par ch=1 c=1 v=4
7910 Par ch=1 c=1 v=16
7962 Off ch=1 n=69 v=64
7966 Par ch=1 c=1 v=29
8021 Par ch=1 c=1 v=0
8615 Pb ch=1 v=1289
8635 On ch=1 n=62 v=97
8653 Pb ch=1 v=2578
8671 Pb ch=1 v=4626
8690 Pb ch=1 v=7205
8709 Pb ch=1 v=8192
8868 Off ch=1 n=62 v=64
8875 On ch=1 n=61 v=99
9108 Off ch=1 n=61 v=64
9115 On ch=1 n=62 v=99
9348 Off ch=1 n=62 v=64
9355 On ch=1 n=69 v=99
9774 Par ch=1 c=1 v=4
9830 Par ch=1 c=1 v=16
9882 Off ch=1 n=69 v=64
9886 Par ch=1 c=1 v=29
9941 Par ch=1 c=1 v=0
10534 Pb ch=1 v=1635
10555 On ch=1 n=62 v=100
10602 Pb ch=1 v=8192
10788 Off ch=1 n=62 v=64
10795 On ch=1 n=61 v=100
11001 Off ch=1 n=61 v=64
11035 On ch=1 n=62 v=106
11268 Off ch=1 n=62 v=64
11275 On ch=1 n=74 v=117
11476 Off ch=1 n=74 v=64
11755 On ch=1 n=71 v=100
11965 Off ch=1 n=71 v=64
12464 Pb ch=1 v=758
12475 On ch=1 n=62 v=99
12492 Pb ch=1 v=2048
12511 Pb ch=1 v=4247
12530 Pb ch=1 v=7812
12548 Pb ch=1 v=8192
12708 Off ch=1 n=62 v=64
12715 On ch=1 n=61 v=94
12948 Off ch=1 n=61 v=64
12955 On ch=1 n=62 v=99
13188 Off ch=1 n=62 v=64
13195 On ch=1 n=71 v=95
13595 Par ch=1 c=1 v=4
13632 Par ch=1 c=1 v=11
13669 Par ch=1 c=1 v=17
13726 Par ch=1 c=1 v=32
13740 Off ch=1 n=71 v=64
13781 Par ch=1 c=1 v=0
14375 Pb ch=1 v=1289
14395 On ch=1 n=62 v=97
14413 Pb ch=1 v=2578
14431 Pb ch=1 v=4626
14450 Pb ch=1 v=7205
14469 Pb ch=1 v=8192
14628 Off ch=1 n=62 v=64
14635 On ch=1 n=61 v=99
14868 Off ch=1 n=61 v=64
14875 On ch=1 n=62 v=99
15108 Off ch=1 n=62 v=64
15115 On ch=1 n=69 v=99
15534 Par ch=1 c=1 v=4
15590 Par ch=1 c=1 v=16
15642 Off ch=1 n=69 v=64
15646 Par ch=1 c=1 v=29
15701 Par ch=1 c=1 v=0
16295 Pb ch=1 v=1289
16315 On ch=1 n=62 v=97
16333 Pb ch=1 v=2578
16351 Pb ch=1 v=4626
16370 Pb ch=1 v=7205
16389 Pb ch=1 v=8192
16548 Off ch=1 n=62 v=64
16555 On ch=1 n=61 v=99
16788 Off ch=1 n=61 v=64
16795 On ch=1 n=62 v=99
17028 Off ch=1 n=62 v=64
17035 On ch=1 n=69 v=99
17454 Par ch=1 c=1 v=4
17510 Par ch=1 c=1 v=16
17562 Off ch=1 n=69 v=64
17566 Par ch=1 c=1 v=29
17621 Par ch=1 c=1 v=0
18214 Pb ch=1 v=1635
18235 On ch=1 n=62 v=100
18282 Pb ch=1 v=8192
18468 Off ch=1 n=62 v=64
18475 On ch=1 n=61 v=100
18681 Off ch=1 n=61 v=64
18715 On ch=1 n=62 v=106
18948 Off ch=1 n=62 v=64
18955 On ch=1 n=74 v=117
19156 Off ch=1 n=74 v=64
19435 On ch=1 n=71 v=100
19645 Off ch=1 n=71 v=64
20144 Pb ch=1 v=758
20155 On ch=1 n=62 v=99
20172 Pb ch=1 v=2048
20191 Pb ch=1 v=4247
20210 Pb ch=1 v=7812
20228 Pb ch=1 v=8192
20388 Off ch=1 n=62 v=64
20395 On ch=1 n=61 v=94
20628 Off ch=1 n=61 v=64
20635 On ch=1 n=62 v=99
20868 Off ch=1 n=62 v=64
20875 On ch=1 n=71 v=95
21275 Par ch=1 c=1 v=4
21312 Par ch=1 c=1 v=11
21349 Par ch=1 c=1 v=17
21406 Par ch=1 c=1 v=32
21420 Off ch=1 n=71 v=64
21461 Par ch=1 c=1 v=0
22055 Pb ch=1 v=1289
22075 On ch=1 n=62 v=97
22093 Pb ch=1 v=2578
22111 Pb ch=1 v=4626
22130 Pb ch=1 v=7205
22149 Pb ch=1 v=8192
22308 Off ch=1 n=62 v=64
22315 On ch=1 n=61 v=99
22548 Off ch=1 n=61 v=64
22555 On ch=1 n=62 v=99
22788 Off ch=1 n=62 v=64
22795 On ch=1 n=69 v=99
23214 Par ch=1 c=1 v=4
23270 Par ch=1 c=1 v=16
23322 Off ch=1 n=69 v=64
23326 Par ch=1 c=1 v=29
23381 Par ch=1 c=1 v=0
23975 Pb ch=1 v=1289
23995 On ch=1 n=62 v=97
24013 Pb ch=1 v=2578
24031 Pb ch=1 v=4626
24050 Pb ch=1 v=7205
24069 Pb ch=1 v=8192
24228 Off ch=1 n=62 v=64
24235 On ch=1 n=61 v=99
24468 Off ch=1 n=61 v=64
24475 On ch=1 n=62 v=99
24708 Off ch=1 n=62 v=64
24715 On ch=1 n=69 v=99
25134 Par ch=1 c=1 v=4
25190 Par ch=1 c=1 v=16
25242 Off ch=1 n=69 v=64
25246 Par ch=1 c=1 v=29
25301 Par ch=1 c=1 v=0
25894 Pb ch=1 v=1635
25915 On ch=1 n=62 v=100
25962 Pb ch=1 v=8192
26148 Off ch=1 n=62 v=64
26155 On ch=1 n=61 v=100
26361 Off ch=1 n=61 v=64
26395 On ch=1 n=62 v=106
26628 Off ch=1 n=62 v=64
26635 On ch=1 n=74 v=117
26836 Off ch=1 n=74 v=64
27115 On ch=1 n=71 v=100
27325 Off ch=1 n=71 v=64
27824 Pb ch=1 v=758
27835 On ch=1 n=62 v=99
27852 Pb ch=1 v=2048
27871 Pb ch=1 v=4247
27890 Pb ch=1 v=7812
27908 Pb ch=1 v=8192
28068 Off ch=1 n=62 v=64
28075 On ch=1 n=61 v=94
28308 Off ch=1 n=61 v=64
28315 On ch=1 n=62 v=99
28548 Off ch=1 n=62 v=64
28555 On ch=1 n=71 v=95
28955 Par ch=1 c=1 v=4
28992 Par ch=1 c=1 v=11
29029 Par ch=1 c=1 v=17
29086 Par ch=1 c=1 v=32
29100 Off ch=1 n=71 v=64
29141 Par ch=1 c=1 v=0
29735 Pb ch=1 v=1289
29755 On ch=1 n=62 v=97
29773 Pb ch=1 v=2578
29791 Pb ch=1 v=4626
29810 Pb ch=1 v=7205
29829 Pb ch=1 v=8192
29988 Off ch=1 n=62 v=64
29995 On ch=1 n=61 v=99
30228 Off ch=1 n=61 v=64
30235 On ch=1 n=62 v=99
30468 Off ch=1 n=62 v=64
30475 On ch=1 n=69 v=99
30894 Par ch=1 c=1 v=4
30950 Par ch=1 c=1 v=16
31002 Off ch=1 n=69 v=64
31006 Par ch=1 c=1 v=29
31061 Par ch=1 c=1 v=0
31655 Pb ch=1 v=1289
31675 On ch=1 n=62 v=97
31693 Pb ch=1 v=2578
31711 Pb ch=1 v=4626
31730 Pb ch=1 v=7205
31749 Pb ch=1 v=8192
31908 Off ch=1 n=62 v=64
31915 On ch=1 n=61 v=99
32148 Off ch=1 n=61 v=64
32155 On ch=1 n=62 v=99
32388 Off ch=1 n=62 v=64
32395 On ch=1 n=69 v=99
32814 Par ch=1 c=1 v=4
32870 Par ch=1 c=1 v=16
32922 Off ch=1 n=69 v=64
32926 Par ch=1 c=1 v=29
32981 Par ch=1 c=1 v=0
33574 Pb ch=1 v=1635
33595 On ch=1 n=62 v=100
33642 Pb ch=1 v=8192
33828 Off ch=1 n=62 v=64
33835 On ch=1 n=61 v=100
34041 Off ch=1 n=61 v=64
34075 On ch=1 n=62 v=106
34308 Off ch=1 n=62 v=64
34315 On ch=1 n=74 v=117
34516 Off ch=1 n=74 v=64
34795 On ch=1 n=71 v=100
35005 Off ch=1 n=71 v=64
53255 Pb ch=1 v=3868
53275 On ch=1 n=57 v=102
53292 Pb ch=1 v=7130
53311 Pb ch=1 v=8192
53508 Off ch=1 n=57 v=64
53515 On ch=1 n=59 v=97
53923 Off ch=1 n=59 v=64
54933 Pb ch=1 v=910
54955 On ch=1 n=62 v=105
54971 Pb ch=1 v=2199
54990 Pb ch=1 v=4551
55007 Pb ch=1 v=8192
55188 Off ch=1 n=62 v=64
55195 On ch=1 n=59 v=99
55428 Off ch=1 n=59 v=64
55435 On ch=1 n=57 v=100
55868 Par ch=1 c=1 v=2
55905 Par ch=1 c=1 v=12
55936 Off ch=1 n=57 v=64
55943 Par ch=1 c=1 v=0
57104 Pb ch=1 v=1441
57115 On ch=1 n=66 v=91
57142 Pb ch=1 v=8192
57281 Off ch=1 n=66 v=64
57355 On ch=1 n=64 v=102
57828 Off ch=1 n=64 v=64
57835 On ch=1 n=61 v=99
58431 Par ch=1 c=1 v=1
58468 Par ch=1 c=1 v=7
58524 Par ch=1 c=1 v=21
58549 Off ch=1 n=61 v=64
58561 Par ch=1 c=1 v=0
58795 On ch=1 n=61 v=91
58862 Off ch=1 n=61 v=64
59035 On ch=1 n=61 v=103
59129 Off ch=1 n=61 v=64
59258 Pb ch=1 v=379
59275 On ch=1 n=62 v=103
59277 Pb ch=1 v=606
59296 Pb ch=1 v=2048
59313 Pb ch=1 v=6144
59332 Pb ch=1 v=8192
59748 Off ch=1 n=62 v=64
59755 On ch=1 n=66 v=90
59901 Off ch=1 n=66 v=64
60235 On ch=1 n=66 v=105
60708 Off ch=1 n=66 v=64
60715 On ch=1 n=62 v=96
61188 Off ch=1 n=62 v=64
61195 On ch=1 n=59 v=93
61520 Off ch=1 n=59 v=64
62617 Pb ch=1 v=151
62635 On ch=1 n=62 v=99
62636 Pb ch=1 v=455
62655 Pb ch=1 v=2048
62674 Pb ch=1 v=4930
62692 Pb ch=1 v=8192
62868 Off ch=1 n=62 v=64
62875 On ch=1 n=61 v=91
63108 Off ch=1 n=61 v=64
63115 On ch=1 n=59 v=92
63348 Off ch=1 n=59 v=64
63355 On ch=1 n=57 v=92
63738 Par ch=1 c=1 v=7
63758 Off ch=1 n=57 v=64
63776 Par ch=1 c=1 v=12
63814 Par ch=1 c=1 v=0
64315 On ch=1 n=57 v=103
64479 Off ch=1 n=57 v=64
64555 On ch=1 n=57 v=100
64692 Off ch=1 n=57 v=64
65003 Pb ch=1 v=0
65035 On ch=1 n=64 v=96
65041 Pb ch=1 v=910
65060 Pb ch=1 v=5385
65078 Pb ch=1 v=8192
65748 Off ch=1 n=64 v=64
65755 On ch=1 n=61 v=95
65998 Off ch=1 n=61 v=64
66219 Pb ch=1 v=0
66235 On ch=1 n=64 v=103
66257 Pb ch=1 v=910
66276 Pb ch=1 v=2730
66293 Pb ch=1 v=6750
66312 Pb ch=1 v=8192
66708 Off ch=1 n=64 v=64
66715 On ch=1 n=61 v=99
66939 Pb ch=1 v=4171
66948 Off ch=1 n=61 v=64
66955 On ch=1 n=62 v=105
66965 Pb ch=1 v=7054
66984 Pb ch=1 v=8192
67188 Off ch=1 n=62 v=64
67195 On ch=1 n=59 v=82
67732 Off ch=1 n=59 v=64
68139 Pb ch=1 v=2048
68155 On ch=1 n=62 v=105
68190 Pb ch=1 v=2578
68208 Pb ch=1 v=3868
68227 Pb ch=1 v=7205
68245 Pb ch=1 v=8192
68628 Off ch=1 n=62 v=64
68635 On ch=1 n=61 v=99
68868 Off ch=1 n=61 v=64
68875 On ch=1 n=62 v=105
69587 Off ch=1 n=62 v=64
69595 On ch=1 n=59 v=105
69720 Par ch=1 c=1 v=6
69758 Par ch=1 c=1 v=0
69831 Off ch=1 n=59 v=64
70062 Pb ch=1 v=3489
70075 On ch=1 n=59 v=103
70110 Pb ch=1 v=4854
70128 Pb ch=1 v=8192
70308 Off ch=1 n=59 v=64
70315 On ch=1 n=61 v=98
70548 Off ch=1 n=61 v=64
70555 On ch=1 n=59 v=105
70788 Off ch=1 n=59 v=64
70795 On ch=1 n=57 v=104
71028 Off ch=1 n=57 v=64
71035 On ch=1 n=54 v=99
71436 Par ch=1 c=1 v=2
71493 Par ch=1 c=1 v=9
71530 Par ch=1 c=1 v=16
71567 Par ch=1 c=1 v=0
71607 Off ch=1 n=54 v=64
71974 Pb ch=1 v=455
71995 On ch=1 n=62 v=113
72011 Pb ch=1 v=834
72029 Pb ch=1 v=2199
72048 Pb ch=1 v=5082
72067 Pb ch=1 v=8192
72228 Off ch=1 n=62 v=64
72235 On ch=1 n=66 v=106
72468 Off ch=1 n=66 v=64
72475 On ch=1 n=64 v=105
72708 Off ch=1 n=64 v=64
72715 On ch=1 n=62 v=113
72948 Off ch=1 n=62 v=64
72955 On ch=1 n=57 v=97
73369 Par ch=1 c=1 v=4
73424 Par ch=1 c=1 v=0
73496 Off ch=1 n=57 v=64
73908 Pb ch=1 v=151
73915 On ch=1 n=57 v=105
73927 Pb ch=1 v=1668
73946 Pb ch=1 v=3413
73963 Pb ch=1 v=5461
73982 Pb ch=1 v=8192
74148 Off ch=1 n=57 v=64
74155 On ch=1 n=64 v=103
74387 Off ch=1 n=64 v=64
74395 On ch=1 n=62 v=103
74628 Off ch=1 n=62 v=64
74635 On ch=1 n=61 v=110
74868 Off ch=1 n=61 v=64
74875 On ch=1 n=62 v=99
75108 Off ch=1 n=62 v=64
75115 On ch=1 n=61 v=99
75348 Off ch=1 n=61 v=64
75355 On ch=1 n=59 v=100
75645 Par ch=1 c=1 v=2
75682 Par ch=1 c=1 v=14
75685 Off ch=1 n=59 v=64
75719 Par ch=1 c=1 v=0
75819 Pb ch=1 v=2048
75835 On ch=1 n=62 v=105
75870 Pb ch=1 v=2578
75888 Pb ch=1 v=3868
75907 Pb ch=1 v=7205
75925 Pb ch=1 v=8192
76308 Off ch=1 n=62 v=64
76315 On ch=1 n=61 v=99
76548 Off ch=1 n=61 v=64
76555 On ch=1 n=62 v=105
77267 Off ch=1 n=62 v=64
77275 On ch=1 n=59 v=105
77400 Par ch=1 c=1 v=6
77438 Par ch=1 c=1 v=0
77511 Off ch=1 n=59 v=64
77742 Pb ch=1 v=3489
77755 On ch=1 n=59 v=103
77790 Pb ch=1 v=4854
77808 Pb ch=1 v=8192
77988 Off ch=1 n=59 v=64
77995 On ch=1 n=61 v=98
78228 Off ch=1 n=61 v=64
78235 On ch=1 n=59 v=105
78468 Off ch=1 n=59 v=64
78475 On ch=1 n=57 v=104
78708 Off ch=1 n=57 v=64
78715 On ch=1 n=54 v=99
79116 Par ch=1 c=1 v=2
79173 Par ch=1 c=1 v=9
79210 Par ch=1 c=1 v=16
79247 Par ch=1 c=1 v=0
79287 Off ch=1 n=54 v=64
79655 Pb ch=1 v=1099
79675 On ch=1 n=62 v=99
79688 Pb ch=1 v=1668
79707 Pb ch=1 v=5233
79726 Pb ch=1 v=8192
80148 Off ch=1 n=62 v=64
80155 On ch=1 n=66 v=97
80388 Off ch=1 n=66 v=64
80395 On ch=1 n=64 v=100
81104 Off ch=1 n=64 v=64
81115 On ch=1 n=61 v=99
81329 Pb ch=1 v=986
81348 Off ch=1 n=61 v=64
81355 On ch=1 n=64 v=105
81404 Pb ch=1 v=8192
82068 Off ch=1 n=64 v=64
82075 On ch=1 n=61 v=103
82291 Off ch=1 n=61 v=64
82300 Pb ch=1 v=2275
82315 On ch=1 n=62 v=99
82319 Pb ch=1 v=75
82355 Pb ch=1 v=1668
82375 Pb ch=1 v=4551
82392 Pb ch=1 v=8192
82788 Off ch=1 n=62 v=64
82795 On ch=1 n=59 v=93
83085 Par ch=1 c=1 v=1
83123 Par ch=1 c=1 v=11
83160 Par ch=1 c=1 v=17
83216 Par ch=1 c=1 v=0
83232 Off ch=1 n=59 v=64
83499 Pb ch=1 v=2048
83515 On ch=1 n=62 v=105
83550 Pb ch=1 v=2578
83568 Pb ch=1 v=3868
83587 Pb ch=1 v=7205
83605 Pb ch=1 v=8192
83988 Off ch=1 n=62 v=64
83995 On ch=1 n=61 v=99
84228 Off ch=1 n=61 v=64
84235 On ch=1 n=62 v=105
84947 Off ch=1 n=62 v=64
84955 On ch=1 n=59 v=105
85080 Par ch=1 c=1 v=6
85118 Par ch=1 c=1 v=0
85191 Off ch=1 n=59 v=64
85422 Pb ch=1 v=3489
85435 On ch=1 n=59 v=103
85470 Pb ch=1 v=4854
85488 Pb ch=1 v=8192
85668 Off ch=1 n=59 v=64
85675 On ch=1 n=61 v=98
85908 Off ch=1 n=61 v=64
85915 On ch=1 n=59 v=105
86148 Off ch=1 n=59 v=64
86155 On ch=1 n=57 v=104
86388 Off ch=1 n=57 v=64
86395 On ch=1 n=54 v=99
86796 Par ch=1 c=1 v=2
86853 Par ch=1 c=1 v=9
86890 Par ch=1 c=1 v=16
86927 Par ch=1 c=1 v=0
86967 Off ch=1 n=54 v=64
87334 Pb ch=1 v=455
87355 On ch=1 n=62 v=113
87371 Pb ch=1 v=834
87389 Pb ch=1 v=2199
87408 Pb ch=1 v=5082
87427 Pb ch=1 v=8192
87588 Off ch=1 n=62 v=64
87595 On ch=1 n=66 v=106
87828 Off ch=1 n=66 v=64
87835 On ch=1 n=64 v=105
88068 Off ch=1 n=64 v=64
88075 On ch=1 n=62 v=113
88308 Off ch=1 n=62 v=64
88315 On ch=1 n=57 v=97
88729 Par ch=1 c=1 v=4
88784 Par ch=1 c=1 v=0
88856 Off ch=1 n=57 v=64
89268 Pb ch=1 v=151
89275 On ch=1 n=57 v=105
89287 Pb ch=1 v=1668
89306 Pb ch=1 v=3413
89323 Pb ch=1 v=5461
89342 Pb ch=1 v=8192
89508 Off ch=1 n=57 v=64
89515 On ch=1 n=64 v=103
89747 Off ch=1 n=64 v=64
89755 On ch=1 n=62 v=103
89988 Off ch=1 n=62 v=64
89995 On ch=1 n=61 v=110
90228 Off ch=1 n=61 v=64
90235 On ch=1 n=62 v=99
90468 Off ch=1 n=62 v=64
90475 On ch=1 n=61 v=99
90708 Off ch=1 n=61 v=64
90715 On ch=1 n=59 v=100
91005 Par ch=1 c=1 v=2
91042 Par ch=1 c=1 v=14
91045 Off ch=1 n=59 v=64
91079 Par ch=1 c=1 v=0
91179 Pb ch=1 v=2048
91195 On ch=1 n=62 v=105
91230 Pb ch=1 v=2578
91248 Pb ch=1 v=3868
91267 Pb ch=1 v=7205
91285 Pb ch=1 v=8192
91668 Off ch=1 n=62 v=64
91675 On ch=1 n=61 v=99
91908 Off ch=1 n=61 v=64
91915 On ch=1 n=62 v=105
92627 Off ch=1 n=62 v=64
92635 On ch=1 n=59 v=105
92760 Par ch=1 c=1 v=6
92798 Par ch=1 c=1 v=0
92871 Off ch=1 n=59 v=64
93102 Pb ch=1 v=3489
93115 On ch=1 n=59 v=103
93150 Pb ch=1 v=4854
93168 Pb ch=1 v=8192
93348 Off ch=1 n=59 v=64
93355 On ch=1 n=61 v=98
93588 Off ch=1 n=61 v=64
93595 On ch=1 n=59 v=105
93828 Off ch=1 n=59 v=64
93835 On ch=1 n=57 v=104
94068 Off ch=1 n=57 v=64
94075 On ch=1 n=54 v=99
94476 Par ch=1 c=1 v=2
94533 Par ch=1 c=1 v=9
94570 Par ch=1 c=1 v=16
94607 Par ch=1 c=1 v=0
94647 Off ch=1 n=54 v=64
95015 Pb ch=1 v=1099
95035 On ch=1 n=62 v=99
95048 Pb ch=1 v=1668
95067 Pb ch=1 v=5233
95086 Pb ch=1 v=8192
95508 Off ch=1 n=62 v=64
95515 On ch=1 n=66 v=97
95748 Off ch=1 n=66 v=64
95755 On ch=1 n=64 v=100
96464 Off ch=1 n=64 v=64
96475 On ch=1 n=61 v=99
96689 Pb ch=1 v=986
96708 Off ch=1 n=61 v=64
96715 On ch=1 n=64 v=105
96764 Pb ch=1 v=8192
97428 Off ch=1 n=64 v=64
97435 On ch=1 n=61 v=103
97651 Off ch=1 n=61 v=64
97660 Pb ch=1 v=2275
97675 On ch=1 n=62 v=99
97679 Pb ch=1 v=75
97715 Pb ch=1 v=1668
97735 Pb ch=1 v=4551
97752 Pb ch=1 v=8192
98148 Off ch=1 n=62 v=64
98155 On ch=1 n=59 v=93
98445 Par ch=1 c=1 v=1
98483 Par ch=1 c=1 v=11
98520 Par ch=1 c=1 v=17
98576 Par ch=1 c=1 v=0
98592 Off ch=1 n=59 v=64
114695 Pb ch=1 v=3868
114715 On ch=1 n=57 v=102
114732 Pb ch=1 v=7130
114751 Pb ch=1 v=8192
114948 Off ch=1 n=57 v=64
114955 On ch=1 n=59 v=97
115363 Off ch=1 n=59 v=64
116373 Pb ch=1 v=910
116395 On ch=1 n=62 v=105
116411 Pb ch=1 v=2199
116430 Pb ch=1 v=4551
116447 Pb ch=1 v=8192
116628 Off ch=1 n=62 v=64
116635 On ch=1 n=59 v=99
116868 Off ch=1 n=59 v=64
116875 On ch=1 n=57 v=100
117308 Par ch=1 c=1 v=2
117345 Par ch=1 c=1 v=12
117376 Off ch=1 n=57 v=64
117383 Par ch=1 c=1 v=0
118315 On ch=1 n=66 v=99
118421 Off ch=1 n=66 v=64
118544 Pb ch=1 v=1441
118555 On ch=1 n=66 v=99
118559 Pb ch=1 v=1365
118578 Pb ch=1 v=3185
118597 Pb ch=1 v=7964
118616 Pb ch=1 v=8192
118788 Off ch=1 n=66 v=64
118795 On ch=1 n=62 v=91
119028 Off ch=1 n=62 v=64
119035 On ch=1 n=57 v=87
119325 Pb ch=1 v=8116
119342 Pb ch=1 v=7661
119361 Pb ch=1 v=7054
119380 Pb ch=1 v=6447
119399 Pb ch=1 v=5992
119436 Off ch=1 n=57 v=64
119437 Pb ch=1 v=6674
119455 Pb ch=1 v=8192
120235 On ch=1 n=61 v=91
120302 Off ch=1 n=61 v=64
120475 On ch=1 n=61 v=103
120569 Off ch=1 n=61 v=64
120698 Pb ch=1 v=379
120715 On ch=1 n=62 v=103
120717 Pb ch=1 v=606
120736 Pb ch=1 v=2048
120753 Pb ch=1 v=6144
120772 Pb ch=1 v=8192
121188 Off ch=1 n=62 v=64
121195 On ch=1 n=66 v=90
121341 Off ch=1 n=66 v=64
121675 On ch=1 n=66 v=105
122148 Off ch=1 n=66 v=64
122155 On ch=1 n=62 v=96
122628 Off ch=1 n=62 v=64
122635 On ch=1 n=59 v=93
122960 Off ch=1 n=59 v=64
124057 Pb ch=1 v=151
124075 On ch=1 n=62 v=99
124076 Pb ch=1 v=455
124095 Pb ch=1 v=2048
124114 Pb ch=1 v=4930
124132 Pb ch=1 v=8192
124308 Off ch=1 n=62 v=64
124315 On ch=1 n=61 v=91
124548 Off ch=1 n=61 v=64
124555 On ch=1 n=59 v=92
124788 Off ch=1 n=59 v=64
124795 On ch=1 n=57 v=92
125178 Par ch=1 c=1 v=7
125198 Off ch=1 n=57 v=64
125216 Par ch=1 c=1 v=12
125254 Par ch=1 c=1 v=0
125755 On ch=1 n=57 v=103
125919 Off ch=1 n=57 v=64
125995 On ch=1 n=57 v=100
126132 Off ch=1 n=57 v=64
126443 Pb ch=1 v=0
126475 On ch=1 n=64 v=96
126481 Pb ch=1 v=910
126500 Pb ch=1 v=5385
126518 Pb ch=1 v=8192
127188 Off ch=1 n=64 v=64
127195 On ch=1 n=61 v=95
127428 Off ch=1 n=61 v=64
127435 On ch=1 n=64 v=103
127457 Pb ch=1 v=910
127476 Pb ch=1 v=2730
127493 Pb ch=1 v=6750
127512 Pb ch=1 v=8192
128149 Off ch=1 n=64 v=64
128155 On ch=1 n=61 v=99
128379 Pb ch=1 v=4171
128388 Off ch=1 n=61 v=64
128395 On ch=1 n=62 v=105
128405 Pb ch=1 v=7054
128424 Pb ch=1 v=8192
128628 Off ch=1 n=62 v=64
128635 On ch=1 n=59 v=82
129172 Off ch=1 n=59 v=64
129579 Pb ch=1 v=2048
129595 On ch=1 n=62 v=105
129630 Pb ch=1 v=2578
129648 Pb ch=1 v=3868
129667 Pb ch=1 v=7205
129685 Pb ch=1 v=8192
130068 Off ch=1 n=62 v=64
130075 On ch=1 n=61 v=99
130308 Off ch=1 n=61 v=64
130315 On ch=1 n=62 v=105
131027 Off ch=1 n=62 v=64
131035 On ch=1 n=59 v=105
131160 Par ch=1 c=1 v=6
131198 Par ch=1 c=1 v=0
131271 Off ch=1 n=59 v=64
131502 Pb ch=1 v=3489
131515 On ch=1 n=59 v=103
131550 Pb ch=1 v=4854
131568 Pb ch=1 v=8192
131748 Off ch=1 n=59 v=64
131755 On ch=1 n=61 v=98
131988 Off ch=1 n=61 v=64
131995 On ch=1 n=59 v=105
132228 Off ch=1 n=59 v=64
132235 On ch=1 n=57 v=104
132468 Off ch=1 n=57 v=64
132475 On ch=1 n=54 v=99
132876 Par ch=1 c=1 v=2
132933 Par ch=1 c=1 v=9
132970 Par ch=1 c=1 v=16
133007 Par ch=1 c=1 v=0
133047 Off ch=1 n=54 v=64
133414 Pb ch=1 v=455
133435 On ch=1 n=62 v=113
133451 Pb ch=1 v=834
133469 Pb ch=1 v=2199
133488 Pb ch=1 v=5082
133507 Pb ch=1 v=8192
133668 Off ch=1 n=62 v=64
133675 On ch=1 n=66 v=106
133908 Off ch=1 n=66 v=64
133915 On ch=1 n=64 v=105
134148 Off ch=1 n=64 v=64
134155 On ch=1 n=62 v=113
134388 Off ch=1 n=62 v=64
134395 On ch=1 n=57 v=97
134809 Par ch=1 c=1 v=4
134864 Par ch=1 c=1 v=0
134936 Off ch=1 n=57 v=64
135348 Pb ch=1 v=151
135355 On ch=1 n=57 v=105
135367 Pb ch=1 v=1668
135386 Pb ch=1 v=3413
135403 Pb ch=1 v=5461
135422 Pb ch=1 v=8192
135588 Off ch=1 n=57 v=64
135595 On ch=1 n=64 v=103
135827 Off ch=1 n=64 v=64
135835 On ch=1 n=62 v=103
136068 Off ch=1 n=62 v=64
136075 On ch=1 n=61 v=110
136308 Off ch=1 n=61 v=64
136315 On ch=1 n=62 v=99
136548 Off ch=1 n=62 v=64
136555 On ch=1 n=61 v=99
136788 Off ch=1 n=61 v=64
136795 On ch=1 n=59 v=100
137085 Par ch=1 c=1 v=2
137122 Par ch=1 c=1 v=14
137125 Off ch=1 n=59 v=64
137159 Par ch=1 c=1 v=0
137259 Pb ch=1 v=2048
137275 On ch=1 n=62 v=105
137310 Pb ch=1 v=2578
137328 Pb ch=1 v=3868
137347 Pb ch=1 v=7205
137365 Pb ch=1 v=8192
137748 Off ch=1 n=62 v=64
137755 On ch=1 n=61 v=99
137988 Off ch=1 n=61 v=64
137995 On ch=1 n=62 v=105
138707 Off ch=1 n=62 v=64
138715 On ch=1 n=59 v=105
138840 Par ch=1 c=1 v=6
138878 Par ch=1 c=1 v=0
138951 Off ch=1 n=59 v=64
139182 Pb ch=1 v=3489
139195 On ch=1 n=59 v=103
139230 Pb ch=1 v=4854
139248 Pb ch=1 v=8192
139428 Off ch=1 n=59 v=64
139435 On ch=1 n=61 v=98
139668 Off ch=1 n=61 v=64
139675 On ch=1 n=59 v=105
139908 Off ch=1 n=59 v=64
139915 On ch=1 n=57 v=104
140148 Off ch=1 n=57 v=64
140155 On ch=1 n=54 v=99
140556 Par ch=1 c=1 v=2
140613 Par ch=1 c=1 v=9
140650 Par ch=1 c=1 v=16
140687 Par ch=1 c=1 v=0
140727 Off ch=1 n=54 v=64
141095 Pb ch=1 v=1099
141115 On ch=1 n=62 v=99
141128 Pb ch=1 v=1668
141147 Pb ch=1 v=5233
141166 Pb ch=1 v=8192
141588 Off ch=1 n=62 v=64
141595 On ch=1 n=66 v=97
141828 Off ch=1 n=66 v=64
141835 On ch=1 n=64 v=100
142544 Off ch=1 n=64 v=64
142555 On ch=1 n=61 v=99
142769 Pb ch=1 v=986
142788 Off ch=1 n=61 v=64
142795 On ch=1 n=64 v=105
142844 Pb ch=1 v=8192
143508 Off ch=1 n=64 v=64
143515 On ch=1 n=61 v=103
143731 Off ch=1 n=61 v=64
143740 Pb ch=1 v=2275
143755 On ch=1 n=62 v=99
143759 Pb ch=1 v=75
143795 Pb ch=1 v=1668
143815 Pb ch=1 v=4551
143832 Pb ch=1 v=8192
144228 Off ch=1 n=62 v=64
144235 On ch=1 n=59 v=93
144525 Par ch=1 c=1 v=1
144563 Par ch=1 c=1 v=11
144600 Par ch=1 c=1 v=17
144656 Par ch=1 c=1 v=0
144672 Off ch=1 n=59 v=64
144939 Pb ch=1 v=2048
144955 On ch=1 n=62 v=105
144990 Pb ch=1 v=2578
145008 Pb ch=1 v=3868
145027 Pb ch=1 v=7205
145045 Pb ch=1 v=8192
145428 Off ch=1 n=62 v=64
145435 On ch=1 n=61 v=99
145668 Off ch=1 n=61 v=64
145675 On ch=1 n=62 v=105
146387 Off ch=1 n=62 v=64
146395 On ch=1 n=59 v=105
146520 Par ch=1 c=1 v=6
146558 Par ch=1 c=1 v=0
146631 Off ch=1 n=59 v=64
146862 Pb ch=1 v=3489
146875 On ch=1 n=59 v=103
146910 Pb ch=1 v=4854
146928 Pb ch=1 v=8192
147108 Off ch=1 n=59 v=64
147115 On ch=1 n=61 v=98
147348 Off ch=1 n=61 v=64
147355 On ch=1 n=59 v=105
147588 Off ch=1 n=59 v=64
147595 On ch=1 n=57 v=104
147828 Off ch=1 n=57 v=64
147835 On ch=1 n=54 v=99
148236 Par ch=1 c=1 v=2
148293 Par ch=1 c=1 v=9
148330 Par ch=1 c=1 v=16
148367 Par ch=1 c=1 v=0
148407 Off ch=1 n=54 v=64
148774 Pb ch=1 v=455
148795 On ch=1 n=62 v=113
148811 Pb ch=1 v=834
148829 Pb ch=1 v=2199
148848 Pb ch=1 v=5082
148867 Pb ch=1 v=8192
149028 Off ch=1 n=62 v=64
149035 On ch=1 n=66 v=106
149268 Off ch=1 n=66 v=64
149275 On ch=1 n=64 v=105
149508 Off ch=1 n=64 v=64
149515 On ch=1 n=62 v=113
149748 Off ch=1 n=62 v=64
149755 On ch=1 n=57 v=97
150169 Par ch=1 c=1 v=4
150224 Par ch=1 c=1 v=0
150296 Off ch=1 n=57 v=64
150708 Pb ch=1 v=151
150715 On ch=1 n=57 v=105
150727 Pb ch=1 v=1668
150746 Pb ch=1 v=3413
150763 Pb ch=1 v=5461
150782 Pb ch=1 v=8192
150948 Off ch=1 n=57 v=64
150955 On ch=1 n=64 v=103
151187 Off ch=1 n=64 v=64
151195 On ch=1 n=62 v=103
151428 Off ch=1 n=62 v=64
151435 On ch=1 n=61 v=110
151668 Off ch=1 n=61 v=64
151675 On ch=1 n=62 v=99
151908 Off ch=1 n=62 v=64
151915 On ch=1 n=61 v=99
152148 Off ch=1 n=61 v=64
152155 On ch=1 n=59 v=100
152445 Par ch=1 c=1 v=2
152482 Par ch=1 c=1 v=14
152485 Off ch=1 n=59 v=64
152519 Par ch=1 c=1 v=0
152619 Pb ch=1 v=2048
152635 On ch=1 n=62 v=105
152670 Pb ch=1 v=2578
152688 Pb ch=1 v=3868
152707 Pb ch=1 v=7205
152725 Pb ch=1 v=8192
153108 Off ch=1 n=62 v=64
153115 On ch=1 n=61 v=99
153348 Off ch=1 n=61 v=64
153355 On ch=1 n=62 v=105
154067 Off ch=1 n=62 v=64
154075 On ch=1 n=59 v=105
154200 Par ch=1 c=1 v=6
154238 Par ch=1 c=1 v=0
154311 Off ch=1 n=59 v=64
154542 Pb ch=1 v=3489
154555 On ch=1 n=59 v=103
154590 Pb ch=1 v=4854
154608 Pb ch=1 v=8192
154788 Off ch=1 n=59 v=64
154795 On ch=1 n=61 v=98
155028 Off ch=1 n=61 v=64
155035 On ch=1 n=59 v=105
155268 Off ch=1 n=59 v=64
155275 On ch=1 n=57 v=104
155508 Off ch=1 n=57 v=64
155515 On ch=1 n=54 v=99
155916 Par ch=1 c=1 v=2
155973 Par ch=1 c=1 v=9
156010 Par ch=1 c=1 v=16
156047 Par ch=1 c=1 v=0
156087 Off ch=1 n=54 v=64
156455 Pb ch=1 v=1099
156475 On ch=1 n=62 v=99
156488 Pb ch=1 v=1668
156507 Pb ch=1 v=5233
156526 Pb ch=1 v=8192
156948 Off ch=1 n=62 v=64
156955 On ch=1 n=66 v=97
157188 Off ch=1 n=66 v=64
157195 On ch=1 n=64 v=100
157904 Off ch=1 n=64 v=64
157915 On ch=1 n=61 v=99
158129 Pb ch=1 v=986
158148 Off ch=1 n=61 v=64
158155 On ch=1 n=64 v=105
158204 Pb ch=1 v=8192
158868 Off ch=1 n=64 v=64
158875 On ch=1 n=61 v=103
159091 Off ch=1 n=61 v=64
159100 Pb ch=1 v=2275
159115 On ch=1 n=62 v=99
159119 Pb ch=1 v=75
159155 Pb ch=1 v=1668
159175 Pb ch=1 v=4551
159192 Pb ch=1 v=8192
159588 Off ch=1 n=62 v=64
159595 On ch=1 n=59 v=93
159885 Par ch=1 c=1 v=1
159923 Par ch=1 c=1 v=11
159960 Par ch=1 c=1 v=17
160016 Par ch=1 c=1 v=0
160032 Off ch=1 n=59 v=64
160304 Pb ch=1 v=758
160315 On ch=1 n=62 v=99
160332 Pb ch=1 v=2048
160351 Pb ch=1 v=4247
160370 Pb ch=1 v=7812
160388 Pb ch=1 v=8192
160548 Off ch=1 n=62 v=64
160555 On ch=1 n=61 v=94
160788 Off ch=1 n=61 v=64
160795 On ch=1 n=62 v=99
161028 Off ch=1 n=62 v=64
161035 On ch=1 n=71 v=95
161435 Par ch=1 c=1 v=4
161472 Par ch=1 c=1 v=11
161509 Par ch=1 c=1 v=17
161566 Par ch=1 c=1 v=32
161580 Off ch=1 n=71 v=64
161621 Par ch=1 c=1 v=0
162215 Pb ch=1 v=1289
162235 On ch=1 n=62 v=97
162253 Pb ch=1 v=2578
162271 Pb ch=1 v=4626
162290 Pb ch=1 v=7205
162309 Pb ch=1 v=8192
162468 Off ch=1 n=62 v=64
162475 On ch=1 n=61 v=99
162708 Off ch=1 n=61 v=64
162715 On ch=1 n=62 v=99
162948 Off ch=1 n=62 v=64
162955 On ch=1 n=69 v=99
163374 Par ch=1 c=1 v=4
163430 Par ch=1 c=1 v=16
163482 Off ch=1 n=69 v=64
163486 Par ch=1 c=1 v=29
163541 Par ch=1 c=1 v=0
164135 Pb ch=1 v=1289
164155 On ch=1 n=62 v=97
164173 Pb ch=1 v=2578
164191 Pb ch=1 v=4626
164210 Pb ch=1 v=7205
164229 Pb ch=1 v=8192
164388 Off ch=1 n=62 v=64
164395 On ch=1 n=61 v=99
164628 Off ch=1 n=61 v=64
164635 On ch=1 n=62 v=99
164868 Off ch=1 n=62 v=64
164875 On ch=1 n=69 v=99
165294 Par ch=1 c=1 v=4
165350 Par ch=1 c=1 v=16
165402 Off ch=1 n=69 v=64
165406 Par ch=1 c=1 v=29
165461 Par ch=1 c=1 v=0
166054 Pb ch=1 v=1635
166075 On ch=1 n=62 v=100
166122 Pb ch=1 v=8192
166308 Off ch=1 n=62 v=64
166315 On ch=1 n=61 v=100
166521 Off ch=1 n=61 v=64
166555 On ch=1 n=62 v=106
166788 Off ch=1 n=62 v=64
166795 On ch=1 n=74 v=117
166996 Off ch=1 n=74 v=64
167275 On ch=1 n=71 v=100
167485 Off ch=1 n=71 v=64
167984 Pb ch=1 v=758
167995 On ch=1 n=62 v=99
168012 Pb ch=1 v=2048
168031 Pb ch=1 v=4247
168050 Pb ch=1 v=7812
168068 Pb ch=1 v=8192
168228 Off ch=1 n=62 v=64
168235 On ch=1 n=61 v=94
168468 Off ch=1 n=61 v=64
168475 On ch=1 n=62 v=99
168708 Off ch=1 n=62 v=64
168715 On ch=1 n=71 v=95
169115 Par ch=1 c=1 v=4
169152 Par ch=1 c=1 v=11
169189 Par ch=1 c=1 v=17
169246 Par ch=1 c=1 v=32
169260 Off ch=1 n=71 v=64
169301 Par ch=1 c=1 v=0
169895 Pb ch=1 v=1289
169915 On ch=1 n=62 v=97
169933 Pb ch=1 v=2578
169951 Pb ch=1 v=4626
169970 Pb ch=1 v=7205
169989 Pb ch=1 v=8192
170148 Off ch=1 n=62 v=64
170155 On ch=1 n=61 v=99
170388 Off ch=1 n=61 v=64
170395 On ch=1 n=62 v=99
170628 Off ch=1 n=62 v=64
170635 On ch=1 n=69 v=99
171054 Par ch=1 c=1 v=4
171110 Par ch=1 c=1 v=16
171162 Off ch=1 n=69 v=64
171166 Par ch=1 c=1 v=29
171221 Par ch=1 c=1 v=0
171815 Pb ch=1 v=1289
171835 On ch=1 n=62 v=97
171853 Pb ch=1 v=2578
171871 Pb ch=1 v=4626
171890 Pb ch=1 v=7205
171909 Pb ch=1 v=8192
172068 Off ch=1 n=62 v=64
172075 On ch=1 n=61 v=99
172308 Off ch=1 n=61 v=64
172315 On ch=1 n=62 v=99
172548 Off ch=1 n=62 v=64
172555 On ch=1 n=69 v=99
172974 Par ch=1 c=1 v=4
173030 Par ch=1 c=1 v=16
173082 Off ch=1 n=69 v=64
173086 Par ch=1 c=1 v=29
173141 Par ch=1 c=1 v=0
173734 Pb ch=1 v=1635
173755 On ch=1 n=62 v=100
173802 Pb ch=1 v=8192
173988 Off ch=1 n=62 v=64
173995 On ch=1 n=61 v=100
174201 Off ch=1 n=61 v=64
174235 On ch=1 n=62 v=106
174468 Off ch=1 n=62 v=64
174475 On ch=1 n=74 v=117
174676 Off ch=1 n=74 v=64
174955 On ch=1 n=71 v=100
175165 Off ch=1 n=71 v=64
175664 Pb ch=1 v=758
175675 On ch=1 n=62 v=99
175692 Pb ch=1 v=2048
175711 Pb ch=1 v=4247
175730 Pb ch=1 v=7812
175748 Pb ch=1 v=8192
175908 Off ch=1 n=62 v=64
175915 On ch=1 n=61 v=94
176148 Off ch=1 n=61 v=64
176155 On ch=1 n=62 v=99
176388 Off ch=1 n=62 v=64
176395 On ch=1 n=71 v=95
176795 Par ch=1 c=1 v=4
176832 Par ch=1 c=1 v=11
176869 Par ch=1 c=1 v=17
176926 Par ch=1 c=1 v=32
176940 Off ch=1 n=71 v=64
176981 Par ch=1 c=1 v=0
177575 Pb ch=1 v=1289
177595 On ch=1 n=62 v=97
177613 Pb ch=1 v=2578
177631 Pb ch=1 v=4626
177650 Pb ch=1 v=7205
177669 Pb ch=1 v=8192
177828 Off ch=1 n=62 v=64
177835 On ch=1 n=61 v=99
178068 Off ch=1 n=61 v=64
178075 On ch=1 n=62 v=99
178308 Off ch=1 n=62 v=64
178315 On ch=1 n=69 v=99
178734 Par ch=1 c=1 v=4
178790 Par ch=1 c=1 v=16
178842 Off ch=1 n=69 v=64
178846 Par ch=1 c=1 v=29
178901 Par ch=1 c=1 v=0
179495 Pb ch=1 v=1289
179515 On ch=1 n=62 v=97
179533 Pb ch=1 v=2578
179551 Pb ch=1 v=4626
179570 Pb ch=1 v=7205
179589 Pb ch=1 v=8192
179748 Off ch=1 n=62 v=64
179755 On ch=1 n=61 v=99
179988 Off ch=1 n=61 v=64
179995 On ch=1 n=62 v=99
180228 Off ch=1 n=62 v=64
180235 On ch=1 n=69 v=99
180654 Par ch=1 c=1 v=4
180710 Par ch=1 c=1 v=16
180762 Off ch=1 n=69 v=64
180766 Par ch=1 c=1 v=29
180821 Par ch=1 c=1 v=0
181414 Pb ch=1 v=1635
181435 On ch=1 n=62 v=100
181482 Pb ch=1 v=8192
181668 Off ch=1 n=62 v=64
181675 On ch=1 n=61 v=100
181881 Off ch=1 n=61 v=64
181915 On ch=1 n=62 v=106
182148 Off ch=1 n=62 v=64
182155 On ch=1 n=74 v=117
182356 Off ch=1 n=74 v=64
182635 On ch=1 n=71 v=100
182845 Off ch=1 n=71 v=64
183344 Pb ch=1 v=758
183355 On ch=1 n=62 v=99
183372 Pb ch=1 v=2048
183391 Pb ch=1 v=4247
183410 Pb ch=1 v=7812
183428 Pb ch=1 v=8192
183588 Off ch=1 n=62 v=64
183595 On ch=1 n=61 v=94
183828 Off ch=1 n=61 v=64
183835 On ch=1 n=62 v=99
184068 Off ch=1 n=62 v=64
184075 On ch=1 n=71 v=95
184475 Par ch=1 c=1 v=4
184512 Par ch=1 c=1 v=11
184549 Par ch=1 c=1 v=17
184606 Par ch=1 c=1 v=32
184620 Off ch=1 n=71 v=64
184661 Par ch=1 c=1 v=0
185255 Pb ch=1 v=1289
185275 On ch=1 n=62 v=97
185293 Pb ch=1 v=2578
185311 Pb ch=1 v=4626
185330 Pb ch=1 v=7205
185349 Pb ch=1 v=8192
185508 Off ch=1 n=62 v=64
185515 On ch=1 n=61 v=99
185748 Off ch=1 n=61 v=64
185755 On ch=1 n=62 v=99
185988 Off ch=1 n=62 v=64
185995 On ch=1 n=69 v=99
186414 Par ch=1 c=1 v=4
186470 Par ch=1 c=1 v=16
186522 Off ch=1 n=69 v=64
186526 Par ch=1 c=1 v=29
186581 Par ch=1 c=1 v=0
187175 Pb ch=1 v=1289
187195 On ch=1 n=62 v=97
187213 Pb ch=1 v=2578
187231 Pb ch=1 v=4626
187250 Pb ch=1 v=7205
187269 Pb ch=1 v=8192
187428 Off ch=1 n=62 v=64
187435 On ch=1 n=61 v=99
187668 Off ch=1 n=61 v=64
187675 On ch=1 n=62 v=99
187908 Off ch=1 n=62 v=64
187915 On ch=1 n=69 v=99
188334 Par ch=1 c=1 v=4
188390 Par ch=1 c=1 v=16
188442 Off ch=1 n=69 v=64
188446 Par ch=1 c=1 v=29
188501 Par ch=1 c=1 v=0
189094 Pb ch=1 v=1635
189115 On ch=1 n=62 v=100
189162 Pb ch=1 v=8192
189348 Off ch=1 n=62 v=64
189355 On ch=1 n=61 v=100
189561 Off ch=1 n=61 v=64
189595 On ch=1 n=62 v=106
189828 Off ch=1 n=62 v=64
189835 On ch=1 n=74 v=117
190036 Off ch=1 n=74 v=64
190315 On ch=1 n=71 v=100
190525 Off ch=1 n=71 v=64
191019 Pb ch=1 v=2048
191035 On ch=1 n=62 v=105
191070 Pb ch=1 v=2578
191088 Pb ch=1 v=3868
191107 Pb ch=1 v=7205
191125 Pb ch=1 v=8192
191508 Off ch=1 n=62 v=64
191515 On ch=1 n=61 v=99
191748 Off ch=1 n=61 v=64
191755 On ch=1 n=62 v=105
192467 Off ch=1 n=62 v=64
192475 On ch=1 n=59 v=105
192600 Par ch=1 c=1 v=6
192638 Par ch=1 c=1 v=0
192711 Off ch=1 n=59 v=64
192942 Pb ch=1 v=3489
192955 On ch=1 n=59 v=103
192990 Pb ch=1 v=4854
193008 Pb ch=1 v=8192
193188 Off ch=1 n=59 v=64
193195 On ch=1 n=61 v=98
193428 Off ch=1 n=61 v=64
193435 On ch=1 n=59 v=105
193668 Off ch=1 n=59 v=64
193675 On ch=1 n=57 v=104
193908 Off ch=1 n=57 v=64
193915 On ch=1 n=54 v=99
194316 Par ch=1 c=1 v=2
194373 Par ch=1 c=1 v=9
194410 Par ch=1 c=1 v=16
194447 Par ch=1 c=1 v=0
194487 Off ch=1 n=54 v=64
194854 Pb ch=1 v=455
194875 On ch=1 n=62 v=113
194891 Pb ch=1 v=834
194909 Pb ch=1 v=2199
194928 Pb ch=1 v=5082
194947 Pb ch=1 v=8192
195108 Off ch=1 n=62 v=64
195115 On ch=1 n=66 v=106
195348 Off ch=1 n=66 v=64
195355 On ch=1 n=64 v=105
195588 Off ch=1 n=64 v=64
195595 On ch=1 n=62 v=113
195828 Off ch=1 n=62 v=64
195835 On ch=1 n=57 v=97
196249 Par ch=1 c=1 v=4
196304 Par ch=1 c=1 v=0
196376 Off ch=1 n=57 v=64
196788 Pb ch=1 v=151
196795 On ch=1 n=57 v=105
196807 Pb ch=1 v=1668
196826 Pb ch=1 v=3413
196843 Pb ch=1 v=5461
196862 Pb ch=1 v=8192
197028 Off ch=1 n=57 v=64
197035 On ch=1 n=64 v=103
197267 Off ch=1 n=64 v=64
197275 On ch=1 n=62 v=103
197508 Off ch=1 n=62 v=64
197515 On ch=1 n=61 v=110
197748 Off ch=1 n=61 v=64
197755 On ch=1 n=62 v=99
197988 Off ch=1 n=62 v=64
197995 On ch=1 n=61 v=99
198228 Off ch=1 n=61 v=64
198235 On ch=1 n=59 v=100
198525 Par ch=1 c=1 v=2
198562 Par ch=1 c=1 v=14
198565 Off ch=1 n=59 v=64
198599 Par ch=1 c=1 v=0
198699 Pb ch=1 v=2048
198715 On ch=1 n=62 v=105
198750 Pb ch=1 v=2578
198768 Pb ch=1 v=3868
198787 Pb ch=1 v=7205
198805 Pb ch=1 v=8192
199188 Off ch=1 n=62 v=64
199195 On ch=1 n=61 v=99
199428 Off ch=1 n=61 v=64
199435 On ch=1 n=62 v=105
200147 Off ch=1 n=62 v=64
200155 On ch=1 n=59 v=105
200280 Par ch=1 c=1 v=6
200318 Par ch=1 c=1 v=0
200391 Off ch=1 n=59 v=64
200622 Pb ch=1 v=3489
200635 On ch=1 n=59 v=103
200670 Pb ch=1 v=4854
200688 Pb ch=1 v=8192
200868 Off ch=1 n=59 v=64
200875 On ch=1 n=61 v=98
201108 Off ch=1 n=61 v=64
201115 On ch=1 n=59 v=105
201348 Off ch=1 n=59 v=64
201355 On ch=1 n=57 v=104
201588 Off ch=1 n=57 v=64
201595 On ch=1 n=54 v=99
201996 Par ch=1 c=1 v=2
202053 Par ch=1 c=1 v=9
202090 Par ch=1 c=1 v=16
202127 Par ch=1 c=1 v=0
202167 Off ch=1 n=54 v=64
202535 Pb ch=1 v=1099
202555 On ch=1 n=62 v=99
202568 Pb ch=1 v=1668
202587 Pb ch=1 v=5233
202606 Pb ch=1 v=8192
203028 Off ch=1 n=62 v=64
203035 On ch=1 n=66 v=97
203268 Off ch=1 n=66 v=64
203275 On ch=1 n=64 v=100
203984 Off ch=1 n=64 v=64
203995 On ch=1 n=61 v=99
204209 Pb ch=1 v=986
204228 Off ch=1 n=61 v=64
204235 On ch=1 n=64 v=105
204284 Pb ch=1 v=8192
204948 Off ch=1 n=64 v=64
204955 On ch=1 n=61 v=103
205171 Off ch=1 n=61 v=64
205180 Pb ch=1 v=2275
205195 On ch=1 n=62 v=99
205199 Pb ch=1 v=75
205235 Pb ch=1 v=1668
205255 Pb ch=1 v=4551
205272 Pb ch=1 v=8192
205668 Off ch=1 n=62 v=64
205675 On ch=1 n=59 v=93
205965 Par ch=1 c=1 v=1
206003 Par ch=1 c=1 v=11
206040 Par ch=1 c=1 v=17
206096 Par ch=1 c=1 v=0
206112 Off ch=1 n=59 v=64
206379 Pb ch=1 v=2048
206395 On ch=1 n=62 v=109
206395 On ch=1 n=66 v=77
206430 Pb ch=1 v=2578
206448 Pb ch=1 v=3868
206467 Pb ch=1 v=7205
206485 Pb ch=1 v=8192
206868 Off ch=1 n=66 v=64
206868 Off ch=1 n=62 v=64
206875 On ch=1 n=61 v=103
206875 On ch=1 n=64 v=71
207108 Off ch=1 n=64 v=64
207108 Off ch=1 n=61 v=64
207115 On ch=1 n=62 v=109
207115 On ch=1 n=66 v=77
207827 Off ch=1 n=66 v=64
207827 Off ch=1 n=62 v=64
207835 On ch=1 n=59 v=109
207835 On ch=1 n=62 v=77
207960 Par ch=1 c=1 v=6
207998 Par ch=1 c=1 v=0
208071 Off ch=1 n=62 v=64
208071 Off ch=1 n=59 v=64
208302 Pb ch=1 v=3489
208315 On ch=1 n=59 v=107
208315 On ch=1 n=62 v=75
208350 Pb ch=1 v=4854
208368 Pb ch=1 v=8192
208548 Off ch=1 n=62 v=64
208548 Off ch=1 n=59 v=64
208555 On ch=1 n=61 v=102
208555 On ch=1 n=66 v=70
208788 Off ch=1 n=66 v=64
208788 Off ch=1 n=61 v=64
208795 On ch=1 n=59 v=109
208795 On ch=1 n=64 v=77
209028 Off ch=1 n=64 v=64
209028 Off ch=1 n=59 v=64
209035 On ch=1 n=57 v=108
209035 On ch=1 n=62 v=76
209251 Off ch=1 n=62 v=64
209268 Off ch=1 n=57 v=64
209275 On ch=1 n=54 v=103
209275 On ch=1 n=62 v=71
209676 Par ch=1 c=1 v=2
209733 Par ch=1 c=1 v=9
209770 Par ch=1 c=1 v=16
209807 Par ch=1 c=1 v=0
209847 Off ch=1 n=62 v=64
209847 Off ch=1 n=54 v=64
210214 Pb ch=1 v=455
210235 On ch=1 n=62 v=117
210235 On ch=1 n=66 v=85
210251 Pb ch=1 v=834
210269 Pb ch=1 v=2199
210288 Pb ch=1 v=5082
210307 Pb ch=1 v=8192
210468 Off ch=1 n=66 v=64
210468 Off ch=1 n=62 v=64
210475 On ch=1 n=66 v=110
210475 On ch=1 n=69 v=78
210708 Off ch=1 n=69 v=64
210708 Off ch=1 n=66 v=64
210715 On ch=1 n=64 v=109
210715 On ch=1 n=67 v=77
210948 Off ch=1 n=67 v=64
210948 Off ch=1 n=64 v=64
210955 On ch=1 n=62 v=117
210955 On ch=1 n=66 v=85
211188 Off ch=1 n=66 v=64
211188 Off ch=1 n=62 v=64
211195 On ch=1 n=57 v=101
211195 On ch=1 n=61 v=69
211609 Par ch=1 c=1 v=4
211664 Par ch=1 c=1 v=0
211736 Off ch=1 n=61 v=64
211736 Off ch=1 n=57 v=64
212148 Pb ch=1 v=151
212155 On ch=1 n=57 v=109
212155 On ch=1 n=61 v=77
212167 Pb ch=1 v=1668
212186 Pb ch=1 v=3413
212203 Pb ch=1 v=5461
212222 Pb ch=1 v=8192
212388 Off ch=1 n=61 v=64
212388 Off ch=1 n=57 v=64
212395 On ch=1 n=64 v=107
212395 On ch=1 n=67 v=75
212627 Off ch=1 n=67 v=64
212627 Off ch=1 n=64 v=64
212635 On ch=1 n=62 v=107
212635 On ch=1 n=66 v=75
212868 Off ch=1 n=66 v=64
212868 Off ch=1 n=62 v=64
212875 On ch=1 n=61 v=114
212875 On ch=1 n=64 v=82
213108 Off ch=1 n=64 v=64
213108 Off ch=1 n=61 v=64
213115 On ch=1 n=62 v=103
213115 On ch=1 n=66 v=71
213348 Off ch=1 n=66 v=64
213348 Off ch=1 n=62 v=64
213355 On ch=1 n=61 v=103
213355 On ch=1 n=64 v=71
213588 Off ch=1 n=64 v=64
213588 Off ch=1 n=61 v=64
213595 On ch=1 n=59 v=104
213595 On ch=1 n=62 v=72
213885 Par ch=1 c=1 v=2
213922 Par ch=1 c=1 v=14
213925 Off ch=1 n=62 v=64
213925 Off ch=1 n=59 v=64
213959 Par ch=1 c=1 v=0
214059 Pb ch=1 v=2048
214075 On ch=1 n=62 v=109
214075 On ch=1 n=66 v=77
214110 Pb ch=1 v=2578
214128 Pb ch=1 v=3868
214147 Pb ch=1 v=7205
214165 Pb ch=1 v=8192
214548 Off ch=1 n=66 v=64
214548 Off ch=1 n=62 v=64
214555 On ch=1 n=61 v=103
214555 On ch=1 n=64 v=71
214788 Off ch=1 n=64 v=64
214788 Off ch=1 n=61 v=64
214795 On ch=1 n=62 v=109
214795 On ch=1 n=66 v=77
215507 Off ch=1 n=66 v=64
215507 Off ch=1 n=62 v=64
215515 On ch=1 n=59 v=109
215515 On ch=1 n=62 v=77
215640 Par ch=1 c=1 v=6
215678 Par ch=1 c=1 v=0
215751 Off ch=1 n=62 v=64
215751 Off ch=1 n=59 v=64
215982 Pb ch=1 v=3489
215995 On ch=1 n=59 v=107
215995 On ch=1 n=62 v=75
216030 Pb ch=1 v=4854
216048 Pb ch=1 v=8192
216228 Off ch=1 n=62 v=64
216228 Off ch=1 n=59 v=64
216235 On ch=1 n=61 v=102
216235 On ch=1 n=66 v=70
216468 Off ch=1 n=66 v=64
216468 Off ch=1 n=61 v=64
216475 On ch=1 n=59 v=109
216475 On ch=1 n=64 v=77
216708 Off ch=1 n=64 v=64
216708 Off ch=1 n=59 v=64
216715 On ch=1 n=57 v=108
216715 On ch=1 n=62 v=76
216936 Off ch=1 n=62 v=64
216948 Off ch=1 n=57 v=64
216955 On ch=1 n=54 v=103
216955 On ch=1 n=62 v=71
217356 Par ch=1 c=1 v=2
217413 Par ch=1 c=1 v=9
217450 Par ch=1 c=1 v=16
217487 Par ch=1 c=1 v=0
217527 Off ch=1 n=62 v=64
217527 Off ch=1 n=54 v=64
217895 Pb ch=1 v=1099
217915 On ch=1 n=62 v=103
217915 On ch=1 n=66 v=71
217928 Pb ch=1 v=1668
217947 Pb ch=1 v=5233
217966 Pb ch=1 v=8192
218388 Off ch=1 n=66 v=64
218388 Off ch=1 n=62 v=64
218395 On ch=1 n=66 v=101
218395 On ch=1 n=69 v=69
218628 Off ch=1 n=69 v=64
218628 Off ch=1 n=66 v=64
218635 On ch=1 n=64 v=104
218635 On ch=1 n=67 v=72
219344 Off ch=1 n=67 v=64
219344 Off ch=1 n=64 v=64
219355 On ch=1 n=61 v=103
219355 On ch=1 n=64 v=71
219569 Pb ch=1 v=986
219588 Off ch=1 n=64 v=64
219588 Off ch=1 n=61 v=64
219595 On ch=1 n=64 v=109
219595 On ch=1 n=67 v=77
219644 Pb ch=1 v=8192
220308 Off ch=1 n=67 v=64
220308 Off ch=1 n=64 v=64
220315 On ch=1 n=61 v=107
220315 On ch=1 n=64 v=75
220531 Off ch=1 n=64 v=64
220531 Off ch=1 n=61 v=64
220540 Pb ch=1 v=2275
220555 On ch=1 n=62 v=103
220555 On ch=1 n=66 v=71
220559 Pb ch=1 v=75
220595 Pb ch=1 v=1668
220615 Pb ch=1 v=4551
220632 Pb ch=1 v=8192
221028 Off ch=1 n=66 v=64
221028 Off ch=1 n=62 v=64
221035 On ch=1 n=59 v=97
221035 On ch=1 n=62 v=65
221325 Par ch=1 c=1 v=1
221363 Par ch=1 c=1 v=11
221400 Par ch=1 c=1 v=17
221456 Par ch=1 c=1 v=0
221472 Off ch=1 n=62 v=64
221472 Off ch=1 n=59 v=64
221472 Meta TrkEnd
TrkEnd
MTrk
0 SeqSpec 05 0f 09 00 40
0 SeqSpec 05 0f 06 47 65 6e 65 72 61 6c 20 4d 49 44 49
0 Meta TrkName "Track 3"
0 Meta 0x20 01
481 Par ch=2 c=0 v=0
501 PrCh ch=2 p=33
511 Par ch=2 c=7 v=112
521 Par ch=2 c=10 v=64
531 Par ch=2 c=11 v=127
541 Par ch=2 c=91 v=0
551 Par ch=2 c=93 v=0
561 Par ch=2 c=64 v=0
571 Par ch=2 c=1 v=0
581 Pb ch=2 v=8192
932 Par ch=2 c=99 v=1
943 Par ch=2 c=98 v=32
954 Par ch=2 c=6 v=50
21118 On ch=2 n=31 v=110
21351 Off ch=2 n=31 v=64
21358 On ch=2 n=43 v=110
21591 Off ch=2 n=43 v=64
21598 On ch=2 n=31 v=110
21831 Off ch=2 n=31 v=64
21838 On ch=2 n=43 v=110
22071 Off ch=2 n=43 v=64
22078 On ch=2 n=31 v=110
22311 Off ch=2 n=31 v=64
22318 On ch=2 n=43 v=110
22551 Off ch=2 n=43 v=64
22558 On ch=2 n=31 v=110
22791 Off ch=2 n=31 v=64
22798 On ch=2 n=43 v=110
23031 Off ch=2 n=43 v=64
23038 On ch=2 n=38 v=110
23271 Off ch=2 n=38 v=64
23278 On ch=2 n=50 v=110
23511 Off ch=2 n=50 v=64
23518 On ch=2 n=38 v=110
23751 Off ch=2 n=38 v=64
23758 On ch=2 n=50 v=110
23991 Off ch=2 n=50 v=64
23998 On ch=2 n=38 v=110
24231 Off ch=2 n=38 v=64
24238 On ch=2 n=50 v=110
24471 Off ch=2 n=50 v=64
24478 On ch=2 n=38 v=110
24711 Off ch=2 n=38 v=64
24718 On ch=2 n=50 v=110
24951 Off ch=2 n=50 v=64
24958 On ch=2 n=33 v=110
25191 Off ch=2 n=33 v=64
25198 On ch=2 n=45 v=110
25431 Off ch=2 n=45 v=64
25438 On ch=2 n=33 v=110
25671 Off ch=2 n=33 v=64
25678 On ch=2 n=45 v=110
25911 Off ch=2 n=45 v=64
25918 On ch=2 n=33 v=110
26151 Off ch=2 n=33 v=64
26158 On ch=2 n=45 v=110
26391 Off ch=2 n=45 v=64
26398 On ch=2 n=33 v=110
26631 Off ch=2 n=33 v=64
26638 On ch=2 n=45 v=110
26871 Off ch=2 n=45 v=64
26878 On ch=2 n=35 v=110
27111 Off ch=2 n=35 v=64
27118 On ch=2 n=47 v=110
27351 Off ch=2 n=47 v=64
27358 On ch=2 n=35 v=110
27591 Off ch=2 n=35 v=64
27598 On ch=2 n=47 v=110
27831 Off ch=2 n=47 v=64
27838 On ch=2 n=35 v=110
28071 Off ch=2 n=35 v=64
28078 On ch=2 n=47 v=110
28311 Off ch=2 n=47 v=64
28318 On ch=2 n=35 v=110
28551 Off ch=2 n=35 v=64
28558 On ch=2 n=47 v=110
28791 Off ch=2 n=47 v=64
28798 On ch=2 n=31 v=110
29031 Off ch=2 n=31 v=64
29038 On ch=2 n=43 v=110
29271 Off ch=2 n=43 v=64
29278 On ch=2 n=31 v=110
29511 Off ch=2 n=31 v=64
29518 On ch=2 n=43 v=110
29751 Off ch=2 n=43 v=64
29758 On ch=2 n=31 v=110
29991 Off ch=2 n=31 v=64
29998 On ch=2 n=43 v=110
30231 Off ch=2 n=43 v=64
30238 On ch=2 n=31 v=110
30471 Off ch=2 n=31 v=64
30478 On ch=2 n=43 v=110
30711 Off ch=2 n=43 v=64
30718 On ch=2 n=38 v=110
30951 Off ch=2 n=38 v=64
30958 On ch=2 n=50 v=110
31191 Off ch=2 n=50 v=64
31198 On ch=2 n=38 v=110
31431 Off ch=2 n=38 v=64
31438 On ch=2 n=50 v=110
31671 Off ch=2 n=50 v=64
31678 On ch=2 n=38 v=110
31911 Off ch=2 n=38 v=64
31918 On ch=2 n=50 v=110
32151 Off ch=2 n=50 v=64
32158 On ch=2 n=38 v=110
32391 Off ch=2 n=38 v=64
32398 On ch=2 n=50 v=110
32631 Off ch=2 n=50 v=64
32638 On ch=2 n=33 v=110
32871 Off ch=2 n=33 v=64
32878 On ch=2 n=45 v=110
33111 Off ch=2 n=45 v=64
33118 On ch=2 n=33 v=110
33351 Off ch=2 n=33 v=64
33358 On ch=2 n=45 v=110
33591 Off ch=2 n=45 v=64
33598 On ch=2 n=33 v=110
33831 Off ch=2 n=33 v=64
33838 On ch=2 n=45 v=110
34071 Off ch=2 n=45 v=64
34078 On ch=2 n=33 v=110
34311 Off ch=2 n=33 v=64
34318 On ch=2 n=45 v=110
34551 Off ch=2 n=45 v=64
34558 On ch=2 n=33 v=110
34791 Off ch=2 n=33 v=64
34798 On ch=2 n=45 v=110
35031 Off ch=2 n=45 v=64
35038 On ch=2 n=33 v=110
35271 Off ch=2 n=33 v=64
35278 On ch=2 n=45 v=106
35342 Off ch=2 n=45 v=64
35398 On ch=2 n=45 v=103
35462 Off ch=2 n=45 v=64
35518 On ch=2 n=45 v=112
35582 Off ch=2 n=45 v=64
35638 On ch=2 n=45 v=109
35702 Off ch=2 n=45 v=64
35758 On ch=2 n=45 v=109
35822 Off ch=2 n=45 v=64
35998 On ch=2 n=33 v=110
36231 Off ch=2 n=33 v=64
36238 On ch=2 n=45 v=110
36471 Off ch=2 n=45 v=64
36478 On ch=2 n=35 v=110
36711 Off ch=2 n=35 v=64
36718 On ch=2 n=47 v=110
36987 Off ch=2 n=47 v=64
37438 On ch=2 n=35 v=110
37671 Off ch=2 n=35 v=64
37678 On ch=2 n=47 v=110
37947 Off ch=2 n=47 v=64
38398 On ch=2 n=31 v=110
38631 Off ch=2 n=31 v=64
38638 On ch=2 n=43 v=110
38744 Off ch=2 n=43 v=64
38878 On ch=2 n=31 v=110
39111 Off ch=2 n=31 v=64
39118 On ch=2 n=43 v=110
39351 Off ch=2 n=43 v=64
39358 On ch=2 n=31 v=110
39562 Off ch=2 n=31 v=64
39838 On ch=2 n=31 v=110
40123 Off ch=2 n=31 v=64
40318 On ch=2 n=38 v=110
40551 Off ch=2 n=38 v=64
40558 On ch=2 n=50 v=110
40791 Off ch=2 n=50 v=64
40798 On ch=2 n=38 v=110
41031 Off ch=2 n=38 v=64
41038 On ch=2 n=50 v=110
41271 Off ch=2 n=50 v=64
41278 On ch=2 n=38 v=110
41511 Off ch=2 n=38 v=64
41518 On ch=2 n=50 v=110
41751 Off ch=2 n=50 v=64
41758 On ch=2 n=38 v=110
41991 Off ch=2 n=38 v=64
41998 On ch=2 n=50 v=110
42231 Off ch=2 n=50 v=64
42238 On ch=2 n=33 v=110
42471 Off ch=2 n=33 v=64
42478 On ch=2 n=45 v=110
42711 Off ch=2 n=45 v=64
42718 On ch=2 n=33 v=110
42951 Off ch=2 n=33 v=64
42958 On ch=2 n=45 v=110
43191 Off ch=2 n=45 v=64
43198 On ch=2 n=33 v=110
43395 Off ch=2 n=33 v=64
44398 On ch=2 n=35 v=109
44487 Off ch=2 n=35 v=64
44638 On ch=2 n=35 v=111
44712 Off ch=2 n=35 v=64
44758 On ch=2 n=35 v=108
44832 Off ch=2 n=35 v=64
44878 On ch=2 n=35 v=112
44952 Off ch=2 n=35 v=64
44998 On ch=2 n=35 v=118
45072 Off ch=2 n=35 v=64
45118 On ch=2 n=35 v=110
45351 Off ch=2 n=35 v=64
45358 On ch=2 n=47 v=110
45591 Off ch=2 n=47 v=64
45598 On ch=2 n=35 v=110
45831 Off ch=2 n=35 v=64
45838 On ch=2 n=47 v=110
46071 Off ch=2 n=47 v=64
46078 On ch=2 n=31 v=110
46311 Off ch=2 n=31 v=64
46318 On ch=2 n=43 v=110
46551 Off ch=2 n=43 v=64
46558 On ch=2 n=31 v=110
46791 Off ch=2 n=31 v=64
46798 On ch=2 n=43 v=110
47031 Off ch=2 n=43 v=64
47038 On ch=2 n=31 v=110
47271 Off ch=2 n=31 v=64
47278 On ch=2 n=43 v=110
47511 Off ch=2 n=43 v=64
47518 On ch=2 n=31 v=110
47751 Off ch=2 n=31 v=64
47758 On ch=2 n=43 v=110
47991 Off ch=2 n=43 v=64
47998 On ch=2 n=38 v=110
48231 Off ch=2 n=38 v=64
48238 On ch=2 n=50 v=110
48471 Off ch=2 n=50 v=64
48478 On ch=2 n=38 v=110
48711 Off ch=2 n=38 v=64
48718 On ch=2 n=50 v=110
48951 Off ch=2 n=50 v=64
48958 On ch=2 n=38 v=110
49189 Off ch=2 n=38 v=64
49198 On ch=2 n=50 v=110
49431 Off ch=2 n=50 v=64
49438 On ch=2 n=38 v=110
49671 Off ch=2 n=38 v=64
49678 On ch=2 n=50 v=110
49911 Off ch=2 n=50 v=64
49918 On ch=2 n=33 v=110
50151 Off ch=2 n=33 v=64
50158 On ch=2 n=45 v=110
50391 Off ch=2 n=45 v=64
50398 On ch=2 n=33 v=110
50631 Off ch=2 n=33 v=64
50638 On ch=2 n=45 v=110
50871 Off ch=2 n=45 v=64
50878 On ch=2 n=33 v=110
51111 Off ch=2 n=33 v=64
51118 On ch=2 n=45 v=110
51290 Off ch=2 n=45 v=64
51838 On ch=2 n=35 v=110
52071 Off ch=2 n=35 v=64
52078 On ch=2 n=47 v=110
52311 Off ch=2 n=47 v=64
52318 On ch=2 n=35 v=110
52551 Off ch=2 n=35 v=64
52558 On ch=2 n=47 v=110
52791 Off ch=2 n=47 v=64
52798 On ch=2 n=35 v=110
53031 Off ch=2 n=35 v=64
53038 On ch=2 n=47 v=110
53271 Off ch=2 n=47 v=64
53278 On ch=2 n=35 v=110
53511 Off ch=2 n=35 v=64
53518 On ch=2 n=47 v=110
53751 Off ch=2 n=47 v=64
53758 On ch=2 n=31 v=110
53991 Off ch=2 n=31 v=64
53998 On ch=2 n=43 v=110
54231 Off ch=2 n=43 v=64
54238 On ch=2 n=31 v=110
54471 Off ch=2 n=31 v=64
54478 On ch=2 n=43 v=110
54711 Off ch=2 n=43 v=64
54718 On ch=2 n=31 v=110
54951 Off ch=2 n=31 v=64
54958 On ch=2 n=43 v=110
55191 Off ch=2 n=43 v=64
55198 On ch=2 n=31 v=110
55431 Off ch=2 n=31 v=64
55438 On ch=2 n=43 v=110
55671 Off ch=2 n=43 v=64
55678 On ch=2 n=38 v=110
55911 Off ch=2 n=38 v=64
55918 On ch=2 n=50 v=110
56151 Off ch=2 n=50 v=64
56158 On ch=2 n=38 v=110
56391 Off ch=2 n=38 v=64
56398 On ch=2 n=50 v=110
56631 Off ch=2 n=50 v=64
56638 On ch=2 n=38 v=110
56871 Off ch=2 n=38 v=64
56878 On ch=2 n=50 v=110
57111 Off ch=2 n=50 v=64
57118 On ch=2 n=38 v=110
57351 Off ch=2 n=38 v=64
57358 On ch=2 n=50 v=110
57591 Off ch=2 n=50 v=64
57598 On ch=2 n=33 v=110
57831 Off ch=2 n=33 v=64
57838 On ch=2 n=45 v=110
58071 Off ch=2 n=45 v=64
58078 On ch=2 n=33 v=110
58311 Off ch=2 n=33 v=64
58318 On ch=2 n=45 v=110
58551 Off ch=2 n=45 v=64
58558 On ch=2 n=33 v=110
58791 Off ch=2 n=33 v=64
58798 On ch=2 n=45 v=110
59031 Off ch=2 n=45 v=64
59038 On ch=2 n=33 v=110
59271 Off ch=2 n=33 v=64
59278 On ch=2 n=45 v=110
59511 Off ch=2 n=45 v=64
59518 On ch=2 n=35 v=110
59751 Off ch=2 n=35 v=64
59758 On ch=2 n=47 v=110
59991 Off ch=2 n=47 v=64
59998 On ch=2 n=35 v=110
60231 Off ch=2 n=35 v=64
60238 On ch=2 n=47 v=110
60471 Off ch=2 n=47 v=64
60478 On ch=2 n=35 v=110
60711 Off ch=2 n=35 v=64
60718 On ch=2 n=47 v=110
60951 Off ch=2 n=47 v=64
60958 On ch=2 n=35 v=110
61191 Off ch=2 n=35 v=64
61198 On ch=2 n=47 v=110
61431 Off ch=2 n=47 v=64
63358 On ch=2 n=38 v=110
63591 Off ch=2 n=38 v=64
63598 On ch=2 n=50 v=110
63831 Off ch=2 n=50 v=64
63838 On ch=2 n=38 v=110
64071 Off ch=2 n=38 v=64
64078 On ch=2 n=50 v=110
64311 Off ch=2 n=50 v=64
64318 On ch=2 n=38 v=110
64551 Off ch=2 n=38 v=64
64558 On ch=2 n=50 v=110
64791 Off ch=2 n=50 v=64
64798 On ch=2 n=38 v=110
65031 Off ch=2 n=38 v=64
65038 On ch=2 n=50 v=110
65271 Off ch=2 n=50 v=64
65278 On ch=2 n=33 v=110
65511 Off ch=2 n=33 v=64
69118 On ch=2 n=31 v=110
69351 Off ch=2 n=31 v=64
69358 On ch=2 n=43 v=110
69591 Off ch=2 n=43 v=64
69598 On ch=2 n=31 v=110
69831 Off ch=2 n=31 v=64
69838 On ch=2 n=43 v=110
70071 Off ch=2 n=43 v=64
70078 On ch=2 n=31 v=110
70311 Off ch=2 n=31 v=64
70318 On ch=2 n=43 v=110
70551 Off ch=2 n=43 v=64
70558 On ch=2 n=31 v=110
70791 Off ch=2 n=31 v=64
70798 On ch=2 n=43 v=110
71031 Off ch=2 n=43 v=64
71038 On ch=2 n=38 v=110
71271 Off ch=2 n=38 v=64
71278 On ch=2 n=50 v=110
71511 Off ch=2 n=50 v=64
71518 On ch=2 n=38 v=110
71751 Off ch=2 n=38 v=64
71758 On ch=2 n=50 v=110
71991 Off ch=2 n=50 v=64
71998 On ch=2 n=38 v=110
72231 Off ch=2 n=38 v=64
72238 On ch=2 n=50 v=110
72471 Off ch=2 n=50 v=64
72478 On ch=2 n=38 v=110
72711 Off ch=2 n=38 v=64
72718 On ch=2 n=50 v=110
72951 Off ch=2 n=50 v=64
72958 On ch=2 n=33 v=110
73191 Off ch=2 n=33 v=64
73198 On ch=2 n=45 v=110
73431 Off ch=2 n=45 v=64
73438 On ch=2 n=33 v=110
73671 Off ch=2 n=33 v=64
73678 On ch=2 n=45 v=110
73911 Off ch=2 n=45 v=64
73918 On ch=2 n=33 v=110
74151 Off ch=2 n=33 v=64
74158 On ch=2 n=45 v=110
74391 Off ch=2 n=45 v=64
74398 On ch=2 n=33 v=110
74631 Off ch=2 n=33 v=64
74638 On ch=2 n=45 v=110
74871 Off ch=2 n=45 v=64
74878 On ch=2 n=35 v=110
75111 Off ch=2 n=35 v=64
75118 On ch=2 n=47 v=110
75351 Off ch=2 n=47 v=64
75358 On ch=2 n=35 v=110
75591 Off ch=2 n=35 v=64
75598 On ch=2 n=47 v=110
75831 Off ch=2 n=47 v=64
75838 On ch=2 n=35 v=110
76071 Off ch=2 n=35 v=64
76078 On ch=2 n=47 v=110
76311 Off ch=2 n=47 v=64
76318 On ch=2 n=35 v=110
76551 Off ch=2 n=35 v=64
76558 On ch=2 n=47 v=110
76791 Off ch=2 n=47 v=64
76798 On ch=2 n=31 v=110
77031 Off ch=2 n=31 v=64
77038 On ch=2 n=43 v=110
77271 Off ch=2 n=43 v=64
77278 On ch=2 n=31 v=110
77511 Off ch=2 n=31 v=64
77518 On ch=2 n=43 v=110
77751 Off ch=2 n=43 v=64
77758 On ch=2 n=31 v=110
77991 Off ch=2 n=31 v=64
77998 On ch=2 n=43 v=110
78231 Off ch=2 n=43 v=64
78238 On ch=2 n=31 v=110
78471 Off ch=2 n=31 v=64
78478 On ch=2 n=43 v=110
78711 Off ch=2 n=43 v=64
78718 On ch=2 n=38 v=110
78951 Off ch=2 n=38 v=64
78958 On ch=2 n=50 v=110
79191 Off ch=2 n=50 v=64
79198 On ch=2 n=38 v=110
79431 Off ch=2 n=38 v=64
79438 On ch=2 n=50 v=110
79671 Off ch=2 n=50 v=64
79678 On ch=2 n=38 v=110
79911 Off ch=2 n=38 v=64
79918 On ch=2 n=50 v=110
80151 Off ch=2 n=50 v=64
80158 On ch=2 n=38 v=110
80391 Off ch=2 n=38 v=64
80398 On ch=2 n=50 v=110
80631 Off ch=2 n=50 v=64
80638 On ch=2 n=33 v=110
80871 Off ch=2 n=33 v=64
80878 On ch=2 n=45 v=110
81111 Off ch=2 n=45 v=64
81118 On ch=2 n=33 v=110
81351 Off ch=2 n=33 v=64
81358 On ch=2 n=45 v=110
81591 Off ch=2 n=45 v=64
81598 On ch=2 n=33 v=110
81831 Off ch=2 n=33 v=64
81838 On ch=2 n=45 v=110
82071 Off ch=2 n=45 v=64
82078 On ch=2 n=33 v=110
82311 Off ch=2 n=33 v=64
82318 On ch=2 n=45 v=110
82551 Off ch=2 n=45 v=64
82558 On ch=2 n=35 v=110
82791 Off ch=2 n=35 v=64
82798 On ch=2 n=47 v=110
83031 Off ch=2 n=47 v=64
83038 On ch=2 n=35 v=110
83271 Off ch=2 n=35 v=64
83278 On ch=2 n=47 v=110
83511 Off ch=2 n=47 v=64
83518 On ch=2 n=35 v=110
83751 Off ch=2 n=35 v=64
83758 On ch=2 n=47 v=110
83991 Off ch=2 n=47 v=64
83998 On ch=2 n=35 v=110
84231 Off ch=2 n=35 v=64
84238 On ch=2 n=47 v=110
84471 Off ch=2 n=47 v=64
84478 On ch=2 n=31 v=110
84711 Off ch=2 n=31 v=64
84718 On ch=2 n=43 v=110
84951 Off ch=2 n=43 v=64
84958 On ch=2 n=31 v=110
85191 Off ch=2 n=31 v=64
85198 On ch=2 n=43 v=110
85431 Off ch=2 n=43 v=64
85438 On ch=2 n=31 v=110
85671 Off ch=2 n=31 v=64
85678 On ch=2 n=43 v=110
85911 Off ch=2 n=43 v=64
85918 On ch=2 n=31 v=110
86151 Off ch=2 n=31 v=64
86158 On ch=2 n=43 v=110
86391 Off ch=2 n=43 v=64
86398 On ch=2 n=38 v=110
86631 Off ch=2 n=38 v=64
86638 On ch=2 n=50 v=110
86871 Off ch=2 n=50 v=64
86878 On ch=2 n=38 v=110
87111 Off ch=2 n=38 v=64
87118 On ch=2 n=50 v=110
87351 Off ch=2 n=50 v=64
87358 On ch=2 n=38 v=110
87591 Off ch=2 n=38 v=64
87598 On ch=2 n=50 v=110
87831 Off ch=2 n=50 v=64
87838 On ch=2 n=38 v=110
88071 Off ch=2 n=38 v=64
88078 On ch=2 n=50 v=110
88311 Off ch=2 n=50 v=64
88318 On ch=2 n=33 v=110
88551 Off ch=2 n=33 v=64
88558 On ch=2 n=45 v=110
88791 Off ch=2 n=45 v=64
88798 On ch=2 n=33 v=110
89031 Off ch=2 n=33 v=64
89038 On ch=2 n=45 v=110
89271 Off ch=2 n=45 v=64
89278 On ch=2 n=33 v=110
89511 Off ch=2 n=33 v=64
89518 On ch=2 n=45 v=110
89751 Off ch=2 n=45 v=64
89758 On ch=2 n=33 v=110
89991 Off ch=2 n=33 v=64
89998 On ch=2 n=45 v=110
90231 Off ch=2 n=45 v=64
90238 On ch=2 n=35 v=110
90471 Off ch=2 n=35 v=64
90478 On ch=2 n=47 v=110
90711 Off ch=2 n=47 v=64
90718 On ch=2 n=35 v=110
90951 Off ch=2 n=35 v=64
90958 On ch=2 n=47 v=110
91191 Off ch=2 n=47 v=64
91198 On ch=2 n=35 v=110
91431 Off ch=2 n=35 v=64
91438 On ch=2 n=47 v=110
91671 Off ch=2 n=47 v=64
91678 On ch=2 n=35 v=110
91911 Off ch=2 n=35 v=64
91918 On ch=2 n=47 v=110
92151 Off ch=2 n=47 v=64
92158 On ch=2 n=31 v=110
92391 Off ch=2 n=31 v=64
92398 On ch=2 n=43 v=110
92631 Off ch=2 n=43 v=64
92638 On ch=2 n=31 v=110
92871 Off ch=2 n=31 v=64
92878 On ch=2 n=43 v=110
93111 Off ch=2 n=43 v=64
93118 On ch=2 n=31 v=110
93351 Off ch=2 n=31 v=64
93358 On ch=2 n=43 v=110
93591 Off ch=2 n=43 v=64
93598 On ch=2 n=31 v=110
93831 Off ch=2 n=31 v=64
93838 On ch=2 n=43 v=110
94071 Off ch=2 n=43 v=64
94078 On ch=2 n=38 v=110
94311 Off ch=2 n=38 v=64
94318 On ch=2 n=50 v=110
94551 Off ch=2 n=50 v=64
94558 On ch=2 n=38 v=110
94791 Off ch=2 n=38 v=64
94798 On ch=2 n=50 v=110
95031 Off ch=2 n=50 v=64
95038 On ch=2 n=38 v=110
95271 Off ch=2 n=38 v=64
95278 On ch=2 n=50 v=110
95511 Off ch=2 n=50 v=64
95518 On ch=2 n=38 v=110
95751 Off ch=2 n=38 v=64
95758 On ch=2 n=50 v=110
95991 Off ch=2 n=50 v=64
95998 On ch=2 n=33 v=110
96231 Off ch=2 n=33 v=64
96238 On ch=2 n=45 v=110
96471 Off ch=2 n=45 v=64
96478 On ch=2 n=33 v=110
96711 Off ch=2 n=33 v=64
96718 On ch=2 n=45 v=110
96951 Off ch=2 n=45 v=64
96958 On ch=2 n=33 v=110
97191 Off ch=2 n=33 v=64
97198 On ch=2 n=45 v=110
97431 Off ch=2 n=45 v=64
97438 On ch=2 n=33 v=110
97671 Off ch=2 n=33 v=64
97678 On ch=2 n=45 v=110
97911 Off ch=2 n=45 v=64
97918 On ch=2 n=35 v=110
98151 Off ch=2 n=35 v=64
98158 On ch=2 n=47 v=110
98391 Off ch=2 n=47 v=64
98398 On ch=2 n=35 v=110
98631 Off ch=2 n=35 v=64
98638 On ch=2 n=47 v=110
98871 Off ch=2 n=47 v=64
98878 On ch=2 n=35 v=110
99111 Off ch=2 n=35 v=64
99118 On ch=2 n=47 v=110
99351 Off ch=2 n=47 v=64
99358 On ch=2 n=35 v=110
99591 Off ch=2 n=35 v=64
99598 On ch=2 n=47 v=110
99831 Off ch=2 n=47 v=64
99838 On ch=2 n=31 v=110
100071 Off ch=2 n=31 v=64
100078 On ch=2 n=43 v=110
100311 Off ch=2 n=43 v=64
100318 On ch=2 n=31 v=110
100551 Off ch=2 n=31 v=64
100558 On ch=2 n=43 v=110
100791 Off ch=2 n=43 v=64
100798 On ch=2 n=31 v=110
101031 Off ch=2 n=31 v=64
101038 On ch=2 n=43 v=110
101271 Off ch=2 n=43 v=64
101278 On ch=2 n=31 v=110
101511 Off ch=2 n=31 v=64
101518 On ch=2 n=43 v=110
101751 Off ch=2 n=43 v=64
101758 On ch=2 n=38 v=110
101991 Off ch=2 n=38 v=64
101998 On ch=2 n=50 v=110
102231 Off ch=2 n=50 v=64
102238 On ch=2 n=38 v=110
102471 Off ch=2 n=38 v=64
102478 On ch=2 n=50 v=110
102711 Off ch=2 n=50 v=64
102718 On ch=2 n=38 v=110
102951 Off ch=2 n=38 v=64
102958 On ch=2 n=50 v=110
103191 Off ch=2 n=50 v=64
103198 On ch=2 n=38 v=110
103431 Off ch=2 n=38 v=64
103438 On ch=2 n=50 v=110
103671 Off ch=2 n=50 v=64
103678 On ch=2 n=33 v=110
103911 Off ch=2 n=33 v=64
103918 On ch=2 n=45 v=110
104151 Off ch=2 n=45 v=64
104158 On ch=2 n=33 v=110
104391 Off ch=2 n=33 v=64
104398 On ch=2 n=45 v=110
104631 Off ch=2 n=45 v=64
104638 On ch=2 n=33 v=110
104871 Off ch=2 n=33 v=64
104878 On ch=2 n=45 v=110
105111 Off ch=2 n=45 v=64
105118 On ch=2 n=33 v=110
105351 Off ch=2 n=33 v=64
105358 On ch=2 n=45 v=110
105591 Off ch=2 n=45 v=64
105598 On ch=2 n=35 v=110
105831 Off ch=2 n=35 v=64
105838 On ch=2 n=47 v=110
106071 Off ch=2 n=47 v=64
106078 On ch=2 n=35 v=110
106311 Off ch=2 n=35 v=64
106318 On ch=2 n=47 v=110
106551 Off ch=2 n=47 v=64
106558 On ch=2 n=35 v=110
106791 Off ch=2 n=35 v=64
106798 On ch=2 n=47 v=110
107031 Off ch=2 n=47 v=64
107038 On ch=2 n=35 v=110
107271 Off ch=2 n=35 v=64
107278 On ch=2 n=47 v=110
107511 Off ch=2 n=47 v=64
107518 On ch=2 n=31 v=110
107751 Off ch=2 n=31 v=64
107758 On ch=2 n=43 v=110
107991 Off ch=2 n=43 v=64
107998 On ch=2 n=31 v=110
108231 Off ch=2 n=31 v=64
108238 On ch=2 n=43 v=110
108471 Off ch=2 n=43 v=64
108478 On ch=2 n=31 v=110
108711 Off ch=2 n=31 v=64
108718 On ch=2 n=43 v=110
108951 Off ch=2 n=43 v=64
108958 On ch=2 n=31 v=110
109191 Off ch=2 n=31 v=64
109198 On ch=2 n=43 v=110
109431 Off ch=2 n=43 v=64
109438 On ch=2 n=38 v=110
109671 Off ch=2 n=38 v=64
109678 On ch=2 n=50 v=110
109911 Off ch=2 n=50 v=64
109918 On ch=2 n=38 v=110
110151 Off ch=2 n=38 v=64
110158 On ch=2 n=50 v=110
110391 Off ch=2 n=50 v=64
110398 On ch=2 n=38 v=110
110631 Off ch=2 n=38 v=64
110638 On ch=2 n=50 v=110
110871 Off ch=2 n=50 v=64
110878 On ch=2 n=38 v=110
111111 Off ch=2 n=38 v=64
111118 On ch=2 n=50 v=110
111351 Off ch=2 n=50 v=64
111358 On ch=2 n=33 v=110
111591 Off ch=2 n=33 v=64
111598 On ch=2 n=45 v=110
111831 Off ch=2 n=45 v=64
111838 On ch=2 n=33 v=110
112071 Off ch=2 n=33 v=64
112078 On ch=2 n=45 v=110
112311 Off ch=2 n=45 v=64
112318 On ch=2 n=33 v=110
112551 Off ch=2 n=33 v=64
112558 On ch=2 n=45 v=110
112791 Off ch=2 n=45 v=64
112798 On ch=2 n=33 v=110
113031 Off ch=2 n=33 v=64
113038 On ch=2 n=45 v=110
113271 Off ch=2 n=45 v=64
113278 On ch=2 n=35 v=110
113511 Off ch=2 n=35 v=64
113518 On ch=2 n=47 v=110
113751 Off ch=2 n=47 v=64
113758 On ch=2 n=35 v=110
113991 Off ch=2 n=35 v=64
113998 On ch=2 n=47 v=110
114231 Off ch=2 n=47 v=64
114238 On ch=2 n=35 v=110
114471 Off ch=2 n=35 v=64
114478 On ch=2 n=47 v=110
114711 Off ch=2 n=47 v=64
114718 On ch=2 n=35 v=112
114933 Off ch=2 n=35 v=64
114958 On ch=2 n=47 v=113
115132 Off ch=2 n=47 v=64
115198 On ch=2 n=31 v=110
115431 Off ch=2 n=31 v=64
115438 On ch=2 n=43 v=110
115544 Off ch=2 n=43 v=64
115678 On ch=2 n=31 v=110
115911 Off ch=2 n=31 v=64
115918 On ch=2 n=43 v=110
116151 Off ch=2 n=43 v=64
116158 On ch=2 n=31 v=110
116362 Off ch=2 n=31 v=64
116638 On ch=2 n=31 v=110
116923 Off ch=2 n=31 v=64
117118 On ch=2 n=38 v=110
117351 Off ch=2 n=38 v=64
117358 On ch=2 n=50 v=110
117591 Off ch=2 n=50 v=64
117598 On ch=2 n=38 v=110
117831 Off ch=2 n=38 v=64
117838 On ch=2 n=50 v=110
118071 Off ch=2 n=50 v=64
120958 On ch=2 n=35 v=110
121191 Off ch=2 n=35 v=64
121198 On ch=2 n=47 v=110
121431 Off ch=2 n=47 v=64
121438 On ch=2 n=35 v=110
121671 Off ch=2 n=35 v=64
121678 On ch=2 n=47 v=110
121911 Off ch=2 n=47 v=64
121918 On ch=2 n=35 v=110
122151 Off ch=2 n=35 v=64
122158 On ch=2 n=47 v=110
122391 Off ch=2 n=47 v=64
122398 On ch=2 n=35 v=112
122613 Off ch=2 n=35 v=64
122638 On ch=2 n=47 v=113
122812 Off ch=2 n=47 v=64
122878 On ch=2 n=31 v=110
123111 Off ch=2 n=31 v=64
123118 On ch=2 n=43 v=110
123351 Off ch=2 n=43 v=64
123358 On ch=2 n=31 v=110
123591 Off ch=2 n=31 v=64
123598 On ch=2 n=43 v=110
123831 Off ch=2 n=43 v=64
123838 On ch=2 n=31 v=110
124071 Off ch=2 n=31 v=64
124078 On ch=2 n=43 v=110
124311 Off ch=2 n=43 v=64
124318 On ch=2 n=31 v=110
124551 Off ch=2 n=31 v=64
124558 On ch=2 n=43 v=110
124791 Off ch=2 n=43 v=64
124798 On ch=2 n=38 v=110
125031 Off ch=2 n=38 v=64
125038 On ch=2 n=50 v=110
125271 Off ch=2 n=50 v=64
125278 On ch=2 n=38 v=110
125511 Off ch=2 n=38 v=64
125518 On ch=2 n=50 v=110
125751 Off ch=2 n=50 v=64
125758 On ch=2 n=38 v=110
125989 Off ch=2 n=38 v=64
125998 On ch=2 n=50 v=110
126231 Off ch=2 n=50 v=64
126238 On ch=2 n=38 v=110
126471 Off ch=2 n=38 v=64
126478 On ch=2 n=50 v=110
126711 Off ch=2 n=50 v=64
126718 On ch=2 n=33 v=110
126909 Off ch=2 n=33 v=64
130558 On ch=2 n=31 v=110
130791 Off ch=2 n=31 v=64
130798 On ch=2 n=43 v=110
131031 Off ch=2 n=43 v=64
131038 On ch=2 n=31 v=110
131271 Off ch=2 n=31 v=64
131278 On ch=2 n=43 v=110
131511 Off ch=2 n=43 v=64
131518 On ch=2 n=31 v=110
131751 Off ch=2 n=31 v=64
131758 On ch=2 n=43 v=110
131991 Off ch=2 n=43 v=64
131998 On ch=2 n=31 v=110
132231 Off ch=2 n=31 v=64
132238 On ch=2 n=43 v=110
132471 Off ch=2 n=43 v=64
132478 On ch=2 n=38 v=110
132711 Off ch=2 n=38 v=64
132718 On ch=2 n=50 v=110
132951 Off ch=2 n=50 v=64
132958 On ch=2 n=38 v=110
133191 Off ch=2 n=38 v=64
133198 On ch=2 n=50 v=110
133431 Off ch=2 n=50 v=64
133438 On ch=2 n=38 v=110
133671 Off ch=2 n=38 v=64
133678 On ch=2 n=50 v=110
133911 Off ch=2 n=50 v=64
133918 On ch=2 n=38 v=110
134151 Off ch=2 n=38 v=64
134158 On ch=2 n=50 v=110
134391 Off ch=2 n=50 v=64
134398 On ch=2 n=33 v=110
134631 Off ch=2 n=33 v=64
134638 On ch=2 n=45 v=110
134871 Off ch=2 n=45 v=64
134878 On ch=2 n=33 v=110
135111 Off ch=2 n=33 v=64
135118 On ch=2 n=45 v=110
135351 Off ch=2 n=45 v=64
135358 On ch=2 n=33 v=110
135591 Off ch=2 n=33 v=64
135598 On ch=2 n=45 v=110
135831 Off ch=2 n=45 v=64
135838 On ch=2 n=33 v=110
136071 Off ch=2 n=33 v=64
136078 On ch=2 n=45 v=110
136311 Off ch=2 n=45 v=64
136318 On ch=2 n=35 v=110
136551 Off ch=2 n=35 v=64
136558 On ch=2 n=47 v=110
136791 Off ch=2 n=47 v=64
136798 On ch=2 n=35 v=110
137031 Off ch=2 n=35 v=64
137038 On ch=2 n=47 v=110
137271 Off ch=2 n=47 v=64
137278 On ch=2 n=35 v=110
137511 Off ch=2 n=35 v=64
137518 On ch=2 n=47 v=110
137751 Off ch=2 n=47 v=64
137758 On ch=2 n=35 v=110
137991 Off ch=2 n=35 v=64
137998 On ch=2 n=47 v=110
138231 Off ch=2 n=47 v=64
138238 On ch=2 n=31 v=110
138471 Off ch=2 n=31 v=64
138478 On ch=2 n=43 v=110
138711 Off ch=2 n=43 v=64
138718 On ch=2 n=31 v=110
138951 Off ch=2 n=31 v=64
138958 On ch=2 n=43 v=110
139191 Off ch=2 n=43 v=64
139198 On ch=2 n=31 v=110
139431 Off ch=2 n=31 v=64
139438 On ch=2 n=43 v=110
139671 Off ch=2 n=43 v=64
139678 On ch=2 n=31 v=110
139911 Off ch=2 n=31 v=64
139918 On ch=2 n=43 v=110
140151 Off ch=2 n=43 v=64
140158 On ch=2 n=38 v=110
140391 Off ch=2 n=38 v=64
140398 On ch=2 n=50 v=110
140631 Off ch=2 n=50 v=64
140638 On ch=2 n=38 v=110
140871 Off ch=2 n=38 v=64
140878 On ch=2 n=50 v=110
141111 Off ch=2 n=50 v=64
141118 On ch=2 n=38 v=110
141351 Off ch=2 n=38 v=64
141358 On ch=2 n=50 v=110
141591 Off ch=2 n=50 v=64
141598 On ch=2 n=38 v=110
141831 Off ch=2 n=38 v=64
141838 On ch=2 n=50 v=110
142071 Off ch=2 n=50 v=64
142078 On ch=2 n=33 v=110
142311 Off ch=2 n=33 v=64
142318 On ch=2 n=45 v=110
142551 Off ch=2 n=45 v=64
142558 On ch=2 n=33 v=110
142791 Off ch=2 n=33 v=64
142798 On ch=2 n=45 v=110
143031 Off ch=2 n=45 v=64
143038 On ch=2 n=33 v=110
143271 Off ch=2 n=33 v=64
143278 On ch=2 n=45 v=110
143511 Off ch=2 n=45 v=64
143518 On ch=2 n=33 v=110
143751 Off ch=2 n=33 v=64
143758 On ch=2 n=45 v=110
143991 Off ch=2 n=45 v=64
143998 On ch=2 n=35 v=110
144231 Off ch=2 n=35 v=64
144238 On ch=2 n=47 v=110
144471 Off ch=2 n=47 v=64
144478 On ch=2 n=35 v=110
144711 Off ch=2 n=35 v=64
144718 On ch=2 n=47 v=110
144951 Off ch=2 n=47 v=64
144958 On ch=2 n=35 v=110
145191 Off ch=2 n=35 v=64
145198 On ch=2 n=47 v=110
145431 Off ch=2 n=47 v=64
145438 On ch=2 n=35 v=110
145671 Off ch=2 n=35 v=64
145678 On ch=2 n=47 v=110
145911 Off ch=2 n=47 v=64
145918 On ch=2 n=31 v=110
146151 Off ch=2 n=31 v=64
146158 On ch=2 n=43 v=110
146391 Off ch=2 n=43 v=64
146398 On ch=2 n=31 v=110
146631 Off ch=2 n=31 v=64
146638 On ch=2 n=43 v=110
146871 Off ch=2 n=43 v=64
146878 On ch=2 n=31 v=110
147111 Off ch=2 n=31 v=64
147118 On ch=2 n=43 v=110
147351 Off ch=2 n=43 v=64
147358 On ch=2 n=31 v=110
147591 Off ch=2 n=31 v=64
147598 On ch=2 n=43 v=110
147831 Off ch=2 n=43 v=64
147838 On ch=2 n=38 v=110
148071 Off ch=2 n=38 v=64
148078 On ch=2 n=50 v=110
148311 Off ch=2 n=50 v=64
148318 On ch=2 n=38 v=110
148551 Off ch=2 n=38 v=64
148558 On ch=2 n=50 v=110
148791 Off ch=2 n=50 v=64
148798 On ch=2 n=38 v=110
149031 Off ch=2 n=38 v=64
149038 On ch=2 n=50 v=110
149271 Off ch=2 n=50 v=64
149278 On ch=2 n=38 v=110
149511 Off ch=2 n=38 v=64
149518 On ch=2 n=50 v=110
149751 Off ch=2 n=50 v=64
149758 On ch=2 n=33 v=110
149991 Off ch=2 n=33 v=64
149998 On ch=2 n=45 v=110
150231 Off ch=2 n=45 v=64
150238 On ch=2 n=33 v=110
150471 Off ch=2 n=33 v=64
150478 On ch=2 n=45 v=110
150711 Off ch=2 n=45 v=64
150718 On ch=2 n=33 v=110
150951 Off ch=2 n=33 v=64
150958 On ch=2 n=45 v=110
151191 Off ch=2 n=45 v=64
151198 On ch=2 n=33 v=110
151431 Off ch=2 n=33 v=64
151438 On ch=2 n=45 v=110
151671 Off ch=2 n=45 v=64
151678 On ch=2 n=35 v=110
151911 Off ch=2 n=35 v=64
151918 On ch=2 n=47 v=110
152151 Off ch=2 n=47 v=64
152158 On ch=2 n=35 v=110
152391 Off ch=2 n=35 v=64
152398 On ch=2 n=47 v=110
152631 Off ch=2 n=47 v=64
152638 On ch=2 n=35 v=110
152871 Off ch=2 n=35 v=64
152878 On ch=2 n=47 v=110
153111 Off ch=2 n=47 v=64
153118 On ch=2 n=35 v=110
153351 Off ch=2 n=35 v=64
153358 On ch=2 n=47 v=110
153591 Off ch=2 n=47 v=64
153598 On ch=2 n=31 v=110
153831 Off ch=2 n=31 v=64
153838 On ch=2 n=43 v=110
154071 Off ch=2 n=43 v=64
154078 On ch=2 n=31 v=110
154311 Off ch=2 n=31 v=64
154318 On ch=2 n=43 v=110
154551 Off ch=2 n=43 v=64
154558 On ch=2 n=31 v=110
154791 Off ch=2 n=31 v=64
154798 On ch=2 n=43 v=110
155031 Off ch=2 n=43 v=64
155038 On ch=2 n=31 v=110
155271 Off ch=2 n=31 v=64
155278 On ch=2 n=43 v=110
155511 Off ch=2 n=43 v=64
155518 On ch=2 n=38 v=110
155751 Off ch=2 n=38 v=64
155758 On ch=2 n=50 v=110
155991 Off ch=2 n=50 v=64
155998 On ch=2 n=38 v=110
156231 Off ch=2 n=38 v=64
156238 On ch=2 n=50 v=110
156471 Off ch=2 n=50 v=64
156478 On ch=2 n=38 v=110
156711 Off ch=2 n=38 v=64
156718 On ch=2 n=50 v=110
156951 Off ch=2 n=50 v=64
156958 On ch=2 n=38 v=110
157191 Off ch=2 n=38 v=64
157198 On ch=2 n=50 v=110
157431 Off ch=2 n=50 v=64
157438 On ch=2 n=33 v=110
157671 Off ch=2 n=33 v=64
157678 On ch=2 n=45 v=110
157911 Off ch=2 n=45 v=64
157918 On ch=2 n=33 v=110
158151 Off ch=2 n=33 v=64
158158 On ch=2 n=45 v=110
158391 Off ch=2 n=45 v=64
158398 On ch=2 n=33 v=110
158631 Off ch=2 n=33 v=64
158638 On ch=2 n=45 v=110
158871 Off ch=2 n=45 v=64
158878 On ch=2 n=33 v=110
159111 Off ch=2 n=33 v=64
159118 On ch=2 n=45 v=110
159351 Off ch=2 n=45 v=64
176638 On ch=2 n=31 v=110
176871 Off ch=2 n=31 v=64
176878 On ch=2 n=43 v=110
177111 Off ch=2 n=43 v=64
177118 On ch=2 n=31 v=110
177351 Off ch=2 n=31 v=64
177358 On ch=2 n=43 v=110
177591 Off ch=2 n=43 v=64
177598 On ch=2 n=31 v=110
177831 Off ch=2 n=31 v=64
177838 On ch=2 n=43 v=110
178071 Off ch=2 n=43 v=64
178078 On ch=2 n=31 v=110
178311 Off ch=2 n=31 v=64
178318 On ch=2 n=43 v=110
178551 Off ch=2 n=43 v=64
178558 On ch=2 n=38 v=110
178791 Off ch=2 n=38 v=64
178798 On ch=2 n=50 v=110
179031 Off ch=2 n=50 v=64
179038 On ch=2 n=38 v=110
179271 Off ch=2 n=38 v=64
179278 On ch=2 n=50 v=110
179511 Off ch=2 n=50 v=64
179518 On ch=2 n=38 v=110
179751 Off ch=2 n=38 v=64
179758 On ch=2 n=50 v=110
179991 Off ch=2 n=50 v=64
179998 On ch=2 n=38 v=110
180231 Off ch=2 n=38 v=64
180238 On ch=2 n=50 v=110
180471 Off ch=2 n=50 v=64
180478 On ch=2 n=33 v=110
180711 Off ch=2 n=33 v=64
180718 On ch=2 n=45 v=110
180951 Off ch=2 n=45 v=64
180958 On ch=2 n=33 v=110
181191 Off ch=2 n=33 v=64
181198 On ch=2 n=45 v=110
181431 Off ch=2 n=45 v=64
181438 On ch=2 n=33 v=110
181671 Off ch=2 n=33 v=64
181678 On ch=2 n=45 v=110
181911 Off ch=2 n=45 v=64
181918 On ch=2 n=33 v=110
182151 Off ch=2 n=33 v=64
182158 On ch=2 n=45 v=110
182391 Off ch=2 n=45 v=64
182398 On ch=2 n=35 v=110
182631 Off ch=2 n=35 v=64
182638 On ch=2 n=47 v=110
182871 Off ch=2 n=47 v=64
182878 On ch=2 n=35 v=110
183111 Off ch=2 n=35 v=64
183118 On ch=2 n=47 v=110
183351 Off ch=2 n=47 v=64
183358 On ch=2 n=35 v=110
183591 Off ch=2 n=35 v=64
183598 On ch=2 n=47 v=110
183831 Off ch=2 n=47 v=64
183838 On ch=2 n=35 v=110
184071 Off ch=2 n=35 v=64
184078 On ch=2 n=47 v=110
184311 Off ch=2 n=47 v=64
184318 On ch=2 n=31 v=110
184551 Off ch=2 n=31 v=64
184558 On ch=2 n=43 v=110
184791 Off ch=2 n=43 v=64
184798 On ch=2 n=31 v=110
185031 Off ch=2 n=31 v=64
185038 On ch=2 n=43 v=110
185271 Off ch=2 n=43 v=64
185278 On ch=2 n=31 v=110
185511 Off ch=2 n=31 v=64
185518 On ch=2 n=43 v=110
185751 Off ch=2 n=43 v=64
185758 On ch=2 n=31 v=110
185991 Off ch=2 n=31 v=64
185998 On ch=2 n=43 v=110
186231 Off ch=2 n=43 v=64
186238 On ch=2 n=38 v=110
186471 Off ch=2 n=38 v=64
186478 On ch=2 n=50 v=110
186711 Off ch=2 n=50 v=64
186718 On ch=2 n=38 v=110
186951 Off ch=2 n=38 v=64
186958 On ch=2 n=50 v=110
187191 Off ch=2 n=50 v=64
187198 On ch=2 n=38 v=110
187431 Off ch=2 n=38 v=64
187438 On ch=2 n=50 v=110
187671 Off ch=2 n=50 v=64
187678 On ch=2 n=38 v=110
187911 Off ch=2 n=38 v=64
187918 On ch=2 n=50 v=110
188151 Off ch=2 n=50 v=64
188158 On ch=2 n=33 v=110
188391 Off ch=2 n=33 v=64
188398 On ch=2 n=45 v=110
188631 Off ch=2 n=45 v=64
188638 On ch=2 n=33 v=110
188871 Off ch=2 n=33 v=64
188878 On ch=2 n=45 v=110
189111 Off ch=2 n=45 v=64
189118 On ch=2 n=33 v=110
189351 Off ch=2 n=33 v=64
189358 On ch=2 n=45 v=110
189591 Off ch=2 n=45 v=64
189598 On ch=2 n=33 v=110
189831 Off ch=2 n=33 v=64
189838 On ch=2 n=45 v=110
190071 Off ch=2 n=45 v=64
191998 On ch=2 n=31 v=110
192231 Off ch=2 n=31 v=64
192238 On ch=2 n=43 v=110
192471 Off ch=2 n=43 v=64
192478 On ch=2 n=31 v=110
192711 Off ch=2 n=31 v=64
192718 On ch=2 n=43 v=110
192951 Off ch=2 n=43 v=64
192958 On ch=2 n=31 v=110
193191 Off ch=2 n=31 v=64
193198 On ch=2 n=43 v=110
193431 Off ch=2 n=43 v=64
193438 On ch=2 n=31 v=110
193671 Off ch=2 n=31 v=64
193678 On ch=2 n=43 v=110
193911 Off ch=2 n=43 v=64
193918 On ch=2 n=38 v=110
194151 Off ch=2 n=38 v=64
194158 On ch=2 n=50 v=110
194391 Off ch=2 n=50 v=64
194398 On ch=2 n=38 v=110
194631 Off ch=2 n=38 v=64
194638 On ch=2 n=50 v=110
194871 Off ch=2 n=50 v=64
194878 On ch=2 n=38 v=110
195111 Off ch=2 n=38 v=64
195118 On ch=2 n=50 v=110
195351 Off ch=2 n=50 v=64
195358 On ch=2 n=38 v=110
195591 Off ch=2 n=38 v=64
195598 On ch=2 n=50 v=110
195831 Off ch=2 n=50 v=64
195838 On ch=2 n=33 v=110
196071 Off ch=2 n=33 v=64
196078 On ch=2 n=45 v=110
196311 Off ch=2 n=45 v=64
196318 On ch=2 n=33 v=110
196551 Off ch=2 n=33 v=64
196558 On ch=2 n=45 v=110
196791 Off ch=2 n=45 v=64
196798 On ch=2 n=33 v=110
197031 Off ch=2 n=33 v=64
197038 On ch=2 n=45 v=110
197271 Off ch=2 n=45 v=64
197278 On ch=2 n=33 v=110
197511 Off ch=2 n=33 v=64
197518 On ch=2 n=45 v=110
197751 Off ch=2 n=45 v=64
197758 On ch=2 n=35 v=110
197991 Off ch=2 n=35 v=64
197998 On ch=2 n=47 v=110
198231 Off ch=2 n=47 v=64
198238 On ch=2 n=35 v=110
198471 Off ch=2 n=35 v=64
198478 On ch=2 n=47 v=110
198711 Off ch=2 n=47 v=64
198718 On ch=2 n=35 v=110
198951 Off ch=2 n=35 v=64
198958 On ch=2 n=47 v=110
199191 Off ch=2 n=47 v=64
199198 On ch=2 n=35 v=110
199431 Off ch=2 n=35 v=64
199438 On ch=2 n=47 v=110
199671 Off ch=2 n=47 v=64
199678 On ch=2 n=31 v=110
199911 Off ch=2 n=31 v=64
199918 On ch=2 n=43 v=110
200151 Off ch=2 n=43 v=64
200158 On ch=2 n=31 v=110
200391 Off ch=2 n=31 v=64
200398 On ch=2 n=43 v=110
200631 Off ch=2 n=43 v=64
200638 On ch=2 n=31 v=110
200871 Off ch=2 n=31 v=64
200878 On ch=2 n=43 v=110
201111 Off ch=2 n=43 v=64
201118 On ch=2 n=31 v=110
201351 Off ch=2 n=31 v=64
201358 On ch=2 n=43 v=110
201591 Off ch=2 n=43 v=64
201598 On ch=2 n=38 v=110
201831 Off ch=2 n=38 v=64
201838 On ch=2 n=50 v=110
202071 Off ch=2 n=50 v=64
202078 On ch=2 n=38 v=110
202311 Off ch=2 n=38 v=64
202318 On ch=2 n=50 v=110
202551 Off ch=2 n=50 v=64
202558 On ch=2 n=38 v=110
202791 Off ch=2 n=38 v=64
202798 On ch=2 n=50 v=110
203031 Off ch=2 n=50 v=64
203038 On ch=2 n=38 v=110
203271 Off ch=2 n=38 v=64
203278 On ch=2 n=50 v=110
203511 Off ch=2 n=50 v=64
203518 On ch=2 n=33 v=110
203751 Off ch=2 n=33 v=64
203758 On ch=2 n=45 v=110
203991 Off ch=2 n=45 v=64
203998 On ch=2 n=33 v=110
204231 Off ch=2 n=33 v=64
204238 On ch=2 n=45 v=110
204471 Off ch=2 n=45 v=64
204478 On ch=2 n=33 v=110
204711 Off ch=2 n=33 v=64
204718 On ch=2 n=45 v=110
204951 Off ch=2 n=45 v=64
204958 On ch=2 n=33 v=110
205191 Off ch=2 n=33 v=64
205198 On ch=2 n=45 v=110
205431 Off ch=2 n=45 v=64
205438 On ch=2 n=35 v=110
205671 Off ch=2 n=35 v=64
205678 On ch=2 n=47 v=110
205911 Off ch=2 n=47 v=64
205918 On ch=2 n=35 v=110
206151 Off ch=2 n=35 v=64
206158 On ch=2 n=47 v=110
206391 Off ch=2 n=47 v=64
206398 On ch=2 n=35 v=110
206631 Off ch=2 n=35 v=64
206638 On ch=2 n=47 v=110
206871 Off ch=2 n=47 v=64
206878 On ch=2 n=35 v=110
207111 Off ch=2 n=35 v=64
207118 On ch=2 n=47 v=110
207351 Off ch=2 n=47 v=64
207358 On ch=2 n=31 v=110
207591 Off ch=2 n=31 v=64
207598 On ch=2 n=43 v=110
207831 Off ch=2 n=43 v=64
207838 On ch=2 n=31 v=110
208071 Off ch=2 n=31 v=64
208078 On ch=2 n=43 v=110
208311 Off ch=2 n=43 v=64
208318 On ch=2 n=31 v=110
208551 Off ch=2 n=31 v=64
208558 On ch=2 n=43 v=110
208791 Off ch=2 n=43 v=64
208798 On ch=2 n=31 v=110
209031 Off ch=2 n=31 v=64
209038 On ch=2 n=43 v=110
209271 Off ch=2 n=43 v=64
209278 On ch=2 n=38 v=110
209511 Off ch=2 n=38 v=64
209518 On ch=2 n=50 v=110
209751 Off ch=2 n=50 v=64
209758 On ch=2 n=38 v=110
209991 Off ch=2 n=38 v=64
209998 On ch=2 n=50 v=110
210231 Off ch=2 n=50 v=64
210238 On ch=2 n=38 v=110
210471 Off ch=2 n=38 v=64
210478 On ch=2 n=50 v=110
210711 Off ch=2 n=50 v=64
210718 On ch=2 n=38 v=110
210951 Off ch=2 n=38 v=64
210958 On ch=2 n=50 v=110
211191 Off ch=2 n=50 v=64
211198 On ch=2 n=33 v=110
211431 Off ch=2 n=33 v=64
211438 On ch=2 n=45 v=110
211671 Off ch=2 n=45 v=64
211678 On ch=2 n=33 v=110
211911 Off ch=2 n=33 v=64
211918 On ch=2 n=45 v=110
212151 Off ch=2 n=45 v=64
212158 On ch=2 n=33 v=110
212391 Off ch=2 n=33 v=64
212398 On ch=2 n=45 v=110
212631 Off ch=2 n=45 v=64
212638 On ch=2 n=33 v=110
212871 Off ch=2 n=33 v=64
212878 On ch=2 n=45 v=110
213111 Off ch=2 n=45 v=64
213118 On ch=2 n=35 v=110
213351 Off ch=2 n=35 v=64
213358 On ch=2 n=47 v=110
213591 Off ch=2 n=47 v=64
213598 On ch=2 n=35 v=110
213831 Off ch=2 n=35 v=64
213838 On ch=2 n=47 v=110
214071 Off ch=2 n=47 v=64
214078 On ch=2 n=35 v=110
214311 Off ch=2 n=35 v=64
214318 On ch=2 n=47 v=110
214551 Off ch=2 n=47 v=64
214558 On ch=2 n=35 v=110
214791 Off ch=2 n=35 v=64
214798 On ch=2 n=47 v=110
215031 Off ch=2 n=47 v=64
215038 On ch=2 n=31 v=110
215271 Off ch=2 n=31 v=64
215278 On ch=2 n=43 v=110
215511 Off ch=2 n=43 v=64
215518 On ch=2 n=31 v=110
215751 Off ch=2 n=31 v=64
215758 On ch=2 n=43 v=110
215991 Off ch=2 n=43 v=64
215998 On ch=2 n=31 v=110
216231 Off ch=2 n=31 v=64
216238 On ch=2 n=43 v=110
216471 Off ch=2 n=43 v=64
216478 On ch=2 n=31 v=110
216711 Off ch=2 n=31 v=64
216718 On ch=2 n=43 v=110
216951 Off ch=2 n=43 v=64
216958 On ch=2 n=38 v=110
217191 Off ch=2 n=38 v=64
217198 On ch=2 n=50 v=110
217431 Off ch=2 n=50 v=64
217438 On ch=2 n=38 v=110
217671 Off ch=2 n=38 v=64
217678 On ch=2 n=50 v=110
217911 Off ch=2 n=50 v=64
217918 On ch=2 n=38 v=110
218151 Off ch=2 n=38 v=64
218158 On ch=2 n=50 v=110
218391 Off ch=2 n=50 v=64
218398 On ch=2 n=38 v=110
218631 Off ch=2 n=38 v=64
218638 On ch=2 n=50 v=110
218871 Off ch=2 n=50 v=64
218878 On ch=2 n=33 v=110
219111 Off ch=2 n=33 v=64
219118 On ch=2 n=45 v=110
219351 Off ch=2 n=45 v=64
219358 On ch=2 n=33 v=110
219591 Off ch=2 n=33 v=64
219598 On ch=2 n=45 v=110
219831 Off ch=2 n=45 v=64
219838 On ch=2 n=33 v=110
220071 Off ch=2 n=33 v=64
220078 On ch=2 n=45 v=110
220311 Off ch=2 n=45 v=64
220318 On ch=2 n=33 v=110
220551 Off ch=2 n=33 v=64
220558 On ch=2 n=45 v=110
220791 Off ch=2 n=45 v=64
222229 Par ch=2 c=6 v=64
222229 Meta TrkEnd
TrkEnd
MTrk
0 SeqSpec 05 0f 09 00 40
0 SeqSpec 05 0f 06 47 65 6e 65 72 61 6c 20 4d 49 44 49
0 Meta TrkName "Track 4"
0 Meta 0x20 02
482 Par ch=3 c=0 v=0
502 PrCh ch=3 p=48
512 Par ch=3 c=7 v=65
522 Par ch=3 c=10 v=89
532 Par ch=3 c=11 v=127
542 Par ch=3 c=91 v=79
552 Par ch=3 c=93 v=0
562 Par ch=3 c=64 v=0
572 Par ch=3 c=1 v=0
582 Pb ch=3 v=8192
17259 On ch=3 n=69 v=95
17259 On ch=3 n=73 v=87
17259 On ch=3 n=76 v=99
17440 Off ch=3 n=76 v=64
17440 Off ch=3 n=73 v=64
17440 Off ch=3 n=69 v=64
17739 On ch=3 n=69 v=99
17739 On ch=3 n=73 v=95
17739 On ch=3 n=76 v=107
17920 Off ch=3 n=76 v=64
17920 Off ch=3 n=73 v=64
17920 Off ch=3 n=69 v=64
18219 On ch=3 n=69 v=107
18219 On ch=3 n=73 v=99
18219 On ch=3 n=76 v=114
18400 Off ch=3 n=76 v=64
18400 Off ch=3 n=73 v=64
18400 Off ch=3 n=69 v=64
18699 On ch=3 n=69 v=102
18699 On ch=3 n=73 v=107
18699 On ch=3 n=76 v=107
18880 Off ch=3 n=76 v=64
18880 Off ch=3 n=73 v=64
18880 Off ch=3 n=69 v=64
19179 On ch=3 n=71 v=99
19179 On ch=3 n=74 v=103
19179 On ch=3 n=78 v=99
19360 Off ch=3 n=78 v=64
19360 Off ch=3 n=74 v=64
19360 Off ch=3 n=71 v=64
19659 On ch=3 n=71 v=92
19659 On ch=3 n=74 v=102
19659 On ch=3 n=78 v=99
19840 Off ch=3 n=78 v=64
19840 Off ch=3 n=74 v=64
19840 Off ch=3 n=71 v=64
20619 On ch=3 n=71 v=97
20619 On ch=3 n=74 v=106
20619 On ch=3 n=78 v=102
20800 Off ch=3 n=78 v=64
20800 Off ch=3 n=74 v=64
20800 Off ch=3 n=71 v=64
21099 On ch=3 n=71 v=88
21099 On ch=3 n=79 v=93
23015 Off ch=3 n=79 v=64
23015 Off ch=3 n=71 v=64
23019 On ch=3 n=74 v=83
23019 On ch=3 n=78 v=85
24935 Off ch=3 n=78 v=64
24935 Off ch=3 n=74 v=64
24939 On ch=3 n=73 v=77
24939 On ch=3 n=76 v=83
26855 Off ch=3 n=76 v=64
26855 Off ch=3 n=73 v=64
26859 On ch=3 n=74 v=85
26859 On ch=3 n=78 v=83
28775 Off ch=3 n=78 v=64
28775 Off ch=3 n=74 v=64
28779 On ch=3 n=71 v=88
28779 On ch=3 n=79 v=93
30695 Off ch=3 n=79 v=64
30695 Off ch=3 n=71 v=64
30699 On ch=3 n=74 v=83
30699 On ch=3 n=78 v=85
32615 Off ch=3 n=78 v=64
32615 Off ch=3 n=74 v=64
32619 On ch=3 n=73 v=77
32619 On ch=3 n=76 v=83
34490 Off ch=3 n=76 v=64
34490 Off ch=3 n=73 v=64
69099 On ch=3 n=71 v=88
69099 On ch=3 n=79 v=93
71015 Off ch=3 n=79 v=64
71015 Off ch=3 n=71 v=64
71019 On ch=3 n=74 v=83
71019 On ch=3 n=78 v=85
72935 Off ch=3 n=78 v=64
72935 Off ch=3 n=74 v=64
72939 On ch=3 n=73 v=77
72939 On ch=3 n=76 v=83
74855 Off ch=3 n=76 v=64
74855 Off ch=3 n=73 v=64
74859 On ch=3 n=74 v=85
74859 On ch=3 n=78 v=83
76775 Off ch=3 n=78 v=64
76775 Off ch=3 n=74 v=64
76779 On ch=3 n=71 v=88
76779 On ch=3 n=79 v=93
78695 Off ch=3 n=79 v=64
78695 Off ch=3 n=71 v=64
78699 On ch=3 n=74 v=83
78699 On ch=3 n=78 v=85
80615 Off ch=3 n=78 v=64
80615 Off ch=3 n=74 v=64
80619 On ch=3 n=73 v=77
80619 On ch=3 n=76 v=83
82535 Off ch=3 n=76 v=64
82535 Off ch=3 n=73 v=64
82539 On ch=3 n=74 v=85
82539 On ch=3 n=78 v=83
84455 Off ch=3 n=78 v=64
84455 Off ch=3 n=74 v=64
84459 On ch=3 n=71 v=88
84459 On ch=3 n=79 v=93
86375 Off ch=3 n=79 v=64
86375 Off ch=3 n=71 v=64
86379 On ch=3 n=74 v=83
86379 On ch=3 n=78 v=85
88295 Off ch=3 n=78 v=64
88295 Off ch=3 n=74 v=64
88299 On ch=3 n=73 v=77
88299 On ch=3 n=76 v=83
90215 Off ch=3 n=76 v=64
90215 Off ch=3 n=73 v=64
90219 On ch=3 n=74 v=85
90219 On ch=3 n=78 v=83
92135 Off ch=3 n=78 v=64
92135 Off ch=3 n=74 v=64
92139 On ch=3 n=71 v=88
92139 On ch=3 n=79 v=93
94055 Off ch=3 n=79 v=64
94055 Off ch=3 n=71 v=64
94059 On ch=3 n=74 v=83
94059 On ch=3 n=78 v=85
95975 Off ch=3 n=78 v=64
95975 Off ch=3 n=74 v=64
95979 On ch=3 n=73 v=77
95979 On ch=3 n=76 v=83
97895 Off ch=3 n=76 v=64
97895 Off ch=3 n=73 v=64
130539 On ch=3 n=71 v=88
130539 On ch=3 n=79 v=93
132455 Off ch=3 n=79 v=64
132455 Off ch=3 n=71 v=64
132459 On ch=3 n=74 v=83
132459 On ch=3 n=78 v=85
134375 Off ch=3 n=78 v=64
134375 Off ch=3 n=74 v=64
134379 On ch=3 n=73 v=77
134379 On ch=3 n=76 v=83
136295 Off ch=3 n=76 v=64
136295 Off ch=3 n=73 v=64
136299 On ch=3 n=74 v=85
136299 On ch=3 n=78 v=83
138215 Off ch=3 n=78 v=64
138215 Off ch=3 n=74 v=64
138219 On ch=3 n=71 v=88
138219 On ch=3 n=79 v=93
140135 Off ch=3 n=79 v=64
140135 Off ch=3 n=71 v=64
140139 On ch=3 n=74 v=83
140139 On ch=3 n=78 v=85
142055 Off ch=3 n=78 v=64
142055 Off ch=3 n=74 v=64
142059 On ch=3 n=73 v=77
142059 On ch=3 n=76 v=83
143975 Off ch=3 n=76 v=64
143975 Off ch=3 n=73 v=64
143979 On ch=3 n=74 v=85
143979 On ch=3 n=78 v=83
145895 Off ch=3 n=78 v=64
145895 Off ch=3 n=74 v=64
145899 On ch=3 n=71 v=88
145899 On ch=3 n=79 v=93
147815 Off ch=3 n=79 v=64
147815 Off ch=3 n=71 v=64
147819 On ch=3 n=74 v=83
147819 On ch=3 n=78 v=85
149735 Off ch=3 n=78 v=64
149735 Off ch=3 n=74 v=64
149739 On ch=3 n=73 v=77
149739 On ch=3 n=76 v=83
151655 Off ch=3 n=76 v=64
151655 Off ch=3 n=73 v=64
151659 On ch=3 n=74 v=85
151659 On ch=3 n=78 v=83
153575 Off ch=3 n=78 v=64
153575 Off ch=3 n=74 v=64
153579 On ch=3 n=71 v=88
153579 On ch=3 n=79 v=93
155495 Off ch=3 n=79 v=64
155495 Off ch=3 n=71 v=64
155499 On ch=3 n=74 v=83
155499 On ch=3 n=78 v=85
157415 Off ch=3 n=78 v=64
157415 Off ch=3 n=74 v=64
157419 On ch=3 n=73 v=77
157419 On ch=3 n=76 v=83
159335 Off ch=3 n=76 v=64
159335 Off ch=3 n=73 v=64
172779 On ch=3 n=69 v=95
172779 On ch=3 n=73 v=87
172779 On ch=3 n=76 v=99
172960 Off ch=3 n=76 v=64
172960 Off ch=3 n=73 v=64
172960 Off ch=3 n=69 v=64
173259 On ch=3 n=69 v=99
173259 On ch=3 n=73 v=95
173259 On ch=3 n=76 v=107
173440 Off ch=3 n=76 v=64
173440 Off ch=3 n=73 v=64
173440 Off ch=3 n=69 v=64
173739 On ch=3 n=69 v=107
173739 On ch=3 n=73 v=99
173739 On ch=3 n=76 v=114
173920 Off ch=3 n=76 v=64
173920 Off ch=3 n=73 v=64
173920 Off ch=3 n=69 v=64
174219 On ch=3 n=69 v=102
174219 On ch=3 n=73 v=107
174219 On ch=3 n=76 v=107
174400 Off ch=3 n=76 v=64
174400 Off ch=3 n=73 v=64
174400 Off ch=3 n=69 v=64
174699 On ch=3 n=71 v=99
174699 On ch=3 n=74 v=103
174699 On ch=3 n=78 v=99
174880 Off ch=3 n=78 v=64
174880 Off ch=3 n=74 v=64
174880 Off ch=3 n=71 v=64
175179 On ch=3 n=71 v=92
175179 On ch=3 n=74 v=102
175179 On ch=3 n=78 v=99
175360 Off ch=3 n=78 v=64
175360 Off ch=3 n=74 v=64
175360 Off ch=3 n=71 v=64
176139 On ch=3 n=71 v=97
176139 On ch=3 n=74 v=106
176139 On ch=3 n=78 v=102
176320 Off ch=3 n=78 v=64
176320 Off ch=3 n=74 v=64
176320 Off ch=3 n=71 v=64
191979 On ch=3 n=71 v=88
191979 On ch=3 n=79 v=93
193895 Off ch=3 n=79 v=64
193895 Off ch=3 n=71 v=64
193899 On ch=3 n=74 v=83
193899 On ch=3 n=78 v=85
195815 Off ch=3 n=78 v=64
195815 Off ch=3 n=74 v=64
195819 On ch=3 n=73 v=77
195819 On ch=3 n=76 v=83
197735 Off ch=3 n=76 v=64
197735 Off ch=3 n=73 v=64
197739 On ch=3 n=74 v=85
197739 On ch=3 n=78 v=83
199655 Off ch=3 n=78 v=64
199655 Off ch=3 n=74 v=64
199659 On ch=3 n=71 v=88
199659 On ch=3 n=79 v=93
201575 Off ch=3 n=79 v=64
201575 Off ch=3 n=71 v=64
201579 On ch=3 n=74 v=83
201579 On ch=3 n=78 v=85
203495 Off ch=3 n=78 v=64
203495 Off ch=3 n=74 v=64
203499 On ch=3 n=73 v=77
203499 On ch=3 n=76 v=83
205415 Off ch=3 n=76 v=64
205415 Off ch=3 n=73 v=64
205419 On ch=3 n=74 v=85
205419 On ch=3 n=78 v=83
207335 Off ch=3 n=78 v=64
207335 Off ch=3 n=74 v=64
207339 On ch=3 n=71 v=88
207339 On ch=3 n=79 v=93
209255 Off ch=3 n=79 v=64
209255 Off ch=3 n=71 v=64
209259 On ch=3 n=74 v=83
209259 On ch=3 n=78 v=85
211175 Off ch=3 n=78 v=64
211175 Off ch=3 n=74 v=64
211179 On ch=3 n=73 v=77
211179 On ch=3 n=76 v=83
213095 Off ch=3 n=76 v=64
213095 Off ch=3 n=73 v=64
213099 On ch=3 n=74 v=85
213099 On ch=3 n=78 v=83
215015 Off ch=3 n=78 v=64
215015 Off ch=3 n=74 v=64
215019 On ch=3 n=71 v=88
215019 On ch=3 n=79 v=93
216935 Off ch=3 n=79 v=64
216935 Off ch=3 n=71 v=64
216939 On ch=3 n=74 v=83
216939 On ch=3 n=78 v=85
218855 Off ch=3 n=78 v=64
218855 Off ch=3 n=74 v=64
218859 On ch=3 n=73 v=77
218859 On ch=3 n=76 v=83
220775 Off ch=3 n=76 v=64
220775 Off ch=3 n=73 v=64
220775 Meta TrkEnd
TrkEnd
MTrk
0 SeqSpec 05 0f 09 00 40
0 SeqSpec 05 0f 06 47 65 6e 65 72 61 6c 20 4d 49 44 49
0 Meta TrkName "Track 5"
0 Meta 0x20 03
483 Par ch=4 c=0 v=0
503 PrCh ch=4 p=75
513 Par ch=4 c=7 v=112
523 Par ch=4 c=10 v=74
533 Par ch=4 c=11 v=127
543 Par ch=4 c=91 v=84
553 Par ch=4 c=93 v=0
563 Par ch=4 c=64 v=0
573 Par ch=4 c=1 v=0
583 Pb ch=4 v=8192
27819 Pb ch=4 v=2882
27836 On ch=4 n=78 v=97
27858 Pb ch=4 v=3337
27875 Pb ch=4 v=4247
27895 Pb ch=4 v=6826
27913 Pb ch=4 v=8192
28051 Off ch=4 n=78 v=64
28076 On ch=4 n=78 v=97
28299 Off ch=4 n=78 v=64
28316 On ch=4 n=78 v=99
28509 Off ch=4 n=78 v=64
28556 On ch=4 n=78 v=106
28976 Par ch=4 c=1 v=6
29014 Par ch=4 c=1 v=12
29069 Par ch=4 c=1 v=24
29107 Par ch=4 c=1 v=29
29144 Par ch=4 c=1 v=0
29190 Off ch=4 n=78 v=64
29739 Pb ch=4 v=1137
29756 On ch=4 n=79 v=92
29794 Pb ch=4 v=1820
29813 Pb ch=4 v=4020
29832 Pb ch=4 v=8192
29968 Off ch=4 n=79 v=64
29996 On ch=4 n=79 v=92
30203 Off ch=4 n=79 v=64
30236 On ch=4 n=79 v=102
30469 Off ch=4 n=79 v=64
30476 On ch=4 n=78 v=97
31065 Par ch=4 c=1 v=1
31121 Par ch=4 c=1 v=14
31158 Off ch=4 n=78 v=64
31177 Par ch=4 c=1 v=0
31661 Pb ch=4 v=1896
31676 On ch=4 n=78 v=97
31688 Pb ch=4 v=1592
31726 Pb ch=4 v=2351
31745 Pb ch=4 v=4096
31763 Pb ch=4 v=8040
31782 Pb ch=4 v=8192
31888 Off ch=4 n=78 v=64
31916 On ch=4 n=78 v=97
32127 Off ch=4 n=78 v=64
32156 On ch=4 n=78 v=103
32389 Off ch=4 n=78 v=64
32396 On ch=4 n=76 v=110
32922 Par ch=4 c=1 v=4
32958 Par ch=4 c=1 v=11
32997 Par ch=4 c=1 v=21
33034 Par ch=4 c=1 v=31
33045 Off ch=4 n=76 v=64
33071 Par ch=4 c=1 v=0
33578 Pb ch=4 v=379
33596 On ch=4 n=76 v=99
33615 Pb ch=4 v=834
33634 Pb ch=4 v=1744
33654 Pb ch=4 v=4096
33672 Pb ch=4 v=8192
33808 Off ch=4 n=76 v=64
33836 On ch=4 n=76 v=91
34053 Off ch=4 n=76 v=64
34076 On ch=4 n=76 v=99
34309 Off ch=4 n=76 v=64
34316 On ch=4 n=78 v=99
34558 Off ch=4 n=78 v=64
34796 On ch=4 n=78 v=102
35036 Off ch=4 n=78 v=64
37882 Pb ch=4 v=0
37916 On ch=4 n=71 v=105
37920 Pb ch=4 v=455
37938 Pb ch=4 v=2199
37957 Pb ch=4 v=4096
37977 Pb ch=4 v=7281
37994 Pb ch=4 v=8192
38149 Off ch=4 n=71 v=64
38156 On ch=4 n=79 v=113
38687 Par ch=4 c=1 v=4
38724 Off ch=4 n=79 v=64
38743 Par ch=4 c=1 v=0
39759 Pb ch=4 v=6144
39779 Pb ch=4 v=2882
39798 Pb ch=4 v=1441
39834 Pb ch=4 v=2123
39836 On ch=4 n=69 v=106
39853 Pb ch=4 v=4171
39872 Pb ch=4 v=8192
40069 Off ch=4 n=69 v=64
40076 On ch=4 n=78 v=96
40564 Par ch=4 c=1 v=2
40602 Par ch=4 c=1 v=9
40637 Off ch=4 n=78 v=64
40677 Par ch=4 c=1 v=0
41756 On ch=4 n=69 v=106
41853 Off ch=4 n=69 v=64
41983 Pb ch=4 v=640
41996 On ch=4 n=76 v=110
42020 Pb ch=4 v=2048
42039 Pb ch=4 v=5992
42057 Pb ch=4 v=8192
42547 Off ch=4 n=76 v=64
42956 On ch=4 n=69 v=99
43341 Off ch=4 n=69 v=64
43662 Pb ch=4 v=1792
43676 On ch=4 n=66 v=99
43733 Pb ch=4 v=8192
43909 Off ch=4 n=66 v=64
43916 On ch=4 n=74 v=120
44341 Off ch=4 n=74 v=64
44372 Par ch=4 c=1 v=2
44409 Par ch=4 c=1 v=0
45356 On ch=4 n=71 v=113
45522 Off ch=4 n=71 v=64
45585 Pb ch=4 v=151
45596 On ch=4 n=71 v=102
45613 Pb ch=4 v=455
45632 Pb ch=4 v=1896
45649 Pb ch=4 v=4854
45668 Pb ch=4 v=8192
45829 Off ch=4 n=71 v=64
45836 On ch=4 n=79 v=105
46603 Par ch=4 c=1 v=4
46659 Par ch=4 c=1 v=9
46772 Par ch=4 c=1 v=0
46790 Off ch=4 n=79 v=64
47506 Pb ch=4 v=1744
47516 On ch=4 n=79 v=110
47525 Pb ch=4 v=2123
47544 Pb ch=4 v=4020
47562 Pb ch=4 v=8192
47749 Off ch=4 n=79 v=64
47756 On ch=4 n=78 v=99
48229 Off ch=4 n=78 v=64
48236 On ch=4 n=74 v=103
48709 Off ch=4 n=74 v=64
48716 On ch=4 n=69 v=99
49261 Off ch=4 n=69 v=64
49421 Pb ch=4 v=1441
49436 On ch=4 n=78 v=94
49447 Pb ch=4 v=1896
49465 Pb ch=4 v=3640
49483 Pb ch=4 v=8192
49669 Off ch=4 n=78 v=64
49676 On ch=4 n=76 v=106
50149 Off ch=4 n=76 v=64
50156 On ch=4 n=73 v=97
50773 Par ch=4 c=1 v=1
50810 Par ch=4 c=1 v=7
50848 Par ch=4 c=1 v=16
50879 Off ch=4 n=73 v=64
50904 Par ch=4 c=1 v=0
51093 Pb ch=4 v=971
51116 On ch=4 n=73 v=102
51145 Pb ch=4 v=3565
51164 Pb ch=4 v=8192
51349 Off ch=4 n=73 v=64
51356 On ch=4 n=76 v=113
51490 Off ch=4 n=76 v=64
51596 On ch=4 n=74 v=106
52069 Off ch=4 n=74 v=64
52076 On ch=4 n=71 v=99
52451 Par ch=4 c=1 v=2
52508 Par ch=4 c=1 v=9
52564 Par ch=4 c=1 v=22
52601 Par ch=4 c=1 v=37
52638 Par ch=4 c=1 v=0
52651 Off ch=4 n=71 v=64
68140 Pb ch=4 v=2048
68156 On ch=4 n=78 v=105
68191 Pb ch=4 v=2578
68209 Pb ch=4 v=3868
68228 Pb ch=4 v=7205
68246 Pb ch=4 v=8192
68629 Off ch=4 n=78 v=64
68636 On ch=4 n=76 v=99
68869 Off ch=4 n=76 v=64
68876 On ch=4 n=78 v=105
69588 Off ch=4 n=78 v=64
69596 On ch=4 n=74 v=105
69721 Par ch=4 c=1 v=6
69759 Par ch=4 c=1 v=0
69832 Off ch=4 n=74 v=64
70063 Pb ch=4 v=3489
70076 On ch=4 n=74 v=103
70111 Pb ch=4 v=4854
70129 Pb ch=4 v=8192
70309 Off ch=4 n=74 v=64
70316 On ch=4 n=78 v=98
70549 Off ch=4 n=78 v=64
70556 On ch=4 n=76 v=105
70789 Off ch=4 n=76 v=64
70796 On ch=4 n=74 v=104
71012 Off ch=4 n=74 v=64
71036 On ch=4 n=74 v=99
71437 Par ch=4 c=1 v=2
71494 Par ch=4 c=1 v=9
71531 Par ch=4 c=1 v=16
71568 Par ch=4 c=1 v=0
71608 Off ch=4 n=74 v=64
71975 Pb ch=4 v=455
71996 On ch=4 n=78 v=113
72012 Pb ch=4 v=834
72030 Pb ch=4 v=2199
72049 Pb ch=4 v=5082
72068 Pb ch=4 v=8192
72229 Off ch=4 n=78 v=64
72236 On ch=4 n=81 v=106
72469 Off ch=4 n=81 v=64
72476 On ch=4 n=79 v=105
72709 Off ch=4 n=79 v=64
72716 On ch=4 n=78 v=113
72949 Off ch=4 n=78 v=64
72956 On ch=4 n=73 v=97
73370 Par ch=4 c=1 v=4
73425 Par ch=4 c=1 v=0
73497 Off ch=4 n=73 v=64
73909 Pb ch=4 v=151
73916 On ch=4 n=73 v=105
73928 Pb ch=4 v=1668
73947 Pb ch=4 v=3413
73964 Pb ch=4 v=5461
73983 Pb ch=4 v=8192
74149 Off ch=4 n=73 v=64
74156 On ch=4 n=79 v=103
74388 Off ch=4 n=79 v=64
74396 On ch=4 n=78 v=103
74629 Off ch=4 n=78 v=64
74636 On ch=4 n=76 v=110
74869 Off ch=4 n=76 v=64
74876 On ch=4 n=78 v=99
75109 Off ch=4 n=78 v=64
75116 On ch=4 n=76 v=99
75349 Off ch=4 n=76 v=64
75356 On ch=4 n=74 v=100
75646 Par ch=4 c=1 v=2
75683 Par ch=4 c=1 v=14
75686 Off ch=4 n=74 v=64
75720 Par ch=4 c=1 v=0
75820 Pb ch=4 v=2048
75836 On ch=4 n=78 v=105
75871 Pb ch=4 v=2578
75889 Pb ch=4 v=3868
75908 Pb ch=4 v=7205
75926 Pb ch=4 v=8192
76309 Off ch=4 n=78 v=64
76316 On ch=4 n=76 v=99
76549 Off ch=4 n=76 v=64
76556 On ch=4 n=78 v=105
77268 Off ch=4 n=78 v=64
77276 On ch=4 n=74 v=105
77401 Par ch=4 c=1 v=6
77439 Par ch=4 c=1 v=0
77512 Off ch=4 n=74 v=64
77743 Pb ch=4 v=3489
77756 On ch=4 n=74 v=103
77791 Pb ch=4 v=4854
77809 Pb ch=4 v=8192
77989 Off ch=4 n=74 v=64
77996 On ch=4 n=78 v=98
78229 Off ch=4 n=78 v=64
78236 On ch=4 n=76 v=105
78469 Off ch=4 n=76 v=64
78476 On ch=4 n=74 v=104
78697 Off ch=4 n=74 v=64
78716 On ch=4 n=74 v=99
79117 Par ch=4 c=1 v=2
79174 Par ch=4 c=1 v=9
79211 Par ch=4 c=1 v=16
79248 Par ch=4 c=1 v=0
79288 Off ch=4 n=74 v=64
79656 Pb ch=4 v=1099
79676 On ch=4 n=78 v=99
79689 Pb ch=4 v=1668
79708 Pb ch=4 v=5233
79727 Pb ch=4 v=8192
80149 Off ch=4 n=78 v=64
80156 On ch=4 n=81 v=97
80389 Off ch=4 n=81 v=64
80396 On ch=4 n=79 v=100
81105 Off ch=4 n=79 v=64
81116 On ch=4 n=76 v=99
81330 Pb ch=4 v=986
81349 Off ch=4 n=76 v=64
81356 On ch=4 n=79 v=105
81405 Pb ch=4 v=8192
82069 Off ch=4 n=79 v=64
82076 On ch=4 n=76 v=103
82292 Off ch=4 n=76 v=64
82301 Pb ch=4 v=2275
82316 On ch=4 n=78 v=99
82320 Pb ch=4 v=75
82356 Pb ch=4 v=1668
82376 Pb ch=4 v=4551
82393 Pb ch=4 v=8192
82789 Off ch=4 n=78 v=64
82796 On ch=4 n=74 v=93
83086 Par ch=4 c=1 v=1
83124 Par ch=4 c=1 v=11
83161 Par ch=4 c=1 v=17
83217 Par ch=4 c=1 v=0
83233 Off ch=4 n=74 v=64
83500 Pb ch=4 v=2048
83516 On ch=4 n=78 v=105
83551 Pb ch=4 v=2578
83569 Pb ch=4 v=3868
83588 Pb ch=4 v=7205
83606 Pb ch=4 v=8192
83989 Off ch=4 n=78 v=64
83996 On ch=4 n=76 v=99
84229 Off ch=4 n=76 v=64
84236 On ch=4 n=78 v=105
84948 Off ch=4 n=78 v=64
84956 On ch=4 n=74 v=105
85081 Par ch=4 c=1 v=6
85119 Par ch=4 c=1 v=0
85192 Off ch=4 n=74 v=64
85423 Pb ch=4 v=3489
85436 On ch=4 n=74 v=103
85471 Pb ch=4 v=4854
85489 Pb ch=4 v=8192
85669 Off ch=4 n=74 v=64
85676 On ch=4 n=78 v=98
85909 Off ch=4 n=78 v=64
85916 On ch=4 n=76 v=105
86149 Off ch=4 n=76 v=64
86156 On ch=4 n=74 v=104
86372 Off ch=4 n=74 v=64
86396 On ch=4 n=74 v=99
86797 Par ch=4 c=1 v=2
86854 Par ch=4 c=1 v=9
86891 Par ch=4 c=1 v=16
86928 Par ch=4 c=1 v=0
86968 Off ch=4 n=74 v=64
87335 Pb ch=4 v=455
87356 On ch=4 n=78 v=113
87372 Pb ch=4 v=834
87390 Pb ch=4 v=2199
87409 Pb ch=4 v=5082
87428 Pb ch=4 v=8192
87589 Off ch=4 n=78 v=64
87596 On ch=4 n=81 v=106
87829 Off ch=4 n=81 v=64
87836 On ch=4 n=79 v=105
88069 Off ch=4 n=79 v=64
88076 On ch=4 n=78 v=113
88309 Off ch=4 n=78 v=64
88316 On ch=4 n=73 v=97
88730 Par ch=4 c=1 v=4
88785 Par ch=4 c=1 v=0
88857 Off ch=4 n=73 v=64
89269 Pb ch=4 v=151
89276 On ch=4 n=73 v=105
89288 Pb ch=4 v=1668
89307 Pb ch=4 v=3413
89324 Pb ch=4 v=5461
89343 Pb ch=4 v=8192
89509 Off ch=4 n=73 v=64
89516 On ch=4 n=79 v=103
89748 Off ch=4 n=79 v=64
89756 On ch=4 n=78 v=103
89989 Off ch=4 n=78 v=64
89996 On ch=4 n=76 v=110
90229 Off ch=4 n=76 v=64
90236 On ch=4 n=78 v=99
90469 Off ch=4 n=78 v=64
90476 On ch=4 n=76 v=99
90709 Off ch=4 n=76 v=64
90716 On ch=4 n=74 v=100
91006 Par ch=4 c=1 v=2
91043 Par ch=4 c=1 v=14
91046 Off ch=4 n=74 v=64
91080 Par ch=4 c=1 v=0
91180 Pb ch=4 v=2048
91196 On ch=4 n=78 v=105
91231 Pb ch=4 v=2578
91249 Pb ch=4 v=3868
91268 Pb ch=4 v=7205
91286 Pb ch=4 v=8192
91669 Off ch=4 n=78 v=64
91676 On ch=4 n=76 v=99
91909 Off ch=4 n=76 v=64
91916 On ch=4 n=78 v=105
92628 Off ch=4 n=78 v=64
92636 On ch=4 n=74 v=105
92761 Par ch=4 c=1 v=6
92799 Par ch=4 c=1 v=0
92872 Off ch=4 n=74 v=64
93103 Pb ch=4 v=3489
93116 On ch=4 n=74 v=103
93151 Pb ch=4 v=4854
93169 Pb ch=4 v=8192
93349 Off ch=4 n=74 v=64
93356 On ch=4 n=78 v=98
93589 Off ch=4 n=78 v=64
93596 On ch=4 n=76 v=105
93829 Off ch=4 n=76 v=64
93836 On ch=4 n=74 v=104
94057 Off ch=4 n=74 v=64
94076 On ch=4 n=74 v=99
94477 Par ch=4 c=1 v=2
94534 Par ch=4 c=1 v=9
94571 Par ch=4 c=1 v=16
94608 Par ch=4 c=1 v=0
94648 Off ch=4 n=74 v=64
95016 Pb ch=4 v=1099
95036 On ch=4 n=78 v=99
95049 Pb ch=4 v=1668
95068 Pb ch=4 v=5233
95087 Pb ch=4 v=8192
95509 Off ch=4 n=78 v=64
95516 On ch=4 n=81 v=97
95749 Off ch=4 n=81 v=64
95756 On ch=4 n=79 v=100
96465 Off ch=4 n=79 v=64
96476 On ch=4 n=76 v=99
96690 Pb ch=4 v=986
96709 Off ch=4 n=76 v=64
96716 On ch=4 n=79 v=105
96765 Pb ch=4 v=8192
97429 Off ch=4 n=79 v=64
97436 On ch=4 n=76 v=103
97652 Off ch=4 n=76 v=64
97661 Pb ch=4 v=2275
97676 On ch=4 n=78 v=99
97680 Pb ch=4 v=75
97716 Pb ch=4 v=1668
97736 Pb ch=4 v=4551
97753 Pb ch=4 v=8192
98149 Off ch=4 n=78 v=64
98156 On ch=4 n=74 v=93
98446 Par ch=4 c=1 v=1
98484 Par ch=4 c=1 v=11
98521 Par ch=4 c=1 v=17
98577 Par ch=4 c=1 v=0
98593 Off ch=4 n=74 v=64
99322 Pb ch=4 v=0
99356 On ch=4 n=71 v=105
99360 Pb ch=4 v=455
99378 Pb ch=4 v=2199
99397 Pb ch=4 v=4096
99417 Pb ch=4 v=7281
99434 Pb ch=4 v=8192
99589 Off ch=4 n=71 v=64
99596 On ch=4 n=79 v=113
100127 Par ch=4 c=1 v=4
100164 Off ch=4 n=79 v=64
100183 Par ch=4 c=1 v=0
101199 Pb ch=4 v=6144
101219 Pb ch=4 v=2882
101238 Pb ch=4 v=1441
101274 Pb ch=4 v=2123
101276 On ch=4 n=69 v=106
101293 Pb ch=4 v=4171
101312 Pb ch=4 v=8192
101509 Off ch=4 n=69 v=64
101516 On ch=4 n=78 v=96
102004 Par ch=4 c=1 v=2
102042 Par ch=4 c=1 v=9
102117 Par ch=4 c=1 v=0
102197 Off ch=4 n=78 v=64
103196 On ch=4 n=69 v=106
103423 Pb ch=4 v=640
103429 Off ch=4 n=69 v=64
103436 On ch=4 n=76 v=110
103460 Pb ch=4 v=2048
103479 Pb ch=4 v=5992
103497 Pb ch=4 v=8192
104107 Off ch=4 n=76 v=64
105102 Pb ch=4 v=1792
105116 On ch=4 n=66 v=99
105173 Pb ch=4 v=8192
105349 Off ch=4 n=66 v=64
105356 On ch=4 n=74 v=120
105781 Off ch=4 n=74 v=64
105812 Par ch=4 c=1 v=2
105849 Par ch=4 c=1 v=0
107025 Pb ch=4 v=151
107036 On ch=4 n=71 v=102
107053 Pb ch=4 v=455
107072 Pb ch=4 v=1896
107089 Pb ch=4 v=4854
107108 Pb ch=4 v=8192
107269 Off ch=4 n=71 v=64
107276 On ch=4 n=79 v=105
108043 Par ch=4 c=1 v=4
108099 Par ch=4 c=1 v=9
108212 Par ch=4 c=1 v=0
108230 Off ch=4 n=79 v=64
108946 Pb ch=4 v=1744
108956 On ch=4 n=79 v=110
108965 Pb ch=4 v=2123
108984 Pb ch=4 v=4020
109002 Pb ch=4 v=8192
109189 Off ch=4 n=79 v=64
109196 On ch=4 n=78 v=99
109669 Off ch=4 n=78 v=64
109676 On ch=4 n=74 v=103
110149 Off ch=4 n=74 v=64
110156 On ch=4 n=69 v=99
110701 Off ch=4 n=69 v=64
110861 Pb ch=4 v=1441
110876 On ch=4 n=78 v=94
110887 Pb ch=4 v=1896
110905 Pb ch=4 v=3640
110923 Pb ch=4 v=8192
111109 Off ch=4 n=78 v=64
111116 On ch=4 n=76 v=106
111589 Off ch=4 n=76 v=64
111596 On ch=4 n=73 v=97
112213 Par ch=4 c=1 v=1
112250 Par ch=4 c=1 v=7
112288 Par ch=4 c=1 v=16
112319 Off ch=4 n=73 v=64
112344 Par ch=4 c=1 v=0
112533 Pb ch=4 v=971
112556 On ch=4 n=73 v=102
112585 Pb ch=4 v=3565
112604 Pb ch=4 v=8192
112789 Off ch=4 n=73 v=64
112796 On ch=4 n=76 v=113
112930 Off ch=4 n=76 v=64
113036 On ch=4 n=74 v=106
113509 Off ch=4 n=74 v=64
113516 On ch=4 n=71 v=99
113891 Par ch=4 c=1 v=2
113948 Par ch=4 c=1 v=9
114004 Par ch=4 c=1 v=22
114041 Par ch=4 c=1 v=37
114078 Par ch=4 c=1 v=0
114091 Off ch=4 n=71 v=64
129580 Pb ch=4 v=2048
129596 On ch=4 n=78 v=105
129631 Pb ch=4 v=2578
129649 Pb ch=4 v=3868
129668 Pb ch=4 v=7205
129686 Pb ch=4 v=8192
130069 Off ch=4 n=78 v=64
130076 On ch=4 n=76 v=99
130309 Off ch=4 n=76 v=64
130316 On ch=4 n=78 v=105
131028 Off ch=4 n=78 v=64
131036 On ch=4 n=74 v=105
131161 Par ch=4 c=1 v=6
131199 Par ch=4 c=1 v=0
131272 Off ch=4 n=74 v=64
131503 Pb ch=4 v=3489
131516 On ch=4 n=74 v=103
131551 Pb ch=4 v=4854
131569 Pb ch=4 v=8192
131749 Off ch=4 n=74 v=64
131756 On ch=4 n=78 v=98
131989 Off ch=4 n=78 v=64
131996 On ch=4 n=76 v=105
132229 Off ch=4 n=76 v=64
132236 On ch=4 n=74 v=104
132452 Off ch=4 n=74 v=64
132476 On ch=4 n=74 v=99
132877 Par ch=4 c=1 v=2
132934 Par ch=4 c=1 v=9
132971 Par ch=4 c=1 v=16
133008 Par ch=4 c=1 v=0
133048 Off ch=4 n=74 v=64
133415 Pb ch=4 v=455
133436 On ch=4 n=78 v=113
133452 Pb ch=4 v=834
133470 Pb ch=4 v=2199
133489 Pb ch=4 v=5082
133508 Pb ch=4 v=8192
133669 Off ch=4 n=78 v=64
133676 On ch=4 n=81 v=106
133909 Off ch=4 n=81 v=64
133916 On ch=4 n=79 v=105
134149 Off ch=4 n=79 v=64
134156 On ch=4 n=78 v=113
134389 Off ch=4 n=78 v=64
134396 On ch=4 n=73 v=97
134810 Par ch=4 c=1 v=4
134865 Par ch=4 c=1 v=0
134937 Off ch=4 n=73 v=64
135349 Pb ch=4 v=151
135356 On ch=4 n=73 v=105
135368 Pb ch=4 v=1668
135387 Pb ch=4 v=3413
135404 Pb ch=4 v=5461
135423 Pb ch=4 v=8192
135589 Off ch=4 n=73 v=64
135596 On ch=4 n=79 v=103
135828 Off ch=4 n=79 v=64
135836 On ch=4 n=78 v=103
136069 Off ch=4 n=78 v=64
136076 On ch=4 n=76 v=110
136309 Off ch=4 n=76 v=64
136316 On ch=4 n=78 v=99
136549 Off ch=4 n=78 v=64
136556 On ch=4 n=76 v=99
136789 Off ch=4 n=76 v=64
136796 On ch=4 n=74 v=100
137086 Par ch=4 c=1 v=2
137123 Par ch=4 c=1 v=14
137126 Off ch=4 n=74 v=64
137160 Par ch=4 c=1 v=0
137260 Pb ch=4 v=2048
137276 On ch=4 n=78 v=105
137311 Pb ch=4 v=2578
137329 Pb ch=4 v=3868
137348 Pb ch=4 v=7205
137366 Pb ch=4 v=8192
137749 Off ch=4 n=78 v=64
137756 On ch=4 n=76 v=99
137989 Off ch=4 n=76 v=64
137996 On ch=4 n=78 v=105
138708 Off ch=4 n=78 v=64
138716 On ch=4 n=74 v=105
138841 Par ch=4 c=1 v=6
138879 Par ch=4 c=1 v=0
138952 Off ch=4 n=74 v=64
139183 Pb ch=4 v=3489
139196 On ch=4 n=74 v=103
139231 Pb ch=4 v=4854
139249 Pb ch=4 v=8192
139429 Off ch=4 n=74 v=64
139436 On ch=4 n=78 v=98
139669 Off ch=4 n=78 v=64
139676 On ch=4 n=76 v=105
139909 Off ch=4 n=76 v=64
139916 On ch=4 n=74 v=104
140137 Off ch=4 n=74 v=64
140156 On ch=4 n=74 v=99
140557 Par ch=4 c=1 v=2
140614 Par ch=4 c=1 v=9
140651 Par ch=4 c=1 v=16
140688 Par ch=4 c=1 v=0
140728 Off ch=4 n=74 v=64
141096 Pb ch=4 v=1099
141116 On ch=4 n=78 v=99
141129 Pb ch=4 v=1668
141148 Pb ch=4 v=5233
141167 Pb ch=4 v=8192
141589 Off ch=4 n=78 v=64
141596 On ch=4 n=81 v=97
141829 Off ch=4 n=81 v=64
141836 On ch=4 n=79 v=100
142545 Off ch=4 n=79 v=64
142556 On ch=4 n=76 v=99
142770 Pb ch=4 v=986
142789 Off ch=4 n=76 v=64
142796 On ch=4 n=79 v=105
142845 Pb ch=4 v=8192
143509 Off ch=4 n=79 v=64
143516 On ch=4 n=76 v=103
143732 Off ch=4 n=76 v=64
143741 Pb ch=4 v=2275
143756 On ch=4 n=78 v=99
143760 Pb ch=4 v=75
143796 Pb ch=4 v=1668
143816 Pb ch=4 v=4551
143833 Pb ch=4 v=8192
144229 Off ch=4 n=78 v=64
144236 On ch=4 n=74 v=93
144526 Par ch=4 c=1 v=1
144564 Par ch=4 c=1 v=11
144601 Par ch=4 c=1 v=17
144657 Par ch=4 c=1 v=0
144673 Off ch=4 n=74 v=64
144940 Pb ch=4 v=2048
144956 On ch=4 n=78 v=105
144991 Pb ch=4 v=2578
145009 Pb ch=4 v=3868
145028 Pb ch=4 v=7205
145046 Pb ch=4 v=8192
145429 Off ch=4 n=78 v=64
145436 On ch=4 n=76 v=99
145669 Off ch=4 n=76 v=64
145676 On ch=4 n=78 v=105
146388 Off ch=4 n=78 v=64
146396 On ch=4 n=74 v=105
146521 Par ch=4 c=1 v=6
146559 Par ch=4 c=1 v=0
146632 Off ch=4 n=74 v=64
146863 Pb ch=4 v=3489
146876 On ch=4 n=74 v=103
146911 Pb ch=4 v=4854
146929 Pb ch=4 v=8192
147109 Off ch=4 n=74 v=64
147116 On ch=4 n=78 v=98
147349 Off ch=4 n=78 v=64
147356 On ch=4 n=76 v=105
147589 Off ch=4 n=76 v=64
147596 On ch=4 n=74 v=104
147812 Off ch=4 n=74 v=64
147836 On ch=4 n=74 v=99
148237 Par ch=4 c=1 v=2
148294 Par ch=4 c=1 v=9
148331 Par ch=4 c=1 v=16
148368 Par ch=4 c=1 v=0
148408 Off ch=4 n=74 v=64
148775 Pb ch=4 v=455
148796 On ch=4 n=78 v=113
148812 Pb ch=4 v=834
148830 Pb ch=4 v=2199
148849 Pb ch=4 v=5082
148868 Pb ch=4 v=8192
149029 Off ch=4 n=78 v=64
149036 On ch=4 n=81 v=106
149269 Off ch=4 n=81 v=64
149276 On ch=4 n=79 v=105
149509 Off ch=4 n=79 v=64
149516 On ch=4 n=78 v=113
149749 Off ch=4 n=78 v=64
149756 On ch=4 n=73 v=97
150170 Par ch=4 c=1 v=4
150225 Par ch=4 c=1 v=0
150297 Off ch=4 n=73 v=64
150709 Pb ch=4 v=151
150716 On ch=4 n=73 v=105
150728 Pb ch=4 v=1668
150747 Pb ch=4 v=3413
150764 Pb ch=4 v=5461
150783 Pb ch=4 v=8192
150949 Off ch=4 n=73 v=64
150956 On ch=4 n=79 v=103
151188 Off ch=4 n=79 v=64
151196 On ch=4 n=78 v=103
151429 Off ch=4 n=78 v=64
151436 On ch=4 n=76 v=110
151669 Off ch=4 n=76 v=64
151676 On ch=4 n=78 v=99
151909 Off ch=4 n=78 v=64
151916 On ch=4 n=76 v=99
152149 Off ch=4 n=76 v=64
152156 On ch=4 n=74 v=100
152446 Par ch=4 c=1 v=2
152483 Par ch=4 c=1 v=14
152486 Off ch=4 n=74 v=64
152520 Par ch=4 c=1 v=0
152620 Pb ch=4 v=2048
152636 On ch=4 n=78 v=105
152671 Pb ch=4 v=2578
152689 Pb ch=4 v=3868
152708 Pb ch=4 v=7205
152726 Pb ch=4 v=8192
153109 Off ch=4 n=78 v=64
153116 On ch=4 n=76 v=99
153349 Off ch=4 n=76 v=64
153356 On ch=4 n=78 v=105
154068 Off ch=4 n=78 v=64
154076 On ch=4 n=74 v=105
154201 Par ch=4 c=1 v=6
154239 Par ch=4 c=1 v=0
154312 Off ch=4 n=74 v=64
154543 Pb ch=4 v=3489
154556 On ch=4 n=74 v=103
154591 Pb ch=4 v=4854
154609 Pb ch=4 v=8192
154789 Off ch=4 n=74 v=64
154796 On ch=4 n=78 v=98
155029 Off ch=4 n=78 v=64
155036 On ch=4 n=76 v=105
155269 Off ch=4 n=76 v=64
155276 On ch=4 n=74 v=104
155497 Off ch=4 n=74 v=64
155516 On ch=4 n=74 v=99
155917 Par ch=4 c=1 v=2
155974 Par ch=4 c=1 v=9
156011 Par ch=4 c=1 v=16
156048 Par ch=4 c=1 v=0
156088 Off ch=4 n=74 v=64
156456 Pb ch=4 v=1099
156476 On ch=4 n=78 v=99
156489 Pb ch=4 v=1668
156508 Pb ch=4 v=5233
156527 Pb ch=4 v=8192
156949 Off ch=4 n=78 v=64
156956 On ch=4 n=81 v=97
157189 Off ch=4 n=81 v=64
157196 On ch=4 n=79 v=100
157905 Off ch=4 n=79 v=64
157916 On ch=4 n=76 v=99
158130 Pb ch=4 v=986
158149 Off ch=4 n=76 v=64
158156 On ch=4 n=79 v=105
158205 Pb ch=4 v=8192
158869 Off ch=4 n=79 v=64
158876 On ch=4 n=76 v=103
159092 Off ch=4 n=76 v=64
159101 Pb ch=4 v=2275
159116 On ch=4 n=78 v=99
159120 Pb ch=4 v=75
159156 Pb ch=4 v=1668
159176 Pb ch=4 v=4551
159193 Pb ch=4 v=8192
159589 Off ch=4 n=78 v=64
159596 On ch=4 n=74 v=93
159886 Par ch=4 c=1 v=1
159924 Par ch=4 c=1 v=11
159961 Par ch=4 c=1 v=17
160017 Par ch=4 c=1 v=0
160033 Off ch=4 n=74 v=64
183339 Pb ch=4 v=2882
183356 On ch=4 n=78 v=97
183378 Pb ch=4 v=3337
183395 Pb ch=4 v=4247
183415 Pb ch=4 v=6826
183433 Pb ch=4 v=8192
183571 Off ch=4 n=78 v=64
183596 On ch=4 n=78 v=97
183819 Off ch=4 n=78 v=64
183836 On ch=4 n=78 v=99
184029 Off ch=4 n=78 v=64
184076 On ch=4 n=78 v=106
184496 Par ch=4 c=1 v=6
184534 Par ch=4 c=1 v=12
184589 Par ch=4 c=1 v=24
184627 Par ch=4 c=1 v=29
184664 Par ch=4 c=1 v=0
184710 Off ch=4 n=78 v=64
185259 Pb ch=4 v=1137
185276 On ch=4 n=79 v=92
185314 Pb ch=4 v=1820
185333 Pb ch=4 v=4020
185352 Pb ch=4 v=8192
185488 Off ch=4 n=79 v=64
185516 On ch=4 n=79 v=92
185723 Off ch=4 n=79 v=64
185756 On ch=4 n=79 v=102
185989 Off ch=4 n=79 v=64
185996 On ch=4 n=78 v=97
186585 Par ch=4 c=1 v=1
186641 Par ch=4 c=1 v=14
186678 Off ch=4 n=78 v=64
186697 Par ch=4 c=1 v=0
187181 Pb ch=4 v=1896
187196 On ch=4 n=78 v=97
187208 Pb ch=4 v=1592
187246 Pb ch=4 v=2351
187265 Pb ch=4 v=4096
187283 Pb ch=4 v=8040
187302 Pb ch=4 v=8192
187408 Off ch=4 n=78 v=64
187436 On ch=4 n=78 v=97
187647 Off ch=4 n=78 v=64
187676 On ch=4 n=78 v=103
187909 Off ch=4 n=78 v=64
187916 On ch=4 n=76 v=110
188442 Par ch=4 c=1 v=4
188478 Par ch=4 c=1 v=11
188517 Par ch=4 c=1 v=21
188554 Par ch=4 c=1 v=31
188565 Off ch=4 n=76 v=64
188591 Par ch=4 c=1 v=0
189098 Pb ch=4 v=379
189116 On ch=4 n=76 v=99
189135 Pb ch=4 v=834
189154 Pb ch=4 v=1744
189174 Pb ch=4 v=4096
189192 Pb ch=4 v=8192
189328 Off ch=4 n=76 v=64
189356 On ch=4 n=76 v=91
189573 Off ch=4 n=76 v=64
189596 On ch=4 n=76 v=99
189829 Off ch=4 n=76 v=64
189836 On ch=4 n=78 v=99
190078 Off ch=4 n=78 v=64
190316 On ch=4 n=78 v=102
190556 Off ch=4 n=78 v=64
191020 Pb ch=4 v=2048
191036 On ch=4 n=78 v=105
191071 Pb ch=4 v=2578
191089 Pb ch=4 v=3868
191108 Pb ch=4 v=7205
191126 Pb ch=4 v=8192
191509 Off ch=4 n=78 v=64
191516 On ch=4 n=76 v=99
191749 Off ch=4 n=76 v=64
191756 On ch=4 n=78 v=105
192468 Off ch=4 n=78 v=64
192476 On ch=4 n=74 v=105
192601 Par ch=4 c=1 v=6
192639 Par ch=4 c=1 v=0
192712 Off ch=4 n=74 v=64
192943 Pb ch=4 v=3489
192956 On ch=4 n=74 v=103
192991 Pb ch=4 v=4854
193009 Pb ch=4 v=8192
193189 Off ch=4 n=74 v=64
193196 On ch=4 n=78 v=98
193429 Off ch=4 n=78 v=64
193436 On ch=4 n=76 v=105
193669 Off ch=4 n=76 v=64
193676 On ch=4 n=74 v=104
193892 Off ch=4 n=74 v=64
193916 On ch=4 n=74 v=99
194317 Par ch=4 c=1 v=2
194374 Par ch=4 c=1 v=9
194411 Par ch=4 c=1 v=16
194448 Par ch=4 c=1 v=0
194488 Off ch=4 n=74 v=64
194855 Pb ch=4 v=455
194876 On ch=4 n=78 v=113
194892 Pb ch=4 v=834
194910 Pb ch=4 v=2199
194929 Pb ch=4 v=5082
194948 Pb ch=4 v=8192
195109 Off ch=4 n=78 v=64
195116 On ch=4 n=81 v=106
195349 Off ch=4 n=81 v=64
195356 On ch=4 n=79 v=105
195589 Off ch=4 n=79 v=64
195596 On ch=4 n=78 v=113
195829 Off ch=4 n=78 v=64
195836 On ch=4 n=73 v=97
196250 Par ch=4 c=1 v=4
196305 Par ch=4 c=1 v=0
196377 Off ch=4 n=73 v=64
196789 Pb ch=4 v=151
196796 On ch=4 n=73 v=105
196808 Pb ch=4 v=1668
196827 Pb ch=4 v=3413
196844 Pb ch=4 v=5461
196863 Pb ch=4 v=8192
197029 Off ch=4 n=73 v=64
197036 On ch=4 n=79 v=103
197268 Off ch=4 n=79 v=64
197276 On ch=4 n=78 v=103
197509 Off ch=4 n=78 v=64
197516 On ch=4 n=76 v=110
197749 Off ch=4 n=76 v=64
197756 On ch=4 n=78 v=99
197989 Off ch=4 n=78 v=64
197996 On ch=4 n=76 v=99
198229 Off ch=4 n=76 v=64
198236 On ch=4 n=74 v=100
198526 Par ch=4 c=1 v=2
198563 Par ch=4 c=1 v=14
198566 Off ch=4 n=74 v=64
198600 Par ch=4 c=1 v=0
198700 Pb ch=4 v=2048
198716 On ch=4 n=78 v=105
198751 Pb ch=4 v=2578
198769 Pb ch=4 v=3868
198788 Pb ch=4 v=7205
198806 Pb ch=4 v=8192
199189 Off ch=4 n=78 v=64
199196 On ch=4 n=76 v=99
199429 Off ch=4 n=76 v=64
199436 On ch=4 n=78 v=105
200148 Off ch=4 n=78 v=64
200156 On ch=4 n=74 v=105
200281 Par ch=4 c=1 v=6
200319 Par ch=4 c=1 v=0
200392 Off ch=4 n=74 v=64
200623 Pb ch=4 v=3489
200636 On ch=4 n=74 v=103
200671 Pb ch=4 v=4854
200689 Pb ch=4 v=8192
200869 Off ch=4 n=74 v=64
200876 On ch=4 n=78 v=98
201109 Off ch=4 n=78 v=64
201116 On ch=4 n=76 v=105
201349 Off ch=4 n=76 v=64
201356 On ch=4 n=74 v=104
201577 Off ch=4 n=74 v=64
201596 On ch=4 n=74 v=99
201997 Par ch=4 c=1 v=2
202054 Par ch=4 c=1 v=9
202091 Par ch=4 c=1 v=16
202128 Par ch=4 c=1 v=0
202168 Off ch=4 n=74 v=64
202536 Pb ch=4 v=1099
202556 On ch=4 n=78 v=99
202569 Pb ch=4 v=1668
202588 Pb ch=4 v=5233
202607 Pb ch=4 v=8192
203029 Off ch=4 n=78 v=64
203036 On ch=4 n=81 v=97
203269 Off ch=4 n=81 v=64
203276 On ch=4 n=79 v=100
203985 Off ch=4 n=79 v=64
203996 On ch=4 n=76 v=99
204210 Pb ch=4 v=986
204229 Off ch=4 n=76 v=64
204236 On ch=4 n=79 v=105
204285 Pb ch=4 v=8192
204949 Off ch=4 n=79 v=64
204956 On ch=4 n=76 v=103
205172 Off ch=4 n=76 v=64
205181 Pb ch=4 v=2275
205196 On ch=4 n=78 v=99
205200 Pb ch=4 v=75
205236 Pb ch=4 v=1668
205256 Pb ch=4 v=4551
205273 Pb ch=4 v=8192
205669 Off ch=4 n=78 v=64
205676 On ch=4 n=74 v=93
205966 Par ch=4 c=1 v=1
206004 Par ch=4 c=1 v=11
206041 Par ch=4 c=1 v=17
206097 Par ch=4 c=1 v=0
206113 Off ch=4 n=74 v=64
206385 Pb ch=4 v=758
206396 On ch=4 n=74 v=107
206413 Pb ch=4 v=2048
206432 Pb ch=4 v=4247
206451 Pb ch=4 v=7812
206469 Pb ch=4 v=8192
206629 Off ch=4 n=74 v=64
206636 On ch=4 n=73 v=102
206869 Off ch=4 n=73 v=64
206876 On ch=4 n=74 v=107
207109 Off ch=4 n=74 v=64
207116 On ch=4 n=83 v=103
207516 Par ch=4 c=1 v=4
207553 Par ch=4 c=1 v=11
207590 Par ch=4 c=1 v=17
207647 Par ch=4 c=1 v=32
207661 Off ch=4 n=83 v=64
207702 Par ch=4 c=1 v=0
208296 Pb ch=4 v=1289
208316 On ch=4 n=74 v=105
208334 Pb ch=4 v=2578
208352 Pb ch=4 v=4626
208371 Pb ch=4 v=7205
208390 Pb ch=4 v=8192
208549 Off ch=4 n=74 v=64
208556 On ch=4 n=73 v=107
208789 Off ch=4 n=73 v=64
208796 On ch=4 n=74 v=107
209029 Off ch=4 n=74 v=64
209036 On ch=4 n=81 v=107
209455 Par ch=4 c=1 v=4
209511 Par ch=4 c=1 v=16
209563 Off ch=4 n=81 v=64
209567 Par ch=4 c=1 v=29
209622 Par ch=4 c=1 v=0
210216 Pb ch=4 v=1289
210236 On ch=4 n=74 v=105
210254 Pb ch=4 v=2578
210272 Pb ch=4 v=4626
210291 Pb ch=4 v=7205
210310 Pb ch=4 v=8192
210469 Off ch=4 n=74 v=64
210476 On ch=4 n=73 v=107
210709 Off ch=4 n=73 v=64
210716 On ch=4 n=74 v=107
210949 Off ch=4 n=74 v=64
210956 On ch=4 n=81 v=107
211375 Par ch=4 c=1 v=4
211431 Par ch=4 c=1 v=16
211483 Off ch=4 n=81 v=64
211487 Par ch=4 c=1 v=29
211542 Par ch=4 c=1 v=0
212135 Pb ch=4 v=1635
212156 On ch=4 n=74 v=108
212203 Pb ch=4 v=8192
212389 Off ch=4 n=74 v=64
212396 On ch=4 n=73 v=108
212602 Off ch=4 n=73 v=64
212636 On ch=4 n=74 v=114
212869 Off ch=4 n=74 v=64
212876 On ch=4 n=86 v=125
213077 Off ch=4 n=86 v=64
213356 On ch=4 n=83 v=108
213566 Off ch=4 n=83 v=64
214065 Pb ch=4 v=758
214076 On ch=4 n=74 v=107
214093 Pb ch=4 v=2048
214112 Pb ch=4 v=4247
214131 Pb ch=4 v=7812
214149 Pb ch=4 v=8192
214309 Off ch=4 n=74 v=64
214316 On ch=4 n=73 v=102
214549 Off ch=4 n=73 v=64
214556 On ch=4 n=74 v=107
214789 Off ch=4 n=74 v=64
214796 On ch=4 n=83 v=103
215196 Par ch=4 c=1 v=4
215233 Par ch=4 c=1 v=11
215270 Par ch=4 c=1 v=17
215327 Par ch=4 c=1 v=32
215341 Off ch=4 n=83 v=64
215382 Par ch=4 c=1 v=0
215976 Pb ch=4 v=1289
215996 On ch=4 n=74 v=105
216014 Pb ch=4 v=2578
216032 Pb ch=4 v=4626
216051 Pb ch=4 v=7205
216070 Pb ch=4 v=8192
216229 Off ch=4 n=74 v=64
216236 On ch=4 n=73 v=107
216469 Off ch=4 n=73 v=64
216476 On ch=4 n=74 v=107
216709 Off ch=4 n=74 v=64
216716 On ch=4 n=81 v=107
217135 Par ch=4 c=1 v=4
217191 Par ch=4 c=1 v=16
217243 Off ch=4 n=81 v=64
217247 Par ch=4 c=1 v=29
217302 Par ch=4 c=1 v=0
217896 Pb ch=4 v=1289
217916 On ch=4 n=74 v=105
217934 Pb ch=4 v=2578
217952 Pb ch=4 v=4626
217971 Pb ch=4 v=7205
217990 Pb ch=4 v=8192
218149 Off ch=4 n=74 v=64
218156 On ch=4 n=73 v=107
218389 Off ch=4 n=73 v=64
218396 On ch=4 n=74 v=107
218629 Off ch=4 n=74 v=64
218636 On ch=4 n=81 v=107
219055 Par ch=4 c=1 v=4
219111 Par ch=4 c=1 v=16
219163 Off ch=4 n=81 v=64
219167 Par ch=4 c=1 v=29
219222 Par ch=4 c=1 v=0
219815 Pb ch=4 v=1635
219836 On ch=4 n=74 v=108
219883 Pb ch=4 v=8192
220069 Off ch=4 n=74 v=64
220076 On ch=4 n=73 v=108
220282 Off ch=4 n=73 v=64
220316 On ch=4 n=74 v=114
220499 Off ch=4 n=74 v=64
220556 On ch=4 n=74 v=92
220757 Off ch=4 n=74 v=64
221036 On ch=4 n=71 v=108
221246 Off ch=4 n=71 v=64
221246 Meta TrkEnd
TrkEnd
MTrk
0 SeqSpec 05 0f 09 00 40
0 SeqSpec 05 0f 06 47 65 6e 65 72 61 6c 20 4d 49 44 49
0 Meta TrkName "Track 6"
0 Meta 0x20 04
484 Par ch=5 c=0 v=0
504 PrCh ch=5 p=50
514 Par ch=5 c=7 v=64
524 Par ch=5 c=10 v=64
534 Par ch=5 c=11 v=127
544 Par ch=5 c=91 v=108
554 Par ch=5 c=93 v=88
564 Par ch=5 c=64 v=0
574 Par ch=5 c=1 v=0
584 Pb ch=5 v=8192
5715 On ch=5 n=55 v=72
5715 On ch=5 n=59 v=72
5715 On ch=5 n=62 v=72
7624 Off ch=5 n=62 v=64
7624 Off ch=5 n=59 v=64
7624 Off ch=5 n=55 v=64
7635 On ch=5 n=57 v=72
7635 On ch=5 n=62 v=72
7635 On ch=5 n=66 v=72
9544 Off ch=5 n=66 v=64
9544 Off ch=5 n=62 v=64
9555 On ch=5 n=61 v=72
9555 On ch=5 n=64 v=72
11464 Off ch=5 n=64 v=64
11464 Off ch=5 n=61 v=64
11464 Off ch=5 n=57 v=64
11475 On ch=5 n=59 v=72
11475 On ch=5 n=62 v=72
11475 On ch=5 n=66 v=72
13384 Off ch=5 n=66 v=64
13384 Off ch=5 n=62 v=64
13384 Off ch=5 n=59 v=64
13395 On ch=5 n=55 v=72
13395 On ch=5 n=59 v=72
13395 On ch=5 n=62 v=72
15304 Off ch=5 n=62 v=64
15304 Off ch=5 n=59 v=64
15304 Off ch=5 n=55 v=64
15315 On ch=5 n=57 v=72
15315 On ch=5 n=62 v=72
15315 On ch=5 n=66 v=72
17224 Off ch=5 n=66 v=64
17224 Off ch=5 n=62 v=64
17235 On ch=5 n=61 v=72
17235 On ch=5 n=64 v=72
19144 Off ch=5 n=64 v=64
19144 Off ch=5 n=61 v=64
19144 Off ch=5 n=57 v=64
19155 On ch=5 n=59 v=72
19155 On ch=5 n=62 v=72
19155 On ch=5 n=66 v=72
20104 Off ch=5 n=66 v=64
20104 Off ch=5 n=62 v=64
20104 Off ch=5 n=59 v=64
21075 On ch=5 n=55 v=84
21075 On ch=5 n=59 v=84
21075 On ch=5 n=62 v=84
22984 Off ch=5 n=62 v=64
22984 Off ch=5 n=59 v=64
22984 Off ch=5 n=55 v=64
22995 On ch=5 n=57 v=84
22995 On ch=5 n=62 v=84
22995 On ch=5 n=66 v=84
24904 Off ch=5 n=66 v=64
24904 Off ch=5 n=62 v=64
24915 On ch=5 n=61 v=84
24915 On ch=5 n=64 v=84
26824 Off ch=5 n=64 v=64
26824 Off ch=5 n=61 v=64
26824 Off ch=5 n=57 v=64
26835 On ch=5 n=59 v=84
26835 On ch=5 n=62 v=84
26835 On ch=5 n=66 v=84
28744 Off ch=5 n=66 v=64
28744 Off ch=5 n=62 v=64
28744 Off ch=5 n=59 v=64
28755 On ch=5 n=55 v=84
28755 On ch=5 n=59 v=84
28755 On ch=5 n=62 v=84
30664 Off ch=5 n=62 v=64
30664 Off ch=5 n=59 v=64
30664 Off ch=5 n=55 v=64
30675 On ch=5 n=57 v=84
30675 On ch=5 n=62 v=84
30675 On ch=5 n=66 v=84
32584 Off ch=5 n=66 v=64
32584 Off ch=5 n=62 v=64
32595 On ch=5 n=61 v=84
32595 On ch=5 n=64 v=84
34504 Off ch=5 n=64 v=64
34504 Off ch=5 n=61 v=64
36304 Off ch=5 n=57 v=64
36435 On ch=5 n=54 v=72
36435 On ch=5 n=59 v=72
36435 On ch=5 n=62 v=72
38344 Off ch=5 n=54 v=64
38355 On ch=5 n=55 v=72
40264 Off ch=5 n=62 v=64
40264 Off ch=5 n=59 v=64
40264 Off ch=5 n=55 v=64
40275 On ch=5 n=54 v=72
40275 On ch=5 n=57 v=72
40275 On ch=5 n=62 v=72
42184 Off ch=5 n=62 v=64
42184 Off ch=5 n=57 v=64
42184 Off ch=5 n=54 v=64
42195 On ch=5 n=52 v=72
42195 On ch=5 n=57 v=72
42195 On ch=5 n=61 v=72
43270 Off ch=5 n=61 v=64
43270 Off ch=5 n=57 v=64
43270 Off ch=5 n=52 v=64
45075 On ch=5 n=54 v=78
45075 On ch=5 n=59 v=88
45075 On ch=5 n=62 v=77
46024 Off ch=5 n=54 v=64
46035 On ch=5 n=55 v=87
47944 Off ch=5 n=59 v=64
47944 Off ch=5 n=55 v=64
47955 On ch=5 n=54 v=85
47955 On ch=5 n=57 v=82
49864 Off ch=5 n=62 v=64
49864 Off ch=5 n=57 v=64
49864 Off ch=5 n=54 v=64
49875 On ch=5 n=52 v=87
49875 On ch=5 n=57 v=85
49875 On ch=5 n=61 v=92
51443 Off ch=5 n=61 v=64
51443 Off ch=5 n=57 v=64
51443 Off ch=5 n=52 v=64
51795 On ch=5 n=54 v=72
51795 On ch=5 n=59 v=72
51795 On ch=5 n=62 v=72
53704 Off ch=5 n=54 v=64
53715 On ch=5 n=55 v=72
55624 Off ch=5 n=62 v=64
55624 Off ch=5 n=59 v=64
55624 Off ch=5 n=55 v=64
55635 On ch=5 n=54 v=72
55635 On ch=5 n=57 v=72
55635 On ch=5 n=62 v=72
57544 Off ch=5 n=62 v=64
57544 Off ch=5 n=57 v=64
57544 Off ch=5 n=54 v=64
57555 On ch=5 n=52 v=72
57555 On ch=5 n=57 v=72
57555 On ch=5 n=61 v=72
59464 Off ch=5 n=61 v=64
59464 Off ch=5 n=57 v=64
59464 Off ch=5 n=52 v=64
59475 On ch=5 n=54 v=72
59475 On ch=5 n=59 v=72
59475 On ch=5 n=62 v=72
61384 Off ch=5 n=62 v=64
61384 Off ch=5 n=59 v=64
61384 Off ch=5 n=54 v=64
63315 On ch=5 n=54 v=72
63315 On ch=5 n=57 v=72
63315 On ch=5 n=62 v=72
65224 Off ch=5 n=62 v=64
65224 Off ch=5 n=57 v=64
65224 Off ch=5 n=54 v=64
65235 On ch=5 n=52 v=72
65235 On ch=5 n=57 v=72
65235 On ch=5 n=61 v=72
67144 Off ch=5 n=61 v=64
67144 Off ch=5 n=57 v=64
67144 Off ch=5 n=52 v=64
69075 On ch=5 n=55 v=84
69075 On ch=5 n=59 v=84
69075 On ch=5 n=62 v=84
70984 Off ch=5 n=62 v=64
70984 Off ch=5 n=59 v=64
70984 Off ch=5 n=55 v=64
70995 On ch=5 n=57 v=84
70995 On ch=5 n=62 v=84
70995 On ch=5 n=66 v=84
72904 Off ch=5 n=66 v=64
72904 Off ch=5 n=62 v=64
72915 On ch=5 n=61 v=84
72915 On ch=5 n=64 v=84
74824 Off ch=5 n=64 v=64
74824 Off ch=5 n=61 v=64
74824 Off ch=5 n=57 v=64
74835 On ch=5 n=59 v=84
74835 On ch=5 n=62 v=84
74835 On ch=5 n=66 v=84
76744 Off ch=5 n=66 v=64
76744 Off ch=5 n=62 v=64
76744 Off ch=5 n=59 v=64
76755 On ch=5 n=55 v=84
76755 On ch=5 n=59 v=84
76755 On ch=5 n=62 v=84
78664 Off ch=5 n=62 v=64
78664 Off ch=5 n=59 v=64
78664 Off ch=5 n=55 v=64
78675 On ch=5 n=57 v=84
78675 On ch=5 n=62 v=84
78675 On ch=5 n=66 v=84
80584 Off ch=5 n=66 v=64
80584 Off ch=5 n=62 v=64
80595 On ch=5 n=61 v=84
80595 On ch=5 n=64 v=84
82504 Off ch=5 n=64 v=64
82504 Off ch=5 n=61 v=64
82504 Off ch=5 n=57 v=64
82515 On ch=5 n=59 v=84
82515 On ch=5 n=62 v=84
82515 On ch=5 n=66 v=84
84424 Off ch=5 n=66 v=64
84424 Off ch=5 n=62 v=64
84424 Off ch=5 n=59 v=64
84435 On ch=5 n=55 v=84
84435 On ch=5 n=59 v=84
84435 On ch=5 n=62 v=84
86344 Off ch=5 n=62 v=64
86344 Off ch=5 n=59 v=64
86344 Off ch=5 n=55 v=64
86355 On ch=5 n=57 v=84
86355 On ch=5 n=62 v=84
86355 On ch=5 n=66 v=84
88264 Off ch=5 n=66 v=64
88264 Off ch=5 n=62 v=64
88275 On ch=5 n=61 v=84
88275 On ch=5 n=64 v=84
90184 Off ch=5 n=64 v=64
90184 Off ch=5 n=61 v=64
90184 Off ch=5 n=57 v=64
90195 On ch=5 n=59 v=84
90195 On ch=5 n=62 v=84
90195 On ch=5 n=66 v=84
92104 Off ch=5 n=66 v=64
92104 Off ch=5 n=62 v=64
92104 Off ch=5 n=59 v=64
92115 On ch=5 n=55 v=84
92115 On ch=5 n=59 v=84
92115 On ch=5 n=62 v=84
94024 Off ch=5 n=62 v=64
94024 Off ch=5 n=59 v=64
94024 Off ch=5 n=55 v=64
94035 On ch=5 n=57 v=84
94035 On ch=5 n=62 v=84
94035 On ch=5 n=66 v=84
95944 Off ch=5 n=66 v=64
95944 Off ch=5 n=62 v=64
95955 On ch=5 n=61 v=84
95955 On ch=5 n=64 v=84
97864 Off ch=5 n=64 v=64
97864 Off ch=5 n=61 v=64
97864 Off ch=5 n=57 v=64
97875 On ch=5 n=54 v=72
97875 On ch=5 n=59 v=72
97875 On ch=5 n=62 v=72
99784 Off ch=5 n=54 v=64
99795 On ch=5 n=55 v=72
101704 Off ch=5 n=62 v=64
101704 Off ch=5 n=59 v=64
101704 Off ch=5 n=55 v=64
101715 On ch=5 n=54 v=72
101715 On ch=5 n=57 v=72
101715 On ch=5 n=62 v=72
103624 Off ch=5 n=62 v=64
103624 Off ch=5 n=57 v=64
103624 Off ch=5 n=54 v=64
103635 On ch=5 n=52 v=72
103635 On ch=5 n=57 v=72
103635 On ch=5 n=61 v=72
104710 Off ch=5 n=61 v=64
104710 Off ch=5 n=57 v=64
104710 Off ch=5 n=52 v=64
106515 On ch=5 n=54 v=78
106515 On ch=5 n=59 v=88
106515 On ch=5 n=62 v=77
107464 Off ch=5 n=54 v=64
107475 On ch=5 n=55 v=87
109384 Off ch=5 n=59 v=64
109384 Off ch=5 n=55 v=64
109395 On ch=5 n=54 v=85
109395 On ch=5 n=57 v=82
111304 Off ch=5 n=62 v=64
111304 Off ch=5 n=57 v=64
111304 Off ch=5 n=54 v=64
111315 On ch=5 n=52 v=87
111315 On ch=5 n=57 v=85
111315 On ch=5 n=61 v=92
112883 Off ch=5 n=61 v=64
112883 Off ch=5 n=57 v=64
112883 Off ch=5 n=52 v=64
113235 On ch=5 n=54 v=72
113235 On ch=5 n=59 v=72
113235 On ch=5 n=62 v=72
115144 Off ch=5 n=54 v=64
115155 On ch=5 n=55 v=72
117064 Off ch=5 n=62 v=64
117064 Off ch=5 n=59 v=64
117064 Off ch=5 n=55 v=64
117075 On ch=5 n=54 v=72
117075 On ch=5 n=57 v=72
117075 On ch=5 n=62 v=72
118984 Off ch=5 n=62 v=64
118984 Off ch=5 n=57 v=64
118984 Off ch=5 n=54 v=64
118995 On ch=5 n=52 v=72
118995 On ch=5 n=57 v=72
118995 On ch=5 n=61 v=72
120904 Off ch=5 n=61 v=64
120904 Off ch=5 n=57 v=64
120904 Off ch=5 n=52 v=64
120915 On ch=5 n=54 v=72
120915 On ch=5 n=59 v=72
120915 On ch=5 n=62 v=72
122824 Off ch=5 n=62 v=64
122824 Off ch=5 n=59 v=64
122824 Off ch=5 n=54 v=64
124755 On ch=5 n=54 v=72
124755 On ch=5 n=57 v=72
124755 On ch=5 n=62 v=72
126664 Off ch=5 n=62 v=64
126664 Off ch=5 n=57 v=64
126664 Off ch=5 n=54 v=64
126675 On ch=5 n=52 v=72
126675 On ch=5 n=57 v=72
126675 On ch=5 n=61 v=72
128584 Off ch=5 n=61 v=64
128584 Off ch=5 n=57 v=64
128584 Off ch=5 n=52 v=64
130515 On ch=5 n=55 v=84
130515 On ch=5 n=59 v=84
130515 On ch=5 n=62 v=84
132424 Off ch=5 n=62 v=64
132424 Off ch=5 n=59 v=64
132424 Off ch=5 n=55 v=64
132435 On ch=5 n=57 v=84
132435 On ch=5 n=62 v=84
132435 On ch=5 n=66 v=84
134344 Off ch=5 n=66 v=64
134344 Off ch=5 n=62 v=64
134355 On ch=5 n=61 v=84
134355 On ch=5 n=64 v=84
136264 Off ch=5 n=64 v=64
136264 Off ch=5 n=61 v=64
136264 Off ch=5 n=57 v=64
136275 On ch=5 n=59 v=84
136275 On ch=5 n=62 v=84
136275 On ch=5 n=66 v=84
138184 Off ch=5 n=66 v=64
138184 Off ch=5 n=62 v=64
138184 Off ch=5 n=59 v=64
138195 On ch=5 n=55 v=84
138195 On ch=5 n=59 v=84
138195 On ch=5 n=62 v=84
140104 Off ch=5 n=62 v=64
140104 Off ch=5 n=59 v=64
140104 Off ch=5 n=55 v=64
140115 On ch=5 n=57 v=84
140115 On ch=5 n=62 v=84
140115 On ch=5 n=66 v=84
142024 Off ch=5 n=66 v=64
142024 Off ch=5 n=62 v=64
142035 On ch=5 n=61 v=84
142035 On ch=5 n=64 v=84
143944 Off ch=5 n=64 v=64
143944 Off ch=5 n=61 v=64
143944 Off ch=5 n=57 v=64
143955 On ch=5 n=59 v=84
143955 On ch=5 n=62 v=84
143955 On ch=5 n=66 v=84
145864 Off ch=5 n=66 v=64
145864 Off ch=5 n=62 v=64
145864 Off ch=5 n=59 v=64
145875 On ch=5 n=55 v=84
145875 On ch=5 n=59 v=84
145875 On ch=5 n=62 v=84
147784 Off ch=5 n=62 v=64
147784 Off ch=5 n=59 v=64
147784 Off ch=5 n=55 v=64
147795 On ch=5 n=57 v=84
147795 On ch=5 n=62 v=84
147795 On ch=5 n=66 v=84
149704 Off ch=5 n=66 v=64
149704 Off ch=5 n=62 v=64
149715 On ch=5 n=61 v=84
149715 On ch=5 n=64 v=84
151624 Off ch=5 n=64 v=64
151624 Off ch=5 n=61 v=64
151624 Off ch=5 n=57 v=64
151635 On ch=5 n=59 v=84
151635 On ch=5 n=62 v=84
151635 On ch=5 n=66 v=84
153544 Off ch=5 n=66 v=64
153544 Off ch=5 n=62 v=64
153544 Off ch=5 n=59 v=64
153555 On ch=5 n=55 v=84
153555 On ch=5 n=59 v=84
153555 On ch=5 n=62 v=84
155464 Off ch=5 n=62 v=64
155464 Off ch=5 n=59 v=64
155464 Off ch=5 n=55 v=64
155475 On ch=5 n=57 v=84
155475 On ch=5 n=62 v=84
155475 On ch=5 n=66 v=84
157384 Off ch=5 n=66 v=64
157384 Off ch=5 n=62 v=64
157395 On ch=5 n=61 v=84
157395 On ch=5 n=64 v=84
159304 Off ch=5 n=64 v=64
159304 Off ch=5 n=61 v=64
159304 Off ch=5 n=57 v=64
161235 On ch=5 n=55 v=71
161235 On ch=5 n=59 v=71
161235 On ch=5 n=62 v=71
163144 Off ch=5 n=62 v=64
163144 Off ch=5 n=59 v=64
163144 Off ch=5 n=55 v=64
163155 On ch=5 n=57 v=71
163155 On ch=5 n=62 v=71
163155 On ch=5 n=66 v=71
165064 Off ch=5 n=66 v=64
165064 Off ch=5 n=62 v=64
165075 On ch=5 n=61 v=71
165075 On ch=5 n=64 v=71
166984 Off ch=5 n=64 v=64
166984 Off ch=5 n=61 v=64
166984 Off ch=5 n=57 v=64
166995 On ch=5 n=59 v=71
166995 On ch=5 n=62 v=71
166995 On ch=5 n=66 v=71
168904 Off ch=5 n=66 v=64
168904 Off ch=5 n=62 v=64
168904 Off ch=5 n=59 v=64
168915 On ch=5 n=55 v=71
168915 On ch=5 n=59 v=71
168915 On ch=5 n=62 v=71
170824 Off ch=5 n=62 v=64
170824 Off ch=5 n=59 v=64
170824 Off ch=5 n=55 v=64
170835 On ch=5 n=57 v=71
170835 On ch=5 n=62 v=71
170835 On ch=5 n=66 v=71
172744 Off ch=5 n=66 v=64
172744 Off ch=5 n=62 v=64
172755 On ch=5 n=61 v=71
172755 On ch=5 n=64 v=71
174664 Off ch=5 n=64 v=64
174664 Off ch=5 n=61 v=64
174664 Off ch=5 n=57 v=64
174675 On ch=5 n=59 v=71
174675 On ch=5 n=62 v=71
174675 On ch=5 n=66 v=71
175624 Off ch=5 n=66 v=64
175624 Off ch=5 n=62 v=64
175624 Off ch=5 n=59 v=64
176595 On ch=5 n=55 v=84
176595 On ch=5 n=59 v=84
176595 On ch=5 n=62 v=84
178504 Off ch=5 n=62 v=64
178504 Off ch=5 n=59 v=64
178504 Off ch=5 n=55 v=64
178515 On ch=5 n=57 v=84
178515 On ch=5 n=62 v=84
178515 On ch=5 n=66 v=84
180424 Off ch=5 n=66 v=64
180424 Off ch=5 n=62 v=64
180435 On ch=5 n=61 v=84
180435 On ch=5 n=64 v=84
182344 Off ch=5 n=64 v=64
182344 Off ch=5 n=61 v=64
182344 Off ch=5 n=57 v=64
182355 On ch=5 n=59 v=84
182355 On ch=5 n=62 v=84
182355 On ch=5 n=66 v=84
184264 Off ch=5 n=66 v=64
184264 Off ch=5 n=62 v=64
184264 Off ch=5 n=59 v=64
184275 On ch=5 n=55 v=84
184275 On ch=5 n=59 v=84
184275 On ch=5 n=62 v=84
186184 Off ch=5 n=62 v=64
186184 Off ch=5 n=59 v=64
186184 Off ch=5 n=55 v=64
186195 On ch=5 n=57 v=84
186195 On ch=5 n=62 v=84
186195 On ch=5 n=66 v=84
188104 Off ch=5 n=66 v=64
188104 Off ch=5 n=62 v=64
188115 On ch=5 n=61 v=84
188115 On ch=5 n=64 v=84
190024 Off ch=5 n=64 v=64
190024 Off ch=5 n=61 v=64
190024 Off ch=5 n=57 v=64
190035 On ch=5 n=59 v=84
190035 On ch=5 n=62 v=84
190035 On ch=5 n=66 v=84
191944 Off ch=5 n=66 v=64
191944 Off ch=5 n=62 v=64
191944 Off ch=5 n=59 v=64
191955 On ch=5 n=55 v=84
191955 On ch=5 n=59 v=84
191955 On ch=5 n=62 v=84
193864 Off ch=5 n=62 v=64
193864 Off ch=5 n=59 v=64
193864 Off ch=5 n=55 v=64
193875 On ch=5 n=57 v=84
193875 On ch=5 n=62 v=84
193875 On ch=5 n=66 v=84
195784 Off ch=5 n=66 v=64
195784 Off ch=5 n=62 v=64
195795 On ch=5 n=61 v=84
195795 On ch=5 n=64 v=84
197704 Off ch=5 n=64 v=64
197704 Off ch=5 n=61 v=64
197704 Off ch=5 n=57 v=64
197715 On ch=5 n=59 v=84
197715 On ch=5 n=62 v=84
197715 On ch=5 n=66 v=84
199624 Off ch=5 n=66 v=64
199624 Off ch=5 n=62 v=64
199624 Off ch=5 n=59 v=64
199635 On ch=5 n=55 v=84
199635 On ch=5 n=59 v=84
199635 On ch=5 n=62 v=84
201544 Off ch=5 n=62 v=64
201544 Off ch=5 n=59 v=64
201544 Off ch=5 n=55 v=64
201555 On ch=5 n=57 v=84
201555 On ch=5 n=62 v=84
201555 On ch=5 n=66 v=84
203464 Off ch=5 n=66 v=64
203464 Off ch=5 n=62 v=64
203475 On ch=5 n=61 v=84
203475 On ch=5 n=64 v=84
205384 Off ch=5 n=64 v=64
205384 Off ch=5 n=61 v=64
205384 Off ch=5 n=57 v=64
205395 On ch=5 n=59 v=84
205395 On ch=5 n=62 v=84
205395 On ch=5 n=66 v=84
207304 Off ch=5 n=66 v=64
207304 Off ch=5 n=62 v=64
207304 Off ch=5 n=59 v=64
207315 On ch=5 n=55 v=84
207315 On ch=5 n=59 v=84
207315 On ch=5 n=62 v=84
209224 Off ch=5 n=62 v=64
209224 Off ch=5 n=59 v=64
209224 Off ch=5 n=55 v=64
209235 On ch=5 n=57 v=84
209235 On ch=5 n=62 v=84
209235 On ch=5 n=66 v=84
211144 Off ch=5 n=66 v=64
211144 Off ch=5 n=62 v=64
211155 On ch=5 n=61 v=84
211155 On ch=5 n=64 v=84
213064 Off ch=5 n=64 v=64
213064 Off ch=5 n=61 v=64
213064 Off ch=5 n=57 v=64
213075 On ch=5 n=59 v=84
213075 On ch=5 n=62 v=84
213075 On ch=5 n=66 v=84
214984 Off ch=5 n=66 v=64
214984 Off ch=5 n=62 v=64
214984 Off ch=5 n=59 v=64
214995 On ch=5 n=55 v=84
214995 On ch=5 n=59 v=84
214995 On ch=5 n=62 v=84
216904 Off ch=5 n=62 v=64
216904 Off ch=5 n=59 v=64
216904 Off ch=5 n=55 v=64
216915 On ch=5 n=57 v=84
216915 On ch=5 n=62 v=84
216915 On ch=5 n=66 v=84
218824 Off ch=5 n=66 v=64
218824 Off ch=5 n=62 v=64
218835 On ch=5 n=61 v=84
218835 On ch=5 n=64 v=84
220744 Off ch=5 n=64 v=64
220744 Off ch=5 n=61 v=64
220744 Off ch=5 n=57 v=64
220744 Meta TrkEnd
TrkEnd
MTrk
0 SeqSpec 05 0f 09 00 40
0 SeqSpec 05 0f 06 47 65 6e 65 72 61 6c 20 4d 49 44 49
0 Meta TrkName "Track 7"
0 Meta 0x20 05
485 Par ch=6 c=0 v=0
505 PrCh ch=6 p=100
515 Par ch=6 c=7 v=50
525 Par ch=6 c=10 v=34
535 Par ch=6 c=11 v=127
545 Par ch=6 c=91 v=89
555 Par ch=6 c=93 v=46
565 Par ch=6 c=64 v=0
575 Par ch=6 c=1 v=0
585 Pb ch=6 v=8192
69105 On ch=6 n=71 v=100
69119 On ch=6 n=74 v=100
69149 On ch=6 n=79 v=100
69215 Off ch=6 n=71 v=64
69229 Off ch=6 n=74 v=64
69259 Off ch=6 n=79 v=64
71025 On ch=6 n=69 v=100
71039 On ch=6 n=74 v=100
71069 On ch=6 n=78 v=100
71135 Off ch=6 n=69 v=64
71149 Off ch=6 n=74 v=64
71179 Off ch=6 n=78 v=64
72945 On ch=6 n=69 v=100
72959 On ch=6 n=73 v=100
72989 On ch=6 n=76 v=100
73055 Off ch=6 n=69 v=64
73069 Off ch=6 n=73 v=64
73099 Off ch=6 n=76 v=64
74865 On ch=6 n=71 v=100
74879 On ch=6 n=74 v=100
74909 On ch=6 n=78 v=100
74975 Off ch=6 n=71 v=64
74989 Off ch=6 n=74 v=64
75019 Off ch=6 n=78 v=64
76785 On ch=6 n=71 v=100
76799 On ch=6 n=74 v=100
76829 On ch=6 n=79 v=100
76895 Off ch=6 n=71 v=64
76909 Off ch=6 n=74 v=64
76939 Off ch=6 n=79 v=64
78705 On ch=6 n=69 v=100
78719 On ch=6 n=74 v=100
78749 On ch=6 n=78 v=100
78815 Off ch=6 n=69 v=64
78829 Off ch=6 n=74 v=64
78859 Off ch=6 n=78 v=64
80625 On ch=6 n=69 v=100
80639 On ch=6 n=73 v=100
80669 On ch=6 n=76 v=100
80735 Off ch=6 n=69 v=64
80749 Off ch=6 n=73 v=64
80779 Off ch=6 n=76 v=64
82545 On ch=6 n=71 v=100
82559 On ch=6 n=74 v=100
82589 On ch=6 n=78 v=100
82655 Off ch=6 n=71 v=64
82669 Off ch=6 n=74 v=64
82699 Off ch=6 n=78 v=64
84465 On ch=6 n=71 v=100
84479 On ch=6 n=74 v=100
84509 On ch=6 n=79 v=100
84575 Off ch=6 n=71 v=64
84589 Off ch=6 n=74 v=64
84619 Off ch=6 n=79 v=64
86385 On ch=6 n=69 v=100
86399 On ch=6 n=74 v=100
86429 On ch=6 n=78 v=100
86495 Off ch=6 n=69 v=64
86509 Off ch=6 n=74 v=64
86539 Off ch=6 n=78 v=64
88305 On ch=6 n=69 v=100
88319 On ch=6 n=73 v=100
88349 On ch=6 n=76 v=100
88415 Off ch=6 n=69 v=64
88429 Off ch=6 n=73 v=64
88459 Off ch=6 n=76 v=64
90225 On ch=6 n=71 v=100
90239 On ch=6 n=74 v=100
90269 On ch=6 n=78 v=100
90335 Off ch=6 n=71 v=64
90349 Off ch=6 n=74 v=64
90379 Off ch=6 n=78 v=64
92145 On ch=6 n=71 v=100
92159 On ch=6 n=74 v=100
92189 On ch=6 n=79 v=100
92255 Off ch=6 n=71 v=64
92269 Off ch=6 n=74 v=64
92299 Off ch=6 n=79 v=64
94065 On ch=6 n=69 v=100
94079 On ch=6 n=74 v=100
94109 On ch=6 n=78 v=100
94175 Off ch=6 n=69 v=64
94189 Off ch=6 n=74 v=64
94219 Off ch=6 n=78 v=64
95985 On ch=6 n=69 v=100
95999 On ch=6 n=73 v=100
96029 On ch=6 n=76 v=100
96095 Off ch=6 n=69 v=64
96109 Off ch=6 n=73 v=64
96139 Off ch=6 n=76 v=64
130545 On ch=6 n=71 v=100
130559 On ch=6 n=74 v=100
130589 On ch=6 n=79 v=100
130655 Off ch=6 n=71 v=64
130669 Off ch=6 n=74 v=64
130699 Off ch=6 n=79 v=64
132465 On ch=6 n=69 v=100
132479 On ch=6 n=74 v=100
132509 On ch=6 n=78 v=100
132575 Off ch=6 n=69 v=64
132589 Off ch=6 n=74 v=64
132619 Off ch=6 n=78 v=64
134385 On ch=6 n=69 v=100
134399 On ch=6 n=73 v=100
134429 On ch=6 n=76 v=100
134495 Off ch=6 n=69 v=64
134509 Off ch=6 n=73 v=64
134539 Off ch=6 n=76 v=64
136305 On ch=6 n=71 v=100
136319 On ch=6 n=74 v=100
136349 On ch=6 n=78 v=100
136415 Off ch=6 n=71 v=64
136429 Off ch=6 n=74 v=64
136459 Off ch=6 n=78 v=64
138225 On ch=6 n=71 v=100
138239 On ch=6 n=74 v=100
138269 On ch=6 n=79 v=100
138335 Off ch=6 n=71 v=64
138349 Off ch=6 n=74 v=64
138379 Off ch=6 n=79 v=64
140145 On ch=6 n=69 v=100
140159 On ch=6 n=74 v=100
140189 On ch=6 n=78 v=100
140255 Off ch=6 n=69 v=64
140269 Off ch=6 n=74 v=64
140299 Off ch=6 n=78 v=64
142065 On ch=6 n=69 v=100
142079 On ch=6 n=73 v=100
142109 On ch=6 n=76 v=100
142175 Off ch=6 n=69 v=64
142189 Off ch=6 n=73 v=64
142219 Off ch=6 n=76 v=64
143985 On ch=6 n=71 v=100
143999 On ch=6 n=74 v=100
144029 On ch=6 n=78 v=100
144095 Off ch=6 n=71 v=64
144109 Off ch=6 n=74 v=64
144139 Off ch=6 n=78 v=64
145905 On ch=6 n=71 v=100
145919 On ch=6 n=74 v=100
145949 On ch=6 n=79 v=100
146015 Off ch=6 n=71 v=64
146029 Off ch=6 n=74 v=64
146059 Off ch=6 n=79 v=64
147825 On ch=6 n=69 v=100
147839 On ch=6 n=74 v=100
147869 On ch=6 n=78 v=100
147935 Off ch=6 n=69 v=64
147949 Off ch=6 n=74 v=64
147979 Off ch=6 n=78 v=64
149745 On ch=6 n=69 v=100
149759 On ch=6 n=73 v=100
149789 On ch=6 n=76 v=100
149855 Off ch=6 n=69 v=64
149869 Off ch=6 n=73 v=64
149899 Off ch=6 n=76 v=64
151665 On ch=6 n=71 v=100
151679 On ch=6 n=74 v=100
151709 On ch=6 n=78 v=100
151775 Off ch=6 n=71 v=64
151789 Off ch=6 n=74 v=64
151819 Off ch=6 n=78 v=64
153585 On ch=6 n=71 v=100
153599 On ch=6 n=74 v=100
153629 On ch=6 n=79 v=100
153695 Off ch=6 n=71 v=64
153709 Off ch=6 n=74 v=64
153739 Off ch=6 n=79 v=64
155505 On ch=6 n=69 v=100
155519 On ch=6 n=74 v=100
155549 On ch=6 n=78 v=100
155615 Off ch=6 n=69 v=64
155629 Off ch=6 n=74 v=64
155659 Off ch=6 n=78 v=64
157425 On ch=6 n=69 v=100
157439 On ch=6 n=73 v=100
157469 On ch=6 n=76 v=100
157535 Off ch=6 n=69 v=64
157549 Off ch=6 n=73 v=64
157579 Off ch=6 n=76 v=64
176625 On ch=6 n=71 v=100
176639 On ch=6 n=74 v=100
176669 On ch=6 n=79 v=100
176735 Off ch=6 n=71 v=64
176749 Off ch=6 n=74 v=64
176779 Off ch=6 n=79 v=64
178545 On ch=6 n=69 v=100
178559 On ch=6 n=74 v=100
178589 On ch=6 n=78 v=100
178655 Off ch=6 n=69 v=64
178669 Off ch=6 n=74 v=64
178699 Off ch=6 n=78 v=64
180465 On ch=6 n=69 v=100
180479 On ch=6 n=73 v=100
180509 On ch=6 n=76 v=100
180575 Off ch=6 n=69 v=64
180589 Off ch=6 n=73 v=64
180619 Off ch=6 n=76 v=64
182385 On ch=6 n=71 v=100
182399 On ch=6 n=74 v=100
182429 On ch=6 n=78 v=100
182495 Off ch=6 n=71 v=64
182509 Off ch=6 n=74 v=64
182539 Off ch=6 n=78 v=64
184305 On ch=6 n=71 v=100
184319 On ch=6 n=74 v=100
184349 On ch=6 n=79 v=100
184415 Off ch=6 n=71 v=64
184429 Off ch=6 n=74 v=64
184459 Off ch=6 n=79 v=64
186225 On ch=6 n=69 v=100
186239 On ch=6 n=74 v=100
186269 On ch=6 n=78 v=100
186335 Off ch=6 n=69 v=64
186349 Off ch=6 n=74 v=64
186379 Off ch=6 n=78 v=64
188145 On ch=6 n=69 v=100
188159 On ch=6 n=73 v=100
188189 On ch=6 n=76 v=100
188255 Off ch=6 n=69 v=64
188269 Off ch=6 n=73 v=64
188299 Off ch=6 n=76 v=64
191985 On ch=6 n=71 v=100
191999 On ch=6 n=74 v=100
192029 On ch=6 n=79 v=100
192095 Off ch=6 n=71 v=64
192109 Off ch=6 n=74 v=64
192139 Off ch=6 n=79 v=64
193905 On ch=6 n=69 v=100
193919 On ch=6 n=74 v=100
193949 On ch=6 n=78 v=100
194015 Off ch=6 n=69 v=64
194029 Off ch=6 n=74 v=64
194059 Off ch=6 n=78 v=64
195825 On ch=6 n=69 v=100
195839 On ch=6 n=73 v=100
195869 On ch=6 n=76 v=100
195935 Off ch=6 n=69 v=64
195949 Off ch=6 n=73 v=64
195979 Off ch=6 n=76 v=64
197745 On ch=6 n=71 v=100
197759 On ch=6 n=74 v=100
197789 On ch=6 n=78 v=100
197855 Off ch=6 n=71 v=64
197869 Off ch=6 n=74 v=64
197899 Off ch=6 n=78 v=64
199665 On ch=6 n=71 v=100
199679 On ch=6 n=74 v=100
199709 On ch=6 n=79 v=100
199775 Off ch=6 n=71 v=64
199789 Off ch=6 n=74 v=64
199819 Off ch=6 n=79 v=64
201585 On ch=6 n=69 v=100
201599 On ch=6 n=74 v=100
201629 On ch=6 n=78 v=100
201695 Off ch=6 n=69 v=64
201709 Off ch=6 n=74 v=64
201739 Off ch=6 n=78 v=64
203505 On ch=6 n=69 v=100
203519 On ch=6 n=73 v=100
203549 On ch=6 n=76 v=100
203615 Off ch=6 n=69 v=64
203629 Off ch=6 n=73 v=64
203659 Off ch=6 n=76 v=64
205425 On ch=6 n=71 v=100
205439 On ch=6 n=74 v=100
205469 On ch=6 n=78 v=100
205535 Off ch=6 n=71 v=64
205549 Off ch=6 n=74 v=64
205579 Off ch=6 n=78 v=64
207345 On ch=6 n=71 v=100
207359 On ch=6 n=74 v=100
207389 On ch=6 n=79 v=100
207455 Off ch=6 n=71 v=64
207469 Off ch=6 n=74 v=64
207499 Off ch=6 n=79 v=64
209265 On ch=6 n=69 v=100
209279 On ch=6 n=74 v=100
209309 On ch=6 n=78 v=100
209375 Off ch=6 n=69 v=64
209389 Off ch=6 n=74 v=64
209419 Off ch=6 n=78 v=64
211185 On ch=6 n=69 v=100
211199 On ch=6 n=73 v=100
211229 On ch=6 n=76 v=100
211295 Off ch=6 n=69 v=64
211309 Off ch=6 n=73 v=64
211339 Off ch=6 n=76 v=64
213105 On ch=6 n=71 v=100
213119 On ch=6 n=74 v=100
213149 On ch=6 n=78 v=100
213215 Off ch=6 n=71 v=64
213229 Off ch=6 n=74 v=64
213259 Off ch=6 n=78 v=64
215025 On ch=6 n=71 v=100
215039 On ch=6 n=74 v=100
215069 On ch=6 n=79 v=100
215135 Off ch=6 n=71 v=64
215149 Off ch=6 n=74 v=64
215179 Off ch=6 n=79 v=64
216945 On ch=6 n=69 v=100
216959 On ch=6 n=74 v=100
216989 On ch=6 n=78 v=100
217055 Off ch=6 n=69 v=64
217069 Off ch=6 n=74 v=64
217099 Off ch=6 n=78 v=64
218865 On ch=6 n=69 v=100
218879 On ch=6 n=73 v=100
218909 On ch=6 n=76 v=100
218975 Off ch=6 n=69 v=64
218989 Off ch=6 n=73 v=64
219019 Off ch=6 n=76 v=64
219019 Meta TrkEnd
TrkEnd
MTrk
0 SeqSpec 05 0f 09 00 40
0 SeqSpec 05 0f 06 47 65 6e 65 72 61 6c 20 4d 49 44 49
0 Meta TrkName "Track 8"
0 Meta 0x20 06
486 Par ch=7 c=0 v=0
506 PrCh ch=7 p=87
516 Par ch=7 c=7 v=55
526 Par ch=7 c=10 v=86
536 Par ch=7 c=11 v=127
546 Par ch=7 c=91 v=64
556 Par ch=7 c=93 v=33
566 Par ch=7 c=64 v=0
576 Par ch=7 c=1 v=0
586 Pb ch=7 v=8192
34560 On ch=7 n=52 v=102
34639 Off ch=7 n=52 v=64
34800 On ch=7 n=52 v=102
34800 On ch=7 n=59 v=102
34879 Off ch=7 n=59 v=64
34879 Off ch=7 n=52 v=64
34920 On ch=7 n=52 v=102
34920 On ch=7 n=59 v=102
34999 Off ch=7 n=59 v=64
34999 Off ch=7 n=52 v=64
35040 On ch=7 n=52 v=102
35040 On ch=7 n=59 v=102
35119 Off ch=7 n=59 v=64
35119 Off ch=7 n=52 v=64
35280 On ch=7 n=52 v=102
35280 On ch=7 n=59 v=102
35359 Off ch=7 n=59 v=64
35359 Off ch=7 n=52 v=64
35400 On ch=7 n=52 v=102
35400 On ch=7 n=59 v=102
35479 Off ch=7 n=59 v=64
35479 Off ch=7 n=52 v=64
35520 On ch=7 n=52 v=102
35520 On ch=7 n=59 v=102
35599 Off ch=7 n=59 v=64
35599 Off ch=7 n=52 v=64
35640 On ch=7 n=52 v=102
35640 On ch=7 n=59 v=102
35719 Off ch=7 n=59 v=64
35719 Off ch=7 n=52 v=64
35760 On ch=7 n=52 v=102
35760 On ch=7 n=59 v=102
35839 Off ch=7 n=59 v=64
35839 Off ch=7 n=52 v=64
36000 On ch=7 n=52 v=102
36000 On ch=7 n=59 v=102
36079 Off ch=7 n=59 v=64
36079 Off ch=7 n=52 v=64
36480 On ch=7 n=47 v=100
36715 Off ch=7 n=47 v=64
36720 On ch=7 n=59 v=101
36822 Off ch=7 n=59 v=64
36960 On ch=7 n=47 v=101
37193 Off ch=7 n=47 v=64
37200 On ch=7 n=59 v=93
37304 Off ch=7 n=59 v=64
37440 On ch=7 n=47 v=103
37674 Off ch=7 n=47 v=64
37680 On ch=7 n=59 v=86
37748 Off ch=7 n=59 v=64
37920 On ch=7 n=59 v=99
38156 Off ch=7 n=59 v=64
38160 On ch=7 n=62 v=103
38316 Off ch=7 n=62 v=64
38400 On ch=7 n=55 v=99
38480 Off ch=7 n=55 v=64
38640 On ch=7 n=55 v=103
38726 Off ch=7 n=55 v=64
38880 On ch=7 n=55 v=103
38953 Off ch=7 n=55 v=64
39000 On ch=7 n=55 v=92
39073 Off ch=7 n=55 v=64
39120 On ch=7 n=55 v=104
39193 Off ch=7 n=55 v=64
39240 On ch=7 n=55 v=107
39313 Off ch=7 n=55 v=64
39360 On ch=7 n=55 v=108
39520 Off ch=7 n=55 v=64
39840 On ch=7 n=55 v=107
39913 Off ch=7 n=55 v=64
39960 On ch=7 n=55 v=94
40033 Off ch=7 n=55 v=64
40080 On ch=7 n=55 v=106
40153 Off ch=7 n=55 v=64
40200 On ch=7 n=55 v=95
40273 Off ch=7 n=55 v=64
40320 On ch=7 n=50 v=101
40466 Off ch=7 n=50 v=64
40560 On ch=7 n=62 v=100
40706 Off ch=7 n=62 v=64
40800 On ch=7 n=50 v=99
40946 Off ch=7 n=50 v=64
41040 On ch=7 n=62 v=100
41186 Off ch=7 n=62 v=64
41280 On ch=7 n=50 v=100
41426 Off ch=7 n=50 v=64
41520 On ch=7 n=62 v=103
41666 Off ch=7 n=62 v=64
41760 On ch=7 n=50 v=99
41906 Off ch=7 n=50 v=64
42000 On ch=7 n=62 v=102
42146 Off ch=7 n=62 v=64
42240 On ch=7 n=45 v=100
42476 Off ch=7 n=45 v=64
42480 On ch=7 n=57 v=89
42599 Off ch=7 n=57 v=64
42720 On ch=7 n=45 v=92
42935 Off ch=7 n=45 v=64
42960 On ch=7 n=57 v=100
43079 Off ch=7 n=57 v=64
43200 On ch=7 n=45 v=93
43435 Off ch=7 n=45 v=64
44400 On ch=7 n=59 v=99
44492 Off ch=7 n=59 v=64
44640 On ch=7 n=59 v=101
44717 Off ch=7 n=59 v=64
44760 On ch=7 n=59 v=98
44837 Off ch=7 n=59 v=64
44880 On ch=7 n=59 v=102
44957 Off ch=7 n=59 v=64
45000 On ch=7 n=59 v=113
45077 Off ch=7 n=59 v=64
45120 On ch=7 n=47 v=100
45356 Off ch=7 n=47 v=64
45360 On ch=7 n=59 v=100
45596 Off ch=7 n=59 v=64
45600 On ch=7 n=59 v=100
45836 Off ch=7 n=59 v=64
45840 On ch=7 n=62 v=100
46076 Off ch=7 n=62 v=64
46080 On ch=7 n=43 v=100
46316 Off ch=7 n=43 v=64
46320 On ch=7 n=55 v=100
46556 Off ch=7 n=55 v=64
46560 On ch=7 n=43 v=100
46796 Off ch=7 n=43 v=64
46800 On ch=7 n=55 v=100
47036 Off ch=7 n=55 v=64
47040 On ch=7 n=43 v=100
47276 Off ch=7 n=43 v=64
47280 On ch=7 n=55 v=100
47516 Off ch=7 n=55 v=64
47520 On ch=7 n=43 v=100
47756 Off ch=7 n=43 v=64
47760 On ch=7 n=55 v=100
47996 Off ch=7 n=55 v=64
48000 On ch=7 n=50 v=100
48203 Off ch=7 n=50 v=64
48240 On ch=7 n=62 v=100
48443 Off ch=7 n=62 v=64
48480 On ch=7 n=50 v=100
48683 Off ch=7 n=50 v=64
48720 On ch=7 n=62 v=100
48923 Off ch=7 n=62 v=64
48960 On ch=7 n=50 v=100
49161 Off ch=7 n=50 v=64
49200 On ch=7 n=62 v=100
49403 Off ch=7 n=62 v=64
49440 On ch=7 n=50 v=100
49643 Off ch=7 n=50 v=64
49680 On ch=7 n=62 v=100
49883 Off ch=7 n=62 v=64
49920 On ch=7 n=57 v=99
50027 Off ch=7 n=57 v=64
50160 On ch=7 n=69 v=92
50273 Off ch=7 n=69 v=64
50400 On ch=7 n=69 v=85
50513 Off ch=7 n=69 v=64
50640 On ch=7 n=69 v=88
50753 Off ch=7 n=69 v=64
50880 On ch=7 n=69 v=92
50993 Off ch=7 n=69 v=64
51120 On ch=7 n=69 v=102
51233 Off ch=7 n=69 v=64
51360 On ch=7 n=69 v=107
51473 Off ch=7 n=69 v=64
51600 On ch=7 n=69 v=110
51713 Off ch=7 n=69 v=64
51840 On ch=7 n=47 v=95
52053 Off ch=7 n=47 v=64
52080 On ch=7 n=59 v=110
52293 Off ch=7 n=59 v=64
52320 On ch=7 n=47 v=82
52533 Off ch=7 n=47 v=64
52560 On ch=7 n=59 v=110
52773 Off ch=7 n=59 v=64
52800 On ch=7 n=47 v=87
53013 Off ch=7 n=47 v=64
53040 On ch=7 n=59 v=110
53253 Off ch=7 n=59 v=64
53280 On ch=7 n=47 v=81
53493 Off ch=7 n=47 v=64
53520 On ch=7 n=62 v=118
53733 Off ch=7 n=62 v=64
53760 On ch=7 n=43 v=95
53973 Off ch=7 n=43 v=64
54000 On ch=7 n=55 v=107
54213 Off ch=7 n=55 v=64
54240 On ch=7 n=43 v=90
54453 Off ch=7 n=43 v=64
54480 On ch=7 n=55 v=104
54693 Off ch=7 n=55 v=64
54720 On ch=7 n=43 v=90
54933 Off ch=7 n=43 v=64
54960 On ch=7 n=55 v=104
55173 Off ch=7 n=55 v=64
55200 On ch=7 n=43 v=94
55413 Off ch=7 n=43 v=64
55440 On ch=7 n=62 v=110
55653 Off ch=7 n=62 v=64
55680 On ch=7 n=50 v=99
55893 Off ch=7 n=50 v=64
55920 On ch=7 n=62 v=88
56133 Off ch=7 n=62 v=64
56160 On ch=7 n=50 v=92
56373 Off ch=7 n=50 v=64
56400 On ch=7 n=62 v=102
56613 Off ch=7 n=62 v=64
56640 On ch=7 n=50 v=88
56853 Off ch=7 n=50 v=64
56880 On ch=7 n=62 v=102
57093 Off ch=7 n=62 v=64
57120 On ch=7 n=50 v=99
57333 Off ch=7 n=50 v=64
57360 On ch=7 n=62 v=107
57573 Off ch=7 n=62 v=64
57600 On ch=7 n=45 v=88
57813 Off ch=7 n=45 v=64
57840 On ch=7 n=57 v=107
58053 Off ch=7 n=57 v=64
58080 On ch=7 n=45 v=95
58293 Off ch=7 n=45 v=64
58320 On ch=7 n=57 v=107
58533 Off ch=7 n=57 v=64
58560 On ch=7 n=45 v=93
58773 Off ch=7 n=45 v=64
58800 On ch=7 n=57 v=107
59013 Off ch=7 n=57 v=64
59040 On ch=7 n=45 v=96
59253 Off ch=7 n=45 v=64
59280 On ch=7 n=57 v=102
59493 Off ch=7 n=57 v=64
59520 On ch=7 n=47 v=95
59733 Off ch=7 n=47 v=64
59760 On ch=7 n=59 v=110
59973 Off ch=7 n=59 v=64
60000 On ch=7 n=47 v=82
60213 Off ch=7 n=47 v=64
60240 On ch=7 n=59 v=110
60453 Off ch=7 n=59 v=64
60480 On ch=7 n=47 v=87
60693 Off ch=7 n=47 v=64
60720 On ch=7 n=59 v=110
60933 Off ch=7 n=59 v=64
60960 On ch=7 n=47 v=81
61173 Off ch=7 n=47 v=64
61200 On ch=7 n=62 v=118
61413 Off ch=7 n=62 v=64
63360 On ch=7 n=50 v=99
63573 Off ch=7 n=50 v=64
63600 On ch=7 n=62 v=88
63813 Off ch=7 n=62 v=64
63840 On ch=7 n=50 v=92
64053 Off ch=7 n=50 v=64
64080 On ch=7 n=62 v=102
64293 Off ch=7 n=62 v=64
64320 On ch=7 n=50 v=88
64533 Off ch=7 n=50 v=64
64560 On ch=7 n=62 v=102
64773 Off ch=7 n=62 v=64
64800 On ch=7 n=50 v=99
65013 Off ch=7 n=50 v=64
65040 On ch=7 n=62 v=107
65253 Off ch=7 n=62 v=64
113280 On ch=7 n=47 v=100
113516 Off ch=7 n=47 v=64
113520 On ch=7 n=59 v=101
113622 Off ch=7 n=59 v=64
113760 On ch=7 n=47 v=101
113993 Off ch=7 n=47 v=64
114000 On ch=7 n=59 v=93
114104 Off ch=7 n=59 v=64
114240 On ch=7 n=47 v=103
114474 Off ch=7 n=47 v=64
114480 On ch=7 n=59 v=86
114548 Off ch=7 n=59 v=64
114720 On ch=7 n=59 v=99
114956 Off ch=7 n=59 v=64
114960 On ch=7 n=62 v=103
115116 Off ch=7 n=62 v=64
115200 On ch=7 n=55 v=99
115280 Off ch=7 n=55 v=64
115440 On ch=7 n=55 v=103
115526 Off ch=7 n=55 v=64
115680 On ch=7 n=55 v=103
115753 Off ch=7 n=55 v=64
115800 On ch=7 n=55 v=92
115873 Off ch=7 n=55 v=64
115920 On ch=7 n=55 v=104
115993 Off ch=7 n=55 v=64
116040 On ch=7 n=55 v=107
116113 Off ch=7 n=55 v=64
116160 On ch=7 n=55 v=108
116320 Off ch=7 n=55 v=64
116640 On ch=7 n=55 v=107
116713 Off ch=7 n=55 v=64
116760 On ch=7 n=55 v=94
116833 Off ch=7 n=55 v=64
116880 On ch=7 n=55 v=106
116953 Off ch=7 n=55 v=64
117000 On ch=7 n=55 v=95
117073 Off ch=7 n=55 v=64
117120 On ch=7 n=50 v=101
117266 Off ch=7 n=50 v=64
117360 On ch=7 n=62 v=100
117506 Off ch=7 n=62 v=64
117600 On ch=7 n=50 v=99
117746 Off ch=7 n=50 v=64
117840 On ch=7 n=62 v=100
117986 Off ch=7 n=62 v=64
118080 On ch=7 n=50 v=100
118226 Off ch=7 n=50 v=64
118320 On ch=7 n=62 v=103
118466 Off ch=7 n=62 v=64
119040 On ch=7 n=69 v=100
119164 Off ch=7 n=69 v=64
119280 On ch=7 n=69 v=89
119404 Off ch=7 n=69 v=64
119520 On ch=7 n=69 v=92
119644 Off ch=7 n=69 v=64
119760 On ch=7 n=69 v=100
119884 Off ch=7 n=69 v=64
120000 On ch=7 n=69 v=93
120124 Off ch=7 n=69 v=64
120124 Meta TrkEnd
TrkEnd
MTrk
0 SeqSpec 05 0f 09 00 40
0 SeqSpec 05 0f 06 47 65 6e 65 72 61 6c 20 4d 49 44 49
0 Meta TrkName "Track 9"
0 Meta 0x20 07
487 Par ch=8 c=0 v=0
507 PrCh ch=8 p=123
517 Par ch=8 c=7 v=83
527 Par ch=8 c=10 v=39
537 Par ch=8 c=11 v=127
547 Par ch=8 c=91 v=56
557 Par ch=8 c=93 v=20
567 Par ch=8 c=64 v=0
577 Par ch=8 c=1 v=0
587 Pb ch=8 v=8192
61615 On ch=8 n=62 v=72
61666 On ch=8 n=61 v=77
61722 On ch=8 n=60 v=77
61759 Off ch=8 n=62 v=64
61824 On ch=8 n=59 v=80
61830 Off ch=8 n=61 v=64
61865 Off ch=8 n=60 v=64
61957 Off ch=8 n=59 v=64
62095 On ch=8 n=62 v=72
62144 On ch=8 n=61 v=77
62202 On ch=8 n=60 v=79
62239 Off ch=8 n=62 v=64
62304 On ch=8 n=59 v=86
62308 Off ch=8 n=61 v=64
62345 Off ch=8 n=60 v=64
62437 Off ch=8 n=59 v=64
62437 Meta TrkEnd
TrkEnd
MTrk
0 SeqSpec 05 0f 09 00 40
0 SeqSpec 05 0f 06 47 65 6e 65 72 61 6c 20 4d 49 44 49
0 Meta TrkName "Track 10"
0 Meta 0x20 08
600 Par ch=9 c=0 v=0
620 PrCh ch=9 p=90
630 Par ch=9 c=7 v=72
640 Par ch=9 c=10 v=42
650 Par ch=9 c=11 v=127
660 Par ch=9 c=91 v=56
670 Par ch=9 c=93 v=20
680 Par ch=9 c=64 v=0
690 Par ch=9 c=1 v=0
700 Pb ch=9 v=8192
965 Par ch=9 c=99 v=1
976 Par ch=9 c=98 v=32
987 Par ch=9 c=6 v=27
5759 On ch=9 n=43 v=114
5910 Par ch=9 c=6 v=28
5972 Off ch=9 n=43 v=64
5999 On ch=9 n=55 v=110
6089 Par ch=9 c=6 v=29
6212 Off ch=9 n=55 v=64
6239 On ch=9 n=43 v=114
6254 Par ch=9 c=6 v=30
6363 Par ch=9 c=6 v=31
6452 Off ch=9 n=43 v=64
6479 On ch=9 n=55 v=110
6516 Par ch=9 c=6 v=32
6671 Par ch=9 c=6 v=33
6692 Off ch=9 n=55 v=64
6719 On ch=9 n=43 v=107
6931 Par ch=9 c=6 v=34
6932 Off ch=9 n=43 v=64
6959 On ch=9 n=55 v=110
7156 Par ch=9 c=6 v=35
7172 Off ch=9 n=55 v=64
7199 On ch=9 n=43 v=102
7347 Par ch=9 c=6 v=36
7412 Off ch=9 n=43 v=64
7439 On ch=9 n=55 v=107
7530 Par ch=9 c=6 v=37
7652 Off ch=9 n=55 v=64
7679 On ch=9 n=50 v=118
7823 Par ch=9 c=6 v=38
7892 Off ch=9 n=50 v=64
7919 On ch=9 n=62 v=110
8132 Off ch=9 n=62 v=64
8159 On ch=9 n=50 v=107
8206 Par ch=9 c=6 v=39
8372 Off ch=9 n=50 v=64
8399 On ch=9 n=62 v=102
8568 Par ch=9 c=6 v=40
8612 Off ch=9 n=62 v=64
8639 On ch=9 n=50 v=102
8852 Off ch=9 n=50 v=64
8879 On ch=9 n=62 v=107
8933 Par ch=9 c=6 v=41
9092 Off ch=9 n=62 v=64
9119 On ch=9 n=50 v=110
9332 Off ch=9 n=50 v=64
9359 On ch=9 n=62 v=107
9572 Off ch=9 n=62 v=64
9599 On ch=9 n=45 v=102
9812 Off ch=9 n=45 v=64
9839 On ch=9 n=57 v=102
10052 Off ch=9 n=57 v=64
10079 On ch=9 n=45 v=110
10098 Par ch=9 c=6 v=42
10292 Off ch=9 n=45 v=64
10319 On ch=9 n=57 v=107
10412 Par ch=9 c=6 v=43
10532 Off ch=9 n=57 v=64
10559 On ch=9 n=45 v=110
10666 Par ch=9 c=6 v=44
10772 Off ch=9 n=45 v=64
10799 On ch=9 n=57 v=110
11012 Off ch=9 n=57 v=64
11039 On ch=9 n=45 v=107
11208 Par ch=9 c=6 v=45
11252 Off ch=9 n=45 v=64
11279 On ch=9 n=57 v=114
11492 Off ch=9 n=57 v=64
11519 On ch=9 n=47 v=114
11732 Off ch=9 n=47 v=64
11759 On ch=9 n=59 v=110
11760 Par ch=9 c=6 v=46
11972 Off ch=9 n=59 v=64
11999 On ch=9 n=47 v=110
12191 Par ch=9 c=6 v=47
12212 Off ch=9 n=47 v=64
12239 On ch=9 n=59 v=110
12452 Off ch=9 n=59 v=64
12456 Par ch=9 c=6 v=48
12479 On ch=9 n=47 v=110
12692 Off ch=9 n=47 v=64
12719 On ch=9 n=59 v=110
12826 Par ch=9 c=6 v=49
12932 Off ch=9 n=59 v=64
12959 On ch=9 n=47 v=110
13172 Off ch=9 n=47 v=64
13199 On ch=9 n=59 v=107
13314 Par ch=9 c=6 v=50
13412 Off ch=9 n=59 v=64
13439 On ch=9 n=43 v=114
13648 Par ch=9 c=6 v=51
13652 Off ch=9 n=43 v=64
13679 On ch=9 n=55 v=110
13892 Off ch=9 n=55 v=64
13919 On ch=9 n=43 v=114
14132 Off ch=9 n=43 v=64
14159 On ch=9 n=55 v=110
14159 Par ch=9 c=6 v=52
14372 Off ch=9 n=55 v=64
14399 On ch=9 n=43 v=107
14612 Off ch=9 n=43 v=64
14639 On ch=9 n=55 v=110
14852 Off ch=9 n=55 v=64
14879 On ch=9 n=43 v=102
14907 Par ch=9 c=6 v=53
15092 Off ch=9 n=43 v=64
15119 On ch=9 n=55 v=107
15332 Off ch=9 n=55 v=64
15359 On ch=9 n=50 v=118
15394 Par ch=9 c=6 v=54
15572 Off ch=9 n=50 v=64
15599 On ch=9 n=62 v=110
15812 Off ch=9 n=62 v=64
15839 On ch=9 n=50 v=107
16052 Off ch=9 n=50 v=64
16079 On ch=9 n=62 v=102
16117 Par ch=9 c=6 v=55
16292 Off ch=9 n=62 v=64
16319 On ch=9 n=50 v=102
16532 Off ch=9 n=50 v=64
16557 Par ch=9 c=6 v=56
16559 On ch=9 n=62 v=107
16772 Off ch=9 n=62 v=64
16799 On ch=9 n=50 v=110
17012 Off ch=9 n=50 v=64
17039 On ch=9 n=62 v=107
17252 Off ch=9 n=62 v=64
17279 On ch=9 n=45 v=102
17492 Off ch=9 n=45 v=64
17519 On ch=9 n=57 v=102
17530 Par ch=9 c=6 v=57
17732 Off ch=9 n=57 v=64
17759 On ch=9 n=45 v=110
17878 Par ch=9 c=6 v=58
17972 Off ch=9 n=45 v=64
17999 On ch=9 n=57 v=107
18212 Off ch=9 n=57 v=64
18239 On ch=9 n=45 v=110
18374 Par ch=9 c=6 v=59
18452 Off ch=9 n=45 v=64
18479 On ch=9 n=57 v=110
18692 Off ch=9 n=57 v=64
18719 On ch=9 n=45 v=107
18763 Par ch=9 c=6 v=60
18932 Off ch=9 n=45 v=64
18959 On ch=9 n=57 v=114
19172 Off ch=9 n=57 v=64
19199 On ch=9 n=47 v=114
19412 Off ch=9 n=47 v=64
19439 On ch=9 n=59 v=110
19652 Off ch=9 n=59 v=64
36479 On ch=9 n=47 v=100
36715 Off ch=9 n=47 v=64
36719 On ch=9 n=59 v=101
36821 Off ch=9 n=59 v=64
36959 On ch=9 n=47 v=101
37192 Off ch=9 n=47 v=64
37199 On ch=9 n=59 v=93
37303 Off ch=9 n=59 v=64
37439 On ch=9 n=47 v=103
37673 Off ch=9 n=47 v=64
37679 On ch=9 n=59 v=86
37747 Off ch=9 n=59 v=64
37919 On ch=9 n=59 v=99
38155 Off ch=9 n=59 v=64
38159 On ch=9 n=62 v=103
38315 Off ch=9 n=62 v=64
38399 On ch=9 n=55 v=99
38479 Off ch=9 n=55 v=64
38639 On ch=9 n=55 v=103
38725 Off ch=9 n=55 v=64
38879 On ch=9 n=55 v=103
38952 Off ch=9 n=55 v=64
38999 On ch=9 n=55 v=92
39072 Off ch=9 n=55 v=64
39119 On ch=9 n=55 v=104
39192 Off ch=9 n=55 v=64
39239 On ch=9 n=55 v=107
39312 Off ch=9 n=55 v=64
39359 On ch=9 n=55 v=108
39519 Off ch=9 n=55 v=64
39839 On ch=9 n=55 v=107
39912 Off ch=9 n=55 v=64
39959 On ch=9 n=55 v=94
40032 Off ch=9 n=55 v=64
40079 On ch=9 n=55 v=106
40152 Off ch=9 n=55 v=64
40199 On ch=9 n=55 v=95
40272 Off ch=9 n=55 v=64
40319 On ch=9 n=50 v=101
40465 Off ch=9 n=50 v=64
40559 On ch=9 n=62 v=100
40705 Off ch=9 n=62 v=64
40799 On ch=9 n=50 v=99
40945 Off ch=9 n=50 v=64
41039 On ch=9 n=62 v=100
41185 Off ch=9 n=62 v=64
41279 On ch=9 n=50 v=100
41425 Off ch=9 n=50 v=64
41519 On ch=9 n=62 v=103
41665 Off ch=9 n=62 v=64
41759 On ch=9 n=50 v=99
41905 Off ch=9 n=50 v=64
41999 On ch=9 n=62 v=102
42145 Off ch=9 n=62 v=64
42239 On ch=9 n=45 v=100
42475 Off ch=9 n=45 v=64
42479 On ch=9 n=57 v=89
42598 Off ch=9 n=57 v=64
42719 On ch=9 n=45 v=92
42934 Off ch=9 n=45 v=64
42959 On ch=9 n=57 v=100
43078 Off ch=9 n=57 v=64
43199 On ch=9 n=45 v=93
43434 Off ch=9 n=45 v=64
44399 On ch=9 n=59 v=99
44491 Off ch=9 n=59 v=64
44639 On ch=9 n=59 v=101
44716 Off ch=9 n=59 v=64
44759 On ch=9 n=59 v=98
44836 Off ch=9 n=59 v=64
44879 On ch=9 n=59 v=102
44956 Off ch=9 n=59 v=64
44999 On ch=9 n=59 v=113
45076 Off ch=9 n=59 v=64
45119 On ch=9 n=47 v=100
45355 Off ch=9 n=47 v=64
45359 On ch=9 n=59 v=100
45595 Off ch=9 n=59 v=64
45599 On ch=9 n=59 v=100
45835 Off ch=9 n=59 v=64
45839 On ch=9 n=62 v=100
46075 Off ch=9 n=62 v=64
46079 On ch=9 n=43 v=100
46315 Off ch=9 n=43 v=64
46319 On ch=9 n=55 v=100
46555 Off ch=9 n=55 v=64
46559 On ch=9 n=43 v=100
46795 Off ch=9 n=43 v=64
46799 On ch=9 n=55 v=100
47035 Off ch=9 n=55 v=64
47039 On ch=9 n=43 v=100
47275 Off ch=9 n=43 v=64
47279 On ch=9 n=55 v=100
47515 Off ch=9 n=55 v=64
47519 On ch=9 n=43 v=100
47755 Off ch=9 n=43 v=64
47759 On ch=9 n=55 v=100
47995 Off ch=9 n=55 v=64
47999 On ch=9 n=50 v=100
48202 Off ch=9 n=50 v=64
48239 On ch=9 n=62 v=100
48442 Off ch=9 n=62 v=64
48479 On ch=9 n=50 v=100
48682 Off ch=9 n=50 v=64
48719 On ch=9 n=62 v=100
48922 Off ch=9 n=62 v=64
48959 On ch=9 n=50 v=100
49160 Off ch=9 n=50 v=64
49199 On ch=9 n=62 v=100
49402 Off ch=9 n=62 v=64
49439 On ch=9 n=50 v=100
49642 Off ch=9 n=50 v=64
49679 On ch=9 n=62 v=100
49882 Off ch=9 n=62 v=64
49919 On ch=9 n=57 v=99
50026 Off ch=9 n=57 v=64
50159 On ch=9 n=69 v=92
50272 Off ch=9 n=69 v=64
50399 On ch=9 n=69 v=85
50512 Off ch=9 n=69 v=64
50639 On ch=9 n=69 v=88
50752 Off ch=9 n=69 v=64
50879 On ch=9 n=69 v=92
50992 Off ch=9 n=69 v=64
51119 On ch=9 n=69 v=102
51232 Off ch=9 n=69 v=64
51359 On ch=9 n=69 v=107
51472 Off ch=9 n=69 v=64
51599 On ch=9 n=69 v=110
51712 Off ch=9 n=69 v=64
51839 On ch=9 n=47 v=95
52052 Off ch=9 n=47 v=64
52079 On ch=9 n=59 v=110
52292 Off ch=9 n=59 v=64
52319 On ch=9 n=47 v=82
52532 Off ch=9 n=47 v=64
52559 On ch=9 n=59 v=110
52772 Off ch=9 n=59 v=64
52799 On ch=9 n=47 v=87
53012 Off ch=9 n=47 v=64
53039 On ch=9 n=59 v=110
53252 Off ch=9 n=59 v=64
53279 On ch=9 n=47 v=81
53492 Off ch=9 n=47 v=64
53519 On ch=9 n=62 v=118
53732 Off ch=9 n=62 v=64
53759 On ch=9 n=43 v=95
53972 Off ch=9 n=43 v=64
53999 On ch=9 n=55 v=107
54212 Off ch=9 n=55 v=64
54239 On ch=9 n=43 v=90
54452 Off ch=9 n=43 v=64
54479 On ch=9 n=55 v=104
54692 Off ch=9 n=55 v=64
54719 On ch=9 n=43 v=90
54932 Off ch=9 n=43 v=64
54959 On ch=9 n=55 v=104
55172 Off ch=9 n=55 v=64
55199 On ch=9 n=43 v=94
55412 Off ch=9 n=43 v=64
55439 On ch=9 n=62 v=110
55652 Off ch=9 n=62 v=64
55679 On ch=9 n=50 v=99
55892 Off ch=9 n=50 v=64
55919 On ch=9 n=62 v=88
56132 Off ch=9 n=62 v=64
56159 On ch=9 n=50 v=92
56372 Off ch=9 n=50 v=64
56399 On ch=9 n=62 v=102
56612 Off ch=9 n=62 v=64
56639 On ch=9 n=50 v=88
56852 Off ch=9 n=50 v=64
56879 On ch=9 n=62 v=102
57092 Off ch=9 n=62 v=64
57119 On ch=9 n=50 v=99
57332 Off ch=9 n=50 v=64
57359 On ch=9 n=62 v=107
57572 Off ch=9 n=62 v=64
57599 On ch=9 n=45 v=88
57812 Off ch=9 n=45 v=64
57839 On ch=9 n=57 v=107
58052 Off ch=9 n=57 v=64
58079 On ch=9 n=45 v=95
58292 Off ch=9 n=45 v=64
58319 On ch=9 n=57 v=107
58532 Off ch=9 n=57 v=64
58559 On ch=9 n=45 v=93
58772 Off ch=9 n=45 v=64
58799 On ch=9 n=57 v=107
59012 Off ch=9 n=57 v=64
59039 On ch=9 n=45 v=96
59252 Off ch=9 n=45 v=64
59279 On ch=9 n=57 v=102
59492 Off ch=9 n=57 v=64
59519 On ch=9 n=47 v=95
59732 Off ch=9 n=47 v=64
59759 On ch=9 n=59 v=110
59972 Off ch=9 n=59 v=64
59999 On ch=9 n=47 v=82
60212 Off ch=9 n=47 v=64
60239 On ch=9 n=59 v=110
60452 Off ch=9 n=59 v=64
60479 On ch=9 n=47 v=87
60692 Off ch=9 n=47 v=64
60719 On ch=9 n=59 v=110
60932 Off ch=9 n=59 v=64
60959 On ch=9 n=47 v=81
61172 Off ch=9 n=47 v=64
61199 On ch=9 n=62 v=118
61412 Off ch=9 n=62 v=64
63359 On ch=9 n=50 v=99
63572 Off ch=9 n=50 v=64
63599 On ch=9 n=62 v=88
63812 Off ch=9 n=62 v=64
63839 On ch=9 n=50 v=92
64052 Off ch=9 n=50 v=64
64079 On ch=9 n=62 v=102
64292 Off ch=9 n=62 v=64
64319 On ch=9 n=50 v=88
64532 Off ch=9 n=50 v=64
64559 On ch=9 n=62 v=102
64772 Off ch=9 n=62 v=64
64799 On ch=9 n=50 v=99
65012 Off ch=9 n=50 v=64
65039 On ch=9 n=62 v=107
65252 Off ch=9 n=62 v=64
65279 On ch=9 n=45 v=88
65492 Off ch=9 n=45 v=64
65519 On ch=9 n=57 v=107
65732 Off ch=9 n=57 v=64
65759 On ch=9 n=45 v=95
65972 Off ch=9 n=45 v=64
65999 On ch=9 n=57 v=107
66212 Off ch=9 n=57 v=64
66239 On ch=9 n=45 v=93
66452 Off ch=9 n=45 v=64
66479 On ch=9 n=57 v=107
66692 Off ch=9 n=57 v=64
66719 On ch=9 n=45 v=96
66932 Off ch=9 n=45 v=64
66959 On ch=9 n=62 v=102
67172 Off ch=9 n=62 v=64
69119 On ch=9 n=43 v=114
69332 Off ch=9 n=43 v=64
69359 On ch=9 n=55 v=110
69572 Off ch=9 n=55 v=64
69599 On ch=9 n=43 v=114
69812 Off ch=9 n=43 v=64
69839 On ch=9 n=55 v=110
70052 Off ch=9 n=55 v=64
70079 On ch=9 n=43 v=107
70292 Off ch=9 n=43 v=64
70319 On ch=9 n=55 v=110
70532 Off ch=9 n=55 v=64
70559 On ch=9 n=43 v=102
70772 Off ch=9 n=43 v=64
70799 On ch=9 n=55 v=107
71012 Off ch=9 n=55 v=64
71039 On ch=9 n=50 v=118
71252 Off ch=9 n=50 v=64
71279 On ch=9 n=62 v=110
71492 Off ch=9 n=62 v=64
71519 On ch=9 n=50 v=107
71732 Off ch=9 n=50 v=64
71759 On ch=9 n=62 v=102
71972 Off ch=9 n=62 v=64
71999 On ch=9 n=50 v=102
72212 Off ch=9 n=50 v=64
72239 On ch=9 n=62 v=107
72452 Off ch=9 n=62 v=64
72479 On ch=9 n=50 v=110
72692 Off ch=9 n=50 v=64
72719 On ch=9 n=62 v=107
72932 Off ch=9 n=62 v=64
72959 On ch=9 n=45 v=102
73172 Off ch=9 n=45 v=64
73199 On ch=9 n=57 v=102
73412 Off ch=9 n=57 v=64
73439 On ch=9 n=45 v=110
73652 Off ch=9 n=45 v=64
73679 On ch=9 n=57 v=107
73892 Off ch=9 n=57 v=64
73919 On ch=9 n=45 v=110
74132 Off ch=9 n=45 v=64
74159 On ch=9 n=57 v=110
74372 Off ch=9 n=57 v=64
74399 On ch=9 n=45 v=107
74612 Off ch=9 n=45 v=64
74639 On ch=9 n=57 v=114
74852 Off ch=9 n=57 v=64
74879 On ch=9 n=47 v=114
75092 Off ch=9 n=47 v=64
75119 On ch=9 n=59 v=110
75332 Off ch=9 n=59 v=64
75359 On ch=9 n=47 v=110
75572 Off ch=9 n=47 v=64
75599 On ch=9 n=59 v=110
75812 Off ch=9 n=59 v=64
75839 On ch=9 n=47 v=110
76052 Off ch=9 n=47 v=64
76079 On ch=9 n=59 v=110
76292 Off ch=9 n=59 v=64
76319 On ch=9 n=47 v=110
76532 Off ch=9 n=47 v=64
76559 On ch=9 n=59 v=107
76772 Off ch=9 n=59 v=64
76799 On ch=9 n=43 v=114
77012 Off ch=9 n=43 v=64
77039 On ch=9 n=55 v=110
77252 Off ch=9 n=55 v=64
77279 On ch=9 n=43 v=114
77492 Off ch=9 n=43 v=64
77519 On ch=9 n=55 v=110
77732 Off ch=9 n=55 v=64
77759 On ch=9 n=43 v=107
77972 Off ch=9 n=43 v=64
77999 On ch=9 n=55 v=110
78212 Off ch=9 n=55 v=64
78239 On ch=9 n=43 v=102
78452 Off ch=9 n=43 v=64
78479 On ch=9 n=55 v=107
78692 Off ch=9 n=55 v=64
78719 On ch=9 n=50 v=118
78932 Off ch=9 n=50 v=64
78959 On ch=9 n=62 v=110
79172 Off ch=9 n=62 v=64
79199 On ch=9 n=50 v=107
79412 Off ch=9 n=50 v=64
79439 On ch=9 n=62 v=102
79652 Off ch=9 n=62 v=64
79679 On ch=9 n=50 v=102
79892 Off ch=9 n=50 v=64
79919 On ch=9 n=62 v=107
80132 Off ch=9 n=62 v=64
80159 On ch=9 n=50 v=110
80372 Off ch=9 n=50 v=64
80399 On ch=9 n=62 v=107
80612 Off ch=9 n=62 v=64
80639 On ch=9 n=45 v=102
80852 Off ch=9 n=45 v=64
80879 On ch=9 n=57 v=102
81092 Off ch=9 n=57 v=64
81119 On ch=9 n=45 v=110
81332 Off ch=9 n=45 v=64
81359 On ch=9 n=57 v=107
81572 Off ch=9 n=57 v=64
81599 On ch=9 n=45 v=110
81812 Off ch=9 n=45 v=64
81839 On ch=9 n=57 v=110
82052 Off ch=9 n=57 v=64
82079 On ch=9 n=45 v=107
82292 Off ch=9 n=45 v=64
82319 On ch=9 n=57 v=114
82532 Off ch=9 n=57 v=64
82559 On ch=9 n=47 v=114
82772 Off ch=9 n=47 v=64
82799 On ch=9 n=59 v=110
83012 Off ch=9 n=59 v=64
83039 On ch=9 n=47 v=110
83252 Off ch=9 n=47 v=64
83279 On ch=9 n=59 v=110
83492 Off ch=9 n=59 v=64
83519 On ch=9 n=47 v=110
83732 Off ch=9 n=47 v=64
83759 On ch=9 n=59 v=110
83972 Off ch=9 n=59 v=64
83999 On ch=9 n=47 v=110
84212 Off ch=9 n=47 v=64
84239 On ch=9 n=59 v=107
84452 Off ch=9 n=59 v=64
84479 On ch=9 n=43 v=114
84692 Off ch=9 n=43 v=64
84719 On ch=9 n=55 v=110
84932 Off ch=9 n=55 v=64
84959 On ch=9 n=43 v=114
85172 Off ch=9 n=43 v=64
85199 On ch=9 n=55 v=110
85412 Off ch=9 n=55 v=64
85439 On ch=9 n=43 v=107
85652 Off ch=9 n=43 v=64
85679 On ch=9 n=55 v=110
85892 Off ch=9 n=55 v=64
85919 On ch=9 n=43 v=102
86132 Off ch=9 n=43 v=64
86159 On ch=9 n=55 v=107
86372 Off ch=9 n=55 v=64
86399 On ch=9 n=50 v=118
86612 Off ch=9 n=50 v=64
86639 On ch=9 n=62 v=110
86852 Off ch=9 n=62 v=64
86879 On ch=9 n=50 v=107
87092 Off ch=9 n=50 v=64
87119 On ch=9 n=62 v=102
87332 Off ch=9 n=62 v=64
87359 On ch=9 n=50 v=102
87572 Off ch=9 n=50 v=64
87599 On ch=9 n=62 v=107
87812 Off ch=9 n=62 v=64
87839 On ch=9 n=50 v=110
88052 Off ch=9 n=50 v=64
88079 On ch=9 n=62 v=107
88292 Off ch=9 n=62 v=64
88319 On ch=9 n=45 v=102
88532 Off ch=9 n=45 v=64
88559 On ch=9 n=57 v=102
88772 Off ch=9 n=57 v=64
88799 On ch=9 n=45 v=110
89012 Off ch=9 n=45 v=64
89039 On ch=9 n=57 v=107
89252 Off ch=9 n=57 v=64
89279 On ch=9 n=45 v=110
89492 Off ch=9 n=45 v=64
89519 On ch=9 n=57 v=110
89732 Off ch=9 n=57 v=64
89759 On ch=9 n=45 v=107
89972 Off ch=9 n=45 v=64
89999 On ch=9 n=57 v=114
90212 Off ch=9 n=57 v=64
90239 On ch=9 n=47 v=114
90452 Off ch=9 n=47 v=64
90479 On ch=9 n=59 v=110
90692 Off ch=9 n=59 v=64
90719 On ch=9 n=47 v=110
90932 Off ch=9 n=47 v=64
90959 On ch=9 n=59 v=110
91172 Off ch=9 n=59 v=64
91199 On ch=9 n=47 v=110
91412 Off ch=9 n=47 v=64
91439 On ch=9 n=59 v=110
91652 Off ch=9 n=59 v=64
91679 On ch=9 n=47 v=110
91892 Off ch=9 n=47 v=64
91919 On ch=9 n=59 v=107
92132 Off ch=9 n=59 v=64
92159 On ch=9 n=43 v=114
92372 Off ch=9 n=43 v=64
92399 On ch=9 n=55 v=110
92612 Off ch=9 n=55 v=64
92639 On ch=9 n=43 v=114
92852 Off ch=9 n=43 v=64
92879 On ch=9 n=55 v=110
93092 Off ch=9 n=55 v=64
93119 On ch=9 n=43 v=107
93332 Off ch=9 n=43 v=64
93359 On ch=9 n=55 v=110
93572 Off ch=9 n=55 v=64
93599 On ch=9 n=43 v=102
93812 Off ch=9 n=43 v=64
93839 On ch=9 n=55 v=107
94052 Off ch=9 n=55 v=64
94079 On ch=9 n=50 v=118
94292 Off ch=9 n=50 v=64
94319 On ch=9 n=62 v=110
94532 Off ch=9 n=62 v=64
94559 On ch=9 n=50 v=107
94772 Off ch=9 n=50 v=64
94799 On ch=9 n=62 v=102
95012 Off ch=9 n=62 v=64
95039 On ch=9 n=50 v=102
95252 Off ch=9 n=50 v=64
95279 On ch=9 n=62 v=107
95492 Off ch=9 n=62 v=64
95519 On ch=9 n=50 v=110
95732 Off ch=9 n=50 v=64
95759 On ch=9 n=62 v=107
95972 Off ch=9 n=62 v=64
95999 On ch=9 n=45 v=102
96212 Off ch=9 n=45 v=64
96239 On ch=9 n=57 v=102
96452 Off ch=9 n=57 v=64
96479 On ch=9 n=45 v=110
96692 Off ch=9 n=45 v=64
96719 On ch=9 n=57 v=107
96932 Off ch=9 n=57 v=64
96959 On ch=9 n=45 v=110
97172 Off ch=9 n=45 v=64
97199 On ch=9 n=57 v=110
97412 Off ch=9 n=57 v=64
97439 On ch=9 n=45 v=107
97652 Off ch=9 n=45 v=64
97679 On ch=9 n=57 v=114
97892 Off ch=9 n=57 v=64
113279 On ch=9 n=47 v=100
113515 Off ch=9 n=47 v=64
113519 On ch=9 n=59 v=101
113621 Off ch=9 n=59 v=64
113759 On ch=9 n=47 v=101
113992 Off ch=9 n=47 v=64
113999 On ch=9 n=59 v=93
114103 Off ch=9 n=59 v=64
114239 On ch=9 n=47 v=103
114473 Off ch=9 n=47 v=64
114479 On ch=9 n=59 v=86
114547 Off ch=9 n=59 v=64
114719 On ch=9 n=59 v=99
114955 Off ch=9 n=59 v=64
114959 On ch=9 n=62 v=103
115115 Off ch=9 n=62 v=64
115199 On ch=9 n=55 v=99
115279 Off ch=9 n=55 v=64
115439 On ch=9 n=55 v=103
115525 Off ch=9 n=55 v=64
115679 On ch=9 n=55 v=103
115752 Off ch=9 n=55 v=64
115799 On ch=9 n=55 v=92
115872 Off ch=9 n=55 v=64
115919 On ch=9 n=55 v=104
115992 Off ch=9 n=55 v=64
116039 On ch=9 n=55 v=107
116112 Off ch=9 n=55 v=64
116159 On ch=9 n=55 v=108
116319 Off ch=9 n=55 v=64
116639 On ch=9 n=55 v=107
116712 Off ch=9 n=55 v=64
116759 On ch=9 n=55 v=94
116832 Off ch=9 n=55 v=64
116879 On ch=9 n=55 v=106
116952 Off ch=9 n=55 v=64
116999 On ch=9 n=55 v=95
117072 Off ch=9 n=55 v=64
117119 On ch=9 n=50 v=101
117265 Off ch=9 n=50 v=64
117359 On ch=9 n=62 v=100
117505 Off ch=9 n=62 v=64
117599 On ch=9 n=50 v=99
117745 Off ch=9 n=50 v=64
117839 On ch=9 n=62 v=100
117985 Off ch=9 n=62 v=64
118079 On ch=9 n=50 v=100
118225 Off ch=9 n=50 v=64
118319 On ch=9 n=62 v=103
118465 Off ch=9 n=62 v=64
119039 On ch=9 n=69 v=100
119163 Off ch=9 n=69 v=64
119279 On ch=9 n=69 v=89
119403 Off ch=9 n=69 v=64
119519 On ch=9 n=69 v=92
119643 Off ch=9 n=69 v=64
119759 On ch=9 n=69 v=100
119883 Off ch=9 n=69 v=64
119999 On ch=9 n=69 v=93
120123 Off ch=9 n=69 v=64
130559 On ch=9 n=43 v=114
130772 Off ch=9 n=43 v=64
130799 On ch=9 n=55 v=110
131012 Off ch=9 n=55 v=64
131039 On ch=9 n=43 v=114
131252 Off ch=9 n=43 v=64
131279 On ch=9 n=55 v=110
131492 Off ch=9 n=55 v=64
131519 On ch=9 n=43 v=107
131732 Off ch=9 n=43 v=64
131759 On ch=9 n=55 v=110
131972 Off ch=9 n=55 v=64
131999 On ch=9 n=43 v=102
132212 Off ch=9 n=43 v=64
132239 On ch=9 n=55 v=107
132452 Off ch=9 n=55 v=64
132479 On ch=9 n=50 v=118
132692 Off ch=9 n=50 v=64
132719 On ch=9 n=62 v=110
132932 Off ch=9 n=62 v=64
132959 On ch=9 n=50 v=107
133172 Off ch=9 n=50 v=64
133199 On ch=9 n=62 v=102
133412 Off ch=9 n=62 v=64
133439 On ch=9 n=50 v=102
133652 Off ch=9 n=50 v=64
133679 On ch=9 n=62 v=107
133892 Off ch=9 n=62 v=64
133919 On ch=9 n=50 v=110
134132 Off ch=9 n=50 v=64
134159 On ch=9 n=62 v=107
134372 Off ch=9 n=62 v=64
134399 On ch=9 n=45 v=102
134612 Off ch=9 n=45 v=64
134639 On ch=9 n=57 v=102
134852 Off ch=9 n=57 v=64
134879 On ch=9 n=45 v=110
135092 Off ch=9 n=45 v=64
135119 On ch=9 n=57 v=107
135332 Off ch=9 n=57 v=64
135359 On ch=9 n=45 v=110
135572 Off ch=9 n=45 v=64
135599 On ch=9 n=57 v=110
135812 Off ch=9 n=57 v=64
135839 On ch=9 n=45 v=107
136052 Off ch=9 n=45 v=64
136079 On ch=9 n=57 v=114
136292 Off ch=9 n=57 v=64
136319 On ch=9 n=47 v=114
136532 Off ch=9 n=47 v=64
136559 On ch=9 n=59 v=110
136772 Off ch=9 n=59 v=64
136799 On ch=9 n=47 v=110
137012 Off ch=9 n=47 v=64
137039 On ch=9 n=59 v=110
137252 Off ch=9 n=59 v=64
137279 On ch=9 n=47 v=110
137492 Off ch=9 n=47 v=64
137519 On ch=9 n=59 v=110
137732 Off ch=9 n=59 v=64
137759 On ch=9 n=47 v=110
137972 Off ch=9 n=47 v=64
137999 On ch=9 n=59 v=107
138212 Off ch=9 n=59 v=64
138239 On ch=9 n=43 v=114
138452 Off ch=9 n=43 v=64
138479 On ch=9 n=55 v=110
138692 Off ch=9 n=55 v=64
138719 On ch=9 n=43 v=114
138932 Off ch=9 n=43 v=64
138959 On ch=9 n=55 v=110
139172 Off ch=9 n=55 v=64
139199 On ch=9 n=43 v=107
139412 Off ch=9 n=43 v=64
139439 On ch=9 n=55 v=110
139652 Off ch=9 n=55 v=64
139679 On ch=9 n=43 v=102
139892 Off ch=9 n=43 v=64
139919 On ch=9 n=55 v=107
140132 Off ch=9 n=55 v=64
140159 On ch=9 n=50 v=118
140372 Off ch=9 n=50 v=64
140399 On ch=9 n=62 v=110
140612 Off ch=9 n=62 v=64
140639 On ch=9 n=50 v=107
140852 Off ch=9 n=50 v=64
140879 On ch=9 n=62 v=102
141092 Off ch=9 n=62 v=64
141119 On ch=9 n=50 v=102
141332 Off ch=9 n=50 v=64
141359 On ch=9 n=62 v=107
141572 Off ch=9 n=62 v=64
141599 On ch=9 n=50 v=110
141812 Off ch=9 n=50 v=64
141839 On ch=9 n=62 v=107
142052 Off ch=9 n=62 v=64
142079 On ch=9 n=45 v=102
142292 Off ch=9 n=45 v=64
142319 On ch=9 n=57 v=102
142532 Off ch=9 n=57 v=64
142559 On ch=9 n=45 v=110
142772 Off ch=9 n=45 v=64
142799 On ch=9 n=57 v=107
143012 Off ch=9 n=57 v=64
143039 On ch=9 n=45 v=110
143252 Off ch=9 n=45 v=64
143279 On ch=9 n=57 v=110
143492 Off ch=9 n=57 v=64
143519 On ch=9 n=45 v=107
143732 Off ch=9 n=45 v=64
143759 On ch=9 n=57 v=114
143972 Off ch=9 n=57 v=64
143999 On ch=9 n=47 v=114
144212 Off ch=9 n=47 v=64
144239 On ch=9 n=59 v=110
144452 Off ch=9 n=59 v=64
144479 On ch=9 n=47 v=110
144692 Off ch=9 n=47 v=64
144719 On ch=9 n=59 v=110
144932 Off ch=9 n=59 v=64
144959 On ch=9 n=47 v=110
145172 Off ch=9 n=47 v=64
145199 On ch=9 n=59 v=110
145412 Off ch=9 n=59 v=64
145439 On ch=9 n=47 v=110
145652 Off ch=9 n=47 v=64
145679 On ch=9 n=59 v=107
145892 Off ch=9 n=59 v=64
145919 On ch=9 n=43 v=114
146132 Off ch=9 n=43 v=64
146159 On ch=9 n=55 v=110
146372 Off ch=9 n=55 v=64
146399 On ch=9 n=43 v=114
146612 Off ch=9 n=43 v=64
146639 On ch=9 n=55 v=110
146852 Off ch=9 n=55 v=64
146879 On ch=9 n=43 v=107
147092 Off ch=9 n=43 v=64
147119 On ch=9 n=55 v=110
147332 Off ch=9 n=55 v=64
147359 On ch=9 n=43 v=102
147572 Off ch=9 n=43 v=64
147599 On ch=9 n=55 v=107
147812 Off ch=9 n=55 v=64
147839 On ch=9 n=50 v=118
148052 Off ch=9 n=50 v=64
148079 On ch=9 n=62 v=110
148292 Off ch=9 n=62 v=64
148319 On ch=9 n=50 v=107
148532 Off ch=9 n=50 v=64
148559 On ch=9 n=62 v=102
148772 Off ch=9 n=62 v=64
148799 On ch=9 n=50 v=102
149012 Off ch=9 n=50 v=64
149039 On ch=9 n=62 v=107
149252 Off ch=9 n=62 v=64
149279 On ch=9 n=50 v=110
149492 Off ch=9 n=50 v=64
149519 On ch=9 n=62 v=107
149732 Off ch=9 n=62 v=64
149759 On ch=9 n=45 v=102
149972 Off ch=9 n=45 v=64
149999 On ch=9 n=57 v=102
150212 Off ch=9 n=57 v=64
150239 On ch=9 n=45 v=110
150452 Off ch=9 n=45 v=64
150479 On ch=9 n=57 v=107
150692 Off ch=9 n=57 v=64
150719 On ch=9 n=45 v=110
150932 Off ch=9 n=45 v=64
150959 On ch=9 n=57 v=110
151172 Off ch=9 n=57 v=64
151199 On ch=9 n=45 v=107
151412 Off ch=9 n=45 v=64
151439 On ch=9 n=57 v=114
151652 Off ch=9 n=57 v=64
151679 On ch=9 n=47 v=114
151892 Off ch=9 n=47 v=64
151919 On ch=9 n=59 v=110
152132 Off ch=9 n=59 v=64
152159 On ch=9 n=47 v=110
152372 Off ch=9 n=47 v=64
152399 On ch=9 n=59 v=110
152612 Off ch=9 n=59 v=64
152639 On ch=9 n=47 v=110
152852 Off ch=9 n=47 v=64
152879 On ch=9 n=59 v=110
153092 Off ch=9 n=59 v=64
153119 On ch=9 n=47 v=110
153332 Off ch=9 n=47 v=64
153359 On ch=9 n=59 v=107
153572 Off ch=9 n=59 v=64
153599 On ch=9 n=43 v=114
153812 Off ch=9 n=43 v=64
153839 On ch=9 n=55 v=110
154052 Off ch=9 n=55 v=64
154079 On ch=9 n=43 v=114
154292 Off ch=9 n=43 v=64
154319 On ch=9 n=55 v=110
154532 Off ch=9 n=55 v=64
154559 On ch=9 n=43 v=107
154772 Off ch=9 n=43 v=64
154799 On ch=9 n=55 v=110
155012 Off ch=9 n=55 v=64
155039 On ch=9 n=43 v=102
155252 Off ch=9 n=43 v=64
155279 On ch=9 n=55 v=107
155492 Off ch=9 n=55 v=64
155519 On ch=9 n=50 v=118
155732 Off ch=9 n=50 v=64
155759 On ch=9 n=62 v=110
155972 Off ch=9 n=62 v=64
155999 On ch=9 n=50 v=107
156212 Off ch=9 n=50 v=64
156239 On ch=9 n=62 v=102
156452 Off ch=9 n=62 v=64
156479 On ch=9 n=50 v=102
156692 Off ch=9 n=50 v=64
156719 On ch=9 n=62 v=107
156932 Off ch=9 n=62 v=64
156959 On ch=9 n=50 v=110
157172 Off ch=9 n=50 v=64
157199 On ch=9 n=62 v=107
157412 Off ch=9 n=62 v=64
157439 On ch=9 n=45 v=102
157652 Off ch=9 n=45 v=64
157679 On ch=9 n=57 v=102
157892 Off ch=9 n=57 v=64
157919 On ch=9 n=45 v=110
158132 Off ch=9 n=45 v=64
158159 On ch=9 n=57 v=107
158372 Off ch=9 n=57 v=64
158399 On ch=9 n=45 v=110
158612 Off ch=9 n=45 v=64
158639 On ch=9 n=57 v=110
158852 Off ch=9 n=57 v=64
158879 On ch=9 n=45 v=107
159092 Off ch=9 n=45 v=64
159119 On ch=9 n=57 v=114
159332 Off ch=9 n=57 v=64
161272 Par ch=9 c=6 v=27
161279 On ch=9 n=43 v=114
161430 Par ch=9 c=6 v=28
161492 Off ch=9 n=43 v=64
161519 On ch=9 n=55 v=110
161609 Par ch=9 c=6 v=29
161732 Off ch=9 n=55 v=64
161759 On ch=9 n=43 v=114
161774 Par ch=9 c=6 v=30
161883 Par ch=9 c=6 v=31
161972 Off ch=9 n=43 v=64
161999 On ch=9 n=55 v=110
162036 Par ch=9 c=6 v=32
162191 Par ch=9 c=6 v=33
162212 Off ch=9 n=55 v=64
162239 On ch=9 n=43 v=107
162451 Par ch=9 c=6 v=34
162452 Off ch=9 n=43 v=64
162479 On ch=9 n=55 v=110
162676 Par ch=9 c=6 v=35
162692 Off ch=9 n=55 v=64
162719 On ch=9 n=43 v=102
162867 Par ch=9 c=6 v=36
162932 Off ch=9 n=43 v=64
162959 On ch=9 n=55 v=107
163050 Par ch=9 c=6 v=37
163172 Off ch=9 n=55 v=64
163199 On ch=9 n=50 v=118
163343 Par ch=9 c=6 v=38
163412 Off ch=9 n=50 v=64
163439 On ch=9 n=62 v=110
163652 Off ch=9 n=62 v=64
163679 On ch=9 n=50 v=107
163726 Par ch=9 c=6 v=39
163892 Off ch=9 n=50 v=64
163919 On ch=9 n=62 v=102
164088 Par ch=9 c=6 v=40
164132 Off ch=9 n=62 v=64
164159 On ch=9 n=50 v=102
164372 Off ch=9 n=50 v=64
164399 On ch=9 n=62 v=107
164453 Par ch=9 c=6 v=41
164612 Off ch=9 n=62 v=64
164639 On ch=9 n=50 v=110
164852 Off ch=9 n=50 v=64
164879 On ch=9 n=62 v=107
165092 Off ch=9 n=62 v=64
165119 On ch=9 n=45 v=102
165332 Off ch=9 n=45 v=64
165359 On ch=9 n=57 v=102
165572 Off ch=9 n=57 v=64
165599 On ch=9 n=45 v=110
165618 Par ch=9 c=6 v=42
165812 Off ch=9 n=45 v=64
165839 On ch=9 n=57 v=107
165932 Par ch=9 c=6 v=43
166052 Off ch=9 n=57 v=64
166079 On ch=9 n=45 v=110
166186 Par ch=9 c=6 v=44
166292 Off ch=9 n=45 v=64
166319 On ch=9 n=57 v=110
166532 Off ch=9 n=57 v=64
166559 On ch=9 n=45 v=107
166728 Par ch=9 c=6 v=45
166772 Off ch=9 n=45 v=64
166799 On ch=9 n=57 v=114
167012 Off ch=9 n=57 v=64
167039 On ch=9 n=47 v=114
167252 Off ch=9 n=47 v=64
167279 On ch=9 n=59 v=110
167280 Par ch=9 c=6 v=46
167492 Off ch=9 n=59 v=64
167519 On ch=9 n=47 v=110
167711 Par ch=9 c=6 v=47
167732 Off ch=9 n=47 v=64
167759 On ch=9 n=59 v=110
167972 Off ch=9 n=59 v=64
167976 Par ch=9 c=6 v=48
167999 On ch=9 n=47 v=110
168212 Off ch=9 n=47 v=64
168239 On ch=9 n=59 v=110
168346 Par ch=9 c=6 v=49
168452 Off ch=9 n=59 v=64
168479 On ch=9 n=47 v=110
168692 Off ch=9 n=47 v=64
168719 On ch=9 n=59 v=107
168834 Par ch=9 c=6 v=50
168932 Off ch=9 n=59 v=64
168959 On ch=9 n=43 v=114
169168 Par ch=9 c=6 v=51
169172 Off ch=9 n=43 v=64
169199 On ch=9 n=55 v=110
169412 Off ch=9 n=55 v=64
169439 On ch=9 n=43 v=114
169652 Off ch=9 n=43 v=64
169679 On ch=9 n=55 v=110
169679 Par ch=9 c=6 v=52
169892 Off ch=9 n=55 v=64
169919 On ch=9 n=43 v=107
170132 Off ch=9 n=43 v=64
170159 On ch=9 n=55 v=110
170372 Off ch=9 n=55 v=64
170399 On ch=9 n=43 v=102
170427 Par ch=9 c=6 v=53
170612 Off ch=9 n=43 v=64
170639 On ch=9 n=55 v=107
170852 Off ch=9 n=55 v=64
170879 On ch=9 n=50 v=118
170914 Par ch=9 c=6 v=54
171092 Off ch=9 n=50 v=64
171119 On ch=9 n=62 v=110
171332 Off ch=9 n=62 v=64
171359 On ch=9 n=50 v=107
171572 Off ch=9 n=50 v=64
171599 On ch=9 n=62 v=102
171637 Par ch=9 c=6 v=55
171812 Off ch=9 n=62 v=64
171839 On ch=9 n=50 v=102
172052 Off ch=9 n=50 v=64
172077 Par ch=9 c=6 v=56
172079 On ch=9 n=62 v=107
172292 Off ch=9 n=62 v=64
172319 On ch=9 n=50 v=110
172532 Off ch=9 n=50 v=64
172559 On ch=9 n=62 v=107
172772 Off ch=9 n=62 v=64
172799 On ch=9 n=45 v=102
173012 Off ch=9 n=45 v=64
173039 On ch=9 n=57 v=102
173050 Par ch=9 c=6 v=57
173252 Off ch=9 n=57 v=64
173279 On ch=9 n=45 v=110
173398 Par ch=9 c=6 v=58
173492 Off ch=9 n=45 v=64
173519 On ch=9 n=57 v=107
173732 Off ch=9 n=57 v=64
173759 On ch=9 n=45 v=110
173894 Par ch=9 c=6 v=59
173972 Off ch=9 n=45 v=64
173999 On ch=9 n=57 v=110
174212 Off ch=9 n=57 v=64
174239 On ch=9 n=45 v=107
174283 Par ch=9 c=6 v=60
174452 Off ch=9 n=45 v=64
174479 On ch=9 n=57 v=114
174692 Off ch=9 n=57 v=64
174719 On ch=9 n=47 v=114
174932 Off ch=9 n=47 v=64
174959 On ch=9 n=59 v=110
175172 Off ch=9 n=59 v=64
176639 On ch=9 n=43 v=114
176852 Off ch=9 n=43 v=64
176879 On ch=9 n=55 v=110
177092 Off ch=9 n=55 v=64
177119 On ch=9 n=43 v=114
177332 Off ch=9 n=43 v=64
177359 On ch=9 n=55 v=110
177572 Off ch=9 n=55 v=64
177599 On ch=9 n=43 v=107
177812 Off ch=9 n=43 v=64
177839 On ch=9 n=55 v=110
178052 Off ch=9 n=55 v=64
178079 On ch=9 n=43 v=102
178292 Off ch=9 n=43 v=64
178319 On ch=9 n=55 v=107
178532 Off ch=9 n=55 v=64
178559 On ch=9 n=50 v=118
178772 Off ch=9 n=50 v=64
178799 On ch=9 n=62 v=110
179012 Off ch=9 n=62 v=64
179039 On ch=9 n=50 v=107
179252 Off ch=9 n=50 v=64
179279 On ch=9 n=62 v=102
179492 Off ch=9 n=62 v=64
179519 On ch=9 n=50 v=102
179732 Off ch=9 n=50 v=64
179759 On ch=9 n=62 v=107
179972 Off ch=9 n=62 v=64
179999 On ch=9 n=50 v=110
180212 Off ch=9 n=50 v=64
180239 On ch=9 n=62 v=107
180452 Off ch=9 n=62 v=64
180479 On ch=9 n=45 v=102
180692 Off ch=9 n=45 v=64
180719 On ch=9 n=57 v=102
180932 Off ch=9 n=57 v=64
180959 On ch=9 n=45 v=110
181172 Off ch=9 n=45 v=64
181199 On ch=9 n=57 v=107
181412 Off ch=9 n=57 v=64
181439 On ch=9 n=45 v=110
181652 Off ch=9 n=45 v=64
181679 On ch=9 n=57 v=110
181892 Off ch=9 n=57 v=64
181919 On ch=9 n=45 v=107
182132 Off ch=9 n=45 v=64
182159 On ch=9 n=57 v=114
182372 Off ch=9 n=57 v=64
182399 On ch=9 n=47 v=114
182612 Off ch=9 n=47 v=64
182639 On ch=9 n=59 v=110
182852 Off ch=9 n=59 v=64
182879 On ch=9 n=47 v=110
183092 Off ch=9 n=47 v=64
183119 On ch=9 n=59 v=110
183332 Off ch=9 n=59 v=64
183359 On ch=9 n=47 v=110
183572 Off ch=9 n=47 v=64
183599 On ch=9 n=59 v=110
183812 Off ch=9 n=59 v=64
183839 On ch=9 n=47 v=110
184052 Off ch=9 n=47 v=64
184079 On ch=9 n=59 v=107
184292 Off ch=9 n=59 v=64
184319 On ch=9 n=43 v=114
184532 Off ch=9 n=43 v=64
184559 On ch=9 n=55 v=110
184772 Off ch=9 n=55 v=64
184799 On ch=9 n=43 v=114
185012 Off ch=9 n=43 v=64
185039 On ch=9 n=55 v=110
185252 Off ch=9 n=55 v=64
185279 On ch=9 n=43 v=107
185492 Off ch=9 n=43 v=64
185519 On ch=9 n=55 v=110
185732 Off ch=9 n=55 v=64
185759 On ch=9 n=43 v=102
185972 Off ch=9 n=43 v=64
185999 On ch=9 n=55 v=107
186212 Off ch=9 n=55 v=64
186239 On ch=9 n=50 v=118
186452 Off ch=9 n=50 v=64
186479 On ch=9 n=62 v=110
186692 Off ch=9 n=62 v=64
186719 On ch=9 n=50 v=107
186932 Off ch=9 n=50 v=64
186959 On ch=9 n=62 v=102
187172 Off ch=9 n=62 v=64
187199 On ch=9 n=50 v=102
187412 Off ch=9 n=50 v=64
187439 On ch=9 n=62 v=107
187652 Off ch=9 n=62 v=64
187679 On ch=9 n=50 v=110
187892 Off ch=9 n=50 v=64
187919 On ch=9 n=62 v=107
188132 Off ch=9 n=62 v=64
188159 On ch=9 n=45 v=102
188372 Off ch=9 n=45 v=64
188399 On ch=9 n=57 v=102
188612 Off ch=9 n=57 v=64
188639 On ch=9 n=45 v=110
188852 Off ch=9 n=45 v=64
188879 On ch=9 n=57 v=107
189092 Off ch=9 n=57 v=64
189119 On ch=9 n=45 v=110
189332 Off ch=9 n=45 v=64
189359 On ch=9 n=57 v=110
189572 Off ch=9 n=57 v=64
189599 On ch=9 n=45 v=107
189812 Off ch=9 n=45 v=64
189839 On ch=9 n=57 v=114
190052 Off ch=9 n=57 v=64
191999 On ch=9 n=43 v=114
192212 Off ch=9 n=43 v=64
192239 On ch=9 n=55 v=110
192452 Off ch=9 n=55 v=64
192479 On ch=9 n=43 v=114
192692 Off ch=9 n=43 v=64
192719 On ch=9 n=55 v=110
192932 Off ch=9 n=55 v=64
192959 On ch=9 n=43 v=107
193172 Off ch=9 n=43 v=64
193199 On ch=9 n=55 v=110
193412 Off ch=9 n=55 v=64
193439 On ch=9 n=43 v=102
193652 Off ch=9 n=43 v=64
193679 On ch=9 n=55 v=107
193892 Off ch=9 n=55 v=64
193919 On ch=9 n=50 v=118
194132 Off ch=9 n=50 v=64
194159 On ch=9 n=62 v=110
194372 Off ch=9 n=62 v=64
194399 On ch=9 n=50 v=107
194612 Off ch=9 n=50 v=64
194639 On ch=9 n=62 v=102
194852 Off ch=9 n=62 v=64
194879 On ch=9 n=50 v=102
195092 Off ch=9 n=50 v=64
195119 On ch=9 n=62 v=107
195332 Off ch=9 n=62 v=64
195359 On ch=9 n=50 v=110
195572 Off ch=9 n=50 v=64
195599 On ch=9 n=62 v=107
195812 Off ch=9 n=62 v=64
195839 On ch=9 n=45 v=102
196052 Off ch=9 n=45 v=64
196079 On ch=9 n=57 v=102
196292 Off ch=9 n=57 v=64
196319 On ch=9 n=45 v=110
196532 Off ch=9 n=45 v=64
196559 On ch=9 n=57 v=107
196772 Off ch=9 n=57 v=64
196799 On ch=9 n=45 v=110
197012 Off ch=9 n=45 v=64
197039 On ch=9 n=57 v=110
197252 Off ch=9 n=57 v=64
197279 On ch=9 n=45 v=107
197492 Off ch=9 n=45 v=64
197519 On ch=9 n=57 v=114
197732 Off ch=9 n=57 v=64
197759 On ch=9 n=47 v=114
197972 Off ch=9 n=47 v=64
197999 On ch=9 n=59 v=110
198212 Off ch=9 n=59 v=64
198239 On ch=9 n=47 v=110
198452 Off ch=9 n=47 v=64
198479 On ch=9 n=59 v=110
198692 Off ch=9 n=59 v=64
198719 On ch=9 n=47 v=110
198932 Off ch=9 n=47 v=64
198959 On ch=9 n=59 v=110
199172 Off ch=9 n=59 v=64
199199 On ch=9 n=47 v=110
199412 Off ch=9 n=47 v=64
199439 On ch=9 n=59 v=107
199652 Off ch=9 n=59 v=64
199679 On ch=9 n=43 v=114
199892 Off ch=9 n=43 v=64
199919 On ch=9 n=55 v=110
200132 Off ch=9 n=55 v=64
200159 On ch=9 n=43 v=114
200372 Off ch=9 n=43 v=64
200399 On ch=9 n=55 v=110
200612 Off ch=9 n=55 v=64
200639 On ch=9 n=43 v=107
200852 Off ch=9 n=43 v=64
200879 On ch=9 n=55 v=110
201092 Off ch=9 n=55 v=64
201119 On ch=9 n=43 v=102
201332 Off ch=9 n=43 v=64
201359 On ch=9 n=55 v=107
201572 Off ch=9 n=55 v=64
201599 On ch=9 n=50 v=118
201812 Off ch=9 n=50 v=64
201839 On ch=9 n=62 v=110
202052 Off ch=9 n=62 v=64
202079 On ch=9 n=50 v=107
202292 Off ch=9 n=50 v=64
202319 On ch=9 n=62 v=102
202532 Off ch=9 n=62 v=64
202559 On ch=9 n=50 v=102
202772 Off ch=9 n=50 v=64
202799 On ch=9 n=62 v=107
203012 Off ch=9 n=62 v=64
203039 On ch=9 n=50 v=110
203252 Off ch=9 n=50 v=64
203279 On ch=9 n=62 v=107
203492 Off ch=9 n=62 v=64
203519 On ch=9 n=45 v=102
203732 Off ch=9 n=45 v=64
203759 On ch=9 n=57 v=102
203972 Off ch=9 n=57 v=64
203999 On ch=9 n=45 v=110
204212 Off ch=9 n=45 v=64
204239 On ch=9 n=57 v=107
204452 Off ch=9 n=57 v=64
204479 On ch=9 n=45 v=110
204692 Off ch=9 n=45 v=64
204719 On ch=9 n=57 v=110
204932 Off ch=9 n=57 v=64
204959 On ch=9 n=45 v=107
205172 Off ch=9 n=45 v=64
205199 On ch=9 n=57 v=114
205412 Off ch=9 n=57 v=64
205439 On ch=9 n=47 v=114
205652 Off ch=9 n=47 v=64
205679 On ch=9 n=59 v=110
205892 Off ch=9 n=59 v=64
205919 On ch=9 n=47 v=110
206132 Off ch=9 n=47 v=64
206159 On ch=9 n=59 v=110
206372 Off ch=9 n=59 v=64
206399 On ch=9 n=47 v=110
206612 Off ch=9 n=47 v=64
206639 On ch=9 n=59 v=110
206852 Off ch=9 n=59 v=64
206879 On ch=9 n=47 v=110
207092 Off ch=9 n=47 v=64
207119 On ch=9 n=59 v=107
207332 Off ch=9 n=59 v=64
207359 On ch=9 n=43 v=114
207572 Off ch=9 n=43 v=64
207599 On ch=9 n=55 v=110
207812 Off ch=9 n=55 v=64
207839 On ch=9 n=43 v=114
208052 Off ch=9 n=43 v=64
208079 On ch=9 n=55 v=110
208292 Off ch=9 n=55 v=64
208319 On ch=9 n=43 v=107
208532 Off ch=9 n=43 v=64
208559 On ch=9 n=55 v=110
208772 Off ch=9 n=55 v=64
208799 On ch=9 n=43 v=102
209012 Off ch=9 n=43 v=64
209039 On ch=9 n=55 v=107
209252 Off ch=9 n=55 v=64
209279 On ch=9 n=50 v=118
209492 Off ch=9 n=50 v=64
209519 On ch=9 n=62 v=110
209732 Off ch=9 n=62 v=64
209759 On ch=9 n=50 v=107
209972 Off ch=9 n=50 v=64
209999 On ch=9 n=62 v=102
210212 Off ch=9 n=62 v=64
210239 On ch=9 n=50 v=102
210452 Off ch=9 n=50 v=64
210479 On ch=9 n=62 v=107
210692 Off ch=9 n=62 v=64
210719 On ch=9 n=50 v=110
210932 Off ch=9 n=50 v=64
210959 On ch=9 n=62 v=107
211172 Off ch=9 n=62 v=64
211199 On ch=9 n=45 v=102
211412 Off ch=9 n=45 v=64
211439 On ch=9 n=57 v=102
211652 Off ch=9 n=57 v=64
211679 On ch=9 n=45 v=110
211892 Off ch=9 n=45 v=64
211919 On ch=9 n=57 v=107
212132 Off ch=9 n=57 v=64
212159 On ch=9 n=45 v=110
212372 Off ch=9 n=45 v=64
212399 On ch=9 n=57 v=110
212612 Off ch=9 n=57 v=64
212639 On ch=9 n=45 v=107
212852 Off ch=9 n=45 v=64
212879 On ch=9 n=57 v=114
213092 Off ch=9 n=57 v=64
213119 On ch=9 n=47 v=114
213332 Off ch=9 n=47 v=64
213359 On ch=9 n=59 v=110
213572 Off ch=9 n=59 v=64
213599 On ch=9 n=47 v=110
213812 Off ch=9 n=47 v=64
213839 On ch=9 n=59 v=110
214052 Off ch=9 n=59 v=64
214079 On ch=9 n=47 v=110
214292 Off ch=9 n=47 v=64
214319 On ch=9 n=59 v=110
214532 Off ch=9 n=59 v=64
214559 On ch=9 n=47 v=110
214772 Off ch=9 n=47 v=64
214799 On ch=9 n=59 v=107
215012 Off ch=9 n=59 v=64
215039 On ch=9 n=43 v=114
215252 Off ch=9 n=43 v=64
215279 On ch=9 n=55 v=110
215492 Off ch=9 n=55 v=64
215519 On ch=9 n=43 v=114
215732 Off ch=9 n=43 v=64
215759 On ch=9 n=55 v=110
215972 Off ch=9 n=55 v=64
215999 On ch=9 n=43 v=107
216212 Off ch=9 n=43 v=64
216239 On ch=9 n=55 v=110
216452 Off ch=9 n=55 v=64
216479 On ch=9 n=43 v=102
216692 Off ch=9 n=43 v=64
216719 On ch=9 n=55 v=107
216932 Off ch=9 n=55 v=64
216959 On ch=9 n=50 v=118
217172 Off ch=9 n=50 v=64
217199 On ch=9 n=62 v=110
217412 Off ch=9 n=62 v=64
217439 On ch=9 n=50 v=107
217652 Off ch=9 n=50 v=64
217679 On ch=9 n=62 v=102
217892 Off ch=9 n=62 v=64
217919 On ch=9 n=50 v=102
218132 Off ch=9 n=50 v=64
218159 On ch=9 n=62 v=107
218372 Off ch=9 n=62 v=64
218399 On ch=9 n=50 v=110
218612 Off ch=9 n=50 v=64
218639 On ch=9 n=62 v=107
218852 Off ch=9 n=62 v=64
218879 On ch=9 n=45 v=102
219092 Off ch=9 n=45 v=64
219119 On ch=9 n=57 v=102
219332 Off ch=9 n=57 v=64
219359 On ch=9 n=45 v=110
219572 Off ch=9 n=45 v=64
219599 On ch=9 n=57 v=107
219812 Off ch=9 n=57 v=64
219839 On ch=9 n=45 v=110
220052 Off ch=9 n=45 v=64
220079 On ch=9 n=57 v=110
220292 Off ch=9 n=57 v=64
220319 On ch=9 n=45 v=107
220532 Off ch=9 n=45 v=64
220559 On ch=9 n=57 v=114
220772 Off ch=9 n=57 v=64
221055 Par ch=9 c=98 v=32
221066 Par ch=9 c=6 v=64
221066 Meta TrkEnd
TrkEnd
MTrk
0 SeqSpec 05 0f 09 00 40
0 SeqSpec 05 0f 06 47 65 6e 65 72 61 6c 20 4d 49 44 49
0 Meta TrkName "Track 11"
0 Meta 0x20 0a
602 Par ch=11 c=0 v=0
622 PrCh ch=11 p=90
632 Par ch=11 c=7 v=87
642 Par ch=11 c=10 v=79
652 Par ch=11 c=11 v=127
662 Par ch=11 c=91 v=56
672 Par ch=11 c=93 v=20
682 Par ch=11 c=64 v=0
692 Par ch=11 c=1 v=0
702 Pb ch=11 v=8192
998 Par ch=11 c=99 v=1
1009 Par ch=11 c=98 v=32
1020 Par ch=11 c=6 v=60
1031 Par ch=11 c=98 v=99
1042 Par ch=11 c=6 v=52
5521 On ch=11 n=62 v=114
5687 Off ch=11 n=62 v=64
6001 On ch=11 n=59 v=107
6167 Off ch=11 n=59 v=64
6481 On ch=11 n=59 v=102
6647 Off ch=11 n=59 v=64
6961 On ch=11 n=59 v=95
7127 Off ch=11 n=59 v=64
7441 On ch=11 n=59 v=99
7607 Off ch=11 n=59 v=64
7921 On ch=11 n=62 v=95
8087 Off ch=11 n=62 v=64
8401 On ch=11 n=57 v=107
8567 Off ch=11 n=57 v=64
8881 On ch=11 n=57 v=102
9047 Off ch=11 n=57 v=64
9361 On ch=11 n=57 v=110
9527 Off ch=11 n=57 v=64
9841 On ch=11 n=61 v=92
10007 Off ch=11 n=61 v=64
10321 On ch=11 n=57 v=85
10487 Off ch=11 n=57 v=64
10801 On ch=11 n=57 v=88
10967 Off ch=11 n=57 v=64
11281 On ch=11 n=57 v=88
11447 Off ch=11 n=57 v=64
11761 On ch=11 n=59 v=92
11927 Off ch=11 n=59 v=64
12241 On ch=11 n=59 v=88
12407 Off ch=11 n=59 v=64
12721 On ch=11 n=59 v=88
12887 Off ch=11 n=59 v=64
13201 On ch=11 n=62 v=114
13367 Off ch=11 n=62 v=64
13681 On ch=11 n=59 v=107
13847 Off ch=11 n=59 v=64
14161 On ch=11 n=59 v=102
14327 Off ch=11 n=59 v=64
14641 On ch=11 n=59 v=95
14807 Off ch=11 n=59 v=64
15121 On ch=11 n=59 v=99
15287 Off ch=11 n=59 v=64
15601 On ch=11 n=62 v=95
15767 Off ch=11 n=62 v=64
16081 On ch=11 n=57 v=107
16247 Off ch=11 n=57 v=64
16561 On ch=11 n=57 v=102
16727 Off ch=11 n=57 v=64
17041 On ch=11 n=57 v=110
17207 Off ch=11 n=57 v=64
17521 On ch=11 n=61 v=92
17687 Off ch=11 n=61 v=64
18001 On ch=11 n=57 v=85
18167 Off ch=11 n=57 v=64
18481 On ch=11 n=57 v=88
18647 Off ch=11 n=57 v=64
18961 On ch=11 n=57 v=88
19127 Off ch=11 n=57 v=64
19441 On ch=11 n=59 v=92
19607 Off ch=11 n=59 v=64
21361 On ch=11 n=62 v=114
21527 Off ch=11 n=62 v=64
21841 On ch=11 n=62 v=110
22007 Off ch=11 n=62 v=64
22321 On ch=11 n=62 v=95
22487 Off ch=11 n=62 v=64
22801 On ch=11 n=62 v=99
22967 Off ch=11 n=62 v=64
23281 On ch=11 n=62 v=110
23447 Off ch=11 n=62 v=64
23761 On ch=11 n=62 v=95
23927 Off ch=11 n=62 v=64
24241 On ch=11 n=62 v=99
24407 Off ch=11 n=62 v=64
24721 On ch=11 n=62 v=99
24887 Off ch=11 n=62 v=64
25201 On ch=11 n=57 v=99
25367 Off ch=11 n=57 v=64
25681 On ch=11 n=57 v=102
25847 Off ch=11 n=57 v=64
26161 On ch=11 n=57 v=95
26327 Off ch=11 n=57 v=64
26641 On ch=11 n=57 v=99
26807 Off ch=11 n=57 v=64
27121 On ch=11 n=59 v=95
27287 Off ch=11 n=59 v=64
27601 On ch=11 n=59 v=95
27767 Off ch=11 n=59 v=64
28081 On ch=11 n=59 v=102
28247 Off ch=11 n=59 v=64
28561 On ch=11 n=59 v=95
28727 Off ch=11 n=59 v=64
29041 On ch=11 n=62 v=95
29207 Off ch=11 n=62 v=64
29521 On ch=11 n=62 v=107
29687 Off ch=11 n=62 v=64
30001 On ch=11 n=62 v=102
30167 Off ch=11 n=62 v=64
30481 On ch=11 n=62 v=99
30647 Off ch=11 n=62 v=64
30961 On ch=11 n=57 v=107
31127 Off ch=11 n=57 v=64
31441 On ch=11 n=57 v=110
31607 Off ch=11 n=57 v=64
31921 On ch=11 n=57 v=107
32087 Off ch=11 n=57 v=64
32401 On ch=11 n=57 v=110
32567 Off ch=11 n=57 v=64
32881 On ch=11 n=57 v=110
33047 Off ch=11 n=57 v=64
33361 On ch=11 n=57 v=95
33527 Off ch=11 n=57 v=64
33841 On ch=11 n=57 v=99
34007 Off ch=11 n=57 v=64
34321 On ch=11 n=57 v=107
34487 Off ch=11 n=57 v=64
105601 On ch=11 n=54 v=86
105601 On ch=11 n=59 v=99
105601 On ch=11 n=62 v=103
105747 Off ch=11 n=62 v=64
105767 Off ch=11 n=54 v=64
105768 Off ch=11 n=59 v=64
106081 On ch=11 n=54 v=85
106081 On ch=11 n=59 v=92
106081 On ch=11 n=62 v=99
106196 Off ch=11 n=62 v=64
106212 Off ch=11 n=59 v=64
106215 Off ch=11 n=54 v=64
106441 On ch=11 n=54 v=86
106441 On ch=11 n=59 v=89
106441 On ch=11 n=62 v=96
106507 Off ch=11 n=62 v=64
106516 Off ch=11 n=54 v=64
106519 Off ch=11 n=59 v=64
106561 On ch=11 n=54 v=78
106561 On ch=11 n=59 v=92
106561 On ch=11 n=62 v=73
106680 Off ch=11 n=62 v=64
106680 Off ch=11 n=59 v=64
106680 Off ch=11 n=54 v=64
106801 On ch=11 n=54 v=89
106801 On ch=11 n=59 v=88
106801 On ch=11 n=62 v=96
106920 Off ch=11 n=62 v=64
106920 Off ch=11 n=59 v=64
106920 Off ch=11 n=54 v=64
107041 On ch=11 n=54 v=86
107041 On ch=11 n=59 v=89
107041 On ch=11 n=62 v=96
107160 Off ch=11 n=62 v=64
107160 Off ch=11 n=59 v=64
107160 Off ch=11 n=54 v=64
107281 On ch=11 n=54 v=89
107281 On ch=11 n=59 v=85
107281 On ch=11 n=62 v=96
107400 Off ch=11 n=62 v=64
107400 Off ch=11 n=59 v=64
107400 Off ch=11 n=54 v=64
107521 On ch=11 n=55 v=91
107521 On ch=11 n=59 v=89
107521 On ch=11 n=62 v=92
107633 Off ch=11 n=55 v=64
107636 Off ch=11 n=59 v=64
107640 Off ch=11 n=62 v=64
108001 On ch=11 n=55 v=89
108001 On ch=11 n=59 v=91
108001 On ch=11 n=62 v=99
108089 Off ch=11 n=55 v=64
108098 Off ch=11 n=59 v=64
108109 Off ch=11 n=62 v=64
108361 On ch=11 n=55 v=86
108361 On ch=11 n=59 v=96
108361 On ch=11 n=62 v=96
108415 Off ch=11 n=59 v=64
108416 Off ch=11 n=62 v=64
108426 Off ch=11 n=55 v=64
108481 On ch=11 n=55 v=88
108481 On ch=11 n=59 v=89
108481 On ch=11 n=62 v=96
108600 Off ch=11 n=62 v=64
108600 Off ch=11 n=59 v=64
108600 Off ch=11 n=55 v=64
108721 On ch=11 n=55 v=85
108721 On ch=11 n=59 v=85
108721 On ch=11 n=62 v=92
108840 Off ch=11 n=62 v=64
108840 Off ch=11 n=59 v=64
108840 Off ch=11 n=55 v=64
108961 On ch=11 n=55 v=81
108961 On ch=11 n=59 v=85
108961 On ch=11 n=62 v=96
109080 Off ch=11 n=62 v=64
109080 Off ch=11 n=59 v=64
109080 Off ch=11 n=55 v=64
109201 On ch=11 n=55 v=85
109201 On ch=11 n=59 v=85
109201 On ch=11 n=62 v=96
109320 Off ch=11 n=62 v=64
109320 Off ch=11 n=59 v=64
109320 Off ch=11 n=55 v=64
109441 On ch=11 n=57 v=88
109441 On ch=11 n=62 v=103
109441 On ch=11 n=66 v=92
109532 Off ch=11 n=62 v=64
109535 Off ch=11 n=57 v=64
109540 Off ch=11 n=66 v=64
109921 On ch=11 n=57 v=89
109921 On ch=11 n=62 v=86
109921 On ch=11 n=66 v=91
109998 Off ch=11 n=62 v=64
110020 Off ch=11 n=57 v=64
110041 Off ch=11 n=66 v=64
110281 On ch=11 n=57 v=89
110281 On ch=11 n=62 v=91
110281 On ch=11 n=66 v=86
110343 Off ch=11 n=62 v=64
110354 Off ch=11 n=57 v=64
110361 Off ch=11 n=66 v=64
110401 On ch=11 n=57 v=85
110401 On ch=11 n=62 v=91
110401 On ch=11 n=66 v=77
110520 Off ch=11 n=66 v=64
110520 Off ch=11 n=62 v=64
110520 Off ch=11 n=57 v=64
110641 On ch=11 n=57 v=85
110641 On ch=11 n=62 v=89
110641 On ch=11 n=66 v=82
110760 Off ch=11 n=66 v=64
110760 Off ch=11 n=62 v=64
110760 Off ch=11 n=57 v=64
110881 On ch=11 n=57 v=88
110881 On ch=11 n=62 v=86
110881 On ch=11 n=66 v=86
111000 Off ch=11 n=66 v=64
111000 Off ch=11 n=62 v=64
111000 Off ch=11 n=57 v=64
111121 On ch=11 n=57 v=89
111121 On ch=11 n=62 v=86
111121 On ch=11 n=66 v=86
111240 Off ch=11 n=66 v=64
111240 Off ch=11 n=62 v=64
111240 Off ch=11 n=57 v=64
111361 On ch=11 n=57 v=102
111361 On ch=11 n=61 v=102
111361 On ch=11 n=64 v=107
111491 Off ch=11 n=64 v=64
111491 Off ch=11 n=61 v=64
111491 Off ch=11 n=57 v=64
112081 On ch=11 n=57 v=96
112081 On ch=11 n=61 v=101
112081 On ch=11 n=64 v=104
112211 Off ch=11 n=64 v=64
112211 Off ch=11 n=61 v=64
112211 Off ch=11 n=57 v=64
112801 On ch=11 n=57 v=104
112801 On ch=11 n=61 v=104
112801 On ch=11 n=64 v=102
112931 Off ch=11 n=64 v=64
112931 Off ch=11 n=61 v=64
112931 Off ch=11 n=57 v=64
126721 On ch=11 n=57 v=93
126721 On ch=11 n=61 v=99
126721 On ch=11 n=64 v=97
128702 Off ch=11 n=61 v=64
128703 Off ch=11 n=64 v=64
128703 Off ch=11 n=57 v=64
161041 On ch=11 n=62 v=114
161207 Off ch=11 n=62 v=64
161521 On ch=11 n=59 v=107
161687 Off ch=11 n=59 v=64
162001 On ch=11 n=59 v=102
162167 Off ch=11 n=59 v=64
162481 On ch=11 n=59 v=95
162647 Off ch=11 n=59 v=64
162961 On ch=11 n=59 v=99
163127 Off ch=11 n=59 v=64
163441 On ch=11 n=62 v=95
163607 Off ch=11 n=62 v=64
163921 On ch=11 n=57 v=107
164087 Off ch=11 n=57 v=64
164401 On ch=11 n=57 v=102
164567 Off ch=11 n=57 v=64
164881 On ch=11 n=57 v=110
165047 Off ch=11 n=57 v=64
165361 On ch=11 n=61 v=92
165527 Off ch=11 n=61 v=64
165841 On ch=11 n=57 v=85
166007 Off ch=11 n=57 v=64
166321 On ch=11 n=57 v=88
166487 Off ch=11 n=57 v=64
166801 On ch=11 n=57 v=88
166967 Off ch=11 n=57 v=64
167281 On ch=11 n=59 v=92
167447 Off ch=11 n=59 v=64
167761 On ch=11 n=59 v=88
167927 Off ch=11 n=59 v=64
168241 On ch=11 n=59 v=88
168407 Off ch=11 n=59 v=64
168721 On ch=11 n=62 v=114
168887 Off ch=11 n=62 v=64
169201 On ch=11 n=59 v=107
169367 Off ch=11 n=59 v=64
169681 On ch=11 n=59 v=102
169847 Off ch=11 n=59 v=64
170161 On ch=11 n=59 v=95
170327 Off ch=11 n=59 v=64
170641 On ch=11 n=59 v=99
170807 Off ch=11 n=59 v=64
171121 On ch=11 n=62 v=95
171287 Off ch=11 n=62 v=64
171601 On ch=11 n=57 v=107
171767 Off ch=11 n=57 v=64
172081 On ch=11 n=57 v=102
172247 Off ch=11 n=57 v=64
172561 On ch=11 n=57 v=110
172727 Off ch=11 n=57 v=64
173041 On ch=11 n=61 v=92
173207 Off ch=11 n=61 v=64
173521 On ch=11 n=57 v=85
173687 Off ch=11 n=57 v=64
174001 On ch=11 n=57 v=88
174167 Off ch=11 n=57 v=64
174481 On ch=11 n=57 v=88
174647 Off ch=11 n=57 v=64
174961 On ch=11 n=59 v=92
175127 Off ch=11 n=59 v=64
175577 Par ch=11 c=98 v=32
175588 Par ch=11 c=6 v=64
175599 Par ch=11 c=98 v=99
175610 Par ch=11 c=6 v=64
175610 Meta TrkEnd
TrkEnd
MTrk
0 SeqSpec 05 0f 09 00 40
0 SeqSpec 05 0f 06 47 65 6e 65 72 61 6c 20 4d 49 44 49
0 Meta TrkName "Track 12"
0 Meta 0x20 0b
603 Par ch=12 c=0 v=0
623 PrCh ch=12 p=89
633 Par ch=12 c=7 v=100
643 Par ch=12 c=10 v=64
653 Par ch=12 c=11 v=127
663 Par ch=12 c=91 v=88
673 Par ch=12 c=93 v=52
683 Par ch=12 c=64 v=0
693 Par ch=12 c=1 v=0
703 Pb ch=12 v=8192
3824 On ch=12 n=59 v=105
3824 On ch=12 n=62 v=105
4055 Off ch=12 n=62 v=64
4055 Off ch=12 n=59 v=64
4064 On ch=12 n=54 v=105
4295 Off ch=12 n=54 v=64
4304 On ch=12 n=59 v=105
4304 On ch=12 n=62 v=105
4535 Off ch=12 n=62 v=64
4535 Off ch=12 n=59 v=64
4544 On ch=12 n=54 v=105
4775 Off ch=12 n=54 v=64
4784 On ch=12 n=59 v=105
4784 On ch=12 n=62 v=105
5015 Off ch=12 n=62 v=64
5015 Off ch=12 n=59 v=64
5024 On ch=12 n=54 v=105
5255 Off ch=12 n=54 v=64
5264 On ch=12 n=59 v=105
5264 On ch=12 n=62 v=105
5495 Off ch=12 n=62 v=64
5495 Off ch=12 n=59 v=64
5504 On ch=12 n=54 v=105
5735 Off ch=12 n=54 v=64
5744 On ch=12 n=59 v=115
5744 On ch=12 n=62 v=115
5975 Off ch=12 n=62 v=64
5975 Off ch=12 n=59 v=64
5984 On ch=12 n=55 v=115
6215 Off ch=12 n=55 v=64
6224 On ch=12 n=59 v=115
6224 On ch=12 n=62 v=115
6455 Off ch=12 n=62 v=64
6455 Off ch=12 n=59 v=64
6464 On ch=12 n=55 v=115
6695 Off ch=12 n=55 v=64
6704 On ch=12 n=59 v=115
6704 On ch=12 n=62 v=115
6935 Off ch=12 n=62 v=64
6935 Off ch=12 n=59 v=64
6944 On ch=12 n=55 v=115
7175 Off ch=12 n=55 v=64
7184 On ch=12 n=59 v=115
7184 On ch=12 n=62 v=115
7415 Off ch=12 n=62 v=64
7415 Off ch=12 n=59 v=64
7424 On ch=12 n=55 v=115
7655 Off ch=12 n=55 v=64
7664 On ch=12 n=62 v=115
7664 On ch=12 n=66 v=115
7895 Off ch=12 n=66 v=64
7895 Off ch=12 n=62 v=64
7904 On ch=12 n=57 v=115
8135 Off ch=12 n=57 v=64
8144 On ch=12 n=62 v=115
8144 On ch=12 n=66 v=115
8375 Off ch=12 n=66 v=64
8375 Off ch=12 n=62 v=64
8384 On ch=12 n=57 v=115
8615 Off ch=12 n=57 v=64
8624 On ch=12 n=62 v=115
8624 On ch=12 n=66 v=115
8855 Off ch=12 n=66 v=64
8855 Off ch=12 n=62 v=64
8864 On ch=12 n=57 v=115
9095 Off ch=12 n=57 v=64
9104 On ch=12 n=62 v=115
9104 On ch=12 n=66 v=115
9335 Off ch=12 n=66 v=64
9335 Off ch=12 n=62 v=64
9344 On ch=12 n=57 v=115
9575 Off ch=12 n=57 v=64
9584 On ch=12 n=61 v=115
9584 On ch=12 n=64 v=115
9815 Off ch=12 n=64 v=64
9815 Off ch=12 n=61 v=64
9824 On ch=12 n=57 v=115
10055 Off ch=12 n=57 v=64
10064 On ch=12 n=61 v=115
10064 On ch=12 n=64 v=115
10295 Off ch=12 n=64 v=64
10295 Off ch=12 n=61 v=64
10304 On ch=12 n=57 v=115
10535 Off ch=12 n=57 v=64
10544 On ch=12 n=61 v=115
10544 On ch=12 n=64 v=115
10775 Off ch=12 n=64 v=64
10775 Off ch=12 n=61 v=64
10784 On ch=12 n=57 v=115
11015 Off ch=12 n=57 v=64
11024 On ch=12 n=61 v=115
11024 On ch=12 n=64 v=115
11255 Off ch=12 n=64 v=64
11255 Off ch=12 n=61 v=64
11264 On ch=12 n=57 v=115
11495 Off ch=12 n=57 v=64
11504 On ch=12 n=59 v=115
11504 On ch=12 n=62 v=115
11504 On ch=12 n=66 v=115
11735 Off ch=12 n=66 v=64
11735 Off ch=12 n=62 v=64
11735 Off ch=12 n=59 v=64
11744 On ch=12 n=54 v=115
11975 Off ch=12 n=54 v=64
11984 On ch=12 n=59 v=115
11984 On ch=12 n=62 v=115
11984 On ch=12 n=66 v=115
12215 Off ch=12 n=66 v=64
12215 Off ch=12 n=62 v=64
12215 Off ch=12 n=59 v=64
12224 On ch=12 n=54 v=115
12455 Off ch=12 n=54 v=64
12464 On ch=12 n=59 v=115
12464 On ch=12 n=62 v=115
12464 On ch=12 n=66 v=115
12695 Off ch=12 n=66 v=64
12695 Off ch=12 n=62 v=64
12695 Off ch=12 n=59 v=64
12704 On ch=12 n=54 v=115
12935 Off ch=12 n=54 v=64
12944 On ch=12 n=59 v=115
12944 On ch=12 n=62 v=115
12944 On ch=12 n=66 v=115
13175 Off ch=12 n=66 v=64
13175 Off ch=12 n=62 v=64
13175 Off ch=12 n=59 v=64
13184 On ch=12 n=54 v=115
13415 Off ch=12 n=54 v=64
13424 On ch=12 n=59 v=115
13424 On ch=12 n=62 v=115
13655 Off ch=12 n=62 v=64
13655 Off ch=12 n=59 v=64
13664 On ch=12 n=55 v=115
13895 Off ch=12 n=55 v=64
13904 On ch=12 n=59 v=115
13904 On ch=12 n=62 v=115
14135 Off ch=12 n=62 v=64
14135 Off ch=12 n=59 v=64
14144 On ch=12 n=55 v=115
14375 Off ch=12 n=55 v=64
14384 On ch=12 n=59 v=115
14384 On ch=12 n=62 v=115
14615 Off ch=12 n=62 v=64
14615 Off ch=12 n=59 v=64
14624 On ch=12 n=55 v=115
14855 Off ch=12 n=55 v=64
14864 On ch=12 n=59 v=115
14864 On ch=12 n=62 v=115
15095 Off ch=12 n=62 v=64
15095 Off ch=12 n=59 v=64
15104 On ch=12 n=55 v=115
15335 Off ch=12 n=55 v=64
15344 On ch=12 n=62 v=115
15344 On ch=12 n=66 v=115
15575 Off ch=12 n=66 v=64
15575 Off ch=12 n=62 v=64
15584 On ch=12 n=57 v=115
15815 Off ch=12 n=57 v=64
15824 On ch=12 n=62 v=115
15824 On ch=12 n=66 v=115
16055 Off ch=12 n=66 v=64
16055 Off ch=12 n=62 v=64
16064 On ch=12 n=57 v=115
16295 Off ch=12 n=57 v=64
16304 On ch=12 n=62 v=115
16304 On ch=12 n=66 v=115
16535 Off ch=12 n=66 v=64
16535 Off ch=12 n=62 v=64
16544 On ch=12 n=57 v=115
16775 Off ch=12 n=57 v=64
16784 On ch=12 n=62 v=115
16784 On ch=12 n=66 v=115
17015 Off ch=12 n=66 v=64
17015 Off ch=12 n=62 v=64
17024 On ch=12 n=57 v=115
17255 Off ch=12 n=57 v=64
17264 On ch=12 n=61 v=115
17264 On ch=12 n=64 v=115
17495 Off ch=12 n=64 v=64
17495 Off ch=12 n=61 v=64
17504 On ch=12 n=57 v=115
17735 Off ch=12 n=57 v=64
17744 On ch=12 n=61 v=115
17744 On ch=12 n=64 v=115
17975 Off ch=12 n=64 v=64
17975 Off ch=12 n=61 v=64
17984 On ch=12 n=57 v=115
18215 Off ch=12 n=57 v=64
18224 On ch=12 n=61 v=115
18224 On ch=12 n=64 v=115
18455 Off ch=12 n=64 v=64
18455 Off ch=12 n=61 v=64
18464 On ch=12 n=57 v=115
18695 Off ch=12 n=57 v=64
18704 On ch=12 n=61 v=115
18704 On ch=12 n=64 v=115
18935 Off ch=12 n=64 v=64
18935 Off ch=12 n=61 v=64
18944 On ch=12 n=57 v=115
19175 Off ch=12 n=57 v=64
19184 On ch=12 n=59 v=115
19184 On ch=12 n=62 v=115
19184 On ch=12 n=66 v=115
19415 Off ch=12 n=66 v=64
19415 Off ch=12 n=62 v=64
19415 Off ch=12 n=59 v=64
19424 On ch=12 n=54 v=115
19655 Off ch=12 n=54 v=64
21104 On ch=12 n=59 v=115
21104 On ch=12 n=62 v=115
21335 Off ch=12 n=62 v=64
21335 Off ch=12 n=59 v=64
21344 On ch=12 n=55 v=115
21575 Off ch=12 n=55 v=64
21584 On ch=12 n=59 v=115
21584 On ch=12 n=62 v=115
21815 Off ch=12 n=62 v=64
21815 Off ch=12 n=59 v=64
21824 On ch=12 n=55 v=115
22055 Off ch=12 n=55 v=64
22064 On ch=12 n=59 v=115
22064 On ch=12 n=62 v=115
22295 Off ch=12 n=62 v=64
22295 Off ch=12 n=59 v=64
22304 On ch=12 n=55 v=115
22535 Off ch=12 n=55 v=64
22544 On ch=12 n=59 v=115
22544 On ch=12 n=62 v=115
22775 Off ch=12 n=62 v=64
22775 Off ch=12 n=59 v=64
22784 On ch=12 n=55 v=115
23015 Off ch=12 n=55 v=64
23024 On ch=12 n=62 v=115
23024 On ch=12 n=66 v=115
23255 Off ch=12 n=66 v=64
23255 Off ch=12 n=62 v=64
23264 On ch=12 n=57 v=115
23495 Off ch=12 n=57 v=64
23504 On ch=12 n=62 v=115
23504 On ch=12 n=66 v=115
23735 Off ch=12 n=66 v=64
23735 Off ch=12 n=62 v=64
23744 On ch=12 n=57 v=115
23975 Off ch=12 n=57 v=64
23984 On ch=12 n=62 v=115
23984 On ch=12 n=66 v=115
24215 Off ch=12 n=66 v=64
24215 Off ch=12 n=62 v=64
24224 On ch=12 n=57 v=115
24455 Off ch=12 n=57 v=64
24464 On ch=12 n=62 v=115
24464 On ch=12 n=66 v=115
24695 Off ch=12 n=66 v=64
24695 Off ch=12 n=62 v=64
24704 On ch=12 n=57 v=115
24935 Off ch=12 n=57 v=64
24944 On ch=12 n=61 v=115
24944 On ch=12 n=64 v=115
25175 Off ch=12 n=64 v=64
25175 Off ch=12 n=61 v=64
25184 On ch=12 n=57 v=115
25415 Off ch=12 n=57 v=64
25424 On ch=12 n=61 v=115
25424 On ch=12 n=64 v=115
25655 Off ch=12 n=64 v=64
25655 Off ch=12 n=61 v=64
25664 On ch=12 n=57 v=115
25895 Off ch=12 n=57 v=64
25904 On ch=12 n=61 v=115
25904 On ch=12 n=64 v=115
26135 Off ch=12 n=64 v=64
26135 Off ch=12 n=61 v=64
26144 On ch=12 n=57 v=115
26375 Off ch=12 n=57 v=64
26384 On ch=12 n=61 v=115
26384 On ch=12 n=64 v=115
26615 Off ch=12 n=64 v=64
26615 Off ch=12 n=61 v=64
26624 On ch=12 n=57 v=115
26855 Off ch=12 n=57 v=64
26864 On ch=12 n=59 v=115
26864 On ch=12 n=62 v=115
26864 On ch=12 n=66 v=115
27095 Off ch=12 n=66 v=64
27095 Off ch=12 n=62 v=64
27095 Off ch=12 n=59 v=64
27104 On ch=12 n=54 v=115
27335 Off ch=12 n=54 v=64
27344 On ch=12 n=59 v=115
27344 On ch=12 n=62 v=115
27344 On ch=12 n=66 v=115
27575 Off ch=12 n=66 v=64
27575 Off ch=12 n=62 v=64
27575 Off ch=12 n=59 v=64
27584 On ch=12 n=54 v=115
27815 Off ch=12 n=54 v=64
27824 On ch=12 n=59 v=115
27824 On ch=12 n=62 v=115
27824 On ch=12 n=66 v=115
28055 Off ch=12 n=66 v=64
28055 Off ch=12 n=62 v=64
28055 Off ch=12 n=59 v=64
28064 On ch=12 n=54 v=115
28295 Off ch=12 n=54 v=64
28304 On ch=12 n=59 v=115
28304 On ch=12 n=62 v=115
28304 On ch=12 n=66 v=115
28535 Off ch=12 n=66 v=64
28535 Off ch=12 n=62 v=64
28535 Off ch=12 n=59 v=64
28544 On ch=12 n=54 v=115
28775 Off ch=12 n=54 v=64
28784 On ch=12 n=59 v=115
28784 On ch=12 n=62 v=115
29015 Off ch=12 n=62 v=64
29015 Off ch=12 n=59 v=64
29024 On ch=12 n=55 v=115
29255 Off ch=12 n=55 v=64
29264 On ch=12 n=59 v=115
29264 On ch=12 n=62 v=115
29495 Off ch=12 n=62 v=64
29495 Off ch=12 n=59 v=64
29504 On ch=12 n=55 v=115
29735 Off ch=12 n=55 v=64
29744 On ch=12 n=59 v=115
29744 On ch=12 n=62 v=115
29975 Off ch=12 n=62 v=64
29975 Off ch=12 n=59 v=64
29984 On ch=12 n=55 v=115
30215 Off ch=12 n=55 v=64
30224 On ch=12 n=59 v=115
30224 On ch=12 n=62 v=115
30455 Off ch=12 n=62 v=64
30455 Off ch=12 n=59 v=64
30464 On ch=12 n=55 v=115
30695 Off ch=12 n=55 v=64
30704 On ch=12 n=62 v=115
30704 On ch=12 n=66 v=115
30935 Off ch=12 n=66 v=64
30935 Off ch=12 n=62 v=64
30944 On ch=12 n=57 v=115
31175 Off ch=12 n=57 v=64
31184 On ch=12 n=62 v=115
31184 On ch=12 n=66 v=115
31415 Off ch=12 n=66 v=64
31415 Off ch=12 n=62 v=64
31424 On ch=12 n=57 v=115
31655 Off ch=12 n=57 v=64
31664 On ch=12 n=62 v=115
31664 On ch=12 n=66 v=115
31895 Off ch=12 n=66 v=64
31895 Off ch=12 n=62 v=64
31904 On ch=12 n=57 v=115
32135 Off ch=12 n=57 v=64
32144 On ch=12 n=62 v=115
32144 On ch=12 n=66 v=115
32375 Off ch=12 n=66 v=64
32375 Off ch=12 n=62 v=64
32384 On ch=12 n=57 v=115
32615 Off ch=12 n=57 v=64
32624 On ch=12 n=61 v=115
32624 On ch=12 n=64 v=115
32855 Off ch=12 n=64 v=64
32855 Off ch=12 n=61 v=64
32864 On ch=12 n=57 v=115
33095 Off ch=12 n=57 v=64
33104 On ch=12 n=61 v=115
33104 On ch=12 n=64 v=115
33335 Off ch=12 n=64 v=64
33335 Off ch=12 n=61 v=64
33344 On ch=12 n=57 v=115
33575 Off ch=12 n=57 v=64
33584 On ch=12 n=61 v=115
33584 On ch=12 n=64 v=115
33815 Off ch=12 n=64 v=64
33815 Off ch=12 n=61 v=64
33824 On ch=12 n=57 v=115
34055 Off ch=12 n=57 v=64
34064 On ch=12 n=61 v=115
34064 On ch=12 n=64 v=115
34295 Off ch=12 n=64 v=64
34295 Off ch=12 n=61 v=64
34304 On ch=12 n=57 v=115
34535 Off ch=12 n=57 v=64
99824 On ch=12 n=59 v=115
99824 On ch=12 n=62 v=115
100055 Off ch=12 n=62 v=64
100055 Off ch=12 n=59 v=64
100064 On ch=12 n=55 v=115
100295 Off ch=12 n=55 v=64
100304 On ch=12 n=59 v=115
100304 On ch=12 n=62 v=115
100535 Off ch=12 n=62 v=64
100535 Off ch=12 n=59 v=64
100544 On ch=12 n=55 v=115
100775 Off ch=12 n=55 v=64
100784 On ch=12 n=59 v=115
100784 On ch=12 n=62 v=115
101015 Off ch=12 n=62 v=64
101015 Off ch=12 n=59 v=64
101024 On ch=12 n=55 v=115
101255 Off ch=12 n=55 v=64
101264 On ch=12 n=59 v=115
101264 On ch=12 n=62 v=115
101495 Off ch=12 n=62 v=64
101495 Off ch=12 n=59 v=64
101504 On ch=12 n=55 v=115
101735 Off ch=12 n=55 v=64
101744 On ch=12 n=62 v=115
101744 On ch=12 n=66 v=115
101975 Off ch=12 n=66 v=64
101975 Off ch=12 n=62 v=64
101984 On ch=12 n=57 v=115
102215 Off ch=12 n=57 v=64
102224 On ch=12 n=62 v=115
102224 On ch=12 n=66 v=115
102455 Off ch=12 n=66 v=64
102455 Off ch=12 n=62 v=64
102464 On ch=12 n=57 v=115
102695 Off ch=12 n=57 v=64
102704 On ch=12 n=62 v=115
102704 On ch=12 n=66 v=115
102935 Off ch=12 n=66 v=64
102935 Off ch=12 n=62 v=64
102944 On ch=12 n=57 v=115
103175 Off ch=12 n=57 v=64
103184 On ch=12 n=62 v=115
103184 On ch=12 n=66 v=115
103415 Off ch=12 n=66 v=64
103415 Off ch=12 n=62 v=64
103424 On ch=12 n=57 v=115
103655 Off ch=12 n=57 v=64
103664 On ch=12 n=61 v=115
103664 On ch=12 n=64 v=115
103895 Off ch=12 n=64 v=64
103895 Off ch=12 n=61 v=64
103904 On ch=12 n=57 v=115
104135 Off ch=12 n=57 v=64
104144 On ch=12 n=61 v=115
104144 On ch=12 n=64 v=115
104375 Off ch=12 n=64 v=64
104375 Off ch=12 n=61 v=64
104384 On ch=12 n=57 v=115
104615 Off ch=12 n=57 v=64
104624 On ch=12 n=61 v=115
104624 On ch=12 n=64 v=115
104855 Off ch=12 n=64 v=64
104855 Off ch=12 n=61 v=64
104864 On ch=12 n=57 v=115
105095 Off ch=12 n=57 v=64
105104 On ch=12 n=61 v=115
105104 On ch=12 n=64 v=115
105335 Off ch=12 n=64 v=64
105335 Off ch=12 n=61 v=64
105344 On ch=12 n=57 v=115
105575 Off ch=12 n=57 v=64
105584 On ch=12 n=54 v=86
105584 On ch=12 n=59 v=99
105584 On ch=12 n=62 v=103
105725 Off ch=12 n=62 v=64
105745 Off ch=12 n=54 v=64
105746 Off ch=12 n=59 v=64
106064 On ch=12 n=54 v=85
106064 On ch=12 n=59 v=92
106064 On ch=12 n=62 v=99
106174 Off ch=12 n=62 v=64
106190 Off ch=12 n=59 v=64
106193 Off ch=12 n=54 v=64
106424 On ch=12 n=54 v=86
106424 On ch=12 n=59 v=89
106424 On ch=12 n=62 v=96
106485 Off ch=12 n=62 v=64
106494 Off ch=12 n=54 v=64
106497 Off ch=12 n=59 v=64
106544 On ch=12 n=54 v=78
106544 On ch=12 n=59 v=92
106544 On ch=12 n=62 v=73
106658 Off ch=12 n=62 v=64
106658 Off ch=12 n=59 v=64
106658 Off ch=12 n=54 v=64
106784 On ch=12 n=54 v=89
106784 On ch=12 n=59 v=88
106784 On ch=12 n=62 v=96
106898 Off ch=12 n=62 v=64
106898 Off ch=12 n=59 v=64
106898 Off ch=12 n=54 v=64
107024 On ch=12 n=54 v=86
107024 On ch=12 n=59 v=89
107024 On ch=12 n=62 v=96
107138 Off ch=12 n=62 v=64
107138 Off ch=12 n=59 v=64
107138 Off ch=12 n=54 v=64
107264 On ch=12 n=54 v=89
107264 On ch=12 n=59 v=85
107264 On ch=12 n=62 v=96
107378 Off ch=12 n=62 v=64
107378 Off ch=12 n=59 v=64
107378 Off ch=12 n=54 v=64
107504 On ch=12 n=55 v=91
107504 On ch=12 n=59 v=89
107504 On ch=12 n=62 v=92
107611 Off ch=12 n=55 v=64
107614 Off ch=12 n=59 v=64
107618 Off ch=12 n=62 v=64
107984 On ch=12 n=55 v=89
107984 On ch=12 n=59 v=91
107984 On ch=12 n=62 v=99
108067 Off ch=12 n=55 v=64
108076 Off ch=12 n=59 v=64
108087 Off ch=12 n=62 v=64
108344 On ch=12 n=55 v=86
108344 On ch=12 n=59 v=96
108344 On ch=12 n=62 v=96
108393 Off ch=12 n=59 v=64
108394 Off ch=12 n=62 v=64
108404 Off ch=12 n=55 v=64
108464 On ch=12 n=55 v=88
108464 On ch=12 n=59 v=89
108464 On ch=12 n=62 v=96
108578 Off ch=12 n=62 v=64
108578 Off ch=12 n=59 v=64
108578 Off ch=12 n=55 v=64
108704 On ch=12 n=55 v=85
108704 On ch=12 n=59 v=85
108704 On ch=12 n=62 v=92
108818 Off ch=12 n=62 v=64
108818 Off ch=12 n=59 v=64
108818 Off ch=12 n=55 v=64
108944 On ch=12 n=55 v=81
108944 On ch=12 n=59 v=85
108944 On ch=12 n=62 v=96
109058 Off ch=12 n=62 v=64
109058 Off ch=12 n=59 v=64
109058 Off ch=12 n=55 v=64
109184 On ch=12 n=55 v=85
109184 On ch=12 n=59 v=85
109184 On ch=12 n=62 v=96
109298 Off ch=12 n=62 v=64
109298 Off ch=12 n=59 v=64
109298 Off ch=12 n=55 v=64
109424 On ch=12 n=62 v=103
109424 On ch=12 n=66 v=95
109664 Off ch=12 n=66 v=64
109664 On ch=12 n=57 v=103
109678 Off ch=12 n=62 v=64
109904 On ch=12 n=62 v=107
109904 On ch=12 n=66 v=103
109934 Off ch=12 n=57 v=64
110144 On ch=12 n=57 v=96
110150 Off ch=12 n=62 v=64
110160 Off ch=12 n=66 v=64
110384 On ch=12 n=62 v=102
110384 On ch=12 n=66 v=107
110417 Off ch=12 n=57 v=64
110624 On ch=12 n=57 v=103
110644 Off ch=12 n=62 v=64
110653 Off ch=12 n=66 v=64
110864 On ch=12 n=62 v=107
110864 On ch=12 n=66 v=107
110892 Off ch=12 n=57 v=64
111104 On ch=12 n=57 v=106
111114 Off ch=12 n=62 v=64
111131 Off ch=12 n=66 v=64
111344 On ch=12 n=61 v=93
111344 On ch=12 n=64 v=107
111365 Off ch=12 n=57 v=64
111584 On ch=12 n=57 v=107
111597 Off ch=12 n=64 v=64
111604 Off ch=12 n=61 v=64
111824 On ch=12 n=61 v=95
111824 On ch=12 n=64 v=107
111864 Off ch=12 n=57 v=64
112064 On ch=12 n=57 v=96
112071 Off ch=12 n=64 v=64
112102 Off ch=12 n=61 v=64
112304 On ch=12 n=61 v=100
112304 On ch=12 n=64 v=110
112342 Off ch=12 n=57 v=64
112544 On ch=12 n=57 v=103
112581 Off ch=12 n=64 v=64
112601 Off ch=12 n=61 v=64
112784 On ch=12 n=61 v=103
112784 On ch=12 n=64 v=107
112827 Off ch=12 n=57 v=64
113020 Off ch=12 n=64 v=64
113024 On ch=12 n=57 v=110
113026 Off ch=12 n=61 v=64
113217 Off ch=12 n=57 v=64
120944 On ch=12 n=71 v=97
120944 On ch=12 n=74 v=96
120944 On ch=12 n=78 v=97
121085 Off ch=12 n=78 v=64
121085 Off ch=12 n=74 v=64
121085 Off ch=12 n=71 v=64
121664 On ch=12 n=71 v=99
121664 On ch=12 n=74 v=99
121664 On ch=12 n=78 v=94
122291 Off ch=12 n=78 v=64
122291 Off ch=12 n=74 v=64
122291 Off ch=12 n=71 v=64
122864 On ch=12 n=71 v=99
122864 On ch=12 n=74 v=99
122864 On ch=12 n=79 v=96
123005 Off ch=12 n=79 v=64
123005 Off ch=12 n=74 v=64
123005 Off ch=12 n=71 v=64
123584 On ch=12 n=71 v=99
123584 On ch=12 n=74 v=99
123584 On ch=12 n=79 v=99
124211 Off ch=12 n=79 v=64
124211 Off ch=12 n=74 v=64
124211 Off ch=12 n=71 v=64
124784 On ch=12 n=74 v=99
124784 On ch=12 n=78 v=99
124784 On ch=12 n=81 v=89
124925 Off ch=12 n=81 v=64
124925 Off ch=12 n=78 v=64
124925 Off ch=12 n=74 v=64
125504 On ch=12 n=74 v=99
125504 On ch=12 n=78 v=99
125504 On ch=12 n=81 v=94
126131 Off ch=12 n=81 v=64
126131 Off ch=12 n=78 v=64
126131 Off ch=12 n=74 v=64
126704 On ch=12 n=73 v=93
126704 On ch=12 n=76 v=99
126704 On ch=12 n=81 v=94
126827 Off ch=12 n=81 v=64
126833 Off ch=12 n=76 v=64
126838 Off ch=12 n=73 v=64
161264 On ch=12 n=59 v=115
161264 On ch=12 n=62 v=115
161495 Off ch=12 n=62 v=64
161495 Off ch=12 n=59 v=64
161504 On ch=12 n=55 v=115
161735 Off ch=12 n=55 v=64
161744 On ch=12 n=59 v=115
161744 On ch=12 n=62 v=115
161975 Off ch=12 n=62 v=64
161975 Off ch=12 n=59 v=64
161984 On ch=12 n=55 v=115
162215 Off ch=12 n=55 v=64
162224 On ch=12 n=59 v=115
162224 On ch=12 n=62 v=115
162455 Off ch=12 n=62 v=64
162455 Off ch=12 n=59 v=64
162464 On ch=12 n=55 v=115
162695 Off ch=12 n=55 v=64
162704 On ch=12 n=59 v=115
162704 On ch=12 n=62 v=115
162935 Off ch=12 n=62 v=64
162935 Off ch=12 n=59 v=64
162944 On ch=12 n=55 v=115
163175 Off ch=12 n=55 v=64
163184 On ch=12 n=62 v=115
163184 On ch=12 n=66 v=115
163415 Off ch=12 n=66 v=64
163415 Off ch=12 n=62 v=64
163424 On ch=12 n=57 v=115
163655 Off ch=12 n=57 v=64
163664 On ch=12 n=62 v=115
163664 On ch=12 n=66 v=115
163895 Off ch=12 n=66 v=64
163895 Off ch=12 n=62 v=64
163904 On ch=12 n=57 v=115
164135 Off ch=12 n=57 v=64
164144 On ch=12 n=62 v=115
164144 On ch=12 n=66 v=115
164375 Off ch=12 n=66 v=64
164375 Off ch=12 n=62 v=64
164384 On ch=12 n=57 v=115
164615 Off ch=12 n=57 v=64
164624 On ch=12 n=62 v=115
164624 On ch=12 n=66 v=115
164855 Off ch=12 n=66 v=64
164855 Off ch=12 n=62 v=64
164864 On ch=12 n=57 v=115
165095 Off ch=12 n=57 v=64
165104 On ch=12 n=61 v=115
165104 On ch=12 n=64 v=115
165335 Off ch=12 n=64 v=64
165335 Off ch=12 n=61 v=64
165344 On ch=12 n=57 v=115
165575 Off ch=12 n=57 v=64
165584 On ch=12 n=61 v=115
165584 On ch=12 n=64 v=115
165815 Off ch=12 n=64 v=64
165815 Off ch=12 n=61 v=64
165824 On ch=12 n=57 v=115
166055 Off ch=12 n=57 v=64
166064 On ch=12 n=61 v=115
166064 On ch=12 n=64 v=115
166295 Off ch=12 n=64 v=64
166295 Off ch=12 n=61 v=64
166304 On ch=12 n=57 v=115
166535 Off ch=12 n=57 v=64
166544 On ch=12 n=61 v=115
166544 On ch=12 n=64 v=115
166775 Off ch=12 n=64 v=64
166775 Off ch=12 n=61 v=64
166784 On ch=12 n=57 v=115
167015 Off ch=12 n=57 v=64
167024 On ch=12 n=59 v=115
167024 On ch=12 n=62 v=115
167024 On ch=12 n=66 v=115
167255 Off ch=12 n=66 v=64
167255 Off ch=12 n=62 v=64
167255 Off ch=12 n=59 v=64
167264 On ch=12 n=54 v=115
167495 Off ch=12 n=54 v=64
167504 On ch=12 n=59 v=115
167504 On ch=12 n=62 v=115
167504 On ch=12 n=66 v=115
167735 Off ch=12 n=66 v=64
167735 Off ch=12 n=62 v=64
167735 Off ch=12 n=59 v=64
167744 On ch=12 n=54 v=115
167975 Off ch=12 n=54 v=64
167984 On ch=12 n=59 v=115
167984 On ch=12 n=62 v=115
167984 On ch=12 n=66 v=115
168215 Off ch=12 n=66 v=64
168215 Off ch=12 n=62 v=64
168215 Off ch=12 n=59 v=64
168224 On ch=12 n=54 v=115
168455 Off ch=12 n=54 v=64
168464 On ch=12 n=59 v=115
168464 On ch=12 n=62 v=115
168464 On ch=12 n=66 v=115
168695 Off ch=12 n=66 v=64
168695 Off ch=12 n=62 v=64
168695 Off ch=12 n=59 v=64
168704 On ch=12 n=54 v=115
168935 Off ch=12 n=54 v=64
168944 On ch=12 n=59 v=115
168944 On ch=12 n=62 v=115
169175 Off ch=12 n=62 v=64
169175 Off ch=12 n=59 v=64
169184 On ch=12 n=55 v=115
169415 Off ch=12 n=55 v=64
169424 On ch=12 n=59 v=115
169424 On ch=12 n=62 v=115
169655 Off ch=12 n=62 v=64
169655 Off ch=12 n=59 v=64
169664 On ch=12 n=55 v=115
169895 Off ch=12 n=55 v=64
169904 On ch=12 n=59 v=115
169904 On ch=12 n=62 v=115
170135 Off ch=12 n=62 v=64
170135 Off ch=12 n=59 v=64
170144 On ch=12 n=55 v=115
170375 Off ch=12 n=55 v=64
170384 On ch=12 n=59 v=115
170384 On ch=12 n=62 v=115
170615 Off ch=12 n=62 v=64
170615 Off ch=12 n=59 v=64
170624 On ch=12 n=55 v=115
170855 Off ch=12 n=55 v=64
170864 On ch=12 n=62 v=115
170864 On ch=12 n=66 v=115
171095 Off ch=12 n=66 v=64
171095 Off ch=12 n=62 v=64
171104 On ch=12 n=57 v=115
171335 Off ch=12 n=57 v=64
171344 On ch=12 n=62 v=115
171344 On ch=12 n=66 v=115
171575 Off ch=12 n=66 v=64
171575 Off ch=12 n=62 v=64
171584 On ch=12 n=57 v=115
171815 Off ch=12 n=57 v=64
171824 On ch=12 n=62 v=115
171824 On ch=12 n=66 v=115
172055 Off ch=12 n=66 v=64
172055 Off ch=12 n=62 v=64
172064 On ch=12 n=57 v=115
172295 Off ch=12 n=57 v=64
172304 On ch=12 n=62 v=115
172304 On ch=12 n=66 v=115
172535 Off ch=12 n=66 v=64
172535 Off ch=12 n=62 v=64
172544 On ch=12 n=57 v=115
172775 Off ch=12 n=57 v=64
172784 On ch=12 n=61 v=115
172784 On ch=12 n=64 v=115
173015 Off ch=12 n=64 v=64
173015 Off ch=12 n=61 v=64
173024 On ch=12 n=57 v=115
173255 Off ch=12 n=57 v=64
173264 On ch=12 n=61 v=115
173264 On ch=12 n=64 v=115
173495 Off ch=12 n=64 v=64
173495 Off ch=12 n=61 v=64
173504 On ch=12 n=57 v=115
173735 Off ch=12 n=57 v=64
173744 On ch=12 n=61 v=115
173744 On ch=12 n=64 v=115
173975 Off ch=12 n=64 v=64
173975 Off ch=12 n=61 v=64
173984 On ch=12 n=57 v=115
174215 Off ch=12 n=57 v=64
174224 On ch=12 n=61 v=115
174224 On ch=12 n=64 v=115
174455 Off ch=12 n=64 v=64
174455 Off ch=12 n=61 v=64
174464 On ch=12 n=57 v=115
174695 Off ch=12 n=57 v=64
174704 On ch=12 n=59 v=115
174704 On ch=12 n=62 v=115
174704 On ch=12 n=66 v=115
174935 Off ch=12 n=66 v=64
174935 Off ch=12 n=62 v=64
174935 Off ch=12 n=59 v=64
174944 On ch=12 n=54 v=115
175175 Off ch=12 n=54 v=64
175175 Meta TrkEnd
TrkEnd
MTrk
0 SeqSpec 05 0f 09 00 40
0 SeqSpec 05 0f 06 47 65 6e 65 72 61 6c 20 4d 49 44 49
0 Meta TrkName "Track 13"
0 Meta 0x20 0c
604 Par ch=13 c=0 v=0
624 PrCh ch=13 p=62
634 Par ch=13 c=7 v=65
644 Par ch=13 c=10 v=86
654 Par ch=13 c=11 v=127
664 Par ch=13 c=91 v=86
674 Par ch=13 c=93 v=30
684 Par ch=13 c=64 v=0
694 Par ch=13 c=1 v=0
704 Pb ch=13 v=8192
1053 Par ch=13 c=99 v=1
1065 Par ch=13 c=98 v=99
1076 Par ch=13 c=6 v=56
69121 On ch=13 n=71 v=100
69121 On ch=13 n=74 v=104
69121 On ch=13 n=79 v=100
69544 Off ch=13 n=79 v=64
69544 Off ch=13 n=74 v=64
69544 Off ch=13 n=71 v=64
69841 On ch=13 n=71 v=103
69841 On ch=13 n=74 v=104
69841 On ch=13 n=79 v=104
70486 Off ch=13 n=79 v=64
70486 Off ch=13 n=74 v=64
70486 Off ch=13 n=71 v=64
71041 On ch=13 n=69 v=109
71041 On ch=13 n=74 v=100
71041 On ch=13 n=78 v=87
71464 Off ch=13 n=78 v=64
71464 Off ch=13 n=74 v=64
71464 Off ch=13 n=69 v=64
71761 On ch=13 n=69 v=97
71761 On ch=13 n=74 v=104
71761 On ch=13 n=78 v=92
72406 Off ch=13 n=78 v=64
72406 Off ch=13 n=74 v=64
72406 Off ch=13 n=69 v=64
72961 On ch=13 n=69 v=104
72961 On ch=13 n=73 v=96
72961 On ch=13 n=76 v=104
73384 Off ch=13 n=76 v=64
73384 Off ch=13 n=73 v=64
73384 Off ch=13 n=69 v=64
73681 On ch=13 n=69 v=100
73681 On ch=13 n=73 v=93
73681 On ch=13 n=76 v=104
74326 Off ch=13 n=76 v=64
74326 Off ch=13 n=73 v=64
74326 Off ch=13 n=69 v=64
74881 On ch=13 n=71 v=104
74881 On ch=13 n=74 v=100
74881 On ch=13 n=78 v=90
75304 Off ch=13 n=78 v=64
75304 Off ch=13 n=74 v=64
75304 Off ch=13 n=71 v=64
75601 On ch=13 n=71 v=100
75601 On ch=13 n=74 v=113
75601 On ch=13 n=78 v=100
76246 Off ch=13 n=78 v=64
76246 Off ch=13 n=74 v=64
76246 Off ch=13 n=71 v=64
76801 On ch=13 n=71 v=100
76801 On ch=13 n=74 v=104
76801 On ch=13 n=79 v=100
77224 Off ch=13 n=79 v=64
77224 Off ch=13 n=74 v=64
77224 Off ch=13 n=71 v=64
77521 On ch=13 n=71 v=103
77521 On ch=13 n=74 v=104
77521 On ch=13 n=79 v=104
78166 Off ch=13 n=79 v=64
78166 Off ch=13 n=74 v=64
78166 Off ch=13 n=71 v=64
78721 On ch=13 n=69 v=109
78721 On ch=13 n=74 v=100
78721 On ch=13 n=78 v=87
79144 Off ch=13 n=78 v=64
79144 Off ch=13 n=74 v=64
79144 Off ch=13 n=69 v=64
79441 On ch=13 n=69 v=97
79441 On ch=13 n=74 v=104
79441 On ch=13 n=78 v=92
80086 Off ch=13 n=78 v=64
80086 Off ch=13 n=74 v=64
80086 Off ch=13 n=69 v=64
80641 On ch=13 n=69 v=104
80641 On ch=13 n=73 v=96
80641 On ch=13 n=76 v=104
81064 Off ch=13 n=76 v=64
81064 Off ch=13 n=73 v=64
81064 Off ch=13 n=69 v=64
81361 On ch=13 n=69 v=100
81361 On ch=13 n=73 v=93
81361 On ch=13 n=76 v=104
82006 Off ch=13 n=76 v=64
82006 Off ch=13 n=73 v=64
82006 Off ch=13 n=69 v=64
82561 On ch=13 n=71 v=104
82561 On ch=13 n=74 v=100
82561 On ch=13 n=78 v=90
82984 Off ch=13 n=78 v=64
82984 Off ch=13 n=74 v=64
82984 Off ch=13 n=71 v=64
83281 On ch=13 n=71 v=100
83281 On ch=13 n=74 v=113
83281 On ch=13 n=78 v=100
83926 Off ch=13 n=78 v=64
83926 Off ch=13 n=74 v=64
83926 Off ch=13 n=71 v=64
84481 On ch=13 n=71 v=100
84481 On ch=13 n=74 v=104
84481 On ch=13 n=79 v=100
84904 Off ch=13 n=79 v=64
84904 Off ch=13 n=74 v=64
84904 Off ch=13 n=71 v=64
85201 On ch=13 n=71 v=103
85201 On ch=13 n=74 v=104
85201 On ch=13 n=79 v=104
85846 Off ch=13 n=79 v=64
85846 Off ch=13 n=74 v=64
85846 Off ch=13 n=71 v=64
86401 On ch=13 n=69 v=109
86401 On ch=13 n=74 v=100
86401 On ch=13 n=78 v=87
86824 Off ch=13 n=78 v=64
86824 Off ch=13 n=74 v=64
86824 Off ch=13 n=69 v=64
87121 On ch=13 n=69 v=97
87121 On ch=13 n=74 v=104
87121 On ch=13 n=78 v=92
87766 Off ch=13 n=78 v=64
87766 Off ch=13 n=74 v=64
87766 Off ch=13 n=69 v=64
88321 On ch=13 n=69 v=104
88321 On ch=13 n=73 v=96
88321 On ch=13 n=76 v=104
88744 Off ch=13 n=76 v=64
88744 Off ch=13 n=73 v=64
88744 Off ch=13 n=69 v=64
89041 On ch=13 n=69 v=100
89041 On ch=13 n=73 v=93
89041 On ch=13 n=76 v=104
89686 Off ch=13 n=76 v=64
89686 Off ch=13 n=73 v=64
89686 Off ch=13 n=69 v=64
90241 On ch=13 n=71 v=104
90241 On ch=13 n=74 v=100
90241 On ch=13 n=78 v=90
90664 Off ch=13 n=78 v=64
90664 Off ch=13 n=74 v=64
90664 Off ch=13 n=71 v=64
90961 On ch=13 n=71 v=100
90961 On ch=13 n=74 v=113
90961 On ch=13 n=78 v=100
91606 Off ch=13 n=78 v=64
91606 Off ch=13 n=74 v=64
91606 Off ch=13 n=71 v=64
92161 On ch=13 n=71 v=100
92161 On ch=13 n=74 v=104
92161 On ch=13 n=79 v=100
92584 Off ch=13 n=79 v=64
92584 Off ch=13 n=74 v=64
92584 Off ch=13 n=71 v=64
92881 On ch=13 n=71 v=103
92881 On ch=13 n=74 v=104
92881 On ch=13 n=79 v=104
93526 Off ch=13 n=79 v=64
93526 Off ch=13 n=74 v=64
93526 Off ch=13 n=71 v=64
94081 On ch=13 n=69 v=109
94081 On ch=13 n=74 v=100
94081 On ch=13 n=78 v=87
94504 Off ch=13 n=78 v=64
94504 Off ch=13 n=74 v=64
94504 Off ch=13 n=69 v=64
94801 On ch=13 n=69 v=97
94801 On ch=13 n=74 v=104
94801 On ch=13 n=78 v=92
95446 Off ch=13 n=78 v=64
95446 Off ch=13 n=74 v=64
95446 Off ch=13 n=69 v=64
120961 On ch=13 n=71 v=119
120961 On ch=13 n=74 v=112
120961 On ch=13 n=78 v=113
121107 Off ch=13 n=78 v=64
121107 Off ch=13 n=74 v=64
121107 Off ch=13 n=71 v=64
121681 On ch=13 n=71 v=115
121681 On ch=13 n=74 v=115
121681 On ch=13 n=78 v=110
122313 Off ch=13 n=78 v=64
122313 Off ch=13 n=74 v=64
122313 Off ch=13 n=71 v=64
122881 On ch=13 n=71 v=115
122881 On ch=13 n=74 v=115
122881 On ch=13 n=79 v=112
123027 Off ch=13 n=79 v=64
123027 Off ch=13 n=74 v=64
123027 Off ch=13 n=71 v=64
123601 On ch=13 n=71 v=115
123601 On ch=13 n=74 v=115
123601 On ch=13 n=79 v=115
124233 Off ch=13 n=79 v=64
124233 Off ch=13 n=74 v=64
124233 Off ch=13 n=71 v=64
124801 On ch=13 n=74 v=115
124801 On ch=13 n=78 v=115
124801 On ch=13 n=81 v=105
124947 Off ch=13 n=81 v=64
124947 Off ch=13 n=78 v=64
124947 Off ch=13 n=74 v=64
125521 On ch=13 n=74 v=115
125521 On ch=13 n=78 v=115
125521 On ch=13 n=81 v=110
126153 Off ch=13 n=81 v=64
126153 Off ch=13 n=78 v=64
126153 Off ch=13 n=74 v=64
126721 On ch=13 n=73 v=109
126721 On ch=13 n=76 v=115
126721 On ch=13 n=81 v=110
126849 Off ch=13 n=81 v=64
126855 Off ch=13 n=76 v=64
126860 Off ch=13 n=73 v=64
130561 On ch=13 n=71 v=100
130561 On ch=13 n=74 v=104
130561 On ch=13 n=79 v=100
130984 Off ch=13 n=79 v=64
130984 Off ch=13 n=74 v=64
130984 Off ch=13 n=71 v=64
131281 On ch=13 n=71 v=103
131281 On ch=13 n=74 v=104
131281 On ch=13 n=79 v=104
131926 Off ch=13 n=79 v=64
131926 Off ch=13 n=74 v=64
131926 Off ch=13 n=71 v=64
132481 On ch=13 n=69 v=109
132481 On ch=13 n=74 v=100
132481 On ch=13 n=78 v=87
132904 Off ch=13 n=78 v=64
132904 Off ch=13 n=74 v=64
132904 Off ch=13 n=69 v=64
133201 On ch=13 n=69 v=97
133201 On ch=13 n=74 v=104
133201 On ch=13 n=78 v=92
133846 Off ch=13 n=78 v=64
133846 Off ch=13 n=74 v=64
133846 Off ch=13 n=69 v=64
134401 On ch=13 n=69 v=104
134401 On ch=13 n=73 v=96
134401 On ch=13 n=76 v=104
134824 Off ch=13 n=76 v=64
134824 Off ch=13 n=73 v=64
134824 Off ch=13 n=69 v=64
135121 On ch=13 n=69 v=100
135121 On ch=13 n=73 v=93
135121 On ch=13 n=76 v=104
135766 Off ch=13 n=76 v=64
135766 Off ch=13 n=73 v=64
135766 Off ch=13 n=69 v=64
136321 On ch=13 n=71 v=104
136321 On ch=13 n=74 v=100
136321 On ch=13 n=78 v=90
136744 Off ch=13 n=78 v=64
136744 Off ch=13 n=74 v=64
136744 Off ch=13 n=71 v=64
137041 On ch=13 n=71 v=100
137041 On ch=13 n=74 v=113
137041 On ch=13 n=78 v=100
137686 Off ch=13 n=78 v=64
137686 Off ch=13 n=74 v=64
137686 Off ch=13 n=71 v=64
138241 On ch=13 n=71 v=100
138241 On ch=13 n=74 v=104
138241 On ch=13 n=79 v=100
138664 Off ch=13 n=79 v=64
138664 Off ch=13 n=74 v=64
138664 Off ch=13 n=71 v=64
138961 On ch=13 n=71 v=103
138961 On ch=13 n=74 v=104
138961 On ch=13 n=79 v=104
139606 Off ch=13 n=79 v=64
139606 Off ch=13 n=74 v=64
139606 Off ch=13 n=71 v=64
140161 On ch=13 n=69 v=109
140161 On ch=13 n=74 v=100
140161 On ch=13 n=78 v=87
140584 Off ch=13 n=78 v=64
140584 Off ch=13 n=74 v=64
140584 Off ch=13 n=69 v=64
140881 On ch=13 n=69 v=97
140881 On ch=13 n=74 v=104
140881 On ch=13 n=78 v=92
141526 Off ch=13 n=78 v=64
141526 Off ch=13 n=74 v=64
141526 Off ch=13 n=69 v=64
142081 On ch=13 n=69 v=104
142081 On ch=13 n=73 v=96
142081 On ch=13 n=76 v=104
142504 Off ch=13 n=76 v=64
142504 Off ch=13 n=73 v=64
142504 Off ch=13 n=69 v=64
142801 On ch=13 n=69 v=100
142801 On ch=13 n=73 v=93
142801 On ch=13 n=76 v=104
143446 Off ch=13 n=76 v=64
143446 Off ch=13 n=73 v=64
143446 Off ch=13 n=69 v=64
144001 On ch=13 n=71 v=104
144001 On ch=13 n=74 v=100
144001 On ch=13 n=78 v=90
144424 Off ch=13 n=78 v=64
144424 Off ch=13 n=74 v=64
144424 Off ch=13 n=71 v=64
144721 On ch=13 n=71 v=100
144721 On ch=13 n=74 v=113
144721 On ch=13 n=78 v=100
145366 Off ch=13 n=78 v=64
145366 Off ch=13 n=74 v=64
145366 Off ch=13 n=71 v=64
145921 On ch=13 n=71 v=100
145921 On ch=13 n=74 v=104
145921 On ch=13 n=79 v=100
146344 Off ch=13 n=79 v=64
146344 Off ch=13 n=74 v=64
146344 Off ch=13 n=71 v=64
146641 On ch=13 n=71 v=103
146641 On ch=13 n=74 v=104
146641 On ch=13 n=79 v=104
147286 Off ch=13 n=79 v=64
147286 Off ch=13 n=74 v=64
147286 Off ch=13 n=71 v=64
147841 On ch=13 n=69 v=109
147841 On ch=13 n=74 v=100
147841 On ch=13 n=78 v=87
148264 Off ch=13 n=78 v=64
148264 Off ch=13 n=74 v=64
148264 Off ch=13 n=69 v=64
148561 On ch=13 n=69 v=97
148561 On ch=13 n=74 v=104
148561 On ch=13 n=78 v=92
149206 Off ch=13 n=78 v=64
149206 Off ch=13 n=74 v=64
149206 Off ch=13 n=69 v=64
149761 On ch=13 n=69 v=104
149761 On ch=13 n=73 v=96
149761 On ch=13 n=76 v=104
150184 Off ch=13 n=76 v=64
150184 Off ch=13 n=73 v=64
150184 Off ch=13 n=69 v=64
150481 On ch=13 n=69 v=100
150481 On ch=13 n=73 v=93
150481 On ch=13 n=76 v=104
151126 Off ch=13 n=76 v=64
151126 Off ch=13 n=73 v=64
151126 Off ch=13 n=69 v=64
151681 On ch=13 n=71 v=104
151681 On ch=13 n=74 v=100
151681 On ch=13 n=78 v=90
152104 Off ch=13 n=78 v=64
152104 Off ch=13 n=74 v=64
152104 Off ch=13 n=71 v=64
152401 On ch=13 n=71 v=100
152401 On ch=13 n=74 v=113
152401 On ch=13 n=78 v=100
153046 Off ch=13 n=78 v=64
153046 Off ch=13 n=74 v=64
153046 Off ch=13 n=71 v=64
153601 On ch=13 n=71 v=100
153601 On ch=13 n=74 v=104
153601 On ch=13 n=79 v=100
154024 Off ch=13 n=79 v=64
154024 Off ch=13 n=74 v=64
154024 Off ch=13 n=71 v=64
154321 On ch=13 n=71 v=103
154321 On ch=13 n=74 v=104
154321 On ch=13 n=79 v=104
154966 Off ch=13 n=79 v=64
154966 Off ch=13 n=74 v=64
154966 Off ch=13 n=71 v=64
155521 On ch=13 n=69 v=109
155521 On ch=13 n=74 v=100
155521 On ch=13 n=78 v=87
155944 Off ch=13 n=78 v=64
155944 Off ch=13 n=74 v=64
155944 Off ch=13 n=69 v=64
156241 On ch=13 n=69 v=97
156241 On ch=13 n=74 v=104
156241 On ch=13 n=78 v=92
156886 Off ch=13 n=78 v=64
156886 Off ch=13 n=74 v=64
156886 Off ch=13 n=69 v=64
161281 On ch=13 n=71 v=97
161281 On ch=13 n=74 v=100
161281 On ch=13 n=79 v=92
161581 Off ch=13 n=79 v=64
161581 Off ch=13 n=74 v=64
161581 Off ch=13 n=71 v=64
162001 On ch=13 n=71 v=82
162001 On ch=13 n=74 v=87
162001 On ch=13 n=79 v=84
162178 Off ch=13 n=79 v=64
162178 Off ch=13 n=74 v=64
162178 Off ch=13 n=71 v=64
162241 On ch=13 n=71 v=80
162241 On ch=13 n=74 v=92
162241 On ch=13 n=79 v=88
162439 Off ch=13 n=79 v=64
162439 Off ch=13 n=74 v=64
162439 Off ch=13 n=71 v=64
162721 On ch=13 n=71 v=90
162721 On ch=13 n=74 v=92
162721 On ch=13 n=79 v=95
162919 Off ch=13 n=79 v=64
162919 Off ch=13 n=74 v=64
162919 Off ch=13 n=71 v=64
163201 On ch=13 n=69 v=98
163201 On ch=13 n=74 v=100
163201 On ch=13 n=78 v=90
163501 Off ch=13 n=78 v=64
163501 Off ch=13 n=74 v=64
163501 Off ch=13 n=69 v=64
163921 On ch=13 n=69 v=82
163921 On ch=13 n=74 v=86
163921 On ch=13 n=78 v=86
164098 Off ch=13 n=78 v=64
164098 Off ch=13 n=74 v=64
164098 Off ch=13 n=69 v=64
164161 On ch=13 n=69 v=79
164161 On ch=13 n=74 v=86
164161 On ch=13 n=78 v=86
164359 Off ch=13 n=78 v=64
164359 Off ch=13 n=74 v=64
164359 Off ch=13 n=69 v=64
164641 On ch=13 n=69 v=93
164641 On ch=13 n=74 v=93
164641 On ch=13 n=78 v=90
164839 Off ch=13 n=78 v=64
164839 Off ch=13 n=74 v=64
164839 Off ch=13 n=69 v=64
165121 On ch=13 n=69 v=100
165121 On ch=13 n=73 v=84
165121 On ch=13 n=76 v=100
165421 Off ch=13 n=76 v=64
165421 Off ch=13 n=73 v=64
165421 Off ch=13 n=69 v=64
165841 On ch=13 n=69 v=83
165841 On ch=13 n=73 v=77
165841 On ch=13 n=76 v=89
166018 Off ch=13 n=76 v=64
166018 Off ch=13 n=73 v=64
166018 Off ch=13 n=69 v=64
166081 On ch=13 n=69 v=83
166081 On ch=13 n=73 v=78
166081 On ch=13 n=76 v=92
166279 Off ch=13 n=76 v=64
166279 Off ch=13 n=73 v=64
166279 Off ch=13 n=69 v=64
166561 On ch=13 n=69 v=92
166561 On ch=13 n=73 v=84
166561 On ch=13 n=76 v=100
166759 Off ch=13 n=76 v=64
166759 Off ch=13 n=73 v=64
166759 Off ch=13 n=69 v=64
167041 On ch=13 n=71 v=104
167041 On ch=13 n=74 v=100
167041 On ch=13 n=78 v=92
167341 Off ch=13 n=78 v=64
167341 Off ch=13 n=74 v=64
167341 Off ch=13 n=71 v=64
167761 On ch=13 n=71 v=90
167761 On ch=13 n=74 v=93
167761 On ch=13 n=78 v=87
167938 Off ch=13 n=78 v=64
167938 Off ch=13 n=74 v=64
167938 Off ch=13 n=71 v=64
168001 On ch=13 n=71 v=86
168001 On ch=13 n=74 v=92
168001 On ch=13 n=78 v=87
168199 Off ch=13 n=78 v=64
168199 Off ch=13 n=74 v=64
168199 Off ch=13 n=71 v=64
168481 On ch=13 n=71 v=100
168481 On ch=13 n=74 v=104
168481 On ch=13 n=78 v=92
168679 Off ch=13 n=78 v=64
168679 Off ch=13 n=74 v=64
168679 Off ch=13 n=71 v=64
168961 On ch=13 n=71 v=97
168961 On ch=13 n=74 v=100
168961 On ch=13 n=79 v=92
169261 Off ch=13 n=79 v=64
169261 Off ch=13 n=74 v=64
169261 Off ch=13 n=71 v=64
169681 On ch=13 n=71 v=82
169681 On ch=13 n=74 v=87
169681 On ch=13 n=79 v=84
169858 Off ch=13 n=79 v=64
169858 Off ch=13 n=74 v=64
169858 Off ch=13 n=71 v=64
169921 On ch=13 n=71 v=80
169921 On ch=13 n=74 v=92
169921 On ch=13 n=79 v=88
170119 Off ch=13 n=79 v=64
170119 Off ch=13 n=74 v=64
170119 Off ch=13 n=71 v=64
170401 On ch=13 n=71 v=90
170401 On ch=13 n=74 v=92
170401 On ch=13 n=79 v=95
170599 Off ch=13 n=79 v=64
170599 Off ch=13 n=74 v=64
170599 Off ch=13 n=71 v=64
170881 On ch=13 n=69 v=98
170881 On ch=13 n=74 v=100
170881 On ch=13 n=78 v=90
171181 Off ch=13 n=78 v=64
171181 Off ch=13 n=74 v=64
171181 Off ch=13 n=69 v=64
171601 On ch=13 n=69 v=82
171601 On ch=13 n=74 v=86
171601 On ch=13 n=78 v=86
171778 Off ch=13 n=78 v=64
171778 Off ch=13 n=74 v=64
171778 Off ch=13 n=69 v=64
171841 On ch=13 n=69 v=79
171841 On ch=13 n=74 v=86
171841 On ch=13 n=78 v=86
172039 Off ch=13 n=78 v=64
172039 Off ch=13 n=74 v=64
172039 Off ch=13 n=69 v=64
172321 On ch=13 n=69 v=93
172321 On ch=13 n=74 v=93
172321 On ch=13 n=78 v=90
172519 Off ch=13 n=78 v=64
172519 Off ch=13 n=74 v=64
172519 Off ch=13 n=69 v=64
172801 On ch=13 n=69 v=100
172801 On ch=13 n=73 v=84
172801 On ch=13 n=76 v=100
173101 Off ch=13 n=76 v=64
173101 Off ch=13 n=73 v=64
173101 Off ch=13 n=69 v=64
173521 On ch=13 n=69 v=83
173521 On ch=13 n=73 v=77
173521 On ch=13 n=76 v=89
173698 Off ch=13 n=76 v=64
173698 Off ch=13 n=73 v=64
173698 Off ch=13 n=69 v=64
173761 On ch=13 n=69 v=83
173761 On ch=13 n=73 v=78
173761 On ch=13 n=76 v=92
173959 Off ch=13 n=76 v=64
173959 Off ch=13 n=73 v=64
173959 Off ch=13 n=69 v=64
174241 On ch=13 n=69 v=92
174241 On ch=13 n=73 v=84
174241 On ch=13 n=76 v=100
174439 Off ch=13 n=76 v=64
174439 Off ch=13 n=73 v=64
174439 Off ch=13 n=69 v=64
174721 On ch=13 n=71 v=104
174721 On ch=13 n=74 v=100
174721 On ch=13 n=78 v=92
175021 Off ch=13 n=78 v=64
175021 Off ch=13 n=74 v=64
175021 Off ch=13 n=71 v=64
175441 On ch=13 n=71 v=90
175441 On ch=13 n=74 v=93
175441 On ch=13 n=78 v=87
175618 Off ch=13 n=78 v=64
175618 Off ch=13 n=74 v=64
175618 Off ch=13 n=71 v=64
175681 On ch=13 n=71 v=86
175681 On ch=13 n=74 v=92
175681 On ch=13 n=78 v=87
175879 Off ch=13 n=78 v=64
175879 Off ch=13 n=74 v=64
175879 Off ch=13 n=71 v=64
176161 On ch=13 n=71 v=100
176161 On ch=13 n=74 v=104
176161 On ch=13 n=78 v=92
176359 Off ch=13 n=78 v=64
176359 Off ch=13 n=74 v=64
176359 Off ch=13 n=71 v=64
176641 On ch=13 n=71 v=105
176641 On ch=13 n=74 v=108
176641 On ch=13 n=79 v=100
176941 Off ch=13 n=79 v=64
176941 Off ch=13 n=74 v=64
176941 Off ch=13 n=71 v=64
177361 On ch=13 n=71 v=90
177361 On ch=13 n=74 v=95
177361 On ch=13 n=79 v=92
177538 Off ch=13 n=79 v=64
177538 Off ch=13 n=74 v=64
177538 Off ch=13 n=71 v=64
177601 On ch=13 n=71 v=88
177601 On ch=13 n=74 v=100
177601 On ch=13 n=79 v=96
177799 Off ch=13 n=79 v=64
177799 Off ch=13 n=74 v=64
177799 Off ch=13 n=71 v=64
178081 On ch=13 n=71 v=98
178081 On ch=13 n=74 v=100
178081 On ch=13 n=79 v=103
178279 Off ch=13 n=79 v=64
178279 Off ch=13 n=74 v=64
178279 Off ch=13 n=71 v=64
178561 On ch=13 n=69 v=106
178561 On ch=13 n=74 v=108
178561 On ch=13 n=78 v=98
178861 Off ch=13 n=78 v=64
178861 Off ch=13 n=74 v=64
178861 Off ch=13 n=69 v=64
179281 On ch=13 n=69 v=90
179281 On ch=13 n=74 v=94
179281 On ch=13 n=78 v=94
179458 Off ch=13 n=78 v=64
179458 Off ch=13 n=74 v=64
179458 Off ch=13 n=69 v=64
179521 On ch=13 n=69 v=87
179521 On ch=13 n=74 v=94
179521 On ch=13 n=78 v=94
179719 Off ch=13 n=78 v=64
179719 Off ch=13 n=74 v=64
179719 Off ch=13 n=69 v=64
180001 On ch=13 n=69 v=101
180001 On ch=13 n=74 v=101
180001 On ch=13 n=78 v=98
180199 Off ch=13 n=78 v=64
180199 Off ch=13 n=74 v=64
180199 Off ch=13 n=69 v=64
180481 On ch=13 n=69 v=108
180481 On ch=13 n=73 v=92
180481 On ch=13 n=76 v=108
180781 Off ch=13 n=76 v=64
180781 Off ch=13 n=73 v=64
180781 Off ch=13 n=69 v=64
181201 On ch=13 n=69 v=91
181201 On ch=13 n=73 v=85
181201 On ch=13 n=76 v=97
181378 Off ch=13 n=76 v=64
181378 Off ch=13 n=73 v=64
181378 Off ch=13 n=69 v=64
181441 On ch=13 n=69 v=91
181441 On ch=13 n=73 v=86
181441 On ch=13 n=76 v=100
181639 Off ch=13 n=76 v=64
181639 Off ch=13 n=73 v=64
181639 Off ch=13 n=69 v=64
181921 On ch=13 n=69 v=100
181921 On ch=13 n=73 v=92
181921 On ch=13 n=76 v=108
182119 Off ch=13 n=76 v=64
182119 Off ch=13 n=73 v=64
182119 Off ch=13 n=69 v=64
182401 On ch=13 n=71 v=112
182401 On ch=13 n=74 v=108
182401 On ch=13 n=78 v=100
182701 Off ch=13 n=78 v=64
182701 Off ch=13 n=74 v=64
182701 Off ch=13 n=71 v=64
183121 On ch=13 n=71 v=98
183121 On ch=13 n=74 v=101
183121 On ch=13 n=78 v=95
183298 Off ch=13 n=78 v=64
183298 Off ch=13 n=74 v=64
183298 Off ch=13 n=71 v=64
183361 On ch=13 n=71 v=94
183361 On ch=13 n=74 v=100
183361 On ch=13 n=78 v=95
183559 Off ch=13 n=78 v=64
183559 Off ch=13 n=74 v=64
183559 Off ch=13 n=71 v=64
183841 On ch=13 n=71 v=108
183841 On ch=13 n=74 v=112
183841 On ch=13 n=78 v=100
184039 Off ch=13 n=78 v=64
184039 Off ch=13 n=74 v=64
184039 Off ch=13 n=71 v=64
184321 On ch=13 n=71 v=105
184321 On ch=13 n=74 v=108
184321 On ch=13 n=79 v=100
184621 Off ch=13 n=79 v=64
184621 Off ch=13 n=74 v=64
184621 Off ch=13 n=71 v=64
185041 On ch=13 n=71 v=90
185041 On ch=13 n=74 v=95
185041 On ch=13 n=79 v=92
185218 Off ch=13 n=79 v=64
185218 Off ch=13 n=74 v=64
185218 Off ch=13 n=71 v=64
185281 On ch=13 n=71 v=88
185281 On ch=13 n=74 v=100
185281 On ch=13 n=79 v=96
185479 Off ch=13 n=79 v=64
185479 Off ch=13 n=74 v=64
185479 Off ch=13 n=71 v=64
185761 On ch=13 n=71 v=98
185761 On ch=13 n=74 v=100
185761 On ch=13 n=79 v=103
185959 Off ch=13 n=79 v=64
185959 Off ch=13 n=74 v=64
185959 Off ch=13 n=71 v=64
186241 On ch=13 n=69 v=106
186241 On ch=13 n=74 v=108
186241 On ch=13 n=78 v=98
186541 Off ch=13 n=78 v=64
186541 Off ch=13 n=74 v=64
186541 Off ch=13 n=69 v=64
186961 On ch=13 n=69 v=90
186961 On ch=13 n=74 v=94
186961 On ch=13 n=78 v=94
187138 Off ch=13 n=78 v=64
187138 Off ch=13 n=74 v=64
187138 Off ch=13 n=69 v=64
187201 On ch=13 n=69 v=87
187201 On ch=13 n=74 v=94
187201 On ch=13 n=78 v=94
187399 Off ch=13 n=78 v=64
187399 Off ch=13 n=74 v=64
187399 Off ch=13 n=69 v=64
187681 On ch=13 n=69 v=101
187681 On ch=13 n=74 v=101
187681 On ch=13 n=78 v=98
187879 Off ch=13 n=78 v=64
187879 Off ch=13 n=74 v=64
187879 Off ch=13 n=69 v=64
188161 On ch=13 n=69 v=108
188161 On ch=13 n=73 v=92
188161 On ch=13 n=76 v=108
188461 Off ch=13 n=76 v=64
188461 Off ch=13 n=73 v=64
188461 Off ch=13 n=69 v=64
188881 On ch=13 n=69 v=91
188881 On ch=13 n=73 v=85
188881 On ch=13 n=76 v=97
189058 Off ch=13 n=76 v=64
189058 Off ch=13 n=73 v=64
189058 Off ch=13 n=69 v=64
189121 On ch=13 n=69 v=91
189121 On ch=13 n=73 v=86
189121 On ch=13 n=76 v=100
189319 Off ch=13 n=76 v=64
189319 Off ch=13 n=73 v=64
189319 Off ch=13 n=69 v=64
189601 On ch=13 n=69 v=100
189601 On ch=13 n=73 v=92
189601 On ch=13 n=76 v=108
189799 Off ch=13 n=76 v=64
189799 Off ch=13 n=73 v=64
189799 Off ch=13 n=69 v=64
192001 On ch=13 n=71 v=100
192001 On ch=13 n=74 v=104
192001 On ch=13 n=79 v=100
192424 Off ch=13 n=79 v=64
192424 Off ch=13 n=74 v=64
192424 Off ch=13 n=71 v=64
192721 On ch=13 n=71 v=103
192721 On ch=13 n=74 v=104
192721 On ch=13 n=79 v=104
193366 Off ch=13 n=79 v=64
193366 Off ch=13 n=74 v=64
193366 Off ch=13 n=71 v=64
193921 On ch=13 n=69 v=109
193921 On ch=13 n=74 v=100
193921 On ch=13 n=78 v=87
194344 Off ch=13 n=78 v=64
194344 Off ch=13 n=74 v=64
194344 Off ch=13 n=69 v=64
194641 On ch=13 n=69 v=97
194641 On ch=13 n=74 v=104
194641 On ch=13 n=78 v=92
195286 Off ch=13 n=78 v=64
195286 Off ch=13 n=74 v=64
195286 Off ch=13 n=69 v=64
195841 On ch=13 n=69 v=104
195841 On ch=13 n=73 v=96
195841 On ch=13 n=76 v=104
196264 Off ch=13 n=76 v=64
196264 Off ch=13 n=73 v=64
196264 Off ch=13 n=69 v=64
196561 On ch=13 n=69 v=100
196561 On ch=13 n=73 v=93
196561 On ch=13 n=76 v=104
197206 Off ch=13 n=76 v=64
197206 Off ch=13 n=73 v=64
197206 Off ch=13 n=69 v=64
197761 On ch=13 n=71 v=104
197761 On ch=13 n=74 v=100
197761 On ch=13 n=78 v=90
198184 Off ch=13 n=78 v=64
198184 Off ch=13 n=74 v=64
198184 Off ch=13 n=71 v=64
198481 On ch=13 n=71 v=100
198481 On ch=13 n=74 v=113
198481 On ch=13 n=78 v=100
199126 Off ch=13 n=78 v=64
199126 Off ch=13 n=74 v=64
199126 Off ch=13 n=71 v=64
199681 On ch=13 n=71 v=100
199681 On ch=13 n=74 v=104
199681 On ch=13 n=79 v=100
200104 Off ch=13 n=79 v=64
200104 Off ch=13 n=74 v=64
200104 Off ch=13 n=71 v=64
200401 On ch=13 n=71 v=103
200401 On ch=13 n=74 v=104
200401 On ch=13 n=79 v=104
201046 Off ch=13 n=79 v=64
201046 Off ch=13 n=74 v=64
201046 Off ch=13 n=71 v=64
201601 On ch=13 n=69 v=109
201601 On ch=13 n=74 v=100
201601 On ch=13 n=78 v=87
202024 Off ch=13 n=78 v=64
202024 Off ch=13 n=74 v=64
202024 Off ch=13 n=69 v=64
202321 On ch=13 n=69 v=97
202321 On ch=13 n=74 v=104
202321 On ch=13 n=78 v=92
202966 Off ch=13 n=78 v=64
202966 Off ch=13 n=74 v=64
202966 Off ch=13 n=69 v=64
203521 On ch=13 n=69 v=104
203521 On ch=13 n=73 v=96
203521 On ch=13 n=76 v=104
203944 Off ch=13 n=76 v=64
203944 Off ch=13 n=73 v=64
203944 Off ch=13 n=69 v=64
204241 On ch=13 n=69 v=100
204241 On ch=13 n=73 v=93
204241 On ch=13 n=76 v=104
204886 Off ch=13 n=76 v=64
204886 Off ch=13 n=73 v=64
204886 Off ch=13 n=69 v=64
205441 On ch=13 n=71 v=104
205441 On ch=13 n=74 v=100
205441 On ch=13 n=78 v=90
205864 Off ch=13 n=78 v=64
205864 Off ch=13 n=74 v=64
205864 Off ch=13 n=71 v=64
206161 On ch=13 n=71 v=100
206161 On ch=13 n=74 v=113
206161 On ch=13 n=78 v=100
206806 Off ch=13 n=78 v=64
206806 Off ch=13 n=74 v=64
206806 Off ch=13 n=71 v=64
207361 On ch=13 n=71 v=100
207361 On ch=13 n=74 v=104
207361 On ch=13 n=79 v=100
207784 Off ch=13 n=79 v=64
207784 Off ch=13 n=74 v=64
207784 Off ch=13 n=71 v=64
208081 On ch=13 n=71 v=103
208081 On ch=13 n=74 v=104
208081 On ch=13 n=79 v=104
208726 Off ch=13 n=79 v=64
208726 Off ch=13 n=74 v=64
208726 Off ch=13 n=71 v=64
209281 On ch=13 n=69 v=109
209281 On ch=13 n=74 v=100
209281 On ch=13 n=78 v=87
209704 Off ch=13 n=78 v=64
209704 Off ch=13 n=74 v=64
209704 Off ch=13 n=69 v=64
210001 On ch=13 n=69 v=97
210001 On ch=13 n=74 v=104
210001 On ch=13 n=78 v=92
210646 Off ch=13 n=78 v=64
210646 Off ch=13 n=74 v=64
210646 Off ch=13 n=69 v=64
211201 On ch=13 n=69 v=104
211201 On ch=13 n=73 v=96
211201 On ch=13 n=76 v=104
211624 Off ch=13 n=76 v=64
211624 Off ch=13 n=73 v=64
211624 Off ch=13 n=69 v=64
211921 On ch=13 n=69 v=100
211921 On ch=13 n=73 v=93
211921 On ch=13 n=76 v=104
212566 Off ch=13 n=76 v=64
212566 Off ch=13 n=73 v=64
212566 Off ch=13 n=69 v=64
213121 On ch=13 n=71 v=104
213121 On ch=13 n=74 v=100
213121 On ch=13 n=78 v=90
213544 Off ch=13 n=78 v=64
213544 Off ch=13 n=74 v=64
213544 Off ch=13 n=71 v=64
213841 On ch=13 n=71 v=100
213841 On ch=13 n=74 v=113
213841 On ch=13 n=78 v=100
214486 Off ch=13 n=78 v=64
214486 Off ch=13 n=74 v=64
214486 Off ch=13 n=71 v=64
215041 On ch=13 n=71 v=100
215041 On ch=13 n=74 v=104
215041 On ch=13 n=79 v=100
215464 Off ch=13 n=79 v=64
215464 Off ch=13 n=74 v=64
215464 Off ch=13 n=71 v=64
215761 On ch=13 n=71 v=103
215761 On ch=13 n=74 v=104
215761 On ch=13 n=79 v=104
216406 Off ch=13 n=79 v=64
216406 Off ch=13 n=74 v=64
216406 Off ch=13 n=71 v=64
216961 On ch=13 n=69 v=109
216961 On ch=13 n=74 v=100
216961 On ch=13 n=78 v=87
217384 Off ch=13 n=78 v=64
217384 Off ch=13 n=74 v=64
217384 Off ch=13 n=69 v=64
217681 On ch=13 n=69 v=97
217681 On ch=13 n=74 v=104
217681 On ch=13 n=78 v=92
218326 Off ch=13 n=78 v=64
218326 Off ch=13 n=74 v=64
218326 Off ch=13 n=69 v=64
218881 On ch=13 n=69 v=104
218881 On ch=13 n=73 v=96
218881 On ch=13 n=76 v=104
219304 Off ch=13 n=76 v=64
219304 Off ch=13 n=73 v=64
219304 Off ch=13 n=69 v=64
219601 On ch=13 n=69 v=100
219601 On ch=13 n=73 v=93
219601 On ch=13 n=76 v=104
220246 Off ch=13 n=76 v=64
220246 Off ch=13 n=73 v=64
220246 Off ch=13 n=69 v=64
220697 Par ch=13 c=98 v=104
220708 Par ch=13 c=6 v=69
220708 Meta TrkEnd
TrkEnd
MTrk
0 SeqSpec 05 0f 09 00 40
0 SeqSpec 05 0f 06 47 65 6e 65 72 61 6c 20 4d 49 44 49
0 Meta TrkName "Track 14"
0 Meta 0x20 0d
605 Par ch=14 c=0 v=0
625 PrCh ch=14 p=81
635 Par ch=14 c=7 v=67
645 Par ch=14 c=10 v=64
655 Par ch=14 c=11 v=127
665 Par ch=14 c=91 v=38
675 Par ch=14 c=93 v=22
685 Par ch=14 c=64 v=0
695 Par ch=14 c=1 v=0
705 Pb ch=14 v=8192
21120 On ch=14 n=31 v=100
21352 Off ch=14 n=31 v=64
21360 On ch=14 n=43 v=100
21592 Off ch=14 n=43 v=64
21600 On ch=14 n=31 v=100
21832 Off ch=14 n=31 v=64
21840 On ch=14 n=43 v=100
22072 Off ch=14 n=43 v=64
22080 On ch=14 n=31 v=100
22312 Off ch=14 n=31 v=64
22320 On ch=14 n=43 v=100
22552 Off ch=14 n=43 v=64
22560 On ch=14 n=31 v=100
22792 Off ch=14 n=31 v=64
22800 On ch=14 n=43 v=100
23032 Off ch=14 n=43 v=64
23040 On ch=14 n=38 v=100
23272 Off ch=14 n=38 v=64
23280 On ch=14 n=50 v=100
23512 Off ch=14 n=50 v=64
23520 On ch=14 n=38 v=100
23752 Off ch=14 n=38 v=64
23760 On ch=14 n=50 v=100
23992 Off ch=14 n=50 v=64
24000 On ch=14 n=38 v=100
24232 Off ch=14 n=38 v=64
24240 On ch=14 n=50 v=100
24472 Off ch=14 n=50 v=64
24480 On ch=14 n=38 v=100
24712 Off ch=14 n=38 v=64
24720 On ch=14 n=50 v=100
24952 Off ch=14 n=50 v=64
24960 On ch=14 n=33 v=100
25192 Off ch=14 n=33 v=64
25200 On ch=14 n=45 v=100
25432 Off ch=14 n=45 v=64
25440 On ch=14 n=33 v=100
25672 Off ch=14 n=33 v=64
25680 On ch=14 n=45 v=100
25912 Off ch=14 n=45 v=64
25920 On ch=14 n=33 v=100
26152 Off ch=14 n=33 v=64
26160 On ch=14 n=45 v=100
26392 Off ch=14 n=45 v=64
26400 On ch=14 n=33 v=100
26632 Off ch=14 n=33 v=64
26640 On ch=14 n=45 v=100
26872 Off ch=14 n=45 v=64
26880 On ch=14 n=35 v=100
27112 Off ch=14 n=35 v=64
27120 On ch=14 n=47 v=100
27352 Off ch=14 n=47 v=64
27360 On ch=14 n=35 v=100
27592 Off ch=14 n=35 v=64
27600 On ch=14 n=47 v=100
27832 Off ch=14 n=47 v=64
27840 On ch=14 n=35 v=100
28072 Off ch=14 n=35 v=64
28080 On ch=14 n=47 v=100
28312 Off ch=14 n=47 v=64
28320 On ch=14 n=35 v=100
28552 Off ch=14 n=35 v=64
28560 On ch=14 n=47 v=100
28792 Off ch=14 n=47 v=64
28800 On ch=14 n=31 v=100
29032 Off ch=14 n=31 v=64
29040 On ch=14 n=43 v=100
29272 Off ch=14 n=43 v=64
29280 On ch=14 n=31 v=100
29512 Off ch=14 n=31 v=64
29520 On ch=14 n=43 v=100
29752 Off ch=14 n=43 v=64
29760 On ch=14 n=31 v=100
29992 Off ch=14 n=31 v=64
30000 On ch=14 n=43 v=100
30232 Off ch=14 n=43 v=64
30240 On ch=14 n=31 v=100
30472 Off ch=14 n=31 v=64
30480 On ch=14 n=43 v=100
30712 Off ch=14 n=43 v=64
30720 On ch=14 n=38 v=100
30952 Off ch=14 n=38 v=64
30960 On ch=14 n=50 v=100
31192 Off ch=14 n=50 v=64
31200 On ch=14 n=38 v=100
31432 Off ch=14 n=38 v=64
31440 On ch=14 n=50 v=100
31672 Off ch=14 n=50 v=64
31680 On ch=14 n=38 v=100
31912 Off ch=14 n=38 v=64
31920 On ch=14 n=50 v=100
32152 Off ch=14 n=50 v=64
32160 On ch=14 n=38 v=100
32392 Off ch=14 n=38 v=64
32400 On ch=14 n=50 v=100
32632 Off ch=14 n=50 v=64
32640 On ch=14 n=33 v=100
32872 Off ch=14 n=33 v=64
32880 On ch=14 n=45 v=100
33112 Off ch=14 n=45 v=64
33120 On ch=14 n=33 v=100
33352 Off ch=14 n=33 v=64
33360 On ch=14 n=45 v=100
33592 Off ch=14 n=45 v=64
33600 On ch=14 n=33 v=100
33832 Off ch=14 n=33 v=64
33840 On ch=14 n=45 v=100
34072 Off ch=14 n=45 v=64
34080 On ch=14 n=33 v=100
34312 Off ch=14 n=33 v=64
34320 On ch=14 n=45 v=100
34552 Off ch=14 n=45 v=64
34560 On ch=14 n=33 v=100
34792 Off ch=14 n=33 v=64
34800 On ch=14 n=45 v=100
35032 Off ch=14 n=45 v=64
35040 On ch=14 n=33 v=100
35272 Off ch=14 n=33 v=64
35280 On ch=14 n=45 v=100
35343 Off ch=14 n=45 v=64
35400 On ch=14 n=45 v=100
35463 Off ch=14 n=45 v=64
35520 On ch=14 n=45 v=100
35583 Off ch=14 n=45 v=64
35640 On ch=14 n=45 v=100
35703 Off ch=14 n=45 v=64
35760 On ch=14 n=45 v=100
35823 Off ch=14 n=45 v=64
36000 On ch=14 n=33 v=100
36232 Off ch=14 n=33 v=64
36240 On ch=14 n=45 v=100
36472 Off ch=14 n=45 v=64
36480 On ch=14 n=35 v=100
36712 Off ch=14 n=35 v=64
36720 On ch=14 n=47 v=100
36988 Off ch=14 n=47 v=64
37440 On ch=14 n=35 v=100
37672 Off ch=14 n=35 v=64
37680 On ch=14 n=47 v=100
37948 Off ch=14 n=47 v=64
38400 On ch=14 n=31 v=100
38632 Off ch=14 n=31 v=64
38640 On ch=14 n=43 v=100
38745 Off ch=14 n=43 v=64
38880 On ch=14 n=31 v=100
39112 Off ch=14 n=31 v=64
39120 On ch=14 n=43 v=100
39352 Off ch=14 n=43 v=64
39360 On ch=14 n=31 v=100
39563 Off ch=14 n=31 v=64
39840 On ch=14 n=31 v=100
40124 Off ch=14 n=31 v=64
40320 On ch=14 n=38 v=100
40552 Off ch=14 n=38 v=64
40560 On ch=14 n=50 v=100
40792 Off ch=14 n=50 v=64
40800 On ch=14 n=38 v=100
41032 Off ch=14 n=38 v=64
41040 On ch=14 n=50 v=100
41272 Off ch=14 n=50 v=64
41280 On ch=14 n=38 v=100
41512 Off ch=14 n=38 v=64
41520 On ch=14 n=50 v=100
41752 Off ch=14 n=50 v=64
41760 On ch=14 n=38 v=100
41992 Off ch=14 n=38 v=64
42000 On ch=14 n=50 v=100
42232 Off ch=14 n=50 v=64
42240 On ch=14 n=33 v=100
42472 Off ch=14 n=33 v=64
42480 On ch=14 n=45 v=100
42712 Off ch=14 n=45 v=64
42720 On ch=14 n=33 v=100
42952 Off ch=14 n=33 v=64
42960 On ch=14 n=45 v=100
43192 Off ch=14 n=45 v=64
43200 On ch=14 n=33 v=100
43396 Off ch=14 n=33 v=64
44400 On ch=14 n=35 v=100
44488 Off ch=14 n=35 v=64
44640 On ch=14 n=35 v=100
44713 Off ch=14 n=35 v=64
44760 On ch=14 n=35 v=100
44833 Off ch=14 n=35 v=64
44880 On ch=14 n=35 v=100
44953 Off ch=14 n=35 v=64
45000 On ch=14 n=35 v=100
45073 Off ch=14 n=35 v=64
45120 On ch=14 n=35 v=100
45352 Off ch=14 n=35 v=64
45360 On ch=14 n=47 v=100
45592 Off ch=14 n=47 v=64
45600 On ch=14 n=35 v=100
45832 Off ch=14 n=35 v=64
45840 On ch=14 n=47 v=100
46072 Off ch=14 n=47 v=64
46080 On ch=14 n=31 v=100
46312 Off ch=14 n=31 v=64
46320 On ch=14 n=43 v=100
46552 Off ch=14 n=43 v=64
46560 On ch=14 n=31 v=100
46792 Off ch=14 n=31 v=64
46800 On ch=14 n=43 v=100
47032 Off ch=14 n=43 v=64
47040 On ch=14 n=31 v=100
47272 Off ch=14 n=31 v=64
47280 On ch=14 n=43 v=100
47512 Off ch=14 n=43 v=64
47520 On ch=14 n=31 v=100
47752 Off ch=14 n=31 v=64
47760 On ch=14 n=43 v=100
47992 Off ch=14 n=43 v=64
48000 On ch=14 n=38 v=100
48232 Off ch=14 n=38 v=64
48240 On ch=14 n=50 v=100
48472 Off ch=14 n=50 v=64
48480 On ch=14 n=38 v=100
48712 Off ch=14 n=38 v=64
48720 On ch=14 n=50 v=100
48952 Off ch=14 n=50 v=64
48960 On ch=14 n=38 v=100
49190 Off ch=14 n=38 v=64
49200 On ch=14 n=50 v=100
49432 Off ch=14 n=50 v=64
49440 On ch=14 n=38 v=100
49672 Off ch=14 n=38 v=64
49680 On ch=14 n=50 v=100
49912 Off ch=14 n=50 v=64
49920 On ch=14 n=33 v=100
50152 Off ch=14 n=33 v=64
50160 On ch=14 n=45 v=100
50392 Off ch=14 n=45 v=64
50400 On ch=14 n=33 v=100
50632 Off ch=14 n=33 v=64
50640 On ch=14 n=45 v=100
50872 Off ch=14 n=45 v=64
50880 On ch=14 n=33 v=100
51112 Off ch=14 n=33 v=64
51120 On ch=14 n=45 v=100
51291 Off ch=14 n=45 v=64
51840 On ch=14 n=35 v=100
52072 Off ch=14 n=35 v=64
52080 On ch=14 n=47 v=100
52312 Off ch=14 n=47 v=64
52320 On ch=14 n=35 v=100
52552 Off ch=14 n=35 v=64
52560 On ch=14 n=47 v=100
52792 Off ch=14 n=47 v=64
52800 On ch=14 n=35 v=100
53032 Off ch=14 n=35 v=64
53040 On ch=14 n=47 v=100
53272 Off ch=14 n=47 v=64
53280 On ch=14 n=35 v=100
53512 Off ch=14 n=35 v=64
53520 On ch=14 n=47 v=100
53752 Off ch=14 n=47 v=64
53760 On ch=14 n=31 v=100
53992 Off ch=14 n=31 v=64
54000 On ch=14 n=43 v=100
54232 Off ch=14 n=43 v=64
54240 On ch=14 n=31 v=100
54472 Off ch=14 n=31 v=64
54480 On ch=14 n=43 v=100
54712 Off ch=14 n=43 v=64
54720 On ch=14 n=31 v=100
54952 Off ch=14 n=31 v=64
54960 On ch=14 n=43 v=100
55192 Off ch=14 n=43 v=64
55200 On ch=14 n=31 v=100
55432 Off ch=14 n=31 v=64
55440 On ch=14 n=43 v=100
55672 Off ch=14 n=43 v=64
55680 On ch=14 n=38 v=100
55912 Off ch=14 n=38 v=64
55920 On ch=14 n=50 v=100
56152 Off ch=14 n=50 v=64
56160 On ch=14 n=38 v=100
56392 Off ch=14 n=38 v=64
56400 On ch=14 n=50 v=100
56632 Off ch=14 n=50 v=64
56640 On ch=14 n=38 v=100
56872 Off ch=14 n=38 v=64
56880 On ch=14 n=50 v=100
57112 Off ch=14 n=50 v=64
57120 On ch=14 n=38 v=100
57352 Off ch=14 n=38 v=64
57360 On ch=14 n=50 v=100
57592 Off ch=14 n=50 v=64
57600 On ch=14 n=33 v=100
57832 Off ch=14 n=33 v=64
57840 On ch=14 n=45 v=100
58072 Off ch=14 n=45 v=64
58080 On ch=14 n=33 v=100
58312 Off ch=14 n=33 v=64
58320 On ch=14 n=45 v=100
58552 Off ch=14 n=45 v=64
58560 On ch=14 n=33 v=100
58792 Off ch=14 n=33 v=64
58800 On ch=14 n=45 v=100
59032 Off ch=14 n=45 v=64
59040 On ch=14 n=33 v=100
59272 Off ch=14 n=33 v=64
59280 On ch=14 n=45 v=100
59512 Off ch=14 n=45 v=64
59520 On ch=14 n=35 v=100
59752 Off ch=14 n=35 v=64
59760 On ch=14 n=47 v=100
59992 Off ch=14 n=47 v=64
60000 On ch=14 n=35 v=100
60232 Off ch=14 n=35 v=64
60240 On ch=14 n=47 v=100
60472 Off ch=14 n=47 v=64
60480 On ch=14 n=35 v=100
60712 Off ch=14 n=35 v=64
60720 On ch=14 n=47 v=100
60952 Off ch=14 n=47 v=64
60960 On ch=14 n=35 v=100
61192 Off ch=14 n=35 v=64
61200 On ch=14 n=47 v=100
61432 Off ch=14 n=47 v=64
63360 On ch=14 n=38 v=100
63592 Off ch=14 n=38 v=64
63600 On ch=14 n=50 v=100
63832 Off ch=14 n=50 v=64
63840 On ch=14 n=38 v=100
64072 Off ch=14 n=38 v=64
64080 On ch=14 n=50 v=100
64312 Off ch=14 n=50 v=64
64320 On ch=14 n=38 v=100
64552 Off ch=14 n=38 v=64
64560 On ch=14 n=50 v=100
64792 Off ch=14 n=50 v=64
64800 On ch=14 n=38 v=100
65032 Off ch=14 n=38 v=64
65040 On ch=14 n=50 v=100
65272 Off ch=14 n=50 v=64
65280 On ch=14 n=33 v=100
65512 Off ch=14 n=33 v=64
69120 On ch=14 n=31 v=100
69352 Off ch=14 n=31 v=64
69360 On ch=14 n=43 v=100
69592 Off ch=14 n=43 v=64
69600 On ch=14 n=31 v=100
69832 Off ch=14 n=31 v=64
69840 On ch=14 n=43 v=100
70072 Off ch=14 n=43 v=64
70080 On ch=14 n=31 v=100
70312 Off ch=14 n=31 v=64
70320 On ch=14 n=43 v=100
70552 Off ch=14 n=43 v=64
70560 On ch=14 n=31 v=100
70792 Off ch=14 n=31 v=64
70800 On ch=14 n=43 v=100
71032 Off ch=14 n=43 v=64
71040 On ch=14 n=38 v=100
71272 Off ch=14 n=38 v=64
71280 On ch=14 n=50 v=100
71512 Off ch=14 n=50 v=64
71520 On ch=14 n=38 v=100
71752 Off ch=14 n=38 v=64
71760 On ch=14 n=50 v=100
71992 Off ch=14 n=50 v=64
72000 On ch=14 n=38 v=100
72232 Off ch=14 n=38 v=64
72240 On ch=14 n=50 v=100
72472 Off ch=14 n=50 v=64
72480 On ch=14 n=38 v=100
72712 Off ch=14 n=38 v=64
72720 On ch=14 n=50 v=100
72952 Off ch=14 n=50 v=64
72960 On ch=14 n=33 v=100
73192 Off ch=14 n=33 v=64
73200 On ch=14 n=45 v=100
73432 Off ch=14 n=45 v=64
73440 On ch=14 n=33 v=100
73672 Off ch=14 n=33 v=64
73680 On ch=14 n=45 v=100
73912 Off ch=14 n=45 v=64
73920 On ch=14 n=33 v=100
74152 Off ch=14 n=33 v=64
74160 On ch=14 n=45 v=100
74392 Off ch=14 n=45 v=64
74400 On ch=14 n=33 v=100
74632 Off ch=14 n=33 v=64
74640 On ch=14 n=45 v=100
74872 Off ch=14 n=45 v=64
74880 On ch=14 n=35 v=100
75112 Off ch=14 n=35 v=64
75120 On ch=14 n=47 v=100
75352 Off ch=14 n=47 v=64
75360 On ch=14 n=35 v=100
75592 Off ch=14 n=35 v=64
75600 On ch=14 n=47 v=100
75832 Off ch=14 n=47 v=64
75840 On ch=14 n=35 v=100
76072 Off ch=14 n=35 v=64
76080 On ch=14 n=47 v=100
76312 Off ch=14 n=47 v=64
76320 On ch=14 n=35 v=100
76552 Off ch=14 n=35 v=64
76560 On ch=14 n=47 v=100
76792 Off ch=14 n=47 v=64
76800 On ch=14 n=31 v=100
77032 Off ch=14 n=31 v=64
77040 On ch=14 n=43 v=100
77272 Off ch=14 n=43 v=64
77280 On ch=14 n=31 v=100
77512 Off ch=14 n=31 v=64
77520 On ch=14 n=43 v=100
77752 Off ch=14 n=43 v=64
77760 On ch=14 n=31 v=100
77992 Off ch=14 n=31 v=64
78000 On ch=14 n=43 v=100
78232 Off ch=14 n=43 v=64
78240 On ch=14 n=31 v=100
78472 Off ch=14 n=31 v=64
78480 On ch=14 n=43 v=100
78712 Off ch=14 n=43 v=64
78720 On ch=14 n=38 v=100
78952 Off ch=14 n=38 v=64
78960 On ch=14 n=50 v=100
79192 Off ch=14 n=50 v=64
79200 On ch=14 n=38 v=100
79432 Off ch=14 n=38 v=64
79440 On ch=14 n=50 v=100
79672 Off ch=14 n=50 v=64
79680 On ch=14 n=38 v=100
79912 Off ch=14 n=38 v=64
79920 On ch=14 n=50 v=100
80152 Off ch=14 n=50 v=64
80160 On ch=14 n=38 v=100
80392 Off ch=14 n=38 v=64
80400 On ch=14 n=50 v=100
80632 Off ch=14 n=50 v=64
80640 On ch=14 n=33 v=100
80872 Off ch=14 n=33 v=64
80880 On ch=14 n=45 v=100
81112 Off ch=14 n=45 v=64
81120 On ch=14 n=33 v=100
81352 Off ch=14 n=33 v=64
81360 On ch=14 n=45 v=100
81592 Off ch=14 n=45 v=64
81600 On ch=14 n=33 v=100
81832 Off ch=14 n=33 v=64
81840 On ch=14 n=45 v=100
82072 Off ch=14 n=45 v=64
82080 On ch=14 n=33 v=100
82312 Off ch=14 n=33 v=64
82320 On ch=14 n=45 v=100
82552 Off ch=14 n=45 v=64
82560 On ch=14 n=35 v=100
82792 Off ch=14 n=35 v=64
82800 On ch=14 n=47 v=100
83032 Off ch=14 n=47 v=64
83040 On ch=14 n=35 v=100
83272 Off ch=14 n=35 v=64
83280 On ch=14 n=47 v=100
83512 Off ch=14 n=47 v=64
83520 On ch=14 n=35 v=100
83752 Off ch=14 n=35 v=64
83760 On ch=14 n=47 v=100
83992 Off ch=14 n=47 v=64
84000 On ch=14 n=35 v=100
84232 Off ch=14 n=35 v=64
84240 On ch=14 n=47 v=100
84472 Off ch=14 n=47 v=64
84480 On ch=14 n=31 v=100
84712 Off ch=14 n=31 v=64
84720 On ch=14 n=43 v=100
84952 Off ch=14 n=43 v=64
84960 On ch=14 n=31 v=100
85192 Off ch=14 n=31 v=64
85200 On ch=14 n=43 v=100
85432 Off ch=14 n=43 v=64
85440 On ch=14 n=31 v=100
85672 Off ch=14 n=31 v=64
85680 On ch=14 n=43 v=100
85912 Off ch=14 n=43 v=64
85920 On ch=14 n=31 v=100
86152 Off ch=14 n=31 v=64
86160 On ch=14 n=43 v=100
86392 Off ch=14 n=43 v=64
86400 On ch=14 n=38 v=100
86632 Off ch=14 n=38 v=64
86640 On ch=14 n=50 v=100
86872 Off ch=14 n=50 v=64
86880 On ch=14 n=38 v=100
87112 Off ch=14 n=38 v=64
87120 On ch=14 n=50 v=100
87352 Off ch=14 n=50 v=64
87360 On ch=14 n=38 v=100
87592 Off ch=14 n=38 v=64
87600 On ch=14 n=50 v=100
87832 Off ch=14 n=50 v=64
87840 On ch=14 n=38 v=100
88072 Off ch=14 n=38 v=64
88080 On ch=14 n=50 v=100
88312 Off ch=14 n=50 v=64
88320 On ch=14 n=33 v=100
88552 Off ch=14 n=33 v=64
88560 On ch=14 n=45 v=100
88792 Off ch=14 n=45 v=64
88800 On ch=14 n=33 v=100
89032 Off ch=14 n=33 v=64
89040 On ch=14 n=45 v=100
89272 Off ch=14 n=45 v=64
89280 On ch=14 n=33 v=100
89512 Off ch=14 n=33 v=64
89520 On ch=14 n=45 v=100
89752 Off ch=14 n=45 v=64
89760 On ch=14 n=33 v=100
89992 Off ch=14 n=33 v=64
90000 On ch=14 n=45 v=100
90232 Off ch=14 n=45 v=64
90240 On ch=14 n=35 v=100
90472 Off ch=14 n=35 v=64
90480 On ch=14 n=47 v=100
90712 Off ch=14 n=47 v=64
90720 On ch=14 n=35 v=100
90952 Off ch=14 n=35 v=64
90960 On ch=14 n=47 v=100
91192 Off ch=14 n=47 v=64
91200 On ch=14 n=35 v=100
91432 Off ch=14 n=35 v=64
91440 On ch=14 n=47 v=100
91672 Off ch=14 n=47 v=64
91680 On ch=14 n=35 v=100
91912 Off ch=14 n=35 v=64
91920 On ch=14 n=47 v=100
92152 Off ch=14 n=47 v=64
92160 On ch=14 n=31 v=100
92392 Off ch=14 n=31 v=64
92400 On ch=14 n=43 v=100
92632 Off ch=14 n=43 v=64
92640 On ch=14 n=31 v=100
92872 Off ch=14 n=31 v=64
92880 On ch=14 n=43 v=100
93112 Off ch=14 n=43 v=64
93120 On ch=14 n=31 v=100
93352 Off ch=14 n=31 v=64
93360 On ch=14 n=43 v=100
93592 Off ch=14 n=43 v=64
93600 On ch=14 n=31 v=100
93832 Off ch=14 n=31 v=64
93840 On ch=14 n=43 v=100
94072 Off ch=14 n=43 v=64
94080 On ch=14 n=38 v=100
94312 Off ch=14 n=38 v=64
94320 On ch=14 n=50 v=100
94552 Off ch=14 n=50 v=64
94560 On ch=14 n=38 v=100
94792 Off ch=14 n=38 v=64
94800 On ch=14 n=50 v=100
95032 Off ch=14 n=50 v=64
95040 On ch=14 n=38 v=100
95272 Off ch=14 n=38 v=64
95280 On ch=14 n=50 v=100
95512 Off ch=14 n=50 v=64
95520 On ch=14 n=38 v=100
95752 Off ch=14 n=38 v=64
95760 On ch=14 n=50 v=100
95992 Off ch=14 n=50 v=64
96000 On ch=14 n=33 v=100
96232 Off ch=14 n=33 v=64
96240 On ch=14 n=45 v=100
96472 Off ch=14 n=45 v=64
96480 On ch=14 n=33 v=100
96712 Off ch=14 n=33 v=64
96720 On ch=14 n=45 v=100
96952 Off ch=14 n=45 v=64
96960 On ch=14 n=33 v=100
97192 Off ch=14 n=33 v=64
97200 On ch=14 n=45 v=100
97432 Off ch=14 n=45 v=64
97440 On ch=14 n=33 v=100
97672 Off ch=14 n=33 v=64
97680 On ch=14 n=45 v=100
97912 Off ch=14 n=45 v=64
111360 On ch=14 n=33 v=100
111592 Off ch=14 n=33 v=64
111600 On ch=14 n=45 v=100
111832 Off ch=14 n=45 v=64
111840 On ch=14 n=33 v=100
112072 Off ch=14 n=33 v=64
112080 On ch=14 n=45 v=100
112312 Off ch=14 n=45 v=64
112320 On ch=14 n=33 v=100
112552 Off ch=14 n=33 v=64
112560 On ch=14 n=45 v=100
112792 Off ch=14 n=45 v=64
112800 On ch=14 n=33 v=100
113032 Off ch=14 n=33 v=64
113040 On ch=14 n=45 v=100
113272 Off ch=14 n=45 v=64
113280 On ch=14 n=35 v=100
113512 Off ch=14 n=35 v=64
113520 On ch=14 n=47 v=100
113752 Off ch=14 n=47 v=64
113760 On ch=14 n=35 v=100
113992 Off ch=14 n=35 v=64
114000 On ch=14 n=47 v=100
114232 Off ch=14 n=47 v=64
114240 On ch=14 n=35 v=100
114472 Off ch=14 n=35 v=64
114480 On ch=14 n=47 v=100
114712 Off ch=14 n=47 v=64
114720 On ch=14 n=35 v=100
114934 Off ch=14 n=35 v=64
114960 On ch=14 n=47 v=100
115133 Off ch=14 n=47 v=64
115200 On ch=14 n=31 v=100
115432 Off ch=14 n=31 v=64
115440 On ch=14 n=43 v=100
115545 Off ch=14 n=43 v=64
115680 On ch=14 n=31 v=100
115912 Off ch=14 n=31 v=64
115920 On ch=14 n=43 v=100
116152 Off ch=14 n=43 v=64
116160 On ch=14 n=31 v=100
116363 Off ch=14 n=31 v=64
116640 On ch=14 n=31 v=100
116924 Off ch=14 n=31 v=64
117120 On ch=14 n=38 v=100
117352 Off ch=14 n=38 v=64
117360 On ch=14 n=50 v=100
117592 Off ch=14 n=50 v=64
117600 On ch=14 n=38 v=100
117832 Off ch=14 n=38 v=64
117840 On ch=14 n=50 v=100
118072 Off ch=14 n=50 v=64
120960 On ch=14 n=35 v=100
121192 Off ch=14 n=35 v=64
121200 On ch=14 n=47 v=100
121432 Off ch=14 n=47 v=64
121440 On ch=14 n=35 v=100
121672 Off ch=14 n=35 v=64
121680 On ch=14 n=47 v=100
121912 Off ch=14 n=47 v=64
121920 On ch=14 n=35 v=100
122152 Off ch=14 n=35 v=64
122160 On ch=14 n=47 v=100
122392 Off ch=14 n=47 v=64
122400 On ch=14 n=35 v=100
122614 Off ch=14 n=35 v=64
122640 On ch=14 n=47 v=100
122813 Off ch=14 n=47 v=64
122880 On ch=14 n=31 v=100
123112 Off ch=14 n=31 v=64
123120 On ch=14 n=43 v=100
123352 Off ch=14 n=43 v=64
123360 On ch=14 n=31 v=100
123592 Off ch=14 n=31 v=64
123600 On ch=14 n=43 v=100
123832 Off ch=14 n=43 v=64
123840 On ch=14 n=31 v=100
124072 Off ch=14 n=31 v=64
124080 On ch=14 n=43 v=100
124312 Off ch=14 n=43 v=64
124320 On ch=14 n=31 v=100
124552 Off ch=14 n=31 v=64
124560 On ch=14 n=43 v=100
124792 Off ch=14 n=43 v=64
124800 On ch=14 n=38 v=100
125032 Off ch=14 n=38 v=64
125040 On ch=14 n=50 v=100
125272 Off ch=14 n=50 v=64
125280 On ch=14 n=38 v=100
125512 Off ch=14 n=38 v=64
125520 On ch=14 n=50 v=100
125752 Off ch=14 n=50 v=64
125760 On ch=14 n=38 v=100
125990 Off ch=14 n=38 v=64
126000 On ch=14 n=50 v=100
126232 Off ch=14 n=50 v=64
126240 On ch=14 n=38 v=100
126472 Off ch=14 n=38 v=64
126480 On ch=14 n=50 v=100
126712 Off ch=14 n=50 v=64
126720 On ch=14 n=33 v=100
126910 Off ch=14 n=33 v=64
130560 On ch=14 n=31 v=100
130792 Off ch=14 n=31 v=64
130800 On ch=14 n=43 v=100
131032 Off ch=14 n=43 v=64
131040 On ch=14 n=31 v=100
131272 Off ch=14 n=31 v=64
131280 On ch=14 n=43 v=100
131512 Off ch=14 n=43 v=64
131520 On ch=14 n=31 v=100
131752 Off ch=14 n=31 v=64
131760 On ch=14 n=43 v=100
131992 Off ch=14 n=43 v=64
132000 On ch=14 n=31 v=100
132232 Off ch=14 n=31 v=64
132240 On ch=14 n=43 v=100
132472 Off ch=14 n=43 v=64
132480 On ch=14 n=38 v=100
132712 Off ch=14 n=38 v=64
132720 On ch=14 n=50 v=100
132952 Off ch=14 n=50 v=64
132960 On ch=14 n=38 v=100
133192 Off ch=14 n=38 v=64
133200 On ch=14 n=50 v=100
133432 Off ch=14 n=50 v=64
133440 On ch=14 n=38 v=100
133672 Off ch=14 n=38 v=64
133680 On ch=14 n=50 v=100
133912 Off ch=14 n=50 v=64
133920 On ch=14 n=38 v=100
134152 Off ch=14 n=38 v=64
134160 On ch=14 n=50 v=100
134392 Off ch=14 n=50 v=64
134400 On ch=14 n=33 v=100
134632 Off ch=14 n=33 v=64
134640 On ch=14 n=45 v=100
134872 Off ch=14 n=45 v=64
134880 On ch=14 n=33 v=100
135112 Off ch=14 n=33 v=64
135120 On ch=14 n=45 v=100
135352 Off ch=14 n=45 v=64
135360 On ch=14 n=33 v=100
135592 Off ch=14 n=33 v=64
135600 On ch=14 n=45 v=100
135832 Off ch=14 n=45 v=64
135840 On ch=14 n=33 v=100
136072 Off ch=14 n=33 v=64
136080 On ch=14 n=45 v=100
136312 Off ch=14 n=45 v=64
136320 On ch=14 n=35 v=100
136552 Off ch=14 n=35 v=64
136560 On ch=14 n=47 v=100
136792 Off ch=14 n=47 v=64
136800 On ch=14 n=35 v=100
137032 Off ch=14 n=35 v=64
137040 On ch=14 n=47 v=100
137272 Off ch=14 n=47 v=64
137280 On ch=14 n=35 v=100
137512 Off ch=14 n=35 v=64
137520 On ch=14 n=47 v=100
137752 Off ch=14 n=47 v=64
137760 On ch=14 n=35 v=100
137992 Off ch=14 n=35 v=64
138000 On ch=14 n=47 v=100
138232 Off ch=14 n=47 v=64
138240 On ch=14 n=31 v=100
138472 Off ch=14 n=31 v=64
138480 On ch=14 n=43 v=100
138712 Off ch=14 n=43 v=64
138720 On ch=14 n=31 v=100
138952 Off ch=14 n=31 v=64
138960 On ch=14 n=43 v=100
139192 Off ch=14 n=43 v=64
139200 On ch=14 n=31 v=100
139432 Off ch=14 n=31 v=64
139440 On ch=14 n=43 v=100
139672 Off ch=14 n=43 v=64
139680 On ch=14 n=31 v=100
139912 Off ch=14 n=31 v=64
139920 On ch=14 n=43 v=100
140152 Off ch=14 n=43 v=64
140160 On ch=14 n=38 v=100
140392 Off ch=14 n=38 v=64
140400 On ch=14 n=50 v=100
140632 Off ch=14 n=50 v=64
140640 On ch=14 n=38 v=100
140872 Off ch=14 n=38 v=64
140880 On ch=14 n=50 v=100
141112 Off ch=14 n=50 v=64
141120 On ch=14 n=38 v=100
141352 Off ch=14 n=38 v=64
141360 On ch=14 n=50 v=100
141592 Off ch=14 n=50 v=64
141600 On ch=14 n=38 v=100
141832 Off ch=14 n=38 v=64
141840 On ch=14 n=50 v=100
142072 Off ch=14 n=50 v=64
142080 On ch=14 n=33 v=100
142312 Off ch=14 n=33 v=64
142320 On ch=14 n=45 v=100
142552 Off ch=14 n=45 v=64
142560 On ch=14 n=33 v=100
142792 Off ch=14 n=33 v=64
142800 On ch=14 n=45 v=100
143032 Off ch=14 n=45 v=64
143040 On ch=14 n=33 v=100
143272 Off ch=14 n=33 v=64
143280 On ch=14 n=45 v=100
143512 Off ch=14 n=45 v=64
143520 On ch=14 n=33 v=100
143752 Off ch=14 n=33 v=64
143760 On ch=14 n=45 v=100
143992 Off ch=14 n=45 v=64
144000 On ch=14 n=35 v=100
144232 Off ch=14 n=35 v=64
144240 On ch=14 n=47 v=100
144472 Off ch=14 n=47 v=64
144480 On ch=14 n=35 v=100
144712 Off ch=14 n=35 v=64
144720 On ch=14 n=47 v=100
144952 Off ch=14 n=47 v=64
144960 On ch=14 n=35 v=100
145192 Off ch=14 n=35 v=64
145200 On ch=14 n=47 v=100
145432 Off ch=14 n=47 v=64
145440 On ch=14 n=35 v=100
145672 Off ch=14 n=35 v=64
145680 On ch=14 n=47 v=100
145912 Off ch=14 n=47 v=64
145920 On ch=14 n=31 v=100
146152 Off ch=14 n=31 v=64
146160 On ch=14 n=43 v=100
146392 Off ch=14 n=43 v=64
146400 On ch=14 n=31 v=100
146632 Off ch=14 n=31 v=64
146640 On ch=14 n=43 v=100
146872 Off ch=14 n=43 v=64
146880 On ch=14 n=31 v=100
147112 Off ch=14 n=31 v=64
147120 On ch=14 n=43 v=100
147352 Off ch=14 n=43 v=64
147360 On ch=14 n=31 v=100
147592 Off ch=14 n=31 v=64
147600 On ch=14 n=43 v=100
147832 Off ch=14 n=43 v=64
147840 On ch=14 n=38 v=100
148072 Off ch=14 n=38 v=64
148080 On ch=14 n=50 v=100
148312 Off ch=14 n=50 v=64
148320 On ch=14 n=38 v=100
148552 Off ch=14 n=38 v=64
148560 On ch=14 n=50 v=100
148792 Off ch=14 n=50 v=64
148800 On ch=14 n=38 v=100
149032 Off ch=14 n=38 v=64
149040 On ch=14 n=50 v=100
149272 Off ch=14 n=50 v=64
149280 On ch=14 n=38 v=100
149512 Off ch=14 n=38 v=64
149520 On ch=14 n=50 v=100
149752 Off ch=14 n=50 v=64
149760 On ch=14 n=33 v=100
149992 Off ch=14 n=33 v=64
150000 On ch=14 n=45 v=100
150232 Off ch=14 n=45 v=64
150240 On ch=14 n=33 v=100
150472 Off ch=14 n=33 v=64
150480 On ch=14 n=45 v=100
150712 Off ch=14 n=45 v=64
150720 On ch=14 n=33 v=100
150952 Off ch=14 n=33 v=64
150960 On ch=14 n=45 v=100
151192 Off ch=14 n=45 v=64
151200 On ch=14 n=33 v=100
151432 Off ch=14 n=33 v=64
151440 On ch=14 n=45 v=100
151672 Off ch=14 n=45 v=64
151680 On ch=14 n=35 v=100
151912 Off ch=14 n=35 v=64
151920 On ch=14 n=47 v=100
152152 Off ch=14 n=47 v=64
152160 On ch=14 n=35 v=100
152392 Off ch=14 n=35 v=64
152400 On ch=14 n=47 v=100
152632 Off ch=14 n=47 v=64
152640 On ch=14 n=35 v=100
152872 Off ch=14 n=35 v=64
152880 On ch=14 n=47 v=100
153112 Off ch=14 n=47 v=64
153120 On ch=14 n=35 v=100
153352 Off ch=14 n=35 v=64
153360 On ch=14 n=47 v=100
153592 Off ch=14 n=47 v=64
153600 On ch=14 n=31 v=100
153832 Off ch=14 n=31 v=64
153840 On ch=14 n=43 v=100
154072 Off ch=14 n=43 v=64
154080 On ch=14 n=31 v=100
154312 Off ch=14 n=31 v=64
154320 On ch=14 n=43 v=100
154552 Off ch=14 n=43 v=64
154560 On ch=14 n=31 v=100
154792 Off ch=14 n=31 v=64
154800 On ch=14 n=43 v=100
155032 Off ch=14 n=43 v=64
155040 On ch=14 n=31 v=100
155272 Off ch=14 n=31 v=64
155280 On ch=14 n=43 v=100
155512 Off ch=14 n=43 v=64
155520 On ch=14 n=38 v=100
155752 Off ch=14 n=38 v=64
155760 On ch=14 n=50 v=100
155992 Off ch=14 n=50 v=64
156000 On ch=14 n=38 v=100
156232 Off ch=14 n=38 v=64
156240 On ch=14 n=50 v=100
156472 Off ch=14 n=50 v=64
156480 On ch=14 n=38 v=100
156712 Off ch=14 n=38 v=64
156720 On ch=14 n=50 v=100
156952 Off ch=14 n=50 v=64
156960 On ch=14 n=38 v=100
157192 Off ch=14 n=38 v=64
157200 On ch=14 n=50 v=100
157432 Off ch=14 n=50 v=64
157440 On ch=14 n=33 v=100
157672 Off ch=14 n=33 v=64
157680 On ch=14 n=45 v=100
157912 Off ch=14 n=45 v=64
157920 On ch=14 n=33 v=100
158152 Off ch=14 n=33 v=64
158160 On ch=14 n=45 v=100
158392 Off ch=14 n=45 v=64
158400 On ch=14 n=33 v=100
158632 Off ch=14 n=33 v=64
158640 On ch=14 n=45 v=100
158872 Off ch=14 n=45 v=64
158880 On ch=14 n=33 v=100
159112 Off ch=14 n=33 v=64
159120 On ch=14 n=45 v=100
159352 Off ch=14 n=45 v=64
176640 On ch=14 n=31 v=100
176872 Off ch=14 n=31 v=64
176880 On ch=14 n=43 v=100
177112 Off ch=14 n=43 v=64
177120 On ch=14 n=31 v=100
177352 Off ch=14 n=31 v=64
177360 On ch=14 n=43 v=100
177592 Off ch=14 n=43 v=64
177600 On ch=14 n=31 v=100
177832 Off ch=14 n=31 v=64
177840 On ch=14 n=43 v=100
178072 Off ch=14 n=43 v=64
178080 On ch=14 n=31 v=100
178312 Off ch=14 n=31 v=64
178320 On ch=14 n=43 v=100
178552 Off ch=14 n=43 v=64
178560 On ch=14 n=38 v=100
178792 Off ch=14 n=38 v=64
178800 On ch=14 n=50 v=100
179032 Off ch=14 n=50 v=64
179040 On ch=14 n=38 v=100
179272 Off ch=14 n=38 v=64
179280 On ch=14 n=50 v=100
179512 Off ch=14 n=50 v=64
179520 On ch=14 n=38 v=100
179752 Off ch=14 n=38 v=64
179760 On ch=14 n=50 v=100
179992 Off ch=14 n=50 v=64
180000 On ch=14 n=38 v=100
180232 Off ch=14 n=38 v=64
180240 On ch=14 n=50 v=100
180472 Off ch=14 n=50 v=64
180480 On ch=14 n=33 v=100
180712 Off ch=14 n=33 v=64
180720 On ch=14 n=45 v=100
180952 Off ch=14 n=45 v=64
180960 On ch=14 n=33 v=100
181192 Off ch=14 n=33 v=64
181200 On ch=14 n=45 v=100
181432 Off ch=14 n=45 v=64
181440 On ch=14 n=33 v=100
181672 Off ch=14 n=33 v=64
181680 On ch=14 n=45 v=100
181912 Off ch=14 n=45 v=64
181920 On ch=14 n=33 v=100
182152 Off ch=14 n=33 v=64
182160 On ch=14 n=45 v=100
182392 Off ch=14 n=45 v=64
182400 On ch=14 n=35 v=100
182632 Off ch=14 n=35 v=64
182640 On ch=14 n=47 v=100
182872 Off ch=14 n=47 v=64
182880 On ch=14 n=35 v=100
183112 Off ch=14 n=35 v=64
183120 On ch=14 n=47 v=100
183352 Off ch=14 n=47 v=64
183360 On ch=14 n=35 v=100
183592 Off ch=14 n=35 v=64
183600 On ch=14 n=47 v=100
183832 Off ch=14 n=47 v=64
183840 On ch=14 n=35 v=100
184072 Off ch=14 n=35 v=64
184080 On ch=14 n=47 v=100
184312 Off ch=14 n=47 v=64
184320 On ch=14 n=31 v=100
184552 Off ch=14 n=31 v=64
184560 On ch=14 n=43 v=100
184792 Off ch=14 n=43 v=64
184800 On ch=14 n=31 v=100
185032 Off ch=14 n=31 v=64
185040 On ch=14 n=43 v=100
185272 Off ch=14 n=43 v=64
185280 On ch=14 n=31 v=100
185512 Off ch=14 n=31 v=64
185520 On ch=14 n=43 v=100
185752 Off ch=14 n=43 v=64
185760 On ch=14 n=31 v=100
185992 Off ch=14 n=31 v=64
186000 On ch=14 n=43 v=100
186232 Off ch=14 n=43 v=64
186240 On ch=14 n=38 v=100
186472 Off ch=14 n=38 v=64
186480 On ch=14 n=50 v=100
186712 Off ch=14 n=50 v=64
186720 On ch=14 n=38 v=100
186952 Off ch=14 n=38 v=64
186960 On ch=14 n=50 v=100
187192 Off ch=14 n=50 v=64
187200 On ch=14 n=38 v=100
187432 Off ch=14 n=38 v=64
187440 On ch=14 n=50 v=100
187672 Off ch=14 n=50 v=64
187680 On ch=14 n=38 v=100
187912 Off ch=14 n=38 v=64
187920 On ch=14 n=50 v=100
188152 Off ch=14 n=50 v=64
188160 On ch=14 n=33 v=100
188392 Off ch=14 n=33 v=64
188400 On ch=14 n=45 v=100
188632 Off ch=14 n=45 v=64
188640 On ch=14 n=33 v=100
188872 Off ch=14 n=33 v=64
188880 On ch=14 n=45 v=100
189112 Off ch=14 n=45 v=64
189120 On ch=14 n=33 v=100
189352 Off ch=14 n=33 v=64
189360 On ch=14 n=45 v=100
189592 Off ch=14 n=45 v=64
189600 On ch=14 n=33 v=100
189832 Off ch=14 n=33 v=64
189840 On ch=14 n=45 v=100
190072 Off ch=14 n=45 v=64
192000 On ch=14 n=31 v=100
192232 Off ch=14 n=31 v=64
192240 On ch=14 n=43 v=100
192472 Off ch=14 n=43 v=64
192480 On ch=14 n=31 v=100
192712 Off ch=14 n=31 v=64
192720 On ch=14 n=43 v=100
192952 Off ch=14 n=43 v=64
192960 On ch=14 n=31 v=100
193192 Off ch=14 n=31 v=64
193200 On ch=14 n=43 v=100
193432 Off ch=14 n=43 v=64
193440 On ch=14 n=31 v=100
193672 Off ch=14 n=31 v=64
193680 On ch=14 n=43 v=100
193912 Off ch=14 n=43 v=64
193920 On ch=14 n=38 v=100
194152 Off ch=14 n=38 v=64
194160 On ch=14 n=50 v=100
194392 Off ch=14 n=50 v=64
194400 On ch=14 n=38 v=100
194632 Off ch=14 n=38 v=64
194640 On ch=14 n=50 v=100
194872 Off ch=14 n=50 v=64
194880 On ch=14 n=38 v=100
195112 Off ch=14 n=38 v=64
195120 On ch=14 n=50 v=100
195352 Off ch=14 n=50 v=64
195360 On ch=14 n=38 v=100
195592 Off ch=14 n=38 v=64
195600 On ch=14 n=50 v=100
195832 Off ch=14 n=50 v=64
195840 On ch=14 n=33 v=100
196072 Off ch=14 n=33 v=64
196080 On ch=14 n=45 v=100
196312 Off ch=14 n=45 v=64
196320 On ch=14 n=33 v=100
196552 Off ch=14 n=33 v=64
196560 On ch=14 n=45 v=100
196792 Off ch=14 n=45 v=64
196800 On ch=14 n=33 v=100
197032 Off ch=14 n=33 v=64
197040 On ch=14 n=45 v=100
197272 Off ch=14 n=45 v=64
197280 On ch=14 n=33 v=100
197512 Off ch=14 n=33 v=64
197520 On ch=14 n=45 v=100
197752 Off ch=14 n=45 v=64
197760 On ch=14 n=35 v=100
197992 Off ch=14 n=35 v=64
198000 On ch=14 n=47 v=100
198232 Off ch=14 n=47 v=64
198240 On ch=14 n=35 v=100
198472 Off ch=14 n=35 v=64
198480 On ch=14 n=47 v=100
198712 Off ch=14 n=47 v=64
198720 On ch=14 n=35 v=100
198952 Off ch=14 n=35 v=64
198960 On ch=14 n=47 v=100
199192 Off ch=14 n=47 v=64
199200 On ch=14 n=35 v=100
199432 Off ch=14 n=35 v=64
199440 On ch=14 n=47 v=100
199672 Off ch=14 n=47 v=64
199680 On ch=14 n=31 v=100
199912 Off ch=14 n=31 v=64
199920 On ch=14 n=43 v=100
200152 Off ch=14 n=43 v=64
200160 On ch=14 n=31 v=100
200392 Off ch=14 n=31 v=64
200400 On ch=14 n=43 v=100
200632 Off ch=14 n=43 v=64
200640 On ch=14 n=31 v=100
200872 Off ch=14 n=31 v=64
200880 On ch=14 n=43 v=100
201112 Off ch=14 n=43 v=64
201120 On ch=14 n=31 v=100
201352 Off ch=14 n=31 v=64
201360 On ch=14 n=43 v=100
201592 Off ch=14 n=43 v=64
201600 On ch=14 n=38 v=100
201832 Off ch=14 n=38 v=64
201840 On ch=14 n=50 v=100
202072 Off ch=14 n=50 v=64
202080 On ch=14 n=38 v=100
202312 Off ch=14 n=38 v=64
202320 On ch=14 n=50 v=100
202552 Off ch=14 n=50 v=64
202560 On ch=14 n=38 v=100
202792 Off ch=14 n=38 v=64
202800 On ch=14 n=50 v=100
203032 Off ch=14 n=50 v=64
203040 On ch=14 n=38 v=100
203272 Off ch=14 n=38 v=64
203280 On ch=14 n=50 v=100
203512 Off ch=14 n=50 v=64
203520 On ch=14 n=33 v=100
203752 Off ch=14 n=33 v=64
203760 On ch=14 n=45 v=100
203992 Off ch=14 n=45 v=64
204000 On ch=14 n=33 v=100
204232 Off ch=14 n=33 v=64
204240 On ch=14 n=45 v=100
204472 Off ch=14 n=45 v=64
204480 On ch=14 n=33 v=100
204712 Off ch=14 n=33 v=64
204720 On ch=14 n=45 v=100
204952 Off ch=14 n=45 v=64
204960 On ch=14 n=33 v=100
205192 Off ch=14 n=33 v=64
205200 On ch=14 n=45 v=100
205432 Off ch=14 n=45 v=64
205440 On ch=14 n=35 v=100
205672 Off ch=14 n=35 v=64
205680 On ch=14 n=47 v=100
205912 Off ch=14 n=47 v=64
205920 On ch=14 n=35 v=100
206152 Off ch=14 n=35 v=64
206160 On ch=14 n=47 v=100
206392 Off ch=14 n=47 v=64
206400 On ch=14 n=35 v=100
206632 Off ch=14 n=35 v=64
206640 On ch=14 n=47 v=100
206872 Off ch=14 n=47 v=64
206880 On ch=14 n=35 v=100
207112 Off ch=14 n=35 v=64
207120 On ch=14 n=47 v=100
207352 Off ch=14 n=47 v=64
207360 On ch=14 n=31 v=100
207592 Off ch=14 n=31 v=64
207600 On ch=14 n=43 v=100
207832 Off ch=14 n=43 v=64
207840 On ch=14 n=31 v=100
208072 Off ch=14 n=31 v=64
208080 On ch=14 n=43 v=100
208312 Off ch=14 n=43 v=64
208320 On ch=14 n=31 v=100
208552 Off ch=14 n=31 v=64
208560 On ch=14 n=43 v=100
208792 Off ch=14 n=43 v=64
208800 On ch=14 n=31 v=100
209032 Off ch=14 n=31 v=64
209040 On ch=14 n=43 v=100
209272 Off ch=14 n=43 v=64
209280 On ch=14 n=38 v=100
209512 Off ch=14 n=38 v=64
209520 On ch=14 n=50 v=100
209752 Off ch=14 n=50 v=64
209760 On ch=14 n=38 v=100
209992 Off ch=14 n=38 v=64
210000 On ch=14 n=50 v=100
210232 Off ch=14 n=50 v=64
210240 On ch=14 n=38 v=100
210472 Off ch=14 n=38 v=64
210480 On ch=14 n=50 v=100
210712 Off ch=14 n=50 v=64
210720 On ch=14 n=38 v=100
210952 Off ch=14 n=38 v=64
210960 On ch=14 n=50 v=100
211192 Off ch=14 n=50 v=64
211200 On ch=14 n=33 v=100
211432 Off ch=14 n=33 v=64
211440 On ch=14 n=45 v=100
211672 Off ch=14 n=45 v=64
211680 On ch=14 n=33 v=100
211912 Off ch=14 n=33 v=64
211920 On ch=14 n=45 v=100
212152 Off ch=14 n=45 v=64
212160 On ch=14 n=33 v=100
212392 Off ch=14 n=33 v=64
212400 On ch=14 n=45 v=100
212632 Off ch=14 n=45 v=64
212640 On ch=14 n=33 v=100
212872 Off ch=14 n=33 v=64
212880 On ch=14 n=45 v=100
213112 Off ch=14 n=45 v=64
213120 On ch=14 n=35 v=100
213352 Off ch=14 n=35 v=64
213360 On ch=14 n=47 v=100
213592 Off ch=14 n=47 v=64
213600 On ch=14 n=35 v=100
213832 Off ch=14 n=35 v=64
213840 On ch=14 n=47 v=100
214072 Off ch=14 n=47 v=64
214080 On ch=14 n=35 v=100
214312 Off ch=14 n=35 v=64
214320 On ch=14 n=47 v=100
214552 Off ch=14 n=47 v=64
214560 On ch=14 n=35 v=100
214792 Off ch=14 n=35 v=64
214800 On ch=14 n=47 v=100
215032 Off ch=14 n=47 v=64
215040 On ch=14 n=31 v=100
215272 Off ch=14 n=31 v=64
215280 On ch=14 n=43 v=100
215512 Off ch=14 n=43 v=64
215520 On ch=14 n=31 v=100
215752 Off ch=14 n=31 v=64
215760 On ch=14 n=43 v=100
215992 Off ch=14 n=43 v=64
216000 On ch=14 n=31 v=100
216232 Off ch=14 n=31 v=64
216240 On ch=14 n=43 v=100
216472 Off ch=14 n=43 v=64
216480 On ch=14 n=31 v=100
216712 Off ch=14 n=31 v=64
216720 On ch=14 n=43 v=100
216952 Off ch=14 n=43 v=64
216960 On ch=14 n=38 v=100
217192 Off ch=14 n=38 v=64
217200 On ch=14 n=50 v=100
217432 Off ch=14 n=50 v=64
217440 On ch=14 n=38 v=100
217672 Off ch=14 n=38 v=64
217680 On ch=14 n=50 v=100
217912 Off ch=14 n=50 v=64
217920 On ch=14 n=38 v=100
218152 Off ch=14 n=38 v=64
218160 On ch=14 n=50 v=100
218392 Off ch=14 n=50 v=64
218400 On ch=14 n=38 v=100
218632 Off ch=14 n=38 v=64
218640 On ch=14 n=50 v=100
218872 Off ch=14 n=50 v=64
218880 On ch=14 n=33 v=100
219112 Off ch=14 n=33 v=64
219120 On ch=14 n=45 v=100
219352 Off ch=14 n=45 v=64
219360 On ch=14 n=33 v=100
219592 Off ch=14 n=33 v=64
219600 On ch=14 n=45 v=100
219832 Off ch=14 n=45 v=64
219840 On ch=14 n=33 v=100
220072 Off ch=14 n=33 v=64
220080 On ch=14 n=45 v=100
220312 Off ch=14 n=45 v=64
220320 On ch=14 n=33 v=100
220552 Off ch=14 n=33 v=64
220560 On ch=14 n=45 v=100
220792 Off ch=14 n=45 v=64
220792 Meta TrkEnd
TrkEnd
MTrk
0 SeqSpec 05 0f 09 00 40
0 SeqSpec 05 0f 06 47 65 6e 65 72 61 6c 20 4d 49 44 49
0 Meta TrkName "Track 15"
0 Meta 0x20 09
621 PrCh ch=10 p=0
631 Par ch=10 c=7 v=114
651 Par ch=10 c=11 v=127
661 Par ch=10 c=91 v=72
1912 On ch=10 n=42 v=64
1937 Off ch=10 n=42 v=0
2392 On ch=10 n=42 v=48
2417 Off ch=10 n=42 v=0
2872 On ch=10 n=42 v=50
2897 Off ch=10 n=42 v=0
3352 On ch=10 n=42 v=46
3377 Off ch=10 n=42 v=0
3844 On ch=10 n=44 v=36
3844 On ch=10 n=70 v=15
3869 Off ch=10 n=70 v=64
3869 Off ch=10 n=44 v=64
4081 On ch=10 n=70 v=30
4106 Off ch=10 n=70 v=64
4321 On ch=10 n=70 v=17
4323 On ch=10 n=44 v=44
4346 Off ch=10 n=70 v=64
4348 Off ch=10 n=44 v=64
4560 On ch=10 n=70 v=30
4585 Off ch=10 n=70 v=64
4796 On ch=10 n=70 v=18
4802 On ch=10 n=44 v=36
4821 Off ch=10 n=70 v=64
4827 Off ch=10 n=44 v=64
5036 On ch=10 n=70 v=28
5061 Off ch=10 n=70 v=64
5278 On ch=10 n=44 v=41
5279 On ch=10 n=70 v=15
5303 Off ch=10 n=44 v=64
5304 Off ch=10 n=70 v=64
5518 On ch=10 n=40 v=16
5522 On ch=10 n=70 v=30
5543 Off ch=10 n=40 v=64
5547 Off ch=10 n=70 v=64
5637 On ch=10 n=40 v=13
5662 Off ch=10 n=40 v=64
5758 On ch=10 n=44 v=37
5761 On ch=10 n=70 v=15
5763 On ch=10 n=35 v=32
5783 Off ch=10 n=44 v=64
5786 Off ch=10 n=70 v=64
5788 Off ch=10 n=35 v=0
5994 On ch=10 n=70 v=28
6000 On ch=10 n=35 v=26
6019 Off ch=10 n=70 v=64
6025 Off ch=10 n=35 v=64
6115 On ch=10 n=35 v=22
6140 Off ch=10 n=35 v=64
6239 On ch=10 n=40 v=25
6240 On ch=10 n=70 v=16
6241 On ch=10 n=44 v=49
6264 Off ch=10 n=40 v=64
6265 Off ch=10 n=70 v=64
6266 Off ch=10 n=44 v=64
6475 On ch=10 n=70 v=27
6479 On ch=10 n=35 v=26
6500 Off ch=10 n=70 v=64
6504 Off ch=10 n=35 v=64
6596 On ch=10 n=40 v=32
6621 Off ch=10 n=40 v=64
6712 On ch=10 n=44 v=40
6718 On ch=10 n=35 v=31
6718 On ch=10 n=70 v=15
6737 Off ch=10 n=44 v=64
6743 Off ch=10 n=70 v=64
6743 Off ch=10 n=35 v=64
6835 On ch=10 n=40 v=25
6860 Off ch=10 n=40 v=64
6954 On ch=10 n=70 v=28
6957 On ch=10 n=35 v=22
6979 Off ch=10 n=70 v=64
6982 Off ch=10 n=35 v=64
7193 On ch=10 n=40 v=27
7193 On ch=10 n=70 v=16
7203 On ch=10 n=44 v=45
7218 Off ch=10 n=70 v=64
7218 Off ch=10 n=40 v=64
7228 Off ch=10 n=44 v=64
7438 On ch=10 n=40 v=18
7443 On ch=10 n=70 v=28
7463 Off ch=10 n=40 v=64
7468 Off ch=10 n=70 v=64
7557 On ch=10 n=40 v=15
7582 Off ch=10 n=40 v=64
7676 On ch=10 n=44 v=40
7678 On ch=10 n=70 v=20
7683 On ch=10 n=35 v=43
7701 Off ch=10 n=44 v=64
7703 Off ch=10 n=70 v=64
7708 Off ch=10 n=35 v=0
7918 On ch=10 n=70 v=29
7920 On ch=10 n=35 v=29
7943 Off ch=10 n=70 v=64
7945 Off ch=10 n=35 v=64
8038 On ch=10 n=35 v=26
8063 Off ch=10 n=35 v=64
8158 On ch=10 n=40 v=31
8160 On ch=10 n=70 v=19
8163 On ch=10 n=44 v=51
8183 Off ch=10 n=40 v=64
8185 Off ch=10 n=70 v=64
8188 Off ch=10 n=44 v=64
8397 On ch=10 n=35 v=28
8402 On ch=10 n=70 v=31
8422 Off ch=10 n=35 v=64
8427 Off ch=10 n=70 v=64
8521 On ch=10 n=40 v=37
8546 Off ch=10 n=40 v=64
8637 On ch=10 n=44 v=39
8639 On ch=10 n=35 v=37
8640 On ch=10 n=70 v=18
8662 Off ch=10 n=44 v=64
8664 Off ch=10 n=35 v=64
8665 Off ch=10 n=70 v=64
8762 On ch=10 n=40 v=24
8787 Off ch=10 n=40 v=64
8875 On ch=10 n=35 v=26
8884 On ch=10 n=70 v=31
8900 Off ch=10 n=35 v=64
8909 Off ch=10 n=70 v=64
9119 On ch=10 n=70 v=19
9120 On ch=10 n=44 v=52
9121 On ch=10 n=40 v=29
9144 Off ch=10 n=70 v=64
9145 Off ch=10 n=44 v=64
9146 Off ch=10 n=40 v=64
9354 On ch=10 n=40 v=24
9364 On ch=10 n=70 v=30
9379 Off ch=10 n=40 v=64
9389 Off ch=10 n=70 v=64
9479 On ch=10 n=40 v=19
9504 Off ch=10 n=40 v=64
9594 On ch=10 n=70 v=28
9596 On ch=10 n=44 v=46
9597 On ch=10 n=35 v=37
9619 Off ch=10 n=70 v=64
9621 Off ch=10 n=44 v=64
9622 Off ch=10 n=35 v=0
9835 On ch=10 n=35 v=34
9841 On ch=10 n=70 v=38
9860 Off ch=10 n=35 v=64
9866 Off ch=10 n=70 v=64
9956 On ch=10 n=35 v=26
9981 Off ch=10 n=35 v=64
10074 On ch=10 n=40 v=32
10075 On ch=10 n=44 v=54
10079 On ch=10 n=70 v=30
10099 Off ch=10 n=40 v=64
10100 Off ch=10 n=44 v=64
10104 Off ch=10 n=70 v=64
10317 On ch=10 n=35 v=34
10317 On ch=10 n=70 v=39
10342 Off ch=10 n=70 v=64
10342 Off ch=10 n=35 v=64
10436 On ch=10 n=40 v=34
10461 Off ch=10 n=40 v=64
10553 On ch=10 n=44 v=47
10557 On ch=10 n=35 v=37
10563 On ch=10 n=70 v=32
10578 Off ch=10 n=44 v=64
10582 Off ch=10 n=35 v=64
10588 Off ch=10 n=70 v=64
10682 On ch=10 n=40 v=27
10707 Off ch=10 n=40 v=64
10796 On ch=10 n=35 v=26
10802 On ch=10 n=70 v=38
10821 Off ch=10 n=35 v=64
10827 Off ch=10 n=70 v=64
11040 On ch=10 n=44 v=55
11040 On ch=10 n=40 v=26
11044 On ch=10 n=70 v=30
11065 Off ch=10 n=40 v=64
11065 Off ch=10 n=44 v=64
11069 Off ch=10 n=70 v=64
11273 On ch=10 n=70 v=41
11278 On ch=10 n=40 v=25
11298 Off ch=10 n=70 v=64
11303 Off ch=10 n=40 v=64
11393 On ch=10 n=40 v=18
11418 Off ch=10 n=40 v=64
11520 On ch=10 n=35 v=43
11520 On ch=10 n=44 v=46
11522 On ch=10 n=70 v=32
11545 Off ch=10 n=35 v=0
11545 Off ch=10 n=44 v=64
11547 Off ch=10 n=70 v=64
11754 On ch=10 n=70 v=44
11760 On ch=10 n=35 v=33
11779 Off ch=10 n=70 v=64
11785 Off ch=10 n=35 v=64
11878 On ch=10 n=35 v=30
11903 Off ch=10 n=35 v=64
11999 On ch=10 n=70 v=34
12002 On ch=10 n=40 v=34
12002 On ch=10 n=44 v=59
12024 Off ch=10 n=70 v=64
12027 Off ch=10 n=44 v=64
12027 Off ch=10 n=40 v=64
12240 On ch=10 n=35 v=34
12244 On ch=10 n=70 v=44
12265 Off ch=10 n=35 v=64
12269 Off ch=10 n=70 v=64
12354 On ch=10 n=40 v=37
12379 Off ch=10 n=40 v=64
12472 On ch=10 n=44 v=50
12474 On ch=10 n=70 v=35
12479 On ch=10 n=35 v=38
12497 Off ch=10 n=44 v=64
12499 Off ch=10 n=70 v=64
12504 Off ch=10 n=35 v=64
12595 On ch=10 n=40 v=34
12620 Off ch=10 n=40 v=64
12718 On ch=10 n=35 v=28
12720 On ch=10 n=70 v=43
12743 Off ch=10 n=35 v=64
12745 Off ch=10 n=70 v=64
12953 On ch=10 n=40 v=35
12958 On ch=10 n=70 v=32
12963 On ch=10 n=44 v=59
12978 Off ch=10 n=40 v=64
12983 Off ch=10 n=70 v=64
12988 Off ch=10 n=44 v=64
13194 On ch=10 n=70 v=44
13196 On ch=10 n=40 v=27
13219 Off ch=10 n=70 v=64
13221 Off ch=10 n=40 v=64
13320 On ch=10 n=40 v=21
13345 Off ch=10 n=40 v=64
13434 On ch=10 n=44 v=56
13439 On ch=10 n=70 v=45
13439 On ch=10 n=35 v=48
13459 Off ch=10 n=44 v=64
13464 Off ch=10 n=35 v=0
13464 Off ch=10 n=70 v=64
13678 On ch=10 n=70 v=54
13680 On ch=10 n=35 v=40
13703 Off ch=10 n=70 v=64
13705 Off ch=10 n=35 v=64
13796 On ch=10 n=35 v=35
13821 Off ch=10 n=35 v=64
13914 On ch=10 n=40 v=33
13919 On ch=10 n=70 v=45
13920 On ch=10 n=44 v=60
13939 Off ch=10 n=40 v=64
13944 Off ch=10 n=70 v=64
13945 Off ch=10 n=44 v=64
14152 On ch=10 n=35 v=42
14159 On ch=10 n=70 v=54
14177 Off ch=10 n=35 v=64
14184 Off ch=10 n=70 v=64
14275 On ch=10 n=40 v=38
14300 Off ch=10 n=40 v=64
14394 On ch=10 n=44 v=56
14396 On ch=10 n=70 v=45
14397 On ch=10 n=35 v=43
14419 Off ch=10 n=44 v=64
14421 Off ch=10 n=70 v=64
14422 Off ch=10 n=35 v=64
14521 On ch=10 n=40 v=33
14546 Off ch=10 n=40 v=64
14636 On ch=10 n=35 v=37
14639 On ch=10 n=70 v=55
14661 Off ch=10 n=35 v=64
14664 Off ch=10 n=70 v=64
14876 On ch=10 n=44 v=66
14878 On ch=10 n=40 v=37
14883 On ch=10 n=70 v=42
14901 Off ch=10 n=44 v=64
14903 Off ch=10 n=40 v=64
14908 Off ch=10 n=70 v=64
15115 On ch=10 n=70 v=56
15116 On ch=10 n=40 v=34
15140 Off ch=10 n=70 v=64
15141 Off ch=10 n=40 v=64
15240 On ch=10 n=40 v=24
15265 Off ch=10 n=40 v=64
15356 On ch=10 n=70 v=42
15362 On ch=10 n=35 v=44
15364 On ch=10 n=44 v=56
15381 Off ch=10 n=70 v=64
15387 Off ch=10 n=35 v=0
15389 Off ch=10 n=44 v=64
15596 On ch=10 n=35 v=38
15602 On ch=10 n=70 v=54
15621 Off ch=10 n=35 v=64
15627 Off ch=10 n=70 v=64
15719 On ch=10 n=35 v=32
15744 Off ch=10 n=35 v=64
15838 On ch=10 n=70 v=45
15839 On ch=10 n=40 v=38
15842 On ch=10 n=44 v=65
15863 Off ch=10 n=70 v=64
15864 Off ch=10 n=40 v=64
15867 Off ch=10 n=44 v=64
16074 On ch=10 n=70 v=56
16080 On ch=10 n=35 v=41
16099 Off ch=10 n=70 v=64
16105 Off ch=10 n=35 v=64
16199 On ch=10 n=40 v=38
16224 Off ch=10 n=40 v=64
16319 On ch=10 n=35 v=41
16319 On ch=10 n=44 v=58
16319 On ch=10 n=70 v=45
16344 Off ch=10 n=70 v=64
16344 Off ch=10 n=44 v=64
16344 Off ch=10 n=35 v=64
16440 On ch=10 n=40 v=33
16465 Off ch=10 n=40 v=64
16556 On ch=10 n=35 v=36
16557 On ch=10 n=70 v=56
16581 Off ch=10 n=35 v=64
16582 Off ch=10 n=70 v=64
16793 On ch=10 n=44 v=63
16797 On ch=10 n=70 v=45
16798 On ch=10 n=40 v=38
16818 Off ch=10 n=44 v=64
16822 Off ch=10 n=70 v=64
16823 Off ch=10 n=40 v=64
17036 On ch=10 n=70 v=56
17039 On ch=10 n=40 v=33
17061 Off ch=10 n=70 v=64
17064 Off ch=10 n=40 v=64
17153 On ch=10 n=40 v=25
17178 Off ch=10 n=40 v=64
17272 On ch=10 n=44 v=58
17278 On ch=10 n=36 v=78
17278 On ch=10 n=55 v=89
17284 On ch=10 n=70 v=43
17297 Off ch=10 n=44 v=64
17303 Off ch=10 n=36 v=64
17309 Off ch=10 n=70 v=64
17514 On ch=10 n=70 v=56
17517 On ch=10 n=35 v=41
17539 Off ch=10 n=70 v=64
17542 Off ch=10 n=35 v=64
17636 On ch=10 n=35 v=33
17661 Off ch=10 n=35 v=64
17748 Off ch=10 n=55 v=64
17754 On ch=10 n=44 v=64
17757 On ch=10 n=40 v=47
17758 On ch=10 n=36 v=85
17758 On ch=10 n=55 v=82
17758 On ch=10 n=70 v=42
17779 Off ch=10 n=44 v=64
17782 Off ch=10 n=40 v=64
17783 Off ch=10 n=70 v=64
17783 Off ch=10 n=36 v=64
17998 On ch=10 n=35 v=35
18001 On ch=10 n=70 v=54
18023 Off ch=10 n=35 v=64
18026 Off ch=10 n=70 v=64
18117 On ch=10 n=40 v=43
18142 Off ch=10 n=40 v=64
18228 Off ch=10 n=55 v=64
18235 On ch=10 n=44 v=56
18238 On ch=10 n=36 v=88
18238 On ch=10 n=55 v=88
18241 On ch=10 n=70 v=44
18260 Off ch=10 n=44 v=64
18263 Off ch=10 n=36 v=64
18266 Off ch=10 n=70 v=64
18362 On ch=10 n=40 v=38
18387 Off ch=10 n=40 v=64
18475 On ch=10 n=70 v=56
18480 On ch=10 n=35 v=36
18500 Off ch=10 n=70 v=64
18505 Off ch=10 n=35 v=64
18713 On ch=10 n=44 v=63
18718 On ch=10 n=36 v=95
18719 On ch=10 n=40 v=43
18722 On ch=10 n=70 v=43
18738 Off ch=10 n=44 v=64
18743 Off ch=10 n=36 v=64
18744 Off ch=10 n=40 v=64
18747 Off ch=10 n=70 v=64
18956 On ch=10 n=40 v=41
18957 On ch=10 n=70 v=56
18981 Off ch=10 n=40 v=64
18982 Off ch=10 n=70 v=64
19079 On ch=10 n=40 v=31
19104 Off ch=10 n=40 v=64
19188 Off ch=10 n=55 v=64
19196 On ch=10 n=44 v=54
19198 On ch=10 n=36 v=114
19198 On ch=10 n=57 v=74
19201 On ch=10 n=70 v=45
19221 Off ch=10 n=44 v=64
19223 Off ch=10 n=36 v=64
19226 Off ch=10 n=70 v=64
19438 On ch=10 n=35 v=34
19438 On ch=10 n=70 v=55
19463 Off ch=10 n=70 v=64
19463 Off ch=10 n=35 v=64
19562 On ch=10 n=35 v=37
19587 Off ch=10 n=35 v=64
19678 On ch=10 n=38 v=99
19678 On ch=10 n=40 v=36
19678 On ch=10 n=70 v=43
19681 On ch=10 n=44 v=65
19703 Off ch=10 n=70 v=64
19703 Off ch=10 n=40 v=64
19703 Off ch=10 n=38 v=64
19706 Off ch=10 n=44 v=64
20154 On ch=10 n=44 v=72
20179 Off ch=10 n=44 v=64
20635 On ch=10 n=44 v=67
20638 On ch=10 n=38 v=99
20660 Off ch=10 n=44 v=64
20663 Off ch=10 n=38 v=64
21108 Off ch=10 n=57 v=64
21116 On ch=10 n=70 v=56
21118 On ch=10 n=36 v=117
21118 On ch=10 n=42 v=80
21118 On ch=10 n=49 v=81
21119 On ch=10 n=64 v=66
21120 On ch=10 n=82 v=43
21141 Off ch=10 n=70 v=64
21143 Off ch=10 n=42 v=64
21143 Off ch=10 n=36 v=64
21144 Off ch=10 n=64 v=64
21145 Off ch=10 n=82 v=64
21239 On ch=10 n=82 v=34
21264 Off ch=10 n=82 v=64
21352 On ch=10 n=69 v=55
21355 On ch=10 n=35 v=51
21358 On ch=10 n=46 v=69
21358 On ch=10 n=62 v=74
21358 On ch=10 n=82 v=55
21363 On ch=10 n=70 v=66
21377 Off ch=10 n=69 v=64
21380 Off ch=10 n=35 v=64
21383 Off ch=10 n=82 v=64
21383 Off ch=10 n=62 v=64
21383 Off ch=10 n=46 v=64
21388 Off ch=10 n=70 v=64
21481 On ch=10 n=35 v=45
21484 On ch=10 n=82 v=49
21500 On ch=10 n=42 v=46
21506 Off ch=10 n=35 v=64
21509 Off ch=10 n=82 v=64
21525 Off ch=10 n=42 v=64
21598 On ch=10 n=36 v=114
21598 On ch=10 n=38 v=99
21598 On ch=10 n=39 v=90
21598 On ch=10 n=42 v=81
21604 On ch=10 n=63 v=78
21604 On ch=10 n=82 v=40
21604 On ch=10 n=70 v=56
21623 Off ch=10 n=42 v=64
21623 Off ch=10 n=39 v=64
21623 Off ch=10 n=38 v=64
21623 Off ch=10 n=36 v=64
21629 Off ch=10 n=70 v=64
21629 Off ch=10 n=82 v=64
21629 Off ch=10 n=63 v=64
21715 On ch=10 n=82 v=35
21740 Off ch=10 n=82 v=64
21836 On ch=10 n=35 v=45
21836 On ch=10 n=69 v=58
21836 On ch=10 n=70 v=70
21837 On ch=10 n=82 v=58
21838 On ch=10 n=46 v=69
21843 On ch=10 n=64 v=73
21861 Off ch=10 n=70 v=64
21861 Off ch=10 n=69 v=64
21861 Off ch=10 n=35 v=64
21862 Off ch=10 n=82 v=64
21863 Off ch=10 n=46 v=64
21868 Off ch=10 n=64 v=64
21955 On ch=10 n=82 v=45
21958 On ch=10 n=40 v=57
21958 On ch=10 n=64 v=56
21979 On ch=10 n=42 v=46
21980 Off ch=10 n=82 v=64
21983 Off ch=10 n=64 v=64
21983 Off ch=10 n=40 v=64
22004 Off ch=10 n=42 v=64
22078 On ch=10 n=36 v=117
22078 On ch=10 n=42 v=83
22078 On ch=10 n=70 v=58
22079 On ch=10 n=82 v=40
22083 On ch=10 n=64 v=71
22103 Off ch=10 n=70 v=64
22103 Off ch=10 n=42 v=64
22103 Off ch=10 n=36 v=64
22104 Off ch=10 n=82 v=64
22108 Off ch=10 n=64 v=64
22198 On ch=10 n=40 v=49
22204 On ch=10 n=82 v=33
22223 Off ch=10 n=40 v=64
22229 Off ch=10 n=82 v=64
22317 On ch=10 n=35 v=41
22318 On ch=10 n=46 v=68
22318 On ch=10 n=70 v=67
22319 On ch=10 n=82 v=57
22319 On ch=10 n=62 v=62
22320 On ch=10 n=69 v=55
22342 Off ch=10 n=35 v=64
22343 Off ch=10 n=70 v=64
22343 Off ch=10 n=46 v=64
22344 Off ch=10 n=62 v=64
22344 Off ch=10 n=82 v=64
22345 Off ch=10 n=69 v=64
22440 On ch=10 n=82 v=44
22457 On ch=10 n=42 v=46
22465 Off ch=10 n=82 v=64
22482 Off ch=10 n=42 v=64
22556 On ch=10 n=63 v=71
22556 On ch=10 n=82 v=40
22558 On ch=10 n=36 v=114
22558 On ch=10 n=38 v=99
22558 On ch=10 n=42 v=79
22559 On ch=10 n=39 v=88
22562 On ch=10 n=70 v=57
22581 Off ch=10 n=82 v=64
22581 Off ch=10 n=63 v=64
22583 Off ch=10 n=42 v=64
22583 Off ch=10 n=38 v=64
22583 Off ch=10 n=36 v=64
22584 Off ch=10 n=39 v=64
22587 Off ch=10 n=70 v=64
22674 On ch=10 n=82 v=36
22699 Off ch=10 n=82 v=64
22794 On ch=10 n=40 v=47
22797 On ch=10 n=70 v=68
22798 On ch=10 n=46 v=69
22801 On ch=10 n=69 v=53
22803 On ch=10 n=82 v=57
22805 On ch=10 n=64 v=64
22819 Off ch=10 n=40 v=64
22822 Off ch=10 n=70 v=64
22823 Off ch=10 n=46 v=64
22826 Off ch=10 n=69 v=64
22828 Off ch=10 n=82 v=64
22830 Off ch=10 n=64 v=64
22916 On ch=10 n=40 v=38
22917 On ch=10 n=82 v=44
22920 On ch=10 n=64 v=57
22930 On ch=10 n=42 v=46
22941 Off ch=10 n=40 v=64
22942 Off ch=10 n=82 v=64
22945 Off ch=10 n=64 v=64
22955 Off ch=10 n=42 v=64
23028 Off ch=10 n=49 v=64
23037 On ch=10 n=82 v=41
23038 On ch=10 n=36 v=117
23038 On ch=10 n=42 v=82
23039 On ch=10 n=64 v=70
23043 On ch=10 n=70 v=55
23062 Off ch=10 n=82 v=64
23063 Off ch=10 n=42 v=64
23063 Off ch=10 n=36 v=64
23064 Off ch=10 n=64 v=64
23068 Off ch=10 n=70 v=64
23158 On ch=10 n=82 v=36
23183 Off ch=10 n=82 v=64
23274 On ch=10 n=70 v=65
23275 On ch=10 n=69 v=53
23277 On ch=10 n=62 v=71
23278 On ch=10 n=46 v=71
23280 On ch=10 n=82 v=55
23281 On ch=10 n=35 v=45
23299 Off ch=10 n=70 v=64
23300 Off ch=10 n=69 v=64
23302 Off ch=10 n=62 v=64
23303 Off ch=10 n=46 v=64
23305 Off ch=10 n=82 v=64
23306 Off ch=10 n=35 v=64
23397 On ch=10 n=82 v=47
23398 On ch=10 n=35 v=42
23411 On ch=10 n=42 v=46
23422 Off ch=10 n=82 v=64
23423 Off ch=10 n=35 v=64
23436 Off ch=10 n=42 v=64
23516 On ch=10 n=39 v=87
23518 On ch=10 n=36 v=114
23518 On ch=10 n=38 v=99
23518 On ch=10 n=42 v=79
23519 On ch=10 n=63 v=79
23520 On ch=10 n=82 v=41
23522 On ch=10 n=70 v=57
23541 Off ch=10 n=39 v=64
23543 Off ch=10 n=42 v=64
23543 Off ch=10 n=38 v=64
23543 Off ch=10 n=36 v=64
23544 Off ch=10 n=63 v=64
23545 Off ch=10 n=82 v=64
23547 Off ch=10 n=70 v=64
23645 On ch=10 n=82 v=36
23670 Off ch=10 n=82 v=64
23752 On ch=10 n=69 v=57
23756 On ch=10 n=64 v=69
23758 On ch=10 n=35 v=51
23758 On ch=10 n=46 v=72
23759 On ch=10 n=82 v=58
23761 On ch=10 n=70 v=68
23777 Off ch=10 n=69 v=64
23781 Off ch=10 n=64 v=64
23783 Off ch=10 n=46 v=64
23783 Off ch=10 n=35 v=64
23784 Off ch=10 n=82 v=64
23786 Off ch=10 n=70 v=64
23879 On ch=10 n=40 v=54
23880 On ch=10 n=82 v=48
23882 On ch=10 n=64 v=53
23896 On ch=10 n=42 v=46
23904 Off ch=10 n=40 v=64
23905 Off ch=10 n=82 v=64
23907 Off ch=10 n=64 v=64
23921 Off ch=10 n=42 v=64
23995 On ch=10 n=82 v=38
23998 On ch=10 n=36 v=117
23998 On ch=10 n=42 v=81
23999 On ch=10 n=70 v=58
24001 On ch=10 n=64 v=68
24020 Off ch=10 n=82 v=64
24023 Off ch=10 n=42 v=64
24023 Off ch=10 n=36 v=64
24024 Off ch=10 n=70 v=64
24026 Off ch=10 n=64 v=64
24121 On ch=10 n=40 v=47
24123 On ch=10 n=82 v=34
24146 Off ch=10 n=40 v=64
24148 Off ch=10 n=82 v=64
24234 On ch=10 n=70 v=68
24236 On ch=10 n=35 v=40
24238 On ch=10 n=46 v=72
24239 On ch=10 n=62 v=63
24239 On ch=10 n=69 v=55
24240 On ch=10 n=82 v=57
24259 Off ch=10 n=70 v=64
24261 Off ch=10 n=35 v=64
24263 Off ch=10 n=46 v=64
24264 Off ch=10 n=69 v=64
24264 Off ch=10 n=62 v=64
24265 Off ch=10 n=82 v=64
24365 On ch=10 n=82 v=47
24381 On ch=10 n=42 v=46
24390 Off ch=10 n=82 v=64
24406 Off ch=10 n=42 v=64
24474 On ch=10 n=70 v=56
24478 On ch=10 n=36 v=114
24478 On ch=10 n=38 v=99
24478 On ch=10 n=42 v=78
24479 On ch=10 n=63 v=66
24480 On ch=10 n=39 v=90
24484 On ch=10 n=82 v=41
24499 Off ch=10 n=70 v=64
24503 Off ch=10 n=42 v=64
24503 Off ch=10 n=38 v=64
24503 Off ch=10 n=36 v=64
24504 Off ch=10 n=63 v=64
24505 Off ch=10 n=39 v=64
24509 Off ch=10 n=82 v=64
24605 On ch=10 n=82 v=37
24630 Off ch=10 n=82 v=64
24712 On ch=10 n=69 v=55
24717 On ch=10 n=70 v=69
24718 On ch=10 n=46 v=69
24721 On ch=10 n=40 v=46
24723 On ch=10 n=64 v=68
24725 On ch=10 n=82 v=57
24737 Off ch=10 n=69 v=64
24742 Off ch=10 n=70 v=64
24743 Off ch=10 n=46 v=64
24746 Off ch=10 n=40 v=64
24748 Off ch=10 n=64 v=64
24750 Off ch=10 n=82 v=64
24836 On ch=10 n=40 v=38
24842 On ch=10 n=82 v=47
24844 On ch=10 n=64 v=60
24859 On ch=10 n=42 v=46
24861 Off ch=10 n=40 v=64
24867 Off ch=10 n=82 v=64
24869 Off ch=10 n=64 v=64
24884 Off ch=10 n=42 v=64
24958 On ch=10 n=36 v=117
24958 On ch=10 n=42 v=82
24959 On ch=10 n=70 v=56
24961 On ch=10 n=64 v=68
24964 On ch=10 n=82 v=43
24983 Off ch=10 n=42 v=64
24983 Off ch=10 n=36 v=64
24984 Off ch=10 n=70 v=64
24986 Off ch=10 n=64 v=64
24989 Off ch=10 n=82 v=64
25077 On ch=10 n=82 v=32
25102 Off ch=10 n=82 v=64
25197 On ch=10 n=70 v=70
25198 On ch=10 n=35 v=46
25198 On ch=10 n=46 v=72
25201 On ch=10 n=69 v=55
25201 On ch=10 n=82 v=54
25205 On ch=10 n=62 v=73
25222 Off ch=10 n=70 v=64
25223 Off ch=10 n=46 v=64
25223 Off ch=10 n=35 v=64
25226 Off ch=10 n=82 v=64
25226 Off ch=10 n=69 v=64
25230 Off ch=10 n=62 v=64
25318 On ch=10 n=35 v=44
25322 On ch=10 n=82 v=47
25327 On ch=10 n=42 v=46
25343 Off ch=10 n=35 v=64
25347 Off ch=10 n=82 v=64
25352 Off ch=10 n=42 v=64
25436 On ch=10 n=82 v=39
25438 On ch=10 n=36 v=114
25438 On ch=10 n=38 v=99
25438 On ch=10 n=42 v=79
25440 On ch=10 n=70 v=58
25444 On ch=10 n=63 v=78
25446 On ch=10 n=39 v=90
25461 Off ch=10 n=82 v=64
25463 Off ch=10 n=42 v=64
25463 Off ch=10 n=38 v=64
25463 Off ch=10 n=36 v=64
25465 Off ch=10 n=70 v=64
25469 Off ch=10 n=63 v=64
25471 Off ch=10 n=39 v=64
25564 On ch=10 n=82 v=32
25589 Off ch=10 n=82 v=64
25670 On ch=10 n=69 v=55
25675 On ch=10 n=70 v=66
25676 On ch=10 n=35 v=47
25678 On ch=10 n=46 v=69
25680 On ch=10 n=82 v=58
25684 On ch=10 n=64 v=73
25695 Off ch=10 n=69 v=64
25700 Off ch=10 n=70 v=64
25701 Off ch=10 n=35 v=64
25703 Off ch=10 n=46 v=64
25705 Off ch=10 n=82 v=64
25709 Off ch=10 n=64 v=64
25798 On ch=10 n=64 v=59
25802 On ch=10 n=40 v=54
25805 On ch=10 n=82 v=47
25818 On ch=10 n=42 v=46
25823 Off ch=10 n=64 v=64
25827 Off ch=10 n=40 v=64
25830 Off ch=10 n=82 v=64
25843 Off ch=10 n=42 v=64
25918 On ch=10 n=36 v=117
25918 On ch=10 n=42 v=79
25920 On ch=10 n=70 v=58
25922 On ch=10 n=82 v=39
25923 On ch=10 n=64 v=72
25943 Off ch=10 n=42 v=64
25943 Off ch=10 n=36 v=64
25945 Off ch=10 n=70 v=64
25947 Off ch=10 n=82 v=64
25948 Off ch=10 n=64 v=64
26038 On ch=10 n=40 v=49
26043 On ch=10 n=82 v=35
26063 Off ch=10 n=40 v=64
26068 Off ch=10 n=82 v=64
26158 On ch=10 n=35 v=46
26158 On ch=10 n=46 v=70
26158 On ch=10 n=62 v=63
26161 On ch=10 n=69 v=55
26162 On ch=10 n=70 v=70
26162 On ch=10 n=82 v=57
26183 Off ch=10 n=62 v=64
26183 Off ch=10 n=46 v=64
26183 Off ch=10 n=35 v=64
26186 Off ch=10 n=69 v=64
26187 Off ch=10 n=82 v=64
26187 Off ch=10 n=70 v=64
26279 On ch=10 n=82 v=44
26289 On ch=10 n=42 v=46
26304 Off ch=10 n=82 v=64
26314 Off ch=10 n=42 v=64
26398 On ch=10 n=36 v=114
26398 On ch=10 n=38 v=99
26398 On ch=10 n=39 v=89
26398 On ch=10 n=42 v=77
26398 On ch=10 n=70 v=59
26400 On ch=10 n=82 v=39
26400 On ch=10 n=63 v=72
26423 Off ch=10 n=70 v=64
26423 Off ch=10 n=42 v=64
26423 Off ch=10 n=39 v=64
26423 Off ch=10 n=38 v=64
26423 Off ch=10 n=36 v=64
26425 Off ch=10 n=63 v=64
26425 Off ch=10 n=82 v=64
26524 On ch=10 n=82 v=33
26549 Off ch=10 n=82 v=64
26636 On ch=10 n=82 v=57
26636 On ch=10 n=70 v=69
26637 On ch=10 n=69 v=55
26638 On ch=10 n=46 v=68
26641 On ch=10 n=40 v=44
26644 On ch=10 n=64 v=68
26661 Off ch=10 n=70 v=64
26661 Off ch=10 n=82 v=64
26662 Off ch=10 n=69 v=64
26663 Off ch=10 n=46 v=64
26666 Off ch=10 n=40 v=64
26669 Off ch=10 n=64 v=64
26756 On ch=10 n=82 v=47
26759 On ch=10 n=40 v=37
26759 On ch=10 n=64 v=59
26774 On ch=10 n=42 v=46
26781 Off ch=10 n=82 v=64
26784 Off ch=10 n=64 v=64
26784 Off ch=10 n=40 v=64
26799 Off ch=10 n=42 v=64
26874 On ch=10 n=70 v=55
26877 On ch=10 n=64 v=68
26878 On ch=10 n=36 v=117
26878 On ch=10 n=42 v=82
26880 On ch=10 n=82 v=40
26899 Off ch=10 n=70 v=64
26902 Off ch=10 n=64 v=64
26903 Off ch=10 n=42 v=64
26903 Off ch=10 n=36 v=64
26905 Off ch=10 n=82 v=64
26997 On ch=10 n=82 v=33
27022 Off ch=10 n=82 v=64
27118 On ch=10 n=35 v=45
27118 On ch=10 n=46 v=72
27119 On ch=10 n=69 v=57
27119 On ch=10 n=70 v=69
27119 On ch=10 n=62 v=73
27123 On ch=10 n=82 v=54
27143 Off ch=10 n=46 v=64
27143 Off ch=10 n=35 v=64
27144 Off ch=10 n=62 v=64
27144 Off ch=10 n=70 v=64
27144 Off ch=10 n=69 v=64
27148 Off ch=10 n=82 v=64
27235 On ch=10 n=82 v=50
27236 On ch=10 n=35 v=44
27248 On ch=10 n=42 v=46
27260 Off ch=10 n=82 v=64
27261 Off ch=10 n=35 v=64
27273 Off ch=10 n=42 v=64
27356 On ch=10 n=63 v=75
27358 On ch=10 n=36 v=114
27358 On ch=10 n=38 v=99
27358 On ch=10 n=42 v=80
27359 On ch=10 n=70 v=59
27360 On ch=10 n=39 v=90
27364 On ch=10 n=82 v=41
27381 Off ch=10 n=63 v=64
27383 Off ch=10 n=42 v=64
27383 Off ch=10 n=38 v=64
27383 Off ch=10 n=36 v=64
27384 Off ch=10 n=70 v=64
27385 Off ch=10 n=39 v=64
27389 Off ch=10 n=82 v=64
27483 On ch=10 n=82 v=33
27508 Off ch=10 n=82 v=64
27591 On ch=10 n=69 v=58
27597 On ch=10 n=35 v=49
27598 On ch=10 n=46 v=70
27600 On ch=10 n=70 v=69
27602 On ch=10 n=82 v=58
27605 On ch=10 n=64 v=71
27616 Off ch=10 n=69 v=64
27622 Off ch=10 n=35 v=64
27623 Off ch=10 n=46 v=64
27625 Off ch=10 n=70 v=64
27627 Off ch=10 n=82 v=64
27630 Off ch=10 n=64 v=64
27718 On ch=10 n=40 v=54
27718 On ch=10 n=64 v=59
27718 On ch=10 n=82 v=46
27725 On ch=10 n=42 v=46
27743 Off ch=10 n=82 v=64
27743 Off ch=10 n=64 v=64
27743 Off ch=10 n=40 v=64
27750 Off ch=10 n=42 v=64
27837 On ch=10 n=64 v=71
27838 On ch=10 n=36 v=117
27838 On ch=10 n=42 v=80
27839 On ch=10 n=82 v=38
27841 On ch=10 n=70 v=58
27862 Off ch=10 n=64 v=64
27863 Off ch=10 n=42 v=64
27863 Off ch=10 n=36 v=64
27864 Off ch=10 n=82 v=64
27866 Off ch=10 n=70 v=64
27958 On ch=10 n=40 v=50
27962 On ch=10 n=82 v=36
27983 Off ch=10 n=40 v=64
27987 Off ch=10 n=82 v=64
28074 On ch=10 n=62 v=60
28075 On ch=10 n=69 v=58
28077 On ch=10 n=35 v=41
28078 On ch=10 n=46 v=72
28079 On ch=10 n=70 v=67
28084 On ch=10 n=82 v=57
28099 Off ch=10 n=62 v=64
28100 Off ch=10 n=69 v=64
28102 Off ch=10 n=35 v=64
28103 Off ch=10 n=46 v=64
28104 Off ch=10 n=70 v=64
28109 Off ch=10 n=82 v=64
28203 On ch=10 n=82 v=44
28223 On ch=10 n=42 v=46
28228 Off ch=10 n=82 v=64
28248 Off ch=10 n=42 v=64
28316 On ch=10 n=82 v=41
28318 On ch=10 n=36 v=114
28318 On ch=10 n=38 v=99
28318 On ch=10 n=42 v=79
28319 On ch=10 n=63 v=69
28322 On ch=10 n=70 v=57
28327 On ch=10 n=39 v=93
28341 Off ch=10 n=82 v=64
28343 Off ch=10 n=42 v=64
28343 Off ch=10 n=38 v=64
28343 Off ch=10 n=36 v=64
28344 Off ch=10 n=63 v=64
28347 Off ch=10 n=70 v=64
28352 Off ch=10 n=39 v=64
28443 On ch=10 n=82 v=34
28468 Off ch=10 n=82 v=64
28554 On ch=10 n=40 v=45
28555 On ch=10 n=69 v=54
28556 On ch=10 n=70 v=69
28558 On ch=10 n=46 v=70
28558 On ch=10 n=64 v=62
28558 On ch=10 n=82 v=57
28579 Off ch=10 n=40 v=64
28580 Off ch=10 n=69 v=64
28581 Off ch=10 n=70 v=64
28583 Off ch=10 n=82 v=64
28583 Off ch=10 n=64 v=64
28583 Off ch=10 n=46 v=64
28675 On ch=10 n=40 v=39
28678 On ch=10 n=64 v=58
28680 On ch=10 n=82 v=44
28693 On ch=10 n=42 v=46
28700 Off ch=10 n=40 v=64
28703 Off ch=10 n=64 v=64
28705 Off ch=10 n=82 v=64
28718 Off ch=10 n=42 v=64
28795 On ch=10 n=64 v=70
28797 On ch=10 n=82 v=43
28798 On ch=10 n=36 v=117
28798 On ch=10 n=42 v=85
28800 On ch=10 n=70 v=56
28820 Off ch=10 n=64 v=64
28822 Off ch=10 n=82 v=64
28823 Off ch=10 n=42 v=64
28823 Off ch=10 n=36 v=64
28825 Off ch=10 n=70 v=64
28916 On ch=10 n=82 v=33
28941 Off ch=10 n=82 v=64
29038 On ch=10 n=46 v=71
29039 On ch=10 n=69 v=57
29040 On ch=10 n=35 v=50
29041 On ch=10 n=70 v=67
29043 On ch=10 n=62 v=71
29045 On ch=10 n=82 v=54
29063 Off ch=10 n=46 v=64
29064 Off ch=10 n=69 v=64
29065 Off ch=10 n=35 v=64
29066 Off ch=10 n=70 v=64
29068 Off ch=10 n=62 v=64
29070 Off ch=10 n=82 v=64
29160 On ch=10 n=82 v=48
29163 On ch=10 n=35 v=43
29173 On ch=10 n=42 v=46
29185 Off ch=10 n=82 v=64
29188 Off ch=10 n=35 v=64
29198 Off ch=10 n=42 v=64
29276 On ch=10 n=63 v=77
29277 On ch=10 n=70 v=56
29278 On ch=10 n=36 v=114
29278 On ch=10 n=38 v=99
29278 On ch=10 n=42 v=79
29280 On ch=10 n=82 v=38
29284 On ch=10 n=39 v=87
29301 Off ch=10 n=63 v=64
29302 Off ch=10 n=70 v=64
29303 Off ch=10 n=42 v=64
29303 Off ch=10 n=38 v=64
29303 Off ch=10 n=36 v=64
29305 Off ch=10 n=82 v=64
29309 Off ch=10 n=39 v=64
29402 On ch=10 n=82 v=34
29427 Off ch=10 n=82 v=64
29514 On ch=10 n=70 v=67
29516 On ch=10 n=69 v=53
29518 On ch=10 n=46 v=69
29518 On ch=10 n=64 v=71
29521 On ch=10 n=35 v=49
29524 On ch=10 n=82 v=58
29539 Off ch=10 n=70 v=64
29541 Off ch=10 n=69 v=64
29543 Off ch=10 n=64 v=64
29543 Off ch=10 n=46 v=64
29546 Off ch=10 n=35 v=64
29549 Off ch=10 n=82 v=64
29637 On ch=10 n=40 v=52
29642 On ch=10 n=64 v=54
29643 On ch=10 n=82 v=49
29658 On ch=10 n=42 v=46
29662 Off ch=10 n=40 v=64
29667 Off ch=10 n=64 v=64
29668 Off ch=10 n=82 v=64
29683 Off ch=10 n=42 v=64
29754 On ch=10 n=64 v=71
29755 On ch=10 n=82 v=38
29758 On ch=10 n=36 v=117
29758 On ch=10 n=42 v=80
29762 On ch=10 n=70 v=58
29779 Off ch=10 n=64 v=64
29780 Off ch=10 n=82 v=64
29783 Off ch=10 n=42 v=64
29783 Off ch=10 n=36 v=64
29787 Off ch=10 n=70 v=64
29879 On ch=10 n=40 v=49
29881 On ch=10 n=82 v=33
29904 Off ch=10 n=40 v=64
29906 Off ch=10 n=82 v=64
29991 On ch=10 n=69 v=55
29995 On ch=10 n=82 v=57
29996 On ch=10 n=70 v=69
29998 On ch=10 n=46 v=68
29999 On ch=10 n=35 v=43
30000 On ch=10 n=62 v=62
30016 Off ch=10 n=69 v=64
30020 Off ch=10 n=82 v=64
30021 Off ch=10 n=70 v=64
30023 Off ch=10 n=46 v=64
30024 Off ch=10 n=35 v=64
30025 Off ch=10 n=62 v=64
30117 On ch=10 n=82 v=44
30141 On ch=10 n=42 v=46
30142 Off ch=10 n=82 v=64
30166 Off ch=10 n=42 v=64
30234 On ch=10 n=70 v=56
30236 On ch=10 n=63 v=72
30238 On ch=10 n=36 v=114
30238 On ch=10 n=38 v=99
30238 On ch=10 n=42 v=80
30240 On ch=10 n=39 v=88
30244 On ch=10 n=82 v=43
30259 Off ch=10 n=70 v=64
30261 Off ch=10 n=63 v=64
30263 Off ch=10 n=42 v=64
30263 Off ch=10 n=38 v=64
30263 Off ch=10 n=36 v=64
30265 Off ch=10 n=39 v=64
30269 Off ch=10 n=82 v=64
30362 On ch=10 n=82 v=35
30387 Off ch=10 n=82 v=64
30474 On ch=10 n=69 v=56
30475 On ch=10 n=64 v=64
30475 On ch=10 n=70 v=70
30478 On ch=10 n=46 v=72
30478 On ch=10 n=40 v=45
30480 On ch=10 n=82 v=56
30499 Off ch=10 n=69 v=64
30500 Off ch=10 n=70 v=64
30500 Off ch=10 n=64 v=64
30503 Off ch=10 n=40 v=64
30503 Off ch=10 n=46 v=64
30505 Off ch=10 n=82 v=64
30601 On ch=10 n=64 v=59
30602 On ch=10 n=40 v=41
30605 On ch=10 n=82 v=48
30618 On ch=10 n=42 v=46
30626 Off ch=10 n=64 v=64
30627 Off ch=10 n=40 v=64
30630 Off ch=10 n=82 v=64
30643 Off ch=10 n=42 v=64
30716 On ch=10 n=70 v=59
30717 On ch=10 n=64 v=65
30718 On ch=10 n=36 v=117
30718 On ch=10 n=42 v=82
30724 On ch=10 n=82 v=44
30741 Off ch=10 n=70 v=64
30742 Off ch=10 n=64 v=64
30743 Off ch=10 n=42 v=64
30743 Off ch=10 n=36 v=64
30749 Off ch=10 n=82 v=64
30835 On ch=10 n=82 v=34
30860 Off ch=10 n=82 v=64
30951 On ch=10 n=69 v=55
30954 On ch=10 n=35 v=45
30956 On ch=10 n=82 v=54
30958 On ch=10 n=46 v=68
30964 On ch=10 n=70 v=67
30965 On ch=10 n=62 v=74
30976 Off ch=10 n=69 v=64
30979 Off ch=10 n=35 v=64
30981 Off ch=10 n=82 v=64
30983 Off ch=10 n=46 v=64
30989 Off ch=10 n=70 v=64
30990 Off ch=10 n=62 v=64
31080 On ch=10 n=35 v=48
31084 On ch=10 n=42 v=46
31085 On ch=10 n=82 v=47
31105 Off ch=10 n=35 v=64
31109 Off ch=10 n=42 v=64
31110 Off ch=10 n=82 v=64
31195 On ch=10 n=63 v=76
31195 On ch=10 n=70 v=56
31196 On ch=10 n=82 v=40
31198 On ch=10 n=36 v=114
31198 On ch=10 n=38 v=99
31198 On ch=10 n=42 v=77
31206 On ch=10 n=39 v=90
31220 Off ch=10 n=70 v=64
31220 Off ch=10 n=63 v=64
31221 Off ch=10 n=82 v=64
31223 Off ch=10 n=42 v=64
31223 Off ch=10 n=38 v=64
31223 Off ch=10 n=36 v=64
31231 Off ch=10 n=39 v=64
31321 On ch=10 n=82 v=35
31346 Off ch=10 n=82 v=64
31431 On ch=10 n=69 v=53
31435 On ch=10 n=82 v=57
31436 On ch=10 n=35 v=47
31438 On ch=10 n=46 v=68
31439 On ch=10 n=70 v=70
31445 On ch=10 n=64 v=72
31456 Off ch=10 n=69 v=64
31460 Off ch=10 n=82 v=64
31461 Off ch=10 n=35 v=64
31463 Off ch=10 n=46 v=64
31464 Off ch=10 n=70 v=64
31470 Off ch=10 n=64 v=64
31556 On ch=10 n=82 v=47
31558 On ch=10 n=40 v=54
31558 On ch=10 n=64 v=56
31574 On ch=10 n=42 v=46
31581 Off ch=10 n=82 v=64
31583 Off ch=10 n=64 v=64
31583 Off ch=10 n=40 v=64
31599 Off ch=10 n=42 v=64
31676 On ch=10 n=64 v=72
31678 On ch=10 n=36 v=117
31678 On ch=10 n=42 v=79
31682 On ch=10 n=82 v=37
31683 On ch=10 n=70 v=57
31701 Off ch=10 n=64 v=64
31703 Off ch=10 n=42 v=64
31703 Off ch=10 n=36 v=64
31707 Off ch=10 n=82 v=64
31708 Off ch=10 n=70 v=64
31794 On ch=10 n=40 v=47
31800 On ch=10 n=82 v=33
31819 Off ch=10 n=40 v=64
31825 Off ch=10 n=82 v=64
31917 On ch=10 n=82 v=57
31918 On ch=10 n=46 v=72
31918 On ch=10 n=35 v=42
31921 On ch=10 n=69 v=55
31923 On ch=10 n=62 v=61
31924 On ch=10 n=70 v=66
31942 Off ch=10 n=82 v=64
31943 Off ch=10 n=35 v=64
31943 Off ch=10 n=46 v=64
31946 Off ch=10 n=69 v=64
31948 Off ch=10 n=62 v=64
31949 Off ch=10 n=70 v=64
32041 On ch=10 n=82 v=45
32044 On ch=10 n=42 v=46
32066 Off ch=10 n=82 v=64
32069 Off ch=10 n=42 v=64
32158 On ch=10 n=36 v=114
32158 On ch=10 n=38 v=99
32158 On ch=10 n=42 v=79
32158 On ch=10 n=70 v=56
32160 On ch=10 n=82 v=41
32162 On ch=10 n=63 v=72
32164 On ch=10 n=39 v=88
32183 Off ch=10 n=70 v=64
32183 Off ch=10 n=42 v=64
32183 Off ch=10 n=38 v=64
32183 Off ch=10 n=36 v=64
32185 Off ch=10 n=82 v=64
32187 Off ch=10 n=63 v=64
32189 Off ch=10 n=39 v=64
32281 On ch=10 n=82 v=36
32306 Off ch=10 n=82 v=64
32395 On ch=10 n=70 v=70
32396 On ch=10 n=40 v=45
32396 On ch=10 n=64 v=67
32397 On ch=10 n=69 v=53
32398 On ch=10 n=46 v=72
32401 On ch=10 n=82 v=56
32420 Off ch=10 n=70 v=64
32421 Off ch=10 n=64 v=64
32421 Off ch=10 n=40 v=64
32422 Off ch=10 n=69 v=64
32423 Off ch=10 n=46 v=64
32426 Off ch=10 n=82 v=64
32515 On ch=10 n=64 v=60
32519 On ch=10 n=82 v=47
32522 On ch=10 n=40 v=40
32528 On ch=10 n=42 v=46
32540 Off ch=10 n=64 v=64
32544 Off ch=10 n=82 v=64
32547 Off ch=10 n=40 v=64
32553 Off ch=10 n=42 v=64
32637 On ch=10 n=35 v=51
32638 On ch=10 n=42 v=82
32641 On ch=10 n=82 v=43
32642 On ch=10 n=70 v=56
32643 On ch=10 n=64 v=69
32662 Off ch=10 n=35 v=64
32663 Off ch=10 n=42 v=64
32666 Off ch=10 n=82 v=64
32667 Off ch=10 n=70 v=64
32668 Off ch=10 n=64 v=64
32765 On ch=10 n=82 v=36
32790 Off ch=10 n=82 v=64
32874 On ch=10 n=35 v=47
32875 On ch=10 n=70 v=67
32877 On ch=10 n=69 v=53
32878 On ch=10 n=46 v=69
32878 On ch=10 n=82 v=54
32884 On ch=10 n=62 v=74
32899 Off ch=10 n=35 v=64
32900 Off ch=10 n=70 v=64
32902 Off ch=10 n=69 v=64
32903 Off ch=10 n=82 v=64
32903 Off ch=10 n=46 v=64
32909 Off ch=10 n=62 v=64
32998 On ch=10 n=82 v=45
33001 On ch=10 n=35 v=46
33020 On ch=10 n=42 v=46
33023 Off ch=10 n=82 v=64
33026 Off ch=10 n=35 v=64
33045 Off ch=10 n=42 v=64
33118 On ch=10 n=38 v=99
33118 On ch=10 n=42 v=79
33122 On ch=10 n=63 v=80
33124 On ch=10 n=70 v=57
33124 On ch=10 n=82 v=38
33125 On ch=10 n=39 v=90
33143 Off ch=10 n=42 v=64
33143 Off ch=10 n=38 v=64
33147 Off ch=10 n=63 v=64
33149 Off ch=10 n=82 v=64
33149 Off ch=10 n=70 v=64
33150 Off ch=10 n=39 v=64
33240 On ch=10 n=82 v=36
33265 Off ch=10 n=82 v=64
33353 On ch=10 n=70 v=68
33357 On ch=10 n=82 v=57
33358 On ch=10 n=46 v=70
33361 On ch=10 n=35 v=53
33361 On ch=10 n=69 v=56
33365 On ch=10 n=64 v=67
33378 Off ch=10 n=70 v=64
33382 Off ch=10 n=82 v=64
33383 Off ch=10 n=46 v=64
33386 Off ch=10 n=69 v=64
33386 Off ch=10 n=35 v=64
33390 Off ch=10 n=64 v=64
33477 On ch=10 n=64 v=54
33481 On ch=10 n=82 v=46
33481 On ch=10 n=40 v=56
33497 On ch=10 n=42 v=46
33502 Off ch=10 n=64 v=64
33506 Off ch=10 n=40 v=64
33506 Off ch=10 n=82 v=64
33522 Off ch=10 n=42 v=64
33596 On ch=10 n=35 v=50
33598 On ch=10 n=42 v=81
33599 On ch=10 n=82 v=38
33600 On ch=10 n=64 v=69
33604 On ch=10 n=70 v=57
33621 Off ch=10 n=35 v=64
33623 Off ch=10 n=42 v=64
33624 Off ch=10 n=82 v=64
33625 Off ch=10 n=64 v=64
33629 Off ch=10 n=70 v=64
33719 On ch=10 n=82 v=34
33720 On ch=10 n=40 v=49
33744 Off ch=10 n=82 v=64
33745 Off ch=10 n=40 v=64
33832 On ch=10 n=69 v=55
33838 On ch=10 n=46 v=70
33838 On ch=10 n=35 v=42
33839 On ch=10 n=82 v=57
33840 On ch=10 n=70 v=67
33845 On ch=10 n=62 v=59
33857 Off ch=10 n=69 v=64
33863 Off ch=10 n=35 v=64
33863 Off ch=10 n=46 v=64
33864 Off ch=10 n=82 v=64
33865 Off ch=10 n=70 v=64
33870 Off ch=10 n=62 v=64
33955 On ch=10 n=82 v=44
33973 On ch=10 n=42 v=46
33980 Off ch=10 n=82 v=64
33998 Off ch=10 n=42 v=64
34074 On ch=10 n=63 v=69
34077 On ch=10 n=82 v=43
34078 On ch=10 n=38 v=99
34078 On ch=10 n=42 v=78
34082 On ch=10 n=70 v=59
34086 On ch=10 n=39 v=92
34099 Off ch=10 n=63 v=64
34102 Off ch=10 n=82 v=64
34103 Off ch=10 n=42 v=64
34103 Off ch=10 n=38 v=64
34107 Off ch=10 n=70 v=64
34111 Off ch=10 n=39 v=64
34200 On ch=10 n=82 v=37
34225 Off ch=10 n=82 v=64
34311 On ch=10 n=69 v=53
34314 On ch=10 n=70 v=70
34316 On ch=10 n=40 v=48
34318 On ch=10 n=46 v=71
34320 On ch=10 n=64 v=65
34323 On ch=10 n=82 v=56
34336 Off ch=10 n=69 v=64
34339 Off ch=10 n=70 v=64
34341 Off ch=10 n=40 v=64
34343 Off ch=10 n=46 v=64
34345 Off ch=10 n=64 v=64
34348 Off ch=10 n=82 v=64
34434 On ch=10 n=64 v=56
34436 On ch=10 n=40 v=39
34443 On ch=10 n=82 v=45
34459 Off ch=10 n=64 v=64
34461 Off ch=10 n=40 v=64
34462 On ch=10 n=42 v=46
34468 Off ch=10 n=82 v=64
34487 Off ch=10 n=42 v=64
34562 On ch=10 n=44 v=62
34587 Off ch=10 n=44 v=64
35039 On ch=10 n=44 v=71
35064 Off ch=10 n=44 v=64
35516 On ch=10 n=44 v=65
35541 Off ch=10 n=44 v=64
36001 On ch=10 n=44 v=73
36026 Off ch=10 n=44 v=64
36478 On ch=10 n=36 v=117
36478 On ch=10 n=42 v=82
36478 On ch=10 n=49 v=77
36478 On ch=10 n=70 v=59
36481 On ch=10 n=64 v=68
36503 Off ch=10 n=70 v=64
36503 Off ch=10 n=42 v=64
36503 Off ch=10 n=36 v=64
36506 Off ch=10 n=64 v=64
36718 On ch=10 n=42 v=73
36718 On ch=10 n=70 v=66
36721 On ch=10 n=62 v=72
36743 Off ch=10 n=70 v=64
36743 Off ch=10 n=42 v=64
36746 Off ch=10 n=62 v=64
36957 On ch=10 n=63 v=75
36958 On ch=10 n=36 v=114
36958 On ch=10 n=38 v=99
36958 On ch=10 n=42 v=81
36962 On ch=10 n=70 v=59
36982 Off ch=10 n=63 v=64
36983 Off ch=10 n=42 v=64
36983 Off ch=10 n=38 v=64
36983 Off ch=10 n=36 v=64
36987 Off ch=10 n=70 v=64
37196 On ch=10 n=64 v=70
37198 On ch=10 n=42 v=76
37199 On ch=10 n=70 v=66
37221 Off ch=10 n=64 v=64
37223 Off ch=10 n=42 v=64
37224 Off ch=10 n=70 v=64
37320 On ch=10 n=64 v=53
37345 Off ch=10 n=64 v=64
37434 On ch=10 n=70 v=57
37437 On ch=10 n=64 v=72
37438 On ch=10 n=36 v=117
37438 On ch=10 n=42 v=83
37459 Off ch=10 n=70 v=64
37462 Off ch=10 n=64 v=64
37463 Off ch=10 n=42 v=64
37463 Off ch=10 n=36 v=64
37677 On ch=10 n=70 v=69
37678 On ch=10 n=42 v=73
37684 On ch=10 n=62 v=61
37702 Off ch=10 n=70 v=64
37703 Off ch=10 n=42 v=64
37709 Off ch=10 n=62 v=64
37914 On ch=10 n=70 v=57
37916 On ch=10 n=63 v=72
37918 On ch=10 n=36 v=114
37918 On ch=10 n=38 v=99
37918 On ch=10 n=42 v=79
37939 Off ch=10 n=70 v=64
37941 Off ch=10 n=63 v=64
37943 Off ch=10 n=42 v=64
37943 Off ch=10 n=38 v=64
37943 Off ch=10 n=36 v=64
38154 On ch=10 n=70 v=67
38157 On ch=10 n=64 v=64
38158 On ch=10 n=42 v=72
38179 Off ch=10 n=70 v=64
38182 Off ch=10 n=64 v=64
38183 Off ch=10 n=42 v=64
38275 On ch=10 n=64 v=60
38300 Off ch=10 n=64 v=64
38388 Off ch=10 n=49 v=64
38398 On ch=10 n=36 v=117
38398 On ch=10 n=42 v=82
38402 On ch=10 n=64 v=67
38404 On ch=10 n=70 v=56
38423 Off ch=10 n=42 v=64
38423 Off ch=10 n=36 v=64
38427 Off ch=10 n=64 v=64
38429 Off ch=10 n=70 v=64
38637 On ch=10 n=62 v=69
38638 On ch=10 n=42 v=75
38640 On ch=10 n=70 v=65
38662 Off ch=10 n=62 v=64
38663 Off ch=10 n=42 v=64
38665 Off ch=10 n=70 v=64
38878 On ch=10 n=36 v=114
38878 On ch=10 n=38 v=99
38878 On ch=10 n=42 v=79
38880 On ch=10 n=63 v=75
38880 On ch=10 n=70 v=56
38903 Off ch=10 n=42 v=64
38903 Off ch=10 n=38 v=64
38903 Off ch=10 n=36 v=64
38905 Off ch=10 n=70 v=64
38905 Off ch=10 n=63 v=64
39118 On ch=10 n=42 v=72
39123 On ch=10 n=64 v=69
39124 On ch=10 n=70 v=69
39143 Off ch=10 n=42 v=64
39148 Off ch=10 n=64 v=64
39149 Off ch=10 n=70 v=64
39235 On ch=10 n=64 v=53
39260 Off ch=10 n=64 v=64
39355 On ch=10 n=70 v=57
39357 On ch=10 n=64 v=70
39358 On ch=10 n=36 v=117
39358 On ch=10 n=42 v=81
39380 Off ch=10 n=70 v=64
39382 Off ch=10 n=64 v=64
39383 Off ch=10 n=42 v=64
39383 Off ch=10 n=36 v=64
39834 On ch=10 n=70 v=56
39838 On ch=10 n=36 v=114
39838 On ch=10 n=38 v=99
39838 On ch=10 n=42 v=76
39859 Off ch=10 n=70 v=64
39863 Off ch=10 n=42 v=64
39863 Off ch=10 n=38 v=64
39863 Off ch=10 n=36 v=64
40317 On ch=10 n=64 v=67
40318 On ch=10 n=36 v=117
40318 On ch=10 n=42 v=80
40318 On ch=10 n=70 v=56
40342 Off ch=10 n=64 v=64
40343 Off ch=10 n=70 v=64
40343 Off ch=10 n=42 v=64
40343 Off ch=10 n=36 v=64
40553 On ch=10 n=70 v=65
40558 On ch=10 n=42 v=75
40561 On ch=10 n=62 v=71
40578 Off ch=10 n=70 v=64
40583 Off ch=10 n=42 v=64
40586 Off ch=10 n=62 v=64
40795 On ch=10 n=63 v=80
40798 On ch=10 n=36 v=114
40798 On ch=10 n=38 v=99
40798 On ch=10 n=42 v=79
40799 On ch=10 n=70 v=59
40820 Off ch=10 n=63 v=64
40823 Off ch=10 n=42 v=64
40823 Off ch=10 n=38 v=64
40823 Off ch=10 n=36 v=64
40824 Off ch=10 n=70 v=64
41038 On ch=10 n=42 v=72
41041 On ch=10 n=64 v=70
41042 On ch=10 n=70 v=70
41063 Off ch=10 n=42 v=64
41066 Off ch=10 n=64 v=64
41067 Off ch=10 n=70 v=64
41156 On ch=10 n=64 v=56
41181 Off ch=10 n=64 v=64
41278 On ch=10 n=36 v=117
41278 On ch=10 n=42 v=80
41279 On ch=10 n=70 v=56
41282 On ch=10 n=64 v=68
41303 Off ch=10 n=42 v=64
41303 Off ch=10 n=36 v=64
41304 Off ch=10 n=70 v=64
41307 Off ch=10 n=64 v=64
41518 On ch=10 n=42 v=72
41518 On ch=10 n=70 v=67
41521 On ch=10 n=62 v=60
41543 Off ch=10 n=70 v=64
41543 Off ch=10 n=42 v=64
41546 Off ch=10 n=62 v=64
41756 On ch=10 n=70 v=56
41758 On ch=10 n=36 v=114
41758 On ch=10 n=38 v=99
41758 On ch=10 n=42 v=80
41761 On ch=10 n=63 v=71
41781 Off ch=10 n=70 v=64
41783 Off ch=10 n=42 v=64
41783 Off ch=10 n=38 v=64
41783 Off ch=10 n=36 v=64
41786 Off ch=10 n=63 v=64
41998 On ch=10 n=42 v=76
42002 On ch=10 n=70 v=69
42005 On ch=10 n=64 v=63
42023 Off ch=10 n=42 v=64
42027 Off ch=10 n=70 v=64
42030 Off ch=10 n=64 v=64
42121 On ch=10 n=64 v=59
42146 Off ch=10 n=64 v=64
42238 On ch=10 n=36 v=117
42238 On ch=10 n=42 v=81
42240 On ch=10 n=64 v=68
42242 On ch=10 n=70 v=59
42263 Off ch=10 n=42 v=64
42263 Off ch=10 n=36 v=64
42265 Off ch=10 n=64 v=64
42267 Off ch=10 n=70 v=64
42476 On ch=10 n=62 v=70
42478 On ch=10 n=42 v=73
42484 On ch=10 n=70 v=66
42501 Off ch=10 n=62 v=64
42503 Off ch=10 n=42 v=64
42509 Off ch=10 n=70 v=64
42715 On ch=10 n=70 v=57
42718 On ch=10 n=36 v=114
42718 On ch=10 n=38 v=99
42718 On ch=10 n=42 v=79
42724 On ch=10 n=63 v=78
42740 Off ch=10 n=70 v=64
42743 Off ch=10 n=42 v=64
42743 Off ch=10 n=38 v=64
42743 Off ch=10 n=36 v=64
42749 Off ch=10 n=63 v=64
42953 On ch=10 n=70 v=69
42958 On ch=10 n=42 v=74
42959 On ch=10 n=64 v=70
42978 Off ch=10 n=70 v=64
42983 Off ch=10 n=42 v=64
42984 Off ch=10 n=64 v=64
43085 On ch=10 n=64 v=57
43110 Off ch=10 n=64 v=64
43680 On ch=10 n=44 v=57
43705 Off ch=10 n=44 v=64
44641 On ch=10 n=44 v=69
44666 Off ch=10 n=44 v=64
45117 On ch=10 n=70 v=58
45118 On ch=10 n=36 v=117
45118 On ch=10 n=42 v=83
45118 On ch=10 n=49 v=80
45125 On ch=10 n=64 v=69
45142 Off ch=10 n=70 v=64
45143 Off ch=10 n=42 v=64
45143 Off ch=10 n=36 v=64
45150 Off ch=10 n=64 v=64
45358 On ch=10 n=42 v=73
45363 On ch=10 n=70 v=70
45364 On ch=10 n=62 v=58
45383 Off ch=10 n=42 v=64
45388 Off ch=10 n=70 v=64
45389 Off ch=10 n=62 v=64
45597 On ch=10 n=70 v=56
45598 On ch=10 n=36 v=114
45598 On ch=10 n=38 v=99
45598 On ch=10 n=42 v=78
45600 On ch=10 n=63 v=66
45622 Off ch=10 n=70 v=64
45623 Off ch=10 n=42 v=64
45623 Off ch=10 n=38 v=64
45623 Off ch=10 n=36 v=64
45625 Off ch=10 n=63 v=64
45836 On ch=10 n=64 v=65
45838 On ch=10 n=42 v=75
45839 On ch=10 n=70 v=70
45861 Off ch=10 n=64 v=64
45863 Off ch=10 n=42 v=64
45864 Off ch=10 n=70 v=64
45958 On ch=10 n=64 v=60
45983 Off ch=10 n=64 v=64
46074 On ch=10 n=70 v=57
46076 On ch=10 n=64 v=65
46078 On ch=10 n=36 v=117
46078 On ch=10 n=42 v=82
46099 Off ch=10 n=70 v=64
46101 Off ch=10 n=64 v=64
46103 Off ch=10 n=42 v=64
46103 Off ch=10 n=36 v=64
46318 On ch=10 n=42 v=76
46320 On ch=10 n=62 v=72
46324 On ch=10 n=70 v=67
46343 Off ch=10 n=42 v=64
46345 Off ch=10 n=62 v=64
46349 Off ch=10 n=70 v=64
46558 On ch=10 n=36 v=114
46558 On ch=10 n=38 v=99
46558 On ch=10 n=42 v=78
46559 On ch=10 n=63 v=75
46561 On ch=10 n=70 v=59
46583 Off ch=10 n=42 v=64
46583 Off ch=10 n=38 v=64
46583 Off ch=10 n=36 v=64
46584 Off ch=10 n=63 v=64
46586 Off ch=10 n=70 v=64
46796 On ch=10 n=70 v=68
46798 On ch=10 n=42 v=76
46799 On ch=10 n=64 v=72
46821 Off ch=10 n=70 v=64
46823 Off ch=10 n=42 v=64
46824 Off ch=10 n=64 v=64
46914 On ch=10 n=64 v=54
46939 Off ch=10 n=64 v=64
47028 Off ch=10 n=49 v=64
47035 On ch=10 n=70 v=59
47038 On ch=10 n=36 v=117
47038 On ch=10 n=42 v=82
47039 On ch=10 n=64 v=70
47060 Off ch=10 n=70 v=64
47063 Off ch=10 n=42 v=64
47063 Off ch=10 n=36 v=64
47064 Off ch=10 n=64 v=64
47277 On ch=10 n=70 v=68
47278 On ch=10 n=42 v=73
47284 On ch=10 n=62 v=61
47302 Off ch=10 n=70 v=64
47303 Off ch=10 n=42 v=64
47309 Off ch=10 n=62 v=64
47518 On ch=10 n=36 v=114
47518 On ch=10 n=38 v=99
47518 On ch=10 n=42 v=79
47518 On ch=10 n=63 v=67
47518 On ch=10 n=70 v=56
47543 Off ch=10 n=70 v=64
47543 Off ch=10 n=63 v=64
47543 Off ch=10 n=42 v=64
47543 Off ch=10 n=38 v=64
47543 Off ch=10 n=36 v=64
47755 On ch=10 n=70 v=67
47758 On ch=10 n=42 v=74
47761 On ch=10 n=64 v=62
47780 Off ch=10 n=70 v=64
47783 Off ch=10 n=42 v=64
47786 Off ch=10 n=64 v=64
47877 On ch=10 n=64 v=56
47902 Off ch=10 n=64 v=64
47995 On ch=10 n=64 v=69
47998 On ch=10 n=36 v=117
47998 On ch=10 n=42 v=83
47998 On ch=10 n=70 v=56
48020 Off ch=10 n=64 v=64
48023 Off ch=10 n=70 v=64
48023 Off ch=10 n=42 v=64
48023 Off ch=10 n=36 v=64
48238 On ch=10 n=42 v=74
48242 On ch=10 n=62 v=73
48243 On ch=10 n=70 v=67
48263 Off ch=10 n=42 v=64
48267 Off ch=10 n=62 v=64
48268 Off ch=10 n=70 v=64
48477 On ch=10 n=70 v=56
48478 On ch=10 n=36 v=114
48478 On ch=10 n=38 v=99
48478 On ch=10 n=42 v=78
48484 On ch=10 n=63 v=76
48502 Off ch=10 n=70 v=64
48503 Off ch=10 n=42 v=64
48503 Off ch=10 n=38 v=64
48503 Off ch=10 n=36 v=64
48509 Off ch=10 n=63 v=64
48718 On ch=10 n=42 v=72
48718 On ch=10 n=70 v=68
48724 On ch=10 n=64 v=68
48743 Off ch=10 n=70 v=64
48743 Off ch=10 n=42 v=64
48749 Off ch=10 n=64 v=64
48838 On ch=10 n=64 v=59
48863 Off ch=10 n=64 v=64
48958 On ch=10 n=36 v=117
48958 On ch=10 n=42 v=81
48958 On ch=10 n=64 v=67
48964 On ch=10 n=70 v=60
48983 Off ch=10 n=64 v=64
48983 Off ch=10 n=42 v=64
48983 Off ch=10 n=36 v=64
48989 Off ch=10 n=70 v=64
49198 On ch=10 n=42 v=74
49202 On ch=10 n=70 v=66
49202 On ch=10 n=62 v=62
49223 Off ch=10 n=42 v=64
49227 Off ch=10 n=62 v=64
49227 Off ch=10 n=70 v=64
49438 On ch=10 n=36 v=114
49438 On ch=10 n=38 v=99
49438 On ch=10 n=42 v=77
49439 On ch=10 n=70 v=56
49444 On ch=10 n=63 v=71
49463 Off ch=10 n=42 v=64
49463 Off ch=10 n=38 v=64
49463 Off ch=10 n=36 v=64
49464 Off ch=10 n=70 v=64
49469 Off ch=10 n=63 v=64
49678 On ch=10 n=42 v=74
49679 On ch=10 n=64 v=67
49683 On ch=10 n=70 v=69
49703 Off ch=10 n=42 v=64
49704 Off ch=10 n=64 v=64
49708 Off ch=10 n=70 v=64
49800 On ch=10 n=64 v=59
49825 Off ch=10 n=64 v=64
49918 On ch=10 n=36 v=117
49918 On ch=10 n=42 v=85
49918 On ch=10 n=64 v=68
49922 On ch=10 n=70 v=56
49943 Off ch=10 n=64 v=64
49943 Off ch=10 n=42 v=64
49943 Off ch=10 n=36 v=64
49947 Off ch=10 n=70 v=64
50158 On ch=10 n=42 v=72
50162 On ch=10 n=62 v=71
50183 Off ch=10 n=42 v=64
50187 Off ch=10 n=62 v=64
50395 On ch=10 n=63 v=74
50398 On ch=10 n=36 v=114
50398 On ch=10 n=38 v=99
50398 On ch=10 n=42 v=78
50420 Off ch=10 n=63 v=64
50423 Off ch=10 n=42 v=64
50423 Off ch=10 n=38 v=64
50423 Off ch=10 n=36 v=64
50638 On ch=10 n=42 v=74
50641 On ch=10 n=64 v=71
50663 Off ch=10 n=42 v=64
50666 Off ch=10 n=64 v=64
50755 On ch=10 n=64 v=57
50780 Off ch=10 n=64 v=64
50878 On ch=10 n=42 v=79
50879 On ch=10 n=64 v=71
50903 Off ch=10 n=42 v=64
50904 Off ch=10 n=64 v=64
51118 On ch=10 n=42 v=74
51143 Off ch=10 n=42 v=64
51358 On ch=10 n=42 v=79
51383 Off ch=10 n=42 v=64
51598 On ch=10 n=42 v=73
51623 Off ch=10 n=42 v=64
51838 On ch=10 n=36 v=117
51838 On ch=10 n=42 v=81
51838 On ch=10 n=57 v=73
51840 On ch=10 n=64 v=69
51843 On ch=10 n=70 v=56
51863 Off ch=10 n=42 v=64
51863 Off ch=10 n=36 v=64
51865 Off ch=10 n=64 v=64
51868 Off ch=10 n=70 v=64
52078 On ch=10 n=42 v=75
52078 On ch=10 n=62 v=71
52083 On ch=10 n=70 v=69
52103 Off ch=10 n=62 v=64
52103 Off ch=10 n=42 v=64
52108 Off ch=10 n=70 v=64
52317 On ch=10 n=63 v=76
52318 On ch=10 n=36 v=114
52318 On ch=10 n=38 v=99
52318 On ch=10 n=42 v=78
52320 On ch=10 n=70 v=56
52342 Off ch=10 n=63 v=64
52343 Off ch=10 n=42 v=64
52343 Off ch=10 n=38 v=64
52343 Off ch=10 n=36 v=64
52345 Off ch=10 n=70 v=64
52556 On ch=10 n=64 v=68
52558 On ch=10 n=42 v=76
52563 On ch=10 n=70 v=67
52581 Off ch=10 n=64 v=64
52583 Off ch=10 n=42 v=64
52588 Off ch=10 n=70 v=64
52684 On ch=10 n=64 v=56
52709 Off ch=10 n=64 v=64
52796 On ch=10 n=70 v=59
52798 On ch=10 n=36 v=117
52798 On ch=10 n=42 v=83
52801 On ch=10 n=64 v=70
52821 Off ch=10 n=70 v=64
52823 Off ch=10 n=42 v=64
52823 Off ch=10 n=36 v=64
52826 Off ch=10 n=64 v=64
53038 On ch=10 n=42 v=74
53039 On ch=10 n=62 v=58
53039 On ch=10 n=70 v=67
53063 Off ch=10 n=42 v=64
53064 Off ch=10 n=70 v=64
53064 Off ch=10 n=62 v=64
53275 On ch=10 n=63 v=69
53278 On ch=10 n=36 v=114
53278 On ch=10 n=38 v=99
53278 On ch=10 n=42 v=77
53280 On ch=10 n=70 v=59
53300 Off ch=10 n=63 v=64
53303 Off ch=10 n=42 v=64
53303 Off ch=10 n=38 v=64
53303 Off ch=10 n=36 v=64
53305 Off ch=10 n=70 v=64
53515 On ch=10 n=64 v=67
53515 On ch=10 n=70 v=70
53518 On ch=10 n=42 v=72
53540 Off ch=10 n=70 v=64
53540 Off ch=10 n=64 v=64
53543 Off ch=10 n=42 v=64
53645 On ch=10 n=64 v=59
53670 Off ch=10 n=64 v=64
53748 Off ch=10 n=57 v=64
53754 On ch=10 n=64 v=70
53758 On ch=10 n=36 v=117
53758 On ch=10 n=42 v=82
53762 On ch=10 n=70 v=56
53779 Off ch=10 n=64 v=64
53783 Off ch=10 n=42 v=64
53783 Off ch=10 n=36 v=64
53787 Off ch=10 n=70 v=64
53998 On ch=10 n=42 v=73
53999 On ch=10 n=70 v=67
54003 On ch=10 n=62 v=69
54023 Off ch=10 n=42 v=64
54024 Off ch=10 n=70 v=64
54028 Off ch=10 n=62 v=64
54238 On ch=10 n=36 v=114
54238 On ch=10 n=38 v=99
54238 On ch=10 n=42 v=78
54239 On ch=10 n=63 v=76
54243 On ch=10 n=70 v=56
54263 Off ch=10 n=42 v=64
54263 Off ch=10 n=38 v=64
54263 Off ch=10 n=36 v=64
54264 Off ch=10 n=63 v=64
54268 Off ch=10 n=70 v=64
54475 On ch=10 n=64 v=67
54478 On ch=10 n=42 v=73
54481 On ch=10 n=70 v=67
54500 Off ch=10 n=64 v=64
54503 Off ch=10 n=42 v=64
54506 Off ch=10 n=70 v=64
54603 On ch=10 n=64 v=56
54628 Off ch=10 n=64 v=64
54714 On ch=10 n=64 v=70
54718 On ch=10 n=36 v=117
54718 On ch=10 n=42 v=81
54721 On ch=10 n=70 v=57
54739 Off ch=10 n=64 v=64
54743 Off ch=10 n=42 v=64
54743 Off ch=10 n=36 v=64
54746 Off ch=10 n=70 v=64
54955 On ch=10 n=62 v=59
54958 On ch=10 n=42 v=75
54960 On ch=10 n=70 v=67
54980 Off ch=10 n=62 v=64
54983 Off ch=10 n=42 v=64
54985 Off ch=10 n=70 v=64
55197 On ch=10 n=70 v=56
55198 On ch=10 n=36 v=114
55198 On ch=10 n=38 v=99
55198 On ch=10 n=42 v=79
55205 On ch=10 n=63 v=71
55222 Off ch=10 n=70 v=64
55223 Off ch=10 n=42 v=64
55223 Off ch=10 n=38 v=64
55223 Off ch=10 n=36 v=64
55230 Off ch=10 n=63 v=64
55438 On ch=10 n=42 v=76
55438 On ch=10 n=64 v=62
55439 On ch=10 n=70 v=69
55463 Off ch=10 n=64 v=64
55463 Off ch=10 n=42 v=64
55464 Off ch=10 n=70 v=64
55562 On ch=10 n=64 v=59
55587 Off ch=10 n=64 v=64
55678 On ch=10 n=36 v=117
55678 On ch=10 n=42 v=82
55682 On ch=10 n=70 v=57
55683 On ch=10 n=64 v=66
55703 Off ch=10 n=42 v=64
55703 Off ch=10 n=36 v=64
55707 Off ch=10 n=70 v=64
55708 Off ch=10 n=64 v=64
55914 On ch=10 n=70 v=69
55915 On ch=10 n=62 v=71
55918 On ch=10 n=42 v=76
55939 Off ch=10 n=70 v=64
55940 Off ch=10 n=62 v=64
55943 Off ch=10 n=42 v=64
56154 On ch=10 n=70 v=59
56158 On ch=10 n=36 v=114
56158 On ch=10 n=38 v=99
56158 On ch=10 n=42 v=77
56159 On ch=10 n=63 v=74
56179 Off ch=10 n=70 v=64
56183 Off ch=10 n=42 v=64
56183 Off ch=10 n=38 v=64
56183 Off ch=10 n=36 v=64
56184 Off ch=10 n=63 v=64
56397 On ch=10 n=64 v=68
56398 On ch=10 n=42 v=74
56399 On ch=10 n=70 v=68
56422 Off ch=10 n=64 v=64
56423 Off ch=10 n=42 v=64
56424 Off ch=10 n=70 v=64
56514 On ch=10 n=64 v=59
56539 Off ch=10 n=64 v=64
56635 On ch=10 n=70 v=60
56638 On ch=10 n=36 v=117
56638 On ch=10 n=42 v=80
56641 On ch=10 n=64 v=70
56660 Off ch=10 n=70 v=64
56663 Off ch=10 n=42 v=64
56663 Off ch=10 n=36 v=64
56666 Off ch=10 n=64 v=64
56878 On ch=10 n=42 v=76
56880 On ch=10 n=62 v=58
56881 On ch=10 n=70 v=66
56903 Off ch=10 n=42 v=64
56905 Off ch=10 n=62 v=64
56906 Off ch=10 n=70 v=64
57114 On ch=10 n=70 v=57
57118 On ch=10 n=36 v=114
57118 On ch=10 n=38 v=99
57118 On ch=10 n=42 v=76
57120 On ch=10 n=63 v=70
57139 Off ch=10 n=70 v=64
57143 Off ch=10 n=42 v=64
57143 Off ch=10 n=38 v=64
57143 Off ch=10 n=36 v=64
57145 Off ch=10 n=63 v=64
57354 On ch=10 n=64 v=65
57358 On ch=10 n=42 v=76
57362 On ch=10 n=70 v=68
57379 Off ch=10 n=64 v=64
57383 Off ch=10 n=42 v=64
57387 Off ch=10 n=70 v=64
57483 On ch=10 n=64 v=60
57508 Off ch=10 n=64 v=64
57598 On ch=10 n=36 v=117
57598 On ch=10 n=42 v=84
57602 On ch=10 n=70 v=58
57604 On ch=10 n=64 v=68
57623 Off ch=10 n=42 v=64
57623 Off ch=10 n=36 v=64
57627 Off ch=10 n=70 v=64
57629 Off ch=10 n=64 v=64
57836 On ch=10 n=62 v=70
57838 On ch=10 n=42 v=74
57840 On ch=10 n=70 v=66
57861 Off ch=10 n=62 v=64
57863 Off ch=10 n=42 v=64
57865 Off ch=10 n=70 v=64
58076 On ch=10 n=63 v=77
58076 On ch=10 n=70 v=59
58078 On ch=10 n=36 v=114
58078 On ch=10 n=38 v=99
58078 On ch=10 n=42 v=77
58101 Off ch=10 n=70 v=64
58101 Off ch=10 n=63 v=64
58103 Off ch=10 n=42 v=64
58103 Off ch=10 n=38 v=64
58103 Off ch=10 n=36 v=64
58317 On ch=10 n=70 v=70
58318 On ch=10 n=42 v=76
58323 On ch=10 n=64 v=70
58342 Off ch=10 n=70 v=64
58343 Off ch=10 n=42 v=64
58348 Off ch=10 n=64 v=64
58439 On ch=10 n=64 v=56
58464 Off ch=10 n=64 v=64
58558 On ch=10 n=36 v=117
58558 On ch=10 n=42 v=79
58560 On ch=10 n=70 v=58
58561 On ch=10 n=64 v=73
58583 Off ch=10 n=42 v=64
58583 Off ch=10 n=36 v=64
58585 Off ch=10 n=70 v=64
58586 Off ch=10 n=64 v=64
58798 On ch=10 n=42 v=76
58802 On ch=10 n=70 v=66
58803 On ch=10 n=62 v=61
58823 Off ch=10 n=42 v=64
58827 Off ch=10 n=70 v=64
58828 Off ch=10 n=62 v=64
59034 On ch=10 n=63 v=67
59038 On ch=10 n=36 v=114
59038 On ch=10 n=38 v=99
59038 On ch=10 n=42 v=79
59042 On ch=10 n=70 v=59
59059 Off ch=10 n=63 v=64
59063 Off ch=10 n=42 v=64
59063 Off ch=10 n=38 v=64
59063 Off ch=10 n=36 v=64
59067 Off ch=10 n=70 v=64
59275 On ch=10 n=70 v=67
59278 On ch=10 n=42 v=75
59285 On ch=10 n=64 v=62
59300 Off ch=10 n=70 v=64
59303 Off ch=10 n=42 v=64
59310 Off ch=10 n=64 v=64
59397 On ch=10 n=64 v=56
59422 Off ch=10 n=64 v=64
59517 On ch=10 n=64 v=67
59518 On ch=10 n=36 v=117
59518 On ch=10 n=42 v=80
59521 On ch=10 n=70 v=59
59542 Off ch=10 n=64 v=64
59543 Off ch=10 n=42 v=64
59543 Off ch=10 n=36 v=64
59546 Off ch=10 n=70 v=64
59755 On ch=10 n=62 v=74
59756 On ch=10 n=70 v=68
59758 On ch=10 n=42 v=72
59780 Off ch=10 n=62 v=64
59781 Off ch=10 n=70 v=64
59783 Off ch=10 n=42 v=64
59998 On ch=10 n=36 v=114
59998 On ch=10 n=38 v=99
59998 On ch=10 n=42 v=77
59999 On ch=10 n=70 v=58
60003 On ch=10 n=63 v=78
60023 Off ch=10 n=42 v=64
60023 Off ch=10 n=38 v=64
60023 Off ch=10 n=36 v=64
60024 Off ch=10 n=70 v=64
60028 Off ch=10 n=63 v=64
60235 On ch=10 n=70 v=66
60238 On ch=10 n=42 v=73
60241 On ch=10 n=64 v=73
60260 Off ch=10 n=70 v=64
60263 Off ch=10 n=42 v=64
60266 Off ch=10 n=64 v=64
60358 On ch=10 n=64 v=54
60383 Off ch=10 n=64 v=64
60474 On ch=10 n=70 v=56
60478 On ch=10 n=36 v=117
60478 On ch=10 n=42 v=82
60484 On ch=10 n=64 v=70
60499 Off ch=10 n=70 v=64
60503 Off ch=10 n=42 v=64
60503 Off ch=10 n=36 v=64
60509 Off ch=10 n=64 v=64
60718 On ch=10 n=42 v=72
60723 On ch=10 n=62 v=63
60724 On ch=10 n=70 v=66
60743 Off ch=10 n=42 v=64
60748 Off ch=10 n=62 v=64
60749 Off ch=10 n=70 v=64
60958 On ch=10 n=36 v=114
60958 On ch=10 n=38 v=99
60958 On ch=10 n=42 v=76
60958 On ch=10 n=63 v=69
60959 On ch=10 n=70 v=56
60983 Off ch=10 n=63 v=64
60983 Off ch=10 n=42 v=64
60983 Off ch=10 n=38 v=64
60983 Off ch=10 n=36 v=64
60984 Off ch=10 n=70 v=64
61196 On ch=10 n=64 v=67
61198 On ch=10 n=42 v=74
61199 On ch=10 n=70 v=70
61221 Off ch=10 n=64 v=64
61223 Off ch=10 n=42 v=64
61224 Off ch=10 n=70 v=64
61325 On ch=10 n=64 v=60
61350 Off ch=10 n=64 v=64
61438 On ch=10 n=42 v=82
61441 On ch=10 n=70 v=55
61463 Off ch=10 n=42 v=64
61466 Off ch=10 n=70 v=64
61678 On ch=10 n=46 v=69
61683 On ch=10 n=70 v=66
61703 Off ch=10 n=46 v=64
61708 Off ch=10 n=70 v=64
61821 On ch=10 n=42 v=46
61846 Off ch=10 n=42 v=64
61918 On ch=10 n=42 v=80
61921 On ch=10 n=70 v=57
61943 Off ch=10 n=42 v=64
61946 Off ch=10 n=70 v=64
62153 On ch=10 n=70 v=67
62158 On ch=10 n=46 v=71
62178 Off ch=10 n=70 v=64
62183 Off ch=10 n=46 v=64
62284 On ch=10 n=42 v=46
62309 Off ch=10 n=42 v=64
62398 On ch=10 n=42 v=79
62399 On ch=10 n=70 v=59
62423 Off ch=10 n=42 v=64
62424 Off ch=10 n=70 v=64
62873 On ch=10 n=70 v=56
62878 On ch=10 n=38 v=99
62881 On ch=10 n=44 v=67
62898 Off ch=10 n=70 v=64
62903 Off ch=10 n=38 v=64
62906 Off ch=10 n=44 v=64
63355 On ch=10 n=70 v=56
63358 On ch=10 n=36 v=117
63358 On ch=10 n=42 v=82
63358 On ch=10 n=49 v=77
63364 On ch=10 n=64 v=66
63380 Off ch=10 n=70 v=64
63383 Off ch=10 n=42 v=64
63383 Off ch=10 n=36 v=64
63389 Off ch=10 n=64 v=64
63598 On ch=10 n=42 v=74
63602 On ch=10 n=70 v=67
63603 On ch=10 n=62 v=70
63623 Off ch=10 n=42 v=64
63627 Off ch=10 n=70 v=64
63628 Off ch=10 n=62 v=64
63837 On ch=10 n=63 v=77
63838 On ch=10 n=36 v=114
63838 On ch=10 n=38 v=99
63838 On ch=10 n=42 v=78
63840 On ch=10 n=70 v=56
63862 Off ch=10 n=63 v=64
63863 Off ch=10 n=42 v=64
63863 Off ch=10 n=38 v=64
63863 Off ch=10 n=36 v=64
63865 Off ch=10 n=70 v=64
64078 On ch=10 n=42 v=75
64078 On ch=10 n=70 v=69
64083 On ch=10 n=64 v=70
64103 Off ch=10 n=70 v=64
64103 Off ch=10 n=42 v=64
64108 Off ch=10 n=64 v=64
64199 On ch=10 n=64 v=54
64224 Off ch=10 n=64 v=64
64318 On ch=10 n=36 v=117
64318 On ch=10 n=42 v=81
64319 On ch=10 n=64 v=68
64323 On ch=10 n=70 v=58
64343 Off ch=10 n=42 v=64
64343 Off ch=10 n=36 v=64
64344 Off ch=10 n=64 v=64
64348 Off ch=10 n=70 v=64
64558 On ch=10 n=42 v=74
64562 On ch=10 n=62 v=62
64563 On ch=10 n=70 v=68
64583 Off ch=10 n=42 v=64
64587 Off ch=10 n=62 v=64
64588 Off ch=10 n=70 v=64
64798 On ch=10 n=36 v=114
64798 On ch=10 n=38 v=99
64798 On ch=10 n=42 v=77
64799 On ch=10 n=63 v=68
64804 On ch=10 n=70 v=56
64823 Off ch=10 n=42 v=64
64823 Off ch=10 n=38 v=64
64823 Off ch=10 n=36 v=64
64824 Off ch=10 n=63 v=64
64829 Off ch=10 n=70 v=64
65034 On ch=10 n=70 v=67
65038 On ch=10 n=42 v=72
65043 On ch=10 n=64 v=67
65059 Off ch=10 n=70 v=64
65063 Off ch=10 n=42 v=64
65068 Off ch=10 n=64 v=64
65154 On ch=10 n=64 v=59
65179 Off ch=10 n=64 v=64
65268 Off ch=10 n=49 v=64
65278 On ch=10 n=36 v=117
65278 On ch=10 n=42 v=85
65278 On ch=10 n=57 v=70
65283 On ch=10 n=70 v=59
65284 On ch=10 n=64 v=66
65303 Off ch=10 n=42 v=64
65303 Off ch=10 n=36 v=64
65308 Off ch=10 n=70 v=64
65309 Off ch=10 n=64 v=64
65515 On ch=10 n=70 v=66
65518 On ch=10 n=42 v=73
65518 On ch=10 n=62 v=70
65540 Off ch=10 n=70 v=64
65543 Off ch=10 n=62 v=64
65543 Off ch=10 n=42 v=64
65758 On ch=10 n=38 v=99
65758 On ch=10 n=42 v=78
65759 On ch=10 n=63 v=74
65760 On ch=10 n=70 v=56
65783 Off ch=10 n=42 v=64
65783 Off ch=10 n=38 v=64
65784 Off ch=10 n=63 v=64
65785 Off ch=10 n=70 v=64
65997 On ch=10 n=64 v=70
65998 On ch=10 n=42 v=73
66022 Off ch=10 n=64 v=64
66023 Off ch=10 n=42 v=64
66124 On ch=10 n=64 v=54
66149 Off ch=10 n=64 v=64
66238 On ch=10 n=42 v=79
66239 On ch=10 n=64 v=67
66263 Off ch=10 n=42 v=64
66264 Off ch=10 n=64 v=64
66478 On ch=10 n=42 v=75
66478 On ch=10 n=62 v=60
66503 Off ch=10 n=62 v=64
66503 Off ch=10 n=42 v=64
66717 On ch=10 n=63 v=72
66718 On ch=10 n=42 v=80
66742 Off ch=10 n=63 v=64
66743 Off ch=10 n=42 v=64
66958 On ch=10 n=42 v=72
66961 On ch=10 n=64 v=68
66983 Off ch=10 n=42 v=64
66986 Off ch=10 n=64 v=64
67078 On ch=10 n=64 v=58
67103 Off ch=10 n=64 v=64
67188 Off ch=10 n=57 v=64
67193 On ch=10 n=70 v=56
67197 On ch=10 n=64 v=68
67198 On ch=10 n=36 v=117
67198 On ch=10 n=42 v=82
67198 On ch=10 n=57 v=71
67218 Off ch=10 n=70 v=64
67222 Off ch=10 n=64 v=64
67223 Off ch=10 n=42 v=64
67223 Off ch=10 n=36 v=64
67438 On ch=10 n=42 v=76
67463 Off ch=10 n=42 v=64
67678 On ch=10 n=38 v=99
67678 On ch=10 n=42 v=79
67703 Off ch=10 n=42 v=64
67703 Off ch=10 n=38 v=64
67918 On ch=10 n=42 v=74
67943 Off ch=10 n=42 v=64
68158 On ch=10 n=42 v=79
68183 Off ch=10 n=42 v=64
68398 On ch=10 n=42 v=76
68423 Off ch=10 n=42 v=64
68638 On ch=10 n=38 v=99
68638 On ch=10 n=42 v=78
68663 Off ch=10 n=42 v=64
68663 Off ch=10 n=38 v=64
68878 On ch=10 n=42 v=76
68903 Off ch=10 n=42 v=64
69108 Off ch=10 n=57 v=64
69114 On ch=10 n=70 v=56
69115 On ch=10 n=64 v=68
69118 On ch=10 n=36 v=117
69118 On ch=10 n=42 v=83
69118 On ch=10 n=49 v=78
69139 Off ch=10 n=70 v=64
69140 Off ch=10 n=64 v=64
69143 Off ch=10 n=42 v=64
69143 Off ch=10 n=36 v=64
69355 On ch=10 n=69 v=55
69356 On ch=10 n=35 v=53
69358 On ch=10 n=46 v=72
69361 On ch=10 n=70 v=68
69361 On ch=10 n=62 v=74
69380 Off ch=10 n=69 v=64
69381 Off ch=10 n=35 v=64
69383 Off ch=10 n=46 v=64
69386 Off ch=10 n=62 v=64
69386 Off ch=10 n=70 v=64
69479 On ch=10 n=35 v=43
69486 On ch=10 n=42 v=46
69504 Off ch=10 n=35 v=64
69511 Off ch=10 n=42 v=64
69598 On ch=10 n=36 v=114
69598 On ch=10 n=38 v=99
69598 On ch=10 n=42 v=80
69598 On ch=10 n=70 v=59
69600 On ch=10 n=63 v=76
69602 On ch=10 n=39 v=89
69623 Off ch=10 n=70 v=64
69623 Off ch=10 n=42 v=64
69623 Off ch=10 n=38 v=64
69623 Off ch=10 n=36 v=64
69625 Off ch=10 n=63 v=64
69627 Off ch=10 n=39 v=64
69830 On ch=10 n=69 v=53
69835 On ch=10 n=70 v=66
69838 On ch=10 n=46 v=69
69839 On ch=10 n=35 v=50
69841 On ch=10 n=64 v=70
69855 Off ch=10 n=69 v=64
69860 Off ch=10 n=70 v=64
69863 Off ch=10 n=46 v=64
69864 Off ch=10 n=35 v=64
69866 Off ch=10 n=64 v=64
69958 On ch=10 n=40 v=55
69961 On ch=10 n=64 v=53
69982 On ch=10 n=42 v=46
69983 Off ch=10 n=40 v=64
69986 Off ch=10 n=64 v=64
70007 Off ch=10 n=42 v=64
70078 On ch=10 n=36 v=117
70078 On ch=10 n=42 v=81
70080 On ch=10 n=70 v=57
70083 On ch=10 n=64 v=69
70103 Off ch=10 n=42 v=64
70103 Off ch=10 n=36 v=64
70105 Off ch=10 n=70 v=64
70108 Off ch=10 n=64 v=64
70199 On ch=10 n=40 v=50
70224 Off ch=10 n=40 v=64
70316 On ch=10 n=69 v=58
70318 On ch=10 n=46 v=68
70319 On ch=10 n=35 v=40
70319 On ch=10 n=70 v=70
70324 On ch=10 n=62 v=61
70341 Off ch=10 n=69 v=64
70343 Off ch=10 n=46 v=64
70344 Off ch=10 n=70 v=64
70344 Off ch=10 n=35 v=64
70349 Off ch=10 n=62 v=64
70447 On ch=10 n=42 v=46
70472 Off ch=10 n=42 v=64
70554 On ch=10 n=63 v=68
70558 On ch=10 n=36 v=114
70558 On ch=10 n=38 v=99
70558 On ch=10 n=42 v=76
70559 On ch=10 n=70 v=56
70565 On ch=10 n=39 v=88
70579 Off ch=10 n=63 v=64
70583 Off ch=10 n=42 v=64
70583 Off ch=10 n=38 v=64
70583 Off ch=10 n=36 v=64
70584 Off ch=10 n=70 v=64
70590 Off ch=10 n=39 v=64
70794 On ch=10 n=64 v=65
70798 On ch=10 n=40 v=44
70798 On ch=10 n=46 v=70
70799 On ch=10 n=69 v=57
70800 On ch=10 n=70 v=69
70819 Off ch=10 n=64 v=64
70823 Off ch=10 n=46 v=64
70823 Off ch=10 n=40 v=64
70824 Off ch=10 n=69 v=64
70825 Off ch=10 n=70 v=64
70921 On ch=10 n=40 v=42
70924 On ch=10 n=64 v=61
70936 On ch=10 n=42 v=46
70946 Off ch=10 n=40 v=64
70949 Off ch=10 n=64 v=64
70961 Off ch=10 n=42 v=64
71028 Off ch=10 n=49 v=64
71036 On ch=10 n=64 v=68
71037 On ch=10 n=70 v=55
71038 On ch=10 n=36 v=117
71038 On ch=10 n=42 v=85
71061 Off ch=10 n=64 v=64
71062 Off ch=10 n=70 v=64
71063 Off ch=10 n=42 v=64
71063 Off ch=10 n=36 v=64
71276 On ch=10 n=69 v=54
71278 On ch=10 n=46 v=72
71279 On ch=10 n=70 v=70
71280 On ch=10 n=35 v=53
71283 On ch=10 n=62 v=70
71301 Off ch=10 n=69 v=64
71303 Off ch=10 n=46 v=64
71304 Off ch=10 n=70 v=64
71305 Off ch=10 n=35 v=64
71308 Off ch=10 n=62 v=64
71401 On ch=10 n=35 v=44
71404 On ch=10 n=42 v=46
71426 Off ch=10 n=35 v=64
71429 Off ch=10 n=42 v=64
71517 On ch=10 n=39 v=91
71518 On ch=10 n=36 v=114
71518 On ch=10 n=38 v=99
71518 On ch=10 n=42 v=78
71519 On ch=10 n=63 v=75
71523 On ch=10 n=70 v=57
71542 Off ch=10 n=39 v=64
71543 Off ch=10 n=42 v=64
71543 Off ch=10 n=38 v=64
71543 Off ch=10 n=36 v=64
71544 Off ch=10 n=63 v=64
71548 Off ch=10 n=70 v=64
71755 On ch=10 n=69 v=55
71756 On ch=10 n=70 v=70
71758 On ch=10 n=46 v=70
71759 On ch=10 n=35 v=53
71762 On ch=10 n=64 v=67
71780 Off ch=10 n=69 v=64
71781 Off ch=10 n=70 v=64
71783 Off ch=10 n=46 v=64
71784 Off ch=10 n=35 v=64
71787 Off ch=10 n=64 v=64
71876 On ch=10 n=64 v=55
71876 On ch=10 n=40 v=54
71886 On ch=10 n=42 v=46
71901 Off ch=10 n=40 v=64
71901 Off ch=10 n=64 v=64
71911 Off ch=10 n=42 v=64
71997 On ch=10 n=70 v=59
71998 On ch=10 n=36 v=117
71998 On ch=10 n=42 v=79
71998 On ch=10 n=64 v=73
72022 Off ch=10 n=70 v=64
72023 Off ch=10 n=64 v=64
72023 Off ch=10 n=42 v=64
72023 Off ch=10 n=36 v=64
72121 On ch=10 n=40 v=48
72146 Off ch=10 n=40 v=64
72233 On ch=10 n=69 v=55
72236 On ch=10 n=62 v=61
72236 On ch=10 n=35 v=45
72238 On ch=10 n=46 v=70
72242 On ch=10 n=70 v=69
72258 Off ch=10 n=69 v=64
72261 Off ch=10 n=35 v=64
72261 Off ch=10 n=62 v=64
72263 Off ch=10 n=46 v=64
72267 Off ch=10 n=70 v=64
72378 On ch=10 n=42 v=46
72403 Off ch=10 n=42 v=64
72478 On ch=10 n=36 v=114
72478 On ch=10 n=38 v=99
72478 On ch=10 n=42 v=80
72479 On ch=10 n=70 v=57
72480 On ch=10 n=63 v=68
72481 On ch=10 n=39 v=88
72503 Off ch=10 n=42 v=64
72503 Off ch=10 n=38 v=64
72503 Off ch=10 n=36 v=64
72504 Off ch=10 n=70 v=64
72505 Off ch=10 n=63 v=64
72506 Off ch=10 n=39 v=64
72715 On ch=10 n=70 v=67
72718 On ch=10 n=46 v=69
72719 On ch=10 n=69 v=55
72722 On ch=10 n=40 v=45
72725 On ch=10 n=64 v=67
72740 Off ch=10 n=70 v=64
72743 Off ch=10 n=46 v=64
72744 Off ch=10 n=69 v=64
72747 Off ch=10 n=40 v=64
72750 Off ch=10 n=64 v=64
72839 On ch=10 n=40 v=38
72843 On ch=10 n=64 v=59
72853 On ch=10 n=42 v=46
72864 Off ch=10 n=40 v=64
72868 Off ch=10 n=64 v=64
72878 Off ch=10 n=42 v=64
72958 On ch=10 n=36 v=117
72958 On ch=10 n=42 v=85
72959 On ch=10 n=70 v=59
72960 On ch=10 n=64 v=71
72983 Off ch=10 n=42 v=64
72983 Off ch=10 n=36 v=64
72984 Off ch=10 n=70 v=64
72985 Off ch=10 n=64 v=64
73197 On ch=10 n=70 v=66
73198 On ch=10 n=46 v=72
73199 On ch=10 n=69 v=58
73202 On ch=10 n=35 v=50
73202 On ch=10 n=62 v=70
73222 Off ch=10 n=70 v=64
73223 Off ch=10 n=46 v=64
73224 Off ch=10 n=69 v=64
73227 Off ch=10 n=62 v=64
73227 Off ch=10 n=35 v=64
73321 On ch=10 n=35 v=44
73327 On ch=10 n=42 v=46
73346 Off ch=10 n=35 v=64
73352 Off ch=10 n=42 v=64
73435 On ch=10 n=63 v=79
73438 On ch=10 n=36 v=114
73438 On ch=10 n=38 v=99
73438 On ch=10 n=42 v=79
73438 On ch=10 n=70 v=56
73442 On ch=10 n=39 v=92
73460 Off ch=10 n=63 v=64
73463 Off ch=10 n=70 v=64
73463 Off ch=10 n=42 v=64
73463 Off ch=10 n=38 v=64
73463 Off ch=10 n=36 v=64
73467 Off ch=10 n=39 v=64
73675 On ch=10 n=64 v=71
73676 On ch=10 n=35 v=45
73677 On ch=10 n=70 v=70
73678 On ch=10 n=46 v=70
73681 On ch=10 n=69 v=54
73700 Off ch=10 n=64 v=64
73701 Off ch=10 n=35 v=64
73702 Off ch=10 n=70 v=64
73703 Off ch=10 n=46 v=64
73706 Off ch=10 n=69 v=64
73794 On ch=10 n=64 v=58
73798 On ch=10 n=40 v=56
73816 On ch=10 n=42 v=46
73819 Off ch=10 n=64 v=64
73823 Off ch=10 n=40 v=64
73841 Off ch=10 n=42 v=64
73913 On ch=10 n=70 v=60
73916 On ch=10 n=64 v=70
73918 On ch=10 n=36 v=117
73918 On ch=10 n=42 v=81
73938 Off ch=10 n=70 v=64
73941 Off ch=10 n=64 v=64
73943 Off ch=10 n=42 v=64
73943 Off ch=10 n=36 v=64
74035 On ch=10 n=40 v=46
74060 Off ch=10 n=40 v=64
74152 On ch=10 n=69 v=55
74155 On ch=10 n=70 v=68
74156 On ch=10 n=35 v=48
74157 On ch=10 n=62 v=59
74158 On ch=10 n=46 v=72
74177 Off ch=10 n=69 v=64
74180 Off ch=10 n=70 v=64
74181 Off ch=10 n=35 v=64
74182 Off ch=10 n=62 v=64
74183 Off ch=10 n=46 v=64
74293 On ch=10 n=42 v=46
74318 Off ch=10 n=42 v=64
74395 On ch=10 n=39 v=93
74398 On ch=10 n=36 v=114
74398 On ch=10 n=38 v=99
74398 On ch=10 n=42 v=78
74399 On ch=10 n=70 v=57
74404 On ch=10 n=63 v=72
74420 Off ch=10 n=39 v=64
74423 Off ch=10 n=42 v=64
74423 Off ch=10 n=38 v=64
74423 Off ch=10 n=36 v=64
74424 Off ch=10 n=70 v=64
74429 Off ch=10 n=63 v=64
74630 On ch=10 n=69 v=56
74637 On ch=10 n=64 v=64
74638 On ch=10 n=46 v=71
74640 On ch=10 n=40 v=43
74642 On ch=10 n=70 v=69
74655 Off ch=10 n=69 v=64
74662 Off ch=10 n=64 v=64
74663 Off ch=10 n=46 v=64
74665 Off ch=10 n=40 v=64
74667 Off ch=10 n=70 v=64
74754 On ch=10 n=64 v=57
74759 On ch=10 n=40 v=38
74775 On ch=10 n=42 v=46
74779 Off ch=10 n=64 v=64
74784 Off ch=10 n=40 v=64
74800 Off ch=10 n=42 v=64
74877 On ch=10 n=64 v=68
74878 On ch=10 n=36 v=117
74878 On ch=10 n=42 v=84
74882 On ch=10 n=70 v=58
74902 Off ch=10 n=64 v=64
74903 Off ch=10 n=42 v=64
74903 Off ch=10 n=36 v=64
74907 Off ch=10 n=70 v=64
75114 On ch=10 n=69 v=55
75115 On ch=10 n=70 v=67
75118 On ch=10 n=46 v=70
75120 On ch=10 n=62 v=68
75120 On ch=10 n=35 v=46
75139 Off ch=10 n=69 v=64
75140 Off ch=10 n=70 v=64
75143 Off ch=10 n=46 v=64
75145 Off ch=10 n=35 v=64
75145 Off ch=10 n=62 v=64
75237 On ch=10 n=35 v=41
75256 On ch=10 n=42 v=46
75262 Off ch=10 n=35 v=64
75281 Off ch=10 n=42 v=64
75358 On ch=10 n=36 v=114
75358 On ch=10 n=38 v=99
75358 On ch=10 n=42 v=79
75360 On ch=10 n=63 v=74
75363 On ch=10 n=70 v=58
75365 On ch=10 n=39 v=90
75383 Off ch=10 n=42 v=64
75383 Off ch=10 n=38 v=64
75383 Off ch=10 n=36 v=64
75385 Off ch=10 n=63 v=64
75388 Off ch=10 n=70 v=64
75390 Off ch=10 n=39 v=64
75596 On ch=10 n=35 v=53
75598 On ch=10 n=46 v=70
75598 On ch=10 n=70 v=70
75600 On ch=10 n=69 v=58
75602 On ch=10 n=64 v=70
75621 Off ch=10 n=35 v=64
75623 Off ch=10 n=70 v=64
75623 Off ch=10 n=46 v=64
75625 Off ch=10 n=69 v=64
75627 Off ch=10 n=64 v=64
75716 On ch=10 n=64 v=56
75721 On ch=10 n=40 v=57
75731 On ch=10 n=42 v=46
75741 Off ch=10 n=64 v=64
75746 Off ch=10 n=40 v=64
75756 Off ch=10 n=42 v=64
75837 On ch=10 n=64 v=70
75838 On ch=10 n=36 v=117
75838 On ch=10 n=42 v=82
75841 On ch=10 n=70 v=57
75862 Off ch=10 n=64 v=64
75863 Off ch=10 n=42 v=64
75863 Off ch=10 n=36 v=64
75866 Off ch=10 n=70 v=64
75962 On ch=10 n=40 v=48
75987 Off ch=10 n=40 v=64
76074 On ch=10 n=69 v=54
76074 On ch=10 n=35 v=48
76076 On ch=10 n=62 v=61
76078 On ch=10 n=46 v=72
76079 On ch=10 n=70 v=67
76099 Off ch=10 n=35 v=64
76099 Off ch=10 n=69 v=64
76101 Off ch=10 n=62 v=64
76103 Off ch=10 n=46 v=64
76104 Off ch=10 n=70 v=64
76214 On ch=10 n=42 v=46
76239 Off ch=10 n=42 v=64
76314 On ch=10 n=63 v=68
76318 On ch=10 n=36 v=114
76318 On ch=10 n=38 v=99
76318 On ch=10 n=42 v=80
76318 On ch=10 n=70 v=58
76320 On ch=10 n=39 v=89
76339 Off ch=10 n=63 v=64
76343 Off ch=10 n=70 v=64
76343 Off ch=10 n=42 v=64
76343 Off ch=10 n=38 v=64
76343 Off ch=10 n=36 v=64
76345 Off ch=10 n=39 v=64
76556 On ch=10 n=69 v=57
76557 On ch=10 n=70 v=67
76558 On ch=10 n=46 v=72
76560 On ch=10 n=40 v=45
76563 On ch=10 n=64 v=62
76581 Off ch=10 n=69 v=64
76582 Off ch=10 n=70 v=64
76583 Off ch=10 n=46 v=64
76585 Off ch=10 n=40 v=64
76588 Off ch=10 n=64 v=64
76681 On ch=10 n=64 v=57
76682 On ch=10 n=40 v=42
76703 On ch=10 n=42 v=46
76706 Off ch=10 n=64 v=64
76707 Off ch=10 n=40 v=64
76728 Off ch=10 n=42 v=64
76798 On ch=10 n=36 v=117
76798 On ch=10 n=42 v=82
76798 On ch=10 n=64 v=67
76804 On ch=10 n=70 v=57
76823 Off ch=10 n=64 v=64
76823 Off ch=10 n=42 v=64
76823 Off ch=10 n=36 v=64
76829 Off ch=10 n=70 v=64
77031 On ch=10 n=69 v=56
77033 On ch=10 n=70 v=68
77035 On ch=10 n=35 v=49
77035 On ch=10 n=62 v=71
77038 On ch=10 n=46 v=72
77056 Off ch=10 n=69 v=64
77058 Off ch=10 n=70 v=64
77060 Off ch=10 n=62 v=64
77060 Off ch=10 n=35 v=64
77063 Off ch=10 n=46 v=64
77156 On ch=10 n=35 v=44
77169 On ch=10 n=42 v=46
77181 Off ch=10 n=35 v=64
77194 Off ch=10 n=42 v=64
77277 On ch=10 n=70 v=56
77278 On ch=10 n=36 v=114
77278 On ch=10 n=38 v=99
77278 On ch=10 n=42 v=78
77284 On ch=10 n=63 v=74
77285 On ch=10 n=39 v=87
77302 Off ch=10 n=70 v=64
77303 Off ch=10 n=42 v=64
77303 Off ch=10 n=38 v=64
77303 Off ch=10 n=36 v=64
77309 Off ch=10 n=63 v=64
77310 Off ch=10 n=39 v=64
77518 On ch=10 n=46 v=72
77518 On ch=10 n=35 v=49
77519 On ch=10 n=70 v=70
77521 On ch=10 n=69 v=55
77522 On ch=10 n=64 v=70
77543 Off ch=10 n=35 v=64
77543 Off ch=10 n=46 v=64
77544 Off ch=10 n=70 v=64
77546 Off ch=10 n=69 v=64
77547 Off ch=10 n=64 v=64
77637 On ch=10 n=40 v=57
77641 On ch=10 n=64 v=55
77650 On ch=10 n=42 v=46
77662 Off ch=10 n=40 v=64
77666 Off ch=10 n=64 v=64
77675 Off ch=10 n=42 v=64
77758 On ch=10 n=36 v=117
77758 On ch=10 n=42 v=82
77758 On ch=10 n=70 v=59
77762 On ch=10 n=64 v=71
77783 Off ch=10 n=70 v=64
77783 Off ch=10 n=42 v=64
77783 Off ch=10 n=36 v=64
77787 Off ch=10 n=64 v=64
77881 On ch=10 n=40 v=49
77906 Off ch=10 n=40 v=64
77998 On ch=10 n=46 v=70
77998 On ch=10 n=69 v=57
78001 On ch=10 n=35 v=46
78002 On ch=10 n=70 v=70
78005 On ch=10 n=62 v=61
78023 Off ch=10 n=69 v=64
78023 Off ch=10 n=46 v=64
78026 Off ch=10 n=35 v=64
78027 Off ch=10 n=70 v=64
78030 Off ch=10 n=62 v=64
78140 On ch=10 n=42 v=46
78165 Off ch=10 n=42 v=64
78238 On ch=10 n=36 v=114
78238 On ch=10 n=38 v=99
78238 On ch=10 n=42 v=76
78238 On ch=10 n=70 v=58
78242 On ch=10 n=39 v=89
78245 On ch=10 n=63 v=69
78263 Off ch=10 n=70 v=64
78263 Off ch=10 n=42 v=64
78263 Off ch=10 n=38 v=64
78263 Off ch=10 n=36 v=64
78267 Off ch=10 n=39 v=64
78270 Off ch=10 n=63 v=64
78473 On ch=10 n=69 v=55
78478 On ch=10 n=46 v=72
78482 On ch=10 n=40 v=48
78482 On ch=10 n=64 v=68
78484 On ch=10 n=70 v=69
78498 Off ch=10 n=69 v=64
78503 Off ch=10 n=46 v=64
78507 Off ch=10 n=64 v=64
78507 Off ch=10 n=40 v=64
78509 Off ch=10 n=70 v=64
78598 On ch=10 n=40 v=39
78599 On ch=10 n=64 v=59
78614 On ch=10 n=42 v=46
78623 Off ch=10 n=40 v=64
78624 Off ch=10 n=64 v=64
78639 Off ch=10 n=42 v=64
78715 On ch=10 n=70 v=56
78718 On ch=10 n=36 v=117
78718 On ch=10 n=42 v=83
78722 On ch=10 n=64 v=67
78740 Off ch=10 n=70 v=64
78743 Off ch=10 n=42 v=64
78743 Off ch=10 n=36 v=64
78747 Off ch=10 n=64 v=64
78952 On ch=10 n=69 v=56
78953 On ch=10 n=35 v=49
78958 On ch=10 n=46 v=72
78959 On ch=10 n=62 v=72
78963 On ch=10 n=70 v=69
78977 Off ch=10 n=69 v=64
78978 Off ch=10 n=35 v=64
78983 Off ch=10 n=46 v=64
78984 Off ch=10 n=62 v=64
78988 Off ch=10 n=70 v=64
79077 On ch=10 n=35 v=46
79088 On ch=10 n=42 v=46
79102 Off ch=10 n=35 v=64
79113 Off ch=10 n=42 v=64
79194 On ch=10 n=63 v=78
79198 On ch=10 n=36 v=114
79198 On ch=10 n=38 v=99
79198 On ch=10 n=42 v=80
79202 On ch=10 n=70 v=59
79203 On ch=10 n=39 v=89
79219 Off ch=10 n=63 v=64
79223 Off ch=10 n=42 v=64
79223 Off ch=10 n=38 v=64
79223 Off ch=10 n=36 v=64
79227 Off ch=10 n=70 v=64
79228 Off ch=10 n=39 v=64
79434 On ch=10 n=69 v=55
79435 On ch=10 n=64 v=72
79438 On ch=10 n=46 v=69
79438 On ch=10 n=35 v=53
79440 On ch=10 n=70 v=70
79459 Off ch=10 n=69 v=64
79460 Off ch=10 n=64 v=64
79463 Off ch=10 n=35 v=64
79463 Off ch=10 n=46 v=64
79465 Off ch=10 n=70 v=64
79556 On ch=10 n=40 v=54
79559 On ch=10 n=64 v=55
79575 On ch=10 n=42 v=46
79581 Off ch=10 n=40 v=64
79584 Off ch=10 n=64 v=64
79600 Off ch=10 n=42 v=64
79675 On ch=10 n=70 v=56
79678 On ch=10 n=36 v=117
79678 On ch=10 n=42 v=80
79679 On ch=10 n=64 v=73
79700 Off ch=10 n=70 v=64
79703 Off ch=10 n=42 v=64
79703 Off ch=10 n=36 v=64
79704 Off ch=10 n=64 v=64
79802 On ch=10 n=40 v=48
79827 Off ch=10 n=40 v=64
79915 On ch=10 n=69 v=54
79915 On ch=10 n=70 v=68
79918 On ch=10 n=46 v=68
79918 On ch=10 n=35 v=43
79919 On ch=10 n=62 v=59
79940 Off ch=10 n=70 v=64
79940 Off ch=10 n=69 v=64
79943 Off ch=10 n=35 v=64
79943 Off ch=10 n=46 v=64
79944 Off ch=10 n=62 v=64
80051 On ch=10 n=42 v=46
80076 Off ch=10 n=42 v=64
80157 On ch=10 n=70 v=59
80158 On ch=10 n=36 v=114
80158 On ch=10 n=38 v=99
80158 On ch=10 n=42 v=80
80162 On ch=10 n=39 v=88
80162 On ch=10 n=63 v=67
80182 Off ch=10 n=70 v=64
80183 Off ch=10 n=42 v=64
80183 Off ch=10 n=38 v=64
80183 Off ch=10 n=36 v=64
80187 Off ch=10 n=63 v=64
80187 Off ch=10 n=39 v=64
80392 On ch=10 n=69 v=53
80394 On ch=10 n=64 v=62
80397 On ch=10 n=40 v=48
80398 On ch=10 n=46 v=70
80399 On ch=10 n=70 v=67
80417 Off ch=10 n=69 v=64
80419 Off ch=10 n=64 v=64
80422 Off ch=10 n=40 v=64
80423 Off ch=10 n=46 v=64
80424 Off ch=10 n=70 v=64
80516 On ch=10 n=40 v=40
80521 On ch=10 n=64 v=60
80532 On ch=10 n=42 v=46
80541 Off ch=10 n=40 v=64
80546 Off ch=10 n=64 v=64
80557 Off ch=10 n=42 v=64
80638 On ch=10 n=36 v=117
80638 On ch=10 n=42 v=83
80638 On ch=10 n=64 v=68
80638 On ch=10 n=70 v=56
80663 Off ch=10 n=70 v=64
80663 Off ch=10 n=64 v=64
80663 Off ch=10 n=42 v=64
80663 Off ch=10 n=36 v=64
80875 On ch=10 n=69 v=55
80878 On ch=10 n=46 v=72
80881 On ch=10 n=35 v=46
80881 On ch=10 n=70 v=65
80882 On ch=10 n=62 v=71
80900 Off ch=10 n=69 v=64
80903 Off ch=10 n=46 v=64
80906 Off ch=10 n=70 v=64
80906 Off ch=10 n=35 v=64
80907 Off ch=10 n=62 v=64
80997 On ch=10 n=35 v=45
81011 On ch=10 n=42 v=46
81022 Off ch=10 n=35 v=64
81036 Off ch=10 n=42 v=64
81116 On ch=10 n=70 v=57
81118 On ch=10 n=36 v=114
81118 On ch=10 n=38 v=99
81118 On ch=10 n=42 v=82
81118 On ch=10 n=39 v=88
81125 On ch=10 n=63 v=74
81141 Off ch=10 n=70 v=64
81143 Off ch=10 n=39 v=64
81143 Off ch=10 n=42 v=64
81143 Off ch=10 n=38 v=64
81143 Off ch=10 n=36 v=64
81150 Off ch=10 n=63 v=64
81355 On ch=10 n=35 v=45
81358 On ch=10 n=46 v=69
81360 On ch=10 n=69 v=55
81361 On ch=10 n=70 v=70
81362 On ch=10 n=64 v=68
81380 Off ch=10 n=35 v=64
81383 Off ch=10 n=46 v=64
81385 Off ch=10 n=69 v=64
81386 Off ch=10 n=70 v=64
81387 Off ch=10 n=64 v=64
81477 On ch=10 n=40 v=52
81480 On ch=10 n=64 v=56
81484 On ch=10 n=42 v=46
81502 Off ch=10 n=40 v=64
81505 Off ch=10 n=64 v=64
81509 Off ch=10 n=42 v=64
81598 On ch=10 n=36 v=117
81598 On ch=10 n=42 v=82
81600 On ch=10 n=64 v=70
81603 On ch=10 n=70 v=58
81623 Off ch=10 n=42 v=64
81623 Off ch=10 n=36 v=64
81625 Off ch=10 n=64 v=64
81628 Off ch=10 n=70 v=64
81717 On ch=10 n=40 v=46
81742 Off ch=10 n=40 v=64
81834 On ch=10 n=69 v=55
81838 On ch=10 n=46 v=69
81839 On ch=10 n=35 v=45
81839 On ch=10 n=70 v=67
81844 On ch=10 n=62 v=62
81859 Off ch=10 n=69 v=64
81863 Off ch=10 n=46 v=64
81864 Off ch=10 n=70 v=64
81864 Off ch=10 n=35 v=64
81869 Off ch=10 n=62 v=64
81967 On ch=10 n=42 v=46
81992 Off ch=10 n=42 v=64
82077 On ch=10 n=70 v=59
82078 On ch=10 n=36 v=114
82078 On ch=10 n=38 v=99
82078 On ch=10 n=42 v=78
82078 On ch=10 n=63 v=69
82080 On ch=10 n=39 v=90
82102 Off ch=10 n=70 v=64
82103 Off ch=10 n=63 v=64
82103 Off ch=10 n=42 v=64
82103 Off ch=10 n=38 v=64
82103 Off ch=10 n=36 v=64
82105 Off ch=10 n=39 v=64
82314 On ch=10 n=40 v=47
82314 On ch=10 n=70 v=69
82315 On ch=10 n=69 v=55
82318 On ch=10 n=46 v=72
82319 On ch=10 n=64 v=64
82339 Off ch=10 n=70 v=64
82339 Off ch=10 n=40 v=64
82340 Off ch=10 n=69 v=64
82343 Off ch=10 n=46 v=64
82344 Off ch=10 n=64 v=64
82436 On ch=10 n=40 v=40
82436 On ch=10 n=64 v=58
82453 On ch=10 n=42 v=46
82461 Off ch=10 n=64 v=64
82461 Off ch=10 n=40 v=64
82478 Off ch=10 n=42 v=64
82558 On ch=10 n=36 v=117
82558 On ch=10 n=42 v=82
82558 On ch=10 n=57 v=71
82558 On ch=10 n=64 v=69
82560 On ch=10 n=70 v=56
82583 Off ch=10 n=64 v=64
82583 Off ch=10 n=42 v=64
82583 Off ch=10 n=36 v=64
82585 Off ch=10 n=70 v=64
82793 On ch=10 n=35 v=50
82798 On ch=10 n=42 v=76
82799 On ch=10 n=70 v=67
82801 On ch=10 n=69 v=58
82802 On ch=10 n=62 v=74
82818 Off ch=10 n=35 v=64
82823 Off ch=10 n=42 v=64
82824 Off ch=10 n=70 v=64
82826 Off ch=10 n=69 v=64
82827 Off ch=10 n=62 v=64
82919 On ch=10 n=35 v=43
82944 Off ch=10 n=35 v=64
83038 On ch=10 n=36 v=114
83038 On ch=10 n=38 v=99
83038 On ch=10 n=42 v=82
83041 On ch=10 n=70 v=56
83041 On ch=10 n=63 v=74
83044 On ch=10 n=39 v=91
83063 Off ch=10 n=42 v=64
83063 Off ch=10 n=38 v=64
83063 Off ch=10 n=36 v=64
83066 Off ch=10 n=63 v=64
83066 Off ch=10 n=70 v=64
83069 Off ch=10 n=39 v=64
83278 On ch=10 n=42 v=76
83279 On ch=10 n=69 v=53
83281 On ch=10 n=35 v=53
83281 On ch=10 n=64 v=72
83282 On ch=10 n=70 v=70
83303 Off ch=10 n=42 v=64
83304 Off ch=10 n=69 v=64
83306 Off ch=10 n=64 v=64
83306 Off ch=10 n=35 v=64
83307 Off ch=10 n=70 v=64
83400 On ch=10 n=40 v=52
83404 On ch=10 n=64 v=59
83425 Off ch=10 n=40 v=64
83429 Off ch=10 n=64 v=64
83518 On ch=10 n=36 v=117
83518 On ch=10 n=42 v=79
83519 On ch=10 n=70 v=59
83524 On ch=10 n=64 v=67
83543 Off ch=10 n=42 v=64
83543 Off ch=10 n=36 v=64
83544 Off ch=10 n=70 v=64
83549 Off ch=10 n=64 v=64
83634 On ch=10 n=40 v=48
83659 Off ch=10 n=40 v=64
83754 On ch=10 n=62 v=62
83756 On ch=10 n=69 v=54
83757 On ch=10 n=35 v=45
83758 On ch=10 n=42 v=74
83762 On ch=10 n=70 v=66
83779 Off ch=10 n=62 v=64
83781 Off ch=10 n=69 v=64
83782 Off ch=10 n=35 v=64
83783 Off ch=10 n=42 v=64
83787 Off ch=10 n=70 v=64
83995 On ch=10 n=39 v=92
83996 On ch=10 n=70 v=56
83998 On ch=10 n=36 v=114
83998 On ch=10 n=38 v=99
83998 On ch=10 n=42 v=79
84002 On ch=10 n=63 v=70
84020 Off ch=10 n=39 v=64
84021 Off ch=10 n=70 v=64
84023 Off ch=10 n=42 v=64
84023 Off ch=10 n=38 v=64
84023 Off ch=10 n=36 v=64
84027 Off ch=10 n=63 v=64
84234 On ch=10 n=40 v=45
84238 On ch=10 n=42 v=72
84238 On ch=10 n=64 v=66
84240 On ch=10 n=69 v=55
84241 On ch=10 n=70 v=70
84259 Off ch=10 n=40 v=64
84263 Off ch=10 n=64 v=64
84263 Off ch=10 n=42 v=64
84265 Off ch=10 n=69 v=64
84266 Off ch=10 n=70 v=64
84354 On ch=10 n=64 v=56
84359 On ch=10 n=40 v=39
84379 Off ch=10 n=64 v=64
84384 Off ch=10 n=40 v=64
84468 Off ch=10 n=57 v=64
84477 On ch=10 n=82 v=44
84478 On ch=10 n=36 v=117
84478 On ch=10 n=42 v=82
84478 On ch=10 n=49 v=80
84480 On ch=10 n=64 v=66
84482 On ch=10 n=70 v=55
84502 Off ch=10 n=82 v=64
84503 Off ch=10 n=42 v=64
84503 Off ch=10 n=36 v=64
84505 Off ch=10 n=64 v=64
84507 Off ch=10 n=70 v=64
84604 On ch=10 n=82 v=32
84629 Off ch=10 n=82 v=64
84717 On ch=10 n=70 v=67
84718 On ch=10 n=46 v=70
84719 On ch=10 n=69 v=54
84720 On ch=10 n=82 v=54
84720 On ch=10 n=35 v=52
84720 On ch=10 n=62 v=69
84742 Off ch=10 n=70 v=64
84743 Off ch=10 n=46 v=64
84744 Off ch=10 n=69 v=64
84745 Off ch=10 n=62 v=64
84745 Off ch=10 n=35 v=64
84745 Off ch=10 n=82 v=64
84837 On ch=10 n=35 v=46
84843 On ch=10 n=82 v=49
84859 On ch=10 n=42 v=46
84862 Off ch=10 n=35 v=64
84868 Off ch=10 n=82 v=64
84884 Off ch=10 n=42 v=64
84954 On ch=10 n=39 v=93
84955 On ch=10 n=70 v=58
84957 On ch=10 n=63 v=79
84958 On ch=10 n=36 v=114
84958 On ch=10 n=38 v=99
84958 On ch=10 n=42 v=77
84960 On ch=10 n=82 v=40
84979 Off ch=10 n=39 v=64
84980 Off ch=10 n=70 v=64
84982 Off ch=10 n=63 v=64
84983 Off ch=10 n=42 v=64
84983 Off ch=10 n=38 v=64
84983 Off ch=10 n=36 v=64
84985 Off ch=10 n=82 v=64
85080 On ch=10 n=82 v=32
85105 Off ch=10 n=82 v=64
85198 On ch=10 n=35 v=49
85198 On ch=10 n=46 v=69
85199 On ch=10 n=82 v=57
85200 On ch=10 n=69 v=55
85203 On ch=10 n=70 v=70
85204 On ch=10 n=64 v=71
85223 Off ch=10 n=46 v=64
85223 Off ch=10 n=35 v=64
85224 Off ch=10 n=82 v=64
85225 Off ch=10 n=69 v=64
85228 Off ch=10 n=70 v=64
85229 Off ch=10 n=64 v=64
85314 On ch=10 n=82 v=44
85316 On ch=10 n=40 v=52
85321 On ch=10 n=64 v=56
85339 Off ch=10 n=82 v=64
85339 On ch=10 n=42 v=46
85341 Off ch=10 n=40 v=64
85346 Off ch=10 n=64 v=64
85364 Off ch=10 n=42 v=64
85435 On ch=10 n=82 v=37
85436 On ch=10 n=70 v=56
85438 On ch=10 n=36 v=117
85438 On ch=10 n=42 v=81
85441 On ch=10 n=64 v=73
85460 Off ch=10 n=82 v=64
85461 Off ch=10 n=70 v=64
85463 Off ch=10 n=42 v=64
85463 Off ch=10 n=36 v=64
85466 Off ch=10 n=64 v=64
85558 On ch=10 n=82 v=36
85562 On ch=10 n=40 v=49
85583 Off ch=10 n=82 v=64
85587 Off ch=10 n=40 v=64
85674 On ch=10 n=62 v=61
85675 On ch=10 n=70 v=70
85677 On ch=10 n=35 v=44
85678 On ch=10 n=46 v=69
85680 On ch=10 n=69 v=57
85680 On ch=10 n=82 v=57
85699 Off ch=10 n=62 v=64
85700 Off ch=10 n=70 v=64
85702 Off ch=10 n=35 v=64
85703 Off ch=10 n=46 v=64
85705 Off ch=10 n=82 v=64
85705 Off ch=10 n=69 v=64
85800 On ch=10 n=82 v=44
85808 On ch=10 n=42 v=46
85825 Off ch=10 n=82 v=64
85833 Off ch=10 n=42 v=64
85916 On ch=10 n=70 v=56
85918 On ch=10 n=36 v=114
85918 On ch=10 n=38 v=99
85918 On ch=10 n=42 v=79
85920 On ch=10 n=39 v=90
85924 On ch=10 n=63 v=69
85924 On ch=10 n=82 v=40
85941 Off ch=10 n=70 v=64
85943 Off ch=10 n=42 v=64
85943 Off ch=10 n=38 v=64
85943 Off ch=10 n=36 v=64
85945 Off ch=10 n=39 v=64
85949 Off ch=10 n=82 v=64
85949 Off ch=10 n=63 v=64
86040 On ch=10 n=82 v=33
86065 Off ch=10 n=82 v=64
86156 On ch=10 n=70 v=69
86157 On ch=10 n=40 v=45
86157 On ch=10 n=69 v=55
86158 On ch=10 n=46 v=68
86159 On ch=10 n=64 v=64
86165 On ch=10 n=82 v=58
86181 Off ch=10 n=70 v=64
86182 Off ch=10 n=69 v=64
86182 Off ch=10 n=40 v=64
86183 Off ch=10 n=46 v=64
86184 Off ch=10 n=64 v=64
86190 Off ch=10 n=82 v=64
86275 On ch=10 n=40 v=41
86275 On ch=10 n=64 v=62
86277 On ch=10 n=82 v=49
86300 Off ch=10 n=64 v=64
86300 Off ch=10 n=40 v=64
86301 On ch=10 n=42 v=46
86302 Off ch=10 n=82 v=64
86326 Off ch=10 n=42 v=64
86388 Off ch=10 n=49 v=64
86393 On ch=10 n=70 v=59
86396 On ch=10 n=64 v=71
86398 On ch=10 n=36 v=117
86398 On ch=10 n=42 v=82
86405 On ch=10 n=82 v=42
86418 Off ch=10 n=70 v=64
86421 Off ch=10 n=64 v=64
86423 Off ch=10 n=42 v=64
86423 Off ch=10 n=36 v=64
86430 Off ch=10 n=82 v=64
86523 On ch=10 n=82 v=33
86548 Off ch=10 n=82 v=64
86636 On ch=10 n=70 v=69
86636 On ch=10 n=62 v=68
86638 On ch=10 n=46 v=72
86639 On ch=10 n=35 v=52
86640 On ch=10 n=69 v=54
86642 On ch=10 n=82 v=54
86661 Off ch=10 n=62 v=64
86661 Off ch=10 n=70 v=64
86663 Off ch=10 n=46 v=64
86664 Off ch=10 n=35 v=64
86665 Off ch=10 n=69 v=64
86667 Off ch=10 n=82 v=64
86757 On ch=10 n=82 v=47
86759 On ch=10 n=35 v=48
86773 On ch=10 n=42 v=46
86782 Off ch=10 n=82 v=64
86784 Off ch=10 n=35 v=64
86798 Off ch=10 n=42 v=64
86876 On ch=10 n=39 v=93
86877 On ch=10 n=82 v=38
86878 On ch=10 n=36 v=114
86878 On ch=10 n=38 v=99
86878 On ch=10 n=42 v=79
86880 On ch=10 n=70 v=56
86880 On ch=10 n=63 v=75
86901 Off ch=10 n=39 v=64
86902 Off ch=10 n=82 v=64
86903 Off ch=10 n=42 v=64
86903 Off ch=10 n=38 v=64
86903 Off ch=10 n=36 v=64
86905 Off ch=10 n=63 v=64
86905 Off ch=10 n=70 v=64
86999 On ch=10 n=82 v=33
87024 Off ch=10 n=82 v=64
87113 On ch=10 n=69 v=56
87117 On ch=10 n=35 v=52
87118 On ch=10 n=46 v=71
87119 On ch=10 n=64 v=71
87121 On ch=10 n=82 v=57
87124 On ch=10 n=70 v=70
87138 Off ch=10 n=69 v=64
87142 Off ch=10 n=35 v=64
87143 Off ch=10 n=46 v=64
87144 Off ch=10 n=64 v=64
87146 Off ch=10 n=82 v=64
87149 Off ch=10 n=70 v=64
87235 On ch=10 n=40 v=56
87239 On ch=10 n=82 v=48
87241 On ch=10 n=64 v=54
87259 On ch=10 n=42 v=46
87260 Off ch=10 n=40 v=64
87264 Off ch=10 n=82 v=64
87266 Off ch=10 n=64 v=64
87284 Off ch=10 n=42 v=64
87358 On ch=10 n=36 v=117
87358 On ch=10 n=42 v=83
87361 On ch=10 n=64 v=73
87363 On ch=10 n=82 v=38
87364 On ch=10 n=70 v=58
87383 Off ch=10 n=42 v=64
87383 Off ch=10 n=36 v=64
87386 Off ch=10 n=64 v=64
87388 Off ch=10 n=82 v=64
87389 Off ch=10 n=70 v=64
87475 On ch=10 n=40 v=48
87477 On ch=10 n=82 v=36
87500 Off ch=10 n=40 v=64
87502 Off ch=10 n=82 v=64
87594 On ch=10 n=35 v=40
87596 On ch=10 n=69 v=54
87598 On ch=10 n=46 v=72
87599 On ch=10 n=70 v=68
87603 On ch=10 n=82 v=57
87603 On ch=10 n=62 v=64
87619 Off ch=10 n=35 v=64
87621 Off ch=10 n=69 v=64
87623 Off ch=10 n=46 v=64
87624 Off ch=10 n=70 v=64
87628 Off ch=10 n=62 v=64
87628 Off ch=10 n=82 v=64
87725 On ch=10 n=82 v=46
87734 On ch=10 n=42 v=46
87750 Off ch=10 n=82 v=64
87759 Off ch=10 n=42 v=64
87835 On ch=10 n=70 v=56
87838 On ch=10 n=36 v=114
87838 On ch=10 n=38 v=99
87838 On ch=10 n=42 v=78
87840 On ch=10 n=82 v=43
87843 On ch=10 n=39 v=87
87845 On ch=10 n=63 v=72
87860 Off ch=10 n=70 v=64
87863 Off ch=10 n=42 v=64
87863 Off ch=10 n=38 v=64
87863 Off ch=10 n=36 v=64
87865 Off ch=10 n=82 v=64
87868 Off ch=10 n=39 v=64
87870 Off ch=10 n=63 v=64
87959 On ch=10 n=82 v=35
87984 Off ch=10 n=82 v=64
88074 On ch=10 n=64 v=63
88076 On ch=10 n=82 v=58
88077 On ch=10 n=69 v=57
88078 On ch=10 n=46 v=72
88081 On ch=10 n=40 v=46
88083 On ch=10 n=70 v=70
88099 Off ch=10 n=64 v=64
88101 Off ch=10 n=82 v=64
88102 Off ch=10 n=69 v=64
88103 Off ch=10 n=46 v=64
88106 Off ch=10 n=40 v=64
88108 Off ch=10 n=70 v=64
88200 On ch=10 n=64 v=56
88201 On ch=10 n=82 v=47
88202 On ch=10 n=40 v=37
88213 On ch=10 n=42 v=46
88225 Off ch=10 n=64 v=64
88226 Off ch=10 n=82 v=64
88227 Off ch=10 n=40 v=64
88238 Off ch=10 n=42 v=64
88315 On ch=10 n=64 v=70
88316 On ch=10 n=70 v=57
88318 On ch=10 n=36 v=117
88318 On ch=10 n=42 v=81
88321 On ch=10 n=82 v=44
88340 Off ch=10 n=64 v=64
88341 Off ch=10 n=70 v=64
88343 Off ch=10 n=42 v=64
88343 Off ch=10 n=36 v=64
88346 Off ch=10 n=82 v=64
88442 On ch=10 n=82 v=33
88467 Off ch=10 n=82 v=64
88552 On ch=10 n=69 v=58
88554 On ch=10 n=35 v=50
88554 On ch=10 n=70 v=70
88558 On ch=10 n=46 v=72
88561 On ch=10 n=62 v=71
88564 On ch=10 n=82 v=54
88577 Off ch=10 n=69 v=64
88579 Off ch=10 n=70 v=64
88579 Off ch=10 n=35 v=64
88583 Off ch=10 n=46 v=64
88586 Off ch=10 n=62 v=64
88589 Off ch=10 n=82 v=64
88679 On ch=10 n=35 v=47
88681 On ch=10 n=82 v=46
88691 On ch=10 n=42 v=46
88704 Off ch=10 n=35 v=64
88706 Off ch=10 n=82 v=64
88716 Off ch=10 n=42 v=64
88794 On ch=10 n=70 v=59
88794 On ch=10 n=39 v=90
88798 On ch=10 n=36 v=114
88798 On ch=10 n=38 v=99
88798 On ch=10 n=42 v=79
88803 On ch=10 n=63 v=75
88804 On ch=10 n=82 v=40
88819 Off ch=10 n=39 v=64
88819 Off ch=10 n=70 v=64
88823 Off ch=10 n=42 v=64
88823 Off ch=10 n=38 v=64
88823 Off ch=10 n=36 v=64
88828 Off ch=10 n=63 v=64
88829 Off ch=10 n=82 v=64
88918 On ch=10 n=82 v=34
88943 Off ch=10 n=82 v=64
89033 On ch=10 n=70 v=70
89038 On ch=10 n=46 v=72
89038 On ch=10 n=64 v=72
89039 On ch=10 n=69 v=55
89040 On ch=10 n=35 v=45
89043 On ch=10 n=82 v=57
89058 Off ch=10 n=70 v=64
89063 Off ch=10 n=64 v=64
89063 Off ch=10 n=46 v=64
89064 Off ch=10 n=69 v=64
89065 Off ch=10 n=35 v=64
89068 Off ch=10 n=82 v=64
89154 On ch=10 n=64 v=54
89156 On ch=10 n=40 v=52
89163 On ch=10 n=42 v=46
89164 On ch=10 n=82 v=47
89179 Off ch=10 n=64 v=64
89181 Off ch=10 n=40 v=64
89188 Off ch=10 n=42 v=64
89189 Off ch=10 n=82 v=64
89278 On ch=10 n=36 v=117
89278 On ch=10 n=42 v=79
89279 On ch=10 n=82 v=40
89281 On ch=10 n=70 v=59
89284 On ch=10 n=64 v=68
89303 Off ch=10 n=42 v=64
89303 Off ch=10 n=36 v=64
89304 Off ch=10 n=82 v=64
89306 Off ch=10 n=70 v=64
89309 Off ch=10 n=64 v=64
89396 On ch=10 n=82 v=33
89398 On ch=10 n=40 v=46
89421 Off ch=10 n=82 v=64
89423 Off ch=10 n=40 v=64
89515 On ch=10 n=35 v=43
89516 On ch=10 n=69 v=55
89518 On ch=10 n=46 v=70
89519 On ch=10 n=62 v=58
89523 On ch=10 n=70 v=67
89525 On ch=10 n=82 v=57
89540 Off ch=10 n=35 v=64
89541 Off ch=10 n=69 v=64
89543 Off ch=10 n=46 v=64
89544 Off ch=10 n=62 v=64
89548 Off ch=10 n=70 v=64
89550 Off ch=10 n=82 v=64
89638 On ch=10 n=82 v=44
89644 On ch=10 n=42 v=46
89663 Off ch=10 n=82 v=64
89669 Off ch=10 n=42 v=64
89755 On ch=10 n=70 v=56
89757 On ch=10 n=82 v=40
89758 On ch=10 n=36 v=114
89758 On ch=10 n=38 v=99
89758 On ch=10 n=42 v=79
89763 On ch=10 n=63 v=67
89764 On ch=10 n=39 v=89
89780 Off ch=10 n=70 v=64
89782 Off ch=10 n=82 v=64
89783 Off ch=10 n=42 v=64
89783 Off ch=10 n=38 v=64
89783 Off ch=10 n=36 v=64
89788 Off ch=10 n=63 v=64
89789 Off ch=10 n=39 v=64
89878 On ch=10 n=82 v=35
89903 Off ch=10 n=82 v=64
89998 On ch=10 n=46 v=71
89998 On ch=10 n=40 v=45
89998 On ch=10 n=70 v=69
89998 On ch=10 n=82 v=58
90000 On ch=10 n=69 v=53
90003 On ch=10 n=64 v=63
90023 Off ch=10 n=82 v=64
90023 Off ch=10 n=70 v=64
90023 Off ch=10 n=40 v=64
90023 Off ch=10 n=46 v=64
90025 Off ch=10 n=69 v=64
90028 Off ch=10 n=64 v=64
90113 On ch=10 n=40 v=37
90115 On ch=10 n=82 v=46
90118 On ch=10 n=64 v=58
90130 On ch=10 n=42 v=46
90138 Off ch=10 n=40 v=64
90140 Off ch=10 n=82 v=64
90143 Off ch=10 n=64 v=64
90155 Off ch=10 n=42 v=64
90237 On ch=10 n=82 v=41
90238 On ch=10 n=36 v=117
90238 On ch=10 n=42 v=83
90238 On ch=10 n=64 v=71
90238 On ch=10 n=70 v=56
90262 Off ch=10 n=82 v=64
90263 Off ch=10 n=70 v=64
90263 Off ch=10 n=64 v=64
90263 Off ch=10 n=42 v=64
90263 Off ch=10 n=36 v=64
90361 On ch=10 n=82 v=35
90386 Off ch=10 n=82 v=64
90474 On ch=10 n=82 v=53
90478 On ch=10 n=35 v=45
90478 On ch=10 n=46 v=72
90478 On ch=10 n=69 v=55
90483 On ch=10 n=70 v=66
90485 On ch=10 n=62 v=73
90499 Off ch=10 n=82 v=64
90503 Off ch=10 n=69 v=64
90503 Off ch=10 n=46 v=64
90503 Off ch=10 n=35 v=64
90508 Off ch=10 n=70 v=64
90510 Off ch=10 n=62 v=64
90595 On ch=10 n=35 v=44
90595 On ch=10 n=82 v=50
90614 On ch=10 n=42 v=46
90620 Off ch=10 n=82 v=64
90620 Off ch=10 n=35 v=64
90639 Off ch=10 n=42 v=64
90718 On ch=10 n=36 v=114
90718 On ch=10 n=38 v=99
90718 On ch=10 n=42 v=77
90719 On ch=10 n=70 v=57
90720 On ch=10 n=82 v=42
90722 On ch=10 n=63 v=74
90724 On ch=10 n=39 v=92
90743 Off ch=10 n=42 v=64
90743 Off ch=10 n=38 v=64
90743 Off ch=10 n=36 v=64
90744 Off ch=10 n=70 v=64
90745 Off ch=10 n=82 v=64
90747 Off ch=10 n=63 v=64
90749 Off ch=10 n=39 v=64
90837 On ch=10 n=82 v=35
90862 Off ch=10 n=82 v=64
90954 On ch=10 n=70 v=69
90958 On ch=10 n=46 v=68
90958 On ch=10 n=69 v=55
90959 On ch=10 n=35 v=52
90960 On ch=10 n=64 v=68
90965 On ch=10 n=82 v=57
90979 Off ch=10 n=70 v=64
90983 Off ch=10 n=69 v=64
90983 Off ch=10 n=46 v=64
90984 Off ch=10 n=35 v=64
90985 Off ch=10 n=64 v=64
90990 Off ch=10 n=82 v=64
91078 On ch=10 n=82 v=45
91079 On ch=10 n=40 v=54
91082 On ch=10 n=64 v=55
91093 On ch=10 n=42 v=46
91103 Off ch=10 n=82 v=64
91104 Off ch=10 n=40 v=64
91107 Off ch=10 n=64 v=64
91118 Off ch=10 n=42 v=64
91195 On ch=10 n=82 v=38
91198 On ch=10 n=36 v=117
91198 On ch=10 n=42 v=79
91198 On ch=10 n=70 v=56
91200 On ch=10 n=64 v=71
91220 Off ch=10 n=82 v=64
91223 Off ch=10 n=70 v=64
91223 Off ch=10 n=42 v=64
91223 Off ch=10 n=36 v=64
91225 Off ch=10 n=64 v=64
91315 On ch=10 n=40 v=47
91316 On ch=10 n=82 v=33
91340 Off ch=10 n=40 v=64
91341 Off ch=10 n=82 v=64
91435 On ch=10 n=70 v=70
91435 On ch=10 n=82 v=56
91437 On ch=10 n=69 v=54
91438 On ch=10 n=46 v=71
91439 On ch=10 n=35 v=43
91444 On ch=10 n=62 v=64
91460 Off ch=10 n=82 v=64
91460 Off ch=10 n=70 v=64
91462 Off ch=10 n=69 v=64
91463 Off ch=10 n=46 v=64
91464 Off ch=10 n=35 v=64
91469 Off ch=10 n=62 v=64
91563 On ch=10 n=82 v=44
91581 On ch=10 n=42 v=46
91588 Off ch=10 n=82 v=64
91606 Off ch=10 n=42 v=64
91675 On ch=10 n=70 v=57
91678 On ch=10 n=36 v=114
91678 On ch=10 n=38 v=99
91678 On ch=10 n=42 v=80
91679 On ch=10 n=63 v=66
91682 On ch=10 n=39 v=88
91684 On ch=10 n=82 v=42
91700 Off ch=10 n=70 v=64
91703 Off ch=10 n=42 v=64
91703 Off ch=10 n=38 v=64
91703 Off ch=10 n=36 v=64
91704 Off ch=10 n=63 v=64
91707 Off ch=10 n=39 v=64
91709 Off ch=10 n=82 v=64
91797 On ch=10 n=82 v=36
91822 Off ch=10 n=82 v=64
91913 On ch=10 n=70 v=70
91914 On ch=10 n=69 v=54
91918 On ch=10 n=40 v=43
91918 On ch=10 n=46 v=68
91920 On ch=10 n=82 v=58
91924 On ch=10 n=64 v=65
91938 Off ch=10 n=70 v=64
91939 Off ch=10 n=69 v=64
91943 Off ch=10 n=46 v=64
91943 Off ch=10 n=40 v=64
91945 Off ch=10 n=82 v=64
91949 Off ch=10 n=64 v=64
92036 On ch=10 n=40 v=41
92038 On ch=10 n=64 v=61
92040 On ch=10 n=82 v=44
92052 On ch=10 n=42 v=46
92061 Off ch=10 n=40 v=64
92063 Off ch=10 n=64 v=64
92065 Off ch=10 n=82 v=64
92077 Off ch=10 n=42 v=64
92158 On ch=10 n=36 v=117
92158 On ch=10 n=42 v=80
92160 On ch=10 n=70 v=56
92164 On ch=10 n=64 v=66
92165 On ch=10 n=82 v=43
92183 Off ch=10 n=42 v=64
92183 Off ch=10 n=36 v=64
92185 Off ch=10 n=70 v=64
92189 Off ch=10 n=64 v=64
92190 Off ch=10 n=82 v=64
92281 On ch=10 n=82 v=36
92306 Off ch=10 n=82 v=64
92394 On ch=10 n=62 v=72
92396 On ch=10 n=69 v=55
92396 On ch=10 n=82 v=53
92398 On ch=10 n=46 v=69
92399 On ch=10 n=35 v=48
92401 On ch=10 n=70 v=67
92419 Off ch=10 n=62 v=64
92421 Off ch=10 n=82 v=64
92421 Off ch=10 n=69 v=64
92423 Off ch=10 n=46 v=64
92424 Off ch=10 n=35 v=64
92426 Off ch=10 n=70 v=64
92520 On ch=10 n=35 v=48
92520 On ch=10 n=82 v=47
92543 On ch=10 n=42 v=46
92545 Off ch=10 n=82 v=64
92545 Off ch=10 n=35 v=64
92568 Off ch=10 n=42 v=64
92637 On ch=10 n=82 v=40
92637 On ch=10 n=39 v=92
92638 On ch=10 n=36 v=114
92638 On ch=10 n=38 v=99
92638 On ch=10 n=42 v=79
92640 On ch=10 n=63 v=77
92644 On ch=10 n=70 v=56
92662 Off ch=10 n=39 v=64
92662 Off ch=10 n=82 v=64
92663 Off ch=10 n=42 v=64
92663 Off ch=10 n=38 v=64
92663 Off ch=10 n=36 v=64
92665 Off ch=10 n=63 v=64
92669 Off ch=10 n=70 v=64
92756 On ch=10 n=82 v=36
92781 Off ch=10 n=82 v=64
92874 On ch=10 n=64 v=71
92875 On ch=10 n=70 v=69
92875 On ch=10 n=82 v=57
92876 On ch=10 n=35 v=49
92878 On ch=10 n=46 v=72
92879 On ch=10 n=69 v=56
92899 Off ch=10 n=64 v=64
92900 Off ch=10 n=82 v=64
92900 Off ch=10 n=70 v=64
92901 Off ch=10 n=35 v=64
92903 Off ch=10 n=46 v=64
92904 Off ch=10 n=69 v=64
92996 On ch=10 n=40 v=53
93001 On ch=10 n=64 v=57
93002 On ch=10 n=82 v=49
93007 On ch=10 n=42 v=46
93021 Off ch=10 n=40 v=64
93026 Off ch=10 n=64 v=64
93027 Off ch=10 n=82 v=64
93032 Off ch=10 n=42 v=64
93115 On ch=10 n=70 v=58
93118 On ch=10 n=36 v=117
93118 On ch=10 n=42 v=82
93119 On ch=10 n=64 v=69
93123 On ch=10 n=82 v=40
93140 Off ch=10 n=70 v=64
93143 Off ch=10 n=42 v=64
93143 Off ch=10 n=36 v=64
93144 Off ch=10 n=64 v=64
93148 Off ch=10 n=82 v=64
93235 On ch=10 n=40 v=48
93235 On ch=10 n=82 v=34
93260 Off ch=10 n=82 v=64
93260 Off ch=10 n=40 v=64
93351 On ch=10 n=69 v=57
93355 On ch=10 n=62 v=61
93357 On ch=10 n=82 v=56
93358 On ch=10 n=46 v=71
93358 On ch=10 n=35 v=41
93359 On ch=10 n=70 v=69
93376 Off ch=10 n=69 v=64
93380 Off ch=10 n=62 v=64
93382 Off ch=10 n=82 v=64
93383 Off ch=10 n=35 v=64
93383 Off ch=10 n=46 v=64
93384 Off ch=10 n=70 v=64
93476 On ch=10 n=82 v=47
93501 Off ch=10 n=82 v=64
93501 On ch=10 n=42 v=46
93526 Off ch=10 n=42 v=64
93594 On ch=10 n=70 v=57
93598 On ch=10 n=36 v=114
93598 On ch=10 n=38 v=99
93598 On ch=10 n=42 v=79
93598 On ch=10 n=39 v=92
93600 On ch=10 n=82 v=40
93604 On ch=10 n=63 v=69
93619 Off ch=10 n=70 v=64
93623 Off ch=10 n=39 v=64
93623 Off ch=10 n=42 v=64
93623 Off ch=10 n=38 v=64
93623 Off ch=10 n=36 v=64
93625 Off ch=10 n=82 v=64
93629 Off ch=10 n=63 v=64
93716 On ch=10 n=82 v=37
93741 Off ch=10 n=82 v=64
93831 On ch=10 n=69 v=58
93837 On ch=10 n=64 v=67
93838 On ch=10 n=46 v=69
93840 On ch=10 n=70 v=68
93840 On ch=10 n=40 v=45
93842 On ch=10 n=82 v=58
93856 Off ch=10 n=69 v=64
93862 Off ch=10 n=64 v=64
93863 Off ch=10 n=46 v=64
93865 Off ch=10 n=40 v=64
93865 Off ch=10 n=70 v=64
93867 Off ch=10 n=82 v=64
93961 On ch=10 n=40 v=38
93962 On ch=10 n=64 v=59
93965 On ch=10 n=82 v=47
93979 On ch=10 n=42 v=46
93986 Off ch=10 n=40 v=64
93987 Off ch=10 n=64 v=64
93990 Off ch=10 n=82 v=64
94004 Off ch=10 n=42 v=64
94078 On ch=10 n=36 v=117
94078 On ch=10 n=42 v=80
94081 On ch=10 n=82 v=40
94082 On ch=10 n=64 v=69
94083 On ch=10 n=70 v=56
94103 Off ch=10 n=42 v=64
94103 Off ch=10 n=36 v=64
94106 Off ch=10 n=82 v=64
94107 Off ch=10 n=64 v=64
94108 Off ch=10 n=70 v=64
94200 On ch=10 n=82 v=32
94225 Off ch=10 n=82 v=64
94316 On ch=10 n=69 v=55
94317 On ch=10 n=35 v=48
94318 On ch=10 n=46 v=71
94318 On ch=10 n=82 v=53
94319 On ch=10 n=70 v=68
94324 On ch=10 n=62 v=70
94341 Off ch=10 n=69 v=64
94342 Off ch=10 n=35 v=64
94343 Off ch=10 n=82 v=64
94343 Off ch=10 n=46 v=64
94344 Off ch=10 n=70 v=64
94349 Off ch=10 n=62 v=64
94442 On ch=10 n=35 v=41
94444 On ch=10 n=82 v=47
94456 On ch=10 n=42 v=46
94467 Off ch=10 n=35 v=64
94469 Off ch=10 n=82 v=64
94481 Off ch=10 n=42 v=64
94556 On ch=10 n=63 v=78
94558 On ch=10 n=36 v=114
94558 On ch=10 n=38 v=99
94558 On ch=10 n=42 v=81
94558 On ch=10 n=70 v=58
94562 On ch=10 n=39 v=90
94564 On ch=10 n=82 v=41
94581 Off ch=10 n=63 v=64
94583 Off ch=10 n=70 v=64
94583 Off ch=10 n=42 v=64
94583 Off ch=10 n=38 v=64
94583 Off ch=10 n=36 v=64
94587 Off ch=10 n=39 v=64
94589 Off ch=10 n=82 v=64
94675 On ch=10 n=82 v=32
94700 Off ch=10 n=82 v=64
94792 On ch=10 n=69 v=58
94797 On ch=10 n=70 v=69
94797 On ch=10 n=82 v=57
94798 On ch=10 n=46 v=70
94802 On ch=10 n=35 v=52
94803 On ch=10 n=64 v=70
94817 Off ch=10 n=69 v=64
94822 Off ch=10 n=82 v=64
94822 Off ch=10 n=70 v=64
94823 Off ch=10 n=46 v=64
94827 Off ch=10 n=35 v=64
94828 Off ch=10 n=64 v=64
94914 On ch=10 n=40 v=52
94916 On ch=10 n=82 v=47
94925 On ch=10 n=64 v=54
94927 On ch=10 n=42 v=46
94939 Off ch=10 n=40 v=64
94941 Off ch=10 n=82 v=64
94950 Off ch=10 n=64 v=64
94952 Off ch=10 n=42 v=64
95038 On ch=10 n=36 v=117
95038 On ch=10 n=42 v=79
95039 On ch=10 n=82 v=38
95042 On ch=10 n=64 v=67
95043 On ch=10 n=70 v=59
95063 Off ch=10 n=42 v=64
95063 Off ch=10 n=36 v=64
95064 Off ch=10 n=82 v=64
95067 Off ch=10 n=64 v=64
95068 Off ch=10 n=70 v=64
95156 On ch=10 n=40 v=47
95165 On ch=10 n=82 v=36
95181 Off ch=10 n=40 v=64
95190 Off ch=10 n=82 v=64
95276 On ch=10 n=62 v=62
95276 On ch=10 n=35 v=46
95278 On ch=10 n=46 v=70
95278 On ch=10 n=69 v=53
95279 On ch=10 n=82 v=55
95283 On ch=10 n=70 v=68
95301 Off ch=10 n=35 v=64
95301 Off ch=10 n=62 v=64
95303 Off ch=10 n=69 v=64
95303 Off ch=10 n=46 v=64
95304 Off ch=10 n=82 v=64
95308 Off ch=10 n=70 v=64
95401 On ch=10 n=82 v=45
95407 On ch=10 n=42 v=46
95426 Off ch=10 n=82 v=64
95432 Off ch=10 n=42 v=64
95514 On ch=10 n=70 v=58
95516 On ch=10 n=63 v=71
95517 On ch=10 n=82 v=41
95518 On ch=10 n=36 v=114
95518 On ch=10 n=38 v=99
95518 On ch=10 n=42 v=78
95525 On ch=10 n=39 v=87
95539 Off ch=10 n=70 v=64
95541 Off ch=10 n=63 v=64
95542 Off ch=10 n=82 v=64
95543 Off ch=10 n=42 v=64
95543 Off ch=10 n=38 v=64
95543 Off ch=10 n=36 v=64
95550 Off ch=10 n=39 v=64
95635 On ch=10 n=82 v=33
95660 Off ch=10 n=82 v=64
95751 On ch=10 n=69 v=55
95754 On ch=10 n=64 v=64
95756 On ch=10 n=40 v=45
95756 On ch=10 n=70 v=70
95758 On ch=10 n=46 v=69
95764 On ch=10 n=82 v=58
95776 Off ch=10 n=69 v=64
95779 Off ch=10 n=64 v=64
95781 Off ch=10 n=70 v=64
95781 Off ch=10 n=40 v=64
95783 Off ch=10 n=46 v=64
95789 Off ch=10 n=82 v=64
95878 On ch=10 n=82 v=47
95879 On ch=10 n=40 v=39
95879 On ch=10 n=64 v=58
95891 On ch=10 n=42 v=46
95903 Off ch=10 n=82 v=64
95904 Off ch=10 n=64 v=64
95904 Off ch=10 n=40 v=64
95916 Off ch=10 n=42 v=64
95998 On ch=10 n=44 v=64
96023 Off ch=10 n=44 v=64
96480 On ch=10 n=44 v=71
96505 Off ch=10 n=44 v=64
96953 On ch=10 n=44 v=68
96978 Off ch=10 n=44 v=64
97437 On ch=10 n=44 v=72
97462 Off ch=10 n=44 v=64
97918 On ch=10 n=44 v=68
97918 On ch=10 n=57 v=71
97943 Off ch=10 n=44 v=64
98392 On ch=10 n=44 v=69
98417 Off ch=10 n=44 v=64
98880 On ch=10 n=44 v=67
98905 Off ch=10 n=44 v=64
99356 On ch=10 n=44 v=73
99381 Off ch=10 n=44 v=64
99828 Off ch=10 n=57 v=64
99840 On ch=10 n=44 v=63
99865 Off ch=10 n=44 v=64
100318 On ch=10 n=44 v=72
100343 Off ch=10 n=44 v=64
100798 On ch=10 n=44 v=66
100823 Off ch=10 n=44 v=64
101278 On ch=10 n=44 v=72
101303 Off ch=10 n=44 v=64
101754 On ch=10 n=44 v=63
101779 Off ch=10 n=44 v=64
102236 On ch=10 n=44 v=74
102261 Off ch=10 n=44 v=64
102720 On ch=10 n=44 v=68
102745 Off ch=10 n=44 v=64
103203 On ch=10 n=44 v=75
103228 Off ch=10 n=44 v=64
103683 On ch=10 n=44 v=62
103708 Off ch=10 n=44 v=64
104156 On ch=10 n=44 v=74
104181 Off ch=10 n=44 v=64
104632 On ch=10 n=44 v=63
104657 Off ch=10 n=44 v=64
105119 On ch=10 n=44 v=72
105144 Off ch=10 n=44 v=64
105594 On ch=10 n=70 v=56
105598 On ch=10 n=36 v=117
105598 On ch=10 n=42 v=85
105598 On ch=10 n=49 v=79
105604 On ch=10 n=64 v=67
105619 Off ch=10 n=70 v=64
105623 Off ch=10 n=42 v=64
105623 Off ch=10 n=36 v=64
105629 Off ch=10 n=64 v=64
105838 On ch=10 n=42 v=76
105838 On ch=10 n=70 v=70
105841 On ch=10 n=62 v=72
105863 Off ch=10 n=70 v=64
105863 Off ch=10 n=42 v=64
105866 Off ch=10 n=62 v=64
106078 On ch=10 n=36 v=114
106078 On ch=10 n=38 v=99
106078 On ch=10 n=42 v=79
106081 On ch=10 n=63 v=77
106083 On ch=10 n=70 v=56
106103 Off ch=10 n=42 v=64
106103 Off ch=10 n=38 v=64
106103 Off ch=10 n=36 v=64
106106 Off ch=10 n=63 v=64
106108 Off ch=10 n=70 v=64
106318 On ch=10 n=42 v=76
106318 On ch=10 n=70 v=69
106325 On ch=10 n=64 v=69
106343 Off ch=10 n=70 v=64
106343 Off ch=10 n=42 v=64
106350 Off ch=10 n=64 v=64
106440 On ch=10 n=64 v=58
106465 Off ch=10 n=64 v=64
106557 On ch=10 n=64 v=67
106558 On ch=10 n=36 v=117
106558 On ch=10 n=42 v=81
106559 On ch=10 n=70 v=56
106582 Off ch=10 n=64 v=64
106583 Off ch=10 n=42 v=64
106583 Off ch=10 n=36 v=64
106584 Off ch=10 n=70 v=64
106794 On ch=10 n=62 v=61
106795 On ch=10 n=70 v=67
106798 On ch=10 n=42 v=74
106819 Off ch=10 n=62 v=64
106820 Off ch=10 n=70 v=64
106823 Off ch=10 n=42 v=64
107033 On ch=10 n=70 v=59
107037 On ch=10 n=63 v=71
107038 On ch=10 n=36 v=114
107038 On ch=10 n=38 v=99
107038 On ch=10 n=42 v=76
107058 Off ch=10 n=70 v=64
107062 Off ch=10 n=63 v=64
107063 Off ch=10 n=42 v=64
107063 Off ch=10 n=38 v=64
107063 Off ch=10 n=36 v=64
107274 On ch=10 n=64 v=63
107278 On ch=10 n=42 v=76
107282 On ch=10 n=70 v=68
107299 Off ch=10 n=64 v=64
107303 Off ch=10 n=42 v=64
107307 Off ch=10 n=70 v=64
107399 On ch=10 n=64 v=59
107424 Off ch=10 n=64 v=64
107508 Off ch=10 n=49 v=64
107516 On ch=10 n=70 v=55
107518 On ch=10 n=36 v=117
107518 On ch=10 n=42 v=83
107518 On ch=10 n=64 v=65
107541 Off ch=10 n=70 v=64
107543 Off ch=10 n=64 v=64
107543 Off ch=10 n=42 v=64
107543 Off ch=10 n=36 v=64
107756 On ch=10 n=62 v=72
107756 On ch=10 n=70 v=66
107758 On ch=10 n=42 v=76
107781 Off ch=10 n=70 v=64
107781 Off ch=10 n=62 v=64
107783 Off ch=10 n=42 v=64
107997 On ch=10 n=70 v=59
107998 On ch=10 n=36 v=114
107998 On ch=10 n=38 v=99
107998 On ch=10 n=42 v=82
108003 On ch=10 n=63 v=80
108022 Off ch=10 n=70 v=64
108023 Off ch=10 n=42 v=64
108023 Off ch=10 n=38 v=64
108023 Off ch=10 n=36 v=64
108028 Off ch=10 n=63 v=64
108238 On ch=10 n=42 v=76
108239 On ch=10 n=64 v=70
108239 On ch=10 n=70 v=69
108263 Off ch=10 n=42 v=64
108264 Off ch=10 n=70 v=64
108264 Off ch=10 n=64 v=64
108359 On ch=10 n=64 v=57
108384 Off ch=10 n=64 v=64
108476 On ch=10 n=64 v=68
108476 On ch=10 n=70 v=58
108478 On ch=10 n=36 v=117
108478 On ch=10 n=42 v=82
108501 Off ch=10 n=70 v=64
108501 Off ch=10 n=64 v=64
108503 Off ch=10 n=42 v=64
108503 Off ch=10 n=36 v=64
108718 On ch=10 n=42 v=73
108719 On ch=10 n=70 v=70
108722 On ch=10 n=62 v=59
108743 Off ch=10 n=42 v=64
108744 Off ch=10 n=70 v=64
108747 Off ch=10 n=62 v=64
108956 On ch=10 n=63 v=69
108958 On ch=10 n=36 v=114
108958 On ch=10 n=38 v=99
108958 On ch=10 n=42 v=77
108964 On ch=10 n=70 v=59
108981 Off ch=10 n=63 v=64
108983 Off ch=10 n=42 v=64
108983 Off ch=10 n=38 v=64
108983 Off ch=10 n=36 v=64
108989 Off ch=10 n=70 v=64
109198 On ch=10 n=42 v=74
109198 On ch=10 n=70 v=70
109198 On ch=10 n=64 v=62
109223 Off ch=10 n=64 v=64
109223 Off ch=10 n=70 v=64
109223 Off ch=10 n=42 v=64
109322 On ch=10 n=64 v=60
109347 Off ch=10 n=64 v=64
109435 On ch=10 n=64 v=65
109438 On ch=10 n=36 v=117
109438 On ch=10 n=42 v=82
109439 On ch=10 n=70 v=58
109460 Off ch=10 n=64 v=64
109463 Off ch=10 n=42 v=64
109463 Off ch=10 n=36 v=64
109464 Off ch=10 n=70 v=64
109674 On ch=10 n=70 v=67
109678 On ch=10 n=42 v=73
109679 On ch=10 n=62 v=70
109699 Off ch=10 n=70 v=64
109703 Off ch=10 n=42 v=64
109704 Off ch=10 n=62 v=64
109918 On ch=10 n=36 v=114
109918 On ch=10 n=38 v=99
109918 On ch=10 n=42 v=79
109922 On ch=10 n=70 v=57
109924 On ch=10 n=63 v=75
109943 Off ch=10 n=42 v=64
109943 Off ch=10 n=38 v=64
109943 Off ch=10 n=36 v=64
109947 Off ch=10 n=70 v=64
109949 Off ch=10 n=63 v=64
110156 On ch=10 n=64 v=72
110158 On ch=10 n=42 v=75
110159 On ch=10 n=70 v=69
110181 Off ch=10 n=64 v=64
110183 Off ch=10 n=42 v=64
110184 Off ch=10 n=70 v=64
110281 On ch=10 n=64 v=58
110306 Off ch=10 n=64 v=64
110398 On ch=10 n=36 v=117
110398 On ch=10 n=42 v=79
110398 On ch=10 n=64 v=70
110404 On ch=10 n=70 v=60
110423 Off ch=10 n=64 v=64
110423 Off ch=10 n=42 v=64
110423 Off ch=10 n=36 v=64
110429 Off ch=10 n=70 v=64
110636 On ch=10 n=62 v=61
110638 On ch=10 n=42 v=76
110643 On ch=10 n=70 v=68
110661 Off ch=10 n=62 v=64
110663 Off ch=10 n=42 v=64
110668 Off ch=10 n=70 v=64
110878 On ch=10 n=36 v=114
110878 On ch=10 n=38 v=99
110878 On ch=10 n=42 v=78
110884 On ch=10 n=63 v=70
110884 On ch=10 n=70 v=59
110903 Off ch=10 n=42 v=64
110903 Off ch=10 n=38 v=64
110903 Off ch=10 n=36 v=64
110909 Off ch=10 n=70 v=64
110909 Off ch=10 n=63 v=64
111114 On ch=10 n=64 v=63
111118 On ch=10 n=42 v=76
111124 On ch=10 n=70 v=67
111139 Off ch=10 n=64 v=64
111143 Off ch=10 n=42 v=64
111149 Off ch=10 n=70 v=64
111239 On ch=10 n=64 v=56
111264 Off ch=10 n=64 v=64
111356 On ch=10 n=64 v=67
111358 On ch=10 n=36 v=117
111358 On ch=10 n=57 v=74
111361 On ch=10 n=70 v=57
111363 On ch=10 n=44 v=66
111381 Off ch=10 n=64 v=64
111383 Off ch=10 n=36 v=64
111386 Off ch=10 n=70 v=64
111388 Off ch=10 n=44 v=64
111840 On ch=10 n=44 v=72
111865 Off ch=10 n=44 v=64
112319 On ch=10 n=44 v=69
112344 Off ch=10 n=44 v=64
112798 On ch=10 n=44 v=72
112823 Off ch=10 n=44 v=64
113268 Off ch=10 n=57 v=64
113277 On ch=10 n=64 v=66
113278 On ch=10 n=36 v=117
113278 On ch=10 n=42 v=82
113278 On ch=10 n=49 v=77
113283 On ch=10 n=70 v=56
113302 Off ch=10 n=64 v=64
113303 Off ch=10 n=42 v=64
113303 Off ch=10 n=36 v=64
113308 Off ch=10 n=70 v=64
113516 On ch=10 n=70 v=66
113518 On ch=10 n=42 v=74
113521 On ch=10 n=62 v=72
113541 Off ch=10 n=70 v=64
113543 Off ch=10 n=42 v=64
113546 Off ch=10 n=62 v=64
113758 On ch=10 n=36 v=114
113758 On ch=10 n=38 v=99
113758 On ch=10 n=42 v=78
113760 On ch=10 n=70 v=57
113762 On ch=10 n=63 v=74
113783 Off ch=10 n=42 v=64
113783 Off ch=10 n=38 v=64
113783 Off ch=10 n=36 v=64
113785 Off ch=10 n=70 v=64
113787 Off ch=10 n=63 v=64
113996 On ch=10 n=64 v=67
113998 On ch=10 n=42 v=75
114001 On ch=10 n=70 v=67
114021 Off ch=10 n=64 v=64
114023 Off ch=10 n=42 v=64
114026 Off ch=10 n=70 v=64
114124 On ch=10 n=64 v=53
114149 Off ch=10 n=64 v=64
114234 On ch=10 n=64 v=70
114235 On ch=10 n=70 v=57
114238 On ch=10 n=36 v=117
114238 On ch=10 n=42 v=81
114259 Off ch=10 n=64 v=64
114260 Off ch=10 n=70 v=64
114263 Off ch=10 n=42 v=64
114263 Off ch=10 n=36 v=64
114478 On ch=10 n=42 v=75
114479 On ch=10 n=62 v=61
114483 On ch=10 n=70 v=66
114503 Off ch=10 n=42 v=64
114504 Off ch=10 n=62 v=64
114508 Off ch=10 n=70 v=64
114718 On ch=10 n=36 v=114
114718 On ch=10 n=38 v=99
114718 On ch=10 n=42 v=78
114718 On ch=10 n=63 v=70
114719 On ch=10 n=70 v=58
114743 Off ch=10 n=63 v=64
114743 Off ch=10 n=42 v=64
114743 Off ch=10 n=38 v=64
114743 Off ch=10 n=36 v=64
114744 Off ch=10 n=70 v=64
114958 On ch=10 n=42 v=73
114958 On ch=10 n=64 v=66
114964 On ch=10 n=70 v=69
114983 Off ch=10 n=64 v=64
114983 Off ch=10 n=42 v=64
114989 Off ch=10 n=70 v=64
115081 On ch=10 n=64 v=60
115106 Off ch=10 n=64 v=64
115188 Off ch=10 n=49 v=64
115198 On ch=10 n=36 v=117
115198 On ch=10 n=42 v=82
115201 On ch=10 n=64 v=71
115201 On ch=10 n=70 v=58
115223 Off ch=10 n=42 v=64
115223 Off ch=10 n=36 v=64
115226 Off ch=10 n=70 v=64
115226 Off ch=10 n=64 v=64
115438 On ch=10 n=42 v=75
115440 On ch=10 n=62 v=73
115442 On ch=10 n=70 v=68
115463 Off ch=10 n=42 v=64
115465 Off ch=10 n=62 v=64
115467 Off ch=10 n=70 v=64
115678 On ch=10 n=36 v=114
115678 On ch=10 n=38 v=99
115678 On ch=10 n=42 v=80
115679 On ch=10 n=63 v=78
115681 On ch=10 n=70 v=57
115703 Off ch=10 n=42 v=64
115703 Off ch=10 n=38 v=64
115703 Off ch=10 n=36 v=64
115704 Off ch=10 n=63 v=64
115706 Off ch=10 n=70 v=64
115914 On ch=10 n=64 v=70
115918 On ch=10 n=42 v=75
115918 On ch=10 n=70 v=68
115939 Off ch=10 n=64 v=64
115943 Off ch=10 n=70 v=64
115943 Off ch=10 n=42 v=64
116042 On ch=10 n=64 v=58
116067 Off ch=10 n=64 v=64
116157 On ch=10 n=64 v=67
116158 On ch=10 n=36 v=117
116158 On ch=10 n=42 v=82
116159 On ch=10 n=70 v=56
116182 Off ch=10 n=64 v=64
116183 Off ch=10 n=42 v=64
116183 Off ch=10 n=36 v=64
116184 Off ch=10 n=70 v=64
116398 On ch=10 n=42 v=74
116401 On ch=10 n=62 v=58
116403 On ch=10 n=70 v=67
116423 Off ch=10 n=42 v=64
116426 Off ch=10 n=62 v=64
116428 Off ch=10 n=70 v=64
116635 On ch=10 n=70 v=56
116638 On ch=10 n=36 v=114
116638 On ch=10 n=38 v=99
116638 On ch=10 n=42 v=79
116642 On ch=10 n=63 v=69
116660 Off ch=10 n=70 v=64
116663 Off ch=10 n=42 v=64
116663 Off ch=10 n=38 v=64
116663 Off ch=10 n=36 v=64
116667 Off ch=10 n=63 v=64
116875 On ch=10 n=70 v=69
116878 On ch=10 n=42 v=76
116880 On ch=10 n=64 v=65
116900 Off ch=10 n=70 v=64
116903 Off ch=10 n=42 v=64
116905 Off ch=10 n=64 v=64
116998 On ch=10 n=64 v=58
117023 Off ch=10 n=64 v=64
117117 On ch=10 n=64 v=70
117118 On ch=10 n=36 v=117
117118 On ch=10 n=42 v=81
117119 On ch=10 n=70 v=55
117142 Off ch=10 n=64 v=64
117143 Off ch=10 n=42 v=64
117143 Off ch=10 n=36 v=64
117144 Off ch=10 n=70 v=64
117356 On ch=10 n=70 v=67
117358 On ch=10 n=42 v=76
117358 On ch=10 n=62 v=71
117381 Off ch=10 n=70 v=64
117383 Off ch=10 n=62 v=64
117383 Off ch=10 n=42 v=64
117598 On ch=10 n=36 v=114
117598 On ch=10 n=38 v=99
117598 On ch=10 n=42 v=79
117602 On ch=10 n=70 v=57
117604 On ch=10 n=63 v=80
117623 Off ch=10 n=42 v=64
117623 Off ch=10 n=38 v=64
117623 Off ch=10 n=36 v=64
117627 Off ch=10 n=70 v=64
117629 Off ch=10 n=63 v=64
117834 On ch=10 n=70 v=70
117836 On ch=10 n=64 v=68
117838 On ch=10 n=42 v=75
117859 Off ch=10 n=70 v=64
117861 Off ch=10 n=64 v=64
117863 Off ch=10 n=42 v=64
117963 On ch=10 n=64 v=58
117988 Off ch=10 n=64 v=64
118553 On ch=10 n=44 v=61
118578 Off ch=10 n=44 v=64
119034 On ch=10 n=44 v=68
119038 On ch=10 n=36 v=117
119059 Off ch=10 n=44 v=64
119063 Off ch=10 n=36 v=64
119278 On ch=10 n=36 v=109
119303 Off ch=10 n=36 v=64
119518 On ch=10 n=36 v=114
119518 On ch=10 n=44 v=73
119543 Off ch=10 n=44 v=64
119543 Off ch=10 n=36 v=64
119758 On ch=10 n=36 v=106
119783 Off ch=10 n=36 v=64
119998 On ch=10 n=36 v=117
120000 On ch=10 n=44 v=64
120023 Off ch=10 n=36 v=64
120025 Off ch=10 n=44 v=64
120478 On ch=10 n=38 v=99
120479 On ch=10 n=44 v=76
120503 Off ch=10 n=38 v=64
120504 Off ch=10 n=44 v=64
120958 On ch=10 n=36 v=117
120958 On ch=10 n=42 v=81
120958 On ch=10 n=49 v=79
120963 On ch=10 n=70 v=58
120964 On ch=10 n=64 v=70
120983 Off ch=10 n=42 v=64
120983 Off ch=10 n=36 v=64
120988 Off ch=10 n=70 v=64
120989 Off ch=10 n=64 v=64
121198 On ch=10 n=42 v=73
121200 On ch=10 n=62 v=71
121202 On ch=10 n=70 v=67
121223 Off ch=10 n=42 v=64
121225 Off ch=10 n=62 v=64
121227 Off ch=10 n=70 v=64
121438 On ch=10 n=36 v=114
121438 On ch=10 n=38 v=99
121438 On ch=10 n=42 v=81
121441 On ch=10 n=70 v=58
121444 On ch=10 n=63 v=78
121463 Off ch=10 n=42 v=64
121463 Off ch=10 n=38 v=64
121463 Off ch=10 n=36 v=64
121466 Off ch=10 n=70 v=64
121469 Off ch=10 n=63 v=64
121676 On ch=10 n=64 v=70
121677 On ch=10 n=70 v=67
121678 On ch=10 n=42 v=73
121701 Off ch=10 n=64 v=64
121702 Off ch=10 n=70 v=64
121703 Off ch=10 n=42 v=64
121798 On ch=10 n=64 v=53
121823 Off ch=10 n=64 v=64
121917 On ch=10 n=64 v=72
121918 On ch=10 n=36 v=117
121918 On ch=10 n=42 v=79
121918 On ch=10 n=70 v=57
121942 Off ch=10 n=64 v=64
121943 Off ch=10 n=70 v=64
121943 Off ch=10 n=42 v=64
121943 Off ch=10 n=36 v=64
122158 On ch=10 n=42 v=73
122161 On ch=10 n=70 v=70
122165 On ch=10 n=62 v=64
122183 Off ch=10 n=42 v=64
122186 Off ch=10 n=70 v=64
122190 Off ch=10 n=62 v=64
122397 On ch=10 n=63 v=72
122398 On ch=10 n=36 v=114
122398 On ch=10 n=38 v=99
122398 On ch=10 n=42 v=80
122403 On ch=10 n=70 v=57
122422 Off ch=10 n=63 v=64
122423 Off ch=10 n=42 v=64
122423 Off ch=10 n=38 v=64
122423 Off ch=10 n=36 v=64
122428 Off ch=10 n=70 v=64
122638 On ch=10 n=42 v=75
122641 On ch=10 n=64 v=62
122642 On ch=10 n=70 v=68
122663 Off ch=10 n=42 v=64
122666 Off ch=10 n=64 v=64
122667 Off ch=10 n=70 v=64
122757 On ch=10 n=64 v=61
122782 Off ch=10 n=64 v=64
122868 Off ch=10 n=49 v=64
122875 On ch=10 n=70 v=56
122878 On ch=10 n=36 v=117
122878 On ch=10 n=42 v=82
122883 On ch=10 n=64 v=69
122900 Off ch=10 n=70 v=64
122903 Off ch=10 n=42 v=64
122903 Off ch=10 n=36 v=64
122908 Off ch=10 n=64 v=64
123117 On ch=10 n=62 v=71
123118 On ch=10 n=42 v=76
123122 On ch=10 n=70 v=67
123142 Off ch=10 n=62 v=64
123143 Off ch=10 n=42 v=64
123147 Off ch=10 n=70 v=64
123357 On ch=10 n=70 v=56
123358 On ch=10 n=36 v=114
123358 On ch=10 n=38 v=99
123358 On ch=10 n=42 v=81
123363 On ch=10 n=63 v=79
123382 Off ch=10 n=70 v=64
123383 Off ch=10 n=42 v=64
123383 Off ch=10 n=38 v=64
123383 Off ch=10 n=36 v=64
123388 Off ch=10 n=63 v=64
123594 On ch=10 n=64 v=70
123598 On ch=10 n=42 v=76
123599 On ch=10 n=70 v=66
123619 Off ch=10 n=64 v=64
123623 Off ch=10 n=42 v=64
123624 Off ch=10 n=70 v=64
123722 On ch=10 n=64 v=59
123747 Off ch=10 n=64 v=64
123836 On ch=10 n=70 v=58
123838 On ch=10 n=36 v=117
123838 On ch=10 n=42 v=82
123841 On ch=10 n=64 v=67
123861 Off ch=10 n=70 v=64
123863 Off ch=10 n=42 v=64
123863 Off ch=10 n=36 v=64
123866 Off ch=10 n=64 v=64
124075 On ch=10 n=70 v=68
124078 On ch=10 n=42 v=73
124078 On ch=10 n=62 v=58
124100 Off ch=10 n=70 v=64
124103 Off ch=10 n=62 v=64
124103 Off ch=10 n=42 v=64
124318 On ch=10 n=36 v=114
124318 On ch=10 n=38 v=99
124318 On ch=10 n=42 v=78
124318 On ch=10 n=63 v=69
124324 On ch=10 n=70 v=57
124343 Off ch=10 n=63 v=64
124343 Off ch=10 n=42 v=64
124343 Off ch=10 n=38 v=64
124343 Off ch=10 n=36 v=64
124349 Off ch=10 n=70 v=64
124558 On ch=10 n=42 v=75
124559 On ch=10 n=70 v=70
124559 On ch=10 n=64 v=62
124583 Off ch=10 n=42 v=64
124584 Off ch=10 n=64 v=64
124584 Off ch=10 n=70 v=64
124674 On ch=10 n=64 v=57
124699 Off ch=10 n=64 v=64
124794 On ch=10 n=64 v=69
124798 On ch=10 n=36 v=117
124798 On ch=10 n=42 v=85
124799 On ch=10 n=70 v=56
124819 Off ch=10 n=64 v=64
124823 Off ch=10 n=42 v=64
124823 Off ch=10 n=36 v=64
124824 Off ch=10 n=70 v=64
125038 On ch=10 n=42 v=74
125041 On ch=10 n=70 v=67
125044 On ch=10 n=62 v=69
125063 Off ch=10 n=42 v=64
125066 Off ch=10 n=70 v=64
125069 Off ch=10 n=62 v=64
125278 On ch=10 n=36 v=114
125278 On ch=10 n=38 v=99
125278 On ch=10 n=42 v=82
125280 On ch=10 n=63 v=77
125283 On ch=10 n=70 v=58
125303 Off ch=10 n=42 v=64
125303 Off ch=10 n=38 v=64
125303 Off ch=10 n=36 v=64
125305 Off ch=10 n=63 v=64
125308 Off ch=10 n=70 v=64
125516 On ch=10 n=64 v=73
125518 On ch=10 n=42 v=73
125522 On ch=10 n=70 v=70
125541 Off ch=10 n=64 v=64
125543 Off ch=10 n=42 v=64
125547 Off ch=10 n=70 v=64
125638 On ch=10 n=64 v=54
125663 Off ch=10 n=64 v=64
125754 On ch=10 n=70 v=59
125757 On ch=10 n=64 v=70
125758 On ch=10 n=36 v=117
125758 On ch=10 n=42 v=82
125779 Off ch=10 n=70 v=64
125782 Off ch=10 n=64 v=64
125783 Off ch=10 n=42 v=64
125783 Off ch=10 n=36 v=64
125998 On ch=10 n=42 v=74
126000 On ch=10 n=62 v=63
126000 On ch=10 n=70 v=67
126023 Off ch=10 n=42 v=64
126025 Off ch=10 n=70 v=64
126025 Off ch=10 n=62 v=64
126234 On ch=10 n=70 v=57
126237 On ch=10 n=63 v=72
126238 On ch=10 n=36 v=114
126238 On ch=10 n=38 v=99
126238 On ch=10 n=42 v=76
126259 Off ch=10 n=70 v=64
126262 Off ch=10 n=63 v=64
126263 Off ch=10 n=42 v=64
126263 Off ch=10 n=38 v=64
126263 Off ch=10 n=36 v=64
126476 On ch=10 n=70 v=67
126478 On ch=10 n=42 v=74
126480 On ch=10 n=64 v=63
126501 Off ch=10 n=70 v=64
126503 Off ch=10 n=42 v=64
126505 Off ch=10 n=64 v=64
126595 On ch=10 n=64 v=60
126620 Off ch=10 n=64 v=64
126712 On ch=10 n=44 v=63
126718 On ch=10 n=36 v=117
126718 On ch=10 n=57 v=70
126720 On ch=10 n=64 v=71
126723 On ch=10 n=70 v=59
126737 Off ch=10 n=44 v=64
126743 Off ch=10 n=36 v=64
126745 Off ch=10 n=64 v=64
126748 Off ch=10 n=70 v=64
127199 On ch=10 n=44 v=69
127224 Off ch=10 n=44 v=64
127673 On ch=10 n=44 v=68
127698 Off ch=10 n=44 v=64
128156 On ch=10 n=44 v=75
128181 Off ch=10 n=44 v=64
128628 Off ch=10 n=57 v=64
128632 On ch=10 n=44 v=63
128638 On ch=10 n=36 v=117
128638 On ch=10 n=57 v=71
128657 Off ch=10 n=44 v=64
128663 Off ch=10 n=36 v=64
129118 On ch=10 n=38 v=99
129123 On ch=10 n=44 v=71
129143 Off ch=10 n=38 v=64
129148 Off ch=10 n=44 v=64
129598 On ch=10 n=36 v=117
129601 On ch=10 n=44 v=64
129623 Off ch=10 n=36 v=64
129626 Off ch=10 n=44 v=64
130076 On ch=10 n=44 v=72
130078 On ch=10 n=38 v=99
130101 Off ch=10 n=44 v=64
130103 Off ch=10 n=38 v=64
130548 Off ch=10 n=57 v=64
130558 On ch=10 n=36 v=117
130558 On ch=10 n=42 v=82
130558 On ch=10 n=49 v=77
130561 On ch=10 n=70 v=56
130562 On ch=10 n=64 v=68
130583 Off ch=10 n=42 v=64
130583 Off ch=10 n=36 v=64
130586 Off ch=10 n=70 v=64
130587 Off ch=10 n=64 v=64
130796 On ch=10 n=62 v=71
130798 On ch=10 n=46 v=72
130799 On ch=10 n=35 v=45
130799 On ch=10 n=70 v=65
130799 On ch=10 n=69 v=55
130821 Off ch=10 n=62 v=64
130823 Off ch=10 n=46 v=64
130824 Off ch=10 n=69 v=64
130824 Off ch=10 n=70 v=64
130824 Off ch=10 n=35 v=64
130915 On ch=10 n=35 v=40
130934 On ch=10 n=42 v=46
130940 Off ch=10 n=35 v=64
130959 Off ch=10 n=42 v=64
131036 On ch=10 n=63 v=80
131038 On ch=10 n=36 v=114
131038 On ch=10 n=38 v=99
131038 On ch=10 n=42 v=79
131044 On ch=10 n=39 v=92
131044 On ch=10 n=70 v=59
131061 Off ch=10 n=63 v=64
131063 Off ch=10 n=42 v=64
131063 Off ch=10 n=38 v=64
131063 Off ch=10 n=36 v=64
131069 Off ch=10 n=70 v=64
131069 Off ch=10 n=39 v=64
131278 On ch=10 n=46 v=71
131278 On ch=10 n=64 v=70
131279 On ch=10 n=35 v=53
131279 On ch=10 n=69 v=57
131283 On ch=10 n=70 v=70
131303 Off ch=10 n=64 v=64
131303 Off ch=10 n=46 v=64
131304 Off ch=10 n=69 v=64
131304 Off ch=10 n=35 v=64
131308 Off ch=10 n=70 v=64
131395 On ch=10 n=40 v=54
131396 On ch=10 n=64 v=53
131412 On ch=10 n=42 v=46
131420 Off ch=10 n=40 v=64
131421 Off ch=10 n=64 v=64
131437 Off ch=10 n=42 v=64
131514 On ch=10 n=70 v=59
131518 On ch=10 n=36 v=117
131518 On ch=10 n=42 v=79
131525 On ch=10 n=64 v=70
131539 Off ch=10 n=70 v=64
131543 Off ch=10 n=42 v=64
131543 Off ch=10 n=36 v=64
131550 Off ch=10 n=64 v=64
131640 On ch=10 n=40 v=45
131665 Off ch=10 n=40 v=64
131755 On ch=10 n=70 v=68
131757 On ch=10 n=35 v=40
131757 On ch=10 n=69 v=54
131758 On ch=10 n=46 v=72
131760 On ch=10 n=62 v=60
131780 Off ch=10 n=70 v=64
131782 Off ch=10 n=69 v=64
131782 Off ch=10 n=35 v=64
131783 Off ch=10 n=46 v=64
131785 Off ch=10 n=62 v=64
131898 On ch=10 n=42 v=46
131923 Off ch=10 n=42 v=64
131994 On ch=10 n=63 v=72
131995 On ch=10 n=39 v=87
131998 On ch=10 n=36 v=114
131998 On ch=10 n=38 v=99
131998 On ch=10 n=42 v=79
132004 On ch=10 n=70 v=56
132019 Off ch=10 n=63 v=64
132020 Off ch=10 n=39 v=64
132023 Off ch=10 n=42 v=64
132023 Off ch=10 n=38 v=64
132023 Off ch=10 n=36 v=64
132029 Off ch=10 n=70 v=64
132233 On ch=10 n=69 v=57
132235 On ch=10 n=70 v=70
132238 On ch=10 n=46 v=72
132239 On ch=10 n=64 v=64
132242 On ch=10 n=40 v=44
132258 Off ch=10 n=69 v=64
132260 Off ch=10 n=70 v=64
132263 Off ch=10 n=46 v=64
132264 Off ch=10 n=64 v=64
132267 Off ch=10 n=40 v=64
132358 On ch=10 n=64 v=59
132359 On ch=10 n=40 v=39
132368 On ch=10 n=42 v=46
132383 Off ch=10 n=64 v=64
132384 Off ch=10 n=40 v=64
132393 Off ch=10 n=42 v=64
132468 Off ch=10 n=49 v=64
132478 On ch=10 n=36 v=117
132478 On ch=10 n=42 v=82
132480 On ch=10 n=64 v=66
132480 On ch=10 n=70 v=57
132503 Off ch=10 n=42 v=64
132503 Off ch=10 n=36 v=64
132505 Off ch=10 n=70 v=64
132505 Off ch=10 n=64 v=64
132714 On ch=10 n=70 v=67
132714 On ch=10 n=69 v=57
132717 On ch=10 n=35 v=49
132718 On ch=10 n=46 v=71
132719 On ch=10 n=62 v=71
132739 Off ch=10 n=69 v=64
132739 Off ch=10 n=70 v=64
132742 Off ch=10 n=35 v=64
132743 Off ch=10 n=46 v=64
132744 Off ch=10 n=62 v=64
132836 On ch=10 n=35 v=46
132858 On ch=10 n=42 v=46
132861 Off ch=10 n=35 v=64
132883 Off ch=10 n=42 v=64
132955 On ch=10 n=70 v=58
132958 On ch=10 n=36 v=114
132958 On ch=10 n=38 v=99
132958 On ch=10 n=42 v=81
132960 On ch=10 n=63 v=74
132963 On ch=10 n=39 v=93
132980 Off ch=10 n=70 v=64
132983 Off ch=10 n=42 v=64
132983 Off ch=10 n=38 v=64
132983 Off ch=10 n=36 v=64
132985 Off ch=10 n=63 v=64
132988 Off ch=10 n=39 v=64
133197 On ch=10 n=69 v=55
133198 On ch=10 n=46 v=71
133199 On ch=10 n=35 v=52
133201 On ch=10 n=64 v=73
133201 On ch=10 n=70 v=67
133222 Off ch=10 n=69 v=64
133223 Off ch=10 n=46 v=64
133224 Off ch=10 n=35 v=64
133226 Off ch=10 n=70 v=64
133226 Off ch=10 n=64 v=64
133318 On ch=10 n=40 v=54
133319 On ch=10 n=64 v=58
133341 On ch=10 n=42 v=46
133343 Off ch=10 n=40 v=64
133344 Off ch=10 n=64 v=64
133366 Off ch=10 n=42 v=64
133438 On ch=10 n=36 v=117
133438 On ch=10 n=42 v=82
133439 On ch=10 n=70 v=57
133441 On ch=10 n=64 v=68
133463 Off ch=10 n=42 v=64
133463 Off ch=10 n=36 v=64
133464 Off ch=10 n=70 v=64
133466 Off ch=10 n=64 v=64
133557 On ch=10 n=40 v=47
133582 Off ch=10 n=40 v=64
133674 On ch=10 n=35 v=40
133676 On ch=10 n=70 v=68
133678 On ch=10 n=46 v=69
133679 On ch=10 n=62 v=61
133679 On ch=10 n=69 v=53
133699 Off ch=10 n=35 v=64
133701 Off ch=10 n=70 v=64
133703 Off ch=10 n=46 v=64
133704 Off ch=10 n=69 v=64
133704 Off ch=10 n=62 v=64
133814 On ch=10 n=42 v=46
133839 Off ch=10 n=42 v=64
133917 On ch=10 n=39 v=91
133918 On ch=10 n=36 v=114
133918 On ch=10 n=38 v=99
133918 On ch=10 n=42 v=78
133920 On ch=10 n=63 v=70
133920 On ch=10 n=70 v=58
133942 Off ch=10 n=39 v=64
133943 Off ch=10 n=42 v=64
133943 Off ch=10 n=38 v=64
133943 Off ch=10 n=36 v=64
133945 Off ch=10 n=70 v=64
133945 Off ch=10 n=63 v=64
134155 On ch=10 n=64 v=63
134158 On ch=10 n=46 v=69
134159 On ch=10 n=69 v=57
134159 On ch=10 n=70 v=69
134162 On ch=10 n=40 v=46
134180 Off ch=10 n=64 v=64
134183 Off ch=10 n=46 v=64
134184 Off ch=10 n=70 v=64
134184 Off ch=10 n=69 v=64
134187 Off ch=10 n=40 v=64
134280 On ch=10 n=64 v=56
134282 On ch=10 n=40 v=38
134291 On ch=10 n=42 v=46
134305 Off ch=10 n=64 v=64
134307 Off ch=10 n=40 v=64
134316 Off ch=10 n=42 v=64
134398 On ch=10 n=36 v=117
134398 On ch=10 n=42 v=82
134400 On ch=10 n=70 v=58
134401 On ch=10 n=64 v=66
134423 Off ch=10 n=42 v=64
134423 Off ch=10 n=36 v=64
134425 Off ch=10 n=70 v=64
134426 Off ch=10 n=64 v=64
134632 On ch=10 n=69 v=53
134638 On ch=10 n=46 v=69
134638 On ch=10 n=35 v=51
134638 On ch=10 n=62 v=71
134640 On ch=10 n=70 v=65
134657 Off ch=10 n=69 v=64
134663 Off ch=10 n=62 v=64
134663 Off ch=10 n=35 v=64
134663 Off ch=10 n=46 v=64
134665 Off ch=10 n=70 v=64
134756 On ch=10 n=35 v=41
134766 On ch=10 n=42 v=46
134781 Off ch=10 n=35 v=64
134791 Off ch=10 n=42 v=64
134878 On ch=10 n=36 v=114
134878 On ch=10 n=38 v=99
134878 On ch=10 n=42 v=77
134878 On ch=10 n=70 v=57
134880 On ch=10 n=39 v=91
134883 On ch=10 n=63 v=80
134903 Off ch=10 n=70 v=64
134903 Off ch=10 n=42 v=64
134903 Off ch=10 n=38 v=64
134903 Off ch=10 n=36 v=64
134905 Off ch=10 n=39 v=64
134908 Off ch=10 n=63 v=64
135115 On ch=10 n=35 v=49
135116 On ch=10 n=64 v=71
135118 On ch=10 n=46 v=70
135118 On ch=10 n=69 v=58
135120 On ch=10 n=70 v=68
135140 Off ch=10 n=35 v=64
135141 Off ch=10 n=64 v=64
135143 Off ch=10 n=69 v=64
135143 Off ch=10 n=46 v=64
135145 Off ch=10 n=70 v=64
135234 On ch=10 n=64 v=58
135235 On ch=10 n=40 v=54
135256 On ch=10 n=42 v=46
135259 Off ch=10 n=64 v=64
135260 Off ch=10 n=40 v=64
135281 Off ch=10 n=42 v=64
135358 On ch=10 n=36 v=117
135358 On ch=10 n=42 v=79
135362 On ch=10 n=64 v=73
135364 On ch=10 n=70 v=60
135383 Off ch=10 n=42 v=64
135383 Off ch=10 n=36 v=64
135387 Off ch=10 n=64 v=64
135389 Off ch=10 n=70 v=64
135476 On ch=10 n=40 v=48
135501 Off ch=10 n=40 v=64
135593 On ch=10 n=69 v=56
135595 On ch=10 n=35 v=47
135595 On ch=10 n=62 v=61
135597 On ch=10 n=70 v=68
135598 On ch=10 n=46 v=69
135618 Off ch=10 n=69 v=64
135620 Off ch=10 n=62 v=64
135620 Off ch=10 n=35 v=64
135622 Off ch=10 n=70 v=64
135623 Off ch=10 n=46 v=64
135735 On ch=10 n=42 v=46
135760 Off ch=10 n=42 v=64
135836 On ch=10 n=39 v=87
135837 On ch=10 n=70 v=56
135838 On ch=10 n=36 v=114
135838 On ch=10 n=38 v=99
135838 On ch=10 n=42 v=76
135845 On ch=10 n=63 v=66
135861 Off ch=10 n=39 v=64
135862 Off ch=10 n=70 v=64
135863 Off ch=10 n=42 v=64
135863 Off ch=10 n=38 v=64
135863 Off ch=10 n=36 v=64
135870 Off ch=10 n=63 v=64
136075 On ch=10 n=40 v=43
136075 On ch=10 n=64 v=63
136076 On ch=10 n=69 v=56
136078 On ch=10 n=46 v=70
136083 On ch=10 n=70 v=67
136100 Off ch=10 n=64 v=64
136100 Off ch=10 n=40 v=64
136101 Off ch=10 n=69 v=64
136103 Off ch=10 n=46 v=64
136108 Off ch=10 n=70 v=64
136194 On ch=10 n=64 v=62
136198 On ch=10 n=40 v=41
136218 On ch=10 n=42 v=46
136219 Off ch=10 n=64 v=64
136223 Off ch=10 n=40 v=64
136243 Off ch=10 n=42 v=64
136315 On ch=10 n=64 v=67
136318 On ch=10 n=36 v=117
136318 On ch=10 n=42 v=82
136319 On ch=10 n=70 v=58
136340 Off ch=10 n=64 v=64
136343 Off ch=10 n=42 v=64
136343 Off ch=10 n=36 v=64
136344 Off ch=10 n=70 v=64
136552 On ch=10 n=69 v=53
136556 On ch=10 n=70 v=67
136556 On ch=10 n=35 v=51
136556 On ch=10 n=62 v=73
136558 On ch=10 n=46 v=71
136577 Off ch=10 n=69 v=64
136581 Off ch=10 n=62 v=64
136581 Off ch=10 n=35 v=64
136581 Off ch=10 n=70 v=64
136583 Off ch=10 n=46 v=64
136678 On ch=10 n=35 v=43
136700 On ch=10 n=42 v=46
136703 Off ch=10 n=35 v=64
136725 Off ch=10 n=42 v=64
136794 On ch=10 n=39 v=87
136798 On ch=10 n=36 v=114
136798 On ch=10 n=38 v=99
136798 On ch=10 n=42 v=77
136800 On ch=10 n=70 v=56
136803 On ch=10 n=63 v=77
136819 Off ch=10 n=39 v=64
136823 Off ch=10 n=42 v=64
136823 Off ch=10 n=38 v=64
136823 Off ch=10 n=36 v=64
136825 Off ch=10 n=70 v=64
136828 Off ch=10 n=63 v=64
137031 On ch=10 n=69 v=53
137035 On ch=10 n=64 v=70
137038 On ch=10 n=46 v=68
137038 On ch=10 n=70 v=68
137041 On ch=10 n=35 v=51
137056 Off ch=10 n=69 v=64
137060 Off ch=10 n=64 v=64
137063 Off ch=10 n=70 v=64
137063 Off ch=10 n=46 v=64
137066 Off ch=10 n=35 v=64
137153 On ch=10 n=40 v=52
137164 On ch=10 n=64 v=53
137175 On ch=10 n=42 v=46
137178 Off ch=10 n=40 v=64
137189 Off ch=10 n=64 v=64
137200 Off ch=10 n=42 v=64
137275 On ch=10 n=64 v=73
137278 On ch=10 n=36 v=117
137278 On ch=10 n=42 v=80
137278 On ch=10 n=70 v=58
137300 Off ch=10 n=64 v=64
137303 Off ch=10 n=70 v=64
137303 Off ch=10 n=42 v=64
137303 Off ch=10 n=36 v=64
137398 On ch=10 n=40 v=47
137423 Off ch=10 n=40 v=64
137518 On ch=10 n=46 v=72
137518 On ch=10 n=70 v=68
137518 On ch=10 n=35 v=44
137520 On ch=10 n=62 v=64
137521 On ch=10 n=69 v=53
137543 Off ch=10 n=35 v=64
137543 Off ch=10 n=70 v=64
137543 Off ch=10 n=46 v=64
137545 Off ch=10 n=62 v=64
137546 Off ch=10 n=69 v=64
137661 On ch=10 n=42 v=46
137686 Off ch=10 n=42 v=64
137754 On ch=10 n=70 v=57
137755 On ch=10 n=63 v=67
137758 On ch=10 n=36 v=114
137758 On ch=10 n=38 v=99
137758 On ch=10 n=42 v=78
137766 On ch=10 n=39 v=87
137779 Off ch=10 n=70 v=64
137780 Off ch=10 n=63 v=64
137783 Off ch=10 n=42 v=64
137783 Off ch=10 n=38 v=64
137783 Off ch=10 n=36 v=64
137791 Off ch=10 n=39 v=64
137996 On ch=10 n=69 v=54
137996 On ch=10 n=70 v=70
137998 On ch=10 n=46 v=70
137999 On ch=10 n=40 v=43
137999 On ch=10 n=64 v=65
138021 Off ch=10 n=70 v=64
138021 Off ch=10 n=69 v=64
138023 Off ch=10 n=46 v=64
138024 Off ch=10 n=64 v=64
138024 Off ch=10 n=40 v=64
138116 On ch=10 n=40 v=37
138123 On ch=10 n=64 v=62
138130 On ch=10 n=42 v=46
138141 Off ch=10 n=40 v=64
138148 Off ch=10 n=64 v=64
138155 Off ch=10 n=42 v=64
138238 On ch=10 n=36 v=117
138238 On ch=10 n=42 v=85
138239 On ch=10 n=70 v=59
138243 On ch=10 n=64 v=68
138263 Off ch=10 n=42 v=64
138263 Off ch=10 n=36 v=64
138264 Off ch=10 n=70 v=64
138268 Off ch=10 n=64 v=64
138476 On ch=10 n=69 v=57
138478 On ch=10 n=35 v=49
138478 On ch=10 n=46 v=72
138482 On ch=10 n=70 v=65
138483 On ch=10 n=62 v=68
138501 Off ch=10 n=69 v=64
138503 Off ch=10 n=46 v=64
138503 Off ch=10 n=35 v=64
138507 Off ch=10 n=70 v=64
138508 Off ch=10 n=62 v=64
138596 On ch=10 n=35 v=42
138618 On ch=10 n=42 v=46
138621 Off ch=10 n=35 v=64
138643 Off ch=10 n=42 v=64
138718 On ch=10 n=36 v=114
138718 On ch=10 n=38 v=99
138718 On ch=10 n=42 v=81
138720 On ch=10 n=39 v=88
138721 On ch=10 n=63 v=77
138722 On ch=10 n=70 v=56
138743 Off ch=10 n=42 v=64
138743 Off ch=10 n=38 v=64
138743 Off ch=10 n=36 v=64
138745 Off ch=10 n=39 v=64
138746 Off ch=10 n=63 v=64
138747 Off ch=10 n=70 v=64
138956 On ch=10 n=70 v=70
138958 On ch=10 n=46 v=70
138958 On ch=10 n=69 v=53
138958 On ch=10 n=35 v=53
138958 On ch=10 n=64 v=71
138981 Off ch=10 n=70 v=64
138983 Off ch=10 n=64 v=64
138983 Off ch=10 n=35 v=64
138983 Off ch=10 n=69 v=64
138983 Off ch=10 n=46 v=64
139074 On ch=10 n=40 v=55
139074 On ch=10 n=64 v=55
139099 Off ch=10 n=64 v=64
139099 Off ch=10 n=40 v=64
139100 On ch=10 n=42 v=46
139125 Off ch=10 n=42 v=64
139198 On ch=10 n=36 v=117
139198 On ch=10 n=42 v=80
139202 On ch=10 n=64 v=67
139203 On ch=10 n=70 v=56
139223 Off ch=10 n=42 v=64
139223 Off ch=10 n=36 v=64
139227 Off ch=10 n=64 v=64
139228 Off ch=10 n=70 v=64
139322 On ch=10 n=40 v=45
139347 Off ch=10 n=40 v=64
139438 On ch=10 n=46 v=70
139439 On ch=10 n=70 v=67
139439 On ch=10 n=35 v=46
139440 On ch=10 n=69 v=54
139443 On ch=10 n=62 v=59
139463 Off ch=10 n=46 v=64
139464 Off ch=10 n=35 v=64
139464 Off ch=10 n=70 v=64
139465 Off ch=10 n=69 v=64
139468 Off ch=10 n=62 v=64
139572 On ch=10 n=42 v=46
139597 Off ch=10 n=42 v=64
139675 On ch=10 n=63 v=72
139678 On ch=10 n=36 v=114
139678 On ch=10 n=38 v=99
139678 On ch=10 n=42 v=79
139680 On ch=10 n=39 v=92
139682 On ch=10 n=70 v=59
139700 Off ch=10 n=63 v=64
139703 Off ch=10 n=42 v=64
139703 Off ch=10 n=38 v=64
139703 Off ch=10 n=36 v=64
139705 Off ch=10 n=39 v=64
139707 Off ch=10 n=70 v=64
139915 On ch=10 n=64 v=67
139917 On ch=10 n=40 v=48
139918 On ch=10 n=46 v=68
139918 On ch=10 n=69 v=55
139919 On ch=10 n=70 v=69
139940 Off ch=10 n=64 v=64
139942 Off ch=10 n=40 v=64
139943 Off ch=10 n=69 v=64
139943 Off ch=10 n=46 v=64
139944 Off ch=10 n=70 v=64
140036 On ch=10 n=40 v=37
140044 On ch=10 n=64 v=56
140047 On ch=10 n=42 v=46
140061 Off ch=10 n=40 v=64
140069 Off ch=10 n=64 v=64
140072 Off ch=10 n=42 v=64
140158 On ch=10 n=36 v=117
140158 On ch=10 n=42 v=82
140159 On ch=10 n=70 v=55
140164 On ch=10 n=64 v=65
140183 Off ch=10 n=42 v=64
140183 Off ch=10 n=36 v=64
140184 Off ch=10 n=70 v=64
140189 Off ch=10 n=64 v=64
140390 On ch=10 n=69 v=55
140396 On ch=10 n=35 v=53
140397 On ch=10 n=62 v=73
140398 On ch=10 n=46 v=71
140398 On ch=10 n=70 v=67
140415 Off ch=10 n=69 v=64
140421 Off ch=10 n=35 v=64
140422 Off ch=10 n=62 v=64
140423 Off ch=10 n=70 v=64
140423 Off ch=10 n=46 v=64
140512 On ch=10 n=35 v=48
140537 Off ch=10 n=35 v=64
140541 On ch=10 n=42 v=46
140566 Off ch=10 n=42 v=64
140633 On ch=10 n=70 v=56
140637 On ch=10 n=63 v=77
140638 On ch=10 n=36 v=114
140638 On ch=10 n=38 v=99
140638 On ch=10 n=42 v=79
140642 On ch=10 n=39 v=87
140658 Off ch=10 n=70 v=64
140662 Off ch=10 n=63 v=64
140663 Off ch=10 n=42 v=64
140663 Off ch=10 n=38 v=64
140663 Off ch=10 n=36 v=64
140667 Off ch=10 n=39 v=64
140874 On ch=10 n=70 v=66
140876 On ch=10 n=69 v=56
140878 On ch=10 n=35 v=51
140878 On ch=10 n=46 v=70
140884 On ch=10 n=64 v=73
140899 Off ch=10 n=70 v=64
140901 Off ch=10 n=69 v=64
140903 Off ch=10 n=46 v=64
140903 Off ch=10 n=35 v=64
140909 Off ch=10 n=64 v=64
140998 On ch=10 n=40 v=56
141000 On ch=10 n=64 v=59
141010 On ch=10 n=42 v=46
141023 Off ch=10 n=40 v=64
141025 Off ch=10 n=64 v=64
141035 Off ch=10 n=42 v=64
141117 On ch=10 n=70 v=59
141118 On ch=10 n=36 v=117
141118 On ch=10 n=42 v=83
141122 On ch=10 n=64 v=69
141142 Off ch=10 n=70 v=64
141143 Off ch=10 n=42 v=64
141143 Off ch=10 n=36 v=64
141147 Off ch=10 n=64 v=64
141238 On ch=10 n=40 v=47
141263 Off ch=10 n=40 v=64
141350 On ch=10 n=69 v=53
141356 On ch=10 n=35 v=46
141358 On ch=10 n=46 v=71
141359 On ch=10 n=70 v=67
141364 On ch=10 n=62 v=59
141375 Off ch=10 n=69 v=64
141381 Off ch=10 n=35 v=64
141383 Off ch=10 n=46 v=64
141384 Off ch=10 n=70 v=64
141389 Off ch=10 n=62 v=64
141487 On ch=10 n=42 v=46
141512 Off ch=10 n=42 v=64
141598 On ch=10 n=36 v=114
141598 On ch=10 n=38 v=99
141598 On ch=10 n=42 v=78
141599 On ch=10 n=70 v=56
141604 On ch=10 n=63 v=69
141605 On ch=10 n=39 v=88
141623 Off ch=10 n=42 v=64
141623 Off ch=10 n=38 v=64
141623 Off ch=10 n=36 v=64
141624 Off ch=10 n=70 v=64
141629 Off ch=10 n=63 v=64
141630 Off ch=10 n=39 v=64
141832 On ch=10 n=69 v=55
141834 On ch=10 n=64 v=65
141837 On ch=10 n=40 v=45
141838 On ch=10 n=46 v=70
141843 On ch=10 n=70 v=68
141857 Off ch=10 n=69 v=64
141859 Off ch=10 n=64 v=64
141862 Off ch=10 n=40 v=64
141863 Off ch=10 n=46 v=64
141868 Off ch=10 n=70 v=64
141957 On ch=10 n=64 v=59
141959 On ch=10 n=40 v=40
141969 On ch=10 n=42 v=46
141982 Off ch=10 n=64 v=64
141984 Off ch=10 n=40 v=64
141994 Off ch=10 n=42 v=64
142077 On ch=10 n=64 v=69
142078 On ch=10 n=36 v=117
142078 On ch=10 n=42 v=82
142079 On ch=10 n=70 v=56
142102 Off ch=10 n=64 v=64
142103 Off ch=10 n=42 v=64
142103 Off ch=10 n=36 v=64
142104 Off ch=10 n=70 v=64
142317 On ch=10 n=35 v=47
142318 On ch=10 n=46 v=69
142319 On ch=10 n=62 v=70
142319 On ch=10 n=69 v=55
142324 On ch=10 n=70 v=70
142342 Off ch=10 n=35 v=64
142343 Off ch=10 n=46 v=64
142344 Off ch=10 n=69 v=64
142344 Off ch=10 n=62 v=64
142349 Off ch=10 n=70 v=64
142438 On ch=10 n=35 v=43
142450 On ch=10 n=42 v=46
142463 Off ch=10 n=35 v=64
142475 Off ch=10 n=42 v=64
142556 On ch=10 n=70 v=59
142558 On ch=10 n=36 v=114
142558 On ch=10 n=38 v=99
142558 On ch=10 n=42 v=79
142562 On ch=10 n=63 v=74
142563 On ch=10 n=39 v=90
142581 Off ch=10 n=70 v=64
142583 Off ch=10 n=42 v=64
142583 Off ch=10 n=38 v=64
142583 Off ch=10 n=36 v=64
142587 Off ch=10 n=63 v=64
142588 Off ch=10 n=39 v=64
142795 On ch=10 n=35 v=48
142797 On ch=10 n=69 v=54
142798 On ch=10 n=46 v=69
142802 On ch=10 n=64 v=69
142804 On ch=10 n=70 v=67
142820 Off ch=10 n=35 v=64
142822 Off ch=10 n=69 v=64
142823 Off ch=10 n=46 v=64
142827 Off ch=10 n=64 v=64
142829 Off ch=10 n=70 v=64
142914 On ch=10 n=40 v=55
142918 On ch=10 n=64 v=57
142924 On ch=10 n=42 v=46
142939 Off ch=10 n=40 v=64
142943 Off ch=10 n=64 v=64
142949 Off ch=10 n=42 v=64
143038 On ch=10 n=36 v=117
143038 On ch=10 n=42 v=80
143042 On ch=10 n=70 v=57
143045 On ch=10 n=64 v=72
143063 Off ch=10 n=42 v=64
143063 Off ch=10 n=36 v=64
143067 Off ch=10 n=70 v=64
143070 Off ch=10 n=64 v=64
143158 On ch=10 n=40 v=48
143183 Off ch=10 n=40 v=64
143275 On ch=10 n=69 v=56
143277 On ch=10 n=35 v=44
143278 On ch=10 n=46 v=70
143281 On ch=10 n=70 v=67
143283 On ch=10 n=62 v=63
143300 Off ch=10 n=69 v=64
143302 Off ch=10 n=35 v=64
143303 Off ch=10 n=46 v=64
143306 Off ch=10 n=70 v=64
143308 Off ch=10 n=62 v=64
143408 On ch=10 n=42 v=46
143433 Off ch=10 n=42 v=64
143514 On ch=10 n=39 v=89
143516 On ch=10 n=70 v=57
143518 On ch=10 n=36 v=114
143518 On ch=10 n=38 v=99
143518 On ch=10 n=42 v=76
143520 On ch=10 n=63 v=69
143539 Off ch=10 n=39 v=64
143541 Off ch=10 n=70 v=64
143543 Off ch=10 n=42 v=64
143543 Off ch=10 n=38 v=64
143543 Off ch=10 n=36 v=64
143545 Off ch=10 n=63 v=64
143756 On ch=10 n=70 v=67
143757 On ch=10 n=64 v=64
143758 On ch=10 n=46 v=71
143759 On ch=10 n=40 v=46
143760 On ch=10 n=69 v=55
143781 Off ch=10 n=70 v=64
143782 Off ch=10 n=64 v=64
143783 Off ch=10 n=46 v=64
143784 Off ch=10 n=40 v=64
143785 Off ch=10 n=69 v=64
143874 On ch=10 n=64 v=56
143875 On ch=10 n=40 v=38
143896 On ch=10 n=42 v=46
143899 Off ch=10 n=64 v=64
143900 Off ch=10 n=40 v=64
143921 Off ch=10 n=42 v=64
143994 On ch=10 n=64 v=68
143998 On ch=10 n=36 v=117
143998 On ch=10 n=42 v=80
143998 On ch=10 n=57 v=72
143998 On ch=10 n=70 v=56
144019 Off ch=10 n=64 v=64
144023 Off ch=10 n=70 v=64
144023 Off ch=10 n=42 v=64
144023 Off ch=10 n=36 v=64
144238 On ch=10 n=42 v=74
144240 On ch=10 n=62 v=71
144240 On ch=10 n=69 v=55
144240 On ch=10 n=70 v=67
144242 On ch=10 n=35 v=47
144263 Off ch=10 n=42 v=64
144265 Off ch=10 n=70 v=64
144265 Off ch=10 n=69 v=64
144265 Off ch=10 n=62 v=64
144267 Off ch=10 n=35 v=64
144360 On ch=10 n=35 v=44
144385 Off ch=10 n=35 v=64
144474 On ch=10 n=63 v=76
144478 On ch=10 n=38 v=99
144478 On ch=10 n=42 v=79
144478 On ch=10 n=70 v=59
144480 On ch=10 n=39 v=91
144499 Off ch=10 n=63 v=64
144503 Off ch=10 n=70 v=64
144503 Off ch=10 n=42 v=64
144503 Off ch=10 n=38 v=64
144505 Off ch=10 n=39 v=64
144714 On ch=10 n=35 v=51
144718 On ch=10 n=42 v=74
144721 On ch=10 n=69 v=55
144722 On ch=10 n=70 v=68
144724 On ch=10 n=64 v=73
144739 Off ch=10 n=35 v=64
144743 Off ch=10 n=42 v=64
144746 Off ch=10 n=69 v=64
144747 Off ch=10 n=70 v=64
144749 Off ch=10 n=64 v=64
144839 On ch=10 n=64 v=56
144842 On ch=10 n=40 v=54
144864 Off ch=10 n=64 v=64
144867 Off ch=10 n=40 v=64
144956 On ch=10 n=70 v=60
144958 On ch=10 n=42 v=82
144960 On ch=10 n=64 v=70
144981 Off ch=10 n=70 v=64
144983 Off ch=10 n=42 v=64
144985 Off ch=10 n=64 v=64
145079 On ch=10 n=40 v=47
145104 Off ch=10 n=40 v=64
145191 On ch=10 n=69 v=53
145194 On ch=10 n=35 v=41
145198 On ch=10 n=42 v=73
145199 On ch=10 n=62 v=58
145202 On ch=10 n=70 v=67
145216 Off ch=10 n=69 v=64
145219 Off ch=10 n=35 v=64
145223 Off ch=10 n=42 v=64
145224 Off ch=10 n=62 v=64
145227 Off ch=10 n=70 v=64
145434 On ch=10 n=39 v=87
145438 On ch=10 n=38 v=99
145438 On ch=10 n=42 v=78
145444 On ch=10 n=70 v=59
145445 On ch=10 n=63 v=69
145459 Off ch=10 n=39 v=64
145463 Off ch=10 n=42 v=64
145463 Off ch=10 n=38 v=64
145469 Off ch=10 n=70 v=64
145470 Off ch=10 n=63 v=64
145674 On ch=10 n=40 v=47
145678 On ch=10 n=42 v=75
145679 On ch=10 n=70 v=70
145680 On ch=10 n=69 v=58
145683 On ch=10 n=64 v=64
145699 Off ch=10 n=40 v=64
145703 Off ch=10 n=42 v=64
145704 Off ch=10 n=70 v=64
145705 Off ch=10 n=69 v=64
145708 Off ch=10 n=64 v=64
145794 On ch=10 n=64 v=61
145802 On ch=10 n=40 v=39
145819 Off ch=10 n=64 v=64
145827 Off ch=10 n=40 v=64
145908 Off ch=10 n=57 v=64
145914 On ch=10 n=64 v=68
145917 On ch=10 n=82 v=43
145918 On ch=10 n=36 v=117
145918 On ch=10 n=42 v=85
145918 On ch=10 n=49 v=77
145918 On ch=10 n=70 v=56
145939 Off ch=10 n=64 v=64
145942 Off ch=10 n=82 v=64
145943 Off ch=10 n=70 v=64
145943 Off ch=10 n=42 v=64
145943 Off ch=10 n=36 v=64
146039 On ch=10 n=82 v=33
146064 Off ch=10 n=82 v=64
146152 On ch=10 n=69 v=54
146155 On ch=10 n=70 v=70
146157 On ch=10 n=35 v=53
146158 On ch=10 n=46 v=71
146158 On ch=10 n=62 v=71
146160 On ch=10 n=82 v=52
146177 Off ch=10 n=69 v=64
146180 Off ch=10 n=70 v=64
146182 Off ch=10 n=35 v=64
146183 Off ch=10 n=62 v=64
146183 Off ch=10 n=46 v=64
146185 Off ch=10 n=82 v=64
146272 On ch=10 n=35 v=44
146278 On ch=10 n=82 v=50
146283 On ch=10 n=42 v=46
146297 Off ch=10 n=35 v=64
146303 Off ch=10 n=82 v=64
146308 Off ch=10 n=42 v=64
146395 On ch=10 n=63 v=75
146396 On ch=10 n=39 v=90
146398 On ch=10 n=36 v=114
146398 On ch=10 n=38 v=99
146398 On ch=10 n=42 v=80
146400 On ch=10 n=70 v=58
146400 On ch=10 n=82 v=39
146420 Off ch=10 n=63 v=64
146421 Off ch=10 n=39 v=64
146423 Off ch=10 n=42 v=64
146423 Off ch=10 n=38 v=64
146423 Off ch=10 n=36 v=64
146425 Off ch=10 n=82 v=64
146425 Off ch=10 n=70 v=64
146514 On ch=10 n=82 v=33
146539 Off ch=10 n=82 v=64
146637 On ch=10 n=69 v=54
146637 On ch=10 n=35 v=52
146638 On ch=10 n=46 v=72
146638 On ch=10 n=64 v=72
146639 On ch=10 n=82 v=57
146640 On ch=10 n=70 v=70
146662 Off ch=10 n=35 v=64
146662 Off ch=10 n=69 v=64
146663 Off ch=10 n=64 v=64
146663 Off ch=10 n=46 v=64
146664 Off ch=10 n=82 v=64
146665 Off ch=10 n=70 v=64
146754 On ch=10 n=40 v=56
146760 On ch=10 n=82 v=46
146764 On ch=10 n=42 v=46
146765 On ch=10 n=64 v=57
146779 Off ch=10 n=40 v=64
146785 Off ch=10 n=82 v=64
146789 Off ch=10 n=42 v=64
146790 Off ch=10 n=64 v=64
146875 On ch=10 n=82 v=39
146878 On ch=10 n=36 v=117
146878 On ch=10 n=42 v=79
146879 On ch=10 n=64 v=70
146881 On ch=10 n=70 v=58
146900 Off ch=10 n=82 v=64
146903 Off ch=10 n=42 v=64
146903 Off ch=10 n=36 v=64
146904 Off ch=10 n=64 v=64
146906 Off ch=10 n=70 v=64
146994 On ch=10 n=40 v=45
147004 On ch=10 n=82 v=36
147019 Off ch=10 n=40 v=64
147029 Off ch=10 n=82 v=64
147110 On ch=10 n=69 v=54
147114 On ch=10 n=62 v=58
147118 On ch=10 n=46 v=69
147121 On ch=10 n=82 v=55
147121 On ch=10 n=35 v=44
147123 On ch=10 n=70 v=67
147135 Off ch=10 n=69 v=64
147139 Off ch=10 n=62 v=64
147143 Off ch=10 n=46 v=64
147146 Off ch=10 n=35 v=64
147146 Off ch=10 n=82 v=64
147148 Off ch=10 n=70 v=64
147234 On ch=10 n=82 v=44
147254 On ch=10 n=42 v=46
147259 Off ch=10 n=82 v=64
147279 Off ch=10 n=42 v=64
147356 On ch=10 n=63 v=72
147358 On ch=10 n=36 v=114
147358 On ch=10 n=38 v=99
147358 On ch=10 n=42 v=78
147360 On ch=10 n=70 v=56
147364 On ch=10 n=39 v=90
147364 On ch=10 n=82 v=39
147381 Off ch=10 n=63 v=64
147383 Off ch=10 n=42 v=64
147383 Off ch=10 n=38 v=64
147383 Off ch=10 n=36 v=64
147385 Off ch=10 n=70 v=64
147389 Off ch=10 n=82 v=64
147389 Off ch=10 n=39 v=64
147485 On ch=10 n=82 v=35
147510 Off ch=10 n=82 v=64
147591 On ch=10 n=69 v=54
147594 On ch=10 n=82 v=58
147598 On ch=10 n=46 v=70
147601 On ch=10 n=40 v=45
147602 On ch=10 n=64 v=65
147603 On ch=10 n=70 v=69
147616 Off ch=10 n=69 v=64
147619 Off ch=10 n=82 v=64
147623 Off ch=10 n=46 v=64
147626 Off ch=10 n=40 v=64
147627 Off ch=10 n=64 v=64
147628 Off ch=10 n=70 v=64
147713 On ch=10 n=40 v=39
147719 On ch=10 n=64 v=61
147723 On ch=10 n=82 v=45
147728 On ch=10 n=42 v=46
147738 Off ch=10 n=40 v=64
147744 Off ch=10 n=64 v=64
147748 Off ch=10 n=82 v=64
147753 Off ch=10 n=42 v=64
147828 Off ch=10 n=49 v=64
147837 On ch=10 n=64 v=70
147837 On ch=10 n=70 v=56
147838 On ch=10 n=36 v=117
147838 On ch=10 n=42 v=80
147845 On ch=10 n=82 v=40
147862 Off ch=10 n=70 v=64
147862 Off ch=10 n=64 v=64
147863 Off ch=10 n=42 v=64
147863 Off ch=10 n=36 v=64
147870 Off ch=10 n=82 v=64
147958 On ch=10 n=82 v=33
147983 Off ch=10 n=82 v=64
148075 On ch=10 n=62 v=68
148078 On ch=10 n=46 v=72
148078 On ch=10 n=69 v=56
148081 On ch=10 n=35 v=49
148082 On ch=10 n=70 v=67
148082 On ch=10 n=82 v=52
148100 Off ch=10 n=62 v=64
148103 Off ch=10 n=69 v=64
148103 Off ch=10 n=46 v=64
148106 Off ch=10 n=35 v=64
148107 Off ch=10 n=82 v=64
148107 Off ch=10 n=70 v=64
148201 On ch=10 n=35 v=41
148202 On ch=10 n=82 v=48
148222 On ch=10 n=42 v=46
148226 Off ch=10 n=35 v=64
148227 Off ch=10 n=82 v=64
148247 Off ch=10 n=42 v=64
148314 On ch=10 n=63 v=79
148317 On ch=10 n=82 v=41
148318 On ch=10 n=36 v=114
148318 On ch=10 n=38 v=99
148318 On ch=10 n=42 v=82
148322 On ch=10 n=39 v=88
148323 On ch=10 n=70 v=57
148339 Off ch=10 n=63 v=64
148342 Off ch=10 n=82 v=64
148343 Off ch=10 n=42 v=64
148343 Off ch=10 n=38 v=64
148343 Off ch=10 n=36 v=64
148347 Off ch=10 n=39 v=64
148348 Off ch=10 n=70 v=64
148445 On ch=10 n=82 v=34
148470 Off ch=10 n=82 v=64
148555 On ch=10 n=69 v=58
148556 On ch=10 n=64 v=72
148557 On ch=10 n=35 v=51
148558 On ch=10 n=46 v=68
148558 On ch=10 n=70 v=70
148561 On ch=10 n=82 v=57
148580 Off ch=10 n=69 v=64
148581 Off ch=10 n=64 v=64
148582 Off ch=10 n=35 v=64
148583 Off ch=10 n=70 v=64
148583 Off ch=10 n=46 v=64
148586 Off ch=10 n=82 v=64
148677 On ch=10 n=40 v=52
148682 On ch=10 n=64 v=59
148685 On ch=10 n=82 v=49
148689 On ch=10 n=42 v=46
148702 Off ch=10 n=40 v=64
148707 Off ch=10 n=64 v=64
148710 Off ch=10 n=82 v=64
148714 Off ch=10 n=42 v=64
148795 On ch=10 n=70 v=56
148798 On ch=10 n=36 v=117
148798 On ch=10 n=42 v=81
148802 On ch=10 n=64 v=70
148803 On ch=10 n=82 v=37
148820 Off ch=10 n=70 v=64
148823 Off ch=10 n=42 v=64
148823 Off ch=10 n=36 v=64
148827 Off ch=10 n=64 v=64
148828 Off ch=10 n=82 v=64
148920 On ch=10 n=40 v=47
148923 On ch=10 n=82 v=33
148945 Off ch=10 n=40 v=64
148948 Off ch=10 n=82 v=64
149032 On ch=10 n=69 v=53
149038 On ch=10 n=46 v=72
149038 On ch=10 n=62 v=63
149038 On ch=10 n=35 v=44
149043 On ch=10 n=82 v=55
149044 On ch=10 n=70 v=67
149057 Off ch=10 n=69 v=64
149063 Off ch=10 n=35 v=64
149063 Off ch=10 n=62 v=64
149063 Off ch=10 n=46 v=64
149068 Off ch=10 n=82 v=64
149069 Off ch=10 n=70 v=64
149160 On ch=10 n=82 v=44
149165 On ch=10 n=42 v=46
149185 Off ch=10 n=82 v=64
149190 Off ch=10 n=42 v=64
149277 On ch=10 n=63 v=66
149277 On ch=10 n=70 v=57
149278 On ch=10 n=36 v=114
149278 On ch=10 n=38 v=99
149278 On ch=10 n=42 v=76
149279 On ch=10 n=39 v=91
149281 On ch=10 n=82 v=41
149302 Off ch=10 n=70 v=64
149302 Off ch=10 n=63 v=64
149303 Off ch=10 n=42 v=64
149303 Off ch=10 n=38 v=64
149303 Off ch=10 n=36 v=64
149304 Off ch=10 n=39 v=64
149306 Off ch=10 n=82 v=64
149405 On ch=10 n=82 v=35
149430 Off ch=10 n=82 v=64
149516 On ch=10 n=70 v=67
149516 On ch=10 n=82 v=58
149517 On ch=10 n=69 v=55
149518 On ch=10 n=46 v=69
149521 On ch=10 n=40 v=44
149524 On ch=10 n=64 v=67
149541 Off ch=10 n=82 v=64
149541 Off ch=10 n=70 v=64
149542 Off ch=10 n=69 v=64
149543 Off ch=10 n=46 v=64
149546 Off ch=10 n=40 v=64
149549 Off ch=10 n=64 v=64
149635 On ch=10 n=64 v=62
149636 On ch=10 n=40 v=38
149636 On ch=10 n=82 v=48
149645 On ch=10 n=42 v=46
149660 Off ch=10 n=64 v=64
149661 Off ch=10 n=82 v=64
149661 Off ch=10 n=40 v=64
149670 Off ch=10 n=42 v=64
149757 On ch=10 n=70 v=56
149758 On ch=10 n=36 v=117
149758 On ch=10 n=42 v=84
149761 On ch=10 n=82 v=43
149764 On ch=10 n=64 v=67
149782 Off ch=10 n=70 v=64
149783 Off ch=10 n=42 v=64
149783 Off ch=10 n=36 v=64
149786 Off ch=10 n=82 v=64
149789 Off ch=10 n=64 v=64
149877 On ch=10 n=82 v=35
149902 Off ch=10 n=82 v=64
149996 On ch=10 n=69 v=58
149996 On ch=10 n=35 v=50
149997 On ch=10 n=70 v=69
149998 On ch=10 n=46 v=70
150000 On ch=10 n=62 v=70
150004 On ch=10 n=82 v=57
150021 Off ch=10 n=35 v=64
150021 Off ch=10 n=69 v=64
150022 Off ch=10 n=70 v=64
150023 Off ch=10 n=46 v=64
150025 Off ch=10 n=62 v=64
150029 Off ch=10 n=82 v=64
150114 On ch=10 n=35 v=44
150116 On ch=10 n=82 v=47
150125 On ch=10 n=42 v=46
150139 Off ch=10 n=35 v=64
150141 Off ch=10 n=82 v=64
150150 Off ch=10 n=42 v=64
150234 On ch=10 n=70 v=56
150238 On ch=10 n=36 v=114
150238 On ch=10 n=38 v=99
150238 On ch=10 n=42 v=82
150242 On ch=10 n=63 v=74
150245 On ch=10 n=82 v=38
150246 On ch=10 n=39 v=90
150259 Off ch=10 n=70 v=64
150263 Off ch=10 n=42 v=64
150263 Off ch=10 n=38 v=64
150263 Off ch=10 n=36 v=64
150267 Off ch=10 n=63 v=64
150270 Off ch=10 n=82 v=64
150271 Off ch=10 n=39 v=64
150364 On ch=10 n=82 v=35
150389 Off ch=10 n=82 v=64
150476 On ch=10 n=69 v=55
150476 On ch=10 n=70 v=67
150477 On ch=10 n=64 v=67
150478 On ch=10 n=46 v=69
150479 On ch=10 n=35 v=48
150483 On ch=10 n=82 v=56
150501 Off ch=10 n=70 v=64
150501 Off ch=10 n=69 v=64
150502 Off ch=10 n=64 v=64
150503 Off ch=10 n=46 v=64
150504 Off ch=10 n=35 v=64
150508 Off ch=10 n=82 v=64
150593 On ch=10 n=40 v=57
150599 On ch=10 n=82 v=47
150602 On ch=10 n=64 v=56
150618 Off ch=10 n=40 v=64
150618 On ch=10 n=42 v=46
150624 Off ch=10 n=82 v=64
150627 Off ch=10 n=64 v=64
150643 Off ch=10 n=42 v=64
150717 On ch=10 n=64 v=72
150718 On ch=10 n=36 v=117
150718 On ch=10 n=42 v=82
150720 On ch=10 n=82 v=38
150720 On ch=10 n=70 v=59
150742 Off ch=10 n=64 v=64
150743 Off ch=10 n=42 v=64
150743 Off ch=10 n=36 v=64
150745 Off ch=10 n=70 v=64
150745 Off ch=10 n=82 v=64
150839 On ch=10 n=40 v=47
150842 On ch=10 n=82 v=34
150864 Off ch=10 n=40 v=64
150867 Off ch=10 n=82 v=64
150953 On ch=10 n=70 v=67
150957 On ch=10 n=69 v=55
150958 On ch=10 n=46 v=68
150959 On ch=10 n=35 v=42
150959 On ch=10 n=62 v=58
150965 On ch=10 n=82 v=58
150978 Off ch=10 n=70 v=64
150982 Off ch=10 n=69 v=64
150983 Off ch=10 n=46 v=64
150984 Off ch=10 n=62 v=64
150984 Off ch=10 n=35 v=64
150990 Off ch=10 n=82 v=64
151084 On ch=10 n=82 v=45
151101 On ch=10 n=42 v=46
151109 Off ch=10 n=82 v=64
151126 Off ch=10 n=42 v=64
151194 On ch=10 n=70 v=59
151195 On ch=10 n=63 v=66
151197 On ch=10 n=82 v=43
151198 On ch=10 n=36 v=114
151198 On ch=10 n=38 v=99
151198 On ch=10 n=42 v=78
151205 On ch=10 n=39 v=90
151219 Off ch=10 n=70 v=64
151220 Off ch=10 n=63 v=64
151222 Off ch=10 n=82 v=64
151223 Off ch=10 n=42 v=64
151223 Off ch=10 n=38 v=64
151223 Off ch=10 n=36 v=64
151230 Off ch=10 n=39 v=64
151324 On ch=10 n=82 v=36
151349 Off ch=10 n=82 v=64
151433 On ch=10 n=40 v=45
151434 On ch=10 n=69 v=53
151438 On ch=10 n=46 v=71
151438 On ch=10 n=82 v=57
151439 On ch=10 n=64 v=64
151439 On ch=10 n=70 v=70
151458 Off ch=10 n=40 v=64
151459 Off ch=10 n=69 v=64
151463 Off ch=10 n=82 v=64
151463 Off ch=10 n=46 v=64
151464 Off ch=10 n=70 v=64
151464 Off ch=10 n=64 v=64
151554 On ch=10 n=64 v=58
151561 On ch=10 n=82 v=47
151561 On ch=10 n=40 v=40
151567 On ch=10 n=42 v=46
151579 Off ch=10 n=64 v=64
151586 Off ch=10 n=40 v=64
151586 Off ch=10 n=82 v=64
151592 Off ch=10 n=42 v=64
151676 On ch=10 n=70 v=57
151678 On ch=10 n=36 v=117
151678 On ch=10 n=42 v=82
151678 On ch=10 n=82 v=44
151684 On ch=10 n=64 v=71
151701 Off ch=10 n=70 v=64
151703 Off ch=10 n=82 v=64
151703 Off ch=10 n=42 v=64
151703 Off ch=10 n=36 v=64
151709 Off ch=10 n=64 v=64
151796 On ch=10 n=82 v=36
151821 Off ch=10 n=82 v=64
151915 On ch=10 n=82 v=57
151916 On ch=10 n=69 v=58
151918 On ch=10 n=46 v=69
151921 On ch=10 n=35 v=50
151924 On ch=10 n=62 v=70
151924 On ch=10 n=70 v=67
151940 Off ch=10 n=82 v=64
151941 Off ch=10 n=69 v=64
151943 Off ch=10 n=46 v=64
151946 Off ch=10 n=35 v=64
151949 Off ch=10 n=70 v=64
151949 Off ch=10 n=62 v=64
152036 On ch=10 n=35 v=46
152041 On ch=10 n=82 v=45
152053 On ch=10 n=42 v=46
152061 Off ch=10 n=35 v=64
152066 Off ch=10 n=82 v=64
152078 Off ch=10 n=42 v=64
152156 On ch=10 n=63 v=74
152157 On ch=10 n=70 v=56
152158 On ch=10 n=36 v=114
152158 On ch=10 n=38 v=99
152158 On ch=10 n=42 v=80
152161 On ch=10 n=82 v=40
152167 On ch=10 n=39 v=89
152181 Off ch=10 n=63 v=64
152182 Off ch=10 n=70 v=64
152183 Off ch=10 n=42 v=64
152183 Off ch=10 n=38 v=64
152183 Off ch=10 n=36 v=64
152186 Off ch=10 n=82 v=64
152192 Off ch=10 n=39 v=64
152283 On ch=10 n=82 v=36
152308 Off ch=10 n=82 v=64
152394 On ch=10 n=70 v=68
152398 On ch=10 n=46 v=72
152400 On ch=10 n=35 v=51
152400 On ch=10 n=69 v=55
152401 On ch=10 n=64 v=70
152405 On ch=10 n=82 v=56
152419 Off ch=10 n=70 v=64
152423 Off ch=10 n=46 v=64
152425 Off ch=10 n=69 v=64
152425 Off ch=10 n=35 v=64
152426 Off ch=10 n=64 v=64
152430 Off ch=10 n=82 v=64
152515 On ch=10 n=64 v=54
152521 On ch=10 n=40 v=54
152523 On ch=10 n=82 v=47
152533 On ch=10 n=42 v=46
152540 Off ch=10 n=64 v=64
152546 Off ch=10 n=40 v=64
152548 Off ch=10 n=82 v=64
152558 Off ch=10 n=42 v=64
152635 On ch=10 n=64 v=69
152635 On ch=10 n=70 v=57
152636 On ch=10 n=82 v=37
152638 On ch=10 n=36 v=117
152638 On ch=10 n=42 v=82
152660 Off ch=10 n=70 v=64
152660 Off ch=10 n=64 v=64
152661 Off ch=10 n=82 v=64
152663 Off ch=10 n=42 v=64
152663 Off ch=10 n=36 v=64
152761 On ch=10 n=40 v=47
152761 On ch=10 n=82 v=34
152786 Off ch=10 n=82 v=64
152786 Off ch=10 n=40 v=64
152873 On ch=10 n=69 v=58
152874 On ch=10 n=70 v=67
152876 On ch=10 n=82 v=58
152878 On ch=10 n=46 v=68
152879 On ch=10 n=62 v=59
152883 On ch=10 n=35 v=47
152898 Off ch=10 n=69 v=64
152899 Off ch=10 n=70 v=64
152901 Off ch=10 n=82 v=64
152903 Off ch=10 n=46 v=64
152904 Off ch=10 n=62 v=64
152908 Off ch=10 n=35 v=64
152998 On ch=10 n=82 v=44
153022 On ch=10 n=42 v=46
153023 Off ch=10 n=82 v=64
153047 Off ch=10 n=42 v=64
153115 On ch=10 n=39 v=87
153118 On ch=10 n=36 v=114
153118 On ch=10 n=38 v=99
153118 On ch=10 n=42 v=78
153122 On ch=10 n=70 v=56
153123 On ch=10 n=63 v=69
153125 On ch=10 n=82 v=41
153140 Off ch=10 n=39 v=64
153143 Off ch=10 n=42 v=64
153143 Off ch=10 n=38 v=64
153143 Off ch=10 n=36 v=64
153147 Off ch=10 n=70 v=64
153148 Off ch=10 n=63 v=64
153150 Off ch=10 n=82 v=64
153243 On ch=10 n=82 v=33
153268 Off ch=10 n=82 v=64
153354 On ch=10 n=69 v=56
153356 On ch=10 n=64 v=62
153358 On ch=10 n=40 v=45
153358 On ch=10 n=46 v=72
153360 On ch=10 n=82 v=57
153363 On ch=10 n=70 v=70
153379 Off ch=10 n=69 v=64
153381 Off ch=10 n=64 v=64
153383 Off ch=10 n=46 v=64
153383 Off ch=10 n=40 v=64
153385 Off ch=10 n=82 v=64
153388 Off ch=10 n=70 v=64
153474 On ch=10 n=82 v=46
153478 On ch=10 n=64 v=61
153479 On ch=10 n=40 v=42
153494 On ch=10 n=42 v=46
153499 Off ch=10 n=82 v=64
153503 Off ch=10 n=64 v=64
153504 Off ch=10 n=40 v=64
153519 Off ch=10 n=42 v=64
153595 On ch=10 n=64 v=69
153596 On ch=10 n=70 v=58
153598 On ch=10 n=36 v=117
153598 On ch=10 n=42 v=83
153605 On ch=10 n=82 v=43
153620 Off ch=10 n=64 v=64
153621 Off ch=10 n=70 v=64
153623 Off ch=10 n=42 v=64
153623 Off ch=10 n=36 v=64
153630 Off ch=10 n=82 v=64
153715 On ch=10 n=82 v=32
153740 Off ch=10 n=82 v=64
153837 On ch=10 n=82 v=57
153838 On ch=10 n=46 v=70
153839 On ch=10 n=70 v=69
153839 On ch=10 n=69 v=56
153842 On ch=10 n=35 v=49
153845 On ch=10 n=62 v=74
153862 Off ch=10 n=82 v=64
153863 Off ch=10 n=46 v=64
153864 Off ch=10 n=69 v=64
153864 Off ch=10 n=70 v=64
153867 Off ch=10 n=35 v=64
153870 Off ch=10 n=62 v=64
153954 On ch=10 n=82 v=49
153955 On ch=10 n=35 v=45
153966 On ch=10 n=42 v=46
153979 Off ch=10 n=82 v=64
153980 Off ch=10 n=35 v=64
153991 Off ch=10 n=42 v=64
154077 On ch=10 n=82 v=38
154078 On ch=10 n=36 v=114
154078 On ch=10 n=38 v=99
154078 On ch=10 n=42 v=78
154079 On ch=10 n=70 v=56
154080 On ch=10 n=63 v=79
154085 On ch=10 n=39 v=93
154102 Off ch=10 n=82 v=64
154103 Off ch=10 n=42 v=64
154103 Off ch=10 n=38 v=64
154103 Off ch=10 n=36 v=64
154104 Off ch=10 n=70 v=64
154105 Off ch=10 n=63 v=64
154110 Off ch=10 n=39 v=64
154202 On ch=10 n=82 v=32
154227 Off ch=10 n=82 v=64
154316 On ch=10 n=35 v=52
154316 On ch=10 n=69 v=55
154316 On ch=10 n=82 v=56
154318 On ch=10 n=46 v=70
154318 On ch=10 n=64 v=73
154324 On ch=10 n=70 v=69
154341 Off ch=10 n=82 v=64
154341 Off ch=10 n=69 v=64
154341 Off ch=10 n=35 v=64
154343 Off ch=10 n=64 v=64
154343 Off ch=10 n=46 v=64
154349 Off ch=10 n=70 v=64
154437 On ch=10 n=82 v=44
154442 On ch=10 n=40 v=52
154443 On ch=10 n=64 v=59
154453 On ch=10 n=42 v=46
154462 Off ch=10 n=82 v=64
154467 Off ch=10 n=40 v=64
154468 Off ch=10 n=64 v=64
154478 Off ch=10 n=42 v=64
154557 On ch=10 n=64 v=73
154558 On ch=10 n=36 v=117
154558 On ch=10 n=42 v=80
154560 On ch=10 n=70 v=60
154563 On ch=10 n=82 v=38
154582 Off ch=10 n=64 v=64
154583 Off ch=10 n=42 v=64
154583 Off ch=10 n=36 v=64
154585 Off ch=10 n=70 v=64
154588 Off ch=10 n=82 v=64
154676 On ch=10 n=40 v=45
154680 On ch=10 n=82 v=36
154701 Off ch=10 n=40 v=64
154705 Off ch=10 n=82 v=64
154792 On ch=10 n=69 v=53
154795 On ch=10 n=70 v=67
154796 On ch=10 n=62 v=64
154797 On ch=10 n=35 v=41
154798 On ch=10 n=46 v=72
154798 On ch=10 n=82 v=58
154817 Off ch=10 n=69 v=64
154820 Off ch=10 n=70 v=64
154821 Off ch=10 n=62 v=64
154822 Off ch=10 n=35 v=64
154823 Off ch=10 n=82 v=64
154823 Off ch=10 n=46 v=64
154922 On ch=10 n=82 v=44
154927 On ch=10 n=42 v=46
154947 Off ch=10 n=82 v=64
154952 Off ch=10 n=42 v=64
155035 On ch=10 n=39 v=88
155037 On ch=10 n=63 v=72
155038 On ch=10 n=36 v=114
155038 On ch=10 n=38 v=99
155038 On ch=10 n=42 v=78
155039 On ch=10 n=70 v=57
155041 On ch=10 n=82 v=43
155060 Off ch=10 n=39 v=64
155062 Off ch=10 n=63 v=64
155063 Off ch=10 n=42 v=64
155063 Off ch=10 n=38 v=64
155063 Off ch=10 n=36 v=64
155064 Off ch=10 n=70 v=64
155066 Off ch=10 n=82 v=64
155162 On ch=10 n=82 v=33
155187 Off ch=10 n=82 v=64
155276 On ch=10 n=40 v=45
155276 On ch=10 n=70 v=69
155276 On ch=10 n=69 v=58
155278 On ch=10 n=46 v=72
155278 On ch=10 n=64 v=68
155282 On ch=10 n=82 v=57
155301 Off ch=10 n=69 v=64
155301 Off ch=10 n=70 v=64
155301 Off ch=10 n=40 v=64
155303 Off ch=10 n=64 v=64
155303 Off ch=10 n=46 v=64
155307 Off ch=10 n=82 v=64
155399 On ch=10 n=40 v=42
155399 On ch=10 n=82 v=49
155404 On ch=10 n=64 v=59
155407 On ch=10 n=42 v=46
155424 Off ch=10 n=82 v=64
155424 Off ch=10 n=40 v=64
155429 Off ch=10 n=64 v=64
155432 Off ch=10 n=42 v=64
155515 On ch=10 n=70 v=59
155518 On ch=10 n=36 v=117
155518 On ch=10 n=42 v=83
155521 On ch=10 n=64 v=69
155521 On ch=10 n=82 v=44
155540 Off ch=10 n=70 v=64
155543 Off ch=10 n=42 v=64
155543 Off ch=10 n=36 v=64
155546 Off ch=10 n=82 v=64
155546 Off ch=10 n=64 v=64
155634 On ch=10 n=82 v=33
155659 Off ch=10 n=82 v=64
155754 On ch=10 n=35 v=53
155754 On ch=10 n=69 v=54
155754 On ch=10 n=70 v=67
155758 On ch=10 n=46 v=71
155759 On ch=10 n=82 v=56
155764 On ch=10 n=62 v=70
155779 Off ch=10 n=70 v=64
155779 Off ch=10 n=69 v=64
155779 Off ch=10 n=35 v=64
155783 Off ch=10 n=46 v=64
155784 Off ch=10 n=82 v=64
155789 Off ch=10 n=62 v=64
155879 On ch=10 n=82 v=47
155883 On ch=10 n=35 v=43
155885 On ch=10 n=42 v=46
155904 Off ch=10 n=82 v=64
155908 Off ch=10 n=35 v=64
155910 Off ch=10 n=42 v=64
155998 On ch=10 n=36 v=114
155998 On ch=10 n=38 v=99
155998 On ch=10 n=42 v=79
156001 On ch=10 n=39 v=88
156001 On ch=10 n=70 v=59
156002 On ch=10 n=63 v=75
156005 On ch=10 n=82 v=40
156023 Off ch=10 n=42 v=64
156023 Off ch=10 n=38 v=64
156023 Off ch=10 n=36 v=64
156026 Off ch=10 n=70 v=64
156026 Off ch=10 n=39 v=64
156027 Off ch=10 n=63 v=64
156030 Off ch=10 n=82 v=64
156121 On ch=10 n=82 v=33
156146 Off ch=10 n=82 v=64
156235 On ch=10 n=69 v=53
156236 On ch=10 n=35 v=50
156238 On ch=10 n=46 v=72
156238 On ch=10 n=82 v=58
156239 On ch=10 n=64 v=72
156242 On ch=10 n=70 v=70
156260 Off ch=10 n=69 v=64
156261 Off ch=10 n=35 v=64
156263 Off ch=10 n=82 v=64
156263 Off ch=10 n=46 v=64
156264 Off ch=10 n=64 v=64
156267 Off ch=10 n=70 v=64
156356 On ch=10 n=40 v=52
156362 On ch=10 n=82 v=48
156363 On ch=10 n=64 v=53
156377 On ch=10 n=42 v=46
156381 Off ch=10 n=40 v=64
156387 Off ch=10 n=82 v=64
156388 Off ch=10 n=64 v=64
156402 Off ch=10 n=42 v=64
156474 On ch=10 n=70 v=58
156478 On ch=10 n=36 v=117
156478 On ch=10 n=42 v=82
156480 On ch=10 n=82 v=37
156482 On ch=10 n=64 v=71
156499 Off ch=10 n=70 v=64
156503 Off ch=10 n=42 v=64
156503 Off ch=10 n=36 v=64
156505 Off ch=10 n=82 v=64
156507 Off ch=10 n=64 v=64
156600 On ch=10 n=82 v=36
156602 On ch=10 n=40 v=47
156625 Off ch=10 n=82 v=64
156627 Off ch=10 n=40 v=64
156714 On ch=10 n=69 v=58
156716 On ch=10 n=70 v=67
156718 On ch=10 n=46 v=69
156720 On ch=10 n=82 v=58
156720 On ch=10 n=35 v=41
156723 On ch=10 n=62 v=60
156739 Off ch=10 n=69 v=64
156741 Off ch=10 n=70 v=64
156743 Off ch=10 n=46 v=64
156745 Off ch=10 n=35 v=64
156745 Off ch=10 n=82 v=64
156748 Off ch=10 n=62 v=64
156836 On ch=10 n=82 v=46
156858 On ch=10 n=42 v=46
156861 Off ch=10 n=82 v=64
156883 Off ch=10 n=42 v=64
156954 On ch=10 n=39 v=88
156955 On ch=10 n=70 v=59
156957 On ch=10 n=82 v=40
156958 On ch=10 n=36 v=114
156958 On ch=10 n=38 v=99
156958 On ch=10 n=42 v=76
156960 On ch=10 n=63 v=71
156979 Off ch=10 n=39 v=64
156980 Off ch=10 n=70 v=64
156982 Off ch=10 n=82 v=64
156983 Off ch=10 n=42 v=64
156983 Off ch=10 n=38 v=64
156983 Off ch=10 n=36 v=64
156985 Off ch=10 n=63 v=64
157081 On ch=10 n=82 v=35
157106 Off ch=10 n=82 v=64
157190 On ch=10 n=69 v=58
157195 On ch=10 n=40 v=47
157198 On ch=10 n=46 v=70
157199 On ch=10 n=70 v=67
157203 On ch=10 n=64 v=62
157204 On ch=10 n=82 v=57
157215 Off ch=10 n=69 v=64
157220 Off ch=10 n=40 v=64
157223 Off ch=10 n=46 v=64
157224 Off ch=10 n=70 v=64
157228 Off ch=10 n=64 v=64
157229 Off ch=10 n=82 v=64
157322 On ch=10 n=40 v=40
157323 On ch=10 n=64 v=58
157324 On ch=10 n=42 v=46
157324 On ch=10 n=82 v=47
157347 Off ch=10 n=40 v=64
157348 Off ch=10 n=64 v=64
157349 Off ch=10 n=82 v=64
157349 Off ch=10 n=42 v=64
157436 On ch=10 n=44 v=68
157461 Off ch=10 n=44 v=64
157918 On ch=10 n=44 v=70
157943 Off ch=10 n=44 v=64
158400 On ch=10 n=44 v=65
158425 Off ch=10 n=44 v=64
158878 On ch=10 n=44 v=74
158903 Off ch=10 n=44 v=64
159363 On ch=10 n=44 v=65
159388 Off ch=10 n=44 v=64
159837 On ch=10 n=44 v=75
159862 Off ch=10 n=44 v=64
160322 On ch=10 n=44 v=63
160347 Off ch=10 n=44 v=64
160792 On ch=10 n=44 v=74
160817 Off ch=10 n=44 v=64
161275 On ch=10 n=70 v=45
161276 On ch=10 n=35 v=44
161278 On ch=10 n=42 v=82
161278 On ch=10 n=49 v=80
161300 Off ch=10 n=70 v=64
161301 Off ch=10 n=35 v=0
161303 Off ch=10 n=42 v=64
161516 On ch=10 n=35 v=40
161518 On ch=10 n=42 v=74
161521 On ch=10 n=70 v=56
161541 Off ch=10 n=35 v=64
161543 Off ch=10 n=42 v=64
161546 Off ch=10 n=70 v=64
161639 On ch=10 n=35 v=31
161664 Off ch=10 n=35 v=64
161755 On ch=10 n=39 v=88
161758 On ch=10 n=42 v=82
161762 On ch=10 n=40 v=34
161764 On ch=10 n=70 v=45
161780 Off ch=10 n=39 v=64
161783 Off ch=10 n=42 v=64
161787 Off ch=10 n=40 v=64
161789 Off ch=10 n=70 v=64
161995 On ch=10 n=35 v=34
161998 On ch=10 n=42 v=74
162000 On ch=10 n=70 v=53
162020 Off ch=10 n=35 v=64
162023 Off ch=10 n=42 v=64
162025 Off ch=10 n=70 v=64
162121 On ch=10 n=40 v=40
162146 Off ch=10 n=40 v=64
162234 On ch=10 n=35 v=40
162238 On ch=10 n=42 v=79
162239 On ch=10 n=70 v=43
162259 Off ch=10 n=35 v=64
162263 Off ch=10 n=42 v=64
162264 Off ch=10 n=70 v=64
162358 On ch=10 n=40 v=31
162383 Off ch=10 n=40 v=64
162477 On ch=10 n=70 v=54
162478 On ch=10 n=42 v=73
162478 On ch=10 n=35 v=37
162502 Off ch=10 n=70 v=64
162503 Off ch=10 n=35 v=64
162503 Off ch=10 n=42 v=64
162718 On ch=10 n=40 v=33
162718 On ch=10 n=42 v=79
162723 On ch=10 n=39 v=91
162723 On ch=10 n=70 v=43
162743 Off ch=10 n=42 v=64
162743 Off ch=10 n=40 v=64
162748 Off ch=10 n=70 v=64
162748 Off ch=10 n=39 v=64
162958 On ch=10 n=42 v=74
162960 On ch=10 n=40 v=33
162963 On ch=10 n=70 v=56
162983 Off ch=10 n=42 v=64
162985 Off ch=10 n=40 v=64
162988 Off ch=10 n=70 v=64
163073 On ch=10 n=40 v=25
163098 Off ch=10 n=40 v=64
163188 Off ch=10 n=49 v=64
163194 On ch=10 n=70 v=42
163198 On ch=10 n=42 v=82
163199 On ch=10 n=35 v=48
163219 Off ch=10 n=70 v=64
163223 Off ch=10 n=42 v=64
163224 Off ch=10 n=35 v=0
163436 On ch=10 n=70 v=54
163438 On ch=10 n=42 v=74
163439 On ch=10 n=35 v=38
163461 Off ch=10 n=70 v=64
163463 Off ch=10 n=42 v=64
163464 Off ch=10 n=35 v=64
163555 On ch=10 n=35 v=36
163580 Off ch=10 n=35 v=64
163675 On ch=10 n=70 v=44
163678 On ch=10 n=42 v=79
163680 On ch=10 n=39 v=93
163682 On ch=10 n=40 v=34
163700 Off ch=10 n=70 v=64
163703 Off ch=10 n=42 v=64
163705 Off ch=10 n=39 v=64
163707 Off ch=10 n=40 v=64
163918 On ch=10 n=42 v=74
163918 On ch=10 n=70 v=54
163923 On ch=10 n=35 v=41
163943 Off ch=10 n=70 v=64
163943 Off ch=10 n=42 v=64
163948 Off ch=10 n=35 v=64
164036 On ch=10 n=40 v=40
164061 Off ch=10 n=40 v=64
164155 On ch=10 n=35 v=45
164158 On ch=10 n=42 v=81
164164 On ch=10 n=70 v=45
164180 Off ch=10 n=35 v=64
164183 Off ch=10 n=42 v=64
164189 Off ch=10 n=70 v=64
164282 On ch=10 n=40 v=31
164307 Off ch=10 n=40 v=64
164398 On ch=10 n=42 v=76
164398 On ch=10 n=70 v=53
164399 On ch=10 n=35 v=36
164423 Off ch=10 n=70 v=64
164423 Off ch=10 n=42 v=64
164424 Off ch=10 n=35 v=64
164636 On ch=10 n=39 v=87
164637 On ch=10 n=40 v=32
164638 On ch=10 n=42 v=80
164640 On ch=10 n=70 v=45
164661 Off ch=10 n=39 v=64
164662 Off ch=10 n=40 v=64
164663 Off ch=10 n=42 v=64
164665 Off ch=10 n=70 v=64
164876 On ch=10 n=70 v=56
164878 On ch=10 n=42 v=72
164879 On ch=10 n=40 v=34
164901 Off ch=10 n=70 v=64
164903 Off ch=10 n=42 v=64
164904 Off ch=10 n=40 v=64
164997 On ch=10 n=40 v=24
165022 Off ch=10 n=40 v=64
165113 On ch=10 n=35 v=46
165114 On ch=10 n=70 v=42
165118 On ch=10 n=42 v=81
165138 Off ch=10 n=35 v=0
165139 Off ch=10 n=70 v=64
165143 Off ch=10 n=42 v=64
165358 On ch=10 n=42 v=76
165359 On ch=10 n=35 v=38
165363 On ch=10 n=70 v=55
165383 Off ch=10 n=42 v=64
165384 Off ch=10 n=35 v=64
165388 Off ch=10 n=70 v=64
165481 On ch=10 n=35 v=34
165506 Off ch=10 n=35 v=64
165596 On ch=10 n=40 v=36
165597 On ch=10 n=70 v=44
165598 On ch=10 n=42 v=78
165601 On ch=10 n=39 v=89
165621 Off ch=10 n=40 v=64
165622 Off ch=10 n=70 v=64
165623 Off ch=10 n=42 v=64
165626 Off ch=10 n=39 v=64
165836 On ch=10 n=70 v=55
165838 On ch=10 n=42 v=73
165843 On ch=10 n=35 v=42
165861 Off ch=10 n=70 v=64
165863 Off ch=10 n=42 v=64
165868 Off ch=10 n=35 v=64
165954 On ch=10 n=40 v=40
165979 Off ch=10 n=40 v=64
166078 On ch=10 n=42 v=82
166078 On ch=10 n=70 v=44
166080 On ch=10 n=35 v=43
166103 Off ch=10 n=70 v=64
166103 Off ch=10 n=42 v=64
166105 Off ch=10 n=35 v=64
166199 On ch=10 n=40 v=33
166224 Off ch=10 n=40 v=64
166318 On ch=10 n=42 v=74
166318 On ch=10 n=35 v=37
166319 On ch=10 n=70 v=53
166343 Off ch=10 n=35 v=64
166343 Off ch=10 n=42 v=64
166344 Off ch=10 n=70 v=64
166557 On ch=10 n=70 v=45
166558 On ch=10 n=42 v=76
166559 On ch=10 n=40 v=32
166560 On ch=10 n=39 v=93
166582 Off ch=10 n=70 v=64
166583 Off ch=10 n=42 v=64
166584 Off ch=10 n=40 v=64
166585 Off ch=10 n=39 v=64
166798 On ch=10 n=42 v=74
166799 On ch=10 n=70 v=55
166801 On ch=10 n=40 v=31
166823 Off ch=10 n=42 v=64
166824 Off ch=10 n=70 v=64
166826 Off ch=10 n=40 v=64
166913 On ch=10 n=40 v=25
166938 Off ch=10 n=40 v=64
167033 On ch=10 n=70 v=43
167038 On ch=10 n=35 v=45
167038 On ch=10 n=42 v=80
167038 On ch=10 n=57 v=71
167038 On ch=10 n=82 v=42
167058 Off ch=10 n=70 v=64
167063 Off ch=10 n=35 v=0
167063 Off ch=10 n=82 v=64
167063 Off ch=10 n=42 v=64
167165 On ch=10 n=82 v=33
167190 Off ch=10 n=82 v=64
167277 On ch=10 n=35 v=40
167278 On ch=10 n=42 v=72
167278 On ch=10 n=70 v=53
167280 On ch=10 n=82 v=56
167302 Off ch=10 n=35 v=64
167303 Off ch=10 n=70 v=64
167303 Off ch=10 n=42 v=64
167305 Off ch=10 n=82 v=64
167399 On ch=10 n=35 v=33
167404 On ch=10 n=82 v=46
167424 Off ch=10 n=35 v=64
167429 Off ch=10 n=82 v=64
167518 On ch=10 n=42 v=81
167519 On ch=10 n=70 v=43
167521 On ch=10 n=39 v=89
167521 On ch=10 n=82 v=38
167521 On ch=10 n=40 v=38
167543 Off ch=10 n=42 v=64
167544 Off ch=10 n=70 v=64
167546 Off ch=10 n=40 v=64
167546 Off ch=10 n=82 v=64
167546 Off ch=10 n=39 v=64
167640 On ch=10 n=82 v=34
167665 Off ch=10 n=82 v=64
167754 On ch=10 n=35 v=35
167754 On ch=10 n=70 v=56
167758 On ch=10 n=42 v=73
167760 On ch=10 n=82 v=58
167779 Off ch=10 n=70 v=64
167779 Off ch=10 n=35 v=64
167783 Off ch=10 n=42 v=64
167785 Off ch=10 n=82 v=64
167875 On ch=10 n=40 v=40
167875 On ch=10 n=82 v=47
167900 Off ch=10 n=82 v=64
167900 Off ch=10 n=40 v=64
167996 On ch=10 n=82 v=38
167997 On ch=10 n=35 v=44
167998 On ch=10 n=42 v=79
168003 On ch=10 n=70 v=46
168021 Off ch=10 n=82 v=64
168022 Off ch=10 n=35 v=64
168023 Off ch=10 n=42 v=64
168028 Off ch=10 n=70 v=64
168119 On ch=10 n=82 v=33
168120 On ch=10 n=40 v=31
168144 Off ch=10 n=82 v=64
168145 Off ch=10 n=40 v=64
168238 On ch=10 n=42 v=73
168240 On ch=10 n=70 v=53
168241 On ch=10 n=35 v=31
168241 On ch=10 n=82 v=58
168263 Off ch=10 n=42 v=64
168265 Off ch=10 n=70 v=64
168266 Off ch=10 n=82 v=64
168266 Off ch=10 n=35 v=64
168360 On ch=10 n=82 v=44
168385 Off ch=10 n=82 v=64
168473 On ch=10 n=70 v=43
168475 On ch=10 n=40 v=34
168478 On ch=10 n=42 v=76
168481 On ch=10 n=39 v=90
168485 On ch=10 n=82 v=43
168498 Off ch=10 n=70 v=64
168500 Off ch=10 n=40 v=64
168503 Off ch=10 n=42 v=64
168506 Off ch=10 n=39 v=64
168510 Off ch=10 n=82 v=64
168600 On ch=10 n=82 v=35
168625 Off ch=10 n=82 v=64
168715 On ch=10 n=82 v=57
168717 On ch=10 n=40 v=34
168718 On ch=10 n=42 v=76
168723 On ch=10 n=70 v=54
168740 Off ch=10 n=82 v=64
168742 Off ch=10 n=40 v=64
168743 Off ch=10 n=42 v=64
168748 Off ch=10 n=70 v=64
168838 On ch=10 n=82 v=46
168842 On ch=10 n=40 v=27
168863 Off ch=10 n=82 v=64
168867 Off ch=10 n=40 v=64
168948 Off ch=10 n=57 v=64
168954 On ch=10 n=35 v=46
168958 On ch=10 n=42 v=85
168964 On ch=10 n=70 v=43
168965 On ch=10 n=82 v=43
168979 Off ch=10 n=35 v=0
168983 Off ch=10 n=42 v=64
168989 Off ch=10 n=70 v=64
168990 Off ch=10 n=82 v=64
169084 On ch=10 n=82 v=35
169109 Off ch=10 n=82 v=64
169193 On ch=10 n=70 v=55
169198 On ch=10 n=42 v=73
169199 On ch=10 n=35 v=34
169202 On ch=10 n=82 v=56
169218 Off ch=10 n=70 v=64
169223 Off ch=10 n=42 v=64
169224 Off ch=10 n=35 v=64
169227 Off ch=10 n=82 v=64
169317 On ch=10 n=82 v=50
169320 On ch=10 n=35 v=35
169342 Off ch=10 n=82 v=64
169345 Off ch=10 n=35 v=64
169437 On ch=10 n=82 v=40
169438 On ch=10 n=42 v=79
169438 On ch=10 n=39 v=87
169441 On ch=10 n=40 v=36
169442 On ch=10 n=70 v=43
169462 Off ch=10 n=82 v=64
169463 Off ch=10 n=39 v=64
169463 Off ch=10 n=42 v=64
169466 Off ch=10 n=40 v=64
169467 Off ch=10 n=70 v=64
169560 On ch=10 n=82 v=35
169585 Off ch=10 n=82 v=64
169678 On ch=10 n=42 v=73
169681 On ch=10 n=35 v=38
169681 On ch=10 n=82 v=58
169684 On ch=10 n=70 v=53
169703 Off ch=10 n=42 v=64
169706 Off ch=10 n=82 v=64
169706 Off ch=10 n=35 v=64
169709 Off ch=10 n=70 v=64
169799 On ch=10 n=40 v=43
169800 On ch=10 n=82 v=45
169824 Off ch=10 n=40 v=64
169825 Off ch=10 n=82 v=64
169917 On ch=10 n=70 v=45
169918 On ch=10 n=42 v=81
169919 On ch=10 n=35 v=46
169923 On ch=10 n=82 v=40
169942 Off ch=10 n=70 v=64
169943 Off ch=10 n=42 v=64
169944 Off ch=10 n=35 v=64
169948 Off ch=10 n=82 v=64
170034 On ch=10 n=40 v=34
170038 On ch=10 n=82 v=34
170059 Off ch=10 n=40 v=64
170063 Off ch=10 n=82 v=64
170158 On ch=10 n=42 v=72
170161 On ch=10 n=70 v=53
170161 On ch=10 n=35 v=35
170163 On ch=10 n=82 v=57
170183 Off ch=10 n=42 v=64
170186 Off ch=10 n=35 v=64
170186 Off ch=10 n=70 v=64
170188 Off ch=10 n=82 v=64
170285 On ch=10 n=82 v=44
170310 Off ch=10 n=82 v=64
170393 On ch=10 n=40 v=37
170398 On ch=10 n=42 v=77
170400 On ch=10 n=39 v=93
170401 On ch=10 n=82 v=40
170401 On ch=10 n=70 v=45
170418 Off ch=10 n=40 v=64
170423 Off ch=10 n=42 v=64
170425 Off ch=10 n=39 v=64
170426 Off ch=10 n=70 v=64
170426 Off ch=10 n=82 v=64
170519 On ch=10 n=82 v=36
170544 Off ch=10 n=82 v=64
170635 On ch=10 n=40 v=31
170636 On ch=10 n=70 v=56
170637 On ch=10 n=82 v=57
170638 On ch=10 n=42 v=74
170660 Off ch=10 n=40 v=64
170661 Off ch=10 n=70 v=64
170662 Off ch=10 n=82 v=64
170663 Off ch=10 n=42 v=64
170756 On ch=10 n=40 v=24
170762 On ch=10 n=82 v=44
170781 Off ch=10 n=40 v=64
170787 Off ch=10 n=82 v=64
170878 On ch=10 n=42 v=84
170880 On ch=10 n=35 v=47
170881 On ch=10 n=82 v=41
170884 On ch=10 n=70 v=43
170903 Off ch=10 n=42 v=64
170905 Off ch=10 n=35 v=0
170906 Off ch=10 n=82 v=64
170909 Off ch=10 n=70 v=64
171003 On ch=10 n=82 v=36
171028 Off ch=10 n=82 v=64
171118 On ch=10 n=42 v=74
171119 On ch=10 n=35 v=39
171120 On ch=10 n=70 v=53
171124 On ch=10 n=82 v=55
171143 Off ch=10 n=42 v=64
171144 Off ch=10 n=35 v=64
171145 Off ch=10 n=70 v=64
171149 Off ch=10 n=82 v=64
171239 On ch=10 n=35 v=29
171242 On ch=10 n=82 v=47
171264 Off ch=10 n=35 v=64
171267 Off ch=10 n=82 v=64
171354 On ch=10 n=40 v=34
171358 On ch=10 n=42 v=82
171364 On ch=10 n=70 v=45
171365 On ch=10 n=82 v=42
171366 On ch=10 n=39 v=90
171379 Off ch=10 n=40 v=64
171383 Off ch=10 n=42 v=64
171389 Off ch=10 n=70 v=64
171390 Off ch=10 n=82 v=64
171391 Off ch=10 n=39 v=64
171479 On ch=10 n=82 v=36
171504 Off ch=10 n=82 v=64
171598 On ch=10 n=42 v=73
171600 On ch=10 n=35 v=35
171602 On ch=10 n=70 v=54
171603 On ch=10 n=82 v=58
171623 Off ch=10 n=42 v=64
171625 Off ch=10 n=35 v=64
171627 Off ch=10 n=70 v=64
171628 Off ch=10 n=82 v=64
171716 On ch=10 n=40 v=40
171725 On ch=10 n=82 v=49
171741 Off ch=10 n=40 v=64
171750 Off ch=10 n=82 v=64
171836 On ch=10 n=35 v=40
171838 On ch=10 n=42 v=82
171840 On ch=10 n=82 v=38
171842 On ch=10 n=70 v=43
171861 Off ch=10 n=35 v=64
171863 Off ch=10 n=42 v=64
171865 Off ch=10 n=82 v=64
171867 Off ch=10 n=70 v=64
171957 On ch=10 n=82 v=34
171960 On ch=10 n=40 v=33
171982 Off ch=10 n=82 v=64
171985 Off ch=10 n=40 v=64
172073 On ch=10 n=35 v=33
172078 On ch=10 n=42 v=76
172082 On ch=10 n=70 v=53
172085 On ch=10 n=82 v=57
172098 Off ch=10 n=35 v=64
172103 Off ch=10 n=42 v=64
172107 Off ch=10 n=70 v=64
172110 Off ch=10 n=82 v=64
172199 On ch=10 n=82 v=47
172224 Off ch=10 n=82 v=64
172315 On ch=10 n=40 v=35
172317 On ch=10 n=39 v=93
172317 On ch=10 n=82 v=42
172318 On ch=10 n=42 v=78
172319 On ch=10 n=70 v=42
172340 Off ch=10 n=40 v=64
172342 Off ch=10 n=82 v=64
172342 Off ch=10 n=39 v=64
172343 Off ch=10 n=42 v=64
172344 Off ch=10 n=70 v=64
172438 On ch=10 n=82 v=33
172463 Off ch=10 n=82 v=64
172556 On ch=10 n=40 v=31
172558 On ch=10 n=42 v=76
172559 On ch=10 n=82 v=57
172560 On ch=10 n=70 v=56
172581 Off ch=10 n=40 v=64
172583 Off ch=10 n=42 v=64
172584 Off ch=10 n=82 v=64
172585 Off ch=10 n=70 v=64
172676 On ch=10 n=82 v=48
172681 On ch=10 n=40 v=23
172701 Off ch=10 n=82 v=64
172706 Off ch=10 n=40 v=64
172798 On ch=10 n=35 v=43
172798 On ch=10 n=36 v=78
172798 On ch=10 n=42 v=83
172804 On ch=10 n=70 v=43
172823 Off ch=10 n=35 v=0
172823 Off ch=10 n=42 v=64
172823 Off ch=10 n=36 v=64
172829 Off ch=10 n=70 v=64
173035 On ch=10 n=70 v=55
173036 On ch=10 n=35 v=37
173038 On ch=10 n=42 v=76
173060 Off ch=10 n=70 v=64
173061 Off ch=10 n=35 v=64
173063 Off ch=10 n=42 v=64
173157 On ch=10 n=35 v=33
173182 Off ch=10 n=35 v=64
173275 On ch=10 n=70 v=45
173278 On ch=10 n=36 v=85
173278 On ch=10 n=42 v=79
173279 On ch=10 n=40 v=44
173300 Off ch=10 n=70 v=64
173303 Off ch=10 n=42 v=64
173303 Off ch=10 n=36 v=64
173304 Off ch=10 n=40 v=64
173516 On ch=10 n=35 v=42
173518 On ch=10 n=42 v=73
173520 On ch=10 n=70 v=55
173541 Off ch=10 n=35 v=64
173543 Off ch=10 n=42 v=64
173545 Off ch=10 n=70 v=64
173637 On ch=10 n=40 v=42
173662 Off ch=10 n=40 v=64
173756 On ch=10 n=70 v=45
173758 On ch=10 n=36 v=88
173758 On ch=10 n=42 v=79
173760 On ch=10 n=35 v=45
173781 Off ch=10 n=70 v=64
173783 Off ch=10 n=42 v=64
173783 Off ch=10 n=36 v=64
173785 Off ch=10 n=35 v=64
173880 On ch=10 n=40 v=38
173905 Off ch=10 n=40 v=64
173998 On ch=10 n=42 v=74
174001 On ch=10 n=35 v=31
174003 On ch=10 n=70 v=56
174023 Off ch=10 n=42 v=64
174026 Off ch=10 n=35 v=64
174028 Off ch=10 n=70 v=64
174235 On ch=10 n=70 v=44
174238 On ch=10 n=36 v=95
174238 On ch=10 n=42 v=78
174239 On ch=10 n=40 v=43
174260 Off ch=10 n=70 v=64
174263 Off ch=10 n=42 v=64
174263 Off ch=10 n=36 v=64
174264 Off ch=10 n=40 v=64
174478 On ch=10 n=42 v=74
174480 On ch=10 n=40 v=39
174484 On ch=10 n=70 v=54
174503 Off ch=10 n=42 v=64
174505 Off ch=10 n=40 v=64
174509 Off ch=10 n=70 v=64
174600 On ch=10 n=40 v=31
174625 Off ch=10 n=40 v=64
174718 On ch=10 n=36 v=114
174718 On ch=10 n=42 v=82
174718 On ch=10 n=57 v=74
174719 On ch=10 n=35 v=48
174723 On ch=10 n=70 v=44
174743 Off ch=10 n=42 v=64
174743 Off ch=10 n=36 v=64
174744 Off ch=10 n=35 v=0
174748 Off ch=10 n=70 v=64
174957 On ch=10 n=35 v=36
174958 On ch=10 n=42 v=76
174962 On ch=10 n=70 v=52
174982 Off ch=10 n=35 v=64
174983 Off ch=10 n=42 v=64
174987 Off ch=10 n=70 v=64
175077 On ch=10 n=35 v=31
175102 Off ch=10 n=35 v=64
175198 On ch=10 n=38 v=99
175198 On ch=10 n=40 v=38
175198 On ch=10 n=42 v=78
175198 On ch=10 n=70 v=45
175223 Off ch=10 n=70 v=64
175223 Off ch=10 n=42 v=64
175223 Off ch=10 n=40 v=64
175223 Off ch=10 n=38 v=64
175438 On ch=10 n=42 v=73
175439 On ch=10 n=70 v=56
175463 Off ch=10 n=42 v=64
175464 Off ch=10 n=70 v=64
175678 On ch=10 n=42 v=81
175681 On ch=10 n=70 v=45
175703 Off ch=10 n=42 v=64
175706 Off ch=10 n=70 v=64
175918 On ch=10 n=42 v=73
175924 On ch=10 n=70 v=56
175943 Off ch=10 n=42 v=64
175949 Off ch=10 n=70 v=64
176158 On ch=10 n=38 v=99
176158 On ch=10 n=42 v=78
176163 On ch=10 n=70 v=45
176183 Off ch=10 n=42 v=64
176183 Off ch=10 n=38 v=64
176188 Off ch=10 n=70 v=64
176396 On ch=10 n=70 v=57
176398 On ch=10 n=42 v=76
176421 Off ch=10 n=70 v=64
176423 Off ch=10 n=42 v=64
176628 Off ch=10 n=57 v=64
176638 On ch=10 n=36 v=117
176638 On ch=10 n=42 v=82
176638 On ch=10 n=49 v=78
176638 On ch=10 n=82 v=43
176640 On ch=10 n=64 v=70
176643 On ch=10 n=70 v=58
176663 Off ch=10 n=82 v=64
176663 Off ch=10 n=42 v=64
176663 Off ch=10 n=36 v=64
176665 Off ch=10 n=64 v=64
176668 Off ch=10 n=70 v=64
176762 On ch=10 n=82 v=32
176787 Off ch=10 n=82 v=64
176872 On ch=10 n=69 v=55
176875 On ch=10 n=82 v=55
176877 On ch=10 n=35 v=53
176877 On ch=10 n=70 v=67
176878 On ch=10 n=46 v=70
176881 On ch=10 n=62 v=70
176897 Off ch=10 n=69 v=64
176900 Off ch=10 n=82 v=64
176902 Off ch=10 n=70 v=64
176902 Off ch=10 n=35 v=64
176903 Off ch=10 n=46 v=64
176906 Off ch=10 n=62 v=64
176995 On ch=10 n=82 v=47
176999 On ch=10 n=35 v=44
177008 On ch=10 n=42 v=46
177020 Off ch=10 n=82 v=64
177024 Off ch=10 n=35 v=64
177033 Off ch=10 n=42 v=64
177118 On ch=10 n=36 v=114
177118 On ch=10 n=38 v=99
177118 On ch=10 n=39 v=91
177118 On ch=10 n=42 v=78
177120 On ch=10 n=70 v=57
177121 On ch=10 n=63 v=75
177121 On ch=10 n=82 v=40
177143 Off ch=10 n=42 v=64
177143 Off ch=10 n=39 v=64
177143 Off ch=10 n=38 v=64
177143 Off ch=10 n=36 v=64
177145 Off ch=10 n=70 v=64
177146 Off ch=10 n=82 v=64
177146 Off ch=10 n=63 v=64
177238 On ch=10 n=82 v=32
177263 Off ch=10 n=82 v=64
177356 On ch=10 n=69 v=55
177357 On ch=10 n=70 v=70
177358 On ch=10 n=46 v=72
177361 On ch=10 n=35 v=48
177362 On ch=10 n=64 v=71
177365 On ch=10 n=82 v=58
177381 Off ch=10 n=69 v=64
177382 Off ch=10 n=70 v=64
177383 Off ch=10 n=46 v=64
177386 Off ch=10 n=35 v=64
177387 Off ch=10 n=64 v=64
177390 Off ch=10 n=82 v=64
177475 On ch=10 n=64 v=55
177478 On ch=10 n=82 v=47
177480 On ch=10 n=40 v=53
177487 On ch=10 n=42 v=46
177500 Off ch=10 n=64 v=64
177503 Off ch=10 n=82 v=64
177505 Off ch=10 n=40 v=64
177512 Off ch=10 n=42 v=64
177595 On ch=10 n=70 v=60
177596 On ch=10 n=82 v=39
177598 On ch=10 n=36 v=117
177598 On ch=10 n=42 v=82
177599 On ch=10 n=64 v=71
177620 Off ch=10 n=70 v=64
177621 Off ch=10 n=82 v=64
177623 Off ch=10 n=42 v=64
177623 Off ch=10 n=36 v=64
177624 Off ch=10 n=64 v=64
177714 On ch=10 n=40 v=49
177716 On ch=10 n=82 v=36
177739 Off ch=10 n=40 v=64
177741 Off ch=10 n=82 v=64
177834 On ch=10 n=70 v=70
177836 On ch=10 n=82 v=57
177836 On ch=10 n=62 v=61
177838 On ch=10 n=46 v=70
177839 On ch=10 n=35 v=44
177839 On ch=10 n=69 v=55
177859 Off ch=10 n=70 v=64
177861 Off ch=10 n=62 v=64
177861 Off ch=10 n=82 v=64
177863 Off ch=10 n=46 v=64
177864 Off ch=10 n=69 v=64
177864 Off ch=10 n=35 v=64
177964 On ch=10 n=82 v=45
177974 On ch=10 n=42 v=46
177989 Off ch=10 n=82 v=64
177999 Off ch=10 n=42 v=64
178078 On ch=10 n=36 v=114
178078 On ch=10 n=38 v=99
178078 On ch=10 n=42 v=76
178080 On ch=10 n=70 v=56
178082 On ch=10 n=63 v=69
178084 On ch=10 n=39 v=91
178085 On ch=10 n=82 v=39
178103 Off ch=10 n=42 v=64
178103 Off ch=10 n=38 v=64
178103 Off ch=10 n=36 v=64
178105 Off ch=10 n=70 v=64
178107 Off ch=10 n=63 v=64
178109 Off ch=10 n=39 v=64
178110 Off ch=10 n=82 v=64
178198 On ch=10 n=82 v=33
178223 Off ch=10 n=82 v=64
178317 On ch=10 n=40 v=45
178318 On ch=10 n=46 v=72
178319 On ch=10 n=69 v=57
178320 On ch=10 n=64 v=65
178320 On ch=10 n=70 v=70
178320 On ch=10 n=82 v=57
178342 Off ch=10 n=40 v=64
178343 Off ch=10 n=46 v=64
178344 Off ch=10 n=69 v=64
178345 Off ch=10 n=82 v=64
178345 Off ch=10 n=70 v=64
178345 Off ch=10 n=64 v=64
178434 On ch=10 n=64 v=59
178438 On ch=10 n=40 v=42
178440 On ch=10 n=82 v=47
178446 On ch=10 n=42 v=46
178459 Off ch=10 n=64 v=64
178463 Off ch=10 n=40 v=64
178465 Off ch=10 n=82 v=64
178471 Off ch=10 n=42 v=64
178548 Off ch=10 n=49 v=64
178554 On ch=10 n=82 v=40
178558 On ch=10 n=36 v=117
178558 On ch=10 n=42 v=85
178562 On ch=10 n=64 v=66
178562 On ch=10 n=70 v=59
178579 Off ch=10 n=82 v=64
178583 Off ch=10 n=42 v=64
178583 Off ch=10 n=36 v=64
178587 Off ch=10 n=70 v=64
178587 Off ch=10 n=64 v=64
178681 On ch=10 n=82 v=33
178706 Off ch=10 n=82 v=64
178792 On ch=10 n=69 v=55
178796 On ch=10 n=62 v=68
178797 On ch=10 n=82 v=54
178798 On ch=10 n=46 v=69
178802 On ch=10 n=35 v=48
178804 On ch=10 n=70 v=65
178817 Off ch=10 n=69 v=64
178821 Off ch=10 n=62 v=64
178822 Off ch=10 n=82 v=64
178823 Off ch=10 n=46 v=64
178827 Off ch=10 n=35 v=64
178829 Off ch=10 n=70 v=64
178916 On ch=10 n=35 v=41
178920 On ch=10 n=82 v=45
178936 On ch=10 n=42 v=46
178941 Off ch=10 n=35 v=64
178945 Off ch=10 n=82 v=64
178961 Off ch=10 n=42 v=64
179038 On ch=10 n=36 v=114
179038 On ch=10 n=38 v=99
179038 On ch=10 n=42 v=82
179038 On ch=10 n=82 v=41
179039 On ch=10 n=63 v=80
179040 On ch=10 n=39 v=90
179042 On ch=10 n=70 v=57
179063 Off ch=10 n=82 v=64
179063 Off ch=10 n=42 v=64
179063 Off ch=10 n=38 v=64
179063 Off ch=10 n=36 v=64
179064 Off ch=10 n=63 v=64
179065 Off ch=10 n=39 v=64
179067 Off ch=10 n=70 v=64
179157 On ch=10 n=82 v=33
179182 Off ch=10 n=82 v=64
179275 On ch=10 n=35 v=46
179275 On ch=10 n=70 v=67
179276 On ch=10 n=82 v=58
179278 On ch=10 n=46 v=71
179279 On ch=10 n=64 v=72
179280 On ch=10 n=69 v=56
179300 Off ch=10 n=70 v=64
179300 Off ch=10 n=35 v=64
179301 Off ch=10 n=82 v=64
179303 Off ch=10 n=46 v=64
179304 Off ch=10 n=64 v=64
179305 Off ch=10 n=69 v=64
179393 On ch=10 n=40 v=52
179403 On ch=10 n=64 v=57
179403 On ch=10 n=82 v=46
179418 Off ch=10 n=40 v=64
179421 On ch=10 n=42 v=46
179428 Off ch=10 n=82 v=64
179428 Off ch=10 n=64 v=64
179446 Off ch=10 n=42 v=64
179518 On ch=10 n=36 v=117
179518 On ch=10 n=42 v=82
179520 On ch=10 n=64 v=73
179520 On ch=10 n=70 v=58
179524 On ch=10 n=82 v=38
179543 Off ch=10 n=42 v=64
179543 Off ch=10 n=36 v=64
179545 Off ch=10 n=70 v=64
179545 Off ch=10 n=64 v=64
179549 Off ch=10 n=82 v=64
179635 On ch=10 n=82 v=32
179640 On ch=10 n=40 v=48
179660 Off ch=10 n=82 v=64
179665 Off ch=10 n=40 v=64
179755 On ch=10 n=70 v=70
179755 On ch=10 n=69 v=58
179757 On ch=10 n=35 v=44
179758 On ch=10 n=46 v=70
179758 On ch=10 n=82 v=57
179759 On ch=10 n=62 v=60
179780 Off ch=10 n=69 v=64
179780 Off ch=10 n=70 v=64
179782 Off ch=10 n=35 v=64
179783 Off ch=10 n=82 v=64
179783 Off ch=10 n=46 v=64
179784 Off ch=10 n=62 v=64
179877 On ch=10 n=82 v=44
179895 On ch=10 n=42 v=46
179902 Off ch=10 n=82 v=64
179920 Off ch=10 n=42 v=64
179996 On ch=10 n=39 v=87
179997 On ch=10 n=70 v=57
179998 On ch=10 n=36 v=114
179998 On ch=10 n=38 v=99
179998 On ch=10 n=42 v=77
180001 On ch=10 n=63 v=71
180001 On ch=10 n=82 v=41
180021 Off ch=10 n=39 v=64
180022 Off ch=10 n=70 v=64
180023 Off ch=10 n=42 v=64
180023 Off ch=10 n=38 v=64
180023 Off ch=10 n=36 v=64
180026 Off ch=10 n=82 v=64
180026 Off ch=10 n=63 v=64
180117 On ch=10 n=82 v=35
180142 Off ch=10 n=82 v=64
180237 On ch=10 n=40 v=45
180238 On ch=10 n=46 v=68
180238 On ch=10 n=69 v=55
180241 On ch=10 n=64 v=67
180242 On ch=10 n=82 v=57
180244 On ch=10 n=70 v=69
180262 Off ch=10 n=40 v=64
180263 Off ch=10 n=69 v=64
180263 Off ch=10 n=46 v=64
180266 Off ch=10 n=64 v=64
180267 Off ch=10 n=82 v=64
180269 Off ch=10 n=70 v=64
180360 On ch=10 n=40 v=38
180360 On ch=10 n=64 v=60
180365 On ch=10 n=82 v=45
180373 On ch=10 n=42 v=46
180385 Off ch=10 n=64 v=64
180385 Off ch=10 n=40 v=64
180390 Off ch=10 n=82 v=64
180398 Off ch=10 n=42 v=64
180477 On ch=10 n=64 v=69
180478 On ch=10 n=36 v=117
180478 On ch=10 n=42 v=81
180482 On ch=10 n=70 v=55
180482 On ch=10 n=82 v=43
180502 Off ch=10 n=64 v=64
180503 Off ch=10 n=42 v=64
180503 Off ch=10 n=36 v=64
180507 Off ch=10 n=82 v=64
180507 Off ch=10 n=70 v=64
180600 On ch=10 n=82 v=33
180625 Off ch=10 n=82 v=64
180716 On ch=10 n=69 v=54
180718 On ch=10 n=35 v=49
180718 On ch=10 n=46 v=70
180719 On ch=10 n=70 v=67
180719 On ch=10 n=82 v=54
180720 On ch=10 n=62 v=71
180741 Off ch=10 n=69 v=64
180743 Off ch=10 n=46 v=64
180743 Off ch=10 n=35 v=64
180744 Off ch=10 n=82 v=64
180744 Off ch=10 n=70 v=64
180745 Off ch=10 n=62 v=64
180842 On ch=10 n=35 v=44
180845 On ch=10 n=82 v=48
180850 On ch=10 n=42 v=46
180867 Off ch=10 n=35 v=64
180870 Off ch=10 n=82 v=64
180875 Off ch=10 n=42 v=64
180953 On ch=10 n=70 v=56
180954 On ch=10 n=63 v=77
180958 On ch=10 n=36 v=114
180958 On ch=10 n=38 v=99
180958 On ch=10 n=42 v=79
180961 On ch=10 n=39 v=93
180965 On ch=10 n=82 v=39
180978 Off ch=10 n=70 v=64
180979 Off ch=10 n=63 v=64
180983 Off ch=10 n=42 v=64
180983 Off ch=10 n=38 v=64
180983 Off ch=10 n=36 v=64
180986 Off ch=10 n=39 v=64
180990 Off ch=10 n=82 v=64
181076 On ch=10 n=82 v=34
181101 Off ch=10 n=82 v=64
181195 On ch=10 n=69 v=56
181198 On ch=10 n=46 v=69
181198 On ch=10 n=35 v=50
181198 On ch=10 n=64 v=68
181198 On ch=10 n=82 v=58
181204 On ch=10 n=70 v=68
181220 Off ch=10 n=69 v=64
181223 Off ch=10 n=82 v=64
181223 Off ch=10 n=64 v=64
181223 Off ch=10 n=35 v=64
181223 Off ch=10 n=46 v=64
181229 Off ch=10 n=70 v=64
181316 On ch=10 n=82 v=44
181318 On ch=10 n=40 v=54
181322 On ch=10 n=64 v=55
181341 Off ch=10 n=82 v=64
181341 On ch=10 n=42 v=46
181343 Off ch=10 n=40 v=64
181347 Off ch=10 n=64 v=64
181366 Off ch=10 n=42 v=64
181434 On ch=10 n=64 v=69
181434 On ch=10 n=70 v=56
181438 On ch=10 n=36 v=117
181438 On ch=10 n=42 v=80
181440 On ch=10 n=82 v=39
181459 Off ch=10 n=70 v=64
181459 Off ch=10 n=64 v=64
181463 Off ch=10 n=42 v=64
181463 Off ch=10 n=36 v=64
181465 Off ch=10 n=82 v=64
181554 On ch=10 n=82 v=33
181558 On ch=10 n=40 v=47
181579 Off ch=10 n=82 v=64
181583 Off ch=10 n=40 v=64
181674 On ch=10 n=69 v=53
181676 On ch=10 n=70 v=70
181678 On ch=10 n=35 v=42
181678 On ch=10 n=46 v=69
181679 On ch=10 n=62 v=63
181680 On ch=10 n=82 v=57
181699 Off ch=10 n=69 v=64
181701 Off ch=10 n=70 v=64
181703 Off ch=10 n=46 v=64
181703 Off ch=10 n=35 v=64
181704 Off ch=10 n=62 v=64
181705 Off ch=10 n=82 v=64
181802 On ch=10 n=82 v=44
181821 On ch=10 n=42 v=46
181827 Off ch=10 n=82 v=64
181846 Off ch=10 n=42 v=64
181913 On ch=10 n=70 v=59
181918 On ch=10 n=36 v=114
181918 On ch=10 n=38 v=99
181918 On ch=10 n=42 v=76
181918 On ch=10 n=82 v=39
181918 On ch=10 n=63 v=71
181919 On ch=10 n=39 v=88
181938 Off ch=10 n=70 v=64
181943 Off ch=10 n=63 v=64
181943 Off ch=10 n=82 v=64
181943 Off ch=10 n=42 v=64
181943 Off ch=10 n=38 v=64
181943 Off ch=10 n=36 v=64
181944 Off ch=10 n=39 v=64
182036 On ch=10 n=82 v=36
182061 Off ch=10 n=82 v=64
182154 On ch=10 n=64 v=65
182156 On ch=10 n=70 v=67
182158 On ch=10 n=40 v=45
182158 On ch=10 n=46 v=72
182161 On ch=10 n=69 v=56
182165 On ch=10 n=82 v=57
182179 Off ch=10 n=64 v=64
182181 Off ch=10 n=70 v=64
182183 Off ch=10 n=46 v=64
182183 Off ch=10 n=40 v=64
182186 Off ch=10 n=69 v=64
182190 Off ch=10 n=82 v=64
182275 On ch=10 n=40 v=38
182279 On ch=10 n=64 v=57
182279 On ch=10 n=82 v=49
182285 On ch=10 n=42 v=46
182300 Off ch=10 n=40 v=64
182304 Off ch=10 n=82 v=64
182304 Off ch=10 n=64 v=64
182310 Off ch=10 n=42 v=64
182395 On ch=10 n=64 v=68
182398 On ch=10 n=36 v=117
182398 On ch=10 n=42 v=81
182398 On ch=10 n=82 v=40
182401 On ch=10 n=70 v=55
182420 Off ch=10 n=64 v=64
182423 Off ch=10 n=82 v=64
182423 Off ch=10 n=42 v=64
182423 Off ch=10 n=36 v=64
182426 Off ch=10 n=70 v=64
182520 On ch=10 n=82 v=35
182545 Off ch=10 n=82 v=64
182630 On ch=10 n=69 v=56
182635 On ch=10 n=70 v=65
182637 On ch=10 n=35 v=49
182638 On ch=10 n=46 v=71
182641 On ch=10 n=82 v=54
182642 On ch=10 n=62 v=71
182655 Off ch=10 n=69 v=64
182660 Off ch=10 n=70 v=64
182662 Off ch=10 n=35 v=64
182663 Off ch=10 n=46 v=64
182666 Off ch=10 n=82 v=64
182667 Off ch=10 n=62 v=64
182759 On ch=10 n=35 v=45
182759 On ch=10 n=82 v=47
182768 On ch=10 n=42 v=46
182784 Off ch=10 n=82 v=64
182784 Off ch=10 n=35 v=64
182793 Off ch=10 n=42 v=64
182876 On ch=10 n=70 v=56
182878 On ch=10 n=36 v=114
182878 On ch=10 n=38 v=99
182878 On ch=10 n=42 v=80
182879 On ch=10 n=39 v=87
182879 On ch=10 n=63 v=77
182881 On ch=10 n=82 v=40
182901 Off ch=10 n=70 v=64
182903 Off ch=10 n=42 v=64
182903 Off ch=10 n=38 v=64
182903 Off ch=10 n=36 v=64
182904 Off ch=10 n=63 v=64
182904 Off ch=10 n=39 v=64
182906 Off ch=10 n=82 v=64
182995 On ch=10 n=82 v=35
183020 Off ch=10 n=82 v=64
183114 On ch=10 n=69 v=55
183118 On ch=10 n=46 v=70
183119 On ch=10 n=35 v=53
183120 On ch=10 n=82 v=58
183121 On ch=10 n=64 v=71
183122 On ch=10 n=70 v=68
183139 Off ch=10 n=69 v=64
183143 Off ch=10 n=46 v=64
183144 Off ch=10 n=35 v=64
183145 Off ch=10 n=82 v=64
183146 Off ch=10 n=64 v=64
183147 Off ch=10 n=70 v=64
183236 On ch=10 n=40 v=55
183241 On ch=10 n=82 v=47
183245 On ch=10 n=64 v=53
183245 On ch=10 n=42 v=46
183261 Off ch=10 n=40 v=64
183266 Off ch=10 n=82 v=64
183270 Off ch=10 n=42 v=64
183270 Off ch=10 n=64 v=64
183356 On ch=10 n=82 v=37
183358 On ch=10 n=36 v=117
183358 On ch=10 n=42 v=82
183359 On ch=10 n=70 v=59
183362 On ch=10 n=64 v=73
183381 Off ch=10 n=82 v=64
183383 Off ch=10 n=42 v=64
183383 Off ch=10 n=36 v=64
183384 Off ch=10 n=70 v=64
183387 Off ch=10 n=64 v=64
183479 On ch=10 n=40 v=49
183485 On ch=10 n=82 v=34
183504 Off ch=10 n=40 v=64
183510 Off ch=10 n=82 v=64
183596 On ch=10 n=69 v=58
183596 On ch=10 n=35 v=46
183597 On ch=10 n=62 v=64
183597 On ch=10 n=70 v=70
183598 On ch=10 n=46 v=71
183602 On ch=10 n=82 v=57
183621 Off ch=10 n=35 v=64
183621 Off ch=10 n=69 v=64
183622 Off ch=10 n=70 v=64
183622 Off ch=10 n=62 v=64
183623 Off ch=10 n=46 v=64
183627 Off ch=10 n=82 v=64
183715 On ch=10 n=82 v=46
183732 On ch=10 n=42 v=46
183740 Off ch=10 n=82 v=64
183757 Off ch=10 n=42 v=64
183838 On ch=10 n=36 v=114
183838 On ch=10 n=38 v=99
183838 On ch=10 n=42 v=79
183838 On ch=10 n=39 v=93
183841 On ch=10 n=70 v=56
183844 On ch=10 n=63 v=69
183845 On ch=10 n=82 v=41
183863 Off ch=10 n=39 v=64
183863 Off ch=10 n=42 v=64
183863 Off ch=10 n=38 v=64
183863 Off ch=10 n=36 v=64
183866 Off ch=10 n=70 v=64
183869 Off ch=10 n=63 v=64
183870 Off ch=10 n=82 v=64
183955 On ch=10 n=82 v=36
183980 Off ch=10 n=82 v=64
184075 On ch=10 n=69 v=56
184075 On ch=10 n=82 v=56
184078 On ch=10 n=46 v=71
184080 On ch=10 n=70 v=70
184081 On ch=10 n=64 v=65
184082 On ch=10 n=40 v=48
184100 Off ch=10 n=82 v=64
184100 Off ch=10 n=69 v=64
184103 Off ch=10 n=46 v=64
184105 Off ch=10 n=70 v=64
184106 Off ch=10 n=64 v=64
184107 Off ch=10 n=40 v=64
184200 On ch=10 n=64 v=61
184202 On ch=10 n=40 v=37
184203 On ch=10 n=82 v=47
184222 On ch=10 n=42 v=46
184225 Off ch=10 n=64 v=64
184227 Off ch=10 n=40 v=64
184228 Off ch=10 n=82 v=64
184247 Off ch=10 n=42 v=64
184314 On ch=10 n=82 v=43
184316 On ch=10 n=64 v=68
184318 On ch=10 n=36 v=117
184318 On ch=10 n=42 v=80
184321 On ch=10 n=70 v=56
184339 Off ch=10 n=82 v=64
184341 Off ch=10 n=64 v=64
184343 Off ch=10 n=42 v=64
184343 Off ch=10 n=36 v=64
184346 Off ch=10 n=70 v=64
184439 On ch=10 n=82 v=32
184464 Off ch=10 n=82 v=64
184558 On ch=10 n=46 v=70
184559 On ch=10 n=35 v=46
184559 On ch=10 n=69 v=58
184561 On ch=10 n=70 v=67
184562 On ch=10 n=62 v=70
184563 On ch=10 n=82 v=54
184583 Off ch=10 n=46 v=64
184584 Off ch=10 n=69 v=64
184584 Off ch=10 n=35 v=64
184586 Off ch=10 n=70 v=64
184587 Off ch=10 n=62 v=64
184588 Off ch=10 n=82 v=64
184672 On ch=10 n=35 v=44
184683 On ch=10 n=82 v=46
184692 On ch=10 n=42 v=46
184697 Off ch=10 n=35 v=64
184708 Off ch=10 n=82 v=64
184717 Off ch=10 n=42 v=64
184794 On ch=10 n=39 v=93
184798 On ch=10 n=36 v=114
184798 On ch=10 n=38 v=99
184798 On ch=10 n=42 v=80
184798 On ch=10 n=82 v=38
184798 On ch=10 n=70 v=59
184801 On ch=10 n=63 v=76
184819 Off ch=10 n=39 v=64
184823 Off ch=10 n=70 v=64
184823 Off ch=10 n=82 v=64
184823 Off ch=10 n=42 v=64
184823 Off ch=10 n=38 v=64
184823 Off ch=10 n=36 v=64
184826 Off ch=10 n=63 v=64
184914 On ch=10 n=82 v=36
184939 Off ch=10 n=82 v=64
185035 On ch=10 n=69 v=56
185037 On ch=10 n=35 v=45
185037 On ch=10 n=64 v=70
185038 On ch=10 n=46 v=70
185040 On ch=10 n=70 v=70
185042 On ch=10 n=82 v=57
185060 Off ch=10 n=69 v=64
185062 Off ch=10 n=64 v=64
185062 Off ch=10 n=35 v=64
185063 Off ch=10 n=46 v=64
185065 Off ch=10 n=70 v=64
185067 Off ch=10 n=82 v=64
185155 On ch=10 n=82 v=47
185157 On ch=10 n=40 v=55
185160 On ch=10 n=64 v=53
185175 On ch=10 n=42 v=46
185180 Off ch=10 n=82 v=64
185182 Off ch=10 n=40 v=64
185185 Off ch=10 n=64 v=64
185200 Off ch=10 n=42 v=64
185273 On ch=10 n=70 v=58
185278 On ch=10 n=36 v=117
185278 On ch=10 n=42 v=83
185282 On ch=10 n=64 v=71
185284 On ch=10 n=82 v=38
185298 Off ch=10 n=70 v=64
185303 Off ch=10 n=42 v=64
185303 Off ch=10 n=36 v=64
185307 Off ch=10 n=64 v=64
185309 Off ch=10 n=82 v=64
185393 On ch=10 n=40 v=45
185404 On ch=10 n=82 v=34
185418 Off ch=10 n=40 v=64
185429 Off ch=10 n=82 v=64
185518 On ch=10 n=35 v=48
185518 On ch=10 n=46 v=72
185518 On ch=10 n=70 v=70
185521 On ch=10 n=69 v=55
185524 On ch=10 n=82 v=57
185524 On ch=10 n=62 v=63
185543 Off ch=10 n=70 v=64
185543 Off ch=10 n=46 v=64
185543 Off ch=10 n=35 v=64
185546 Off ch=10 n=69 v=64
185549 Off ch=10 n=62 v=64
185549 Off ch=10 n=82 v=64
185640 On ch=10 n=82 v=44
185648 On ch=10 n=42 v=46
185665 Off ch=10 n=82 v=64
185673 Off ch=10 n=42 v=64
185756 On ch=10 n=39 v=90
185757 On ch=10 n=63 v=72
185758 On ch=10 n=36 v=114
185758 On ch=10 n=38 v=99
185758 On ch=10 n=42 v=76
185758 On ch=10 n=70 v=57
185761 On ch=10 n=82 v=43
185781 Off ch=10 n=39 v=64
185782 Off ch=10 n=63 v=64
185783 Off ch=10 n=70 v=64
185783 Off ch=10 n=42 v=64
185783 Off ch=10 n=38 v=64
185783 Off ch=10 n=36 v=64
185786 Off ch=10 n=82 v=64
185885 On ch=10 n=82 v=33
185910 Off ch=10 n=82 v=64
185992 On ch=10 n=69 v=55
185997 On ch=10 n=82 v=56
185998 On ch=10 n=46 v=68
185999 On ch=10 n=40 v=44
186001 On ch=10 n=64 v=65
186004 On ch=10 n=70 v=69
186017 Off ch=10 n=69 v=64
186022 Off ch=10 n=82 v=64
186023 Off ch=10 n=46 v=64
186024 Off ch=10 n=40 v=64
186026 Off ch=10 n=64 v=64
186029 Off ch=10 n=70 v=64
186114 On ch=10 n=64 v=60
186117 On ch=10 n=82 v=46
186122 On ch=10 n=40 v=40
186124 On ch=10 n=42 v=46
186139 Off ch=10 n=64 v=64
186142 Off ch=10 n=82 v=64
186147 Off ch=10 n=40 v=64
186149 Off ch=10 n=42 v=64
186238 On ch=10 n=36 v=117
186238 On ch=10 n=42 v=82
186240 On ch=10 n=70 v=56
186241 On ch=10 n=64 v=68
186242 On ch=10 n=82 v=44
186263 Off ch=10 n=42 v=64
186263 Off ch=10 n=36 v=64
186265 Off ch=10 n=70 v=64
186266 Off ch=10 n=64 v=64
186267 Off ch=10 n=82 v=64
186358 On ch=10 n=82 v=32
186383 Off ch=10 n=82 v=64
186477 On ch=10 n=70 v=70
186478 On ch=10 n=46 v=69
186478 On ch=10 n=35 v=49
186480 On ch=10 n=62 v=73
186480 On ch=10 n=69 v=57
186485 On ch=10 n=82 v=54
186502 Off ch=10 n=70 v=64
186503 Off ch=10 n=35 v=64
186503 Off ch=10 n=46 v=64
186505 Off ch=10 n=69 v=64
186505 Off ch=10 n=62 v=64
186510 Off ch=10 n=82 v=64
186595 On ch=10 n=35 v=41
186597 On ch=10 n=82 v=49
186620 Off ch=10 n=35 v=64
186620 On ch=10 n=42 v=46
186622 Off ch=10 n=82 v=64
186645 Off ch=10 n=42 v=64
186718 On ch=10 n=36 v=114
186718 On ch=10 n=38 v=99
186718 On ch=10 n=42 v=79
186720 On ch=10 n=39 v=90
186721 On ch=10 n=70 v=59
186721 On ch=10 n=63 v=79
186725 On ch=10 n=82 v=40
186743 Off ch=10 n=42 v=64
186743 Off ch=10 n=38 v=64
186743 Off ch=10 n=36 v=64
186745 Off ch=10 n=39 v=64
186746 Off ch=10 n=63 v=64
186746 Off ch=10 n=70 v=64
186750 Off ch=10 n=82 v=64
186845 On ch=10 n=82 v=33
186870 Off ch=10 n=82 v=64
186956 On ch=10 n=64 v=69
186958 On ch=10 n=46 v=69
186959 On ch=10 n=69 v=58
186959 On ch=10 n=70 v=66
186964 On ch=10 n=35 v=52
186964 On ch=10 n=82 v=57
186981 Off ch=10 n=64 v=64
186983 Off ch=10 n=46 v=64
186984 Off ch=10 n=70 v=64
186984 Off ch=10 n=69 v=64
186989 Off ch=10 n=82 v=64
186989 Off ch=10 n=35 v=64
187079 On ch=10 n=64 v=54
187079 On ch=10 n=40 v=54
187080 On ch=10 n=82 v=45
187090 On ch=10 n=42 v=46
187104 Off ch=10 n=40 v=64
187104 Off ch=10 n=64 v=64
187105 Off ch=10 n=82 v=64
187115 Off ch=10 n=42 v=64
187195 On ch=10 n=64 v=70
187198 On ch=10 n=36 v=117
187198 On ch=10 n=42 v=83
187199 On ch=10 n=70 v=60
187200 On ch=10 n=82 v=37
187220 Off ch=10 n=64 v=64
187223 Off ch=10 n=42 v=64
187223 Off ch=10 n=36 v=64
187224 Off ch=10 n=70 v=64
187225 Off ch=10 n=82 v=64
187319 On ch=10 n=40 v=50
187323 On ch=10 n=82 v=36
187344 Off ch=10 n=40 v=64
187348 Off ch=10 n=82 v=64
187434 On ch=10 n=82 v=57
187437 On ch=10 n=69 v=58
187438 On ch=10 n=46 v=72
187438 On ch=10 n=62 v=61
187439 On ch=10 n=70 v=70
187442 On ch=10 n=35 v=48
187459 Off ch=10 n=82 v=64
187462 Off ch=10 n=69 v=64
187463 Off ch=10 n=62 v=64
187463 Off ch=10 n=46 v=64
187464 Off ch=10 n=70 v=64
187467 Off ch=10 n=35 v=64
187565 On ch=10 n=82 v=44
187569 On ch=10 n=42 v=46
187590 Off ch=10 n=82 v=64
187594 Off ch=10 n=42 v=64
187675 On ch=10 n=70 v=59
187678 On ch=10 n=36 v=114
187678 On ch=10 n=38 v=99
187678 On ch=10 n=42 v=77
187678 On ch=10 n=82 v=41
187679 On ch=10 n=63 v=66
187684 On ch=10 n=39 v=90
187700 Off ch=10 n=70 v=64
187703 Off ch=10 n=82 v=64
187703 Off ch=10 n=42 v=64
187703 Off ch=10 n=38 v=64
187703 Off ch=10 n=36 v=64
187704 Off ch=10 n=63 v=64
187709 Off ch=10 n=39 v=64
187804 On ch=10 n=82 v=33
187829 Off ch=10 n=82 v=64
187912 On ch=10 n=69 v=53
187914 On ch=10 n=64 v=66
187916 On ch=10 n=70 v=68
187918 On ch=10 n=40 v=45
187918 On ch=10 n=46 v=69
187919 On ch=10 n=82 v=56
187937 Off ch=10 n=69 v=64
187939 Off ch=10 n=64 v=64
187941 Off ch=10 n=70 v=64
187943 Off ch=10 n=46 v=64
187943 Off ch=10 n=40 v=64
187944 Off ch=10 n=82 v=64
188035 On ch=10 n=40 v=42
188042 On ch=10 n=82 v=49
188043 On ch=10 n=64 v=60
188052 On ch=10 n=42 v=46
188060 Off ch=10 n=40 v=64
188067 Off ch=10 n=82 v=64
188068 Off ch=10 n=64 v=64
188077 Off ch=10 n=42 v=64
188158 On ch=10 n=36 v=117
188158 On ch=10 n=42 v=85
188158 On ch=10 n=64 v=70
188158 On ch=10 n=82 v=42
188160 On ch=10 n=70 v=56
188183 Off ch=10 n=82 v=64
188183 Off ch=10 n=64 v=64
188183 Off ch=10 n=42 v=64
188183 Off ch=10 n=36 v=64
188185 Off ch=10 n=70 v=64
188277 On ch=10 n=82 v=33
188302 Off ch=10 n=82 v=64
188392 On ch=10 n=69 v=55
188394 On ch=10 n=35 v=51
188395 On ch=10 n=82 v=54
188396 On ch=10 n=62 v=74
188398 On ch=10 n=46 v=70
188403 On ch=10 n=70 v=67
188417 Off ch=10 n=69 v=64
188419 Off ch=10 n=35 v=64
188420 Off ch=10 n=82 v=64
188421 Off ch=10 n=62 v=64
188423 Off ch=10 n=46 v=64
188428 Off ch=10 n=70 v=64
188515 On ch=10 n=35 v=44
188521 On ch=10 n=82 v=47
188533 On ch=10 n=42 v=46
188540 Off ch=10 n=35 v=64
188546 Off ch=10 n=82 v=64
188558 Off ch=10 n=42 v=64
188638 On ch=10 n=36 v=114
188638 On ch=10 n=38 v=99
188638 On ch=10 n=42 v=82
188639 On ch=10 n=63 v=80
188641 On ch=10 n=82 v=38
188643 On ch=10 n=70 v=58
188644 On ch=10 n=39 v=92
188663 Off ch=10 n=42 v=64
188663 Off ch=10 n=38 v=64
188663 Off ch=10 n=36 v=64
188664 Off ch=10 n=63 v=64
188666 Off ch=10 n=82 v=64
188668 Off ch=10 n=70 v=64
188669 Off ch=10 n=39 v=64
188764 On ch=10 n=82 v=33
188789 Off ch=10 n=82 v=64
188874 On ch=10 n=69 v=57
188874 On ch=10 n=82 v=57
188877 On ch=10 n=70 v=67
188878 On ch=10 n=46 v=72
188878 On ch=10 n=64 v=69
188881 On ch=10 n=35 v=48
188899 Off ch=10 n=82 v=64
188899 Off ch=10 n=69 v=64
188902 Off ch=10 n=70 v=64
188903 Off ch=10 n=64 v=64
188903 Off ch=10 n=46 v=64
188906 Off ch=10 n=35 v=64
188995 On ch=10 n=40 v=57
189000 On ch=10 n=64 v=56
189004 On ch=10 n=82 v=48
189009 On ch=10 n=42 v=46
189020 Off ch=10 n=40 v=64
189025 Off ch=10 n=64 v=64
189029 Off ch=10 n=82 v=64
189034 Off ch=10 n=42 v=64
189116 On ch=10 n=82 v=38
189118 On ch=10 n=36 v=117
189118 On ch=10 n=42 v=81
189122 On ch=10 n=64 v=72
189124 On ch=10 n=70 v=58
189141 Off ch=10 n=82 v=64
189143 Off ch=10 n=42 v=64
189143 Off ch=10 n=36 v=64
189147 Off ch=10 n=64 v=64
189149 Off ch=10 n=70 v=64
189238 On ch=10 n=40 v=48
189242 On ch=10 n=82 v=32
189263 Off ch=10 n=40 v=64
189267 Off ch=10 n=82 v=64
189356 On ch=10 n=69 v=53
189356 On ch=10 n=82 v=57
189357 On ch=10 n=35 v=45
189358 On ch=10 n=46 v=71
189359 On ch=10 n=70 v=70
189361 On ch=10 n=62 v=62
189381 Off ch=10 n=82 v=64
189381 Off ch=10 n=69 v=64
189382 Off ch=10 n=35 v=64
189383 Off ch=10 n=46 v=64
189384 Off ch=10 n=70 v=64
189386 Off ch=10 n=62 v=64
189478 On ch=10 n=82 v=47
189494 On ch=10 n=42 v=46
189503 Off ch=10 n=82 v=64
189519 Off ch=10 n=42 v=64
189596 On ch=10 n=39 v=90
189598 On ch=10 n=36 v=114
189598 On ch=10 n=38 v=99
189598 On ch=10 n=42 v=76
189599 On ch=10 n=63 v=71
189603 On ch=10 n=70 v=56
189605 On ch=10 n=82 v=43
189621 Off ch=10 n=39 v=64
189623 Off ch=10 n=42 v=64
189623 Off ch=10 n=38 v=64
189623 Off ch=10 n=36 v=64
189624 Off ch=10 n=63 v=64
189628 Off ch=10 n=70 v=64
189630 Off ch=10 n=82 v=64
189723 On ch=10 n=82 v=35
189748 Off ch=10 n=82 v=64
189835 On ch=10 n=69 v=55
189838 On ch=10 n=46 v=69
189840 On ch=10 n=40 v=44
189840 On ch=10 n=70 v=67
189841 On ch=10 n=64 v=62
189841 On ch=10 n=82 v=58
189860 Off ch=10 n=69 v=64
189863 Off ch=10 n=46 v=64
189865 Off ch=10 n=70 v=64
189865 Off ch=10 n=40 v=64
189866 Off ch=10 n=82 v=64
189866 Off ch=10 n=64 v=64
189955 On ch=10 n=82 v=47
189959 On ch=10 n=40 v=42
189963 On ch=10 n=42 v=46
189964 On ch=10 n=64 v=61
189980 Off ch=10 n=82 v=64
189984 Off ch=10 n=40 v=64
189988 Off ch=10 n=42 v=64
189989 Off ch=10 n=64 v=64
190074 On ch=10 n=82 v=44
190078 On ch=10 n=36 v=117
190078 On ch=10 n=57 v=70
190079 On ch=10 n=64 v=67
190079 On ch=10 n=70 v=56
190080 On ch=10 n=44 v=66
190099 Off ch=10 n=82 v=64
190103 Off ch=10 n=36 v=64
190104 Off ch=10 n=70 v=64
190104 Off ch=10 n=64 v=64
190105 Off ch=10 n=44 v=64
190558 On ch=10 n=38 v=99
190558 On ch=10 n=44 v=71
190565 On ch=10 n=39 v=91
190583 Off ch=10 n=44 v=64
190583 Off ch=10 n=38 v=64
190590 Off ch=10 n=39 v=64
191035 On ch=10 n=44 v=67
191038 On ch=10 n=55 v=85
191060 Off ch=10 n=44 v=64
191508 Off ch=10 n=55 v=64
191518 On ch=10 n=38 v=99
191518 On ch=10 n=55 v=88
191520 On ch=10 n=39 v=93
191521 On ch=10 n=44 v=73
191543 Off ch=10 n=38 v=64
191545 Off ch=10 n=39 v=64
191546 Off ch=10 n=44 v=64
191988 Off ch=10 n=57 v=64
191996 On ch=10 n=82 v=43
191998 On ch=10 n=36 v=117
191998 On ch=10 n=42 v=85
191998 On ch=10 n=49 v=77
191999 On ch=10 n=70 v=59
192004 On ch=10 n=64 v=68
192021 Off ch=10 n=82 v=64
192023 Off ch=10 n=42 v=64
192023 Off ch=10 n=36 v=64
192024 Off ch=10 n=70 v=64
192029 Off ch=10 n=64 v=64
192117 On ch=10 n=82 v=33
192142 Off ch=10 n=82 v=64
192234 On ch=10 n=70 v=67
192235 On ch=10 n=82 v=53
192238 On ch=10 n=46 v=70
192238 On ch=10 n=69 v=53
192239 On ch=10 n=35 v=50
192240 On ch=10 n=62 v=73
192259 Off ch=10 n=70 v=64
192260 Off ch=10 n=82 v=64
192263 Off ch=10 n=69 v=64
192263 Off ch=10 n=46 v=64
192264 Off ch=10 n=35 v=64
192265 Off ch=10 n=62 v=64
192357 On ch=10 n=35 v=44
192358 On ch=10 n=82 v=47
192372 On ch=10 n=42 v=46
192382 Off ch=10 n=35 v=64
192383 Off ch=10 n=82 v=64
192397 Off ch=10 n=42 v=64
192468 Off ch=10 n=55 v=64
192475 On ch=10 n=70 v=57
192475 On ch=10 n=63 v=79
192478 On ch=10 n=36 v=114
192478 On ch=10 n=38 v=99
192478 On ch=10 n=42 v=78
192483 On ch=10 n=82 v=40
192483 On ch=10 n=39 v=89
192500 Off ch=10 n=63 v=64
192500 Off ch=10 n=70 v=64
192503 Off ch=10 n=42 v=64
192503 Off ch=10 n=38 v=64
192503 Off ch=10 n=36 v=64
192508 Off ch=10 n=39 v=64
192508 Off ch=10 n=82 v=64
192596 On ch=10 n=82 v=34
192621 Off ch=10 n=82 v=64
192713 On ch=10 n=69 v=55
192715 On ch=10 n=64 v=68
192715 On ch=10 n=35 v=50
192718 On ch=10 n=46 v=69
192718 On ch=10 n=82 v=57
192718 On ch=10 n=70 v=67
192738 Off ch=10 n=69 v=64
192740 Off ch=10 n=35 v=64
192740 Off ch=10 n=64 v=64
192743 Off ch=10 n=70 v=64
192743 Off ch=10 n=82 v=64
192743 Off ch=10 n=46 v=64
192833 On ch=10 n=40 v=52
192842 On ch=10 n=64 v=53
192844 On ch=10 n=82 v=44
192854 On ch=10 n=42 v=46
192858 Off ch=10 n=40 v=64
192867 Off ch=10 n=64 v=64
192869 Off ch=10 n=82 v=64
192879 Off ch=10 n=42 v=64
192958 On ch=10 n=36 v=117
192958 On ch=10 n=42 v=83
192960 On ch=10 n=64 v=71
192960 On ch=10 n=70 v=59
192961 On ch=10 n=82 v=37
192983 Off ch=10 n=42 v=64
192983 Off ch=10 n=36 v=64
192985 Off ch=10 n=70 v=64
192985 Off ch=10 n=64 v=64
192986 Off ch=10 n=82 v=64
193078 On ch=10 n=40 v=45
193078 On ch=10 n=82 v=33
193103 Off ch=10 n=82 v=64
193103 Off ch=10 n=40 v=64
193198 On ch=10 n=46 v=69
193198 On ch=10 n=69 v=57
193199 On ch=10 n=70 v=68
193202 On ch=10 n=35 v=41
193202 On ch=10 n=62 v=61
193203 On ch=10 n=82 v=57
193223 Off ch=10 n=69 v=64
193223 Off ch=10 n=46 v=64
193224 Off ch=10 n=70 v=64
193227 Off ch=10 n=62 v=64
193227 Off ch=10 n=35 v=64
193228 Off ch=10 n=82 v=64
193321 On ch=10 n=82 v=44
193325 On ch=10 n=42 v=46
193346 Off ch=10 n=82 v=64
193350 Off ch=10 n=42 v=64
193437 On ch=10 n=63 v=68
193438 On ch=10 n=36 v=114
193438 On ch=10 n=38 v=99
193438 On ch=10 n=42 v=79
193440 On ch=10 n=39 v=88
193442 On ch=10 n=82 v=42
193444 On ch=10 n=70 v=59
193462 Off ch=10 n=63 v=64
193463 Off ch=10 n=42 v=64
193463 Off ch=10 n=38 v=64
193463 Off ch=10 n=36 v=64
193465 Off ch=10 n=39 v=64
193467 Off ch=10 n=82 v=64
193469 Off ch=10 n=70 v=64
193563 On ch=10 n=82 v=37
193588 Off ch=10 n=82 v=64
193674 On ch=10 n=40 v=47
193678 On ch=10 n=46 v=72
193678 On ch=10 n=64 v=63
193679 On ch=10 n=70 v=69
193680 On ch=10 n=69 v=55
193680 On ch=10 n=82 v=57
193699 Off ch=10 n=40 v=64
193703 Off ch=10 n=64 v=64
193703 Off ch=10 n=46 v=64
193704 Off ch=10 n=70 v=64
193705 Off ch=10 n=82 v=64
193705 Off ch=10 n=69 v=64
193797 On ch=10 n=40 v=41
193802 On ch=10 n=82 v=46
193803 On ch=10 n=64 v=62
193821 On ch=10 n=42 v=46
193822 Off ch=10 n=40 v=64
193827 Off ch=10 n=82 v=64
193828 Off ch=10 n=64 v=64
193846 Off ch=10 n=42 v=64
193908 Off ch=10 n=49 v=64
193914 On ch=10 n=70 v=56
193915 On ch=10 n=82 v=44
193918 On ch=10 n=36 v=117
193918 On ch=10 n=42 v=83
193922 On ch=10 n=64 v=65
193939 Off ch=10 n=70 v=64
193940 Off ch=10 n=82 v=64
193943 Off ch=10 n=42 v=64
193943 Off ch=10 n=36 v=64
193947 Off ch=10 n=64 v=64
194039 On ch=10 n=82 v=33
194064 Off ch=10 n=82 v=64
194155 On ch=10 n=35 v=48
194156 On ch=10 n=69 v=55
194157 On ch=10 n=70 v=67
194158 On ch=10 n=46 v=70
194160 On ch=10 n=82 v=57
194163 On ch=10 n=62 v=70
194180 Off ch=10 n=35 v=64
194181 Off ch=10 n=69 v=64
194182 Off ch=10 n=70 v=64
194183 Off ch=10 n=46 v=64
194185 Off ch=10 n=82 v=64
194188 Off ch=10 n=62 v=64
194274 On ch=10 n=82 v=45
194277 On ch=10 n=35 v=44
194295 On ch=10 n=42 v=46
194299 Off ch=10 n=82 v=64
194302 Off ch=10 n=35 v=64
194320 Off ch=10 n=42 v=64
194398 On ch=10 n=36 v=114
194398 On ch=10 n=38 v=99
194398 On ch=10 n=42 v=77
194400 On ch=10 n=39 v=91
194400 On ch=10 n=63 v=77
194402 On ch=10 n=82 v=40
194404 On ch=10 n=70 v=58
194423 Off ch=10 n=42 v=64
194423 Off ch=10 n=38 v=64
194423 Off ch=10 n=36 v=64
194425 Off ch=10 n=63 v=64
194425 Off ch=10 n=39 v=64
194427 Off ch=10 n=82 v=64
194429 Off ch=10 n=70 v=64
194518 On ch=10 n=82 v=34
194543 Off ch=10 n=82 v=64
194634 On ch=10 n=69 v=58
194638 On ch=10 n=46 v=69
194639 On ch=10 n=35 v=51
194642 On ch=10 n=82 v=57
194643 On ch=10 n=70 v=70
194644 On ch=10 n=64 v=72
194659 Off ch=10 n=69 v=64
194663 Off ch=10 n=46 v=64
194664 Off ch=10 n=35 v=64
194667 Off ch=10 n=82 v=64
194668 Off ch=10 n=70 v=64
194669 Off ch=10 n=64 v=64
194754 On ch=10 n=40 v=52
194754 On ch=10 n=64 v=56
194760 On ch=10 n=82 v=47
194763 On ch=10 n=42 v=46
194779 Off ch=10 n=64 v=64
194779 Off ch=10 n=40 v=64
194785 Off ch=10 n=82 v=64
194788 Off ch=10 n=42 v=64
194878 On ch=10 n=36 v=117
194878 On ch=10 n=42 v=79
194880 On ch=10 n=82 v=38
194881 On ch=10 n=70 v=59
194883 On ch=10 n=64 v=70
194903 Off ch=10 n=42 v=64
194903 Off ch=10 n=36 v=64
194905 Off ch=10 n=82 v=64
194906 Off ch=10 n=70 v=64
194908 Off ch=10 n=64 v=64
195000 On ch=10 n=82 v=33
195002 On ch=10 n=40 v=45
195025 Off ch=10 n=82 v=64
195027 Off ch=10 n=40 v=64
195111 On ch=10 n=69 v=55
195116 On ch=10 n=70 v=70
195117 On ch=10 n=35 v=44
195117 On ch=10 n=82 v=57
195118 On ch=10 n=46 v=70
195121 On ch=10 n=62 v=59
195136 Off ch=10 n=69 v=64
195141 Off ch=10 n=70 v=64
195142 Off ch=10 n=82 v=64
195142 Off ch=10 n=35 v=64
195143 Off ch=10 n=46 v=64
195146 Off ch=10 n=62 v=64
195238 On ch=10 n=82 v=45
195261 On ch=10 n=42 v=46
195263 Off ch=10 n=82 v=64
195286 Off ch=10 n=42 v=64
195356 On ch=10 n=70 v=57
195358 On ch=10 n=36 v=114
195358 On ch=10 n=38 v=99
195358 On ch=10 n=42 v=76
195358 On ch=10 n=39 v=87
195362 On ch=10 n=82 v=43
195364 On ch=10 n=63 v=69
195381 Off ch=10 n=70 v=64
195383 Off ch=10 n=39 v=64
195383 Off ch=10 n=42 v=64
195383 Off ch=10 n=38 v=64
195383 Off ch=10 n=36 v=64
195387 Off ch=10 n=82 v=64
195389 Off ch=10 n=63 v=64
195485 On ch=10 n=82 v=37
195510 Off ch=10 n=82 v=64
195594 On ch=10 n=64 v=67
195597 On ch=10 n=69 v=54
195598 On ch=10 n=46 v=69
195599 On ch=10 n=70 v=70
195600 On ch=10 n=40 v=44
195605 On ch=10 n=82 v=56
195619 Off ch=10 n=64 v=64
195622 Off ch=10 n=69 v=64
195623 Off ch=10 n=46 v=64
195624 Off ch=10 n=70 v=64
195625 Off ch=10 n=40 v=64
195630 Off ch=10 n=82 v=64
195716 On ch=10 n=40 v=38
195719 On ch=10 n=82 v=47
195719 On ch=10 n=64 v=61
195741 Off ch=10 n=40 v=64
195743 On ch=10 n=42 v=46
195744 Off ch=10 n=64 v=64
195744 Off ch=10 n=82 v=64
195768 Off ch=10 n=42 v=64
195834 On ch=10 n=82 v=40
195838 On ch=10 n=36 v=117
195838 On ch=10 n=42 v=82
195840 On ch=10 n=70 v=59
195844 On ch=10 n=64 v=69
195859 Off ch=10 n=82 v=64
195863 Off ch=10 n=42 v=64
195863 Off ch=10 n=36 v=64
195865 Off ch=10 n=70 v=64
195869 Off ch=10 n=64 v=64
195961 On ch=10 n=82 v=32
195986 Off ch=10 n=82 v=64
196076 On ch=10 n=69 v=55
196078 On ch=10 n=46 v=68
196079 On ch=10 n=70 v=66
196080 On ch=10 n=35 v=51
196084 On ch=10 n=62 v=71
196085 On ch=10 n=82 v=55
196101 Off ch=10 n=69 v=64
196103 Off ch=10 n=46 v=64
196104 Off ch=10 n=70 v=64
196105 Off ch=10 n=35 v=64
196109 Off ch=10 n=62 v=64
196110 Off ch=10 n=82 v=64
196200 On ch=10 n=35 v=40
196202 On ch=10 n=82 v=47
196203 On ch=10 n=42 v=46
196225 Off ch=10 n=35 v=64
196227 Off ch=10 n=82 v=64
196228 Off ch=10 n=42 v=64
196318 On ch=10 n=36 v=114
196318 On ch=10 n=38 v=99
196318 On ch=10 n=42 v=81
196321 On ch=10 n=82 v=42
196322 On ch=10 n=70 v=59
196324 On ch=10 n=63 v=78
196326 On ch=10 n=39 v=91
196343 Off ch=10 n=42 v=64
196343 Off ch=10 n=38 v=64
196343 Off ch=10 n=36 v=64
196346 Off ch=10 n=82 v=64
196347 Off ch=10 n=70 v=64
196349 Off ch=10 n=63 v=64
196351 Off ch=10 n=39 v=64
196440 On ch=10 n=82 v=33
196465 Off ch=10 n=82 v=64
196554 On ch=10 n=64 v=72
196556 On ch=10 n=82 v=58
196557 On ch=10 n=70 v=68
196558 On ch=10 n=46 v=68
196558 On ch=10 n=69 v=53
196560 On ch=10 n=35 v=49
196579 Off ch=10 n=64 v=64
196581 Off ch=10 n=82 v=64
196582 Off ch=10 n=70 v=64
196583 Off ch=10 n=69 v=64
196583 Off ch=10 n=46 v=64
196585 Off ch=10 n=35 v=64
196676 On ch=10 n=40 v=57
196677 On ch=10 n=82 v=49
196680 On ch=10 n=64 v=55
196698 On ch=10 n=42 v=46
196701 Off ch=10 n=40 v=64
196702 Off ch=10 n=82 v=64
196705 Off ch=10 n=64 v=64
196723 Off ch=10 n=42 v=64
196798 On ch=10 n=36 v=117
196798 On ch=10 n=42 v=79
196798 On ch=10 n=64 v=70
196800 On ch=10 n=82 v=38
196802 On ch=10 n=70 v=59
196823 Off ch=10 n=64 v=64
196823 Off ch=10 n=42 v=64
196823 Off ch=10 n=36 v=64
196825 Off ch=10 n=82 v=64
196827 Off ch=10 n=70 v=64
196918 On ch=10 n=40 v=45
196922 On ch=10 n=82 v=33
196943 Off ch=10 n=40 v=64
196947 Off ch=10 n=82 v=64
197038 On ch=10 n=46 v=70
197038 On ch=10 n=62 v=61
197039 On ch=10 n=69 v=57
197041 On ch=10 n=35 v=43
197041 On ch=10 n=82 v=58
197044 On ch=10 n=70 v=67
197063 Off ch=10 n=62 v=64
197063 Off ch=10 n=46 v=64
197064 Off ch=10 n=69 v=64
197066 Off ch=10 n=82 v=64
197066 Off ch=10 n=35 v=64
197069 Off ch=10 n=70 v=64
197154 On ch=10 n=82 v=44
197179 Off ch=10 n=82 v=64
197182 On ch=10 n=42 v=46
197207 Off ch=10 n=42 v=64
197274 On ch=10 n=39 v=91
197277 On ch=10 n=63 v=68
197278 On ch=10 n=36 v=114
197278 On ch=10 n=38 v=99
197278 On ch=10 n=42 v=77
197280 On ch=10 n=70 v=56
197281 On ch=10 n=82 v=39
197299 Off ch=10 n=39 v=64
197302 Off ch=10 n=63 v=64
197303 Off ch=10 n=42 v=64
197303 Off ch=10 n=38 v=64
197303 Off ch=10 n=36 v=64
197305 Off ch=10 n=70 v=64
197306 Off ch=10 n=82 v=64
197395 On ch=10 n=82 v=36
197420 Off ch=10 n=82 v=64
197515 On ch=10 n=64 v=65
197516 On ch=10 n=69 v=56
197518 On ch=10 n=46 v=70
197518 On ch=10 n=70 v=70
197518 On ch=10 n=82 v=58
197520 On ch=10 n=40 v=45
197540 Off ch=10 n=64 v=64
197541 Off ch=10 n=69 v=64
197543 Off ch=10 n=82 v=64
197543 Off ch=10 n=70 v=64
197543 Off ch=10 n=46 v=64
197545 Off ch=10 n=40 v=64
197635 On ch=10 n=82 v=45
197638 On ch=10 n=40 v=40
197639 On ch=10 n=64 v=61
197650 On ch=10 n=42 v=46
197660 Off ch=10 n=82 v=64
197663 Off ch=10 n=40 v=64
197664 Off ch=10 n=64 v=64
197675 Off ch=10 n=42 v=64
197756 On ch=10 n=70 v=56
197758 On ch=10 n=36 v=117
197758 On ch=10 n=42 v=82
197758 On ch=10 n=64 v=68
197765 On ch=10 n=82 v=41
197781 Off ch=10 n=70 v=64
197783 Off ch=10 n=64 v=64
197783 Off ch=10 n=42 v=64
197783 Off ch=10 n=36 v=64
197790 Off ch=10 n=82 v=64
197883 On ch=10 n=82 v=32
197908 Off ch=10 n=82 v=64
197998 On ch=10 n=46 v=70
197998 On ch=10 n=82 v=54
197999 On ch=10 n=69 v=53
198001 On ch=10 n=70 v=65
198002 On ch=10 n=35 v=53
198002 On ch=10 n=62 v=71
198023 Off ch=10 n=82 v=64
198023 Off ch=10 n=46 v=64
198024 Off ch=10 n=69 v=64
198026 Off ch=10 n=70 v=64
198027 Off ch=10 n=62 v=64
198027 Off ch=10 n=35 v=64
198114 On ch=10 n=35 v=44
198118 On ch=10 n=82 v=50
198137 On ch=10 n=42 v=46
198139 Off ch=10 n=35 v=64
198143 Off ch=10 n=82 v=64
198162 Off ch=10 n=42 v=64
198238 On ch=10 n=36 v=114
198238 On ch=10 n=38 v=99
198238 On ch=10 n=39 v=89
198238 On ch=10 n=42 v=79
198240 On ch=10 n=70 v=56
198240 On ch=10 n=82 v=38
198245 On ch=10 n=63 v=77
198263 Off ch=10 n=42 v=64
198263 Off ch=10 n=39 v=64
198263 Off ch=10 n=38 v=64
198263 Off ch=10 n=36 v=64
198265 Off ch=10 n=82 v=64
198265 Off ch=10 n=70 v=64
198270 Off ch=10 n=63 v=64
198362 On ch=10 n=82 v=33
198387 Off ch=10 n=82 v=64
198473 On ch=10 n=69 v=53
198477 On ch=10 n=35 v=45
198478 On ch=10 n=46 v=70
198479 On ch=10 n=64 v=73
198480 On ch=10 n=82 v=58
198482 On ch=10 n=70 v=70
198498 Off ch=10 n=69 v=64
198502 Off ch=10 n=35 v=64
198503 Off ch=10 n=46 v=64
198504 Off ch=10 n=64 v=64
198505 Off ch=10 n=82 v=64
198507 Off ch=10 n=70 v=64
198599 On ch=10 n=64 v=54
198601 On ch=10 n=40 v=54
198604 On ch=10 n=82 v=47
198618 On ch=10 n=42 v=46
198624 Off ch=10 n=64 v=64
198626 Off ch=10 n=40 v=64
198629 Off ch=10 n=82 v=64
198643 Off ch=10 n=42 v=64
198717 On ch=10 n=64 v=71
198718 On ch=10 n=36 v=117
198718 On ch=10 n=42 v=82
198719 On ch=10 n=82 v=39
198723 On ch=10 n=70 v=59
198742 Off ch=10 n=64 v=64
198743 Off ch=10 n=42 v=64
198743 Off ch=10 n=36 v=64
198744 Off ch=10 n=82 v=64
198748 Off ch=10 n=70 v=64
198837 On ch=10 n=40 v=49
198844 On ch=10 n=82 v=33
198862 Off ch=10 n=40 v=64
198869 Off ch=10 n=82 v=64
198955 On ch=10 n=82 v=57
198958 On ch=10 n=46 v=69
198958 On ch=10 n=69 v=58
198961 On ch=10 n=70 v=68
198963 On ch=10 n=35 v=41
198963 On ch=10 n=62 v=61
198980 Off ch=10 n=82 v=64
198983 Off ch=10 n=69 v=64
198983 Off ch=10 n=46 v=64
198986 Off ch=10 n=70 v=64
198988 Off ch=10 n=62 v=64
198988 Off ch=10 n=35 v=64
199082 On ch=10 n=82 v=45
199088 On ch=10 n=42 v=46
199107 Off ch=10 n=82 v=64
199113 Off ch=10 n=42 v=64
199198 On ch=10 n=36 v=114
199198 On ch=10 n=38 v=99
199198 On ch=10 n=42 v=76
199200 On ch=10 n=63 v=71
199200 On ch=10 n=82 v=40
199200 On ch=10 n=39 v=93
199204 On ch=10 n=70 v=59
199223 Off ch=10 n=42 v=64
199223 Off ch=10 n=38 v=64
199223 Off ch=10 n=36 v=64
199225 Off ch=10 n=39 v=64
199225 Off ch=10 n=82 v=64
199225 Off ch=10 n=63 v=64
199229 Off ch=10 n=70 v=64
199318 On ch=10 n=82 v=36
199343 Off ch=10 n=82 v=64
199438 On ch=10 n=46 v=70
199438 On ch=10 n=70 v=70
199439 On ch=10 n=64 v=65
199439 On ch=10 n=69 v=53
199441 On ch=10 n=40 v=44
199443 On ch=10 n=82 v=57
199463 Off ch=10 n=70 v=64
199463 Off ch=10 n=46 v=64
199464 Off ch=10 n=69 v=64
199464 Off ch=10 n=64 v=64
199466 Off ch=10 n=40 v=64
199468 Off ch=10 n=82 v=64
199554 On ch=10 n=40 v=40
199562 On ch=10 n=82 v=47
199563 On ch=10 n=64 v=56
199579 Off ch=10 n=40 v=64
199582 On ch=10 n=42 v=46
199587 Off ch=10 n=82 v=64
199588 Off ch=10 n=64 v=64
199607 Off ch=10 n=42 v=64
199676 On ch=10 n=64 v=68
199678 On ch=10 n=36 v=117
199678 On ch=10 n=42 v=83
199682 On ch=10 n=70 v=58
199684 On ch=10 n=82 v=43
199701 Off ch=10 n=64 v=64
199703 Off ch=10 n=42 v=64
199703 Off ch=10 n=36 v=64
199707 Off ch=10 n=70 v=64
199709 Off ch=10 n=82 v=64
199805 On ch=10 n=82 v=32
199830 Off ch=10 n=82 v=64
199914 On ch=10 n=69 v=55
199918 On ch=10 n=46 v=70
199919 On ch=10 n=62 v=74
199921 On ch=10 n=35 v=52
199923 On ch=10 n=82 v=52
199924 On ch=10 n=70 v=70
199939 Off ch=10 n=69 v=64
199943 Off ch=10 n=46 v=64
199944 Off ch=10 n=62 v=64
199946 Off ch=10 n=35 v=64
199948 Off ch=10 n=82 v=64
199949 Off ch=10 n=70 v=64
200034 On ch=10 n=82 v=47
200036 On ch=10 n=35 v=44
200055 On ch=10 n=42 v=46
200059 Off ch=10 n=82 v=64
200061 Off ch=10 n=35 v=64
200080 Off ch=10 n=42 v=64
200158 On ch=10 n=36 v=114
200158 On ch=10 n=38 v=99
200158 On ch=10 n=42 v=79
200159 On ch=10 n=70 v=57
200160 On ch=10 n=39 v=91
200160 On ch=10 n=82 v=39
200163 On ch=10 n=63 v=75
200183 Off ch=10 n=42 v=64
200183 Off ch=10 n=38 v=64
200183 Off ch=10 n=36 v=64
200184 Off ch=10 n=70 v=64
200185 Off ch=10 n=82 v=64
200185 Off ch=10 n=39 v=64
200188 Off ch=10 n=63 v=64
200284 On ch=10 n=82 v=33
200309 Off ch=10 n=82 v=64
200392 On ch=10 n=69 v=56
200396 On ch=10 n=64 v=68
200396 On ch=10 n=70 v=68
200397 On ch=10 n=35 v=48
200398 On ch=10 n=46 v=72
200405 On ch=10 n=82 v=57
200417 Off ch=10 n=69 v=64
200421 Off ch=10 n=70 v=64
200421 Off ch=10 n=64 v=64
200422 Off ch=10 n=35 v=64
200423 Off ch=10 n=46 v=64
200430 Off ch=10 n=82 v=64
200519 On ch=10 n=40 v=55
200520 On ch=10 n=82 v=48
200522 On ch=10 n=64 v=55
200543 On ch=10 n=42 v=46
200544 Off ch=10 n=40 v=64
200545 Off ch=10 n=82 v=64
200547 Off ch=10 n=64 v=64
200568 Off ch=10 n=42 v=64
200638 On ch=10 n=36 v=117
200638 On ch=10 n=42 v=79
200638 On ch=10 n=82 v=37
200639 On ch=10 n=64 v=73
200644 On ch=10 n=70 v=59
200663 Off ch=10 n=82 v=64
200663 Off ch=10 n=42 v=64
200663 Off ch=10 n=36 v=64
200664 Off ch=10 n=64 v=64
200669 Off ch=10 n=70 v=64
200755 On ch=10 n=82 v=33
200758 On ch=10 n=40 v=46
200780 Off ch=10 n=82 v=64
200783 Off ch=10 n=40 v=64
200874 On ch=10 n=35 v=45
200876 On ch=10 n=62 v=59
200878 On ch=10 n=46 v=71
200878 On ch=10 n=70 v=70
200880 On ch=10 n=69 v=57
200880 On ch=10 n=82 v=57
200899 Off ch=10 n=35 v=64
200901 Off ch=10 n=62 v=64
200903 Off ch=10 n=70 v=64
200903 Off ch=10 n=46 v=64
200905 Off ch=10 n=82 v=64
200905 Off ch=10 n=69 v=64
200998 On ch=10 n=82 v=44
201019 On ch=10 n=42 v=46
201023 Off ch=10 n=82 v=64
201044 Off ch=10 n=42 v=64
201116 On ch=10 n=70 v=58
201118 On ch=10 n=36 v=114
201118 On ch=10 n=38 v=99
201118 On ch=10 n=42 v=79
201119 On ch=10 n=82 v=41
201120 On ch=10 n=63 v=66
201125 On ch=10 n=39 v=93
201141 Off ch=10 n=70 v=64
201143 Off ch=10 n=42 v=64
201143 Off ch=10 n=38 v=64
201143 Off ch=10 n=36 v=64
201144 Off ch=10 n=82 v=64
201145 Off ch=10 n=63 v=64
201150 Off ch=10 n=39 v=64
201240 On ch=10 n=82 v=36
201265 Off ch=10 n=82 v=64
201353 On ch=10 n=69 v=53
201355 On ch=10 n=64 v=66
201356 On ch=10 n=40 v=47
201356 On ch=10 n=82 v=57
201357 On ch=10 n=70 v=67
201358 On ch=10 n=46 v=68
201378 Off ch=10 n=69 v=64
201380 Off ch=10 n=64 v=64
201381 Off ch=10 n=82 v=64
201381 Off ch=10 n=40 v=64
201382 Off ch=10 n=70 v=64
201383 Off ch=10 n=46 v=64
201479 On ch=10 n=82 v=44
201479 On ch=10 n=64 v=59
201480 On ch=10 n=40 v=39
201499 On ch=10 n=42 v=46
201504 Off ch=10 n=64 v=64
201504 Off ch=10 n=82 v=64
201505 Off ch=10 n=40 v=64
201524 Off ch=10 n=42 v=64
201597 On ch=10 n=64 v=69
201598 On ch=10 n=36 v=117
201598 On ch=10 n=42 v=82
201598 On ch=10 n=70 v=56
201603 On ch=10 n=82 v=43
201622 Off ch=10 n=64 v=64
201623 Off ch=10 n=70 v=64
201623 Off ch=10 n=42 v=64
201623 Off ch=10 n=36 v=64
201628 Off ch=10 n=82 v=64
201716 On ch=10 n=82 v=32
201741 Off ch=10 n=82 v=64
201832 On ch=10 n=69 v=57
201835 On ch=10 n=70 v=69
201836 On ch=10 n=82 v=56
201838 On ch=10 n=35 v=49
201838 On ch=10 n=46 v=70
201844 On ch=10 n=62 v=70
201857 Off ch=10 n=69 v=64
201860 Off ch=10 n=70 v=64
201861 Off ch=10 n=82 v=64
201863 Off ch=10 n=46 v=64
201863 Off ch=10 n=35 v=64
201869 Off ch=10 n=62 v=64
201956 On ch=10 n=35 v=43
201962 On ch=10 n=82 v=49
201978 On ch=10 n=42 v=46
201981 Off ch=10 n=35 v=64
201987 Off ch=10 n=82 v=64
202003 Off ch=10 n=42 v=64
202077 On ch=10 n=70 v=58
202078 On ch=10 n=36 v=114
202078 On ch=10 n=38 v=99
202078 On ch=10 n=42 v=79
202079 On ch=10 n=82 v=40
202079 On ch=10 n=39 v=91
202080 On ch=10 n=63 v=77
202102 Off ch=10 n=70 v=64
202103 Off ch=10 n=42 v=64
202103 Off ch=10 n=38 v=64
202103 Off ch=10 n=36 v=64
202104 Off ch=10 n=39 v=64
202104 Off ch=10 n=82 v=64
202105 Off ch=10 n=63 v=64
202195 On ch=10 n=82 v=33
202220 Off ch=10 n=82 v=64
202313 On ch=10 n=69 v=54
202315 On ch=10 n=35 v=49
202317 On ch=10 n=64 v=71
202318 On ch=10 n=46 v=72
202319 On ch=10 n=82 v=56
202321 On ch=10 n=70 v=67
202338 Off ch=10 n=69 v=64
202340 Off ch=10 n=35 v=64
202342 Off ch=10 n=64 v=64
202343 Off ch=10 n=46 v=64
202344 Off ch=10 n=82 v=64
202346 Off ch=10 n=70 v=64
202437 On ch=10 n=64 v=56
202437 On ch=10 n=82 v=46
202440 On ch=10 n=40 v=55
202452 On ch=10 n=42 v=46
202462 Off ch=10 n=82 v=64
202462 Off ch=10 n=64 v=64
202465 Off ch=10 n=40 v=64
202477 Off ch=10 n=42 v=64
202554 On ch=10 n=70 v=59
202557 On ch=10 n=82 v=37
202558 On ch=10 n=36 v=117
202558 On ch=10 n=42 v=80
202565 On ch=10 n=64 v=70
202579 Off ch=10 n=70 v=64
202582 Off ch=10 n=82 v=64
202583 Off ch=10 n=42 v=64
202583 Off ch=10 n=36 v=64
202590 Off ch=10 n=64 v=64
202677 On ch=10 n=82 v=32
202681 On ch=10 n=40 v=47
202702 Off ch=10 n=82 v=64
202706 Off ch=10 n=40 v=64
202793 On ch=10 n=69 v=55
202794 On ch=10 n=70 v=67
202796 On ch=10 n=35 v=47
202798 On ch=10 n=46 v=72
202798 On ch=10 n=62 v=61
202804 On ch=10 n=82 v=55
202818 Off ch=10 n=69 v=64
202819 Off ch=10 n=70 v=64
202821 Off ch=10 n=35 v=64
202823 Off ch=10 n=62 v=64
202823 Off ch=10 n=46 v=64
202829 Off ch=10 n=82 v=64
202914 On ch=10 n=82 v=44
202934 On ch=10 n=42 v=46
202939 Off ch=10 n=82 v=64
202959 Off ch=10 n=42 v=64
203038 On ch=10 n=36 v=114
203038 On ch=10 n=38 v=99
203038 On ch=10 n=42 v=76
203038 On ch=10 n=82 v=42
203039 On ch=10 n=63 v=72
203040 On ch=10 n=70 v=57
203046 On ch=10 n=39 v=90
203063 Off ch=10 n=82 v=64
203063 Off ch=10 n=42 v=64
203063 Off ch=10 n=38 v=64
203063 Off ch=10 n=36 v=64
203064 Off ch=10 n=63 v=64
203065 Off ch=10 n=70 v=64
203071 Off ch=10 n=39 v=64
203161 On ch=10 n=82 v=36
203186 Off ch=10 n=82 v=64
203270 On ch=10 n=69 v=58
203275 On ch=10 n=64 v=68
203277 On ch=10 n=70 v=67
203278 On ch=10 n=46 v=70
203281 On ch=10 n=82 v=58
203282 On ch=10 n=40 v=44
203295 Off ch=10 n=69 v=64
203300 Off ch=10 n=64 v=64
203302 Off ch=10 n=70 v=64
203303 Off ch=10 n=46 v=64
203306 Off ch=10 n=82 v=64
203307 Off ch=10 n=40 v=64
203395 On ch=10 n=82 v=47
203399 On ch=10 n=64 v=56
203400 On ch=10 n=40 v=37
203420 Off ch=10 n=82 v=64
203421 On ch=10 n=42 v=46
203424 Off ch=10 n=64 v=64
203425 Off ch=10 n=40 v=64
203446 Off ch=10 n=42 v=64
203518 On ch=10 n=36 v=117
203518 On ch=10 n=42 v=85
203521 On ch=10 n=64 v=66
203522 On ch=10 n=82 v=44
203524 On ch=10 n=70 v=58
203543 Off ch=10 n=42 v=64
203543 Off ch=10 n=36 v=64
203546 Off ch=10 n=64 v=64
203547 Off ch=10 n=82 v=64
203549 Off ch=10 n=70 v=64
203638 On ch=10 n=82 v=32
203663 Off ch=10 n=82 v=64
203753 On ch=10 n=69 v=57
203756 On ch=10 n=35 v=53
203756 On ch=10 n=62 v=69
203757 On ch=10 n=70 v=67
203758 On ch=10 n=46 v=68
203761 On ch=10 n=82 v=54
203778 Off ch=10 n=69 v=64
203781 Off ch=10 n=62 v=64
203781 Off ch=10 n=35 v=64
203782 Off ch=10 n=70 v=64
203783 Off ch=10 n=46 v=64
203786 Off ch=10 n=82 v=64
203878 On ch=10 n=82 v=47
203879 On ch=10 n=35 v=40
203887 On ch=10 n=42 v=46
203903 Off ch=10 n=82 v=64
203904 Off ch=10 n=35 v=64
203912 Off ch=10 n=42 v=64
203995 On ch=10 n=63 v=77
203995 On ch=10 n=70 v=59
203996 On ch=10 n=39 v=90
203998 On ch=10 n=36 v=114
203998 On ch=10 n=38 v=99
203998 On ch=10 n=42 v=79
203998 On ch=10 n=82 v=41
204020 Off ch=10 n=70 v=64
204020 Off ch=10 n=63 v=64
204021 Off ch=10 n=39 v=64
204023 Off ch=10 n=82 v=64
204023 Off ch=10 n=42 v=64
204023 Off ch=10 n=38 v=64
204023 Off ch=10 n=36 v=64
204117 On ch=10 n=82 v=33
204142 Off ch=10 n=82 v=64
204235 On ch=10 n=70 v=70
204237 On ch=10 n=69 v=55
204238 On ch=10 n=46 v=72
204241 On ch=10 n=64 v=69
204242 On ch=10 n=35 v=47
204244 On ch=10 n=82 v=58
204260 Off ch=10 n=70 v=64
204262 Off ch=10 n=69 v=64
204263 Off ch=10 n=46 v=64
204266 Off ch=10 n=64 v=64
204267 Off ch=10 n=35 v=64
204269 Off ch=10 n=82 v=64
204353 On ch=10 n=40 v=53
204355 On ch=10 n=64 v=59
204364 On ch=10 n=82 v=48
204366 On ch=10 n=42 v=46
204378 Off ch=10 n=40 v=64
204380 Off ch=10 n=64 v=64
204389 Off ch=10 n=82 v=64
204391 Off ch=10 n=42 v=64
204475 On ch=10 n=70 v=59
204476 On ch=10 n=82 v=38
204478 On ch=10 n=36 v=117
204478 On ch=10 n=42 v=80
204482 On ch=10 n=64 v=69
204500 Off ch=10 n=70 v=64
204501 Off ch=10 n=82 v=64
204503 Off ch=10 n=42 v=64
204503 Off ch=10 n=36 v=64
204507 Off ch=10 n=64 v=64
204598 On ch=10 n=40 v=46
204599 On ch=10 n=82 v=32
204623 Off ch=10 n=40 v=64
204624 Off ch=10 n=82 v=64
204714 On ch=10 n=35 v=47
204717 On ch=10 n=62 v=61
204718 On ch=10 n=46 v=72
204718 On ch=10 n=82 v=58
204721 On ch=10 n=69 v=57
204723 On ch=10 n=70 v=69
204739 Off ch=10 n=35 v=64
204742 Off ch=10 n=62 v=64
204743 Off ch=10 n=82 v=64
204743 Off ch=10 n=46 v=64
204746 Off ch=10 n=69 v=64
204748 Off ch=10 n=70 v=64
204842 On ch=10 n=82 v=44
204855 On ch=10 n=42 v=46
204867 Off ch=10 n=82 v=64
204880 Off ch=10 n=42 v=64
204955 On ch=10 n=63 v=69
204957 On ch=10 n=82 v=43
204958 On ch=10 n=36 v=114
204958 On ch=10 n=38 v=99
204958 On ch=10 n=42 v=76
204964 On ch=10 n=70 v=56
204965 On ch=10 n=39 v=92
204980 Off ch=10 n=63 v=64
204982 Off ch=10 n=82 v=64
204983 Off ch=10 n=42 v=64
204983 Off ch=10 n=38 v=64
204983 Off ch=10 n=36 v=64
204989 Off ch=10 n=70 v=64
204990 Off ch=10 n=39 v=64
205083 On ch=10 n=82 v=36
205108 Off ch=10 n=82 v=64
205195 On ch=10 n=82 v=57
205197 On ch=10 n=70 v=67
205198 On ch=10 n=46 v=71
205198 On ch=10 n=64 v=65
205201 On ch=10 n=40 v=45
205201 On ch=10 n=69 v=55
205220 Off ch=10 n=82 v=64
205222 Off ch=10 n=70 v=64
205223 Off ch=10 n=64 v=64
205223 Off ch=10 n=46 v=64
205226 Off ch=10 n=69 v=64
205226 Off ch=10 n=40 v=64
205321 On ch=10 n=64 v=62
205322 On ch=10 n=40 v=38
205322 On ch=10 n=82 v=49
205328 On ch=10 n=42 v=46
205346 Off ch=10 n=64 v=64
205347 Off ch=10 n=82 v=64
205347 Off ch=10 n=40 v=64
205353 Off ch=10 n=42 v=64
205438 On ch=10 n=36 v=117
205438 On ch=10 n=57 v=73
205439 On ch=10 n=64 v=69
205439 On ch=10 n=70 v=56
205440 On ch=10 n=44 v=66
205441 On ch=10 n=82 v=40
205463 Off ch=10 n=36 v=64
205464 Off ch=10 n=70 v=64
205464 Off ch=10 n=64 v=64
205465 Off ch=10 n=44 v=64
205466 Off ch=10 n=82 v=64
205918 On ch=10 n=38 v=99
205922 On ch=10 n=44 v=72
205924 On ch=10 n=39 v=93
205943 Off ch=10 n=38 v=64
205947 Off ch=10 n=44 v=64
205949 Off ch=10 n=39 v=64
206404 On ch=10 n=44 v=63
206429 Off ch=10 n=44 v=64
206878 On ch=10 n=38 v=99
206881 On ch=10 n=44 v=70
206881 On ch=10 n=39 v=93
206903 Off ch=10 n=38 v=64
206906 Off ch=10 n=39 v=64
206906 Off ch=10 n=44 v=64
207348 Off ch=10 n=57 v=64
207358 On ch=10 n=36 v=117
207358 On ch=10 n=42 v=82
207358 On ch=10 n=49 v=78
207358 On ch=10 n=64 v=66
207359 On ch=10 n=70 v=56
207360 On ch=10 n=82 v=40
207383 Off ch=10 n=64 v=64
207383 Off ch=10 n=42 v=64
207383 Off ch=10 n=36 v=64
207384 Off ch=10 n=70 v=64
207385 Off ch=10 n=82 v=64
207474 On ch=10 n=82 v=32
207499 Off ch=10 n=82 v=64
207593 On ch=10 n=70 v=65
207594 On ch=10 n=82 v=55
207596 On ch=10 n=69 v=55
207598 On ch=10 n=46 v=70
207598 On ch=10 n=62 v=73
207598 On ch=10 n=35 v=46
207618 Off ch=10 n=70 v=64
207619 Off ch=10 n=82 v=64
207621 Off ch=10 n=69 v=64
207623 Off ch=10 n=35 v=64
207623 Off ch=10 n=62 v=64
207623 Off ch=10 n=46 v=64
207717 On ch=10 n=82 v=50
207719 On ch=10 n=35 v=43
207740 On ch=10 n=42 v=46
207742 Off ch=10 n=82 v=64
207744 Off ch=10 n=35 v=64
207765 Off ch=10 n=42 v=64
207836 On ch=10 n=39 v=87
207838 On ch=10 n=36 v=114
207838 On ch=10 n=38 v=99
207838 On ch=10 n=42 v=81
207839 On ch=10 n=63 v=75
207839 On ch=10 n=82 v=38
207840 On ch=10 n=70 v=57
207861 Off ch=10 n=39 v=64
207863 Off ch=10 n=42 v=64
207863 Off ch=10 n=38 v=64
207863 Off ch=10 n=36 v=64
207864 Off ch=10 n=82 v=64
207864 Off ch=10 n=63 v=64
207865 Off ch=10 n=70 v=64
207957 On ch=10 n=82 v=34
207982 Off ch=10 n=82 v=64
208072 On ch=10 n=69 v=54
208076 On ch=10 n=70 v=68
208077 On ch=10 n=64 v=70
208078 On ch=10 n=46 v=69
208079 On ch=10 n=35 v=51
208080 On ch=10 n=82 v=57
208097 Off ch=10 n=69 v=64
208101 Off ch=10 n=70 v=64
208102 Off ch=10 n=64 v=64
208103 Off ch=10 n=46 v=64
208104 Off ch=10 n=35 v=64
208105 Off ch=10 n=82 v=64
208195 On ch=10 n=82 v=47
208198 On ch=10 n=40 v=56
208204 On ch=10 n=64 v=54
208206 On ch=10 n=42 v=46
208220 Off ch=10 n=82 v=64
208223 Off ch=10 n=40 v=64
208229 Off ch=10 n=64 v=64
208231 Off ch=10 n=42 v=64
208318 On ch=10 n=36 v=117
208318 On ch=10 n=42 v=83
208319 On ch=10 n=70 v=56
208320 On ch=10 n=82 v=40
208325 On ch=10 n=64 v=68
208343 Off ch=10 n=42 v=64
208343 Off ch=10 n=36 v=64
208344 Off ch=10 n=70 v=64
208345 Off ch=10 n=82 v=64
208350 Off ch=10 n=64 v=64
208436 On ch=10 n=40 v=45
208442 On ch=10 n=82 v=34
208461 Off ch=10 n=40 v=64
208467 Off ch=10 n=82 v=64
208554 On ch=10 n=62 v=60
208555 On ch=10 n=35 v=44
208557 On ch=10 n=70 v=70
208558 On ch=10 n=46 v=70
208558 On ch=10 n=82 v=57
208560 On ch=10 n=69 v=58
208579 Off ch=10 n=62 v=64
208580 Off ch=10 n=35 v=64
208582 Off ch=10 n=70 v=64
208583 Off ch=10 n=82 v=64
208583 Off ch=10 n=46 v=64
208585 Off ch=10 n=69 v=64
208676 On ch=10 n=82 v=44
208701 Off ch=10 n=82 v=64
208701 On ch=10 n=42 v=46
208726 Off ch=10 n=42 v=64
208796 On ch=10 n=39 v=90
208796 On ch=10 n=70 v=56
208798 On ch=10 n=36 v=114
208798 On ch=10 n=38 v=99
208798 On ch=10 n=42 v=76
208801 On ch=10 n=63 v=71
208805 On ch=10 n=82 v=41
208821 Off ch=10 n=70 v=64
208821 Off ch=10 n=39 v=64
208823 Off ch=10 n=42 v=64
208823 Off ch=10 n=38 v=64
208823 Off ch=10 n=36 v=64
208826 Off ch=10 n=63 v=64
208830 Off ch=10 n=82 v=64
208920 On ch=10 n=82 v=34
208945 Off ch=10 n=82 v=64
209033 On ch=10 n=69 v=56
209034 On ch=10 n=40 v=44
209035 On ch=10 n=70 v=70
209036 On ch=10 n=64 v=68
209038 On ch=10 n=46 v=70
209039 On ch=10 n=82 v=57
209058 Off ch=10 n=69 v=64
209059 Off ch=10 n=40 v=64
209060 Off ch=10 n=70 v=64
209061 Off ch=10 n=64 v=64
209063 Off ch=10 n=46 v=64
209064 Off ch=10 n=82 v=64
209158 On ch=10 n=40 v=39
209159 On ch=10 n=64 v=59
209160 On ch=10 n=82 v=45
209180 On ch=10 n=42 v=46
209183 Off ch=10 n=40 v=64
209184 Off ch=10 n=64 v=64
209185 Off ch=10 n=82 v=64
209205 Off ch=10 n=42 v=64
209268 Off ch=10 n=49 v=64
209278 On ch=10 n=36 v=117
209278 On ch=10 n=42 v=82
209278 On ch=10 n=64 v=66
209281 On ch=10 n=82 v=44
209282 On ch=10 n=70 v=56
209303 Off ch=10 n=64 v=64
209303 Off ch=10 n=42 v=64
209303 Off ch=10 n=36 v=64
209306 Off ch=10 n=82 v=64
209307 Off ch=10 n=70 v=64
209399 On ch=10 n=82 v=35
209424 Off ch=10 n=82 v=64
209511 On ch=10 n=69 v=58
209517 On ch=10 n=62 v=69
209517 On ch=10 n=35 v=45
209518 On ch=10 n=46 v=70
209522 On ch=10 n=82 v=53
209523 On ch=10 n=70 v=67
209536 Off ch=10 n=69 v=64
209542 Off ch=10 n=35 v=64
209542 Off ch=10 n=62 v=64
209543 Off ch=10 n=46 v=64
209547 Off ch=10 n=82 v=64
209548 Off ch=10 n=70 v=64
209636 On ch=10 n=35 v=44
209636 On ch=10 n=82 v=46
209659 On ch=10 n=42 v=46
209661 Off ch=10 n=82 v=64
209661 Off ch=10 n=35 v=64
209684 Off ch=10 n=42 v=64
209754 On ch=10 n=70 v=56
209758 On ch=10 n=36 v=114
209758 On ch=10 n=38 v=99
209758 On ch=10 n=42 v=77
209759 On ch=10 n=39 v=92
209760 On ch=10 n=63 v=77
209760 On ch=10 n=82 v=38
209779 Off ch=10 n=70 v=64
209783 Off ch=10 n=42 v=64
209783 Off ch=10 n=38 v=64
209783 Off ch=10 n=36 v=64
209784 Off ch=10 n=39 v=64
209785 Off ch=10 n=82 v=64
209785 Off ch=10 n=63 v=64
209882 On ch=10 n=82 v=33
209907 Off ch=10 n=82 v=64
209991 On ch=10 n=69 v=58
209993 On ch=10 n=35 v=45
209997 On ch=10 n=70 v=68
209997 On ch=10 n=82 v=58
209998 On ch=10 n=46 v=70
210002 On ch=10 n=64 v=70
210016 Off ch=10 n=69 v=64
210018 Off ch=10 n=35 v=64
210022 Off ch=10 n=82 v=64
210022 Off ch=10 n=70 v=64
210023 Off ch=10 n=46 v=64
210027 Off ch=10 n=64 v=64
210114 On ch=10 n=82 v=48
210117 On ch=10 n=40 v=52
210118 On ch=10 n=64 v=55
210131 On ch=10 n=42 v=46
210139 Off ch=10 n=82 v=64
210142 Off ch=10 n=40 v=64
210143 Off ch=10 n=64 v=64
210156 Off ch=10 n=42 v=64
210236 On ch=10 n=70 v=57
210238 On ch=10 n=36 v=117
210238 On ch=10 n=42 v=81
210242 On ch=10 n=82 v=40
210243 On ch=10 n=64 v=67
210261 Off ch=10 n=70 v=64
210263 Off ch=10 n=42 v=64
210263 Off ch=10 n=36 v=64
210267 Off ch=10 n=82 v=64
210268 Off ch=10 n=64 v=64
210356 On ch=10 n=82 v=33
210357 On ch=10 n=40 v=47
210381 Off ch=10 n=82 v=64
210382 Off ch=10 n=40 v=64
210470 On ch=10 n=69 v=57
210474 On ch=10 n=35 v=40
210474 On ch=10 n=82 v=58
210478 On ch=10 n=46 v=68
210480 On ch=10 n=70 v=68
210481 On ch=10 n=62 v=63
210495 Off ch=10 n=69 v=64
210499 Off ch=10 n=82 v=64
210499 Off ch=10 n=35 v=64
210503 Off ch=10 n=46 v=64
210505 Off ch=10 n=70 v=64
210506 Off ch=10 n=62 v=64
210595 On ch=10 n=82 v=44
210612 On ch=10 n=42 v=46
210620 Off ch=10 n=82 v=64
210637 Off ch=10 n=42 v=64
210716 On ch=10 n=70 v=57
210716 On ch=10 n=82 v=41
210718 On ch=10 n=36 v=114
210718 On ch=10 n=38 v=99
210718 On ch=10 n=42 v=79
210720 On ch=10 n=39 v=87
210724 On ch=10 n=63 v=71
210741 Off ch=10 n=82 v=64
210741 Off ch=10 n=70 v=64
210743 Off ch=10 n=42 v=64
210743 Off ch=10 n=38 v=64
210743 Off ch=10 n=36 v=64
210745 Off ch=10 n=39 v=64
210749 Off ch=10 n=63 v=64
210844 On ch=10 n=82 v=33
210869 Off ch=10 n=82 v=64
210955 On ch=10 n=64 v=62
210955 On ch=10 n=82 v=58
210958 On ch=10 n=40 v=46
210958 On ch=10 n=46 v=69
210958 On ch=10 n=69 v=57
210961 On ch=10 n=70 v=67
210980 Off ch=10 n=82 v=64
210980 Off ch=10 n=64 v=64
210983 Off ch=10 n=69 v=64
210983 Off ch=10 n=46 v=64
210983 Off ch=10 n=40 v=64
210986 Off ch=10 n=70 v=64
211075 On ch=10 n=40 v=38
211080 On ch=10 n=82 v=47
211083 On ch=10 n=64 v=59
211097 On ch=10 n=42 v=46
211100 Off ch=10 n=40 v=64
211105 Off ch=10 n=82 v=64
211108 Off ch=10 n=64 v=64
211122 Off ch=10 n=42 v=64
211198 On ch=10 n=36 v=117
211198 On ch=10 n=42 v=81
211201 On ch=10 n=64 v=68
211203 On ch=10 n=82 v=44
211204 On ch=10 n=70 v=56
211223 Off ch=10 n=42 v=64
211223 Off ch=10 n=36 v=64
211226 Off ch=10 n=64 v=64
211228 Off ch=10 n=82 v=64
211229 Off ch=10 n=70 v=64
211324 On ch=10 n=82 v=33
211349 Off ch=10 n=82 v=64
211434 On ch=10 n=62 v=69
211438 On ch=10 n=46 v=70
211439 On ch=10 n=82 v=55
211440 On ch=10 n=35 v=51
211440 On ch=10 n=69 v=54
211441 On ch=10 n=70 v=67
211459 Off ch=10 n=62 v=64
211463 Off ch=10 n=46 v=64
211464 Off ch=10 n=82 v=64
211465 Off ch=10 n=69 v=64
211465 Off ch=10 n=35 v=64
211466 Off ch=10 n=70 v=64
211555 On ch=10 n=82 v=47
211555 On ch=10 n=35 v=43
211580 Off ch=10 n=35 v=64
211580 Off ch=10 n=82 v=64
211582 On ch=10 n=42 v=46
211607 Off ch=10 n=42 v=64
211678 On ch=10 n=36 v=114
211678 On ch=10 n=38 v=99
211678 On ch=10 n=42 v=77
211679 On ch=10 n=39 v=89
211679 On ch=10 n=63 v=77
211679 On ch=10 n=70 v=57
211682 On ch=10 n=82 v=38
211703 Off ch=10 n=42 v=64
211703 Off ch=10 n=38 v=64
211703 Off ch=10 n=36 v=64
211704 Off ch=10 n=70 v=64
211704 Off ch=10 n=63 v=64
211704 Off ch=10 n=39 v=64
211707 Off ch=10 n=82 v=64
211795 On ch=10 n=82 v=36
211820 Off ch=10 n=82 v=64
211912 On ch=10 n=69 v=55
211917 On ch=10 n=35 v=46
211918 On ch=10 n=46 v=71
211918 On ch=10 n=70 v=68
211920 On ch=10 n=64 v=70
211925 On ch=10 n=82 v=56
211937 Off ch=10 n=69 v=64
211942 Off ch=10 n=35 v=64
211943 Off ch=10 n=70 v=64
211943 Off ch=10 n=46 v=64
211945 Off ch=10 n=64 v=64
211950 Off ch=10 n=82 v=64
212035 On ch=10 n=64 v=56
212037 On ch=10 n=40 v=52
212045 On ch=10 n=82 v=44
212060 Off ch=10 n=64 v=64
212061 On ch=10 n=42 v=46
212062 Off ch=10 n=40 v=64
212070 Off ch=10 n=82 v=64
212086 Off ch=10 n=42 v=64
212155 On ch=10 n=64 v=68
212158 On ch=10 n=36 v=117
212158 On ch=10 n=42 v=81
212164 On ch=10 n=70 v=59
212164 On ch=10 n=82 v=40
212180 Off ch=10 n=64 v=64
212183 Off ch=10 n=42 v=64
212183 Off ch=10 n=36 v=64
212189 Off ch=10 n=82 v=64
212189 Off ch=10 n=70 v=64
212280 On ch=10 n=40 v=48
212281 On ch=10 n=82 v=36
212305 Off ch=10 n=40 v=64
212306 Off ch=10 n=82 v=64
212394 On ch=10 n=62 v=64
212395 On ch=10 n=69 v=55
212398 On ch=10 n=46 v=69
212401 On ch=10 n=35 v=43
212402 On ch=10 n=82 v=57
212404 On ch=10 n=70 v=67
212419 Off ch=10 n=62 v=64
212420 Off ch=10 n=69 v=64
212423 Off ch=10 n=46 v=64
212426 Off ch=10 n=35 v=64
212427 Off ch=10 n=82 v=64
212429 Off ch=10 n=70 v=64
212515 On ch=10 n=82 v=44
212528 On ch=10 n=42 v=46
212540 Off ch=10 n=82 v=64
212553 Off ch=10 n=42 v=64
212634 On ch=10 n=63 v=69
212635 On ch=10 n=70 v=57
212638 On ch=10 n=36 v=114
212638 On ch=10 n=38 v=99
212638 On ch=10 n=42 v=76
212638 On ch=10 n=82 v=41
212643 On ch=10 n=39 v=87
212659 Off ch=10 n=63 v=64
212660 Off ch=10 n=70 v=64
212663 Off ch=10 n=82 v=64
212663 Off ch=10 n=42 v=64
212663 Off ch=10 n=38 v=64
212663 Off ch=10 n=36 v=64
212668 Off ch=10 n=39 v=64
212758 On ch=10 n=82 v=36
212783 Off ch=10 n=82 v=64
212874 On ch=10 n=40 v=43
212875 On ch=10 n=69 v=55
212877 On ch=10 n=64 v=65
212877 On ch=10 n=70 v=70
212878 On ch=10 n=46 v=71
212883 On ch=10 n=82 v=57
212899 Off ch=10 n=40 v=64
212900 Off ch=10 n=69 v=64
212902 Off ch=10 n=70 v=64
212902 Off ch=10 n=64 v=64
212903 Off ch=10 n=46 v=64
212908 Off ch=10 n=82 v=64
212995 On ch=10 n=40 v=41
212999 On ch=10 n=82 v=47
212999 On ch=10 n=64 v=59
213020 Off ch=10 n=40 v=64
213020 On ch=10 n=42 v=46
213024 Off ch=10 n=64 v=64
213024 Off ch=10 n=82 v=64
213045 Off ch=10 n=42 v=64
213115 On ch=10 n=70 v=55
213117 On ch=10 n=64 v=71
213118 On ch=10 n=36 v=117
213118 On ch=10 n=42 v=83
213125 On ch=10 n=82 v=44
213140 Off ch=10 n=70 v=64
213142 Off ch=10 n=64 v=64
213143 Off ch=10 n=42 v=64
213143 Off ch=10 n=36 v=64
213150 Off ch=10 n=82 v=64
213238 On ch=10 n=82 v=33
213263 Off ch=10 n=82 v=64
213355 On ch=10 n=82 v=52
213358 On ch=10 n=46 v=72
213358 On ch=10 n=35 v=46
213359 On ch=10 n=70 v=69
213360 On ch=10 n=62 v=74
213360 On ch=10 n=69 v=54
213380 Off ch=10 n=82 v=64
213383 Off ch=10 n=35 v=64
213383 Off ch=10 n=46 v=64
213384 Off ch=10 n=70 v=64
213385 Off ch=10 n=69 v=64
213385 Off ch=10 n=62 v=64
213474 On ch=10 n=82 v=47
213478 On ch=10 n=35 v=48
213490 On ch=10 n=42 v=46
213499 Off ch=10 n=82 v=64
213503 Off ch=10 n=35 v=64
213515 Off ch=10 n=42 v=64
213593 On ch=10 n=70 v=56
213597 On ch=10 n=39 v=90
213597 On ch=10 n=63 v=76
213598 On ch=10 n=36 v=114
213598 On ch=10 n=38 v=99
213598 On ch=10 n=42 v=81
213604 On ch=10 n=82 v=42
213618 Off ch=10 n=70 v=64
213622 Off ch=10 n=63 v=64
213622 Off ch=10 n=39 v=64
213623 Off ch=10 n=42 v=64
213623 Off ch=10 n=38 v=64
213623 Off ch=10 n=36 v=64
213629 Off ch=10 n=82 v=64
213720 On ch=10 n=82 v=34
213745 Off ch=10 n=82 v=64
213836 On ch=10 n=69 v=55
213837 On ch=10 n=35 v=53
213838 On ch=10 n=46 v=70
213839 On ch=10 n=70 v=68
213841 On ch=10 n=64 v=71
213841 On ch=10 n=82 v=57
213861 Off ch=10 n=69 v=64
213862 Off ch=10 n=35 v=64
213863 Off ch=10 n=46 v=64
213864 Off ch=10 n=70 v=64
213866 Off ch=10 n=82 v=64
213866 Off ch=10 n=64 v=64
213955 On ch=10 n=64 v=53
213959 On ch=10 n=40 v=56
213964 On ch=10 n=82 v=46
213975 On ch=10 n=42 v=46
213980 Off ch=10 n=64 v=64
213984 Off ch=10 n=40 v=64
213989 Off ch=10 n=82 v=64
214000 Off ch=10 n=42 v=64
214075 On ch=10 n=82 v=39
214078 On ch=10 n=36 v=117
214078 On ch=10 n=42 v=81
214081 On ch=10 n=64 v=70
214081 On ch=10 n=70 v=56
214100 Off ch=10 n=82 v=64
214103 Off ch=10 n=42 v=64
214103 Off ch=10 n=36 v=64
214106 Off ch=10 n=70 v=64
214106 Off ch=10 n=64 v=64
214194 On ch=10 n=82 v=34
214197 On ch=10 n=40 v=47
214219 Off ch=10 n=82 v=64
214222 Off ch=10 n=40 v=64
214311 On ch=10 n=69 v=56
214317 On ch=10 n=62 v=62
214317 On ch=10 n=70 v=66
214318 On ch=10 n=46 v=69
214319 On ch=10 n=82 v=58
214319 On ch=10 n=35 v=43
214336 Off ch=10 n=69 v=64
214342 Off ch=10 n=70 v=64
214342 Off ch=10 n=62 v=64
214343 Off ch=10 n=46 v=64
214344 Off ch=10 n=35 v=64
214344 Off ch=10 n=82 v=64
214445 On ch=10 n=82 v=45
214449 On ch=10 n=42 v=46
214470 Off ch=10 n=82 v=64
214474 Off ch=10 n=42 v=64
214555 On ch=10 n=70 v=58
214558 On ch=10 n=36 v=114
214558 On ch=10 n=38 v=99
214558 On ch=10 n=42 v=76
214560 On ch=10 n=82 v=41
214563 On ch=10 n=39 v=92
214565 On ch=10 n=63 v=70
214580 Off ch=10 n=70 v=64
214583 Off ch=10 n=42 v=64
214583 Off ch=10 n=38 v=64
214583 Off ch=10 n=36 v=64
214585 Off ch=10 n=82 v=64
214588 Off ch=10 n=39 v=64
214590 Off ch=10 n=63 v=64
214682 On ch=10 n=82 v=35
214707 Off ch=10 n=82 v=64
214794 On ch=10 n=40 v=44
214795 On ch=10 n=69 v=54
214798 On ch=10 n=46 v=72
214799 On ch=10 n=82 v=58
214803 On ch=10 n=64 v=68
214804 On ch=10 n=70 v=67
214819 Off ch=10 n=40 v=64
214820 Off ch=10 n=69 v=64
214823 Off ch=10 n=46 v=64
214824 Off ch=10 n=82 v=64
214828 Off ch=10 n=64 v=64
214829 Off ch=10 n=70 v=64
214917 On ch=10 n=40 v=37
214918 On ch=10 n=82 v=48
214919 On ch=10 n=64 v=62
214927 On ch=10 n=42 v=46
214942 Off ch=10 n=40 v=64
214943 Off ch=10 n=82 v=64
214944 Off ch=10 n=64 v=64
214952 Off ch=10 n=42 v=64
215036 On ch=10 n=82 v=44
215037 On ch=10 n=64 v=68
215038 On ch=10 n=36 v=117
215038 On ch=10 n=42 v=85
215038 On ch=10 n=70 v=59
215061 Off ch=10 n=82 v=64
215062 Off ch=10 n=64 v=64
215063 Off ch=10 n=70 v=64
215063 Off ch=10 n=42 v=64
215063 Off ch=10 n=36 v=64
215162 On ch=10 n=82 v=36
215187 Off ch=10 n=82 v=64
215272 On ch=10 n=69 v=58
215277 On ch=10 n=70 v=65
215278 On ch=10 n=46 v=69
215280 On ch=10 n=35 v=48
215282 On ch=10 n=82 v=54
215284 On ch=10 n=62 v=70
215297 Off ch=10 n=69 v=64
215302 Off ch=10 n=70 v=64
215303 Off ch=10 n=46 v=64
215305 Off ch=10 n=35 v=64
215307 Off ch=10 n=82 v=64
215309 Off ch=10 n=62 v=64
215398 On ch=10 n=35 v=43
215403 On ch=10 n=42 v=46
215405 On ch=10 n=82 v=49
215423 Off ch=10 n=35 v=64
215428 Off ch=10 n=42 v=64
215430 Off ch=10 n=82 v=64
215515 On ch=10 n=82 v=42
215518 On ch=10 n=36 v=114
215518 On ch=10 n=38 v=99
215518 On ch=10 n=42 v=78
215519 On ch=10 n=70 v=59
215524 On ch=10 n=63 v=79
215525 On ch=10 n=39 v=90
215540 Off ch=10 n=82 v=64
215543 Off ch=10 n=42 v=64
215543 Off ch=10 n=38 v=64
215543 Off ch=10 n=36 v=64
215544 Off ch=10 n=70 v=64
215549 Off ch=10 n=63 v=64
215550 Off ch=10 n=39 v=64
215645 On ch=10 n=82 v=33
215670 Off ch=10 n=82 v=64
215752 On ch=10 n=69 v=55
215754 On ch=10 n=64 v=67
215755 On ch=10 n=35 v=49
215757 On ch=10 n=82 v=56
215758 On ch=10 n=46 v=68
215760 On ch=10 n=70 v=68
215777 Off ch=10 n=69 v=64
215779 Off ch=10 n=64 v=64
215780 Off ch=10 n=35 v=64
215782 Off ch=10 n=82 v=64
215783 Off ch=10 n=46 v=64
215785 Off ch=10 n=70 v=64
215875 On ch=10 n=40 v=53
215879 On ch=10 n=64 v=58
215883 On ch=10 n=82 v=47
215894 On ch=10 n=42 v=46
215900 Off ch=10 n=40 v=64
215904 Off ch=10 n=64 v=64
215908 Off ch=10 n=82 v=64
215919 Off ch=10 n=42 v=64
215997 On ch=10 n=82 v=39
215998 On ch=10 n=36 v=117
215998 On ch=10 n=42 v=79
215998 On ch=10 n=70 v=58
215999 On ch=10 n=64 v=73
216022 Off ch=10 n=82 v=64
216023 Off ch=10 n=70 v=64
216023 Off ch=10 n=42 v=64
216023 Off ch=10 n=36 v=64
216024 Off ch=10 n=64 v=64
216116 On ch=10 n=40 v=45
216119 On ch=10 n=82 v=33
216141 Off ch=10 n=40 v=64
216144 Off ch=10 n=82 v=64
216230 On ch=10 n=69 v=57
216235 On ch=10 n=35 v=40
216235 On ch=10 n=82 v=57
216237 On ch=10 n=62 v=59
216238 On ch=10 n=46 v=68
216240 On ch=10 n=70 v=69
216255 Off ch=10 n=69 v=64
216260 Off ch=10 n=82 v=64
216260 Off ch=10 n=35 v=64
216262 Off ch=10 n=62 v=64
216263 Off ch=10 n=46 v=64
216265 Off ch=10 n=70 v=64
216364 On ch=10 n=82 v=47
216375 On ch=10 n=42 v=46
216389 Off ch=10 n=82 v=64
216400 Off ch=10 n=42 v=64
216474 On ch=10 n=70 v=58
216478 On ch=10 n=36 v=114
216478 On ch=10 n=38 v=99
216478 On ch=10 n=42 v=76
216480 On ch=10 n=39 v=89
216482 On ch=10 n=63 v=71
216482 On ch=10 n=82 v=41
216499 Off ch=10 n=70 v=64
216503 Off ch=10 n=42 v=64
216503 Off ch=10 n=38 v=64
216503 Off ch=10 n=36 v=64
216505 Off ch=10 n=39 v=64
216507 Off ch=10 n=82 v=64
216507 Off ch=10 n=63 v=64
216596 On ch=10 n=82 v=33
216621 Off ch=10 n=82 v=64
216715 On ch=10 n=40 v=43
216715 On ch=10 n=82 v=57
216717 On ch=10 n=69 v=55
216718 On ch=10 n=46 v=72
216719 On ch=10 n=70 v=70
216720 On ch=10 n=64 v=66
216740 Off ch=10 n=82 v=64
216740 Off ch=10 n=40 v=64
216742 Off ch=10 n=69 v=64
216743 Off ch=10 n=46 v=64
216744 Off ch=10 n=70 v=64
216745 Off ch=10 n=64 v=64
216837 On ch=10 n=82 v=44
216841 On ch=10 n=40 v=37
216842 On ch=10 n=64 v=59
216859 On ch=10 n=42 v=46
216862 Off ch=10 n=82 v=64
216866 Off ch=10 n=40 v=64
216867 Off ch=10 n=64 v=64
216884 Off ch=10 n=42 v=64
216958 On ch=10 n=36 v=117
216958 On ch=10 n=42 v=80
216958 On ch=10 n=82 v=44
216959 On ch=10 n=64 v=67
216960 On ch=10 n=70 v=57
216983 Off ch=10 n=82 v=64
216983 Off ch=10 n=42 v=64
216983 Off ch=10 n=36 v=64
216984 Off ch=10 n=64 v=64
216985 Off ch=10 n=70 v=64
217076 On ch=10 n=82 v=34
217101 Off ch=10 n=82 v=64
217195 On ch=10 n=62 v=71
217195 On ch=10 n=70 v=66
217198 On ch=10 n=46 v=70
217198 On ch=10 n=69 v=55
217199 On ch=10 n=82 v=57
217199 On ch=10 n=35 v=47
217220 Off ch=10 n=70 v=64
217220 Off ch=10 n=62 v=64
217223 Off ch=10 n=69 v=64
217223 Off ch=10 n=46 v=64
217224 Off ch=10 n=35 v=64
217224 Off ch=10 n=82 v=64
217321 On ch=10 n=35 v=44
217324 On ch=10 n=82 v=50
217342 On ch=10 n=42 v=46
217346 Off ch=10 n=35 v=64
217349 Off ch=10 n=82 v=64
217367 Off ch=10 n=42 v=64
217437 On ch=10 n=63 v=80
217437 On ch=10 n=82 v=42
217438 On ch=10 n=36 v=114
217438 On ch=10 n=38 v=99
217438 On ch=10 n=42 v=79
217438 On ch=10 n=39 v=93
217444 On ch=10 n=70 v=57
217462 Off ch=10 n=82 v=64
217462 Off ch=10 n=63 v=64
217463 Off ch=10 n=39 v=64
217463 Off ch=10 n=42 v=64
217463 Off ch=10 n=38 v=64
217463 Off ch=10 n=36 v=64
217469 Off ch=10 n=70 v=64
217558 On ch=10 n=82 v=36
217583 Off ch=10 n=82 v=64
217676 On ch=10 n=35 v=51
217678 On ch=10 n=46 v=69
217681 On ch=10 n=70 v=68
217681 On ch=10 n=69 v=54
217682 On ch=10 n=64 v=70
217685 On ch=10 n=82 v=57
217701 Off ch=10 n=35 v=64
217703 Off ch=10 n=46 v=64
217706 Off ch=10 n=69 v=64
217706 Off ch=10 n=70 v=64
217707 Off ch=10 n=64 v=64
217710 Off ch=10 n=82 v=64
217793 On ch=10 n=40 v=54
217796 On ch=10 n=64 v=56
217802 On ch=10 n=82 v=47
217818 Off ch=10 n=40 v=64
217819 On ch=10 n=42 v=46
217821 Off ch=10 n=64 v=64
217827 Off ch=10 n=82 v=64
217844 Off ch=10 n=42 v=64
217914 On ch=10 n=70 v=59
217918 On ch=10 n=36 v=117
217918 On ch=10 n=42 v=81
217919 On ch=10 n=82 v=39
217921 On ch=10 n=64 v=70
217939 Off ch=10 n=70 v=64
217943 Off ch=10 n=42 v=64
217943 Off ch=10 n=36 v=64
217944 Off ch=10 n=82 v=64
217946 Off ch=10 n=64 v=64
218037 On ch=10 n=40 v=48
218044 On ch=10 n=82 v=32
218062 Off ch=10 n=40 v=64
218069 Off ch=10 n=82 v=64
218152 On ch=10 n=69 v=56
218155 On ch=10 n=62 v=60
218158 On ch=10 n=46 v=70
218159 On ch=10 n=35 v=44
218162 On ch=10 n=82 v=57
218164 On ch=10 n=70 v=68
218177 Off ch=10 n=69 v=64
218180 Off ch=10 n=62 v=64
218183 Off ch=10 n=46 v=64
218184 Off ch=10 n=35 v=64
218187 Off ch=10 n=82 v=64
218189 Off ch=10 n=70 v=64
218283 On ch=10 n=82 v=44
218285 On ch=10 n=42 v=46
218308 Off ch=10 n=82 v=64
218310 Off ch=10 n=42 v=64
218394 On ch=10 n=70 v=59
218395 On ch=10 n=39 v=90
218397 On ch=10 n=63 v=69
218398 On ch=10 n=36 v=114
218398 On ch=10 n=38 v=99
218398 On ch=10 n=42 v=79
218404 On ch=10 n=82 v=40
218419 Off ch=10 n=70 v=64
218420 Off ch=10 n=39 v=64
218422 Off ch=10 n=63 v=64
218423 Off ch=10 n=42 v=64
218423 Off ch=10 n=38 v=64
218423 Off ch=10 n=36 v=64
218429 Off ch=10 n=82 v=64
218520 On ch=10 n=82 v=36
218545 Off ch=10 n=82 v=64
218632 On ch=10 n=69 v=55
218634 On ch=10 n=70 v=67
218638 On ch=10 n=46 v=70
218639 On ch=10 n=40 v=46
218642 On ch=10 n=64 v=65
218643 On ch=10 n=82 v=58
218657 Off ch=10 n=69 v=64
218659 Off ch=10 n=70 v=64
218663 Off ch=10 n=46 v=64
218664 Off ch=10 n=40 v=64
218667 Off ch=10 n=64 v=64
218668 Off ch=10 n=82 v=64
218756 On ch=10 n=82 v=46
218757 On ch=10 n=64 v=56
218759 On ch=10 n=40 v=42
218776 On ch=10 n=42 v=46
218781 Off ch=10 n=82 v=64
218782 Off ch=10 n=64 v=64
218784 Off ch=10 n=40 v=64
218801 Off ch=10 n=42 v=64
218874 On ch=10 n=64 v=67
218878 On ch=10 n=36 v=117
218878 On ch=10 n=42 v=84
218880 On ch=10 n=82 v=43
218882 On ch=10 n=70 v=56
218899 Off ch=10 n=64 v=64
218903 Off ch=10 n=42 v=64
218903 Off ch=10 n=36 v=64
218905 Off ch=10 n=82 v=64
218907 Off ch=10 n=70 v=64
219000 On ch=10 n=82 v=33
219025 Off ch=10 n=82 v=64
219113 On ch=10 n=70 v=67
219115 On ch=10 n=62 v=69
219115 On ch=10 n=82 v=54
219115 On ch=10 n=35 v=53
219116 On ch=10 n=69 v=56
219118 On ch=10 n=46 v=69
219138 Off ch=10 n=70 v=64
219140 Off ch=10 n=35 v=64
219140 Off ch=10 n=82 v=64
219140 Off ch=10 n=62 v=64
219141 Off ch=10 n=69 v=64
219143 Off ch=10 n=46 v=64
219240 On ch=10 n=35 v=43
219243 On ch=10 n=82 v=46
219245 On ch=10 n=42 v=46
219265 Off ch=10 n=35 v=64
219268 Off ch=10 n=82 v=64
219270 Off ch=10 n=42 v=64
219358 On ch=10 n=36 v=114
219358 On ch=10 n=38 v=99
219358 On ch=10 n=42 v=79
219358 On ch=10 n=70 v=56
219359 On ch=10 n=63 v=78
219359 On ch=10 n=82 v=41
219361 On ch=10 n=39 v=88
219383 Off ch=10 n=70 v=64
219383 Off ch=10 n=42 v=64
219383 Off ch=10 n=38 v=64
219383 Off ch=10 n=36 v=64
219384 Off ch=10 n=82 v=64
219384 Off ch=10 n=63 v=64
219386 Off ch=10 n=39 v=64
219483 On ch=10 n=82 v=35
219508 Off ch=10 n=82 v=64
219591 On ch=10 n=69 v=55
219598 On ch=10 n=46 v=69
219599 On ch=10 n=35 v=52
219601 On ch=10 n=82 v=58
219602 On ch=10 n=70 v=68
219603 On ch=10 n=64 v=70
219616 Off ch=10 n=69 v=64
219623 Off ch=10 n=46 v=64
219624 Off ch=10 n=35 v=64
219626 Off ch=10 n=82 v=64
219627 Off ch=10 n=70 v=64
219628 Off ch=10 n=64 v=64
219714 On ch=10 n=40 v=54
219716 On ch=10 n=64 v=57
219721 On ch=10 n=82 v=48
219729 On ch=10 n=42 v=46
219739 Off ch=10 n=40 v=64
219741 Off ch=10 n=64 v=64
219746 Off ch=10 n=82 v=64
219754 Off ch=10 n=42 v=64
219835 On ch=10 n=64 v=69
219838 On ch=10 n=36 v=117
219838 On ch=10 n=42 v=82
219841 On ch=10 n=82 v=38
219842 On ch=10 n=70 v=56
219860 Off ch=10 n=64 v=64
219863 Off ch=10 n=42 v=64
219863 Off ch=10 n=36 v=64
219866 Off ch=10 n=82 v=64
219867 Off ch=10 n=70 v=64
219957 On ch=10 n=82 v=35
219960 On ch=10 n=40 v=49
219982 Off ch=10 n=82 v=64
219985 Off ch=10 n=40 v=64
220077 On ch=10 n=69 v=55
220077 On ch=10 n=70 v=67
220078 On ch=10 n=46 v=72
220079 On ch=10 n=82 v=56
220080 On ch=10 n=35 v=46
220082 On ch=10 n=62 v=59
220102 Off ch=10 n=70 v=64
220102 Off ch=10 n=69 v=64
220103 Off ch=10 n=46 v=64
220104 Off ch=10 n=82 v=64
220105 Off ch=10 n=35 v=64
220107 Off ch=10 n=62 v=64
220202 On ch=10 n=82 v=44
220222 On ch=10 n=42 v=46
220227 Off ch=10 n=82 v=64
220247 Off ch=10 n=42 v=64
220313 On ch=10 n=70 v=59
220314 On ch=10 n=82 v=40
220318 On ch=10 n=36 v=114
220318 On ch=10 n=38 v=99
220318 On ch=10 n=42 v=80
220321 On ch=10 n=39 v=89
220321 On ch=10 n=63 v=72
220338 Off ch=10 n=70 v=64
220339 Off ch=10 n=82 v=64
220343 Off ch=10 n=42 v=64
220343 Off ch=10 n=38 v=64
220343 Off ch=10 n=36 v=64
220346 Off ch=10 n=63 v=64
220346 Off ch=10 n=39 v=64
220434 On ch=10 n=82 v=35
220459 Off ch=10 n=82 v=64
220556 On ch=10 n=64 v=66
220556 On ch=10 n=40 v=43
220558 On ch=10 n=46 v=72
220559 On ch=10 n=82 v=57
220560 On ch=10 n=69 v=55
220561 On ch=10 n=70 v=69
220581 Off ch=10 n=40 v=64
220581 Off ch=10 n=64 v=64
220583 Off ch=10 n=46 v=64
220584 Off ch=10 n=82 v=64
220585 Off ch=10 n=69 v=64
220586 Off ch=10 n=70 v=64
220675 On ch=10 n=82 v=47
220676 On ch=10 n=64 v=62
220679 On ch=10 n=40 v=39
220698 On ch=10 n=42 v=46
220700 Off ch=10 n=82 v=64
220701 Off ch=10 n=64 v=64
220704 Off ch=10 n=40 v=64
220723 Off ch=10 n=42 v=64
220794 On ch=10 n=70 v=56
220797 On ch=10 n=41 v=99
220798 On ch=10 n=36 v=117
220798 On ch=10 n=42 v=82
220798 On ch=10 n=49 v=77
220799 On ch=10 n=43 v=94
220802 On ch=10 n=82 v=43
220804 On ch=10 n=64 v=68
220819 Off ch=10 n=70 v=64
220822 Off ch=10 n=41 v=64
220823 Off ch=10 n=42 v=64
220823 Off ch=10 n=36 v=64
220824 Off ch=10 n=43 v=64
220827 Off ch=10 n=82 v=64
220829 Off ch=10 n=64 v=64
222708 Off ch=10 n=49 v=64
222708 Meta TrkEnd
TrkEnd
