MFile 1 8 480
MTrk
0 Tempo 359281
0 Meta SeqName "Boulevard of Broken Dreams"
0 TimeSig 4/4 5 123
0 Meta TrkEnd
TrkEnd
MTrk
0 Meta TrkName "Billie Joe Armstrong (Vocals)"
0 Par ch=12 c=100 v=0
0 Par ch=12 c=101 v=0
0 Par ch=12 c=6 v=12
0 Pb ch=12 v=8192
0 Par ch=13 c=100 v=0
0 Par ch=13 c=101 v=0
0 Par ch=13 c=6 v=12
0 Pb ch=13 v=8192
0 PrCh ch=12 p=73
0 PrCh ch=13 p=73
0 Par ch=12 c=7 v=127
0 Par ch=13 c=7 v=127
0 Par ch=12 c=10 v=64
0 Par ch=13 c=10 v=64
0 Par ch=12 c=93 v=0
0 Par ch=13 c=93 v=0
0 Par ch=12 c=91 v=0
0 Par ch=13 c=91 v=0
0 Par ch=12 c=92 v=0
0 Par ch=13 c=92 v=0
0 Par ch=12 c=95 v=0
0 Par ch=13 c=95 v=0
15840 On ch=12 n=53 v=95
16320 Off ch=12 n=53 v=80
16320 On ch=12 n=53 v=95
16800 Off ch=12 n=53 v=80
16800 On ch=12 n=55 v=95
17280 Off ch=12 n=55 v=80
17280 On ch=12 n=56 v=95
17760 Off ch=12 n=56 v=80
17760 On ch=12 n=63 v=95
18240 Off ch=12 n=63 v=80
18240 On ch=12 n=60 v=95
18720 Off ch=12 n=60 v=80
18960 On ch=12 n=60 v=95
19200 Off ch=12 n=60 v=80
19200 On ch=12 n=58 v=95
19680 Off ch=12 n=58 v=80
19680 On ch=12 n=56 v=95
20160 Off ch=12 n=56 v=80
20160 On ch=12 n=58 v=95
20640 Off ch=12 n=58 v=80
20640 On ch=12 n=56 v=95
21120 Off ch=12 n=56 v=80
21120 On ch=12 n=58 v=95
21600 Off ch=12 n=58 v=80
21600 On ch=12 n=60 v=95
22080 Off ch=12 n=60 v=80
22080 On ch=12 n=58 v=95
22560 Off ch=12 n=58 v=80
22560 On ch=12 n=56 v=95
22800 Off ch=12 n=56 v=80
22800 On ch=12 n=53 v=95
23520 Off ch=12 n=53 v=80
24000 On ch=12 n=53 v=95
24480 Off ch=12 n=53 v=80
24480 On ch=12 n=55 v=95
24960 Off ch=12 n=55 v=80
24960 On ch=12 n=56 v=95
25440 Off ch=12 n=56 v=80
25440 On ch=12 n=63 v=95
25920 Off ch=12 n=63 v=80
25920 On ch=12 n=60 v=95
26400 Off ch=12 n=60 v=80
26880 On ch=12 n=58 v=95
27360 Off ch=12 n=58 v=80
27360 On ch=12 n=56 v=95
27840 Off ch=12 n=56 v=80
27840 On ch=12 n=58 v=95
28320 Off ch=12 n=58 v=80
28320 On ch=12 n=56 v=95
28560 Off ch=12 n=56 v=80
28560 On ch=12 n=58 v=95
29040 Off ch=12 n=58 v=80
29040 On ch=12 n=58 v=95
29280 Off ch=12 n=58 v=80
29280 On ch=12 n=60 v=95
29760 Off ch=12 n=60 v=80
29760 On ch=12 n=58 v=95
30240 Off ch=12 n=58 v=80
30240 On ch=12 n=56 v=95
30480 Off ch=12 n=56 v=80
30480 On ch=12 n=53 v=95
31200 Off ch=12 n=53 v=80
38880 On ch=12 n=53 v=95
39360 Off ch=12 n=53 v=80
39360 On ch=12 n=53 v=95
39840 Off ch=12 n=53 v=80
39840 On ch=12 n=55 v=95
40320 Off ch=12 n=55 v=80
40320 On ch=12 n=56 v=95
40800 Off ch=12 n=56 v=80
40800 On ch=12 n=63 v=95
41280 Off ch=12 n=63 v=80
41280 On ch=12 n=60 v=95
41760 Off ch=12 n=60 v=80
42240 On ch=12 n=58 v=95
42720 Off ch=12 n=58 v=80
42720 On ch=12 n=56 v=95
43200 Off ch=12 n=56 v=80
43200 On ch=12 n=58 v=95
43680 Off ch=12 n=58 v=80
43680 On ch=12 n=56 v=95
44160 Off ch=12 n=56 v=80
44160 On ch=12 n=58 v=95
44640 Off ch=12 n=58 v=80
44640 On ch=12 n=60 v=95
45120 Off ch=12 n=60 v=80
45120 On ch=12 n=58 v=95
45600 Off ch=12 n=58 v=80
45600 On ch=12 n=56 v=95
45840 Off ch=12 n=56 v=80
45840 On ch=12 n=53 v=95
46560 Off ch=12 n=53 v=80
47040 On ch=12 n=53 v=95
47520 Off ch=12 n=53 v=80
47520 On ch=12 n=55 v=95
48000 Off ch=12 n=55 v=80
48000 On ch=12 n=56 v=95
48480 Off ch=12 n=56 v=80
48480 On ch=12 n=63 v=95
48960 Off ch=12 n=63 v=80
48960 On ch=12 n=60 v=95
49440 Off ch=12 n=60 v=80
49680 On ch=12 n=56 v=95
49920 Off ch=12 n=56 v=80
49920 On ch=12 n=58 v=95
50400 Off ch=12 n=58 v=80
50400 On ch=12 n=56 v=95
50880 Off ch=12 n=56 v=80
50880 On ch=12 n=58 v=95
51360 Off ch=12 n=58 v=80
51360 On ch=12 n=56 v=95
51600 Off ch=12 n=56 v=80
51600 On ch=12 n=58 v=95
52080 Off ch=12 n=58 v=80
52080 On ch=12 n=58 v=95
52320 Off ch=12 n=58 v=80
52320 On ch=12 n=60 v=95
52800 Off ch=12 n=60 v=80
52800 On ch=12 n=58 v=95
53280 Off ch=12 n=58 v=80
53280 On ch=12 n=56 v=95
53520 Off ch=12 n=56 v=80
53520 On ch=12 n=53 v=95
54240 Off ch=12 n=53 v=80
58080 On ch=12 n=60 v=95
58560 Off ch=12 n=60 v=80
58560 On ch=12 n=58 v=95
59040 Off ch=12 n=58 v=80
59040 On ch=12 n=56 v=95
59280 Off ch=12 n=56 v=80
59280 On ch=12 n=58 v=95
59760 Off ch=12 n=58 v=80
59760 On ch=12 n=58 v=95
60000 Off ch=12 n=58 v=80
60000 On ch=12 n=60 v=95
60480 Off ch=12 n=60 v=80
60480 On ch=12 n=58 v=95
60960 Off ch=12 n=58 v=80
60960 On ch=12 n=56 v=95
61440 Off ch=12 n=56 v=80
61440 On ch=12 n=53 v=95
63360 Off ch=12 n=53 v=80
65760 On ch=12 n=60 v=95
66240 Off ch=12 n=60 v=80
66240 On ch=12 n=58 v=95
66720 Off ch=12 n=58 v=80
66720 On ch=12 n=56 v=95
66960 Off ch=12 n=56 v=80
66960 On ch=12 n=58 v=95
67440 Off ch=12 n=58 v=80
67440 On ch=12 n=58 v=95
67680 Off ch=12 n=58 v=80
67680 On ch=12 n=60 v=95
68160 Off ch=12 n=60 v=80
68160 On ch=12 n=58 v=95
68640 Off ch=12 n=58 v=80
68640 On ch=12 n=56 v=95
70080 Off ch=12 n=56 v=80
70080 On ch=12 n=65 v=95
70560 Off ch=12 n=65 v=80
70560 On ch=12 n=63 v=95
71520 Off ch=12 n=63 v=80
71520 On ch=12 n=56 v=95
72480 Off ch=12 n=56 v=80
72480 On ch=12 n=58 v=95
73440 Off ch=12 n=58 v=80
73440 On ch=12 n=56 v=95
73920 Off ch=12 n=56 v=80
73920 On ch=12 n=58 v=95
74400 Off ch=12 n=58 v=80
74400 On ch=12 n=56 v=95
74640 Off ch=12 n=56 v=80
74640 On ch=12 n=58 v=95
75120 Off ch=12 n=58 v=80
75120 On ch=12 n=58 v=95
75360 Off ch=12 n=58 v=80
75360 On ch=12 n=60 v=95
75840 Off ch=12 n=60 v=80
75840 On ch=12 n=58 v=95
76320 Off ch=12 n=58 v=80
76320 On ch=12 n=53 v=95
76800 Off ch=12 n=53 v=80
77760 On ch=12 n=65 v=95
78240 Off ch=12 n=65 v=80
78240 On ch=12 n=63 v=95
79200 Off ch=12 n=63 v=80
79200 On ch=12 n=56 v=95
80160 Off ch=12 n=56 v=80
80160 On ch=12 n=58 v=95
81120 Off ch=12 n=58 v=80
81120 On ch=12 n=56 v=95
81600 Off ch=12 n=56 v=80
81600 On ch=12 n=58 v=95
82080 Off ch=12 n=58 v=80
82080 On ch=12 n=56 v=95
82320 Off ch=12 n=56 v=80
82320 On ch=12 n=58 v=95
83040 Off ch=12 n=58 v=80
83040 On ch=12 n=60 v=95
83520 Off ch=12 n=60 v=80
83520 On ch=12 n=58 v=95
84000 Off ch=12 n=58 v=80
84000 On ch=12 n=53 v=95
84480 Off ch=12 n=53 v=80
85440 On ch=12 n=65 v=95
85920 Off ch=12 n=65 v=80
85920 On ch=12 n=63 v=95
86880 Off ch=12 n=63 v=80
86880 On ch=12 n=56 v=95
87840 Off ch=12 n=56 v=80
87840 On ch=12 n=58 v=95
88800 Off ch=12 n=58 v=80
88800 On ch=12 n=56 v=95
89280 Off ch=12 n=56 v=80
89280 On ch=12 n=58 v=95
89760 Off ch=12 n=58 v=80
89760 On ch=12 n=56 v=95
90000 Off ch=12 n=56 v=80
90000 On ch=12 n=58 v=95
90720 Off ch=12 n=58 v=80
90720 On ch=12 n=60 v=95
91200 Off ch=12 n=60 v=80
91200 On ch=12 n=58 v=95
91680 Off ch=12 n=58 v=80
91680 On ch=12 n=53 v=95
92160 Off ch=12 n=53 v=80
93120 On ch=12 n=65 v=95
93600 Off ch=12 n=65 v=80
93600 On ch=12 n=63 v=95
94560 Off ch=12 n=63 v=80
94560 On ch=12 n=60 v=95
95520 Off ch=12 n=60 v=80
95520 On ch=13 n=63 v=95
95520 Pb ch=13 v=8192
95616 Pb ch=13 v=8320
95808 Pb ch=13 v=8448
95984 Pb ch=13 v=8576
96144 Pb ch=13 v=8704
96336 Pb ch=13 v=8832
96480 Off ch=13 n=63 v=80
96480 Pb ch=13 v=8192
96480 On ch=12 n=60 v=95
96960 Off ch=12 n=60 v=80
96960 On ch=12 n=60 v=95
97920 Off ch=12 n=60 v=80
100800 On ch=13 n=55 v=95
101184 Pb ch=13 v=8832
101280 Off ch=13 n=55 v=80
101280 Pb ch=13 v=8192
101280 On ch=12 n=56 v=86
102720 Off ch=12 n=56 v=80
102720 On ch=13 n=60 v=95
102960 Pb ch=13 v=7552
103200 Off ch=13 n=60 v=80
103200 Pb ch=13 v=8192
103200 On ch=12 n=58 v=86
104640 Off ch=12 n=58 v=80
104640 On ch=13 n=55 v=95
105024 Pb ch=13 v=8832
105120 Off ch=13 n=55 v=80
105120 Pb ch=13 v=8192
105120 On ch=12 n=56 v=86
106560 Off ch=12 n=56 v=80
106560 On ch=13 n=56 v=95
107040 Pb ch=13 v=7552
107200 Pb ch=13 v=6784
107360 Pb ch=13 v=6144
107520 Off ch=13 n=56 v=80
107520 Pb ch=13 v=8192
107520 On ch=12 n=53 v=95
108480 Off ch=12 n=53 v=80
108480 On ch=13 n=55 v=95
108864 Pb ch=13 v=8832
108960 Off ch=13 n=55 v=80
108960 Pb ch=13 v=8192
108960 On ch=12 n=56 v=86
110400 Off ch=12 n=56 v=80
110400 On ch=13 n=60 v=95
110640 Pb ch=13 v=7552
110880 Off ch=13 n=60 v=80
110880 Pb ch=13 v=8192
110880 On ch=12 n=58 v=86
112320 Off ch=12 n=58 v=80
112320 On ch=13 n=55 v=95
112704 Pb ch=13 v=8832
112800 Off ch=13 n=55 v=80
112800 Pb ch=13 v=8192
112800 On ch=12 n=56 v=86
115200 Off ch=12 n=56 v=80
115680 On ch=12 n=53 v=95
116160 Off ch=12 n=53 v=80
116160 On ch=12 n=53 v=95
116640 Off ch=12 n=53 v=80
116640 On ch=12 n=55 v=95
117120 Off ch=12 n=55 v=80
117120 On ch=12 n=56 v=95
117600 Off ch=12 n=56 v=80
117600 On ch=12 n=63 v=95
118080 Off ch=12 n=63 v=80
118080 On ch=12 n=60 v=95
118560 Off ch=12 n=60 v=80
119040 On ch=12 n=58 v=95
119520 Off ch=12 n=58 v=80
119520 On ch=12 n=56 v=95
120000 Off ch=12 n=56 v=80
120000 On ch=12 n=58 v=95
120480 Off ch=12 n=58 v=80
120480 On ch=12 n=56 v=95
120960 Off ch=12 n=56 v=80
120960 On ch=12 n=58 v=95
121440 Off ch=12 n=58 v=80
121440 On ch=12 n=60 v=95
121920 Off ch=12 n=60 v=80
121920 On ch=12 n=58 v=95
122400 Off ch=12 n=58 v=80
122400 On ch=12 n=56 v=95
122880 Off ch=12 n=56 v=80
122880 On ch=12 n=53 v=95
123360 Off ch=12 n=53 v=80
123840 On ch=12 n=53 v=95
124320 Off ch=12 n=53 v=80
124320 On ch=12 n=55 v=95
124800 Off ch=12 n=55 v=80
124800 On ch=12 n=56 v=95
125280 Off ch=12 n=56 v=80
125280 On ch=12 n=63 v=95
125760 Off ch=12 n=63 v=80
125760 On ch=12 n=60 v=95
126240 Off ch=12 n=60 v=80
126720 On ch=12 n=58 v=95
127200 Off ch=12 n=58 v=80
127200 On ch=12 n=56 v=95
127680 Off ch=12 n=56 v=80
127680 On ch=12 n=58 v=95
128160 Off ch=12 n=58 v=80
128160 On ch=12 n=56 v=95
128640 Off ch=12 n=56 v=80
128640 On ch=12 n=58 v=95
129120 Off ch=12 n=58 v=80
129120 On ch=12 n=60 v=95
129600 Off ch=12 n=60 v=80
129600 On ch=12 n=58 v=95
130080 Off ch=12 n=58 v=80
130080 On ch=12 n=56 v=95
130320 Off ch=12 n=56 v=80
130320 On ch=12 n=53 v=95
131040 Off ch=12 n=53 v=80
139200 On ch=12 n=53 v=95
139680 Off ch=12 n=53 v=80
139680 On ch=12 n=55 v=95
140160 Off ch=12 n=55 v=80
140160 On ch=12 n=56 v=95
140640 Off ch=12 n=56 v=80
140640 On ch=12 n=63 v=95
141120 Off ch=12 n=63 v=80
141120 On ch=12 n=60 v=95
141600 Off ch=12 n=60 v=80
142080 On ch=12 n=58 v=95
142560 Off ch=12 n=58 v=80
142560 On ch=12 n=56 v=95
143040 Off ch=12 n=56 v=80
143040 On ch=12 n=58 v=95
143520 Off ch=12 n=58 v=80
143520 On ch=12 n=56 v=95
144000 Off ch=12 n=56 v=80
144000 On ch=12 n=58 v=95
144480 Off ch=12 n=58 v=80
144480 On ch=12 n=60 v=95
144960 Off ch=12 n=60 v=80
144960 On ch=12 n=58 v=95
145440 Off ch=12 n=58 v=80
145440 On ch=12 n=56 v=95
145920 Off ch=12 n=56 v=80
145920 On ch=12 n=53 v=95
146400 Off ch=12 n=53 v=80
146880 On ch=12 n=53 v=95
147360 Off ch=12 n=53 v=80
147360 On ch=12 n=55 v=95
147840 Off ch=12 n=55 v=80
147840 On ch=12 n=56 v=95
148320 Off ch=12 n=56 v=80
148320 On ch=12 n=63 v=95
148800 Off ch=12 n=63 v=80
148800 On ch=12 n=60 v=95
149280 Off ch=12 n=60 v=80
149520 On ch=12 n=56 v=95
149760 Off ch=12 n=56 v=80
149760 On ch=12 n=58 v=95
150240 Off ch=12 n=58 v=80
150240 On ch=12 n=56 v=95
150720 Off ch=12 n=56 v=80
150720 On ch=12 n=58 v=95
151200 Off ch=12 n=58 v=80
151200 On ch=12 n=56 v=95
151440 Off ch=12 n=56 v=80
151440 On ch=12 n=58 v=95
151920 Off ch=12 n=58 v=80
151920 On ch=12 n=58 v=95
152160 Off ch=12 n=58 v=80
152160 On ch=12 n=60 v=95
152640 Off ch=12 n=60 v=80
152640 On ch=12 n=58 v=95
153120 Off ch=12 n=58 v=80
153120 On ch=12 n=56 v=95
153360 Off ch=12 n=56 v=80
153360 On ch=12 n=53 v=95
154080 Off ch=12 n=53 v=80
157920 On ch=12 n=60 v=95
158400 Off ch=12 n=60 v=80
158400 On ch=12 n=58 v=95
158880 Off ch=12 n=58 v=80
158880 On ch=12 n=56 v=95
159120 Off ch=12 n=56 v=80
159120 On ch=12 n=58 v=95
159600 Off ch=12 n=58 v=80
159600 On ch=12 n=58 v=95
159840 Off ch=12 n=58 v=80
159840 On ch=12 n=60 v=95
160320 Off ch=12 n=60 v=80
160320 On ch=12 n=58 v=95
160800 Off ch=12 n=58 v=80
160800 On ch=12 n=56 v=95
161280 Off ch=12 n=56 v=80
161280 On ch=12 n=53 v=95
163200 Off ch=12 n=53 v=80
165600 On ch=12 n=60 v=95
166080 Off ch=12 n=60 v=80
166080 On ch=12 n=58 v=95
166560 Off ch=12 n=58 v=80
166560 On ch=12 n=56 v=95
166800 Off ch=12 n=56 v=80
166800 On ch=12 n=58 v=95
167280 Off ch=12 n=58 v=80
167280 On ch=12 n=58 v=95
167520 Off ch=12 n=58 v=80
167520 On ch=12 n=60 v=95
168000 Off ch=12 n=60 v=80
168000 On ch=12 n=58 v=95
168480 Off ch=12 n=58 v=80
168480 On ch=12 n=56 v=95
169920 Off ch=12 n=56 v=80
169920 On ch=12 n=65 v=95
170400 Off ch=12 n=65 v=80
170400 On ch=12 n=63 v=95
171360 Off ch=12 n=63 v=80
171360 On ch=12 n=56 v=95
172320 Off ch=12 n=56 v=80
172320 On ch=12 n=58 v=95
173280 Off ch=12 n=58 v=80
173280 On ch=12 n=56 v=95
173760 Off ch=12 n=56 v=80
173760 On ch=12 n=58 v=95
174240 Off ch=12 n=58 v=80
174240 On ch=12 n=56 v=95
174480 Off ch=12 n=56 v=80
174480 On ch=12 n=58 v=95
174960 Off ch=12 n=58 v=80
174960 On ch=12 n=58 v=95
175200 Off ch=12 n=58 v=80
175200 On ch=12 n=60 v=95
175680 Off ch=12 n=60 v=80
175680 On ch=12 n=58 v=95
176160 Off ch=12 n=58 v=80
176160 On ch=12 n=53 v=95
176640 Off ch=12 n=53 v=80
177600 On ch=12 n=65 v=95
178080 Off ch=12 n=65 v=80
178080 On ch=12 n=63 v=95
179040 Off ch=12 n=63 v=80
179040 On ch=12 n=56 v=95
180000 Off ch=12 n=56 v=80
180000 On ch=12 n=58 v=95
180960 Off ch=12 n=58 v=80
180960 On ch=12 n=56 v=95
181440 Off ch=12 n=56 v=80
181440 On ch=12 n=58 v=95
181920 Off ch=12 n=58 v=80
181920 On ch=12 n=56 v=95
182160 Off ch=12 n=56 v=80
182160 On ch=12 n=58 v=95
182880 Off ch=12 n=58 v=80
182880 On ch=12 n=60 v=95
183360 Off ch=12 n=60 v=80
183360 On ch=12 n=58 v=95
183840 Off ch=12 n=58 v=80
183840 On ch=12 n=53 v=95
184320 Off ch=12 n=53 v=80
185280 On ch=12 n=65 v=95
185760 Off ch=12 n=65 v=80
185760 On ch=12 n=63 v=95
186720 Off ch=12 n=63 v=80
186720 On ch=12 n=56 v=95
187680 Off ch=12 n=56 v=80
187680 On ch=12 n=58 v=95
188640 Off ch=12 n=58 v=80
188640 On ch=12 n=56 v=95
189120 Off ch=12 n=56 v=80
189120 On ch=12 n=58 v=95
189600 Off ch=12 n=58 v=80
189600 On ch=12 n=56 v=95
189840 Off ch=12 n=56 v=80
189840 On ch=12 n=58 v=95
190560 Off ch=12 n=58 v=80
190560 On ch=12 n=60 v=95
191040 Off ch=12 n=60 v=80
191040 On ch=12 n=58 v=95
191520 Off ch=12 n=58 v=80
191520 On ch=12 n=53 v=95
192000 Off ch=12 n=53 v=80
192960 On ch=12 n=65 v=95
193440 Off ch=12 n=65 v=80
193440 On ch=12 n=63 v=95
194400 Off ch=12 n=63 v=80
194400 On ch=12 n=60 v=95
195360 Off ch=12 n=60 v=80
195360 On ch=13 n=63 v=95
195360 Pb ch=13 v=8192
195456 Pb ch=13 v=8320
195648 Pb ch=13 v=8448
195824 Pb ch=13 v=8576
195984 Pb ch=13 v=8704
196176 Pb ch=13 v=8832
196320 Off ch=13 n=63 v=80
196320 Pb ch=13 v=8192
196320 On ch=12 n=60 v=95
196800 Off ch=12 n=60 v=80
196800 On ch=12 n=60 v=95
197760 Off ch=12 n=60 v=80
200640 On ch=13 n=55 v=95
201024 Pb ch=13 v=8832
201120 Off ch=13 n=55 v=80
201120 Pb ch=13 v=8192
201120 On ch=12 n=56 v=86
202560 Off ch=12 n=56 v=80
202560 On ch=13 n=60 v=95
202800 Pb ch=13 v=7552
203040 Off ch=13 n=60 v=80
203040 Pb ch=13 v=8192
203040 On ch=12 n=58 v=86
204480 Off ch=12 n=58 v=80
204480 On ch=13 n=55 v=95
204864 Pb ch=13 v=8832
204960 Off ch=13 n=55 v=80
204960 Pb ch=13 v=8192
204960 On ch=12 n=56 v=86
206400 Off ch=12 n=56 v=80
206400 On ch=13 n=56 v=95
206880 Pb ch=13 v=7552
207040 Pb ch=13 v=6784
207200 Pb ch=13 v=6144
207360 Off ch=13 n=56 v=80
207360 Pb ch=13 v=8192
207360 On ch=12 n=53 v=95
208320 Off ch=12 n=53 v=80
208320 On ch=13 n=55 v=95
208704 Pb ch=13 v=8832
208800 Off ch=13 n=55 v=80
208800 Pb ch=13 v=8192
208800 On ch=12 n=56 v=86
210240 Off ch=12 n=56 v=80
210240 On ch=13 n=60 v=95
210480 Pb ch=13 v=7552
210720 Off ch=13 n=60 v=80
210720 Pb ch=13 v=8192
210720 On ch=12 n=58 v=86
211680 Off ch=12 n=58 v=80
211680 On ch=12 n=56 v=95
212160 Off ch=12 n=56 v=80
212160 On ch=12 n=58 v=95
212640 Off ch=12 n=58 v=80
212640 On ch=12 n=56 v=95
212880 Off ch=12 n=56 v=80
212880 On ch=12 n=58 v=95
213360 Off ch=12 n=58 v=80
213360 On ch=12 n=58 v=95
213600 Off ch=12 n=58 v=80
213600 On ch=12 n=60 v=95
214080 Off ch=12 n=60 v=80
214080 On ch=12 n=58 v=95
214560 Off ch=12 n=58 v=80
214560 On ch=12 n=53 v=95
215040 Off ch=12 n=53 v=80
250080 On ch=12 n=53 v=95
250560 Off ch=12 n=53 v=80
250560 On ch=12 n=53 v=95
251040 Off ch=12 n=53 v=80
251040 On ch=12 n=55 v=95
251520 Off ch=12 n=55 v=80
251520 On ch=12 n=56 v=95
252000 Off ch=12 n=56 v=80
252000 On ch=12 n=63 v=95
252480 Off ch=12 n=63 v=80
252480 On ch=12 n=60 v=95
252960 Off ch=12 n=60 v=80
253440 On ch=12 n=58 v=95
253920 Off ch=12 n=58 v=80
253920 On ch=12 n=56 v=95
254400 Off ch=12 n=56 v=80
254400 On ch=12 n=58 v=95
254880 Off ch=12 n=58 v=80
254880 On ch=12 n=56 v=95
255360 Off ch=12 n=56 v=80
255360 On ch=12 n=58 v=95
255840 Off ch=12 n=58 v=80
255840 On ch=12 n=60 v=95
256320 Off ch=12 n=60 v=80
256320 On ch=12 n=58 v=95
256800 Off ch=12 n=58 v=80
256800 On ch=12 n=56 v=95
257040 Off ch=12 n=56 v=80
257040 On ch=12 n=53 v=95
257760 Off ch=12 n=53 v=80
258240 On ch=12 n=53 v=95
258720 Off ch=12 n=53 v=80
258720 On ch=12 n=55 v=95
259200 Off ch=12 n=55 v=80
259200 On ch=12 n=56 v=95
259680 Off ch=12 n=56 v=80
259680 On ch=12 n=63 v=95
260160 Off ch=12 n=63 v=80
260160 On ch=12 n=60 v=95
260640 Off ch=12 n=60 v=80
260880 On ch=12 n=56 v=95
261120 Off ch=12 n=56 v=80
261120 On ch=12 n=58 v=95
261600 Off ch=12 n=58 v=80
261600 On ch=12 n=56 v=95
262080 Off ch=12 n=56 v=80
262080 On ch=12 n=58 v=95
262560 Off ch=12 n=58 v=80
262560 On ch=12 n=56 v=95
262800 Off ch=12 n=56 v=80
262800 On ch=12 n=58 v=95
263280 Off ch=12 n=58 v=80
263280 On ch=12 n=58 v=95
263520 Off ch=12 n=58 v=80
263520 On ch=12 n=60 v=95
264000 Off ch=12 n=60 v=80
264000 On ch=12 n=58 v=95
264480 Off ch=12 n=58 v=80
264480 On ch=12 n=56 v=95
265920 Off ch=12 n=56 v=80
265920 On ch=12 n=65 v=95
266400 Off ch=12 n=65 v=80
266400 On ch=12 n=63 v=95
267360 Off ch=12 n=63 v=80
267360 On ch=12 n=56 v=95
268320 Off ch=12 n=56 v=80
268320 On ch=12 n=58 v=95
269280 Off ch=12 n=58 v=80
269280 On ch=12 n=56 v=95
269760 Off ch=12 n=56 v=80
269760 On ch=12 n=58 v=95
270240 Off ch=12 n=58 v=80
270240 On ch=12 n=56 v=95
270480 Off ch=12 n=56 v=80
270480 On ch=12 n=58 v=95
270960 Off ch=12 n=58 v=80
270960 On ch=12 n=58 v=95
271200 Off ch=12 n=58 v=80
271200 On ch=12 n=60 v=95
271680 Off ch=12 n=60 v=80
271680 On ch=12 n=58 v=95
272160 Off ch=12 n=58 v=80
272160 On ch=12 n=53 v=95
272640 Off ch=12 n=53 v=80
273600 On ch=12 n=65 v=95
274080 Off ch=12 n=65 v=80
274080 On ch=12 n=63 v=95
275040 Off ch=12 n=63 v=80
275040 On ch=12 n=56 v=95
276000 Off ch=12 n=56 v=80
276000 On ch=12 n=58 v=95
276960 Off ch=12 n=58 v=80
276960 On ch=12 n=56 v=95
277440 Off ch=12 n=56 v=80
277440 On ch=12 n=58 v=95
277920 Off ch=12 n=58 v=80
277920 On ch=12 n=56 v=95
278160 Off ch=12 n=56 v=80
278160 On ch=12 n=58 v=95
278880 Off ch=12 n=58 v=80
278880 On ch=12 n=60 v=95
279360 Off ch=12 n=60 v=80
279360 On ch=12 n=58 v=95
279840 Off ch=12 n=58 v=80
279840 On ch=12 n=53 v=95
280320 Off ch=12 n=53 v=80
281280 On ch=12 n=65 v=95
281760 Off ch=12 n=65 v=80
281760 On ch=12 n=63 v=95
282720 Off ch=12 n=63 v=80
282720 On ch=12 n=56 v=95
283680 Off ch=12 n=56 v=80
283680 On ch=12 n=58 v=95
284640 Off ch=12 n=58 v=80
284640 On ch=12 n=56 v=95
285120 Off ch=12 n=56 v=80
285120 On ch=12 n=58 v=95
285600 Off ch=12 n=58 v=80
285600 On ch=12 n=56 v=95
285840 Off ch=12 n=56 v=80
285840 On ch=12 n=58 v=95
286560 Off ch=12 n=58 v=80
286560 On ch=12 n=60 v=95
287040 Off ch=12 n=60 v=80
287040 On ch=12 n=58 v=95
287520 Off ch=12 n=58 v=80
287520 On ch=12 n=53 v=95
288000 Off ch=12 n=53 v=80
288960 On ch=12 n=65 v=95
289440 Off ch=12 n=65 v=80
289440 On ch=12 n=63 v=95
290400 Off ch=12 n=63 v=80
290400 On ch=12 n=60 v=95
291360 Off ch=12 n=60 v=80
291360 On ch=13 n=63 v=95
291360 Pb ch=13 v=8192
291456 Pb ch=13 v=8320
291648 Pb ch=13 v=8448
291824 Pb ch=13 v=8576
291984 Pb ch=13 v=8704
292176 Pb ch=13 v=8832
292320 Off ch=13 n=63 v=80
292320 Pb ch=13 v=8192
292320 On ch=12 n=60 v=95
292800 Off ch=12 n=60 v=80
292800 On ch=12 n=60 v=95
293760 Off ch=12 n=60 v=80
293760 Meta TrkEnd
TrkEnd
MTrk
0 Meta TrkName "Billie Joe Armstrong (Guitar 1)"
0 Par ch=1 c=100 v=0
0 Par ch=1 c=101 v=0
0 Par ch=1 c=6 v=12
0 Pb ch=1 v=8192
0 Par ch=2 c=100 v=0
0 Par ch=2 c=101 v=0
0 Par ch=2 c=6 v=12
0 Pb ch=2 v=8192
0 PrCh ch=1 p=29
0 PrCh ch=2 p=29
0 Par ch=1 c=7 v=96
0 Par ch=2 c=7 v=96
0 Par ch=1 c=10 v=64
0 Par ch=2 c=10 v=64
0 Par ch=1 c=93 v=0
0 Par ch=2 c=93 v=0
0 Par ch=1 c=91 v=0
0 Par ch=2 c=91 v=0
0 Par ch=1 c=92 v=0
0 Par ch=2 c=92 v=0
0 Par ch=1 c=95 v=0
0 Par ch=2 c=95 v=0
0 On ch=1 n=53 v=57
0 On ch=1 n=48 v=57
0 On ch=1 n=41 v=57
120 Off ch=1 n=53 v=80
120 Off ch=1 n=48 v=80
120 Off ch=1 n=41 v=80
240 On ch=1 n=53 v=57
240 On ch=1 n=48 v=57
240 On ch=1 n=41 v=57
360 Off ch=1 n=53 v=80
360 Off ch=1 n=48 v=80
360 Off ch=1 n=41 v=80
480 On ch=1 n=53 v=57
480 On ch=1 n=48 v=57
480 On ch=1 n=41 v=57
600 Off ch=1 n=53 v=80
600 Off ch=1 n=48 v=80
600 Off ch=1 n=41 v=80
720 On ch=1 n=53 v=57
720 On ch=1 n=48 v=57
720 On ch=1 n=41 v=57
840 Off ch=1 n=53 v=80
840 Off ch=1 n=48 v=80
840 Off ch=1 n=41 v=80
960 On ch=1 n=53 v=57
960 On ch=1 n=48 v=57
960 On ch=1 n=41 v=57
1080 Off ch=1 n=53 v=80
1080 Off ch=1 n=48 v=80
1080 Off ch=1 n=41 v=80
1200 On ch=1 n=53 v=57
1200 On ch=1 n=48 v=57
1200 On ch=1 n=41 v=57
1320 Off ch=1 n=53 v=80
1320 Off ch=1 n=48 v=80
1320 Off ch=1 n=41 v=80
1440 On ch=1 n=53 v=57
1440 On ch=1 n=48 v=57
1440 On ch=1 n=41 v=57
1560 Off ch=1 n=53 v=80
1560 Off ch=1 n=48 v=80
1560 Off ch=1 n=41 v=80
1680 On ch=1 n=53 v=57
1680 On ch=1 n=48 v=57
1680 On ch=1 n=41 v=57
1800 Off ch=1 n=53 v=80
1800 Off ch=1 n=48 v=80
1800 Off ch=1 n=41 v=80
1920 On ch=1 n=56 v=57
1920 On ch=1 n=51 v=57
1920 On ch=1 n=44 v=57
2040 Off ch=1 n=56 v=80
2040 Off ch=1 n=51 v=80
2040 Off ch=1 n=44 v=80
2160 On ch=1 n=56 v=57
2160 On ch=1 n=51 v=57
2160 On ch=1 n=44 v=57
2280 Off ch=1 n=56 v=80
2280 Off ch=1 n=51 v=80
2280 Off ch=1 n=44 v=80
2400 On ch=1 n=56 v=57
2400 On ch=1 n=51 v=57
2400 On ch=1 n=44 v=57
2520 Off ch=1 n=56 v=80
2520 Off ch=1 n=51 v=80
2520 Off ch=1 n=44 v=80
2640 On ch=1 n=56 v=57
2640 On ch=1 n=51 v=57
2640 On ch=1 n=44 v=57
2760 Off ch=1 n=56 v=80
2760 Off ch=1 n=51 v=80
2760 Off ch=1 n=44 v=80
2880 On ch=1 n=56 v=57
2880 On ch=1 n=51 v=57
2880 On ch=1 n=44 v=57
3000 Off ch=1 n=56 v=80
3000 Off ch=1 n=51 v=80
3000 Off ch=1 n=44 v=80
3120 On ch=1 n=56 v=57
3120 On ch=1 n=51 v=57
3120 On ch=1 n=44 v=57
3240 Off ch=1 n=56 v=80
3240 Off ch=1 n=51 v=80
3240 Off ch=1 n=44 v=80
3360 On ch=1 n=56 v=57
3360 On ch=1 n=51 v=57
3360 On ch=1 n=44 v=57
3480 Off ch=1 n=56 v=80
3480 Off ch=1 n=51 v=80
3480 Off ch=1 n=44 v=80
3600 On ch=1 n=56 v=57
3600 On ch=1 n=51 v=57
3600 On ch=1 n=44 v=57
3720 Off ch=1 n=56 v=80
3720 Off ch=1 n=51 v=80
3720 Off ch=1 n=44 v=80
3840 On ch=1 n=63 v=57
3840 On ch=1 n=58 v=57
3840 On ch=1 n=51 v=57
3960 Off ch=1 n=63 v=80
3960 Off ch=1 n=58 v=80
3960 Off ch=1 n=51 v=80
4080 On ch=1 n=63 v=57
4080 On ch=1 n=58 v=57
4080 On ch=1 n=51 v=57
4200 Off ch=1 n=63 v=80
4200 Off ch=1 n=58 v=80
4200 Off ch=1 n=51 v=80
4320 On ch=1 n=63 v=57
4320 On ch=1 n=58 v=57
4320 On ch=1 n=51 v=57
4440 Off ch=1 n=63 v=80
4440 Off ch=1 n=58 v=80
4440 Off ch=1 n=51 v=80
4560 On ch=1 n=63 v=57
4560 On ch=1 n=58 v=57
4560 On ch=1 n=51 v=57
4680 Off ch=1 n=63 v=80
4680 Off ch=1 n=58 v=80
4680 Off ch=1 n=51 v=80
4800 On ch=1 n=63 v=57
4800 On ch=1 n=58 v=57
4800 On ch=1 n=51 v=57
4920 Off ch=1 n=63 v=80
4920 Off ch=1 n=58 v=80
4920 Off ch=1 n=51 v=80
5040 On ch=1 n=63 v=57
5040 On ch=1 n=58 v=57
5040 On ch=1 n=51 v=57
5160 Off ch=1 n=63 v=80
5160 Off ch=1 n=58 v=80
5160 Off ch=1 n=51 v=80
5280 On ch=1 n=63 v=57
5280 On ch=1 n=58 v=57
5280 On ch=1 n=51 v=57
5400 Off ch=1 n=63 v=80
5400 Off ch=1 n=58 v=80
5400 Off ch=1 n=51 v=80
5520 On ch=1 n=63 v=57
5520 On ch=1 n=58 v=57
5520 On ch=1 n=51 v=57
5640 Off ch=1 n=63 v=80
5640 Off ch=1 n=58 v=80
5640 Off ch=1 n=51 v=80
5760 On ch=1 n=58 v=57
5760 On ch=1 n=53 v=57
5760 On ch=1 n=46 v=57
5880 Off ch=1 n=58 v=80
5880 Off ch=1 n=53 v=80
5880 Off ch=1 n=46 v=80
6000 On ch=1 n=58 v=57
6000 On ch=1 n=53 v=57
6000 On ch=1 n=46 v=57
6120 Off ch=1 n=58 v=80
6120 Off ch=1 n=53 v=80
6120 Off ch=1 n=46 v=80
6240 On ch=1 n=58 v=57
6240 On ch=1 n=53 v=57
6240 On ch=1 n=46 v=57
6360 Off ch=1 n=58 v=80
6360 Off ch=1 n=53 v=80
6360 Off ch=1 n=46 v=80
6480 On ch=1 n=58 v=57
6480 On ch=1 n=53 v=57
6480 On ch=1 n=46 v=57
6600 Off ch=1 n=58 v=80
6600 Off ch=1 n=53 v=80
6600 Off ch=1 n=46 v=80
6720 On ch=1 n=58 v=57
6720 On ch=1 n=53 v=57
6720 On ch=1 n=46 v=57
6840 Off ch=1 n=58 v=80
6840 Off ch=1 n=53 v=80
6840 Off ch=1 n=46 v=80
6960 On ch=1 n=58 v=57
6960 On ch=1 n=53 v=57
6960 On ch=1 n=46 v=57
7080 Off ch=1 n=58 v=80
7080 Off ch=1 n=53 v=80
7080 Off ch=1 n=46 v=80
7200 On ch=1 n=58 v=57
7200 On ch=1 n=53 v=57
7200 On ch=1 n=46 v=57
7320 Off ch=1 n=58 v=80
7320 Off ch=1 n=53 v=80
7320 Off ch=1 n=46 v=80
7440 On ch=1 n=58 v=57
7440 On ch=1 n=53 v=57
7440 On ch=1 n=46 v=57
7560 Off ch=1 n=58 v=80
7560 Off ch=1 n=53 v=80
7560 Off ch=1 n=46 v=80
7680 On ch=1 n=53 v=57
7680 On ch=1 n=48 v=57
7680 On ch=1 n=41 v=57
7800 Off ch=1 n=53 v=80
7800 Off ch=1 n=48 v=80
7800 Off ch=1 n=41 v=80
7920 On ch=1 n=53 v=57
7920 On ch=1 n=48 v=57
7920 On ch=1 n=41 v=57
8040 Off ch=1 n=53 v=80
8040 Off ch=1 n=48 v=80
8040 Off ch=1 n=41 v=80
8160 On ch=1 n=53 v=57
8160 On ch=1 n=48 v=57
8160 On ch=1 n=41 v=57
8280 Off ch=1 n=53 v=80
8280 Off ch=1 n=48 v=80
8280 Off ch=1 n=41 v=80
8400 On ch=1 n=53 v=57
8400 On ch=1 n=48 v=57
8400 On ch=1 n=41 v=57
8520 Off ch=1 n=53 v=80
8520 Off ch=1 n=48 v=80
8520 Off ch=1 n=41 v=80
8640 On ch=1 n=53 v=57
8640 On ch=1 n=48 v=57
8640 On ch=1 n=41 v=57
8760 Off ch=1 n=53 v=80
8760 Off ch=1 n=48 v=80
8760 Off ch=1 n=41 v=80
8880 On ch=1 n=53 v=57
8880 On ch=1 n=48 v=57
8880 On ch=1 n=41 v=57
9000 Off ch=1 n=53 v=80
9000 Off ch=1 n=48 v=80
9000 Off ch=1 n=41 v=80
9120 On ch=1 n=53 v=57
9120 On ch=1 n=48 v=57
9120 On ch=1 n=41 v=57
9240 Off ch=1 n=53 v=80
9240 Off ch=1 n=48 v=80
9240 Off ch=1 n=41 v=80
9360 On ch=1 n=53 v=57
9360 On ch=1 n=48 v=57
9360 On ch=1 n=41 v=57
9480 Off ch=1 n=53 v=80
9480 Off ch=1 n=48 v=80
9480 Off ch=1 n=41 v=80
9600 On ch=1 n=56 v=57
9600 On ch=1 n=51 v=57
9600 On ch=1 n=44 v=57
9720 Off ch=1 n=56 v=80
9720 Off ch=1 n=51 v=80
9720 Off ch=1 n=44 v=80
9840 On ch=1 n=56 v=57
9840 On ch=1 n=51 v=57
9840 On ch=1 n=44 v=57
9960 Off ch=1 n=56 v=80
9960 Off ch=1 n=51 v=80
9960 Off ch=1 n=44 v=80
10080 On ch=1 n=56 v=57
10080 On ch=1 n=51 v=57
10080 On ch=1 n=44 v=57
10200 Off ch=1 n=56 v=80
10200 Off ch=1 n=51 v=80
10200 Off ch=1 n=44 v=80
10320 On ch=1 n=56 v=57
10320 On ch=1 n=51 v=57
10320 On ch=1 n=44 v=57
10440 Off ch=1 n=56 v=80
10440 Off ch=1 n=51 v=80
10440 Off ch=1 n=44 v=80
10560 On ch=1 n=56 v=57
10560 On ch=1 n=51 v=57
10560 On ch=1 n=44 v=57
10680 Off ch=1 n=56 v=80
10680 Off ch=1 n=51 v=80
10680 Off ch=1 n=44 v=80
10800 On ch=1 n=56 v=57
10800 On ch=1 n=51 v=57
10800 On ch=1 n=44 v=57
10920 Off ch=1 n=56 v=80
10920 Off ch=1 n=51 v=80
10920 Off ch=1 n=44 v=80
11040 On ch=1 n=56 v=57
11040 On ch=1 n=51 v=57
11040 On ch=1 n=44 v=57
11160 Off ch=1 n=56 v=80
11160 Off ch=1 n=51 v=80
11160 Off ch=1 n=44 v=80
11280 On ch=1 n=56 v=57
11280 On ch=1 n=51 v=57
11280 On ch=1 n=44 v=57
11400 Off ch=1 n=56 v=80
11400 Off ch=1 n=51 v=80
11400 Off ch=1 n=44 v=80
11520 On ch=1 n=63 v=57
11520 On ch=1 n=58 v=57
11520 On ch=1 n=51 v=57
11640 Off ch=1 n=63 v=80
11640 Off ch=1 n=58 v=80
11640 Off ch=1 n=51 v=80
11760 On ch=1 n=63 v=57
11760 On ch=1 n=58 v=57
11760 On ch=1 n=51 v=57
11880 Off ch=1 n=63 v=80
11880 Off ch=1 n=58 v=80
11880 Off ch=1 n=51 v=80
12000 On ch=1 n=63 v=57
12000 On ch=1 n=58 v=57
12000 On ch=1 n=51 v=57
12120 Off ch=1 n=63 v=80
12120 Off ch=1 n=58 v=80
12120 Off ch=1 n=51 v=80
12240 On ch=1 n=63 v=57
12240 On ch=1 n=58 v=57
12240 On ch=1 n=51 v=57
12360 Off ch=1 n=63 v=80
12360 Off ch=1 n=58 v=80
12360 Off ch=1 n=51 v=80
12480 On ch=1 n=63 v=57
12480 On ch=1 n=58 v=57
12480 On ch=1 n=51 v=57
12600 Off ch=1 n=63 v=80
12600 Off ch=1 n=58 v=80
12600 Off ch=1 n=51 v=80
12720 On ch=1 n=63 v=57
12720 On ch=1 n=58 v=57
12720 On ch=1 n=51 v=57
12840 Off ch=1 n=63 v=80
12840 Off ch=1 n=58 v=80
12840 Off ch=1 n=51 v=80
12960 On ch=1 n=63 v=57
12960 On ch=1 n=58 v=57
12960 On ch=1 n=51 v=57
13080 Off ch=1 n=63 v=80
13080 Off ch=1 n=58 v=80
13080 Off ch=1 n=51 v=80
13200 On ch=1 n=63 v=57
13200 On ch=1 n=58 v=57
13200 On ch=1 n=51 v=57
13320 Off ch=1 n=63 v=80
13320 Off ch=1 n=58 v=80
13320 Off ch=1 n=51 v=80
13440 On ch=1 n=58 v=57
13440 On ch=1 n=53 v=57
13440 On ch=1 n=46 v=57
13560 Off ch=1 n=58 v=80
13560 Off ch=1 n=53 v=80
13560 Off ch=1 n=46 v=80
13680 On ch=1 n=58 v=57
13680 On ch=1 n=53 v=57
13680 On ch=1 n=46 v=57
13800 Off ch=1 n=58 v=80
13800 Off ch=1 n=53 v=80
13800 Off ch=1 n=46 v=80
13920 On ch=1 n=58 v=57
13920 On ch=1 n=53 v=57
13920 On ch=1 n=46 v=57
14040 Off ch=1 n=58 v=80
14040 Off ch=1 n=53 v=80
14040 Off ch=1 n=46 v=80
14160 On ch=1 n=58 v=57
14160 On ch=1 n=53 v=57
14160 On ch=1 n=46 v=57
14280 Off ch=1 n=58 v=80
14280 Off ch=1 n=53 v=80
14280 Off ch=1 n=46 v=80
14400 On ch=1 n=58 v=57
14400 On ch=1 n=53 v=57
14400 On ch=1 n=46 v=57
14520 Off ch=1 n=58 v=80
14520 Off ch=1 n=53 v=80
14520 Off ch=1 n=46 v=80
14640 On ch=1 n=58 v=57
14640 On ch=1 n=53 v=57
14640 On ch=1 n=46 v=57
14760 Off ch=1 n=58 v=80
14760 Off ch=1 n=53 v=80
14760 Off ch=1 n=46 v=80
14880 On ch=1 n=58 v=57
14880 On ch=1 n=53 v=57
14880 On ch=1 n=46 v=57
15000 Off ch=1 n=58 v=80
15000 Off ch=1 n=53 v=80
15000 Off ch=1 n=46 v=80
15120 On ch=1 n=58 v=57
15120 On ch=1 n=53 v=57
15120 On ch=1 n=46 v=57
15240 Off ch=1 n=58 v=80
15240 Off ch=1 n=53 v=80
15240 Off ch=1 n=46 v=80
15360 On ch=1 n=53 v=57
15360 On ch=1 n=48 v=57
15360 On ch=1 n=41 v=57
15480 Off ch=1 n=53 v=80
15480 Off ch=1 n=48 v=80
15480 Off ch=1 n=41 v=80
15600 On ch=1 n=53 v=57
15600 On ch=1 n=48 v=57
15600 On ch=1 n=41 v=57
15720 Off ch=1 n=53 v=80
15720 Off ch=1 n=48 v=80
15720 Off ch=1 n=41 v=80
15840 On ch=1 n=53 v=57
15840 On ch=1 n=48 v=57
15840 On ch=1 n=41 v=57
15960 Off ch=1 n=53 v=80
15960 Off ch=1 n=48 v=80
15960 Off ch=1 n=41 v=80
16080 On ch=1 n=53 v=57
16080 On ch=1 n=48 v=57
16080 On ch=1 n=41 v=57
16200 Off ch=1 n=53 v=80
16200 Off ch=1 n=48 v=80
16200 Off ch=1 n=41 v=80
16320 On ch=1 n=53 v=57
16320 On ch=1 n=48 v=57
16320 On ch=1 n=41 v=57
16440 Off ch=1 n=53 v=80
16440 Off ch=1 n=48 v=80
16440 Off ch=1 n=41 v=80
16560 On ch=1 n=53 v=57
16560 On ch=1 n=48 v=57
16560 On ch=1 n=41 v=57
16680 Off ch=1 n=53 v=80
16680 Off ch=1 n=48 v=80
16680 Off ch=1 n=41 v=80
16800 On ch=1 n=53 v=57
16800 On ch=1 n=48 v=57
16800 On ch=1 n=41 v=57
16920 Off ch=1 n=53 v=80
16920 Off ch=1 n=48 v=80
16920 Off ch=1 n=41 v=80
17040 On ch=1 n=53 v=57
17040 On ch=1 n=48 v=57
17040 On ch=1 n=41 v=57
17160 Off ch=1 n=53 v=80
17160 Off ch=1 n=48 v=80
17160 Off ch=1 n=41 v=80
17280 On ch=1 n=56 v=57
17280 On ch=1 n=51 v=57
17280 On ch=1 n=44 v=57
17400 Off ch=1 n=56 v=80
17400 Off ch=1 n=51 v=80
17400 Off ch=1 n=44 v=80
17520 On ch=1 n=56 v=57
17520 On ch=1 n=51 v=57
17520 On ch=1 n=44 v=57
17640 Off ch=1 n=56 v=80
17640 Off ch=1 n=51 v=80
17640 Off ch=1 n=44 v=80
17760 On ch=1 n=56 v=57
17760 On ch=1 n=51 v=57
17760 On ch=1 n=44 v=57
17880 Off ch=1 n=56 v=80
17880 Off ch=1 n=51 v=80
17880 Off ch=1 n=44 v=80
18000 On ch=1 n=56 v=57
18000 On ch=1 n=51 v=57
18000 On ch=1 n=44 v=57
18120 Off ch=1 n=56 v=80
18120 Off ch=1 n=51 v=80
18120 Off ch=1 n=44 v=80
18240 On ch=1 n=56 v=57
18240 On ch=1 n=51 v=57
18240 On ch=1 n=44 v=57
18360 Off ch=1 n=56 v=80
18360 Off ch=1 n=51 v=80
18360 Off ch=1 n=44 v=80
18480 On ch=1 n=56 v=57
18480 On ch=1 n=51 v=57
18480 On ch=1 n=44 v=57
18600 Off ch=1 n=56 v=80
18600 Off ch=1 n=51 v=80
18600 Off ch=1 n=44 v=80
18720 On ch=1 n=56 v=57
18720 On ch=1 n=51 v=57
18720 On ch=1 n=44 v=57
18840 Off ch=1 n=56 v=80
18840 Off ch=1 n=51 v=80
18840 Off ch=1 n=44 v=80
18960 On ch=1 n=56 v=57
18960 On ch=1 n=51 v=57
18960 On ch=1 n=44 v=57
19080 Off ch=1 n=56 v=80
19080 Off ch=1 n=51 v=80
19080 Off ch=1 n=44 v=80
19200 On ch=1 n=63 v=57
19200 On ch=1 n=58 v=57
19200 On ch=1 n=51 v=57
19320 Off ch=1 n=63 v=80
19320 Off ch=1 n=58 v=80
19320 Off ch=1 n=51 v=80
19440 On ch=1 n=63 v=57
19440 On ch=1 n=58 v=57
19440 On ch=1 n=51 v=57
19560 Off ch=1 n=63 v=80
19560 Off ch=1 n=58 v=80
19560 Off ch=1 n=51 v=80
19680 On ch=1 n=63 v=57
19680 On ch=1 n=58 v=57
19680 On ch=1 n=51 v=57
19800 Off ch=1 n=63 v=80
19800 Off ch=1 n=58 v=80
19800 Off ch=1 n=51 v=80
19920 On ch=1 n=63 v=57
19920 On ch=1 n=58 v=57
19920 On ch=1 n=51 v=57
20040 Off ch=1 n=63 v=80
20040 Off ch=1 n=58 v=80
20040 Off ch=1 n=51 v=80
20160 On ch=1 n=63 v=57
20160 On ch=1 n=58 v=57
20160 On ch=1 n=51 v=57
20280 Off ch=1 n=63 v=80
20280 Off ch=1 n=58 v=80
20280 Off ch=1 n=51 v=80
20400 On ch=1 n=63 v=57
20400 On ch=1 n=58 v=57
20400 On ch=1 n=51 v=57
20520 Off ch=1 n=63 v=80
20520 Off ch=1 n=58 v=80
20520 Off ch=1 n=51 v=80
20640 On ch=1 n=63 v=57
20640 On ch=1 n=58 v=57
20640 On ch=1 n=51 v=57
20760 Off ch=1 n=63 v=80
20760 Off ch=1 n=58 v=80
20760 Off ch=1 n=51 v=80
20880 On ch=1 n=63 v=57
20880 On ch=1 n=58 v=57
20880 On ch=1 n=51 v=57
21000 Off ch=1 n=63 v=80
21000 Off ch=1 n=58 v=80
21000 Off ch=1 n=51 v=80
21120 On ch=1 n=58 v=57
21120 On ch=1 n=53 v=57
21120 On ch=1 n=46 v=57
21240 Off ch=1 n=58 v=80
21240 Off ch=1 n=53 v=80
21240 Off ch=1 n=46 v=80
21360 On ch=1 n=58 v=57
21360 On ch=1 n=53 v=57
21360 On ch=1 n=46 v=57
21480 Off ch=1 n=58 v=80
21480 Off ch=1 n=53 v=80
21480 Off ch=1 n=46 v=80
21600 On ch=1 n=58 v=57
21600 On ch=1 n=53 v=57
21600 On ch=1 n=46 v=57
21720 Off ch=1 n=58 v=80
21720 Off ch=1 n=53 v=80
21720 Off ch=1 n=46 v=80
21840 On ch=1 n=58 v=57
21840 On ch=1 n=53 v=57
21840 On ch=1 n=46 v=57
21960 Off ch=1 n=58 v=80
21960 Off ch=1 n=53 v=80
21960 Off ch=1 n=46 v=80
22080 On ch=1 n=58 v=57
22080 On ch=1 n=53 v=57
22080 On ch=1 n=46 v=57
22200 Off ch=1 n=58 v=80
22200 Off ch=1 n=53 v=80
22200 Off ch=1 n=46 v=80
22320 On ch=1 n=58 v=57
22320 On ch=1 n=53 v=57
22320 On ch=1 n=46 v=57
22440 Off ch=1 n=58 v=80
22440 Off ch=1 n=53 v=80
22440 Off ch=1 n=46 v=80
22560 On ch=1 n=58 v=57
22560 On ch=1 n=53 v=57
22560 On ch=1 n=46 v=57
22680 Off ch=1 n=58 v=80
22680 Off ch=1 n=53 v=80
22680 Off ch=1 n=46 v=80
22800 On ch=1 n=58 v=57
22800 On ch=1 n=53 v=57
22800 On ch=1 n=46 v=57
22920 Off ch=1 n=58 v=80
22920 Off ch=1 n=53 v=80
22920 Off ch=1 n=46 v=80
23040 On ch=1 n=53 v=57
23040 On ch=1 n=48 v=57
23040 On ch=1 n=41 v=57
23160 Off ch=1 n=53 v=80
23160 Off ch=1 n=48 v=80
23160 Off ch=1 n=41 v=80
23280 On ch=1 n=53 v=57
23280 On ch=1 n=48 v=57
23280 On ch=1 n=41 v=57
23400 Off ch=1 n=53 v=80
23400 Off ch=1 n=48 v=80
23400 Off ch=1 n=41 v=80
23520 On ch=1 n=53 v=57
23520 On ch=1 n=48 v=57
23520 On ch=1 n=41 v=57
23640 Off ch=1 n=53 v=80
23640 Off ch=1 n=48 v=80
23640 Off ch=1 n=41 v=80
23760 On ch=1 n=53 v=57
23760 On ch=1 n=48 v=57
23760 On ch=1 n=41 v=57
23880 Off ch=1 n=53 v=80
23880 Off ch=1 n=48 v=80
23880 Off ch=1 n=41 v=80
24000 On ch=1 n=53 v=57
24000 On ch=1 n=48 v=57
24000 On ch=1 n=41 v=57
24120 Off ch=1 n=53 v=80
24120 Off ch=1 n=48 v=80
24120 Off ch=1 n=41 v=80
24240 On ch=1 n=53 v=57
24240 On ch=1 n=48 v=57
24240 On ch=1 n=41 v=57
24360 Off ch=1 n=53 v=80
24360 Off ch=1 n=48 v=80
24360 Off ch=1 n=41 v=80
24480 On ch=1 n=53 v=57
24480 On ch=1 n=48 v=57
24480 On ch=1 n=41 v=57
24600 Off ch=1 n=53 v=80
24600 Off ch=1 n=48 v=80
24600 Off ch=1 n=41 v=80
24720 On ch=1 n=53 v=57
24720 On ch=1 n=48 v=57
24720 On ch=1 n=41 v=57
24840 Off ch=1 n=53 v=80
24840 Off ch=1 n=48 v=80
24840 Off ch=1 n=41 v=80
24960 On ch=1 n=56 v=57
24960 On ch=1 n=51 v=57
24960 On ch=1 n=44 v=57
25080 Off ch=1 n=56 v=80
25080 Off ch=1 n=51 v=80
25080 Off ch=1 n=44 v=80
25200 On ch=1 n=56 v=57
25200 On ch=1 n=51 v=57
25200 On ch=1 n=44 v=57
25320 Off ch=1 n=56 v=80
25320 Off ch=1 n=51 v=80
25320 Off ch=1 n=44 v=80
25440 On ch=1 n=56 v=57
25440 On ch=1 n=51 v=57
25440 On ch=1 n=44 v=57
25560 Off ch=1 n=56 v=80
25560 Off ch=1 n=51 v=80
25560 Off ch=1 n=44 v=80
25680 On ch=1 n=56 v=57
25680 On ch=1 n=51 v=57
25680 On ch=1 n=44 v=57
25800 Off ch=1 n=56 v=80
25800 Off ch=1 n=51 v=80
25800 Off ch=1 n=44 v=80
25920 On ch=1 n=56 v=57
25920 On ch=1 n=51 v=57
25920 On ch=1 n=44 v=57
26040 Off ch=1 n=56 v=80
26040 Off ch=1 n=51 v=80
26040 Off ch=1 n=44 v=80
26160 On ch=1 n=56 v=57
26160 On ch=1 n=51 v=57
26160 On ch=1 n=44 v=57
26280 Off ch=1 n=56 v=80
26280 Off ch=1 n=51 v=80
26280 Off ch=1 n=44 v=80
26400 On ch=1 n=56 v=57
26400 On ch=1 n=51 v=57
26400 On ch=1 n=44 v=57
26520 Off ch=1 n=56 v=80
26520 Off ch=1 n=51 v=80
26520 Off ch=1 n=44 v=80
26640 On ch=1 n=56 v=57
26640 On ch=1 n=51 v=57
26640 On ch=1 n=44 v=57
26760 Off ch=1 n=56 v=80
26760 Off ch=1 n=51 v=80
26760 Off ch=1 n=44 v=80
26880 On ch=1 n=63 v=57
26880 On ch=1 n=58 v=57
26880 On ch=1 n=51 v=57
27000 Off ch=1 n=63 v=80
27000 Off ch=1 n=58 v=80
27000 Off ch=1 n=51 v=80
27120 On ch=1 n=63 v=57
27120 On ch=1 n=58 v=57
27120 On ch=1 n=51 v=57
27240 Off ch=1 n=63 v=80
27240 Off ch=1 n=58 v=80
27240 Off ch=1 n=51 v=80
27360 On ch=1 n=63 v=57
27360 On ch=1 n=58 v=57
27360 On ch=1 n=51 v=57
27480 Off ch=1 n=63 v=80
27480 Off ch=1 n=58 v=80
27480 Off ch=1 n=51 v=80
27600 On ch=1 n=63 v=57
27600 On ch=1 n=58 v=57
27600 On ch=1 n=51 v=57
27720 Off ch=1 n=63 v=80
27720 Off ch=1 n=58 v=80
27720 Off ch=1 n=51 v=80
27840 On ch=1 n=63 v=57
27840 On ch=1 n=58 v=57
27840 On ch=1 n=51 v=57
27960 Off ch=1 n=63 v=80
27960 Off ch=1 n=58 v=80
27960 Off ch=1 n=51 v=80
28080 On ch=1 n=63 v=57
28080 On ch=1 n=58 v=57
28080 On ch=1 n=51 v=57
28200 Off ch=1 n=63 v=80
28200 Off ch=1 n=58 v=80
28200 Off ch=1 n=51 v=80
28320 On ch=1 n=63 v=57
28320 On ch=1 n=58 v=57
28320 On ch=1 n=51 v=57
28440 Off ch=1 n=63 v=80
28440 Off ch=1 n=58 v=80
28440 Off ch=1 n=51 v=80
28560 On ch=1 n=63 v=57
28560 On ch=1 n=58 v=57
28560 On ch=1 n=51 v=57
28680 Off ch=1 n=63 v=80
28680 Off ch=1 n=58 v=80
28680 Off ch=1 n=51 v=80
28800 On ch=1 n=58 v=57
28800 On ch=1 n=53 v=57
28800 On ch=1 n=46 v=57
28920 Off ch=1 n=58 v=80
28920 Off ch=1 n=53 v=80
28920 Off ch=1 n=46 v=80
29040 On ch=1 n=58 v=57
29040 On ch=1 n=53 v=57
29040 On ch=1 n=46 v=57
29160 Off ch=1 n=58 v=80
29160 Off ch=1 n=53 v=80
29160 Off ch=1 n=46 v=80
29280 On ch=1 n=58 v=57
29280 On ch=1 n=53 v=57
29280 On ch=1 n=46 v=57
29400 Off ch=1 n=58 v=80
29400 Off ch=1 n=53 v=80
29400 Off ch=1 n=46 v=80
29520 On ch=1 n=58 v=57
29520 On ch=1 n=53 v=57
29520 On ch=1 n=46 v=57
29640 Off ch=1 n=58 v=80
29640 Off ch=1 n=53 v=80
29640 Off ch=1 n=46 v=80
29760 On ch=1 n=58 v=57
29760 On ch=1 n=53 v=57
29760 On ch=1 n=46 v=57
29880 Off ch=1 n=58 v=80
29880 Off ch=1 n=53 v=80
29880 Off ch=1 n=46 v=80
30000 On ch=1 n=58 v=57
30000 On ch=1 n=53 v=57
30000 On ch=1 n=46 v=57
30120 Off ch=1 n=58 v=80
30120 Off ch=1 n=53 v=80
30120 Off ch=1 n=46 v=80
30240 On ch=1 n=58 v=57
30240 On ch=1 n=53 v=57
30240 On ch=1 n=46 v=57
30360 Off ch=1 n=58 v=80
30360 Off ch=1 n=53 v=80
30360 Off ch=1 n=46 v=80
30480 On ch=1 n=58 v=57
30480 On ch=1 n=53 v=57
30480 On ch=1 n=46 v=57
30600 Off ch=1 n=58 v=80
30600 Off ch=1 n=53 v=80
30600 Off ch=1 n=46 v=80
30720 On ch=1 n=53 v=57
30720 On ch=1 n=48 v=57
30720 On ch=1 n=41 v=57
30840 Off ch=1 n=53 v=80
30840 Off ch=1 n=48 v=80
30840 Off ch=1 n=41 v=80
30960 On ch=1 n=53 v=57
30960 On ch=1 n=48 v=57
30960 On ch=1 n=41 v=57
31080 Off ch=1 n=53 v=80
31080 Off ch=1 n=48 v=80
31080 Off ch=1 n=41 v=80
31200 On ch=1 n=53 v=57
31200 On ch=1 n=48 v=57
31200 On ch=1 n=41 v=57
31320 Off ch=1 n=53 v=80
31320 Off ch=1 n=48 v=80
31320 Off ch=1 n=41 v=80
31440 On ch=1 n=53 v=57
31440 On ch=1 n=48 v=57
31440 On ch=1 n=41 v=57
31560 Off ch=1 n=53 v=80
31560 Off ch=1 n=48 v=80
31560 Off ch=1 n=41 v=80
31680 On ch=1 n=53 v=57
31680 On ch=1 n=48 v=57
31680 On ch=1 n=41 v=57
31800 Off ch=1 n=53 v=80
31800 Off ch=1 n=48 v=80
31800 Off ch=1 n=41 v=80
31920 On ch=1 n=53 v=57
31920 On ch=1 n=48 v=57
31920 On ch=1 n=41 v=57
32040 Off ch=1 n=53 v=80
32040 Off ch=1 n=48 v=80
32040 Off ch=1 n=41 v=80
32160 On ch=1 n=53 v=57
32160 On ch=1 n=48 v=57
32160 On ch=1 n=41 v=57
32280 Off ch=1 n=53 v=80
32280 Off ch=1 n=48 v=80
32280 Off ch=1 n=41 v=80
32400 On ch=1 n=53 v=57
32400 On ch=1 n=48 v=57
32400 On ch=1 n=41 v=57
32520 Off ch=1 n=53 v=80
32520 Off ch=1 n=48 v=80
32520 Off ch=1 n=41 v=80
32640 On ch=1 n=56 v=57
32640 On ch=1 n=51 v=57
32640 On ch=1 n=44 v=57
32760 Off ch=1 n=56 v=80
32760 Off ch=1 n=51 v=80
32760 Off ch=1 n=44 v=80
32880 On ch=1 n=56 v=57
32880 On ch=1 n=51 v=57
32880 On ch=1 n=44 v=57
33000 Off ch=1 n=56 v=80
33000 Off ch=1 n=51 v=80
33000 Off ch=1 n=44 v=80
33120 On ch=1 n=56 v=57
33120 On ch=1 n=51 v=57
33120 On ch=1 n=44 v=57
33240 Off ch=1 n=56 v=80
33240 Off ch=1 n=51 v=80
33240 Off ch=1 n=44 v=80
33360 On ch=1 n=56 v=57
33360 On ch=1 n=51 v=57
33360 On ch=1 n=44 v=57
33480 Off ch=1 n=56 v=80
33480 Off ch=1 n=51 v=80
33480 Off ch=1 n=44 v=80
33600 On ch=1 n=56 v=57
33600 On ch=1 n=51 v=57
33600 On ch=1 n=44 v=57
33720 Off ch=1 n=56 v=80
33720 Off ch=1 n=51 v=80
33720 Off ch=1 n=44 v=80
33840 On ch=1 n=56 v=57
33840 On ch=1 n=51 v=57
33840 On ch=1 n=44 v=57
33960 Off ch=1 n=56 v=80
33960 Off ch=1 n=51 v=80
33960 Off ch=1 n=44 v=80
34080 On ch=1 n=56 v=57
34080 On ch=1 n=51 v=57
34080 On ch=1 n=44 v=57
34200 Off ch=1 n=56 v=80
34200 Off ch=1 n=51 v=80
34200 Off ch=1 n=44 v=80
34320 On ch=1 n=56 v=57
34320 On ch=1 n=51 v=57
34320 On ch=1 n=44 v=57
34440 Off ch=1 n=56 v=80
34440 Off ch=1 n=51 v=80
34440 Off ch=1 n=44 v=80
34560 On ch=1 n=63 v=57
34560 On ch=1 n=58 v=57
34560 On ch=1 n=51 v=57
34680 Off ch=1 n=63 v=80
34680 Off ch=1 n=58 v=80
34680 Off ch=1 n=51 v=80
34800 On ch=1 n=63 v=57
34800 On ch=1 n=58 v=57
34800 On ch=1 n=51 v=57
34920 Off ch=1 n=63 v=80
34920 Off ch=1 n=58 v=80
34920 Off ch=1 n=51 v=80
35040 On ch=1 n=63 v=57
35040 On ch=1 n=58 v=57
35040 On ch=1 n=51 v=57
35160 Off ch=1 n=63 v=80
35160 Off ch=1 n=58 v=80
35160 Off ch=1 n=51 v=80
35280 On ch=1 n=63 v=57
35280 On ch=1 n=58 v=57
35280 On ch=1 n=51 v=57
35400 Off ch=1 n=63 v=80
35400 Off ch=1 n=58 v=80
35400 Off ch=1 n=51 v=80
35520 On ch=1 n=63 v=57
35520 On ch=1 n=58 v=57
35520 On ch=1 n=51 v=57
35640 Off ch=1 n=63 v=80
35640 Off ch=1 n=58 v=80
35640 Off ch=1 n=51 v=80
35760 On ch=1 n=63 v=57
35760 On ch=1 n=58 v=57
35760 On ch=1 n=51 v=57
35880 Off ch=1 n=63 v=80
35880 Off ch=1 n=58 v=80
35880 Off ch=1 n=51 v=80
36000 On ch=1 n=63 v=57
36000 On ch=1 n=58 v=57
36000 On ch=1 n=51 v=57
36120 Off ch=1 n=63 v=80
36120 Off ch=1 n=58 v=80
36120 Off ch=1 n=51 v=80
36240 On ch=1 n=63 v=57
36240 On ch=1 n=58 v=57
36240 On ch=1 n=51 v=57
36360 Off ch=1 n=63 v=80
36360 Off ch=1 n=58 v=80
36360 Off ch=1 n=51 v=80
36480 On ch=1 n=58 v=57
36480 On ch=1 n=53 v=57
36480 On ch=1 n=46 v=57
36600 Off ch=1 n=58 v=80
36600 Off ch=1 n=53 v=80
36600 Off ch=1 n=46 v=80
36720 On ch=1 n=58 v=57
36720 On ch=1 n=53 v=57
36720 On ch=1 n=46 v=57
36840 Off ch=1 n=58 v=80
36840 Off ch=1 n=53 v=80
36840 Off ch=1 n=46 v=80
36960 On ch=1 n=58 v=57
36960 On ch=1 n=53 v=57
36960 On ch=1 n=46 v=57
37080 Off ch=1 n=58 v=80
37080 Off ch=1 n=53 v=80
37080 Off ch=1 n=46 v=80
37200 On ch=1 n=58 v=57
37200 On ch=1 n=53 v=57
37200 On ch=1 n=46 v=57
37320 Off ch=1 n=58 v=80
37320 Off ch=1 n=53 v=80
37320 Off ch=1 n=46 v=80
37440 On ch=1 n=58 v=57
37440 On ch=1 n=53 v=57
37440 On ch=1 n=46 v=57
37560 Off ch=1 n=58 v=80
37560 Off ch=1 n=53 v=80
37560 Off ch=1 n=46 v=80
37680 On ch=1 n=58 v=57
37680 On ch=1 n=53 v=57
37680 On ch=1 n=46 v=57
37800 Off ch=1 n=58 v=80
37800 Off ch=1 n=53 v=80
37800 Off ch=1 n=46 v=80
37920 On ch=1 n=58 v=57
37920 On ch=1 n=53 v=57
37920 On ch=1 n=46 v=57
38040 Off ch=1 n=58 v=80
38040 Off ch=1 n=53 v=80
38040 Off ch=1 n=46 v=80
38160 On ch=1 n=58 v=57
38160 On ch=1 n=53 v=57
38160 On ch=1 n=46 v=57
38280 Off ch=1 n=58 v=80
38280 Off ch=1 n=53 v=80
38280 Off ch=1 n=46 v=80
38400 On ch=1 n=53 v=57
38400 On ch=1 n=48 v=57
38400 On ch=1 n=41 v=57
38520 Off ch=1 n=53 v=80
38520 Off ch=1 n=48 v=80
38520 Off ch=1 n=41 v=80
38640 On ch=1 n=53 v=57
38640 On ch=1 n=48 v=57
38640 On ch=1 n=41 v=57
38760 Off ch=1 n=53 v=80
38760 Off ch=1 n=48 v=80
38760 Off ch=1 n=41 v=80
38880 On ch=1 n=53 v=57
38880 On ch=1 n=48 v=57
38880 On ch=1 n=41 v=57
39000 Off ch=1 n=53 v=80
39000 Off ch=1 n=48 v=80
39000 Off ch=1 n=41 v=80
39120 On ch=1 n=53 v=57
39120 On ch=1 n=48 v=57
39120 On ch=1 n=41 v=57
39240 Off ch=1 n=53 v=80
39240 Off ch=1 n=48 v=80
39240 Off ch=1 n=41 v=80
39360 On ch=1 n=53 v=57
39360 On ch=1 n=48 v=57
39360 On ch=1 n=41 v=57
39480 Off ch=1 n=53 v=80
39480 Off ch=1 n=48 v=80
39480 Off ch=1 n=41 v=80
39600 On ch=1 n=53 v=57
39600 On ch=1 n=48 v=57
39600 On ch=1 n=41 v=57
39720 Off ch=1 n=53 v=80
39720 Off ch=1 n=48 v=80
39720 Off ch=1 n=41 v=80
39840 On ch=1 n=53 v=57
39840 On ch=1 n=48 v=57
39840 On ch=1 n=41 v=57
39960 Off ch=1 n=53 v=80
39960 Off ch=1 n=48 v=80
39960 Off ch=1 n=41 v=80
40080 On ch=1 n=53 v=57
40080 On ch=1 n=48 v=57
40080 On ch=1 n=41 v=57
40200 Off ch=1 n=53 v=80
40200 Off ch=1 n=48 v=80
40200 Off ch=1 n=41 v=80
40320 On ch=1 n=56 v=57
40320 On ch=1 n=51 v=57
40320 On ch=1 n=44 v=57
40440 Off ch=1 n=56 v=80
40440 Off ch=1 n=51 v=80
40440 Off ch=1 n=44 v=80
40560 On ch=1 n=56 v=57
40560 On ch=1 n=51 v=57
40560 On ch=1 n=44 v=57
40680 Off ch=1 n=56 v=80
40680 Off ch=1 n=51 v=80
40680 Off ch=1 n=44 v=80
40800 On ch=1 n=56 v=57
40800 On ch=1 n=51 v=57
40800 On ch=1 n=44 v=57
40920 Off ch=1 n=56 v=80
40920 Off ch=1 n=51 v=80
40920 Off ch=1 n=44 v=80
41040 On ch=1 n=56 v=57
41040 On ch=1 n=51 v=57
41040 On ch=1 n=44 v=57
41160 Off ch=1 n=56 v=80
41160 Off ch=1 n=51 v=80
41160 Off ch=1 n=44 v=80
41280 On ch=1 n=56 v=57
41280 On ch=1 n=51 v=57
41280 On ch=1 n=44 v=57
41400 Off ch=1 n=56 v=80
41400 Off ch=1 n=51 v=80
41400 Off ch=1 n=44 v=80
41520 On ch=1 n=56 v=57
41520 On ch=1 n=51 v=57
41520 On ch=1 n=44 v=57
41640 Off ch=1 n=56 v=80
41640 Off ch=1 n=51 v=80
41640 Off ch=1 n=44 v=80
41760 On ch=1 n=56 v=57
41760 On ch=1 n=51 v=57
41760 On ch=1 n=44 v=57
41880 Off ch=1 n=56 v=80
41880 Off ch=1 n=51 v=80
41880 Off ch=1 n=44 v=80
42000 On ch=1 n=56 v=57
42000 On ch=1 n=51 v=57
42000 On ch=1 n=44 v=57
42120 Off ch=1 n=56 v=80
42120 Off ch=1 n=51 v=80
42120 Off ch=1 n=44 v=80
42240 On ch=1 n=63 v=57
42240 On ch=1 n=58 v=57
42240 On ch=1 n=51 v=57
42360 Off ch=1 n=63 v=80
42360 Off ch=1 n=58 v=80
42360 Off ch=1 n=51 v=80
42480 On ch=1 n=63 v=57
42480 On ch=1 n=58 v=57
42480 On ch=1 n=51 v=57
42600 Off ch=1 n=63 v=80
42600 Off ch=1 n=58 v=80
42600 Off ch=1 n=51 v=80
42720 On ch=1 n=63 v=57
42720 On ch=1 n=58 v=57
42720 On ch=1 n=51 v=57
42840 Off ch=1 n=63 v=80
42840 Off ch=1 n=58 v=80
42840 Off ch=1 n=51 v=80
42960 On ch=1 n=63 v=57
42960 On ch=1 n=58 v=57
42960 On ch=1 n=51 v=57
43080 Off ch=1 n=63 v=80
43080 Off ch=1 n=58 v=80
43080 Off ch=1 n=51 v=80
43200 On ch=1 n=63 v=57
43200 On ch=1 n=58 v=57
43200 On ch=1 n=51 v=57
43320 Off ch=1 n=63 v=80
43320 Off ch=1 n=58 v=80
43320 Off ch=1 n=51 v=80
43440 On ch=1 n=63 v=57
43440 On ch=1 n=58 v=57
43440 On ch=1 n=51 v=57
43560 Off ch=1 n=63 v=80
43560 Off ch=1 n=58 v=80
43560 Off ch=1 n=51 v=80
43680 On ch=1 n=63 v=57
43680 On ch=1 n=58 v=57
43680 On ch=1 n=51 v=57
43800 Off ch=1 n=63 v=80
43800 Off ch=1 n=58 v=80
43800 Off ch=1 n=51 v=80
43920 On ch=1 n=63 v=57
43920 On ch=1 n=58 v=57
43920 On ch=1 n=51 v=57
44040 Off ch=1 n=63 v=80
44040 Off ch=1 n=58 v=80
44040 Off ch=1 n=51 v=80
44160 On ch=1 n=58 v=57
44160 On ch=1 n=53 v=57
44160 On ch=1 n=46 v=57
44280 Off ch=1 n=58 v=80
44280 Off ch=1 n=53 v=80
44280 Off ch=1 n=46 v=80
44400 On ch=1 n=58 v=57
44400 On ch=1 n=53 v=57
44400 On ch=1 n=46 v=57
44520 Off ch=1 n=58 v=80
44520 Off ch=1 n=53 v=80
44520 Off ch=1 n=46 v=80
44640 On ch=1 n=58 v=57
44640 On ch=1 n=53 v=57
44640 On ch=1 n=46 v=57
44760 Off ch=1 n=58 v=80
44760 Off ch=1 n=53 v=80
44760 Off ch=1 n=46 v=80
44880 On ch=1 n=58 v=57
44880 On ch=1 n=53 v=57
44880 On ch=1 n=46 v=57
45000 Off ch=1 n=58 v=80
45000 Off ch=1 n=53 v=80
45000 Off ch=1 n=46 v=80
45120 On ch=1 n=58 v=57
45120 On ch=1 n=53 v=57
45120 On ch=1 n=46 v=57
45240 Off ch=1 n=58 v=80
45240 Off ch=1 n=53 v=80
45240 Off ch=1 n=46 v=80
45360 On ch=1 n=58 v=57
45360 On ch=1 n=53 v=57
45360 On ch=1 n=46 v=57
45480 Off ch=1 n=58 v=80
45480 Off ch=1 n=53 v=80
45480 Off ch=1 n=46 v=80
45600 On ch=1 n=58 v=57
45600 On ch=1 n=53 v=57
45600 On ch=1 n=46 v=57
45720 Off ch=1 n=58 v=80
45720 Off ch=1 n=53 v=80
45720 Off ch=1 n=46 v=80
45840 On ch=1 n=58 v=57
45840 On ch=1 n=53 v=57
45840 On ch=1 n=46 v=57
45960 Off ch=1 n=58 v=80
45960 Off ch=1 n=53 v=80
45960 Off ch=1 n=46 v=80
46080 On ch=1 n=53 v=57
46080 On ch=1 n=48 v=57
46080 On ch=1 n=41 v=57
46200 Off ch=1 n=53 v=80
46200 Off ch=1 n=48 v=80
46200 Off ch=1 n=41 v=80
46320 On ch=1 n=53 v=57
46320 On ch=1 n=48 v=57
46320 On ch=1 n=41 v=57
46440 Off ch=1 n=53 v=80
46440 Off ch=1 n=48 v=80
46440 Off ch=1 n=41 v=80
46560 On ch=1 n=53 v=57
46560 On ch=1 n=48 v=57
46560 On ch=1 n=41 v=57
46680 Off ch=1 n=53 v=80
46680 Off ch=1 n=48 v=80
46680 Off ch=1 n=41 v=80
46800 On ch=1 n=53 v=57
46800 On ch=1 n=48 v=57
46800 On ch=1 n=41 v=57
46920 Off ch=1 n=53 v=80
46920 Off ch=1 n=48 v=80
46920 Off ch=1 n=41 v=80
47040 On ch=1 n=53 v=57
47040 On ch=1 n=48 v=57
47040 On ch=1 n=41 v=57
47160 Off ch=1 n=53 v=80
47160 Off ch=1 n=48 v=80
47160 Off ch=1 n=41 v=80
47280 On ch=1 n=53 v=57
47280 On ch=1 n=48 v=57
47280 On ch=1 n=41 v=57
47400 Off ch=1 n=53 v=80
47400 Off ch=1 n=48 v=80
47400 Off ch=1 n=41 v=80
47520 On ch=1 n=53 v=57
47520 On ch=1 n=48 v=57
47520 On ch=1 n=41 v=57
47640 Off ch=1 n=53 v=80
47640 Off ch=1 n=48 v=80
47640 Off ch=1 n=41 v=80
47760 On ch=1 n=53 v=57
47760 On ch=1 n=48 v=57
47760 On ch=1 n=41 v=57
47880 Off ch=1 n=53 v=80
47880 Off ch=1 n=48 v=80
47880 Off ch=1 n=41 v=80
48000 On ch=1 n=56 v=57
48000 On ch=1 n=51 v=57
48000 On ch=1 n=44 v=57
48120 Off ch=1 n=56 v=80
48120 Off ch=1 n=51 v=80
48120 Off ch=1 n=44 v=80
48240 On ch=1 n=56 v=57
48240 On ch=1 n=51 v=57
48240 On ch=1 n=44 v=57
48360 Off ch=1 n=56 v=80
48360 Off ch=1 n=51 v=80
48360 Off ch=1 n=44 v=80
48480 On ch=1 n=56 v=57
48480 On ch=1 n=51 v=57
48480 On ch=1 n=44 v=57
48600 Off ch=1 n=56 v=80
48600 Off ch=1 n=51 v=80
48600 Off ch=1 n=44 v=80
48720 On ch=1 n=56 v=57
48720 On ch=1 n=51 v=57
48720 On ch=1 n=44 v=57
48840 Off ch=1 n=56 v=80
48840 Off ch=1 n=51 v=80
48840 Off ch=1 n=44 v=80
48960 On ch=1 n=56 v=57
48960 On ch=1 n=51 v=57
48960 On ch=1 n=44 v=57
49080 Off ch=1 n=56 v=80
49080 Off ch=1 n=51 v=80
49080 Off ch=1 n=44 v=80
49200 On ch=1 n=56 v=57
49200 On ch=1 n=51 v=57
49200 On ch=1 n=44 v=57
49320 Off ch=1 n=56 v=80
49320 Off ch=1 n=51 v=80
49320 Off ch=1 n=44 v=80
49440 On ch=1 n=56 v=57
49440 On ch=1 n=51 v=57
49440 On ch=1 n=44 v=57
49560 Off ch=1 n=56 v=80
49560 Off ch=1 n=51 v=80
49560 Off ch=1 n=44 v=80
49680 On ch=1 n=56 v=57
49680 On ch=1 n=51 v=57
49680 On ch=1 n=44 v=57
49800 Off ch=1 n=56 v=80
49800 Off ch=1 n=51 v=80
49800 Off ch=1 n=44 v=80
49920 On ch=1 n=63 v=57
49920 On ch=1 n=58 v=57
49920 On ch=1 n=51 v=57
50040 Off ch=1 n=63 v=80
50040 Off ch=1 n=58 v=80
50040 Off ch=1 n=51 v=80
50160 On ch=1 n=63 v=57
50160 On ch=1 n=58 v=57
50160 On ch=1 n=51 v=57
50280 Off ch=1 n=63 v=80
50280 Off ch=1 n=58 v=80
50280 Off ch=1 n=51 v=80
50400 On ch=1 n=63 v=57
50400 On ch=1 n=58 v=57
50400 On ch=1 n=51 v=57
50520 Off ch=1 n=63 v=80
50520 Off ch=1 n=58 v=80
50520 Off ch=1 n=51 v=80
50640 On ch=1 n=63 v=57
50640 On ch=1 n=58 v=57
50640 On ch=1 n=51 v=57
50760 Off ch=1 n=63 v=80
50760 Off ch=1 n=58 v=80
50760 Off ch=1 n=51 v=80
50880 On ch=1 n=63 v=57
50880 On ch=1 n=58 v=57
50880 On ch=1 n=51 v=57
51000 Off ch=1 n=63 v=80
51000 Off ch=1 n=58 v=80
51000 Off ch=1 n=51 v=80
51120 On ch=1 n=63 v=57
51120 On ch=1 n=58 v=57
51120 On ch=1 n=51 v=57
51240 Off ch=1 n=63 v=80
51240 Off ch=1 n=58 v=80
51240 Off ch=1 n=51 v=80
51360 On ch=1 n=63 v=57
51360 On ch=1 n=58 v=57
51360 On ch=1 n=51 v=57
51480 Off ch=1 n=63 v=80
51480 Off ch=1 n=58 v=80
51480 Off ch=1 n=51 v=80
51600 On ch=1 n=63 v=57
51600 On ch=1 n=58 v=57
51600 On ch=1 n=51 v=57
51720 Off ch=1 n=63 v=80
51720 Off ch=1 n=58 v=80
51720 Off ch=1 n=51 v=80
51840 On ch=1 n=58 v=57
51840 On ch=1 n=53 v=57
51840 On ch=1 n=46 v=57
51960 Off ch=1 n=58 v=80
51960 Off ch=1 n=53 v=80
51960 Off ch=1 n=46 v=80
52080 On ch=1 n=58 v=57
52080 On ch=1 n=53 v=57
52080 On ch=1 n=46 v=57
52200 Off ch=1 n=58 v=80
52200 Off ch=1 n=53 v=80
52200 Off ch=1 n=46 v=80
52320 On ch=1 n=58 v=57
52320 On ch=1 n=53 v=57
52320 On ch=1 n=46 v=57
52440 Off ch=1 n=58 v=80
52440 Off ch=1 n=53 v=80
52440 Off ch=1 n=46 v=80
52560 On ch=1 n=58 v=57
52560 On ch=1 n=53 v=57
52560 On ch=1 n=46 v=57
52680 Off ch=1 n=58 v=80
52680 Off ch=1 n=53 v=80
52680 Off ch=1 n=46 v=80
52800 On ch=1 n=58 v=57
52800 On ch=1 n=53 v=57
52800 On ch=1 n=46 v=57
52920 Off ch=1 n=58 v=80
52920 Off ch=1 n=53 v=80
52920 Off ch=1 n=46 v=80
53040 On ch=1 n=58 v=57
53040 On ch=1 n=53 v=57
53040 On ch=1 n=46 v=57
53160 Off ch=1 n=58 v=80
53160 Off ch=1 n=53 v=80
53160 Off ch=1 n=46 v=80
53280 On ch=1 n=58 v=57
53280 On ch=1 n=53 v=57
53280 On ch=1 n=46 v=57
53400 Off ch=1 n=58 v=80
53400 Off ch=1 n=53 v=80
53400 Off ch=1 n=46 v=80
53520 On ch=1 n=58 v=57
53520 On ch=1 n=53 v=57
53520 On ch=1 n=46 v=57
53640 Off ch=1 n=58 v=80
53640 Off ch=1 n=53 v=80
53640 Off ch=1 n=46 v=80
53760 On ch=1 n=53 v=57
53760 On ch=1 n=48 v=57
53760 On ch=1 n=41 v=57
53880 Off ch=1 n=53 v=80
53880 Off ch=1 n=48 v=80
53880 Off ch=1 n=41 v=80
54000 On ch=1 n=53 v=57
54000 On ch=1 n=48 v=57
54000 On ch=1 n=41 v=57
54120 Off ch=1 n=53 v=80
54120 Off ch=1 n=48 v=80
54120 Off ch=1 n=41 v=80
54240 On ch=1 n=53 v=57
54240 On ch=1 n=48 v=57
54240 On ch=1 n=41 v=57
54360 Off ch=1 n=53 v=80
54360 Off ch=1 n=48 v=80
54360 Off ch=1 n=41 v=80
54480 On ch=1 n=53 v=57
54480 On ch=1 n=48 v=57
54480 On ch=1 n=41 v=57
54600 Off ch=1 n=53 v=80
54600 Off ch=1 n=48 v=80
54600 Off ch=1 n=41 v=80
54720 On ch=1 n=53 v=57
54720 On ch=1 n=48 v=57
54720 On ch=1 n=41 v=57
54840 Off ch=1 n=53 v=80
54840 Off ch=1 n=48 v=80
54840 Off ch=1 n=41 v=80
54960 On ch=1 n=53 v=57
54960 On ch=1 n=48 v=57
54960 On ch=1 n=41 v=57
55080 Off ch=1 n=53 v=80
55080 Off ch=1 n=48 v=80
55080 Off ch=1 n=41 v=80
55200 On ch=1 n=53 v=57
55200 On ch=1 n=48 v=57
55200 On ch=1 n=41 v=57
55320 Off ch=1 n=53 v=80
55320 Off ch=1 n=48 v=80
55320 Off ch=1 n=41 v=80
55440 On ch=1 n=53 v=57
55440 On ch=1 n=48 v=57
55440 On ch=1 n=41 v=57
55560 Off ch=1 n=53 v=80
55560 Off ch=1 n=48 v=80
55560 Off ch=1 n=41 v=80
55680 On ch=1 n=56 v=57
55680 On ch=1 n=51 v=57
55680 On ch=1 n=44 v=57
55800 Off ch=1 n=56 v=80
55800 Off ch=1 n=51 v=80
55800 Off ch=1 n=44 v=80
55920 On ch=1 n=56 v=57
55920 On ch=1 n=51 v=57
55920 On ch=1 n=44 v=57
56040 Off ch=1 n=56 v=80
56040 Off ch=1 n=51 v=80
56040 Off ch=1 n=44 v=80
56160 On ch=1 n=56 v=57
56160 On ch=1 n=51 v=57
56160 On ch=1 n=44 v=57
56280 Off ch=1 n=56 v=80
56280 Off ch=1 n=51 v=80
56280 Off ch=1 n=44 v=80
56400 On ch=1 n=56 v=57
56400 On ch=1 n=51 v=57
56400 On ch=1 n=44 v=57
56520 Off ch=1 n=56 v=80
56520 Off ch=1 n=51 v=80
56520 Off ch=1 n=44 v=80
56640 On ch=1 n=56 v=57
56640 On ch=1 n=51 v=57
56640 On ch=1 n=44 v=57
56760 Off ch=1 n=56 v=80
56760 Off ch=1 n=51 v=80
56760 Off ch=1 n=44 v=80
56880 On ch=1 n=56 v=57
56880 On ch=1 n=51 v=57
56880 On ch=1 n=44 v=57
57000 Off ch=1 n=56 v=80
57000 Off ch=1 n=51 v=80
57000 Off ch=1 n=44 v=80
57120 On ch=1 n=56 v=57
57120 On ch=1 n=51 v=57
57120 On ch=1 n=44 v=57
57240 Off ch=1 n=56 v=80
57240 Off ch=1 n=51 v=80
57240 Off ch=1 n=44 v=80
57360 On ch=1 n=56 v=57
57360 On ch=1 n=51 v=57
57360 On ch=1 n=44 v=57
57480 Off ch=1 n=56 v=80
57480 Off ch=1 n=51 v=80
57480 Off ch=1 n=44 v=80
57600 On ch=1 n=63 v=57
57600 On ch=1 n=58 v=57
57600 On ch=1 n=51 v=57
57720 Off ch=1 n=63 v=80
57720 Off ch=1 n=58 v=80
57720 Off ch=1 n=51 v=80
57840 On ch=1 n=63 v=57
57840 On ch=1 n=58 v=57
57840 On ch=1 n=51 v=57
57960 Off ch=1 n=63 v=80
57960 Off ch=1 n=58 v=80
57960 Off ch=1 n=51 v=80
58080 On ch=1 n=63 v=57
58080 On ch=1 n=58 v=57
58080 On ch=1 n=51 v=57
58200 Off ch=1 n=63 v=80
58200 Off ch=1 n=58 v=80
58200 Off ch=1 n=51 v=80
58320 On ch=1 n=63 v=57
58320 On ch=1 n=58 v=57
58320 On ch=1 n=51 v=57
58440 Off ch=1 n=63 v=80
58440 Off ch=1 n=58 v=80
58440 Off ch=1 n=51 v=80
58560 On ch=1 n=63 v=57
58560 On ch=1 n=58 v=57
58560 On ch=1 n=51 v=57
58680 Off ch=1 n=63 v=80
58680 Off ch=1 n=58 v=80
58680 Off ch=1 n=51 v=80
58800 On ch=1 n=63 v=57
58800 On ch=1 n=58 v=57
58800 On ch=1 n=51 v=57
58920 Off ch=1 n=63 v=80
58920 Off ch=1 n=58 v=80
58920 Off ch=1 n=51 v=80
59040 On ch=1 n=63 v=57
59040 On ch=1 n=58 v=57
59040 On ch=1 n=51 v=57
59160 Off ch=1 n=63 v=80
59160 Off ch=1 n=58 v=80
59160 Off ch=1 n=51 v=80
59280 On ch=1 n=63 v=57
59280 On ch=1 n=58 v=57
59280 On ch=1 n=51 v=57
59400 Off ch=1 n=63 v=80
59400 Off ch=1 n=58 v=80
59400 Off ch=1 n=51 v=80
59520 On ch=1 n=58 v=57
59520 On ch=1 n=53 v=57
59520 On ch=1 n=46 v=57
59640 Off ch=1 n=58 v=80
59640 Off ch=1 n=53 v=80
59640 Off ch=1 n=46 v=80
59760 On ch=1 n=58 v=57
59760 On ch=1 n=53 v=57
59760 On ch=1 n=46 v=57
59880 Off ch=1 n=58 v=80
59880 Off ch=1 n=53 v=80
59880 Off ch=1 n=46 v=80
60000 On ch=1 n=58 v=57
60000 On ch=1 n=53 v=57
60000 On ch=1 n=46 v=57
60120 Off ch=1 n=58 v=80
60120 Off ch=1 n=53 v=80
60120 Off ch=1 n=46 v=80
60240 On ch=1 n=58 v=57
60240 On ch=1 n=53 v=57
60240 On ch=1 n=46 v=57
60360 Off ch=1 n=58 v=80
60360 Off ch=1 n=53 v=80
60360 Off ch=1 n=46 v=80
60480 On ch=1 n=58 v=57
60480 On ch=1 n=53 v=57
60480 On ch=1 n=46 v=57
60600 Off ch=1 n=58 v=80
60600 Off ch=1 n=53 v=80
60600 Off ch=1 n=46 v=80
60720 On ch=1 n=58 v=57
60720 On ch=1 n=53 v=57
60720 On ch=1 n=46 v=57
60840 Off ch=1 n=58 v=80
60840 Off ch=1 n=53 v=80
60840 Off ch=1 n=46 v=80
60960 On ch=1 n=58 v=57
60960 On ch=1 n=53 v=57
60960 On ch=1 n=46 v=57
61080 Off ch=1 n=58 v=80
61080 Off ch=1 n=53 v=80
61080 Off ch=1 n=46 v=80
61200 On ch=1 n=58 v=57
61200 On ch=1 n=53 v=57
61200 On ch=1 n=46 v=57
61320 Off ch=1 n=58 v=80
61320 Off ch=1 n=53 v=80
61320 Off ch=1 n=46 v=80
61440 On ch=1 n=53 v=57
61440 On ch=1 n=48 v=57
61440 On ch=1 n=41 v=57
61560 Off ch=1 n=53 v=80
61560 Off ch=1 n=48 v=80
61560 Off ch=1 n=41 v=80
61680 On ch=1 n=53 v=57
61680 On ch=1 n=48 v=57
61680 On ch=1 n=41 v=57
61800 Off ch=1 n=53 v=80
61800 Off ch=1 n=48 v=80
61800 Off ch=1 n=41 v=80
61920 On ch=1 n=53 v=57
61920 On ch=1 n=48 v=57
61920 On ch=1 n=41 v=57
62040 Off ch=1 n=53 v=80
62040 Off ch=1 n=48 v=80
62040 Off ch=1 n=41 v=80
62160 On ch=1 n=53 v=57
62160 On ch=1 n=48 v=57
62160 On ch=1 n=41 v=57
62280 Off ch=1 n=53 v=80
62280 Off ch=1 n=48 v=80
62280 Off ch=1 n=41 v=80
62400 On ch=1 n=53 v=57
62400 On ch=1 n=48 v=57
62400 On ch=1 n=41 v=57
62520 Off ch=1 n=53 v=80
62520 Off ch=1 n=48 v=80
62520 Off ch=1 n=41 v=80
62640 On ch=1 n=53 v=57
62640 On ch=1 n=48 v=57
62640 On ch=1 n=41 v=57
62760 Off ch=1 n=53 v=80
62760 Off ch=1 n=48 v=80
62760 Off ch=1 n=41 v=80
62880 On ch=1 n=53 v=57
62880 On ch=1 n=48 v=57
62880 On ch=1 n=41 v=57
63000 Off ch=1 n=53 v=80
63000 Off ch=1 n=48 v=80
63000 Off ch=1 n=41 v=80
63120 On ch=1 n=53 v=57
63120 On ch=1 n=48 v=57
63120 On ch=1 n=41 v=57
63240 Off ch=1 n=53 v=80
63240 Off ch=1 n=48 v=80
63240 Off ch=1 n=41 v=80
63360 On ch=1 n=56 v=57
63360 On ch=1 n=51 v=57
63360 On ch=1 n=44 v=57
63480 Off ch=1 n=56 v=80
63480 Off ch=1 n=51 v=80
63480 Off ch=1 n=44 v=80
63600 On ch=1 n=56 v=57
63600 On ch=1 n=51 v=57
63600 On ch=1 n=44 v=57
63720 Off ch=1 n=56 v=80
63720 Off ch=1 n=51 v=80
63720 Off ch=1 n=44 v=80
63840 On ch=1 n=56 v=57
63840 On ch=1 n=51 v=57
63840 On ch=1 n=44 v=57
63960 Off ch=1 n=56 v=80
63960 Off ch=1 n=51 v=80
63960 Off ch=1 n=44 v=80
64080 On ch=1 n=56 v=57
64080 On ch=1 n=51 v=57
64080 On ch=1 n=44 v=57
64200 Off ch=1 n=56 v=80
64200 Off ch=1 n=51 v=80
64200 Off ch=1 n=44 v=80
64320 On ch=1 n=56 v=57
64320 On ch=1 n=51 v=57
64320 On ch=1 n=44 v=57
64440 Off ch=1 n=56 v=80
64440 Off ch=1 n=51 v=80
64440 Off ch=1 n=44 v=80
64560 On ch=1 n=56 v=57
64560 On ch=1 n=51 v=57
64560 On ch=1 n=44 v=57
64680 Off ch=1 n=56 v=80
64680 Off ch=1 n=51 v=80
64680 Off ch=1 n=44 v=80
64800 On ch=1 n=56 v=57
64800 On ch=1 n=51 v=57
64800 On ch=1 n=44 v=57
64920 Off ch=1 n=56 v=80
64920 Off ch=1 n=51 v=80
64920 Off ch=1 n=44 v=80
65040 On ch=1 n=56 v=57
65040 On ch=1 n=51 v=57
65040 On ch=1 n=44 v=57
65160 Off ch=1 n=56 v=80
65160 Off ch=1 n=51 v=80
65160 Off ch=1 n=44 v=80
65280 On ch=1 n=63 v=57
65280 On ch=1 n=58 v=57
65280 On ch=1 n=51 v=57
65400 Off ch=1 n=63 v=80
65400 Off ch=1 n=58 v=80
65400 Off ch=1 n=51 v=80
65520 On ch=1 n=63 v=57
65520 On ch=1 n=58 v=57
65520 On ch=1 n=51 v=57
65640 Off ch=1 n=63 v=80
65640 Off ch=1 n=58 v=80
65640 Off ch=1 n=51 v=80
65760 On ch=1 n=63 v=57
65760 On ch=1 n=58 v=57
65760 On ch=1 n=51 v=57
65880 Off ch=1 n=63 v=80
65880 Off ch=1 n=58 v=80
65880 Off ch=1 n=51 v=80
66000 On ch=1 n=63 v=57
66000 On ch=1 n=58 v=57
66000 On ch=1 n=51 v=57
66120 Off ch=1 n=63 v=80
66120 Off ch=1 n=58 v=80
66120 Off ch=1 n=51 v=80
66240 On ch=1 n=63 v=57
66240 On ch=1 n=58 v=57
66240 On ch=1 n=51 v=57
66360 Off ch=1 n=63 v=80
66360 Off ch=1 n=58 v=80
66360 Off ch=1 n=51 v=80
66480 On ch=1 n=63 v=57
66480 On ch=1 n=58 v=57
66480 On ch=1 n=51 v=57
66600 Off ch=1 n=63 v=80
66600 Off ch=1 n=58 v=80
66600 Off ch=1 n=51 v=80
66720 On ch=1 n=63 v=57
66720 On ch=1 n=58 v=57
66720 On ch=1 n=51 v=57
66840 Off ch=1 n=63 v=80
66840 Off ch=1 n=58 v=80
66840 Off ch=1 n=51 v=80
66960 On ch=1 n=63 v=57
66960 On ch=1 n=58 v=57
66960 On ch=1 n=51 v=57
67080 Off ch=1 n=63 v=80
67080 Off ch=1 n=58 v=80
67080 Off ch=1 n=51 v=80
67200 PrCh ch=1 p=29
67200 PrCh ch=2 p=29
67200 Par ch=1 c=7 v=104
67200 Par ch=2 c=7 v=104
67200 On ch=1 n=58 v=95
67200 On ch=1 n=53 v=95
67200 On ch=1 n=46 v=95
67680 Off ch=1 n=58 v=80
67680 Off ch=1 n=53 v=80
67680 Off ch=1 n=46 v=80
67680 On ch=1 n=58 v=95
67680 On ch=1 n=53 v=95
67680 On ch=1 n=46 v=95
68160 Off ch=1 n=58 v=80
68160 Off ch=1 n=53 v=80
68160 Off ch=1 n=46 v=80
68160 On ch=1 n=58 v=95
68160 On ch=1 n=53 v=95
68160 On ch=1 n=46 v=95
68640 Off ch=1 n=58 v=80
68640 Off ch=1 n=53 v=80
68640 Off ch=1 n=46 v=80
68640 On ch=1 n=60 v=95
68640 On ch=1 n=55 v=95
68640 On ch=1 n=48 v=95
69120 Off ch=1 n=60 v=80
69120 Off ch=1 n=55 v=80
69120 Off ch=1 n=48 v=80
69120 PrCh ch=1 p=29
69120 PrCh ch=2 p=29
69120 Par ch=1 c=7 v=104
69120 Par ch=2 c=7 v=104
69120 On ch=1 n=61 v=95
69120 On ch=1 n=56 v=95
69120 On ch=1 n=49 v=95
69600 Off ch=1 n=61 v=80
69600 Off ch=1 n=56 v=80
69600 Off ch=1 n=49 v=80
69600 On ch=1 n=61 v=95
69600 On ch=1 n=56 v=95
69600 On ch=1 n=49 v=95
70080 Off ch=1 n=61 v=80
70080 Off ch=1 n=56 v=80
70080 Off ch=1 n=49 v=80
70080 On ch=1 n=61 v=95
70080 On ch=1 n=56 v=95
70080 On ch=1 n=49 v=95
70560 Off ch=1 n=61 v=80
70560 Off ch=1 n=56 v=80
70560 Off ch=1 n=49 v=80
70560 On ch=1 n=61 v=95
70560 On ch=1 n=56 v=95
70560 On ch=1 n=49 v=95
70800 Off ch=1 n=61 v=80
70800 Off ch=1 n=56 v=80
70800 Off ch=1 n=49 v=80
70800 On ch=1 n=61 v=95
70800 On ch=1 n=56 v=95
70800 On ch=1 n=49 v=95
71040 Off ch=1 n=61 v=80
71040 Off ch=1 n=56 v=80
71040 Off ch=1 n=49 v=80
71040 On ch=1 n=56 v=95
71040 On ch=1 n=51 v=95
71040 On ch=1 n=44 v=95
71520 Off ch=1 n=56 v=80
71520 Off ch=1 n=51 v=80
71520 Off ch=1 n=44 v=80
71520 On ch=1 n=56 v=95
71520 On ch=1 n=51 v=95
71520 On ch=1 n=44 v=95
72000 Off ch=1 n=56 v=80
72000 Off ch=1 n=51 v=80
72000 Off ch=1 n=44 v=80
72000 On ch=1 n=56 v=95
72000 On ch=1 n=51 v=95
72000 On ch=1 n=44 v=95
72480 Off ch=1 n=56 v=80
72480 Off ch=1 n=51 v=80
72480 Off ch=1 n=44 v=80
72480 On ch=1 n=56 v=95
72480 On ch=1 n=51 v=95
72480 On ch=1 n=44 v=95
72720 Off ch=1 n=56 v=80
72720 Off ch=1 n=51 v=80
72720 Off ch=1 n=44 v=80
72720 On ch=1 n=56 v=95
72720 On ch=1 n=51 v=95
72720 On ch=1 n=44 v=95
72960 Off ch=1 n=56 v=80
72960 Off ch=1 n=51 v=80
72960 Off ch=1 n=44 v=80
72960 On ch=1 n=63 v=95
72960 On ch=1 n=58 v=95
72960 On ch=1 n=51 v=95
73440 Off ch=1 n=63 v=80
73440 Off ch=1 n=58 v=80
73440 Off ch=1 n=51 v=80
73440 On ch=1 n=63 v=95
73440 On ch=1 n=58 v=95
73440 On ch=1 n=51 v=95
73920 Off ch=1 n=63 v=80
73920 Off ch=1 n=58 v=80
73920 Off ch=1 n=51 v=80
73920 On ch=1 n=63 v=95
73920 On ch=1 n=58 v=95
73920 On ch=1 n=51 v=95
74400 Off ch=1 n=63 v=80
74400 Off ch=1 n=58 v=80
74400 Off ch=1 n=51 v=80
74400 On ch=1 n=63 v=95
74400 On ch=1 n=58 v=95
74400 On ch=1 n=51 v=95
74640 Off ch=1 n=63 v=80
74640 Off ch=1 n=58 v=80
74640 Off ch=1 n=51 v=80
74640 On ch=1 n=63 v=95
74640 On ch=1 n=58 v=95
74640 On ch=1 n=51 v=95
74880 Off ch=1 n=63 v=80
74880 Off ch=1 n=58 v=80
74880 Off ch=1 n=51 v=80
74880 On ch=1 n=53 v=95
74880 On ch=1 n=48 v=95
74880 On ch=1 n=41 v=95
75360 Off ch=1 n=53 v=80
75360 Off ch=1 n=48 v=80
75360 Off ch=1 n=41 v=80
75360 On ch=1 n=53 v=95
75360 On ch=1 n=48 v=95
75360 On ch=1 n=41 v=95
75840 Off ch=1 n=53 v=80
75840 Off ch=1 n=48 v=80
75840 Off ch=1 n=41 v=80
75840 On ch=1 n=53 v=95
75840 On ch=1 n=48 v=95
75840 On ch=1 n=41 v=95
76320 Off ch=1 n=53 v=80
76320 Off ch=1 n=48 v=80
76320 Off ch=1 n=41 v=80
76320 On ch=1 n=53 v=95
76320 On ch=1 n=48 v=95
76320 On ch=1 n=41 v=95
76560 Off ch=1 n=53 v=80
76560 Off ch=1 n=48 v=80
76560 Off ch=1 n=41 v=80
76560 On ch=1 n=53 v=95
76560 On ch=1 n=48 v=95
76560 On ch=1 n=41 v=95
76800 Off ch=1 n=53 v=80
76800 Off ch=1 n=48 v=80
76800 Off ch=1 n=41 v=80
76800 On ch=1 n=61 v=95
76800 On ch=1 n=56 v=95
76800 On ch=1 n=49 v=95
77280 Off ch=1 n=61 v=80
77280 Off ch=1 n=56 v=80
77280 Off ch=1 n=49 v=80
77280 On ch=1 n=61 v=95
77280 On ch=1 n=56 v=95
77280 On ch=1 n=49 v=95
77760 Off ch=1 n=61 v=80
77760 Off ch=1 n=56 v=80
77760 Off ch=1 n=49 v=80
77760 On ch=1 n=61 v=95
77760 On ch=1 n=56 v=95
77760 On ch=1 n=49 v=95
78240 Off ch=1 n=61 v=80
78240 Off ch=1 n=56 v=80
78240 Off ch=1 n=49 v=80
78240 On ch=1 n=61 v=95
78240 On ch=1 n=56 v=95
78240 On ch=1 n=49 v=95
78480 Off ch=1 n=61 v=80
78480 Off ch=1 n=56 v=80
78480 Off ch=1 n=49 v=80
78480 On ch=1 n=61 v=95
78480 On ch=1 n=56 v=95
78480 On ch=1 n=49 v=95
78720 Off ch=1 n=61 v=80
78720 Off ch=1 n=56 v=80
78720 Off ch=1 n=49 v=80
78720 On ch=1 n=56 v=95
78720 On ch=1 n=51 v=95
78720 On ch=1 n=44 v=95
79200 Off ch=1 n=56 v=80
79200 Off ch=1 n=51 v=80
79200 Off ch=1 n=44 v=80
79200 On ch=1 n=56 v=95
79200 On ch=1 n=51 v=95
79200 On ch=1 n=44 v=95
79680 Off ch=1 n=56 v=80
79680 Off ch=1 n=51 v=80
79680 Off ch=1 n=44 v=80
79680 On ch=1 n=56 v=95
79680 On ch=1 n=51 v=95
79680 On ch=1 n=44 v=95
80160 Off ch=1 n=56 v=80
80160 Off ch=1 n=51 v=80
80160 Off ch=1 n=44 v=80
80160 On ch=1 n=56 v=95
80160 On ch=1 n=51 v=95
80160 On ch=1 n=44 v=95
80400 Off ch=1 n=56 v=80
80400 Off ch=1 n=51 v=80
80400 Off ch=1 n=44 v=80
80400 On ch=1 n=56 v=95
80400 On ch=1 n=51 v=95
80400 On ch=1 n=44 v=95
80640 Off ch=1 n=56 v=80
80640 Off ch=1 n=51 v=80
80640 Off ch=1 n=44 v=80
80640 On ch=1 n=63 v=95
80640 On ch=1 n=58 v=95
80640 On ch=1 n=51 v=95
81120 Off ch=1 n=63 v=80
81120 Off ch=1 n=58 v=80
81120 Off ch=1 n=51 v=80
81120 On ch=1 n=63 v=95
81120 On ch=1 n=58 v=95
81120 On ch=1 n=51 v=95
81600 Off ch=1 n=63 v=80
81600 Off ch=1 n=58 v=80
81600 Off ch=1 n=51 v=80
81600 On ch=1 n=63 v=95
81600 On ch=1 n=58 v=95
81600 On ch=1 n=51 v=95
82080 Off ch=1 n=63 v=80
82080 Off ch=1 n=58 v=80
82080 Off ch=1 n=51 v=80
82080 On ch=1 n=63 v=95
82080 On ch=1 n=58 v=95
82080 On ch=1 n=51 v=95
82320 Off ch=1 n=63 v=80
82320 Off ch=1 n=58 v=80
82320 Off ch=1 n=51 v=80
82320 On ch=1 n=63 v=95
82320 On ch=1 n=58 v=95
82320 On ch=1 n=51 v=95
82560 Off ch=1 n=63 v=80
82560 Off ch=1 n=58 v=80
82560 Off ch=1 n=51 v=80
82560 On ch=1 n=53 v=95
82560 On ch=1 n=48 v=95
82560 On ch=1 n=41 v=95
83040 Off ch=1 n=53 v=80
83040 Off ch=1 n=48 v=80
83040 Off ch=1 n=41 v=80
83040 On ch=1 n=53 v=95
83040 On ch=1 n=48 v=95
83040 On ch=1 n=41 v=95
83520 Off ch=1 n=53 v=80
83520 Off ch=1 n=48 v=80
83520 Off ch=1 n=41 v=80
83520 On ch=1 n=53 v=95
83520 On ch=1 n=48 v=95
83520 On ch=1 n=41 v=95
84000 Off ch=1 n=53 v=80
84000 Off ch=1 n=48 v=80
84000 Off ch=1 n=41 v=80
84000 On ch=1 n=53 v=95
84000 On ch=1 n=48 v=95
84000 On ch=1 n=41 v=95
84240 Off ch=1 n=53 v=80
84240 Off ch=1 n=48 v=80
84240 Off ch=1 n=41 v=80
84240 On ch=1 n=53 v=95
84240 On ch=1 n=48 v=95
84240 On ch=1 n=41 v=95
84480 Off ch=1 n=53 v=80
84480 Off ch=1 n=48 v=80
84480 Off ch=1 n=41 v=80
84480 On ch=1 n=61 v=95
84480 On ch=1 n=56 v=95
84480 On ch=1 n=49 v=95
84960 Off ch=1 n=61 v=80
84960 Off ch=1 n=56 v=80
84960 Off ch=1 n=49 v=80
84960 On ch=1 n=61 v=95
84960 On ch=1 n=56 v=95
84960 On ch=1 n=49 v=95
85440 Off ch=1 n=61 v=80
85440 Off ch=1 n=56 v=80
85440 Off ch=1 n=49 v=80
85440 On ch=1 n=61 v=95
85440 On ch=1 n=56 v=95
85440 On ch=1 n=49 v=95
85920 Off ch=1 n=61 v=80
85920 Off ch=1 n=56 v=80
85920 Off ch=1 n=49 v=80
85920 On ch=1 n=61 v=95
85920 On ch=1 n=56 v=95
85920 On ch=1 n=49 v=95
86160 Off ch=1 n=61 v=80
86160 Off ch=1 n=56 v=80
86160 Off ch=1 n=49 v=80
86160 On ch=1 n=61 v=95
86160 On ch=1 n=56 v=95
86160 On ch=1 n=49 v=95
86400 Off ch=1 n=61 v=80
86400 Off ch=1 n=56 v=80
86400 Off ch=1 n=49 v=80
86400 On ch=1 n=56 v=95
86400 On ch=1 n=51 v=95
86400 On ch=1 n=44 v=95
86880 Off ch=1 n=56 v=80
86880 Off ch=1 n=51 v=80
86880 Off ch=1 n=44 v=80
86880 On ch=1 n=56 v=95
86880 On ch=1 n=51 v=95
86880 On ch=1 n=44 v=95
87360 Off ch=1 n=56 v=80
87360 Off ch=1 n=51 v=80
87360 Off ch=1 n=44 v=80
87360 On ch=1 n=56 v=95
87360 On ch=1 n=51 v=95
87360 On ch=1 n=44 v=95
87840 Off ch=1 n=56 v=80
87840 Off ch=1 n=51 v=80
87840 Off ch=1 n=44 v=80
87840 On ch=1 n=56 v=95
87840 On ch=1 n=51 v=95
87840 On ch=1 n=44 v=95
88080 Off ch=1 n=56 v=80
88080 Off ch=1 n=51 v=80
88080 Off ch=1 n=44 v=80
88080 On ch=1 n=56 v=95
88080 On ch=1 n=51 v=95
88080 On ch=1 n=44 v=95
88320 Off ch=1 n=56 v=80
88320 Off ch=1 n=51 v=80
88320 Off ch=1 n=44 v=80
88320 On ch=1 n=63 v=95
88320 On ch=1 n=58 v=95
88320 On ch=1 n=51 v=95
88800 Off ch=1 n=63 v=80
88800 Off ch=1 n=58 v=80
88800 Off ch=1 n=51 v=80
88800 On ch=1 n=63 v=95
88800 On ch=1 n=58 v=95
88800 On ch=1 n=51 v=95
89280 Off ch=1 n=63 v=80
89280 Off ch=1 n=58 v=80
89280 Off ch=1 n=51 v=80
89280 On ch=1 n=63 v=95
89280 On ch=1 n=58 v=95
89280 On ch=1 n=51 v=95
89760 Off ch=1 n=63 v=80
89760 Off ch=1 n=58 v=80
89760 Off ch=1 n=51 v=80
89760 On ch=1 n=63 v=95
89760 On ch=1 n=58 v=95
89760 On ch=1 n=51 v=95
90000 Off ch=1 n=63 v=80
90000 Off ch=1 n=58 v=80
90000 Off ch=1 n=51 v=80
90000 On ch=1 n=63 v=95
90000 On ch=1 n=58 v=95
90000 On ch=1 n=51 v=95
90240 Off ch=1 n=63 v=80
90240 Off ch=1 n=58 v=80
90240 Off ch=1 n=51 v=80
90240 On ch=1 n=53 v=95
90240 On ch=1 n=48 v=95
90240 On ch=1 n=41 v=95
90720 Off ch=1 n=53 v=80
90720 Off ch=1 n=48 v=80
90720 Off ch=1 n=41 v=80
90720 On ch=1 n=53 v=95
90720 On ch=1 n=48 v=95
90720 On ch=1 n=41 v=95
91200 Off ch=1 n=53 v=80
91200 Off ch=1 n=48 v=80
91200 Off ch=1 n=41 v=80
91200 On ch=1 n=53 v=95
91200 On ch=1 n=48 v=95
91200 On ch=1 n=41 v=95
91680 Off ch=1 n=53 v=80
91680 Off ch=1 n=48 v=80
91680 Off ch=1 n=41 v=80
91680 On ch=1 n=53 v=95
91680 On ch=1 n=48 v=95
91680 On ch=1 n=41 v=95
91920 Off ch=1 n=53 v=80
91920 Off ch=1 n=48 v=80
91920 Off ch=1 n=41 v=80
91920 On ch=1 n=53 v=95
91920 On ch=1 n=48 v=95
91920 On ch=1 n=41 v=95
92160 Off ch=1 n=53 v=80
92160 Off ch=1 n=48 v=80
92160 Off ch=1 n=41 v=80
92160 On ch=1 n=61 v=95
92160 On ch=1 n=56 v=95
92160 On ch=1 n=49 v=95
92640 Off ch=1 n=61 v=80
92640 Off ch=1 n=56 v=80
92640 Off ch=1 n=49 v=80
92640 On ch=1 n=61 v=95
92640 On ch=1 n=56 v=95
92640 On ch=1 n=49 v=95
93120 Off ch=1 n=61 v=80
93120 Off ch=1 n=56 v=80
93120 Off ch=1 n=49 v=80
93120 On ch=1 n=61 v=95
93120 On ch=1 n=56 v=95
93120 On ch=1 n=49 v=95
93600 Off ch=1 n=61 v=80
93600 Off ch=1 n=56 v=80
93600 Off ch=1 n=49 v=80
93600 On ch=1 n=61 v=95
93600 On ch=1 n=56 v=95
93600 On ch=1 n=49 v=95
93840 Off ch=1 n=61 v=80
93840 Off ch=1 n=56 v=80
93840 Off ch=1 n=49 v=80
93840 On ch=1 n=61 v=95
93840 On ch=1 n=56 v=95
93840 On ch=1 n=49 v=95
94080 Off ch=1 n=61 v=80
94080 Off ch=1 n=56 v=80
94080 Off ch=1 n=49 v=80
94080 On ch=1 n=56 v=95
94080 On ch=1 n=51 v=95
94080 On ch=1 n=44 v=95
94560 Off ch=1 n=56 v=80
94560 Off ch=1 n=51 v=80
94560 Off ch=1 n=44 v=80
94560 On ch=1 n=56 v=95
94560 On ch=1 n=51 v=95
94560 On ch=1 n=44 v=95
95040 Off ch=1 n=56 v=80
95040 Off ch=1 n=51 v=80
95040 Off ch=1 n=44 v=80
95040 On ch=1 n=56 v=95
95040 On ch=1 n=51 v=95
95040 On ch=1 n=44 v=95
95520 Off ch=1 n=56 v=80
95520 Off ch=1 n=51 v=80
95520 Off ch=1 n=44 v=80
95520 On ch=1 n=56 v=95
95520 On ch=1 n=51 v=95
95520 On ch=1 n=44 v=95
95760 Off ch=1 n=56 v=80
95760 Off ch=1 n=51 v=80
95760 Off ch=1 n=44 v=80
95760 On ch=1 n=56 v=95
95760 On ch=1 n=51 v=95
95760 On ch=1 n=44 v=95
96000 Off ch=1 n=56 v=80
96000 Off ch=1 n=51 v=80
96000 Off ch=1 n=44 v=80
96000 On ch=1 n=60 v=95
96000 On ch=1 n=55 v=95
96000 On ch=1 n=48 v=95
96480 Off ch=1 n=60 v=80
96480 Off ch=1 n=55 v=80
96480 Off ch=1 n=48 v=80
96480 On ch=1 n=60 v=95
96480 On ch=1 n=55 v=95
96480 On ch=1 n=48 v=95
96960 Off ch=1 n=60 v=80
96960 Off ch=1 n=55 v=80
96960 Off ch=1 n=48 v=80
96960 On ch=1 n=60 v=95
96960 On ch=1 n=55 v=95
96960 On ch=1 n=48 v=95
97440 Off ch=1 n=60 v=80
97440 Off ch=1 n=55 v=80
97440 Off ch=1 n=48 v=80
97440 On ch=1 n=60 v=95
97440 On ch=1 n=55 v=95
97440 On ch=1 n=48 v=95
97920 Off ch=1 n=60 v=80
97920 Off ch=1 n=55 v=80
97920 Off ch=1 n=48 v=80
97920 On ch=1 n=60 v=95
97920 On ch=1 n=55 v=95
97920 On ch=1 n=48 v=95
98400 Off ch=1 n=60 v=80
98400 Off ch=1 n=55 v=80
98400 Off ch=1 n=48 v=80
99840 PrCh ch=1 p=29
99840 PrCh ch=2 p=29
99840 Par ch=1 c=7 v=96
99840 Par ch=2 c=7 v=96
99840 On ch=1 n=53 v=57
99840 On ch=1 n=48 v=57
99840 On ch=1 n=41 v=57
99960 Off ch=1 n=53 v=80
99960 Off ch=1 n=48 v=80
99960 Off ch=1 n=41 v=80
100080 On ch=1 n=53 v=57
100080 On ch=1 n=48 v=57
100080 On ch=1 n=41 v=57
100200 Off ch=1 n=53 v=80
100200 Off ch=1 n=48 v=80
100200 Off ch=1 n=41 v=80
100320 On ch=1 n=53 v=57
100320 On ch=1 n=48 v=57
100320 On ch=1 n=41 v=57
100440 Off ch=1 n=53 v=80
100440 Off ch=1 n=48 v=80
100440 Off ch=1 n=41 v=80
100560 On ch=1 n=53 v=57
100560 On ch=1 n=48 v=57
100560 On ch=1 n=41 v=57
100680 Off ch=1 n=53 v=80
100680 Off ch=1 n=48 v=80
100680 Off ch=1 n=41 v=80
100800 On ch=1 n=53 v=57
100800 On ch=1 n=48 v=57
100800 On ch=1 n=41 v=57
100920 Off ch=1 n=53 v=80
100920 Off ch=1 n=48 v=80
100920 Off ch=1 n=41 v=80
101040 On ch=1 n=53 v=57
101040 On ch=1 n=48 v=57
101040 On ch=1 n=41 v=57
101160 Off ch=1 n=53 v=80
101160 Off ch=1 n=48 v=80
101160 Off ch=1 n=41 v=80
101280 On ch=1 n=53 v=57
101280 On ch=1 n=48 v=57
101280 On ch=1 n=41 v=57
101400 Off ch=1 n=53 v=80
101400 Off ch=1 n=48 v=80
101400 Off ch=1 n=41 v=80
101520 On ch=1 n=53 v=57
101520 On ch=1 n=48 v=57
101520 On ch=1 n=41 v=57
101640 Off ch=1 n=53 v=80
101640 Off ch=1 n=48 v=80
101640 Off ch=1 n=41 v=80
101760 On ch=1 n=56 v=57
101760 On ch=1 n=51 v=57
101760 On ch=1 n=44 v=57
101880 Off ch=1 n=56 v=80
101880 Off ch=1 n=51 v=80
101880 Off ch=1 n=44 v=80
102000 On ch=1 n=56 v=57
102000 On ch=1 n=51 v=57
102000 On ch=1 n=44 v=57
102120 Off ch=1 n=56 v=80
102120 Off ch=1 n=51 v=80
102120 Off ch=1 n=44 v=80
102240 On ch=1 n=56 v=57
102240 On ch=1 n=51 v=57
102240 On ch=1 n=44 v=57
102360 Off ch=1 n=56 v=80
102360 Off ch=1 n=51 v=80
102360 Off ch=1 n=44 v=80
102480 On ch=1 n=56 v=57
102480 On ch=1 n=51 v=57
102480 On ch=1 n=44 v=57
102600 Off ch=1 n=56 v=80
102600 Off ch=1 n=51 v=80
102600 Off ch=1 n=44 v=80
102720 On ch=1 n=56 v=57
102720 On ch=1 n=51 v=57
102720 On ch=1 n=44 v=57
102840 Off ch=1 n=56 v=80
102840 Off ch=1 n=51 v=80
102840 Off ch=1 n=44 v=80
102960 On ch=1 n=56 v=57
102960 On ch=1 n=51 v=57
102960 On ch=1 n=44 v=57
103080 Off ch=1 n=56 v=80
103080 Off ch=1 n=51 v=80
103080 Off ch=1 n=44 v=80
103200 On ch=1 n=56 v=57
103200 On ch=1 n=51 v=57
103200 On ch=1 n=44 v=57
103320 Off ch=1 n=56 v=80
103320 Off ch=1 n=51 v=80
103320 Off ch=1 n=44 v=80
103440 On ch=1 n=56 v=57
103440 On ch=1 n=51 v=57
103440 On ch=1 n=44 v=57
103560 Off ch=1 n=56 v=80
103560 Off ch=1 n=51 v=80
103560 Off ch=1 n=44 v=80
103680 On ch=1 n=63 v=57
103680 On ch=1 n=58 v=57
103680 On ch=1 n=51 v=57
103800 Off ch=1 n=63 v=80
103800 Off ch=1 n=58 v=80
103800 Off ch=1 n=51 v=80
103920 On ch=1 n=63 v=57
103920 On ch=1 n=58 v=57
103920 On ch=1 n=51 v=57
104040 Off ch=1 n=63 v=80
104040 Off ch=1 n=58 v=80
104040 Off ch=1 n=51 v=80
104160 On ch=1 n=63 v=57
104160 On ch=1 n=58 v=57
104160 On ch=1 n=51 v=57
104280 Off ch=1 n=63 v=80
104280 Off ch=1 n=58 v=80
104280 Off ch=1 n=51 v=80
104400 On ch=1 n=63 v=57
104400 On ch=1 n=58 v=57
104400 On ch=1 n=51 v=57
104520 Off ch=1 n=63 v=80
104520 Off ch=1 n=58 v=80
104520 Off ch=1 n=51 v=80
104640 On ch=1 n=63 v=57
104640 On ch=1 n=58 v=57
104640 On ch=1 n=51 v=57
104760 Off ch=1 n=63 v=80
104760 Off ch=1 n=58 v=80
104760 Off ch=1 n=51 v=80
104880 On ch=1 n=63 v=57
104880 On ch=1 n=58 v=57
104880 On ch=1 n=51 v=57
105000 Off ch=1 n=63 v=80
105000 Off ch=1 n=58 v=80
105000 Off ch=1 n=51 v=80
105120 On ch=1 n=63 v=57
105120 On ch=1 n=58 v=57
105120 On ch=1 n=51 v=57
105240 Off ch=1 n=63 v=80
105240 Off ch=1 n=58 v=80
105240 Off ch=1 n=51 v=80
105360 On ch=1 n=63 v=57
105360 On ch=1 n=58 v=57
105360 On ch=1 n=51 v=57
105480 Off ch=1 n=63 v=80
105480 Off ch=1 n=58 v=80
105480 Off ch=1 n=51 v=80
105600 On ch=1 n=58 v=57
105600 On ch=1 n=53 v=57
105600 On ch=1 n=46 v=57
105720 Off ch=1 n=58 v=80
105720 Off ch=1 n=53 v=80
105720 Off ch=1 n=46 v=80
105840 On ch=1 n=58 v=57
105840 On ch=1 n=53 v=57
105840 On ch=1 n=46 v=57
105960 Off ch=1 n=58 v=80
105960 Off ch=1 n=53 v=80
105960 Off ch=1 n=46 v=80
106080 On ch=1 n=58 v=57
106080 On ch=1 n=53 v=57
106080 On ch=1 n=46 v=57
106200 Off ch=1 n=58 v=80
106200 Off ch=1 n=53 v=80
106200 Off ch=1 n=46 v=80
106320 On ch=1 n=58 v=57
106320 On ch=1 n=53 v=57
106320 On ch=1 n=46 v=57
106440 Off ch=1 n=58 v=80
106440 Off ch=1 n=53 v=80
106440 Off ch=1 n=46 v=80
106560 On ch=1 n=58 v=57
106560 On ch=1 n=53 v=57
106560 On ch=1 n=46 v=57
106680 Off ch=1 n=58 v=80
106680 Off ch=1 n=53 v=80
106680 Off ch=1 n=46 v=80
106800 On ch=1 n=58 v=57
106800 On ch=1 n=53 v=57
106800 On ch=1 n=46 v=57
106920 Off ch=1 n=58 v=80
106920 Off ch=1 n=53 v=80
106920 Off ch=1 n=46 v=80
107040 On ch=1 n=58 v=57
107040 On ch=1 n=53 v=57
107040 On ch=1 n=46 v=57
107160 Off ch=1 n=58 v=80
107160 Off ch=1 n=53 v=80
107160 Off ch=1 n=46 v=80
107280 On ch=1 n=58 v=57
107280 On ch=1 n=53 v=57
107280 On ch=1 n=46 v=57
107400 Off ch=1 n=58 v=80
107400 Off ch=1 n=53 v=80
107400 Off ch=1 n=46 v=80
107520 On ch=1 n=53 v=57
107520 On ch=1 n=48 v=57
107520 On ch=1 n=41 v=57
107640 Off ch=1 n=53 v=80
107640 Off ch=1 n=48 v=80
107640 Off ch=1 n=41 v=80
107760 On ch=1 n=53 v=57
107760 On ch=1 n=48 v=57
107760 On ch=1 n=41 v=57
107880 Off ch=1 n=53 v=80
107880 Off ch=1 n=48 v=80
107880 Off ch=1 n=41 v=80
108000 On ch=1 n=53 v=57
108000 On ch=1 n=48 v=57
108000 On ch=1 n=41 v=57
108120 Off ch=1 n=53 v=80
108120 Off ch=1 n=48 v=80
108120 Off ch=1 n=41 v=80
108240 On ch=1 n=53 v=57
108240 On ch=1 n=48 v=57
108240 On ch=1 n=41 v=57
108360 Off ch=1 n=53 v=80
108360 Off ch=1 n=48 v=80
108360 Off ch=1 n=41 v=80
108480 On ch=1 n=53 v=57
108480 On ch=1 n=48 v=57
108480 On ch=1 n=41 v=57
108600 Off ch=1 n=53 v=80
108600 Off ch=1 n=48 v=80
108600 Off ch=1 n=41 v=80
108720 On ch=1 n=53 v=57
108720 On ch=1 n=48 v=57
108720 On ch=1 n=41 v=57
108840 Off ch=1 n=53 v=80
108840 Off ch=1 n=48 v=80
108840 Off ch=1 n=41 v=80
108960 On ch=1 n=53 v=57
108960 On ch=1 n=48 v=57
108960 On ch=1 n=41 v=57
109080 Off ch=1 n=53 v=80
109080 Off ch=1 n=48 v=80
109080 Off ch=1 n=41 v=80
109200 On ch=1 n=53 v=57
109200 On ch=1 n=48 v=57
109200 On ch=1 n=41 v=57
109320 Off ch=1 n=53 v=80
109320 Off ch=1 n=48 v=80
109320 Off ch=1 n=41 v=80
109440 On ch=1 n=56 v=57
109440 On ch=1 n=51 v=57
109440 On ch=1 n=44 v=57
109560 Off ch=1 n=56 v=80
109560 Off ch=1 n=51 v=80
109560 Off ch=1 n=44 v=80
109680 On ch=1 n=56 v=57
109680 On ch=1 n=51 v=57
109680 On ch=1 n=44 v=57
109800 Off ch=1 n=56 v=80
109800 Off ch=1 n=51 v=80
109800 Off ch=1 n=44 v=80
109920 On ch=1 n=56 v=57
109920 On ch=1 n=51 v=57
109920 On ch=1 n=44 v=57
110040 Off ch=1 n=56 v=80
110040 Off ch=1 n=51 v=80
110040 Off ch=1 n=44 v=80
110160 On ch=1 n=56 v=57
110160 On ch=1 n=51 v=57
110160 On ch=1 n=44 v=57
110280 Off ch=1 n=56 v=80
110280 Off ch=1 n=51 v=80
110280 Off ch=1 n=44 v=80
110400 On ch=1 n=56 v=57
110400 On ch=1 n=51 v=57
110400 On ch=1 n=44 v=57
110520 Off ch=1 n=56 v=80
110520 Off ch=1 n=51 v=80
110520 Off ch=1 n=44 v=80
110640 On ch=1 n=56 v=57
110640 On ch=1 n=51 v=57
110640 On ch=1 n=44 v=57
110760 Off ch=1 n=56 v=80
110760 Off ch=1 n=51 v=80
110760 Off ch=1 n=44 v=80
110880 On ch=1 n=56 v=57
110880 On ch=1 n=51 v=57
110880 On ch=1 n=44 v=57
111000 Off ch=1 n=56 v=80
111000 Off ch=1 n=51 v=80
111000 Off ch=1 n=44 v=80
111120 On ch=1 n=56 v=57
111120 On ch=1 n=51 v=57
111120 On ch=1 n=44 v=57
111240 Off ch=1 n=56 v=80
111240 Off ch=1 n=51 v=80
111240 Off ch=1 n=44 v=80
111360 On ch=1 n=63 v=57
111360 On ch=1 n=58 v=57
111360 On ch=1 n=51 v=57
111480 Off ch=1 n=63 v=80
111480 Off ch=1 n=58 v=80
111480 Off ch=1 n=51 v=80
111600 On ch=1 n=63 v=57
111600 On ch=1 n=58 v=57
111600 On ch=1 n=51 v=57
111720 Off ch=1 n=63 v=80
111720 Off ch=1 n=58 v=80
111720 Off ch=1 n=51 v=80
111840 On ch=1 n=63 v=57
111840 On ch=1 n=58 v=57
111840 On ch=1 n=51 v=57
111960 Off ch=1 n=63 v=80
111960 Off ch=1 n=58 v=80
111960 Off ch=1 n=51 v=80
112080 On ch=1 n=63 v=57
112080 On ch=1 n=58 v=57
112080 On ch=1 n=51 v=57
112200 Off ch=1 n=63 v=80
112200 Off ch=1 n=58 v=80
112200 Off ch=1 n=51 v=80
112320 On ch=1 n=63 v=57
112320 On ch=1 n=58 v=57
112320 On ch=1 n=51 v=57
112440 Off ch=1 n=63 v=80
112440 Off ch=1 n=58 v=80
112440 Off ch=1 n=51 v=80
112560 On ch=1 n=63 v=57
112560 On ch=1 n=58 v=57
112560 On ch=1 n=51 v=57
112680 Off ch=1 n=63 v=80
112680 Off ch=1 n=58 v=80
112680 Off ch=1 n=51 v=80
112800 On ch=1 n=63 v=57
112800 On ch=1 n=58 v=57
112800 On ch=1 n=51 v=57
112920 Off ch=1 n=63 v=80
112920 Off ch=1 n=58 v=80
112920 Off ch=1 n=51 v=80
113040 On ch=1 n=63 v=57
113040 On ch=1 n=58 v=57
113040 On ch=1 n=51 v=57
113160 Off ch=1 n=63 v=80
113160 Off ch=1 n=58 v=80
113160 Off ch=1 n=51 v=80
113280 On ch=1 n=58 v=57
113280 On ch=1 n=53 v=57
113280 On ch=1 n=46 v=57
113400 Off ch=1 n=58 v=80
113400 Off ch=1 n=53 v=80
113400 Off ch=1 n=46 v=80
113520 On ch=1 n=58 v=57
113520 On ch=1 n=53 v=57
113520 On ch=1 n=46 v=57
113640 Off ch=1 n=58 v=80
113640 Off ch=1 n=53 v=80
113640 Off ch=1 n=46 v=80
113760 On ch=1 n=58 v=57
113760 On ch=1 n=53 v=57
113760 On ch=1 n=46 v=57
113880 Off ch=1 n=58 v=80
113880 Off ch=1 n=53 v=80
113880 Off ch=1 n=46 v=80
114000 On ch=1 n=58 v=57
114000 On ch=1 n=53 v=57
114000 On ch=1 n=46 v=57
114120 Off ch=1 n=58 v=80
114120 Off ch=1 n=53 v=80
114120 Off ch=1 n=46 v=80
114240 On ch=1 n=58 v=57
114240 On ch=1 n=53 v=57
114240 On ch=1 n=46 v=57
114360 Off ch=1 n=58 v=80
114360 Off ch=1 n=53 v=80
114360 Off ch=1 n=46 v=80
114480 On ch=1 n=58 v=57
114480 On ch=1 n=53 v=57
114480 On ch=1 n=46 v=57
114600 Off ch=1 n=58 v=80
114600 Off ch=1 n=53 v=80
114600 Off ch=1 n=46 v=80
114720 On ch=1 n=58 v=57
114720 On ch=1 n=53 v=57
114720 On ch=1 n=46 v=57
114840 Off ch=1 n=58 v=80
114840 Off ch=1 n=53 v=80
114840 Off ch=1 n=46 v=80
114960 On ch=1 n=58 v=57
114960 On ch=1 n=53 v=57
114960 On ch=1 n=46 v=57
115080 Off ch=1 n=58 v=80
115080 Off ch=1 n=53 v=80
115080 Off ch=1 n=46 v=80
115200 On ch=1 n=53 v=57
115200 On ch=1 n=48 v=57
115200 On ch=1 n=41 v=57
115320 Off ch=1 n=53 v=80
115320 Off ch=1 n=48 v=80
115320 Off ch=1 n=41 v=80
115440 On ch=1 n=53 v=57
115440 On ch=1 n=48 v=57
115440 On ch=1 n=41 v=57
115560 Off ch=1 n=53 v=80
115560 Off ch=1 n=48 v=80
115560 Off ch=1 n=41 v=80
115680 On ch=1 n=53 v=57
115680 On ch=1 n=48 v=57
115680 On ch=1 n=41 v=57
115800 Off ch=1 n=53 v=80
115800 Off ch=1 n=48 v=80
115800 Off ch=1 n=41 v=80
115920 On ch=1 n=53 v=57
115920 On ch=1 n=48 v=57
115920 On ch=1 n=41 v=57
116040 Off ch=1 n=53 v=80
116040 Off ch=1 n=48 v=80
116040 Off ch=1 n=41 v=80
116160 On ch=1 n=53 v=57
116160 On ch=1 n=48 v=57
116160 On ch=1 n=41 v=57
116280 Off ch=1 n=53 v=80
116280 Off ch=1 n=48 v=80
116280 Off ch=1 n=41 v=80
116400 On ch=1 n=53 v=57
116400 On ch=1 n=48 v=57
116400 On ch=1 n=41 v=57
116520 Off ch=1 n=53 v=80
116520 Off ch=1 n=48 v=80
116520 Off ch=1 n=41 v=80
116640 On ch=1 n=53 v=57
116640 On ch=1 n=48 v=57
116640 On ch=1 n=41 v=57
116760 Off ch=1 n=53 v=80
116760 Off ch=1 n=48 v=80
116760 Off ch=1 n=41 v=80
116880 On ch=1 n=53 v=57
116880 On ch=1 n=48 v=57
116880 On ch=1 n=41 v=57
117000 Off ch=1 n=53 v=80
117000 Off ch=1 n=48 v=80
117000 Off ch=1 n=41 v=80
117120 On ch=1 n=56 v=57
117120 On ch=1 n=51 v=57
117120 On ch=1 n=44 v=57
117240 Off ch=1 n=56 v=80
117240 Off ch=1 n=51 v=80
117240 Off ch=1 n=44 v=80
117360 On ch=1 n=56 v=57
117360 On ch=1 n=51 v=57
117360 On ch=1 n=44 v=57
117480 Off ch=1 n=56 v=80
117480 Off ch=1 n=51 v=80
117480 Off ch=1 n=44 v=80
117600 On ch=1 n=56 v=57
117600 On ch=1 n=51 v=57
117600 On ch=1 n=44 v=57
117720 Off ch=1 n=56 v=80
117720 Off ch=1 n=51 v=80
117720 Off ch=1 n=44 v=80
117840 On ch=1 n=56 v=57
117840 On ch=1 n=51 v=57
117840 On ch=1 n=44 v=57
117960 Off ch=1 n=56 v=80
117960 Off ch=1 n=51 v=80
117960 Off ch=1 n=44 v=80
118080 On ch=1 n=56 v=57
118080 On ch=1 n=51 v=57
118080 On ch=1 n=44 v=57
118200 Off ch=1 n=56 v=80
118200 Off ch=1 n=51 v=80
118200 Off ch=1 n=44 v=80
118320 On ch=1 n=56 v=57
118320 On ch=1 n=51 v=57
118320 On ch=1 n=44 v=57
118440 Off ch=1 n=56 v=80
118440 Off ch=1 n=51 v=80
118440 Off ch=1 n=44 v=80
118560 On ch=1 n=56 v=57
118560 On ch=1 n=51 v=57
118560 On ch=1 n=44 v=57
118680 Off ch=1 n=56 v=80
118680 Off ch=1 n=51 v=80
118680 Off ch=1 n=44 v=80
118800 On ch=1 n=56 v=57
118800 On ch=1 n=51 v=57
118800 On ch=1 n=44 v=57
118920 Off ch=1 n=56 v=80
118920 Off ch=1 n=51 v=80
118920 Off ch=1 n=44 v=80
119040 On ch=1 n=63 v=57
119040 On ch=1 n=58 v=57
119040 On ch=1 n=51 v=57
119160 Off ch=1 n=63 v=80
119160 Off ch=1 n=58 v=80
119160 Off ch=1 n=51 v=80
119280 On ch=1 n=63 v=57
119280 On ch=1 n=58 v=57
119280 On ch=1 n=51 v=57
119400 Off ch=1 n=63 v=80
119400 Off ch=1 n=58 v=80
119400 Off ch=1 n=51 v=80
119520 On ch=1 n=63 v=57
119520 On ch=1 n=58 v=57
119520 On ch=1 n=51 v=57
119640 Off ch=1 n=63 v=80
119640 Off ch=1 n=58 v=80
119640 Off ch=1 n=51 v=80
119760 On ch=1 n=63 v=57
119760 On ch=1 n=58 v=57
119760 On ch=1 n=51 v=57
119880 Off ch=1 n=63 v=80
119880 Off ch=1 n=58 v=80
119880 Off ch=1 n=51 v=80
120000 On ch=1 n=63 v=57
120000 On ch=1 n=58 v=57
120000 On ch=1 n=51 v=57
120120 Off ch=1 n=63 v=80
120120 Off ch=1 n=58 v=80
120120 Off ch=1 n=51 v=80
120240 On ch=1 n=63 v=57
120240 On ch=1 n=58 v=57
120240 On ch=1 n=51 v=57
120360 Off ch=1 n=63 v=80
120360 Off ch=1 n=58 v=80
120360 Off ch=1 n=51 v=80
120480 On ch=1 n=63 v=57
120480 On ch=1 n=58 v=57
120480 On ch=1 n=51 v=57
120600 Off ch=1 n=63 v=80
120600 Off ch=1 n=58 v=80
120600 Off ch=1 n=51 v=80
120720 On ch=1 n=63 v=57
120720 On ch=1 n=58 v=57
120720 On ch=1 n=51 v=57
120840 Off ch=1 n=63 v=80
120840 Off ch=1 n=58 v=80
120840 Off ch=1 n=51 v=80
120960 On ch=1 n=58 v=57
120960 On ch=1 n=53 v=57
120960 On ch=1 n=46 v=57
121080 Off ch=1 n=58 v=80
121080 Off ch=1 n=53 v=80
121080 Off ch=1 n=46 v=80
121200 On ch=1 n=58 v=57
121200 On ch=1 n=53 v=57
121200 On ch=1 n=46 v=57
121320 Off ch=1 n=58 v=80
121320 Off ch=1 n=53 v=80
121320 Off ch=1 n=46 v=80
121440 On ch=1 n=58 v=57
121440 On ch=1 n=53 v=57
121440 On ch=1 n=46 v=57
121560 Off ch=1 n=58 v=80
121560 Off ch=1 n=53 v=80
121560 Off ch=1 n=46 v=80
121680 On ch=1 n=58 v=57
121680 On ch=1 n=53 v=57
121680 On ch=1 n=46 v=57
121800 Off ch=1 n=58 v=80
121800 Off ch=1 n=53 v=80
121800 Off ch=1 n=46 v=80
121920 On ch=1 n=58 v=57
121920 On ch=1 n=53 v=57
121920 On ch=1 n=46 v=57
122040 Off ch=1 n=58 v=80
122040 Off ch=1 n=53 v=80
122040 Off ch=1 n=46 v=80
122160 On ch=1 n=58 v=57
122160 On ch=1 n=53 v=57
122160 On ch=1 n=46 v=57
122280 Off ch=1 n=58 v=80
122280 Off ch=1 n=53 v=80
122280 Off ch=1 n=46 v=80
122400 On ch=1 n=58 v=57
122400 On ch=1 n=53 v=57
122400 On ch=1 n=46 v=57
122520 Off ch=1 n=58 v=80
122520 Off ch=1 n=53 v=80
122520 Off ch=1 n=46 v=80
122640 On ch=1 n=58 v=57
122640 On ch=1 n=53 v=57
122640 On ch=1 n=46 v=57
122760 Off ch=1 n=58 v=80
122760 Off ch=1 n=53 v=80
122760 Off ch=1 n=46 v=80
122880 On ch=1 n=53 v=57
122880 On ch=1 n=48 v=57
122880 On ch=1 n=41 v=57
123000 Off ch=1 n=53 v=80
123000 Off ch=1 n=48 v=80
123000 Off ch=1 n=41 v=80
123120 On ch=1 n=53 v=57
123120 On ch=1 n=48 v=57
123120 On ch=1 n=41 v=57
123240 Off ch=1 n=53 v=80
123240 Off ch=1 n=48 v=80
123240 Off ch=1 n=41 v=80
123360 On ch=1 n=53 v=57
123360 On ch=1 n=48 v=57
123360 On ch=1 n=41 v=57
123480 Off ch=1 n=53 v=80
123480 Off ch=1 n=48 v=80
123480 Off ch=1 n=41 v=80
123600 On ch=1 n=53 v=57
123600 On ch=1 n=48 v=57
123600 On ch=1 n=41 v=57
123720 Off ch=1 n=53 v=80
123720 Off ch=1 n=48 v=80
123720 Off ch=1 n=41 v=80
123840 On ch=1 n=53 v=57
123840 On ch=1 n=48 v=57
123840 On ch=1 n=41 v=57
123960 Off ch=1 n=53 v=80
123960 Off ch=1 n=48 v=80
123960 Off ch=1 n=41 v=80
124080 On ch=1 n=53 v=57
124080 On ch=1 n=48 v=57
124080 On ch=1 n=41 v=57
124200 Off ch=1 n=53 v=80
124200 Off ch=1 n=48 v=80
124200 Off ch=1 n=41 v=80
124320 On ch=1 n=53 v=57
124320 On ch=1 n=48 v=57
124320 On ch=1 n=41 v=57
124440 Off ch=1 n=53 v=80
124440 Off ch=1 n=48 v=80
124440 Off ch=1 n=41 v=80
124560 On ch=1 n=53 v=57
124560 On ch=1 n=48 v=57
124560 On ch=1 n=41 v=57
124680 Off ch=1 n=53 v=80
124680 Off ch=1 n=48 v=80
124680 Off ch=1 n=41 v=80
124800 On ch=1 n=56 v=57
124800 On ch=1 n=51 v=57
124800 On ch=1 n=44 v=57
124920 Off ch=1 n=56 v=80
124920 Off ch=1 n=51 v=80
124920 Off ch=1 n=44 v=80
125040 On ch=1 n=56 v=57
125040 On ch=1 n=51 v=57
125040 On ch=1 n=44 v=57
125160 Off ch=1 n=56 v=80
125160 Off ch=1 n=51 v=80
125160 Off ch=1 n=44 v=80
125280 On ch=1 n=56 v=57
125280 On ch=1 n=51 v=57
125280 On ch=1 n=44 v=57
125400 Off ch=1 n=56 v=80
125400 Off ch=1 n=51 v=80
125400 Off ch=1 n=44 v=80
125520 On ch=1 n=56 v=57
125520 On ch=1 n=51 v=57
125520 On ch=1 n=44 v=57
125640 Off ch=1 n=56 v=80
125640 Off ch=1 n=51 v=80
125640 Off ch=1 n=44 v=80
125760 On ch=1 n=56 v=57
125760 On ch=1 n=51 v=57
125760 On ch=1 n=44 v=57
125880 Off ch=1 n=56 v=80
125880 Off ch=1 n=51 v=80
125880 Off ch=1 n=44 v=80
126000 On ch=1 n=56 v=57
126000 On ch=1 n=51 v=57
126000 On ch=1 n=44 v=57
126120 Off ch=1 n=56 v=80
126120 Off ch=1 n=51 v=80
126120 Off ch=1 n=44 v=80
126240 On ch=1 n=56 v=57
126240 On ch=1 n=51 v=57
126240 On ch=1 n=44 v=57
126360 Off ch=1 n=56 v=80
126360 Off ch=1 n=51 v=80
126360 Off ch=1 n=44 v=80
126480 On ch=1 n=56 v=57
126480 On ch=1 n=51 v=57
126480 On ch=1 n=44 v=57
126600 Off ch=1 n=56 v=80
126600 Off ch=1 n=51 v=80
126600 Off ch=1 n=44 v=80
126720 On ch=1 n=63 v=57
126720 On ch=1 n=58 v=57
126720 On ch=1 n=51 v=57
126840 Off ch=1 n=63 v=80
126840 Off ch=1 n=58 v=80
126840 Off ch=1 n=51 v=80
126960 On ch=1 n=63 v=57
126960 On ch=1 n=58 v=57
126960 On ch=1 n=51 v=57
127080 Off ch=1 n=63 v=80
127080 Off ch=1 n=58 v=80
127080 Off ch=1 n=51 v=80
127200 On ch=1 n=63 v=57
127200 On ch=1 n=58 v=57
127200 On ch=1 n=51 v=57
127320 Off ch=1 n=63 v=80
127320 Off ch=1 n=58 v=80
127320 Off ch=1 n=51 v=80
127440 On ch=1 n=63 v=57
127440 On ch=1 n=58 v=57
127440 On ch=1 n=51 v=57
127560 Off ch=1 n=63 v=80
127560 Off ch=1 n=58 v=80
127560 Off ch=1 n=51 v=80
127680 On ch=1 n=63 v=57
127680 On ch=1 n=58 v=57
127680 On ch=1 n=51 v=57
127800 Off ch=1 n=63 v=80
127800 Off ch=1 n=58 v=80
127800 Off ch=1 n=51 v=80
127920 On ch=1 n=63 v=57
127920 On ch=1 n=58 v=57
127920 On ch=1 n=51 v=57
128040 Off ch=1 n=63 v=80
128040 Off ch=1 n=58 v=80
128040 Off ch=1 n=51 v=80
128160 On ch=1 n=63 v=57
128160 On ch=1 n=58 v=57
128160 On ch=1 n=51 v=57
128280 Off ch=1 n=63 v=80
128280 Off ch=1 n=58 v=80
128280 Off ch=1 n=51 v=80
128400 On ch=1 n=63 v=57
128400 On ch=1 n=58 v=57
128400 On ch=1 n=51 v=57
128520 Off ch=1 n=63 v=80
128520 Off ch=1 n=58 v=80
128520 Off ch=1 n=51 v=80
128640 On ch=1 n=58 v=57
128640 On ch=1 n=53 v=57
128640 On ch=1 n=46 v=57
128760 Off ch=1 n=58 v=80
128760 Off ch=1 n=53 v=80
128760 Off ch=1 n=46 v=80
128880 On ch=1 n=58 v=57
128880 On ch=1 n=53 v=57
128880 On ch=1 n=46 v=57
129000 Off ch=1 n=58 v=80
129000 Off ch=1 n=53 v=80
129000 Off ch=1 n=46 v=80
129120 On ch=1 n=58 v=57
129120 On ch=1 n=53 v=57
129120 On ch=1 n=46 v=57
129240 Off ch=1 n=58 v=80
129240 Off ch=1 n=53 v=80
129240 Off ch=1 n=46 v=80
129360 On ch=1 n=58 v=57
129360 On ch=1 n=53 v=57
129360 On ch=1 n=46 v=57
129480 Off ch=1 n=58 v=80
129480 Off ch=1 n=53 v=80
129480 Off ch=1 n=46 v=80
129600 On ch=1 n=58 v=57
129600 On ch=1 n=53 v=57
129600 On ch=1 n=46 v=57
129720 Off ch=1 n=58 v=80
129720 Off ch=1 n=53 v=80
129720 Off ch=1 n=46 v=80
129840 On ch=1 n=58 v=57
129840 On ch=1 n=53 v=57
129840 On ch=1 n=46 v=57
129960 Off ch=1 n=58 v=80
129960 Off ch=1 n=53 v=80
129960 Off ch=1 n=46 v=80
130080 On ch=1 n=58 v=57
130080 On ch=1 n=53 v=57
130080 On ch=1 n=46 v=57
130200 Off ch=1 n=58 v=80
130200 Off ch=1 n=53 v=80
130200 Off ch=1 n=46 v=80
130320 On ch=1 n=58 v=57
130320 On ch=1 n=53 v=57
130320 On ch=1 n=46 v=57
130440 Off ch=1 n=58 v=80
130440 Off ch=1 n=53 v=80
130440 Off ch=1 n=46 v=80
130560 On ch=1 n=53 v=57
130560 On ch=1 n=48 v=57
130560 On ch=1 n=41 v=57
130680 Off ch=1 n=53 v=80
130680 Off ch=1 n=48 v=80
130680 Off ch=1 n=41 v=80
130800 On ch=1 n=53 v=57
130800 On ch=1 n=48 v=57
130800 On ch=1 n=41 v=57
130920 Off ch=1 n=53 v=80
130920 Off ch=1 n=48 v=80
130920 Off ch=1 n=41 v=80
131040 On ch=1 n=53 v=57
131040 On ch=1 n=48 v=57
131040 On ch=1 n=41 v=57
131160 Off ch=1 n=53 v=80
131160 Off ch=1 n=48 v=80
131160 Off ch=1 n=41 v=80
131280 On ch=1 n=53 v=57
131280 On ch=1 n=48 v=57
131280 On ch=1 n=41 v=57
131400 Off ch=1 n=53 v=80
131400 Off ch=1 n=48 v=80
131400 Off ch=1 n=41 v=80
131520 On ch=1 n=53 v=57
131520 On ch=1 n=48 v=57
131520 On ch=1 n=41 v=57
131640 Off ch=1 n=53 v=80
131640 Off ch=1 n=48 v=80
131640 Off ch=1 n=41 v=80
131760 On ch=1 n=53 v=57
131760 On ch=1 n=48 v=57
131760 On ch=1 n=41 v=57
131880 Off ch=1 n=53 v=80
131880 Off ch=1 n=48 v=80
131880 Off ch=1 n=41 v=80
132000 On ch=1 n=53 v=57
132000 On ch=1 n=48 v=57
132000 On ch=1 n=41 v=57
132120 Off ch=1 n=53 v=80
132120 Off ch=1 n=48 v=80
132120 Off ch=1 n=41 v=80
132240 On ch=1 n=53 v=57
132240 On ch=1 n=48 v=57
132240 On ch=1 n=41 v=57
132360 Off ch=1 n=53 v=80
132360 Off ch=1 n=48 v=80
132360 Off ch=1 n=41 v=80
132480 On ch=1 n=56 v=57
132480 On ch=1 n=51 v=57
132480 On ch=1 n=44 v=57
132600 Off ch=1 n=56 v=80
132600 Off ch=1 n=51 v=80
132600 Off ch=1 n=44 v=80
132720 On ch=1 n=56 v=57
132720 On ch=1 n=51 v=57
132720 On ch=1 n=44 v=57
132840 Off ch=1 n=56 v=80
132840 Off ch=1 n=51 v=80
132840 Off ch=1 n=44 v=80
132960 On ch=1 n=56 v=57
132960 On ch=1 n=51 v=57
132960 On ch=1 n=44 v=57
133080 Off ch=1 n=56 v=80
133080 Off ch=1 n=51 v=80
133080 Off ch=1 n=44 v=80
133200 On ch=1 n=56 v=57
133200 On ch=1 n=51 v=57
133200 On ch=1 n=44 v=57
133320 Off ch=1 n=56 v=80
133320 Off ch=1 n=51 v=80
133320 Off ch=1 n=44 v=80
133440 On ch=1 n=56 v=57
133440 On ch=1 n=51 v=57
133440 On ch=1 n=44 v=57
133560 Off ch=1 n=56 v=80
133560 Off ch=1 n=51 v=80
133560 Off ch=1 n=44 v=80
133680 On ch=1 n=56 v=57
133680 On ch=1 n=51 v=57
133680 On ch=1 n=44 v=57
133800 Off ch=1 n=56 v=80
133800 Off ch=1 n=51 v=80
133800 Off ch=1 n=44 v=80
133920 On ch=1 n=56 v=57
133920 On ch=1 n=51 v=57
133920 On ch=1 n=44 v=57
134040 Off ch=1 n=56 v=80
134040 Off ch=1 n=51 v=80
134040 Off ch=1 n=44 v=80
134160 On ch=1 n=56 v=57
134160 On ch=1 n=51 v=57
134160 On ch=1 n=44 v=57
134280 Off ch=1 n=56 v=80
134280 Off ch=1 n=51 v=80
134280 Off ch=1 n=44 v=80
134400 On ch=1 n=63 v=57
134400 On ch=1 n=58 v=57
134400 On ch=1 n=51 v=57
134520 Off ch=1 n=63 v=80
134520 Off ch=1 n=58 v=80
134520 Off ch=1 n=51 v=80
134640 On ch=1 n=63 v=57
134640 On ch=1 n=58 v=57
134640 On ch=1 n=51 v=57
134760 Off ch=1 n=63 v=80
134760 Off ch=1 n=58 v=80
134760 Off ch=1 n=51 v=80
134880 On ch=1 n=63 v=57
134880 On ch=1 n=58 v=57
134880 On ch=1 n=51 v=57
135000 Off ch=1 n=63 v=80
135000 Off ch=1 n=58 v=80
135000 Off ch=1 n=51 v=80
135120 On ch=1 n=63 v=57
135120 On ch=1 n=58 v=57
135120 On ch=1 n=51 v=57
135240 Off ch=1 n=63 v=80
135240 Off ch=1 n=58 v=80
135240 Off ch=1 n=51 v=80
135360 On ch=1 n=63 v=57
135360 On ch=1 n=58 v=57
135360 On ch=1 n=51 v=57
135480 Off ch=1 n=63 v=80
135480 Off ch=1 n=58 v=80
135480 Off ch=1 n=51 v=80
135600 On ch=1 n=63 v=57
135600 On ch=1 n=58 v=57
135600 On ch=1 n=51 v=57
135720 Off ch=1 n=63 v=80
135720 Off ch=1 n=58 v=80
135720 Off ch=1 n=51 v=80
135840 On ch=1 n=63 v=57
135840 On ch=1 n=58 v=57
135840 On ch=1 n=51 v=57
135960 Off ch=1 n=63 v=80
135960 Off ch=1 n=58 v=80
135960 Off ch=1 n=51 v=80
136080 On ch=1 n=63 v=57
136080 On ch=1 n=58 v=57
136080 On ch=1 n=51 v=57
136200 Off ch=1 n=63 v=80
136200 Off ch=1 n=58 v=80
136200 Off ch=1 n=51 v=80
136320 On ch=1 n=58 v=57
136320 On ch=1 n=53 v=57
136320 On ch=1 n=46 v=57
136440 Off ch=1 n=58 v=80
136440 Off ch=1 n=53 v=80
136440 Off ch=1 n=46 v=80
136560 On ch=1 n=58 v=57
136560 On ch=1 n=53 v=57
136560 On ch=1 n=46 v=57
136680 Off ch=1 n=58 v=80
136680 Off ch=1 n=53 v=80
136680 Off ch=1 n=46 v=80
136800 On ch=1 n=58 v=57
136800 On ch=1 n=53 v=57
136800 On ch=1 n=46 v=57
136920 Off ch=1 n=58 v=80
136920 Off ch=1 n=53 v=80
136920 Off ch=1 n=46 v=80
137040 On ch=1 n=58 v=57
137040 On ch=1 n=53 v=57
137040 On ch=1 n=46 v=57
137160 Off ch=1 n=58 v=80
137160 Off ch=1 n=53 v=80
137160 Off ch=1 n=46 v=80
137280 On ch=1 n=58 v=57
137280 On ch=1 n=53 v=57
137280 On ch=1 n=46 v=57
137400 Off ch=1 n=58 v=80
137400 Off ch=1 n=53 v=80
137400 Off ch=1 n=46 v=80
137520 On ch=1 n=58 v=57
137520 On ch=1 n=53 v=57
137520 On ch=1 n=46 v=57
137640 Off ch=1 n=58 v=80
137640 Off ch=1 n=53 v=80
137640 Off ch=1 n=46 v=80
137760 On ch=1 n=58 v=57
137760 On ch=1 n=53 v=57
137760 On ch=1 n=46 v=57
137880 Off ch=1 n=58 v=80
137880 Off ch=1 n=53 v=80
137880 Off ch=1 n=46 v=80
138000 On ch=1 n=58 v=57
138000 On ch=1 n=53 v=57
138000 On ch=1 n=46 v=57
138120 Off ch=1 n=58 v=80
138120 Off ch=1 n=53 v=80
138120 Off ch=1 n=46 v=80
138240 On ch=1 n=53 v=57
138240 On ch=1 n=48 v=57
138240 On ch=1 n=41 v=57
138360 Off ch=1 n=53 v=80
138360 Off ch=1 n=48 v=80
138360 Off ch=1 n=41 v=80
138480 On ch=1 n=53 v=57
138480 On ch=1 n=48 v=57
138480 On ch=1 n=41 v=57
138600 Off ch=1 n=53 v=80
138600 Off ch=1 n=48 v=80
138600 Off ch=1 n=41 v=80
138720 On ch=1 n=53 v=57
138720 On ch=1 n=48 v=57
138720 On ch=1 n=41 v=57
138840 Off ch=1 n=53 v=80
138840 Off ch=1 n=48 v=80
138840 Off ch=1 n=41 v=80
138960 On ch=1 n=53 v=57
138960 On ch=1 n=48 v=57
138960 On ch=1 n=41 v=57
139080 Off ch=1 n=53 v=80
139080 Off ch=1 n=48 v=80
139080 Off ch=1 n=41 v=80
139200 On ch=1 n=53 v=57
139200 On ch=1 n=48 v=57
139200 On ch=1 n=41 v=57
139320 Off ch=1 n=53 v=80
139320 Off ch=1 n=48 v=80
139320 Off ch=1 n=41 v=80
139440 On ch=1 n=53 v=57
139440 On ch=1 n=48 v=57
139440 On ch=1 n=41 v=57
139560 Off ch=1 n=53 v=80
139560 Off ch=1 n=48 v=80
139560 Off ch=1 n=41 v=80
139680 On ch=1 n=53 v=57
139680 On ch=1 n=48 v=57
139680 On ch=1 n=41 v=57
139800 Off ch=1 n=53 v=80
139800 Off ch=1 n=48 v=80
139800 Off ch=1 n=41 v=80
139920 On ch=1 n=53 v=57
139920 On ch=1 n=48 v=57
139920 On ch=1 n=41 v=57
140040 Off ch=1 n=53 v=80
140040 Off ch=1 n=48 v=80
140040 Off ch=1 n=41 v=80
140160 On ch=1 n=56 v=57
140160 On ch=1 n=51 v=57
140160 On ch=1 n=44 v=57
140280 Off ch=1 n=56 v=80
140280 Off ch=1 n=51 v=80
140280 Off ch=1 n=44 v=80
140400 On ch=1 n=56 v=57
140400 On ch=1 n=51 v=57
140400 On ch=1 n=44 v=57
140520 Off ch=1 n=56 v=80
140520 Off ch=1 n=51 v=80
140520 Off ch=1 n=44 v=80
140640 On ch=1 n=56 v=57
140640 On ch=1 n=51 v=57
140640 On ch=1 n=44 v=57
140760 Off ch=1 n=56 v=80
140760 Off ch=1 n=51 v=80
140760 Off ch=1 n=44 v=80
140880 On ch=1 n=56 v=57
140880 On ch=1 n=51 v=57
140880 On ch=1 n=44 v=57
141000 Off ch=1 n=56 v=80
141000 Off ch=1 n=51 v=80
141000 Off ch=1 n=44 v=80
141120 On ch=1 n=56 v=57
141120 On ch=1 n=51 v=57
141120 On ch=1 n=44 v=57
141240 Off ch=1 n=56 v=80
141240 Off ch=1 n=51 v=80
141240 Off ch=1 n=44 v=80
141360 On ch=1 n=56 v=57
141360 On ch=1 n=51 v=57
141360 On ch=1 n=44 v=57
141480 Off ch=1 n=56 v=80
141480 Off ch=1 n=51 v=80
141480 Off ch=1 n=44 v=80
141600 On ch=1 n=56 v=57
141600 On ch=1 n=51 v=57
141600 On ch=1 n=44 v=57
141720 Off ch=1 n=56 v=80
141720 Off ch=1 n=51 v=80
141720 Off ch=1 n=44 v=80
141840 On ch=1 n=56 v=57
141840 On ch=1 n=51 v=57
141840 On ch=1 n=44 v=57
141960 Off ch=1 n=56 v=80
141960 Off ch=1 n=51 v=80
141960 Off ch=1 n=44 v=80
142080 On ch=1 n=63 v=57
142080 On ch=1 n=58 v=57
142080 On ch=1 n=51 v=57
142200 Off ch=1 n=63 v=80
142200 Off ch=1 n=58 v=80
142200 Off ch=1 n=51 v=80
142320 On ch=1 n=63 v=57
142320 On ch=1 n=58 v=57
142320 On ch=1 n=51 v=57
142440 Off ch=1 n=63 v=80
142440 Off ch=1 n=58 v=80
142440 Off ch=1 n=51 v=80
142560 On ch=1 n=63 v=57
142560 On ch=1 n=58 v=57
142560 On ch=1 n=51 v=57
142680 Off ch=1 n=63 v=80
142680 Off ch=1 n=58 v=80
142680 Off ch=1 n=51 v=80
142800 On ch=1 n=63 v=57
142800 On ch=1 n=58 v=57
142800 On ch=1 n=51 v=57
142920 Off ch=1 n=63 v=80
142920 Off ch=1 n=58 v=80
142920 Off ch=1 n=51 v=80
143040 On ch=1 n=63 v=57
143040 On ch=1 n=58 v=57
143040 On ch=1 n=51 v=57
143160 Off ch=1 n=63 v=80
143160 Off ch=1 n=58 v=80
143160 Off ch=1 n=51 v=80
143280 On ch=1 n=63 v=57
143280 On ch=1 n=58 v=57
143280 On ch=1 n=51 v=57
143400 Off ch=1 n=63 v=80
143400 Off ch=1 n=58 v=80
143400 Off ch=1 n=51 v=80
143520 On ch=1 n=63 v=57
143520 On ch=1 n=58 v=57
143520 On ch=1 n=51 v=57
143640 Off ch=1 n=63 v=80
143640 Off ch=1 n=58 v=80
143640 Off ch=1 n=51 v=80
143760 On ch=1 n=63 v=57
143760 On ch=1 n=58 v=57
143760 On ch=1 n=51 v=57
143880 Off ch=1 n=63 v=80
143880 Off ch=1 n=58 v=80
143880 Off ch=1 n=51 v=80
144000 On ch=1 n=58 v=57
144000 On ch=1 n=53 v=57
144000 On ch=1 n=46 v=57
144120 Off ch=1 n=58 v=80
144120 Off ch=1 n=53 v=80
144120 Off ch=1 n=46 v=80
144240 On ch=1 n=58 v=57
144240 On ch=1 n=53 v=57
144240 On ch=1 n=46 v=57
144360 Off ch=1 n=58 v=80
144360 Off ch=1 n=53 v=80
144360 Off ch=1 n=46 v=80
144480 On ch=1 n=58 v=57
144480 On ch=1 n=53 v=57
144480 On ch=1 n=46 v=57
144600 Off ch=1 n=58 v=80
144600 Off ch=1 n=53 v=80
144600 Off ch=1 n=46 v=80
144720 On ch=1 n=58 v=57
144720 On ch=1 n=53 v=57
144720 On ch=1 n=46 v=57
144840 Off ch=1 n=58 v=80
144840 Off ch=1 n=53 v=80
144840 Off ch=1 n=46 v=80
144960 On ch=1 n=58 v=57
144960 On ch=1 n=53 v=57
144960 On ch=1 n=46 v=57
145080 Off ch=1 n=58 v=80
145080 Off ch=1 n=53 v=80
145080 Off ch=1 n=46 v=80
145200 On ch=1 n=58 v=57
145200 On ch=1 n=53 v=57
145200 On ch=1 n=46 v=57
145320 Off ch=1 n=58 v=80
145320 Off ch=1 n=53 v=80
145320 Off ch=1 n=46 v=80
145440 On ch=1 n=58 v=57
145440 On ch=1 n=53 v=57
145440 On ch=1 n=46 v=57
145560 Off ch=1 n=58 v=80
145560 Off ch=1 n=53 v=80
145560 Off ch=1 n=46 v=80
145680 On ch=1 n=58 v=57
145680 On ch=1 n=53 v=57
145680 On ch=1 n=46 v=57
145800 Off ch=1 n=58 v=80
145800 Off ch=1 n=53 v=80
145800 Off ch=1 n=46 v=80
145920 On ch=1 n=53 v=57
145920 On ch=1 n=48 v=57
145920 On ch=1 n=41 v=57
146040 Off ch=1 n=53 v=80
146040 Off ch=1 n=48 v=80
146040 Off ch=1 n=41 v=80
146160 On ch=1 n=53 v=57
146160 On ch=1 n=48 v=57
146160 On ch=1 n=41 v=57
146280 Off ch=1 n=53 v=80
146280 Off ch=1 n=48 v=80
146280 Off ch=1 n=41 v=80
146400 On ch=1 n=53 v=57
146400 On ch=1 n=48 v=57
146400 On ch=1 n=41 v=57
146520 Off ch=1 n=53 v=80
146520 Off ch=1 n=48 v=80
146520 Off ch=1 n=41 v=80
146640 On ch=1 n=53 v=57
146640 On ch=1 n=48 v=57
146640 On ch=1 n=41 v=57
146760 Off ch=1 n=53 v=80
146760 Off ch=1 n=48 v=80
146760 Off ch=1 n=41 v=80
146880 On ch=1 n=53 v=57
146880 On ch=1 n=48 v=57
146880 On ch=1 n=41 v=57
147000 Off ch=1 n=53 v=80
147000 Off ch=1 n=48 v=80
147000 Off ch=1 n=41 v=80
147120 On ch=1 n=53 v=57
147120 On ch=1 n=48 v=57
147120 On ch=1 n=41 v=57
147240 Off ch=1 n=53 v=80
147240 Off ch=1 n=48 v=80
147240 Off ch=1 n=41 v=80
147360 On ch=1 n=53 v=57
147360 On ch=1 n=48 v=57
147360 On ch=1 n=41 v=57
147480 Off ch=1 n=53 v=80
147480 Off ch=1 n=48 v=80
147480 Off ch=1 n=41 v=80
147600 On ch=1 n=53 v=57
147600 On ch=1 n=48 v=57
147600 On ch=1 n=41 v=57
147720 Off ch=1 n=53 v=80
147720 Off ch=1 n=48 v=80
147720 Off ch=1 n=41 v=80
147840 On ch=1 n=56 v=57
147840 On ch=1 n=51 v=57
147840 On ch=1 n=44 v=57
147960 Off ch=1 n=56 v=80
147960 Off ch=1 n=51 v=80
147960 Off ch=1 n=44 v=80
148080 On ch=1 n=56 v=57
148080 On ch=1 n=51 v=57
148080 On ch=1 n=44 v=57
148200 Off ch=1 n=56 v=80
148200 Off ch=1 n=51 v=80
148200 Off ch=1 n=44 v=80
148320 On ch=1 n=56 v=57
148320 On ch=1 n=51 v=57
148320 On ch=1 n=44 v=57
148440 Off ch=1 n=56 v=80
148440 Off ch=1 n=51 v=80
148440 Off ch=1 n=44 v=80
148560 On ch=1 n=56 v=57
148560 On ch=1 n=51 v=57
148560 On ch=1 n=44 v=57
148680 Off ch=1 n=56 v=80
148680 Off ch=1 n=51 v=80
148680 Off ch=1 n=44 v=80
148800 On ch=1 n=56 v=57
148800 On ch=1 n=51 v=57
148800 On ch=1 n=44 v=57
148920 Off ch=1 n=56 v=80
148920 Off ch=1 n=51 v=80
148920 Off ch=1 n=44 v=80
149040 On ch=1 n=56 v=57
149040 On ch=1 n=51 v=57
149040 On ch=1 n=44 v=57
149160 Off ch=1 n=56 v=80
149160 Off ch=1 n=51 v=80
149160 Off ch=1 n=44 v=80
149280 On ch=1 n=56 v=57
149280 On ch=1 n=51 v=57
149280 On ch=1 n=44 v=57
149400 Off ch=1 n=56 v=80
149400 Off ch=1 n=51 v=80
149400 Off ch=1 n=44 v=80
149520 On ch=1 n=56 v=57
149520 On ch=1 n=51 v=57
149520 On ch=1 n=44 v=57
149640 Off ch=1 n=56 v=80
149640 Off ch=1 n=51 v=80
149640 Off ch=1 n=44 v=80
149760 On ch=1 n=63 v=57
149760 On ch=1 n=58 v=57
149760 On ch=1 n=51 v=57
149880 Off ch=1 n=63 v=80
149880 Off ch=1 n=58 v=80
149880 Off ch=1 n=51 v=80
150000 On ch=1 n=63 v=57
150000 On ch=1 n=58 v=57
150000 On ch=1 n=51 v=57
150120 Off ch=1 n=63 v=80
150120 Off ch=1 n=58 v=80
150120 Off ch=1 n=51 v=80
150240 On ch=1 n=63 v=57
150240 On ch=1 n=58 v=57
150240 On ch=1 n=51 v=57
150360 Off ch=1 n=63 v=80
150360 Off ch=1 n=58 v=80
150360 Off ch=1 n=51 v=80
150480 On ch=1 n=63 v=57
150480 On ch=1 n=58 v=57
150480 On ch=1 n=51 v=57
150600 Off ch=1 n=63 v=80
150600 Off ch=1 n=58 v=80
150600 Off ch=1 n=51 v=80
150720 On ch=1 n=63 v=57
150720 On ch=1 n=58 v=57
150720 On ch=1 n=51 v=57
150840 Off ch=1 n=63 v=80
150840 Off ch=1 n=58 v=80
150840 Off ch=1 n=51 v=80
150960 On ch=1 n=63 v=57
150960 On ch=1 n=58 v=57
150960 On ch=1 n=51 v=57
151080 Off ch=1 n=63 v=80
151080 Off ch=1 n=58 v=80
151080 Off ch=1 n=51 v=80
151200 On ch=1 n=63 v=57
151200 On ch=1 n=58 v=57
151200 On ch=1 n=51 v=57
151320 Off ch=1 n=63 v=80
151320 Off ch=1 n=58 v=80
151320 Off ch=1 n=51 v=80
151440 On ch=1 n=63 v=57
151440 On ch=1 n=58 v=57
151440 On ch=1 n=51 v=57
151560 Off ch=1 n=63 v=80
151560 Off ch=1 n=58 v=80
151560 Off ch=1 n=51 v=80
151680 On ch=1 n=58 v=57
151680 On ch=1 n=53 v=57
151680 On ch=1 n=46 v=57
151800 Off ch=1 n=58 v=80
151800 Off ch=1 n=53 v=80
151800 Off ch=1 n=46 v=80
151920 On ch=1 n=58 v=57
151920 On ch=1 n=53 v=57
151920 On ch=1 n=46 v=57
152040 Off ch=1 n=58 v=80
152040 Off ch=1 n=53 v=80
152040 Off ch=1 n=46 v=80
152160 On ch=1 n=58 v=57
152160 On ch=1 n=53 v=57
152160 On ch=1 n=46 v=57
152280 Off ch=1 n=58 v=80
152280 Off ch=1 n=53 v=80
152280 Off ch=1 n=46 v=80
152400 On ch=1 n=58 v=57
152400 On ch=1 n=53 v=57
152400 On ch=1 n=46 v=57
152520 Off ch=1 n=58 v=80
152520 Off ch=1 n=53 v=80
152520 Off ch=1 n=46 v=80
152640 On ch=1 n=58 v=57
152640 On ch=1 n=53 v=57
152640 On ch=1 n=46 v=57
152760 Off ch=1 n=58 v=80
152760 Off ch=1 n=53 v=80
152760 Off ch=1 n=46 v=80
152880 On ch=1 n=58 v=57
152880 On ch=1 n=53 v=57
152880 On ch=1 n=46 v=57
153000 Off ch=1 n=58 v=80
153000 Off ch=1 n=53 v=80
153000 Off ch=1 n=46 v=80
153120 On ch=1 n=58 v=57
153120 On ch=1 n=53 v=57
153120 On ch=1 n=46 v=57
153240 Off ch=1 n=58 v=80
153240 Off ch=1 n=53 v=80
153240 Off ch=1 n=46 v=80
153360 On ch=1 n=58 v=57
153360 On ch=1 n=53 v=57
153360 On ch=1 n=46 v=57
153480 Off ch=1 n=58 v=80
153480 Off ch=1 n=53 v=80
153480 Off ch=1 n=46 v=80
153600 On ch=1 n=53 v=57
153600 On ch=1 n=48 v=57
153600 On ch=1 n=41 v=57
153720 Off ch=1 n=53 v=80
153720 Off ch=1 n=48 v=80
153720 Off ch=1 n=41 v=80
153840 On ch=1 n=53 v=57
153840 On ch=1 n=48 v=57
153840 On ch=1 n=41 v=57
153960 Off ch=1 n=53 v=80
153960 Off ch=1 n=48 v=80
153960 Off ch=1 n=41 v=80
154080 On ch=1 n=53 v=57
154080 On ch=1 n=48 v=57
154080 On ch=1 n=41 v=57
154200 Off ch=1 n=53 v=80
154200 Off ch=1 n=48 v=80
154200 Off ch=1 n=41 v=80
154320 On ch=1 n=53 v=57
154320 On ch=1 n=48 v=57
154320 On ch=1 n=41 v=57
154440 Off ch=1 n=53 v=80
154440 Off ch=1 n=48 v=80
154440 Off ch=1 n=41 v=80
154560 On ch=1 n=53 v=57
154560 On ch=1 n=48 v=57
154560 On ch=1 n=41 v=57
154680 Off ch=1 n=53 v=80
154680 Off ch=1 n=48 v=80
154680 Off ch=1 n=41 v=80
154800 On ch=1 n=53 v=57
154800 On ch=1 n=48 v=57
154800 On ch=1 n=41 v=57
154920 Off ch=1 n=53 v=80
154920 Off ch=1 n=48 v=80
154920 Off ch=1 n=41 v=80
155040 On ch=1 n=53 v=57
155040 On ch=1 n=48 v=57
155040 On ch=1 n=41 v=57
155160 Off ch=1 n=53 v=80
155160 Off ch=1 n=48 v=80
155160 Off ch=1 n=41 v=80
155280 On ch=1 n=53 v=57
155280 On ch=1 n=48 v=57
155280 On ch=1 n=41 v=57
155400 Off ch=1 n=53 v=80
155400 Off ch=1 n=48 v=80
155400 Off ch=1 n=41 v=80
155520 On ch=1 n=56 v=57
155520 On ch=1 n=51 v=57
155520 On ch=1 n=44 v=57
155640 Off ch=1 n=56 v=80
155640 Off ch=1 n=51 v=80
155640 Off ch=1 n=44 v=80
155760 On ch=1 n=56 v=57
155760 On ch=1 n=51 v=57
155760 On ch=1 n=44 v=57
155880 Off ch=1 n=56 v=80
155880 Off ch=1 n=51 v=80
155880 Off ch=1 n=44 v=80
156000 On ch=1 n=56 v=57
156000 On ch=1 n=51 v=57
156000 On ch=1 n=44 v=57
156120 Off ch=1 n=56 v=80
156120 Off ch=1 n=51 v=80
156120 Off ch=1 n=44 v=80
156240 On ch=1 n=56 v=57
156240 On ch=1 n=51 v=57
156240 On ch=1 n=44 v=57
156360 Off ch=1 n=56 v=80
156360 Off ch=1 n=51 v=80
156360 Off ch=1 n=44 v=80
156480 On ch=1 n=56 v=57
156480 On ch=1 n=51 v=57
156480 On ch=1 n=44 v=57
156600 Off ch=1 n=56 v=80
156600 Off ch=1 n=51 v=80
156600 Off ch=1 n=44 v=80
156720 On ch=1 n=56 v=57
156720 On ch=1 n=51 v=57
156720 On ch=1 n=44 v=57
156840 Off ch=1 n=56 v=80
156840 Off ch=1 n=51 v=80
156840 Off ch=1 n=44 v=80
156960 On ch=1 n=56 v=57
156960 On ch=1 n=51 v=57
156960 On ch=1 n=44 v=57
157080 Off ch=1 n=56 v=80
157080 Off ch=1 n=51 v=80
157080 Off ch=1 n=44 v=80
157200 On ch=1 n=56 v=57
157200 On ch=1 n=51 v=57
157200 On ch=1 n=44 v=57
157320 Off ch=1 n=56 v=80
157320 Off ch=1 n=51 v=80
157320 Off ch=1 n=44 v=80
157440 On ch=1 n=63 v=57
157440 On ch=1 n=58 v=57
157440 On ch=1 n=51 v=57
157560 Off ch=1 n=63 v=80
157560 Off ch=1 n=58 v=80
157560 Off ch=1 n=51 v=80
157680 On ch=1 n=63 v=57
157680 On ch=1 n=58 v=57
157680 On ch=1 n=51 v=57
157800 Off ch=1 n=63 v=80
157800 Off ch=1 n=58 v=80
157800 Off ch=1 n=51 v=80
157920 On ch=1 n=63 v=57
157920 On ch=1 n=58 v=57
157920 On ch=1 n=51 v=57
158040 Off ch=1 n=63 v=80
158040 Off ch=1 n=58 v=80
158040 Off ch=1 n=51 v=80
158160 On ch=1 n=63 v=57
158160 On ch=1 n=58 v=57
158160 On ch=1 n=51 v=57
158280 Off ch=1 n=63 v=80
158280 Off ch=1 n=58 v=80
158280 Off ch=1 n=51 v=80
158400 On ch=1 n=63 v=57
158400 On ch=1 n=58 v=57
158400 On ch=1 n=51 v=57
158520 Off ch=1 n=63 v=80
158520 Off ch=1 n=58 v=80
158520 Off ch=1 n=51 v=80
158640 On ch=1 n=63 v=57
158640 On ch=1 n=58 v=57
158640 On ch=1 n=51 v=57
158760 Off ch=1 n=63 v=80
158760 Off ch=1 n=58 v=80
158760 Off ch=1 n=51 v=80
158880 On ch=1 n=63 v=57
158880 On ch=1 n=58 v=57
158880 On ch=1 n=51 v=57
159000 Off ch=1 n=63 v=80
159000 Off ch=1 n=58 v=80
159000 Off ch=1 n=51 v=80
159120 On ch=1 n=63 v=57
159120 On ch=1 n=58 v=57
159120 On ch=1 n=51 v=57
159240 Off ch=1 n=63 v=80
159240 Off ch=1 n=58 v=80
159240 Off ch=1 n=51 v=80
159360 On ch=1 n=58 v=57
159360 On ch=1 n=53 v=57
159360 On ch=1 n=46 v=57
159480 Off ch=1 n=58 v=80
159480 Off ch=1 n=53 v=80
159480 Off ch=1 n=46 v=80
159600 On ch=1 n=58 v=57
159600 On ch=1 n=53 v=57
159600 On ch=1 n=46 v=57
159720 Off ch=1 n=58 v=80
159720 Off ch=1 n=53 v=80
159720 Off ch=1 n=46 v=80
159840 On ch=1 n=58 v=57
159840 On ch=1 n=53 v=57
159840 On ch=1 n=46 v=57
159960 Off ch=1 n=58 v=80
159960 Off ch=1 n=53 v=80
159960 Off ch=1 n=46 v=80
160080 On ch=1 n=58 v=57
160080 On ch=1 n=53 v=57
160080 On ch=1 n=46 v=57
160200 Off ch=1 n=58 v=80
160200 Off ch=1 n=53 v=80
160200 Off ch=1 n=46 v=80
160320 On ch=1 n=58 v=57
160320 On ch=1 n=53 v=57
160320 On ch=1 n=46 v=57
160440 Off ch=1 n=58 v=80
160440 Off ch=1 n=53 v=80
160440 Off ch=1 n=46 v=80
160560 On ch=1 n=58 v=57
160560 On ch=1 n=53 v=57
160560 On ch=1 n=46 v=57
160680 Off ch=1 n=58 v=80
160680 Off ch=1 n=53 v=80
160680 Off ch=1 n=46 v=80
160800 On ch=1 n=58 v=57
160800 On ch=1 n=53 v=57
160800 On ch=1 n=46 v=57
160920 Off ch=1 n=58 v=80
160920 Off ch=1 n=53 v=80
160920 Off ch=1 n=46 v=80
161040 On ch=1 n=58 v=57
161040 On ch=1 n=53 v=57
161040 On ch=1 n=46 v=57
161160 Off ch=1 n=58 v=80
161160 Off ch=1 n=53 v=80
161160 Off ch=1 n=46 v=80
161280 On ch=1 n=53 v=57
161280 On ch=1 n=48 v=57
161280 On ch=1 n=41 v=57
161400 Off ch=1 n=53 v=80
161400 Off ch=1 n=48 v=80
161400 Off ch=1 n=41 v=80
161520 On ch=1 n=53 v=57
161520 On ch=1 n=48 v=57
161520 On ch=1 n=41 v=57
161640 Off ch=1 n=53 v=80
161640 Off ch=1 n=48 v=80
161640 Off ch=1 n=41 v=80
161760 On ch=1 n=53 v=57
161760 On ch=1 n=48 v=57
161760 On ch=1 n=41 v=57
161880 Off ch=1 n=53 v=80
161880 Off ch=1 n=48 v=80
161880 Off ch=1 n=41 v=80
162000 On ch=1 n=53 v=57
162000 On ch=1 n=48 v=57
162000 On ch=1 n=41 v=57
162120 Off ch=1 n=53 v=80
162120 Off ch=1 n=48 v=80
162120 Off ch=1 n=41 v=80
162240 On ch=1 n=53 v=57
162240 On ch=1 n=48 v=57
162240 On ch=1 n=41 v=57
162360 Off ch=1 n=53 v=80
162360 Off ch=1 n=48 v=80
162360 Off ch=1 n=41 v=80
162480 On ch=1 n=53 v=57
162480 On ch=1 n=48 v=57
162480 On ch=1 n=41 v=57
162600 Off ch=1 n=53 v=80
162600 Off ch=1 n=48 v=80
162600 Off ch=1 n=41 v=80
162720 On ch=1 n=53 v=57
162720 On ch=1 n=48 v=57
162720 On ch=1 n=41 v=57
162840 Off ch=1 n=53 v=80
162840 Off ch=1 n=48 v=80
162840 Off ch=1 n=41 v=80
162960 On ch=1 n=53 v=57
162960 On ch=1 n=48 v=57
162960 On ch=1 n=41 v=57
163080 Off ch=1 n=53 v=80
163080 Off ch=1 n=48 v=80
163080 Off ch=1 n=41 v=80
163200 On ch=1 n=56 v=57
163200 On ch=1 n=51 v=57
163200 On ch=1 n=44 v=57
163320 Off ch=1 n=56 v=80
163320 Off ch=1 n=51 v=80
163320 Off ch=1 n=44 v=80
163440 On ch=1 n=56 v=57
163440 On ch=1 n=51 v=57
163440 On ch=1 n=44 v=57
163560 Off ch=1 n=56 v=80
163560 Off ch=1 n=51 v=80
163560 Off ch=1 n=44 v=80
163680 On ch=1 n=56 v=57
163680 On ch=1 n=51 v=57
163680 On ch=1 n=44 v=57
163800 Off ch=1 n=56 v=80
163800 Off ch=1 n=51 v=80
163800 Off ch=1 n=44 v=80
163920 On ch=1 n=56 v=57
163920 On ch=1 n=51 v=57
163920 On ch=1 n=44 v=57
164040 Off ch=1 n=56 v=80
164040 Off ch=1 n=51 v=80
164040 Off ch=1 n=44 v=80
164160 On ch=1 n=56 v=57
164160 On ch=1 n=51 v=57
164160 On ch=1 n=44 v=57
164280 Off ch=1 n=56 v=80
164280 Off ch=1 n=51 v=80
164280 Off ch=1 n=44 v=80
164400 On ch=1 n=56 v=57
164400 On ch=1 n=51 v=57
164400 On ch=1 n=44 v=57
164520 Off ch=1 n=56 v=80
164520 Off ch=1 n=51 v=80
164520 Off ch=1 n=44 v=80
164640 On ch=1 n=56 v=57
164640 On ch=1 n=51 v=57
164640 On ch=1 n=44 v=57
164760 Off ch=1 n=56 v=80
164760 Off ch=1 n=51 v=80
164760 Off ch=1 n=44 v=80
164880 On ch=1 n=56 v=57
164880 On ch=1 n=51 v=57
164880 On ch=1 n=44 v=57
165000 Off ch=1 n=56 v=80
165000 Off ch=1 n=51 v=80
165000 Off ch=1 n=44 v=80
165120 On ch=1 n=63 v=57
165120 On ch=1 n=58 v=57
165120 On ch=1 n=51 v=57
165240 Off ch=1 n=63 v=80
165240 Off ch=1 n=58 v=80
165240 Off ch=1 n=51 v=80
165360 On ch=1 n=63 v=57
165360 On ch=1 n=58 v=57
165360 On ch=1 n=51 v=57
165480 Off ch=1 n=63 v=80
165480 Off ch=1 n=58 v=80
165480 Off ch=1 n=51 v=80
165600 On ch=1 n=63 v=57
165600 On ch=1 n=58 v=57
165600 On ch=1 n=51 v=57
165720 Off ch=1 n=63 v=80
165720 Off ch=1 n=58 v=80
165720 Off ch=1 n=51 v=80
165840 On ch=1 n=63 v=57
165840 On ch=1 n=58 v=57
165840 On ch=1 n=51 v=57
165960 Off ch=1 n=63 v=80
165960 Off ch=1 n=58 v=80
165960 Off ch=1 n=51 v=80
166080 On ch=1 n=63 v=57
166080 On ch=1 n=58 v=57
166080 On ch=1 n=51 v=57
166200 Off ch=1 n=63 v=80
166200 Off ch=1 n=58 v=80
166200 Off ch=1 n=51 v=80
166320 On ch=1 n=63 v=57
166320 On ch=1 n=58 v=57
166320 On ch=1 n=51 v=57
166440 Off ch=1 n=63 v=80
166440 Off ch=1 n=58 v=80
166440 Off ch=1 n=51 v=80
166560 On ch=1 n=63 v=57
166560 On ch=1 n=58 v=57
166560 On ch=1 n=51 v=57
166680 Off ch=1 n=63 v=80
166680 Off ch=1 n=58 v=80
166680 Off ch=1 n=51 v=80
166800 On ch=1 n=63 v=57
166800 On ch=1 n=58 v=57
166800 On ch=1 n=51 v=57
166920 Off ch=1 n=63 v=80
166920 Off ch=1 n=58 v=80
166920 Off ch=1 n=51 v=80
167040 PrCh ch=1 p=29
167040 PrCh ch=2 p=29
167040 Par ch=1 c=7 v=104
167040 Par ch=2 c=7 v=104
167040 On ch=1 n=58 v=95
167040 On ch=1 n=53 v=95
167040 On ch=1 n=46 v=95
167520 Off ch=1 n=58 v=80
167520 Off ch=1 n=53 v=80
167520 Off ch=1 n=46 v=80
167520 On ch=1 n=58 v=95
167520 On ch=1 n=53 v=95
167520 On ch=1 n=46 v=95
168000 Off ch=1 n=58 v=80
168000 Off ch=1 n=53 v=80
168000 Off ch=1 n=46 v=80
168000 On ch=1 n=58 v=95
168000 On ch=1 n=53 v=95
168000 On ch=1 n=46 v=95
168480 Off ch=1 n=58 v=80
168480 Off ch=1 n=53 v=80
168480 Off ch=1 n=46 v=80
168480 On ch=1 n=60 v=95
168480 On ch=1 n=55 v=95
168480 On ch=1 n=48 v=95
168960 Off ch=1 n=60 v=80
168960 Off ch=1 n=55 v=80
168960 Off ch=1 n=48 v=80
168960 PrCh ch=1 p=29
168960 PrCh ch=2 p=29
168960 Par ch=1 c=7 v=104
168960 Par ch=2 c=7 v=104
168960 On ch=1 n=61 v=95
168960 On ch=1 n=56 v=95
168960 On ch=1 n=49 v=95
169440 Off ch=1 n=61 v=80
169440 Off ch=1 n=56 v=80
169440 Off ch=1 n=49 v=80
169440 On ch=1 n=61 v=95
169440 On ch=1 n=56 v=95
169440 On ch=1 n=49 v=95
169920 Off ch=1 n=61 v=80
169920 Off ch=1 n=56 v=80
169920 Off ch=1 n=49 v=80
169920 On ch=1 n=61 v=95
169920 On ch=1 n=56 v=95
169920 On ch=1 n=49 v=95
170400 Off ch=1 n=61 v=80
170400 Off ch=1 n=56 v=80
170400 Off ch=1 n=49 v=80
170400 On ch=1 n=61 v=95
170400 On ch=1 n=56 v=95
170400 On ch=1 n=49 v=95
170640 Off ch=1 n=61 v=80
170640 Off ch=1 n=56 v=80
170640 Off ch=1 n=49 v=80
170640 On ch=1 n=61 v=95
170640 On ch=1 n=56 v=95
170640 On ch=1 n=49 v=95
170880 Off ch=1 n=61 v=80
170880 Off ch=1 n=56 v=80
170880 Off ch=1 n=49 v=80
170880 On ch=1 n=56 v=95
170880 On ch=1 n=51 v=95
170880 On ch=1 n=44 v=95
171360 Off ch=1 n=56 v=80
171360 Off ch=1 n=51 v=80
171360 Off ch=1 n=44 v=80
171360 On ch=1 n=56 v=95
171360 On ch=1 n=51 v=95
171360 On ch=1 n=44 v=95
171840 Off ch=1 n=56 v=80
171840 Off ch=1 n=51 v=80
171840 Off ch=1 n=44 v=80
171840 On ch=1 n=56 v=95
171840 On ch=1 n=51 v=95
171840 On ch=1 n=44 v=95
172320 Off ch=1 n=56 v=80
172320 Off ch=1 n=51 v=80
172320 Off ch=1 n=44 v=80
172320 On ch=1 n=56 v=95
172320 On ch=1 n=51 v=95
172320 On ch=1 n=44 v=95
172560 Off ch=1 n=56 v=80
172560 Off ch=1 n=51 v=80
172560 Off ch=1 n=44 v=80
172560 On ch=1 n=56 v=95
172560 On ch=1 n=51 v=95
172560 On ch=1 n=44 v=95
172800 Off ch=1 n=56 v=80
172800 Off ch=1 n=51 v=80
172800 Off ch=1 n=44 v=80
172800 On ch=1 n=63 v=95
172800 On ch=1 n=58 v=95
172800 On ch=1 n=51 v=95
173280 Off ch=1 n=63 v=80
173280 Off ch=1 n=58 v=80
173280 Off ch=1 n=51 v=80
173280 On ch=1 n=63 v=95
173280 On ch=1 n=58 v=95
173280 On ch=1 n=51 v=95
173760 Off ch=1 n=63 v=80
173760 Off ch=1 n=58 v=80
173760 Off ch=1 n=51 v=80
173760 On ch=1 n=63 v=95
173760 On ch=1 n=58 v=95
173760 On ch=1 n=51 v=95
174240 Off ch=1 n=63 v=80
174240 Off ch=1 n=58 v=80
174240 Off ch=1 n=51 v=80
174240 On ch=1 n=63 v=95
174240 On ch=1 n=58 v=95
174240 On ch=1 n=51 v=95
174480 Off ch=1 n=63 v=80
174480 Off ch=1 n=58 v=80
174480 Off ch=1 n=51 v=80
174480 On ch=1 n=63 v=95
174480 On ch=1 n=58 v=95
174480 On ch=1 n=51 v=95
174720 Off ch=1 n=63 v=80
174720 Off ch=1 n=58 v=80
174720 Off ch=1 n=51 v=80
174720 On ch=1 n=53 v=95
174720 On ch=1 n=48 v=95
174720 On ch=1 n=41 v=95
175200 Off ch=1 n=53 v=80
175200 Off ch=1 n=48 v=80
175200 Off ch=1 n=41 v=80
175200 On ch=1 n=53 v=95
175200 On ch=1 n=48 v=95
175200 On ch=1 n=41 v=95
175680 Off ch=1 n=53 v=80
175680 Off ch=1 n=48 v=80
175680 Off ch=1 n=41 v=80
175680 On ch=1 n=53 v=95
175680 On ch=1 n=48 v=95
175680 On ch=1 n=41 v=95
176160 Off ch=1 n=53 v=80
176160 Off ch=1 n=48 v=80
176160 Off ch=1 n=41 v=80
176160 On ch=1 n=53 v=95
176160 On ch=1 n=48 v=95
176160 On ch=1 n=41 v=95
176400 Off ch=1 n=53 v=80
176400 Off ch=1 n=48 v=80
176400 Off ch=1 n=41 v=80
176400 On ch=1 n=53 v=95
176400 On ch=1 n=48 v=95
176400 On ch=1 n=41 v=95
176640 Off ch=1 n=53 v=80
176640 Off ch=1 n=48 v=80
176640 Off ch=1 n=41 v=80
176640 On ch=1 n=61 v=95
176640 On ch=1 n=56 v=95
176640 On ch=1 n=49 v=95
177120 Off ch=1 n=61 v=80
177120 Off ch=1 n=56 v=80
177120 Off ch=1 n=49 v=80
177120 On ch=1 n=61 v=95
177120 On ch=1 n=56 v=95
177120 On ch=1 n=49 v=95
177600 Off ch=1 n=61 v=80
177600 Off ch=1 n=56 v=80
177600 Off ch=1 n=49 v=80
177600 On ch=1 n=61 v=95
177600 On ch=1 n=56 v=95
177600 On ch=1 n=49 v=95
178080 Off ch=1 n=61 v=80
178080 Off ch=1 n=56 v=80
178080 Off ch=1 n=49 v=80
178080 On ch=1 n=61 v=95
178080 On ch=1 n=56 v=95
178080 On ch=1 n=49 v=95
178320 Off ch=1 n=61 v=80
178320 Off ch=1 n=56 v=80
178320 Off ch=1 n=49 v=80
178320 On ch=1 n=61 v=95
178320 On ch=1 n=56 v=95
178320 On ch=1 n=49 v=95
178560 Off ch=1 n=61 v=80
178560 Off ch=1 n=56 v=80
178560 Off ch=1 n=49 v=80
178560 On ch=1 n=56 v=95
178560 On ch=1 n=51 v=95
178560 On ch=1 n=44 v=95
179040 Off ch=1 n=56 v=80
179040 Off ch=1 n=51 v=80
179040 Off ch=1 n=44 v=80
179040 On ch=1 n=56 v=95
179040 On ch=1 n=51 v=95
179040 On ch=1 n=44 v=95
179520 Off ch=1 n=56 v=80
179520 Off ch=1 n=51 v=80
179520 Off ch=1 n=44 v=80
179520 On ch=1 n=56 v=95
179520 On ch=1 n=51 v=95
179520 On ch=1 n=44 v=95
180000 Off ch=1 n=56 v=80
180000 Off ch=1 n=51 v=80
180000 Off ch=1 n=44 v=80
180000 On ch=1 n=56 v=95
180000 On ch=1 n=51 v=95
180000 On ch=1 n=44 v=95
180240 Off ch=1 n=56 v=80
180240 Off ch=1 n=51 v=80
180240 Off ch=1 n=44 v=80
180240 On ch=1 n=56 v=95
180240 On ch=1 n=51 v=95
180240 On ch=1 n=44 v=95
180480 Off ch=1 n=56 v=80
180480 Off ch=1 n=51 v=80
180480 Off ch=1 n=44 v=80
180480 On ch=1 n=63 v=95
180480 On ch=1 n=58 v=95
180480 On ch=1 n=51 v=95
180960 Off ch=1 n=63 v=80
180960 Off ch=1 n=58 v=80
180960 Off ch=1 n=51 v=80
180960 On ch=1 n=63 v=95
180960 On ch=1 n=58 v=95
180960 On ch=1 n=51 v=95
181440 Off ch=1 n=63 v=80
181440 Off ch=1 n=58 v=80
181440 Off ch=1 n=51 v=80
181440 On ch=1 n=63 v=95
181440 On ch=1 n=58 v=95
181440 On ch=1 n=51 v=95
181920 Off ch=1 n=63 v=80
181920 Off ch=1 n=58 v=80
181920 Off ch=1 n=51 v=80
181920 On ch=1 n=63 v=95
181920 On ch=1 n=58 v=95
181920 On ch=1 n=51 v=95
182160 Off ch=1 n=63 v=80
182160 Off ch=1 n=58 v=80
182160 Off ch=1 n=51 v=80
182160 On ch=1 n=63 v=95
182160 On ch=1 n=58 v=95
182160 On ch=1 n=51 v=95
182400 Off ch=1 n=63 v=80
182400 Off ch=1 n=58 v=80
182400 Off ch=1 n=51 v=80
182400 On ch=1 n=53 v=95
182400 On ch=1 n=48 v=95
182400 On ch=1 n=41 v=95
182880 Off ch=1 n=53 v=80
182880 Off ch=1 n=48 v=80
182880 Off ch=1 n=41 v=80
182880 On ch=1 n=53 v=95
182880 On ch=1 n=48 v=95
182880 On ch=1 n=41 v=95
183360 Off ch=1 n=53 v=80
183360 Off ch=1 n=48 v=80
183360 Off ch=1 n=41 v=80
183360 On ch=1 n=53 v=95
183360 On ch=1 n=48 v=95
183360 On ch=1 n=41 v=95
183840 Off ch=1 n=53 v=80
183840 Off ch=1 n=48 v=80
183840 Off ch=1 n=41 v=80
183840 On ch=1 n=53 v=95
183840 On ch=1 n=48 v=95
183840 On ch=1 n=41 v=95
184080 Off ch=1 n=53 v=80
184080 Off ch=1 n=48 v=80
184080 Off ch=1 n=41 v=80
184080 On ch=1 n=53 v=95
184080 On ch=1 n=48 v=95
184080 On ch=1 n=41 v=95
184320 Off ch=1 n=53 v=80
184320 Off ch=1 n=48 v=80
184320 Off ch=1 n=41 v=80
184320 On ch=1 n=61 v=95
184320 On ch=1 n=56 v=95
184320 On ch=1 n=49 v=95
184800 Off ch=1 n=61 v=80
184800 Off ch=1 n=56 v=80
184800 Off ch=1 n=49 v=80
184800 On ch=1 n=61 v=95
184800 On ch=1 n=56 v=95
184800 On ch=1 n=49 v=95
185280 Off ch=1 n=61 v=80
185280 Off ch=1 n=56 v=80
185280 Off ch=1 n=49 v=80
185280 On ch=1 n=61 v=95
185280 On ch=1 n=56 v=95
185280 On ch=1 n=49 v=95
185760 Off ch=1 n=61 v=80
185760 Off ch=1 n=56 v=80
185760 Off ch=1 n=49 v=80
185760 On ch=1 n=61 v=95
185760 On ch=1 n=56 v=95
185760 On ch=1 n=49 v=95
186000 Off ch=1 n=61 v=80
186000 Off ch=1 n=56 v=80
186000 Off ch=1 n=49 v=80
186000 On ch=1 n=61 v=95
186000 On ch=1 n=56 v=95
186000 On ch=1 n=49 v=95
186240 Off ch=1 n=61 v=80
186240 Off ch=1 n=56 v=80
186240 Off ch=1 n=49 v=80
186240 On ch=1 n=56 v=95
186240 On ch=1 n=51 v=95
186240 On ch=1 n=44 v=95
186720 Off ch=1 n=56 v=80
186720 Off ch=1 n=51 v=80
186720 Off ch=1 n=44 v=80
186720 On ch=1 n=56 v=95
186720 On ch=1 n=51 v=95
186720 On ch=1 n=44 v=95
187200 Off ch=1 n=56 v=80
187200 Off ch=1 n=51 v=80
187200 Off ch=1 n=44 v=80
187200 On ch=1 n=56 v=95
187200 On ch=1 n=51 v=95
187200 On ch=1 n=44 v=95
187680 Off ch=1 n=56 v=80
187680 Off ch=1 n=51 v=80
187680 Off ch=1 n=44 v=80
187680 On ch=1 n=56 v=95
187680 On ch=1 n=51 v=95
187680 On ch=1 n=44 v=95
187920 Off ch=1 n=56 v=80
187920 Off ch=1 n=51 v=80
187920 Off ch=1 n=44 v=80
187920 On ch=1 n=56 v=95
187920 On ch=1 n=51 v=95
187920 On ch=1 n=44 v=95
188160 Off ch=1 n=56 v=80
188160 Off ch=1 n=51 v=80
188160 Off ch=1 n=44 v=80
188160 On ch=1 n=63 v=95
188160 On ch=1 n=58 v=95
188160 On ch=1 n=51 v=95
188640 Off ch=1 n=63 v=80
188640 Off ch=1 n=58 v=80
188640 Off ch=1 n=51 v=80
188640 On ch=1 n=63 v=95
188640 On ch=1 n=58 v=95
188640 On ch=1 n=51 v=95
189120 Off ch=1 n=63 v=80
189120 Off ch=1 n=58 v=80
189120 Off ch=1 n=51 v=80
189120 On ch=1 n=63 v=95
189120 On ch=1 n=58 v=95
189120 On ch=1 n=51 v=95
189600 Off ch=1 n=63 v=80
189600 Off ch=1 n=58 v=80
189600 Off ch=1 n=51 v=80
189600 On ch=1 n=63 v=95
189600 On ch=1 n=58 v=95
189600 On ch=1 n=51 v=95
189840 Off ch=1 n=63 v=80
189840 Off ch=1 n=58 v=80
189840 Off ch=1 n=51 v=80
189840 On ch=1 n=63 v=95
189840 On ch=1 n=58 v=95
189840 On ch=1 n=51 v=95
190080 Off ch=1 n=63 v=80
190080 Off ch=1 n=58 v=80
190080 Off ch=1 n=51 v=80
190080 On ch=1 n=53 v=95
190080 On ch=1 n=48 v=95
190080 On ch=1 n=41 v=95
190560 Off ch=1 n=53 v=80
190560 Off ch=1 n=48 v=80
190560 Off ch=1 n=41 v=80
190560 On ch=1 n=53 v=95
190560 On ch=1 n=48 v=95
190560 On ch=1 n=41 v=95
191040 Off ch=1 n=53 v=80
191040 Off ch=1 n=48 v=80
191040 Off ch=1 n=41 v=80
191040 On ch=1 n=53 v=95
191040 On ch=1 n=48 v=95
191040 On ch=1 n=41 v=95
191520 Off ch=1 n=53 v=80
191520 Off ch=1 n=48 v=80
191520 Off ch=1 n=41 v=80
191520 On ch=1 n=53 v=95
191520 On ch=1 n=48 v=95
191520 On ch=1 n=41 v=95
191760 Off ch=1 n=53 v=80
191760 Off ch=1 n=48 v=80
191760 Off ch=1 n=41 v=80
191760 On ch=1 n=53 v=95
191760 On ch=1 n=48 v=95
191760 On ch=1 n=41 v=95
192000 Off ch=1 n=53 v=80
192000 Off ch=1 n=48 v=80
192000 Off ch=1 n=41 v=80
192000 On ch=1 n=61 v=95
192000 On ch=1 n=56 v=95
192000 On ch=1 n=49 v=95
192480 Off ch=1 n=61 v=80
192480 Off ch=1 n=56 v=80
192480 Off ch=1 n=49 v=80
192480 On ch=1 n=61 v=95
192480 On ch=1 n=56 v=95
192480 On ch=1 n=49 v=95
192960 Off ch=1 n=61 v=80
192960 Off ch=1 n=56 v=80
192960 Off ch=1 n=49 v=80
192960 On ch=1 n=61 v=95
192960 On ch=1 n=56 v=95
192960 On ch=1 n=49 v=95
193440 Off ch=1 n=61 v=80
193440 Off ch=1 n=56 v=80
193440 Off ch=1 n=49 v=80
193440 On ch=1 n=61 v=95
193440 On ch=1 n=56 v=95
193440 On ch=1 n=49 v=95
193680 Off ch=1 n=61 v=80
193680 Off ch=1 n=56 v=80
193680 Off ch=1 n=49 v=80
193680 On ch=1 n=61 v=95
193680 On ch=1 n=56 v=95
193680 On ch=1 n=49 v=95
193920 Off ch=1 n=61 v=80
193920 Off ch=1 n=56 v=80
193920 Off ch=1 n=49 v=80
193920 On ch=1 n=56 v=95
193920 On ch=1 n=51 v=95
193920 On ch=1 n=44 v=95
194400 Off ch=1 n=56 v=80
194400 Off ch=1 n=51 v=80
194400 Off ch=1 n=44 v=80
194400 On ch=1 n=56 v=95
194400 On ch=1 n=51 v=95
194400 On ch=1 n=44 v=95
194880 Off ch=1 n=56 v=80
194880 Off ch=1 n=51 v=80
194880 Off ch=1 n=44 v=80
194880 On ch=1 n=56 v=95
194880 On ch=1 n=51 v=95
194880 On ch=1 n=44 v=95
195360 Off ch=1 n=56 v=80
195360 Off ch=1 n=51 v=80
195360 Off ch=1 n=44 v=80
195360 On ch=1 n=56 v=95
195360 On ch=1 n=51 v=95
195360 On ch=1 n=44 v=95
195600 Off ch=1 n=56 v=80
195600 Off ch=1 n=51 v=80
195600 Off ch=1 n=44 v=80
195600 On ch=1 n=56 v=95
195600 On ch=1 n=51 v=95
195600 On ch=1 n=44 v=95
195840 Off ch=1 n=56 v=80
195840 Off ch=1 n=51 v=80
195840 Off ch=1 n=44 v=80
195840 On ch=1 n=60 v=95
195840 On ch=1 n=55 v=95
195840 On ch=1 n=48 v=95
196320 Off ch=1 n=60 v=80
196320 Off ch=1 n=55 v=80
196320 Off ch=1 n=48 v=80
196320 On ch=1 n=60 v=95
196320 On ch=1 n=55 v=95
196320 On ch=1 n=48 v=95
196800 Off ch=1 n=60 v=80
196800 Off ch=1 n=55 v=80
196800 Off ch=1 n=48 v=80
196800 On ch=1 n=60 v=95
196800 On ch=1 n=55 v=95
196800 On ch=1 n=48 v=95
197280 Off ch=1 n=60 v=80
197280 Off ch=1 n=55 v=80
197280 Off ch=1 n=48 v=80
197280 On ch=1 n=60 v=95
197280 On ch=1 n=55 v=95
197280 On ch=1 n=48 v=95
197760 Off ch=1 n=60 v=80
197760 Off ch=1 n=55 v=80
197760 Off ch=1 n=48 v=80
197760 On ch=1 n=60 v=95
197760 On ch=1 n=55 v=95
197760 On ch=1 n=48 v=95
198240 Off ch=1 n=60 v=80
198240 Off ch=1 n=55 v=80
198240 Off ch=1 n=48 v=80
199680 PrCh ch=1 p=29
199680 PrCh ch=2 p=29
199680 Par ch=1 c=7 v=96
199680 Par ch=2 c=7 v=96
199680 On ch=1 n=53 v=57
199680 On ch=1 n=48 v=57
199680 On ch=1 n=41 v=57
199800 Off ch=1 n=53 v=80
199800 Off ch=1 n=48 v=80
199800 Off ch=1 n=41 v=80
199920 On ch=1 n=53 v=57
199920 On ch=1 n=48 v=57
199920 On ch=1 n=41 v=57
200040 Off ch=1 n=53 v=80
200040 Off ch=1 n=48 v=80
200040 Off ch=1 n=41 v=80
200160 On ch=1 n=53 v=57
200160 On ch=1 n=48 v=57
200160 On ch=1 n=41 v=57
200280 Off ch=1 n=53 v=80
200280 Off ch=1 n=48 v=80
200280 Off ch=1 n=41 v=80
200400 On ch=1 n=53 v=57
200400 On ch=1 n=48 v=57
200400 On ch=1 n=41 v=57
200520 Off ch=1 n=53 v=80
200520 Off ch=1 n=48 v=80
200520 Off ch=1 n=41 v=80
200640 On ch=1 n=53 v=57
200640 On ch=1 n=48 v=57
200640 On ch=1 n=41 v=57
200760 Off ch=1 n=53 v=80
200760 Off ch=1 n=48 v=80
200760 Off ch=1 n=41 v=80
200880 On ch=1 n=53 v=57
200880 On ch=1 n=48 v=57
200880 On ch=1 n=41 v=57
201000 Off ch=1 n=53 v=80
201000 Off ch=1 n=48 v=80
201000 Off ch=1 n=41 v=80
201120 On ch=1 n=53 v=57
201120 On ch=1 n=48 v=57
201120 On ch=1 n=41 v=57
201240 Off ch=1 n=53 v=80
201240 Off ch=1 n=48 v=80
201240 Off ch=1 n=41 v=80
201360 On ch=1 n=53 v=57
201360 On ch=1 n=48 v=57
201360 On ch=1 n=41 v=57
201480 Off ch=1 n=53 v=80
201480 Off ch=1 n=48 v=80
201480 Off ch=1 n=41 v=80
201600 On ch=1 n=56 v=57
201600 On ch=1 n=51 v=57
201600 On ch=1 n=44 v=57
201720 Off ch=1 n=56 v=80
201720 Off ch=1 n=51 v=80
201720 Off ch=1 n=44 v=80
201840 On ch=1 n=56 v=57
201840 On ch=1 n=51 v=57
201840 On ch=1 n=44 v=57
201960 Off ch=1 n=56 v=80
201960 Off ch=1 n=51 v=80
201960 Off ch=1 n=44 v=80
202080 On ch=1 n=56 v=57
202080 On ch=1 n=51 v=57
202080 On ch=1 n=44 v=57
202200 Off ch=1 n=56 v=80
202200 Off ch=1 n=51 v=80
202200 Off ch=1 n=44 v=80
202320 On ch=1 n=56 v=57
202320 On ch=1 n=51 v=57
202320 On ch=1 n=44 v=57
202440 Off ch=1 n=56 v=80
202440 Off ch=1 n=51 v=80
202440 Off ch=1 n=44 v=80
202560 On ch=1 n=56 v=57
202560 On ch=1 n=51 v=57
202560 On ch=1 n=44 v=57
202680 Off ch=1 n=56 v=80
202680 Off ch=1 n=51 v=80
202680 Off ch=1 n=44 v=80
202800 On ch=1 n=56 v=57
202800 On ch=1 n=51 v=57
202800 On ch=1 n=44 v=57
202920 Off ch=1 n=56 v=80
202920 Off ch=1 n=51 v=80
202920 Off ch=1 n=44 v=80
203040 On ch=1 n=56 v=57
203040 On ch=1 n=51 v=57
203040 On ch=1 n=44 v=57
203160 Off ch=1 n=56 v=80
203160 Off ch=1 n=51 v=80
203160 Off ch=1 n=44 v=80
203280 On ch=1 n=56 v=57
203280 On ch=1 n=51 v=57
203280 On ch=1 n=44 v=57
203400 Off ch=1 n=56 v=80
203400 Off ch=1 n=51 v=80
203400 Off ch=1 n=44 v=80
203520 On ch=1 n=63 v=57
203520 On ch=1 n=58 v=57
203520 On ch=1 n=51 v=57
203640 Off ch=1 n=63 v=80
203640 Off ch=1 n=58 v=80
203640 Off ch=1 n=51 v=80
203760 On ch=1 n=63 v=57
203760 On ch=1 n=58 v=57
203760 On ch=1 n=51 v=57
203880 Off ch=1 n=63 v=80
203880 Off ch=1 n=58 v=80
203880 Off ch=1 n=51 v=80
204000 On ch=1 n=63 v=57
204000 On ch=1 n=58 v=57
204000 On ch=1 n=51 v=57
204120 Off ch=1 n=63 v=80
204120 Off ch=1 n=58 v=80
204120 Off ch=1 n=51 v=80
204240 On ch=1 n=63 v=57
204240 On ch=1 n=58 v=57
204240 On ch=1 n=51 v=57
204360 Off ch=1 n=63 v=80
204360 Off ch=1 n=58 v=80
204360 Off ch=1 n=51 v=80
204480 On ch=1 n=63 v=57
204480 On ch=1 n=58 v=57
204480 On ch=1 n=51 v=57
204600 Off ch=1 n=63 v=80
204600 Off ch=1 n=58 v=80
204600 Off ch=1 n=51 v=80
204720 On ch=1 n=63 v=57
204720 On ch=1 n=58 v=57
204720 On ch=1 n=51 v=57
204840 Off ch=1 n=63 v=80
204840 Off ch=1 n=58 v=80
204840 Off ch=1 n=51 v=80
204960 On ch=1 n=63 v=57
204960 On ch=1 n=58 v=57
204960 On ch=1 n=51 v=57
205080 Off ch=1 n=63 v=80
205080 Off ch=1 n=58 v=80
205080 Off ch=1 n=51 v=80
205200 On ch=1 n=63 v=57
205200 On ch=1 n=58 v=57
205200 On ch=1 n=51 v=57
205320 Off ch=1 n=63 v=80
205320 Off ch=1 n=58 v=80
205320 Off ch=1 n=51 v=80
205440 On ch=1 n=58 v=57
205440 On ch=1 n=53 v=57
205440 On ch=1 n=46 v=57
205560 Off ch=1 n=58 v=80
205560 Off ch=1 n=53 v=80
205560 Off ch=1 n=46 v=80
205680 On ch=1 n=58 v=57
205680 On ch=1 n=53 v=57
205680 On ch=1 n=46 v=57
205800 Off ch=1 n=58 v=80
205800 Off ch=1 n=53 v=80
205800 Off ch=1 n=46 v=80
205920 On ch=1 n=58 v=57
205920 On ch=1 n=53 v=57
205920 On ch=1 n=46 v=57
206040 Off ch=1 n=58 v=80
206040 Off ch=1 n=53 v=80
206040 Off ch=1 n=46 v=80
206160 On ch=1 n=58 v=57
206160 On ch=1 n=53 v=57
206160 On ch=1 n=46 v=57
206280 Off ch=1 n=58 v=80
206280 Off ch=1 n=53 v=80
206280 Off ch=1 n=46 v=80
206400 On ch=1 n=58 v=57
206400 On ch=1 n=53 v=57
206400 On ch=1 n=46 v=57
206520 Off ch=1 n=58 v=80
206520 Off ch=1 n=53 v=80
206520 Off ch=1 n=46 v=80
206640 On ch=1 n=58 v=57
206640 On ch=1 n=53 v=57
206640 On ch=1 n=46 v=57
206760 Off ch=1 n=58 v=80
206760 Off ch=1 n=53 v=80
206760 Off ch=1 n=46 v=80
206880 On ch=1 n=58 v=57
206880 On ch=1 n=53 v=57
206880 On ch=1 n=46 v=57
207000 Off ch=1 n=58 v=80
207000 Off ch=1 n=53 v=80
207000 Off ch=1 n=46 v=80
207120 On ch=1 n=58 v=57
207120 On ch=1 n=53 v=57
207120 On ch=1 n=46 v=57
207240 Off ch=1 n=58 v=80
207240 Off ch=1 n=53 v=80
207240 Off ch=1 n=46 v=80
207360 On ch=1 n=53 v=57
207360 On ch=1 n=48 v=57
207360 On ch=1 n=41 v=57
207480 Off ch=1 n=53 v=80
207480 Off ch=1 n=48 v=80
207480 Off ch=1 n=41 v=80
207600 On ch=1 n=53 v=57
207600 On ch=1 n=48 v=57
207600 On ch=1 n=41 v=57
207720 Off ch=1 n=53 v=80
207720 Off ch=1 n=48 v=80
207720 Off ch=1 n=41 v=80
207840 On ch=1 n=53 v=57
207840 On ch=1 n=48 v=57
207840 On ch=1 n=41 v=57
207960 Off ch=1 n=53 v=80
207960 Off ch=1 n=48 v=80
207960 Off ch=1 n=41 v=80
208080 On ch=1 n=53 v=57
208080 On ch=1 n=48 v=57
208080 On ch=1 n=41 v=57
208200 Off ch=1 n=53 v=80
208200 Off ch=1 n=48 v=80
208200 Off ch=1 n=41 v=80
208320 On ch=1 n=53 v=57
208320 On ch=1 n=48 v=57
208320 On ch=1 n=41 v=57
208440 Off ch=1 n=53 v=80
208440 Off ch=1 n=48 v=80
208440 Off ch=1 n=41 v=80
208560 On ch=1 n=53 v=57
208560 On ch=1 n=48 v=57
208560 On ch=1 n=41 v=57
208680 Off ch=1 n=53 v=80
208680 Off ch=1 n=48 v=80
208680 Off ch=1 n=41 v=80
208800 On ch=1 n=53 v=57
208800 On ch=1 n=48 v=57
208800 On ch=1 n=41 v=57
208920 Off ch=1 n=53 v=80
208920 Off ch=1 n=48 v=80
208920 Off ch=1 n=41 v=80
209040 On ch=1 n=53 v=57
209040 On ch=1 n=48 v=57
209040 On ch=1 n=41 v=57
209160 Off ch=1 n=53 v=80
209160 Off ch=1 n=48 v=80
209160 Off ch=1 n=41 v=80
209280 On ch=1 n=56 v=57
209280 On ch=1 n=51 v=57
209280 On ch=1 n=44 v=57
209400 Off ch=1 n=56 v=80
209400 Off ch=1 n=51 v=80
209400 Off ch=1 n=44 v=80
209520 On ch=1 n=56 v=57
209520 On ch=1 n=51 v=57
209520 On ch=1 n=44 v=57
209640 Off ch=1 n=56 v=80
209640 Off ch=1 n=51 v=80
209640 Off ch=1 n=44 v=80
209760 On ch=1 n=56 v=57
209760 On ch=1 n=51 v=57
209760 On ch=1 n=44 v=57
209880 Off ch=1 n=56 v=80
209880 Off ch=1 n=51 v=80
209880 Off ch=1 n=44 v=80
210000 On ch=1 n=56 v=57
210000 On ch=1 n=51 v=57
210000 On ch=1 n=44 v=57
210120 Off ch=1 n=56 v=80
210120 Off ch=1 n=51 v=80
210120 Off ch=1 n=44 v=80
210240 On ch=1 n=56 v=57
210240 On ch=1 n=51 v=57
210240 On ch=1 n=44 v=57
210360 Off ch=1 n=56 v=80
210360 Off ch=1 n=51 v=80
210360 Off ch=1 n=44 v=80
210480 On ch=1 n=56 v=57
210480 On ch=1 n=51 v=57
210480 On ch=1 n=44 v=57
210600 Off ch=1 n=56 v=80
210600 Off ch=1 n=51 v=80
210600 Off ch=1 n=44 v=80
210720 On ch=1 n=56 v=57
210720 On ch=1 n=51 v=57
210720 On ch=1 n=44 v=57
210840 Off ch=1 n=56 v=80
210840 Off ch=1 n=51 v=80
210840 Off ch=1 n=44 v=80
210960 On ch=1 n=56 v=57
210960 On ch=1 n=51 v=57
210960 On ch=1 n=44 v=57
211080 Off ch=1 n=56 v=80
211080 Off ch=1 n=51 v=80
211080 Off ch=1 n=44 v=80
211200 On ch=1 n=63 v=57
211200 On ch=1 n=58 v=57
211200 On ch=1 n=51 v=57
211320 Off ch=1 n=63 v=80
211320 Off ch=1 n=58 v=80
211320 Off ch=1 n=51 v=80
211440 On ch=1 n=63 v=57
211440 On ch=1 n=58 v=57
211440 On ch=1 n=51 v=57
211560 Off ch=1 n=63 v=80
211560 Off ch=1 n=58 v=80
211560 Off ch=1 n=51 v=80
211680 On ch=1 n=63 v=57
211680 On ch=1 n=58 v=57
211680 On ch=1 n=51 v=57
211800 Off ch=1 n=63 v=80
211800 Off ch=1 n=58 v=80
211800 Off ch=1 n=51 v=80
211920 On ch=1 n=63 v=57
211920 On ch=1 n=58 v=57
211920 On ch=1 n=51 v=57
212040 Off ch=1 n=63 v=80
212040 Off ch=1 n=58 v=80
212040 Off ch=1 n=51 v=80
212160 On ch=1 n=63 v=57
212160 On ch=1 n=58 v=57
212160 On ch=1 n=51 v=57
212280 Off ch=1 n=63 v=80
212280 Off ch=1 n=58 v=80
212280 Off ch=1 n=51 v=80
212400 On ch=1 n=63 v=57
212400 On ch=1 n=58 v=57
212400 On ch=1 n=51 v=57
212520 Off ch=1 n=63 v=80
212520 Off ch=1 n=58 v=80
212520 Off ch=1 n=51 v=80
212640 On ch=1 n=63 v=57
212640 On ch=1 n=58 v=57
212640 On ch=1 n=51 v=57
212760 Off ch=1 n=63 v=80
212760 Off ch=1 n=58 v=80
212760 Off ch=1 n=51 v=80
212880 On ch=1 n=63 v=57
212880 On ch=1 n=58 v=57
212880 On ch=1 n=51 v=57
213000 Off ch=1 n=63 v=80
213000 Off ch=1 n=58 v=80
213000 Off ch=1 n=51 v=80
213120 PrCh ch=1 p=29
213120 PrCh ch=2 p=29
213120 Par ch=1 c=7 v=104
213120 Par ch=2 c=7 v=104
213120 On ch=1 n=58 v=95
213120 On ch=1 n=53 v=95
213120 On ch=1 n=46 v=95
213600 Off ch=1 n=58 v=80
213600 Off ch=1 n=53 v=80
213600 Off ch=1 n=46 v=80
213600 On ch=1 n=58 v=95
213600 On ch=1 n=53 v=95
213600 On ch=1 n=46 v=95
214080 Off ch=1 n=58 v=80
214080 Off ch=1 n=53 v=80
214080 Off ch=1 n=46 v=80
214080 On ch=1 n=58 v=95
214080 On ch=1 n=53 v=95
214080 On ch=1 n=46 v=95
214560 Off ch=1 n=58 v=80
214560 Off ch=1 n=53 v=80
214560 Off ch=1 n=46 v=80
214560 On ch=1 n=60 v=95
214560 On ch=1 n=55 v=95
214560 On ch=1 n=48 v=95
215040 Off ch=1 n=60 v=80
215040 Off ch=1 n=55 v=80
215040 Off ch=1 n=48 v=80
215040 PrCh ch=1 p=29
215040 PrCh ch=2 p=29
215040 Par ch=1 c=7 v=104
215040 Par ch=2 c=7 v=104
215040 On ch=1 n=61 v=95
215040 On ch=1 n=56 v=95
215040 On ch=1 n=49 v=95
215520 Off ch=1 n=61 v=80
215520 Off ch=1 n=56 v=80
215520 Off ch=1 n=49 v=80
215520 On ch=1 n=61 v=95
215520 On ch=1 n=56 v=95
215520 On ch=1 n=49 v=95
216000 Off ch=1 n=61 v=80
216000 Off ch=1 n=56 v=80
216000 Off ch=1 n=49 v=80
216000 On ch=1 n=61 v=95
216000 On ch=1 n=56 v=95
216000 On ch=1 n=49 v=95
216480 Off ch=1 n=61 v=80
216480 Off ch=1 n=56 v=80
216480 Off ch=1 n=49 v=80
216480 On ch=1 n=61 v=95
216480 On ch=1 n=56 v=95
216480 On ch=1 n=49 v=95
216720 Off ch=1 n=61 v=80
216720 Off ch=1 n=56 v=80
216720 Off ch=1 n=49 v=80
216720 On ch=1 n=61 v=95
216720 On ch=1 n=56 v=95
216720 On ch=1 n=49 v=95
216960 Off ch=1 n=61 v=80
216960 Off ch=1 n=56 v=80
216960 Off ch=1 n=49 v=80
216960 On ch=1 n=56 v=95
216960 On ch=1 n=51 v=95
216960 On ch=1 n=44 v=95
217440 Off ch=1 n=56 v=80
217440 Off ch=1 n=51 v=80
217440 Off ch=1 n=44 v=80
217440 On ch=1 n=56 v=95
217440 On ch=1 n=51 v=95
217440 On ch=1 n=44 v=95
217920 Off ch=1 n=56 v=80
217920 Off ch=1 n=51 v=80
217920 Off ch=1 n=44 v=80
217920 On ch=1 n=56 v=95
217920 On ch=1 n=51 v=95
217920 On ch=1 n=44 v=95
218400 Off ch=1 n=56 v=80
218400 Off ch=1 n=51 v=80
218400 Off ch=1 n=44 v=80
218400 On ch=1 n=56 v=95
218400 On ch=1 n=51 v=95
218400 On ch=1 n=44 v=95
218640 Off ch=1 n=56 v=80
218640 Off ch=1 n=51 v=80
218640 Off ch=1 n=44 v=80
218640 On ch=1 n=56 v=95
218640 On ch=1 n=51 v=95
218640 On ch=1 n=44 v=95
218880 Off ch=1 n=56 v=80
218880 Off ch=1 n=51 v=80
218880 Off ch=1 n=44 v=80
218880 On ch=1 n=63 v=95
218880 On ch=1 n=58 v=95
218880 On ch=1 n=51 v=95
219360 Off ch=1 n=63 v=80
219360 Off ch=1 n=58 v=80
219360 Off ch=1 n=51 v=80
219360 On ch=1 n=63 v=95
219360 On ch=1 n=58 v=95
219360 On ch=1 n=51 v=95
219840 Off ch=1 n=63 v=80
219840 Off ch=1 n=58 v=80
219840 Off ch=1 n=51 v=80
219840 On ch=1 n=63 v=95
219840 On ch=1 n=58 v=95
219840 On ch=1 n=51 v=95
220320 Off ch=1 n=63 v=80
220320 Off ch=1 n=58 v=80
220320 Off ch=1 n=51 v=80
220320 On ch=1 n=63 v=95
220320 On ch=1 n=58 v=95
220320 On ch=1 n=51 v=95
220560 Off ch=1 n=63 v=80
220560 Off ch=1 n=58 v=80
220560 Off ch=1 n=51 v=80
220560 On ch=1 n=63 v=95
220560 On ch=1 n=58 v=95
220560 On ch=1 n=51 v=95
220800 Off ch=1 n=63 v=80
220800 Off ch=1 n=58 v=80
220800 Off ch=1 n=51 v=80
220800 On ch=1 n=53 v=95
220800 On ch=1 n=48 v=95
220800 On ch=1 n=41 v=95
221280 Off ch=1 n=53 v=80
221280 Off ch=1 n=48 v=80
221280 Off ch=1 n=41 v=80
221280 On ch=1 n=53 v=95
221280 On ch=1 n=48 v=95
221280 On ch=1 n=41 v=95
221760 Off ch=1 n=53 v=80
221760 Off ch=1 n=48 v=80
221760 Off ch=1 n=41 v=80
221760 On ch=1 n=53 v=95
221760 On ch=1 n=48 v=95
221760 On ch=1 n=41 v=95
222240 Off ch=1 n=53 v=80
222240 Off ch=1 n=48 v=80
222240 Off ch=1 n=41 v=80
222240 On ch=1 n=53 v=95
222240 On ch=1 n=48 v=95
222240 On ch=1 n=41 v=95
222480 Off ch=1 n=53 v=80
222480 Off ch=1 n=48 v=80
222480 Off ch=1 n=41 v=80
222480 On ch=1 n=53 v=95
222480 On ch=1 n=48 v=95
222480 On ch=1 n=41 v=95
222720 Off ch=1 n=53 v=80
222720 Off ch=1 n=48 v=80
222720 Off ch=1 n=41 v=80
222720 On ch=1 n=61 v=95
222720 On ch=1 n=56 v=95
222720 On ch=1 n=49 v=95
223200 Off ch=1 n=61 v=80
223200 Off ch=1 n=56 v=80
223200 Off ch=1 n=49 v=80
223200 On ch=1 n=61 v=95
223200 On ch=1 n=56 v=95
223200 On ch=1 n=49 v=95
223680 Off ch=1 n=61 v=80
223680 Off ch=1 n=56 v=80
223680 Off ch=1 n=49 v=80
223680 On ch=1 n=61 v=95
223680 On ch=1 n=56 v=95
223680 On ch=1 n=49 v=95
224160 Off ch=1 n=61 v=80
224160 Off ch=1 n=56 v=80
224160 Off ch=1 n=49 v=80
224160 On ch=1 n=61 v=95
224160 On ch=1 n=56 v=95
224160 On ch=1 n=49 v=95
224400 Off ch=1 n=61 v=80
224400 Off ch=1 n=56 v=80
224400 Off ch=1 n=49 v=80
224400 On ch=1 n=61 v=95
224400 On ch=1 n=56 v=95
224400 On ch=1 n=49 v=95
224640 Off ch=1 n=61 v=80
224640 Off ch=1 n=56 v=80
224640 Off ch=1 n=49 v=80
224640 On ch=1 n=56 v=95
224640 On ch=1 n=51 v=95
224640 On ch=1 n=44 v=95
225120 Off ch=1 n=56 v=80
225120 Off ch=1 n=51 v=80
225120 Off ch=1 n=44 v=80
225120 On ch=1 n=56 v=95
225120 On ch=1 n=51 v=95
225120 On ch=1 n=44 v=95
225600 Off ch=1 n=56 v=80
225600 Off ch=1 n=51 v=80
225600 Off ch=1 n=44 v=80
225600 On ch=1 n=56 v=95
225600 On ch=1 n=51 v=95
225600 On ch=1 n=44 v=95
226080 Off ch=1 n=56 v=80
226080 Off ch=1 n=51 v=80
226080 Off ch=1 n=44 v=80
226080 On ch=1 n=56 v=95
226080 On ch=1 n=51 v=95
226080 On ch=1 n=44 v=95
226320 Off ch=1 n=56 v=80
226320 Off ch=1 n=51 v=80
226320 Off ch=1 n=44 v=80
226320 On ch=1 n=56 v=95
226320 On ch=1 n=51 v=95
226320 On ch=1 n=44 v=95
226560 Off ch=1 n=56 v=80
226560 Off ch=1 n=51 v=80
226560 Off ch=1 n=44 v=80
226560 On ch=1 n=63 v=95
226560 On ch=1 n=58 v=95
226560 On ch=1 n=51 v=95
227040 Off ch=1 n=63 v=80
227040 Off ch=1 n=58 v=80
227040 Off ch=1 n=51 v=80
227040 On ch=1 n=63 v=95
227040 On ch=1 n=58 v=95
227040 On ch=1 n=51 v=95
227520 Off ch=1 n=63 v=80
227520 Off ch=1 n=58 v=80
227520 Off ch=1 n=51 v=80
227520 On ch=1 n=63 v=95
227520 On ch=1 n=58 v=95
227520 On ch=1 n=51 v=95
228000 Off ch=1 n=63 v=80
228000 Off ch=1 n=58 v=80
228000 Off ch=1 n=51 v=80
228000 On ch=1 n=63 v=95
228000 On ch=1 n=58 v=95
228000 On ch=1 n=51 v=95
228240 Off ch=1 n=63 v=80
228240 Off ch=1 n=58 v=80
228240 Off ch=1 n=51 v=80
228240 On ch=1 n=63 v=95
228240 On ch=1 n=58 v=95
228240 On ch=1 n=51 v=95
228480 Off ch=1 n=63 v=80
228480 Off ch=1 n=58 v=80
228480 Off ch=1 n=51 v=80
228480 On ch=1 n=53 v=95
228480 On ch=1 n=48 v=95
228480 On ch=1 n=41 v=95
228960 Off ch=1 n=53 v=80
228960 Off ch=1 n=48 v=80
228960 Off ch=1 n=41 v=80
228960 On ch=1 n=53 v=95
228960 On ch=1 n=48 v=95
228960 On ch=1 n=41 v=95
229440 Off ch=1 n=53 v=80
229440 Off ch=1 n=48 v=80
229440 Off ch=1 n=41 v=80
229440 On ch=1 n=53 v=95
229440 On ch=1 n=48 v=95
229440 On ch=1 n=41 v=95
229920 Off ch=1 n=53 v=80
229920 Off ch=1 n=48 v=80
229920 Off ch=1 n=41 v=80
229920 On ch=1 n=53 v=95
229920 On ch=1 n=48 v=95
229920 On ch=1 n=41 v=95
230160 Off ch=1 n=53 v=80
230160 Off ch=1 n=48 v=80
230160 Off ch=1 n=41 v=80
230160 On ch=1 n=53 v=95
230160 On ch=1 n=48 v=95
230160 On ch=1 n=41 v=95
230400 Off ch=1 n=53 v=80
230400 Off ch=1 n=48 v=80
230400 Off ch=1 n=41 v=80
230400 On ch=1 n=61 v=95
230400 On ch=1 n=56 v=95
230400 On ch=1 n=49 v=95
230880 Off ch=1 n=61 v=80
230880 Off ch=1 n=56 v=80
230880 Off ch=1 n=49 v=80
230880 On ch=1 n=61 v=95
230880 On ch=1 n=56 v=95
230880 On ch=1 n=49 v=95
231360 Off ch=1 n=61 v=80
231360 Off ch=1 n=56 v=80
231360 Off ch=1 n=49 v=80
232320 On ch=1 n=56 v=95
232320 On ch=1 n=51 v=95
232320 On ch=1 n=44 v=95
232800 Off ch=1 n=56 v=80
232800 Off ch=1 n=51 v=80
232800 Off ch=1 n=44 v=80
232800 On ch=1 n=56 v=95
232800 On ch=1 n=51 v=95
232800 On ch=1 n=44 v=95
233280 Off ch=1 n=56 v=80
233280 Off ch=1 n=51 v=80
233280 Off ch=1 n=44 v=80
234240 On ch=1 n=63 v=95
234240 On ch=1 n=58 v=95
234240 On ch=1 n=51 v=95
234720 Off ch=1 n=63 v=80
234720 Off ch=1 n=58 v=80
234720 Off ch=1 n=51 v=80
234720 On ch=1 n=63 v=95
234720 On ch=1 n=58 v=95
234720 On ch=1 n=51 v=95
235200 Off ch=1 n=63 v=80
235200 Off ch=1 n=58 v=80
235200 Off ch=1 n=51 v=80
235200 On ch=1 n=63 v=95
235200 On ch=1 n=58 v=95
235200 On ch=1 n=51 v=95
235680 Off ch=1 n=63 v=80
235680 Off ch=1 n=58 v=80
235680 Off ch=1 n=51 v=80
235680 On ch=1 n=63 v=95
235680 On ch=1 n=58 v=95
235680 On ch=1 n=51 v=95
235920 Off ch=1 n=63 v=80
235920 Off ch=1 n=58 v=80
235920 Off ch=1 n=51 v=80
235920 On ch=1 n=63 v=95
235920 On ch=1 n=58 v=95
235920 On ch=1 n=51 v=95
236160 Off ch=1 n=63 v=80
236160 Off ch=1 n=58 v=80
236160 Off ch=1 n=51 v=80
236160 On ch=1 n=53 v=95
236160 On ch=1 n=48 v=95
236160 On ch=1 n=41 v=95
236640 Off ch=1 n=53 v=80
236640 Off ch=1 n=48 v=80
236640 Off ch=1 n=41 v=80
236640 On ch=1 n=53 v=95
236640 On ch=1 n=48 v=95
236640 On ch=1 n=41 v=95
237120 Off ch=1 n=53 v=80
237120 Off ch=1 n=48 v=80
237120 Off ch=1 n=41 v=80
237120 On ch=1 n=53 v=95
237120 On ch=1 n=48 v=95
237120 On ch=1 n=41 v=95
237600 Off ch=1 n=53 v=80
237600 Off ch=1 n=48 v=80
237600 Off ch=1 n=41 v=80
237600 On ch=1 n=53 v=95
237600 On ch=1 n=48 v=95
237600 On ch=1 n=41 v=95
237840 Off ch=1 n=53 v=80
237840 Off ch=1 n=48 v=80
237840 Off ch=1 n=41 v=80
237840 On ch=1 n=53 v=95
237840 On ch=1 n=48 v=95
237840 On ch=1 n=41 v=95
238080 Off ch=1 n=53 v=80
238080 Off ch=1 n=48 v=80
238080 Off ch=1 n=41 v=80
238080 PrCh ch=1 p=29
238080 PrCh ch=2 p=29
238080 Par ch=1 c=7 v=104
238080 Par ch=2 c=7 v=104
238080 On ch=1 n=61 v=95
238080 On ch=1 n=56 v=95
238080 On ch=1 n=49 v=95
238560 Off ch=1 n=61 v=80
238560 Off ch=1 n=56 v=80
238560 Off ch=1 n=49 v=80
238560 On ch=1 n=61 v=95
238560 On ch=1 n=56 v=95
238560 On ch=1 n=49 v=95
239040 Off ch=1 n=61 v=80
239040 Off ch=1 n=56 v=80
239040 Off ch=1 n=49 v=80
240000 On ch=1 n=56 v=95
240000 On ch=1 n=51 v=95
240000 On ch=1 n=44 v=95
240480 Off ch=1 n=56 v=80
240480 Off ch=1 n=51 v=80
240480 Off ch=1 n=44 v=80
240480 On ch=1 n=56 v=95
240480 On ch=1 n=51 v=95
240480 On ch=1 n=44 v=95
240960 Off ch=1 n=56 v=80
240960 Off ch=1 n=51 v=80
240960 Off ch=1 n=44 v=80
241440 On ch=2 n=55 v=95
241680 Pb ch=2 v=7552
241720 Pb ch=2 v=6784
241760 Pb ch=2 v=6144
241800 Pb ch=2 v=5504
241840 Pb ch=2 v=4736
241880 Pb ch=2 v=4096
241920 Off ch=2 n=55 v=80
241920 Pb ch=2 v=8192
241920 On ch=1 n=60 v=95
241920 On ch=1 n=55 v=95
241920 On ch=1 n=48 v=86
242400 Off ch=1 n=60 v=80
242400 Off ch=1 n=55 v=80
242400 Off ch=1 n=48 v=80
242400 On ch=1 n=60 v=95
242400 On ch=1 n=55 v=95
242400 On ch=1 n=48 v=95
242880 Off ch=1 n=60 v=80
242880 Off ch=1 n=55 v=80
242880 Off ch=1 n=48 v=80
242880 On ch=1 n=60 v=95
242880 On ch=1 n=55 v=95
242880 On ch=1 n=48 v=95
243360 Off ch=1 n=60 v=80
243360 Off ch=1 n=55 v=80
243360 Off ch=1 n=48 v=80
243360 On ch=1 n=60 v=95
243360 On ch=1 n=55 v=95
243360 On ch=1 n=48 v=95
243840 Off ch=1 n=60 v=80
243840 Off ch=1 n=55 v=80
243840 Off ch=1 n=48 v=80
243840 On ch=1 n=60 v=95
243840 On ch=1 n=55 v=95
243840 On ch=1 n=48 v=95
244320 Off ch=1 n=60 v=80
244320 Off ch=1 n=55 v=80
244320 Off ch=1 n=48 v=80
244320 On ch=1 n=60 v=95
244320 On ch=1 n=55 v=95
244320 On ch=1 n=48 v=95
244800 Off ch=1 n=60 v=80
244800 Off ch=1 n=55 v=80
244800 Off ch=1 n=48 v=80
244800 On ch=1 n=60 v=95
244800 On ch=1 n=55 v=95
244800 On ch=1 n=48 v=95
245280 Off ch=1 n=60 v=80
245280 Off ch=1 n=55 v=80
245280 Off ch=1 n=48 v=80
245280 On ch=1 n=60 v=95
245280 On ch=1 n=55 v=95
245280 On ch=1 n=48 v=95
245760 Off ch=1 n=60 v=80
245760 Off ch=1 n=55 v=80
245760 Off ch=1 n=48 v=80
245760 On ch=1 n=60 v=95
245760 On ch=1 n=55 v=95
245760 On ch=1 n=48 v=95
246240 Off ch=1 n=60 v=80
246240 Off ch=1 n=55 v=80
246240 Off ch=1 n=48 v=80
246240 On ch=1 n=60 v=95
246240 On ch=1 n=55 v=95
246240 On ch=1 n=48 v=95
246720 Off ch=1 n=60 v=80
246720 Off ch=1 n=55 v=80
246720 Off ch=1 n=48 v=80
246720 On ch=1 n=60 v=95
246720 On ch=1 n=55 v=95
246720 On ch=1 n=48 v=95
247200 Off ch=1 n=60 v=80
247200 Off ch=1 n=55 v=80
247200 Off ch=1 n=48 v=80
247200 On ch=1 n=60 v=95
247200 On ch=1 n=55 v=95
247200 On ch=1 n=48 v=95
247680 Off ch=1 n=60 v=80
247680 Off ch=1 n=55 v=80
247680 Off ch=1 n=48 v=80
247680 On ch=1 n=60 v=95
247680 On ch=1 n=55 v=95
247680 On ch=1 n=48 v=95
248160 Off ch=1 n=60 v=80
248160 Off ch=1 n=55 v=80
248160 Off ch=1 n=48 v=80
263520 PrCh ch=1 p=29
263520 PrCh ch=2 p=29
263520 Par ch=1 c=7 v=104
263520 Par ch=2 c=7 v=104
263520 On ch=1 n=58 v=95
263520 On ch=1 n=53 v=95
263520 On ch=1 n=46 v=95
264000 Off ch=1 n=58 v=80
264000 Off ch=1 n=53 v=80
264000 Off ch=1 n=46 v=80
264000 On ch=1 n=58 v=95
264000 On ch=1 n=53 v=95
264000 On ch=1 n=46 v=95
264480 Off ch=1 n=58 v=80
264480 Off ch=1 n=53 v=80
264480 Off ch=1 n=46 v=80
264480 On ch=1 n=60 v=95
264480 On ch=1 n=55 v=95
264480 On ch=1 n=48 v=95
264960 Off ch=1 n=60 v=80
264960 Off ch=1 n=55 v=80
264960 Off ch=1 n=48 v=80
264960 PrCh ch=1 p=29
264960 PrCh ch=2 p=29
264960 Par ch=1 c=7 v=104
264960 Par ch=2 c=7 v=104
264960 On ch=1 n=61 v=95
264960 On ch=1 n=56 v=95
264960 On ch=1 n=49 v=95
265440 Off ch=1 n=61 v=80
265440 Off ch=1 n=56 v=80
265440 Off ch=1 n=49 v=80
265440 On ch=1 n=61 v=95
265440 On ch=1 n=56 v=95
265440 On ch=1 n=49 v=95
265920 Off ch=1 n=61 v=80
265920 Off ch=1 n=56 v=80
265920 Off ch=1 n=49 v=80
265920 On ch=1 n=61 v=95
265920 On ch=1 n=56 v=95
265920 On ch=1 n=49 v=95
266400 Off ch=1 n=61 v=80
266400 Off ch=1 n=56 v=80
266400 Off ch=1 n=49 v=80
266400 On ch=1 n=61 v=95
266400 On ch=1 n=56 v=95
266400 On ch=1 n=49 v=95
266640 Off ch=1 n=61 v=80
266640 Off ch=1 n=56 v=80
266640 Off ch=1 n=49 v=80
266640 On ch=1 n=61 v=95
266640 On ch=1 n=56 v=95
266640 On ch=1 n=49 v=95
266880 Off ch=1 n=61 v=80
266880 Off ch=1 n=56 v=80
266880 Off ch=1 n=49 v=80
266880 On ch=1 n=56 v=95
266880 On ch=1 n=51 v=95
266880 On ch=1 n=44 v=95
267360 Off ch=1 n=56 v=80
267360 Off ch=1 n=51 v=80
267360 Off ch=1 n=44 v=80
267360 On ch=1 n=56 v=95
267360 On ch=1 n=51 v=95
267360 On ch=1 n=44 v=95
267840 Off ch=1 n=56 v=80
267840 Off ch=1 n=51 v=80
267840 Off ch=1 n=44 v=80
267840 On ch=1 n=56 v=95
267840 On ch=1 n=51 v=95
267840 On ch=1 n=44 v=95
268320 Off ch=1 n=56 v=80
268320 Off ch=1 n=51 v=80
268320 Off ch=1 n=44 v=80
268320 On ch=1 n=56 v=95
268320 On ch=1 n=51 v=95
268320 On ch=1 n=44 v=95
268560 Off ch=1 n=56 v=80
268560 Off ch=1 n=51 v=80
268560 Off ch=1 n=44 v=80
268560 On ch=1 n=56 v=95
268560 On ch=1 n=51 v=95
268560 On ch=1 n=44 v=95
268800 Off ch=1 n=56 v=80
268800 Off ch=1 n=51 v=80
268800 Off ch=1 n=44 v=80
268800 On ch=1 n=63 v=95
268800 On ch=1 n=58 v=95
268800 On ch=1 n=51 v=95
269280 Off ch=1 n=63 v=80
269280 Off ch=1 n=58 v=80
269280 Off ch=1 n=51 v=80
269280 On ch=1 n=63 v=95
269280 On ch=1 n=58 v=95
269280 On ch=1 n=51 v=95
269760 Off ch=1 n=63 v=80
269760 Off ch=1 n=58 v=80
269760 Off ch=1 n=51 v=80
269760 On ch=1 n=63 v=95
269760 On ch=1 n=58 v=95
269760 On ch=1 n=51 v=95
270240 Off ch=1 n=63 v=80
270240 Off ch=1 n=58 v=80
270240 Off ch=1 n=51 v=80
270240 On ch=1 n=63 v=95
270240 On ch=1 n=58 v=95
270240 On ch=1 n=51 v=95
270480 Off ch=1 n=63 v=80
270480 Off ch=1 n=58 v=80
270480 Off ch=1 n=51 v=80
270480 On ch=1 n=63 v=95
270480 On ch=1 n=58 v=95
270480 On ch=1 n=51 v=95
270720 Off ch=1 n=63 v=80
270720 Off ch=1 n=58 v=80
270720 Off ch=1 n=51 v=80
270720 On ch=1 n=53 v=95
270720 On ch=1 n=48 v=95
270720 On ch=1 n=41 v=95
271200 Off ch=1 n=53 v=80
271200 Off ch=1 n=48 v=80
271200 Off ch=1 n=41 v=80
271200 On ch=1 n=53 v=95
271200 On ch=1 n=48 v=95
271200 On ch=1 n=41 v=95
271680 Off ch=1 n=53 v=80
271680 Off ch=1 n=48 v=80
271680 Off ch=1 n=41 v=80
271680 On ch=1 n=53 v=95
271680 On ch=1 n=48 v=95
271680 On ch=1 n=41 v=95
272160 Off ch=1 n=53 v=80
272160 Off ch=1 n=48 v=80
272160 Off ch=1 n=41 v=80
272160 On ch=1 n=53 v=95
272160 On ch=1 n=48 v=95
272160 On ch=1 n=41 v=95
272400 Off ch=1 n=53 v=80
272400 Off ch=1 n=48 v=80
272400 Off ch=1 n=41 v=80
272400 On ch=1 n=53 v=95
272400 On ch=1 n=48 v=95
272400 On ch=1 n=41 v=95
272640 Off ch=1 n=53 v=80
272640 Off ch=1 n=48 v=80
272640 Off ch=1 n=41 v=80
272640 PrCh ch=1 p=29
272640 PrCh ch=2 p=29
272640 Par ch=1 c=7 v=104
272640 Par ch=2 c=7 v=104
272640 On ch=1 n=61 v=95
272640 On ch=1 n=56 v=95
272640 On ch=1 n=49 v=95
273120 Off ch=1 n=61 v=80
273120 Off ch=1 n=56 v=80
273120 Off ch=1 n=49 v=80
273120 On ch=1 n=61 v=95
273120 On ch=1 n=56 v=95
273120 On ch=1 n=49 v=95
273600 Off ch=1 n=61 v=80
273600 Off ch=1 n=56 v=80
273600 Off ch=1 n=49 v=80
273600 On ch=1 n=61 v=95
273600 On ch=1 n=56 v=95
273600 On ch=1 n=49 v=95
274080 Off ch=1 n=61 v=80
274080 Off ch=1 n=56 v=80
274080 Off ch=1 n=49 v=80
274080 On ch=1 n=61 v=95
274080 On ch=1 n=56 v=95
274080 On ch=1 n=49 v=95
274320 Off ch=1 n=61 v=80
274320 Off ch=1 n=56 v=80
274320 Off ch=1 n=49 v=80
274320 On ch=1 n=61 v=95
274320 On ch=1 n=56 v=95
274320 On ch=1 n=49 v=95
274560 Off ch=1 n=61 v=80
274560 Off ch=1 n=56 v=80
274560 Off ch=1 n=49 v=80
274560 On ch=1 n=56 v=95
274560 On ch=1 n=51 v=95
274560 On ch=1 n=44 v=95
275040 Off ch=1 n=56 v=80
275040 Off ch=1 n=51 v=80
275040 Off ch=1 n=44 v=80
275040 On ch=1 n=56 v=95
275040 On ch=1 n=51 v=95
275040 On ch=1 n=44 v=95
275520 Off ch=1 n=56 v=80
275520 Off ch=1 n=51 v=80
275520 Off ch=1 n=44 v=80
275520 On ch=1 n=56 v=95
275520 On ch=1 n=51 v=95
275520 On ch=1 n=44 v=95
276000 Off ch=1 n=56 v=80
276000 Off ch=1 n=51 v=80
276000 Off ch=1 n=44 v=80
276000 On ch=1 n=56 v=95
276000 On ch=1 n=51 v=95
276000 On ch=1 n=44 v=95
276240 Off ch=1 n=56 v=80
276240 Off ch=1 n=51 v=80
276240 Off ch=1 n=44 v=80
276240 On ch=1 n=56 v=95
276240 On ch=1 n=51 v=95
276240 On ch=1 n=44 v=95
276480 Off ch=1 n=56 v=80
276480 Off ch=1 n=51 v=80
276480 Off ch=1 n=44 v=80
276480 On ch=1 n=63 v=95
276480 On ch=1 n=58 v=95
276480 On ch=1 n=51 v=95
276960 Off ch=1 n=63 v=80
276960 Off ch=1 n=58 v=80
276960 Off ch=1 n=51 v=80
276960 On ch=1 n=63 v=95
276960 On ch=1 n=58 v=95
276960 On ch=1 n=51 v=95
277440 Off ch=1 n=63 v=80
277440 Off ch=1 n=58 v=80
277440 Off ch=1 n=51 v=80
277440 On ch=1 n=63 v=95
277440 On ch=1 n=58 v=95
277440 On ch=1 n=51 v=95
277920 Off ch=1 n=63 v=80
277920 Off ch=1 n=58 v=80
277920 Off ch=1 n=51 v=80
277920 On ch=1 n=63 v=95
277920 On ch=1 n=58 v=95
277920 On ch=1 n=51 v=95
278160 Off ch=1 n=63 v=80
278160 Off ch=1 n=58 v=80
278160 Off ch=1 n=51 v=80
278160 On ch=1 n=63 v=95
278160 On ch=1 n=58 v=95
278160 On ch=1 n=51 v=95
278400 Off ch=1 n=63 v=80
278400 Off ch=1 n=58 v=80
278400 Off ch=1 n=51 v=80
278400 On ch=1 n=53 v=95
278400 On ch=1 n=48 v=95
278400 On ch=1 n=41 v=95
278880 Off ch=1 n=53 v=80
278880 Off ch=1 n=48 v=80
278880 Off ch=1 n=41 v=80
278880 On ch=1 n=53 v=95
278880 On ch=1 n=48 v=95
278880 On ch=1 n=41 v=95
279360 Off ch=1 n=53 v=80
279360 Off ch=1 n=48 v=80
279360 Off ch=1 n=41 v=80
279360 On ch=1 n=53 v=95
279360 On ch=1 n=48 v=95
279360 On ch=1 n=41 v=95
279840 Off ch=1 n=53 v=80
279840 Off ch=1 n=48 v=80
279840 Off ch=1 n=41 v=80
279840 On ch=1 n=53 v=95
279840 On ch=1 n=48 v=95
279840 On ch=1 n=41 v=95
280080 Off ch=1 n=53 v=80
280080 Off ch=1 n=48 v=80
280080 Off ch=1 n=41 v=80
280080 On ch=1 n=53 v=95
280080 On ch=1 n=48 v=95
280080 On ch=1 n=41 v=95
280320 Off ch=1 n=53 v=80
280320 Off ch=1 n=48 v=80
280320 Off ch=1 n=41 v=80
280320 PrCh ch=1 p=29
280320 PrCh ch=2 p=29
280320 Par ch=1 c=7 v=104
280320 Par ch=2 c=7 v=104
280320 On ch=1 n=61 v=95
280320 On ch=1 n=56 v=95
280320 On ch=1 n=49 v=95
280800 Off ch=1 n=61 v=80
280800 Off ch=1 n=56 v=80
280800 Off ch=1 n=49 v=80
280800 On ch=1 n=61 v=95
280800 On ch=1 n=56 v=95
280800 On ch=1 n=49 v=95
281280 Off ch=1 n=61 v=80
281280 Off ch=1 n=56 v=80
281280 Off ch=1 n=49 v=80
281280 On ch=1 n=61 v=95
281280 On ch=1 n=56 v=95
281280 On ch=1 n=49 v=95
281760 Off ch=1 n=61 v=80
281760 Off ch=1 n=56 v=80
281760 Off ch=1 n=49 v=80
281760 On ch=1 n=61 v=95
281760 On ch=1 n=56 v=95
281760 On ch=1 n=49 v=95
282000 Off ch=1 n=61 v=80
282000 Off ch=1 n=56 v=80
282000 Off ch=1 n=49 v=80
282000 On ch=1 n=61 v=95
282000 On ch=1 n=56 v=95
282000 On ch=1 n=49 v=95
282240 Off ch=1 n=61 v=80
282240 Off ch=1 n=56 v=80
282240 Off ch=1 n=49 v=80
282240 On ch=1 n=56 v=95
282240 On ch=1 n=51 v=95
282240 On ch=1 n=44 v=95
282720 Off ch=1 n=56 v=80
282720 Off ch=1 n=51 v=80
282720 Off ch=1 n=44 v=80
282720 On ch=1 n=56 v=95
282720 On ch=1 n=51 v=95
282720 On ch=1 n=44 v=95
283200 Off ch=1 n=56 v=80
283200 Off ch=1 n=51 v=80
283200 Off ch=1 n=44 v=80
283200 On ch=1 n=56 v=95
283200 On ch=1 n=51 v=95
283200 On ch=1 n=44 v=95
283680 Off ch=1 n=56 v=80
283680 Off ch=1 n=51 v=80
283680 Off ch=1 n=44 v=80
283680 On ch=1 n=56 v=95
283680 On ch=1 n=51 v=95
283680 On ch=1 n=44 v=95
283920 Off ch=1 n=56 v=80
283920 Off ch=1 n=51 v=80
283920 Off ch=1 n=44 v=80
283920 On ch=1 n=56 v=95
283920 On ch=1 n=51 v=95
283920 On ch=1 n=44 v=95
284160 Off ch=1 n=56 v=80
284160 Off ch=1 n=51 v=80
284160 Off ch=1 n=44 v=80
284160 On ch=1 n=63 v=95
284160 On ch=1 n=58 v=95
284160 On ch=1 n=51 v=95
284640 Off ch=1 n=63 v=80
284640 Off ch=1 n=58 v=80
284640 Off ch=1 n=51 v=80
284640 On ch=1 n=63 v=95
284640 On ch=1 n=58 v=95
284640 On ch=1 n=51 v=95
285120 Off ch=1 n=63 v=80
285120 Off ch=1 n=58 v=80
285120 Off ch=1 n=51 v=80
285120 On ch=1 n=63 v=95
285120 On ch=1 n=58 v=95
285120 On ch=1 n=51 v=95
285600 Off ch=1 n=63 v=80
285600 Off ch=1 n=58 v=80
285600 Off ch=1 n=51 v=80
285600 On ch=1 n=63 v=95
285600 On ch=1 n=58 v=95
285600 On ch=1 n=51 v=95
285840 Off ch=1 n=63 v=80
285840 Off ch=1 n=58 v=80
285840 Off ch=1 n=51 v=80
285840 On ch=1 n=63 v=95
285840 On ch=1 n=58 v=95
285840 On ch=1 n=51 v=95
286080 Off ch=1 n=63 v=80
286080 Off ch=1 n=58 v=80
286080 Off ch=1 n=51 v=80
286080 On ch=1 n=53 v=95
286080 On ch=1 n=48 v=95
286080 On ch=1 n=41 v=95
286560 Off ch=1 n=53 v=80
286560 Off ch=1 n=48 v=80
286560 Off ch=1 n=41 v=80
286560 On ch=1 n=53 v=95
286560 On ch=1 n=48 v=95
286560 On ch=1 n=41 v=95
287040 Off ch=1 n=53 v=80
287040 Off ch=1 n=48 v=80
287040 Off ch=1 n=41 v=80
287040 On ch=1 n=53 v=95
287040 On ch=1 n=48 v=95
287040 On ch=1 n=41 v=95
287520 Off ch=1 n=53 v=80
287520 Off ch=1 n=48 v=80
287520 Off ch=1 n=41 v=80
287520 On ch=1 n=53 v=95
287520 On ch=1 n=48 v=95
287520 On ch=1 n=41 v=95
287760 Off ch=1 n=53 v=80
287760 Off ch=1 n=48 v=80
287760 Off ch=1 n=41 v=80
287760 On ch=1 n=53 v=95
287760 On ch=1 n=48 v=95
287760 On ch=1 n=41 v=95
288000 Off ch=1 n=53 v=80
288000 Off ch=1 n=48 v=80
288000 Off ch=1 n=41 v=80
288000 PrCh ch=1 p=29
288000 PrCh ch=2 p=29
288000 Par ch=1 c=7 v=104
288000 Par ch=2 c=7 v=104
288000 On ch=1 n=61 v=95
288000 On ch=1 n=56 v=95
288000 On ch=1 n=49 v=95
288480 Off ch=1 n=61 v=80
288480 Off ch=1 n=56 v=80
288480 Off ch=1 n=49 v=80
288480 On ch=1 n=61 v=95
288480 On ch=1 n=56 v=95
288480 On ch=1 n=49 v=95
288960 Off ch=1 n=61 v=80
288960 Off ch=1 n=56 v=80
288960 Off ch=1 n=49 v=80
288960 On ch=1 n=61 v=95
288960 On ch=1 n=56 v=95
288960 On ch=1 n=49 v=95
289440 Off ch=1 n=61 v=80
289440 Off ch=1 n=56 v=80
289440 Off ch=1 n=49 v=80
289440 On ch=1 n=61 v=95
289440 On ch=1 n=56 v=95
289440 On ch=1 n=49 v=95
289680 Off ch=1 n=61 v=80
289680 Off ch=1 n=56 v=80
289680 Off ch=1 n=49 v=80
289680 On ch=1 n=61 v=95
289680 On ch=1 n=56 v=95
289680 On ch=1 n=49 v=95
289920 Off ch=1 n=61 v=80
289920 Off ch=1 n=56 v=80
289920 Off ch=1 n=49 v=80
289920 On ch=1 n=56 v=95
289920 On ch=1 n=51 v=95
289920 On ch=1 n=44 v=95
290400 Off ch=1 n=56 v=80
290400 Off ch=1 n=51 v=80
290400 Off ch=1 n=44 v=80
290400 On ch=1 n=56 v=95
290400 On ch=1 n=51 v=95
290400 On ch=1 n=44 v=95
290880 Off ch=1 n=56 v=80
290880 Off ch=1 n=51 v=80
290880 Off ch=1 n=44 v=80
290880 On ch=1 n=56 v=95
290880 On ch=1 n=51 v=95
290880 On ch=1 n=44 v=95
291360 Off ch=1 n=56 v=80
291360 Off ch=1 n=51 v=80
291360 Off ch=1 n=44 v=80
291360 On ch=1 n=56 v=95
291360 On ch=1 n=51 v=95
291360 On ch=1 n=44 v=95
291600 Off ch=1 n=56 v=80
291600 Off ch=1 n=51 v=80
291600 Off ch=1 n=44 v=80
291600 On ch=1 n=56 v=95
291600 On ch=1 n=51 v=95
291600 On ch=1 n=44 v=95
291840 Off ch=1 n=56 v=80
291840 Off ch=1 n=51 v=80
291840 Off ch=1 n=44 v=80
291840 On ch=1 n=60 v=95
291840 On ch=1 n=55 v=95
291840 On ch=1 n=48 v=95
292320 Off ch=1 n=60 v=80
292320 Off ch=1 n=55 v=80
292320 Off ch=1 n=48 v=80
292320 On ch=1 n=60 v=95
292320 On ch=1 n=55 v=95
292320 On ch=1 n=48 v=95
292800 Off ch=1 n=60 v=80
292800 Off ch=1 n=55 v=80
292800 Off ch=1 n=48 v=80
292800 On ch=1 n=60 v=95
292800 On ch=1 n=55 v=95
292800 On ch=1 n=48 v=95
293280 Off ch=1 n=60 v=80
293280 Off ch=1 n=55 v=80
293280 Off ch=1 n=48 v=80
293280 On ch=1 n=60 v=95
293280 On ch=1 n=55 v=95
293280 On ch=1 n=48 v=95
293760 Off ch=1 n=60 v=80
293760 Off ch=1 n=55 v=80
293760 Off ch=1 n=48 v=80
293760 On ch=1 n=60 v=95
293760 On ch=1 n=55 v=95
293760 On ch=1 n=48 v=95
294240 Off ch=1 n=60 v=80
294240 Off ch=1 n=55 v=80
294240 Off ch=1 n=48 v=80
294240 On ch=1 n=60 v=95
294240 On ch=1 n=55 v=95
294240 On ch=1 n=48 v=95
294720 Off ch=1 n=60 v=80
294720 Off ch=1 n=55 v=80
294720 Off ch=1 n=48 v=80
294720 On ch=1 n=60 v=95
294720 On ch=1 n=55 v=95
294720 On ch=1 n=48 v=95
295200 Off ch=1 n=60 v=80
295200 Off ch=1 n=55 v=80
295200 Off ch=1 n=48 v=80
295200 On ch=1 n=60 v=95
295200 On ch=1 n=55 v=95
295200 On ch=1 n=48 v=95
295680 Off ch=1 n=60 v=80
295680 Off ch=1 n=55 v=80
295680 Off ch=1 n=48 v=80
295680 On ch=1 n=60 v=95
295680 On ch=1 n=55 v=95
295680 On ch=1 n=48 v=95
296160 Off ch=1 n=60 v=80
296160 Off ch=1 n=55 v=80
296160 Off ch=1 n=48 v=80
296160 On ch=1 n=60 v=95
296160 On ch=1 n=55 v=95
296160 On ch=1 n=48 v=95
296640 Off ch=1 n=60 v=80
296640 Off ch=1 n=55 v=80
296640 Off ch=1 n=48 v=80
296640 On ch=1 n=60 v=95
296640 On ch=1 n=55 v=95
296640 On ch=1 n=48 v=95
297120 Off ch=1 n=60 v=80
297120 Off ch=1 n=55 v=80
297120 Off ch=1 n=48 v=80
297120 On ch=1 n=60 v=95
297120 On ch=1 n=55 v=95
297120 On ch=1 n=48 v=95
297600 Off ch=1 n=60 v=80
297600 Off ch=1 n=55 v=80
297600 Off ch=1 n=48 v=80
297600 On ch=1 n=60 v=95
297600 On ch=1 n=55 v=95
297600 On ch=1 n=48 v=95
298080 Off ch=1 n=60 v=80
298080 Off ch=1 n=55 v=80
298080 Off ch=1 n=48 v=80
298080 On ch=1 n=60 v=95
298080 On ch=1 n=55 v=95
298080 On ch=1 n=48 v=95
298560 Off ch=1 n=60 v=80
298560 Off ch=1 n=55 v=80
298560 Off ch=1 n=48 v=80
298560 On ch=1 n=60 v=95
298560 On ch=1 n=55 v=95
298560 On ch=1 n=48 v=95
299040 Off ch=1 n=60 v=80
299040 Off ch=1 n=55 v=80
299040 Off ch=1 n=48 v=80
299040 On ch=2 n=60 v=95
299040 On ch=2 n=55 v=95
299040 On ch=2 n=48 v=95
299280 Pb ch=2 v=7552
299280 Pb ch=2 v=7552
299340 Pb ch=2 v=6784
299340 Pb ch=2 v=6784
299400 Pb ch=2 v=6144
299400 Pb ch=2 v=6144
299424 Pb ch=2 v=8832
299460 Pb ch=2 v=5504
299460 Pb ch=2 v=5504
299520 Off ch=2 n=60 v=80
299520 Pb ch=2 v=8192
299520 Off ch=2 n=55 v=80
299520 Pb ch=2 v=8192
299520 Off ch=2 n=48 v=80
299520 Pb ch=2 v=8192
299520 PrCh ch=1 p=29
299520 PrCh ch=2 p=29
299520 Par ch=1 c=7 v=104
299520 Par ch=2 c=7 v=104
299520 On ch=2 n=41 v=95
299600 Pb ch=2 v=8192
299680 Pb ch=2 v=8448
299760 Pb ch=2 v=8192
299840 Pb ch=2 v=8448
299920 Pb ch=2 v=8192
300000 Pb ch=2 v=8448
300080 Pb ch=2 v=8192
300160 Pb ch=2 v=8448
300240 Pb ch=2 v=8192
300320 Pb ch=2 v=8448
300400 Pb ch=2 v=8192
300480 Pb ch=2 v=8448
300560 Pb ch=2 v=8192
300640 Pb ch=2 v=8448
300720 Pb ch=2 v=8192
300800 Pb ch=2 v=8448
300880 Pb ch=2 v=8192
300960 Pb ch=2 v=8448
301040 Pb ch=2 v=8192
301120 Pb ch=2 v=8448
301200 Pb ch=2 v=8192
301280 Pb ch=2 v=8448
301360 Pb ch=2 v=8192
301440 Off ch=2 n=41 v=80
301440 Pb ch=2 v=8448
301440 Pb ch=2 v=8192
301440 On ch=2 n=49 v=86
301520 Pb ch=2 v=8192
301600 Pb ch=2 v=8448
301680 Pb ch=2 v=8192
301760 Pb ch=2 v=8448
301840 Pb ch=2 v=8192
301920 Pb ch=2 v=8448
302000 Pb ch=2 v=8192
302080 Pb ch=2 v=8448
302160 Pb ch=2 v=8192
302240 Pb ch=2 v=8448
302320 Pb ch=2 v=8192
302400 Pb ch=2 v=8448
302480 Pb ch=2 v=8192
302560 Pb ch=2 v=8448
302640 Pb ch=2 v=8192
302720 Pb ch=2 v=8448
302800 Pb ch=2 v=8192
302880 Pb ch=2 v=8448
302960 Pb ch=2 v=8192
303040 Pb ch=2 v=8448
303120 Pb ch=2 v=8192
303200 Pb ch=2 v=8448
303280 Pb ch=2 v=8192
303360 Off ch=2 n=49 v=80
303360 Pb ch=2 v=8448
303360 Pb ch=2 v=8192
303360 On ch=2 n=51 v=95
303440 Pb ch=2 v=8192
303520 Pb ch=2 v=8448
303600 Pb ch=2 v=8192
303680 Pb ch=2 v=8448
303760 Pb ch=2 v=8192
303840 Pb ch=2 v=8448
303920 Pb ch=2 v=8192
304000 Pb ch=2 v=8448
304080 Pb ch=2 v=8192
304160 Pb ch=2 v=8448
304240 Pb ch=2 v=8192
304320 Pb ch=2 v=8448
304400 Pb ch=2 v=8192
304480 Pb ch=2 v=8448
304560 Pb ch=2 v=8192
304640 Pb ch=2 v=8448
304720 Pb ch=2 v=8192
304800 Pb ch=2 v=8448
304880 Pb ch=2 v=8192
304960 Pb ch=2 v=8448
305040 Pb ch=2 v=8192
305120 Pb ch=2 v=8448
305200 Pb ch=2 v=8192
305280 Off ch=2 n=51 v=80
305280 Pb ch=2 v=8448
305280 Pb ch=2 v=8192
305280 On ch=2 n=50 v=95
305360 Pb ch=2 v=8192
305440 Pb ch=2 v=8448
305520 Pb ch=2 v=8192
305600 Pb ch=2 v=8448
305680 Pb ch=2 v=8192
305760 Pb ch=2 v=8448
305840 Pb ch=2 v=8192
305920 Pb ch=2 v=8448
306000 Pb ch=2 v=8192
306080 Pb ch=2 v=8448
306160 Pb ch=2 v=8192
306240 Pb ch=2 v=8448
306320 Pb ch=2 v=8192
306400 Pb ch=2 v=8448
306480 Pb ch=2 v=8192
306560 Pb ch=2 v=8448
306640 Pb ch=2 v=8192
306720 Pb ch=2 v=8448
306800 Pb ch=2 v=8192
306880 Pb ch=2 v=8448
306960 Pb ch=2 v=8192
307040 Pb ch=2 v=8448
307120 Pb ch=2 v=8192
307200 Off ch=2 n=50 v=80
307200 Pb ch=2 v=8448
307200 Pb ch=2 v=8192
307200 On ch=2 n=44 v=95
307280 Pb ch=2 v=8192
307360 Pb ch=2 v=8448
307440 Pb ch=2 v=8192
307520 Pb ch=2 v=8448
307600 Pb ch=2 v=8192
307680 Pb ch=2 v=8448
307760 Pb ch=2 v=8192
307840 Pb ch=2 v=8448
307920 Pb ch=2 v=8192
308000 Pb ch=2 v=8448
308080 Pb ch=2 v=8192
308160 Pb ch=2 v=8448
308240 Pb ch=2 v=8192
308320 Pb ch=2 v=8448
308400 Pb ch=2 v=8192
308480 Pb ch=2 v=8448
308560 Pb ch=2 v=8192
308640 Pb ch=2 v=8448
308720 Pb ch=2 v=8192
308800 Pb ch=2 v=8448
308880 Pb ch=2 v=8192
308960 Pb ch=2 v=8448
309040 Pb ch=2 v=8192
309120 Off ch=2 n=44 v=80
309120 Pb ch=2 v=8448
309120 Pb ch=2 v=8192
309120 On ch=2 n=40 v=95
309200 Pb ch=2 v=8192
309280 Pb ch=2 v=8448
309360 Pb ch=2 v=8192
309440 Pb ch=2 v=8448
309520 Pb ch=2 v=8192
309600 Pb ch=2 v=8448
309680 Pb ch=2 v=8192
309760 Pb ch=2 v=8448
309840 Pb ch=2 v=8192
309920 Pb ch=2 v=8448
310000 Pb ch=2 v=8192
310080 Pb ch=2 v=8448
310160 Pb ch=2 v=8192
310240 Pb ch=2 v=8448
310320 Pb ch=2 v=8192
310400 Pb ch=2 v=8448
310480 Pb ch=2 v=8192
310560 Pb ch=2 v=8448
310640 Pb ch=2 v=8192
310720 Pb ch=2 v=8448
310800 Pb ch=2 v=8192
310880 Pb ch=2 v=8448
310960 Pb ch=2 v=8192
311040 Off ch=2 n=40 v=80
311040 Pb ch=2 v=8448
311040 Pb ch=2 v=8192
311040 PrCh ch=1 p=29
311040 PrCh ch=2 p=29
311040 Par ch=1 c=7 v=104
311040 Par ch=2 c=7 v=104
311040 On ch=2 n=41 v=95
311120 Pb ch=2 v=8192
311200 Pb ch=2 v=8448
311280 Pb ch=2 v=8192
311360 Pb ch=2 v=8448
311440 Pb ch=2 v=8192
311520 Pb ch=2 v=8448
311600 Pb ch=2 v=8192
311680 Pb ch=2 v=8448
311760 Pb ch=2 v=8192
311840 Pb ch=2 v=8448
311920 Pb ch=2 v=8192
312000 Pb ch=2 v=8448
312080 Pb ch=2 v=8192
312160 Pb ch=2 v=8448
312240 Pb ch=2 v=8192
312320 Pb ch=2 v=8448
312400 Pb ch=2 v=8192
312480 Pb ch=2 v=8448
312560 Pb ch=2 v=8192
312640 Pb ch=2 v=8448
312720 Pb ch=2 v=8192
312800 Pb ch=2 v=8448
312880 Pb ch=2 v=8192
312960 Off ch=2 n=41 v=80
312960 Pb ch=2 v=8448
312960 Pb ch=2 v=8192
312960 On ch=2 n=49 v=95
313040 Pb ch=2 v=8192
313120 Pb ch=2 v=8448
313200 Pb ch=2 v=8192
313280 Pb ch=2 v=8448
313360 Pb ch=2 v=8192
313440 Pb ch=2 v=8448
313520 Pb ch=2 v=8192
313600 Pb ch=2 v=8448
313680 Pb ch=2 v=8192
313760 Pb ch=2 v=8448
313840 Pb ch=2 v=8192
313920 Pb ch=2 v=8448
314000 Pb ch=2 v=8192
314080 Pb ch=2 v=8448
314160 Pb ch=2 v=8192
314240 Pb ch=2 v=8448
314320 Pb ch=2 v=8192
314400 Pb ch=2 v=8448
314480 Pb ch=2 v=8192
314560 Pb ch=2 v=8448
314640 Pb ch=2 v=8192
314720 Pb ch=2 v=8448
314800 Pb ch=2 v=8192
314880 Off ch=2 n=49 v=80
314880 Pb ch=2 v=8448
314880 Pb ch=2 v=8192
314880 On ch=2 n=51 v=95
314960 Pb ch=2 v=8192
315040 Pb ch=2 v=8448
315120 Pb ch=2 v=8192
315200 Pb ch=2 v=8448
315280 Pb ch=2 v=8192
315360 Pb ch=2 v=8448
315440 Pb ch=2 v=8192
315520 Pb ch=2 v=8448
315600 Pb ch=2 v=8192
315680 Pb ch=2 v=8448
315760 Pb ch=2 v=8192
315840 Pb ch=2 v=8448
315920 Pb ch=2 v=8192
316000 Pb ch=2 v=8448
316080 Pb ch=2 v=8192
316160 Pb ch=2 v=8448
316240 Pb ch=2 v=8192
316320 Pb ch=2 v=8448
316400 Pb ch=2 v=8192
316480 Pb ch=2 v=8448
316560 Pb ch=2 v=8192
316640 Pb ch=2 v=8448
316720 Pb ch=2 v=8192
316800 Off ch=2 n=51 v=80
316800 Pb ch=2 v=8448
316800 Pb ch=2 v=8192
316800 On ch=2 n=50 v=95
316880 Pb ch=2 v=8192
316960 Pb ch=2 v=8448
317040 Pb ch=2 v=8192
317120 Pb ch=2 v=8448
317200 Pb ch=2 v=8192
317280 Pb ch=2 v=8448
317360 Pb ch=2 v=8192
317440 Pb ch=2 v=8448
317520 Pb ch=2 v=8192
317600 Pb ch=2 v=8448
317680 Pb ch=2 v=8192
317760 Pb ch=2 v=8448
317840 Pb ch=2 v=8192
317920 Pb ch=2 v=8448
318000 Pb ch=2 v=8192
318080 Pb ch=2 v=8448
318160 Pb ch=2 v=8192
318240 Pb ch=2 v=8448
318320 Pb ch=2 v=8192
318400 Pb ch=2 v=8448
318480 Pb ch=2 v=8192
318560 Pb ch=2 v=8448
318640 Pb ch=2 v=8192
318720 Off ch=2 n=50 v=80
318720 Pb ch=2 v=8448
318720 Pb ch=2 v=8192
318720 On ch=2 n=44 v=95
318800 Pb ch=2 v=8192
318880 Pb ch=2 v=8448
318960 Pb ch=2 v=8192
319040 Pb ch=2 v=8448
319120 Pb ch=2 v=8192
319200 Pb ch=2 v=8448
319280 Pb ch=2 v=8192
319360 Pb ch=2 v=8448
319440 Pb ch=2 v=8192
319520 Pb ch=2 v=8448
319600 Pb ch=2 v=8192
319680 Pb ch=2 v=8448
319760 Pb ch=2 v=8192
319840 Pb ch=2 v=8448
319920 Pb ch=2 v=8192
320000 Pb ch=2 v=8448
320080 Pb ch=2 v=8192
320160 Pb ch=2 v=8448
320240 Pb ch=2 v=8192
320320 Pb ch=2 v=8448
320400 Pb ch=2 v=8192
320480 Pb ch=2 v=8448
320560 Pb ch=2 v=8192
320640 Off ch=2 n=44 v=80
320640 Pb ch=2 v=8448
320640 Pb ch=2 v=8192
320640 On ch=2 n=40 v=95
320720 Pb ch=2 v=8192
320800 Pb ch=2 v=8448
320880 Pb ch=2 v=8192
320960 Pb ch=2 v=8448
321040 Pb ch=2 v=8192
321120 Pb ch=2 v=8448
321200 Pb ch=2 v=8192
321280 Pb ch=2 v=8448
321360 Pb ch=2 v=8192
321440 Pb ch=2 v=8448
321520 Pb ch=2 v=8192
321600 Pb ch=2 v=8448
321680 Pb ch=2 v=8192
321760 Pb ch=2 v=8448
321840 Pb ch=2 v=8192
321920 Pb ch=2 v=8448
322000 Pb ch=2 v=8192
322080 Pb ch=2 v=8448
322160 Pb ch=2 v=8192
322240 Pb ch=2 v=8448
322320 Pb ch=2 v=8192
322400 Pb ch=2 v=8448
322480 Pb ch=2 v=8192
322560 Off ch=2 n=40 v=80
322560 Pb ch=2 v=8448
322560 Pb ch=2 v=8192
322560 PrCh ch=1 p=29
322560 PrCh ch=2 p=29
322560 Par ch=1 c=7 v=104
322560 Par ch=2 c=7 v=104
322560 On ch=2 n=41 v=95
322640 Pb ch=2 v=8192
322720 Pb ch=2 v=8448
322800 Pb ch=2 v=8192
322880 Pb ch=2 v=8448
322960 Pb ch=2 v=8192
323040 Pb ch=2 v=8448
323120 Pb ch=2 v=8192
323200 Pb ch=2 v=8448
323280 Pb ch=2 v=8192
323360 Pb ch=2 v=8448
323440 Pb ch=2 v=8192
323520 Pb ch=2 v=8448
323600 Pb ch=2 v=8192
323680 Pb ch=2 v=8448
323760 Pb ch=2 v=8192
323840 Pb ch=2 v=8448
323920 Pb ch=2 v=8192
324000 Pb ch=2 v=8448
324080 Pb ch=2 v=8192
324160 Pb ch=2 v=8448
324240 Pb ch=2 v=8192
324320 Pb ch=2 v=8448
324400 Pb ch=2 v=8192
324480 Off ch=2 n=41 v=80
324480 Pb ch=2 v=8448
324480 Pb ch=2 v=8192
324480 On ch=2 n=49 v=95
324560 Pb ch=2 v=8192
324640 Pb ch=2 v=8448
324720 Pb ch=2 v=8192
324800 Pb ch=2 v=8448
324880 Pb ch=2 v=8192
324960 Pb ch=2 v=8448
325040 Pb ch=2 v=8192
325120 Pb ch=2 v=8448
325200 Pb ch=2 v=8192
325280 Pb ch=2 v=8448
325360 Pb ch=2 v=8192
325440 Pb ch=2 v=8448
325520 Pb ch=2 v=8192
325600 Pb ch=2 v=8448
325680 Pb ch=2 v=8192
325760 Pb ch=2 v=8448
325840 Pb ch=2 v=8192
325920 Pb ch=2 v=8448
326000 Pb ch=2 v=8192
326080 Pb ch=2 v=8448
326160 Pb ch=2 v=8192
326240 Pb ch=2 v=8448
326320 Pb ch=2 v=8192
326400 Off ch=2 n=49 v=80
326400 Pb ch=2 v=8448
326400 Pb ch=2 v=8192
326400 On ch=2 n=51 v=95
326480 Pb ch=2 v=8192
326560 Pb ch=2 v=8448
326640 Pb ch=2 v=8192
326720 Pb ch=2 v=8448
326800 Pb ch=2 v=8192
326880 Pb ch=2 v=8448
326960 Pb ch=2 v=8192
327040 Pb ch=2 v=8448
327120 Pb ch=2 v=8192
327200 Pb ch=2 v=8448
327280 Pb ch=2 v=8192
327360 Pb ch=2 v=8448
327440 Pb ch=2 v=8192
327520 Pb ch=2 v=8448
327600 Pb ch=2 v=8192
327680 Pb ch=2 v=8448
327760 Pb ch=2 v=8192
327840 Pb ch=2 v=8448
327920 Pb ch=2 v=8192
328000 Pb ch=2 v=8448
328080 Pb ch=2 v=8192
328160 Pb ch=2 v=8448
328240 Pb ch=2 v=8192
328320 Off ch=2 n=51 v=80
328320 Pb ch=2 v=8448
328320 Pb ch=2 v=8192
328320 On ch=2 n=50 v=95
328400 Pb ch=2 v=8192
328480 Pb ch=2 v=8448
328560 Pb ch=2 v=8192
328640 Pb ch=2 v=8448
328720 Pb ch=2 v=8192
328800 Pb ch=2 v=8448
328880 Pb ch=2 v=8192
328960 Pb ch=2 v=8448
329040 Pb ch=2 v=8192
329120 Pb ch=2 v=8448
329200 Pb ch=2 v=8192
329280 Pb ch=2 v=8448
329360 Pb ch=2 v=8192
329440 Pb ch=2 v=8448
329520 Pb ch=2 v=8192
329600 Pb ch=2 v=8448
329680 Pb ch=2 v=8192
329760 Pb ch=2 v=8448
329840 Pb ch=2 v=8192
329920 Pb ch=2 v=8448
330000 Pb ch=2 v=8192
330080 Pb ch=2 v=8448
330160 Pb ch=2 v=8192
330240 Off ch=2 n=50 v=80
330240 Pb ch=2 v=8448
330240 Pb ch=2 v=8192
330240 On ch=2 n=44 v=95
330320 Pb ch=2 v=8192
330400 Pb ch=2 v=8448
330480 Pb ch=2 v=8192
330560 Pb ch=2 v=8448
330640 Pb ch=2 v=8192
330720 Pb ch=2 v=8448
330800 Pb ch=2 v=8192
330880 Pb ch=2 v=8448
330960 Pb ch=2 v=8192
331040 Pb ch=2 v=8448
331120 Pb ch=2 v=8192
331200 Pb ch=2 v=8448
331280 Pb ch=2 v=8192
331360 Pb ch=2 v=8448
331440 Pb ch=2 v=8192
331520 Pb ch=2 v=8448
331600 Pb ch=2 v=8192
331680 Pb ch=2 v=8448
331760 Pb ch=2 v=8192
331840 Pb ch=2 v=8448
331920 Pb ch=2 v=8192
332000 Pb ch=2 v=8448
332080 Pb ch=2 v=8192
332160 Off ch=2 n=44 v=80
332160 Pb ch=2 v=8448
332160 Pb ch=2 v=8192
332160 On ch=2 n=40 v=95
332240 Pb ch=2 v=8192
332320 Pb ch=2 v=8448
332400 Pb ch=2 v=8192
332480 Pb ch=2 v=8448
332560 Pb ch=2 v=8192
332640 Pb ch=2 v=8448
332720 Pb ch=2 v=8192
332800 Pb ch=2 v=8448
332880 Pb ch=2 v=8192
332960 Pb ch=2 v=8448
333040 Pb ch=2 v=8192
333120 Pb ch=2 v=8448
333200 Pb ch=2 v=8192
333280 Pb ch=2 v=8448
333360 Pb ch=2 v=8192
333440 Pb ch=2 v=8448
333520 Pb ch=2 v=8192
333600 Pb ch=2 v=8448
333680 Pb ch=2 v=8192
333760 Pb ch=2 v=8448
333840 Pb ch=2 v=8192
333920 Pb ch=2 v=8448
334000 Pb ch=2 v=8192
334080 Off ch=2 n=40 v=80
334080 Pb ch=2 v=8448
334080 Pb ch=2 v=8192
334080 PrCh ch=1 p=29
334080 PrCh ch=2 p=29
334080 Par ch=1 c=7 v=104
334080 Par ch=2 c=7 v=104
334080 On ch=2 n=41 v=95
334160 Pb ch=2 v=8192
334240 Pb ch=2 v=8448
334320 Pb ch=2 v=8192
334400 Pb ch=2 v=8448
334480 Pb ch=2 v=8192
334560 Pb ch=2 v=8448
334640 Pb ch=2 v=8192
334720 Pb ch=2 v=8448
334800 Pb ch=2 v=8192
334880 Pb ch=2 v=8448
334960 Pb ch=2 v=8192
335040 Pb ch=2 v=8448
335120 Pb ch=2 v=8192
335200 Pb ch=2 v=8448
335280 Pb ch=2 v=8192
335360 Pb ch=2 v=8448
335440 Pb ch=2 v=8192
335520 Pb ch=2 v=8448
335600 Pb ch=2 v=8192
335680 Pb ch=2 v=8448
335760 Pb ch=2 v=8192
335840 Pb ch=2 v=8448
335920 Pb ch=2 v=8192
336000 Off ch=2 n=41 v=80
336000 Pb ch=2 v=8448
336000 Pb ch=2 v=8192
336000 On ch=2 n=49 v=95
336080 Pb ch=2 v=8192
336160 Pb ch=2 v=8448
336240 Pb ch=2 v=8192
336320 Pb ch=2 v=8448
336400 Pb ch=2 v=8192
336480 Pb ch=2 v=8448
336560 Pb ch=2 v=8192
336640 Pb ch=2 v=8448
336720 Pb ch=2 v=8192
336800 Pb ch=2 v=8448
336880 Pb ch=2 v=8192
336960 Pb ch=2 v=8448
337040 Pb ch=2 v=8192
337120 Pb ch=2 v=8448
337200 Pb ch=2 v=8192
337280 Pb ch=2 v=8448
337360 Pb ch=2 v=8192
337440 Pb ch=2 v=8448
337520 Pb ch=2 v=8192
337600 Pb ch=2 v=8448
337680 Pb ch=2 v=8192
337760 Pb ch=2 v=8448
337840 Pb ch=2 v=8192
337920 Off ch=2 n=49 v=80
337920 Pb ch=2 v=8448
337920 Pb ch=2 v=8192
337920 On ch=2 n=51 v=95
338000 Pb ch=2 v=8192
338080 Pb ch=2 v=8448
338160 Pb ch=2 v=8192
338240 Pb ch=2 v=8448
338320 Pb ch=2 v=8192
338400 Pb ch=2 v=8448
338480 Pb ch=2 v=8192
338560 Pb ch=2 v=8448
338640 Pb ch=2 v=8192
338720 Pb ch=2 v=8448
338800 Pb ch=2 v=8192
338880 Pb ch=2 v=8448
338960 Pb ch=2 v=8192
339040 Pb ch=2 v=8448
339120 Pb ch=2 v=8192
339200 Pb ch=2 v=8448
339280 Pb ch=2 v=8192
339360 Pb ch=2 v=8448
339440 Pb ch=2 v=8192
339520 Pb ch=2 v=8448
339600 Pb ch=2 v=8192
339680 Pb ch=2 v=8448
339760 Pb ch=2 v=8192
339840 Off ch=2 n=51 v=80
339840 Pb ch=2 v=8448
339840 Pb ch=2 v=8192
339840 On ch=2 n=50 v=95
339920 Pb ch=2 v=8192
340000 Pb ch=2 v=8448
340080 Pb ch=2 v=8192
340160 Pb ch=2 v=8448
340240 Pb ch=2 v=8192
340320 Pb ch=2 v=8448
340400 Pb ch=2 v=8192
340480 Pb ch=2 v=8448
340560 Pb ch=2 v=8192
340640 Pb ch=2 v=8448
340720 Pb ch=2 v=8192
340800 Pb ch=2 v=8448
340880 Pb ch=2 v=8192
340960 Pb ch=2 v=8448
341040 Pb ch=2 v=8192
341120 Pb ch=2 v=8448
341200 Pb ch=2 v=8192
341280 Pb ch=2 v=8448
341360 Pb ch=2 v=8192
341440 Pb ch=2 v=8448
341520 Pb ch=2 v=8192
341600 Pb ch=2 v=8448
341680 Pb ch=2 v=8192
341760 Off ch=2 n=50 v=80
341760 Pb ch=2 v=8448
341760 Pb ch=2 v=8192
341760 On ch=1 n=44 v=95
342240 Off ch=1 n=44 v=80
342240 On ch=1 n=44 v=95
342720 Off ch=1 n=44 v=80
342720 On ch=1 n=40 v=95
343200 Off ch=1 n=40 v=80
343200 On ch=1 n=40 v=95
343680 Off ch=1 n=40 v=80
343680 Meta TrkEnd
TrkEnd
MTrk
0 Meta TrkName "Billie Joe Armstrong (Guitar 2)"
0 Par ch=3 c=100 v=0
0 Par ch=3 c=101 v=0
0 Par ch=3 c=6 v=12
0 Pb ch=3 v=8192
0 Par ch=4 c=100 v=0
0 Par ch=4 c=101 v=0
0 Par ch=4 c=6 v=12
0 Pb ch=4 v=8192
0 PrCh ch=3 p=25
0 PrCh ch=4 p=25
0 Par ch=3 c=7 v=88
0 Par ch=4 c=7 v=88
0 Par ch=3 c=10 v=64
0 Par ch=4 c=10 v=64
0 Par ch=3 c=93 v=0
0 Par ch=4 c=93 v=0
0 Par ch=3 c=91 v=0
0 Par ch=4 c=91 v=0
0 Par ch=3 c=92 v=0
0 Par ch=4 c=92 v=0
0 Par ch=3 c=95 v=0
0 Par ch=4 c=95 v=0
0 PrCh ch=3 p=30
0 PrCh ch=4 p=30
0 On ch=3 n=53 v=95
0 On ch=3 n=48 v=95
0 On ch=3 n=41 v=95
5760 Par ch=3 c=7 v=88
5760 Par ch=4 c=7 v=88
7680 Par ch=3 c=7 v=80
7680 Par ch=4 c=7 v=80
9600 Par ch=3 c=7 v=64
9600 Par ch=4 c=7 v=64
11520 Par ch=3 c=7 v=48
11520 Par ch=4 c=7 v=48
13440 Par ch=3 c=7 v=32
13440 Par ch=4 c=7 v=32
15360 Off ch=3 n=53 v=80
15360 Off ch=3 n=48 v=80
15360 Off ch=3 n=41 v=80
15360 PrCh ch=3 p=25
15360 PrCh ch=4 p=25
15360 Par ch=3 c=7 v=80
15360 Par ch=4 c=7 v=80
15360 On ch=3 n=41 v=95
15380 On ch=3 n=48 v=95
15400 On ch=3 n=53 v=95
15420 On ch=3 n=55 v=95
15440 Off ch=3 n=55 v=80
15440 On ch=3 n=60 v=95
15460 On ch=3 n=64 v=95
15480 Off ch=3 n=64 v=80
16320 Off ch=3 n=41 v=80
16320 Off ch=3 n=48 v=80
16320 Off ch=3 n=53 v=80
16320 Off ch=3 n=60 v=80
16320 On ch=3 n=41 v=95
16330 On ch=3 n=48 v=95
16340 On ch=3 n=53 v=95
16350 On ch=3 n=55 v=95
16360 On ch=3 n=60 v=95
16370 Off ch=3 n=55 v=80
16370 On ch=3 n=64 v=95
16390 Off ch=3 n=64 v=80
17280 Off ch=3 n=41 v=80
17280 Off ch=3 n=48 v=80
17280 Off ch=3 n=53 v=80
17280 Off ch=3 n=60 v=80
17280 On ch=3 n=44 v=95
17300 On ch=3 n=51 v=95
17320 On ch=3 n=56 v=95
17340 On ch=3 n=55 v=95
17360 Off ch=3 n=55 v=80
17360 On ch=3 n=63 v=95
17380 On ch=3 n=64 v=95
17400 Off ch=3 n=64 v=80
18240 Off ch=3 n=44 v=80
18240 Off ch=3 n=51 v=80
18240 Off ch=3 n=56 v=80
18240 Off ch=3 n=63 v=80
18240 On ch=3 n=44 v=95
18260 On ch=3 n=51 v=95
18280 On ch=3 n=56 v=95
18300 On ch=3 n=55 v=95
18320 Off ch=3 n=55 v=80
18320 On ch=3 n=63 v=95
18340 On ch=3 n=64 v=95
18360 Off ch=3 n=64 v=80
19200 Off ch=3 n=44 v=80
19200 Off ch=3 n=51 v=80
19200 Off ch=3 n=56 v=80
19200 Off ch=3 n=63 v=80
19200 On ch=3 n=51 v=95
19210 On ch=3 n=58 v=95
19220 On ch=3 n=63 v=95
19230 On ch=3 n=59 v=95
19240 On ch=3 n=70 v=95
19250 Off ch=3 n=59 v=80
20160 Off ch=3 n=51 v=80
20160 Off ch=3 n=58 v=80
20160 Off ch=3 n=63 v=80
20160 Off ch=3 n=70 v=80
20160 On ch=3 n=51 v=95
20170 On ch=3 n=58 v=95
20180 On ch=3 n=63 v=95
20190 On ch=3 n=59 v=95
20200 On ch=3 n=70 v=95
20210 Off ch=3 n=59 v=80
21120 Off ch=3 n=51 v=80
21120 Off ch=3 n=58 v=80
21120 Off ch=3 n=63 v=80
21120 Off ch=3 n=70 v=80
21120 On ch=3 n=46 v=95
21130 On ch=3 n=53 v=95
21140 On ch=3 n=58 v=95
21150 On ch=3 n=55 v=95
21160 On ch=3 n=65 v=95
21170 Off ch=3 n=55 v=80
21170 On ch=3 n=64 v=95
21190 Off ch=3 n=64 v=80
22080 Off ch=3 n=46 v=80
22080 Off ch=3 n=53 v=80
22080 Off ch=3 n=58 v=80
22080 Off ch=3 n=65 v=80
22080 On ch=3 n=46 v=95
22090 On ch=3 n=53 v=95
22100 On ch=3 n=58 v=95
22110 On ch=3 n=55 v=95
22120 On ch=3 n=65 v=95
22130 Off ch=3 n=55 v=80
22130 On ch=3 n=64 v=95
22150 Off ch=3 n=64 v=80
23040 Off ch=3 n=46 v=80
23040 Off ch=3 n=53 v=80
23040 Off ch=3 n=58 v=80
23040 Off ch=3 n=65 v=80
23040 On ch=3 n=53 v=95
23040 On ch=3 n=48 v=95
23040 On ch=3 n=41 v=95
23520 Off ch=3 n=53 v=80
23520 Off ch=3 n=48 v=80
23520 Off ch=3 n=41 v=80
23520 On ch=3 n=53 v=63
23520 On ch=3 n=48 v=63
23520 On ch=3 n=41 v=63
24000 Off ch=3 n=53 v=80
24000 Off ch=3 n=48 v=80
24000 Off ch=3 n=41 v=80
24000 On ch=3 n=53 v=95
24000 On ch=3 n=48 v=95
24000 On ch=3 n=41 v=95
24480 Off ch=3 n=53 v=80
24480 Off ch=3 n=48 v=80
24480 Off ch=3 n=41 v=80
24480 On ch=3 n=50 v=95
24480 On ch=3 n=45 v=95
24480 On ch=3 n=40 v=95
24500 Off ch=3 n=50 v=80
24500 Off ch=3 n=45 v=80
24500 Off ch=3 n=40 v=80
24720 On ch=3 n=50 v=95
24720 On ch=3 n=45 v=95
24720 On ch=3 n=40 v=95
24740 Off ch=3 n=50 v=80
24740 Off ch=3 n=45 v=80
24740 Off ch=3 n=40 v=80
24960 On ch=3 n=56 v=95
24960 On ch=3 n=51 v=95
24960 On ch=3 n=44 v=95
25440 Off ch=3 n=56 v=80
25440 Off ch=3 n=51 v=80
25440 Off ch=3 n=44 v=80
25440 On ch=3 n=56 v=63
25440 On ch=3 n=51 v=63
25440 On ch=3 n=44 v=63
25920 Off ch=3 n=56 v=80
25920 Off ch=3 n=51 v=80
25920 Off ch=3 n=44 v=80
25920 On ch=3 n=56 v=95
25920 On ch=3 n=51 v=95
25920 On ch=3 n=44 v=95
26400 Off ch=3 n=56 v=80
26400 Off ch=3 n=51 v=80
26400 Off ch=3 n=44 v=80
26400 On ch=3 n=50 v=95
26400 On ch=3 n=45 v=95
26400 On ch=3 n=40 v=95
26420 Off ch=3 n=50 v=80
26420 Off ch=3 n=45 v=80
26420 Off ch=3 n=40 v=80
26640 On ch=3 n=50 v=95
26640 On ch=3 n=45 v=95
26640 On ch=3 n=40 v=95
26660 Off ch=3 n=50 v=80
26660 Off ch=3 n=45 v=80
26660 Off ch=3 n=40 v=80
26880 On ch=3 n=63 v=95
26880 On ch=3 n=58 v=95
26880 On ch=3 n=51 v=95
27360 Off ch=3 n=63 v=80
27360 Off ch=3 n=58 v=80
27360 Off ch=3 n=51 v=80
27360 On ch=3 n=63 v=63
27360 On ch=3 n=58 v=63
27360 On ch=3 n=51 v=63
27840 Off ch=3 n=63 v=80
27840 Off ch=3 n=58 v=80
27840 Off ch=3 n=51 v=80
27840 On ch=3 n=63 v=95
27840 On ch=3 n=58 v=95
27840 On ch=3 n=51 v=95
28320 Off ch=3 n=63 v=80
28320 Off ch=3 n=58 v=80
28320 Off ch=3 n=51 v=80
28320 On ch=3 n=55 v=95
28320 On ch=3 n=50 v=95
28320 On ch=3 n=45 v=95
28340 Off ch=3 n=55 v=80
28340 Off ch=3 n=50 v=80
28340 Off ch=3 n=45 v=80
28560 On ch=3 n=55 v=95
28560 On ch=3 n=50 v=95
28560 On ch=3 n=45 v=95
28580 Off ch=3 n=55 v=80
28580 Off ch=3 n=50 v=80
28580 Off ch=3 n=45 v=80
28800 On ch=3 n=58 v=95
28800 On ch=3 n=53 v=95
28800 On ch=3 n=46 v=95
29280 Off ch=3 n=58 v=80
29280 Off ch=3 n=53 v=80
29280 Off ch=3 n=46 v=80
29280 On ch=3 n=58 v=63
29280 On ch=3 n=53 v=63
29280 On ch=3 n=46 v=63
29760 Off ch=3 n=58 v=80
29760 Off ch=3 n=53 v=80
29760 Off ch=3 n=46 v=80
29760 On ch=3 n=58 v=95
29760 On ch=3 n=53 v=95
29760 On ch=3 n=46 v=95
30240 Off ch=3 n=58 v=80
30240 Off ch=3 n=53 v=80
30240 Off ch=3 n=46 v=80
30240 On ch=3 n=50 v=95
30240 On ch=3 n=45 v=95
30240 On ch=3 n=40 v=95
30260 Off ch=3 n=50 v=80
30260 Off ch=3 n=45 v=80
30260 Off ch=3 n=40 v=80
30480 On ch=3 n=50 v=95
30480 On ch=3 n=45 v=95
30480 On ch=3 n=40 v=95
30500 Off ch=3 n=50 v=80
30500 Off ch=3 n=45 v=80
30500 Off ch=3 n=40 v=80
30720 On ch=3 n=53 v=95
30720 On ch=3 n=48 v=95
30720 On ch=3 n=41 v=95
31200 Off ch=3 n=53 v=80
31200 Off ch=3 n=48 v=80
31200 Off ch=3 n=41 v=80
31200 On ch=3 n=53 v=63
31200 On ch=3 n=48 v=63
31200 On ch=3 n=41 v=63
31680 Off ch=3 n=53 v=80
31680 Off ch=3 n=48 v=80
31680 Off ch=3 n=41 v=80
31680 On ch=3 n=53 v=95
31680 On ch=3 n=48 v=95
31680 On ch=3 n=41 v=95
32160 Off ch=3 n=53 v=80
32160 Off ch=3 n=48 v=80
32160 Off ch=3 n=41 v=80
32160 On ch=3 n=50 v=95
32160 On ch=3 n=45 v=95
32160 On ch=3 n=40 v=95
32180 Off ch=3 n=50 v=80
32180 Off ch=3 n=45 v=80
32180 Off ch=3 n=40 v=80
32400 On ch=3 n=50 v=95
32400 On ch=3 n=45 v=95
32400 On ch=3 n=40 v=95
32420 Off ch=3 n=50 v=80
32420 Off ch=3 n=45 v=80
32420 Off ch=3 n=40 v=80
32640 On ch=3 n=56 v=95
32640 On ch=3 n=51 v=95
32640 On ch=3 n=44 v=95
33120 Off ch=3 n=56 v=80
33120 Off ch=3 n=51 v=80
33120 Off ch=3 n=44 v=80
33120 On ch=3 n=56 v=63
33120 On ch=3 n=51 v=63
33120 On ch=3 n=44 v=63
33600 Off ch=3 n=56 v=80
33600 Off ch=3 n=51 v=80
33600 Off ch=3 n=44 v=80
33600 On ch=3 n=56 v=95
33600 On ch=3 n=51 v=95
33600 On ch=3 n=44 v=95
34080 Off ch=3 n=56 v=80
34080 Off ch=3 n=51 v=80
34080 Off ch=3 n=44 v=80
34080 On ch=3 n=50 v=95
34080 On ch=3 n=45 v=95
34080 On ch=3 n=40 v=95
34100 Off ch=3 n=50 v=80
34100 Off ch=3 n=45 v=80
34100 Off ch=3 n=40 v=80
34320 On ch=3 n=50 v=95
34320 On ch=3 n=45 v=95
34320 On ch=3 n=40 v=95
34340 Off ch=3 n=50 v=80
34340 Off ch=3 n=45 v=80
34340 Off ch=3 n=40 v=80
34560 On ch=3 n=63 v=95
34560 On ch=3 n=58 v=95
34560 On ch=3 n=51 v=95
35040 Off ch=3 n=63 v=80
35040 Off ch=3 n=58 v=80
35040 Off ch=3 n=51 v=80
35040 On ch=3 n=63 v=63
35040 On ch=3 n=58 v=63
35040 On ch=3 n=51 v=63
35520 Off ch=3 n=63 v=80
35520 Off ch=3 n=58 v=80
35520 Off ch=3 n=51 v=80
35520 On ch=3 n=63 v=95
35520 On ch=3 n=58 v=95
35520 On ch=3 n=51 v=95
36000 Off ch=3 n=63 v=80
36000 Off ch=3 n=58 v=80
36000 Off ch=3 n=51 v=80
36000 On ch=3 n=55 v=95
36000 On ch=3 n=50 v=95
36000 On ch=3 n=45 v=95
36020 Off ch=3 n=55 v=80
36020 Off ch=3 n=50 v=80
36020 Off ch=3 n=45 v=80
36240 On ch=3 n=55 v=95
36240 On ch=3 n=50 v=95
36240 On ch=3 n=45 v=95
36260 Off ch=3 n=55 v=80
36260 Off ch=3 n=50 v=80
36260 Off ch=3 n=45 v=80
36480 On ch=3 n=58 v=95
36480 On ch=3 n=53 v=95
36480 On ch=3 n=46 v=95
36960 Off ch=3 n=58 v=80
36960 Off ch=3 n=53 v=80
36960 Off ch=3 n=46 v=80
36960 On ch=3 n=58 v=63
36960 On ch=3 n=53 v=63
36960 On ch=3 n=46 v=63
37440 Off ch=3 n=58 v=80
37440 Off ch=3 n=53 v=80
37440 Off ch=3 n=46 v=80
37440 On ch=3 n=58 v=95
37440 On ch=3 n=53 v=95
37440 On ch=3 n=46 v=95
37920 Off ch=3 n=58 v=80
37920 Off ch=3 n=53 v=80
37920 Off ch=3 n=46 v=80
37920 On ch=3 n=50 v=95
37920 On ch=3 n=45 v=95
37920 On ch=3 n=40 v=95
37940 Off ch=3 n=50 v=80
37940 Off ch=3 n=45 v=80
37940 Off ch=3 n=40 v=80
38160 On ch=3 n=50 v=95
38160 On ch=3 n=45 v=95
38160 On ch=3 n=40 v=95
38180 Off ch=3 n=50 v=80
38180 Off ch=3 n=45 v=80
38180 Off ch=3 n=40 v=80
38400 On ch=3 n=53 v=95
38400 On ch=3 n=48 v=95
38400 On ch=3 n=41 v=95
38880 Off ch=3 n=53 v=80
38880 Off ch=3 n=48 v=80
38880 Off ch=3 n=41 v=80
38880 On ch=3 n=53 v=63
38880 On ch=3 n=48 v=63
38880 On ch=3 n=41 v=63
39360 Off ch=3 n=53 v=80
39360 Off ch=3 n=48 v=80
39360 Off ch=3 n=41 v=80
39360 On ch=3 n=53 v=95
39360 On ch=3 n=48 v=95
39360 On ch=3 n=41 v=95
39840 Off ch=3 n=53 v=80
39840 Off ch=3 n=48 v=80
39840 Off ch=3 n=41 v=80
39840 On ch=3 n=50 v=95
39840 On ch=3 n=45 v=95
39840 On ch=3 n=40 v=95
39860 Off ch=3 n=50 v=80
39860 Off ch=3 n=45 v=80
39860 Off ch=3 n=40 v=80
40080 On ch=3 n=50 v=95
40080 On ch=3 n=45 v=95
40080 On ch=3 n=40 v=95
40100 Off ch=3 n=50 v=80
40100 Off ch=3 n=45 v=80
40100 Off ch=3 n=40 v=80
40320 On ch=3 n=56 v=95
40320 On ch=3 n=51 v=95
40320 On ch=3 n=44 v=95
40800 Off ch=3 n=56 v=80
40800 Off ch=3 n=51 v=80
40800 Off ch=3 n=44 v=80
40800 On ch=3 n=56 v=63
40800 On ch=3 n=51 v=63
40800 On ch=3 n=44 v=63
41280 Off ch=3 n=56 v=80
41280 Off ch=3 n=51 v=80
41280 Off ch=3 n=44 v=80
41280 On ch=3 n=56 v=95
41280 On ch=3 n=51 v=95
41280 On ch=3 n=44 v=95
41760 Off ch=3 n=56 v=80
41760 Off ch=3 n=51 v=80
41760 Off ch=3 n=44 v=80
41760 On ch=3 n=50 v=95
41760 On ch=3 n=45 v=95
41760 On ch=3 n=40 v=95
41780 Off ch=3 n=50 v=80
41780 Off ch=3 n=45 v=80
41780 Off ch=3 n=40 v=80
42000 On ch=3 n=50 v=95
42000 On ch=3 n=45 v=95
42000 On ch=3 n=40 v=95
42020 Off ch=3 n=50 v=80
42020 Off ch=3 n=45 v=80
42020 Off ch=3 n=40 v=80
42240 On ch=3 n=63 v=95
42240 On ch=3 n=58 v=95
42240 On ch=3 n=51 v=95
42720 Off ch=3 n=63 v=80
42720 Off ch=3 n=58 v=80
42720 Off ch=3 n=51 v=80
42720 On ch=3 n=63 v=63
42720 On ch=3 n=58 v=63
42720 On ch=3 n=51 v=63
43200 Off ch=3 n=63 v=80
43200 Off ch=3 n=58 v=80
43200 Off ch=3 n=51 v=80
43200 On ch=3 n=63 v=95
43200 On ch=3 n=58 v=95
43200 On ch=3 n=51 v=95
43680 Off ch=3 n=63 v=80
43680 Off ch=3 n=58 v=80
43680 Off ch=3 n=51 v=80
43680 On ch=3 n=55 v=95
43680 On ch=3 n=50 v=95
43680 On ch=3 n=45 v=95
43700 Off ch=3 n=55 v=80
43700 Off ch=3 n=50 v=80
43700 Off ch=3 n=45 v=80
43920 On ch=3 n=55 v=95
43920 On ch=3 n=50 v=95
43920 On ch=3 n=45 v=95
43940 Off ch=3 n=55 v=80
43940 Off ch=3 n=50 v=80
43940 Off ch=3 n=45 v=80
44160 On ch=3 n=58 v=95
44160 On ch=3 n=53 v=95
44160 On ch=3 n=46 v=95
44640 Off ch=3 n=58 v=80
44640 Off ch=3 n=53 v=80
44640 Off ch=3 n=46 v=80
44640 On ch=3 n=58 v=63
44640 On ch=3 n=53 v=63
44640 On ch=3 n=46 v=63
45120 Off ch=3 n=58 v=80
45120 Off ch=3 n=53 v=80
45120 Off ch=3 n=46 v=80
45120 On ch=3 n=58 v=95
45120 On ch=3 n=53 v=95
45120 On ch=3 n=46 v=95
45600 Off ch=3 n=58 v=80
45600 Off ch=3 n=53 v=80
45600 Off ch=3 n=46 v=80
45600 On ch=3 n=50 v=95
45600 On ch=3 n=45 v=95
45600 On ch=3 n=40 v=95
45620 Off ch=3 n=50 v=80
45620 Off ch=3 n=45 v=80
45620 Off ch=3 n=40 v=80
45840 On ch=3 n=50 v=95
45840 On ch=3 n=45 v=95
45840 On ch=3 n=40 v=95
45860 Off ch=3 n=50 v=80
45860 Off ch=3 n=45 v=80
45860 Off ch=3 n=40 v=80
46080 On ch=3 n=53 v=95
46080 On ch=3 n=48 v=95
46080 On ch=3 n=41 v=95
46560 Off ch=3 n=53 v=80
46560 Off ch=3 n=48 v=80
46560 Off ch=3 n=41 v=80
46560 On ch=3 n=53 v=63
46560 On ch=3 n=48 v=63
46560 On ch=3 n=41 v=63
47040 Off ch=3 n=53 v=80
47040 Off ch=3 n=48 v=80
47040 Off ch=3 n=41 v=80
47040 On ch=3 n=53 v=95
47040 On ch=3 n=48 v=95
47040 On ch=3 n=41 v=95
47520 Off ch=3 n=53 v=80
47520 Off ch=3 n=48 v=80
47520 Off ch=3 n=41 v=80
47520 On ch=3 n=50 v=95
47520 On ch=3 n=45 v=95
47520 On ch=3 n=40 v=95
47540 Off ch=3 n=50 v=80
47540 Off ch=3 n=45 v=80
47540 Off ch=3 n=40 v=80
47760 On ch=3 n=50 v=95
47760 On ch=3 n=45 v=95
47760 On ch=3 n=40 v=95
47780 Off ch=3 n=50 v=80
47780 Off ch=3 n=45 v=80
47780 Off ch=3 n=40 v=80
48000 On ch=3 n=56 v=95
48000 On ch=3 n=51 v=95
48000 On ch=3 n=44 v=95
48480 Off ch=3 n=56 v=80
48480 Off ch=3 n=51 v=80
48480 Off ch=3 n=44 v=80
48480 On ch=3 n=56 v=63
48480 On ch=3 n=51 v=63
48480 On ch=3 n=44 v=63
48960 Off ch=3 n=56 v=80
48960 Off ch=3 n=51 v=80
48960 Off ch=3 n=44 v=80
48960 On ch=3 n=56 v=95
48960 On ch=3 n=51 v=95
48960 On ch=3 n=44 v=95
49440 Off ch=3 n=56 v=80
49440 Off ch=3 n=51 v=80
49440 Off ch=3 n=44 v=80
49440 On ch=3 n=50 v=95
49440 On ch=3 n=45 v=95
49440 On ch=3 n=40 v=95
49460 Off ch=3 n=50 v=80
49460 Off ch=3 n=45 v=80
49460 Off ch=3 n=40 v=80
49680 On ch=3 n=50 v=95
49680 On ch=3 n=45 v=95
49680 On ch=3 n=40 v=95
49700 Off ch=3 n=50 v=80
49700 Off ch=3 n=45 v=80
49700 Off ch=3 n=40 v=80
49920 On ch=3 n=63 v=95
49920 On ch=3 n=58 v=95
49920 On ch=3 n=51 v=95
50400 Off ch=3 n=63 v=80
50400 Off ch=3 n=58 v=80
50400 Off ch=3 n=51 v=80
50400 On ch=3 n=63 v=63
50400 On ch=3 n=58 v=63
50400 On ch=3 n=51 v=63
50880 Off ch=3 n=63 v=80
50880 Off ch=3 n=58 v=80
50880 Off ch=3 n=51 v=80
50880 On ch=3 n=63 v=95
50880 On ch=3 n=58 v=95
50880 On ch=3 n=51 v=95
51360 Off ch=3 n=63 v=80
51360 Off ch=3 n=58 v=80
51360 Off ch=3 n=51 v=80
51360 On ch=3 n=55 v=95
51360 On ch=3 n=50 v=95
51360 On ch=3 n=45 v=95
51380 Off ch=3 n=55 v=80
51380 Off ch=3 n=50 v=80
51380 Off ch=3 n=45 v=80
51600 On ch=3 n=55 v=95
51600 On ch=3 n=50 v=95
51600 On ch=3 n=45 v=95
51620 Off ch=3 n=55 v=80
51620 Off ch=3 n=50 v=80
51620 Off ch=3 n=45 v=80
51840 On ch=3 n=58 v=95
51840 On ch=3 n=53 v=95
51840 On ch=3 n=46 v=95
52320 Off ch=3 n=58 v=80
52320 Off ch=3 n=53 v=80
52320 Off ch=3 n=46 v=80
52320 On ch=3 n=58 v=63
52320 On ch=3 n=53 v=63
52320 On ch=3 n=46 v=63
52800 Off ch=3 n=58 v=80
52800 Off ch=3 n=53 v=80
52800 Off ch=3 n=46 v=80
52800 On ch=3 n=58 v=95
52800 On ch=3 n=53 v=95
52800 On ch=3 n=46 v=95
53280 Off ch=3 n=58 v=80
53280 Off ch=3 n=53 v=80
53280 Off ch=3 n=46 v=80
53280 On ch=3 n=50 v=95
53280 On ch=3 n=45 v=95
53280 On ch=3 n=40 v=95
53300 Off ch=3 n=50 v=80
53300 Off ch=3 n=45 v=80
53300 Off ch=3 n=40 v=80
53520 On ch=3 n=50 v=95
53520 On ch=3 n=45 v=95
53520 On ch=3 n=40 v=95
53540 Off ch=3 n=50 v=80
53540 Off ch=3 n=45 v=80
53540 Off ch=3 n=40 v=80
53760 On ch=3 n=53 v=95
53760 On ch=3 n=48 v=95
53760 On ch=3 n=41 v=95
54240 Off ch=3 n=53 v=80
54240 Off ch=3 n=48 v=80
54240 Off ch=3 n=41 v=80
54240 On ch=3 n=53 v=63
54240 On ch=3 n=48 v=63
54240 On ch=3 n=41 v=63
54720 Off ch=3 n=53 v=80
54720 Off ch=3 n=48 v=80
54720 Off ch=3 n=41 v=80
54720 On ch=3 n=53 v=95
54720 On ch=3 n=48 v=95
54720 On ch=3 n=41 v=95
55200 Off ch=3 n=53 v=80
55200 Off ch=3 n=48 v=80
55200 Off ch=3 n=41 v=80
55200 On ch=3 n=50 v=95
55200 On ch=3 n=45 v=95
55200 On ch=3 n=40 v=95
55220 Off ch=3 n=50 v=80
55220 Off ch=3 n=45 v=80
55220 Off ch=3 n=40 v=80
55440 On ch=3 n=50 v=95
55440 On ch=3 n=45 v=95
55440 On ch=3 n=40 v=95
55460 Off ch=3 n=50 v=80
55460 Off ch=3 n=45 v=80
55460 Off ch=3 n=40 v=80
55680 On ch=3 n=56 v=95
55680 On ch=3 n=51 v=95
55680 On ch=3 n=44 v=95
56160 Off ch=3 n=56 v=80
56160 Off ch=3 n=51 v=80
56160 Off ch=3 n=44 v=80
56160 On ch=3 n=56 v=63
56160 On ch=3 n=51 v=63
56160 On ch=3 n=44 v=63
56640 Off ch=3 n=56 v=80
56640 Off ch=3 n=51 v=80
56640 Off ch=3 n=44 v=80
56640 On ch=3 n=56 v=95
56640 On ch=3 n=51 v=95
56640 On ch=3 n=44 v=95
57120 Off ch=3 n=56 v=80
57120 Off ch=3 n=51 v=80
57120 Off ch=3 n=44 v=80
57120 On ch=3 n=50 v=95
57120 On ch=3 n=45 v=95
57120 On ch=3 n=40 v=95
57140 Off ch=3 n=50 v=80
57140 Off ch=3 n=45 v=80
57140 Off ch=3 n=40 v=80
57360 On ch=3 n=50 v=95
57360 On ch=3 n=45 v=95
57360 On ch=3 n=40 v=95
57380 Off ch=3 n=50 v=80
57380 Off ch=3 n=45 v=80
57380 Off ch=3 n=40 v=80
57600 On ch=3 n=63 v=95
57600 On ch=3 n=58 v=95
57600 On ch=3 n=51 v=95
58080 Off ch=3 n=63 v=80
58080 Off ch=3 n=58 v=80
58080 Off ch=3 n=51 v=80
58080 On ch=3 n=63 v=63
58080 On ch=3 n=58 v=63
58080 On ch=3 n=51 v=63
58560 Off ch=3 n=63 v=80
58560 Off ch=3 n=58 v=80
58560 Off ch=3 n=51 v=80
58560 On ch=3 n=63 v=95
58560 On ch=3 n=58 v=95
58560 On ch=3 n=51 v=95
59040 Off ch=3 n=63 v=80
59040 Off ch=3 n=58 v=80
59040 Off ch=3 n=51 v=80
59040 On ch=3 n=55 v=95
59040 On ch=3 n=50 v=95
59040 On ch=3 n=45 v=95
59060 Off ch=3 n=55 v=80
59060 Off ch=3 n=50 v=80
59060 Off ch=3 n=45 v=80
59280 On ch=3 n=55 v=95
59280 On ch=3 n=50 v=95
59280 On ch=3 n=45 v=95
59300 Off ch=3 n=55 v=80
59300 Off ch=3 n=50 v=80
59300 Off ch=3 n=45 v=80
59520 On ch=3 n=58 v=95
59520 On ch=3 n=53 v=95
59520 On ch=3 n=46 v=95
60000 Off ch=3 n=58 v=80
60000 Off ch=3 n=53 v=80
60000 Off ch=3 n=46 v=80
60000 On ch=3 n=58 v=63
60000 On ch=3 n=53 v=63
60000 On ch=3 n=46 v=63
60480 Off ch=3 n=58 v=80
60480 Off ch=3 n=53 v=80
60480 Off ch=3 n=46 v=80
60480 On ch=3 n=58 v=95
60480 On ch=3 n=53 v=95
60480 On ch=3 n=46 v=95
60960 Off ch=3 n=58 v=80
60960 Off ch=3 n=53 v=80
60960 Off ch=3 n=46 v=80
60960 On ch=3 n=50 v=95
60960 On ch=3 n=45 v=95
60960 On ch=3 n=40 v=95
60980 Off ch=3 n=50 v=80
60980 Off ch=3 n=45 v=80
60980 Off ch=3 n=40 v=80
61200 On ch=3 n=50 v=95
61200 On ch=3 n=45 v=95
61200 On ch=3 n=40 v=95
61220 Off ch=3 n=50 v=80
61220 Off ch=3 n=45 v=80
61220 Off ch=3 n=40 v=80
61440 On ch=3 n=53 v=95
61440 On ch=3 n=48 v=95
61440 On ch=3 n=41 v=95
61920 Off ch=3 n=53 v=80
61920 Off ch=3 n=48 v=80
61920 Off ch=3 n=41 v=80
61920 On ch=3 n=53 v=63
61920 On ch=3 n=48 v=63
61920 On ch=3 n=41 v=63
62400 Off ch=3 n=53 v=80
62400 Off ch=3 n=48 v=80
62400 Off ch=3 n=41 v=80
62400 On ch=3 n=53 v=95
62400 On ch=3 n=48 v=95
62400 On ch=3 n=41 v=95
62880 Off ch=3 n=53 v=80
62880 Off ch=3 n=48 v=80
62880 Off ch=3 n=41 v=80
62880 On ch=3 n=50 v=95
62880 On ch=3 n=45 v=95
62880 On ch=3 n=40 v=95
62900 Off ch=3 n=50 v=80
62900 Off ch=3 n=45 v=80
62900 Off ch=3 n=40 v=80
63120 On ch=3 n=50 v=95
63120 On ch=3 n=45 v=95
63120 On ch=3 n=40 v=95
63140 Off ch=3 n=50 v=80
63140 Off ch=3 n=45 v=80
63140 Off ch=3 n=40 v=80
63360 On ch=3 n=56 v=95
63360 On ch=3 n=51 v=95
63360 On ch=3 n=44 v=95
63840 Off ch=3 n=56 v=80
63840 Off ch=3 n=51 v=80
63840 Off ch=3 n=44 v=80
63840 On ch=3 n=56 v=63
63840 On ch=3 n=51 v=63
63840 On ch=3 n=44 v=63
64320 Off ch=3 n=56 v=80
64320 Off ch=3 n=51 v=80
64320 Off ch=3 n=44 v=80
64320 On ch=3 n=56 v=95
64320 On ch=3 n=51 v=95
64320 On ch=3 n=44 v=95
64800 Off ch=3 n=56 v=80
64800 Off ch=3 n=51 v=80
64800 Off ch=3 n=44 v=80
64800 On ch=3 n=50 v=95
64800 On ch=3 n=45 v=95
64800 On ch=3 n=40 v=95
64820 Off ch=3 n=50 v=80
64820 Off ch=3 n=45 v=80
64820 Off ch=3 n=40 v=80
65040 On ch=3 n=50 v=95
65040 On ch=3 n=45 v=95
65040 On ch=3 n=40 v=95
65060 Off ch=3 n=50 v=80
65060 Off ch=3 n=45 v=80
65060 Off ch=3 n=40 v=80
65280 On ch=3 n=63 v=95
65280 On ch=3 n=58 v=95
65280 On ch=3 n=51 v=95
65760 Off ch=3 n=63 v=80
65760 Off ch=3 n=58 v=80
65760 Off ch=3 n=51 v=80
65760 On ch=3 n=63 v=63
65760 On ch=3 n=58 v=63
65760 On ch=3 n=51 v=63
66240 Off ch=3 n=63 v=80
66240 Off ch=3 n=58 v=80
66240 Off ch=3 n=51 v=80
66240 On ch=3 n=63 v=95
66240 On ch=3 n=58 v=95
66240 On ch=3 n=51 v=95
66720 Off ch=3 n=63 v=80
66720 Off ch=3 n=58 v=80
66720 Off ch=3 n=51 v=80
66720 On ch=3 n=55 v=95
66720 On ch=3 n=50 v=95
66720 On ch=3 n=45 v=95
66740 Off ch=3 n=55 v=80
66740 Off ch=3 n=50 v=80
66740 Off ch=3 n=45 v=80
66960 On ch=3 n=55 v=95
66960 On ch=3 n=50 v=95
66960 On ch=3 n=45 v=95
66980 Off ch=3 n=55 v=80
66980 Off ch=3 n=50 v=80
66980 Off ch=3 n=45 v=80
67200 PrCh ch=3 p=29
67200 PrCh ch=4 p=29
67200 Par ch=3 c=7 v=104
67200 Par ch=4 c=7 v=104
67200 On ch=3 n=58 v=95
67200 On ch=3 n=53 v=95
67200 On ch=3 n=46 v=95
67680 Off ch=3 n=58 v=80
67680 Off ch=3 n=53 v=80
67680 Off ch=3 n=46 v=80
67680 On ch=3 n=58 v=95
67680 On ch=3 n=53 v=95
67680 On ch=3 n=46 v=95
68160 Off ch=3 n=58 v=80
68160 Off ch=3 n=53 v=80
68160 Off ch=3 n=46 v=80
68160 On ch=3 n=58 v=95
68160 On ch=3 n=53 v=95
68160 On ch=3 n=46 v=95
68640 Off ch=3 n=58 v=80
68640 Off ch=3 n=53 v=80
68640 Off ch=3 n=46 v=80
68640 On ch=3 n=60 v=95
68640 On ch=3 n=55 v=95
68640 On ch=3 n=48 v=95
69120 Off ch=3 n=60 v=80
69120 Off ch=3 n=55 v=80
69120 Off ch=3 n=48 v=80
69120 On ch=3 n=61 v=95
69120 On ch=3 n=56 v=95
69120 On ch=3 n=49 v=95
69600 Off ch=3 n=61 v=80
69600 Off ch=3 n=56 v=80
69600 Off ch=3 n=49 v=80
69600 On ch=3 n=61 v=95
69600 On ch=3 n=56 v=95
69600 On ch=3 n=49 v=95
70080 Off ch=3 n=61 v=80
70080 Off ch=3 n=56 v=80
70080 Off ch=3 n=49 v=80
70080 On ch=3 n=61 v=95
70080 On ch=3 n=56 v=95
70080 On ch=3 n=49 v=95
70560 Off ch=3 n=61 v=80
70560 Off ch=3 n=56 v=80
70560 Off ch=3 n=49 v=80
70560 On ch=3 n=61 v=95
70560 On ch=3 n=56 v=95
70560 On ch=3 n=49 v=95
70800 Off ch=3 n=61 v=80
70800 Off ch=3 n=56 v=80
70800 Off ch=3 n=49 v=80
70800 On ch=3 n=61 v=95
70800 On ch=3 n=56 v=95
70800 On ch=3 n=49 v=95
71040 Off ch=3 n=61 v=80
71040 Off ch=3 n=56 v=80
71040 Off ch=3 n=49 v=80
71040 On ch=3 n=56 v=95
71040 On ch=3 n=51 v=95
71040 On ch=3 n=44 v=95
71520 Off ch=3 n=56 v=80
71520 Off ch=3 n=51 v=80
71520 Off ch=3 n=44 v=80
71520 On ch=3 n=56 v=95
71520 On ch=3 n=51 v=95
71520 On ch=3 n=44 v=95
72000 Off ch=3 n=56 v=80
72000 Off ch=3 n=51 v=80
72000 Off ch=3 n=44 v=80
72000 On ch=3 n=56 v=95
72000 On ch=3 n=51 v=95
72000 On ch=3 n=44 v=95
72480 Off ch=3 n=56 v=80
72480 Off ch=3 n=51 v=80
72480 Off ch=3 n=44 v=80
72480 On ch=3 n=56 v=95
72480 On ch=3 n=51 v=95
72480 On ch=3 n=44 v=95
72720 Off ch=3 n=56 v=80
72720 Off ch=3 n=51 v=80
72720 Off ch=3 n=44 v=80
72720 On ch=3 n=56 v=95
72720 On ch=3 n=51 v=95
72720 On ch=3 n=44 v=95
72960 Off ch=3 n=56 v=80
72960 Off ch=3 n=51 v=80
72960 Off ch=3 n=44 v=80
72960 On ch=3 n=63 v=95
72960 On ch=3 n=58 v=95
72960 On ch=3 n=51 v=95
73440 Off ch=3 n=63 v=80
73440 Off ch=3 n=58 v=80
73440 Off ch=3 n=51 v=80
73440 On ch=3 n=63 v=95
73440 On ch=3 n=58 v=95
73440 On ch=3 n=51 v=95
73920 Off ch=3 n=63 v=80
73920 Off ch=3 n=58 v=80
73920 Off ch=3 n=51 v=80
73920 On ch=3 n=63 v=95
73920 On ch=3 n=58 v=95
73920 On ch=3 n=51 v=95
74400 Off ch=3 n=63 v=80
74400 Off ch=3 n=58 v=80
74400 Off ch=3 n=51 v=80
74400 On ch=3 n=63 v=95
74400 On ch=3 n=58 v=95
74400 On ch=3 n=51 v=95
74640 Off ch=3 n=63 v=80
74640 Off ch=3 n=58 v=80
74640 Off ch=3 n=51 v=80
74640 On ch=3 n=63 v=95
74640 On ch=3 n=58 v=95
74640 On ch=3 n=51 v=95
74880 Off ch=3 n=63 v=80
74880 Off ch=3 n=58 v=80
74880 Off ch=3 n=51 v=80
74880 On ch=3 n=53 v=95
74880 On ch=3 n=48 v=95
74880 On ch=3 n=41 v=95
75360 Off ch=3 n=53 v=80
75360 Off ch=3 n=48 v=80
75360 Off ch=3 n=41 v=80
75360 On ch=3 n=53 v=95
75360 On ch=3 n=48 v=95
75360 On ch=3 n=41 v=95
75840 Off ch=3 n=53 v=80
75840 Off ch=3 n=48 v=80
75840 Off ch=3 n=41 v=80
75840 On ch=3 n=53 v=95
75840 On ch=3 n=48 v=95
75840 On ch=3 n=41 v=95
76320 Off ch=3 n=53 v=80
76320 Off ch=3 n=48 v=80
76320 Off ch=3 n=41 v=80
76320 On ch=3 n=53 v=95
76320 On ch=3 n=48 v=95
76320 On ch=3 n=41 v=95
76560 Off ch=3 n=53 v=80
76560 Off ch=3 n=48 v=80
76560 Off ch=3 n=41 v=80
76560 On ch=3 n=53 v=95
76560 On ch=3 n=48 v=95
76560 On ch=3 n=41 v=95
76800 Off ch=3 n=53 v=80
76800 Off ch=3 n=48 v=80
76800 Off ch=3 n=41 v=80
76800 On ch=3 n=61 v=95
76800 On ch=3 n=56 v=95
76800 On ch=3 n=49 v=95
77280 Off ch=3 n=61 v=80
77280 Off ch=3 n=56 v=80
77280 Off ch=3 n=49 v=80
77280 On ch=3 n=61 v=95
77280 On ch=3 n=56 v=95
77280 On ch=3 n=49 v=95
77760 Off ch=3 n=61 v=80
77760 Off ch=3 n=56 v=80
77760 Off ch=3 n=49 v=80
77760 On ch=3 n=61 v=95
77760 On ch=3 n=56 v=95
77760 On ch=3 n=49 v=95
78240 Off ch=3 n=61 v=80
78240 Off ch=3 n=56 v=80
78240 Off ch=3 n=49 v=80
78240 On ch=3 n=61 v=95
78240 On ch=3 n=56 v=95
78240 On ch=3 n=49 v=95
78480 Off ch=3 n=61 v=80
78480 Off ch=3 n=56 v=80
78480 Off ch=3 n=49 v=80
78480 On ch=3 n=61 v=95
78480 On ch=3 n=56 v=95
78480 On ch=3 n=49 v=95
78720 Off ch=3 n=61 v=80
78720 Off ch=3 n=56 v=80
78720 Off ch=3 n=49 v=80
78720 On ch=3 n=56 v=95
78720 On ch=3 n=51 v=95
78720 On ch=3 n=44 v=95
79200 Off ch=3 n=56 v=80
79200 Off ch=3 n=51 v=80
79200 Off ch=3 n=44 v=80
79200 On ch=3 n=56 v=95
79200 On ch=3 n=51 v=95
79200 On ch=3 n=44 v=95
79680 Off ch=3 n=56 v=80
79680 Off ch=3 n=51 v=80
79680 Off ch=3 n=44 v=80
79680 On ch=3 n=56 v=95
79680 On ch=3 n=51 v=95
79680 On ch=3 n=44 v=95
80160 Off ch=3 n=56 v=80
80160 Off ch=3 n=51 v=80
80160 Off ch=3 n=44 v=80
80160 On ch=3 n=56 v=95
80160 On ch=3 n=51 v=95
80160 On ch=3 n=44 v=95
80400 Off ch=3 n=56 v=80
80400 Off ch=3 n=51 v=80
80400 Off ch=3 n=44 v=80
80400 On ch=3 n=56 v=95
80400 On ch=3 n=51 v=95
80400 On ch=3 n=44 v=95
80640 Off ch=3 n=56 v=80
80640 Off ch=3 n=51 v=80
80640 Off ch=3 n=44 v=80
80640 On ch=3 n=63 v=95
80640 On ch=3 n=58 v=95
80640 On ch=3 n=51 v=95
81120 Off ch=3 n=63 v=80
81120 Off ch=3 n=58 v=80
81120 Off ch=3 n=51 v=80
81120 On ch=3 n=63 v=95
81120 On ch=3 n=58 v=95
81120 On ch=3 n=51 v=95
81600 Off ch=3 n=63 v=80
81600 Off ch=3 n=58 v=80
81600 Off ch=3 n=51 v=80
81600 On ch=3 n=63 v=95
81600 On ch=3 n=58 v=95
81600 On ch=3 n=51 v=95
82080 Off ch=3 n=63 v=80
82080 Off ch=3 n=58 v=80
82080 Off ch=3 n=51 v=80
82080 On ch=3 n=63 v=95
82080 On ch=3 n=58 v=95
82080 On ch=3 n=51 v=95
82320 Off ch=3 n=63 v=80
82320 Off ch=3 n=58 v=80
82320 Off ch=3 n=51 v=80
82320 On ch=3 n=63 v=95
82320 On ch=3 n=58 v=95
82320 On ch=3 n=51 v=95
82560 Off ch=3 n=63 v=80
82560 Off ch=3 n=58 v=80
82560 Off ch=3 n=51 v=80
82560 On ch=3 n=53 v=95
82560 On ch=3 n=48 v=95
82560 On ch=3 n=41 v=95
83040 Off ch=3 n=53 v=80
83040 Off ch=3 n=48 v=80
83040 Off ch=3 n=41 v=80
83040 On ch=3 n=53 v=95
83040 On ch=3 n=48 v=95
83040 On ch=3 n=41 v=95
83520 Off ch=3 n=53 v=80
83520 Off ch=3 n=48 v=80
83520 Off ch=3 n=41 v=80
83520 On ch=3 n=53 v=95
83520 On ch=3 n=48 v=95
83520 On ch=3 n=41 v=95
84000 Off ch=3 n=53 v=80
84000 Off ch=3 n=48 v=80
84000 Off ch=3 n=41 v=80
84000 On ch=3 n=53 v=95
84000 On ch=3 n=48 v=95
84000 On ch=3 n=41 v=95
84240 Off ch=3 n=53 v=80
84240 Off ch=3 n=48 v=80
84240 Off ch=3 n=41 v=80
84240 On ch=3 n=53 v=95
84240 On ch=3 n=48 v=95
84240 On ch=3 n=41 v=95
84480 Off ch=3 n=53 v=80
84480 Off ch=3 n=48 v=80
84480 Off ch=3 n=41 v=80
84480 On ch=3 n=61 v=95
84480 On ch=3 n=56 v=95
84480 On ch=3 n=49 v=95
84960 Off ch=3 n=61 v=80
84960 Off ch=3 n=56 v=80
84960 Off ch=3 n=49 v=80
84960 On ch=3 n=61 v=95
84960 On ch=3 n=56 v=95
84960 On ch=3 n=49 v=95
85440 Off ch=3 n=61 v=80
85440 Off ch=3 n=56 v=80
85440 Off ch=3 n=49 v=80
85440 On ch=3 n=61 v=95
85440 On ch=3 n=56 v=95
85440 On ch=3 n=49 v=95
85920 Off ch=3 n=61 v=80
85920 Off ch=3 n=56 v=80
85920 Off ch=3 n=49 v=80
85920 On ch=3 n=61 v=95
85920 On ch=3 n=56 v=95
85920 On ch=3 n=49 v=95
86160 Off ch=3 n=61 v=80
86160 Off ch=3 n=56 v=80
86160 Off ch=3 n=49 v=80
86160 On ch=3 n=61 v=95
86160 On ch=3 n=56 v=95
86160 On ch=3 n=49 v=95
86400 Off ch=3 n=61 v=80
86400 Off ch=3 n=56 v=80
86400 Off ch=3 n=49 v=80
86400 On ch=3 n=56 v=95
86400 On ch=3 n=51 v=95
86400 On ch=3 n=44 v=95
86880 Off ch=3 n=56 v=80
86880 Off ch=3 n=51 v=80
86880 Off ch=3 n=44 v=80
86880 On ch=3 n=56 v=95
86880 On ch=3 n=51 v=95
86880 On ch=3 n=44 v=95
87360 Off ch=3 n=56 v=80
87360 Off ch=3 n=51 v=80
87360 Off ch=3 n=44 v=80
87360 On ch=3 n=56 v=95
87360 On ch=3 n=51 v=95
87360 On ch=3 n=44 v=95
87840 Off ch=3 n=56 v=80
87840 Off ch=3 n=51 v=80
87840 Off ch=3 n=44 v=80
87840 On ch=3 n=56 v=95
87840 On ch=3 n=51 v=95
87840 On ch=3 n=44 v=95
88080 Off ch=3 n=56 v=80
88080 Off ch=3 n=51 v=80
88080 Off ch=3 n=44 v=80
88080 On ch=3 n=56 v=95
88080 On ch=3 n=51 v=95
88080 On ch=3 n=44 v=95
88320 Off ch=3 n=56 v=80
88320 Off ch=3 n=51 v=80
88320 Off ch=3 n=44 v=80
88320 On ch=3 n=63 v=95
88320 On ch=3 n=58 v=95
88320 On ch=3 n=51 v=95
88800 Off ch=3 n=63 v=80
88800 Off ch=3 n=58 v=80
88800 Off ch=3 n=51 v=80
88800 On ch=3 n=63 v=95
88800 On ch=3 n=58 v=95
88800 On ch=3 n=51 v=95
89280 Off ch=3 n=63 v=80
89280 Off ch=3 n=58 v=80
89280 Off ch=3 n=51 v=80
89280 On ch=3 n=63 v=95
89280 On ch=3 n=58 v=95
89280 On ch=3 n=51 v=95
89760 Off ch=3 n=63 v=80
89760 Off ch=3 n=58 v=80
89760 Off ch=3 n=51 v=80
89760 On ch=3 n=63 v=95
89760 On ch=3 n=58 v=95
89760 On ch=3 n=51 v=95
90000 Off ch=3 n=63 v=80
90000 Off ch=3 n=58 v=80
90000 Off ch=3 n=51 v=80
90000 On ch=3 n=63 v=95
90000 On ch=3 n=58 v=95
90000 On ch=3 n=51 v=95
90240 Off ch=3 n=63 v=80
90240 Off ch=3 n=58 v=80
90240 Off ch=3 n=51 v=80
90240 On ch=3 n=53 v=95
90240 On ch=3 n=48 v=95
90240 On ch=3 n=41 v=95
90720 Off ch=3 n=53 v=80
90720 Off ch=3 n=48 v=80
90720 Off ch=3 n=41 v=80
90720 On ch=3 n=53 v=95
90720 On ch=3 n=48 v=95
90720 On ch=3 n=41 v=95
91200 Off ch=3 n=53 v=80
91200 Off ch=3 n=48 v=80
91200 Off ch=3 n=41 v=80
91200 On ch=3 n=53 v=95
91200 On ch=3 n=48 v=95
91200 On ch=3 n=41 v=95
91680 Off ch=3 n=53 v=80
91680 Off ch=3 n=48 v=80
91680 Off ch=3 n=41 v=80
91680 On ch=3 n=53 v=95
91680 On ch=3 n=48 v=95
91680 On ch=3 n=41 v=95
91920 Off ch=3 n=53 v=80
91920 Off ch=3 n=48 v=80
91920 Off ch=3 n=41 v=80
91920 On ch=3 n=53 v=95
91920 On ch=3 n=48 v=95
91920 On ch=3 n=41 v=95
92160 Off ch=3 n=53 v=80
92160 Off ch=3 n=48 v=80
92160 Off ch=3 n=41 v=80
92160 On ch=3 n=61 v=95
92160 On ch=3 n=56 v=95
92160 On ch=3 n=49 v=95
92640 Off ch=3 n=61 v=80
92640 Off ch=3 n=56 v=80
92640 Off ch=3 n=49 v=80
92640 On ch=3 n=61 v=95
92640 On ch=3 n=56 v=95
92640 On ch=3 n=49 v=95
93120 Off ch=3 n=61 v=80
93120 Off ch=3 n=56 v=80
93120 Off ch=3 n=49 v=80
93120 On ch=3 n=61 v=95
93120 On ch=3 n=56 v=95
93120 On ch=3 n=49 v=95
93600 Off ch=3 n=61 v=80
93600 Off ch=3 n=56 v=80
93600 Off ch=3 n=49 v=80
93600 On ch=3 n=61 v=95
93600 On ch=3 n=56 v=95
93600 On ch=3 n=49 v=95
93840 Off ch=3 n=61 v=80
93840 Off ch=3 n=56 v=80
93840 Off ch=3 n=49 v=80
93840 On ch=3 n=61 v=95
93840 On ch=3 n=56 v=95
93840 On ch=3 n=49 v=95
94080 Off ch=3 n=61 v=80
94080 Off ch=3 n=56 v=80
94080 Off ch=3 n=49 v=80
94080 On ch=3 n=56 v=95
94080 On ch=3 n=51 v=95
94080 On ch=3 n=44 v=95
94560 Off ch=3 n=56 v=80
94560 Off ch=3 n=51 v=80
94560 Off ch=3 n=44 v=80
94560 On ch=3 n=56 v=95
94560 On ch=3 n=51 v=95
94560 On ch=3 n=44 v=95
95040 Off ch=3 n=56 v=80
95040 Off ch=3 n=51 v=80
95040 Off ch=3 n=44 v=80
95040 On ch=3 n=56 v=95
95040 On ch=3 n=51 v=95
95040 On ch=3 n=44 v=95
95520 Off ch=3 n=56 v=80
95520 Off ch=3 n=51 v=80
95520 Off ch=3 n=44 v=80
95520 On ch=3 n=56 v=95
95520 On ch=3 n=51 v=95
95520 On ch=3 n=44 v=95
95760 Off ch=3 n=56 v=80
95760 Off ch=3 n=51 v=80
95760 Off ch=3 n=44 v=80
95760 On ch=3 n=56 v=95
95760 On ch=3 n=51 v=95
95760 On ch=3 n=44 v=95
96000 Off ch=3 n=56 v=80
96000 Off ch=3 n=51 v=80
96000 Off ch=3 n=44 v=80
96000 On ch=3 n=60 v=95
96000 On ch=3 n=55 v=95
96000 On ch=3 n=48 v=95
96480 Off ch=3 n=60 v=80
96480 Off ch=3 n=55 v=80
96480 Off ch=3 n=48 v=80
96480 On ch=3 n=60 v=95
96480 On ch=3 n=55 v=95
96480 On ch=3 n=48 v=95
96960 Off ch=3 n=60 v=80
96960 Off ch=3 n=55 v=80
96960 Off ch=3 n=48 v=80
96960 On ch=3 n=60 v=95
96960 On ch=3 n=55 v=95
96960 On ch=3 n=48 v=95
97440 Off ch=3 n=60 v=80
97440 Off ch=3 n=55 v=80
97440 Off ch=3 n=48 v=80
97440 On ch=3 n=60 v=95
97440 On ch=3 n=55 v=95
97440 On ch=3 n=48 v=95
97920 Off ch=3 n=60 v=80
97920 Off ch=3 n=55 v=80
97920 Off ch=3 n=48 v=80
97920 On ch=3 n=60 v=95
97920 On ch=3 n=55 v=95
97920 On ch=3 n=48 v=95
98400 Off ch=3 n=60 v=80
98400 Off ch=3 n=55 v=80
98400 Off ch=3 n=48 v=80
99840 PrCh ch=3 p=25
99840 PrCh ch=4 p=25
99840 Par ch=3 c=7 v=88
99840 Par ch=4 c=7 v=88
99840 On ch=3 n=53 v=95
99840 On ch=3 n=48 v=95
99840 On ch=3 n=41 v=95
100320 Off ch=3 n=53 v=80
100320 Off ch=3 n=48 v=80
100320 Off ch=3 n=41 v=80
100320 On ch=3 n=53 v=63
100320 On ch=3 n=48 v=63
100320 On ch=3 n=41 v=63
100800 Off ch=3 n=53 v=80
100800 Off ch=3 n=48 v=80
100800 Off ch=3 n=41 v=80
100800 On ch=3 n=53 v=95
100800 On ch=3 n=48 v=95
100800 On ch=3 n=41 v=95
101280 Off ch=3 n=53 v=80
101280 Off ch=3 n=48 v=80
101280 Off ch=3 n=41 v=80
101280 On ch=3 n=50 v=95
101280 On ch=3 n=45 v=95
101280 On ch=3 n=40 v=95
101300 Off ch=3 n=50 v=80
101300 Off ch=3 n=45 v=80
101300 Off ch=3 n=40 v=80
101520 On ch=3 n=50 v=95
101520 On ch=3 n=45 v=95
101520 On ch=3 n=40 v=95
101540 Off ch=3 n=50 v=80
101540 Off ch=3 n=45 v=80
101540 Off ch=3 n=40 v=80
101760 On ch=3 n=56 v=95
101760 On ch=3 n=51 v=95
101760 On ch=3 n=44 v=95
102240 Off ch=3 n=56 v=80
102240 Off ch=3 n=51 v=80
102240 Off ch=3 n=44 v=80
102240 On ch=3 n=56 v=63
102240 On ch=3 n=51 v=63
102240 On ch=3 n=44 v=63
102720 Off ch=3 n=56 v=80
102720 Off ch=3 n=51 v=80
102720 Off ch=3 n=44 v=80
102720 On ch=3 n=56 v=95
102720 On ch=3 n=51 v=95
102720 On ch=3 n=44 v=95
103200 Off ch=3 n=56 v=80
103200 Off ch=3 n=51 v=80
103200 Off ch=3 n=44 v=80
103200 On ch=3 n=50 v=95
103200 On ch=3 n=45 v=95
103200 On ch=3 n=40 v=95
103220 Off ch=3 n=50 v=80
103220 Off ch=3 n=45 v=80
103220 Off ch=3 n=40 v=80
103440 On ch=3 n=50 v=95
103440 On ch=3 n=45 v=95
103440 On ch=3 n=40 v=95
103460 Off ch=3 n=50 v=80
103460 Off ch=3 n=45 v=80
103460 Off ch=3 n=40 v=80
103680 On ch=3 n=63 v=95
103680 On ch=3 n=58 v=95
103680 On ch=3 n=51 v=95
104160 Off ch=3 n=63 v=80
104160 Off ch=3 n=58 v=80
104160 Off ch=3 n=51 v=80
104160 On ch=3 n=63 v=63
104160 On ch=3 n=58 v=63
104160 On ch=3 n=51 v=63
104640 Off ch=3 n=63 v=80
104640 Off ch=3 n=58 v=80
104640 Off ch=3 n=51 v=80
104640 On ch=3 n=63 v=95
104640 On ch=3 n=58 v=95
104640 On ch=3 n=51 v=95
105120 Off ch=3 n=63 v=80
105120 Off ch=3 n=58 v=80
105120 Off ch=3 n=51 v=80
105120 On ch=3 n=55 v=95
105120 On ch=3 n=50 v=95
105120 On ch=3 n=45 v=95
105140 Off ch=3 n=55 v=80
105140 Off ch=3 n=50 v=80
105140 Off ch=3 n=45 v=80
105360 On ch=3 n=55 v=95
105360 On ch=3 n=50 v=95
105360 On ch=3 n=45 v=95
105380 Off ch=3 n=55 v=80
105380 Off ch=3 n=50 v=80
105380 Off ch=3 n=45 v=80
105600 On ch=3 n=58 v=95
105600 On ch=3 n=53 v=95
105600 On ch=3 n=46 v=95
106080 Off ch=3 n=58 v=80
106080 Off ch=3 n=53 v=80
106080 Off ch=3 n=46 v=80
106080 On ch=3 n=58 v=63
106080 On ch=3 n=53 v=63
106080 On ch=3 n=46 v=63
106560 Off ch=3 n=58 v=80
106560 Off ch=3 n=53 v=80
106560 Off ch=3 n=46 v=80
106560 On ch=3 n=58 v=95
106560 On ch=3 n=53 v=95
106560 On ch=3 n=46 v=95
107040 Off ch=3 n=58 v=80
107040 Off ch=3 n=53 v=80
107040 Off ch=3 n=46 v=80
107040 On ch=3 n=50 v=95
107040 On ch=3 n=45 v=95
107040 On ch=3 n=40 v=95
107060 Off ch=3 n=50 v=80
107060 Off ch=3 n=45 v=80
107060 Off ch=3 n=40 v=80
107280 On ch=3 n=50 v=95
107280 On ch=3 n=45 v=95
107280 On ch=3 n=40 v=95
107300 Off ch=3 n=50 v=80
107300 Off ch=3 n=45 v=80
107300 Off ch=3 n=40 v=80
107520 On ch=3 n=53 v=95
107520 On ch=3 n=48 v=95
107520 On ch=3 n=41 v=95
108000 Off ch=3 n=53 v=80
108000 Off ch=3 n=48 v=80
108000 Off ch=3 n=41 v=80
108000 On ch=3 n=53 v=63
108000 On ch=3 n=48 v=63
108000 On ch=3 n=41 v=63
108480 Off ch=3 n=53 v=80
108480 Off ch=3 n=48 v=80
108480 Off ch=3 n=41 v=80
108480 On ch=3 n=53 v=95
108480 On ch=3 n=48 v=95
108480 On ch=3 n=41 v=95
108960 Off ch=3 n=53 v=80
108960 Off ch=3 n=48 v=80
108960 Off ch=3 n=41 v=80
108960 On ch=3 n=50 v=95
108960 On ch=3 n=45 v=95
108960 On ch=3 n=40 v=95
108980 Off ch=3 n=50 v=80
108980 Off ch=3 n=45 v=80
108980 Off ch=3 n=40 v=80
109200 On ch=3 n=50 v=95
109200 On ch=3 n=45 v=95
109200 On ch=3 n=40 v=95
109220 Off ch=3 n=50 v=80
109220 Off ch=3 n=45 v=80
109220 Off ch=3 n=40 v=80
109440 On ch=3 n=56 v=95
109440 On ch=3 n=51 v=95
109440 On ch=3 n=44 v=95
109920 Off ch=3 n=56 v=80
109920 Off ch=3 n=51 v=80
109920 Off ch=3 n=44 v=80
109920 On ch=3 n=56 v=63
109920 On ch=3 n=51 v=63
109920 On ch=3 n=44 v=63
110400 Off ch=3 n=56 v=80
110400 Off ch=3 n=51 v=80
110400 Off ch=3 n=44 v=80
110400 On ch=3 n=56 v=95
110400 On ch=3 n=51 v=95
110400 On ch=3 n=44 v=95
110880 Off ch=3 n=56 v=80
110880 Off ch=3 n=51 v=80
110880 Off ch=3 n=44 v=80
110880 On ch=3 n=50 v=95
110880 On ch=3 n=45 v=95
110880 On ch=3 n=40 v=95
110900 Off ch=3 n=50 v=80
110900 Off ch=3 n=45 v=80
110900 Off ch=3 n=40 v=80
111120 On ch=3 n=50 v=95
111120 On ch=3 n=45 v=95
111120 On ch=3 n=40 v=95
111140 Off ch=3 n=50 v=80
111140 Off ch=3 n=45 v=80
111140 Off ch=3 n=40 v=80
111360 On ch=3 n=63 v=95
111360 On ch=3 n=58 v=95
111360 On ch=3 n=51 v=95
111840 Off ch=3 n=63 v=80
111840 Off ch=3 n=58 v=80
111840 Off ch=3 n=51 v=80
111840 On ch=3 n=63 v=63
111840 On ch=3 n=58 v=63
111840 On ch=3 n=51 v=63
112320 Off ch=3 n=63 v=80
112320 Off ch=3 n=58 v=80
112320 Off ch=3 n=51 v=80
112320 On ch=3 n=63 v=95
112320 On ch=3 n=58 v=95
112320 On ch=3 n=51 v=95
112800 Off ch=3 n=63 v=80
112800 Off ch=3 n=58 v=80
112800 Off ch=3 n=51 v=80
112800 On ch=3 n=55 v=95
112800 On ch=3 n=50 v=95
112800 On ch=3 n=45 v=95
112820 Off ch=3 n=55 v=80
112820 Off ch=3 n=50 v=80
112820 Off ch=3 n=45 v=80
113040 On ch=3 n=55 v=95
113040 On ch=3 n=50 v=95
113040 On ch=3 n=45 v=95
113060 Off ch=3 n=55 v=80
113060 Off ch=3 n=50 v=80
113060 Off ch=3 n=45 v=80
113280 On ch=3 n=58 v=95
113280 On ch=3 n=53 v=95
113280 On ch=3 n=46 v=95
113760 Off ch=3 n=58 v=80
113760 Off ch=3 n=53 v=80
113760 Off ch=3 n=46 v=80
113760 On ch=3 n=58 v=63
113760 On ch=3 n=53 v=63
113760 On ch=3 n=46 v=63
114240 Off ch=3 n=58 v=80
114240 Off ch=3 n=53 v=80
114240 Off ch=3 n=46 v=80
114240 On ch=3 n=58 v=95
114240 On ch=3 n=53 v=95
114240 On ch=3 n=46 v=95
114720 Off ch=3 n=58 v=80
114720 Off ch=3 n=53 v=80
114720 Off ch=3 n=46 v=80
114720 On ch=3 n=50 v=95
114720 On ch=3 n=45 v=95
114720 On ch=3 n=40 v=95
114740 Off ch=3 n=50 v=80
114740 Off ch=3 n=45 v=80
114740 Off ch=3 n=40 v=80
114960 On ch=3 n=50 v=95
114960 On ch=3 n=45 v=95
114960 On ch=3 n=40 v=95
114980 Off ch=3 n=50 v=80
114980 Off ch=3 n=45 v=80
114980 Off ch=3 n=40 v=80
115200 On ch=3 n=53 v=95
115200 On ch=3 n=48 v=95
115200 On ch=3 n=41 v=95
115680 Off ch=3 n=53 v=80
115680 Off ch=3 n=48 v=80
115680 Off ch=3 n=41 v=80
115680 On ch=3 n=53 v=63
115680 On ch=3 n=48 v=63
115680 On ch=3 n=41 v=63
116160 Off ch=3 n=53 v=80
116160 Off ch=3 n=48 v=80
116160 Off ch=3 n=41 v=80
116160 On ch=3 n=53 v=95
116160 On ch=3 n=48 v=95
116160 On ch=3 n=41 v=95
116640 Off ch=3 n=53 v=80
116640 Off ch=3 n=48 v=80
116640 Off ch=3 n=41 v=80
116640 On ch=3 n=50 v=95
116640 On ch=3 n=45 v=95
116640 On ch=3 n=40 v=95
116660 Off ch=3 n=50 v=80
116660 Off ch=3 n=45 v=80
116660 Off ch=3 n=40 v=80
116880 On ch=3 n=50 v=95
116880 On ch=3 n=45 v=95
116880 On ch=3 n=40 v=95
116900 Off ch=3 n=50 v=80
116900 Off ch=3 n=45 v=80
116900 Off ch=3 n=40 v=80
117120 On ch=3 n=56 v=95
117120 On ch=3 n=51 v=95
117120 On ch=3 n=44 v=95
117600 Off ch=3 n=56 v=80
117600 Off ch=3 n=51 v=80
117600 Off ch=3 n=44 v=80
117600 On ch=3 n=56 v=63
117600 On ch=3 n=51 v=63
117600 On ch=3 n=44 v=63
118080 Off ch=3 n=56 v=80
118080 Off ch=3 n=51 v=80
118080 Off ch=3 n=44 v=80
118080 On ch=3 n=56 v=95
118080 On ch=3 n=51 v=95
118080 On ch=3 n=44 v=95
118560 Off ch=3 n=56 v=80
118560 Off ch=3 n=51 v=80
118560 Off ch=3 n=44 v=80
118560 On ch=3 n=50 v=95
118560 On ch=3 n=45 v=95
118560 On ch=3 n=40 v=95
118580 Off ch=3 n=50 v=80
118580 Off ch=3 n=45 v=80
118580 Off ch=3 n=40 v=80
118800 On ch=3 n=50 v=95
118800 On ch=3 n=45 v=95
118800 On ch=3 n=40 v=95
118820 Off ch=3 n=50 v=80
118820 Off ch=3 n=45 v=80
118820 Off ch=3 n=40 v=80
119040 On ch=3 n=63 v=95
119040 On ch=3 n=58 v=95
119040 On ch=3 n=51 v=95
119520 Off ch=3 n=63 v=80
119520 Off ch=3 n=58 v=80
119520 Off ch=3 n=51 v=80
119520 On ch=3 n=63 v=63
119520 On ch=3 n=58 v=63
119520 On ch=3 n=51 v=63
120000 Off ch=3 n=63 v=80
120000 Off ch=3 n=58 v=80
120000 Off ch=3 n=51 v=80
120000 On ch=3 n=63 v=95
120000 On ch=3 n=58 v=95
120000 On ch=3 n=51 v=95
120480 Off ch=3 n=63 v=80
120480 Off ch=3 n=58 v=80
120480 Off ch=3 n=51 v=80
120480 On ch=3 n=55 v=95
120480 On ch=3 n=50 v=95
120480 On ch=3 n=45 v=95
120500 Off ch=3 n=55 v=80
120500 Off ch=3 n=50 v=80
120500 Off ch=3 n=45 v=80
120720 On ch=3 n=55 v=95
120720 On ch=3 n=50 v=95
120720 On ch=3 n=45 v=95
120740 Off ch=3 n=55 v=80
120740 Off ch=3 n=50 v=80
120740 Off ch=3 n=45 v=80
120960 On ch=3 n=58 v=95
120960 On ch=3 n=53 v=95
120960 On ch=3 n=46 v=95
121440 Off ch=3 n=58 v=80
121440 Off ch=3 n=53 v=80
121440 Off ch=3 n=46 v=80
121440 On ch=3 n=58 v=63
121440 On ch=3 n=53 v=63
121440 On ch=3 n=46 v=63
121920 Off ch=3 n=58 v=80
121920 Off ch=3 n=53 v=80
121920 Off ch=3 n=46 v=80
121920 On ch=3 n=58 v=95
121920 On ch=3 n=53 v=95
121920 On ch=3 n=46 v=95
122400 Off ch=3 n=58 v=80
122400 Off ch=3 n=53 v=80
122400 Off ch=3 n=46 v=80
122400 On ch=3 n=50 v=95
122400 On ch=3 n=45 v=95
122400 On ch=3 n=40 v=95
122420 Off ch=3 n=50 v=80
122420 Off ch=3 n=45 v=80
122420 Off ch=3 n=40 v=80
122640 On ch=3 n=50 v=95
122640 On ch=3 n=45 v=95
122640 On ch=3 n=40 v=95
122660 Off ch=3 n=50 v=80
122660 Off ch=3 n=45 v=80
122660 Off ch=3 n=40 v=80
122880 On ch=3 n=53 v=95
122880 On ch=3 n=48 v=95
122880 On ch=3 n=41 v=95
123360 Off ch=3 n=53 v=80
123360 Off ch=3 n=48 v=80
123360 Off ch=3 n=41 v=80
123360 On ch=3 n=53 v=63
123360 On ch=3 n=48 v=63
123360 On ch=3 n=41 v=63
123840 Off ch=3 n=53 v=80
123840 Off ch=3 n=48 v=80
123840 Off ch=3 n=41 v=80
123840 On ch=3 n=53 v=95
123840 On ch=3 n=48 v=95
123840 On ch=3 n=41 v=95
124320 Off ch=3 n=53 v=80
124320 Off ch=3 n=48 v=80
124320 Off ch=3 n=41 v=80
124320 On ch=3 n=50 v=95
124320 On ch=3 n=45 v=95
124320 On ch=3 n=40 v=95
124340 Off ch=3 n=50 v=80
124340 Off ch=3 n=45 v=80
124340 Off ch=3 n=40 v=80
124560 On ch=3 n=50 v=95
124560 On ch=3 n=45 v=95
124560 On ch=3 n=40 v=95
124580 Off ch=3 n=50 v=80
124580 Off ch=3 n=45 v=80
124580 Off ch=3 n=40 v=80
124800 On ch=3 n=56 v=95
124800 On ch=3 n=51 v=95
124800 On ch=3 n=44 v=95
125280 Off ch=3 n=56 v=80
125280 Off ch=3 n=51 v=80
125280 Off ch=3 n=44 v=80
125280 On ch=3 n=56 v=63
125280 On ch=3 n=51 v=63
125280 On ch=3 n=44 v=63
125760 Off ch=3 n=56 v=80
125760 Off ch=3 n=51 v=80
125760 Off ch=3 n=44 v=80
125760 On ch=3 n=56 v=95
125760 On ch=3 n=51 v=95
125760 On ch=3 n=44 v=95
126240 Off ch=3 n=56 v=80
126240 Off ch=3 n=51 v=80
126240 Off ch=3 n=44 v=80
126240 On ch=3 n=50 v=95
126240 On ch=3 n=45 v=95
126240 On ch=3 n=40 v=95
126260 Off ch=3 n=50 v=80
126260 Off ch=3 n=45 v=80
126260 Off ch=3 n=40 v=80
126480 On ch=3 n=50 v=95
126480 On ch=3 n=45 v=95
126480 On ch=3 n=40 v=95
126500 Off ch=3 n=50 v=80
126500 Off ch=3 n=45 v=80
126500 Off ch=3 n=40 v=80
126720 On ch=3 n=63 v=95
126720 On ch=3 n=58 v=95
126720 On ch=3 n=51 v=95
127200 Off ch=3 n=63 v=80
127200 Off ch=3 n=58 v=80
127200 Off ch=3 n=51 v=80
127200 On ch=3 n=63 v=63
127200 On ch=3 n=58 v=63
127200 On ch=3 n=51 v=63
127680 Off ch=3 n=63 v=80
127680 Off ch=3 n=58 v=80
127680 Off ch=3 n=51 v=80
127680 On ch=3 n=63 v=95
127680 On ch=3 n=58 v=95
127680 On ch=3 n=51 v=95
128160 Off ch=3 n=63 v=80
128160 Off ch=3 n=58 v=80
128160 Off ch=3 n=51 v=80
128160 On ch=3 n=55 v=95
128160 On ch=3 n=50 v=95
128160 On ch=3 n=45 v=95
128180 Off ch=3 n=55 v=80
128180 Off ch=3 n=50 v=80
128180 Off ch=3 n=45 v=80
128400 On ch=3 n=55 v=95
128400 On ch=3 n=50 v=95
128400 On ch=3 n=45 v=95
128420 Off ch=3 n=55 v=80
128420 Off ch=3 n=50 v=80
128420 Off ch=3 n=45 v=80
128640 On ch=3 n=58 v=95
128640 On ch=3 n=53 v=95
128640 On ch=3 n=46 v=95
129120 Off ch=3 n=58 v=80
129120 Off ch=3 n=53 v=80
129120 Off ch=3 n=46 v=80
129120 On ch=3 n=58 v=63
129120 On ch=3 n=53 v=63
129120 On ch=3 n=46 v=63
129600 Off ch=3 n=58 v=80
129600 Off ch=3 n=53 v=80
129600 Off ch=3 n=46 v=80
129600 On ch=3 n=58 v=95
129600 On ch=3 n=53 v=95
129600 On ch=3 n=46 v=95
130080 Off ch=3 n=58 v=80
130080 Off ch=3 n=53 v=80
130080 Off ch=3 n=46 v=80
130080 On ch=3 n=50 v=95
130080 On ch=3 n=45 v=95
130080 On ch=3 n=40 v=95
130100 Off ch=3 n=50 v=80
130100 Off ch=3 n=45 v=80
130100 Off ch=3 n=40 v=80
130320 On ch=3 n=50 v=95
130320 On ch=3 n=45 v=95
130320 On ch=3 n=40 v=95
130340 Off ch=3 n=50 v=80
130340 Off ch=3 n=45 v=80
130340 Off ch=3 n=40 v=80
130560 On ch=3 n=53 v=95
130560 On ch=3 n=48 v=95
130560 On ch=3 n=41 v=95
131040 Off ch=3 n=53 v=80
131040 Off ch=3 n=48 v=80
131040 Off ch=3 n=41 v=80
131040 On ch=3 n=53 v=63
131040 On ch=3 n=48 v=63
131040 On ch=3 n=41 v=63
131520 Off ch=3 n=53 v=80
131520 Off ch=3 n=48 v=80
131520 Off ch=3 n=41 v=80
131520 On ch=3 n=53 v=95
131520 On ch=3 n=48 v=95
131520 On ch=3 n=41 v=95
132000 Off ch=3 n=53 v=80
132000 Off ch=3 n=48 v=80
132000 Off ch=3 n=41 v=80
132000 On ch=3 n=50 v=95
132000 On ch=3 n=45 v=95
132000 On ch=3 n=40 v=95
132020 Off ch=3 n=50 v=80
132020 Off ch=3 n=45 v=80
132020 Off ch=3 n=40 v=80
132240 On ch=3 n=50 v=95
132240 On ch=3 n=45 v=95
132240 On ch=3 n=40 v=95
132260 Off ch=3 n=50 v=80
132260 Off ch=3 n=45 v=80
132260 Off ch=3 n=40 v=80
132480 On ch=3 n=56 v=95
132480 On ch=3 n=51 v=95
132480 On ch=3 n=44 v=95
132960 Off ch=3 n=56 v=80
132960 Off ch=3 n=51 v=80
132960 Off ch=3 n=44 v=80
132960 On ch=3 n=56 v=63
132960 On ch=3 n=51 v=63
132960 On ch=3 n=44 v=63
133440 Off ch=3 n=56 v=80
133440 Off ch=3 n=51 v=80
133440 Off ch=3 n=44 v=80
133440 On ch=3 n=56 v=95
133440 On ch=3 n=51 v=95
133440 On ch=3 n=44 v=95
133920 Off ch=3 n=56 v=80
133920 Off ch=3 n=51 v=80
133920 Off ch=3 n=44 v=80
133920 On ch=3 n=50 v=95
133920 On ch=3 n=45 v=95
133920 On ch=3 n=40 v=95
133940 Off ch=3 n=50 v=80
133940 Off ch=3 n=45 v=80
133940 Off ch=3 n=40 v=80
134160 On ch=3 n=50 v=95
134160 On ch=3 n=45 v=95
134160 On ch=3 n=40 v=95
134180 Off ch=3 n=50 v=80
134180 Off ch=3 n=45 v=80
134180 Off ch=3 n=40 v=80
134400 On ch=3 n=63 v=95
134400 On ch=3 n=58 v=95
134400 On ch=3 n=51 v=95
134880 Off ch=3 n=63 v=80
134880 Off ch=3 n=58 v=80
134880 Off ch=3 n=51 v=80
134880 On ch=3 n=63 v=63
134880 On ch=3 n=58 v=63
134880 On ch=3 n=51 v=63
135360 Off ch=3 n=63 v=80
135360 Off ch=3 n=58 v=80
135360 Off ch=3 n=51 v=80
135360 On ch=3 n=63 v=95
135360 On ch=3 n=58 v=95
135360 On ch=3 n=51 v=95
135840 Off ch=3 n=63 v=80
135840 Off ch=3 n=58 v=80
135840 Off ch=3 n=51 v=80
135840 On ch=3 n=55 v=95
135840 On ch=3 n=50 v=95
135840 On ch=3 n=45 v=95
135860 Off ch=3 n=55 v=80
135860 Off ch=3 n=50 v=80
135860 Off ch=3 n=45 v=80
136080 On ch=3 n=55 v=95
136080 On ch=3 n=50 v=95
136080 On ch=3 n=45 v=95
136100 Off ch=3 n=55 v=80
136100 Off ch=3 n=50 v=80
136100 Off ch=3 n=45 v=80
136320 On ch=3 n=58 v=95
136320 On ch=3 n=53 v=95
136320 On ch=3 n=46 v=95
136800 Off ch=3 n=58 v=80
136800 Off ch=3 n=53 v=80
136800 Off ch=3 n=46 v=80
136800 On ch=3 n=58 v=63
136800 On ch=3 n=53 v=63
136800 On ch=3 n=46 v=63
137280 Off ch=3 n=58 v=80
137280 Off ch=3 n=53 v=80
137280 Off ch=3 n=46 v=80
137280 On ch=3 n=58 v=95
137280 On ch=3 n=53 v=95
137280 On ch=3 n=46 v=95
137760 Off ch=3 n=58 v=80
137760 Off ch=3 n=53 v=80
137760 Off ch=3 n=46 v=80
137760 On ch=3 n=50 v=95
137760 On ch=3 n=45 v=95
137760 On ch=3 n=40 v=95
137780 Off ch=3 n=50 v=80
137780 Off ch=3 n=45 v=80
137780 Off ch=3 n=40 v=80
138000 On ch=3 n=50 v=95
138000 On ch=3 n=45 v=95
138000 On ch=3 n=40 v=95
138020 Off ch=3 n=50 v=80
138020 Off ch=3 n=45 v=80
138020 Off ch=3 n=40 v=80
138240 On ch=3 n=53 v=95
138240 On ch=3 n=48 v=95
138240 On ch=3 n=41 v=95
138720 Off ch=3 n=53 v=80
138720 Off ch=3 n=48 v=80
138720 Off ch=3 n=41 v=80
138720 On ch=3 n=53 v=63
138720 On ch=3 n=48 v=63
138720 On ch=3 n=41 v=63
139200 Off ch=3 n=53 v=80
139200 Off ch=3 n=48 v=80
139200 Off ch=3 n=41 v=80
139200 On ch=3 n=53 v=95
139200 On ch=3 n=48 v=95
139200 On ch=3 n=41 v=95
139680 Off ch=3 n=53 v=80
139680 Off ch=3 n=48 v=80
139680 Off ch=3 n=41 v=80
139680 On ch=3 n=50 v=95
139680 On ch=3 n=45 v=95
139680 On ch=3 n=40 v=95
139700 Off ch=3 n=50 v=80
139700 Off ch=3 n=45 v=80
139700 Off ch=3 n=40 v=80
139920 On ch=3 n=50 v=95
139920 On ch=3 n=45 v=95
139920 On ch=3 n=40 v=95
139940 Off ch=3 n=50 v=80
139940 Off ch=3 n=45 v=80
139940 Off ch=3 n=40 v=80
140160 On ch=3 n=56 v=95
140160 On ch=3 n=51 v=95
140160 On ch=3 n=44 v=95
140640 Off ch=3 n=56 v=80
140640 Off ch=3 n=51 v=80
140640 Off ch=3 n=44 v=80
140640 On ch=3 n=56 v=63
140640 On ch=3 n=51 v=63
140640 On ch=3 n=44 v=63
141120 Off ch=3 n=56 v=80
141120 Off ch=3 n=51 v=80
141120 Off ch=3 n=44 v=80
141120 On ch=3 n=56 v=95
141120 On ch=3 n=51 v=95
141120 On ch=3 n=44 v=95
141600 Off ch=3 n=56 v=80
141600 Off ch=3 n=51 v=80
141600 Off ch=3 n=44 v=80
141600 On ch=3 n=50 v=95
141600 On ch=3 n=45 v=95
141600 On ch=3 n=40 v=95
141620 Off ch=3 n=50 v=80
141620 Off ch=3 n=45 v=80
141620 Off ch=3 n=40 v=80
141840 On ch=3 n=50 v=95
141840 On ch=3 n=45 v=95
141840 On ch=3 n=40 v=95
141860 Off ch=3 n=50 v=80
141860 Off ch=3 n=45 v=80
141860 Off ch=3 n=40 v=80
142080 On ch=3 n=63 v=95
142080 On ch=3 n=58 v=95
142080 On ch=3 n=51 v=95
142560 Off ch=3 n=63 v=80
142560 Off ch=3 n=58 v=80
142560 Off ch=3 n=51 v=80
142560 On ch=3 n=63 v=63
142560 On ch=3 n=58 v=63
142560 On ch=3 n=51 v=63
143040 Off ch=3 n=63 v=80
143040 Off ch=3 n=58 v=80
143040 Off ch=3 n=51 v=80
143040 On ch=3 n=63 v=95
143040 On ch=3 n=58 v=95
143040 On ch=3 n=51 v=95
143520 Off ch=3 n=63 v=80
143520 Off ch=3 n=58 v=80
143520 Off ch=3 n=51 v=80
143520 On ch=3 n=55 v=95
143520 On ch=3 n=50 v=95
143520 On ch=3 n=45 v=95
143540 Off ch=3 n=55 v=80
143540 Off ch=3 n=50 v=80
143540 Off ch=3 n=45 v=80
143760 On ch=3 n=55 v=95
143760 On ch=3 n=50 v=95
143760 On ch=3 n=45 v=95
143780 Off ch=3 n=55 v=80
143780 Off ch=3 n=50 v=80
143780 Off ch=3 n=45 v=80
144000 On ch=3 n=58 v=95
144000 On ch=3 n=53 v=95
144000 On ch=3 n=46 v=95
144480 Off ch=3 n=58 v=80
144480 Off ch=3 n=53 v=80
144480 Off ch=3 n=46 v=80
144480 On ch=3 n=58 v=63
144480 On ch=3 n=53 v=63
144480 On ch=3 n=46 v=63
144960 Off ch=3 n=58 v=80
144960 Off ch=3 n=53 v=80
144960 Off ch=3 n=46 v=80
144960 On ch=3 n=58 v=95
144960 On ch=3 n=53 v=95
144960 On ch=3 n=46 v=95
145440 Off ch=3 n=58 v=80
145440 Off ch=3 n=53 v=80
145440 Off ch=3 n=46 v=80
145440 On ch=3 n=50 v=95
145440 On ch=3 n=45 v=95
145440 On ch=3 n=40 v=95
145460 Off ch=3 n=50 v=80
145460 Off ch=3 n=45 v=80
145460 Off ch=3 n=40 v=80
145680 On ch=3 n=50 v=95
145680 On ch=3 n=45 v=95
145680 On ch=3 n=40 v=95
145700 Off ch=3 n=50 v=80
145700 Off ch=3 n=45 v=80
145700 Off ch=3 n=40 v=80
145920 On ch=3 n=53 v=95
145920 On ch=3 n=48 v=95
145920 On ch=3 n=41 v=95
146400 Off ch=3 n=53 v=80
146400 Off ch=3 n=48 v=80
146400 Off ch=3 n=41 v=80
146400 On ch=3 n=53 v=63
146400 On ch=3 n=48 v=63
146400 On ch=3 n=41 v=63
146880 Off ch=3 n=53 v=80
146880 Off ch=3 n=48 v=80
146880 Off ch=3 n=41 v=80
146880 On ch=3 n=53 v=95
146880 On ch=3 n=48 v=95
146880 On ch=3 n=41 v=95
147360 Off ch=3 n=53 v=80
147360 Off ch=3 n=48 v=80
147360 Off ch=3 n=41 v=80
147360 On ch=3 n=50 v=95
147360 On ch=3 n=45 v=95
147360 On ch=3 n=40 v=95
147380 Off ch=3 n=50 v=80
147380 Off ch=3 n=45 v=80
147380 Off ch=3 n=40 v=80
147600 On ch=3 n=50 v=95
147600 On ch=3 n=45 v=95
147600 On ch=3 n=40 v=95
147620 Off ch=3 n=50 v=80
147620 Off ch=3 n=45 v=80
147620 Off ch=3 n=40 v=80
147840 On ch=3 n=56 v=95
147840 On ch=3 n=51 v=95
147840 On ch=3 n=44 v=95
148320 Off ch=3 n=56 v=80
148320 Off ch=3 n=51 v=80
148320 Off ch=3 n=44 v=80
148320 On ch=3 n=56 v=63
148320 On ch=3 n=51 v=63
148320 On ch=3 n=44 v=63
148800 Off ch=3 n=56 v=80
148800 Off ch=3 n=51 v=80
148800 Off ch=3 n=44 v=80
148800 On ch=3 n=56 v=95
148800 On ch=3 n=51 v=95
148800 On ch=3 n=44 v=95
149280 Off ch=3 n=56 v=80
149280 Off ch=3 n=51 v=80
149280 Off ch=3 n=44 v=80
149280 On ch=3 n=50 v=95
149280 On ch=3 n=45 v=95
149280 On ch=3 n=40 v=95
149300 Off ch=3 n=50 v=80
149300 Off ch=3 n=45 v=80
149300 Off ch=3 n=40 v=80
149520 On ch=3 n=50 v=95
149520 On ch=3 n=45 v=95
149520 On ch=3 n=40 v=95
149540 Off ch=3 n=50 v=80
149540 Off ch=3 n=45 v=80
149540 Off ch=3 n=40 v=80
149760 On ch=3 n=63 v=95
149760 On ch=3 n=58 v=95
149760 On ch=3 n=51 v=95
150240 Off ch=3 n=63 v=80
150240 Off ch=3 n=58 v=80
150240 Off ch=3 n=51 v=80
150240 On ch=3 n=63 v=63
150240 On ch=3 n=58 v=63
150240 On ch=3 n=51 v=63
150720 Off ch=3 n=63 v=80
150720 Off ch=3 n=58 v=80
150720 Off ch=3 n=51 v=80
150720 On ch=3 n=63 v=95
150720 On ch=3 n=58 v=95
150720 On ch=3 n=51 v=95
151200 Off ch=3 n=63 v=80
151200 Off ch=3 n=58 v=80
151200 Off ch=3 n=51 v=80
151200 On ch=3 n=55 v=95
151200 On ch=3 n=50 v=95
151200 On ch=3 n=45 v=95
151220 Off ch=3 n=55 v=80
151220 Off ch=3 n=50 v=80
151220 Off ch=3 n=45 v=80
151440 On ch=3 n=55 v=95
151440 On ch=3 n=50 v=95
151440 On ch=3 n=45 v=95
151460 Off ch=3 n=55 v=80
151460 Off ch=3 n=50 v=80
151460 Off ch=3 n=45 v=80
151680 On ch=3 n=58 v=95
151680 On ch=3 n=53 v=95
151680 On ch=3 n=46 v=95
152160 Off ch=3 n=58 v=80
152160 Off ch=3 n=53 v=80
152160 Off ch=3 n=46 v=80
152160 On ch=3 n=58 v=63
152160 On ch=3 n=53 v=63
152160 On ch=3 n=46 v=63
152640 Off ch=3 n=58 v=80
152640 Off ch=3 n=53 v=80
152640 Off ch=3 n=46 v=80
152640 On ch=3 n=58 v=95
152640 On ch=3 n=53 v=95
152640 On ch=3 n=46 v=95
153120 Off ch=3 n=58 v=80
153120 Off ch=3 n=53 v=80
153120 Off ch=3 n=46 v=80
153120 On ch=3 n=50 v=95
153120 On ch=3 n=45 v=95
153120 On ch=3 n=40 v=95
153140 Off ch=3 n=50 v=80
153140 Off ch=3 n=45 v=80
153140 Off ch=3 n=40 v=80
153360 On ch=3 n=50 v=95
153360 On ch=3 n=45 v=95
153360 On ch=3 n=40 v=95
153380 Off ch=3 n=50 v=80
153380 Off ch=3 n=45 v=80
153380 Off ch=3 n=40 v=80
153600 On ch=3 n=53 v=95
153600 On ch=3 n=48 v=95
153600 On ch=3 n=41 v=95
154080 Off ch=3 n=53 v=80
154080 Off ch=3 n=48 v=80
154080 Off ch=3 n=41 v=80
154080 On ch=3 n=53 v=63
154080 On ch=3 n=48 v=63
154080 On ch=3 n=41 v=63
154560 Off ch=3 n=53 v=80
154560 Off ch=3 n=48 v=80
154560 Off ch=3 n=41 v=80
154560 On ch=3 n=53 v=95
154560 On ch=3 n=48 v=95
154560 On ch=3 n=41 v=95
155040 Off ch=3 n=53 v=80
155040 Off ch=3 n=48 v=80
155040 Off ch=3 n=41 v=80
155040 On ch=3 n=50 v=95
155040 On ch=3 n=45 v=95
155040 On ch=3 n=40 v=95
155060 Off ch=3 n=50 v=80
155060 Off ch=3 n=45 v=80
155060 Off ch=3 n=40 v=80
155280 On ch=3 n=50 v=95
155280 On ch=3 n=45 v=95
155280 On ch=3 n=40 v=95
155300 Off ch=3 n=50 v=80
155300 Off ch=3 n=45 v=80
155300 Off ch=3 n=40 v=80
155520 On ch=3 n=56 v=95
155520 On ch=3 n=51 v=95
155520 On ch=3 n=44 v=95
156000 Off ch=3 n=56 v=80
156000 Off ch=3 n=51 v=80
156000 Off ch=3 n=44 v=80
156000 On ch=3 n=56 v=63
156000 On ch=3 n=51 v=63
156000 On ch=3 n=44 v=63
156480 Off ch=3 n=56 v=80
156480 Off ch=3 n=51 v=80
156480 Off ch=3 n=44 v=80
156480 On ch=3 n=56 v=95
156480 On ch=3 n=51 v=95
156480 On ch=3 n=44 v=95
156960 Off ch=3 n=56 v=80
156960 Off ch=3 n=51 v=80
156960 Off ch=3 n=44 v=80
156960 On ch=3 n=50 v=95
156960 On ch=3 n=45 v=95
156960 On ch=3 n=40 v=95
156980 Off ch=3 n=50 v=80
156980 Off ch=3 n=45 v=80
156980 Off ch=3 n=40 v=80
157200 On ch=3 n=50 v=95
157200 On ch=3 n=45 v=95
157200 On ch=3 n=40 v=95
157220 Off ch=3 n=50 v=80
157220 Off ch=3 n=45 v=80
157220 Off ch=3 n=40 v=80
157440 On ch=3 n=63 v=95
157440 On ch=3 n=58 v=95
157440 On ch=3 n=51 v=95
157920 Off ch=3 n=63 v=80
157920 Off ch=3 n=58 v=80
157920 Off ch=3 n=51 v=80
157920 On ch=3 n=63 v=63
157920 On ch=3 n=58 v=63
157920 On ch=3 n=51 v=63
158400 Off ch=3 n=63 v=80
158400 Off ch=3 n=58 v=80
158400 Off ch=3 n=51 v=80
158400 On ch=3 n=63 v=95
158400 On ch=3 n=58 v=95
158400 On ch=3 n=51 v=95
158880 Off ch=3 n=63 v=80
158880 Off ch=3 n=58 v=80
158880 Off ch=3 n=51 v=80
158880 On ch=3 n=55 v=95
158880 On ch=3 n=50 v=95
158880 On ch=3 n=45 v=95
158900 Off ch=3 n=55 v=80
158900 Off ch=3 n=50 v=80
158900 Off ch=3 n=45 v=80
159120 On ch=3 n=55 v=95
159120 On ch=3 n=50 v=95
159120 On ch=3 n=45 v=95
159140 Off ch=3 n=55 v=80
159140 Off ch=3 n=50 v=80
159140 Off ch=3 n=45 v=80
159360 On ch=3 n=58 v=95
159360 On ch=3 n=53 v=95
159360 On ch=3 n=46 v=95
159840 Off ch=3 n=58 v=80
159840 Off ch=3 n=53 v=80
159840 Off ch=3 n=46 v=80
159840 On ch=3 n=58 v=63
159840 On ch=3 n=53 v=63
159840 On ch=3 n=46 v=63
160320 Off ch=3 n=58 v=80
160320 Off ch=3 n=53 v=80
160320 Off ch=3 n=46 v=80
160320 On ch=3 n=58 v=95
160320 On ch=3 n=53 v=95
160320 On ch=3 n=46 v=95
160800 Off ch=3 n=58 v=80
160800 Off ch=3 n=53 v=80
160800 Off ch=3 n=46 v=80
160800 On ch=3 n=50 v=95
160800 On ch=3 n=45 v=95
160800 On ch=3 n=40 v=95
160820 Off ch=3 n=50 v=80
160820 Off ch=3 n=45 v=80
160820 Off ch=3 n=40 v=80
161040 On ch=3 n=50 v=95
161040 On ch=3 n=45 v=95
161040 On ch=3 n=40 v=95
161060 Off ch=3 n=50 v=80
161060 Off ch=3 n=45 v=80
161060 Off ch=3 n=40 v=80
161280 On ch=3 n=53 v=95
161280 On ch=3 n=48 v=95
161280 On ch=3 n=41 v=95
161760 Off ch=3 n=53 v=80
161760 Off ch=3 n=48 v=80
161760 Off ch=3 n=41 v=80
161760 On ch=3 n=53 v=63
161760 On ch=3 n=48 v=63
161760 On ch=3 n=41 v=63
162240 Off ch=3 n=53 v=80
162240 Off ch=3 n=48 v=80
162240 Off ch=3 n=41 v=80
162240 On ch=3 n=53 v=95
162240 On ch=3 n=48 v=95
162240 On ch=3 n=41 v=95
162720 Off ch=3 n=53 v=80
162720 Off ch=3 n=48 v=80
162720 Off ch=3 n=41 v=80
162720 On ch=3 n=50 v=95
162720 On ch=3 n=45 v=95
162720 On ch=3 n=40 v=95
162740 Off ch=3 n=50 v=80
162740 Off ch=3 n=45 v=80
162740 Off ch=3 n=40 v=80
162960 On ch=3 n=50 v=95
162960 On ch=3 n=45 v=95
162960 On ch=3 n=40 v=95
162980 Off ch=3 n=50 v=80
162980 Off ch=3 n=45 v=80
162980 Off ch=3 n=40 v=80
163200 On ch=3 n=56 v=95
163200 On ch=3 n=51 v=95
163200 On ch=3 n=44 v=95
163680 Off ch=3 n=56 v=80
163680 Off ch=3 n=51 v=80
163680 Off ch=3 n=44 v=80
163680 On ch=3 n=56 v=63
163680 On ch=3 n=51 v=63
163680 On ch=3 n=44 v=63
164160 Off ch=3 n=56 v=80
164160 Off ch=3 n=51 v=80
164160 Off ch=3 n=44 v=80
164160 On ch=3 n=56 v=95
164160 On ch=3 n=51 v=95
164160 On ch=3 n=44 v=95
164640 Off ch=3 n=56 v=80
164640 Off ch=3 n=51 v=80
164640 Off ch=3 n=44 v=80
164640 On ch=3 n=50 v=95
164640 On ch=3 n=45 v=95
164640 On ch=3 n=40 v=95
164660 Off ch=3 n=50 v=80
164660 Off ch=3 n=45 v=80
164660 Off ch=3 n=40 v=80
164880 On ch=3 n=50 v=95
164880 On ch=3 n=45 v=95
164880 On ch=3 n=40 v=95
164900 Off ch=3 n=50 v=80
164900 Off ch=3 n=45 v=80
164900 Off ch=3 n=40 v=80
165120 On ch=3 n=63 v=95
165120 On ch=3 n=58 v=95
165120 On ch=3 n=51 v=95
165600 Off ch=3 n=63 v=80
165600 Off ch=3 n=58 v=80
165600 Off ch=3 n=51 v=80
165600 On ch=3 n=63 v=63
165600 On ch=3 n=58 v=63
165600 On ch=3 n=51 v=63
166080 Off ch=3 n=63 v=80
166080 Off ch=3 n=58 v=80
166080 Off ch=3 n=51 v=80
166080 On ch=3 n=63 v=95
166080 On ch=3 n=58 v=95
166080 On ch=3 n=51 v=95
166560 Off ch=3 n=63 v=80
166560 Off ch=3 n=58 v=80
166560 Off ch=3 n=51 v=80
166560 On ch=3 n=55 v=95
166560 On ch=3 n=50 v=95
166560 On ch=3 n=45 v=95
166580 Off ch=3 n=55 v=80
166580 Off ch=3 n=50 v=80
166580 Off ch=3 n=45 v=80
166800 On ch=3 n=55 v=95
166800 On ch=3 n=50 v=95
166800 On ch=3 n=45 v=95
166820 Off ch=3 n=55 v=80
166820 Off ch=3 n=50 v=80
166820 Off ch=3 n=45 v=80
167040 PrCh ch=3 p=29
167040 PrCh ch=4 p=29
167040 Par ch=3 c=7 v=104
167040 Par ch=4 c=7 v=104
167040 On ch=3 n=58 v=95
167040 On ch=3 n=53 v=95
167040 On ch=3 n=46 v=95
167520 Off ch=3 n=58 v=80
167520 Off ch=3 n=53 v=80
167520 Off ch=3 n=46 v=80
167520 On ch=3 n=58 v=95
167520 On ch=3 n=53 v=95
167520 On ch=3 n=46 v=95
168000 Off ch=3 n=58 v=80
168000 Off ch=3 n=53 v=80
168000 Off ch=3 n=46 v=80
168000 On ch=3 n=58 v=95
168000 On ch=3 n=53 v=95
168000 On ch=3 n=46 v=95
168480 Off ch=3 n=58 v=80
168480 Off ch=3 n=53 v=80
168480 Off ch=3 n=46 v=80
168480 On ch=3 n=60 v=95
168480 On ch=3 n=55 v=95
168480 On ch=3 n=48 v=95
168960 Off ch=3 n=60 v=80
168960 Off ch=3 n=55 v=80
168960 Off ch=3 n=48 v=80
168960 On ch=3 n=61 v=95
168960 On ch=3 n=56 v=95
168960 On ch=3 n=49 v=95
169440 Off ch=3 n=61 v=80
169440 Off ch=3 n=56 v=80
169440 Off ch=3 n=49 v=80
169440 On ch=3 n=61 v=95
169440 On ch=3 n=56 v=95
169440 On ch=3 n=49 v=95
169920 Off ch=3 n=61 v=80
169920 Off ch=3 n=56 v=80
169920 Off ch=3 n=49 v=80
169920 On ch=3 n=61 v=95
169920 On ch=3 n=56 v=95
169920 On ch=3 n=49 v=95
170400 Off ch=3 n=61 v=80
170400 Off ch=3 n=56 v=80
170400 Off ch=3 n=49 v=80
170400 On ch=3 n=61 v=95
170400 On ch=3 n=56 v=95
170400 On ch=3 n=49 v=95
170640 Off ch=3 n=61 v=80
170640 Off ch=3 n=56 v=80
170640 Off ch=3 n=49 v=80
170640 On ch=3 n=61 v=95
170640 On ch=3 n=56 v=95
170640 On ch=3 n=49 v=95
170880 Off ch=3 n=61 v=80
170880 Off ch=3 n=56 v=80
170880 Off ch=3 n=49 v=80
170880 On ch=3 n=56 v=95
170880 On ch=3 n=51 v=95
170880 On ch=3 n=44 v=95
171360 Off ch=3 n=56 v=80
171360 Off ch=3 n=51 v=80
171360 Off ch=3 n=44 v=80
171360 On ch=3 n=56 v=95
171360 On ch=3 n=51 v=95
171360 On ch=3 n=44 v=95
171840 Off ch=3 n=56 v=80
171840 Off ch=3 n=51 v=80
171840 Off ch=3 n=44 v=80
171840 On ch=3 n=56 v=95
171840 On ch=3 n=51 v=95
171840 On ch=3 n=44 v=95
172320 Off ch=3 n=56 v=80
172320 Off ch=3 n=51 v=80
172320 Off ch=3 n=44 v=80
172320 On ch=3 n=56 v=95
172320 On ch=3 n=51 v=95
172320 On ch=3 n=44 v=95
172560 Off ch=3 n=56 v=80
172560 Off ch=3 n=51 v=80
172560 Off ch=3 n=44 v=80
172560 On ch=3 n=56 v=95
172560 On ch=3 n=51 v=95
172560 On ch=3 n=44 v=95
172800 Off ch=3 n=56 v=80
172800 Off ch=3 n=51 v=80
172800 Off ch=3 n=44 v=80
172800 On ch=3 n=63 v=95
172800 On ch=3 n=58 v=95
172800 On ch=3 n=51 v=95
173280 Off ch=3 n=63 v=80
173280 Off ch=3 n=58 v=80
173280 Off ch=3 n=51 v=80
173280 On ch=3 n=63 v=95
173280 On ch=3 n=58 v=95
173280 On ch=3 n=51 v=95
173760 Off ch=3 n=63 v=80
173760 Off ch=3 n=58 v=80
173760 Off ch=3 n=51 v=80
173760 On ch=3 n=63 v=95
173760 On ch=3 n=58 v=95
173760 On ch=3 n=51 v=95
174240 Off ch=3 n=63 v=80
174240 Off ch=3 n=58 v=80
174240 Off ch=3 n=51 v=80
174240 On ch=3 n=63 v=95
174240 On ch=3 n=58 v=95
174240 On ch=3 n=51 v=95
174480 Off ch=3 n=63 v=80
174480 Off ch=3 n=58 v=80
174480 Off ch=3 n=51 v=80
174480 On ch=3 n=63 v=95
174480 On ch=3 n=58 v=95
174480 On ch=3 n=51 v=95
174720 Off ch=3 n=63 v=80
174720 Off ch=3 n=58 v=80
174720 Off ch=3 n=51 v=80
174720 On ch=3 n=53 v=95
174720 On ch=3 n=48 v=95
174720 On ch=3 n=41 v=95
175200 Off ch=3 n=53 v=80
175200 Off ch=3 n=48 v=80
175200 Off ch=3 n=41 v=80
175200 On ch=3 n=53 v=95
175200 On ch=3 n=48 v=95
175200 On ch=3 n=41 v=95
175680 Off ch=3 n=53 v=80
175680 Off ch=3 n=48 v=80
175680 Off ch=3 n=41 v=80
175680 On ch=3 n=53 v=95
175680 On ch=3 n=48 v=95
175680 On ch=3 n=41 v=95
176160 Off ch=3 n=53 v=80
176160 Off ch=3 n=48 v=80
176160 Off ch=3 n=41 v=80
176160 On ch=3 n=53 v=95
176160 On ch=3 n=48 v=95
176160 On ch=3 n=41 v=95
176400 Off ch=3 n=53 v=80
176400 Off ch=3 n=48 v=80
176400 Off ch=3 n=41 v=80
176400 On ch=3 n=53 v=95
176400 On ch=3 n=48 v=95
176400 On ch=3 n=41 v=95
176640 Off ch=3 n=53 v=80
176640 Off ch=3 n=48 v=80
176640 Off ch=3 n=41 v=80
176640 On ch=3 n=61 v=95
176640 On ch=3 n=56 v=95
176640 On ch=3 n=49 v=95
177120 Off ch=3 n=61 v=80
177120 Off ch=3 n=56 v=80
177120 Off ch=3 n=49 v=80
177120 On ch=3 n=61 v=95
177120 On ch=3 n=56 v=95
177120 On ch=3 n=49 v=95
177600 Off ch=3 n=61 v=80
177600 Off ch=3 n=56 v=80
177600 Off ch=3 n=49 v=80
177600 On ch=3 n=61 v=95
177600 On ch=3 n=56 v=95
177600 On ch=3 n=49 v=95
178080 Off ch=3 n=61 v=80
178080 Off ch=3 n=56 v=80
178080 Off ch=3 n=49 v=80
178080 On ch=3 n=61 v=95
178080 On ch=3 n=56 v=95
178080 On ch=3 n=49 v=95
178320 Off ch=3 n=61 v=80
178320 Off ch=3 n=56 v=80
178320 Off ch=3 n=49 v=80
178320 On ch=3 n=61 v=95
178320 On ch=3 n=56 v=95
178320 On ch=3 n=49 v=95
178560 Off ch=3 n=61 v=80
178560 Off ch=3 n=56 v=80
178560 Off ch=3 n=49 v=80
178560 On ch=3 n=56 v=95
178560 On ch=3 n=51 v=95
178560 On ch=3 n=44 v=95
179040 Off ch=3 n=56 v=80
179040 Off ch=3 n=51 v=80
179040 Off ch=3 n=44 v=80
179040 On ch=3 n=56 v=95
179040 On ch=3 n=51 v=95
179040 On ch=3 n=44 v=95
179520 Off ch=3 n=56 v=80
179520 Off ch=3 n=51 v=80
179520 Off ch=3 n=44 v=80
179520 On ch=3 n=56 v=95
179520 On ch=3 n=51 v=95
179520 On ch=3 n=44 v=95
180000 Off ch=3 n=56 v=80
180000 Off ch=3 n=51 v=80
180000 Off ch=3 n=44 v=80
180000 On ch=3 n=56 v=95
180000 On ch=3 n=51 v=95
180000 On ch=3 n=44 v=95
180240 Off ch=3 n=56 v=80
180240 Off ch=3 n=51 v=80
180240 Off ch=3 n=44 v=80
180240 On ch=3 n=56 v=95
180240 On ch=3 n=51 v=95
180240 On ch=3 n=44 v=95
180480 Off ch=3 n=56 v=80
180480 Off ch=3 n=51 v=80
180480 Off ch=3 n=44 v=80
180480 On ch=3 n=63 v=95
180480 On ch=3 n=58 v=95
180480 On ch=3 n=51 v=95
180960 Off ch=3 n=63 v=80
180960 Off ch=3 n=58 v=80
180960 Off ch=3 n=51 v=80
180960 On ch=3 n=63 v=95
180960 On ch=3 n=58 v=95
180960 On ch=3 n=51 v=95
181440 Off ch=3 n=63 v=80
181440 Off ch=3 n=58 v=80
181440 Off ch=3 n=51 v=80
181440 On ch=3 n=63 v=95
181440 On ch=3 n=58 v=95
181440 On ch=3 n=51 v=95
181920 Off ch=3 n=63 v=80
181920 Off ch=3 n=58 v=80
181920 Off ch=3 n=51 v=80
181920 On ch=3 n=63 v=95
181920 On ch=3 n=58 v=95
181920 On ch=3 n=51 v=95
182160 Off ch=3 n=63 v=80
182160 Off ch=3 n=58 v=80
182160 Off ch=3 n=51 v=80
182160 On ch=3 n=63 v=95
182160 On ch=3 n=58 v=95
182160 On ch=3 n=51 v=95
182400 Off ch=3 n=63 v=80
182400 Off ch=3 n=58 v=80
182400 Off ch=3 n=51 v=80
182400 On ch=3 n=53 v=95
182400 On ch=3 n=48 v=95
182400 On ch=3 n=41 v=95
182880 Off ch=3 n=53 v=80
182880 Off ch=3 n=48 v=80
182880 Off ch=3 n=41 v=80
182880 On ch=3 n=53 v=95
182880 On ch=3 n=48 v=95
182880 On ch=3 n=41 v=95
183360 Off ch=3 n=53 v=80
183360 Off ch=3 n=48 v=80
183360 Off ch=3 n=41 v=80
183360 On ch=3 n=53 v=95
183360 On ch=3 n=48 v=95
183360 On ch=3 n=41 v=95
183840 Off ch=3 n=53 v=80
183840 Off ch=3 n=48 v=80
183840 Off ch=3 n=41 v=80
183840 On ch=3 n=53 v=95
183840 On ch=3 n=48 v=95
183840 On ch=3 n=41 v=95
184080 Off ch=3 n=53 v=80
184080 Off ch=3 n=48 v=80
184080 Off ch=3 n=41 v=80
184080 On ch=3 n=53 v=95
184080 On ch=3 n=48 v=95
184080 On ch=3 n=41 v=95
184320 Off ch=3 n=53 v=80
184320 Off ch=3 n=48 v=80
184320 Off ch=3 n=41 v=80
184320 On ch=3 n=61 v=95
184320 On ch=3 n=56 v=95
184320 On ch=3 n=49 v=95
184800 Off ch=3 n=61 v=80
184800 Off ch=3 n=56 v=80
184800 Off ch=3 n=49 v=80
184800 On ch=3 n=61 v=95
184800 On ch=3 n=56 v=95
184800 On ch=3 n=49 v=95
185280 Off ch=3 n=61 v=80
185280 Off ch=3 n=56 v=80
185280 Off ch=3 n=49 v=80
185280 On ch=3 n=61 v=95
185280 On ch=3 n=56 v=95
185280 On ch=3 n=49 v=95
185760 Off ch=3 n=61 v=80
185760 Off ch=3 n=56 v=80
185760 Off ch=3 n=49 v=80
185760 On ch=3 n=61 v=95
185760 On ch=3 n=56 v=95
185760 On ch=3 n=49 v=95
186000 Off ch=3 n=61 v=80
186000 Off ch=3 n=56 v=80
186000 Off ch=3 n=49 v=80
186000 On ch=3 n=61 v=95
186000 On ch=3 n=56 v=95
186000 On ch=3 n=49 v=95
186240 Off ch=3 n=61 v=80
186240 Off ch=3 n=56 v=80
186240 Off ch=3 n=49 v=80
186240 On ch=3 n=56 v=95
186240 On ch=3 n=51 v=95
186240 On ch=3 n=44 v=95
186720 Off ch=3 n=56 v=80
186720 Off ch=3 n=51 v=80
186720 Off ch=3 n=44 v=80
186720 On ch=3 n=56 v=95
186720 On ch=3 n=51 v=95
186720 On ch=3 n=44 v=95
187200 Off ch=3 n=56 v=80
187200 Off ch=3 n=51 v=80
187200 Off ch=3 n=44 v=80
187200 On ch=3 n=56 v=95
187200 On ch=3 n=51 v=95
187200 On ch=3 n=44 v=95
187680 Off ch=3 n=56 v=80
187680 Off ch=3 n=51 v=80
187680 Off ch=3 n=44 v=80
187680 On ch=3 n=56 v=95
187680 On ch=3 n=51 v=95
187680 On ch=3 n=44 v=95
187920 Off ch=3 n=56 v=80
187920 Off ch=3 n=51 v=80
187920 Off ch=3 n=44 v=80
187920 On ch=3 n=56 v=95
187920 On ch=3 n=51 v=95
187920 On ch=3 n=44 v=95
188160 Off ch=3 n=56 v=80
188160 Off ch=3 n=51 v=80
188160 Off ch=3 n=44 v=80
188160 On ch=3 n=63 v=95
188160 On ch=3 n=58 v=95
188160 On ch=3 n=51 v=95
188640 Off ch=3 n=63 v=80
188640 Off ch=3 n=58 v=80
188640 Off ch=3 n=51 v=80
188640 On ch=3 n=63 v=95
188640 On ch=3 n=58 v=95
188640 On ch=3 n=51 v=95
189120 Off ch=3 n=63 v=80
189120 Off ch=3 n=58 v=80
189120 Off ch=3 n=51 v=80
189120 On ch=3 n=63 v=95
189120 On ch=3 n=58 v=95
189120 On ch=3 n=51 v=95
189600 Off ch=3 n=63 v=80
189600 Off ch=3 n=58 v=80
189600 Off ch=3 n=51 v=80
189600 On ch=3 n=63 v=95
189600 On ch=3 n=58 v=95
189600 On ch=3 n=51 v=95
189840 Off ch=3 n=63 v=80
189840 Off ch=3 n=58 v=80
189840 Off ch=3 n=51 v=80
189840 On ch=3 n=63 v=95
189840 On ch=3 n=58 v=95
189840 On ch=3 n=51 v=95
190080 Off ch=3 n=63 v=80
190080 Off ch=3 n=58 v=80
190080 Off ch=3 n=51 v=80
190080 On ch=3 n=53 v=95
190080 On ch=3 n=48 v=95
190080 On ch=3 n=41 v=95
190560 Off ch=3 n=53 v=80
190560 Off ch=3 n=48 v=80
190560 Off ch=3 n=41 v=80
190560 On ch=3 n=53 v=95
190560 On ch=3 n=48 v=95
190560 On ch=3 n=41 v=95
191040 Off ch=3 n=53 v=80
191040 Off ch=3 n=48 v=80
191040 Off ch=3 n=41 v=80
191040 On ch=3 n=53 v=95
191040 On ch=3 n=48 v=95
191040 On ch=3 n=41 v=95
191520 Off ch=3 n=53 v=80
191520 Off ch=3 n=48 v=80
191520 Off ch=3 n=41 v=80
191520 On ch=3 n=53 v=95
191520 On ch=3 n=48 v=95
191520 On ch=3 n=41 v=95
191760 Off ch=3 n=53 v=80
191760 Off ch=3 n=48 v=80
191760 Off ch=3 n=41 v=80
191760 On ch=3 n=53 v=95
191760 On ch=3 n=48 v=95
191760 On ch=3 n=41 v=95
192000 Off ch=3 n=53 v=80
192000 Off ch=3 n=48 v=80
192000 Off ch=3 n=41 v=80
192000 On ch=3 n=61 v=95
192000 On ch=3 n=56 v=95
192000 On ch=3 n=49 v=95
192480 Off ch=3 n=61 v=80
192480 Off ch=3 n=56 v=80
192480 Off ch=3 n=49 v=80
192480 On ch=3 n=61 v=95
192480 On ch=3 n=56 v=95
192480 On ch=3 n=49 v=95
192960 Off ch=3 n=61 v=80
192960 Off ch=3 n=56 v=80
192960 Off ch=3 n=49 v=80
192960 On ch=3 n=61 v=95
192960 On ch=3 n=56 v=95
192960 On ch=3 n=49 v=95
193440 Off ch=3 n=61 v=80
193440 Off ch=3 n=56 v=80
193440 Off ch=3 n=49 v=80
193440 On ch=3 n=61 v=95
193440 On ch=3 n=56 v=95
193440 On ch=3 n=49 v=95
193680 Off ch=3 n=61 v=80
193680 Off ch=3 n=56 v=80
193680 Off ch=3 n=49 v=80
193680 On ch=3 n=61 v=95
193680 On ch=3 n=56 v=95
193680 On ch=3 n=49 v=95
193920 Off ch=3 n=61 v=80
193920 Off ch=3 n=56 v=80
193920 Off ch=3 n=49 v=80
193920 On ch=3 n=56 v=95
193920 On ch=3 n=51 v=95
193920 On ch=3 n=44 v=95
194400 Off ch=3 n=56 v=80
194400 Off ch=3 n=51 v=80
194400 Off ch=3 n=44 v=80
194400 On ch=3 n=56 v=95
194400 On ch=3 n=51 v=95
194400 On ch=3 n=44 v=95
194880 Off ch=3 n=56 v=80
194880 Off ch=3 n=51 v=80
194880 Off ch=3 n=44 v=80
194880 On ch=3 n=56 v=95
194880 On ch=3 n=51 v=95
194880 On ch=3 n=44 v=95
195360 Off ch=3 n=56 v=80
195360 Off ch=3 n=51 v=80
195360 Off ch=3 n=44 v=80
195360 On ch=3 n=56 v=95
195360 On ch=3 n=51 v=95
195360 On ch=3 n=44 v=95
195600 Off ch=3 n=56 v=80
195600 Off ch=3 n=51 v=80
195600 Off ch=3 n=44 v=80
195600 On ch=3 n=56 v=95
195600 On ch=3 n=51 v=95
195600 On ch=3 n=44 v=95
195840 Off ch=3 n=56 v=80
195840 Off ch=3 n=51 v=80
195840 Off ch=3 n=44 v=80
195840 On ch=3 n=60 v=95
195840 On ch=3 n=55 v=95
195840 On ch=3 n=48 v=95
196320 Off ch=3 n=60 v=80
196320 Off ch=3 n=55 v=80
196320 Off ch=3 n=48 v=80
196320 On ch=3 n=60 v=95
196320 On ch=3 n=55 v=95
196320 On ch=3 n=48 v=95
196800 Off ch=3 n=60 v=80
196800 Off ch=3 n=55 v=80
196800 Off ch=3 n=48 v=80
196800 On ch=3 n=60 v=95
196800 On ch=3 n=55 v=95
196800 On ch=3 n=48 v=95
197280 Off ch=3 n=60 v=80
197280 Off ch=3 n=55 v=80
197280 Off ch=3 n=48 v=80
197280 On ch=3 n=60 v=95
197280 On ch=3 n=55 v=95
197280 On ch=3 n=48 v=95
197760 Off ch=3 n=60 v=80
197760 Off ch=3 n=55 v=80
197760 Off ch=3 n=48 v=80
197760 On ch=3 n=60 v=95
197760 On ch=3 n=55 v=95
197760 On ch=3 n=48 v=95
198240 Off ch=3 n=60 v=80
198240 Off ch=3 n=55 v=80
198240 Off ch=3 n=48 v=80
199680 PrCh ch=3 p=25
199680 PrCh ch=4 p=25
199680 Par ch=3 c=7 v=88
199680 Par ch=4 c=7 v=88
199680 On ch=3 n=53 v=95
199680 On ch=3 n=48 v=95
199680 On ch=3 n=41 v=95
200160 Off ch=3 n=53 v=80
200160 Off ch=3 n=48 v=80
200160 Off ch=3 n=41 v=80
200160 On ch=3 n=53 v=63
200160 On ch=3 n=48 v=63
200160 On ch=3 n=41 v=63
200640 Off ch=3 n=53 v=80
200640 Off ch=3 n=48 v=80
200640 Off ch=3 n=41 v=80
200640 On ch=3 n=53 v=95
200640 On ch=3 n=48 v=95
200640 On ch=3 n=41 v=95
201120 Off ch=3 n=53 v=80
201120 Off ch=3 n=48 v=80
201120 Off ch=3 n=41 v=80
201120 On ch=3 n=50 v=95
201120 On ch=3 n=45 v=95
201120 On ch=3 n=40 v=95
201140 Off ch=3 n=50 v=80
201140 Off ch=3 n=45 v=80
201140 Off ch=3 n=40 v=80
201360 On ch=3 n=50 v=95
201360 On ch=3 n=45 v=95
201360 On ch=3 n=40 v=95
201380 Off ch=3 n=50 v=80
201380 Off ch=3 n=45 v=80
201380 Off ch=3 n=40 v=80
201600 On ch=3 n=56 v=95
201600 On ch=3 n=51 v=95
201600 On ch=3 n=44 v=95
202080 Off ch=3 n=56 v=80
202080 Off ch=3 n=51 v=80
202080 Off ch=3 n=44 v=80
202080 On ch=3 n=56 v=63
202080 On ch=3 n=51 v=63
202080 On ch=3 n=44 v=63
202560 Off ch=3 n=56 v=80
202560 Off ch=3 n=51 v=80
202560 Off ch=3 n=44 v=80
202560 On ch=3 n=56 v=95
202560 On ch=3 n=51 v=95
202560 On ch=3 n=44 v=95
203040 Off ch=3 n=56 v=80
203040 Off ch=3 n=51 v=80
203040 Off ch=3 n=44 v=80
203040 On ch=3 n=50 v=95
203040 On ch=3 n=45 v=95
203040 On ch=3 n=40 v=95
203060 Off ch=3 n=50 v=80
203060 Off ch=3 n=45 v=80
203060 Off ch=3 n=40 v=80
203280 On ch=3 n=50 v=95
203280 On ch=3 n=45 v=95
203280 On ch=3 n=40 v=95
203300 Off ch=3 n=50 v=80
203300 Off ch=3 n=45 v=80
203300 Off ch=3 n=40 v=80
203520 On ch=3 n=63 v=95
203520 On ch=3 n=58 v=95
203520 On ch=3 n=51 v=95
204000 Off ch=3 n=63 v=80
204000 Off ch=3 n=58 v=80
204000 Off ch=3 n=51 v=80
204000 On ch=3 n=63 v=63
204000 On ch=3 n=58 v=63
204000 On ch=3 n=51 v=63
204480 Off ch=3 n=63 v=80
204480 Off ch=3 n=58 v=80
204480 Off ch=3 n=51 v=80
204480 On ch=3 n=63 v=95
204480 On ch=3 n=58 v=95
204480 On ch=3 n=51 v=95
204960 Off ch=3 n=63 v=80
204960 Off ch=3 n=58 v=80
204960 Off ch=3 n=51 v=80
204960 On ch=3 n=55 v=95
204960 On ch=3 n=50 v=95
204960 On ch=3 n=45 v=95
204980 Off ch=3 n=55 v=80
204980 Off ch=3 n=50 v=80
204980 Off ch=3 n=45 v=80
205200 On ch=3 n=55 v=95
205200 On ch=3 n=50 v=95
205200 On ch=3 n=45 v=95
205220 Off ch=3 n=55 v=80
205220 Off ch=3 n=50 v=80
205220 Off ch=3 n=45 v=80
205440 On ch=3 n=58 v=95
205440 On ch=3 n=53 v=95
205440 On ch=3 n=46 v=95
205920 Off ch=3 n=58 v=80
205920 Off ch=3 n=53 v=80
205920 Off ch=3 n=46 v=80
205920 On ch=3 n=58 v=63
205920 On ch=3 n=53 v=63
205920 On ch=3 n=46 v=63
206400 Off ch=3 n=58 v=80
206400 Off ch=3 n=53 v=80
206400 Off ch=3 n=46 v=80
206400 On ch=3 n=58 v=95
206400 On ch=3 n=53 v=95
206400 On ch=3 n=46 v=95
206880 Off ch=3 n=58 v=80
206880 Off ch=3 n=53 v=80
206880 Off ch=3 n=46 v=80
206880 On ch=3 n=50 v=95
206880 On ch=3 n=45 v=95
206880 On ch=3 n=40 v=95
206900 Off ch=3 n=50 v=80
206900 Off ch=3 n=45 v=80
206900 Off ch=3 n=40 v=80
207120 On ch=3 n=50 v=95
207120 On ch=3 n=45 v=95
207120 On ch=3 n=40 v=95
207140 Off ch=3 n=50 v=80
207140 Off ch=3 n=45 v=80
207140 Off ch=3 n=40 v=80
207360 On ch=3 n=53 v=95
207360 On ch=3 n=48 v=95
207360 On ch=3 n=41 v=95
207840 Off ch=3 n=53 v=80
207840 Off ch=3 n=48 v=80
207840 Off ch=3 n=41 v=80
207840 On ch=3 n=53 v=63
207840 On ch=3 n=48 v=63
207840 On ch=3 n=41 v=63
208320 Off ch=3 n=53 v=80
208320 Off ch=3 n=48 v=80
208320 Off ch=3 n=41 v=80
208320 On ch=3 n=53 v=95
208320 On ch=3 n=48 v=95
208320 On ch=3 n=41 v=95
208800 Off ch=3 n=53 v=80
208800 Off ch=3 n=48 v=80
208800 Off ch=3 n=41 v=80
208800 On ch=3 n=50 v=95
208800 On ch=3 n=45 v=95
208800 On ch=3 n=40 v=95
208820 Off ch=3 n=50 v=80
208820 Off ch=3 n=45 v=80
208820 Off ch=3 n=40 v=80
209040 On ch=3 n=50 v=95
209040 On ch=3 n=45 v=95
209040 On ch=3 n=40 v=95
209060 Off ch=3 n=50 v=80
209060 Off ch=3 n=45 v=80
209060 Off ch=3 n=40 v=80
209280 On ch=3 n=56 v=95
209280 On ch=3 n=51 v=95
209280 On ch=3 n=44 v=95
209760 Off ch=3 n=56 v=80
209760 Off ch=3 n=51 v=80
209760 Off ch=3 n=44 v=80
209760 On ch=3 n=56 v=63
209760 On ch=3 n=51 v=63
209760 On ch=3 n=44 v=63
210240 Off ch=3 n=56 v=80
210240 Off ch=3 n=51 v=80
210240 Off ch=3 n=44 v=80
210240 On ch=3 n=56 v=95
210240 On ch=3 n=51 v=95
210240 On ch=3 n=44 v=95
210720 Off ch=3 n=56 v=80
210720 Off ch=3 n=51 v=80
210720 Off ch=3 n=44 v=80
210720 On ch=3 n=50 v=95
210720 On ch=3 n=45 v=95
210720 On ch=3 n=40 v=95
210740 Off ch=3 n=50 v=80
210740 Off ch=3 n=45 v=80
210740 Off ch=3 n=40 v=80
210960 On ch=3 n=50 v=95
210960 On ch=3 n=45 v=95
210960 On ch=3 n=40 v=95
210980 Off ch=3 n=50 v=80
210980 Off ch=3 n=45 v=80
210980 Off ch=3 n=40 v=80
211200 On ch=3 n=63 v=95
211200 On ch=3 n=58 v=95
211200 On ch=3 n=51 v=95
211680 Off ch=3 n=63 v=80
211680 Off ch=3 n=58 v=80
211680 Off ch=3 n=51 v=80
211680 On ch=3 n=63 v=63
211680 On ch=3 n=58 v=63
211680 On ch=3 n=51 v=63
212160 Off ch=3 n=63 v=80
212160 Off ch=3 n=58 v=80
212160 Off ch=3 n=51 v=80
212160 On ch=3 n=63 v=95
212160 On ch=3 n=58 v=95
212160 On ch=3 n=51 v=95
212640 Off ch=3 n=63 v=80
212640 Off ch=3 n=58 v=80
212640 Off ch=3 n=51 v=80
212640 On ch=3 n=55 v=95
212640 On ch=3 n=50 v=95
212640 On ch=3 n=45 v=95
212660 Off ch=3 n=55 v=80
212660 Off ch=3 n=50 v=80
212660 Off ch=3 n=45 v=80
212880 On ch=3 n=55 v=95
212880 On ch=3 n=50 v=95
212880 On ch=3 n=45 v=95
212900 Off ch=3 n=55 v=80
212900 Off ch=3 n=50 v=80
212900 Off ch=3 n=45 v=80
213120 PrCh ch=3 p=29
213120 PrCh ch=4 p=29
213120 Par ch=3 c=7 v=104
213120 Par ch=4 c=7 v=104
213120 On ch=3 n=58 v=95
213120 On ch=3 n=53 v=95
213120 On ch=3 n=46 v=95
213600 Off ch=3 n=58 v=80
213600 Off ch=3 n=53 v=80
213600 Off ch=3 n=46 v=80
213600 On ch=3 n=58 v=95
213600 On ch=3 n=53 v=95
213600 On ch=3 n=46 v=95
214080 Off ch=3 n=58 v=80
214080 Off ch=3 n=53 v=80
214080 Off ch=3 n=46 v=80
214080 On ch=3 n=58 v=95
214080 On ch=3 n=53 v=95
214080 On ch=3 n=46 v=95
214560 Off ch=3 n=58 v=80
214560 Off ch=3 n=53 v=80
214560 Off ch=3 n=46 v=80
214560 On ch=3 n=60 v=95
214560 On ch=3 n=55 v=95
214560 On ch=3 n=48 v=95
215040 Off ch=3 n=60 v=80
215040 Off ch=3 n=55 v=80
215040 Off ch=3 n=48 v=80
215040 On ch=3 n=61 v=95
215040 On ch=3 n=56 v=95
215040 On ch=3 n=49 v=95
215520 Off ch=3 n=61 v=80
215520 Off ch=3 n=56 v=80
215520 Off ch=3 n=49 v=80
215520 On ch=3 n=61 v=95
215520 On ch=3 n=56 v=95
215520 On ch=3 n=49 v=95
216000 Off ch=3 n=61 v=80
216000 Off ch=3 n=56 v=80
216000 Off ch=3 n=49 v=80
216000 On ch=3 n=61 v=95
216000 On ch=3 n=56 v=95
216000 On ch=3 n=49 v=95
216480 Off ch=3 n=61 v=80
216480 Off ch=3 n=56 v=80
216480 Off ch=3 n=49 v=80
216480 On ch=3 n=61 v=95
216480 On ch=3 n=56 v=95
216480 On ch=3 n=49 v=95
216720 Off ch=3 n=61 v=80
216720 Off ch=3 n=56 v=80
216720 Off ch=3 n=49 v=80
216720 On ch=3 n=61 v=95
216720 On ch=3 n=56 v=95
216720 On ch=3 n=49 v=95
216960 Off ch=3 n=61 v=80
216960 Off ch=3 n=56 v=80
216960 Off ch=3 n=49 v=80
216960 On ch=3 n=56 v=95
216960 On ch=3 n=51 v=95
216960 On ch=3 n=44 v=95
217440 Off ch=3 n=56 v=80
217440 Off ch=3 n=51 v=80
217440 Off ch=3 n=44 v=80
217440 On ch=3 n=56 v=95
217440 On ch=3 n=51 v=95
217440 On ch=3 n=44 v=95
217920 Off ch=3 n=56 v=80
217920 Off ch=3 n=51 v=80
217920 Off ch=3 n=44 v=80
217920 On ch=3 n=56 v=95
217920 On ch=3 n=51 v=95
217920 On ch=3 n=44 v=95
218400 Off ch=3 n=56 v=80
218400 Off ch=3 n=51 v=80
218400 Off ch=3 n=44 v=80
218400 On ch=3 n=56 v=95
218400 On ch=3 n=51 v=95
218400 On ch=3 n=44 v=95
218640 Off ch=3 n=56 v=80
218640 Off ch=3 n=51 v=80
218640 Off ch=3 n=44 v=80
218640 On ch=3 n=56 v=95
218640 On ch=3 n=51 v=95
218640 On ch=3 n=44 v=95
218880 Off ch=3 n=56 v=80
218880 Off ch=3 n=51 v=80
218880 Off ch=3 n=44 v=80
218880 On ch=3 n=63 v=95
218880 On ch=3 n=58 v=95
218880 On ch=3 n=51 v=95
219360 Off ch=3 n=63 v=80
219360 Off ch=3 n=58 v=80
219360 Off ch=3 n=51 v=80
219360 On ch=3 n=63 v=95
219360 On ch=3 n=58 v=95
219360 On ch=3 n=51 v=95
219840 Off ch=3 n=63 v=80
219840 Off ch=3 n=58 v=80
219840 Off ch=3 n=51 v=80
219840 On ch=3 n=63 v=95
219840 On ch=3 n=58 v=95
219840 On ch=3 n=51 v=95
220320 Off ch=3 n=63 v=80
220320 Off ch=3 n=58 v=80
220320 Off ch=3 n=51 v=80
220320 On ch=3 n=63 v=95
220320 On ch=3 n=58 v=95
220320 On ch=3 n=51 v=95
220560 Off ch=3 n=63 v=80
220560 Off ch=3 n=58 v=80
220560 Off ch=3 n=51 v=80
220560 On ch=3 n=63 v=95
220560 On ch=3 n=58 v=95
220560 On ch=3 n=51 v=95
220800 Off ch=3 n=63 v=80
220800 Off ch=3 n=58 v=80
220800 Off ch=3 n=51 v=80
220800 On ch=3 n=53 v=95
220800 On ch=3 n=48 v=95
220800 On ch=3 n=41 v=95
221280 Off ch=3 n=53 v=80
221280 Off ch=3 n=48 v=80
221280 Off ch=3 n=41 v=80
221280 On ch=3 n=53 v=95
221280 On ch=3 n=48 v=95
221280 On ch=3 n=41 v=95
221760 Off ch=3 n=53 v=80
221760 Off ch=3 n=48 v=80
221760 Off ch=3 n=41 v=80
221760 On ch=3 n=53 v=95
221760 On ch=3 n=48 v=95
221760 On ch=3 n=41 v=95
222240 Off ch=3 n=53 v=80
222240 Off ch=3 n=48 v=80
222240 Off ch=3 n=41 v=80
222240 On ch=3 n=53 v=95
222240 On ch=3 n=48 v=95
222240 On ch=3 n=41 v=95
222480 Off ch=3 n=53 v=80
222480 Off ch=3 n=48 v=80
222480 Off ch=3 n=41 v=80
222480 On ch=3 n=53 v=95
222480 On ch=3 n=48 v=95
222480 On ch=3 n=41 v=95
222720 Off ch=3 n=53 v=80
222720 Off ch=3 n=48 v=80
222720 Off ch=3 n=41 v=80
222720 PrCh ch=3 p=29
222720 PrCh ch=4 p=29
222720 Par ch=3 c=7 v=104
222720 Par ch=4 c=7 v=104
222720 On ch=3 n=61 v=95
222720 On ch=3 n=56 v=95
222720 On ch=3 n=49 v=95
223200 Off ch=3 n=61 v=80
223200 Off ch=3 n=56 v=80
223200 Off ch=3 n=49 v=80
223200 On ch=3 n=61 v=95
223200 On ch=3 n=56 v=95
223200 On ch=3 n=49 v=95
223680 Off ch=3 n=61 v=80
223680 Off ch=3 n=56 v=80
223680 Off ch=3 n=49 v=80
223680 On ch=3 n=61 v=95
223680 On ch=3 n=56 v=95
223680 On ch=3 n=49 v=95
224160 Off ch=3 n=61 v=80
224160 Off ch=3 n=56 v=80
224160 Off ch=3 n=49 v=80
224160 On ch=3 n=61 v=95
224160 On ch=3 n=56 v=95
224160 On ch=3 n=49 v=95
224400 Off ch=3 n=61 v=80
224400 Off ch=3 n=56 v=80
224400 Off ch=3 n=49 v=80
224400 On ch=3 n=61 v=95
224400 On ch=3 n=56 v=95
224400 On ch=3 n=49 v=95
224640 Off ch=3 n=61 v=80
224640 Off ch=3 n=56 v=80
224640 Off ch=3 n=49 v=80
224640 On ch=3 n=56 v=95
224640 On ch=3 n=51 v=95
224640 On ch=3 n=44 v=95
225120 Off ch=3 n=56 v=80
225120 Off ch=3 n=51 v=80
225120 Off ch=3 n=44 v=80
225120 On ch=3 n=56 v=95
225120 On ch=3 n=51 v=95
225120 On ch=3 n=44 v=95
225600 Off ch=3 n=56 v=80
225600 Off ch=3 n=51 v=80
225600 Off ch=3 n=44 v=80
225600 On ch=3 n=56 v=95
225600 On ch=3 n=51 v=95
225600 On ch=3 n=44 v=95
226080 Off ch=3 n=56 v=80
226080 Off ch=3 n=51 v=80
226080 Off ch=3 n=44 v=80
226080 On ch=3 n=56 v=95
226080 On ch=3 n=51 v=95
226080 On ch=3 n=44 v=95
226320 Off ch=3 n=56 v=80
226320 Off ch=3 n=51 v=80
226320 Off ch=3 n=44 v=80
226320 On ch=3 n=56 v=95
226320 On ch=3 n=51 v=95
226320 On ch=3 n=44 v=95
226560 Off ch=3 n=56 v=80
226560 Off ch=3 n=51 v=80
226560 Off ch=3 n=44 v=80
226560 On ch=3 n=63 v=95
226560 On ch=3 n=58 v=95
226560 On ch=3 n=51 v=95
227040 Off ch=3 n=63 v=80
227040 Off ch=3 n=58 v=80
227040 Off ch=3 n=51 v=80
227040 On ch=3 n=63 v=95
227040 On ch=3 n=58 v=95
227040 On ch=3 n=51 v=95
227520 Off ch=3 n=63 v=80
227520 Off ch=3 n=58 v=80
227520 Off ch=3 n=51 v=80
227520 On ch=3 n=63 v=95
227520 On ch=3 n=58 v=95
227520 On ch=3 n=51 v=95
228000 Off ch=3 n=63 v=80
228000 Off ch=3 n=58 v=80
228000 Off ch=3 n=51 v=80
228000 On ch=3 n=63 v=95
228000 On ch=3 n=58 v=95
228000 On ch=3 n=51 v=95
228240 Off ch=3 n=63 v=80
228240 Off ch=3 n=58 v=80
228240 Off ch=3 n=51 v=80
228240 On ch=3 n=63 v=95
228240 On ch=3 n=58 v=95
228240 On ch=3 n=51 v=95
228480 Off ch=3 n=63 v=80
228480 Off ch=3 n=58 v=80
228480 Off ch=3 n=51 v=80
228480 On ch=3 n=53 v=95
228480 On ch=3 n=48 v=95
228480 On ch=3 n=41 v=95
228960 Off ch=3 n=53 v=80
228960 Off ch=3 n=48 v=80
228960 Off ch=3 n=41 v=80
228960 On ch=3 n=53 v=95
228960 On ch=3 n=48 v=95
228960 On ch=3 n=41 v=95
229440 Off ch=3 n=53 v=80
229440 Off ch=3 n=48 v=80
229440 Off ch=3 n=41 v=80
229440 On ch=3 n=53 v=95
229440 On ch=3 n=48 v=95
229440 On ch=3 n=41 v=95
229920 Off ch=3 n=53 v=80
229920 Off ch=3 n=48 v=80
229920 Off ch=3 n=41 v=80
229920 On ch=3 n=53 v=95
229920 On ch=3 n=48 v=95
229920 On ch=3 n=41 v=95
230160 Off ch=3 n=53 v=80
230160 Off ch=3 n=48 v=80
230160 Off ch=3 n=41 v=80
230160 On ch=3 n=53 v=95
230160 On ch=3 n=48 v=95
230160 On ch=3 n=41 v=95
230400 Off ch=3 n=53 v=80
230400 Off ch=3 n=48 v=80
230400 Off ch=3 n=41 v=80
230400 On ch=3 n=61 v=95
230400 On ch=3 n=56 v=95
230400 On ch=3 n=49 v=95
230880 Off ch=3 n=61 v=80
230880 Off ch=3 n=56 v=80
230880 Off ch=3 n=49 v=80
230880 On ch=3 n=61 v=95
230880 On ch=3 n=56 v=95
230880 On ch=3 n=49 v=95
231360 Off ch=3 n=61 v=80
231360 Off ch=3 n=56 v=80
231360 Off ch=3 n=49 v=80
232320 On ch=3 n=56 v=95
232320 On ch=3 n=51 v=95
232320 On ch=3 n=44 v=95
232800 Off ch=3 n=56 v=80
232800 Off ch=3 n=51 v=80
232800 Off ch=3 n=44 v=80
232800 On ch=3 n=56 v=95
232800 On ch=3 n=51 v=95
232800 On ch=3 n=44 v=95
233280 Off ch=3 n=56 v=80
233280 Off ch=3 n=51 v=80
233280 Off ch=3 n=44 v=80
234240 On ch=3 n=63 v=95
234240 On ch=3 n=58 v=95
234240 On ch=3 n=51 v=95
234720 Off ch=3 n=63 v=80
234720 Off ch=3 n=58 v=80
234720 Off ch=3 n=51 v=80
234720 On ch=3 n=63 v=95
234720 On ch=3 n=58 v=95
234720 On ch=3 n=51 v=95
235200 Off ch=3 n=63 v=80
235200 Off ch=3 n=58 v=80
235200 Off ch=3 n=51 v=80
235200 On ch=3 n=63 v=95
235200 On ch=3 n=58 v=95
235200 On ch=3 n=51 v=95
235680 Off ch=3 n=63 v=80
235680 Off ch=3 n=58 v=80
235680 Off ch=3 n=51 v=80
235680 On ch=3 n=63 v=95
235680 On ch=3 n=58 v=95
235680 On ch=3 n=51 v=95
235920 Off ch=3 n=63 v=80
235920 Off ch=3 n=58 v=80
235920 Off ch=3 n=51 v=80
235920 On ch=3 n=63 v=95
235920 On ch=3 n=58 v=95
235920 On ch=3 n=51 v=95
236160 Off ch=3 n=63 v=80
236160 Off ch=3 n=58 v=80
236160 Off ch=3 n=51 v=80
236160 On ch=3 n=53 v=95
236160 On ch=3 n=48 v=95
236160 On ch=3 n=41 v=95
236640 Off ch=3 n=53 v=80
236640 Off ch=3 n=48 v=80
236640 Off ch=3 n=41 v=80
236640 On ch=3 n=53 v=95
236640 On ch=3 n=48 v=95
236640 On ch=3 n=41 v=95
237120 Off ch=3 n=53 v=80
237120 Off ch=3 n=48 v=80
237120 Off ch=3 n=41 v=80
237120 On ch=3 n=53 v=95
237120 On ch=3 n=48 v=95
237120 On ch=3 n=41 v=95
237600 Off ch=3 n=53 v=80
237600 Off ch=3 n=48 v=80
237600 Off ch=3 n=41 v=80
237600 On ch=3 n=53 v=95
237600 On ch=3 n=48 v=95
237600 On ch=3 n=41 v=95
237840 Off ch=3 n=53 v=80
237840 Off ch=3 n=48 v=80
237840 Off ch=3 n=41 v=80
237840 On ch=3 n=53 v=95
237840 On ch=3 n=48 v=95
237840 On ch=3 n=41 v=95
238080 Off ch=3 n=53 v=80
238080 Off ch=3 n=48 v=80
238080 Off ch=3 n=41 v=80
238080 PrCh ch=3 p=29
238080 PrCh ch=4 p=29
238080 Par ch=3 c=7 v=104
238080 Par ch=4 c=7 v=104
238080 On ch=3 n=61 v=95
238080 On ch=3 n=56 v=95
238080 On ch=3 n=49 v=95
238560 Off ch=3 n=61 v=80
238560 Off ch=3 n=56 v=80
238560 Off ch=3 n=49 v=80
238560 On ch=3 n=61 v=95
238560 On ch=3 n=56 v=95
238560 On ch=3 n=49 v=95
239040 Off ch=3 n=61 v=80
239040 Off ch=3 n=56 v=80
239040 Off ch=3 n=49 v=80
240000 On ch=3 n=56 v=95
240000 On ch=3 n=51 v=95
240000 On ch=3 n=44 v=95
240480 Off ch=3 n=56 v=80
240480 Off ch=3 n=51 v=80
240480 Off ch=3 n=44 v=80
240480 On ch=3 n=56 v=95
240480 On ch=3 n=51 v=95
240480 On ch=3 n=44 v=95
240960 Off ch=3 n=56 v=80
240960 Off ch=3 n=51 v=80
240960 Off ch=3 n=44 v=80
241440 On ch=4 n=55 v=95
241680 Pb ch=4 v=7552
241720 Pb ch=4 v=6784
241760 Pb ch=4 v=6144
241800 Pb ch=4 v=5504
241840 Pb ch=4 v=4736
241880 Pb ch=4 v=4096
241920 Off ch=4 n=55 v=80
241920 Pb ch=4 v=8192
241920 On ch=3 n=60 v=95
241920 On ch=3 n=55 v=95
241920 On ch=3 n=48 v=86
242400 Off ch=3 n=60 v=80
242400 Off ch=3 n=55 v=80
242400 Off ch=3 n=48 v=80
242400 On ch=3 n=60 v=95
242400 On ch=3 n=55 v=95
242400 On ch=3 n=48 v=95
242880 Off ch=3 n=60 v=80
242880 Off ch=3 n=55 v=80
242880 Off ch=3 n=48 v=80
242880 On ch=3 n=60 v=95
242880 On ch=3 n=55 v=95
242880 On ch=3 n=48 v=95
243360 Off ch=3 n=60 v=80
243360 Off ch=3 n=55 v=80
243360 Off ch=3 n=48 v=80
243360 On ch=3 n=60 v=95
243360 On ch=3 n=55 v=95
243360 On ch=3 n=48 v=95
243840 Off ch=3 n=60 v=80
243840 Off ch=3 n=55 v=80
243840 Off ch=3 n=48 v=80
243840 On ch=3 n=60 v=95
243840 On ch=3 n=55 v=95
243840 On ch=3 n=48 v=95
244320 Off ch=3 n=60 v=80
244320 Off ch=3 n=55 v=80
244320 Off ch=3 n=48 v=80
244320 On ch=3 n=60 v=95
244320 On ch=3 n=55 v=95
244320 On ch=3 n=48 v=95
244800 Off ch=3 n=60 v=80
244800 Off ch=3 n=55 v=80
244800 Off ch=3 n=48 v=80
244800 On ch=3 n=60 v=95
244800 On ch=3 n=55 v=95
244800 On ch=3 n=48 v=95
245280 Off ch=3 n=60 v=80
245280 Off ch=3 n=55 v=80
245280 Off ch=3 n=48 v=80
245280 On ch=3 n=60 v=95
245280 On ch=3 n=55 v=95
245280 On ch=3 n=48 v=95
245760 Off ch=3 n=60 v=80
245760 Off ch=3 n=55 v=80
245760 Off ch=3 n=48 v=80
245760 On ch=3 n=60 v=95
245760 On ch=3 n=55 v=95
245760 On ch=3 n=48 v=95
246240 Off ch=3 n=60 v=80
246240 Off ch=3 n=55 v=80
246240 Off ch=3 n=48 v=80
246240 On ch=3 n=60 v=95
246240 On ch=3 n=55 v=95
246240 On ch=3 n=48 v=95
246720 Off ch=3 n=60 v=80
246720 Off ch=3 n=55 v=80
246720 Off ch=3 n=48 v=80
246720 On ch=3 n=60 v=95
246720 On ch=3 n=55 v=95
246720 On ch=3 n=48 v=95
247200 Off ch=3 n=60 v=80
247200 Off ch=3 n=55 v=80
247200 Off ch=3 n=48 v=80
247200 On ch=3 n=60 v=95
247200 On ch=3 n=55 v=95
247200 On ch=3 n=48 v=95
247680 Off ch=3 n=60 v=80
247680 Off ch=3 n=55 v=80
247680 Off ch=3 n=48 v=80
247680 On ch=3 n=60 v=95
247680 On ch=3 n=55 v=95
247680 On ch=3 n=48 v=95
248160 Off ch=3 n=60 v=80
248160 Off ch=3 n=55 v=80
248160 Off ch=3 n=48 v=80
249600 PrCh ch=3 p=25
249600 PrCh ch=4 p=25
249600 Par ch=3 c=7 v=88
249600 Par ch=4 c=7 v=88
249600 On ch=3 n=53 v=95
249600 On ch=3 n=48 v=95
249600 On ch=3 n=41 v=95
250080 Off ch=3 n=53 v=80
250080 Off ch=3 n=48 v=80
250080 Off ch=3 n=41 v=80
250080 On ch=3 n=53 v=63
250080 On ch=3 n=48 v=63
250080 On ch=3 n=41 v=63
250560 Off ch=3 n=53 v=80
250560 Off ch=3 n=48 v=80
250560 Off ch=3 n=41 v=80
250560 On ch=3 n=53 v=95
250560 On ch=3 n=48 v=95
250560 On ch=3 n=41 v=95
251040 Off ch=3 n=53 v=80
251040 Off ch=3 n=48 v=80
251040 Off ch=3 n=41 v=80
251040 On ch=3 n=50 v=95
251040 On ch=3 n=45 v=95
251040 On ch=3 n=40 v=95
251060 Off ch=3 n=50 v=80
251060 Off ch=3 n=45 v=80
251060 Off ch=3 n=40 v=80
251280 On ch=3 n=50 v=95
251280 On ch=3 n=45 v=95
251280 On ch=3 n=40 v=95
251300 Off ch=3 n=50 v=80
251300 Off ch=3 n=45 v=80
251300 Off ch=3 n=40 v=80
251520 On ch=3 n=56 v=95
251520 On ch=3 n=51 v=95
251520 On ch=3 n=44 v=95
252000 Off ch=3 n=56 v=80
252000 Off ch=3 n=51 v=80
252000 Off ch=3 n=44 v=80
252000 On ch=3 n=56 v=63
252000 On ch=3 n=51 v=63
252000 On ch=3 n=44 v=63
252480 Off ch=3 n=56 v=80
252480 Off ch=3 n=51 v=80
252480 Off ch=3 n=44 v=80
252480 On ch=3 n=56 v=95
252480 On ch=3 n=51 v=95
252480 On ch=3 n=44 v=95
252960 Off ch=3 n=56 v=80
252960 Off ch=3 n=51 v=80
252960 Off ch=3 n=44 v=80
252960 On ch=3 n=50 v=95
252960 On ch=3 n=45 v=95
252960 On ch=3 n=40 v=95
252980 Off ch=3 n=50 v=80
252980 Off ch=3 n=45 v=80
252980 Off ch=3 n=40 v=80
253200 On ch=3 n=50 v=95
253200 On ch=3 n=45 v=95
253200 On ch=3 n=40 v=95
253220 Off ch=3 n=50 v=80
253220 Off ch=3 n=45 v=80
253220 Off ch=3 n=40 v=80
253440 On ch=3 n=63 v=95
253440 On ch=3 n=58 v=95
253440 On ch=3 n=51 v=95
253920 Off ch=3 n=63 v=80
253920 Off ch=3 n=58 v=80
253920 Off ch=3 n=51 v=80
253920 On ch=3 n=63 v=63
253920 On ch=3 n=58 v=63
253920 On ch=3 n=51 v=63
254400 Off ch=3 n=63 v=80
254400 Off ch=3 n=58 v=80
254400 Off ch=3 n=51 v=80
254400 On ch=3 n=63 v=95
254400 On ch=3 n=58 v=95
254400 On ch=3 n=51 v=95
254880 Off ch=3 n=63 v=80
254880 Off ch=3 n=58 v=80
254880 Off ch=3 n=51 v=80
254880 On ch=3 n=55 v=95
254880 On ch=3 n=50 v=95
254880 On ch=3 n=45 v=95
254900 Off ch=3 n=55 v=80
254900 Off ch=3 n=50 v=80
254900 Off ch=3 n=45 v=80
255120 On ch=3 n=55 v=95
255120 On ch=3 n=50 v=95
255120 On ch=3 n=45 v=95
255140 Off ch=3 n=55 v=80
255140 Off ch=3 n=50 v=80
255140 Off ch=3 n=45 v=80
255360 On ch=3 n=58 v=95
255360 On ch=3 n=53 v=95
255360 On ch=3 n=46 v=95
255840 Off ch=3 n=58 v=80
255840 Off ch=3 n=53 v=80
255840 Off ch=3 n=46 v=80
255840 On ch=3 n=58 v=63
255840 On ch=3 n=53 v=63
255840 On ch=3 n=46 v=63
256320 Off ch=3 n=58 v=80
256320 Off ch=3 n=53 v=80
256320 Off ch=3 n=46 v=80
256320 On ch=3 n=58 v=95
256320 On ch=3 n=53 v=95
256320 On ch=3 n=46 v=95
256800 Off ch=3 n=58 v=80
256800 Off ch=3 n=53 v=80
256800 Off ch=3 n=46 v=80
256800 On ch=3 n=50 v=95
256800 On ch=3 n=45 v=95
256800 On ch=3 n=40 v=95
256820 Off ch=3 n=50 v=80
256820 Off ch=3 n=45 v=80
256820 Off ch=3 n=40 v=80
257040 On ch=3 n=50 v=95
257040 On ch=3 n=45 v=95
257040 On ch=3 n=40 v=95
257060 Off ch=3 n=50 v=80
257060 Off ch=3 n=45 v=80
257060 Off ch=3 n=40 v=80
257280 On ch=3 n=53 v=95
257280 On ch=3 n=48 v=95
257280 On ch=3 n=41 v=95
257760 Off ch=3 n=53 v=80
257760 Off ch=3 n=48 v=80
257760 Off ch=3 n=41 v=80
257760 On ch=3 n=53 v=63
257760 On ch=3 n=48 v=63
257760 On ch=3 n=41 v=63
258240 Off ch=3 n=53 v=80
258240 Off ch=3 n=48 v=80
258240 Off ch=3 n=41 v=80
258240 On ch=3 n=53 v=95
258240 On ch=3 n=48 v=95
258240 On ch=3 n=41 v=95
258720 Off ch=3 n=53 v=80
258720 Off ch=3 n=48 v=80
258720 Off ch=3 n=41 v=80
258720 On ch=3 n=50 v=95
258720 On ch=3 n=45 v=95
258720 On ch=3 n=40 v=95
258740 Off ch=3 n=50 v=80
258740 Off ch=3 n=45 v=80
258740 Off ch=3 n=40 v=80
258960 On ch=3 n=50 v=95
258960 On ch=3 n=45 v=95
258960 On ch=3 n=40 v=95
258980 Off ch=3 n=50 v=80
258980 Off ch=3 n=45 v=80
258980 Off ch=3 n=40 v=80
259200 On ch=3 n=56 v=95
259200 On ch=3 n=51 v=95
259200 On ch=3 n=44 v=95
259680 Off ch=3 n=56 v=80
259680 Off ch=3 n=51 v=80
259680 Off ch=3 n=44 v=80
259680 On ch=3 n=56 v=63
259680 On ch=3 n=51 v=63
259680 On ch=3 n=44 v=63
260160 Off ch=3 n=56 v=80
260160 Off ch=3 n=51 v=80
260160 Off ch=3 n=44 v=80
260160 On ch=3 n=56 v=95
260160 On ch=3 n=51 v=95
260160 On ch=3 n=44 v=95
260640 Off ch=3 n=56 v=80
260640 Off ch=3 n=51 v=80
260640 Off ch=3 n=44 v=80
260640 On ch=3 n=50 v=95
260640 On ch=3 n=45 v=95
260640 On ch=3 n=40 v=95
260660 Off ch=3 n=50 v=80
260660 Off ch=3 n=45 v=80
260660 Off ch=3 n=40 v=80
260880 On ch=3 n=50 v=95
260880 On ch=3 n=45 v=95
260880 On ch=3 n=40 v=95
260900 Off ch=3 n=50 v=80
260900 Off ch=3 n=45 v=80
260900 Off ch=3 n=40 v=80
261120 On ch=3 n=63 v=95
261120 On ch=3 n=58 v=95
261120 On ch=3 n=51 v=95
261600 Off ch=3 n=63 v=80
261600 Off ch=3 n=58 v=80
261600 Off ch=3 n=51 v=80
261600 On ch=3 n=63 v=63
261600 On ch=3 n=58 v=63
261600 On ch=3 n=51 v=63
262080 Off ch=3 n=63 v=80
262080 Off ch=3 n=58 v=80
262080 Off ch=3 n=51 v=80
262080 On ch=3 n=63 v=95
262080 On ch=3 n=58 v=95
262080 On ch=3 n=51 v=95
262560 Off ch=3 n=63 v=80
262560 Off ch=3 n=58 v=80
262560 Off ch=3 n=51 v=80
262560 On ch=3 n=55 v=95
262560 On ch=3 n=50 v=95
262560 On ch=3 n=45 v=95
262580 Off ch=3 n=55 v=80
262580 Off ch=3 n=50 v=80
262580 Off ch=3 n=45 v=80
262800 On ch=3 n=55 v=95
262800 On ch=3 n=50 v=95
262800 On ch=3 n=45 v=95
262820 Off ch=3 n=55 v=80
262820 Off ch=3 n=50 v=80
262820 Off ch=3 n=45 v=80
263040 On ch=3 n=58 v=95
263040 On ch=3 n=53 v=95
263040 On ch=3 n=46 v=95
263520 Off ch=3 n=58 v=80
263520 Off ch=3 n=53 v=80
263520 Off ch=3 n=46 v=80
263520 PrCh ch=3 p=29
263520 PrCh ch=4 p=29
263520 Par ch=3 c=7 v=104
263520 Par ch=4 c=7 v=104
263520 On ch=3 n=58 v=95
263520 On ch=3 n=53 v=95
263520 On ch=3 n=46 v=95
264000 Off ch=3 n=58 v=80
264000 Off ch=3 n=53 v=80
264000 Off ch=3 n=46 v=80
264000 On ch=3 n=58 v=95
264000 On ch=3 n=53 v=95
264000 On ch=3 n=46 v=95
264480 Off ch=3 n=58 v=80
264480 Off ch=3 n=53 v=80
264480 Off ch=3 n=46 v=80
264480 On ch=3 n=60 v=95
264480 On ch=3 n=55 v=95
264480 On ch=3 n=48 v=95
264960 Off ch=3 n=60 v=80
264960 Off ch=3 n=55 v=80
264960 Off ch=3 n=48 v=80
264960 On ch=3 n=61 v=95
264960 On ch=3 n=56 v=95
264960 On ch=3 n=49 v=95
265440 Off ch=3 n=61 v=80
265440 Off ch=3 n=56 v=80
265440 Off ch=3 n=49 v=80
265440 On ch=3 n=61 v=95
265440 On ch=3 n=56 v=95
265440 On ch=3 n=49 v=95
265920 Off ch=3 n=61 v=80
265920 Off ch=3 n=56 v=80
265920 Off ch=3 n=49 v=80
265920 On ch=3 n=61 v=95
265920 On ch=3 n=56 v=95
265920 On ch=3 n=49 v=95
266400 Off ch=3 n=61 v=80
266400 Off ch=3 n=56 v=80
266400 Off ch=3 n=49 v=80
266400 On ch=3 n=61 v=95
266400 On ch=3 n=56 v=95
266400 On ch=3 n=49 v=95
266640 Off ch=3 n=61 v=80
266640 Off ch=3 n=56 v=80
266640 Off ch=3 n=49 v=80
266640 On ch=3 n=61 v=95
266640 On ch=3 n=56 v=95
266640 On ch=3 n=49 v=95
266880 Off ch=3 n=61 v=80
266880 Off ch=3 n=56 v=80
266880 Off ch=3 n=49 v=80
266880 On ch=3 n=56 v=95
266880 On ch=3 n=51 v=95
266880 On ch=3 n=44 v=95
267360 Off ch=3 n=56 v=80
267360 Off ch=3 n=51 v=80
267360 Off ch=3 n=44 v=80
267360 On ch=3 n=56 v=95
267360 On ch=3 n=51 v=95
267360 On ch=3 n=44 v=95
267840 Off ch=3 n=56 v=80
267840 Off ch=3 n=51 v=80
267840 Off ch=3 n=44 v=80
267840 On ch=3 n=56 v=95
267840 On ch=3 n=51 v=95
267840 On ch=3 n=44 v=95
268320 Off ch=3 n=56 v=80
268320 Off ch=3 n=51 v=80
268320 Off ch=3 n=44 v=80
268320 On ch=3 n=56 v=95
268320 On ch=3 n=51 v=95
268320 On ch=3 n=44 v=95
268560 Off ch=3 n=56 v=80
268560 Off ch=3 n=51 v=80
268560 Off ch=3 n=44 v=80
268560 On ch=3 n=56 v=95
268560 On ch=3 n=51 v=95
268560 On ch=3 n=44 v=95
268800 Off ch=3 n=56 v=80
268800 Off ch=3 n=51 v=80
268800 Off ch=3 n=44 v=80
268800 On ch=3 n=63 v=95
268800 On ch=3 n=58 v=95
268800 On ch=3 n=51 v=95
269280 Off ch=3 n=63 v=80
269280 Off ch=3 n=58 v=80
269280 Off ch=3 n=51 v=80
269280 On ch=3 n=63 v=95
269280 On ch=3 n=58 v=95
269280 On ch=3 n=51 v=95
269760 Off ch=3 n=63 v=80
269760 Off ch=3 n=58 v=80
269760 Off ch=3 n=51 v=80
269760 On ch=3 n=63 v=95
269760 On ch=3 n=58 v=95
269760 On ch=3 n=51 v=95
270240 Off ch=3 n=63 v=80
270240 Off ch=3 n=58 v=80
270240 Off ch=3 n=51 v=80
270240 On ch=3 n=63 v=95
270240 On ch=3 n=58 v=95
270240 On ch=3 n=51 v=95
270480 Off ch=3 n=63 v=80
270480 Off ch=3 n=58 v=80
270480 Off ch=3 n=51 v=80
270480 On ch=3 n=63 v=95
270480 On ch=3 n=58 v=95
270480 On ch=3 n=51 v=95
270720 Off ch=3 n=63 v=80
270720 Off ch=3 n=58 v=80
270720 Off ch=3 n=51 v=80
270720 On ch=3 n=53 v=95
270720 On ch=3 n=48 v=95
270720 On ch=3 n=41 v=95
271200 Off ch=3 n=53 v=80
271200 Off ch=3 n=48 v=80
271200 Off ch=3 n=41 v=80
271200 On ch=3 n=53 v=95
271200 On ch=3 n=48 v=95
271200 On ch=3 n=41 v=95
271680 Off ch=3 n=53 v=80
271680 Off ch=3 n=48 v=80
271680 Off ch=3 n=41 v=80
271680 On ch=3 n=53 v=95
271680 On ch=3 n=48 v=95
271680 On ch=3 n=41 v=95
272160 Off ch=3 n=53 v=80
272160 Off ch=3 n=48 v=80
272160 Off ch=3 n=41 v=80
272160 On ch=3 n=53 v=95
272160 On ch=3 n=48 v=95
272160 On ch=3 n=41 v=95
272400 Off ch=3 n=53 v=80
272400 Off ch=3 n=48 v=80
272400 Off ch=3 n=41 v=80
272400 On ch=3 n=53 v=95
272400 On ch=3 n=48 v=95
272400 On ch=3 n=41 v=95
272640 Off ch=3 n=53 v=80
272640 Off ch=3 n=48 v=80
272640 Off ch=3 n=41 v=80
272640 On ch=3 n=61 v=95
272640 On ch=3 n=56 v=95
272640 On ch=3 n=49 v=95
273120 Off ch=3 n=61 v=80
273120 Off ch=3 n=56 v=80
273120 Off ch=3 n=49 v=80
273120 On ch=3 n=61 v=95
273120 On ch=3 n=56 v=95
273120 On ch=3 n=49 v=95
273600 Off ch=3 n=61 v=80
273600 Off ch=3 n=56 v=80
273600 Off ch=3 n=49 v=80
273600 On ch=3 n=61 v=95
273600 On ch=3 n=56 v=95
273600 On ch=3 n=49 v=95
274080 Off ch=3 n=61 v=80
274080 Off ch=3 n=56 v=80
274080 Off ch=3 n=49 v=80
274080 On ch=3 n=61 v=95
274080 On ch=3 n=56 v=95
274080 On ch=3 n=49 v=95
274320 Off ch=3 n=61 v=80
274320 Off ch=3 n=56 v=80
274320 Off ch=3 n=49 v=80
274320 On ch=3 n=61 v=95
274320 On ch=3 n=56 v=95
274320 On ch=3 n=49 v=95
274560 Off ch=3 n=61 v=80
274560 Off ch=3 n=56 v=80
274560 Off ch=3 n=49 v=80
274560 On ch=3 n=56 v=95
274560 On ch=3 n=51 v=95
274560 On ch=3 n=44 v=95
275040 Off ch=3 n=56 v=80
275040 Off ch=3 n=51 v=80
275040 Off ch=3 n=44 v=80
275040 On ch=3 n=56 v=95
275040 On ch=3 n=51 v=95
275040 On ch=3 n=44 v=95
275520 Off ch=3 n=56 v=80
275520 Off ch=3 n=51 v=80
275520 Off ch=3 n=44 v=80
275520 On ch=3 n=56 v=95
275520 On ch=3 n=51 v=95
275520 On ch=3 n=44 v=95
276000 Off ch=3 n=56 v=80
276000 Off ch=3 n=51 v=80
276000 Off ch=3 n=44 v=80
276000 On ch=3 n=56 v=95
276000 On ch=3 n=51 v=95
276000 On ch=3 n=44 v=95
276240 Off ch=3 n=56 v=80
276240 Off ch=3 n=51 v=80
276240 Off ch=3 n=44 v=80
276240 On ch=3 n=56 v=95
276240 On ch=3 n=51 v=95
276240 On ch=3 n=44 v=95
276480 Off ch=3 n=56 v=80
276480 Off ch=3 n=51 v=80
276480 Off ch=3 n=44 v=80
276480 On ch=3 n=63 v=95
276480 On ch=3 n=58 v=95
276480 On ch=3 n=51 v=95
276960 Off ch=3 n=63 v=80
276960 Off ch=3 n=58 v=80
276960 Off ch=3 n=51 v=80
276960 On ch=3 n=63 v=95
276960 On ch=3 n=58 v=95
276960 On ch=3 n=51 v=95
277440 Off ch=3 n=63 v=80
277440 Off ch=3 n=58 v=80
277440 Off ch=3 n=51 v=80
277440 On ch=3 n=63 v=95
277440 On ch=3 n=58 v=95
277440 On ch=3 n=51 v=95
277920 Off ch=3 n=63 v=80
277920 Off ch=3 n=58 v=80
277920 Off ch=3 n=51 v=80
277920 On ch=3 n=63 v=95
277920 On ch=3 n=58 v=95
277920 On ch=3 n=51 v=95
278160 Off ch=3 n=63 v=80
278160 Off ch=3 n=58 v=80
278160 Off ch=3 n=51 v=80
278160 On ch=3 n=63 v=95
278160 On ch=3 n=58 v=95
278160 On ch=3 n=51 v=95
278400 Off ch=3 n=63 v=80
278400 Off ch=3 n=58 v=80
278400 Off ch=3 n=51 v=80
278400 On ch=3 n=53 v=95
278400 On ch=3 n=48 v=95
278400 On ch=3 n=41 v=95
278880 Off ch=3 n=53 v=80
278880 Off ch=3 n=48 v=80
278880 Off ch=3 n=41 v=80
278880 On ch=3 n=53 v=95
278880 On ch=3 n=48 v=95
278880 On ch=3 n=41 v=95
279360 Off ch=3 n=53 v=80
279360 Off ch=3 n=48 v=80
279360 Off ch=3 n=41 v=80
279360 On ch=3 n=53 v=95
279360 On ch=3 n=48 v=95
279360 On ch=3 n=41 v=95
279840 Off ch=3 n=53 v=80
279840 Off ch=3 n=48 v=80
279840 Off ch=3 n=41 v=80
279840 On ch=3 n=53 v=95
279840 On ch=3 n=48 v=95
279840 On ch=3 n=41 v=95
280080 Off ch=3 n=53 v=80
280080 Off ch=3 n=48 v=80
280080 Off ch=3 n=41 v=80
280080 On ch=3 n=53 v=95
280080 On ch=3 n=48 v=95
280080 On ch=3 n=41 v=95
280320 Off ch=3 n=53 v=80
280320 Off ch=3 n=48 v=80
280320 Off ch=3 n=41 v=80
280320 On ch=3 n=61 v=95
280320 On ch=3 n=56 v=95
280320 On ch=3 n=49 v=95
280800 Off ch=3 n=61 v=80
280800 Off ch=3 n=56 v=80
280800 Off ch=3 n=49 v=80
280800 On ch=3 n=61 v=95
280800 On ch=3 n=56 v=95
280800 On ch=3 n=49 v=95
281280 Off ch=3 n=61 v=80
281280 Off ch=3 n=56 v=80
281280 Off ch=3 n=49 v=80
281280 On ch=3 n=61 v=95
281280 On ch=3 n=56 v=95
281280 On ch=3 n=49 v=95
281760 Off ch=3 n=61 v=80
281760 Off ch=3 n=56 v=80
281760 Off ch=3 n=49 v=80
281760 On ch=3 n=61 v=95
281760 On ch=3 n=56 v=95
281760 On ch=3 n=49 v=95
282000 Off ch=3 n=61 v=80
282000 Off ch=3 n=56 v=80
282000 Off ch=3 n=49 v=80
282000 On ch=3 n=61 v=95
282000 On ch=3 n=56 v=95
282000 On ch=3 n=49 v=95
282240 Off ch=3 n=61 v=80
282240 Off ch=3 n=56 v=80
282240 Off ch=3 n=49 v=80
282240 On ch=3 n=56 v=95
282240 On ch=3 n=51 v=95
282240 On ch=3 n=44 v=95
282720 Off ch=3 n=56 v=80
282720 Off ch=3 n=51 v=80
282720 Off ch=3 n=44 v=80
282720 On ch=3 n=56 v=95
282720 On ch=3 n=51 v=95
282720 On ch=3 n=44 v=95
283200 Off ch=3 n=56 v=80
283200 Off ch=3 n=51 v=80
283200 Off ch=3 n=44 v=80
283200 On ch=3 n=56 v=95
283200 On ch=3 n=51 v=95
283200 On ch=3 n=44 v=95
283680 Off ch=3 n=56 v=80
283680 Off ch=3 n=51 v=80
283680 Off ch=3 n=44 v=80
283680 On ch=3 n=56 v=95
283680 On ch=3 n=51 v=95
283680 On ch=3 n=44 v=95
283920 Off ch=3 n=56 v=80
283920 Off ch=3 n=51 v=80
283920 Off ch=3 n=44 v=80
283920 On ch=3 n=56 v=95
283920 On ch=3 n=51 v=95
283920 On ch=3 n=44 v=95
284160 Off ch=3 n=56 v=80
284160 Off ch=3 n=51 v=80
284160 Off ch=3 n=44 v=80
284160 On ch=3 n=63 v=95
284160 On ch=3 n=58 v=95
284160 On ch=3 n=51 v=95
284640 Off ch=3 n=63 v=80
284640 Off ch=3 n=58 v=80
284640 Off ch=3 n=51 v=80
284640 On ch=3 n=63 v=95
284640 On ch=3 n=58 v=95
284640 On ch=3 n=51 v=95
285120 Off ch=3 n=63 v=80
285120 Off ch=3 n=58 v=80
285120 Off ch=3 n=51 v=80
285120 On ch=3 n=63 v=95
285120 On ch=3 n=58 v=95
285120 On ch=3 n=51 v=95
285600 Off ch=3 n=63 v=80
285600 Off ch=3 n=58 v=80
285600 Off ch=3 n=51 v=80
285600 On ch=3 n=63 v=95
285600 On ch=3 n=58 v=95
285600 On ch=3 n=51 v=95
285840 Off ch=3 n=63 v=80
285840 Off ch=3 n=58 v=80
285840 Off ch=3 n=51 v=80
285840 On ch=3 n=63 v=95
285840 On ch=3 n=58 v=95
285840 On ch=3 n=51 v=95
286080 Off ch=3 n=63 v=80
286080 Off ch=3 n=58 v=80
286080 Off ch=3 n=51 v=80
286080 On ch=3 n=53 v=95
286080 On ch=3 n=48 v=95
286080 On ch=3 n=41 v=95
286560 Off ch=3 n=53 v=80
286560 Off ch=3 n=48 v=80
286560 Off ch=3 n=41 v=80
286560 On ch=3 n=53 v=95
286560 On ch=3 n=48 v=95
286560 On ch=3 n=41 v=95
287040 Off ch=3 n=53 v=80
287040 Off ch=3 n=48 v=80
287040 Off ch=3 n=41 v=80
287040 On ch=3 n=53 v=95
287040 On ch=3 n=48 v=95
287040 On ch=3 n=41 v=95
287520 Off ch=3 n=53 v=80
287520 Off ch=3 n=48 v=80
287520 Off ch=3 n=41 v=80
287520 On ch=3 n=53 v=95
287520 On ch=3 n=48 v=95
287520 On ch=3 n=41 v=95
287760 Off ch=3 n=53 v=80
287760 Off ch=3 n=48 v=80
287760 Off ch=3 n=41 v=80
287760 On ch=3 n=53 v=95
287760 On ch=3 n=48 v=95
287760 On ch=3 n=41 v=95
288000 Off ch=3 n=53 v=80
288000 Off ch=3 n=48 v=80
288000 Off ch=3 n=41 v=80
288000 On ch=3 n=61 v=95
288000 On ch=3 n=56 v=95
288000 On ch=3 n=49 v=95
288480 Off ch=3 n=61 v=80
288480 Off ch=3 n=56 v=80
288480 Off ch=3 n=49 v=80
288480 On ch=3 n=61 v=95
288480 On ch=3 n=56 v=95
288480 On ch=3 n=49 v=95
288960 Off ch=3 n=61 v=80
288960 Off ch=3 n=56 v=80
288960 Off ch=3 n=49 v=80
288960 On ch=3 n=61 v=95
288960 On ch=3 n=56 v=95
288960 On ch=3 n=49 v=95
289440 Off ch=3 n=61 v=80
289440 Off ch=3 n=56 v=80
289440 Off ch=3 n=49 v=80
289440 On ch=3 n=61 v=95
289440 On ch=3 n=56 v=95
289440 On ch=3 n=49 v=95
289680 Off ch=3 n=61 v=80
289680 Off ch=3 n=56 v=80
289680 Off ch=3 n=49 v=80
289680 On ch=3 n=61 v=95
289680 On ch=3 n=56 v=95
289680 On ch=3 n=49 v=95
289920 Off ch=3 n=61 v=80
289920 Off ch=3 n=56 v=80
289920 Off ch=3 n=49 v=80
289920 On ch=3 n=56 v=95
289920 On ch=3 n=51 v=95
289920 On ch=3 n=44 v=95
290400 Off ch=3 n=56 v=80
290400 Off ch=3 n=51 v=80
290400 Off ch=3 n=44 v=80
290400 On ch=3 n=56 v=95
290400 On ch=3 n=51 v=95
290400 On ch=3 n=44 v=95
290880 Off ch=3 n=56 v=80
290880 Off ch=3 n=51 v=80
290880 Off ch=3 n=44 v=80
290880 On ch=3 n=56 v=95
290880 On ch=3 n=51 v=95
290880 On ch=3 n=44 v=95
291360 Off ch=3 n=56 v=80
291360 Off ch=3 n=51 v=80
291360 Off ch=3 n=44 v=80
291360 On ch=3 n=56 v=95
291360 On ch=3 n=51 v=95
291360 On ch=3 n=44 v=95
291600 Off ch=3 n=56 v=80
291600 Off ch=3 n=51 v=80
291600 Off ch=3 n=44 v=80
291600 On ch=3 n=56 v=95
291600 On ch=3 n=51 v=95
291600 On ch=3 n=44 v=95
291840 Off ch=3 n=56 v=80
291840 Off ch=3 n=51 v=80
291840 Off ch=3 n=44 v=80
291840 On ch=3 n=60 v=95
291840 On ch=3 n=55 v=95
291840 On ch=3 n=48 v=95
292320 Off ch=3 n=60 v=80
292320 Off ch=3 n=55 v=80
292320 Off ch=3 n=48 v=80
292320 On ch=3 n=60 v=95
292320 On ch=3 n=55 v=95
292320 On ch=3 n=48 v=95
292800 Off ch=3 n=60 v=80
292800 Off ch=3 n=55 v=80
292800 Off ch=3 n=48 v=80
292800 On ch=3 n=60 v=95
292800 On ch=3 n=55 v=95
292800 On ch=3 n=48 v=95
293280 Off ch=3 n=60 v=80
293280 Off ch=3 n=55 v=80
293280 Off ch=3 n=48 v=80
293280 On ch=3 n=60 v=95
293280 On ch=3 n=55 v=95
293280 On ch=3 n=48 v=95
293760 Off ch=3 n=60 v=80
293760 Off ch=3 n=55 v=80
293760 Off ch=3 n=48 v=80
293760 On ch=3 n=60 v=95
293760 On ch=3 n=55 v=95
293760 On ch=3 n=48 v=95
294240 Off ch=3 n=60 v=80
294240 Off ch=3 n=55 v=80
294240 Off ch=3 n=48 v=80
294240 On ch=3 n=60 v=95
294240 On ch=3 n=55 v=95
294240 On ch=3 n=48 v=95
294720 Off ch=3 n=60 v=80
294720 Off ch=3 n=55 v=80
294720 Off ch=3 n=48 v=80
294720 On ch=3 n=60 v=95
294720 On ch=3 n=55 v=95
294720 On ch=3 n=48 v=95
295200 Off ch=3 n=60 v=80
295200 Off ch=3 n=55 v=80
295200 Off ch=3 n=48 v=80
295200 On ch=3 n=60 v=95
295200 On ch=3 n=55 v=95
295200 On ch=3 n=48 v=95
295680 Off ch=3 n=60 v=80
295680 Off ch=3 n=55 v=80
295680 Off ch=3 n=48 v=80
295680 On ch=3 n=60 v=95
295680 On ch=3 n=55 v=95
295680 On ch=3 n=48 v=95
296160 Off ch=3 n=60 v=80
296160 Off ch=3 n=55 v=80
296160 Off ch=3 n=48 v=80
296160 On ch=3 n=60 v=95
296160 On ch=3 n=55 v=95
296160 On ch=3 n=48 v=95
296640 Off ch=3 n=60 v=80
296640 Off ch=3 n=55 v=80
296640 Off ch=3 n=48 v=80
296640 On ch=3 n=60 v=95
296640 On ch=3 n=55 v=95
296640 On ch=3 n=48 v=95
297120 Off ch=3 n=60 v=80
297120 Off ch=3 n=55 v=80
297120 Off ch=3 n=48 v=80
297120 On ch=3 n=60 v=95
297120 On ch=3 n=55 v=95
297120 On ch=3 n=48 v=95
297600 Off ch=3 n=60 v=80
297600 Off ch=3 n=55 v=80
297600 Off ch=3 n=48 v=80
297600 On ch=3 n=60 v=95
297600 On ch=3 n=55 v=95
297600 On ch=3 n=48 v=95
298080 Off ch=3 n=60 v=80
298080 Off ch=3 n=55 v=80
298080 Off ch=3 n=48 v=80
298080 On ch=3 n=60 v=95
298080 On ch=3 n=55 v=95
298080 On ch=3 n=48 v=95
298560 Off ch=3 n=60 v=80
298560 Off ch=3 n=55 v=80
298560 Off ch=3 n=48 v=80
298560 On ch=3 n=60 v=95
298560 On ch=3 n=55 v=95
298560 On ch=3 n=48 v=95
299040 Off ch=3 n=60 v=80
299040 Off ch=3 n=55 v=80
299040 Off ch=3 n=48 v=80
299040 On ch=4 n=60 v=95
299040 On ch=4 n=55 v=95
299040 On ch=4 n=48 v=95
299280 Pb ch=4 v=7552
299340 Pb ch=4 v=6784
299400 Pb ch=4 v=6144
299424 Pb ch=4 v=8832
299424 Pb ch=4 v=8832
299460 Pb ch=4 v=5504
299520 Off ch=4 n=60 v=80
299520 Pb ch=4 v=8192
299520 Off ch=4 n=55 v=80
299520 Pb ch=4 v=8192
299520 Off ch=4 n=48 v=80
299520 Pb ch=4 v=8192
299520 PrCh ch=3 p=29
299520 PrCh ch=4 p=29
299520 Par ch=3 c=7 v=104
299520 Par ch=4 c=7 v=104
299520 On ch=3 n=48 v=86
299520 On ch=3 n=41 v=95
300480 Off ch=3 n=48 v=80
300480 Off ch=3 n=41 v=80
300480 On ch=3 n=48 v=95
300480 On ch=3 n=41 v=95
300960 Off ch=3 n=48 v=80
300960 Off ch=3 n=41 v=80
300960 On ch=3 n=48 v=95
300960 On ch=3 n=41 v=95
301440 Off ch=3 n=48 v=80
301440 Off ch=3 n=41 v=80
301440 On ch=3 n=56 v=86
301440 On ch=3 n=49 v=95
302400 Off ch=3 n=56 v=80
302400 Off ch=3 n=49 v=80
302400 On ch=3 n=56 v=95
302400 On ch=3 n=49 v=95
302880 Off ch=3 n=56 v=80
302880 Off ch=3 n=49 v=80
302880 On ch=3 n=56 v=95
302880 On ch=3 n=49 v=95
303360 Off ch=3 n=56 v=80
303360 Off ch=3 n=49 v=80
303360 On ch=3 n=58 v=95
303360 On ch=3 n=51 v=95
304320 Off ch=3 n=58 v=80
304320 Off ch=3 n=51 v=80
304320 On ch=3 n=58 v=95
304320 On ch=3 n=51 v=95
304800 Off ch=3 n=58 v=80
304800 Off ch=3 n=51 v=80
304800 On ch=3 n=58 v=95
304800 On ch=3 n=51 v=95
305280 Off ch=3 n=58 v=80
305280 Off ch=3 n=51 v=80
305280 On ch=3 n=57 v=95
305280 On ch=3 n=50 v=95
306240 Off ch=3 n=57 v=80
306240 Off ch=3 n=50 v=80
306240 On ch=3 n=57 v=95
306240 On ch=3 n=50 v=95
306720 Off ch=3 n=57 v=80
306720 Off ch=3 n=50 v=80
306720 On ch=3 n=57 v=95
306720 On ch=3 n=50 v=95
307200 Off ch=3 n=57 v=80
307200 Off ch=3 n=50 v=80
307200 On ch=3 n=51 v=95
307200 On ch=3 n=44 v=95
308160 Off ch=3 n=51 v=80
308160 Off ch=3 n=44 v=80
308160 On ch=3 n=51 v=95
308160 On ch=3 n=44 v=95
308640 Off ch=3 n=51 v=80
308640 Off ch=3 n=44 v=80
308640 On ch=3 n=51 v=95
308640 On ch=3 n=44 v=95
309120 Off ch=3 n=51 v=80
309120 Off ch=3 n=44 v=80
309120 On ch=3 n=47 v=95
309120 On ch=3 n=40 v=95
310080 Off ch=3 n=47 v=80
310080 Off ch=3 n=40 v=80
310080 On ch=3 n=47 v=95
310080 On ch=3 n=40 v=95
310560 Off ch=3 n=47 v=80
310560 Off ch=3 n=40 v=80
310560 On ch=3 n=47 v=95
310560 On ch=3 n=40 v=95
311040 Off ch=3 n=47 v=80
311040 Off ch=3 n=40 v=80
311040 PrCh ch=3 p=29
311040 PrCh ch=4 p=29
311040 Par ch=3 c=7 v=104
311040 Par ch=4 c=7 v=104
311040 On ch=3 n=48 v=95
311040 On ch=3 n=41 v=95
312000 Off ch=3 n=48 v=80
312000 Off ch=3 n=41 v=80
312000 On ch=3 n=48 v=95
312000 On ch=3 n=41 v=95
312480 Off ch=3 n=48 v=80
312480 Off ch=3 n=41 v=80
312480 On ch=3 n=48 v=95
312480 On ch=3 n=41 v=95
312960 Off ch=3 n=48 v=80
312960 Off ch=3 n=41 v=80
312960 On ch=3 n=56 v=95
312960 On ch=3 n=49 v=95
313920 Off ch=3 n=56 v=80
313920 Off ch=3 n=49 v=80
313920 On ch=3 n=56 v=95
313920 On ch=3 n=49 v=95
314400 Off ch=3 n=56 v=80
314400 Off ch=3 n=49 v=80
314400 On ch=3 n=56 v=95
314400 On ch=3 n=49 v=95
314880 Off ch=3 n=56 v=80
314880 Off ch=3 n=49 v=80
314880 On ch=3 n=58 v=95
314880 On ch=3 n=51 v=95
315840 Off ch=3 n=58 v=80
315840 Off ch=3 n=51 v=80
315840 On ch=3 n=58 v=95
315840 On ch=3 n=51 v=95
316320 Off ch=3 n=58 v=80
316320 Off ch=3 n=51 v=80
316320 On ch=3 n=58 v=95
316320 On ch=3 n=51 v=95
316800 Off ch=3 n=58 v=80
316800 Off ch=3 n=51 v=80
316800 On ch=3 n=57 v=95
316800 On ch=3 n=50 v=95
317760 Off ch=3 n=57 v=80
317760 Off ch=3 n=50 v=80
317760 On ch=3 n=57 v=95
317760 On ch=3 n=50 v=95
318240 Off ch=3 n=57 v=80
318240 Off ch=3 n=50 v=80
318240 On ch=3 n=57 v=95
318240 On ch=3 n=50 v=95
318720 Off ch=3 n=57 v=80
318720 Off ch=3 n=50 v=80
318720 On ch=3 n=51 v=95
318720 On ch=3 n=44 v=95
319680 Off ch=3 n=51 v=80
319680 Off ch=3 n=44 v=80
319680 On ch=3 n=51 v=95
319680 On ch=3 n=44 v=95
320160 Off ch=3 n=51 v=80
320160 Off ch=3 n=44 v=80
320160 On ch=3 n=51 v=95
320160 On ch=3 n=44 v=95
320640 Off ch=3 n=51 v=80
320640 Off ch=3 n=44 v=80
320640 On ch=3 n=47 v=95
320640 On ch=3 n=40 v=95
321600 Off ch=3 n=47 v=80
321600 Off ch=3 n=40 v=80
321600 On ch=3 n=47 v=95
321600 On ch=3 n=40 v=95
322080 Off ch=3 n=47 v=80
322080 Off ch=3 n=40 v=80
322080 On ch=3 n=47 v=95
322080 On ch=3 n=40 v=95
322560 Off ch=3 n=47 v=80
322560 Off ch=3 n=40 v=80
322560 PrCh ch=3 p=29
322560 PrCh ch=4 p=29
322560 Par ch=3 c=7 v=104
322560 Par ch=4 c=7 v=104
322560 On ch=3 n=48 v=95
322560 On ch=3 n=41 v=95
323520 Off ch=3 n=48 v=80
323520 Off ch=3 n=41 v=80
323520 On ch=3 n=48 v=95
323520 On ch=3 n=41 v=95
324000 Off ch=3 n=48 v=80
324000 Off ch=3 n=41 v=80
324000 On ch=3 n=48 v=95
324000 On ch=3 n=41 v=95
324480 Off ch=3 n=48 v=80
324480 Off ch=3 n=41 v=80
324480 On ch=3 n=56 v=95
324480 On ch=3 n=49 v=95
325440 Off ch=3 n=56 v=80
325440 Off ch=3 n=49 v=80
325440 On ch=3 n=56 v=95
325440 On ch=3 n=49 v=95
325920 Off ch=3 n=56 v=80
325920 Off ch=3 n=49 v=80
325920 On ch=3 n=56 v=95
325920 On ch=3 n=49 v=95
326400 Off ch=3 n=56 v=80
326400 Off ch=3 n=49 v=80
326400 On ch=3 n=58 v=95
326400 On ch=3 n=51 v=95
327360 Off ch=3 n=58 v=80
327360 Off ch=3 n=51 v=80
327360 On ch=3 n=58 v=95
327360 On ch=3 n=51 v=95
327840 Off ch=3 n=58 v=80
327840 Off ch=3 n=51 v=80
327840 On ch=3 n=58 v=95
327840 On ch=3 n=51 v=95
328320 Off ch=3 n=58 v=80
328320 Off ch=3 n=51 v=80
328320 On ch=3 n=57 v=95
328320 On ch=3 n=50 v=95
329280 Off ch=3 n=57 v=80
329280 Off ch=3 n=50 v=80
329280 On ch=3 n=57 v=95
329280 On ch=3 n=50 v=95
329760 Off ch=3 n=57 v=80
329760 Off ch=3 n=50 v=80
329760 On ch=3 n=57 v=95
329760 On ch=3 n=50 v=95
330240 Off ch=3 n=57 v=80
330240 Off ch=3 n=50 v=80
330240 On ch=3 n=51 v=95
330240 On ch=3 n=44 v=95
331200 Off ch=3 n=51 v=80
331200 Off ch=3 n=44 v=80
331200 On ch=3 n=51 v=95
331200 On ch=3 n=44 v=95
331680 Off ch=3 n=51 v=80
331680 Off ch=3 n=44 v=80
331680 On ch=3 n=51 v=95
331680 On ch=3 n=44 v=95
332160 Off ch=3 n=51 v=80
332160 Off ch=3 n=44 v=80
332160 On ch=3 n=47 v=95
332160 On ch=3 n=40 v=95
333120 Off ch=3 n=47 v=80
333120 Off ch=3 n=40 v=80
333120 On ch=3 n=47 v=95
333120 On ch=3 n=40 v=95
333600 Off ch=3 n=47 v=80
333600 Off ch=3 n=40 v=80
333600 On ch=3 n=47 v=95
333600 On ch=3 n=40 v=95
334080 Off ch=3 n=47 v=80
334080 Off ch=3 n=40 v=80
334080 PrCh ch=3 p=29
334080 PrCh ch=4 p=29
334080 Par ch=3 c=7 v=104
334080 Par ch=4 c=7 v=104
334080 On ch=3 n=48 v=95
334080 On ch=3 n=41 v=95
335040 Off ch=3 n=48 v=80
335040 Off ch=3 n=41 v=80
335040 On ch=3 n=48 v=95
335040 On ch=3 n=41 v=95
335520 Off ch=3 n=48 v=80
335520 Off ch=3 n=41 v=80
335520 On ch=3 n=48 v=95
335520 On ch=3 n=41 v=95
336000 Off ch=3 n=48 v=80
336000 Off ch=3 n=41 v=80
336000 On ch=3 n=56 v=95
336000 On ch=3 n=49 v=95
336960 Off ch=3 n=56 v=80
336960 Off ch=3 n=49 v=80
336960 On ch=3 n=56 v=95
336960 On ch=3 n=49 v=95
337440 Off ch=3 n=56 v=80
337440 Off ch=3 n=49 v=80
337440 On ch=3 n=56 v=95
337440 On ch=3 n=49 v=95
337920 Off ch=3 n=56 v=80
337920 Off ch=3 n=49 v=80
337920 On ch=3 n=58 v=95
337920 On ch=3 n=51 v=95
338880 Off ch=3 n=58 v=80
338880 Off ch=3 n=51 v=80
338880 On ch=3 n=58 v=95
338880 On ch=3 n=51 v=95
339360 Off ch=3 n=58 v=80
339360 Off ch=3 n=51 v=80
339360 On ch=3 n=58 v=95
339360 On ch=3 n=51 v=95
339840 Off ch=3 n=58 v=80
339840 Off ch=3 n=51 v=80
339840 On ch=3 n=57 v=95
339840 On ch=3 n=50 v=95
340800 Off ch=3 n=57 v=80
340800 Off ch=3 n=50 v=80
340800 On ch=3 n=57 v=95
340800 On ch=3 n=50 v=95
341280 Off ch=3 n=57 v=80
341280 Off ch=3 n=50 v=80
341280 On ch=3 n=57 v=95
341280 On ch=3 n=50 v=95
341760 Off ch=3 n=57 v=80
341760 Off ch=3 n=50 v=80
341760 PrCh ch=3 p=29
341760 PrCh ch=4 p=29
341760 Par ch=3 c=7 v=104
341760 Par ch=4 c=7 v=104
341760 On ch=3 n=51 v=95
341760 On ch=3 n=44 v=95
342240 Off ch=3 n=51 v=80
342240 Off ch=3 n=44 v=80
342240 On ch=3 n=51 v=95
342240 On ch=3 n=44 v=95
342720 Off ch=3 n=51 v=80
342720 Off ch=3 n=44 v=80
342720 On ch=3 n=47 v=95
342720 On ch=3 n=40 v=95
343200 Off ch=3 n=47 v=80
343200 Off ch=3 n=40 v=80
343200 On ch=3 n=47 v=95
343200 On ch=3 n=40 v=95
343680 Off ch=3 n=47 v=80
343680 Off ch=3 n=40 v=80
343680 Meta TrkEnd
TrkEnd
MTrk
0 Meta TrkName "Billie Joe Armstrong (Solo)"
0 Par ch=5 c=100 v=0
0 Par ch=5 c=101 v=0
0 Par ch=5 c=6 v=12
0 Pb ch=5 v=8192
0 Par ch=6 c=100 v=0
0 Par ch=6 c=101 v=0
0 Par ch=6 c=6 v=12
0 Pb ch=6 v=8192
0 PrCh ch=5 p=30
0 PrCh ch=6 p=30
0 Par ch=5 c=7 v=104
0 Par ch=6 c=7 v=104
0 Par ch=5 c=10 v=64
0 Par ch=6 c=10 v=64
0 Par ch=5 c=93 v=0
0 Par ch=6 c=93 v=0
0 Par ch=5 c=91 v=0
0 Par ch=6 c=91 v=0
0 Par ch=5 c=92 v=0
0 Par ch=6 c=92 v=0
0 Par ch=5 c=95 v=0
0 Par ch=6 c=95 v=0
30720 Par ch=5 c=93 v=127
30720 Par ch=6 c=93 v=127
30720 Par ch=5 c=91 v=127
30720 Par ch=6 c=91 v=127
30720 Par ch=5 c=95 v=127
30720 Par ch=6 c=95 v=127
30720 On ch=5 n=65 v=63
31680 Off ch=5 n=65 v=80
31680 On ch=6 n=67 v=95
32064 Pb ch=6 v=8832
32160 Off ch=6 n=67 v=80
32160 Pb ch=6 v=8192
32160 On ch=5 n=68 v=86
33600 Off ch=5 n=68 v=80
33600 On ch=6 n=72 v=95
33840 Pb ch=6 v=7552
34080 Off ch=6 n=72 v=80
34080 Pb ch=6 v=8192
34080 On ch=5 n=70 v=86
35520 Off ch=5 n=70 v=80
35520 On ch=6 n=67 v=95
35904 Pb ch=6 v=8832
36000 Off ch=6 n=67 v=80
36000 Pb ch=6 v=8192
36000 On ch=5 n=68 v=86
38400 Off ch=5 n=68 v=80
53760 Par ch=5 c=93 v=127
53760 Par ch=6 c=93 v=127
53760 Par ch=5 c=91 v=127
53760 Par ch=6 c=91 v=127
53760 Par ch=5 c=95 v=127
53760 Par ch=6 c=95 v=127
53760 On ch=5 n=65 v=63
54720 Off ch=5 n=65 v=80
54720 On ch=6 n=67 v=95
55104 Pb ch=6 v=8832
55200 Off ch=6 n=67 v=80
55200 Pb ch=6 v=8192
55200 On ch=5 n=68 v=86
56640 Off ch=5 n=68 v=80
56640 On ch=6 n=72 v=95
56880 Pb ch=6 v=7552
57120 Off ch=6 n=72 v=80
57120 Pb ch=6 v=8192
57120 On ch=5 n=70 v=86
58560 Off ch=5 n=70 v=80
58560 On ch=6 n=67 v=95
58944 Pb ch=6 v=8832
59040 Off ch=6 n=67 v=80
59040 Pb ch=6 v=8192
59040 On ch=5 n=68 v=86
61440 Off ch=5 n=68 v=80
61440 Par ch=5 c=93 v=127
61440 Par ch=6 c=93 v=127
61440 Par ch=5 c=91 v=127
61440 Par ch=6 c=91 v=127
61440 Par ch=5 c=95 v=127
61440 Par ch=6 c=95 v=127
61440 On ch=5 n=65 v=63
62400 Off ch=5 n=65 v=80
62400 On ch=6 n=67 v=95
62784 Pb ch=6 v=8832
62880 Off ch=6 n=67 v=80
62880 Pb ch=6 v=8192
62880 On ch=5 n=68 v=86
64320 Off ch=5 n=68 v=80
64320 On ch=6 n=72 v=95
64560 Pb ch=6 v=7552
64800 Off ch=6 n=72 v=80
64800 Pb ch=6 v=8192
64800 On ch=5 n=70 v=86
66240 Off ch=5 n=70 v=80
66240 On ch=6 n=67 v=95
66624 Pb ch=6 v=8832
66720 Off ch=6 n=67 v=80
66720 Pb ch=6 v=8192
66720 On ch=5 n=68 v=86
69120 Off ch=5 n=68 v=80
130560 Par ch=5 c=93 v=127
130560 Par ch=6 c=93 v=127
130560 Par ch=5 c=91 v=127
130560 Par ch=6 c=91 v=127
130560 On ch=5 n=65 v=63
131520 Off ch=5 n=65 v=80
131520 On ch=6 n=67 v=95
131904 Pb ch=6 v=8832
132000 Off ch=6 n=67 v=80
132000 Pb ch=6 v=8192
132000 On ch=5 n=68 v=86
133440 Off ch=5 n=68 v=80
133440 On ch=6 n=72 v=95
133680 Pb ch=6 v=7552
133920 Off ch=6 n=72 v=80
133920 Pb ch=6 v=8192
133920 On ch=5 n=70 v=86
135360 Off ch=5 n=70 v=80
135360 On ch=6 n=67 v=95
135744 Pb ch=6 v=8832
135840 Off ch=6 n=67 v=80
135840 Pb ch=6 v=8192
135840 On ch=5 n=68 v=86
138240 Off ch=5 n=68 v=80
153600 Par ch=5 c=93 v=127
153600 Par ch=6 c=93 v=127
153600 Par ch=5 c=91 v=127
153600 Par ch=6 c=91 v=127
153600 Par ch=5 c=95 v=127
153600 Par ch=6 c=95 v=127
153600 On ch=5 n=65 v=63
154560 Off ch=5 n=65 v=80
154560 On ch=6 n=67 v=95
154944 Pb ch=6 v=8832
155040 Off ch=6 n=67 v=80
155040 Pb ch=6 v=8192
155040 On ch=5 n=68 v=86
156480 Off ch=5 n=68 v=80
156480 On ch=6 n=72 v=95
156720 Pb ch=6 v=7552
156960 Off ch=6 n=72 v=80
156960 Pb ch=6 v=8192
156960 On ch=5 n=70 v=86
158400 Off ch=5 n=70 v=80
158400 On ch=6 n=67 v=95
158784 Pb ch=6 v=8832
158880 Off ch=6 n=67 v=80
158880 Pb ch=6 v=8192
158880 On ch=5 n=68 v=86
161280 Off ch=5 n=68 v=80
161280 Par ch=5 c=93 v=127
161280 Par ch=6 c=93 v=127
161280 Par ch=5 c=91 v=127
161280 Par ch=6 c=91 v=127
161280 Par ch=5 c=95 v=127
161280 Par ch=6 c=95 v=127
161280 On ch=5 n=65 v=63
162240 Off ch=5 n=65 v=80
162240 On ch=6 n=67 v=95
162624 Pb ch=6 v=8832
162720 Off ch=6 n=67 v=80
162720 Pb ch=6 v=8192
162720 On ch=5 n=68 v=86
164160 Off ch=5 n=68 v=80
164160 On ch=6 n=72 v=95
164400 Pb ch=6 v=7552
164640 Off ch=6 n=72 v=80
164640 Pb ch=6 v=8192
164640 On ch=5 n=70 v=86
166080 Off ch=5 n=70 v=80
166080 On ch=6 n=67 v=95
166464 Pb ch=6 v=8832
166560 Off ch=6 n=67 v=80
166560 Pb ch=6 v=8192
166560 On ch=5 n=68 v=86
168960 Off ch=5 n=68 v=80
215040 PrCh ch=5 p=30
215040 PrCh ch=6 p=30
215040 Par ch=5 c=7 v=112
215040 Par ch=6 c=7 v=112
215040 Par ch=5 c=93 v=127
215040 Par ch=6 c=93 v=127
215040 Par ch=5 c=91 v=127
215040 Par ch=6 c=91 v=127
215040 Par ch=5 c=95 v=48
215040 Par ch=6 c=95 v=48
215040 On ch=6 n=65 v=95
215120 Pb ch=6 v=8192
215200 Pb ch=6 v=8448
215280 Pb ch=6 v=8192
215360 Pb ch=6 v=8448
215440 Pb ch=6 v=8192
215520 Off ch=6 n=65 v=80
215520 Pb ch=6 v=8448
215520 Pb ch=6 v=8192
215520 On ch=6 n=65 v=95
215600 Pb ch=6 v=8192
215680 Pb ch=6 v=8448
215760 Pb ch=6 v=8192
215840 Pb ch=6 v=8448
215920 Pb ch=6 v=8192
216000 Off ch=6 n=65 v=80
216000 Pb ch=6 v=8448
216000 Pb ch=6 v=8192
216000 On ch=6 n=67 v=95
216384 Pb ch=6 v=8832
216480 Off ch=6 n=67 v=80
216480 Pb ch=6 v=8192
216480 On ch=6 n=68 v=86
216560 Pb ch=6 v=8192
216640 Pb ch=6 v=8448
216720 Pb ch=6 v=8192
216800 Pb ch=6 v=8448
216880 Pb ch=6 v=8192
216960 Pb ch=6 v=8448
217040 Pb ch=6 v=8192
217120 Pb ch=6 v=8448
217200 Pb ch=6 v=8192
217280 Pb ch=6 v=8448
217360 Pb ch=6 v=8192
217440 Pb ch=6 v=8448
217520 Pb ch=6 v=8192
217600 Pb ch=6 v=8448
217680 Pb ch=6 v=8192
217760 Pb ch=6 v=8448
217840 Pb ch=6 v=8192
217920 Off ch=6 n=68 v=80
217920 Pb ch=6 v=8448
217920 Pb ch=6 v=8192
217920 On ch=6 n=72 v=95
218160 Pb ch=6 v=7552
218400 Off ch=6 n=72 v=80
218400 Pb ch=6 v=8192
218400 On ch=6 n=70 v=86
218480 Pb ch=6 v=8192
218560 Pb ch=6 v=8448
218640 Pb ch=6 v=8192
218720 Pb ch=6 v=8448
218800 Pb ch=6 v=8192
218880 Pb ch=6 v=8448
218960 Pb ch=6 v=8192
219040 Pb ch=6 v=8448
219120 Pb ch=6 v=8192
219200 Pb ch=6 v=8448
219280 Pb ch=6 v=8192
219360 Pb ch=6 v=8448
219440 Pb ch=6 v=8192
219520 Pb ch=6 v=8448
219600 Pb ch=6 v=8192
219680 Pb ch=6 v=8448
219760 Pb ch=6 v=8192
219840 Off ch=6 n=70 v=80
219840 Pb ch=6 v=8448
219840 Pb ch=6 v=8192
219840 On ch=6 n=67 v=95
220224 Pb ch=6 v=8832
220320 Off ch=6 n=67 v=80
220320 Pb ch=6 v=8192
220320 On ch=6 n=68 v=86
220400 Pb ch=6 v=8192
220480 Pb ch=6 v=8448
220560 Pb ch=6 v=8192
220640 Pb ch=6 v=8448
220720 Pb ch=6 v=8192
220800 Pb ch=6 v=8448
220880 Pb ch=6 v=8192
220960 Pb ch=6 v=8448
221040 Pb ch=6 v=8192
221120 Pb ch=6 v=8448
221200 Pb ch=6 v=8192
221280 Off ch=6 n=68 v=80
221280 Pb ch=6 v=8448
221280 Pb ch=6 v=8192
221280 On ch=6 n=68 v=95
221360 Pb ch=6 v=8192
221440 Pb ch=6 v=8448
221520 Pb ch=6 v=8192
221600 Pb ch=6 v=8448
221680 Pb ch=6 v=8192
221760 Pb ch=6 v=8448
221840 Pb ch=6 v=8192
221920 Pb ch=6 v=8448
222000 Pb ch=6 v=8192
222080 Pb ch=6 v=8448
222160 Pb ch=6 v=8192
222240 Pb ch=6 v=8448
222320 Pb ch=6 v=8192
222400 Pb ch=6 v=8448
222480 Pb ch=6 v=8192
222560 Pb ch=6 v=8448
222640 Pb ch=6 v=8192
222720 Off ch=6 n=68 v=80
222720 Pb ch=6 v=8448
222720 Pb ch=6 v=8192
222720 On ch=6 n=65 v=95
222800 Pb ch=6 v=8192
222880 Pb ch=6 v=8448
222960 Pb ch=6 v=8192
223040 Pb ch=6 v=8448
223120 Pb ch=6 v=8192
223200 Off ch=6 n=65 v=80
223200 Pb ch=6 v=8448
223200 Pb ch=6 v=8192
223200 On ch=6 n=65 v=95
223280 Pb ch=6 v=8192
223360 Pb ch=6 v=8448
223440 Pb ch=6 v=8192
223520 Pb ch=6 v=8448
223600 Pb ch=6 v=8192
223680 Off ch=6 n=65 v=80
223680 Pb ch=6 v=8448
223680 Pb ch=6 v=8192
223680 On ch=6 n=67 v=95
224064 Pb ch=6 v=8832
224160 Off ch=6 n=67 v=80
224160 Pb ch=6 v=8192
224160 On ch=6 n=68 v=86
224240 Pb ch=6 v=8192
224320 Pb ch=6 v=8448
224400 Pb ch=6 v=8192
224480 Pb ch=6 v=8448
224560 Pb ch=6 v=8192
224640 Pb ch=6 v=8448
224720 Pb ch=6 v=8192
224800 Pb ch=6 v=8448
224880 Pb ch=6 v=8192
224960 Pb ch=6 v=8448
225040 Pb ch=6 v=8192
225120 Pb ch=6 v=8448
225200 Pb ch=6 v=8192
225280 Pb ch=6 v=8448
225360 Pb ch=6 v=8192
225440 Pb ch=6 v=8448
225520 Pb ch=6 v=8192
225600 Off ch=6 n=68 v=80
225600 Pb ch=6 v=8448
225600 Pb ch=6 v=8192
225600 On ch=6 n=72 v=95
225840 Pb ch=6 v=7552
226080 Off ch=6 n=72 v=80
226080 Pb ch=6 v=8192
226080 On ch=6 n=70 v=86
226160 Pb ch=6 v=8192
226240 Pb ch=6 v=8448
226320 Pb ch=6 v=8192
226400 Pb ch=6 v=8448
226480 Pb ch=6 v=8192
226560 Pb ch=6 v=8448
226640 Pb ch=6 v=8192
226720 Pb ch=6 v=8448
226800 Pb ch=6 v=8192
226880 Pb ch=6 v=8448
226960 Pb ch=6 v=8192
227040 Pb ch=6 v=8448
227120 Pb ch=6 v=8192
227200 Pb ch=6 v=8448
227280 Pb ch=6 v=8192
227360 Pb ch=6 v=8448
227440 Pb ch=6 v=8192
227520 Off ch=6 n=70 v=80
227520 Pb ch=6 v=8448
227520 Pb ch=6 v=8192
227520 On ch=6 n=67 v=95
227904 Pb ch=6 v=8832
228000 Off ch=6 n=67 v=80
228000 Pb ch=6 v=8192
228000 On ch=6 n=68 v=86
228080 Pb ch=6 v=8192
228160 Pb ch=6 v=8448
228240 Pb ch=6 v=8192
228320 Pb ch=6 v=8448
228400 Pb ch=6 v=8192
228480 Pb ch=6 v=8448
228560 Pb ch=6 v=8192
228640 Pb ch=6 v=8448
228720 Pb ch=6 v=8192
228800 Pb ch=6 v=8448
228880 Pb ch=6 v=8192
228960 Off ch=6 n=68 v=80
228960 Pb ch=6 v=8448
228960 Pb ch=6 v=8192
228960 On ch=6 n=68 v=95
229040 Pb ch=6 v=8192
229120 Pb ch=6 v=8448
229200 Pb ch=6 v=8192
229280 Pb ch=6 v=8448
229360 Pb ch=6 v=8192
229440 Pb ch=6 v=8448
229520 Pb ch=6 v=8192
229600 Pb ch=6 v=8448
229680 Pb ch=6 v=8192
229760 Pb ch=6 v=8448
229840 Pb ch=6 v=8192
229920 Pb ch=6 v=8448
230000 Pb ch=6 v=8192
230080 Pb ch=6 v=8448
230160 Pb ch=6 v=8192
230240 Pb ch=6 v=8448
230320 Pb ch=6 v=8192
230400 Off ch=6 n=68 v=80
230400 Pb ch=6 v=8448
230400 Pb ch=6 v=8192
230400 On ch=6 n=65 v=95
230480 Pb ch=6 v=8192
230560 Pb ch=6 v=8448
230640 Pb ch=6 v=8192
230720 Pb ch=6 v=8448
230800 Pb ch=6 v=8192
230880 Off ch=6 n=65 v=80
230880 Pb ch=6 v=8448
230880 Pb ch=6 v=8192
230880 On ch=6 n=65 v=95
230960 Pb ch=6 v=8192
231040 Pb ch=6 v=8448
231120 Pb ch=6 v=8192
231200 Pb ch=6 v=8448
231280 Pb ch=6 v=8192
231360 Off ch=6 n=65 v=80
231360 Pb ch=6 v=8448
231360 Pb ch=6 v=8192
231360 On ch=6 n=67 v=95
231744 Pb ch=6 v=8832
231840 Off ch=6 n=67 v=80
231840 Pb ch=6 v=8192
231840 On ch=6 n=68 v=86
231920 Pb ch=6 v=8192
232000 Pb ch=6 v=8448
232080 Pb ch=6 v=8192
232160 Pb ch=6 v=8448
232240 Pb ch=6 v=8192
232320 Pb ch=6 v=8448
232400 Pb ch=6 v=8192
232480 Pb ch=6 v=8448
232560 Pb ch=6 v=8192
232640 Pb ch=6 v=8448
232720 Pb ch=6 v=8192
232800 Pb ch=6 v=8448
232880 Pb ch=6 v=8192
232960 Pb ch=6 v=8448
233040 Pb ch=6 v=8192
233120 Pb ch=6 v=8448
233200 Pb ch=6 v=8192
233280 Off ch=6 n=68 v=80
233280 Pb ch=6 v=8448
233280 Pb ch=6 v=8192
233280 On ch=6 n=72 v=95
233520 Pb ch=6 v=7552
233760 Off ch=6 n=72 v=80
233760 Pb ch=6 v=8192
233760 On ch=6 n=70 v=86
233840 Pb ch=6 v=8192
233920 Pb ch=6 v=8448
234000 Pb ch=6 v=8192
234080 Pb ch=6 v=8448
234160 Pb ch=6 v=8192
234240 Pb ch=6 v=8448
234320 Pb ch=6 v=8192
234400 Pb ch=6 v=8448
234480 Pb ch=6 v=8192
234560 Pb ch=6 v=8448
234640 Pb ch=6 v=8192
234720 Pb ch=6 v=8448
234800 Pb ch=6 v=8192
234880 Pb ch=6 v=8448
234960 Pb ch=6 v=8192
235040 Pb ch=6 v=8448
235120 Pb ch=6 v=8192
235200 Off ch=6 n=70 v=80
235200 Pb ch=6 v=8448
235200 Pb ch=6 v=8192
235200 On ch=6 n=67 v=95
235584 Pb ch=6 v=8832
235680 Off ch=6 n=67 v=80
235680 Pb ch=6 v=8192
235680 On ch=6 n=68 v=86
235760 Pb ch=6 v=8192
235840 Pb ch=6 v=8448
235920 Pb ch=6 v=8192
236000 Pb ch=6 v=8448
236080 Pb ch=6 v=8192
236160 Pb ch=6 v=8448
236240 Pb ch=6 v=8192
236320 Pb ch=6 v=8448
236400 Pb ch=6 v=8192
236480 Pb ch=6 v=8448
236560 Pb ch=6 v=8192
236640 Off ch=6 n=68 v=80
236640 Pb ch=6 v=8448
236640 Pb ch=6 v=8192
236640 On ch=6 n=68 v=95
236720 Pb ch=6 v=8192
236800 Pb ch=6 v=8448
236880 Pb ch=6 v=8192
236960 Pb ch=6 v=8448
237040 Pb ch=6 v=8192
237120 Pb ch=6 v=8448
237200 Pb ch=6 v=8192
237280 Pb ch=6 v=8448
237360 Pb ch=6 v=8192
237440 Pb ch=6 v=8448
237520 Pb ch=6 v=8192
237600 Pb ch=6 v=8448
237680 Pb ch=6 v=8192
237760 Pb ch=6 v=8448
237840 Pb ch=6 v=8192
237920 Pb ch=6 v=8448
238000 Pb ch=6 v=8192
238080 Off ch=6 n=68 v=80
238080 Pb ch=6 v=8448
238080 Pb ch=6 v=8192
238080 On ch=6 n=65 v=95
238160 Pb ch=6 v=8192
238240 Pb ch=6 v=8448
238320 Pb ch=6 v=8192
238400 Pb ch=6 v=8448
238480 Pb ch=6 v=8192
238560 Off ch=6 n=65 v=80
238560 Pb ch=6 v=8448
238560 Pb ch=6 v=8192
238560 On ch=6 n=65 v=95
238640 Pb ch=6 v=8192
238720 Pb ch=6 v=8448
238800 Pb ch=6 v=8192
238880 Pb ch=6 v=8448
238960 Pb ch=6 v=8192
239040 Off ch=6 n=65 v=80
239040 Pb ch=6 v=8448
239040 Pb ch=6 v=8192
239040 On ch=6 n=67 v=95
239424 Pb ch=6 v=8832
239520 Off ch=6 n=67 v=80
239520 Pb ch=6 v=8192
239520 On ch=6 n=68 v=86
239600 Pb ch=6 v=8192
239680 Pb ch=6 v=8448
239760 Pb ch=6 v=8192
239840 Pb ch=6 v=8448
239920 Pb ch=6 v=8192
240000 Pb ch=6 v=8448
240080 Pb ch=6 v=8192
240160 Pb ch=6 v=8448
240240 Pb ch=6 v=8192
240320 Pb ch=6 v=8448
240400 Pb ch=6 v=8192
240480 Pb ch=6 v=8448
240560 Pb ch=6 v=8192
240640 Pb ch=6 v=8448
240720 Pb ch=6 v=8192
240800 Pb ch=6 v=8448
240880 Pb ch=6 v=8192
240960 Off ch=6 n=68 v=80
240960 Pb ch=6 v=8448
240960 Pb ch=6 v=8192
240960 On ch=6 n=72 v=95
241200 Pb ch=6 v=7552
241440 Off ch=6 n=72 v=80
241440 Pb ch=6 v=8192
241440 On ch=6 n=70 v=86
241520 Pb ch=6 v=8192
241600 Pb ch=6 v=8448
241680 Pb ch=6 v=8192
241760 Pb ch=6 v=8448
241840 Pb ch=6 v=8192
241920 Off ch=6 n=70 v=80
241920 Pb ch=6 v=8448
241920 Pb ch=6 v=8192
241920 On ch=6 n=72 v=95
242000 Pb ch=6 v=8192
242080 Pb ch=6 v=8448
242160 Pb ch=6 v=8192
242240 Pb ch=6 v=8448
242320 Pb ch=6 v=8192
242400 Off ch=6 n=72 v=80
242400 Pb ch=6 v=8448
242400 Pb ch=6 v=8192
242400 On ch=6 n=72 v=95
242480 Pb ch=6 v=8192
242560 Pb ch=6 v=8448
242640 Pb ch=6 v=8192
242720 Pb ch=6 v=8448
242800 Pb ch=6 v=8192
242880 Off ch=6 n=72 v=80
242880 Pb ch=6 v=8448
242880 Pb ch=6 v=8192
242880 On ch=6 n=72 v=95
242960 Pb ch=6 v=8192
243040 Pb ch=6 v=8448
243120 Pb ch=6 v=8192
243200 Pb ch=6 v=8448
243280 Pb ch=6 v=8192
243360 Off ch=6 n=72 v=80
243360 Pb ch=6 v=8448
243360 Pb ch=6 v=8192
243360 On ch=6 n=72 v=95
243440 Pb ch=6 v=8192
243520 Pb ch=6 v=8448
243600 Pb ch=6 v=8192
243680 Pb ch=6 v=8448
243760 Pb ch=6 v=8192
243840 Off ch=6 n=72 v=80
243840 Pb ch=6 v=8448
243840 Pb ch=6 v=8192
243840 On ch=6 n=72 v=95
243920 Pb ch=6 v=8192
244000 Pb ch=6 v=8448
244080 Pb ch=6 v=8192
244160 Pb ch=6 v=8448
244240 Pb ch=6 v=8192
244320 Off ch=6 n=72 v=80
244320 Pb ch=6 v=8448
244320 Pb ch=6 v=8192
244320 On ch=6 n=72 v=95
244400 Pb ch=6 v=8192
244480 Pb ch=6 v=8448
244560 Pb ch=6 v=8192
244640 Pb ch=6 v=8448
244720 Pb ch=6 v=8192
244800 Off ch=6 n=72 v=80
244800 Pb ch=6 v=8448
244800 Pb ch=6 v=8192
244800 On ch=6 n=72 v=95
244880 Pb ch=6 v=8192
244960 Pb ch=6 v=8448
245040 Pb ch=6 v=8192
245120 Pb ch=6 v=8448
245200 Pb ch=6 v=8192
245280 Off ch=6 n=72 v=80
245280 Pb ch=6 v=8448
245280 Pb ch=6 v=8192
245280 On ch=6 n=72 v=95
245360 Pb ch=6 v=8192
245440 Pb ch=6 v=8448
245520 Pb ch=6 v=8192
245600 Pb ch=6 v=8448
245680 Pb ch=6 v=8192
245760 Off ch=6 n=72 v=80
245760 Pb ch=6 v=8448
245760 Pb ch=6 v=8192
245760 On ch=6 n=72 v=95
245840 Pb ch=6 v=8192
245920 Pb ch=6 v=8448
246000 Pb ch=6 v=8192
246080 Pb ch=6 v=8448
246160 Pb ch=6 v=8192
246240 Off ch=6 n=72 v=80
246240 Pb ch=6 v=8448
246240 Pb ch=6 v=8192
246240 On ch=6 n=72 v=95
246320 Pb ch=6 v=8192
246400 Pb ch=6 v=8448
246480 Pb ch=6 v=8192
246560 Pb ch=6 v=8448
246640 Pb ch=6 v=8192
246720 Off ch=6 n=72 v=80
246720 Pb ch=6 v=8448
246720 Pb ch=6 v=8192
246720 On ch=6 n=72 v=95
246800 Pb ch=6 v=8192
246880 Pb ch=6 v=8448
246960 Pb ch=6 v=8192
247040 Pb ch=6 v=8448
247120 Pb ch=6 v=8192
247200 Off ch=6 n=72 v=80
247200 Pb ch=6 v=8448
247200 Pb ch=6 v=8192
247200 On ch=6 n=72 v=95
247280 Pb ch=6 v=8192
247360 Pb ch=6 v=8448
247440 Pb ch=6 v=8192
247520 Pb ch=6 v=8448
247600 Pb ch=6 v=8192
247680 Off ch=6 n=72 v=80
247680 Pb ch=6 v=8448
247680 Pb ch=6 v=8192
247680 On ch=6 n=72 v=95
247760 Pb ch=6 v=8192
247840 Pb ch=6 v=8448
247920 Pb ch=6 v=8192
248000 Pb ch=6 v=8448
248080 Pb ch=6 v=8192
248160 Off ch=6 n=72 v=80
248160 Pb ch=6 v=8448
248160 Pb ch=6 v=8192
280320 Par ch=5 c=7 v=80
280320 Par ch=6 c=7 v=80
280320 Par ch=5 c=93 v=127
280320 Par ch=6 c=93 v=127
280320 Par ch=5 c=91 v=127
280320 Par ch=6 c=91 v=127
280320 Par ch=5 c=95 v=127
280320 Par ch=6 c=95 v=127
280320 On ch=5 n=65 v=63
280320 On ch=6 n=61 v=95
280320 On ch=6 n=49 v=95
280800 Pb ch=6 v=7552
280800 Pb ch=6 v=7552
280848 Pb ch=6 v=6784
280896 Pb ch=6 v=6144
280944 Pb ch=6 v=5504
280960 Pb ch=6 v=6784
280992 Pb ch=6 v=4736
281040 Pb ch=6 v=4096
281088 Pb ch=6 v=3456
281120 Pb ch=6 v=6144
281136 Pb ch=6 v=2688
281184 Pb ch=6 v=2048
281232 Pb ch=6 v=1408
281280 Off ch=5 n=65 v=80
281280 Off ch=6 n=61 v=80
281280 Pb ch=6 v=8192
281280 Off ch=6 n=49 v=80
281280 Pb ch=6 v=8192
281280 On ch=6 n=67 v=95
281664 Pb ch=6 v=8832
281760 Off ch=6 n=67 v=80
281760 Pb ch=6 v=8192
281760 On ch=5 n=68 v=86
283200 Off ch=5 n=68 v=80
283200 On ch=6 n=72 v=95
283440 Pb ch=6 v=7552
283680 Off ch=6 n=72 v=80
283680 Pb ch=6 v=8192
283680 On ch=5 n=70 v=86
285120 Off ch=5 n=70 v=80
285120 On ch=6 n=67 v=95
285504 Pb ch=6 v=8832
285600 Off ch=6 n=67 v=80
285600 Pb ch=6 v=8192
285600 On ch=5 n=68 v=86
288000 Off ch=5 n=68 v=80
288000 Par ch=5 c=93 v=127
288000 Par ch=6 c=93 v=127
288000 Par ch=5 c=91 v=127
288000 Par ch=6 c=91 v=127
288000 Par ch=5 c=95 v=127
288000 Par ch=6 c=95 v=127
288000 On ch=5 n=65 v=63
288960 Off ch=5 n=65 v=80
288960 On ch=6 n=67 v=95
289344 Pb ch=6 v=8832
289440 Off ch=6 n=67 v=80
289440 Pb ch=6 v=8192
289440 On ch=5 n=68 v=86
290880 Off ch=5 n=68 v=80
290880 On ch=6 n=72 v=95
291120 Pb ch=6 v=7552
291360 Off ch=6 n=72 v=80
291360 Pb ch=6 v=8192
291360 On ch=5 n=70 v=86
291840 Off ch=5 n=70 v=80
291840 On ch=5 n=72 v=95
292320 Off ch=5 n=72 v=80
292320 On ch=5 n=72 v=95
292800 Off ch=5 n=72 v=80
292800 On ch=5 n=72 v=95
293280 Off ch=5 n=72 v=80
293280 On ch=5 n=72 v=95
293760 Off ch=5 n=72 v=80
293760 On ch=5 n=72 v=95
294240 Off ch=5 n=72 v=80
294240 On ch=5 n=72 v=95
294720 Off ch=5 n=72 v=80
294720 On ch=5 n=72 v=95
295200 Off ch=5 n=72 v=80
295200 On ch=5 n=72 v=95
295680 Off ch=5 n=72 v=80
295680 On ch=5 n=72 v=95
296160 Off ch=5 n=72 v=80
296160 On ch=5 n=72 v=95
296640 Off ch=5 n=72 v=80
296640 On ch=5 n=72 v=95
297120 Off ch=5 n=72 v=80
297120 On ch=5 n=72 v=95
297600 Off ch=5 n=72 v=80
297600 On ch=5 n=72 v=95
298080 Off ch=5 n=72 v=80
298080 On ch=5 n=72 v=95
298560 Off ch=5 n=72 v=80
298560 On ch=5 n=72 v=95
299040 Off ch=5 n=72 v=80
299040 On ch=5 n=72 v=95
299520 Off ch=5 n=72 v=80
299520 Meta TrkEnd
TrkEnd
MTrk
0 Meta TrkName "Piano"
0 Par ch=7 c=100 v=0
0 Par ch=7 c=101 v=0
0 Par ch=7 c=6 v=12
0 Pb ch=7 v=8192
0 Par ch=8 c=100 v=0
0 Par ch=8 c=101 v=0
0 Par ch=8 c=6 v=12
0 Pb ch=8 v=8192
0 PrCh ch=7 p=2
0 PrCh ch=8 p=2
0 Par ch=7 c=7 v=72
0 Par ch=8 c=7 v=72
0 Par ch=7 c=10 v=64
0 Par ch=8 c=10 v=64
0 Par ch=7 c=93 v=0
0 Par ch=8 c=93 v=0
0 Par ch=7 c=91 v=0
0 Par ch=8 c=91 v=0
0 Par ch=7 c=92 v=0
0 Par ch=8 c=92 v=0
0 Par ch=7 c=95 v=0
0 Par ch=8 c=95 v=0
23040 On ch=7 n=53 v=95
23040 On ch=7 n=48 v=95
23040 On ch=7 n=41 v=95
24000 Off ch=7 n=53 v=80
24000 Off ch=7 n=48 v=80
24000 Off ch=7 n=41 v=80
24000 On ch=7 n=53 v=95
24000 On ch=7 n=48 v=95
24000 On ch=7 n=41 v=95
24960 Off ch=7 n=53 v=80
24960 Off ch=7 n=48 v=80
24960 Off ch=7 n=41 v=80
24960 On ch=7 n=56 v=95
24960 On ch=7 n=51 v=95
24960 On ch=7 n=44 v=95
25920 Off ch=7 n=56 v=80
25920 Off ch=7 n=51 v=80
25920 Off ch=7 n=44 v=80
25920 On ch=7 n=56 v=95
25920 On ch=7 n=51 v=95
25920 On ch=7 n=44 v=95
26880 Off ch=7 n=56 v=80
26880 Off ch=7 n=51 v=80
26880 Off ch=7 n=44 v=80
26880 On ch=7 n=63 v=95
26880 On ch=7 n=58 v=95
26880 On ch=7 n=51 v=95
27840 Off ch=7 n=63 v=80
27840 Off ch=7 n=58 v=80
27840 Off ch=7 n=51 v=80
27840 On ch=7 n=63 v=95
27840 On ch=7 n=58 v=95
27840 On ch=7 n=51 v=95
28800 Off ch=7 n=63 v=80
28800 Off ch=7 n=58 v=80
28800 Off ch=7 n=51 v=80
28800 On ch=7 n=58 v=95
28800 On ch=7 n=53 v=95
28800 On ch=7 n=46 v=95
29760 Off ch=7 n=58 v=80
29760 Off ch=7 n=53 v=80
29760 Off ch=7 n=46 v=80
29760 On ch=7 n=58 v=95
29760 On ch=7 n=53 v=95
29760 On ch=7 n=46 v=95
30720 Off ch=7 n=58 v=80
30720 Off ch=7 n=53 v=80
30720 Off ch=7 n=46 v=80
30720 On ch=7 n=53 v=95
30720 On ch=7 n=48 v=95
30720 On ch=7 n=41 v=95
31680 Off ch=7 n=53 v=80
31680 Off ch=7 n=48 v=80
31680 Off ch=7 n=41 v=80
31680 On ch=7 n=53 v=95
31680 On ch=7 n=48 v=95
31680 On ch=7 n=41 v=95
32640 Off ch=7 n=53 v=80
32640 Off ch=7 n=48 v=80
32640 Off ch=7 n=41 v=80
32640 On ch=7 n=56 v=95
32640 On ch=7 n=51 v=95
32640 On ch=7 n=44 v=95
33600 Off ch=7 n=56 v=80
33600 Off ch=7 n=51 v=80
33600 Off ch=7 n=44 v=80
33600 On ch=7 n=56 v=95
33600 On ch=7 n=51 v=95
33600 On ch=7 n=44 v=95
34560 Off ch=7 n=56 v=80
34560 Off ch=7 n=51 v=80
34560 Off ch=7 n=44 v=80
34560 On ch=7 n=63 v=95
34560 On ch=7 n=58 v=95
34560 On ch=7 n=51 v=95
35520 Off ch=7 n=63 v=80
35520 Off ch=7 n=58 v=80
35520 Off ch=7 n=51 v=80
35520 On ch=7 n=63 v=95
35520 On ch=7 n=58 v=95
35520 On ch=7 n=51 v=95
36480 Off ch=7 n=63 v=80
36480 Off ch=7 n=58 v=80
36480 Off ch=7 n=51 v=80
36480 On ch=7 n=58 v=95
36480 On ch=7 n=53 v=95
36480 On ch=7 n=46 v=95
37440 Off ch=7 n=58 v=80
37440 Off ch=7 n=53 v=80
37440 Off ch=7 n=46 v=80
37440 On ch=7 n=58 v=95
37440 On ch=7 n=53 v=95
37440 On ch=7 n=46 v=95
38400 Off ch=7 n=58 v=80
38400 Off ch=7 n=53 v=80
38400 Off ch=7 n=46 v=80
38400 On ch=7 n=53 v=95
38400 On ch=7 n=48 v=95
38400 On ch=7 n=41 v=95
39360 Off ch=7 n=53 v=80
39360 Off ch=7 n=48 v=80
39360 Off ch=7 n=41 v=80
39360 On ch=7 n=53 v=95
39360 On ch=7 n=48 v=95
39360 On ch=7 n=41 v=95
40320 Off ch=7 n=53 v=80
40320 Off ch=7 n=48 v=80
40320 Off ch=7 n=41 v=80
40320 On ch=7 n=56 v=95
40320 On ch=7 n=51 v=95
40320 On ch=7 n=44 v=95
41280 Off ch=7 n=56 v=80
41280 Off ch=7 n=51 v=80
41280 Off ch=7 n=44 v=80
41280 On ch=7 n=56 v=95
41280 On ch=7 n=51 v=95
41280 On ch=7 n=44 v=95
42240 Off ch=7 n=56 v=80
42240 Off ch=7 n=51 v=80
42240 Off ch=7 n=44 v=80
42240 On ch=7 n=63 v=95
42240 On ch=7 n=58 v=95
42240 On ch=7 n=51 v=95
43200 Off ch=7 n=63 v=80
43200 Off ch=7 n=58 v=80
43200 Off ch=7 n=51 v=80
43200 On ch=7 n=63 v=95
43200 On ch=7 n=58 v=95
43200 On ch=7 n=51 v=95
44160 Off ch=7 n=63 v=80
44160 Off ch=7 n=58 v=80
44160 Off ch=7 n=51 v=80
44160 On ch=7 n=58 v=95
44160 On ch=7 n=53 v=95
44160 On ch=7 n=46 v=95
45120 Off ch=7 n=58 v=80
45120 Off ch=7 n=53 v=80
45120 Off ch=7 n=46 v=80
45120 On ch=7 n=58 v=95
45120 On ch=7 n=53 v=95
45120 On ch=7 n=46 v=95
46080 Off ch=7 n=58 v=80
46080 Off ch=7 n=53 v=80
46080 Off ch=7 n=46 v=80
46080 On ch=7 n=53 v=95
46080 On ch=7 n=48 v=95
46080 On ch=7 n=41 v=95
47040 Off ch=7 n=53 v=80
47040 Off ch=7 n=48 v=80
47040 Off ch=7 n=41 v=80
47040 On ch=7 n=53 v=95
47040 On ch=7 n=48 v=95
47040 On ch=7 n=41 v=95
48000 Off ch=7 n=53 v=80
48000 Off ch=7 n=48 v=80
48000 Off ch=7 n=41 v=80
48000 On ch=7 n=56 v=95
48000 On ch=7 n=51 v=95
48000 On ch=7 n=44 v=95
48960 Off ch=7 n=56 v=80
48960 Off ch=7 n=51 v=80
48960 Off ch=7 n=44 v=80
48960 On ch=7 n=56 v=95
48960 On ch=7 n=51 v=95
48960 On ch=7 n=44 v=95
49920 Off ch=7 n=56 v=80
49920 Off ch=7 n=51 v=80
49920 Off ch=7 n=44 v=80
49920 On ch=7 n=63 v=95
49920 On ch=7 n=58 v=95
49920 On ch=7 n=51 v=95
50880 Off ch=7 n=63 v=80
50880 Off ch=7 n=58 v=80
50880 Off ch=7 n=51 v=80
50880 On ch=7 n=63 v=95
50880 On ch=7 n=58 v=95
50880 On ch=7 n=51 v=95
51840 Off ch=7 n=63 v=80
51840 Off ch=7 n=58 v=80
51840 Off ch=7 n=51 v=80
51840 On ch=7 n=58 v=95
51840 On ch=7 n=53 v=95
51840 On ch=7 n=46 v=95
52800 Off ch=7 n=58 v=80
52800 Off ch=7 n=53 v=80
52800 Off ch=7 n=46 v=80
52800 On ch=7 n=58 v=95
52800 On ch=7 n=53 v=95
52800 On ch=7 n=46 v=95
53760 Off ch=7 n=58 v=80
53760 Off ch=7 n=53 v=80
53760 Off ch=7 n=46 v=80
53760 On ch=7 n=53 v=95
53760 On ch=7 n=48 v=95
53760 On ch=7 n=41 v=95
54720 Off ch=7 n=53 v=80
54720 Off ch=7 n=48 v=80
54720 Off ch=7 n=41 v=80
54720 On ch=7 n=53 v=95
54720 On ch=7 n=48 v=95
54720 On ch=7 n=41 v=95
55680 Off ch=7 n=53 v=80
55680 Off ch=7 n=48 v=80
55680 Off ch=7 n=41 v=80
55680 On ch=7 n=56 v=95
55680 On ch=7 n=51 v=95
55680 On ch=7 n=44 v=95
56640 Off ch=7 n=56 v=80
56640 Off ch=7 n=51 v=80
56640 Off ch=7 n=44 v=80
56640 On ch=7 n=56 v=95
56640 On ch=7 n=51 v=95
56640 On ch=7 n=44 v=95
57600 Off ch=7 n=56 v=80
57600 Off ch=7 n=51 v=80
57600 Off ch=7 n=44 v=80
57600 On ch=7 n=63 v=95
57600 On ch=7 n=58 v=95
57600 On ch=7 n=51 v=95
58560 Off ch=7 n=63 v=80
58560 Off ch=7 n=58 v=80
58560 Off ch=7 n=51 v=80
58560 On ch=7 n=63 v=95
58560 On ch=7 n=58 v=95
58560 On ch=7 n=51 v=95
59520 Off ch=7 n=63 v=80
59520 Off ch=7 n=58 v=80
59520 Off ch=7 n=51 v=80
59520 On ch=7 n=58 v=95
59520 On ch=7 n=53 v=95
59520 On ch=7 n=46 v=95
60480 Off ch=7 n=58 v=80
60480 Off ch=7 n=53 v=80
60480 Off ch=7 n=46 v=80
60480 On ch=7 n=58 v=95
60480 On ch=7 n=53 v=95
60480 On ch=7 n=46 v=95
61440 Off ch=7 n=58 v=80
61440 Off ch=7 n=53 v=80
61440 Off ch=7 n=46 v=80
61440 On ch=7 n=53 v=95
61440 On ch=7 n=48 v=95
61440 On ch=7 n=41 v=95
62400 Off ch=7 n=53 v=80
62400 Off ch=7 n=48 v=80
62400 Off ch=7 n=41 v=80
62400 On ch=7 n=53 v=95
62400 On ch=7 n=48 v=95
62400 On ch=7 n=41 v=95
63360 Off ch=7 n=53 v=80
63360 Off ch=7 n=48 v=80
63360 Off ch=7 n=41 v=80
63360 On ch=7 n=56 v=95
63360 On ch=7 n=51 v=95
63360 On ch=7 n=44 v=95
64320 Off ch=7 n=56 v=80
64320 Off ch=7 n=51 v=80
64320 Off ch=7 n=44 v=80
64320 On ch=7 n=56 v=95
64320 On ch=7 n=51 v=95
64320 On ch=7 n=44 v=95
65280 Off ch=7 n=56 v=80
65280 Off ch=7 n=51 v=80
65280 Off ch=7 n=44 v=80
65280 On ch=7 n=63 v=95
65280 On ch=7 n=58 v=95
65280 On ch=7 n=51 v=95
66240 Off ch=7 n=63 v=80
66240 Off ch=7 n=58 v=80
66240 Off ch=7 n=51 v=80
66240 On ch=7 n=63 v=95
66240 On ch=7 n=58 v=95
66240 On ch=7 n=51 v=95
67200 Off ch=7 n=63 v=80
67200 Off ch=7 n=58 v=80
67200 Off ch=7 n=51 v=80
69120 Par ch=7 c=7 v=88
69120 Par ch=8 c=7 v=88
69120 On ch=7 n=61 v=95
69120 On ch=7 n=56 v=95
69120 On ch=7 n=49 v=95
71040 Off ch=7 n=61 v=80
71040 Off ch=7 n=56 v=80
71040 Off ch=7 n=49 v=80
71040 On ch=7 n=56 v=95
71040 On ch=7 n=51 v=95
71040 On ch=7 n=44 v=95
72960 Off ch=7 n=56 v=80
72960 Off ch=7 n=51 v=80
72960 Off ch=7 n=44 v=80
72960 On ch=7 n=63 v=95
72960 On ch=7 n=58 v=95
72960 On ch=7 n=51 v=95
74880 Off ch=7 n=63 v=80
74880 Off ch=7 n=58 v=80
74880 Off ch=7 n=51 v=80
74880 On ch=7 n=53 v=95
74880 On ch=7 n=48 v=95
74880 On ch=7 n=41 v=95
76800 Off ch=7 n=53 v=80
76800 Off ch=7 n=48 v=80
76800 Off ch=7 n=41 v=80
76800 On ch=7 n=61 v=95
76800 On ch=7 n=56 v=95
76800 On ch=7 n=49 v=95
78720 Off ch=7 n=61 v=80
78720 Off ch=7 n=56 v=80
78720 Off ch=7 n=49 v=80
78720 On ch=7 n=56 v=95
78720 On ch=7 n=51 v=95
78720 On ch=7 n=44 v=95
80640 Off ch=7 n=56 v=80
80640 Off ch=7 n=51 v=80
80640 Off ch=7 n=44 v=80
80640 On ch=7 n=63 v=95
80640 On ch=7 n=58 v=95
80640 On ch=7 n=51 v=95
82560 Off ch=7 n=63 v=80
82560 Off ch=7 n=58 v=80
82560 Off ch=7 n=51 v=80
82560 On ch=7 n=53 v=95
82560 On ch=7 n=48 v=95
82560 On ch=7 n=41 v=95
84480 Off ch=7 n=53 v=80
84480 Off ch=7 n=48 v=80
84480 Off ch=7 n=41 v=80
84480 On ch=7 n=61 v=95
84480 On ch=7 n=56 v=95
84480 On ch=7 n=49 v=95
86400 Off ch=7 n=61 v=80
86400 Off ch=7 n=56 v=80
86400 Off ch=7 n=49 v=80
86400 On ch=7 n=56 v=95
86400 On ch=7 n=51 v=95
86400 On ch=7 n=44 v=95
88320 Off ch=7 n=56 v=80
88320 Off ch=7 n=51 v=80
88320 Off ch=7 n=44 v=80
88320 On ch=7 n=63 v=95
88320 On ch=7 n=58 v=95
88320 On ch=7 n=51 v=95
90240 Off ch=7 n=63 v=80
90240 Off ch=7 n=58 v=80
90240 Off ch=7 n=51 v=80
90240 On ch=7 n=53 v=95
90240 On ch=7 n=48 v=95
90240 On ch=7 n=41 v=95
92160 Off ch=7 n=53 v=80
92160 Off ch=7 n=48 v=80
92160 Off ch=7 n=41 v=80
92160 On ch=7 n=61 v=95
92160 On ch=7 n=56 v=95
92160 On ch=7 n=49 v=95
94080 Off ch=7 n=61 v=80
94080 Off ch=7 n=56 v=80
94080 Off ch=7 n=49 v=80
94080 On ch=7 n=56 v=95
94080 On ch=7 n=51 v=95
94080 On ch=7 n=44 v=95
96000 Off ch=7 n=56 v=80
96000 Off ch=7 n=51 v=80
96000 Off ch=7 n=44 v=80
96000 On ch=7 n=60 v=95
96000 On ch=7 n=55 v=95
96000 On ch=7 n=48 v=95
97920 Off ch=7 n=60 v=80
97920 Off ch=7 n=55 v=80
97920 Off ch=7 n=48 v=80
99840 Par ch=7 c=7 v=72
99840 Par ch=8 c=7 v=72
99840 On ch=7 n=53 v=95
99840 On ch=7 n=48 v=95
99840 On ch=7 n=41 v=95
100800 Off ch=7 n=53 v=80
100800 Off ch=7 n=48 v=80
100800 Off ch=7 n=41 v=80
100800 On ch=7 n=53 v=95
100800 On ch=7 n=48 v=95
100800 On ch=7 n=41 v=95
101760 Off ch=7 n=53 v=80
101760 Off ch=7 n=48 v=80
101760 Off ch=7 n=41 v=80
101760 On ch=7 n=56 v=95
101760 On ch=7 n=51 v=95
101760 On ch=7 n=44 v=95
102720 Off ch=7 n=56 v=80
102720 Off ch=7 n=51 v=80
102720 Off ch=7 n=44 v=80
102720 On ch=7 n=56 v=95
102720 On ch=7 n=51 v=95
102720 On ch=7 n=44 v=95
103680 Off ch=7 n=56 v=80
103680 Off ch=7 n=51 v=80
103680 Off ch=7 n=44 v=80
103680 On ch=7 n=63 v=95
103680 On ch=7 n=58 v=95
103680 On ch=7 n=51 v=95
104640 Off ch=7 n=63 v=80
104640 Off ch=7 n=58 v=80
104640 Off ch=7 n=51 v=80
104640 On ch=7 n=63 v=95
104640 On ch=7 n=58 v=95
104640 On ch=7 n=51 v=95
105600 Off ch=7 n=63 v=80
105600 Off ch=7 n=58 v=80
105600 Off ch=7 n=51 v=80
105600 On ch=7 n=58 v=95
105600 On ch=7 n=53 v=95
105600 On ch=7 n=46 v=95
106560 Off ch=7 n=58 v=80
106560 Off ch=7 n=53 v=80
106560 Off ch=7 n=46 v=80
106560 On ch=7 n=58 v=95
106560 On ch=7 n=53 v=95
106560 On ch=7 n=46 v=95
107520 Off ch=7 n=58 v=80
107520 Off ch=7 n=53 v=80
107520 Off ch=7 n=46 v=80
107520 On ch=7 n=53 v=95
107520 On ch=7 n=48 v=95
107520 On ch=7 n=41 v=95
108480 Off ch=7 n=53 v=80
108480 Off ch=7 n=48 v=80
108480 Off ch=7 n=41 v=80
108480 On ch=7 n=53 v=95
108480 On ch=7 n=48 v=95
108480 On ch=7 n=41 v=95
109440 Off ch=7 n=53 v=80
109440 Off ch=7 n=48 v=80
109440 Off ch=7 n=41 v=80
109440 On ch=7 n=56 v=95
109440 On ch=7 n=51 v=95
109440 On ch=7 n=44 v=95
110400 Off ch=7 n=56 v=80
110400 Off ch=7 n=51 v=80
110400 Off ch=7 n=44 v=80
110400 On ch=7 n=56 v=95
110400 On ch=7 n=51 v=95
110400 On ch=7 n=44 v=95
111360 Off ch=7 n=56 v=80
111360 Off ch=7 n=51 v=80
111360 Off ch=7 n=44 v=80
111360 On ch=7 n=63 v=95
111360 On ch=7 n=58 v=95
111360 On ch=7 n=51 v=95
112320 Off ch=7 n=63 v=80
112320 Off ch=7 n=58 v=80
112320 Off ch=7 n=51 v=80
112320 On ch=7 n=63 v=95
112320 On ch=7 n=58 v=95
112320 On ch=7 n=51 v=95
113280 Off ch=7 n=63 v=80
113280 Off ch=7 n=58 v=80
113280 Off ch=7 n=51 v=80
113280 On ch=7 n=58 v=95
113280 On ch=7 n=53 v=95
113280 On ch=7 n=46 v=95
114240 Par ch=7 c=7 v=104
114240 Par ch=8 c=7 v=104
114240 On ch=7 n=70 v=95
114480 Off ch=7 n=70 v=80
114480 On ch=7 n=68 v=95
114960 Off ch=7 n=58 v=80
114960 Off ch=7 n=53 v=80
114960 Off ch=7 n=46 v=80
114960 Off ch=7 n=68 v=80
114960 On ch=7 n=65 v=95
115200 Off ch=7 n=65 v=80
115200 Par ch=7 c=7 v=72
115200 Par ch=8 c=7 v=72
115200 On ch=7 n=53 v=95
115200 On ch=7 n=48 v=95
115200 On ch=7 n=41 v=95
116160 Off ch=7 n=53 v=80
116160 Off ch=7 n=48 v=80
116160 Off ch=7 n=41 v=80
116160 On ch=7 n=53 v=95
116160 On ch=7 n=48 v=95
116160 On ch=7 n=41 v=95
117120 Off ch=7 n=53 v=80
117120 Off ch=7 n=48 v=80
117120 Off ch=7 n=41 v=80
117120 On ch=7 n=56 v=95
117120 On ch=7 n=51 v=95
117120 On ch=7 n=44 v=95
118080 Off ch=7 n=56 v=80
118080 Off ch=7 n=51 v=80
118080 Off ch=7 n=44 v=80
118080 On ch=7 n=56 v=95
118080 On ch=7 n=51 v=95
118080 On ch=7 n=44 v=95
119040 Off ch=7 n=56 v=80
119040 Off ch=7 n=51 v=80
119040 Off ch=7 n=44 v=80
119040 On ch=7 n=63 v=95
119040 On ch=7 n=58 v=95
119040 On ch=7 n=51 v=95
120000 Off ch=7 n=63 v=80
120000 Off ch=7 n=58 v=80
120000 Off ch=7 n=51 v=80
120000 On ch=7 n=63 v=95
120000 On ch=7 n=58 v=95
120000 On ch=7 n=51 v=95
120960 Off ch=7 n=63 v=80
120960 Off ch=7 n=58 v=80
120960 Off ch=7 n=51 v=80
120960 On ch=7 n=58 v=95
120960 On ch=7 n=53 v=95
120960 On ch=7 n=46 v=95
121920 Off ch=7 n=58 v=80
121920 Off ch=7 n=53 v=80
121920 Off ch=7 n=46 v=80
121920 On ch=7 n=58 v=95
121920 On ch=7 n=53 v=95
121920 On ch=7 n=46 v=95
122880 Off ch=7 n=58 v=80
122880 Off ch=7 n=53 v=80
122880 Off ch=7 n=46 v=80
122880 On ch=7 n=53 v=95
122880 On ch=7 n=48 v=95
122880 On ch=7 n=41 v=95
123840 Off ch=7 n=53 v=80
123840 Off ch=7 n=48 v=80
123840 Off ch=7 n=41 v=80
123840 On ch=7 n=53 v=95
123840 On ch=7 n=48 v=95
123840 On ch=7 n=41 v=95
124800 Off ch=7 n=53 v=80
124800 Off ch=7 n=48 v=80
124800 Off ch=7 n=41 v=80
124800 On ch=7 n=56 v=95
124800 On ch=7 n=51 v=95
124800 On ch=7 n=44 v=95
125760 Off ch=7 n=56 v=80
125760 Off ch=7 n=51 v=80
125760 Off ch=7 n=44 v=80
125760 On ch=7 n=56 v=95
125760 On ch=7 n=51 v=95
125760 On ch=7 n=44 v=95
126720 Off ch=7 n=56 v=80
126720 Off ch=7 n=51 v=80
126720 Off ch=7 n=44 v=80
126720 On ch=7 n=63 v=95
126720 On ch=7 n=58 v=95
126720 On ch=7 n=51 v=95
127680 Off ch=7 n=63 v=80
127680 Off ch=7 n=58 v=80
127680 Off ch=7 n=51 v=80
127680 On ch=7 n=63 v=95
127680 On ch=7 n=58 v=95
127680 On ch=7 n=51 v=95
128640 Off ch=7 n=63 v=80
128640 Off ch=7 n=58 v=80
128640 Off ch=7 n=51 v=80
128640 On ch=7 n=58 v=95
128640 On ch=7 n=53 v=95
128640 On ch=7 n=46 v=95
129600 Off ch=7 n=58 v=80
129600 Off ch=7 n=53 v=80
129600 Off ch=7 n=46 v=80
129600 On ch=7 n=58 v=95
129600 On ch=7 n=53 v=95
129600 On ch=7 n=46 v=95
130560 Off ch=7 n=58 v=80
130560 Off ch=7 n=53 v=80
130560 Off ch=7 n=46 v=80
130560 On ch=7 n=53 v=95
130560 On ch=7 n=48 v=95
130560 On ch=7 n=41 v=95
131520 Off ch=7 n=53 v=80
131520 Off ch=7 n=48 v=80
131520 Off ch=7 n=41 v=80
131520 On ch=7 n=53 v=95
131520 On ch=7 n=48 v=95
131520 On ch=7 n=41 v=95
132480 Off ch=7 n=53 v=80
132480 Off ch=7 n=48 v=80
132480 Off ch=7 n=41 v=80
132480 On ch=7 n=56 v=95
132480 On ch=7 n=51 v=95
132480 On ch=7 n=44 v=95
133440 Off ch=7 n=56 v=80
133440 Off ch=7 n=51 v=80
133440 Off ch=7 n=44 v=80
133440 On ch=7 n=56 v=95
133440 On ch=7 n=51 v=95
133440 On ch=7 n=44 v=95
134400 Off ch=7 n=56 v=80
134400 Off ch=7 n=51 v=80
134400 Off ch=7 n=44 v=80
134400 On ch=7 n=63 v=95
134400 On ch=7 n=58 v=95
134400 On ch=7 n=51 v=95
135360 Off ch=7 n=63 v=80
135360 Off ch=7 n=58 v=80
135360 Off ch=7 n=51 v=80
135360 On ch=7 n=63 v=95
135360 On ch=7 n=58 v=95
135360 On ch=7 n=51 v=95
136320 Off ch=7 n=63 v=80
136320 Off ch=7 n=58 v=80
136320 Off ch=7 n=51 v=80
136320 On ch=7 n=58 v=95
136320 On ch=7 n=53 v=95
136320 On ch=7 n=46 v=95
137280 Off ch=7 n=58 v=80
137280 Off ch=7 n=53 v=80
137280 Off ch=7 n=46 v=80
137280 On ch=7 n=58 v=95
137280 On ch=7 n=53 v=95
137280 On ch=7 n=46 v=95
138240 Off ch=7 n=58 v=80
138240 Off ch=7 n=53 v=80
138240 Off ch=7 n=46 v=80
138240 On ch=7 n=53 v=95
138240 On ch=7 n=48 v=95
138240 On ch=7 n=41 v=95
139200 Off ch=7 n=53 v=80
139200 Off ch=7 n=48 v=80
139200 Off ch=7 n=41 v=80
139200 On ch=7 n=53 v=95
139200 On ch=7 n=48 v=95
139200 On ch=7 n=41 v=95
140160 Off ch=7 n=53 v=80
140160 Off ch=7 n=48 v=80
140160 Off ch=7 n=41 v=80
140160 On ch=7 n=56 v=95
140160 On ch=7 n=51 v=95
140160 On ch=7 n=44 v=95
141120 Off ch=7 n=56 v=80
141120 Off ch=7 n=51 v=80
141120 Off ch=7 n=44 v=80
141120 On ch=7 n=56 v=95
141120 On ch=7 n=51 v=95
141120 On ch=7 n=44 v=95
142080 Off ch=7 n=56 v=80
142080 Off ch=7 n=51 v=80
142080 Off ch=7 n=44 v=80
142080 On ch=7 n=63 v=95
142080 On ch=7 n=58 v=95
142080 On ch=7 n=51 v=95
143040 Off ch=7 n=63 v=80
143040 Off ch=7 n=58 v=80
143040 Off ch=7 n=51 v=80
143040 On ch=7 n=63 v=95
143040 On ch=7 n=58 v=95
143040 On ch=7 n=51 v=95
144000 Off ch=7 n=63 v=80
144000 Off ch=7 n=58 v=80
144000 Off ch=7 n=51 v=80
144000 On ch=7 n=58 v=95
144000 On ch=7 n=53 v=95
144000 On ch=7 n=46 v=95
144960 Off ch=7 n=58 v=80
144960 Off ch=7 n=53 v=80
144960 Off ch=7 n=46 v=80
144960 On ch=7 n=58 v=95
144960 On ch=7 n=53 v=95
144960 On ch=7 n=46 v=95
145920 Off ch=7 n=58 v=80
145920 Off ch=7 n=53 v=80
145920 Off ch=7 n=46 v=80
145920 On ch=7 n=53 v=95
145920 On ch=7 n=48 v=95
145920 On ch=7 n=41 v=95
146880 Off ch=7 n=53 v=80
146880 Off ch=7 n=48 v=80
146880 Off ch=7 n=41 v=80
146880 On ch=7 n=53 v=95
146880 On ch=7 n=48 v=95
146880 On ch=7 n=41 v=95
147840 Off ch=7 n=53 v=80
147840 Off ch=7 n=48 v=80
147840 Off ch=7 n=41 v=80
147840 On ch=7 n=56 v=95
147840 On ch=7 n=51 v=95
147840 On ch=7 n=44 v=95
148800 Off ch=7 n=56 v=80
148800 Off ch=7 n=51 v=80
148800 Off ch=7 n=44 v=80
148800 On ch=7 n=56 v=95
148800 On ch=7 n=51 v=95
148800 On ch=7 n=44 v=95
149760 Off ch=7 n=56 v=80
149760 Off ch=7 n=51 v=80
149760 Off ch=7 n=44 v=80
149760 On ch=7 n=63 v=95
149760 On ch=7 n=58 v=95
149760 On ch=7 n=51 v=95
150720 Off ch=7 n=63 v=80
150720 Off ch=7 n=58 v=80
150720 Off ch=7 n=51 v=80
150720 On ch=7 n=63 v=95
150720 On ch=7 n=58 v=95
150720 On ch=7 n=51 v=95
151680 Off ch=7 n=63 v=80
151680 Off ch=7 n=58 v=80
151680 Off ch=7 n=51 v=80
151680 On ch=7 n=58 v=95
151680 On ch=7 n=53 v=95
151680 On ch=7 n=46 v=95
152640 Off ch=7 n=58 v=80
152640 Off ch=7 n=53 v=80
152640 Off ch=7 n=46 v=80
152640 On ch=7 n=58 v=95
152640 On ch=7 n=53 v=95
152640 On ch=7 n=46 v=95
153600 Off ch=7 n=58 v=80
153600 Off ch=7 n=53 v=80
153600 Off ch=7 n=46 v=80
153600 On ch=7 n=53 v=95
153600 On ch=7 n=48 v=95
153600 On ch=7 n=41 v=95
154560 Off ch=7 n=53 v=80
154560 Off ch=7 n=48 v=80
154560 Off ch=7 n=41 v=80
154560 On ch=7 n=53 v=95
154560 On ch=7 n=48 v=95
154560 On ch=7 n=41 v=95
155520 Off ch=7 n=53 v=80
155520 Off ch=7 n=48 v=80
155520 Off ch=7 n=41 v=80
155520 On ch=7 n=56 v=95
155520 On ch=7 n=51 v=95
155520 On ch=7 n=44 v=95
156480 Off ch=7 n=56 v=80
156480 Off ch=7 n=51 v=80
156480 Off ch=7 n=44 v=80
156480 On ch=7 n=56 v=95
156480 On ch=7 n=51 v=95
156480 On ch=7 n=44 v=95
157440 Off ch=7 n=56 v=80
157440 Off ch=7 n=51 v=80
157440 Off ch=7 n=44 v=80
157440 On ch=7 n=63 v=95
157440 On ch=7 n=58 v=95
157440 On ch=7 n=51 v=95
158400 Off ch=7 n=63 v=80
158400 Off ch=7 n=58 v=80
158400 Off ch=7 n=51 v=80
158400 On ch=7 n=63 v=95
158400 On ch=7 n=58 v=95
158400 On ch=7 n=51 v=95
159360 Off ch=7 n=63 v=80
159360 Off ch=7 n=58 v=80
159360 Off ch=7 n=51 v=80
159360 On ch=7 n=58 v=95
159360 On ch=7 n=53 v=95
159360 On ch=7 n=46 v=95
160320 Off ch=7 n=58 v=80
160320 Off ch=7 n=53 v=80
160320 Off ch=7 n=46 v=80
160320 On ch=7 n=58 v=95
160320 On ch=7 n=53 v=95
160320 On ch=7 n=46 v=95
161280 Off ch=7 n=58 v=80
161280 Off ch=7 n=53 v=80
161280 Off ch=7 n=46 v=80
161280 On ch=7 n=53 v=95
161280 On ch=7 n=48 v=95
161280 On ch=7 n=41 v=95
162240 Off ch=7 n=53 v=80
162240 Off ch=7 n=48 v=80
162240 Off ch=7 n=41 v=80
162240 On ch=7 n=53 v=95
162240 On ch=7 n=48 v=95
162240 On ch=7 n=41 v=95
163200 Off ch=7 n=53 v=80
163200 Off ch=7 n=48 v=80
163200 Off ch=7 n=41 v=80
163200 On ch=7 n=56 v=95
163200 On ch=7 n=51 v=95
163200 On ch=7 n=44 v=95
164160 Off ch=7 n=56 v=80
164160 Off ch=7 n=51 v=80
164160 Off ch=7 n=44 v=80
164160 On ch=7 n=56 v=95
164160 On ch=7 n=51 v=95
164160 On ch=7 n=44 v=95
165120 Off ch=7 n=56 v=80
165120 Off ch=7 n=51 v=80
165120 Off ch=7 n=44 v=80
165120 On ch=7 n=63 v=95
165120 On ch=7 n=58 v=95
165120 On ch=7 n=51 v=95
166080 Off ch=7 n=63 v=80
166080 Off ch=7 n=58 v=80
166080 Off ch=7 n=51 v=80
166080 On ch=7 n=63 v=95
166080 On ch=7 n=58 v=95
166080 On ch=7 n=51 v=95
167040 Off ch=7 n=63 v=80
167040 Off ch=7 n=58 v=80
167040 Off ch=7 n=51 v=80
168960 Par ch=7 c=7 v=88
168960 Par ch=8 c=7 v=88
168960 On ch=7 n=61 v=95
168960 On ch=7 n=56 v=95
168960 On ch=7 n=49 v=95
170880 Off ch=7 n=61 v=80
170880 Off ch=7 n=56 v=80
170880 Off ch=7 n=49 v=80
170880 On ch=7 n=56 v=95
170880 On ch=7 n=51 v=95
170880 On ch=7 n=44 v=95
172800 Off ch=7 n=56 v=80
172800 Off ch=7 n=51 v=80
172800 Off ch=7 n=44 v=80
172800 On ch=7 n=63 v=95
172800 On ch=7 n=58 v=95
172800 On ch=7 n=51 v=95
174720 Off ch=7 n=63 v=80
174720 Off ch=7 n=58 v=80
174720 Off ch=7 n=51 v=80
174720 On ch=7 n=53 v=95
174720 On ch=7 n=48 v=95
174720 On ch=7 n=41 v=95
176640 Off ch=7 n=53 v=80
176640 Off ch=7 n=48 v=80
176640 Off ch=7 n=41 v=80
176640 On ch=7 n=61 v=95
176640 On ch=7 n=56 v=95
176640 On ch=7 n=49 v=95
178560 Off ch=7 n=61 v=80
178560 Off ch=7 n=56 v=80
178560 Off ch=7 n=49 v=80
178560 On ch=7 n=56 v=95
178560 On ch=7 n=51 v=95
178560 On ch=7 n=44 v=95
180480 Off ch=7 n=56 v=80
180480 Off ch=7 n=51 v=80
180480 Off ch=7 n=44 v=80
180480 On ch=7 n=63 v=95
180480 On ch=7 n=58 v=95
180480 On ch=7 n=51 v=95
182400 Off ch=7 n=63 v=80
182400 Off ch=7 n=58 v=80
182400 Off ch=7 n=51 v=80
182400 On ch=7 n=53 v=95
182400 On ch=7 n=48 v=95
182400 On ch=7 n=41 v=95
184320 Off ch=7 n=53 v=80
184320 Off ch=7 n=48 v=80
184320 Off ch=7 n=41 v=80
184320 On ch=7 n=61 v=95
184320 On ch=7 n=56 v=95
184320 On ch=7 n=49 v=95
186240 Off ch=7 n=61 v=80
186240 Off ch=7 n=56 v=80
186240 Off ch=7 n=49 v=80
186240 On ch=7 n=56 v=95
186240 On ch=7 n=51 v=95
186240 On ch=7 n=44 v=95
188160 Off ch=7 n=56 v=80
188160 Off ch=7 n=51 v=80
188160 Off ch=7 n=44 v=80
188160 On ch=7 n=63 v=95
188160 On ch=7 n=58 v=95
188160 On ch=7 n=51 v=95
190080 Off ch=7 n=63 v=80
190080 Off ch=7 n=58 v=80
190080 Off ch=7 n=51 v=80
190080 On ch=7 n=53 v=95
190080 On ch=7 n=48 v=95
190080 On ch=7 n=41 v=95
192000 Off ch=7 n=53 v=80
192000 Off ch=7 n=48 v=80
192000 Off ch=7 n=41 v=80
192000 On ch=7 n=61 v=95
192000 On ch=7 n=56 v=95
192000 On ch=7 n=49 v=95
193920 Off ch=7 n=61 v=80
193920 Off ch=7 n=56 v=80
193920 Off ch=7 n=49 v=80
193920 On ch=7 n=56 v=95
193920 On ch=7 n=51 v=95
193920 On ch=7 n=44 v=95
195840 Off ch=7 n=56 v=80
195840 Off ch=7 n=51 v=80
195840 Off ch=7 n=44 v=80
195840 On ch=7 n=60 v=95
195840 On ch=7 n=55 v=95
195840 On ch=7 n=48 v=95
197760 Off ch=7 n=60 v=80
197760 Off ch=7 n=55 v=80
197760 Off ch=7 n=48 v=80
199680 Par ch=7 c=7 v=72
199680 Par ch=8 c=7 v=72
199680 On ch=7 n=53 v=95
199680 On ch=7 n=48 v=95
199680 On ch=7 n=41 v=95
200640 Off ch=7 n=53 v=80
200640 Off ch=7 n=48 v=80
200640 Off ch=7 n=41 v=80
200640 On ch=7 n=53 v=95
200640 On ch=7 n=48 v=95
200640 On ch=7 n=41 v=95
201600 Off ch=7 n=53 v=80
201600 Off ch=7 n=48 v=80
201600 Off ch=7 n=41 v=80
201600 On ch=7 n=56 v=95
201600 On ch=7 n=51 v=95
201600 On ch=7 n=44 v=95
202560 Off ch=7 n=56 v=80
202560 Off ch=7 n=51 v=80
202560 Off ch=7 n=44 v=80
202560 On ch=7 n=56 v=95
202560 On ch=7 n=51 v=95
202560 On ch=7 n=44 v=95
203520 Off ch=7 n=56 v=80
203520 Off ch=7 n=51 v=80
203520 Off ch=7 n=44 v=80
203520 On ch=7 n=63 v=95
203520 On ch=7 n=58 v=95
203520 On ch=7 n=51 v=95
204480 Off ch=7 n=63 v=80
204480 Off ch=7 n=58 v=80
204480 Off ch=7 n=51 v=80
204480 On ch=7 n=63 v=95
204480 On ch=7 n=58 v=95
204480 On ch=7 n=51 v=95
205440 Off ch=7 n=63 v=80
205440 Off ch=7 n=58 v=80
205440 Off ch=7 n=51 v=80
205440 On ch=7 n=58 v=95
205440 On ch=7 n=53 v=95
205440 On ch=7 n=46 v=95
206400 Off ch=7 n=58 v=80
206400 Off ch=7 n=53 v=80
206400 Off ch=7 n=46 v=80
206400 On ch=7 n=58 v=95
206400 On ch=7 n=53 v=95
206400 On ch=7 n=46 v=95
207360 Off ch=7 n=58 v=80
207360 Off ch=7 n=53 v=80
207360 Off ch=7 n=46 v=80
207360 On ch=7 n=53 v=95
207360 On ch=7 n=48 v=95
207360 On ch=7 n=41 v=95
208320 Off ch=7 n=53 v=80
208320 Off ch=7 n=48 v=80
208320 Off ch=7 n=41 v=80
208320 On ch=7 n=53 v=95
208320 On ch=7 n=48 v=95
208320 On ch=7 n=41 v=95
209280 Off ch=7 n=53 v=80
209280 Off ch=7 n=48 v=80
209280 Off ch=7 n=41 v=80
209280 On ch=7 n=56 v=95
209280 On ch=7 n=51 v=95
209280 On ch=7 n=44 v=95
210240 Off ch=7 n=56 v=80
210240 Off ch=7 n=51 v=80
210240 Off ch=7 n=44 v=80
210240 On ch=7 n=56 v=95
210240 On ch=7 n=51 v=95
210240 On ch=7 n=44 v=95
211200 Off ch=7 n=56 v=80
211200 Off ch=7 n=51 v=80
211200 Off ch=7 n=44 v=80
211200 On ch=7 n=63 v=95
211200 On ch=7 n=58 v=95
211200 On ch=7 n=51 v=95
212160 Off ch=7 n=63 v=80
212160 Off ch=7 n=58 v=80
212160 Off ch=7 n=51 v=80
212160 On ch=7 n=63 v=95
212160 On ch=7 n=58 v=95
212160 On ch=7 n=51 v=95
213120 Off ch=7 n=63 v=80
213120 Off ch=7 n=58 v=80
213120 Off ch=7 n=51 v=80
215040 Par ch=7 c=7 v=88
215040 Par ch=8 c=7 v=88
215040 On ch=7 n=61 v=95
215040 On ch=7 n=56 v=95
215040 On ch=7 n=49 v=95
216960 Off ch=7 n=61 v=80
216960 Off ch=7 n=56 v=80
216960 Off ch=7 n=49 v=80
216960 On ch=7 n=56 v=95
216960 On ch=7 n=51 v=95
216960 On ch=7 n=44 v=95
218880 Off ch=7 n=56 v=80
218880 Off ch=7 n=51 v=80
218880 Off ch=7 n=44 v=80
218880 On ch=7 n=63 v=95
218880 On ch=7 n=58 v=95
218880 On ch=7 n=51 v=95
220800 Off ch=7 n=63 v=80
220800 Off ch=7 n=58 v=80
220800 Off ch=7 n=51 v=80
220800 On ch=7 n=53 v=95
220800 On ch=7 n=48 v=95
220800 On ch=7 n=41 v=95
222720 Off ch=7 n=53 v=80
222720 Off ch=7 n=48 v=80
222720 Off ch=7 n=41 v=80
222720 On ch=7 n=61 v=95
222720 On ch=7 n=56 v=95
222720 On ch=7 n=49 v=95
224640 Off ch=7 n=61 v=80
224640 Off ch=7 n=56 v=80
224640 Off ch=7 n=49 v=80
224640 On ch=7 n=56 v=95
224640 On ch=7 n=51 v=95
224640 On ch=7 n=44 v=95
226560 Off ch=7 n=56 v=80
226560 Off ch=7 n=51 v=80
226560 Off ch=7 n=44 v=80
226560 On ch=7 n=63 v=95
226560 On ch=7 n=58 v=95
226560 On ch=7 n=51 v=95
228480 Off ch=7 n=63 v=80
228480 Off ch=7 n=58 v=80
228480 Off ch=7 n=51 v=80
228480 On ch=7 n=53 v=95
228480 On ch=7 n=48 v=95
228480 On ch=7 n=41 v=95
230400 Off ch=7 n=53 v=80
230400 Off ch=7 n=48 v=80
230400 Off ch=7 n=41 v=80
230400 On ch=7 n=61 v=95
230400 On ch=7 n=56 v=95
230400 On ch=7 n=49 v=95
232320 Off ch=7 n=61 v=80
232320 Off ch=7 n=56 v=80
232320 Off ch=7 n=49 v=80
232320 On ch=7 n=56 v=95
232320 On ch=7 n=51 v=95
232320 On ch=7 n=44 v=95
234240 Off ch=7 n=56 v=80
234240 Off ch=7 n=51 v=80
234240 Off ch=7 n=44 v=80
234240 On ch=7 n=63 v=95
234240 On ch=7 n=58 v=95
234240 On ch=7 n=51 v=95
236160 Off ch=7 n=63 v=80
236160 Off ch=7 n=58 v=80
236160 Off ch=7 n=51 v=80
236160 On ch=7 n=53 v=95
236160 On ch=7 n=48 v=95
236160 On ch=7 n=41 v=95
238080 Off ch=7 n=53 v=80
238080 Off ch=7 n=48 v=80
238080 Off ch=7 n=41 v=80
238080 On ch=7 n=61 v=95
238080 On ch=7 n=56 v=95
238080 On ch=7 n=49 v=95
240000 Off ch=7 n=61 v=80
240000 Off ch=7 n=56 v=80
240000 Off ch=7 n=49 v=80
240000 On ch=7 n=56 v=95
240000 On ch=7 n=51 v=95
240000 On ch=7 n=44 v=95
241920 Off ch=7 n=56 v=80
241920 Off ch=7 n=51 v=80
241920 Off ch=7 n=44 v=80
241920 On ch=7 n=60 v=95
241920 On ch=7 n=55 v=95
241920 On ch=7 n=48 v=95
243840 Off ch=7 n=60 v=80
243840 Off ch=7 n=55 v=80
243840 Off ch=7 n=48 v=80
245760 On ch=7 n=60 v=95
245760 On ch=7 n=55 v=95
245760 On ch=7 n=48 v=95
247680 Off ch=7 n=60 v=80
247680 Off ch=7 n=55 v=80
247680 Off ch=7 n=48 v=80
264960 Par ch=7 c=7 v=88
264960 Par ch=8 c=7 v=88
264960 On ch=7 n=61 v=95
264960 On ch=7 n=56 v=95
264960 On ch=7 n=49 v=95
266880 Off ch=7 n=61 v=80
266880 Off ch=7 n=56 v=80
266880 Off ch=7 n=49 v=80
266880 On ch=7 n=56 v=95
266880 On ch=7 n=51 v=95
266880 On ch=7 n=44 v=95
268800 Off ch=7 n=56 v=80
268800 Off ch=7 n=51 v=80
268800 Off ch=7 n=44 v=80
268800 On ch=7 n=63 v=95
268800 On ch=7 n=58 v=95
268800 On ch=7 n=51 v=95
270720 Off ch=7 n=63 v=80
270720 Off ch=7 n=58 v=80
270720 Off ch=7 n=51 v=80
270720 On ch=7 n=53 v=95
270720 On ch=7 n=48 v=95
270720 On ch=7 n=41 v=95
272640 Off ch=7 n=53 v=80
272640 Off ch=7 n=48 v=80
272640 Off ch=7 n=41 v=80
272640 Par ch=7 c=7 v=88
272640 Par ch=8 c=7 v=88
272640 On ch=7 n=61 v=95
272640 On ch=7 n=56 v=95
272640 On ch=7 n=49 v=95
274560 Off ch=7 n=61 v=80
274560 Off ch=7 n=56 v=80
274560 Off ch=7 n=49 v=80
274560 On ch=7 n=56 v=95
274560 On ch=7 n=51 v=95
274560 On ch=7 n=44 v=95
276480 Off ch=7 n=56 v=80
276480 Off ch=7 n=51 v=80
276480 Off ch=7 n=44 v=80
276480 On ch=7 n=63 v=95
276480 On ch=7 n=58 v=95
276480 On ch=7 n=51 v=95
278400 Off ch=7 n=63 v=80
278400 Off ch=7 n=58 v=80
278400 Off ch=7 n=51 v=80
278400 On ch=7 n=53 v=95
278400 On ch=7 n=48 v=95
278400 On ch=7 n=41 v=95
280320 Off ch=7 n=53 v=80
280320 Off ch=7 n=48 v=80
280320 Off ch=7 n=41 v=80
280320 Par ch=7 c=7 v=88
280320 Par ch=8 c=7 v=88
280320 On ch=7 n=61 v=95
280320 On ch=7 n=56 v=95
280320 On ch=7 n=49 v=95
282240 Off ch=7 n=61 v=80
282240 Off ch=7 n=56 v=80
282240 Off ch=7 n=49 v=80
282240 On ch=7 n=56 v=95
282240 On ch=7 n=51 v=95
282240 On ch=7 n=44 v=95
284160 Off ch=7 n=56 v=80
284160 Off ch=7 n=51 v=80
284160 Off ch=7 n=44 v=80
284160 On ch=7 n=63 v=95
284160 On ch=7 n=58 v=95
284160 On ch=7 n=51 v=95
286080 Off ch=7 n=63 v=80
286080 Off ch=7 n=58 v=80
286080 Off ch=7 n=51 v=80
286080 On ch=7 n=53 v=95
286080 On ch=7 n=48 v=95
286080 On ch=7 n=41 v=95
288000 Off ch=7 n=53 v=80
288000 Off ch=7 n=48 v=80
288000 Off ch=7 n=41 v=80
288000 Par ch=7 c=7 v=88
288000 Par ch=8 c=7 v=88
288000 On ch=7 n=61 v=95
288000 On ch=7 n=56 v=95
288000 On ch=7 n=49 v=95
289920 Off ch=7 n=61 v=80
289920 Off ch=7 n=56 v=80
289920 Off ch=7 n=49 v=80
289920 On ch=7 n=56 v=95
289920 On ch=7 n=51 v=95
289920 On ch=7 n=44 v=95
291840 Off ch=7 n=56 v=80
291840 Off ch=7 n=51 v=80
291840 Off ch=7 n=44 v=80
291840 On ch=7 n=60 v=95
291840 On ch=7 n=55 v=95
291840 On ch=7 n=48 v=95
293760 Off ch=7 n=60 v=80
293760 Off ch=7 n=55 v=80
293760 Off ch=7 n=48 v=80
293760 On ch=7 n=60 v=95
293760 On ch=7 n=55 v=95
293760 On ch=7 n=48 v=95
295680 Off ch=7 n=60 v=80
295680 Off ch=7 n=55 v=80
295680 Off ch=7 n=48 v=80
295680 On ch=7 n=60 v=95
295680 On ch=7 n=55 v=95
295680 On ch=7 n=48 v=95
297600 Off ch=7 n=60 v=80
297600 Off ch=7 n=55 v=80
297600 Off ch=7 n=48 v=80
297600 On ch=7 n=60 v=95
297600 On ch=7 n=55 v=95
297600 On ch=7 n=48 v=95
299520 Off ch=7 n=60 v=80
299520 Off ch=7 n=55 v=80
299520 Off ch=7 n=48 v=80
299520 On ch=7 n=48 v=95
299520 On ch=7 n=41 v=95
301440 Off ch=7 n=48 v=80
301440 Off ch=7 n=41 v=80
301440 On ch=7 n=56 v=95
301440 On ch=7 n=49 v=95
303360 Off ch=7 n=56 v=80
303360 Off ch=7 n=49 v=80
303360 On ch=7 n=58 v=95
303360 On ch=7 n=51 v=95
305280 Off ch=7 n=58 v=80
305280 Off ch=7 n=51 v=80
305280 On ch=7 n=57 v=95
305280 On ch=7 n=50 v=95
307200 Off ch=7 n=57 v=80
307200 Off ch=7 n=50 v=80
307200 On ch=7 n=51 v=95
307200 On ch=7 n=44 v=95
309120 Off ch=7 n=51 v=80
309120 Off ch=7 n=44 v=80
309120 On ch=7 n=47 v=95
309120 On ch=7 n=40 v=95
311040 Off ch=7 n=47 v=80
311040 Off ch=7 n=40 v=80
311040 On ch=7 n=48 v=95
311040 On ch=7 n=41 v=95
312960 Off ch=7 n=48 v=80
312960 Off ch=7 n=41 v=80
312960 On ch=7 n=56 v=95
312960 On ch=7 n=49 v=95
314880 Off ch=7 n=56 v=80
314880 Off ch=7 n=49 v=80
314880 On ch=7 n=58 v=95
314880 On ch=7 n=51 v=95
316800 Off ch=7 n=58 v=80
316800 Off ch=7 n=51 v=80
316800 On ch=7 n=57 v=95
316800 On ch=7 n=50 v=95
318720 Off ch=7 n=57 v=80
318720 Off ch=7 n=50 v=80
318720 On ch=7 n=51 v=95
318720 On ch=7 n=44 v=95
320640 Off ch=7 n=51 v=80
320640 Off ch=7 n=44 v=80
320640 On ch=7 n=47 v=95
320640 On ch=7 n=40 v=95
322560 Off ch=7 n=47 v=80
322560 Off ch=7 n=40 v=80
322560 On ch=7 n=48 v=95
322560 On ch=7 n=41 v=95
324480 Off ch=7 n=48 v=80
324480 Off ch=7 n=41 v=80
324480 On ch=7 n=56 v=95
324480 On ch=7 n=49 v=95
326400 Off ch=7 n=56 v=80
326400 Off ch=7 n=49 v=80
326400 On ch=7 n=58 v=95
326400 On ch=7 n=51 v=95
328320 Off ch=7 n=58 v=80
328320 Off ch=7 n=51 v=80
328320 On ch=7 n=57 v=95
328320 On ch=7 n=50 v=95
330240 Off ch=7 n=57 v=80
330240 Off ch=7 n=50 v=80
330240 On ch=7 n=51 v=95
330240 On ch=7 n=44 v=95
332160 Off ch=7 n=51 v=80
332160 Off ch=7 n=44 v=80
332160 On ch=7 n=47 v=95
332160 On ch=7 n=40 v=95
334080 Off ch=7 n=47 v=80
334080 Off ch=7 n=40 v=80
334080 On ch=7 n=48 v=95
334080 On ch=7 n=41 v=95
336000 Off ch=7 n=48 v=80
336000 Off ch=7 n=41 v=80
336000 On ch=7 n=56 v=95
336000 On ch=7 n=49 v=95
337920 Off ch=7 n=56 v=80
337920 Off ch=7 n=49 v=80
337920 On ch=7 n=58 v=95
337920 On ch=7 n=51 v=95
339840 Off ch=7 n=58 v=80
339840 Off ch=7 n=51 v=80
339840 On ch=7 n=57 v=95
339840 On ch=7 n=50 v=95
341760 Off ch=7 n=57 v=80
341760 Off ch=7 n=50 v=80
341760 On ch=7 n=44 v=95
342240 Off ch=7 n=44 v=80
342240 On ch=7 n=44 v=95
342720 Off ch=7 n=44 v=80
342720 On ch=7 n=40 v=95
343200 Off ch=7 n=40 v=80
343200 On ch=7 n=40 v=95
343680 Off ch=7 n=40 v=80
343680 Meta TrkEnd
TrkEnd
MTrk
0 Meta TrkName "Mike Dirnt (Bass)"
0 Par ch=9 c=100 v=0
0 Par ch=9 c=101 v=0
0 Par ch=9 c=6 v=12
0 Pb ch=9 v=8192
0 Par ch=11 c=100 v=0
0 Par ch=11 c=101 v=0
0 Par ch=11 c=6 v=12
0 Pb ch=11 v=8192
0 PrCh ch=9 p=33
0 PrCh ch=11 p=33
0 Par ch=9 c=7 v=120
0 Par ch=11 c=7 v=120
0 Par ch=9 c=10 v=64
0 Par ch=11 c=10 v=64
0 Par ch=9 c=93 v=0
0 Par ch=11 c=93 v=0
0 Par ch=9 c=91 v=0
0 Par ch=11 c=91 v=0
0 Par ch=9 c=92 v=0
0 Par ch=11 c=92 v=0
0 Par ch=9 c=95 v=0
0 Par ch=11 c=95 v=0
0 On ch=9 n=29 v=95
15360 Off ch=9 n=29 v=80
23040 On ch=9 n=29 v=95
24000 Off ch=9 n=29 v=80
24000 On ch=9 n=29 v=95
24480 Off ch=9 n=29 v=80
24480 On ch=9 n=29 v=95
24960 Off ch=9 n=29 v=80
24960 On ch=9 n=32 v=95
25440 Off ch=9 n=32 v=80
25440 On ch=9 n=32 v=95
25920 Off ch=9 n=32 v=80
25920 On ch=9 n=32 v=95
26400 Off ch=9 n=32 v=80
26400 On ch=9 n=32 v=95
26880 Off ch=9 n=32 v=80
26880 On ch=9 n=39 v=95
27840 Off ch=9 n=39 v=80
27840 On ch=9 n=39 v=95
28320 Off ch=9 n=39 v=80
28320 On ch=9 n=39 v=95
28800 Off ch=9 n=39 v=80
28800 On ch=9 n=34 v=95
29280 Off ch=9 n=34 v=80
29280 On ch=9 n=34 v=95
29760 Off ch=9 n=34 v=80
29760 On ch=9 n=34 v=95
30240 Off ch=9 n=34 v=80
30240 On ch=9 n=32 v=95
30720 Off ch=9 n=32 v=80
30720 On ch=9 n=29 v=95
31680 Off ch=9 n=29 v=80
31680 On ch=9 n=29 v=95
32160 Off ch=9 n=29 v=80
32160 On ch=9 n=29 v=95
32640 Off ch=9 n=29 v=80
32640 On ch=9 n=32 v=95
33120 Off ch=9 n=32 v=80
33120 On ch=9 n=32 v=95
33600 Off ch=9 n=32 v=80
33600 On ch=9 n=32 v=95
34080 Off ch=9 n=32 v=80
34080 On ch=9 n=32 v=95
34560 Off ch=9 n=32 v=80
34560 On ch=9 n=39 v=95
35520 Off ch=9 n=39 v=80
35520 On ch=9 n=39 v=95
36000 Off ch=9 n=39 v=80
36000 On ch=9 n=39 v=95
36480 Off ch=9 n=39 v=80
36480 On ch=9 n=34 v=95
36960 Off ch=9 n=34 v=80
36960 On ch=9 n=34 v=95
37440 Off ch=9 n=34 v=80
37440 On ch=9 n=34 v=95
37920 Off ch=9 n=34 v=80
37920 On ch=9 n=32 v=95
38400 Off ch=9 n=32 v=80
38400 On ch=9 n=29 v=95
39360 Off ch=9 n=29 v=80
39360 On ch=9 n=29 v=95
39840 Off ch=9 n=29 v=80
39840 On ch=9 n=29 v=95
40320 Off ch=9 n=29 v=80
40320 On ch=9 n=32 v=95
40800 Off ch=9 n=32 v=80
40800 On ch=9 n=32 v=95
41280 Off ch=9 n=32 v=80
41280 On ch=9 n=32 v=95
41760 Off ch=9 n=32 v=80
41760 On ch=9 n=32 v=95
42240 Off ch=9 n=32 v=80
42240 On ch=9 n=39 v=95
43200 Off ch=9 n=39 v=80
43200 On ch=9 n=39 v=95
43680 Off ch=9 n=39 v=80
43680 On ch=9 n=39 v=95
44160 Off ch=9 n=39 v=80
44160 On ch=9 n=34 v=95
44640 Off ch=9 n=34 v=80
44640 On ch=9 n=34 v=95
45120 Off ch=9 n=34 v=80
45120 On ch=9 n=34 v=95
45600 Off ch=9 n=34 v=80
45600 On ch=9 n=32 v=95
46080 Off ch=9 n=32 v=80
46080 On ch=9 n=29 v=95
47040 Off ch=9 n=29 v=80
47040 On ch=9 n=29 v=95
47520 Off ch=9 n=29 v=80
47520 On ch=9 n=29 v=95
48000 Off ch=9 n=29 v=80
48000 On ch=9 n=32 v=95
48480 Off ch=9 n=32 v=80
48480 On ch=9 n=32 v=95
48960 Off ch=9 n=32 v=80
48960 On ch=9 n=32 v=95
49440 Off ch=9 n=32 v=80
49440 On ch=9 n=32 v=95
49920 Off ch=9 n=32 v=80
49920 On ch=9 n=39 v=95
50880 Off ch=9 n=39 v=80
50880 On ch=9 n=39 v=95
51360 Off ch=9 n=39 v=80
51360 On ch=9 n=39 v=95
51840 Off ch=9 n=39 v=80
51840 On ch=9 n=34 v=95
52320 Off ch=9 n=34 v=80
52320 On ch=9 n=34 v=95
52800 Off ch=9 n=34 v=80
52800 On ch=9 n=34 v=95
53280 Off ch=9 n=34 v=80
53280 On ch=9 n=32 v=95
53760 Off ch=9 n=32 v=80
53760 On ch=9 n=29 v=95
54720 Off ch=9 n=29 v=80
54720 On ch=9 n=29 v=95
55200 Off ch=9 n=29 v=80
55200 On ch=9 n=29 v=95
55680 Off ch=9 n=29 v=80
55680 On ch=9 n=32 v=95
56160 Off ch=9 n=32 v=80
56160 On ch=9 n=32 v=95
56640 Off ch=9 n=32 v=80
56640 On ch=9 n=32 v=95
57120 Off ch=9 n=32 v=80
57120 On ch=9 n=32 v=95
57600 Off ch=9 n=32 v=80
57600 On ch=9 n=39 v=95
58560 Off ch=9 n=39 v=80
58560 On ch=9 n=39 v=95
59040 Off ch=9 n=39 v=80
59040 On ch=9 n=39 v=95
59520 Off ch=9 n=39 v=80
59520 On ch=9 n=34 v=95
60000 Off ch=9 n=34 v=80
60000 On ch=9 n=34 v=95
60480 Off ch=9 n=34 v=80
60480 On ch=9 n=34 v=95
60960 Off ch=9 n=34 v=80
60960 On ch=9 n=32 v=95
61440 Off ch=9 n=32 v=80
61440 On ch=9 n=29 v=95
62400 Off ch=9 n=29 v=80
62400 On ch=9 n=29 v=95
62880 Off ch=9 n=29 v=80
62880 On ch=9 n=29 v=95
63360 Off ch=9 n=29 v=80
63360 On ch=9 n=32 v=95
63840 Off ch=9 n=32 v=80
63840 On ch=9 n=32 v=95
64320 Off ch=9 n=32 v=80
64320 On ch=9 n=32 v=95
64800 Off ch=9 n=32 v=80
64800 On ch=9 n=32 v=95
65280 Off ch=9 n=32 v=80
65280 On ch=9 n=39 v=95
66240 Off ch=9 n=39 v=80
66240 On ch=9 n=39 v=95
66720 Off ch=9 n=39 v=80
66720 On ch=9 n=39 v=95
67200 Off ch=9 n=39 v=80
67200 PrCh ch=9 p=34
67200 PrCh ch=11 p=34
67200 On ch=9 n=34 v=95
67680 Off ch=9 n=34 v=80
67680 On ch=9 n=34 v=95
68160 Off ch=9 n=34 v=80
68160 On ch=9 n=34 v=95
68640 Off ch=9 n=34 v=80
68640 On ch=9 n=36 v=95
69120 Off ch=9 n=36 v=80
69120 On ch=9 n=37 v=95
69600 Off ch=9 n=37 v=80
69600 On ch=9 n=37 v=95
70080 Off ch=9 n=37 v=80
70080 On ch=9 n=37 v=95
70560 Off ch=9 n=37 v=80
70560 On ch=9 n=37 v=95
71040 Off ch=9 n=37 v=80
71040 On ch=9 n=32 v=95
71520 Off ch=9 n=32 v=80
71520 On ch=9 n=32 v=95
72000 Off ch=9 n=32 v=80
72000 On ch=9 n=32 v=95
72480 Off ch=9 n=32 v=80
72480 On ch=9 n=32 v=95
72960 Off ch=9 n=32 v=80
72960 On ch=9 n=39 v=95
73440 Off ch=9 n=39 v=80
73440 On ch=9 n=39 v=95
73920 Off ch=9 n=39 v=80
73920 On ch=9 n=39 v=95
74400 Off ch=9 n=39 v=80
74400 On ch=9 n=39 v=95
74880 Off ch=9 n=39 v=80
74880 On ch=9 n=29 v=95
75360 Off ch=9 n=29 v=80
75360 On ch=9 n=29 v=95
75840 Off ch=9 n=29 v=80
75840 On ch=9 n=29 v=95
76320 Off ch=9 n=29 v=80
76320 On ch=9 n=29 v=95
76800 Off ch=9 n=29 v=80
76800 On ch=9 n=37 v=95
77280 Off ch=9 n=37 v=80
77280 On ch=9 n=37 v=95
77760 Off ch=9 n=37 v=80
77760 On ch=9 n=37 v=95
78240 Off ch=9 n=37 v=80
78240 On ch=9 n=37 v=95
78720 Off ch=9 n=37 v=80
78720 On ch=9 n=32 v=95
79200 Off ch=9 n=32 v=80
79200 On ch=9 n=32 v=95
79680 Off ch=9 n=32 v=80
79680 On ch=9 n=32 v=95
80160 Off ch=9 n=32 v=80
80160 On ch=9 n=32 v=95
80640 Off ch=9 n=32 v=80
80640 On ch=9 n=39 v=95
81120 Off ch=9 n=39 v=80
81120 On ch=9 n=39 v=95
81600 Off ch=9 n=39 v=80
81600 On ch=9 n=39 v=95
82080 Off ch=9 n=39 v=80
82080 On ch=9 n=39 v=95
82560 Off ch=9 n=39 v=80
82560 On ch=9 n=29 v=95
83040 Off ch=9 n=29 v=80
83040 On ch=9 n=29 v=95
83520 Off ch=9 n=29 v=80
83520 On ch=9 n=29 v=95
84000 Off ch=9 n=29 v=80
84000 On ch=9 n=29 v=95
84480 Off ch=9 n=29 v=80
84480 On ch=9 n=37 v=95
84960 Off ch=9 n=37 v=80
84960 On ch=9 n=37 v=95
85440 Off ch=9 n=37 v=80
85440 On ch=9 n=37 v=95
85920 Off ch=9 n=37 v=80
85920 On ch=9 n=37 v=95
86400 Off ch=9 n=37 v=80
86400 On ch=9 n=32 v=95
86880 Off ch=9 n=32 v=80
86880 On ch=9 n=32 v=95
87360 Off ch=9 n=32 v=80
87360 On ch=9 n=32 v=95
87840 Off ch=9 n=32 v=80
87840 On ch=9 n=32 v=95
88320 Off ch=9 n=32 v=80
88320 On ch=9 n=39 v=95
88800 Off ch=9 n=39 v=80
88800 On ch=9 n=39 v=95
89280 Off ch=9 n=39 v=80
89280 On ch=9 n=39 v=95
89760 Off ch=9 n=39 v=80
89760 On ch=9 n=39 v=95
90240 Off ch=9 n=39 v=80
90240 On ch=9 n=29 v=95
90720 Off ch=9 n=29 v=80
90720 On ch=9 n=29 v=95
91200 Off ch=9 n=29 v=80
91200 On ch=9 n=29 v=95
91680 Off ch=9 n=29 v=80
91680 On ch=9 n=29 v=95
92160 Off ch=9 n=29 v=80
92160 On ch=9 n=37 v=95
92640 Off ch=9 n=37 v=80
92640 On ch=9 n=37 v=95
93120 Off ch=9 n=37 v=80
93120 On ch=9 n=37 v=95
93600 Off ch=9 n=37 v=80
93600 On ch=9 n=37 v=95
94080 Off ch=9 n=37 v=80
94080 On ch=9 n=32 v=95
94560 Off ch=9 n=32 v=80
94560 On ch=9 n=32 v=95
95040 Off ch=9 n=32 v=80
95040 On ch=9 n=32 v=95
95520 Off ch=9 n=32 v=80
95520 On ch=9 n=32 v=95
96000 Off ch=9 n=32 v=80
96000 On ch=9 n=36 v=95
96480 Off ch=9 n=36 v=80
96480 On ch=9 n=36 v=95
96960 Off ch=9 n=36 v=80
96960 On ch=9 n=36 v=95
97440 Off ch=9 n=36 v=80
97440 On ch=9 n=36 v=95
97920 Off ch=9 n=36 v=80
97920 On ch=9 n=36 v=95
98400 Off ch=9 n=36 v=80
99840 PrCh ch=9 p=33
99840 PrCh ch=11 p=33
99840 On ch=9 n=29 v=95
100800 Off ch=9 n=29 v=80
100800 On ch=9 n=29 v=95
101280 Off ch=9 n=29 v=80
101280 On ch=9 n=29 v=95
101760 Off ch=9 n=29 v=80
101760 On ch=9 n=32 v=95
102240 Off ch=9 n=32 v=80
102240 On ch=9 n=32 v=95
102720 Off ch=9 n=32 v=80
102720 On ch=9 n=32 v=95
103200 Off ch=9 n=32 v=80
103200 On ch=9 n=32 v=95
103680 Off ch=9 n=32 v=80
103680 On ch=9 n=39 v=95
104640 Off ch=9 n=39 v=80
104640 On ch=9 n=39 v=95
105120 Off ch=9 n=39 v=80
105120 On ch=9 n=39 v=95
105600 Off ch=9 n=39 v=80
105600 On ch=9 n=34 v=95
106080 Off ch=9 n=34 v=80
106080 On ch=9 n=34 v=95
106560 Off ch=9 n=34 v=80
106560 On ch=9 n=34 v=95
107040 Off ch=9 n=34 v=80
107040 On ch=9 n=32 v=95
107520 Off ch=9 n=32 v=80
107520 On ch=9 n=29 v=95
108480 Off ch=9 n=29 v=80
108480 On ch=9 n=29 v=95
108960 Off ch=9 n=29 v=80
108960 On ch=9 n=29 v=95
109440 Off ch=9 n=29 v=80
109440 On ch=9 n=32 v=95
109920 Off ch=9 n=32 v=80
109920 On ch=9 n=32 v=95
110400 Off ch=9 n=32 v=80
110400 On ch=9 n=32 v=95
110880 Off ch=9 n=32 v=80
110880 On ch=9 n=32 v=95
111360 Off ch=9 n=32 v=80
111360 On ch=9 n=39 v=95
112320 Off ch=9 n=39 v=80
112320 On ch=9 n=39 v=95
112800 Off ch=9 n=39 v=80
112800 On ch=9 n=39 v=95
113280 Off ch=9 n=39 v=80
113280 On ch=9 n=34 v=95
113760 Off ch=9 n=34 v=80
113760 On ch=9 n=34 v=95
114240 Off ch=9 n=34 v=80
114240 On ch=9 n=34 v=95
114720 Off ch=9 n=34 v=80
114720 On ch=9 n=32 v=95
115200 Off ch=9 n=32 v=80
115200 On ch=9 n=29 v=95
116160 Off ch=9 n=29 v=80
116160 On ch=9 n=29 v=95
116640 Off ch=9 n=29 v=80
116640 On ch=9 n=29 v=95
117120 Off ch=9 n=29 v=80
117120 On ch=9 n=32 v=95
117600 Off ch=9 n=32 v=80
117600 On ch=9 n=32 v=95
118080 Off ch=9 n=32 v=80
118080 On ch=9 n=32 v=95
118560 Off ch=9 n=32 v=80
118560 On ch=9 n=32 v=95
119040 Off ch=9 n=32 v=80
119040 On ch=9 n=39 v=95
120000 Off ch=9 n=39 v=80
120000 On ch=9 n=39 v=95
120480 Off ch=9 n=39 v=80
120480 On ch=9 n=39 v=95
120960 Off ch=9 n=39 v=80
120960 On ch=9 n=34 v=95
121440 Off ch=9 n=34 v=80
121440 On ch=9 n=34 v=95
121920 Off ch=9 n=34 v=80
121920 On ch=9 n=34 v=95
122400 Off ch=9 n=34 v=80
122400 On ch=9 n=32 v=95
122880 Off ch=9 n=32 v=80
122880 On ch=9 n=29 v=95
123840 Off ch=9 n=29 v=80
123840 On ch=9 n=29 v=95
124320 Off ch=9 n=29 v=80
124320 On ch=9 n=29 v=95
124800 Off ch=9 n=29 v=80
124800 On ch=9 n=32 v=95
125280 Off ch=9 n=32 v=80
125280 On ch=9 n=32 v=95
125760 Off ch=9 n=32 v=80
125760 On ch=9 n=32 v=95
126240 Off ch=9 n=32 v=80
126240 On ch=9 n=32 v=95
126720 Off ch=9 n=32 v=80
126720 On ch=9 n=39 v=95
127680 Off ch=9 n=39 v=80
127680 On ch=9 n=39 v=95
128160 Off ch=9 n=39 v=80
128160 On ch=9 n=39 v=95
128640 Off ch=9 n=39 v=80
128640 On ch=9 n=34 v=95
129120 Off ch=9 n=34 v=80
129120 On ch=9 n=34 v=95
129600 Off ch=9 n=34 v=80
129600 On ch=9 n=34 v=95
130080 Off ch=9 n=34 v=80
130080 On ch=9 n=32 v=95
130560 Off ch=9 n=32 v=80
130560 On ch=9 n=29 v=95
131520 Off ch=9 n=29 v=80
131520 On ch=9 n=29 v=95
132000 Off ch=9 n=29 v=80
132000 On ch=9 n=29 v=95
132480 Off ch=9 n=29 v=80
132480 On ch=9 n=32 v=95
132960 Off ch=9 n=32 v=80
132960 On ch=9 n=32 v=95
133440 Off ch=9 n=32 v=80
133440 On ch=9 n=32 v=95
133920 Off ch=9 n=32 v=80
133920 On ch=9 n=32 v=95
134400 Off ch=9 n=32 v=80
134400 On ch=9 n=39 v=95
135360 Off ch=9 n=39 v=80
135360 On ch=9 n=39 v=95
135840 Off ch=9 n=39 v=80
135840 On ch=9 n=39 v=95
136320 Off ch=9 n=39 v=80
136320 On ch=9 n=34 v=95
136800 Off ch=9 n=34 v=80
136800 On ch=9 n=34 v=95
137280 Off ch=9 n=34 v=80
137280 On ch=9 n=34 v=95
137760 Off ch=9 n=34 v=80
137760 On ch=9 n=32 v=95
138240 Off ch=9 n=32 v=80
138240 On ch=9 n=29 v=95
139200 Off ch=9 n=29 v=80
139200 On ch=9 n=29 v=95
139680 Off ch=9 n=29 v=80
139680 On ch=9 n=29 v=95
140160 Off ch=9 n=29 v=80
140160 On ch=9 n=32 v=95
140640 Off ch=9 n=32 v=80
140640 On ch=9 n=32 v=95
141120 Off ch=9 n=32 v=80
141120 On ch=9 n=32 v=95
141600 Off ch=9 n=32 v=80
141600 On ch=9 n=32 v=95
142080 Off ch=9 n=32 v=80
142080 On ch=9 n=39 v=95
143040 Off ch=9 n=39 v=80
143040 On ch=9 n=39 v=95
143520 Off ch=9 n=39 v=80
143520 On ch=9 n=39 v=95
144000 Off ch=9 n=39 v=80
144000 On ch=9 n=34 v=95
144480 Off ch=9 n=34 v=80
144480 On ch=9 n=34 v=95
144960 Off ch=9 n=34 v=80
144960 On ch=9 n=34 v=95
145440 Off ch=9 n=34 v=80
145440 On ch=9 n=32 v=95
145920 Off ch=9 n=32 v=80
145920 On ch=9 n=29 v=95
146880 Off ch=9 n=29 v=80
146880 On ch=9 n=29 v=95
147360 Off ch=9 n=29 v=80
147360 On ch=9 n=29 v=95
147840 Off ch=9 n=29 v=80
147840 On ch=9 n=32 v=95
148320 Off ch=9 n=32 v=80
148320 On ch=9 n=32 v=95
148800 Off ch=9 n=32 v=80
148800 On ch=9 n=32 v=95
149280 Off ch=9 n=32 v=80
149280 On ch=9 n=32 v=95
149760 Off ch=9 n=32 v=80
149760 On ch=9 n=39 v=95
150720 Off ch=9 n=39 v=80
150720 On ch=9 n=39 v=95
151200 Off ch=9 n=39 v=80
151200 On ch=9 n=39 v=95
151680 Off ch=9 n=39 v=80
151680 On ch=9 n=34 v=95
152160 Off ch=9 n=34 v=80
152160 On ch=9 n=34 v=95
152640 Off ch=9 n=34 v=80
152640 On ch=9 n=34 v=95
153120 Off ch=9 n=34 v=80
153120 On ch=9 n=32 v=95
153600 Off ch=9 n=32 v=80
153600 On ch=9 n=29 v=95
154560 Off ch=9 n=29 v=80
154560 On ch=9 n=29 v=95
155040 Off ch=9 n=29 v=80
155040 On ch=9 n=29 v=95
155520 Off ch=9 n=29 v=80
155520 On ch=9 n=32 v=95
156000 Off ch=9 n=32 v=80
156000 On ch=9 n=32 v=95
156480 Off ch=9 n=32 v=80
156480 On ch=9 n=32 v=95
156960 Off ch=9 n=32 v=80
156960 On ch=9 n=32 v=95
157440 Off ch=9 n=32 v=80
157440 On ch=9 n=39 v=95
158400 Off ch=9 n=39 v=80
158400 On ch=9 n=39 v=95
158880 Off ch=9 n=39 v=80
158880 On ch=9 n=39 v=95
159360 Off ch=9 n=39 v=80
159360 On ch=9 n=34 v=95
159840 Off ch=9 n=34 v=80
159840 On ch=9 n=34 v=95
160320 Off ch=9 n=34 v=80
160320 On ch=9 n=34 v=95
160800 Off ch=9 n=34 v=80
160800 On ch=9 n=32 v=95
161280 Off ch=9 n=32 v=80
161280 On ch=9 n=29 v=95
162240 Off ch=9 n=29 v=80
162240 On ch=9 n=29 v=95
162720 Off ch=9 n=29 v=80
162720 On ch=9 n=29 v=95
163200 Off ch=9 n=29 v=80
163200 On ch=9 n=32 v=95
163680 Off ch=9 n=32 v=80
163680 On ch=9 n=32 v=95
164160 Off ch=9 n=32 v=80
164160 On ch=9 n=32 v=95
164640 Off ch=9 n=32 v=80
164640 On ch=9 n=32 v=95
165120 Off ch=9 n=32 v=80
165120 On ch=9 n=39 v=95
166080 Off ch=9 n=39 v=80
166080 On ch=9 n=39 v=95
166560 Off ch=9 n=39 v=80
166560 On ch=9 n=39 v=95
167040 Off ch=9 n=39 v=80
167040 PrCh ch=9 p=34
167040 PrCh ch=11 p=34
167040 On ch=9 n=34 v=95
167520 Off ch=9 n=34 v=80
167520 On ch=9 n=34 v=95
168000 Off ch=9 n=34 v=80
168000 On ch=9 n=34 v=95
168480 Off ch=9 n=34 v=80
168480 On ch=9 n=36 v=95
168960 Off ch=9 n=36 v=80
168960 On ch=9 n=37 v=95
169440 Off ch=9 n=37 v=80
169440 On ch=9 n=37 v=95
169920 Off ch=9 n=37 v=80
169920 On ch=9 n=37 v=95
170400 Off ch=9 n=37 v=80
170400 On ch=9 n=37 v=95
170880 Off ch=9 n=37 v=80
170880 On ch=9 n=32 v=95
171360 Off ch=9 n=32 v=80
171360 On ch=9 n=32 v=95
171840 Off ch=9 n=32 v=80
171840 On ch=9 n=32 v=95
172320 Off ch=9 n=32 v=80
172320 On ch=9 n=32 v=95
172800 Off ch=9 n=32 v=80
172800 On ch=9 n=39 v=95
173280 Off ch=9 n=39 v=80
173280 On ch=9 n=39 v=95
173760 Off ch=9 n=39 v=80
173760 On ch=9 n=39 v=95
174240 Off ch=9 n=39 v=80
174240 On ch=9 n=39 v=95
174720 Off ch=9 n=39 v=80
174720 On ch=9 n=29 v=95
175200 Off ch=9 n=29 v=80
175200 On ch=9 n=29 v=95
175680 Off ch=9 n=29 v=80
175680 On ch=9 n=29 v=95
176160 Off ch=9 n=29 v=80
176160 On ch=9 n=29 v=95
176640 Off ch=9 n=29 v=80
176640 On ch=9 n=37 v=95
177120 Off ch=9 n=37 v=80
177120 On ch=9 n=37 v=95
177600 Off ch=9 n=37 v=80
177600 On ch=9 n=37 v=95
178080 Off ch=9 n=37 v=80
178080 On ch=9 n=37 v=95
178560 Off ch=9 n=37 v=80
178560 On ch=9 n=32 v=95
179040 Off ch=9 n=32 v=80
179040 On ch=9 n=32 v=95
179520 Off ch=9 n=32 v=80
179520 On ch=9 n=32 v=95
180000 Off ch=9 n=32 v=80
180000 On ch=9 n=32 v=95
180480 Off ch=9 n=32 v=80
180480 On ch=9 n=39 v=95
180960 Off ch=9 n=39 v=80
180960 On ch=9 n=39 v=95
181440 Off ch=9 n=39 v=80
181440 On ch=9 n=39 v=95
181920 Off ch=9 n=39 v=80
181920 On ch=9 n=39 v=95
182400 Off ch=9 n=39 v=80
182400 On ch=9 n=29 v=95
182880 Off ch=9 n=29 v=80
182880 On ch=9 n=29 v=95
183360 Off ch=9 n=29 v=80
183360 On ch=9 n=29 v=95
183840 Off ch=9 n=29 v=80
183840 On ch=9 n=29 v=95
184320 Off ch=9 n=29 v=80
184320 On ch=9 n=37 v=95
184800 Off ch=9 n=37 v=80
184800 On ch=9 n=37 v=95
185280 Off ch=9 n=37 v=80
185280 On ch=9 n=37 v=95
185760 Off ch=9 n=37 v=80
185760 On ch=9 n=37 v=95
186240 Off ch=9 n=37 v=80
186240 On ch=9 n=32 v=95
186720 Off ch=9 n=32 v=80
186720 On ch=9 n=32 v=95
187200 Off ch=9 n=32 v=80
187200 On ch=9 n=32 v=95
187680 Off ch=9 n=32 v=80
187680 On ch=9 n=32 v=95
188160 Off ch=9 n=32 v=80
188160 On ch=9 n=39 v=95
188640 Off ch=9 n=39 v=80
188640 On ch=9 n=39 v=95
189120 Off ch=9 n=39 v=80
189120 On ch=9 n=39 v=95
189600 Off ch=9 n=39 v=80
189600 On ch=9 n=39 v=95
190080 Off ch=9 n=39 v=80
190080 On ch=9 n=29 v=95
190560 Off ch=9 n=29 v=80
190560 On ch=9 n=29 v=95
191040 Off ch=9 n=29 v=80
191040 On ch=9 n=29 v=95
191520 Off ch=9 n=29 v=80
191520 On ch=9 n=29 v=95
192000 Off ch=9 n=29 v=80
192000 On ch=9 n=37 v=95
192480 Off ch=9 n=37 v=80
192480 On ch=9 n=37 v=95
192960 Off ch=9 n=37 v=80
192960 On ch=9 n=37 v=95
193440 Off ch=9 n=37 v=80
193440 On ch=9 n=37 v=95
193920 Off ch=9 n=37 v=80
193920 On ch=9 n=32 v=95
194400 Off ch=9 n=32 v=80
194400 On ch=9 n=32 v=95
194880 Off ch=9 n=32 v=80
194880 On ch=9 n=32 v=95
195360 Off ch=9 n=32 v=80
195360 On ch=9 n=32 v=95
195840 Off ch=9 n=32 v=80
195840 On ch=9 n=36 v=95
196320 Off ch=9 n=36 v=80
196320 On ch=9 n=36 v=95
196800 Off ch=9 n=36 v=80
196800 On ch=9 n=36 v=95
197280 Off ch=9 n=36 v=80
197280 On ch=9 n=36 v=95
197760 Off ch=9 n=36 v=80
197760 On ch=9 n=36 v=95
198240 Off ch=9 n=36 v=80
199680 PrCh ch=9 p=33
199680 PrCh ch=11 p=33
199680 On ch=9 n=29 v=95
200640 Off ch=9 n=29 v=80
200640 On ch=9 n=29 v=95
201120 Off ch=9 n=29 v=80
201120 On ch=9 n=29 v=95
201600 Off ch=9 n=29 v=80
201600 On ch=9 n=32 v=95
202080 Off ch=9 n=32 v=80
202080 On ch=9 n=32 v=95
202560 Off ch=9 n=32 v=80
202560 On ch=9 n=32 v=95
203040 Off ch=9 n=32 v=80
203040 On ch=9 n=32 v=95
203520 Off ch=9 n=32 v=80
203520 On ch=9 n=39 v=95
204480 Off ch=9 n=39 v=80
204480 On ch=9 n=39 v=95
204960 Off ch=9 n=39 v=80
204960 On ch=9 n=39 v=95
205440 Off ch=9 n=39 v=80
205440 On ch=9 n=34 v=95
205920 Off ch=9 n=34 v=80
205920 On ch=9 n=34 v=95
206400 Off ch=9 n=34 v=80
206400 On ch=9 n=34 v=95
206880 Off ch=9 n=34 v=80
206880 On ch=9 n=32 v=95
207360 Off ch=9 n=32 v=80
207360 On ch=9 n=29 v=95
208320 Off ch=9 n=29 v=80
208320 On ch=9 n=29 v=95
208800 Off ch=9 n=29 v=80
208800 On ch=9 n=29 v=95
209280 Off ch=9 n=29 v=80
209280 On ch=9 n=32 v=95
209760 Off ch=9 n=32 v=80
209760 On ch=9 n=32 v=95
210240 Off ch=9 n=32 v=80
210240 On ch=9 n=32 v=95
210720 Off ch=9 n=32 v=80
210720 On ch=9 n=32 v=95
211200 Off ch=9 n=32 v=80
211200 On ch=9 n=39 v=95
212160 Off ch=9 n=39 v=80
212160 On ch=9 n=39 v=95
212640 Off ch=9 n=39 v=80
212640 On ch=9 n=39 v=95
213120 Off ch=9 n=39 v=80
213120 PrCh ch=9 p=34
213120 PrCh ch=11 p=34
213120 On ch=9 n=34 v=95
213600 Off ch=9 n=34 v=80
213600 On ch=9 n=34 v=95
214080 Off ch=9 n=34 v=80
214080 On ch=9 n=34 v=95
214560 Off ch=9 n=34 v=80
214560 On ch=9 n=36 v=95
215040 Off ch=9 n=36 v=80
215040 On ch=9 n=37 v=95
215520 Off ch=9 n=37 v=80
215520 On ch=9 n=37 v=95
216000 Off ch=9 n=37 v=80
216000 On ch=9 n=37 v=95
216480 Off ch=9 n=37 v=80
216480 On ch=9 n=37 v=95
216960 Off ch=9 n=37 v=80
216960 On ch=9 n=32 v=95
217440 Off ch=9 n=32 v=80
217440 On ch=9 n=32 v=95
217920 Off ch=9 n=32 v=80
217920 On ch=9 n=32 v=95
218400 Off ch=9 n=32 v=80
218400 On ch=9 n=32 v=95
218880 Off ch=9 n=32 v=80
218880 On ch=9 n=39 v=95
219360 Off ch=9 n=39 v=80
219360 On ch=9 n=39 v=95
219840 Off ch=9 n=39 v=80
219840 On ch=9 n=39 v=95
220320 Off ch=9 n=39 v=80
220320 On ch=9 n=39 v=95
220800 Off ch=9 n=39 v=80
220800 On ch=9 n=29 v=95
221280 Off ch=9 n=29 v=80
221280 On ch=9 n=29 v=95
221760 Off ch=9 n=29 v=80
221760 On ch=9 n=29 v=95
222240 Off ch=9 n=29 v=80
222240 On ch=9 n=29 v=95
222720 Off ch=9 n=29 v=80
222720 On ch=9 n=37 v=95
223200 Off ch=9 n=37 v=80
223200 On ch=9 n=37 v=95
223680 Off ch=9 n=37 v=80
223680 On ch=9 n=37 v=95
224160 Off ch=9 n=37 v=80
224160 On ch=9 n=37 v=95
224640 Off ch=9 n=37 v=80
224640 On ch=9 n=32 v=95
225120 Off ch=9 n=32 v=80
225120 On ch=9 n=32 v=95
225600 Off ch=9 n=32 v=80
225600 On ch=9 n=32 v=95
226080 Off ch=9 n=32 v=80
226080 On ch=9 n=32 v=95
226560 Off ch=9 n=32 v=80
226560 On ch=9 n=39 v=95
227040 Off ch=9 n=39 v=80
227040 On ch=9 n=39 v=95
227520 Off ch=9 n=39 v=80
227520 On ch=9 n=39 v=95
228000 Off ch=9 n=39 v=80
228000 On ch=9 n=39 v=95
228480 Off ch=9 n=39 v=80
228480 On ch=9 n=29 v=95
228960 Off ch=9 n=29 v=80
228960 On ch=9 n=29 v=95
229440 Off ch=9 n=29 v=80
229440 On ch=9 n=29 v=95
229920 Off ch=9 n=29 v=80
229920 On ch=9 n=29 v=95
230400 Off ch=9 n=29 v=80
230400 On ch=9 n=37 v=95
230880 Off ch=9 n=37 v=80
230880 On ch=9 n=37 v=95
231360 Off ch=9 n=37 v=80
232320 On ch=9 n=32 v=95
232800 Off ch=9 n=32 v=80
232800 On ch=9 n=32 v=95
233280 Off ch=9 n=32 v=80
234240 On ch=9 n=39 v=95
234720 Off ch=9 n=39 v=80
234720 On ch=9 n=39 v=95
235200 Off ch=9 n=39 v=80
235200 On ch=9 n=39 v=95
235680 Off ch=9 n=39 v=80
235680 On ch=9 n=39 v=95
236160 Off ch=9 n=39 v=80
236160 On ch=9 n=29 v=95
236640 Off ch=9 n=29 v=80
236640 On ch=9 n=29 v=95
237120 Off ch=9 n=29 v=80
237120 On ch=9 n=29 v=95
237600 Off ch=9 n=29 v=80
237600 On ch=9 n=29 v=95
238080 Off ch=9 n=29 v=80
238080 On ch=9 n=37 v=95
238560 Off ch=9 n=37 v=80
238560 On ch=9 n=37 v=95
239040 Off ch=9 n=37 v=80
240000 On ch=9 n=32 v=95
240480 Off ch=9 n=32 v=80
240480 On ch=9 n=32 v=95
240960 Off ch=9 n=32 v=80
241440 On ch=11 n=43 v=95
241680 Pb ch=11 v=7552
241720 Pb ch=11 v=6784
241760 Pb ch=11 v=6144
241800 Pb ch=11 v=5504
241840 Pb ch=11 v=4736
241880 Pb ch=11 v=4096
241920 Off ch=11 n=43 v=80
241920 Pb ch=11 v=8192
241920 On ch=9 n=36 v=86
242400 Off ch=9 n=36 v=80
242400 On ch=9 n=36 v=95
242880 Off ch=9 n=36 v=80
242880 On ch=9 n=36 v=95
243360 Off ch=9 n=36 v=80
243360 On ch=9 n=36 v=95
243840 Off ch=9 n=36 v=80
243840 On ch=9 n=36 v=95
244320 Off ch=9 n=36 v=80
244320 On ch=9 n=36 v=95
244800 Off ch=9 n=36 v=80
244800 On ch=9 n=36 v=95
245280 Off ch=9 n=36 v=80
245280 On ch=9 n=36 v=95
245760 Off ch=9 n=36 v=80
245760 On ch=9 n=36 v=95
246240 Off ch=9 n=36 v=80
246240 On ch=9 n=36 v=95
246720 Off ch=9 n=36 v=80
246720 On ch=9 n=36 v=95
247200 Off ch=9 n=36 v=80
247200 On ch=9 n=36 v=95
247680 Off ch=9 n=36 v=80
247680 On ch=9 n=36 v=95
248160 Off ch=9 n=36 v=80
263040 PrCh ch=9 p=34
263040 PrCh ch=11 p=34
263520 On ch=9 n=34 v=95
264000 Off ch=9 n=34 v=80
264000 On ch=9 n=34 v=95
264480 Off ch=9 n=34 v=80
264480 On ch=9 n=36 v=95
264960 Off ch=9 n=36 v=80
264960 On ch=9 n=37 v=95
265440 Off ch=9 n=37 v=80
265440 On ch=9 n=37 v=95
265920 Off ch=9 n=37 v=80
265920 On ch=9 n=37 v=95
266400 Off ch=9 n=37 v=80
266400 On ch=9 n=37 v=95
266880 Off ch=9 n=37 v=80
266880 On ch=9 n=32 v=95
267360 Off ch=9 n=32 v=80
267360 On ch=9 n=32 v=95
267840 Off ch=9 n=32 v=80
267840 On ch=9 n=32 v=95
268320 Off ch=9 n=32 v=80
268320 On ch=9 n=32 v=95
268800 Off ch=9 n=32 v=80
268800 On ch=9 n=39 v=95
269280 Off ch=9 n=39 v=80
269280 On ch=9 n=39 v=95
269760 Off ch=9 n=39 v=80
269760 On ch=9 n=39 v=95
270240 Off ch=9 n=39 v=80
270240 On ch=9 n=39 v=95
270720 Off ch=9 n=39 v=80
270720 On ch=9 n=29 v=95
271200 Off ch=9 n=29 v=80
271200 On ch=9 n=29 v=95
271680 Off ch=9 n=29 v=80
271680 On ch=9 n=29 v=95
272160 Off ch=9 n=29 v=80
272160 On ch=9 n=29 v=95
272640 Off ch=9 n=29 v=80
272640 On ch=9 n=37 v=95
273120 Off ch=9 n=37 v=80
273120 On ch=9 n=37 v=95
273600 Off ch=9 n=37 v=80
273600 On ch=9 n=37 v=95
274080 Off ch=9 n=37 v=80
274080 On ch=9 n=37 v=95
274560 Off ch=9 n=37 v=80
274560 On ch=9 n=32 v=95
275040 Off ch=9 n=32 v=80
275040 On ch=9 n=32 v=95
275520 Off ch=9 n=32 v=80
275520 On ch=9 n=32 v=95
276000 Off ch=9 n=32 v=80
276000 On ch=9 n=32 v=95
276480 Off ch=9 n=32 v=80
276480 On ch=9 n=39 v=95
276960 Off ch=9 n=39 v=80
276960 On ch=9 n=39 v=95
277440 Off ch=9 n=39 v=80
277440 On ch=9 n=39 v=95
277920 Off ch=9 n=39 v=80
277920 On ch=9 n=39 v=95
278400 Off ch=9 n=39 v=80
278400 On ch=9 n=29 v=95
278880 Off ch=9 n=29 v=80
278880 On ch=9 n=29 v=95
279360 Off ch=9 n=29 v=80
279360 On ch=9 n=29 v=95
279840 Off ch=9 n=29 v=80
279840 On ch=9 n=29 v=95
280320 Off ch=9 n=29 v=80
280320 On ch=9 n=37 v=95
280800 Off ch=9 n=37 v=80
280800 On ch=9 n=37 v=95
281280 Off ch=9 n=37 v=80
281280 On ch=9 n=37 v=95
281760 Off ch=9 n=37 v=80
281760 On ch=9 n=37 v=95
282240 Off ch=9 n=37 v=80
282240 On ch=9 n=32 v=95
282720 Off ch=9 n=32 v=80
282720 On ch=9 n=32 v=95
283200 Off ch=9 n=32 v=80
283200 On ch=9 n=32 v=95
283680 Off ch=9 n=32 v=80
283680 On ch=9 n=32 v=95
284160 Off ch=9 n=32 v=80
284160 On ch=9 n=39 v=95
284640 Off ch=9 n=39 v=80
284640 On ch=9 n=39 v=95
285120 Off ch=9 n=39 v=80
285120 On ch=9 n=39 v=95
285600 Off ch=9 n=39 v=80
285600 On ch=9 n=39 v=95
286080 Off ch=9 n=39 v=80
286080 On ch=9 n=29 v=95
286560 Off ch=9 n=29 v=80
286560 On ch=9 n=29 v=95
287040 Off ch=9 n=29 v=80
287040 On ch=9 n=29 v=95
287520 Off ch=9 n=29 v=80
287520 On ch=9 n=29 v=95
288000 Off ch=9 n=29 v=80
288000 On ch=9 n=37 v=95
288480 Off ch=9 n=37 v=80
288480 On ch=9 n=37 v=95
288960 Off ch=9 n=37 v=80
288960 On ch=9 n=37 v=95
289440 Off ch=9 n=37 v=80
289440 On ch=9 n=37 v=95
289920 Off ch=9 n=37 v=80
289920 On ch=9 n=32 v=95
290400 Off ch=9 n=32 v=80
290400 On ch=9 n=32 v=95
290880 Off ch=9 n=32 v=80
290880 On ch=9 n=32 v=95
291360 Off ch=9 n=32 v=80
291360 On ch=9 n=32 v=95
291840 Off ch=9 n=32 v=80
291840 On ch=9 n=36 v=95
292320 Off ch=9 n=36 v=80
292320 On ch=9 n=36 v=95
292800 Off ch=9 n=36 v=80
292800 On ch=9 n=36 v=95
293280 Off ch=9 n=36 v=80
293280 On ch=9 n=36 v=95
293760 Off ch=9 n=36 v=80
293760 On ch=9 n=36 v=95
294240 Off ch=9 n=36 v=80
294240 On ch=9 n=36 v=95
294720 Off ch=9 n=36 v=80
294720 On ch=9 n=36 v=95
295200 Off ch=9 n=36 v=80
295200 On ch=9 n=36 v=95
295680 Off ch=9 n=36 v=80
295680 On ch=9 n=36 v=95
296160 Off ch=9 n=36 v=80
296160 On ch=9 n=36 v=95
296640 Off ch=9 n=36 v=80
296640 On ch=9 n=36 v=95
297120 Off ch=9 n=36 v=80
297120 On ch=9 n=36 v=95
297600 Off ch=9 n=36 v=80
297600 On ch=9 n=36 v=95
298080 Off ch=9 n=36 v=80
298080 On ch=9 n=36 v=95
298560 Off ch=9 n=36 v=80
298560 On ch=9 n=36 v=95
299040 Off ch=9 n=36 v=80
299040 On ch=11 n=36 v=95
299424 Pb ch=11 v=8832
299520 Off ch=11 n=36 v=80
299520 Pb ch=11 v=8192
299520 On ch=9 n=29 v=95
300480 Off ch=9 n=29 v=80
300480 On ch=9 n=29 v=95
300960 Off ch=9 n=29 v=80
300960 On ch=9 n=29 v=95
301440 Off ch=9 n=29 v=80
301440 On ch=9 n=37 v=86
302400 Off ch=9 n=37 v=80
302400 On ch=9 n=37 v=95
302880 Off ch=9 n=37 v=80
302880 On ch=9 n=37 v=95
303360 Off ch=9 n=37 v=80
303360 On ch=9 n=39 v=95
304320 Off ch=9 n=39 v=80
304320 On ch=9 n=39 v=95
304800 Off ch=9 n=39 v=80
304800 On ch=9 n=39 v=95
305280 Off ch=9 n=39 v=80
305280 On ch=9 n=38 v=95
306240 Off ch=9 n=38 v=80
306240 On ch=9 n=38 v=95
306720 Off ch=9 n=38 v=80
306720 On ch=9 n=38 v=95
307200 Off ch=9 n=38 v=80
307200 On ch=9 n=32 v=95
308160 Off ch=9 n=32 v=80
308160 On ch=9 n=32 v=95
308640 Off ch=9 n=32 v=80
308640 On ch=9 n=32 v=95
309120 Off ch=9 n=32 v=80
309120 On ch=9 n=28 v=95
310080 Off ch=9 n=28 v=80
310080 On ch=9 n=28 v=95
310560 Off ch=9 n=28 v=80
310560 On ch=9 n=28 v=95
311040 Off ch=9 n=28 v=80
311040 On ch=9 n=29 v=95
312000 Off ch=9 n=29 v=80
312000 On ch=9 n=29 v=95
312480 Off ch=9 n=29 v=80
312480 On ch=9 n=29 v=95
312960 Off ch=9 n=29 v=80
312960 On ch=9 n=37 v=95
313920 Off ch=9 n=37 v=80
313920 On ch=9 n=37 v=95
314400 Off ch=9 n=37 v=80
314400 On ch=9 n=37 v=95
314880 Off ch=9 n=37 v=80
314880 On ch=9 n=39 v=95
315840 Off ch=9 n=39 v=80
315840 On ch=9 n=39 v=95
316320 Off ch=9 n=39 v=80
316320 On ch=9 n=39 v=95
316800 Off ch=9 n=39 v=80
316800 On ch=9 n=38 v=95
317760 Off ch=9 n=38 v=80
317760 On ch=9 n=38 v=95
318240 Off ch=9 n=38 v=80
318240 On ch=9 n=38 v=95
318720 Off ch=9 n=38 v=80
318720 On ch=9 n=32 v=95
319680 Off ch=9 n=32 v=80
319680 On ch=9 n=32 v=95
320160 Off ch=9 n=32 v=80
320160 On ch=9 n=32 v=95
320640 Off ch=9 n=32 v=80
320640 On ch=9 n=28 v=95
321600 Off ch=9 n=28 v=80
321600 On ch=9 n=28 v=95
322080 Off ch=9 n=28 v=80
322080 On ch=9 n=28 v=95
322560 Off ch=9 n=28 v=80
322560 On ch=9 n=29 v=95
323520 Off ch=9 n=29 v=80
323520 On ch=9 n=29 v=95
324000 Off ch=9 n=29 v=80
324000 On ch=9 n=29 v=95
324480 Off ch=9 n=29 v=80
324480 On ch=9 n=37 v=95
325440 Off ch=9 n=37 v=80
325440 On ch=9 n=37 v=95
325920 Off ch=9 n=37 v=80
325920 On ch=9 n=37 v=95
326400 Off ch=9 n=37 v=80
326400 On ch=9 n=39 v=95
327360 Off ch=9 n=39 v=80
327360 On ch=9 n=39 v=95
327840 Off ch=9 n=39 v=80
327840 On ch=9 n=39 v=95
328320 Off ch=9 n=39 v=80
328320 On ch=9 n=38 v=95
329280 Off ch=9 n=38 v=80
329280 On ch=9 n=38 v=95
329760 Off ch=9 n=38 v=80
329760 On ch=9 n=38 v=95
330240 Off ch=9 n=38 v=80
330240 On ch=9 n=32 v=95
331200 Off ch=9 n=32 v=80
331200 On ch=9 n=32 v=95
331680 Off ch=9 n=32 v=80
331680 On ch=9 n=32 v=95
332160 Off ch=9 n=32 v=80
332160 On ch=9 n=28 v=95
333120 Off ch=9 n=28 v=80
333120 On ch=9 n=28 v=95
333600 Off ch=9 n=28 v=80
333600 On ch=9 n=28 v=95
334080 Off ch=9 n=28 v=80
334080 On ch=9 n=29 v=95
335040 Off ch=9 n=29 v=80
335040 On ch=9 n=29 v=95
335520 Off ch=9 n=29 v=80
335520 On ch=9 n=29 v=95
336000 Off ch=9 n=29 v=80
336000 On ch=9 n=37 v=95
336960 Off ch=9 n=37 v=80
336960 On ch=9 n=37 v=95
337440 Off ch=9 n=37 v=80
337440 On ch=9 n=37 v=95
337920 Off ch=9 n=37 v=80
337920 On ch=9 n=39 v=95
338880 Off ch=9 n=39 v=80
338880 On ch=9 n=39 v=95
339360 Off ch=9 n=39 v=80
339360 On ch=9 n=39 v=95
339840 Off ch=9 n=39 v=80
339840 On ch=9 n=38 v=95
340800 Off ch=9 n=38 v=80
340800 On ch=9 n=38 v=95
341280 Off ch=9 n=38 v=80
341280 On ch=9 n=38 v=95
341760 Off ch=9 n=38 v=80
341760 On ch=9 n=32 v=95
342240 Off ch=9 n=32 v=80
342240 On ch=9 n=32 v=95
342720 Off ch=9 n=32 v=80
342720 On ch=9 n=28 v=95
343200 Off ch=9 n=28 v=80
343200 On ch=9 n=28 v=95
343680 Off ch=9 n=28 v=80
343680 Meta TrkEnd
TrkEnd
MTrk
0 Meta TrkName "Tr\xe8 Cool (Drums)"
0 Par ch=10 c=100 v=0
0 Par ch=10 c=101 v=0
0 Par ch=10 c=6 v=12
0 Pb ch=10 v=8192
0 PrCh ch=10 p=0
0 Par ch=10 c=7 v=104
0 Par ch=10 c=10 v=64
0 Par ch=10 c=93 v=0
0 Par ch=10 c=91 v=0
0 Par ch=10 c=92 v=0
0 Par ch=10 c=95 v=0
0 Par ch=10 c=93 v=127
0 Par ch=10 c=91 v=127
23040 Par ch=10 c=93 v=127
23040 Par ch=10 c=91 v=127
23040 On ch=10 n=57 v=95
23040 On ch=10 n=49 v=95
23040 On ch=10 n=36 v=95
23040 On ch=10 n=36 v=95
23520 Off ch=10 n=57 v=80
23520 Off ch=10 n=49 v=80
23520 Off ch=10 n=36 v=80
23520 Off ch=10 n=36 v=80
24000 On ch=10 n=44 v=95
24000 On ch=10 n=38 v=95
24000 On ch=10 n=38 v=95
24480 Off ch=10 n=44 v=80
24480 Off ch=10 n=38 v=80
24480 Off ch=10 n=38 v=80
24480 On ch=10 n=44 v=95
24480 On ch=10 n=36 v=95
24480 On ch=10 n=36 v=95
24960 Off ch=10 n=44 v=80
24960 Off ch=10 n=36 v=80
24960 Off ch=10 n=36 v=80
24960 On ch=10 n=44 v=95
24960 On ch=10 n=36 v=95
24960 On ch=10 n=36 v=95
25440 Off ch=10 n=44 v=80
25440 Off ch=10 n=36 v=80
25440 Off ch=10 n=36 v=80
25440 On ch=10 n=44 v=95
25440 On ch=10 n=36 v=95
25440 On ch=10 n=36 v=95
25920 Off ch=10 n=44 v=80
25920 Off ch=10 n=36 v=80
25920 Off ch=10 n=36 v=80
25920 On ch=10 n=44 v=95
25920 On ch=10 n=38 v=95
25920 On ch=10 n=38 v=95
26400 Off ch=10 n=44 v=80
26400 Off ch=10 n=38 v=80
26400 Off ch=10 n=38 v=80
26400 On ch=10 n=44 v=95
26400 On ch=10 n=36 v=95
26400 On ch=10 n=36 v=95
26880 Off ch=10 n=44 v=80
26880 Off ch=10 n=36 v=80
26880 Off ch=10 n=36 v=80
26880 On ch=10 n=44 v=95
26880 On ch=10 n=36 v=95
26880 On ch=10 n=36 v=95
27360 Off ch=10 n=44 v=80
27360 Off ch=10 n=36 v=80
27360 Off ch=10 n=36 v=80
27360 On ch=10 n=44 v=95
27360 On ch=10 n=36 v=95
27360 On ch=10 n=36 v=95
27840 Off ch=10 n=44 v=80
27840 Off ch=10 n=36 v=80
27840 Off ch=10 n=36 v=80
27840 On ch=10 n=44 v=95
27840 On ch=10 n=38 v=95
27840 On ch=10 n=38 v=95
28320 Off ch=10 n=44 v=80
28320 Off ch=10 n=38 v=80
28320 Off ch=10 n=38 v=80
28320 On ch=10 n=44 v=95
28320 On ch=10 n=36 v=95
28320 On ch=10 n=36 v=95
28800 Off ch=10 n=44 v=80
28800 Off ch=10 n=36 v=80
28800 Off ch=10 n=36 v=80
28800 On ch=10 n=44 v=95
28800 On ch=10 n=36 v=95
28800 On ch=10 n=36 v=95
29280 Off ch=10 n=44 v=80
29280 Off ch=10 n=36 v=80
29280 Off ch=10 n=36 v=80
29280 On ch=10 n=44 v=95
29280 On ch=10 n=36 v=95
29280 On ch=10 n=36 v=95
29760 Off ch=10 n=44 v=80
29760 Off ch=10 n=36 v=80
29760 Off ch=10 n=36 v=80
29760 On ch=10 n=44 v=95
29760 On ch=10 n=38 v=95
29760 On ch=10 n=38 v=95
30240 Off ch=10 n=44 v=80
30240 Off ch=10 n=38 v=80
30240 Off ch=10 n=38 v=80
30240 On ch=10 n=44 v=95
30240 On ch=10 n=36 v=95
30240 On ch=10 n=36 v=95
30720 Off ch=10 n=44 v=80
30720 Off ch=10 n=36 v=80
30720 Off ch=10 n=36 v=80
30720 On ch=10 n=44 v=95
30720 On ch=10 n=36 v=95
30720 On ch=10 n=36 v=95
31200 Off ch=10 n=44 v=80
31200 Off ch=10 n=36 v=80
31200 Off ch=10 n=36 v=80
31200 On ch=10 n=44 v=95
31200 On ch=10 n=36 v=95
31200 On ch=10 n=36 v=95
31680 Off ch=10 n=44 v=80
31680 Off ch=10 n=36 v=80
31680 Off ch=10 n=36 v=80
31680 On ch=10 n=44 v=95
31680 On ch=10 n=38 v=95
31680 On ch=10 n=38 v=95
32160 Off ch=10 n=44 v=80
32160 Off ch=10 n=38 v=80
32160 Off ch=10 n=38 v=80
32160 On ch=10 n=44 v=95
32160 On ch=10 n=36 v=95
32160 On ch=10 n=36 v=95
32640 Off ch=10 n=44 v=80
32640 Off ch=10 n=36 v=80
32640 Off ch=10 n=36 v=80
32640 On ch=10 n=44 v=95
32640 On ch=10 n=36 v=95
32640 On ch=10 n=36 v=95
33120 Off ch=10 n=44 v=80
33120 Off ch=10 n=36 v=80
33120 Off ch=10 n=36 v=80
33120 On ch=10 n=44 v=95
33120 On ch=10 n=36 v=95
33120 On ch=10 n=36 v=95
33600 Off ch=10 n=44 v=80
33600 Off ch=10 n=36 v=80
33600 Off ch=10 n=36 v=80
33600 On ch=10 n=44 v=95
33600 On ch=10 n=38 v=95
33600 On ch=10 n=38 v=95
34080 Off ch=10 n=44 v=80
34080 Off ch=10 n=38 v=80
34080 Off ch=10 n=38 v=80
34080 On ch=10 n=44 v=95
34080 On ch=10 n=36 v=95
34080 On ch=10 n=36 v=95
34560 Off ch=10 n=44 v=80
34560 Off ch=10 n=36 v=80
34560 Off ch=10 n=36 v=80
34560 On ch=10 n=44 v=95
34560 On ch=10 n=36 v=95
34560 On ch=10 n=36 v=95
35040 Off ch=10 n=44 v=80
35040 Off ch=10 n=36 v=80
35040 Off ch=10 n=36 v=80
35040 On ch=10 n=44 v=95
35040 On ch=10 n=36 v=95
35040 On ch=10 n=36 v=95
35520 Off ch=10 n=44 v=80
35520 Off ch=10 n=36 v=80
35520 Off ch=10 n=36 v=80
35520 On ch=10 n=44 v=95
35520 On ch=10 n=38 v=95
35520 On ch=10 n=38 v=95
36000 Off ch=10 n=44 v=80
36000 Off ch=10 n=38 v=80
36000 Off ch=10 n=38 v=80
36000 On ch=10 n=44 v=95
36000 On ch=10 n=36 v=95
36000 On ch=10 n=36 v=95
36480 Off ch=10 n=44 v=80
36480 Off ch=10 n=36 v=80
36480 Off ch=10 n=36 v=80
36480 On ch=10 n=44 v=95
36480 On ch=10 n=36 v=95
36480 On ch=10 n=36 v=95
36960 Off ch=10 n=44 v=80
36960 Off ch=10 n=36 v=80
36960 Off ch=10 n=36 v=80
36960 On ch=10 n=44 v=95
36960 On ch=10 n=36 v=95
36960 On ch=10 n=36 v=95
37440 Off ch=10 n=44 v=80
37440 Off ch=10 n=36 v=80
37440 Off ch=10 n=36 v=80
37440 On ch=10 n=44 v=95
37440 On ch=10 n=38 v=95
37440 On ch=10 n=38 v=95
37920 Off ch=10 n=44 v=80
37920 Off ch=10 n=38 v=80
37920 Off ch=10 n=38 v=80
37920 On ch=10 n=44 v=95
37920 On ch=10 n=36 v=95
37920 On ch=10 n=36 v=95
38400 Off ch=10 n=44 v=80
38400 Off ch=10 n=36 v=80
38400 Off ch=10 n=36 v=80
38400 On ch=10 n=57 v=95
38400 On ch=10 n=49 v=95
38400 On ch=10 n=36 v=95
38400 On ch=10 n=36 v=95
38880 Off ch=10 n=57 v=80
38880 Off ch=10 n=49 v=80
38880 Off ch=10 n=36 v=80
38880 Off ch=10 n=36 v=80
39360 On ch=10 n=44 v=95
39360 On ch=10 n=38 v=95
39360 On ch=10 n=38 v=95
39840 Off ch=10 n=44 v=80
39840 Off ch=10 n=38 v=80
39840 Off ch=10 n=38 v=80
39840 On ch=10 n=44 v=95
39840 On ch=10 n=36 v=95
39840 On ch=10 n=36 v=95
40320 Off ch=10 n=44 v=80
40320 Off ch=10 n=36 v=80
40320 Off ch=10 n=36 v=80
40320 On ch=10 n=44 v=95
40320 On ch=10 n=36 v=95
40320 On ch=10 n=36 v=95
40800 Off ch=10 n=44 v=80
40800 Off ch=10 n=36 v=80
40800 Off ch=10 n=36 v=80
40800 On ch=10 n=44 v=95
40800 On ch=10 n=36 v=95
40800 On ch=10 n=36 v=95
41280 Off ch=10 n=44 v=80
41280 Off ch=10 n=36 v=80
41280 Off ch=10 n=36 v=80
41280 On ch=10 n=44 v=95
41280 On ch=10 n=38 v=95
41280 On ch=10 n=38 v=95
41760 Off ch=10 n=44 v=80
41760 Off ch=10 n=38 v=80
41760 Off ch=10 n=38 v=80
41760 On ch=10 n=44 v=95
41760 On ch=10 n=36 v=95
41760 On ch=10 n=36 v=95
42240 Off ch=10 n=44 v=80
42240 Off ch=10 n=36 v=80
42240 Off ch=10 n=36 v=80
42240 On ch=10 n=44 v=95
42240 On ch=10 n=36 v=95
42240 On ch=10 n=36 v=95
42720 Off ch=10 n=44 v=80
42720 Off ch=10 n=36 v=80
42720 Off ch=10 n=36 v=80
42720 On ch=10 n=44 v=95
42720 On ch=10 n=36 v=95
42720 On ch=10 n=36 v=95
43200 Off ch=10 n=44 v=80
43200 Off ch=10 n=36 v=80
43200 Off ch=10 n=36 v=80
43200 On ch=10 n=44 v=95
43200 On ch=10 n=38 v=95
43200 On ch=10 n=38 v=95
43680 Off ch=10 n=44 v=80
43680 Off ch=10 n=38 v=80
43680 Off ch=10 n=38 v=80
43680 On ch=10 n=44 v=95
43680 On ch=10 n=36 v=95
43680 On ch=10 n=36 v=95
44160 Off ch=10 n=44 v=80
44160 Off ch=10 n=36 v=80
44160 Off ch=10 n=36 v=80
44160 On ch=10 n=44 v=95
44160 On ch=10 n=36 v=95
44160 On ch=10 n=36 v=95
44640 Off ch=10 n=44 v=80
44640 Off ch=10 n=36 v=80
44640 Off ch=10 n=36 v=80
44640 On ch=10 n=44 v=95
44640 On ch=10 n=36 v=95
44640 On ch=10 n=36 v=95
45120 Off ch=10 n=44 v=80
45120 Off ch=10 n=36 v=80
45120 Off ch=10 n=36 v=80
45120 On ch=10 n=44 v=95
45120 On ch=10 n=38 v=95
45120 On ch=10 n=38 v=95
45600 Off ch=10 n=44 v=80
45600 Off ch=10 n=38 v=80
45600 Off ch=10 n=38 v=80
45600 On ch=10 n=44 v=95
45600 On ch=10 n=36 v=95
45600 On ch=10 n=36 v=95
46080 Off ch=10 n=44 v=80
46080 Off ch=10 n=36 v=80
46080 Off ch=10 n=36 v=80
46080 On ch=10 n=44 v=95
46080 On ch=10 n=36 v=95
46080 On ch=10 n=36 v=95
46560 Off ch=10 n=44 v=80
46560 Off ch=10 n=36 v=80
46560 Off ch=10 n=36 v=80
46560 On ch=10 n=44 v=95
46560 On ch=10 n=36 v=95
46560 On ch=10 n=36 v=95
47040 Off ch=10 n=44 v=80
47040 Off ch=10 n=36 v=80
47040 Off ch=10 n=36 v=80
47040 On ch=10 n=44 v=95
47040 On ch=10 n=38 v=95
47040 On ch=10 n=38 v=95
47520 Off ch=10 n=44 v=80
47520 Off ch=10 n=38 v=80
47520 Off ch=10 n=38 v=80
47520 On ch=10 n=44 v=95
47520 On ch=10 n=36 v=95
47520 On ch=10 n=36 v=95
48000 Off ch=10 n=44 v=80
48000 Off ch=10 n=36 v=80
48000 Off ch=10 n=36 v=80
48000 On ch=10 n=44 v=95
48000 On ch=10 n=36 v=95
48000 On ch=10 n=36 v=95
48480 Off ch=10 n=44 v=80
48480 Off ch=10 n=36 v=80
48480 Off ch=10 n=36 v=80
48480 On ch=10 n=44 v=95
48480 On ch=10 n=36 v=95
48480 On ch=10 n=36 v=95
48960 Off ch=10 n=44 v=80
48960 Off ch=10 n=36 v=80
48960 Off ch=10 n=36 v=80
48960 On ch=10 n=44 v=95
48960 On ch=10 n=38 v=95
48960 On ch=10 n=38 v=95
49440 Off ch=10 n=44 v=80
49440 Off ch=10 n=38 v=80
49440 Off ch=10 n=38 v=80
49440 On ch=10 n=44 v=95
49440 On ch=10 n=36 v=95
49440 On ch=10 n=36 v=95
49920 Off ch=10 n=44 v=80
49920 Off ch=10 n=36 v=80
49920 Off ch=10 n=36 v=80
49920 On ch=10 n=44 v=95
49920 On ch=10 n=36 v=95
49920 On ch=10 n=36 v=95
50400 Off ch=10 n=44 v=80
50400 Off ch=10 n=36 v=80
50400 Off ch=10 n=36 v=80
50400 On ch=10 n=44 v=95
50400 On ch=10 n=36 v=95
50400 On ch=10 n=36 v=95
50880 Off ch=10 n=44 v=80
50880 Off ch=10 n=36 v=80
50880 Off ch=10 n=36 v=80
50880 On ch=10 n=44 v=95
50880 On ch=10 n=38 v=95
50880 On ch=10 n=38 v=95
51360 Off ch=10 n=44 v=80
51360 Off ch=10 n=38 v=80
51360 Off ch=10 n=38 v=80
51360 On ch=10 n=44 v=95
51360 On ch=10 n=36 v=95
51360 On ch=10 n=36 v=95
51840 Off ch=10 n=44 v=80
51840 Off ch=10 n=36 v=80
51840 Off ch=10 n=36 v=80
51840 On ch=10 n=44 v=95
51840 On ch=10 n=36 v=95
51840 On ch=10 n=36 v=95
52320 Off ch=10 n=44 v=80
52320 Off ch=10 n=36 v=80
52320 Off ch=10 n=36 v=80
52320 On ch=10 n=44 v=95
52320 On ch=10 n=36 v=95
52320 On ch=10 n=36 v=95
52800 Off ch=10 n=44 v=80
52800 Off ch=10 n=36 v=80
52800 Off ch=10 n=36 v=80
52800 On ch=10 n=44 v=95
52800 On ch=10 n=38 v=95
52800 On ch=10 n=38 v=95
53280 Off ch=10 n=44 v=80
53280 Off ch=10 n=38 v=80
53280 Off ch=10 n=38 v=80
53280 On ch=10 n=44 v=95
53280 On ch=10 n=36 v=95
53280 On ch=10 n=36 v=95
53760 Off ch=10 n=44 v=80
53760 Off ch=10 n=36 v=80
53760 Off ch=10 n=36 v=80
53760 On ch=10 n=44 v=95
53760 On ch=10 n=36 v=95
53760 On ch=10 n=36 v=95
54240 Off ch=10 n=44 v=80
54240 Off ch=10 n=36 v=80
54240 Off ch=10 n=36 v=80
54240 On ch=10 n=44 v=95
54240 On ch=10 n=36 v=95
54240 On ch=10 n=36 v=95
54720 Off ch=10 n=44 v=80
54720 Off ch=10 n=36 v=80
54720 Off ch=10 n=36 v=80
54720 On ch=10 n=44 v=95
54720 On ch=10 n=38 v=95
54720 On ch=10 n=38 v=95
55200 Off ch=10 n=44 v=80
55200 Off ch=10 n=38 v=80
55200 Off ch=10 n=38 v=80
55200 On ch=10 n=44 v=95
55200 On ch=10 n=36 v=95
55200 On ch=10 n=36 v=95
55680 Off ch=10 n=44 v=80
55680 Off ch=10 n=36 v=80
55680 Off ch=10 n=36 v=80
55680 On ch=10 n=44 v=95
55680 On ch=10 n=36 v=95
55680 On ch=10 n=36 v=95
56160 Off ch=10 n=44 v=80
56160 Off ch=10 n=36 v=80
56160 Off ch=10 n=36 v=80
56160 On ch=10 n=44 v=95
56160 On ch=10 n=36 v=95
56160 On ch=10 n=36 v=95
56640 Off ch=10 n=44 v=80
56640 Off ch=10 n=36 v=80
56640 Off ch=10 n=36 v=80
56640 On ch=10 n=44 v=95
56640 On ch=10 n=38 v=95
56640 On ch=10 n=38 v=95
57120 Off ch=10 n=44 v=80
57120 Off ch=10 n=38 v=80
57120 Off ch=10 n=38 v=80
57120 On ch=10 n=44 v=95
57120 On ch=10 n=36 v=95
57120 On ch=10 n=36 v=95
57600 Off ch=10 n=44 v=80
57600 Off ch=10 n=36 v=80
57600 Off ch=10 n=36 v=80
57600 On ch=10 n=44 v=95
57600 On ch=10 n=36 v=95
57600 On ch=10 n=36 v=95
58080 Off ch=10 n=44 v=80
58080 Off ch=10 n=36 v=80
58080 Off ch=10 n=36 v=80
58080 On ch=10 n=44 v=95
58080 On ch=10 n=36 v=95
58080 On ch=10 n=36 v=95
58560 Off ch=10 n=44 v=80
58560 Off ch=10 n=36 v=80
58560 Off ch=10 n=36 v=80
58560 On ch=10 n=44 v=95
58560 On ch=10 n=38 v=95
58560 On ch=10 n=38 v=95
59040 Off ch=10 n=44 v=80
59040 Off ch=10 n=38 v=80
59040 Off ch=10 n=38 v=80
59040 On ch=10 n=44 v=95
59040 On ch=10 n=36 v=95
59040 On ch=10 n=36 v=95
59520 Off ch=10 n=44 v=80
59520 Off ch=10 n=36 v=80
59520 Off ch=10 n=36 v=80
59520 On ch=10 n=44 v=95
59520 On ch=10 n=36 v=95
59520 On ch=10 n=36 v=95
60000 Off ch=10 n=44 v=80
60000 Off ch=10 n=36 v=80
60000 Off ch=10 n=36 v=80
60000 On ch=10 n=44 v=95
60000 On ch=10 n=36 v=95
60000 On ch=10 n=36 v=95
60480 Off ch=10 n=44 v=80
60480 Off ch=10 n=36 v=80
60480 Off ch=10 n=36 v=80
60480 On ch=10 n=44 v=95
60480 On ch=10 n=38 v=95
60480 On ch=10 n=38 v=95
60960 Off ch=10 n=44 v=80
60960 Off ch=10 n=38 v=80
60960 Off ch=10 n=38 v=80
60960 On ch=10 n=44 v=95
60960 On ch=10 n=36 v=95
60960 On ch=10 n=36 v=95
61440 Off ch=10 n=44 v=80
61440 Off ch=10 n=36 v=80
61440 Off ch=10 n=36 v=80
61440 On ch=10 n=44 v=95
61440 On ch=10 n=36 v=95
61440 On ch=10 n=36 v=95
61920 Off ch=10 n=44 v=80
61920 Off ch=10 n=36 v=80
61920 Off ch=10 n=36 v=80
61920 On ch=10 n=44 v=95
61920 On ch=10 n=36 v=95
61920 On ch=10 n=36 v=95
62400 Off ch=10 n=44 v=80
62400 Off ch=10 n=36 v=80
62400 Off ch=10 n=36 v=80
62400 On ch=10 n=44 v=95
62400 On ch=10 n=38 v=95
62400 On ch=10 n=38 v=95
62880 Off ch=10 n=44 v=80
62880 Off ch=10 n=38 v=80
62880 Off ch=10 n=38 v=80
62880 On ch=10 n=44 v=95
62880 On ch=10 n=36 v=95
62880 On ch=10 n=36 v=95
63360 Off ch=10 n=44 v=80
63360 Off ch=10 n=36 v=80
63360 Off ch=10 n=36 v=80
63360 On ch=10 n=44 v=95
63360 On ch=10 n=36 v=95
63360 On ch=10 n=36 v=95
63840 Off ch=10 n=44 v=80
63840 Off ch=10 n=36 v=80
63840 Off ch=10 n=36 v=80
63840 On ch=10 n=44 v=95
63840 On ch=10 n=36 v=95
63840 On ch=10 n=36 v=95
64320 Off ch=10 n=44 v=80
64320 Off ch=10 n=36 v=80
64320 Off ch=10 n=36 v=80
64320 On ch=10 n=44 v=95
64320 On ch=10 n=38 v=95
64320 On ch=10 n=38 v=95
64800 Off ch=10 n=44 v=80
64800 Off ch=10 n=38 v=80
64800 Off ch=10 n=38 v=80
64800 On ch=10 n=44 v=95
64800 On ch=10 n=36 v=95
64800 On ch=10 n=36 v=95
65280 Off ch=10 n=44 v=80
65280 Off ch=10 n=36 v=80
65280 Off ch=10 n=36 v=80
65280 On ch=10 n=44 v=95
65280 On ch=10 n=36 v=95
65280 On ch=10 n=36 v=95
65760 Off ch=10 n=44 v=80
65760 Off ch=10 n=36 v=80
65760 Off ch=10 n=36 v=80
65760 On ch=10 n=44 v=95
65760 On ch=10 n=36 v=95
65760 On ch=10 n=36 v=95
66240 Off ch=10 n=44 v=80
66240 Off ch=10 n=36 v=80
66240 Off ch=10 n=36 v=80
66240 On ch=10 n=49 v=95
66240 On ch=10 n=57 v=95
66240 On ch=10 n=38 v=95
66240 On ch=10 n=38 v=95
67200 Off ch=10 n=49 v=80
67200 Off ch=10 n=57 v=80
67200 Off ch=10 n=38 v=80
67200 Off ch=10 n=38 v=80
67200 On ch=10 n=49 v=95
67200 On ch=10 n=36 v=95
67200 On ch=10 n=36 v=95
67680 Off ch=10 n=49 v=80
67680 Off ch=10 n=36 v=80
67680 Off ch=10 n=36 v=80
67680 On ch=10 n=49 v=95
67680 On ch=10 n=36 v=95
67680 On ch=10 n=36 v=95
68160 Off ch=10 n=49 v=80
68160 Off ch=10 n=36 v=80
68160 Off ch=10 n=36 v=80
68160 On ch=10 n=38 v=95
68160 On ch=10 n=38 v=95
68400 Off ch=10 n=38 v=80
68400 Off ch=10 n=38 v=80
68400 On ch=10 n=38 v=95
68400 On ch=10 n=38 v=95
68640 Off ch=10 n=38 v=80
68640 Off ch=10 n=38 v=80
68640 On ch=10 n=38 v=95
68640 On ch=10 n=38 v=95
68880 Off ch=10 n=38 v=80
68880 Off ch=10 n=38 v=80
68880 On ch=10 n=38 v=95
68880 On ch=10 n=38 v=95
69120 Off ch=10 n=38 v=80
69120 Off ch=10 n=38 v=80
69120 On ch=10 n=57 v=95
69120 On ch=10 n=49 v=95
69120 On ch=10 n=36 v=95
69120 On ch=10 n=36 v=95
69600 Off ch=10 n=57 v=80
69600 Off ch=10 n=49 v=80
69600 Off ch=10 n=36 v=80
69600 Off ch=10 n=36 v=80
69600 On ch=10 n=49 v=95
69600 On ch=10 n=36 v=95
69600 On ch=10 n=36 v=95
70080 Off ch=10 n=49 v=80
70080 Off ch=10 n=36 v=80
70080 Off ch=10 n=36 v=80
70080 On ch=10 n=49 v=95
70080 On ch=10 n=38 v=95
70080 On ch=10 n=38 v=95
70560 Off ch=10 n=49 v=80
70560 Off ch=10 n=38 v=80
70560 Off ch=10 n=38 v=80
70560 On ch=10 n=49 v=95
71040 Off ch=10 n=49 v=80
71040 On ch=10 n=49 v=95
71040 On ch=10 n=36 v=95
71040 On ch=10 n=36 v=95
71520 Off ch=10 n=49 v=80
71520 Off ch=10 n=36 v=80
71520 Off ch=10 n=36 v=80
71520 On ch=10 n=49 v=95
71520 On ch=10 n=36 v=95
71520 On ch=10 n=36 v=95
72000 Off ch=10 n=49 v=80
72000 Off ch=10 n=36 v=80
72000 Off ch=10 n=36 v=80
72000 On ch=10 n=49 v=95
72000 On ch=10 n=38 v=95
72000 On ch=10 n=38 v=95
72480 Off ch=10 n=49 v=80
72480 Off ch=10 n=38 v=80
72480 Off ch=10 n=38 v=80
72480 On ch=10 n=49 v=95
72960 Off ch=10 n=49 v=80
72960 On ch=10 n=49 v=95
72960 On ch=10 n=36 v=95
72960 On ch=10 n=36 v=95
73440 Off ch=10 n=49 v=80
73440 Off ch=10 n=36 v=80
73440 Off ch=10 n=36 v=80
73440 On ch=10 n=49 v=95
73440 On ch=10 n=36 v=95
73440 On ch=10 n=36 v=95
73920 Off ch=10 n=49 v=80
73920 Off ch=10 n=36 v=80
73920 Off ch=10 n=36 v=80
73920 On ch=10 n=49 v=95
73920 On ch=10 n=38 v=95
73920 On ch=10 n=38 v=95
74400 Off ch=10 n=49 v=80
74400 Off ch=10 n=38 v=80
74400 Off ch=10 n=38 v=80
74400 On ch=10 n=49 v=95
74880 Off ch=10 n=49 v=80
74880 On ch=10 n=49 v=95
74880 On ch=10 n=36 v=95
74880 On ch=10 n=36 v=95
75360 Off ch=10 n=49 v=80
75360 Off ch=10 n=36 v=80
75360 Off ch=10 n=36 v=80
75360 On ch=10 n=49 v=95
75360 On ch=10 n=36 v=95
75360 On ch=10 n=36 v=95
75840 Off ch=10 n=49 v=80
75840 Off ch=10 n=36 v=80
75840 Off ch=10 n=36 v=80
75840 On ch=10 n=49 v=95
75840 On ch=10 n=38 v=95
75840 On ch=10 n=38 v=95
76320 Off ch=10 n=49 v=80
76320 Off ch=10 n=38 v=80
76320 Off ch=10 n=38 v=80
76320 On ch=10 n=49 v=95
76800 Off ch=10 n=49 v=80
76800 On ch=10 n=49 v=95
76800 On ch=10 n=36 v=95
76800 On ch=10 n=36 v=95
77280 Off ch=10 n=49 v=80
77280 Off ch=10 n=36 v=80
77280 Off ch=10 n=36 v=80
77280 On ch=10 n=49 v=95
77280 On ch=10 n=36 v=95
77280 On ch=10 n=36 v=95
77760 Off ch=10 n=49 v=80
77760 Off ch=10 n=36 v=80
77760 Off ch=10 n=36 v=80
77760 On ch=10 n=49 v=95
77760 On ch=10 n=38 v=95
77760 On ch=10 n=38 v=95
78240 Off ch=10 n=49 v=80
78240 Off ch=10 n=38 v=80
78240 Off ch=10 n=38 v=80
78240 On ch=10 n=49 v=95
78720 Off ch=10 n=49 v=80
78720 On ch=10 n=49 v=95
78720 On ch=10 n=36 v=95
78720 On ch=10 n=36 v=95
79200 Off ch=10 n=49 v=80
79200 Off ch=10 n=36 v=80
79200 Off ch=10 n=36 v=80
79200 On ch=10 n=49 v=95
79200 On ch=10 n=36 v=95
79200 On ch=10 n=36 v=95
79680 Off ch=10 n=49 v=80
79680 Off ch=10 n=36 v=80
79680 Off ch=10 n=36 v=80
79680 On ch=10 n=49 v=95
79680 On ch=10 n=38 v=95
79680 On ch=10 n=38 v=95
80160 Off ch=10 n=49 v=80
80160 Off ch=10 n=38 v=80
80160 Off ch=10 n=38 v=80
80160 On ch=10 n=49 v=95
80640 Off ch=10 n=49 v=80
80640 On ch=10 n=49 v=95
80640 On ch=10 n=36 v=95
80640 On ch=10 n=36 v=95
81120 Off ch=10 n=49 v=80
81120 Off ch=10 n=36 v=80
81120 Off ch=10 n=36 v=80
81120 On ch=10 n=49 v=95
81120 On ch=10 n=36 v=95
81120 On ch=10 n=36 v=95
81600 Off ch=10 n=49 v=80
81600 Off ch=10 n=36 v=80
81600 Off ch=10 n=36 v=80
81600 On ch=10 n=49 v=95
81600 On ch=10 n=38 v=95
81600 On ch=10 n=38 v=95
82080 Off ch=10 n=49 v=80
82080 Off ch=10 n=38 v=80
82080 Off ch=10 n=38 v=80
82080 On ch=10 n=49 v=95
82320 Off ch=10 n=49 v=80
82320 On ch=10 n=38 v=95
82320 On ch=10 n=38 v=95
82560 Off ch=10 n=38 v=80
82560 Off ch=10 n=38 v=80
82560 On ch=10 n=49 v=95
82560 On ch=10 n=36 v=95
82560 On ch=10 n=36 v=95
83040 Off ch=10 n=49 v=80
83040 Off ch=10 n=36 v=80
83040 Off ch=10 n=36 v=80
83040 On ch=10 n=49 v=95
83040 On ch=10 n=36 v=95
83040 On ch=10 n=36 v=95
83520 Off ch=10 n=49 v=80
83520 Off ch=10 n=36 v=80
83520 Off ch=10 n=36 v=80
83520 On ch=10 n=49 v=95
83520 On ch=10 n=38 v=95
83520 On ch=10 n=38 v=95
84000 Off ch=10 n=49 v=80
84000 Off ch=10 n=38 v=80
84000 Off ch=10 n=38 v=80
84000 On ch=10 n=49 v=95
84480 Off ch=10 n=49 v=80
84480 On ch=10 n=49 v=95
84480 On ch=10 n=36 v=95
84480 On ch=10 n=36 v=95
84960 Off ch=10 n=49 v=80
84960 Off ch=10 n=36 v=80
84960 Off ch=10 n=36 v=80
84960 On ch=10 n=49 v=95
84960 On ch=10 n=36 v=95
84960 On ch=10 n=36 v=95
85440 Off ch=10 n=49 v=80
85440 Off ch=10 n=36 v=80
85440 Off ch=10 n=36 v=80
85440 On ch=10 n=49 v=95
85440 On ch=10 n=38 v=95
85440 On ch=10 n=38 v=95
85920 Off ch=10 n=49 v=80
85920 Off ch=10 n=38 v=80
85920 Off ch=10 n=38 v=80
85920 On ch=10 n=49 v=95
86400 Off ch=10 n=49 v=80
86400 On ch=10 n=49 v=95
86400 On ch=10 n=36 v=95
86400 On ch=10 n=36 v=95
86880 Off ch=10 n=49 v=80
86880 Off ch=10 n=36 v=80
86880 Off ch=10 n=36 v=80
86880 On ch=10 n=49 v=95
86880 On ch=10 n=36 v=95
86880 On ch=10 n=36 v=95
87360 Off ch=10 n=49 v=80
87360 Off ch=10 n=36 v=80
87360 Off ch=10 n=36 v=80
87360 On ch=10 n=49 v=95
87360 On ch=10 n=38 v=95
87360 On ch=10 n=38 v=95
87840 Off ch=10 n=49 v=80
87840 Off ch=10 n=38 v=80
87840 Off ch=10 n=38 v=80
87840 On ch=10 n=49 v=95
88320 Off ch=10 n=49 v=80
88320 On ch=10 n=49 v=95
88320 On ch=10 n=36 v=95
88320 On ch=10 n=36 v=95
88800 Off ch=10 n=49 v=80
88800 Off ch=10 n=36 v=80
88800 Off ch=10 n=36 v=80
88800 On ch=10 n=49 v=95
88800 On ch=10 n=36 v=95
88800 On ch=10 n=36 v=95
89280 Off ch=10 n=49 v=80
89280 Off ch=10 n=36 v=80
89280 Off ch=10 n=36 v=80
89280 On ch=10 n=49 v=95
89280 On ch=10 n=38 v=95
89280 On ch=10 n=38 v=95
89760 Off ch=10 n=49 v=80
89760 Off ch=10 n=38 v=80
89760 Off ch=10 n=38 v=80
89760 On ch=10 n=49 v=95
90000 Off ch=10 n=49 v=80
90000 On ch=10 n=38 v=95
90000 On ch=10 n=38 v=95
90240 Off ch=10 n=38 v=80
90240 Off ch=10 n=38 v=80
90240 On ch=10 n=49 v=95
90240 On ch=10 n=36 v=95
90240 On ch=10 n=36 v=95
90720 Off ch=10 n=49 v=80
90720 Off ch=10 n=36 v=80
90720 Off ch=10 n=36 v=80
90720 On ch=10 n=49 v=95
90720 On ch=10 n=36 v=95
90720 On ch=10 n=36 v=95
91200 Off ch=10 n=49 v=80
91200 Off ch=10 n=36 v=80
91200 Off ch=10 n=36 v=80
91200 On ch=10 n=49 v=95
91200 On ch=10 n=38 v=95
91200 On ch=10 n=38 v=95
91680 Off ch=10 n=49 v=80
91680 Off ch=10 n=38 v=80
91680 Off ch=10 n=38 v=80
91680 On ch=10 n=49 v=95
92160 Off ch=10 n=49 v=80
92160 On ch=10 n=49 v=95
92160 On ch=10 n=36 v=95
92160 On ch=10 n=36 v=95
92640 Off ch=10 n=49 v=80
92640 Off ch=10 n=36 v=80
92640 Off ch=10 n=36 v=80
92640 On ch=10 n=49 v=95
92640 On ch=10 n=36 v=95
92640 On ch=10 n=36 v=95
93120 Off ch=10 n=49 v=80
93120 Off ch=10 n=36 v=80
93120 Off ch=10 n=36 v=80
93120 On ch=10 n=49 v=95
93120 On ch=10 n=38 v=95
93120 On ch=10 n=38 v=95
93600 Off ch=10 n=49 v=80
93600 Off ch=10 n=38 v=80
93600 Off ch=10 n=38 v=80
93600 On ch=10 n=49 v=95
94080 Off ch=10 n=49 v=80
94080 On ch=10 n=49 v=95
94080 On ch=10 n=36 v=95
94080 On ch=10 n=36 v=95
94560 Off ch=10 n=49 v=80
94560 Off ch=10 n=36 v=80
94560 Off ch=10 n=36 v=80
94560 On ch=10 n=49 v=95
94560 On ch=10 n=36 v=95
94560 On ch=10 n=36 v=95
95040 Off ch=10 n=49 v=80
95040 Off ch=10 n=36 v=80
95040 Off ch=10 n=36 v=80
95040 On ch=10 n=49 v=95
95040 On ch=10 n=38 v=95
95040 On ch=10 n=38 v=95
95520 Off ch=10 n=49 v=80
95520 Off ch=10 n=38 v=80
95520 Off ch=10 n=38 v=80
95520 On ch=10 n=49 v=95
95520 On ch=10 n=36 v=95
95520 On ch=10 n=36 v=95
96000 Off ch=10 n=49 v=80
96000 Off ch=10 n=36 v=80
96000 Off ch=10 n=36 v=80
96000 On ch=10 n=49 v=95
96000 On ch=10 n=38 v=95
96000 On ch=10 n=38 v=95
96480 Off ch=10 n=49 v=80
96480 Off ch=10 n=38 v=80
96480 Off ch=10 n=38 v=80
96480 On ch=10 n=49 v=95
96480 On ch=10 n=38 v=95
96480 On ch=10 n=38 v=95
96960 Off ch=10 n=49 v=80
96960 Off ch=10 n=38 v=80
96960 Off ch=10 n=38 v=80
96960 On ch=10 n=49 v=95
96960 On ch=10 n=38 v=95
96960 On ch=10 n=38 v=95
97440 Off ch=10 n=49 v=80
97440 Off ch=10 n=38 v=80
97440 Off ch=10 n=38 v=80
97440 On ch=10 n=49 v=95
97440 On ch=10 n=38 v=95
97440 On ch=10 n=38 v=95
97920 Off ch=10 n=49 v=80
97920 Off ch=10 n=38 v=80
97920 Off ch=10 n=38 v=80
97920 On ch=10 n=49 v=95
97920 On ch=10 n=57 v=95
97920 On ch=10 n=38 v=95
97920 On ch=10 n=38 v=95
98640 Off ch=10 n=49 v=80
98640 Off ch=10 n=57 v=80
98640 Off ch=10 n=38 v=80
98640 Off ch=10 n=38 v=80
98640 Par ch=10 c=7 v=127
98640 Par ch=10 c=93 v=127
98640 Par ch=10 c=91 v=127
98640 On ch=10 n=38 v=95
98640 On ch=10 n=38 v=95
98700 Off ch=10 n=38 v=80
98700 Off ch=10 n=38 v=80
98700 On ch=10 n=38 v=95
98700 On ch=10 n=38 v=95
98760 Off ch=10 n=38 v=80
98760 Off ch=10 n=38 v=80
98760 On ch=10 n=38 v=95
98760 On ch=10 n=38 v=95
98880 Off ch=10 n=38 v=80
98880 Off ch=10 n=38 v=80
98880 On ch=10 n=48 v=95
98880 On ch=10 n=48 v=95
99120 Off ch=10 n=48 v=80
99120 Off ch=10 n=48 v=80
99120 On ch=10 n=47 v=95
99120 On ch=10 n=47 v=95
99360 Off ch=10 n=47 v=80
99360 Off ch=10 n=47 v=80
99360 On ch=10 n=45 v=95
99360 On ch=10 n=45 v=95
99840 Off ch=10 n=45 v=80
99840 Off ch=10 n=45 v=80
99840 Par ch=10 c=7 v=104
99840 Par ch=10 c=93 v=127
99840 Par ch=10 c=91 v=127
99840 On ch=10 n=57 v=95
99840 On ch=10 n=49 v=95
99840 On ch=10 n=36 v=95
99840 On ch=10 n=36 v=95
100320 Off ch=10 n=57 v=80
100320 Off ch=10 n=49 v=80
100320 Off ch=10 n=36 v=80
100320 Off ch=10 n=36 v=80
100800 On ch=10 n=44 v=95
100800 On ch=10 n=38 v=95
100800 On ch=10 n=38 v=95
101280 Off ch=10 n=44 v=80
101280 Off ch=10 n=38 v=80
101280 Off ch=10 n=38 v=80
101280 On ch=10 n=44 v=95
101280 On ch=10 n=36 v=95
101280 On ch=10 n=36 v=95
101760 Off ch=10 n=44 v=80
101760 Off ch=10 n=36 v=80
101760 Off ch=10 n=36 v=80
101760 On ch=10 n=44 v=95
101760 On ch=10 n=36 v=95
101760 On ch=10 n=36 v=95
102240 Off ch=10 n=44 v=80
102240 Off ch=10 n=36 v=80
102240 Off ch=10 n=36 v=80
102240 On ch=10 n=44 v=95
102240 On ch=10 n=36 v=95
102240 On ch=10 n=36 v=95
102720 Off ch=10 n=44 v=80
102720 Off ch=10 n=36 v=80
102720 Off ch=10 n=36 v=80
102720 On ch=10 n=44 v=95
102720 On ch=10 n=38 v=95
102720 On ch=10 n=38 v=95
103200 Off ch=10 n=44 v=80
103200 Off ch=10 n=38 v=80
103200 Off ch=10 n=38 v=80
103200 On ch=10 n=44 v=95
103200 On ch=10 n=36 v=95
103200 On ch=10 n=36 v=95
103680 Off ch=10 n=44 v=80
103680 Off ch=10 n=36 v=80
103680 Off ch=10 n=36 v=80
103680 On ch=10 n=44 v=95
103680 On ch=10 n=36 v=95
103680 On ch=10 n=36 v=95
104160 Off ch=10 n=44 v=80
104160 Off ch=10 n=36 v=80
104160 Off ch=10 n=36 v=80
104160 On ch=10 n=44 v=95
104160 On ch=10 n=36 v=95
104160 On ch=10 n=36 v=95
104640 Off ch=10 n=44 v=80
104640 Off ch=10 n=36 v=80
104640 Off ch=10 n=36 v=80
104640 On ch=10 n=44 v=95
104640 On ch=10 n=38 v=95
104640 On ch=10 n=38 v=95
105120 Off ch=10 n=44 v=80
105120 Off ch=10 n=38 v=80
105120 Off ch=10 n=38 v=80
105120 On ch=10 n=44 v=95
105120 On ch=10 n=36 v=95
105120 On ch=10 n=36 v=95
105600 Off ch=10 n=44 v=80
105600 Off ch=10 n=36 v=80
105600 Off ch=10 n=36 v=80
105600 On ch=10 n=44 v=95
105600 On ch=10 n=36 v=95
105600 On ch=10 n=36 v=95
106080 Off ch=10 n=44 v=80
106080 Off ch=10 n=36 v=80
106080 Off ch=10 n=36 v=80
106080 On ch=10 n=44 v=95
106080 On ch=10 n=36 v=95
106080 On ch=10 n=36 v=95
106560 Off ch=10 n=44 v=80
106560 Off ch=10 n=36 v=80
106560 Off ch=10 n=36 v=80
106560 On ch=10 n=44 v=95
106560 On ch=10 n=38 v=95
106560 On ch=10 n=38 v=95
107040 Off ch=10 n=44 v=80
107040 Off ch=10 n=38 v=80
107040 Off ch=10 n=38 v=80
107040 On ch=10 n=44 v=95
107040 On ch=10 n=36 v=95
107040 On ch=10 n=36 v=95
107520 Off ch=10 n=44 v=80
107520 Off ch=10 n=36 v=80
107520 Off ch=10 n=36 v=80
107520 Par ch=10 c=93 v=127
107520 Par ch=10 c=91 v=127
107520 On ch=10 n=57 v=95
107520 On ch=10 n=49 v=95
107520 On ch=10 n=36 v=95
107520 On ch=10 n=36 v=95
108000 Off ch=10 n=57 v=80
108000 Off ch=10 n=49 v=80
108000 Off ch=10 n=36 v=80
108000 Off ch=10 n=36 v=80
108480 On ch=10 n=44 v=95
108480 On ch=10 n=38 v=95
108480 On ch=10 n=38 v=95
108960 Off ch=10 n=44 v=80
108960 Off ch=10 n=38 v=80
108960 Off ch=10 n=38 v=80
108960 On ch=10 n=44 v=95
108960 On ch=10 n=36 v=95
108960 On ch=10 n=36 v=95
109440 Off ch=10 n=44 v=80
109440 Off ch=10 n=36 v=80
109440 Off ch=10 n=36 v=80
109440 On ch=10 n=44 v=95
109440 On ch=10 n=36 v=95
109440 On ch=10 n=36 v=95
109920 Off ch=10 n=44 v=80
109920 Off ch=10 n=36 v=80
109920 Off ch=10 n=36 v=80
109920 On ch=10 n=44 v=95
109920 On ch=10 n=36 v=95
109920 On ch=10 n=36 v=95
110400 Off ch=10 n=44 v=80
110400 Off ch=10 n=36 v=80
110400 Off ch=10 n=36 v=80
110400 On ch=10 n=44 v=95
110400 On ch=10 n=38 v=95
110400 On ch=10 n=38 v=95
110880 Off ch=10 n=44 v=80
110880 Off ch=10 n=38 v=80
110880 Off ch=10 n=38 v=80
110880 On ch=10 n=44 v=95
110880 On ch=10 n=36 v=95
110880 On ch=10 n=36 v=95
111360 Off ch=10 n=44 v=80
111360 Off ch=10 n=36 v=80
111360 Off ch=10 n=36 v=80
111360 On ch=10 n=44 v=95
111360 On ch=10 n=36 v=95
111360 On ch=10 n=36 v=95
111840 Off ch=10 n=44 v=80
111840 Off ch=10 n=36 v=80
111840 Off ch=10 n=36 v=80
111840 On ch=10 n=44 v=95
111840 On ch=10 n=36 v=95
111840 On ch=10 n=36 v=95
112320 Off ch=10 n=44 v=80
112320 Off ch=10 n=36 v=80
112320 Off ch=10 n=36 v=80
112320 On ch=10 n=44 v=95
112320 On ch=10 n=38 v=95
112320 On ch=10 n=38 v=95
112800 Off ch=10 n=44 v=80
112800 Off ch=10 n=38 v=80
112800 Off ch=10 n=38 v=80
112800 On ch=10 n=44 v=95
112800 On ch=10 n=36 v=95
112800 On ch=10 n=36 v=95
113280 Off ch=10 n=44 v=80
113280 Off ch=10 n=36 v=80
113280 Off ch=10 n=36 v=80
113280 On ch=10 n=44 v=95
113280 On ch=10 n=36 v=95
113280 On ch=10 n=36 v=95
113760 Off ch=10 n=44 v=80
113760 Off ch=10 n=36 v=80
113760 Off ch=10 n=36 v=80
113760 On ch=10 n=44 v=95
113760 On ch=10 n=36 v=95
113760 On ch=10 n=36 v=95
114240 Off ch=10 n=44 v=80
114240 Off ch=10 n=36 v=80
114240 Off ch=10 n=36 v=80
114240 On ch=10 n=44 v=95
114240 On ch=10 n=38 v=95
114240 On ch=10 n=38 v=95
114720 Off ch=10 n=44 v=80
114720 Off ch=10 n=38 v=80
114720 Off ch=10 n=38 v=80
114720 On ch=10 n=44 v=95
114720 On ch=10 n=36 v=95
114720 On ch=10 n=36 v=95
115200 Off ch=10 n=44 v=80
115200 Off ch=10 n=36 v=80
115200 Off ch=10 n=36 v=80
115200 Par ch=10 c=93 v=127
115200 Par ch=10 c=91 v=127
115200 On ch=10 n=57 v=95
115200 On ch=10 n=49 v=95
115200 On ch=10 n=36 v=95
115200 On ch=10 n=36 v=95
115680 Off ch=10 n=57 v=80
115680 Off ch=10 n=49 v=80
115680 Off ch=10 n=36 v=80
115680 Off ch=10 n=36 v=80
116160 On ch=10 n=44 v=95
116160 On ch=10 n=38 v=95
116160 On ch=10 n=38 v=95
116640 Off ch=10 n=44 v=80
116640 Off ch=10 n=38 v=80
116640 Off ch=10 n=38 v=80
116640 On ch=10 n=44 v=95
116640 On ch=10 n=36 v=95
116640 On ch=10 n=36 v=95
117120 Off ch=10 n=44 v=80
117120 Off ch=10 n=36 v=80
117120 Off ch=10 n=36 v=80
117120 On ch=10 n=44 v=95
117120 On ch=10 n=36 v=95
117120 On ch=10 n=36 v=95
117600 Off ch=10 n=44 v=80
117600 Off ch=10 n=36 v=80
117600 Off ch=10 n=36 v=80
117600 On ch=10 n=44 v=95
117600 On ch=10 n=36 v=95
117600 On ch=10 n=36 v=95
118080 Off ch=10 n=44 v=80
118080 Off ch=10 n=36 v=80
118080 Off ch=10 n=36 v=80
118080 On ch=10 n=44 v=95
118080 On ch=10 n=38 v=95
118080 On ch=10 n=38 v=95
118560 Off ch=10 n=44 v=80
118560 Off ch=10 n=38 v=80
118560 Off ch=10 n=38 v=80
118560 On ch=10 n=44 v=95
118560 On ch=10 n=36 v=95
118560 On ch=10 n=36 v=95
119040 Off ch=10 n=44 v=80
119040 Off ch=10 n=36 v=80
119040 Off ch=10 n=36 v=80
119040 On ch=10 n=44 v=95
119040 On ch=10 n=36 v=95
119040 On ch=10 n=36 v=95
119520 Off ch=10 n=44 v=80
119520 Off ch=10 n=36 v=80
119520 Off ch=10 n=36 v=80
119520 On ch=10 n=44 v=95
119520 On ch=10 n=36 v=95
119520 On ch=10 n=36 v=95
120000 Off ch=10 n=44 v=80
120000 Off ch=10 n=36 v=80
120000 Off ch=10 n=36 v=80
120000 On ch=10 n=44 v=95
120000 On ch=10 n=38 v=95
120000 On ch=10 n=38 v=95
120480 Off ch=10 n=44 v=80
120480 Off ch=10 n=38 v=80
120480 Off ch=10 n=38 v=80
120480 On ch=10 n=44 v=95
120480 On ch=10 n=36 v=95
120480 On ch=10 n=36 v=95
120960 Off ch=10 n=44 v=80
120960 Off ch=10 n=36 v=80
120960 Off ch=10 n=36 v=80
120960 On ch=10 n=44 v=95
120960 On ch=10 n=36 v=95
120960 On ch=10 n=36 v=95
121440 Off ch=10 n=44 v=80
121440 Off ch=10 n=36 v=80
121440 Off ch=10 n=36 v=80
121440 On ch=10 n=44 v=95
121440 On ch=10 n=36 v=95
121440 On ch=10 n=36 v=95
121920 Off ch=10 n=44 v=80
121920 Off ch=10 n=36 v=80
121920 Off ch=10 n=36 v=80
121920 On ch=10 n=44 v=95
121920 On ch=10 n=38 v=95
121920 On ch=10 n=38 v=95
122400 Off ch=10 n=44 v=80
122400 Off ch=10 n=38 v=80
122400 Off ch=10 n=38 v=80
122400 On ch=10 n=44 v=95
122400 On ch=10 n=36 v=95
122400 On ch=10 n=36 v=95
122880 Off ch=10 n=44 v=80
122880 Off ch=10 n=36 v=80
122880 Off ch=10 n=36 v=80
122880 Par ch=10 c=93 v=127
122880 Par ch=10 c=91 v=127
122880 On ch=10 n=57 v=95
122880 On ch=10 n=49 v=95
122880 On ch=10 n=36 v=95
122880 On ch=10 n=36 v=95
123360 Off ch=10 n=57 v=80
123360 Off ch=10 n=49 v=80
123360 Off ch=10 n=36 v=80
123360 Off ch=10 n=36 v=80
123840 On ch=10 n=44 v=95
123840 On ch=10 n=38 v=95
123840 On ch=10 n=38 v=95
124320 Off ch=10 n=44 v=80
124320 Off ch=10 n=38 v=80
124320 Off ch=10 n=38 v=80
124320 On ch=10 n=44 v=95
124320 On ch=10 n=36 v=95
124320 On ch=10 n=36 v=95
124800 Off ch=10 n=44 v=80
124800 Off ch=10 n=36 v=80
124800 Off ch=10 n=36 v=80
124800 On ch=10 n=44 v=95
124800 On ch=10 n=36 v=95
124800 On ch=10 n=36 v=95
125280 Off ch=10 n=44 v=80
125280 Off ch=10 n=36 v=80
125280 Off ch=10 n=36 v=80
125280 On ch=10 n=44 v=95
125280 On ch=10 n=36 v=95
125280 On ch=10 n=36 v=95
125760 Off ch=10 n=44 v=80
125760 Off ch=10 n=36 v=80
125760 Off ch=10 n=36 v=80
125760 On ch=10 n=44 v=95
125760 On ch=10 n=38 v=95
125760 On ch=10 n=38 v=95
126240 Off ch=10 n=44 v=80
126240 Off ch=10 n=38 v=80
126240 Off ch=10 n=38 v=80
126240 On ch=10 n=44 v=95
126240 On ch=10 n=36 v=95
126240 On ch=10 n=36 v=95
126720 Off ch=10 n=44 v=80
126720 Off ch=10 n=36 v=80
126720 Off ch=10 n=36 v=80
126720 On ch=10 n=44 v=95
126720 On ch=10 n=36 v=95
126720 On ch=10 n=36 v=95
127200 Off ch=10 n=44 v=80
127200 Off ch=10 n=36 v=80
127200 Off ch=10 n=36 v=80
127200 On ch=10 n=44 v=95
127200 On ch=10 n=36 v=95
127200 On ch=10 n=36 v=95
127680 Off ch=10 n=44 v=80
127680 Off ch=10 n=36 v=80
127680 Off ch=10 n=36 v=80
127680 On ch=10 n=44 v=95
127680 On ch=10 n=38 v=95
127680 On ch=10 n=38 v=95
128160 Off ch=10 n=44 v=80
128160 Off ch=10 n=38 v=80
128160 Off ch=10 n=38 v=80
128160 On ch=10 n=44 v=95
128160 On ch=10 n=36 v=95
128160 On ch=10 n=36 v=95
128640 Off ch=10 n=44 v=80
128640 Off ch=10 n=36 v=80
128640 Off ch=10 n=36 v=80
128640 On ch=10 n=44 v=95
128640 On ch=10 n=36 v=95
128640 On ch=10 n=36 v=95
129120 Off ch=10 n=44 v=80
129120 Off ch=10 n=36 v=80
129120 Off ch=10 n=36 v=80
129120 On ch=10 n=44 v=95
129120 On ch=10 n=36 v=95
129120 On ch=10 n=36 v=95
129600 Off ch=10 n=44 v=80
129600 Off ch=10 n=36 v=80
129600 Off ch=10 n=36 v=80
129600 On ch=10 n=44 v=95
129600 On ch=10 n=38 v=95
129600 On ch=10 n=38 v=95
130080 Off ch=10 n=44 v=80
130080 Off ch=10 n=38 v=80
130080 Off ch=10 n=38 v=80
130080 On ch=10 n=44 v=95
130080 On ch=10 n=36 v=95
130080 On ch=10 n=36 v=95
130560 Off ch=10 n=44 v=80
130560 Off ch=10 n=36 v=80
130560 Off ch=10 n=36 v=80
130560 On ch=10 n=44 v=95
130560 On ch=10 n=36 v=95
130560 On ch=10 n=36 v=95
131040 Off ch=10 n=44 v=80
131040 Off ch=10 n=36 v=80
131040 Off ch=10 n=36 v=80
131040 On ch=10 n=44 v=95
131040 On ch=10 n=36 v=95
131040 On ch=10 n=36 v=95
131520 Off ch=10 n=44 v=80
131520 Off ch=10 n=36 v=80
131520 Off ch=10 n=36 v=80
131520 On ch=10 n=44 v=95
131520 On ch=10 n=38 v=95
131520 On ch=10 n=38 v=95
132000 Off ch=10 n=44 v=80
132000 Off ch=10 n=38 v=80
132000 Off ch=10 n=38 v=80
132000 On ch=10 n=44 v=95
132000 On ch=10 n=36 v=95
132000 On ch=10 n=36 v=95
132480 Off ch=10 n=44 v=80
132480 Off ch=10 n=36 v=80
132480 Off ch=10 n=36 v=80
132480 On ch=10 n=44 v=95
132480 On ch=10 n=36 v=95
132480 On ch=10 n=36 v=95
132960 Off ch=10 n=44 v=80
132960 Off ch=10 n=36 v=80
132960 Off ch=10 n=36 v=80
132960 On ch=10 n=44 v=95
132960 On ch=10 n=36 v=95
132960 On ch=10 n=36 v=95
133440 Off ch=10 n=44 v=80
133440 Off ch=10 n=36 v=80
133440 Off ch=10 n=36 v=80
133440 On ch=10 n=44 v=95
133440 On ch=10 n=38 v=95
133440 On ch=10 n=38 v=95
133920 Off ch=10 n=44 v=80
133920 Off ch=10 n=38 v=80
133920 Off ch=10 n=38 v=80
133920 On ch=10 n=44 v=95
133920 On ch=10 n=36 v=95
133920 On ch=10 n=36 v=95
134400 Off ch=10 n=44 v=80
134400 Off ch=10 n=36 v=80
134400 Off ch=10 n=36 v=80
134400 On ch=10 n=44 v=95
134400 On ch=10 n=36 v=95
134400 On ch=10 n=36 v=95
134880 Off ch=10 n=44 v=80
134880 Off ch=10 n=36 v=80
134880 Off ch=10 n=36 v=80
134880 On ch=10 n=44 v=95
134880 On ch=10 n=36 v=95
134880 On ch=10 n=36 v=95
135360 Off ch=10 n=44 v=80
135360 Off ch=10 n=36 v=80
135360 Off ch=10 n=36 v=80
135360 On ch=10 n=44 v=95
135360 On ch=10 n=38 v=95
135360 On ch=10 n=38 v=95
135840 Off ch=10 n=44 v=80
135840 Off ch=10 n=38 v=80
135840 Off ch=10 n=38 v=80
135840 On ch=10 n=44 v=95
135840 On ch=10 n=36 v=95
135840 On ch=10 n=36 v=95
136320 Off ch=10 n=44 v=80
136320 Off ch=10 n=36 v=80
136320 Off ch=10 n=36 v=80
136320 On ch=10 n=44 v=95
136320 On ch=10 n=36 v=95
136320 On ch=10 n=36 v=95
136800 Off ch=10 n=44 v=80
136800 Off ch=10 n=36 v=80
136800 Off ch=10 n=36 v=80
136800 On ch=10 n=44 v=95
136800 On ch=10 n=36 v=95
136800 On ch=10 n=36 v=95
137280 Off ch=10 n=44 v=80
137280 Off ch=10 n=36 v=80
137280 Off ch=10 n=36 v=80
137280 On ch=10 n=44 v=95
137280 On ch=10 n=38 v=95
137280 On ch=10 n=38 v=95
137760 Off ch=10 n=44 v=80
137760 Off ch=10 n=38 v=80
137760 Off ch=10 n=38 v=80
137760 On ch=10 n=44 v=95
137760 On ch=10 n=36 v=95
137760 On ch=10 n=36 v=95
138240 Off ch=10 n=44 v=80
138240 Off ch=10 n=36 v=80
138240 Off ch=10 n=36 v=80
138240 On ch=10 n=57 v=95
138240 On ch=10 n=49 v=95
138240 On ch=10 n=36 v=95
138240 On ch=10 n=36 v=95
138720 Off ch=10 n=57 v=80
138720 Off ch=10 n=49 v=80
138720 Off ch=10 n=36 v=80
138720 Off ch=10 n=36 v=80
139200 On ch=10 n=44 v=95
139200 On ch=10 n=38 v=95
139200 On ch=10 n=38 v=95
139680 Off ch=10 n=44 v=80
139680 Off ch=10 n=38 v=80
139680 Off ch=10 n=38 v=80
139680 On ch=10 n=44 v=95
139680 On ch=10 n=36 v=95
139680 On ch=10 n=36 v=95
140160 Off ch=10 n=44 v=80
140160 Off ch=10 n=36 v=80
140160 Off ch=10 n=36 v=80
140160 On ch=10 n=44 v=95
140160 On ch=10 n=36 v=95
140160 On ch=10 n=36 v=95
140640 Off ch=10 n=44 v=80
140640 Off ch=10 n=36 v=80
140640 Off ch=10 n=36 v=80
140640 On ch=10 n=44 v=95
140640 On ch=10 n=36 v=95
140640 On ch=10 n=36 v=95
141120 Off ch=10 n=44 v=80
141120 Off ch=10 n=36 v=80
141120 Off ch=10 n=36 v=80
141120 On ch=10 n=44 v=95
141120 On ch=10 n=38 v=95
141120 On ch=10 n=38 v=95
141600 Off ch=10 n=44 v=80
141600 Off ch=10 n=38 v=80
141600 Off ch=10 n=38 v=80
141600 On ch=10 n=44 v=95
141600 On ch=10 n=36 v=95
141600 On ch=10 n=36 v=95
142080 Off ch=10 n=44 v=80
142080 Off ch=10 n=36 v=80
142080 Off ch=10 n=36 v=80
142080 On ch=10 n=44 v=95
142080 On ch=10 n=36 v=95
142080 On ch=10 n=36 v=95
142560 Off ch=10 n=44 v=80
142560 Off ch=10 n=36 v=80
142560 Off ch=10 n=36 v=80
142560 On ch=10 n=44 v=95
142560 On ch=10 n=36 v=95
142560 On ch=10 n=36 v=95
143040 Off ch=10 n=44 v=80
143040 Off ch=10 n=36 v=80
143040 Off ch=10 n=36 v=80
143040 On ch=10 n=44 v=95
143040 On ch=10 n=38 v=95
143040 On ch=10 n=38 v=95
143520 Off ch=10 n=44 v=80
143520 Off ch=10 n=38 v=80
143520 Off ch=10 n=38 v=80
143520 On ch=10 n=44 v=95
143520 On ch=10 n=36 v=95
143520 On ch=10 n=36 v=95
144000 Off ch=10 n=44 v=80
144000 Off ch=10 n=36 v=80
144000 Off ch=10 n=36 v=80
144000 On ch=10 n=44 v=95
144000 On ch=10 n=36 v=95
144000 On ch=10 n=36 v=95
144480 Off ch=10 n=44 v=80
144480 Off ch=10 n=36 v=80
144480 Off ch=10 n=36 v=80
144480 On ch=10 n=44 v=95
144480 On ch=10 n=36 v=95
144480 On ch=10 n=36 v=95
144960 Off ch=10 n=44 v=80
144960 Off ch=10 n=36 v=80
144960 Off ch=10 n=36 v=80
144960 On ch=10 n=44 v=95
144960 On ch=10 n=38 v=95
144960 On ch=10 n=38 v=95
145440 Off ch=10 n=44 v=80
145440 Off ch=10 n=38 v=80
145440 Off ch=10 n=38 v=80
145440 On ch=10 n=44 v=95
145440 On ch=10 n=36 v=95
145440 On ch=10 n=36 v=95
145920 Off ch=10 n=44 v=80
145920 Off ch=10 n=36 v=80
145920 Off ch=10 n=36 v=80
145920 On ch=10 n=44 v=95
145920 On ch=10 n=36 v=95
145920 On ch=10 n=36 v=95
146400 Off ch=10 n=44 v=80
146400 Off ch=10 n=36 v=80
146400 Off ch=10 n=36 v=80
146400 On ch=10 n=44 v=95
146400 On ch=10 n=36 v=95
146400 On ch=10 n=36 v=95
146880 Off ch=10 n=44 v=80
146880 Off ch=10 n=36 v=80
146880 Off ch=10 n=36 v=80
146880 On ch=10 n=44 v=95
146880 On ch=10 n=38 v=95
146880 On ch=10 n=38 v=95
147360 Off ch=10 n=44 v=80
147360 Off ch=10 n=38 v=80
147360 Off ch=10 n=38 v=80
147360 On ch=10 n=44 v=95
147360 On ch=10 n=36 v=95
147360 On ch=10 n=36 v=95
147840 Off ch=10 n=44 v=80
147840 Off ch=10 n=36 v=80
147840 Off ch=10 n=36 v=80
147840 On ch=10 n=44 v=95
147840 On ch=10 n=36 v=95
147840 On ch=10 n=36 v=95
148320 Off ch=10 n=44 v=80
148320 Off ch=10 n=36 v=80
148320 Off ch=10 n=36 v=80
148320 On ch=10 n=44 v=95
148320 On ch=10 n=36 v=95
148320 On ch=10 n=36 v=95
148800 Off ch=10 n=44 v=80
148800 Off ch=10 n=36 v=80
148800 Off ch=10 n=36 v=80
148800 On ch=10 n=44 v=95
148800 On ch=10 n=38 v=95
148800 On ch=10 n=38 v=95
149280 Off ch=10 n=44 v=80
149280 Off ch=10 n=38 v=80
149280 Off ch=10 n=38 v=80
149280 On ch=10 n=44 v=95
149280 On ch=10 n=36 v=95
149280 On ch=10 n=36 v=95
149760 Off ch=10 n=44 v=80
149760 Off ch=10 n=36 v=80
149760 Off ch=10 n=36 v=80
149760 On ch=10 n=44 v=95
149760 On ch=10 n=36 v=95
149760 On ch=10 n=36 v=95
150240 Off ch=10 n=44 v=80
150240 Off ch=10 n=36 v=80
150240 Off ch=10 n=36 v=80
150240 On ch=10 n=44 v=95
150240 On ch=10 n=36 v=95
150240 On ch=10 n=36 v=95
150720 Off ch=10 n=44 v=80
150720 Off ch=10 n=36 v=80
150720 Off ch=10 n=36 v=80
150720 On ch=10 n=44 v=95
150720 On ch=10 n=38 v=95
150720 On ch=10 n=38 v=95
151200 Off ch=10 n=44 v=80
151200 Off ch=10 n=38 v=80
151200 Off ch=10 n=38 v=80
151200 On ch=10 n=44 v=95
151200 On ch=10 n=36 v=95
151200 On ch=10 n=36 v=95
151680 Off ch=10 n=44 v=80
151680 Off ch=10 n=36 v=80
151680 Off ch=10 n=36 v=80
151680 On ch=10 n=44 v=95
151680 On ch=10 n=36 v=95
151680 On ch=10 n=36 v=95
152160 Off ch=10 n=44 v=80
152160 Off ch=10 n=36 v=80
152160 Off ch=10 n=36 v=80
152160 On ch=10 n=44 v=95
152160 On ch=10 n=36 v=95
152160 On ch=10 n=36 v=95
152640 Off ch=10 n=44 v=80
152640 Off ch=10 n=36 v=80
152640 Off ch=10 n=36 v=80
152640 On ch=10 n=44 v=95
152640 On ch=10 n=38 v=95
152640 On ch=10 n=38 v=95
153120 Off ch=10 n=44 v=80
153120 Off ch=10 n=38 v=80
153120 Off ch=10 n=38 v=80
153120 On ch=10 n=44 v=95
153120 On ch=10 n=36 v=95
153120 On ch=10 n=36 v=95
153600 Off ch=10 n=44 v=80
153600 Off ch=10 n=36 v=80
153600 Off ch=10 n=36 v=80
153600 On ch=10 n=44 v=95
153600 On ch=10 n=36 v=95
153600 On ch=10 n=36 v=95
154080 Off ch=10 n=44 v=80
154080 Off ch=10 n=36 v=80
154080 Off ch=10 n=36 v=80
154080 On ch=10 n=44 v=95
154080 On ch=10 n=36 v=95
154080 On ch=10 n=36 v=95
154560 Off ch=10 n=44 v=80
154560 Off ch=10 n=36 v=80
154560 Off ch=10 n=36 v=80
154560 On ch=10 n=44 v=95
154560 On ch=10 n=38 v=95
154560 On ch=10 n=38 v=95
155040 Off ch=10 n=44 v=80
155040 Off ch=10 n=38 v=80
155040 Off ch=10 n=38 v=80
155040 On ch=10 n=44 v=95
155040 On ch=10 n=36 v=95
155040 On ch=10 n=36 v=95
155520 Off ch=10 n=44 v=80
155520 Off ch=10 n=36 v=80
155520 Off ch=10 n=36 v=80
155520 On ch=10 n=44 v=95
155520 On ch=10 n=36 v=95
155520 On ch=10 n=36 v=95
156000 Off ch=10 n=44 v=80
156000 Off ch=10 n=36 v=80
156000 Off ch=10 n=36 v=80
156000 On ch=10 n=44 v=95
156000 On ch=10 n=36 v=95
156000 On ch=10 n=36 v=95
156480 Off ch=10 n=44 v=80
156480 Off ch=10 n=36 v=80
156480 Off ch=10 n=36 v=80
156480 On ch=10 n=44 v=95
156480 On ch=10 n=38 v=95
156480 On ch=10 n=38 v=95
156960 Off ch=10 n=44 v=80
156960 Off ch=10 n=38 v=80
156960 Off ch=10 n=38 v=80
156960 On ch=10 n=44 v=95
156960 On ch=10 n=36 v=95
156960 On ch=10 n=36 v=95
157440 Off ch=10 n=44 v=80
157440 Off ch=10 n=36 v=80
157440 Off ch=10 n=36 v=80
157440 On ch=10 n=44 v=95
157440 On ch=10 n=36 v=95
157440 On ch=10 n=36 v=95
157920 Off ch=10 n=44 v=80
157920 Off ch=10 n=36 v=80
157920 Off ch=10 n=36 v=80
157920 On ch=10 n=44 v=95
157920 On ch=10 n=36 v=95
157920 On ch=10 n=36 v=95
158400 Off ch=10 n=44 v=80
158400 Off ch=10 n=36 v=80
158400 Off ch=10 n=36 v=80
158400 On ch=10 n=44 v=95
158400 On ch=10 n=38 v=95
158400 On ch=10 n=38 v=95
158880 Off ch=10 n=44 v=80
158880 Off ch=10 n=38 v=80
158880 Off ch=10 n=38 v=80
158880 On ch=10 n=44 v=95
158880 On ch=10 n=36 v=95
158880 On ch=10 n=36 v=95
159360 Off ch=10 n=44 v=80
159360 Off ch=10 n=36 v=80
159360 Off ch=10 n=36 v=80
159360 On ch=10 n=44 v=95
159360 On ch=10 n=36 v=95
159360 On ch=10 n=36 v=95
159840 Off ch=10 n=44 v=80
159840 Off ch=10 n=36 v=80
159840 Off ch=10 n=36 v=80
159840 On ch=10 n=44 v=95
159840 On ch=10 n=36 v=95
159840 On ch=10 n=36 v=95
160320 Off ch=10 n=44 v=80
160320 Off ch=10 n=36 v=80
160320 Off ch=10 n=36 v=80
160320 On ch=10 n=44 v=95
160320 On ch=10 n=38 v=95
160320 On ch=10 n=38 v=95
160800 Off ch=10 n=44 v=80
160800 Off ch=10 n=38 v=80
160800 Off ch=10 n=38 v=80
160800 On ch=10 n=44 v=95
160800 On ch=10 n=36 v=95
160800 On ch=10 n=36 v=95
161280 Off ch=10 n=44 v=80
161280 Off ch=10 n=36 v=80
161280 Off ch=10 n=36 v=80
161280 On ch=10 n=44 v=95
161280 On ch=10 n=36 v=95
161280 On ch=10 n=36 v=95
161760 Off ch=10 n=44 v=80
161760 Off ch=10 n=36 v=80
161760 Off ch=10 n=36 v=80
161760 On ch=10 n=44 v=95
161760 On ch=10 n=36 v=95
161760 On ch=10 n=36 v=95
162240 Off ch=10 n=44 v=80
162240 Off ch=10 n=36 v=80
162240 Off ch=10 n=36 v=80
162240 On ch=10 n=44 v=95
162240 On ch=10 n=38 v=95
162240 On ch=10 n=38 v=95
162720 Off ch=10 n=44 v=80
162720 Off ch=10 n=38 v=80
162720 Off ch=10 n=38 v=80
162720 On ch=10 n=44 v=95
162720 On ch=10 n=36 v=95
162720 On ch=10 n=36 v=95
163200 Off ch=10 n=44 v=80
163200 Off ch=10 n=36 v=80
163200 Off ch=10 n=36 v=80
163200 On ch=10 n=44 v=95
163200 On ch=10 n=36 v=95
163200 On ch=10 n=36 v=95
163680 Off ch=10 n=44 v=80
163680 Off ch=10 n=36 v=80
163680 Off ch=10 n=36 v=80
163680 On ch=10 n=44 v=95
163680 On ch=10 n=36 v=95
163680 On ch=10 n=36 v=95
164160 Off ch=10 n=44 v=80
164160 Off ch=10 n=36 v=80
164160 Off ch=10 n=36 v=80
164160 On ch=10 n=44 v=95
164160 On ch=10 n=38 v=95
164160 On ch=10 n=38 v=95
164640 Off ch=10 n=44 v=80
164640 Off ch=10 n=38 v=80
164640 Off ch=10 n=38 v=80
164640 On ch=10 n=44 v=95
164640 On ch=10 n=36 v=95
164640 On ch=10 n=36 v=95
165120 Off ch=10 n=44 v=80
165120 Off ch=10 n=36 v=80
165120 Off ch=10 n=36 v=80
165120 On ch=10 n=44 v=95
165120 On ch=10 n=36 v=95
165120 On ch=10 n=36 v=95
165600 Off ch=10 n=44 v=80
165600 Off ch=10 n=36 v=80
165600 Off ch=10 n=36 v=80
165600 On ch=10 n=44 v=95
165600 On ch=10 n=36 v=95
165600 On ch=10 n=36 v=95
166080 Off ch=10 n=44 v=80
166080 Off ch=10 n=36 v=80
166080 Off ch=10 n=36 v=80
166080 On ch=10 n=49 v=95
166080 On ch=10 n=57 v=95
166080 On ch=10 n=38 v=95
166080 On ch=10 n=38 v=95
167040 Off ch=10 n=49 v=80
167040 Off ch=10 n=57 v=80
167040 Off ch=10 n=38 v=80
167040 Off ch=10 n=38 v=80
167040 On ch=10 n=49 v=95
167040 On ch=10 n=36 v=95
167040 On ch=10 n=36 v=95
167520 Off ch=10 n=49 v=80
167520 Off ch=10 n=36 v=80
167520 Off ch=10 n=36 v=80
167520 On ch=10 n=49 v=95
167520 On ch=10 n=36 v=95
167520 On ch=10 n=36 v=95
168000 Off ch=10 n=49 v=80
168000 Off ch=10 n=36 v=80
168000 Off ch=10 n=36 v=80
168000 On ch=10 n=38 v=95
168000 On ch=10 n=38 v=95
168240 Off ch=10 n=38 v=80
168240 Off ch=10 n=38 v=80
168240 On ch=10 n=38 v=95
168240 On ch=10 n=38 v=95
168480 Off ch=10 n=38 v=80
168480 Off ch=10 n=38 v=80
168480 On ch=10 n=38 v=95
168480 On ch=10 n=38 v=95
168720 Off ch=10 n=38 v=80
168720 Off ch=10 n=38 v=80
168720 On ch=10 n=38 v=95
168720 On ch=10 n=38 v=95
168960 Off ch=10 n=38 v=80
168960 Off ch=10 n=38 v=80
168960 On ch=10 n=57 v=95
168960 On ch=10 n=49 v=95
168960 On ch=10 n=36 v=95
168960 On ch=10 n=36 v=95
169440 Off ch=10 n=57 v=80
169440 Off ch=10 n=49 v=80
169440 Off ch=10 n=36 v=80
169440 Off ch=10 n=36 v=80
169440 On ch=10 n=49 v=95
169440 On ch=10 n=36 v=95
169440 On ch=10 n=36 v=95
169920 Off ch=10 n=49 v=80
169920 Off ch=10 n=36 v=80
169920 Off ch=10 n=36 v=80
169920 On ch=10 n=49 v=95
169920 On ch=10 n=38 v=95
169920 On ch=10 n=38 v=95
170400 Off ch=10 n=49 v=80
170400 Off ch=10 n=38 v=80
170400 Off ch=10 n=38 v=80
170400 On ch=10 n=49 v=95
170880 Off ch=10 n=49 v=80
170880 On ch=10 n=49 v=95
170880 On ch=10 n=36 v=95
170880 On ch=10 n=36 v=95
171360 Off ch=10 n=49 v=80
171360 Off ch=10 n=36 v=80
171360 Off ch=10 n=36 v=80
171360 On ch=10 n=49 v=95
171360 On ch=10 n=36 v=95
171360 On ch=10 n=36 v=95
171840 Off ch=10 n=49 v=80
171840 Off ch=10 n=36 v=80
171840 Off ch=10 n=36 v=80
171840 On ch=10 n=49 v=95
171840 On ch=10 n=38 v=95
171840 On ch=10 n=38 v=95
172320 Off ch=10 n=49 v=80
172320 Off ch=10 n=38 v=80
172320 Off ch=10 n=38 v=80
172320 On ch=10 n=49 v=95
172800 Off ch=10 n=49 v=80
172800 On ch=10 n=49 v=95
172800 On ch=10 n=36 v=95
172800 On ch=10 n=36 v=95
173280 Off ch=10 n=49 v=80
173280 Off ch=10 n=36 v=80
173280 Off ch=10 n=36 v=80
173280 On ch=10 n=49 v=95
173280 On ch=10 n=36 v=95
173280 On ch=10 n=36 v=95
173760 Off ch=10 n=49 v=80
173760 Off ch=10 n=36 v=80
173760 Off ch=10 n=36 v=80
173760 On ch=10 n=49 v=95
173760 On ch=10 n=38 v=95
173760 On ch=10 n=38 v=95
174240 Off ch=10 n=49 v=80
174240 Off ch=10 n=38 v=80
174240 Off ch=10 n=38 v=80
174240 On ch=10 n=49 v=95
174720 Off ch=10 n=49 v=80
174720 On ch=10 n=49 v=95
174720 On ch=10 n=36 v=95
174720 On ch=10 n=36 v=95
175200 Off ch=10 n=49 v=80
175200 Off ch=10 n=36 v=80
175200 Off ch=10 n=36 v=80
175200 On ch=10 n=49 v=95
175200 On ch=10 n=36 v=95
175200 On ch=10 n=36 v=95
175680 Off ch=10 n=49 v=80
175680 Off ch=10 n=36 v=80
175680 Off ch=10 n=36 v=80
175680 On ch=10 n=49 v=95
175680 On ch=10 n=38 v=95
175680 On ch=10 n=38 v=95
176160 Off ch=10 n=49 v=80
176160 Off ch=10 n=38 v=80
176160 Off ch=10 n=38 v=80
176160 On ch=10 n=49 v=95
176640 Off ch=10 n=49 v=80
176640 On ch=10 n=49 v=95
176640 On ch=10 n=36 v=95
176640 On ch=10 n=36 v=95
177120 Off ch=10 n=49 v=80
177120 Off ch=10 n=36 v=80
177120 Off ch=10 n=36 v=80
177120 On ch=10 n=49 v=95
177120 On ch=10 n=36 v=95
177120 On ch=10 n=36 v=95
177600 Off ch=10 n=49 v=80
177600 Off ch=10 n=36 v=80
177600 Off ch=10 n=36 v=80
177600 On ch=10 n=49 v=95
177600 On ch=10 n=38 v=95
177600 On ch=10 n=38 v=95
178080 Off ch=10 n=49 v=80
178080 Off ch=10 n=38 v=80
178080 Off ch=10 n=38 v=80
178080 On ch=10 n=49 v=95
178560 Off ch=10 n=49 v=80
178560 On ch=10 n=49 v=95
178560 On ch=10 n=36 v=95
178560 On ch=10 n=36 v=95
179040 Off ch=10 n=49 v=80
179040 Off ch=10 n=36 v=80
179040 Off ch=10 n=36 v=80
179040 On ch=10 n=49 v=95
179040 On ch=10 n=36 v=95
179040 On ch=10 n=36 v=95
179520 Off ch=10 n=49 v=80
179520 Off ch=10 n=36 v=80
179520 Off ch=10 n=36 v=80
179520 On ch=10 n=49 v=95
179520 On ch=10 n=38 v=95
179520 On ch=10 n=38 v=95
180000 Off ch=10 n=49 v=80
180000 Off ch=10 n=38 v=80
180000 Off ch=10 n=38 v=80
180000 On ch=10 n=49 v=95
180480 Off ch=10 n=49 v=80
180480 On ch=10 n=49 v=95
180480 On ch=10 n=36 v=95
180480 On ch=10 n=36 v=95
180960 Off ch=10 n=49 v=80
180960 Off ch=10 n=36 v=80
180960 Off ch=10 n=36 v=80
180960 On ch=10 n=49 v=95
180960 On ch=10 n=36 v=95
180960 On ch=10 n=36 v=95
181440 Off ch=10 n=49 v=80
181440 Off ch=10 n=36 v=80
181440 Off ch=10 n=36 v=80
181440 On ch=10 n=49 v=95
181440 On ch=10 n=38 v=95
181440 On ch=10 n=38 v=95
181920 Off ch=10 n=49 v=80
181920 Off ch=10 n=38 v=80
181920 Off ch=10 n=38 v=80
181920 On ch=10 n=49 v=95
182160 Off ch=10 n=49 v=80
182160 On ch=10 n=38 v=95
182160 On ch=10 n=38 v=95
182400 Off ch=10 n=38 v=80
182400 Off ch=10 n=38 v=80
182400 On ch=10 n=49 v=95
182400 On ch=10 n=36 v=95
182400 On ch=10 n=36 v=95
182880 Off ch=10 n=49 v=80
182880 Off ch=10 n=36 v=80
182880 Off ch=10 n=36 v=80
182880 On ch=10 n=49 v=95
182880 On ch=10 n=36 v=95
182880 On ch=10 n=36 v=95
183360 Off ch=10 n=49 v=80
183360 Off ch=10 n=36 v=80
183360 Off ch=10 n=36 v=80
183360 On ch=10 n=49 v=95
183360 On ch=10 n=38 v=95
183360 On ch=10 n=38 v=95
183840 Off ch=10 n=49 v=80
183840 Off ch=10 n=38 v=80
183840 Off ch=10 n=38 v=80
183840 On ch=10 n=49 v=95
184320 Off ch=10 n=49 v=80
184320 On ch=10 n=49 v=95
184320 On ch=10 n=36 v=95
184320 On ch=10 n=36 v=95
184800 Off ch=10 n=49 v=80
184800 Off ch=10 n=36 v=80
184800 Off ch=10 n=36 v=80
184800 On ch=10 n=49 v=95
184800 On ch=10 n=36 v=95
184800 On ch=10 n=36 v=95
185280 Off ch=10 n=49 v=80
185280 Off ch=10 n=36 v=80
185280 Off ch=10 n=36 v=80
185280 On ch=10 n=49 v=95
185280 On ch=10 n=38 v=95
185280 On ch=10 n=38 v=95
185760 Off ch=10 n=49 v=80
185760 Off ch=10 n=38 v=80
185760 Off ch=10 n=38 v=80
185760 On ch=10 n=49 v=95
186240 Off ch=10 n=49 v=80
186240 On ch=10 n=49 v=95
186240 On ch=10 n=36 v=95
186240 On ch=10 n=36 v=95
186720 Off ch=10 n=49 v=80
186720 Off ch=10 n=36 v=80
186720 Off ch=10 n=36 v=80
186720 On ch=10 n=49 v=95
186720 On ch=10 n=36 v=95
186720 On ch=10 n=36 v=95
187200 Off ch=10 n=49 v=80
187200 Off ch=10 n=36 v=80
187200 Off ch=10 n=36 v=80
187200 On ch=10 n=49 v=95
187200 On ch=10 n=38 v=95
187200 On ch=10 n=38 v=95
187680 Off ch=10 n=49 v=80
187680 Off ch=10 n=38 v=80
187680 Off ch=10 n=38 v=80
187680 On ch=10 n=49 v=95
188160 Off ch=10 n=49 v=80
188160 On ch=10 n=49 v=95
188160 On ch=10 n=36 v=95
188160 On ch=10 n=36 v=95
188640 Off ch=10 n=49 v=80
188640 Off ch=10 n=36 v=80
188640 Off ch=10 n=36 v=80
188640 On ch=10 n=49 v=95
188640 On ch=10 n=36 v=95
188640 On ch=10 n=36 v=95
189120 Off ch=10 n=49 v=80
189120 Off ch=10 n=36 v=80
189120 Off ch=10 n=36 v=80
189120 On ch=10 n=49 v=95
189120 On ch=10 n=38 v=95
189120 On ch=10 n=38 v=95
189600 Off ch=10 n=49 v=80
189600 Off ch=10 n=38 v=80
189600 Off ch=10 n=38 v=80
189600 On ch=10 n=49 v=95
189840 Off ch=10 n=49 v=80
189840 On ch=10 n=38 v=95
189840 On ch=10 n=38 v=95
190080 Off ch=10 n=38 v=80
190080 Off ch=10 n=38 v=80
190080 On ch=10 n=49 v=95
190080 On ch=10 n=36 v=95
190080 On ch=10 n=36 v=95
190560 Off ch=10 n=49 v=80
190560 Off ch=10 n=36 v=80
190560 Off ch=10 n=36 v=80
190560 On ch=10 n=49 v=95
190560 On ch=10 n=36 v=95
190560 On ch=10 n=36 v=95
191040 Off ch=10 n=49 v=80
191040 Off ch=10 n=36 v=80
191040 Off ch=10 n=36 v=80
191040 On ch=10 n=49 v=95
191040 On ch=10 n=38 v=95
191040 On ch=10 n=38 v=95
191520 Off ch=10 n=49 v=80
191520 Off ch=10 n=38 v=80
191520 Off ch=10 n=38 v=80
191520 On ch=10 n=49 v=95
192000 Off ch=10 n=49 v=80
192000 On ch=10 n=49 v=95
192000 On ch=10 n=36 v=95
192000 On ch=10 n=36 v=95
192480 Off ch=10 n=49 v=80
192480 Off ch=10 n=36 v=80
192480 Off ch=10 n=36 v=80
192480 On ch=10 n=49 v=95
192480 On ch=10 n=36 v=95
192480 On ch=10 n=36 v=95
192960 Off ch=10 n=49 v=80
192960 Off ch=10 n=36 v=80
192960 Off ch=10 n=36 v=80
192960 On ch=10 n=49 v=95
192960 On ch=10 n=38 v=95
192960 On ch=10 n=38 v=95
193440 Off ch=10 n=49 v=80
193440 Off ch=10 n=38 v=80
193440 Off ch=10 n=38 v=80
193440 On ch=10 n=49 v=95
193920 Off ch=10 n=49 v=80
193920 On ch=10 n=49 v=95
193920 On ch=10 n=36 v=95
193920 On ch=10 n=36 v=95
194400 Off ch=10 n=49 v=80
194400 Off ch=10 n=36 v=80
194400 Off ch=10 n=36 v=80
194400 On ch=10 n=49 v=95
194400 On ch=10 n=36 v=95
194400 On ch=10 n=36 v=95
194880 Off ch=10 n=49 v=80
194880 Off ch=10 n=36 v=80
194880 Off ch=10 n=36 v=80
194880 On ch=10 n=49 v=95
194880 On ch=10 n=38 v=95
194880 On ch=10 n=38 v=95
195360 Off ch=10 n=49 v=80
195360 Off ch=10 n=38 v=80
195360 Off ch=10 n=38 v=80
195360 On ch=10 n=49 v=95
195360 On ch=10 n=36 v=95
195360 On ch=10 n=36 v=95
195840 Off ch=10 n=49 v=80
195840 Off ch=10 n=36 v=80
195840 Off ch=10 n=36 v=80
195840 On ch=10 n=49 v=95
195840 On ch=10 n=36 v=95
195840 On ch=10 n=36 v=95
196320 Off ch=10 n=49 v=80
196320 Off ch=10 n=36 v=80
196320 Off ch=10 n=36 v=80
196320 On ch=10 n=49 v=95
196320 On ch=10 n=36 v=95
196320 On ch=10 n=36 v=95
196800 Off ch=10 n=49 v=80
196800 Off ch=10 n=36 v=80
196800 Off ch=10 n=36 v=80
196800 On ch=10 n=49 v=95
196800 On ch=10 n=36 v=95
196800 On ch=10 n=36 v=95
197280 Off ch=10 n=49 v=80
197280 Off ch=10 n=36 v=80
197280 Off ch=10 n=36 v=80
197280 On ch=10 n=49 v=95
197280 On ch=10 n=36 v=95
197280 On ch=10 n=36 v=95
197760 Off ch=10 n=49 v=80
197760 Off ch=10 n=36 v=80
197760 Off ch=10 n=36 v=80
197760 On ch=10 n=49 v=95
197760 On ch=10 n=57 v=95
197760 On ch=10 n=36 v=95
197760 On ch=10 n=36 v=95
199680 Off ch=10 n=49 v=80
199680 Off ch=10 n=57 v=80
199680 Off ch=10 n=36 v=80
199680 Off ch=10 n=36 v=80
199680 Par ch=10 c=7 v=104
199680 Par ch=10 c=93 v=127
199680 Par ch=10 c=91 v=127
199680 On ch=10 n=57 v=95
199680 On ch=10 n=49 v=95
199680 On ch=10 n=36 v=95
199680 On ch=10 n=36 v=95
200160 Off ch=10 n=57 v=80
200160 Off ch=10 n=49 v=80
200160 Off ch=10 n=36 v=80
200160 Off ch=10 n=36 v=80
200640 On ch=10 n=44 v=95
200640 On ch=10 n=38 v=95
200640 On ch=10 n=38 v=95
201120 Off ch=10 n=44 v=80
201120 Off ch=10 n=38 v=80
201120 Off ch=10 n=38 v=80
201120 On ch=10 n=44 v=95
201120 On ch=10 n=36 v=95
201120 On ch=10 n=36 v=95
201600 Off ch=10 n=44 v=80
201600 Off ch=10 n=36 v=80
201600 Off ch=10 n=36 v=80
201600 On ch=10 n=44 v=95
201600 On ch=10 n=36 v=95
201600 On ch=10 n=36 v=95
202080 Off ch=10 n=44 v=80
202080 Off ch=10 n=36 v=80
202080 Off ch=10 n=36 v=80
202080 On ch=10 n=44 v=95
202080 On ch=10 n=36 v=95
202080 On ch=10 n=36 v=95
202560 Off ch=10 n=44 v=80
202560 Off ch=10 n=36 v=80
202560 Off ch=10 n=36 v=80
202560 On ch=10 n=44 v=95
202560 On ch=10 n=38 v=95
202560 On ch=10 n=38 v=95
203040 Off ch=10 n=44 v=80
203040 Off ch=10 n=38 v=80
203040 Off ch=10 n=38 v=80
203040 On ch=10 n=44 v=95
203040 On ch=10 n=36 v=95
203040 On ch=10 n=36 v=95
203520 Off ch=10 n=44 v=80
203520 Off ch=10 n=36 v=80
203520 Off ch=10 n=36 v=80
203520 On ch=10 n=44 v=95
203520 On ch=10 n=36 v=95
203520 On ch=10 n=36 v=95
204000 Off ch=10 n=44 v=80
204000 Off ch=10 n=36 v=80
204000 Off ch=10 n=36 v=80
204000 On ch=10 n=44 v=95
204000 On ch=10 n=36 v=95
204000 On ch=10 n=36 v=95
204480 Off ch=10 n=44 v=80
204480 Off ch=10 n=36 v=80
204480 Off ch=10 n=36 v=80
204480 On ch=10 n=44 v=95
204480 On ch=10 n=38 v=95
204480 On ch=10 n=38 v=95
204960 Off ch=10 n=44 v=80
204960 Off ch=10 n=38 v=80
204960 Off ch=10 n=38 v=80
204960 On ch=10 n=44 v=95
204960 On ch=10 n=36 v=95
204960 On ch=10 n=36 v=95
205440 Off ch=10 n=44 v=80
205440 Off ch=10 n=36 v=80
205440 Off ch=10 n=36 v=80
205440 On ch=10 n=44 v=95
205440 On ch=10 n=36 v=95
205440 On ch=10 n=36 v=95
205920 Off ch=10 n=44 v=80
205920 Off ch=10 n=36 v=80
205920 Off ch=10 n=36 v=80
205920 On ch=10 n=44 v=95
205920 On ch=10 n=36 v=95
205920 On ch=10 n=36 v=95
206400 Off ch=10 n=44 v=80
206400 Off ch=10 n=36 v=80
206400 Off ch=10 n=36 v=80
206400 On ch=10 n=44 v=95
206400 On ch=10 n=38 v=95
206400 On ch=10 n=38 v=95
206880 Off ch=10 n=44 v=80
206880 Off ch=10 n=38 v=80
206880 Off ch=10 n=38 v=80
206880 On ch=10 n=44 v=95
206880 On ch=10 n=36 v=95
206880 On ch=10 n=36 v=95
207360 Off ch=10 n=44 v=80
207360 Off ch=10 n=36 v=80
207360 Off ch=10 n=36 v=80
207360 Par ch=10 c=93 v=127
207360 Par ch=10 c=91 v=127
207360 On ch=10 n=57 v=95
207360 On ch=10 n=49 v=95
207360 On ch=10 n=36 v=95
207360 On ch=10 n=36 v=95
207840 Off ch=10 n=57 v=80
207840 Off ch=10 n=49 v=80
207840 Off ch=10 n=36 v=80
207840 Off ch=10 n=36 v=80
208320 On ch=10 n=44 v=95
208320 On ch=10 n=38 v=95
208320 On ch=10 n=38 v=95
208800 Off ch=10 n=44 v=80
208800 Off ch=10 n=38 v=80
208800 Off ch=10 n=38 v=80
208800 On ch=10 n=44 v=95
208800 On ch=10 n=36 v=95
208800 On ch=10 n=36 v=95
209280 Off ch=10 n=44 v=80
209280 Off ch=10 n=36 v=80
209280 Off ch=10 n=36 v=80
209280 On ch=10 n=44 v=95
209280 On ch=10 n=36 v=95
209280 On ch=10 n=36 v=95
209760 Off ch=10 n=44 v=80
209760 Off ch=10 n=36 v=80
209760 Off ch=10 n=36 v=80
209760 On ch=10 n=44 v=95
209760 On ch=10 n=36 v=95
209760 On ch=10 n=36 v=95
210240 Off ch=10 n=44 v=80
210240 Off ch=10 n=36 v=80
210240 Off ch=10 n=36 v=80
210240 On ch=10 n=44 v=95
210240 On ch=10 n=38 v=95
210240 On ch=10 n=38 v=95
210720 Off ch=10 n=44 v=80
210720 Off ch=10 n=38 v=80
210720 Off ch=10 n=38 v=80
210720 On ch=10 n=44 v=95
210720 On ch=10 n=36 v=95
210720 On ch=10 n=36 v=95
211200 Off ch=10 n=44 v=80
211200 Off ch=10 n=36 v=80
211200 Off ch=10 n=36 v=80
211200 On ch=10 n=44 v=95
211200 On ch=10 n=36 v=95
211200 On ch=10 n=36 v=95
211680 Off ch=10 n=44 v=80
211680 Off ch=10 n=36 v=80
211680 Off ch=10 n=36 v=80
211680 On ch=10 n=44 v=95
211680 On ch=10 n=36 v=95
211680 On ch=10 n=36 v=95
212160 Off ch=10 n=44 v=80
212160 Off ch=10 n=36 v=80
212160 Off ch=10 n=36 v=80
212160 On ch=10 n=49 v=95
212160 On ch=10 n=57 v=95
212160 On ch=10 n=38 v=95
212160 On ch=10 n=38 v=95
213120 Off ch=10 n=49 v=80
213120 Off ch=10 n=57 v=80
213120 Off ch=10 n=38 v=80
213120 Off ch=10 n=38 v=80
213120 On ch=10 n=49 v=95
213120 On ch=10 n=36 v=95
213120 On ch=10 n=36 v=95
213600 Off ch=10 n=49 v=80
213600 Off ch=10 n=36 v=80
213600 Off ch=10 n=36 v=80
213600 On ch=10 n=49 v=95
213600 On ch=10 n=36 v=95
213600 On ch=10 n=36 v=95
214080 Off ch=10 n=49 v=80
214080 Off ch=10 n=36 v=80
214080 Off ch=10 n=36 v=80
214080 On ch=10 n=38 v=95
214080 On ch=10 n=38 v=95
214320 Off ch=10 n=38 v=80
214320 Off ch=10 n=38 v=80
214320 On ch=10 n=38 v=95
214320 On ch=10 n=38 v=95
214560 Off ch=10 n=38 v=80
214560 Off ch=10 n=38 v=80
214560 On ch=10 n=38 v=95
214560 On ch=10 n=38 v=95
214800 Off ch=10 n=38 v=80
214800 Off ch=10 n=38 v=80
214800 On ch=10 n=38 v=95
214800 On ch=10 n=38 v=95
215040 Off ch=10 n=38 v=80
215040 Off ch=10 n=38 v=80
215040 On ch=10 n=57 v=95
215040 On ch=10 n=49 v=95
215040 On ch=10 n=36 v=95
215040 On ch=10 n=36 v=95
215520 Off ch=10 n=57 v=80
215520 Off ch=10 n=49 v=80
215520 Off ch=10 n=36 v=80
215520 Off ch=10 n=36 v=80
215520 On ch=10 n=49 v=95
215520 On ch=10 n=36 v=95
215520 On ch=10 n=36 v=95
216000 Off ch=10 n=49 v=80
216000 Off ch=10 n=36 v=80
216000 Off ch=10 n=36 v=80
216000 On ch=10 n=49 v=95
216000 On ch=10 n=38 v=95
216000 On ch=10 n=38 v=95
216480 Off ch=10 n=49 v=80
216480 Off ch=10 n=38 v=80
216480 Off ch=10 n=38 v=80
216480 On ch=10 n=49 v=95
216960 Off ch=10 n=49 v=80
216960 On ch=10 n=49 v=95
216960 On ch=10 n=36 v=95
216960 On ch=10 n=36 v=95
217440 Off ch=10 n=49 v=80
217440 Off ch=10 n=36 v=80
217440 Off ch=10 n=36 v=80
217440 On ch=10 n=49 v=95
217440 On ch=10 n=36 v=95
217440 On ch=10 n=36 v=95
217920 Off ch=10 n=49 v=80
217920 Off ch=10 n=36 v=80
217920 Off ch=10 n=36 v=80
217920 On ch=10 n=49 v=95
217920 On ch=10 n=38 v=95
217920 On ch=10 n=38 v=95
218400 Off ch=10 n=49 v=80
218400 Off ch=10 n=38 v=80
218400 Off ch=10 n=38 v=80
218400 On ch=10 n=49 v=95
218880 Off ch=10 n=49 v=80
218880 On ch=10 n=49 v=95
218880 On ch=10 n=36 v=95
218880 On ch=10 n=36 v=95
219360 Off ch=10 n=49 v=80
219360 Off ch=10 n=36 v=80
219360 Off ch=10 n=36 v=80
219360 On ch=10 n=49 v=95
219360 On ch=10 n=36 v=95
219360 On ch=10 n=36 v=95
219840 Off ch=10 n=49 v=80
219840 Off ch=10 n=36 v=80
219840 Off ch=10 n=36 v=80
219840 On ch=10 n=49 v=95
219840 On ch=10 n=38 v=95
219840 On ch=10 n=38 v=95
220320 Off ch=10 n=49 v=80
220320 Off ch=10 n=38 v=80
220320 Off ch=10 n=38 v=80
220320 On ch=10 n=49 v=95
220800 Off ch=10 n=49 v=80
220800 On ch=10 n=49 v=95
220800 On ch=10 n=36 v=95
220800 On ch=10 n=36 v=95
221280 Off ch=10 n=49 v=80
221280 Off ch=10 n=36 v=80
221280 Off ch=10 n=36 v=80
221280 On ch=10 n=49 v=95
221280 On ch=10 n=36 v=95
221280 On ch=10 n=36 v=95
221760 Off ch=10 n=49 v=80
221760 Off ch=10 n=36 v=80
221760 Off ch=10 n=36 v=80
221760 On ch=10 n=49 v=95
221760 On ch=10 n=38 v=95
221760 On ch=10 n=38 v=95
222240 Off ch=10 n=49 v=80
222240 Off ch=10 n=38 v=80
222240 Off ch=10 n=38 v=80
222240 On ch=10 n=49 v=95
222720 Off ch=10 n=49 v=80
222720 On ch=10 n=49 v=95
222720 On ch=10 n=36 v=95
222720 On ch=10 n=36 v=95
223200 Off ch=10 n=49 v=80
223200 Off ch=10 n=36 v=80
223200 Off ch=10 n=36 v=80
223200 On ch=10 n=49 v=95
223200 On ch=10 n=36 v=95
223200 On ch=10 n=36 v=95
223680 Off ch=10 n=49 v=80
223680 Off ch=10 n=36 v=80
223680 Off ch=10 n=36 v=80
223680 On ch=10 n=49 v=95
223680 On ch=10 n=38 v=95
223680 On ch=10 n=38 v=95
224160 Off ch=10 n=49 v=80
224160 Off ch=10 n=38 v=80
224160 Off ch=10 n=38 v=80
224160 On ch=10 n=49 v=95
224640 Off ch=10 n=49 v=80
224640 On ch=10 n=49 v=95
224640 On ch=10 n=36 v=95
224640 On ch=10 n=36 v=95
225120 Off ch=10 n=49 v=80
225120 Off ch=10 n=36 v=80
225120 Off ch=10 n=36 v=80
225120 On ch=10 n=49 v=95
225120 On ch=10 n=36 v=95
225120 On ch=10 n=36 v=95
225600 Off ch=10 n=49 v=80
225600 Off ch=10 n=36 v=80
225600 Off ch=10 n=36 v=80
225600 On ch=10 n=49 v=95
225600 On ch=10 n=38 v=95
225600 On ch=10 n=38 v=95
226080 Off ch=10 n=49 v=80
226080 Off ch=10 n=38 v=80
226080 Off ch=10 n=38 v=80
226080 On ch=10 n=49 v=95
226560 Off ch=10 n=49 v=80
226560 On ch=10 n=49 v=95
226560 On ch=10 n=36 v=95
226560 On ch=10 n=36 v=95
227040 Off ch=10 n=49 v=80
227040 Off ch=10 n=36 v=80
227040 Off ch=10 n=36 v=80
227040 On ch=10 n=49 v=95
227040 On ch=10 n=36 v=95
227040 On ch=10 n=36 v=95
227520 Off ch=10 n=49 v=80
227520 Off ch=10 n=36 v=80
227520 Off ch=10 n=36 v=80
227520 On ch=10 n=49 v=95
227520 On ch=10 n=38 v=95
227520 On ch=10 n=38 v=95
228000 Off ch=10 n=49 v=80
228000 Off ch=10 n=38 v=80
228000 Off ch=10 n=38 v=80
228000 On ch=10 n=49 v=95
228240 Off ch=10 n=49 v=80
228240 On ch=10 n=38 v=95
228240 On ch=10 n=38 v=95
228480 Off ch=10 n=38 v=80
228480 Off ch=10 n=38 v=80
228480 On ch=10 n=49 v=95
228480 On ch=10 n=36 v=95
228480 On ch=10 n=36 v=95
228960 Off ch=10 n=49 v=80
228960 Off ch=10 n=36 v=80
228960 Off ch=10 n=36 v=80
228960 On ch=10 n=49 v=95
228960 On ch=10 n=36 v=95
228960 On ch=10 n=36 v=95
229440 Off ch=10 n=49 v=80
229440 Off ch=10 n=36 v=80
229440 Off ch=10 n=36 v=80
229440 On ch=10 n=49 v=95
229440 On ch=10 n=38 v=95
229440 On ch=10 n=38 v=95
229500 Off ch=10 n=49 v=80
229500 Off ch=10 n=38 v=80
229500 Off ch=10 n=38 v=80
229500 On ch=10 n=38 v=95
229500 On ch=10 n=38 v=95
229560 Off ch=10 n=38 v=80
229560 Off ch=10 n=38 v=80
229920 On ch=10 n=36 v=95
229920 On ch=10 n=36 v=95
229920 On ch=10 n=48 v=95
229920 On ch=10 n=47 v=95
229920 On ch=10 n=45 v=95
230400 Off ch=10 n=36 v=80
230400 Off ch=10 n=36 v=80
230400 Off ch=10 n=48 v=80
230400 Off ch=10 n=47 v=80
230400 Off ch=10 n=45 v=80
230400 On ch=10 n=48 v=95
230400 On ch=10 n=47 v=95
230400 On ch=10 n=45 v=95
230400 On ch=10 n=45 v=95
230400 On ch=10 n=36 v=95
230400 On ch=10 n=36 v=95
230880 Off ch=10 n=48 v=80
230880 Off ch=10 n=47 v=80
230880 Off ch=10 n=45 v=80
230880 Off ch=10 n=45 v=80
230880 Off ch=10 n=36 v=80
230880 Off ch=10 n=36 v=80
230880 On ch=10 n=48 v=95
230880 On ch=10 n=47 v=95
230880 On ch=10 n=45 v=95
230880 On ch=10 n=45 v=95
230880 On ch=10 n=36 v=95
230880 On ch=10 n=36 v=95
231360 Off ch=10 n=48 v=80
231360 Off ch=10 n=47 v=80
231360 Off ch=10 n=45 v=80
231360 Off ch=10 n=45 v=80
231360 Off ch=10 n=36 v=80
231360 Off ch=10 n=36 v=80
232320 On ch=10 n=47 v=95
232320 On ch=10 n=48 v=95
232320 On ch=10 n=45 v=95
232320 On ch=10 n=45 v=95
232320 On ch=10 n=36 v=95
232320 On ch=10 n=36 v=95
232800 Off ch=10 n=47 v=80
232800 Off ch=10 n=48 v=80
232800 Off ch=10 n=45 v=80
232800 Off ch=10 n=45 v=80
232800 Off ch=10 n=36 v=80
232800 Off ch=10 n=36 v=80
232800 On ch=10 n=47 v=95
232800 On ch=10 n=48 v=95
232800 On ch=10 n=45 v=95
232800 On ch=10 n=45 v=95
232800 On ch=10 n=36 v=95
232800 On ch=10 n=36 v=95
233280 Off ch=10 n=47 v=80
233280 Off ch=10 n=48 v=80
233280 Off ch=10 n=45 v=80
233280 Off ch=10 n=45 v=80
233280 Off ch=10 n=36 v=80
233280 Off ch=10 n=36 v=80
234240 On ch=10 n=49 v=95
234240 On ch=10 n=36 v=95
234240 On ch=10 n=36 v=95
234720 Off ch=10 n=49 v=80
234720 Off ch=10 n=36 v=80
234720 Off ch=10 n=36 v=80
234720 On ch=10 n=49 v=95
234720 On ch=10 n=36 v=95
234720 On ch=10 n=36 v=95
235200 Off ch=10 n=49 v=80
235200 Off ch=10 n=36 v=80
235200 Off ch=10 n=36 v=80
235200 On ch=10 n=49 v=95
235200 On ch=10 n=38 v=95
235200 On ch=10 n=38 v=95
235680 Off ch=10 n=49 v=80
235680 Off ch=10 n=38 v=80
235680 Off ch=10 n=38 v=80
235680 On ch=10 n=49 v=95
235920 Off ch=10 n=49 v=80
235920 On ch=10 n=38 v=95
235920 On ch=10 n=38 v=95
236160 Off ch=10 n=38 v=80
236160 Off ch=10 n=38 v=80
236160 On ch=10 n=49 v=95
236160 On ch=10 n=36 v=95
236160 On ch=10 n=36 v=95
236640 Off ch=10 n=49 v=80
236640 Off ch=10 n=36 v=80
236640 Off ch=10 n=36 v=80
236640 On ch=10 n=49 v=95
236640 On ch=10 n=36 v=95
236640 On ch=10 n=36 v=95
237120 Off ch=10 n=49 v=80
237120 Off ch=10 n=36 v=80
237120 Off ch=10 n=36 v=80
237120 On ch=10 n=49 v=95
237120 On ch=10 n=38 v=95
237120 On ch=10 n=38 v=95
237180 Off ch=10 n=49 v=80
237180 Off ch=10 n=38 v=80
237180 Off ch=10 n=38 v=80
237180 On ch=10 n=38 v=95
237180 On ch=10 n=38 v=95
237240 Off ch=10 n=38 v=80
237240 Off ch=10 n=38 v=80
237600 On ch=10 n=36 v=95
237600 On ch=10 n=36 v=95
237600 On ch=10 n=48 v=95
237600 On ch=10 n=47 v=95
237600 On ch=10 n=45 v=95
238080 Off ch=10 n=36 v=80
238080 Off ch=10 n=36 v=80
238080 Off ch=10 n=48 v=80
238080 Off ch=10 n=47 v=80
238080 Off ch=10 n=45 v=80
238080 On ch=10 n=47 v=95
238080 On ch=10 n=48 v=95
238080 On ch=10 n=45 v=95
238080 On ch=10 n=45 v=95
238080 On ch=10 n=36 v=95
238080 On ch=10 n=36 v=95
238560 Off ch=10 n=47 v=80
238560 Off ch=10 n=48 v=80
238560 Off ch=10 n=45 v=80
238560 Off ch=10 n=45 v=80
238560 Off ch=10 n=36 v=80
238560 Off ch=10 n=36 v=80
238560 On ch=10 n=47 v=95
238560 On ch=10 n=48 v=95
238560 On ch=10 n=45 v=95
238560 On ch=10 n=45 v=95
238560 On ch=10 n=36 v=95
238560 On ch=10 n=36 v=95
239040 Off ch=10 n=47 v=80
239040 Off ch=10 n=48 v=80
239040 Off ch=10 n=45 v=80
239040 Off ch=10 n=45 v=80
239040 Off ch=10 n=36 v=80
239040 Off ch=10 n=36 v=80
240000 On ch=10 n=48 v=95
240000 On ch=10 n=47 v=95
240000 On ch=10 n=45 v=95
240000 On ch=10 n=45 v=95
240000 On ch=10 n=36 v=95
240000 On ch=10 n=36 v=95
240480 Off ch=10 n=48 v=80
240480 Off ch=10 n=47 v=80
240480 Off ch=10 n=45 v=80
240480 Off ch=10 n=45 v=80
240480 Off ch=10 n=36 v=80
240480 Off ch=10 n=36 v=80
240480 On ch=10 n=48 v=95
240480 On ch=10 n=47 v=95
240480 On ch=10 n=45 v=95
240480 On ch=10 n=45 v=95
240480 On ch=10 n=36 v=95
240480 On ch=10 n=36 v=95
240960 Off ch=10 n=48 v=80
240960 Off ch=10 n=47 v=80
240960 Off ch=10 n=45 v=80
240960 Off ch=10 n=45 v=80
240960 Off ch=10 n=36 v=80
240960 Off ch=10 n=36 v=80
241440 On ch=10 n=49 v=95
241440 On ch=10 n=38 v=95
241440 On ch=10 n=38 v=95
241920 Off ch=10 n=49 v=80
241920 Off ch=10 n=38 v=80
241920 Off ch=10 n=38 v=80
241920 On ch=10 n=49 v=95
241920 On ch=10 n=36 v=95
241920 On ch=10 n=36 v=95
242400 Off ch=10 n=49 v=80
242400 Off ch=10 n=36 v=80
242400 Off ch=10 n=36 v=80
242400 On ch=10 n=49 v=95
242400 On ch=10 n=36 v=95
242400 On ch=10 n=36 v=95
242880 Off ch=10 n=49 v=80
242880 Off ch=10 n=36 v=80
242880 Off ch=10 n=36 v=80
242880 On ch=10 n=49 v=95
242880 On ch=10 n=38 v=95
242880 On ch=10 n=38 v=95
243360 Off ch=10 n=49 v=80
243360 Off ch=10 n=38 v=80
243360 Off ch=10 n=38 v=80
243360 On ch=10 n=49 v=95
243840 Off ch=10 n=49 v=80
243840 On ch=10 n=49 v=95
243840 On ch=10 n=36 v=95
243840 On ch=10 n=36 v=95
244320 Off ch=10 n=49 v=80
244320 Off ch=10 n=36 v=80
244320 Off ch=10 n=36 v=80
244320 On ch=10 n=49 v=95
244320 On ch=10 n=36 v=95
244320 On ch=10 n=36 v=95
244800 Off ch=10 n=49 v=80
244800 Off ch=10 n=36 v=80
244800 Off ch=10 n=36 v=80
244800 On ch=10 n=49 v=95
244800 On ch=10 n=38 v=95
244800 On ch=10 n=38 v=95
245280 Off ch=10 n=49 v=80
245280 Off ch=10 n=38 v=80
245280 Off ch=10 n=38 v=80
245280 On ch=10 n=49 v=95
245760 Off ch=10 n=49 v=80
245760 On ch=10 n=49 v=95
245760 On ch=10 n=38 v=95
245760 On ch=10 n=38 v=95
246240 Off ch=10 n=49 v=80
246240 Off ch=10 n=38 v=80
246240 Off ch=10 n=38 v=80
246240 On ch=10 n=49 v=95
246240 On ch=10 n=38 v=95
246240 On ch=10 n=38 v=95
246720 Off ch=10 n=49 v=80
246720 Off ch=10 n=38 v=80
246720 Off ch=10 n=38 v=80
246720 On ch=10 n=49 v=95
246720 On ch=10 n=38 v=95
246720 On ch=10 n=38 v=95
247200 Off ch=10 n=49 v=80
247200 Off ch=10 n=38 v=80
247200 Off ch=10 n=38 v=80
247200 On ch=10 n=49 v=95
247200 On ch=10 n=38 v=95
247200 On ch=10 n=38 v=95
247680 Off ch=10 n=49 v=80
247680 Off ch=10 n=38 v=80
247680 Off ch=10 n=38 v=80
247680 On ch=10 n=49 v=95
247680 On ch=10 n=57 v=95
247680 On ch=10 n=38 v=95
247680 On ch=10 n=38 v=95
249600 Off ch=10 n=49 v=80
249600 Off ch=10 n=57 v=80
249600 Off ch=10 n=38 v=80
249600 Off ch=10 n=38 v=80
263520 On ch=10 n=48 v=95
263520 On ch=10 n=47 v=95
263520 On ch=10 n=45 v=95
263520 On ch=10 n=36 v=95
263520 On ch=10 n=36 v=95
264000 Off ch=10 n=48 v=80
264000 Off ch=10 n=47 v=80
264000 Off ch=10 n=45 v=80
264000 Off ch=10 n=36 v=80
264000 Off ch=10 n=36 v=80
264000 On ch=10 n=48 v=95
264000 On ch=10 n=47 v=95
264000 On ch=10 n=45 v=95
264000 On ch=10 n=36 v=95
264000 On ch=10 n=36 v=95
264480 Off ch=10 n=48 v=80
264480 Off ch=10 n=47 v=80
264480 Off ch=10 n=45 v=80
264480 Off ch=10 n=36 v=80
264480 Off ch=10 n=36 v=80
264480 On ch=10 n=48 v=95
264480 On ch=10 n=47 v=95
264480 On ch=10 n=45 v=95
264480 On ch=10 n=36 v=95
264480 On ch=10 n=36 v=95
264960 Off ch=10 n=48 v=80
264960 Off ch=10 n=47 v=80
264960 Off ch=10 n=45 v=80
264960 Off ch=10 n=36 v=80
264960 Off ch=10 n=36 v=80
264960 On ch=10 n=57 v=95
264960 On ch=10 n=49 v=95
264960 On ch=10 n=36 v=95
264960 On ch=10 n=36 v=95
265440 Off ch=10 n=57 v=80
265440 Off ch=10 n=49 v=80
265440 Off ch=10 n=36 v=80
265440 Off ch=10 n=36 v=80
265440 On ch=10 n=49 v=95
265440 On ch=10 n=36 v=95
265440 On ch=10 n=36 v=95
265920 Off ch=10 n=49 v=80
265920 Off ch=10 n=36 v=80
265920 Off ch=10 n=36 v=80
265920 On ch=10 n=49 v=95
265920 On ch=10 n=38 v=95
265920 On ch=10 n=38 v=95
266400 Off ch=10 n=49 v=80
266400 Off ch=10 n=38 v=80
266400 Off ch=10 n=38 v=80
266400 On ch=10 n=49 v=95
266880 Off ch=10 n=49 v=80
266880 On ch=10 n=49 v=95
266880 On ch=10 n=36 v=95
266880 On ch=10 n=36 v=95
267360 Off ch=10 n=49 v=80
267360 Off ch=10 n=36 v=80
267360 Off ch=10 n=36 v=80
267360 On ch=10 n=49 v=95
267360 On ch=10 n=36 v=95
267360 On ch=10 n=36 v=95
267840 Off ch=10 n=49 v=80
267840 Off ch=10 n=36 v=80
267840 Off ch=10 n=36 v=80
267840 On ch=10 n=49 v=95
267840 On ch=10 n=38 v=95
267840 On ch=10 n=38 v=95
268320 Off ch=10 n=49 v=80
268320 Off ch=10 n=38 v=80
268320 Off ch=10 n=38 v=80
268320 On ch=10 n=49 v=95
268800 Off ch=10 n=49 v=80
268800 On ch=10 n=49 v=95
268800 On ch=10 n=36 v=95
268800 On ch=10 n=36 v=95
269280 Off ch=10 n=49 v=80
269280 Off ch=10 n=36 v=80
269280 Off ch=10 n=36 v=80
269280 On ch=10 n=49 v=95
269280 On ch=10 n=36 v=95
269280 On ch=10 n=36 v=95
269760 Off ch=10 n=49 v=80
269760 Off ch=10 n=36 v=80
269760 Off ch=10 n=36 v=80
269760 On ch=10 n=49 v=95
269760 On ch=10 n=38 v=95
269760 On ch=10 n=38 v=95
270240 Off ch=10 n=49 v=80
270240 Off ch=10 n=38 v=80
270240 Off ch=10 n=38 v=80
270240 On ch=10 n=49 v=95
270720 Off ch=10 n=49 v=80
270720 On ch=10 n=49 v=95
270720 On ch=10 n=36 v=95
270720 On ch=10 n=36 v=95
271200 Off ch=10 n=49 v=80
271200 Off ch=10 n=36 v=80
271200 Off ch=10 n=36 v=80
271200 On ch=10 n=49 v=95
271200 On ch=10 n=36 v=95
271200 On ch=10 n=36 v=95
271680 Off ch=10 n=49 v=80
271680 Off ch=10 n=36 v=80
271680 Off ch=10 n=36 v=80
271680 On ch=10 n=49 v=95
271680 On ch=10 n=38 v=95
271680 On ch=10 n=38 v=95
272160 Off ch=10 n=49 v=80
272160 Off ch=10 n=38 v=80
272160 Off ch=10 n=38 v=80
272160 On ch=10 n=49 v=95
272640 Off ch=10 n=49 v=80
272640 On ch=10 n=57 v=95
272640 On ch=10 n=49 v=95
272640 On ch=10 n=36 v=95
272640 On ch=10 n=36 v=95
273120 Off ch=10 n=57 v=80
273120 Off ch=10 n=49 v=80
273120 Off ch=10 n=36 v=80
273120 Off ch=10 n=36 v=80
273120 On ch=10 n=49 v=95
273120 On ch=10 n=36 v=95
273120 On ch=10 n=36 v=95
273600 Off ch=10 n=49 v=80
273600 Off ch=10 n=36 v=80
273600 Off ch=10 n=36 v=80
273600 On ch=10 n=49 v=95
273600 On ch=10 n=38 v=95
273600 On ch=10 n=38 v=95
274080 Off ch=10 n=49 v=80
274080 Off ch=10 n=38 v=80
274080 Off ch=10 n=38 v=80
274080 On ch=10 n=49 v=95
274560 Off ch=10 n=49 v=80
274560 On ch=10 n=49 v=95
274560 On ch=10 n=36 v=95
274560 On ch=10 n=36 v=95
275040 Off ch=10 n=49 v=80
275040 Off ch=10 n=36 v=80
275040 Off ch=10 n=36 v=80
275040 On ch=10 n=49 v=95
275040 On ch=10 n=36 v=95
275040 On ch=10 n=36 v=95
275520 Off ch=10 n=49 v=80
275520 Off ch=10 n=36 v=80
275520 Off ch=10 n=36 v=80
275520 On ch=10 n=49 v=95
275520 On ch=10 n=38 v=95
275520 On ch=10 n=38 v=95
276000 Off ch=10 n=49 v=80
276000 Off ch=10 n=38 v=80
276000 Off ch=10 n=38 v=80
276000 On ch=10 n=49 v=95
276480 Off ch=10 n=49 v=80
276480 On ch=10 n=49 v=95
276480 On ch=10 n=36 v=95
276480 On ch=10 n=36 v=95
276960 Off ch=10 n=49 v=80
276960 Off ch=10 n=36 v=80
276960 Off ch=10 n=36 v=80
276960 On ch=10 n=49 v=95
276960 On ch=10 n=36 v=95
276960 On ch=10 n=36 v=95
277440 Off ch=10 n=49 v=80
277440 Off ch=10 n=36 v=80
277440 Off ch=10 n=36 v=80
277440 On ch=10 n=49 v=95
277440 On ch=10 n=38 v=95
277440 On ch=10 n=38 v=95
277920 Off ch=10 n=49 v=80
277920 Off ch=10 n=38 v=80
277920 Off ch=10 n=38 v=80
277920 On ch=10 n=49 v=95
278400 Off ch=10 n=49 v=80
278400 On ch=10 n=49 v=95
278400 On ch=10 n=36 v=95
278400 On ch=10 n=36 v=95
278880 Off ch=10 n=49 v=80
278880 Off ch=10 n=36 v=80
278880 Off ch=10 n=36 v=80
278880 On ch=10 n=49 v=95
278880 On ch=10 n=36 v=95
278880 On ch=10 n=36 v=95
279360 Off ch=10 n=49 v=80
279360 Off ch=10 n=36 v=80
279360 Off ch=10 n=36 v=80
279360 On ch=10 n=49 v=95
279360 On ch=10 n=38 v=95
279360 On ch=10 n=38 v=95
279840 Off ch=10 n=49 v=80
279840 Off ch=10 n=38 v=80
279840 Off ch=10 n=38 v=80
279840 On ch=10 n=49 v=95
280320 Off ch=10 n=49 v=80
280320 On ch=10 n=57 v=95
280320 On ch=10 n=49 v=95
280320 On ch=10 n=36 v=95
280320 On ch=10 n=36 v=95
280800 Off ch=10 n=57 v=80
280800 Off ch=10 n=49 v=80
280800 Off ch=10 n=36 v=80
280800 Off ch=10 n=36 v=80
280800 On ch=10 n=49 v=95
280800 On ch=10 n=36 v=95
280800 On ch=10 n=36 v=95
281280 Off ch=10 n=49 v=80
281280 Off ch=10 n=36 v=80
281280 Off ch=10 n=36 v=80
281280 On ch=10 n=49 v=95
281280 On ch=10 n=38 v=95
281280 On ch=10 n=38 v=95
281760 Off ch=10 n=49 v=80
281760 Off ch=10 n=38 v=80
281760 Off ch=10 n=38 v=80
281760 On ch=10 n=49 v=95
282240 Off ch=10 n=49 v=80
282240 On ch=10 n=49 v=95
282240 On ch=10 n=36 v=95
282240 On ch=10 n=36 v=95
282720 Off ch=10 n=49 v=80
282720 Off ch=10 n=36 v=80
282720 Off ch=10 n=36 v=80
282720 On ch=10 n=49 v=95
282720 On ch=10 n=36 v=95
282720 On ch=10 n=36 v=95
283200 Off ch=10 n=49 v=80
283200 Off ch=10 n=36 v=80
283200 Off ch=10 n=36 v=80
283200 On ch=10 n=49 v=95
283200 On ch=10 n=38 v=95
283200 On ch=10 n=38 v=95
283680 Off ch=10 n=49 v=80
283680 Off ch=10 n=38 v=80
283680 Off ch=10 n=38 v=80
283680 On ch=10 n=49 v=95
284160 Off ch=10 n=49 v=80
284160 On ch=10 n=49 v=95
284160 On ch=10 n=36 v=95
284160 On ch=10 n=36 v=95
284640 Off ch=10 n=49 v=80
284640 Off ch=10 n=36 v=80
284640 Off ch=10 n=36 v=80
284640 On ch=10 n=49 v=95
284640 On ch=10 n=36 v=95
284640 On ch=10 n=36 v=95
285120 Off ch=10 n=49 v=80
285120 Off ch=10 n=36 v=80
285120 Off ch=10 n=36 v=80
285120 On ch=10 n=49 v=95
285120 On ch=10 n=38 v=95
285120 On ch=10 n=38 v=95
285600 Off ch=10 n=49 v=80
285600 Off ch=10 n=38 v=80
285600 Off ch=10 n=38 v=80
285600 On ch=10 n=49 v=95
286080 Off ch=10 n=49 v=80
286080 On ch=10 n=49 v=95
286080 On ch=10 n=36 v=95
286080 On ch=10 n=36 v=95
286560 Off ch=10 n=49 v=80
286560 Off ch=10 n=36 v=80
286560 Off ch=10 n=36 v=80
286560 On ch=10 n=49 v=95
286560 On ch=10 n=36 v=95
286560 On ch=10 n=36 v=95
287040 Off ch=10 n=49 v=80
287040 Off ch=10 n=36 v=80
287040 Off ch=10 n=36 v=80
287040 On ch=10 n=49 v=95
287040 On ch=10 n=38 v=95
287040 On ch=10 n=38 v=95
287520 Off ch=10 n=49 v=80
287520 Off ch=10 n=38 v=80
287520 Off ch=10 n=38 v=80
287520 On ch=10 n=49 v=95
288000 Off ch=10 n=49 v=80
288000 On ch=10 n=57 v=95
288000 On ch=10 n=49 v=95
288000 On ch=10 n=36 v=95
288000 On ch=10 n=36 v=95
288480 Off ch=10 n=57 v=80
288480 Off ch=10 n=49 v=80
288480 Off ch=10 n=36 v=80
288480 Off ch=10 n=36 v=80
288480 On ch=10 n=49 v=95
288480 On ch=10 n=36 v=95
288480 On ch=10 n=36 v=95
288960 Off ch=10 n=49 v=80
288960 Off ch=10 n=36 v=80
288960 Off ch=10 n=36 v=80
288960 On ch=10 n=49 v=95
288960 On ch=10 n=38 v=95
288960 On ch=10 n=38 v=95
289440 Off ch=10 n=49 v=80
289440 Off ch=10 n=38 v=80
289440 Off ch=10 n=38 v=80
289440 On ch=10 n=49 v=95
289920 Off ch=10 n=49 v=80
289920 On ch=10 n=49 v=95
289920 On ch=10 n=36 v=95
289920 On ch=10 n=36 v=95
290400 Off ch=10 n=49 v=80
290400 Off ch=10 n=36 v=80
290400 Off ch=10 n=36 v=80
290400 On ch=10 n=49 v=95
290400 On ch=10 n=36 v=95
290400 On ch=10 n=36 v=95
290880 Off ch=10 n=49 v=80
290880 Off ch=10 n=36 v=80
290880 Off ch=10 n=36 v=80
290880 On ch=10 n=49 v=95
290880 On ch=10 n=38 v=95
290880 On ch=10 n=38 v=95
291360 Off ch=10 n=49 v=80
291360 Off ch=10 n=38 v=80
291360 Off ch=10 n=38 v=80
291360 On ch=10 n=49 v=95
291840 Off ch=10 n=49 v=80
291840 On ch=10 n=38 v=95
291840 On ch=10 n=38 v=95
292320 Off ch=10 n=38 v=80
292320 Off ch=10 n=38 v=80
292320 On ch=10 n=38 v=95
292320 On ch=10 n=38 v=95
292800 Off ch=10 n=38 v=80
292800 Off ch=10 n=38 v=80
292800 On ch=10 n=38 v=95
292800 On ch=10 n=38 v=95
293280 Off ch=10 n=38 v=80
293280 Off ch=10 n=38 v=80
293280 On ch=10 n=38 v=95
293280 On ch=10 n=38 v=95
293760 Off ch=10 n=38 v=80
293760 Off ch=10 n=38 v=80
293760 On ch=10 n=38 v=95
293760 On ch=10 n=38 v=95
294240 Off ch=10 n=38 v=80
294240 Off ch=10 n=38 v=80
294240 On ch=10 n=38 v=95
294240 On ch=10 n=38 v=95
294720 Off ch=10 n=38 v=80
294720 Off ch=10 n=38 v=80
294720 On ch=10 n=38 v=95
294720 On ch=10 n=38 v=95
295200 Off ch=10 n=38 v=80
295200 Off ch=10 n=38 v=80
295200 On ch=10 n=38 v=95
295200 On ch=10 n=38 v=95
295680 Off ch=10 n=38 v=80
295680 Off ch=10 n=38 v=80
295680 On ch=10 n=38 v=95
295680 On ch=10 n=38 v=95
296160 Off ch=10 n=38 v=80
296160 Off ch=10 n=38 v=80
296160 On ch=10 n=38 v=95
296160 On ch=10 n=38 v=95
296640 Off ch=10 n=38 v=80
296640 Off ch=10 n=38 v=80
296640 On ch=10 n=38 v=95
296640 On ch=10 n=38 v=95
297120 Off ch=10 n=38 v=80
297120 Off ch=10 n=38 v=80
297120 On ch=10 n=38 v=95
297120 On ch=10 n=38 v=95
297600 Off ch=10 n=38 v=80
297600 Off ch=10 n=38 v=80
297600 On ch=10 n=38 v=95
297600 On ch=10 n=38 v=95
298080 Off ch=10 n=38 v=80
298080 Off ch=10 n=38 v=80
298080 On ch=10 n=38 v=95
298080 On ch=10 n=38 v=95
298560 Off ch=10 n=38 v=80
298560 Off ch=10 n=38 v=80
298560 On ch=10 n=38 v=95
298560 On ch=10 n=38 v=95
299040 Off ch=10 n=38 v=80
299040 Off ch=10 n=38 v=80
299040 On ch=10 n=38 v=95
299040 On ch=10 n=38 v=95
299520 Off ch=10 n=38 v=80
299520 Off ch=10 n=38 v=80
299520 Par ch=10 c=93 v=127
299520 Par ch=10 c=91 v=127
299520 On ch=10 n=57 v=95
299520 On ch=10 n=49 v=95
299520 On ch=10 n=36 v=95
299520 On ch=10 n=36 v=95
300000 Off ch=10 n=57 v=80
300000 Off ch=10 n=49 v=80
300000 Off ch=10 n=36 v=80
300000 Off ch=10 n=36 v=80
300000 On ch=10 n=57 v=95
300000 On ch=10 n=49 v=95
300000 On ch=10 n=36 v=95
300000 On ch=10 n=36 v=95
300480 Off ch=10 n=57 v=80
300480 Off ch=10 n=49 v=80
300480 Off ch=10 n=36 v=80
300480 Off ch=10 n=36 v=80
300480 On ch=10 n=57 v=95
300480 On ch=10 n=59 v=95
300480 On ch=10 n=38 v=95
300480 On ch=10 n=38 v=95
300960 Off ch=10 n=57 v=80
300960 Off ch=10 n=59 v=80
300960 Off ch=10 n=38 v=80
300960 Off ch=10 n=38 v=80
300960 On ch=10 n=57 v=95
300960 On ch=10 n=59 v=95
300960 On ch=10 n=36 v=95
300960 On ch=10 n=36 v=95
301440 Off ch=10 n=57 v=80
301440 Off ch=10 n=59 v=80
301440 Off ch=10 n=36 v=80
301440 Off ch=10 n=36 v=80
301440 Par ch=10 c=93 v=127
301440 Par ch=10 c=91 v=127
301440 On ch=10 n=57 v=95
301440 On ch=10 n=49 v=95
301440 On ch=10 n=36 v=95
301440 On ch=10 n=36 v=95
301920 Off ch=10 n=57 v=80
301920 Off ch=10 n=49 v=80
301920 Off ch=10 n=36 v=80
301920 Off ch=10 n=36 v=80
301920 On ch=10 n=57 v=95
301920 On ch=10 n=49 v=95
301920 On ch=10 n=36 v=95
301920 On ch=10 n=36 v=95
302400 Off ch=10 n=57 v=80
302400 Off ch=10 n=49 v=80
302400 Off ch=10 n=36 v=80
302400 Off ch=10 n=36 v=80
302400 On ch=10 n=57 v=95
302400 On ch=10 n=59 v=95
302400 On ch=10 n=38 v=95
302400 On ch=10 n=38 v=95
302880 Off ch=10 n=57 v=80
302880 Off ch=10 n=59 v=80
302880 Off ch=10 n=38 v=80
302880 Off ch=10 n=38 v=80
302880 On ch=10 n=57 v=95
302880 On ch=10 n=59 v=95
302880 On ch=10 n=36 v=95
302880 On ch=10 n=36 v=95
303360 Off ch=10 n=57 v=80
303360 Off ch=10 n=59 v=80
303360 Off ch=10 n=36 v=80
303360 Off ch=10 n=36 v=80
303360 Par ch=10 c=93 v=127
303360 Par ch=10 c=91 v=127
303360 On ch=10 n=57 v=95
303360 On ch=10 n=49 v=95
303360 On ch=10 n=36 v=95
303360 On ch=10 n=36 v=95
303840 Off ch=10 n=57 v=80
303840 Off ch=10 n=49 v=80
303840 Off ch=10 n=36 v=80
303840 Off ch=10 n=36 v=80
303840 On ch=10 n=57 v=95
303840 On ch=10 n=49 v=95
303840 On ch=10 n=36 v=95
303840 On ch=10 n=36 v=95
304320 Off ch=10 n=57 v=80
304320 Off ch=10 n=49 v=80
304320 Off ch=10 n=36 v=80
304320 Off ch=10 n=36 v=80
304320 On ch=10 n=57 v=95
304320 On ch=10 n=59 v=95
304320 On ch=10 n=38 v=95
304320 On ch=10 n=38 v=95
304800 Off ch=10 n=57 v=80
304800 Off ch=10 n=59 v=80
304800 Off ch=10 n=38 v=80
304800 Off ch=10 n=38 v=80
304800 On ch=10 n=57 v=95
304800 On ch=10 n=59 v=95
304800 On ch=10 n=36 v=95
304800 On ch=10 n=36 v=95
305280 Off ch=10 n=57 v=80
305280 Off ch=10 n=59 v=80
305280 Off ch=10 n=36 v=80
305280 Off ch=10 n=36 v=80
305280 Par ch=10 c=93 v=127
305280 Par ch=10 c=91 v=127
305280 On ch=10 n=57 v=95
305280 On ch=10 n=49 v=95
305280 On ch=10 n=36 v=95
305280 On ch=10 n=36 v=95
305760 Off ch=10 n=57 v=80
305760 Off ch=10 n=49 v=80
305760 Off ch=10 n=36 v=80
305760 Off ch=10 n=36 v=80
305760 On ch=10 n=57 v=95
305760 On ch=10 n=49 v=95
305760 On ch=10 n=36 v=95
305760 On ch=10 n=36 v=95
306240 Off ch=10 n=57 v=80
306240 Off ch=10 n=49 v=80
306240 Off ch=10 n=36 v=80
306240 Off ch=10 n=36 v=80
306240 On ch=10 n=57 v=95
306240 On ch=10 n=59 v=95
306240 On ch=10 n=38 v=95
306240 On ch=10 n=38 v=95
306720 Off ch=10 n=57 v=80
306720 Off ch=10 n=59 v=80
306720 Off ch=10 n=38 v=80
306720 Off ch=10 n=38 v=80
306720 On ch=10 n=57 v=95
306720 On ch=10 n=59 v=95
306720 On ch=10 n=36 v=95
306720 On ch=10 n=36 v=95
307200 Off ch=10 n=57 v=80
307200 Off ch=10 n=59 v=80
307200 Off ch=10 n=36 v=80
307200 Off ch=10 n=36 v=80
307200 Par ch=10 c=93 v=127
307200 Par ch=10 c=91 v=127
307200 On ch=10 n=57 v=95
307200 On ch=10 n=49 v=95
307200 On ch=10 n=36 v=95
307200 On ch=10 n=36 v=95
307680 Off ch=10 n=57 v=80
307680 Off ch=10 n=49 v=80
307680 Off ch=10 n=36 v=80
307680 Off ch=10 n=36 v=80
307680 On ch=10 n=57 v=95
307680 On ch=10 n=49 v=95
307680 On ch=10 n=36 v=95
307680 On ch=10 n=36 v=95
308160 Off ch=10 n=57 v=80
308160 Off ch=10 n=49 v=80
308160 Off ch=10 n=36 v=80
308160 Off ch=10 n=36 v=80
308160 On ch=10 n=57 v=95
308160 On ch=10 n=59 v=95
308160 On ch=10 n=38 v=95
308160 On ch=10 n=38 v=95
308640 Off ch=10 n=57 v=80
308640 Off ch=10 n=59 v=80
308640 Off ch=10 n=38 v=80
308640 Off ch=10 n=38 v=80
308640 On ch=10 n=57 v=95
308640 On ch=10 n=59 v=95
308640 On ch=10 n=36 v=95
308640 On ch=10 n=36 v=95
309120 Off ch=10 n=57 v=80
309120 Off ch=10 n=59 v=80
309120 Off ch=10 n=36 v=80
309120 Off ch=10 n=36 v=80
309120 Par ch=10 c=93 v=127
309120 Par ch=10 c=91 v=127
309120 On ch=10 n=57 v=95
309120 On ch=10 n=49 v=95
309120 On ch=10 n=36 v=95
309120 On ch=10 n=36 v=95
309600 Off ch=10 n=57 v=80
309600 Off ch=10 n=49 v=80
309600 Off ch=10 n=36 v=80
309600 Off ch=10 n=36 v=80
309600 On ch=10 n=57 v=95
309600 On ch=10 n=49 v=95
309600 On ch=10 n=36 v=95
309600 On ch=10 n=36 v=95
310080 Off ch=10 n=57 v=80
310080 Off ch=10 n=49 v=80
310080 Off ch=10 n=36 v=80
310080 Off ch=10 n=36 v=80
310080 On ch=10 n=57 v=95
310080 On ch=10 n=59 v=95
310080 On ch=10 n=38 v=95
310080 On ch=10 n=38 v=95
310560 Off ch=10 n=57 v=80
310560 Off ch=10 n=59 v=80
310560 Off ch=10 n=38 v=80
310560 Off ch=10 n=38 v=80
310560 On ch=10 n=57 v=95
310560 On ch=10 n=59 v=95
310560 On ch=10 n=36 v=95
310560 On ch=10 n=36 v=95
311040 Off ch=10 n=57 v=80
311040 Off ch=10 n=59 v=80
311040 Off ch=10 n=36 v=80
311040 Off ch=10 n=36 v=80
311040 Par ch=10 c=93 v=127
311040 Par ch=10 c=91 v=127
311040 On ch=10 n=57 v=95
311040 On ch=10 n=49 v=95
311040 On ch=10 n=36 v=95
311040 On ch=10 n=36 v=95
311520 Off ch=10 n=57 v=80
311520 Off ch=10 n=49 v=80
311520 Off ch=10 n=36 v=80
311520 Off ch=10 n=36 v=80
311520 On ch=10 n=57 v=95
311520 On ch=10 n=49 v=95
311520 On ch=10 n=36 v=95
311520 On ch=10 n=36 v=95
312000 Off ch=10 n=57 v=80
312000 Off ch=10 n=49 v=80
312000 Off ch=10 n=36 v=80
312000 Off ch=10 n=36 v=80
312000 On ch=10 n=57 v=95
312000 On ch=10 n=59 v=95
312000 On ch=10 n=38 v=95
312000 On ch=10 n=38 v=95
312480 Off ch=10 n=57 v=80
312480 Off ch=10 n=59 v=80
312480 Off ch=10 n=38 v=80
312480 Off ch=10 n=38 v=80
312480 On ch=10 n=57 v=95
312480 On ch=10 n=59 v=95
312480 On ch=10 n=36 v=95
312480 On ch=10 n=36 v=95
312960 Off ch=10 n=57 v=80
312960 Off ch=10 n=59 v=80
312960 Off ch=10 n=36 v=80
312960 Off ch=10 n=36 v=80
312960 Par ch=10 c=93 v=127
312960 Par ch=10 c=91 v=127
312960 On ch=10 n=57 v=95
312960 On ch=10 n=49 v=95
312960 On ch=10 n=36 v=95
312960 On ch=10 n=36 v=95
313440 Off ch=10 n=57 v=80
313440 Off ch=10 n=49 v=80
313440 Off ch=10 n=36 v=80
313440 Off ch=10 n=36 v=80
313440 On ch=10 n=57 v=95
313440 On ch=10 n=49 v=95
313440 On ch=10 n=36 v=95
313440 On ch=10 n=36 v=95
313920 Off ch=10 n=57 v=80
313920 Off ch=10 n=49 v=80
313920 Off ch=10 n=36 v=80
313920 Off ch=10 n=36 v=80
313920 On ch=10 n=57 v=95
313920 On ch=10 n=59 v=95
313920 On ch=10 n=38 v=95
313920 On ch=10 n=38 v=95
314400 Off ch=10 n=57 v=80
314400 Off ch=10 n=59 v=80
314400 Off ch=10 n=38 v=80
314400 Off ch=10 n=38 v=80
314400 On ch=10 n=57 v=95
314400 On ch=10 n=59 v=95
314400 On ch=10 n=36 v=95
314400 On ch=10 n=36 v=95
314880 Off ch=10 n=57 v=80
314880 Off ch=10 n=59 v=80
314880 Off ch=10 n=36 v=80
314880 Off ch=10 n=36 v=80
314880 Par ch=10 c=93 v=127
314880 Par ch=10 c=91 v=127
314880 On ch=10 n=57 v=95
314880 On ch=10 n=49 v=95
314880 On ch=10 n=36 v=95
314880 On ch=10 n=36 v=95
315360 Off ch=10 n=57 v=80
315360 Off ch=10 n=49 v=80
315360 Off ch=10 n=36 v=80
315360 Off ch=10 n=36 v=80
315360 On ch=10 n=57 v=95
315360 On ch=10 n=49 v=95
315360 On ch=10 n=36 v=95
315360 On ch=10 n=36 v=95
315840 Off ch=10 n=57 v=80
315840 Off ch=10 n=49 v=80
315840 Off ch=10 n=36 v=80
315840 Off ch=10 n=36 v=80
315840 On ch=10 n=57 v=95
315840 On ch=10 n=59 v=95
315840 On ch=10 n=38 v=95
315840 On ch=10 n=38 v=95
316320 Off ch=10 n=57 v=80
316320 Off ch=10 n=59 v=80
316320 Off ch=10 n=38 v=80
316320 Off ch=10 n=38 v=80
316320 On ch=10 n=57 v=95
316320 On ch=10 n=59 v=95
316320 On ch=10 n=36 v=95
316320 On ch=10 n=36 v=95
316800 Off ch=10 n=57 v=80
316800 Off ch=10 n=59 v=80
316800 Off ch=10 n=36 v=80
316800 Off ch=10 n=36 v=80
316800 Par ch=10 c=93 v=127
316800 Par ch=10 c=91 v=127
316800 On ch=10 n=57 v=95
316800 On ch=10 n=49 v=95
316800 On ch=10 n=36 v=95
316800 On ch=10 n=36 v=95
317280 Off ch=10 n=57 v=80
317280 Off ch=10 n=49 v=80
317280 Off ch=10 n=36 v=80
317280 Off ch=10 n=36 v=80
317280 On ch=10 n=57 v=95
317280 On ch=10 n=49 v=95
317280 On ch=10 n=36 v=95
317280 On ch=10 n=36 v=95
317760 Off ch=10 n=57 v=80
317760 Off ch=10 n=49 v=80
317760 Off ch=10 n=36 v=80
317760 Off ch=10 n=36 v=80
317760 On ch=10 n=57 v=95
317760 On ch=10 n=59 v=95
317760 On ch=10 n=38 v=95
317760 On ch=10 n=38 v=95
318240 Off ch=10 n=57 v=80
318240 Off ch=10 n=59 v=80
318240 Off ch=10 n=38 v=80
318240 Off ch=10 n=38 v=80
318240 On ch=10 n=57 v=95
318240 On ch=10 n=59 v=95
318240 On ch=10 n=36 v=95
318240 On ch=10 n=36 v=95
318720 Off ch=10 n=57 v=80
318720 Off ch=10 n=59 v=80
318720 Off ch=10 n=36 v=80
318720 Off ch=10 n=36 v=80
318720 Par ch=10 c=93 v=127
318720 Par ch=10 c=91 v=127
318720 On ch=10 n=57 v=95
318720 On ch=10 n=49 v=95
318720 On ch=10 n=36 v=95
318720 On ch=10 n=36 v=95
319200 Off ch=10 n=57 v=80
319200 Off ch=10 n=49 v=80
319200 Off ch=10 n=36 v=80
319200 Off ch=10 n=36 v=80
319200 On ch=10 n=57 v=95
319200 On ch=10 n=49 v=95
319200 On ch=10 n=36 v=95
319200 On ch=10 n=36 v=95
319680 Off ch=10 n=57 v=80
319680 Off ch=10 n=49 v=80
319680 Off ch=10 n=36 v=80
319680 Off ch=10 n=36 v=80
319680 On ch=10 n=57 v=95
319680 On ch=10 n=59 v=95
319680 On ch=10 n=38 v=95
319680 On ch=10 n=38 v=95
320160 Off ch=10 n=57 v=80
320160 Off ch=10 n=59 v=80
320160 Off ch=10 n=38 v=80
320160 Off ch=10 n=38 v=80
320160 On ch=10 n=57 v=95
320160 On ch=10 n=59 v=95
320160 On ch=10 n=36 v=95
320160 On ch=10 n=36 v=95
320640 Off ch=10 n=57 v=80
320640 Off ch=10 n=59 v=80
320640 Off ch=10 n=36 v=80
320640 Off ch=10 n=36 v=80
320640 Par ch=10 c=93 v=127
320640 Par ch=10 c=91 v=127
320640 On ch=10 n=57 v=95
320640 On ch=10 n=49 v=95
320640 On ch=10 n=36 v=95
320640 On ch=10 n=36 v=95
321120 Off ch=10 n=57 v=80
321120 Off ch=10 n=49 v=80
321120 Off ch=10 n=36 v=80
321120 Off ch=10 n=36 v=80
321120 On ch=10 n=57 v=95
321120 On ch=10 n=49 v=95
321120 On ch=10 n=36 v=95
321120 On ch=10 n=36 v=95
321600 Off ch=10 n=57 v=80
321600 Off ch=10 n=49 v=80
321600 Off ch=10 n=36 v=80
321600 Off ch=10 n=36 v=80
321600 On ch=10 n=57 v=95
321600 On ch=10 n=59 v=95
321600 On ch=10 n=38 v=95
321600 On ch=10 n=38 v=95
322080 Off ch=10 n=57 v=80
322080 Off ch=10 n=59 v=80
322080 Off ch=10 n=38 v=80
322080 Off ch=10 n=38 v=80
322080 On ch=10 n=57 v=95
322080 On ch=10 n=59 v=95
322080 On ch=10 n=36 v=95
322080 On ch=10 n=36 v=95
322560 Off ch=10 n=57 v=80
322560 Off ch=10 n=59 v=80
322560 Off ch=10 n=36 v=80
322560 Off ch=10 n=36 v=80
322560 Par ch=10 c=93 v=127
322560 Par ch=10 c=91 v=127
322560 On ch=10 n=57 v=95
322560 On ch=10 n=49 v=95
322560 On ch=10 n=36 v=95
322560 On ch=10 n=36 v=95
323040 Off ch=10 n=57 v=80
323040 Off ch=10 n=49 v=80
323040 Off ch=10 n=36 v=80
323040 Off ch=10 n=36 v=80
323040 On ch=10 n=57 v=95
323040 On ch=10 n=49 v=95
323040 On ch=10 n=36 v=95
323040 On ch=10 n=36 v=95
323520 Off ch=10 n=57 v=80
323520 Off ch=10 n=49 v=80
323520 Off ch=10 n=36 v=80
323520 Off ch=10 n=36 v=80
323520 On ch=10 n=57 v=95
323520 On ch=10 n=59 v=95
323520 On ch=10 n=38 v=95
323520 On ch=10 n=38 v=95
324000 Off ch=10 n=57 v=80
324000 Off ch=10 n=59 v=80
324000 Off ch=10 n=38 v=80
324000 Off ch=10 n=38 v=80
324000 On ch=10 n=57 v=95
324000 On ch=10 n=59 v=95
324000 On ch=10 n=36 v=95
324000 On ch=10 n=36 v=95
324480 Off ch=10 n=57 v=80
324480 Off ch=10 n=59 v=80
324480 Off ch=10 n=36 v=80
324480 Off ch=10 n=36 v=80
324480 Par ch=10 c=93 v=127
324480 Par ch=10 c=91 v=127
324480 On ch=10 n=57 v=95
324480 On ch=10 n=49 v=95
324480 On ch=10 n=36 v=95
324480 On ch=10 n=36 v=95
324960 Off ch=10 n=57 v=80
324960 Off ch=10 n=49 v=80
324960 Off ch=10 n=36 v=80
324960 Off ch=10 n=36 v=80
324960 On ch=10 n=57 v=95
324960 On ch=10 n=49 v=95
324960 On ch=10 n=36 v=95
324960 On ch=10 n=36 v=95
325440 Off ch=10 n=57 v=80
325440 Off ch=10 n=49 v=80
325440 Off ch=10 n=36 v=80
325440 Off ch=10 n=36 v=80
325440 On ch=10 n=57 v=95
325440 On ch=10 n=59 v=95
325440 On ch=10 n=38 v=95
325440 On ch=10 n=38 v=95
325920 Off ch=10 n=57 v=80
325920 Off ch=10 n=59 v=80
325920 Off ch=10 n=38 v=80
325920 Off ch=10 n=38 v=80
325920 On ch=10 n=57 v=95
325920 On ch=10 n=59 v=95
325920 On ch=10 n=36 v=95
325920 On ch=10 n=36 v=95
326400 Off ch=10 n=57 v=80
326400 Off ch=10 n=59 v=80
326400 Off ch=10 n=36 v=80
326400 Off ch=10 n=36 v=80
326400 Par ch=10 c=93 v=127
326400 Par ch=10 c=91 v=127
326400 On ch=10 n=57 v=95
326400 On ch=10 n=49 v=95
326400 On ch=10 n=36 v=95
326400 On ch=10 n=36 v=95
326880 Off ch=10 n=57 v=80
326880 Off ch=10 n=49 v=80
326880 Off ch=10 n=36 v=80
326880 Off ch=10 n=36 v=80
326880 On ch=10 n=57 v=95
326880 On ch=10 n=49 v=95
326880 On ch=10 n=36 v=95
326880 On ch=10 n=36 v=95
327360 Off ch=10 n=57 v=80
327360 Off ch=10 n=49 v=80
327360 Off ch=10 n=36 v=80
327360 Off ch=10 n=36 v=80
327360 On ch=10 n=57 v=95
327360 On ch=10 n=59 v=95
327360 On ch=10 n=38 v=95
327360 On ch=10 n=38 v=95
327840 Off ch=10 n=57 v=80
327840 Off ch=10 n=59 v=80
327840 Off ch=10 n=38 v=80
327840 Off ch=10 n=38 v=80
327840 On ch=10 n=57 v=95
327840 On ch=10 n=59 v=95
327840 On ch=10 n=36 v=95
327840 On ch=10 n=36 v=95
328320 Off ch=10 n=57 v=80
328320 Off ch=10 n=59 v=80
328320 Off ch=10 n=36 v=80
328320 Off ch=10 n=36 v=80
328320 Par ch=10 c=93 v=127
328320 Par ch=10 c=91 v=127
328320 On ch=10 n=57 v=95
328320 On ch=10 n=49 v=95
328320 On ch=10 n=36 v=95
328320 On ch=10 n=36 v=95
328800 Off ch=10 n=57 v=80
328800 Off ch=10 n=49 v=80
328800 Off ch=10 n=36 v=80
328800 Off ch=10 n=36 v=80
328800 On ch=10 n=57 v=95
328800 On ch=10 n=49 v=95
328800 On ch=10 n=36 v=95
328800 On ch=10 n=36 v=95
329280 Off ch=10 n=57 v=80
329280 Off ch=10 n=49 v=80
329280 Off ch=10 n=36 v=80
329280 Off ch=10 n=36 v=80
329280 On ch=10 n=57 v=95
329280 On ch=10 n=59 v=95
329280 On ch=10 n=38 v=95
329280 On ch=10 n=38 v=95
329760 Off ch=10 n=57 v=80
329760 Off ch=10 n=59 v=80
329760 Off ch=10 n=38 v=80
329760 Off ch=10 n=38 v=80
329760 On ch=10 n=57 v=95
329760 On ch=10 n=59 v=95
329760 On ch=10 n=36 v=95
329760 On ch=10 n=36 v=95
330240 Off ch=10 n=57 v=80
330240 Off ch=10 n=59 v=80
330240 Off ch=10 n=36 v=80
330240 Off ch=10 n=36 v=80
330240 Par ch=10 c=93 v=127
330240 Par ch=10 c=91 v=127
330240 On ch=10 n=57 v=95
330240 On ch=10 n=49 v=95
330240 On ch=10 n=36 v=95
330240 On ch=10 n=36 v=95
330720 Off ch=10 n=57 v=80
330720 Off ch=10 n=49 v=80
330720 Off ch=10 n=36 v=80
330720 Off ch=10 n=36 v=80
330720 On ch=10 n=57 v=95
330720 On ch=10 n=49 v=95
330720 On ch=10 n=36 v=95
330720 On ch=10 n=36 v=95
331200 Off ch=10 n=57 v=80
331200 Off ch=10 n=49 v=80
331200 Off ch=10 n=36 v=80
331200 Off ch=10 n=36 v=80
331200 On ch=10 n=57 v=95
331200 On ch=10 n=59 v=95
331200 On ch=10 n=38 v=95
331200 On ch=10 n=38 v=95
331680 Off ch=10 n=57 v=80
331680 Off ch=10 n=59 v=80
331680 Off ch=10 n=38 v=80
331680 Off ch=10 n=38 v=80
331680 On ch=10 n=57 v=95
331680 On ch=10 n=59 v=95
331680 On ch=10 n=36 v=95
331680 On ch=10 n=36 v=95
332160 Off ch=10 n=57 v=80
332160 Off ch=10 n=59 v=80
332160 Off ch=10 n=36 v=80
332160 Off ch=10 n=36 v=80
332160 Par ch=10 c=93 v=127
332160 Par ch=10 c=91 v=127
332160 On ch=10 n=57 v=95
332160 On ch=10 n=49 v=95
332160 On ch=10 n=36 v=95
332160 On ch=10 n=36 v=95
332640 Off ch=10 n=57 v=80
332640 Off ch=10 n=49 v=80
332640 Off ch=10 n=36 v=80
332640 Off ch=10 n=36 v=80
332640 On ch=10 n=57 v=95
332640 On ch=10 n=49 v=95
332640 On ch=10 n=36 v=95
332640 On ch=10 n=36 v=95
333120 Off ch=10 n=57 v=80
333120 Off ch=10 n=49 v=80
333120 Off ch=10 n=36 v=80
333120 Off ch=10 n=36 v=80
333120 On ch=10 n=57 v=95
333120 On ch=10 n=59 v=95
333120 On ch=10 n=38 v=95
333120 On ch=10 n=38 v=95
333600 Off ch=10 n=57 v=80
333600 Off ch=10 n=59 v=80
333600 Off ch=10 n=38 v=80
333600 Off ch=10 n=38 v=80
333600 On ch=10 n=57 v=95
333600 On ch=10 n=59 v=95
333600 On ch=10 n=36 v=95
333600 On ch=10 n=36 v=95
334080 Off ch=10 n=57 v=80
334080 Off ch=10 n=59 v=80
334080 Off ch=10 n=36 v=80
334080 Off ch=10 n=36 v=80
334080 Par ch=10 c=93 v=127
334080 Par ch=10 c=91 v=127
334080 On ch=10 n=57 v=95
334080 On ch=10 n=49 v=95
334080 On ch=10 n=36 v=95
334080 On ch=10 n=36 v=95
334560 Off ch=10 n=57 v=80
334560 Off ch=10 n=49 v=80
334560 Off ch=10 n=36 v=80
334560 Off ch=10 n=36 v=80
334560 On ch=10 n=57 v=95
334560 On ch=10 n=49 v=95
334560 On ch=10 n=36 v=95
334560 On ch=10 n=36 v=95
335040 Off ch=10 n=57 v=80
335040 Off ch=10 n=49 v=80
335040 Off ch=10 n=36 v=80
335040 Off ch=10 n=36 v=80
335040 On ch=10 n=57 v=95
335040 On ch=10 n=59 v=95
335040 On ch=10 n=38 v=95
335040 On ch=10 n=38 v=95
335520 Off ch=10 n=57 v=80
335520 Off ch=10 n=59 v=80
335520 Off ch=10 n=38 v=80
335520 Off ch=10 n=38 v=80
335520 On ch=10 n=57 v=95
335520 On ch=10 n=59 v=95
335520 On ch=10 n=36 v=95
335520 On ch=10 n=36 v=95
336000 Off ch=10 n=57 v=80
336000 Off ch=10 n=59 v=80
336000 Off ch=10 n=36 v=80
336000 Off ch=10 n=36 v=80
336000 Par ch=10 c=93 v=127
336000 Par ch=10 c=91 v=127
336000 On ch=10 n=57 v=95
336000 On ch=10 n=49 v=95
336000 On ch=10 n=36 v=95
336000 On ch=10 n=36 v=95
336480 Off ch=10 n=57 v=80
336480 Off ch=10 n=49 v=80
336480 Off ch=10 n=36 v=80
336480 Off ch=10 n=36 v=80
336480 On ch=10 n=57 v=95
336480 On ch=10 n=49 v=95
336480 On ch=10 n=36 v=95
336480 On ch=10 n=36 v=95
336960 Off ch=10 n=57 v=80
336960 Off ch=10 n=49 v=80
336960 Off ch=10 n=36 v=80
336960 Off ch=10 n=36 v=80
336960 On ch=10 n=57 v=95
336960 On ch=10 n=59 v=95
336960 On ch=10 n=38 v=95
336960 On ch=10 n=38 v=95
337440 Off ch=10 n=57 v=80
337440 Off ch=10 n=59 v=80
337440 Off ch=10 n=38 v=80
337440 Off ch=10 n=38 v=80
337440 On ch=10 n=57 v=95
337440 On ch=10 n=59 v=95
337440 On ch=10 n=36 v=95
337440 On ch=10 n=36 v=95
337920 Off ch=10 n=57 v=80
337920 Off ch=10 n=59 v=80
337920 Off ch=10 n=36 v=80
337920 Off ch=10 n=36 v=80
337920 Par ch=10 c=93 v=127
337920 Par ch=10 c=91 v=127
337920 On ch=10 n=57 v=95
337920 On ch=10 n=49 v=95
337920 On ch=10 n=36 v=95
337920 On ch=10 n=36 v=95
338400 Off ch=10 n=57 v=80
338400 Off ch=10 n=49 v=80
338400 Off ch=10 n=36 v=80
338400 Off ch=10 n=36 v=80
338400 On ch=10 n=57 v=95
338400 On ch=10 n=49 v=95
338400 On ch=10 n=36 v=95
338400 On ch=10 n=36 v=95
338880 Off ch=10 n=57 v=80
338880 Off ch=10 n=49 v=80
338880 Off ch=10 n=36 v=80
338880 Off ch=10 n=36 v=80
338880 On ch=10 n=57 v=95
338880 On ch=10 n=59 v=95
338880 On ch=10 n=38 v=95
338880 On ch=10 n=38 v=95
339360 Off ch=10 n=57 v=80
339360 Off ch=10 n=59 v=80
339360 Off ch=10 n=38 v=80
339360 Off ch=10 n=38 v=80
339360 On ch=10 n=57 v=95
339360 On ch=10 n=59 v=95
339360 On ch=10 n=36 v=95
339360 On ch=10 n=36 v=95
339840 Off ch=10 n=57 v=80
339840 Off ch=10 n=59 v=80
339840 Off ch=10 n=36 v=80
339840 Off ch=10 n=36 v=80
339840 Par ch=10 c=93 v=127
339840 Par ch=10 c=91 v=127
339840 On ch=10 n=57 v=95
339840 On ch=10 n=49 v=95
339840 On ch=10 n=36 v=95
339840 On ch=10 n=36 v=95
340320 Off ch=10 n=57 v=80
340320 Off ch=10 n=49 v=80
340320 Off ch=10 n=36 v=80
340320 Off ch=10 n=36 v=80
340320 On ch=10 n=57 v=95
340320 On ch=10 n=49 v=95
340320 On ch=10 n=36 v=95
340320 On ch=10 n=36 v=95
340800 Off ch=10 n=57 v=80
340800 Off ch=10 n=49 v=80
340800 Off ch=10 n=36 v=80
340800 Off ch=10 n=36 v=80
340800 On ch=10 n=57 v=95
340800 On ch=10 n=59 v=95
340800 On ch=10 n=38 v=95
340800 On ch=10 n=38 v=95
341280 Off ch=10 n=57 v=80
341280 Off ch=10 n=59 v=80
341280 Off ch=10 n=38 v=80
341280 Off ch=10 n=38 v=80
341280 On ch=10 n=57 v=95
341280 On ch=10 n=59 v=95
341280 On ch=10 n=36 v=95
341280 On ch=10 n=36 v=95
341760 Off ch=10 n=57 v=80
341760 Off ch=10 n=59 v=80
341760 Off ch=10 n=36 v=80
341760 Off ch=10 n=36 v=80
341760 Par ch=10 c=7 v=127
341760 Par ch=10 c=93 v=127
341760 Par ch=10 c=91 v=127
341760 On ch=10 n=40 v=95
341760 On ch=10 n=38 v=95
341760 On ch=10 n=38 v=95
342240 Off ch=10 n=40 v=80
342240 Off ch=10 n=38 v=80
342240 Off ch=10 n=38 v=80
342240 On ch=10 n=40 v=95
342240 On ch=10 n=38 v=95
342240 On ch=10 n=38 v=95
342720 Off ch=10 n=40 v=80
342720 Off ch=10 n=38 v=80
342720 Off ch=10 n=38 v=80
342720 On ch=10 n=40 v=95
342720 On ch=10 n=38 v=95
342720 On ch=10 n=38 v=95
343200 Off ch=10 n=40 v=80
343200 Off ch=10 n=38 v=80
343200 Off ch=10 n=38 v=80
343200 On ch=10 n=40 v=95
343200 On ch=10 n=38 v=95
343200 On ch=10 n=38 v=95
343680 Off ch=10 n=40 v=80
343680 Off ch=10 n=38 v=80
343680 Off ch=10 n=38 v=80
343680 Meta TrkEnd
TrkEnd
