MFile 1 7 480
MTrk
0 Tempo 571428
0 Meta SeqName "Wake me up when september ends"
0 TimeSig 4/4 8 -72
0 Meta TrkEnd
TrkEnd
MTrk
0 Meta TrkName "Acoustic Guitar"
0 Par ch=1 c=100 v=0
0 Par ch=1 c=101 v=0
0 Par ch=1 c=6 v=12
0 Pb ch=1 v=8192
0 Par ch=2 c=100 v=0
0 Par ch=2 c=101 v=0
0 Par ch=2 c=6 v=12
0 Pb ch=2 v=8192
0 PrCh ch=1 p=24
0 PrCh ch=2 p=24
0 Par ch=1 c=7 v=104
0 Par ch=2 c=7 v=104
0 Par ch=1 c=10 v=64
0 Par ch=2 c=10 v=64
0 Par ch=1 c=93 v=0
0 Par ch=2 c=93 v=0
0 Par ch=1 c=91 v=0
0 Par ch=2 c=91 v=0
0 Par ch=1 c=92 v=0
0 Par ch=2 c=92 v=0
0 Par ch=1 c=95 v=0
0 Par ch=2 c=95 v=0
0 On ch=1 n=55 v=95
240 On ch=1 n=55 v=95
480 On ch=1 n=62 v=95
720 Off ch=1 n=55 v=80
720 Off ch=1 n=55 v=80
720 On ch=1 n=55 v=95
960 Off ch=1 n=62 v=80
960 On ch=1 n=55 v=95
1200 On ch=1 n=62 v=95
1680 Off ch=1 n=55 v=80
1680 Off ch=1 n=55 v=80
1680 Off ch=1 n=62 v=80
1920 On ch=1 n=55 v=95
2160 On ch=1 n=55 v=95
2400 On ch=1 n=62 v=95
2640 Off ch=1 n=55 v=80
2640 Off ch=1 n=55 v=80
2640 On ch=1 n=55 v=95
2880 Off ch=1 n=62 v=80
2880 On ch=1 n=55 v=95
3120 On ch=1 n=62 v=95
3600 Off ch=1 n=55 v=80
3600 Off ch=1 n=55 v=80
3600 Off ch=1 n=62 v=80
3840 On ch=1 n=55 v=95
4080 On ch=1 n=55 v=95
4320 On ch=1 n=62 v=95
4560 Off ch=1 n=55 v=80
4560 Off ch=1 n=55 v=80
4560 On ch=1 n=55 v=95
4800 Off ch=1 n=62 v=80
4800 On ch=1 n=55 v=95
5040 On ch=1 n=62 v=95
5520 Off ch=1 n=55 v=80
5520 Off ch=1 n=55 v=80
5520 Off ch=1 n=62 v=80
5760 On ch=1 n=55 v=95
6000 On ch=1 n=55 v=95
6240 On ch=1 n=62 v=95
6480 Off ch=1 n=55 v=80
6480 Off ch=1 n=55 v=80
6480 On ch=1 n=55 v=95
6720 Off ch=1 n=62 v=80
6720 On ch=1 n=55 v=95
6960 On ch=1 n=62 v=95
7440 Off ch=1 n=55 v=80
7440 Off ch=1 n=55 v=80
7440 Off ch=1 n=62 v=80
7680 On ch=1 n=55 v=95
7920 On ch=1 n=55 v=95
8160 On ch=1 n=62 v=95
8400 Off ch=1 n=55 v=80
8400 Off ch=1 n=55 v=80
8400 On ch=1 n=55 v=95
8640 Off ch=1 n=62 v=80
8640 On ch=1 n=55 v=95
8880 On ch=1 n=62 v=95
9360 Off ch=1 n=55 v=80
9360 Off ch=1 n=55 v=80
9360 Off ch=1 n=62 v=80
9600 On ch=1 n=54 v=95
9840 On ch=1 n=55 v=95
10080 On ch=1 n=62 v=95
10320 Off ch=1 n=54 v=80
10320 Off ch=1 n=55 v=80
10320 On ch=1 n=54 v=95
10560 Off ch=1 n=62 v=80
10560 On ch=1 n=55 v=95
10800 On ch=1 n=62 v=95
11280 Off ch=1 n=54 v=80
11280 Off ch=1 n=55 v=80
11280 Off ch=1 n=62 v=80
11520 On ch=1 n=52 v=95
11760 On ch=1 n=55 v=95
12000 On ch=1 n=62 v=95
12240 Off ch=1 n=52 v=80
12240 Off ch=1 n=55 v=80
12240 On ch=1 n=52 v=95
12480 Off ch=1 n=62 v=80
12480 On ch=1 n=55 v=95
12720 On ch=1 n=62 v=95
13200 Off ch=1 n=52 v=80
13200 Off ch=1 n=55 v=80
13200 Off ch=1 n=62 v=80
13440 On ch=1 n=50 v=95
13680 On ch=1 n=55 v=95
13920 On ch=1 n=62 v=95
14160 Off ch=1 n=50 v=80
14160 Off ch=1 n=55 v=80
14160 On ch=1 n=50 v=95
14400 Off ch=1 n=62 v=80
14400 On ch=1 n=55 v=95
14640 On ch=1 n=62 v=95
15120 Off ch=1 n=50 v=80
15120 Off ch=1 n=55 v=80
15120 Off ch=1 n=62 v=80
15360 On ch=1 n=48 v=95
15600 On ch=1 n=60 v=95
15840 Off ch=1 n=60 v=80
15840 On ch=1 n=64 v=95
15840 On ch=1 n=60 v=95
16080 Off ch=1 n=60 v=80
16080 On ch=1 n=60 v=95
16320 Off ch=1 n=48 v=80
16320 Off ch=1 n=64 v=80
16320 Off ch=1 n=60 v=80
16320 On ch=1 n=48 v=95
16560 On ch=1 n=64 v=95
16560 On ch=1 n=60 v=95
17040 Off ch=1 n=64 v=80
17040 Off ch=1 n=60 v=80
17040 On ch=1 n=60 v=95
17280 Off ch=1 n=48 v=80
17280 Off ch=1 n=60 v=80
17280 On ch=1 n=48 v=95
17520 On ch=1 n=60 v=95
17760 Off ch=1 n=60 v=80
17760 On ch=1 n=63 v=95
17760 On ch=1 n=60 v=95
18000 Off ch=1 n=60 v=80
18000 On ch=1 n=60 v=95
18240 Off ch=1 n=48 v=80
18240 Off ch=1 n=63 v=80
18240 Off ch=1 n=60 v=80
18240 On ch=1 n=48 v=95
18480 On ch=1 n=63 v=95
18480 On ch=1 n=60 v=95
18960 Off ch=1 n=63 v=80
18960 Off ch=1 n=60 v=80
18960 On ch=1 n=60 v=95
19200 Off ch=1 n=48 v=80
19200 Off ch=1 n=60 v=80
19200 On ch=1 n=43 v=95
19440 On ch=1 n=55 v=95
19680 Off ch=1 n=55 v=80
19680 On ch=1 n=62 v=95
19680 On ch=1 n=55 v=95
19920 Off ch=1 n=55 v=80
19920 On ch=1 n=55 v=95
20160 Off ch=1 n=43 v=80
20160 Off ch=1 n=62 v=80
20160 Off ch=1 n=55 v=80
20160 On ch=1 n=43 v=95
20400 On ch=1 n=62 v=95
20400 On ch=1 n=55 v=95
20880 Off ch=1 n=62 v=80
20880 Off ch=1 n=55 v=80
20880 On ch=1 n=55 v=95
21120 Off ch=1 n=43 v=80
21120 Off ch=1 n=55 v=80
21120 On ch=1 n=43 v=95
21360 On ch=1 n=55 v=95
21600 Off ch=1 n=55 v=80
21600 On ch=1 n=62 v=95
21600 On ch=1 n=55 v=95
21840 Off ch=1 n=55 v=80
21840 On ch=1 n=55 v=95
22080 Off ch=1 n=43 v=80
22080 Off ch=1 n=62 v=80
22080 Off ch=1 n=55 v=80
22080 On ch=1 n=43 v=95
22320 On ch=1 n=62 v=95
22320 On ch=1 n=55 v=95
22800 Off ch=1 n=62 v=80
22800 Off ch=1 n=55 v=80
22800 On ch=1 n=55 v=95
23040 Off ch=1 n=43 v=80
23040 Off ch=1 n=55 v=80
23040 On ch=1 n=55 v=95
23280 On ch=1 n=55 v=95
23520 On ch=1 n=62 v=95
23760 Off ch=1 n=55 v=80
23760 Off ch=1 n=55 v=80
23760 On ch=1 n=55 v=95
24000 Off ch=1 n=62 v=80
24000 On ch=1 n=55 v=95
24240 On ch=1 n=62 v=95
24720 Off ch=1 n=55 v=80
24720 Off ch=1 n=55 v=80
24720 Off ch=1 n=62 v=80
24960 On ch=1 n=54 v=95
25200 On ch=1 n=55 v=95
25440 On ch=1 n=62 v=95
25680 Off ch=1 n=54 v=80
25680 Off ch=1 n=55 v=80
25680 On ch=1 n=54 v=95
25920 Off ch=1 n=62 v=80
25920 On ch=1 n=55 v=95
26160 On ch=1 n=62 v=95
26640 Off ch=1 n=54 v=80
26640 Off ch=1 n=55 v=80
26640 Off ch=1 n=62 v=80
26880 On ch=1 n=52 v=95
27120 On ch=1 n=55 v=95
27360 On ch=1 n=62 v=95
27600 Off ch=1 n=52 v=80
27600 Off ch=1 n=55 v=80
27600 On ch=1 n=52 v=95
27840 Off ch=1 n=62 v=80
27840 On ch=1 n=55 v=95
28080 On ch=1 n=62 v=95
28560 Off ch=1 n=52 v=80
28560 Off ch=1 n=55 v=80
28560 Off ch=1 n=62 v=80
28800 On ch=1 n=50 v=95
29040 On ch=1 n=55 v=95
29280 On ch=1 n=62 v=95
29520 Off ch=1 n=50 v=80
29520 Off ch=1 n=55 v=80
29520 On ch=1 n=50 v=95
29760 Off ch=1 n=62 v=80
29760 On ch=1 n=55 v=95
30000 On ch=1 n=62 v=95
30480 Off ch=1 n=50 v=80
30480 Off ch=1 n=55 v=80
30480 Off ch=1 n=62 v=80
30720 On ch=1 n=48 v=95
30960 On ch=1 n=60 v=95
31200 Off ch=1 n=60 v=80
31200 On ch=1 n=64 v=95
31200 On ch=1 n=60 v=95
31440 Off ch=1 n=60 v=80
31440 On ch=1 n=60 v=95
31680 Off ch=1 n=48 v=80
31680 Off ch=1 n=64 v=80
31680 Off ch=1 n=60 v=80
31680 On ch=1 n=48 v=95
31920 On ch=1 n=64 v=95
31920 On ch=1 n=60 v=95
32400 Off ch=1 n=64 v=80
32400 Off ch=1 n=60 v=80
32400 On ch=1 n=60 v=95
32640 Off ch=1 n=48 v=80
32640 Off ch=1 n=60 v=80
32640 On ch=1 n=48 v=95
32880 On ch=1 n=60 v=95
33120 Off ch=1 n=60 v=80
33120 On ch=1 n=63 v=95
33120 On ch=1 n=60 v=95
33360 Off ch=1 n=60 v=80
33360 On ch=1 n=60 v=95
33600 Off ch=1 n=48 v=80
33600 Off ch=1 n=63 v=80
33600 Off ch=1 n=60 v=80
33600 On ch=1 n=48 v=95
33840 On ch=1 n=63 v=95
33840 On ch=1 n=60 v=95
34320 Off ch=1 n=63 v=80
34320 Off ch=1 n=60 v=80
34320 On ch=1 n=60 v=95
34560 Off ch=1 n=48 v=80
34560 Off ch=1 n=60 v=80
34560 On ch=1 n=43 v=95
34800 On ch=1 n=55 v=95
35040 Off ch=1 n=55 v=80
35040 On ch=1 n=62 v=95
35040 On ch=1 n=55 v=95
35280 Off ch=1 n=55 v=80
35280 On ch=1 n=55 v=95
35520 Off ch=1 n=43 v=80
35520 Off ch=1 n=62 v=80
35520 Off ch=1 n=55 v=80
35520 On ch=1 n=43 v=95
35760 On ch=1 n=62 v=95
35760 On ch=1 n=55 v=95
36240 Off ch=1 n=62 v=80
36240 Off ch=1 n=55 v=80
36240 On ch=1 n=55 v=95
36480 Off ch=1 n=43 v=80
36480 Off ch=1 n=55 v=80
36480 On ch=1 n=43 v=95
36720 On ch=1 n=55 v=95
36960 Off ch=1 n=55 v=80
36960 On ch=1 n=62 v=95
36960 On ch=1 n=55 v=95
37200 Off ch=1 n=55 v=80
37200 On ch=1 n=55 v=95
37440 Off ch=1 n=43 v=80
37440 Off ch=1 n=62 v=80
37440 Off ch=1 n=55 v=80
37440 On ch=1 n=42 v=95
37680 On ch=1 n=55 v=95
37920 Off ch=1 n=55 v=80
37920 On ch=1 n=62 v=95
37920 On ch=1 n=55 v=95
38160 Off ch=1 n=55 v=80
38160 On ch=1 n=55 v=95
38400 Off ch=1 n=42 v=80
38400 Off ch=1 n=62 v=80
38400 Off ch=1 n=55 v=80
38400 On ch=1 n=52 v=95
38640 On ch=1 n=55 v=95
38880 Off ch=1 n=55 v=80
38880 On ch=1 n=59 v=95
38880 On ch=1 n=55 v=95
39120 Off ch=1 n=55 v=80
39120 On ch=1 n=55 v=95
39360 Off ch=1 n=52 v=80
39360 Off ch=1 n=59 v=80
39360 Off ch=1 n=55 v=80
39360 On ch=1 n=52 v=95
39600 Off ch=1 n=52 v=80
39600 On ch=1 n=59 v=95
39600 On ch=1 n=55 v=95
40080 Off ch=1 n=59 v=80
40080 Off ch=1 n=55 v=80
40080 On ch=1 n=55 v=95
40320 Off ch=1 n=55 v=80
40320 On ch=1 n=47 v=95
40560 On ch=1 n=55 v=95
40800 Off ch=1 n=55 v=80
40800 On ch=1 n=62 v=95
40800 On ch=1 n=55 v=95
41040 Off ch=1 n=55 v=80
41040 On ch=1 n=55 v=95
41280 Off ch=1 n=47 v=80
41280 Off ch=1 n=62 v=80
41280 Off ch=1 n=55 v=80
41280 On ch=1 n=47 v=95
41520 Off ch=1 n=47 v=80
41520 On ch=1 n=62 v=95
41520 On ch=1 n=55 v=95
42000 Off ch=1 n=62 v=80
42000 Off ch=1 n=55 v=80
42000 On ch=1 n=55 v=95
42240 Off ch=1 n=55 v=80
42240 On ch=1 n=48 v=95
42480 On ch=1 n=60 v=95
42720 Off ch=1 n=60 v=80
42720 On ch=1 n=64 v=95
42720 On ch=1 n=60 v=95
42960 Off ch=1 n=60 v=80
42960 On ch=1 n=60 v=95
43200 Off ch=1 n=48 v=80
43200 Off ch=1 n=64 v=80
43200 Off ch=1 n=60 v=80
43200 On ch=1 n=48 v=95
43440 Off ch=1 n=48 v=80
43440 On ch=1 n=64 v=95
43440 On ch=1 n=60 v=95
43920 Off ch=1 n=64 v=80
43920 Off ch=1 n=60 v=80
43920 On ch=1 n=60 v=95
44160 Off ch=1 n=60 v=80
44160 On ch=1 n=43 v=95
44400 On ch=1 n=55 v=95
44640 Off ch=1 n=55 v=80
44640 On ch=1 n=62 v=95
44640 On ch=1 n=55 v=95
44880 Off ch=1 n=55 v=80
44880 On ch=1 n=55 v=95
45120 Off ch=1 n=43 v=80
45120 Off ch=1 n=62 v=80
45120 Off ch=1 n=55 v=80
45120 On ch=1 n=42 v=95
45360 On ch=1 n=55 v=95
45600 Off ch=1 n=55 v=80
45600 On ch=1 n=62 v=95
45600 On ch=1 n=55 v=95
45840 Off ch=1 n=55 v=80
45840 On ch=1 n=55 v=95
46080 Off ch=1 n=42 v=80
46080 Off ch=1 n=62 v=80
46080 Off ch=1 n=55 v=80
46080 On ch=1 n=52 v=95
46320 On ch=1 n=55 v=95
46560 Off ch=1 n=55 v=80
46560 On ch=1 n=59 v=95
46560 On ch=1 n=55 v=95
46800 Off ch=1 n=55 v=80
46800 On ch=1 n=55 v=95
47040 Off ch=1 n=52 v=80
47040 Off ch=1 n=59 v=80
47040 Off ch=1 n=55 v=80
47040 On ch=1 n=52 v=95
47280 Off ch=1 n=52 v=80
47280 On ch=1 n=59 v=95
47280 On ch=1 n=55 v=95
47760 Off ch=1 n=59 v=80
47760 Off ch=1 n=55 v=80
47760 On ch=1 n=55 v=95
48000 Off ch=1 n=55 v=80
48000 On ch=1 n=47 v=95
48240 On ch=1 n=55 v=95
48480 Off ch=1 n=55 v=80
48480 On ch=1 n=62 v=95
48480 On ch=1 n=55 v=95
48720 Off ch=1 n=55 v=80
48720 On ch=1 n=55 v=95
48960 Off ch=1 n=47 v=80
48960 Off ch=1 n=62 v=80
48960 Off ch=1 n=55 v=80
48960 On ch=1 n=47 v=95
49200 Off ch=1 n=47 v=80
49200 On ch=1 n=62 v=95
49200 On ch=1 n=55 v=95
49680 Off ch=1 n=62 v=80
49680 Off ch=1 n=55 v=80
49680 On ch=1 n=55 v=95
49920 Off ch=1 n=55 v=80
49920 On ch=1 n=48 v=95
50160 On ch=1 n=60 v=95
50400 Off ch=1 n=60 v=80
50400 On ch=1 n=64 v=95
50400 On ch=1 n=60 v=95
50640 Off ch=1 n=60 v=80
50640 On ch=1 n=60 v=95
50880 Off ch=1 n=48 v=80
50880 Off ch=1 n=64 v=80
50880 Off ch=1 n=60 v=80
50880 On ch=1 n=48 v=95
51120 Off ch=1 n=48 v=80
51120 On ch=1 n=64 v=95
51120 On ch=1 n=60 v=95
51600 Off ch=1 n=64 v=80
51600 Off ch=1 n=60 v=80
51600 On ch=1 n=60 v=95
51840 Off ch=1 n=60 v=80
51840 On ch=1 n=50 v=95
52080 On ch=1 n=55 v=95
52320 Off ch=1 n=50 v=80
52320 On ch=1 n=66 v=95
52320 On ch=1 n=62 v=95
52560 Off ch=1 n=55 v=80
52560 Off ch=1 n=66 v=80
52560 Off ch=1 n=62 v=80
52560 On ch=1 n=55 v=95
52800 On ch=1 n=50 v=95
53040 Off ch=1 n=55 v=80
53040 On ch=1 n=66 v=95
53040 On ch=1 n=62 v=95
53280 Off ch=1 n=50 v=80
53520 Off ch=1 n=66 v=80
53520 Off ch=1 n=62 v=80
53520 On ch=1 n=55 v=95
53760 Off ch=1 n=55 v=80
53760 On ch=1 n=55 v=95
54000 On ch=1 n=55 v=95
54240 On ch=1 n=62 v=95
54480 Off ch=1 n=55 v=80
54480 Off ch=1 n=55 v=80
54480 On ch=1 n=55 v=95
54720 Off ch=1 n=62 v=80
54720 On ch=1 n=55 v=95
54960 On ch=1 n=62 v=95
55440 Off ch=1 n=55 v=80
55440 Off ch=1 n=55 v=80
55440 Off ch=1 n=62 v=80
55680 On ch=1 n=54 v=95
55920 On ch=1 n=55 v=95
56160 On ch=1 n=62 v=95
56400 Off ch=1 n=54 v=80
56400 Off ch=1 n=55 v=80
56400 On ch=1 n=54 v=95
56640 Off ch=1 n=62 v=80
56640 On ch=1 n=55 v=95
56880 On ch=1 n=62 v=95
57360 Off ch=1 n=54 v=80
57360 Off ch=1 n=55 v=80
57360 Off ch=1 n=62 v=80
57600 On ch=1 n=52 v=95
57840 On ch=1 n=55 v=95
58080 On ch=1 n=62 v=95
58320 Off ch=1 n=52 v=80
58320 Off ch=1 n=55 v=80
58320 On ch=1 n=52 v=95
58560 Off ch=1 n=62 v=80
58560 On ch=1 n=55 v=95
58800 On ch=1 n=62 v=95
59280 Off ch=1 n=52 v=80
59280 Off ch=1 n=55 v=80
59280 Off ch=1 n=62 v=80
59520 On ch=1 n=50 v=95
59760 On ch=1 n=55 v=95
60000 On ch=1 n=62 v=95
60240 Off ch=1 n=50 v=80
60240 Off ch=1 n=55 v=80
60240 On ch=1 n=50 v=95
60480 Off ch=1 n=62 v=80
60480 On ch=1 n=55 v=95
60720 On ch=1 n=62 v=95
61200 Off ch=1 n=50 v=80
61200 Off ch=1 n=55 v=80
61200 Off ch=1 n=62 v=80
61440 On ch=1 n=48 v=95
61680 On ch=1 n=60 v=95
61920 Off ch=1 n=60 v=80
61920 On ch=1 n=64 v=95
61920 On ch=1 n=60 v=95
62160 Off ch=1 n=60 v=80
62160 On ch=1 n=60 v=95
62400 Off ch=1 n=48 v=80
62400 Off ch=1 n=64 v=80
62400 Off ch=1 n=60 v=80
62400 On ch=1 n=48 v=95
62640 On ch=1 n=64 v=95
62640 On ch=1 n=60 v=95
63120 Off ch=1 n=64 v=80
63120 Off ch=1 n=60 v=80
63120 On ch=1 n=60 v=95
63360 Off ch=1 n=48 v=80
63360 Off ch=1 n=60 v=80
63360 On ch=1 n=48 v=95
63600 On ch=1 n=60 v=95
63840 Off ch=1 n=60 v=80
63840 On ch=1 n=63 v=95
63840 On ch=1 n=60 v=95
64080 Off ch=1 n=60 v=80
64080 On ch=1 n=60 v=95
64320 Off ch=1 n=48 v=80
64320 Off ch=1 n=63 v=80
64320 Off ch=1 n=60 v=80
64320 On ch=1 n=48 v=95
64560 On ch=1 n=63 v=95
64560 On ch=1 n=60 v=95
65040 Off ch=1 n=63 v=80
65040 Off ch=1 n=60 v=80
65040 On ch=1 n=60 v=95
65280 Off ch=1 n=48 v=80
65280 Off ch=1 n=60 v=80
65280 On ch=1 n=43 v=95
65520 On ch=1 n=55 v=95
65760 Off ch=1 n=55 v=80
65760 On ch=1 n=62 v=95
65760 On ch=1 n=55 v=95
66000 Off ch=1 n=55 v=80
66000 On ch=1 n=55 v=95
66240 Off ch=1 n=43 v=80
66240 Off ch=1 n=62 v=80
66240 Off ch=1 n=55 v=80
66240 On ch=1 n=43 v=95
66480 On ch=1 n=62 v=95
66480 On ch=1 n=55 v=95
66960 Off ch=1 n=62 v=80
66960 Off ch=1 n=55 v=80
66960 On ch=1 n=55 v=95
67200 Off ch=1 n=43 v=80
67200 Off ch=1 n=55 v=80
67200 On ch=1 n=43 v=95
67440 On ch=1 n=55 v=95
67680 Off ch=1 n=55 v=80
67680 On ch=1 n=62 v=95
67680 On ch=1 n=55 v=95
67920 Off ch=1 n=55 v=80
67920 On ch=1 n=55 v=95
68160 Off ch=1 n=43 v=80
68160 Off ch=1 n=62 v=80
68160 Off ch=1 n=55 v=80
68160 On ch=1 n=43 v=95
68400 On ch=1 n=62 v=95
68400 On ch=1 n=55 v=95
68880 Off ch=1 n=62 v=80
68880 Off ch=1 n=55 v=80
68880 On ch=1 n=55 v=95
69120 Off ch=1 n=43 v=80
69120 Off ch=1 n=55 v=80
69120 On ch=1 n=55 v=95
69360 On ch=1 n=55 v=95
69600 On ch=1 n=62 v=95
69840 Off ch=1 n=55 v=80
69840 Off ch=1 n=55 v=80
69840 On ch=1 n=55 v=95
70080 Off ch=1 n=62 v=80
70080 On ch=1 n=55 v=95
70320 On ch=1 n=62 v=95
70800 Off ch=1 n=55 v=80
70800 Off ch=1 n=55 v=80
70800 Off ch=1 n=62 v=80
71040 On ch=1 n=55 v=95
71280 On ch=1 n=55 v=95
71520 On ch=1 n=62 v=95
71760 Off ch=1 n=55 v=80
71760 Off ch=1 n=55 v=80
71760 On ch=1 n=55 v=95
72000 Off ch=1 n=62 v=80
72000 On ch=1 n=55 v=95
72240 On ch=1 n=62 v=95
72720 Off ch=1 n=55 v=80
72720 Off ch=1 n=55 v=80
72720 Off ch=1 n=62 v=80
72960 On ch=1 n=55 v=95
73200 On ch=1 n=55 v=95
73440 On ch=1 n=62 v=95
73680 Off ch=1 n=55 v=80
73680 Off ch=1 n=55 v=80
73680 On ch=1 n=55 v=95
73920 Off ch=1 n=62 v=80
73920 On ch=1 n=55 v=95
74160 On ch=1 n=62 v=95
74640 Off ch=1 n=55 v=80
74640 Off ch=1 n=55 v=80
74640 Off ch=1 n=62 v=80
74880 On ch=1 n=55 v=95
75120 On ch=1 n=55 v=95
75360 On ch=1 n=62 v=95
75600 Off ch=1 n=55 v=80
75600 Off ch=1 n=55 v=80
75600 On ch=1 n=55 v=95
75840 Off ch=1 n=62 v=80
75840 On ch=1 n=55 v=95
76080 On ch=1 n=62 v=95
76560 Off ch=1 n=55 v=80
76560 Off ch=1 n=55 v=80
76560 Off ch=1 n=62 v=80
76800 On ch=1 n=55 v=95
77040 On ch=1 n=55 v=95
77280 On ch=1 n=62 v=95
77520 Off ch=1 n=55 v=80
77520 Off ch=1 n=55 v=80
77520 On ch=1 n=55 v=95
77760 Off ch=1 n=62 v=80
77760 On ch=1 n=55 v=95
78000 On ch=1 n=62 v=95
78480 Off ch=1 n=55 v=80
78480 Off ch=1 n=55 v=80
78480 Off ch=1 n=62 v=80
78720 On ch=1 n=55 v=95
78960 On ch=1 n=55 v=95
79200 On ch=1 n=62 v=95
79440 Off ch=1 n=55 v=80
79440 Off ch=1 n=55 v=80
79440 On ch=1 n=55 v=95
79680 Off ch=1 n=62 v=80
79680 On ch=1 n=55 v=95
79920 On ch=1 n=62 v=95
80400 Off ch=1 n=55 v=80
80400 Off ch=1 n=55 v=80
80400 Off ch=1 n=62 v=80
80640 On ch=1 n=55 v=95
80880 On ch=1 n=55 v=95
81120 On ch=1 n=62 v=95
81360 Off ch=1 n=55 v=80
81360 Off ch=1 n=55 v=80
81360 On ch=1 n=55 v=95
81600 Off ch=1 n=62 v=80
81600 On ch=1 n=55 v=95
81840 On ch=1 n=62 v=95
82320 Off ch=1 n=55 v=80
82320 Off ch=1 n=55 v=80
82320 Off ch=1 n=62 v=80
82560 On ch=1 n=54 v=95
82800 On ch=1 n=55 v=95
83040 On ch=1 n=62 v=95
83280 Off ch=1 n=54 v=80
83280 Off ch=1 n=55 v=80
83280 On ch=1 n=54 v=95
83520 Off ch=1 n=62 v=80
83520 On ch=1 n=55 v=95
83760 On ch=1 n=62 v=95
84240 Off ch=1 n=54 v=80
84240 Off ch=1 n=55 v=80
84240 Off ch=1 n=62 v=80
84480 On ch=1 n=52 v=95
84720 On ch=1 n=55 v=95
84960 On ch=1 n=62 v=95
85200 Off ch=1 n=52 v=80
85200 Off ch=1 n=55 v=80
85200 On ch=1 n=52 v=95
85440 Off ch=1 n=62 v=80
85440 On ch=1 n=55 v=95
85680 On ch=1 n=62 v=95
86160 Off ch=1 n=52 v=80
86160 Off ch=1 n=55 v=80
86160 Off ch=1 n=62 v=80
86400 On ch=1 n=50 v=95
86640 On ch=1 n=55 v=95
86880 On ch=1 n=62 v=95
87120 Off ch=1 n=50 v=80
87120 Off ch=1 n=55 v=80
87120 On ch=1 n=50 v=95
87360 Off ch=1 n=62 v=80
87360 On ch=1 n=55 v=95
87600 On ch=1 n=62 v=95
88080 Off ch=1 n=50 v=80
88080 Off ch=1 n=55 v=80
88080 Off ch=1 n=62 v=80
88320 On ch=1 n=48 v=95
88330 On ch=1 n=55 v=95
88340 On ch=1 n=60 v=95
88350 On ch=1 n=64 v=95
88800 Off ch=1 n=48 v=80
88800 Off ch=1 n=55 v=80
88800 Off ch=1 n=60 v=80
88800 Off ch=1 n=64 v=80
88800 On ch=1 n=48 v=95
88810 On ch=1 n=55 v=95
88820 On ch=1 n=60 v=95
88830 On ch=1 n=64 v=95
89280 Off ch=1 n=48 v=80
89280 Off ch=1 n=55 v=80
89280 Off ch=1 n=60 v=80
89280 Off ch=1 n=64 v=80
89280 On ch=1 n=48 v=95
89290 On ch=1 n=55 v=95
89300 On ch=1 n=60 v=95
89310 On ch=1 n=64 v=95
89760 Off ch=1 n=48 v=80
89760 Off ch=1 n=55 v=80
89760 Off ch=1 n=60 v=80
89760 Off ch=1 n=64 v=80
89760 On ch=1 n=48 v=95
89770 On ch=1 n=55 v=95
89780 On ch=1 n=60 v=95
89790 On ch=1 n=64 v=95
90240 Off ch=1 n=48 v=80
90240 Off ch=1 n=55 v=80
90240 Off ch=1 n=60 v=80
90240 Off ch=1 n=64 v=80
90240 On ch=1 n=48 v=95
90250 On ch=1 n=55 v=95
90260 On ch=1 n=60 v=95
90270 On ch=1 n=63 v=95
90720 Off ch=1 n=48 v=80
90720 Off ch=1 n=55 v=80
90720 Off ch=1 n=60 v=80
90720 Off ch=1 n=63 v=80
90720 On ch=1 n=48 v=95
90730 On ch=1 n=55 v=95
90740 On ch=1 n=60 v=95
90750 On ch=1 n=63 v=95
91200 Off ch=1 n=48 v=80
91200 Off ch=1 n=55 v=80
91200 Off ch=1 n=60 v=80
91200 Off ch=1 n=63 v=80
91200 On ch=1 n=48 v=95
91210 On ch=1 n=55 v=95
91220 On ch=1 n=60 v=95
91230 On ch=1 n=63 v=95
91680 Off ch=1 n=48 v=80
91680 Off ch=1 n=55 v=80
91680 Off ch=1 n=60 v=80
91680 Off ch=1 n=63 v=80
91680 On ch=1 n=48 v=95
91690 On ch=1 n=55 v=95
91700 On ch=1 n=60 v=95
91710 On ch=1 n=63 v=95
92160 Off ch=1 n=48 v=80
92160 Off ch=1 n=55 v=80
92160 Off ch=1 n=60 v=80
92160 Off ch=1 n=63 v=80
92160 On ch=1 n=43 v=95
92170 On ch=1 n=47 v=95
92180 On ch=1 n=50 v=95
92190 On ch=1 n=55 v=95
92200 On ch=1 n=62 v=63
92640 Off ch=1 n=43 v=80
92640 Off ch=1 n=47 v=80
92640 Off ch=1 n=50 v=80
92640 Off ch=1 n=55 v=80
92640 Off ch=1 n=62 v=80
92640 On ch=1 n=43 v=95
92650 On ch=1 n=47 v=95
92660 On ch=1 n=50 v=95
92670 On ch=1 n=55 v=95
92680 On ch=1 n=62 v=63
93120 Off ch=1 n=43 v=80
93120 Off ch=1 n=47 v=80
93120 Off ch=1 n=50 v=80
93120 Off ch=1 n=55 v=80
93120 Off ch=1 n=62 v=80
93120 On ch=1 n=43 v=95
93130 On ch=1 n=47 v=95
93140 On ch=1 n=50 v=95
93150 On ch=1 n=55 v=95
93160 On ch=1 n=62 v=63
93600 Off ch=1 n=43 v=80
93600 Off ch=1 n=47 v=80
93600 Off ch=1 n=50 v=80
93600 Off ch=1 n=55 v=80
93600 Off ch=1 n=62 v=80
93600 On ch=1 n=43 v=95
93610 On ch=1 n=47 v=95
93620 On ch=1 n=50 v=95
93630 On ch=1 n=55 v=95
93640 On ch=1 n=62 v=63
94080 Off ch=1 n=43 v=80
94080 Off ch=1 n=47 v=80
94080 Off ch=1 n=50 v=80
94080 Off ch=1 n=55 v=80
94080 Off ch=1 n=62 v=80
94080 On ch=1 n=43 v=95
94090 On ch=1 n=47 v=95
94100 On ch=1 n=50 v=95
94110 On ch=1 n=55 v=95
94120 On ch=1 n=62 v=63
94560 Off ch=1 n=43 v=80
94560 Off ch=1 n=47 v=80
94560 Off ch=1 n=50 v=80
94560 Off ch=1 n=55 v=80
94560 Off ch=1 n=62 v=80
94560 On ch=1 n=43 v=95
94570 On ch=1 n=47 v=95
94580 On ch=1 n=50 v=95
94590 On ch=1 n=55 v=95
94600 On ch=1 n=62 v=63
95040 Off ch=1 n=43 v=80
95040 Off ch=1 n=47 v=80
95040 Off ch=1 n=50 v=80
95040 Off ch=1 n=55 v=80
95040 Off ch=1 n=62 v=80
95040 On ch=1 n=43 v=95
95050 On ch=1 n=47 v=95
95060 On ch=1 n=50 v=95
95070 On ch=1 n=55 v=95
95080 On ch=1 n=62 v=63
95520 Off ch=1 n=43 v=80
95520 Off ch=1 n=47 v=80
95520 Off ch=1 n=50 v=80
95520 Off ch=1 n=55 v=80
95520 Off ch=1 n=62 v=80
95520 On ch=1 n=43 v=95
95530 On ch=1 n=47 v=95
95540 On ch=1 n=50 v=95
95550 On ch=1 n=55 v=95
95560 On ch=1 n=62 v=63
96000 Off ch=1 n=43 v=80
96000 Off ch=1 n=47 v=80
96000 Off ch=1 n=50 v=80
96000 Off ch=1 n=55 v=80
96000 Off ch=1 n=62 v=80
96000 On ch=1 n=55 v=95
96240 On ch=1 n=55 v=95
96480 On ch=1 n=62 v=95
96720 Off ch=1 n=55 v=80
96720 Off ch=1 n=55 v=80
96720 On ch=1 n=55 v=95
96960 Off ch=1 n=62 v=80
96960 On ch=1 n=55 v=95
97200 On ch=1 n=62 v=95
97680 Off ch=1 n=55 v=80
97680 Off ch=1 n=55 v=80
97680 Off ch=1 n=62 v=80
97920 On ch=1 n=54 v=95
98160 On ch=1 n=55 v=95
98400 On ch=1 n=62 v=95
98640 Off ch=1 n=54 v=80
98640 Off ch=1 n=55 v=80
98640 On ch=1 n=54 v=95
98880 Off ch=1 n=62 v=80
98880 On ch=1 n=55 v=95
99120 On ch=1 n=62 v=95
99600 Off ch=1 n=54 v=80
99600 Off ch=1 n=55 v=80
99600 Off ch=1 n=62 v=80
99840 On ch=1 n=52 v=95
100080 On ch=1 n=55 v=95
100320 On ch=1 n=62 v=95
100560 Off ch=1 n=52 v=80
100560 Off ch=1 n=55 v=80
100560 On ch=1 n=52 v=95
100800 Off ch=1 n=62 v=80
100800 On ch=1 n=55 v=95
101040 On ch=1 n=62 v=95
101520 Off ch=1 n=52 v=80
101520 Off ch=1 n=55 v=80
101520 Off ch=1 n=62 v=80
101760 On ch=1 n=50 v=95
102000 On ch=1 n=55 v=95
102240 On ch=1 n=62 v=95
102480 Off ch=1 n=50 v=80
102480 Off ch=1 n=55 v=80
102480 On ch=1 n=50 v=95
102720 Off ch=1 n=62 v=80
102720 On ch=1 n=55 v=95
102960 On ch=1 n=62 v=95
103440 Off ch=1 n=50 v=80
103440 Off ch=1 n=55 v=80
103440 Off ch=1 n=62 v=80
103680 On ch=1 n=48 v=95
103690 On ch=1 n=55 v=95
103700 On ch=1 n=60 v=95
103710 On ch=1 n=64 v=95
104160 Off ch=1 n=48 v=80
104160 Off ch=1 n=55 v=80
104160 Off ch=1 n=60 v=80
104160 Off ch=1 n=64 v=80
104160 On ch=1 n=48 v=95
104170 On ch=1 n=55 v=95
104180 On ch=1 n=60 v=95
104190 On ch=1 n=64 v=95
104640 Off ch=1 n=48 v=80
104640 Off ch=1 n=55 v=80
104640 Off ch=1 n=60 v=80
104640 Off ch=1 n=64 v=80
104640 On ch=1 n=48 v=95
104650 On ch=1 n=55 v=95
104660 On ch=1 n=60 v=95
104670 On ch=1 n=64 v=95
105120 Off ch=1 n=48 v=80
105120 Off ch=1 n=55 v=80
105120 Off ch=1 n=60 v=80
105120 Off ch=1 n=64 v=80
105120 On ch=1 n=48 v=95
105130 On ch=1 n=55 v=95
105140 On ch=1 n=60 v=95
105150 On ch=1 n=64 v=95
105600 Off ch=1 n=48 v=80
105600 Off ch=1 n=55 v=80
105600 Off ch=1 n=60 v=80
105600 Off ch=1 n=64 v=80
105600 On ch=1 n=48 v=95
105610 On ch=1 n=55 v=95
105620 On ch=1 n=60 v=95
105630 On ch=1 n=63 v=95
106080 Off ch=1 n=48 v=80
106080 Off ch=1 n=55 v=80
106080 Off ch=1 n=60 v=80
106080 Off ch=1 n=63 v=80
106080 On ch=1 n=48 v=95
106090 On ch=1 n=55 v=95
106100 On ch=1 n=60 v=95
106110 On ch=1 n=63 v=95
106560 Off ch=1 n=48 v=80
106560 Off ch=1 n=55 v=80
106560 Off ch=1 n=60 v=80
106560 Off ch=1 n=63 v=80
106560 On ch=1 n=48 v=95
106570 On ch=1 n=55 v=95
106580 On ch=1 n=60 v=95
106590 On ch=1 n=63 v=95
107040 Off ch=1 n=48 v=80
107040 Off ch=1 n=55 v=80
107040 Off ch=1 n=60 v=80
107040 Off ch=1 n=63 v=80
107040 On ch=1 n=48 v=95
107050 On ch=1 n=55 v=95
107060 On ch=1 n=60 v=95
107070 On ch=1 n=63 v=95
107520 Off ch=1 n=48 v=80
107520 Off ch=1 n=55 v=80
107520 Off ch=1 n=60 v=80
107520 Off ch=1 n=63 v=80
107520 On ch=1 n=43 v=95
107530 On ch=1 n=47 v=95
107540 On ch=1 n=50 v=95
107550 On ch=1 n=55 v=95
107560 On ch=1 n=62 v=63
108000 Off ch=1 n=43 v=80
108000 Off ch=1 n=47 v=80
108000 Off ch=1 n=50 v=80
108000 Off ch=1 n=55 v=80
108000 Off ch=1 n=62 v=80
108000 On ch=1 n=43 v=95
108010 On ch=1 n=47 v=95
108020 On ch=1 n=50 v=95
108030 On ch=1 n=55 v=95
108040 On ch=1 n=62 v=63
108480 Off ch=1 n=43 v=80
108480 Off ch=1 n=47 v=80
108480 Off ch=1 n=50 v=80
108480 Off ch=1 n=55 v=80
108480 Off ch=1 n=62 v=80
108480 On ch=1 n=43 v=95
108490 On ch=1 n=47 v=95
108500 On ch=1 n=50 v=95
108510 On ch=1 n=55 v=95
108520 On ch=1 n=62 v=63
108960 Off ch=1 n=43 v=80
108960 Off ch=1 n=47 v=80
108960 Off ch=1 n=50 v=80
108960 Off ch=1 n=55 v=80
108960 Off ch=1 n=62 v=80
108960 On ch=1 n=43 v=95
108970 On ch=1 n=47 v=95
108980 On ch=1 n=50 v=95
108990 On ch=1 n=55 v=95
109000 On ch=1 n=62 v=63
109440 Off ch=1 n=43 v=80
109440 Off ch=1 n=47 v=80
109440 Off ch=1 n=50 v=80
109440 Off ch=1 n=55 v=80
109440 Off ch=1 n=62 v=80
109440 On ch=1 n=43 v=95
109450 On ch=1 n=47 v=95
109460 On ch=1 n=50 v=95
109470 On ch=1 n=55 v=95
109480 On ch=1 n=62 v=63
109920 Off ch=1 n=43 v=80
109920 Off ch=1 n=47 v=80
109920 Off ch=1 n=50 v=80
109920 Off ch=1 n=55 v=80
109920 Off ch=1 n=62 v=80
109920 On ch=1 n=43 v=95
109930 On ch=1 n=47 v=95
109940 On ch=1 n=50 v=95
109950 On ch=1 n=55 v=95
109960 On ch=1 n=62 v=63
110400 Off ch=1 n=43 v=80
110400 Off ch=1 n=47 v=80
110400 Off ch=1 n=50 v=80
110400 Off ch=1 n=55 v=80
110400 Off ch=1 n=62 v=80
110400 On ch=1 n=42 v=95
110410 On ch=1 n=47 v=95
110420 On ch=1 n=50 v=95
110430 On ch=1 n=55 v=95
110440 On ch=1 n=62 v=63
110880 Off ch=1 n=42 v=80
110880 Off ch=1 n=47 v=80
110880 Off ch=1 n=50 v=80
110880 Off ch=1 n=55 v=80
110880 Off ch=1 n=62 v=80
110880 On ch=1 n=42 v=95
110890 On ch=1 n=47 v=95
110900 On ch=1 n=50 v=95
110910 On ch=1 n=55 v=95
110920 On ch=1 n=62 v=63
111360 Off ch=1 n=42 v=80
111360 Off ch=1 n=47 v=80
111360 Off ch=1 n=50 v=80
111360 Off ch=1 n=55 v=80
111360 Off ch=1 n=62 v=80
111360 On ch=1 n=40 v=95
111370 On ch=1 n=47 v=95
111380 On ch=1 n=52 v=95
111390 On ch=1 n=55 v=95
111400 On ch=1 n=59 v=95
111840 Off ch=1 n=40 v=80
111840 Off ch=1 n=47 v=80
111840 Off ch=1 n=52 v=80
111840 Off ch=1 n=55 v=80
111840 Off ch=1 n=59 v=80
111840 On ch=1 n=40 v=95
111850 On ch=1 n=47 v=95
111860 On ch=1 n=52 v=95
111870 On ch=1 n=55 v=95
111880 On ch=1 n=59 v=95
112320 Off ch=1 n=40 v=80
112320 Off ch=1 n=47 v=80
112320 Off ch=1 n=52 v=80
112320 Off ch=1 n=55 v=80
112320 Off ch=1 n=59 v=80
112320 On ch=1 n=40 v=95
112330 On ch=1 n=47 v=95
112340 On ch=1 n=52 v=95
112350 On ch=1 n=55 v=95
112360 On ch=1 n=59 v=95
112800 Off ch=1 n=40 v=80
112800 Off ch=1 n=47 v=80
112800 Off ch=1 n=52 v=80
112800 Off ch=1 n=55 v=80
112800 Off ch=1 n=59 v=80
112800 On ch=1 n=40 v=95
112810 On ch=1 n=47 v=95
112820 On ch=1 n=52 v=95
112830 On ch=1 n=55 v=95
112840 On ch=1 n=59 v=95
113280 Off ch=1 n=40 v=80
113280 Off ch=1 n=47 v=80
113280 Off ch=1 n=52 v=80
113280 Off ch=1 n=55 v=80
113280 Off ch=1 n=59 v=80
113280 On ch=1 n=47 v=95
113290 On ch=1 n=54 v=95
113300 On ch=1 n=59 v=95
113760 Off ch=1 n=47 v=80
113760 Off ch=1 n=54 v=80
113760 Off ch=1 n=59 v=80
113760 On ch=1 n=47 v=95
113770 On ch=1 n=54 v=95
113780 On ch=1 n=59 v=95
114240 Off ch=1 n=47 v=80
114240 Off ch=1 n=54 v=80
114240 Off ch=1 n=59 v=80
114240 On ch=1 n=47 v=95
114250 On ch=1 n=54 v=95
114260 On ch=1 n=59 v=95
114720 Off ch=1 n=47 v=80
114720 Off ch=1 n=54 v=80
114720 Off ch=1 n=59 v=80
114720 On ch=1 n=47 v=95
114730 On ch=1 n=54 v=95
114740 On ch=1 n=59 v=95
115200 Off ch=1 n=47 v=80
115200 Off ch=1 n=54 v=80
115200 Off ch=1 n=59 v=80
115200 On ch=1 n=48 v=95
115210 On ch=1 n=55 v=95
115220 On ch=1 n=60 v=95
115680 Off ch=1 n=48 v=80
115680 Off ch=1 n=55 v=80
115680 Off ch=1 n=60 v=80
115680 On ch=1 n=48 v=95
115690 On ch=1 n=55 v=95
115700 On ch=1 n=60 v=95
116160 Off ch=1 n=48 v=80
116160 Off ch=1 n=55 v=80
116160 Off ch=1 n=60 v=80
116160 On ch=1 n=48 v=95
116170 On ch=1 n=55 v=95
116180 On ch=1 n=60 v=95
116640 Off ch=1 n=48 v=80
116640 Off ch=1 n=55 v=80
116640 Off ch=1 n=60 v=80
116640 On ch=1 n=48 v=95
116650 On ch=1 n=55 v=95
116660 On ch=1 n=60 v=95
117120 Off ch=1 n=48 v=80
117120 Off ch=1 n=55 v=80
117120 Off ch=1 n=60 v=80
117120 On ch=1 n=43 v=95
117130 On ch=1 n=47 v=95
117140 On ch=1 n=50 v=95
117150 On ch=1 n=55 v=95
117160 On ch=1 n=62 v=63
117600 Off ch=1 n=43 v=80
117600 Off ch=1 n=47 v=80
117600 Off ch=1 n=50 v=80
117600 Off ch=1 n=55 v=80
117600 Off ch=1 n=62 v=80
117600 On ch=1 n=43 v=95
117610 On ch=1 n=47 v=95
117620 On ch=1 n=50 v=95
117630 On ch=1 n=55 v=95
117640 On ch=1 n=62 v=63
118080 Off ch=1 n=43 v=80
118080 Off ch=1 n=47 v=80
118080 Off ch=1 n=50 v=80
118080 Off ch=1 n=55 v=80
118080 Off ch=1 n=62 v=80
118080 On ch=1 n=42 v=95
118090 On ch=1 n=47 v=95
118100 On ch=1 n=50 v=95
118110 On ch=1 n=55 v=95
118120 On ch=1 n=62 v=63
118560 Off ch=1 n=42 v=80
118560 Off ch=1 n=47 v=80
118560 Off ch=1 n=50 v=80
118560 Off ch=1 n=55 v=80
118560 Off ch=1 n=62 v=80
118560 On ch=1 n=42 v=95
118570 On ch=1 n=47 v=95
118580 On ch=1 n=50 v=95
118590 On ch=1 n=55 v=95
118600 On ch=1 n=62 v=63
119040 Off ch=1 n=42 v=80
119040 Off ch=1 n=47 v=80
119040 Off ch=1 n=50 v=80
119040 Off ch=1 n=55 v=80
119040 Off ch=1 n=62 v=80
119040 On ch=1 n=40 v=95
119050 On ch=1 n=47 v=95
119060 On ch=1 n=52 v=95
119070 On ch=1 n=55 v=95
119080 On ch=1 n=59 v=95
119520 Off ch=1 n=40 v=80
119520 Off ch=1 n=47 v=80
119520 Off ch=1 n=52 v=80
119520 Off ch=1 n=55 v=80
119520 Off ch=1 n=59 v=80
119520 On ch=1 n=40 v=95
119530 On ch=1 n=47 v=95
119540 On ch=1 n=52 v=95
119550 On ch=1 n=55 v=95
119560 On ch=1 n=59 v=95
120000 Off ch=1 n=40 v=80
120000 Off ch=1 n=47 v=80
120000 Off ch=1 n=52 v=80
120000 Off ch=1 n=55 v=80
120000 Off ch=1 n=59 v=80
120000 On ch=1 n=40 v=95
120010 On ch=1 n=47 v=95
120020 On ch=1 n=52 v=95
120030 On ch=1 n=55 v=95
120040 On ch=1 n=59 v=95
120480 Off ch=1 n=40 v=80
120480 Off ch=1 n=47 v=80
120480 Off ch=1 n=52 v=80
120480 Off ch=1 n=55 v=80
120480 Off ch=1 n=59 v=80
120480 On ch=1 n=40 v=95
120490 On ch=1 n=47 v=95
120500 On ch=1 n=52 v=95
120510 On ch=1 n=55 v=95
120520 On ch=1 n=59 v=95
120960 Off ch=1 n=40 v=80
120960 Off ch=1 n=47 v=80
120960 Off ch=1 n=52 v=80
120960 Off ch=1 n=55 v=80
120960 Off ch=1 n=59 v=80
120960 On ch=1 n=47 v=95
120970 On ch=1 n=54 v=95
120980 On ch=1 n=59 v=95
121440 Off ch=1 n=47 v=80
121440 Off ch=1 n=54 v=80
121440 Off ch=1 n=59 v=80
121440 On ch=1 n=47 v=95
121450 On ch=1 n=54 v=95
121460 On ch=1 n=59 v=95
121920 Off ch=1 n=47 v=80
121920 Off ch=1 n=54 v=80
121920 Off ch=1 n=59 v=80
121920 On ch=1 n=47 v=95
121930 On ch=1 n=54 v=95
121940 On ch=1 n=59 v=95
122400 Off ch=1 n=47 v=80
122400 Off ch=1 n=54 v=80
122400 Off ch=1 n=59 v=80
122400 On ch=1 n=47 v=95
122410 On ch=1 n=54 v=95
122420 On ch=1 n=59 v=95
122880 Off ch=1 n=47 v=80
122880 Off ch=1 n=54 v=80
122880 Off ch=1 n=59 v=80
122880 On ch=1 n=48 v=95
122890 On ch=1 n=55 v=95
122900 On ch=1 n=60 v=95
123360 Off ch=1 n=48 v=80
123360 Off ch=1 n=55 v=80
123360 Off ch=1 n=60 v=80
123360 On ch=1 n=48 v=95
123370 On ch=1 n=55 v=95
123380 On ch=1 n=60 v=95
123840 Off ch=1 n=48 v=80
123840 Off ch=1 n=55 v=80
123840 Off ch=1 n=60 v=80
123840 On ch=1 n=48 v=95
123850 On ch=1 n=55 v=95
123860 On ch=1 n=60 v=95
124320 Off ch=1 n=48 v=80
124320 Off ch=1 n=55 v=80
124320 Off ch=1 n=60 v=80
124320 On ch=1 n=48 v=95
124330 On ch=1 n=55 v=95
124340 On ch=1 n=60 v=95
124800 Off ch=1 n=48 v=80
124800 Off ch=1 n=55 v=80
124800 Off ch=1 n=60 v=80
124800 On ch=1 n=50 v=95
124810 On ch=1 n=55 v=95
124820 On ch=1 n=62 v=95
124830 On ch=1 n=66 v=95
125280 Off ch=1 n=50 v=80
125280 Off ch=1 n=55 v=80
125280 Off ch=1 n=62 v=80
125280 Off ch=1 n=66 v=80
125280 On ch=1 n=50 v=95
125290 On ch=1 n=55 v=95
125300 On ch=1 n=62 v=95
125310 On ch=1 n=66 v=95
125760 Off ch=1 n=50 v=80
125760 Off ch=1 n=55 v=80
125760 Off ch=1 n=62 v=80
125760 Off ch=1 n=66 v=80
125760 On ch=1 n=50 v=95
125770 On ch=1 n=55 v=95
125780 On ch=1 n=62 v=95
125790 On ch=1 n=66 v=95
126240 Off ch=1 n=50 v=80
126240 Off ch=1 n=55 v=80
126240 Off ch=1 n=62 v=80
126240 Off ch=1 n=66 v=80
126240 On ch=1 n=50 v=95
126250 On ch=1 n=55 v=95
126260 On ch=1 n=62 v=95
126270 On ch=1 n=66 v=95
126720 Off ch=1 n=50 v=80
126720 Off ch=1 n=55 v=80
126720 Off ch=1 n=62 v=80
126720 Off ch=1 n=66 v=80
126720 On ch=1 n=55 v=95
126960 On ch=1 n=55 v=95
127200 On ch=1 n=62 v=95
127440 Off ch=1 n=55 v=80
127440 Off ch=1 n=55 v=80
127440 On ch=1 n=55 v=95
127680 Off ch=1 n=62 v=80
127680 On ch=1 n=55 v=95
127920 On ch=1 n=62 v=95
128400 Off ch=1 n=55 v=80
128400 Off ch=1 n=55 v=80
128400 Off ch=1 n=62 v=80
128640 On ch=1 n=54 v=95
128880 On ch=1 n=55 v=95
129120 On ch=1 n=62 v=95
129360 Off ch=1 n=54 v=80
129360 Off ch=1 n=55 v=80
129360 On ch=1 n=54 v=95
129600 Off ch=1 n=62 v=80
129600 On ch=1 n=55 v=95
129840 On ch=1 n=62 v=95
130320 Off ch=1 n=54 v=80
130320 Off ch=1 n=55 v=80
130320 Off ch=1 n=62 v=80
130560 On ch=1 n=52 v=95
130800 On ch=1 n=55 v=95
131040 On ch=1 n=62 v=95
131280 Off ch=1 n=52 v=80
131280 Off ch=1 n=55 v=80
131280 On ch=1 n=52 v=95
131520 Off ch=1 n=62 v=80
131520 On ch=1 n=55 v=95
131760 On ch=1 n=62 v=95
132240 Off ch=1 n=52 v=80
132240 Off ch=1 n=55 v=80
132240 Off ch=1 n=62 v=80
132480 On ch=1 n=50 v=95
132720 On ch=1 n=55 v=95
132960 On ch=1 n=62 v=95
133200 Off ch=1 n=50 v=80
133200 Off ch=1 n=55 v=80
133200 On ch=1 n=50 v=95
133440 Off ch=1 n=62 v=80
133440 On ch=1 n=55 v=95
133680 On ch=1 n=62 v=95
134160 Off ch=1 n=50 v=80
134160 Off ch=1 n=55 v=80
134160 Off ch=1 n=62 v=80
134400 On ch=1 n=48 v=95
134410 On ch=1 n=55 v=95
134420 On ch=1 n=60 v=95
134430 On ch=1 n=64 v=95
134880 Off ch=1 n=48 v=80
134880 Off ch=1 n=55 v=80
134880 Off ch=1 n=60 v=80
134880 Off ch=1 n=64 v=80
134880 On ch=1 n=48 v=95
134890 On ch=1 n=55 v=95
134900 On ch=1 n=60 v=95
134910 On ch=1 n=64 v=95
135360 Off ch=1 n=48 v=80
135360 Off ch=1 n=55 v=80
135360 Off ch=1 n=60 v=80
135360 Off ch=1 n=64 v=80
135360 On ch=1 n=48 v=95
135370 On ch=1 n=55 v=95
135380 On ch=1 n=60 v=95
135390 On ch=1 n=64 v=95
135840 Off ch=1 n=48 v=80
135840 Off ch=1 n=55 v=80
135840 Off ch=1 n=60 v=80
135840 Off ch=1 n=64 v=80
135840 On ch=1 n=48 v=95
135850 On ch=1 n=55 v=95
135860 On ch=1 n=60 v=95
135870 On ch=1 n=64 v=95
136320 Off ch=1 n=48 v=80
136320 Off ch=1 n=55 v=80
136320 Off ch=1 n=60 v=80
136320 Off ch=1 n=64 v=80
136320 On ch=1 n=48 v=95
136330 On ch=1 n=55 v=95
136340 On ch=1 n=60 v=95
136350 On ch=1 n=63 v=95
136800 Off ch=1 n=48 v=80
136800 Off ch=1 n=55 v=80
136800 Off ch=1 n=60 v=80
136800 Off ch=1 n=63 v=80
136800 On ch=1 n=48 v=95
136810 On ch=1 n=55 v=95
136820 On ch=1 n=60 v=95
136830 On ch=1 n=63 v=95
137280 Off ch=1 n=48 v=80
137280 Off ch=1 n=55 v=80
137280 Off ch=1 n=60 v=80
137280 Off ch=1 n=63 v=80
137280 On ch=1 n=48 v=95
137290 On ch=1 n=55 v=95
137300 On ch=1 n=60 v=95
137310 On ch=1 n=63 v=95
137760 Off ch=1 n=48 v=80
137760 Off ch=1 n=55 v=80
137760 Off ch=1 n=60 v=80
137760 Off ch=1 n=63 v=80
137760 On ch=1 n=48 v=95
137770 On ch=1 n=55 v=95
137780 On ch=1 n=60 v=95
137790 On ch=1 n=63 v=95
138240 Off ch=1 n=48 v=80
138240 Off ch=1 n=55 v=80
138240 Off ch=1 n=60 v=80
138240 Off ch=1 n=63 v=80
138240 On ch=1 n=43 v=95
138250 On ch=1 n=47 v=95
138260 On ch=1 n=50 v=95
138270 On ch=1 n=55 v=95
138280 On ch=1 n=62 v=63
138720 Off ch=1 n=43 v=80
138720 Off ch=1 n=47 v=80
138720 Off ch=1 n=50 v=80
138720 Off ch=1 n=55 v=80
138720 Off ch=1 n=62 v=80
138720 On ch=1 n=43 v=95
138730 On ch=1 n=47 v=95
138740 On ch=1 n=50 v=95
138750 On ch=1 n=55 v=95
138760 On ch=1 n=62 v=63
139200 Off ch=1 n=43 v=80
139200 Off ch=1 n=47 v=80
139200 Off ch=1 n=50 v=80
139200 Off ch=1 n=55 v=80
139200 Off ch=1 n=62 v=80
139200 On ch=1 n=43 v=95
139210 On ch=1 n=47 v=95
139220 On ch=1 n=50 v=95
139230 On ch=1 n=55 v=95
139240 On ch=1 n=62 v=63
139680 Off ch=1 n=43 v=80
139680 Off ch=1 n=47 v=80
139680 Off ch=1 n=50 v=80
139680 Off ch=1 n=55 v=80
139680 Off ch=1 n=62 v=80
139680 On ch=1 n=43 v=95
139690 On ch=1 n=47 v=95
139700 On ch=1 n=50 v=95
139710 On ch=1 n=55 v=95
139720 On ch=1 n=62 v=63
140160 Off ch=1 n=43 v=80
140160 Off ch=1 n=47 v=80
140160 Off ch=1 n=50 v=80
140160 Off ch=1 n=55 v=80
140160 Off ch=1 n=62 v=80
140160 On ch=1 n=43 v=95
140170 On ch=1 n=47 v=95
140180 On ch=1 n=50 v=95
140190 On ch=1 n=55 v=95
140200 On ch=1 n=62 v=63
140640 Off ch=1 n=43 v=80
140640 Off ch=1 n=47 v=80
140640 Off ch=1 n=50 v=80
140640 Off ch=1 n=55 v=80
140640 Off ch=1 n=62 v=80
140640 On ch=1 n=43 v=95
140650 On ch=1 n=47 v=95
140660 On ch=1 n=50 v=95
140670 On ch=1 n=55 v=95
140680 On ch=1 n=62 v=63
141120 Off ch=1 n=43 v=80
141120 Off ch=1 n=47 v=80
141120 Off ch=1 n=50 v=80
141120 Off ch=1 n=55 v=80
141120 Off ch=1 n=62 v=80
141120 On ch=1 n=42 v=95
141130 On ch=1 n=47 v=95
141140 On ch=1 n=50 v=95
141150 On ch=1 n=55 v=95
141160 On ch=1 n=62 v=63
141600 Off ch=1 n=42 v=80
141600 Off ch=1 n=47 v=80
141600 Off ch=1 n=50 v=80
141600 Off ch=1 n=55 v=80
141600 Off ch=1 n=62 v=80
141600 On ch=1 n=42 v=95
141610 On ch=1 n=47 v=95
141620 On ch=1 n=50 v=95
141630 On ch=1 n=55 v=95
141640 On ch=1 n=62 v=63
142080 Off ch=1 n=42 v=80
142080 Off ch=1 n=47 v=80
142080 Off ch=1 n=50 v=80
142080 Off ch=1 n=55 v=80
142080 Off ch=1 n=62 v=80
142080 On ch=1 n=40 v=95
142090 On ch=1 n=47 v=95
142100 On ch=1 n=52 v=95
142110 On ch=1 n=55 v=95
142120 On ch=1 n=59 v=95
142560 Off ch=1 n=40 v=80
142560 Off ch=1 n=47 v=80
142560 Off ch=1 n=52 v=80
142560 Off ch=1 n=55 v=80
142560 Off ch=1 n=59 v=80
142560 On ch=1 n=40 v=95
142570 On ch=1 n=47 v=95
142580 On ch=1 n=52 v=95
142590 On ch=1 n=55 v=95
142600 On ch=1 n=59 v=95
143040 Off ch=1 n=40 v=80
143040 Off ch=1 n=47 v=80
143040 Off ch=1 n=52 v=80
143040 Off ch=1 n=55 v=80
143040 Off ch=1 n=59 v=80
143040 On ch=1 n=40 v=95
143050 On ch=1 n=47 v=95
143060 On ch=1 n=52 v=95
143070 On ch=1 n=55 v=95
143080 On ch=1 n=59 v=95
143520 Off ch=1 n=40 v=80
143520 Off ch=1 n=47 v=80
143520 Off ch=1 n=52 v=80
143520 Off ch=1 n=55 v=80
143520 Off ch=1 n=59 v=80
143520 On ch=1 n=40 v=95
143530 On ch=1 n=47 v=95
143540 On ch=1 n=52 v=95
143550 On ch=1 n=55 v=95
143560 On ch=1 n=59 v=95
144000 Off ch=1 n=40 v=80
144000 Off ch=1 n=47 v=80
144000 Off ch=1 n=52 v=80
144000 Off ch=1 n=55 v=80
144000 Off ch=1 n=59 v=80
144000 On ch=1 n=47 v=95
144010 On ch=1 n=54 v=95
144020 On ch=1 n=59 v=95
144480 Off ch=1 n=47 v=80
144480 Off ch=1 n=54 v=80
144480 Off ch=1 n=59 v=80
144480 On ch=1 n=47 v=95
144490 On ch=1 n=54 v=95
144500 On ch=1 n=59 v=95
144960 Off ch=1 n=47 v=80
144960 Off ch=1 n=54 v=80
144960 Off ch=1 n=59 v=80
144960 On ch=1 n=47 v=95
144970 On ch=1 n=54 v=95
144980 On ch=1 n=59 v=95
145440 Off ch=1 n=47 v=80
145440 Off ch=1 n=54 v=80
145440 Off ch=1 n=59 v=80
145440 On ch=1 n=47 v=95
145450 On ch=1 n=54 v=95
145460 On ch=1 n=59 v=95
145920 Off ch=1 n=47 v=80
145920 Off ch=1 n=54 v=80
145920 Off ch=1 n=59 v=80
145920 On ch=1 n=48 v=95
145930 On ch=1 n=55 v=95
145940 On ch=1 n=60 v=95
146400 Off ch=1 n=48 v=80
146400 Off ch=1 n=55 v=80
146400 Off ch=1 n=60 v=80
146400 On ch=1 n=48 v=95
146410 On ch=1 n=55 v=95
146420 On ch=1 n=60 v=95
146880 Off ch=1 n=48 v=80
146880 Off ch=1 n=55 v=80
146880 Off ch=1 n=60 v=80
146880 On ch=1 n=48 v=95
146890 On ch=1 n=55 v=95
146900 On ch=1 n=60 v=95
147360 Off ch=1 n=48 v=80
147360 Off ch=1 n=55 v=80
147360 Off ch=1 n=60 v=80
147360 On ch=1 n=48 v=95
147370 On ch=1 n=55 v=95
147380 On ch=1 n=60 v=95
147840 Off ch=1 n=48 v=80
147840 Off ch=1 n=55 v=80
147840 Off ch=1 n=60 v=80
147840 On ch=1 n=43 v=95
147850 On ch=1 n=47 v=95
147860 On ch=1 n=50 v=95
147870 On ch=1 n=55 v=95
147880 On ch=1 n=62 v=63
148320 Off ch=1 n=43 v=80
148320 Off ch=1 n=47 v=80
148320 Off ch=1 n=50 v=80
148320 Off ch=1 n=55 v=80
148320 Off ch=1 n=62 v=80
148320 On ch=1 n=43 v=95
148330 On ch=1 n=47 v=95
148340 On ch=1 n=50 v=95
148350 On ch=1 n=55 v=95
148360 On ch=1 n=62 v=63
148800 Off ch=1 n=43 v=80
148800 Off ch=1 n=47 v=80
148800 Off ch=1 n=50 v=80
148800 Off ch=1 n=55 v=80
148800 Off ch=1 n=62 v=80
148800 On ch=1 n=42 v=95
148810 On ch=1 n=47 v=95
148820 On ch=1 n=50 v=95
148830 On ch=1 n=55 v=95
148840 On ch=1 n=62 v=63
149280 Off ch=1 n=42 v=80
149280 Off ch=1 n=47 v=80
149280 Off ch=1 n=50 v=80
149280 Off ch=1 n=55 v=80
149280 Off ch=1 n=62 v=80
149280 On ch=1 n=42 v=95
149290 On ch=1 n=47 v=95
149300 On ch=1 n=50 v=95
149310 On ch=1 n=55 v=95
149320 On ch=1 n=62 v=63
149760 Off ch=1 n=42 v=80
149760 Off ch=1 n=47 v=80
149760 Off ch=1 n=50 v=80
149760 Off ch=1 n=55 v=80
149760 Off ch=1 n=62 v=80
149760 On ch=1 n=40 v=95
149770 On ch=1 n=47 v=95
149780 On ch=1 n=52 v=95
149790 On ch=1 n=55 v=95
149800 On ch=1 n=59 v=95
150240 Off ch=1 n=40 v=80
150240 Off ch=1 n=47 v=80
150240 Off ch=1 n=52 v=80
150240 Off ch=1 n=55 v=80
150240 Off ch=1 n=59 v=80
150240 On ch=1 n=40 v=95
150250 On ch=1 n=47 v=95
150260 On ch=1 n=52 v=95
150270 On ch=1 n=55 v=95
150280 On ch=1 n=59 v=95
150720 Off ch=1 n=40 v=80
150720 Off ch=1 n=47 v=80
150720 Off ch=1 n=52 v=80
150720 Off ch=1 n=55 v=80
150720 Off ch=1 n=59 v=80
150720 On ch=1 n=40 v=95
150730 On ch=1 n=47 v=95
150740 On ch=1 n=52 v=95
150750 On ch=1 n=55 v=95
150760 On ch=1 n=59 v=95
151200 Off ch=1 n=40 v=80
151200 Off ch=1 n=47 v=80
151200 Off ch=1 n=52 v=80
151200 Off ch=1 n=55 v=80
151200 Off ch=1 n=59 v=80
151200 On ch=1 n=40 v=95
151210 On ch=1 n=47 v=95
151220 On ch=1 n=52 v=95
151230 On ch=1 n=55 v=95
151240 On ch=1 n=59 v=95
151680 Off ch=1 n=40 v=80
151680 Off ch=1 n=47 v=80
151680 Off ch=1 n=52 v=80
151680 Off ch=1 n=55 v=80
151680 Off ch=1 n=59 v=80
151680 On ch=1 n=47 v=95
151690 On ch=1 n=54 v=95
151700 On ch=1 n=59 v=95
152160 Off ch=1 n=47 v=80
152160 Off ch=1 n=54 v=80
152160 Off ch=1 n=59 v=80
152160 On ch=1 n=47 v=95
152170 On ch=1 n=54 v=95
152180 On ch=1 n=59 v=95
152640 Off ch=1 n=47 v=80
152640 Off ch=1 n=54 v=80
152640 Off ch=1 n=59 v=80
152640 On ch=1 n=47 v=95
152650 On ch=1 n=54 v=95
152660 On ch=1 n=59 v=95
153120 Off ch=1 n=47 v=80
153120 Off ch=1 n=54 v=80
153120 Off ch=1 n=59 v=80
153120 On ch=1 n=47 v=95
153130 On ch=1 n=54 v=95
153140 On ch=1 n=59 v=95
153600 Off ch=1 n=47 v=80
153600 Off ch=1 n=54 v=80
153600 Off ch=1 n=59 v=80
153600 On ch=1 n=48 v=95
153610 On ch=1 n=55 v=95
153620 On ch=1 n=60 v=95
154080 Off ch=1 n=48 v=80
154080 Off ch=1 n=55 v=80
154080 Off ch=1 n=60 v=80
154080 On ch=1 n=48 v=95
154090 On ch=1 n=55 v=95
154100 On ch=1 n=60 v=95
154560 Off ch=1 n=48 v=80
154560 Off ch=1 n=55 v=80
154560 Off ch=1 n=60 v=80
154560 On ch=1 n=48 v=95
154570 On ch=1 n=55 v=95
154580 On ch=1 n=60 v=95
155040 Off ch=1 n=48 v=80
155040 Off ch=1 n=55 v=80
155040 Off ch=1 n=60 v=80
155040 On ch=1 n=48 v=95
155050 On ch=1 n=55 v=95
155060 On ch=1 n=60 v=95
155520 Off ch=1 n=48 v=80
155520 Off ch=1 n=55 v=80
155520 Off ch=1 n=60 v=80
155520 On ch=1 n=50 v=95
155530 On ch=1 n=55 v=95
155540 On ch=1 n=62 v=95
155550 On ch=1 n=66 v=95
156000 Off ch=1 n=50 v=80
156000 Off ch=1 n=55 v=80
156000 Off ch=1 n=62 v=80
156000 Off ch=1 n=66 v=80
156000 On ch=1 n=50 v=95
156010 On ch=1 n=55 v=95
156020 On ch=1 n=62 v=95
156030 On ch=1 n=66 v=95
156480 Off ch=1 n=50 v=80
156480 Off ch=1 n=55 v=80
156480 Off ch=1 n=62 v=80
156480 Off ch=1 n=66 v=80
156480 On ch=1 n=50 v=95
156490 On ch=1 n=55 v=95
156500 On ch=1 n=62 v=95
156510 On ch=1 n=66 v=95
156960 Off ch=1 n=50 v=80
156960 Off ch=1 n=55 v=80
156960 Off ch=1 n=62 v=80
156960 Off ch=1 n=66 v=80
156960 On ch=1 n=50 v=95
156970 On ch=1 n=55 v=95
156980 On ch=1 n=62 v=95
156990 On ch=1 n=66 v=95
157440 Off ch=1 n=50 v=80
157440 Off ch=1 n=55 v=80
157440 Off ch=1 n=62 v=80
157440 Off ch=1 n=66 v=80
157440 On ch=1 n=50 v=95
157450 On ch=1 n=55 v=95
157460 On ch=1 n=62 v=95
157470 On ch=1 n=66 v=95
157920 Off ch=1 n=50 v=80
157920 Off ch=1 n=55 v=80
157920 Off ch=1 n=62 v=80
157920 Off ch=1 n=66 v=80
157920 On ch=1 n=50 v=95
157930 On ch=1 n=55 v=95
157940 On ch=1 n=62 v=95
157950 On ch=1 n=66 v=95
158400 Off ch=1 n=50 v=80
158400 Off ch=1 n=55 v=80
158400 Off ch=1 n=62 v=80
158400 Off ch=1 n=66 v=80
158400 On ch=1 n=50 v=95
158410 On ch=1 n=55 v=95
158420 On ch=1 n=62 v=95
158430 On ch=1 n=66 v=95
158880 Off ch=1 n=50 v=80
158880 Off ch=1 n=55 v=80
158880 Off ch=1 n=62 v=80
158880 Off ch=1 n=66 v=80
158880 On ch=1 n=50 v=95
158890 On ch=1 n=55 v=95
158900 On ch=1 n=62 v=95
158910 On ch=1 n=66 v=95
159360 Off ch=1 n=50 v=80
159360 Off ch=1 n=55 v=80
159360 Off ch=1 n=62 v=80
159360 Off ch=1 n=66 v=80
159360 On ch=1 n=50 v=95
159370 On ch=1 n=55 v=95
159380 On ch=1 n=62 v=95
159390 On ch=1 n=66 v=95
159840 Off ch=1 n=50 v=80
159840 Off ch=1 n=55 v=80
159840 Off ch=1 n=62 v=80
159840 Off ch=1 n=66 v=80
159840 On ch=1 n=50 v=95
159850 On ch=1 n=55 v=95
159860 On ch=1 n=62 v=95
159870 On ch=1 n=66 v=95
160320 Off ch=1 n=50 v=80
160320 Off ch=1 n=55 v=80
160320 Off ch=1 n=62 v=80
160320 Off ch=1 n=66 v=80
160320 On ch=1 n=50 v=95
160330 On ch=1 n=55 v=95
160340 On ch=1 n=62 v=95
160350 On ch=1 n=66 v=95
160800 Off ch=1 n=50 v=80
160800 Off ch=1 n=55 v=80
160800 Off ch=1 n=62 v=80
160800 Off ch=1 n=66 v=80
160800 On ch=1 n=50 v=95
160810 On ch=1 n=55 v=95
160820 On ch=1 n=62 v=95
160830 On ch=1 n=66 v=95
161280 Off ch=1 n=50 v=80
161280 Off ch=1 n=55 v=80
161280 Off ch=1 n=62 v=80
161280 Off ch=1 n=66 v=80
161280 On ch=1 n=50 v=95
161290 On ch=1 n=55 v=95
161300 On ch=1 n=62 v=95
161310 On ch=1 n=66 v=95
161760 Off ch=1 n=50 v=80
161760 Off ch=1 n=55 v=80
161760 Off ch=1 n=62 v=80
161760 Off ch=1 n=66 v=80
161760 On ch=1 n=50 v=95
161770 On ch=1 n=55 v=95
161780 On ch=1 n=62 v=95
161790 On ch=1 n=66 v=95
162240 Off ch=1 n=50 v=80
162240 Off ch=1 n=55 v=80
162240 Off ch=1 n=62 v=80
162240 Off ch=1 n=66 v=80
162240 On ch=1 n=50 v=95
162250 On ch=1 n=55 v=95
162260 On ch=1 n=62 v=95
162270 On ch=1 n=66 v=95
162720 Off ch=1 n=50 v=80
162720 Off ch=1 n=55 v=80
162720 Off ch=1 n=62 v=80
162720 Off ch=1 n=66 v=80
162720 On ch=1 n=50 v=95
162730 On ch=1 n=55 v=95
162740 On ch=1 n=62 v=95
162750 On ch=1 n=66 v=95
163200 Off ch=1 n=50 v=80
163200 Off ch=1 n=55 v=80
163200 Off ch=1 n=62 v=80
163200 Off ch=1 n=66 v=80
163200 On ch=1 n=55 v=95
163440 On ch=1 n=55 v=95
163680 On ch=1 n=62 v=95
163920 Off ch=1 n=55 v=80
163920 Off ch=1 n=55 v=80
163920 On ch=1 n=55 v=95
164160 Off ch=1 n=62 v=80
164160 On ch=1 n=55 v=95
164400 On ch=1 n=62 v=95
164880 Off ch=1 n=55 v=80
164880 Off ch=1 n=55 v=80
164880 Off ch=1 n=62 v=80
165120 On ch=1 n=55 v=95
165360 On ch=1 n=55 v=95
165600 On ch=1 n=62 v=95
165840 Off ch=1 n=55 v=80
165840 Off ch=1 n=55 v=80
165840 On ch=1 n=55 v=95
166080 Off ch=1 n=62 v=80
166080 On ch=1 n=55 v=95
166320 On ch=1 n=62 v=95
166800 Off ch=1 n=55 v=80
166800 Off ch=1 n=55 v=80
166800 Off ch=1 n=62 v=80
167040 On ch=1 n=55 v=95
167280 On ch=1 n=55 v=95
167520 On ch=1 n=62 v=95
167760 Off ch=1 n=55 v=80
167760 Off ch=1 n=55 v=80
167760 On ch=1 n=55 v=95
168000 Off ch=1 n=62 v=80
168000 On ch=1 n=55 v=95
168240 On ch=1 n=62 v=95
168720 Off ch=1 n=55 v=80
168720 Off ch=1 n=55 v=80
168720 Off ch=1 n=62 v=80
168960 On ch=1 n=55 v=95
169200 On ch=1 n=55 v=95
169440 On ch=1 n=62 v=95
169680 Off ch=1 n=55 v=80
169680 Off ch=1 n=55 v=80
169680 On ch=1 n=55 v=95
169920 Off ch=1 n=62 v=80
169920 On ch=1 n=55 v=95
170160 On ch=1 n=62 v=95
170640 Off ch=1 n=55 v=80
170640 Off ch=1 n=55 v=80
170640 Off ch=1 n=62 v=80
170880 On ch=1 n=55 v=95
171120 On ch=1 n=55 v=95
171360 On ch=1 n=62 v=95
171600 Off ch=1 n=55 v=80
171600 Off ch=1 n=55 v=80
171600 On ch=1 n=55 v=95
171840 Off ch=1 n=62 v=80
171840 On ch=1 n=55 v=95
172080 On ch=1 n=62 v=95
172560 Off ch=1 n=55 v=80
172560 Off ch=1 n=55 v=80
172560 Off ch=1 n=62 v=80
172800 On ch=1 n=54 v=95
173040 On ch=1 n=55 v=95
173280 On ch=1 n=62 v=95
173520 Off ch=1 n=54 v=80
173520 Off ch=1 n=55 v=80
173520 On ch=1 n=54 v=95
173760 Off ch=1 n=62 v=80
173760 On ch=1 n=55 v=95
174000 On ch=1 n=62 v=95
174480 Off ch=1 n=54 v=80
174480 Off ch=1 n=55 v=80
174480 Off ch=1 n=62 v=80
174720 On ch=1 n=52 v=95
174960 On ch=1 n=55 v=95
175200 On ch=1 n=62 v=95
175440 Off ch=1 n=52 v=80
175440 Off ch=1 n=55 v=80
175440 On ch=1 n=52 v=95
175680 Off ch=1 n=62 v=80
175680 On ch=1 n=55 v=95
175920 On ch=1 n=62 v=95
176400 Off ch=1 n=52 v=80
176400 Off ch=1 n=55 v=80
176400 Off ch=1 n=62 v=80
176640 On ch=1 n=50 v=95
176880 On ch=1 n=55 v=95
177120 On ch=1 n=62 v=95
177360 Off ch=1 n=50 v=80
177360 Off ch=1 n=55 v=80
177360 On ch=1 n=50 v=95
177600 Off ch=1 n=62 v=80
177600 On ch=1 n=55 v=95
177840 On ch=1 n=62 v=95
178320 Off ch=1 n=50 v=80
178320 Off ch=1 n=55 v=80
178320 Off ch=1 n=62 v=80
178560 On ch=1 n=48 v=95
178570 On ch=1 n=55 v=95
178580 On ch=1 n=60 v=95
178590 On ch=1 n=64 v=95
179040 Off ch=1 n=48 v=80
179040 Off ch=1 n=55 v=80
179040 Off ch=1 n=60 v=80
179040 Off ch=1 n=64 v=80
179040 On ch=1 n=48 v=95
179050 On ch=1 n=55 v=95
179060 On ch=1 n=60 v=95
179070 On ch=1 n=64 v=95
179520 Off ch=1 n=48 v=80
179520 Off ch=1 n=55 v=80
179520 Off ch=1 n=60 v=80
179520 Off ch=1 n=64 v=80
179520 On ch=1 n=48 v=95
179530 On ch=1 n=55 v=95
179540 On ch=1 n=60 v=95
179550 On ch=1 n=64 v=95
180000 Off ch=1 n=48 v=80
180000 Off ch=1 n=55 v=80
180000 Off ch=1 n=60 v=80
180000 Off ch=1 n=64 v=80
180000 On ch=1 n=48 v=95
180010 On ch=1 n=55 v=95
180020 On ch=1 n=60 v=95
180030 On ch=1 n=64 v=95
180480 Off ch=1 n=48 v=80
180480 Off ch=1 n=55 v=80
180480 Off ch=1 n=60 v=80
180480 Off ch=1 n=64 v=80
180480 On ch=1 n=48 v=95
180490 On ch=1 n=55 v=95
180500 On ch=1 n=60 v=95
180510 On ch=1 n=63 v=95
180960 Off ch=1 n=48 v=80
180960 Off ch=1 n=55 v=80
180960 Off ch=1 n=60 v=80
180960 Off ch=1 n=63 v=80
180960 On ch=1 n=48 v=95
180970 On ch=1 n=55 v=95
180980 On ch=1 n=60 v=95
180990 On ch=1 n=63 v=95
181440 Off ch=1 n=48 v=80
181440 Off ch=1 n=55 v=80
181440 Off ch=1 n=60 v=80
181440 Off ch=1 n=63 v=80
181440 On ch=1 n=48 v=95
181450 On ch=1 n=55 v=95
181460 On ch=1 n=60 v=95
181470 On ch=1 n=63 v=95
181920 Off ch=1 n=48 v=80
181920 Off ch=1 n=55 v=80
181920 Off ch=1 n=60 v=80
181920 Off ch=1 n=63 v=80
181920 On ch=1 n=48 v=95
181930 On ch=1 n=55 v=95
181940 On ch=1 n=60 v=95
181950 On ch=1 n=63 v=95
182400 Off ch=1 n=48 v=80
182400 Off ch=1 n=55 v=80
182400 Off ch=1 n=60 v=80
182400 Off ch=1 n=63 v=80
182400 On ch=1 n=43 v=95
182410 On ch=1 n=47 v=95
182420 On ch=1 n=50 v=95
182430 On ch=1 n=55 v=95
182440 On ch=1 n=62 v=63
182880 Off ch=1 n=43 v=80
182880 Off ch=1 n=47 v=80
182880 Off ch=1 n=50 v=80
182880 Off ch=1 n=55 v=80
182880 Off ch=1 n=62 v=80
182880 On ch=1 n=43 v=95
182890 On ch=1 n=47 v=95
182900 On ch=1 n=50 v=95
182910 On ch=1 n=55 v=95
182920 On ch=1 n=62 v=63
183360 Off ch=1 n=43 v=80
183360 Off ch=1 n=47 v=80
183360 Off ch=1 n=50 v=80
183360 Off ch=1 n=55 v=80
183360 Off ch=1 n=62 v=80
183360 On ch=1 n=43 v=95
183370 On ch=1 n=47 v=95
183380 On ch=1 n=50 v=95
183390 On ch=1 n=55 v=95
183400 On ch=1 n=62 v=63
183840 Off ch=1 n=43 v=80
183840 Off ch=1 n=47 v=80
183840 Off ch=1 n=50 v=80
183840 Off ch=1 n=55 v=80
183840 Off ch=1 n=62 v=80
183840 On ch=1 n=43 v=95
183850 On ch=1 n=47 v=95
183860 On ch=1 n=50 v=95
183870 On ch=1 n=55 v=95
183880 On ch=1 n=62 v=63
184320 Off ch=1 n=43 v=80
184320 Off ch=1 n=47 v=80
184320 Off ch=1 n=50 v=80
184320 Off ch=1 n=55 v=80
184320 Off ch=1 n=62 v=80
184320 On ch=1 n=43 v=95
184330 On ch=1 n=47 v=95
184340 On ch=1 n=50 v=95
184350 On ch=1 n=55 v=95
184360 On ch=1 n=62 v=63
184800 Off ch=1 n=43 v=80
184800 Off ch=1 n=47 v=80
184800 Off ch=1 n=50 v=80
184800 Off ch=1 n=55 v=80
184800 Off ch=1 n=62 v=80
184800 On ch=1 n=43 v=95
184810 On ch=1 n=47 v=95
184820 On ch=1 n=50 v=95
184830 On ch=1 n=55 v=95
184840 On ch=1 n=62 v=63
185280 Off ch=1 n=43 v=80
185280 Off ch=1 n=47 v=80
185280 Off ch=1 n=50 v=80
185280 Off ch=1 n=55 v=80
185280 Off ch=1 n=62 v=80
185280 On ch=1 n=43 v=95
185290 On ch=1 n=47 v=95
185300 On ch=1 n=50 v=95
185310 On ch=1 n=55 v=95
185320 On ch=1 n=62 v=63
185760 Off ch=1 n=43 v=80
185760 Off ch=1 n=47 v=80
185760 Off ch=1 n=50 v=80
185760 Off ch=1 n=55 v=80
185760 Off ch=1 n=62 v=80
185760 On ch=1 n=43 v=95
185770 On ch=1 n=47 v=95
185780 On ch=1 n=50 v=95
185790 On ch=1 n=55 v=95
185800 On ch=1 n=62 v=63
186240 Off ch=1 n=43 v=80
186240 Off ch=1 n=47 v=80
186240 Off ch=1 n=50 v=80
186240 Off ch=1 n=55 v=80
186240 Off ch=1 n=62 v=80
186240 On ch=1 n=55 v=95
186480 On ch=1 n=55 v=95
186720 On ch=1 n=62 v=95
186960 Off ch=1 n=55 v=80
186960 Off ch=1 n=55 v=80
186960 On ch=1 n=55 v=95
187200 Off ch=1 n=62 v=80
187200 On ch=1 n=55 v=95
187440 On ch=1 n=62 v=95
187920 Off ch=1 n=55 v=80
187920 Off ch=1 n=55 v=80
187920 Off ch=1 n=62 v=80
188160 On ch=1 n=54 v=95
188400 On ch=1 n=55 v=95
188640 On ch=1 n=62 v=95
188880 Off ch=1 n=54 v=80
188880 Off ch=1 n=55 v=80
188880 On ch=1 n=54 v=95
189120 Off ch=1 n=62 v=80
189120 On ch=1 n=55 v=95
189360 On ch=1 n=62 v=95
189840 Off ch=1 n=54 v=80
189840 Off ch=1 n=55 v=80
189840 Off ch=1 n=62 v=80
190080 On ch=1 n=52 v=95
190320 On ch=1 n=55 v=95
190560 On ch=1 n=62 v=95
190800 Off ch=1 n=52 v=80
190800 Off ch=1 n=55 v=80
190800 On ch=1 n=52 v=95
191040 Off ch=1 n=62 v=80
191040 On ch=1 n=55 v=95
191280 On ch=1 n=62 v=95
191760 Off ch=1 n=52 v=80
191760 Off ch=1 n=55 v=80
191760 Off ch=1 n=62 v=80
192000 On ch=1 n=50 v=95
192240 On ch=1 n=55 v=95
192480 On ch=1 n=62 v=95
192720 Off ch=1 n=50 v=80
192720 Off ch=1 n=55 v=80
192720 On ch=1 n=50 v=95
192960 Off ch=1 n=62 v=80
192960 On ch=1 n=55 v=95
193200 On ch=1 n=62 v=95
193680 Off ch=1 n=50 v=80
193680 Off ch=1 n=55 v=80
193680 Off ch=1 n=62 v=80
193920 On ch=1 n=48 v=95
193930 On ch=1 n=55 v=95
193940 On ch=1 n=60 v=95
193950 On ch=1 n=64 v=95
194400 Off ch=1 n=48 v=80
194400 Off ch=1 n=55 v=80
194400 Off ch=1 n=60 v=80
194400 Off ch=1 n=64 v=80
194400 On ch=1 n=48 v=95
194410 On ch=1 n=55 v=95
194420 On ch=1 n=60 v=95
194430 On ch=1 n=64 v=95
194880 Off ch=1 n=48 v=80
194880 Off ch=1 n=55 v=80
194880 Off ch=1 n=60 v=80
194880 Off ch=1 n=64 v=80
194880 On ch=1 n=48 v=95
194890 On ch=1 n=55 v=95
194900 On ch=1 n=60 v=95
194910 On ch=1 n=64 v=95
195360 Off ch=1 n=48 v=80
195360 Off ch=1 n=55 v=80
195360 Off ch=1 n=60 v=80
195360 Off ch=1 n=64 v=80
195360 On ch=1 n=48 v=95
195370 On ch=1 n=55 v=95
195380 On ch=1 n=60 v=95
195390 On ch=1 n=64 v=95
195840 Off ch=1 n=48 v=80
195840 Off ch=1 n=55 v=80
195840 Off ch=1 n=60 v=80
195840 Off ch=1 n=64 v=80
195840 On ch=1 n=48 v=95
195850 On ch=1 n=55 v=95
195860 On ch=1 n=60 v=95
195870 On ch=1 n=63 v=95
196320 Off ch=1 n=48 v=80
196320 Off ch=1 n=55 v=80
196320 Off ch=1 n=60 v=80
196320 Off ch=1 n=63 v=80
196320 On ch=1 n=48 v=95
196330 On ch=1 n=55 v=95
196340 On ch=1 n=60 v=95
196350 On ch=1 n=63 v=95
196800 Off ch=1 n=48 v=80
196800 Off ch=1 n=55 v=80
196800 Off ch=1 n=60 v=80
196800 Off ch=1 n=63 v=80
196800 On ch=1 n=48 v=95
196810 On ch=1 n=55 v=95
196820 On ch=1 n=60 v=95
196830 On ch=1 n=63 v=95
197280 Off ch=1 n=48 v=80
197280 Off ch=1 n=55 v=80
197280 Off ch=1 n=60 v=80
197280 Off ch=1 n=63 v=80
197280 On ch=1 n=48 v=95
197290 On ch=1 n=55 v=95
197300 On ch=1 n=60 v=95
197310 On ch=1 n=63 v=95
197760 Off ch=1 n=48 v=80
197760 Off ch=1 n=55 v=80
197760 Off ch=1 n=60 v=80
197760 Off ch=1 n=63 v=80
197760 On ch=1 n=43 v=95
197770 On ch=1 n=47 v=95
197780 On ch=1 n=50 v=95
197790 On ch=1 n=55 v=95
197800 On ch=1 n=62 v=63
198240 Off ch=1 n=43 v=80
198240 Off ch=1 n=47 v=80
198240 Off ch=1 n=50 v=80
198240 Off ch=1 n=55 v=80
198240 Off ch=1 n=62 v=80
198240 On ch=1 n=43 v=95
198250 On ch=1 n=47 v=95
198260 On ch=1 n=50 v=95
198270 On ch=1 n=55 v=95
198280 On ch=1 n=62 v=63
198720 Off ch=1 n=43 v=80
198720 Off ch=1 n=47 v=80
198720 Off ch=1 n=50 v=80
198720 Off ch=1 n=55 v=80
198720 Off ch=1 n=62 v=80
198720 On ch=1 n=43 v=95
198730 On ch=1 n=47 v=95
198740 On ch=1 n=50 v=95
198750 On ch=1 n=55 v=95
198760 On ch=1 n=62 v=63
199200 Off ch=1 n=43 v=80
199200 Off ch=1 n=47 v=80
199200 Off ch=1 n=50 v=80
199200 Off ch=1 n=55 v=80
199200 Off ch=1 n=62 v=80
199200 On ch=1 n=43 v=95
199210 On ch=1 n=47 v=95
199220 On ch=1 n=50 v=95
199230 On ch=1 n=55 v=95
199240 On ch=1 n=62 v=63
199680 Off ch=1 n=43 v=80
199680 Off ch=1 n=47 v=80
199680 Off ch=1 n=50 v=80
199680 Off ch=1 n=55 v=80
199680 Off ch=1 n=62 v=80
199680 On ch=1 n=43 v=95
199690 On ch=1 n=47 v=95
199700 On ch=1 n=50 v=95
199710 On ch=1 n=55 v=95
199720 On ch=1 n=62 v=63
200160 Off ch=1 n=43 v=80
200160 Off ch=1 n=47 v=80
200160 Off ch=1 n=50 v=80
200160 Off ch=1 n=55 v=80
200160 Off ch=1 n=62 v=80
200160 On ch=1 n=43 v=95
200170 On ch=1 n=47 v=95
200180 On ch=1 n=50 v=95
200190 On ch=1 n=55 v=95
200200 On ch=1 n=62 v=63
200640 Off ch=1 n=43 v=80
200640 Off ch=1 n=47 v=80
200640 Off ch=1 n=50 v=80
200640 Off ch=1 n=55 v=80
200640 Off ch=1 n=62 v=80
200640 On ch=1 n=43 v=95
200650 On ch=1 n=47 v=95
200660 On ch=1 n=50 v=95
200670 On ch=1 n=55 v=95
200680 On ch=1 n=62 v=63
201120 Off ch=1 n=43 v=80
201120 Off ch=1 n=47 v=80
201120 Off ch=1 n=50 v=80
201120 Off ch=1 n=55 v=80
201120 Off ch=1 n=62 v=80
201120 On ch=1 n=43 v=95
201130 On ch=1 n=47 v=95
201140 On ch=1 n=50 v=95
201150 On ch=1 n=55 v=95
201160 On ch=1 n=62 v=63
201600 Off ch=1 n=43 v=80
201600 Off ch=1 n=47 v=80
201600 Off ch=1 n=50 v=80
201600 Off ch=1 n=55 v=80
201600 Off ch=1 n=62 v=80
201600 On ch=1 n=48 v=95
201610 On ch=1 n=55 v=95
201620 On ch=1 n=60 v=95
201630 On ch=1 n=64 v=95
202080 Off ch=1 n=48 v=80
202080 Off ch=1 n=55 v=80
202080 Off ch=1 n=60 v=80
202080 Off ch=1 n=64 v=80
202080 On ch=1 n=48 v=95
202090 On ch=1 n=55 v=95
202100 On ch=1 n=60 v=95
202110 On ch=1 n=64 v=95
202560 Off ch=1 n=48 v=80
202560 Off ch=1 n=55 v=80
202560 Off ch=1 n=60 v=80
202560 Off ch=1 n=64 v=80
202560 On ch=1 n=48 v=95
202570 On ch=1 n=55 v=95
202580 On ch=1 n=60 v=95
202590 On ch=1 n=64 v=95
203040 Off ch=1 n=48 v=80
203040 Off ch=1 n=55 v=80
203040 Off ch=1 n=60 v=80
203040 Off ch=1 n=64 v=80
203040 On ch=1 n=48 v=95
203050 On ch=1 n=55 v=95
203060 On ch=1 n=60 v=95
203070 On ch=1 n=64 v=95
203520 Off ch=1 n=48 v=80
203520 Off ch=1 n=55 v=80
203520 Off ch=1 n=60 v=80
203520 Off ch=1 n=64 v=80
203520 On ch=1 n=48 v=95
203530 On ch=1 n=55 v=95
203540 On ch=1 n=60 v=95
203550 On ch=1 n=63 v=95
204000 Off ch=1 n=48 v=80
204000 Off ch=1 n=55 v=80
204000 Off ch=1 n=60 v=80
204000 Off ch=1 n=63 v=80
204000 On ch=1 n=48 v=95
204010 On ch=1 n=55 v=95
204020 On ch=1 n=60 v=95
204030 On ch=1 n=63 v=95
204480 Off ch=1 n=48 v=80
204480 Off ch=1 n=55 v=80
204480 Off ch=1 n=60 v=80
204480 Off ch=1 n=63 v=80
204480 On ch=1 n=48 v=95
204490 On ch=1 n=55 v=95
204500 On ch=1 n=60 v=95
204510 On ch=1 n=63 v=95
204960 Off ch=1 n=48 v=80
204960 Off ch=1 n=55 v=80
204960 Off ch=1 n=60 v=80
204960 Off ch=1 n=63 v=80
204960 On ch=1 n=48 v=95
204970 On ch=1 n=55 v=95
204980 On ch=1 n=60 v=95
204990 On ch=1 n=63 v=95
205440 Off ch=1 n=48 v=80
205440 Off ch=1 n=55 v=80
205440 Off ch=1 n=60 v=80
205440 Off ch=1 n=63 v=80
205440 On ch=1 n=43 v=95
205450 On ch=1 n=47 v=95
205460 On ch=1 n=50 v=95
205470 On ch=1 n=55 v=95
205480 On ch=1 n=62 v=63
205920 Off ch=1 n=43 v=80
205920 Off ch=1 n=47 v=80
205920 Off ch=1 n=50 v=80
205920 Off ch=1 n=55 v=80
205920 Off ch=1 n=62 v=80
205920 On ch=1 n=43 v=95
205930 On ch=1 n=47 v=95
205940 On ch=1 n=50 v=95
205950 On ch=1 n=55 v=95
205960 On ch=1 n=62 v=63
206400 Off ch=1 n=43 v=80
206400 Off ch=1 n=47 v=80
206400 Off ch=1 n=50 v=80
206400 Off ch=1 n=55 v=80
206400 Off ch=1 n=62 v=80
206400 On ch=1 n=43 v=95
206410 On ch=1 n=47 v=95
206420 On ch=1 n=50 v=95
206430 On ch=1 n=55 v=95
206440 On ch=1 n=62 v=63
206880 Off ch=1 n=43 v=80
206880 Off ch=1 n=47 v=80
206880 Off ch=1 n=50 v=80
206880 Off ch=1 n=55 v=80
206880 Off ch=1 n=62 v=80
206880 On ch=1 n=43 v=95
206890 On ch=1 n=47 v=95
206900 On ch=1 n=50 v=95
206910 On ch=1 n=55 v=95
206920 On ch=1 n=62 v=63
207360 Off ch=1 n=43 v=80
207360 Off ch=1 n=47 v=80
207360 Off ch=1 n=50 v=80
207360 Off ch=1 n=55 v=80
207360 Off ch=1 n=62 v=80
207360 On ch=1 n=43 v=95
207370 On ch=1 n=47 v=95
207380 On ch=1 n=50 v=95
207390 On ch=1 n=55 v=95
207400 On ch=1 n=62 v=63
207840 Off ch=1 n=43 v=80
207840 Off ch=1 n=47 v=80
207840 Off ch=1 n=50 v=80
207840 Off ch=1 n=55 v=80
207840 Off ch=1 n=62 v=80
207840 On ch=1 n=43 v=95
207850 On ch=1 n=47 v=95
207860 On ch=1 n=50 v=95
207870 On ch=1 n=55 v=95
207880 On ch=1 n=62 v=63
208320 Off ch=1 n=43 v=80
208320 Off ch=1 n=47 v=80
208320 Off ch=1 n=50 v=80
208320 Off ch=1 n=55 v=80
208320 Off ch=1 n=62 v=80
208320 On ch=1 n=43 v=95
208330 On ch=1 n=47 v=95
208340 On ch=1 n=50 v=95
208350 On ch=1 n=55 v=95
208360 On ch=1 n=62 v=63
208800 Off ch=1 n=43 v=80
208800 Off ch=1 n=47 v=80
208800 Off ch=1 n=50 v=80
208800 Off ch=1 n=55 v=80
208800 Off ch=1 n=62 v=80
208800 On ch=1 n=43 v=95
208810 On ch=1 n=47 v=95
208820 On ch=1 n=50 v=95
208830 On ch=1 n=55 v=95
208840 On ch=1 n=62 v=63
209280 Off ch=1 n=43 v=80
209280 Off ch=1 n=47 v=80
209280 Off ch=1 n=50 v=80
209280 Off ch=1 n=55 v=80
209280 Off ch=1 n=62 v=80
209280 On ch=1 n=48 v=95
209290 On ch=1 n=55 v=95
209300 On ch=1 n=60 v=95
209310 On ch=1 n=64 v=95
209760 Off ch=1 n=48 v=80
209760 Off ch=1 n=55 v=80
209760 Off ch=1 n=60 v=80
209760 Off ch=1 n=64 v=80
209760 On ch=1 n=48 v=95
209770 On ch=1 n=55 v=95
209780 On ch=1 n=60 v=95
209790 On ch=1 n=64 v=95
210240 Off ch=1 n=48 v=80
210240 Off ch=1 n=55 v=80
210240 Off ch=1 n=60 v=80
210240 Off ch=1 n=64 v=80
210240 On ch=1 n=48 v=95
210250 On ch=1 n=55 v=95
210260 On ch=1 n=60 v=95
210270 On ch=1 n=64 v=95
210720 Off ch=1 n=48 v=80
210720 Off ch=1 n=55 v=80
210720 Off ch=1 n=60 v=80
210720 Off ch=1 n=64 v=80
210720 On ch=1 n=48 v=95
210730 On ch=1 n=55 v=95
210740 On ch=1 n=60 v=95
210750 On ch=1 n=64 v=95
211200 Off ch=1 n=48 v=80
211200 Off ch=1 n=55 v=80
211200 Off ch=1 n=60 v=80
211200 Off ch=1 n=64 v=80
211200 On ch=1 n=48 v=95
211210 On ch=1 n=55 v=95
211220 On ch=1 n=60 v=95
211230 On ch=1 n=63 v=95
211680 Off ch=1 n=48 v=80
211680 Off ch=1 n=55 v=80
211680 Off ch=1 n=60 v=80
211680 Off ch=1 n=63 v=80
211680 On ch=1 n=48 v=95
211690 On ch=1 n=55 v=95
211700 On ch=1 n=60 v=95
211710 On ch=1 n=63 v=95
212160 Off ch=1 n=48 v=80
212160 Off ch=1 n=55 v=80
212160 Off ch=1 n=60 v=80
212160 Off ch=1 n=63 v=80
212160 On ch=1 n=48 v=95
212170 On ch=1 n=55 v=95
212180 On ch=1 n=60 v=95
212190 On ch=1 n=63 v=95
212640 Off ch=1 n=48 v=80
212640 Off ch=1 n=55 v=80
212640 Off ch=1 n=60 v=80
212640 Off ch=1 n=63 v=80
212640 On ch=1 n=48 v=95
212650 On ch=1 n=55 v=95
212660 On ch=1 n=60 v=95
212670 On ch=1 n=63 v=95
213120 Off ch=1 n=48 v=80
213120 Off ch=1 n=55 v=80
213120 Off ch=1 n=60 v=80
213120 Off ch=1 n=63 v=80
213120 On ch=1 n=43 v=95
213130 On ch=1 n=47 v=95
213140 On ch=1 n=50 v=95
213150 On ch=1 n=55 v=95
213160 On ch=1 n=62 v=63
213600 Off ch=1 n=43 v=80
213600 Off ch=1 n=47 v=80
213600 Off ch=1 n=50 v=80
213600 Off ch=1 n=55 v=80
213600 Off ch=1 n=62 v=80
213600 On ch=1 n=43 v=95
213610 On ch=1 n=47 v=95
213620 On ch=1 n=50 v=95
213630 On ch=1 n=55 v=95
213640 On ch=1 n=62 v=63
214080 Off ch=1 n=43 v=80
214080 Off ch=1 n=47 v=80
214080 Off ch=1 n=50 v=80
214080 Off ch=1 n=55 v=80
214080 Off ch=1 n=62 v=80
214080 On ch=1 n=43 v=95
214090 On ch=1 n=47 v=95
214100 On ch=1 n=50 v=95
214110 On ch=1 n=55 v=95
214120 On ch=1 n=62 v=63
214560 Off ch=1 n=43 v=80
214560 Off ch=1 n=47 v=80
214560 Off ch=1 n=50 v=80
214560 Off ch=1 n=55 v=80
214560 Off ch=1 n=62 v=80
214560 On ch=1 n=43 v=95
214570 On ch=1 n=47 v=95
214580 On ch=1 n=50 v=95
214590 On ch=1 n=55 v=95
214600 On ch=1 n=62 v=63
215040 Off ch=1 n=43 v=80
215040 Off ch=1 n=47 v=80
215040 Off ch=1 n=50 v=80
215040 Off ch=1 n=55 v=80
215040 Off ch=1 n=62 v=80
215040 On ch=1 n=43 v=95
215050 On ch=1 n=47 v=95
215060 On ch=1 n=50 v=95
215070 On ch=1 n=55 v=95
215080 On ch=1 n=62 v=63
216960 Off ch=1 n=43 v=80
216960 Off ch=1 n=47 v=80
216960 Off ch=1 n=50 v=80
216960 Off ch=1 n=55 v=80
216960 Off ch=1 n=62 v=80
216960 Meta TrkEnd
TrkEnd
MTrk
0 Meta TrkName "Celesta 1"
0 Par ch=3 c=100 v=0
0 Par ch=3 c=101 v=0
0 Par ch=3 c=6 v=12
0 Pb ch=3 v=8192
0 Par ch=4 c=100 v=0
0 Par ch=4 c=101 v=0
0 Par ch=4 c=6 v=12
0 Pb ch=4 v=8192
0 PrCh ch=3 p=8
0 PrCh ch=4 p=8
0 Par ch=3 c=7 v=64
0 Par ch=4 c=7 v=64
0 Par ch=3 c=10 v=64
0 Par ch=4 c=10 v=64
0 Par ch=3 c=93 v=0
0 Par ch=4 c=93 v=0
0 Par ch=3 c=91 v=0
0 Par ch=4 c=91 v=0
0 Par ch=3 c=92 v=0
0 Par ch=4 c=92 v=0
0 Par ch=3 c=95 v=0
0 Par ch=4 c=95 v=0
23040 On ch=3 n=79 v=95
24960 Off ch=3 n=79 v=80
24960 On ch=3 n=78 v=95
26880 Off ch=3 n=78 v=80
26880 On ch=3 n=76 v=95
28800 Off ch=3 n=76 v=80
28800 On ch=3 n=74 v=95
30720 Off ch=3 n=74 v=80
30720 On ch=3 n=72 v=95
32640 Off ch=3 n=72 v=80
32640 On ch=3 n=75 v=95
34560 Off ch=3 n=75 v=80
34560 On ch=3 n=79 v=95
36480 Off ch=3 n=79 v=80
38400 On ch=3 n=76 v=95
40320 Off ch=3 n=76 v=80
40320 On ch=3 n=71 v=95
42240 Off ch=3 n=71 v=80
42240 On ch=3 n=76 v=95
43200 Off ch=3 n=76 v=80
43200 On ch=3 n=72 v=95
44160 Off ch=3 n=72 v=80
44160 On ch=3 n=74 v=95
46080 Off ch=3 n=74 v=80
46080 On ch=3 n=76 v=95
48000 Off ch=3 n=76 v=80
48000 On ch=3 n=71 v=95
49920 Off ch=3 n=71 v=80
49920 On ch=3 n=76 v=95
50880 Off ch=3 n=76 v=80
50880 On ch=3 n=72 v=95
51840 Off ch=3 n=72 v=80
51840 On ch=3 n=74 v=95
53760 Off ch=3 n=74 v=80
53760 On ch=3 n=79 v=95
55680 Off ch=3 n=79 v=80
55680 On ch=3 n=78 v=95
57600 Off ch=3 n=78 v=80
57600 On ch=3 n=76 v=95
59520 Off ch=3 n=76 v=80
59520 On ch=3 n=74 v=95
61440 Off ch=3 n=74 v=80
61440 On ch=3 n=72 v=95
63360 Off ch=3 n=72 v=80
63360 On ch=3 n=75 v=95
65280 Off ch=3 n=75 v=80
65280 On ch=3 n=79 v=95
67200 Off ch=3 n=79 v=80
80640 Par ch=3 c=7 v=127
80640 Par ch=4 c=7 v=127
80640 On ch=3 n=79 v=95
82560 Off ch=3 n=79 v=80
82560 On ch=3 n=78 v=95
84480 Off ch=3 n=78 v=80
84480 On ch=3 n=76 v=95
86400 Off ch=3 n=76 v=80
86400 On ch=3 n=74 v=95
88320 Off ch=3 n=74 v=80
88320 On ch=3 n=72 v=95
90240 Off ch=3 n=72 v=80
90240 On ch=3 n=75 v=95
92160 Off ch=3 n=75 v=80
92160 On ch=3 n=79 v=95
94080 Off ch=3 n=79 v=80
96000 Par ch=3 c=7 v=127
96000 Par ch=4 c=7 v=127
96000 On ch=3 n=79 v=95
97920 Off ch=3 n=79 v=80
97920 On ch=3 n=78 v=95
99840 Off ch=3 n=78 v=80
99840 On ch=3 n=76 v=95
101760 Off ch=3 n=76 v=80
101760 On ch=3 n=74 v=95
103680 Off ch=3 n=74 v=80
103680 On ch=3 n=72 v=95
105600 Off ch=3 n=72 v=80
105600 On ch=3 n=75 v=95
107520 Off ch=3 n=75 v=80
107520 On ch=3 n=79 v=95
109440 Off ch=3 n=79 v=80
111360 Par ch=3 c=7 v=80
111360 Par ch=4 c=7 v=80
111360 On ch=3 n=76 v=95
113280 Off ch=3 n=76 v=80
113280 On ch=3 n=71 v=95
115200 Off ch=3 n=71 v=80
115200 On ch=3 n=76 v=95
116160 Off ch=3 n=76 v=80
116160 On ch=3 n=72 v=95
117120 Off ch=3 n=72 v=80
117120 On ch=3 n=74 v=95
119040 Off ch=3 n=74 v=80
119040 On ch=3 n=76 v=95
120960 Off ch=3 n=76 v=80
120960 On ch=3 n=71 v=95
122880 Off ch=3 n=71 v=80
122880 On ch=3 n=76 v=95
123840 Off ch=3 n=76 v=80
123840 On ch=3 n=72 v=95
124800 Off ch=3 n=72 v=80
124800 On ch=3 n=74 v=95
126720 Off ch=3 n=74 v=80
126720 Par ch=3 c=7 v=127
126720 Par ch=4 c=7 v=127
126720 On ch=3 n=79 v=95
128640 Off ch=3 n=79 v=80
128640 On ch=3 n=78 v=95
130560 Off ch=3 n=78 v=80
130560 On ch=3 n=76 v=95
132480 Off ch=3 n=76 v=80
132480 On ch=3 n=74 v=95
134400 Off ch=3 n=74 v=80
134400 On ch=3 n=72 v=95
136320 Off ch=3 n=72 v=80
136320 On ch=3 n=75 v=95
138240 Off ch=3 n=75 v=80
138240 On ch=3 n=79 v=95
140160 Off ch=3 n=79 v=80
142080 Par ch=3 c=7 v=80
142080 Par ch=4 c=7 v=80
142080 On ch=3 n=76 v=95
144000 Off ch=3 n=76 v=80
144000 On ch=3 n=71 v=95
145920 Off ch=3 n=71 v=80
145920 On ch=3 n=76 v=95
146880 Off ch=3 n=76 v=80
146880 On ch=3 n=72 v=95
147840 Off ch=3 n=72 v=80
147840 On ch=3 n=74 v=95
149760 Off ch=3 n=74 v=80
149760 On ch=3 n=76 v=95
151680 Off ch=3 n=76 v=80
151680 On ch=3 n=71 v=95
153600 Off ch=3 n=71 v=80
153600 On ch=3 n=76 v=95
154560 Off ch=3 n=76 v=80
154560 On ch=3 n=72 v=95
155520 Off ch=3 n=72 v=80
155520 On ch=3 n=74 v=95
157440 Off ch=3 n=74 v=80
157440 On ch=3 n=74 v=95
159360 Off ch=3 n=74 v=80
159360 On ch=3 n=74 v=95
161280 Off ch=3 n=74 v=80
170880 On ch=3 n=79 v=95
172800 Off ch=3 n=79 v=80
172800 On ch=3 n=78 v=95
174720 Off ch=3 n=78 v=80
174720 On ch=3 n=76 v=95
176640 Off ch=3 n=76 v=80
176640 On ch=3 n=74 v=95
178560 Off ch=3 n=74 v=80
178560 On ch=3 n=72 v=95
180480 Off ch=3 n=72 v=80
180480 On ch=3 n=75 v=95
182400 Off ch=3 n=75 v=80
182400 On ch=3 n=79 v=95
184320 Off ch=3 n=79 v=80
186240 Par ch=3 c=7 v=127
186240 Par ch=4 c=7 v=127
186240 On ch=3 n=79 v=95
188160 Off ch=3 n=79 v=80
188160 On ch=3 n=78 v=95
190080 Off ch=3 n=78 v=80
190080 On ch=3 n=76 v=95
192000 Off ch=3 n=76 v=80
192000 On ch=3 n=74 v=95
193920 Off ch=3 n=74 v=80
193920 On ch=3 n=72 v=95
195840 Off ch=3 n=72 v=80
195840 On ch=3 n=75 v=95
197760 Off ch=3 n=75 v=80
197760 On ch=3 n=79 v=95
199680 Off ch=3 n=79 v=80
201600 On ch=3 n=72 v=95
203520 Off ch=3 n=72 v=80
203520 On ch=3 n=75 v=95
205440 Off ch=3 n=75 v=80
205440 On ch=3 n=79 v=95
207360 Off ch=3 n=79 v=80
209280 On ch=3 n=72 v=95
211200 Off ch=3 n=72 v=80
211200 On ch=3 n=75 v=95
213120 Off ch=3 n=75 v=80
213120 On ch=3 n=79 v=95
215040 Off ch=3 n=79 v=80
215040 Meta TrkEnd
TrkEnd
MTrk
0 Meta TrkName "Celesta 2"
0 Par ch=9 c=100 v=0
0 Par ch=9 c=101 v=0
0 Par ch=9 c=6 v=12
0 Pb ch=9 v=8192
0 Par ch=11 c=100 v=0
0 Par ch=11 c=101 v=0
0 Par ch=11 c=6 v=12
0 Pb ch=11 v=8192
0 PrCh ch=9 p=8
0 PrCh ch=11 p=8
0 Par ch=9 c=7 v=56
0 Par ch=11 c=7 v=56
0 Par ch=9 c=10 v=64
0 Par ch=11 c=10 v=64
0 Par ch=9 c=93 v=0
0 Par ch=11 c=93 v=0
0 Par ch=9 c=91 v=0
0 Par ch=11 c=91 v=0
0 Par ch=9 c=92 v=0
0 Par ch=11 c=92 v=0
0 Par ch=9 c=95 v=0
0 Par ch=11 c=95 v=0
165120 On ch=9 n=74 v=95
165840 Off ch=9 n=74 v=80
165840 On ch=9 n=67 v=95
167040 Off ch=9 n=67 v=80
167040 On ch=9 n=74 v=95
167760 Off ch=9 n=74 v=80
167760 On ch=9 n=67 v=95
168960 Off ch=9 n=67 v=80
168960 On ch=9 n=74 v=95
169680 Off ch=9 n=74 v=80
169680 On ch=9 n=79 v=95
170880 Off ch=9 n=79 v=80
170880 On ch=9 n=74 v=95
171600 Off ch=9 n=74 v=80
171600 On ch=9 n=67 v=95
172800 Off ch=9 n=67 v=80
172800 On ch=9 n=74 v=95
173520 Off ch=9 n=74 v=80
173520 On ch=9 n=67 v=95
174720 Off ch=9 n=67 v=80
174720 On ch=9 n=74 v=95
175440 Off ch=9 n=74 v=80
175440 On ch=9 n=67 v=95
176640 Off ch=9 n=67 v=80
176640 On ch=9 n=74 v=95
177360 Off ch=9 n=74 v=80
177360 On ch=9 n=79 v=95
178560 Off ch=9 n=79 v=80
178560 Meta TrkEnd
TrkEnd
MTrk
0 Meta TrkName "Distorsion Guitar 1"
0 Par ch=5 c=100 v=0
0 Par ch=5 c=101 v=0
0 Par ch=5 c=6 v=12
0 Pb ch=5 v=8192
0 Par ch=6 c=100 v=0
0 Par ch=6 c=101 v=0
0 Par ch=6 c=6 v=12
0 Pb ch=6 v=8192
0 PrCh ch=5 p=30
0 PrCh ch=6 p=30
0 Par ch=5 c=7 v=104
0 Par ch=6 c=7 v=104
0 Par ch=5 c=10 v=64
0 Par ch=6 c=10 v=64
0 Par ch=5 c=93 v=0
0 Par ch=6 c=93 v=0
0 Par ch=5 c=91 v=0
0 Par ch=6 c=91 v=0
0 Par ch=5 c=92 v=0
0 Par ch=6 c=92 v=0
0 Par ch=5 c=95 v=0
0 Par ch=6 c=95 v=0
76800 On ch=5 n=55 v=95
77040 On ch=5 n=55 v=95
77280 On ch=5 n=62 v=95
77520 Off ch=5 n=55 v=80
77520 Off ch=5 n=55 v=80
77520 On ch=5 n=55 v=95
77760 Off ch=5 n=62 v=80
77760 On ch=5 n=55 v=95
78000 On ch=5 n=62 v=95
78720 Off ch=5 n=55 v=80
78720 Off ch=5 n=55 v=80
78720 Off ch=5 n=62 v=80
78720 On ch=5 n=55 v=95
78960 On ch=5 n=55 v=95
79200 On ch=5 n=62 v=95
79440 Off ch=5 n=55 v=80
79440 Off ch=5 n=55 v=80
79440 On ch=5 n=55 v=95
79680 Off ch=5 n=62 v=80
79680 On ch=5 n=55 v=95
79920 On ch=5 n=62 v=95
80640 Off ch=5 n=55 v=80
80640 Off ch=5 n=55 v=80
80640 Off ch=5 n=62 v=80
80640 On ch=5 n=55 v=95
80880 On ch=5 n=55 v=95
81120 On ch=5 n=62 v=95
81360 Off ch=5 n=55 v=80
81360 Off ch=5 n=55 v=80
81360 On ch=5 n=55 v=95
81600 Off ch=5 n=62 v=80
81600 On ch=5 n=55 v=95
81840 On ch=5 n=62 v=95
82560 Off ch=5 n=55 v=80
82560 Off ch=5 n=55 v=80
82560 Off ch=5 n=62 v=80
82560 On ch=5 n=54 v=95
82800 On ch=5 n=55 v=95
83040 On ch=5 n=62 v=95
83280 Off ch=5 n=54 v=80
83280 Off ch=5 n=55 v=80
83280 On ch=5 n=54 v=95
83520 Off ch=5 n=62 v=80
83520 On ch=5 n=55 v=95
83760 On ch=5 n=62 v=95
84480 Off ch=5 n=54 v=80
84480 Off ch=5 n=55 v=80
84480 Off ch=5 n=62 v=80
84480 On ch=5 n=52 v=95
84720 On ch=5 n=55 v=95
84960 On ch=5 n=62 v=95
85200 Off ch=5 n=52 v=80
85200 Off ch=5 n=55 v=80
85200 On ch=5 n=52 v=95
85440 Off ch=5 n=62 v=80
85440 On ch=5 n=55 v=95
85680 On ch=5 n=62 v=95
86400 Off ch=5 n=52 v=80
86400 Off ch=5 n=55 v=80
86400 Off ch=5 n=62 v=80
86400 On ch=5 n=50 v=95
86640 On ch=5 n=55 v=95
86880 On ch=5 n=62 v=95
87120 Off ch=5 n=50 v=80
87120 Off ch=5 n=55 v=80
87120 On ch=5 n=50 v=95
87360 Off ch=5 n=62 v=80
87360 On ch=5 n=55 v=95
87600 On ch=5 n=62 v=95
88320 Off ch=5 n=50 v=80
88320 Off ch=5 n=55 v=80
88320 Off ch=5 n=62 v=80
88320 On ch=5 n=60 v=95
88320 On ch=5 n=55 v=95
88320 On ch=5 n=48 v=95
88560 Off ch=5 n=60 v=80
88560 Off ch=5 n=55 v=80
88560 Off ch=5 n=48 v=80
88560 On ch=5 n=60 v=95
88560 On ch=5 n=55 v=95
88560 On ch=5 n=48 v=95
88800 Off ch=5 n=60 v=80
88800 Off ch=5 n=55 v=80
88800 Off ch=5 n=48 v=80
88800 On ch=5 n=60 v=95
88800 On ch=5 n=55 v=95
88800 On ch=5 n=48 v=95
89040 Off ch=5 n=60 v=80
89040 Off ch=5 n=55 v=80
89040 Off ch=5 n=48 v=80
89040 On ch=5 n=60 v=95
89040 On ch=5 n=55 v=95
89040 On ch=5 n=48 v=95
89280 Off ch=5 n=60 v=80
89280 Off ch=5 n=55 v=80
89280 Off ch=5 n=48 v=80
89280 On ch=5 n=60 v=95
89280 On ch=5 n=55 v=95
89280 On ch=5 n=48 v=95
89520 Off ch=5 n=60 v=80
89520 Off ch=5 n=55 v=80
89520 Off ch=5 n=48 v=80
89520 On ch=5 n=60 v=95
89520 On ch=5 n=55 v=95
89520 On ch=5 n=48 v=95
89760 Off ch=5 n=60 v=80
89760 Off ch=5 n=55 v=80
89760 Off ch=5 n=48 v=80
89760 On ch=5 n=60 v=95
89760 On ch=5 n=55 v=95
89760 On ch=5 n=48 v=95
90000 Off ch=5 n=60 v=80
90000 Off ch=5 n=55 v=80
90000 Off ch=5 n=48 v=80
90000 On ch=5 n=60 v=95
90000 On ch=5 n=55 v=95
90000 On ch=5 n=48 v=95
90240 Off ch=5 n=60 v=80
90240 Off ch=5 n=55 v=80
90240 Off ch=5 n=48 v=80
90240 On ch=5 n=63 v=95
90240 On ch=5 n=60 v=95
90240 On ch=5 n=55 v=95
90240 On ch=5 n=48 v=95
90480 Off ch=5 n=63 v=80
90480 Off ch=5 n=60 v=80
90480 Off ch=5 n=55 v=80
90480 Off ch=5 n=48 v=80
90480 On ch=5 n=63 v=95
90480 On ch=5 n=60 v=95
90480 On ch=5 n=55 v=95
90480 On ch=5 n=48 v=95
90720 Off ch=5 n=63 v=80
90720 Off ch=5 n=60 v=80
90720 Off ch=5 n=55 v=80
90720 Off ch=5 n=48 v=80
90720 On ch=5 n=63 v=95
90720 On ch=5 n=60 v=95
90720 On ch=5 n=55 v=95
90720 On ch=5 n=48 v=95
90960 Off ch=5 n=63 v=80
90960 Off ch=5 n=60 v=80
90960 Off ch=5 n=55 v=80
90960 Off ch=5 n=48 v=80
90960 On ch=5 n=63 v=95
90960 On ch=5 n=60 v=95
90960 On ch=5 n=55 v=95
90960 On ch=5 n=48 v=95
91200 Off ch=5 n=63 v=80
91200 Off ch=5 n=60 v=80
91200 Off ch=5 n=55 v=80
91200 Off ch=5 n=48 v=80
91200 On ch=5 n=63 v=95
91200 On ch=5 n=60 v=95
91200 On ch=5 n=55 v=95
91200 On ch=5 n=48 v=95
91440 Off ch=5 n=63 v=80
91440 Off ch=5 n=60 v=80
91440 Off ch=5 n=55 v=80
91440 Off ch=5 n=48 v=80
91440 On ch=5 n=63 v=95
91440 On ch=5 n=60 v=95
91440 On ch=5 n=55 v=95
91440 On ch=5 n=48 v=95
91680 Off ch=5 n=63 v=80
91680 Off ch=5 n=60 v=80
91680 Off ch=5 n=55 v=80
91680 Off ch=5 n=48 v=80
91680 On ch=5 n=63 v=95
91680 On ch=5 n=60 v=95
91680 On ch=5 n=55 v=95
91680 On ch=5 n=48 v=95
91920 Off ch=5 n=63 v=80
91920 Off ch=5 n=60 v=80
91920 Off ch=5 n=55 v=80
91920 Off ch=5 n=48 v=80
91920 On ch=5 n=63 v=95
91920 On ch=5 n=60 v=95
91920 On ch=5 n=55 v=95
91920 On ch=5 n=48 v=95
92160 Off ch=5 n=63 v=80
92160 Off ch=5 n=60 v=80
92160 Off ch=5 n=55 v=80
92160 Off ch=5 n=48 v=80
92160 On ch=5 n=55 v=95
92160 On ch=5 n=50 v=95
92160 On ch=5 n=43 v=95
92400 Off ch=5 n=55 v=80
92400 Off ch=5 n=50 v=80
92400 Off ch=5 n=43 v=80
92400 On ch=5 n=55 v=95
92400 On ch=5 n=50 v=95
92400 On ch=5 n=43 v=95
92640 Off ch=5 n=55 v=80
92640 Off ch=5 n=50 v=80
92640 Off ch=5 n=43 v=80
92640 On ch=5 n=55 v=95
92640 On ch=5 n=50 v=95
92640 On ch=5 n=43 v=95
92880 Off ch=5 n=55 v=80
92880 Off ch=5 n=50 v=80
92880 Off ch=5 n=43 v=80
92880 On ch=5 n=55 v=95
92880 On ch=5 n=50 v=95
92880 On ch=5 n=43 v=95
93120 Off ch=5 n=55 v=80
93120 Off ch=5 n=50 v=80
93120 Off ch=5 n=43 v=80
93120 On ch=5 n=55 v=95
93120 On ch=5 n=50 v=95
93120 On ch=5 n=43 v=95
93360 Off ch=5 n=55 v=80
93360 Off ch=5 n=50 v=80
93360 Off ch=5 n=43 v=80
93360 On ch=5 n=55 v=95
93360 On ch=5 n=50 v=95
93360 On ch=5 n=43 v=95
93600 Off ch=5 n=55 v=80
93600 Off ch=5 n=50 v=80
93600 Off ch=5 n=43 v=80
93600 On ch=5 n=55 v=95
93600 On ch=5 n=50 v=95
93600 On ch=5 n=43 v=95
93840 Off ch=5 n=55 v=80
93840 Off ch=5 n=50 v=80
93840 Off ch=5 n=43 v=80
93840 On ch=5 n=55 v=95
93840 On ch=5 n=50 v=95
93840 On ch=5 n=43 v=95
94080 Off ch=5 n=55 v=80
94080 Off ch=5 n=50 v=80
94080 Off ch=5 n=43 v=80
94080 On ch=5 n=55 v=95
94080 On ch=5 n=50 v=95
94080 On ch=5 n=43 v=95
94320 Off ch=5 n=55 v=80
94320 Off ch=5 n=50 v=80
94320 Off ch=5 n=43 v=80
94320 On ch=5 n=55 v=95
94320 On ch=5 n=50 v=95
94320 On ch=5 n=43 v=95
94560 Off ch=5 n=55 v=80
94560 Off ch=5 n=50 v=80
94560 Off ch=5 n=43 v=80
94560 On ch=5 n=55 v=95
94560 On ch=5 n=50 v=95
94560 On ch=5 n=43 v=95
94800 Off ch=5 n=55 v=80
94800 Off ch=5 n=50 v=80
94800 Off ch=5 n=43 v=80
94800 On ch=5 n=55 v=95
94800 On ch=5 n=50 v=95
94800 On ch=5 n=43 v=95
95040 Off ch=5 n=55 v=80
95040 Off ch=5 n=50 v=80
95040 Off ch=5 n=43 v=80
95040 On ch=5 n=55 v=95
95040 On ch=5 n=50 v=95
95040 On ch=5 n=43 v=95
95280 Off ch=5 n=55 v=80
95280 Off ch=5 n=50 v=80
95280 Off ch=5 n=43 v=80
95280 On ch=5 n=55 v=95
95280 On ch=5 n=50 v=95
95280 On ch=5 n=43 v=95
95520 Off ch=5 n=55 v=80
95520 Off ch=5 n=50 v=80
95520 Off ch=5 n=43 v=80
95520 On ch=5 n=55 v=95
95520 On ch=5 n=50 v=95
95520 On ch=5 n=43 v=95
95760 Off ch=5 n=55 v=80
95760 Off ch=5 n=50 v=80
95760 Off ch=5 n=43 v=80
95760 On ch=5 n=55 v=95
95760 On ch=5 n=50 v=95
95760 On ch=5 n=43 v=95
96000 Off ch=5 n=55 v=80
96000 Off ch=5 n=50 v=80
96000 Off ch=5 n=43 v=80
96000 On ch=5 n=55 v=95
96240 On ch=5 n=55 v=95
96480 On ch=5 n=62 v=95
96720 Off ch=5 n=55 v=80
96720 Off ch=5 n=55 v=80
96720 On ch=5 n=55 v=95
96960 Off ch=5 n=62 v=80
96960 On ch=5 n=55 v=95
97200 On ch=5 n=62 v=95
97920 Off ch=5 n=55 v=80
97920 Off ch=5 n=55 v=80
97920 Off ch=5 n=62 v=80
97920 On ch=5 n=54 v=95
98160 On ch=5 n=55 v=95
98400 On ch=5 n=62 v=95
98640 Off ch=5 n=54 v=80
98640 Off ch=5 n=55 v=80
98640 On ch=5 n=54 v=95
98880 Off ch=5 n=62 v=80
98880 On ch=5 n=55 v=95
99120 On ch=5 n=62 v=95
99840 Off ch=5 n=54 v=80
99840 Off ch=5 n=55 v=80
99840 Off ch=5 n=62 v=80
99840 On ch=5 n=52 v=95
100080 On ch=5 n=55 v=95
100320 On ch=5 n=62 v=95
100560 Off ch=5 n=52 v=80
100560 Off ch=5 n=55 v=80
100560 On ch=5 n=52 v=95
100800 Off ch=5 n=62 v=80
100800 On ch=5 n=55 v=95
101040 On ch=5 n=62 v=95
101760 Off ch=5 n=52 v=80
101760 Off ch=5 n=55 v=80
101760 Off ch=5 n=62 v=80
101760 On ch=5 n=50 v=95
102000 On ch=5 n=55 v=95
102240 On ch=5 n=62 v=95
102480 Off ch=5 n=50 v=80
102480 Off ch=5 n=55 v=80
102480 On ch=5 n=50 v=95
102720 Off ch=5 n=62 v=80
102720 On ch=5 n=55 v=95
102960 On ch=5 n=62 v=95
103680 Off ch=5 n=50 v=80
103680 Off ch=5 n=55 v=80
103680 Off ch=5 n=62 v=80
103680 On ch=5 n=60 v=95
103680 On ch=5 n=55 v=95
103680 On ch=5 n=48 v=95
103920 Off ch=5 n=60 v=80
103920 Off ch=5 n=55 v=80
103920 Off ch=5 n=48 v=80
103920 On ch=5 n=60 v=95
103920 On ch=5 n=55 v=95
103920 On ch=5 n=48 v=95
104160 Off ch=5 n=60 v=80
104160 Off ch=5 n=55 v=80
104160 Off ch=5 n=48 v=80
104160 On ch=5 n=60 v=95
104160 On ch=5 n=55 v=95
104160 On ch=5 n=48 v=95
104400 Off ch=5 n=60 v=80
104400 Off ch=5 n=55 v=80
104400 Off ch=5 n=48 v=80
104400 On ch=5 n=60 v=95
104400 On ch=5 n=55 v=95
104400 On ch=5 n=48 v=95
104640 Off ch=5 n=60 v=80
104640 Off ch=5 n=55 v=80
104640 Off ch=5 n=48 v=80
104640 On ch=5 n=60 v=95
104640 On ch=5 n=55 v=95
104640 On ch=5 n=48 v=95
104880 Off ch=5 n=60 v=80
104880 Off ch=5 n=55 v=80
104880 Off ch=5 n=48 v=80
104880 On ch=5 n=60 v=95
104880 On ch=5 n=55 v=95
104880 On ch=5 n=48 v=95
105120 Off ch=5 n=60 v=80
105120 Off ch=5 n=55 v=80
105120 Off ch=5 n=48 v=80
105120 On ch=5 n=60 v=95
105120 On ch=5 n=55 v=95
105120 On ch=5 n=48 v=95
105360 Off ch=5 n=60 v=80
105360 Off ch=5 n=55 v=80
105360 Off ch=5 n=48 v=80
105360 On ch=5 n=60 v=95
105360 On ch=5 n=55 v=95
105360 On ch=5 n=48 v=95
105600 Off ch=5 n=60 v=80
105600 Off ch=5 n=55 v=80
105600 Off ch=5 n=48 v=80
105600 On ch=5 n=63 v=95
105600 On ch=5 n=60 v=95
105600 On ch=5 n=55 v=95
105600 On ch=5 n=48 v=95
105840 Off ch=5 n=63 v=80
105840 Off ch=5 n=60 v=80
105840 Off ch=5 n=55 v=80
105840 Off ch=5 n=48 v=80
105840 On ch=5 n=63 v=95
105840 On ch=5 n=60 v=95
105840 On ch=5 n=55 v=95
105840 On ch=5 n=48 v=95
106080 Off ch=5 n=63 v=80
106080 Off ch=5 n=60 v=80
106080 Off ch=5 n=55 v=80
106080 Off ch=5 n=48 v=80
106080 On ch=5 n=63 v=95
106080 On ch=5 n=60 v=95
106080 On ch=5 n=55 v=95
106080 On ch=5 n=48 v=95
106320 Off ch=5 n=63 v=80
106320 Off ch=5 n=60 v=80
106320 Off ch=5 n=55 v=80
106320 Off ch=5 n=48 v=80
106320 On ch=5 n=63 v=95
106320 On ch=5 n=60 v=95
106320 On ch=5 n=55 v=95
106320 On ch=5 n=48 v=95
106560 Off ch=5 n=63 v=80
106560 Off ch=5 n=60 v=80
106560 Off ch=5 n=55 v=80
106560 Off ch=5 n=48 v=80
106560 On ch=5 n=63 v=95
106560 On ch=5 n=60 v=95
106560 On ch=5 n=55 v=95
106560 On ch=5 n=48 v=95
106800 Off ch=5 n=63 v=80
106800 Off ch=5 n=60 v=80
106800 Off ch=5 n=55 v=80
106800 Off ch=5 n=48 v=80
106800 On ch=5 n=63 v=95
106800 On ch=5 n=60 v=95
106800 On ch=5 n=55 v=95
106800 On ch=5 n=48 v=95
107040 Off ch=5 n=63 v=80
107040 Off ch=5 n=60 v=80
107040 Off ch=5 n=55 v=80
107040 Off ch=5 n=48 v=80
107040 On ch=5 n=63 v=95
107040 On ch=5 n=60 v=95
107040 On ch=5 n=55 v=95
107040 On ch=5 n=48 v=95
107280 Off ch=5 n=63 v=80
107280 Off ch=5 n=60 v=80
107280 Off ch=5 n=55 v=80
107280 Off ch=5 n=48 v=80
107280 On ch=5 n=63 v=95
107280 On ch=5 n=60 v=95
107280 On ch=5 n=55 v=95
107280 On ch=5 n=48 v=95
107520 Off ch=5 n=63 v=80
107520 Off ch=5 n=60 v=80
107520 Off ch=5 n=55 v=80
107520 Off ch=5 n=48 v=80
107520 On ch=5 n=55 v=95
107520 On ch=5 n=50 v=95
107520 On ch=5 n=43 v=95
107760 Off ch=5 n=55 v=80
107760 Off ch=5 n=50 v=80
107760 Off ch=5 n=43 v=80
107760 On ch=5 n=55 v=95
107760 On ch=5 n=50 v=95
107760 On ch=5 n=43 v=95
108000 Off ch=5 n=55 v=80
108000 Off ch=5 n=50 v=80
108000 Off ch=5 n=43 v=80
108000 On ch=5 n=55 v=95
108000 On ch=5 n=50 v=95
108000 On ch=5 n=43 v=95
108240 Off ch=5 n=55 v=80
108240 Off ch=5 n=50 v=80
108240 Off ch=5 n=43 v=80
108240 On ch=5 n=55 v=95
108240 On ch=5 n=50 v=95
108240 On ch=5 n=43 v=95
108480 Off ch=5 n=55 v=80
108480 Off ch=5 n=50 v=80
108480 Off ch=5 n=43 v=80
108480 On ch=5 n=55 v=95
108480 On ch=5 n=50 v=95
108480 On ch=5 n=43 v=95
108720 Off ch=5 n=55 v=80
108720 Off ch=5 n=50 v=80
108720 Off ch=5 n=43 v=80
108720 On ch=5 n=55 v=95
108720 On ch=5 n=50 v=95
108720 On ch=5 n=43 v=95
108960 Off ch=5 n=55 v=80
108960 Off ch=5 n=50 v=80
108960 Off ch=5 n=43 v=80
108960 On ch=5 n=55 v=95
108960 On ch=5 n=50 v=95
108960 On ch=5 n=43 v=95
109200 Off ch=5 n=55 v=80
109200 Off ch=5 n=50 v=80
109200 Off ch=5 n=43 v=80
109200 On ch=5 n=55 v=95
109200 On ch=5 n=50 v=95
109200 On ch=5 n=43 v=95
109440 Off ch=5 n=55 v=80
109440 Off ch=5 n=50 v=80
109440 Off ch=5 n=43 v=80
109440 On ch=5 n=55 v=95
109440 On ch=5 n=50 v=95
109440 On ch=5 n=43 v=95
109680 Off ch=5 n=55 v=80
109680 Off ch=5 n=50 v=80
109680 Off ch=5 n=43 v=80
109680 On ch=5 n=55 v=95
109680 On ch=5 n=50 v=95
109680 On ch=5 n=43 v=95
109920 Off ch=5 n=55 v=80
109920 Off ch=5 n=50 v=80
109920 Off ch=5 n=43 v=80
109920 On ch=5 n=55 v=95
109920 On ch=5 n=50 v=95
109920 On ch=5 n=43 v=95
110160 Off ch=5 n=55 v=80
110160 Off ch=5 n=50 v=80
110160 Off ch=5 n=43 v=80
110160 On ch=5 n=55 v=95
110160 On ch=5 n=50 v=95
110160 On ch=5 n=43 v=95
110400 Off ch=5 n=55 v=80
110400 Off ch=5 n=50 v=80
110400 Off ch=5 n=43 v=80
110400 On ch=5 n=54 v=95
110400 On ch=5 n=50 v=95
110400 On ch=5 n=42 v=95
110640 Off ch=5 n=54 v=80
110640 Off ch=5 n=50 v=80
110640 Off ch=5 n=42 v=80
110640 On ch=5 n=54 v=95
110640 On ch=5 n=50 v=95
110640 On ch=5 n=42 v=95
110880 Off ch=5 n=54 v=80
110880 Off ch=5 n=50 v=80
110880 Off ch=5 n=42 v=80
110880 On ch=5 n=54 v=95
110880 On ch=5 n=50 v=95
110880 On ch=5 n=42 v=95
111120 Off ch=5 n=54 v=80
111120 Off ch=5 n=50 v=80
111120 Off ch=5 n=42 v=80
111120 On ch=5 n=54 v=95
111120 On ch=5 n=50 v=95
111120 On ch=5 n=42 v=95
111360 Off ch=5 n=54 v=80
111360 Off ch=5 n=50 v=80
111360 Off ch=5 n=42 v=80
111360 On ch=5 n=52 v=95
111360 On ch=5 n=47 v=95
111360 On ch=5 n=40 v=95
111600 Off ch=5 n=52 v=80
111600 Off ch=5 n=47 v=80
111600 Off ch=5 n=40 v=80
111600 On ch=5 n=52 v=95
111600 On ch=5 n=47 v=95
111600 On ch=5 n=40 v=95
111840 Off ch=5 n=52 v=80
111840 Off ch=5 n=47 v=80
111840 Off ch=5 n=40 v=80
111840 On ch=5 n=52 v=95
111840 On ch=5 n=47 v=95
111840 On ch=5 n=40 v=95
112080 Off ch=5 n=52 v=80
112080 Off ch=5 n=47 v=80
112080 Off ch=5 n=40 v=80
112080 On ch=5 n=52 v=95
112080 On ch=5 n=47 v=95
112080 On ch=5 n=40 v=95
112320 Off ch=5 n=52 v=80
112320 Off ch=5 n=47 v=80
112320 Off ch=5 n=40 v=80
112320 On ch=5 n=52 v=95
112320 On ch=5 n=47 v=95
112320 On ch=5 n=40 v=95
112560 Off ch=5 n=52 v=80
112560 Off ch=5 n=47 v=80
112560 Off ch=5 n=40 v=80
112560 On ch=5 n=52 v=95
112560 On ch=5 n=47 v=95
112560 On ch=5 n=40 v=95
112800 Off ch=5 n=52 v=80
112800 Off ch=5 n=47 v=80
112800 Off ch=5 n=40 v=80
112800 On ch=5 n=52 v=95
112800 On ch=5 n=47 v=95
112800 On ch=5 n=40 v=95
113040 Off ch=5 n=52 v=80
113040 Off ch=5 n=47 v=80
113040 Off ch=5 n=40 v=80
113040 On ch=5 n=52 v=95
113040 On ch=5 n=47 v=95
113040 On ch=5 n=40 v=95
113280 Off ch=5 n=52 v=80
113280 Off ch=5 n=47 v=80
113280 Off ch=5 n=40 v=80
113280 On ch=5 n=59 v=95
113280 On ch=5 n=54 v=95
113280 On ch=5 n=47 v=95
113520 Off ch=5 n=59 v=80
113520 Off ch=5 n=54 v=80
113520 Off ch=5 n=47 v=80
113520 On ch=5 n=59 v=95
113520 On ch=5 n=54 v=95
113520 On ch=5 n=47 v=95
113760 Off ch=5 n=59 v=80
113760 Off ch=5 n=54 v=80
113760 Off ch=5 n=47 v=80
113760 On ch=5 n=59 v=95
113760 On ch=5 n=54 v=95
113760 On ch=5 n=47 v=95
114000 Off ch=5 n=59 v=80
114000 Off ch=5 n=54 v=80
114000 Off ch=5 n=47 v=80
114000 On ch=5 n=59 v=95
114000 On ch=5 n=54 v=95
114000 On ch=5 n=47 v=95
114240 Off ch=5 n=59 v=80
114240 Off ch=5 n=54 v=80
114240 Off ch=5 n=47 v=80
114240 On ch=5 n=59 v=95
114240 On ch=5 n=54 v=95
114240 On ch=5 n=47 v=95
114480 Off ch=5 n=59 v=80
114480 Off ch=5 n=54 v=80
114480 Off ch=5 n=47 v=80
114480 On ch=5 n=59 v=95
114480 On ch=5 n=54 v=95
114480 On ch=5 n=47 v=95
114720 Off ch=5 n=59 v=80
114720 Off ch=5 n=54 v=80
114720 Off ch=5 n=47 v=80
114720 On ch=5 n=59 v=95
114720 On ch=5 n=54 v=95
114720 On ch=5 n=47 v=95
114960 Off ch=5 n=59 v=80
114960 Off ch=5 n=54 v=80
114960 Off ch=5 n=47 v=80
114960 On ch=5 n=59 v=95
114960 On ch=5 n=54 v=95
114960 On ch=5 n=47 v=95
115200 Off ch=5 n=59 v=80
115200 Off ch=5 n=54 v=80
115200 Off ch=5 n=47 v=80
115200 On ch=5 n=60 v=95
115200 On ch=5 n=55 v=95
115200 On ch=5 n=48 v=95
115440 Off ch=5 n=60 v=80
115440 Off ch=5 n=55 v=80
115440 Off ch=5 n=48 v=80
115440 On ch=5 n=60 v=95
115440 On ch=5 n=55 v=95
115440 On ch=5 n=48 v=95
115680 Off ch=5 n=60 v=80
115680 Off ch=5 n=55 v=80
115680 Off ch=5 n=48 v=80
115680 On ch=5 n=60 v=95
115680 On ch=5 n=55 v=95
115680 On ch=5 n=48 v=95
115920 Off ch=5 n=60 v=80
115920 Off ch=5 n=55 v=80
115920 Off ch=5 n=48 v=80
115920 On ch=5 n=60 v=95
115920 On ch=5 n=55 v=95
115920 On ch=5 n=48 v=95
116160 Off ch=5 n=60 v=80
116160 Off ch=5 n=55 v=80
116160 Off ch=5 n=48 v=80
116160 On ch=5 n=60 v=95
116160 On ch=5 n=55 v=95
116160 On ch=5 n=48 v=95
116400 Off ch=5 n=60 v=80
116400 Off ch=5 n=55 v=80
116400 Off ch=5 n=48 v=80
116400 On ch=5 n=60 v=95
116400 On ch=5 n=55 v=95
116400 On ch=5 n=48 v=95
116640 Off ch=5 n=60 v=80
116640 Off ch=5 n=55 v=80
116640 Off ch=5 n=48 v=80
116640 On ch=5 n=60 v=95
116640 On ch=5 n=55 v=95
116640 On ch=5 n=48 v=95
116880 Off ch=5 n=60 v=80
116880 Off ch=5 n=55 v=80
116880 Off ch=5 n=48 v=80
116880 On ch=5 n=60 v=95
116880 On ch=5 n=55 v=95
116880 On ch=5 n=48 v=95
117120 Off ch=5 n=60 v=80
117120 Off ch=5 n=55 v=80
117120 Off ch=5 n=48 v=80
117120 On ch=5 n=55 v=95
117120 On ch=5 n=50 v=95
117120 On ch=5 n=43 v=95
117360 Off ch=5 n=55 v=80
117360 Off ch=5 n=50 v=80
117360 Off ch=5 n=43 v=80
117360 On ch=5 n=55 v=95
117360 On ch=5 n=50 v=95
117360 On ch=5 n=43 v=95
117600 Off ch=5 n=55 v=80
117600 Off ch=5 n=50 v=80
117600 Off ch=5 n=43 v=80
117600 On ch=5 n=55 v=95
117600 On ch=5 n=50 v=95
117600 On ch=5 n=43 v=95
117840 Off ch=5 n=55 v=80
117840 Off ch=5 n=50 v=80
117840 Off ch=5 n=43 v=80
117840 On ch=5 n=55 v=95
117840 On ch=5 n=50 v=95
117840 On ch=5 n=43 v=95
118080 Off ch=5 n=55 v=80
118080 Off ch=5 n=50 v=80
118080 Off ch=5 n=43 v=80
118080 On ch=5 n=54 v=95
118080 On ch=5 n=50 v=95
118080 On ch=5 n=42 v=95
118320 Off ch=5 n=54 v=80
118320 Off ch=5 n=50 v=80
118320 Off ch=5 n=42 v=80
118320 On ch=5 n=54 v=95
118320 On ch=5 n=50 v=95
118320 On ch=5 n=42 v=95
118560 Off ch=5 n=54 v=80
118560 Off ch=5 n=50 v=80
118560 Off ch=5 n=42 v=80
118560 On ch=5 n=54 v=95
118560 On ch=5 n=50 v=95
118560 On ch=5 n=42 v=95
118800 Off ch=5 n=54 v=80
118800 Off ch=5 n=50 v=80
118800 Off ch=5 n=42 v=80
118800 On ch=5 n=54 v=95
118800 On ch=5 n=50 v=95
118800 On ch=5 n=42 v=95
119040 Off ch=5 n=54 v=80
119040 Off ch=5 n=50 v=80
119040 Off ch=5 n=42 v=80
119040 On ch=5 n=52 v=95
119040 On ch=5 n=47 v=95
119040 On ch=5 n=40 v=95
119280 Off ch=5 n=52 v=80
119280 Off ch=5 n=47 v=80
119280 Off ch=5 n=40 v=80
119280 On ch=5 n=52 v=95
119280 On ch=5 n=47 v=95
119280 On ch=5 n=40 v=95
119520 Off ch=5 n=52 v=80
119520 Off ch=5 n=47 v=80
119520 Off ch=5 n=40 v=80
119520 On ch=5 n=52 v=95
119520 On ch=5 n=47 v=95
119520 On ch=5 n=40 v=95
119760 Off ch=5 n=52 v=80
119760 Off ch=5 n=47 v=80
119760 Off ch=5 n=40 v=80
119760 On ch=5 n=52 v=95
119760 On ch=5 n=47 v=95
119760 On ch=5 n=40 v=95
120000 Off ch=5 n=52 v=80
120000 Off ch=5 n=47 v=80
120000 Off ch=5 n=40 v=80
120000 On ch=5 n=52 v=95
120000 On ch=5 n=47 v=95
120000 On ch=5 n=40 v=95
120240 Off ch=5 n=52 v=80
120240 Off ch=5 n=47 v=80
120240 Off ch=5 n=40 v=80
120240 On ch=5 n=52 v=95
120240 On ch=5 n=47 v=95
120240 On ch=5 n=40 v=95
120480 Off ch=5 n=52 v=80
120480 Off ch=5 n=47 v=80
120480 Off ch=5 n=40 v=80
120480 On ch=5 n=52 v=95
120480 On ch=5 n=47 v=95
120480 On ch=5 n=40 v=95
120720 Off ch=5 n=52 v=80
120720 Off ch=5 n=47 v=80
120720 Off ch=5 n=40 v=80
120720 On ch=5 n=52 v=95
120720 On ch=5 n=47 v=95
120720 On ch=5 n=40 v=95
120960 Off ch=5 n=52 v=80
120960 Off ch=5 n=47 v=80
120960 Off ch=5 n=40 v=80
120960 On ch=5 n=59 v=95
120960 On ch=5 n=54 v=95
120960 On ch=5 n=47 v=95
121200 Off ch=5 n=59 v=80
121200 Off ch=5 n=54 v=80
121200 Off ch=5 n=47 v=80
121200 On ch=5 n=59 v=95
121200 On ch=5 n=54 v=95
121200 On ch=5 n=47 v=95
121440 Off ch=5 n=59 v=80
121440 Off ch=5 n=54 v=80
121440 Off ch=5 n=47 v=80
121440 On ch=5 n=59 v=95
121440 On ch=5 n=54 v=95
121440 On ch=5 n=47 v=95
121680 Off ch=5 n=59 v=80
121680 Off ch=5 n=54 v=80
121680 Off ch=5 n=47 v=80
121680 On ch=5 n=59 v=95
121680 On ch=5 n=54 v=95
121680 On ch=5 n=47 v=95
121920 Off ch=5 n=59 v=80
121920 Off ch=5 n=54 v=80
121920 Off ch=5 n=47 v=80
121920 On ch=5 n=59 v=95
121920 On ch=5 n=54 v=95
121920 On ch=5 n=47 v=95
122160 Off ch=5 n=59 v=80
122160 Off ch=5 n=54 v=80
122160 Off ch=5 n=47 v=80
122160 On ch=5 n=59 v=95
122160 On ch=5 n=54 v=95
122160 On ch=5 n=47 v=95
122400 Off ch=5 n=59 v=80
122400 Off ch=5 n=54 v=80
122400 Off ch=5 n=47 v=80
122400 On ch=5 n=59 v=95
122400 On ch=5 n=54 v=95
122400 On ch=5 n=47 v=95
122640 Off ch=5 n=59 v=80
122640 Off ch=5 n=54 v=80
122640 Off ch=5 n=47 v=80
122640 On ch=5 n=59 v=95
122640 On ch=5 n=54 v=95
122640 On ch=5 n=47 v=95
122880 Off ch=5 n=59 v=80
122880 Off ch=5 n=54 v=80
122880 Off ch=5 n=47 v=80
122880 On ch=5 n=60 v=95
122880 On ch=5 n=55 v=95
122880 On ch=5 n=48 v=95
123120 Off ch=5 n=60 v=80
123120 Off ch=5 n=55 v=80
123120 Off ch=5 n=48 v=80
123120 On ch=5 n=60 v=95
123120 On ch=5 n=55 v=95
123120 On ch=5 n=48 v=95
123360 Off ch=5 n=60 v=80
123360 Off ch=5 n=55 v=80
123360 Off ch=5 n=48 v=80
123360 On ch=5 n=60 v=95
123360 On ch=5 n=55 v=95
123360 On ch=5 n=48 v=95
123600 Off ch=5 n=60 v=80
123600 Off ch=5 n=55 v=80
123600 Off ch=5 n=48 v=80
123600 On ch=5 n=60 v=95
123600 On ch=5 n=55 v=95
123600 On ch=5 n=48 v=95
123840 Off ch=5 n=60 v=80
123840 Off ch=5 n=55 v=80
123840 Off ch=5 n=48 v=80
123840 On ch=5 n=60 v=95
123840 On ch=5 n=55 v=95
123840 On ch=5 n=48 v=95
124080 Off ch=5 n=60 v=80
124080 Off ch=5 n=55 v=80
124080 Off ch=5 n=48 v=80
124080 On ch=5 n=60 v=95
124080 On ch=5 n=55 v=95
124080 On ch=5 n=48 v=95
124320 Off ch=5 n=60 v=80
124320 Off ch=5 n=55 v=80
124320 Off ch=5 n=48 v=80
124320 On ch=5 n=60 v=95
124320 On ch=5 n=55 v=95
124320 On ch=5 n=48 v=95
124560 Off ch=5 n=60 v=80
124560 Off ch=5 n=55 v=80
124560 Off ch=5 n=48 v=80
124560 On ch=5 n=60 v=95
124560 On ch=5 n=55 v=95
124560 On ch=5 n=48 v=95
124800 Off ch=5 n=60 v=80
124800 Off ch=5 n=55 v=80
124800 Off ch=5 n=48 v=80
124800 On ch=5 n=62 v=95
124800 On ch=5 n=57 v=95
124800 On ch=5 n=50 v=95
125040 Off ch=5 n=62 v=80
125040 Off ch=5 n=57 v=80
125040 Off ch=5 n=50 v=80
125040 On ch=5 n=62 v=95
125040 On ch=5 n=57 v=95
125040 On ch=5 n=50 v=95
125280 Off ch=5 n=62 v=80
125280 Off ch=5 n=57 v=80
125280 Off ch=5 n=50 v=80
125280 On ch=5 n=62 v=95
125280 On ch=5 n=57 v=95
125280 On ch=5 n=50 v=95
125520 Off ch=5 n=62 v=80
125520 Off ch=5 n=57 v=80
125520 Off ch=5 n=50 v=80
125520 On ch=5 n=62 v=95
125520 On ch=5 n=57 v=95
125520 On ch=5 n=50 v=95
125760 Off ch=5 n=62 v=80
125760 Off ch=5 n=57 v=80
125760 Off ch=5 n=50 v=80
125760 On ch=5 n=62 v=95
125760 On ch=5 n=57 v=95
125760 On ch=5 n=50 v=95
126000 Off ch=5 n=62 v=80
126000 Off ch=5 n=57 v=80
126000 Off ch=5 n=50 v=80
126000 On ch=5 n=62 v=95
126000 On ch=5 n=57 v=95
126000 On ch=5 n=50 v=95
126240 Off ch=5 n=62 v=80
126240 Off ch=5 n=57 v=80
126240 Off ch=5 n=50 v=80
126240 On ch=5 n=62 v=95
126240 On ch=5 n=57 v=95
126240 On ch=5 n=50 v=95
126480 Off ch=5 n=62 v=80
126480 Off ch=5 n=57 v=80
126480 Off ch=5 n=50 v=80
126480 On ch=5 n=62 v=95
126480 On ch=5 n=57 v=95
126480 On ch=5 n=50 v=95
126720 Off ch=5 n=62 v=80
126720 Off ch=5 n=57 v=80
126720 Off ch=5 n=50 v=80
126720 On ch=5 n=55 v=95
126960 On ch=5 n=55 v=95
127200 On ch=5 n=62 v=95
127440 Off ch=5 n=55 v=80
127440 Off ch=5 n=55 v=80
127440 On ch=5 n=55 v=95
127680 Off ch=5 n=62 v=80
127680 On ch=5 n=55 v=95
127920 On ch=5 n=62 v=95
128640 Off ch=5 n=55 v=80
128640 Off ch=5 n=55 v=80
128640 Off ch=5 n=62 v=80
128640 On ch=5 n=54 v=95
128880 On ch=5 n=55 v=95
129120 On ch=5 n=62 v=95
129360 Off ch=5 n=54 v=80
129360 Off ch=5 n=55 v=80
129360 On ch=5 n=54 v=95
129600 Off ch=5 n=62 v=80
129600 On ch=5 n=55 v=95
129840 On ch=5 n=62 v=95
130560 Off ch=5 n=54 v=80
130560 Off ch=5 n=55 v=80
130560 Off ch=5 n=62 v=80
130560 On ch=5 n=52 v=95
130800 On ch=5 n=55 v=95
131040 On ch=5 n=62 v=95
131280 Off ch=5 n=52 v=80
131280 Off ch=5 n=55 v=80
131280 On ch=5 n=52 v=95
131520 Off ch=5 n=62 v=80
131520 On ch=5 n=55 v=95
131760 On ch=5 n=62 v=95
132480 Off ch=5 n=52 v=80
132480 Off ch=5 n=55 v=80
132480 Off ch=5 n=62 v=80
132480 On ch=5 n=50 v=95
132720 On ch=5 n=55 v=95
132960 On ch=5 n=62 v=95
133200 Off ch=5 n=50 v=80
133200 Off ch=5 n=55 v=80
133200 On ch=5 n=50 v=95
133440 Off ch=5 n=62 v=80
133440 On ch=5 n=55 v=95
133680 On ch=5 n=62 v=95
134400 Off ch=5 n=50 v=80
134400 Off ch=5 n=55 v=80
134400 Off ch=5 n=62 v=80
134400 On ch=5 n=60 v=95
134400 On ch=5 n=55 v=95
134400 On ch=5 n=48 v=95
134640 Off ch=5 n=60 v=80
134640 Off ch=5 n=55 v=80
134640 Off ch=5 n=48 v=80
134640 On ch=5 n=60 v=95
134640 On ch=5 n=55 v=95
134640 On ch=5 n=48 v=95
134880 Off ch=5 n=60 v=80
134880 Off ch=5 n=55 v=80
134880 Off ch=5 n=48 v=80
134880 On ch=5 n=60 v=95
134880 On ch=5 n=55 v=95
134880 On ch=5 n=48 v=95
135120 Off ch=5 n=60 v=80
135120 Off ch=5 n=55 v=80
135120 Off ch=5 n=48 v=80
135120 On ch=5 n=60 v=95
135120 On ch=5 n=55 v=95
135120 On ch=5 n=48 v=95
135360 Off ch=5 n=60 v=80
135360 Off ch=5 n=55 v=80
135360 Off ch=5 n=48 v=80
135360 On ch=5 n=60 v=95
135360 On ch=5 n=55 v=95
135360 On ch=5 n=48 v=95
135600 Off ch=5 n=60 v=80
135600 Off ch=5 n=55 v=80
135600 Off ch=5 n=48 v=80
135600 On ch=5 n=60 v=95
135600 On ch=5 n=55 v=95
135600 On ch=5 n=48 v=95
135840 Off ch=5 n=60 v=80
135840 Off ch=5 n=55 v=80
135840 Off ch=5 n=48 v=80
135840 On ch=5 n=60 v=95
135840 On ch=5 n=55 v=95
135840 On ch=5 n=48 v=95
136080 Off ch=5 n=60 v=80
136080 Off ch=5 n=55 v=80
136080 Off ch=5 n=48 v=80
136080 On ch=5 n=60 v=95
136080 On ch=5 n=55 v=95
136080 On ch=5 n=48 v=95
136320 Off ch=5 n=60 v=80
136320 Off ch=5 n=55 v=80
136320 Off ch=5 n=48 v=80
136320 On ch=5 n=63 v=95
136320 On ch=5 n=60 v=95
136320 On ch=5 n=55 v=95
136320 On ch=5 n=48 v=95
136560 Off ch=5 n=63 v=80
136560 Off ch=5 n=60 v=80
136560 Off ch=5 n=55 v=80
136560 Off ch=5 n=48 v=80
136560 On ch=5 n=63 v=95
136560 On ch=5 n=60 v=95
136560 On ch=5 n=55 v=95
136560 On ch=5 n=48 v=95
136800 Off ch=5 n=63 v=80
136800 Off ch=5 n=60 v=80
136800 Off ch=5 n=55 v=80
136800 Off ch=5 n=48 v=80
136800 On ch=5 n=63 v=95
136800 On ch=5 n=60 v=95
136800 On ch=5 n=55 v=95
136800 On ch=5 n=48 v=95
137040 Off ch=5 n=63 v=80
137040 Off ch=5 n=60 v=80
137040 Off ch=5 n=55 v=80
137040 Off ch=5 n=48 v=80
137040 On ch=5 n=63 v=95
137040 On ch=5 n=60 v=95
137040 On ch=5 n=55 v=95
137040 On ch=5 n=48 v=95
137280 Off ch=5 n=63 v=80
137280 Off ch=5 n=60 v=80
137280 Off ch=5 n=55 v=80
137280 Off ch=5 n=48 v=80
137280 On ch=5 n=63 v=95
137280 On ch=5 n=60 v=95
137280 On ch=5 n=55 v=95
137280 On ch=5 n=48 v=95
137520 Off ch=5 n=63 v=80
137520 Off ch=5 n=60 v=80
137520 Off ch=5 n=55 v=80
137520 Off ch=5 n=48 v=80
137520 On ch=5 n=63 v=95
137520 On ch=5 n=60 v=95
137520 On ch=5 n=55 v=95
137520 On ch=5 n=48 v=95
137760 Off ch=5 n=63 v=80
137760 Off ch=5 n=60 v=80
137760 Off ch=5 n=55 v=80
137760 Off ch=5 n=48 v=80
137760 On ch=5 n=63 v=95
137760 On ch=5 n=60 v=95
137760 On ch=5 n=55 v=95
137760 On ch=5 n=48 v=95
138000 Off ch=5 n=63 v=80
138000 Off ch=5 n=60 v=80
138000 Off ch=5 n=55 v=80
138000 Off ch=5 n=48 v=80
138000 On ch=5 n=63 v=95
138000 On ch=5 n=60 v=95
138000 On ch=5 n=55 v=95
138000 On ch=5 n=48 v=95
138240 Off ch=5 n=63 v=80
138240 Off ch=5 n=60 v=80
138240 Off ch=5 n=55 v=80
138240 Off ch=5 n=48 v=80
138240 On ch=5 n=55 v=95
138240 On ch=5 n=50 v=95
138240 On ch=5 n=43 v=95
138480 Off ch=5 n=55 v=80
138480 Off ch=5 n=50 v=80
138480 Off ch=5 n=43 v=80
138480 On ch=5 n=55 v=95
138480 On ch=5 n=50 v=95
138480 On ch=5 n=43 v=95
138720 Off ch=5 n=55 v=80
138720 Off ch=5 n=50 v=80
138720 Off ch=5 n=43 v=80
138720 On ch=5 n=55 v=95
138720 On ch=5 n=50 v=95
138720 On ch=5 n=43 v=95
138960 Off ch=5 n=55 v=80
138960 Off ch=5 n=50 v=80
138960 Off ch=5 n=43 v=80
138960 On ch=5 n=55 v=95
138960 On ch=5 n=50 v=95
138960 On ch=5 n=43 v=95
139200 Off ch=5 n=55 v=80
139200 Off ch=5 n=50 v=80
139200 Off ch=5 n=43 v=80
139200 On ch=5 n=55 v=95
139200 On ch=5 n=50 v=95
139200 On ch=5 n=43 v=95
139440 Off ch=5 n=55 v=80
139440 Off ch=5 n=50 v=80
139440 Off ch=5 n=43 v=80
139440 On ch=5 n=55 v=95
139440 On ch=5 n=50 v=95
139440 On ch=5 n=43 v=95
139680 Off ch=5 n=55 v=80
139680 Off ch=5 n=50 v=80
139680 Off ch=5 n=43 v=80
139680 On ch=5 n=55 v=95
139680 On ch=5 n=50 v=95
139680 On ch=5 n=43 v=95
139920 Off ch=5 n=55 v=80
139920 Off ch=5 n=50 v=80
139920 Off ch=5 n=43 v=80
139920 On ch=5 n=55 v=95
139920 On ch=5 n=50 v=95
139920 On ch=5 n=43 v=95
140160 Off ch=5 n=55 v=80
140160 Off ch=5 n=50 v=80
140160 Off ch=5 n=43 v=80
140160 On ch=5 n=55 v=95
140160 On ch=5 n=50 v=95
140160 On ch=5 n=43 v=95
140400 Off ch=5 n=55 v=80
140400 Off ch=5 n=50 v=80
140400 Off ch=5 n=43 v=80
140400 On ch=5 n=55 v=95
140400 On ch=5 n=50 v=95
140400 On ch=5 n=43 v=95
140640 Off ch=5 n=55 v=80
140640 Off ch=5 n=50 v=80
140640 Off ch=5 n=43 v=80
140640 On ch=5 n=55 v=95
140640 On ch=5 n=50 v=95
140640 On ch=5 n=43 v=95
140880 Off ch=5 n=55 v=80
140880 Off ch=5 n=50 v=80
140880 Off ch=5 n=43 v=80
140880 On ch=5 n=55 v=95
140880 On ch=5 n=50 v=95
140880 On ch=5 n=43 v=95
141120 Off ch=5 n=55 v=80
141120 Off ch=5 n=50 v=80
141120 Off ch=5 n=43 v=80
141120 On ch=5 n=54 v=95
141120 On ch=5 n=50 v=95
141120 On ch=5 n=42 v=95
141360 Off ch=5 n=54 v=80
141360 Off ch=5 n=50 v=80
141360 Off ch=5 n=42 v=80
141360 On ch=5 n=54 v=95
141360 On ch=5 n=50 v=95
141360 On ch=5 n=42 v=95
141600 Off ch=5 n=54 v=80
141600 Off ch=5 n=50 v=80
141600 Off ch=5 n=42 v=80
141600 On ch=5 n=54 v=95
141600 On ch=5 n=50 v=95
141600 On ch=5 n=42 v=95
141840 Off ch=5 n=54 v=80
141840 Off ch=5 n=50 v=80
141840 Off ch=5 n=42 v=80
141840 On ch=5 n=54 v=95
141840 On ch=5 n=50 v=95
141840 On ch=5 n=42 v=95
142080 Off ch=5 n=54 v=80
142080 Off ch=5 n=50 v=80
142080 Off ch=5 n=42 v=80
142080 On ch=5 n=52 v=95
142080 On ch=5 n=47 v=95
142080 On ch=5 n=40 v=95
142320 Off ch=5 n=52 v=80
142320 Off ch=5 n=47 v=80
142320 Off ch=5 n=40 v=80
142320 On ch=5 n=52 v=95
142320 On ch=5 n=47 v=95
142320 On ch=5 n=40 v=95
142560 Off ch=5 n=52 v=80
142560 Off ch=5 n=47 v=80
142560 Off ch=5 n=40 v=80
142560 On ch=5 n=52 v=95
142560 On ch=5 n=47 v=95
142560 On ch=5 n=40 v=95
142800 Off ch=5 n=52 v=80
142800 Off ch=5 n=47 v=80
142800 Off ch=5 n=40 v=80
142800 On ch=5 n=52 v=95
142800 On ch=5 n=47 v=95
142800 On ch=5 n=40 v=95
143040 Off ch=5 n=52 v=80
143040 Off ch=5 n=47 v=80
143040 Off ch=5 n=40 v=80
143040 On ch=5 n=52 v=95
143040 On ch=5 n=47 v=95
143040 On ch=5 n=40 v=95
143280 Off ch=5 n=52 v=80
143280 Off ch=5 n=47 v=80
143280 Off ch=5 n=40 v=80
143280 On ch=5 n=52 v=95
143280 On ch=5 n=47 v=95
143280 On ch=5 n=40 v=95
143520 Off ch=5 n=52 v=80
143520 Off ch=5 n=47 v=80
143520 Off ch=5 n=40 v=80
143520 On ch=5 n=52 v=95
143520 On ch=5 n=47 v=95
143520 On ch=5 n=40 v=95
143760 Off ch=5 n=52 v=80
143760 Off ch=5 n=47 v=80
143760 Off ch=5 n=40 v=80
143760 On ch=5 n=52 v=95
143760 On ch=5 n=47 v=95
143760 On ch=5 n=40 v=95
144000 Off ch=5 n=52 v=80
144000 Off ch=5 n=47 v=80
144000 Off ch=5 n=40 v=80
144000 On ch=5 n=59 v=95
144000 On ch=5 n=54 v=95
144000 On ch=5 n=47 v=95
144240 Off ch=5 n=59 v=80
144240 Off ch=5 n=54 v=80
144240 Off ch=5 n=47 v=80
144240 On ch=5 n=59 v=95
144240 On ch=5 n=54 v=95
144240 On ch=5 n=47 v=95
144480 Off ch=5 n=59 v=80
144480 Off ch=5 n=54 v=80
144480 Off ch=5 n=47 v=80
144480 On ch=5 n=59 v=95
144480 On ch=5 n=54 v=95
144480 On ch=5 n=47 v=95
144720 Off ch=5 n=59 v=80
144720 Off ch=5 n=54 v=80
144720 Off ch=5 n=47 v=80
144720 On ch=5 n=59 v=95
144720 On ch=5 n=54 v=95
144720 On ch=5 n=47 v=95
144960 Off ch=5 n=59 v=80
144960 Off ch=5 n=54 v=80
144960 Off ch=5 n=47 v=80
144960 On ch=5 n=59 v=95
144960 On ch=5 n=54 v=95
144960 On ch=5 n=47 v=95
145200 Off ch=5 n=59 v=80
145200 Off ch=5 n=54 v=80
145200 Off ch=5 n=47 v=80
145200 On ch=5 n=59 v=95
145200 On ch=5 n=54 v=95
145200 On ch=5 n=47 v=95
145440 Off ch=5 n=59 v=80
145440 Off ch=5 n=54 v=80
145440 Off ch=5 n=47 v=80
145440 On ch=5 n=59 v=95
145440 On ch=5 n=54 v=95
145440 On ch=5 n=47 v=95
145680 Off ch=5 n=59 v=80
145680 Off ch=5 n=54 v=80
145680 Off ch=5 n=47 v=80
145680 On ch=5 n=59 v=95
145680 On ch=5 n=54 v=95
145680 On ch=5 n=47 v=95
145920 Off ch=5 n=59 v=80
145920 Off ch=5 n=54 v=80
145920 Off ch=5 n=47 v=80
145920 On ch=5 n=60 v=95
145920 On ch=5 n=55 v=95
145920 On ch=5 n=48 v=95
146160 Off ch=5 n=60 v=80
146160 Off ch=5 n=55 v=80
146160 Off ch=5 n=48 v=80
146160 On ch=5 n=60 v=95
146160 On ch=5 n=55 v=95
146160 On ch=5 n=48 v=95
146400 Off ch=5 n=60 v=80
146400 Off ch=5 n=55 v=80
146400 Off ch=5 n=48 v=80
146400 On ch=5 n=60 v=95
146400 On ch=5 n=55 v=95
146400 On ch=5 n=48 v=95
146640 Off ch=5 n=60 v=80
146640 Off ch=5 n=55 v=80
146640 Off ch=5 n=48 v=80
146640 On ch=5 n=60 v=95
146640 On ch=5 n=55 v=95
146640 On ch=5 n=48 v=95
146880 Off ch=5 n=60 v=80
146880 Off ch=5 n=55 v=80
146880 Off ch=5 n=48 v=80
146880 On ch=5 n=60 v=95
146880 On ch=5 n=55 v=95
146880 On ch=5 n=48 v=95
147120 Off ch=5 n=60 v=80
147120 Off ch=5 n=55 v=80
147120 Off ch=5 n=48 v=80
147120 On ch=5 n=60 v=95
147120 On ch=5 n=55 v=95
147120 On ch=5 n=48 v=95
147360 Off ch=5 n=60 v=80
147360 Off ch=5 n=55 v=80
147360 Off ch=5 n=48 v=80
147360 On ch=5 n=60 v=95
147360 On ch=5 n=55 v=95
147360 On ch=5 n=48 v=95
147600 Off ch=5 n=60 v=80
147600 Off ch=5 n=55 v=80
147600 Off ch=5 n=48 v=80
147600 On ch=5 n=60 v=95
147600 On ch=5 n=55 v=95
147600 On ch=5 n=48 v=95
147840 Off ch=5 n=60 v=80
147840 Off ch=5 n=55 v=80
147840 Off ch=5 n=48 v=80
147840 On ch=5 n=55 v=95
147840 On ch=5 n=50 v=95
147840 On ch=5 n=43 v=95
148080 Off ch=5 n=55 v=80
148080 Off ch=5 n=50 v=80
148080 Off ch=5 n=43 v=80
148080 On ch=5 n=55 v=95
148080 On ch=5 n=50 v=95
148080 On ch=5 n=43 v=95
148320 Off ch=5 n=55 v=80
148320 Off ch=5 n=50 v=80
148320 Off ch=5 n=43 v=80
148320 On ch=5 n=55 v=95
148320 On ch=5 n=50 v=95
148320 On ch=5 n=43 v=95
148560 Off ch=5 n=55 v=80
148560 Off ch=5 n=50 v=80
148560 Off ch=5 n=43 v=80
148560 On ch=5 n=55 v=95
148560 On ch=5 n=50 v=95
148560 On ch=5 n=43 v=95
148800 Off ch=5 n=55 v=80
148800 Off ch=5 n=50 v=80
148800 Off ch=5 n=43 v=80
148800 On ch=5 n=54 v=95
148800 On ch=5 n=50 v=95
148800 On ch=5 n=42 v=95
149040 Off ch=5 n=54 v=80
149040 Off ch=5 n=50 v=80
149040 Off ch=5 n=42 v=80
149040 On ch=5 n=54 v=95
149040 On ch=5 n=50 v=95
149040 On ch=5 n=42 v=95
149280 Off ch=5 n=54 v=80
149280 Off ch=5 n=50 v=80
149280 Off ch=5 n=42 v=80
149280 On ch=5 n=54 v=95
149280 On ch=5 n=50 v=95
149280 On ch=5 n=42 v=95
149520 Off ch=5 n=54 v=80
149520 Off ch=5 n=50 v=80
149520 Off ch=5 n=42 v=80
149520 On ch=5 n=54 v=95
149520 On ch=5 n=50 v=95
149520 On ch=5 n=42 v=95
149760 Off ch=5 n=54 v=80
149760 Off ch=5 n=50 v=80
149760 Off ch=5 n=42 v=80
149760 On ch=5 n=52 v=95
149760 On ch=5 n=47 v=95
149760 On ch=5 n=40 v=95
150000 Off ch=5 n=52 v=80
150000 Off ch=5 n=47 v=80
150000 Off ch=5 n=40 v=80
150000 On ch=5 n=52 v=95
150000 On ch=5 n=47 v=95
150000 On ch=5 n=40 v=95
150240 Off ch=5 n=52 v=80
150240 Off ch=5 n=47 v=80
150240 Off ch=5 n=40 v=80
150240 On ch=5 n=52 v=95
150240 On ch=5 n=47 v=95
150240 On ch=5 n=40 v=95
150480 Off ch=5 n=52 v=80
150480 Off ch=5 n=47 v=80
150480 Off ch=5 n=40 v=80
150480 On ch=5 n=52 v=95
150480 On ch=5 n=47 v=95
150480 On ch=5 n=40 v=95
150720 Off ch=5 n=52 v=80
150720 Off ch=5 n=47 v=80
150720 Off ch=5 n=40 v=80
150720 On ch=5 n=52 v=95
150720 On ch=5 n=47 v=95
150720 On ch=5 n=40 v=95
150960 Off ch=5 n=52 v=80
150960 Off ch=5 n=47 v=80
150960 Off ch=5 n=40 v=80
150960 On ch=5 n=52 v=95
150960 On ch=5 n=47 v=95
150960 On ch=5 n=40 v=95
151200 Off ch=5 n=52 v=80
151200 Off ch=5 n=47 v=80
151200 Off ch=5 n=40 v=80
151200 On ch=5 n=52 v=95
151200 On ch=5 n=47 v=95
151200 On ch=5 n=40 v=95
151440 Off ch=5 n=52 v=80
151440 Off ch=5 n=47 v=80
151440 Off ch=5 n=40 v=80
151440 On ch=5 n=52 v=95
151440 On ch=5 n=47 v=95
151440 On ch=5 n=40 v=95
151680 Off ch=5 n=52 v=80
151680 Off ch=5 n=47 v=80
151680 Off ch=5 n=40 v=80
151680 On ch=5 n=59 v=95
151680 On ch=5 n=54 v=95
151680 On ch=5 n=47 v=95
151920 Off ch=5 n=59 v=80
151920 Off ch=5 n=54 v=80
151920 Off ch=5 n=47 v=80
151920 On ch=5 n=59 v=95
151920 On ch=5 n=54 v=95
151920 On ch=5 n=47 v=95
152160 Off ch=5 n=59 v=80
152160 Off ch=5 n=54 v=80
152160 Off ch=5 n=47 v=80
152160 On ch=5 n=59 v=95
152160 On ch=5 n=54 v=95
152160 On ch=5 n=47 v=95
152400 Off ch=5 n=59 v=80
152400 Off ch=5 n=54 v=80
152400 Off ch=5 n=47 v=80
152400 On ch=5 n=59 v=95
152400 On ch=5 n=54 v=95
152400 On ch=5 n=47 v=95
152640 Off ch=5 n=59 v=80
152640 Off ch=5 n=54 v=80
152640 Off ch=5 n=47 v=80
152640 On ch=5 n=59 v=95
152640 On ch=5 n=54 v=95
152640 On ch=5 n=47 v=95
152880 Off ch=5 n=59 v=80
152880 Off ch=5 n=54 v=80
152880 Off ch=5 n=47 v=80
152880 On ch=5 n=59 v=95
152880 On ch=5 n=54 v=95
152880 On ch=5 n=47 v=95
153120 Off ch=5 n=59 v=80
153120 Off ch=5 n=54 v=80
153120 Off ch=5 n=47 v=80
153120 On ch=5 n=59 v=95
153120 On ch=5 n=54 v=95
153120 On ch=5 n=47 v=95
153360 Off ch=5 n=59 v=80
153360 Off ch=5 n=54 v=80
153360 Off ch=5 n=47 v=80
153360 On ch=5 n=59 v=95
153360 On ch=5 n=54 v=95
153360 On ch=5 n=47 v=95
153600 Off ch=5 n=59 v=80
153600 Off ch=5 n=54 v=80
153600 Off ch=5 n=47 v=80
153600 On ch=5 n=60 v=95
153600 On ch=5 n=55 v=95
153600 On ch=5 n=48 v=95
153840 Off ch=5 n=60 v=80
153840 Off ch=5 n=55 v=80
153840 Off ch=5 n=48 v=80
153840 On ch=5 n=60 v=95
153840 On ch=5 n=55 v=95
153840 On ch=5 n=48 v=95
154080 Off ch=5 n=60 v=80
154080 Off ch=5 n=55 v=80
154080 Off ch=5 n=48 v=80
154080 On ch=5 n=60 v=95
154080 On ch=5 n=55 v=95
154080 On ch=5 n=48 v=95
154320 Off ch=5 n=60 v=80
154320 Off ch=5 n=55 v=80
154320 Off ch=5 n=48 v=80
154320 On ch=5 n=60 v=95
154320 On ch=5 n=55 v=95
154320 On ch=5 n=48 v=95
154560 Off ch=5 n=60 v=80
154560 Off ch=5 n=55 v=80
154560 Off ch=5 n=48 v=80
154560 On ch=5 n=60 v=95
154560 On ch=5 n=55 v=95
154560 On ch=5 n=48 v=95
154800 Off ch=5 n=60 v=80
154800 Off ch=5 n=55 v=80
154800 Off ch=5 n=48 v=80
154800 On ch=5 n=60 v=95
154800 On ch=5 n=55 v=95
154800 On ch=5 n=48 v=95
155040 Off ch=5 n=60 v=80
155040 Off ch=5 n=55 v=80
155040 Off ch=5 n=48 v=80
155040 On ch=5 n=60 v=95
155040 On ch=5 n=55 v=95
155040 On ch=5 n=48 v=95
155280 Off ch=5 n=60 v=80
155280 Off ch=5 n=55 v=80
155280 Off ch=5 n=48 v=80
155280 On ch=5 n=60 v=95
155280 On ch=5 n=55 v=95
155280 On ch=5 n=48 v=95
155520 Off ch=5 n=60 v=80
155520 Off ch=5 n=55 v=80
155520 Off ch=5 n=48 v=80
155520 On ch=5 n=62 v=95
155520 On ch=5 n=57 v=95
155520 On ch=5 n=50 v=95
155760 Off ch=5 n=62 v=80
155760 Off ch=5 n=57 v=80
155760 Off ch=5 n=50 v=80
155760 On ch=5 n=62 v=95
155760 On ch=5 n=57 v=95
155760 On ch=5 n=50 v=95
156000 Off ch=5 n=62 v=80
156000 Off ch=5 n=57 v=80
156000 Off ch=5 n=50 v=80
156000 On ch=5 n=62 v=95
156000 On ch=5 n=57 v=95
156000 On ch=5 n=50 v=95
156240 Off ch=5 n=62 v=80
156240 Off ch=5 n=57 v=80
156240 Off ch=5 n=50 v=80
156240 On ch=5 n=62 v=95
156240 On ch=5 n=57 v=95
156240 On ch=5 n=50 v=95
156480 Off ch=5 n=62 v=80
156480 Off ch=5 n=57 v=80
156480 Off ch=5 n=50 v=80
156480 On ch=5 n=62 v=95
156480 On ch=5 n=57 v=95
156480 On ch=5 n=50 v=95
156720 Off ch=5 n=62 v=80
156720 Off ch=5 n=57 v=80
156720 Off ch=5 n=50 v=80
156720 On ch=5 n=62 v=95
156720 On ch=5 n=57 v=95
156720 On ch=5 n=50 v=95
156960 Off ch=5 n=62 v=80
156960 Off ch=5 n=57 v=80
156960 Off ch=5 n=50 v=80
156960 On ch=5 n=62 v=95
156960 On ch=5 n=57 v=95
156960 On ch=5 n=50 v=95
157200 Off ch=5 n=62 v=80
157200 Off ch=5 n=57 v=80
157200 Off ch=5 n=50 v=80
157200 On ch=5 n=62 v=95
157200 On ch=5 n=57 v=95
157200 On ch=5 n=50 v=95
157440 Off ch=5 n=62 v=80
157440 Off ch=5 n=57 v=80
157440 Off ch=5 n=50 v=80
157440 On ch=5 n=62 v=95
157440 On ch=5 n=57 v=95
157440 On ch=5 n=50 v=95
157680 Off ch=5 n=62 v=80
157680 Off ch=5 n=57 v=80
157680 Off ch=5 n=50 v=80
157680 On ch=5 n=62 v=95
157680 On ch=5 n=57 v=95
157680 On ch=5 n=50 v=95
157920 Off ch=5 n=62 v=80
157920 Off ch=5 n=57 v=80
157920 Off ch=5 n=50 v=80
157920 On ch=5 n=62 v=95
157920 On ch=5 n=57 v=95
157920 On ch=5 n=50 v=95
158160 Off ch=5 n=62 v=80
158160 Off ch=5 n=57 v=80
158160 Off ch=5 n=50 v=80
158160 On ch=5 n=62 v=95
158160 On ch=5 n=57 v=95
158160 On ch=5 n=50 v=95
158400 Off ch=5 n=62 v=80
158400 Off ch=5 n=57 v=80
158400 Off ch=5 n=50 v=80
158400 On ch=5 n=62 v=95
158400 On ch=5 n=57 v=95
158400 On ch=5 n=50 v=95
158640 Off ch=5 n=62 v=80
158640 Off ch=5 n=57 v=80
158640 Off ch=5 n=50 v=80
158640 On ch=5 n=62 v=95
158640 On ch=5 n=57 v=95
158640 On ch=5 n=50 v=95
158880 Off ch=5 n=62 v=80
158880 Off ch=5 n=57 v=80
158880 Off ch=5 n=50 v=80
158880 On ch=5 n=62 v=95
158880 On ch=5 n=57 v=95
158880 On ch=5 n=50 v=95
159120 Off ch=5 n=62 v=80
159120 Off ch=5 n=57 v=80
159120 Off ch=5 n=50 v=80
159120 On ch=5 n=62 v=95
159120 On ch=5 n=57 v=95
159120 On ch=5 n=50 v=95
159360 Off ch=5 n=62 v=80
159360 Off ch=5 n=57 v=80
159360 Off ch=5 n=50 v=80
159360 On ch=5 n=62 v=95
159360 On ch=5 n=57 v=95
159360 On ch=5 n=50 v=95
159600 Off ch=5 n=62 v=80
159600 Off ch=5 n=57 v=80
159600 Off ch=5 n=50 v=80
159600 On ch=5 n=62 v=95
159600 On ch=5 n=57 v=95
159600 On ch=5 n=50 v=95
159840 Off ch=5 n=62 v=80
159840 Off ch=5 n=57 v=80
159840 Off ch=5 n=50 v=80
159840 On ch=5 n=62 v=95
159840 On ch=5 n=57 v=95
159840 On ch=5 n=50 v=95
160080 Off ch=5 n=62 v=80
160080 Off ch=5 n=57 v=80
160080 Off ch=5 n=50 v=80
160080 On ch=5 n=62 v=95
160080 On ch=5 n=57 v=95
160080 On ch=5 n=50 v=95
160320 Off ch=5 n=62 v=80
160320 Off ch=5 n=57 v=80
160320 Off ch=5 n=50 v=80
160320 On ch=5 n=62 v=95
160320 On ch=5 n=57 v=95
160320 On ch=5 n=50 v=95
160560 Off ch=5 n=62 v=80
160560 Off ch=5 n=57 v=80
160560 Off ch=5 n=50 v=80
160560 On ch=5 n=62 v=95
160560 On ch=5 n=57 v=95
160560 On ch=5 n=50 v=95
160800 Off ch=5 n=62 v=80
160800 Off ch=5 n=57 v=80
160800 Off ch=5 n=50 v=80
160800 On ch=5 n=62 v=95
160800 On ch=5 n=57 v=95
160800 On ch=5 n=50 v=95
161040 Off ch=5 n=62 v=80
161040 Off ch=5 n=57 v=80
161040 Off ch=5 n=50 v=80
161040 On ch=5 n=62 v=95
161040 On ch=5 n=57 v=95
161040 On ch=5 n=50 v=95
161280 Off ch=5 n=62 v=80
161280 Off ch=5 n=57 v=80
161280 Off ch=5 n=50 v=80
161280 On ch=5 n=62 v=95
161280 On ch=5 n=57 v=95
161280 On ch=5 n=50 v=95
161520 Off ch=5 n=62 v=80
161520 Off ch=5 n=57 v=80
161520 Off ch=5 n=50 v=80
161520 On ch=5 n=62 v=95
161520 On ch=5 n=57 v=95
161520 On ch=5 n=50 v=95
161760 Off ch=5 n=62 v=80
161760 Off ch=5 n=57 v=80
161760 Off ch=5 n=50 v=80
161760 On ch=5 n=62 v=95
161760 On ch=5 n=57 v=95
161760 On ch=5 n=50 v=95
162000 Off ch=5 n=62 v=80
162000 Off ch=5 n=57 v=80
162000 Off ch=5 n=50 v=80
162000 On ch=5 n=62 v=95
162000 On ch=5 n=57 v=95
162000 On ch=5 n=50 v=95
162240 Off ch=5 n=62 v=80
162240 Off ch=5 n=57 v=80
162240 Off ch=5 n=50 v=80
162240 On ch=5 n=62 v=95
162240 On ch=5 n=57 v=95
162240 On ch=5 n=50 v=95
162480 Off ch=5 n=62 v=80
162480 Off ch=5 n=57 v=80
162480 Off ch=5 n=50 v=80
162480 On ch=5 n=62 v=95
162480 On ch=5 n=57 v=95
162480 On ch=5 n=50 v=95
162720 Off ch=5 n=62 v=80
162720 Off ch=5 n=57 v=80
162720 Off ch=5 n=50 v=80
162720 On ch=5 n=62 v=95
162720 On ch=5 n=57 v=95
162720 On ch=5 n=50 v=95
162960 Off ch=5 n=62 v=80
162960 Off ch=5 n=57 v=80
162960 Off ch=5 n=50 v=80
162960 On ch=5 n=62 v=95
162960 On ch=5 n=57 v=95
162960 On ch=5 n=50 v=95
163200 Off ch=5 n=62 v=80
163200 Off ch=5 n=57 v=80
163200 Off ch=5 n=50 v=80
178560 On ch=5 n=60 v=95
178560 On ch=5 n=55 v=95
178560 On ch=5 n=48 v=95
178800 Off ch=5 n=60 v=80
178800 Off ch=5 n=55 v=80
178800 Off ch=5 n=48 v=80
178800 On ch=5 n=60 v=95
178800 On ch=5 n=55 v=95
178800 On ch=5 n=48 v=95
179040 Off ch=5 n=60 v=80
179040 Off ch=5 n=55 v=80
179040 Off ch=5 n=48 v=80
179040 On ch=5 n=60 v=95
179040 On ch=5 n=55 v=95
179040 On ch=5 n=48 v=95
179280 Off ch=5 n=60 v=80
179280 Off ch=5 n=55 v=80
179280 Off ch=5 n=48 v=80
179280 On ch=5 n=60 v=95
179280 On ch=5 n=55 v=95
179280 On ch=5 n=48 v=95
179520 Off ch=5 n=60 v=80
179520 Off ch=5 n=55 v=80
179520 Off ch=5 n=48 v=80
179520 On ch=5 n=60 v=95
179520 On ch=5 n=55 v=95
179520 On ch=5 n=48 v=95
179760 Off ch=5 n=60 v=80
179760 Off ch=5 n=55 v=80
179760 Off ch=5 n=48 v=80
179760 On ch=5 n=60 v=95
179760 On ch=5 n=55 v=95
179760 On ch=5 n=48 v=95
180000 Off ch=5 n=60 v=80
180000 Off ch=5 n=55 v=80
180000 Off ch=5 n=48 v=80
180000 On ch=5 n=60 v=95
180000 On ch=5 n=55 v=95
180000 On ch=5 n=48 v=95
180240 Off ch=5 n=60 v=80
180240 Off ch=5 n=55 v=80
180240 Off ch=5 n=48 v=80
180240 On ch=5 n=60 v=95
180240 On ch=5 n=55 v=95
180240 On ch=5 n=48 v=95
180480 Off ch=5 n=60 v=80
180480 Off ch=5 n=55 v=80
180480 Off ch=5 n=48 v=80
180480 On ch=5 n=63 v=95
180480 On ch=5 n=60 v=95
180480 On ch=5 n=55 v=95
180480 On ch=5 n=48 v=95
180720 Off ch=5 n=63 v=80
180720 Off ch=5 n=60 v=80
180720 Off ch=5 n=55 v=80
180720 Off ch=5 n=48 v=80
180720 On ch=5 n=63 v=95
180720 On ch=5 n=60 v=95
180720 On ch=5 n=55 v=95
180720 On ch=5 n=48 v=95
180960 Off ch=5 n=63 v=80
180960 Off ch=5 n=60 v=80
180960 Off ch=5 n=55 v=80
180960 Off ch=5 n=48 v=80
180960 On ch=5 n=63 v=95
180960 On ch=5 n=60 v=95
180960 On ch=5 n=55 v=95
180960 On ch=5 n=48 v=95
181200 Off ch=5 n=63 v=80
181200 Off ch=5 n=60 v=80
181200 Off ch=5 n=55 v=80
181200 Off ch=5 n=48 v=80
181200 On ch=5 n=63 v=95
181200 On ch=5 n=60 v=95
181200 On ch=5 n=55 v=95
181200 On ch=5 n=48 v=95
181440 Off ch=5 n=63 v=80
181440 Off ch=5 n=60 v=80
181440 Off ch=5 n=55 v=80
181440 Off ch=5 n=48 v=80
181440 On ch=5 n=63 v=95
181440 On ch=5 n=60 v=95
181440 On ch=5 n=55 v=95
181440 On ch=5 n=48 v=95
181680 Off ch=5 n=63 v=80
181680 Off ch=5 n=60 v=80
181680 Off ch=5 n=55 v=80
181680 Off ch=5 n=48 v=80
181680 On ch=5 n=63 v=95
181680 On ch=5 n=60 v=95
181680 On ch=5 n=55 v=95
181680 On ch=5 n=48 v=95
181920 Off ch=5 n=63 v=80
181920 Off ch=5 n=60 v=80
181920 Off ch=5 n=55 v=80
181920 Off ch=5 n=48 v=80
181920 On ch=5 n=63 v=95
181920 On ch=5 n=60 v=95
181920 On ch=5 n=55 v=95
181920 On ch=5 n=48 v=95
182160 Off ch=5 n=63 v=80
182160 Off ch=5 n=60 v=80
182160 Off ch=5 n=55 v=80
182160 Off ch=5 n=48 v=80
182160 On ch=5 n=63 v=95
182160 On ch=5 n=60 v=95
182160 On ch=5 n=55 v=95
182160 On ch=5 n=48 v=95
182400 Off ch=5 n=63 v=80
182400 Off ch=5 n=60 v=80
182400 Off ch=5 n=55 v=80
182400 Off ch=5 n=48 v=80
182400 On ch=5 n=55 v=95
182400 On ch=5 n=50 v=95
182400 On ch=5 n=43 v=95
182640 Off ch=5 n=55 v=80
182640 Off ch=5 n=50 v=80
182640 Off ch=5 n=43 v=80
182640 On ch=5 n=55 v=95
182640 On ch=5 n=50 v=95
182640 On ch=5 n=43 v=95
182880 Off ch=5 n=55 v=80
182880 Off ch=5 n=50 v=80
182880 Off ch=5 n=43 v=80
182880 On ch=5 n=55 v=95
182880 On ch=5 n=50 v=95
182880 On ch=5 n=43 v=95
183120 Off ch=5 n=55 v=80
183120 Off ch=5 n=50 v=80
183120 Off ch=5 n=43 v=80
183120 On ch=5 n=55 v=95
183120 On ch=5 n=50 v=95
183120 On ch=5 n=43 v=95
183360 Off ch=5 n=55 v=80
183360 Off ch=5 n=50 v=80
183360 Off ch=5 n=43 v=80
183360 On ch=5 n=55 v=95
183360 On ch=5 n=50 v=95
183360 On ch=5 n=43 v=95
183600 Off ch=5 n=55 v=80
183600 Off ch=5 n=50 v=80
183600 Off ch=5 n=43 v=80
183600 On ch=5 n=55 v=95
183600 On ch=5 n=50 v=95
183600 On ch=5 n=43 v=95
183840 Off ch=5 n=55 v=80
183840 Off ch=5 n=50 v=80
183840 Off ch=5 n=43 v=80
183840 On ch=5 n=55 v=95
183840 On ch=5 n=50 v=95
183840 On ch=5 n=43 v=95
184080 Off ch=5 n=55 v=80
184080 Off ch=5 n=50 v=80
184080 Off ch=5 n=43 v=80
184080 On ch=5 n=55 v=95
184080 On ch=5 n=50 v=95
184080 On ch=5 n=43 v=95
184320 Off ch=5 n=55 v=80
184320 Off ch=5 n=50 v=80
184320 Off ch=5 n=43 v=80
184320 On ch=5 n=55 v=95
184320 On ch=5 n=50 v=95
184320 On ch=5 n=43 v=95
184560 Off ch=5 n=55 v=80
184560 Off ch=5 n=50 v=80
184560 Off ch=5 n=43 v=80
184560 On ch=5 n=55 v=95
184560 On ch=5 n=50 v=95
184560 On ch=5 n=43 v=95
184800 Off ch=5 n=55 v=80
184800 Off ch=5 n=50 v=80
184800 Off ch=5 n=43 v=80
184800 On ch=5 n=55 v=95
184800 On ch=5 n=50 v=95
184800 On ch=5 n=43 v=95
185040 Off ch=5 n=55 v=80
185040 Off ch=5 n=50 v=80
185040 Off ch=5 n=43 v=80
185040 On ch=5 n=55 v=95
185040 On ch=5 n=50 v=95
185040 On ch=5 n=43 v=95
185280 Off ch=5 n=55 v=80
185280 Off ch=5 n=50 v=80
185280 Off ch=5 n=43 v=80
185280 On ch=5 n=55 v=95
185280 On ch=5 n=50 v=95
185280 On ch=5 n=43 v=95
185520 Off ch=5 n=55 v=80
185520 Off ch=5 n=50 v=80
185520 Off ch=5 n=43 v=80
185520 On ch=5 n=55 v=95
185520 On ch=5 n=50 v=95
185520 On ch=5 n=43 v=95
185760 Off ch=5 n=55 v=80
185760 Off ch=5 n=50 v=80
185760 Off ch=5 n=43 v=80
185760 On ch=5 n=55 v=95
185760 On ch=5 n=50 v=95
185760 On ch=5 n=43 v=95
186000 Off ch=5 n=55 v=80
186000 Off ch=5 n=50 v=80
186000 Off ch=5 n=43 v=80
186000 On ch=5 n=55 v=95
186000 On ch=5 n=50 v=95
186000 On ch=5 n=43 v=95
186240 Off ch=5 n=55 v=80
186240 Off ch=5 n=50 v=80
186240 Off ch=5 n=43 v=80
186240 On ch=5 n=55 v=95
186480 On ch=5 n=55 v=95
186720 On ch=5 n=62 v=95
186960 Off ch=5 n=55 v=80
186960 Off ch=5 n=55 v=80
186960 On ch=5 n=55 v=95
187200 Off ch=5 n=62 v=80
187200 On ch=5 n=55 v=95
187440 On ch=5 n=62 v=95
188160 Off ch=5 n=55 v=80
188160 Off ch=5 n=55 v=80
188160 Off ch=5 n=62 v=80
188160 On ch=5 n=54 v=95
188400 On ch=5 n=55 v=95
188640 On ch=5 n=62 v=95
188880 Off ch=5 n=54 v=80
188880 Off ch=5 n=55 v=80
188880 On ch=5 n=54 v=95
189120 Off ch=5 n=62 v=80
189120 On ch=5 n=55 v=95
189360 On ch=5 n=62 v=95
190080 Off ch=5 n=54 v=80
190080 Off ch=5 n=55 v=80
190080 Off ch=5 n=62 v=80
190080 On ch=5 n=52 v=95
190320 On ch=5 n=55 v=95
190560 On ch=5 n=62 v=95
190800 Off ch=5 n=52 v=80
190800 Off ch=5 n=55 v=80
190800 On ch=5 n=52 v=95
191040 Off ch=5 n=62 v=80
191040 On ch=5 n=55 v=95
191280 On ch=5 n=62 v=95
192000 Off ch=5 n=52 v=80
192000 Off ch=5 n=55 v=80
192000 Off ch=5 n=62 v=80
192000 On ch=5 n=50 v=95
192240 On ch=5 n=55 v=95
192480 On ch=5 n=62 v=95
192720 Off ch=5 n=50 v=80
192720 Off ch=5 n=55 v=80
192720 On ch=5 n=50 v=95
192960 Off ch=5 n=62 v=80
192960 On ch=5 n=55 v=95
193200 On ch=5 n=62 v=95
193920 Off ch=5 n=50 v=80
193920 Off ch=5 n=55 v=80
193920 Off ch=5 n=62 v=80
193920 On ch=5 n=60 v=95
193920 On ch=5 n=55 v=95
193920 On ch=5 n=48 v=95
194160 Off ch=5 n=60 v=80
194160 Off ch=5 n=55 v=80
194160 Off ch=5 n=48 v=80
194160 On ch=5 n=60 v=95
194160 On ch=5 n=55 v=95
194160 On ch=5 n=48 v=95
194400 Off ch=5 n=60 v=80
194400 Off ch=5 n=55 v=80
194400 Off ch=5 n=48 v=80
194400 On ch=5 n=60 v=95
194400 On ch=5 n=55 v=95
194400 On ch=5 n=48 v=95
194640 Off ch=5 n=60 v=80
194640 Off ch=5 n=55 v=80
194640 Off ch=5 n=48 v=80
194640 On ch=5 n=60 v=95
194640 On ch=5 n=55 v=95
194640 On ch=5 n=48 v=95
194880 Off ch=5 n=60 v=80
194880 Off ch=5 n=55 v=80
194880 Off ch=5 n=48 v=80
194880 On ch=5 n=60 v=95
194880 On ch=5 n=55 v=95
194880 On ch=5 n=48 v=95
195120 Off ch=5 n=60 v=80
195120 Off ch=5 n=55 v=80
195120 Off ch=5 n=48 v=80
195120 On ch=5 n=60 v=95
195120 On ch=5 n=55 v=95
195120 On ch=5 n=48 v=95
195360 Off ch=5 n=60 v=80
195360 Off ch=5 n=55 v=80
195360 Off ch=5 n=48 v=80
195360 On ch=5 n=60 v=95
195360 On ch=5 n=55 v=95
195360 On ch=5 n=48 v=95
195600 Off ch=5 n=60 v=80
195600 Off ch=5 n=55 v=80
195600 Off ch=5 n=48 v=80
195600 On ch=5 n=60 v=95
195600 On ch=5 n=55 v=95
195600 On ch=5 n=48 v=95
195840 Off ch=5 n=60 v=80
195840 Off ch=5 n=55 v=80
195840 Off ch=5 n=48 v=80
195840 On ch=5 n=63 v=95
195840 On ch=5 n=60 v=95
195840 On ch=5 n=55 v=95
195840 On ch=5 n=48 v=95
196080 Off ch=5 n=63 v=80
196080 Off ch=5 n=60 v=80
196080 Off ch=5 n=55 v=80
196080 Off ch=5 n=48 v=80
196080 On ch=5 n=63 v=95
196080 On ch=5 n=60 v=95
196080 On ch=5 n=55 v=95
196080 On ch=5 n=48 v=95
196320 Off ch=5 n=63 v=80
196320 Off ch=5 n=60 v=80
196320 Off ch=5 n=55 v=80
196320 Off ch=5 n=48 v=80
196320 On ch=5 n=63 v=95
196320 On ch=5 n=60 v=95
196320 On ch=5 n=55 v=95
196320 On ch=5 n=48 v=95
196560 Off ch=5 n=63 v=80
196560 Off ch=5 n=60 v=80
196560 Off ch=5 n=55 v=80
196560 Off ch=5 n=48 v=80
196560 On ch=5 n=63 v=95
196560 On ch=5 n=60 v=95
196560 On ch=5 n=55 v=95
196560 On ch=5 n=48 v=95
196800 Off ch=5 n=63 v=80
196800 Off ch=5 n=60 v=80
196800 Off ch=5 n=55 v=80
196800 Off ch=5 n=48 v=80
196800 On ch=5 n=63 v=95
196800 On ch=5 n=60 v=95
196800 On ch=5 n=55 v=95
196800 On ch=5 n=48 v=95
197040 Off ch=5 n=63 v=80
197040 Off ch=5 n=60 v=80
197040 Off ch=5 n=55 v=80
197040 Off ch=5 n=48 v=80
197040 On ch=5 n=63 v=95
197040 On ch=5 n=60 v=95
197040 On ch=5 n=55 v=95
197040 On ch=5 n=48 v=95
197280 Off ch=5 n=63 v=80
197280 Off ch=5 n=60 v=80
197280 Off ch=5 n=55 v=80
197280 Off ch=5 n=48 v=80
197280 On ch=5 n=63 v=95
197280 On ch=5 n=60 v=95
197280 On ch=5 n=55 v=95
197280 On ch=5 n=48 v=95
197520 Off ch=5 n=63 v=80
197520 Off ch=5 n=60 v=80
197520 Off ch=5 n=55 v=80
197520 Off ch=5 n=48 v=80
197520 On ch=5 n=63 v=95
197520 On ch=5 n=60 v=95
197520 On ch=5 n=55 v=95
197520 On ch=5 n=48 v=95
197760 Off ch=5 n=63 v=80
197760 Off ch=5 n=60 v=80
197760 Off ch=5 n=55 v=80
197760 Off ch=5 n=48 v=80
197760 On ch=5 n=55 v=95
197760 On ch=5 n=50 v=95
197760 On ch=5 n=43 v=95
198000 Off ch=5 n=55 v=80
198000 Off ch=5 n=50 v=80
198000 Off ch=5 n=43 v=80
198000 On ch=5 n=55 v=95
198000 On ch=5 n=50 v=95
198000 On ch=5 n=43 v=95
198240 Off ch=5 n=55 v=80
198240 Off ch=5 n=50 v=80
198240 Off ch=5 n=43 v=80
198240 On ch=5 n=55 v=95
198240 On ch=5 n=50 v=95
198240 On ch=5 n=43 v=95
198480 Off ch=5 n=55 v=80
198480 Off ch=5 n=50 v=80
198480 Off ch=5 n=43 v=80
198480 On ch=5 n=55 v=95
198480 On ch=5 n=50 v=95
198480 On ch=5 n=43 v=95
198720 Off ch=5 n=55 v=80
198720 Off ch=5 n=50 v=80
198720 Off ch=5 n=43 v=80
198720 On ch=5 n=55 v=95
198720 On ch=5 n=50 v=95
198720 On ch=5 n=43 v=95
198960 Off ch=5 n=55 v=80
198960 Off ch=5 n=50 v=80
198960 Off ch=5 n=43 v=80
198960 On ch=5 n=55 v=95
198960 On ch=5 n=50 v=95
198960 On ch=5 n=43 v=95
199200 Off ch=5 n=55 v=80
199200 Off ch=5 n=50 v=80
199200 Off ch=5 n=43 v=80
199200 On ch=5 n=55 v=95
199200 On ch=5 n=50 v=95
199200 On ch=5 n=43 v=95
199440 Off ch=5 n=55 v=80
199440 Off ch=5 n=50 v=80
199440 Off ch=5 n=43 v=80
199440 On ch=5 n=55 v=95
199440 On ch=5 n=50 v=95
199440 On ch=5 n=43 v=95
199680 Off ch=5 n=55 v=80
199680 Off ch=5 n=50 v=80
199680 Off ch=5 n=43 v=80
199680 On ch=5 n=55 v=95
199680 On ch=5 n=50 v=95
199680 On ch=5 n=43 v=95
199920 Off ch=5 n=55 v=80
199920 Off ch=5 n=50 v=80
199920 Off ch=5 n=43 v=80
199920 On ch=5 n=55 v=95
199920 On ch=5 n=50 v=95
199920 On ch=5 n=43 v=95
200160 Off ch=5 n=55 v=80
200160 Off ch=5 n=50 v=80
200160 Off ch=5 n=43 v=80
200160 On ch=5 n=55 v=95
200160 On ch=5 n=50 v=95
200160 On ch=5 n=43 v=95
200400 Off ch=5 n=55 v=80
200400 Off ch=5 n=50 v=80
200400 Off ch=5 n=43 v=80
200400 On ch=5 n=55 v=95
200400 On ch=5 n=50 v=95
200400 On ch=5 n=43 v=95
200640 Off ch=5 n=55 v=80
200640 Off ch=5 n=50 v=80
200640 Off ch=5 n=43 v=80
200640 On ch=5 n=55 v=95
200640 On ch=5 n=50 v=95
200640 On ch=5 n=43 v=95
200880 Off ch=5 n=55 v=80
200880 Off ch=5 n=50 v=80
200880 Off ch=5 n=43 v=80
200880 On ch=5 n=55 v=95
200880 On ch=5 n=50 v=95
200880 On ch=5 n=43 v=95
201120 Off ch=5 n=55 v=80
201120 Off ch=5 n=50 v=80
201120 Off ch=5 n=43 v=80
201120 On ch=5 n=55 v=95
201120 On ch=5 n=50 v=95
201120 On ch=5 n=43 v=95
201360 Off ch=5 n=55 v=80
201360 Off ch=5 n=50 v=80
201360 Off ch=5 n=43 v=80
201360 On ch=5 n=55 v=95
201360 On ch=5 n=50 v=95
201360 On ch=5 n=43 v=95
201600 Off ch=5 n=55 v=80
201600 Off ch=5 n=50 v=80
201600 Off ch=5 n=43 v=80
201600 On ch=5 n=60 v=95
201600 On ch=5 n=55 v=95
201600 On ch=5 n=48 v=95
201840 Off ch=5 n=60 v=80
201840 Off ch=5 n=55 v=80
201840 Off ch=5 n=48 v=80
201840 On ch=5 n=60 v=95
201840 On ch=5 n=55 v=95
201840 On ch=5 n=48 v=95
202080 Off ch=5 n=60 v=80
202080 Off ch=5 n=55 v=80
202080 Off ch=5 n=48 v=80
202080 On ch=5 n=60 v=95
202080 On ch=5 n=55 v=95
202080 On ch=5 n=48 v=95
202320 Off ch=5 n=60 v=80
202320 Off ch=5 n=55 v=80
202320 Off ch=5 n=48 v=80
202320 On ch=5 n=60 v=95
202320 On ch=5 n=55 v=95
202320 On ch=5 n=48 v=95
202560 Off ch=5 n=60 v=80
202560 Off ch=5 n=55 v=80
202560 Off ch=5 n=48 v=80
202560 On ch=5 n=60 v=95
202560 On ch=5 n=55 v=95
202560 On ch=5 n=48 v=95
202800 Off ch=5 n=60 v=80
202800 Off ch=5 n=55 v=80
202800 Off ch=5 n=48 v=80
202800 On ch=5 n=60 v=95
202800 On ch=5 n=55 v=95
202800 On ch=5 n=48 v=95
203040 Off ch=5 n=60 v=80
203040 Off ch=5 n=55 v=80
203040 Off ch=5 n=48 v=80
203040 On ch=5 n=60 v=95
203040 On ch=5 n=55 v=95
203040 On ch=5 n=48 v=95
203280 Off ch=5 n=60 v=80
203280 Off ch=5 n=55 v=80
203280 Off ch=5 n=48 v=80
203280 On ch=5 n=60 v=95
203280 On ch=5 n=55 v=95
203280 On ch=5 n=48 v=95
203520 Off ch=5 n=60 v=80
203520 Off ch=5 n=55 v=80
203520 Off ch=5 n=48 v=80
203520 On ch=5 n=63 v=95
203520 On ch=5 n=60 v=95
203520 On ch=5 n=55 v=95
203520 On ch=5 n=48 v=95
203760 Off ch=5 n=63 v=80
203760 Off ch=5 n=60 v=80
203760 Off ch=5 n=55 v=80
203760 Off ch=5 n=48 v=80
203760 On ch=5 n=63 v=95
203760 On ch=5 n=60 v=95
203760 On ch=5 n=55 v=95
203760 On ch=5 n=48 v=95
204000 Off ch=5 n=63 v=80
204000 Off ch=5 n=60 v=80
204000 Off ch=5 n=55 v=80
204000 Off ch=5 n=48 v=80
204000 On ch=5 n=63 v=95
204000 On ch=5 n=60 v=95
204000 On ch=5 n=55 v=95
204000 On ch=5 n=48 v=95
204240 Off ch=5 n=63 v=80
204240 Off ch=5 n=60 v=80
204240 Off ch=5 n=55 v=80
204240 Off ch=5 n=48 v=80
204240 On ch=5 n=63 v=95
204240 On ch=5 n=60 v=95
204240 On ch=5 n=55 v=95
204240 On ch=5 n=48 v=95
204480 Off ch=5 n=63 v=80
204480 Off ch=5 n=60 v=80
204480 Off ch=5 n=55 v=80
204480 Off ch=5 n=48 v=80
204480 On ch=5 n=63 v=95
204480 On ch=5 n=60 v=95
204480 On ch=5 n=55 v=95
204480 On ch=5 n=48 v=95
204720 Off ch=5 n=63 v=80
204720 Off ch=5 n=60 v=80
204720 Off ch=5 n=55 v=80
204720 Off ch=5 n=48 v=80
204720 On ch=5 n=63 v=95
204720 On ch=5 n=60 v=95
204720 On ch=5 n=55 v=95
204720 On ch=5 n=48 v=95
204960 Off ch=5 n=63 v=80
204960 Off ch=5 n=60 v=80
204960 Off ch=5 n=55 v=80
204960 Off ch=5 n=48 v=80
204960 On ch=5 n=63 v=95
204960 On ch=5 n=60 v=95
204960 On ch=5 n=55 v=95
204960 On ch=5 n=48 v=95
205200 Off ch=5 n=63 v=80
205200 Off ch=5 n=60 v=80
205200 Off ch=5 n=55 v=80
205200 Off ch=5 n=48 v=80
205200 On ch=5 n=63 v=95
205200 On ch=5 n=60 v=95
205200 On ch=5 n=55 v=95
205200 On ch=5 n=48 v=95
205440 Off ch=5 n=63 v=80
205440 Off ch=5 n=60 v=80
205440 Off ch=5 n=55 v=80
205440 Off ch=5 n=48 v=80
205440 On ch=5 n=55 v=95
205440 On ch=5 n=50 v=95
205440 On ch=5 n=43 v=95
205680 Off ch=5 n=55 v=80
205680 Off ch=5 n=50 v=80
205680 Off ch=5 n=43 v=80
205680 On ch=5 n=55 v=95
205680 On ch=5 n=50 v=95
205680 On ch=5 n=43 v=95
205920 Off ch=5 n=55 v=80
205920 Off ch=5 n=50 v=80
205920 Off ch=5 n=43 v=80
205920 On ch=5 n=55 v=95
205920 On ch=5 n=50 v=95
205920 On ch=5 n=43 v=95
206160 Off ch=5 n=55 v=80
206160 Off ch=5 n=50 v=80
206160 Off ch=5 n=43 v=80
206160 On ch=5 n=55 v=95
206160 On ch=5 n=50 v=95
206160 On ch=5 n=43 v=95
206400 Off ch=5 n=55 v=80
206400 Off ch=5 n=50 v=80
206400 Off ch=5 n=43 v=80
206400 On ch=5 n=55 v=95
206400 On ch=5 n=50 v=95
206400 On ch=5 n=43 v=95
206640 Off ch=5 n=55 v=80
206640 Off ch=5 n=50 v=80
206640 Off ch=5 n=43 v=80
206640 On ch=5 n=55 v=95
206640 On ch=5 n=50 v=95
206640 On ch=5 n=43 v=95
206880 Off ch=5 n=55 v=80
206880 Off ch=5 n=50 v=80
206880 Off ch=5 n=43 v=80
206880 On ch=5 n=55 v=95
206880 On ch=5 n=50 v=95
206880 On ch=5 n=43 v=95
207120 Off ch=5 n=55 v=80
207120 Off ch=5 n=50 v=80
207120 Off ch=5 n=43 v=80
207120 On ch=5 n=55 v=95
207120 On ch=5 n=50 v=95
207120 On ch=5 n=43 v=95
207360 Off ch=5 n=55 v=80
207360 Off ch=5 n=50 v=80
207360 Off ch=5 n=43 v=80
207360 On ch=5 n=55 v=95
207360 On ch=5 n=50 v=95
207360 On ch=5 n=43 v=95
207600 Off ch=5 n=55 v=80
207600 Off ch=5 n=50 v=80
207600 Off ch=5 n=43 v=80
207600 On ch=5 n=55 v=95
207600 On ch=5 n=50 v=95
207600 On ch=5 n=43 v=95
207840 Off ch=5 n=55 v=80
207840 Off ch=5 n=50 v=80
207840 Off ch=5 n=43 v=80
207840 On ch=5 n=55 v=95
207840 On ch=5 n=50 v=95
207840 On ch=5 n=43 v=95
208080 Off ch=5 n=55 v=80
208080 Off ch=5 n=50 v=80
208080 Off ch=5 n=43 v=80
208080 On ch=5 n=55 v=95
208080 On ch=5 n=50 v=95
208080 On ch=5 n=43 v=95
208320 Off ch=5 n=55 v=80
208320 Off ch=5 n=50 v=80
208320 Off ch=5 n=43 v=80
208320 On ch=5 n=55 v=95
208320 On ch=5 n=50 v=95
208320 On ch=5 n=43 v=95
208560 Off ch=5 n=55 v=80
208560 Off ch=5 n=50 v=80
208560 Off ch=5 n=43 v=80
208560 On ch=5 n=55 v=95
208560 On ch=5 n=50 v=95
208560 On ch=5 n=43 v=95
208800 Off ch=5 n=55 v=80
208800 Off ch=5 n=50 v=80
208800 Off ch=5 n=43 v=80
208800 On ch=5 n=55 v=95
208800 On ch=5 n=50 v=95
208800 On ch=5 n=43 v=95
209040 Off ch=5 n=55 v=80
209040 Off ch=5 n=50 v=80
209040 Off ch=5 n=43 v=80
209040 On ch=5 n=55 v=95
209040 On ch=5 n=50 v=95
209040 On ch=5 n=43 v=95
209280 Off ch=5 n=55 v=80
209280 Off ch=5 n=50 v=80
209280 Off ch=5 n=43 v=80
209280 On ch=5 n=60 v=95
209280 On ch=5 n=55 v=95
209280 On ch=5 n=48 v=95
209520 Off ch=5 n=60 v=80
209520 Off ch=5 n=55 v=80
209520 Off ch=5 n=48 v=80
209520 On ch=5 n=60 v=95
209520 On ch=5 n=55 v=95
209520 On ch=5 n=48 v=95
209760 Off ch=5 n=60 v=80
209760 Off ch=5 n=55 v=80
209760 Off ch=5 n=48 v=80
209760 On ch=5 n=60 v=95
209760 On ch=5 n=55 v=95
209760 On ch=5 n=48 v=95
210000 Off ch=5 n=60 v=80
210000 Off ch=5 n=55 v=80
210000 Off ch=5 n=48 v=80
210000 On ch=5 n=60 v=95
210000 On ch=5 n=55 v=95
210000 On ch=5 n=48 v=95
210240 Off ch=5 n=60 v=80
210240 Off ch=5 n=55 v=80
210240 Off ch=5 n=48 v=80
210240 On ch=5 n=60 v=95
210240 On ch=5 n=55 v=95
210240 On ch=5 n=48 v=95
210480 Off ch=5 n=60 v=80
210480 Off ch=5 n=55 v=80
210480 Off ch=5 n=48 v=80
210480 On ch=5 n=60 v=95
210480 On ch=5 n=55 v=95
210480 On ch=5 n=48 v=95
210720 Off ch=5 n=60 v=80
210720 Off ch=5 n=55 v=80
210720 Off ch=5 n=48 v=80
210720 On ch=5 n=60 v=95
210720 On ch=5 n=55 v=95
210720 On ch=5 n=48 v=95
210960 Off ch=5 n=60 v=80
210960 Off ch=5 n=55 v=80
210960 Off ch=5 n=48 v=80
210960 On ch=5 n=60 v=95
210960 On ch=5 n=55 v=95
210960 On ch=5 n=48 v=95
211200 Off ch=5 n=60 v=80
211200 Off ch=5 n=55 v=80
211200 Off ch=5 n=48 v=80
211200 On ch=5 n=63 v=95
211200 On ch=5 n=60 v=95
211200 On ch=5 n=55 v=95
211200 On ch=5 n=48 v=95
211440 Off ch=5 n=63 v=80
211440 Off ch=5 n=60 v=80
211440 Off ch=5 n=55 v=80
211440 Off ch=5 n=48 v=80
211440 On ch=5 n=63 v=95
211440 On ch=5 n=60 v=95
211440 On ch=5 n=55 v=95
211440 On ch=5 n=48 v=95
211680 Off ch=5 n=63 v=80
211680 Off ch=5 n=60 v=80
211680 Off ch=5 n=55 v=80
211680 Off ch=5 n=48 v=80
211680 On ch=5 n=63 v=95
211680 On ch=5 n=60 v=95
211680 On ch=5 n=55 v=95
211680 On ch=5 n=48 v=95
211920 Off ch=5 n=63 v=80
211920 Off ch=5 n=60 v=80
211920 Off ch=5 n=55 v=80
211920 Off ch=5 n=48 v=80
211920 On ch=5 n=63 v=95
211920 On ch=5 n=60 v=95
211920 On ch=5 n=55 v=95
211920 On ch=5 n=48 v=95
212160 Off ch=5 n=63 v=80
212160 Off ch=5 n=60 v=80
212160 Off ch=5 n=55 v=80
212160 Off ch=5 n=48 v=80
212160 On ch=5 n=63 v=95
212160 On ch=5 n=60 v=95
212160 On ch=5 n=55 v=95
212160 On ch=5 n=48 v=95
212400 Off ch=5 n=63 v=80
212400 Off ch=5 n=60 v=80
212400 Off ch=5 n=55 v=80
212400 Off ch=5 n=48 v=80
212400 On ch=5 n=63 v=95
212400 On ch=5 n=60 v=95
212400 On ch=5 n=55 v=95
212400 On ch=5 n=48 v=95
212640 Off ch=5 n=63 v=80
212640 Off ch=5 n=60 v=80
212640 Off ch=5 n=55 v=80
212640 Off ch=5 n=48 v=80
212640 On ch=5 n=63 v=95
212640 On ch=5 n=60 v=95
212640 On ch=5 n=55 v=95
212640 On ch=5 n=48 v=95
212880 Off ch=5 n=63 v=80
212880 Off ch=5 n=60 v=80
212880 Off ch=5 n=55 v=80
212880 Off ch=5 n=48 v=80
212880 On ch=5 n=63 v=95
212880 On ch=5 n=60 v=95
212880 On ch=5 n=55 v=95
212880 On ch=5 n=48 v=95
213120 Off ch=5 n=63 v=80
213120 Off ch=5 n=60 v=80
213120 Off ch=5 n=55 v=80
213120 Off ch=5 n=48 v=80
213120 On ch=5 n=55 v=95
213120 On ch=5 n=50 v=95
213120 On ch=5 n=43 v=95
213360 Off ch=5 n=55 v=80
213360 Off ch=5 n=50 v=80
213360 Off ch=5 n=43 v=80
213360 On ch=5 n=55 v=95
213360 On ch=5 n=50 v=95
213360 On ch=5 n=43 v=95
213600 Off ch=5 n=55 v=80
213600 Off ch=5 n=50 v=80
213600 Off ch=5 n=43 v=80
213600 On ch=5 n=55 v=95
213600 On ch=5 n=50 v=95
213600 On ch=5 n=43 v=95
213840 Off ch=5 n=55 v=80
213840 Off ch=5 n=50 v=80
213840 Off ch=5 n=43 v=80
213840 On ch=5 n=55 v=95
213840 On ch=5 n=50 v=95
213840 On ch=5 n=43 v=95
214080 Off ch=5 n=55 v=80
214080 Off ch=5 n=50 v=80
214080 Off ch=5 n=43 v=80
214080 On ch=5 n=55 v=95
214080 On ch=5 n=50 v=95
214080 On ch=5 n=43 v=95
214320 Off ch=5 n=55 v=80
214320 Off ch=5 n=50 v=80
214320 Off ch=5 n=43 v=80
214320 On ch=5 n=55 v=95
214320 On ch=5 n=50 v=95
214320 On ch=5 n=43 v=95
214560 Off ch=5 n=55 v=80
214560 Off ch=5 n=50 v=80
214560 Off ch=5 n=43 v=80
214560 On ch=5 n=55 v=95
214560 On ch=5 n=50 v=95
214560 On ch=5 n=43 v=95
214800 Off ch=5 n=55 v=80
214800 Off ch=5 n=50 v=80
214800 Off ch=5 n=43 v=80
214800 On ch=5 n=55 v=95
214800 On ch=5 n=50 v=95
214800 On ch=5 n=43 v=95
215040 Off ch=5 n=55 v=80
215040 Off ch=5 n=50 v=80
215040 Off ch=5 n=43 v=80
215040 On ch=5 n=55 v=95
215040 On ch=5 n=50 v=95
215040 On ch=5 n=43 v=95
216960 Off ch=5 n=55 v=80
216960 Off ch=5 n=50 v=80
216960 Off ch=5 n=43 v=80
216960 Meta TrkEnd
TrkEnd
MTrk
0 Meta TrkName "Distorsion Guitar 2"
0 Par ch=7 c=100 v=0
0 Par ch=7 c=101 v=0
0 Par ch=7 c=6 v=12
0 Pb ch=7 v=8192
0 Par ch=8 c=100 v=0
0 Par ch=8 c=101 v=0
0 Par ch=8 c=6 v=12
0 Pb ch=8 v=8192
0 PrCh ch=7 p=30
0 PrCh ch=8 p=30
0 Par ch=7 c=7 v=104
0 Par ch=8 c=7 v=104
0 Par ch=7 c=10 v=64
0 Par ch=8 c=10 v=64
0 Par ch=7 c=93 v=0
0 Par ch=8 c=93 v=0
0 Par ch=7 c=91 v=0
0 Par ch=8 c=91 v=0
0 Par ch=7 c=92 v=0
0 Par ch=8 c=92 v=0
0 Par ch=7 c=95 v=0
0 Par ch=8 c=95 v=0
141960 On ch=8 n=67 v=95
141960 Pb ch=8 v=6144
142000 Pb ch=8 v=6784
142040 Pb ch=8 v=7552
142080 Pb ch=8 v=8192
142320 Off ch=8 n=67 v=80
142320 On ch=7 n=67 v=95
142560 Off ch=7 n=67 v=80
142560 On ch=7 n=71 v=95
142800 Off ch=7 n=71 v=80
142800 On ch=7 n=67 v=95
143040 Off ch=7 n=67 v=80
143040 On ch=7 n=67 v=95
143280 Off ch=7 n=67 v=80
143280 On ch=7 n=71 v=95
143520 Off ch=7 n=71 v=80
143520 On ch=7 n=67 v=95
143760 Off ch=7 n=67 v=80
143760 On ch=7 n=71 v=95
144000 Off ch=7 n=71 v=80
144000 On ch=7 n=66 v=95
144240 Off ch=7 n=66 v=80
144240 On ch=7 n=66 v=95
144480 Off ch=7 n=66 v=80
144480 On ch=7 n=71 v=95
144720 Off ch=7 n=71 v=80
144720 On ch=7 n=66 v=95
144960 Off ch=7 n=66 v=80
144960 On ch=7 n=66 v=95
145200 Off ch=7 n=66 v=80
145200 On ch=7 n=71 v=95
145440 Off ch=7 n=71 v=80
145440 On ch=7 n=66 v=95
145680 Off ch=7 n=66 v=80
145680 On ch=7 n=71 v=95
145920 Off ch=7 n=71 v=80
145920 On ch=7 n=67 v=95
146160 Off ch=7 n=67 v=80
146160 On ch=7 n=67 v=95
146400 Off ch=7 n=67 v=80
146400 On ch=7 n=72 v=95
146640 Off ch=7 n=72 v=80
146640 On ch=7 n=67 v=95
146880 Off ch=7 n=67 v=80
146880 On ch=7 n=67 v=95
147120 Off ch=7 n=67 v=80
147120 On ch=7 n=72 v=95
147360 Off ch=7 n=72 v=80
147360 On ch=7 n=67 v=95
147600 Off ch=7 n=67 v=80
147600 On ch=7 n=72 v=95
147840 Off ch=7 n=72 v=80
147840 On ch=7 n=67 v=95
148080 Off ch=7 n=67 v=80
148080 On ch=7 n=67 v=95
148320 Off ch=7 n=67 v=80
148320 On ch=7 n=67 v=95
148560 Off ch=7 n=67 v=80
148560 On ch=7 n=67 v=95
148800 Off ch=7 n=67 v=80
148800 On ch=7 n=66 v=95
149040 Off ch=7 n=66 v=80
149040 On ch=7 n=66 v=95
149280 Off ch=7 n=66 v=80
149280 On ch=7 n=66 v=95
149520 Off ch=7 n=66 v=80
149520 On ch=7 n=66 v=95
149760 Off ch=7 n=66 v=80
149760 On ch=7 n=67 v=95
150000 Off ch=7 n=67 v=80
150000 On ch=7 n=67 v=95
150240 Off ch=7 n=67 v=80
150240 On ch=7 n=71 v=95
150480 Off ch=7 n=71 v=80
150480 On ch=7 n=67 v=95
150720 Off ch=7 n=67 v=80
150720 On ch=7 n=67 v=95
150960 Off ch=7 n=67 v=80
150960 On ch=7 n=71 v=95
151200 Off ch=7 n=71 v=80
151200 On ch=7 n=67 v=95
151440 Off ch=7 n=67 v=80
151440 On ch=7 n=71 v=95
151680 Off ch=7 n=71 v=80
151680 On ch=7 n=66 v=95
151920 Off ch=7 n=66 v=80
151920 On ch=7 n=66 v=95
152160 Off ch=7 n=66 v=80
152160 On ch=7 n=71 v=95
152400 Off ch=7 n=71 v=80
152400 On ch=7 n=66 v=95
152640 Off ch=7 n=66 v=80
152640 On ch=7 n=66 v=95
152880 Off ch=7 n=66 v=80
152880 On ch=7 n=71 v=95
153120 Off ch=7 n=71 v=80
153120 On ch=7 n=66 v=95
153360 Off ch=7 n=66 v=80
153360 On ch=7 n=71 v=95
153600 Off ch=7 n=71 v=80
153600 On ch=7 n=67 v=95
153840 Off ch=7 n=67 v=80
153840 On ch=7 n=67 v=95
154080 Off ch=7 n=67 v=80
154080 On ch=7 n=72 v=95
154320 Off ch=7 n=72 v=80
154320 On ch=7 n=67 v=95
154560 Off ch=7 n=67 v=80
154560 On ch=7 n=67 v=95
154800 Off ch=7 n=67 v=80
154800 On ch=7 n=72 v=95
155040 Off ch=7 n=72 v=80
155040 On ch=7 n=67 v=95
155280 Off ch=7 n=67 v=80
155280 On ch=7 n=72 v=95
155520 Off ch=7 n=72 v=80
155520 On ch=7 n=67 v=95
155760 Off ch=7 n=67 v=80
155760 On ch=7 n=67 v=95
156000 Off ch=7 n=67 v=80
156000 On ch=7 n=67 v=95
156240 Off ch=7 n=67 v=80
156240 On ch=7 n=67 v=95
156480 Off ch=7 n=67 v=80
156480 On ch=7 n=67 v=95
156720 Off ch=7 n=67 v=80
156720 On ch=7 n=67 v=95
156960 Off ch=7 n=67 v=80
156960 On ch=7 n=67 v=95
157200 Off ch=7 n=67 v=80
157200 On ch=7 n=67 v=95
157440 Off ch=7 n=67 v=80
157440 On ch=7 n=66 v=95
157680 Off ch=7 n=66 v=80
157680 On ch=7 n=66 v=95
157920 Off ch=7 n=66 v=80
157920 On ch=7 n=66 v=95
158160 Off ch=7 n=66 v=80
158160 On ch=7 n=66 v=95
158400 Off ch=7 n=66 v=80
158400 On ch=7 n=66 v=95
158640 Off ch=7 n=66 v=80
158640 On ch=7 n=66 v=95
158880 Off ch=7 n=66 v=80
158880 On ch=7 n=66 v=95
159120 Off ch=7 n=66 v=80
159120 On ch=7 n=66 v=95
159360 Off ch=7 n=66 v=80
159360 On ch=7 n=67 v=95
159600 Off ch=7 n=67 v=80
159600 On ch=7 n=67 v=95
159840 Off ch=7 n=67 v=80
159840 On ch=7 n=67 v=95
160080 Off ch=7 n=67 v=80
160080 On ch=7 n=67 v=95
160320 Off ch=7 n=67 v=80
160320 On ch=7 n=67 v=95
160560 Off ch=7 n=67 v=80
160560 On ch=7 n=67 v=95
160800 Off ch=7 n=67 v=80
160800 On ch=7 n=67 v=95
161040 Off ch=7 n=67 v=80
161040 On ch=7 n=67 v=95
161280 Off ch=7 n=67 v=80
161280 On ch=7 n=66 v=95
161520 Off ch=7 n=66 v=80
161520 On ch=7 n=66 v=95
161760 Off ch=7 n=66 v=80
161760 On ch=7 n=66 v=95
162000 Off ch=7 n=66 v=80
162000 On ch=7 n=66 v=95
162240 Off ch=7 n=66 v=80
162240 On ch=7 n=66 v=95
162480 Off ch=7 n=66 v=80
162480 On ch=7 n=66 v=95
162720 Off ch=7 n=66 v=80
162720 On ch=7 n=66 v=95
162960 Off ch=7 n=66 v=80
162960 On ch=7 n=66 v=95
163200 Off ch=7 n=66 v=80
163200 On ch=7 n=67 v=63
165120 Off ch=7 n=67 v=80
165120 On ch=7 n=67 v=47
167040 Off ch=7 n=67 v=80
167040 Meta TrkEnd
TrkEnd
MTrk
0 Meta TrkName "Percusi\xf3n"
0 Par ch=10 c=100 v=0
0 Par ch=10 c=101 v=0
0 Par ch=10 c=6 v=12
0 Pb ch=10 v=8192
0 PrCh ch=10 p=0
0 Par ch=10 c=7 v=104
0 Par ch=10 c=10 v=64
0 Par ch=10 c=93 v=0
0 Par ch=10 c=91 v=0
0 Par ch=10 c=92 v=0
0 Par ch=10 c=95 v=0
23040 Par ch=10 c=7 v=56
23040 On ch=10 n=36 v=95
23280 Off ch=10 n=36 v=80
23280 On ch=10 n=36 v=95
23520 Off ch=10 n=36 v=80
23520 On ch=10 n=69 v=63
23760 Off ch=10 n=69 v=80
23760 On ch=10 n=36 v=95
24000 Off ch=10 n=36 v=80
24000 On ch=10 n=36 v=95
24240 Off ch=10 n=36 v=80
24240 On ch=10 n=69 v=63
24480 Off ch=10 n=69 v=80
24960 Par ch=10 c=7 v=56
24960 On ch=10 n=36 v=95
25200 Off ch=10 n=36 v=80
25200 On ch=10 n=36 v=95
25440 Off ch=10 n=36 v=80
25440 On ch=10 n=69 v=63
25680 Off ch=10 n=69 v=80
25680 On ch=10 n=36 v=95
25920 Off ch=10 n=36 v=80
25920 On ch=10 n=36 v=95
26160 Off ch=10 n=36 v=80
26160 On ch=10 n=69 v=63
26400 Off ch=10 n=69 v=80
26400 On ch=10 n=53 v=63
26880 Off ch=10 n=53 v=80
26880 Par ch=10 c=7 v=56
26880 On ch=10 n=36 v=95
27120 Off ch=10 n=36 v=80
27120 On ch=10 n=36 v=95
27360 Off ch=10 n=36 v=80
27360 On ch=10 n=69 v=63
27600 Off ch=10 n=69 v=80
27600 On ch=10 n=36 v=95
27840 Off ch=10 n=36 v=80
27840 On ch=10 n=36 v=95
28080 Off ch=10 n=36 v=80
28080 On ch=10 n=69 v=63
28320 Off ch=10 n=69 v=80
28800 Par ch=10 c=7 v=56
28800 On ch=10 n=36 v=95
29040 Off ch=10 n=36 v=80
29040 On ch=10 n=36 v=95
29280 Off ch=10 n=36 v=80
29280 On ch=10 n=69 v=63
29520 Off ch=10 n=69 v=80
29520 On ch=10 n=36 v=95
29760 Off ch=10 n=36 v=80
29760 On ch=10 n=36 v=95
30000 Off ch=10 n=36 v=80
30000 On ch=10 n=69 v=63
30240 Off ch=10 n=69 v=80
30240 On ch=10 n=53 v=63
30720 Off ch=10 n=53 v=80
30720 Par ch=10 c=7 v=56
30720 On ch=10 n=36 v=95
30960 Off ch=10 n=36 v=80
30960 On ch=10 n=36 v=95
31200 Off ch=10 n=36 v=80
31200 On ch=10 n=69 v=63
31440 Off ch=10 n=69 v=80
31440 On ch=10 n=36 v=95
31680 Off ch=10 n=36 v=80
31680 On ch=10 n=36 v=95
31920 Off ch=10 n=36 v=80
31920 On ch=10 n=69 v=63
32160 Off ch=10 n=69 v=80
32640 Par ch=10 c=7 v=56
32640 On ch=10 n=36 v=95
32880 Off ch=10 n=36 v=80
32880 On ch=10 n=36 v=95
33120 Off ch=10 n=36 v=80
33120 On ch=10 n=69 v=63
33360 Off ch=10 n=69 v=80
33360 On ch=10 n=36 v=95
33600 Off ch=10 n=36 v=80
33600 On ch=10 n=36 v=95
33840 Off ch=10 n=36 v=80
33840 On ch=10 n=69 v=63
34080 Off ch=10 n=69 v=80
34080 On ch=10 n=53 v=63
34560 Off ch=10 n=53 v=80
34560 Par ch=10 c=7 v=56
34560 On ch=10 n=36 v=95
34800 Off ch=10 n=36 v=80
34800 On ch=10 n=36 v=95
35040 Off ch=10 n=36 v=80
35040 On ch=10 n=69 v=63
35280 Off ch=10 n=69 v=80
35280 On ch=10 n=36 v=95
35520 Off ch=10 n=36 v=80
35520 On ch=10 n=36 v=95
35760 Off ch=10 n=36 v=80
35760 On ch=10 n=69 v=63
36000 Off ch=10 n=69 v=80
36480 Par ch=10 c=7 v=56
36480 On ch=10 n=36 v=95
36720 Off ch=10 n=36 v=80
36720 On ch=10 n=36 v=95
36960 Off ch=10 n=36 v=80
36960 On ch=10 n=69 v=63
37200 Off ch=10 n=69 v=80
37200 On ch=10 n=36 v=95
37440 Off ch=10 n=36 v=80
37440 On ch=10 n=36 v=95
37680 Off ch=10 n=36 v=80
37680 On ch=10 n=69 v=63
37920 Off ch=10 n=69 v=80
37920 On ch=10 n=53 v=63
38400 Off ch=10 n=53 v=80
38400 Par ch=10 c=7 v=56
38400 On ch=10 n=36 v=95
38640 Off ch=10 n=36 v=80
38640 On ch=10 n=36 v=95
38880 Off ch=10 n=36 v=80
38880 On ch=10 n=69 v=63
39120 Off ch=10 n=69 v=80
39120 On ch=10 n=36 v=95
39360 Off ch=10 n=36 v=80
39360 On ch=10 n=36 v=95
39600 Off ch=10 n=36 v=80
39600 On ch=10 n=69 v=63
39840 Off ch=10 n=69 v=80
40320 Par ch=10 c=7 v=56
40320 On ch=10 n=36 v=95
40560 Off ch=10 n=36 v=80
40560 On ch=10 n=36 v=95
40800 Off ch=10 n=36 v=80
40800 On ch=10 n=69 v=63
41040 Off ch=10 n=69 v=80
41040 On ch=10 n=36 v=95
41280 Off ch=10 n=36 v=80
41280 On ch=10 n=36 v=95
41520 Off ch=10 n=36 v=80
41520 On ch=10 n=69 v=63
41760 Off ch=10 n=69 v=80
41760 On ch=10 n=53 v=63
42240 Off ch=10 n=53 v=80
42240 Par ch=10 c=7 v=56
42240 On ch=10 n=36 v=95
42480 Off ch=10 n=36 v=80
42480 On ch=10 n=36 v=95
42720 Off ch=10 n=36 v=80
42720 On ch=10 n=69 v=63
42960 Off ch=10 n=69 v=80
42960 On ch=10 n=36 v=95
43200 Off ch=10 n=36 v=80
43200 On ch=10 n=36 v=95
43440 Off ch=10 n=36 v=80
43440 On ch=10 n=69 v=63
43680 Off ch=10 n=69 v=80
44160 Par ch=10 c=7 v=56
44160 On ch=10 n=36 v=95
44400 Off ch=10 n=36 v=80
44400 On ch=10 n=36 v=95
44640 Off ch=10 n=36 v=80
44640 On ch=10 n=69 v=63
44880 Off ch=10 n=69 v=80
44880 On ch=10 n=36 v=95
45120 Off ch=10 n=36 v=80
45120 On ch=10 n=36 v=95
45360 Off ch=10 n=36 v=80
45360 On ch=10 n=69 v=63
45600 Off ch=10 n=69 v=80
45600 On ch=10 n=53 v=63
46080 Off ch=10 n=53 v=80
46080 Par ch=10 c=7 v=56
46080 On ch=10 n=36 v=95
46320 Off ch=10 n=36 v=80
46320 On ch=10 n=36 v=95
46560 Off ch=10 n=36 v=80
46560 On ch=10 n=69 v=63
46800 Off ch=10 n=69 v=80
46800 On ch=10 n=36 v=95
47040 Off ch=10 n=36 v=80
47040 On ch=10 n=36 v=95
47280 Off ch=10 n=36 v=80
47280 On ch=10 n=69 v=63
47520 Off ch=10 n=69 v=80
48000 Par ch=10 c=7 v=56
48000 On ch=10 n=36 v=95
48240 Off ch=10 n=36 v=80
48240 On ch=10 n=36 v=95
48480 Off ch=10 n=36 v=80
48480 On ch=10 n=69 v=63
48720 Off ch=10 n=69 v=80
48720 On ch=10 n=36 v=95
48960 Off ch=10 n=36 v=80
48960 On ch=10 n=36 v=95
49200 Off ch=10 n=36 v=80
49200 On ch=10 n=69 v=63
49440 Off ch=10 n=69 v=80
49440 On ch=10 n=53 v=63
49920 Off ch=10 n=53 v=80
49920 Par ch=10 c=7 v=56
49920 On ch=10 n=36 v=95
50160 Off ch=10 n=36 v=80
50160 On ch=10 n=36 v=95
50400 Off ch=10 n=36 v=80
50400 On ch=10 n=69 v=63
50640 Off ch=10 n=69 v=80
50640 On ch=10 n=36 v=95
50880 Off ch=10 n=36 v=80
50880 On ch=10 n=36 v=95
51120 Off ch=10 n=36 v=80
51120 On ch=10 n=69 v=63
51360 Off ch=10 n=69 v=80
51840 Par ch=10 c=7 v=56
51840 On ch=10 n=36 v=95
52080 Off ch=10 n=36 v=80
52080 On ch=10 n=36 v=95
52320 Off ch=10 n=36 v=80
52320 On ch=10 n=69 v=63
52560 Off ch=10 n=69 v=80
52560 On ch=10 n=36 v=95
52800 Off ch=10 n=36 v=80
52800 On ch=10 n=36 v=95
53040 Off ch=10 n=36 v=80
53040 On ch=10 n=69 v=63
53280 Off ch=10 n=69 v=80
53280 On ch=10 n=53 v=63
53760 Off ch=10 n=53 v=80
53760 Par ch=10 c=7 v=48
53760 On ch=10 n=36 v=95
54000 Off ch=10 n=36 v=80
54000 On ch=10 n=36 v=95
54240 Off ch=10 n=36 v=80
54240 On ch=10 n=69 v=63
54480 Off ch=10 n=69 v=80
54480 On ch=10 n=36 v=95
54720 Off ch=10 n=36 v=80
54720 On ch=10 n=36 v=95
54960 Off ch=10 n=36 v=80
54960 On ch=10 n=69 v=63
55200 Off ch=10 n=69 v=80
55680 Par ch=10 c=7 v=56
55680 On ch=10 n=36 v=95
55920 Off ch=10 n=36 v=80
55920 On ch=10 n=36 v=95
56160 Off ch=10 n=36 v=80
56160 On ch=10 n=69 v=63
56400 Off ch=10 n=69 v=80
56400 On ch=10 n=36 v=95
56640 Off ch=10 n=36 v=80
56640 On ch=10 n=36 v=95
56880 Off ch=10 n=36 v=80
56880 On ch=10 n=69 v=63
57120 Off ch=10 n=69 v=80
57120 On ch=10 n=53 v=63
57600 Off ch=10 n=53 v=80
57600 Par ch=10 c=7 v=56
57600 On ch=10 n=36 v=95
57840 Off ch=10 n=36 v=80
57840 On ch=10 n=36 v=95
58080 Off ch=10 n=36 v=80
58080 On ch=10 n=69 v=63
58320 Off ch=10 n=69 v=80
58320 On ch=10 n=36 v=95
58560 Off ch=10 n=36 v=80
58560 On ch=10 n=36 v=95
58800 Off ch=10 n=36 v=80
58800 On ch=10 n=69 v=63
59040 Off ch=10 n=69 v=80
59520 Par ch=10 c=7 v=56
59520 On ch=10 n=36 v=95
59760 Off ch=10 n=36 v=80
59760 On ch=10 n=36 v=95
60000 Off ch=10 n=36 v=80
60000 On ch=10 n=69 v=63
60240 Off ch=10 n=69 v=80
60240 On ch=10 n=36 v=95
60480 Off ch=10 n=36 v=80
60480 On ch=10 n=36 v=95
60720 Off ch=10 n=36 v=80
60720 On ch=10 n=69 v=63
60960 Off ch=10 n=69 v=80
60960 On ch=10 n=53 v=63
61440 Off ch=10 n=53 v=80
61440 Par ch=10 c=7 v=56
61440 On ch=10 n=36 v=95
61680 Off ch=10 n=36 v=80
61680 On ch=10 n=36 v=95
61920 Off ch=10 n=36 v=80
61920 On ch=10 n=69 v=63
62160 Off ch=10 n=69 v=80
62160 On ch=10 n=36 v=95
62400 Off ch=10 n=36 v=80
62400 On ch=10 n=36 v=95
62640 Off ch=10 n=36 v=80
62640 On ch=10 n=69 v=63
62880 Off ch=10 n=69 v=80
63360 Par ch=10 c=7 v=56
63360 On ch=10 n=36 v=95
63600 Off ch=10 n=36 v=80
63600 On ch=10 n=36 v=95
63840 Off ch=10 n=36 v=80
63840 On ch=10 n=69 v=63
64080 Off ch=10 n=69 v=80
64080 On ch=10 n=36 v=95
64320 Off ch=10 n=36 v=80
64320 On ch=10 n=36 v=95
64560 Off ch=10 n=36 v=80
64560 On ch=10 n=69 v=63
64800 Off ch=10 n=69 v=80
64800 On ch=10 n=53 v=63
65280 Off ch=10 n=53 v=80
65280 Par ch=10 c=7 v=56
65280 On ch=10 n=36 v=95
65520 Off ch=10 n=36 v=80
65520 On ch=10 n=36 v=95
65760 Off ch=10 n=36 v=80
65760 On ch=10 n=69 v=63
66000 Off ch=10 n=69 v=80
66000 On ch=10 n=36 v=95
66240 Off ch=10 n=36 v=80
66240 On ch=10 n=36 v=95
66480 Off ch=10 n=36 v=80
66480 On ch=10 n=69 v=63
66720 Off ch=10 n=69 v=80
67200 Par ch=10 c=7 v=56
67200 On ch=10 n=36 v=95
67440 Off ch=10 n=36 v=80
67440 On ch=10 n=36 v=95
67680 Off ch=10 n=36 v=80
67680 On ch=10 n=69 v=63
67920 Off ch=10 n=69 v=80
67920 On ch=10 n=36 v=95
68160 Off ch=10 n=36 v=80
68160 On ch=10 n=36 v=95
68400 Off ch=10 n=36 v=80
68400 On ch=10 n=69 v=63
68640 Off ch=10 n=69 v=80
68640 On ch=10 n=53 v=63
69120 Off ch=10 n=53 v=80
69120 Par ch=10 c=7 v=56
69120 On ch=10 n=36 v=95
69360 Off ch=10 n=36 v=80
69360 On ch=10 n=36 v=95
69600 Off ch=10 n=36 v=80
69840 On ch=10 n=36 v=95
70080 Off ch=10 n=36 v=80
70080 On ch=10 n=36 v=95
70320 Off ch=10 n=36 v=80
71040 Par ch=10 c=7 v=56
71040 On ch=10 n=36 v=95
71280 Off ch=10 n=36 v=80
71280 On ch=10 n=36 v=95
71520 Off ch=10 n=36 v=80
71760 On ch=10 n=36 v=95
72000 Off ch=10 n=36 v=80
72000 On ch=10 n=36 v=95
72240 Off ch=10 n=36 v=80
72960 Par ch=10 c=7 v=104
72960 On ch=10 n=36 v=95
73200 Off ch=10 n=36 v=80
73200 On ch=10 n=36 v=95
73440 Off ch=10 n=36 v=80
73440 On ch=10 n=40 v=95
73470 Off ch=10 n=40 v=80
73470 On ch=10 n=40 v=95
73590 Off ch=10 n=40 v=80
73680 On ch=10 n=36 v=95
73920 Off ch=10 n=36 v=80
73920 On ch=10 n=36 v=95
74160 Off ch=10 n=36 v=80
74160 On ch=10 n=40 v=95
74190 Off ch=10 n=40 v=80
74190 On ch=10 n=40 v=95
74310 Off ch=10 n=40 v=80
74880 Par ch=10 c=7 v=104
74880 On ch=10 n=36 v=95
75120 Off ch=10 n=36 v=80
75120 On ch=10 n=36 v=95
75360 Off ch=10 n=36 v=80
75360 On ch=10 n=40 v=95
75390 Off ch=10 n=40 v=80
75390 On ch=10 n=40 v=95
75510 Off ch=10 n=40 v=80
75600 On ch=10 n=36 v=95
75840 Off ch=10 n=36 v=80
75840 On ch=10 n=36 v=95
76080 Off ch=10 n=36 v=80
76080 On ch=10 n=40 v=95
76110 Off ch=10 n=40 v=80
76110 On ch=10 n=40 v=95
76230 Off ch=10 n=40 v=80
76320 On ch=10 n=46 v=95
76440 Off ch=10 n=46 v=80
76800 Par ch=10 c=7 v=104
76800 On ch=10 n=36 v=95
77040 Off ch=10 n=36 v=80
77040 On ch=10 n=36 v=95
77280 Off ch=10 n=36 v=80
77280 On ch=10 n=40 v=95
77310 Off ch=10 n=40 v=80
77310 On ch=10 n=40 v=95
77430 Off ch=10 n=40 v=80
77520 On ch=10 n=36 v=95
77760 Off ch=10 n=36 v=80
77760 On ch=10 n=36 v=95
78000 Off ch=10 n=36 v=80
78000 On ch=10 n=40 v=95
78030 Off ch=10 n=40 v=80
78030 On ch=10 n=40 v=95
78150 Off ch=10 n=40 v=80
78720 Par ch=10 c=7 v=104
78720 On ch=10 n=36 v=95
78960 Off ch=10 n=36 v=80
78960 On ch=10 n=36 v=95
79200 Off ch=10 n=36 v=80
79200 On ch=10 n=40 v=95
79230 Off ch=10 n=40 v=80
79230 On ch=10 n=40 v=95
79350 Off ch=10 n=40 v=80
79440 On ch=10 n=36 v=95
79680 Off ch=10 n=36 v=80
79680 On ch=10 n=36 v=95
79920 Off ch=10 n=36 v=80
79920 On ch=10 n=40 v=95
79950 Off ch=10 n=40 v=80
79950 On ch=10 n=40 v=95
80070 Off ch=10 n=40 v=80
80160 On ch=10 n=46 v=95
80280 Off ch=10 n=46 v=80
80640 Par ch=10 c=7 v=104
80640 On ch=10 n=36 v=95
80880 Off ch=10 n=36 v=80
80880 On ch=10 n=36 v=95
81120 Off ch=10 n=36 v=80
81120 On ch=10 n=40 v=95
81150 Off ch=10 n=40 v=80
81150 On ch=10 n=40 v=95
81270 Off ch=10 n=40 v=80
81360 On ch=10 n=36 v=95
81600 Off ch=10 n=36 v=80
81600 On ch=10 n=36 v=95
81840 Off ch=10 n=36 v=80
81840 On ch=10 n=40 v=95
81870 Off ch=10 n=40 v=80
81870 On ch=10 n=40 v=95
81990 Off ch=10 n=40 v=80
82560 Par ch=10 c=7 v=104
82560 On ch=10 n=36 v=95
82800 Off ch=10 n=36 v=80
82800 On ch=10 n=36 v=95
83040 Off ch=10 n=36 v=80
83040 On ch=10 n=40 v=95
83070 Off ch=10 n=40 v=80
83070 On ch=10 n=40 v=95
83190 Off ch=10 n=40 v=80
83280 On ch=10 n=36 v=95
83520 Off ch=10 n=36 v=80
83520 On ch=10 n=36 v=95
83760 Off ch=10 n=36 v=80
83760 On ch=10 n=40 v=95
83790 Off ch=10 n=40 v=80
83790 On ch=10 n=40 v=95
83910 Off ch=10 n=40 v=80
84000 On ch=10 n=46 v=95
84120 Off ch=10 n=46 v=80
84480 Par ch=10 c=7 v=104
84480 On ch=10 n=36 v=95
84720 Off ch=10 n=36 v=80
84720 On ch=10 n=36 v=95
84960 Off ch=10 n=36 v=80
84960 On ch=10 n=40 v=95
84990 Off ch=10 n=40 v=80
84990 On ch=10 n=40 v=95
85110 Off ch=10 n=40 v=80
85200 On ch=10 n=36 v=95
85440 Off ch=10 n=36 v=80
85440 On ch=10 n=36 v=95
85680 Off ch=10 n=36 v=80
85680 On ch=10 n=40 v=95
85710 Off ch=10 n=40 v=80
85710 On ch=10 n=40 v=95
85830 Off ch=10 n=40 v=80
86400 Par ch=10 c=7 v=104
86400 On ch=10 n=36 v=95
86640 Off ch=10 n=36 v=80
86640 On ch=10 n=36 v=95
86880 Off ch=10 n=36 v=80
86880 On ch=10 n=40 v=95
86910 Off ch=10 n=40 v=80
86910 On ch=10 n=40 v=95
87030 Off ch=10 n=40 v=80
87120 On ch=10 n=36 v=95
87360 Off ch=10 n=36 v=80
87360 On ch=10 n=36 v=95
87600 Off ch=10 n=36 v=80
87600 On ch=10 n=40 v=95
87630 Off ch=10 n=40 v=80
87630 On ch=10 n=40 v=95
87750 Off ch=10 n=40 v=80
87840 On ch=10 n=46 v=95
87960 Off ch=10 n=46 v=80
88320 Par ch=10 c=7 v=104
88320 On ch=10 n=57 v=95
88320 On ch=10 n=36 v=95
88560 Off ch=10 n=57 v=80
88560 Off ch=10 n=36 v=80
88560 On ch=10 n=36 v=95
88800 Off ch=10 n=36 v=80
88800 On ch=10 n=57 v=95
88800 On ch=10 n=40 v=95
89040 Off ch=10 n=57 v=80
89040 Off ch=10 n=40 v=80
89040 On ch=10 n=36 v=95
89160 Off ch=10 n=36 v=80
89160 On ch=10 n=40 v=95
89280 Off ch=10 n=40 v=80
89280 On ch=10 n=57 v=95
89280 On ch=10 n=36 v=95
89520 Off ch=10 n=57 v=80
89520 Off ch=10 n=36 v=80
89520 On ch=10 n=36 v=95
89760 Off ch=10 n=36 v=80
89760 On ch=10 n=57 v=95
89760 On ch=10 n=40 v=95
90000 Off ch=10 n=57 v=80
90000 Off ch=10 n=40 v=80
90000 On ch=10 n=36 v=95
90240 Off ch=10 n=36 v=80
90240 Par ch=10 c=7 v=104
90240 On ch=10 n=57 v=95
90240 On ch=10 n=36 v=95
90480 Off ch=10 n=57 v=80
90480 Off ch=10 n=36 v=80
90480 On ch=10 n=36 v=95
90720 Off ch=10 n=36 v=80
90720 On ch=10 n=57 v=95
90720 On ch=10 n=40 v=95
90960 Off ch=10 n=57 v=80
90960 Off ch=10 n=40 v=80
90960 On ch=10 n=36 v=95
91080 Off ch=10 n=36 v=80
91080 On ch=10 n=40 v=95
91200 Off ch=10 n=40 v=80
91200 On ch=10 n=57 v=95
91200 On ch=10 n=36 v=95
91440 Off ch=10 n=57 v=80
91440 Off ch=10 n=36 v=80
91440 On ch=10 n=36 v=95
91680 Off ch=10 n=36 v=80
91680 On ch=10 n=57 v=95
91680 On ch=10 n=40 v=95
91920 Off ch=10 n=57 v=80
91920 Off ch=10 n=40 v=80
91920 On ch=10 n=36 v=95
92160 Off ch=10 n=36 v=80
92160 Par ch=10 c=7 v=104
92160 On ch=10 n=57 v=95
92160 On ch=10 n=36 v=95
92400 Off ch=10 n=57 v=80
92400 Off ch=10 n=36 v=80
92400 On ch=10 n=36 v=95
92640 Off ch=10 n=36 v=80
92640 On ch=10 n=57 v=95
92640 On ch=10 n=40 v=95
92880 Off ch=10 n=57 v=80
92880 Off ch=10 n=40 v=80
92880 On ch=10 n=36 v=95
93000 Off ch=10 n=36 v=80
93000 On ch=10 n=40 v=95
93120 Off ch=10 n=40 v=80
93120 On ch=10 n=57 v=95
93120 On ch=10 n=36 v=95
93360 Off ch=10 n=57 v=80
93360 Off ch=10 n=36 v=80
93360 On ch=10 n=36 v=95
93600 Off ch=10 n=36 v=80
93600 On ch=10 n=57 v=95
93600 On ch=10 n=40 v=95
93840 Off ch=10 n=57 v=80
93840 Off ch=10 n=40 v=80
93840 On ch=10 n=36 v=95
94080 Off ch=10 n=36 v=80
94080 Par ch=10 c=7 v=104
94080 On ch=10 n=57 v=95
94080 On ch=10 n=36 v=95
94320 Off ch=10 n=57 v=80
94320 Off ch=10 n=36 v=80
94320 On ch=10 n=36 v=95
94560 Off ch=10 n=36 v=80
94560 On ch=10 n=57 v=95
94560 On ch=10 n=40 v=95
94800 Off ch=10 n=57 v=80
94800 Off ch=10 n=40 v=80
94800 On ch=10 n=36 v=95
94920 Off ch=10 n=36 v=80
94920 On ch=10 n=40 v=95
95040 Off ch=10 n=40 v=80
95040 On ch=10 n=57 v=95
95040 On ch=10 n=36 v=95
95280 Off ch=10 n=57 v=80
95280 Off ch=10 n=36 v=80
95280 On ch=10 n=36 v=95
95520 Off ch=10 n=36 v=80
95520 On ch=10 n=57 v=95
95520 On ch=10 n=40 v=95
96000 Off ch=10 n=57 v=80
96000 Off ch=10 n=40 v=80
96000 Par ch=10 c=7 v=104
96000 On ch=10 n=36 v=95
96240 Off ch=10 n=36 v=80
96240 On ch=10 n=36 v=95
96480 Off ch=10 n=36 v=80
96480 On ch=10 n=40 v=95
96510 Off ch=10 n=40 v=80
96510 On ch=10 n=40 v=95
96630 Off ch=10 n=40 v=80
96720 On ch=10 n=36 v=95
96960 Off ch=10 n=36 v=80
96960 On ch=10 n=36 v=95
97200 Off ch=10 n=36 v=80
97200 On ch=10 n=40 v=95
97230 Off ch=10 n=40 v=80
97230 On ch=10 n=40 v=95
97350 Off ch=10 n=40 v=80
97920 Par ch=10 c=7 v=104
97920 On ch=10 n=36 v=95
98160 Off ch=10 n=36 v=80
98160 On ch=10 n=36 v=95
98400 Off ch=10 n=36 v=80
98400 On ch=10 n=40 v=95
98430 Off ch=10 n=40 v=80
98430 On ch=10 n=40 v=95
98550 Off ch=10 n=40 v=80
98640 On ch=10 n=36 v=95
98880 Off ch=10 n=36 v=80
98880 On ch=10 n=36 v=95
99120 Off ch=10 n=36 v=80
99120 On ch=10 n=40 v=95
99150 Off ch=10 n=40 v=80
99150 On ch=10 n=40 v=95
99270 Off ch=10 n=40 v=80
99360 On ch=10 n=46 v=95
99480 Off ch=10 n=46 v=80
99840 Par ch=10 c=7 v=104
99840 On ch=10 n=36 v=95
100080 Off ch=10 n=36 v=80
100080 On ch=10 n=36 v=95
100320 Off ch=10 n=36 v=80
100320 On ch=10 n=40 v=95
100350 Off ch=10 n=40 v=80
100350 On ch=10 n=40 v=95
100470 Off ch=10 n=40 v=80
100560 On ch=10 n=36 v=95
100800 Off ch=10 n=36 v=80
100800 On ch=10 n=36 v=95
101040 Off ch=10 n=36 v=80
101040 On ch=10 n=40 v=95
101070 Off ch=10 n=40 v=80
101070 On ch=10 n=40 v=95
101190 Off ch=10 n=40 v=80
101760 Par ch=10 c=7 v=104
101760 On ch=10 n=36 v=95
102000 Off ch=10 n=36 v=80
102000 On ch=10 n=36 v=95
102240 Off ch=10 n=36 v=80
102240 On ch=10 n=40 v=95
102270 Off ch=10 n=40 v=80
102270 On ch=10 n=40 v=95
102390 Off ch=10 n=40 v=80
102480 On ch=10 n=36 v=95
102720 Off ch=10 n=36 v=80
102720 On ch=10 n=36 v=95
102960 Off ch=10 n=36 v=80
102960 On ch=10 n=40 v=95
102990 Off ch=10 n=40 v=80
102990 On ch=10 n=40 v=95
103110 Off ch=10 n=40 v=80
103200 On ch=10 n=46 v=95
103320 Off ch=10 n=46 v=80
103680 Par ch=10 c=7 v=104
103680 On ch=10 n=57 v=95
103680 On ch=10 n=36 v=95
103920 Off ch=10 n=57 v=80
103920 Off ch=10 n=36 v=80
103920 On ch=10 n=36 v=95
104160 Off ch=10 n=36 v=80
104160 On ch=10 n=57 v=95
104160 On ch=10 n=40 v=95
104400 Off ch=10 n=57 v=80
104400 Off ch=10 n=40 v=80
104400 On ch=10 n=36 v=95
104520 Off ch=10 n=36 v=80
104520 On ch=10 n=40 v=95
104640 Off ch=10 n=40 v=80
104640 On ch=10 n=57 v=95
104640 On ch=10 n=36 v=95
104880 Off ch=10 n=57 v=80
104880 Off ch=10 n=36 v=80
104880 On ch=10 n=36 v=95
105120 Off ch=10 n=36 v=80
105120 On ch=10 n=57 v=95
105120 On ch=10 n=40 v=95
105360 Off ch=10 n=57 v=80
105360 Off ch=10 n=40 v=80
105360 On ch=10 n=36 v=95
105600 Off ch=10 n=36 v=80
105600 Par ch=10 c=7 v=104
105600 On ch=10 n=57 v=95
105600 On ch=10 n=36 v=95
105840 Off ch=10 n=57 v=80
105840 Off ch=10 n=36 v=80
105840 On ch=10 n=36 v=95
106080 Off ch=10 n=36 v=80
106080 On ch=10 n=57 v=95
106080 On ch=10 n=40 v=95
106320 Off ch=10 n=57 v=80
106320 Off ch=10 n=40 v=80
106320 On ch=10 n=36 v=95
106440 Off ch=10 n=36 v=80
106440 On ch=10 n=40 v=95
106560 Off ch=10 n=40 v=80
106560 On ch=10 n=57 v=95
106560 On ch=10 n=36 v=95
106800 Off ch=10 n=57 v=80
106800 Off ch=10 n=36 v=80
106800 On ch=10 n=36 v=95
107040 Off ch=10 n=36 v=80
107040 On ch=10 n=57 v=95
107040 On ch=10 n=40 v=95
107280 Off ch=10 n=57 v=80
107280 Off ch=10 n=40 v=80
107280 On ch=10 n=36 v=95
107520 Off ch=10 n=36 v=80
107520 Par ch=10 c=7 v=104
107520 On ch=10 n=57 v=95
107520 On ch=10 n=36 v=95
107760 Off ch=10 n=57 v=80
107760 Off ch=10 n=36 v=80
107760 On ch=10 n=36 v=95
108000 Off ch=10 n=36 v=80
108000 On ch=10 n=57 v=95
108000 On ch=10 n=40 v=95
108240 Off ch=10 n=57 v=80
108240 Off ch=10 n=40 v=80
108240 On ch=10 n=36 v=95
108360 Off ch=10 n=36 v=80
108360 On ch=10 n=40 v=95
108480 Off ch=10 n=40 v=80
108480 On ch=10 n=57 v=95
108480 On ch=10 n=36 v=95
108720 Off ch=10 n=57 v=80
108720 Off ch=10 n=36 v=80
108720 On ch=10 n=36 v=95
108960 Off ch=10 n=36 v=80
108960 On ch=10 n=57 v=95
108960 On ch=10 n=40 v=95
109200 Off ch=10 n=57 v=80
109200 Off ch=10 n=40 v=80
109200 On ch=10 n=36 v=95
109440 Off ch=10 n=36 v=80
109440 Par ch=10 c=7 v=104
109440 On ch=10 n=57 v=95
109440 On ch=10 n=36 v=95
109680 Off ch=10 n=57 v=80
109680 Off ch=10 n=36 v=80
109680 On ch=10 n=36 v=95
109920 Off ch=10 n=36 v=80
109920 On ch=10 n=57 v=95
109920 On ch=10 n=40 v=95
110160 Off ch=10 n=57 v=80
110160 Off ch=10 n=40 v=80
110160 On ch=10 n=36 v=95
110280 Off ch=10 n=36 v=80
110280 On ch=10 n=40 v=95
110400 Off ch=10 n=40 v=80
110400 On ch=10 n=57 v=95
110400 On ch=10 n=36 v=95
110640 Off ch=10 n=57 v=80
110640 Off ch=10 n=36 v=80
110640 On ch=10 n=40 v=95
110760 Off ch=10 n=40 v=80
110760 On ch=10 n=40 v=95
110880 Off ch=10 n=40 v=80
110880 On ch=10 n=40 v=95
111000 Off ch=10 n=40 v=80
111000 On ch=10 n=40 v=95
111120 Off ch=10 n=40 v=80
111120 On ch=10 n=40 v=95
111240 Off ch=10 n=40 v=80
111240 On ch=10 n=40 v=95
111360 Off ch=10 n=40 v=80
111360 Par ch=10 c=7 v=104
111360 On ch=10 n=57 v=95
111360 On ch=10 n=36 v=95
111600 Off ch=10 n=57 v=80
111600 Off ch=10 n=36 v=80
111600 On ch=10 n=36 v=95
111840 Off ch=10 n=36 v=80
111840 On ch=10 n=57 v=95
111840 On ch=10 n=40 v=95
112080 Off ch=10 n=57 v=80
112080 Off ch=10 n=40 v=80
112080 On ch=10 n=36 v=95
112200 Off ch=10 n=36 v=80
112200 On ch=10 n=40 v=95
112320 Off ch=10 n=40 v=80
112320 On ch=10 n=57 v=95
112320 On ch=10 n=36 v=95
112560 Off ch=10 n=57 v=80
112560 Off ch=10 n=36 v=80
112560 On ch=10 n=36 v=95
112800 Off ch=10 n=36 v=80
112800 On ch=10 n=57 v=95
112800 On ch=10 n=40 v=95
113040 Off ch=10 n=57 v=80
113040 Off ch=10 n=40 v=80
113040 On ch=10 n=36 v=95
113280 Off ch=10 n=36 v=80
113280 Par ch=10 c=7 v=104
113280 On ch=10 n=57 v=95
113280 On ch=10 n=36 v=95
113520 Off ch=10 n=57 v=80
113520 Off ch=10 n=36 v=80
113520 On ch=10 n=36 v=95
113760 Off ch=10 n=36 v=80
113760 On ch=10 n=57 v=95
113760 On ch=10 n=40 v=95
114000 Off ch=10 n=57 v=80
114000 Off ch=10 n=40 v=80
114000 On ch=10 n=36 v=95
114120 Off ch=10 n=36 v=80
114120 On ch=10 n=40 v=95
114240 Off ch=10 n=40 v=80
114240 On ch=10 n=57 v=95
114240 On ch=10 n=36 v=95
114480 Off ch=10 n=57 v=80
114480 Off ch=10 n=36 v=80
114480 On ch=10 n=36 v=95
114720 Off ch=10 n=36 v=80
114720 On ch=10 n=57 v=95
114720 On ch=10 n=40 v=95
114960 Off ch=10 n=57 v=80
114960 Off ch=10 n=40 v=80
114960 On ch=10 n=36 v=95
115200 Off ch=10 n=36 v=80
115200 Par ch=10 c=7 v=104
115200 On ch=10 n=57 v=95
115200 On ch=10 n=36 v=95
115440 Off ch=10 n=57 v=80
115440 Off ch=10 n=36 v=80
115440 On ch=10 n=36 v=95
115680 Off ch=10 n=36 v=80
115680 On ch=10 n=57 v=95
115680 On ch=10 n=40 v=95
115920 Off ch=10 n=57 v=80
115920 Off ch=10 n=40 v=80
115920 On ch=10 n=36 v=95
116040 Off ch=10 n=36 v=80
116040 On ch=10 n=40 v=95
116160 Off ch=10 n=40 v=80
116160 On ch=10 n=57 v=95
116160 On ch=10 n=36 v=95
116400 Off ch=10 n=57 v=80
116400 Off ch=10 n=36 v=80
116400 On ch=10 n=36 v=95
116640 Off ch=10 n=36 v=80
116640 On ch=10 n=57 v=95
116640 On ch=10 n=40 v=95
116880 Off ch=10 n=57 v=80
116880 Off ch=10 n=40 v=80
116880 On ch=10 n=36 v=95
117120 Off ch=10 n=36 v=80
117120 Par ch=10 c=7 v=104
117120 On ch=10 n=57 v=95
117120 On ch=10 n=36 v=95
117360 Off ch=10 n=57 v=80
117360 Off ch=10 n=36 v=80
117360 On ch=10 n=36 v=95
117600 Off ch=10 n=36 v=80
117600 On ch=10 n=57 v=95
117600 On ch=10 n=40 v=95
117840 Off ch=10 n=57 v=80
117840 Off ch=10 n=40 v=80
117840 On ch=10 n=36 v=95
117960 Off ch=10 n=36 v=80
117960 On ch=10 n=40 v=95
118080 Off ch=10 n=40 v=80
118080 On ch=10 n=57 v=95
118080 On ch=10 n=36 v=95
118320 Off ch=10 n=57 v=80
118320 Off ch=10 n=36 v=80
118320 On ch=10 n=36 v=95
118560 Off ch=10 n=36 v=80
118560 On ch=10 n=57 v=95
118560 On ch=10 n=40 v=95
118800 Off ch=10 n=57 v=80
118800 Off ch=10 n=40 v=80
118800 On ch=10 n=36 v=95
119040 Off ch=10 n=36 v=80
119040 Par ch=10 c=7 v=104
119040 On ch=10 n=57 v=95
119040 On ch=10 n=36 v=95
119280 Off ch=10 n=57 v=80
119280 Off ch=10 n=36 v=80
119280 On ch=10 n=36 v=95
119520 Off ch=10 n=36 v=80
119520 On ch=10 n=57 v=95
119520 On ch=10 n=40 v=95
119760 Off ch=10 n=57 v=80
119760 Off ch=10 n=40 v=80
119760 On ch=10 n=36 v=95
119880 Off ch=10 n=36 v=80
119880 On ch=10 n=40 v=95
120000 Off ch=10 n=40 v=80
120000 On ch=10 n=57 v=95
120000 On ch=10 n=36 v=95
120240 Off ch=10 n=57 v=80
120240 Off ch=10 n=36 v=80
120240 On ch=10 n=36 v=95
120480 Off ch=10 n=36 v=80
120480 On ch=10 n=57 v=95
120480 On ch=10 n=40 v=95
120720 Off ch=10 n=57 v=80
120720 Off ch=10 n=40 v=80
120720 On ch=10 n=36 v=95
120960 Off ch=10 n=36 v=80
120960 Par ch=10 c=7 v=104
120960 On ch=10 n=57 v=95
120960 On ch=10 n=36 v=95
121200 Off ch=10 n=57 v=80
121200 Off ch=10 n=36 v=80
121200 On ch=10 n=36 v=95
121440 Off ch=10 n=36 v=80
121440 On ch=10 n=57 v=95
121440 On ch=10 n=40 v=95
121680 Off ch=10 n=57 v=80
121680 Off ch=10 n=40 v=80
121680 On ch=10 n=36 v=95
121800 Off ch=10 n=36 v=80
121800 On ch=10 n=40 v=95
121920 Off ch=10 n=40 v=80
121920 On ch=10 n=57 v=95
121920 On ch=10 n=36 v=95
122160 Off ch=10 n=57 v=80
122160 Off ch=10 n=36 v=80
122160 On ch=10 n=36 v=95
122400 Off ch=10 n=36 v=80
122400 On ch=10 n=57 v=95
122400 On ch=10 n=40 v=95
122640 Off ch=10 n=57 v=80
122640 Off ch=10 n=40 v=80
122640 On ch=10 n=36 v=95
122880 Off ch=10 n=36 v=80
122880 Par ch=10 c=7 v=104
122880 On ch=10 n=57 v=95
122880 On ch=10 n=36 v=95
123120 Off ch=10 n=57 v=80
123120 Off ch=10 n=36 v=80
123120 On ch=10 n=36 v=95
123360 Off ch=10 n=36 v=80
123360 On ch=10 n=57 v=95
123360 On ch=10 n=40 v=95
123600 Off ch=10 n=57 v=80
123600 Off ch=10 n=40 v=80
123600 On ch=10 n=36 v=95
123720 Off ch=10 n=36 v=80
123720 On ch=10 n=40 v=95
123840 Off ch=10 n=40 v=80
123840 On ch=10 n=57 v=95
123840 On ch=10 n=36 v=95
124080 Off ch=10 n=57 v=80
124080 Off ch=10 n=36 v=80
124080 On ch=10 n=36 v=95
124320 Off ch=10 n=36 v=80
124320 On ch=10 n=57 v=95
124320 On ch=10 n=40 v=95
124560 Off ch=10 n=57 v=80
124560 Off ch=10 n=40 v=80
124560 On ch=10 n=36 v=95
124800 Off ch=10 n=36 v=80
124800 Par ch=10 c=7 v=104
124800 On ch=10 n=57 v=95
124800 On ch=10 n=36 v=95
125040 Off ch=10 n=57 v=80
125040 Off ch=10 n=36 v=80
125040 On ch=10 n=36 v=95
125280 Off ch=10 n=36 v=80
125280 On ch=10 n=57 v=95
125280 On ch=10 n=40 v=95
125520 Off ch=10 n=57 v=80
125520 Off ch=10 n=40 v=80
125520 On ch=10 n=36 v=95
125640 Off ch=10 n=36 v=80
125640 On ch=10 n=40 v=95
125760 Off ch=10 n=40 v=80
125760 On ch=10 n=57 v=95
125760 On ch=10 n=36 v=95
126000 Off ch=10 n=57 v=80
126000 Off ch=10 n=36 v=80
126000 On ch=10 n=36 v=95
126240 Off ch=10 n=36 v=80
126240 On ch=10 n=57 v=95
126240 On ch=10 n=40 v=95
126480 Off ch=10 n=57 v=80
126480 Off ch=10 n=40 v=80
126480 On ch=10 n=36 v=95
126720 Off ch=10 n=36 v=80
126720 Par ch=10 c=7 v=104
126720 On ch=10 n=36 v=95
126960 Off ch=10 n=36 v=80
126960 On ch=10 n=36 v=95
127200 Off ch=10 n=36 v=80
127200 On ch=10 n=40 v=95
127230 Off ch=10 n=40 v=80
127230 On ch=10 n=40 v=95
127350 Off ch=10 n=40 v=80
127440 On ch=10 n=36 v=95
127680 Off ch=10 n=36 v=80
127680 On ch=10 n=36 v=95
127920 Off ch=10 n=36 v=80
127920 On ch=10 n=40 v=95
127950 Off ch=10 n=40 v=80
127950 On ch=10 n=40 v=95
128070 Off ch=10 n=40 v=80
128640 Par ch=10 c=7 v=104
128640 On ch=10 n=36 v=95
128880 Off ch=10 n=36 v=80
128880 On ch=10 n=36 v=95
129120 Off ch=10 n=36 v=80
129120 On ch=10 n=40 v=95
129150 Off ch=10 n=40 v=80
129150 On ch=10 n=40 v=95
129270 Off ch=10 n=40 v=80
129360 On ch=10 n=36 v=95
129600 Off ch=10 n=36 v=80
129600 On ch=10 n=36 v=95
129840 Off ch=10 n=36 v=80
129840 On ch=10 n=40 v=95
129870 Off ch=10 n=40 v=80
129870 On ch=10 n=40 v=95
129990 Off ch=10 n=40 v=80
130080 On ch=10 n=46 v=95
130200 Off ch=10 n=46 v=80
130560 Par ch=10 c=7 v=104
130560 On ch=10 n=36 v=95
130800 Off ch=10 n=36 v=80
130800 On ch=10 n=36 v=95
131040 Off ch=10 n=36 v=80
131040 On ch=10 n=40 v=95
131070 Off ch=10 n=40 v=80
131070 On ch=10 n=40 v=95
131190 Off ch=10 n=40 v=80
131280 On ch=10 n=36 v=95
131520 Off ch=10 n=36 v=80
131520 On ch=10 n=36 v=95
131760 Off ch=10 n=36 v=80
131760 On ch=10 n=40 v=95
131790 Off ch=10 n=40 v=80
131790 On ch=10 n=40 v=95
131910 Off ch=10 n=40 v=80
132480 Par ch=10 c=7 v=104
132480 On ch=10 n=36 v=95
132720 Off ch=10 n=36 v=80
132720 On ch=10 n=36 v=95
132960 Off ch=10 n=36 v=80
132960 On ch=10 n=40 v=95
132990 Off ch=10 n=40 v=80
132990 On ch=10 n=40 v=95
133110 Off ch=10 n=40 v=80
133200 On ch=10 n=36 v=95
133440 Off ch=10 n=36 v=80
133440 On ch=10 n=36 v=95
133680 Off ch=10 n=36 v=80
133680 On ch=10 n=40 v=95
133710 Off ch=10 n=40 v=80
133710 On ch=10 n=40 v=95
133830 Off ch=10 n=40 v=80
133920 On ch=10 n=46 v=95
134040 Off ch=10 n=46 v=80
134400 Par ch=10 c=7 v=104
134400 On ch=10 n=57 v=95
134400 On ch=10 n=36 v=95
134640 Off ch=10 n=57 v=80
134640 Off ch=10 n=36 v=80
134640 On ch=10 n=36 v=95
134880 Off ch=10 n=36 v=80
134880 On ch=10 n=57 v=95
134880 On ch=10 n=40 v=95
135120 Off ch=10 n=57 v=80
135120 Off ch=10 n=40 v=80
135120 On ch=10 n=36 v=95
135240 Off ch=10 n=36 v=80
135240 On ch=10 n=40 v=95
135360 Off ch=10 n=40 v=80
135360 On ch=10 n=57 v=95
135360 On ch=10 n=36 v=95
135600 Off ch=10 n=57 v=80
135600 Off ch=10 n=36 v=80
135600 On ch=10 n=36 v=95
135840 Off ch=10 n=36 v=80
135840 On ch=10 n=57 v=95
135840 On ch=10 n=40 v=95
136080 Off ch=10 n=57 v=80
136080 Off ch=10 n=40 v=80
136080 On ch=10 n=36 v=95
136320 Off ch=10 n=36 v=80
136320 Par ch=10 c=7 v=104
136320 On ch=10 n=57 v=95
136320 On ch=10 n=36 v=95
136560 Off ch=10 n=57 v=80
136560 Off ch=10 n=36 v=80
136560 On ch=10 n=36 v=95
136800 Off ch=10 n=36 v=80
136800 On ch=10 n=57 v=95
136800 On ch=10 n=40 v=95
137040 Off ch=10 n=57 v=80
137040 Off ch=10 n=40 v=80
137040 On ch=10 n=36 v=95
137160 Off ch=10 n=36 v=80
137160 On ch=10 n=40 v=95
137280 Off ch=10 n=40 v=80
137280 On ch=10 n=57 v=95
137280 On ch=10 n=36 v=95
137520 Off ch=10 n=57 v=80
137520 Off ch=10 n=36 v=80
137520 On ch=10 n=36 v=95
137760 Off ch=10 n=36 v=80
137760 On ch=10 n=57 v=95
137760 On ch=10 n=40 v=95
138000 Off ch=10 n=57 v=80
138000 Off ch=10 n=40 v=80
138000 On ch=10 n=36 v=95
138240 Off ch=10 n=36 v=80
138240 Par ch=10 c=7 v=104
138240 On ch=10 n=57 v=95
138240 On ch=10 n=36 v=95
138480 Off ch=10 n=57 v=80
138480 Off ch=10 n=36 v=80
138480 On ch=10 n=36 v=95
138720 Off ch=10 n=36 v=80
138720 On ch=10 n=57 v=95
138720 On ch=10 n=40 v=95
138960 Off ch=10 n=57 v=80
138960 Off ch=10 n=40 v=80
138960 On ch=10 n=36 v=95
139080 Off ch=10 n=36 v=80
139080 On ch=10 n=40 v=95
139200 Off ch=10 n=40 v=80
139200 On ch=10 n=57 v=95
139200 On ch=10 n=36 v=95
139440 Off ch=10 n=57 v=80
139440 Off ch=10 n=36 v=80
139440 On ch=10 n=36 v=95
139680 Off ch=10 n=36 v=80
139680 On ch=10 n=57 v=95
139680 On ch=10 n=40 v=95
139920 Off ch=10 n=57 v=80
139920 Off ch=10 n=40 v=80
139920 On ch=10 n=36 v=95
140160 Off ch=10 n=36 v=80
140160 Par ch=10 c=7 v=104
140160 On ch=10 n=57 v=95
140160 On ch=10 n=36 v=95
140400 Off ch=10 n=57 v=80
140400 Off ch=10 n=36 v=80
140400 On ch=10 n=36 v=95
140640 Off ch=10 n=36 v=80
140640 On ch=10 n=57 v=95
140640 On ch=10 n=40 v=95
140880 Off ch=10 n=57 v=80
140880 Off ch=10 n=40 v=80
140880 On ch=10 n=36 v=95
141000 Off ch=10 n=36 v=80
141000 On ch=10 n=40 v=95
141120 Off ch=10 n=40 v=80
141120 On ch=10 n=57 v=95
141120 On ch=10 n=36 v=95
141360 Off ch=10 n=57 v=80
141360 Off ch=10 n=36 v=80
141360 On ch=10 n=40 v=95
141480 Off ch=10 n=40 v=80
141480 On ch=10 n=40 v=95
141600 Off ch=10 n=40 v=80
141600 On ch=10 n=40 v=95
141720 Off ch=10 n=40 v=80
141720 On ch=10 n=40 v=95
141840 Off ch=10 n=40 v=80
141840 On ch=10 n=40 v=95
141960 Off ch=10 n=40 v=80
141960 On ch=10 n=40 v=95
142080 Off ch=10 n=40 v=80
142080 Par ch=10 c=7 v=104
142080 On ch=10 n=57 v=95
142080 On ch=10 n=36 v=95
142320 Off ch=10 n=57 v=80
142320 Off ch=10 n=36 v=80
142320 On ch=10 n=36 v=95
142560 Off ch=10 n=36 v=80
142560 On ch=10 n=57 v=95
142560 On ch=10 n=40 v=95
142800 Off ch=10 n=57 v=80
142800 Off ch=10 n=40 v=80
142800 On ch=10 n=36 v=95
142920 Off ch=10 n=36 v=80
142920 On ch=10 n=40 v=95
143040 Off ch=10 n=40 v=80
143040 On ch=10 n=57 v=95
143040 On ch=10 n=36 v=95
143280 Off ch=10 n=57 v=80
143280 Off ch=10 n=36 v=80
143280 On ch=10 n=36 v=95
143520 Off ch=10 n=36 v=80
143520 On ch=10 n=57 v=95
143520 On ch=10 n=40 v=95
143760 Off ch=10 n=57 v=80
143760 Off ch=10 n=40 v=80
143760 On ch=10 n=36 v=95
144000 Off ch=10 n=36 v=80
144000 Par ch=10 c=7 v=104
144000 On ch=10 n=57 v=95
144000 On ch=10 n=36 v=95
144240 Off ch=10 n=57 v=80
144240 Off ch=10 n=36 v=80
144240 On ch=10 n=36 v=95
144480 Off ch=10 n=36 v=80
144480 On ch=10 n=57 v=95
144480 On ch=10 n=40 v=95
144720 Off ch=10 n=57 v=80
144720 Off ch=10 n=40 v=80
144720 On ch=10 n=36 v=95
144840 Off ch=10 n=36 v=80
144840 On ch=10 n=40 v=95
144960 Off ch=10 n=40 v=80
144960 On ch=10 n=57 v=95
144960 On ch=10 n=36 v=95
145200 Off ch=10 n=57 v=80
145200 Off ch=10 n=36 v=80
145200 On ch=10 n=36 v=95
145440 Off ch=10 n=36 v=80
145440 On ch=10 n=57 v=95
145440 On ch=10 n=40 v=95
145680 Off ch=10 n=57 v=80
145680 Off ch=10 n=40 v=80
145680 On ch=10 n=36 v=95
145920 Off ch=10 n=36 v=80
145920 Par ch=10 c=7 v=104
145920 On ch=10 n=57 v=95
145920 On ch=10 n=36 v=95
146160 Off ch=10 n=57 v=80
146160 Off ch=10 n=36 v=80
146160 On ch=10 n=36 v=95
146400 Off ch=10 n=36 v=80
146400 On ch=10 n=57 v=95
146400 On ch=10 n=40 v=95
146640 Off ch=10 n=57 v=80
146640 Off ch=10 n=40 v=80
146640 On ch=10 n=36 v=95
146760 Off ch=10 n=36 v=80
146760 On ch=10 n=40 v=95
146880 Off ch=10 n=40 v=80
146880 On ch=10 n=57 v=95
146880 On ch=10 n=36 v=95
147120 Off ch=10 n=57 v=80
147120 Off ch=10 n=36 v=80
147120 On ch=10 n=36 v=95
147360 Off ch=10 n=36 v=80
147360 On ch=10 n=57 v=95
147360 On ch=10 n=40 v=95
147600 Off ch=10 n=57 v=80
147600 Off ch=10 n=40 v=80
147600 On ch=10 n=36 v=95
147840 Off ch=10 n=36 v=80
147840 Par ch=10 c=7 v=104
147840 On ch=10 n=57 v=95
147840 On ch=10 n=36 v=95
148080 Off ch=10 n=57 v=80
148080 Off ch=10 n=36 v=80
148080 On ch=10 n=36 v=95
148320 Off ch=10 n=36 v=80
148320 On ch=10 n=57 v=95
148320 On ch=10 n=40 v=95
148560 Off ch=10 n=57 v=80
148560 Off ch=10 n=40 v=80
148560 On ch=10 n=36 v=95
148680 Off ch=10 n=36 v=80
148680 On ch=10 n=40 v=95
148800 Off ch=10 n=40 v=80
148800 On ch=10 n=57 v=95
148800 On ch=10 n=36 v=95
149040 Off ch=10 n=57 v=80
149040 Off ch=10 n=36 v=80
149040 On ch=10 n=36 v=95
149280 Off ch=10 n=36 v=80
149280 On ch=10 n=57 v=95
149280 On ch=10 n=40 v=95
149520 Off ch=10 n=57 v=80
149520 Off ch=10 n=40 v=80
149520 On ch=10 n=36 v=95
149760 Off ch=10 n=36 v=80
149760 Par ch=10 c=7 v=104
149760 On ch=10 n=57 v=95
149760 On ch=10 n=36 v=95
150000 Off ch=10 n=57 v=80
150000 Off ch=10 n=36 v=80
150000 On ch=10 n=36 v=95
150240 Off ch=10 n=36 v=80
150240 On ch=10 n=57 v=95
150240 On ch=10 n=40 v=95
150480 Off ch=10 n=57 v=80
150480 Off ch=10 n=40 v=80
150480 On ch=10 n=36 v=95
150600 Off ch=10 n=36 v=80
150600 On ch=10 n=40 v=95
150720 Off ch=10 n=40 v=80
150720 On ch=10 n=57 v=95
150720 On ch=10 n=36 v=95
150960 Off ch=10 n=57 v=80
150960 Off ch=10 n=36 v=80
150960 On ch=10 n=36 v=95
151200 Off ch=10 n=36 v=80
151200 On ch=10 n=57 v=95
151200 On ch=10 n=40 v=95
151440 Off ch=10 n=57 v=80
151440 Off ch=10 n=40 v=80
151440 On ch=10 n=36 v=95
151680 Off ch=10 n=36 v=80
151680 Par ch=10 c=7 v=104
151680 On ch=10 n=57 v=95
151680 On ch=10 n=36 v=95
151920 Off ch=10 n=57 v=80
151920 Off ch=10 n=36 v=80
151920 On ch=10 n=36 v=95
152160 Off ch=10 n=36 v=80
152160 On ch=10 n=57 v=95
152160 On ch=10 n=40 v=95
152400 Off ch=10 n=57 v=80
152400 Off ch=10 n=40 v=80
152400 On ch=10 n=36 v=95
152520 Off ch=10 n=36 v=80
152520 On ch=10 n=40 v=95
152640 Off ch=10 n=40 v=80
152640 On ch=10 n=57 v=95
152640 On ch=10 n=36 v=95
152880 Off ch=10 n=57 v=80
152880 Off ch=10 n=36 v=80
152880 On ch=10 n=36 v=95
153120 Off ch=10 n=36 v=80
153120 On ch=10 n=57 v=95
153120 On ch=10 n=40 v=95
153360 Off ch=10 n=57 v=80
153360 Off ch=10 n=40 v=80
153360 On ch=10 n=36 v=95
153600 Off ch=10 n=36 v=80
153600 Par ch=10 c=7 v=104
153600 On ch=10 n=57 v=95
153600 On ch=10 n=36 v=95
153840 Off ch=10 n=57 v=80
153840 Off ch=10 n=36 v=80
153840 On ch=10 n=36 v=95
154080 Off ch=10 n=36 v=80
154080 On ch=10 n=57 v=95
154080 On ch=10 n=40 v=95
154320 Off ch=10 n=57 v=80
154320 Off ch=10 n=40 v=80
154320 On ch=10 n=36 v=95
154440 Off ch=10 n=36 v=80
154440 On ch=10 n=40 v=95
154560 Off ch=10 n=40 v=80
154560 On ch=10 n=57 v=95
154560 On ch=10 n=36 v=95
154800 Off ch=10 n=57 v=80
154800 Off ch=10 n=36 v=80
154800 On ch=10 n=36 v=95
155040 Off ch=10 n=36 v=80
155040 On ch=10 n=57 v=95
155040 On ch=10 n=40 v=95
155280 Off ch=10 n=57 v=80
155280 Off ch=10 n=40 v=80
155280 On ch=10 n=36 v=95
155520 Off ch=10 n=36 v=80
155520 Par ch=10 c=7 v=104
155520 On ch=10 n=57 v=95
155520 On ch=10 n=36 v=95
155760 Off ch=10 n=57 v=80
155760 Off ch=10 n=36 v=80
155760 On ch=10 n=36 v=95
156000 Off ch=10 n=36 v=80
156000 On ch=10 n=57 v=95
156000 On ch=10 n=40 v=95
156240 Off ch=10 n=57 v=80
156240 Off ch=10 n=40 v=80
156240 On ch=10 n=36 v=95
156360 Off ch=10 n=36 v=80
156360 On ch=10 n=40 v=95
156480 Off ch=10 n=40 v=80
156480 On ch=10 n=57 v=95
156480 On ch=10 n=36 v=95
156720 Off ch=10 n=57 v=80
156720 Off ch=10 n=36 v=80
156720 On ch=10 n=36 v=95
156960 Off ch=10 n=36 v=80
156960 On ch=10 n=57 v=95
156960 On ch=10 n=40 v=95
157200 Off ch=10 n=57 v=80
157200 Off ch=10 n=40 v=80
157200 On ch=10 n=36 v=95
157440 Off ch=10 n=36 v=80
157440 Par ch=10 c=7 v=104
157440 On ch=10 n=57 v=95
157440 On ch=10 n=36 v=95
157680 Off ch=10 n=57 v=80
157680 Off ch=10 n=36 v=80
157680 On ch=10 n=36 v=95
157920 Off ch=10 n=36 v=80
157920 On ch=10 n=57 v=95
157920 On ch=10 n=40 v=95
158160 Off ch=10 n=57 v=80
158160 Off ch=10 n=40 v=80
158160 On ch=10 n=36 v=95
158280 Off ch=10 n=36 v=80
158280 On ch=10 n=40 v=95
158400 Off ch=10 n=40 v=80
158400 On ch=10 n=57 v=95
158400 On ch=10 n=36 v=95
158640 Off ch=10 n=57 v=80
158640 Off ch=10 n=36 v=80
158640 On ch=10 n=36 v=95
158880 Off ch=10 n=36 v=80
158880 On ch=10 n=57 v=95
158880 On ch=10 n=40 v=95
159120 Off ch=10 n=57 v=80
159120 Off ch=10 n=40 v=80
159120 On ch=10 n=36 v=95
159360 Off ch=10 n=36 v=80
159360 On ch=10 n=57 v=95
159360 On ch=10 n=40 v=95
159360 On ch=10 n=36 v=95
159600 Off ch=10 n=57 v=80
159600 Off ch=10 n=40 v=80
159600 Off ch=10 n=36 v=80
159600 On ch=10 n=40 v=63
159600 On ch=10 n=36 v=95
159840 Off ch=10 n=40 v=80
159840 Off ch=10 n=36 v=80
159840 On ch=10 n=40 v=63
159840 On ch=10 n=36 v=95
160080 Off ch=10 n=40 v=80
160080 Off ch=10 n=36 v=80
160080 On ch=10 n=40 v=63
160080 On ch=10 n=36 v=95
160320 Off ch=10 n=40 v=80
160320 Off ch=10 n=36 v=80
160320 On ch=10 n=57 v=63
160320 On ch=10 n=40 v=95
160320 On ch=10 n=36 v=95
160560 Off ch=10 n=57 v=80
160560 Off ch=10 n=40 v=80
160560 Off ch=10 n=36 v=80
160560 On ch=10 n=57 v=63
160560 On ch=10 n=40 v=95
160560 On ch=10 n=36 v=95
160800 Off ch=10 n=57 v=80
160800 Off ch=10 n=40 v=80
160800 Off ch=10 n=36 v=80
160800 On ch=10 n=57 v=95
160800 On ch=10 n=40 v=95
160800 On ch=10 n=36 v=95
161040 Off ch=10 n=57 v=80
161040 Off ch=10 n=40 v=80
161040 Off ch=10 n=36 v=80
161040 On ch=10 n=57 v=95
161040 On ch=10 n=40 v=95
161040 On ch=10 n=36 v=95
161280 Off ch=10 n=57 v=80
161280 Off ch=10 n=40 v=80
161280 Off ch=10 n=36 v=80
161280 On ch=10 n=57 v=95
161280 On ch=10 n=40 v=95
161280 On ch=10 n=36 v=95
161520 Off ch=10 n=57 v=80
161520 Off ch=10 n=40 v=80
161520 Off ch=10 n=36 v=80
161520 On ch=10 n=57 v=95
161520 On ch=10 n=40 v=95
161520 On ch=10 n=36 v=95
161760 Off ch=10 n=57 v=80
161760 Off ch=10 n=40 v=80
161760 Off ch=10 n=36 v=80
161760 On ch=10 n=57 v=95
161760 On ch=10 n=40 v=95
161760 On ch=10 n=36 v=95
162000 Off ch=10 n=57 v=80
162000 Off ch=10 n=40 v=80
162000 Off ch=10 n=36 v=80
162000 On ch=10 n=57 v=95
162000 On ch=10 n=40 v=95
162000 On ch=10 n=36 v=95
162240 Off ch=10 n=57 v=80
162240 Off ch=10 n=40 v=80
162240 Off ch=10 n=36 v=80
162240 On ch=10 n=57 v=95
162240 On ch=10 n=40 v=95
162240 On ch=10 n=36 v=95
162480 Off ch=10 n=57 v=80
162480 Off ch=10 n=40 v=80
162480 Off ch=10 n=36 v=80
162480 On ch=10 n=57 v=95
162480 On ch=10 n=40 v=95
162480 On ch=10 n=36 v=95
162720 Off ch=10 n=57 v=80
162720 Off ch=10 n=40 v=80
162720 Off ch=10 n=36 v=80
162720 On ch=10 n=57 v=95
162720 On ch=10 n=40 v=95
162720 On ch=10 n=36 v=95
162960 Off ch=10 n=57 v=80
162960 Off ch=10 n=40 v=80
162960 Off ch=10 n=36 v=80
162960 On ch=10 n=57 v=95
162960 On ch=10 n=40 v=95
162960 On ch=10 n=36 v=95
163200 Off ch=10 n=57 v=80
163200 Off ch=10 n=40 v=80
163200 Off ch=10 n=36 v=80
178560 Par ch=10 c=7 v=104
178560 On ch=10 n=57 v=95
178560 On ch=10 n=36 v=95
178800 Off ch=10 n=57 v=80
178800 Off ch=10 n=36 v=80
178800 On ch=10 n=36 v=95
179040 Off ch=10 n=36 v=80
179040 On ch=10 n=57 v=95
179040 On ch=10 n=40 v=95
179280 Off ch=10 n=57 v=80
179280 Off ch=10 n=40 v=80
179280 On ch=10 n=36 v=95
179400 Off ch=10 n=36 v=80
179400 On ch=10 n=40 v=95
179520 Off ch=10 n=40 v=80
179520 On ch=10 n=57 v=95
179520 On ch=10 n=36 v=95
179760 Off ch=10 n=57 v=80
179760 Off ch=10 n=36 v=80
179760 On ch=10 n=36 v=95
180000 Off ch=10 n=36 v=80
180000 On ch=10 n=57 v=95
180000 On ch=10 n=40 v=95
180240 Off ch=10 n=57 v=80
180240 Off ch=10 n=40 v=80
180240 On ch=10 n=36 v=95
180480 Off ch=10 n=36 v=80
180480 Par ch=10 c=7 v=104
180480 On ch=10 n=57 v=95
180480 On ch=10 n=36 v=95
180720 Off ch=10 n=57 v=80
180720 Off ch=10 n=36 v=80
180720 On ch=10 n=36 v=95
180960 Off ch=10 n=36 v=80
180960 On ch=10 n=57 v=95
180960 On ch=10 n=40 v=95
181200 Off ch=10 n=57 v=80
181200 Off ch=10 n=40 v=80
181200 On ch=10 n=36 v=95
181320 Off ch=10 n=36 v=80
181320 On ch=10 n=40 v=95
181440 Off ch=10 n=40 v=80
181440 On ch=10 n=57 v=95
181440 On ch=10 n=36 v=95
181680 Off ch=10 n=57 v=80
181680 Off ch=10 n=36 v=80
181680 On ch=10 n=36 v=95
181920 Off ch=10 n=36 v=80
181920 On ch=10 n=57 v=95
181920 On ch=10 n=40 v=95
182160 Off ch=10 n=57 v=80
182160 Off ch=10 n=40 v=80
182160 On ch=10 n=36 v=95
182400 Off ch=10 n=36 v=80
182400 Par ch=10 c=7 v=104
182400 On ch=10 n=57 v=95
182400 On ch=10 n=36 v=95
182640 Off ch=10 n=57 v=80
182640 Off ch=10 n=36 v=80
182640 On ch=10 n=36 v=95
182880 Off ch=10 n=36 v=80
182880 On ch=10 n=57 v=95
182880 On ch=10 n=40 v=95
183120 Off ch=10 n=57 v=80
183120 Off ch=10 n=40 v=80
183120 On ch=10 n=36 v=95
183240 Off ch=10 n=36 v=80
183240 On ch=10 n=40 v=95
183360 Off ch=10 n=40 v=80
183360 On ch=10 n=57 v=95
183360 On ch=10 n=36 v=95
183600 Off ch=10 n=57 v=80
183600 Off ch=10 n=36 v=80
183600 On ch=10 n=36 v=95
183840 Off ch=10 n=36 v=80
183840 On ch=10 n=57 v=95
183840 On ch=10 n=40 v=95
184080 Off ch=10 n=57 v=80
184080 Off ch=10 n=40 v=80
184080 On ch=10 n=36 v=95
184320 Off ch=10 n=36 v=80
184320 Par ch=10 c=7 v=104
184320 On ch=10 n=57 v=95
184320 On ch=10 n=36 v=95
184560 Off ch=10 n=57 v=80
184560 Off ch=10 n=36 v=80
184560 On ch=10 n=36 v=95
184800 Off ch=10 n=36 v=80
184800 On ch=10 n=57 v=95
184800 On ch=10 n=40 v=95
185040 Off ch=10 n=57 v=80
185040 Off ch=10 n=40 v=80
185040 On ch=10 n=36 v=95
185160 Off ch=10 n=36 v=80
185160 On ch=10 n=40 v=95
185280 Off ch=10 n=40 v=80
185280 On ch=10 n=57 v=95
185280 On ch=10 n=36 v=95
185520 Off ch=10 n=57 v=80
185520 Off ch=10 n=36 v=80
185520 On ch=10 n=36 v=95
185760 Off ch=10 n=36 v=80
185760 On ch=10 n=57 v=95
185760 On ch=10 n=40 v=95
186240 Off ch=10 n=57 v=80
186240 Off ch=10 n=40 v=80
186240 Par ch=10 c=7 v=104
186240 On ch=10 n=36 v=95
186480 Off ch=10 n=36 v=80
186480 On ch=10 n=36 v=95
186720 Off ch=10 n=36 v=80
186720 On ch=10 n=40 v=95
186750 Off ch=10 n=40 v=80
186750 On ch=10 n=40 v=95
186870 Off ch=10 n=40 v=80
186960 On ch=10 n=36 v=95
187200 Off ch=10 n=36 v=80
187200 On ch=10 n=36 v=95
187440 Off ch=10 n=36 v=80
187440 On ch=10 n=40 v=95
187470 Off ch=10 n=40 v=80
187470 On ch=10 n=40 v=95
187590 Off ch=10 n=40 v=80
188160 Par ch=10 c=7 v=104
188160 On ch=10 n=36 v=95
188400 Off ch=10 n=36 v=80
188400 On ch=10 n=36 v=95
188640 Off ch=10 n=36 v=80
188640 On ch=10 n=40 v=95
188670 Off ch=10 n=40 v=80
188670 On ch=10 n=40 v=95
188790 Off ch=10 n=40 v=80
188880 On ch=10 n=36 v=95
189120 Off ch=10 n=36 v=80
189120 On ch=10 n=36 v=95
189360 Off ch=10 n=36 v=80
189360 On ch=10 n=40 v=95
189390 Off ch=10 n=40 v=80
189390 On ch=10 n=40 v=95
189510 Off ch=10 n=40 v=80
189600 On ch=10 n=46 v=95
189720 Off ch=10 n=46 v=80
190080 Par ch=10 c=7 v=104
190080 On ch=10 n=36 v=95
190320 Off ch=10 n=36 v=80
190320 On ch=10 n=36 v=95
190560 Off ch=10 n=36 v=80
190560 On ch=10 n=40 v=95
190590 Off ch=10 n=40 v=80
190590 On ch=10 n=40 v=95
190710 Off ch=10 n=40 v=80
190800 On ch=10 n=36 v=95
191040 Off ch=10 n=36 v=80
191040 On ch=10 n=36 v=95
191280 Off ch=10 n=36 v=80
191280 On ch=10 n=40 v=95
191310 Off ch=10 n=40 v=80
191310 On ch=10 n=40 v=95
191430 Off ch=10 n=40 v=80
192000 Par ch=10 c=7 v=104
192000 On ch=10 n=36 v=95
192240 Off ch=10 n=36 v=80
192240 On ch=10 n=36 v=95
192480 Off ch=10 n=36 v=80
192480 On ch=10 n=40 v=95
192510 Off ch=10 n=40 v=80
192510 On ch=10 n=40 v=95
192630 Off ch=10 n=40 v=80
192720 On ch=10 n=36 v=95
192960 Off ch=10 n=36 v=80
192960 On ch=10 n=36 v=95
193200 Off ch=10 n=36 v=80
193200 On ch=10 n=40 v=95
193230 Off ch=10 n=40 v=80
193230 On ch=10 n=40 v=95
193350 Off ch=10 n=40 v=80
193440 On ch=10 n=46 v=95
193560 Off ch=10 n=46 v=80
193920 Par ch=10 c=7 v=104
193920 On ch=10 n=57 v=95
193920 On ch=10 n=36 v=95
194160 Off ch=10 n=57 v=80
194160 Off ch=10 n=36 v=80
194160 On ch=10 n=36 v=95
194400 Off ch=10 n=36 v=80
194400 On ch=10 n=57 v=95
194400 On ch=10 n=40 v=95
194640 Off ch=10 n=57 v=80
194640 Off ch=10 n=40 v=80
194640 On ch=10 n=36 v=95
194760 Off ch=10 n=36 v=80
194760 On ch=10 n=40 v=95
194880 Off ch=10 n=40 v=80
194880 On ch=10 n=57 v=95
194880 On ch=10 n=36 v=95
195120 Off ch=10 n=57 v=80
195120 Off ch=10 n=36 v=80
195120 On ch=10 n=36 v=95
195360 Off ch=10 n=36 v=80
195360 On ch=10 n=57 v=95
195360 On ch=10 n=40 v=95
195600 Off ch=10 n=57 v=80
195600 Off ch=10 n=40 v=80
195600 On ch=10 n=36 v=95
195840 Off ch=10 n=36 v=80
195840 Par ch=10 c=7 v=104
195840 On ch=10 n=57 v=95
195840 On ch=10 n=36 v=95
196080 Off ch=10 n=57 v=80
196080 Off ch=10 n=36 v=80
196080 On ch=10 n=36 v=95
196320 Off ch=10 n=36 v=80
196320 On ch=10 n=57 v=95
196320 On ch=10 n=40 v=95
196560 Off ch=10 n=57 v=80
196560 Off ch=10 n=40 v=80
196560 On ch=10 n=36 v=95
196680 Off ch=10 n=36 v=80
196680 On ch=10 n=40 v=95
196800 Off ch=10 n=40 v=80
196800 On ch=10 n=57 v=95
196800 On ch=10 n=36 v=95
197040 Off ch=10 n=57 v=80
197040 Off ch=10 n=36 v=80
197040 On ch=10 n=36 v=95
197280 Off ch=10 n=36 v=80
197280 On ch=10 n=57 v=95
197280 On ch=10 n=40 v=95
197520 Off ch=10 n=57 v=80
197520 Off ch=10 n=40 v=80
197520 On ch=10 n=36 v=95
197760 Off ch=10 n=36 v=80
197760 Par ch=10 c=7 v=104
197760 On ch=10 n=57 v=95
197760 On ch=10 n=36 v=95
198000 Off ch=10 n=57 v=80
198000 Off ch=10 n=36 v=80
198000 On ch=10 n=36 v=95
198240 Off ch=10 n=36 v=80
198240 On ch=10 n=57 v=95
198240 On ch=10 n=40 v=95
198480 Off ch=10 n=57 v=80
198480 Off ch=10 n=40 v=80
198480 On ch=10 n=36 v=95
198600 Off ch=10 n=36 v=80
198600 On ch=10 n=40 v=95
198720 Off ch=10 n=40 v=80
198720 On ch=10 n=57 v=95
198720 On ch=10 n=36 v=95
198960 Off ch=10 n=57 v=80
198960 Off ch=10 n=36 v=80
198960 On ch=10 n=36 v=95
199200 Off ch=10 n=36 v=80
199200 On ch=10 n=57 v=95
199200 On ch=10 n=40 v=95
199440 Off ch=10 n=57 v=80
199440 Off ch=10 n=40 v=80
199440 On ch=10 n=36 v=95
199680 Off ch=10 n=36 v=80
199680 Par ch=10 c=7 v=104
199680 On ch=10 n=57 v=95
199680 On ch=10 n=36 v=95
199920 Off ch=10 n=57 v=80
199920 Off ch=10 n=36 v=80
199920 On ch=10 n=36 v=95
200160 Off ch=10 n=36 v=80
200160 On ch=10 n=57 v=95
200160 On ch=10 n=40 v=95
200400 Off ch=10 n=57 v=80
200400 Off ch=10 n=40 v=80
200400 On ch=10 n=36 v=95
200520 Off ch=10 n=36 v=80
200520 On ch=10 n=40 v=95
200640 Off ch=10 n=40 v=80
200640 On ch=10 n=57 v=95
200640 On ch=10 n=36 v=95
200880 Off ch=10 n=57 v=80
200880 Off ch=10 n=36 v=80
200880 On ch=10 n=40 v=95
201000 Off ch=10 n=40 v=80
201000 On ch=10 n=40 v=95
201120 Off ch=10 n=40 v=80
201120 On ch=10 n=40 v=95
201240 Off ch=10 n=40 v=80
201240 On ch=10 n=40 v=95
201360 Off ch=10 n=40 v=80
201360 On ch=10 n=40 v=95
201480 Off ch=10 n=40 v=80
201480 On ch=10 n=40 v=95
201600 Off ch=10 n=40 v=80
201600 Par ch=10 c=7 v=104
201600 On ch=10 n=57 v=95
201600 On ch=10 n=36 v=95
201840 Off ch=10 n=57 v=80
201840 Off ch=10 n=36 v=80
201840 On ch=10 n=36 v=95
202080 Off ch=10 n=36 v=80
202080 On ch=10 n=57 v=95
202080 On ch=10 n=40 v=95
202320 Off ch=10 n=57 v=80
202320 Off ch=10 n=40 v=80
202320 On ch=10 n=36 v=95
202440 Off ch=10 n=36 v=80
202440 On ch=10 n=40 v=95
202560 Off ch=10 n=40 v=80
202560 On ch=10 n=57 v=95
202560 On ch=10 n=36 v=95
202800 Off ch=10 n=57 v=80
202800 Off ch=10 n=36 v=80
202800 On ch=10 n=36 v=95
203040 Off ch=10 n=36 v=80
203040 On ch=10 n=57 v=95
203040 On ch=10 n=40 v=95
203280 Off ch=10 n=57 v=80
203280 Off ch=10 n=40 v=80
203280 On ch=10 n=36 v=95
203520 Off ch=10 n=36 v=80
203520 Par ch=10 c=7 v=104
203520 On ch=10 n=57 v=95
203520 On ch=10 n=36 v=95
203760 Off ch=10 n=57 v=80
203760 Off ch=10 n=36 v=80
203760 On ch=10 n=36 v=95
204000 Off ch=10 n=36 v=80
204000 On ch=10 n=57 v=95
204000 On ch=10 n=40 v=95
204240 Off ch=10 n=57 v=80
204240 Off ch=10 n=40 v=80
204240 On ch=10 n=36 v=95
204360 Off ch=10 n=36 v=80
204360 On ch=10 n=40 v=95
204480 Off ch=10 n=40 v=80
204480 On ch=10 n=57 v=95
204480 On ch=10 n=36 v=95
204720 Off ch=10 n=57 v=80
204720 Off ch=10 n=36 v=80
204720 On ch=10 n=36 v=95
204960 Off ch=10 n=36 v=80
204960 On ch=10 n=57 v=95
204960 On ch=10 n=40 v=95
205200 Off ch=10 n=57 v=80
205200 Off ch=10 n=40 v=80
205200 On ch=10 n=36 v=95
205440 Off ch=10 n=36 v=80
205440 Par ch=10 c=7 v=104
205440 On ch=10 n=57 v=95
205440 On ch=10 n=36 v=95
205680 Off ch=10 n=57 v=80
205680 Off ch=10 n=36 v=80
205680 On ch=10 n=36 v=95
205920 Off ch=10 n=36 v=80
205920 On ch=10 n=57 v=95
205920 On ch=10 n=40 v=95
206160 Off ch=10 n=57 v=80
206160 Off ch=10 n=40 v=80
206160 On ch=10 n=36 v=95
206280 Off ch=10 n=36 v=80
206280 On ch=10 n=40 v=95
206400 Off ch=10 n=40 v=80
206400 On ch=10 n=57 v=95
206400 On ch=10 n=36 v=95
206640 Off ch=10 n=57 v=80
206640 Off ch=10 n=36 v=80
206640 On ch=10 n=36 v=95
206880 Off ch=10 n=36 v=80
206880 On ch=10 n=57 v=95
206880 On ch=10 n=40 v=95
207120 Off ch=10 n=57 v=80
207120 Off ch=10 n=40 v=80
207120 On ch=10 n=36 v=95
207360 Off ch=10 n=36 v=80
207360 Par ch=10 c=7 v=104
207360 On ch=10 n=57 v=95
207360 On ch=10 n=36 v=95
207600 Off ch=10 n=57 v=80
207600 Off ch=10 n=36 v=80
207600 On ch=10 n=36 v=95
207840 Off ch=10 n=36 v=80
207840 On ch=10 n=57 v=95
207840 On ch=10 n=40 v=95
208080 Off ch=10 n=57 v=80
208080 Off ch=10 n=40 v=80
208080 On ch=10 n=36 v=95
208200 Off ch=10 n=36 v=80
208200 On ch=10 n=40 v=95
208320 Off ch=10 n=40 v=80
208320 On ch=10 n=57 v=95
208320 On ch=10 n=36 v=95
208560 Off ch=10 n=57 v=80
208560 Off ch=10 n=36 v=80
208560 On ch=10 n=40 v=95
208680 Off ch=10 n=40 v=80
208680 On ch=10 n=40 v=95
208800 Off ch=10 n=40 v=80
208800 On ch=10 n=40 v=95
208920 Off ch=10 n=40 v=80
208920 On ch=10 n=40 v=95
209040 Off ch=10 n=40 v=80
209040 On ch=10 n=40 v=95
209160 Off ch=10 n=40 v=80
209160 On ch=10 n=40 v=95
209280 Off ch=10 n=40 v=80
209280 Par ch=10 c=7 v=104
209280 On ch=10 n=57 v=95
209280 On ch=10 n=36 v=95
209520 Off ch=10 n=57 v=80
209520 Off ch=10 n=36 v=80
209520 On ch=10 n=36 v=95
209760 Off ch=10 n=36 v=80
209760 On ch=10 n=57 v=95
209760 On ch=10 n=40 v=95
210000 Off ch=10 n=57 v=80
210000 Off ch=10 n=40 v=80
210000 On ch=10 n=36 v=95
210120 Off ch=10 n=36 v=80
210120 On ch=10 n=40 v=95
210240 Off ch=10 n=40 v=80
210240 On ch=10 n=57 v=95
210240 On ch=10 n=36 v=95
210480 Off ch=10 n=57 v=80
210480 Off ch=10 n=36 v=80
210480 On ch=10 n=36 v=95
210720 Off ch=10 n=36 v=80
210720 On ch=10 n=57 v=95
210720 On ch=10 n=40 v=95
210960 Off ch=10 n=57 v=80
210960 Off ch=10 n=40 v=80
210960 On ch=10 n=36 v=95
211200 Off ch=10 n=36 v=80
211200 Par ch=10 c=7 v=104
211200 On ch=10 n=57 v=95
211200 On ch=10 n=36 v=95
211440 Off ch=10 n=57 v=80
211440 Off ch=10 n=36 v=80
211440 On ch=10 n=36 v=95
211680 Off ch=10 n=36 v=80
211680 On ch=10 n=57 v=95
211680 On ch=10 n=40 v=95
211920 Off ch=10 n=57 v=80
211920 Off ch=10 n=40 v=80
211920 On ch=10 n=36 v=95
212040 Off ch=10 n=36 v=80
212040 On ch=10 n=40 v=95
212160 Off ch=10 n=40 v=80
212160 On ch=10 n=57 v=95
212160 On ch=10 n=36 v=95
212400 Off ch=10 n=57 v=80
212400 Off ch=10 n=36 v=80
212400 On ch=10 n=36 v=95
212640 Off ch=10 n=36 v=80
212640 On ch=10 n=57 v=95
212640 On ch=10 n=40 v=95
212880 Off ch=10 n=57 v=80
212880 Off ch=10 n=40 v=80
212880 On ch=10 n=36 v=95
213120 Off ch=10 n=36 v=80
213120 Par ch=10 c=7 v=104
213120 On ch=10 n=57 v=95
213120 On ch=10 n=40 v=95
213120 On ch=10 n=36 v=95
213360 Off ch=10 n=57 v=80
213360 Off ch=10 n=40 v=80
213360 Off ch=10 n=36 v=80
213360 On ch=10 n=57 v=95
213360 On ch=10 n=40 v=95
213360 On ch=10 n=36 v=95
213600 Off ch=10 n=57 v=80
213600 Off ch=10 n=40 v=80
213600 Off ch=10 n=36 v=80
213600 On ch=10 n=57 v=95
213600 On ch=10 n=40 v=95
213600 On ch=10 n=36 v=95
213840 Off ch=10 n=57 v=80
213840 Off ch=10 n=40 v=80
213840 Off ch=10 n=36 v=80
213840 On ch=10 n=57 v=95
213840 On ch=10 n=40 v=95
213840 On ch=10 n=36 v=95
214080 Off ch=10 n=57 v=80
214080 Off ch=10 n=40 v=80
214080 Off ch=10 n=36 v=80
214080 On ch=10 n=57 v=95
214080 On ch=10 n=40 v=95
214080 On ch=10 n=36 v=95
214320 Off ch=10 n=57 v=80
214320 Off ch=10 n=40 v=80
214320 Off ch=10 n=36 v=80
214320 On ch=10 n=57 v=95
214320 On ch=10 n=40 v=95
214320 On ch=10 n=36 v=95
214560 Off ch=10 n=57 v=80
214560 Off ch=10 n=40 v=80
214560 Off ch=10 n=36 v=80
214560 On ch=10 n=57 v=95
214560 On ch=10 n=40 v=95
214560 On ch=10 n=36 v=95
214800 Off ch=10 n=57 v=80
214800 Off ch=10 n=40 v=80
214800 Off ch=10 n=36 v=80
214800 On ch=10 n=57 v=95
214800 On ch=10 n=40 v=95
214800 On ch=10 n=36 v=95
215040 Off ch=10 n=57 v=80
215040 Off ch=10 n=40 v=80
215040 Off ch=10 n=36 v=80
215040 Par ch=10 c=7 v=104
215040 On ch=10 n=57 v=95
215040 On ch=10 n=40 v=95
215040 On ch=10 n=36 v=95
216960 Off ch=10 n=57 v=80
216960 Off ch=10 n=40 v=80
216960 Off ch=10 n=36 v=80
216960 Meta TrkEnd
TrkEnd
