MFile 1 15 192
MTrk
0 TimeSig 4/4 24 8
0 Tempo 363636
0 Meta TrkEnd
TrkEnd
MTrk
0 Meta 0x21 01
0 Meta TrkName "Electric Bass       "
0 PrCh ch=1 p=33
3360 On ch=1 n=40 v=90
3456 Off ch=1 n=40 v=64
3456 On ch=1 n=43 v=90
3552 Off ch=1 n=43 v=64
3552 On ch=1 n=44 v=90
3648 Off ch=1 n=44 v=64
3648 On ch=1 n=45 v=90
3744 Off ch=1 n=45 v=64
3744 On ch=1 n=40 v=90
3840 Off ch=1 n=40 v=64
3840 On ch=1 n=48 v=90
4032 Off ch=1 n=48 v=64
4032 On ch=1 n=45 v=90
4224 Off ch=1 n=45 v=64
4224 On ch=1 n=50 v=90
4320 Off ch=1 n=50 v=64
4320 On ch=1 n=52 v=90
4416 Off ch=1 n=52 v=64
4416 On ch=1 n=48 v=90
4480 Off ch=1 n=48 v=64
4480 On ch=1 n=50 v=90
4544 Off ch=1 n=50 v=64
4544 On ch=1 n=48 v=90
4608 Off ch=1 n=48 v=64
4608 On ch=1 n=45 v=90
4704 Off ch=1 n=45 v=64
4704 On ch=1 n=45 v=90
4800 Off ch=1 n=45 v=64
4800 On ch=1 n=48 v=90
4992 Off ch=1 n=48 v=64
4992 On ch=1 n=45 v=90
5184 Off ch=1 n=45 v=64
5184 On ch=1 n=43 v=90
5280 Off ch=1 n=43 v=64
5280 On ch=1 n=45 v=90
5376 Off ch=1 n=45 v=64
5376 On ch=1 n=45 v=90
5472 Off ch=1 n=45 v=64
5472 On ch=1 n=38 v=90
5568 Off ch=1 n=38 v=64
5568 On ch=1 n=40 v=90
5664 Off ch=1 n=40 v=64
5664 On ch=1 n=36 v=90
5760 Off ch=1 n=36 v=64
5760 On ch=1 n=38 v=90
5856 Off ch=1 n=38 v=64
5856 On ch=1 n=33 v=90
6144 Off ch=1 n=33 v=64
6144 On ch=1 n=33 v=90
9504 Off ch=1 n=33 v=64
9504 On ch=1 n=40 v=90
9600 Off ch=1 n=40 v=64
9600 On ch=1 n=43 v=90
9696 Off ch=1 n=43 v=64
9696 On ch=1 n=44 v=90
9792 Off ch=1 n=44 v=64
9792 On ch=1 n=45 v=90
9888 Off ch=1 n=45 v=64
9888 On ch=1 n=40 v=90
9984 Off ch=1 n=40 v=64
9984 On ch=1 n=48 v=90
10176 Off ch=1 n=48 v=64
10176 On ch=1 n=45 v=90
10368 Off ch=1 n=45 v=64
10368 On ch=1 n=50 v=90
10464 Off ch=1 n=50 v=64
10464 On ch=1 n=52 v=90
10560 Off ch=1 n=52 v=64
10560 On ch=1 n=48 v=90
10624 Off ch=1 n=48 v=64
10624 On ch=1 n=50 v=90
10688 Off ch=1 n=50 v=64
10688 On ch=1 n=48 v=90
10752 Off ch=1 n=48 v=64
10752 On ch=1 n=45 v=90
10848 Off ch=1 n=45 v=64
10848 On ch=1 n=45 v=90
10944 Off ch=1 n=45 v=64
10944 On ch=1 n=48 v=90
11136 Off ch=1 n=48 v=64
11136 On ch=1 n=45 v=90
11328 Off ch=1 n=45 v=64
11328 On ch=1 n=43 v=90
11424 Off ch=1 n=43 v=64
11424 On ch=1 n=45 v=90
11520 Off ch=1 n=45 v=64
11520 On ch=1 n=45 v=90
11616 Off ch=1 n=45 v=64
11616 On ch=1 n=38 v=90
11712 Off ch=1 n=38 v=64
11712 On ch=1 n=40 v=90
11808 Off ch=1 n=40 v=64
11808 On ch=1 n=36 v=90
11904 Off ch=1 n=36 v=64
11904 On ch=1 n=38 v=90
12000 Off ch=1 n=38 v=64
12000 On ch=1 n=33 v=90
12288 Off ch=1 n=33 v=64
12288 On ch=1 n=33 v=90
15648 Off ch=1 n=33 v=64
15648 On ch=1 n=40 v=90
15744 Off ch=1 n=40 v=64
15744 On ch=1 n=43 v=90
15840 Off ch=1 n=43 v=64
15840 On ch=1 n=44 v=90
15936 Off ch=1 n=44 v=64
15936 On ch=1 n=45 v=90
16032 Off ch=1 n=45 v=64
16032 On ch=1 n=40 v=90
16128 Off ch=1 n=40 v=64
16128 On ch=1 n=48 v=90
16320 Off ch=1 n=48 v=64
16320 On ch=1 n=45 v=90
16512 Off ch=1 n=45 v=64
16512 On ch=1 n=50 v=90
16608 Off ch=1 n=50 v=64
16608 On ch=1 n=52 v=90
16704 Off ch=1 n=52 v=64
16704 On ch=1 n=48 v=90
16768 Off ch=1 n=48 v=64
16768 On ch=1 n=50 v=90
16832 Off ch=1 n=50 v=64
16832 On ch=1 n=48 v=90
16896 Off ch=1 n=48 v=64
16896 On ch=1 n=45 v=90
16992 Off ch=1 n=45 v=64
16992 On ch=1 n=45 v=90
17088 Off ch=1 n=45 v=64
17088 On ch=1 n=48 v=90
17280 Off ch=1 n=48 v=64
17280 On ch=1 n=45 v=90
17472 Off ch=1 n=45 v=64
17472 On ch=1 n=43 v=90
17568 Off ch=1 n=43 v=64
17568 On ch=1 n=45 v=90
17664 Off ch=1 n=45 v=64
17664 On ch=1 n=45 v=90
17760 Off ch=1 n=45 v=64
17760 On ch=1 n=38 v=90
17856 Off ch=1 n=38 v=64
17856 On ch=1 n=40 v=90
17952 Off ch=1 n=40 v=64
17952 On ch=1 n=36 v=90
18048 Off ch=1 n=36 v=64
18048 On ch=1 n=38 v=90
18144 Off ch=1 n=38 v=64
18144 On ch=1 n=33 v=90
18432 Off ch=1 n=33 v=64
18432 On ch=1 n=33 v=90
18720 Off ch=1 n=33 v=64
18720 On ch=1 n=35 v=90
18816 Off ch=1 n=35 v=64
18816 On ch=1 n=38 v=90
18912 Off ch=1 n=38 v=64
18912 On ch=1 n=39 v=90
19008 Off ch=1 n=39 v=64
19008 On ch=1 n=40 v=90
19104 Off ch=1 n=40 v=64
19104 On ch=1 n=35 v=90
19200 Off ch=1 n=35 v=64
19200 On ch=1 n=43 v=90
19392 Off ch=1 n=43 v=64
19392 On ch=1 n=40 v=90
19584 Off ch=1 n=40 v=64
19584 On ch=1 n=35 v=90
19680 Off ch=1 n=35 v=64
19680 On ch=1 n=38 v=90
19776 Off ch=1 n=38 v=64
19776 On ch=1 n=39 v=90
19872 Off ch=1 n=39 v=64
19872 On ch=1 n=40 v=90
19968 Off ch=1 n=40 v=64
19968 On ch=1 n=35 v=90
20064 Off ch=1 n=35 v=64
20064 On ch=1 n=43 v=90
20256 Off ch=1 n=43 v=64
20256 On ch=1 n=40 v=90
20448 Off ch=1 n=40 v=64
20448 On ch=1 n=35 v=90
20544 Off ch=1 n=35 v=64
20544 On ch=1 n=38 v=90
20640 Off ch=1 n=38 v=64
20640 On ch=1 n=39 v=90
20736 Off ch=1 n=39 v=64
20736 On ch=1 n=40 v=90
20832 Off ch=1 n=40 v=64
20832 On ch=1 n=35 v=90
20928 Off ch=1 n=35 v=64
20928 On ch=1 n=43 v=90
21120 Off ch=1 n=43 v=64
21120 On ch=1 n=40 v=90
21216 Off ch=1 n=40 v=64
21216 On ch=1 n=35 v=90
21312 Off ch=1 n=35 v=64
21312 On ch=1 n=38 v=90
21408 Off ch=1 n=38 v=64
21408 On ch=1 n=39 v=90
21504 Off ch=1 n=39 v=64
21504 On ch=1 n=40 v=90
21600 Off ch=1 n=40 v=64
21600 On ch=1 n=38 v=90
21696 Off ch=1 n=38 v=64
21696 On ch=1 n=40 v=90
21792 Off ch=1 n=40 v=64
21792 On ch=1 n=43 v=90
21888 Off ch=1 n=43 v=64
21888 On ch=1 n=44 v=90
21984 Off ch=1 n=44 v=64
21984 On ch=1 n=45 v=90
22080 Off ch=1 n=45 v=64
22080 On ch=1 n=40 v=90
22176 Off ch=1 n=40 v=64
22176 On ch=1 n=48 v=90
22464 Off ch=1 n=48 v=64
22464 On ch=1 n=45 v=90
22656 Off ch=1 n=45 v=64
22656 On ch=1 n=50 v=90
22752 Off ch=1 n=50 v=64
22752 On ch=1 n=52 v=90
22848 Off ch=1 n=52 v=64
22848 On ch=1 n=48 v=90
22912 Off ch=1 n=48 v=64
22912 On ch=1 n=50 v=90
22976 Off ch=1 n=50 v=64
22976 On ch=1 n=49 v=90
23040 Off ch=1 n=49 v=64
23040 On ch=1 n=45 v=90
23136 Off ch=1 n=45 v=64
23136 On ch=1 n=45 v=90
23232 Off ch=1 n=45 v=64
23232 On ch=1 n=48 v=90
23424 Off ch=1 n=48 v=64
23424 On ch=1 n=45 v=90
23616 Off ch=1 n=45 v=64
23616 On ch=1 n=43 v=90
23712 Off ch=1 n=43 v=64
23712 On ch=1 n=45 v=90
23808 Off ch=1 n=45 v=64
23808 On ch=1 n=45 v=90
23904 Off ch=1 n=45 v=64
23904 On ch=1 n=38 v=90
24000 Off ch=1 n=38 v=64
24000 On ch=1 n=40 v=90
24096 Off ch=1 n=40 v=64
24096 On ch=1 n=36 v=90
24192 Off ch=1 n=36 v=64
24192 On ch=1 n=38 v=90
24288 Off ch=1 n=38 v=64
24288 On ch=1 n=33 v=90
24576 Off ch=1 n=33 v=64
24576 On ch=1 n=33 v=90
24864 Off ch=1 n=33 v=64
24864 On ch=1 n=40 v=90
24960 Off ch=1 n=40 v=64
24960 On ch=1 n=36 v=90
25056 Off ch=1 n=36 v=64
25056 On ch=1 n=33 v=90
25344 Off ch=1 n=33 v=64
25344 On ch=1 n=33 v=90
25728 Off ch=1 n=33 v=64
25824 On ch=1 n=33 v=90
26112 Off ch=1 n=33 v=64
26112 On ch=1 n=33 v=90
26496 Off ch=1 n=33 v=64
26592 On ch=1 n=33 v=90
26880 Off ch=1 n=33 v=64
26880 On ch=1 n=33 v=90
26976 Off ch=1 n=33 v=64
26976 On ch=1 n=36 v=90
27264 Off ch=1 n=36 v=64
27264 On ch=1 n=33 v=90
28032 Off ch=1 n=33 v=64
28032 On ch=1 n=36 v=90
28128 Off ch=1 n=36 v=64
28128 On ch=1 n=33 v=90
28416 Off ch=1 n=33 v=64
28416 On ch=1 n=33 v=90
28800 Off ch=1 n=33 v=64
28896 On ch=1 n=33 v=90
29184 Off ch=1 n=33 v=64
29184 On ch=1 n=33 v=90
29568 Off ch=1 n=33 v=64
29664 On ch=1 n=33 v=90
29952 Off ch=1 n=33 v=64
29952 On ch=1 n=33 v=90
30048 Off ch=1 n=33 v=64
30048 On ch=1 n=36 v=90
30336 Off ch=1 n=36 v=64
30336 On ch=1 n=33 v=90
31104 Off ch=1 n=33 v=64
31104 On ch=1 n=33 v=90
34176 Off ch=1 n=33 v=64
34176 On ch=1 n=40 v=90
34272 Off ch=1 n=40 v=64
34272 On ch=1 n=43 v=90
34368 Off ch=1 n=43 v=64
34368 On ch=1 n=44 v=90
34464 Off ch=1 n=44 v=64
34464 On ch=1 n=45 v=90
34560 Off ch=1 n=45 v=64
34560 On ch=1 n=40 v=90
34656 Off ch=1 n=40 v=64
34656 On ch=1 n=48 v=90
34848 Off ch=1 n=48 v=64
34848 On ch=1 n=45 v=90
35040 Off ch=1 n=45 v=64
35040 On ch=1 n=50 v=90
35136 Off ch=1 n=50 v=64
35136 On ch=1 n=52 v=90
35232 Off ch=1 n=52 v=64
35232 On ch=1 n=48 v=90
35296 Off ch=1 n=48 v=64
35296 On ch=1 n=50 v=90
35360 Off ch=1 n=50 v=64
35360 On ch=1 n=48 v=90
35424 Off ch=1 n=48 v=64
35424 On ch=1 n=45 v=90
35520 Off ch=1 n=45 v=64
35520 On ch=1 n=45 v=90
35616 Off ch=1 n=45 v=64
35616 On ch=1 n=48 v=90
35808 Off ch=1 n=48 v=64
35808 On ch=1 n=45 v=90
36000 Off ch=1 n=45 v=64
36000 On ch=1 n=43 v=90
36096 Off ch=1 n=43 v=64
36096 On ch=1 n=45 v=90
36192 Off ch=1 n=45 v=64
36192 On ch=1 n=45 v=90
36288 Off ch=1 n=45 v=64
36288 On ch=1 n=38 v=90
36384 Off ch=1 n=38 v=64
36384 On ch=1 n=40 v=90
36480 Off ch=1 n=40 v=64
36480 On ch=1 n=36 v=90
36576 Off ch=1 n=36 v=64
36576 On ch=1 n=38 v=90
36672 Off ch=1 n=38 v=64
36672 On ch=1 n=33 v=90
36960 Off ch=1 n=33 v=64
36960 On ch=1 n=33 v=90
40320 Off ch=1 n=33 v=64
40320 On ch=1 n=40 v=90
40416 Off ch=1 n=40 v=64
40416 On ch=1 n=43 v=90
40512 Off ch=1 n=43 v=64
40512 On ch=1 n=44 v=90
40608 Off ch=1 n=44 v=64
40608 On ch=1 n=45 v=90
40704 Off ch=1 n=45 v=64
40704 On ch=1 n=40 v=90
40800 Off ch=1 n=40 v=64
40800 On ch=1 n=48 v=90
40992 Off ch=1 n=48 v=64
40992 On ch=1 n=45 v=90
41184 Off ch=1 n=45 v=64
41184 On ch=1 n=50 v=90
41280 Off ch=1 n=50 v=64
41280 On ch=1 n=52 v=90
41376 Off ch=1 n=52 v=64
41376 On ch=1 n=48 v=90
41440 Off ch=1 n=48 v=64
41440 On ch=1 n=50 v=90
41504 Off ch=1 n=50 v=64
41504 On ch=1 n=48 v=90
41568 Off ch=1 n=48 v=64
41568 On ch=1 n=45 v=90
41664 Off ch=1 n=45 v=64
41664 On ch=1 n=45 v=90
41760 Off ch=1 n=45 v=64
41760 On ch=1 n=48 v=90
41952 Off ch=1 n=48 v=64
41952 On ch=1 n=45 v=90
42144 Off ch=1 n=45 v=64
42144 On ch=1 n=43 v=90
42240 Off ch=1 n=43 v=64
42240 On ch=1 n=45 v=90
42336 Off ch=1 n=45 v=64
42336 On ch=1 n=45 v=90
42432 Off ch=1 n=45 v=64
42432 On ch=1 n=38 v=90
42528 Off ch=1 n=38 v=64
42528 On ch=1 n=40 v=90
42624 Off ch=1 n=40 v=64
42624 On ch=1 n=36 v=90
42720 Off ch=1 n=36 v=64
42720 On ch=1 n=38 v=90
42816 Off ch=1 n=38 v=64
42816 On ch=1 n=33 v=90
43104 Off ch=1 n=33 v=64
43104 On ch=1 n=33 v=90
49440 Off ch=1 n=33 v=64
49440 On ch=1 n=43 v=90
49632 Off ch=1 n=43 v=64
49632 On ch=1 n=45 v=90
49824 Off ch=1 n=45 v=64
49824 On ch=1 n=41 v=90
50112 Off ch=1 n=41 v=64
50112 On ch=1 n=45 v=90
50208 Off ch=1 n=45 v=64
50208 On ch=1 n=43 v=90
50304 Off ch=1 n=43 v=64
50304 On ch=1 n=45 v=90
50400 Off ch=1 n=45 v=64
50400 On ch=1 n=48 v=90
50592 Off ch=1 n=48 v=64
50592 On ch=1 n=45 v=90
50880 Off ch=1 n=45 v=64
50880 On ch=1 n=45 v=90
50976 Off ch=1 n=45 v=64
50976 On ch=1 n=43 v=90
51072 Off ch=1 n=43 v=64
51072 On ch=1 n=45 v=90
51168 Off ch=1 n=45 v=64
51168 On ch=1 n=45 v=90
51360 Off ch=1 n=45 v=64
51360 On ch=1 n=41 v=90
51648 Off ch=1 n=41 v=64
51648 On ch=1 n=43 v=90
52032 Off ch=1 n=43 v=64
52032 On ch=1 n=38 v=90
52416 Off ch=1 n=38 v=64
52416 On ch=1 n=33 v=90
52704 Off ch=1 n=33 v=64
52704 On ch=1 n=45 v=90
52896 Off ch=1 n=45 v=64
52896 On ch=1 n=41 v=90
53184 Off ch=1 n=41 v=64
53184 On ch=1 n=45 v=90
53280 Off ch=1 n=45 v=64
53280 On ch=1 n=43 v=90
53376 Off ch=1 n=43 v=64
53376 On ch=1 n=45 v=90
53472 Off ch=1 n=45 v=64
53472 On ch=1 n=48 v=90
53664 Off ch=1 n=48 v=64
53664 On ch=1 n=45 v=90
53952 Off ch=1 n=45 v=64
53952 On ch=1 n=45 v=90
54048 Off ch=1 n=45 v=64
54048 On ch=1 n=43 v=90
54144 Off ch=1 n=43 v=64
54144 On ch=1 n=45 v=90
54240 Off ch=1 n=45 v=64
54240 On ch=1 n=45 v=90
54432 Off ch=1 n=45 v=64
54432 On ch=1 n=41 v=90
54720 Off ch=1 n=41 v=64
54720 On ch=1 n=43 v=90
55104 Off ch=1 n=43 v=64
55104 On ch=1 n=38 v=90
55488 Off ch=1 n=38 v=64
55488 On ch=1 n=33 v=90
55776 Off ch=1 n=33 v=64
55776 On ch=1 n=45 v=90
55968 Off ch=1 n=45 v=64
55968 On ch=1 n=41 v=90
56256 Off ch=1 n=41 v=64
56256 On ch=1 n=45 v=90
56352 Off ch=1 n=45 v=64
56352 On ch=1 n=43 v=90
56448 Off ch=1 n=43 v=64
56448 On ch=1 n=45 v=90
56544 Off ch=1 n=45 v=64
56544 On ch=1 n=48 v=90
56736 Off ch=1 n=48 v=64
56736 On ch=1 n=45 v=90
57024 Off ch=1 n=45 v=64
57024 On ch=1 n=45 v=90
57120 Off ch=1 n=45 v=64
57120 On ch=1 n=43 v=90
57216 Off ch=1 n=43 v=64
57216 On ch=1 n=45 v=90
57312 Off ch=1 n=45 v=64
57312 On ch=1 n=45 v=90
57504 Off ch=1 n=45 v=64
57504 On ch=1 n=41 v=90
57792 Off ch=1 n=41 v=64
57792 On ch=1 n=43 v=90
58176 Off ch=1 n=43 v=64
58176 On ch=1 n=38 v=90
58560 Off ch=1 n=38 v=64
58560 On ch=1 n=33 v=90
58848 Off ch=1 n=33 v=64
58848 On ch=1 n=45 v=90
59040 Off ch=1 n=45 v=64
59040 On ch=1 n=41 v=90
59328 Off ch=1 n=41 v=64
59328 On ch=1 n=45 v=90
59424 Off ch=1 n=45 v=64
59424 On ch=1 n=43 v=90
59520 Off ch=1 n=43 v=64
59520 On ch=1 n=45 v=90
59616 Off ch=1 n=45 v=64
59616 On ch=1 n=48 v=90
59808 Off ch=1 n=48 v=64
59808 On ch=1 n=45 v=90
60096 Off ch=1 n=45 v=64
60096 On ch=1 n=45 v=90
60192 Off ch=1 n=45 v=64
60192 On ch=1 n=43 v=90
60288 Off ch=1 n=43 v=64
60288 On ch=1 n=45 v=90
60384 Off ch=1 n=45 v=64
60384 On ch=1 n=45 v=90
60576 Off ch=1 n=45 v=64
60576 On ch=1 n=41 v=90
60864 Off ch=1 n=41 v=64
60864 On ch=1 n=43 v=90
61248 Off ch=1 n=43 v=64
61248 On ch=1 n=38 v=90
61536 Off ch=1 n=38 v=64
61536 On ch=1 n=33 v=90
61920 Off ch=1 n=33 v=64
61920 On ch=1 n=33 v=90
65280 Off ch=1 n=33 v=64
65280 On ch=1 n=40 v=90
65376 Off ch=1 n=40 v=64
65376 On ch=1 n=43 v=90
65472 Off ch=1 n=43 v=64
65472 On ch=1 n=44 v=90
65568 Off ch=1 n=44 v=64
65568 On ch=1 n=45 v=90
65664 Off ch=1 n=45 v=64
65664 On ch=1 n=40 v=90
65760 Off ch=1 n=40 v=64
65760 On ch=1 n=48 v=90
65952 Off ch=1 n=48 v=64
65952 On ch=1 n=45 v=90
66144 Off ch=1 n=45 v=64
66144 On ch=1 n=50 v=90
66240 Off ch=1 n=50 v=64
66240 On ch=1 n=52 v=90
66336 Off ch=1 n=52 v=64
66336 On ch=1 n=48 v=90
66400 Off ch=1 n=48 v=64
66400 On ch=1 n=50 v=90
66464 Off ch=1 n=50 v=64
66464 On ch=1 n=48 v=90
66528 Off ch=1 n=48 v=64
66528 On ch=1 n=45 v=90
66624 Off ch=1 n=45 v=64
66624 On ch=1 n=45 v=90
66720 Off ch=1 n=45 v=64
66720 On ch=1 n=48 v=90
66912 Off ch=1 n=48 v=64
66912 On ch=1 n=45 v=90
67104 Off ch=1 n=45 v=64
67104 On ch=1 n=43 v=90
67200 Off ch=1 n=43 v=64
67200 On ch=1 n=45 v=90
67296 Off ch=1 n=45 v=64
67296 On ch=1 n=45 v=90
67392 Off ch=1 n=45 v=64
67392 On ch=1 n=38 v=90
67488 Off ch=1 n=38 v=64
67488 On ch=1 n=40 v=90
67584 Off ch=1 n=40 v=64
67584 On ch=1 n=36 v=90
67680 Off ch=1 n=36 v=64
67680 On ch=1 n=38 v=90
67776 Off ch=1 n=38 v=64
67776 On ch=1 n=33 v=90
68064 Off ch=1 n=33 v=64
68064 On ch=1 n=33 v=90
71424 Off ch=1 n=33 v=64
71424 On ch=1 n=40 v=90
71520 Off ch=1 n=40 v=64
71520 On ch=1 n=43 v=90
71616 Off ch=1 n=43 v=64
71616 On ch=1 n=44 v=90
71712 Off ch=1 n=44 v=64
71712 On ch=1 n=45 v=90
71808 Off ch=1 n=45 v=64
71808 On ch=1 n=40 v=90
71904 Off ch=1 n=40 v=64
71904 On ch=1 n=48 v=90
72096 Off ch=1 n=48 v=64
72096 On ch=1 n=45 v=90
72288 Off ch=1 n=45 v=64
72288 On ch=1 n=50 v=90
72384 Off ch=1 n=50 v=64
72384 On ch=1 n=52 v=90
72480 Off ch=1 n=52 v=64
72480 On ch=1 n=48 v=90
72544 Off ch=1 n=48 v=64
72544 On ch=1 n=50 v=90
72608 Off ch=1 n=50 v=64
72608 On ch=1 n=48 v=90
72672 Off ch=1 n=48 v=64
72672 On ch=1 n=45 v=90
72768 Off ch=1 n=45 v=64
72768 On ch=1 n=45 v=90
72864 Off ch=1 n=45 v=64
72864 On ch=1 n=48 v=90
73056 Off ch=1 n=48 v=64
73056 On ch=1 n=45 v=90
73248 Off ch=1 n=45 v=64
73248 On ch=1 n=43 v=90
73344 Off ch=1 n=43 v=64
73344 On ch=1 n=45 v=90
73440 Off ch=1 n=45 v=64
73440 On ch=1 n=45 v=90
73536 Off ch=1 n=45 v=64
73536 On ch=1 n=38 v=90
73632 Off ch=1 n=38 v=64
73632 On ch=1 n=40 v=90
73728 Off ch=1 n=40 v=64
73728 On ch=1 n=36 v=90
73824 Off ch=1 n=36 v=64
73824 On ch=1 n=38 v=90
73920 Off ch=1 n=38 v=64
73920 On ch=1 n=33 v=90
74208 Off ch=1 n=33 v=64
74208 On ch=1 n=33 v=90
77568 Off ch=1 n=33 v=64
77568 On ch=1 n=40 v=90
77664 Off ch=1 n=40 v=64
77664 On ch=1 n=43 v=90
77760 Off ch=1 n=43 v=64
77760 On ch=1 n=44 v=90
77856 Off ch=1 n=44 v=64
77856 On ch=1 n=45 v=90
77952 Off ch=1 n=45 v=64
77952 On ch=1 n=40 v=90
78048 Off ch=1 n=40 v=64
78048 On ch=1 n=48 v=90
78240 Off ch=1 n=48 v=64
78240 On ch=1 n=45 v=90
78432 Off ch=1 n=45 v=64
78432 On ch=1 n=50 v=90
78528 Off ch=1 n=50 v=64
78528 On ch=1 n=52 v=90
78624 Off ch=1 n=52 v=64
78624 On ch=1 n=48 v=90
78688 Off ch=1 n=48 v=64
78688 On ch=1 n=50 v=90
78752 Off ch=1 n=50 v=64
78752 On ch=1 n=48 v=90
78816 Off ch=1 n=48 v=64
78816 On ch=1 n=45 v=90
78912 Off ch=1 n=45 v=64
78912 On ch=1 n=45 v=90
79008 Off ch=1 n=45 v=64
79008 On ch=1 n=48 v=90
79200 Off ch=1 n=48 v=64
79200 On ch=1 n=45 v=90
79392 Off ch=1 n=45 v=64
79392 On ch=1 n=43 v=90
79488 Off ch=1 n=43 v=64
79488 On ch=1 n=45 v=90
79584 Off ch=1 n=45 v=64
79584 On ch=1 n=45 v=90
79680 Off ch=1 n=45 v=64
79680 On ch=1 n=38 v=90
79776 Off ch=1 n=38 v=64
79776 On ch=1 n=40 v=90
79872 Off ch=1 n=40 v=64
79872 On ch=1 n=36 v=90
79968 Off ch=1 n=36 v=64
79968 On ch=1 n=38 v=90
80064 Off ch=1 n=38 v=64
80064 On ch=1 n=33 v=90
80352 Off ch=1 n=33 v=64
80352 On ch=1 n=33 v=90
80640 Off ch=1 n=33 v=64
80640 On ch=1 n=35 v=90
80736 Off ch=1 n=35 v=64
80736 On ch=1 n=38 v=90
80832 Off ch=1 n=38 v=64
80832 On ch=1 n=39 v=90
80928 Off ch=1 n=39 v=64
80928 On ch=1 n=40 v=90
81024 Off ch=1 n=40 v=64
81024 On ch=1 n=35 v=90
81120 Off ch=1 n=35 v=64
81120 On ch=1 n=43 v=90
81312 Off ch=1 n=43 v=64
81312 On ch=1 n=40 v=90
81504 Off ch=1 n=40 v=64
81504 On ch=1 n=35 v=90
81600 Off ch=1 n=35 v=64
81600 On ch=1 n=38 v=90
81696 Off ch=1 n=38 v=64
81696 On ch=1 n=39 v=90
81792 Off ch=1 n=39 v=64
81792 On ch=1 n=40 v=90
81888 Off ch=1 n=40 v=64
81888 On ch=1 n=35 v=90
81984 Off ch=1 n=35 v=64
81984 On ch=1 n=43 v=90
82176 Off ch=1 n=43 v=64
82176 On ch=1 n=40 v=90
82368 Off ch=1 n=40 v=64
82368 On ch=1 n=35 v=90
82464 Off ch=1 n=35 v=64
82464 On ch=1 n=38 v=90
82560 Off ch=1 n=38 v=64
82560 On ch=1 n=39 v=90
82656 Off ch=1 n=39 v=64
82656 On ch=1 n=40 v=90
82752 Off ch=1 n=40 v=64
82752 On ch=1 n=35 v=90
82848 Off ch=1 n=35 v=64
82848 On ch=1 n=43 v=90
83040 Off ch=1 n=43 v=64
83040 On ch=1 n=40 v=90
83136 Off ch=1 n=40 v=64
83136 On ch=1 n=35 v=90
83232 Off ch=1 n=35 v=64
83232 On ch=1 n=38 v=90
83328 Off ch=1 n=38 v=64
83328 On ch=1 n=39 v=90
83424 Off ch=1 n=39 v=64
83424 On ch=1 n=40 v=90
83520 Off ch=1 n=40 v=64
83520 On ch=1 n=38 v=90
83616 Off ch=1 n=38 v=64
83616 On ch=1 n=40 v=90
83712 Off ch=1 n=40 v=64
83712 On ch=1 n=43 v=90
83808 Off ch=1 n=43 v=64
83808 On ch=1 n=44 v=90
83904 Off ch=1 n=44 v=64
83904 On ch=1 n=45 v=90
84000 Off ch=1 n=45 v=64
84000 On ch=1 n=40 v=90
84096 Off ch=1 n=40 v=64
84096 On ch=1 n=48 v=90
84384 Off ch=1 n=48 v=64
84384 On ch=1 n=45 v=90
84576 Off ch=1 n=45 v=64
84576 On ch=1 n=50 v=90
84672 Off ch=1 n=50 v=64
84672 On ch=1 n=52 v=90
84768 Off ch=1 n=52 v=64
84768 On ch=1 n=48 v=90
84832 Off ch=1 n=48 v=64
84832 On ch=1 n=50 v=90
84896 Off ch=1 n=50 v=64
84896 On ch=1 n=49 v=90
84960 Off ch=1 n=49 v=64
84960 On ch=1 n=45 v=90
85056 Off ch=1 n=45 v=64
85056 On ch=1 n=45 v=90
85152 Off ch=1 n=45 v=64
85152 On ch=1 n=48 v=90
85344 Off ch=1 n=48 v=64
85344 On ch=1 n=45 v=90
85536 Off ch=1 n=45 v=64
85536 On ch=1 n=43 v=90
85632 Off ch=1 n=43 v=64
85632 On ch=1 n=45 v=90
85728 Off ch=1 n=45 v=64
85728 On ch=1 n=45 v=90
85824 Off ch=1 n=45 v=64
85824 On ch=1 n=38 v=90
85920 Off ch=1 n=38 v=64
85920 On ch=1 n=40 v=90
86016 Off ch=1 n=40 v=64
86016 On ch=1 n=36 v=90
86112 Off ch=1 n=36 v=64
86112 On ch=1 n=38 v=90
86208 Off ch=1 n=38 v=64
86208 On ch=1 n=33 v=90
86496 Off ch=1 n=33 v=64
86496 On ch=1 n=33 v=90
86784 Off ch=1 n=33 v=64
86784 On ch=1 n=40 v=90
86880 Off ch=1 n=40 v=64
86880 On ch=1 n=36 v=90
86976 Off ch=1 n=36 v=64
86976 On ch=1 n=33 v=90
87264 Off ch=1 n=33 v=64
87264 On ch=1 n=33 v=90
87648 Off ch=1 n=33 v=64
87744 On ch=1 n=33 v=90
88032 Off ch=1 n=33 v=64
88032 On ch=1 n=33 v=90
88416 Off ch=1 n=33 v=64
88512 On ch=1 n=33 v=90
88800 Off ch=1 n=33 v=64
88800 On ch=1 n=33 v=90
88896 Off ch=1 n=33 v=64
88896 On ch=1 n=36 v=90
89184 Off ch=1 n=36 v=64
89184 On ch=1 n=33 v=90
89952 Off ch=1 n=33 v=64
89952 On ch=1 n=36 v=90
90048 Off ch=1 n=36 v=64
90048 On ch=1 n=33 v=90
90336 Off ch=1 n=33 v=64
90336 On ch=1 n=33 v=90
90720 Off ch=1 n=33 v=64
90816 On ch=1 n=33 v=90
91104 Off ch=1 n=33 v=64
91104 On ch=1 n=33 v=90
91488 Off ch=1 n=33 v=64
91584 On ch=1 n=33 v=90
91872 Off ch=1 n=33 v=64
91872 On ch=1 n=33 v=90
91968 Off ch=1 n=33 v=64
91968 On ch=1 n=36 v=90
92256 Off ch=1 n=36 v=64
92256 On ch=1 n=33 v=90
93024 Off ch=1 n=33 v=64
93024 On ch=1 n=33 v=90
96384 Off ch=1 n=33 v=64
96384 On ch=1 n=40 v=90
96480 Off ch=1 n=40 v=64
96480 On ch=1 n=43 v=90
96576 Off ch=1 n=43 v=64
96576 On ch=1 n=44 v=90
96672 Off ch=1 n=44 v=64
96672 On ch=1 n=45 v=90
96768 Off ch=1 n=45 v=64
96768 On ch=1 n=40 v=90
96864 Off ch=1 n=40 v=64
96864 On ch=1 n=48 v=90
97056 Off ch=1 n=48 v=64
97056 On ch=1 n=45 v=90
97248 Off ch=1 n=45 v=64
97248 On ch=1 n=50 v=90
97344 Off ch=1 n=50 v=64
97344 On ch=1 n=52 v=90
97440 Off ch=1 n=52 v=64
97440 On ch=1 n=48 v=90
97504 Off ch=1 n=48 v=64
97504 On ch=1 n=50 v=90
97568 Off ch=1 n=50 v=64
97568 On ch=1 n=48 v=90
97632 Off ch=1 n=48 v=64
97632 On ch=1 n=45 v=90
97728 Off ch=1 n=45 v=64
97728 On ch=1 n=45 v=90
97824 Off ch=1 n=45 v=64
97824 On ch=1 n=48 v=90
98016 Off ch=1 n=48 v=64
98016 On ch=1 n=45 v=90
98208 Off ch=1 n=45 v=64
98208 On ch=1 n=43 v=90
98304 Off ch=1 n=43 v=64
98304 On ch=1 n=45 v=90
98400 Off ch=1 n=45 v=64
98400 On ch=1 n=45 v=90
98496 Off ch=1 n=45 v=64
98496 On ch=1 n=38 v=90
98592 Off ch=1 n=38 v=64
98592 On ch=1 n=40 v=90
98688 Off ch=1 n=40 v=64
98688 On ch=1 n=36 v=90
98784 Off ch=1 n=36 v=64
98784 On ch=1 n=38 v=90
98880 Off ch=1 n=38 v=64
98880 On ch=1 n=33 v=90
99168 Off ch=1 n=33 v=64
99168 On ch=1 n=33 v=90
102528 Off ch=1 n=33 v=64
102528 On ch=1 n=40 v=90
102624 Off ch=1 n=40 v=64
102624 On ch=1 n=43 v=90
102720 Off ch=1 n=43 v=64
102720 On ch=1 n=44 v=90
102816 Off ch=1 n=44 v=64
102816 On ch=1 n=45 v=90
102912 Off ch=1 n=45 v=64
102912 On ch=1 n=40 v=90
103008 Off ch=1 n=40 v=64
103008 On ch=1 n=48 v=90
103200 Off ch=1 n=48 v=64
103200 On ch=1 n=45 v=90
103392 Off ch=1 n=45 v=64
103392 On ch=1 n=50 v=90
103488 Off ch=1 n=50 v=64
103488 On ch=1 n=52 v=90
103584 Off ch=1 n=52 v=64
103584 On ch=1 n=48 v=90
103648 Off ch=1 n=48 v=64
103648 On ch=1 n=50 v=90
103712 Off ch=1 n=50 v=64
103712 On ch=1 n=48 v=90
103776 Off ch=1 n=48 v=64
103776 On ch=1 n=45 v=90
103872 Off ch=1 n=45 v=64
103872 On ch=1 n=45 v=90
103968 Off ch=1 n=45 v=64
103968 On ch=1 n=48 v=90
104160 Off ch=1 n=48 v=64
104160 On ch=1 n=45 v=90
104352 Off ch=1 n=45 v=64
104352 On ch=1 n=43 v=90
104448 Off ch=1 n=43 v=64
104448 On ch=1 n=45 v=90
104544 Off ch=1 n=45 v=64
104544 On ch=1 n=45 v=90
104640 Off ch=1 n=45 v=64
104640 On ch=1 n=38 v=90
104736 Off ch=1 n=38 v=64
104736 On ch=1 n=40 v=90
104832 Off ch=1 n=40 v=64
104832 On ch=1 n=36 v=90
104928 Off ch=1 n=36 v=64
104928 On ch=1 n=38 v=90
105024 Off ch=1 n=38 v=64
105024 On ch=1 n=33 v=90
105312 Off ch=1 n=33 v=64
105312 On ch=1 n=33 v=90
111648 Off ch=1 n=33 v=64
111648 On ch=1 n=43 v=90
111840 Off ch=1 n=43 v=64
111840 On ch=1 n=45 v=90
112032 Off ch=1 n=45 v=64
112032 On ch=1 n=41 v=90
112320 Off ch=1 n=41 v=64
112320 On ch=1 n=45 v=90
112416 Off ch=1 n=45 v=64
112416 On ch=1 n=43 v=90
112512 Off ch=1 n=43 v=64
112512 On ch=1 n=45 v=90
112608 Off ch=1 n=45 v=64
112608 On ch=1 n=48 v=90
112800 Off ch=1 n=48 v=64
112800 On ch=1 n=45 v=90
113088 Off ch=1 n=45 v=64
113088 On ch=1 n=45 v=90
113184 Off ch=1 n=45 v=64
113184 On ch=1 n=43 v=90
113280 Off ch=1 n=43 v=64
113280 On ch=1 n=45 v=90
113376 Off ch=1 n=45 v=64
113376 On ch=1 n=45 v=90
113568 Off ch=1 n=45 v=64
113568 On ch=1 n=41 v=90
113856 Off ch=1 n=41 v=64
113856 On ch=1 n=43 v=90
114240 Off ch=1 n=43 v=64
114240 On ch=1 n=38 v=90
114624 Off ch=1 n=38 v=64
114624 On ch=1 n=33 v=90
114912 Off ch=1 n=33 v=64
114912 On ch=1 n=45 v=90
115104 Off ch=1 n=45 v=64
115104 On ch=1 n=41 v=90
115392 Off ch=1 n=41 v=64
115392 On ch=1 n=45 v=90
115488 Off ch=1 n=45 v=64
115488 On ch=1 n=43 v=90
115584 Off ch=1 n=43 v=64
115584 On ch=1 n=45 v=90
115680 Off ch=1 n=45 v=64
115680 On ch=1 n=48 v=90
115872 Off ch=1 n=48 v=64
115872 On ch=1 n=45 v=90
116160 Off ch=1 n=45 v=64
116160 On ch=1 n=45 v=90
116256 Off ch=1 n=45 v=64
116256 On ch=1 n=43 v=90
116352 Off ch=1 n=43 v=64
116352 On ch=1 n=45 v=90
116448 Off ch=1 n=45 v=64
116448 On ch=1 n=45 v=90
116640 Off ch=1 n=45 v=64
116640 On ch=1 n=41 v=90
116928 Off ch=1 n=41 v=64
116928 On ch=1 n=43 v=90
117312 Off ch=1 n=43 v=64
117312 On ch=1 n=38 v=90
117696 Off ch=1 n=38 v=64
117696 On ch=1 n=33 v=90
117984 Off ch=1 n=33 v=64
117984 On ch=1 n=45 v=90
118176 Off ch=1 n=45 v=64
118176 On ch=1 n=41 v=90
118464 Off ch=1 n=41 v=64
118464 On ch=1 n=45 v=90
118560 Off ch=1 n=45 v=64
118560 On ch=1 n=43 v=90
118656 Off ch=1 n=43 v=64
118656 On ch=1 n=45 v=90
118752 Off ch=1 n=45 v=64
118752 On ch=1 n=48 v=90
118944 Off ch=1 n=48 v=64
118944 On ch=1 n=45 v=90
119232 Off ch=1 n=45 v=64
119232 On ch=1 n=45 v=90
119328 Off ch=1 n=45 v=64
119328 On ch=1 n=43 v=90
119424 Off ch=1 n=43 v=64
119424 On ch=1 n=45 v=90
119520 Off ch=1 n=45 v=64
119520 On ch=1 n=45 v=90
119712 Off ch=1 n=45 v=64
119712 On ch=1 n=41 v=90
120000 Off ch=1 n=41 v=64
120000 On ch=1 n=43 v=90
120384 Off ch=1 n=43 v=64
120384 On ch=1 n=38 v=90
120768 Off ch=1 n=38 v=64
120768 On ch=1 n=33 v=90
121056 Off ch=1 n=33 v=64
121056 On ch=1 n=45 v=90
121248 Off ch=1 n=45 v=64
121248 On ch=1 n=41 v=90
121536 Off ch=1 n=41 v=64
121536 On ch=1 n=45 v=90
121632 Off ch=1 n=45 v=64
121632 On ch=1 n=43 v=90
121728 Off ch=1 n=43 v=64
121728 On ch=1 n=45 v=90
121824 Off ch=1 n=45 v=64
121824 On ch=1 n=48 v=90
122016 Off ch=1 n=48 v=64
122016 On ch=1 n=45 v=90
122304 Off ch=1 n=45 v=64
122304 On ch=1 n=45 v=90
122400 Off ch=1 n=45 v=64
122400 On ch=1 n=43 v=90
122496 Off ch=1 n=43 v=64
122496 On ch=1 n=45 v=90
122592 Off ch=1 n=45 v=64
122592 On ch=1 n=45 v=90
122784 Off ch=1 n=45 v=64
122784 On ch=1 n=41 v=90
123072 Off ch=1 n=41 v=64
123072 On ch=1 n=43 v=90
123456 Off ch=1 n=43 v=64
123456 On ch=1 n=38 v=90
123744 Off ch=1 n=38 v=64
123744 On ch=1 n=33 v=90
123936 Off ch=1 n=33 v=64
123936 On ch=1 n=33 v=90
124128 Off ch=1 n=33 v=64
124128 On ch=1 n=45 v=90
124320 Off ch=1 n=45 v=64
124320 On ch=1 n=41 v=90
124608 Off ch=1 n=41 v=64
124608 On ch=1 n=45 v=90
124704 Off ch=1 n=45 v=64
124704 On ch=1 n=43 v=90
124800 Off ch=1 n=43 v=64
124800 On ch=1 n=45 v=90
124896 Off ch=1 n=45 v=64
124896 On ch=1 n=48 v=90
125088 Off ch=1 n=48 v=64
125088 On ch=1 n=45 v=90
125376 Off ch=1 n=45 v=64
125376 On ch=1 n=45 v=90
125472 Off ch=1 n=45 v=64
125472 On ch=1 n=43 v=90
125568 Off ch=1 n=43 v=64
125568 On ch=1 n=45 v=90
125664 Off ch=1 n=45 v=64
125664 On ch=1 n=45 v=90
125856 Off ch=1 n=45 v=64
125856 On ch=1 n=41 v=90
126144 Off ch=1 n=41 v=64
126144 On ch=1 n=43 v=90
126528 Off ch=1 n=43 v=64
126528 On ch=1 n=38 v=90
126912 Off ch=1 n=38 v=64
126912 On ch=1 n=33 v=90
127200 Off ch=1 n=33 v=64
127200 On ch=1 n=45 v=90
127392 Off ch=1 n=45 v=64
127392 On ch=1 n=41 v=90
127680 Off ch=1 n=41 v=64
127680 On ch=1 n=45 v=90
127776 Off ch=1 n=45 v=64
127776 On ch=1 n=43 v=90
127872 Off ch=1 n=43 v=64
127872 On ch=1 n=45 v=90
127968 Off ch=1 n=45 v=64
127968 On ch=1 n=48 v=90
128160 Off ch=1 n=48 v=64
128160 On ch=1 n=45 v=90
128448 Off ch=1 n=45 v=64
128448 On ch=1 n=45 v=90
128544 Off ch=1 n=45 v=64
128544 On ch=1 n=43 v=90
128640 Off ch=1 n=43 v=64
128640 On ch=1 n=45 v=90
128736 Off ch=1 n=45 v=64
128736 On ch=1 n=45 v=90
128928 Off ch=1 n=45 v=64
128928 On ch=1 n=41 v=90
129216 Off ch=1 n=41 v=64
129216 On ch=1 n=43 v=90
129600 Off ch=1 n=43 v=64
129600 On ch=1 n=38 v=90
129888 Off ch=1 n=38 v=64
129888 On ch=1 n=33 v=90
130080 Off ch=1 n=33 v=64
130080 On ch=1 n=33 v=90
130272 Off ch=1 n=33 v=64
130272 On ch=1 n=45 v=90
130464 Off ch=1 n=45 v=64
130464 On ch=1 n=41 v=90
130752 Off ch=1 n=41 v=64
130752 On ch=1 n=45 v=90
130848 Off ch=1 n=45 v=64
130848 On ch=1 n=43 v=90
130944 Off ch=1 n=43 v=64
130944 On ch=1 n=45 v=90
131040 Off ch=1 n=45 v=64
131040 On ch=1 n=48 v=90
131232 Off ch=1 n=48 v=64
131232 On ch=1 n=45 v=90
131520 Off ch=1 n=45 v=64
131520 On ch=1 n=45 v=90
131616 Off ch=1 n=45 v=64
131616 On ch=1 n=43 v=90
131712 Off ch=1 n=43 v=64
131712 On ch=1 n=45 v=90
131808 Off ch=1 n=45 v=64
131808 On ch=1 n=45 v=90
132000 Off ch=1 n=45 v=64
132000 On ch=1 n=41 v=90
132288 Off ch=1 n=41 v=64
132288 On ch=1 n=43 v=90
132672 Off ch=1 n=43 v=64
132672 On ch=1 n=38 v=90
133056 Off ch=1 n=38 v=64
133056 On ch=1 n=33 v=90
133344 Off ch=1 n=33 v=64
133344 On ch=1 n=45 v=90
133536 Off ch=1 n=45 v=64
133536 On ch=1 n=41 v=90
133824 Off ch=1 n=41 v=64
133824 On ch=1 n=45 v=90
133920 Off ch=1 n=45 v=64
133920 On ch=1 n=43 v=90
134016 Off ch=1 n=43 v=64
134016 On ch=1 n=45 v=90
134112 Off ch=1 n=45 v=64
134112 On ch=1 n=48 v=90
134304 Off ch=1 n=48 v=64
134304 On ch=1 n=45 v=90
134592 Off ch=1 n=45 v=64
134592 On ch=1 n=45 v=90
134688 Off ch=1 n=45 v=64
134688 On ch=1 n=43 v=90
134784 Off ch=1 n=43 v=64
134784 On ch=1 n=45 v=90
134880 Off ch=1 n=45 v=64
134880 On ch=1 n=45 v=90
135072 Off ch=1 n=45 v=64
135072 On ch=1 n=41 v=90
135360 Off ch=1 n=41 v=64
135360 On ch=1 n=43 v=90
135744 Off ch=1 n=43 v=64
135744 On ch=1 n=38 v=90
136032 Off ch=1 n=38 v=64
136032 On ch=1 n=33 v=90
136224 Off ch=1 n=33 v=64
136224 On ch=1 n=45 v=90
136512 Off ch=1 n=45 v=64
136512 On ch=1 n=45 v=90
136608 Off ch=1 n=45 v=64
136608 On ch=1 n=43 v=90
136704 Off ch=1 n=43 v=64
136704 On ch=1 n=45 v=90
136800 Off ch=1 n=45 v=64
136800 On ch=1 n=45 v=90
136992 Off ch=1 n=45 v=64
136992 On ch=1 n=41 v=90
137280 Off ch=1 n=41 v=64
137280 On ch=1 n=43 v=90
137664 Off ch=1 n=43 v=64
137664 On ch=1 n=38 v=90
137952 Off ch=1 n=38 v=64
137952 On ch=1 n=33 v=90
138144 Off ch=1 n=33 v=64
138144 On ch=1 n=45 v=90
138432 Off ch=1 n=45 v=64
138432 On ch=1 n=45 v=90
138528 Off ch=1 n=45 v=64
138528 On ch=1 n=43 v=90
138624 Off ch=1 n=43 v=64
138624 On ch=1 n=45 v=90
138720 Off ch=1 n=45 v=64
138720 On ch=1 n=45 v=90
138912 Off ch=1 n=45 v=64
138912 On ch=1 n=45 v=90
139200 Off ch=1 n=45 v=64
139200 On ch=1 n=45 v=90
139296 Off ch=1 n=45 v=64
139296 On ch=1 n=43 v=90
139392 Off ch=1 n=43 v=64
139392 On ch=1 n=45 v=90
139488 Off ch=1 n=45 v=64
139488 On ch=1 n=45 v=90
139680 Off ch=1 n=45 v=64
139680 On ch=1 n=45 v=90
139968 Off ch=1 n=45 v=64
139968 On ch=1 n=45 v=90
140064 Off ch=1 n=45 v=64
140064 On ch=1 n=43 v=90
140160 Off ch=1 n=43 v=64
140160 On ch=1 n=45 v=90
140256 Off ch=1 n=45 v=64
140256 On ch=1 n=45 v=90
140448 Off ch=1 n=45 v=64
140448 On ch=1 n=45 v=90
140736 Off ch=1 n=45 v=64
140736 On ch=1 n=45 v=90
140832 Off ch=1 n=45 v=64
140832 On ch=1 n=43 v=90
140928 Off ch=1 n=43 v=64
140928 On ch=1 n=45 v=90
141024 Off ch=1 n=45 v=64
141024 On ch=1 n=45 v=90
141216 Off ch=1 n=45 v=64
141216 Meta TrkEnd
TrkEnd
MTrk
0 Meta 0x21 01
0 Meta TrkName "Piano               "
0 PrCh ch=2 p=0
3360 On ch=2 n=64 v=90
3456 Off ch=2 n=64 v=64
3456 On ch=2 n=67 v=90
3552 Off ch=2 n=67 v=64
3552 On ch=2 n=68 v=90
3648 Off ch=2 n=68 v=64
3648 On ch=2 n=69 v=90
3744 Off ch=2 n=69 v=64
3744 On ch=2 n=64 v=90
3840 Off ch=2 n=64 v=64
3840 On ch=2 n=72 v=90
4032 Off ch=2 n=72 v=64
4032 On ch=2 n=69 v=90
4224 Off ch=2 n=69 v=64
4224 On ch=2 n=74 v=90
4320 Off ch=2 n=74 v=64
4320 On ch=2 n=76 v=90
4416 Off ch=2 n=76 v=64
4416 On ch=2 n=72 v=90
4480 Off ch=2 n=72 v=64
4480 On ch=2 n=74 v=90
4544 Off ch=2 n=74 v=64
4544 On ch=2 n=72 v=90
4608 Off ch=2 n=72 v=64
4608 On ch=2 n=69 v=90
4704 Off ch=2 n=69 v=64
4704 On ch=2 n=69 v=90
4800 Off ch=2 n=69 v=64
4800 On ch=2 n=72 v=90
4992 Off ch=2 n=72 v=64
4992 On ch=2 n=69 v=90
5184 Off ch=2 n=69 v=64
5184 On ch=2 n=67 v=90
5280 Off ch=2 n=67 v=64
5280 On ch=2 n=69 v=90
5376 Off ch=2 n=69 v=64
5376 On ch=2 n=69 v=90
5472 Off ch=2 n=69 v=64
5472 On ch=2 n=62 v=90
5568 Off ch=2 n=62 v=64
5568 On ch=2 n=64 v=90
5664 Off ch=2 n=64 v=64
5664 On ch=2 n=60 v=90
5760 Off ch=2 n=60 v=64
5760 On ch=2 n=62 v=90
5856 Off ch=2 n=62 v=64
5856 On ch=2 n=57 v=90
6144 Off ch=2 n=57 v=64
6144 On ch=2 n=57 v=90
6160 Off ch=2 n=57 v=64
9504 On ch=2 n=64 v=90
9600 Off ch=2 n=64 v=64
9600 On ch=2 n=67 v=90
9696 Off ch=2 n=67 v=64
9696 On ch=2 n=68 v=90
9792 Off ch=2 n=68 v=64
9792 On ch=2 n=69 v=90
9888 Off ch=2 n=69 v=64
9888 On ch=2 n=64 v=90
9984 Off ch=2 n=64 v=64
9984 On ch=2 n=72 v=90
10176 Off ch=2 n=72 v=64
10176 On ch=2 n=69 v=90
10368 Off ch=2 n=69 v=64
10368 On ch=2 n=74 v=90
10464 Off ch=2 n=74 v=64
10464 On ch=2 n=76 v=90
10560 Off ch=2 n=76 v=64
10560 On ch=2 n=72 v=90
10624 Off ch=2 n=72 v=64
10624 On ch=2 n=74 v=90
10688 Off ch=2 n=74 v=64
10688 On ch=2 n=72 v=90
10752 Off ch=2 n=72 v=64
10752 On ch=2 n=69 v=90
10848 Off ch=2 n=69 v=64
10848 On ch=2 n=69 v=90
10944 Off ch=2 n=69 v=64
10944 On ch=2 n=72 v=90
11136 Off ch=2 n=72 v=64
11136 On ch=2 n=69 v=90
11328 Off ch=2 n=69 v=64
11328 On ch=2 n=67 v=90
11424 Off ch=2 n=67 v=64
11424 On ch=2 n=69 v=90
11520 Off ch=2 n=69 v=64
11520 On ch=2 n=69 v=90
11616 Off ch=2 n=69 v=64
11616 On ch=2 n=62 v=90
11712 Off ch=2 n=62 v=64
11712 On ch=2 n=64 v=90
11808 Off ch=2 n=64 v=64
11808 On ch=2 n=60 v=90
11904 Off ch=2 n=60 v=64
11904 On ch=2 n=62 v=90
12000 Off ch=2 n=62 v=64
12000 On ch=2 n=57 v=90
12288 Off ch=2 n=57 v=64
12288 On ch=2 n=57 v=90
12384 Off ch=2 n=57 v=64
15648 On ch=2 n=64 v=90
15744 Off ch=2 n=64 v=64
15744 On ch=2 n=67 v=90
15840 Off ch=2 n=67 v=64
15840 On ch=2 n=68 v=90
15936 Off ch=2 n=68 v=64
15936 On ch=2 n=69 v=90
16032 Off ch=2 n=69 v=64
16032 On ch=2 n=64 v=90
16128 Off ch=2 n=64 v=64
16128 On ch=2 n=72 v=90
16320 Off ch=2 n=72 v=64
16320 On ch=2 n=69 v=90
16512 Off ch=2 n=69 v=64
16512 On ch=2 n=74 v=90
16608 Off ch=2 n=74 v=64
16608 On ch=2 n=76 v=90
16704 Off ch=2 n=76 v=64
16704 On ch=2 n=72 v=90
16768 Off ch=2 n=72 v=64
16768 On ch=2 n=74 v=90
16832 Off ch=2 n=74 v=64
16832 On ch=2 n=72 v=90
16896 Off ch=2 n=72 v=64
16896 On ch=2 n=69 v=90
16992 Off ch=2 n=69 v=64
16992 On ch=2 n=69 v=90
17088 Off ch=2 n=69 v=64
17088 On ch=2 n=72 v=90
17280 Off ch=2 n=72 v=64
17280 On ch=2 n=69 v=90
17472 Off ch=2 n=69 v=64
17472 On ch=2 n=67 v=90
17568 Off ch=2 n=67 v=64
17568 On ch=2 n=69 v=90
17664 Off ch=2 n=69 v=64
17664 On ch=2 n=69 v=90
17760 Off ch=2 n=69 v=64
17760 On ch=2 n=62 v=90
17856 Off ch=2 n=62 v=64
17856 On ch=2 n=64 v=90
17952 Off ch=2 n=64 v=64
17952 On ch=2 n=60 v=90
18048 Off ch=2 n=60 v=64
18048 On ch=2 n=62 v=90
18144 Off ch=2 n=62 v=64
18144 On ch=2 n=57 v=90
18432 Off ch=2 n=57 v=64
18432 On ch=2 n=57 v=90
18720 Off ch=2 n=57 v=64
18720 On ch=2 n=59 v=90
18816 Off ch=2 n=59 v=64
18816 On ch=2 n=62 v=90
18912 Off ch=2 n=62 v=64
18912 On ch=2 n=63 v=90
19008 Off ch=2 n=63 v=64
19008 On ch=2 n=64 v=90
19104 Off ch=2 n=64 v=64
19104 On ch=2 n=59 v=90
19200 Off ch=2 n=59 v=64
19200 On ch=2 n=67 v=90
19392 Off ch=2 n=67 v=64
19392 On ch=2 n=64 v=90
19584 Off ch=2 n=64 v=64
19584 On ch=2 n=59 v=90
19680 Off ch=2 n=59 v=64
19680 On ch=2 n=62 v=90
19776 Off ch=2 n=62 v=64
19776 On ch=2 n=63 v=90
19872 Off ch=2 n=63 v=64
19872 On ch=2 n=64 v=90
19968 Off ch=2 n=64 v=64
19968 On ch=2 n=59 v=90
20064 Off ch=2 n=59 v=64
20064 On ch=2 n=67 v=90
20256 Off ch=2 n=67 v=64
20256 On ch=2 n=64 v=90
20448 Off ch=2 n=64 v=64
20448 On ch=2 n=59 v=90
20544 Off ch=2 n=59 v=64
20544 On ch=2 n=62 v=90
20640 Off ch=2 n=62 v=64
20640 On ch=2 n=63 v=90
20736 Off ch=2 n=63 v=64
20736 On ch=2 n=64 v=90
20832 Off ch=2 n=64 v=64
20832 On ch=2 n=59 v=90
20928 Off ch=2 n=59 v=64
20928 On ch=2 n=67 v=90
21120 Off ch=2 n=67 v=64
21120 On ch=2 n=64 v=90
21216 Off ch=2 n=64 v=64
21216 On ch=2 n=59 v=90
21312 Off ch=2 n=59 v=64
21312 On ch=2 n=62 v=90
21408 Off ch=2 n=62 v=64
21408 On ch=2 n=63 v=90
21504 Off ch=2 n=63 v=64
21504 On ch=2 n=64 v=90
21600 Off ch=2 n=64 v=64
21600 On ch=2 n=62 v=90
21696 Off ch=2 n=62 v=64
21696 On ch=2 n=64 v=90
21792 Off ch=2 n=64 v=64
21792 On ch=2 n=67 v=90
21888 Off ch=2 n=67 v=64
21888 On ch=2 n=68 v=90
21984 Off ch=2 n=68 v=64
21984 On ch=2 n=69 v=90
22080 Off ch=2 n=69 v=64
22080 On ch=2 n=64 v=90
22176 Off ch=2 n=64 v=64
22176 On ch=2 n=72 v=90
22464 Off ch=2 n=72 v=64
22464 On ch=2 n=69 v=90
22656 Off ch=2 n=69 v=64
22656 On ch=2 n=74 v=90
22752 Off ch=2 n=74 v=64
22752 On ch=2 n=76 v=90
22848 Off ch=2 n=76 v=64
22848 On ch=2 n=72 v=90
22912 Off ch=2 n=72 v=64
22912 On ch=2 n=74 v=90
22976 Off ch=2 n=74 v=64
22976 On ch=2 n=73 v=90
23040 Off ch=2 n=73 v=64
23040 On ch=2 n=69 v=90
23136 Off ch=2 n=69 v=64
23136 On ch=2 n=69 v=90
23232 Off ch=2 n=69 v=64
23232 On ch=2 n=72 v=90
23424 Off ch=2 n=72 v=64
23424 On ch=2 n=69 v=90
23616 Off ch=2 n=69 v=64
23616 On ch=2 n=67 v=90
23712 Off ch=2 n=67 v=64
23712 On ch=2 n=69 v=90
23808 Off ch=2 n=69 v=64
23808 On ch=2 n=69 v=90
23904 Off ch=2 n=69 v=64
23904 On ch=2 n=62 v=90
24000 Off ch=2 n=62 v=64
24000 On ch=2 n=64 v=90
24096 Off ch=2 n=64 v=64
24096 On ch=2 n=60 v=90
24192 Off ch=2 n=60 v=64
24192 On ch=2 n=62 v=90
24288 Off ch=2 n=62 v=64
24288 On ch=2 n=57 v=90
24576 Off ch=2 n=57 v=64
24576 On ch=2 n=57 v=90
24864 Off ch=2 n=57 v=64
24864 On ch=2 n=64 v=90
24960 Off ch=2 n=64 v=64
24960 On ch=2 n=60 v=90
25056 Off ch=2 n=60 v=64
25056 On ch=2 n=57 v=90
25344 Off ch=2 n=57 v=64
25344 On ch=2 n=72 v=90
25440 Off ch=2 n=72 v=64
25440 On ch=2 n=69 v=90
25536 Off ch=2 n=69 v=64
25536 On ch=2 n=71 v=90
25632 Off ch=2 n=71 v=64
25632 On ch=2 n=69 v=90
26112 Off ch=2 n=69 v=64
26112 On ch=2 n=72 v=90
26208 Off ch=2 n=72 v=64
26208 On ch=2 n=69 v=90
26304 Off ch=2 n=69 v=64
26304 On ch=2 n=71 v=90
26400 Off ch=2 n=71 v=64
26400 On ch=2 n=69 v=90
26976 Off ch=2 n=69 v=64
26976 On ch=2 n=72 v=90
27264 Off ch=2 n=72 v=64
27360 On ch=2 n=69 v=90
27648 Off ch=2 n=69 v=64
27648 On ch=2 n=72 v=90
27744 Off ch=2 n=72 v=64
27744 On ch=2 n=69 v=90
27840 Off ch=2 n=69 v=64
27840 On ch=2 n=65 v=90
27936 Off ch=2 n=65 v=64
27936 On ch=2 n=64 v=90
28032 Off ch=2 n=64 v=64
28032 On ch=2 n=60 v=90
28128 Off ch=2 n=60 v=64
28128 On ch=2 n=57 v=90
28416 Off ch=2 n=57 v=64
28416 On ch=2 n=72 v=90
28512 Off ch=2 n=72 v=64
28512 On ch=2 n=69 v=90
28608 Off ch=2 n=69 v=64
28608 On ch=2 n=71 v=90
28704 Off ch=2 n=71 v=64
28704 On ch=2 n=69 v=90
29184 Off ch=2 n=69 v=64
29184 On ch=2 n=72 v=90
29280 Off ch=2 n=72 v=64
29280 On ch=2 n=69 v=90
29376 Off ch=2 n=69 v=64
29376 On ch=2 n=71 v=90
29472 Off ch=2 n=71 v=64
29472 On ch=2 n=69 v=90
30048 Off ch=2 n=69 v=64
30048 On ch=2 n=72 v=90
30336 Off ch=2 n=72 v=64
30432 On ch=2 n=69 v=90
30720 Off ch=2 n=69 v=64
30720 On ch=2 n=72 v=90
30816 Off ch=2 n=72 v=64
30816 On ch=2 n=69 v=90
30912 Off ch=2 n=69 v=64
30912 On ch=2 n=65 v=90
31008 Off ch=2 n=65 v=64
31008 On ch=2 n=64 v=90
31104 Off ch=2 n=64 v=64
31104 On ch=2 n=69 v=90
34176 Off ch=2 n=69 v=64
34176 On ch=2 n=64 v=90
34272 Off ch=2 n=64 v=64
34272 On ch=2 n=67 v=90
34368 Off ch=2 n=67 v=64
34368 On ch=2 n=68 v=90
34464 Off ch=2 n=68 v=64
34464 On ch=2 n=69 v=90
34560 Off ch=2 n=69 v=64
34560 On ch=2 n=64 v=90
34656 Off ch=2 n=64 v=64
34656 On ch=2 n=72 v=90
34848 Off ch=2 n=72 v=64
34848 On ch=2 n=69 v=90
35040 Off ch=2 n=69 v=64
35040 On ch=2 n=74 v=90
35136 Off ch=2 n=74 v=64
35136 On ch=2 n=76 v=90
35232 Off ch=2 n=76 v=64
35232 On ch=2 n=72 v=90
35296 Off ch=2 n=72 v=64
35296 On ch=2 n=74 v=90
35360 Off ch=2 n=74 v=64
35360 On ch=2 n=72 v=90
35424 Off ch=2 n=72 v=64
35424 On ch=2 n=69 v=90
35520 Off ch=2 n=69 v=64
35520 On ch=2 n=69 v=90
35616 Off ch=2 n=69 v=64
35616 On ch=2 n=72 v=90
35808 Off ch=2 n=72 v=64
35808 On ch=2 n=69 v=90
36000 Off ch=2 n=69 v=64
36000 On ch=2 n=67 v=90
36096 Off ch=2 n=67 v=64
36096 On ch=2 n=69 v=90
36192 Off ch=2 n=69 v=64
36192 On ch=2 n=69 v=90
36288 Off ch=2 n=69 v=64
36288 On ch=2 n=62 v=90
36384 Off ch=2 n=62 v=64
36384 On ch=2 n=64 v=90
36480 Off ch=2 n=64 v=64
36480 On ch=2 n=60 v=90
36576 Off ch=2 n=60 v=64
36576 On ch=2 n=62 v=90
36672 Off ch=2 n=62 v=64
36672 On ch=2 n=57 v=90
36960 Off ch=2 n=57 v=64
36960 On ch=2 n=57 v=90
40320 Off ch=2 n=57 v=64
40320 On ch=2 n=64 v=90
40416 Off ch=2 n=64 v=64
40416 On ch=2 n=67 v=90
40512 Off ch=2 n=67 v=64
40512 On ch=2 n=68 v=90
40608 Off ch=2 n=68 v=64
40608 On ch=2 n=69 v=90
40704 Off ch=2 n=69 v=64
40704 On ch=2 n=64 v=90
40800 Off ch=2 n=64 v=64
40800 On ch=2 n=72 v=90
40992 Off ch=2 n=72 v=64
40992 On ch=2 n=69 v=90
41184 Off ch=2 n=69 v=64
41184 On ch=2 n=74 v=90
41280 Off ch=2 n=74 v=64
41280 On ch=2 n=76 v=90
41376 Off ch=2 n=76 v=64
41376 On ch=2 n=72 v=90
41440 Off ch=2 n=72 v=64
41440 On ch=2 n=74 v=90
41504 Off ch=2 n=74 v=64
41504 On ch=2 n=72 v=90
41568 Off ch=2 n=72 v=64
41568 On ch=2 n=69 v=90
41664 Off ch=2 n=69 v=64
41664 On ch=2 n=69 v=90
41760 Off ch=2 n=69 v=64
41760 On ch=2 n=72 v=90
41952 Off ch=2 n=72 v=64
41952 On ch=2 n=69 v=90
42144 Off ch=2 n=69 v=64
42144 On ch=2 n=67 v=90
42240 Off ch=2 n=67 v=64
42240 On ch=2 n=69 v=90
42336 Off ch=2 n=69 v=64
42336 On ch=2 n=69 v=90
42432 Off ch=2 n=69 v=64
42432 On ch=2 n=62 v=90
42528 Off ch=2 n=62 v=64
42528 On ch=2 n=64 v=90
42624 Off ch=2 n=64 v=64
42624 On ch=2 n=60 v=90
42720 Off ch=2 n=60 v=64
42720 On ch=2 n=62 v=90
42816 Off ch=2 n=62 v=64
42816 On ch=2 n=57 v=90
43104 Off ch=2 n=57 v=64
43104 On ch=2 n=57 v=90
49440 Off ch=2 n=57 v=64
49440 On ch=2 n=67 v=90
49632 Off ch=2 n=67 v=64
49632 On ch=2 n=69 v=90
49824 Off ch=2 n=69 v=64
49824 On ch=2 n=65 v=90
50112 Off ch=2 n=65 v=64
50112 On ch=2 n=69 v=90
50208 Off ch=2 n=69 v=64
50208 On ch=2 n=67 v=90
50304 Off ch=2 n=67 v=64
50304 On ch=2 n=69 v=90
50400 Off ch=2 n=69 v=64
50400 On ch=2 n=72 v=90
50592 Off ch=2 n=72 v=64
50592 On ch=2 n=69 v=90
50880 Off ch=2 n=69 v=64
50880 On ch=2 n=69 v=90
50976 Off ch=2 n=69 v=64
50976 On ch=2 n=67 v=90
51072 Off ch=2 n=67 v=64
51072 On ch=2 n=69 v=90
51168 Off ch=2 n=69 v=64
51168 On ch=2 n=69 v=90
51360 Off ch=2 n=69 v=64
51360 On ch=2 n=65 v=90
51648 Off ch=2 n=65 v=64
51648 On ch=2 n=79 v=90
52032 Off ch=2 n=79 v=64
52032 On ch=2 n=77 v=90
52416 Off ch=2 n=77 v=64
52416 On ch=2 n=76 v=90
52512 Off ch=2 n=76 v=64
52512 On ch=2 n=64 v=90
52608 Off ch=2 n=64 v=64
52608 On ch=2 n=67 v=90
52704 Off ch=2 n=67 v=64
52704 On ch=2 n=69 v=90
52896 Off ch=2 n=69 v=64
52896 On ch=2 n=65 v=90
53184 Off ch=2 n=65 v=64
53184 On ch=2 n=69 v=90
53280 Off ch=2 n=69 v=64
53280 On ch=2 n=67 v=90
53376 Off ch=2 n=67 v=64
53376 On ch=2 n=69 v=90
53472 Off ch=2 n=69 v=64
53472 On ch=2 n=72 v=90
53664 Off ch=2 n=72 v=64
53664 On ch=2 n=69 v=90
53952 Off ch=2 n=69 v=64
53952 On ch=2 n=69 v=90
54048 Off ch=2 n=69 v=64
54048 On ch=2 n=67 v=90
54144 Off ch=2 n=67 v=64
54144 On ch=2 n=69 v=90
54240 Off ch=2 n=69 v=64
54240 On ch=2 n=72 v=90
54432 Off ch=2 n=72 v=64
54432 On ch=2 n=65 v=90
54720 Off ch=2 n=65 v=64
54720 On ch=2 n=79 v=90
55104 Off ch=2 n=79 v=64
55104 On ch=2 n=77 v=90
55488 Off ch=2 n=77 v=64
55488 On ch=2 n=76 v=90
55584 Off ch=2 n=76 v=64
55584 On ch=2 n=64 v=90
55680 Off ch=2 n=64 v=64
55680 On ch=2 n=67 v=90
55776 Off ch=2 n=67 v=64
55776 On ch=2 n=69 v=90
55968 Off ch=2 n=69 v=64
55968 On ch=2 n=65 v=90
56256 Off ch=2 n=65 v=64
56256 On ch=2 n=69 v=90
56352 Off ch=2 n=69 v=64
56352 On ch=2 n=67 v=90
56448 Off ch=2 n=67 v=64
56448 On ch=2 n=69 v=90
56544 Off ch=2 n=69 v=64
56544 On ch=2 n=72 v=90
56736 Off ch=2 n=72 v=64
56736 On ch=2 n=69 v=90
57024 Off ch=2 n=69 v=64
57024 On ch=2 n=69 v=90
57120 Off ch=2 n=69 v=64
57120 On ch=2 n=67 v=90
57216 Off ch=2 n=67 v=64
57216 On ch=2 n=69 v=90
57312 Off ch=2 n=69 v=64
57312 On ch=2 n=69 v=90
57504 Off ch=2 n=69 v=64
57504 On ch=2 n=65 v=90
57792 Off ch=2 n=65 v=64
57792 On ch=2 n=79 v=90
58176 Off ch=2 n=79 v=64
58176 On ch=2 n=77 v=90
58560 Off ch=2 n=77 v=64
58560 On ch=2 n=76 v=90
58656 Off ch=2 n=76 v=64
58656 On ch=2 n=64 v=90
58752 Off ch=2 n=64 v=64
58752 On ch=2 n=67 v=90
58848 Off ch=2 n=67 v=64
58848 On ch=2 n=69 v=90
59040 Off ch=2 n=69 v=64
59040 On ch=2 n=65 v=90
59328 Off ch=2 n=65 v=64
59328 On ch=2 n=69 v=90
59424 Off ch=2 n=69 v=64
59424 On ch=2 n=67 v=90
59520 Off ch=2 n=67 v=64
59520 On ch=2 n=69 v=90
59616 Off ch=2 n=69 v=64
59616 On ch=2 n=72 v=90
59808 Off ch=2 n=72 v=64
59808 On ch=2 n=69 v=90
60096 Off ch=2 n=69 v=64
60096 On ch=2 n=69 v=90
60192 Off ch=2 n=69 v=64
60192 On ch=2 n=67 v=90
60288 Off ch=2 n=67 v=64
60288 On ch=2 n=69 v=90
60384 Off ch=2 n=69 v=64
60384 On ch=2 n=72 v=90
60576 Off ch=2 n=72 v=64
60576 On ch=2 n=65 v=90
60864 Off ch=2 n=65 v=64
60864 On ch=2 n=79 v=90
61248 Off ch=2 n=79 v=64
61248 On ch=2 n=77 v=90
61536 Off ch=2 n=77 v=64
61536 On ch=2 n=76 v=90
61920 Off ch=2 n=76 v=64
61920 On ch=2 n=57 v=90
65280 Off ch=2 n=57 v=64
65280 On ch=2 n=64 v=90
65376 Off ch=2 n=64 v=64
65376 On ch=2 n=67 v=90
65472 Off ch=2 n=67 v=64
65472 On ch=2 n=68 v=90
65568 Off ch=2 n=68 v=64
65568 On ch=2 n=69 v=90
65664 Off ch=2 n=69 v=64
65664 On ch=2 n=64 v=90
65760 Off ch=2 n=64 v=64
65760 On ch=2 n=72 v=90
65952 Off ch=2 n=72 v=64
65952 On ch=2 n=69 v=90
66144 Off ch=2 n=69 v=64
66144 On ch=2 n=74 v=90
66240 Off ch=2 n=74 v=64
66240 On ch=2 n=76 v=90
66336 Off ch=2 n=76 v=64
66336 On ch=2 n=72 v=90
66400 Off ch=2 n=72 v=64
66400 On ch=2 n=74 v=90
66464 Off ch=2 n=74 v=64
66464 On ch=2 n=72 v=90
66528 Off ch=2 n=72 v=64
66528 On ch=2 n=69 v=90
66624 Off ch=2 n=69 v=64
66624 On ch=2 n=69 v=90
66720 Off ch=2 n=69 v=64
66720 On ch=2 n=72 v=90
66912 Off ch=2 n=72 v=64
66912 On ch=2 n=69 v=90
67104 Off ch=2 n=69 v=64
67104 On ch=2 n=67 v=90
67200 Off ch=2 n=67 v=64
67200 On ch=2 n=69 v=90
67296 Off ch=2 n=69 v=64
67296 On ch=2 n=69 v=90
67392 Off ch=2 n=69 v=64
67392 On ch=2 n=62 v=90
67488 Off ch=2 n=62 v=64
67488 On ch=2 n=64 v=90
67584 Off ch=2 n=64 v=64
67584 On ch=2 n=60 v=90
67680 Off ch=2 n=60 v=64
67680 On ch=2 n=62 v=90
67776 Off ch=2 n=62 v=64
67776 On ch=2 n=57 v=90
68064 Off ch=2 n=57 v=64
68064 On ch=2 n=57 v=90
71424 Off ch=2 n=57 v=64
71424 On ch=2 n=64 v=90
71520 Off ch=2 n=64 v=64
71520 On ch=2 n=67 v=90
71616 Off ch=2 n=67 v=64
71616 On ch=2 n=68 v=90
71712 Off ch=2 n=68 v=64
71712 On ch=2 n=69 v=90
71808 Off ch=2 n=69 v=64
71808 On ch=2 n=64 v=90
71904 Off ch=2 n=64 v=64
71904 On ch=2 n=72 v=90
72096 Off ch=2 n=72 v=64
72096 On ch=2 n=69 v=90
72288 Off ch=2 n=69 v=64
72288 On ch=2 n=74 v=90
72384 Off ch=2 n=74 v=64
72384 On ch=2 n=76 v=90
72480 Off ch=2 n=76 v=64
72480 On ch=2 n=72 v=90
72544 Off ch=2 n=72 v=64
72544 On ch=2 n=74 v=90
72608 Off ch=2 n=74 v=64
72608 On ch=2 n=72 v=90
72672 Off ch=2 n=72 v=64
72672 On ch=2 n=69 v=90
72768 Off ch=2 n=69 v=64
72768 On ch=2 n=69 v=90
72864 Off ch=2 n=69 v=64
72864 On ch=2 n=72 v=90
73056 Off ch=2 n=72 v=64
73056 On ch=2 n=69 v=90
73248 Off ch=2 n=69 v=64
73248 On ch=2 n=67 v=90
73344 Off ch=2 n=67 v=64
73344 On ch=2 n=69 v=90
73440 Off ch=2 n=69 v=64
73440 On ch=2 n=69 v=90
73536 Off ch=2 n=69 v=64
73536 On ch=2 n=62 v=90
73632 Off ch=2 n=62 v=64
73632 On ch=2 n=64 v=90
73728 Off ch=2 n=64 v=64
73728 On ch=2 n=60 v=90
73824 Off ch=2 n=60 v=64
73824 On ch=2 n=62 v=90
73920 Off ch=2 n=62 v=64
73920 On ch=2 n=57 v=90
74208 Off ch=2 n=57 v=64
74208 On ch=2 n=57 v=90
77568 Off ch=2 n=57 v=64
77568 On ch=2 n=64 v=90
77664 Off ch=2 n=64 v=64
77664 On ch=2 n=67 v=90
77760 Off ch=2 n=67 v=64
77760 On ch=2 n=68 v=90
77856 Off ch=2 n=68 v=64
77856 On ch=2 n=69 v=90
77952 Off ch=2 n=69 v=64
77952 On ch=2 n=64 v=90
78048 Off ch=2 n=64 v=64
78048 On ch=2 n=72 v=90
78240 Off ch=2 n=72 v=64
78240 On ch=2 n=69 v=90
78432 Off ch=2 n=69 v=64
78432 On ch=2 n=74 v=90
78528 Off ch=2 n=74 v=64
78528 On ch=2 n=76 v=90
78624 Off ch=2 n=76 v=64
78624 On ch=2 n=72 v=90
78688 Off ch=2 n=72 v=64
78688 On ch=2 n=74 v=90
78752 Off ch=2 n=74 v=64
78752 On ch=2 n=72 v=90
78816 Off ch=2 n=72 v=64
78816 On ch=2 n=69 v=90
78912 Off ch=2 n=69 v=64
78912 On ch=2 n=69 v=90
79008 Off ch=2 n=69 v=64
79008 On ch=2 n=72 v=90
79200 Off ch=2 n=72 v=64
79200 On ch=2 n=69 v=90
79392 Off ch=2 n=69 v=64
79392 On ch=2 n=67 v=90
79488 Off ch=2 n=67 v=64
79488 On ch=2 n=69 v=90
79584 Off ch=2 n=69 v=64
79584 On ch=2 n=69 v=90
79680 Off ch=2 n=69 v=64
79680 On ch=2 n=62 v=90
79776 Off ch=2 n=62 v=64
79776 On ch=2 n=64 v=90
79872 Off ch=2 n=64 v=64
79872 On ch=2 n=60 v=90
79968 Off ch=2 n=60 v=64
79968 On ch=2 n=62 v=90
80064 Off ch=2 n=62 v=64
80064 On ch=2 n=57 v=90
80352 Off ch=2 n=57 v=64
80352 On ch=2 n=57 v=90
80640 Off ch=2 n=57 v=64
80640 On ch=2 n=59 v=90
80736 Off ch=2 n=59 v=64
80736 On ch=2 n=62 v=90
80832 Off ch=2 n=62 v=64
80832 On ch=2 n=63 v=90
80928 Off ch=2 n=63 v=64
80928 On ch=2 n=64 v=90
81024 Off ch=2 n=64 v=64
81024 On ch=2 n=59 v=90
81120 Off ch=2 n=59 v=64
81120 On ch=2 n=67 v=90
81312 Off ch=2 n=67 v=64
81312 On ch=2 n=64 v=90
81504 Off ch=2 n=64 v=64
81504 On ch=2 n=59 v=90
81600 Off ch=2 n=59 v=64
81600 On ch=2 n=62 v=90
81696 Off ch=2 n=62 v=64
81696 On ch=2 n=63 v=90
81792 Off ch=2 n=63 v=64
81792 On ch=2 n=64 v=90
81888 Off ch=2 n=64 v=64
81888 On ch=2 n=59 v=90
81984 Off ch=2 n=59 v=64
81984 On ch=2 n=67 v=90
82176 Off ch=2 n=67 v=64
82176 On ch=2 n=64 v=90
82368 Off ch=2 n=64 v=64
82368 On ch=2 n=59 v=90
82464 Off ch=2 n=59 v=64
82464 On ch=2 n=62 v=90
82560 Off ch=2 n=62 v=64
82560 On ch=2 n=63 v=90
82656 Off ch=2 n=63 v=64
82656 On ch=2 n=64 v=90
82752 Off ch=2 n=64 v=64
82752 On ch=2 n=59 v=90
82848 Off ch=2 n=59 v=64
82848 On ch=2 n=67 v=90
83040 Off ch=2 n=67 v=64
83040 On ch=2 n=64 v=90
83136 Off ch=2 n=64 v=64
83136 On ch=2 n=59 v=90
83232 Off ch=2 n=59 v=64
83232 On ch=2 n=62 v=90
83328 Off ch=2 n=62 v=64
83328 On ch=2 n=63 v=90
83424 Off ch=2 n=63 v=64
83424 On ch=2 n=64 v=90
83520 Off ch=2 n=64 v=64
83520 On ch=2 n=62 v=90
83616 Off ch=2 n=62 v=64
83616 On ch=2 n=64 v=90
83712 Off ch=2 n=64 v=64
83712 On ch=2 n=67 v=90
83808 Off ch=2 n=67 v=64
83808 On ch=2 n=68 v=90
83904 Off ch=2 n=68 v=64
83904 On ch=2 n=69 v=90
84000 Off ch=2 n=69 v=64
84000 On ch=2 n=64 v=90
84096 Off ch=2 n=64 v=64
84096 On ch=2 n=72 v=90
84384 Off ch=2 n=72 v=64
84384 On ch=2 n=69 v=90
84576 Off ch=2 n=69 v=64
84576 On ch=2 n=74 v=90
84672 Off ch=2 n=74 v=64
84672 On ch=2 n=76 v=90
84768 Off ch=2 n=76 v=64
84768 On ch=2 n=72 v=90
84832 Off ch=2 n=72 v=64
84832 On ch=2 n=74 v=90
84896 Off ch=2 n=74 v=64
84896 On ch=2 n=73 v=90
84960 Off ch=2 n=73 v=64
84960 On ch=2 n=69 v=90
85056 Off ch=2 n=69 v=64
85056 On ch=2 n=69 v=90
85152 Off ch=2 n=69 v=64
85152 On ch=2 n=72 v=90
85344 Off ch=2 n=72 v=64
85344 On ch=2 n=69 v=90
85536 Off ch=2 n=69 v=64
85536 On ch=2 n=67 v=90
85632 Off ch=2 n=67 v=64
85632 On ch=2 n=69 v=90
85728 Off ch=2 n=69 v=64
85728 On ch=2 n=69 v=90
85824 Off ch=2 n=69 v=64
85824 On ch=2 n=62 v=90
85920 Off ch=2 n=62 v=64
85920 On ch=2 n=64 v=90
86016 Off ch=2 n=64 v=64
86016 On ch=2 n=60 v=90
86112 Off ch=2 n=60 v=64
86112 On ch=2 n=62 v=90
86208 Off ch=2 n=62 v=64
86208 On ch=2 n=57 v=90
86496 Off ch=2 n=57 v=64
86496 On ch=2 n=57 v=90
86784 Off ch=2 n=57 v=64
86784 On ch=2 n=64 v=90
86880 Off ch=2 n=64 v=64
86880 On ch=2 n=60 v=90
86976 Off ch=2 n=60 v=64
86976 On ch=2 n=57 v=90
87264 Off ch=2 n=57 v=64
87264 On ch=2 n=72 v=90
87360 Off ch=2 n=72 v=64
87360 On ch=2 n=69 v=90
87456 Off ch=2 n=69 v=64
87456 On ch=2 n=71 v=90
87552 Off ch=2 n=71 v=64
87552 On ch=2 n=69 v=90
88032 Off ch=2 n=69 v=64
88032 On ch=2 n=72 v=90
88128 Off ch=2 n=72 v=64
88128 On ch=2 n=69 v=90
88224 Off ch=2 n=69 v=64
88224 On ch=2 n=71 v=90
88320 Off ch=2 n=71 v=64
88320 On ch=2 n=69 v=90
88896 Off ch=2 n=69 v=64
88896 On ch=2 n=72 v=90
89184 Off ch=2 n=72 v=64
89280 On ch=2 n=69 v=90
89568 Off ch=2 n=69 v=64
89568 On ch=2 n=72 v=90
89664 Off ch=2 n=72 v=64
89664 On ch=2 n=69 v=90
89760 Off ch=2 n=69 v=64
89760 On ch=2 n=65 v=90
89856 Off ch=2 n=65 v=64
89856 On ch=2 n=64 v=90
89952 Off ch=2 n=64 v=64
89952 On ch=2 n=60 v=90
90048 Off ch=2 n=60 v=64
90048 On ch=2 n=57 v=90
90336 Off ch=2 n=57 v=64
90336 On ch=2 n=72 v=90
90432 Off ch=2 n=72 v=64
90432 On ch=2 n=69 v=90
90528 Off ch=2 n=69 v=64
90528 On ch=2 n=71 v=90
90624 Off ch=2 n=71 v=64
90624 On ch=2 n=69 v=90
91104 Off ch=2 n=69 v=64
91104 On ch=2 n=72 v=90
91200 Off ch=2 n=72 v=64
91200 On ch=2 n=69 v=90
91296 Off ch=2 n=69 v=64
91296 On ch=2 n=71 v=90
91392 Off ch=2 n=71 v=64
91392 On ch=2 n=69 v=90
91968 Off ch=2 n=69 v=64
91968 On ch=2 n=72 v=90
92256 Off ch=2 n=72 v=64
92352 On ch=2 n=69 v=90
92640 Off ch=2 n=69 v=64
92640 On ch=2 n=72 v=90
92736 Off ch=2 n=72 v=64
92736 On ch=2 n=69 v=90
92832 Off ch=2 n=69 v=64
92832 On ch=2 n=65 v=90
92928 Off ch=2 n=65 v=64
92928 On ch=2 n=64 v=90
93024 Off ch=2 n=64 v=64
93024 On ch=2 n=57 v=90
96384 Off ch=2 n=57 v=64
96384 On ch=2 n=64 v=90
96480 Off ch=2 n=64 v=64
96480 On ch=2 n=67 v=90
96576 Off ch=2 n=67 v=64
96576 On ch=2 n=68 v=90
96672 Off ch=2 n=68 v=64
96672 On ch=2 n=69 v=90
96768 Off ch=2 n=69 v=64
96768 On ch=2 n=64 v=90
96864 Off ch=2 n=64 v=64
96864 On ch=2 n=72 v=90
97056 Off ch=2 n=72 v=64
97056 On ch=2 n=69 v=90
97248 Off ch=2 n=69 v=64
97248 On ch=2 n=74 v=90
97344 Off ch=2 n=74 v=64
97344 On ch=2 n=76 v=90
97440 Off ch=2 n=76 v=64
97440 On ch=2 n=72 v=90
97504 Off ch=2 n=72 v=64
97504 On ch=2 n=74 v=90
97568 Off ch=2 n=74 v=64
97568 On ch=2 n=72 v=90
97632 Off ch=2 n=72 v=64
97632 On ch=2 n=69 v=90
97728 Off ch=2 n=69 v=64
97728 On ch=2 n=69 v=90
97824 Off ch=2 n=69 v=64
97824 On ch=2 n=72 v=90
98016 Off ch=2 n=72 v=64
98016 On ch=2 n=69 v=90
98208 Off ch=2 n=69 v=64
98208 On ch=2 n=67 v=90
98304 Off ch=2 n=67 v=64
98304 On ch=2 n=69 v=90
98400 Off ch=2 n=69 v=64
98400 On ch=2 n=69 v=90
98496 Off ch=2 n=69 v=64
98496 On ch=2 n=62 v=90
98592 Off ch=2 n=62 v=64
98592 On ch=2 n=64 v=90
98688 Off ch=2 n=64 v=64
98688 On ch=2 n=60 v=90
98784 Off ch=2 n=60 v=64
98784 On ch=2 n=62 v=90
98880 Off ch=2 n=62 v=64
98880 On ch=2 n=57 v=90
99168 Off ch=2 n=57 v=64
99168 On ch=2 n=57 v=90
102240 Off ch=2 n=57 v=64
102240 On ch=2 n=57 v=90
102528 Off ch=2 n=57 v=64
102528 On ch=2 n=64 v=90
102624 Off ch=2 n=64 v=64
102624 On ch=2 n=67 v=90
102720 Off ch=2 n=67 v=64
102720 On ch=2 n=68 v=90
102816 Off ch=2 n=68 v=64
102816 On ch=2 n=69 v=90
102912 Off ch=2 n=69 v=64
102912 On ch=2 n=64 v=90
103008 Off ch=2 n=64 v=64
103008 On ch=2 n=72 v=90
103200 Off ch=2 n=72 v=64
103200 On ch=2 n=69 v=90
103392 Off ch=2 n=69 v=64
103392 On ch=2 n=74 v=90
103488 Off ch=2 n=74 v=64
103488 On ch=2 n=76 v=90
103584 Off ch=2 n=76 v=64
103584 On ch=2 n=72 v=90
103648 Off ch=2 n=72 v=64
103648 On ch=2 n=74 v=90
103712 Off ch=2 n=74 v=64
103712 On ch=2 n=72 v=90
103776 Off ch=2 n=72 v=64
103776 On ch=2 n=69 v=90
103872 Off ch=2 n=69 v=64
103872 On ch=2 n=69 v=90
103968 Off ch=2 n=69 v=64
103968 On ch=2 n=72 v=90
104160 Off ch=2 n=72 v=64
104160 On ch=2 n=69 v=90
104352 Off ch=2 n=69 v=64
104352 On ch=2 n=67 v=90
104448 Off ch=2 n=67 v=64
104448 On ch=2 n=69 v=90
104544 Off ch=2 n=69 v=64
104544 On ch=2 n=69 v=90
104640 Off ch=2 n=69 v=64
104640 On ch=2 n=62 v=90
104736 Off ch=2 n=62 v=64
104736 On ch=2 n=64 v=90
104832 Off ch=2 n=64 v=64
104832 On ch=2 n=60 v=90
104928 Off ch=2 n=60 v=64
104928 On ch=2 n=62 v=90
105024 Off ch=2 n=62 v=64
105024 On ch=2 n=57 v=90
105312 Off ch=2 n=57 v=64
105312 On ch=2 n=57 v=90
111648 Off ch=2 n=57 v=64
111648 On ch=2 n=67 v=90
111840 Off ch=2 n=67 v=64
111840 On ch=2 n=69 v=90
112032 Off ch=2 n=69 v=64
112032 On ch=2 n=65 v=90
112320 Off ch=2 n=65 v=64
112320 On ch=2 n=69 v=90
112416 Off ch=2 n=69 v=64
112416 On ch=2 n=67 v=90
112512 Off ch=2 n=67 v=64
112512 On ch=2 n=69 v=90
112608 Off ch=2 n=69 v=64
112608 On ch=2 n=72 v=90
112800 Off ch=2 n=72 v=64
112800 On ch=2 n=69 v=90
113088 Off ch=2 n=69 v=64
113088 On ch=2 n=69 v=90
113184 Off ch=2 n=69 v=64
113184 On ch=2 n=67 v=90
113280 Off ch=2 n=67 v=64
113280 On ch=2 n=69 v=90
113376 Off ch=2 n=69 v=64
113376 On ch=2 n=69 v=90
113568 Off ch=2 n=69 v=64
113568 On ch=2 n=65 v=90
113856 Off ch=2 n=65 v=64
113856 On ch=2 n=79 v=90
114240 Off ch=2 n=79 v=64
114240 On ch=2 n=77 v=90
114624 Off ch=2 n=77 v=64
114624 On ch=2 n=76 v=90
114720 Off ch=2 n=76 v=64
114720 On ch=2 n=64 v=90
114816 Off ch=2 n=64 v=64
114816 On ch=2 n=67 v=90
114912 Off ch=2 n=67 v=64
114912 On ch=2 n=69 v=90
115104 Off ch=2 n=69 v=64
115104 On ch=2 n=65 v=90
115392 Off ch=2 n=65 v=64
115392 On ch=2 n=69 v=90
115488 Off ch=2 n=69 v=64
115488 On ch=2 n=67 v=90
115584 Off ch=2 n=67 v=64
115584 On ch=2 n=69 v=90
115680 Off ch=2 n=69 v=64
115680 On ch=2 n=72 v=90
115872 Off ch=2 n=72 v=64
115872 On ch=2 n=69 v=90
116160 Off ch=2 n=69 v=64
116160 On ch=2 n=69 v=90
116256 Off ch=2 n=69 v=64
116256 On ch=2 n=67 v=90
116352 Off ch=2 n=67 v=64
116352 On ch=2 n=69 v=90
116448 Off ch=2 n=69 v=64
116448 On ch=2 n=72 v=90
116640 Off ch=2 n=72 v=64
116640 On ch=2 n=65 v=90
116928 Off ch=2 n=65 v=64
116928 On ch=2 n=79 v=90
117312 Off ch=2 n=79 v=64
117312 On ch=2 n=77 v=90
117696 Off ch=2 n=77 v=64
117696 On ch=2 n=76 v=90
117792 Off ch=2 n=76 v=64
117792 On ch=2 n=64 v=90
117888 Off ch=2 n=64 v=64
117888 On ch=2 n=67 v=90
117984 Off ch=2 n=67 v=64
117984 On ch=2 n=69 v=90
118176 Off ch=2 n=69 v=64
118176 On ch=2 n=65 v=90
118464 Off ch=2 n=65 v=64
118464 On ch=2 n=69 v=90
118560 Off ch=2 n=69 v=64
118560 On ch=2 n=67 v=90
118656 Off ch=2 n=67 v=64
118656 On ch=2 n=69 v=90
118752 Off ch=2 n=69 v=64
118752 On ch=2 n=72 v=90
118944 Off ch=2 n=72 v=64
118944 On ch=2 n=69 v=90
119232 Off ch=2 n=69 v=64
119232 On ch=2 n=69 v=90
119328 Off ch=2 n=69 v=64
119328 On ch=2 n=67 v=90
119424 Off ch=2 n=67 v=64
119424 On ch=2 n=69 v=90
119520 Off ch=2 n=69 v=64
119520 On ch=2 n=69 v=90
119712 Off ch=2 n=69 v=64
119712 On ch=2 n=65 v=90
120000 Off ch=2 n=65 v=64
120000 On ch=2 n=79 v=90
120384 Off ch=2 n=79 v=64
120384 On ch=2 n=77 v=90
120768 Off ch=2 n=77 v=64
120768 On ch=2 n=76 v=90
120864 Off ch=2 n=76 v=64
120864 On ch=2 n=64 v=90
120960 Off ch=2 n=64 v=64
120960 On ch=2 n=67 v=90
121056 Off ch=2 n=67 v=64
121056 On ch=2 n=69 v=90
121248 Off ch=2 n=69 v=64
121248 On ch=2 n=65 v=90
121536 Off ch=2 n=65 v=64
121536 On ch=2 n=69 v=90
121632 Off ch=2 n=69 v=64
121632 On ch=2 n=67 v=90
121728 Off ch=2 n=67 v=64
121728 On ch=2 n=69 v=90
121824 Off ch=2 n=69 v=64
121824 On ch=2 n=72 v=90
122016 Off ch=2 n=72 v=64
122016 On ch=2 n=69 v=90
122304 Off ch=2 n=69 v=64
122304 On ch=2 n=69 v=90
122400 Off ch=2 n=69 v=64
122400 On ch=2 n=67 v=90
122496 Off ch=2 n=67 v=64
122496 On ch=2 n=69 v=90
122592 Off ch=2 n=69 v=64
122592 On ch=2 n=72 v=90
122784 Off ch=2 n=72 v=64
122784 On ch=2 n=65 v=90
123072 Off ch=2 n=65 v=64
123072 On ch=2 n=79 v=90
123456 Off ch=2 n=79 v=64
123456 On ch=2 n=77 v=90
123744 Off ch=2 n=77 v=64
123744 On ch=2 n=76 v=90
123936 Off ch=2 n=76 v=64
123936 On ch=2 n=64 v=90
124032 Off ch=2 n=64 v=64
124032 On ch=2 n=67 v=90
124128 Off ch=2 n=67 v=64
124128 On ch=2 n=69 v=90
124320 Off ch=2 n=69 v=64
124320 On ch=2 n=65 v=90
124608 Off ch=2 n=65 v=64
124608 On ch=2 n=69 v=90
124704 Off ch=2 n=69 v=64
124704 On ch=2 n=67 v=90
124800 Off ch=2 n=67 v=64
124800 On ch=2 n=69 v=90
124896 Off ch=2 n=69 v=64
124896 On ch=2 n=72 v=90
125088 Off ch=2 n=72 v=64
125088 On ch=2 n=69 v=90
125376 Off ch=2 n=69 v=64
125376 On ch=2 n=69 v=90
125472 Off ch=2 n=69 v=64
125472 On ch=2 n=67 v=90
125568 Off ch=2 n=67 v=64
125568 On ch=2 n=69 v=90
125664 Off ch=2 n=69 v=64
125664 On ch=2 n=69 v=90
125856 Off ch=2 n=69 v=64
125856 On ch=2 n=65 v=90
126144 Off ch=2 n=65 v=64
126144 On ch=2 n=79 v=90
126528 Off ch=2 n=79 v=64
126528 On ch=2 n=77 v=90
126912 Off ch=2 n=77 v=64
126912 On ch=2 n=76 v=90
127008 Off ch=2 n=76 v=64
127008 On ch=2 n=64 v=90
127104 Off ch=2 n=64 v=64
127104 On ch=2 n=67 v=90
127200 Off ch=2 n=67 v=64
127200 On ch=2 n=69 v=90
127392 Off ch=2 n=69 v=64
127392 On ch=2 n=65 v=90
127680 Off ch=2 n=65 v=64
127680 On ch=2 n=69 v=90
127776 Off ch=2 n=69 v=64
127776 On ch=2 n=67 v=90
127872 Off ch=2 n=67 v=64
127872 On ch=2 n=69 v=90
127968 Off ch=2 n=69 v=64
127968 On ch=2 n=72 v=90
128160 Off ch=2 n=72 v=64
128160 On ch=2 n=69 v=90
128448 Off ch=2 n=69 v=64
128448 On ch=2 n=69 v=90
128544 Off ch=2 n=69 v=64
128544 On ch=2 n=67 v=90
128640 Off ch=2 n=67 v=64
128640 On ch=2 n=69 v=90
128736 Off ch=2 n=69 v=64
128736 On ch=2 n=72 v=90
128928 Off ch=2 n=72 v=64
128928 On ch=2 n=65 v=90
129216 Off ch=2 n=65 v=64
129216 On ch=2 n=79 v=90
129600 Off ch=2 n=79 v=64
129600 On ch=2 n=77 v=90
129888 Off ch=2 n=77 v=64
129888 On ch=2 n=76 v=90
130080 Off ch=2 n=76 v=64
130080 On ch=2 n=64 v=90
130176 Off ch=2 n=64 v=64
130176 On ch=2 n=67 v=90
130272 Off ch=2 n=67 v=64
130272 On ch=2 n=69 v=90
130464 Off ch=2 n=69 v=64
130464 On ch=2 n=65 v=90
130752 Off ch=2 n=65 v=64
130752 On ch=2 n=69 v=90
130848 Off ch=2 n=69 v=64
130848 On ch=2 n=67 v=90
130944 Off ch=2 n=67 v=64
130944 On ch=2 n=69 v=90
131040 Off ch=2 n=69 v=64
131040 On ch=2 n=72 v=90
131232 Off ch=2 n=72 v=64
131232 On ch=2 n=69 v=90
131520 Off ch=2 n=69 v=64
131520 On ch=2 n=69 v=90
131616 Off ch=2 n=69 v=64
131616 On ch=2 n=67 v=90
131712 Off ch=2 n=67 v=64
131712 On ch=2 n=69 v=90
131808 Off ch=2 n=69 v=64
131808 On ch=2 n=69 v=90
132000 Off ch=2 n=69 v=64
132000 On ch=2 n=65 v=90
132288 Off ch=2 n=65 v=64
132288 On ch=2 n=79 v=90
132672 Off ch=2 n=79 v=64
132672 On ch=2 n=77 v=90
133056 Off ch=2 n=77 v=64
133056 On ch=2 n=76 v=90
133152 Off ch=2 n=76 v=64
133152 On ch=2 n=64 v=90
133248 Off ch=2 n=64 v=64
133248 On ch=2 n=67 v=90
133344 Off ch=2 n=67 v=64
133344 On ch=2 n=69 v=90
133536 Off ch=2 n=69 v=64
133536 On ch=2 n=65 v=90
133824 Off ch=2 n=65 v=64
133824 On ch=2 n=69 v=90
133920 Off ch=2 n=69 v=64
133920 On ch=2 n=67 v=90
134016 Off ch=2 n=67 v=64
134016 On ch=2 n=69 v=90
134112 Off ch=2 n=69 v=64
134112 On ch=2 n=72 v=90
134304 Off ch=2 n=72 v=64
134304 On ch=2 n=69 v=90
134592 Off ch=2 n=69 v=64
134592 On ch=2 n=69 v=90
134688 Off ch=2 n=69 v=64
134688 On ch=2 n=67 v=90
134784 Off ch=2 n=67 v=64
134784 On ch=2 n=69 v=90
134880 Off ch=2 n=69 v=64
134880 On ch=2 n=72 v=90
135072 Off ch=2 n=72 v=64
135072 On ch=2 n=65 v=90
135360 Off ch=2 n=65 v=64
135360 On ch=2 n=79 v=90
135744 Off ch=2 n=79 v=64
135744 On ch=2 n=77 v=90
136032 Off ch=2 n=77 v=64
136032 On ch=2 n=76 v=90
136224 Off ch=2 n=76 v=64
136224 On ch=2 n=69 v=90
136512 Off ch=2 n=69 v=64
136512 On ch=2 n=69 v=90
136608 Off ch=2 n=69 v=64
136608 On ch=2 n=67 v=90
136704 Off ch=2 n=67 v=64
136704 On ch=2 n=69 v=90
136800 Off ch=2 n=69 v=64
136800 On ch=2 n=72 v=90
136992 Off ch=2 n=72 v=64
136992 On ch=2 n=65 v=90
137280 Off ch=2 n=65 v=64
137280 On ch=2 n=79 v=90
137664 Off ch=2 n=79 v=64
137664 On ch=2 n=77 v=90
137952 Off ch=2 n=77 v=64
137952 On ch=2 n=76 v=90
138144 Off ch=2 n=76 v=64
138144 On ch=2 n=69 v=90
138432 Off ch=2 n=69 v=64
138432 On ch=2 n=69 v=90
138528 Off ch=2 n=69 v=64
138528 On ch=2 n=67 v=90
138624 Off ch=2 n=67 v=64
138624 On ch=2 n=69 v=90
138720 Off ch=2 n=69 v=64
138720 On ch=2 n=72 v=90
138912 Off ch=2 n=72 v=64
138912 On ch=2 n=69 v=90
139200 Off ch=2 n=69 v=64
139200 On ch=2 n=69 v=90
139296 Off ch=2 n=69 v=64
139296 On ch=2 n=67 v=90
139392 Off ch=2 n=67 v=64
139392 On ch=2 n=69 v=90
139488 Off ch=2 n=69 v=64
139488 On ch=2 n=72 v=90
139680 Off ch=2 n=72 v=64
139680 On ch=2 n=69 v=90
139968 Off ch=2 n=69 v=64
139968 On ch=2 n=69 v=90
140064 Off ch=2 n=69 v=64
140064 On ch=2 n=67 v=90
140160 Off ch=2 n=67 v=64
140160 On ch=2 n=69 v=90
140256 Off ch=2 n=69 v=64
140256 On ch=2 n=72 v=90
140448 Off ch=2 n=72 v=64
140448 On ch=2 n=69 v=90
140736 Off ch=2 n=69 v=64
140736 On ch=2 n=69 v=90
140832 Off ch=2 n=69 v=64
140832 On ch=2 n=67 v=90
140928 Off ch=2 n=67 v=64
140928 On ch=2 n=69 v=90
141024 Off ch=2 n=69 v=64
141024 On ch=2 n=72 v=90
141216 Off ch=2 n=72 v=64
141216 Meta TrkEnd
TrkEnd
MTrk
0 Meta 0x21 01
0 Meta TrkName "Guitar 1            "
0 PrCh ch=3 p=25
5856 On ch=3 n=64 v=90
6144 Off ch=3 n=64 v=64
12000 On ch=3 n=64 v=90
12288 Off ch=3 n=64 v=64
18144 On ch=3 n=52 v=90
18432 Off ch=3 n=52 v=64
18432 On ch=3 n=52 v=90
18720 Off ch=3 n=52 v=64
24288 On ch=3 n=52 v=90
24576 Off ch=3 n=52 v=64
24576 On ch=3 n=52 v=90
24864 Off ch=3 n=52 v=64
25632 On ch=3 n=64 v=90
26112 Off ch=3 n=64 v=64
26400 On ch=3 n=64 v=90
26976 Off ch=3 n=64 v=64
26976 On ch=3 n=67 v=90
27264 Off ch=3 n=67 v=64
27360 On ch=3 n=64 v=90
27648 Off ch=3 n=64 v=64
28704 On ch=3 n=64 v=90
29184 Off ch=3 n=64 v=64
29472 On ch=3 n=64 v=90
30048 Off ch=3 n=64 v=64
30048 On ch=3 n=67 v=90
30336 Off ch=3 n=67 v=64
30432 On ch=3 n=64 v=90
30720 Off ch=3 n=64 v=64
36672 On ch=3 n=64 v=90
36960 Off ch=3 n=64 v=64
42816 On ch=3 n=64 v=90
43104 Off ch=3 n=64 v=64
49440 On ch=3 n=62 v=90
49632 Off ch=3 n=62 v=64
49632 On ch=3 n=64 v=90
49824 Off ch=3 n=64 v=64
50400 On ch=3 n=69 v=90
50592 Off ch=3 n=69 v=64
51168 On ch=3 n=64 v=90
51360 Off ch=3 n=64 v=64
51648 On ch=3 n=74 v=90
52032 Off ch=3 n=74 v=64
52032 On ch=3 n=74 v=90
52416 Off ch=3 n=74 v=64
52416 On ch=3 n=72 v=90
52512 Off ch=3 n=72 v=64
52704 On ch=3 n=64 v=90
52896 Off ch=3 n=64 v=64
53472 On ch=3 n=69 v=90
53664 Off ch=3 n=69 v=64
54240 On ch=3 n=69 v=90
54432 Off ch=3 n=69 v=64
54720 On ch=3 n=74 v=90
55104 Off ch=3 n=74 v=64
55104 On ch=3 n=74 v=90
55488 Off ch=3 n=74 v=64
55488 On ch=3 n=72 v=90
55584 Off ch=3 n=72 v=64
55776 On ch=3 n=64 v=90
55968 Off ch=3 n=64 v=64
56544 On ch=3 n=69 v=90
56736 Off ch=3 n=69 v=64
57312 On ch=3 n=64 v=90
57504 Off ch=3 n=64 v=64
57792 On ch=3 n=74 v=90
58176 Off ch=3 n=74 v=64
58176 On ch=3 n=74 v=90
58560 Off ch=3 n=74 v=64
58560 On ch=3 n=72 v=90
58656 Off ch=3 n=72 v=64
58848 On ch=3 n=64 v=90
59040 Off ch=3 n=64 v=64
59616 On ch=3 n=69 v=90
59808 Off ch=3 n=69 v=64
60384 On ch=3 n=69 v=90
60576 Off ch=3 n=69 v=64
60864 On ch=3 n=74 v=90
61248 Off ch=3 n=74 v=64
61248 On ch=3 n=74 v=90
61536 Off ch=3 n=74 v=64
61536 On ch=3 n=72 v=90
61920 Off ch=3 n=72 v=64
67776 On ch=3 n=64 v=90
68064 Off ch=3 n=64 v=64
73920 On ch=3 n=64 v=90
74208 Off ch=3 n=64 v=64
80064 On ch=3 n=52 v=90
80352 Off ch=3 n=52 v=64
80352 On ch=3 n=52 v=90
80640 Off ch=3 n=52 v=64
86208 On ch=3 n=52 v=90
86496 Off ch=3 n=52 v=64
86496 On ch=3 n=52 v=90
86784 Off ch=3 n=52 v=64
87552 On ch=3 n=64 v=90
88032 Off ch=3 n=64 v=64
88320 On ch=3 n=64 v=90
88896 Off ch=3 n=64 v=64
88896 On ch=3 n=67 v=90
89184 Off ch=3 n=67 v=64
89280 On ch=3 n=64 v=90
89568 Off ch=3 n=64 v=64
90624 On ch=3 n=64 v=90
91104 Off ch=3 n=64 v=64
91392 On ch=3 n=64 v=90
91968 Off ch=3 n=64 v=64
91968 On ch=3 n=67 v=90
92256 Off ch=3 n=67 v=64
92352 On ch=3 n=64 v=90
92640 Off ch=3 n=64 v=64
93024 On ch=3 n=88 v=90
93072 Off ch=3 n=88 v=64
93072 On ch=3 n=88 v=90
93120 Off ch=3 n=88 v=64
93120 On ch=3 n=86 v=90
93312 Off ch=3 n=86 v=64
93312 On ch=3 n=84 v=90
93600 Off ch=3 n=84 v=64
93600 On ch=3 n=81 v=90
93792 Off ch=3 n=81 v=64
93792 On ch=3 n=81 v=90
93888 Off ch=3 n=81 v=64
93888 On ch=3 n=81 v=90
94080 Off ch=3 n=81 v=64
94080 On ch=3 n=84 v=90
94560 Off ch=3 n=84 v=64
94560 On ch=3 n=88 v=90
94656 Off ch=3 n=88 v=64
94656 On ch=3 n=88 v=90
94752 Off ch=3 n=88 v=64
94752 On ch=3 n=86 v=90
94848 Off ch=3 n=86 v=64
94848 On ch=3 n=86 v=90
94944 Off ch=3 n=86 v=64
94944 On ch=3 n=84 v=90
95040 Off ch=3 n=84 v=64
95040 On ch=3 n=84 v=90
95136 Off ch=3 n=84 v=64
95136 On ch=3 n=81 v=90
95232 Off ch=3 n=81 v=64
95232 On ch=3 n=81 v=90
95328 Off ch=3 n=81 v=64
95328 On ch=3 n=84 v=90
95424 Off ch=3 n=84 v=64
95424 On ch=3 n=84 v=90
95616 Off ch=3 n=84 v=64
95616 On ch=3 n=81 v=90
95792 Off ch=3 n=81 v=64
95792 On ch=3 n=80 v=90
95808 Off ch=3 n=80 v=64
95808 On ch=3 n=79 v=90
96096 Off ch=3 n=79 v=64
98880 On ch=3 n=64 v=90
99168 Off ch=3 n=64 v=64
99168 On ch=3 n=88 v=90
99184 Off ch=3 n=88 v=64
99184 On ch=3 n=91 v=90
99200 Off ch=3 n=91 v=64
99200 On ch=3 n=88 v=90
99216 Off ch=3 n=88 v=64
99216 On ch=3 n=91 v=90
99232 Off ch=3 n=91 v=64
99232 On ch=3 n=88 v=90
99264 Off ch=3 n=88 v=64
99264 On ch=3 n=86 v=90
99280 Off ch=3 n=86 v=64
99280 On ch=3 n=89 v=90
99296 Off ch=3 n=89 v=64
99296 On ch=3 n=86 v=90
99344 Off ch=3 n=86 v=64
99344 On ch=3 n=89 v=90
99360 Off ch=3 n=89 v=64
99360 On ch=3 n=86 v=90
99392 Off ch=3 n=86 v=64
99392 On ch=3 n=89 v=90
99408 Off ch=3 n=89 v=64
99408 On ch=3 n=86 v=90
99440 Off ch=3 n=86 v=64
99440 On ch=3 n=89 v=90
99456 Off ch=3 n=89 v=64
99456 On ch=3 n=84 v=90
99648 Off ch=3 n=84 v=64
99648 On ch=3 n=81 v=90
99680 Off ch=3 n=81 v=64
99680 On ch=3 n=81 v=90
99712 Off ch=3 n=81 v=64
99712 On ch=3 n=81 v=90
99776 Off ch=3 n=81 v=64
99776 On ch=3 n=81 v=90
99808 Off ch=3 n=81 v=64
99808 On ch=3 n=81 v=90
99872 Off ch=3 n=81 v=64
99872 On ch=3 n=81 v=90
99904 Off ch=3 n=81 v=64
99904 On ch=3 n=81 v=90
99968 Off ch=3 n=81 v=64
99968 On ch=3 n=81 v=90
100000 Off ch=3 n=81 v=64
100000 On ch=3 n=81 v=90
100064 Off ch=3 n=81 v=64
100064 On ch=3 n=81 v=90
100096 Off ch=3 n=81 v=64
100096 On ch=3 n=81 v=90
100160 Off ch=3 n=81 v=64
100160 On ch=3 n=81 v=90
100192 Off ch=3 n=81 v=64
100192 On ch=3 n=81 v=90
100224 Off ch=3 n=81 v=64
100224 On ch=3 n=84 v=90
100256 Off ch=3 n=84 v=64
100256 On ch=3 n=84 v=90
100288 Off ch=3 n=84 v=64
100288 On ch=3 n=84 v=90
100352 Off ch=3 n=84 v=64
100352 On ch=3 n=84 v=90
100384 Off ch=3 n=84 v=64
100384 On ch=3 n=84 v=90
100448 Off ch=3 n=84 v=64
100448 On ch=3 n=84 v=90
100480 Off ch=3 n=84 v=64
100480 On ch=3 n=84 v=90
100544 Off ch=3 n=84 v=64
100544 On ch=3 n=84 v=90
100576 Off ch=3 n=84 v=64
100576 On ch=3 n=84 v=90
100608 Off ch=3 n=84 v=64
100608 On ch=3 n=81 v=90
100704 Off ch=3 n=81 v=64
100704 On ch=3 n=88 v=90
100800 Off ch=3 n=88 v=64
100800 On ch=3 n=88 v=90
100896 Off ch=3 n=88 v=64
100896 On ch=3 n=86 v=90
100992 Off ch=3 n=86 v=64
100992 On ch=3 n=84 v=90
101280 Off ch=3 n=84 v=64
101280 On ch=3 n=81 v=90
101344 Off ch=3 n=81 v=64
101344 On ch=3 n=81 v=90
101408 Off ch=3 n=81 v=64
101408 On ch=3 n=81 v=90
101472 Off ch=3 n=81 v=64
101472 On ch=3 n=84 v=90
101568 Off ch=3 n=84 v=64
101568 On ch=3 n=84 v=90
101760 Off ch=3 n=84 v=64
101760 On ch=3 n=81 v=90
101952 Off ch=3 n=81 v=64
101952 On ch=3 n=80 v=90
101968 Off ch=3 n=80 v=64
101968 On ch=3 n=79 v=90
102240 Off ch=3 n=79 v=64
102240 On ch=3 n=57 v=90
102528 Off ch=3 n=57 v=64
102528 On ch=3 n=64 v=90
102624 Off ch=3 n=64 v=64
102624 On ch=3 n=67 v=90
102720 Off ch=3 n=67 v=64
102720 On ch=3 n=68 v=90
102816 Off ch=3 n=68 v=64
102816 On ch=3 n=69 v=90
102912 Off ch=3 n=69 v=64
102912 On ch=3 n=64 v=90
103008 Off ch=3 n=64 v=64
103008 On ch=3 n=72 v=90
103200 Off ch=3 n=72 v=64
103200 On ch=3 n=69 v=90
103392 Off ch=3 n=69 v=64
103392 On ch=3 n=74 v=90
103488 Off ch=3 n=74 v=64
103488 On ch=3 n=76 v=90
103584 Off ch=3 n=76 v=64
103584 On ch=3 n=72 v=90
103648 Off ch=3 n=72 v=64
103648 On ch=3 n=74 v=90
103712 Off ch=3 n=74 v=64
103712 On ch=3 n=72 v=90
103776 Off ch=3 n=72 v=64
103776 On ch=3 n=69 v=90
103872 Off ch=3 n=69 v=64
103872 On ch=3 n=69 v=90
103968 Off ch=3 n=69 v=64
103968 On ch=3 n=72 v=90
104160 Off ch=3 n=72 v=64
104160 On ch=3 n=69 v=90
104352 Off ch=3 n=69 v=64
104352 On ch=3 n=67 v=90
104448 Off ch=3 n=67 v=64
104448 On ch=3 n=69 v=90
104544 Off ch=3 n=69 v=64
104544 On ch=3 n=69 v=90
104640 Off ch=3 n=69 v=64
104640 On ch=3 n=62 v=90
104736 Off ch=3 n=62 v=64
104736 On ch=3 n=64 v=90
104832 Off ch=3 n=64 v=64
104832 On ch=3 n=60 v=90
104928 Off ch=3 n=60 v=64
104928 On ch=3 n=62 v=90
105024 Off ch=3 n=62 v=64
105024 On ch=3 n=64 v=90
105312 Off ch=3 n=64 v=64
105312 On ch=3 n=84 v=90
105696 Off ch=3 n=84 v=64
105696 On ch=3 n=81 v=90
106080 Off ch=3 n=81 v=64
106080 On ch=3 n=84 v=90
106464 Off ch=3 n=84 v=64
106464 On ch=3 n=86 v=90
106848 Off ch=3 n=86 v=64
106848 On ch=3 n=84 v=90
107232 Off ch=3 n=84 v=64
107232 On ch=3 n=81 v=90
107616 Off ch=3 n=81 v=64
107616 On ch=3 n=84 v=90
108000 Off ch=3 n=84 v=64
108000 On ch=3 n=86 v=90
108384 Off ch=3 n=86 v=64
108384 On ch=3 n=84 v=90
108768 Off ch=3 n=84 v=64
108768 On ch=3 n=81 v=90
109152 Off ch=3 n=81 v=64
109152 On ch=3 n=84 v=90
109536 Off ch=3 n=84 v=64
109536 On ch=3 n=86 v=90
109920 Off ch=3 n=86 v=64
109920 On ch=3 n=84 v=90
111648 Off ch=3 n=84 v=64
111648 On ch=3 n=81 v=90
111840 Off ch=3 n=81 v=64
111840 On ch=3 n=81 v=90
112032 Off ch=3 n=81 v=64
112032 On ch=3 n=77 v=90
112416 Off ch=3 n=77 v=64
112416 On ch=3 n=81 v=90
112608 Off ch=3 n=81 v=64
112608 On ch=3 n=81 v=90
112800 Off ch=3 n=81 v=64
112800 On ch=3 n=77 v=90
113184 Off ch=3 n=77 v=64
113184 On ch=3 n=81 v=90
113280 Off ch=3 n=81 v=64
113280 On ch=3 n=81 v=90
113376 Off ch=3 n=81 v=64
113376 On ch=3 n=81 v=90
113568 Off ch=3 n=81 v=64
113568 On ch=3 n=77 v=90
113760 Off ch=3 n=77 v=64
113760 On ch=3 n=86 v=90
113856 Off ch=3 n=86 v=64
113856 On ch=3 n=86 v=90
113952 Off ch=3 n=86 v=64
113952 On ch=3 n=86 v=90
114048 Off ch=3 n=86 v=64
114048 On ch=3 n=88 v=90
114144 Off ch=3 n=88 v=64
114144 On ch=3 n=84 v=90
114240 Off ch=3 n=84 v=64
114240 On ch=3 n=83 v=90
114336 Off ch=3 n=83 v=64
114336 On ch=3 n=81 v=90
114432 Off ch=3 n=81 v=64
114432 On ch=3 n=83 v=90
114624 Off ch=3 n=83 v=64
114624 On ch=3 n=72 v=90
114720 Off ch=3 n=72 v=64
114912 On ch=3 n=64 v=90
115104 Off ch=3 n=64 v=64
115680 On ch=3 n=69 v=90
115872 Off ch=3 n=69 v=64
116448 On ch=3 n=69 v=90
116640 Off ch=3 n=69 v=64
116928 On ch=3 n=74 v=90
117312 Off ch=3 n=74 v=64
117312 On ch=3 n=74 v=90
117696 Off ch=3 n=74 v=64
117696 On ch=3 n=72 v=90
117792 Off ch=3 n=72 v=64
117984 On ch=3 n=64 v=90
118176 Off ch=3 n=64 v=64
118752 On ch=3 n=69 v=90
118944 Off ch=3 n=69 v=64
119520 On ch=3 n=64 v=90
119712 Off ch=3 n=64 v=64
120000 On ch=3 n=74 v=90
120384 Off ch=3 n=74 v=64
120384 On ch=3 n=74 v=90
120768 Off ch=3 n=74 v=64
120768 On ch=3 n=72 v=90
120864 Off ch=3 n=72 v=64
121056 On ch=3 n=64 v=90
121248 Off ch=3 n=64 v=64
121824 On ch=3 n=69 v=90
122016 Off ch=3 n=69 v=64
122592 On ch=3 n=69 v=90
122784 Off ch=3 n=69 v=64
123072 On ch=3 n=74 v=90
123456 Off ch=3 n=74 v=64
123456 On ch=3 n=74 v=90
123744 Off ch=3 n=74 v=64
123744 On ch=3 n=72 v=90
123936 Off ch=3 n=72 v=64
124128 On ch=3 n=64 v=90
124320 Off ch=3 n=64 v=64
124896 On ch=3 n=69 v=90
125088 Off ch=3 n=69 v=64
125664 On ch=3 n=64 v=90
125856 Off ch=3 n=64 v=64
126144 On ch=3 n=74 v=90
126528 Off ch=3 n=74 v=64
126528 On ch=3 n=74 v=90
126912 Off ch=3 n=74 v=64
126912 On ch=3 n=72 v=90
127008 Off ch=3 n=72 v=64
127200 On ch=3 n=64 v=90
127392 Off ch=3 n=64 v=64
127968 On ch=3 n=69 v=90
128160 Off ch=3 n=69 v=64
128736 On ch=3 n=69 v=90
128928 Off ch=3 n=69 v=64
129216 On ch=3 n=74 v=90
129600 Off ch=3 n=74 v=64
129600 On ch=3 n=74 v=90
129888 Off ch=3 n=74 v=64
129888 On ch=3 n=72 v=90
130080 Off ch=3 n=72 v=64
130272 On ch=3 n=64 v=90
130464 Off ch=3 n=64 v=64
131040 On ch=3 n=69 v=90
131232 Off ch=3 n=69 v=64
131808 On ch=3 n=64 v=90
132000 Off ch=3 n=64 v=64
132288 On ch=3 n=74 v=90
132672 Off ch=3 n=74 v=64
132672 On ch=3 n=74 v=90
133056 Off ch=3 n=74 v=64
133056 On ch=3 n=72 v=90
133152 Off ch=3 n=72 v=64
133344 On ch=3 n=64 v=90
133536 Off ch=3 n=64 v=64
134112 On ch=3 n=69 v=90
134304 Off ch=3 n=69 v=64
134880 On ch=3 n=69 v=90
135072 Off ch=3 n=69 v=64
135360 On ch=3 n=74 v=90
135744 Off ch=3 n=74 v=64
135744 On ch=3 n=74 v=90
136032 Off ch=3 n=74 v=64
136032 On ch=3 n=72 v=90
136224 Off ch=3 n=72 v=64
136800 On ch=3 n=69 v=90
136992 Off ch=3 n=69 v=64
137280 On ch=3 n=74 v=90
137664 Off ch=3 n=74 v=64
137664 On ch=3 n=74 v=90
137952 Off ch=3 n=74 v=64
137952 On ch=3 n=72 v=90
138144 Off ch=3 n=72 v=64
138720 On ch=3 n=69 v=90
138912 Off ch=3 n=69 v=64
139488 On ch=3 n=69 v=90
139680 Off ch=3 n=69 v=64
140256 On ch=3 n=69 v=90
140448 Off ch=3 n=69 v=64
141024 On ch=3 n=69 v=90
141216 Off ch=3 n=69 v=64
141216 Meta TrkEnd
TrkEnd
MTrk
0 Meta 0x21 00
0 Meta TrkName "Guitar 2            "
0 PrCh ch=4 p=5
25056 On ch=4 n=81 v=90
25344 Off ch=4 n=81 v=64
25344 On ch=4 n=77 v=90
25728 Off ch=4 n=77 v=64
25824 On ch=4 n=81 v=90
26112 Off ch=4 n=81 v=64
26112 On ch=4 n=77 v=90
26496 Off ch=4 n=77 v=64
26592 On ch=4 n=88 v=90
26880 Off ch=4 n=88 v=64
26976 On ch=4 n=86 v=90
27264 Off ch=4 n=86 v=64
27360 On ch=4 n=84 v=90
27456 Off ch=4 n=84 v=64
27456 On ch=4 n=81 v=90
28032 Off ch=4 n=81 v=64
28128 On ch=4 n=81 v=90
28416 Off ch=4 n=81 v=64
28416 On ch=4 n=77 v=90
28800 Off ch=4 n=77 v=64
28896 On ch=4 n=81 v=90
29184 Off ch=4 n=81 v=64
29184 On ch=4 n=77 v=90
29568 Off ch=4 n=77 v=64
29664 On ch=4 n=88 v=90
29952 Off ch=4 n=88 v=64
30048 On ch=4 n=86 v=90
30336 Off ch=4 n=86 v=64
30432 On ch=4 n=84 v=90
30528 Off ch=4 n=84 v=64
30528 On ch=4 n=81 v=90
31104 Off ch=4 n=81 v=64
43104 On ch=4 n=84 v=90
43488 Off ch=4 n=84 v=64
43488 On ch=4 n=81 v=90
43872 Off ch=4 n=81 v=64
43872 On ch=4 n=84 v=90
44256 Off ch=4 n=84 v=64
44256 On ch=4 n=86 v=90
44640 Off ch=4 n=86 v=64
44640 On ch=4 n=84 v=90
45024 Off ch=4 n=84 v=64
45024 On ch=4 n=81 v=90
45408 Off ch=4 n=81 v=64
45408 On ch=4 n=84 v=90
45792 Off ch=4 n=84 v=64
45792 On ch=4 n=86 v=90
46176 Off ch=4 n=86 v=64
46176 On ch=4 n=84 v=90
46560 Off ch=4 n=84 v=64
46560 On ch=4 n=81 v=90
46944 Off ch=4 n=81 v=64
46944 On ch=4 n=84 v=90
47328 Off ch=4 n=84 v=64
47328 On ch=4 n=86 v=90
47712 Off ch=4 n=86 v=64
47712 On ch=4 n=84 v=90
49440 Off ch=4 n=84 v=64
49440 On ch=4 n=81 v=90
49632 Off ch=4 n=81 v=64
49632 On ch=4 n=81 v=90
49824 Off ch=4 n=81 v=64
49824 On ch=4 n=77 v=90
50208 Off ch=4 n=77 v=64
50208 On ch=4 n=81 v=90
50400 Off ch=4 n=81 v=64
50400 On ch=4 n=81 v=90
50592 Off ch=4 n=81 v=64
50592 On ch=4 n=77 v=90
50976 Off ch=4 n=77 v=64
50976 On ch=4 n=81 v=90
51072 Off ch=4 n=81 v=64
51072 On ch=4 n=81 v=90
51168 Off ch=4 n=81 v=64
51168 On ch=4 n=81 v=90
51360 Off ch=4 n=81 v=64
51360 On ch=4 n=77 v=90
51552 Off ch=4 n=77 v=64
51552 On ch=4 n=86 v=90
51648 Off ch=4 n=86 v=64
51648 On ch=4 n=86 v=90
51744 Off ch=4 n=86 v=64
51744 On ch=4 n=86 v=90
51840 Off ch=4 n=86 v=64
51840 On ch=4 n=88 v=90
51936 Off ch=4 n=88 v=64
51936 On ch=4 n=84 v=90
52032 Off ch=4 n=84 v=64
52032 On ch=4 n=83 v=90
52128 Off ch=4 n=83 v=64
52128 On ch=4 n=81 v=90
52224 Off ch=4 n=81 v=64
52224 On ch=4 n=83 v=90
52416 Off ch=4 n=83 v=64
55584 On ch=4 n=81 v=90
55776 Off ch=4 n=81 v=64
55776 On ch=4 n=81 v=90
55968 Off ch=4 n=81 v=64
55968 On ch=4 n=77 v=90
56352 Off ch=4 n=77 v=64
56352 On ch=4 n=81 v=90
56544 Off ch=4 n=81 v=64
56544 On ch=4 n=81 v=90
56736 Off ch=4 n=81 v=64
56736 On ch=4 n=77 v=90
57120 Off ch=4 n=77 v=64
57120 On ch=4 n=81 v=90
57216 Off ch=4 n=81 v=64
57216 On ch=4 n=81 v=90
57312 Off ch=4 n=81 v=64
57312 On ch=4 n=81 v=90
57504 Off ch=4 n=81 v=64
57504 On ch=4 n=77 v=90
57696 Off ch=4 n=77 v=64
57696 On ch=4 n=86 v=90
57792 Off ch=4 n=86 v=64
57792 On ch=4 n=86 v=90
57888 Off ch=4 n=86 v=64
57888 On ch=4 n=86 v=90
57984 Off ch=4 n=86 v=64
57984 On ch=4 n=88 v=90
58080 Off ch=4 n=88 v=64
58080 On ch=4 n=84 v=90
58176 Off ch=4 n=84 v=64
58176 On ch=4 n=83 v=90
58272 Off ch=4 n=83 v=64
58272 On ch=4 n=81 v=90
58368 Off ch=4 n=81 v=64
58368 On ch=4 n=83 v=90
58560 Off ch=4 n=83 v=64
61728 On ch=4 n=81 v=90
61824 Off ch=4 n=81 v=64
61824 On ch=4 n=81 v=90
61920 Off ch=4 n=81 v=64
61920 On ch=4 n=88 v=90
62016 Off ch=4 n=88 v=64
62016 On ch=4 n=86 v=90
62208 Off ch=4 n=86 v=64
62208 On ch=4 n=83 v=90
62496 Off ch=4 n=83 v=64
62496 On ch=4 n=79 v=90
62688 Off ch=4 n=79 v=64
62688 On ch=4 n=81 v=90
62784 Off ch=4 n=81 v=64
62784 On ch=4 n=81 v=90
62976 Off ch=4 n=81 v=64
62976 On ch=4 n=84 v=90
63360 Off ch=4 n=84 v=64
63360 On ch=4 n=81 v=90
63456 Off ch=4 n=81 v=64
63456 On ch=4 n=88 v=90
63552 Off ch=4 n=88 v=64
63552 On ch=4 n=86 v=90
63744 Off ch=4 n=86 v=64
63744 On ch=4 n=84 v=90
64032 Off ch=4 n=84 v=64
64032 On ch=4 n=81 v=90
64224 Off ch=4 n=81 v=64
64224 On ch=4 n=84 v=90
64320 Off ch=4 n=84 v=64
64320 On ch=4 n=84 v=90
64512 Off ch=4 n=84 v=64
64512 On ch=4 n=81 v=90
64704 Off ch=4 n=81 v=64
64704 On ch=4 n=81 v=90
64992 Off ch=4 n=81 v=64
65280 On ch=4 n=64 v=90
65376 Off ch=4 n=64 v=64
65376 On ch=4 n=67 v=90
65472 Off ch=4 n=67 v=64
65472 On ch=4 n=68 v=90
65568 Off ch=4 n=68 v=64
65568 On ch=4 n=69 v=90
65664 Off ch=4 n=69 v=64
65664 On ch=4 n=64 v=90
65760 Off ch=4 n=64 v=64
65760 On ch=4 n=72 v=90
65952 Off ch=4 n=72 v=64
65952 On ch=4 n=69 v=90
66144 Off ch=4 n=69 v=64
66144 On ch=4 n=74 v=90
66240 Off ch=4 n=74 v=64
66240 On ch=4 n=76 v=90
66336 Off ch=4 n=76 v=64
66336 On ch=4 n=72 v=90
66400 Off ch=4 n=72 v=64
66400 On ch=4 n=74 v=90
66464 Off ch=4 n=74 v=64
66464 On ch=4 n=72 v=90
66528 Off ch=4 n=72 v=64
66528 On ch=4 n=69 v=90
66624 Off ch=4 n=69 v=64
66624 On ch=4 n=69 v=90
66720 Off ch=4 n=69 v=64
66720 On ch=4 n=72 v=90
66912 Off ch=4 n=72 v=64
66912 On ch=4 n=69 v=90
67104 Off ch=4 n=69 v=64
67104 On ch=4 n=67 v=90
67200 Off ch=4 n=67 v=64
67200 On ch=4 n=69 v=90
67296 Off ch=4 n=69 v=64
67296 On ch=4 n=69 v=90
67392 Off ch=4 n=69 v=64
67392 On ch=4 n=62 v=90
67488 Off ch=4 n=62 v=64
67488 On ch=4 n=64 v=90
67584 Off ch=4 n=64 v=64
67584 On ch=4 n=60 v=90
67680 Off ch=4 n=60 v=64
67680 On ch=4 n=62 v=90
67776 Off ch=4 n=62 v=64
67776 On ch=4 n=57 v=90
68064 Off ch=4 n=57 v=64
68064 On ch=4 n=88 v=90
68256 Off ch=4 n=88 v=64
68256 On ch=4 n=86 v=90
68352 Off ch=4 n=86 v=64
68352 On ch=4 n=84 v=90
68544 Off ch=4 n=84 v=64
68544 On ch=4 n=81 v=90
68832 Off ch=4 n=81 v=64
68832 On ch=4 n=81 v=90
68928 Off ch=4 n=81 v=64
68928 On ch=4 n=81 v=90
69120 Off ch=4 n=81 v=64
69120 On ch=4 n=84 v=90
69408 Off ch=4 n=84 v=64
69408 On ch=4 n=81 v=90
69504 Off ch=4 n=81 v=64
69504 On ch=4 n=81 v=90
69600 Off ch=4 n=81 v=64
69600 On ch=4 n=88 v=90
69696 Off ch=4 n=88 v=64
69696 On ch=4 n=88 v=90
69792 Off ch=4 n=88 v=64
69792 On ch=4 n=86 v=90
69888 Off ch=4 n=86 v=64
69888 On ch=4 n=83 v=90
69984 Off ch=4 n=83 v=64
69984 On ch=4 n=83 v=90
70080 Off ch=4 n=83 v=64
70080 On ch=4 n=81 v=90
70176 Off ch=4 n=81 v=64
70176 On ch=4 n=81 v=90
70272 Off ch=4 n=81 v=64
70272 On ch=4 n=81 v=90
70368 Off ch=4 n=81 v=64
70368 On ch=4 n=84 v=90
70464 Off ch=4 n=84 v=64
70464 On ch=4 n=84 v=90
70656 Off ch=4 n=84 v=64
70656 On ch=4 n=81 v=90
71136 Off ch=4 n=81 v=64
74208 On ch=4 n=81 v=90
74304 Off ch=4 n=81 v=64
74304 On ch=4 n=81 v=90
74496 Off ch=4 n=81 v=64
74496 On ch=4 n=81 v=90
74880 Off ch=4 n=81 v=64
74880 On ch=4 n=79 v=90
74976 Off ch=4 n=79 v=64
74976 On ch=4 n=81 v=90
75072 Off ch=4 n=81 v=64
75072 On ch=4 n=81 v=90
75264 Off ch=4 n=81 v=64
75264 On ch=4 n=81 v=90
75648 Off ch=4 n=81 v=64
75648 On ch=4 n=81 v=90
75744 Off ch=4 n=81 v=64
75744 On ch=4 n=84 v=90
75856 Off ch=4 n=84 v=64
75856 On ch=4 n=84 v=90
76032 Off ch=4 n=84 v=64
76032 On ch=4 n=84 v=90
76224 Off ch=4 n=84 v=64
76224 On ch=4 n=81 v=90
76320 Off ch=4 n=81 v=64
76320 On ch=4 n=81 v=90
76512 Off ch=4 n=81 v=64
76512 On ch=4 n=84 v=90
76608 Off ch=4 n=84 v=64
76608 On ch=4 n=84 v=90
76800 Off ch=4 n=84 v=64
76800 On ch=4 n=81 v=90
77280 Off ch=4 n=81 v=64
86976 On ch=4 n=81 v=90
87264 Off ch=4 n=81 v=64
87264 On ch=4 n=77 v=90
87648 Off ch=4 n=77 v=64
87744 On ch=4 n=81 v=90
88032 Off ch=4 n=81 v=64
88032 On ch=4 n=77 v=90
88416 Off ch=4 n=77 v=64
88512 On ch=4 n=88 v=90
88800 Off ch=4 n=88 v=64
88896 On ch=4 n=86 v=90
89184 Off ch=4 n=86 v=64
89280 On ch=4 n=84 v=90
89376 Off ch=4 n=84 v=64
89376 On ch=4 n=81 v=90
89952 Off ch=4 n=81 v=64
90048 On ch=4 n=81 v=90
90336 Off ch=4 n=81 v=64
90336 On ch=4 n=77 v=90
90720 Off ch=4 n=77 v=64
90816 On ch=4 n=81 v=90
91104 Off ch=4 n=81 v=64
91104 On ch=4 n=77 v=90
91488 Off ch=4 n=77 v=64
91584 On ch=4 n=88 v=90
91872 Off ch=4 n=88 v=64
91968 On ch=4 n=86 v=90
92256 Off ch=4 n=86 v=64
92352 On ch=4 n=84 v=90
92448 Off ch=4 n=84 v=64
92448 On ch=4 n=81 v=90
93024 Off ch=4 n=81 v=64
99168 On ch=4 n=88 v=90
99264 Off ch=4 n=88 v=64
99264 On ch=4 n=86 v=90
99456 Off ch=4 n=86 v=64
99456 On ch=4 n=84 v=90
99648 Off ch=4 n=84 v=64
99648 On ch=4 n=81 v=90
99744 Off ch=4 n=81 v=64
99744 On ch=4 n=81 v=90
99840 Off ch=4 n=81 v=64
99840 On ch=4 n=81 v=90
99936 Off ch=4 n=81 v=64
99936 On ch=4 n=81 v=90
100032 Off ch=4 n=81 v=64
100032 On ch=4 n=81 v=90
100224 Off ch=4 n=81 v=64
100224 On ch=4 n=84 v=90
100608 Off ch=4 n=84 v=64
100608 On ch=4 n=81 v=90
100704 Off ch=4 n=81 v=64
100704 On ch=4 n=88 v=90
100800 Off ch=4 n=88 v=64
100800 On ch=4 n=88 v=90
100896 Off ch=4 n=88 v=64
100896 On ch=4 n=86 v=90
100992 Off ch=4 n=86 v=64
100992 On ch=4 n=84 v=90
101280 Off ch=4 n=84 v=64
101280 On ch=4 n=81 v=90
101344 Off ch=4 n=81 v=64
101344 On ch=4 n=81 v=90
101408 Off ch=4 n=81 v=64
101408 On ch=4 n=81 v=90
101472 Off ch=4 n=81 v=64
101472 On ch=4 n=84 v=90
101568 Off ch=4 n=84 v=64
101568 On ch=4 n=84 v=90
101760 Off ch=4 n=84 v=64
101760 On ch=4 n=81 v=90
101952 Off ch=4 n=81 v=64
101952 On ch=4 n=80 v=90
101968 Off ch=4 n=80 v=64
101968 On ch=4 n=79 v=90
102240 Off ch=4 n=79 v=64
105312 On ch=4 n=84 v=90
105696 Off ch=4 n=84 v=64
105696 On ch=4 n=81 v=90
106080 Off ch=4 n=81 v=64
106080 On ch=4 n=84 v=90
106464 Off ch=4 n=84 v=64
106464 On ch=4 n=86 v=90
106848 Off ch=4 n=86 v=64
106848 On ch=4 n=84 v=90
107232 Off ch=4 n=84 v=64
107232 On ch=4 n=81 v=90
107616 Off ch=4 n=81 v=64
107616 On ch=4 n=84 v=90
108000 Off ch=4 n=84 v=64
108000 On ch=4 n=86 v=90
108384 Off ch=4 n=86 v=64
108384 On ch=4 n=84 v=90
108768 Off ch=4 n=84 v=64
108768 On ch=4 n=81 v=90
109152 Off ch=4 n=81 v=64
109152 On ch=4 n=84 v=90
109536 Off ch=4 n=84 v=64
109536 On ch=4 n=86 v=90
109920 Off ch=4 n=86 v=64
109920 On ch=4 n=84 v=90
111648 Off ch=4 n=84 v=64
111648 On ch=4 n=81 v=90
111840 Off ch=4 n=81 v=64
111840 On ch=4 n=81 v=90
112032 Off ch=4 n=81 v=64
112032 On ch=4 n=77 v=90
112416 Off ch=4 n=77 v=64
112416 On ch=4 n=81 v=90
112608 Off ch=4 n=81 v=64
112608 On ch=4 n=81 v=90
112800 Off ch=4 n=81 v=64
112800 On ch=4 n=77 v=90
113184 Off ch=4 n=77 v=64
113184 On ch=4 n=81 v=90
113280 Off ch=4 n=81 v=64
113280 On ch=4 n=81 v=90
113376 Off ch=4 n=81 v=64
113376 On ch=4 n=81 v=90
113568 Off ch=4 n=81 v=64
113568 On ch=4 n=77 v=90
113760 Off ch=4 n=77 v=64
113760 On ch=4 n=86 v=90
113856 Off ch=4 n=86 v=64
113856 On ch=4 n=86 v=90
113952 Off ch=4 n=86 v=64
113952 On ch=4 n=86 v=90
114048 Off ch=4 n=86 v=64
114048 On ch=4 n=88 v=90
114144 Off ch=4 n=88 v=64
114144 On ch=4 n=84 v=90
114240 Off ch=4 n=84 v=64
114240 On ch=4 n=83 v=90
114336 Off ch=4 n=83 v=64
114336 On ch=4 n=81 v=90
114432 Off ch=4 n=81 v=64
114432 On ch=4 n=83 v=90
114624 Off ch=4 n=83 v=64
114720 On ch=4 n=64 v=90
114816 Off ch=4 n=64 v=64
114816 On ch=4 n=67 v=90
114912 Off ch=4 n=67 v=64
114912 On ch=4 n=69 v=90
115104 Off ch=4 n=69 v=64
115104 On ch=4 n=65 v=90
115392 Off ch=4 n=65 v=64
115392 On ch=4 n=69 v=90
115488 Off ch=4 n=69 v=64
115488 On ch=4 n=67 v=90
115584 Off ch=4 n=67 v=64
115584 On ch=4 n=69 v=90
115680 Off ch=4 n=69 v=64
115680 On ch=4 n=72 v=90
115872 Off ch=4 n=72 v=64
115872 On ch=4 n=69 v=90
116160 Off ch=4 n=69 v=64
116160 On ch=4 n=69 v=90
116256 Off ch=4 n=69 v=64
116256 On ch=4 n=67 v=90
116352 Off ch=4 n=67 v=64
116352 On ch=4 n=69 v=90
116448 Off ch=4 n=69 v=64
116448 On ch=4 n=72 v=90
116640 Off ch=4 n=72 v=64
116640 On ch=4 n=65 v=90
116928 Off ch=4 n=65 v=64
116928 On ch=4 n=79 v=90
117312 Off ch=4 n=79 v=64
117312 On ch=4 n=77 v=90
117696 Off ch=4 n=77 v=64
117696 On ch=4 n=76 v=90
117792 Off ch=4 n=76 v=64
117792 On ch=4 n=81 v=90
117984 Off ch=4 n=81 v=64
117984 On ch=4 n=81 v=90
118176 Off ch=4 n=81 v=64
118176 On ch=4 n=77 v=90
118560 Off ch=4 n=77 v=64
118560 On ch=4 n=81 v=90
118752 Off ch=4 n=81 v=64
118752 On ch=4 n=81 v=90
118944 Off ch=4 n=81 v=64
118944 On ch=4 n=77 v=90
119328 Off ch=4 n=77 v=64
119328 On ch=4 n=81 v=90
119424 Off ch=4 n=81 v=64
119424 On ch=4 n=81 v=90
119520 Off ch=4 n=81 v=64
119520 On ch=4 n=81 v=90
119712 Off ch=4 n=81 v=64
119712 On ch=4 n=77 v=90
119904 Off ch=4 n=77 v=64
119904 On ch=4 n=86 v=90
120000 Off ch=4 n=86 v=64
120000 On ch=4 n=86 v=90
120096 Off ch=4 n=86 v=64
120096 On ch=4 n=86 v=90
120192 Off ch=4 n=86 v=64
120192 On ch=4 n=88 v=90
120288 Off ch=4 n=88 v=64
120288 On ch=4 n=84 v=90
120384 Off ch=4 n=84 v=64
120384 On ch=4 n=83 v=90
120480 Off ch=4 n=83 v=64
120480 On ch=4 n=81 v=90
120576 Off ch=4 n=81 v=64
120576 On ch=4 n=83 v=90
120768 Off ch=4 n=83 v=64
120768 On ch=4 n=76 v=90
120864 Off ch=4 n=76 v=64
120864 On ch=4 n=64 v=90
120960 Off ch=4 n=64 v=64
120960 On ch=4 n=67 v=90
121056 Off ch=4 n=67 v=64
121056 On ch=4 n=69 v=90
121248 Off ch=4 n=69 v=64
121248 On ch=4 n=65 v=90
121536 Off ch=4 n=65 v=64
121536 On ch=4 n=69 v=90
121632 Off ch=4 n=69 v=64
121632 On ch=4 n=67 v=90
121728 Off ch=4 n=67 v=64
121728 On ch=4 n=69 v=90
121824 Off ch=4 n=69 v=64
121824 On ch=4 n=72 v=90
122016 Off ch=4 n=72 v=64
122016 On ch=4 n=69 v=90
122304 Off ch=4 n=69 v=64
122304 On ch=4 n=69 v=90
122400 Off ch=4 n=69 v=64
122400 On ch=4 n=67 v=90
122496 Off ch=4 n=67 v=64
122496 On ch=4 n=69 v=90
122592 Off ch=4 n=69 v=64
122592 On ch=4 n=72 v=90
122784 Off ch=4 n=72 v=64
122784 On ch=4 n=65 v=90
123072 Off ch=4 n=65 v=64
123072 On ch=4 n=79 v=90
123456 Off ch=4 n=79 v=64
123456 On ch=4 n=77 v=90
123744 Off ch=4 n=77 v=64
123744 On ch=4 n=76 v=90
123936 Off ch=4 n=76 v=64
123936 On ch=4 n=75 v=90
123984 Off ch=4 n=75 v=64
123984 On ch=4 n=78 v=90
124032 Off ch=4 n=78 v=64
124032 On ch=4 n=81 v=90
124128 Off ch=4 n=81 v=64
124128 On ch=4 n=81 v=90
124320 Off ch=4 n=81 v=64
124320 On ch=4 n=79 v=90
124368 Off ch=4 n=79 v=64
124368 On ch=4 n=77 v=90
124416 Off ch=4 n=77 v=64
124416 On ch=4 n=74 v=90
124464 Off ch=4 n=74 v=64
124464 On ch=4 n=77 v=90
124704 Off ch=4 n=77 v=64
124704 On ch=4 n=81 v=90
124752 Off ch=4 n=81 v=64
124752 On ch=4 n=84 v=90
124800 Off ch=4 n=84 v=64
124800 On ch=4 n=78 v=90
124848 Off ch=4 n=78 v=64
124848 On ch=4 n=81 v=90
124896 Off ch=4 n=81 v=64
124896 On ch=4 n=81 v=90
125088 Off ch=4 n=81 v=64
125088 On ch=4 n=84 v=90
125136 Off ch=4 n=84 v=64
125136 On ch=4 n=87 v=90
125184 Off ch=4 n=87 v=64
125184 On ch=4 n=89 v=90
125280 Off ch=4 n=89 v=64
125376 On ch=4 n=74 v=90
125424 Off ch=4 n=74 v=64
125424 On ch=4 n=77 v=90
125472 Off ch=4 n=77 v=64
125472 On ch=4 n=84 v=90
125520 Off ch=4 n=84 v=64
125568 On ch=4 n=81 v=90
125664 Off ch=4 n=81 v=64
125664 On ch=4 n=81 v=90
125856 Off ch=4 n=81 v=64
125856 On ch=4 n=77 v=90
126048 Off ch=4 n=77 v=64
126048 On ch=4 n=86 v=90
126096 Off ch=4 n=86 v=64
126144 On ch=4 n=79 v=90
126192 Off ch=4 n=79 v=64
126240 On ch=4 n=86 v=90
126336 Off ch=4 n=86 v=64
126336 On ch=4 n=88 v=90
126432 Off ch=4 n=88 v=64
126432 On ch=4 n=84 v=90
126528 Off ch=4 n=84 v=64
126528 On ch=4 n=83 v=90
126624 Off ch=4 n=83 v=64
126624 On ch=4 n=81 v=90
126720 Off ch=4 n=81 v=64
126720 On ch=4 n=83 v=90
126912 Off ch=4 n=83 v=64
126912 On ch=4 n=88 v=90
127008 Off ch=4 n=88 v=64
127008 On ch=4 n=76 v=90
127104 Off ch=4 n=76 v=64
127104 On ch=4 n=79 v=90
127200 Off ch=4 n=79 v=64
127200 On ch=4 n=81 v=90
127392 Off ch=4 n=81 v=64
127392 On ch=4 n=77 v=90
127680 Off ch=4 n=77 v=64
127680 On ch=4 n=81 v=90
127776 Off ch=4 n=81 v=64
127776 On ch=4 n=79 v=90
127872 Off ch=4 n=79 v=64
127872 On ch=4 n=81 v=90
127968 Off ch=4 n=81 v=64
127968 On ch=4 n=84 v=90
128160 Off ch=4 n=84 v=64
128160 On ch=4 n=81 v=90
128448 Off ch=4 n=81 v=64
128448 On ch=4 n=81 v=90
128544 Off ch=4 n=81 v=64
128544 On ch=4 n=79 v=90
128640 Off ch=4 n=79 v=64
128640 On ch=4 n=81 v=90
128736 Off ch=4 n=81 v=64
128736 On ch=4 n=84 v=90
128928 Off ch=4 n=84 v=64
128928 On ch=4 n=77 v=90
129216 Off ch=4 n=77 v=64
129216 On ch=4 n=91 v=90
129600 Off ch=4 n=91 v=64
129600 On ch=4 n=89 v=90
129888 Off ch=4 n=89 v=64
129888 On ch=4 n=88 v=90
130080 Off ch=4 n=88 v=64
130080 On ch=4 n=75 v=90
130128 Off ch=4 n=75 v=64
130128 On ch=4 n=78 v=90
130176 Off ch=4 n=78 v=64
130176 On ch=4 n=81 v=90
130272 Off ch=4 n=81 v=64
130272 On ch=4 n=81 v=90
130464 Off ch=4 n=81 v=64
130464 On ch=4 n=79 v=90
130512 Off ch=4 n=79 v=64
130512 On ch=4 n=77 v=90
130560 Off ch=4 n=77 v=64
130560 On ch=4 n=74 v=90
130608 Off ch=4 n=74 v=64
130608 On ch=4 n=77 v=90
130848 Off ch=4 n=77 v=64
130848 On ch=4 n=81 v=90
130896 Off ch=4 n=81 v=64
130896 On ch=4 n=84 v=90
130944 Off ch=4 n=84 v=64
130944 On ch=4 n=78 v=90
130992 Off ch=4 n=78 v=64
130992 On ch=4 n=81 v=90
131040 Off ch=4 n=81 v=64
131040 On ch=4 n=81 v=90
131232 Off ch=4 n=81 v=64
131232 On ch=4 n=84 v=90
131280 Off ch=4 n=84 v=64
131280 On ch=4 n=87 v=90
131328 Off ch=4 n=87 v=64
131328 On ch=4 n=89 v=90
131424 Off ch=4 n=89 v=64
131520 On ch=4 n=74 v=90
131568 Off ch=4 n=74 v=64
131568 On ch=4 n=77 v=90
131616 Off ch=4 n=77 v=64
131616 On ch=4 n=84 v=90
131664 Off ch=4 n=84 v=64
131712 On ch=4 n=81 v=90
131808 Off ch=4 n=81 v=64
131808 On ch=4 n=81 v=90
132000 Off ch=4 n=81 v=64
132000 On ch=4 n=77 v=90
132192 Off ch=4 n=77 v=64
132192 On ch=4 n=86 v=90
132240 Off ch=4 n=86 v=64
132288 On ch=4 n=86 v=90
132336 Off ch=4 n=86 v=64
132336 On ch=4 n=83 v=90
132384 Off ch=4 n=83 v=64
132384 On ch=4 n=79 v=90
132432 Off ch=4 n=79 v=64
132432 On ch=4 n=74 v=90
132480 Off ch=4 n=74 v=64
132480 On ch=4 n=86 v=90
132528 Off ch=4 n=86 v=64
132528 On ch=4 n=79 v=90
132576 Off ch=4 n=79 v=64
132576 On ch=4 n=83 v=90
132624 Off ch=4 n=83 v=64
132624 On ch=4 n=74 v=90
132672 Off ch=4 n=74 v=64
132672 On ch=4 n=79 v=90
132720 Off ch=4 n=79 v=64
132720 On ch=4 n=83 v=90
132768 Off ch=4 n=83 v=64
132768 On ch=4 n=86 v=90
132816 Off ch=4 n=86 v=64
132864 On ch=4 n=81 v=90
132912 Off ch=4 n=81 v=64
132912 On ch=4 n=83 v=90
133056 Off ch=4 n=83 v=64
133056 On ch=4 n=88 v=90
133152 Off ch=4 n=88 v=64
133152 On ch=4 n=76 v=90
133248 Off ch=4 n=76 v=64
133248 On ch=4 n=79 v=90
133344 Off ch=4 n=79 v=64
133344 On ch=4 n=81 v=90
133536 Off ch=4 n=81 v=64
133536 On ch=4 n=83 v=90
133584 Off ch=4 n=83 v=64
133584 On ch=4 n=86 v=90
133632 Off ch=4 n=86 v=64
133632 On ch=4 n=84 v=90
133680 Off ch=4 n=84 v=64
133680 On ch=4 n=81 v=90
133728 Off ch=4 n=81 v=64
133728 On ch=4 n=77 v=90
133824 Off ch=4 n=77 v=64
133824 On ch=4 n=79 v=90
133872 Off ch=4 n=79 v=64
133872 On ch=4 n=81 v=90
133920 Off ch=4 n=81 v=64
133920 On ch=4 n=79 v=90
134016 Off ch=4 n=79 v=64
134016 On ch=4 n=81 v=90
134112 Off ch=4 n=81 v=64
134112 On ch=4 n=79 v=90
134160 Off ch=4 n=79 v=64
134160 On ch=4 n=81 v=90
134208 Off ch=4 n=81 v=64
134208 On ch=4 n=84 v=90
134304 Off ch=4 n=84 v=64
134304 On ch=4 n=81 v=90
134352 Off ch=4 n=81 v=64
134352 On ch=4 n=81 v=90
134400 Off ch=4 n=81 v=64
134400 On ch=4 n=79 v=90
134448 Off ch=4 n=79 v=64
134448 On ch=4 n=76 v=90
134496 Off ch=4 n=76 v=64
134496 On ch=4 n=85 v=90
134544 Off ch=4 n=85 v=64
134544 On ch=4 n=79 v=90
134592 Off ch=4 n=79 v=64
134592 On ch=4 n=76 v=90
134640 Off ch=4 n=76 v=64
134640 On ch=4 n=73 v=90
134688 Off ch=4 n=73 v=64
134688 On ch=4 n=83 v=90
134736 Off ch=4 n=83 v=64
134736 On ch=4 n=79 v=90
134784 Off ch=4 n=79 v=64
134784 On ch=4 n=76 v=90
134832 Off ch=4 n=76 v=64
134832 On ch=4 n=73 v=90
134880 Off ch=4 n=73 v=64
134880 On ch=4 n=85 v=90
134928 Off ch=4 n=85 v=64
134928 On ch=4 n=79 v=90
134976 Off ch=4 n=79 v=64
134976 On ch=4 n=76 v=90
135024 Off ch=4 n=76 v=64
135024 On ch=4 n=73 v=90
135072 Off ch=4 n=73 v=64
135072 On ch=4 n=77 v=90
135360 Off ch=4 n=77 v=64
135360 On ch=4 n=91 v=90
135744 Off ch=4 n=91 v=64
135744 On ch=4 n=89 v=90
136032 Off ch=4 n=89 v=64
136032 On ch=4 n=88 v=90
136224 Off ch=4 n=88 v=64
136224 On ch=4 n=81 v=90
136272 Off ch=4 n=81 v=64
136272 On ch=4 n=81 v=90
136320 Off ch=4 n=81 v=64
136320 On ch=4 n=79 v=90
136368 Off ch=4 n=79 v=64
136368 On ch=4 n=76 v=90
136416 Off ch=4 n=76 v=64
136416 On ch=4 n=85 v=90
136464 Off ch=4 n=85 v=64
136464 On ch=4 n=79 v=90
136512 Off ch=4 n=79 v=64
136512 On ch=4 n=76 v=90
136560 Off ch=4 n=76 v=64
136560 On ch=4 n=73 v=90
136608 Off ch=4 n=73 v=64
136608 On ch=4 n=83 v=90
136656 Off ch=4 n=83 v=64
136656 On ch=4 n=79 v=90
136704 Off ch=4 n=79 v=64
136704 On ch=4 n=76 v=90
136752 Off ch=4 n=76 v=64
136752 On ch=4 n=73 v=90
136800 Off ch=4 n=73 v=64
136800 On ch=4 n=85 v=90
136848 Off ch=4 n=85 v=64
136848 On ch=4 n=79 v=90
136896 Off ch=4 n=79 v=64
136896 On ch=4 n=76 v=90
136944 Off ch=4 n=76 v=64
136944 On ch=4 n=73 v=90
136992 Off ch=4 n=73 v=64
136992 On ch=4 n=77 v=90
137280 Off ch=4 n=77 v=64
137280 On ch=4 n=91 v=90
137664 Off ch=4 n=91 v=64
137664 On ch=4 n=89 v=90
137952 Off ch=4 n=89 v=64
137952 On ch=4 n=88 v=90
138144 Off ch=4 n=88 v=64
138144 On ch=4 n=81 v=90
138192 Off ch=4 n=81 v=64
138192 On ch=4 n=81 v=90
138240 Off ch=4 n=81 v=64
138240 On ch=4 n=79 v=90
138288 Off ch=4 n=79 v=64
138288 On ch=4 n=76 v=90
138336 Off ch=4 n=76 v=64
138336 On ch=4 n=85 v=90
138384 Off ch=4 n=85 v=64
138384 On ch=4 n=79 v=90
138432 Off ch=4 n=79 v=64
138432 On ch=4 n=76 v=90
138480 Off ch=4 n=76 v=64
138480 On ch=4 n=73 v=90
138528 Off ch=4 n=73 v=64
138528 On ch=4 n=83 v=90
138576 Off ch=4 n=83 v=64
138576 On ch=4 n=79 v=90
138624 Off ch=4 n=79 v=64
138624 On ch=4 n=76 v=90
138672 Off ch=4 n=76 v=64
138672 On ch=4 n=73 v=90
138720 Off ch=4 n=73 v=64
138720 On ch=4 n=85 v=90
138768 Off ch=4 n=85 v=64
138768 On ch=4 n=79 v=90
138816 Off ch=4 n=79 v=64
138816 On ch=4 n=76 v=90
138864 Off ch=4 n=76 v=64
138864 On ch=4 n=73 v=90
138912 Off ch=4 n=73 v=64
138912 On ch=4 n=81 v=90
138960 Off ch=4 n=81 v=64
138960 On ch=4 n=81 v=90
139008 Off ch=4 n=81 v=64
139008 On ch=4 n=79 v=90
139056 Off ch=4 n=79 v=64
139056 On ch=4 n=76 v=90
139104 Off ch=4 n=76 v=64
139104 On ch=4 n=85 v=90
139152 Off ch=4 n=85 v=64
139152 On ch=4 n=79 v=90
139200 Off ch=4 n=79 v=64
139200 On ch=4 n=76 v=90
139248 Off ch=4 n=76 v=64
139248 On ch=4 n=73 v=90
139296 Off ch=4 n=73 v=64
139296 On ch=4 n=83 v=90
139344 Off ch=4 n=83 v=64
139344 On ch=4 n=79 v=90
139392 Off ch=4 n=79 v=64
139392 On ch=4 n=76 v=90
139440 Off ch=4 n=76 v=64
139440 On ch=4 n=73 v=90
139488 Off ch=4 n=73 v=64
139488 On ch=4 n=85 v=90
139536 Off ch=4 n=85 v=64
139536 On ch=4 n=79 v=90
139584 Off ch=4 n=79 v=64
139584 On ch=4 n=76 v=90
139632 Off ch=4 n=76 v=64
139632 On ch=4 n=73 v=90
139680 Off ch=4 n=73 v=64
139680 On ch=4 n=81 v=90
139728 Off ch=4 n=81 v=64
139728 On ch=4 n=81 v=90
139776 Off ch=4 n=81 v=64
139776 On ch=4 n=79 v=90
139824 Off ch=4 n=79 v=64
139824 On ch=4 n=76 v=90
139872 Off ch=4 n=76 v=64
139872 On ch=4 n=85 v=90
139920 Off ch=4 n=85 v=64
139920 On ch=4 n=79 v=90
139968 Off ch=4 n=79 v=64
139968 On ch=4 n=76 v=90
140016 Off ch=4 n=76 v=64
140016 On ch=4 n=73 v=90
140064 Off ch=4 n=73 v=64
140064 On ch=4 n=83 v=90
140112 Off ch=4 n=83 v=64
140112 On ch=4 n=79 v=90
140160 Off ch=4 n=79 v=64
140160 On ch=4 n=76 v=90
140208 Off ch=4 n=76 v=64
140208 On ch=4 n=73 v=90
140256 Off ch=4 n=73 v=64
140256 On ch=4 n=85 v=90
140304 Off ch=4 n=85 v=64
140304 On ch=4 n=79 v=90
140352 Off ch=4 n=79 v=64
140352 On ch=4 n=76 v=90
140400 Off ch=4 n=76 v=64
140400 On ch=4 n=73 v=90
140448 Off ch=4 n=73 v=64
140448 On ch=4 n=81 v=90
140496 Off ch=4 n=81 v=64
140496 On ch=4 n=81 v=90
140544 Off ch=4 n=81 v=64
140544 On ch=4 n=79 v=90
140592 Off ch=4 n=79 v=64
140592 On ch=4 n=76 v=90
140640 Off ch=4 n=76 v=64
140640 On ch=4 n=85 v=90
140688 Off ch=4 n=85 v=64
140688 On ch=4 n=79 v=90
140736 Off ch=4 n=79 v=64
140736 On ch=4 n=76 v=90
140784 Off ch=4 n=76 v=64
140784 On ch=4 n=73 v=90
140832 Off ch=4 n=73 v=64
140832 On ch=4 n=83 v=90
140880 Off ch=4 n=83 v=64
140880 On ch=4 n=79 v=90
140928 Off ch=4 n=79 v=64
140928 On ch=4 n=76 v=90
140976 Off ch=4 n=76 v=64
140976 On ch=4 n=73 v=90
141024 Off ch=4 n=73 v=64
141024 On ch=4 n=85 v=90
141072 Off ch=4 n=85 v=64
141072 On ch=4 n=79 v=90
141120 Off ch=4 n=79 v=64
141120 On ch=4 n=76 v=90
141168 Off ch=4 n=76 v=64
141168 On ch=4 n=73 v=90
141216 Off ch=4 n=73 v=64
141216 Meta TrkEnd
TrkEnd
MTrk
0 Meta 0x21 00
0 Meta TrkName "Lead Guitar 2       "
0 PrCh ch=1 p=12
3120 PrCh ch=1 p=12
3360 On ch=1 n=64 v=90
3456 Off ch=1 n=64 v=64
3456 On ch=1 n=67 v=90
3552 Off ch=1 n=67 v=64
3552 On ch=1 n=68 v=90
3648 Off ch=1 n=68 v=64
3648 On ch=1 n=69 v=90
3744 Off ch=1 n=69 v=64
3744 On ch=1 n=64 v=90
3840 Off ch=1 n=64 v=64
3840 On ch=1 n=72 v=90
4032 Off ch=1 n=72 v=64
4032 On ch=1 n=69 v=90
4224 Off ch=1 n=69 v=64
4224 On ch=1 n=74 v=90
4320 Off ch=1 n=74 v=64
4320 On ch=1 n=76 v=90
4416 Off ch=1 n=76 v=64
4416 On ch=1 n=72 v=90
4480 Off ch=1 n=72 v=64
4480 On ch=1 n=74 v=90
4544 Off ch=1 n=74 v=64
4544 On ch=1 n=72 v=90
4608 Off ch=1 n=72 v=64
4608 On ch=1 n=69 v=90
4704 Off ch=1 n=69 v=64
4704 On ch=1 n=69 v=90
4800 Off ch=1 n=69 v=64
4800 On ch=1 n=72 v=90
4992 Off ch=1 n=72 v=64
4992 On ch=1 n=69 v=90
5184 Off ch=1 n=69 v=64
5184 On ch=1 n=67 v=90
5280 Off ch=1 n=67 v=64
5280 On ch=1 n=69 v=90
5376 Off ch=1 n=69 v=64
5376 On ch=1 n=69 v=90
5472 Off ch=1 n=69 v=64
5472 On ch=1 n=62 v=90
5568 Off ch=1 n=62 v=64
5568 On ch=1 n=64 v=90
5664 Off ch=1 n=64 v=64
5664 On ch=1 n=60 v=90
5760 Off ch=1 n=60 v=64
5760 On ch=1 n=62 v=90
5856 Off ch=1 n=62 v=64
5856 On ch=1 n=57 v=90
6144 Off ch=1 n=57 v=64
6144 On ch=1 n=57 v=90
6160 Off ch=1 n=57 v=64
9504 On ch=1 n=64 v=90
9600 Off ch=1 n=64 v=64
9600 On ch=1 n=67 v=90
9696 Off ch=1 n=67 v=64
9696 On ch=1 n=68 v=90
9792 Off ch=1 n=68 v=64
9792 On ch=1 n=69 v=90
9888 Off ch=1 n=69 v=64
9888 On ch=1 n=64 v=90
9984 Off ch=1 n=64 v=64
9984 On ch=1 n=72 v=90
10176 Off ch=1 n=72 v=64
10176 On ch=1 n=69 v=90
10368 Off ch=1 n=69 v=64
10368 On ch=1 n=74 v=90
10464 Off ch=1 n=74 v=64
10464 On ch=1 n=76 v=90
10560 Off ch=1 n=76 v=64
10560 On ch=1 n=72 v=90
10624 Off ch=1 n=72 v=64
10624 On ch=1 n=74 v=90
10688 Off ch=1 n=74 v=64
10688 On ch=1 n=72 v=90
10752 Off ch=1 n=72 v=64
10752 On ch=1 n=69 v=90
10848 Off ch=1 n=69 v=64
10848 On ch=1 n=69 v=90
10944 Off ch=1 n=69 v=64
10944 On ch=1 n=72 v=90
11136 Off ch=1 n=72 v=64
11136 On ch=1 n=69 v=90
11328 Off ch=1 n=69 v=64
11328 On ch=1 n=67 v=90
11424 Off ch=1 n=67 v=64
11424 On ch=1 n=69 v=90
11520 Off ch=1 n=69 v=64
11520 On ch=1 n=69 v=90
11616 Off ch=1 n=69 v=64
11616 On ch=1 n=62 v=90
11712 Off ch=1 n=62 v=64
11712 On ch=1 n=64 v=90
11808 Off ch=1 n=64 v=64
11808 On ch=1 n=60 v=90
11904 Off ch=1 n=60 v=64
11904 On ch=1 n=62 v=90
12000 Off ch=1 n=62 v=64
12000 On ch=1 n=57 v=90
12288 Off ch=1 n=57 v=64
12288 On ch=1 n=57 v=90
12384 Off ch=1 n=57 v=64
15648 On ch=1 n=64 v=90
15744 Off ch=1 n=64 v=64
15744 On ch=1 n=67 v=90
15840 Off ch=1 n=67 v=64
15840 On ch=1 n=68 v=90
15936 Off ch=1 n=68 v=64
15936 On ch=1 n=69 v=90
16032 Off ch=1 n=69 v=64
16032 On ch=1 n=64 v=90
16128 Off ch=1 n=64 v=64
16128 On ch=1 n=72 v=90
16320 Off ch=1 n=72 v=64
16320 On ch=1 n=69 v=90
16512 Off ch=1 n=69 v=64
16512 On ch=1 n=74 v=90
16608 Off ch=1 n=74 v=64
16608 On ch=1 n=76 v=90
16704 Off ch=1 n=76 v=64
16704 On ch=1 n=72 v=90
16768 Off ch=1 n=72 v=64
16768 On ch=1 n=74 v=90
16832 Off ch=1 n=74 v=64
16832 On ch=1 n=72 v=90
16896 Off ch=1 n=72 v=64
16896 On ch=1 n=69 v=90
16992 Off ch=1 n=69 v=64
16992 On ch=1 n=69 v=90
17088 Off ch=1 n=69 v=64
17088 On ch=1 n=72 v=90
17280 Off ch=1 n=72 v=64
17280 On ch=1 n=69 v=90
17472 Off ch=1 n=69 v=64
17472 On ch=1 n=67 v=90
17568 Off ch=1 n=67 v=64
17568 On ch=1 n=69 v=90
17664 Off ch=1 n=69 v=64
17664 On ch=1 n=69 v=90
17760 Off ch=1 n=69 v=64
17760 On ch=1 n=62 v=90
17856 Off ch=1 n=62 v=64
17856 On ch=1 n=64 v=90
17952 Off ch=1 n=64 v=64
17952 On ch=1 n=60 v=90
18048 Off ch=1 n=60 v=64
18048 On ch=1 n=62 v=90
18144 Off ch=1 n=62 v=64
18144 On ch=1 n=57 v=90
18432 Off ch=1 n=57 v=64
18432 On ch=1 n=57 v=90
18720 Off ch=1 n=57 v=64
18720 On ch=1 n=59 v=90
18816 Off ch=1 n=59 v=64
18816 On ch=1 n=62 v=90
18912 Off ch=1 n=62 v=64
18912 On ch=1 n=63 v=90
19008 Off ch=1 n=63 v=64
19008 On ch=1 n=64 v=90
19104 Off ch=1 n=64 v=64
19104 On ch=1 n=59 v=90
19200 Off ch=1 n=59 v=64
19200 On ch=1 n=67 v=90
19392 Off ch=1 n=67 v=64
19392 On ch=1 n=64 v=90
19584 Off ch=1 n=64 v=64
19584 On ch=1 n=59 v=90
19680 Off ch=1 n=59 v=64
19680 On ch=1 n=62 v=90
19776 Off ch=1 n=62 v=64
19776 On ch=1 n=63 v=90
19872 Off ch=1 n=63 v=64
19872 On ch=1 n=64 v=90
19968 Off ch=1 n=64 v=64
19968 On ch=1 n=59 v=90
20064 Off ch=1 n=59 v=64
20064 On ch=1 n=67 v=90
20256 Off ch=1 n=67 v=64
20256 On ch=1 n=64 v=90
20448 Off ch=1 n=64 v=64
20448 On ch=1 n=59 v=90
20544 Off ch=1 n=59 v=64
20544 On ch=1 n=62 v=90
20640 Off ch=1 n=62 v=64
20640 On ch=1 n=63 v=90
20736 Off ch=1 n=63 v=64
20736 On ch=1 n=64 v=90
20832 Off ch=1 n=64 v=64
20832 On ch=1 n=59 v=90
20928 Off ch=1 n=59 v=64
20928 On ch=1 n=67 v=90
21120 Off ch=1 n=67 v=64
21120 On ch=1 n=64 v=90
21216 Off ch=1 n=64 v=64
21216 On ch=1 n=59 v=90
21312 Off ch=1 n=59 v=64
21312 On ch=1 n=62 v=90
21408 Off ch=1 n=62 v=64
21408 On ch=1 n=63 v=90
21504 Off ch=1 n=63 v=64
21504 On ch=1 n=64 v=90
21600 Off ch=1 n=64 v=64
21600 On ch=1 n=62 v=90
21696 Off ch=1 n=62 v=64
21696 On ch=1 n=64 v=90
21792 Off ch=1 n=64 v=64
21792 On ch=1 n=67 v=90
21888 Off ch=1 n=67 v=64
21888 On ch=1 n=68 v=90
21984 Off ch=1 n=68 v=64
21984 On ch=1 n=69 v=90
22080 Off ch=1 n=69 v=64
22080 On ch=1 n=64 v=90
22176 Off ch=1 n=64 v=64
22176 On ch=1 n=72 v=90
22464 Off ch=1 n=72 v=64
22464 On ch=1 n=69 v=90
22656 Off ch=1 n=69 v=64
22656 On ch=1 n=74 v=90
22752 Off ch=1 n=74 v=64
22752 On ch=1 n=76 v=90
22848 Off ch=1 n=76 v=64
22848 On ch=1 n=72 v=90
22912 Off ch=1 n=72 v=64
22912 On ch=1 n=74 v=90
22976 Off ch=1 n=74 v=64
22976 On ch=1 n=73 v=90
23040 Off ch=1 n=73 v=64
23040 On ch=1 n=69 v=90
23136 Off ch=1 n=69 v=64
23136 On ch=1 n=69 v=90
23232 Off ch=1 n=69 v=64
23232 On ch=1 n=72 v=90
23424 Off ch=1 n=72 v=64
23424 On ch=1 n=69 v=90
23616 Off ch=1 n=69 v=64
23616 On ch=1 n=67 v=90
23712 Off ch=1 n=67 v=64
23712 On ch=1 n=69 v=90
23808 Off ch=1 n=69 v=64
23808 On ch=1 n=69 v=90
23904 Off ch=1 n=69 v=64
23904 On ch=1 n=62 v=90
24000 Off ch=1 n=62 v=64
24000 On ch=1 n=64 v=90
24096 Off ch=1 n=64 v=64
24096 On ch=1 n=60 v=90
24192 Off ch=1 n=60 v=64
24192 On ch=1 n=62 v=90
24288 Off ch=1 n=62 v=64
24288 On ch=1 n=57 v=90
24576 Off ch=1 n=57 v=64
24576 On ch=1 n=57 v=90
24864 Off ch=1 n=57 v=64
24864 On ch=1 n=64 v=90
24960 Off ch=1 n=64 v=64
24960 On ch=1 n=60 v=90
25056 Off ch=1 n=60 v=64
25056 On ch=1 n=57 v=90
25344 Off ch=1 n=57 v=64
25344 On ch=1 n=72 v=90
25440 Off ch=1 n=72 v=64
25440 On ch=1 n=69 v=90
25536 Off ch=1 n=69 v=64
25536 On ch=1 n=71 v=90
25632 Off ch=1 n=71 v=64
25632 On ch=1 n=69 v=90
26112 Off ch=1 n=69 v=64
26112 On ch=1 n=72 v=90
26208 Off ch=1 n=72 v=64
26208 On ch=1 n=69 v=90
26304 Off ch=1 n=69 v=64
26304 On ch=1 n=71 v=90
26400 Off ch=1 n=71 v=64
26400 On ch=1 n=69 v=90
26976 Off ch=1 n=69 v=64
26976 On ch=1 n=72 v=90
27264 Off ch=1 n=72 v=64
27360 On ch=1 n=69 v=90
27648 Off ch=1 n=69 v=64
27648 On ch=1 n=72 v=90
27744 Off ch=1 n=72 v=64
27744 On ch=1 n=69 v=90
27840 Off ch=1 n=69 v=64
27840 On ch=1 n=65 v=90
27936 Off ch=1 n=65 v=64
27936 On ch=1 n=64 v=90
28032 Off ch=1 n=64 v=64
28032 On ch=1 n=60 v=90
28128 Off ch=1 n=60 v=64
28128 On ch=1 n=57 v=90
28416 Off ch=1 n=57 v=64
28416 On ch=1 n=72 v=90
28512 Off ch=1 n=72 v=64
28512 On ch=1 n=69 v=90
28608 Off ch=1 n=69 v=64
28608 On ch=1 n=71 v=90
28704 Off ch=1 n=71 v=64
28704 On ch=1 n=69 v=90
29184 Off ch=1 n=69 v=64
29184 On ch=1 n=72 v=90
29280 Off ch=1 n=72 v=64
29280 On ch=1 n=69 v=90
29376 Off ch=1 n=69 v=64
29376 On ch=1 n=71 v=90
29472 Off ch=1 n=71 v=64
29472 On ch=1 n=69 v=90
30048 Off ch=1 n=69 v=64
30048 On ch=1 n=72 v=90
30336 Off ch=1 n=72 v=64
30432 On ch=1 n=69 v=90
30720 Off ch=1 n=69 v=64
30720 On ch=1 n=72 v=90
30816 Off ch=1 n=72 v=64
30816 On ch=1 n=69 v=90
30912 Off ch=1 n=69 v=64
30912 On ch=1 n=65 v=90
31008 Off ch=1 n=65 v=64
31008 On ch=1 n=64 v=90
31104 Off ch=1 n=64 v=64
31104 On ch=1 n=69 v=90
34176 Off ch=1 n=69 v=64
34176 On ch=1 n=64 v=90
34272 Off ch=1 n=64 v=64
34272 On ch=1 n=67 v=90
34368 Off ch=1 n=67 v=64
34368 On ch=1 n=68 v=90
34464 Off ch=1 n=68 v=64
34464 On ch=1 n=69 v=90
34560 Off ch=1 n=69 v=64
34560 On ch=1 n=64 v=90
34656 Off ch=1 n=64 v=64
34656 On ch=1 n=72 v=90
34848 Off ch=1 n=72 v=64
34848 On ch=1 n=69 v=90
35040 Off ch=1 n=69 v=64
35040 On ch=1 n=74 v=90
35136 Off ch=1 n=74 v=64
35136 On ch=1 n=76 v=90
35232 Off ch=1 n=76 v=64
35232 On ch=1 n=72 v=90
35296 Off ch=1 n=72 v=64
35296 On ch=1 n=74 v=90
35360 Off ch=1 n=74 v=64
35360 On ch=1 n=72 v=90
35424 Off ch=1 n=72 v=64
35424 On ch=1 n=69 v=90
35520 Off ch=1 n=69 v=64
35520 On ch=1 n=69 v=90
35616 Off ch=1 n=69 v=64
35616 On ch=1 n=72 v=90
35808 Off ch=1 n=72 v=64
35808 On ch=1 n=69 v=90
36000 Off ch=1 n=69 v=64
36000 On ch=1 n=67 v=90
36096 Off ch=1 n=67 v=64
36096 On ch=1 n=69 v=90
36192 Off ch=1 n=69 v=64
36192 On ch=1 n=69 v=90
36288 Off ch=1 n=69 v=64
36288 On ch=1 n=62 v=90
36384 Off ch=1 n=62 v=64
36384 On ch=1 n=64 v=90
36480 Off ch=1 n=64 v=64
36480 On ch=1 n=60 v=90
36576 Off ch=1 n=60 v=64
36576 On ch=1 n=62 v=90
36672 Off ch=1 n=62 v=64
36672 On ch=1 n=57 v=90
36960 Off ch=1 n=57 v=64
36960 On ch=1 n=57 v=90
40320 Off ch=1 n=57 v=64
40320 On ch=1 n=64 v=90
40416 Off ch=1 n=64 v=64
40416 On ch=1 n=67 v=90
40512 Off ch=1 n=67 v=64
40512 On ch=1 n=68 v=90
40608 Off ch=1 n=68 v=64
40608 On ch=1 n=69 v=90
40704 Off ch=1 n=69 v=64
40704 On ch=1 n=64 v=90
40800 Off ch=1 n=64 v=64
40800 On ch=1 n=72 v=90
40992 Off ch=1 n=72 v=64
40992 On ch=1 n=69 v=90
41184 Off ch=1 n=69 v=64
41184 On ch=1 n=74 v=90
41280 Off ch=1 n=74 v=64
41280 On ch=1 n=76 v=90
41376 Off ch=1 n=76 v=64
41376 On ch=1 n=72 v=90
41440 Off ch=1 n=72 v=64
41440 On ch=1 n=74 v=90
41504 Off ch=1 n=74 v=64
41504 On ch=1 n=72 v=90
41568 Off ch=1 n=72 v=64
41568 On ch=1 n=69 v=90
41664 Off ch=1 n=69 v=64
41664 On ch=1 n=69 v=90
41760 Off ch=1 n=69 v=64
41760 On ch=1 n=72 v=90
41952 Off ch=1 n=72 v=64
41952 On ch=1 n=69 v=90
42144 Off ch=1 n=69 v=64
42144 On ch=1 n=67 v=90
42240 Off ch=1 n=67 v=64
42240 On ch=1 n=69 v=90
42336 Off ch=1 n=69 v=64
42336 On ch=1 n=69 v=90
42432 Off ch=1 n=69 v=64
42432 On ch=1 n=62 v=90
42528 Off ch=1 n=62 v=64
42528 On ch=1 n=64 v=90
42624 Off ch=1 n=64 v=64
42624 On ch=1 n=60 v=90
42720 Off ch=1 n=60 v=64
42720 On ch=1 n=62 v=90
42816 Off ch=1 n=62 v=64
42816 On ch=1 n=57 v=90
43104 Off ch=1 n=57 v=64
43104 On ch=1 n=57 v=90
49440 Off ch=1 n=57 v=64
49440 On ch=1 n=67 v=90
49632 Off ch=1 n=67 v=64
49632 On ch=1 n=69 v=90
49824 Off ch=1 n=69 v=64
49824 On ch=1 n=65 v=90
50112 Off ch=1 n=65 v=64
50112 On ch=1 n=69 v=90
50208 Off ch=1 n=69 v=64
50208 On ch=1 n=67 v=90
50304 Off ch=1 n=67 v=64
50304 On ch=1 n=69 v=90
50400 Off ch=1 n=69 v=64
50400 On ch=1 n=72 v=90
50592 Off ch=1 n=72 v=64
50592 On ch=1 n=69 v=90
50880 Off ch=1 n=69 v=64
50880 On ch=1 n=69 v=90
50976 Off ch=1 n=69 v=64
50976 On ch=1 n=67 v=90
51072 Off ch=1 n=67 v=64
51072 On ch=1 n=69 v=90
51168 Off ch=1 n=69 v=64
51168 On ch=1 n=69 v=90
51360 Off ch=1 n=69 v=64
51360 On ch=1 n=65 v=90
51648 Off ch=1 n=65 v=64
51648 On ch=1 n=79 v=90
52032 Off ch=1 n=79 v=64
52032 On ch=1 n=77 v=90
52416 Off ch=1 n=77 v=64
52416 On ch=1 n=76 v=90
52512 Off ch=1 n=76 v=64
52512 On ch=1 n=64 v=90
52608 Off ch=1 n=64 v=64
52608 On ch=1 n=67 v=90
52704 Off ch=1 n=67 v=64
52704 On ch=1 n=69 v=90
52896 Off ch=1 n=69 v=64
52896 On ch=1 n=65 v=90
53184 Off ch=1 n=65 v=64
53184 On ch=1 n=69 v=90
53280 Off ch=1 n=69 v=64
53280 On ch=1 n=67 v=90
53376 Off ch=1 n=67 v=64
53376 On ch=1 n=69 v=90
53472 Off ch=1 n=69 v=64
53472 On ch=1 n=72 v=90
53664 Off ch=1 n=72 v=64
53664 On ch=1 n=69 v=90
53952 Off ch=1 n=69 v=64
53952 On ch=1 n=69 v=90
54048 Off ch=1 n=69 v=64
54048 On ch=1 n=67 v=90
54144 Off ch=1 n=67 v=64
54144 On ch=1 n=69 v=90
54240 Off ch=1 n=69 v=64
54240 On ch=1 n=72 v=90
54432 Off ch=1 n=72 v=64
54432 On ch=1 n=65 v=90
54720 Off ch=1 n=65 v=64
54720 On ch=1 n=79 v=90
55104 Off ch=1 n=79 v=64
55104 On ch=1 n=77 v=90
55488 Off ch=1 n=77 v=64
55488 On ch=1 n=76 v=90
55584 Off ch=1 n=76 v=64
55584 On ch=1 n=64 v=90
55680 Off ch=1 n=64 v=64
55680 On ch=1 n=67 v=90
55776 Off ch=1 n=67 v=64
55776 On ch=1 n=69 v=90
55968 Off ch=1 n=69 v=64
55968 On ch=1 n=65 v=90
56256 Off ch=1 n=65 v=64
56256 On ch=1 n=69 v=90
56352 Off ch=1 n=69 v=64
56352 On ch=1 n=67 v=90
56448 Off ch=1 n=67 v=64
56448 On ch=1 n=69 v=90
56544 Off ch=1 n=69 v=64
56544 On ch=1 n=72 v=90
56736 Off ch=1 n=72 v=64
56736 On ch=1 n=69 v=90
57024 Off ch=1 n=69 v=64
57024 On ch=1 n=69 v=90
57120 Off ch=1 n=69 v=64
57120 On ch=1 n=67 v=90
57216 Off ch=1 n=67 v=64
57216 On ch=1 n=69 v=90
57312 Off ch=1 n=69 v=64
57312 On ch=1 n=69 v=90
57504 Off ch=1 n=69 v=64
57504 On ch=1 n=65 v=90
57792 Off ch=1 n=65 v=64
57792 On ch=1 n=79 v=90
58176 Off ch=1 n=79 v=64
58176 On ch=1 n=77 v=90
58560 Off ch=1 n=77 v=64
58560 On ch=1 n=76 v=90
58656 Off ch=1 n=76 v=64
58656 On ch=1 n=64 v=90
58752 Off ch=1 n=64 v=64
58752 On ch=1 n=67 v=90
58848 Off ch=1 n=67 v=64
58848 On ch=1 n=69 v=90
59040 Off ch=1 n=69 v=64
59040 On ch=1 n=65 v=90
59328 Off ch=1 n=65 v=64
59328 On ch=1 n=69 v=90
59424 Off ch=1 n=69 v=64
59424 On ch=1 n=67 v=90
59520 Off ch=1 n=67 v=64
59520 On ch=1 n=69 v=90
59616 Off ch=1 n=69 v=64
59616 On ch=1 n=72 v=90
59808 Off ch=1 n=72 v=64
59808 On ch=1 n=69 v=90
60096 Off ch=1 n=69 v=64
60096 On ch=1 n=69 v=90
60192 Off ch=1 n=69 v=64
60192 On ch=1 n=67 v=90
60288 Off ch=1 n=67 v=64
60288 On ch=1 n=69 v=90
60384 Off ch=1 n=69 v=64
60384 On ch=1 n=72 v=90
60576 Off ch=1 n=72 v=64
60576 On ch=1 n=65 v=90
60864 Off ch=1 n=65 v=64
60864 On ch=1 n=79 v=90
61248 Off ch=1 n=79 v=64
61248 On ch=1 n=77 v=90
61536 Off ch=1 n=77 v=64
61536 On ch=1 n=76 v=90
61920 Off ch=1 n=76 v=64
61920 On ch=1 n=57 v=90
65280 Off ch=1 n=57 v=64
65280 On ch=1 n=64 v=90
65376 Off ch=1 n=64 v=64
65376 On ch=1 n=67 v=90
65472 Off ch=1 n=67 v=64
65472 On ch=1 n=68 v=90
65568 Off ch=1 n=68 v=64
65568 On ch=1 n=69 v=90
65664 Off ch=1 n=69 v=64
65664 On ch=1 n=64 v=90
65760 Off ch=1 n=64 v=64
65760 On ch=1 n=72 v=90
65952 Off ch=1 n=72 v=64
65952 On ch=1 n=69 v=90
66144 Off ch=1 n=69 v=64
66144 On ch=1 n=74 v=90
66240 Off ch=1 n=74 v=64
66240 On ch=1 n=76 v=90
66336 Off ch=1 n=76 v=64
66336 On ch=1 n=72 v=90
66400 Off ch=1 n=72 v=64
66400 On ch=1 n=74 v=90
66464 Off ch=1 n=74 v=64
66464 On ch=1 n=72 v=90
66528 Off ch=1 n=72 v=64
66528 On ch=1 n=69 v=90
66624 Off ch=1 n=69 v=64
66624 On ch=1 n=69 v=90
66720 Off ch=1 n=69 v=64
66720 On ch=1 n=72 v=90
66912 Off ch=1 n=72 v=64
66912 On ch=1 n=69 v=90
67104 Off ch=1 n=69 v=64
67104 On ch=1 n=67 v=90
67200 Off ch=1 n=67 v=64
67200 On ch=1 n=69 v=90
67296 Off ch=1 n=69 v=64
67296 On ch=1 n=69 v=90
67392 Off ch=1 n=69 v=64
67392 On ch=1 n=62 v=90
67488 Off ch=1 n=62 v=64
67488 On ch=1 n=64 v=90
67584 Off ch=1 n=64 v=64
67584 On ch=1 n=60 v=90
67680 Off ch=1 n=60 v=64
67680 On ch=1 n=62 v=90
67776 Off ch=1 n=62 v=64
67776 On ch=1 n=57 v=90
68064 Off ch=1 n=57 v=64
68064 On ch=1 n=57 v=90
71424 Off ch=1 n=57 v=64
71424 On ch=1 n=64 v=90
71520 Off ch=1 n=64 v=64
71520 On ch=1 n=67 v=90
71616 Off ch=1 n=67 v=64
71616 On ch=1 n=68 v=90
71712 Off ch=1 n=68 v=64
71712 On ch=1 n=69 v=90
71808 Off ch=1 n=69 v=64
71808 On ch=1 n=64 v=90
71904 Off ch=1 n=64 v=64
71904 On ch=1 n=72 v=90
72096 Off ch=1 n=72 v=64
72096 On ch=1 n=69 v=90
72288 Off ch=1 n=69 v=64
72288 On ch=1 n=74 v=90
72384 Off ch=1 n=74 v=64
72384 On ch=1 n=76 v=90
72480 Off ch=1 n=76 v=64
72480 On ch=1 n=72 v=90
72544 Off ch=1 n=72 v=64
72544 On ch=1 n=74 v=90
72608 Off ch=1 n=74 v=64
72608 On ch=1 n=72 v=90
72672 Off ch=1 n=72 v=64
72672 On ch=1 n=69 v=90
72768 Off ch=1 n=69 v=64
72768 On ch=1 n=69 v=90
72864 Off ch=1 n=69 v=64
72864 On ch=1 n=72 v=90
73056 Off ch=1 n=72 v=64
73056 On ch=1 n=69 v=90
73248 Off ch=1 n=69 v=64
73248 On ch=1 n=67 v=90
73344 Off ch=1 n=67 v=64
73344 On ch=1 n=69 v=90
73440 Off ch=1 n=69 v=64
73440 On ch=1 n=69 v=90
73536 Off ch=1 n=69 v=64
73536 On ch=1 n=62 v=90
73632 Off ch=1 n=62 v=64
73632 On ch=1 n=64 v=90
73728 Off ch=1 n=64 v=64
73728 On ch=1 n=60 v=90
73824 Off ch=1 n=60 v=64
73824 On ch=1 n=62 v=90
73920 Off ch=1 n=62 v=64
73920 On ch=1 n=57 v=90
74208 Off ch=1 n=57 v=64
74208 On ch=1 n=57 v=90
77568 Off ch=1 n=57 v=64
77568 On ch=1 n=64 v=90
77664 Off ch=1 n=64 v=64
77664 On ch=1 n=67 v=90
77760 Off ch=1 n=67 v=64
77760 On ch=1 n=68 v=90
77856 Off ch=1 n=68 v=64
77856 On ch=1 n=69 v=90
77952 Off ch=1 n=69 v=64
77952 On ch=1 n=64 v=90
78048 Off ch=1 n=64 v=64
78048 On ch=1 n=72 v=90
78240 Off ch=1 n=72 v=64
78240 On ch=1 n=69 v=90
78432 Off ch=1 n=69 v=64
78432 On ch=1 n=74 v=90
78528 Off ch=1 n=74 v=64
78528 On ch=1 n=76 v=90
78624 Off ch=1 n=76 v=64
78624 On ch=1 n=72 v=90
78688 Off ch=1 n=72 v=64
78688 On ch=1 n=74 v=90
78752 Off ch=1 n=74 v=64
78752 On ch=1 n=72 v=90
78816 Off ch=1 n=72 v=64
78816 On ch=1 n=69 v=90
78912 Off ch=1 n=69 v=64
78912 On ch=1 n=69 v=90
79008 Off ch=1 n=69 v=64
79008 On ch=1 n=72 v=90
79200 Off ch=1 n=72 v=64
79200 On ch=1 n=69 v=90
79392 Off ch=1 n=69 v=64
79392 On ch=1 n=67 v=90
79488 Off ch=1 n=67 v=64
79488 On ch=1 n=69 v=90
79584 Off ch=1 n=69 v=64
79584 On ch=1 n=69 v=90
79680 Off ch=1 n=69 v=64
79680 On ch=1 n=62 v=90
79776 Off ch=1 n=62 v=64
79776 On ch=1 n=64 v=90
79872 Off ch=1 n=64 v=64
79872 On ch=1 n=60 v=90
79968 Off ch=1 n=60 v=64
79968 On ch=1 n=62 v=90
80064 Off ch=1 n=62 v=64
80064 On ch=1 n=57 v=90
80352 Off ch=1 n=57 v=64
80352 On ch=1 n=57 v=90
80640 Off ch=1 n=57 v=64
80640 On ch=1 n=59 v=90
80736 Off ch=1 n=59 v=64
80736 On ch=1 n=62 v=90
80832 Off ch=1 n=62 v=64
80832 On ch=1 n=63 v=90
80928 Off ch=1 n=63 v=64
80928 On ch=1 n=64 v=90
81024 Off ch=1 n=64 v=64
81024 On ch=1 n=59 v=90
81120 Off ch=1 n=59 v=64
81120 On ch=1 n=67 v=90
81312 Off ch=1 n=67 v=64
81312 On ch=1 n=64 v=90
81504 Off ch=1 n=64 v=64
81504 On ch=1 n=59 v=90
81600 Off ch=1 n=59 v=64
81600 On ch=1 n=62 v=90
81696 Off ch=1 n=62 v=64
81696 On ch=1 n=63 v=90
81792 Off ch=1 n=63 v=64
81792 On ch=1 n=64 v=90
81888 Off ch=1 n=64 v=64
81888 On ch=1 n=59 v=90
81984 Off ch=1 n=59 v=64
81984 On ch=1 n=67 v=90
82176 Off ch=1 n=67 v=64
82176 On ch=1 n=64 v=90
82368 Off ch=1 n=64 v=64
82368 On ch=1 n=59 v=90
82464 Off ch=1 n=59 v=64
82464 On ch=1 n=62 v=90
82560 Off ch=1 n=62 v=64
82560 On ch=1 n=63 v=90
82656 Off ch=1 n=63 v=64
82656 On ch=1 n=64 v=90
82752 Off ch=1 n=64 v=64
82752 On ch=1 n=59 v=90
82848 Off ch=1 n=59 v=64
82848 On ch=1 n=67 v=90
83040 Off ch=1 n=67 v=64
83040 On ch=1 n=64 v=90
83136 Off ch=1 n=64 v=64
83136 On ch=1 n=59 v=90
83232 Off ch=1 n=59 v=64
83232 On ch=1 n=62 v=90
83328 Off ch=1 n=62 v=64
83328 On ch=1 n=63 v=90
83424 Off ch=1 n=63 v=64
83424 On ch=1 n=64 v=90
83520 Off ch=1 n=64 v=64
83520 On ch=1 n=62 v=90
83616 Off ch=1 n=62 v=64
83616 On ch=1 n=64 v=90
83712 Off ch=1 n=64 v=64
83712 On ch=1 n=67 v=90
83808 Off ch=1 n=67 v=64
83808 On ch=1 n=68 v=90
83904 Off ch=1 n=68 v=64
83904 On ch=1 n=69 v=90
84000 Off ch=1 n=69 v=64
84000 On ch=1 n=64 v=90
84096 Off ch=1 n=64 v=64
84096 On ch=1 n=72 v=90
84384 Off ch=1 n=72 v=64
84384 On ch=1 n=69 v=90
84576 Off ch=1 n=69 v=64
84576 On ch=1 n=74 v=90
84672 Off ch=1 n=74 v=64
84672 On ch=1 n=76 v=90
84768 Off ch=1 n=76 v=64
84768 On ch=1 n=72 v=90
84832 Off ch=1 n=72 v=64
84832 On ch=1 n=74 v=90
84896 Off ch=1 n=74 v=64
84896 On ch=1 n=73 v=90
84960 Off ch=1 n=73 v=64
84960 On ch=1 n=69 v=90
85056 Off ch=1 n=69 v=64
85056 On ch=1 n=69 v=90
85152 Off ch=1 n=69 v=64
85152 On ch=1 n=72 v=90
85344 Off ch=1 n=72 v=64
85344 On ch=1 n=69 v=90
85536 Off ch=1 n=69 v=64
85536 On ch=1 n=67 v=90
85632 Off ch=1 n=67 v=64
85632 On ch=1 n=69 v=90
85728 Off ch=1 n=69 v=64
85728 On ch=1 n=69 v=90
85824 Off ch=1 n=69 v=64
85824 On ch=1 n=62 v=90
85920 Off ch=1 n=62 v=64
85920 On ch=1 n=64 v=90
86016 Off ch=1 n=64 v=64
86016 On ch=1 n=60 v=90
86112 Off ch=1 n=60 v=64
86112 On ch=1 n=62 v=90
86208 Off ch=1 n=62 v=64
86208 On ch=1 n=57 v=90
86496 Off ch=1 n=57 v=64
86496 On ch=1 n=57 v=90
86784 Off ch=1 n=57 v=64
86784 On ch=1 n=64 v=90
86880 Off ch=1 n=64 v=64
86880 On ch=1 n=60 v=90
86976 Off ch=1 n=60 v=64
86976 On ch=1 n=57 v=90
87264 Off ch=1 n=57 v=64
87264 On ch=1 n=72 v=90
87360 Off ch=1 n=72 v=64
87360 On ch=1 n=69 v=90
87456 Off ch=1 n=69 v=64
87456 On ch=1 n=71 v=90
87552 Off ch=1 n=71 v=64
87552 On ch=1 n=69 v=90
88032 Off ch=1 n=69 v=64
88032 On ch=1 n=72 v=90
88128 Off ch=1 n=72 v=64
88128 On ch=1 n=69 v=90
88224 Off ch=1 n=69 v=64
88224 On ch=1 n=71 v=90
88320 Off ch=1 n=71 v=64
88320 On ch=1 n=69 v=90
88896 Off ch=1 n=69 v=64
88896 On ch=1 n=72 v=90
89184 Off ch=1 n=72 v=64
89280 On ch=1 n=69 v=90
89568 Off ch=1 n=69 v=64
89568 On ch=1 n=72 v=90
89664 Off ch=1 n=72 v=64
89664 On ch=1 n=69 v=90
89760 Off ch=1 n=69 v=64
89760 On ch=1 n=65 v=90
89856 Off ch=1 n=65 v=64
89856 On ch=1 n=64 v=90
89952 Off ch=1 n=64 v=64
89952 On ch=1 n=60 v=90
90048 Off ch=1 n=60 v=64
90048 On ch=1 n=57 v=90
90336 Off ch=1 n=57 v=64
90336 On ch=1 n=72 v=90
90432 Off ch=1 n=72 v=64
90432 On ch=1 n=69 v=90
90528 Off ch=1 n=69 v=64
90528 On ch=1 n=71 v=90
90624 Off ch=1 n=71 v=64
90624 On ch=1 n=69 v=90
91104 Off ch=1 n=69 v=64
91104 On ch=1 n=72 v=90
91200 Off ch=1 n=72 v=64
91200 On ch=1 n=69 v=90
91296 Off ch=1 n=69 v=64
91296 On ch=1 n=71 v=90
91392 Off ch=1 n=71 v=64
91392 On ch=1 n=69 v=90
91968 Off ch=1 n=69 v=64
91968 On ch=1 n=72 v=90
92256 Off ch=1 n=72 v=64
92352 On ch=1 n=69 v=90
92640 Off ch=1 n=69 v=64
92640 On ch=1 n=72 v=90
92736 Off ch=1 n=72 v=64
92736 On ch=1 n=69 v=90
92832 Off ch=1 n=69 v=64
92832 On ch=1 n=65 v=90
92928 Off ch=1 n=65 v=64
92928 On ch=1 n=64 v=90
93024 Off ch=1 n=64 v=64
93024 On ch=1 n=57 v=90
96384 Off ch=1 n=57 v=64
96384 On ch=1 n=64 v=90
96480 Off ch=1 n=64 v=64
96480 On ch=1 n=67 v=90
96576 Off ch=1 n=67 v=64
96576 On ch=1 n=68 v=90
96672 Off ch=1 n=68 v=64
96672 On ch=1 n=69 v=90
96768 Off ch=1 n=69 v=64
96768 On ch=1 n=64 v=90
96864 Off ch=1 n=64 v=64
96864 On ch=1 n=72 v=90
97056 Off ch=1 n=72 v=64
97056 On ch=1 n=69 v=90
97248 Off ch=1 n=69 v=64
97248 On ch=1 n=74 v=90
97344 Off ch=1 n=74 v=64
97344 On ch=1 n=76 v=90
97440 Off ch=1 n=76 v=64
97440 On ch=1 n=72 v=90
97504 Off ch=1 n=72 v=64
97504 On ch=1 n=74 v=90
97568 Off ch=1 n=74 v=64
97568 On ch=1 n=72 v=90
97632 Off ch=1 n=72 v=64
97632 On ch=1 n=69 v=90
97728 Off ch=1 n=69 v=64
97728 On ch=1 n=69 v=90
97824 Off ch=1 n=69 v=64
97824 On ch=1 n=72 v=90
98016 Off ch=1 n=72 v=64
98016 On ch=1 n=69 v=90
98208 Off ch=1 n=69 v=64
98208 On ch=1 n=67 v=90
98304 Off ch=1 n=67 v=64
98304 On ch=1 n=69 v=90
98400 Off ch=1 n=69 v=64
98400 On ch=1 n=69 v=90
98496 Off ch=1 n=69 v=64
98496 On ch=1 n=62 v=90
98592 Off ch=1 n=62 v=64
98592 On ch=1 n=64 v=90
98688 Off ch=1 n=64 v=64
98688 On ch=1 n=60 v=90
98784 Off ch=1 n=60 v=64
98784 On ch=1 n=62 v=90
98880 Off ch=1 n=62 v=64
98880 On ch=1 n=57 v=90
99168 Off ch=1 n=57 v=64
99168 On ch=1 n=57 v=90
102240 Off ch=1 n=57 v=64
102240 On ch=1 n=57 v=90
102528 Off ch=1 n=57 v=64
102528 On ch=1 n=64 v=90
102624 Off ch=1 n=64 v=64
102624 On ch=1 n=67 v=90
102720 Off ch=1 n=67 v=64
102720 On ch=1 n=68 v=90
102816 Off ch=1 n=68 v=64
102816 On ch=1 n=69 v=90
102912 Off ch=1 n=69 v=64
102912 On ch=1 n=64 v=90
103008 Off ch=1 n=64 v=64
103008 On ch=1 n=72 v=90
103200 Off ch=1 n=72 v=64
103200 On ch=1 n=69 v=90
103392 Off ch=1 n=69 v=64
103392 On ch=1 n=74 v=90
103488 Off ch=1 n=74 v=64
103488 On ch=1 n=76 v=90
103584 Off ch=1 n=76 v=64
103584 On ch=1 n=72 v=90
103648 Off ch=1 n=72 v=64
103648 On ch=1 n=74 v=90
103712 Off ch=1 n=74 v=64
103712 On ch=1 n=72 v=90
103776 Off ch=1 n=72 v=64
103776 On ch=1 n=69 v=90
103872 Off ch=1 n=69 v=64
103872 On ch=1 n=69 v=90
103968 Off ch=1 n=69 v=64
103968 On ch=1 n=72 v=90
104160 Off ch=1 n=72 v=64
104160 On ch=1 n=69 v=90
104352 Off ch=1 n=69 v=64
104352 On ch=1 n=67 v=90
104448 Off ch=1 n=67 v=64
104448 On ch=1 n=69 v=90
104544 Off ch=1 n=69 v=64
104544 On ch=1 n=69 v=90
104640 Off ch=1 n=69 v=64
104640 On ch=1 n=62 v=90
104736 Off ch=1 n=62 v=64
104736 On ch=1 n=64 v=90
104832 Off ch=1 n=64 v=64
104832 On ch=1 n=60 v=90
104928 Off ch=1 n=60 v=64
104928 On ch=1 n=62 v=90
105024 Off ch=1 n=62 v=64
105024 On ch=1 n=57 v=90
105312 Off ch=1 n=57 v=64
105312 On ch=1 n=57 v=90
111648 Off ch=1 n=57 v=64
111648 On ch=1 n=67 v=90
111840 Off ch=1 n=67 v=64
111840 On ch=1 n=69 v=90
112032 Off ch=1 n=69 v=64
112032 On ch=1 n=65 v=90
112320 Off ch=1 n=65 v=64
112320 On ch=1 n=69 v=90
112416 Off ch=1 n=69 v=64
112416 On ch=1 n=67 v=90
112512 Off ch=1 n=67 v=64
112512 On ch=1 n=69 v=90
112608 Off ch=1 n=69 v=64
112608 On ch=1 n=72 v=90
112800 Off ch=1 n=72 v=64
112800 On ch=1 n=69 v=90
113088 Off ch=1 n=69 v=64
113088 On ch=1 n=69 v=90
113184 Off ch=1 n=69 v=64
113184 On ch=1 n=67 v=90
113280 Off ch=1 n=67 v=64
113280 On ch=1 n=69 v=90
113376 Off ch=1 n=69 v=64
113376 On ch=1 n=69 v=90
113568 Off ch=1 n=69 v=64
113568 On ch=1 n=65 v=90
113856 Off ch=1 n=65 v=64
113856 On ch=1 n=79 v=90
114240 Off ch=1 n=79 v=64
114240 On ch=1 n=77 v=90
114624 Off ch=1 n=77 v=64
114624 On ch=1 n=76 v=90
114720 Off ch=1 n=76 v=64
114720 On ch=1 n=64 v=90
114816 Off ch=1 n=64 v=64
114816 On ch=1 n=67 v=90
114912 Off ch=1 n=67 v=64
114912 On ch=1 n=69 v=90
115104 Off ch=1 n=69 v=64
115104 On ch=1 n=65 v=90
115392 Off ch=1 n=65 v=64
115392 On ch=1 n=69 v=90
115488 Off ch=1 n=69 v=64
115488 On ch=1 n=67 v=90
115584 Off ch=1 n=67 v=64
115584 On ch=1 n=69 v=90
115680 Off ch=1 n=69 v=64
115680 On ch=1 n=72 v=90
115872 Off ch=1 n=72 v=64
115872 On ch=1 n=69 v=90
116160 Off ch=1 n=69 v=64
116160 On ch=1 n=69 v=90
116256 Off ch=1 n=69 v=64
116256 On ch=1 n=67 v=90
116352 Off ch=1 n=67 v=64
116352 On ch=1 n=69 v=90
116448 Off ch=1 n=69 v=64
116448 On ch=1 n=72 v=90
116640 Off ch=1 n=72 v=64
116640 On ch=1 n=65 v=90
116928 Off ch=1 n=65 v=64
116928 On ch=1 n=79 v=90
117312 Off ch=1 n=79 v=64
117312 On ch=1 n=77 v=90
117696 Off ch=1 n=77 v=64
117696 On ch=1 n=76 v=90
117792 Off ch=1 n=76 v=64
117792 On ch=1 n=64 v=90
117888 Off ch=1 n=64 v=64
117888 On ch=1 n=67 v=90
117984 Off ch=1 n=67 v=64
117984 On ch=1 n=69 v=90
118176 Off ch=1 n=69 v=64
118176 On ch=1 n=65 v=90
118464 Off ch=1 n=65 v=64
118464 On ch=1 n=69 v=90
118560 Off ch=1 n=69 v=64
118560 On ch=1 n=67 v=90
118656 Off ch=1 n=67 v=64
118656 On ch=1 n=69 v=90
118752 Off ch=1 n=69 v=64
118752 On ch=1 n=72 v=90
118944 Off ch=1 n=72 v=64
118944 On ch=1 n=69 v=90
119232 Off ch=1 n=69 v=64
119232 On ch=1 n=69 v=90
119328 Off ch=1 n=69 v=64
119328 On ch=1 n=67 v=90
119424 Off ch=1 n=67 v=64
119424 On ch=1 n=69 v=90
119520 Off ch=1 n=69 v=64
119520 On ch=1 n=69 v=90
119712 Off ch=1 n=69 v=64
119712 On ch=1 n=65 v=90
120000 Off ch=1 n=65 v=64
120000 On ch=1 n=79 v=90
120384 Off ch=1 n=79 v=64
120384 On ch=1 n=77 v=90
120768 Off ch=1 n=77 v=64
120768 On ch=1 n=76 v=90
120864 Off ch=1 n=76 v=64
120864 On ch=1 n=64 v=90
120960 Off ch=1 n=64 v=64
120960 On ch=1 n=67 v=90
121056 Off ch=1 n=67 v=64
121056 On ch=1 n=69 v=90
121248 Off ch=1 n=69 v=64
121248 On ch=1 n=65 v=90
121536 Off ch=1 n=65 v=64
121536 On ch=1 n=69 v=90
121632 Off ch=1 n=69 v=64
121632 On ch=1 n=67 v=90
121728 Off ch=1 n=67 v=64
121728 On ch=1 n=69 v=90
121824 Off ch=1 n=69 v=64
121824 On ch=1 n=72 v=90
122016 Off ch=1 n=72 v=64
122016 On ch=1 n=69 v=90
122304 Off ch=1 n=69 v=64
122304 On ch=1 n=69 v=90
122400 Off ch=1 n=69 v=64
122400 On ch=1 n=67 v=90
122496 Off ch=1 n=67 v=64
122496 On ch=1 n=69 v=90
122592 Off ch=1 n=69 v=64
122592 On ch=1 n=72 v=90
122784 Off ch=1 n=72 v=64
122784 On ch=1 n=65 v=90
123072 Off ch=1 n=65 v=64
123072 On ch=1 n=79 v=90
123456 Off ch=1 n=79 v=64
123456 On ch=1 n=77 v=90
123744 Off ch=1 n=77 v=64
123744 On ch=1 n=76 v=90
123936 Off ch=1 n=76 v=64
123936 On ch=1 n=64 v=90
124032 Off ch=1 n=64 v=64
124032 On ch=1 n=67 v=90
124128 Off ch=1 n=67 v=64
124128 On ch=1 n=69 v=90
124320 Off ch=1 n=69 v=64
124320 On ch=1 n=65 v=90
124608 Off ch=1 n=65 v=64
124608 On ch=1 n=69 v=90
124704 Off ch=1 n=69 v=64
124704 On ch=1 n=67 v=90
124800 Off ch=1 n=67 v=64
124800 On ch=1 n=69 v=90
124896 Off ch=1 n=69 v=64
124896 On ch=1 n=72 v=90
125088 Off ch=1 n=72 v=64
125088 On ch=1 n=69 v=90
125376 Off ch=1 n=69 v=64
125376 On ch=1 n=69 v=90
125472 Off ch=1 n=69 v=64
125472 On ch=1 n=67 v=90
125568 Off ch=1 n=67 v=64
125568 On ch=1 n=69 v=90
125664 Off ch=1 n=69 v=64
125664 On ch=1 n=69 v=90
125856 Off ch=1 n=69 v=64
125856 On ch=1 n=65 v=90
126144 Off ch=1 n=65 v=64
126144 On ch=1 n=79 v=90
126528 Off ch=1 n=79 v=64
126528 On ch=1 n=77 v=90
126912 Off ch=1 n=77 v=64
126912 On ch=1 n=76 v=90
127008 Off ch=1 n=76 v=64
127008 On ch=1 n=64 v=90
127104 Off ch=1 n=64 v=64
127104 On ch=1 n=67 v=90
127200 Off ch=1 n=67 v=64
127200 On ch=1 n=69 v=90
127392 Off ch=1 n=69 v=64
127392 On ch=1 n=65 v=90
127680 Off ch=1 n=65 v=64
127680 On ch=1 n=69 v=90
127776 Off ch=1 n=69 v=64
127776 On ch=1 n=67 v=90
127872 Off ch=1 n=67 v=64
127872 On ch=1 n=69 v=90
127968 Off ch=1 n=69 v=64
127968 On ch=1 n=72 v=90
128160 Off ch=1 n=72 v=64
128160 On ch=1 n=69 v=90
128448 Off ch=1 n=69 v=64
128448 On ch=1 n=69 v=90
128544 Off ch=1 n=69 v=64
128544 On ch=1 n=67 v=90
128640 Off ch=1 n=67 v=64
128640 On ch=1 n=69 v=90
128736 Off ch=1 n=69 v=64
128736 On ch=1 n=72 v=90
128928 Off ch=1 n=72 v=64
128928 On ch=1 n=65 v=90
129216 Off ch=1 n=65 v=64
129216 On ch=1 n=79 v=90
129600 Off ch=1 n=79 v=64
129600 On ch=1 n=77 v=90
129888 Off ch=1 n=77 v=64
129888 On ch=1 n=76 v=90
130080 Off ch=1 n=76 v=64
130080 On ch=1 n=64 v=90
130176 Off ch=1 n=64 v=64
130176 On ch=1 n=67 v=90
130272 Off ch=1 n=67 v=64
130272 On ch=1 n=69 v=90
130464 Off ch=1 n=69 v=64
130464 On ch=1 n=65 v=90
130752 Off ch=1 n=65 v=64
130752 On ch=1 n=69 v=90
130848 Off ch=1 n=69 v=64
130848 On ch=1 n=67 v=90
130944 Off ch=1 n=67 v=64
130944 On ch=1 n=69 v=90
131040 Off ch=1 n=69 v=64
131040 On ch=1 n=72 v=90
131232 Off ch=1 n=72 v=64
131232 On ch=1 n=69 v=90
131520 Off ch=1 n=69 v=64
131520 On ch=1 n=69 v=90
131616 Off ch=1 n=69 v=64
131616 On ch=1 n=67 v=90
131712 Off ch=1 n=67 v=64
131712 On ch=1 n=69 v=90
131808 Off ch=1 n=69 v=64
131808 On ch=1 n=69 v=90
132000 Off ch=1 n=69 v=64
132000 On ch=1 n=65 v=90
132288 Off ch=1 n=65 v=64
132288 On ch=1 n=79 v=90
132672 Off ch=1 n=79 v=64
132672 On ch=1 n=77 v=90
133056 Off ch=1 n=77 v=64
133056 On ch=1 n=76 v=90
133152 Off ch=1 n=76 v=64
133152 On ch=1 n=64 v=90
133248 Off ch=1 n=64 v=64
133248 On ch=1 n=67 v=90
133344 Off ch=1 n=67 v=64
133344 On ch=1 n=69 v=90
133536 Off ch=1 n=69 v=64
133536 On ch=1 n=65 v=90
133824 Off ch=1 n=65 v=64
133824 On ch=1 n=69 v=90
133920 Off ch=1 n=69 v=64
133920 On ch=1 n=67 v=90
134016 Off ch=1 n=67 v=64
134016 On ch=1 n=69 v=90
134112 Off ch=1 n=69 v=64
134112 On ch=1 n=72 v=90
134304 Off ch=1 n=72 v=64
134304 On ch=1 n=69 v=90
134592 Off ch=1 n=69 v=64
134592 On ch=1 n=69 v=90
134688 Off ch=1 n=69 v=64
134688 On ch=1 n=67 v=90
134784 Off ch=1 n=67 v=64
134784 On ch=1 n=69 v=90
134880 Off ch=1 n=69 v=64
134880 On ch=1 n=72 v=90
135072 Off ch=1 n=72 v=64
135072 On ch=1 n=65 v=90
135360 Off ch=1 n=65 v=64
135360 On ch=1 n=79 v=90
135744 Off ch=1 n=79 v=64
135744 On ch=1 n=77 v=90
136032 Off ch=1 n=77 v=64
136032 On ch=1 n=76 v=90
136224 Off ch=1 n=76 v=64
136224 On ch=1 n=69 v=90
136512 Off ch=1 n=69 v=64
136512 On ch=1 n=69 v=90
136608 Off ch=1 n=69 v=64
136608 On ch=1 n=67 v=90
136704 Off ch=1 n=67 v=64
136704 On ch=1 n=69 v=90
136800 Off ch=1 n=69 v=64
136800 On ch=1 n=72 v=90
136992 Off ch=1 n=72 v=64
136992 On ch=1 n=65 v=90
137280 Off ch=1 n=65 v=64
137280 On ch=1 n=79 v=90
137664 Off ch=1 n=79 v=64
137664 On ch=1 n=77 v=90
137952 Off ch=1 n=77 v=64
137952 On ch=1 n=76 v=90
138144 Off ch=1 n=76 v=64
138144 On ch=1 n=69 v=90
138432 Off ch=1 n=69 v=64
138432 On ch=1 n=69 v=90
138528 Off ch=1 n=69 v=64
138528 On ch=1 n=67 v=90
138624 Off ch=1 n=67 v=64
138624 On ch=1 n=69 v=90
138720 Off ch=1 n=69 v=64
138720 On ch=1 n=72 v=90
138912 Off ch=1 n=72 v=64
138912 On ch=1 n=69 v=90
139200 Off ch=1 n=69 v=64
139200 On ch=1 n=69 v=90
139296 Off ch=1 n=69 v=64
139296 On ch=1 n=67 v=90
139392 Off ch=1 n=67 v=64
139392 On ch=1 n=69 v=90
139488 Off ch=1 n=69 v=64
139488 On ch=1 n=72 v=90
139680 Off ch=1 n=72 v=64
139680 On ch=1 n=69 v=90
139968 Off ch=1 n=69 v=64
139968 On ch=1 n=69 v=90
140064 Off ch=1 n=69 v=64
140064 On ch=1 n=67 v=90
140160 Off ch=1 n=67 v=64
140160 On ch=1 n=69 v=90
140256 Off ch=1 n=69 v=64
140256 On ch=1 n=72 v=90
140448 Off ch=1 n=72 v=64
140448 On ch=1 n=69 v=90
140736 Off ch=1 n=69 v=64
140736 On ch=1 n=69 v=90
140832 Off ch=1 n=69 v=64
140832 On ch=1 n=67 v=90
140928 Off ch=1 n=67 v=64
140928 On ch=1 n=69 v=90
141024 Off ch=1 n=69 v=64
141024 On ch=1 n=72 v=90
141216 Off ch=1 n=72 v=64
141216 Meta TrkEnd
TrkEnd
MTrk
0 Meta 0x21 00
0 Meta TrkName "Lead Guitar 1       "
0 PrCh ch=3 p=3
0 On ch=3 n=81 v=90
96 Off ch=3 n=81 v=64
96 On ch=3 n=81 v=90
288 Off ch=3 n=81 v=64
288 On ch=3 n=81 v=90
480 Off ch=3 n=81 v=64
480 On ch=3 n=79 v=90
576 Off ch=3 n=79 v=64
576 On ch=3 n=81 v=90
672 Off ch=3 n=81 v=64
672 On ch=3 n=80 v=90
768 Off ch=3 n=80 v=64
768 On ch=3 n=81 v=90
864 Off ch=3 n=81 v=64
864 On ch=3 n=81 v=90
1056 Off ch=3 n=81 v=64
1056 On ch=3 n=84 v=90
1248 Off ch=3 n=84 v=64
1248 On ch=3 n=84 v=90
1344 Off ch=3 n=84 v=64
1344 On ch=3 n=81 v=90
1440 Off ch=3 n=81 v=64
1440 On ch=3 n=81 v=90
1536 Off ch=3 n=81 v=64
1536 On ch=3 n=88 v=90
1632 Off ch=3 n=88 v=64
1632 On ch=3 n=86 v=90
1824 Off ch=3 n=86 v=64
1824 On ch=3 n=84 v=90
2112 Off ch=3 n=84 v=64
2112 On ch=3 n=81 v=90
2208 Off ch=3 n=81 v=64
2208 On ch=3 n=81 v=90
2304 Off ch=3 n=81 v=64
2304 On ch=3 n=84 v=90
2400 Off ch=3 n=84 v=64
2400 On ch=3 n=85 v=90
2592 Off ch=3 n=85 v=64
2592 On ch=3 n=81 v=90
3152 Off ch=3 n=81 v=64
6144 On ch=3 n=81 v=90
6240 Off ch=3 n=81 v=64
6240 On ch=3 n=81 v=90
6432 Off ch=3 n=81 v=64
6432 On ch=3 n=81 v=90
6720 Off ch=3 n=81 v=64
6720 On ch=3 n=81 v=90
6816 Off ch=3 n=81 v=64
6816 On ch=3 n=79 v=90
6912 Off ch=3 n=79 v=64
6912 On ch=3 n=81 v=90
7008 Off ch=3 n=81 v=64
7008 On ch=3 n=81 v=90
7200 Off ch=3 n=81 v=64
7200 On ch=3 n=84 v=90
7488 Off ch=3 n=84 v=64
7488 On ch=3 n=81 v=90
7584 Off ch=3 n=81 v=64
7584 On ch=3 n=81 v=90
7680 Off ch=3 n=81 v=64
7680 On ch=3 n=88 v=90
7776 Off ch=3 n=88 v=64
7776 On ch=3 n=86 v=90
7968 Off ch=3 n=86 v=64
7968 On ch=3 n=84 v=90
8256 Off ch=3 n=84 v=64
8256 On ch=3 n=81 v=90
8352 Off ch=3 n=81 v=64
8352 On ch=3 n=81 v=90
8448 Off ch=3 n=81 v=64
8448 On ch=3 n=84 v=90
8544 Off ch=3 n=84 v=64
8544 On ch=3 n=85 v=90
8736 Off ch=3 n=85 v=64
8736 On ch=3 n=81 v=90
8928 Off ch=3 n=81 v=64
8928 On ch=3 n=79 v=90
9216 Off ch=3 n=79 v=64
12288 On ch=3 n=81 v=90
12384 Off ch=3 n=81 v=64
12384 On ch=3 n=81 v=90
12576 Off ch=3 n=81 v=64
12576 On ch=3 n=81 v=90
12768 Off ch=3 n=81 v=64
12768 On ch=3 n=81 v=90
12864 Off ch=3 n=81 v=64
12864 On ch=3 n=81 v=90
12960 Off ch=3 n=81 v=64
12960 On ch=3 n=81 v=90
13056 Off ch=3 n=81 v=64
13056 On ch=3 n=81 v=90
13152 Off ch=3 n=81 v=64
13152 On ch=3 n=81 v=90
13344 Off ch=3 n=81 v=64
13344 On ch=3 n=84 v=90
13632 Off ch=3 n=84 v=64
13632 On ch=3 n=81 v=90
13728 Off ch=3 n=81 v=64
13728 On ch=3 n=81 v=90
13824 Off ch=3 n=81 v=64
13824 On ch=3 n=88 v=90
13920 Off ch=3 n=88 v=64
13920 On ch=3 n=86 v=90
14112 Off ch=3 n=86 v=64
14112 On ch=3 n=84 v=90
14400 Off ch=3 n=84 v=64
14400 On ch=3 n=81 v=90
14592 Off ch=3 n=81 v=64
14592 On ch=3 n=84 v=90
14688 Off ch=3 n=84 v=64
14688 On ch=3 n=85 v=90
14880 Off ch=3 n=85 v=64
14880 On ch=3 n=81 v=90
15072 Off ch=3 n=81 v=64
15072 On ch=3 n=79 v=90
15360 Off ch=3 n=79 v=64
25056 On ch=3 n=81 v=90
25344 Off ch=3 n=81 v=64
25344 On ch=3 n=77 v=90
25728 Off ch=3 n=77 v=64
25824 On ch=3 n=81 v=90
26112 Off ch=3 n=81 v=64
26112 On ch=3 n=77 v=90
26496 Off ch=3 n=77 v=64
26592 On ch=3 n=88 v=90
26880 Off ch=3 n=88 v=64
26976 On ch=3 n=86 v=90
27264 Off ch=3 n=86 v=64
27360 On ch=3 n=84 v=90
27456 Off ch=3 n=84 v=64
27456 On ch=3 n=81 v=90
28032 Off ch=3 n=81 v=64
28128 On ch=3 n=81 v=90
28416 Off ch=3 n=81 v=64
28416 On ch=3 n=77 v=90
28800 Off ch=3 n=77 v=64
28896 On ch=3 n=81 v=90
29184 Off ch=3 n=81 v=64
29184 On ch=3 n=77 v=90
29568 Off ch=3 n=77 v=64
29664 On ch=3 n=88 v=90
29952 Off ch=3 n=88 v=64
30048 On ch=3 n=86 v=90
30336 Off ch=3 n=86 v=64
30432 On ch=3 n=84 v=90
30528 Off ch=3 n=84 v=64
30528 On ch=3 n=81 v=90
31104 Off ch=3 n=81 v=64
31104 On ch=3 n=88 v=90
31296 Off ch=3 n=88 v=64
31296 On ch=3 n=86 v=90
31392 Off ch=3 n=86 v=64
31392 On ch=3 n=86 v=90
31488 Off ch=3 n=86 v=64
31488 On ch=3 n=84 v=90
31872 Off ch=3 n=84 v=64
31872 On ch=3 n=81 v=90
32064 Off ch=3 n=81 v=64
32064 On ch=3 n=81 v=90
32256 Off ch=3 n=81 v=64
32256 On ch=3 n=84 v=90
32448 Off ch=3 n=84 v=64
32448 On ch=3 n=81 v=90
32544 Off ch=3 n=81 v=64
32544 On ch=3 n=81 v=90
32640 Off ch=3 n=81 v=64
32640 On ch=3 n=88 v=90
32832 Off ch=3 n=88 v=64
32832 On ch=3 n=86 v=90
32928 Off ch=3 n=86 v=64
32928 On ch=3 n=86 v=90
33024 Off ch=3 n=86 v=64
33024 On ch=3 n=84 v=90
33216 Off ch=3 n=84 v=64
33216 On ch=3 n=81 v=90
33408 Off ch=3 n=81 v=64
33408 On ch=3 n=84 v=90
33504 Off ch=3 n=84 v=64
33504 On ch=3 n=84 v=90
33696 Off ch=3 n=84 v=64
33696 On ch=3 n=81 v=90
33888 Off ch=3 n=81 v=64
33888 On ch=3 n=80 v=90
33904 Off ch=3 n=80 v=64
33904 On ch=3 n=79 v=90
34176 Off ch=3 n=79 v=64
36960 On ch=3 n=88 v=90
37152 Off ch=3 n=88 v=64
37152 On ch=3 n=86 v=90
37248 Off ch=3 n=86 v=64
37248 On ch=3 n=84 v=90
37728 Off ch=3 n=84 v=64
37728 On ch=3 n=81 v=90
37824 Off ch=3 n=81 v=64
37824 On ch=3 n=81 v=90
38016 Off ch=3 n=81 v=64
38016 On ch=3 n=81 v=90
38112 Off ch=3 n=81 v=64
38112 On ch=3 n=80 v=90
38128 Off ch=3 n=80 v=64
38128 On ch=3 n=79 v=90
38144 Off ch=3 n=79 v=64
38144 On ch=3 n=78 v=90
38160 Off ch=3 n=78 v=64
38160 On ch=3 n=77 v=90
38176 Off ch=3 n=77 v=64
38176 On ch=3 n=76 v=90
38496 Off ch=3 n=76 v=64
38496 On ch=3 n=88 v=90
38688 Off ch=3 n=88 v=64
38688 On ch=3 n=86 v=90
38784 Off ch=3 n=86 v=64
38784 On ch=3 n=84 v=90
38976 Off ch=3 n=84 v=64
38976 On ch=3 n=81 v=90
39264 Off ch=3 n=81 v=64
39264 On ch=3 n=84 v=90
39360 Off ch=3 n=84 v=64
39360 On ch=3 n=84 v=90
39552 Off ch=3 n=84 v=64
39552 On ch=3 n=81 v=90
39744 Off ch=3 n=81 v=64
39744 On ch=3 n=80 v=90
39760 Off ch=3 n=80 v=64
39760 On ch=3 n=79 v=90
40032 Off ch=3 n=79 v=64
43104 On ch=3 n=84 v=90
43488 Off ch=3 n=84 v=64
43488 On ch=3 n=81 v=90
43872 Off ch=3 n=81 v=64
43872 On ch=3 n=84 v=90
44256 Off ch=3 n=84 v=64
44256 On ch=3 n=86 v=90
44640 Off ch=3 n=86 v=64
44640 On ch=3 n=84 v=90
45024 Off ch=3 n=84 v=64
45024 On ch=3 n=81 v=90
45408 Off ch=3 n=81 v=64
45408 On ch=3 n=84 v=90
45792 Off ch=3 n=84 v=64
45792 On ch=3 n=86 v=90
46176 Off ch=3 n=86 v=64
46176 On ch=3 n=84 v=90
46560 Off ch=3 n=84 v=64
46560 On ch=3 n=81 v=90
46944 Off ch=3 n=81 v=64
46944 On ch=3 n=84 v=90
47328 Off ch=3 n=84 v=64
47328 On ch=3 n=86 v=90
47712 Off ch=3 n=86 v=64
47712 On ch=3 n=84 v=90
49440 Off ch=3 n=84 v=64
49440 On ch=3 n=81 v=90
49632 Off ch=3 n=81 v=64
49632 On ch=3 n=81 v=90
49824 Off ch=3 n=81 v=64
49824 On ch=3 n=77 v=90
50208 Off ch=3 n=77 v=64
50208 On ch=3 n=81 v=90
50400 Off ch=3 n=81 v=64
50400 On ch=3 n=81 v=90
50592 Off ch=3 n=81 v=64
50592 On ch=3 n=77 v=90
50976 Off ch=3 n=77 v=64
50976 On ch=3 n=81 v=90
51072 Off ch=3 n=81 v=64
51072 On ch=3 n=81 v=90
51168 Off ch=3 n=81 v=64
51168 On ch=3 n=81 v=90
51360 Off ch=3 n=81 v=64
51360 On ch=3 n=77 v=90
51552 Off ch=3 n=77 v=64
51552 On ch=3 n=86 v=90
51648 Off ch=3 n=86 v=64
51648 On ch=3 n=86 v=90
51744 Off ch=3 n=86 v=64
51744 On ch=3 n=86 v=90
51840 Off ch=3 n=86 v=64
51840 On ch=3 n=88 v=90
51936 Off ch=3 n=88 v=64
51936 On ch=3 n=84 v=90
52032 Off ch=3 n=84 v=64
52032 On ch=3 n=83 v=90
52128 Off ch=3 n=83 v=64
52128 On ch=3 n=81 v=90
52224 Off ch=3 n=81 v=64
52224 On ch=3 n=83 v=90
52416 Off ch=3 n=83 v=64
55584 On ch=3 n=81 v=90
55776 Off ch=3 n=81 v=64
55776 On ch=3 n=81 v=90
55968 Off ch=3 n=81 v=64
55968 On ch=3 n=77 v=90
56352 Off ch=3 n=77 v=64
56352 On ch=3 n=81 v=90
56544 Off ch=3 n=81 v=64
56544 On ch=3 n=81 v=90
56736 Off ch=3 n=81 v=64
56736 On ch=3 n=77 v=90
57120 Off ch=3 n=77 v=64
57120 On ch=3 n=81 v=90
57216 Off ch=3 n=81 v=64
57216 On ch=3 n=81 v=90
57312 Off ch=3 n=81 v=64
57312 On ch=3 n=81 v=90
57504 Off ch=3 n=81 v=64
57504 On ch=3 n=77 v=90
57696 Off ch=3 n=77 v=64
57696 On ch=3 n=86 v=90
57792 Off ch=3 n=86 v=64
57792 On ch=3 n=86 v=90
57888 Off ch=3 n=86 v=64
57888 On ch=3 n=86 v=90
57984 Off ch=3 n=86 v=64
57984 On ch=3 n=88 v=90
58080 Off ch=3 n=88 v=64
58080 On ch=3 n=84 v=90
58176 Off ch=3 n=84 v=64
58176 On ch=3 n=83 v=90
58272 Off ch=3 n=83 v=64
58272 On ch=3 n=81 v=90
58368 Off ch=3 n=81 v=64
58368 On ch=3 n=83 v=90
58560 Off ch=3 n=83 v=64
61728 On ch=3 n=81 v=90
61824 Off ch=3 n=81 v=64
61824 On ch=3 n=81 v=90
61920 Off ch=3 n=81 v=64
61920 On ch=3 n=88 v=90
62016 Off ch=3 n=88 v=64
62016 On ch=3 n=86 v=90
62208 Off ch=3 n=86 v=64
62208 On ch=3 n=83 v=90
62496 Off ch=3 n=83 v=64
62496 On ch=3 n=79 v=90
62688 Off ch=3 n=79 v=64
62688 On ch=3 n=81 v=90
62784 Off ch=3 n=81 v=64
62784 On ch=3 n=81 v=90
62976 Off ch=3 n=81 v=64
62976 On ch=3 n=84 v=90
63360 Off ch=3 n=84 v=64
63360 On ch=3 n=81 v=90
63456 Off ch=3 n=81 v=64
63456 On ch=3 n=88 v=90
63552 Off ch=3 n=88 v=64
63552 On ch=3 n=86 v=90
63744 Off ch=3 n=86 v=64
63744 On ch=3 n=84 v=90
64032 Off ch=3 n=84 v=64
64032 On ch=3 n=81 v=90
64224 Off ch=3 n=81 v=64
64224 On ch=3 n=84 v=90
64320 Off ch=3 n=84 v=64
64320 On ch=3 n=84 v=90
64512 Off ch=3 n=84 v=64
64512 On ch=3 n=81 v=90
64704 Off ch=3 n=81 v=64
64704 On ch=3 n=81 v=90
64992 Off ch=3 n=81 v=64
68064 On ch=3 n=88 v=90
68256 Off ch=3 n=88 v=64
68256 On ch=3 n=86 v=90
68352 Off ch=3 n=86 v=64
68352 On ch=3 n=84 v=90
68544 Off ch=3 n=84 v=64
68544 On ch=3 n=81 v=90
68832 Off ch=3 n=81 v=64
68832 On ch=3 n=81 v=90
68928 Off ch=3 n=81 v=64
68928 On ch=3 n=81 v=90
69120 Off ch=3 n=81 v=64
69120 On ch=3 n=84 v=90
69408 Off ch=3 n=84 v=64
69408 On ch=3 n=81 v=90
69504 Off ch=3 n=81 v=64
69504 On ch=3 n=81 v=90
69600 Off ch=3 n=81 v=64
69600 On ch=3 n=88 v=90
69696 Off ch=3 n=88 v=64
69696 On ch=3 n=88 v=90
69792 Off ch=3 n=88 v=64
69792 On ch=3 n=86 v=90
69888 Off ch=3 n=86 v=64
69888 On ch=3 n=83 v=90
69984 Off ch=3 n=83 v=64
69984 On ch=3 n=83 v=90
70080 Off ch=3 n=83 v=64
70080 On ch=3 n=81 v=90
70176 Off ch=3 n=81 v=64
70176 On ch=3 n=81 v=90
70272 Off ch=3 n=81 v=64
70272 On ch=3 n=81 v=90
70368 Off ch=3 n=81 v=64
70368 On ch=3 n=84 v=90
70464 Off ch=3 n=84 v=64
70464 On ch=3 n=84 v=90
70656 Off ch=3 n=84 v=64
70656 On ch=3 n=81 v=90
71136 Off ch=3 n=81 v=64
74208 On ch=3 n=81 v=90
74304 Off ch=3 n=81 v=64
74304 On ch=3 n=81 v=90
74496 Off ch=3 n=81 v=64
74496 On ch=3 n=81 v=90
74880 Off ch=3 n=81 v=64
74880 On ch=3 n=79 v=90
74976 Off ch=3 n=79 v=64
74976 On ch=3 n=81 v=90
75072 Off ch=3 n=81 v=64
75072 On ch=3 n=81 v=90
75264 Off ch=3 n=81 v=64
75264 On ch=3 n=81 v=90
75648 Off ch=3 n=81 v=64
75648 On ch=3 n=81 v=90
75744 Off ch=3 n=81 v=64
75744 On ch=3 n=84 v=90
75856 Off ch=3 n=84 v=64
75856 On ch=3 n=84 v=90
76032 Off ch=3 n=84 v=64
76032 On ch=3 n=84 v=90
76224 Off ch=3 n=84 v=64
76224 On ch=3 n=81 v=90
76320 Off ch=3 n=81 v=64
76320 On ch=3 n=81 v=90
76512 Off ch=3 n=81 v=64
76512 On ch=3 n=84 v=90
76608 Off ch=3 n=84 v=64
76608 On ch=3 n=84 v=90
76800 Off ch=3 n=84 v=64
76800 On ch=3 n=81 v=90
77280 Off ch=3 n=81 v=64
77568 On ch=3 n=64 v=90
77664 Off ch=3 n=64 v=64
77664 On ch=3 n=67 v=90
77760 Off ch=3 n=67 v=64
77760 On ch=3 n=68 v=90
77856 Off ch=3 n=68 v=64
77856 On ch=3 n=69 v=90
77952 Off ch=3 n=69 v=64
77952 On ch=3 n=64 v=90
78048 Off ch=3 n=64 v=64
78048 On ch=3 n=72 v=90
78240 Off ch=3 n=72 v=64
78240 On ch=3 n=69 v=90
78432 Off ch=3 n=69 v=64
78432 On ch=3 n=74 v=90
78528 Off ch=3 n=74 v=64
78528 On ch=3 n=76 v=90
78624 Off ch=3 n=76 v=64
78624 On ch=3 n=72 v=90
78688 Off ch=3 n=72 v=64
78688 On ch=3 n=74 v=90
78752 Off ch=3 n=74 v=64
78752 On ch=3 n=72 v=90
78816 Off ch=3 n=72 v=64
78816 On ch=3 n=69 v=90
78912 Off ch=3 n=69 v=64
78912 On ch=3 n=69 v=90
79008 Off ch=3 n=69 v=64
79008 On ch=3 n=72 v=90
79200 Off ch=3 n=72 v=64
79200 On ch=3 n=69 v=90
79392 Off ch=3 n=69 v=64
79392 On ch=3 n=67 v=90
79488 Off ch=3 n=67 v=64
79488 On ch=3 n=69 v=90
79584 Off ch=3 n=69 v=64
79584 On ch=3 n=69 v=90
79680 Off ch=3 n=69 v=64
79680 On ch=3 n=62 v=90
79776 Off ch=3 n=62 v=64
79776 On ch=3 n=64 v=90
79872 Off ch=3 n=64 v=64
79872 On ch=3 n=60 v=90
79968 Off ch=3 n=60 v=64
79968 On ch=3 n=62 v=90
80064 Off ch=3 n=62 v=64
80064 On ch=3 n=57 v=90
80352 Off ch=3 n=57 v=64
80352 On ch=3 n=57 v=90
80640 Off ch=3 n=57 v=64
80640 On ch=3 n=59 v=90
80736 Off ch=3 n=59 v=64
80736 On ch=3 n=62 v=90
80832 Off ch=3 n=62 v=64
80832 On ch=3 n=63 v=90
80928 Off ch=3 n=63 v=64
80928 On ch=3 n=64 v=90
81024 Off ch=3 n=64 v=64
81024 On ch=3 n=59 v=90
81120 Off ch=3 n=59 v=64
81120 On ch=3 n=67 v=90
81312 Off ch=3 n=67 v=64
81312 On ch=3 n=64 v=90
81504 Off ch=3 n=64 v=64
81504 On ch=3 n=59 v=90
81600 Off ch=3 n=59 v=64
81600 On ch=3 n=62 v=90
81696 Off ch=3 n=62 v=64
81696 On ch=3 n=63 v=90
81792 Off ch=3 n=63 v=64
81792 On ch=3 n=64 v=90
81888 Off ch=3 n=64 v=64
81888 On ch=3 n=59 v=90
81984 Off ch=3 n=59 v=64
81984 On ch=3 n=67 v=90
82176 Off ch=3 n=67 v=64
82176 On ch=3 n=64 v=90
82368 Off ch=3 n=64 v=64
82368 On ch=3 n=59 v=90
82464 Off ch=3 n=59 v=64
82464 On ch=3 n=62 v=90
82560 Off ch=3 n=62 v=64
82560 On ch=3 n=63 v=90
82656 Off ch=3 n=63 v=64
82656 On ch=3 n=64 v=90
82752 Off ch=3 n=64 v=64
82752 On ch=3 n=59 v=90
82848 Off ch=3 n=59 v=64
82848 On ch=3 n=67 v=90
83040 Off ch=3 n=67 v=64
83040 On ch=3 n=64 v=90
83136 Off ch=3 n=64 v=64
83136 On ch=3 n=59 v=90
83232 Off ch=3 n=59 v=64
83232 On ch=3 n=62 v=90
83328 Off ch=3 n=62 v=64
83328 On ch=3 n=63 v=90
83424 Off ch=3 n=63 v=64
83424 On ch=3 n=64 v=90
83520 Off ch=3 n=64 v=64
83520 On ch=3 n=62 v=90
83616 Off ch=3 n=62 v=64
83616 On ch=3 n=64 v=90
83712 Off ch=3 n=64 v=64
83712 On ch=3 n=67 v=90
83808 Off ch=3 n=67 v=64
83808 On ch=3 n=68 v=90
83904 Off ch=3 n=68 v=64
83904 On ch=3 n=69 v=90
84000 Off ch=3 n=69 v=64
84000 On ch=3 n=64 v=90
84096 Off ch=3 n=64 v=64
84096 On ch=3 n=72 v=90
84384 Off ch=3 n=72 v=64
84384 On ch=3 n=69 v=90
84576 Off ch=3 n=69 v=64
84576 On ch=3 n=74 v=90
84672 Off ch=3 n=74 v=64
84672 On ch=3 n=76 v=90
84768 Off ch=3 n=76 v=64
84768 On ch=3 n=72 v=90
84832 Off ch=3 n=72 v=64
84832 On ch=3 n=74 v=90
84896 Off ch=3 n=74 v=64
84896 On ch=3 n=73 v=90
84960 Off ch=3 n=73 v=64
84960 On ch=3 n=69 v=90
85056 Off ch=3 n=69 v=64
85056 On ch=3 n=69 v=90
85152 Off ch=3 n=69 v=64
85152 On ch=3 n=72 v=90
85344 Off ch=3 n=72 v=64
85344 On ch=3 n=69 v=90
85536 Off ch=3 n=69 v=64
85536 On ch=3 n=67 v=90
85632 Off ch=3 n=67 v=64
85632 On ch=3 n=69 v=90
85728 Off ch=3 n=69 v=64
85728 On ch=3 n=69 v=90
85824 Off ch=3 n=69 v=64
85824 On ch=3 n=62 v=90
85920 Off ch=3 n=62 v=64
85920 On ch=3 n=64 v=90
86016 Off ch=3 n=64 v=64
86016 On ch=3 n=60 v=90
86112 Off ch=3 n=60 v=64
86112 On ch=3 n=62 v=90
86208 Off ch=3 n=62 v=64
86208 On ch=3 n=57 v=90
86496 Off ch=3 n=57 v=64
86496 On ch=3 n=57 v=90
86784 Off ch=3 n=57 v=64
86784 On ch=3 n=64 v=90
86880 Off ch=3 n=64 v=64
86880 On ch=3 n=60 v=90
86976 Off ch=3 n=60 v=64
86976 On ch=3 n=81 v=90
87264 Off ch=3 n=81 v=64
87264 On ch=3 n=77 v=90
87648 Off ch=3 n=77 v=64
87744 On ch=3 n=81 v=90
88032 Off ch=3 n=81 v=64
88032 On ch=3 n=77 v=90
88416 Off ch=3 n=77 v=64
88512 On ch=3 n=88 v=90
88800 Off ch=3 n=88 v=64
88896 On ch=3 n=86 v=90
89184 Off ch=3 n=86 v=64
89280 On ch=3 n=84 v=90
89376 Off ch=3 n=84 v=64
89376 On ch=3 n=81 v=90
89952 Off ch=3 n=81 v=64
90048 On ch=3 n=81 v=90
90336 Off ch=3 n=81 v=64
90336 On ch=3 n=77 v=90
90720 Off ch=3 n=77 v=64
90816 On ch=3 n=81 v=90
91104 Off ch=3 n=81 v=64
91104 On ch=3 n=77 v=90
91488 Off ch=3 n=77 v=64
91584 On ch=3 n=88 v=90
91872 Off ch=3 n=88 v=64
91968 On ch=3 n=86 v=90
92256 Off ch=3 n=86 v=64
92352 On ch=3 n=84 v=90
92448 Off ch=3 n=84 v=64
92448 On ch=3 n=81 v=90
93024 Off ch=3 n=81 v=64
93024 On ch=3 n=88 v=90
93072 Off ch=3 n=88 v=64
93072 On ch=3 n=88 v=90
93120 Off ch=3 n=88 v=64
93120 On ch=3 n=86 v=90
93312 Off ch=3 n=86 v=64
93312 On ch=3 n=84 v=90
93600 Off ch=3 n=84 v=64
93600 On ch=3 n=81 v=90
93792 Off ch=3 n=81 v=64
93792 On ch=3 n=81 v=90
93888 Off ch=3 n=81 v=64
93888 On ch=3 n=81 v=90
94080 Off ch=3 n=81 v=64
94080 On ch=3 n=84 v=90
94560 Off ch=3 n=84 v=64
94560 On ch=3 n=88 v=90
94656 Off ch=3 n=88 v=64
94656 On ch=3 n=88 v=90
94752 Off ch=3 n=88 v=64
94752 On ch=3 n=86 v=90
94848 Off ch=3 n=86 v=64
94848 On ch=3 n=86 v=90
94944 Off ch=3 n=86 v=64
94944 On ch=3 n=84 v=90
95040 Off ch=3 n=84 v=64
95040 On ch=3 n=84 v=90
95136 Off ch=3 n=84 v=64
95136 On ch=3 n=81 v=90
95232 Off ch=3 n=81 v=64
95232 On ch=3 n=81 v=90
95328 Off ch=3 n=81 v=64
95328 On ch=3 n=84 v=90
95424 Off ch=3 n=84 v=64
95424 On ch=3 n=84 v=90
95616 Off ch=3 n=84 v=64
95616 On ch=3 n=81 v=90
95792 Off ch=3 n=81 v=64
95792 On ch=3 n=80 v=90
95808 Off ch=3 n=80 v=64
95808 On ch=3 n=79 v=90
96096 Off ch=3 n=79 v=64
99168 On ch=3 n=88 v=90
99264 Off ch=3 n=88 v=64
99264 On ch=3 n=86 v=90
99456 Off ch=3 n=86 v=64
99456 On ch=3 n=84 v=90
99648 Off ch=3 n=84 v=64
99648 On ch=3 n=81 v=90
99744 Off ch=3 n=81 v=64
99744 On ch=3 n=81 v=90
99840 Off ch=3 n=81 v=64
99840 On ch=3 n=81 v=90
99936 Off ch=3 n=81 v=64
99936 On ch=3 n=81 v=90
100032 Off ch=3 n=81 v=64
100032 On ch=3 n=81 v=90
100224 Off ch=3 n=81 v=64
100224 On ch=3 n=84 v=90
100608 Off ch=3 n=84 v=64
100608 On ch=3 n=81 v=90
100704 Off ch=3 n=81 v=64
100704 On ch=3 n=88 v=90
100800 Off ch=3 n=88 v=64
100800 On ch=3 n=88 v=90
100896 Off ch=3 n=88 v=64
100896 On ch=3 n=86 v=90
100992 Off ch=3 n=86 v=64
100992 On ch=3 n=84 v=90
101280 Off ch=3 n=84 v=64
101280 On ch=3 n=81 v=90
101344 Off ch=3 n=81 v=64
101344 On ch=3 n=81 v=90
101408 Off ch=3 n=81 v=64
101408 On ch=3 n=81 v=90
101472 Off ch=3 n=81 v=64
101472 On ch=3 n=84 v=90
101568 Off ch=3 n=84 v=64
101568 On ch=3 n=84 v=90
101760 Off ch=3 n=84 v=64
101760 On ch=3 n=81 v=90
101952 Off ch=3 n=81 v=64
101952 On ch=3 n=80 v=90
101968 Off ch=3 n=80 v=64
101968 On ch=3 n=79 v=90
102240 Off ch=3 n=79 v=64
105312 On ch=3 n=84 v=90
105696 Off ch=3 n=84 v=64
105696 On ch=3 n=81 v=90
106080 Off ch=3 n=81 v=64
106080 On ch=3 n=84 v=90
106464 Off ch=3 n=84 v=64
106464 On ch=3 n=86 v=90
106848 Off ch=3 n=86 v=64
106848 On ch=3 n=84 v=90
107232 Off ch=3 n=84 v=64
107232 On ch=3 n=81 v=90
107616 Off ch=3 n=81 v=64
107616 On ch=3 n=84 v=90
108000 Off ch=3 n=84 v=64
108000 On ch=3 n=86 v=90
108384 Off ch=3 n=86 v=64
108384 On ch=3 n=84 v=90
108768 Off ch=3 n=84 v=64
108768 On ch=3 n=81 v=90
109152 Off ch=3 n=81 v=64
109152 On ch=3 n=84 v=90
109536 Off ch=3 n=84 v=64
109536 On ch=3 n=86 v=90
109920 Off ch=3 n=86 v=64
109920 On ch=3 n=84 v=90
111648 Off ch=3 n=84 v=64
111648 On ch=3 n=81 v=90
111840 Off ch=3 n=81 v=64
111840 On ch=3 n=81 v=90
112032 Off ch=3 n=81 v=64
112032 On ch=3 n=77 v=90
112416 Off ch=3 n=77 v=64
112416 On ch=3 n=81 v=90
112608 Off ch=3 n=81 v=64
112608 On ch=3 n=81 v=90
112800 Off ch=3 n=81 v=64
112800 On ch=3 n=77 v=90
113184 Off ch=3 n=77 v=64
113184 On ch=3 n=81 v=90
113280 Off ch=3 n=81 v=64
113280 On ch=3 n=81 v=90
113376 Off ch=3 n=81 v=64
113376 On ch=3 n=81 v=90
113568 Off ch=3 n=81 v=64
113568 On ch=3 n=77 v=90
113760 Off ch=3 n=77 v=64
113760 On ch=3 n=86 v=90
113856 Off ch=3 n=86 v=64
113856 On ch=3 n=86 v=90
113952 Off ch=3 n=86 v=64
113952 On ch=3 n=86 v=90
114048 Off ch=3 n=86 v=64
114048 On ch=3 n=88 v=90
114144 Off ch=3 n=88 v=64
114144 On ch=3 n=84 v=90
114240 Off ch=3 n=84 v=64
114240 On ch=3 n=83 v=90
114336 Off ch=3 n=83 v=64
114336 On ch=3 n=81 v=90
114432 Off ch=3 n=81 v=64
114432 On ch=3 n=83 v=90
114624 Off ch=3 n=83 v=64
117792 On ch=3 n=81 v=90
117984 Off ch=3 n=81 v=64
117984 On ch=3 n=81 v=90
118176 Off ch=3 n=81 v=64
118176 On ch=3 n=77 v=90
118560 Off ch=3 n=77 v=64
118560 On ch=3 n=81 v=90
118752 Off ch=3 n=81 v=64
118752 On ch=3 n=81 v=90
118944 Off ch=3 n=81 v=64
118944 On ch=3 n=77 v=90
119328 Off ch=3 n=77 v=64
119328 On ch=3 n=81 v=90
119424 Off ch=3 n=81 v=64
119424 On ch=3 n=81 v=90
119520 Off ch=3 n=81 v=64
119520 On ch=3 n=81 v=90
119712 Off ch=3 n=81 v=64
119712 On ch=3 n=77 v=90
119904 Off ch=3 n=77 v=64
119904 On ch=3 n=86 v=90
120000 Off ch=3 n=86 v=64
120000 On ch=3 n=86 v=90
120096 Off ch=3 n=86 v=64
120096 On ch=3 n=86 v=90
120192 Off ch=3 n=86 v=64
120192 On ch=3 n=88 v=90
120288 Off ch=3 n=88 v=64
120288 On ch=3 n=84 v=90
120384 Off ch=3 n=84 v=64
120384 On ch=3 n=83 v=90
120480 Off ch=3 n=83 v=64
120480 On ch=3 n=81 v=90
120576 Off ch=3 n=81 v=64
120576 On ch=3 n=83 v=90
120768 Off ch=3 n=83 v=64
123792 PrCh ch=3 p=2
123936 On ch=3 n=75 v=90
123984 Off ch=3 n=75 v=64
123984 On ch=3 n=78 v=90
124032 Off ch=3 n=78 v=64
124032 On ch=3 n=81 v=90
124128 Off ch=3 n=81 v=64
124128 On ch=3 n=81 v=90
124320 Off ch=3 n=81 v=64
124320 On ch=3 n=79 v=90
124368 Off ch=3 n=79 v=64
124368 On ch=3 n=77 v=90
124416 Off ch=3 n=77 v=64
124416 On ch=3 n=74 v=90
124464 Off ch=3 n=74 v=64
124464 On ch=3 n=77 v=90
124704 Off ch=3 n=77 v=64
124704 On ch=3 n=81 v=90
124752 Off ch=3 n=81 v=64
124752 On ch=3 n=84 v=90
124800 Off ch=3 n=84 v=64
124800 On ch=3 n=78 v=90
124848 Off ch=3 n=78 v=64
124848 On ch=3 n=81 v=90
124896 Off ch=3 n=81 v=64
124896 On ch=3 n=81 v=90
125088 Off ch=3 n=81 v=64
125088 On ch=3 n=84 v=90
125136 Off ch=3 n=84 v=64
125136 On ch=3 n=87 v=90
125184 Off ch=3 n=87 v=64
125184 On ch=3 n=89 v=90
125280 Off ch=3 n=89 v=64
125376 On ch=3 n=74 v=90
125424 Off ch=3 n=74 v=64
125424 On ch=3 n=77 v=90
125472 Off ch=3 n=77 v=64
125472 On ch=3 n=84 v=90
125520 Off ch=3 n=84 v=64
125568 On ch=3 n=81 v=90
125664 Off ch=3 n=81 v=64
125664 On ch=3 n=81 v=90
125856 Off ch=3 n=81 v=64
125856 On ch=3 n=77 v=90
126048 Off ch=3 n=77 v=64
126048 On ch=3 n=86 v=90
126096 Off ch=3 n=86 v=64
126144 On ch=3 n=79 v=90
126192 Off ch=3 n=79 v=64
126240 On ch=3 n=86 v=90
126336 Off ch=3 n=86 v=64
126336 On ch=3 n=88 v=90
126432 Off ch=3 n=88 v=64
126432 On ch=3 n=84 v=90
126528 Off ch=3 n=84 v=64
126528 On ch=3 n=83 v=90
126624 Off ch=3 n=83 v=64
126624 On ch=3 n=81 v=90
126720 Off ch=3 n=81 v=64
126720 On ch=3 n=83 v=90
126912 Off ch=3 n=83 v=64
126912 On ch=3 n=88 v=90
127008 Off ch=3 n=88 v=64
127008 On ch=3 n=76 v=90
127104 Off ch=3 n=76 v=64
127104 On ch=3 n=79 v=90
127200 Off ch=3 n=79 v=64
127200 On ch=3 n=81 v=90
127392 Off ch=3 n=81 v=64
127392 On ch=3 n=77 v=90
127680 Off ch=3 n=77 v=64
127680 On ch=3 n=81 v=90
127776 Off ch=3 n=81 v=64
127776 On ch=3 n=79 v=90
127872 Off ch=3 n=79 v=64
127872 On ch=3 n=81 v=90
127968 Off ch=3 n=81 v=64
127968 On ch=3 n=84 v=90
128160 Off ch=3 n=84 v=64
128160 On ch=3 n=81 v=90
128448 Off ch=3 n=81 v=64
128448 On ch=3 n=81 v=90
128544 Off ch=3 n=81 v=64
128544 On ch=3 n=79 v=90
128640 Off ch=3 n=79 v=64
128640 On ch=3 n=81 v=90
128736 Off ch=3 n=81 v=64
128736 On ch=3 n=84 v=90
128928 Off ch=3 n=84 v=64
128928 On ch=3 n=77 v=90
129216 Off ch=3 n=77 v=64
129216 On ch=3 n=91 v=90
129600 Off ch=3 n=91 v=64
129600 On ch=3 n=89 v=90
129888 Off ch=3 n=89 v=64
129888 On ch=3 n=88 v=90
130080 Off ch=3 n=88 v=64
130080 On ch=3 n=75 v=90
130128 Off ch=3 n=75 v=64
130128 On ch=3 n=78 v=90
130176 Off ch=3 n=78 v=64
130176 On ch=3 n=81 v=90
130272 Off ch=3 n=81 v=64
130272 On ch=3 n=81 v=90
130464 Off ch=3 n=81 v=64
130464 On ch=3 n=79 v=90
130512 Off ch=3 n=79 v=64
130512 On ch=3 n=77 v=90
130560 Off ch=3 n=77 v=64
130560 On ch=3 n=74 v=90
130608 Off ch=3 n=74 v=64
130608 On ch=3 n=77 v=90
130848 Off ch=3 n=77 v=64
130848 On ch=3 n=81 v=90
130896 Off ch=3 n=81 v=64
130896 On ch=3 n=84 v=90
130944 Off ch=3 n=84 v=64
130944 On ch=3 n=78 v=90
130992 Off ch=3 n=78 v=64
130992 On ch=3 n=81 v=90
131040 Off ch=3 n=81 v=64
131040 On ch=3 n=81 v=90
131232 Off ch=3 n=81 v=64
131232 On ch=3 n=84 v=90
131280 Off ch=3 n=84 v=64
131280 On ch=3 n=87 v=90
131328 Off ch=3 n=87 v=64
131328 On ch=3 n=89 v=90
131424 Off ch=3 n=89 v=64
131520 On ch=3 n=74 v=90
131568 Off ch=3 n=74 v=64
131568 On ch=3 n=77 v=90
131616 Off ch=3 n=77 v=64
131616 On ch=3 n=84 v=90
131664 Off ch=3 n=84 v=64
131712 On ch=3 n=81 v=90
131808 Off ch=3 n=81 v=64
131808 On ch=3 n=81 v=90
132000 Off ch=3 n=81 v=64
132000 On ch=3 n=77 v=90
132192 Off ch=3 n=77 v=64
132192 On ch=3 n=86 v=90
132240 Off ch=3 n=86 v=64
132288 On ch=3 n=86 v=90
132336 Off ch=3 n=86 v=64
132336 On ch=3 n=83 v=90
132384 Off ch=3 n=83 v=64
132384 On ch=3 n=79 v=90
132432 Off ch=3 n=79 v=64
132432 On ch=3 n=74 v=90
132480 Off ch=3 n=74 v=64
132480 On ch=3 n=86 v=90
132528 Off ch=3 n=86 v=64
132528 On ch=3 n=79 v=90
132576 Off ch=3 n=79 v=64
132576 On ch=3 n=83 v=90
132624 Off ch=3 n=83 v=64
132624 On ch=3 n=74 v=90
132672 Off ch=3 n=74 v=64
132672 On ch=3 n=79 v=90
132720 Off ch=3 n=79 v=64
132720 On ch=3 n=83 v=90
132768 Off ch=3 n=83 v=64
132768 On ch=3 n=86 v=90
132816 Off ch=3 n=86 v=64
132864 On ch=3 n=81 v=90
132912 Off ch=3 n=81 v=64
132912 On ch=3 n=83 v=90
133056 Off ch=3 n=83 v=64
133056 On ch=3 n=88 v=90
133152 Off ch=3 n=88 v=64
133152 On ch=3 n=76 v=90
133248 Off ch=3 n=76 v=64
133248 On ch=3 n=79 v=90
133344 Off ch=3 n=79 v=64
133344 On ch=3 n=81 v=90
133536 Off ch=3 n=81 v=64
133536 On ch=3 n=83 v=90
133584 Off ch=3 n=83 v=64
133584 On ch=3 n=86 v=90
133632 Off ch=3 n=86 v=64
133632 On ch=3 n=84 v=90
133680 Off ch=3 n=84 v=64
133680 On ch=3 n=81 v=90
133728 Off ch=3 n=81 v=64
133728 On ch=3 n=77 v=90
133824 Off ch=3 n=77 v=64
133824 On ch=3 n=79 v=90
133872 Off ch=3 n=79 v=64
133872 On ch=3 n=81 v=90
133920 Off ch=3 n=81 v=64
133920 On ch=3 n=79 v=90
134016 Off ch=3 n=79 v=64
134016 On ch=3 n=81 v=90
134112 Off ch=3 n=81 v=64
134112 On ch=3 n=79 v=90
134160 Off ch=3 n=79 v=64
134160 On ch=3 n=81 v=90
134208 Off ch=3 n=81 v=64
134208 On ch=3 n=84 v=90
134304 Off ch=3 n=84 v=64
134304 On ch=3 n=81 v=90
134352 Off ch=3 n=81 v=64
134352 On ch=3 n=81 v=90
134400 Off ch=3 n=81 v=64
134400 On ch=3 n=79 v=90
134448 Off ch=3 n=79 v=64
134448 On ch=3 n=76 v=90
134496 Off ch=3 n=76 v=64
134496 On ch=3 n=85 v=90
134544 Off ch=3 n=85 v=64
134544 On ch=3 n=79 v=90
134592 Off ch=3 n=79 v=64
134592 On ch=3 n=76 v=90
134640 Off ch=3 n=76 v=64
134640 On ch=3 n=73 v=90
134688 Off ch=3 n=73 v=64
134688 On ch=3 n=83 v=90
134736 Off ch=3 n=83 v=64
134736 On ch=3 n=79 v=90
134784 Off ch=3 n=79 v=64
134784 On ch=3 n=76 v=90
134832 Off ch=3 n=76 v=64
134832 On ch=3 n=73 v=90
134880 Off ch=3 n=73 v=64
134880 On ch=3 n=85 v=90
134928 Off ch=3 n=85 v=64
134928 On ch=3 n=79 v=90
134976 Off ch=3 n=79 v=64
134976 On ch=3 n=76 v=90
135024 Off ch=3 n=76 v=64
135024 On ch=3 n=73 v=90
135072 Off ch=3 n=73 v=64
135072 On ch=3 n=77 v=90
135360 Off ch=3 n=77 v=64
135360 On ch=3 n=91 v=90
135744 Off ch=3 n=91 v=64
135744 On ch=3 n=89 v=90
136032 Off ch=3 n=89 v=64
136032 On ch=3 n=88 v=90
136224 Off ch=3 n=88 v=64
136224 On ch=3 n=81 v=90
136272 Off ch=3 n=81 v=64
136272 On ch=3 n=81 v=90
136320 Off ch=3 n=81 v=64
136320 On ch=3 n=79 v=90
136368 Off ch=3 n=79 v=64
136368 On ch=3 n=76 v=90
136416 Off ch=3 n=76 v=64
136416 On ch=3 n=85 v=90
136464 Off ch=3 n=85 v=64
136464 On ch=3 n=79 v=90
136512 Off ch=3 n=79 v=64
136512 On ch=3 n=76 v=90
136560 Off ch=3 n=76 v=64
136560 On ch=3 n=73 v=90
136608 Off ch=3 n=73 v=64
136608 On ch=3 n=83 v=90
136656 Off ch=3 n=83 v=64
136656 On ch=3 n=79 v=90
136704 Off ch=3 n=79 v=64
136704 On ch=3 n=76 v=90
136752 Off ch=3 n=76 v=64
136752 On ch=3 n=73 v=90
136800 Off ch=3 n=73 v=64
136800 On ch=3 n=85 v=90
136848 Off ch=3 n=85 v=64
136848 On ch=3 n=79 v=90
136896 Off ch=3 n=79 v=64
136896 On ch=3 n=76 v=90
136944 Off ch=3 n=76 v=64
136944 On ch=3 n=73 v=90
136992 Off ch=3 n=73 v=64
136992 On ch=3 n=77 v=90
137280 Off ch=3 n=77 v=64
137280 On ch=3 n=91 v=90
137664 Off ch=3 n=91 v=64
137664 On ch=3 n=89 v=90
137952 Off ch=3 n=89 v=64
137952 On ch=3 n=88 v=90
138144 Off ch=3 n=88 v=64
138144 On ch=3 n=81 v=90
138192 Off ch=3 n=81 v=64
138192 On ch=3 n=81 v=90
138240 Off ch=3 n=81 v=64
138240 On ch=3 n=79 v=90
138288 Off ch=3 n=79 v=64
138288 On ch=3 n=76 v=90
138336 Off ch=3 n=76 v=64
138336 On ch=3 n=85 v=90
138384 Off ch=3 n=85 v=64
138384 On ch=3 n=79 v=90
138432 Off ch=3 n=79 v=64
138432 On ch=3 n=76 v=90
138480 Off ch=3 n=76 v=64
138480 On ch=3 n=73 v=90
138528 Off ch=3 n=73 v=64
138528 On ch=3 n=83 v=90
138576 Off ch=3 n=83 v=64
138576 On ch=3 n=79 v=90
138624 Off ch=3 n=79 v=64
138624 On ch=3 n=76 v=90
138672 Off ch=3 n=76 v=64
138672 On ch=3 n=73 v=90
138720 Off ch=3 n=73 v=64
138720 On ch=3 n=85 v=90
138768 Off ch=3 n=85 v=64
138768 On ch=3 n=79 v=90
138816 Off ch=3 n=79 v=64
138816 On ch=3 n=76 v=90
138864 Off ch=3 n=76 v=64
138864 On ch=3 n=73 v=90
138912 Off ch=3 n=73 v=64
138912 On ch=3 n=81 v=90
138960 Off ch=3 n=81 v=64
138960 On ch=3 n=81 v=90
139008 Off ch=3 n=81 v=64
139008 On ch=3 n=79 v=90
139056 Off ch=3 n=79 v=64
139056 On ch=3 n=76 v=90
139104 Off ch=3 n=76 v=64
139104 On ch=3 n=85 v=90
139152 Off ch=3 n=85 v=64
139152 On ch=3 n=79 v=90
139200 Off ch=3 n=79 v=64
139200 On ch=3 n=76 v=90
139248 Off ch=3 n=76 v=64
139248 On ch=3 n=73 v=90
139296 Off ch=3 n=73 v=64
139296 On ch=3 n=83 v=90
139344 Off ch=3 n=83 v=64
139344 On ch=3 n=79 v=90
139392 Off ch=3 n=79 v=64
139392 On ch=3 n=76 v=90
139440 Off ch=3 n=76 v=64
139440 On ch=3 n=73 v=90
139488 Off ch=3 n=73 v=64
139488 On ch=3 n=85 v=90
139536 Off ch=3 n=85 v=64
139536 On ch=3 n=79 v=90
139584 Off ch=3 n=79 v=64
139584 On ch=3 n=76 v=90
139632 Off ch=3 n=76 v=64
139632 On ch=3 n=73 v=90
139680 Off ch=3 n=73 v=64
139680 On ch=3 n=81 v=90
139728 Off ch=3 n=81 v=64
139728 On ch=3 n=81 v=90
139776 Off ch=3 n=81 v=64
139776 On ch=3 n=79 v=90
139824 Off ch=3 n=79 v=64
139824 On ch=3 n=76 v=90
139872 Off ch=3 n=76 v=64
139872 On ch=3 n=85 v=90
139920 Off ch=3 n=85 v=64
139920 On ch=3 n=79 v=90
139968 Off ch=3 n=79 v=64
139968 On ch=3 n=76 v=90
140016 Off ch=3 n=76 v=64
140016 On ch=3 n=73 v=90
140064 Off ch=3 n=73 v=64
140064 On ch=3 n=83 v=90
140112 Off ch=3 n=83 v=64
140112 On ch=3 n=79 v=90
140160 Off ch=3 n=79 v=64
140160 On ch=3 n=76 v=90
140208 Off ch=3 n=76 v=64
140208 On ch=3 n=73 v=90
140256 Off ch=3 n=73 v=64
140256 On ch=3 n=85 v=90
140304 Off ch=3 n=85 v=64
140304 On ch=3 n=79 v=90
140352 Off ch=3 n=79 v=64
140352 On ch=3 n=76 v=90
140400 Off ch=3 n=76 v=64
140400 On ch=3 n=73 v=90
140448 Off ch=3 n=73 v=64
140448 On ch=3 n=81 v=90
140496 Off ch=3 n=81 v=64
140496 On ch=3 n=81 v=90
140544 Off ch=3 n=81 v=64
140544 On ch=3 n=79 v=90
140592 Off ch=3 n=79 v=64
140592 On ch=3 n=76 v=90
140640 Off ch=3 n=76 v=64
140640 On ch=3 n=85 v=90
140688 Off ch=3 n=85 v=64
140688 On ch=3 n=79 v=90
140736 Off ch=3 n=79 v=64
140736 On ch=3 n=76 v=90
140784 Off ch=3 n=76 v=64
140784 On ch=3 n=73 v=90
140832 Off ch=3 n=73 v=64
140832 On ch=3 n=83 v=90
140880 Off ch=3 n=83 v=64
140880 On ch=3 n=79 v=90
140928 Off ch=3 n=79 v=64
140928 On ch=3 n=76 v=90
140976 Off ch=3 n=76 v=64
140976 On ch=3 n=73 v=90
141024 Off ch=3 n=73 v=64
141024 On ch=3 n=85 v=90
141072 Off ch=3 n=85 v=64
141072 On ch=3 n=79 v=90
141120 Off ch=3 n=79 v=64
141120 On ch=3 n=76 v=90
141168 Off ch=3 n=76 v=64
141168 On ch=3 n=73 v=90
141216 Off ch=3 n=73 v=64
141216 Meta TrkEnd
TrkEnd
MTrk
0 Meta 0x21 01
0 Meta TrkName "Bass Drum           "
0 PrCh ch=16 p=0
3360 On ch=16 n=24 v=90
3456 Off ch=16 n=24 v=64
3456 On ch=16 n=24 v=90
3552 Off ch=16 n=24 v=64
3552 On ch=16 n=24 v=90
3648 Off ch=16 n=24 v=64
3648 On ch=16 n=24 v=90
3744 Off ch=16 n=24 v=64
3744 On ch=16 n=24 v=90
3840 Off ch=16 n=24 v=64
3840 On ch=16 n=24 v=90
4032 Off ch=16 n=24 v=64
4032 On ch=16 n=24 v=90
4224 Off ch=16 n=24 v=64
4224 On ch=16 n=24 v=90
4320 Off ch=16 n=24 v=64
4320 On ch=16 n=24 v=90
4416 Off ch=16 n=24 v=64
4416 On ch=16 n=24 v=90
4480 Off ch=16 n=24 v=64
4480 On ch=16 n=24 v=90
4544 Off ch=16 n=24 v=64
4544 On ch=16 n=24 v=90
4608 Off ch=16 n=24 v=64
4608 On ch=16 n=24 v=90
4704 Off ch=16 n=24 v=64
4704 On ch=16 n=24 v=90
4800 Off ch=16 n=24 v=64
4800 On ch=16 n=24 v=90
4992 Off ch=16 n=24 v=64
4992 On ch=16 n=24 v=90
5184 Off ch=16 n=24 v=64
5184 On ch=16 n=24 v=90
5280 Off ch=16 n=24 v=64
5280 On ch=16 n=24 v=90
5376 Off ch=16 n=24 v=64
5376 On ch=16 n=24 v=90
5472 Off ch=16 n=24 v=64
5472 On ch=16 n=24 v=90
5568 Off ch=16 n=24 v=64
5568 On ch=16 n=24 v=90
5664 Off ch=16 n=24 v=64
5664 On ch=16 n=24 v=90
5760 Off ch=16 n=24 v=64
5760 On ch=16 n=24 v=90
5808 Off ch=16 n=24 v=64
5808 On ch=16 n=24 v=90
5856 Off ch=16 n=24 v=64
5856 On ch=16 n=24 v=90
5952 Off ch=16 n=24 v=64
9504 On ch=16 n=24 v=90
9600 Off ch=16 n=24 v=64
9600 On ch=16 n=24 v=90
9648 Off ch=16 n=24 v=64
9648 On ch=16 n=24 v=90
9696 Off ch=16 n=24 v=64
9696 On ch=16 n=24 v=90
9792 Off ch=16 n=24 v=64
9792 On ch=16 n=24 v=90
9888 Off ch=16 n=24 v=64
9888 On ch=16 n=24 v=90
9984 Off ch=16 n=24 v=64
9984 On ch=16 n=24 v=90
10176 Off ch=16 n=24 v=64
10176 On ch=16 n=24 v=90
10272 Off ch=16 n=24 v=64
10272 On ch=16 n=24 v=90
10368 Off ch=16 n=24 v=64
10368 On ch=16 n=24 v=90
10464 Off ch=16 n=24 v=64
10464 On ch=16 n=24 v=90
10560 Off ch=16 n=24 v=64
10560 On ch=16 n=24 v=90
10624 Off ch=16 n=24 v=64
10624 On ch=16 n=24 v=90
10688 Off ch=16 n=24 v=64
10688 On ch=16 n=24 v=90
10752 Off ch=16 n=24 v=64
10752 On ch=16 n=24 v=90
10848 Off ch=16 n=24 v=64
10848 On ch=16 n=24 v=90
10944 Off ch=16 n=24 v=64
10944 On ch=16 n=24 v=90
11136 Off ch=16 n=24 v=64
11136 On ch=16 n=24 v=90
11328 Off ch=16 n=24 v=64
11328 On ch=16 n=24 v=90
11424 Off ch=16 n=24 v=64
11424 On ch=16 n=24 v=90
11520 Off ch=16 n=24 v=64
11520 On ch=16 n=24 v=90
11616 Off ch=16 n=24 v=64
11616 On ch=16 n=24 v=90
11712 Off ch=16 n=24 v=64
11712 On ch=16 n=24 v=90
11808 Off ch=16 n=24 v=64
11808 On ch=16 n=24 v=90
11904 Off ch=16 n=24 v=64
11904 On ch=16 n=24 v=90
11952 Off ch=16 n=24 v=64
11952 On ch=16 n=24 v=90
12000 Off ch=16 n=24 v=64
12000 On ch=16 n=24 v=90
12096 Off ch=16 n=24 v=64
15648 On ch=16 n=24 v=90
15744 Off ch=16 n=24 v=64
15744 On ch=16 n=24 v=90
15792 Off ch=16 n=24 v=64
15792 On ch=16 n=24 v=90
15840 Off ch=16 n=24 v=64
15840 On ch=16 n=24 v=90
15936 Off ch=16 n=24 v=64
15936 On ch=16 n=24 v=90
16032 Off ch=16 n=24 v=64
16032 On ch=16 n=24 v=90
16128 Off ch=16 n=24 v=64
16128 On ch=16 n=24 v=90
16320 Off ch=16 n=24 v=64
16320 On ch=16 n=24 v=90
16512 Off ch=16 n=24 v=64
16512 On ch=16 n=24 v=90
16608 Off ch=16 n=24 v=64
16608 On ch=16 n=24 v=90
16704 Off ch=16 n=24 v=64
16704 On ch=16 n=24 v=90
16768 Off ch=16 n=24 v=64
16768 On ch=16 n=24 v=90
16832 Off ch=16 n=24 v=64
16832 On ch=16 n=24 v=90
16896 Off ch=16 n=24 v=64
16896 On ch=16 n=24 v=90
16992 Off ch=16 n=24 v=64
16992 On ch=16 n=24 v=90
17088 Off ch=16 n=24 v=64
17088 On ch=16 n=24 v=90
17280 Off ch=16 n=24 v=64
17280 On ch=16 n=24 v=90
17472 Off ch=16 n=24 v=64
17472 On ch=16 n=24 v=90
17568 Off ch=16 n=24 v=64
17568 On ch=16 n=24 v=90
17664 Off ch=16 n=24 v=64
17664 On ch=16 n=24 v=90
17760 Off ch=16 n=24 v=64
17760 On ch=16 n=24 v=90
17856 Off ch=16 n=24 v=64
17856 On ch=16 n=24 v=90
17952 Off ch=16 n=24 v=64
17952 On ch=16 n=24 v=90
18048 Off ch=16 n=24 v=64
18048 On ch=16 n=24 v=90
18144 Off ch=16 n=24 v=64
18144 On ch=16 n=24 v=90
18240 Off ch=16 n=24 v=64
18240 On ch=16 n=24 v=90
18288 Off ch=16 n=24 v=64
18288 On ch=16 n=24 v=90
18336 Off ch=16 n=24 v=64
18336 On ch=16 n=24 v=90
18432 Off ch=16 n=24 v=64
18432 On ch=16 n=24 v=90
18528 Off ch=16 n=24 v=64
18528 On ch=16 n=24 v=90
18624 Off ch=16 n=24 v=64
18624 On ch=16 n=24 v=90
18720 Off ch=16 n=24 v=64
18720 On ch=16 n=24 v=90
18816 Off ch=16 n=24 v=64
18816 On ch=16 n=24 v=90
18912 Off ch=16 n=24 v=64
18912 On ch=16 n=24 v=90
19008 Off ch=16 n=24 v=64
19008 On ch=16 n=24 v=90
19104 Off ch=16 n=24 v=64
19104 On ch=16 n=24 v=90
19200 Off ch=16 n=24 v=64
19200 On ch=16 n=24 v=90
19392 Off ch=16 n=24 v=64
19392 On ch=16 n=24 v=90
19584 Off ch=16 n=24 v=64
19584 On ch=16 n=24 v=90
19680 Off ch=16 n=24 v=64
19680 On ch=16 n=24 v=90
19776 Off ch=16 n=24 v=64
19776 On ch=16 n=24 v=90
19872 Off ch=16 n=24 v=64
19872 On ch=16 n=24 v=90
19968 Off ch=16 n=24 v=64
19968 On ch=16 n=24 v=90
20064 Off ch=16 n=24 v=64
20064 On ch=16 n=24 v=90
20256 Off ch=16 n=24 v=64
20256 On ch=16 n=24 v=90
20448 Off ch=16 n=24 v=64
20448 On ch=16 n=24 v=90
20544 Off ch=16 n=24 v=64
20544 On ch=16 n=24 v=90
20640 Off ch=16 n=24 v=64
20640 On ch=16 n=24 v=90
20736 Off ch=16 n=24 v=64
20736 On ch=16 n=24 v=90
20832 Off ch=16 n=24 v=64
20832 On ch=16 n=24 v=90
20928 Off ch=16 n=24 v=64
20928 On ch=16 n=24 v=90
21120 Off ch=16 n=24 v=64
21120 On ch=16 n=24 v=90
21216 Off ch=16 n=24 v=64
21216 On ch=16 n=24 v=90
21312 Off ch=16 n=24 v=64
21312 On ch=16 n=24 v=90
21408 Off ch=16 n=24 v=64
21408 On ch=16 n=24 v=90
21504 Off ch=16 n=24 v=64
21504 On ch=16 n=24 v=90
21600 Off ch=16 n=24 v=64
21600 On ch=16 n=24 v=90
21696 Off ch=16 n=24 v=64
21696 On ch=16 n=24 v=90
21792 Off ch=16 n=24 v=64
21792 On ch=16 n=24 v=90
21888 Off ch=16 n=24 v=64
21888 On ch=16 n=24 v=90
21984 Off ch=16 n=24 v=64
21984 On ch=16 n=24 v=90
22080 Off ch=16 n=24 v=64
22080 On ch=16 n=24 v=90
22176 Off ch=16 n=24 v=64
22176 On ch=16 n=24 v=90
22320 Off ch=16 n=24 v=64
22320 On ch=16 n=24 v=90
22368 Off ch=16 n=24 v=64
22368 On ch=16 n=24 v=90
22464 Off ch=16 n=24 v=64
22464 On ch=16 n=24 v=90
22656 Off ch=16 n=24 v=64
22656 On ch=16 n=24 v=90
22752 Off ch=16 n=24 v=64
22752 On ch=16 n=24 v=90
22848 Off ch=16 n=24 v=64
22848 On ch=16 n=24 v=90
22912 Off ch=16 n=24 v=64
22912 On ch=16 n=24 v=90
22976 Off ch=16 n=24 v=64
22976 On ch=16 n=24 v=90
23040 Off ch=16 n=24 v=64
23040 On ch=16 n=24 v=90
23136 Off ch=16 n=24 v=64
23136 On ch=16 n=24 v=90
23232 Off ch=16 n=24 v=64
23232 On ch=16 n=24 v=90
23424 Off ch=16 n=24 v=64
23424 On ch=16 n=24 v=90
23616 Off ch=16 n=24 v=64
23616 On ch=16 n=24 v=90
23712 Off ch=16 n=24 v=64
23712 On ch=16 n=24 v=90
23904 Off ch=16 n=24 v=64
23904 On ch=16 n=24 v=90
24000 Off ch=16 n=24 v=64
24000 On ch=16 n=24 v=90
24096 Off ch=16 n=24 v=64
24096 On ch=16 n=24 v=90
24192 Off ch=16 n=24 v=64
24192 On ch=16 n=24 v=90
24288 Off ch=16 n=24 v=64
24288 On ch=16 n=24 v=90
24384 Off ch=16 n=24 v=64
24384 On ch=16 n=24 v=90
24432 Off ch=16 n=24 v=64
24432 On ch=16 n=24 v=90
24480 Off ch=16 n=24 v=64
24480 On ch=16 n=24 v=90
24576 Off ch=16 n=24 v=64
24576 On ch=16 n=24 v=90
24768 Off ch=16 n=24 v=64
24768 On ch=16 n=24 v=90
24864 Off ch=16 n=24 v=64
24864 On ch=16 n=24 v=90
24960 Off ch=16 n=24 v=64
24960 On ch=16 n=24 v=90
25056 Off ch=16 n=24 v=64
25056 On ch=16 n=24 v=90
25152 Off ch=16 n=24 v=64
25344 On ch=16 n=24 v=90
25440 Off ch=16 n=24 v=64
25440 On ch=16 n=24 v=90
25536 Off ch=16 n=24 v=64
26112 On ch=16 n=24 v=90
26208 Off ch=16 n=24 v=64
26208 On ch=16 n=24 v=90
26304 Off ch=16 n=24 v=64
27360 On ch=16 n=24 v=90
27456 Off ch=16 n=24 v=64
27456 On ch=16 n=24 v=90
27552 Off ch=16 n=24 v=64
27552 On ch=16 n=24 v=90
27648 Off ch=16 n=24 v=64
28416 On ch=16 n=24 v=90
28608 Off ch=16 n=24 v=64
29184 On ch=16 n=24 v=90
29376 Off ch=16 n=24 v=64
30336 On ch=16 n=24 v=90
30432 Off ch=16 n=24 v=64
30432 On ch=16 n=24 v=90
30528 Off ch=16 n=24 v=64
30912 On ch=16 n=24 v=90
31008 Off ch=16 n=24 v=64
31008 On ch=16 n=24 v=90
31104 Off ch=16 n=24 v=64
34176 On ch=16 n=24 v=90
34272 Off ch=16 n=24 v=64
34272 On ch=16 n=24 v=90
34320 Off ch=16 n=24 v=64
34320 On ch=16 n=24 v=90
34368 Off ch=16 n=24 v=64
34368 On ch=16 n=24 v=90
34464 Off ch=16 n=24 v=64
34464 On ch=16 n=24 v=90
34560 Off ch=16 n=24 v=64
34560 On ch=16 n=24 v=90
34656 Off ch=16 n=24 v=64
34656 On ch=16 n=24 v=90
34704 Off ch=16 n=24 v=64
34704 On ch=16 n=24 v=90
34752 Off ch=16 n=24 v=64
34752 On ch=16 n=24 v=90
34848 Off ch=16 n=24 v=64
34848 On ch=16 n=24 v=90
35040 Off ch=16 n=24 v=64
35040 On ch=16 n=24 v=90
35136 Off ch=16 n=24 v=64
35136 On ch=16 n=24 v=90
35232 Off ch=16 n=24 v=64
35232 On ch=16 n=24 v=90
35296 Off ch=16 n=24 v=64
35296 On ch=16 n=24 v=90
35360 Off ch=16 n=24 v=64
35360 On ch=16 n=24 v=90
35424 Off ch=16 n=24 v=64
35424 On ch=16 n=24 v=90
35520 Off ch=16 n=24 v=64
35520 On ch=16 n=24 v=90
35616 Off ch=16 n=24 v=64
35616 On ch=16 n=24 v=90
35808 Off ch=16 n=24 v=64
35808 On ch=16 n=24 v=90
36000 Off ch=16 n=24 v=64
36000 On ch=16 n=24 v=90
36096 Off ch=16 n=24 v=64
36096 On ch=16 n=24 v=90
36192 Off ch=16 n=24 v=64
36192 On ch=16 n=24 v=90
36288 Off ch=16 n=24 v=64
36288 On ch=16 n=24 v=90
36384 Off ch=16 n=24 v=64
36384 On ch=16 n=24 v=90
36480 Off ch=16 n=24 v=64
36480 On ch=16 n=24 v=90
36576 Off ch=16 n=24 v=64
36576 On ch=16 n=24 v=90
36624 Off ch=16 n=24 v=64
36624 On ch=16 n=24 v=90
36672 Off ch=16 n=24 v=64
36672 On ch=16 n=24 v=90
36768 Off ch=16 n=24 v=64
40320 On ch=16 n=24 v=90
40416 Off ch=16 n=24 v=64
40416 On ch=16 n=24 v=90
40464 Off ch=16 n=24 v=64
40464 On ch=16 n=24 v=90
40512 Off ch=16 n=24 v=64
40512 On ch=16 n=24 v=90
40560 Off ch=16 n=24 v=64
40560 On ch=16 n=24 v=90
40608 Off ch=16 n=24 v=64
40608 On ch=16 n=24 v=90
40704 Off ch=16 n=24 v=64
40704 On ch=16 n=24 v=90
40800 Off ch=16 n=24 v=64
40800 On ch=16 n=24 v=90
40848 Off ch=16 n=24 v=64
40848 On ch=16 n=24 v=90
40896 Off ch=16 n=24 v=64
40896 On ch=16 n=24 v=90
40944 Off ch=16 n=24 v=64
40944 On ch=16 n=24 v=90
40992 Off ch=16 n=24 v=64
40992 On ch=16 n=24 v=90
41184 Off ch=16 n=24 v=64
41184 On ch=16 n=24 v=90
41280 Off ch=16 n=24 v=64
41280 On ch=16 n=24 v=90
41376 Off ch=16 n=24 v=64
41376 On ch=16 n=24 v=90
41440 Off ch=16 n=24 v=64
41440 On ch=16 n=24 v=90
41504 Off ch=16 n=24 v=64
41504 On ch=16 n=24 v=90
41568 Off ch=16 n=24 v=64
41568 On ch=16 n=24 v=90
41664 Off ch=16 n=24 v=64
41664 On ch=16 n=24 v=90
41760 Off ch=16 n=24 v=64
41760 On ch=16 n=24 v=90
41952 Off ch=16 n=24 v=64
41952 On ch=16 n=24 v=90
42144 Off ch=16 n=24 v=64
42144 On ch=16 n=24 v=90
42240 Off ch=16 n=24 v=64
42240 On ch=16 n=24 v=90
42336 Off ch=16 n=24 v=64
42336 On ch=16 n=24 v=90
42432 Off ch=16 n=24 v=64
42432 On ch=16 n=24 v=90
42528 Off ch=16 n=24 v=64
42528 On ch=16 n=24 v=90
42624 Off ch=16 n=24 v=64
42624 On ch=16 n=24 v=90
42720 Off ch=16 n=24 v=64
42720 On ch=16 n=24 v=90
42768 Off ch=16 n=24 v=64
42768 On ch=16 n=24 v=90
42816 Off ch=16 n=24 v=64
42816 On ch=16 n=24 v=90
42864 Off ch=16 n=24 v=64
42864 On ch=16 n=24 v=90
42912 Off ch=16 n=24 v=64
49440 On ch=16 n=24 v=90
49536 Off ch=16 n=24 v=64
49536 On ch=16 n=24 v=90
49584 Off ch=16 n=24 v=64
49584 On ch=16 n=24 v=90
49632 Off ch=16 n=24 v=64
49632 On ch=16 n=24 v=90
49824 Off ch=16 n=24 v=64
49824 On ch=16 n=24 v=90
50016 Off ch=16 n=24 v=64
50016 On ch=16 n=24 v=90
50112 Off ch=16 n=24 v=64
50112 On ch=16 n=24 v=90
50208 Off ch=16 n=24 v=64
50208 On ch=16 n=24 v=90
50304 Off ch=16 n=24 v=64
50304 On ch=16 n=24 v=90
50400 Off ch=16 n=24 v=64
50400 On ch=16 n=24 v=90
50592 Off ch=16 n=24 v=64
50592 On ch=16 n=24 v=90
50784 Off ch=16 n=24 v=64
50784 On ch=16 n=24 v=90
50880 Off ch=16 n=24 v=64
50880 On ch=16 n=24 v=90
50976 Off ch=16 n=24 v=64
50976 On ch=16 n=24 v=90
51072 Off ch=16 n=24 v=64
51072 On ch=16 n=24 v=90
51168 Off ch=16 n=24 v=64
51168 On ch=16 n=24 v=90
51360 Off ch=16 n=24 v=64
51360 On ch=16 n=24 v=90
51552 Off ch=16 n=24 v=64
51552 On ch=16 n=24 v=90
51648 Off ch=16 n=24 v=64
51648 On ch=16 n=24 v=90
51744 Off ch=16 n=24 v=64
51744 On ch=16 n=24 v=90
51936 Off ch=16 n=24 v=64
51936 On ch=16 n=24 v=90
52032 Off ch=16 n=24 v=64
52032 On ch=16 n=24 v=90
52128 Off ch=16 n=24 v=64
52128 On ch=16 n=24 v=90
52320 Off ch=16 n=24 v=64
52320 On ch=16 n=24 v=90
52416 Off ch=16 n=24 v=64
52416 On ch=16 n=24 v=90
52512 Off ch=16 n=24 v=64
52512 On ch=16 n=24 v=90
52608 Off ch=16 n=24 v=64
52608 On ch=16 n=24 v=90
52704 Off ch=16 n=24 v=64
52704 On ch=16 n=24 v=90
52800 Off ch=16 n=24 v=64
52800 On ch=16 n=24 v=90
52896 Off ch=16 n=24 v=64
52896 On ch=16 n=24 v=90
52992 Off ch=16 n=24 v=64
52992 On ch=16 n=24 v=90
53088 Off ch=16 n=24 v=64
53088 On ch=16 n=24 v=90
53184 Off ch=16 n=24 v=64
53184 On ch=16 n=24 v=90
53280 Off ch=16 n=24 v=64
53280 On ch=16 n=24 v=90
53376 Off ch=16 n=24 v=64
53376 On ch=16 n=24 v=90
53472 Off ch=16 n=24 v=64
53472 On ch=16 n=24 v=90
53568 Off ch=16 n=24 v=64
53568 On ch=16 n=24 v=90
53664 Off ch=16 n=24 v=64
53664 On ch=16 n=24 v=90
53856 Off ch=16 n=24 v=64
53856 On ch=16 n=24 v=90
53952 Off ch=16 n=24 v=64
53952 On ch=16 n=24 v=90
54048 Off ch=16 n=24 v=64
54048 On ch=16 n=24 v=90
54144 Off ch=16 n=24 v=64
54144 On ch=16 n=24 v=90
54240 Off ch=16 n=24 v=64
54240 On ch=16 n=24 v=90
54432 Off ch=16 n=24 v=64
54432 On ch=16 n=24 v=90
54624 Off ch=16 n=24 v=64
54624 On ch=16 n=24 v=90
54720 Off ch=16 n=24 v=64
54720 On ch=16 n=24 v=90
54816 Off ch=16 n=24 v=64
54816 On ch=16 n=24 v=90
55008 Off ch=16 n=24 v=64
55008 On ch=16 n=24 v=90
55104 Off ch=16 n=24 v=64
55104 On ch=16 n=24 v=90
55200 Off ch=16 n=24 v=64
55200 On ch=16 n=24 v=90
55392 Off ch=16 n=24 v=64
55392 On ch=16 n=24 v=90
55440 Off ch=16 n=24 v=64
55440 On ch=16 n=24 v=90
55488 Off ch=16 n=24 v=64
55488 On ch=16 n=24 v=90
55584 Off ch=16 n=24 v=64
55584 On ch=16 n=24 v=90
55776 Off ch=16 n=24 v=64
55776 On ch=16 n=24 v=90
55968 Off ch=16 n=24 v=64
55968 On ch=16 n=24 v=90
56160 Off ch=16 n=24 v=64
56160 On ch=16 n=24 v=90
56256 Off ch=16 n=24 v=64
56256 On ch=16 n=24 v=90
56352 Off ch=16 n=24 v=64
56352 On ch=16 n=24 v=90
56448 Off ch=16 n=24 v=64
56448 On ch=16 n=24 v=90
56544 Off ch=16 n=24 v=64
56544 On ch=16 n=24 v=90
56736 Off ch=16 n=24 v=64
56736 On ch=16 n=24 v=90
56928 Off ch=16 n=24 v=64
56928 On ch=16 n=24 v=90
57024 Off ch=16 n=24 v=64
57024 On ch=16 n=24 v=90
57120 Off ch=16 n=24 v=64
57120 On ch=16 n=24 v=90
57216 Off ch=16 n=24 v=64
57216 On ch=16 n=24 v=90
57312 Off ch=16 n=24 v=64
57312 On ch=16 n=24 v=90
57504 Off ch=16 n=24 v=64
57504 On ch=16 n=24 v=90
57696 Off ch=16 n=24 v=64
57696 On ch=16 n=24 v=90
57792 Off ch=16 n=24 v=64
57792 On ch=16 n=24 v=90
57888 Off ch=16 n=24 v=64
57888 On ch=16 n=24 v=90
58080 Off ch=16 n=24 v=64
58080 On ch=16 n=24 v=90
58176 Off ch=16 n=24 v=64
58176 On ch=16 n=24 v=90
58272 Off ch=16 n=24 v=64
58272 On ch=16 n=24 v=90
58464 Off ch=16 n=24 v=64
58464 On ch=16 n=24 v=90
58560 Off ch=16 n=24 v=64
58560 On ch=16 n=24 v=90
58656 Off ch=16 n=24 v=64
58656 On ch=16 n=24 v=90
58848 Off ch=16 n=24 v=64
58848 On ch=16 n=24 v=90
59040 Off ch=16 n=24 v=64
59040 On ch=16 n=24 v=90
59232 Off ch=16 n=24 v=64
59232 On ch=16 n=24 v=90
59328 Off ch=16 n=24 v=64
59328 On ch=16 n=24 v=90
59424 Off ch=16 n=24 v=64
59424 On ch=16 n=24 v=90
59520 Off ch=16 n=24 v=64
59520 On ch=16 n=24 v=90
59616 Off ch=16 n=24 v=64
59616 On ch=16 n=24 v=90
59808 Off ch=16 n=24 v=64
59808 On ch=16 n=24 v=90
60000 Off ch=16 n=24 v=64
60000 On ch=16 n=24 v=90
60096 Off ch=16 n=24 v=64
60096 On ch=16 n=24 v=90
60192 Off ch=16 n=24 v=64
60192 On ch=16 n=24 v=90
60288 Off ch=16 n=24 v=64
60288 On ch=16 n=24 v=90
60384 Off ch=16 n=24 v=64
60384 On ch=16 n=24 v=90
60576 Off ch=16 n=24 v=64
60576 On ch=16 n=24 v=90
60768 Off ch=16 n=24 v=64
60768 On ch=16 n=24 v=90
60864 Off ch=16 n=24 v=64
60864 On ch=16 n=24 v=90
60960 Off ch=16 n=24 v=64
60960 On ch=16 n=24 v=90
61152 Off ch=16 n=24 v=64
61152 On ch=16 n=24 v=90
61248 Off ch=16 n=24 v=64
61248 On ch=16 n=24 v=90
61344 Off ch=16 n=24 v=64
61344 On ch=16 n=24 v=90
61440 Off ch=16 n=24 v=64
61440 On ch=16 n=24 v=90
61488 Off ch=16 n=24 v=64
61488 On ch=16 n=24 v=90
61536 Off ch=16 n=24 v=64
61536 On ch=16 n=24 v=90
61728 Off ch=16 n=24 v=64
61728 On ch=16 n=24 v=90
61920 Off ch=16 n=24 v=64
65280 On ch=16 n=24 v=90
65376 Off ch=16 n=24 v=64
65376 On ch=16 n=24 v=90
65472 Off ch=16 n=24 v=64
65472 On ch=16 n=24 v=90
65568 Off ch=16 n=24 v=64
65568 On ch=16 n=24 v=90
65664 Off ch=16 n=24 v=64
65664 On ch=16 n=24 v=90
65760 Off ch=16 n=24 v=64
65760 On ch=16 n=24 v=90
65952 Off ch=16 n=24 v=64
65952 On ch=16 n=24 v=90
66144 Off ch=16 n=24 v=64
66144 On ch=16 n=24 v=90
66240 Off ch=16 n=24 v=64
66240 On ch=16 n=24 v=90
66336 Off ch=16 n=24 v=64
66336 On ch=16 n=24 v=90
66400 Off ch=16 n=24 v=64
66400 On ch=16 n=24 v=90
66464 Off ch=16 n=24 v=64
66464 On ch=16 n=24 v=90
66528 Off ch=16 n=24 v=64
66528 On ch=16 n=24 v=90
66624 Off ch=16 n=24 v=64
66624 On ch=16 n=24 v=90
66720 Off ch=16 n=24 v=64
66720 On ch=16 n=24 v=90
66912 Off ch=16 n=24 v=64
66912 On ch=16 n=24 v=90
67104 Off ch=16 n=24 v=64
67104 On ch=16 n=24 v=90
67200 Off ch=16 n=24 v=64
67200 On ch=16 n=24 v=90
67296 Off ch=16 n=24 v=64
67296 On ch=16 n=24 v=90
67392 Off ch=16 n=24 v=64
67392 On ch=16 n=24 v=90
67488 Off ch=16 n=24 v=64
67488 On ch=16 n=24 v=90
67584 Off ch=16 n=24 v=64
67584 On ch=16 n=24 v=90
67680 Off ch=16 n=24 v=64
67680 On ch=16 n=24 v=90
67728 Off ch=16 n=24 v=64
67728 On ch=16 n=24 v=90
67776 Off ch=16 n=24 v=64
67776 On ch=16 n=24 v=90
67872 Off ch=16 n=24 v=64
71424 On ch=16 n=24 v=90
71520 Off ch=16 n=24 v=64
71520 On ch=16 n=24 v=90
71616 Off ch=16 n=24 v=64
71616 On ch=16 n=24 v=90
71712 Off ch=16 n=24 v=64
71712 On ch=16 n=24 v=90
71808 Off ch=16 n=24 v=64
71808 On ch=16 n=24 v=90
71904 Off ch=16 n=24 v=64
71904 On ch=16 n=24 v=90
72096 Off ch=16 n=24 v=64
72096 On ch=16 n=24 v=90
72288 Off ch=16 n=24 v=64
72288 On ch=16 n=24 v=90
72384 Off ch=16 n=24 v=64
72384 On ch=16 n=24 v=90
72480 Off ch=16 n=24 v=64
72480 On ch=16 n=24 v=90
72544 Off ch=16 n=24 v=64
72544 On ch=16 n=24 v=90
72608 Off ch=16 n=24 v=64
72608 On ch=16 n=24 v=90
72672 Off ch=16 n=24 v=64
72672 On ch=16 n=24 v=90
72768 Off ch=16 n=24 v=64
72768 On ch=16 n=24 v=90
72864 Off ch=16 n=24 v=64
72864 On ch=16 n=24 v=90
73056 Off ch=16 n=24 v=64
73056 On ch=16 n=24 v=90
73248 Off ch=16 n=24 v=64
73248 On ch=16 n=24 v=90
73344 Off ch=16 n=24 v=64
73344 On ch=16 n=24 v=90
73440 Off ch=16 n=24 v=64
73440 On ch=16 n=24 v=90
73536 Off ch=16 n=24 v=64
73536 On ch=16 n=24 v=90
73632 Off ch=16 n=24 v=64
73632 On ch=16 n=24 v=90
73728 Off ch=16 n=24 v=64
73728 On ch=16 n=24 v=90
73824 Off ch=16 n=24 v=64
73824 On ch=16 n=24 v=90
73872 Off ch=16 n=24 v=64
73872 On ch=16 n=24 v=90
73920 Off ch=16 n=24 v=64
73920 On ch=16 n=24 v=90
74016 Off ch=16 n=24 v=64
77568 On ch=16 n=24 v=90
77664 Off ch=16 n=24 v=64
77664 On ch=16 n=24 v=90
77760 Off ch=16 n=24 v=64
77760 On ch=16 n=24 v=90
77856 Off ch=16 n=24 v=64
77856 On ch=16 n=24 v=90
77952 Off ch=16 n=24 v=64
77952 On ch=16 n=24 v=90
78048 Off ch=16 n=24 v=64
78048 On ch=16 n=24 v=90
78240 Off ch=16 n=24 v=64
78240 On ch=16 n=24 v=90
78432 Off ch=16 n=24 v=64
78432 On ch=16 n=24 v=90
78528 Off ch=16 n=24 v=64
78528 On ch=16 n=24 v=90
78624 Off ch=16 n=24 v=64
78624 On ch=16 n=24 v=90
78688 Off ch=16 n=24 v=64
78688 On ch=16 n=24 v=90
78752 Off ch=16 n=24 v=64
78752 On ch=16 n=24 v=90
78816 Off ch=16 n=24 v=64
78816 On ch=16 n=24 v=90
78912 Off ch=16 n=24 v=64
78912 On ch=16 n=24 v=90
79008 Off ch=16 n=24 v=64
79008 On ch=16 n=24 v=90
79200 Off ch=16 n=24 v=64
79200 On ch=16 n=24 v=90
79392 Off ch=16 n=24 v=64
79392 On ch=16 n=24 v=90
79488 Off ch=16 n=24 v=64
79488 On ch=16 n=24 v=90
79584 Off ch=16 n=24 v=64
79584 On ch=16 n=24 v=90
79680 Off ch=16 n=24 v=64
79680 On ch=16 n=24 v=90
79776 Off ch=16 n=24 v=64
79776 On ch=16 n=24 v=90
79872 Off ch=16 n=24 v=64
79872 On ch=16 n=24 v=90
79968 Off ch=16 n=24 v=64
79968 On ch=16 n=24 v=90
80064 Off ch=16 n=24 v=64
80064 On ch=16 n=24 v=90
80160 Off ch=16 n=24 v=64
80160 On ch=16 n=24 v=90
80352 Off ch=16 n=24 v=64
80352 On ch=16 n=24 v=90
80544 Off ch=16 n=24 v=64
80544 On ch=16 n=24 v=90
80640 Off ch=16 n=24 v=64
80640 On ch=16 n=24 v=90
80736 Off ch=16 n=24 v=64
80736 On ch=16 n=24 v=90
80832 Off ch=16 n=24 v=64
80832 On ch=16 n=24 v=90
80928 Off ch=16 n=24 v=64
80928 On ch=16 n=24 v=90
81024 Off ch=16 n=24 v=64
81024 On ch=16 n=24 v=90
81120 Off ch=16 n=24 v=64
81120 On ch=16 n=24 v=90
81312 Off ch=16 n=24 v=64
81312 On ch=16 n=24 v=90
81504 Off ch=16 n=24 v=64
81504 On ch=16 n=24 v=90
81600 Off ch=16 n=24 v=64
81600 On ch=16 n=24 v=90
81696 Off ch=16 n=24 v=64
81696 On ch=16 n=24 v=90
81792 Off ch=16 n=24 v=64
81792 On ch=16 n=24 v=90
81888 Off ch=16 n=24 v=64
81888 On ch=16 n=24 v=90
81984 Off ch=16 n=24 v=64
81984 On ch=16 n=24 v=90
82176 Off ch=16 n=24 v=64
82176 On ch=16 n=24 v=90
82368 Off ch=16 n=24 v=64
82368 On ch=16 n=24 v=90
82464 Off ch=16 n=24 v=64
82464 On ch=16 n=24 v=90
82560 Off ch=16 n=24 v=64
82560 On ch=16 n=24 v=90
82656 Off ch=16 n=24 v=64
82656 On ch=16 n=24 v=90
82752 Off ch=16 n=24 v=64
82752 On ch=16 n=24 v=90
82848 Off ch=16 n=24 v=64
82848 On ch=16 n=24 v=90
83040 Off ch=16 n=24 v=64
83040 On ch=16 n=24 v=90
83136 Off ch=16 n=24 v=64
83136 On ch=16 n=24 v=90
83232 Off ch=16 n=24 v=64
83232 On ch=16 n=24 v=90
83328 Off ch=16 n=24 v=64
83328 On ch=16 n=24 v=90
83424 Off ch=16 n=24 v=64
83424 On ch=16 n=24 v=90
83520 Off ch=16 n=24 v=64
83520 On ch=16 n=24 v=90
83616 Off ch=16 n=24 v=64
83616 On ch=16 n=24 v=90
83712 Off ch=16 n=24 v=64
83712 On ch=16 n=24 v=90
83808 Off ch=16 n=24 v=64
83808 On ch=16 n=24 v=90
83904 Off ch=16 n=24 v=64
83904 On ch=16 n=24 v=90
84000 Off ch=16 n=24 v=64
84000 On ch=16 n=24 v=90
84096 Off ch=16 n=24 v=64
84096 On ch=16 n=24 v=90
84384 Off ch=16 n=24 v=64
84384 On ch=16 n=24 v=90
84576 Off ch=16 n=24 v=64
84576 On ch=16 n=24 v=90
84672 Off ch=16 n=24 v=64
84672 On ch=16 n=24 v=90
84768 Off ch=16 n=24 v=64
84768 On ch=16 n=24 v=90
84832 Off ch=16 n=24 v=64
84832 On ch=16 n=24 v=90
84896 Off ch=16 n=24 v=64
84896 On ch=16 n=24 v=90
84960 Off ch=16 n=24 v=64
84960 On ch=16 n=24 v=90
85056 Off ch=16 n=24 v=64
85056 On ch=16 n=24 v=90
85152 Off ch=16 n=24 v=64
85152 On ch=16 n=24 v=90
85344 Off ch=16 n=24 v=64
85344 On ch=16 n=24 v=90
85536 Off ch=16 n=24 v=64
85536 On ch=16 n=24 v=90
85632 Off ch=16 n=24 v=64
85632 On ch=16 n=24 v=90
85824 Off ch=16 n=24 v=64
85824 On ch=16 n=24 v=90
85920 Off ch=16 n=24 v=64
85920 On ch=16 n=24 v=90
86016 Off ch=16 n=24 v=64
86016 On ch=16 n=24 v=90
86112 Off ch=16 n=24 v=64
86112 On ch=16 n=24 v=90
86208 Off ch=16 n=24 v=64
86208 On ch=16 n=24 v=90
86304 Off ch=16 n=24 v=64
86304 On ch=16 n=24 v=90
86496 Off ch=16 n=24 v=64
86496 On ch=16 n=24 v=90
86688 Off ch=16 n=24 v=64
86688 On ch=16 n=24 v=90
86784 Off ch=16 n=24 v=64
86784 On ch=16 n=24 v=90
86880 Off ch=16 n=24 v=64
86880 On ch=16 n=24 v=90
86976 Off ch=16 n=24 v=64
86976 On ch=16 n=24 v=90
87072 Off ch=16 n=24 v=64
87264 On ch=16 n=24 v=90
87456 Off ch=16 n=24 v=64
88032 On ch=16 n=24 v=90
88224 Off ch=16 n=24 v=64
89280 On ch=16 n=24 v=90
89376 Off ch=16 n=24 v=64
89376 On ch=16 n=24 v=90
89472 Off ch=16 n=24 v=64
89472 On ch=16 n=24 v=90
89568 Off ch=16 n=24 v=64
90336 On ch=16 n=24 v=90
90528 Off ch=16 n=24 v=64
91104 On ch=16 n=24 v=90
91296 Off ch=16 n=24 v=64
92256 On ch=16 n=24 v=90
92352 Off ch=16 n=24 v=64
92352 On ch=16 n=24 v=90
92448 Off ch=16 n=24 v=64
92736 On ch=16 n=24 v=90
92832 Off ch=16 n=24 v=64
92832 On ch=16 n=24 v=90
92928 Off ch=16 n=24 v=64
92928 On ch=16 n=24 v=90
93024 Off ch=16 n=24 v=64
96384 On ch=16 n=24 v=90
96480 Off ch=16 n=24 v=64
96480 On ch=16 n=24 v=90
96576 Off ch=16 n=24 v=64
96576 On ch=16 n=24 v=90
96672 Off ch=16 n=24 v=64
96672 On ch=16 n=24 v=90
96768 Off ch=16 n=24 v=64
96768 On ch=16 n=24 v=90
96864 Off ch=16 n=24 v=64
96864 On ch=16 n=24 v=90
97056 Off ch=16 n=24 v=64
97056 On ch=16 n=24 v=90
97248 Off ch=16 n=24 v=64
97248 On ch=16 n=24 v=90
97344 Off ch=16 n=24 v=64
97344 On ch=16 n=24 v=90
97440 Off ch=16 n=24 v=64
97440 On ch=16 n=24 v=90
97504 Off ch=16 n=24 v=64
97504 On ch=16 n=24 v=90
97568 Off ch=16 n=24 v=64
97568 On ch=16 n=24 v=90
97632 Off ch=16 n=24 v=64
97632 On ch=16 n=24 v=90
97728 Off ch=16 n=24 v=64
97728 On ch=16 n=24 v=90
97824 Off ch=16 n=24 v=64
97824 On ch=16 n=24 v=90
98016 Off ch=16 n=24 v=64
98016 On ch=16 n=24 v=90
98208 Off ch=16 n=24 v=64
98208 On ch=16 n=24 v=90
98304 Off ch=16 n=24 v=64
98304 On ch=16 n=24 v=90
98400 Off ch=16 n=24 v=64
98400 On ch=16 n=24 v=90
98496 Off ch=16 n=24 v=64
98496 On ch=16 n=24 v=90
98592 Off ch=16 n=24 v=64
98592 On ch=16 n=24 v=90
98688 Off ch=16 n=24 v=64
98688 On ch=16 n=24 v=90
98784 Off ch=16 n=24 v=64
98784 On ch=16 n=24 v=90
98832 Off ch=16 n=24 v=64
98832 On ch=16 n=24 v=90
98880 Off ch=16 n=24 v=64
98880 On ch=16 n=24 v=90
98976 Off ch=16 n=24 v=64
102528 On ch=16 n=24 v=90
102624 Off ch=16 n=24 v=64
102624 On ch=16 n=24 v=90
102720 Off ch=16 n=24 v=64
102720 On ch=16 n=24 v=90
102816 Off ch=16 n=24 v=64
102816 On ch=16 n=24 v=90
102912 Off ch=16 n=24 v=64
102912 On ch=16 n=24 v=90
103008 Off ch=16 n=24 v=64
103008 On ch=16 n=24 v=90
103200 Off ch=16 n=24 v=64
103200 On ch=16 n=24 v=90
103392 Off ch=16 n=24 v=64
103392 On ch=16 n=24 v=90
103488 Off ch=16 n=24 v=64
103488 On ch=16 n=24 v=90
103584 Off ch=16 n=24 v=64
103584 On ch=16 n=24 v=90
103648 Off ch=16 n=24 v=64
103648 On ch=16 n=24 v=90
103712 Off ch=16 n=24 v=64
103712 On ch=16 n=24 v=90
103776 Off ch=16 n=24 v=64
103776 On ch=16 n=24 v=90
103872 Off ch=16 n=24 v=64
103872 On ch=16 n=24 v=90
103968 Off ch=16 n=24 v=64
103968 On ch=16 n=24 v=90
104160 Off ch=16 n=24 v=64
104160 On ch=16 n=24 v=90
104352 Off ch=16 n=24 v=64
104352 On ch=16 n=24 v=90
104448 Off ch=16 n=24 v=64
104448 On ch=16 n=24 v=90
104544 Off ch=16 n=24 v=64
104544 On ch=16 n=24 v=90
104640 Off ch=16 n=24 v=64
104640 On ch=16 n=24 v=90
104736 Off ch=16 n=24 v=64
104736 On ch=16 n=24 v=90
104832 Off ch=16 n=24 v=64
104832 On ch=16 n=24 v=90
104928 Off ch=16 n=24 v=64
104928 On ch=16 n=24 v=90
104976 Off ch=16 n=24 v=64
104976 On ch=16 n=24 v=90
105024 Off ch=16 n=24 v=64
105024 On ch=16 n=24 v=90
105120 Off ch=16 n=24 v=64
105312 On ch=16 n=24 v=90
105408 Off ch=16 n=24 v=64
105408 On ch=16 n=24 v=90
105504 Off ch=16 n=24 v=64
105504 On ch=16 n=24 v=90
105600 Off ch=16 n=24 v=64
105600 On ch=16 n=24 v=90
105696 Off ch=16 n=24 v=64
105696 On ch=16 n=24 v=90
105792 Off ch=16 n=24 v=64
105792 On ch=16 n=24 v=90
105888 Off ch=16 n=24 v=64
105888 On ch=16 n=24 v=90
105984 Off ch=16 n=24 v=64
105984 On ch=16 n=24 v=90
106080 Off ch=16 n=24 v=64
106080 On ch=16 n=24 v=90
106176 Off ch=16 n=24 v=64
106176 On ch=16 n=24 v=90
106272 Off ch=16 n=24 v=64
106272 On ch=16 n=24 v=90
106368 Off ch=16 n=24 v=64
106368 On ch=16 n=24 v=90
106464 Off ch=16 n=24 v=64
106464 On ch=16 n=24 v=90
106560 Off ch=16 n=24 v=64
106560 On ch=16 n=24 v=90
106656 Off ch=16 n=24 v=64
106656 On ch=16 n=24 v=90
106752 Off ch=16 n=24 v=64
106752 On ch=16 n=24 v=90
106848 Off ch=16 n=24 v=64
106848 On ch=16 n=24 v=90
106944 Off ch=16 n=24 v=64
106944 On ch=16 n=24 v=90
107040 Off ch=16 n=24 v=64
107040 On ch=16 n=24 v=90
107136 Off ch=16 n=24 v=64
107136 On ch=16 n=24 v=90
107232 Off ch=16 n=24 v=64
107232 On ch=16 n=24 v=90
107328 Off ch=16 n=24 v=64
107328 On ch=16 n=24 v=90
107424 Off ch=16 n=24 v=64
107424 On ch=16 n=24 v=90
107520 Off ch=16 n=24 v=64
107520 On ch=16 n=24 v=90
107616 Off ch=16 n=24 v=64
107616 On ch=16 n=24 v=90
107712 Off ch=16 n=24 v=64
107712 On ch=16 n=24 v=90
107808 Off ch=16 n=24 v=64
107808 On ch=16 n=24 v=90
107904 Off ch=16 n=24 v=64
107904 On ch=16 n=24 v=90
108000 Off ch=16 n=24 v=64
108000 On ch=16 n=24 v=90
108096 Off ch=16 n=24 v=64
108096 On ch=16 n=24 v=90
108192 Off ch=16 n=24 v=64
108192 On ch=16 n=24 v=90
108288 Off ch=16 n=24 v=64
108288 On ch=16 n=24 v=90
108384 Off ch=16 n=24 v=64
108384 On ch=16 n=24 v=90
108480 Off ch=16 n=24 v=64
108480 On ch=16 n=24 v=90
108576 Off ch=16 n=24 v=64
108576 On ch=16 n=24 v=90
108672 Off ch=16 n=24 v=64
108672 On ch=16 n=24 v=90
108768 Off ch=16 n=24 v=64
108768 On ch=16 n=24 v=90
108864 Off ch=16 n=24 v=64
108864 On ch=16 n=24 v=90
108960 Off ch=16 n=24 v=64
108960 On ch=16 n=24 v=90
109056 Off ch=16 n=24 v=64
109056 On ch=16 n=24 v=90
109152 Off ch=16 n=24 v=64
109152 On ch=16 n=24 v=90
109248 Off ch=16 n=24 v=64
109248 On ch=16 n=24 v=90
109344 Off ch=16 n=24 v=64
109344 On ch=16 n=24 v=90
109440 Off ch=16 n=24 v=64
109440 On ch=16 n=24 v=90
109536 Off ch=16 n=24 v=64
109536 On ch=16 n=24 v=90
109632 Off ch=16 n=24 v=64
109632 On ch=16 n=24 v=90
109728 Off ch=16 n=24 v=64
109728 On ch=16 n=24 v=90
109824 Off ch=16 n=24 v=64
109824 On ch=16 n=24 v=90
109920 Off ch=16 n=24 v=64
109920 On ch=16 n=24 v=90
110016 Off ch=16 n=24 v=64
110016 On ch=16 n=24 v=90
110112 Off ch=16 n=24 v=64
110112 On ch=16 n=24 v=90
110208 Off ch=16 n=24 v=64
110208 On ch=16 n=24 v=90
110304 Off ch=16 n=24 v=64
110304 On ch=16 n=24 v=90
110400 Off ch=16 n=24 v=64
110400 On ch=16 n=24 v=90
110496 Off ch=16 n=24 v=64
110496 On ch=16 n=24 v=90
110592 Off ch=16 n=24 v=64
110592 On ch=16 n=24 v=90
110688 Off ch=16 n=24 v=64
110688 On ch=16 n=24 v=90
110784 Off ch=16 n=24 v=64
110784 On ch=16 n=24 v=90
110880 Off ch=16 n=24 v=64
110880 On ch=16 n=24 v=90
110976 Off ch=16 n=24 v=64
110976 On ch=16 n=24 v=90
111072 Off ch=16 n=24 v=64
111072 On ch=16 n=24 v=90
111168 Off ch=16 n=24 v=64
111168 On ch=16 n=24 v=90
111264 Off ch=16 n=24 v=64
111264 On ch=16 n=24 v=90
111360 Off ch=16 n=24 v=64
111360 On ch=16 n=24 v=90
111456 Off ch=16 n=24 v=64
111456 On ch=16 n=24 v=90
111504 Off ch=16 n=24 v=64
111504 On ch=16 n=24 v=90
111552 Off ch=16 n=24 v=64
111552 On ch=16 n=24 v=90
111648 Off ch=16 n=24 v=64
111648 On ch=16 n=24 v=90
111840 Off ch=16 n=24 v=64
111840 On ch=16 n=24 v=90
112032 Off ch=16 n=24 v=64
112032 On ch=16 n=24 v=90
112320 Off ch=16 n=24 v=64
112320 On ch=16 n=24 v=90
112416 Off ch=16 n=24 v=64
112416 On ch=16 n=24 v=90
112512 Off ch=16 n=24 v=64
112512 On ch=16 n=24 v=90
112608 Off ch=16 n=24 v=64
112608 On ch=16 n=24 v=90
112800 Off ch=16 n=24 v=64
112800 On ch=16 n=24 v=90
112992 Off ch=16 n=24 v=64
112992 On ch=16 n=24 v=90
113088 Off ch=16 n=24 v=64
113088 On ch=16 n=24 v=90
113184 Off ch=16 n=24 v=64
113184 On ch=16 n=24 v=90
113280 Off ch=16 n=24 v=64
113280 On ch=16 n=24 v=90
113376 Off ch=16 n=24 v=64
113376 On ch=16 n=24 v=90
113568 Off ch=16 n=24 v=64
113568 On ch=16 n=24 v=90
113760 Off ch=16 n=24 v=64
113760 On ch=16 n=24 v=90
113856 Off ch=16 n=24 v=64
113856 On ch=16 n=24 v=90
113952 Off ch=16 n=24 v=64
113952 On ch=16 n=24 v=90
114144 Off ch=16 n=24 v=64
114144 On ch=16 n=24 v=90
114240 Off ch=16 n=24 v=64
114240 On ch=16 n=24 v=90
114336 Off ch=16 n=24 v=64
114336 On ch=16 n=24 v=90
114528 Off ch=16 n=24 v=64
114528 On ch=16 n=24 v=90
114624 Off ch=16 n=24 v=64
114624 On ch=16 n=24 v=90
114720 Off ch=16 n=24 v=64
114720 On ch=16 n=24 v=90
114912 Off ch=16 n=24 v=64
114912 On ch=16 n=24 v=90
115104 Off ch=16 n=24 v=64
115104 On ch=16 n=24 v=90
115296 Off ch=16 n=24 v=64
115296 On ch=16 n=24 v=90
115392 Off ch=16 n=24 v=64
115392 On ch=16 n=24 v=90
115488 Off ch=16 n=24 v=64
115488 On ch=16 n=24 v=90
115584 Off ch=16 n=24 v=64
115584 On ch=16 n=24 v=90
115680 Off ch=16 n=24 v=64
115680 On ch=16 n=24 v=90
115872 Off ch=16 n=24 v=64
115872 On ch=16 n=24 v=90
116064 Off ch=16 n=24 v=64
116064 On ch=16 n=24 v=90
116160 Off ch=16 n=24 v=64
116160 On ch=16 n=24 v=90
116256 Off ch=16 n=24 v=64
116256 On ch=16 n=24 v=90
116352 Off ch=16 n=24 v=64
116352 On ch=16 n=24 v=90
116448 Off ch=16 n=24 v=64
116448 On ch=16 n=24 v=90
116640 Off ch=16 n=24 v=64
116640 On ch=16 n=24 v=90
116832 Off ch=16 n=24 v=64
116832 On ch=16 n=24 v=90
116928 Off ch=16 n=24 v=64
116928 On ch=16 n=24 v=90
117024 Off ch=16 n=24 v=64
117024 On ch=16 n=24 v=90
117216 Off ch=16 n=24 v=64
117216 On ch=16 n=24 v=90
117312 Off ch=16 n=24 v=64
117312 On ch=16 n=24 v=90
117408 Off ch=16 n=24 v=64
117408 On ch=16 n=24 v=90
117600 Off ch=16 n=24 v=64
117600 On ch=16 n=24 v=90
117696 Off ch=16 n=24 v=64
117696 On ch=16 n=24 v=90
117792 Off ch=16 n=24 v=64
117792 On ch=16 n=24 v=90
117984 Off ch=16 n=24 v=64
117984 On ch=16 n=24 v=90
118176 Off ch=16 n=24 v=64
118176 On ch=16 n=24 v=90
118368 Off ch=16 n=24 v=64
118368 On ch=16 n=24 v=90
118464 Off ch=16 n=24 v=64
118464 On ch=16 n=24 v=90
118560 Off ch=16 n=24 v=64
118560 On ch=16 n=24 v=90
118656 Off ch=16 n=24 v=64
118656 On ch=16 n=24 v=90
118752 Off ch=16 n=24 v=64
118752 On ch=16 n=24 v=90
118944 Off ch=16 n=24 v=64
118944 On ch=16 n=24 v=90
119136 Off ch=16 n=24 v=64
119136 On ch=16 n=24 v=90
119232 Off ch=16 n=24 v=64
119232 On ch=16 n=24 v=90
119328 Off ch=16 n=24 v=64
119328 On ch=16 n=24 v=90
119424 Off ch=16 n=24 v=64
119424 On ch=16 n=24 v=90
119520 Off ch=16 n=24 v=64
119520 On ch=16 n=24 v=90
119712 Off ch=16 n=24 v=64
119712 On ch=16 n=24 v=90
119904 Off ch=16 n=24 v=64
119904 On ch=16 n=24 v=90
120000 Off ch=16 n=24 v=64
120000 On ch=16 n=24 v=90
120096 Off ch=16 n=24 v=64
120096 On ch=16 n=24 v=90
120288 Off ch=16 n=24 v=64
120288 On ch=16 n=24 v=90
120384 Off ch=16 n=24 v=64
120384 On ch=16 n=24 v=90
120480 Off ch=16 n=24 v=64
120480 On ch=16 n=24 v=90
120672 Off ch=16 n=24 v=64
120672 On ch=16 n=24 v=90
120768 Off ch=16 n=24 v=64
120768 On ch=16 n=24 v=90
120864 Off ch=16 n=24 v=64
120864 On ch=16 n=24 v=90
121056 Off ch=16 n=24 v=64
121056 On ch=16 n=24 v=90
121248 Off ch=16 n=24 v=64
121248 On ch=16 n=24 v=90
121440 Off ch=16 n=24 v=64
121440 On ch=16 n=24 v=90
121536 Off ch=16 n=24 v=64
121536 On ch=16 n=24 v=90
121632 Off ch=16 n=24 v=64
121632 On ch=16 n=24 v=90
121728 Off ch=16 n=24 v=64
121728 On ch=16 n=24 v=90
121824 Off ch=16 n=24 v=64
121824 On ch=16 n=24 v=90
122016 Off ch=16 n=24 v=64
122016 On ch=16 n=24 v=90
122208 Off ch=16 n=24 v=64
122208 On ch=16 n=24 v=90
122304 Off ch=16 n=24 v=64
122304 On ch=16 n=24 v=90
122400 Off ch=16 n=24 v=64
122400 On ch=16 n=24 v=90
122496 Off ch=16 n=24 v=64
122496 On ch=16 n=24 v=90
122592 Off ch=16 n=24 v=64
122592 On ch=16 n=24 v=90
122784 Off ch=16 n=24 v=64
122784 On ch=16 n=24 v=90
122976 Off ch=16 n=24 v=64
122976 On ch=16 n=24 v=90
123072 Off ch=16 n=24 v=64
123072 On ch=16 n=24 v=90
123168 Off ch=16 n=24 v=64
123168 On ch=16 n=24 v=90
123360 Off ch=16 n=24 v=64
123360 On ch=16 n=24 v=90
123456 Off ch=16 n=24 v=64
123456 On ch=16 n=24 v=90
123552 Off ch=16 n=24 v=64
123552 On ch=16 n=24 v=90
123744 Off ch=16 n=24 v=64
123744 On ch=16 n=24 v=90
123936 Off ch=16 n=24 v=64
123936 On ch=16 n=24 v=90
124128 Off ch=16 n=24 v=64
124128 On ch=16 n=24 v=90
124320 Off ch=16 n=24 v=64
124320 On ch=16 n=24 v=90
124512 Off ch=16 n=24 v=64
124512 On ch=16 n=24 v=90
124608 Off ch=16 n=24 v=64
124608 On ch=16 n=24 v=90
124704 Off ch=16 n=24 v=64
124704 On ch=16 n=24 v=90
124800 Off ch=16 n=24 v=64
124800 On ch=16 n=24 v=90
124896 Off ch=16 n=24 v=64
124896 On ch=16 n=24 v=90
125088 Off ch=16 n=24 v=64
125088 On ch=16 n=24 v=90
125280 Off ch=16 n=24 v=64
125280 On ch=16 n=24 v=90
125376 Off ch=16 n=24 v=64
125376 On ch=16 n=24 v=90
125472 Off ch=16 n=24 v=64
125472 On ch=16 n=24 v=90
125568 Off ch=16 n=24 v=64
125568 On ch=16 n=24 v=90
125664 Off ch=16 n=24 v=64
125664 On ch=16 n=24 v=90
125856 Off ch=16 n=24 v=64
125856 On ch=16 n=24 v=90
126048 Off ch=16 n=24 v=64
126048 On ch=16 n=24 v=90
126144 Off ch=16 n=24 v=64
126144 On ch=16 n=24 v=90
126240 Off ch=16 n=24 v=64
126240 On ch=16 n=24 v=90
126432 Off ch=16 n=24 v=64
126432 On ch=16 n=24 v=90
126528 Off ch=16 n=24 v=64
126528 On ch=16 n=24 v=90
126624 Off ch=16 n=24 v=64
126624 On ch=16 n=24 v=90
126816 Off ch=16 n=24 v=64
126816 On ch=16 n=24 v=90
126912 Off ch=16 n=24 v=64
126912 On ch=16 n=24 v=90
127008 Off ch=16 n=24 v=64
127008 On ch=16 n=24 v=90
127200 Off ch=16 n=24 v=64
127200 On ch=16 n=24 v=90
127392 Off ch=16 n=24 v=64
127392 On ch=16 n=24 v=90
127584 Off ch=16 n=24 v=64
127584 On ch=16 n=24 v=90
127680 Off ch=16 n=24 v=64
127680 On ch=16 n=24 v=90
127776 Off ch=16 n=24 v=64
127776 On ch=16 n=24 v=90
127872 Off ch=16 n=24 v=64
127872 On ch=16 n=24 v=90
127968 Off ch=16 n=24 v=64
127968 On ch=16 n=24 v=90
128160 Off ch=16 n=24 v=64
128160 On ch=16 n=24 v=90
128352 Off ch=16 n=24 v=64
128352 On ch=16 n=24 v=90
128448 Off ch=16 n=24 v=64
128448 On ch=16 n=24 v=90
128544 Off ch=16 n=24 v=64
128544 On ch=16 n=24 v=90
128640 Off ch=16 n=24 v=64
128640 On ch=16 n=24 v=90
128736 Off ch=16 n=24 v=64
128736 On ch=16 n=24 v=90
128928 Off ch=16 n=24 v=64
128928 On ch=16 n=24 v=90
129120 Off ch=16 n=24 v=64
129120 On ch=16 n=24 v=90
129216 Off ch=16 n=24 v=64
129216 On ch=16 n=24 v=90
129312 Off ch=16 n=24 v=64
129312 On ch=16 n=24 v=90
129504 Off ch=16 n=24 v=64
129504 On ch=16 n=24 v=90
129600 Off ch=16 n=24 v=64
129600 On ch=16 n=24 v=90
129696 Off ch=16 n=24 v=64
129696 On ch=16 n=24 v=90
129888 Off ch=16 n=24 v=64
129888 On ch=16 n=24 v=90
130080 Off ch=16 n=24 v=64
130080 On ch=16 n=24 v=90
130272 Off ch=16 n=24 v=64
130272 On ch=16 n=24 v=90
130464 Off ch=16 n=24 v=64
130464 On ch=16 n=24 v=90
130656 Off ch=16 n=24 v=64
130656 On ch=16 n=24 v=90
130752 Off ch=16 n=24 v=64
130752 On ch=16 n=24 v=90
130848 Off ch=16 n=24 v=64
130848 On ch=16 n=24 v=90
130944 Off ch=16 n=24 v=64
130944 On ch=16 n=24 v=90
131040 Off ch=16 n=24 v=64
131040 On ch=16 n=24 v=90
131232 Off ch=16 n=24 v=64
131232 On ch=16 n=24 v=90
131424 Off ch=16 n=24 v=64
131424 On ch=16 n=24 v=90
131520 Off ch=16 n=24 v=64
131520 On ch=16 n=24 v=90
131616 Off ch=16 n=24 v=64
131616 On ch=16 n=24 v=90
131712 Off ch=16 n=24 v=64
131712 On ch=16 n=24 v=90
131808 Off ch=16 n=24 v=64
131808 On ch=16 n=24 v=90
132000 Off ch=16 n=24 v=64
132000 On ch=16 n=24 v=90
132192 Off ch=16 n=24 v=64
132192 On ch=16 n=24 v=90
132288 Off ch=16 n=24 v=64
132288 On ch=16 n=24 v=90
132384 Off ch=16 n=24 v=64
132384 On ch=16 n=24 v=90
132576 Off ch=16 n=24 v=64
132576 On ch=16 n=24 v=90
132672 Off ch=16 n=24 v=64
132672 On ch=16 n=24 v=90
132768 Off ch=16 n=24 v=64
132768 On ch=16 n=24 v=90
132960 Off ch=16 n=24 v=64
132960 On ch=16 n=24 v=90
133056 Off ch=16 n=24 v=64
133056 On ch=16 n=24 v=90
133152 Off ch=16 n=24 v=64
133152 On ch=16 n=24 v=90
133344 Off ch=16 n=24 v=64
133344 On ch=16 n=24 v=90
133536 Off ch=16 n=24 v=64
133536 On ch=16 n=24 v=90
133728 Off ch=16 n=24 v=64
133728 On ch=16 n=24 v=90
133824 Off ch=16 n=24 v=64
133824 On ch=16 n=24 v=90
133920 Off ch=16 n=24 v=64
133920 On ch=16 n=24 v=90
134016 Off ch=16 n=24 v=64
134016 On ch=16 n=24 v=90
134112 Off ch=16 n=24 v=64
134112 On ch=16 n=24 v=90
134304 Off ch=16 n=24 v=64
134304 On ch=16 n=24 v=90
134496 Off ch=16 n=24 v=64
134496 On ch=16 n=24 v=90
134592 Off ch=16 n=24 v=64
134592 On ch=16 n=24 v=90
134688 Off ch=16 n=24 v=64
134688 On ch=16 n=24 v=90
134784 Off ch=16 n=24 v=64
134784 On ch=16 n=24 v=90
134880 Off ch=16 n=24 v=64
134880 On ch=16 n=24 v=90
135072 Off ch=16 n=24 v=64
135072 On ch=16 n=24 v=90
135264 Off ch=16 n=24 v=64
135264 On ch=16 n=24 v=90
135360 Off ch=16 n=24 v=64
135360 On ch=16 n=24 v=90
135456 Off ch=16 n=24 v=64
135456 On ch=16 n=24 v=90
135648 Off ch=16 n=24 v=64
135648 On ch=16 n=24 v=90
135744 Off ch=16 n=24 v=64
135744 On ch=16 n=24 v=90
135840 Off ch=16 n=24 v=64
135840 On ch=16 n=24 v=90
136032 Off ch=16 n=24 v=64
136032 On ch=16 n=24 v=90
136224 Off ch=16 n=24 v=64
136224 On ch=16 n=24 v=90
136416 Off ch=16 n=24 v=64
136416 On ch=16 n=24 v=90
136512 Off ch=16 n=24 v=64
136512 On ch=16 n=24 v=90
136608 Off ch=16 n=24 v=64
136608 On ch=16 n=24 v=90
136704 Off ch=16 n=24 v=64
136704 On ch=16 n=24 v=90
136800 Off ch=16 n=24 v=64
136800 On ch=16 n=24 v=90
136992 Off ch=16 n=24 v=64
136992 On ch=16 n=24 v=90
137184 Off ch=16 n=24 v=64
137184 On ch=16 n=24 v=90
137280 Off ch=16 n=24 v=64
137280 On ch=16 n=24 v=90
137376 Off ch=16 n=24 v=64
137376 On ch=16 n=24 v=90
137568 Off ch=16 n=24 v=64
137568 On ch=16 n=24 v=90
137664 Off ch=16 n=24 v=64
137664 On ch=16 n=24 v=90
137760 Off ch=16 n=24 v=64
137760 On ch=16 n=24 v=90
137952 Off ch=16 n=24 v=64
137952 On ch=16 n=24 v=90
138144 Off ch=16 n=24 v=64
138144 On ch=16 n=24 v=90
138336 Off ch=16 n=24 v=64
138336 On ch=16 n=24 v=90
138432 Off ch=16 n=24 v=64
138432 On ch=16 n=24 v=90
138528 Off ch=16 n=24 v=64
138528 On ch=16 n=24 v=90
138624 Off ch=16 n=24 v=64
138624 On ch=16 n=24 v=90
138720 Off ch=16 n=24 v=64
138720 On ch=16 n=24 v=90
138912 Off ch=16 n=24 v=64
138912 On ch=16 n=24 v=90
139104 Off ch=16 n=24 v=64
139104 On ch=16 n=24 v=90
139200 Off ch=16 n=24 v=64
139200 On ch=16 n=24 v=90
139296 Off ch=16 n=24 v=64
139296 On ch=16 n=24 v=90
139392 Off ch=16 n=24 v=64
139392 On ch=16 n=24 v=90
139488 Off ch=16 n=24 v=64
139488 On ch=16 n=24 v=90
139680 Off ch=16 n=24 v=64
139680 On ch=16 n=24 v=90
139872 Off ch=16 n=24 v=64
139872 On ch=16 n=24 v=90
139968 Off ch=16 n=24 v=64
139968 On ch=16 n=24 v=90
140064 Off ch=16 n=24 v=64
140064 On ch=16 n=24 v=90
140160 Off ch=16 n=24 v=64
140160 On ch=16 n=24 v=90
140256 Off ch=16 n=24 v=64
140256 On ch=16 n=24 v=90
140448 Off ch=16 n=24 v=64
140448 On ch=16 n=24 v=90
140640 Off ch=16 n=24 v=64
140640 On ch=16 n=24 v=90
140736 Off ch=16 n=24 v=64
140736 On ch=16 n=24 v=90
140832 Off ch=16 n=24 v=64
140832 On ch=16 n=24 v=90
140928 Off ch=16 n=24 v=64
140928 On ch=16 n=24 v=90
141024 Off ch=16 n=24 v=64
141024 On ch=16 n=24 v=90
141216 Off ch=16 n=24 v=64
141216 Meta TrkEnd
TrkEnd
MTrk
0 Meta 0x21 01
0 Meta TrkName "Snare Drum          "
0 PrCh ch=16 p=0
3360 On ch=16 n=27 v=90
3456 Off ch=16 n=27 v=64
3456 On ch=16 n=27 v=90
3552 Off ch=16 n=27 v=64
3552 On ch=16 n=27 v=90
3648 Off ch=16 n=27 v=64
3648 On ch=16 n=27 v=90
3744 Off ch=16 n=27 v=64
3744 On ch=16 n=27 v=90
3840 Off ch=16 n=27 v=64
3840 On ch=16 n=27 v=90
4032 Off ch=16 n=27 v=64
4032 On ch=16 n=27 v=90
4224 Off ch=16 n=27 v=64
4224 On ch=16 n=27 v=90
4320 Off ch=16 n=27 v=64
4320 On ch=16 n=27 v=90
4416 Off ch=16 n=27 v=64
4416 On ch=16 n=27 v=90
4480 Off ch=16 n=27 v=64
4480 On ch=16 n=27 v=90
4544 Off ch=16 n=27 v=64
4544 On ch=16 n=27 v=90
4608 Off ch=16 n=27 v=64
4608 On ch=16 n=27 v=90
4704 Off ch=16 n=27 v=64
4704 On ch=16 n=27 v=90
4800 Off ch=16 n=27 v=64
4800 On ch=16 n=27 v=90
4992 Off ch=16 n=27 v=64
4992 On ch=16 n=27 v=90
5184 Off ch=16 n=27 v=64
5184 On ch=16 n=27 v=90
5280 Off ch=16 n=27 v=64
5280 On ch=16 n=27 v=90
5376 Off ch=16 n=27 v=64
5376 On ch=16 n=27 v=90
5472 Off ch=16 n=27 v=64
5472 On ch=16 n=27 v=90
5568 Off ch=16 n=27 v=64
5568 On ch=16 n=27 v=90
5664 Off ch=16 n=27 v=64
5664 On ch=16 n=27 v=90
5760 Off ch=16 n=27 v=64
5760 On ch=16 n=27 v=90
5808 Off ch=16 n=27 v=64
5808 On ch=16 n=27 v=90
5856 Off ch=16 n=27 v=64
5856 On ch=16 n=27 v=90
5952 Off ch=16 n=27 v=64
9504 On ch=16 n=27 v=90
9600 Off ch=16 n=27 v=64
9600 On ch=16 n=27 v=90
9648 Off ch=16 n=27 v=64
9648 On ch=16 n=27 v=90
9696 Off ch=16 n=27 v=64
9696 On ch=16 n=27 v=90
9792 Off ch=16 n=27 v=64
9792 On ch=16 n=27 v=90
9888 Off ch=16 n=27 v=64
9888 On ch=16 n=27 v=90
9984 Off ch=16 n=27 v=64
9984 On ch=16 n=27 v=90
10176 Off ch=16 n=27 v=64
10176 On ch=16 n=27 v=90
10272 Off ch=16 n=27 v=64
10272 On ch=16 n=27 v=90
10368 Off ch=16 n=27 v=64
10368 On ch=16 n=27 v=90
10464 Off ch=16 n=27 v=64
10464 On ch=16 n=27 v=90
10560 Off ch=16 n=27 v=64
10560 On ch=16 n=27 v=90
10624 Off ch=16 n=27 v=64
10624 On ch=16 n=27 v=90
10688 Off ch=16 n=27 v=64
10688 On ch=16 n=27 v=90
10752 Off ch=16 n=27 v=64
10752 On ch=16 n=27 v=90
10848 Off ch=16 n=27 v=64
10848 On ch=16 n=27 v=90
10944 Off ch=16 n=27 v=64
10944 On ch=16 n=27 v=90
11136 Off ch=16 n=27 v=64
11136 On ch=16 n=27 v=90
11328 Off ch=16 n=27 v=64
11328 On ch=16 n=27 v=90
11424 Off ch=16 n=27 v=64
11424 On ch=16 n=27 v=90
11520 Off ch=16 n=27 v=64
11520 On ch=16 n=27 v=90
11616 Off ch=16 n=27 v=64
11616 On ch=16 n=27 v=90
11712 Off ch=16 n=27 v=64
11712 On ch=16 n=27 v=90
11808 Off ch=16 n=27 v=64
11808 On ch=16 n=27 v=90
11904 Off ch=16 n=27 v=64
11904 On ch=16 n=27 v=90
11952 Off ch=16 n=27 v=64
11952 On ch=16 n=27 v=90
12000 Off ch=16 n=27 v=64
12000 On ch=16 n=27 v=90
12096 Off ch=16 n=27 v=64
15648 On ch=16 n=27 v=90
15744 Off ch=16 n=27 v=64
15744 On ch=16 n=27 v=90
15792 Off ch=16 n=27 v=64
15792 On ch=16 n=27 v=90
15840 Off ch=16 n=27 v=64
15840 On ch=16 n=27 v=90
15936 Off ch=16 n=27 v=64
15936 On ch=16 n=27 v=90
16032 Off ch=16 n=27 v=64
16032 On ch=16 n=27 v=90
16128 Off ch=16 n=27 v=64
16128 On ch=16 n=27 v=90
16320 Off ch=16 n=27 v=64
16320 On ch=16 n=27 v=90
16512 Off ch=16 n=27 v=64
16512 On ch=16 n=27 v=90
16608 Off ch=16 n=27 v=64
16608 On ch=16 n=27 v=90
16704 Off ch=16 n=27 v=64
16704 On ch=16 n=27 v=90
16768 Off ch=16 n=27 v=64
16768 On ch=16 n=27 v=90
16832 Off ch=16 n=27 v=64
16832 On ch=16 n=27 v=90
16896 Off ch=16 n=27 v=64
16896 On ch=16 n=27 v=90
16992 Off ch=16 n=27 v=64
16992 On ch=16 n=27 v=90
17088 Off ch=16 n=27 v=64
17088 On ch=16 n=27 v=90
17280 Off ch=16 n=27 v=64
17280 On ch=16 n=27 v=90
17472 Off ch=16 n=27 v=64
17472 On ch=16 n=27 v=90
17568 Off ch=16 n=27 v=64
17568 On ch=16 n=27 v=90
17664 Off ch=16 n=27 v=64
17664 On ch=16 n=27 v=90
17760 Off ch=16 n=27 v=64
17760 On ch=16 n=27 v=90
17856 Off ch=16 n=27 v=64
17856 On ch=16 n=27 v=90
17952 Off ch=16 n=27 v=64
17952 On ch=16 n=27 v=90
18048 Off ch=16 n=27 v=64
18048 On ch=16 n=27 v=90
18144 Off ch=16 n=27 v=64
18144 On ch=16 n=27 v=90
18240 Off ch=16 n=27 v=64
18240 On ch=16 n=27 v=90
18288 Off ch=16 n=27 v=64
18288 On ch=16 n=27 v=90
18336 Off ch=16 n=27 v=64
18336 On ch=16 n=27 v=90
18432 Off ch=16 n=27 v=64
18432 On ch=16 n=27 v=90
18528 Off ch=16 n=27 v=64
18528 On ch=16 n=27 v=90
18624 Off ch=16 n=27 v=64
18624 On ch=16 n=27 v=90
18720 Off ch=16 n=27 v=64
18720 On ch=16 n=27 v=90
18816 Off ch=16 n=27 v=64
18816 On ch=16 n=27 v=90
18912 Off ch=16 n=27 v=64
18912 On ch=16 n=27 v=90
19008 Off ch=16 n=27 v=64
19008 On ch=16 n=27 v=90
19104 Off ch=16 n=27 v=64
19104 On ch=16 n=27 v=90
19200 Off ch=16 n=27 v=64
19200 On ch=16 n=27 v=90
19392 Off ch=16 n=27 v=64
19392 On ch=16 n=27 v=90
19584 Off ch=16 n=27 v=64
19584 On ch=16 n=27 v=90
19680 Off ch=16 n=27 v=64
19680 On ch=16 n=27 v=90
19776 Off ch=16 n=27 v=64
19776 On ch=16 n=27 v=90
19872 Off ch=16 n=27 v=64
19872 On ch=16 n=27 v=90
19968 Off ch=16 n=27 v=64
19968 On ch=16 n=27 v=90
20064 Off ch=16 n=27 v=64
20064 On ch=16 n=27 v=90
20256 Off ch=16 n=27 v=64
20256 On ch=16 n=27 v=90
20448 Off ch=16 n=27 v=64
20448 On ch=16 n=27 v=90
20544 Off ch=16 n=27 v=64
20544 On ch=16 n=27 v=90
20640 Off ch=16 n=27 v=64
20640 On ch=16 n=27 v=90
20736 Off ch=16 n=27 v=64
20736 On ch=16 n=27 v=90
20832 Off ch=16 n=27 v=64
20832 On ch=16 n=27 v=90
20928 Off ch=16 n=27 v=64
20928 On ch=16 n=27 v=90
21120 Off ch=16 n=27 v=64
21120 On ch=16 n=27 v=90
21216 Off ch=16 n=27 v=64
21216 On ch=16 n=27 v=90
21312 Off ch=16 n=27 v=64
21312 On ch=16 n=27 v=90
21408 Off ch=16 n=27 v=64
21408 On ch=16 n=27 v=90
21504 Off ch=16 n=27 v=64
21504 On ch=16 n=27 v=90
21600 Off ch=16 n=27 v=64
21600 On ch=16 n=27 v=90
21696 Off ch=16 n=27 v=64
21696 On ch=16 n=27 v=90
21792 Off ch=16 n=27 v=64
21792 On ch=16 n=27 v=90
21888 Off ch=16 n=27 v=64
21888 On ch=16 n=27 v=90
21984 Off ch=16 n=27 v=64
21984 On ch=16 n=27 v=90
22080 Off ch=16 n=27 v=64
22080 On ch=16 n=27 v=90
22176 Off ch=16 n=27 v=64
22176 On ch=16 n=27 v=90
22272 Off ch=16 n=27 v=64
22272 On ch=16 n=27 v=90
22320 Off ch=16 n=27 v=64
22320 On ch=16 n=27 v=90
22368 Off ch=16 n=27 v=64
22368 On ch=16 n=27 v=90
22464 Off ch=16 n=27 v=64
22464 On ch=16 n=27 v=90
22656 Off ch=16 n=27 v=64
22656 On ch=16 n=27 v=90
22752 Off ch=16 n=27 v=64
22752 On ch=16 n=27 v=90
22848 Off ch=16 n=27 v=64
22848 On ch=16 n=27 v=90
22912 Off ch=16 n=27 v=64
22912 On ch=16 n=27 v=90
22976 Off ch=16 n=27 v=64
22976 On ch=16 n=27 v=90
23040 Off ch=16 n=27 v=64
23040 On ch=16 n=27 v=90
23136 Off ch=16 n=27 v=64
23136 On ch=16 n=27 v=90
23232 Off ch=16 n=27 v=64
23232 On ch=16 n=27 v=90
23424 Off ch=16 n=27 v=64
23424 On ch=16 n=27 v=90
23616 Off ch=16 n=27 v=64
23616 On ch=16 n=27 v=90
23712 Off ch=16 n=27 v=64
23712 On ch=16 n=27 v=90
23904 Off ch=16 n=27 v=64
23904 On ch=16 n=27 v=90
24000 Off ch=16 n=27 v=64
24000 On ch=16 n=27 v=90
24096 Off ch=16 n=27 v=64
24096 On ch=16 n=27 v=90
24192 Off ch=16 n=27 v=64
24192 On ch=16 n=27 v=90
24288 Off ch=16 n=27 v=64
24288 On ch=16 n=27 v=90
24384 Off ch=16 n=27 v=64
24384 On ch=16 n=27 v=90
24432 Off ch=16 n=27 v=64
24432 On ch=16 n=27 v=90
24480 Off ch=16 n=27 v=64
24480 On ch=16 n=27 v=90
24576 Off ch=16 n=27 v=64
24576 On ch=16 n=27 v=90
24768 Off ch=16 n=27 v=64
24768 On ch=16 n=27 v=90
24864 Off ch=16 n=27 v=64
24864 On ch=16 n=27 v=90
24960 Off ch=16 n=27 v=64
24960 On ch=16 n=27 v=90
25056 Off ch=16 n=27 v=64
25056 On ch=16 n=27 v=90
25152 Off ch=16 n=27 v=64
25344 On ch=16 n=27 v=90
25440 Off ch=16 n=27 v=64
25440 On ch=16 n=27 v=90
25536 Off ch=16 n=27 v=64
26112 On ch=16 n=27 v=90
26208 Off ch=16 n=27 v=64
26208 On ch=16 n=27 v=90
26304 Off ch=16 n=27 v=64
27360 On ch=16 n=27 v=90
27456 Off ch=16 n=27 v=64
27456 On ch=16 n=27 v=90
27552 Off ch=16 n=27 v=64
27552 On ch=16 n=27 v=90
27648 Off ch=16 n=27 v=64
28416 On ch=16 n=27 v=90
28608 Off ch=16 n=27 v=64
29184 On ch=16 n=27 v=90
29280 Off ch=16 n=27 v=64
29280 On ch=16 n=27 v=90
29376 Off ch=16 n=27 v=64
30336 On ch=16 n=27 v=90
30432 Off ch=16 n=27 v=64
30432 On ch=16 n=27 v=90
30528 Off ch=16 n=27 v=64
30912 On ch=16 n=27 v=90
31008 Off ch=16 n=27 v=64
31008 On ch=16 n=27 v=90
31104 Off ch=16 n=27 v=64
34176 On ch=16 n=27 v=90
34272 Off ch=16 n=27 v=64
34272 On ch=16 n=27 v=90
34320 Off ch=16 n=27 v=64
34320 On ch=16 n=27 v=90
34368 Off ch=16 n=27 v=64
34368 On ch=16 n=27 v=90
34464 Off ch=16 n=27 v=64
34464 On ch=16 n=27 v=90
34560 Off ch=16 n=27 v=64
34560 On ch=16 n=27 v=90
34656 Off ch=16 n=27 v=64
34656 On ch=16 n=27 v=90
34704 Off ch=16 n=27 v=64
34704 On ch=16 n=27 v=90
34752 Off ch=16 n=27 v=64
34752 On ch=16 n=27 v=90
34848 Off ch=16 n=27 v=64
34848 On ch=16 n=27 v=90
35040 Off ch=16 n=27 v=64
35040 On ch=16 n=27 v=90
35136 Off ch=16 n=27 v=64
35136 On ch=16 n=27 v=90
35232 Off ch=16 n=27 v=64
35232 On ch=16 n=27 v=90
35296 Off ch=16 n=27 v=64
35296 On ch=16 n=27 v=90
35360 Off ch=16 n=27 v=64
35360 On ch=16 n=27 v=90
35424 Off ch=16 n=27 v=64
35424 On ch=16 n=27 v=90
35520 Off ch=16 n=27 v=64
35520 On ch=16 n=27 v=90
35616 Off ch=16 n=27 v=64
35616 On ch=16 n=27 v=90
35808 Off ch=16 n=27 v=64
35808 On ch=16 n=27 v=90
36000 Off ch=16 n=27 v=64
36000 On ch=16 n=27 v=90
36096 Off ch=16 n=27 v=64
36096 On ch=16 n=27 v=90
36192 Off ch=16 n=27 v=64
36192 On ch=16 n=27 v=90
36288 Off ch=16 n=27 v=64
36288 On ch=16 n=27 v=90
36384 Off ch=16 n=27 v=64
36384 On ch=16 n=27 v=90
36480 Off ch=16 n=27 v=64
36480 On ch=16 n=27 v=90
36576 Off ch=16 n=27 v=64
36576 On ch=16 n=27 v=90
36624 Off ch=16 n=27 v=64
36624 On ch=16 n=27 v=90
36672 Off ch=16 n=27 v=64
36672 On ch=16 n=27 v=90
36768 Off ch=16 n=27 v=64
40320 On ch=16 n=27 v=90
40416 Off ch=16 n=27 v=64
40416 On ch=16 n=27 v=90
40464 Off ch=16 n=27 v=64
40464 On ch=16 n=27 v=90
40512 Off ch=16 n=27 v=64
40512 On ch=16 n=27 v=90
40560 Off ch=16 n=27 v=64
40560 On ch=16 n=27 v=90
40608 Off ch=16 n=27 v=64
40608 On ch=16 n=27 v=90
40704 Off ch=16 n=27 v=64
40704 On ch=16 n=27 v=90
40800 Off ch=16 n=27 v=64
40800 On ch=16 n=27 v=90
40848 Off ch=16 n=27 v=64
40848 On ch=16 n=27 v=90
40896 Off ch=16 n=27 v=64
40896 On ch=16 n=27 v=90
40944 Off ch=16 n=27 v=64
40944 On ch=16 n=27 v=90
40992 Off ch=16 n=27 v=64
40992 On ch=16 n=27 v=90
41184 Off ch=16 n=27 v=64
41184 On ch=16 n=27 v=90
41280 Off ch=16 n=27 v=64
41280 On ch=16 n=27 v=90
41376 Off ch=16 n=27 v=64
41376 On ch=16 n=27 v=90
41440 Off ch=16 n=27 v=64
41440 On ch=16 n=27 v=90
41504 Off ch=16 n=27 v=64
41504 On ch=16 n=27 v=90
41568 Off ch=16 n=27 v=64
41568 On ch=16 n=27 v=90
41664 Off ch=16 n=27 v=64
41664 On ch=16 n=27 v=90
41760 Off ch=16 n=27 v=64
41760 On ch=16 n=27 v=90
41952 Off ch=16 n=27 v=64
41952 On ch=16 n=27 v=90
42144 Off ch=16 n=27 v=64
42144 On ch=16 n=27 v=90
42240 Off ch=16 n=27 v=64
42240 On ch=16 n=27 v=90
42336 Off ch=16 n=27 v=64
42336 On ch=16 n=27 v=90
42432 Off ch=16 n=27 v=64
42432 On ch=16 n=27 v=90
42528 Off ch=16 n=27 v=64
42528 On ch=16 n=27 v=90
42624 Off ch=16 n=27 v=64
42624 On ch=16 n=27 v=90
42720 Off ch=16 n=27 v=64
42720 On ch=16 n=27 v=90
42768 Off ch=16 n=27 v=64
42768 On ch=16 n=27 v=90
42816 Off ch=16 n=27 v=64
42816 On ch=16 n=27 v=90
42864 Off ch=16 n=27 v=64
42864 On ch=16 n=27 v=90
42912 Off ch=16 n=27 v=64
49440 On ch=16 n=27 v=90
49536 Off ch=16 n=27 v=64
49536 On ch=16 n=27 v=90
49584 Off ch=16 n=27 v=64
49584 On ch=16 n=27 v=90
49632 Off ch=16 n=27 v=64
49632 On ch=16 n=27 v=90
49824 Off ch=16 n=27 v=64
49824 On ch=16 n=27 v=90
50016 Off ch=16 n=27 v=64
50016 On ch=16 n=27 v=90
50112 Off ch=16 n=27 v=64
50112 On ch=16 n=27 v=90
50208 Off ch=16 n=27 v=64
50208 On ch=16 n=27 v=90
50304 Off ch=16 n=27 v=64
50304 On ch=16 n=27 v=90
50400 Off ch=16 n=27 v=64
50400 On ch=16 n=27 v=90
50592 Off ch=16 n=27 v=64
50592 On ch=16 n=27 v=90
50784 Off ch=16 n=27 v=64
50784 On ch=16 n=27 v=90
50880 Off ch=16 n=27 v=64
50880 On ch=16 n=27 v=90
50976 Off ch=16 n=27 v=64
50976 On ch=16 n=27 v=90
51072 Off ch=16 n=27 v=64
51072 On ch=16 n=27 v=90
51168 Off ch=16 n=27 v=64
51168 On ch=16 n=27 v=90
51360 Off ch=16 n=27 v=64
51360 On ch=16 n=27 v=90
51552 Off ch=16 n=27 v=64
51552 On ch=16 n=27 v=90
51648 Off ch=16 n=27 v=64
51648 On ch=16 n=27 v=90
51744 Off ch=16 n=27 v=64
51744 On ch=16 n=27 v=90
51936 Off ch=16 n=27 v=64
51936 On ch=16 n=27 v=90
52032 Off ch=16 n=27 v=64
52032 On ch=16 n=27 v=90
52128 Off ch=16 n=27 v=64
52128 On ch=16 n=27 v=90
52320 Off ch=16 n=27 v=64
52320 On ch=16 n=27 v=90
52416 Off ch=16 n=27 v=64
52416 On ch=16 n=27 v=90
52512 Off ch=16 n=27 v=64
52512 On ch=16 n=27 v=90
52608 Off ch=16 n=27 v=64
52608 On ch=16 n=27 v=90
52704 Off ch=16 n=27 v=64
52704 On ch=16 n=27 v=90
52800 Off ch=16 n=27 v=64
52800 On ch=16 n=27 v=90
52896 Off ch=16 n=27 v=64
52896 On ch=16 n=27 v=90
52992 Off ch=16 n=27 v=64
52992 On ch=16 n=27 v=90
53088 Off ch=16 n=27 v=64
53088 On ch=16 n=27 v=90
53184 Off ch=16 n=27 v=64
53184 On ch=16 n=27 v=90
53280 Off ch=16 n=27 v=64
53280 On ch=16 n=27 v=90
53376 Off ch=16 n=27 v=64
53376 On ch=16 n=27 v=90
53472 Off ch=16 n=27 v=64
53472 On ch=16 n=27 v=90
53568 Off ch=16 n=27 v=64
53568 On ch=16 n=27 v=90
53664 Off ch=16 n=27 v=64
53664 On ch=16 n=27 v=90
53856 Off ch=16 n=27 v=64
53856 On ch=16 n=27 v=90
53952 Off ch=16 n=27 v=64
53952 On ch=16 n=27 v=90
54048 Off ch=16 n=27 v=64
54048 On ch=16 n=27 v=90
54144 Off ch=16 n=27 v=64
54144 On ch=16 n=27 v=90
54240 Off ch=16 n=27 v=64
54240 On ch=16 n=27 v=90
54432 Off ch=16 n=27 v=64
54432 On ch=16 n=27 v=90
54624 Off ch=16 n=27 v=64
54624 On ch=16 n=27 v=90
54720 Off ch=16 n=27 v=64
54720 On ch=16 n=27 v=90
54816 Off ch=16 n=27 v=64
54816 On ch=16 n=27 v=90
55008 Off ch=16 n=27 v=64
55008 On ch=16 n=27 v=90
55104 Off ch=16 n=27 v=64
55104 On ch=16 n=27 v=90
55200 Off ch=16 n=27 v=64
55200 On ch=16 n=27 v=90
55392 Off ch=16 n=27 v=64
55392 On ch=16 n=27 v=90
55440 Off ch=16 n=27 v=64
55440 On ch=16 n=27 v=90
55488 Off ch=16 n=27 v=64
55488 On ch=16 n=27 v=90
55584 Off ch=16 n=27 v=64
55584 On ch=16 n=27 v=90
55776 Off ch=16 n=27 v=64
55776 On ch=16 n=27 v=90
55968 Off ch=16 n=27 v=64
55968 On ch=16 n=27 v=90
56160 Off ch=16 n=27 v=64
56160 On ch=16 n=27 v=90
56256 Off ch=16 n=27 v=64
56256 On ch=16 n=27 v=90
56352 Off ch=16 n=27 v=64
56352 On ch=16 n=27 v=90
56448 Off ch=16 n=27 v=64
56448 On ch=16 n=27 v=90
56544 Off ch=16 n=27 v=64
56544 On ch=16 n=27 v=90
56736 Off ch=16 n=27 v=64
56736 On ch=16 n=27 v=90
56928 Off ch=16 n=27 v=64
56928 On ch=16 n=27 v=90
57024 Off ch=16 n=27 v=64
57024 On ch=16 n=27 v=90
57120 Off ch=16 n=27 v=64
57120 On ch=16 n=27 v=90
57216 Off ch=16 n=27 v=64
57216 On ch=16 n=27 v=90
57312 Off ch=16 n=27 v=64
57312 On ch=16 n=27 v=90
57504 Off ch=16 n=27 v=64
57504 On ch=16 n=27 v=90
57696 Off ch=16 n=27 v=64
57696 On ch=16 n=27 v=90
57792 Off ch=16 n=27 v=64
57792 On ch=16 n=27 v=90
57888 Off ch=16 n=27 v=64
57888 On ch=16 n=27 v=90
58080 Off ch=16 n=27 v=64
58080 On ch=16 n=27 v=90
58176 Off ch=16 n=27 v=64
58176 On ch=16 n=27 v=90
58272 Off ch=16 n=27 v=64
58272 On ch=16 n=27 v=90
58464 Off ch=16 n=27 v=64
58464 On ch=16 n=27 v=90
58560 Off ch=16 n=27 v=64
58560 On ch=16 n=27 v=90
58656 Off ch=16 n=27 v=64
58656 On ch=16 n=27 v=90
58848 Off ch=16 n=27 v=64
58848 On ch=16 n=27 v=90
59040 Off ch=16 n=27 v=64
59040 On ch=16 n=27 v=90
59232 Off ch=16 n=27 v=64
59232 On ch=16 n=27 v=90
59328 Off ch=16 n=27 v=64
59328 On ch=16 n=27 v=90
59424 Off ch=16 n=27 v=64
59424 On ch=16 n=27 v=90
59520 Off ch=16 n=27 v=64
59520 On ch=16 n=27 v=90
59616 Off ch=16 n=27 v=64
59616 On ch=16 n=27 v=90
59808 Off ch=16 n=27 v=64
59808 On ch=16 n=27 v=90
60000 Off ch=16 n=27 v=64
60000 On ch=16 n=27 v=90
60096 Off ch=16 n=27 v=64
60096 On ch=16 n=27 v=90
60192 Off ch=16 n=27 v=64
60192 On ch=16 n=27 v=90
60288 Off ch=16 n=27 v=64
60288 On ch=16 n=27 v=90
60384 Off ch=16 n=27 v=64
60384 On ch=16 n=27 v=90
60576 Off ch=16 n=27 v=64
60576 On ch=16 n=27 v=90
60768 Off ch=16 n=27 v=64
60768 On ch=16 n=27 v=90
60864 Off ch=16 n=27 v=64
60864 On ch=16 n=27 v=90
60960 Off ch=16 n=27 v=64
60960 On ch=16 n=27 v=90
61152 Off ch=16 n=27 v=64
61152 On ch=16 n=27 v=90
61248 Off ch=16 n=27 v=64
61248 On ch=16 n=27 v=90
61344 Off ch=16 n=27 v=64
61344 On ch=16 n=27 v=90
61440 Off ch=16 n=27 v=64
61440 On ch=16 n=27 v=90
61488 Off ch=16 n=27 v=64
61488 On ch=16 n=27 v=90
61536 Off ch=16 n=27 v=64
61536 On ch=16 n=27 v=90
61728 Off ch=16 n=27 v=64
61728 On ch=16 n=27 v=90
61920 Off ch=16 n=27 v=64
65280 On ch=16 n=27 v=90
65376 Off ch=16 n=27 v=64
65376 On ch=16 n=27 v=90
65472 Off ch=16 n=27 v=64
65472 On ch=16 n=27 v=90
65568 Off ch=16 n=27 v=64
65568 On ch=16 n=27 v=90
65664 Off ch=16 n=27 v=64
65664 On ch=16 n=27 v=90
65760 Off ch=16 n=27 v=64
65760 On ch=16 n=27 v=90
65952 Off ch=16 n=27 v=64
65952 On ch=16 n=27 v=90
66144 Off ch=16 n=27 v=64
66144 On ch=16 n=27 v=90
66240 Off ch=16 n=27 v=64
66240 On ch=16 n=27 v=90
66336 Off ch=16 n=27 v=64
66336 On ch=16 n=27 v=90
66400 Off ch=16 n=27 v=64
66400 On ch=16 n=27 v=90
66464 Off ch=16 n=27 v=64
66464 On ch=16 n=27 v=90
66528 Off ch=16 n=27 v=64
66528 On ch=16 n=27 v=90
66624 Off ch=16 n=27 v=64
66624 On ch=16 n=27 v=90
66720 Off ch=16 n=27 v=64
66720 On ch=16 n=27 v=90
66912 Off ch=16 n=27 v=64
66912 On ch=16 n=27 v=90
67104 Off ch=16 n=27 v=64
67104 On ch=16 n=27 v=90
67200 Off ch=16 n=27 v=64
67200 On ch=16 n=27 v=90
67296 Off ch=16 n=27 v=64
67296 On ch=16 n=27 v=90
67392 Off ch=16 n=27 v=64
67392 On ch=16 n=27 v=90
67488 Off ch=16 n=27 v=64
67488 On ch=16 n=27 v=90
67584 Off ch=16 n=27 v=64
67584 On ch=16 n=27 v=90
67680 Off ch=16 n=27 v=64
67680 On ch=16 n=27 v=90
67728 Off ch=16 n=27 v=64
67728 On ch=16 n=27 v=90
67776 Off ch=16 n=27 v=64
67776 On ch=16 n=27 v=90
67872 Off ch=16 n=27 v=64
71424 On ch=16 n=27 v=90
71520 Off ch=16 n=27 v=64
71520 On ch=16 n=27 v=90
71616 Off ch=16 n=27 v=64
71616 On ch=16 n=27 v=90
71712 Off ch=16 n=27 v=64
71712 On ch=16 n=27 v=90
71808 Off ch=16 n=27 v=64
71808 On ch=16 n=27 v=90
71904 Off ch=16 n=27 v=64
71904 On ch=16 n=27 v=90
72096 Off ch=16 n=27 v=64
72096 On ch=16 n=27 v=90
72288 Off ch=16 n=27 v=64
72288 On ch=16 n=27 v=90
72384 Off ch=16 n=27 v=64
72384 On ch=16 n=27 v=90
72480 Off ch=16 n=27 v=64
72480 On ch=16 n=27 v=90
72544 Off ch=16 n=27 v=64
72544 On ch=16 n=27 v=90
72608 Off ch=16 n=27 v=64
72608 On ch=16 n=27 v=90
72672 Off ch=16 n=27 v=64
72672 On ch=16 n=27 v=90
72768 Off ch=16 n=27 v=64
72768 On ch=16 n=27 v=90
72864 Off ch=16 n=27 v=64
72864 On ch=16 n=27 v=90
73056 Off ch=16 n=27 v=64
73056 On ch=16 n=27 v=90
73248 Off ch=16 n=27 v=64
73248 On ch=16 n=27 v=90
73344 Off ch=16 n=27 v=64
73344 On ch=16 n=27 v=90
73440 Off ch=16 n=27 v=64
73440 On ch=16 n=27 v=90
73536 Off ch=16 n=27 v=64
73536 On ch=16 n=27 v=90
73632 Off ch=16 n=27 v=64
73632 On ch=16 n=27 v=90
73728 Off ch=16 n=27 v=64
73728 On ch=16 n=27 v=90
73824 Off ch=16 n=27 v=64
73824 On ch=16 n=27 v=90
73872 Off ch=16 n=27 v=64
73872 On ch=16 n=27 v=90
73920 Off ch=16 n=27 v=64
73920 On ch=16 n=27 v=90
74016 Off ch=16 n=27 v=64
77568 On ch=16 n=27 v=90
77664 Off ch=16 n=27 v=64
77664 On ch=16 n=27 v=90
77760 Off ch=16 n=27 v=64
77760 On ch=16 n=27 v=90
77856 Off ch=16 n=27 v=64
77856 On ch=16 n=27 v=90
77952 Off ch=16 n=27 v=64
77952 On ch=16 n=27 v=90
78048 Off ch=16 n=27 v=64
78048 On ch=16 n=27 v=90
78240 Off ch=16 n=27 v=64
78240 On ch=16 n=27 v=90
78432 Off ch=16 n=27 v=64
78432 On ch=16 n=27 v=90
78528 Off ch=16 n=27 v=64
78528 On ch=16 n=27 v=90
78624 Off ch=16 n=27 v=64
78624 On ch=16 n=27 v=90
78688 Off ch=16 n=27 v=64
78688 On ch=16 n=27 v=90
78752 Off ch=16 n=27 v=64
78752 On ch=16 n=27 v=90
78816 Off ch=16 n=27 v=64
78816 On ch=16 n=27 v=90
78912 Off ch=16 n=27 v=64
78912 On ch=16 n=27 v=90
79008 Off ch=16 n=27 v=64
79008 On ch=16 n=27 v=90
79200 Off ch=16 n=27 v=64
79200 On ch=16 n=27 v=90
79392 Off ch=16 n=27 v=64
79392 On ch=16 n=27 v=90
79488 Off ch=16 n=27 v=64
79488 On ch=16 n=27 v=90
79584 Off ch=16 n=27 v=64
79584 On ch=16 n=27 v=90
79680 Off ch=16 n=27 v=64
79680 On ch=16 n=27 v=90
79776 Off ch=16 n=27 v=64
79776 On ch=16 n=27 v=90
79872 Off ch=16 n=27 v=64
79872 On ch=16 n=27 v=90
79968 Off ch=16 n=27 v=64
79968 On ch=16 n=27 v=90
80064 Off ch=16 n=27 v=64
80064 On ch=16 n=27 v=90
80160 Off ch=16 n=27 v=64
80160 On ch=16 n=27 v=90
80352 Off ch=16 n=27 v=64
80352 On ch=16 n=27 v=90
80544 Off ch=16 n=27 v=64
80544 On ch=16 n=27 v=90
80640 Off ch=16 n=27 v=64
80640 On ch=16 n=27 v=90
80736 Off ch=16 n=27 v=64
80736 On ch=16 n=27 v=90
80832 Off ch=16 n=27 v=64
80832 On ch=16 n=27 v=90
80928 Off ch=16 n=27 v=64
80928 On ch=16 n=27 v=90
81024 Off ch=16 n=27 v=64
81024 On ch=16 n=27 v=90
81120 Off ch=16 n=27 v=64
81120 On ch=16 n=27 v=90
81312 Off ch=16 n=27 v=64
81312 On ch=16 n=27 v=90
81504 Off ch=16 n=27 v=64
81504 On ch=16 n=27 v=90
81600 Off ch=16 n=27 v=64
81600 On ch=16 n=27 v=90
81696 Off ch=16 n=27 v=64
81696 On ch=16 n=27 v=90
81792 Off ch=16 n=27 v=64
81792 On ch=16 n=27 v=90
81888 Off ch=16 n=27 v=64
81888 On ch=16 n=27 v=90
81984 Off ch=16 n=27 v=64
81984 On ch=16 n=27 v=90
82176 Off ch=16 n=27 v=64
82176 On ch=16 n=27 v=90
82368 Off ch=16 n=27 v=64
82368 On ch=16 n=27 v=90
82464 Off ch=16 n=27 v=64
82464 On ch=16 n=27 v=90
82560 Off ch=16 n=27 v=64
82560 On ch=16 n=27 v=90
82656 Off ch=16 n=27 v=64
82656 On ch=16 n=27 v=90
82752 Off ch=16 n=27 v=64
82752 On ch=16 n=27 v=90
82848 Off ch=16 n=27 v=64
82848 On ch=16 n=27 v=90
83040 Off ch=16 n=27 v=64
83040 On ch=16 n=27 v=90
83136 Off ch=16 n=27 v=64
83136 On ch=16 n=27 v=90
83232 Off ch=16 n=27 v=64
83232 On ch=16 n=27 v=90
83328 Off ch=16 n=27 v=64
83328 On ch=16 n=27 v=90
83424 Off ch=16 n=27 v=64
83424 On ch=16 n=27 v=90
83520 Off ch=16 n=27 v=64
83520 On ch=16 n=27 v=90
83616 Off ch=16 n=27 v=64
83616 On ch=16 n=27 v=90
83712 Off ch=16 n=27 v=64
83712 On ch=16 n=27 v=90
83808 Off ch=16 n=27 v=64
83808 On ch=16 n=27 v=90
83904 Off ch=16 n=27 v=64
83904 On ch=16 n=27 v=90
84000 Off ch=16 n=27 v=64
84000 On ch=16 n=27 v=90
84096 Off ch=16 n=27 v=64
84096 On ch=16 n=27 v=90
84384 Off ch=16 n=27 v=64
84384 On ch=16 n=27 v=90
84576 Off ch=16 n=27 v=64
84576 On ch=16 n=27 v=90
84672 Off ch=16 n=27 v=64
84672 On ch=16 n=27 v=90
84768 Off ch=16 n=27 v=64
84768 On ch=16 n=27 v=90
84832 Off ch=16 n=27 v=64
84832 On ch=16 n=27 v=90
84896 Off ch=16 n=27 v=64
84896 On ch=16 n=27 v=90
84960 Off ch=16 n=27 v=64
84960 On ch=16 n=27 v=90
85056 Off ch=16 n=27 v=64
85056 On ch=16 n=27 v=90
85152 Off ch=16 n=27 v=64
85152 On ch=16 n=27 v=90
85344 Off ch=16 n=27 v=64
85344 On ch=16 n=27 v=90
85536 Off ch=16 n=27 v=64
85536 On ch=16 n=27 v=90
85632 Off ch=16 n=27 v=64
85632 On ch=16 n=27 v=90
85824 Off ch=16 n=27 v=64
85824 On ch=16 n=27 v=90
85920 Off ch=16 n=27 v=64
85920 On ch=16 n=27 v=90
86016 Off ch=16 n=27 v=64
86016 On ch=16 n=27 v=90
86112 Off ch=16 n=27 v=64
86112 On ch=16 n=27 v=90
86208 Off ch=16 n=27 v=64
86208 On ch=16 n=27 v=90
86496 Off ch=16 n=27 v=64
86496 On ch=16 n=27 v=90
86688 Off ch=16 n=27 v=64
86688 On ch=16 n=27 v=90
86784 Off ch=16 n=27 v=64
86784 On ch=16 n=27 v=90
86880 Off ch=16 n=27 v=64
86880 On ch=16 n=27 v=90
86976 Off ch=16 n=27 v=64
86976 On ch=16 n=27 v=90
87072 Off ch=16 n=27 v=64
87264 On ch=16 n=27 v=90
87456 Off ch=16 n=27 v=64
88032 On ch=16 n=27 v=90
88224 Off ch=16 n=27 v=64
89280 On ch=16 n=27 v=90
89376 Off ch=16 n=27 v=64
89376 On ch=16 n=27 v=90
89472 Off ch=16 n=27 v=64
89472 On ch=16 n=27 v=90
89568 Off ch=16 n=27 v=64
90336 On ch=16 n=27 v=90
90528 Off ch=16 n=27 v=64
91104 On ch=16 n=27 v=90
91200 Off ch=16 n=27 v=64
91200 On ch=16 n=27 v=90
91296 Off ch=16 n=27 v=64
92256 On ch=16 n=27 v=90
92352 Off ch=16 n=27 v=64
92352 On ch=16 n=27 v=90
92448 Off ch=16 n=27 v=64
92736 On ch=16 n=27 v=90
92832 Off ch=16 n=27 v=64
92832 On ch=16 n=27 v=90
92928 Off ch=16 n=27 v=64
92928 On ch=16 n=27 v=90
93024 Off ch=16 n=27 v=64
96384 On ch=16 n=27 v=90
96480 Off ch=16 n=27 v=64
96480 On ch=16 n=27 v=90
96576 Off ch=16 n=27 v=64
96576 On ch=16 n=27 v=90
96672 Off ch=16 n=27 v=64
96672 On ch=16 n=27 v=90
96768 Off ch=16 n=27 v=64
96768 On ch=16 n=27 v=90
96864 Off ch=16 n=27 v=64
96864 On ch=16 n=27 v=90
97056 Off ch=16 n=27 v=64
97056 On ch=16 n=27 v=90
97248 Off ch=16 n=27 v=64
97248 On ch=16 n=27 v=90
97344 Off ch=16 n=27 v=64
97344 On ch=16 n=27 v=90
97440 Off ch=16 n=27 v=64
97440 On ch=16 n=27 v=90
97504 Off ch=16 n=27 v=64
97504 On ch=16 n=27 v=90
97568 Off ch=16 n=27 v=64
97568 On ch=16 n=27 v=90
97632 Off ch=16 n=27 v=64
97632 On ch=16 n=27 v=90
97728 Off ch=16 n=27 v=64
97728 On ch=16 n=27 v=90
97824 Off ch=16 n=27 v=64
97824 On ch=16 n=27 v=90
98016 Off ch=16 n=27 v=64
98016 On ch=16 n=27 v=90
98208 Off ch=16 n=27 v=64
98208 On ch=16 n=27 v=90
98304 Off ch=16 n=27 v=64
98304 On ch=16 n=27 v=90
98400 Off ch=16 n=27 v=64
98400 On ch=16 n=27 v=90
98496 Off ch=16 n=27 v=64
98496 On ch=16 n=27 v=90
98592 Off ch=16 n=27 v=64
98592 On ch=16 n=27 v=90
98688 Off ch=16 n=27 v=64
98688 On ch=16 n=27 v=90
98784 Off ch=16 n=27 v=64
98784 On ch=16 n=27 v=90
98832 Off ch=16 n=27 v=64
98832 On ch=16 n=27 v=90
98880 Off ch=16 n=27 v=64
98880 On ch=16 n=27 v=90
98976 Off ch=16 n=27 v=64
102528 On ch=16 n=27 v=90
102624 Off ch=16 n=27 v=64
102624 On ch=16 n=27 v=90
102720 Off ch=16 n=27 v=64
102720 On ch=16 n=27 v=90
102816 Off ch=16 n=27 v=64
102816 On ch=16 n=27 v=90
102912 Off ch=16 n=27 v=64
102912 On ch=16 n=27 v=90
103008 Off ch=16 n=27 v=64
103008 On ch=16 n=27 v=90
103200 Off ch=16 n=27 v=64
103200 On ch=16 n=27 v=90
103392 Off ch=16 n=27 v=64
103392 On ch=16 n=27 v=90
103488 Off ch=16 n=27 v=64
103488 On ch=16 n=27 v=90
103584 Off ch=16 n=27 v=64
103584 On ch=16 n=27 v=90
103648 Off ch=16 n=27 v=64
103648 On ch=16 n=27 v=90
103712 Off ch=16 n=27 v=64
103712 On ch=16 n=27 v=90
103776 Off ch=16 n=27 v=64
103776 On ch=16 n=27 v=90
103872 Off ch=16 n=27 v=64
103872 On ch=16 n=27 v=90
103968 Off ch=16 n=27 v=64
103968 On ch=16 n=27 v=90
104160 Off ch=16 n=27 v=64
104160 On ch=16 n=27 v=90
104352 Off ch=16 n=27 v=64
104352 On ch=16 n=27 v=90
104448 Off ch=16 n=27 v=64
104448 On ch=16 n=27 v=90
104544 Off ch=16 n=27 v=64
104544 On ch=16 n=27 v=90
104640 Off ch=16 n=27 v=64
104640 On ch=16 n=27 v=90
104736 Off ch=16 n=27 v=64
104736 On ch=16 n=27 v=90
104832 Off ch=16 n=27 v=64
104832 On ch=16 n=27 v=90
104928 Off ch=16 n=27 v=64
104928 On ch=16 n=27 v=90
104976 Off ch=16 n=27 v=64
104976 On ch=16 n=27 v=90
105024 Off ch=16 n=27 v=64
105024 On ch=16 n=27 v=90
105120 Off ch=16 n=27 v=64
109920 On ch=16 n=27 v=90
110112 Off ch=16 n=27 v=64
110112 On ch=16 n=27 v=90
110304 Off ch=16 n=27 v=64
110304 On ch=16 n=27 v=90
110496 Off ch=16 n=27 v=64
110496 On ch=16 n=27 v=90
110688 Off ch=16 n=27 v=64
110688 On ch=16 n=27 v=90
110880 Off ch=16 n=27 v=64
110880 On ch=16 n=27 v=90
111072 Off ch=16 n=27 v=64
111072 On ch=16 n=27 v=90
111264 Off ch=16 n=27 v=64
111264 On ch=16 n=27 v=90
111456 Off ch=16 n=27 v=64
111456 On ch=16 n=27 v=90
111504 Off ch=16 n=27 v=64
111504 On ch=16 n=27 v=90
111552 Off ch=16 n=27 v=64
111552 On ch=16 n=27 v=90
111648 Off ch=16 n=27 v=64
111648 On ch=16 n=27 v=90
111840 Off ch=16 n=27 v=64
111840 On ch=16 n=27 v=90
112032 Off ch=16 n=27 v=64
112032 On ch=16 n=27 v=90
112320 Off ch=16 n=27 v=64
112320 On ch=16 n=27 v=90
112416 Off ch=16 n=27 v=64
112416 On ch=16 n=27 v=90
112512 Off ch=16 n=27 v=64
112512 On ch=16 n=27 v=90
112608 Off ch=16 n=27 v=64
112608 On ch=16 n=27 v=90
112800 Off ch=16 n=27 v=64
112800 On ch=16 n=27 v=90
112992 Off ch=16 n=27 v=64
112992 On ch=16 n=27 v=90
113088 Off ch=16 n=27 v=64
113088 On ch=16 n=27 v=90
113184 Off ch=16 n=27 v=64
113184 On ch=16 n=27 v=90
113280 Off ch=16 n=27 v=64
113280 On ch=16 n=27 v=90
113376 Off ch=16 n=27 v=64
113376 On ch=16 n=27 v=90
113568 Off ch=16 n=27 v=64
113568 On ch=16 n=27 v=90
113760 Off ch=16 n=27 v=64
113760 On ch=16 n=27 v=90
113856 Off ch=16 n=27 v=64
113856 On ch=16 n=27 v=90
113952 Off ch=16 n=27 v=64
113952 On ch=16 n=27 v=90
114144 Off ch=16 n=27 v=64
114144 On ch=16 n=27 v=90
114240 Off ch=16 n=27 v=64
114240 On ch=16 n=27 v=90
114336 Off ch=16 n=27 v=64
114336 On ch=16 n=27 v=90
114528 Off ch=16 n=27 v=64
114528 On ch=16 n=27 v=90
114624 Off ch=16 n=27 v=64
114624 On ch=16 n=27 v=90
114720 Off ch=16 n=27 v=64
114720 On ch=16 n=27 v=90
114912 Off ch=16 n=27 v=64
114912 On ch=16 n=27 v=90
115104 Off ch=16 n=27 v=64
115104 On ch=16 n=27 v=90
115296 Off ch=16 n=27 v=64
115296 On ch=16 n=27 v=90
115392 Off ch=16 n=27 v=64
115392 On ch=16 n=27 v=90
115488 Off ch=16 n=27 v=64
115488 On ch=16 n=27 v=90
115584 Off ch=16 n=27 v=64
115584 On ch=16 n=27 v=90
115680 Off ch=16 n=27 v=64
115680 On ch=16 n=27 v=90
115872 Off ch=16 n=27 v=64
115872 On ch=16 n=27 v=90
116064 Off ch=16 n=27 v=64
116064 On ch=16 n=27 v=90
116160 Off ch=16 n=27 v=64
116160 On ch=16 n=27 v=90
116256 Off ch=16 n=27 v=64
116256 On ch=16 n=27 v=90
116352 Off ch=16 n=27 v=64
116352 On ch=16 n=27 v=90
116448 Off ch=16 n=27 v=64
116448 On ch=16 n=27 v=90
116640 Off ch=16 n=27 v=64
116640 On ch=16 n=27 v=90
116832 Off ch=16 n=27 v=64
116832 On ch=16 n=27 v=90
116928 Off ch=16 n=27 v=64
116928 On ch=16 n=27 v=90
117024 Off ch=16 n=27 v=64
117024 On ch=16 n=27 v=90
117216 Off ch=16 n=27 v=64
117216 On ch=16 n=27 v=90
117312 Off ch=16 n=27 v=64
117312 On ch=16 n=27 v=90
117408 Off ch=16 n=27 v=64
117408 On ch=16 n=27 v=90
117600 Off ch=16 n=27 v=64
117600 On ch=16 n=27 v=90
117696 Off ch=16 n=27 v=64
117696 On ch=16 n=27 v=90
117792 Off ch=16 n=27 v=64
117792 On ch=16 n=27 v=90
117984 Off ch=16 n=27 v=64
117984 On ch=16 n=27 v=90
118176 Off ch=16 n=27 v=64
118176 On ch=16 n=27 v=90
118368 Off ch=16 n=27 v=64
118368 On ch=16 n=27 v=90
118464 Off ch=16 n=27 v=64
118464 On ch=16 n=27 v=90
118560 Off ch=16 n=27 v=64
118560 On ch=16 n=27 v=90
118656 Off ch=16 n=27 v=64
118656 On ch=16 n=27 v=90
118752 Off ch=16 n=27 v=64
118752 On ch=16 n=27 v=90
118944 Off ch=16 n=27 v=64
118944 On ch=16 n=27 v=90
119136 Off ch=16 n=27 v=64
119136 On ch=16 n=27 v=90
119232 Off ch=16 n=27 v=64
119232 On ch=16 n=27 v=90
119328 Off ch=16 n=27 v=64
119328 On ch=16 n=27 v=90
119424 Off ch=16 n=27 v=64
119424 On ch=16 n=27 v=90
119520 Off ch=16 n=27 v=64
119520 On ch=16 n=27 v=90
119712 Off ch=16 n=27 v=64
119712 On ch=16 n=27 v=90
119904 Off ch=16 n=27 v=64
119904 On ch=16 n=27 v=90
120000 Off ch=16 n=27 v=64
120000 On ch=16 n=27 v=90
120096 Off ch=16 n=27 v=64
120096 On ch=16 n=27 v=90
120288 Off ch=16 n=27 v=64
120288 On ch=16 n=27 v=90
120384 Off ch=16 n=27 v=64
120384 On ch=16 n=27 v=90
120480 Off ch=16 n=27 v=64
120480 On ch=16 n=27 v=90
120672 Off ch=16 n=27 v=64
120672 On ch=16 n=27 v=90
120768 Off ch=16 n=27 v=64
120768 On ch=16 n=27 v=90
120864 Off ch=16 n=27 v=64
120864 On ch=16 n=27 v=90
121056 Off ch=16 n=27 v=64
121056 On ch=16 n=27 v=90
121248 Off ch=16 n=27 v=64
121248 On ch=16 n=27 v=90
121440 Off ch=16 n=27 v=64
121440 On ch=16 n=27 v=90
121536 Off ch=16 n=27 v=64
121536 On ch=16 n=27 v=90
121632 Off ch=16 n=27 v=64
121632 On ch=16 n=27 v=90
121728 Off ch=16 n=27 v=64
121728 On ch=16 n=27 v=90
121824 Off ch=16 n=27 v=64
121824 On ch=16 n=27 v=90
122016 Off ch=16 n=27 v=64
122016 On ch=16 n=27 v=90
122208 Off ch=16 n=27 v=64
122208 On ch=16 n=27 v=90
122304 Off ch=16 n=27 v=64
122304 On ch=16 n=27 v=90
122400 Off ch=16 n=27 v=64
122400 On ch=16 n=27 v=90
122496 Off ch=16 n=27 v=64
122496 On ch=16 n=27 v=90
122592 Off ch=16 n=27 v=64
122592 On ch=16 n=27 v=90
122784 Off ch=16 n=27 v=64
122784 On ch=16 n=27 v=90
122976 Off ch=16 n=27 v=64
122976 On ch=16 n=27 v=90
123072 Off ch=16 n=27 v=64
123072 On ch=16 n=27 v=90
123168 Off ch=16 n=27 v=64
123168 On ch=16 n=27 v=90
123360 Off ch=16 n=27 v=64
123360 On ch=16 n=27 v=90
123456 Off ch=16 n=27 v=64
123456 On ch=16 n=27 v=90
123552 Off ch=16 n=27 v=64
123552 On ch=16 n=27 v=90
123744 Off ch=16 n=27 v=64
123744 On ch=16 n=27 v=90
123936 Off ch=16 n=27 v=64
123936 On ch=16 n=27 v=90
124128 Off ch=16 n=27 v=64
124128 On ch=16 n=27 v=90
124320 Off ch=16 n=27 v=64
124320 On ch=16 n=27 v=90
124512 Off ch=16 n=27 v=64
124512 On ch=16 n=27 v=90
124608 Off ch=16 n=27 v=64
124608 On ch=16 n=27 v=90
124704 Off ch=16 n=27 v=64
124704 On ch=16 n=27 v=90
124800 Off ch=16 n=27 v=64
124800 On ch=16 n=27 v=90
124896 Off ch=16 n=27 v=64
124896 On ch=16 n=27 v=90
125088 Off ch=16 n=27 v=64
125088 On ch=16 n=27 v=90
125280 Off ch=16 n=27 v=64
125280 On ch=16 n=27 v=90
125376 Off ch=16 n=27 v=64
125376 On ch=16 n=27 v=90
125472 Off ch=16 n=27 v=64
125472 On ch=16 n=27 v=90
125568 Off ch=16 n=27 v=64
125568 On ch=16 n=27 v=90
125664 Off ch=16 n=27 v=64
125664 On ch=16 n=27 v=90
125856 Off ch=16 n=27 v=64
125856 On ch=16 n=27 v=90
126048 Off ch=16 n=27 v=64
126048 On ch=16 n=27 v=90
126144 Off ch=16 n=27 v=64
126144 On ch=16 n=27 v=90
126240 Off ch=16 n=27 v=64
126240 On ch=16 n=27 v=90
126432 Off ch=16 n=27 v=64
126432 On ch=16 n=27 v=90
126528 Off ch=16 n=27 v=64
126528 On ch=16 n=27 v=90
126624 Off ch=16 n=27 v=64
126624 On ch=16 n=27 v=90
126816 Off ch=16 n=27 v=64
126816 On ch=16 n=27 v=90
126912 Off ch=16 n=27 v=64
126912 On ch=16 n=27 v=90
127008 Off ch=16 n=27 v=64
127008 On ch=16 n=27 v=90
127200 Off ch=16 n=27 v=64
127200 On ch=16 n=27 v=90
127392 Off ch=16 n=27 v=64
127392 On ch=16 n=27 v=90
127584 Off ch=16 n=27 v=64
127584 On ch=16 n=27 v=90
127680 Off ch=16 n=27 v=64
127680 On ch=16 n=27 v=90
127776 Off ch=16 n=27 v=64
127776 On ch=16 n=27 v=90
127872 Off ch=16 n=27 v=64
127872 On ch=16 n=27 v=90
127968 Off ch=16 n=27 v=64
127968 On ch=16 n=27 v=90
128160 Off ch=16 n=27 v=64
128160 On ch=16 n=27 v=90
128352 Off ch=16 n=27 v=64
128352 On ch=16 n=27 v=90
128448 Off ch=16 n=27 v=64
128448 On ch=16 n=27 v=90
128544 Off ch=16 n=27 v=64
128544 On ch=16 n=27 v=90
128640 Off ch=16 n=27 v=64
128640 On ch=16 n=27 v=90
128736 Off ch=16 n=27 v=64
128736 On ch=16 n=27 v=90
128928 Off ch=16 n=27 v=64
128928 On ch=16 n=27 v=90
129120 Off ch=16 n=27 v=64
129120 On ch=16 n=27 v=90
129216 Off ch=16 n=27 v=64
129216 On ch=16 n=27 v=90
129312 Off ch=16 n=27 v=64
129312 On ch=16 n=27 v=90
129504 Off ch=16 n=27 v=64
129504 On ch=16 n=27 v=90
129600 Off ch=16 n=27 v=64
129600 On ch=16 n=27 v=90
129696 Off ch=16 n=27 v=64
129696 On ch=16 n=27 v=90
129888 Off ch=16 n=27 v=64
129888 On ch=16 n=27 v=90
130080 Off ch=16 n=27 v=64
130080 On ch=16 n=27 v=90
130272 Off ch=16 n=27 v=64
130272 On ch=16 n=27 v=90
130464 Off ch=16 n=27 v=64
130464 On ch=16 n=27 v=90
130656 Off ch=16 n=27 v=64
130656 On ch=16 n=27 v=90
130752 Off ch=16 n=27 v=64
130752 On ch=16 n=27 v=90
130848 Off ch=16 n=27 v=64
130848 On ch=16 n=27 v=90
130944 Off ch=16 n=27 v=64
130944 On ch=16 n=27 v=90
131040 Off ch=16 n=27 v=64
131040 On ch=16 n=27 v=90
131232 Off ch=16 n=27 v=64
131232 On ch=16 n=27 v=90
131424 Off ch=16 n=27 v=64
131424 On ch=16 n=27 v=90
131520 Off ch=16 n=27 v=64
131520 On ch=16 n=27 v=90
131616 Off ch=16 n=27 v=64
131616 On ch=16 n=27 v=90
131712 Off ch=16 n=27 v=64
131712 On ch=16 n=27 v=90
131808 Off ch=16 n=27 v=64
131808 On ch=16 n=27 v=90
132000 Off ch=16 n=27 v=64
132000 On ch=16 n=27 v=90
132192 Off ch=16 n=27 v=64
132192 On ch=16 n=27 v=90
132288 Off ch=16 n=27 v=64
132288 On ch=16 n=27 v=90
132384 Off ch=16 n=27 v=64
132384 On ch=16 n=27 v=90
132576 Off ch=16 n=27 v=64
132576 On ch=16 n=27 v=90
132672 Off ch=16 n=27 v=64
132672 On ch=16 n=27 v=90
132768 Off ch=16 n=27 v=64
132768 On ch=16 n=27 v=90
132960 Off ch=16 n=27 v=64
132960 On ch=16 n=27 v=90
133056 Off ch=16 n=27 v=64
133056 On ch=16 n=27 v=90
133152 Off ch=16 n=27 v=64
133152 On ch=16 n=27 v=90
133344 Off ch=16 n=27 v=64
133344 On ch=16 n=27 v=90
133536 Off ch=16 n=27 v=64
133536 On ch=16 n=27 v=90
133728 Off ch=16 n=27 v=64
133728 On ch=16 n=27 v=90
133824 Off ch=16 n=27 v=64
133824 On ch=16 n=27 v=90
133920 Off ch=16 n=27 v=64
133920 On ch=16 n=27 v=90
134016 Off ch=16 n=27 v=64
134016 On ch=16 n=27 v=90
134112 Off ch=16 n=27 v=64
134112 On ch=16 n=27 v=90
134304 Off ch=16 n=27 v=64
134304 On ch=16 n=27 v=90
134496 Off ch=16 n=27 v=64
134496 On ch=16 n=27 v=90
134592 Off ch=16 n=27 v=64
134592 On ch=16 n=27 v=90
134688 Off ch=16 n=27 v=64
134688 On ch=16 n=27 v=90
134784 Off ch=16 n=27 v=64
134784 On ch=16 n=27 v=90
134880 Off ch=16 n=27 v=64
134880 On ch=16 n=27 v=90
135072 Off ch=16 n=27 v=64
135072 On ch=16 n=27 v=90
135264 Off ch=16 n=27 v=64
135264 On ch=16 n=27 v=90
135360 Off ch=16 n=27 v=64
135360 On ch=16 n=27 v=90
135456 Off ch=16 n=27 v=64
135456 On ch=16 n=27 v=90
135648 Off ch=16 n=27 v=64
135648 On ch=16 n=27 v=90
135744 Off ch=16 n=27 v=64
135744 On ch=16 n=27 v=90
135840 Off ch=16 n=27 v=64
135840 On ch=16 n=27 v=90
136032 Off ch=16 n=27 v=64
136032 On ch=16 n=27 v=90
136224 Off ch=16 n=27 v=64
136224 On ch=16 n=27 v=90
136416 Off ch=16 n=27 v=64
136416 On ch=16 n=27 v=90
136512 Off ch=16 n=27 v=64
136512 On ch=16 n=27 v=90
136608 Off ch=16 n=27 v=64
136608 On ch=16 n=27 v=90
136704 Off ch=16 n=27 v=64
136704 On ch=16 n=27 v=90
136800 Off ch=16 n=27 v=64
136800 On ch=16 n=27 v=90
136992 Off ch=16 n=27 v=64
136992 On ch=16 n=27 v=90
137184 Off ch=16 n=27 v=64
137184 On ch=16 n=27 v=90
137280 Off ch=16 n=27 v=64
137280 On ch=16 n=27 v=90
137376 Off ch=16 n=27 v=64
137376 On ch=16 n=27 v=90
137568 Off ch=16 n=27 v=64
137568 On ch=16 n=27 v=90
137664 Off ch=16 n=27 v=64
137664 On ch=16 n=27 v=90
137760 Off ch=16 n=27 v=64
137760 On ch=16 n=27 v=90
137952 Off ch=16 n=27 v=64
137952 On ch=16 n=27 v=90
138144 Off ch=16 n=27 v=64
138144 On ch=16 n=27 v=90
138336 Off ch=16 n=27 v=64
138336 On ch=16 n=27 v=90
138432 Off ch=16 n=27 v=64
138432 On ch=16 n=27 v=90
138528 Off ch=16 n=27 v=64
138528 On ch=16 n=27 v=90
138624 Off ch=16 n=27 v=64
138624 On ch=16 n=27 v=90
138720 Off ch=16 n=27 v=64
138720 On ch=16 n=27 v=90
138912 Off ch=16 n=27 v=64
138912 On ch=16 n=27 v=90
139104 Off ch=16 n=27 v=64
139104 On ch=16 n=27 v=90
139200 Off ch=16 n=27 v=64
139200 On ch=16 n=27 v=90
139296 Off ch=16 n=27 v=64
139296 On ch=16 n=27 v=90
139392 Off ch=16 n=27 v=64
139392 On ch=16 n=27 v=90
139488 Off ch=16 n=27 v=64
139488 On ch=16 n=27 v=90
139680 Off ch=16 n=27 v=64
139680 On ch=16 n=27 v=90
139872 Off ch=16 n=27 v=64
139872 On ch=16 n=27 v=90
139968 Off ch=16 n=27 v=64
139968 On ch=16 n=27 v=90
140064 Off ch=16 n=27 v=64
140064 On ch=16 n=27 v=90
140160 Off ch=16 n=27 v=64
140160 On ch=16 n=27 v=90
140256 Off ch=16 n=27 v=64
140256 On ch=16 n=27 v=90
140448 Off ch=16 n=27 v=64
140448 On ch=16 n=27 v=90
140640 Off ch=16 n=27 v=64
140640 On ch=16 n=27 v=90
140736 Off ch=16 n=27 v=64
140736 On ch=16 n=27 v=90
140832 Off ch=16 n=27 v=64
140832 On ch=16 n=27 v=90
140928 Off ch=16 n=27 v=64
140928 On ch=16 n=27 v=90
141024 Off ch=16 n=27 v=64
141024 On ch=16 n=27 v=90
141216 Off ch=16 n=27 v=64
141216 Meta TrkEnd
TrkEnd
MTrk
0 Meta 0x21 01
0 Meta TrkName "Drums               "
0 PrCh ch=16 p=0
3360 On ch=16 n=36 v=90
3456 Off ch=16 n=36 v=64
3456 On ch=16 n=36 v=90
3552 Off ch=16 n=36 v=64
3552 On ch=16 n=36 v=90
3648 Off ch=16 n=36 v=64
3648 On ch=16 n=36 v=90
3744 Off ch=16 n=36 v=64
3744 On ch=16 n=36 v=90
3840 Off ch=16 n=36 v=64
3840 On ch=16 n=36 v=90
4032 Off ch=16 n=36 v=64
4032 On ch=16 n=36 v=90
4224 Off ch=16 n=36 v=64
4224 On ch=16 n=36 v=90
4320 Off ch=16 n=36 v=64
4320 On ch=16 n=36 v=90
4416 Off ch=16 n=36 v=64
4416 On ch=16 n=36 v=90
4480 Off ch=16 n=36 v=64
4480 On ch=16 n=36 v=90
4544 Off ch=16 n=36 v=64
4544 On ch=16 n=36 v=90
4608 Off ch=16 n=36 v=64
4608 On ch=16 n=36 v=90
4800 Off ch=16 n=36 v=64
4800 On ch=16 n=36 v=90
4992 Off ch=16 n=36 v=64
4992 On ch=16 n=36 v=90
5184 Off ch=16 n=36 v=64
5184 On ch=16 n=36 v=90
5280 Off ch=16 n=36 v=64
5280 On ch=16 n=36 v=90
5376 Off ch=16 n=36 v=64
5376 On ch=16 n=36 v=90
5472 Off ch=16 n=36 v=64
5472 On ch=16 n=36 v=90
5568 Off ch=16 n=36 v=64
5568 On ch=16 n=36 v=90
5664 Off ch=16 n=36 v=64
5664 On ch=16 n=36 v=90
5760 Off ch=16 n=36 v=64
5760 On ch=16 n=36 v=90
5808 Off ch=16 n=36 v=64
5808 On ch=16 n=36 v=90
5856 Off ch=16 n=36 v=64
5856 On ch=16 n=36 v=90
5952 Off ch=16 n=36 v=64
9504 On ch=16 n=36 v=90
9600 Off ch=16 n=36 v=64
9600 On ch=16 n=36 v=90
9648 Off ch=16 n=36 v=64
9648 On ch=16 n=36 v=90
9696 Off ch=16 n=36 v=64
9696 On ch=16 n=36 v=90
9792 Off ch=16 n=36 v=64
9792 On ch=16 n=36 v=90
9888 Off ch=16 n=36 v=64
9888 On ch=16 n=36 v=90
9984 Off ch=16 n=36 v=64
9984 On ch=16 n=36 v=90
10176 Off ch=16 n=36 v=64
10176 On ch=16 n=36 v=90
10272 Off ch=16 n=36 v=64
10272 On ch=16 n=36 v=90
10368 Off ch=16 n=36 v=64
10368 On ch=16 n=36 v=90
10464 Off ch=16 n=36 v=64
10464 On ch=16 n=36 v=90
10560 Off ch=16 n=36 v=64
10560 On ch=16 n=36 v=90
10624 Off ch=16 n=36 v=64
10624 On ch=16 n=36 v=90
10688 Off ch=16 n=36 v=64
10688 On ch=16 n=36 v=90
10752 Off ch=16 n=36 v=64
10752 On ch=16 n=36 v=90
10944 Off ch=16 n=36 v=64
10944 On ch=16 n=36 v=90
11136 Off ch=16 n=36 v=64
11136 On ch=16 n=36 v=90
11328 Off ch=16 n=36 v=64
11328 On ch=16 n=36 v=90
11424 Off ch=16 n=36 v=64
11424 On ch=16 n=36 v=90
11520 Off ch=16 n=36 v=64
11520 On ch=16 n=36 v=90
11616 Off ch=16 n=36 v=64
11616 On ch=16 n=36 v=90
11712 Off ch=16 n=36 v=64
11712 On ch=16 n=36 v=90
11808 Off ch=16 n=36 v=64
11808 On ch=16 n=36 v=90
11904 Off ch=16 n=36 v=64
11904 On ch=16 n=36 v=90
11952 Off ch=16 n=36 v=64
11952 On ch=16 n=36 v=90
12000 Off ch=16 n=36 v=64
12000 On ch=16 n=36 v=90
12096 Off ch=16 n=36 v=64
15648 On ch=16 n=36 v=90
15744 Off ch=16 n=36 v=64
15744 On ch=16 n=36 v=90
15792 Off ch=16 n=36 v=64
15792 On ch=16 n=36 v=90
15840 Off ch=16 n=36 v=64
15840 On ch=16 n=36 v=90
15936 Off ch=16 n=36 v=64
15936 On ch=16 n=36 v=90
16032 Off ch=16 n=36 v=64
16032 On ch=16 n=36 v=90
16128 Off ch=16 n=36 v=64
16128 On ch=16 n=36 v=90
16320 Off ch=16 n=36 v=64
16320 On ch=16 n=36 v=90
16512 Off ch=16 n=36 v=64
16512 On ch=16 n=36 v=90
16608 Off ch=16 n=36 v=64
16608 On ch=16 n=36 v=90
16704 Off ch=16 n=36 v=64
16704 On ch=16 n=36 v=90
16768 Off ch=16 n=36 v=64
16768 On ch=16 n=36 v=90
16832 Off ch=16 n=36 v=64
16832 On ch=16 n=36 v=90
16896 Off ch=16 n=36 v=64
16896 On ch=16 n=36 v=90
16992 Off ch=16 n=36 v=64
16992 On ch=16 n=36 v=90
17088 Off ch=16 n=36 v=64
17088 On ch=16 n=36 v=90
17280 Off ch=16 n=36 v=64
17280 On ch=16 n=36 v=90
17472 Off ch=16 n=36 v=64
17472 On ch=16 n=36 v=90
17568 Off ch=16 n=36 v=64
17568 On ch=16 n=36 v=90
17664 Off ch=16 n=36 v=64
17664 On ch=16 n=36 v=90
17760 Off ch=16 n=36 v=64
17760 On ch=16 n=36 v=90
17856 Off ch=16 n=36 v=64
17856 On ch=16 n=36 v=90
17952 Off ch=16 n=36 v=64
17952 On ch=16 n=36 v=90
18048 Off ch=16 n=36 v=64
18048 On ch=16 n=36 v=90
18144 Off ch=16 n=36 v=64
18144 On ch=16 n=36 v=90
18240 Off ch=16 n=36 v=64
18240 On ch=16 n=36 v=90
18288 Off ch=16 n=36 v=64
18288 On ch=16 n=36 v=90
18336 Off ch=16 n=36 v=64
18336 On ch=16 n=36 v=90
18432 Off ch=16 n=36 v=64
18432 On ch=16 n=36 v=90
18624 Off ch=16 n=36 v=64
18624 On ch=16 n=36 v=90
18720 Off ch=16 n=36 v=64
18720 On ch=16 n=36 v=90
18816 Off ch=16 n=36 v=64
18816 On ch=16 n=36 v=90
18912 Off ch=16 n=36 v=64
18912 On ch=16 n=36 v=90
19008 Off ch=16 n=36 v=64
19008 On ch=16 n=36 v=90
19104 Off ch=16 n=36 v=64
19104 On ch=16 n=36 v=90
19200 Off ch=16 n=36 v=64
19200 On ch=16 n=36 v=90
19392 Off ch=16 n=36 v=64
19392 On ch=16 n=36 v=90
19584 Off ch=16 n=36 v=64
19584 On ch=16 n=36 v=90
19680 Off ch=16 n=36 v=64
19680 On ch=16 n=36 v=90
19776 Off ch=16 n=36 v=64
19776 On ch=16 n=36 v=90
19872 Off ch=16 n=36 v=64
19872 On ch=16 n=36 v=90
19968 Off ch=16 n=36 v=64
19968 On ch=16 n=36 v=90
20064 Off ch=16 n=36 v=64
20064 On ch=16 n=36 v=90
20256 Off ch=16 n=36 v=64
20256 On ch=16 n=36 v=90
20448 Off ch=16 n=36 v=64
20448 On ch=16 n=36 v=90
20544 Off ch=16 n=36 v=64
20544 On ch=16 n=36 v=90
20640 Off ch=16 n=36 v=64
20640 On ch=16 n=36 v=90
20736 Off ch=16 n=36 v=64
20736 On ch=16 n=36 v=90
20832 Off ch=16 n=36 v=64
20832 On ch=16 n=36 v=90
20928 Off ch=16 n=36 v=64
20928 On ch=16 n=36 v=90
21120 Off ch=16 n=36 v=64
21120 On ch=16 n=36 v=90
21216 Off ch=16 n=36 v=64
21216 On ch=16 n=36 v=90
21312 Off ch=16 n=36 v=64
21312 On ch=16 n=36 v=90
21408 Off ch=16 n=36 v=64
21408 On ch=16 n=36 v=90
21504 Off ch=16 n=36 v=64
21504 On ch=16 n=36 v=90
21600 Off ch=16 n=36 v=64
21600 On ch=16 n=36 v=90
21696 Off ch=16 n=36 v=64
21696 On ch=16 n=36 v=90
21792 Off ch=16 n=36 v=64
21792 On ch=16 n=36 v=90
21888 Off ch=16 n=36 v=64
21888 On ch=16 n=36 v=90
21984 Off ch=16 n=36 v=64
21984 On ch=16 n=36 v=90
22080 Off ch=16 n=36 v=64
22080 On ch=16 n=36 v=90
22176 Off ch=16 n=36 v=64
22176 On ch=16 n=36 v=90
22320 Off ch=16 n=36 v=64
22320 On ch=16 n=36 v=90
22368 Off ch=16 n=36 v=64
22368 On ch=16 n=36 v=90
22464 Off ch=16 n=36 v=64
22464 On ch=16 n=36 v=90
22656 Off ch=16 n=36 v=64
22656 On ch=16 n=36 v=90
22752 Off ch=16 n=36 v=64
22752 On ch=16 n=36 v=90
22848 Off ch=16 n=36 v=64
22848 On ch=16 n=36 v=90
22912 Off ch=16 n=36 v=64
22912 On ch=16 n=36 v=90
22976 Off ch=16 n=36 v=64
22976 On ch=16 n=36 v=90
23040 Off ch=16 n=36 v=64
23040 On ch=16 n=36 v=90
23136 Off ch=16 n=36 v=64
23136 On ch=16 n=36 v=90
23232 Off ch=16 n=36 v=64
23232 On ch=16 n=36 v=90
23424 Off ch=16 n=36 v=64
23424 On ch=16 n=36 v=90
23616 Off ch=16 n=36 v=64
23616 On ch=16 n=36 v=90
23712 Off ch=16 n=36 v=64
23712 On ch=16 n=36 v=90
23904 Off ch=16 n=36 v=64
23904 On ch=16 n=36 v=90
24000 Off ch=16 n=36 v=64
24000 On ch=16 n=36 v=90
24096 Off ch=16 n=36 v=64
24096 On ch=16 n=36 v=90
24192 Off ch=16 n=36 v=64
24192 On ch=16 n=36 v=90
24288 Off ch=16 n=36 v=64
24288 On ch=16 n=36 v=90
24384 Off ch=16 n=36 v=64
24384 On ch=16 n=36 v=90
24432 Off ch=16 n=36 v=64
24432 On ch=16 n=36 v=90
24480 Off ch=16 n=36 v=64
24480 On ch=16 n=36 v=90
24576 Off ch=16 n=36 v=64
24576 On ch=16 n=36 v=90
24768 Off ch=16 n=36 v=64
24768 On ch=16 n=36 v=90
24864 Off ch=16 n=36 v=64
24864 On ch=16 n=36 v=90
24960 Off ch=16 n=36 v=64
24960 On ch=16 n=36 v=90
25056 Off ch=16 n=36 v=64
25056 On ch=16 n=36 v=90
25152 Off ch=16 n=36 v=64
30336 On ch=16 n=36 v=90
30432 Off ch=16 n=36 v=64
30432 On ch=16 n=36 v=90
30528 Off ch=16 n=36 v=64
30912 On ch=16 n=36 v=90
31008 Off ch=16 n=36 v=64
31008 On ch=16 n=36 v=90
31104 Off ch=16 n=36 v=64
34176 On ch=16 n=36 v=90
34272 Off ch=16 n=36 v=64
34272 On ch=16 n=36 v=90
34320 Off ch=16 n=36 v=64
34320 On ch=16 n=36 v=90
34368 Off ch=16 n=36 v=64
34368 On ch=16 n=36 v=90
34464 Off ch=16 n=36 v=64
34464 On ch=16 n=36 v=90
34560 Off ch=16 n=36 v=64
34560 On ch=16 n=36 v=90
34656 Off ch=16 n=36 v=64
34656 On ch=16 n=36 v=90
34704 Off ch=16 n=36 v=64
34704 On ch=16 n=36 v=90
34752 Off ch=16 n=36 v=64
34752 On ch=16 n=36 v=90
34848 Off ch=16 n=36 v=64
34848 On ch=16 n=36 v=90
35040 Off ch=16 n=36 v=64
35040 On ch=16 n=36 v=90
35136 Off ch=16 n=36 v=64
35136 On ch=16 n=36 v=90
35232 Off ch=16 n=36 v=64
35232 On ch=16 n=36 v=90
35296 Off ch=16 n=36 v=64
35296 On ch=16 n=36 v=90
35360 Off ch=16 n=36 v=64
35360 On ch=16 n=36 v=90
35424 Off ch=16 n=36 v=64
35424 On ch=16 n=36 v=90
35616 Off ch=16 n=36 v=64
35616 On ch=16 n=36 v=90
35808 Off ch=16 n=36 v=64
35808 On ch=16 n=36 v=90
36000 Off ch=16 n=36 v=64
36000 On ch=16 n=36 v=90
36096 Off ch=16 n=36 v=64
36096 On ch=16 n=36 v=90
36192 Off ch=16 n=36 v=64
36192 On ch=16 n=36 v=90
36288 Off ch=16 n=36 v=64
36288 On ch=16 n=36 v=90
36384 Off ch=16 n=36 v=64
36384 On ch=16 n=36 v=90
36480 Off ch=16 n=36 v=64
36480 On ch=16 n=36 v=90
36576 Off ch=16 n=36 v=64
36576 On ch=16 n=36 v=90
36624 Off ch=16 n=36 v=64
36624 On ch=16 n=36 v=90
36672 Off ch=16 n=36 v=64
36672 On ch=16 n=36 v=90
36768 Off ch=16 n=36 v=64
40320 On ch=16 n=36 v=90
40416 Off ch=16 n=36 v=64
40416 On ch=16 n=36 v=90
40512 Off ch=16 n=36 v=64
40512 On ch=16 n=36 v=90
40608 Off ch=16 n=36 v=64
40608 On ch=16 n=36 v=90
40704 Off ch=16 n=36 v=64
40704 On ch=16 n=36 v=90
40800 Off ch=16 n=36 v=64
40800 On ch=16 n=36 v=90
40848 Off ch=16 n=36 v=64
40848 On ch=16 n=36 v=90
40896 Off ch=16 n=36 v=64
40896 On ch=16 n=36 v=90
40944 Off ch=16 n=36 v=64
40944 On ch=16 n=36 v=90
40992 Off ch=16 n=36 v=64
40992 On ch=16 n=36 v=90
41184 Off ch=16 n=36 v=64
41184 On ch=16 n=36 v=90
41280 Off ch=16 n=36 v=64
41280 On ch=16 n=36 v=90
41376 Off ch=16 n=36 v=64
41376 On ch=16 n=36 v=90
41440 Off ch=16 n=36 v=64
41440 On ch=16 n=36 v=90
41504 Off ch=16 n=36 v=64
41504 On ch=16 n=36 v=90
41568 Off ch=16 n=36 v=64
41568 On ch=16 n=36 v=90
41760 Off ch=16 n=36 v=64
41760 On ch=16 n=36 v=90
41952 Off ch=16 n=36 v=64
41952 On ch=16 n=36 v=90
42144 Off ch=16 n=36 v=64
42144 On ch=16 n=36 v=90
42240 Off ch=16 n=36 v=64
42240 On ch=16 n=36 v=90
42336 Off ch=16 n=36 v=64
42336 On ch=16 n=36 v=90
42432 Off ch=16 n=36 v=64
42432 On ch=16 n=36 v=90
42528 Off ch=16 n=36 v=64
42528 On ch=16 n=36 v=90
42624 Off ch=16 n=36 v=64
42624 On ch=16 n=36 v=90
42720 Off ch=16 n=36 v=64
42720 On ch=16 n=36 v=90
42768 Off ch=16 n=36 v=64
42768 On ch=16 n=36 v=90
42816 Off ch=16 n=36 v=64
42816 On ch=16 n=36 v=90
42864 Off ch=16 n=36 v=64
42864 On ch=16 n=36 v=90
42912 Off ch=16 n=36 v=64
49440 On ch=16 n=36 v=90
49536 Off ch=16 n=36 v=64
49536 On ch=16 n=36 v=90
49584 Off ch=16 n=36 v=64
49584 On ch=16 n=36 v=90
49632 Off ch=16 n=36 v=64
49632 On ch=16 n=36 v=90
49824 Off ch=16 n=36 v=64
49824 On ch=16 n=36 v=90
50016 Off ch=16 n=36 v=64
50016 On ch=16 n=36 v=90
50112 Off ch=16 n=36 v=64
50112 On ch=16 n=36 v=90
50208 Off ch=16 n=36 v=64
50208 On ch=16 n=36 v=90
50304 Off ch=16 n=36 v=64
50304 On ch=16 n=36 v=90
50400 Off ch=16 n=36 v=64
50400 On ch=16 n=36 v=90
50592 Off ch=16 n=36 v=64
50592 On ch=16 n=36 v=90
50784 Off ch=16 n=36 v=64
50784 On ch=16 n=36 v=90
50880 Off ch=16 n=36 v=64
50880 On ch=16 n=36 v=90
50976 Off ch=16 n=36 v=64
50976 On ch=16 n=36 v=90
51072 Off ch=16 n=36 v=64
51072 On ch=16 n=36 v=90
51168 Off ch=16 n=36 v=64
51168 On ch=16 n=36 v=90
51360 Off ch=16 n=36 v=64
51360 On ch=16 n=36 v=90
51552 Off ch=16 n=36 v=64
51552 On ch=16 n=36 v=90
51648 Off ch=16 n=36 v=64
51648 On ch=16 n=36 v=90
51744 Off ch=16 n=36 v=64
51744 On ch=16 n=36 v=90
51936 Off ch=16 n=36 v=64
51936 On ch=16 n=36 v=90
52032 Off ch=16 n=36 v=64
52032 On ch=16 n=36 v=90
52128 Off ch=16 n=36 v=64
52128 On ch=16 n=36 v=90
52320 Off ch=16 n=36 v=64
52320 On ch=16 n=36 v=90
52416 Off ch=16 n=36 v=64
52416 On ch=16 n=36 v=90
52512 Off ch=16 n=36 v=64
52512 On ch=16 n=36 v=90
52608 Off ch=16 n=36 v=64
52608 On ch=16 n=36 v=90
52704 Off ch=16 n=36 v=64
52704 On ch=16 n=36 v=90
52800 Off ch=16 n=36 v=64
52800 On ch=16 n=36 v=90
52896 Off ch=16 n=36 v=64
52896 On ch=16 n=36 v=90
52992 Off ch=16 n=36 v=64
52992 On ch=16 n=36 v=90
53088 Off ch=16 n=36 v=64
53088 On ch=16 n=36 v=90
53184 Off ch=16 n=36 v=64
53184 On ch=16 n=36 v=90
53280 Off ch=16 n=36 v=64
53280 On ch=16 n=36 v=90
53376 Off ch=16 n=36 v=64
53376 On ch=16 n=36 v=90
53472 Off ch=16 n=36 v=64
53472 On ch=16 n=36 v=90
53568 Off ch=16 n=36 v=64
53568 On ch=16 n=36 v=90
53664 Off ch=16 n=36 v=64
53664 On ch=16 n=36 v=90
53856 Off ch=16 n=36 v=64
53856 On ch=16 n=36 v=90
53952 Off ch=16 n=36 v=64
53952 On ch=16 n=36 v=90
54048 Off ch=16 n=36 v=64
54048 On ch=16 n=36 v=90
54144 Off ch=16 n=36 v=64
54144 On ch=16 n=36 v=90
54240 Off ch=16 n=36 v=64
54240 On ch=16 n=36 v=90
54432 Off ch=16 n=36 v=64
54432 On ch=16 n=36 v=90
54624 Off ch=16 n=36 v=64
54624 On ch=16 n=36 v=90
54720 Off ch=16 n=36 v=64
54720 On ch=16 n=36 v=90
54816 Off ch=16 n=36 v=64
54816 On ch=16 n=36 v=90
55008 Off ch=16 n=36 v=64
55008 On ch=16 n=36 v=90
55104 Off ch=16 n=36 v=64
55104 On ch=16 n=36 v=90
55200 Off ch=16 n=36 v=64
55200 On ch=16 n=36 v=90
55392 Off ch=16 n=36 v=64
55392 On ch=16 n=36 v=90
55440 Off ch=16 n=36 v=64
55440 On ch=16 n=36 v=90
55488 Off ch=16 n=36 v=64
55488 On ch=16 n=36 v=90
55584 Off ch=16 n=36 v=64
55584 On ch=16 n=36 v=90
55776 Off ch=16 n=36 v=64
55776 On ch=16 n=36 v=90
55968 Off ch=16 n=36 v=64
55968 On ch=16 n=36 v=90
56160 Off ch=16 n=36 v=64
56160 On ch=16 n=36 v=90
56256 Off ch=16 n=36 v=64
56256 On ch=16 n=36 v=90
56352 Off ch=16 n=36 v=64
56352 On ch=16 n=36 v=90
56448 Off ch=16 n=36 v=64
56448 On ch=16 n=36 v=90
56544 Off ch=16 n=36 v=64
56544 On ch=16 n=36 v=90
56736 Off ch=16 n=36 v=64
56736 On ch=16 n=36 v=90
56928 Off ch=16 n=36 v=64
56928 On ch=16 n=36 v=90
57024 Off ch=16 n=36 v=64
57024 On ch=16 n=36 v=90
57120 Off ch=16 n=36 v=64
57120 On ch=16 n=36 v=90
57216 Off ch=16 n=36 v=64
57216 On ch=16 n=36 v=90
57312 Off ch=16 n=36 v=64
57312 On ch=16 n=36 v=90
57504 Off ch=16 n=36 v=64
57504 On ch=16 n=36 v=90
57696 Off ch=16 n=36 v=64
57696 On ch=16 n=36 v=90
57792 Off ch=16 n=36 v=64
57792 On ch=16 n=36 v=90
57888 Off ch=16 n=36 v=64
57888 On ch=16 n=36 v=90
58080 Off ch=16 n=36 v=64
58080 On ch=16 n=36 v=90
58176 Off ch=16 n=36 v=64
58176 On ch=16 n=36 v=90
58272 Off ch=16 n=36 v=64
58272 On ch=16 n=36 v=90
58464 Off ch=16 n=36 v=64
58464 On ch=16 n=36 v=90
58560 Off ch=16 n=36 v=64
58560 On ch=16 n=36 v=90
58656 Off ch=16 n=36 v=64
58656 On ch=16 n=36 v=90
58848 Off ch=16 n=36 v=64
58848 On ch=16 n=36 v=90
59040 Off ch=16 n=36 v=64
59040 On ch=16 n=36 v=90
59232 Off ch=16 n=36 v=64
59232 On ch=16 n=36 v=90
59328 Off ch=16 n=36 v=64
59328 On ch=16 n=36 v=90
59424 Off ch=16 n=36 v=64
59424 On ch=16 n=36 v=90
59520 Off ch=16 n=36 v=64
59520 On ch=16 n=36 v=90
59616 Off ch=16 n=36 v=64
59616 On ch=16 n=36 v=90
59808 Off ch=16 n=36 v=64
59808 On ch=16 n=36 v=90
60000 Off ch=16 n=36 v=64
60000 On ch=16 n=36 v=90
60096 Off ch=16 n=36 v=64
60096 On ch=16 n=36 v=90
60192 Off ch=16 n=36 v=64
60192 On ch=16 n=36 v=90
60288 Off ch=16 n=36 v=64
60288 On ch=16 n=36 v=90
60384 Off ch=16 n=36 v=64
60384 On ch=16 n=36 v=90
60576 Off ch=16 n=36 v=64
60576 On ch=16 n=36 v=90
60768 Off ch=16 n=36 v=64
60768 On ch=16 n=36 v=90
60864 Off ch=16 n=36 v=64
60864 On ch=16 n=36 v=90
60960 Off ch=16 n=36 v=64
60960 On ch=16 n=36 v=90
61152 Off ch=16 n=36 v=64
61152 On ch=16 n=36 v=90
61248 Off ch=16 n=36 v=64
61248 On ch=16 n=36 v=90
61344 Off ch=16 n=36 v=64
61344 On ch=16 n=36 v=90
61440 Off ch=16 n=36 v=64
61440 On ch=16 n=36 v=90
61488 Off ch=16 n=36 v=64
61488 On ch=16 n=36 v=90
61536 Off ch=16 n=36 v=64
61536 On ch=16 n=36 v=90
61728 Off ch=16 n=36 v=64
61728 On ch=16 n=36 v=90
61920 Off ch=16 n=36 v=64
65280 On ch=16 n=36 v=90
65376 Off ch=16 n=36 v=64
65376 On ch=16 n=36 v=90
65472 Off ch=16 n=36 v=64
65472 On ch=16 n=36 v=90
65568 Off ch=16 n=36 v=64
65568 On ch=16 n=36 v=90
65664 Off ch=16 n=36 v=64
65664 On ch=16 n=36 v=90
65760 Off ch=16 n=36 v=64
65760 On ch=16 n=36 v=90
65952 Off ch=16 n=36 v=64
65952 On ch=16 n=36 v=90
66144 Off ch=16 n=36 v=64
66144 On ch=16 n=36 v=90
66240 Off ch=16 n=36 v=64
66240 On ch=16 n=36 v=90
66336 Off ch=16 n=36 v=64
66336 On ch=16 n=36 v=90
66400 Off ch=16 n=36 v=64
66400 On ch=16 n=36 v=90
66464 Off ch=16 n=36 v=64
66464 On ch=16 n=36 v=90
66528 Off ch=16 n=36 v=64
66528 On ch=16 n=36 v=90
66720 Off ch=16 n=36 v=64
66720 On ch=16 n=36 v=90
66912 Off ch=16 n=36 v=64
66912 On ch=16 n=36 v=90
67104 Off ch=16 n=36 v=64
67104 On ch=16 n=36 v=90
67200 Off ch=16 n=36 v=64
67200 On ch=16 n=36 v=90
67296 Off ch=16 n=36 v=64
67296 On ch=16 n=36 v=90
67392 Off ch=16 n=36 v=64
67392 On ch=16 n=36 v=90
67488 Off ch=16 n=36 v=64
67488 On ch=16 n=36 v=90
67584 Off ch=16 n=36 v=64
67584 On ch=16 n=36 v=90
67680 Off ch=16 n=36 v=64
67680 On ch=16 n=36 v=90
67728 Off ch=16 n=36 v=64
67728 On ch=16 n=36 v=90
67776 Off ch=16 n=36 v=64
67776 On ch=16 n=36 v=90
67872 Off ch=16 n=36 v=64
71424 On ch=16 n=36 v=90
71520 Off ch=16 n=36 v=64
71520 On ch=16 n=36 v=90
71616 Off ch=16 n=36 v=64
71616 On ch=16 n=36 v=90
71712 Off ch=16 n=36 v=64
71712 On ch=16 n=36 v=90
71808 Off ch=16 n=36 v=64
71808 On ch=16 n=36 v=90
71904 Off ch=16 n=36 v=64
71904 On ch=16 n=36 v=90
72096 Off ch=16 n=36 v=64
72096 On ch=16 n=36 v=90
72288 Off ch=16 n=36 v=64
72288 On ch=16 n=36 v=90
72384 Off ch=16 n=36 v=64
72384 On ch=16 n=36 v=90
72480 Off ch=16 n=36 v=64
72480 On ch=16 n=36 v=90
72544 Off ch=16 n=36 v=64
72544 On ch=16 n=36 v=90
72608 Off ch=16 n=36 v=64
72608 On ch=16 n=36 v=90
72672 Off ch=16 n=36 v=64
72672 On ch=16 n=36 v=90
72864 Off ch=16 n=36 v=64
72864 On ch=16 n=36 v=90
73056 Off ch=16 n=36 v=64
73056 On ch=16 n=36 v=90
73248 Off ch=16 n=36 v=64
73248 On ch=16 n=36 v=90
73344 Off ch=16 n=36 v=64
73344 On ch=16 n=36 v=90
73440 Off ch=16 n=36 v=64
73440 On ch=16 n=36 v=90
73536 Off ch=16 n=36 v=64
73536 On ch=16 n=36 v=90
73632 Off ch=16 n=36 v=64
73632 On ch=16 n=36 v=90
73728 Off ch=16 n=36 v=64
73728 On ch=16 n=36 v=90
73824 Off ch=16 n=36 v=64
73824 On ch=16 n=36 v=90
73872 Off ch=16 n=36 v=64
73872 On ch=16 n=36 v=90
73920 Off ch=16 n=36 v=64
73920 On ch=16 n=36 v=90
74016 Off ch=16 n=36 v=64
77568 On ch=16 n=36 v=90
77664 Off ch=16 n=36 v=64
77664 On ch=16 n=36 v=90
77760 Off ch=16 n=36 v=64
77760 On ch=16 n=36 v=90
77856 Off ch=16 n=36 v=64
77856 On ch=16 n=36 v=90
77952 Off ch=16 n=36 v=64
77952 On ch=16 n=36 v=90
78048 Off ch=16 n=36 v=64
78048 On ch=16 n=36 v=90
78240 Off ch=16 n=36 v=64
78240 On ch=16 n=36 v=90
78432 Off ch=16 n=36 v=64
78432 On ch=16 n=36 v=90
78528 Off ch=16 n=36 v=64
78528 On ch=16 n=36 v=90
78624 Off ch=16 n=36 v=64
78624 On ch=16 n=36 v=90
78688 Off ch=16 n=36 v=64
78688 On ch=16 n=36 v=90
78752 Off ch=16 n=36 v=64
78752 On ch=16 n=36 v=90
78816 Off ch=16 n=36 v=64
78816 On ch=16 n=36 v=90
78912 Off ch=16 n=36 v=64
78912 On ch=16 n=36 v=90
79008 Off ch=16 n=36 v=64
79008 On ch=16 n=36 v=90
79200 Off ch=16 n=36 v=64
79200 On ch=16 n=36 v=90
79392 Off ch=16 n=36 v=64
79392 On ch=16 n=36 v=90
79488 Off ch=16 n=36 v=64
79488 On ch=16 n=36 v=90
79584 Off ch=16 n=36 v=64
79584 On ch=16 n=36 v=90
79680 Off ch=16 n=36 v=64
79680 On ch=16 n=36 v=90
79776 Off ch=16 n=36 v=64
79776 On ch=16 n=36 v=90
79872 Off ch=16 n=36 v=64
79872 On ch=16 n=36 v=90
79968 Off ch=16 n=36 v=64
79968 On ch=16 n=36 v=90
80064 Off ch=16 n=36 v=64
80064 On ch=16 n=36 v=90
80160 Off ch=16 n=36 v=64
80160 On ch=16 n=36 v=90
80352 Off ch=16 n=36 v=64
80352 On ch=16 n=36 v=90
80544 Off ch=16 n=36 v=64
80544 On ch=16 n=36 v=90
80640 Off ch=16 n=36 v=64
80640 On ch=16 n=36 v=90
80736 Off ch=16 n=36 v=64
80736 On ch=16 n=36 v=90
80832 Off ch=16 n=36 v=64
80832 On ch=16 n=36 v=90
80928 Off ch=16 n=36 v=64
80928 On ch=16 n=36 v=90
81024 Off ch=16 n=36 v=64
81024 On ch=16 n=36 v=90
81120 Off ch=16 n=36 v=64
81120 On ch=16 n=36 v=90
81312 Off ch=16 n=36 v=64
81312 On ch=16 n=36 v=90
81504 Off ch=16 n=36 v=64
81504 On ch=16 n=36 v=90
81600 Off ch=16 n=36 v=64
81600 On ch=16 n=36 v=90
81696 Off ch=16 n=36 v=64
81696 On ch=16 n=36 v=90
81792 Off ch=16 n=36 v=64
81792 On ch=16 n=36 v=90
81888 Off ch=16 n=36 v=64
81888 On ch=16 n=36 v=90
81984 Off ch=16 n=36 v=64
81984 On ch=16 n=36 v=90
82176 Off ch=16 n=36 v=64
82176 On ch=16 n=36 v=90
82368 Off ch=16 n=36 v=64
82368 On ch=16 n=36 v=90
82464 Off ch=16 n=36 v=64
82464 On ch=16 n=36 v=90
82560 Off ch=16 n=36 v=64
82560 On ch=16 n=36 v=90
82656 Off ch=16 n=36 v=64
82656 On ch=16 n=36 v=90
82752 Off ch=16 n=36 v=64
82752 On ch=16 n=36 v=90
82848 Off ch=16 n=36 v=64
82848 On ch=16 n=36 v=90
83040 Off ch=16 n=36 v=64
83040 On ch=16 n=36 v=90
83136 Off ch=16 n=36 v=64
83136 On ch=16 n=36 v=90
83232 Off ch=16 n=36 v=64
83232 On ch=16 n=36 v=90
83328 Off ch=16 n=36 v=64
83328 On ch=16 n=36 v=90
83424 Off ch=16 n=36 v=64
83424 On ch=16 n=36 v=90
83520 Off ch=16 n=36 v=64
83520 On ch=16 n=36 v=90
83616 Off ch=16 n=36 v=64
83616 On ch=16 n=36 v=90
83712 Off ch=16 n=36 v=64
83712 On ch=16 n=36 v=90
83808 Off ch=16 n=36 v=64
83808 On ch=16 n=36 v=90
83904 Off ch=16 n=36 v=64
83904 On ch=16 n=36 v=90
84000 Off ch=16 n=36 v=64
84000 On ch=16 n=36 v=90
84096 Off ch=16 n=36 v=64
84096 On ch=16 n=36 v=90
84384 Off ch=16 n=36 v=64
84384 On ch=16 n=36 v=90
84576 Off ch=16 n=36 v=64
84576 On ch=16 n=36 v=90
84672 Off ch=16 n=36 v=64
84672 On ch=16 n=36 v=90
84768 Off ch=16 n=36 v=64
84768 On ch=16 n=36 v=90
84832 Off ch=16 n=36 v=64
84832 On ch=16 n=36 v=90
84896 Off ch=16 n=36 v=64
84896 On ch=16 n=36 v=90
84960 Off ch=16 n=36 v=64
84960 On ch=16 n=36 v=90
85056 Off ch=16 n=36 v=64
85056 On ch=16 n=36 v=90
85152 Off ch=16 n=36 v=64
85152 On ch=16 n=36 v=90
85344 Off ch=16 n=36 v=64
85344 On ch=16 n=36 v=90
85536 Off ch=16 n=36 v=64
85536 On ch=16 n=36 v=90
85632 Off ch=16 n=36 v=64
85632 On ch=16 n=36 v=90
85824 Off ch=16 n=36 v=64
85824 On ch=16 n=36 v=90
85920 Off ch=16 n=36 v=64
85920 On ch=16 n=36 v=90
86016 Off ch=16 n=36 v=64
86016 On ch=16 n=36 v=90
86112 Off ch=16 n=36 v=64
86112 On ch=16 n=36 v=90
86208 Off ch=16 n=36 v=64
86208 On ch=16 n=36 v=90
86304 Off ch=16 n=36 v=64
86304 On ch=16 n=36 v=90
86496 Off ch=16 n=36 v=64
86496 On ch=16 n=36 v=90
86688 Off ch=16 n=36 v=64
86688 On ch=16 n=36 v=90
86784 Off ch=16 n=36 v=64
86784 On ch=16 n=36 v=90
86880 Off ch=16 n=36 v=64
86880 On ch=16 n=36 v=90
86976 Off ch=16 n=36 v=64
86976 On ch=16 n=36 v=90
87072 Off ch=16 n=36 v=64
92256 On ch=16 n=36 v=90
92352 Off ch=16 n=36 v=64
92352 On ch=16 n=36 v=90
92448 Off ch=16 n=36 v=64
92736 On ch=16 n=36 v=90
92832 Off ch=16 n=36 v=64
92832 On ch=16 n=36 v=90
92928 Off ch=16 n=36 v=64
92928 On ch=16 n=36 v=90
93024 Off ch=16 n=36 v=64
96384 On ch=16 n=36 v=90
96480 Off ch=16 n=36 v=64
96480 On ch=16 n=36 v=90
96576 Off ch=16 n=36 v=64
96576 On ch=16 n=36 v=90
96672 Off ch=16 n=36 v=64
96672 On ch=16 n=36 v=90
96768 Off ch=16 n=36 v=64
96768 On ch=16 n=36 v=90
96864 Off ch=16 n=36 v=64
96864 On ch=16 n=36 v=90
97056 Off ch=16 n=36 v=64
97056 On ch=16 n=36 v=90
97248 Off ch=16 n=36 v=64
97248 On ch=16 n=36 v=90
97344 Off ch=16 n=36 v=64
97344 On ch=16 n=36 v=90
97440 Off ch=16 n=36 v=64
97440 On ch=16 n=36 v=90
97504 Off ch=16 n=36 v=64
97504 On ch=16 n=36 v=90
97568 Off ch=16 n=36 v=64
97568 On ch=16 n=36 v=90
97632 Off ch=16 n=36 v=64
97632 On ch=16 n=36 v=90
97824 Off ch=16 n=36 v=64
97824 On ch=16 n=36 v=90
98016 Off ch=16 n=36 v=64
98016 On ch=16 n=36 v=90
98208 Off ch=16 n=36 v=64
98208 On ch=16 n=36 v=90
98304 Off ch=16 n=36 v=64
98304 On ch=16 n=36 v=90
98400 Off ch=16 n=36 v=64
98400 On ch=16 n=36 v=90
98496 Off ch=16 n=36 v=64
98496 On ch=16 n=36 v=90
98592 Off ch=16 n=36 v=64
98592 On ch=16 n=36 v=90
98688 Off ch=16 n=36 v=64
98688 On ch=16 n=36 v=90
98784 Off ch=16 n=36 v=64
98784 On ch=16 n=36 v=90
98832 Off ch=16 n=36 v=64
98832 On ch=16 n=36 v=90
98880 Off ch=16 n=36 v=64
98880 On ch=16 n=36 v=90
98976 Off ch=16 n=36 v=64
102528 On ch=16 n=36 v=90
102624 Off ch=16 n=36 v=64
102624 On ch=16 n=36 v=90
102720 Off ch=16 n=36 v=64
102720 On ch=16 n=36 v=90
102816 Off ch=16 n=36 v=64
102816 On ch=16 n=36 v=90
102912 Off ch=16 n=36 v=64
102912 On ch=16 n=36 v=90
103008 Off ch=16 n=36 v=64
103008 On ch=16 n=36 v=90
103200 Off ch=16 n=36 v=64
103200 On ch=16 n=36 v=90
103392 Off ch=16 n=36 v=64
103392 On ch=16 n=36 v=90
103488 Off ch=16 n=36 v=64
103488 On ch=16 n=36 v=90
103584 Off ch=16 n=36 v=64
103584 On ch=16 n=36 v=90
103648 Off ch=16 n=36 v=64
103648 On ch=16 n=36 v=90
103712 Off ch=16 n=36 v=64
103712 On ch=16 n=36 v=90
103776 Off ch=16 n=36 v=64
103776 On ch=16 n=36 v=90
103968 Off ch=16 n=36 v=64
103968 On ch=16 n=36 v=90
104160 Off ch=16 n=36 v=64
104160 On ch=16 n=36 v=90
104352 Off ch=16 n=36 v=64
104352 On ch=16 n=36 v=90
104448 Off ch=16 n=36 v=64
104448 On ch=16 n=36 v=90
104544 Off ch=16 n=36 v=64
104544 On ch=16 n=36 v=90
104640 Off ch=16 n=36 v=64
104640 On ch=16 n=36 v=90
104736 Off ch=16 n=36 v=64
104736 On ch=16 n=36 v=90
104832 Off ch=16 n=36 v=64
104832 On ch=16 n=36 v=90
104928 Off ch=16 n=36 v=64
104928 On ch=16 n=36 v=90
104976 Off ch=16 n=36 v=64
104976 On ch=16 n=36 v=90
105024 Off ch=16 n=36 v=64
105024 On ch=16 n=36 v=90
105120 Off ch=16 n=36 v=64
105312 On ch=16 n=36 v=90
105408 Off ch=16 n=36 v=64
105408 On ch=16 n=36 v=90
105504 Off ch=16 n=36 v=64
105504 On ch=16 n=36 v=90
105600 Off ch=16 n=36 v=64
105600 On ch=16 n=36 v=90
105696 Off ch=16 n=36 v=64
105696 On ch=16 n=36 v=90
105792 Off ch=16 n=36 v=64
105792 On ch=16 n=36 v=90
105888 Off ch=16 n=36 v=64
105888 On ch=16 n=36 v=90
105984 Off ch=16 n=36 v=64
105984 On ch=16 n=36 v=90
106080 Off ch=16 n=36 v=64
106080 On ch=16 n=36 v=90
106176 Off ch=16 n=36 v=64
106176 On ch=16 n=36 v=90
106272 Off ch=16 n=36 v=64
106272 On ch=16 n=36 v=90
106368 Off ch=16 n=36 v=64
106368 On ch=16 n=36 v=90
106464 Off ch=16 n=36 v=64
106464 On ch=16 n=36 v=90
106560 Off ch=16 n=36 v=64
106560 On ch=16 n=36 v=90
106656 Off ch=16 n=36 v=64
106656 On ch=16 n=36 v=90
106752 Off ch=16 n=36 v=64
106752 On ch=16 n=36 v=90
106848 Off ch=16 n=36 v=64
106848 On ch=16 n=36 v=90
106944 Off ch=16 n=36 v=64
106944 On ch=16 n=36 v=90
107040 Off ch=16 n=36 v=64
107040 On ch=16 n=36 v=90
107136 Off ch=16 n=36 v=64
107136 On ch=16 n=36 v=90
107232 Off ch=16 n=36 v=64
107232 On ch=16 n=36 v=90
107328 Off ch=16 n=36 v=64
107328 On ch=16 n=36 v=90
107424 Off ch=16 n=36 v=64
107424 On ch=16 n=36 v=90
107520 Off ch=16 n=36 v=64
107520 On ch=16 n=36 v=90
107616 Off ch=16 n=36 v=64
107616 On ch=16 n=36 v=90
107712 Off ch=16 n=36 v=64
107712 On ch=16 n=36 v=90
107808 Off ch=16 n=36 v=64
107808 On ch=16 n=36 v=90
107904 Off ch=16 n=36 v=64
107904 On ch=16 n=36 v=90
108000 Off ch=16 n=36 v=64
108000 On ch=16 n=36 v=90
108096 Off ch=16 n=36 v=64
108096 On ch=16 n=36 v=90
108192 Off ch=16 n=36 v=64
108192 On ch=16 n=36 v=90
108288 Off ch=16 n=36 v=64
108288 On ch=16 n=36 v=90
108384 Off ch=16 n=36 v=64
108384 On ch=16 n=36 v=90
108480 Off ch=16 n=36 v=64
108480 On ch=16 n=36 v=90
108576 Off ch=16 n=36 v=64
108576 On ch=16 n=36 v=90
108672 Off ch=16 n=36 v=64
108672 On ch=16 n=36 v=90
108768 Off ch=16 n=36 v=64
108768 On ch=16 n=36 v=90
108864 Off ch=16 n=36 v=64
108864 On ch=16 n=36 v=90
108960 Off ch=16 n=36 v=64
108960 On ch=16 n=36 v=90
109056 Off ch=16 n=36 v=64
109056 On ch=16 n=36 v=90
109152 Off ch=16 n=36 v=64
109152 On ch=16 n=36 v=90
109248 Off ch=16 n=36 v=64
109248 On ch=16 n=36 v=90
109344 Off ch=16 n=36 v=64
109344 On ch=16 n=36 v=90
109440 Off ch=16 n=36 v=64
109440 On ch=16 n=36 v=90
109536 Off ch=16 n=36 v=64
109536 On ch=16 n=36 v=90
109632 Off ch=16 n=36 v=64
109632 On ch=16 n=36 v=90
109728 Off ch=16 n=36 v=64
109728 On ch=16 n=36 v=90
109824 Off ch=16 n=36 v=64
109824 On ch=16 n=36 v=90
109920 Off ch=16 n=36 v=64
109920 On ch=16 n=36 v=90
110016 Off ch=16 n=36 v=64
110016 On ch=16 n=36 v=90
110112 Off ch=16 n=36 v=64
110112 On ch=16 n=36 v=90
110208 Off ch=16 n=36 v=64
110208 On ch=16 n=36 v=90
110304 Off ch=16 n=36 v=64
110304 On ch=16 n=36 v=90
110400 Off ch=16 n=36 v=64
110400 On ch=16 n=36 v=90
110496 Off ch=16 n=36 v=64
110496 On ch=16 n=36 v=90
110592 Off ch=16 n=36 v=64
110592 On ch=16 n=36 v=90
110688 Off ch=16 n=36 v=64
110688 On ch=16 n=36 v=90
110784 Off ch=16 n=36 v=64
110784 On ch=16 n=36 v=90
110880 Off ch=16 n=36 v=64
110880 On ch=16 n=36 v=90
110976 Off ch=16 n=36 v=64
110976 On ch=16 n=36 v=90
111072 Off ch=16 n=36 v=64
111072 On ch=16 n=36 v=90
111168 Off ch=16 n=36 v=64
111168 On ch=16 n=36 v=90
111264 Off ch=16 n=36 v=64
111264 On ch=16 n=36 v=90
111360 Off ch=16 n=36 v=64
111360 On ch=16 n=36 v=90
111456 Off ch=16 n=36 v=64
111456 On ch=16 n=36 v=90
111504 Off ch=16 n=36 v=64
111504 On ch=16 n=36 v=90
111552 Off ch=16 n=36 v=64
111552 On ch=16 n=36 v=90
111648 Off ch=16 n=36 v=64
111648 On ch=16 n=36 v=90
111840 Off ch=16 n=36 v=64
111840 On ch=16 n=36 v=90
112032 Off ch=16 n=36 v=64
112032 On ch=16 n=36 v=90
112320 Off ch=16 n=36 v=64
112320 On ch=16 n=36 v=90
112416 Off ch=16 n=36 v=64
112416 On ch=16 n=36 v=90
112512 Off ch=16 n=36 v=64
112512 On ch=16 n=36 v=90
112608 Off ch=16 n=36 v=64
112608 On ch=16 n=36 v=90
112800 Off ch=16 n=36 v=64
112800 On ch=16 n=36 v=90
112992 Off ch=16 n=36 v=64
112992 On ch=16 n=36 v=90
113088 Off ch=16 n=36 v=64
113088 On ch=16 n=36 v=90
113184 Off ch=16 n=36 v=64
113184 On ch=16 n=36 v=90
113280 Off ch=16 n=36 v=64
113280 On ch=16 n=36 v=90
113376 Off ch=16 n=36 v=64
113376 On ch=16 n=36 v=90
113568 Off ch=16 n=36 v=64
113568 On ch=16 n=36 v=90
113760 Off ch=16 n=36 v=64
113760 On ch=16 n=36 v=90
113856 Off ch=16 n=36 v=64
113856 On ch=16 n=36 v=90
113952 Off ch=16 n=36 v=64
113952 On ch=16 n=36 v=90
114144 Off ch=16 n=36 v=64
114144 On ch=16 n=36 v=90
114240 Off ch=16 n=36 v=64
114240 On ch=16 n=36 v=90
114336 Off ch=16 n=36 v=64
114336 On ch=16 n=36 v=90
114528 Off ch=16 n=36 v=64
114528 On ch=16 n=36 v=90
114624 Off ch=16 n=36 v=64
114624 On ch=16 n=36 v=90
114720 Off ch=16 n=36 v=64
114720 On ch=16 n=36 v=90
114912 Off ch=16 n=36 v=64
114912 On ch=16 n=36 v=90
115104 Off ch=16 n=36 v=64
115104 On ch=16 n=36 v=90
115296 Off ch=16 n=36 v=64
115296 On ch=16 n=36 v=90
115392 Off ch=16 n=36 v=64
115392 On ch=16 n=36 v=90
115488 Off ch=16 n=36 v=64
115488 On ch=16 n=36 v=90
115584 Off ch=16 n=36 v=64
115584 On ch=16 n=36 v=90
115680 Off ch=16 n=36 v=64
115680 On ch=16 n=36 v=90
115872 Off ch=16 n=36 v=64
115872 On ch=16 n=36 v=90
116064 Off ch=16 n=36 v=64
116064 On ch=16 n=36 v=90
116160 Off ch=16 n=36 v=64
116160 On ch=16 n=36 v=90
116256 Off ch=16 n=36 v=64
116256 On ch=16 n=36 v=90
116352 Off ch=16 n=36 v=64
116352 On ch=16 n=36 v=90
116448 Off ch=16 n=36 v=64
116448 On ch=16 n=36 v=90
116640 Off ch=16 n=36 v=64
116640 On ch=16 n=36 v=90
116832 Off ch=16 n=36 v=64
116832 On ch=16 n=36 v=90
116928 Off ch=16 n=36 v=64
116928 On ch=16 n=36 v=90
117024 Off ch=16 n=36 v=64
117024 On ch=16 n=36 v=90
117216 Off ch=16 n=36 v=64
117216 On ch=16 n=36 v=90
117312 Off ch=16 n=36 v=64
117312 On ch=16 n=36 v=90
117408 Off ch=16 n=36 v=64
117408 On ch=16 n=36 v=90
117600 Off ch=16 n=36 v=64
117600 On ch=16 n=36 v=90
117696 Off ch=16 n=36 v=64
117696 On ch=16 n=36 v=90
117792 Off ch=16 n=36 v=64
117792 On ch=16 n=36 v=90
117984 Off ch=16 n=36 v=64
117984 On ch=16 n=36 v=90
118176 Off ch=16 n=36 v=64
118176 On ch=16 n=36 v=90
118368 Off ch=16 n=36 v=64
118368 On ch=16 n=36 v=90
118464 Off ch=16 n=36 v=64
118464 On ch=16 n=36 v=90
118560 Off ch=16 n=36 v=64
118560 On ch=16 n=36 v=90
118656 Off ch=16 n=36 v=64
118656 On ch=16 n=36 v=90
118752 Off ch=16 n=36 v=64
118752 On ch=16 n=36 v=90
118944 Off ch=16 n=36 v=64
118944 On ch=16 n=36 v=90
119136 Off ch=16 n=36 v=64
119136 On ch=16 n=36 v=90
119232 Off ch=16 n=36 v=64
119232 On ch=16 n=36 v=90
119328 Off ch=16 n=36 v=64
119328 On ch=16 n=36 v=90
119424 Off ch=16 n=36 v=64
119424 On ch=16 n=36 v=90
119520 Off ch=16 n=36 v=64
119520 On ch=16 n=36 v=90
119712 Off ch=16 n=36 v=64
119712 On ch=16 n=36 v=90
119904 Off ch=16 n=36 v=64
119904 On ch=16 n=36 v=90
120000 Off ch=16 n=36 v=64
120000 On ch=16 n=36 v=90
120096 Off ch=16 n=36 v=64
120096 On ch=16 n=36 v=90
120288 Off ch=16 n=36 v=64
120288 On ch=16 n=36 v=90
120384 Off ch=16 n=36 v=64
120384 On ch=16 n=36 v=90
120480 Off ch=16 n=36 v=64
120480 On ch=16 n=36 v=90
120672 Off ch=16 n=36 v=64
120672 On ch=16 n=36 v=90
120768 Off ch=16 n=36 v=64
120768 On ch=16 n=36 v=90
120864 Off ch=16 n=36 v=64
120864 On ch=16 n=36 v=90
121056 Off ch=16 n=36 v=64
121056 On ch=16 n=36 v=90
121248 Off ch=16 n=36 v=64
121248 On ch=16 n=36 v=90
121440 Off ch=16 n=36 v=64
121440 On ch=16 n=36 v=90
121536 Off ch=16 n=36 v=64
121536 On ch=16 n=36 v=90
121632 Off ch=16 n=36 v=64
121632 On ch=16 n=36 v=90
121728 Off ch=16 n=36 v=64
121728 On ch=16 n=36 v=90
121824 Off ch=16 n=36 v=64
121824 On ch=16 n=36 v=90
122016 Off ch=16 n=36 v=64
122016 On ch=16 n=36 v=90
122208 Off ch=16 n=36 v=64
122208 On ch=16 n=36 v=90
122304 Off ch=16 n=36 v=64
122304 On ch=16 n=36 v=90
122400 Off ch=16 n=36 v=64
122400 On ch=16 n=36 v=90
122496 Off ch=16 n=36 v=64
122496 On ch=16 n=36 v=90
122592 Off ch=16 n=36 v=64
122592 On ch=16 n=36 v=90
122784 Off ch=16 n=36 v=64
122784 On ch=16 n=36 v=90
122976 Off ch=16 n=36 v=64
122976 On ch=16 n=36 v=90
123072 Off ch=16 n=36 v=64
123072 On ch=16 n=36 v=90
123168 Off ch=16 n=36 v=64
123168 On ch=16 n=36 v=90
123360 Off ch=16 n=36 v=64
123360 On ch=16 n=36 v=90
123456 Off ch=16 n=36 v=64
123456 On ch=16 n=36 v=90
123552 Off ch=16 n=36 v=64
123552 On ch=16 n=36 v=90
123744 Off ch=16 n=36 v=64
123744 On ch=16 n=36 v=90
123936 Off ch=16 n=36 v=64
123936 On ch=16 n=36 v=90
124128 Off ch=16 n=36 v=64
124128 On ch=16 n=36 v=90
124320 Off ch=16 n=36 v=64
124320 On ch=16 n=36 v=90
124512 Off ch=16 n=36 v=64
124512 On ch=16 n=36 v=90
124608 Off ch=16 n=36 v=64
124608 On ch=16 n=36 v=90
124704 Off ch=16 n=36 v=64
124704 On ch=16 n=36 v=90
124800 Off ch=16 n=36 v=64
124800 On ch=16 n=36 v=90
124896 Off ch=16 n=36 v=64
124896 On ch=16 n=36 v=90
125088 Off ch=16 n=36 v=64
125088 On ch=16 n=36 v=90
125280 Off ch=16 n=36 v=64
125280 On ch=16 n=36 v=90
125376 Off ch=16 n=36 v=64
125376 On ch=16 n=36 v=90
125472 Off ch=16 n=36 v=64
125472 On ch=16 n=36 v=90
125568 Off ch=16 n=36 v=64
125568 On ch=16 n=36 v=90
125664 Off ch=16 n=36 v=64
125664 On ch=16 n=36 v=90
125856 Off ch=16 n=36 v=64
125856 On ch=16 n=36 v=90
126048 Off ch=16 n=36 v=64
126048 On ch=16 n=36 v=90
126144 Off ch=16 n=36 v=64
126144 On ch=16 n=36 v=90
126240 Off ch=16 n=36 v=64
126240 On ch=16 n=36 v=90
126432 Off ch=16 n=36 v=64
126432 On ch=16 n=36 v=90
126528 Off ch=16 n=36 v=64
126528 On ch=16 n=36 v=90
126624 Off ch=16 n=36 v=64
126624 On ch=16 n=36 v=90
126816 Off ch=16 n=36 v=64
126816 On ch=16 n=36 v=90
126912 Off ch=16 n=36 v=64
126912 On ch=16 n=36 v=90
127008 Off ch=16 n=36 v=64
127008 On ch=16 n=36 v=90
127200 Off ch=16 n=36 v=64
127200 On ch=16 n=36 v=90
127392 Off ch=16 n=36 v=64
127392 On ch=16 n=36 v=90
127584 Off ch=16 n=36 v=64
127584 On ch=16 n=36 v=90
127680 Off ch=16 n=36 v=64
127680 On ch=16 n=36 v=90
127776 Off ch=16 n=36 v=64
127776 On ch=16 n=36 v=90
127872 Off ch=16 n=36 v=64
127872 On ch=16 n=36 v=90
127968 Off ch=16 n=36 v=64
127968 On ch=16 n=36 v=90
128160 Off ch=16 n=36 v=64
128160 On ch=16 n=36 v=90
128352 Off ch=16 n=36 v=64
128352 On ch=16 n=36 v=90
128448 Off ch=16 n=36 v=64
128448 On ch=16 n=36 v=90
128544 Off ch=16 n=36 v=64
128544 On ch=16 n=36 v=90
128640 Off ch=16 n=36 v=64
128640 On ch=16 n=36 v=90
128736 Off ch=16 n=36 v=64
128736 On ch=16 n=36 v=90
128928 Off ch=16 n=36 v=64
128928 On ch=16 n=36 v=90
129120 Off ch=16 n=36 v=64
129120 On ch=16 n=36 v=90
129216 Off ch=16 n=36 v=64
129216 On ch=16 n=36 v=90
129312 Off ch=16 n=36 v=64
129312 On ch=16 n=36 v=90
129504 Off ch=16 n=36 v=64
129504 On ch=16 n=36 v=90
129600 Off ch=16 n=36 v=64
129600 On ch=16 n=36 v=90
129696 Off ch=16 n=36 v=64
129696 On ch=16 n=36 v=90
129888 Off ch=16 n=36 v=64
129888 On ch=16 n=36 v=90
130080 Off ch=16 n=36 v=64
130080 On ch=16 n=36 v=90
130272 Off ch=16 n=36 v=64
130272 On ch=16 n=36 v=90
130464 Off ch=16 n=36 v=64
130464 On ch=16 n=36 v=90
130656 Off ch=16 n=36 v=64
130656 On ch=16 n=36 v=90
130752 Off ch=16 n=36 v=64
130752 On ch=16 n=36 v=90
130848 Off ch=16 n=36 v=64
130848 On ch=16 n=36 v=90
130944 Off ch=16 n=36 v=64
130944 On ch=16 n=36 v=90
131040 Off ch=16 n=36 v=64
131040 On ch=16 n=36 v=90
131232 Off ch=16 n=36 v=64
131232 On ch=16 n=36 v=90
131424 Off ch=16 n=36 v=64
131424 On ch=16 n=36 v=90
131520 Off ch=16 n=36 v=64
131520 On ch=16 n=36 v=90
131616 Off ch=16 n=36 v=64
131616 On ch=16 n=36 v=90
131712 Off ch=16 n=36 v=64
131712 On ch=16 n=36 v=90
131808 Off ch=16 n=36 v=64
131808 On ch=16 n=36 v=90
132000 Off ch=16 n=36 v=64
132000 On ch=16 n=36 v=90
132192 Off ch=16 n=36 v=64
132192 On ch=16 n=36 v=90
132288 Off ch=16 n=36 v=64
132288 On ch=16 n=36 v=90
132384 Off ch=16 n=36 v=64
132384 On ch=16 n=36 v=90
132576 Off ch=16 n=36 v=64
132576 On ch=16 n=36 v=90
132672 Off ch=16 n=36 v=64
132672 On ch=16 n=36 v=90
132768 Off ch=16 n=36 v=64
132768 On ch=16 n=36 v=90
132960 Off ch=16 n=36 v=64
132960 On ch=16 n=36 v=90
133056 Off ch=16 n=36 v=64
133056 On ch=16 n=36 v=90
133152 Off ch=16 n=36 v=64
133152 On ch=16 n=36 v=90
133344 Off ch=16 n=36 v=64
133344 On ch=16 n=36 v=90
133536 Off ch=16 n=36 v=64
133536 On ch=16 n=36 v=90
133728 Off ch=16 n=36 v=64
133728 On ch=16 n=36 v=90
133824 Off ch=16 n=36 v=64
133824 On ch=16 n=36 v=90
133920 Off ch=16 n=36 v=64
133920 On ch=16 n=36 v=90
134016 Off ch=16 n=36 v=64
134016 On ch=16 n=36 v=90
134112 Off ch=16 n=36 v=64
134112 On ch=16 n=36 v=90
134304 Off ch=16 n=36 v=64
134304 On ch=16 n=36 v=90
134496 Off ch=16 n=36 v=64
134496 On ch=16 n=36 v=90
134592 Off ch=16 n=36 v=64
134592 On ch=16 n=36 v=90
134688 Off ch=16 n=36 v=64
134688 On ch=16 n=36 v=90
134784 Off ch=16 n=36 v=64
134784 On ch=16 n=36 v=90
134880 Off ch=16 n=36 v=64
134880 On ch=16 n=36 v=90
135072 Off ch=16 n=36 v=64
135072 On ch=16 n=36 v=90
135264 Off ch=16 n=36 v=64
135264 On ch=16 n=36 v=90
135360 Off ch=16 n=36 v=64
135360 On ch=16 n=36 v=90
135456 Off ch=16 n=36 v=64
135456 On ch=16 n=36 v=90
135648 Off ch=16 n=36 v=64
135648 On ch=16 n=36 v=90
135744 Off ch=16 n=36 v=64
135744 On ch=16 n=36 v=90
135840 Off ch=16 n=36 v=64
135840 On ch=16 n=36 v=90
136032 Off ch=16 n=36 v=64
136032 On ch=16 n=36 v=90
136224 Off ch=16 n=36 v=64
136224 On ch=16 n=36 v=90
136416 Off ch=16 n=36 v=64
136416 On ch=16 n=36 v=90
136512 Off ch=16 n=36 v=64
136512 On ch=16 n=36 v=90
136608 Off ch=16 n=36 v=64
136608 On ch=16 n=36 v=90
136704 Off ch=16 n=36 v=64
136704 On ch=16 n=36 v=90
136800 Off ch=16 n=36 v=64
136800 On ch=16 n=36 v=90
136992 Off ch=16 n=36 v=64
136992 On ch=16 n=36 v=90
137184 Off ch=16 n=36 v=64
137184 On ch=16 n=36 v=90
137280 Off ch=16 n=36 v=64
137280 On ch=16 n=36 v=90
137376 Off ch=16 n=36 v=64
137376 On ch=16 n=36 v=90
137568 Off ch=16 n=36 v=64
137568 On ch=16 n=36 v=90
137664 Off ch=16 n=36 v=64
137664 On ch=16 n=36 v=90
137760 Off ch=16 n=36 v=64
137760 On ch=16 n=36 v=90
137952 Off ch=16 n=36 v=64
137952 On ch=16 n=36 v=90
138144 Off ch=16 n=36 v=64
138144 On ch=16 n=36 v=90
138336 Off ch=16 n=36 v=64
138336 On ch=16 n=36 v=90
138432 Off ch=16 n=36 v=64
138432 On ch=16 n=36 v=90
138528 Off ch=16 n=36 v=64
138528 On ch=16 n=36 v=90
138624 Off ch=16 n=36 v=64
138624 On ch=16 n=36 v=90
138720 Off ch=16 n=36 v=64
138720 On ch=16 n=36 v=90
138912 Off ch=16 n=36 v=64
138912 On ch=16 n=36 v=90
139104 Off ch=16 n=36 v=64
139104 On ch=16 n=36 v=90
139200 Off ch=16 n=36 v=64
139200 On ch=16 n=36 v=90
139296 Off ch=16 n=36 v=64
139296 On ch=16 n=36 v=90
139392 Off ch=16 n=36 v=64
139392 On ch=16 n=36 v=90
139488 Off ch=16 n=36 v=64
139488 On ch=16 n=36 v=90
139680 Off ch=16 n=36 v=64
139680 On ch=16 n=36 v=90
139872 Off ch=16 n=36 v=64
139872 On ch=16 n=36 v=90
139968 Off ch=16 n=36 v=64
139968 On ch=16 n=36 v=90
140064 Off ch=16 n=36 v=64
140064 On ch=16 n=36 v=90
140160 Off ch=16 n=36 v=64
140160 On ch=16 n=36 v=90
140256 Off ch=16 n=36 v=64
140256 On ch=16 n=36 v=90
140448 Off ch=16 n=36 v=64
140448 On ch=16 n=36 v=90
140640 Off ch=16 n=36 v=64
140640 On ch=16 n=36 v=90
140736 Off ch=16 n=36 v=64
140736 On ch=16 n=36 v=90
140832 Off ch=16 n=36 v=64
140832 On ch=16 n=36 v=90
140928 Off ch=16 n=36 v=64
140928 On ch=16 n=36 v=90
141024 Off ch=16 n=36 v=64
141024 On ch=16 n=36 v=90
141216 Off ch=16 n=36 v=64
141216 Meta TrkEnd
TrkEnd
MTrk
0 Meta 0x21 01
0 Meta TrkName "Crash Cybels        "
0 PrCh ch=16 p=0
3840 On ch=16 n=18 v=90
3952 Off ch=16 n=18 v=64
4032 On ch=16 n=18 v=90
4160 Off ch=16 n=18 v=64
4608 On ch=16 n=18 v=90
4720 Off ch=16 n=18 v=64
5376 On ch=16 n=18 v=90
5392 Off ch=16 n=18 v=64
5424 On ch=16 n=18 v=90
5568 Off ch=16 n=18 v=64
5856 On ch=16 n=18 v=90
6144 Off ch=16 n=18 v=64
9984 On ch=16 n=18 v=90
10096 Off ch=16 n=18 v=64
10752 On ch=16 n=18 v=90
10864 Off ch=16 n=18 v=64
11136 On ch=16 n=18 v=90
11328 Off ch=16 n=18 v=64
11520 On ch=16 n=18 v=90
11536 Off ch=16 n=18 v=64
11568 On ch=16 n=18 v=90
11712 Off ch=16 n=18 v=64
12000 On ch=16 n=18 v=90
12288 Off ch=16 n=18 v=64
16128 On ch=16 n=18 v=90
16320 Off ch=16 n=18 v=64
16896 On ch=16 n=18 v=90
17024 Off ch=16 n=18 v=64
17280 On ch=16 n=18 v=90
17472 Off ch=16 n=18 v=64
17664 On ch=16 n=18 v=90
17680 Off ch=16 n=18 v=64
17760 On ch=16 n=18 v=90
17856 Off ch=16 n=18 v=64
18144 On ch=16 n=18 v=90
18240 Off ch=16 n=18 v=64
19392 On ch=16 n=18 v=90
19584 Off ch=16 n=18 v=64
20256 On ch=16 n=18 v=90
20416 Off ch=16 n=18 v=64
20928 On ch=16 n=18 v=90
21120 Off ch=16 n=18 v=64
22464 On ch=16 n=18 v=90
22656 Off ch=16 n=18 v=64
23040 On ch=16 n=18 v=90
23152 Off ch=16 n=18 v=64
23424 On ch=16 n=18 v=90
23616 Off ch=16 n=18 v=64
23712 On ch=16 n=18 v=90
23856 Off ch=16 n=18 v=64
24288 On ch=16 n=18 v=90
24576 Off ch=16 n=18 v=64
25344 On ch=16 n=18 v=90
25440 Off ch=16 n=18 v=64
25440 On ch=16 n=18 v=90
25536 Off ch=16 n=18 v=64
26112 On ch=16 n=18 v=90
26208 Off ch=16 n=18 v=64
26208 On ch=16 n=18 v=90
26304 Off ch=16 n=18 v=64
27360 On ch=16 n=18 v=90
27648 Off ch=16 n=18 v=64
28416 On ch=16 n=18 v=90
28608 Off ch=16 n=18 v=64
29184 On ch=16 n=20 v=90
29376 Off ch=16 n=20 v=64
30336 On ch=16 n=20 v=90
30528 Off ch=16 n=20 v=64
30912 On ch=16 n=20 v=90
31008 Off ch=16 n=20 v=64
31008 On ch=16 n=20 v=90
31104 Off ch=16 n=20 v=64
31104 On ch=16 n=20 v=90
31296 Off ch=16 n=20 v=64
34656 On ch=16 n=18 v=90
34704 Off ch=16 n=18 v=64
34704 On ch=16 n=18 v=90
34752 Off ch=16 n=18 v=64
34752 On ch=16 n=18 v=90
34848 Off ch=16 n=18 v=64
35424 On ch=16 n=18 v=90
35536 Off ch=16 n=18 v=64
36192 On ch=16 n=18 v=90
36208 Off ch=16 n=18 v=64
36240 On ch=16 n=18 v=90
36384 Off ch=16 n=18 v=64
36672 On ch=16 n=18 v=90
36960 Off ch=16 n=18 v=64
40800 On ch=16 n=18 v=90
40912 Off ch=16 n=18 v=64
41568 On ch=16 n=18 v=90
41680 Off ch=16 n=18 v=64
42336 On ch=16 n=18 v=90
42352 Off ch=16 n=18 v=64
42384 On ch=16 n=18 v=90
42528 Off ch=16 n=18 v=64
42816 On ch=16 n=18 v=90
42864 Off ch=16 n=18 v=64
42864 On ch=16 n=18 v=90
42912 Off ch=16 n=18 v=64
42912 On ch=16 n=18 v=90
43104 Off ch=16 n=18 v=64
49440 On ch=16 n=18 v=90
49536 Off ch=16 n=18 v=64
49536 On ch=16 n=18 v=90
49584 Off ch=16 n=18 v=64
49584 On ch=16 n=18 v=90
49632 Off ch=16 n=18 v=64
49824 On ch=16 n=18 v=90
50032 Off ch=16 n=18 v=64
50208 On ch=16 n=18 v=90
50400 Off ch=16 n=18 v=64
50592 On ch=16 n=18 v=90
50784 Off ch=16 n=18 v=64
52416 On ch=16 n=18 v=90
52512 Off ch=16 n=18 v=64
52704 On ch=16 n=18 v=90
52800 Off ch=16 n=18 v=64
52896 On ch=16 n=18 v=90
52992 Off ch=16 n=18 v=64
53088 On ch=16 n=18 v=90
53136 Off ch=16 n=18 v=64
53136 On ch=16 n=18 v=90
53184 Off ch=16 n=18 v=64
53280 On ch=16 n=18 v=90
53376 Off ch=16 n=18 v=64
53472 On ch=16 n=18 v=90
53520 Off ch=16 n=18 v=64
53520 On ch=16 n=18 v=90
53568 Off ch=16 n=18 v=64
53664 On ch=16 n=18 v=90
53760 Off ch=16 n=18 v=64
53856 On ch=16 n=18 v=90
53952 Off ch=16 n=18 v=64
54048 On ch=16 n=18 v=90
54144 Off ch=16 n=18 v=64
54240 On ch=16 n=18 v=90
54336 Off ch=16 n=18 v=64
54432 On ch=16 n=18 v=90
54528 Off ch=16 n=18 v=64
54624 On ch=16 n=18 v=90
54720 Off ch=16 n=18 v=64
54816 On ch=16 n=18 v=90
54912 Off ch=16 n=18 v=64
55008 On ch=16 n=18 v=90
55104 Off ch=16 n=18 v=64
55200 On ch=16 n=18 v=90
55296 Off ch=16 n=18 v=64
55392 On ch=16 n=18 v=90
55440 Off ch=16 n=18 v=64
55440 On ch=16 n=18 v=90
55488 Off ch=16 n=18 v=64
55584 On ch=16 n=18 v=90
55680 Off ch=16 n=18 v=64
55776 On ch=16 n=18 v=90
55872 Off ch=16 n=18 v=64
55968 On ch=16 n=18 v=90
56064 Off ch=16 n=18 v=64
56160 On ch=16 n=18 v=90
56256 Off ch=16 n=18 v=64
56352 On ch=16 n=18 v=90
56448 Off ch=16 n=18 v=64
56544 On ch=16 n=18 v=90
56640 Off ch=16 n=18 v=64
56736 On ch=16 n=18 v=90
56832 Off ch=16 n=18 v=64
56928 On ch=16 n=18 v=90
57024 Off ch=16 n=18 v=64
57120 On ch=16 n=18 v=90
57216 Off ch=16 n=18 v=64
57312 On ch=16 n=18 v=90
57408 Off ch=16 n=18 v=64
57504 On ch=16 n=18 v=90
57600 Off ch=16 n=18 v=64
57696 On ch=16 n=18 v=90
57792 Off ch=16 n=18 v=64
57888 On ch=16 n=18 v=90
57984 Off ch=16 n=18 v=64
58080 On ch=16 n=18 v=90
58176 Off ch=16 n=18 v=64
58272 On ch=16 n=18 v=90
58368 Off ch=16 n=18 v=64
58464 On ch=16 n=18 v=90
58560 Off ch=16 n=18 v=64
58656 On ch=16 n=18 v=90
58752 Off ch=16 n=18 v=64
58848 On ch=16 n=18 v=90
58944 Off ch=16 n=18 v=64
59040 On ch=16 n=18 v=90
59136 Off ch=16 n=18 v=64
59232 On ch=16 n=18 v=90
59328 Off ch=16 n=18 v=64
59424 On ch=16 n=18 v=90
59520 Off ch=16 n=18 v=64
59616 On ch=16 n=18 v=90
59712 Off ch=16 n=18 v=64
59808 On ch=16 n=18 v=90
59904 Off ch=16 n=18 v=64
60000 On ch=16 n=18 v=90
60096 Off ch=16 n=18 v=64
60192 On ch=16 n=18 v=90
60288 Off ch=16 n=18 v=64
60384 On ch=16 n=18 v=90
60480 Off ch=16 n=18 v=64
60576 On ch=16 n=18 v=90
60672 Off ch=16 n=18 v=64
60768 On ch=16 n=18 v=90
60864 Off ch=16 n=18 v=64
60960 On ch=16 n=18 v=90
61056 Off ch=16 n=18 v=64
61152 On ch=16 n=18 v=90
61248 Off ch=16 n=18 v=64
61344 On ch=16 n=18 v=90
61440 Off ch=16 n=18 v=64
61536 On ch=16 n=18 v=90
61632 Off ch=16 n=18 v=64
61728 On ch=16 n=18 v=90
61824 Off ch=16 n=18 v=64
65760 On ch=16 n=18 v=90
65872 Off ch=16 n=18 v=64
66528 On ch=16 n=18 v=90
66640 Off ch=16 n=18 v=64
67296 On ch=16 n=18 v=90
67312 Off ch=16 n=18 v=64
67344 On ch=16 n=18 v=90
67488 Off ch=16 n=18 v=64
67776 On ch=16 n=18 v=90
68064 Off ch=16 n=18 v=64
71904 On ch=16 n=18 v=90
72016 Off ch=16 n=18 v=64
72672 On ch=16 n=18 v=90
72784 Off ch=16 n=18 v=64
73440 On ch=16 n=18 v=90
73456 Off ch=16 n=18 v=64
73488 On ch=16 n=18 v=90
73632 Off ch=16 n=18 v=64
73920 On ch=16 n=18 v=90
74208 Off ch=16 n=18 v=64
78048 On ch=16 n=18 v=90
78240 Off ch=16 n=18 v=64
78816 On ch=16 n=18 v=90
78944 Off ch=16 n=18 v=64
79584 On ch=16 n=18 v=90
79600 Off ch=16 n=18 v=64
79680 On ch=16 n=18 v=90
79776 Off ch=16 n=18 v=64
80064 On ch=16 n=31 v=90
80160 Off ch=16 n=31 v=64
81984 On ch=16 n=18 v=90
82160 Off ch=16 n=18 v=64
82848 On ch=16 n=18 v=90
83040 Off ch=16 n=18 v=64
84384 On ch=16 n=18 v=90
84576 Off ch=16 n=18 v=64
84960 On ch=16 n=18 v=90
85072 Off ch=16 n=18 v=64
86208 On ch=16 n=18 v=90
86496 Off ch=16 n=18 v=64
87264 On ch=16 n=18 v=90
87456 Off ch=16 n=18 v=64
88032 On ch=16 n=18 v=90
88224 Off ch=16 n=18 v=64
89280 On ch=16 n=18 v=90
89568 Off ch=16 n=18 v=64
90336 On ch=16 n=18 v=90
90528 Off ch=16 n=18 v=64
91104 On ch=16 n=20 v=90
91296 Off ch=16 n=20 v=64
92256 On ch=16 n=20 v=90
92448 Off ch=16 n=20 v=64
92736 On ch=16 n=20 v=90
93024 Off ch=16 n=20 v=64
96864 On ch=16 n=18 v=90
96976 Off ch=16 n=18 v=64
97632 On ch=16 n=18 v=90
97744 Off ch=16 n=18 v=64
98400 On ch=16 n=18 v=90
98416 Off ch=16 n=18 v=64
98448 On ch=16 n=18 v=90
98592 Off ch=16 n=18 v=64
98880 On ch=16 n=18 v=90
99168 Off ch=16 n=18 v=64
103008 On ch=16 n=18 v=90
103120 Off ch=16 n=18 v=64
103776 On ch=16 n=18 v=90
103888 Off ch=16 n=18 v=64
104544 On ch=16 n=18 v=90
104560 Off ch=16 n=18 v=64
104592 On ch=16 n=18 v=90
104736 Off ch=16 n=18 v=64
105024 On ch=16 n=18 v=90
105312 Off ch=16 n=18 v=64
105312 On ch=16 n=18 v=90
105504 Off ch=16 n=18 v=64
106848 On ch=16 n=18 v=90
107040 Off ch=16 n=18 v=64
108384 On ch=16 n=18 v=90
108576 Off ch=16 n=18 v=64
109920 On ch=16 n=18 v=90
110112 Off ch=16 n=18 v=64
111360 On ch=16 n=18 v=90
111456 Off ch=16 n=18 v=64
111456 On ch=16 n=18 v=90
111504 Off ch=16 n=18 v=64
111504 On ch=16 n=18 v=90
111552 Off ch=16 n=18 v=64
111552 On ch=16 n=18 v=90
111648 Off ch=16 n=18 v=64
111648 On ch=16 n=18 v=90
111840 Off ch=16 n=18 v=64
112032 On ch=16 n=18 v=90
112240 Off ch=16 n=18 v=64
112416 On ch=16 n=18 v=90
112608 Off ch=16 n=18 v=64
112800 On ch=16 n=18 v=90
112992 Off ch=16 n=18 v=64
114624 On ch=16 n=18 v=90
114720 Off ch=16 n=18 v=64
114912 On ch=16 n=18 v=90
115008 Off ch=16 n=18 v=64
115104 On ch=16 n=18 v=90
115200 Off ch=16 n=18 v=64
115296 On ch=16 n=18 v=90
115392 Off ch=16 n=18 v=64
115488 On ch=16 n=18 v=90
115584 Off ch=16 n=18 v=64
115680 On ch=16 n=18 v=90
115776 Off ch=16 n=18 v=64
115872 On ch=16 n=18 v=90
115968 Off ch=16 n=18 v=64
116064 On ch=16 n=18 v=90
116160 Off ch=16 n=18 v=64
116256 On ch=16 n=18 v=90
116352 Off ch=16 n=18 v=64
116448 On ch=16 n=18 v=90
116544 Off ch=16 n=18 v=64
116640 On ch=16 n=18 v=90
116736 Off ch=16 n=18 v=64
116832 On ch=16 n=18 v=90
116928 Off ch=16 n=18 v=64
117024 On ch=16 n=18 v=90
117120 Off ch=16 n=18 v=64
117216 On ch=16 n=18 v=90
117312 Off ch=16 n=18 v=64
117408 On ch=16 n=18 v=90
117504 Off ch=16 n=18 v=64
117600 On ch=16 n=18 v=90
117696 Off ch=16 n=18 v=64
117792 On ch=16 n=18 v=90
117888 Off ch=16 n=18 v=64
117984 On ch=16 n=18 v=90
118080 Off ch=16 n=18 v=64
118176 On ch=16 n=18 v=90
118272 Off ch=16 n=18 v=64
118368 On ch=16 n=18 v=90
118464 Off ch=16 n=18 v=64
118560 On ch=16 n=18 v=90
118656 Off ch=16 n=18 v=64
118752 On ch=16 n=18 v=90
118848 Off ch=16 n=18 v=64
118944 On ch=16 n=18 v=90
119040 Off ch=16 n=18 v=64
119136 On ch=16 n=18 v=90
119232 Off ch=16 n=18 v=64
119328 On ch=16 n=18 v=90
119424 Off ch=16 n=18 v=64
119520 On ch=16 n=18 v=90
119616 Off ch=16 n=18 v=64
119712 On ch=16 n=18 v=90
119808 Off ch=16 n=18 v=64
119904 On ch=16 n=18 v=90
120000 Off ch=16 n=18 v=64
120096 On ch=16 n=18 v=90
120192 Off ch=16 n=18 v=64
120288 On ch=16 n=18 v=90
120384 Off ch=16 n=18 v=64
120480 On ch=16 n=18 v=90
120576 Off ch=16 n=18 v=64
120672 On ch=16 n=18 v=90
120768 Off ch=16 n=18 v=64
120864 On ch=16 n=18 v=90
120960 Off ch=16 n=18 v=64
121056 On ch=16 n=18 v=90
121152 Off ch=16 n=18 v=64
121248 On ch=16 n=18 v=90
121344 Off ch=16 n=18 v=64
121440 On ch=16 n=18 v=90
121536 Off ch=16 n=18 v=64
121632 On ch=16 n=18 v=90
121728 Off ch=16 n=18 v=64
121824 On ch=16 n=18 v=90
121920 Off ch=16 n=18 v=64
122016 On ch=16 n=18 v=90
122112 Off ch=16 n=18 v=64
122208 On ch=16 n=18 v=90
122304 Off ch=16 n=18 v=64
122400 On ch=16 n=18 v=90
122496 Off ch=16 n=18 v=64
122592 On ch=16 n=18 v=90
122688 Off ch=16 n=18 v=64
122784 On ch=16 n=18 v=90
122880 Off ch=16 n=18 v=64
122976 On ch=16 n=18 v=90
123072 Off ch=16 n=18 v=64
123168 On ch=16 n=18 v=90
123264 Off ch=16 n=18 v=64
123360 On ch=16 n=18 v=90
123456 Off ch=16 n=18 v=64
123552 On ch=16 n=18 v=90
123648 Off ch=16 n=18 v=64
123744 On ch=16 n=18 v=90
123840 Off ch=16 n=18 v=64
123936 On ch=16 n=18 v=90
124032 Off ch=16 n=18 v=64
124128 On ch=16 n=18 v=90
124224 Off ch=16 n=18 v=64
124320 On ch=16 n=18 v=90
124416 Off ch=16 n=18 v=64
124512 On ch=16 n=18 v=90
124608 Off ch=16 n=18 v=64
124704 On ch=16 n=18 v=90
124800 Off ch=16 n=18 v=64
124896 On ch=16 n=18 v=90
124992 Off ch=16 n=18 v=64
125088 On ch=16 n=18 v=90
125184 Off ch=16 n=18 v=64
125280 On ch=16 n=18 v=90
125376 Off ch=16 n=18 v=64
125472 On ch=16 n=18 v=90
125568 Off ch=16 n=18 v=64
125664 On ch=16 n=18 v=90
125760 Off ch=16 n=18 v=64
125856 On ch=16 n=18 v=90
125952 Off ch=16 n=18 v=64
126048 On ch=16 n=18 v=90
126144 Off ch=16 n=18 v=64
126240 On ch=16 n=18 v=90
126336 Off ch=16 n=18 v=64
126432 On ch=16 n=18 v=90
126528 Off ch=16 n=18 v=64
126624 On ch=16 n=18 v=90
126720 Off ch=16 n=18 v=64
126816 On ch=16 n=18 v=90
126912 Off ch=16 n=18 v=64
127008 On ch=16 n=18 v=90
127104 Off ch=16 n=18 v=64
127200 On ch=16 n=18 v=90
127296 Off ch=16 n=18 v=64
127392 On ch=16 n=18 v=90
127488 Off ch=16 n=18 v=64
127584 On ch=16 n=18 v=90
127680 Off ch=16 n=18 v=64
127776 On ch=16 n=18 v=90
127872 Off ch=16 n=18 v=64
127968 On ch=16 n=18 v=90
128064 Off ch=16 n=18 v=64
128160 On ch=16 n=18 v=90
128256 Off ch=16 n=18 v=64
128352 On ch=16 n=18 v=90
128448 Off ch=16 n=18 v=64
128544 On ch=16 n=18 v=90
128640 Off ch=16 n=18 v=64
128736 On ch=16 n=18 v=90
128832 Off ch=16 n=18 v=64
128928 On ch=16 n=18 v=90
129024 Off ch=16 n=18 v=64
129120 On ch=16 n=18 v=90
129216 Off ch=16 n=18 v=64
129312 On ch=16 n=18 v=90
129408 Off ch=16 n=18 v=64
129504 On ch=16 n=18 v=90
129600 Off ch=16 n=18 v=64
129696 On ch=16 n=18 v=90
129792 Off ch=16 n=18 v=64
129888 On ch=16 n=18 v=90
129984 Off ch=16 n=18 v=64
130080 On ch=16 n=18 v=90
130176 Off ch=16 n=18 v=64
130272 On ch=16 n=18 v=90
130368 Off ch=16 n=18 v=64
130464 On ch=16 n=18 v=90
130560 Off ch=16 n=18 v=64
130656 On ch=16 n=18 v=90
130752 Off ch=16 n=18 v=64
130848 On ch=16 n=18 v=90
130944 Off ch=16 n=18 v=64
131040 On ch=16 n=18 v=90
131136 Off ch=16 n=18 v=64
131232 On ch=16 n=18 v=90
131328 Off ch=16 n=18 v=64
131424 On ch=16 n=18 v=90
131520 Off ch=16 n=18 v=64
131616 On ch=16 n=18 v=90
131712 Off ch=16 n=18 v=64
131808 On ch=16 n=18 v=90
131904 Off ch=16 n=18 v=64
132000 On ch=16 n=18 v=90
132096 Off ch=16 n=18 v=64
132192 On ch=16 n=18 v=90
132288 Off ch=16 n=18 v=64
132384 On ch=16 n=18 v=90
132480 Off ch=16 n=18 v=64
132576 On ch=16 n=18 v=90
132672 Off ch=16 n=18 v=64
132768 On ch=16 n=18 v=90
132864 Off ch=16 n=18 v=64
132960 On ch=16 n=18 v=90
133056 Off ch=16 n=18 v=64
133152 On ch=16 n=18 v=90
133248 Off ch=16 n=18 v=64
133344 On ch=16 n=18 v=90
133440 Off ch=16 n=18 v=64
133536 On ch=16 n=18 v=90
133632 Off ch=16 n=18 v=64
133728 On ch=16 n=18 v=90
133824 Off ch=16 n=18 v=64
133920 On ch=16 n=18 v=90
134016 Off ch=16 n=18 v=64
134112 On ch=16 n=18 v=90
134208 Off ch=16 n=18 v=64
134304 On ch=16 n=18 v=90
134400 Off ch=16 n=18 v=64
134496 On ch=16 n=18 v=90
134592 Off ch=16 n=18 v=64
134688 On ch=16 n=18 v=90
134784 Off ch=16 n=18 v=64
134880 On ch=16 n=18 v=90
134976 Off ch=16 n=18 v=64
135072 On ch=16 n=18 v=90
135168 Off ch=16 n=18 v=64
135264 On ch=16 n=18 v=90
135360 Off ch=16 n=18 v=64
135456 On ch=16 n=18 v=90
135552 Off ch=16 n=18 v=64
135648 On ch=16 n=18 v=90
135744 Off ch=16 n=18 v=64
135840 On ch=16 n=18 v=90
135936 Off ch=16 n=18 v=64
136032 On ch=16 n=18 v=90
136128 Off ch=16 n=18 v=64
136224 On ch=16 n=18 v=90
136320 Off ch=16 n=18 v=64
136416 On ch=16 n=18 v=90
136512 Off ch=16 n=18 v=64
136608 On ch=16 n=18 v=90
136704 Off ch=16 n=18 v=64
136800 On ch=16 n=18 v=90
136896 Off ch=16 n=18 v=64
136992 On ch=16 n=18 v=90
137088 Off ch=16 n=18 v=64
137184 On ch=16 n=18 v=90
137280 Off ch=16 n=18 v=64
137376 On ch=16 n=18 v=90
137472 Off ch=16 n=18 v=64
137568 On ch=16 n=18 v=90
137664 Off ch=16 n=18 v=64
137760 On ch=16 n=18 v=90
137856 Off ch=16 n=18 v=64
137952 On ch=16 n=18 v=90
138048 Off ch=16 n=18 v=64
138144 On ch=16 n=18 v=90
138240 Off ch=16 n=18 v=64
138336 On ch=16 n=18 v=90
138432 Off ch=16 n=18 v=64
138528 On ch=16 n=18 v=90
138624 Off ch=16 n=18 v=64
138720 On ch=16 n=18 v=90
138816 Off ch=16 n=18 v=64
138912 On ch=16 n=18 v=90
139008 Off ch=16 n=18 v=64
139104 On ch=16 n=18 v=90
139200 Off ch=16 n=18 v=64
139296 On ch=16 n=18 v=90
139392 Off ch=16 n=18 v=64
139488 On ch=16 n=18 v=90
139584 Off ch=16 n=18 v=64
139680 On ch=16 n=18 v=90
139776 Off ch=16 n=18 v=64
139872 On ch=16 n=18 v=90
139968 Off ch=16 n=18 v=64
140064 On ch=16 n=18 v=90
140160 Off ch=16 n=18 v=64
140256 On ch=16 n=18 v=90
140352 Off ch=16 n=18 v=64
140448 On ch=16 n=18 v=90
140544 Off ch=16 n=18 v=64
140640 On ch=16 n=18 v=90
140736 Off ch=16 n=18 v=64
140832 On ch=16 n=18 v=90
140928 Off ch=16 n=18 v=64
141024 On ch=16 n=18 v=90
141120 Off ch=16 n=18 v=64
141120 Meta TrkEnd
TrkEnd
MTrk
0 Meta 0x21 01
0 Meta TrkName "High Hat            "
0 PrCh ch=16 p=0
3360 On ch=16 n=21 v=90
3456 Off ch=16 n=21 v=64
3456 On ch=16 n=21 v=90
3552 Off ch=16 n=21 v=64
3552 On ch=16 n=21 v=90
3648 Off ch=16 n=21 v=64
3648 On ch=16 n=21 v=90
3744 Off ch=16 n=21 v=64
3744 On ch=16 n=21 v=90
3840 Off ch=16 n=21 v=64
3840 On ch=16 n=21 v=90
4032 Off ch=16 n=21 v=64
4032 On ch=16 n=21 v=90
4224 Off ch=16 n=21 v=64
4224 On ch=16 n=21 v=90
4320 Off ch=16 n=21 v=64
4320 On ch=16 n=21 v=90
4416 Off ch=16 n=21 v=64
4416 On ch=16 n=21 v=90
4480 Off ch=16 n=21 v=64
4480 On ch=16 n=21 v=90
4544 Off ch=16 n=21 v=64
4544 On ch=16 n=21 v=90
4608 Off ch=16 n=21 v=64
4608 On ch=16 n=21 v=90
4704 Off ch=16 n=21 v=64
4704 On ch=16 n=21 v=90
4800 Off ch=16 n=21 v=64
4800 On ch=16 n=21 v=90
4896 Off ch=16 n=21 v=64
4896 On ch=16 n=21 v=90
4992 Off ch=16 n=21 v=64
4992 On ch=16 n=21 v=90
5088 Off ch=16 n=21 v=64
5088 On ch=16 n=21 v=90
5184 Off ch=16 n=21 v=64
5184 On ch=16 n=21 v=90
5280 Off ch=16 n=21 v=64
5280 On ch=16 n=21 v=90
5376 Off ch=16 n=21 v=64
5376 On ch=16 n=21 v=90
5472 Off ch=16 n=21 v=64
5472 On ch=16 n=21 v=90
5568 Off ch=16 n=21 v=64
5568 On ch=16 n=21 v=90
5664 Off ch=16 n=21 v=64
5664 On ch=16 n=21 v=90
5760 Off ch=16 n=21 v=64
5760 On ch=16 n=21 v=90
5808 Off ch=16 n=21 v=64
5808 On ch=16 n=21 v=90
5856 Off ch=16 n=21 v=64
5856 On ch=16 n=21 v=90
5952 Off ch=16 n=21 v=64
9504 On ch=16 n=21 v=90
9600 Off ch=16 n=21 v=64
9600 On ch=16 n=21 v=90
9648 Off ch=16 n=21 v=64
9648 On ch=16 n=21 v=90
9696 Off ch=16 n=21 v=64
9696 On ch=16 n=21 v=90
9792 Off ch=16 n=21 v=64
9792 On ch=16 n=21 v=90
9888 Off ch=16 n=21 v=64
9888 On ch=16 n=21 v=90
9984 Off ch=16 n=21 v=64
9984 On ch=16 n=21 v=90
10176 Off ch=16 n=21 v=64
10176 On ch=16 n=21 v=90
10272 Off ch=16 n=21 v=64
10272 On ch=16 n=21 v=90
10368 Off ch=16 n=21 v=64
10368 On ch=16 n=21 v=90
10464 Off ch=16 n=21 v=64
10464 On ch=16 n=21 v=90
10560 Off ch=16 n=21 v=64
10560 On ch=16 n=21 v=90
10624 Off ch=16 n=21 v=64
10624 On ch=16 n=21 v=90
10688 Off ch=16 n=21 v=64
10688 On ch=16 n=21 v=90
10752 Off ch=16 n=21 v=64
10752 On ch=16 n=21 v=90
10848 Off ch=16 n=21 v=64
10848 On ch=16 n=21 v=90
10944 Off ch=16 n=21 v=64
10944 On ch=16 n=21 v=90
11136 Off ch=16 n=21 v=64
11136 On ch=16 n=21 v=90
11328 Off ch=16 n=21 v=64
11328 On ch=16 n=21 v=90
11424 Off ch=16 n=21 v=64
11424 On ch=16 n=21 v=90
11520 Off ch=16 n=21 v=64
11520 On ch=16 n=21 v=90
11616 Off ch=16 n=21 v=64
11616 On ch=16 n=21 v=90
11712 Off ch=16 n=21 v=64
11712 On ch=16 n=21 v=90
11808 Off ch=16 n=21 v=64
11808 On ch=16 n=21 v=90
11904 Off ch=16 n=21 v=64
11904 On ch=16 n=21 v=90
11952 Off ch=16 n=21 v=64
11952 On ch=16 n=21 v=90
12000 Off ch=16 n=21 v=64
12000 On ch=16 n=21 v=90
12096 Off ch=16 n=21 v=64
15648 On ch=16 n=21 v=90
15744 Off ch=16 n=21 v=64
15744 On ch=16 n=21 v=90
15792 Off ch=16 n=21 v=64
15792 On ch=16 n=21 v=90
15840 Off ch=16 n=21 v=64
15840 On ch=16 n=21 v=90
15936 Off ch=16 n=21 v=64
15936 On ch=16 n=21 v=90
16032 Off ch=16 n=21 v=64
16032 On ch=16 n=21 v=90
16128 Off ch=16 n=21 v=64
16128 On ch=16 n=21 v=90
16224 Off ch=16 n=21 v=64
16224 On ch=16 n=21 v=90
16320 Off ch=16 n=21 v=64
16320 On ch=16 n=21 v=90
16416 Off ch=16 n=21 v=64
16416 On ch=16 n=21 v=90
16512 Off ch=16 n=21 v=64
16512 On ch=16 n=21 v=90
16608 Off ch=16 n=21 v=64
16608 On ch=16 n=21 v=90
16704 Off ch=16 n=21 v=64
16704 On ch=16 n=21 v=90
16768 Off ch=16 n=21 v=64
16768 On ch=16 n=21 v=90
16832 Off ch=16 n=21 v=64
16832 On ch=16 n=21 v=90
16896 Off ch=16 n=21 v=64
16896 On ch=16 n=21 v=90
16992 Off ch=16 n=21 v=64
16992 On ch=16 n=21 v=90
17088 Off ch=16 n=21 v=64
17088 On ch=16 n=21 v=90
17184 Off ch=16 n=21 v=64
17184 On ch=16 n=21 v=90
17280 Off ch=16 n=21 v=64
17280 On ch=16 n=21 v=90
17376 Off ch=16 n=21 v=64
17376 On ch=16 n=21 v=90
17472 Off ch=16 n=21 v=64
17472 On ch=16 n=21 v=90
17568 Off ch=16 n=21 v=64
17568 On ch=16 n=21 v=90
17664 Off ch=16 n=21 v=64
17664 On ch=16 n=21 v=90
17760 Off ch=16 n=21 v=64
17760 On ch=16 n=21 v=90
17856 Off ch=16 n=21 v=64
17856 On ch=16 n=21 v=90
17952 Off ch=16 n=21 v=64
17952 On ch=16 n=21 v=90
18048 Off ch=16 n=21 v=64
18048 On ch=16 n=21 v=90
18144 Off ch=16 n=21 v=64
18144 On ch=16 n=21 v=90
18240 Off ch=16 n=21 v=64
18240 On ch=16 n=21 v=90
18336 Off ch=16 n=21 v=64
18336 On ch=16 n=21 v=90
18432 Off ch=16 n=21 v=64
18432 On ch=16 n=21 v=90
18528 Off ch=16 n=21 v=64
18528 On ch=16 n=21 v=90
18624 Off ch=16 n=21 v=64
18624 On ch=16 n=21 v=90
18720 Off ch=16 n=21 v=64
18720 On ch=16 n=21 v=90
18816 Off ch=16 n=21 v=64
18816 On ch=16 n=21 v=90
18912 Off ch=16 n=21 v=64
18912 On ch=16 n=21 v=90
19008 Off ch=16 n=21 v=64
19008 On ch=16 n=21 v=90
19104 Off ch=16 n=21 v=64
19104 On ch=16 n=21 v=90
19200 Off ch=16 n=21 v=64
19200 On ch=16 n=21 v=90
19296 Off ch=16 n=21 v=64
19296 On ch=16 n=21 v=90
19392 Off ch=16 n=21 v=64
19392 On ch=16 n=21 v=90
19488 Off ch=16 n=21 v=64
19488 On ch=16 n=21 v=90
19584 Off ch=16 n=21 v=64
19584 On ch=16 n=21 v=90
19680 Off ch=16 n=21 v=64
19680 On ch=16 n=21 v=90
19776 Off ch=16 n=21 v=64
19776 On ch=16 n=21 v=90
19872 Off ch=16 n=21 v=64
19872 On ch=16 n=21 v=90
19968 Off ch=16 n=21 v=64
19968 On ch=16 n=21 v=90
20064 Off ch=16 n=21 v=64
20064 On ch=16 n=21 v=90
20160 Off ch=16 n=21 v=64
20160 On ch=16 n=21 v=90
20256 Off ch=16 n=21 v=64
20256 On ch=16 n=21 v=90
20352 Off ch=16 n=21 v=64
20352 On ch=16 n=21 v=90
20448 Off ch=16 n=21 v=64
20448 On ch=16 n=21 v=90
20544 Off ch=16 n=21 v=64
20544 On ch=16 n=21 v=90
20640 Off ch=16 n=21 v=64
20640 On ch=16 n=21 v=90
20736 Off ch=16 n=21 v=64
20736 On ch=16 n=21 v=90
20832 Off ch=16 n=21 v=64
20832 On ch=16 n=21 v=90
20928 Off ch=16 n=21 v=64
20928 On ch=16 n=21 v=90
21024 Off ch=16 n=21 v=64
21024 On ch=16 n=21 v=90
21120 Off ch=16 n=21 v=64
21120 On ch=16 n=21 v=90
21216 Off ch=16 n=21 v=64
21216 On ch=16 n=21 v=90
21312 Off ch=16 n=21 v=64
21312 On ch=16 n=21 v=90
21408 Off ch=16 n=21 v=64
21408 On ch=16 n=21 v=90
21504 Off ch=16 n=21 v=64
21504 On ch=16 n=21 v=90
21600 Off ch=16 n=21 v=64
21600 On ch=16 n=21 v=90
21696 Off ch=16 n=21 v=64
21696 On ch=16 n=21 v=90
21792 Off ch=16 n=21 v=64
21792 On ch=16 n=21 v=90
21888 Off ch=16 n=21 v=64
21888 On ch=16 n=21 v=90
21984 Off ch=16 n=21 v=64
21984 On ch=16 n=21 v=90
22080 Off ch=16 n=21 v=64
22080 On ch=16 n=21 v=90
22176 Off ch=16 n=21 v=64
22176 On ch=16 n=21 v=90
22272 Off ch=16 n=21 v=64
22272 On ch=16 n=21 v=90
22320 Off ch=16 n=21 v=64
22320 On ch=16 n=21 v=90
22368 Off ch=16 n=21 v=64
22368 On ch=16 n=21 v=90
22464 Off ch=16 n=21 v=64
22464 On ch=16 n=21 v=90
22560 Off ch=16 n=21 v=64
22560 On ch=16 n=21 v=90
22656 Off ch=16 n=21 v=64
22656 On ch=16 n=21 v=90
22752 Off ch=16 n=21 v=64
22752 On ch=16 n=21 v=90
22848 Off ch=16 n=21 v=64
22848 On ch=16 n=21 v=90
22912 Off ch=16 n=21 v=64
22912 On ch=16 n=21 v=90
22976 Off ch=16 n=21 v=64
22976 On ch=16 n=21 v=90
23040 Off ch=16 n=21 v=64
23040 On ch=16 n=21 v=90
23136 Off ch=16 n=21 v=64
23136 On ch=16 n=21 v=90
23232 Off ch=16 n=21 v=64
23232 On ch=16 n=21 v=90
23328 Off ch=16 n=21 v=64
23328 On ch=16 n=21 v=90
23424 Off ch=16 n=21 v=64
23424 On ch=16 n=21 v=90
23520 Off ch=16 n=21 v=64
23520 On ch=16 n=21 v=90
23616 Off ch=16 n=21 v=64
23616 On ch=16 n=21 v=90
23712 Off ch=16 n=21 v=64
23712 On ch=16 n=21 v=90
23808 Off ch=16 n=21 v=64
23808 On ch=16 n=21 v=90
23904 Off ch=16 n=21 v=64
23904 On ch=16 n=21 v=90
24000 Off ch=16 n=21 v=64
24000 On ch=16 n=21 v=90
24096 Off ch=16 n=21 v=64
24096 On ch=16 n=21 v=90
24192 Off ch=16 n=21 v=64
24192 On ch=16 n=21 v=90
24288 Off ch=16 n=21 v=64
24288 On ch=16 n=21 v=90
24384 Off ch=16 n=21 v=64
24384 On ch=16 n=21 v=90
24432 Off ch=16 n=21 v=64
24432 On ch=16 n=21 v=90
24480 Off ch=16 n=21 v=64
24480 On ch=16 n=21 v=90
24576 Off ch=16 n=21 v=64
24576 On ch=16 n=21 v=90
24768 Off ch=16 n=21 v=64
24768 On ch=16 n=21 v=90
24864 Off ch=16 n=21 v=64
24864 On ch=16 n=21 v=90
24960 Off ch=16 n=21 v=64
24960 On ch=16 n=21 v=90
25056 Off ch=16 n=21 v=64
25056 On ch=16 n=21 v=90
25152 Off ch=16 n=21 v=64
30912 On ch=16 n=22 v=90
31008 Off ch=16 n=22 v=64
31008 On ch=16 n=22 v=90
31104 Off ch=16 n=22 v=64
34176 On ch=16 n=21 v=90
34272 Off ch=16 n=21 v=64
34272 On ch=16 n=21 v=90
34320 Off ch=16 n=21 v=64
34320 On ch=16 n=21 v=90
34368 Off ch=16 n=21 v=64
34368 On ch=16 n=21 v=90
34464 Off ch=16 n=21 v=64
34464 On ch=16 n=21 v=90
34560 Off ch=16 n=21 v=64
34560 On ch=16 n=21 v=90
34656 Off ch=16 n=21 v=64
34656 On ch=16 n=21 v=90
34704 Off ch=16 n=21 v=64
34704 On ch=16 n=21 v=90
34752 Off ch=16 n=21 v=64
34752 On ch=16 n=21 v=90
34848 Off ch=16 n=21 v=64
34848 On ch=16 n=21 v=90
35040 Off ch=16 n=21 v=64
35040 On ch=16 n=21 v=90
35136 Off ch=16 n=21 v=64
35136 On ch=16 n=21 v=90
35232 Off ch=16 n=21 v=64
35232 On ch=16 n=21 v=90
35296 Off ch=16 n=21 v=64
35296 On ch=16 n=21 v=90
35360 Off ch=16 n=21 v=64
35360 On ch=16 n=21 v=90
35424 Off ch=16 n=21 v=64
35424 On ch=16 n=21 v=90
35520 Off ch=16 n=21 v=64
35520 On ch=16 n=21 v=90
35616 Off ch=16 n=21 v=64
35616 On ch=16 n=21 v=90
35808 Off ch=16 n=21 v=64
35808 On ch=16 n=21 v=90
36000 Off ch=16 n=21 v=64
36000 On ch=16 n=21 v=90
36096 Off ch=16 n=21 v=64
36096 On ch=16 n=21 v=90
36192 Off ch=16 n=21 v=64
36192 On ch=16 n=21 v=90
36288 Off ch=16 n=21 v=64
36288 On ch=16 n=21 v=90
36384 Off ch=16 n=21 v=64
36384 On ch=16 n=21 v=90
36480 Off ch=16 n=21 v=64
36480 On ch=16 n=21 v=90
36576 Off ch=16 n=21 v=64
36576 On ch=16 n=21 v=90
36624 Off ch=16 n=21 v=64
36624 On ch=16 n=21 v=90
36672 Off ch=16 n=21 v=64
36672 On ch=16 n=21 v=90
36768 Off ch=16 n=21 v=64
40320 On ch=16 n=21 v=90
40416 Off ch=16 n=21 v=64
40416 On ch=16 n=21 v=90
40464 Off ch=16 n=21 v=64
40464 On ch=16 n=21 v=90
40512 Off ch=16 n=21 v=64
40512 On ch=16 n=21 v=90
40560 Off ch=16 n=21 v=64
40560 On ch=16 n=21 v=90
40608 Off ch=16 n=21 v=64
40608 On ch=16 n=21 v=90
40704 Off ch=16 n=21 v=64
40704 On ch=16 n=21 v=90
40800 Off ch=16 n=21 v=64
40800 On ch=16 n=21 v=90
40848 Off ch=16 n=21 v=64
40848 On ch=16 n=21 v=90
40896 Off ch=16 n=21 v=64
40896 On ch=16 n=21 v=90
40944 Off ch=16 n=21 v=64
40944 On ch=16 n=21 v=90
40992 Off ch=16 n=21 v=64
40992 On ch=16 n=21 v=90
41184 Off ch=16 n=21 v=64
41184 On ch=16 n=21 v=90
41280 Off ch=16 n=21 v=64
41280 On ch=16 n=21 v=90
41376 Off ch=16 n=21 v=64
41376 On ch=16 n=21 v=90
41440 Off ch=16 n=21 v=64
41440 On ch=16 n=21 v=90
41504 Off ch=16 n=21 v=64
41504 On ch=16 n=21 v=90
41568 Off ch=16 n=21 v=64
41568 On ch=16 n=21 v=90
41664 Off ch=16 n=21 v=64
41664 On ch=16 n=21 v=90
41760 Off ch=16 n=21 v=64
41760 On ch=16 n=21 v=90
41952 Off ch=16 n=21 v=64
41952 On ch=16 n=21 v=90
42144 Off ch=16 n=21 v=64
42144 On ch=16 n=21 v=90
42240 Off ch=16 n=21 v=64
42240 On ch=16 n=21 v=90
42336 Off ch=16 n=21 v=64
42336 On ch=16 n=21 v=90
42432 Off ch=16 n=21 v=64
42432 On ch=16 n=21 v=90
42528 Off ch=16 n=21 v=64
42528 On ch=16 n=21 v=90
42624 Off ch=16 n=21 v=64
42624 On ch=16 n=21 v=90
42720 Off ch=16 n=21 v=64
42720 On ch=16 n=21 v=90
42768 Off ch=16 n=21 v=64
42768 On ch=16 n=21 v=90
42816 Off ch=16 n=21 v=64
42816 On ch=16 n=21 v=90
42864 Off ch=16 n=21 v=64
42864 On ch=16 n=21 v=90
42912 Off ch=16 n=21 v=64
49440 On ch=16 n=21 v=90
49536 Off ch=16 n=21 v=64
49536 On ch=16 n=21 v=90
49584 Off ch=16 n=21 v=64
49584 On ch=16 n=21 v=90
49632 Off ch=16 n=21 v=64
49632 On ch=16 n=21 v=90
49824 Off ch=16 n=21 v=64
49824 On ch=16 n=21 v=90
50016 Off ch=16 n=21 v=64
50016 On ch=16 n=21 v=90
50112 Off ch=16 n=21 v=64
50112 On ch=16 n=21 v=90
50208 Off ch=16 n=21 v=64
50208 On ch=16 n=21 v=90
50304 Off ch=16 n=21 v=64
50304 On ch=16 n=21 v=90
50400 Off ch=16 n=21 v=64
50400 On ch=16 n=21 v=90
50592 Off ch=16 n=21 v=64
50592 On ch=16 n=21 v=90
50784 Off ch=16 n=21 v=64
50784 On ch=16 n=21 v=90
50880 Off ch=16 n=21 v=64
50880 On ch=16 n=21 v=90
50976 Off ch=16 n=21 v=64
50976 On ch=16 n=21 v=90
51072 Off ch=16 n=21 v=64
51072 On ch=16 n=21 v=90
51168 Off ch=16 n=21 v=64
51168 On ch=16 n=21 v=90
51360 Off ch=16 n=21 v=64
51360 On ch=16 n=21 v=90
51552 Off ch=16 n=21 v=64
51552 On ch=16 n=21 v=90
51648 Off ch=16 n=21 v=64
51648 On ch=16 n=21 v=90
51744 Off ch=16 n=21 v=64
51744 On ch=16 n=21 v=90
51936 Off ch=16 n=21 v=64
51936 On ch=16 n=21 v=90
52032 Off ch=16 n=21 v=64
52032 On ch=16 n=21 v=90
52128 Off ch=16 n=21 v=64
52128 On ch=16 n=21 v=90
52320 Off ch=16 n=21 v=64
52320 On ch=16 n=21 v=90
52416 Off ch=16 n=21 v=64
52416 On ch=16 n=21 v=90
52512 Off ch=16 n=21 v=64
52512 On ch=16 n=21 v=90
52608 Off ch=16 n=21 v=64
52608 On ch=16 n=21 v=90
52704 Off ch=16 n=21 v=64
52704 On ch=16 n=21 v=90
52800 Off ch=16 n=21 v=64
52800 On ch=16 n=21 v=90
52896 Off ch=16 n=21 v=64
52896 On ch=16 n=21 v=90
52992 Off ch=16 n=21 v=64
52992 On ch=16 n=21 v=90
53088 Off ch=16 n=21 v=64
53088 On ch=16 n=21 v=90
53184 Off ch=16 n=21 v=64
53184 On ch=16 n=21 v=90
53280 Off ch=16 n=21 v=64
53280 On ch=16 n=21 v=90
53376 Off ch=16 n=21 v=64
53376 On ch=16 n=21 v=90
53472 Off ch=16 n=21 v=64
53472 On ch=16 n=21 v=90
53568 Off ch=16 n=21 v=64
53568 On ch=16 n=21 v=90
53664 Off ch=16 n=21 v=64
53664 On ch=16 n=21 v=90
53760 Off ch=16 n=21 v=64
53760 On ch=16 n=21 v=90
53856 Off ch=16 n=21 v=64
53856 On ch=16 n=21 v=90
53952 Off ch=16 n=21 v=64
53952 On ch=16 n=21 v=90
54048 Off ch=16 n=21 v=64
54048 On ch=16 n=21 v=90
54144 Off ch=16 n=21 v=64
54144 On ch=16 n=21 v=90
54240 Off ch=16 n=21 v=64
54240 On ch=16 n=21 v=90
54336 Off ch=16 n=21 v=64
54336 On ch=16 n=21 v=90
54432 Off ch=16 n=21 v=64
54432 On ch=16 n=21 v=90
54528 Off ch=16 n=21 v=64
54528 On ch=16 n=21 v=90
54624 Off ch=16 n=21 v=64
54624 On ch=16 n=21 v=90
54720 Off ch=16 n=21 v=64
54720 On ch=16 n=21 v=90
54816 Off ch=16 n=21 v=64
54816 On ch=16 n=21 v=90
54912 Off ch=16 n=21 v=64
54912 On ch=16 n=21 v=90
55008 Off ch=16 n=21 v=64
55008 On ch=16 n=21 v=90
55104 Off ch=16 n=21 v=64
55104 On ch=16 n=21 v=90
55200 Off ch=16 n=21 v=64
55200 On ch=16 n=21 v=90
55296 Off ch=16 n=21 v=64
55296 On ch=16 n=21 v=90
55392 Off ch=16 n=21 v=64
55392 On ch=16 n=21 v=90
55440 Off ch=16 n=21 v=64
55440 On ch=16 n=21 v=90
55488 Off ch=16 n=21 v=64
55488 On ch=16 n=21 v=90
55584 Off ch=16 n=21 v=64
55584 On ch=16 n=21 v=90
55680 Off ch=16 n=21 v=64
55680 On ch=16 n=21 v=90
55776 Off ch=16 n=21 v=64
55776 On ch=16 n=21 v=90
55872 Off ch=16 n=21 v=64
55872 On ch=16 n=21 v=90
55968 Off ch=16 n=21 v=64
55968 On ch=16 n=21 v=90
56064 Off ch=16 n=21 v=64
56064 On ch=16 n=21 v=90
56160 Off ch=16 n=21 v=64
56160 On ch=16 n=21 v=90
56256 Off ch=16 n=21 v=64
56256 On ch=16 n=21 v=90
56352 Off ch=16 n=21 v=64
56352 On ch=16 n=21 v=90
56448 Off ch=16 n=21 v=64
56448 On ch=16 n=21 v=90
56544 Off ch=16 n=21 v=64
56544 On ch=16 n=21 v=90
56640 Off ch=16 n=21 v=64
56640 On ch=16 n=21 v=90
56736 Off ch=16 n=21 v=64
56736 On ch=16 n=21 v=90
56832 Off ch=16 n=21 v=64
56832 On ch=16 n=21 v=90
56928 Off ch=16 n=21 v=64
56928 On ch=16 n=21 v=90
57024 Off ch=16 n=21 v=64
57024 On ch=16 n=21 v=90
57120 Off ch=16 n=21 v=64
57120 On ch=16 n=21 v=90
57216 Off ch=16 n=21 v=64
57216 On ch=16 n=21 v=90
57312 Off ch=16 n=21 v=64
57312 On ch=16 n=21 v=90
57408 Off ch=16 n=21 v=64
57408 On ch=16 n=21 v=90
57504 Off ch=16 n=21 v=64
57504 On ch=16 n=21 v=90
57600 Off ch=16 n=21 v=64
57600 On ch=16 n=21 v=90
57696 Off ch=16 n=21 v=64
57696 On ch=16 n=21 v=90
57792 Off ch=16 n=21 v=64
57792 On ch=16 n=21 v=90
57888 Off ch=16 n=21 v=64
57888 On ch=16 n=21 v=90
57984 Off ch=16 n=21 v=64
57984 On ch=16 n=21 v=90
58080 Off ch=16 n=21 v=64
58080 On ch=16 n=21 v=90
58176 Off ch=16 n=21 v=64
58176 On ch=16 n=21 v=90
58272 Off ch=16 n=21 v=64
58272 On ch=16 n=21 v=90
58368 Off ch=16 n=21 v=64
58368 On ch=16 n=21 v=90
58464 Off ch=16 n=21 v=64
58464 On ch=16 n=21 v=90
58560 Off ch=16 n=21 v=64
58560 On ch=16 n=21 v=90
58656 Off ch=16 n=21 v=64
58656 On ch=16 n=21 v=90
58752 Off ch=16 n=21 v=64
58752 On ch=16 n=21 v=90
58848 Off ch=16 n=21 v=64
58848 On ch=16 n=21 v=90
58944 Off ch=16 n=21 v=64
58944 On ch=16 n=21 v=90
59040 Off ch=16 n=21 v=64
59040 On ch=16 n=21 v=90
59136 Off ch=16 n=21 v=64
59136 On ch=16 n=21 v=90
59232 Off ch=16 n=21 v=64
59232 On ch=16 n=21 v=90
59328 Off ch=16 n=21 v=64
59328 On ch=16 n=21 v=90
59424 Off ch=16 n=21 v=64
59424 On ch=16 n=21 v=90
59520 Off ch=16 n=21 v=64
59520 On ch=16 n=21 v=90
59616 Off ch=16 n=21 v=64
59616 On ch=16 n=21 v=90
59712 Off ch=16 n=21 v=64
59712 On ch=16 n=21 v=90
59808 Off ch=16 n=21 v=64
59808 On ch=16 n=21 v=90
59904 Off ch=16 n=21 v=64
59904 On ch=16 n=21 v=90
60000 Off ch=16 n=21 v=64
60000 On ch=16 n=21 v=90
60096 Off ch=16 n=21 v=64
60096 On ch=16 n=21 v=90
60192 Off ch=16 n=21 v=64
60192 On ch=16 n=21 v=90
60288 Off ch=16 n=21 v=64
60288 On ch=16 n=21 v=90
60384 Off ch=16 n=21 v=64
60384 On ch=16 n=21 v=90
60480 Off ch=16 n=21 v=64
60480 On ch=16 n=21 v=90
60576 Off ch=16 n=21 v=64
60576 On ch=16 n=21 v=90
60672 Off ch=16 n=21 v=64
60672 On ch=16 n=21 v=90
60768 Off ch=16 n=21 v=64
60768 On ch=16 n=21 v=90
60864 Off ch=16 n=21 v=64
60864 On ch=16 n=21 v=90
60960 Off ch=16 n=21 v=64
60960 On ch=16 n=21 v=90
61056 Off ch=16 n=21 v=64
61056 On ch=16 n=21 v=90
61152 Off ch=16 n=21 v=64
61152 On ch=16 n=21 v=90
61248 Off ch=16 n=21 v=64
61248 On ch=16 n=21 v=90
61344 Off ch=16 n=21 v=64
61344 On ch=16 n=21 v=90
61440 Off ch=16 n=21 v=64
61440 On ch=16 n=21 v=90
61488 Off ch=16 n=21 v=64
61488 On ch=16 n=21 v=90
61536 Off ch=16 n=21 v=64
61536 On ch=16 n=21 v=90
61632 Off ch=16 n=21 v=64
61632 On ch=16 n=21 v=90
61728 Off ch=16 n=21 v=64
61728 On ch=16 n=21 v=90
61824 Off ch=16 n=21 v=64
61824 On ch=16 n=21 v=90
61920 Off ch=16 n=21 v=64
65280 On ch=16 n=21 v=90
65376 Off ch=16 n=21 v=64
65376 On ch=16 n=21 v=90
65472 Off ch=16 n=21 v=64
65472 On ch=16 n=21 v=90
65568 Off ch=16 n=21 v=64
65568 On ch=16 n=21 v=90
65664 Off ch=16 n=21 v=64
65664 On ch=16 n=21 v=90
65760 Off ch=16 n=21 v=64
65760 On ch=16 n=21 v=90
65952 Off ch=16 n=21 v=64
65952 On ch=16 n=21 v=90
66144 Off ch=16 n=21 v=64
66144 On ch=16 n=21 v=90
66240 Off ch=16 n=21 v=64
66240 On ch=16 n=21 v=90
66336 Off ch=16 n=21 v=64
66336 On ch=16 n=21 v=90
66400 Off ch=16 n=21 v=64
66400 On ch=16 n=21 v=90
66464 Off ch=16 n=21 v=64
66464 On ch=16 n=21 v=90
66528 Off ch=16 n=21 v=64
66528 On ch=16 n=21 v=90
66624 Off ch=16 n=21 v=64
66624 On ch=16 n=21 v=90
66720 Off ch=16 n=21 v=64
66720 On ch=16 n=21 v=90
66816 Off ch=16 n=21 v=64
66816 On ch=16 n=21 v=90
66912 Off ch=16 n=21 v=64
66912 On ch=16 n=21 v=90
67008 Off ch=16 n=21 v=64
67008 On ch=16 n=21 v=90
67104 Off ch=16 n=21 v=64
67104 On ch=16 n=21 v=90
67200 Off ch=16 n=21 v=64
67200 On ch=16 n=21 v=90
67296 Off ch=16 n=21 v=64
67296 On ch=16 n=21 v=90
67392 Off ch=16 n=21 v=64
67392 On ch=16 n=21 v=90
67488 Off ch=16 n=21 v=64
67488 On ch=16 n=21 v=90
67584 Off ch=16 n=21 v=64
67584 On ch=16 n=21 v=90
67680 Off ch=16 n=21 v=64
67680 On ch=16 n=21 v=90
67728 Off ch=16 n=21 v=64
67728 On ch=16 n=21 v=90
67776 Off ch=16 n=21 v=64
67776 On ch=16 n=21 v=90
67872 Off ch=16 n=21 v=64
71424 On ch=16 n=21 v=90
71520 Off ch=16 n=21 v=64
71520 On ch=16 n=21 v=90
71616 Off ch=16 n=21 v=64
71616 On ch=16 n=21 v=90
71712 Off ch=16 n=21 v=64
71712 On ch=16 n=21 v=90
71808 Off ch=16 n=21 v=64
71808 On ch=16 n=21 v=90
71904 Off ch=16 n=21 v=64
71904 On ch=16 n=21 v=90
72096 Off ch=16 n=21 v=64
72096 On ch=16 n=21 v=90
72288 Off ch=16 n=21 v=64
72288 On ch=16 n=21 v=90
72384 Off ch=16 n=21 v=64
72384 On ch=16 n=21 v=90
72480 Off ch=16 n=21 v=64
72480 On ch=16 n=21 v=90
72544 Off ch=16 n=21 v=64
72544 On ch=16 n=21 v=90
72608 Off ch=16 n=21 v=64
72608 On ch=16 n=21 v=90
72672 Off ch=16 n=21 v=64
72672 On ch=16 n=21 v=90
72768 Off ch=16 n=21 v=64
72768 On ch=16 n=21 v=90
72864 Off ch=16 n=21 v=64
72864 On ch=16 n=21 v=90
72960 Off ch=16 n=21 v=64
72960 On ch=16 n=21 v=90
73056 Off ch=16 n=21 v=64
73056 On ch=16 n=21 v=90
73152 Off ch=16 n=21 v=64
73152 On ch=16 n=21 v=90
73248 Off ch=16 n=21 v=64
73248 On ch=16 n=21 v=90
73344 Off ch=16 n=21 v=64
73344 On ch=16 n=21 v=90
73440 Off ch=16 n=21 v=64
73440 On ch=16 n=21 v=90
73536 Off ch=16 n=21 v=64
73536 On ch=16 n=21 v=90
73632 Off ch=16 n=21 v=64
73632 On ch=16 n=21 v=90
73728 Off ch=16 n=21 v=64
73728 On ch=16 n=21 v=90
73824 Off ch=16 n=21 v=64
73824 On ch=16 n=21 v=90
73872 Off ch=16 n=21 v=64
73872 On ch=16 n=21 v=90
73920 Off ch=16 n=21 v=64
73920 On ch=16 n=21 v=90
74016 Off ch=16 n=21 v=64
77568 On ch=16 n=21 v=90
77664 Off ch=16 n=21 v=64
77664 On ch=16 n=21 v=90
77760 Off ch=16 n=21 v=64
77760 On ch=16 n=21 v=90
77856 Off ch=16 n=21 v=64
77856 On ch=16 n=21 v=90
77952 Off ch=16 n=21 v=64
77952 On ch=16 n=21 v=90
78048 Off ch=16 n=21 v=64
78048 On ch=16 n=21 v=90
78144 Off ch=16 n=21 v=64
78144 On ch=16 n=21 v=90
78240 Off ch=16 n=21 v=64
78240 On ch=16 n=21 v=90
78336 Off ch=16 n=21 v=64
78336 On ch=16 n=21 v=90
78432 Off ch=16 n=21 v=64
78432 On ch=16 n=21 v=90
78528 Off ch=16 n=21 v=64
78528 On ch=16 n=21 v=90
78624 Off ch=16 n=21 v=64
78624 On ch=16 n=21 v=90
78688 Off ch=16 n=21 v=64
78688 On ch=16 n=21 v=90
78752 Off ch=16 n=21 v=64
78752 On ch=16 n=21 v=90
78816 Off ch=16 n=21 v=64
78816 On ch=16 n=21 v=90
78912 Off ch=16 n=21 v=64
78912 On ch=16 n=21 v=90
79008 Off ch=16 n=21 v=64
79008 On ch=16 n=21 v=90
79104 Off ch=16 n=21 v=64
79104 On ch=16 n=21 v=90
79200 Off ch=16 n=21 v=64
79200 On ch=16 n=21 v=90
79296 Off ch=16 n=21 v=64
79296 On ch=16 n=21 v=90
79392 Off ch=16 n=21 v=64
79392 On ch=16 n=21 v=90
79488 Off ch=16 n=21 v=64
79488 On ch=16 n=21 v=90
79584 Off ch=16 n=21 v=64
79584 On ch=16 n=21 v=90
79680 Off ch=16 n=21 v=64
79680 On ch=16 n=21 v=90
79776 Off ch=16 n=21 v=64
79776 On ch=16 n=21 v=90
79872 Off ch=16 n=21 v=64
79872 On ch=16 n=21 v=90
79968 Off ch=16 n=21 v=64
79968 On ch=16 n=21 v=90
80064 Off ch=16 n=21 v=64
80064 On ch=16 n=21 v=90
80160 Off ch=16 n=21 v=64
80160 On ch=16 n=21 v=90
80256 Off ch=16 n=21 v=64
80256 On ch=16 n=21 v=90
80352 Off ch=16 n=21 v=64
80352 On ch=16 n=21 v=90
80448 Off ch=16 n=21 v=64
80448 On ch=16 n=21 v=90
80544 Off ch=16 n=21 v=64
80544 On ch=16 n=21 v=90
80640 Off ch=16 n=21 v=64
80640 On ch=16 n=21 v=90
80736 Off ch=16 n=21 v=64
80736 On ch=16 n=21 v=90
80832 Off ch=16 n=21 v=64
80832 On ch=16 n=21 v=90
80928 Off ch=16 n=21 v=64
80928 On ch=16 n=21 v=90
81024 Off ch=16 n=21 v=64
81024 On ch=16 n=21 v=90
81120 Off ch=16 n=21 v=64
81120 On ch=16 n=21 v=90
81216 Off ch=16 n=21 v=64
81216 On ch=16 n=21 v=90
81312 Off ch=16 n=21 v=64
81312 On ch=16 n=21 v=90
81408 Off ch=16 n=21 v=64
81408 On ch=16 n=21 v=90
81504 Off ch=16 n=21 v=64
81504 On ch=16 n=21 v=90
81600 Off ch=16 n=21 v=64
81600 On ch=16 n=21 v=90
81696 Off ch=16 n=21 v=64
81696 On ch=16 n=21 v=90
81792 Off ch=16 n=21 v=64
81792 On ch=16 n=21 v=90
81888 Off ch=16 n=21 v=64
81888 On ch=16 n=21 v=90
81984 Off ch=16 n=21 v=64
81984 On ch=16 n=21 v=90
82080 Off ch=16 n=21 v=64
82080 On ch=16 n=21 v=90
82176 Off ch=16 n=21 v=64
82176 On ch=16 n=21 v=90
82272 Off ch=16 n=21 v=64
82272 On ch=16 n=21 v=90
82368 Off ch=16 n=21 v=64
82368 On ch=16 n=21 v=90
82464 Off ch=16 n=21 v=64
82464 On ch=16 n=21 v=90
82560 Off ch=16 n=21 v=64
82560 On ch=16 n=21 v=90
82656 Off ch=16 n=21 v=64
82656 On ch=16 n=21 v=90
82752 Off ch=16 n=21 v=64
82752 On ch=16 n=21 v=90
82848 Off ch=16 n=21 v=64
82848 On ch=16 n=21 v=90
82944 Off ch=16 n=21 v=64
82944 On ch=16 n=21 v=90
83040 Off ch=16 n=21 v=64
83040 On ch=16 n=21 v=90
83136 Off ch=16 n=21 v=64
83136 On ch=16 n=21 v=90
83232 Off ch=16 n=21 v=64
83232 On ch=16 n=21 v=90
83328 Off ch=16 n=21 v=64
83328 On ch=16 n=21 v=90
83424 Off ch=16 n=21 v=64
83424 On ch=16 n=21 v=90
83520 Off ch=16 n=21 v=64
83520 On ch=16 n=21 v=90
83616 Off ch=16 n=21 v=64
83616 On ch=16 n=21 v=90
83712 Off ch=16 n=21 v=64
83712 On ch=16 n=21 v=90
83808 Off ch=16 n=21 v=64
83808 On ch=16 n=21 v=90
83904 Off ch=16 n=21 v=64
83904 On ch=16 n=21 v=90
84000 Off ch=16 n=21 v=64
84000 On ch=16 n=21 v=90
84096 Off ch=16 n=21 v=64
84096 On ch=16 n=21 v=90
84192 Off ch=16 n=21 v=64
84192 On ch=16 n=21 v=90
84288 Off ch=16 n=21 v=64
84288 On ch=16 n=21 v=90
84384 Off ch=16 n=21 v=64
84384 On ch=16 n=21 v=90
84480 Off ch=16 n=21 v=64
84480 On ch=16 n=21 v=90
84576 Off ch=16 n=21 v=64
84576 On ch=16 n=21 v=90
84672 Off ch=16 n=21 v=64
84672 On ch=16 n=21 v=90
84768 Off ch=16 n=21 v=64
84768 On ch=16 n=21 v=90
84832 Off ch=16 n=21 v=64
84832 On ch=16 n=21 v=90
84896 Off ch=16 n=21 v=64
84896 On ch=16 n=21 v=90
84960 Off ch=16 n=21 v=64
84960 On ch=16 n=21 v=90
85056 Off ch=16 n=21 v=64
85056 On ch=16 n=21 v=90
85152 Off ch=16 n=21 v=64
85152 On ch=16 n=21 v=90
85248 Off ch=16 n=21 v=64
85248 On ch=16 n=21 v=90
85344 Off ch=16 n=21 v=64
85344 On ch=16 n=21 v=90
85440 Off ch=16 n=21 v=64
85440 On ch=16 n=21 v=90
85536 Off ch=16 n=21 v=64
85536 On ch=16 n=21 v=90
85632 Off ch=16 n=21 v=64
85632 On ch=16 n=21 v=90
85728 Off ch=16 n=21 v=64
85728 On ch=16 n=21 v=90
85824 Off ch=16 n=21 v=64
85824 On ch=16 n=21 v=90
85920 Off ch=16 n=21 v=64
85920 On ch=16 n=21 v=90
86016 Off ch=16 n=21 v=64
86016 On ch=16 n=21 v=90
86112 Off ch=16 n=21 v=64
86112 On ch=16 n=21 v=90
86208 Off ch=16 n=21 v=64
86208 On ch=16 n=21 v=90
86304 Off ch=16 n=21 v=64
86304 On ch=16 n=21 v=90
86400 Off ch=16 n=21 v=64
86400 On ch=16 n=21 v=90
86496 Off ch=16 n=21 v=64
86496 On ch=16 n=21 v=90
86688 Off ch=16 n=21 v=64
86688 On ch=16 n=21 v=90
86784 Off ch=16 n=21 v=64
86784 On ch=16 n=21 v=90
86880 Off ch=16 n=21 v=64
86880 On ch=16 n=21 v=90
86976 Off ch=16 n=21 v=64
86976 On ch=16 n=21 v=90
87072 Off ch=16 n=21 v=64
92928 On ch=16 n=22 v=90
93024 Off ch=16 n=22 v=64
96384 On ch=16 n=21 v=90
96480 Off ch=16 n=21 v=64
96480 On ch=16 n=21 v=90
96576 Off ch=16 n=21 v=64
96576 On ch=16 n=21 v=90
96672 Off ch=16 n=21 v=64
96672 On ch=16 n=21 v=90
96768 Off ch=16 n=21 v=64
96768 On ch=16 n=21 v=90
96864 Off ch=16 n=21 v=64
96864 On ch=16 n=21 v=90
97056 Off ch=16 n=21 v=64
97056 On ch=16 n=21 v=90
97248 Off ch=16 n=21 v=64
97248 On ch=16 n=21 v=90
97344 Off ch=16 n=21 v=64
97344 On ch=16 n=21 v=90
97440 Off ch=16 n=21 v=64
97440 On ch=16 n=21 v=90
97504 Off ch=16 n=21 v=64
97504 On ch=16 n=21 v=90
97568 Off ch=16 n=21 v=64
97568 On ch=16 n=21 v=90
97632 Off ch=16 n=21 v=64
97632 On ch=16 n=21 v=90
97728 Off ch=16 n=21 v=64
97728 On ch=16 n=21 v=90
97824 Off ch=16 n=21 v=64
97824 On ch=16 n=21 v=90
97920 Off ch=16 n=21 v=64
97920 On ch=16 n=21 v=90
98016 Off ch=16 n=21 v=64
98016 On ch=16 n=21 v=90
98112 Off ch=16 n=21 v=64
98112 On ch=16 n=21 v=90
98208 Off ch=16 n=21 v=64
98208 On ch=16 n=21 v=90
98304 Off ch=16 n=21 v=64
98304 On ch=16 n=21 v=90
98400 Off ch=16 n=21 v=64
98400 On ch=16 n=21 v=90
98496 Off ch=16 n=21 v=64
98496 On ch=16 n=21 v=90
98592 Off ch=16 n=21 v=64
98592 On ch=16 n=21 v=90
98688 Off ch=16 n=21 v=64
98688 On ch=16 n=21 v=90
98784 Off ch=16 n=21 v=64
98784 On ch=16 n=21 v=90
98832 Off ch=16 n=21 v=64
98832 On ch=16 n=21 v=90
98880 Off ch=16 n=21 v=64
98880 On ch=16 n=21 v=90
98976 Off ch=16 n=21 v=64
102528 On ch=16 n=21 v=90
102624 Off ch=16 n=21 v=64
102624 On ch=16 n=21 v=90
102720 Off ch=16 n=21 v=64
102720 On ch=16 n=21 v=90
102816 Off ch=16 n=21 v=64
102816 On ch=16 n=21 v=90
102912 Off ch=16 n=21 v=64
102912 On ch=16 n=21 v=90
103008 Off ch=16 n=21 v=64
103008 On ch=16 n=21 v=90
103200 Off ch=16 n=21 v=64
103200 On ch=16 n=21 v=90
103392 Off ch=16 n=21 v=64
103392 On ch=16 n=21 v=90
103488 Off ch=16 n=21 v=64
103488 On ch=16 n=21 v=90
103584 Off ch=16 n=21 v=64
103584 On ch=16 n=21 v=90
103648 Off ch=16 n=21 v=64
103648 On ch=16 n=21 v=90
103712 Off ch=16 n=21 v=64
103712 On ch=16 n=21 v=90
103776 Off ch=16 n=21 v=64
103776 On ch=16 n=21 v=90
103872 Off ch=16 n=21 v=64
103872 On ch=16 n=21 v=90
103968 Off ch=16 n=21 v=64
103968 On ch=16 n=21 v=90
104064 Off ch=16 n=21 v=64
104064 On ch=16 n=21 v=90
104160 Off ch=16 n=21 v=64
104160 On ch=16 n=21 v=90
104256 Off ch=16 n=21 v=64
104256 On ch=16 n=21 v=90
104352 Off ch=16 n=21 v=64
104352 On ch=16 n=21 v=90
104448 Off ch=16 n=21 v=64
104448 On ch=16 n=21 v=90
104544 Off ch=16 n=21 v=64
104544 On ch=16 n=21 v=90
104640 Off ch=16 n=21 v=64
104640 On ch=16 n=21 v=90
104736 Off ch=16 n=21 v=64
104736 On ch=16 n=21 v=90
104832 Off ch=16 n=21 v=64
104832 On ch=16 n=21 v=90
104928 Off ch=16 n=21 v=64
104928 On ch=16 n=21 v=90
104976 Off ch=16 n=21 v=64
104976 On ch=16 n=21 v=90
105024 Off ch=16 n=21 v=64
105024 On ch=16 n=21 v=90
105120 Off ch=16 n=21 v=64
105312 On ch=16 n=21 v=90
105408 Off ch=16 n=21 v=64
105408 On ch=16 n=21 v=90
105504 Off ch=16 n=21 v=64
105504 On ch=16 n=21 v=90
105600 Off ch=16 n=21 v=64
105600 On ch=16 n=21 v=90
105696 Off ch=16 n=21 v=64
105696 On ch=16 n=21 v=90
105792 Off ch=16 n=21 v=64
105792 On ch=16 n=21 v=90
105888 Off ch=16 n=21 v=64
105888 On ch=16 n=21 v=90
105984 Off ch=16 n=21 v=64
105984 On ch=16 n=21 v=90
106080 Off ch=16 n=21 v=64
106080 On ch=16 n=21 v=90
106176 Off ch=16 n=21 v=64
106176 On ch=16 n=21 v=90
106272 Off ch=16 n=21 v=64
106272 On ch=16 n=21 v=90
106368 Off ch=16 n=21 v=64
106368 On ch=16 n=21 v=90
106464 Off ch=16 n=21 v=64
106464 On ch=16 n=21 v=90
106560 Off ch=16 n=21 v=64
106560 On ch=16 n=21 v=90
106656 Off ch=16 n=21 v=64
106656 On ch=16 n=21 v=90
106752 Off ch=16 n=21 v=64
106752 On ch=16 n=21 v=90
106848 Off ch=16 n=21 v=64
106848 On ch=16 n=21 v=90
106944 Off ch=16 n=21 v=64
106944 On ch=16 n=21 v=90
107040 Off ch=16 n=21 v=64
107040 On ch=16 n=21 v=90
107136 Off ch=16 n=21 v=64
107136 On ch=16 n=21 v=90
107232 Off ch=16 n=21 v=64
107232 On ch=16 n=21 v=90
107328 Off ch=16 n=21 v=64
107328 On ch=16 n=21 v=90
107424 Off ch=16 n=21 v=64
107424 On ch=16 n=21 v=90
107520 Off ch=16 n=21 v=64
107520 On ch=16 n=21 v=90
107616 Off ch=16 n=21 v=64
107616 On ch=16 n=21 v=90
107712 Off ch=16 n=21 v=64
107712 On ch=16 n=21 v=90
107808 Off ch=16 n=21 v=64
107808 On ch=16 n=21 v=90
107904 Off ch=16 n=21 v=64
107904 On ch=16 n=21 v=90
108000 Off ch=16 n=21 v=64
108000 On ch=16 n=21 v=90
108096 Off ch=16 n=21 v=64
108096 On ch=16 n=21 v=90
108192 Off ch=16 n=21 v=64
108192 On ch=16 n=21 v=90
108288 Off ch=16 n=21 v=64
108288 On ch=16 n=21 v=90
108384 Off ch=16 n=21 v=64
108384 On ch=16 n=21 v=90
108480 Off ch=16 n=21 v=64
108480 On ch=16 n=21 v=90
108576 Off ch=16 n=21 v=64
108576 On ch=16 n=21 v=90
108672 Off ch=16 n=21 v=64
108672 On ch=16 n=21 v=90
108768 Off ch=16 n=21 v=64
108768 On ch=16 n=21 v=90
108864 Off ch=16 n=21 v=64
108864 On ch=16 n=21 v=90
108960 Off ch=16 n=21 v=64
108960 On ch=16 n=21 v=90
109056 Off ch=16 n=21 v=64
109056 On ch=16 n=21 v=90
109152 Off ch=16 n=21 v=64
109152 On ch=16 n=21 v=90
109248 Off ch=16 n=21 v=64
109248 On ch=16 n=21 v=90
109344 Off ch=16 n=21 v=64
109344 On ch=16 n=21 v=90
109440 Off ch=16 n=21 v=64
109440 On ch=16 n=21 v=90
109536 Off ch=16 n=21 v=64
109536 On ch=16 n=21 v=90
109632 Off ch=16 n=21 v=64
109632 On ch=16 n=21 v=90
109728 Off ch=16 n=21 v=64
109728 On ch=16 n=21 v=90
109824 Off ch=16 n=21 v=64
109824 On ch=16 n=21 v=90
109920 Off ch=16 n=21 v=64
109920 On ch=16 n=21 v=90
110016 Off ch=16 n=21 v=64
110016 On ch=16 n=21 v=90
110112 Off ch=16 n=21 v=64
110112 On ch=16 n=21 v=90
110208 Off ch=16 n=21 v=64
110208 On ch=16 n=21 v=90
110304 Off ch=16 n=21 v=64
110304 On ch=16 n=21 v=90
110400 Off ch=16 n=21 v=64
110400 On ch=16 n=21 v=90
110496 Off ch=16 n=21 v=64
110496 On ch=16 n=21 v=90
110592 Off ch=16 n=21 v=64
110592 On ch=16 n=21 v=90
110688 Off ch=16 n=21 v=64
110688 On ch=16 n=21 v=90
110784 Off ch=16 n=21 v=64
110784 On ch=16 n=21 v=90
110880 Off ch=16 n=21 v=64
110880 On ch=16 n=21 v=90
110976 Off ch=16 n=21 v=64
110976 On ch=16 n=21 v=90
111072 Off ch=16 n=21 v=64
111072 On ch=16 n=21 v=90
111168 Off ch=16 n=21 v=64
111168 On ch=16 n=21 v=90
111264 Off ch=16 n=21 v=64
111264 On ch=16 n=21 v=90
111360 Off ch=16 n=21 v=64
111360 On ch=16 n=21 v=90
111456 Off ch=16 n=21 v=64
111456 On ch=16 n=21 v=90
111504 Off ch=16 n=21 v=64
111504 On ch=16 n=21 v=90
111552 Off ch=16 n=21 v=64
111552 On ch=16 n=21 v=90
111648 Off ch=16 n=21 v=64
111648 On ch=16 n=21 v=90
111840 Off ch=16 n=21 v=64
111840 On ch=16 n=21 v=90
112032 Off ch=16 n=21 v=64
112032 On ch=16 n=21 v=90
112320 Off ch=16 n=21 v=64
112320 On ch=16 n=21 v=90
112416 Off ch=16 n=21 v=64
112416 On ch=16 n=21 v=90
112512 Off ch=16 n=21 v=64
112512 On ch=16 n=21 v=90
112608 Off ch=16 n=21 v=64
112608 On ch=16 n=21 v=90
112800 Off ch=16 n=21 v=64
112800 On ch=16 n=21 v=90
112992 Off ch=16 n=21 v=64
112992 On ch=16 n=21 v=90
113088 Off ch=16 n=21 v=64
113088 On ch=16 n=21 v=90
113184 Off ch=16 n=21 v=64
113184 On ch=16 n=21 v=90
113280 Off ch=16 n=21 v=64
113280 On ch=16 n=21 v=90
113376 Off ch=16 n=21 v=64
113376 On ch=16 n=21 v=90
113568 Off ch=16 n=21 v=64
113568 On ch=16 n=21 v=90
113760 Off ch=16 n=21 v=64
113760 On ch=16 n=21 v=90
113856 Off ch=16 n=21 v=64
113856 On ch=16 n=21 v=90
113952 Off ch=16 n=21 v=64
113952 On ch=16 n=21 v=90
114144 Off ch=16 n=21 v=64
114144 On ch=16 n=21 v=90
114240 Off ch=16 n=21 v=64
114240 On ch=16 n=21 v=90
114336 Off ch=16 n=21 v=64
114336 On ch=16 n=21 v=90
114528 Off ch=16 n=21 v=64
114528 On ch=16 n=21 v=90
114624 Off ch=16 n=21 v=64
114624 On ch=16 n=21 v=90
114720 Off ch=16 n=21 v=64
114720 On ch=16 n=21 v=90
114816 Off ch=16 n=21 v=64
114816 On ch=16 n=21 v=90
114912 Off ch=16 n=21 v=64
114912 On ch=16 n=21 v=90
115008 Off ch=16 n=21 v=64
115008 On ch=16 n=21 v=90
115104 Off ch=16 n=21 v=64
115104 On ch=16 n=21 v=90
115200 Off ch=16 n=21 v=64
115200 On ch=16 n=21 v=90
115296 Off ch=16 n=21 v=64
115296 On ch=16 n=21 v=90
115392 Off ch=16 n=21 v=64
115392 On ch=16 n=21 v=90
115488 Off ch=16 n=21 v=64
115488 On ch=16 n=21 v=90
115584 Off ch=16 n=21 v=64
115584 On ch=16 n=21 v=90
115680 Off ch=16 n=21 v=64
115680 On ch=16 n=21 v=90
115776 Off ch=16 n=21 v=64
115776 On ch=16 n=21 v=90
115872 Off ch=16 n=21 v=64
115872 On ch=16 n=21 v=90
115968 Off ch=16 n=21 v=64
115968 On ch=16 n=21 v=90
116064 Off ch=16 n=21 v=64
116064 On ch=16 n=21 v=90
116160 Off ch=16 n=21 v=64
116160 On ch=16 n=21 v=90
116256 Off ch=16 n=21 v=64
116256 On ch=16 n=21 v=90
116352 Off ch=16 n=21 v=64
116352 On ch=16 n=21 v=90
116448 Off ch=16 n=21 v=64
116448 On ch=16 n=21 v=90
116544 Off ch=16 n=21 v=64
116544 On ch=16 n=21 v=90
116640 Off ch=16 n=21 v=64
116640 On ch=16 n=21 v=90
116736 Off ch=16 n=21 v=64
116736 On ch=16 n=21 v=90
116832 Off ch=16 n=21 v=64
116832 On ch=16 n=21 v=90
116928 Off ch=16 n=21 v=64
116928 On ch=16 n=21 v=90
117024 Off ch=16 n=21 v=64
117024 On ch=16 n=21 v=90
117120 Off ch=16 n=21 v=64
117120 On ch=16 n=21 v=90
117216 Off ch=16 n=21 v=64
117216 On ch=16 n=21 v=90
117312 Off ch=16 n=21 v=64
117312 On ch=16 n=21 v=90
117408 Off ch=16 n=21 v=64
117408 On ch=16 n=21 v=90
117504 Off ch=16 n=21 v=64
117504 On ch=16 n=21 v=90
117600 Off ch=16 n=21 v=64
117600 On ch=16 n=21 v=90
117696 Off ch=16 n=21 v=64
117696 On ch=16 n=21 v=90
117792 Off ch=16 n=21 v=64
117792 On ch=16 n=21 v=90
117888 Off ch=16 n=21 v=64
117888 On ch=16 n=21 v=90
117984 Off ch=16 n=21 v=64
117984 On ch=16 n=21 v=90
118080 Off ch=16 n=21 v=64
118080 On ch=16 n=21 v=90
118176 Off ch=16 n=21 v=64
118176 On ch=16 n=21 v=90
118272 Off ch=16 n=21 v=64
118272 On ch=16 n=21 v=90
118368 Off ch=16 n=21 v=64
118368 On ch=16 n=21 v=90
118464 Off ch=16 n=21 v=64
118464 On ch=16 n=21 v=90
118560 Off ch=16 n=21 v=64
118560 On ch=16 n=21 v=90
118656 Off ch=16 n=21 v=64
118656 On ch=16 n=21 v=90
118752 Off ch=16 n=21 v=64
118752 On ch=16 n=21 v=90
118848 Off ch=16 n=21 v=64
118848 On ch=16 n=21 v=90
118944 Off ch=16 n=21 v=64
118944 On ch=16 n=21 v=90
119040 Off ch=16 n=21 v=64
119040 On ch=16 n=21 v=90
119136 Off ch=16 n=21 v=64
119136 On ch=16 n=21 v=90
119232 Off ch=16 n=21 v=64
119232 On ch=16 n=21 v=90
119328 Off ch=16 n=21 v=64
119328 On ch=16 n=21 v=90
119424 Off ch=16 n=21 v=64
119424 On ch=16 n=21 v=90
119520 Off ch=16 n=21 v=64
119520 On ch=16 n=21 v=90
119616 Off ch=16 n=21 v=64
119616 On ch=16 n=21 v=90
119712 Off ch=16 n=21 v=64
119712 On ch=16 n=21 v=90
119808 Off ch=16 n=21 v=64
119808 On ch=16 n=21 v=90
119904 Off ch=16 n=21 v=64
119904 On ch=16 n=21 v=90
120000 Off ch=16 n=21 v=64
120000 On ch=16 n=21 v=90
120096 Off ch=16 n=21 v=64
120096 On ch=16 n=21 v=90
120192 Off ch=16 n=21 v=64
120192 On ch=16 n=21 v=90
120288 Off ch=16 n=21 v=64
120288 On ch=16 n=21 v=90
120384 Off ch=16 n=21 v=64
120384 On ch=16 n=21 v=90
120480 Off ch=16 n=21 v=64
120480 On ch=16 n=21 v=90
120576 Off ch=16 n=21 v=64
120576 On ch=16 n=21 v=90
120672 Off ch=16 n=21 v=64
120672 On ch=16 n=21 v=90
120768 Off ch=16 n=21 v=64
120768 On ch=16 n=21 v=90
120864 Off ch=16 n=21 v=64
120864 On ch=16 n=21 v=90
120960 Off ch=16 n=21 v=64
120960 On ch=16 n=21 v=90
121056 Off ch=16 n=21 v=64
121056 On ch=16 n=21 v=90
121152 Off ch=16 n=21 v=64
121152 On ch=16 n=21 v=90
121248 Off ch=16 n=21 v=64
121248 On ch=16 n=21 v=90
121344 Off ch=16 n=21 v=64
121344 On ch=16 n=21 v=90
121440 Off ch=16 n=21 v=64
121440 On ch=16 n=21 v=90
121536 Off ch=16 n=21 v=64
121536 On ch=16 n=21 v=90
121632 Off ch=16 n=21 v=64
121632 On ch=16 n=21 v=90
121728 Off ch=16 n=21 v=64
121728 On ch=16 n=21 v=90
121824 Off ch=16 n=21 v=64
121824 On ch=16 n=21 v=90
121920 Off ch=16 n=21 v=64
121920 On ch=16 n=21 v=90
122016 Off ch=16 n=21 v=64
122016 On ch=16 n=21 v=90
122112 Off ch=16 n=21 v=64
122112 On ch=16 n=21 v=90
122208 Off ch=16 n=21 v=64
122208 On ch=16 n=21 v=90
122304 Off ch=16 n=21 v=64
122304 On ch=16 n=21 v=90
122400 Off ch=16 n=21 v=64
122400 On ch=16 n=21 v=90
122496 Off ch=16 n=21 v=64
122496 On ch=16 n=21 v=90
122592 Off ch=16 n=21 v=64
122592 On ch=16 n=21 v=90
122688 Off ch=16 n=21 v=64
122688 On ch=16 n=21 v=90
122784 Off ch=16 n=21 v=64
122784 On ch=16 n=21 v=90
122880 Off ch=16 n=21 v=64
122880 On ch=16 n=21 v=90
122976 Off ch=16 n=21 v=64
122976 On ch=16 n=21 v=90
123072 Off ch=16 n=21 v=64
123072 On ch=16 n=21 v=90
123168 Off ch=16 n=21 v=64
123168 On ch=16 n=21 v=90
123264 Off ch=16 n=21 v=64
123264 On ch=16 n=21 v=90
123360 Off ch=16 n=21 v=64
123360 On ch=16 n=21 v=90
123456 Off ch=16 n=21 v=64
123456 On ch=16 n=21 v=90
123552 Off ch=16 n=21 v=64
123552 On ch=16 n=21 v=90
123648 Off ch=16 n=21 v=64
123648 On ch=16 n=21 v=90
123744 Off ch=16 n=21 v=64
123744 On ch=16 n=21 v=90
123840 Off ch=16 n=21 v=64
123840 On ch=16 n=21 v=90
123936 Off ch=16 n=21 v=64
123936 On ch=16 n=21 v=90
124032 Off ch=16 n=21 v=64
124032 On ch=16 n=21 v=90
124128 Off ch=16 n=21 v=64
124128 On ch=16 n=21 v=90
124224 Off ch=16 n=21 v=64
124224 On ch=16 n=21 v=90
124320 Off ch=16 n=21 v=64
124320 On ch=16 n=21 v=90
124416 Off ch=16 n=21 v=64
124416 On ch=16 n=21 v=90
124512 Off ch=16 n=21 v=64
124512 On ch=16 n=21 v=90
124608 Off ch=16 n=21 v=64
124608 On ch=16 n=21 v=90
124704 Off ch=16 n=21 v=64
124704 On ch=16 n=21 v=90
124800 Off ch=16 n=21 v=64
124800 On ch=16 n=21 v=90
124896 Off ch=16 n=21 v=64
124896 On ch=16 n=21 v=90
124992 Off ch=16 n=21 v=64
124992 On ch=16 n=21 v=90
125088 Off ch=16 n=21 v=64
125088 On ch=16 n=21 v=90
125184 Off ch=16 n=21 v=64
125184 On ch=16 n=21 v=90
125280 Off ch=16 n=21 v=64
125280 On ch=16 n=21 v=90
125376 Off ch=16 n=21 v=64
125376 On ch=16 n=21 v=90
125472 Off ch=16 n=21 v=64
125472 On ch=16 n=21 v=90
125568 Off ch=16 n=21 v=64
125568 On ch=16 n=21 v=90
125664 Off ch=16 n=21 v=64
125664 On ch=16 n=21 v=90
125760 Off ch=16 n=21 v=64
125760 On ch=16 n=21 v=90
125856 Off ch=16 n=21 v=64
125856 On ch=16 n=21 v=90
125952 Off ch=16 n=21 v=64
125952 On ch=16 n=21 v=90
126048 Off ch=16 n=21 v=64
126048 On ch=16 n=21 v=90
126144 Off ch=16 n=21 v=64
126144 On ch=16 n=21 v=90
126240 Off ch=16 n=21 v=64
126240 On ch=16 n=21 v=90
126336 Off ch=16 n=21 v=64
126336 On ch=16 n=21 v=90
126432 Off ch=16 n=21 v=64
126432 On ch=16 n=21 v=90
126528 Off ch=16 n=21 v=64
126528 On ch=16 n=21 v=90
126624 Off ch=16 n=21 v=64
126624 On ch=16 n=21 v=90
126720 Off ch=16 n=21 v=64
126720 On ch=16 n=21 v=90
126816 Off ch=16 n=21 v=64
126816 On ch=16 n=21 v=90
126912 Off ch=16 n=21 v=64
126912 On ch=16 n=21 v=90
127008 Off ch=16 n=21 v=64
127008 On ch=16 n=21 v=90
127104 Off ch=16 n=21 v=64
127104 On ch=16 n=21 v=90
127200 Off ch=16 n=21 v=64
127200 On ch=16 n=21 v=90
127296 Off ch=16 n=21 v=64
127296 On ch=16 n=21 v=90
127392 Off ch=16 n=21 v=64
127392 On ch=16 n=21 v=90
127488 Off ch=16 n=21 v=64
127488 On ch=16 n=21 v=90
127584 Off ch=16 n=21 v=64
127584 On ch=16 n=21 v=90
127680 Off ch=16 n=21 v=64
127680 On ch=16 n=21 v=90
127776 Off ch=16 n=21 v=64
127776 On ch=16 n=21 v=90
127872 Off ch=16 n=21 v=64
127872 On ch=16 n=21 v=90
127968 Off ch=16 n=21 v=64
127968 On ch=16 n=21 v=90
128064 Off ch=16 n=21 v=64
128064 On ch=16 n=21 v=90
128160 Off ch=16 n=21 v=64
128160 On ch=16 n=21 v=90
128256 Off ch=16 n=21 v=64
128256 On ch=16 n=21 v=90
128352 Off ch=16 n=21 v=64
128352 On ch=16 n=21 v=90
128448 Off ch=16 n=21 v=64
128448 On ch=16 n=21 v=90
128544 Off ch=16 n=21 v=64
128544 On ch=16 n=21 v=90
128640 Off ch=16 n=21 v=64
128640 On ch=16 n=21 v=90
128736 Off ch=16 n=21 v=64
128736 On ch=16 n=21 v=90
128832 Off ch=16 n=21 v=64
128832 On ch=16 n=21 v=90
128928 Off ch=16 n=21 v=64
128928 On ch=16 n=21 v=90
129024 Off ch=16 n=21 v=64
129024 On ch=16 n=21 v=90
129120 Off ch=16 n=21 v=64
129120 On ch=16 n=21 v=90
129216 Off ch=16 n=21 v=64
129216 On ch=16 n=21 v=90
129312 Off ch=16 n=21 v=64
129312 On ch=16 n=21 v=90
129408 Off ch=16 n=21 v=64
129408 On ch=16 n=21 v=90
129504 Off ch=16 n=21 v=64
129504 On ch=16 n=21 v=90
129600 Off ch=16 n=21 v=64
129600 On ch=16 n=21 v=90
129696 Off ch=16 n=21 v=64
129696 On ch=16 n=21 v=90
129792 Off ch=16 n=21 v=64
129792 On ch=16 n=21 v=90
129888 Off ch=16 n=21 v=64
129888 On ch=16 n=21 v=90
129984 Off ch=16 n=21 v=64
129984 On ch=16 n=21 v=90
130080 Off ch=16 n=21 v=64
130080 On ch=16 n=21 v=90
130176 Off ch=16 n=21 v=64
130176 On ch=16 n=21 v=90
130272 Off ch=16 n=21 v=64
130272 On ch=16 n=21 v=90
130368 Off ch=16 n=21 v=64
130368 On ch=16 n=21 v=90
130464 Off ch=16 n=21 v=64
130464 On ch=16 n=21 v=90
130560 Off ch=16 n=21 v=64
130560 On ch=16 n=21 v=90
130656 Off ch=16 n=21 v=64
130656 On ch=16 n=21 v=90
130752 Off ch=16 n=21 v=64
130752 On ch=16 n=21 v=90
130848 Off ch=16 n=21 v=64
130848 On ch=16 n=21 v=90
130944 Off ch=16 n=21 v=64
130944 On ch=16 n=21 v=90
131040 Off ch=16 n=21 v=64
131040 On ch=16 n=21 v=90
131136 Off ch=16 n=21 v=64
131136 On ch=16 n=21 v=90
131232 Off ch=16 n=21 v=64
131232 On ch=16 n=21 v=90
131328 Off ch=16 n=21 v=64
131328 On ch=16 n=21 v=90
131424 Off ch=16 n=21 v=64
131424 On ch=16 n=21 v=90
131520 Off ch=16 n=21 v=64
131520 On ch=16 n=21 v=90
131616 Off ch=16 n=21 v=64
131616 On ch=16 n=21 v=90
131712 Off ch=16 n=21 v=64
131712 On ch=16 n=21 v=90
131808 Off ch=16 n=21 v=64
131808 On ch=16 n=21 v=90
131904 Off ch=16 n=21 v=64
131904 On ch=16 n=21 v=90
132000 Off ch=16 n=21 v=64
132000 On ch=16 n=21 v=90
132096 Off ch=16 n=21 v=64
132096 On ch=16 n=21 v=90
132192 Off ch=16 n=21 v=64
132192 On ch=16 n=21 v=90
132288 Off ch=16 n=21 v=64
132288 On ch=16 n=21 v=90
132384 Off ch=16 n=21 v=64
132384 On ch=16 n=21 v=90
132480 Off ch=16 n=21 v=64
132480 On ch=16 n=21 v=90
132576 Off ch=16 n=21 v=64
132576 On ch=16 n=21 v=90
132672 Off ch=16 n=21 v=64
132672 On ch=16 n=21 v=90
132768 Off ch=16 n=21 v=64
132768 On ch=16 n=21 v=90
132864 Off ch=16 n=21 v=64
132864 On ch=16 n=21 v=90
132960 Off ch=16 n=21 v=64
132960 On ch=16 n=21 v=90
133056 Off ch=16 n=21 v=64
133056 On ch=16 n=21 v=90
133152 Off ch=16 n=21 v=64
133152 On ch=16 n=21 v=90
133248 Off ch=16 n=21 v=64
133248 On ch=16 n=21 v=90
133344 Off ch=16 n=21 v=64
133344 On ch=16 n=21 v=90
133440 Off ch=16 n=21 v=64
133440 On ch=16 n=21 v=90
133536 Off ch=16 n=21 v=64
133536 On ch=16 n=21 v=90
133632 Off ch=16 n=21 v=64
133632 On ch=16 n=21 v=90
133728 Off ch=16 n=21 v=64
133728 On ch=16 n=21 v=90
133824 Off ch=16 n=21 v=64
133824 On ch=16 n=21 v=90
133920 Off ch=16 n=21 v=64
133920 On ch=16 n=21 v=90
134016 Off ch=16 n=21 v=64
134016 On ch=16 n=21 v=90
134112 Off ch=16 n=21 v=64
134112 On ch=16 n=21 v=90
134208 Off ch=16 n=21 v=64
134208 On ch=16 n=21 v=90
134304 Off ch=16 n=21 v=64
134304 On ch=16 n=21 v=90
134400 Off ch=16 n=21 v=64
134400 On ch=16 n=21 v=90
134496 Off ch=16 n=21 v=64
134496 On ch=16 n=21 v=90
134592 Off ch=16 n=21 v=64
134592 On ch=16 n=21 v=90
134688 Off ch=16 n=21 v=64
134688 On ch=16 n=21 v=90
134784 Off ch=16 n=21 v=64
134784 On ch=16 n=21 v=90
134880 Off ch=16 n=21 v=64
134880 On ch=16 n=21 v=90
134976 Off ch=16 n=21 v=64
134976 On ch=16 n=21 v=90
135072 Off ch=16 n=21 v=64
135072 On ch=16 n=21 v=90
135168 Off ch=16 n=21 v=64
135168 On ch=16 n=21 v=90
135264 Off ch=16 n=21 v=64
135264 On ch=16 n=21 v=90
135360 Off ch=16 n=21 v=64
135360 On ch=16 n=21 v=90
135456 Off ch=16 n=21 v=64
135456 On ch=16 n=21 v=90
135552 Off ch=16 n=21 v=64
135552 On ch=16 n=21 v=90
135648 Off ch=16 n=21 v=64
135648 On ch=16 n=21 v=90
135744 Off ch=16 n=21 v=64
135744 On ch=16 n=21 v=90
135840 Off ch=16 n=21 v=64
135840 On ch=16 n=21 v=90
135936 Off ch=16 n=21 v=64
135936 On ch=16 n=21 v=90
136032 Off ch=16 n=21 v=64
136032 On ch=16 n=21 v=90
136128 Off ch=16 n=21 v=64
136128 On ch=16 n=21 v=90
136224 Off ch=16 n=21 v=64
136224 On ch=16 n=21 v=90
136320 Off ch=16 n=21 v=64
136320 On ch=16 n=21 v=90
136416 Off ch=16 n=21 v=64
136416 On ch=16 n=21 v=90
136512 Off ch=16 n=21 v=64
136512 On ch=16 n=21 v=90
136608 Off ch=16 n=21 v=64
136608 On ch=16 n=21 v=90
136704 Off ch=16 n=21 v=64
136704 On ch=16 n=21 v=90
136800 Off ch=16 n=21 v=64
136800 On ch=16 n=21 v=90
136896 Off ch=16 n=21 v=64
136896 On ch=16 n=21 v=90
136992 Off ch=16 n=21 v=64
136992 On ch=16 n=21 v=90
137088 Off ch=16 n=21 v=64
137088 On ch=16 n=21 v=90
137184 Off ch=16 n=21 v=64
137184 On ch=16 n=21 v=90
137280 Off ch=16 n=21 v=64
137280 On ch=16 n=21 v=90
137376 Off ch=16 n=21 v=64
137376 On ch=16 n=21 v=90
137472 Off ch=16 n=21 v=64
137472 On ch=16 n=21 v=90
137568 Off ch=16 n=21 v=64
137568 On ch=16 n=21 v=90
137664 Off ch=16 n=21 v=64
137664 On ch=16 n=21 v=90
137760 Off ch=16 n=21 v=64
137760 On ch=16 n=21 v=90
137856 Off ch=16 n=21 v=64
137856 On ch=16 n=21 v=90
137952 Off ch=16 n=21 v=64
137952 On ch=16 n=21 v=90
138048 Off ch=16 n=21 v=64
138048 On ch=16 n=21 v=90
138144 Off ch=16 n=21 v=64
138144 On ch=16 n=21 v=90
138240 Off ch=16 n=21 v=64
138240 On ch=16 n=21 v=90
138336 Off ch=16 n=21 v=64
138336 On ch=16 n=21 v=90
138432 Off ch=16 n=21 v=64
138432 On ch=16 n=21 v=90
138528 Off ch=16 n=21 v=64
138528 On ch=16 n=21 v=90
138624 Off ch=16 n=21 v=64
138624 On ch=16 n=21 v=90
138720 Off ch=16 n=21 v=64
138720 On ch=16 n=21 v=90
138816 Off ch=16 n=21 v=64
138816 On ch=16 n=21 v=90
138912 Off ch=16 n=21 v=64
138912 On ch=16 n=21 v=90
139008 Off ch=16 n=21 v=64
139008 On ch=16 n=21 v=90
139104 Off ch=16 n=21 v=64
139104 On ch=16 n=21 v=90
139200 Off ch=16 n=21 v=64
139200 On ch=16 n=21 v=90
139296 Off ch=16 n=21 v=64
139296 On ch=16 n=21 v=90
139392 Off ch=16 n=21 v=64
139392 On ch=16 n=21 v=90
139488 Off ch=16 n=21 v=64
139488 On ch=16 n=21 v=90
139584 Off ch=16 n=21 v=64
139584 On ch=16 n=21 v=90
139680 Off ch=16 n=21 v=64
139680 On ch=16 n=21 v=90
139776 Off ch=16 n=21 v=64
139776 On ch=16 n=21 v=90
139872 Off ch=16 n=21 v=64
139872 On ch=16 n=21 v=90
139968 Off ch=16 n=21 v=64
139968 On ch=16 n=21 v=90
140064 Off ch=16 n=21 v=64
140064 On ch=16 n=21 v=90
140160 Off ch=16 n=21 v=64
140160 On ch=16 n=21 v=90
140256 Off ch=16 n=21 v=64
140256 On ch=16 n=21 v=90
140352 Off ch=16 n=21 v=64
140352 On ch=16 n=21 v=90
140448 Off ch=16 n=21 v=64
140448 On ch=16 n=21 v=90
140544 Off ch=16 n=21 v=64
140544 On ch=16 n=21 v=90
140640 Off ch=16 n=21 v=64
140640 On ch=16 n=21 v=90
140736 Off ch=16 n=21 v=64
140736 On ch=16 n=21 v=90
140832 Off ch=16 n=21 v=64
140832 On ch=16 n=21 v=90
140928 Off ch=16 n=21 v=64
140928 On ch=16 n=21 v=90
141024 Off ch=16 n=21 v=64
141024 On ch=16 n=21 v=90
141120 Off ch=16 n=21 v=64
141120 On ch=16 n=21 v=90
141216 Off ch=16 n=21 v=64
141216 Meta TrkEnd
TrkEnd
MTrk
0 Meta 0x21 00
0 Meta TrkName "Black Dog           "
0 Meta TrkEnd
TrkEnd
MTrk
0 Meta 0x21 00
0 Meta TrkName "by                  "
0 Meta TrkEnd
TrkEnd
MTrk
0 Meta 0x21 00
0 Meta TrkName "Led Zeplin          "
0 Meta TrkEnd
TrkEnd
