MFile 1 13 120
MTrk
0 TimeSig 4/4 24 8
0 KeySig -1 major
0 Tempo 638298
11515 Tempo 535714
12000 Meta Marker "Bonzo's Drum Solo"
17280 TimeSig 2/4 24 8
17520 TimeSig 4/4 24 8
18960 TimeSig 7/8 12 8
19380 TimeSig 4/4 24 8
19860 TimeSig 9/8 12 8
20400 TimeSig 6/8 12 8
20760 TimeSig 4/4 24 8
22680 TimeSig 5/4 24 8
23280 TimeSig 4/4 24 8
24720 TimeSig 7/8 12 8
25140 TimeSig 4/4 24 8
28500 TimeSig 17/16 6 8
29010 TimeSig 4/4 24 8
29970 TimeSig 13/16 6 8
30360 TimeSig 3/4 24 8
31080 TimeSig 4/4 24 8
31550 Tempo 535714
31560 Tempo 535714
31690 Tempo 533333
31820 Tempo 530973
31940 Tempo 528634
32070 Tempo 526316
32200 Tempo 524017
32320 Tempo 521739
32450 Tempo 519481
32580 Tempo 517241
32700 Tempo 515021
32830 Tempo 512821
32950 Tempo 510638
33080 Tempo 508475
33210 Tempo 506329
33330 Tempo 504202
33460 Tempo 502092
33590 Tempo 500000
33710 Tempo 497925
33840 Tempo 495868
33960 Tempo 493827
34090 Tempo 491803
34220 Tempo 489796
34340 Tempo 487805
34470 Tempo 485830
34600 Tempo 483871
34720 Tempo 481928
34850 Tempo 480000
34980 Tempo 478088
35100 Tempo 476190
35230 Tempo 474308
35350 Tempo 472441
35480 Tempo 470588
35610 Tempo 468750
35730 Tempo 466926
35860 Tempo 465116
35990 Tempo 463320
36110 Tempo 461538
36240 Tempo 459770
36360 Tempo 458015
36840 Tempo 458015
36860 Tempo 459770
36880 Tempo 461538
36890 Tempo 463320
36910 Tempo 465116
36920 Tempo 466926
36940 Tempo 468750
36950 Tempo 470588
36970 Tempo 472441
36990 Tempo 474308
37000 Tempo 476190
37020 Tempo 478088
37030 Tempo 480000
37050 Tempo 481928
37060 Tempo 483871
37080 Tempo 485830
37100 Tempo 487805
37110 Tempo 489796
37130 Tempo 491803
37140 Tempo 493827
37160 Tempo 495868
37170 Tempo 497925
37190 Tempo 500000
37210 Tempo 502092
37220 Tempo 504202
37240 Tempo 506329
37250 Tempo 508475
37270 Tempo 510638
37280 Tempo 512821
37300 Tempo 515021
37310 Tempo 517241
37350 Tempo 519481
37380 Tempo 521739
37420 Tempo 524017
37450 Tempo 526316
37490 Tempo 528634
37520 Tempo 530973
37550 Tempo 533333
37590 Tempo 535714
37620 Tempo 538117
37660 Tempo 540541
37690 Tempo 542986
37730 Tempo 545455
37760 Tempo 547945
37790 Tempo 571429
51250 Tempo 606061
54600 Tempo 937500
54600 Meta TrkEnd
TrkEnd
MTrk
0 Meta 0x21 00
0 Meta TrkName "Guitar 1"
0 PrCh ch=1 p=29
0 Par ch=1 c=7 v=90
0 Par ch=1 c=10 v=19
7200 On ch=1 n=69 v=100
7230 On ch=1 n=69 v=100
7260 On ch=1 n=69 v=0
7260 On ch=1 n=74 v=100
7260 On ch=1 n=69 v=100
7290 On ch=1 n=69 v=0
7290 On ch=1 n=74 v=0
7290 On ch=1 n=69 v=0
7290 On ch=1 n=69 v=100
7320 On ch=1 n=69 v=0
7320 On ch=1 n=67 v=100
7335 On ch=1 n=67 v=0
7335 On ch=1 n=65 v=100
7350 On ch=1 n=65 v=0
7350 On ch=1 n=62 v=100
7380 On ch=1 n=62 v=0
7380 On ch=1 n=67 v=100
7410 On ch=1 n=67 v=0
7410 On ch=1 n=65 v=100
7440 On ch=1 n=65 v=0
7440 On ch=1 n=62 v=100
7500 On ch=1 n=62 v=0
7500 On ch=1 n=62 v=100
7530 On ch=1 n=62 v=0
7530 On ch=1 n=60 v=100
7560 On ch=1 n=60 v=0
7560 On ch=1 n=62 v=100
7590 On ch=1 n=62 v=0
7590 On ch=1 n=67 v=100
7620 On ch=1 n=67 v=0
7620 On ch=1 n=65 v=100
7680 On ch=1 n=65 v=0
8160 On ch=1 n=74 v=100
8160 On ch=1 n=77 v=100
8160 Pb ch=1 v=8576
8186 On ch=1 n=77 v=0
8186 On ch=1 n=74 v=0
8187 Pb ch=1 v=8832
8190 On ch=1 n=74 v=100
8216 On ch=1 n=74 v=0
8217 Pb ch=1 v=8448
8220 On ch=1 n=74 v=100
8245 Pb ch=1 v=9472
8246 On ch=1 n=74 v=0
8250 On ch=1 n=74 v=100
8250 On ch=1 n=77 v=100
8276 On ch=1 n=77 v=0
8276 On ch=1 n=74 v=0
8280 On ch=1 n=74 v=100
8281 Pb ch=1 v=8320
8306 On ch=1 n=74 v=0
8310 On ch=1 n=74 v=100
8311 Pb ch=1 v=7936
8314 Pb ch=1 v=8832
8336 On ch=1 n=74 v=0
8340 On ch=1 n=74 v=100
8345 Pb ch=1 v=8320
8366 On ch=1 n=74 v=0
8370 On ch=1 n=77 v=100
8384 Pb ch=1 v=9344
8400 Pb ch=1 v=6144
8426 On ch=1 n=77 v=0
8428 Pb ch=1 v=8192
8430 On ch=1 n=74 v=100
8445 On ch=1 n=74 v=0
8445 On ch=1 n=69 v=100
8460 On ch=1 n=69 v=0
8460 On ch=1 n=67 v=100
8490 On ch=1 n=67 v=0
8490 On ch=1 n=77 v=100
8505 Pb ch=1 v=9216
8521 Pb ch=1 v=6144
8546 On ch=1 n=77 v=0
8548 Pb ch=1 v=8192
8550 On ch=1 n=74 v=100
8565 On ch=1 n=74 v=0
8565 On ch=1 n=69 v=100
8580 On ch=1 n=69 v=0
8580 On ch=1 n=67 v=100
8640 On ch=1 n=67 v=0
9090 On ch=1 n=67 v=100
9105 On ch=1 n=67 v=0
9105 On ch=1 n=65 v=100
9120 On ch=1 n=65 v=0
9120 On ch=1 n=64 v=100
9150 On ch=1 n=64 v=0
9150 On ch=1 n=62 v=100
9165 On ch=1 n=62 v=0
9165 On ch=1 n=60 v=100
9180 On ch=1 n=60 v=0
9180 On ch=1 n=59 v=100
9210 On ch=1 n=59 v=0
9210 On ch=1 n=58 v=100
9225 On ch=1 n=58 v=0
9225 On ch=1 n=56 v=100
9240 On ch=1 n=56 v=0
9240 On ch=1 n=55 v=100
9270 On ch=1 n=55 v=0
9270 On ch=1 n=53 v=100
9285 On ch=1 n=53 v=0
9285 On ch=1 n=51 v=100
9300 On ch=1 n=51 v=0
9300 On ch=1 n=50 v=100
9300 On ch=1 n=50 v=100
9330 On ch=1 n=50 v=0
9330 On ch=1 n=67 v=100
9345 On ch=1 n=67 v=0
9345 On ch=1 n=65 v=100
9360 On ch=1 n=65 v=0
9360 On ch=1 n=64 v=100
9390 On ch=1 n=64 v=0
9390 On ch=1 n=62 v=100
9405 On ch=1 n=62 v=0
9405 On ch=1 n=60 v=100
9420 On ch=1 n=60 v=0
9420 On ch=1 n=59 v=100
9450 On ch=1 n=59 v=0
9450 On ch=1 n=58 v=100
9465 On ch=1 n=58 v=0
9465 On ch=1 n=57 v=100
9480 On ch=1 n=57 v=0
9480 On ch=1 n=50 v=0
9480 On ch=1 n=55 v=100
9510 On ch=1 n=55 v=0
9510 On ch=1 n=53 v=100
9525 On ch=1 n=53 v=0
9525 On ch=1 n=51 v=100
9540 On ch=1 n=51 v=0
9540 On ch=1 n=50 v=100
9570 On ch=1 n=50 v=0
9570 On ch=1 n=48 v=100
9570 Pb ch=1 v=7168
9583 On ch=1 n=48 v=0
9584 Pb ch=1 v=8192
9585 On ch=1 n=45 v=100
9600 On ch=1 n=45 v=0
9600 On ch=1 n=38 v=110
9840 On ch=1 n=38 v=0
10080 On ch=1 n=50 v=100
10120 On ch=1 n=50 v=0
10120 On ch=1 n=50 v=100
10137 On ch=1 n=50 v=0
10138 Pb ch=1 v=128
10140 On ch=1 n=54 v=100
10147 Pb ch=1 v=8192
10160 On ch=1 n=54 v=0
10160 On ch=1 n=62 v=100
10160 On ch=1 n=57 v=100
10180 On ch=1 n=57 v=0
10180 On ch=1 n=62 v=0
10180 On ch=1 n=59 v=100
10200 On ch=1 n=59 v=0
10200 On ch=1 n=62 v=100
10220 On ch=1 n=62 v=0
10220 On ch=1 n=62 v=100
10240 On ch=1 n=62 v=0
10240 On ch=1 n=58 v=100
10257 On ch=1 n=58 v=0
10258 Pb ch=1 v=128
10260 On ch=1 n=66 v=100
10260 On ch=1 n=62 v=100
10268 Pb ch=1 v=8192
10280 On ch=1 n=62 v=0
10280 On ch=1 n=66 v=0
10280 On ch=1 n=69 v=100
10280 On ch=1 n=74 v=100
10300 On ch=1 n=74 v=0
10300 On ch=1 n=69 v=0
10300 On ch=1 n=69 v=100
10300 On ch=1 n=74 v=100
10320 On ch=1 n=74 v=0
10320 On ch=1 n=69 v=0
10320 On ch=1 n=74 v=100
10350 On ch=1 n=74 v=0
10350 On ch=1 n=74 v=100
10405 On ch=1 n=74 v=0
10408 Pb ch=1 v=128
10410 On ch=1 n=74 v=100
10432 Pb ch=1 v=8192
10560 On ch=1 n=74 v=0
10560 Meta TrkEnd
TrkEnd
MTrk
0 Meta 0x21 00
0 Meta TrkName "Guitar 2"
0 PrCh ch=2 p=30
0 Par ch=2 c=7 v=90
0 Par ch=2 c=10 v=109
960 On ch=2 n=38 v=100
1020 On ch=2 n=38 v=0
1020 On ch=2 n=50 v=100
1050 On ch=2 n=50 v=0
1080 On ch=2 n=50 v=100
1110 On ch=2 n=50 v=0
1110 On ch=2 n=48 v=100
1140 On ch=2 n=48 v=0
1140 On ch=2 n=43 v=100
1170 On ch=2 n=43 v=0
1170 On ch=2 n=41 v=100
1260 On ch=2 n=41 v=0
1260 On ch=2 n=43 v=100
1290 On ch=2 n=43 v=0
1290 On ch=2 n=41 v=100
1350 On ch=2 n=41 v=0
1350 On ch=2 n=43 v=100
1410 On ch=2 n=43 v=0
1410 On ch=2 n=41 v=100
1440 On ch=2 n=41 v=0
1440 On ch=2 n=38 v=100
1500 On ch=2 n=38 v=0
1500 On ch=2 n=50 v=100
1530 On ch=2 n=50 v=0
1560 On ch=2 n=50 v=100
1590 On ch=2 n=50 v=0
1590 On ch=2 n=48 v=100
1620 On ch=2 n=48 v=0
1620 On ch=2 n=43 v=100
1650 On ch=2 n=43 v=0
1650 On ch=2 n=41 v=100
1740 On ch=2 n=41 v=0
1740 On ch=2 n=43 v=100
1770 On ch=2 n=43 v=0
1770 On ch=2 n=41 v=100
1830 On ch=2 n=41 v=0
1830 On ch=2 n=43 v=100
1890 On ch=2 n=43 v=0
1890 On ch=2 n=41 v=100
1920 On ch=2 n=41 v=0
1920 On ch=2 n=38 v=100
1980 On ch=2 n=38 v=0
1980 On ch=2 n=50 v=100
2010 On ch=2 n=50 v=0
2040 On ch=2 n=50 v=100
2070 On ch=2 n=50 v=0
2070 On ch=2 n=48 v=100
2100 On ch=2 n=48 v=0
2100 On ch=2 n=43 v=100
2130 On ch=2 n=43 v=0
2130 On ch=2 n=41 v=100
2220 On ch=2 n=41 v=0
2220 On ch=2 n=43 v=100
2250 On ch=2 n=43 v=0
2250 On ch=2 n=41 v=100
2310 On ch=2 n=41 v=0
2310 On ch=2 n=43 v=100
2370 On ch=2 n=43 v=0
2370 On ch=2 n=41 v=100
2400 On ch=2 n=41 v=0
2400 On ch=2 n=38 v=100
2460 On ch=2 n=38 v=0
2460 On ch=2 n=50 v=100
2490 On ch=2 n=50 v=0
2520 On ch=2 n=50 v=100
2550 On ch=2 n=50 v=0
2550 On ch=2 n=48 v=100
2580 On ch=2 n=48 v=0
2580 On ch=2 n=43 v=100
2610 On ch=2 n=43 v=0
2610 On ch=2 n=41 v=100
2700 On ch=2 n=41 v=0
2700 On ch=2 n=43 v=100
2730 On ch=2 n=43 v=0
2730 On ch=2 n=41 v=100
2790 On ch=2 n=41 v=0
2790 On ch=2 n=43 v=100
2850 On ch=2 n=43 v=0
2850 On ch=2 n=41 v=100
2880 On ch=2 n=41 v=0
2880 On ch=2 n=43 v=100
2940 On ch=2 n=43 v=0
2940 On ch=2 n=55 v=100
2970 On ch=2 n=55 v=0
3000 On ch=2 n=55 v=100
3030 On ch=2 n=55 v=0
3030 On ch=2 n=53 v=100
3060 On ch=2 n=53 v=0
3060 On ch=2 n=50 v=100
3090 On ch=2 n=50 v=0
3090 On ch=2 n=46 v=100
3180 On ch=2 n=46 v=0
3180 On ch=2 n=48 v=100
3210 On ch=2 n=48 v=0
3210 On ch=2 n=46 v=100
3270 On ch=2 n=46 v=0
3270 On ch=2 n=48 v=100
3330 On ch=2 n=48 v=0
3330 On ch=2 n=46 v=100
3360 On ch=2 n=46 v=0
3360 On ch=2 n=43 v=100
3420 On ch=2 n=43 v=0
3420 On ch=2 n=55 v=100
3450 On ch=2 n=55 v=0
3480 On ch=2 n=55 v=100
3510 On ch=2 n=55 v=0
3510 On ch=2 n=53 v=100
3540 On ch=2 n=53 v=0
3540 On ch=2 n=50 v=100
3570 On ch=2 n=50 v=0
3570 On ch=2 n=46 v=100
3660 On ch=2 n=46 v=0
3660 On ch=2 n=48 v=100
3690 On ch=2 n=48 v=0
3690 On ch=2 n=46 v=100
3750 On ch=2 n=46 v=0
3750 On ch=2 n=48 v=100
3810 On ch=2 n=48 v=0
3810 On ch=2 n=46 v=100
3840 On ch=2 n=46 v=0
3840 On ch=2 n=38 v=100
3900 On ch=2 n=38 v=0
3900 On ch=2 n=50 v=100
3930 On ch=2 n=50 v=0
3960 On ch=2 n=50 v=100
3990 On ch=2 n=50 v=0
3990 On ch=2 n=48 v=100
4020 On ch=2 n=48 v=0
4020 On ch=2 n=43 v=100
4050 On ch=2 n=43 v=0
4050 On ch=2 n=41 v=100
4140 On ch=2 n=41 v=0
4140 On ch=2 n=43 v=100
4170 On ch=2 n=43 v=0
4170 On ch=2 n=41 v=100
4230 On ch=2 n=41 v=0
4230 On ch=2 n=43 v=100
4290 On ch=2 n=43 v=0
4290 On ch=2 n=41 v=100
4320 On ch=2 n=41 v=0
4320 On ch=2 n=38 v=100
4380 On ch=2 n=38 v=0
4380 On ch=2 n=50 v=100
4410 On ch=2 n=50 v=0
4440 On ch=2 n=50 v=100
4470 On ch=2 n=50 v=0
4470 On ch=2 n=48 v=100
4500 On ch=2 n=48 v=0
4500 On ch=2 n=43 v=100
4530 On ch=2 n=43 v=0
4530 On ch=2 n=41 v=100
4620 On ch=2 n=41 v=0
4620 On ch=2 n=43 v=100
4650 On ch=2 n=43 v=0
4650 On ch=2 n=41 v=100
4710 On ch=2 n=41 v=0
4710 On ch=2 n=43 v=100
4770 On ch=2 n=43 v=0
4770 On ch=2 n=41 v=100
4800 On ch=2 n=41 v=0
4800 On ch=2 n=45 v=100
4860 On ch=2 n=45 v=0
4860 On ch=2 n=57 v=100
4890 On ch=2 n=57 v=0
4920 On ch=2 n=57 v=100
4950 On ch=2 n=57 v=0
4950 On ch=2 n=55 v=100
4980 On ch=2 n=55 v=0
4980 On ch=2 n=52 v=100
5010 On ch=2 n=52 v=0
5010 On ch=2 n=57 v=100
5040 On ch=2 n=57 v=0
5070 On ch=2 n=57 v=100
5100 On ch=2 n=57 v=0
5130 On ch=2 n=52 v=100
5160 On ch=2 n=52 v=0
5160 On ch=2 n=55 v=100
5220 On ch=2 n=55 v=0
5220 On ch=2 n=57 v=100
5250 On ch=2 n=57 v=0
5250 On ch=2 n=50 v=100
5280 On ch=2 n=50 v=0
5280 On ch=2 n=55 v=100
5310 On ch=2 n=55 v=0
5310 On ch=2 n=55 v=100
5340 On ch=2 n=55 v=0
5340 On ch=2 n=55 v=100
5370 On ch=2 n=55 v=0
5370 On ch=2 n=55 v=100
5400 On ch=2 n=55 v=0
5400 On ch=2 n=55 v=100
5430 On ch=2 n=55 v=0
5430 On ch=2 n=53 v=100
5460 On ch=2 n=53 v=0
5460 On ch=2 n=50 v=100
5490 On ch=2 n=50 v=0
5490 On ch=2 n=60 v=100
5520 On ch=2 n=60 v=0
5520 On ch=2 n=62 v=100
5580 On ch=2 n=62 v=0
5580 On ch=2 n=60 v=100
5610 On ch=2 n=60 v=0
5610 On ch=2 n=57 v=100
5640 On ch=2 n=57 v=0
5640 On ch=2 n=55 v=100
5670 On ch=2 n=55 v=0
5670 On ch=2 n=53 v=100
5760 On ch=2 n=53 v=0
5760 On ch=2 n=38 v=100
5820 On ch=2 n=38 v=0
5820 On ch=2 n=50 v=100
5850 On ch=2 n=50 v=0
5880 On ch=2 n=50 v=100
5910 On ch=2 n=50 v=0
5910 On ch=2 n=48 v=100
5940 On ch=2 n=48 v=0
5940 On ch=2 n=43 v=100
5970 On ch=2 n=43 v=0
5970 On ch=2 n=41 v=100
6060 On ch=2 n=41 v=0
6060 On ch=2 n=43 v=100
6090 On ch=2 n=43 v=0
6090 On ch=2 n=41 v=100
6150 On ch=2 n=41 v=0
6150 On ch=2 n=43 v=100
6210 On ch=2 n=43 v=0
6210 On ch=2 n=41 v=100
6240 On ch=2 n=41 v=0
6240 On ch=2 n=38 v=100
6300 On ch=2 n=38 v=0
6300 On ch=2 n=50 v=100
6330 On ch=2 n=50 v=0
6360 On ch=2 n=50 v=100
6390 On ch=2 n=50 v=0
6390 On ch=2 n=48 v=100
6420 On ch=2 n=48 v=0
6420 On ch=2 n=43 v=100
6450 On ch=2 n=43 v=0
6450 On ch=2 n=41 v=100
6540 On ch=2 n=41 v=0
6540 On ch=2 n=43 v=100
6570 On ch=2 n=43 v=0
6570 On ch=2 n=41 v=100
6630 On ch=2 n=41 v=0
6630 On ch=2 n=43 v=100
6690 On ch=2 n=43 v=0
6690 On ch=2 n=41 v=100
6720 On ch=2 n=41 v=0
6720 On ch=2 n=38 v=100
6780 On ch=2 n=38 v=0
6780 On ch=2 n=50 v=100
6810 On ch=2 n=50 v=0
6840 On ch=2 n=50 v=100
6870 On ch=2 n=50 v=0
6870 On ch=2 n=48 v=100
6900 On ch=2 n=48 v=0
6900 On ch=2 n=43 v=100
6930 On ch=2 n=43 v=0
6930 On ch=2 n=41 v=100
7020 On ch=2 n=41 v=0
7020 On ch=2 n=43 v=100
7050 On ch=2 n=43 v=0
7050 On ch=2 n=41 v=100
7110 On ch=2 n=41 v=0
7110 On ch=2 n=43 v=100
7170 On ch=2 n=43 v=0
7170 On ch=2 n=41 v=100
7200 On ch=2 n=41 v=0
7200 On ch=2 n=38 v=100
7260 On ch=2 n=38 v=0
7680 On ch=2 n=38 v=100
7740 On ch=2 n=38 v=0
7740 On ch=2 n=50 v=100
7770 On ch=2 n=50 v=0
7800 On ch=2 n=50 v=100
7830 On ch=2 n=50 v=0
7830 On ch=2 n=48 v=100
7860 On ch=2 n=48 v=0
7860 On ch=2 n=43 v=100
7890 On ch=2 n=43 v=0
7890 On ch=2 n=41 v=100
7980 On ch=2 n=41 v=0
7980 On ch=2 n=43 v=100
8010 On ch=2 n=43 v=0
8010 On ch=2 n=41 v=100
8070 On ch=2 n=41 v=0
8070 On ch=2 n=43 v=100
8130 On ch=2 n=43 v=0
8130 On ch=2 n=41 v=100
8160 On ch=2 n=41 v=0
8160 On ch=2 n=38 v=100
8220 On ch=2 n=38 v=0
8640 On ch=2 n=43 v=100
8700 On ch=2 n=43 v=0
8700 On ch=2 n=55 v=100
8730 On ch=2 n=55 v=0
8760 On ch=2 n=55 v=100
8790 On ch=2 n=55 v=0
8790 On ch=2 n=53 v=100
8820 On ch=2 n=53 v=0
8820 On ch=2 n=50 v=100
8850 On ch=2 n=50 v=0
8850 On ch=2 n=46 v=100
8940 On ch=2 n=46 v=0
8940 On ch=2 n=48 v=100
8970 On ch=2 n=48 v=0
8970 On ch=2 n=46 v=100
9030 On ch=2 n=46 v=0
9030 On ch=2 n=48 v=100
9090 On ch=2 n=48 v=0
9090 On ch=2 n=46 v=100
9120 On ch=2 n=46 v=0
9120 On ch=2 n=43 v=100
9180 On ch=2 n=43 v=0
9600 On ch=2 n=38 v=100
9660 On ch=2 n=38 v=0
9660 On ch=2 n=50 v=100
9690 On ch=2 n=50 v=0
9720 On ch=2 n=50 v=100
9750 On ch=2 n=50 v=0
9750 On ch=2 n=48 v=100
9780 On ch=2 n=48 v=0
9780 On ch=2 n=43 v=100
9810 On ch=2 n=43 v=0
9810 On ch=2 n=41 v=100
9900 On ch=2 n=41 v=0
9900 On ch=2 n=43 v=100
9930 On ch=2 n=43 v=0
9930 On ch=2 n=41 v=100
9990 On ch=2 n=41 v=0
9990 On ch=2 n=43 v=100
10050 On ch=2 n=43 v=0
10050 On ch=2 n=41 v=100
10080 On ch=2 n=41 v=0
10080 On ch=2 n=38 v=100
10140 On ch=2 n=38 v=0
10560 On ch=2 n=45 v=100
10620 On ch=2 n=45 v=0
10620 On ch=2 n=57 v=100
10650 On ch=2 n=57 v=0
10680 On ch=2 n=57 v=100
10710 On ch=2 n=57 v=0
10710 On ch=2 n=55 v=100
10740 On ch=2 n=55 v=0
10740 On ch=2 n=52 v=100
10770 On ch=2 n=52 v=0
10770 On ch=2 n=57 v=100
10800 On ch=2 n=57 v=0
10830 On ch=2 n=57 v=100
10860 On ch=2 n=57 v=0
10890 On ch=2 n=52 v=100
10920 On ch=2 n=52 v=0
10920 On ch=2 n=55 v=100
10980 On ch=2 n=55 v=0
10980 On ch=2 n=57 v=100
11010 On ch=2 n=57 v=0
11010 On ch=2 n=50 v=100
11040 On ch=2 n=50 v=0
11040 On ch=2 n=55 v=100
11070 On ch=2 n=55 v=0
11070 On ch=2 n=55 v=100
11100 On ch=2 n=55 v=0
11100 On ch=2 n=55 v=100
11130 On ch=2 n=55 v=0
11130 On ch=2 n=55 v=100
11160 On ch=2 n=55 v=0
11160 On ch=2 n=55 v=100
11190 On ch=2 n=55 v=0
11190 On ch=2 n=53 v=100
11220 On ch=2 n=53 v=0
11220 On ch=2 n=50 v=100
11250 On ch=2 n=50 v=0
11250 On ch=2 n=60 v=100
11280 On ch=2 n=60 v=0
11280 On ch=2 n=62 v=100
11340 On ch=2 n=62 v=0
11340 On ch=2 n=60 v=100
11370 On ch=2 n=60 v=0
11370 On ch=2 n=57 v=100
11400 On ch=2 n=57 v=0
11400 On ch=2 n=55 v=100
11430 On ch=2 n=55 v=0
11430 On ch=2 n=53 v=100
11520 On ch=2 n=53 v=0
11520 On ch=2 n=38 v=100
11520 On ch=2 n=45 v=100
11520 On ch=2 n=50 v=100
11580 On ch=2 n=50 v=0
11580 On ch=2 n=45 v=0
11580 On ch=2 n=38 v=0
51720 On ch=2 n=38 v=100
51780 On ch=2 n=38 v=0
51780 On ch=2 n=50 v=100
51810 On ch=2 n=50 v=0
51840 On ch=2 n=50 v=100
51870 On ch=2 n=50 v=0
51870 On ch=2 n=48 v=100
51900 On ch=2 n=48 v=0
51900 On ch=2 n=43 v=100
51930 On ch=2 n=43 v=0
51930 On ch=2 n=41 v=100
52020 On ch=2 n=41 v=0
52020 On ch=2 n=43 v=100
52050 On ch=2 n=43 v=0
52050 On ch=2 n=41 v=100
52110 On ch=2 n=41 v=0
52110 On ch=2 n=43 v=100
52170 On ch=2 n=43 v=0
52170 On ch=2 n=41 v=100
52200 On ch=2 n=41 v=0
52200 On ch=2 n=38 v=100
52260 On ch=2 n=38 v=0
52680 On ch=2 n=43 v=100
52740 On ch=2 n=43 v=0
52740 On ch=2 n=55 v=100
52770 On ch=2 n=55 v=0
52800 On ch=2 n=55 v=100
52830 On ch=2 n=55 v=0
52830 On ch=2 n=53 v=100
52860 On ch=2 n=53 v=0
52860 On ch=2 n=50 v=100
52890 On ch=2 n=50 v=0
52890 On ch=2 n=46 v=100
52980 On ch=2 n=46 v=0
52980 On ch=2 n=48 v=100
53010 On ch=2 n=48 v=0
53010 On ch=2 n=46 v=100
53070 On ch=2 n=46 v=0
53070 On ch=2 n=48 v=100
53130 On ch=2 n=48 v=0
53130 On ch=2 n=46 v=100
53160 On ch=2 n=46 v=0
53160 On ch=2 n=43 v=100
53220 On ch=2 n=43 v=0
53640 On ch=2 n=45 v=100
53700 On ch=2 n=45 v=0
53700 On ch=2 n=57 v=100
53730 On ch=2 n=57 v=0
53760 On ch=2 n=57 v=100
53790 On ch=2 n=57 v=0
53790 On ch=2 n=55 v=100
53820 On ch=2 n=55 v=0
53820 On ch=2 n=52 v=100
53850 On ch=2 n=52 v=0
53850 On ch=2 n=57 v=100
53880 On ch=2 n=57 v=0
53910 On ch=2 n=57 v=100
53940 On ch=2 n=57 v=0
53970 On ch=2 n=52 v=100
54000 On ch=2 n=52 v=0
54000 On ch=2 n=55 v=100
54060 On ch=2 n=55 v=0
54060 On ch=2 n=57 v=100
54090 On ch=2 n=57 v=0
54090 On ch=2 n=50 v=100
54120 On ch=2 n=50 v=0
54120 On ch=2 n=55 v=100
54150 On ch=2 n=55 v=0
54150 On ch=2 n=55 v=100
54180 On ch=2 n=55 v=0
54180 On ch=2 n=55 v=100
54210 On ch=2 n=55 v=0
54210 On ch=2 n=55 v=100
54240 On ch=2 n=55 v=0
54240 On ch=2 n=55 v=100
54270 On ch=2 n=55 v=0
54270 On ch=2 n=53 v=100
54300 On ch=2 n=53 v=0
54300 On ch=2 n=50 v=100
54330 On ch=2 n=50 v=0
54330 On ch=2 n=60 v=100
54360 On ch=2 n=60 v=0
54360 On ch=2 n=62 v=100
54420 On ch=2 n=62 v=0
54420 On ch=2 n=60 v=100
54450 On ch=2 n=60 v=0
54450 On ch=2 n=57 v=100
54480 On ch=2 n=57 v=0
54480 On ch=2 n=55 v=100
54510 On ch=2 n=55 v=0
54510 On ch=2 n=53 v=100
54600 On ch=2 n=53 v=0
54600 On ch=2 n=38 v=100
54600 On ch=2 n=50 v=100
54600 On ch=2 n=57 v=100
54600 On ch=2 n=62 v=100
54600 On ch=2 n=66 v=100
54840 On ch=2 n=66 v=0
54840 On ch=2 n=57 v=0
54840 On ch=2 n=38 v=0
54840 On ch=2 n=50 v=0
54840 On ch=2 n=62 v=0
54840 On ch=2 n=64 v=100
54840 On ch=2 n=60 v=100
54840 On ch=2 n=55 v=100
54840 On ch=2 n=48 v=100
55080 On ch=2 n=48 v=0
55080 On ch=2 n=64 v=0
55080 On ch=2 n=60 v=0
55080 On ch=2 n=55 v=0
55080 On ch=2 n=45 v=100
55080 On ch=2 n=52 v=100
55080 On ch=2 n=57 v=100
55080 On ch=2 n=61 v=100
55320 On ch=2 n=61 v=0
55320 On ch=2 n=45 v=0
55320 On ch=2 n=52 v=0
55320 On ch=2 n=57 v=0
55320 Meta TrkEnd
TrkEnd
MTrk
0 Meta 0x21 00
0 Meta TrkName "Bass"
0 PrCh ch=3 p=35
0 Par ch=3 c=7 v=110
0 Par ch=3 c=10 v=54
960 On ch=3 n=38 v=100
1020 On ch=3 n=38 v=0
1020 On ch=3 n=50 v=100
1050 On ch=3 n=50 v=0
1080 On ch=3 n=50 v=100
1110 On ch=3 n=50 v=0
1110 On ch=3 n=48 v=100
1140 On ch=3 n=48 v=0
1140 On ch=3 n=45 v=100
1170 On ch=3 n=45 v=0
1170 On ch=3 n=41 v=100
1260 On ch=3 n=41 v=0
1260 On ch=3 n=43 v=100
1290 On ch=3 n=43 v=0
1290 On ch=3 n=41 v=100
1350 On ch=3 n=41 v=0
1350 On ch=3 n=43 v=100
1410 On ch=3 n=43 v=0
1410 On ch=3 n=41 v=100
1440 On ch=3 n=41 v=0
1440 On ch=3 n=38 v=100
1500 On ch=3 n=38 v=0
1500 On ch=3 n=50 v=100
1530 On ch=3 n=50 v=0
1560 On ch=3 n=50 v=100
1590 On ch=3 n=50 v=0
1590 On ch=3 n=48 v=100
1620 On ch=3 n=48 v=0
1620 On ch=3 n=45 v=100
1650 On ch=3 n=45 v=0
1650 On ch=3 n=41 v=100
1740 On ch=3 n=41 v=0
1740 On ch=3 n=43 v=100
1770 On ch=3 n=43 v=0
1770 On ch=3 n=41 v=100
1830 On ch=3 n=41 v=0
1830 On ch=3 n=43 v=100
1890 On ch=3 n=43 v=0
1890 On ch=3 n=41 v=100
1920 On ch=3 n=41 v=0
1920 On ch=3 n=38 v=100
1980 On ch=3 n=38 v=0
1980 On ch=3 n=50 v=100
2010 On ch=3 n=50 v=0
2040 On ch=3 n=50 v=100
2070 On ch=3 n=50 v=0
2070 On ch=3 n=48 v=100
2100 On ch=3 n=48 v=0
2100 On ch=3 n=45 v=100
2130 On ch=3 n=45 v=0
2130 On ch=3 n=41 v=100
2220 On ch=3 n=41 v=0
2220 On ch=3 n=43 v=100
2250 On ch=3 n=43 v=0
2250 On ch=3 n=41 v=100
2310 On ch=3 n=41 v=0
2310 On ch=3 n=43 v=100
2370 On ch=3 n=43 v=0
2370 On ch=3 n=41 v=100
2400 On ch=3 n=41 v=0
2400 On ch=3 n=38 v=100
2460 On ch=3 n=38 v=0
2460 On ch=3 n=50 v=100
2490 On ch=3 n=50 v=0
2520 On ch=3 n=50 v=100
2550 On ch=3 n=50 v=0
2550 On ch=3 n=48 v=100
2580 On ch=3 n=48 v=0
2580 On ch=3 n=45 v=100
2610 On ch=3 n=45 v=0
2610 On ch=3 n=41 v=100
2700 On ch=3 n=41 v=0
2700 On ch=3 n=43 v=100
2730 On ch=3 n=43 v=0
2730 On ch=3 n=41 v=100
2790 On ch=3 n=41 v=0
2790 On ch=3 n=43 v=100
2850 On ch=3 n=43 v=0
2850 On ch=3 n=41 v=100
2880 On ch=3 n=41 v=0
2880 On ch=3 n=31 v=100
2940 On ch=3 n=31 v=0
2940 On ch=3 n=43 v=100
2970 On ch=3 n=43 v=0
3000 On ch=3 n=43 v=100
3030 On ch=3 n=43 v=0
3030 On ch=3 n=41 v=100
3060 On ch=3 n=41 v=0
3060 On ch=3 n=38 v=100
3090 On ch=3 n=38 v=0
3090 On ch=3 n=34 v=100
3180 On ch=3 n=34 v=0
3180 On ch=3 n=36 v=100
3210 On ch=3 n=36 v=0
3210 On ch=3 n=34 v=100
3270 On ch=3 n=34 v=0
3270 On ch=3 n=36 v=100
3330 On ch=3 n=36 v=0
3330 On ch=3 n=34 v=100
3360 On ch=3 n=34 v=0
3360 On ch=3 n=31 v=100
3420 On ch=3 n=31 v=0
3420 On ch=3 n=43 v=100
3450 On ch=3 n=43 v=0
3480 On ch=3 n=43 v=100
3510 On ch=3 n=43 v=0
3510 On ch=3 n=41 v=100
3540 On ch=3 n=41 v=0
3540 On ch=3 n=38 v=100
3570 On ch=3 n=38 v=0
3570 On ch=3 n=34 v=100
3660 On ch=3 n=34 v=0
3660 On ch=3 n=36 v=100
3690 On ch=3 n=36 v=0
3690 On ch=3 n=34 v=100
3750 On ch=3 n=34 v=0
3750 On ch=3 n=36 v=100
3810 On ch=3 n=36 v=0
3810 On ch=3 n=37 v=100
3840 On ch=3 n=37 v=0
3840 On ch=3 n=38 v=100
3900 On ch=3 n=38 v=0
3900 On ch=3 n=50 v=100
3930 On ch=3 n=50 v=0
3960 On ch=3 n=50 v=100
3990 On ch=3 n=50 v=0
3990 On ch=3 n=48 v=100
4020 On ch=3 n=48 v=0
4020 On ch=3 n=45 v=100
4050 On ch=3 n=45 v=0
4050 On ch=3 n=41 v=100
4140 On ch=3 n=41 v=0
4140 On ch=3 n=43 v=100
4170 On ch=3 n=43 v=0
4170 On ch=3 n=41 v=100
4230 On ch=3 n=41 v=0
4230 On ch=3 n=43 v=100
4290 On ch=3 n=43 v=0
4290 On ch=3 n=41 v=100
4320 On ch=3 n=41 v=0
4320 On ch=3 n=38 v=100
4380 On ch=3 n=38 v=0
4380 On ch=3 n=50 v=100
4410 On ch=3 n=50 v=0
4440 On ch=3 n=50 v=100
4470 On ch=3 n=50 v=0
4470 On ch=3 n=48 v=100
4500 On ch=3 n=48 v=0
4500 On ch=3 n=45 v=100
4530 On ch=3 n=45 v=0
4530 On ch=3 n=41 v=100
4620 On ch=3 n=41 v=0
4620 On ch=3 n=43 v=100
4650 On ch=3 n=43 v=0
4650 On ch=3 n=41 v=100
4710 On ch=3 n=41 v=0
4710 On ch=3 n=43 v=100
4770 On ch=3 n=43 v=0
4770 On ch=3 n=44 v=100
4800 On ch=3 n=44 v=0
4800 On ch=3 n=45 v=100
4860 On ch=3 n=45 v=0
4860 On ch=3 n=33 v=100
4920 On ch=3 n=33 v=0
4920 On ch=3 n=45 v=100
4950 On ch=3 n=45 v=0
4950 On ch=3 n=43 v=100
4980 On ch=3 n=43 v=0
4980 On ch=3 n=40 v=100
5010 On ch=3 n=40 v=0
5010 On ch=3 n=45 v=100
5040 On ch=3 n=45 v=0
5070 On ch=3 n=45 v=100
5100 On ch=3 n=45 v=0
5130 On ch=3 n=40 v=100
5160 On ch=3 n=40 v=0
5160 On ch=3 n=43 v=100
5220 On ch=3 n=43 v=0
5220 On ch=3 n=45 v=100
5280 On ch=3 n=45 v=0
5280 On ch=3 n=43 v=100
5310 On ch=3 n=43 v=0
5310 On ch=3 n=43 v=100
5340 On ch=3 n=43 v=0
5340 On ch=3 n=43 v=100
5370 On ch=3 n=43 v=0
5370 On ch=3 n=43 v=100
5400 On ch=3 n=43 v=0
5400 On ch=3 n=43 v=100
5430 On ch=3 n=43 v=0
5430 On ch=3 n=41 v=100
5460 On ch=3 n=41 v=0
5460 On ch=3 n=38 v=100
5490 On ch=3 n=38 v=0
5490 On ch=3 n=48 v=100
5520 On ch=3 n=48 v=0
5520 On ch=3 n=50 v=100
5580 On ch=3 n=50 v=0
5580 On ch=3 n=48 v=100
5610 On ch=3 n=48 v=0
5610 On ch=3 n=45 v=100
5640 On ch=3 n=45 v=0
5640 On ch=3 n=43 v=100
5670 On ch=3 n=43 v=0
5670 On ch=3 n=41 v=100
5760 On ch=3 n=41 v=0
5760 On ch=3 n=38 v=100
5820 On ch=3 n=38 v=0
5820 On ch=3 n=50 v=100
5850 On ch=3 n=50 v=0
5880 On ch=3 n=50 v=100
5910 On ch=3 n=50 v=0
5910 On ch=3 n=48 v=100
5940 On ch=3 n=48 v=0
5940 On ch=3 n=45 v=100
5970 On ch=3 n=45 v=0
5970 On ch=3 n=41 v=100
6060 On ch=3 n=41 v=0
6060 On ch=3 n=43 v=100
6090 On ch=3 n=43 v=0
6090 On ch=3 n=41 v=100
6150 On ch=3 n=41 v=0
6150 On ch=3 n=43 v=100
6210 On ch=3 n=43 v=0
6210 On ch=3 n=41 v=100
6240 On ch=3 n=41 v=0
6240 On ch=3 n=38 v=100
6300 On ch=3 n=38 v=0
6300 On ch=3 n=50 v=100
6330 On ch=3 n=50 v=0
6360 On ch=3 n=50 v=100
6390 On ch=3 n=50 v=0
6390 On ch=3 n=48 v=100
6420 On ch=3 n=48 v=0
6420 On ch=3 n=45 v=100
6450 On ch=3 n=45 v=0
6450 On ch=3 n=41 v=100
6540 On ch=3 n=41 v=0
6540 On ch=3 n=43 v=100
6570 On ch=3 n=43 v=0
6570 On ch=3 n=41 v=100
6630 On ch=3 n=41 v=0
6630 On ch=3 n=43 v=100
6690 On ch=3 n=43 v=0
6690 On ch=3 n=41 v=100
6720 On ch=3 n=41 v=0
6720 On ch=3 n=38 v=100
6780 On ch=3 n=38 v=0
6780 On ch=3 n=50 v=100
6810 On ch=3 n=50 v=0
6840 On ch=3 n=50 v=100
6870 On ch=3 n=50 v=0
6870 On ch=3 n=48 v=100
6900 On ch=3 n=48 v=0
6900 On ch=3 n=45 v=100
6930 On ch=3 n=45 v=0
6930 On ch=3 n=41 v=100
7020 On ch=3 n=41 v=0
7020 On ch=3 n=43 v=100
7050 On ch=3 n=43 v=0
7050 On ch=3 n=41 v=100
7110 On ch=3 n=41 v=0
7110 On ch=3 n=43 v=100
7170 On ch=3 n=43 v=0
7170 On ch=3 n=41 v=100
7200 On ch=3 n=41 v=0
7200 On ch=3 n=38 v=100
7260 On ch=3 n=38 v=0
7680 On ch=3 n=38 v=100
7740 On ch=3 n=38 v=0
7740 On ch=3 n=50 v=100
7770 On ch=3 n=50 v=0
7800 On ch=3 n=50 v=100
7830 On ch=3 n=50 v=0
7830 On ch=3 n=48 v=100
7860 On ch=3 n=48 v=0
7860 On ch=3 n=45 v=100
7890 On ch=3 n=45 v=0
7890 On ch=3 n=41 v=100
7980 On ch=3 n=41 v=0
7980 On ch=3 n=43 v=100
8010 On ch=3 n=43 v=0
8010 On ch=3 n=41 v=100
8070 On ch=3 n=41 v=0
8070 On ch=3 n=43 v=100
8130 On ch=3 n=43 v=0
8130 On ch=3 n=41 v=100
8160 On ch=3 n=41 v=0
8160 On ch=3 n=38 v=100
8220 On ch=3 n=38 v=0
8640 On ch=3 n=31 v=100
8700 On ch=3 n=31 v=0
8700 On ch=3 n=43 v=100
8730 On ch=3 n=43 v=0
8760 On ch=3 n=43 v=100
8790 On ch=3 n=43 v=0
8790 On ch=3 n=41 v=100
8820 On ch=3 n=41 v=0
8820 On ch=3 n=38 v=100
8850 On ch=3 n=38 v=0
8850 On ch=3 n=34 v=100
8940 On ch=3 n=34 v=0
8940 On ch=3 n=36 v=100
8970 On ch=3 n=36 v=0
8970 On ch=3 n=34 v=100
9030 On ch=3 n=34 v=0
9030 On ch=3 n=36 v=100
9090 On ch=3 n=36 v=0
9090 On ch=3 n=34 v=100
9120 On ch=3 n=34 v=0
9120 On ch=3 n=31 v=100
9180 On ch=3 n=31 v=0
9600 On ch=3 n=38 v=100
9660 On ch=3 n=38 v=0
9660 On ch=3 n=50 v=100
9690 On ch=3 n=50 v=0
9720 On ch=3 n=50 v=100
9750 On ch=3 n=50 v=0
9750 On ch=3 n=48 v=100
9780 On ch=3 n=48 v=0
9780 On ch=3 n=45 v=100
9810 On ch=3 n=45 v=0
9810 On ch=3 n=41 v=100
9900 On ch=3 n=41 v=0
9900 On ch=3 n=43 v=100
9930 On ch=3 n=43 v=0
9930 On ch=3 n=41 v=100
9990 On ch=3 n=41 v=0
9990 On ch=3 n=43 v=100
10050 On ch=3 n=43 v=0
10050 On ch=3 n=41 v=100
10080 On ch=3 n=41 v=0
10080 On ch=3 n=38 v=100
10140 On ch=3 n=38 v=0
10350 On ch=3 n=28 v=100
10380 On ch=3 n=28 v=0
10380 On ch=3 n=30 v=100
10440 On ch=3 n=30 v=0
10440 On ch=3 n=30 v=100
10470 On ch=3 n=30 v=0
10470 On ch=3 n=31 v=100
10530 On ch=3 n=31 v=0
10530 On ch=3 n=32 v=100
10560 On ch=3 n=32 v=0
10560 On ch=3 n=33 v=100
10620 On ch=3 n=33 v=0
10620 On ch=3 n=45 v=100
10650 On ch=3 n=45 v=0
10650 On ch=3 n=45 v=100
10680 On ch=3 n=45 v=0
10680 On ch=3 n=45 v=100
10710 On ch=3 n=45 v=0
10710 On ch=3 n=43 v=100
10740 On ch=3 n=43 v=0
10740 On ch=3 n=40 v=100
10770 On ch=3 n=40 v=0
10770 On ch=3 n=45 v=100
10800 On ch=3 n=45 v=0
10830 On ch=3 n=45 v=100
10860 On ch=3 n=45 v=0
10890 On ch=3 n=40 v=100
10920 On ch=3 n=40 v=0
10920 On ch=3 n=43 v=100
10950 On ch=3 n=43 v=0
10950 On ch=3 n=43 v=100
10980 On ch=3 n=43 v=0
10980 On ch=3 n=45 v=100
11010 On ch=3 n=45 v=0
11010 On ch=3 n=45 v=100
11040 On ch=3 n=45 v=0
11040 On ch=3 n=43 v=100
11070 On ch=3 n=43 v=0
11070 On ch=3 n=43 v=100
11078 On ch=3 n=43 v=0
11100 On ch=3 n=43 v=100
11130 On ch=3 n=43 v=0
11130 On ch=3 n=43 v=100
11160 On ch=3 n=43 v=0
11160 On ch=3 n=43 v=100
11190 On ch=3 n=43 v=0
11190 On ch=3 n=41 v=100
11220 On ch=3 n=41 v=0
11220 On ch=3 n=38 v=100
11250 On ch=3 n=38 v=0
11250 On ch=3 n=50 v=100
11310 On ch=3 n=50 v=0
11310 On ch=3 n=50 v=100
11340 On ch=3 n=50 v=0
11340 On ch=3 n=48 v=100
11370 On ch=3 n=48 v=0
11370 On ch=3 n=45 v=100
11400 On ch=3 n=45 v=0
11400 On ch=3 n=43 v=100
11430 On ch=3 n=43 v=0
11430 On ch=3 n=41 v=100
11520 On ch=3 n=41 v=0
11520 On ch=3 n=38 v=100
11580 On ch=3 n=38 v=0
51720 On ch=3 n=38 v=100
51780 On ch=3 n=38 v=0
51780 On ch=3 n=50 v=100
51810 On ch=3 n=50 v=0
51840 On ch=3 n=50 v=100
51870 On ch=3 n=50 v=0
51870 On ch=3 n=48 v=100
51900 On ch=3 n=48 v=0
51900 On ch=3 n=45 v=100
51930 On ch=3 n=45 v=0
51930 On ch=3 n=41 v=100
52020 On ch=3 n=41 v=0
52020 On ch=3 n=43 v=100
52050 On ch=3 n=43 v=0
52050 On ch=3 n=41 v=100
52110 On ch=3 n=41 v=0
52110 On ch=3 n=43 v=100
52170 On ch=3 n=43 v=0
52170 On ch=3 n=41 v=100
52200 On ch=3 n=41 v=0
52200 On ch=3 n=38 v=100
52260 On ch=3 n=38 v=0
52470 On ch=3 n=28 v=100
52500 On ch=3 n=28 v=0
52500 On ch=3 n=30 v=100
52560 On ch=3 n=30 v=0
52560 On ch=3 n=30 v=100
52590 On ch=3 n=30 v=0
52590 On ch=3 n=31 v=100
52650 On ch=3 n=31 v=0
52650 On ch=3 n=32 v=100
52680 On ch=3 n=32 v=0
52680 On ch=3 n=31 v=100
52740 On ch=3 n=31 v=0
52740 On ch=3 n=43 v=100
52770 On ch=3 n=43 v=0
52800 On ch=3 n=43 v=100
52830 On ch=3 n=43 v=0
52830 On ch=3 n=41 v=100
52860 On ch=3 n=41 v=0
52860 On ch=3 n=38 v=100
52890 On ch=3 n=38 v=0
52890 On ch=3 n=34 v=100
52980 On ch=3 n=34 v=0
52980 On ch=3 n=36 v=100
53010 On ch=3 n=36 v=0
53010 On ch=3 n=34 v=100
53070 On ch=3 n=34 v=0
53070 On ch=3 n=36 v=100
53130 On ch=3 n=36 v=0
53130 On ch=3 n=34 v=100
53160 On ch=3 n=34 v=0
53160 On ch=3 n=31 v=100
53220 On ch=3 n=31 v=0
53640 On ch=3 n=33 v=100
53700 On ch=3 n=33 v=0
53700 On ch=3 n=45 v=100
53730 On ch=3 n=45 v=0
53760 On ch=3 n=45 v=100
53790 On ch=3 n=45 v=0
53790 On ch=3 n=43 v=100
53820 On ch=3 n=43 v=0
53820 On ch=3 n=40 v=100
53850 On ch=3 n=40 v=0
53910 On ch=3 n=45 v=100
53940 On ch=3 n=45 v=0
53970 On ch=3 n=40 v=100
54000 On ch=3 n=40 v=0
54000 On ch=3 n=43 v=100
54030 On ch=3 n=43 v=0
54030 On ch=3 n=43 v=100
54060 On ch=3 n=43 v=0
54060 On ch=3 n=45 v=100
54120 On ch=3 n=45 v=0
54120 On ch=3 n=43 v=100
54150 On ch=3 n=43 v=0
54150 On ch=3 n=43 v=100
54180 On ch=3 n=43 v=0
54180 On ch=3 n=43 v=100
54210 On ch=3 n=43 v=0
54210 On ch=3 n=43 v=100
54240 On ch=3 n=43 v=0
54240 On ch=3 n=43 v=100
54270 On ch=3 n=43 v=0
54270 On ch=3 n=41 v=100
54300 On ch=3 n=41 v=0
54300 On ch=3 n=38 v=100
54330 On ch=3 n=38 v=0
54330 On ch=3 n=50 v=100
54390 On ch=3 n=50 v=0
54390 On ch=3 n=50 v=100
54420 On ch=3 n=50 v=0
54420 On ch=3 n=48 v=100
54450 On ch=3 n=48 v=0
54450 On ch=3 n=45 v=100
54480 On ch=3 n=45 v=0
54480 On ch=3 n=43 v=100
54510 On ch=3 n=43 v=0
54510 On ch=3 n=41 v=100
54600 On ch=3 n=41 v=0
54600 On ch=3 n=38 v=100
54840 On ch=3 n=38 v=0
54840 On ch=3 n=36 v=100
55080 On ch=3 n=36 v=0
55080 On ch=3 n=33 v=100
55320 On ch=3 n=33 v=0
55320 Meta TrkEnd
TrkEnd
MTrk
0 Meta 0x21 00
0 Meta TrkName "Drums"
0 PrCh ch=10 p=0
0 Par ch=10 c=7 v=90
0 Par ch=10 c=10 v=64
5 Par ch=10 c=91 v=3
8 Par ch=10 c=91 v=46
450 On ch=10 n=40 v=100
464 On ch=10 n=40 v=0
480 On ch=10 n=40 v=110
494 On ch=10 n=40 v=0
510 On ch=10 n=40 v=120
524 On ch=10 n=40 v=0
570 On ch=10 n=40 v=110
584 On ch=10 n=40 v=0
630 On ch=10 n=40 v=120
644 On ch=10 n=40 v=0
690 On ch=10 n=40 v=120
704 On ch=10 n=40 v=0
750 On ch=10 n=40 v=110
764 On ch=10 n=40 v=0
810 On ch=10 n=40 v=100
824 On ch=10 n=40 v=0
840 On ch=10 n=40 v=120
854 On ch=10 n=40 v=0
870 On ch=10 n=40 v=120
884 On ch=10 n=40 v=0
900 On ch=10 n=40 v=120
914 On ch=10 n=40 v=0
960 On ch=10 n=49 v=100
960 On ch=10 n=36 v=100
974 On ch=10 n=36 v=0
974 On ch=10 n=49 v=0
1020 On ch=10 n=56 v=100
1034 On ch=10 n=56 v=0
1050 On ch=10 n=36 v=100
1064 On ch=10 n=36 v=0
1080 On ch=10 n=56 v=100
1080 On ch=10 n=40 v=100
1094 On ch=10 n=40 v=0
1094 On ch=10 n=56 v=0
1110 On ch=10 n=36 v=100
1124 On ch=10 n=36 v=0
1140 On ch=10 n=56 v=100
1154 On ch=10 n=56 v=0
1170 On ch=10 n=36 v=100
1184 On ch=10 n=36 v=0
1200 On ch=10 n=56 v=100
1214 On ch=10 n=56 v=0
1230 On ch=10 n=40 v=100
1244 On ch=10 n=40 v=0
1260 On ch=10 n=56 v=100
1260 On ch=10 n=36 v=100
1274 On ch=10 n=36 v=0
1274 On ch=10 n=56 v=0
1290 On ch=10 n=36 v=100
1304 On ch=10 n=36 v=0
1320 On ch=10 n=56 v=100
1320 On ch=10 n=40 v=100
1334 On ch=10 n=40 v=0
1334 On ch=10 n=56 v=0
1350 On ch=10 n=40 v=100
1364 On ch=10 n=40 v=0
1380 On ch=10 n=56 v=100
1394 On ch=10 n=56 v=0
1410 On ch=10 n=40 v=100
1424 On ch=10 n=40 v=0
1440 On ch=10 n=56 v=100
1440 On ch=10 n=36 v=100
1454 On ch=10 n=36 v=0
1454 On ch=10 n=56 v=0
1470 On ch=10 n=40 v=100
1484 On ch=10 n=40 v=0
1500 On ch=10 n=36 v=100
1500 On ch=10 n=56 v=100
1514 On ch=10 n=56 v=0
1514 On ch=10 n=36 v=0
1530 On ch=10 n=36 v=100
1544 On ch=10 n=36 v=0
1560 On ch=10 n=56 v=100
1560 On ch=10 n=40 v=100
1574 On ch=10 n=40 v=0
1574 On ch=10 n=56 v=0
1620 On ch=10 n=56 v=100
1634 On ch=10 n=56 v=0
1650 On ch=10 n=36 v=100
1664 On ch=10 n=36 v=0
1680 On ch=10 n=56 v=100
1694 On ch=10 n=56 v=0
1710 On ch=10 n=40 v=100
1724 On ch=10 n=40 v=0
1740 On ch=10 n=56 v=100
1740 On ch=10 n=36 v=100
1754 On ch=10 n=36 v=0
1754 On ch=10 n=56 v=0
1770 On ch=10 n=36 v=100
1784 On ch=10 n=36 v=0
1800 On ch=10 n=56 v=100
1800 On ch=10 n=40 v=100
1814 On ch=10 n=40 v=0
1814 On ch=10 n=56 v=0
1830 On ch=10 n=40 v=100
1844 On ch=10 n=40 v=0
1860 On ch=10 n=56 v=100
1874 On ch=10 n=56 v=0
1890 On ch=10 n=40 v=100
1904 On ch=10 n=40 v=0
1920 On ch=10 n=36 v=100
1920 On ch=10 n=57 v=100
1934 On ch=10 n=57 v=0
1934 On ch=10 n=36 v=0
1950 On ch=10 n=40 v=100
1964 On ch=10 n=40 v=0
1980 On ch=10 n=56 v=100
1994 On ch=10 n=56 v=0
2010 On ch=10 n=36 v=100
2024 On ch=10 n=36 v=0
2040 On ch=10 n=40 v=100
2040 On ch=10 n=56 v=100
2054 On ch=10 n=56 v=0
2054 On ch=10 n=40 v=0
2100 On ch=10 n=56 v=100
2114 On ch=10 n=56 v=0
2130 On ch=10 n=36 v=100
2144 On ch=10 n=36 v=0
2160 On ch=10 n=56 v=100
2174 On ch=10 n=56 v=0
2190 On ch=10 n=40 v=100
2204 On ch=10 n=40 v=0
2220 On ch=10 n=56 v=100
2234 On ch=10 n=56 v=0
2250 On ch=10 n=36 v=100
2264 On ch=10 n=36 v=0
2280 On ch=10 n=40 v=100
2280 On ch=10 n=56 v=100
2294 On ch=10 n=56 v=0
2294 On ch=10 n=40 v=0
2310 On ch=10 n=40 v=100
2324 On ch=10 n=40 v=0
2340 On ch=10 n=56 v=100
2354 On ch=10 n=56 v=0
2400 On ch=10 n=36 v=100
2400 On ch=10 n=56 v=100
2414 On ch=10 n=56 v=0
2414 On ch=10 n=36 v=0
2430 On ch=10 n=40 v=100
2444 On ch=10 n=40 v=0
2460 On ch=10 n=56 v=100
2474 On ch=10 n=56 v=0
2490 On ch=10 n=36 v=100
2504 On ch=10 n=36 v=0
2520 On ch=10 n=40 v=100
2520 On ch=10 n=56 v=100
2534 On ch=10 n=56 v=0
2534 On ch=10 n=40 v=0
2550 On ch=10 n=36 v=100
2550 On ch=10 n=40 v=100
2564 On ch=10 n=40 v=0
2564 On ch=10 n=36 v=0
2580 On ch=10 n=56 v=100
2594 On ch=10 n=56 v=0
2610 On ch=10 n=40 v=100
2610 On ch=10 n=36 v=100
2624 On ch=10 n=36 v=0
2624 On ch=10 n=40 v=0
2640 On ch=10 n=40 v=100
2654 On ch=10 n=40 v=0
2670 On ch=10 n=36 v=100
2670 On ch=10 n=40 v=100
2684 On ch=10 n=40 v=0
2684 On ch=10 n=36 v=0
2700 On ch=10 n=40 v=100
2714 On ch=10 n=40 v=0
2730 On ch=10 n=36 v=100
2730 On ch=10 n=40 v=100
2744 On ch=10 n=40 v=0
2744 On ch=10 n=36 v=0
2760 On ch=10 n=40 v=100
2774 On ch=10 n=40 v=0
2790 On ch=10 n=36 v=100
2790 On ch=10 n=40 v=100
2804 On ch=10 n=40 v=0
2804 On ch=10 n=36 v=0
2820 On ch=10 n=40 v=100
2834 On ch=10 n=40 v=0
2850 On ch=10 n=36 v=100
2850 On ch=10 n=40 v=100
2864 On ch=10 n=40 v=0
2864 On ch=10 n=36 v=0
2880 On ch=10 n=49 v=100
2880 On ch=10 n=36 v=100
2894 On ch=10 n=36 v=0
2894 On ch=10 n=49 v=0
2940 On ch=10 n=56 v=100
2954 On ch=10 n=56 v=0
2970 On ch=10 n=36 v=100
2984 On ch=10 n=36 v=0
3000 On ch=10 n=56 v=100
3000 On ch=10 n=40 v=100
3014 On ch=10 n=40 v=0
3014 On ch=10 n=56 v=0
3060 On ch=10 n=56 v=100
3074 On ch=10 n=56 v=0
3090 On ch=10 n=36 v=100
3104 On ch=10 n=36 v=0
3120 On ch=10 n=56 v=100
3134 On ch=10 n=56 v=0
3150 On ch=10 n=40 v=100
3164 On ch=10 n=40 v=0
3180 On ch=10 n=56 v=100
3194 On ch=10 n=56 v=0
3210 On ch=10 n=36 v=100
3224 On ch=10 n=36 v=0
3240 On ch=10 n=56 v=100
3240 On ch=10 n=40 v=100
3254 On ch=10 n=40 v=0
3254 On ch=10 n=56 v=0
3270 On ch=10 n=40 v=100
3284 On ch=10 n=40 v=0
3300 On ch=10 n=56 v=100
3314 On ch=10 n=56 v=0
3330 On ch=10 n=36 v=100
3344 On ch=10 n=36 v=0
3360 On ch=10 n=56 v=100
3360 On ch=10 n=36 v=100
3374 On ch=10 n=36 v=0
3374 On ch=10 n=56 v=0
3390 On ch=10 n=40 v=100
3404 On ch=10 n=40 v=0
3420 On ch=10 n=36 v=100
3420 On ch=10 n=56 v=100
3434 On ch=10 n=56 v=0
3434 On ch=10 n=36 v=0
3450 On ch=10 n=36 v=100
3464 On ch=10 n=36 v=0
3480 On ch=10 n=56 v=100
3480 On ch=10 n=40 v=100
3494 On ch=10 n=40 v=0
3494 On ch=10 n=56 v=0
3510 On ch=10 n=40 v=100
3524 On ch=10 n=40 v=0
3540 On ch=10 n=56 v=100
3554 On ch=10 n=56 v=0
3570 On ch=10 n=36 v=100
3584 On ch=10 n=36 v=0
3600 On ch=10 n=56 v=100
3614 On ch=10 n=56 v=0
3630 On ch=10 n=40 v=100
3644 On ch=10 n=40 v=0
3660 On ch=10 n=56 v=100
3660 On ch=10 n=36 v=100
3674 On ch=10 n=36 v=0
3674 On ch=10 n=56 v=0
3690 On ch=10 n=36 v=100
3704 On ch=10 n=36 v=0
3720 On ch=10 n=56 v=100
3720 On ch=10 n=40 v=100
3734 On ch=10 n=40 v=0
3734 On ch=10 n=56 v=0
3750 On ch=10 n=40 v=100
3764 On ch=10 n=40 v=0
3780 On ch=10 n=56 v=100
3794 On ch=10 n=56 v=0
3810 On ch=10 n=40 v=100
3824 On ch=10 n=40 v=0
3840 On ch=10 n=36 v=100
3840 On ch=10 n=57 v=100
3854 On ch=10 n=57 v=0
3854 On ch=10 n=36 v=0
3870 On ch=10 n=40 v=100
3884 On ch=10 n=40 v=0
3900 On ch=10 n=56 v=100
3914 On ch=10 n=56 v=0
3930 On ch=10 n=36 v=100
3944 On ch=10 n=36 v=0
3960 On ch=10 n=40 v=100
3960 On ch=10 n=56 v=100
3974 On ch=10 n=56 v=0
3974 On ch=10 n=40 v=0
4020 On ch=10 n=56 v=100
4034 On ch=10 n=56 v=0
4050 On ch=10 n=36 v=100
4064 On ch=10 n=36 v=0
4080 On ch=10 n=56 v=100
4094 On ch=10 n=56 v=0
4110 On ch=10 n=40 v=100
4124 On ch=10 n=40 v=0
4140 On ch=10 n=56 v=100
4154 On ch=10 n=56 v=0
4170 On ch=10 n=36 v=100
4184 On ch=10 n=36 v=0
4200 On ch=10 n=40 v=100
4200 On ch=10 n=56 v=100
4214 On ch=10 n=56 v=0
4214 On ch=10 n=40 v=0
4230 On ch=10 n=40 v=100
4244 On ch=10 n=40 v=0
4260 On ch=10 n=56 v=100
4274 On ch=10 n=56 v=0
4290 On ch=10 n=40 v=100
4304 On ch=10 n=40 v=0
4320 On ch=10 n=56 v=100
4320 On ch=10 n=36 v=100
4334 On ch=10 n=36 v=0
4334 On ch=10 n=56 v=0
4350 On ch=10 n=40 v=100
4364 On ch=10 n=40 v=0
4380 On ch=10 n=36 v=100
4380 On ch=10 n=56 v=100
4394 On ch=10 n=56 v=0
4394 On ch=10 n=36 v=0
4410 On ch=10 n=36 v=100
4424 On ch=10 n=36 v=0
4440 On ch=10 n=56 v=100
4440 On ch=10 n=40 v=100
4454 On ch=10 n=40 v=0
4454 On ch=10 n=56 v=0
4500 On ch=10 n=56 v=100
4514 On ch=10 n=56 v=0
4530 On ch=10 n=36 v=100
4544 On ch=10 n=36 v=0
4560 On ch=10 n=56 v=100
4574 On ch=10 n=56 v=0
4590 On ch=10 n=40 v=100
4604 On ch=10 n=40 v=0
4620 On ch=10 n=56 v=100
4634 On ch=10 n=56 v=0
4650 On ch=10 n=40 v=100
4664 On ch=10 n=40 v=0
4680 On ch=10 n=56 v=100
4694 On ch=10 n=56 v=0
4710 On ch=10 n=36 v=100
4710 On ch=10 n=40 v=100
4724 On ch=10 n=40 v=0
4724 On ch=10 n=36 v=0
4740 On ch=10 n=56 v=100
4754 On ch=10 n=56 v=0
4770 On ch=10 n=40 v=100
4784 On ch=10 n=40 v=0
4800 On ch=10 n=56 v=100
4800 On ch=10 n=36 v=100
4814 On ch=10 n=36 v=0
4814 On ch=10 n=56 v=0
4830 On ch=10 n=40 v=100
4844 On ch=10 n=40 v=0
4860 On ch=10 n=36 v=100
4860 On ch=10 n=56 v=100
4874 On ch=10 n=56 v=0
4874 On ch=10 n=36 v=0
4890 On ch=10 n=36 v=100
4904 On ch=10 n=36 v=0
4920 On ch=10 n=56 v=100
4920 On ch=10 n=40 v=100
4934 On ch=10 n=40 v=0
4934 On ch=10 n=56 v=0
4950 On ch=10 n=40 v=100
4964 On ch=10 n=40 v=0
4980 On ch=10 n=56 v=100
4994 On ch=10 n=56 v=0
5010 On ch=10 n=36 v=100
5024 On ch=10 n=36 v=0
5040 On ch=10 n=56 v=100
5054 On ch=10 n=56 v=0
5070 On ch=10 n=40 v=100
5084 On ch=10 n=40 v=0
5100 On ch=10 n=56 v=100
5114 On ch=10 n=56 v=0
5130 On ch=10 n=40 v=100
5144 On ch=10 n=40 v=0
5160 On ch=10 n=56 v=100
5174 On ch=10 n=56 v=0
5190 On ch=10 n=40 v=100
5204 On ch=10 n=40 v=0
5220 On ch=10 n=56 v=100
5234 On ch=10 n=56 v=0
5250 On ch=10 n=36 v=100
5264 On ch=10 n=36 v=0
5275 On ch=10 n=38 v=80
5280 On ch=10 n=40 v=100
5289 On ch=10 n=38 v=0
5294 On ch=10 n=40 v=0
5490 On ch=10 n=49 v=100
5490 On ch=10 n=57 v=100
5490 On ch=10 n=40 v=100
5490 On ch=10 n=35 v=100
5490 On ch=10 n=36 v=100
5494 On ch=10 n=38 v=100
5504 On ch=10 n=36 v=0
5504 On ch=10 n=35 v=0
5504 On ch=10 n=40 v=0
5504 On ch=10 n=49 v=0
5504 On ch=10 n=57 v=0
5508 On ch=10 n=38 v=0
5670 On ch=10 n=40 v=100
5680 On ch=10 n=40 v=100
5684 On ch=10 n=40 v=0
5690 On ch=10 n=40 v=100
5694 On ch=10 n=40 v=0
5700 On ch=10 n=40 v=100
5704 On ch=10 n=40 v=0
5714 On ch=10 n=40 v=0
5760 On ch=10 n=49 v=100
5760 On ch=10 n=36 v=100
5774 On ch=10 n=36 v=0
5774 On ch=10 n=49 v=0
5820 On ch=10 n=56 v=100
5834 On ch=10 n=56 v=0
5850 On ch=10 n=36 v=100
5864 On ch=10 n=36 v=0
5880 On ch=10 n=56 v=100
5880 On ch=10 n=40 v=100
5894 On ch=10 n=40 v=0
5894 On ch=10 n=56 v=0
5940 On ch=10 n=56 v=100
5954 On ch=10 n=56 v=0
5970 On ch=10 n=36 v=100
5984 On ch=10 n=36 v=0
6000 On ch=10 n=56 v=100
6014 On ch=10 n=56 v=0
6030 On ch=10 n=40 v=100
6044 On ch=10 n=40 v=0
6060 On ch=10 n=56 v=100
6074 On ch=10 n=56 v=0
6090 On ch=10 n=36 v=100
6104 On ch=10 n=36 v=0
6120 On ch=10 n=56 v=100
6120 On ch=10 n=40 v=100
6134 On ch=10 n=40 v=0
6134 On ch=10 n=56 v=0
6150 On ch=10 n=40 v=100
6164 On ch=10 n=40 v=0
6180 On ch=10 n=56 v=100
6194 On ch=10 n=56 v=0
6210 On ch=10 n=40 v=100
6224 On ch=10 n=40 v=0
6240 On ch=10 n=56 v=100
6240 On ch=10 n=36 v=100
6254 On ch=10 n=36 v=0
6254 On ch=10 n=56 v=0
6270 On ch=10 n=40 v=100
6284 On ch=10 n=40 v=0
6300 On ch=10 n=36 v=100
6300 On ch=10 n=56 v=100
6314 On ch=10 n=56 v=0
6314 On ch=10 n=36 v=0
6330 On ch=10 n=36 v=100
6344 On ch=10 n=36 v=0
6360 On ch=10 n=56 v=100
6360 On ch=10 n=40 v=100
6374 On ch=10 n=40 v=0
6374 On ch=10 n=56 v=0
6420 On ch=10 n=56 v=100
6434 On ch=10 n=56 v=0
6450 On ch=10 n=36 v=100
6464 On ch=10 n=36 v=0
6480 On ch=10 n=56 v=100
6494 On ch=10 n=56 v=0
6510 On ch=10 n=40 v=100
6524 On ch=10 n=40 v=0
6540 On ch=10 n=56 v=100
6540 On ch=10 n=36 v=100
6554 On ch=10 n=36 v=0
6554 On ch=10 n=56 v=0
6570 On ch=10 n=36 v=100
6584 On ch=10 n=36 v=0
6600 On ch=10 n=56 v=100
6600 On ch=10 n=40 v=100
6614 On ch=10 n=40 v=0
6614 On ch=10 n=56 v=0
6630 On ch=10 n=40 v=100
6644 On ch=10 n=40 v=0
6660 On ch=10 n=56 v=100
6674 On ch=10 n=56 v=0
6690 On ch=10 n=40 v=100
6704 On ch=10 n=40 v=0
6720 On ch=10 n=56 v=100
6720 On ch=10 n=36 v=100
6734 On ch=10 n=36 v=0
6734 On ch=10 n=56 v=0
6750 On ch=10 n=40 v=100
6764 On ch=10 n=40 v=0
6780 On ch=10 n=56 v=100
6794 On ch=10 n=56 v=0
6810 On ch=10 n=36 v=100
6824 On ch=10 n=36 v=0
6840 On ch=10 n=56 v=100
6840 On ch=10 n=40 v=100
6854 On ch=10 n=40 v=0
6854 On ch=10 n=56 v=0
6870 On ch=10 n=40 v=100
6884 On ch=10 n=40 v=0
6900 On ch=10 n=56 v=100
6900 On ch=10 n=36 v=100
6914 On ch=10 n=36 v=0
6914 On ch=10 n=56 v=0
6930 On ch=10 n=36 v=100
6944 On ch=10 n=36 v=0
6960 On ch=10 n=56 v=100
6974 On ch=10 n=56 v=0
6990 On ch=10 n=40 v=100
7004 On ch=10 n=40 v=0
7020 On ch=10 n=56 v=100
7020 On ch=10 n=36 v=100
7034 On ch=10 n=36 v=0
7034 On ch=10 n=56 v=0
7050 On ch=10 n=40 v=100
7064 On ch=10 n=40 v=0
7080 On ch=10 n=56 v=100
7094 On ch=10 n=56 v=0
7110 On ch=10 n=36 v=100
7110 On ch=10 n=40 v=100
7124 On ch=10 n=40 v=0
7124 On ch=10 n=36 v=0
7140 On ch=10 n=56 v=100
7154 On ch=10 n=56 v=0
7170 On ch=10 n=36 v=100
7184 On ch=10 n=36 v=0
7195 On ch=10 n=38 v=80
7200 On ch=10 n=40 v=100
7209 On ch=10 n=38 v=0
7214 On ch=10 n=40 v=0
7620 On ch=10 n=38 v=100
7634 On ch=10 n=38 v=0
7680 On ch=10 n=36 v=100
7680 On ch=10 n=57 v=100
7694 On ch=10 n=57 v=0
7694 On ch=10 n=36 v=0
7740 On ch=10 n=56 v=100
7754 On ch=10 n=56 v=0
7770 On ch=10 n=36 v=100
7784 On ch=10 n=36 v=0
7800 On ch=10 n=40 v=100
7800 On ch=10 n=56 v=100
7814 On ch=10 n=56 v=0
7814 On ch=10 n=40 v=0
7860 On ch=10 n=56 v=100
7874 On ch=10 n=56 v=0
7890 On ch=10 n=36 v=100
7904 On ch=10 n=36 v=0
7920 On ch=10 n=56 v=100
7934 On ch=10 n=56 v=0
7950 On ch=10 n=40 v=100
7964 On ch=10 n=40 v=0
7980 On ch=10 n=56 v=100
7994 On ch=10 n=56 v=0
8010 On ch=10 n=40 v=100
8024 On ch=10 n=40 v=0
8040 On ch=10 n=56 v=100
8054 On ch=10 n=56 v=0
8070 On ch=10 n=40 v=100
8084 On ch=10 n=40 v=0
8100 On ch=10 n=56 v=100
8114 On ch=10 n=56 v=0
8130 On ch=10 n=36 v=100
8144 On ch=10 n=36 v=0
8155 On ch=10 n=40 v=80
8160 On ch=10 n=38 v=100
8169 On ch=10 n=40 v=0
8174 On ch=10 n=38 v=0
8580 On ch=10 n=40 v=100
8594 On ch=10 n=40 v=0
8640 On ch=10 n=49 v=100
8640 On ch=10 n=36 v=100
8654 On ch=10 n=36 v=0
8654 On ch=10 n=49 v=0
8700 On ch=10 n=56 v=100
8714 On ch=10 n=56 v=0
8730 On ch=10 n=36 v=100
8744 On ch=10 n=36 v=0
8760 On ch=10 n=56 v=100
8760 On ch=10 n=40 v=100
8774 On ch=10 n=40 v=0
8774 On ch=10 n=56 v=0
8820 On ch=10 n=56 v=100
8834 On ch=10 n=56 v=0
8850 On ch=10 n=36 v=100
8864 On ch=10 n=36 v=0
8880 On ch=10 n=56 v=100
8894 On ch=10 n=56 v=0
8910 On ch=10 n=40 v=100
8924 On ch=10 n=40 v=0
8940 On ch=10 n=56 v=100
8954 On ch=10 n=56 v=0
8970 On ch=10 n=40 v=100
8984 On ch=10 n=40 v=0
9000 On ch=10 n=56 v=100
9014 On ch=10 n=56 v=0
9030 On ch=10 n=40 v=100
9044 On ch=10 n=40 v=0
9060 On ch=10 n=56 v=100
9074 On ch=10 n=56 v=0
9090 On ch=10 n=36 v=100
9104 On ch=10 n=36 v=0
9116 On ch=10 n=38 v=80
9120 On ch=10 n=40 v=100
9130 On ch=10 n=38 v=0
9134 On ch=10 n=40 v=0
9540 On ch=10 n=40 v=100
9554 On ch=10 n=40 v=0
9600 On ch=10 n=57 v=100
9600 On ch=10 n=36 v=100
9614 On ch=10 n=36 v=0
9614 On ch=10 n=57 v=0
9660 On ch=10 n=56 v=100
9674 On ch=10 n=56 v=0
9690 On ch=10 n=36 v=100
9704 On ch=10 n=36 v=0
9720 On ch=10 n=56 v=100
9720 On ch=10 n=40 v=100
9734 On ch=10 n=40 v=0
9734 On ch=10 n=56 v=0
9780 On ch=10 n=56 v=100
9794 On ch=10 n=56 v=0
9810 On ch=10 n=36 v=100
9824 On ch=10 n=36 v=0
9840 On ch=10 n=56 v=100
9854 On ch=10 n=56 v=0
9870 On ch=10 n=40 v=100
9884 On ch=10 n=40 v=0
9900 On ch=10 n=36 v=100
9900 On ch=10 n=56 v=100
9914 On ch=10 n=56 v=0
9914 On ch=10 n=36 v=0
9930 On ch=10 n=36 v=100
9944 On ch=10 n=36 v=0
9960 On ch=10 n=56 v=100
9974 On ch=10 n=56 v=0
9990 On ch=10 n=40 v=100
10004 On ch=10 n=40 v=0
10020 On ch=10 n=56 v=100
10034 On ch=10 n=56 v=0
10080 On ch=10 n=40 v=100
10094 On ch=10 n=40 v=0
10500 On ch=10 n=40 v=100
10514 On ch=10 n=40 v=0
10560 On ch=10 n=36 v=100
10560 On ch=10 n=49 v=100
10574 On ch=10 n=49 v=0
10574 On ch=10 n=36 v=0
10620 On ch=10 n=56 v=100
10634 On ch=10 n=56 v=0
10650 On ch=10 n=36 v=100
10664 On ch=10 n=36 v=0
10680 On ch=10 n=40 v=100
10680 On ch=10 n=56 v=100
10694 On ch=10 n=56 v=0
10694 On ch=10 n=40 v=0
10740 On ch=10 n=56 v=100
10754 On ch=10 n=56 v=0
10770 On ch=10 n=36 v=100
10784 On ch=10 n=36 v=0
10800 On ch=10 n=56 v=100
10814 On ch=10 n=56 v=0
10830 On ch=10 n=40 v=100
10844 On ch=10 n=40 v=0
10860 On ch=10 n=56 v=100
10874 On ch=10 n=56 v=0
10890 On ch=10 n=40 v=100
10904 On ch=10 n=40 v=0
10920 On ch=10 n=56 v=100
10934 On ch=10 n=56 v=0
10950 On ch=10 n=40 v=100
10964 On ch=10 n=40 v=0
10980 On ch=10 n=56 v=100
10994 On ch=10 n=56 v=0
11010 On ch=10 n=36 v=100
11024 On ch=10 n=36 v=0
11035 On ch=10 n=40 v=80
11040 On ch=10 n=38 v=100
11049 On ch=10 n=40 v=0
11054 On ch=10 n=38 v=0
11250 On ch=10 n=57 v=100
11250 On ch=10 n=38 v=100
11250 On ch=10 n=35 v=100
11250 On ch=10 n=36 v=100
11253 On ch=10 n=40 v=100
11264 On ch=10 n=36 v=0
11264 On ch=10 n=35 v=0
11264 On ch=10 n=57 v=0
11264 On ch=10 n=38 v=0
11267 On ch=10 n=40 v=0
11430 On ch=10 n=40 v=100
11440 On ch=10 n=40 v=100
11444 On ch=10 n=40 v=0
11450 On ch=10 n=40 v=100
11454 On ch=10 n=40 v=0
11460 On ch=10 n=40 v=100
11464 On ch=10 n=40 v=0
11474 On ch=10 n=40 v=0
11520 On ch=10 n=36 v=100
11520 On ch=10 n=49 v=100
11534 On ch=10 n=49 v=0
11534 On ch=10 n=36 v=0
11995 Par ch=10 c=91 v=105
12000 On ch=10 n=35 v=100
12000 On ch=10 n=57 v=100
12000 On ch=10 n=36 v=100
12010 Pb ch=10 v=128
12014 On ch=10 n=36 v=0
12014 On ch=10 n=57 v=0
12014 On ch=10 n=35 v=0
12930 On ch=10 n=36 v=100
12944 On ch=10 n=36 v=0
12960 On ch=10 n=35 v=100
12974 On ch=10 n=35 v=0
13080 On ch=10 n=63 v=100
13094 On ch=10 n=63 v=0
13170 On ch=10 n=63 v=100
13184 On ch=10 n=63 v=0
13230 On ch=10 n=64 v=100
13244 On ch=10 n=64 v=0
13290 On ch=10 n=64 v=100
13304 On ch=10 n=64 v=0
13320 On ch=10 n=64 v=100
13334 On ch=10 n=64 v=0
13410 On ch=10 n=36 v=100
13424 On ch=10 n=36 v=0
13440 On ch=10 n=35 v=109
13454 On ch=10 n=35 v=0
13560 On ch=10 n=63 v=100
13574 On ch=10 n=63 v=0
13650 On ch=10 n=63 v=91
13664 On ch=10 n=63 v=0
13710 On ch=10 n=63 v=91
13724 On ch=10 n=63 v=0
13770 On ch=10 n=62 v=91
13784 On ch=10 n=62 v=0
13800 On ch=10 n=62 v=104
13814 On ch=10 n=62 v=0
13860 On ch=10 n=64 v=109
13874 On ch=10 n=64 v=0
13950 On ch=10 n=63 v=100
13964 On ch=10 n=63 v=0
13980 On ch=10 n=63 v=82
13994 On ch=10 n=63 v=0
14010 On ch=10 n=63 v=91
14024 On ch=10 n=63 v=0
14040 On ch=10 n=64 v=104
14054 On ch=10 n=64 v=0
14070 On ch=10 n=62 v=82
14084 On ch=10 n=62 v=0
14100 On ch=10 n=62 v=100
14114 On ch=10 n=62 v=0
14130 On ch=10 n=62 v=91
14144 On ch=10 n=62 v=0
14160 On ch=10 n=63 v=111
14174 On ch=10 n=63 v=0
14190 On ch=10 n=63 v=84
14204 On ch=10 n=63 v=0
14250 On ch=10 n=63 v=111
14264 On ch=10 n=63 v=0
14280 On ch=10 n=63 v=111
14294 On ch=10 n=63 v=0
14310 On ch=10 n=62 v=91
14324 On ch=10 n=62 v=0
14340 On ch=10 n=62 v=82
14354 On ch=10 n=62 v=0
14370 On ch=10 n=62 v=109
14384 On ch=10 n=62 v=0
14400 On ch=10 n=49 v=110
14400 On ch=10 n=87 v=110
14414 On ch=10 n=87 v=0
14414 On ch=10 n=49 v=0
14490 On ch=10 n=63 v=96
14504 On ch=10 n=63 v=0
14550 On ch=10 n=63 v=110
14564 On ch=10 n=63 v=0
14580 On ch=10 n=61 v=80
14594 On ch=10 n=61 v=0
14600 On ch=10 n=63 v=80
14614 On ch=10 n=63 v=0
14620 On ch=10 n=63 v=90
14634 On ch=10 n=63 v=0
14640 On ch=10 n=61 v=105
14654 On ch=10 n=61 v=0
14660 On ch=10 n=63 v=105
14674 On ch=10 n=63 v=0
14680 On ch=10 n=63 v=90
14694 On ch=10 n=63 v=0
14700 On ch=10 n=63 v=80
14714 On ch=10 n=63 v=0
14720 On ch=10 n=63 v=80
14734 On ch=10 n=63 v=0
14740 On ch=10 n=63 v=90
14754 On ch=10 n=63 v=0
14760 On ch=10 n=61 v=105
14774 On ch=10 n=61 v=0
14780 On ch=10 n=63 v=90
14794 On ch=10 n=63 v=0
14800 On ch=10 n=63 v=90
14814 On ch=10 n=63 v=0
14820 On ch=10 n=63 v=110
14834 On ch=10 n=63 v=0
14880 On ch=10 n=63 v=110
14894 On ch=10 n=63 v=0
14910 On ch=10 n=63 v=100
14924 On ch=10 n=63 v=0
14940 On ch=10 n=61 v=80
14954 On ch=10 n=61 v=0
14970 On ch=10 n=62 v=90
14984 On ch=10 n=62 v=0
15000 On ch=10 n=62 v=105
15014 On ch=10 n=62 v=0
15030 On ch=10 n=62 v=80
15044 On ch=10 n=62 v=0
15060 On ch=10 n=64 v=100
15074 On ch=10 n=64 v=0
15090 On ch=10 n=63 v=90
15104 On ch=10 n=63 v=0
15120 On ch=10 n=63 v=110
15134 On ch=10 n=63 v=0
15150 On ch=10 n=64 v=80
15164 On ch=10 n=64 v=0
15180 On ch=10 n=63 v=80
15194 On ch=10 n=63 v=0
15210 On ch=10 n=63 v=110
15224 On ch=10 n=63 v=0
15240 On ch=10 n=64 v=110
15254 On ch=10 n=64 v=0
15270 On ch=10 n=63 v=90
15284 On ch=10 n=63 v=0
15300 On ch=10 n=61 v=80
15314 On ch=10 n=61 v=0
15330 On ch=10 n=63 v=110
15344 On ch=10 n=63 v=0
15360 On ch=10 n=87 v=109
15360 On ch=10 n=57 v=109
15374 On ch=10 n=57 v=0
15374 On ch=10 n=87 v=0
15420 On ch=10 n=63 v=100
15434 On ch=10 n=63 v=0
15450 On ch=10 n=64 v=97
15464 On ch=10 n=64 v=0
15510 On ch=10 n=63 v=109
15524 On ch=10 n=63 v=0
15540 On ch=10 n=63 v=82
15554 On ch=10 n=63 v=0
15600 On ch=10 n=64 v=104
15614 On ch=10 n=64 v=0
15630 On ch=10 n=63 v=91
15644 On ch=10 n=63 v=0
15660 On ch=10 n=63 v=82
15674 On ch=10 n=63 v=0
15690 On ch=10 n=64 v=91
15704 On ch=10 n=64 v=0
15720 On ch=10 n=63 v=104
15734 On ch=10 n=63 v=0
15750 On ch=10 n=63 v=91
15764 On ch=10 n=63 v=0
15780 On ch=10 n=64 v=109
15794 On ch=10 n=64 v=0
15810 On ch=10 n=63 v=100
15824 On ch=10 n=63 v=0
15840 On ch=10 n=63 v=109
15854 On ch=10 n=63 v=0
15870 On ch=10 n=61 v=100
15884 On ch=10 n=61 v=0
15930 On ch=10 n=61 v=91
15944 On ch=10 n=61 v=0
15990 On ch=10 n=63 v=82
16004 On ch=10 n=63 v=0
16020 On ch=10 n=61 v=99
16034 On ch=10 n=61 v=0
16050 On ch=10 n=63 v=91
16064 On ch=10 n=63 v=0
16080 On ch=10 n=63 v=108
16094 On ch=10 n=63 v=0
16110 On ch=10 n=62 v=82
16124 On ch=10 n=62 v=0
16140 On ch=10 n=62 v=82
16154 On ch=10 n=62 v=0
16170 On ch=10 n=62 v=108
16184 On ch=10 n=62 v=0
16200 On ch=10 n=64 v=108
16214 On ch=10 n=64 v=0
16230 On ch=10 n=63 v=91
16244 On ch=10 n=63 v=0
16260 On ch=10 n=63 v=82
16274 On ch=10 n=63 v=0
16290 On ch=10 n=64 v=108
16304 On ch=10 n=64 v=0
16320 On ch=10 n=63 v=108
16334 On ch=10 n=63 v=0
16350 On ch=10 n=63 v=90
16364 On ch=10 n=63 v=0
16380 On ch=10 n=64 v=89
16394 On ch=10 n=64 v=0
16410 On ch=10 n=63 v=95
16424 On ch=10 n=63 v=0
16440 On ch=10 n=63 v=88
16454 On ch=10 n=63 v=0
16470 On ch=10 n=63 v=107
16484 On ch=10 n=63 v=0
16500 On ch=10 n=63 v=81
16514 On ch=10 n=63 v=0
16556 On ch=10 n=61 v=103
16560 On ch=10 n=63 v=103
16570 On ch=10 n=61 v=0
16574 On ch=10 n=63 v=0
16620 On ch=10 n=63 v=81
16634 On ch=10 n=63 v=0
16650 On ch=10 n=63 v=89
16664 On ch=10 n=63 v=0
16680 On ch=10 n=63 v=102
16694 On ch=10 n=63 v=0
16710 On ch=10 n=87 v=89
16724 On ch=10 n=87 v=0
16736 On ch=10 n=61 v=107
16740 On ch=10 n=63 v=107
16750 On ch=10 n=61 v=0
16754 On ch=10 n=63 v=0
16800 On ch=10 n=63 v=107
16814 On ch=10 n=63 v=0
16830 On ch=10 n=63 v=98
16844 On ch=10 n=63 v=0
16860 On ch=10 n=63 v=81
16874 On ch=10 n=63 v=0
16890 On ch=10 n=87 v=89
16904 On ch=10 n=87 v=0
16920 On ch=10 n=61 v=103
16920 On ch=10 n=63 v=103
16934 On ch=10 n=63 v=0
16934 On ch=10 n=61 v=0
16980 On ch=10 n=63 v=98
16994 On ch=10 n=63 v=0
17010 On ch=10 n=63 v=89
17024 On ch=10 n=63 v=0
17040 On ch=10 n=63 v=108
17054 On ch=10 n=63 v=0
17070 On ch=10 n=87 v=82
17084 On ch=10 n=87 v=0
17100 On ch=10 n=63 v=82
17114 On ch=10 n=63 v=0
17120 On ch=10 n=64 v=108
17120 On ch=10 n=87 v=108
17134 On ch=10 n=87 v=0
17134 On ch=10 n=64 v=0
17140 On ch=10 n=87 v=108
17154 On ch=10 n=87 v=0
17160 On ch=10 n=63 v=108
17160 On ch=10 n=87 v=108
17174 On ch=10 n=87 v=0
17174 On ch=10 n=63 v=0
17180 On ch=10 n=87 v=91
17180 On ch=10 n=64 v=91
17194 On ch=10 n=64 v=0
17194 On ch=10 n=87 v=0
17200 On ch=10 n=87 v=91
17214 On ch=10 n=87 v=0
17220 On ch=10 n=63 v=82
17234 On ch=10 n=63 v=0
17240 On ch=10 n=87 v=108
17240 On ch=10 n=64 v=108
17254 On ch=10 n=64 v=0
17254 On ch=10 n=87 v=0
17260 On ch=10 n=87 v=108
17274 On ch=10 n=87 v=0
17280 On ch=10 n=87 v=109
17280 On ch=10 n=63 v=109
17294 On ch=10 n=63 v=0
17294 On ch=10 n=87 v=0
17300 On ch=10 n=64 v=100
17300 On ch=10 n=87 v=100
17314 On ch=10 n=87 v=0
17314 On ch=10 n=64 v=0
17340 On ch=10 n=87 v=100
17340 On ch=10 n=63 v=100
17354 On ch=10 n=63 v=0
17354 On ch=10 n=87 v=0
17360 On ch=10 n=64 v=97
17360 On ch=10 n=87 v=97
17374 On ch=10 n=87 v=0
17374 On ch=10 n=64 v=0
17380 On ch=10 n=87 v=97
17394 On ch=10 n=87 v=0
17400 On ch=10 n=63 v=100
17400 On ch=10 n=87 v=100
17414 On ch=10 n=87 v=0
17414 On ch=10 n=63 v=0
17420 On ch=10 n=87 v=109
17420 On ch=10 n=64 v=109
17434 On ch=10 n=64 v=0
17434 On ch=10 n=87 v=0
17440 On ch=10 n=87 v=109
17454 On ch=10 n=87 v=0
17460 On ch=10 n=63 v=82
17474 On ch=10 n=63 v=0
17520 On ch=10 n=61 v=103
17520 On ch=10 n=63 v=103
17534 On ch=10 n=63 v=0
17534 On ch=10 n=61 v=0
17560 On ch=10 n=63 v=90
17574 On ch=10 n=63 v=0
17610 On ch=10 n=63 v=89
17624 On ch=10 n=63 v=0
17640 On ch=10 n=62 v=103
17654 On ch=10 n=62 v=0
17670 On ch=10 n=63 v=89
17684 On ch=10 n=63 v=0
17700 On ch=10 n=63 v=107
17714 On ch=10 n=63 v=0
17730 On ch=10 n=63 v=86
17744 On ch=10 n=63 v=0
17760 On ch=10 n=62 v=107
17774 On ch=10 n=62 v=0
17790 On ch=10 n=63 v=98
17804 On ch=10 n=63 v=0
17820 On ch=10 n=63 v=81
17834 On ch=10 n=63 v=0
17850 On ch=10 n=63 v=89
17864 On ch=10 n=63 v=0
17880 On ch=10 n=63 v=102
17894 On ch=10 n=63 v=0
17910 On ch=10 n=63 v=81
17924 On ch=10 n=63 v=0
17940 On ch=10 n=61 v=98
17954 On ch=10 n=61 v=0
18000 On ch=10 n=63 v=109
18014 On ch=10 n=63 v=0
18015 On ch=10 n=64 v=109
18029 On ch=10 n=64 v=0
18030 On ch=10 n=87 v=100
18044 On ch=10 n=87 v=0
18045 On ch=10 n=87 v=100
18059 On ch=10 n=87 v=0
18060 On ch=10 n=63 v=100
18074 On ch=10 n=63 v=0
18075 On ch=10 n=64 v=97
18089 On ch=10 n=64 v=0
18090 On ch=10 n=87 v=97
18104 On ch=10 n=87 v=0
18105 On ch=10 n=87 v=97
18119 On ch=10 n=87 v=0
18120 On ch=10 n=63 v=100
18134 On ch=10 n=63 v=0
18135 On ch=10 n=64 v=109
18149 On ch=10 n=64 v=0
18150 On ch=10 n=87 v=109
18164 On ch=10 n=87 v=0
18180 On ch=10 n=63 v=82
18194 On ch=10 n=63 v=0
18195 On ch=10 n=64 v=82
18209 On ch=10 n=64 v=0
18210 On ch=10 n=87 v=91
18224 On ch=10 n=87 v=0
18240 On ch=10 n=63 v=104
18254 On ch=10 n=63 v=0
18260 On ch=10 n=87 v=104
18260 On ch=10 n=64 v=104
18274 On ch=10 n=64 v=0
18274 On ch=10 n=87 v=0
18280 On ch=10 n=87 v=91
18294 On ch=10 n=87 v=0
18300 On ch=10 n=63 v=82
18314 On ch=10 n=63 v=0
18320 On ch=10 n=87 v=82
18320 On ch=10 n=64 v=82
18334 On ch=10 n=64 v=0
18334 On ch=10 n=87 v=0
18340 On ch=10 n=87 v=91
18354 On ch=10 n=87 v=0
18360 On ch=10 n=63 v=104
18374 On ch=10 n=63 v=0
18380 On ch=10 n=87 v=91
18380 On ch=10 n=64 v=91
18394 On ch=10 n=64 v=0
18394 On ch=10 n=87 v=0
18400 On ch=10 n=87 v=91
18414 On ch=10 n=87 v=0
18416 On ch=10 n=61 v=107
18420 On ch=10 n=63 v=109
18430 On ch=10 n=61 v=0
18434 On ch=10 n=63 v=0
18480 On ch=10 n=63 v=109
18494 On ch=10 n=63 v=0
18510 On ch=10 n=63 v=100
18524 On ch=10 n=63 v=0
18540 On ch=10 n=63 v=82
18554 On ch=10 n=63 v=0
18570 On ch=10 n=63 v=91
18584 On ch=10 n=63 v=0
18600 On ch=10 n=62 v=104
18614 On ch=10 n=62 v=0
18630 On ch=10 n=63 v=82
18644 On ch=10 n=63 v=0
18660 On ch=10 n=63 v=100
18674 On ch=10 n=63 v=0
18720 On ch=10 n=87 v=109
18734 On ch=10 n=87 v=0
18740 On ch=10 n=64 v=82
18754 On ch=10 n=64 v=0
18760 On ch=10 n=87 v=82
18760 On ch=10 n=63 v=82
18774 On ch=10 n=63 v=0
18774 On ch=10 n=87 v=0
18780 On ch=10 n=87 v=82
18794 On ch=10 n=87 v=0
18800 On ch=10 n=64 v=109
18814 On ch=10 n=64 v=0
18820 On ch=10 n=87 v=109
18820 On ch=10 n=63 v=109
18834 On ch=10 n=63 v=0
18834 On ch=10 n=87 v=0
18840 On ch=10 n=87 v=109
18854 On ch=10 n=87 v=0
18860 On ch=10 n=64 v=91
18874 On ch=10 n=64 v=0
18880 On ch=10 n=87 v=91
18880 On ch=10 n=63 v=91
18894 On ch=10 n=63 v=0
18894 On ch=10 n=87 v=0
18900 On ch=10 n=87 v=82
18914 On ch=10 n=87 v=0
18940 On ch=10 n=63 v=109
18954 On ch=10 n=63 v=0
18990 On ch=10 n=63 v=100
19004 On ch=10 n=63 v=0
19020 On ch=10 n=63 v=100
19034 On ch=10 n=63 v=0
19050 On ch=10 n=63 v=97
19064 On ch=10 n=63 v=0
19080 On ch=10 n=63 v=100
19094 On ch=10 n=63 v=0
19110 On ch=10 n=63 v=109
19124 On ch=10 n=63 v=0
19140 On ch=10 n=87 v=82
19154 On ch=10 n=87 v=0
19155 On ch=10 n=35 v=82
19155 On ch=10 n=64 v=82
19155 On ch=10 n=63 v=82
19169 On ch=10 n=63 v=0
19169 On ch=10 n=64 v=0
19169 On ch=10 n=35 v=0
19170 On ch=10 n=87 v=91
19184 On ch=10 n=87 v=0
19200 On ch=10 n=63 v=104
19200 On ch=10 n=64 v=104
19200 On ch=10 n=87 v=104
19214 On ch=10 n=87 v=0
19214 On ch=10 n=64 v=0
19214 On ch=10 n=63 v=0
19220 On ch=10 n=35 v=104
19234 On ch=10 n=35 v=0
19240 On ch=10 n=87 v=91
19254 On ch=10 n=87 v=0
19260 On ch=10 n=87 v=82
19260 On ch=10 n=63 v=82
19260 On ch=10 n=64 v=82
19274 On ch=10 n=64 v=0
19274 On ch=10 n=63 v=0
19274 On ch=10 n=87 v=0
19280 On ch=10 n=35 v=82
19294 On ch=10 n=35 v=0
19320 On ch=10 n=63 v=104
19320 On ch=10 n=64 v=104
19320 On ch=10 n=87 v=104
19334 On ch=10 n=87 v=0
19334 On ch=10 n=64 v=0
19334 On ch=10 n=63 v=0
19340 On ch=10 n=35 v=91
19354 On ch=10 n=35 v=0
19360 On ch=10 n=87 v=91
19374 On ch=10 n=87 v=0
19380 On ch=10 n=63 v=109
19394 On ch=10 n=63 v=0
19410 On ch=10 n=63 v=100
19424 On ch=10 n=63 v=0
19440 On ch=10 n=62 v=109
19454 On ch=10 n=62 v=0
19470 On ch=10 n=63 v=100
19484 On ch=10 n=63 v=0
19500 On ch=10 n=63 v=82
19514 On ch=10 n=63 v=0
19530 On ch=10 n=63 v=91
19544 On ch=10 n=63 v=0
19560 On ch=10 n=63 v=104
19574 On ch=10 n=63 v=0
19590 On ch=10 n=87 v=82
19604 On ch=10 n=87 v=0
19620 On ch=10 n=63 v=100
19634 On ch=10 n=63 v=0
19660 On ch=10 n=64 v=91
19674 On ch=10 n=64 v=0
19680 On ch=10 n=87 v=109
19694 On ch=10 n=87 v=0
19700 On ch=10 n=87 v=82
19714 On ch=10 n=87 v=0
19720 On ch=10 n=63 v=82
19734 On ch=10 n=63 v=0
19780 On ch=10 n=63 v=109
19794 On ch=10 n=63 v=0
19800 On ch=10 n=87 v=109
19814 On ch=10 n=87 v=0
19840 On ch=10 n=87 v=91
19854 On ch=10 n=87 v=0
19860 On ch=10 n=63 v=109
19874 On ch=10 n=63 v=0
19920 On ch=10 n=63 v=100
19934 On ch=10 n=63 v=0
19940 On ch=10 n=87 v=97
19954 On ch=10 n=87 v=0
19960 On ch=10 n=87 v=97
19974 On ch=10 n=87 v=0
19980 On ch=10 n=63 v=100
19994 On ch=10 n=63 v=0
20040 On ch=10 n=63 v=82
20054 On ch=10 n=63 v=0
20060 On ch=10 n=87 v=82
20074 On ch=10 n=87 v=0
20080 On ch=10 n=87 v=91
20094 On ch=10 n=87 v=0
20100 On ch=10 n=63 v=104
20114 On ch=10 n=63 v=0
20160 On ch=10 n=63 v=82
20174 On ch=10 n=63 v=0
20180 On ch=10 n=87 v=82
20194 On ch=10 n=87 v=0
20200 On ch=10 n=87 v=91
20214 On ch=10 n=87 v=0
20240 On ch=10 n=64 v=91
20254 On ch=10 n=64 v=0
20260 On ch=10 n=63 v=91
20274 On ch=10 n=63 v=0
20280 On ch=10 n=87 v=109
20294 On ch=10 n=87 v=0
20320 On ch=10 n=64 v=100
20334 On ch=10 n=64 v=0
20340 On ch=10 n=63 v=109
20354 On ch=10 n=63 v=0
20360 On ch=10 n=87 v=100
20374 On ch=10 n=87 v=0
20380 On ch=10 n=87 v=100
20394 On ch=10 n=87 v=0
20400 On ch=10 n=63 v=82
20414 On ch=10 n=63 v=0
20460 On ch=10 n=63 v=104
20474 On ch=10 n=63 v=0
20475 On ch=10 n=63 v=82
20489 On ch=10 n=63 v=0
20490 On ch=10 n=63 v=82
20504 On ch=10 n=63 v=0
20505 On ch=10 n=63 v=100
20519 On ch=10 n=63 v=0
20520 On ch=10 n=62 v=100
20534 On ch=10 n=62 v=0
20550 On ch=10 n=63 v=91
20564 On ch=10 n=63 v=0
20580 On ch=10 n=63 v=109
20594 On ch=10 n=63 v=0
20610 On ch=10 n=63 v=82
20624 On ch=10 n=63 v=0
20640 On ch=10 n=62 v=82
20640 On ch=10 n=63 v=82
20654 On ch=10 n=63 v=0
20654 On ch=10 n=62 v=0
20670 On ch=10 n=63 v=109
20684 On ch=10 n=63 v=0
20700 On ch=10 n=63 v=109
20714 On ch=10 n=63 v=0
20740 On ch=10 n=35 v=91
20754 On ch=10 n=35 v=0
20760 On ch=10 n=61 v=109
20774 On ch=10 n=61 v=0
20775 On ch=10 n=61 v=109
20789 On ch=10 n=61 v=0
20790 On ch=10 n=36 v=100
20804 On ch=10 n=36 v=0
20805 On ch=10 n=35 v=100
20819 On ch=10 n=35 v=0
20820 On ch=10 n=63 v=100
20834 On ch=10 n=63 v=0
20835 On ch=10 n=63 v=97
20849 On ch=10 n=63 v=0
20850 On ch=10 n=36 v=97
20864 On ch=10 n=36 v=0
20865 On ch=10 n=35 v=97
20879 On ch=10 n=35 v=0
20880 On ch=10 n=64 v=100
20894 On ch=10 n=64 v=0
20895 On ch=10 n=64 v=109
20909 On ch=10 n=64 v=0
20910 On ch=10 n=36 v=109
20924 On ch=10 n=36 v=0
20925 On ch=10 n=35 v=82
20939 On ch=10 n=35 v=0
20940 On ch=10 n=64 v=82
20954 On ch=10 n=64 v=0
21000 On ch=10 n=63 v=104
21014 On ch=10 n=63 v=0
21030 On ch=10 n=63 v=91
21044 On ch=10 n=63 v=0
21060 On ch=10 n=63 v=82
21074 On ch=10 n=63 v=0
21090 On ch=10 n=63 v=91
21104 On ch=10 n=63 v=0
21120 On ch=10 n=62 v=104
21134 On ch=10 n=62 v=0
21150 On ch=10 n=63 v=91
21164 On ch=10 n=63 v=0
21180 On ch=10 n=63 v=109
21194 On ch=10 n=63 v=0
21210 On ch=10 n=35 v=100
21224 On ch=10 n=35 v=0
21240 On ch=10 n=63 v=109
21254 On ch=10 n=63 v=0
21255 On ch=10 n=36 v=100
21269 On ch=10 n=36 v=0
21270 On ch=10 n=35 v=100
21284 On ch=10 n=35 v=0
21285 On ch=10 n=36 v=82
21299 On ch=10 n=36 v=0
21300 On ch=10 n=64 v=82
21314 On ch=10 n=64 v=0
21360 On ch=10 n=64 v=104
21374 On ch=10 n=64 v=0
21375 On ch=10 n=36 v=82
21389 On ch=10 n=36 v=0
21390 On ch=10 n=35 v=82
21404 On ch=10 n=35 v=0
21405 On ch=10 n=36 v=100
21419 On ch=10 n=36 v=0
21420 On ch=10 n=63 v=100
21434 On ch=10 n=63 v=0
21480 On ch=10 n=62 v=109
21494 On ch=10 n=62 v=0
21495 On ch=10 n=36 v=82
21509 On ch=10 n=36 v=0
21510 On ch=10 n=35 v=82
21524 On ch=10 n=35 v=0
21525 On ch=10 n=36 v=82
21539 On ch=10 n=36 v=0
21540 On ch=10 n=64 v=82
21554 On ch=10 n=64 v=0
21600 On ch=10 n=64 v=109
21614 On ch=10 n=64 v=0
21615 On ch=10 n=36 v=91
21629 On ch=10 n=36 v=0
21630 On ch=10 n=35 v=91
21644 On ch=10 n=35 v=0
21645 On ch=10 n=36 v=82
21659 On ch=10 n=36 v=0
21660 On ch=10 n=63 v=82
21674 On ch=10 n=63 v=0
21720 On ch=10 n=63 v=109
21734 On ch=10 n=63 v=0
21735 On ch=10 n=36 v=109
21749 On ch=10 n=36 v=0
21750 On ch=10 n=35 v=100
21764 On ch=10 n=35 v=0
21765 On ch=10 n=36 v=99
21779 On ch=10 n=36 v=0
21780 On ch=10 n=64 v=99
21794 On ch=10 n=64 v=0
21840 On ch=10 n=64 v=97
21854 On ch=10 n=64 v=0
21855 On ch=10 n=36 v=108
21869 On ch=10 n=36 v=0
21870 On ch=10 n=35 v=108
21884 On ch=10 n=35 v=0
21885 On ch=10 n=36 v=82
21899 On ch=10 n=36 v=0
21900 On ch=10 n=61 v=82
21914 On ch=10 n=61 v=0
21960 On ch=10 n=61 v=103
21974 On ch=10 n=61 v=0
21975 On ch=10 n=36 v=103
21989 On ch=10 n=36 v=0
21990 On ch=10 n=35 v=91
22004 On ch=10 n=35 v=0
22005 On ch=10 n=36 v=91
22019 On ch=10 n=36 v=0
22020 On ch=10 n=64 v=82
22034 On ch=10 n=64 v=0
22035 On ch=10 n=36 v=82
22049 On ch=10 n=36 v=0
22050 On ch=10 n=35 v=90
22064 On ch=10 n=35 v=0
22065 On ch=10 n=36 v=90
22079 On ch=10 n=36 v=0
22080 On ch=10 n=63 v=103
22094 On ch=10 n=63 v=0
22095 On ch=10 n=36 v=89
22109 On ch=10 n=36 v=0
22110 On ch=10 n=35 v=89
22124 On ch=10 n=35 v=0
22125 On ch=10 n=36 v=89
22139 On ch=10 n=36 v=0
22140 On ch=10 n=63 v=107
22154 On ch=10 n=63 v=0
22155 On ch=10 n=36 v=107
22169 On ch=10 n=36 v=0
22170 On ch=10 n=35 v=86
22184 On ch=10 n=35 v=0
22185 On ch=10 n=36 v=107
22199 On ch=10 n=36 v=0
22200 On ch=10 n=64 v=107
22214 On ch=10 n=64 v=0
22230 On ch=10 n=63 v=98
22244 On ch=10 n=63 v=0
22260 On ch=10 n=63 v=81
22274 On ch=10 n=63 v=0
22290 On ch=10 n=63 v=89
22304 On ch=10 n=63 v=0
22320 On ch=10 n=63 v=102
22334 On ch=10 n=63 v=0
22350 On ch=10 n=63 v=81
22364 On ch=10 n=63 v=0
22380 On ch=10 n=63 v=98
22394 On ch=10 n=63 v=0
22410 On ch=10 n=63 v=88
22424 On ch=10 n=63 v=0
22440 On ch=10 n=63 v=106
22454 On ch=10 n=63 v=0
22455 On ch=10 n=63 v=79
22469 On ch=10 n=63 v=0
22470 On ch=10 n=63 v=79
22484 On ch=10 n=63 v=0
22500 On ch=10 n=63 v=79
22514 On ch=10 n=63 v=0
22530 On ch=10 n=63 v=106
22544 On ch=10 n=63 v=0
22560 On ch=10 n=62 v=106
22574 On ch=10 n=62 v=0
22590 On ch=10 n=63 v=88
22604 On ch=10 n=63 v=0
22620 On ch=10 n=63 v=79
22634 On ch=10 n=63 v=0
22650 On ch=10 n=63 v=106
22664 On ch=10 n=63 v=0
22680 On ch=10 n=63 v=60
22694 On ch=10 n=63 v=0
22710 On ch=10 n=63 v=60
22724 On ch=10 n=63 v=0
22740 On ch=10 n=63 v=60
22754 On ch=10 n=63 v=0
22770 On ch=10 n=64 v=60
22784 On ch=10 n=64 v=0
22830 On ch=10 n=62 v=60
22844 On ch=10 n=62 v=0
22890 On ch=10 n=62 v=60
22904 On ch=10 n=62 v=0
22950 On ch=10 n=62 v=60
22964 On ch=10 n=62 v=0
23010 On ch=10 n=63 v=60
23024 On ch=10 n=63 v=0
23070 On ch=10 n=63 v=60
23084 On ch=10 n=63 v=0
23100 On ch=10 n=63 v=60
23114 On ch=10 n=63 v=0
23130 On ch=10 n=63 v=60
23144 On ch=10 n=63 v=0
23160 On ch=10 n=64 v=60
23174 On ch=10 n=64 v=0
23220 On ch=10 n=64 v=60
23234 On ch=10 n=64 v=0
23280 On ch=10 n=62 v=80
23294 On ch=10 n=62 v=0
23295 On ch=10 n=62 v=80
23309 On ch=10 n=62 v=0
23310 On ch=10 n=62 v=80
23324 On ch=10 n=62 v=0
23340 On ch=10 n=63 v=80
23354 On ch=10 n=63 v=0
23370 On ch=10 n=63 v=80
23384 On ch=10 n=63 v=0
23400 On ch=10 n=62 v=80
23414 On ch=10 n=62 v=0
23430 On ch=10 n=63 v=80
23444 On ch=10 n=63 v=0
23460 On ch=10 n=63 v=80
23474 On ch=10 n=63 v=0
23490 On ch=10 n=63 v=80
23504 On ch=10 n=63 v=0
23520 On ch=10 n=63 v=80
23534 On ch=10 n=63 v=0
23550 On ch=10 n=63 v=80
23564 On ch=10 n=63 v=0
23580 On ch=10 n=62 v=80
23594 On ch=10 n=62 v=0
23610 On ch=10 n=63 v=80
23624 On ch=10 n=63 v=0
23640 On ch=10 n=63 v=80
23654 On ch=10 n=63 v=0
23670 On ch=10 n=63 v=80
23684 On ch=10 n=63 v=0
23700 On ch=10 n=63 v=80
23714 On ch=10 n=63 v=0
23730 On ch=10 n=63 v=80
23744 On ch=10 n=63 v=0
23760 On ch=10 n=63 v=100
23774 On ch=10 n=63 v=0
23790 On ch=10 n=64 v=60
23804 On ch=10 n=64 v=0
23820 On ch=10 n=62 v=60
23834 On ch=10 n=62 v=0
23850 On ch=10 n=64 v=60
23864 On ch=10 n=64 v=0
23880 On ch=10 n=64 v=60
23894 On ch=10 n=64 v=0
23910 On ch=10 n=64 v=60
23924 On ch=10 n=64 v=0
23940 On ch=10 n=62 v=60
23954 On ch=10 n=62 v=0
23970 On ch=10 n=64 v=60
23984 On ch=10 n=64 v=0
24000 On ch=10 n=63 v=60
24014 On ch=10 n=63 v=0
24030 On ch=10 n=63 v=60
24044 On ch=10 n=63 v=0
24090 On ch=10 n=64 v=60
24104 On ch=10 n=64 v=0
24120 On ch=10 n=62 v=60
24134 On ch=10 n=62 v=0
24150 On ch=10 n=64 v=60
24164 On ch=10 n=64 v=0
24180 On ch=10 n=63 v=60
24194 On ch=10 n=63 v=0
24210 On ch=10 n=63 v=60
24224 On ch=10 n=63 v=0
24300 On ch=10 n=63 v=62
24314 On ch=10 n=63 v=0
24330 On ch=10 n=63 v=63
24344 On ch=10 n=63 v=0
24360 On ch=10 n=62 v=64
24374 On ch=10 n=62 v=0
24390 On ch=10 n=63 v=65
24404 On ch=10 n=63 v=0
24420 On ch=10 n=63 v=66
24434 On ch=10 n=63 v=0
24450 On ch=10 n=63 v=67
24464 On ch=10 n=63 v=0
24480 On ch=10 n=63 v=68
24494 On ch=10 n=63 v=0
24510 On ch=10 n=63 v=69
24524 On ch=10 n=63 v=0
24540 On ch=10 n=62 v=70
24554 On ch=10 n=62 v=0
24570 On ch=10 n=63 v=71
24584 On ch=10 n=63 v=0
24600 On ch=10 n=63 v=72
24614 On ch=10 n=63 v=0
24630 On ch=10 n=63 v=73
24644 On ch=10 n=63 v=0
24660 On ch=10 n=63 v=74
24674 On ch=10 n=63 v=0
24690 On ch=10 n=64 v=75
24704 On ch=10 n=64 v=0
24720 On ch=10 n=63 v=76
24734 On ch=10 n=63 v=0
24750 On ch=10 n=63 v=77
24764 On ch=10 n=63 v=0
24780 On ch=10 n=63 v=78
24794 On ch=10 n=63 v=0
24810 On ch=10 n=63 v=79
24824 On ch=10 n=63 v=0
24840 On ch=10 n=62 v=80
24854 On ch=10 n=62 v=0
24870 On ch=10 n=63 v=81
24884 On ch=10 n=63 v=0
24900 On ch=10 n=63 v=82
24914 On ch=10 n=63 v=0
24960 On ch=10 n=63 v=84
24974 On ch=10 n=63 v=0
25020 On ch=10 n=63 v=86
25034 On ch=10 n=63 v=0
25080 On ch=10 n=64 v=88
25094 On ch=10 n=64 v=0
25140 On ch=10 n=63 v=100
25154 On ch=10 n=63 v=0
25170 On ch=10 n=63 v=100
25184 On ch=10 n=63 v=0
25200 On ch=10 n=63 v=100
25214 On ch=10 n=63 v=0
25230 On ch=10 n=63 v=100
25244 On ch=10 n=63 v=0
25260 On ch=10 n=63 v=100
25274 On ch=10 n=63 v=0
25350 On ch=10 n=35 v=100
25364 On ch=10 n=35 v=0
25380 On ch=10 n=36 v=100
25394 On ch=10 n=36 v=0
25400 On ch=10 n=35 v=100
25414 On ch=10 n=35 v=0
25420 On ch=10 n=36 v=100
25434 On ch=10 n=36 v=0
25560 On ch=10 n=63 v=100
25574 On ch=10 n=63 v=0
25590 On ch=10 n=63 v=100
25604 On ch=10 n=63 v=0
25620 On ch=10 n=63 v=100
25634 On ch=10 n=63 v=0
25650 On ch=10 n=63 v=100
25664 On ch=10 n=63 v=0
25710 On ch=10 n=63 v=100
25724 On ch=10 n=63 v=0
25770 On ch=10 n=64 v=100
25784 On ch=10 n=64 v=0
25830 On ch=10 n=64 v=100
25844 On ch=10 n=64 v=0
25960 On ch=10 n=87 v=100
25974 On ch=10 n=87 v=0
25980 On ch=10 n=36 v=100
25994 On ch=10 n=36 v=0
26000 On ch=10 n=35 v=100
26014 On ch=10 n=35 v=0
26100 On ch=10 n=64 v=90
26114 On ch=10 n=64 v=0
26220 On ch=10 n=64 v=90
26234 On ch=10 n=64 v=0
26240 On ch=10 n=35 v=90
26254 On ch=10 n=35 v=0
26260 On ch=10 n=36 v=90
26274 On ch=10 n=36 v=0
26280 On ch=10 n=35 v=90
26294 On ch=10 n=35 v=0
26400 On ch=10 n=64 v=90
26414 On ch=10 n=64 v=0
26420 On ch=10 n=35 v=90
26434 On ch=10 n=35 v=0
26440 On ch=10 n=36 v=90
26454 On ch=10 n=36 v=0
26460 On ch=10 n=35 v=90
26474 On ch=10 n=35 v=0
26520 On ch=10 n=63 v=90
26534 On ch=10 n=63 v=0
26550 On ch=10 n=63 v=90
26564 On ch=10 n=63 v=0
26580 On ch=10 n=63 v=120
26594 On ch=10 n=63 v=0
26670 On ch=10 n=63 v=90
26684 On ch=10 n=63 v=0
26700 On ch=10 n=63 v=90
26714 On ch=10 n=63 v=0
26730 On ch=10 n=63 v=90
26744 On ch=10 n=63 v=0
26790 On ch=10 n=63 v=120
26804 On ch=10 n=63 v=0
26820 On ch=10 n=63 v=90
26834 On ch=10 n=63 v=0
26850 On ch=10 n=63 v=120
26864 On ch=10 n=63 v=0
26910 On ch=10 n=62 v=90
26924 On ch=10 n=62 v=0
26940 On ch=10 n=62 v=120
26954 On ch=10 n=62 v=0
27000 On ch=10 n=63 v=90
27014 On ch=10 n=63 v=0
27030 On ch=10 n=63 v=90
27044 On ch=10 n=63 v=0
27060 On ch=10 n=63 v=120
27074 On ch=10 n=63 v=0
27090 On ch=10 n=63 v=90
27104 On ch=10 n=63 v=0
27120 On ch=10 n=63 v=90
27134 On ch=10 n=63 v=0
27150 On ch=10 n=63 v=90
27164 On ch=10 n=63 v=0
27180 On ch=10 n=63 v=89
27194 On ch=10 n=63 v=0
27210 On ch=10 n=63 v=89
27224 On ch=10 n=63 v=0
27240 On ch=10 n=63 v=119
27254 On ch=10 n=63 v=0
27300 On ch=10 n=62 v=118
27314 On ch=10 n=62 v=0
27330 On ch=10 n=62 v=88
27344 On ch=10 n=62 v=0
27360 On ch=10 n=62 v=87
27374 On ch=10 n=62 v=0
27390 On ch=10 n=64 v=87
27404 On ch=10 n=64 v=0
27450 On ch=10 n=64 v=86
27464 On ch=10 n=64 v=0
27510 On ch=10 n=63 v=86
27524 On ch=10 n=63 v=0
27540 On ch=10 n=63 v=85
27554 On ch=10 n=63 v=0
27555 On ch=10 n=63 v=85
27569 On ch=10 n=63 v=0
27570 On ch=10 n=63 v=85
27584 On ch=10 n=63 v=0
27585 On ch=10 n=63 v=85
27599 On ch=10 n=63 v=0
27600 On ch=10 n=63 v=85
27614 On ch=10 n=63 v=0
27630 On ch=10 n=63 v=85
27644 On ch=10 n=63 v=0
27660 On ch=10 n=63 v=84
27674 On ch=10 n=63 v=0
27690 On ch=10 n=63 v=84
27704 On ch=10 n=63 v=0
27720 On ch=10 n=63 v=114
27734 On ch=10 n=63 v=0
27780 On ch=10 n=63 v=113
27794 On ch=10 n=63 v=0
27840 On ch=10 n=63 v=82
27854 On ch=10 n=63 v=0
27870 On ch=10 n=64 v=82
27884 On ch=10 n=64 v=0
27930 On ch=10 n=64 v=81
27944 On ch=10 n=64 v=0
27990 On ch=10 n=64 v=81
28004 On ch=10 n=64 v=0
28050 On ch=10 n=63 v=70
28064 On ch=10 n=63 v=0
28080 On ch=10 n=63 v=71
28094 On ch=10 n=63 v=0
28110 On ch=10 n=63 v=71
28124 On ch=10 n=63 v=0
28140 On ch=10 n=62 v=72
28154 On ch=10 n=62 v=0
28170 On ch=10 n=62 v=73
28184 On ch=10 n=62 v=0
28200 On ch=10 n=62 v=103
28214 On ch=10 n=62 v=0
28260 On ch=10 n=63 v=114
28274 On ch=10 n=63 v=0
28320 On ch=10 n=63 v=76
28334 On ch=10 n=63 v=0
28350 On ch=10 n=64 v=76
28364 On ch=10 n=64 v=0
28410 On ch=10 n=64 v=77
28424 On ch=10 n=64 v=0
28470 On ch=10 n=64 v=79
28484 On ch=10 n=64 v=0
28530 On ch=10 n=63 v=80
28544 On ch=10 n=63 v=0
28560 On ch=10 n=64 v=81
28574 On ch=10 n=64 v=0
28590 On ch=10 n=64 v=81
28604 On ch=10 n=64 v=0
28620 On ch=10 n=35 v=82
28620 On ch=10 n=63 v=82
28634 On ch=10 n=63 v=0
28634 On ch=10 n=35 v=0
28680 On ch=10 n=35 v=83
28680 On ch=10 n=63 v=83
28694 On ch=10 n=63 v=0
28694 On ch=10 n=35 v=0
28770 On ch=10 n=63 v=115
28770 On ch=10 n=36 v=85
28784 On ch=10 n=36 v=0
28784 On ch=10 n=63 v=0
28830 On ch=10 n=64 v=86
28844 On ch=10 n=64 v=0
28890 On ch=10 n=64 v=87
28904 On ch=10 n=64 v=0
28950 On ch=10 n=64 v=88
28964 On ch=10 n=64 v=0
28980 On ch=10 n=62 v=89
28994 On ch=10 n=62 v=0
29010 On ch=10 n=62 v=99
29024 On ch=10 n=62 v=0
29040 On ch=10 n=62 v=81
29054 On ch=10 n=62 v=0
29070 On ch=10 n=35 v=91
29084 On ch=10 n=35 v=0
29130 On ch=10 n=36 v=82
29144 On ch=10 n=36 v=0
29220 On ch=10 n=35 v=108
29234 On ch=10 n=35 v=0
29250 On ch=10 n=36 v=82
29264 On ch=10 n=36 v=0
29340 On ch=10 n=64 v=108
29354 On ch=10 n=64 v=0
29400 On ch=10 n=64 v=82
29414 On ch=10 n=64 v=0
29460 On ch=10 n=64 v=108
29474 On ch=10 n=64 v=0
29520 On ch=10 n=64 v=90
29534 On ch=10 n=64 v=0
29550 On ch=10 n=64 v=90
29564 On ch=10 n=64 v=0
29580 On ch=10 n=64 v=95
29594 On ch=10 n=64 v=0
29610 On ch=10 n=64 v=90
29624 On ch=10 n=64 v=0
29640 On ch=10 n=35 v=108
29640 On ch=10 n=64 v=108
29654 On ch=10 n=64 v=0
29654 On ch=10 n=35 v=0
29700 On ch=10 n=64 v=90
29714 On ch=10 n=64 v=0
29730 On ch=10 n=64 v=103
29744 On ch=10 n=64 v=0
29790 On ch=10 n=64 v=81
29804 On ch=10 n=64 v=0
29820 On ch=10 n=64 v=90
29834 On ch=10 n=64 v=0
29880 On ch=10 n=35 v=90
29880 On ch=10 n=64 v=90
29894 On ch=10 n=64 v=0
29894 On ch=10 n=35 v=0
29910 On ch=10 n=64 v=108
29924 On ch=10 n=64 v=0
30000 On ch=10 n=64 v=99
30014 On ch=10 n=64 v=0
30060 On ch=10 n=35 v=91
30074 On ch=10 n=35 v=0
30090 On ch=10 n=64 v=103
30104 On ch=10 n=64 v=0
30180 On ch=10 n=64 v=89
30194 On ch=10 n=64 v=0
30270 On ch=10 n=64 v=81
30284 On ch=10 n=64 v=0
30300 On ch=10 n=64 v=107
30314 On ch=10 n=64 v=0
30330 On ch=10 n=64 v=107
30344 On ch=10 n=64 v=0
30360 On ch=10 n=64 v=107
30374 On ch=10 n=64 v=0
30390 On ch=10 n=64 v=78
30404 On ch=10 n=64 v=0
30420 On ch=10 n=35 v=76
30434 On ch=10 n=35 v=0
30450 On ch=10 n=64 v=93
30464 On ch=10 n=64 v=0
30540 On ch=10 n=64 v=79
30554 On ch=10 n=64 v=0
30600 On ch=10 n=64 v=101
30614 On ch=10 n=64 v=0
30660 On ch=10 n=64 v=78
30674 On ch=10 n=64 v=0
30690 On ch=10 n=64 v=87
30704 On ch=10 n=64 v=0
30720 On ch=10 n=64 v=70
30734 On ch=10 n=64 v=0
30750 On ch=10 n=64 v=72
30764 On ch=10 n=64 v=0
30780 On ch=10 n=35 v=75
30794 On ch=10 n=35 v=0
30810 On ch=10 n=64 v=77
30824 On ch=10 n=64 v=0
30900 On ch=10 n=64 v=85
30914 On ch=10 n=64 v=0
30960 On ch=10 n=63 v=90
30974 On ch=10 n=63 v=0
31020 On ch=10 n=64 v=95
31034 On ch=10 n=64 v=0
31050 On ch=10 n=64 v=97
31064 On ch=10 n=64 v=0
31080 On ch=10 n=45 v=107
31094 On ch=10 n=45 v=0
31100 On ch=10 n=45 v=80
31114 On ch=10 n=45 v=0
31120 On ch=10 n=35 v=80
31134 On ch=10 n=35 v=0
31140 On ch=10 n=45 v=81
31154 On ch=10 n=45 v=0
31160 On ch=10 n=45 v=94
31174 On ch=10 n=45 v=0
31180 On ch=10 n=35 v=94
31194 On ch=10 n=35 v=0
31200 On ch=10 n=45 v=82
31214 On ch=10 n=45 v=0
31220 On ch=10 n=45 v=107
31234 On ch=10 n=45 v=0
31240 On ch=10 n=35 v=107
31254 On ch=10 n=35 v=0
31260 On ch=10 n=45 v=81
31274 On ch=10 n=45 v=0
31280 On ch=10 n=45 v=81
31294 On ch=10 n=45 v=0
31300 On ch=10 n=35 v=89
31314 On ch=10 n=35 v=0
31320 On ch=10 n=45 v=103
31334 On ch=10 n=45 v=0
31340 On ch=10 n=45 v=103
31354 On ch=10 n=45 v=0
31360 On ch=10 n=35 v=89
31374 On ch=10 n=35 v=0
31380 On ch=10 n=45 v=81
31394 On ch=10 n=45 v=0
31400 On ch=10 n=45 v=81
31414 On ch=10 n=45 v=0
31420 On ch=10 n=35 v=89
31434 On ch=10 n=35 v=0
31440 On ch=10 n=45 v=103
31454 On ch=10 n=45 v=0
31460 On ch=10 n=45 v=89
31474 On ch=10 n=45 v=0
31480 On ch=10 n=35 v=89
31494 On ch=10 n=35 v=0
31500 On ch=10 n=45 v=107
31514 On ch=10 n=45 v=0
31520 On ch=10 n=45 v=89
31534 On ch=10 n=45 v=0
31540 On ch=10 n=35 v=89
31554 On ch=10 n=35 v=0
31560 On ch=10 n=45 v=108
31574 On ch=10 n=45 v=0
31580 On ch=10 n=45 v=99
31594 On ch=10 n=45 v=0
31600 On ch=10 n=35 v=99
31614 On ch=10 n=35 v=0
31620 On ch=10 n=45 v=82
31634 On ch=10 n=45 v=0
31640 On ch=10 n=45 v=91
31654 On ch=10 n=45 v=0
31660 On ch=10 n=35 v=91
31674 On ch=10 n=35 v=0
31680 On ch=10 n=45 v=103
31694 On ch=10 n=45 v=0
31700 On ch=10 n=45 v=82
31714 On ch=10 n=45 v=0
31720 On ch=10 n=35 v=82
31734 On ch=10 n=35 v=0
31740 On ch=10 n=45 v=99
31754 On ch=10 n=45 v=0
31760 On ch=10 n=45 v=91
31774 On ch=10 n=45 v=0
31780 On ch=10 n=35 v=91
31794 On ch=10 n=35 v=0
31800 On ch=10 n=45 v=108
31814 On ch=10 n=45 v=0
31820 On ch=10 n=45 v=82
31834 On ch=10 n=45 v=0
31840 On ch=10 n=35 v=82
31854 On ch=10 n=35 v=0
31860 On ch=10 n=45 v=82
31874 On ch=10 n=45 v=0
31880 On ch=10 n=45 v=108
31894 On ch=10 n=45 v=0
31900 On ch=10 n=35 v=108
31914 On ch=10 n=35 v=0
31920 On ch=10 n=45 v=108
31934 On ch=10 n=45 v=0
31940 On ch=10 n=45 v=91
31954 On ch=10 n=45 v=0
31960 On ch=10 n=35 v=91
31974 On ch=10 n=35 v=0
31980 On ch=10 n=45 v=82
31994 On ch=10 n=45 v=0
32000 On ch=10 n=45 v=108
32014 On ch=10 n=45 v=0
32020 On ch=10 n=35 v=108
32034 On ch=10 n=35 v=0
32040 On ch=10 n=45 v=108
32040 On ch=10 n=35 v=108
32054 On ch=10 n=35 v=0
32054 On ch=10 n=45 v=0
32080 On ch=10 n=45 v=99
32094 On ch=10 n=45 v=0
32100 On ch=10 n=45 v=99
32100 On ch=10 n=35 v=99
32114 On ch=10 n=35 v=0
32114 On ch=10 n=45 v=0
32140 On ch=10 n=45 v=97
32154 On ch=10 n=45 v=0
32160 On ch=10 n=35 v=99
32160 On ch=10 n=45 v=99
32174 On ch=10 n=45 v=0
32174 On ch=10 n=35 v=0
32200 On ch=10 n=45 v=108
32214 On ch=10 n=45 v=0
32220 On ch=10 n=35 v=82
32220 On ch=10 n=45 v=82
32234 On ch=10 n=45 v=0
32234 On ch=10 n=35 v=0
32260 On ch=10 n=45 v=91
32274 On ch=10 n=45 v=0
32280 On ch=10 n=45 v=104
32280 On ch=10 n=35 v=104
32294 On ch=10 n=35 v=0
32294 On ch=10 n=45 v=0
32320 On ch=10 n=45 v=91
32334 On ch=10 n=45 v=0
32340 On ch=10 n=45 v=82
32340 On ch=10 n=35 v=82
32354 On ch=10 n=35 v=0
32354 On ch=10 n=45 v=0
32380 On ch=10 n=45 v=91
32394 On ch=10 n=45 v=0
32400 On ch=10 n=45 v=104
32400 On ch=10 n=35 v=104
32414 On ch=10 n=35 v=0
32414 On ch=10 n=45 v=0
32440 On ch=10 n=45 v=91
32454 On ch=10 n=45 v=0
32460 On ch=10 n=45 v=108
32460 On ch=10 n=35 v=108
32474 On ch=10 n=35 v=0
32474 On ch=10 n=45 v=0
32500 On ch=10 n=45 v=99
32514 On ch=10 n=45 v=0
32520 On ch=10 n=35 v=108
32520 On ch=10 n=45 v=108
32534 On ch=10 n=45 v=0
32534 On ch=10 n=35 v=0
32560 On ch=10 n=45 v=99
32574 On ch=10 n=45 v=0
32580 On ch=10 n=35 v=82
32594 On ch=10 n=35 v=0
32600 On ch=10 n=45 v=91
32614 On ch=10 n=45 v=0
32620 On ch=10 n=43 v=91
32634 On ch=10 n=43 v=0
32640 On ch=10 n=35 v=104
32654 On ch=10 n=35 v=0
32660 On ch=10 n=45 v=82
32660 On ch=10 n=36 v=82
32674 On ch=10 n=36 v=0
32674 On ch=10 n=45 v=0
32680 On ch=10 n=43 v=82
32694 On ch=10 n=43 v=0
32700 On ch=10 n=35 v=99
32714 On ch=10 n=35 v=0
32720 On ch=10 n=45 v=91
32720 On ch=10 n=36 v=91
32734 On ch=10 n=36 v=0
32734 On ch=10 n=45 v=0
32740 On ch=10 n=43 v=91
32754 On ch=10 n=43 v=0
32760 On ch=10 n=35 v=108
32774 On ch=10 n=35 v=0
32780 On ch=10 n=45 v=82
32780 On ch=10 n=36 v=82
32794 On ch=10 n=36 v=0
32794 On ch=10 n=45 v=0
32800 On ch=10 n=43 v=82
32814 On ch=10 n=43 v=0
32820 On ch=10 n=35 v=82
32834 On ch=10 n=35 v=0
32840 On ch=10 n=45 v=108
32840 On ch=10 n=36 v=108
32854 On ch=10 n=36 v=0
32854 On ch=10 n=45 v=0
32860 On ch=10 n=43 v=108
32874 On ch=10 n=43 v=0
32880 On ch=10 n=35 v=108
32894 On ch=10 n=35 v=0
32900 On ch=10 n=45 v=91
32900 On ch=10 n=36 v=91
32914 On ch=10 n=36 v=0
32914 On ch=10 n=45 v=0
32920 On ch=10 n=43 v=91
32934 On ch=10 n=43 v=0
32940 On ch=10 n=35 v=82
32954 On ch=10 n=35 v=0
32960 On ch=10 n=45 v=108
32960 On ch=10 n=36 v=108
32974 On ch=10 n=36 v=0
32974 On ch=10 n=45 v=0
32980 On ch=10 n=43 v=108
32994 On ch=10 n=43 v=0
33000 On ch=10 n=35 v=108
33000 On ch=10 n=45 v=108
33014 On ch=10 n=45 v=0
33014 On ch=10 n=35 v=0
33040 On ch=10 n=45 v=99
33054 On ch=10 n=45 v=0
33060 On ch=10 n=35 v=99
33074 On ch=10 n=35 v=0
33080 On ch=10 n=45 v=97
33094 On ch=10 n=45 v=0
33100 On ch=10 n=43 v=97
33114 On ch=10 n=43 v=0
33120 On ch=10 n=35 v=99
33134 On ch=10 n=35 v=0
33140 On ch=10 n=45 v=108
33140 On ch=10 n=36 v=108
33154 On ch=10 n=36 v=0
33154 On ch=10 n=45 v=0
33160 On ch=10 n=43 v=108
33174 On ch=10 n=43 v=0
33180 On ch=10 n=35 v=82
33194 On ch=10 n=35 v=0
33200 On ch=10 n=45 v=82
33200 On ch=10 n=36 v=82
33214 On ch=10 n=36 v=0
33214 On ch=10 n=45 v=0
33220 On ch=10 n=43 v=91
33234 On ch=10 n=43 v=0
33240 On ch=10 n=35 v=104
33254 On ch=10 n=35 v=0
33260 On ch=10 n=45 v=104
33260 On ch=10 n=36 v=104
33274 On ch=10 n=36 v=0
33274 On ch=10 n=45 v=0
33280 On ch=10 n=43 v=91
33294 On ch=10 n=43 v=0
33300 On ch=10 n=35 v=82
33314 On ch=10 n=35 v=0
33320 On ch=10 n=45 v=82
33320 On ch=10 n=36 v=82
33334 On ch=10 n=36 v=0
33334 On ch=10 n=45 v=0
33340 On ch=10 n=43 v=91
33354 On ch=10 n=43 v=0
33360 On ch=10 n=35 v=104
33374 On ch=10 n=35 v=0
33380 On ch=10 n=45 v=91
33380 On ch=10 n=36 v=91
33394 On ch=10 n=36 v=0
33394 On ch=10 n=45 v=0
33400 On ch=10 n=43 v=91
33414 On ch=10 n=43 v=0
33420 On ch=10 n=35 v=108
33434 On ch=10 n=35 v=0
33440 On ch=10 n=45 v=99
33440 On ch=10 n=36 v=99
33454 On ch=10 n=36 v=0
33454 On ch=10 n=45 v=0
33460 On ch=10 n=43 v=99
33474 On ch=10 n=43 v=0
33480 On ch=10 n=45 v=108
33480 On ch=10 n=35 v=108
33494 On ch=10 n=35 v=0
33494 On ch=10 n=45 v=0
33500 On ch=10 n=43 v=99
33514 On ch=10 n=43 v=0
33520 On ch=10 n=45 v=99
33520 On ch=10 n=36 v=99
33534 On ch=10 n=36 v=0
33534 On ch=10 n=45 v=0
33540 On ch=10 n=45 v=82
33540 On ch=10 n=35 v=82
33554 On ch=10 n=35 v=0
33554 On ch=10 n=45 v=0
33560 On ch=10 n=43 v=91
33574 On ch=10 n=43 v=0
33580 On ch=10 n=47 v=91
33580 On ch=10 n=36 v=91
33594 On ch=10 n=36 v=0
33594 On ch=10 n=47 v=0
33600 On ch=10 n=45 v=104
33600 On ch=10 n=35 v=104
33614 On ch=10 n=35 v=0
33614 On ch=10 n=45 v=0
33620 On ch=10 n=43 v=82
33634 On ch=10 n=43 v=0
33640 On ch=10 n=45 v=82
33640 On ch=10 n=36 v=82
33654 On ch=10 n=36 v=0
33654 On ch=10 n=45 v=0
33660 On ch=10 n=45 v=99
33660 On ch=10 n=35 v=99
33674 On ch=10 n=35 v=0
33674 On ch=10 n=45 v=0
33680 On ch=10 n=43 v=91
33694 On ch=10 n=43 v=0
33700 On ch=10 n=47 v=91
33700 On ch=10 n=36 v=91
33714 On ch=10 n=36 v=0
33714 On ch=10 n=47 v=0
33720 On ch=10 n=45 v=108
33720 On ch=10 n=35 v=108
33734 On ch=10 n=35 v=0
33734 On ch=10 n=45 v=0
33740 On ch=10 n=43 v=82
33754 On ch=10 n=43 v=0
33760 On ch=10 n=45 v=82
33760 On ch=10 n=36 v=82
33774 On ch=10 n=36 v=0
33774 On ch=10 n=45 v=0
33780 On ch=10 n=45 v=82
33780 On ch=10 n=35 v=82
33794 On ch=10 n=35 v=0
33794 On ch=10 n=45 v=0
33800 On ch=10 n=43 v=108
33814 On ch=10 n=43 v=0
33820 On ch=10 n=47 v=108
33820 On ch=10 n=36 v=108
33834 On ch=10 n=36 v=0
33834 On ch=10 n=47 v=0
33840 On ch=10 n=45 v=108
33840 On ch=10 n=35 v=108
33854 On ch=10 n=35 v=0
33854 On ch=10 n=45 v=0
33860 On ch=10 n=43 v=91
33874 On ch=10 n=43 v=0
33880 On ch=10 n=45 v=91
33880 On ch=10 n=36 v=91
33894 On ch=10 n=36 v=0
33894 On ch=10 n=45 v=0
33900 On ch=10 n=45 v=82
33900 On ch=10 n=35 v=82
33914 On ch=10 n=35 v=0
33914 On ch=10 n=45 v=0
33920 On ch=10 n=43 v=108
33934 On ch=10 n=43 v=0
33940 On ch=10 n=47 v=108
33940 On ch=10 n=36 v=108
33954 On ch=10 n=36 v=0
33954 On ch=10 n=47 v=0
33960 On ch=10 n=45 v=108
33960 On ch=10 n=35 v=108
33974 On ch=10 n=35 v=0
33974 On ch=10 n=45 v=0
33980 On ch=10 n=43 v=99
33994 On ch=10 n=43 v=0
34000 On ch=10 n=45 v=99
34000 On ch=10 n=36 v=99
34014 On ch=10 n=36 v=0
34014 On ch=10 n=45 v=0
34020 On ch=10 n=45 v=99
34020 On ch=10 n=35 v=99
34034 On ch=10 n=35 v=0
34034 On ch=10 n=45 v=0
34040 On ch=10 n=43 v=97
34054 On ch=10 n=43 v=0
34060 On ch=10 n=47 v=97
34060 On ch=10 n=36 v=97
34074 On ch=10 n=36 v=0
34074 On ch=10 n=47 v=0
34080 On ch=10 n=45 v=99
34080 On ch=10 n=35 v=99
34094 On ch=10 n=35 v=0
34094 On ch=10 n=45 v=0
34100 On ch=10 n=43 v=108
34114 On ch=10 n=43 v=0
34120 On ch=10 n=45 v=108
34120 On ch=10 n=36 v=108
34134 On ch=10 n=36 v=0
34134 On ch=10 n=45 v=0
34140 On ch=10 n=45 v=82
34140 On ch=10 n=35 v=82
34154 On ch=10 n=35 v=0
34154 On ch=10 n=45 v=0
34160 On ch=10 n=43 v=82
34174 On ch=10 n=43 v=0
34180 On ch=10 n=47 v=91
34180 On ch=10 n=36 v=91
34194 On ch=10 n=36 v=0
34194 On ch=10 n=47 v=0
34200 On ch=10 n=45 v=104
34200 On ch=10 n=35 v=104
34214 On ch=10 n=35 v=0
34214 On ch=10 n=45 v=0
34220 On ch=10 n=43 v=104
34234 On ch=10 n=43 v=0
34240 On ch=10 n=45 v=91
34240 On ch=10 n=36 v=91
34254 On ch=10 n=36 v=0
34254 On ch=10 n=45 v=0
34260 On ch=10 n=45 v=82
34260 On ch=10 n=35 v=82
34274 On ch=10 n=35 v=0
34274 On ch=10 n=45 v=0
34280 On ch=10 n=43 v=82
34294 On ch=10 n=43 v=0
34300 On ch=10 n=47 v=91
34300 On ch=10 n=36 v=91
34314 On ch=10 n=36 v=0
34314 On ch=10 n=47 v=0
34320 On ch=10 n=45 v=104
34320 On ch=10 n=35 v=104
34334 On ch=10 n=35 v=0
34334 On ch=10 n=45 v=0
34340 On ch=10 n=43 v=91
34354 On ch=10 n=43 v=0
34360 On ch=10 n=45 v=91
34360 On ch=10 n=36 v=91
34374 On ch=10 n=36 v=0
34374 On ch=10 n=45 v=0
34380 On ch=10 n=45 v=108
34380 On ch=10 n=35 v=108
34394 On ch=10 n=35 v=0
34394 On ch=10 n=45 v=0
34400 On ch=10 n=43 v=99
34414 On ch=10 n=43 v=0
34420 On ch=10 n=47 v=99
34420 On ch=10 n=36 v=99
34434 On ch=10 n=36 v=0
34434 On ch=10 n=47 v=0
34440 On ch=10 n=45 v=108
34440 On ch=10 n=35 v=108
34454 On ch=10 n=35 v=0
34454 On ch=10 n=45 v=0
34460 On ch=10 n=43 v=99
34474 On ch=10 n=43 v=0
34480 On ch=10 n=45 v=99
34480 On ch=10 n=36 v=99
34494 On ch=10 n=36 v=0
34494 On ch=10 n=45 v=0
34500 On ch=10 n=45 v=82
34500 On ch=10 n=35 v=82
34514 On ch=10 n=35 v=0
34514 On ch=10 n=45 v=0
34520 On ch=10 n=43 v=91
34534 On ch=10 n=43 v=0
34540 On ch=10 n=47 v=91
34540 On ch=10 n=36 v=91
34554 On ch=10 n=36 v=0
34554 On ch=10 n=47 v=0
34560 On ch=10 n=45 v=104
34560 On ch=10 n=35 v=104
34574 On ch=10 n=35 v=0
34574 On ch=10 n=45 v=0
34580 On ch=10 n=43 v=82
34594 On ch=10 n=43 v=0
34600 On ch=10 n=45 v=82
34600 On ch=10 n=36 v=82
34614 On ch=10 n=36 v=0
34614 On ch=10 n=45 v=0
34620 On ch=10 n=45 v=99
34620 On ch=10 n=35 v=99
34634 On ch=10 n=35 v=0
34634 On ch=10 n=45 v=0
34640 On ch=10 n=43 v=91
34654 On ch=10 n=43 v=0
34660 On ch=10 n=47 v=91
34660 On ch=10 n=36 v=91
34674 On ch=10 n=36 v=0
34674 On ch=10 n=47 v=0
34680 On ch=10 n=45 v=108
34680 On ch=10 n=35 v=108
34694 On ch=10 n=35 v=0
34694 On ch=10 n=45 v=0
34700 On ch=10 n=43 v=82
34714 On ch=10 n=43 v=0
34720 On ch=10 n=45 v=82
34720 On ch=10 n=36 v=82
34734 On ch=10 n=36 v=0
34734 On ch=10 n=45 v=0
34740 On ch=10 n=45 v=82
34740 On ch=10 n=35 v=82
34754 On ch=10 n=35 v=0
34754 On ch=10 n=45 v=0
34760 On ch=10 n=43 v=108
34774 On ch=10 n=43 v=0
34780 On ch=10 n=47 v=108
34780 On ch=10 n=36 v=108
34794 On ch=10 n=36 v=0
34794 On ch=10 n=47 v=0
34800 On ch=10 n=45 v=108
34800 On ch=10 n=35 v=108
34814 On ch=10 n=35 v=0
34814 On ch=10 n=45 v=0
34820 On ch=10 n=43 v=91
34834 On ch=10 n=43 v=0
34840 On ch=10 n=45 v=91
34840 On ch=10 n=36 v=91
34854 On ch=10 n=36 v=0
34854 On ch=10 n=45 v=0
34860 On ch=10 n=45 v=82
34860 On ch=10 n=35 v=82
34874 On ch=10 n=35 v=0
34874 On ch=10 n=45 v=0
34880 On ch=10 n=43 v=108
34894 On ch=10 n=43 v=0
34900 On ch=10 n=47 v=108
34900 On ch=10 n=36 v=108
34914 On ch=10 n=36 v=0
34914 On ch=10 n=47 v=0
34920 On ch=10 n=45 v=108
34920 On ch=10 n=35 v=108
34934 On ch=10 n=35 v=0
34934 On ch=10 n=45 v=0
34940 On ch=10 n=43 v=99
34954 On ch=10 n=43 v=0
34960 On ch=10 n=45 v=99
34960 On ch=10 n=36 v=99
34974 On ch=10 n=36 v=0
34974 On ch=10 n=45 v=0
34980 On ch=10 n=45 v=99
34980 On ch=10 n=35 v=99
34994 On ch=10 n=35 v=0
34994 On ch=10 n=45 v=0
35000 On ch=10 n=43 v=97
35014 On ch=10 n=43 v=0
35020 On ch=10 n=47 v=97
35020 On ch=10 n=36 v=97
35034 On ch=10 n=36 v=0
35034 On ch=10 n=47 v=0
35040 On ch=10 n=45 v=99
35040 On ch=10 n=35 v=99
35054 On ch=10 n=35 v=0
35054 On ch=10 n=45 v=0
35060 On ch=10 n=43 v=108
35074 On ch=10 n=43 v=0
35080 On ch=10 n=45 v=108
35080 On ch=10 n=36 v=108
35094 On ch=10 n=36 v=0
35094 On ch=10 n=45 v=0
35100 On ch=10 n=45 v=82
35100 On ch=10 n=35 v=82
35114 On ch=10 n=35 v=0
35114 On ch=10 n=45 v=0
35120 On ch=10 n=43 v=82
35134 On ch=10 n=43 v=0
35140 On ch=10 n=47 v=91
35140 On ch=10 n=36 v=91
35154 On ch=10 n=36 v=0
35154 On ch=10 n=47 v=0
35160 On ch=10 n=45 v=104
35160 On ch=10 n=35 v=104
35174 On ch=10 n=35 v=0
35174 On ch=10 n=45 v=0
35180 On ch=10 n=43 v=104
35194 On ch=10 n=43 v=0
35200 On ch=10 n=45 v=91
35200 On ch=10 n=36 v=91
35214 On ch=10 n=36 v=0
35214 On ch=10 n=45 v=0
35220 On ch=10 n=45 v=82
35220 On ch=10 n=35 v=82
35234 On ch=10 n=35 v=0
35234 On ch=10 n=45 v=0
35240 On ch=10 n=43 v=82
35254 On ch=10 n=43 v=0
35260 On ch=10 n=47 v=91
35260 On ch=10 n=36 v=91
35274 On ch=10 n=36 v=0
35274 On ch=10 n=47 v=0
35280 On ch=10 n=45 v=104
35280 On ch=10 n=35 v=104
35294 On ch=10 n=35 v=0
35294 On ch=10 n=45 v=0
35300 On ch=10 n=43 v=91
35314 On ch=10 n=43 v=0
35320 On ch=10 n=45 v=91
35320 On ch=10 n=36 v=91
35334 On ch=10 n=36 v=0
35334 On ch=10 n=45 v=0
35340 On ch=10 n=45 v=108
35340 On ch=10 n=35 v=108
35354 On ch=10 n=35 v=0
35354 On ch=10 n=45 v=0
35360 On ch=10 n=43 v=99
35374 On ch=10 n=43 v=0
35380 On ch=10 n=47 v=99
35380 On ch=10 n=36 v=99
35394 On ch=10 n=36 v=0
35394 On ch=10 n=47 v=0
35400 On ch=10 n=45 v=108
35400 On ch=10 n=35 v=108
35414 On ch=10 n=35 v=0
35414 On ch=10 n=45 v=0
35420 On ch=10 n=43 v=99
35434 On ch=10 n=43 v=0
35440 On ch=10 n=45 v=99
35440 On ch=10 n=36 v=99
35454 On ch=10 n=36 v=0
35454 On ch=10 n=45 v=0
35460 On ch=10 n=45 v=82
35460 On ch=10 n=35 v=82
35474 On ch=10 n=35 v=0
35474 On ch=10 n=45 v=0
35480 On ch=10 n=43 v=91
35494 On ch=10 n=43 v=0
35500 On ch=10 n=47 v=91
35500 On ch=10 n=36 v=91
35514 On ch=10 n=36 v=0
35514 On ch=10 n=47 v=0
35520 On ch=10 n=45 v=104
35520 On ch=10 n=35 v=104
35534 On ch=10 n=35 v=0
35534 On ch=10 n=45 v=0
35540 On ch=10 n=43 v=82
35554 On ch=10 n=43 v=0
35560 On ch=10 n=45 v=82
35560 On ch=10 n=36 v=82
35574 On ch=10 n=36 v=0
35574 On ch=10 n=45 v=0
35580 On ch=10 n=45 v=99
35580 On ch=10 n=35 v=99
35594 On ch=10 n=35 v=0
35594 On ch=10 n=45 v=0
35600 On ch=10 n=43 v=91
35614 On ch=10 n=43 v=0
35620 On ch=10 n=47 v=91
35620 On ch=10 n=36 v=91
35634 On ch=10 n=36 v=0
35634 On ch=10 n=47 v=0
35640 On ch=10 n=45 v=108
35640 On ch=10 n=35 v=108
35654 On ch=10 n=35 v=0
35654 On ch=10 n=45 v=0
35660 On ch=10 n=43 v=82
35674 On ch=10 n=43 v=0
35680 On ch=10 n=45 v=82
35680 On ch=10 n=36 v=82
35694 On ch=10 n=36 v=0
35694 On ch=10 n=45 v=0
35700 On ch=10 n=45 v=82
35700 On ch=10 n=35 v=82
35714 On ch=10 n=35 v=0
35714 On ch=10 n=45 v=0
35720 On ch=10 n=43 v=108
35734 On ch=10 n=43 v=0
35740 On ch=10 n=47 v=108
35740 On ch=10 n=36 v=108
35754 On ch=10 n=36 v=0
35754 On ch=10 n=47 v=0
35760 On ch=10 n=45 v=108
35760 On ch=10 n=35 v=108
35774 On ch=10 n=35 v=0
35774 On ch=10 n=45 v=0
35780 On ch=10 n=43 v=91
35794 On ch=10 n=43 v=0
35800 On ch=10 n=45 v=91
35800 On ch=10 n=36 v=91
35814 On ch=10 n=36 v=0
35814 On ch=10 n=45 v=0
35820 On ch=10 n=45 v=82
35820 On ch=10 n=35 v=82
35834 On ch=10 n=35 v=0
35834 On ch=10 n=45 v=0
35840 On ch=10 n=43 v=108
35854 On ch=10 n=43 v=0
35860 On ch=10 n=47 v=108
35860 On ch=10 n=36 v=108
35874 On ch=10 n=36 v=0
35874 On ch=10 n=47 v=0
35880 On ch=10 n=45 v=108
35880 On ch=10 n=35 v=108
35894 On ch=10 n=35 v=0
35894 On ch=10 n=45 v=0
35900 On ch=10 n=43 v=99
35914 On ch=10 n=43 v=0
35920 On ch=10 n=45 v=99
35920 On ch=10 n=36 v=99
35934 On ch=10 n=36 v=0
35934 On ch=10 n=45 v=0
35940 On ch=10 n=45 v=99
35940 On ch=10 n=35 v=99
35954 On ch=10 n=35 v=0
35954 On ch=10 n=45 v=0
35960 On ch=10 n=43 v=97
35974 On ch=10 n=43 v=0
35980 On ch=10 n=47 v=97
35980 On ch=10 n=36 v=97
35994 On ch=10 n=36 v=0
35994 On ch=10 n=47 v=0
36000 On ch=10 n=45 v=99
36000 On ch=10 n=35 v=99
36014 On ch=10 n=35 v=0
36014 On ch=10 n=45 v=0
36020 On ch=10 n=43 v=108
36034 On ch=10 n=43 v=0
36040 On ch=10 n=45 v=108
36040 On ch=10 n=36 v=108
36054 On ch=10 n=36 v=0
36054 On ch=10 n=45 v=0
36060 On ch=10 n=45 v=82
36060 On ch=10 n=35 v=82
36074 On ch=10 n=35 v=0
36074 On ch=10 n=45 v=0
36080 On ch=10 n=43 v=82
36094 On ch=10 n=43 v=0
36100 On ch=10 n=47 v=91
36100 On ch=10 n=36 v=91
36114 On ch=10 n=36 v=0
36114 On ch=10 n=47 v=0
36120 On ch=10 n=45 v=104
36120 On ch=10 n=35 v=104
36134 On ch=10 n=35 v=0
36134 On ch=10 n=45 v=0
36140 On ch=10 n=43 v=104
36154 On ch=10 n=43 v=0
36160 On ch=10 n=45 v=91
36160 On ch=10 n=36 v=91
36174 On ch=10 n=36 v=0
36174 On ch=10 n=45 v=0
36180 On ch=10 n=45 v=82
36180 On ch=10 n=35 v=82
36194 On ch=10 n=35 v=0
36194 On ch=10 n=45 v=0
36200 On ch=10 n=43 v=82
36214 On ch=10 n=43 v=0
36220 On ch=10 n=47 v=91
36220 On ch=10 n=36 v=91
36234 On ch=10 n=36 v=0
36234 On ch=10 n=47 v=0
36240 On ch=10 n=45 v=104
36240 On ch=10 n=35 v=104
36254 On ch=10 n=35 v=0
36254 On ch=10 n=45 v=0
36260 On ch=10 n=43 v=91
36274 On ch=10 n=43 v=0
36280 On ch=10 n=45 v=91
36280 On ch=10 n=36 v=91
36294 On ch=10 n=36 v=0
36294 On ch=10 n=45 v=0
36300 On ch=10 n=45 v=108
36300 On ch=10 n=35 v=108
36314 On ch=10 n=35 v=0
36314 On ch=10 n=45 v=0
36320 On ch=10 n=43 v=99
36334 On ch=10 n=43 v=0
36340 On ch=10 n=47 v=99
36340 On ch=10 n=36 v=99
36354 On ch=10 n=36 v=0
36354 On ch=10 n=47 v=0
36360 On ch=10 n=45 v=108
36360 On ch=10 n=35 v=108
36374 On ch=10 n=35 v=0
36374 On ch=10 n=45 v=0
36380 On ch=10 n=43 v=99
36394 On ch=10 n=43 v=0
36400 On ch=10 n=45 v=99
36400 On ch=10 n=36 v=99
36414 On ch=10 n=36 v=0
36414 On ch=10 n=45 v=0
36420 On ch=10 n=45 v=82
36420 On ch=10 n=35 v=82
36434 On ch=10 n=35 v=0
36434 On ch=10 n=45 v=0
36440 On ch=10 n=43 v=91
36454 On ch=10 n=43 v=0
36460 On ch=10 n=47 v=91
36460 On ch=10 n=36 v=91
36474 On ch=10 n=36 v=0
36474 On ch=10 n=47 v=0
36480 On ch=10 n=45 v=104
36480 On ch=10 n=35 v=104
36494 On ch=10 n=35 v=0
36494 On ch=10 n=45 v=0
36500 On ch=10 n=43 v=82
36514 On ch=10 n=43 v=0
36520 On ch=10 n=45 v=82
36520 On ch=10 n=36 v=82
36534 On ch=10 n=36 v=0
36534 On ch=10 n=45 v=0
36540 On ch=10 n=45 v=99
36540 On ch=10 n=35 v=99
36554 On ch=10 n=35 v=0
36554 On ch=10 n=45 v=0
36560 On ch=10 n=43 v=91
36574 On ch=10 n=43 v=0
36580 On ch=10 n=47 v=91
36580 On ch=10 n=36 v=91
36594 On ch=10 n=36 v=0
36594 On ch=10 n=47 v=0
36600 On ch=10 n=45 v=108
36600 On ch=10 n=35 v=108
36614 On ch=10 n=35 v=0
36614 On ch=10 n=45 v=0
36620 On ch=10 n=43 v=82
36634 On ch=10 n=43 v=0
36640 On ch=10 n=45 v=82
36640 On ch=10 n=36 v=82
36654 On ch=10 n=36 v=0
36654 On ch=10 n=45 v=0
36660 On ch=10 n=45 v=82
36660 On ch=10 n=35 v=82
36674 On ch=10 n=35 v=0
36674 On ch=10 n=45 v=0
36680 On ch=10 n=43 v=108
36694 On ch=10 n=43 v=0
36700 On ch=10 n=47 v=108
36700 On ch=10 n=36 v=108
36714 On ch=10 n=36 v=0
36714 On ch=10 n=47 v=0
36720 On ch=10 n=45 v=108
36720 On ch=10 n=35 v=108
36734 On ch=10 n=35 v=0
36734 On ch=10 n=45 v=0
36740 On ch=10 n=43 v=91
36754 On ch=10 n=43 v=0
36760 On ch=10 n=45 v=91
36760 On ch=10 n=36 v=91
36774 On ch=10 n=36 v=0
36774 On ch=10 n=45 v=0
36780 On ch=10 n=45 v=82
36780 On ch=10 n=35 v=82
36794 On ch=10 n=35 v=0
36794 On ch=10 n=45 v=0
36800 On ch=10 n=43 v=108
36814 On ch=10 n=43 v=0
36820 On ch=10 n=47 v=108
36820 On ch=10 n=36 v=108
36834 On ch=10 n=36 v=0
36834 On ch=10 n=47 v=0
36840 On ch=10 n=45 v=108
36840 On ch=10 n=35 v=108
36854 On ch=10 n=35 v=0
36854 On ch=10 n=45 v=0
36860 On ch=10 n=43 v=99
36874 On ch=10 n=43 v=0
36880 On ch=10 n=45 v=99
36880 On ch=10 n=36 v=99
36894 On ch=10 n=36 v=0
36894 On ch=10 n=45 v=0
36900 On ch=10 n=45 v=99
36900 On ch=10 n=35 v=99
36914 On ch=10 n=35 v=0
36914 On ch=10 n=45 v=0
36920 On ch=10 n=43 v=97
36934 On ch=10 n=43 v=0
36940 On ch=10 n=47 v=97
36940 On ch=10 n=36 v=97
36954 On ch=10 n=36 v=0
36954 On ch=10 n=47 v=0
36960 On ch=10 n=45 v=99
36960 On ch=10 n=35 v=99
36974 On ch=10 n=35 v=0
36974 On ch=10 n=45 v=0
36980 On ch=10 n=43 v=108
36994 On ch=10 n=43 v=0
37000 On ch=10 n=45 v=108
37000 On ch=10 n=36 v=108
37014 On ch=10 n=36 v=0
37014 On ch=10 n=45 v=0
37020 On ch=10 n=45 v=82
37020 On ch=10 n=35 v=82
37034 On ch=10 n=35 v=0
37034 On ch=10 n=45 v=0
37040 On ch=10 n=43 v=82
37054 On ch=10 n=43 v=0
37060 On ch=10 n=47 v=91
37060 On ch=10 n=36 v=91
37074 On ch=10 n=36 v=0
37074 On ch=10 n=47 v=0
37080 On ch=10 n=35 v=104
37094 On ch=10 n=35 v=0
37100 On ch=10 n=43 v=104
37114 On ch=10 n=43 v=0
37120 On ch=10 n=36 v=91
37134 On ch=10 n=36 v=0
37140 On ch=10 n=35 v=82
37154 On ch=10 n=35 v=0
37160 On ch=10 n=43 v=82
37174 On ch=10 n=43 v=0
37180 On ch=10 n=36 v=91
37194 On ch=10 n=36 v=0
37200 On ch=10 n=35 v=104
37214 On ch=10 n=35 v=0
37220 On ch=10 n=43 v=91
37234 On ch=10 n=43 v=0
37240 On ch=10 n=36 v=91
37254 On ch=10 n=36 v=0
37260 On ch=10 n=35 v=108
37274 On ch=10 n=35 v=0
37280 On ch=10 n=43 v=99
37294 On ch=10 n=43 v=0
37300 On ch=10 n=36 v=99
37314 On ch=10 n=36 v=0
37320 On ch=10 n=35 v=108
37334 On ch=10 n=35 v=0
37340 On ch=10 n=43 v=99
37354 On ch=10 n=43 v=0
37360 On ch=10 n=36 v=99
37374 On ch=10 n=36 v=0
37380 On ch=10 n=35 v=82
37394 On ch=10 n=35 v=0
37400 On ch=10 n=43 v=91
37414 On ch=10 n=43 v=0
37420 On ch=10 n=36 v=91
37434 On ch=10 n=36 v=0
37440 On ch=10 n=35 v=104
37454 On ch=10 n=35 v=0
37480 On ch=10 n=36 v=82
37494 On ch=10 n=36 v=0
37500 On ch=10 n=40 v=99
37514 On ch=10 n=40 v=0
37620 On ch=10 n=40 v=82
37634 On ch=10 n=40 v=0
37635 On ch=10 n=47 v=108
37649 On ch=10 n=47 v=0
37665 On ch=10 n=36 v=108
37679 On ch=10 n=36 v=0
37680 On ch=10 n=35 v=108
37694 On ch=10 n=35 v=0
37800 On ch=10 n=40 v=108
37814 On ch=10 n=40 v=0
37920 On ch=10 n=43 v=99
37934 On ch=10 n=43 v=0
37940 On ch=10 n=45 v=108
37954 On ch=10 n=45 v=0
37960 On ch=10 n=36 v=108
37974 On ch=10 n=36 v=0
37980 On ch=10 n=35 v=82
37994 On ch=10 n=35 v=0
38100 On ch=10 n=40 v=82
38114 On ch=10 n=40 v=0
38280 On ch=10 n=40 v=108
38294 On ch=10 n=40 v=0
38310 On ch=10 n=38 v=99
38320 On ch=10 n=47 v=99
38324 On ch=10 n=38 v=0
38330 On ch=10 n=36 v=82
38334 On ch=10 n=47 v=0
38340 On ch=10 n=35 v=82
38344 On ch=10 n=36 v=0
38354 On ch=10 n=35 v=0
38460 On ch=10 n=38 v=99
38470 On ch=10 n=47 v=99
38474 On ch=10 n=38 v=0
38480 On ch=10 n=36 v=91
38484 On ch=10 n=47 v=0
38490 On ch=10 n=35 v=91
38494 On ch=10 n=36 v=0
38504 On ch=10 n=35 v=0
38550 On ch=10 n=38 v=82
38560 On ch=10 n=47 v=82
38564 On ch=10 n=38 v=0
38570 On ch=10 n=36 v=82
38574 On ch=10 n=47 v=0
38584 On ch=10 n=36 v=0
38590 On ch=10 n=35 v=82
38604 On ch=10 n=35 v=0
38640 On ch=10 n=38 v=108
38650 On ch=10 n=47 v=108
38654 On ch=10 n=38 v=0
38660 On ch=10 n=36 v=91
38664 On ch=10 n=47 v=0
38670 On ch=10 n=35 v=91
38674 On ch=10 n=36 v=0
38684 On ch=10 n=35 v=0
38700 On ch=10 n=38 v=82
38710 On ch=10 n=47 v=82
38714 On ch=10 n=38 v=0
38720 On ch=10 n=36 v=108
38724 On ch=10 n=47 v=0
38730 On ch=10 n=35 v=108
38734 On ch=10 n=36 v=0
38744 On ch=10 n=35 v=0
38760 On ch=10 n=36 v=108
38774 On ch=10 n=36 v=0
38780 On ch=10 n=47 v=99
38794 On ch=10 n=47 v=0
38800 On ch=10 n=40 v=99
38814 On ch=10 n=40 v=0
38820 On ch=10 n=35 v=99
38834 On ch=10 n=35 v=0
38880 On ch=10 n=38 v=99
38894 On ch=10 n=38 v=0
38900 On ch=10 n=47 v=108
38914 On ch=10 n=47 v=0
38920 On ch=10 n=36 v=108
38934 On ch=10 n=36 v=0
38940 On ch=10 n=35 v=82
38954 On ch=10 n=35 v=0
39000 On ch=10 n=36 v=104
39014 On ch=10 n=36 v=0
39020 On ch=10 n=47 v=104
39034 On ch=10 n=47 v=0
39040 On ch=10 n=38 v=91
39054 On ch=10 n=38 v=0
39060 On ch=10 n=35 v=82
39074 On ch=10 n=35 v=0
39120 On ch=10 n=38 v=104
39134 On ch=10 n=38 v=0
39140 On ch=10 n=47 v=91
39154 On ch=10 n=47 v=0
39160 On ch=10 n=36 v=91
39174 On ch=10 n=36 v=0
39180 On ch=10 n=35 v=108
39194 On ch=10 n=35 v=0
39240 On ch=10 n=36 v=108
39254 On ch=10 n=36 v=0
39260 On ch=10 n=47 v=99
39274 On ch=10 n=47 v=0
39280 On ch=10 n=38 v=99
39294 On ch=10 n=38 v=0
39300 On ch=10 n=35 v=82
39314 On ch=10 n=35 v=0
39360 On ch=10 n=38 v=104
39374 On ch=10 n=38 v=0
39380 On ch=10 n=47 v=82
39394 On ch=10 n=47 v=0
39400 On ch=10 n=36 v=82
39414 On ch=10 n=36 v=0
39420 On ch=10 n=35 v=99
39434 On ch=10 n=35 v=0
39480 On ch=10 n=38 v=108
39494 On ch=10 n=38 v=0
39520 On ch=10 n=36 v=82
39534 On ch=10 n=36 v=0
39560 On ch=10 n=38 v=108
39574 On ch=10 n=38 v=0
39600 On ch=10 n=38 v=108
39613 On ch=10 n=35 v=108
39614 On ch=10 n=38 v=0
39626 On ch=10 n=36 v=91
39627 On ch=10 n=35 v=0
39640 On ch=10 n=36 v=0
39640 On ch=10 n=35 v=91
39654 On ch=10 n=35 v=0
39680 On ch=10 n=45 v=108
39694 On ch=10 n=45 v=0
39720 On ch=10 n=45 v=108
39733 On ch=10 n=35 v=108
39734 On ch=10 n=45 v=0
39746 On ch=10 n=36 v=99
39747 On ch=10 n=35 v=0
39760 On ch=10 n=36 v=0
39760 On ch=10 n=35 v=99
39774 On ch=10 n=35 v=0
39800 On ch=10 n=38 v=97
39814 On ch=10 n=38 v=0
39840 On ch=10 n=38 v=99
39853 On ch=10 n=35 v=99
39854 On ch=10 n=38 v=0
39866 On ch=10 n=36 v=108
39867 On ch=10 n=35 v=0
39880 On ch=10 n=36 v=0
39880 On ch=10 n=35 v=108
39894 On ch=10 n=35 v=0
39920 On ch=10 n=45 v=82
39923 On ch=10 n=35 v=82
39934 On ch=10 n=45 v=0
39937 On ch=10 n=35 v=0
39937 On ch=10 n=36 v=91
39951 On ch=10 n=36 v=0
39960 On ch=10 n=35 v=104
39974 On ch=10 n=35 v=0
40000 On ch=10 n=38 v=91
40014 On ch=10 n=38 v=0
40040 On ch=10 n=35 v=82
40054 On ch=10 n=35 v=0
40080 On ch=10 n=38 v=104
40093 On ch=10 n=35 v=91
40094 On ch=10 n=38 v=0
40106 On ch=10 n=36 v=91
40107 On ch=10 n=35 v=0
40120 On ch=10 n=36 v=0
40120 On ch=10 n=35 v=91
40134 On ch=10 n=35 v=0
40160 On ch=10 n=45 v=99
40174 On ch=10 n=45 v=0
40200 On ch=10 n=45 v=108
40213 On ch=10 n=35 v=108
40214 On ch=10 n=45 v=0
40226 On ch=10 n=36 v=99
40227 On ch=10 n=35 v=0
40240 On ch=10 n=36 v=0
40240 On ch=10 n=35 v=99
40254 On ch=10 n=35 v=0
40280 On ch=10 n=38 v=91
40294 On ch=10 n=38 v=0
40320 On ch=10 n=38 v=104
40333 On ch=10 n=35 v=104
40334 On ch=10 n=38 v=0
40346 On ch=10 n=36 v=82
40347 On ch=10 n=35 v=0
40360 On ch=10 n=36 v=0
40360 On ch=10 n=35 v=82
40374 On ch=10 n=35 v=0
40400 On ch=10 n=36 v=91
40414 On ch=10 n=36 v=0
40420 On ch=10 n=35 v=91
40434 On ch=10 n=35 v=0
40440 On ch=10 n=45 v=108
40453 On ch=10 n=35 v=108
40454 On ch=10 n=45 v=0
40467 On ch=10 n=35 v=0
40467 On ch=10 n=36 v=82
40480 On ch=10 n=35 v=82
40481 On ch=10 n=36 v=0
40494 On ch=10 n=35 v=0
40520 On ch=10 n=36 v=108
40534 On ch=10 n=36 v=0
40540 On ch=10 n=35 v=108
40554 On ch=10 n=35 v=0
40560 On ch=10 n=45 v=108
40573 On ch=10 n=35 v=108
40574 On ch=10 n=45 v=0
40586 On ch=10 n=36 v=91
40587 On ch=10 n=35 v=0
40600 On ch=10 n=36 v=0
40600 On ch=10 n=35 v=91
40614 On ch=10 n=35 v=0
40640 On ch=10 n=36 v=108
40654 On ch=10 n=36 v=0
40660 On ch=10 n=35 v=108
40674 On ch=10 n=35 v=0
40680 On ch=10 n=38 v=108
40693 On ch=10 n=35 v=108
40694 On ch=10 n=38 v=0
40706 On ch=10 n=36 v=99
40707 On ch=10 n=35 v=0
40720 On ch=10 n=36 v=0
40720 On ch=10 n=35 v=99
40734 On ch=10 n=35 v=0
40760 On ch=10 n=36 v=97
40774 On ch=10 n=36 v=0
40780 On ch=10 n=35 v=97
40794 On ch=10 n=35 v=0
40800 On ch=10 n=45 v=99
40813 On ch=10 n=35 v=99
40814 On ch=10 n=45 v=0
40826 On ch=10 n=36 v=108
40827 On ch=10 n=35 v=0
40840 On ch=10 n=36 v=0
40840 On ch=10 n=35 v=108
40854 On ch=10 n=35 v=0
40867 On ch=10 n=38 v=82
40880 On ch=10 n=35 v=82
40881 On ch=10 n=38 v=0
40893 On ch=10 n=36 v=91
40894 On ch=10 n=35 v=0
40907 On ch=10 n=36 v=0
40907 On ch=10 n=35 v=91
40920 On ch=10 n=45 v=104
40921 On ch=10 n=35 v=0
40933 On ch=10 n=35 v=104
40934 On ch=10 n=45 v=0
40947 On ch=10 n=35 v=0
40947 On ch=10 n=36 v=104
40960 On ch=10 n=35 v=91
40961 On ch=10 n=36 v=0
40974 On ch=10 n=35 v=0
41000 On ch=10 n=36 v=82
41014 On ch=10 n=36 v=0
41020 On ch=10 n=35 v=91
41034 On ch=10 n=35 v=0
41040 On ch=10 n=38 v=104
41053 On ch=10 n=35 v=91
41054 On ch=10 n=38 v=0
41066 On ch=10 n=36 v=91
41067 On ch=10 n=35 v=0
41080 On ch=10 n=36 v=0
41080 On ch=10 n=35 v=91
41094 On ch=10 n=35 v=0
41120 On ch=10 n=36 v=99
41134 On ch=10 n=36 v=0
41140 On ch=10 n=35 v=99
41154 On ch=10 n=35 v=0
41160 On ch=10 n=38 v=108
41173 On ch=10 n=35 v=108
41174 On ch=10 n=38 v=0
41186 On ch=10 n=36 v=99
41187 On ch=10 n=35 v=0
41200 On ch=10 n=36 v=0
41200 On ch=10 n=35 v=99
41214 On ch=10 n=35 v=0
41240 On ch=10 n=36 v=91
41254 On ch=10 n=36 v=0
41260 On ch=10 n=35 v=91
41274 On ch=10 n=35 v=0
41280 On ch=10 n=38 v=104
41293 On ch=10 n=35 v=104
41294 On ch=10 n=38 v=0
41306 On ch=10 n=36 v=82
41307 On ch=10 n=35 v=0
41320 On ch=10 n=36 v=0
41320 On ch=10 n=35 v=82
41334 On ch=10 n=35 v=0
41347 On ch=10 n=38 v=99
41360 On ch=10 n=38 v=91
41361 On ch=10 n=38 v=0
41373 On ch=10 n=36 v=91
41374 On ch=10 n=38 v=0
41387 On ch=10 n=36 v=0
41387 On ch=10 n=35 v=108
41400 On ch=10 n=45 v=108
41401 On ch=10 n=35 v=0
41413 On ch=10 n=35 v=108
41414 On ch=10 n=45 v=0
41427 On ch=10 n=35 v=0
41427 On ch=10 n=36 v=82
41440 On ch=10 n=35 v=82
41441 On ch=10 n=36 v=0
41454 On ch=10 n=35 v=0
41460 On ch=10 n=38 v=82
41474 On ch=10 n=38 v=0
41500 On ch=10 n=35 v=108
41514 On ch=10 n=35 v=0
41560 On ch=10 n=38 v=91
41574 On ch=10 n=38 v=0
41580 On ch=10 n=35 v=82
41594 On ch=10 n=35 v=0
41620 On ch=10 n=38 v=108
41634 On ch=10 n=38 v=0
41640 On ch=10 n=38 v=108
41654 On ch=10 n=38 v=0
41740 On ch=10 n=38 v=97
41754 On ch=10 n=38 v=0
41760 On ch=10 n=38 v=99
41774 On ch=10 n=38 v=0
41860 On ch=10 n=38 v=91
41874 On ch=10 n=38 v=0
41880 On ch=10 n=38 v=104
41894 On ch=10 n=38 v=0
41920 On ch=10 n=38 v=91
41934 On ch=10 n=38 v=0
41960 On ch=10 n=38 v=82
41974 On ch=10 n=38 v=0
42000 On ch=10 n=49 v=104
42000 On ch=10 n=35 v=104
42014 On ch=10 n=35 v=0
42014 On ch=10 n=49 v=0
42100 On ch=10 n=38 v=99
42100 On ch=10 n=45 v=99
42114 On ch=10 n=45 v=0
42114 On ch=10 n=38 v=0
42120 On ch=10 n=38 v=108
42120 On ch=10 n=45 v=108
42134 On ch=10 n=45 v=0
42134 On ch=10 n=38 v=0
42220 On ch=10 n=38 v=91
42220 On ch=10 n=45 v=91
42234 On ch=10 n=45 v=0
42234 On ch=10 n=38 v=0
42240 On ch=10 n=38 v=104
42240 On ch=10 n=45 v=104
42254 On ch=10 n=45 v=0
42254 On ch=10 n=38 v=0
42340 On ch=10 n=38 v=91
42340 On ch=10 n=45 v=91
42354 On ch=10 n=45 v=0
42354 On ch=10 n=38 v=0
42360 On ch=10 n=38 v=108
42360 On ch=10 n=45 v=108
42374 On ch=10 n=45 v=0
42374 On ch=10 n=38 v=0
42400 On ch=10 n=35 v=82
42414 On ch=10 n=35 v=0
42440 On ch=10 n=35 v=108
42454 On ch=10 n=35 v=0
42480 On ch=10 n=57 v=108
42480 On ch=10 n=38 v=108
42480 On ch=10 n=35 v=108
42494 On ch=10 n=35 v=0
42494 On ch=10 n=38 v=0
42494 On ch=10 n=57 v=0
42580 On ch=10 n=38 v=108
42580 On ch=10 n=45 v=108
42594 On ch=10 n=45 v=0
42594 On ch=10 n=38 v=0
42600 On ch=10 n=45 v=108
42600 On ch=10 n=38 v=108
42614 On ch=10 n=38 v=0
42614 On ch=10 n=45 v=0
42700 On ch=10 n=38 v=97
42700 On ch=10 n=45 v=97
42714 On ch=10 n=45 v=0
42714 On ch=10 n=38 v=0
42720 On ch=10 n=38 v=99
42720 On ch=10 n=45 v=99
42734 On ch=10 n=45 v=0
42734 On ch=10 n=38 v=0
42820 On ch=10 n=45 v=91
42820 On ch=10 n=38 v=91
42834 On ch=10 n=38 v=0
42834 On ch=10 n=45 v=0
42840 On ch=10 n=45 v=104
42840 On ch=10 n=38 v=104
42854 On ch=10 n=38 v=0
42854 On ch=10 n=45 v=0
42880 On ch=10 n=35 v=91
42894 On ch=10 n=35 v=0
42920 On ch=10 n=36 v=82
42934 On ch=10 n=36 v=0
42960 On ch=10 n=49 v=104
42960 On ch=10 n=38 v=104
42960 On ch=10 n=35 v=104
42974 On ch=10 n=35 v=0
42974 On ch=10 n=38 v=0
42974 On ch=10 n=49 v=0
43060 On ch=10 n=38 v=99
43060 On ch=10 n=45 v=99
43074 On ch=10 n=45 v=0
43074 On ch=10 n=38 v=0
43080 On ch=10 n=38 v=108
43080 On ch=10 n=45 v=108
43094 On ch=10 n=45 v=0
43094 On ch=10 n=38 v=0
43120 On ch=10 n=35 v=99
43134 On ch=10 n=35 v=0
43180 On ch=10 n=45 v=91
43180 On ch=10 n=38 v=91
43180 On ch=10 n=35 v=91
43194 On ch=10 n=35 v=0
43194 On ch=10 n=38 v=0
43194 On ch=10 n=45 v=0
43200 On ch=10 n=38 v=104
43200 On ch=10 n=45 v=104
43214 On ch=10 n=45 v=0
43214 On ch=10 n=38 v=0
43240 On ch=10 n=35 v=82
43254 On ch=10 n=35 v=0
43300 On ch=10 n=45 v=91
43300 On ch=10 n=38 v=91
43300 On ch=10 n=35 v=91
43314 On ch=10 n=35 v=0
43314 On ch=10 n=38 v=0
43314 On ch=10 n=45 v=0
43320 On ch=10 n=38 v=108
43320 On ch=10 n=45 v=108
43334 On ch=10 n=45 v=0
43334 On ch=10 n=38 v=0
43360 On ch=10 n=38 v=82
43360 On ch=10 n=45 v=82
43374 On ch=10 n=45 v=0
43374 On ch=10 n=38 v=0
43400 On ch=10 n=38 v=108
43400 On ch=10 n=45 v=108
43414 On ch=10 n=45 v=0
43414 On ch=10 n=38 v=0
43440 On ch=10 n=57 v=108
43440 On ch=10 n=38 v=108
43454 On ch=10 n=38 v=0
43454 On ch=10 n=57 v=0
43540 On ch=10 n=38 v=108
43540 On ch=10 n=45 v=108
43554 On ch=10 n=45 v=0
43554 On ch=10 n=38 v=0
43560 On ch=10 n=38 v=108
43560 On ch=10 n=45 v=108
43574 On ch=10 n=45 v=0
43574 On ch=10 n=38 v=0
43660 On ch=10 n=45 v=97
43660 On ch=10 n=38 v=97
43674 On ch=10 n=38 v=0
43674 On ch=10 n=45 v=0
43680 On ch=10 n=38 v=99
43680 On ch=10 n=45 v=99
43694 On ch=10 n=45 v=0
43694 On ch=10 n=38 v=0
43780 On ch=10 n=45 v=91
43780 On ch=10 n=38 v=91
43794 On ch=10 n=38 v=0
43794 On ch=10 n=45 v=0
43800 On ch=10 n=45 v=104
43800 On ch=10 n=38 v=104
43814 On ch=10 n=38 v=0
43814 On ch=10 n=45 v=0
43840 On ch=10 n=38 v=91
43840 On ch=10 n=45 v=91
43854 On ch=10 n=45 v=0
43854 On ch=10 n=38 v=0
43880 On ch=10 n=45 v=82
43880 On ch=10 n=38 v=82
43894 On ch=10 n=38 v=0
43894 On ch=10 n=45 v=0
43920 On ch=10 n=49 v=104
43920 On ch=10 n=38 v=104
43934 On ch=10 n=38 v=0
43934 On ch=10 n=49 v=0
44020 On ch=10 n=38 v=99
44020 On ch=10 n=45 v=99
44034 On ch=10 n=45 v=0
44034 On ch=10 n=38 v=0
44040 On ch=10 n=38 v=108
44040 On ch=10 n=45 v=108
44054 On ch=10 n=45 v=0
44054 On ch=10 n=38 v=0
44140 On ch=10 n=45 v=91
44140 On ch=10 n=38 v=91
44154 On ch=10 n=38 v=0
44154 On ch=10 n=45 v=0
44160 On ch=10 n=38 v=104
44160 On ch=10 n=45 v=104
44174 On ch=10 n=45 v=0
44174 On ch=10 n=38 v=0
44260 On ch=10 n=45 v=91
44260 On ch=10 n=38 v=91
44274 On ch=10 n=38 v=0
44274 On ch=10 n=45 v=0
44280 On ch=10 n=45 v=108
44280 On ch=10 n=38 v=108
44294 On ch=10 n=38 v=0
44294 On ch=10 n=45 v=0
44320 On ch=10 n=38 v=82
44320 On ch=10 n=45 v=82
44334 On ch=10 n=45 v=0
44334 On ch=10 n=38 v=0
44360 On ch=10 n=45 v=108
44360 On ch=10 n=38 v=108
44374 On ch=10 n=38 v=0
44374 On ch=10 n=45 v=0
44400 On ch=10 n=49 v=108
44400 On ch=10 n=38 v=108
44414 On ch=10 n=38 v=0
44414 On ch=10 n=49 v=0
44500 On ch=10 n=38 v=108
44500 On ch=10 n=45 v=108
44514 On ch=10 n=45 v=0
44514 On ch=10 n=38 v=0
44520 On ch=10 n=38 v=108
44520 On ch=10 n=45 v=108
44534 On ch=10 n=45 v=0
44534 On ch=10 n=38 v=0
44620 On ch=10 n=45 v=97
44620 On ch=10 n=38 v=97
44634 On ch=10 n=38 v=0
44634 On ch=10 n=45 v=0
44640 On ch=10 n=38 v=99
44640 On ch=10 n=45 v=99
44654 On ch=10 n=45 v=0
44654 On ch=10 n=38 v=0
44740 On ch=10 n=45 v=91
44740 On ch=10 n=38 v=91
44754 On ch=10 n=38 v=0
44754 On ch=10 n=45 v=0
44760 On ch=10 n=45 v=104
44760 On ch=10 n=38 v=104
44774 On ch=10 n=38 v=0
44774 On ch=10 n=45 v=0
44800 On ch=10 n=38 v=91
44800 On ch=10 n=45 v=91
44814 On ch=10 n=45 v=0
44814 On ch=10 n=38 v=0
44840 On ch=10 n=45 v=82
44840 On ch=10 n=38 v=82
44854 On ch=10 n=38 v=0
44854 On ch=10 n=45 v=0
44880 On ch=10 n=49 v=104
44880 On ch=10 n=38 v=104
44894 On ch=10 n=38 v=0
44894 On ch=10 n=49 v=0
45000 On ch=10 n=38 v=108
45014 On ch=10 n=38 v=0
45090 On ch=10 n=35 v=91
45104 On ch=10 n=35 v=0
45180 On ch=10 n=38 v=99
45194 On ch=10 n=38 v=0
45270 On ch=10 n=35 v=82
45284 On ch=10 n=35 v=0
45360 On ch=10 n=38 v=108
45374 On ch=10 n=38 v=0
45450 On ch=10 n=35 v=108
45464 On ch=10 n=35 v=0
45510 On ch=10 n=38 v=99
45524 On ch=10 n=38 v=0
45600 On ch=10 n=38 v=99
45614 On ch=10 n=38 v=0
45716 On ch=10 n=40 v=79
45720 On ch=10 n=38 v=99
45730 On ch=10 n=40 v=0
45734 On ch=10 n=38 v=0
45750 On ch=10 n=35 v=99
45764 On ch=10 n=35 v=0
45960 On ch=10 n=40 v=99
45974 On ch=10 n=40 v=0
45980 On ch=10 n=38 v=99
45994 On ch=10 n=38 v=0
46000 On ch=10 n=35 v=99
46014 On ch=10 n=35 v=0
46160 On ch=10 n=38 v=99
46174 On ch=10 n=38 v=0
46180 On ch=10 n=35 v=99
46194 On ch=10 n=35 v=0
46200 On ch=10 n=35 v=99
46214 On ch=10 n=35 v=0
46260 On ch=10 n=35 v=99
46274 On ch=10 n=35 v=0
46280 On ch=10 n=38 v=99
46294 On ch=10 n=38 v=0
46300 On ch=10 n=35 v=99
46314 On ch=10 n=35 v=0
46400 On ch=10 n=38 v=99
46414 On ch=10 n=38 v=0
46420 On ch=10 n=35 v=99
46434 On ch=10 n=35 v=0
46440 On ch=10 n=35 v=99
46454 On ch=10 n=35 v=0
46560 On ch=10 n=38 v=99
46574 On ch=10 n=38 v=0
46580 On ch=10 n=38 v=99
46594 On ch=10 n=38 v=0
46600 On ch=10 n=35 v=99
46614 On ch=10 n=35 v=0
46680 On ch=10 n=38 v=99
46694 On ch=10 n=38 v=0
46700 On ch=10 n=35 v=99
46714 On ch=10 n=35 v=0
46720 On ch=10 n=36 v=99
46734 On ch=10 n=36 v=0
46740 On ch=10 n=35 v=99
46754 On ch=10 n=35 v=0
46920 On ch=10 n=38 v=108
46934 On ch=10 n=38 v=0
46940 On ch=10 n=35 v=99
46954 On ch=10 n=35 v=0
46960 On ch=10 n=36 v=99
46974 On ch=10 n=36 v=0
46980 On ch=10 n=35 v=82
46994 On ch=10 n=35 v=0
47040 On ch=10 n=38 v=104
47054 On ch=10 n=38 v=0
47060 On ch=10 n=35 v=82
47074 On ch=10 n=35 v=0
47080 On ch=10 n=36 v=82
47094 On ch=10 n=36 v=0
47100 On ch=10 n=35 v=99
47114 On ch=10 n=35 v=0
47160 On ch=10 n=43 v=108
47174 On ch=10 n=43 v=0
47180 On ch=10 n=38 v=82
47194 On ch=10 n=38 v=0
47200 On ch=10 n=35 v=82
47214 On ch=10 n=35 v=0
47220 On ch=10 n=36 v=82
47234 On ch=10 n=36 v=0
47400 On ch=10 n=38 v=108
47414 On ch=10 n=38 v=0
47420 On ch=10 n=35 v=99
47434 On ch=10 n=35 v=0
47440 On ch=10 n=36 v=99
47454 On ch=10 n=36 v=0
47460 On ch=10 n=35 v=99
47474 On ch=10 n=35 v=0
47520 On ch=10 n=38 v=99
47534 On ch=10 n=38 v=0
47540 On ch=10 n=35 v=108
47554 On ch=10 n=35 v=0
47560 On ch=10 n=36 v=108
47574 On ch=10 n=36 v=0
47580 On ch=10 n=35 v=82
47594 On ch=10 n=35 v=0
47640 On ch=10 n=38 v=104
47654 On ch=10 n=38 v=0
47660 On ch=10 n=35 v=104
47674 On ch=10 n=35 v=0
47680 On ch=10 n=36 v=91
47694 On ch=10 n=36 v=0
47700 On ch=10 n=35 v=82
47714 On ch=10 n=35 v=0
47760 On ch=10 n=38 v=104
47774 On ch=10 n=38 v=0
47780 On ch=10 n=35 v=91
47794 On ch=10 n=35 v=0
47800 On ch=10 n=36 v=91
47814 On ch=10 n=36 v=0
47820 On ch=10 n=35 v=108
47834 On ch=10 n=35 v=0
47880 On ch=10 n=38 v=108
47894 On ch=10 n=38 v=0
47900 On ch=10 n=35 v=99
47914 On ch=10 n=35 v=0
47920 On ch=10 n=36 v=99
47934 On ch=10 n=36 v=0
47940 On ch=10 n=35 v=82
47954 On ch=10 n=35 v=0
48000 On ch=10 n=38 v=104
48014 On ch=10 n=38 v=0
48020 On ch=10 n=35 v=82
48034 On ch=10 n=35 v=0
48040 On ch=10 n=36 v=82
48054 On ch=10 n=36 v=0
48060 On ch=10 n=35 v=99
48074 On ch=10 n=35 v=0
48120 On ch=10 n=38 v=108
48134 On ch=10 n=38 v=0
48140 On ch=10 n=35 v=82
48154 On ch=10 n=35 v=0
48160 On ch=10 n=36 v=82
48174 On ch=10 n=36 v=0
48180 On ch=10 n=35 v=82
48194 On ch=10 n=35 v=0
48240 On ch=10 n=38 v=108
48254 On ch=10 n=38 v=0
48260 On ch=10 n=35 v=91
48274 On ch=10 n=35 v=0
48280 On ch=10 n=36 v=91
48294 On ch=10 n=36 v=0
48300 On ch=10 n=35 v=82
48314 On ch=10 n=35 v=0
48360 On ch=10 n=45 v=108
48374 On ch=10 n=45 v=0
48380 On ch=10 n=38 v=99
48394 On ch=10 n=38 v=0
48400 On ch=10 n=36 v=99
48414 On ch=10 n=36 v=0
48420 On ch=10 n=35 v=99
48434 On ch=10 n=35 v=0
48480 On ch=10 n=38 v=99
48494 On ch=10 n=38 v=0
48500 On ch=10 n=35 v=108
48514 On ch=10 n=35 v=0
48520 On ch=10 n=36 v=108
48534 On ch=10 n=36 v=0
48540 On ch=10 n=35 v=82
48554 On ch=10 n=35 v=0
48600 On ch=10 n=45 v=104
48614 On ch=10 n=45 v=0
48620 On ch=10 n=38 v=104
48634 On ch=10 n=38 v=0
48640 On ch=10 n=36 v=91
48654 On ch=10 n=36 v=0
48660 On ch=10 n=35 v=82
48674 On ch=10 n=35 v=0
48720 On ch=10 n=38 v=104
48734 On ch=10 n=38 v=0
48740 On ch=10 n=35 v=91
48754 On ch=10 n=35 v=0
48760 On ch=10 n=36 v=91
48774 On ch=10 n=36 v=0
48780 On ch=10 n=35 v=108
48794 On ch=10 n=35 v=0
48840 On ch=10 n=45 v=108
48854 On ch=10 n=45 v=0
48860 On ch=10 n=38 v=99
48874 On ch=10 n=38 v=0
48880 On ch=10 n=36 v=99
48894 On ch=10 n=36 v=0
48900 On ch=10 n=35 v=82
48914 On ch=10 n=35 v=0
48960 On ch=10 n=45 v=104
48974 On ch=10 n=45 v=0
48980 On ch=10 n=35 v=82
48994 On ch=10 n=35 v=0
49000 On ch=10 n=36 v=82
49014 On ch=10 n=36 v=0
49020 On ch=10 n=35 v=99
49034 On ch=10 n=35 v=0
49076 On ch=10 n=40 v=106
49080 On ch=10 n=38 v=108
49090 On ch=10 n=40 v=0
49094 On ch=10 n=38 v=0
49140 On ch=10 n=35 v=82
49154 On ch=10 n=35 v=0
49200 On ch=10 n=38 v=108
49214 On ch=10 n=38 v=0
49260 On ch=10 n=35 v=82
49274 On ch=10 n=35 v=0
49320 On ch=10 n=45 v=108
49334 On ch=10 n=45 v=0
49340 On ch=10 n=47 v=99
49354 On ch=10 n=47 v=0
49360 On ch=10 n=35 v=99
49374 On ch=10 n=35 v=0
49380 On ch=10 n=45 v=99
49394 On ch=10 n=45 v=0
49400 On ch=10 n=38 v=97
49414 On ch=10 n=38 v=0
49420 On ch=10 n=35 v=97
49434 On ch=10 n=35 v=0
49440 On ch=10 n=45 v=99
49454 On ch=10 n=45 v=0
49460 On ch=10 n=47 v=108
49474 On ch=10 n=47 v=0
49480 On ch=10 n=35 v=108
49494 On ch=10 n=35 v=0
49500 On ch=10 n=45 v=82
49514 On ch=10 n=45 v=0
49520 On ch=10 n=38 v=82
49534 On ch=10 n=38 v=0
49540 On ch=10 n=35 v=91
49554 On ch=10 n=35 v=0
49560 On ch=10 n=45 v=104
49574 On ch=10 n=45 v=0
49580 On ch=10 n=47 v=104
49594 On ch=10 n=47 v=0
49600 On ch=10 n=35 v=91
49614 On ch=10 n=35 v=0
49620 On ch=10 n=45 v=82
49634 On ch=10 n=45 v=0
49640 On ch=10 n=38 v=82
49654 On ch=10 n=38 v=0
49660 On ch=10 n=35 v=91
49674 On ch=10 n=35 v=0
49680 On ch=10 n=45 v=104
49694 On ch=10 n=45 v=0
49700 On ch=10 n=47 v=91
49714 On ch=10 n=47 v=0
49720 On ch=10 n=35 v=91
49734 On ch=10 n=35 v=0
49740 On ch=10 n=45 v=108
49754 On ch=10 n=45 v=0
49760 On ch=10 n=38 v=99
49774 On ch=10 n=38 v=0
49780 On ch=10 n=35 v=99
49794 On ch=10 n=35 v=0
49800 On ch=10 n=45 v=108
49814 On ch=10 n=45 v=0
49820 On ch=10 n=47 v=99
49834 On ch=10 n=47 v=0
49840 On ch=10 n=35 v=99
49854 On ch=10 n=35 v=0
49860 On ch=10 n=45 v=82
49874 On ch=10 n=45 v=0
49880 On ch=10 n=47 v=91
49894 On ch=10 n=47 v=0
49900 On ch=10 n=35 v=91
49914 On ch=10 n=35 v=0
49920 On ch=10 n=45 v=104
49934 On ch=10 n=45 v=0
49940 On ch=10 n=47 v=82
49954 On ch=10 n=47 v=0
49960 On ch=10 n=35 v=82
49974 On ch=10 n=35 v=0
49980 On ch=10 n=45 v=99
49994 On ch=10 n=45 v=0
50000 On ch=10 n=47 v=91
50014 On ch=10 n=47 v=0
50020 On ch=10 n=35 v=91
50034 On ch=10 n=35 v=0
50040 On ch=10 n=45 v=108
50054 On ch=10 n=45 v=0
50060 On ch=10 n=47 v=82
50074 On ch=10 n=47 v=0
50080 On ch=10 n=35 v=82
50094 On ch=10 n=35 v=0
50100 On ch=10 n=45 v=82
50114 On ch=10 n=45 v=0
50120 On ch=10 n=47 v=108
50134 On ch=10 n=47 v=0
50140 On ch=10 n=35 v=108
50154 On ch=10 n=35 v=0
50160 On ch=10 n=45 v=108
50174 On ch=10 n=45 v=0
50180 On ch=10 n=47 v=91
50194 On ch=10 n=47 v=0
50200 On ch=10 n=35 v=91
50214 On ch=10 n=35 v=0
50220 On ch=10 n=45 v=82
50234 On ch=10 n=45 v=0
50240 On ch=10 n=47 v=108
50254 On ch=10 n=47 v=0
50260 On ch=10 n=35 v=108
50274 On ch=10 n=35 v=0
50280 On ch=10 n=45 v=108
50294 On ch=10 n=45 v=0
50300 On ch=10 n=47 v=99
50314 On ch=10 n=47 v=0
50320 On ch=10 n=35 v=99
50334 On ch=10 n=35 v=0
50340 On ch=10 n=45 v=99
50354 On ch=10 n=45 v=0
50360 On ch=10 n=38 v=97
50374 On ch=10 n=38 v=0
50380 On ch=10 n=35 v=97
50394 On ch=10 n=35 v=0
50400 On ch=10 n=45 v=99
50414 On ch=10 n=45 v=0
50420 On ch=10 n=47 v=108
50434 On ch=10 n=47 v=0
50440 On ch=10 n=35 v=108
50454 On ch=10 n=35 v=0
50460 On ch=10 n=45 v=82
50474 On ch=10 n=45 v=0
50480 On ch=10 n=38 v=82
50494 On ch=10 n=38 v=0
50500 On ch=10 n=35 v=91
50514 On ch=10 n=35 v=0
50520 On ch=10 n=45 v=104
50534 On ch=10 n=45 v=0
50540 On ch=10 n=47 v=104
50554 On ch=10 n=47 v=0
50560 On ch=10 n=35 v=91
50574 On ch=10 n=35 v=0
50580 On ch=10 n=38 v=82
50594 On ch=10 n=38 v=0
50600 On ch=10 n=38 v=82
50614 On ch=10 n=38 v=0
50620 On ch=10 n=35 v=91
50634 On ch=10 n=35 v=0
50640 On ch=10 n=45 v=104
50654 On ch=10 n=45 v=0
50660 On ch=10 n=47 v=91
50674 On ch=10 n=47 v=0
50680 On ch=10 n=35 v=91
50694 On ch=10 n=35 v=0
50700 On ch=10 n=38 v=108
50714 On ch=10 n=38 v=0
50720 On ch=10 n=38 v=99
50734 On ch=10 n=38 v=0
50740 On ch=10 n=35 v=99
50754 On ch=10 n=35 v=0
50760 On ch=10 n=45 v=108
50774 On ch=10 n=45 v=0
50780 On ch=10 n=47 v=99
50794 On ch=10 n=47 v=0
50800 On ch=10 n=35 v=99
50814 On ch=10 n=35 v=0
50820 On ch=10 n=38 v=82
50834 On ch=10 n=38 v=0
50840 On ch=10 n=38 v=91
50854 On ch=10 n=38 v=0
50860 On ch=10 n=35 v=91
50874 On ch=10 n=35 v=0
50880 On ch=10 n=45 v=104
50894 On ch=10 n=45 v=0
50900 On ch=10 n=47 v=82
50914 On ch=10 n=47 v=0
50920 On ch=10 n=35 v=82
50934 On ch=10 n=35 v=0
50940 On ch=10 n=38 v=99
50954 On ch=10 n=38 v=0
50960 On ch=10 n=38 v=91
50974 On ch=10 n=38 v=0
50980 On ch=10 n=35 v=91
50994 On ch=10 n=35 v=0
51000 On ch=10 n=35 v=108
51014 On ch=10 n=35 v=0
51040 On ch=10 n=38 v=82
51054 On ch=10 n=38 v=0
51080 On ch=10 n=35 v=108
51094 On ch=10 n=35 v=0
51120 On ch=10 n=38 v=108
51134 On ch=10 n=38 v=0
51180 On ch=10 n=35 v=82
51194 On ch=10 n=35 v=0
51240 On ch=10 n=38 v=99
51254 On ch=10 n=38 v=0
51280 On ch=10 n=38 v=99
51294 On ch=10 n=38 v=0
51320 On ch=10 n=38 v=99
51334 On ch=10 n=38 v=0
51360 On ch=10 n=38 v=99
51374 On ch=10 n=38 v=0
51390 On ch=10 n=38 v=99
51404 On ch=10 n=38 v=0
51420 On ch=10 n=45 v=99
51420 On ch=10 n=48 v=99
51434 On ch=10 n=48 v=0
51434 On ch=10 n=45 v=0
51510 On ch=10 n=45 v=99
51520 On ch=10 n=48 v=99
51524 On ch=10 n=45 v=0
51530 On ch=10 n=45 v=99
51534 On ch=10 n=48 v=0
51540 On ch=10 n=35 v=99
51544 On ch=10 n=45 v=0
51554 On ch=10 n=35 v=0
51660 On ch=10 n=38 v=99
51674 On ch=10 n=38 v=0
51720 On ch=10 n=35 v=99
51720 On ch=10 n=49 v=99
51722 Pb ch=10 v=8192
51734 On ch=10 n=49 v=0
51734 On ch=10 n=35 v=0
51780 On ch=10 n=35 v=99
51780 On ch=10 n=56 v=99
51794 On ch=10 n=56 v=0
51794 On ch=10 n=35 v=0
51810 On ch=10 n=35 v=99
51824 On ch=10 n=35 v=0
51840 On ch=10 n=40 v=99
51840 On ch=10 n=56 v=99
51854 On ch=10 n=56 v=0
51854 On ch=10 n=40 v=0
51870 On ch=10 n=35 v=99
51884 On ch=10 n=35 v=0
51900 On ch=10 n=56 v=99
51914 On ch=10 n=56 v=0
51930 On ch=10 n=35 v=99
51944 On ch=10 n=35 v=0
51960 On ch=10 n=56 v=99
51974 On ch=10 n=56 v=0
51990 On ch=10 n=40 v=99
52004 On ch=10 n=40 v=0
52020 On ch=10 n=35 v=99
52020 On ch=10 n=56 v=99
52034 On ch=10 n=56 v=0
52034 On ch=10 n=35 v=0
52060 On ch=10 n=35 v=99
52074 On ch=10 n=35 v=0
52080 On ch=10 n=40 v=99
52080 On ch=10 n=56 v=99
52094 On ch=10 n=56 v=0
52094 On ch=10 n=40 v=0
52140 On ch=10 n=56 v=99
52154 On ch=10 n=56 v=0
52170 On ch=10 n=38 v=99
52184 On ch=10 n=38 v=0
52200 On ch=10 n=56 v=99
52214 On ch=10 n=56 v=0
52220 On ch=10 n=40 v=99
52234 On ch=10 n=40 v=0
52240 On ch=10 n=40 v=99
52254 On ch=10 n=40 v=0
52260 On ch=10 n=40 v=99
52274 On ch=10 n=40 v=0
52280 On ch=10 n=40 v=99
52294 On ch=10 n=40 v=0
52300 On ch=10 n=40 v=99
52314 On ch=10 n=40 v=0
52320 On ch=10 n=40 v=99
52334 On ch=10 n=40 v=0
52340 On ch=10 n=40 v=99
52354 On ch=10 n=40 v=0
52360 On ch=10 n=47 v=99
52374 On ch=10 n=47 v=0
52380 On ch=10 n=47 v=99
52394 On ch=10 n=47 v=0
52400 On ch=10 n=47 v=99
52414 On ch=10 n=47 v=0
52420 On ch=10 n=47 v=99
52434 On ch=10 n=47 v=0
52440 On ch=10 n=47 v=99
52454 On ch=10 n=47 v=0
52460 On ch=10 n=47 v=99
52474 On ch=10 n=47 v=0
52480 On ch=10 n=45 v=99
52494 On ch=10 n=45 v=0
52500 On ch=10 n=45 v=99
52514 On ch=10 n=45 v=0
52520 On ch=10 n=45 v=99
52534 On ch=10 n=45 v=0
52540 On ch=10 n=45 v=99
52554 On ch=10 n=45 v=0
52560 On ch=10 n=45 v=99
52574 On ch=10 n=45 v=0
52580 On ch=10 n=45 v=99
52594 On ch=10 n=45 v=0
52600 On ch=10 n=43 v=99
52614 On ch=10 n=43 v=0
52620 On ch=10 n=43 v=99
52634 On ch=10 n=43 v=0
52640 On ch=10 n=43 v=99
52654 On ch=10 n=43 v=0
52660 On ch=10 n=43 v=99
52674 On ch=10 n=43 v=0
52680 On ch=10 n=35 v=99
52680 On ch=10 n=57 v=99
52694 On ch=10 n=57 v=0
52694 On ch=10 n=35 v=0
52740 On ch=10 n=56 v=99
52754 On ch=10 n=56 v=0
52800 On ch=10 n=56 v=99
52800 On ch=10 n=40 v=99
52814 On ch=10 n=40 v=0
52814 On ch=10 n=56 v=0
52860 On ch=10 n=56 v=99
52874 On ch=10 n=56 v=0
52890 On ch=10 n=35 v=99
52904 On ch=10 n=35 v=0
52920 On ch=10 n=56 v=99
52934 On ch=10 n=56 v=0
52950 On ch=10 n=40 v=99
52964 On ch=10 n=40 v=0
52980 On ch=10 n=56 v=99
52980 On ch=10 n=35 v=99
52994 On ch=10 n=35 v=0
52994 On ch=10 n=56 v=0
53010 On ch=10 n=40 v=99
53024 On ch=10 n=40 v=0
53040 On ch=10 n=56 v=99
53054 On ch=10 n=56 v=0
53070 On ch=10 n=40 v=99
53084 On ch=10 n=40 v=0
53100 On ch=10 n=56 v=99
53114 On ch=10 n=56 v=0
53130 On ch=10 n=35 v=99
53144 On ch=10 n=35 v=0
53160 On ch=10 n=40 v=99
53174 On ch=10 n=40 v=0
53180 On ch=10 n=40 v=99
53194 On ch=10 n=40 v=0
53200 On ch=10 n=35 v=99
53214 On ch=10 n=35 v=0
53220 On ch=10 n=47 v=99
53234 On ch=10 n=47 v=0
53240 On ch=10 n=47 v=99
53254 On ch=10 n=47 v=0
53260 On ch=10 n=35 v=99
53274 On ch=10 n=35 v=0
53280 On ch=10 n=45 v=99
53294 On ch=10 n=45 v=0
53300 On ch=10 n=45 v=99
53314 On ch=10 n=45 v=0
53320 On ch=10 n=35 v=99
53334 On ch=10 n=35 v=0
53340 On ch=10 n=47 v=99
53354 On ch=10 n=47 v=0
53360 On ch=10 n=47 v=99
53374 On ch=10 n=47 v=0
53380 On ch=10 n=35 v=99
53394 On ch=10 n=35 v=0
53400 On ch=10 n=40 v=99
53414 On ch=10 n=40 v=0
53420 On ch=10 n=40 v=99
53434 On ch=10 n=40 v=0
53440 On ch=10 n=35 v=99
53454 On ch=10 n=35 v=0
53460 On ch=10 n=47 v=99
53474 On ch=10 n=47 v=0
53480 On ch=10 n=47 v=99
53494 On ch=10 n=47 v=0
53500 On ch=10 n=35 v=99
53514 On ch=10 n=35 v=0
53520 On ch=10 n=45 v=99
53534 On ch=10 n=45 v=0
53540 On ch=10 n=45 v=99
53554 On ch=10 n=45 v=0
53560 On ch=10 n=35 v=99
53574 On ch=10 n=35 v=0
53580 On ch=10 n=40 v=99
53594 On ch=10 n=40 v=0
53620 On ch=10 n=35 v=99
53634 On ch=10 n=35 v=0
53640 On ch=10 n=49 v=99
53640 On ch=10 n=35 v=99
53654 On ch=10 n=35 v=0
53654 On ch=10 n=49 v=0
53700 On ch=10 n=56 v=99
53714 On ch=10 n=56 v=0
53730 On ch=10 n=35 v=99
53744 On ch=10 n=35 v=0
53760 On ch=10 n=40 v=99
53760 On ch=10 n=56 v=99
53774 On ch=10 n=56 v=0
53774 On ch=10 n=40 v=0
53820 On ch=10 n=56 v=99
53834 On ch=10 n=56 v=0
53850 On ch=10 n=35 v=99
53864 On ch=10 n=35 v=0
53880 On ch=10 n=56 v=99
53894 On ch=10 n=56 v=0
53910 On ch=10 n=40 v=99
53924 On ch=10 n=40 v=0
53940 On ch=10 n=56 v=99
53954 On ch=10 n=56 v=0
53970 On ch=10 n=40 v=99
53984 On ch=10 n=40 v=0
54000 On ch=10 n=56 v=99
54014 On ch=10 n=56 v=0
54030 On ch=10 n=40 v=99
54044 On ch=10 n=40 v=0
54060 On ch=10 n=56 v=99
54074 On ch=10 n=56 v=0
54090 On ch=10 n=35 v=99
54104 On ch=10 n=35 v=0
54115 On ch=10 n=38 v=79
54120 On ch=10 n=40 v=99
54129 On ch=10 n=38 v=0
54134 On ch=10 n=40 v=0
54330 On ch=10 n=57 v=99
54330 On ch=10 n=38 v=99
54330 On ch=10 n=40 v=99
54344 On ch=10 n=40 v=0
54344 On ch=10 n=38 v=0
54344 On ch=10 n=57 v=0
54510 On ch=10 n=40 v=99
54524 On ch=10 n=40 v=0
54540 On ch=10 n=40 v=99
54554 On ch=10 n=40 v=0
54600 On ch=10 n=49 v=99
54614 On ch=10 n=49 v=0
54640 On ch=10 n=38 v=99
54654 On ch=10 n=38 v=0
54680 On ch=10 n=38 v=99
54694 On ch=10 n=38 v=0
54760 On ch=10 n=38 v=99
54773 On ch=10 n=47 v=99
54774 On ch=10 n=38 v=0
54787 On ch=10 n=47 v=0
54787 On ch=10 n=36 v=99
54800 On ch=10 n=35 v=99
54801 On ch=10 n=36 v=0
54814 On ch=10 n=35 v=0
54840 On ch=10 n=57 v=99
54854 On ch=10 n=57 v=0
54880 On ch=10 n=38 v=99
54894 On ch=10 n=38 v=0
54920 On ch=10 n=38 v=99
54934 On ch=10 n=38 v=0
55000 On ch=10 n=38 v=99
55013 On ch=10 n=47 v=99
55014 On ch=10 n=38 v=0
55027 On ch=10 n=47 v=0
55027 On ch=10 n=36 v=99
55040 On ch=10 n=35 v=99
55041 On ch=10 n=36 v=0
55054 On ch=10 n=35 v=0
55080 On ch=10 n=49 v=99
55094 On ch=10 n=49 v=0
55120 On ch=10 n=38 v=99
55134 On ch=10 n=38 v=0
55160 On ch=10 n=37 v=99
55174 On ch=10 n=37 v=0
55240 On ch=10 n=38 v=99
55253 On ch=10 n=47 v=99
55254 On ch=10 n=38 v=0
55267 On ch=10 n=47 v=0
55267 On ch=10 n=36 v=99
55280 On ch=10 n=35 v=99
55281 On ch=10 n=36 v=0
55294 On ch=10 n=35 v=0
55550 Par ch=10 c=91 v=0
55550 Meta TrkEnd
TrkEnd
MTrk
0 Meta 0x21 00
0 Meta TrkName "Tambourine on High Hat Pedal"
0 PrCh ch=10 p=0
0 Par ch=10 c=7 v=90
0 Par ch=10 c=10 v=64
1020 On ch=10 n=44 v=100
1020 On ch=10 n=54 v=100
1034 On ch=10 n=54 v=0
1034 On ch=10 n=44 v=0
1080 On ch=10 n=44 v=100
1080 On ch=10 n=54 v=100
1094 On ch=10 n=54 v=0
1094 On ch=10 n=44 v=0
1140 On ch=10 n=44 v=100
1140 On ch=10 n=54 v=100
1154 On ch=10 n=54 v=0
1154 On ch=10 n=44 v=0
1200 On ch=10 n=44 v=100
1200 On ch=10 n=54 v=100
1214 On ch=10 n=54 v=0
1214 On ch=10 n=44 v=0
1260 On ch=10 n=44 v=100
1260 On ch=10 n=54 v=100
1274 On ch=10 n=54 v=0
1274 On ch=10 n=44 v=0
1320 On ch=10 n=44 v=100
1320 On ch=10 n=54 v=100
1334 On ch=10 n=54 v=0
1334 On ch=10 n=44 v=0
1380 On ch=10 n=44 v=100
1380 On ch=10 n=54 v=100
1394 On ch=10 n=54 v=0
1394 On ch=10 n=44 v=0
1440 On ch=10 n=44 v=100
1440 On ch=10 n=54 v=100
1454 On ch=10 n=54 v=0
1454 On ch=10 n=44 v=0
1500 On ch=10 n=44 v=100
1500 On ch=10 n=54 v=100
1514 On ch=10 n=54 v=0
1514 On ch=10 n=44 v=0
1560 On ch=10 n=44 v=100
1560 On ch=10 n=54 v=100
1574 On ch=10 n=54 v=0
1574 On ch=10 n=44 v=0
1620 On ch=10 n=44 v=100
1620 On ch=10 n=54 v=100
1634 On ch=10 n=54 v=0
1634 On ch=10 n=44 v=0
1680 On ch=10 n=44 v=100
1680 On ch=10 n=54 v=100
1694 On ch=10 n=54 v=0
1694 On ch=10 n=44 v=0
1740 On ch=10 n=44 v=100
1740 On ch=10 n=54 v=100
1754 On ch=10 n=54 v=0
1754 On ch=10 n=44 v=0
1800 On ch=10 n=44 v=100
1800 On ch=10 n=54 v=100
1814 On ch=10 n=54 v=0
1814 On ch=10 n=44 v=0
1860 On ch=10 n=44 v=100
1860 On ch=10 n=54 v=100
1874 On ch=10 n=54 v=0
1874 On ch=10 n=44 v=0
1920 On ch=10 n=44 v=100
1920 On ch=10 n=54 v=100
1934 On ch=10 n=54 v=0
1934 On ch=10 n=44 v=0
1980 On ch=10 n=44 v=100
1980 On ch=10 n=54 v=100
1994 On ch=10 n=54 v=0
1994 On ch=10 n=44 v=0
2040 On ch=10 n=44 v=100
2040 On ch=10 n=54 v=100
2054 On ch=10 n=54 v=0
2054 On ch=10 n=44 v=0
2100 On ch=10 n=44 v=100
2100 On ch=10 n=54 v=100
2114 On ch=10 n=54 v=0
2114 On ch=10 n=44 v=0
2160 On ch=10 n=44 v=100
2160 On ch=10 n=54 v=100
2174 On ch=10 n=54 v=0
2174 On ch=10 n=44 v=0
2220 On ch=10 n=44 v=100
2220 On ch=10 n=54 v=100
2234 On ch=10 n=54 v=0
2234 On ch=10 n=44 v=0
2280 On ch=10 n=44 v=100
2280 On ch=10 n=54 v=100
2294 On ch=10 n=54 v=0
2294 On ch=10 n=44 v=0
2340 On ch=10 n=44 v=100
2340 On ch=10 n=54 v=100
2354 On ch=10 n=54 v=0
2354 On ch=10 n=44 v=0
2400 On ch=10 n=44 v=100
2400 On ch=10 n=54 v=100
2414 On ch=10 n=54 v=0
2414 On ch=10 n=44 v=0
2460 On ch=10 n=44 v=100
2460 On ch=10 n=54 v=100
2474 On ch=10 n=54 v=0
2474 On ch=10 n=44 v=0
2520 On ch=10 n=44 v=100
2520 On ch=10 n=54 v=100
2534 On ch=10 n=54 v=0
2534 On ch=10 n=44 v=0
2580 On ch=10 n=44 v=100
2580 On ch=10 n=54 v=100
2594 On ch=10 n=54 v=0
2594 On ch=10 n=44 v=0
2640 On ch=10 n=44 v=100
2640 On ch=10 n=54 v=100
2654 On ch=10 n=54 v=0
2654 On ch=10 n=44 v=0
2700 On ch=10 n=44 v=100
2700 On ch=10 n=54 v=100
2714 On ch=10 n=54 v=0
2714 On ch=10 n=44 v=0
2760 On ch=10 n=44 v=100
2760 On ch=10 n=54 v=100
2774 On ch=10 n=54 v=0
2774 On ch=10 n=44 v=0
2820 On ch=10 n=44 v=100
2820 On ch=10 n=54 v=100
2834 On ch=10 n=54 v=0
2834 On ch=10 n=44 v=0
2880 On ch=10 n=44 v=100
2880 On ch=10 n=54 v=100
2894 On ch=10 n=54 v=0
2894 On ch=10 n=44 v=0
2940 On ch=10 n=44 v=100
2940 On ch=10 n=54 v=100
2954 On ch=10 n=54 v=0
2954 On ch=10 n=44 v=0
3000 On ch=10 n=44 v=100
3000 On ch=10 n=54 v=100
3014 On ch=10 n=54 v=0
3014 On ch=10 n=44 v=0
3060 On ch=10 n=44 v=100
3060 On ch=10 n=54 v=100
3074 On ch=10 n=54 v=0
3074 On ch=10 n=44 v=0
3120 On ch=10 n=44 v=100
3120 On ch=10 n=54 v=100
3134 On ch=10 n=54 v=0
3134 On ch=10 n=44 v=0
3180 On ch=10 n=44 v=100
3180 On ch=10 n=54 v=100
3194 On ch=10 n=54 v=0
3194 On ch=10 n=44 v=0
3240 On ch=10 n=44 v=100
3240 On ch=10 n=54 v=100
3254 On ch=10 n=54 v=0
3254 On ch=10 n=44 v=0
3300 On ch=10 n=44 v=100
3300 On ch=10 n=54 v=100
3314 On ch=10 n=54 v=0
3314 On ch=10 n=44 v=0
3360 On ch=10 n=44 v=100
3360 On ch=10 n=54 v=100
3374 On ch=10 n=54 v=0
3374 On ch=10 n=44 v=0
3420 On ch=10 n=44 v=100
3420 On ch=10 n=54 v=100
3434 On ch=10 n=54 v=0
3434 On ch=10 n=44 v=0
3480 On ch=10 n=44 v=100
3480 On ch=10 n=54 v=100
3494 On ch=10 n=54 v=0
3494 On ch=10 n=44 v=0
3540 On ch=10 n=44 v=100
3540 On ch=10 n=54 v=100
3554 On ch=10 n=54 v=0
3554 On ch=10 n=44 v=0
3600 On ch=10 n=44 v=100
3600 On ch=10 n=54 v=100
3614 On ch=10 n=54 v=0
3614 On ch=10 n=44 v=0
3660 On ch=10 n=44 v=100
3660 On ch=10 n=54 v=100
3674 On ch=10 n=54 v=0
3674 On ch=10 n=44 v=0
3720 On ch=10 n=44 v=100
3720 On ch=10 n=54 v=100
3734 On ch=10 n=54 v=0
3734 On ch=10 n=44 v=0
3780 On ch=10 n=44 v=100
3780 On ch=10 n=54 v=100
3794 On ch=10 n=54 v=0
3794 On ch=10 n=44 v=0
3840 On ch=10 n=44 v=100
3840 On ch=10 n=54 v=100
3854 On ch=10 n=54 v=0
3854 On ch=10 n=44 v=0
3900 On ch=10 n=44 v=100
3900 On ch=10 n=54 v=100
3914 On ch=10 n=54 v=0
3914 On ch=10 n=44 v=0
3960 On ch=10 n=44 v=100
3960 On ch=10 n=54 v=100
3974 On ch=10 n=54 v=0
3974 On ch=10 n=44 v=0
4020 On ch=10 n=44 v=100
4020 On ch=10 n=54 v=100
4034 On ch=10 n=54 v=0
4034 On ch=10 n=44 v=0
4080 On ch=10 n=44 v=100
4080 On ch=10 n=54 v=100
4094 On ch=10 n=54 v=0
4094 On ch=10 n=44 v=0
4140 On ch=10 n=44 v=100
4140 On ch=10 n=54 v=100
4154 On ch=10 n=54 v=0
4154 On ch=10 n=44 v=0
4200 On ch=10 n=44 v=100
4200 On ch=10 n=54 v=100
4214 On ch=10 n=54 v=0
4214 On ch=10 n=44 v=0
4260 On ch=10 n=44 v=100
4260 On ch=10 n=54 v=100
4274 On ch=10 n=54 v=0
4274 On ch=10 n=44 v=0
4320 On ch=10 n=44 v=100
4320 On ch=10 n=54 v=100
4334 On ch=10 n=54 v=0
4334 On ch=10 n=44 v=0
4380 On ch=10 n=44 v=100
4380 On ch=10 n=54 v=100
4394 On ch=10 n=54 v=0
4394 On ch=10 n=44 v=0
4440 On ch=10 n=44 v=100
4440 On ch=10 n=54 v=100
4454 On ch=10 n=54 v=0
4454 On ch=10 n=44 v=0
4500 On ch=10 n=44 v=100
4500 On ch=10 n=54 v=100
4514 On ch=10 n=54 v=0
4514 On ch=10 n=44 v=0
4560 On ch=10 n=44 v=100
4560 On ch=10 n=54 v=100
4574 On ch=10 n=54 v=0
4574 On ch=10 n=44 v=0
4620 On ch=10 n=44 v=100
4620 On ch=10 n=54 v=100
4634 On ch=10 n=54 v=0
4634 On ch=10 n=44 v=0
4680 On ch=10 n=44 v=100
4680 On ch=10 n=54 v=100
4694 On ch=10 n=54 v=0
4694 On ch=10 n=44 v=0
4740 On ch=10 n=44 v=100
4740 On ch=10 n=54 v=100
4754 On ch=10 n=54 v=0
4754 On ch=10 n=44 v=0
4800 On ch=10 n=44 v=100
4800 On ch=10 n=54 v=100
4814 On ch=10 n=54 v=0
4814 On ch=10 n=44 v=0
4860 On ch=10 n=44 v=100
4860 On ch=10 n=54 v=100
4874 On ch=10 n=54 v=0
4874 On ch=10 n=44 v=0
4920 On ch=10 n=44 v=100
4920 On ch=10 n=54 v=100
4934 On ch=10 n=54 v=0
4934 On ch=10 n=44 v=0
4980 On ch=10 n=44 v=100
4980 On ch=10 n=54 v=100
4994 On ch=10 n=54 v=0
4994 On ch=10 n=44 v=0
5040 On ch=10 n=44 v=100
5040 On ch=10 n=54 v=100
5054 On ch=10 n=54 v=0
5054 On ch=10 n=44 v=0
5100 On ch=10 n=44 v=100
5100 On ch=10 n=54 v=100
5114 On ch=10 n=54 v=0
5114 On ch=10 n=44 v=0
5160 On ch=10 n=44 v=100
5160 On ch=10 n=54 v=100
5174 On ch=10 n=54 v=0
5174 On ch=10 n=44 v=0
5220 On ch=10 n=44 v=100
5220 On ch=10 n=54 v=100
5234 On ch=10 n=54 v=0
5234 On ch=10 n=44 v=0
5280 On ch=10 n=44 v=100
5280 On ch=10 n=54 v=100
5294 On ch=10 n=54 v=0
5294 On ch=10 n=44 v=0
5700 On ch=10 n=44 v=100
5700 On ch=10 n=54 v=100
5714 On ch=10 n=54 v=0
5714 On ch=10 n=44 v=0
5820 On ch=10 n=44 v=100
5820 On ch=10 n=54 v=100
5834 On ch=10 n=54 v=0
5834 On ch=10 n=44 v=0
5880 On ch=10 n=44 v=100
5880 On ch=10 n=54 v=100
5894 On ch=10 n=54 v=0
5894 On ch=10 n=44 v=0
5940 On ch=10 n=44 v=100
5940 On ch=10 n=54 v=100
5954 On ch=10 n=54 v=0
5954 On ch=10 n=44 v=0
6000 On ch=10 n=44 v=100
6000 On ch=10 n=54 v=100
6014 On ch=10 n=54 v=0
6014 On ch=10 n=44 v=0
6060 On ch=10 n=44 v=100
6060 On ch=10 n=54 v=100
6074 On ch=10 n=54 v=0
6074 On ch=10 n=44 v=0
6120 On ch=10 n=44 v=100
6120 On ch=10 n=54 v=100
6134 On ch=10 n=54 v=0
6134 On ch=10 n=44 v=0
6180 On ch=10 n=44 v=100
6180 On ch=10 n=54 v=100
6194 On ch=10 n=54 v=0
6194 On ch=10 n=44 v=0
6240 On ch=10 n=44 v=100
6240 On ch=10 n=54 v=100
6254 On ch=10 n=54 v=0
6254 On ch=10 n=44 v=0
6300 On ch=10 n=44 v=100
6300 On ch=10 n=54 v=100
6314 On ch=10 n=54 v=0
6314 On ch=10 n=44 v=0
6360 On ch=10 n=44 v=100
6360 On ch=10 n=54 v=100
6374 On ch=10 n=54 v=0
6374 On ch=10 n=44 v=0
6420 On ch=10 n=44 v=100
6420 On ch=10 n=54 v=100
6434 On ch=10 n=54 v=0
6434 On ch=10 n=44 v=0
6480 On ch=10 n=44 v=100
6480 On ch=10 n=54 v=100
6494 On ch=10 n=54 v=0
6494 On ch=10 n=44 v=0
6540 On ch=10 n=44 v=100
6540 On ch=10 n=54 v=100
6554 On ch=10 n=54 v=0
6554 On ch=10 n=44 v=0
6600 On ch=10 n=44 v=100
6600 On ch=10 n=54 v=100
6614 On ch=10 n=54 v=0
6614 On ch=10 n=44 v=0
6660 On ch=10 n=44 v=100
6660 On ch=10 n=54 v=100
6674 On ch=10 n=54 v=0
6674 On ch=10 n=44 v=0
6720 On ch=10 n=44 v=100
6720 On ch=10 n=54 v=100
6734 On ch=10 n=54 v=0
6734 On ch=10 n=44 v=0
6780 On ch=10 n=44 v=100
6780 On ch=10 n=54 v=100
6794 On ch=10 n=54 v=0
6794 On ch=10 n=44 v=0
6840 On ch=10 n=44 v=100
6840 On ch=10 n=54 v=100
6854 On ch=10 n=54 v=0
6854 On ch=10 n=44 v=0
6900 On ch=10 n=44 v=100
6900 On ch=10 n=54 v=100
6914 On ch=10 n=54 v=0
6914 On ch=10 n=44 v=0
6960 On ch=10 n=44 v=100
6960 On ch=10 n=54 v=100
6974 On ch=10 n=54 v=0
6974 On ch=10 n=44 v=0
7020 On ch=10 n=44 v=100
7020 On ch=10 n=54 v=100
7034 On ch=10 n=54 v=0
7034 On ch=10 n=44 v=0
7080 On ch=10 n=44 v=100
7080 On ch=10 n=54 v=100
7094 On ch=10 n=54 v=0
7094 On ch=10 n=44 v=0
7140 On ch=10 n=44 v=100
7140 On ch=10 n=54 v=100
7154 On ch=10 n=54 v=0
7154 On ch=10 n=44 v=0
7200 On ch=10 n=44 v=100
7200 On ch=10 n=54 v=100
7214 On ch=10 n=54 v=0
7214 On ch=10 n=44 v=0
7620 On ch=10 n=44 v=100
7620 On ch=10 n=54 v=100
7634 On ch=10 n=54 v=0
7634 On ch=10 n=44 v=0
7740 On ch=10 n=44 v=100
7740 On ch=10 n=54 v=100
7754 On ch=10 n=54 v=0
7754 On ch=10 n=44 v=0
7800 On ch=10 n=44 v=100
7800 On ch=10 n=54 v=100
7814 On ch=10 n=54 v=0
7814 On ch=10 n=44 v=0
7860 On ch=10 n=44 v=100
7860 On ch=10 n=54 v=100
7874 On ch=10 n=54 v=0
7874 On ch=10 n=44 v=0
7920 On ch=10 n=44 v=100
7920 On ch=10 n=54 v=100
7934 On ch=10 n=54 v=0
7934 On ch=10 n=44 v=0
7980 On ch=10 n=44 v=100
7980 On ch=10 n=54 v=100
7994 On ch=10 n=54 v=0
7994 On ch=10 n=44 v=0
8040 On ch=10 n=44 v=100
8040 On ch=10 n=54 v=100
8054 On ch=10 n=54 v=0
8054 On ch=10 n=44 v=0
8100 On ch=10 n=44 v=100
8100 On ch=10 n=54 v=100
8114 On ch=10 n=54 v=0
8114 On ch=10 n=44 v=0
8580 On ch=10 n=44 v=100
8580 On ch=10 n=54 v=100
8594 On ch=10 n=54 v=0
8594 On ch=10 n=44 v=0
8700 On ch=10 n=44 v=100
8700 On ch=10 n=54 v=100
8714 On ch=10 n=54 v=0
8714 On ch=10 n=44 v=0
8760 On ch=10 n=44 v=100
8760 On ch=10 n=54 v=100
8774 On ch=10 n=54 v=0
8774 On ch=10 n=44 v=0
8820 On ch=10 n=44 v=100
8820 On ch=10 n=54 v=100
8834 On ch=10 n=54 v=0
8834 On ch=10 n=44 v=0
8880 On ch=10 n=44 v=100
8880 On ch=10 n=54 v=100
8894 On ch=10 n=54 v=0
8894 On ch=10 n=44 v=0
8940 On ch=10 n=44 v=100
8940 On ch=10 n=54 v=100
8954 On ch=10 n=54 v=0
8954 On ch=10 n=44 v=0
9000 On ch=10 n=44 v=100
9000 On ch=10 n=54 v=100
9014 On ch=10 n=54 v=0
9014 On ch=10 n=44 v=0
9060 On ch=10 n=44 v=100
9060 On ch=10 n=54 v=100
9074 On ch=10 n=54 v=0
9074 On ch=10 n=44 v=0
9120 On ch=10 n=44 v=100
9120 On ch=10 n=54 v=100
9134 On ch=10 n=54 v=0
9134 On ch=10 n=44 v=0
9540 On ch=10 n=44 v=100
9540 On ch=10 n=54 v=100
9554 On ch=10 n=54 v=0
9554 On ch=10 n=44 v=0
9660 On ch=10 n=44 v=100
9660 On ch=10 n=54 v=100
9674 On ch=10 n=54 v=0
9674 On ch=10 n=44 v=0
9720 On ch=10 n=44 v=100
9720 On ch=10 n=54 v=100
9734 On ch=10 n=54 v=0
9734 On ch=10 n=44 v=0
9780 On ch=10 n=44 v=100
9780 On ch=10 n=54 v=100
9794 On ch=10 n=54 v=0
9794 On ch=10 n=44 v=0
9840 On ch=10 n=44 v=100
9840 On ch=10 n=54 v=100
9854 On ch=10 n=54 v=0
9854 On ch=10 n=44 v=0
9900 On ch=10 n=44 v=100
9900 On ch=10 n=54 v=100
9914 On ch=10 n=54 v=0
9914 On ch=10 n=44 v=0
9960 On ch=10 n=44 v=100
9960 On ch=10 n=54 v=100
9974 On ch=10 n=54 v=0
9974 On ch=10 n=44 v=0
10020 On ch=10 n=44 v=100
10020 On ch=10 n=54 v=100
10034 On ch=10 n=54 v=0
10034 On ch=10 n=44 v=0
10080 On ch=10 n=44 v=100
10080 On ch=10 n=54 v=100
10094 On ch=10 n=54 v=0
10094 On ch=10 n=44 v=0
10140 On ch=10 n=44 v=100
10140 On ch=10 n=54 v=100
10154 On ch=10 n=54 v=0
10154 On ch=10 n=44 v=0
10200 On ch=10 n=44 v=100
10200 On ch=10 n=54 v=100
10214 On ch=10 n=54 v=0
10214 On ch=10 n=44 v=0
10260 On ch=10 n=44 v=100
10260 On ch=10 n=54 v=100
10274 On ch=10 n=54 v=0
10274 On ch=10 n=44 v=0
10320 On ch=10 n=44 v=100
10320 On ch=10 n=54 v=100
10334 On ch=10 n=54 v=0
10334 On ch=10 n=44 v=0
10380 On ch=10 n=44 v=100
10380 On ch=10 n=54 v=100
10394 On ch=10 n=54 v=0
10394 On ch=10 n=44 v=0
10440 On ch=10 n=44 v=100
10440 On ch=10 n=54 v=100
10454 On ch=10 n=54 v=0
10454 On ch=10 n=44 v=0
10500 On ch=10 n=44 v=100
10500 On ch=10 n=54 v=100
10514 On ch=10 n=54 v=0
10514 On ch=10 n=44 v=0
10560 On ch=10 n=44 v=100
10560 On ch=10 n=54 v=100
10574 On ch=10 n=54 v=0
10574 On ch=10 n=44 v=0
10620 On ch=10 n=44 v=100
10620 On ch=10 n=54 v=100
10634 On ch=10 n=54 v=0
10634 On ch=10 n=44 v=0
10680 On ch=10 n=44 v=100
10680 On ch=10 n=54 v=100
10694 On ch=10 n=54 v=0
10694 On ch=10 n=44 v=0
10740 On ch=10 n=44 v=100
10740 On ch=10 n=54 v=100
10754 On ch=10 n=54 v=0
10754 On ch=10 n=44 v=0
10800 On ch=10 n=44 v=100
10800 On ch=10 n=54 v=100
10814 On ch=10 n=54 v=0
10814 On ch=10 n=44 v=0
10860 On ch=10 n=44 v=100
10860 On ch=10 n=54 v=100
10874 On ch=10 n=54 v=0
10874 On ch=10 n=44 v=0
10920 On ch=10 n=44 v=100
10920 On ch=10 n=54 v=100
10934 On ch=10 n=54 v=0
10934 On ch=10 n=44 v=0
10980 On ch=10 n=44 v=100
10980 On ch=10 n=54 v=100
10994 On ch=10 n=54 v=0
10994 On ch=10 n=44 v=0
11040 On ch=10 n=44 v=100
11040 On ch=10 n=54 v=100
11054 On ch=10 n=54 v=0
11054 On ch=10 n=44 v=0
11340 On ch=10 n=44 v=100
11340 On ch=10 n=54 v=100
11354 On ch=10 n=54 v=0
11354 On ch=10 n=44 v=0
11400 On ch=10 n=44 v=100
11400 On ch=10 n=54 v=100
11414 On ch=10 n=54 v=0
11414 On ch=10 n=44 v=0
11460 On ch=10 n=44 v=100
11460 On ch=10 n=54 v=100
11474 On ch=10 n=54 v=0
11474 On ch=10 n=44 v=0
12120 On ch=10 n=44 v=100
12120 On ch=10 n=54 v=100
12134 On ch=10 n=54 v=0
12134 On ch=10 n=44 v=0
12240 On ch=10 n=44 v=100
12240 On ch=10 n=54 v=100
12254 On ch=10 n=54 v=0
12254 On ch=10 n=44 v=0
12360 On ch=10 n=44 v=100
12360 On ch=10 n=54 v=100
12374 On ch=10 n=54 v=0
12374 On ch=10 n=44 v=0
12480 On ch=10 n=44 v=100
12480 On ch=10 n=54 v=100
12494 On ch=10 n=54 v=0
12494 On ch=10 n=44 v=0
12600 On ch=10 n=44 v=100
12600 On ch=10 n=54 v=100
12614 On ch=10 n=54 v=0
12614 On ch=10 n=44 v=0
12720 On ch=10 n=44 v=100
12720 On ch=10 n=54 v=100
12734 On ch=10 n=54 v=0
12734 On ch=10 n=44 v=0
12840 On ch=10 n=44 v=100
12840 On ch=10 n=54 v=100
12854 On ch=10 n=54 v=0
12854 On ch=10 n=44 v=0
12960 On ch=10 n=44 v=100
12960 On ch=10 n=54 v=100
12974 On ch=10 n=54 v=0
12974 On ch=10 n=44 v=0
13080 On ch=10 n=44 v=100
13080 On ch=10 n=54 v=100
13094 On ch=10 n=54 v=0
13094 On ch=10 n=44 v=0
13200 On ch=10 n=44 v=100
13200 On ch=10 n=54 v=100
13214 On ch=10 n=54 v=0
13214 On ch=10 n=44 v=0
13320 On ch=10 n=44 v=100
13320 On ch=10 n=54 v=100
13334 On ch=10 n=54 v=0
13334 On ch=10 n=44 v=0
13440 On ch=10 n=44 v=100
13440 On ch=10 n=54 v=100
13454 On ch=10 n=54 v=0
13454 On ch=10 n=44 v=0
13560 On ch=10 n=44 v=100
13560 On ch=10 n=54 v=100
13574 On ch=10 n=54 v=0
13574 On ch=10 n=44 v=0
13680 On ch=10 n=44 v=100
13680 On ch=10 n=54 v=100
13694 On ch=10 n=54 v=0
13694 On ch=10 n=44 v=0
13800 On ch=10 n=44 v=100
13800 On ch=10 n=54 v=100
13814 On ch=10 n=54 v=0
13814 On ch=10 n=44 v=0
13920 On ch=10 n=44 v=100
13920 On ch=10 n=54 v=100
13934 On ch=10 n=54 v=0
13934 On ch=10 n=44 v=0
14040 On ch=10 n=54 v=100
14040 On ch=10 n=44 v=100
14054 On ch=10 n=44 v=0
14054 On ch=10 n=54 v=0
14160 On ch=10 n=44 v=100
14160 On ch=10 n=54 v=100
14174 On ch=10 n=54 v=0
14174 On ch=10 n=44 v=0
14280 On ch=10 n=44 v=100
14280 On ch=10 n=54 v=100
14294 On ch=10 n=54 v=0
14294 On ch=10 n=44 v=0
14400 On ch=10 n=44 v=100
14400 On ch=10 n=54 v=100
14414 On ch=10 n=54 v=0
14414 On ch=10 n=44 v=0
14520 On ch=10 n=44 v=98
14520 On ch=10 n=54 v=98
14534 On ch=10 n=54 v=0
14534 On ch=10 n=44 v=0
14640 On ch=10 n=44 v=95
14640 On ch=10 n=54 v=95
14654 On ch=10 n=54 v=0
14654 On ch=10 n=44 v=0
14760 On ch=10 n=44 v=93
14760 On ch=10 n=54 v=93
14774 On ch=10 n=54 v=0
14774 On ch=10 n=44 v=0
14880 On ch=10 n=44 v=90
14880 On ch=10 n=54 v=90
14894 On ch=10 n=54 v=0
14894 On ch=10 n=44 v=0
15000 On ch=10 n=44 v=88
15000 On ch=10 n=54 v=88
15014 On ch=10 n=54 v=0
15014 On ch=10 n=44 v=0
15120 On ch=10 n=44 v=85
15120 On ch=10 n=54 v=85
15134 On ch=10 n=54 v=0
15134 On ch=10 n=44 v=0
15240 On ch=10 n=44 v=83
15240 On ch=10 n=54 v=83
15254 On ch=10 n=54 v=0
15254 On ch=10 n=44 v=0
15360 On ch=10 n=44 v=80
15360 On ch=10 n=54 v=80
15374 On ch=10 n=54 v=0
15374 On ch=10 n=44 v=0
15480 On ch=10 n=44 v=78
15480 On ch=10 n=54 v=78
15494 On ch=10 n=54 v=0
15494 On ch=10 n=44 v=0
15600 On ch=10 n=44 v=75
15600 On ch=10 n=54 v=75
15614 On ch=10 n=54 v=0
15614 On ch=10 n=44 v=0
41640 On ch=10 n=44 v=100
41640 On ch=10 n=54 v=100
41654 On ch=10 n=54 v=0
41654 On ch=10 n=44 v=0
41760 On ch=10 n=44 v=100
41760 On ch=10 n=54 v=100
41774 On ch=10 n=54 v=0
41774 On ch=10 n=44 v=0
41880 On ch=10 n=44 v=100
41880 On ch=10 n=54 v=100
41894 On ch=10 n=54 v=0
41894 On ch=10 n=44 v=0
42120 On ch=10 n=44 v=100
42120 On ch=10 n=54 v=100
42134 On ch=10 n=54 v=0
42134 On ch=10 n=44 v=0
42240 On ch=10 n=44 v=100
42240 On ch=10 n=54 v=100
42254 On ch=10 n=54 v=0
42254 On ch=10 n=44 v=0
42360 On ch=10 n=44 v=100
42360 On ch=10 n=54 v=100
42374 On ch=10 n=54 v=0
42374 On ch=10 n=44 v=0
42600 On ch=10 n=44 v=100
42600 On ch=10 n=54 v=100
42614 On ch=10 n=54 v=0
42614 On ch=10 n=44 v=0
43080 On ch=10 n=44 v=100
43080 On ch=10 n=54 v=100
43094 On ch=10 n=54 v=0
43094 On ch=10 n=44 v=0
43200 On ch=10 n=44 v=100
43200 On ch=10 n=54 v=100
43214 On ch=10 n=54 v=0
43214 On ch=10 n=44 v=0
43320 On ch=10 n=44 v=100
43320 On ch=10 n=54 v=100
43334 On ch=10 n=54 v=0
43334 On ch=10 n=44 v=0
43440 On ch=10 n=44 v=100
43440 On ch=10 n=54 v=100
43454 On ch=10 n=54 v=0
43454 On ch=10 n=44 v=0
43560 On ch=10 n=44 v=100
43560 On ch=10 n=54 v=100
43574 On ch=10 n=54 v=0
43574 On ch=10 n=44 v=0
43680 On ch=10 n=44 v=100
43680 On ch=10 n=54 v=100
43694 On ch=10 n=54 v=0
43694 On ch=10 n=44 v=0
43800 On ch=10 n=44 v=100
43800 On ch=10 n=54 v=100
43814 On ch=10 n=54 v=0
43814 On ch=10 n=44 v=0
43920 On ch=10 n=44 v=100
43920 On ch=10 n=54 v=100
43934 On ch=10 n=54 v=0
43934 On ch=10 n=44 v=0
44040 On ch=10 n=44 v=100
44040 On ch=10 n=54 v=100
44054 On ch=10 n=54 v=0
44054 On ch=10 n=44 v=0
44160 On ch=10 n=44 v=100
44160 On ch=10 n=54 v=100
44174 On ch=10 n=54 v=0
44174 On ch=10 n=44 v=0
44280 On ch=10 n=44 v=100
44280 On ch=10 n=54 v=100
44294 On ch=10 n=54 v=0
44294 On ch=10 n=44 v=0
44400 On ch=10 n=44 v=100
44400 On ch=10 n=54 v=100
44414 On ch=10 n=54 v=0
44414 On ch=10 n=44 v=0
44520 On ch=10 n=44 v=100
44520 On ch=10 n=54 v=100
44534 On ch=10 n=54 v=0
44534 On ch=10 n=44 v=0
44640 On ch=10 n=44 v=100
44640 On ch=10 n=54 v=100
44654 On ch=10 n=54 v=0
44654 On ch=10 n=44 v=0
44760 On ch=10 n=44 v=100
44760 On ch=10 n=54 v=100
44774 On ch=10 n=54 v=0
44774 On ch=10 n=44 v=0
44880 On ch=10 n=44 v=100
44880 On ch=10 n=54 v=100
44894 On ch=10 n=54 v=0
44894 On ch=10 n=44 v=0
45000 On ch=10 n=44 v=100
45000 On ch=10 n=54 v=100
45014 On ch=10 n=54 v=0
45014 On ch=10 n=44 v=0
51660 On ch=10 n=44 v=100
51660 On ch=10 n=54 v=100
51674 On ch=10 n=54 v=0
51674 On ch=10 n=44 v=0
51780 On ch=10 n=44 v=100
51780 On ch=10 n=54 v=100
51794 On ch=10 n=54 v=0
51794 On ch=10 n=44 v=0
51840 On ch=10 n=44 v=100
51840 On ch=10 n=54 v=100
51854 On ch=10 n=54 v=0
51854 On ch=10 n=44 v=0
51900 On ch=10 n=44 v=100
51900 On ch=10 n=54 v=100
51914 On ch=10 n=54 v=0
51914 On ch=10 n=44 v=0
51960 On ch=10 n=44 v=100
51960 On ch=10 n=54 v=100
51974 On ch=10 n=54 v=0
51974 On ch=10 n=44 v=0
52020 On ch=10 n=44 v=100
52020 On ch=10 n=54 v=100
52034 On ch=10 n=54 v=0
52034 On ch=10 n=44 v=0
52080 On ch=10 n=44 v=100
52080 On ch=10 n=54 v=100
52094 On ch=10 n=54 v=0
52094 On ch=10 n=44 v=0
52140 On ch=10 n=44 v=100
52140 On ch=10 n=54 v=100
52154 On ch=10 n=54 v=0
52154 On ch=10 n=44 v=0
52200 On ch=10 n=44 v=100
52200 On ch=10 n=54 v=100
52214 On ch=10 n=54 v=0
52214 On ch=10 n=44 v=0
52260 On ch=10 n=44 v=100
52260 On ch=10 n=54 v=100
52274 On ch=10 n=54 v=0
52274 On ch=10 n=44 v=0
52320 On ch=10 n=44 v=100
52320 On ch=10 n=54 v=100
52334 On ch=10 n=54 v=0
52334 On ch=10 n=44 v=0
52380 On ch=10 n=44 v=100
52380 On ch=10 n=54 v=100
52394 On ch=10 n=54 v=0
52394 On ch=10 n=44 v=0
52440 On ch=10 n=44 v=100
52440 On ch=10 n=54 v=100
52454 On ch=10 n=54 v=0
52454 On ch=10 n=44 v=0
52500 On ch=10 n=44 v=100
52500 On ch=10 n=54 v=100
52514 On ch=10 n=54 v=0
52514 On ch=10 n=44 v=0
52560 On ch=10 n=44 v=100
52560 On ch=10 n=54 v=100
52574 On ch=10 n=54 v=0
52574 On ch=10 n=44 v=0
52620 On ch=10 n=44 v=100
52620 On ch=10 n=54 v=100
52634 On ch=10 n=54 v=0
52634 On ch=10 n=44 v=0
52740 On ch=10 n=44 v=100
52740 On ch=10 n=54 v=100
52754 On ch=10 n=54 v=0
52754 On ch=10 n=44 v=0
52800 On ch=10 n=44 v=100
52800 On ch=10 n=54 v=100
52814 On ch=10 n=54 v=0
52814 On ch=10 n=44 v=0
52860 On ch=10 n=44 v=100
52860 On ch=10 n=54 v=100
52874 On ch=10 n=54 v=0
52874 On ch=10 n=44 v=0
52920 On ch=10 n=44 v=100
52920 On ch=10 n=54 v=100
52934 On ch=10 n=54 v=0
52934 On ch=10 n=44 v=0
52980 On ch=10 n=44 v=100
52980 On ch=10 n=54 v=100
52994 On ch=10 n=54 v=0
52994 On ch=10 n=44 v=0
53040 On ch=10 n=44 v=100
53040 On ch=10 n=54 v=100
53054 On ch=10 n=54 v=0
53054 On ch=10 n=44 v=0
53100 On ch=10 n=44 v=100
53100 On ch=10 n=54 v=100
53114 On ch=10 n=54 v=0
53114 On ch=10 n=44 v=0
53700 On ch=10 n=44 v=100
53700 On ch=10 n=54 v=100
53714 On ch=10 n=54 v=0
53714 On ch=10 n=44 v=0
53760 On ch=10 n=44 v=100
53760 On ch=10 n=54 v=100
53774 On ch=10 n=54 v=0
53774 On ch=10 n=44 v=0
53820 On ch=10 n=44 v=100
53820 On ch=10 n=54 v=100
53834 On ch=10 n=54 v=0
53834 On ch=10 n=44 v=0
53880 On ch=10 n=44 v=100
53880 On ch=10 n=54 v=100
53894 On ch=10 n=54 v=0
53894 On ch=10 n=44 v=0
53940 On ch=10 n=44 v=100
53940 On ch=10 n=54 v=100
53954 On ch=10 n=54 v=0
53954 On ch=10 n=44 v=0
54000 On ch=10 n=44 v=100
54000 On ch=10 n=54 v=100
54014 On ch=10 n=54 v=0
54014 On ch=10 n=44 v=0
54060 On ch=10 n=44 v=100
54060 On ch=10 n=54 v=100
54074 On ch=10 n=54 v=0
54074 On ch=10 n=44 v=0
54120 On ch=10 n=44 v=100
54120 On ch=10 n=54 v=100
54134 On ch=10 n=54 v=0
54134 On ch=10 n=44 v=0
54134 Meta TrkEnd
TrkEnd
MTrk
0 Meta 0x21 00
0 Meta TrkName "Double Track Guitar 2"
0 PrCh ch=4 p=30
0 Par ch=4 c=7 v=90
0 Par ch=4 c=10 v=29
43 Par ch=4 c=91 v=79
965 On ch=4 n=50 v=100
1025 On ch=4 n=50 v=0
1025 On ch=4 n=62 v=100
1055 On ch=4 n=62 v=0
1085 On ch=4 n=62 v=100
1115 On ch=4 n=62 v=0
1115 On ch=4 n=60 v=100
1145 On ch=4 n=60 v=0
1145 On ch=4 n=55 v=100
1175 On ch=4 n=55 v=0
1175 On ch=4 n=53 v=100
1265 On ch=4 n=53 v=0
1265 On ch=4 n=55 v=100
1295 On ch=4 n=55 v=0
1295 On ch=4 n=53 v=100
1355 On ch=4 n=53 v=0
1355 On ch=4 n=55 v=100
1415 On ch=4 n=55 v=0
1415 On ch=4 n=53 v=100
1445 On ch=4 n=53 v=0
1445 On ch=4 n=50 v=100
1505 On ch=4 n=50 v=0
1505 On ch=4 n=62 v=100
1535 On ch=4 n=62 v=0
1565 On ch=4 n=62 v=100
1595 On ch=4 n=62 v=0
1595 On ch=4 n=60 v=100
1625 On ch=4 n=60 v=0
1625 On ch=4 n=55 v=100
1655 On ch=4 n=55 v=0
1655 On ch=4 n=53 v=100
1745 On ch=4 n=53 v=0
1745 On ch=4 n=55 v=100
1775 On ch=4 n=55 v=0
1775 On ch=4 n=53 v=100
1835 On ch=4 n=53 v=0
1835 On ch=4 n=55 v=100
1895 On ch=4 n=55 v=0
1895 On ch=4 n=53 v=100
1925 On ch=4 n=53 v=0
1925 On ch=4 n=50 v=100
1985 On ch=4 n=50 v=0
1985 On ch=4 n=62 v=100
2015 On ch=4 n=62 v=0
2045 On ch=4 n=62 v=100
2075 On ch=4 n=62 v=0
2075 On ch=4 n=60 v=100
2105 On ch=4 n=60 v=0
2105 On ch=4 n=55 v=100
2135 On ch=4 n=55 v=0
2135 On ch=4 n=53 v=100
2225 On ch=4 n=53 v=0
2225 On ch=4 n=55 v=100
2255 On ch=4 n=55 v=0
2255 On ch=4 n=53 v=100
2315 On ch=4 n=53 v=0
2315 On ch=4 n=55 v=100
2375 On ch=4 n=55 v=0
2375 On ch=4 n=53 v=100
2405 On ch=4 n=53 v=0
2405 On ch=4 n=50 v=100
2465 On ch=4 n=50 v=0
2465 On ch=4 n=62 v=100
2495 On ch=4 n=62 v=0
2525 On ch=4 n=62 v=100
2555 On ch=4 n=62 v=0
2555 On ch=4 n=60 v=100
2585 On ch=4 n=60 v=0
2585 On ch=4 n=55 v=100
2615 On ch=4 n=55 v=0
2615 On ch=4 n=53 v=100
2705 On ch=4 n=53 v=0
2705 On ch=4 n=55 v=100
2735 On ch=4 n=55 v=0
2735 On ch=4 n=53 v=100
2795 On ch=4 n=53 v=0
2795 On ch=4 n=55 v=100
2855 On ch=4 n=55 v=0
2855 On ch=4 n=53 v=100
2885 On ch=4 n=53 v=0
2885 On ch=4 n=55 v=100
2945 On ch=4 n=55 v=0
2945 On ch=4 n=67 v=100
2975 On ch=4 n=67 v=0
3005 On ch=4 n=67 v=100
3035 On ch=4 n=67 v=0
3035 On ch=4 n=65 v=100
3065 On ch=4 n=65 v=0
3065 On ch=4 n=62 v=100
3095 On ch=4 n=62 v=0
3095 On ch=4 n=58 v=100
3185 On ch=4 n=58 v=0
3185 On ch=4 n=60 v=100
3215 On ch=4 n=60 v=0
3215 On ch=4 n=58 v=100
3275 On ch=4 n=58 v=0
3275 On ch=4 n=60 v=100
3335 On ch=4 n=60 v=0
3335 On ch=4 n=58 v=100
3365 On ch=4 n=58 v=0
3365 On ch=4 n=55 v=100
3425 On ch=4 n=55 v=0
3425 On ch=4 n=67 v=100
3455 On ch=4 n=67 v=0
3485 On ch=4 n=67 v=100
3515 On ch=4 n=67 v=0
3515 On ch=4 n=65 v=100
3545 On ch=4 n=65 v=0
3545 On ch=4 n=62 v=100
3575 On ch=4 n=62 v=0
3575 On ch=4 n=58 v=100
3665 On ch=4 n=58 v=0
3665 On ch=4 n=60 v=100
3695 On ch=4 n=60 v=0
3695 On ch=4 n=58 v=100
3755 On ch=4 n=58 v=0
3755 On ch=4 n=60 v=100
3815 On ch=4 n=60 v=0
3815 On ch=4 n=58 v=100
3845 On ch=4 n=58 v=0
3845 On ch=4 n=50 v=100
3905 On ch=4 n=50 v=0
3905 On ch=4 n=62 v=100
3935 On ch=4 n=62 v=0
3965 On ch=4 n=62 v=100
3995 On ch=4 n=62 v=0
3995 On ch=4 n=60 v=100
4025 On ch=4 n=60 v=0
4025 On ch=4 n=55 v=100
4055 On ch=4 n=55 v=0
4055 On ch=4 n=53 v=100
4145 On ch=4 n=53 v=0
4145 On ch=4 n=55 v=100
4175 On ch=4 n=55 v=0
4175 On ch=4 n=53 v=100
4235 On ch=4 n=53 v=0
4235 On ch=4 n=55 v=100
4295 On ch=4 n=55 v=0
4295 On ch=4 n=53 v=100
4325 On ch=4 n=53 v=0
4325 On ch=4 n=50 v=100
4385 On ch=4 n=50 v=0
4385 On ch=4 n=62 v=100
4415 On ch=4 n=62 v=0
4445 On ch=4 n=62 v=100
4475 On ch=4 n=62 v=0
4475 On ch=4 n=60 v=100
4505 On ch=4 n=60 v=0
4505 On ch=4 n=55 v=100
4535 On ch=4 n=55 v=0
4535 On ch=4 n=53 v=100
4625 On ch=4 n=53 v=0
4625 On ch=4 n=55 v=100
4655 On ch=4 n=55 v=0
4655 On ch=4 n=53 v=100
4715 On ch=4 n=53 v=0
4715 On ch=4 n=55 v=100
4775 On ch=4 n=55 v=0
4775 On ch=4 n=53 v=100
4805 On ch=4 n=53 v=0
4805 On ch=4 n=57 v=100
4865 On ch=4 n=57 v=0
4865 On ch=4 n=69 v=100
4895 On ch=4 n=69 v=0
4925 On ch=4 n=69 v=100
4955 On ch=4 n=69 v=0
4955 On ch=4 n=67 v=100
4985 On ch=4 n=67 v=0
4985 On ch=4 n=64 v=100
5015 On ch=4 n=64 v=0
5015 On ch=4 n=69 v=100
5045 On ch=4 n=69 v=0
5075 On ch=4 n=69 v=100
5105 On ch=4 n=69 v=0
5135 On ch=4 n=64 v=100
5165 On ch=4 n=64 v=0
5165 On ch=4 n=67 v=100
5225 On ch=4 n=67 v=0
5225 On ch=4 n=69 v=100
5255 On ch=4 n=69 v=0
5255 On ch=4 n=62 v=100
5285 On ch=4 n=62 v=0
5285 On ch=4 n=67 v=100
5315 On ch=4 n=67 v=0
5315 On ch=4 n=67 v=100
5345 On ch=4 n=67 v=0
5345 On ch=4 n=67 v=100
5375 On ch=4 n=67 v=0
5375 On ch=4 n=67 v=100
5405 On ch=4 n=67 v=0
5405 On ch=4 n=67 v=100
5435 On ch=4 n=67 v=0
5435 On ch=4 n=65 v=100
5465 On ch=4 n=65 v=0
5465 On ch=4 n=62 v=100
5495 On ch=4 n=62 v=0
5495 On ch=4 n=72 v=100
5525 On ch=4 n=72 v=0
5525 On ch=4 n=74 v=100
5585 On ch=4 n=74 v=0
5585 On ch=4 n=72 v=100
5615 On ch=4 n=72 v=0
5615 On ch=4 n=69 v=100
5645 On ch=4 n=69 v=0
5645 On ch=4 n=67 v=100
5675 On ch=4 n=67 v=0
5675 On ch=4 n=65 v=100
5765 On ch=4 n=65 v=0
5765 On ch=4 n=50 v=100
5825 On ch=4 n=50 v=0
5825 On ch=4 n=62 v=100
5855 On ch=4 n=62 v=0
5885 On ch=4 n=62 v=100
5915 On ch=4 n=62 v=0
5915 On ch=4 n=60 v=100
5945 On ch=4 n=60 v=0
5945 On ch=4 n=55 v=100
5975 On ch=4 n=55 v=0
5975 On ch=4 n=53 v=100
6065 On ch=4 n=53 v=0
6065 On ch=4 n=55 v=100
6095 On ch=4 n=55 v=0
6095 On ch=4 n=53 v=100
6155 On ch=4 n=53 v=0
6155 On ch=4 n=55 v=100
6215 On ch=4 n=55 v=0
6215 On ch=4 n=53 v=100
6245 On ch=4 n=53 v=0
6245 On ch=4 n=50 v=100
6305 On ch=4 n=50 v=0
6305 On ch=4 n=62 v=100
6335 On ch=4 n=62 v=0
6365 On ch=4 n=62 v=100
6395 On ch=4 n=62 v=0
6395 On ch=4 n=60 v=100
6425 On ch=4 n=60 v=0
6425 On ch=4 n=55 v=100
6455 On ch=4 n=55 v=0
6455 On ch=4 n=53 v=100
6545 On ch=4 n=53 v=0
6545 On ch=4 n=55 v=100
6575 On ch=4 n=55 v=0
6575 On ch=4 n=53 v=100
6635 On ch=4 n=53 v=0
6635 On ch=4 n=55 v=100
6695 On ch=4 n=55 v=0
6695 On ch=4 n=53 v=100
6725 On ch=4 n=53 v=0
6725 On ch=4 n=50 v=100
6785 On ch=4 n=50 v=0
6785 On ch=4 n=62 v=100
6815 On ch=4 n=62 v=0
6845 On ch=4 n=62 v=100
6875 On ch=4 n=62 v=0
6875 On ch=4 n=60 v=100
6905 On ch=4 n=60 v=0
6905 On ch=4 n=55 v=100
6935 On ch=4 n=55 v=0
6935 On ch=4 n=53 v=100
7025 On ch=4 n=53 v=0
7025 On ch=4 n=55 v=100
7055 On ch=4 n=55 v=0
7055 On ch=4 n=53 v=100
7115 On ch=4 n=53 v=0
7115 On ch=4 n=55 v=100
7175 On ch=4 n=55 v=0
7175 On ch=4 n=53 v=100
7205 On ch=4 n=53 v=0
7205 On ch=4 n=50 v=100
7265 On ch=4 n=50 v=0
7685 On ch=4 n=50 v=100
7745 On ch=4 n=50 v=0
7745 On ch=4 n=62 v=100
7775 On ch=4 n=62 v=0
7805 On ch=4 n=62 v=100
7835 On ch=4 n=62 v=0
7835 On ch=4 n=60 v=100
7865 On ch=4 n=60 v=0
7865 On ch=4 n=55 v=100
7895 On ch=4 n=55 v=0
7895 On ch=4 n=53 v=100
7985 On ch=4 n=53 v=0
7985 On ch=4 n=55 v=100
8015 On ch=4 n=55 v=0
8015 On ch=4 n=53 v=100
8075 On ch=4 n=53 v=0
8075 On ch=4 n=55 v=100
8135 On ch=4 n=55 v=0
8135 On ch=4 n=53 v=100
8165 On ch=4 n=53 v=0
8165 On ch=4 n=50 v=100
8225 On ch=4 n=50 v=0
8645 On ch=4 n=55 v=100
8705 On ch=4 n=55 v=0
8705 On ch=4 n=67 v=100
8735 On ch=4 n=67 v=0
8765 On ch=4 n=67 v=100
8795 On ch=4 n=67 v=0
8795 On ch=4 n=65 v=100
8825 On ch=4 n=65 v=0
8825 On ch=4 n=62 v=100
8855 On ch=4 n=62 v=0
8855 On ch=4 n=58 v=100
8945 On ch=4 n=58 v=0
8945 On ch=4 n=60 v=100
8975 On ch=4 n=60 v=0
8975 On ch=4 n=58 v=100
9035 On ch=4 n=58 v=0
9035 On ch=4 n=60 v=100
9095 On ch=4 n=60 v=0
9095 On ch=4 n=58 v=100
9125 On ch=4 n=58 v=0
9125 On ch=4 n=55 v=100
9185 On ch=4 n=55 v=0
9605 On ch=4 n=50 v=100
9665 On ch=4 n=50 v=0
9665 On ch=4 n=62 v=100
9695 On ch=4 n=62 v=0
9725 On ch=4 n=62 v=100
9755 On ch=4 n=62 v=0
9755 On ch=4 n=60 v=100
9785 On ch=4 n=60 v=0
9785 On ch=4 n=55 v=100
9815 On ch=4 n=55 v=0
9815 On ch=4 n=53 v=100
9905 On ch=4 n=53 v=0
9905 On ch=4 n=55 v=100
9935 On ch=4 n=55 v=0
9935 On ch=4 n=53 v=100
9995 On ch=4 n=53 v=0
9995 On ch=4 n=55 v=100
10055 On ch=4 n=55 v=0
10055 On ch=4 n=53 v=100
10085 On ch=4 n=53 v=0
10085 On ch=4 n=50 v=100
10145 On ch=4 n=50 v=0
10565 On ch=4 n=57 v=100
10625 On ch=4 n=57 v=0
10625 On ch=4 n=69 v=100
10655 On ch=4 n=69 v=0
10685 On ch=4 n=69 v=100
10715 On ch=4 n=69 v=0
10715 On ch=4 n=67 v=100
10745 On ch=4 n=67 v=0
10745 On ch=4 n=64 v=100
10775 On ch=4 n=64 v=0
10775 On ch=4 n=69 v=100
10805 On ch=4 n=69 v=0
10835 On ch=4 n=69 v=100
10865 On ch=4 n=69 v=0
10895 On ch=4 n=64 v=100
10925 On ch=4 n=64 v=0
10925 On ch=4 n=67 v=100
10985 On ch=4 n=67 v=0
10985 On ch=4 n=69 v=100
11015 On ch=4 n=69 v=0
11015 On ch=4 n=62 v=100
11045 On ch=4 n=62 v=0
11045 On ch=4 n=67 v=100
11075 On ch=4 n=67 v=0
11075 On ch=4 n=67 v=100
11105 On ch=4 n=67 v=0
11105 On ch=4 n=67 v=100
11135 On ch=4 n=67 v=0
11135 On ch=4 n=67 v=100
11165 On ch=4 n=67 v=0
11165 On ch=4 n=67 v=100
11195 On ch=4 n=67 v=0
11195 On ch=4 n=65 v=100
11225 On ch=4 n=65 v=0
11225 On ch=4 n=62 v=100
11255 On ch=4 n=62 v=0
11255 On ch=4 n=72 v=100
11285 On ch=4 n=72 v=0
11285 On ch=4 n=74 v=100
11345 On ch=4 n=74 v=0
11345 On ch=4 n=72 v=100
11375 On ch=4 n=72 v=0
11375 On ch=4 n=69 v=100
11405 On ch=4 n=69 v=0
11405 On ch=4 n=67 v=100
11435 On ch=4 n=67 v=0
11435 On ch=4 n=65 v=100
11525 On ch=4 n=65 v=0
11525 On ch=4 n=50 v=100
11525 On ch=4 n=57 v=100
11525 On ch=4 n=62 v=100
11585 On ch=4 n=62 v=0
11585 On ch=4 n=57 v=0
11585 On ch=4 n=50 v=0
51725 On ch=4 n=50 v=100
51785 On ch=4 n=50 v=0
51785 On ch=4 n=62 v=100
51815 On ch=4 n=62 v=0
51845 On ch=4 n=62 v=100
51875 On ch=4 n=62 v=0
51875 On ch=4 n=60 v=100
51905 On ch=4 n=60 v=0
51905 On ch=4 n=55 v=100
51935 On ch=4 n=55 v=0
51935 On ch=4 n=53 v=100
52025 On ch=4 n=53 v=0
52025 On ch=4 n=55 v=100
52055 On ch=4 n=55 v=0
52055 On ch=4 n=53 v=100
52115 On ch=4 n=53 v=0
52115 On ch=4 n=55 v=100
52175 On ch=4 n=55 v=0
52175 On ch=4 n=53 v=100
52205 On ch=4 n=53 v=0
52205 On ch=4 n=50 v=100
52265 On ch=4 n=50 v=0
52685 On ch=4 n=55 v=100
52745 On ch=4 n=55 v=0
52745 On ch=4 n=67 v=100
52775 On ch=4 n=67 v=0
52805 On ch=4 n=67 v=100
52835 On ch=4 n=67 v=0
52835 On ch=4 n=65 v=100
52865 On ch=4 n=65 v=0
52865 On ch=4 n=62 v=100
52895 On ch=4 n=62 v=0
52895 On ch=4 n=58 v=100
52985 On ch=4 n=58 v=0
52985 On ch=4 n=60 v=100
53015 On ch=4 n=60 v=0
53015 On ch=4 n=58 v=100
53075 On ch=4 n=58 v=0
53075 On ch=4 n=60 v=100
53135 On ch=4 n=60 v=0
53135 On ch=4 n=58 v=100
53165 On ch=4 n=58 v=0
53165 On ch=4 n=55 v=100
53225 On ch=4 n=55 v=0
53645 On ch=4 n=57 v=100
53705 On ch=4 n=57 v=0
53705 On ch=4 n=69 v=100
53735 On ch=4 n=69 v=0
53765 On ch=4 n=69 v=100
53795 On ch=4 n=69 v=0
53795 On ch=4 n=67 v=100
53825 On ch=4 n=67 v=0
53825 On ch=4 n=64 v=100
53855 On ch=4 n=64 v=0
53855 On ch=4 n=69 v=100
53885 On ch=4 n=69 v=0
53915 On ch=4 n=69 v=100
53945 On ch=4 n=69 v=0
53975 On ch=4 n=64 v=100
54005 On ch=4 n=64 v=0
54005 On ch=4 n=67 v=100
54065 On ch=4 n=67 v=0
54065 On ch=4 n=69 v=100
54095 On ch=4 n=69 v=0
54095 On ch=4 n=62 v=100
54125 On ch=4 n=62 v=0
54125 On ch=4 n=67 v=100
54155 On ch=4 n=67 v=0
54155 On ch=4 n=67 v=100
54185 On ch=4 n=67 v=0
54185 On ch=4 n=67 v=100
54215 On ch=4 n=67 v=0
54215 On ch=4 n=67 v=100
54245 On ch=4 n=67 v=0
54245 On ch=4 n=67 v=100
54275 On ch=4 n=67 v=0
54275 On ch=4 n=65 v=100
54305 On ch=4 n=65 v=0
54305 On ch=4 n=62 v=100
54335 On ch=4 n=62 v=0
54335 On ch=4 n=72 v=100
54365 On ch=4 n=72 v=0
54365 On ch=4 n=74 v=100
54425 On ch=4 n=74 v=0
54425 On ch=4 n=72 v=100
54455 On ch=4 n=72 v=0
54455 On ch=4 n=69 v=100
54485 On ch=4 n=69 v=0
54485 On ch=4 n=67 v=100
54515 On ch=4 n=67 v=0
54515 On ch=4 n=65 v=100
54605 On ch=4 n=65 v=0
54605 On ch=4 n=38 v=100
54605 On ch=4 n=50 v=100
54605 On ch=4 n=57 v=100
54605 On ch=4 n=62 v=100
54605 On ch=4 n=66 v=100
54845 On ch=4 n=66 v=0
54845 On ch=4 n=57 v=0
54845 On ch=4 n=38 v=0
54845 On ch=4 n=50 v=0
54845 On ch=4 n=62 v=0
54845 On ch=4 n=64 v=100
54845 On ch=4 n=60 v=100
54845 On ch=4 n=55 v=100
54845 On ch=4 n=48 v=100
55085 On ch=4 n=48 v=0
55085 On ch=4 n=64 v=0
55085 On ch=4 n=60 v=0
55085 On ch=4 n=55 v=0
55085 On ch=4 n=45 v=100
55085 On ch=4 n=52 v=100
55085 On ch=4 n=57 v=100
55085 On ch=4 n=61 v=100
55325 On ch=4 n=61 v=0
55325 On ch=4 n=45 v=0
55325 On ch=4 n=52 v=0
55325 On ch=4 n=57 v=0
55537 Par ch=4 c=91 v=0
55537 Meta TrkEnd
TrkEnd
MTrk
0 Meta 0x21 00
0 Meta TrkName "Double Track Guitar 1"
0 PrCh ch=5 p=30
0 Par ch=5 c=7 v=90
0 Par ch=5 c=10 v=119
62 Par ch=5 c=91 v=78
7201 On ch=5 n=69 v=100
7231 On ch=5 n=69 v=100
7261 On ch=5 n=69 v=0
7261 On ch=5 n=74 v=100
7261 On ch=5 n=69 v=100
7291 On ch=5 n=69 v=0
7291 On ch=5 n=74 v=0
7291 On ch=5 n=69 v=0
7291 On ch=5 n=69 v=100
7321 On ch=5 n=69 v=0
7321 On ch=5 n=67 v=100
7336 On ch=5 n=67 v=0
7336 On ch=5 n=65 v=100
7351 On ch=5 n=65 v=0
7351 On ch=5 n=62 v=100
7381 On ch=5 n=62 v=0
7381 On ch=5 n=67 v=100
7411 On ch=5 n=67 v=0
7411 On ch=5 n=65 v=100
7441 On ch=5 n=65 v=0
7441 On ch=5 n=62 v=100
7501 On ch=5 n=62 v=0
7501 On ch=5 n=62 v=100
7531 On ch=5 n=62 v=0
7531 On ch=5 n=60 v=100
7561 On ch=5 n=60 v=0
7561 On ch=5 n=62 v=100
7591 On ch=5 n=62 v=0
7591 On ch=5 n=67 v=100
7621 On ch=5 n=67 v=0
7621 On ch=5 n=65 v=100
7681 On ch=5 n=65 v=0
8161 On ch=5 n=74 v=100
8161 On ch=5 n=77 v=100
8161 Pb ch=5 v=8576
8187 On ch=5 n=77 v=0
8187 On ch=5 n=74 v=0
8188 Pb ch=5 v=8832
8191 On ch=5 n=74 v=100
8217 On ch=5 n=74 v=0
8218 Pb ch=5 v=8448
8221 On ch=5 n=74 v=100
8246 Pb ch=5 v=9472
8247 On ch=5 n=74 v=0
8251 On ch=5 n=74 v=100
8251 On ch=5 n=77 v=100
8277 On ch=5 n=77 v=0
8277 On ch=5 n=74 v=0
8281 On ch=5 n=74 v=100
8282 Pb ch=5 v=8320
8307 On ch=5 n=74 v=0
8311 On ch=5 n=74 v=100
8312 Pb ch=5 v=7936
8315 Pb ch=5 v=8832
8337 On ch=5 n=74 v=0
8341 On ch=5 n=74 v=100
8346 Pb ch=5 v=8320
8367 On ch=5 n=74 v=0
8371 On ch=5 n=77 v=100
8385 Pb ch=5 v=9344
8401 Pb ch=5 v=6144
8427 On ch=5 n=77 v=0
8429 Pb ch=5 v=8192
8431 On ch=5 n=74 v=100
8446 On ch=5 n=74 v=0
8446 On ch=5 n=69 v=100
8461 On ch=5 n=69 v=0
8461 On ch=5 n=67 v=100
8491 On ch=5 n=67 v=0
8491 On ch=5 n=77 v=100
8506 Pb ch=5 v=9216
8522 Pb ch=5 v=6144
8547 On ch=5 n=77 v=0
8549 Pb ch=5 v=8192
8551 On ch=5 n=74 v=100
8566 On ch=5 n=74 v=0
8566 On ch=5 n=69 v=100
8581 On ch=5 n=69 v=0
8581 On ch=5 n=67 v=100
8641 On ch=5 n=67 v=0
9091 On ch=5 n=67 v=100
9106 On ch=5 n=67 v=0
9106 On ch=5 n=65 v=100
9121 On ch=5 n=65 v=0
9121 On ch=5 n=64 v=100
9151 On ch=5 n=64 v=0
9151 On ch=5 n=62 v=100
9166 On ch=5 n=62 v=0
9166 On ch=5 n=60 v=100
9181 On ch=5 n=60 v=0
9181 On ch=5 n=59 v=100
9211 On ch=5 n=59 v=0
9211 On ch=5 n=58 v=100
9226 On ch=5 n=58 v=0
9226 On ch=5 n=56 v=100
9241 On ch=5 n=56 v=0
9241 On ch=5 n=55 v=100
9271 On ch=5 n=55 v=0
9271 On ch=5 n=53 v=100
9286 On ch=5 n=53 v=0
9286 On ch=5 n=51 v=100
9301 On ch=5 n=51 v=0
9301 On ch=5 n=50 v=100
9301 On ch=5 n=50 v=100
9331 On ch=5 n=50 v=0
9331 On ch=5 n=67 v=100
9346 On ch=5 n=67 v=0
9346 On ch=5 n=65 v=100
9361 On ch=5 n=65 v=0
9361 On ch=5 n=64 v=100
9391 On ch=5 n=64 v=0
9391 On ch=5 n=62 v=100
9406 On ch=5 n=62 v=0
9406 On ch=5 n=60 v=100
9421 On ch=5 n=60 v=0
9421 On ch=5 n=59 v=100
9451 On ch=5 n=59 v=0
9451 On ch=5 n=58 v=100
9466 On ch=5 n=58 v=0
9466 On ch=5 n=57 v=100
9481 On ch=5 n=57 v=0
9481 On ch=5 n=50 v=0
9481 On ch=5 n=55 v=100
9511 On ch=5 n=55 v=0
9511 On ch=5 n=53 v=100
9526 On ch=5 n=53 v=0
9526 On ch=5 n=51 v=100
9541 On ch=5 n=51 v=0
9541 On ch=5 n=50 v=100
9571 On ch=5 n=50 v=0
9571 On ch=5 n=48 v=100
9571 Pb ch=5 v=7168
9584 On ch=5 n=48 v=0
9585 Pb ch=5 v=8192
9586 On ch=5 n=45 v=100
9601 On ch=5 n=45 v=0
9601 On ch=5 n=38 v=110
9841 On ch=5 n=38 v=0
10081 On ch=5 n=50 v=100
10121 On ch=5 n=50 v=0
10121 On ch=5 n=50 v=100
10138 On ch=5 n=50 v=0
10139 Pb ch=5 v=128
10141 On ch=5 n=54 v=100
10148 Pb ch=5 v=8192
10161 On ch=5 n=54 v=0
10161 On ch=5 n=62 v=100
10161 On ch=5 n=57 v=100
10181 On ch=5 n=57 v=0
10181 On ch=5 n=62 v=0
10181 On ch=5 n=59 v=100
10201 On ch=5 n=59 v=0
10201 On ch=5 n=62 v=100
10221 On ch=5 n=62 v=0
10221 On ch=5 n=62 v=100
10241 On ch=5 n=62 v=0
10241 On ch=5 n=58 v=100
10258 On ch=5 n=58 v=0
10259 Pb ch=5 v=128
10261 On ch=5 n=66 v=100
10261 On ch=5 n=62 v=100
10269 Pb ch=5 v=8192
10281 On ch=5 n=62 v=0
10281 On ch=5 n=66 v=0
10281 On ch=5 n=69 v=100
10281 On ch=5 n=74 v=100
10301 On ch=5 n=74 v=0
10301 On ch=5 n=69 v=0
10301 On ch=5 n=69 v=100
10301 On ch=5 n=74 v=100
10321 On ch=5 n=74 v=0
10321 On ch=5 n=69 v=0
10321 On ch=5 n=74 v=100
10351 On ch=5 n=74 v=0
10351 On ch=5 n=74 v=100
10406 On ch=5 n=74 v=0
10409 Pb ch=5 v=128
10411 On ch=5 n=74 v=100
10433 Pb ch=5 v=8192
10561 On ch=5 n=74 v=0
55516 Par ch=5 c=91 v=0
55519 Par ch=5 c=91 v=0
55519 Meta TrkEnd
TrkEnd
MTrk
0 Meta 0x21 00
0 Meta TrkName "\" Moby Dick \""
0 Meta TrkEnd
TrkEnd
MTrk
0 Meta 0x21 00
0 Meta TrkName "by Led Zeppelin"
0 Meta TrkEnd
TrkEnd
MTrk
0 Meta 0x21 00
0 Meta TrkName "\xa9 1969"
0 Meta TrkEnd
TrkEnd
MTrk
0 Meta 0x21 00
0 Meta TrkName "Sequenced by"
0 Meta TrkEnd
TrkEnd
MTrk
0 Meta 0x21 00
0 Meta TrkName "LowCPM  ( c : ="
0 Meta TrkEnd
TrkEnd
