MFile 1 17 120
MTrk
0 TimeSig 4/4 24 8
0 KeySig 0 major
0 Tempo 625000
6704 Tempo 504201
6960 Tempo 606060
9592 Tempo 594059
9601 Tempo 645161
9627 Tempo 652173
9631 Tempo 659340
9643 Tempo 666666
9651 Tempo 674157
9663 Tempo 681818
9675 Tempo 689655
9697 Tempo 697674
9749 Tempo 705882
9775 Tempo 714285
9791 Tempo 722891
9819 Tempo 731707
9827 Tempo 740740
9847 Tempo 750000
9863 Tempo 759493
9883 Tempo 769230
9915 Tempo 779220
9947 Tempo 789473
9967 Tempo 800000
9975 Tempo 810810
10003 Tempo 821917
10075 Tempo 833333
10114 Tempo 857142
10114 Meta TrkEnd
TrkEnd
MTrk
0 Meta 0x21 00
0 Meta TrkName "Pipe Organ 1"
0 PrCh ch=1 p=12
0 Par ch=1 c=7 v=110
0 Par ch=1 c=0 v=127
0 PrCh ch=1 p=12
0 On ch=1 n=76 v=108
3 On ch=1 n=71 v=96
12 On ch=1 n=69 v=80
22 On ch=1 n=64 v=68
32 On ch=1 n=59 v=77
39 On ch=1 n=57 v=83
63 On ch=1 n=52 v=127
235 On ch=1 n=57 v=0
256 On ch=1 n=69 v=0
3595 On ch=1 n=71 v=0
3600 On ch=1 n=72 v=96
5448 On ch=1 n=52 v=0
5449 On ch=1 n=64 v=0
5452 On ch=1 n=59 v=0
5456 On ch=1 n=76 v=0
5467 On ch=1 n=72 v=0
5520 On ch=1 n=69 v=85
5520 On ch=1 n=78 v=78
5520 On ch=1 n=62 v=96
5520 On ch=1 n=66 v=127
5520 On ch=1 n=74 v=98
5686 On ch=1 n=74 v=0
5688 On ch=1 n=66 v=0
5691 On ch=1 n=62 v=0
5691 On ch=1 n=69 v=0
5692 On ch=1 n=78 v=0
5753 On ch=1 n=79 v=96
5754 On ch=1 n=74 v=89
5756 On ch=1 n=62 v=80
5757 On ch=1 n=71 v=82
5757 On ch=1 n=67 v=98
6468 On ch=1 n=65 v=98
6474 On ch=1 n=67 v=0
6702 On ch=1 n=64 v=62
6703 On ch=1 n=67 v=86
6705 On ch=1 n=65 v=0
6707 On ch=1 n=72 v=86
6711 On ch=1 n=71 v=0
6715 On ch=1 n=74 v=0
6938 On ch=1 n=64 v=0
6944 On ch=1 n=63 v=100
7145 Par ch=1 c=64 v=127
7169 Par ch=1 c=64 v=0
7204 On ch=1 n=71 v=85
7205 On ch=1 n=63 v=0
7224 On ch=1 n=72 v=0
7424 On ch=1 n=74 v=96
7425 On ch=1 n=65 v=91
7433 On ch=1 n=71 v=0
7435 On ch=1 n=67 v=0
7669 On ch=1 n=64 v=86
7670 On ch=1 n=72 v=108
7673 On ch=1 n=67 v=1
7673 On ch=1 n=65 v=0
7675 On ch=1 n=74 v=0
7912 On ch=1 n=63 v=119
7914 On ch=1 n=64 v=0
8143 On ch=1 n=71 v=73
8147 On ch=1 n=63 v=0
8149 On ch=1 n=72 v=0
8384 On ch=1 n=64 v=83
8391 On ch=1 n=62 v=0
8871 On ch=1 n=66 v=115
8878 On ch=1 n=67 v=0
8880 On ch=1 n=64 v=0
9099 On ch=1 n=73 v=82
9101 On ch=1 n=76 v=103
9103 On ch=1 n=69 v=96
9106 On ch=1 n=71 v=0
9109 On ch=1 n=66 v=0
10511 On ch=1 n=73 v=0
10512 On ch=1 n=76 v=0
10513 On ch=1 n=69 v=0
10513 On ch=1 n=79 v=0
37213 Par ch=1 c=7 v=109
37242 Par ch=1 c=7 v=108
37255 Par ch=1 c=7 v=107
37320 Par ch=1 c=7 v=106
37357 Par ch=1 c=7 v=105
37399 Par ch=1 c=7 v=104
37449 Par ch=1 c=7 v=103
37500 Par ch=1 c=7 v=102
37560 Par ch=1 c=7 v=101
37625 Par ch=1 c=7 v=100
37668 Par ch=1 c=7 v=99
37680 Par ch=1 c=7 v=98
37716 Par ch=1 c=7 v=97
37740 Par ch=1 c=7 v=96
37775 Par ch=1 c=7 v=95
37800 Par ch=1 c=7 v=94
37817 Par ch=1 c=7 v=93
37861 Par ch=1 c=7 v=92
37922 Par ch=1 c=7 v=91
37961 Par ch=1 c=7 v=90
37995 Par ch=1 c=7 v=89
38010 Par ch=1 c=7 v=88
38034 Par ch=1 c=7 v=87
38064 Par ch=1 c=7 v=86
38085 Par ch=1 c=7 v=85
38098 Par ch=1 c=7 v=84
38125 Par ch=1 c=7 v=83
38139 Par ch=1 c=7 v=82
38160 Par ch=1 c=7 v=81
38170 Par ch=1 c=7 v=80
38180 Par ch=1 c=7 v=79
38195 Par ch=1 c=7 v=78
38211 Par ch=1 c=7 v=77
38233 Par ch=1 c=7 v=76
38252 Par ch=1 c=7 v=75
38264 Par ch=1 c=7 v=74
38280 Par ch=1 c=7 v=73
38300 Par ch=1 c=7 v=72
38310 Par ch=1 c=7 v=71
38319 Par ch=1 c=7 v=70
38333 Par ch=1 c=7 v=69
38352 Par ch=1 c=7 v=68
38376 Par ch=1 c=7 v=67
38397 Par ch=1 c=7 v=66
38405 Par ch=1 c=7 v=65
38428 Par ch=1 c=7 v=64
38453 Par ch=1 c=7 v=63
38480 Par ch=1 c=7 v=62
38495 Par ch=1 c=7 v=61
38505 Par ch=1 c=7 v=60
38525 Par ch=1 c=7 v=59
38548 Par ch=1 c=7 v=58
38568 Par ch=1 c=7 v=57
38585 Par ch=1 c=7 v=56
38596 Par ch=1 c=7 v=55
38614 Par ch=1 c=7 v=54
38621 Par ch=1 c=7 v=53
38631 Par ch=1 c=7 v=52
38636 Par ch=1 c=7 v=51
38643 Par ch=1 c=7 v=50
38661 Par ch=1 c=7 v=49
38674 Par ch=1 c=7 v=48
38684 Par ch=1 c=7 v=47
38695 Par ch=1 c=7 v=46
38712 Par ch=1 c=7 v=45
38725 Par ch=1 c=7 v=44
38740 Par ch=1 c=7 v=43
38757 Par ch=1 c=7 v=42
38760 Par ch=1 c=7 v=41
38768 Par ch=1 c=7 v=40
38790 Par ch=1 c=7 v=39
38806 Par ch=1 c=7 v=38
38811 Par ch=1 c=7 v=37
38825 Par ch=1 c=7 v=36
38842 Par ch=1 c=7 v=35
38869 Par ch=1 c=7 v=34
38886 Par ch=1 c=7 v=33
38899 Par ch=1 c=7 v=32
38912 Par ch=1 c=7 v=31
38932 Par ch=1 c=7 v=30
38940 Par ch=1 c=7 v=29
38960 Par ch=1 c=7 v=28
38969 Par ch=1 c=7 v=27
38984 Par ch=1 c=7 v=26
38994 Par ch=1 c=7 v=25
39011 Par ch=1 c=7 v=24
39016 Par ch=1 c=7 v=23
39025 Par ch=1 c=7 v=22
39035 Par ch=1 c=7 v=21
39044 Par ch=1 c=7 v=20
39054 Par ch=1 c=7 v=19
39060 Par ch=1 c=7 v=18
39069 Par ch=1 c=7 v=17
39077 Par ch=1 c=7 v=16
39088 Par ch=1 c=7 v=15
39098 Par ch=1 c=7 v=14
39103 Par ch=1 c=7 v=13
39114 Par ch=1 c=7 v=12
39127 Par ch=1 c=7 v=11
39144 Par ch=1 c=7 v=10
39154 Par ch=1 c=7 v=9
39160 Par ch=1 c=7 v=8
39170 Par ch=1 c=7 v=7
39176 Par ch=1 c=7 v=6
39189 Par ch=1 c=7 v=5
39196 Par ch=1 c=7 v=4
39213 Par ch=1 c=7 v=3
39226 Par ch=1 c=7 v=2
39234 Par ch=1 c=7 v=1
39246 Par ch=1 c=7 v=0
39246 Meta TrkEnd
TrkEnd
MTrk
0 Meta 0x21 00
0 Meta TrkName "Pipe Organ 3"
0 PrCh ch=2 p=14
0 Par ch=2 c=7 v=115
1 Par ch=2 c=0 v=127
1 PrCh ch=2 p=14
960 On ch=2 n=62 v=111
1439 On ch=2 n=62 v=0
1440 On ch=2 n=62 v=93
1675 On ch=2 n=62 v=0
1680 On ch=2 n=61 v=127
1920 On ch=2 n=60 v=127
1924 On ch=2 n=61 v=0
2152 On ch=2 n=60 v=0
2160 On ch=2 n=59 v=127
2398 On ch=2 n=59 v=0
2400 On ch=2 n=62 v=126
2640 On ch=2 n=61 v=127
2643 On ch=2 n=62 v=0
2875 On ch=2 n=61 v=0
2880 On ch=2 n=60 v=123
3117 On ch=2 n=60 v=0
3120 On ch=2 n=59 v=113
3360 On ch=2 n=62 v=111
3361 On ch=2 n=59 v=0
3600 On ch=2 n=60 v=127
3613 On ch=2 n=62 v=0
3837 On ch=2 n=60 v=0
3840 On ch=2 n=59 v=123
4080 On ch=2 n=57 v=126
4085 On ch=2 n=59 v=0
4320 On ch=2 n=59 v=123
4325 On ch=2 n=57 v=0
4560 On ch=2 n=57 v=120
4560 On ch=2 n=59 v=0
4800 On ch=2 n=59 v=123
4801 On ch=2 n=57 v=0
5039 On ch=2 n=59 v=0
5040 On ch=2 n=57 v=120
5280 On ch=2 n=59 v=123
5280 On ch=2 n=57 v=0
5520 On ch=2 n=54 v=122
5520 On ch=2 n=42 v=119
5520 On ch=2 n=59 v=0
5764 On ch=2 n=43 v=120
5765 On ch=2 n=55 v=126
5778 On ch=2 n=42 v=0
5778 On ch=2 n=54 v=0
9115 On ch=2 n=45 v=108
9115 On ch=2 n=57 v=123
9115 On ch=2 n=43 v=0
9120 On ch=2 n=55 v=0
10509 On ch=2 n=57 v=0
10513 On ch=2 n=45 v=0
22289 On ch=2 n=43 v=68
22289 On ch=2 n=45 v=86
22290 On ch=2 n=47 v=91
22291 On ch=2 n=48 v=108
22293 On ch=2 n=50 v=64
22294 On ch=2 n=43 v=0
22297 On ch=2 n=52 v=82
22298 On ch=2 n=45 v=0
22300 On ch=2 n=53 v=111
22301 On ch=2 n=47 v=0
22303 On ch=2 n=55 v=113
22304 On ch=2 n=48 v=0
22305 On ch=2 n=57 v=117
22306 On ch=2 n=50 v=0
22307 On ch=2 n=59 v=127
22308 On ch=2 n=52 v=0
22309 On ch=2 n=60 v=127
22310 On ch=2 n=53 v=0
22311 On ch=2 n=76 v=127
22311 On ch=2 n=72 v=127
22311 On ch=2 n=62 v=127
22312 On ch=2 n=55 v=0
22313 On ch=2 n=79 v=127
22313 On ch=2 n=64 v=127
22314 On ch=2 n=57 v=0
22315 On ch=2 n=65 v=127
22316 On ch=2 n=67 v=126
22316 On ch=2 n=59 v=0
22318 On ch=2 n=60 v=0
22319 On ch=2 n=69 v=127
22319 On ch=2 n=62 v=0
22320 On ch=2 n=64 v=0
22321 On ch=2 n=67 v=0
22321 On ch=2 n=65 v=0
22551 On ch=2 n=79 v=111
22553 On ch=2 n=74 v=111
22553 On ch=2 n=71 v=117
22553 On ch=2 n=79 v=0
22559 On ch=2 n=69 v=0
22561 On ch=2 n=76 v=0
22561 On ch=2 n=72 v=0
22722 On ch=2 n=74 v=0
22744 On ch=2 n=79 v=0
22752 On ch=2 n=71 v=0
22764 On ch=2 n=71 v=127
22790 On ch=2 n=69 v=113
22794 On ch=2 n=71 v=0
22819 On ch=2 n=71 v=127
22824 On ch=2 n=69 v=0
22856 Par ch=2 c=7 v=114
22876 On ch=2 n=71 v=0
22879 On ch=2 n=74 v=126
22945 On ch=2 n=71 v=123
22949 On ch=2 n=74 v=0
22971 On ch=2 n=69 v=117
22972 On ch=2 n=71 v=0
23001 On ch=2 n=71 v=127
23007 On ch=2 n=69 v=0
23026 On ch=2 n=71 v=0
23240 On ch=2 n=50 v=39
23241 On ch=2 n=48 v=86
23241 On ch=2 n=47 v=77
23241 On ch=2 n=52 v=58
23244 On ch=2 n=53 v=70
23245 On ch=2 n=47 v=0
23247 On ch=2 n=55 v=100
23249 On ch=2 n=48 v=0
23251 On ch=2 n=57 v=111
23252 On ch=2 n=50 v=0
23253 On ch=2 n=59 v=127
23254 On ch=2 n=52 v=0
23255 On ch=2 n=60 v=127
23256 On ch=2 n=53 v=0
23257 On ch=2 n=62 v=127
23258 On ch=2 n=55 v=0
23259 On ch=2 n=64 v=127
23260 On ch=2 n=57 v=0
23261 On ch=2 n=65 v=127
23261 Par ch=2 c=7 v=115
23261 On ch=2 n=59 v=0
23262 On ch=2 n=67 v=127
23263 On ch=2 n=76 v=96
23263 On ch=2 n=72 v=65
23263 On ch=2 n=60 v=0
23264 On ch=2 n=69 v=127
23265 On ch=2 n=71 v=127
23265 On ch=2 n=62 v=0
23266 On ch=2 n=79 v=86
23266 Par ch=2 c=7 v=116
23266 On ch=2 n=64 v=0
23268 On ch=2 n=74 v=127
23268 On ch=2 n=65 v=0
23269 On ch=2 n=67 v=0
23270 Par ch=2 c=7 v=117
23271 On ch=2 n=69 v=0
23272 Par ch=2 c=7 v=118
23272 On ch=2 n=71 v=0
23272 On ch=2 n=74 v=0
23275 Par ch=2 c=7 v=119
23504 On ch=2 n=76 v=0
23506 On ch=2 n=79 v=0
23507 On ch=2 n=72 v=0
23511 On ch=2 n=79 v=96
23512 On ch=2 n=71 v=103
23512 On ch=2 n=74 v=113
23688 Par ch=2 c=7 v=120
23724 On ch=2 n=74 v=0
23724 On ch=2 n=79 v=0
23737 Par ch=2 c=7 v=121
23737 On ch=2 n=71 v=0
23786 On ch=2 n=70 v=107
23787 On ch=2 n=69 v=96
23789 On ch=2 n=74 v=120
23789 On ch=2 n=71 v=127
23794 On ch=2 n=69 v=0
23801 On ch=2 n=70 v=0
23840 On ch=2 n=71 v=0
23841 On ch=2 n=74 v=0
23844 On ch=2 n=70 v=111
23844 On ch=2 n=69 v=89
23847 On ch=2 n=74 v=120
23847 On ch=2 n=71 v=117
23853 On ch=2 n=69 v=0
23860 On ch=2 n=70 v=0
23870 On ch=2 n=74 v=0
23870 On ch=2 n=71 v=0
23876 On ch=2 n=70 v=127
23876 On ch=2 n=69 v=103
23877 On ch=2 n=74 v=127
23877 On ch=2 n=71 v=127
23884 On ch=2 n=69 v=0
23890 On ch=2 n=70 v=0
23931 On ch=2 n=74 v=0
23935 On ch=2 n=71 v=0
23936 On ch=2 n=70 v=104
23936 On ch=2 n=69 v=98
23937 On ch=2 n=71 v=103
23939 On ch=2 n=74 v=127
23946 On ch=2 n=69 v=0
23947 On ch=2 n=70 v=0
23983 On ch=2 n=74 v=0
23984 On ch=2 n=71 v=0
24000 On ch=2 n=70 v=87
24000 On ch=2 n=71 v=123
24000 On ch=2 n=38 v=108
24000 On ch=2 n=74 v=108
24000 On ch=2 n=50 v=91
24006 On ch=2 n=70 v=0
24055 On ch=2 n=69 v=127
24055 On ch=2 n=71 v=0
24114 On ch=2 n=74 v=0
24114 On ch=2 n=69 v=0
24213 Par ch=2 c=7 v=123
24222 Par ch=2 c=7 v=124
24479 On ch=2 n=50 v=0
24480 On ch=2 n=79 v=108
24480 On ch=2 n=43 v=108
24480 On ch=2 n=74 v=103
24480 On ch=2 n=71 v=106
24480 On ch=2 n=38 v=0
24640 Par ch=2 c=64 v=127
24660 Par ch=2 c=7 v=125
24663 On ch=2 n=74 v=0
24668 On ch=2 n=71 v=0
24676 On ch=2 n=79 v=0
24720 On ch=2 n=79 v=93
24720 On ch=2 n=76 v=126
24720 Par ch=2 c=64 v=0
24733 Par ch=2 c=64 v=127
24739 On ch=2 n=76 v=0
24744 Par ch=2 c=7 v=124
24750 On ch=2 n=76 v=91
24763 On ch=2 n=76 v=0
24765 On ch=2 n=79 v=0
24780 On ch=2 n=79 v=67
24780 On ch=2 n=76 v=106
24795 On ch=2 n=76 v=0
24797 On ch=2 n=79 v=0
24810 On ch=2 n=79 v=72
24810 On ch=2 n=76 v=106
24810 Par ch=2 c=7 v=123
24824 On ch=2 n=76 v=0
24827 On ch=2 n=79 v=0
24840 On ch=2 n=79 v=85
24840 On ch=2 n=76 v=117
24852 Par ch=2 c=7 v=122
24854 On ch=2 n=76 v=0
24856 On ch=2 n=79 v=0
24857 Par ch=2 c=7 v=121
24870 On ch=2 n=79 v=71
24870 On ch=2 n=76 v=100
24882 Par ch=2 c=7 v=120
24882 On ch=2 n=76 v=0
24885 On ch=2 n=79 v=0
24900 On ch=2 n=76 v=106
24900 On ch=2 n=79 v=75
24907 Par ch=2 c=7 v=119
24911 On ch=2 n=76 v=0
24915 On ch=2 n=79 v=0
24930 On ch=2 n=79 v=70
24930 On ch=2 n=76 v=96
24941 On ch=2 n=76 v=0
24944 On ch=2 n=79 v=0
24953 Par ch=2 c=64 v=0
24959 Par ch=2 c=7 v=117
24959 On ch=2 n=43 v=0
24960 On ch=2 n=76 v=117
24960 On ch=2 n=26 v=117
24960 On ch=2 n=38 v=120
24960 On ch=2 n=79 v=86
25019 On ch=2 n=79 v=0
25020 On ch=2 n=78 v=92
25020 On ch=2 n=74 v=73
25020 On ch=2 n=69 v=91
25024 On ch=2 n=76 v=0
25044 Par ch=2 c=7 v=116
25083 Par ch=2 c=64 v=127
25101 On ch=2 n=69 v=0
25113 On ch=2 n=74 v=0
25116 On ch=2 n=78 v=0
25197 Par ch=2 c=64 v=0
25200 On ch=2 n=79 v=117
25200 On ch=2 n=76 v=127
25200 On ch=2 n=72 v=113
25324 Par ch=2 c=64 v=127
25348 On ch=2 n=26 v=0
25355 On ch=2 n=38 v=0
25357 On ch=2 n=72 v=0
25357 On ch=2 n=79 v=0
25361 On ch=2 n=76 v=0
25433 On ch=2 n=79 v=117
25433 On ch=2 n=31 v=96
25434 Par ch=2 c=64 v=0
25434 On ch=2 n=74 v=117
25434 On ch=2 n=71 v=120
25435 On ch=2 n=43 v=96
25435 Par ch=2 c=7 v=117
25440 Par ch=2 c=7 v=118
25674 On ch=2 n=76 v=126
25676 On ch=2 n=79 v=0
25723 On ch=2 n=74 v=0
25791 On ch=2 n=80 v=94
25794 On ch=2 n=76 v=0
25800 On ch=2 n=81 v=127
25808 On ch=2 n=80 v=0
25885 On ch=2 n=81 v=0
25886 On ch=2 n=71 v=0
25891 On ch=2 n=43 v=0
25891 On ch=2 n=31 v=0
25903 Par ch=2 c=7 v=117
26232 Par ch=2 c=7 v=116
26261 Par ch=2 c=7 v=115
26268 Par ch=2 c=7 v=114
26280 Par ch=2 c=7 v=113
26280 Par ch=2 c=7 v=112
26353 Par ch=2 c=7 v=111
26610 Par ch=2 c=7 v=112
26620 Par ch=2 c=7 v=113
26634 Par ch=2 c=7 v=114
27112 Par ch=2 c=7 v=117
27115 Par ch=2 c=7 v=123
27120 Par ch=2 c=7 v=127
27238 Par ch=2 c=7 v=124
27242 Par ch=2 c=7 v=120
27244 Par ch=2 c=7 v=119
27264 Par ch=2 c=7 v=118
27343 Par ch=2 c=7 v=124
27347 Par ch=2 c=7 v=127
28346 Par ch=2 c=7 v=126
34769 On ch=2 n=43 v=68
34769 On ch=2 n=45 v=86
34770 On ch=2 n=47 v=91
34771 On ch=2 n=48 v=108
34773 On ch=2 n=50 v=64
34774 On ch=2 n=43 v=0
34777 On ch=2 n=52 v=82
34778 On ch=2 n=45 v=0
34780 On ch=2 n=53 v=111
34781 On ch=2 n=47 v=0
34783 On ch=2 n=55 v=113
34784 On ch=2 n=48 v=0
34785 On ch=2 n=57 v=117
34786 On ch=2 n=50 v=0
34787 On ch=2 n=59 v=127
34788 On ch=2 n=52 v=0
34789 On ch=2 n=60 v=127
34790 On ch=2 n=53 v=0
34791 On ch=2 n=76 v=113
34791 On ch=2 n=72 v=59
34791 On ch=2 n=62 v=127
34792 On ch=2 n=55 v=0
34793 On ch=2 n=79 v=56
34793 On ch=2 n=64 v=127
34794 On ch=2 n=57 v=0
34795 On ch=2 n=65 v=127
34796 On ch=2 n=67 v=126
34796 On ch=2 n=59 v=0
34798 On ch=2 n=60 v=0
34799 On ch=2 n=69 v=127
34799 On ch=2 n=62 v=0
34800 On ch=2 n=64 v=0
34801 On ch=2 n=67 v=0
34801 On ch=2 n=69 v=0
34801 On ch=2 n=65 v=0
34956 On ch=2 n=79 v=0
35025 On ch=2 n=76 v=0
35029 On ch=2 n=72 v=0
35031 On ch=2 n=79 v=111
35033 On ch=2 n=74 v=111
35033 On ch=2 n=71 v=117
35202 On ch=2 n=74 v=0
35224 On ch=2 n=79 v=0
35232 On ch=2 n=71 v=0
35244 On ch=2 n=71 v=127
35270 On ch=2 n=69 v=113
35274 On ch=2 n=71 v=0
35299 On ch=2 n=71 v=127
35304 On ch=2 n=69 v=0
35356 On ch=2 n=71 v=0
35359 On ch=2 n=74 v=126
35425 On ch=2 n=71 v=123
35429 On ch=2 n=74 v=0
35451 On ch=2 n=69 v=117
35452 On ch=2 n=71 v=0
35481 On ch=2 n=71 v=127
35487 On ch=2 n=69 v=0
35506 On ch=2 n=71 v=0
35720 On ch=2 n=50 v=39
35721 On ch=2 n=48 v=86
35721 On ch=2 n=47 v=77
35721 On ch=2 n=52 v=58
35724 On ch=2 n=53 v=70
35725 On ch=2 n=47 v=0
35727 On ch=2 n=55 v=100
35729 On ch=2 n=48 v=0
35731 On ch=2 n=57 v=111
35732 On ch=2 n=50 v=0
35733 On ch=2 n=59 v=127
35734 On ch=2 n=52 v=0
35735 On ch=2 n=60 v=127
35736 On ch=2 n=53 v=0
35737 On ch=2 n=62 v=127
35738 On ch=2 n=55 v=0
35739 On ch=2 n=64 v=127
35740 On ch=2 n=57 v=0
35741 On ch=2 n=65 v=127
35741 On ch=2 n=59 v=0
35742 On ch=2 n=67 v=127
35743 On ch=2 n=76 v=96
35743 On ch=2 n=72 v=65
35743 On ch=2 n=60 v=0
35744 On ch=2 n=69 v=127
35745 On ch=2 n=71 v=127
35745 On ch=2 n=62 v=0
35746 On ch=2 n=79 v=86
35746 On ch=2 n=64 v=0
35748 On ch=2 n=74 v=127
35748 On ch=2 n=65 v=0
35749 On ch=2 n=67 v=0
35751 On ch=2 n=69 v=0
35752 On ch=2 n=71 v=0
35752 On ch=2 n=74 v=0
35984 On ch=2 n=76 v=0
35986 On ch=2 n=79 v=0
35987 On ch=2 n=72 v=0
35991 On ch=2 n=79 v=96
35992 On ch=2 n=71 v=103
35992 On ch=2 n=74 v=113
36204 On ch=2 n=74 v=0
36204 On ch=2 n=79 v=0
36217 On ch=2 n=71 v=0
36266 On ch=2 n=70 v=107
36267 On ch=2 n=69 v=96
36269 On ch=2 n=74 v=120
36269 On ch=2 n=71 v=127
36274 On ch=2 n=69 v=0
36281 On ch=2 n=70 v=0
36320 On ch=2 n=71 v=0
36321 On ch=2 n=74 v=0
36324 On ch=2 n=70 v=111
36324 On ch=2 n=69 v=89
36327 On ch=2 n=74 v=120
36327 On ch=2 n=71 v=117
36333 On ch=2 n=69 v=0
36340 On ch=2 n=70 v=0
36350 On ch=2 n=74 v=0
36350 On ch=2 n=71 v=0
36356 On ch=2 n=70 v=127
36356 On ch=2 n=69 v=103
36357 On ch=2 n=74 v=127
36357 On ch=2 n=71 v=127
36364 On ch=2 n=69 v=0
36370 On ch=2 n=70 v=0
36411 On ch=2 n=74 v=0
36415 On ch=2 n=71 v=0
36416 On ch=2 n=70 v=104
36416 On ch=2 n=69 v=98
36417 On ch=2 n=71 v=103
36419 On ch=2 n=74 v=127
36426 On ch=2 n=69 v=0
36427 On ch=2 n=70 v=0
36476 On ch=2 n=71 v=0
36478 On ch=2 n=74 v=0
36480 On ch=2 n=70 v=87
36480 On ch=2 n=71 v=123
36480 On ch=2 n=38 v=108
36480 On ch=2 n=74 v=108
36480 On ch=2 n=50 v=91
36486 On ch=2 n=70 v=0
36535 On ch=2 n=69 v=127
36535 On ch=2 n=71 v=0
36594 On ch=2 n=74 v=0
36594 On ch=2 n=69 v=0
36959 On ch=2 n=50 v=0
36960 On ch=2 n=79 v=108
36960 On ch=2 n=43 v=108
36960 On ch=2 n=74 v=103
36960 On ch=2 n=71 v=106
36960 On ch=2 n=38 v=0
37120 Par ch=2 c=64 v=127
37143 On ch=2 n=74 v=0
37148 On ch=2 n=71 v=0
37156 On ch=2 n=79 v=0
37200 On ch=2 n=79 v=93
37200 On ch=2 n=76 v=126
37200 Par ch=2 c=64 v=0
37213 Par ch=2 c=64 v=127
37219 On ch=2 n=76 v=0
37230 On ch=2 n=76 v=91
37243 On ch=2 n=76 v=0
37245 On ch=2 n=79 v=0
37260 On ch=2 n=79 v=67
37260 On ch=2 n=76 v=106
37275 On ch=2 n=76 v=0
37277 On ch=2 n=79 v=0
37290 On ch=2 n=79 v=72
37290 On ch=2 n=76 v=106
37304 On ch=2 n=76 v=0
37307 On ch=2 n=79 v=0
37320 On ch=2 n=79 v=85
37320 On ch=2 n=76 v=117
37334 On ch=2 n=76 v=0
37336 On ch=2 n=79 v=0
37350 On ch=2 n=79 v=71
37350 On ch=2 n=76 v=100
37362 On ch=2 n=76 v=0
37365 On ch=2 n=79 v=0
37380 On ch=2 n=76 v=106
37380 On ch=2 n=79 v=75
37391 On ch=2 n=76 v=0
37395 On ch=2 n=79 v=0
37409 Par ch=2 c=7 v=114
37410 On ch=2 n=79 v=70
37410 On ch=2 n=76 v=96
37421 On ch=2 n=76 v=0
37424 On ch=2 n=79 v=0
37433 Par ch=2 c=64 v=0
37433 Par ch=2 c=7 v=113
37439 On ch=2 n=43 v=0
37440 On ch=2 n=76 v=117
37440 On ch=2 n=26 v=117
37440 On ch=2 n=38 v=120
37440 On ch=2 n=79 v=86
37445 Par ch=2 c=7 v=112
37467 Par ch=2 c=7 v=111
37489 Par ch=2 c=7 v=110
37499 On ch=2 n=79 v=0
37500 On ch=2 n=78 v=92
37500 On ch=2 n=74 v=73
37500 On ch=2 n=69 v=91
37504 On ch=2 n=76 v=0
37517 Par ch=2 c=7 v=109
37539 Par ch=2 c=7 v=108
37549 Par ch=2 c=7 v=107
37563 Par ch=2 c=64 v=127
37574 Par ch=2 c=7 v=106
37581 On ch=2 n=69 v=0
37593 On ch=2 n=74 v=0
37596 Par ch=2 c=7 v=105
37596 On ch=2 n=78 v=0
37631 Par ch=2 c=7 v=104
37650 Par ch=2 c=7 v=103
37659 Par ch=2 c=7 v=102
37677 Par ch=2 c=64 v=0
37680 On ch=2 n=79 v=117
37680 On ch=2 n=76 v=127
37680 On ch=2 n=72 v=113
37680 Par ch=2 c=7 v=101
37704 Par ch=2 c=7 v=100
37724 Par ch=2 c=7 v=99
37729 Par ch=2 c=7 v=98
37760 Par ch=2 c=7 v=97
37780 Par ch=2 c=7 v=96
37804 Par ch=2 c=64 v=127
37804 Par ch=2 c=7 v=95
37828 On ch=2 n=26 v=0
37835 On ch=2 n=38 v=0
37837 On ch=2 n=72 v=0
37837 On ch=2 n=79 v=0
37841 Par ch=2 c=7 v=94
37841 On ch=2 n=76 v=0
37851 Par ch=2 c=7 v=93
37875 Par ch=2 c=7 v=92
37898 Par ch=2 c=7 v=91
37913 On ch=2 n=79 v=117
37913 On ch=2 n=31 v=96
37914 Par ch=2 c=64 v=0
37914 On ch=2 n=74 v=117
37914 On ch=2 n=71 v=120
37915 On ch=2 n=43 v=96
37937 Par ch=2 c=7 v=90
37961 Par ch=2 c=7 v=89
37971 Par ch=2 c=7 v=88
38010 Par ch=2 c=7 v=87
38045 Par ch=2 c=7 v=86
38080 Par ch=2 c=7 v=85
38089 Par ch=2 c=7 v=84
38101 Par ch=2 c=7 v=83
38129 Par ch=2 c=7 v=82
38144 Par ch=2 c=7 v=81
38156 On ch=2 n=79 v=0
38160 Par ch=2 c=7 v=80
38165 Par ch=2 c=7 v=79
38185 Par ch=2 c=7 v=78
38190 On ch=2 n=69 v=91
38203 Par ch=2 c=7 v=77
38203 On ch=2 n=74 v=0
38211 On ch=2 n=69 v=0
38218 On ch=2 n=71 v=103
38225 Par ch=2 c=7 v=76
38228 On ch=2 n=71 v=0
38238 Par ch=2 c=7 v=75
38242 Par ch=2 c=7 v=74
38245 On ch=2 n=71 v=126
38252 On ch=2 n=72 v=127
38252 Par ch=2 c=7 v=73
38257 On ch=2 n=71 v=0
38285 Par ch=2 c=7 v=72
38289 On ch=2 n=72 v=0
38305 Par ch=2 c=7 v=71
38308 On ch=2 n=72 v=120
38310 Par ch=2 c=7 v=70
38315 Par ch=2 c=7 v=69
38327 Par ch=2 c=7 v=68
38332 On ch=2 n=71 v=127
38334 On ch=2 n=72 v=0
38356 Par ch=2 c=7 v=67
38366 Par ch=2 c=7 v=66
38366 On ch=2 n=71 v=0
38371 Par ch=2 c=7 v=65
38371 On ch=2 n=31 v=0
38371 On ch=2 n=43 v=0
38376 On ch=2 n=71 v=0
38380 Par ch=2 c=7 v=64
38390 Par ch=2 c=7 v=63
38400 Par ch=2 c=7 v=62
38410 Par ch=2 c=7 v=61
38415 Par ch=2 c=7 v=60
38423 Par ch=2 c=7 v=59
38438 Par ch=2 c=7 v=58
38453 Par ch=2 c=7 v=57
38465 Par ch=2 c=7 v=56
38476 Par ch=2 c=7 v=55
38485 Par ch=2 c=7 v=54
38495 Par ch=2 c=7 v=53
38510 Par ch=2 c=7 v=52
38520 Par ch=2 c=7 v=51
38532 Par ch=2 c=7 v=50
38568 Par ch=2 c=7 v=49
38591 Par ch=2 c=7 v=48
38609 On ch=2 n=43 v=68
38609 On ch=2 n=45 v=86
38609 Par ch=2 c=7 v=47
38610 On ch=2 n=47 v=91
38611 On ch=2 n=48 v=108
38613 On ch=2 n=50 v=64
38614 On ch=2 n=43 v=0
38617 On ch=2 n=52 v=82
38618 Par ch=2 c=7 v=46
38618 On ch=2 n=45 v=0
38620 On ch=2 n=53 v=111
38621 On ch=2 n=47 v=0
38623 On ch=2 n=55 v=113
38624 On ch=2 n=48 v=0
38625 On ch=2 n=57 v=117
38626 On ch=2 n=50 v=0
38627 On ch=2 n=59 v=127
38628 On ch=2 n=52 v=0
38629 On ch=2 n=60 v=127
38630 On ch=2 n=53 v=0
38631 On ch=2 n=76 v=113
38631 On ch=2 n=72 v=59
38631 On ch=2 n=62 v=127
38632 Par ch=2 c=7 v=45
38632 On ch=2 n=55 v=0
38633 On ch=2 n=79 v=56
38633 On ch=2 n=64 v=127
38634 On ch=2 n=57 v=0
38635 On ch=2 n=65 v=127
38636 On ch=2 n=67 v=126
38636 On ch=2 n=59 v=0
38638 On ch=2 n=60 v=0
38639 On ch=2 n=69 v=127
38639 On ch=2 n=62 v=0
38640 On ch=2 n=64 v=0
38641 On ch=2 n=67 v=0
38641 On ch=2 n=69 v=0
38641 On ch=2 n=65 v=0
38643 Par ch=2 c=7 v=44
38661 Par ch=2 c=7 v=43
38695 Par ch=2 c=7 v=42
38700 Par ch=2 c=7 v=41
38719 Par ch=2 c=7 v=40
38747 Par ch=2 c=7 v=39
38768 Par ch=2 c=7 v=38
38773 Par ch=2 c=7 v=37
38783 Par ch=2 c=7 v=36
38795 Par ch=2 c=7 v=35
38796 On ch=2 n=79 v=0
38801 Par ch=2 c=7 v=34
38811 Par ch=2 c=7 v=33
38825 Par ch=2 c=7 v=32
38834 Par ch=2 c=7 v=31
38842 Par ch=2 c=7 v=30
38852 Par ch=2 c=7 v=29
38861 Par ch=2 c=7 v=28
38865 Par ch=2 c=7 v=27
38865 On ch=2 n=76 v=0
38869 On ch=2 n=72 v=0
38871 On ch=2 n=79 v=111
38873 On ch=2 n=74 v=111
38873 On ch=2 n=71 v=117
38880 Par ch=2 c=7 v=26
38894 Par ch=2 c=7 v=25
38904 Par ch=2 c=7 v=24
38912 Par ch=2 c=7 v=23
38922 Par ch=2 c=7 v=22
38932 Par ch=2 c=7 v=21
38945 Par ch=2 c=7 v=20
38951 Par ch=2 c=7 v=19
38955 Par ch=2 c=7 v=18
38969 Par ch=2 c=7 v=17
38979 Par ch=2 c=7 v=16
38989 Par ch=2 c=7 v=15
39000 Par ch=2 c=7 v=14
39005 Par ch=2 c=7 v=13
39021 Par ch=2 c=7 v=12
39035 Par ch=2 c=7 v=11
39042 On ch=2 n=74 v=0
39054 Par ch=2 c=7 v=10
39064 Par ch=2 c=7 v=9
39064 On ch=2 n=79 v=0
39072 On ch=2 n=71 v=0
39077 Par ch=2 c=7 v=8
39084 On ch=2 n=71 v=127
39088 Par ch=2 c=7 v=7
39098 Par ch=2 c=7 v=6
39110 On ch=2 n=69 v=113
39110 Par ch=2 c=7 v=5
39114 Par ch=2 c=7 v=4
39114 On ch=2 n=71 v=0
39137 Par ch=2 c=7 v=3
39139 On ch=2 n=71 v=127
39144 On ch=2 n=69 v=0
39149 Par ch=2 c=7 v=2
39161 Par ch=2 c=7 v=1
39176 Par ch=2 c=7 v=0
39196 On ch=2 n=71 v=0
39199 On ch=2 n=74 v=126
39265 On ch=2 n=71 v=123
39269 On ch=2 n=74 v=0
39291 On ch=2 n=69 v=117
39292 On ch=2 n=71 v=0
39321 On ch=2 n=71 v=127
39327 On ch=2 n=69 v=0
39346 On ch=2 n=71 v=0
39346 Meta TrkEnd
TrkEnd
MTrk
0 Meta 0x21 00
0 Meta TrkName "Pipe Organ 3"
0 PrCh ch=3 p=14
0 Par ch=3 c=0 v=127
0 PrCh ch=3 p=14
37265 Par ch=3 c=7 v=126
37282 Par ch=3 c=7 v=125
37287 Par ch=3 c=7 v=124
37290 Par ch=3 c=7 v=123
37300 Par ch=3 c=7 v=122
37339 Par ch=3 c=7 v=121
37350 Par ch=3 c=7 v=120
37357 Par ch=3 c=7 v=119
37395 Par ch=3 c=7 v=118
37399 Par ch=3 c=7 v=117
37428 Par ch=3 c=7 v=116
37440 Par ch=3 c=7 v=115
37484 Par ch=3 c=7 v=114
37504 Par ch=3 c=7 v=113
37512 Par ch=3 c=7 v=112
37524 Par ch=3 c=7 v=111
37564 Par ch=3 c=7 v=110
37581 Par ch=3 c=7 v=109
37606 Par ch=3 c=7 v=108
37620 Par ch=3 c=7 v=107
37641 Par ch=3 c=7 v=106
37673 Par ch=3 c=7 v=105
37694 Par ch=3 c=7 v=104
37716 Par ch=3 c=7 v=103
37724 Par ch=3 c=7 v=102
37734 Par ch=3 c=7 v=101
37748 Par ch=3 c=7 v=100
37770 Par ch=3 c=7 v=99
37785 Par ch=3 c=7 v=98
37795 Par ch=3 c=7 v=97
37813 Par ch=3 c=7 v=96
37828 Par ch=3 c=7 v=95
37866 Par ch=3 c=7 v=94
37878 Par ch=3 c=7 v=93
37903 Par ch=3 c=7 v=92
37922 Par ch=3 c=7 v=91
37966 Par ch=3 c=7 v=90
37995 Par ch=3 c=7 v=89
38015 Par ch=3 c=7 v=88
38045 Par ch=3 c=7 v=87
38075 Par ch=3 c=7 v=86
38094 Par ch=3 c=7 v=85
38101 Par ch=3 c=7 v=84
38111 Par ch=3 c=7 v=83
38134 Par ch=3 c=7 v=82
38156 Par ch=3 c=7 v=81
38170 Par ch=3 c=7 v=80
38175 Par ch=3 c=7 v=79
38185 Par ch=3 c=7 v=78
38208 Par ch=3 c=7 v=77
38225 Par ch=3 c=7 v=76
38259 Par ch=3 c=7 v=75
38264 Par ch=3 c=7 v=74
38269 Par ch=3 c=7 v=73
38274 Par ch=3 c=7 v=72
38300 Par ch=3 c=7 v=71
38305 Par ch=3 c=7 v=70
38315 Par ch=3 c=7 v=69
38334 Par ch=3 c=7 v=68
38347 Par ch=3 c=7 v=67
38347 Par ch=3 c=7 v=66
38356 Par ch=3 c=7 v=65
38366 Par ch=3 c=7 v=64
38390 Par ch=3 c=7 v=63
38400 Par ch=3 c=7 v=62
38410 Par ch=3 c=7 v=61
38418 Par ch=3 c=7 v=60
38456 Par ch=3 c=7 v=59
38471 Par ch=3 c=7 v=58
38485 Par ch=3 c=7 v=57
38500 Par ch=3 c=7 v=56
38505 Par ch=3 c=7 v=55
38515 Par ch=3 c=7 v=54
38536 Par ch=3 c=7 v=53
38548 Par ch=3 c=7 v=52
38553 Par ch=3 c=7 v=51
38563 Par ch=3 c=7 v=50
38582 Par ch=3 c=7 v=49
38596 Par ch=3 c=7 v=48
38613 Par ch=3 c=7 v=47
38621 Par ch=3 c=7 v=46
38633 Par ch=3 c=7 v=45
38643 Par ch=3 c=7 v=44
38664 Par ch=3 c=7 v=43
38679 Par ch=3 c=7 v=42
38684 Par ch=3 c=7 v=41
38695 Par ch=3 c=7 v=40
38712 Par ch=3 c=7 v=39
38725 Par ch=3 c=7 v=38
38735 Par ch=3 c=7 v=37
38752 Par ch=3 c=7 v=36
38763 Par ch=3 c=7 v=35
38780 Par ch=3 c=7 v=34
38796 Par ch=3 c=7 v=33
38806 Par ch=3 c=7 v=32
38820 Par ch=3 c=7 v=31
38842 Par ch=3 c=7 v=30
38861 Par ch=3 c=7 v=29
38874 Par ch=3 c=7 v=28
38880 Par ch=3 c=7 v=27
38894 Par ch=3 c=7 v=26
38912 Par ch=3 c=7 v=25
38927 Par ch=3 c=7 v=24
38927 Par ch=3 c=7 v=23
38940 Par ch=3 c=7 v=22
38951 Par ch=3 c=7 v=21
38960 Par ch=3 c=7 v=20
38969 Par ch=3 c=7 v=19
38979 Par ch=3 c=7 v=18
38984 Par ch=3 c=7 v=17
38994 Par ch=3 c=7 v=16
39000 Par ch=3 c=7 v=15
39016 Par ch=3 c=7 v=14
39025 Par ch=3 c=7 v=13
39035 Par ch=3 c=7 v=12
39054 Par ch=3 c=7 v=11
39077 Par ch=3 c=7 v=10
39088 Par ch=3 c=7 v=9
39093 Par ch=3 c=7 v=8
39110 Par ch=3 c=7 v=7
39122 Par ch=3 c=7 v=6
39149 Par ch=3 c=7 v=5
39154 Par ch=3 c=7 v=4
39165 Par ch=3 c=7 v=3
39179 Par ch=3 c=7 v=2
39189 Par ch=3 c=7 v=1
39208 Par ch=3 c=7 v=0
39208 Meta TrkEnd
TrkEnd
MTrk
0 Meta 0x21 00
0 Meta TrkName "Pipe Organ 1"
0 PrCh ch=4 p=12
0 Par ch=4 c=7 v=127
80 Par ch=4 c=0 v=127
80 PrCh ch=4 p=12
1018 On ch=4 n=64 v=83
1038 On ch=4 n=69 v=75
1048 On ch=4 n=64 v=0
1053 On ch=4 n=71 v=117
1065 On ch=4 n=69 v=0
1074 On ch=4 n=76 v=127
1074 On ch=4 n=71 v=0
1249 On ch=4 n=71 v=72
1251 On ch=4 n=76 v=0
1268 On ch=4 n=69 v=120
1277 On ch=4 n=71 v=0
1285 On ch=4 n=69 v=0
1298 On ch=4 n=79 v=127
1356 On ch=4 n=76 v=127
1548 On ch=4 n=76 v=0
1552 On ch=4 n=74 v=126
1552 On ch=4 n=79 v=0
1562 On ch=4 n=76 v=127
1570 On ch=4 n=74 v=0
1794 On ch=4 n=76 v=0
1798 On ch=4 n=73 v=125
1811 On ch=4 n=76 v=127
1816 On ch=4 n=73 v=0
2026 On ch=4 n=76 v=0
2028 On ch=4 n=72 v=123
2040 On ch=4 n=76 v=127
2048 On ch=4 n=72 v=0
2337 On ch=4 n=71 v=113
2360 On ch=4 n=76 v=0
2362 On ch=4 n=69 v=113
2365 On ch=4 n=71 v=0
2389 On ch=4 n=69 v=0
2391 On ch=4 n=71 v=127
2617 On ch=4 n=74 v=108
2617 On ch=4 n=71 v=0
2627 On ch=4 n=76 v=127
2635 On ch=4 n=74 v=0
2865 On ch=4 n=76 v=0
2869 On ch=4 n=72 v=120
2884 On ch=4 n=76 v=127
2891 On ch=4 n=72 v=0
3296 On ch=4 n=79 v=127
3299 On ch=4 n=76 v=0
3318 On ch=4 n=79 v=0
3321 On ch=4 n=81 v=127
3342 On ch=4 n=81 v=0
3346 On ch=4 n=83 v=127
3546 On ch=4 n=81 v=127
3560 On ch=4 n=83 v=0
3568 On ch=4 n=79 v=127
3572 On ch=4 n=81 v=0
3591 On ch=4 n=79 v=0
3592 On ch=4 n=81 v=127
3880 On ch=4 n=78 v=127
3888 On ch=4 n=81 v=0
3914 On ch=4 n=79 v=127
3921 On ch=4 n=78 v=0
3950 On ch=4 n=81 v=127
3950 On ch=4 n=79 v=0
3988 On ch=4 n=79 v=126
4006 On ch=4 n=81 v=0
4022 On ch=4 n=78 v=127
4028 On ch=4 n=79 v=0
4060 On ch=4 n=78 v=0
4066 On ch=4 n=79 v=127
4259 On ch=4 n=78 v=127
4260 On ch=4 n=79 v=0
4285 On ch=4 n=76 v=100
4289 On ch=4 n=78 v=0
4314 On ch=4 n=76 v=0
4316 On ch=4 n=78 v=127
4375 On ch=4 n=76 v=113
4387 On ch=4 n=78 v=0
4400 On ch=4 n=76 v=0
4401 On ch=4 n=74 v=120
4427 On ch=4 n=74 v=0
4434 On ch=4 n=76 v=127
4565 Par ch=4 c=64 v=127
4585 On ch=4 n=76 v=0
4672 On ch=4 n=71 v=127
4674 Par ch=4 c=64 v=0
4694 On ch=4 n=72 v=91
4698 On ch=4 n=71 v=0
4724 On ch=4 n=71 v=120
4736 On ch=4 n=72 v=0
4751 On ch=4 n=67 v=96
4751 On ch=4 n=71 v=0
4779 On ch=4 n=67 v=0
4785 On ch=4 n=69 v=127
4914 On ch=4 n=69 v=0
4915 On ch=4 n=67 v=127
5019 On ch=4 n=67 v=0
5026 On ch=4 n=66 v=127
5084 On ch=4 n=66 v=0
5089 On ch=4 n=67 v=113
5139 On ch=4 n=67 v=0
5142 On ch=4 n=69 v=127
5270 On ch=4 n=71 v=113
5270 On ch=4 n=69 v=0
5304 On ch=4 n=67 v=120
5309 On ch=4 n=71 v=0
5334 On ch=4 n=69 v=111
5340 On ch=4 n=67 v=0
5361 On ch=4 n=66 v=115
5368 On ch=4 n=69 v=0
5390 On ch=4 n=66 v=0
5400 On ch=4 n=67 v=123
5520 On ch=4 n=66 v=127
5534 On ch=4 n=67 v=0
5759 On ch=4 n=67 v=120
5785 On ch=4 n=66 v=0
5956 On ch=4 n=69 v=106
5960 On ch=4 n=67 v=0
6006 On ch=4 n=67 v=123
6008 On ch=4 n=69 v=0
6039 On ch=4 n=69 v=111
6048 On ch=4 n=67 v=0
6078 On ch=4 n=71 v=123
6083 On ch=4 n=69 v=0
6116 On ch=4 n=69 v=117
6119 On ch=4 n=71 v=0
6153 On ch=4 n=71 v=127
6164 On ch=4 n=69 v=0
6190 On ch=4 n=72 v=127
6196 On ch=4 n=71 v=0
6234 On ch=4 n=71 v=126
6234 On ch=4 n=72 v=0
6271 On ch=4 n=72 v=127
6281 On ch=4 n=71 v=0
6303 On ch=4 n=74 v=127
6309 On ch=4 n=72 v=0
6748 On ch=4 n=78 v=122
6767 On ch=4 n=74 v=0
6784 On ch=4 n=79 v=126
6791 On ch=4 n=78 v=0
6826 On ch=4 n=78 v=127
6830 On ch=4 n=79 v=0
6861 On ch=4 n=79 v=113
6862 On ch=4 n=78 v=0
6894 On ch=4 n=79 v=0
6898 On ch=4 n=81 v=127
7144 On ch=4 n=83 v=127
7144 On ch=4 n=81 v=0
7172 On ch=4 n=81 v=127
7176 On ch=4 n=83 v=0
7197 On ch=4 n=81 v=0
7200 On ch=4 n=83 v=127
7618 On ch=4 n=79 v=111
7627 On ch=4 n=83 v=0
7646 On ch=4 n=74 v=111
7648 On ch=4 n=79 v=0
7673 On ch=4 n=74 v=0
7677 On ch=4 n=81 v=127
7872 On ch=4 n=81 v=0
7873 On ch=4 n=79 v=117
7893 On ch=4 n=78 v=127
7900 On ch=4 n=79 v=0
7919 On ch=4 n=79 v=127
7921 On ch=4 n=78 v=0
8101 On ch=4 n=74 v=98
8116 On ch=4 n=79 v=0
8125 On ch=4 n=74 v=0
8129 On ch=4 n=76 v=127
8160 On ch=4 n=74 v=127
8160 On ch=4 n=76 v=0
8514 On ch=4 n=69 v=100
8542 On ch=4 n=74 v=0
8550 On ch=4 n=67 v=86
8565 On ch=4 n=69 v=0
8579 On ch=4 n=67 v=0
8580 On ch=4 n=66 v=122
8609 On ch=4 n=66 v=0
8610 On ch=4 n=67 v=72
8639 On ch=4 n=67 v=0
8640 On ch=4 n=69 v=120
8669 On ch=4 n=69 v=0
8670 On ch=4 n=71 v=117
8699 On ch=4 n=71 v=0
8700 On ch=4 n=69 v=111
8729 On ch=4 n=69 v=0
8730 On ch=4 n=67 v=113
8759 On ch=4 n=67 v=0
8760 On ch=4 n=66 v=127
8789 On ch=4 n=66 v=0
8790 On ch=4 n=67 v=93
8819 On ch=4 n=67 v=0
8820 On ch=4 n=69 v=103
8849 On ch=4 n=69 v=0
8850 On ch=4 n=71 v=126
8879 On ch=4 n=71 v=0
8880 On ch=4 n=69 v=123
8909 On ch=4 n=69 v=0
8910 On ch=4 n=67 v=120
8939 On ch=4 n=67 v=0
8940 On ch=4 n=66 v=125
8969 On ch=4 n=66 v=0
8970 On ch=4 n=67 v=108
8999 On ch=4 n=67 v=0
9000 On ch=4 n=71 v=126
9029 On ch=4 n=71 v=0
9030 On ch=4 n=72 v=111
9059 On ch=4 n=72 v=0
9060 On ch=4 n=71 v=120
9089 On ch=4 n=71 v=0
9090 On ch=4 n=69 v=91
9119 On ch=4 n=69 v=0
9120 On ch=4 n=59 v=127
9152 On ch=4 n=59 v=0
9156 On ch=4 n=57 v=117
9185 On ch=4 n=55 v=108
9186 On ch=4 n=57 v=0
9216 On ch=4 n=57 v=123
9222 On ch=4 n=55 v=0
9468 Par ch=4 c=64 v=127
9492 On ch=4 n=57 v=0
9582 Par ch=4 c=64 v=0
9589 On ch=4 n=61 v=115
9590 On ch=4 n=57 v=108
9634 On ch=4 n=61 v=0
9636 On ch=4 n=59 v=106
9636 On ch=4 n=62 v=108
9637 On ch=4 n=57 v=0
9673 On ch=4 n=61 v=111
9678 On ch=4 n=64 v=117
9680 On ch=4 n=62 v=0
9680 On ch=4 n=59 v=0
9716 On ch=4 n=64 v=0
9718 On ch=4 n=66 v=115
9719 On ch=4 n=61 v=0
9721 On ch=4 n=62 v=103
9751 On ch=4 n=66 v=0
9756 On ch=4 n=67 v=96
9758 On ch=4 n=64 v=117
9769 On ch=4 n=62 v=0
9796 On ch=4 n=67 v=0
9797 On ch=4 n=66 v=100
9798 On ch=4 n=69 v=100
9798 On ch=4 n=64 v=0
9841 On ch=4 n=67 v=100
9841 On ch=4 n=69 v=0
9842 On ch=4 n=66 v=0
9844 On ch=4 n=71 v=126
9878 On ch=4 n=69 v=85
9881 On ch=4 n=71 v=0
9883 On ch=4 n=73 v=107
9886 On ch=4 n=67 v=0
9918 On ch=4 n=69 v=0
9919 On ch=4 n=71 v=100
9920 On ch=4 n=73 v=0
9922 On ch=4 n=74 v=83
9957 On ch=4 n=73 v=115
9960 On ch=4 n=76 v=126
9960 On ch=4 n=74 v=0
9970 On ch=4 n=71 v=0
9995 On ch=4 n=76 v=0
9998 On ch=4 n=74 v=71
9999 On ch=4 n=78 v=94
10008 On ch=4 n=73 v=0
10032 On ch=4 n=78 v=0
10033 On ch=4 n=76 v=100
10034 On ch=4 n=74 v=0
10035 On ch=4 n=79 v=106
10076 On ch=4 n=78 v=127
10076 On ch=4 n=79 v=0
10077 On ch=4 n=81 v=120
10082 On ch=4 n=76 v=0
10316 On ch=4 n=79 v=108
10318 On ch=4 n=76 v=123
10319 On ch=4 n=78 v=0
10322 On ch=4 n=81 v=0
10555 On ch=4 n=79 v=0
10557 On ch=4 n=76 v=0
10559 On ch=4 n=50 v=89
10680 On ch=4 n=74 v=73
10680 On ch=4 n=69 v=70
10708 On ch=4 n=69 v=0
10710 On ch=4 n=71 v=69
10736 On ch=4 n=71 v=0
10740 On ch=4 n=69 v=63
10754 On ch=4 n=74 v=0
10770 On ch=4 n=66 v=89
10770 On ch=4 n=69 v=0
10796 On ch=4 n=66 v=0
10800 On ch=4 n=67 v=82
10800 On ch=4 n=48 v=86
10800 On ch=4 n=72 v=44
10805 On ch=4 n=50 v=0
10826 On ch=4 n=67 v=0
10830 On ch=4 n=69 v=50
10856 On ch=4 n=72 v=0
10860 On ch=4 n=67 v=78
10862 On ch=4 n=69 v=0
10871 Par ch=4 c=64 v=127
10880 On ch=4 n=67 v=0
10897 On ch=4 n=48 v=0
10919 On ch=4 n=74 v=89
10921 Par ch=4 c=64 v=0
10926 On ch=4 n=79 v=70
10936 On ch=4 n=76 v=96
10937 On ch=4 n=74 v=0
10980 On ch=4 n=52 v=98
11013 On ch=4 n=53 v=83
11019 On ch=4 n=52 v=0
11025 On ch=4 n=54 v=122
11029 On ch=4 n=53 v=0
11032 On ch=4 n=79 v=0
11034 On ch=4 n=69 v=82
11037 On ch=4 n=76 v=0
11040 On ch=4 n=54 v=0
11041 On ch=4 n=55 v=113
11042 On ch=4 n=70 v=96
11044 On ch=4 n=69 v=0
11048 On ch=4 n=71 v=111
11048 On ch=4 n=74 v=111
11059 On ch=4 n=70 v=0
11137 On ch=4 n=74 v=0
11139 On ch=4 n=71 v=0
11158 On ch=4 n=69 v=96
11158 On ch=4 n=43 v=82
11160 On ch=4 n=55 v=0
11186 On ch=4 n=69 v=0
11190 On ch=4 n=67 v=89
11225 On ch=4 n=43 v=0
11236 On ch=4 n=67 v=0
11250 On ch=4 n=43 v=86
11273 On ch=4 n=43 v=0
11280 On ch=4 n=45 v=86
11310 On ch=4 n=47 v=91
11312 On ch=4 n=45 v=0
11367 On ch=4 n=47 v=0
11370 On ch=4 n=50 v=83
11430 On ch=4 n=47 v=72
11437 On ch=4 n=50 v=0
11460 On ch=4 n=45 v=75
11460 On ch=4 n=47 v=0
11518 On ch=4 n=45 v=0
11520 On ch=4 n=50 v=89
11644 On ch=4 n=66 v=82
11644 On ch=4 n=74 v=83
11644 On ch=4 n=71 v=111
11674 On ch=4 n=66 v=0
11675 On ch=4 n=69 v=96
11676 On ch=4 n=71 v=0
11707 On ch=4 n=66 v=111
11709 On ch=4 n=69 v=0
11724 On ch=4 n=66 v=0
11727 Par ch=4 c=64 v=127
11735 On ch=4 n=66 v=84
11736 On ch=4 n=74 v=0
11749 On ch=4 n=66 v=0
11770 On ch=4 n=67 v=113
11770 On ch=4 n=64 v=100
11771 On ch=4 n=48 v=89
11775 On ch=4 n=72 v=86
11778 Par ch=4 c=64 v=0
11779 On ch=4 n=50 v=0
11798 On ch=4 n=69 v=85
11800 On ch=4 n=67 v=0
11812 On ch=4 n=64 v=0
11827 On ch=4 n=67 v=111
11830 On ch=4 n=69 v=0
11846 Par ch=4 c=64 v=127
11854 On ch=4 n=67 v=0
11854 On ch=4 n=72 v=0
11855 On ch=4 n=64 v=96
11869 On ch=4 n=64 v=0
11888 Par ch=4 c=64 v=0
11889 On ch=4 n=60 v=127
11910 On ch=4 n=48 v=0
11913 Par ch=4 c=64 v=127
11915 On ch=4 n=60 v=0
11917 On ch=4 n=67 v=108
11944 On ch=4 n=52 v=117
11950 On ch=4 n=67 v=0
11962 On ch=4 n=52 v=0
11975 On ch=4 n=52 v=78
11984 On ch=4 n=53 v=111
11991 On ch=4 n=52 v=0
11992 On ch=4 n=54 v=127
11998 On ch=4 n=53 v=0
12000 On ch=4 n=69 v=70
12002 Par ch=4 c=64 v=0
12005 On ch=4 n=70 v=70
12006 On ch=4 n=55 v=106
12006 On ch=4 n=70 v=0
12006 On ch=4 n=54 v=0
12007 On ch=4 n=71 v=126
12013 On ch=4 n=69 v=0
12065 Par ch=4 c=64 v=127
12070 On ch=4 n=71 v=0
12120 Par ch=4 c=64 v=0
12122 On ch=4 n=55 v=0
12126 On ch=4 n=69 v=98
12126 On ch=4 n=43 v=98
12127 On ch=4 n=60 v=89
12147 On ch=4 n=60 v=0
12154 On ch=4 n=69 v=0
12155 On ch=4 n=67 v=86
12157 On ch=4 n=59 v=96
12185 On ch=4 n=43 v=0
12195 On ch=4 n=59 v=0
12206 On ch=4 n=67 v=0
12214 On ch=4 n=43 v=91
12242 On ch=4 n=43 v=0
12243 On ch=4 n=45 v=82
12273 On ch=4 n=47 v=91
12279 On ch=4 n=45 v=0
12300 On ch=4 n=50 v=77
12301 On ch=4 n=47 v=0
12333 On ch=4 n=69 v=103
12333 On ch=4 n=50 v=0
12334 On ch=4 n=65 v=120
12334 On ch=4 n=60 v=120
12386 On ch=4 n=69 v=0
12387 On ch=4 n=60 v=0
12387 On ch=4 n=65 v=0
12388 On ch=4 n=50 v=93
12418 On ch=4 n=69 v=78
12419 On ch=4 n=65 v=123
12420 On ch=4 n=60 v=111
12420 On ch=4 n=50 v=0
12468 On ch=4 n=69 v=0
12468 On ch=4 n=65 v=0
12468 On ch=4 n=60 v=0
12480 On ch=4 n=50 v=117
12599 On ch=4 n=74 v=113
12600 On ch=4 n=69 v=96
12627 On ch=4 n=71 v=98
12630 On ch=4 n=69 v=0
12654 On ch=4 n=69 v=91
12657 On ch=4 n=71 v=0
12681 On ch=4 n=66 v=111
12683 On ch=4 n=69 v=0
12712 On ch=4 n=72 v=117
12712 On ch=4 n=69 v=103
12712 On ch=4 n=66 v=0
12712 On ch=4 n=74 v=0
12713 On ch=4 n=50 v=0
12714 On ch=4 n=48 v=108
12743 On ch=4 n=67 v=89
12748 On ch=4 n=69 v=0
12772 On ch=4 n=64 v=106
12773 On ch=4 n=67 v=0
12791 On ch=4 n=72 v=0
12793 Par ch=4 c=64 v=127
12804 On ch=4 n=67 v=98
12809 On ch=4 n=64 v=0
12835 On ch=4 n=52 v=108
12835 Par ch=4 c=64 v=0
12835 On ch=4 n=67 v=0
12836 On ch=4 n=74 v=113
12836 On ch=4 n=79 v=117
12857 On ch=4 n=74 v=0
12862 On ch=4 n=76 v=127
12895 Par ch=4 c=64 v=127
12900 On ch=4 n=79 v=0
12904 On ch=4 n=76 v=0
12924 On ch=4 n=53 v=89
12930 On ch=4 n=54 v=96
12937 On ch=4 n=52 v=0
12940 On ch=4 n=69 v=85
12940 On ch=4 n=48 v=0
12943 On ch=4 n=70 v=104
12944 On ch=4 n=55 v=127
12945 Par ch=4 c=64 v=0
12945 On ch=4 n=53 v=0
12950 On ch=4 n=54 v=0
12951 On ch=4 n=71 v=120
12954 On ch=4 n=74 v=106
12957 On ch=4 n=70 v=0
12957 On ch=4 n=69 v=0
13072 On ch=4 n=69 v=120
13073 On ch=4 n=71 v=0
13074 On ch=4 n=74 v=0
13076 On ch=4 n=55 v=0
13079 On ch=4 n=43 v=120
13102 On ch=4 n=69 v=0
13103 On ch=4 n=67 v=127
13151 On ch=4 n=43 v=0
13167 On ch=4 n=43 v=103
13192 On ch=4 n=43 v=0
13192 On ch=4 n=67 v=0
13193 On ch=4 n=45 v=89
13222 On ch=4 n=47 v=108
13228 On ch=4 n=45 v=0
13249 On ch=4 n=50 v=86
13250 On ch=4 n=47 v=0
13280 On ch=4 n=53 v=127
13280 On ch=4 n=50 v=0
13349 On ch=4 n=50 v=98
13353 On ch=4 n=53 v=0
13374 On ch=4 n=53 v=127
13375 On ch=4 n=50 v=0
13435 On ch=4 n=53 v=0
13437 On ch=4 n=50 v=126
13559 On ch=4 n=74 v=86
13560 On ch=4 n=66 v=96
13561 On ch=4 n=71 v=103
13579 Par ch=4 c=64 v=127
13587 On ch=4 n=69 v=106
13588 On ch=4 n=71 v=0
13590 On ch=4 n=66 v=0
13595 Par ch=4 c=64 v=0
13617 On ch=4 n=66 v=127
13629 Par ch=4 c=64 v=127
13633 On ch=4 n=66 v=0
13647 On ch=4 n=66 v=92
13652 On ch=4 n=74 v=0
13669 On ch=4 n=66 v=0
13673 On ch=4 n=48 v=117
13673 On ch=4 n=50 v=0
13676 Par ch=4 c=64 v=0
13677 On ch=4 n=69 v=0
13678 On ch=4 n=64 v=98
13679 On ch=4 n=72 v=113
13679 On ch=4 n=67 v=106
13703 On ch=4 n=67 v=0
13705 On ch=4 n=69 v=108
13732 On ch=4 n=69 v=0
13733 On ch=4 n=67 v=117
13740 On ch=4 n=64 v=0
13760 Par ch=4 c=64 v=127
13763 On ch=4 n=64 v=80
13782 On ch=4 n=67 v=0
13785 Par ch=4 c=64 v=0
13795 On ch=4 n=60 v=123
13796 On ch=4 n=64 v=0
13803 On ch=4 n=72 v=0
13824 On ch=4 n=67 v=126
13825 On ch=4 n=60 v=0
13857 On ch=4 n=52 v=127
13862 Par ch=4 c=64 v=127
13862 On ch=4 n=48 v=0
13870 Par ch=4 c=64 v=0
13880 On ch=4 n=67 v=0
13887 On ch=4 n=67 v=100
13892 On ch=4 n=53 v=111
13899 On ch=4 n=54 v=82
13900 On ch=4 n=52 v=0
13907 On ch=4 n=55 v=127
13910 On ch=4 n=53 v=0
13913 On ch=4 n=54 v=0
13915 On ch=4 n=67 v=0
13920 On ch=4 n=69 v=86
13920 Par ch=4 c=64 v=127
13920 Par ch=4 c=64 v=0
13920 On ch=4 n=70 v=107
13920 On ch=4 n=43 v=111
13920 On ch=4 n=71 v=123
13925 On ch=4 n=70 v=0
13925 On ch=4 n=69 v=0
13958 Par ch=4 c=64 v=127
13966 On ch=4 n=55 v=0
13968 On ch=4 n=71 v=0
13992 On ch=4 n=43 v=0
14034 Par ch=4 c=64 v=0
14035 On ch=4 n=43 v=111
14036 On ch=4 n=60 v=98
14037 On ch=4 n=69 v=108
14055 On ch=4 n=60 v=0
14061 On ch=4 n=69 v=0
14064 On ch=4 n=67 v=91
14066 On ch=4 n=59 v=113
14089 Par ch=4 c=64 v=127
14101 On ch=4 n=43 v=0
14114 On ch=4 n=59 v=0
14115 On ch=4 n=67 v=0
14128 On ch=4 n=43 v=103
14136 Par ch=4 c=64 v=0
14152 On ch=4 n=43 v=0
14155 On ch=4 n=45 v=111
14182 On ch=4 n=47 v=89
14188 On ch=4 n=45 v=0
14213 On ch=4 n=50 v=86
14214 On ch=4 n=47 v=0
14245 On ch=4 n=65 v=103
14245 On ch=4 n=53 v=100
14245 On ch=4 n=69 v=127
14245 On ch=4 n=50 v=0
14247 On ch=4 n=60 v=117
14306 On ch=4 n=50 v=108
14313 On ch=4 n=60 v=0
14313 On ch=4 n=69 v=0
14313 On ch=4 n=53 v=0
14316 On ch=4 n=65 v=0
14330 On ch=4 n=53 v=111
14330 On ch=4 n=50 v=0
14332 On ch=4 n=69 v=127
14332 On ch=4 n=65 v=123
14333 On ch=4 n=60 v=127
14392 On ch=4 n=53 v=0
14393 On ch=4 n=50 v=117
14398 On ch=4 n=60 v=0
14398 On ch=4 n=65 v=0
14400 On ch=4 n=69 v=0
14520 On ch=4 n=74 v=111
14521 On ch=4 n=69 v=127
14537 Par ch=4 c=64 v=127
14547 On ch=4 n=71 v=127
14553 On ch=4 n=69 v=0
14572 On ch=4 n=69 v=108
14574 On ch=4 n=71 v=0
14584 On ch=4 n=74 v=0
14594 On ch=4 n=69 v=0
14598 On ch=4 n=50 v=0
14604 On ch=4 n=66 v=107
14614 On ch=4 n=66 v=0
14634 Par ch=4 c=64 v=0
14638 On ch=4 n=67 v=120
14638 On ch=4 n=72 v=126
14638 On ch=4 n=48 v=113
14665 On ch=4 n=69 v=103
14667 On ch=4 n=67 v=0
14668 Par ch=4 c=64 v=127
14686 On ch=4 n=72 v=0
14686 On ch=4 n=69 v=0
14696 On ch=4 n=67 v=106
14710 On ch=4 n=67 v=0
14719 On ch=4 n=64 v=73
14719 On ch=4 n=48 v=0
14725 On ch=4 n=64 v=0
14757 On ch=4 n=74 v=86
14758 On ch=4 n=79 v=113
14758 On ch=4 n=72 v=98
14760 Par ch=4 c=64 v=0
14764 On ch=4 n=72 v=0
14777 On ch=4 n=79 v=0
14782 On ch=4 n=79 v=80
14782 On ch=4 n=74 v=0
14784 On ch=4 n=76 v=127
14786 Par ch=4 c=64 v=127
14816 On ch=4 n=52 v=111
14816 On ch=4 n=79 v=0
14817 On ch=4 n=76 v=0
14845 On ch=4 n=53 v=80
14851 On ch=4 n=52 v=0
14856 On ch=4 n=54 v=119
14863 On ch=4 n=53 v=0
14866 On ch=4 n=70 v=92
14866 On ch=4 n=69 v=93
14870 Par ch=4 c=64 v=0
14872 On ch=4 n=71 v=120
14873 On ch=4 n=55 v=126
14873 On ch=4 n=54 v=0
14875 On ch=4 n=74 v=117
14879 On ch=4 n=70 v=0
14886 On ch=4 n=69 v=0
14942 Par ch=4 c=64 v=127
14994 On ch=4 n=43 v=108
14994 On ch=4 n=71 v=0
14996 On ch=4 n=69 v=123
14996 On ch=4 n=74 v=0
14997 Par ch=4 c=64 v=0
15024 On ch=4 n=69 v=0
15025 On ch=4 n=67 v=123
15064 On ch=4 n=67 v=0
15064 On ch=4 n=43 v=0
15074 On ch=4 n=55 v=0
15086 On ch=4 n=43 v=113
15114 On ch=4 n=45 v=108
15114 On ch=4 n=43 v=0
15142 On ch=4 n=47 v=103
15146 On ch=4 n=45 v=0
15173 On ch=4 n=50 v=83
15174 On ch=4 n=47 v=0
15204 On ch=4 n=53 v=96
15205 On ch=4 n=69 v=127
15206 On ch=4 n=65 v=117
15206 On ch=4 n=60 v=123
15206 On ch=4 n=50 v=0
15269 On ch=4 n=50 v=111
15271 On ch=4 n=60 v=0
15273 On ch=4 n=65 v=0
15274 On ch=4 n=53 v=0
15275 On ch=4 n=69 v=0
15293 On ch=4 n=69 v=126
15294 On ch=4 n=65 v=120
15295 On ch=4 n=60 v=117
15295 On ch=4 n=50 v=0
15296 On ch=4 n=53 v=126
15314 Par ch=4 c=64 v=127
15338 On ch=4 n=69 v=0
15339 On ch=4 n=60 v=0
15340 On ch=4 n=65 v=0
15351 On ch=4 n=53 v=0
15357 On ch=4 n=50 v=111
15358 On ch=4 n=69 v=127
15360 Par ch=4 c=64 v=0
15418 On ch=4 n=67 v=123
15419 On ch=4 n=69 v=0
15447 On ch=4 n=69 v=127
15451 On ch=4 n=67 v=0
15477 On ch=4 n=67 v=113
15478 On ch=4 n=69 v=0
15505 On ch=4 n=66 v=125
15507 On ch=4 n=67 v=0
15533 On ch=4 n=66 v=0
15535 On ch=4 n=62 v=106
15563 Par ch=4 c=64 v=127
15583 On ch=4 n=62 v=0
15598 On ch=4 n=50 v=0
15601 On ch=4 n=62 v=113
15602 On ch=4 n=48 v=113
15605 Par ch=4 c=64 v=0
15629 On ch=4 n=64 v=120
15633 On ch=4 n=62 v=0
15657 On ch=4 n=72 v=123
15657 On ch=4 n=64 v=0
15688 On ch=4 n=62 v=89
15710 On ch=4 n=72 v=0
15716 On ch=4 n=64 v=120
15720 On ch=4 n=62 v=0
15736 Par ch=4 c=64 v=127
15746 On ch=4 n=72 v=113
15750 On ch=4 n=64 v=0
15769 Par ch=4 c=64 v=0
15772 On ch=4 n=72 v=0
15775 On ch=4 n=60 v=120
15775 On ch=4 n=52 v=111
15776 On ch=4 n=48 v=0
15787 Par ch=4 c=64 v=127
15791 On ch=4 n=60 v=0
15799 On ch=4 n=52 v=0
15804 On ch=4 n=54 v=125
15817 On ch=4 n=62 v=85
15825 On ch=4 n=55 v=83
15828 On ch=4 n=54 v=0
15829 Par ch=4 c=64 v=0
15835 On ch=4 n=71 v=127
15838 On ch=4 n=62 v=0
15864 On ch=4 n=60 v=82
15886 On ch=4 n=71 v=0
15893 On ch=4 n=62 v=108
15896 On ch=4 n=60 v=0
15921 On ch=4 n=62 v=0
15924 On ch=4 n=71 v=127
15954 On ch=4 n=43 v=127
15956 On ch=4 n=55 v=0
15972 Par ch=4 c=64 v=127
15992 On ch=4 n=71 v=0
15998 On ch=4 n=43 v=0
16048 On ch=4 n=43 v=77
16061 Par ch=4 c=64 v=0
16075 On ch=4 n=45 v=111
16076 On ch=4 n=43 v=0
16106 On ch=4 n=47 v=108
16111 On ch=4 n=45 v=0
16135 On ch=4 n=50 v=93
16137 On ch=4 n=47 v=0
16166 On ch=4 n=53 v=127
16166 On ch=4 n=50 v=0
16167 On ch=4 n=69 v=120
16167 On ch=4 n=65 v=127
16168 On ch=4 n=60 v=123
16183 Par ch=4 c=64 v=127
16214 On ch=4 n=65 v=0
16217 On ch=4 n=69 v=0
16220 On ch=4 n=60 v=0
16231 On ch=4 n=50 v=100
16231 On ch=4 n=53 v=0
16250 On ch=4 n=65 v=111
16251 Par ch=4 c=64 v=0
16251 On ch=4 n=69 v=117
16253 On ch=4 n=60 v=120
16255 On ch=4 n=53 v=127
16258 On ch=4 n=50 v=0
16268 Par ch=4 c=64 v=127
16280 On ch=4 n=65 v=0
16288 On ch=4 n=69 v=0
16295 On ch=4 n=60 v=0
16301 On ch=4 n=53 v=0
16315 On ch=4 n=50 v=123
16316 On ch=4 n=67 v=126
16318 Par ch=4 c=64 v=0
16345 On ch=4 n=69 v=113
16349 On ch=4 n=67 v=0
16376 On ch=4 n=67 v=117
16380 On ch=4 n=69 v=0
16403 On ch=4 n=66 v=107
16409 On ch=4 n=67 v=0
16434 On ch=4 n=62 v=111
16434 On ch=4 n=66 v=0
16466 On ch=4 n=64 v=127
16471 On ch=4 n=62 v=0
16529 On ch=4 n=64 v=0
16530 On ch=4 n=62 v=111
16553 On ch=4 n=62 v=0
16556 On ch=4 n=50 v=0
16557 On ch=4 n=64 v=127
16557 On ch=4 n=48 v=126
16618 On ch=4 n=60 v=126
16618 On ch=4 n=64 v=0
16639 Par ch=4 c=64 v=127
16649 On ch=4 n=48 v=0
16680 On ch=4 n=72 v=127
16686 Par ch=4 c=64 v=0
16690 Par ch=4 c=64 v=127
16708 On ch=4 n=64 v=127
16711 On ch=4 n=60 v=0
16715 On ch=4 n=72 v=0
16726 On ch=4 n=64 v=0
16737 On ch=4 n=52 v=106
16737 On ch=4 n=67 v=111
16763 On ch=4 n=53 v=78
16768 On ch=4 n=69 v=106
16769 On ch=4 n=52 v=0
16772 On ch=4 n=54 v=92
16777 On ch=4 n=67 v=0
16779 On ch=4 n=53 v=0
16785 On ch=4 n=69 v=0
16789 On ch=4 n=71 v=123
16791 On ch=4 n=55 v=127
16791 On ch=4 n=54 v=0
16795 Par ch=4 c=64 v=0
16908 On ch=4 n=71 v=0
16910 On ch=4 n=43 v=123
16912 On ch=4 n=62 v=63
16913 On ch=4 n=69 v=117
16929 On ch=4 n=62 v=0
16940 On ch=4 n=67 v=117
16942 On ch=4 n=69 v=0
16943 On ch=4 n=59 v=106
16952 Par ch=4 c=64 v=127
16973 On ch=4 n=43 v=0
16975 On ch=4 n=55 v=0
17001 On ch=4 n=59 v=0
17005 On ch=4 n=67 v=0
17007 On ch=4 n=43 v=126
17010 Par ch=4 c=64 v=0
17032 On ch=4 n=43 v=0
17033 On ch=4 n=45 v=117
17059 On ch=4 n=47 v=64
17069 On ch=4 n=45 v=0
17093 On ch=4 n=50 v=93
17094 On ch=4 n=47 v=0
17121 On ch=4 n=53 v=108
17121 On ch=4 n=50 v=0
17124 On ch=4 n=69 v=127
17124 On ch=4 n=65 v=123
17125 On ch=4 n=60 v=120
17167 Par ch=4 c=64 v=127
17186 On ch=4 n=50 v=98
17186 On ch=4 n=65 v=0
17189 On ch=4 n=60 v=0
17189 On ch=4 n=69 v=0
17194 On ch=4 n=53 v=0
17211 On ch=4 n=65 v=113
17211 On ch=4 n=53 v=126
17212 On ch=4 n=69 v=108
17213 On ch=4 n=60 v=108
17213 On ch=4 n=50 v=0
17218 Par ch=4 c=64 v=0
17234 Par ch=4 c=64 v=127
17256 On ch=4 n=65 v=0
17264 On ch=4 n=60 v=0
17269 On ch=4 n=69 v=0
17271 On ch=4 n=53 v=0
17272 Par ch=4 c=64 v=0
17276 On ch=4 n=50 v=117
17336 On ch=4 n=67 v=127
17365 On ch=4 n=69 v=113
17366 On ch=4 n=67 v=0
17394 On ch=4 n=69 v=0
17396 On ch=4 n=67 v=111
17425 On ch=4 n=66 v=94
17428 On ch=4 n=67 v=0
17452 On ch=4 n=66 v=0
17456 On ch=4 n=62 v=108
17519 On ch=4 n=48 v=117
17524 On ch=4 n=50 v=0
17532 On ch=4 n=62 v=0
17544 On ch=4 n=67 v=111
17565 On ch=4 n=67 v=0
17570 On ch=4 n=69 v=117
17599 On ch=4 n=69 v=0
17602 On ch=4 n=72 v=123
17671 On ch=4 n=67 v=106
17680 On ch=4 n=72 v=0
17697 On ch=4 n=69 v=108
17703 On ch=4 n=67 v=0
17726 On ch=4 n=72 v=120
17728 On ch=4 n=69 v=0
17755 On ch=4 n=43 v=120
17755 On ch=4 n=48 v=0
17756 On ch=4 n=72 v=0
17758 On ch=4 n=71 v=127
17813 Par ch=4 c=64 v=127
17821 On ch=4 n=71 v=0
17876 Par ch=4 c=64 v=0
17877 On ch=4 n=72 v=127
17902 On ch=4 n=72 v=0
17906 On ch=4 n=74 v=127
17948 Par ch=4 c=64 v=127
17992 On ch=4 n=43 v=0
17993 On ch=4 n=74 v=0
17997 On ch=4 n=45 v=111
17998 Par ch=4 c=64 v=0
18057 On ch=4 n=74 v=126
18080 On ch=4 n=74 v=0
18085 On ch=4 n=76 v=127
18147 On ch=4 n=73 v=125
18150 On ch=4 n=76 v=0
18170 On ch=4 n=73 v=0
18173 On ch=4 n=76 v=127
18193 Par ch=4 c=64 v=127
18220 On ch=4 n=76 v=0
18235 On ch=4 n=45 v=0
18237 On ch=4 n=50 v=108
18239 Par ch=4 c=64 v=0
18299 On ch=4 n=74 v=103
18299 On ch=4 n=71 v=127
18327 On ch=4 n=71 v=0
18329 On ch=4 n=69 v=127
18357 Par ch=4 c=64 v=127
18362 On ch=4 n=69 v=0
18389 On ch=4 n=66 v=127
18408 Par ch=4 c=64 v=0
18429 Par ch=4 c=64 v=127
18459 On ch=4 n=74 v=0
18467 On ch=4 n=66 v=0
18472 On ch=4 n=50 v=0
18475 Par ch=4 c=64 v=0
18477 On ch=4 n=48 v=123
18535 On ch=4 n=72 v=103
18536 On ch=4 n=64 v=111
18564 On ch=4 n=67 v=98
18569 On ch=4 n=64 v=0
18591 On ch=4 n=64 v=98
18594 Par ch=4 c=64 v=127
18600 On ch=4 n=67 v=0
18606 On ch=4 n=64 v=0
18613 On ch=4 n=48 v=0
18621 On ch=4 n=72 v=0
18625 On ch=4 n=62 v=64
18637 On ch=4 n=62 v=0
18654 On ch=4 n=52 v=103
18656 On ch=4 n=72 v=72
18656 On ch=4 n=62 v=86
18666 On ch=4 n=62 v=0
18669 On ch=4 n=72 v=0
18675 On ch=4 n=52 v=0
18683 On ch=4 n=53 v=67
18684 On ch=4 n=54 v=122
18685 On ch=4 n=61 v=122
18685 On ch=4 n=70 v=84
18687 On ch=4 n=53 v=0
18691 Par ch=4 c=64 v=0
18692 On ch=4 n=61 v=0
18693 On ch=4 n=62 v=127
18696 On ch=4 n=71 v=127
18697 On ch=4 n=70 v=0
18702 On ch=4 n=55 v=120
18702 On ch=4 n=54 v=0
18720 On ch=4 n=43 v=106
18720 On ch=4 n=71 v=108
18720 On ch=4 n=62 v=93
18720 On ch=4 n=55 v=117
18726 Par ch=4 c=64 v=127
18731 On ch=4 n=62 v=0
18733 On ch=4 n=71 v=0
18749 On ch=4 n=61 v=104
18749 On ch=4 n=70 v=79
18761 On ch=4 n=70 v=0
18764 On ch=4 n=61 v=0
18776 On ch=4 n=71 v=127
18776 Par ch=4 c=64 v=0
18777 On ch=4 n=62 v=96
18798 Par ch=4 c=64 v=127
18807 On ch=4 n=62 v=0
18807 On ch=4 n=71 v=0
18809 On ch=4 n=55 v=0
18809 On ch=4 n=71 v=0
18811 On ch=4 n=62 v=0
18815 On ch=4 n=43 v=0
18836 Par ch=4 c=64 v=0
18837 On ch=4 n=71 v=120
18838 On ch=4 n=62 v=89
18839 On ch=4 n=43 v=123
18855 On ch=4 n=71 v=0
18857 Par ch=4 c=64 v=127
18858 On ch=4 n=62 v=0
18866 On ch=4 n=69 v=96
18882 On ch=4 n=69 v=0
18898 On ch=4 n=67 v=98
18898 On ch=4 n=59 v=108
18899 Par ch=4 c=64 v=0
18909 On ch=4 n=43 v=0
18919 On ch=4 n=59 v=0
18919 On ch=4 n=67 v=0
18920 Par ch=4 c=64 v=127
18929 On ch=4 n=43 v=123
18945 On ch=4 n=43 v=0
18952 On ch=4 n=55 v=0
18956 On ch=4 n=45 v=111
18958 Par ch=4 c=64 v=0
18981 On ch=4 n=47 v=91
18989 On ch=4 n=45 v=0
19012 On ch=4 n=47 v=0
19013 On ch=4 n=50 v=98
19041 On ch=4 n=53 v=120
19042 On ch=4 n=69 v=126
19042 On ch=4 n=65 v=127
19042 On ch=4 n=60 v=126
19042 On ch=4 n=50 v=0
19080 Par ch=4 c=64 v=127
19090 On ch=4 n=69 v=0
19092 On ch=4 n=65 v=0
19094 On ch=4 n=60 v=0
19103 On ch=4 n=50 v=111
19109 On ch=4 n=53 v=0
19123 Par ch=4 c=64 v=0
19132 On ch=4 n=53 v=127
19132 On ch=4 n=50 v=0
19133 On ch=4 n=69 v=106
19133 On ch=4 n=65 v=117
19134 On ch=4 n=60 v=117
19152 Par ch=4 c=64 v=127
19179 On ch=4 n=65 v=0
19180 On ch=4 n=60 v=0
19185 On ch=4 n=69 v=0
19193 On ch=4 n=53 v=0
19194 Par ch=4 c=64 v=0
19197 On ch=4 n=50 v=127
19256 On ch=4 n=67 v=123
19285 On ch=4 n=69 v=103
19288 On ch=4 n=67 v=0
19314 On ch=4 n=66 v=107
19317 On ch=4 n=69 v=0
19344 On ch=4 n=62 v=98
19346 On ch=4 n=66 v=0
19377 On ch=4 n=64 v=117
19381 On ch=4 n=62 v=0
19407 On ch=4 n=62 v=86
19415 On ch=4 n=64 v=0
19435 On ch=4 n=62 v=0
19437 On ch=4 n=67 v=106
19439 On ch=4 n=48 v=113
19440 On ch=4 n=50 v=0
19468 On ch=4 n=64 v=117
19475 On ch=4 n=67 v=0
19496 On ch=4 n=60 v=89
19497 On ch=4 n=64 v=0
19524 On ch=4 n=64 v=117
19542 On ch=4 n=60 v=0
19556 On ch=4 n=67 v=98
19556 On ch=4 n=64 v=0
19566 Par ch=4 c=64 v=127
19567 On ch=4 n=48 v=0
19587 On ch=4 n=64 v=111
19589 On ch=4 n=67 v=0
19610 On ch=4 n=64 v=0
19616 On ch=4 n=60 v=103
19636 On ch=4 n=60 v=0
19641 On ch=4 n=52 v=93
19645 On ch=4 n=64 v=126
19649 On ch=4 n=54 v=107
19653 On ch=4 n=64 v=0
19658 On ch=4 n=52 v=0
19668 On ch=4 n=70 v=125
19670 On ch=4 n=55 v=120
19670 On ch=4 n=54 v=0
19671 Par ch=4 c=64 v=0
19673 On ch=4 n=71 v=120
19678 On ch=4 n=70 v=0
19798 On ch=4 n=43 v=126
19801 On ch=4 n=71 v=0
19807 Par ch=4 c=64 v=127
19827 On ch=4 n=43 v=0
19892 On ch=4 n=43 v=89
19914 On ch=4 n=59 v=113
19914 On ch=4 n=55 v=0
19916 Par ch=4 c=64 v=0
19919 On ch=4 n=45 v=98
19919 On ch=4 n=43 v=0
19947 On ch=4 n=57 v=80
19947 On ch=4 n=59 v=0
19948 On ch=4 n=47 v=100
19958 On ch=4 n=45 v=0
19971 On ch=4 n=57 v=0
19972 On ch=4 n=59 v=83
19973 On ch=4 n=50 v=103
19979 On ch=4 n=47 v=0
20000 On ch=4 n=62 v=106
20001 On ch=4 n=59 v=0
20002 On ch=4 n=50 v=0
20003 On ch=4 n=53 v=126
20034 On ch=4 n=59 v=123
20035 On ch=4 n=50 v=117
20038 On ch=4 n=62 v=0
20063 On ch=4 n=47 v=103
20065 On ch=4 n=55 v=83
20065 On ch=4 n=57 v=91
20065 On ch=4 n=59 v=0
20071 On ch=4 n=50 v=0
20086 On ch=4 n=55 v=0
20086 On ch=4 n=57 v=0
20094 On ch=4 n=59 v=120
20096 On ch=4 n=43 v=93
20099 On ch=4 n=47 v=0
20106 Par ch=4 c=64 v=127
20123 On ch=4 n=62 v=96
20123 On ch=4 n=59 v=0
20135 On ch=4 n=53 v=0
20139 On ch=4 n=62 v=0
20140 On ch=4 n=43 v=0
20153 Par ch=4 c=64 v=0
20155 On ch=4 n=50 v=127
20282 On ch=4 n=69 v=127
20308 On ch=4 n=71 v=106
20311 On ch=4 n=69 v=0
20337 On ch=4 n=69 v=126
20342 On ch=4 n=71 v=0
20356 Par ch=4 c=64 v=127
20362 On ch=4 n=66 v=100
20363 On ch=4 n=69 v=0
20393 Par ch=4 c=64 v=0
20394 On ch=4 n=72 v=123
20394 On ch=4 n=50 v=0
20395 On ch=4 n=66 v=0
20396 On ch=4 n=60 v=100
20396 On ch=4 n=48 v=106
20440 Par ch=4 c=64 v=127
20446 On ch=4 n=60 v=0
20452 On ch=4 n=72 v=0
20489 On ch=4 n=48 v=0
20513 On ch=4 n=79 v=103
20514 On ch=4 n=74 v=123
20534 On ch=4 n=74 v=0
20544 On ch=4 n=76 v=120
20550 On ch=4 n=79 v=0
20570 On ch=4 n=76 v=0
20574 On ch=4 n=74 v=120
20584 On ch=4 n=74 v=0
20599 On ch=4 n=52 v=98
20606 On ch=4 n=54 v=92
20608 On ch=4 n=69 v=111
20613 On ch=4 n=69 v=0
20616 On ch=4 n=52 v=0
20628 On ch=4 n=54 v=0
20629 On ch=4 n=70 v=127
20631 On ch=4 n=55 v=126
20634 Par ch=4 c=64 v=0
20635 On ch=4 n=71 v=103
20640 On ch=4 n=70 v=0
20690 On ch=4 n=69 v=127
20695 On ch=4 n=71 v=0
20754 On ch=4 n=43 v=127
20755 On ch=4 n=67 v=106
20756 On ch=4 n=69 v=0
20769 Par ch=4 c=64 v=127
20796 On ch=4 n=67 v=0
20808 On ch=4 n=43 v=0
20815 On ch=4 n=62 v=85
20838 On ch=4 n=62 v=0
20843 On ch=4 n=55 v=0
20844 On ch=4 n=43 v=93
20846 On ch=4 n=64 v=103
20858 On ch=4 n=64 v=0
20872 On ch=4 n=43 v=0
20875 On ch=4 n=45 v=91
20879 Par ch=4 c=64 v=0
20905 On ch=4 n=47 v=106
20911 On ch=4 n=45 v=0
20935 On ch=4 n=50 v=80
20936 On ch=4 n=47 v=0
20963 On ch=4 n=69 v=113
20964 On ch=4 n=65 v=120
20964 On ch=4 n=53 v=127
20964 On ch=4 n=60 v=123
20964 On ch=4 n=50 v=0
21001 Par ch=4 c=64 v=127
21019 On ch=4 n=65 v=0
21020 On ch=4 n=60 v=0
21024 On ch=4 n=69 v=0
21026 On ch=4 n=50 v=113
21033 On ch=4 n=53 v=0
21052 On ch=4 n=53 v=126
21053 On ch=4 n=50 v=0
21054 On ch=4 n=60 v=103
21054 On ch=4 n=69 v=98
21054 On ch=4 n=65 v=120
21061 On ch=4 n=60 v=0
21064 On ch=4 n=65 v=0
21067 On ch=4 n=69 v=0
21087 On ch=4 n=53 v=0
21107 Par ch=4 c=64 v=0
21113 On ch=4 n=50 v=120
21114 On ch=4 n=69 v=117
21180 On ch=4 n=78 v=107
21239 On ch=4 n=74 v=91
21250 Par ch=4 c=64 v=127
21274 On ch=4 n=69 v=0
21294 On ch=4 n=78 v=0
21298 On ch=4 n=74 v=0
21299 On ch=4 n=69 v=98
21345 On ch=4 n=50 v=0
21360 Par ch=4 c=64 v=0
21414 On ch=4 n=76 v=108
21473 On ch=4 n=73 v=100
21483 Par ch=4 c=64 v=127
21485 On ch=4 n=76 v=0
21502 On ch=4 n=69 v=0
21531 On ch=4 n=73 v=0
21533 On ch=4 n=69 v=91
21588 On ch=4 n=69 v=0
21594 On ch=4 n=79 v=100
21601 Par ch=4 c=64 v=0
21652 On ch=4 n=76 v=78
21655 Par ch=4 c=64 v=127
21672 On ch=4 n=79 v=0
21709 On ch=4 n=76 v=0
21710 On ch=4 n=72 v=106
21715 Par ch=4 c=64 v=0
21773 On ch=4 n=67 v=83
21833 On ch=4 n=79 v=117
21836 On ch=4 n=72 v=0
21839 On ch=4 n=67 v=0
21894 On ch=4 n=74 v=108
21953 On ch=4 n=71 v=86
22013 On ch=4 n=67 v=80
22019 Par ch=4 c=64 v=127
22033 On ch=4 n=71 v=0
22069 On ch=4 n=67 v=0
22070 On ch=4 n=74 v=0
22071 On ch=4 n=79 v=0
22072 On ch=4 n=62 v=113
22074 Par ch=4 c=64 v=0
22315 On ch=4 n=62 v=0
22557 On ch=4 n=43 v=127
22559 On ch=4 n=55 v=127
22918 Par ch=4 c=64 v=127
22933 On ch=4 n=55 v=0
22941 On ch=4 n=43 v=0
23028 Par ch=4 c=64 v=0
23030 On ch=4 n=38 v=127
23032 On ch=4 n=50 v=127
23408 Par ch=4 c=64 v=127
23424 On ch=4 n=38 v=0
23431 On ch=4 n=50 v=0
23513 Par ch=4 c=64 v=0
23515 On ch=4 n=43 v=120
23517 On ch=4 n=55 v=127
23985 On ch=4 n=43 v=0
23987 On ch=4 n=55 v=0
24210 On ch=4 n=47 v=48
24211 On ch=4 n=48 v=89
24213 On ch=4 n=52 v=75
24213 On ch=4 n=50 v=51
24216 On ch=4 n=47 v=0
24217 On ch=4 n=53 v=66
24220 On ch=4 n=55 v=111
24220 On ch=4 n=48 v=0
24222 On ch=4 n=57 v=126
24223 On ch=4 n=50 v=0
24224 On ch=4 n=59 v=127
24225 On ch=4 n=52 v=0
24227 On ch=4 n=60 v=127
24227 On ch=4 n=53 v=0
24229 On ch=4 n=62 v=127
24229 On ch=4 n=55 v=0
24230 On ch=4 n=64 v=127
24230 On ch=4 n=57 v=0
24232 On ch=4 n=65 v=127
24232 On ch=4 n=59 v=0
24234 On ch=4 n=67 v=127
24234 On ch=4 n=60 v=0
24235 On ch=4 n=79 v=127
24235 On ch=4 n=76 v=127
24235 On ch=4 n=72 v=127
24235 On ch=4 n=69 v=127
24236 On ch=4 n=62 v=0
24237 On ch=4 n=71 v=111
24237 On ch=4 n=64 v=0
24237 On ch=4 n=69 v=0
24237 On ch=4 n=65 v=0
24238 On ch=4 n=71 v=0
24239 On ch=4 n=67 v=0
24476 On ch=4 n=72 v=0
24476 On ch=4 n=76 v=0
24477 On ch=4 n=79 v=0
27000 On ch=4 n=74 v=111
27001 On ch=4 n=69 v=127
27017 Par ch=4 c=64 v=127
27027 On ch=4 n=71 v=127
27033 On ch=4 n=69 v=0
27052 On ch=4 n=69 v=108
27054 On ch=4 n=71 v=0
27064 On ch=4 n=74 v=0
27074 On ch=4 n=69 v=0
27084 On ch=4 n=66 v=107
27094 On ch=4 n=66 v=0
27114 Par ch=4 c=64 v=0
27118 On ch=4 n=67 v=120
27118 On ch=4 n=72 v=126
27118 On ch=4 n=48 v=113
27145 On ch=4 n=69 v=103
27147 On ch=4 n=67 v=0
27148 Par ch=4 c=64 v=127
27166 On ch=4 n=72 v=0
27166 On ch=4 n=69 v=0
27176 On ch=4 n=67 v=106
27190 On ch=4 n=67 v=0
27199 On ch=4 n=64 v=73
27199 On ch=4 n=48 v=0
27205 On ch=4 n=64 v=0
27237 On ch=4 n=74 v=86
27238 On ch=4 n=79 v=113
27238 On ch=4 n=72 v=98
27240 Par ch=4 c=64 v=0
27244 On ch=4 n=72 v=0
27257 On ch=4 n=79 v=0
27262 On ch=4 n=79 v=80
27262 On ch=4 n=74 v=0
27264 On ch=4 n=76 v=127
27266 Par ch=4 c=64 v=127
27296 On ch=4 n=52 v=111
27296 On ch=4 n=79 v=0
27297 On ch=4 n=76 v=0
27325 On ch=4 n=53 v=80
27331 On ch=4 n=52 v=0
27336 On ch=4 n=54 v=119
27343 On ch=4 n=53 v=0
27346 On ch=4 n=70 v=92
27346 On ch=4 n=69 v=93
27350 Par ch=4 c=64 v=0
27352 On ch=4 n=71 v=120
27353 On ch=4 n=55 v=126
27353 On ch=4 n=54 v=0
27355 On ch=4 n=74 v=117
27359 On ch=4 n=70 v=0
27366 On ch=4 n=69 v=0
27422 Par ch=4 c=64 v=127
27474 On ch=4 n=43 v=108
27474 On ch=4 n=71 v=0
27476 On ch=4 n=69 v=123
27476 On ch=4 n=74 v=0
27477 Par ch=4 c=64 v=0
27504 On ch=4 n=69 v=0
27505 On ch=4 n=67 v=123
27544 On ch=4 n=67 v=0
27544 On ch=4 n=43 v=0
27554 On ch=4 n=55 v=0
27566 On ch=4 n=43 v=113
27594 On ch=4 n=45 v=108
27594 On ch=4 n=43 v=0
27622 On ch=4 n=47 v=103
27626 On ch=4 n=45 v=0
27653 On ch=4 n=50 v=83
27654 On ch=4 n=47 v=0
27684 On ch=4 n=53 v=96
27685 On ch=4 n=69 v=127
27686 On ch=4 n=65 v=117
27686 On ch=4 n=60 v=123
27686 On ch=4 n=50 v=0
27749 On ch=4 n=50 v=111
27751 On ch=4 n=60 v=0
27753 On ch=4 n=65 v=0
27754 On ch=4 n=53 v=0
27755 On ch=4 n=69 v=0
27773 On ch=4 n=69 v=126
27774 On ch=4 n=65 v=120
27775 On ch=4 n=60 v=117
27775 On ch=4 n=50 v=0
27776 On ch=4 n=53 v=126
27794 Par ch=4 c=64 v=127
27818 On ch=4 n=69 v=0
27819 On ch=4 n=60 v=0
27820 On ch=4 n=65 v=0
27831 On ch=4 n=53 v=0
27837 On ch=4 n=50 v=111
27838 On ch=4 n=69 v=127
27840 Par ch=4 c=64 v=0
27898 On ch=4 n=67 v=123
27899 On ch=4 n=69 v=0
27927 On ch=4 n=69 v=127
27931 On ch=4 n=67 v=0
27957 On ch=4 n=67 v=113
27958 On ch=4 n=69 v=0
27985 On ch=4 n=66 v=125
27987 On ch=4 n=67 v=0
28013 On ch=4 n=66 v=0
28015 On ch=4 n=62 v=106
28043 Par ch=4 c=64 v=127
28063 On ch=4 n=62 v=0
28078 On ch=4 n=50 v=0
28081 On ch=4 n=62 v=113
28082 On ch=4 n=48 v=113
28085 Par ch=4 c=64 v=0
28109 On ch=4 n=64 v=120
28113 On ch=4 n=62 v=0
28137 On ch=4 n=72 v=123
28137 On ch=4 n=64 v=0
28168 On ch=4 n=62 v=89
28190 On ch=4 n=72 v=0
28196 On ch=4 n=64 v=120
28200 On ch=4 n=62 v=0
28216 Par ch=4 c=64 v=127
28226 On ch=4 n=72 v=113
28230 On ch=4 n=64 v=0
28249 Par ch=4 c=64 v=0
28252 On ch=4 n=72 v=0
28255 On ch=4 n=60 v=120
28255 On ch=4 n=52 v=111
28256 On ch=4 n=48 v=0
28267 Par ch=4 c=64 v=127
28271 On ch=4 n=60 v=0
28279 On ch=4 n=52 v=0
28284 On ch=4 n=54 v=125
28297 On ch=4 n=62 v=85
28305 On ch=4 n=55 v=83
28308 On ch=4 n=54 v=0
28309 Par ch=4 c=64 v=0
28315 On ch=4 n=71 v=127
28318 On ch=4 n=62 v=0
28344 On ch=4 n=60 v=82
28366 On ch=4 n=71 v=0
28373 On ch=4 n=62 v=108
28376 On ch=4 n=60 v=0
28401 On ch=4 n=62 v=0
28404 On ch=4 n=71 v=127
28434 On ch=4 n=43 v=127
28436 On ch=4 n=55 v=0
28452 Par ch=4 c=64 v=127
28472 On ch=4 n=71 v=0
28478 On ch=4 n=43 v=0
28528 On ch=4 n=43 v=77
28541 Par ch=4 c=64 v=0
28555 On ch=4 n=45 v=111
28556 On ch=4 n=43 v=0
28586 On ch=4 n=47 v=108
28591 On ch=4 n=45 v=0
28615 On ch=4 n=50 v=93
28617 On ch=4 n=47 v=0
28646 On ch=4 n=53 v=127
28646 On ch=4 n=50 v=0
28647 On ch=4 n=69 v=120
28647 On ch=4 n=65 v=127
28648 On ch=4 n=60 v=123
28663 Par ch=4 c=64 v=127
28694 On ch=4 n=65 v=0
28697 On ch=4 n=69 v=0
28700 On ch=4 n=60 v=0
28711 On ch=4 n=50 v=100
28711 On ch=4 n=53 v=0
28730 On ch=4 n=65 v=111
28731 Par ch=4 c=64 v=0
28731 On ch=4 n=69 v=117
28733 On ch=4 n=60 v=120
28735 On ch=4 n=53 v=127
28738 On ch=4 n=50 v=0
28748 Par ch=4 c=64 v=127
28760 On ch=4 n=65 v=0
28768 On ch=4 n=69 v=0
28775 On ch=4 n=60 v=0
28781 On ch=4 n=53 v=0
28795 On ch=4 n=50 v=123
28796 On ch=4 n=67 v=126
28798 Par ch=4 c=64 v=0
28825 On ch=4 n=69 v=113
28829 On ch=4 n=67 v=0
28856 On ch=4 n=67 v=117
28860 On ch=4 n=69 v=0
28883 On ch=4 n=66 v=107
28889 On ch=4 n=67 v=0
28914 On ch=4 n=62 v=111
28914 On ch=4 n=66 v=0
28946 On ch=4 n=64 v=127
28951 On ch=4 n=62 v=0
29009 On ch=4 n=64 v=0
29010 On ch=4 n=62 v=111
29033 On ch=4 n=62 v=0
29036 On ch=4 n=50 v=0
29037 On ch=4 n=64 v=127
29037 On ch=4 n=48 v=126
29098 On ch=4 n=60 v=126
29098 On ch=4 n=64 v=0
29119 Par ch=4 c=64 v=127
29129 On ch=4 n=48 v=0
29160 On ch=4 n=72 v=127
29166 Par ch=4 c=64 v=0
29170 Par ch=4 c=64 v=127
29188 On ch=4 n=64 v=127
29191 On ch=4 n=60 v=0
29195 On ch=4 n=72 v=0
29206 On ch=4 n=64 v=0
29217 On ch=4 n=52 v=106
29217 On ch=4 n=67 v=111
29243 On ch=4 n=53 v=78
29248 On ch=4 n=69 v=106
29249 On ch=4 n=52 v=0
29252 On ch=4 n=54 v=92
29257 On ch=4 n=67 v=0
29259 On ch=4 n=53 v=0
29265 On ch=4 n=69 v=0
29269 On ch=4 n=71 v=123
29271 On ch=4 n=55 v=127
29271 On ch=4 n=54 v=0
29275 Par ch=4 c=64 v=0
29388 On ch=4 n=71 v=0
29390 On ch=4 n=43 v=123
29392 On ch=4 n=62 v=63
29393 On ch=4 n=69 v=117
29409 On ch=4 n=62 v=0
29420 On ch=4 n=67 v=117
29422 On ch=4 n=69 v=0
29423 On ch=4 n=59 v=106
29432 Par ch=4 c=64 v=127
29453 On ch=4 n=43 v=0
29455 On ch=4 n=55 v=0
29481 On ch=4 n=59 v=0
29485 On ch=4 n=67 v=0
29487 On ch=4 n=43 v=126
29490 Par ch=4 c=64 v=0
29512 On ch=4 n=43 v=0
29513 On ch=4 n=45 v=117
29539 On ch=4 n=47 v=64
29549 On ch=4 n=45 v=0
29573 On ch=4 n=50 v=93
29574 On ch=4 n=47 v=0
29601 On ch=4 n=53 v=108
29601 On ch=4 n=50 v=0
29604 On ch=4 n=69 v=127
29604 On ch=4 n=65 v=123
29605 On ch=4 n=60 v=120
29647 Par ch=4 c=64 v=127
29666 On ch=4 n=50 v=98
29666 On ch=4 n=65 v=0
29669 On ch=4 n=60 v=0
29669 On ch=4 n=69 v=0
29674 On ch=4 n=53 v=0
29691 On ch=4 n=65 v=113
29691 On ch=4 n=53 v=126
29692 On ch=4 n=69 v=108
29693 On ch=4 n=60 v=108
29693 On ch=4 n=50 v=0
29698 Par ch=4 c=64 v=0
29714 Par ch=4 c=64 v=127
29736 On ch=4 n=65 v=0
29744 On ch=4 n=60 v=0
29749 On ch=4 n=69 v=0
29751 On ch=4 n=53 v=0
29752 Par ch=4 c=64 v=0
29756 On ch=4 n=50 v=117
29816 On ch=4 n=67 v=127
29845 On ch=4 n=69 v=113
29846 On ch=4 n=67 v=0
29874 On ch=4 n=69 v=0
29876 On ch=4 n=67 v=111
29905 On ch=4 n=66 v=94
29908 On ch=4 n=67 v=0
29932 On ch=4 n=66 v=0
29936 On ch=4 n=62 v=108
29999 On ch=4 n=48 v=117
30004 On ch=4 n=50 v=0
30012 On ch=4 n=62 v=0
30024 On ch=4 n=67 v=111
30045 On ch=4 n=67 v=0
30050 On ch=4 n=69 v=117
30079 On ch=4 n=69 v=0
30082 On ch=4 n=72 v=123
30151 On ch=4 n=67 v=106
30160 On ch=4 n=72 v=0
30177 On ch=4 n=69 v=108
30183 On ch=4 n=67 v=0
30206 On ch=4 n=72 v=120
30208 On ch=4 n=69 v=0
30235 On ch=4 n=43 v=120
30235 On ch=4 n=48 v=0
30236 On ch=4 n=72 v=0
30238 On ch=4 n=71 v=127
30293 Par ch=4 c=64 v=127
30301 On ch=4 n=71 v=0
30356 Par ch=4 c=64 v=0
30357 On ch=4 n=72 v=127
30382 On ch=4 n=72 v=0
30386 On ch=4 n=74 v=127
30428 Par ch=4 c=64 v=127
30472 On ch=4 n=43 v=0
30473 On ch=4 n=74 v=0
30477 On ch=4 n=45 v=111
30478 Par ch=4 c=64 v=0
30537 On ch=4 n=74 v=126
30560 On ch=4 n=74 v=0
30565 On ch=4 n=76 v=127
30627 On ch=4 n=73 v=125
30630 On ch=4 n=76 v=0
30650 On ch=4 n=73 v=0
30653 On ch=4 n=76 v=127
30673 Par ch=4 c=64 v=127
30700 On ch=4 n=76 v=0
30715 On ch=4 n=45 v=0
30717 On ch=4 n=50 v=108
30719 Par ch=4 c=64 v=0
30779 On ch=4 n=74 v=103
30779 On ch=4 n=71 v=127
30807 On ch=4 n=71 v=0
30809 On ch=4 n=69 v=127
30837 Par ch=4 c=64 v=127
30842 On ch=4 n=69 v=0
30869 On ch=4 n=66 v=127
30888 Par ch=4 c=64 v=0
30909 Par ch=4 c=64 v=127
30939 On ch=4 n=74 v=0
30947 On ch=4 n=66 v=0
30952 On ch=4 n=50 v=0
30955 Par ch=4 c=64 v=0
30957 On ch=4 n=48 v=123
31015 On ch=4 n=72 v=103
31016 On ch=4 n=64 v=111
31044 On ch=4 n=67 v=98
31049 On ch=4 n=64 v=0
31071 On ch=4 n=64 v=98
31074 Par ch=4 c=64 v=127
31080 On ch=4 n=67 v=0
31086 On ch=4 n=64 v=0
31093 On ch=4 n=48 v=0
31101 On ch=4 n=72 v=0
31105 On ch=4 n=62 v=64
31117 On ch=4 n=62 v=0
31134 On ch=4 n=52 v=103
31136 On ch=4 n=72 v=72
31136 On ch=4 n=62 v=86
31146 On ch=4 n=62 v=0
31149 On ch=4 n=72 v=0
31155 On ch=4 n=52 v=0
31163 On ch=4 n=53 v=67
31164 On ch=4 n=54 v=122
31165 On ch=4 n=61 v=122
31165 On ch=4 n=70 v=84
31167 On ch=4 n=53 v=0
31171 Par ch=4 c=64 v=0
31172 On ch=4 n=61 v=0
31173 On ch=4 n=62 v=127
31176 On ch=4 n=71 v=127
31177 On ch=4 n=70 v=0
31182 On ch=4 n=55 v=120
31182 On ch=4 n=54 v=0
31200 On ch=4 n=43 v=106
31200 On ch=4 n=71 v=108
31200 On ch=4 n=62 v=93
31200 On ch=4 n=55 v=117
31206 Par ch=4 c=64 v=127
31211 On ch=4 n=62 v=0
31213 On ch=4 n=71 v=0
31229 On ch=4 n=61 v=104
31229 On ch=4 n=70 v=79
31241 On ch=4 n=70 v=0
31244 On ch=4 n=61 v=0
31256 On ch=4 n=71 v=127
31256 Par ch=4 c=64 v=0
31257 On ch=4 n=62 v=96
31278 Par ch=4 c=64 v=127
31287 On ch=4 n=62 v=0
31287 On ch=4 n=71 v=0
31289 On ch=4 n=55 v=0
31289 On ch=4 n=71 v=0
31291 On ch=4 n=62 v=0
31295 On ch=4 n=43 v=0
31316 Par ch=4 c=64 v=0
31317 On ch=4 n=71 v=120
31318 On ch=4 n=62 v=89
31319 On ch=4 n=43 v=123
31335 On ch=4 n=71 v=0
31337 Par ch=4 c=64 v=127
31338 On ch=4 n=62 v=0
31346 On ch=4 n=69 v=96
31362 On ch=4 n=69 v=0
31378 On ch=4 n=67 v=98
31378 On ch=4 n=59 v=108
31379 Par ch=4 c=64 v=0
31389 On ch=4 n=43 v=0
31399 On ch=4 n=59 v=0
31399 On ch=4 n=67 v=0
31400 Par ch=4 c=64 v=127
31409 On ch=4 n=43 v=127
31425 On ch=4 n=43 v=0
31432 On ch=4 n=55 v=0
31436 On ch=4 n=45 v=111
31438 Par ch=4 c=64 v=0
31461 On ch=4 n=47 v=91
31469 On ch=4 n=45 v=0
31492 On ch=4 n=47 v=0
31493 On ch=4 n=50 v=98
31521 On ch=4 n=53 v=120
31522 On ch=4 n=69 v=126
31522 On ch=4 n=65 v=127
31522 On ch=4 n=60 v=126
31522 On ch=4 n=50 v=0
31560 Par ch=4 c=64 v=127
31570 On ch=4 n=69 v=0
31572 On ch=4 n=65 v=0
31574 On ch=4 n=60 v=0
31583 On ch=4 n=50 v=111
31589 On ch=4 n=53 v=0
31603 Par ch=4 c=64 v=0
31612 On ch=4 n=53 v=127
31612 On ch=4 n=50 v=0
31613 On ch=4 n=69 v=106
31613 On ch=4 n=65 v=117
31614 On ch=4 n=60 v=117
31632 Par ch=4 c=64 v=127
31659 On ch=4 n=65 v=0
31660 On ch=4 n=60 v=0
31665 On ch=4 n=69 v=0
31673 On ch=4 n=53 v=0
31674 Par ch=4 c=64 v=0
31677 On ch=4 n=50 v=127
31736 On ch=4 n=67 v=123
31765 On ch=4 n=69 v=103
31768 On ch=4 n=67 v=0
31794 On ch=4 n=66 v=107
31797 On ch=4 n=69 v=0
31824 On ch=4 n=62 v=98
31826 On ch=4 n=66 v=0
31857 On ch=4 n=64 v=117
31861 On ch=4 n=62 v=0
31887 On ch=4 n=62 v=86
31895 On ch=4 n=64 v=0
31915 On ch=4 n=62 v=0
31917 On ch=4 n=67 v=106
31919 On ch=4 n=48 v=113
31920 On ch=4 n=50 v=0
31948 On ch=4 n=64 v=117
31955 On ch=4 n=67 v=0
31976 On ch=4 n=60 v=89
31977 On ch=4 n=64 v=0
32004 On ch=4 n=64 v=117
32022 On ch=4 n=60 v=0
32036 On ch=4 n=67 v=98
32036 On ch=4 n=64 v=0
32046 Par ch=4 c=64 v=127
32047 On ch=4 n=48 v=0
32067 On ch=4 n=64 v=111
32069 On ch=4 n=67 v=0
32090 On ch=4 n=64 v=0
32096 On ch=4 n=60 v=103
32116 On ch=4 n=60 v=0
32121 On ch=4 n=52 v=93
32125 On ch=4 n=64 v=126
32129 On ch=4 n=54 v=107
32133 On ch=4 n=64 v=0
32138 On ch=4 n=52 v=0
32148 On ch=4 n=70 v=125
32150 On ch=4 n=55 v=120
32150 On ch=4 n=54 v=0
32151 Par ch=4 c=64 v=0
32153 On ch=4 n=71 v=120
32158 On ch=4 n=70 v=0
32278 On ch=4 n=43 v=126
32281 On ch=4 n=71 v=0
32287 Par ch=4 c=64 v=127
32307 On ch=4 n=43 v=0
32372 On ch=4 n=43 v=89
32394 On ch=4 n=59 v=113
32394 On ch=4 n=55 v=0
32396 Par ch=4 c=64 v=0
32399 On ch=4 n=45 v=98
32399 On ch=4 n=43 v=0
32427 On ch=4 n=57 v=80
32427 On ch=4 n=59 v=0
32428 On ch=4 n=47 v=100
32438 On ch=4 n=45 v=0
32451 On ch=4 n=57 v=0
32452 On ch=4 n=59 v=83
32453 On ch=4 n=50 v=103
32459 On ch=4 n=47 v=0
32480 On ch=4 n=62 v=106
32481 On ch=4 n=59 v=0
32482 On ch=4 n=50 v=0
32483 On ch=4 n=53 v=126
32514 On ch=4 n=59 v=123
32515 On ch=4 n=50 v=117
32518 On ch=4 n=62 v=0
32543 On ch=4 n=47 v=103
32545 On ch=4 n=55 v=83
32545 On ch=4 n=57 v=91
32545 On ch=4 n=59 v=0
32551 On ch=4 n=50 v=0
32566 On ch=4 n=55 v=0
32566 On ch=4 n=57 v=0
32574 On ch=4 n=59 v=120
32576 On ch=4 n=43 v=93
32579 On ch=4 n=47 v=0
32586 Par ch=4 c=64 v=127
32603 On ch=4 n=62 v=96
32603 On ch=4 n=59 v=0
32615 On ch=4 n=53 v=0
32619 On ch=4 n=62 v=0
32620 On ch=4 n=43 v=0
32633 Par ch=4 c=64 v=0
32635 On ch=4 n=50 v=127
32762 On ch=4 n=69 v=127
32788 On ch=4 n=71 v=106
32791 On ch=4 n=69 v=0
32817 On ch=4 n=69 v=126
32822 On ch=4 n=71 v=0
32836 Par ch=4 c=64 v=127
32842 On ch=4 n=66 v=100
32843 On ch=4 n=69 v=0
32873 Par ch=4 c=64 v=0
32874 On ch=4 n=72 v=123
32874 On ch=4 n=50 v=0
32875 On ch=4 n=66 v=0
32876 On ch=4 n=60 v=100
32876 On ch=4 n=48 v=106
32920 Par ch=4 c=64 v=127
32926 On ch=4 n=60 v=0
32932 On ch=4 n=72 v=0
32969 On ch=4 n=48 v=0
32993 On ch=4 n=79 v=103
32994 On ch=4 n=74 v=123
33014 On ch=4 n=74 v=0
33024 On ch=4 n=76 v=120
33030 On ch=4 n=79 v=0
33050 On ch=4 n=76 v=0
33054 On ch=4 n=74 v=120
33064 On ch=4 n=74 v=0
33079 On ch=4 n=52 v=98
33086 On ch=4 n=54 v=92
33088 On ch=4 n=69 v=111
33093 On ch=4 n=69 v=0
33096 On ch=4 n=52 v=0
33108 On ch=4 n=54 v=0
33109 On ch=4 n=70 v=127
33111 On ch=4 n=55 v=126
33114 Par ch=4 c=64 v=0
33115 On ch=4 n=71 v=103
33120 On ch=4 n=70 v=0
33170 On ch=4 n=69 v=127
33175 On ch=4 n=71 v=0
33234 On ch=4 n=43 v=127
33235 On ch=4 n=67 v=106
33236 On ch=4 n=69 v=0
33249 Par ch=4 c=64 v=127
33276 On ch=4 n=67 v=0
33288 On ch=4 n=43 v=0
33295 On ch=4 n=62 v=85
33318 On ch=4 n=62 v=0
33323 On ch=4 n=55 v=0
33324 On ch=4 n=43 v=93
33326 On ch=4 n=64 v=103
33338 On ch=4 n=64 v=0
33352 On ch=4 n=43 v=0
33355 On ch=4 n=45 v=91
33359 Par ch=4 c=64 v=0
33385 On ch=4 n=47 v=106
33391 On ch=4 n=45 v=0
33415 On ch=4 n=50 v=80
33416 On ch=4 n=47 v=0
33443 On ch=4 n=69 v=113
33444 On ch=4 n=65 v=120
33444 On ch=4 n=53 v=127
33444 On ch=4 n=60 v=123
33444 On ch=4 n=50 v=0
33481 Par ch=4 c=64 v=127
33499 On ch=4 n=65 v=0
33500 On ch=4 n=60 v=0
33504 On ch=4 n=69 v=0
33506 On ch=4 n=50 v=113
33513 On ch=4 n=53 v=0
33532 On ch=4 n=53 v=126
33533 On ch=4 n=50 v=0
33534 On ch=4 n=60 v=103
33534 On ch=4 n=69 v=98
33534 On ch=4 n=65 v=120
33541 On ch=4 n=60 v=0
33544 On ch=4 n=65 v=0
33547 On ch=4 n=69 v=0
33567 On ch=4 n=53 v=0
33587 Par ch=4 c=64 v=0
33593 On ch=4 n=50 v=120
33594 On ch=4 n=69 v=117
33660 On ch=4 n=78 v=107
33719 On ch=4 n=74 v=91
33730 Par ch=4 c=64 v=127
33754 On ch=4 n=69 v=0
33774 On ch=4 n=78 v=0
33778 On ch=4 n=74 v=0
33779 On ch=4 n=69 v=98
33825 On ch=4 n=50 v=0
33840 Par ch=4 c=64 v=0
33894 On ch=4 n=76 v=108
33953 On ch=4 n=73 v=100
33963 Par ch=4 c=64 v=127
33965 On ch=4 n=76 v=0
33982 On ch=4 n=69 v=0
34011 On ch=4 n=73 v=0
34013 On ch=4 n=69 v=91
34068 On ch=4 n=69 v=0
34074 On ch=4 n=79 v=100
34081 Par ch=4 c=64 v=0
34132 On ch=4 n=76 v=78
34135 Par ch=4 c=64 v=127
34152 On ch=4 n=79 v=0
34189 On ch=4 n=76 v=0
34190 On ch=4 n=72 v=106
34195 Par ch=4 c=64 v=0
34253 On ch=4 n=67 v=83
34313 On ch=4 n=79 v=117
34316 On ch=4 n=72 v=0
34319 On ch=4 n=67 v=0
34374 On ch=4 n=74 v=108
34433 On ch=4 n=71 v=86
34493 On ch=4 n=67 v=80
34499 Par ch=4 c=64 v=127
34513 On ch=4 n=71 v=0
34549 On ch=4 n=67 v=0
34550 On ch=4 n=74 v=0
34551 On ch=4 n=79 v=0
34554 Par ch=4 c=64 v=0
34560 On ch=4 n=62 v=113
34803 On ch=4 n=62 v=0
35037 On ch=4 n=43 v=127
35039 On ch=4 n=55 v=127
35398 Par ch=4 c=64 v=127
35413 On ch=4 n=55 v=0
35421 On ch=4 n=43 v=0
35508 Par ch=4 c=64 v=0
35510 On ch=4 n=38 v=127
35512 On ch=4 n=50 v=127
35888 Par ch=4 c=64 v=127
35904 On ch=4 n=38 v=0
35911 On ch=4 n=50 v=0
35993 Par ch=4 c=64 v=0
35995 On ch=4 n=43 v=120
35997 On ch=4 n=55 v=127
36465 On ch=4 n=43 v=0
36467 On ch=4 n=55 v=0
36690 On ch=4 n=47 v=48
36691 On ch=4 n=48 v=89
36693 On ch=4 n=52 v=75
36693 On ch=4 n=50 v=51
36696 On ch=4 n=47 v=0
36697 On ch=4 n=53 v=66
36700 On ch=4 n=55 v=111
36700 On ch=4 n=48 v=0
36702 On ch=4 n=57 v=126
36703 On ch=4 n=50 v=0
36704 On ch=4 n=59 v=127
36705 On ch=4 n=52 v=0
36707 On ch=4 n=60 v=127
36707 On ch=4 n=53 v=0
36709 On ch=4 n=62 v=127
36709 On ch=4 n=55 v=0
36710 On ch=4 n=72 v=63
36710 On ch=4 n=64 v=127
36710 On ch=4 n=76 v=123
36710 On ch=4 n=79 v=96
36710 On ch=4 n=57 v=0
36712 On ch=4 n=65 v=127
36712 On ch=4 n=59 v=0
36714 On ch=4 n=67 v=127
36714 On ch=4 n=60 v=0
36715 On ch=4 n=69 v=127
36716 On ch=4 n=62 v=0
36717 On ch=4 n=71 v=111
36717 On ch=4 n=69 v=0
36717 On ch=4 n=65 v=0
36717 On ch=4 n=64 v=0
36718 On ch=4 n=71 v=0
36719 On ch=4 n=67 v=0
36951 On ch=4 n=72 v=0
36951 On ch=4 n=76 v=0
36952 On ch=4 n=79 v=0
37574 Par ch=4 c=7 v=126
37588 Par ch=4 c=7 v=125
37601 Par ch=4 c=7 v=124
37611 Par ch=4 c=7 v=123
37629 Par ch=4 c=7 v=121
37631 Par ch=4 c=7 v=120
37641 Par ch=4 c=7 v=119
37641 Par ch=4 c=7 v=117
37668 Par ch=4 c=7 v=116
37673 Par ch=4 c=7 v=115
37680 Par ch=4 c=7 v=114
37690 Par ch=4 c=7 v=113
37699 Par ch=4 c=7 v=112
37714 Par ch=4 c=7 v=111
37724 Par ch=4 c=7 v=110
37750 Par ch=4 c=7 v=109
37765 Par ch=4 c=7 v=108
37770 Par ch=4 c=7 v=107
37785 Par ch=4 c=7 v=106
37800 Par ch=4 c=7 v=105
37814 Par ch=4 c=7 v=104
37828 Par ch=4 c=7 v=103
37837 Par ch=4 c=7 v=102
37846 Par ch=4 c=7 v=101
37856 Par ch=4 c=7 v=100
37866 Par ch=4 c=7 v=99
37874 Par ch=4 c=7 v=98
37883 Par ch=4 c=7 v=97
37893 Par ch=4 c=7 v=96
37903 Par ch=4 c=7 v=95
37913 Par ch=4 c=7 v=94
37920 Par ch=4 c=7 v=93
37927 Par ch=4 c=7 v=92
37946 Par ch=4 c=7 v=91
37956 Par ch=4 c=7 v=90
37971 Par ch=4 c=7 v=89
37976 Par ch=4 c=7 v=88
37990 Par ch=4 c=7 v=87
38000 Par ch=4 c=7 v=86
38017 Par ch=4 c=7 v=85
38025 Par ch=4 c=7 v=84
38038 Par ch=4 c=7 v=83
38050 Par ch=4 c=7 v=82
38059 Par ch=4 c=7 v=81
38080 Par ch=4 c=7 v=80
38085 Par ch=4 c=7 v=79
38111 Par ch=4 c=7 v=78
38156 Par ch=4 c=7 v=77
38175 Par ch=4 c=7 v=76
38190 Par ch=4 c=7 v=75
38195 Par ch=4 c=7 v=74
38203 Par ch=4 c=7 v=73
38216 Par ch=4 c=7 v=72
38233 Par ch=4 c=7 v=71
38242 Par ch=4 c=7 v=70
38269 Par ch=4 c=7 v=69
38300 Par ch=4 c=7 v=68
38320 Par ch=4 c=7 v=67
38340 Par ch=4 c=7 v=66
38347 Par ch=4 c=7 v=65
38359 Par ch=4 c=7 v=64
38371 Par ch=4 c=7 v=63
38390 Par ch=4 c=7 v=62
38400 On ch=4 n=62 v=113
38405 Par ch=4 c=7 v=61
38410 Par ch=4 c=7 v=60
38423 Par ch=4 c=7 v=59
38438 Par ch=4 c=7 v=58
38453 Par ch=4 c=7 v=57
38460 Par ch=4 c=7 v=56
38465 Par ch=4 c=7 v=55
38471 Par ch=4 c=7 v=54
38480 Par ch=4 c=7 v=53
38490 Par ch=4 c=7 v=52
38495 Par ch=4 c=7 v=51
38510 Par ch=4 c=7 v=50
38530 Par ch=4 c=7 v=49
38548 Par ch=4 c=7 v=48
38568 Par ch=4 c=7 v=47
38578 Par ch=4 c=7 v=46
38591 Par ch=4 c=7 v=45
38618 Par ch=4 c=7 v=44
38632 Par ch=4 c=7 v=43
38641 Par ch=4 c=7 v=42
38643 Par ch=4 c=7 v=41
38643 On ch=4 n=62 v=0
38656 Par ch=4 c=7 v=40
38679 Par ch=4 c=7 v=39
38689 Par ch=4 c=7 v=38
38695 Par ch=4 c=7 v=37
38705 Par ch=4 c=7 v=36
38719 Par ch=4 c=7 v=35
38730 Par ch=4 c=7 v=34
38740 Par ch=4 c=7 v=33
38757 Par ch=4 c=7 v=32
38783 Par ch=4 c=7 v=31
38796 Par ch=4 c=7 v=30
38811 Par ch=4 c=7 v=29
38825 Par ch=4 c=7 v=28
38832 Par ch=4 c=7 v=27
38847 Par ch=4 c=7 v=26
38865 Par ch=4 c=7 v=25
38877 On ch=4 n=43 v=127
38879 On ch=4 n=55 v=127
38886 Par ch=4 c=7 v=24
38894 Par ch=4 c=7 v=23
38922 Par ch=4 c=7 v=22
38940 Par ch=4 c=7 v=21
38955 Par ch=4 c=7 v=20
38969 Par ch=4 c=7 v=19
38974 Par ch=4 c=7 v=18
38989 Par ch=4 c=7 v=17
39000 Par ch=4 c=7 v=16
39016 Par ch=4 c=7 v=15
39030 Par ch=4 c=7 v=14
39035 Par ch=4 c=7 v=13
39049 Par ch=4 c=7 v=12
39069 Par ch=4 c=7 v=11
39084 Par ch=4 c=7 v=10
39098 Par ch=4 c=7 v=9
39103 Par ch=4 c=7 v=8
39121 Par ch=4 c=7 v=7
39139 Par ch=4 c=7 v=6
39161 Par ch=4 c=7 v=5
39165 Par ch=4 c=7 v=4
39184 Par ch=4 c=7 v=3
39199 Par ch=4 c=7 v=2
39226 Par ch=4 c=7 v=1
39238 Par ch=4 c=64 v=127
39246 Par ch=4 c=7 v=0
39253 On ch=4 n=55 v=0
39261 On ch=4 n=43 v=0
39348 Par ch=4 c=64 v=0
39350 On ch=4 n=38 v=127
39352 On ch=4 n=50 v=127
39744 On ch=4 n=38 v=0
39751 On ch=4 n=50 v=0
39751 Meta TrkEnd
TrkEnd
MTrk
0 Meta 0x21 00
0 Meta TrkName "Saw Wave"
0 PrCh ch=7 p=81
0 Par ch=7 c=7 v=110
5763 On ch=7 n=31 v=100
9120 On ch=7 n=33 v=66
9124 On ch=7 n=31 v=0
10551 On ch=7 n=33 v=0
12480 On ch=7 n=38 v=103
12710 On ch=7 n=36 v=93
12713 On ch=7 n=38 v=0
12952 On ch=7 n=31 v=108
12956 On ch=7 n=36 v=0
13171 On ch=7 n=31 v=0
13434 On ch=7 n=38 v=110
13678 On ch=7 n=36 v=110
13679 On ch=7 n=38 v=0
13917 On ch=7 n=36 v=0
13920 On ch=7 n=31 v=115
14086 On ch=7 n=31 v=0
14400 On ch=7 n=38 v=103
14640 On ch=7 n=36 v=96
14644 On ch=7 n=38 v=0
14880 On ch=7 n=31 v=106
14886 On ch=7 n=36 v=0
15107 On ch=7 n=31 v=0
15360 On ch=7 n=38 v=100
15600 On ch=7 n=36 v=93
15601 On ch=7 n=38 v=0
15840 On ch=7 n=31 v=113
15843 On ch=7 n=36 v=0
16022 On ch=7 n=31 v=0
16320 On ch=7 n=38 v=100
16559 On ch=7 n=38 v=0
16560 On ch=7 n=36 v=108
16800 On ch=7 n=31 v=117
16805 On ch=7 n=36 v=0
17025 On ch=7 n=31 v=0
17280 On ch=7 n=38 v=111
17520 On ch=7 n=36 v=103
17524 On ch=7 n=38 v=0
17760 On ch=7 n=31 v=106
17763 On ch=7 n=36 v=0
17997 On ch=7 n=31 v=0
18240 On ch=7 n=38 v=86
18480 On ch=7 n=36 v=75
18480 On ch=7 n=38 v=0
18704 On ch=7 n=36 v=0
18724 On ch=7 n=31 v=106
18946 On ch=7 n=31 v=0
19192 On ch=7 n=38 v=98
19435 On ch=7 n=36 v=86
19438 On ch=7 n=38 v=0
19674 On ch=7 n=31 v=91
19675 On ch=7 n=36 v=0
19909 On ch=7 n=31 v=0
20155 On ch=7 n=38 v=98
20392 On ch=7 n=36 v=85
20395 On ch=7 n=38 v=0
20632 On ch=7 n=31 v=85
20635 On ch=7 n=36 v=0
20872 On ch=7 n=31 v=0
21115 On ch=7 n=26 v=89
21234 On ch=7 n=26 v=0
22076 On ch=7 n=26 v=117
22554 On ch=7 n=31 v=98
22555 On ch=7 n=26 v=0
23032 On ch=7 n=26 v=108
23035 On ch=7 n=31 v=0
23518 On ch=7 n=31 v=93
23519 On ch=7 n=26 v=0
23995 On ch=7 n=26 v=108
23995 On ch=7 n=31 v=0
24476 On ch=7 n=31 v=100
24477 On ch=7 n=26 v=0
24955 On ch=7 n=26 v=100
24955 On ch=7 n=31 v=0
25436 On ch=7 n=31 v=89
25439 On ch=7 n=26 v=0
25922 On ch=7 n=31 v=0
26880 On ch=7 n=38 v=103
27120 On ch=7 n=36 v=96
27124 On ch=7 n=38 v=0
27360 On ch=7 n=31 v=106
27366 On ch=7 n=36 v=0
27587 On ch=7 n=31 v=0
27840 On ch=7 n=38 v=100
28080 On ch=7 n=36 v=93
28081 On ch=7 n=38 v=0
28320 On ch=7 n=31 v=113
28323 On ch=7 n=36 v=0
28502 On ch=7 n=31 v=0
28800 On ch=7 n=38 v=100
29039 On ch=7 n=38 v=0
29040 On ch=7 n=36 v=108
29280 On ch=7 n=31 v=117
29285 On ch=7 n=36 v=0
29505 On ch=7 n=31 v=0
29760 On ch=7 n=38 v=111
30000 On ch=7 n=36 v=103
30004 On ch=7 n=38 v=0
30240 On ch=7 n=31 v=106
30243 On ch=7 n=36 v=0
30477 On ch=7 n=31 v=0
30720 On ch=7 n=38 v=86
30960 On ch=7 n=36 v=75
30960 On ch=7 n=38 v=0
31184 On ch=7 n=36 v=0
31195 On ch=7 n=31 v=108
31430 On ch=7 n=31 v=0
31672 On ch=7 n=38 v=75
31910 On ch=7 n=36 v=89
31916 On ch=7 n=38 v=0
32152 On ch=7 n=31 v=89
32157 On ch=7 n=36 v=0
32374 On ch=7 n=31 v=0
32633 On ch=7 n=38 v=91
32876 On ch=7 n=36 v=96
32879 On ch=7 n=38 v=0
33112 On ch=7 n=31 v=111
33117 On ch=7 n=36 v=0
33294 On ch=7 n=31 v=0
33590 On ch=7 n=26 v=93
33886 On ch=7 n=26 v=0
34555 On ch=7 n=26 v=127
35034 On ch=7 n=31 v=100
35037 On ch=7 n=26 v=0
35518 On ch=7 n=26 v=113
35519 On ch=7 n=31 v=0
35995 On ch=7 n=31 v=93
35996 On ch=7 n=26 v=0
36477 On ch=7 n=26 v=120
36478 On ch=7 n=31 v=0
36955 On ch=7 n=31 v=98
36960 On ch=7 n=26 v=0
37435 On ch=7 n=26 v=106
37436 On ch=7 n=31 v=0
37916 On ch=7 n=31 v=82
37916 Par ch=7 c=7 v=109
37922 Par ch=7 c=7 v=108
37922 On ch=7 n=26 v=0
37937 Par ch=7 c=7 v=107
37971 Par ch=7 c=7 v=106
37985 Par ch=7 c=7 v=105
38005 Par ch=7 c=7 v=104
38010 Par ch=7 c=7 v=103
38017 Par ch=7 c=7 v=102
38030 Par ch=7 c=7 v=101
38054 Par ch=7 c=7 v=100
38070 Par ch=7 c=7 v=99
38080 Par ch=7 c=7 v=98
38200 Par ch=7 c=7 v=97
38259 Par ch=7 c=7 v=96
38264 Par ch=7 c=7 v=95
38264 Par ch=7 c=7 v=94
38269 Par ch=7 c=7 v=93
38289 Par ch=7 c=7 v=92
38294 Par ch=7 c=7 v=91
38298 Par ch=7 c=7 v=90
38310 Par ch=7 c=7 v=89
38319 Par ch=7 c=7 v=88
38334 Par ch=7 c=7 v=87
38395 On ch=7 n=26 v=111
38398 On ch=7 n=31 v=0
38456 Par ch=7 c=7 v=83
38460 Par ch=7 c=7 v=82
38495 Par ch=7 c=7 v=81
38505 Par ch=7 c=7 v=80
38515 Par ch=7 c=7 v=79
38530 Par ch=7 c=7 v=78
38541 Par ch=7 c=7 v=77
38553 Par ch=7 c=7 v=76
38563 Par ch=7 c=7 v=75
38568 Par ch=7 c=7 v=74
38590 Par ch=7 c=7 v=73
38601 Par ch=7 c=7 v=72
38606 Par ch=7 c=7 v=71
38614 Par ch=7 c=7 v=70
38627 Par ch=7 c=7 v=69
38643 Par ch=7 c=7 v=68
38648 Par ch=7 c=7 v=67
38656 Par ch=7 c=7 v=66
38664 Par ch=7 c=7 v=65
38674 Par ch=7 c=7 v=64
38679 Par ch=7 c=7 v=63
38689 Par ch=7 c=7 v=62
38705 Par ch=7 c=7 v=60
38717 Par ch=7 c=7 v=59
38725 Par ch=7 c=7 v=58
38740 Par ch=7 c=7 v=57
38747 Par ch=7 c=7 v=56
38752 Par ch=7 c=7 v=55
38760 Par ch=7 c=7 v=54
38763 Par ch=7 c=7 v=53
38768 Par ch=7 c=7 v=52
38776 Par ch=7 c=7 v=51
38776 Par ch=7 c=7 v=50
38783 Par ch=7 c=7 v=49
38790 Par ch=7 c=7 v=48
38796 Par ch=7 c=7 v=47
38801 Par ch=7 c=7 v=46
38811 Par ch=7 c=7 v=45
38816 Par ch=7 c=7 v=44
38825 Par ch=7 c=7 v=43
38830 Par ch=7 c=7 v=42
38834 Par ch=7 c=7 v=41
38837 Par ch=7 c=7 v=40
38852 Par ch=7 c=7 v=39
38865 Par ch=7 c=7 v=38
38868 On ch=7 n=31 v=86
38869 Par ch=7 c=7 v=37
38872 On ch=7 n=26 v=0
38880 Par ch=7 c=7 v=36
38891 Par ch=7 c=7 v=35
38899 Par ch=7 c=7 v=34
38907 Par ch=7 c=7 v=33
38917 Par ch=7 c=7 v=32
38922 Par ch=7 c=7 v=31
38932 Par ch=7 c=7 v=30
38940 Par ch=7 c=7 v=29
38945 Par ch=7 c=7 v=28
38951 Par ch=7 c=7 v=27
38960 Par ch=7 c=7 v=26
38969 Par ch=7 c=7 v=25
38979 Par ch=7 c=7 v=24
38989 Par ch=7 c=7 v=23
39000 Par ch=7 c=7 v=22
39011 Par ch=7 c=7 v=21
39025 Par ch=7 c=7 v=20
39042 Par ch=7 c=7 v=19
39044 Par ch=7 c=7 v=18
39060 Par ch=7 c=7 v=17
39073 Par ch=7 c=7 v=16
39084 Par ch=7 c=7 v=15
39098 Par ch=7 c=7 v=14
39098 Par ch=7 c=7 v=13
39110 Par ch=7 c=7 v=12
39119 Par ch=7 c=7 v=11
39127 Par ch=7 c=7 v=10
39133 Par ch=7 c=7 v=9
39139 Par ch=7 c=7 v=8
39149 Par ch=7 c=7 v=7
39154 Par ch=7 c=7 v=6
39170 Par ch=7 c=7 v=5
39170 Par ch=7 c=7 v=4
39184 Par ch=7 c=7 v=3
39193 Par ch=7 c=7 v=2
39208 Par ch=7 c=7 v=1
39213 Par ch=7 c=7 v=0
39305 On ch=7 n=31 v=0
39305 Meta TrkEnd
TrkEnd
MTrk
0 Meta 0x21 00
0 Meta TrkName "Acoustic Guitar"
0 PrCh ch=8 p=24
0 Par ch=8 c=7 v=127
12480 On ch=8 n=50 v=120
12599 Par ch=8 c=64 v=127
12615 On ch=8 n=50 v=0
12713 Par ch=8 c=64 v=0
12715 On ch=8 n=48 v=117
12744 On ch=8 n=55 v=85
12775 On ch=8 n=62 v=98
12807 On ch=8 n=67 v=126
12827 Par ch=8 c=64 v=127
12843 On ch=8 n=55 v=0
12855 On ch=8 n=67 v=0
12856 On ch=8 n=62 v=0
12868 On ch=8 n=55 v=75
12897 On ch=8 n=62 v=117
12900 On ch=8 n=55 v=0
12900 On ch=8 n=48 v=0
12917 On ch=8 n=62 v=0
12927 On ch=8 n=64 v=106
12944 On ch=8 n=64 v=0
12949 Par ch=8 c=64 v=0
12987 On ch=8 n=55 v=106
13017 On ch=8 n=62 v=113
13046 On ch=8 n=67 v=123
13055 Par ch=8 c=64 v=127
13064 On ch=8 n=55 v=0
13085 On ch=8 n=62 v=0
13088 On ch=8 n=67 v=0
13104 On ch=8 n=55 v=106
13119 On ch=8 n=55 v=0
13136 On ch=8 n=62 v=106
13154 On ch=8 n=62 v=0
13164 On ch=8 n=64 v=98
13174 On ch=8 n=64 v=0
13194 On ch=8 n=45 v=91
13195 Par ch=8 c=64 v=0
13225 On ch=8 n=47 v=106
13226 On ch=8 n=45 v=0
13253 On ch=8 n=50 v=98
13253 On ch=8 n=47 v=0
13282 On ch=8 n=50 v=0
13284 On ch=8 n=53 v=126
13348 On ch=8 n=50 v=108
13353 On ch=8 n=53 v=0
13377 On ch=8 n=53 v=127
13377 On ch=8 n=50 v=0
13435 On ch=8 n=53 v=0
13436 On ch=8 n=50 v=127
13566 Par ch=8 c=64 v=127
13583 On ch=8 n=50 v=0
13676 Par ch=8 c=64 v=0
13679 On ch=8 n=48 v=111
13710 On ch=8 n=55 v=75
13739 On ch=8 n=62 v=89
13769 On ch=8 n=67 v=127
13781 Par ch=8 c=64 v=127
13804 On ch=8 n=55 v=0
13809 On ch=8 n=67 v=0
13809 On ch=8 n=62 v=0
13830 On ch=8 n=55 v=106
13857 On ch=8 n=62 v=127
13884 On ch=8 n=64 v=108
13896 On ch=8 n=62 v=0
13904 Par ch=8 c=64 v=0
13906 On ch=8 n=64 v=0
13907 On ch=8 n=55 v=0
13909 On ch=8 n=48 v=0
13950 On ch=8 n=55 v=49
13976 On ch=8 n=62 v=66
14012 On ch=8 n=67 v=103
14034 Par ch=8 c=64 v=127
14051 On ch=8 n=67 v=0
14054 On ch=8 n=55 v=0
14055 On ch=8 n=62 v=0
14070 On ch=8 n=55 v=69
14100 On ch=8 n=62 v=89
14124 On ch=8 n=62 v=0
14129 On ch=8 n=64 v=80
14138 On ch=8 n=55 v=0
14139 On ch=8 n=64 v=0
14152 Par ch=8 c=64 v=0
14157 On ch=8 n=45 v=96
14184 On ch=8 n=47 v=78
14188 On ch=8 n=45 v=0
14216 On ch=8 n=50 v=71
14221 On ch=8 n=47 v=0
14245 On ch=8 n=50 v=0
14248 On ch=8 n=53 v=120
14306 On ch=8 n=50 v=91
14310 On ch=8 n=53 v=0
14332 On ch=8 n=50 v=0
14334 On ch=8 n=53 v=113
14393 On ch=8 n=50 v=120
14393 On ch=8 n=53 v=0
14457 On ch=8 n=57 v=93
14517 On ch=8 n=62 v=108
14577 On ch=8 n=66 v=100
14583 Par ch=8 c=64 v=127
14600 On ch=8 n=66 v=0
14601 On ch=8 n=62 v=0
14602 On ch=8 n=50 v=0
14608 On ch=8 n=57 v=0
14637 On ch=8 n=48 v=113
14637 Par ch=8 c=64 v=0
14665 On ch=8 n=55 v=65
14694 On ch=8 n=62 v=86
14728 On ch=8 n=67 v=96
14764 Par ch=8 c=64 v=127
14772 On ch=8 n=55 v=0
14778 On ch=8 n=62 v=0
14788 On ch=8 n=55 v=70
14797 On ch=8 n=67 v=0
14817 On ch=8 n=62 v=96
14845 On ch=8 n=64 v=123
14852 On ch=8 n=62 v=0
14856 On ch=8 n=48 v=0
14865 Par ch=8 c=64 v=0
14867 On ch=8 n=64 v=0
14869 On ch=8 n=55 v=0
14903 On ch=8 n=55 v=78
14931 On ch=8 n=62 v=106
14964 On ch=8 n=67 v=111
14992 Par ch=8 c=64 v=127
15009 On ch=8 n=62 v=0
15010 On ch=8 n=55 v=0
15011 On ch=8 n=67 v=0
15029 On ch=8 n=55 v=64
15059 On ch=8 n=62 v=103
15068 Par ch=8 c=64 v=0
15081 Par ch=8 c=64 v=127
15086 On ch=8 n=62 v=0
15088 On ch=8 n=64 v=117
15098 On ch=8 n=55 v=0
15102 On ch=8 n=64 v=0
15114 On ch=8 n=45 v=106
15115 Par ch=8 c=64 v=0
15144 On ch=8 n=47 v=103
15144 On ch=8 n=45 v=0
15175 On ch=8 n=50 v=77
15177 On ch=8 n=47 v=0
15203 On ch=8 n=50 v=0
15206 On ch=8 n=53 v=120
15267 On ch=8 n=50 v=80
15275 On ch=8 n=53 v=0
15296 On ch=8 n=53 v=108
15296 On ch=8 n=50 v=0
15357 On ch=8 n=50 v=117
15359 On ch=8 n=53 v=0
15417 On ch=8 n=57 v=91
15479 On ch=8 n=62 v=111
15535 On ch=8 n=64 v=120
15539 On ch=8 n=62 v=0
15541 Par ch=8 c=64 v=127
15567 On ch=8 n=64 v=0
15571 On ch=8 n=57 v=0
15580 On ch=8 n=50 v=0
15596 Par ch=8 c=64 v=0
15597 On ch=8 n=48 v=111
15626 On ch=8 n=55 v=65
15655 On ch=8 n=62 v=98
15687 On ch=8 n=67 v=106
15727 Par ch=8 c=64 v=127
15738 On ch=8 n=55 v=0
15742 On ch=8 n=62 v=0
15743 On ch=8 n=67 v=0
15750 On ch=8 n=55 v=67
15778 On ch=8 n=62 v=91
15780 On ch=8 n=48 v=0
15805 On ch=8 n=62 v=0
15808 On ch=8 n=64 v=111
15832 On ch=8 n=64 v=0
15834 On ch=8 n=55 v=0
15836 Par ch=8 c=64 v=0
15866 On ch=8 n=55 v=75
15896 On ch=8 n=62 v=80
15928 On ch=8 n=64 v=120
15963 Par ch=8 c=64 v=127
15965 On ch=8 n=62 v=0
15970 On ch=8 n=55 v=0
15974 On ch=8 n=64 v=0
15987 On ch=8 n=55 v=58
16019 On ch=8 n=62 v=91
16026 Par ch=8 c=64 v=0
16043 Par ch=8 c=64 v=127
16047 On ch=8 n=64 v=96
16049 On ch=8 n=62 v=0
16061 On ch=8 n=55 v=0
16066 On ch=8 n=64 v=0
16076 On ch=8 n=45 v=89
16081 Par ch=8 c=64 v=0
16103 On ch=8 n=47 v=96
16105 On ch=8 n=45 v=0
16133 On ch=8 n=50 v=72
16135 On ch=8 n=47 v=0
16164 On ch=8 n=50 v=0
16165 On ch=8 n=53 v=117
16228 On ch=8 n=50 v=93
16234 On ch=8 n=53 v=0
16256 On ch=8 n=50 v=0
16257 On ch=8 n=53 v=120
16280 Par ch=8 c=64 v=127
16317 Par ch=8 c=64 v=0
16317 On ch=8 n=53 v=0
16319 On ch=8 n=50 v=111
16377 On ch=8 n=57 v=75
16439 On ch=8 n=62 v=106
16495 On ch=8 n=67 v=98
16512 Par ch=8 c=64 v=127
16524 On ch=8 n=67 v=0
16527 On ch=8 n=62 v=0
16529 On ch=8 n=57 v=0
16530 On ch=8 n=50 v=0
16557 On ch=8 n=48 v=111
16562 Par ch=8 c=64 v=0
16587 On ch=8 n=55 v=67
16617 On ch=8 n=62 v=89
16651 On ch=8 n=67 v=111
16676 Par ch=8 c=64 v=127
16690 On ch=8 n=55 v=0
16703 On ch=8 n=62 v=0
16704 On ch=8 n=67 v=0
16709 On ch=8 n=55 v=75
16740 On ch=8 n=62 v=103
16768 On ch=8 n=64 v=103
16771 On ch=8 n=48 v=0
16775 On ch=8 n=62 v=0
16792 On ch=8 n=64 v=0
16793 On ch=8 n=55 v=0
16795 Par ch=8 c=64 v=0
16828 On ch=8 n=55 v=70
16855 On ch=8 n=62 v=89
16887 On ch=8 n=67 v=100
16913 Par ch=8 c=64 v=127
16923 On ch=8 n=55 v=0
16930 On ch=8 n=62 v=0
16931 On ch=8 n=67 v=0
16949 On ch=8 n=55 v=70
16977 On ch=8 n=62 v=91
17006 On ch=8 n=64 v=117
17013 On ch=8 n=62 v=0
17026 Par ch=8 c=64 v=0
17030 On ch=8 n=55 v=0
17031 On ch=8 n=64 v=0
17127 On ch=8 n=53 v=123
17190 On ch=8 n=50 v=89
17198 On ch=8 n=53 v=0
17217 On ch=8 n=53 v=120
17218 On ch=8 n=50 v=0
17234 Par ch=8 c=64 v=127
17277 On ch=8 n=53 v=0
17278 On ch=8 n=50 v=126
17281 Par ch=8 c=64 v=0
17337 On ch=8 n=57 v=85
17398 On ch=8 n=62 v=106
17455 On ch=8 n=66 v=104
17470 Par ch=8 c=64 v=127
17493 On ch=8 n=66 v=0
17495 On ch=8 n=62 v=0
17499 On ch=8 n=57 v=0
17510 On ch=8 n=50 v=0
17516 Par ch=8 c=64 v=0
17517 On ch=8 n=48 v=117
17545 On ch=8 n=55 v=77
17575 On ch=8 n=62 v=98
17607 On ch=8 n=67 v=120
17651 Par ch=8 c=64 v=127
17651 On ch=8 n=55 v=0
17655 On ch=8 n=67 v=0
17664 On ch=8 n=62 v=0
17670 On ch=8 n=55 v=72
17699 On ch=8 n=62 v=91
17704 On ch=8 n=48 v=0
17726 On ch=8 n=64 v=117
17732 On ch=8 n=62 v=0
17742 On ch=8 n=55 v=0
17747 On ch=8 n=64 v=0
17753 Par ch=8 c=64 v=0
17785 On ch=8 n=55 v=70
17812 On ch=8 n=62 v=98
17846 On ch=8 n=64 v=123
17871 Par ch=8 c=64 v=127
17881 On ch=8 n=55 v=0
17883 On ch=8 n=64 v=0
17886 On ch=8 n=62 v=0
17908 On ch=8 n=55 v=85
17939 On ch=8 n=62 v=93
17951 Par ch=8 c=64 v=0
17967 On ch=8 n=64 v=117
17972 On ch=8 n=62 v=0
17995 On ch=8 n=64 v=0
17997 On ch=8 n=45 v=117
17999 On ch=8 n=55 v=0
18025 On ch=8 n=47 v=111
18028 On ch=8 n=45 v=0
18054 On ch=8 n=50 v=85
18055 On ch=8 n=47 v=0
18085 On ch=8 n=50 v=0
18086 On ch=8 n=53 v=126
18149 On ch=8 n=50 v=91
18155 On ch=8 n=53 v=0
18175 On ch=8 n=50 v=0
18176 On ch=8 n=53 v=127
18235 On ch=8 n=50 v=127
18238 On ch=8 n=53 v=0
18298 On ch=8 n=57 v=86
18359 On ch=8 n=62 v=117
18418 On ch=8 n=66 v=111
18432 Par ch=8 c=64 v=127
18457 On ch=8 n=66 v=0
18462 On ch=8 n=62 v=0
18466 On ch=8 n=57 v=0
18475 On ch=8 n=50 v=0
18479 Par ch=8 c=64 v=0
18479 On ch=8 n=48 v=120
18508 On ch=8 n=55 v=72
18537 On ch=8 n=62 v=103
18570 On ch=8 n=67 v=117
18593 Par ch=8 c=64 v=127
18607 On ch=8 n=55 v=0
18609 On ch=8 n=67 v=0
18612 On ch=8 n=62 v=0
18629 On ch=8 n=55 v=86
18659 On ch=8 n=62 v=103
18686 On ch=8 n=64 v=117
18700 On ch=8 n=62 v=0
18709 On ch=8 n=64 v=0
18710 On ch=8 n=55 v=0
18711 Par ch=8 c=64 v=0
18714 On ch=8 n=48 v=0
18752 On ch=8 n=55 v=86
18781 On ch=8 n=62 v=106
18813 On ch=8 n=64 v=127
18838 Par ch=8 c=64 v=127
18853 On ch=8 n=62 v=0
18853 On ch=8 n=55 v=0
18854 On ch=8 n=64 v=0
18870 On ch=8 n=55 v=108
18897 On ch=8 n=62 v=103
18906 Par ch=8 c=64 v=0
18923 Par ch=8 c=64 v=127
18926 On ch=8 n=64 v=120
18926 On ch=8 n=62 v=0
18943 On ch=8 n=64 v=0
18943 On ch=8 n=55 v=0
18954 On ch=8 n=45 v=111
18957 Par ch=8 c=64 v=0
18984 On ch=8 n=47 v=113
18989 On ch=8 n=45 v=0
19013 On ch=8 n=50 v=98
19014 On ch=8 n=47 v=0
19044 On ch=8 n=50 v=0
19045 On ch=8 n=53 v=127
19104 On ch=8 n=50 v=117
19109 On ch=8 n=53 v=0
19131 On ch=8 n=50 v=0
19132 On ch=8 n=53 v=127
19195 On ch=8 n=53 v=0
19196 On ch=8 n=50 v=127
19255 On ch=8 n=57 v=100
19313 On ch=8 n=62 v=120
19374 On ch=8 n=66 v=125
19379 Par ch=8 c=64 v=127
19402 On ch=8 n=66 v=0
19403 On ch=8 n=50 v=0
19404 On ch=8 n=62 v=0
19409 On ch=8 n=57 v=0
19437 On ch=8 n=48 v=120
19438 Par ch=8 c=64 v=0
19465 On ch=8 n=55 v=77
19494 On ch=8 n=62 v=100
19526 On ch=8 n=67 v=120
19543 Par ch=8 c=64 v=127
19563 On ch=8 n=55 v=0
19569 On ch=8 n=67 v=0
19570 On ch=8 n=62 v=0
19584 On ch=8 n=55 v=85
19614 On ch=8 n=62 v=93
19618 On ch=8 n=48 v=0
19638 On ch=8 n=62 v=0
19644 On ch=8 n=64 v=113
19651 On ch=8 n=55 v=0
19657 On ch=8 n=64 v=0
19678 Par ch=8 c=64 v=0
19704 On ch=8 n=55 v=103
19733 On ch=8 n=62 v=117
19763 On ch=8 n=64 v=117
19775 Par ch=8 c=64 v=127
19798 On ch=8 n=55 v=0
19803 On ch=8 n=62 v=0
19812 On ch=8 n=64 v=0
19826 On ch=8 n=55 v=106
19846 On ch=8 n=55 v=0
19855 On ch=8 n=62 v=103
19873 On ch=8 n=62 v=0
19883 On ch=8 n=64 v=103
19892 On ch=8 n=64 v=0
19911 Par ch=8 c=64 v=0
19911 On ch=8 n=45 v=111
19939 On ch=8 n=47 v=91
19939 On ch=8 n=45 v=0
19969 On ch=8 n=50 v=93
19972 On ch=8 n=47 v=0
20001 On ch=8 n=50 v=0
20003 On ch=8 n=53 v=127
20068 On ch=8 n=50 v=86
20075 On ch=8 n=53 v=0
20094 On ch=8 n=53 v=123
20094 On ch=8 n=50 v=0
20154 On ch=8 n=53 v=0
20157 On ch=8 n=50 v=127
20218 On ch=8 n=57 v=91
20273 On ch=8 n=62 v=113
20295 Par ch=8 c=64 v=127
20335 On ch=8 n=66 v=115
20343 On ch=8 n=62 v=0
20344 On ch=8 n=50 v=0
20368 On ch=8 n=57 v=0
20368 On ch=8 n=66 v=0
20396 Par ch=8 c=64 v=0
20398 On ch=8 n=48 v=113
20426 On ch=8 n=55 v=86
20454 On ch=8 n=62 v=96
20487 On ch=8 n=64 v=127
20495 On ch=8 n=62 v=0
20506 Par ch=8 c=64 v=127
20525 On ch=8 n=64 v=0
20525 On ch=8 n=55 v=0
20545 On ch=8 n=55 v=82
20574 On ch=8 n=48 v=0
20576 On ch=8 n=62 v=86
20595 On ch=8 n=55 v=0
20597 On ch=8 n=62 v=0
20602 On ch=8 n=64 v=103
20619 On ch=8 n=64 v=0
20632 Par ch=8 c=64 v=0
20665 On ch=8 n=55 v=98
20695 On ch=8 n=62 v=103
20725 On ch=8 n=64 v=126
20738 Par ch=8 c=64 v=127
20756 On ch=8 n=55 v=0
20758 On ch=8 n=62 v=0
20767 On ch=8 n=64 v=0
20787 On ch=8 n=55 v=106
20797 On ch=8 n=55 v=0
20815 On ch=8 n=62 v=80
20835 On ch=8 n=62 v=0
20846 On ch=8 n=64 v=113
20857 On ch=8 n=64 v=0
20874 On ch=8 n=45 v=113
20877 Par ch=8 c=64 v=0
20902 On ch=8 n=45 v=0
20903 On ch=8 n=47 v=100
20931 On ch=8 n=50 v=80
20938 On ch=8 n=47 v=0
20961 On ch=8 n=53 v=117
20961 On ch=8 n=50 v=0
21030 On ch=8 n=50 v=80
21038 On ch=8 n=53 v=0
21059 On ch=8 n=53 v=108
21060 On ch=8 n=50 v=0
21117 On ch=8 n=50 v=93
21117 On ch=8 n=53 v=0
21182 On ch=8 n=62 v=106
21240 On ch=8 n=66 v=104
21257 Par ch=8 c=64 v=127
21277 On ch=8 n=50 v=0
21287 On ch=8 n=66 v=0
21293 On ch=8 n=62 v=0
21296 On ch=8 n=69 v=108
21312 On ch=8 n=69 v=0
21356 On ch=8 n=50 v=103
21358 Par ch=8 c=64 v=0
21385 On ch=8 n=61 v=79
21409 Par ch=8 c=64 v=127
21416 On ch=8 n=64 v=89
21434 On ch=8 n=50 v=0
21444 On ch=8 n=71 v=117
21447 On ch=8 n=61 v=0
21457 On ch=8 n=64 v=0
21466 On ch=8 n=71 v=0
21473 On ch=8 n=50 v=91
21503 On ch=8 n=61 v=71
21522 On ch=8 n=61 v=0
21532 On ch=8 n=64 v=108
21532 On ch=8 n=50 v=0
21551 On ch=8 n=64 v=0
21562 On ch=8 n=69 v=96
21592 On ch=8 n=50 v=106
21595 Par ch=8 c=64 v=0
21608 On ch=8 n=69 v=0
21624 On ch=8 n=60 v=80
21629 Par ch=8 c=64 v=127
21653 On ch=8 n=64 v=89
21662 On ch=8 n=50 v=0
21679 On ch=8 n=64 v=0
21686 On ch=8 n=67 v=91
21687 On ch=8 n=64 v=32
21694 On ch=8 n=64 v=0
21709 On ch=8 n=60 v=0
21713 On ch=8 n=50 v=91
21714 On ch=8 n=67 v=0
21729 On ch=8 n=50 v=0
21746 On ch=8 n=60 v=66
21776 On ch=8 n=64 v=96
21795 On ch=8 n=60 v=0
21797 On ch=8 n=64 v=0
21806 On ch=8 n=67 v=96
21824 On ch=8 n=67 v=0
21836 On ch=8 n=50 v=103
21844 Par ch=8 c=64 v=0
21865 On ch=8 n=59 v=70
21874 Par ch=8 c=64 v=127
21895 On ch=8 n=62 v=89
21905 On ch=8 n=50 v=0
21926 On ch=8 n=69 v=108
21935 On ch=8 n=62 v=0
21935 On ch=8 n=59 v=0
21948 On ch=8 n=69 v=0
21955 On ch=8 n=50 v=89
21986 On ch=8 n=59 v=82
22000 On ch=8 n=50 v=0
22018 On ch=8 n=62 v=98
22022 On ch=8 n=59 v=0
22036 On ch=8 n=62 v=0
22049 On ch=8 n=67 v=111
22064 On ch=8 n=67 v=0
22072 Par ch=8 c=64 v=0
22140 On ch=8 n=50 v=111
22200 On ch=8 n=62 v=127
22200 On ch=8 n=66 v=127
22200 On ch=8 n=57 v=117
22211 Par ch=8 c=64 v=127
22257 On ch=8 n=57 v=0
22257 On ch=8 n=62 v=0
22258 On ch=8 n=66 v=0
22265 On ch=8 n=50 v=0
22308 Par ch=8 c=64 v=0
22320 On ch=8 n=67 v=113
22320 On ch=8 n=62 v=126
22320 On ch=8 n=50 v=89
22320 On ch=8 n=57 v=106
22375 On ch=8 n=67 v=0
22380 On ch=8 n=66 v=122
22405 Par ch=8 c=64 v=127
22427 On ch=8 n=66 v=0
22440 On ch=8 n=64 v=120
22456 On ch=8 n=62 v=0
22460 On ch=8 n=57 v=0
22463 On ch=8 n=50 v=0
22470 On ch=8 n=64 v=0
22500 On ch=8 n=66 v=127
22517 On ch=8 n=66 v=0
22541 Par ch=8 c=64 v=0
22560 On ch=8 n=43 v=85
22560 On ch=8 n=47 v=108
22560 On ch=8 n=50 v=103
22566 Par ch=8 c=64 v=127
22587 On ch=8 n=50 v=0
22587 On ch=8 n=47 v=0
22592 On ch=8 n=43 v=0
22620 On ch=8 n=43 v=62
22620 On ch=8 n=47 v=98
22620 On ch=8 n=50 v=91
22648 On ch=8 n=50 v=0
22648 On ch=8 n=47 v=0
22649 On ch=8 n=43 v=0
22680 On ch=8 n=67 v=120
22680 On ch=8 n=62 v=127
22680 On ch=8 n=55 v=103
22680 Par ch=8 c=64 v=0
22705 Par ch=8 c=64 v=127
22724 On ch=8 n=62 v=0
22724 On ch=8 n=67 v=0
22729 On ch=8 n=55 v=0
22740 On ch=8 n=55 v=75
22740 On ch=8 n=67 v=91
22740 On ch=8 n=62 v=103
22755 On ch=8 n=55 v=0
22756 On ch=8 n=62 v=0
22757 On ch=8 n=67 v=0
22794 Par ch=8 c=64 v=0
22801 On ch=8 n=50 v=106
22802 On ch=8 n=55 v=111
22811 Par ch=8 c=64 v=127
22817 On ch=8 n=55 v=0
22818 On ch=8 n=50 v=0
22828 On ch=8 n=50 v=78
22828 On ch=8 n=55 v=65
22840 On ch=8 n=50 v=0
22841 On ch=8 n=55 v=0
22856 On ch=8 n=50 v=98
22856 On ch=8 n=55 v=75
22867 On ch=8 n=50 v=0
22869 On ch=8 n=55 v=0
22883 On ch=8 n=50 v=89
22883 On ch=8 n=55 v=80
22893 On ch=8 n=50 v=0
22897 On ch=8 n=55 v=0
22911 On ch=8 n=50 v=96
22914 On ch=8 n=55 v=83
22923 On ch=8 n=50 v=0
22926 On ch=8 n=55 v=0
22941 On ch=8 n=50 v=85
22944 On ch=8 n=55 v=78
22954 On ch=8 n=50 v=0
22957 On ch=8 n=55 v=0
22972 On ch=8 n=47 v=111
22996 On ch=8 n=47 v=0
23010 On ch=8 n=50 v=93
23029 On ch=8 n=50 v=0
23030 Par ch=8 c=64 v=0
23040 On ch=8 n=50 v=59
23040 On ch=8 n=66 v=100
23040 On ch=8 n=45 v=123
23040 On ch=8 n=62 v=120
23040 On ch=8 n=57 v=98
23072 Par ch=8 c=64 v=127
23120 On ch=8 n=62 v=0
23121 On ch=8 n=50 v=0
23122 On ch=8 n=66 v=0
23123 On ch=8 n=57 v=0
23160 On ch=8 n=66 v=115
23160 On ch=8 n=62 v=106
23160 On ch=8 n=57 v=89
23160 On ch=8 n=50 v=106
23161 Par ch=8 c=64 v=0
23216 Par ch=8 c=64 v=127
23232 On ch=8 n=50 v=0
23232 On ch=8 n=62 v=0
23232 On ch=8 n=45 v=0
23232 On ch=8 n=66 v=0
23232 On ch=8 n=57 v=0
23275 Par ch=8 c=64 v=0
23280 On ch=8 n=67 v=96
23280 On ch=8 n=50 v=86
23280 On ch=8 n=57 v=89
23280 On ch=8 n=62 v=103
23304 Par ch=8 c=64 v=127
23315 On ch=8 n=67 v=0
23318 On ch=8 n=62 v=0
23319 On ch=8 n=57 v=0
23340 On ch=8 n=66 v=115
23340 On ch=8 n=62 v=98
23340 On ch=8 n=57 v=78
23343 Par ch=8 c=64 v=0
23359 Par ch=8 c=64 v=127
23376 On ch=8 n=57 v=0
23376 On ch=8 n=50 v=0
23379 On ch=8 n=66 v=0
23381 On ch=8 n=62 v=0
23400 On ch=8 n=64 v=103
23400 On ch=8 n=62 v=85
23400 On ch=8 n=57 v=70
23400 On ch=8 n=50 v=91
23409 On ch=8 n=62 v=0
23416 On ch=8 n=57 v=0
23422 On ch=8 n=64 v=0
23458 On ch=8 n=50 v=0
23460 On ch=8 n=66 v=115
23460 On ch=8 n=62 v=113
23460 On ch=8 n=57 v=96
23478 On ch=8 n=62 v=0
23481 On ch=8 n=57 v=0
23483 On ch=8 n=66 v=0
23511 Par ch=8 c=64 v=0
23520 On ch=8 n=43 v=103
23520 On ch=8 n=50 v=98
23566 Par ch=8 c=64 v=127
23576 On ch=8 n=62 v=108
23576 On ch=8 n=67 v=91
23576 On ch=8 n=55 v=80
23587 On ch=8 n=55 v=0
23588 On ch=8 n=62 v=0
23589 On ch=8 n=67 v=0
23602 On ch=8 n=67 v=69
23603 On ch=8 n=62 v=89
23604 On ch=8 n=55 v=50
23614 On ch=8 n=55 v=0
23614 On ch=8 n=62 v=0
23616 On ch=8 n=67 v=0
23635 On ch=8 n=67 v=117
23636 On ch=8 n=62 v=127
23636 On ch=8 n=55 v=111
23668 On ch=8 n=55 v=0
23683 On ch=8 n=62 v=0
23695 On ch=8 n=50 v=0
23748 Par ch=8 c=64 v=0
23755 On ch=8 n=55 v=120
23756 On ch=8 n=50 v=108
23765 Par ch=8 c=64 v=127
23778 On ch=8 n=50 v=0
23778 On ch=8 n=55 v=0
23812 On ch=8 n=67 v=0
23814 On ch=8 n=50 v=103
23816 On ch=8 n=55 v=127
23824 On ch=8 n=43 v=0
23828 On ch=8 n=55 v=0
23866 On ch=8 n=50 v=0
23873 On ch=8 n=45 v=113
23875 Par ch=8 c=64 v=0
23905 On ch=8 n=47 v=127
23909 On ch=8 n=45 v=0
23933 On ch=8 n=47 v=0
23935 On ch=8 n=50 v=123
23954 On ch=8 n=50 v=0
23966 On ch=8 n=50 v=123
23997 On ch=8 n=50 v=0
24000 On ch=8 n=62 v=100
24000 On ch=8 n=57 v=70
24000 On ch=8 n=50 v=89
24003 Par ch=8 c=64 v=127
24016 On ch=8 n=62 v=0
24017 On ch=8 n=50 v=0
24020 On ch=8 n=57 v=0
24060 On ch=8 n=62 v=86
24060 On ch=8 n=57 v=61
24060 On ch=8 n=50 v=78
24068 On ch=8 n=50 v=0
24070 On ch=8 n=62 v=0
24071 On ch=8 n=57 v=0
24117 Par ch=8 c=64 v=0
24120 On ch=8 n=66 v=111
24120 On ch=8 n=62 v=111
24120 On ch=8 n=57 v=96
24120 On ch=8 n=50 v=100
24134 Par ch=8 c=64 v=127
24151 On ch=8 n=57 v=0
24154 On ch=8 n=62 v=0
24155 On ch=8 n=50 v=0
24156 On ch=8 n=66 v=0
24180 On ch=8 n=66 v=100
24180 On ch=8 n=62 v=86
24180 On ch=8 n=57 v=69
24180 On ch=8 n=50 v=80
24191 On ch=8 n=50 v=0
24191 On ch=8 n=62 v=0
24192 On ch=8 n=57 v=0
24195 On ch=8 n=66 v=0
24210 On ch=8 n=66 v=78
24210 On ch=8 n=62 v=63
24210 On ch=8 n=57 v=43
24210 On ch=8 n=50 v=82
24221 On ch=8 n=50 v=0
24222 On ch=8 n=57 v=0
24222 On ch=8 n=62 v=0
24227 On ch=8 n=66 v=0
24235 Par ch=8 c=64 v=0
24240 On ch=8 n=67 v=100
24240 On ch=8 n=62 v=103
24240 On ch=8 n=57 v=85
24240 On ch=8 n=50 v=103
24252 Par ch=8 c=64 v=127
24277 On ch=8 n=50 v=0
24280 On ch=8 n=62 v=0
24281 On ch=8 n=57 v=0
24284 On ch=8 n=67 v=0
24300 On ch=8 n=66 v=89
24300 On ch=8 n=62 v=85
24300 On ch=8 n=50 v=86
24300 On ch=8 n=57 v=78
24312 On ch=8 n=57 v=0
24312 On ch=8 n=50 v=0
24314 On ch=8 n=62 v=0
24316 On ch=8 n=66 v=0
24360 On ch=8 n=64 v=111
24360 On ch=8 n=62 v=96
24360 On ch=8 n=57 v=89
24360 On ch=8 n=50 v=96
24372 On ch=8 n=62 v=0
24373 On ch=8 n=50 v=0
24374 On ch=8 n=57 v=0
24377 On ch=8 n=64 v=0
24420 On ch=8 n=66 v=82
24420 On ch=8 n=50 v=93
24420 On ch=8 n=62 v=98
24420 On ch=8 n=57 v=69
24430 On ch=8 n=62 v=0
24431 On ch=8 n=57 v=0
24431 On ch=8 n=66 v=0
24433 On ch=8 n=50 v=0
24463 Par ch=8 c=64 v=0
24480 On ch=8 n=43 v=75
24480 On ch=8 n=50 v=96
24480 On ch=8 n=47 v=106
24521 On ch=8 n=47 v=0
24523 On ch=8 n=43 v=0
24524 On ch=8 n=50 v=0
24540 On ch=8 n=47 v=108
24540 On ch=8 n=43 v=83
24540 On ch=8 n=50 v=98
24600 On ch=8 n=67 v=113
24600 On ch=8 n=62 v=117
24600 On ch=8 n=55 v=103
24602 On ch=8 n=43 v=0
24602 On ch=8 n=47 v=0
24604 On ch=8 n=50 v=0
24615 Par ch=8 c=64 v=127
24636 On ch=8 n=67 v=0
24637 On ch=8 n=55 v=0
24638 On ch=8 n=62 v=0
24660 On ch=8 n=67 v=82
24660 On ch=8 n=62 v=89
24660 On ch=8 n=55 v=70
24673 On ch=8 n=62 v=0
24674 On ch=8 n=55 v=0
24674 On ch=8 n=67 v=0
24690 On ch=8 n=62 v=89
24690 On ch=8 n=55 v=69
24690 On ch=8 n=67 v=66
24701 On ch=8 n=62 v=0
24702 On ch=8 n=55 v=0
24703 On ch=8 n=67 v=0
24712 Par ch=8 c=64 v=0
24720 On ch=8 n=50 v=100
24720 On ch=8 n=67 v=93
24720 On ch=8 n=62 v=106
24720 On ch=8 n=55 v=85
24729 Par ch=8 c=64 v=127
24736 On ch=8 n=62 v=0
24737 On ch=8 n=50 v=0
24737 On ch=8 n=67 v=0
24737 On ch=8 n=55 v=0
24750 On ch=8 n=50 v=77
24750 On ch=8 n=62 v=78
24750 On ch=8 n=67 v=57
24750 On ch=8 n=55 v=42
24762 On ch=8 n=55 v=0
24762 On ch=8 n=50 v=0
24763 On ch=8 n=67 v=0
24763 On ch=8 n=62 v=0
24780 On ch=8 n=62 v=89
24780 On ch=8 n=55 v=65
24780 On ch=8 n=67 v=61
24780 On ch=8 n=50 v=89
24793 On ch=8 n=50 v=0
24793 On ch=8 n=62 v=0
24793 On ch=8 n=55 v=0
24793 On ch=8 n=67 v=0
24810 On ch=8 n=67 v=55
24810 On ch=8 n=62 v=78
24810 On ch=8 n=55 v=59
24810 On ch=8 n=50 v=73
24823 On ch=8 n=50 v=0
24825 On ch=8 n=67 v=0
24825 On ch=8 n=62 v=0
24827 On ch=8 n=55 v=0
24834 Par ch=8 c=64 v=0
24840 On ch=8 n=47 v=106
24840 On ch=8 n=43 v=86
24852 Par ch=8 c=64 v=127
24855 On ch=8 n=43 v=0
24857 On ch=8 n=47 v=0
24870 On ch=8 n=45 v=65
24888 On ch=8 n=45 v=0
24900 On ch=8 n=47 v=127
24919 On ch=8 n=47 v=0
24930 On ch=8 n=50 v=120
24943 On ch=8 n=50 v=0
24948 Par ch=8 c=64 v=0
24960 On ch=8 n=57 v=100
24960 On ch=8 n=62 v=117
24960 On ch=8 n=50 v=127
24969 Par ch=8 c=64 v=127
24987 On ch=8 n=57 v=0
24990 On ch=8 n=62 v=0
24994 On ch=8 n=50 v=0
25020 On ch=8 n=62 v=98
25020 On ch=8 n=50 v=120
25020 On ch=8 n=57 v=93
25030 On ch=8 n=62 v=0
25031 On ch=8 n=57 v=0
25032 On ch=8 n=50 v=0
25079 Par ch=8 c=64 v=0
25080 On ch=8 n=62 v=126
25080 On ch=8 n=66 v=127
25080 On ch=8 n=57 v=108
25080 On ch=8 n=50 v=111
25100 Par ch=8 c=64 v=127
25113 On ch=8 n=57 v=0
25116 On ch=8 n=62 v=0
25116 On ch=8 n=66 v=0
25140 On ch=8 n=66 v=122
25140 On ch=8 n=62 v=111
25140 On ch=8 n=57 v=77
25140 On ch=8 n=50 v=0
25149 On ch=8 n=62 v=0
25150 On ch=8 n=66 v=0
25150 On ch=8 n=57 v=0
25170 On ch=8 n=66 v=111
25170 On ch=8 n=62 v=100
25170 On ch=8 n=57 v=60
25179 On ch=8 n=57 v=0
25179 On ch=8 n=62 v=0
25183 On ch=8 n=66 v=0
25198 Par ch=8 c=64 v=0
25200 On ch=8 n=67 v=127
25200 On ch=8 n=50 v=113
25200 On ch=8 n=57 v=98
25200 On ch=8 n=62 v=126
25219 Par ch=8 c=64 v=127
25236 On ch=8 n=57 v=0
25239 On ch=8 n=62 v=0
25239 On ch=8 n=67 v=0
25260 On ch=8 n=66 v=127
25260 On ch=8 n=62 v=117
25260 On ch=8 n=57 v=98
25268 On ch=8 n=50 v=0
25274 On ch=8 n=57 v=0
25275 On ch=8 n=62 v=0
25278 On ch=8 n=66 v=0
25315 Par ch=8 c=64 v=0
25320 On ch=8 n=50 v=103
25320 On ch=8 n=62 v=103
25320 On ch=8 n=57 v=96
25320 On ch=8 n=64 v=120
25337 Par ch=8 c=64 v=127
25341 On ch=8 n=57 v=0
25343 On ch=8 n=62 v=0
25347 On ch=8 n=64 v=0
25380 On ch=8 n=66 v=104
25380 On ch=8 n=62 v=106
25380 On ch=8 n=57 v=96
25381 On ch=8 n=50 v=0
25390 On ch=8 n=62 v=0
25391 On ch=8 n=57 v=0
25393 On ch=8 n=66 v=0
25430 Par ch=8 c=64 v=0
25440 On ch=8 n=43 v=103
25440 On ch=8 n=50 v=117
25440 On ch=8 n=47 v=123
25614 On ch=8 n=43 v=0
25615 On ch=8 n=47 v=0
25616 On ch=8 n=50 v=0
25620 On ch=8 n=62 v=111
25620 On ch=8 n=67 v=120
25620 On ch=8 n=55 v=100
25669 On ch=8 n=67 v=0
25672 On ch=8 n=62 v=0
25674 On ch=8 n=55 v=0
25680 On ch=8 n=67 v=123
25680 On ch=8 n=62 v=126
25680 On ch=8 n=55 v=117
25797 Par ch=8 c=64 v=127
25811 On ch=8 n=67 v=0
25816 On ch=8 n=62 v=0
25820 On ch=8 n=55 v=0
25898 Par ch=8 c=64 v=0
25919 Par ch=8 c=64 v=127
25920 On ch=8 n=45 v=72
25920 On ch=8 n=50 v=66
25920 On ch=8 n=57 v=71
25933 On ch=8 n=57 v=0
25934 On ch=8 n=50 v=0
25936 On ch=8 n=45 v=0
25950 On ch=8 n=57 v=48
25950 On ch=8 n=45 v=32
25950 On ch=8 n=50 v=30
25960 On ch=8 n=50 v=0
25962 On ch=8 n=45 v=0
25963 On ch=8 n=57 v=0
25980 On ch=8 n=57 v=58
25980 On ch=8 n=45 v=62
25980 On ch=8 n=50 v=63
25991 On ch=8 n=50 v=0
25992 On ch=8 n=57 v=0
25994 On ch=8 n=45 v=0
26010 On ch=8 n=57 v=67
26010 On ch=8 n=45 v=50
26010 On ch=8 n=50 v=60
26018 On ch=8 n=45 v=0
26022 On ch=8 n=50 v=0
26022 On ch=8 n=57 v=0
26040 On ch=8 n=50 v=71
26040 On ch=8 n=45 v=75
26040 On ch=8 n=57 v=70
26053 On ch=8 n=57 v=0
26053 On ch=8 n=45 v=0
26053 On ch=8 n=50 v=0
26070 On ch=8 n=57 v=72
26070 On ch=8 n=45 v=52
26070 On ch=8 n=50 v=48
26079 On ch=8 n=50 v=0
26082 On ch=8 n=45 v=0
26082 On ch=8 n=57 v=0
26100 On ch=8 n=45 v=46
26100 On ch=8 n=57 v=55
26100 On ch=8 n=50 v=37
26107 On ch=8 n=50 v=0
26111 On ch=8 n=57 v=0
26118 On ch=8 n=45 v=0
26130 On ch=8 n=57 v=69
26130 On ch=8 n=45 v=34
26130 On ch=8 n=50 v=40
26140 On ch=8 n=50 v=0
26140 On ch=8 n=45 v=0
26143 On ch=8 n=57 v=0
26147 Par ch=8 c=64 v=0
26160 On ch=8 n=48 v=91
26160 On ch=8 n=52 v=72
26160 On ch=8 n=55 v=83
26164 Par ch=8 c=64 v=127
26174 On ch=8 n=48 v=0
26176 On ch=8 n=55 v=0
26177 On ch=8 n=52 v=0
26190 On ch=8 n=55 v=43
26190 On ch=8 n=48 v=48
26190 On ch=8 n=52 v=35
26200 On ch=8 n=52 v=0
26200 On ch=8 n=48 v=0
26201 On ch=8 n=55 v=0
26220 On ch=8 n=55 v=53
26220 On ch=8 n=48 v=58
26220 On ch=8 n=52 v=48
26232 On ch=8 n=48 v=0
26234 On ch=8 n=52 v=0
26236 On ch=8 n=55 v=0
26250 On ch=8 n=48 v=53
26250 On ch=8 n=52 v=49
26250 On ch=8 n=55 v=56
26260 On ch=8 n=55 v=0
26261 On ch=8 n=48 v=0
26263 On ch=8 n=52 v=0
26280 On ch=8 n=55 v=70
26280 On ch=8 n=48 v=73
26280 On ch=8 n=52 v=61
26290 On ch=8 n=48 v=0
26292 On ch=8 n=52 v=0
26292 On ch=8 n=55 v=0
26310 On ch=8 n=55 v=55
26310 On ch=8 n=52 v=48
26310 On ch=8 n=48 v=45
26318 On ch=8 n=48 v=0
26321 On ch=8 n=55 v=0
26322 On ch=8 n=52 v=0
26340 On ch=8 n=55 v=37
26340 On ch=8 n=48 v=53
26340 On ch=8 n=52 v=30
26349 On ch=8 n=55 v=0
26352 On ch=8 n=52 v=0
26353 On ch=8 n=48 v=0
26370 On ch=8 n=55 v=51
26370 On ch=8 n=48 v=45
26370 On ch=8 n=52 v=48
26382 On ch=8 n=48 v=0
26382 On ch=8 n=55 v=0
26383 On ch=8 n=52 v=0
26388 Par ch=8 c=64 v=0
26400 On ch=8 n=62 v=80
26400 On ch=8 n=55 v=77
26400 On ch=8 n=50 v=77
26400 On ch=8 n=47 v=75
26405 Par ch=8 c=64 v=127
26416 On ch=8 n=55 v=0
26417 On ch=8 n=62 v=0
26417 On ch=8 n=50 v=0
26418 On ch=8 n=47 v=0
26430 On ch=8 n=55 v=43
26430 On ch=8 n=62 v=42
26430 On ch=8 n=47 v=47
26430 On ch=8 n=50 v=31
26439 On ch=8 n=50 v=0
26441 On ch=8 n=47 v=0
26442 On ch=8 n=62 v=0
26444 On ch=8 n=55 v=0
26460 On ch=8 n=55 v=48
26460 On ch=8 n=62 v=55
26460 On ch=8 n=50 v=48
26460 On ch=8 n=47 v=71
26471 On ch=8 n=50 v=0
26472 On ch=8 n=47 v=0
26472 On ch=8 n=62 v=0
26473 On ch=8 n=55 v=0
26490 On ch=8 n=55 v=37
26490 On ch=8 n=62 v=34
26490 On ch=8 n=47 v=39
26490 On ch=8 n=50 v=33
26499 On ch=8 n=50 v=0
26499 On ch=8 n=47 v=0
26500 On ch=8 n=62 v=0
26502 On ch=8 n=55 v=0
26520 On ch=8 n=55 v=55
26520 On ch=8 n=62 v=53
26520 On ch=8 n=47 v=66
26520 On ch=8 n=50 v=53
26533 On ch=8 n=47 v=0
26534 On ch=8 n=62 v=0
26535 On ch=8 n=55 v=0
26535 On ch=8 n=50 v=0
26550 On ch=8 n=55 v=52
26550 On ch=8 n=62 v=48
26550 On ch=8 n=50 v=34
26550 On ch=8 n=47 v=34
26556 On ch=8 n=47 v=0
26560 On ch=8 n=50 v=0
26561 On ch=8 n=62 v=0
26563 On ch=8 n=55 v=0
26580 On ch=8 n=55 v=55
26580 On ch=8 n=62 v=59
26580 On ch=8 n=47 v=48
26580 On ch=8 n=50 v=35
26589 On ch=8 n=50 v=0
26590 On ch=8 n=47 v=0
26591 On ch=8 n=62 v=0
26593 On ch=8 n=55 v=0
26610 On ch=8 n=55 v=60
26610 On ch=8 n=62 v=49
26610 On ch=8 n=47 v=55
26610 On ch=8 n=50 v=50
26620 On ch=8 n=62 v=0
26623 On ch=8 n=55 v=0
26623 On ch=8 n=50 v=0
26624 On ch=8 n=47 v=0
26629 Par ch=8 c=64 v=0
26640 On ch=8 n=45 v=89
26640 On ch=8 n=55 v=77
26640 On ch=8 n=62 v=82
26641 Par ch=8 c=64 v=127
26653 On ch=8 n=62 v=0
26655 On ch=8 n=45 v=0
26656 On ch=8 n=55 v=0
26670 On ch=8 n=47 v=63
26670 On ch=8 n=62 v=62
26670 On ch=8 n=55 v=61
26683 On ch=8 n=62 v=0
26684 On ch=8 n=55 v=0
26684 On ch=8 n=47 v=0
26700 On ch=8 n=50 v=93
26700 On ch=8 n=55 v=66
26700 On ch=8 n=62 v=67
26712 On ch=8 n=62 v=0
26713 On ch=8 n=55 v=0
26715 On ch=8 n=50 v=0
26722 Par ch=8 c=64 v=0
26730 On ch=8 n=62 v=103
26730 On ch=8 n=53 v=127
26730 On ch=8 n=55 v=93
26730 On ch=8 n=46 v=96
26733 On ch=8 n=46 v=0
26734 Par ch=8 c=64 v=127
26766 On ch=8 n=55 v=0
26766 On ch=8 n=62 v=0
26782 On ch=8 n=53 v=0
26790 On ch=8 n=50 v=86
26790 On ch=8 n=62 v=78
26790 On ch=8 n=55 v=70
26802 On ch=8 n=55 v=0
26803 On ch=8 n=62 v=0
26809 On ch=8 n=50 v=0
26820 On ch=8 n=53 v=127
26820 On ch=8 n=55 v=96
26820 On ch=8 n=62 v=106
26836 On ch=8 n=55 v=0
26838 On ch=8 n=62 v=0
26838 On ch=8 n=53 v=0
26873 Par ch=8 c=64 v=0
26937 On ch=8 n=57 v=93
26997 On ch=8 n=62 v=108
27057 On ch=8 n=66 v=100
27063 Par ch=8 c=64 v=127
27080 On ch=8 n=66 v=0
27081 On ch=8 n=62 v=0
27088 On ch=8 n=57 v=0
27117 On ch=8 n=48 v=113
27117 Par ch=8 c=64 v=0
27145 On ch=8 n=55 v=65
27174 On ch=8 n=62 v=86
27208 On ch=8 n=67 v=96
27244 Par ch=8 c=64 v=127
27252 On ch=8 n=55 v=0
27258 On ch=8 n=62 v=0
27268 On ch=8 n=55 v=70
27277 On ch=8 n=67 v=0
27297 On ch=8 n=62 v=96
27325 On ch=8 n=64 v=123
27332 On ch=8 n=62 v=0
27336 On ch=8 n=48 v=0
27345 Par ch=8 c=64 v=0
27347 On ch=8 n=64 v=0
27349 On ch=8 n=55 v=0
27383 On ch=8 n=55 v=78
27411 On ch=8 n=62 v=106
27444 On ch=8 n=67 v=111
27472 Par ch=8 c=64 v=127
27489 On ch=8 n=62 v=0
27490 On ch=8 n=55 v=0
27491 On ch=8 n=67 v=0
27509 On ch=8 n=55 v=64
27539 On ch=8 n=62 v=103
27548 Par ch=8 c=64 v=0
27561 Par ch=8 c=64 v=127
27566 On ch=8 n=62 v=0
27568 On ch=8 n=64 v=117
27578 On ch=8 n=55 v=0
27582 On ch=8 n=64 v=0
27594 On ch=8 n=45 v=106
27595 Par ch=8 c=64 v=0
27624 On ch=8 n=47 v=103
27624 On ch=8 n=45 v=0
27655 On ch=8 n=50 v=77
27657 On ch=8 n=47 v=0
27683 On ch=8 n=50 v=0
27686 On ch=8 n=53 v=120
27747 On ch=8 n=50 v=80
27755 On ch=8 n=53 v=0
27776 On ch=8 n=53 v=108
27776 On ch=8 n=50 v=0
27837 On ch=8 n=50 v=117
27839 On ch=8 n=53 v=0
27897 On ch=8 n=57 v=91
27959 On ch=8 n=62 v=111
28015 On ch=8 n=64 v=120
28019 On ch=8 n=62 v=0
28021 Par ch=8 c=64 v=127
28047 On ch=8 n=64 v=0
28051 On ch=8 n=57 v=0
28060 On ch=8 n=50 v=0
28076 Par ch=8 c=64 v=0
28077 On ch=8 n=48 v=111
28106 On ch=8 n=55 v=65
28135 On ch=8 n=62 v=98
28167 On ch=8 n=67 v=106
28207 Par ch=8 c=64 v=127
28218 On ch=8 n=55 v=0
28222 On ch=8 n=62 v=0
28223 On ch=8 n=67 v=0
28230 On ch=8 n=55 v=67
28258 On ch=8 n=62 v=91
28260 On ch=8 n=48 v=0
28285 On ch=8 n=62 v=0
28288 On ch=8 n=64 v=111
28312 On ch=8 n=64 v=0
28314 On ch=8 n=55 v=0
28316 Par ch=8 c=64 v=0
28346 On ch=8 n=55 v=75
28376 On ch=8 n=62 v=80
28408 On ch=8 n=64 v=120
28443 Par ch=8 c=64 v=127
28445 On ch=8 n=62 v=0
28450 On ch=8 n=55 v=0
28454 On ch=8 n=64 v=0
28467 On ch=8 n=55 v=58
28499 On ch=8 n=62 v=91
28506 Par ch=8 c=64 v=0
28523 Par ch=8 c=64 v=127
28527 On ch=8 n=64 v=96
28529 On ch=8 n=62 v=0
28541 On ch=8 n=55 v=0
28546 On ch=8 n=64 v=0
28556 On ch=8 n=45 v=89
28561 Par ch=8 c=64 v=0
28583 On ch=8 n=47 v=96
28585 On ch=8 n=45 v=0
28613 On ch=8 n=50 v=72
28615 On ch=8 n=47 v=0
28644 On ch=8 n=50 v=0
28645 On ch=8 n=53 v=117
28708 On ch=8 n=50 v=93
28714 On ch=8 n=53 v=0
28736 On ch=8 n=50 v=0
28737 On ch=8 n=53 v=120
28760 Par ch=8 c=64 v=127
28797 Par ch=8 c=64 v=0
28797 On ch=8 n=53 v=0
28799 On ch=8 n=50 v=111
28857 On ch=8 n=57 v=75
28919 On ch=8 n=62 v=106
28975 On ch=8 n=67 v=98
28992 Par ch=8 c=64 v=127
29004 On ch=8 n=67 v=0
29007 On ch=8 n=62 v=0
29009 On ch=8 n=57 v=0
29010 On ch=8 n=50 v=0
29037 On ch=8 n=48 v=111
29042 Par ch=8 c=64 v=0
29067 On ch=8 n=55 v=67
29097 On ch=8 n=62 v=89
29131 On ch=8 n=67 v=111
29156 Par ch=8 c=64 v=127
29170 On ch=8 n=55 v=0
29183 On ch=8 n=62 v=0
29184 On ch=8 n=67 v=0
29189 On ch=8 n=55 v=75
29220 On ch=8 n=62 v=103
29248 On ch=8 n=64 v=103
29251 On ch=8 n=48 v=0
29255 On ch=8 n=62 v=0
29272 On ch=8 n=64 v=0
29273 On ch=8 n=55 v=0
29275 Par ch=8 c=64 v=0
29308 On ch=8 n=55 v=70
29335 On ch=8 n=62 v=89
29367 On ch=8 n=67 v=100
29393 Par ch=8 c=64 v=127
29403 On ch=8 n=55 v=0
29410 On ch=8 n=62 v=0
29411 On ch=8 n=67 v=0
29429 On ch=8 n=55 v=70
29457 On ch=8 n=62 v=91
29486 On ch=8 n=64 v=117
29493 On ch=8 n=62 v=0
29506 Par ch=8 c=64 v=0
29510 On ch=8 n=55 v=0
29511 On ch=8 n=64 v=0
29607 On ch=8 n=53 v=123
29670 On ch=8 n=50 v=89
29678 On ch=8 n=53 v=0
29697 On ch=8 n=53 v=120
29698 On ch=8 n=50 v=0
29714 Par ch=8 c=64 v=127
29757 On ch=8 n=53 v=0
29758 On ch=8 n=50 v=126
29761 Par ch=8 c=64 v=0
29817 On ch=8 n=57 v=85
29878 On ch=8 n=62 v=106
29935 On ch=8 n=66 v=104
29950 Par ch=8 c=64 v=127
29973 On ch=8 n=66 v=0
29975 On ch=8 n=62 v=0
29979 On ch=8 n=57 v=0
29990 On ch=8 n=50 v=0
29996 Par ch=8 c=64 v=0
29997 On ch=8 n=48 v=117
30025 On ch=8 n=55 v=77
30055 On ch=8 n=62 v=98
30087 On ch=8 n=67 v=120
30131 Par ch=8 c=64 v=127
30131 On ch=8 n=55 v=0
30135 On ch=8 n=67 v=0
30144 On ch=8 n=62 v=0
30150 On ch=8 n=55 v=72
30179 On ch=8 n=62 v=91
30184 On ch=8 n=48 v=0
30206 On ch=8 n=64 v=117
30212 On ch=8 n=62 v=0
30222 On ch=8 n=55 v=0
30227 On ch=8 n=64 v=0
30233 Par ch=8 c=64 v=0
30265 On ch=8 n=55 v=70
30292 On ch=8 n=62 v=98
30326 On ch=8 n=64 v=123
30351 Par ch=8 c=64 v=127
30361 On ch=8 n=55 v=0
30363 On ch=8 n=64 v=0
30366 On ch=8 n=62 v=0
30388 On ch=8 n=55 v=85
30419 On ch=8 n=62 v=93
30431 Par ch=8 c=64 v=0
30447 On ch=8 n=64 v=117
30452 On ch=8 n=62 v=0
30475 On ch=8 n=64 v=0
30477 On ch=8 n=45 v=117
30479 On ch=8 n=55 v=0
30505 On ch=8 n=47 v=111
30508 On ch=8 n=45 v=0
30534 On ch=8 n=50 v=85
30535 On ch=8 n=47 v=0
30565 On ch=8 n=50 v=0
30566 On ch=8 n=53 v=126
30629 On ch=8 n=50 v=91
30635 On ch=8 n=53 v=0
30655 On ch=8 n=50 v=0
30656 On ch=8 n=53 v=127
30715 On ch=8 n=50 v=127
30718 On ch=8 n=53 v=0
30778 On ch=8 n=57 v=86
30839 On ch=8 n=62 v=117
30898 On ch=8 n=66 v=111
30912 Par ch=8 c=64 v=127
30937 On ch=8 n=66 v=0
30942 On ch=8 n=62 v=0
30946 On ch=8 n=57 v=0
30955 On ch=8 n=50 v=0
30959 Par ch=8 c=64 v=0
30959 On ch=8 n=48 v=120
30988 On ch=8 n=55 v=72
31017 On ch=8 n=62 v=103
31050 On ch=8 n=67 v=117
31073 Par ch=8 c=64 v=127
31087 On ch=8 n=55 v=0
31089 On ch=8 n=67 v=0
31092 On ch=8 n=62 v=0
31109 On ch=8 n=55 v=86
31139 On ch=8 n=62 v=103
31166 On ch=8 n=64 v=117
31180 On ch=8 n=62 v=0
31189 On ch=8 n=64 v=0
31190 On ch=8 n=55 v=0
31191 Par ch=8 c=64 v=0
31194 On ch=8 n=48 v=0
31232 On ch=8 n=55 v=86
31261 On ch=8 n=62 v=106
31293 On ch=8 n=64 v=127
31318 Par ch=8 c=64 v=127
31333 On ch=8 n=62 v=0
31333 On ch=8 n=55 v=0
31334 On ch=8 n=64 v=0
31350 On ch=8 n=55 v=108
31377 On ch=8 n=62 v=103
31386 Par ch=8 c=64 v=0
31403 Par ch=8 c=64 v=127
31406 On ch=8 n=64 v=120
31406 On ch=8 n=62 v=0
31423 On ch=8 n=64 v=0
31423 On ch=8 n=55 v=0
31434 On ch=8 n=45 v=111
31437 Par ch=8 c=64 v=0
31464 On ch=8 n=47 v=113
31469 On ch=8 n=45 v=0
31493 On ch=8 n=50 v=98
31494 On ch=8 n=47 v=0
31524 On ch=8 n=50 v=0
31525 On ch=8 n=53 v=127
31584 On ch=8 n=50 v=117
31589 On ch=8 n=53 v=0
31611 On ch=8 n=50 v=0
31612 On ch=8 n=53 v=127
31675 On ch=8 n=53 v=0
31676 On ch=8 n=50 v=127
31735 On ch=8 n=57 v=100
31793 On ch=8 n=62 v=120
31854 On ch=8 n=66 v=125
31859 Par ch=8 c=64 v=127
31882 On ch=8 n=66 v=0
31883 On ch=8 n=50 v=0
31884 On ch=8 n=62 v=0
31889 On ch=8 n=57 v=0
31917 On ch=8 n=48 v=120
31918 Par ch=8 c=64 v=0
31945 On ch=8 n=55 v=77
31974 On ch=8 n=62 v=100
32006 On ch=8 n=67 v=120
32023 Par ch=8 c=64 v=127
32043 On ch=8 n=55 v=0
32049 On ch=8 n=67 v=0
32050 On ch=8 n=62 v=0
32064 On ch=8 n=55 v=85
32094 On ch=8 n=62 v=93
32098 On ch=8 n=48 v=0
32118 On ch=8 n=62 v=0
32124 On ch=8 n=64 v=113
32131 On ch=8 n=55 v=0
32137 On ch=8 n=64 v=0
32158 Par ch=8 c=64 v=0
32184 On ch=8 n=55 v=103
32213 On ch=8 n=62 v=117
32243 On ch=8 n=64 v=117
32255 Par ch=8 c=64 v=127
32278 On ch=8 n=55 v=0
32283 On ch=8 n=62 v=0
32292 On ch=8 n=64 v=0
32306 On ch=8 n=55 v=106
32326 On ch=8 n=55 v=0
32335 On ch=8 n=62 v=103
32353 On ch=8 n=62 v=0
32363 On ch=8 n=64 v=103
32372 On ch=8 n=64 v=0
32391 Par ch=8 c=64 v=0
32391 On ch=8 n=45 v=111
32419 On ch=8 n=47 v=91
32419 On ch=8 n=45 v=0
32449 On ch=8 n=50 v=93
32452 On ch=8 n=47 v=0
32481 On ch=8 n=50 v=0
32483 On ch=8 n=53 v=127
32548 On ch=8 n=50 v=86
32555 On ch=8 n=53 v=0
32574 On ch=8 n=53 v=123
32574 On ch=8 n=50 v=0
32634 On ch=8 n=53 v=0
32637 On ch=8 n=50 v=127
32698 On ch=8 n=57 v=91
32753 On ch=8 n=62 v=113
32775 Par ch=8 c=64 v=127
32815 On ch=8 n=66 v=115
32823 On ch=8 n=62 v=0
32824 On ch=8 n=50 v=0
32848 On ch=8 n=57 v=0
32848 On ch=8 n=66 v=0
32876 Par ch=8 c=64 v=0
32878 On ch=8 n=48 v=113
32906 On ch=8 n=55 v=86
32934 On ch=8 n=62 v=96
32967 On ch=8 n=64 v=127
32975 On ch=8 n=62 v=0
32986 Par ch=8 c=64 v=127
33005 On ch=8 n=64 v=0
33005 On ch=8 n=55 v=0
33025 On ch=8 n=55 v=82
33054 On ch=8 n=48 v=0
33056 On ch=8 n=62 v=86
33075 On ch=8 n=55 v=0
33077 On ch=8 n=62 v=0
33082 On ch=8 n=64 v=103
33099 On ch=8 n=64 v=0
33112 Par ch=8 c=64 v=0
33145 On ch=8 n=55 v=98
33175 On ch=8 n=62 v=103
33205 On ch=8 n=64 v=126
33218 Par ch=8 c=64 v=127
33236 On ch=8 n=55 v=0
33238 On ch=8 n=62 v=0
33247 On ch=8 n=64 v=0
33267 On ch=8 n=55 v=106
33277 On ch=8 n=55 v=0
33295 On ch=8 n=62 v=80
33315 On ch=8 n=62 v=0
33326 On ch=8 n=64 v=113
33337 On ch=8 n=64 v=0
33354 On ch=8 n=45 v=113
33357 Par ch=8 c=64 v=0
33382 On ch=8 n=45 v=0
33383 On ch=8 n=47 v=100
33411 On ch=8 n=50 v=80
33418 On ch=8 n=47 v=0
33441 On ch=8 n=53 v=117
33441 On ch=8 n=50 v=0
33510 On ch=8 n=50 v=80
33518 On ch=8 n=53 v=0
33539 On ch=8 n=53 v=108
33540 On ch=8 n=50 v=0
33597 On ch=8 n=50 v=93
33597 On ch=8 n=53 v=0
33662 On ch=8 n=62 v=106
33720 On ch=8 n=66 v=104
33737 Par ch=8 c=64 v=127
33757 On ch=8 n=50 v=0
33767 On ch=8 n=66 v=0
33773 On ch=8 n=62 v=0
33776 On ch=8 n=69 v=108
33792 On ch=8 n=69 v=0
33836 On ch=8 n=50 v=103
33838 Par ch=8 c=64 v=0
33865 On ch=8 n=61 v=79
33889 Par ch=8 c=64 v=127
33896 On ch=8 n=64 v=89
33914 On ch=8 n=50 v=0
33924 On ch=8 n=71 v=117
33927 On ch=8 n=61 v=0
33937 On ch=8 n=64 v=0
33946 On ch=8 n=71 v=0
33953 On ch=8 n=50 v=91
33983 On ch=8 n=61 v=71
34002 On ch=8 n=61 v=0
34012 On ch=8 n=64 v=108
34012 On ch=8 n=50 v=0
34031 On ch=8 n=64 v=0
34042 On ch=8 n=69 v=96
34072 On ch=8 n=50 v=106
34075 Par ch=8 c=64 v=0
34088 On ch=8 n=69 v=0
34104 On ch=8 n=60 v=80
34109 Par ch=8 c=64 v=127
34133 On ch=8 n=64 v=89
34142 On ch=8 n=50 v=0
34159 On ch=8 n=64 v=0
34166 On ch=8 n=67 v=91
34167 On ch=8 n=64 v=32
34174 On ch=8 n=64 v=0
34189 On ch=8 n=60 v=0
34193 On ch=8 n=50 v=91
34194 On ch=8 n=67 v=0
34209 On ch=8 n=50 v=0
34226 On ch=8 n=60 v=66
34256 On ch=8 n=64 v=96
34275 On ch=8 n=60 v=0
34277 On ch=8 n=64 v=0
34286 On ch=8 n=67 v=96
34304 On ch=8 n=67 v=0
34316 On ch=8 n=50 v=103
34324 Par ch=8 c=64 v=0
34345 On ch=8 n=59 v=70
34354 Par ch=8 c=64 v=127
34375 On ch=8 n=62 v=89
34385 On ch=8 n=50 v=0
34406 On ch=8 n=69 v=108
34415 On ch=8 n=62 v=0
34415 On ch=8 n=59 v=0
34428 On ch=8 n=69 v=0
34435 On ch=8 n=50 v=89
34466 On ch=8 n=59 v=82
34480 On ch=8 n=50 v=0
34498 On ch=8 n=62 v=98
34502 On ch=8 n=59 v=0
34516 On ch=8 n=62 v=0
34529 On ch=8 n=67 v=111
34544 On ch=8 n=67 v=0
34552 Par ch=8 c=64 v=0
34620 On ch=8 n=50 v=111
34680 On ch=8 n=62 v=127
34680 On ch=8 n=66 v=127
34680 On ch=8 n=57 v=117
34691 Par ch=8 c=64 v=127
34737 On ch=8 n=57 v=0
34737 On ch=8 n=62 v=0
34738 On ch=8 n=66 v=0
34745 On ch=8 n=50 v=0
34788 Par ch=8 c=64 v=0
34800 On ch=8 n=67 v=113
34800 On ch=8 n=62 v=126
34800 On ch=8 n=50 v=89
34800 On ch=8 n=57 v=106
34855 On ch=8 n=67 v=0
34860 On ch=8 n=66 v=122
34885 Par ch=8 c=64 v=127
34907 On ch=8 n=66 v=0
34920 On ch=8 n=64 v=120
34936 On ch=8 n=62 v=0
34940 On ch=8 n=57 v=0
34943 On ch=8 n=50 v=0
34950 On ch=8 n=64 v=0
34980 On ch=8 n=66 v=127
34997 On ch=8 n=66 v=0
35021 Par ch=8 c=64 v=0
35040 On ch=8 n=43 v=85
35040 On ch=8 n=47 v=108
35040 On ch=8 n=50 v=103
35046 Par ch=8 c=64 v=127
35067 On ch=8 n=50 v=0
35067 On ch=8 n=47 v=0
35072 On ch=8 n=43 v=0
35100 On ch=8 n=43 v=62
35100 On ch=8 n=47 v=98
35100 On ch=8 n=50 v=91
35128 On ch=8 n=50 v=0
35128 On ch=8 n=47 v=0
35129 On ch=8 n=43 v=0
35160 On ch=8 n=67 v=120
35160 On ch=8 n=62 v=127
35160 On ch=8 n=55 v=103
35160 Par ch=8 c=64 v=0
35185 Par ch=8 c=64 v=127
35204 On ch=8 n=62 v=0
35204 On ch=8 n=67 v=0
35209 On ch=8 n=55 v=0
35220 On ch=8 n=55 v=75
35220 On ch=8 n=67 v=91
35220 On ch=8 n=62 v=103
35235 On ch=8 n=55 v=0
35236 On ch=8 n=62 v=0
35237 On ch=8 n=67 v=0
35274 Par ch=8 c=64 v=0
35281 On ch=8 n=50 v=106
35282 On ch=8 n=55 v=111
35291 Par ch=8 c=64 v=127
35297 On ch=8 n=55 v=0
35298 On ch=8 n=50 v=0
35308 On ch=8 n=50 v=78
35308 On ch=8 n=55 v=65
35320 On ch=8 n=50 v=0
35321 On ch=8 n=55 v=0
35336 On ch=8 n=50 v=98
35336 On ch=8 n=55 v=75
35347 On ch=8 n=50 v=0
35349 On ch=8 n=55 v=0
35363 On ch=8 n=50 v=89
35363 On ch=8 n=55 v=80
35373 On ch=8 n=50 v=0
35377 On ch=8 n=55 v=0
35391 On ch=8 n=50 v=96
35394 On ch=8 n=55 v=83
35403 On ch=8 n=50 v=0
35406 On ch=8 n=55 v=0
35421 On ch=8 n=50 v=85
35424 On ch=8 n=55 v=78
35434 On ch=8 n=50 v=0
35437 On ch=8 n=55 v=0
35452 On ch=8 n=47 v=111
35476 On ch=8 n=47 v=0
35490 On ch=8 n=50 v=93
35509 On ch=8 n=50 v=0
35510 Par ch=8 c=64 v=0
35520 On ch=8 n=50 v=59
35520 On ch=8 n=66 v=100
35520 On ch=8 n=45 v=123
35520 On ch=8 n=62 v=120
35520 On ch=8 n=57 v=98
35552 Par ch=8 c=64 v=127
35600 On ch=8 n=62 v=0
35601 On ch=8 n=50 v=0
35602 On ch=8 n=66 v=0
35603 On ch=8 n=57 v=0
35640 On ch=8 n=66 v=115
35640 On ch=8 n=62 v=106
35640 On ch=8 n=57 v=89
35640 On ch=8 n=50 v=106
35641 Par ch=8 c=64 v=0
35696 Par ch=8 c=64 v=127
35712 On ch=8 n=50 v=0
35712 On ch=8 n=62 v=0
35712 On ch=8 n=45 v=0
35712 On ch=8 n=66 v=0
35712 On ch=8 n=57 v=0
35755 Par ch=8 c=64 v=0
35760 On ch=8 n=67 v=96
35760 On ch=8 n=50 v=86
35760 On ch=8 n=57 v=89
35760 On ch=8 n=62 v=103
35784 Par ch=8 c=64 v=127
35795 On ch=8 n=67 v=0
35798 On ch=8 n=62 v=0
35799 On ch=8 n=57 v=0
35820 On ch=8 n=66 v=115
35820 On ch=8 n=62 v=98
35820 On ch=8 n=57 v=78
35823 Par ch=8 c=64 v=0
35839 Par ch=8 c=64 v=127
35856 On ch=8 n=57 v=0
35856 On ch=8 n=50 v=0
35859 On ch=8 n=66 v=0
35861 On ch=8 n=62 v=0
35880 On ch=8 n=64 v=103
35880 On ch=8 n=62 v=85
35880 On ch=8 n=57 v=70
35880 On ch=8 n=50 v=91
35889 On ch=8 n=62 v=0
35896 On ch=8 n=57 v=0
35902 On ch=8 n=64 v=0
35938 On ch=8 n=50 v=0
35940 On ch=8 n=66 v=115
35940 On ch=8 n=62 v=113
35940 On ch=8 n=57 v=96
35958 On ch=8 n=62 v=0
35961 On ch=8 n=57 v=0
35963 On ch=8 n=66 v=0
35991 Par ch=8 c=64 v=0
36000 On ch=8 n=43 v=103
36000 On ch=8 n=50 v=98
36046 Par ch=8 c=64 v=127
36056 On ch=8 n=62 v=108
36056 On ch=8 n=67 v=91
36056 On ch=8 n=55 v=80
36067 On ch=8 n=55 v=0
36068 On ch=8 n=62 v=0
36069 On ch=8 n=67 v=0
36082 On ch=8 n=67 v=69
36083 On ch=8 n=62 v=89
36084 On ch=8 n=55 v=50
36094 On ch=8 n=55 v=0
36094 On ch=8 n=62 v=0
36096 On ch=8 n=67 v=0
36115 On ch=8 n=67 v=117
36116 On ch=8 n=62 v=127
36116 On ch=8 n=55 v=111
36148 On ch=8 n=55 v=0
36163 On ch=8 n=62 v=0
36175 On ch=8 n=50 v=0
36228 Par ch=8 c=64 v=0
36235 On ch=8 n=55 v=120
36236 On ch=8 n=50 v=108
36245 Par ch=8 c=64 v=127
36258 On ch=8 n=50 v=0
36258 On ch=8 n=55 v=0
36292 On ch=8 n=67 v=0
36294 On ch=8 n=50 v=103
36296 On ch=8 n=55 v=127
36304 On ch=8 n=43 v=0
36308 On ch=8 n=55 v=0
36346 On ch=8 n=50 v=0
36353 On ch=8 n=45 v=113
36355 Par ch=8 c=64 v=0
36385 On ch=8 n=47 v=127
36389 On ch=8 n=45 v=0
36413 On ch=8 n=47 v=0
36415 On ch=8 n=50 v=123
36434 On ch=8 n=50 v=0
36446 On ch=8 n=50 v=123
36477 On ch=8 n=50 v=0
36480 On ch=8 n=62 v=100
36480 On ch=8 n=57 v=70
36480 On ch=8 n=50 v=89
36483 Par ch=8 c=64 v=127
36496 On ch=8 n=62 v=0
36497 On ch=8 n=50 v=0
36500 On ch=8 n=57 v=0
36540 On ch=8 n=62 v=86
36540 On ch=8 n=57 v=61
36540 On ch=8 n=50 v=78
36548 On ch=8 n=50 v=0
36550 On ch=8 n=62 v=0
36551 On ch=8 n=57 v=0
36597 Par ch=8 c=64 v=0
36600 On ch=8 n=66 v=111
36600 On ch=8 n=62 v=111
36600 On ch=8 n=57 v=96
36600 On ch=8 n=50 v=100
36614 Par ch=8 c=64 v=127
36631 On ch=8 n=57 v=0
36634 On ch=8 n=62 v=0
36635 On ch=8 n=50 v=0
36636 On ch=8 n=66 v=0
36660 On ch=8 n=66 v=100
36660 On ch=8 n=62 v=86
36660 On ch=8 n=57 v=69
36660 On ch=8 n=50 v=80
36671 On ch=8 n=50 v=0
36671 On ch=8 n=62 v=0
36672 On ch=8 n=57 v=0
36675 On ch=8 n=66 v=0
36690 On ch=8 n=66 v=78
36690 On ch=8 n=62 v=63
36690 On ch=8 n=57 v=43
36690 On ch=8 n=50 v=82
36701 On ch=8 n=50 v=0
36702 On ch=8 n=57 v=0
36702 On ch=8 n=62 v=0
36707 On ch=8 n=66 v=0
36715 Par ch=8 c=64 v=0
36720 On ch=8 n=67 v=100
36720 On ch=8 n=62 v=103
36720 On ch=8 n=57 v=85
36720 On ch=8 n=50 v=103
36732 Par ch=8 c=64 v=127
36757 On ch=8 n=50 v=0
36760 On ch=8 n=62 v=0
36761 On ch=8 n=57 v=0
36764 On ch=8 n=67 v=0
36780 On ch=8 n=66 v=89
36780 On ch=8 n=62 v=85
36780 On ch=8 n=50 v=86
36780 On ch=8 n=57 v=78
36792 On ch=8 n=57 v=0
36792 On ch=8 n=50 v=0
36794 On ch=8 n=62 v=0
36796 On ch=8 n=66 v=0
36840 On ch=8 n=64 v=111
36840 On ch=8 n=62 v=96
36840 On ch=8 n=57 v=89
36840 On ch=8 n=50 v=96
36852 On ch=8 n=62 v=0
36853 On ch=8 n=50 v=0
36854 On ch=8 n=57 v=0
36857 On ch=8 n=64 v=0
36900 On ch=8 n=66 v=82
36900 On ch=8 n=50 v=93
36900 On ch=8 n=62 v=98
36900 On ch=8 n=57 v=69
36910 On ch=8 n=62 v=0
36911 On ch=8 n=57 v=0
36911 On ch=8 n=66 v=0
36913 On ch=8 n=50 v=0
36943 Par ch=8 c=64 v=0
36960 On ch=8 n=43 v=75
36960 On ch=8 n=50 v=96
36960 On ch=8 n=47 v=106
37001 On ch=8 n=47 v=0
37003 On ch=8 n=43 v=0
37004 On ch=8 n=50 v=0
37020 On ch=8 n=47 v=108
37020 On ch=8 n=43 v=83
37020 On ch=8 n=50 v=98
37080 On ch=8 n=67 v=113
37080 On ch=8 n=62 v=117
37080 On ch=8 n=55 v=103
37082 On ch=8 n=43 v=0
37082 On ch=8 n=47 v=0
37084 On ch=8 n=50 v=0
37095 Par ch=8 c=64 v=127
37116 On ch=8 n=67 v=0
37117 On ch=8 n=55 v=0
37118 On ch=8 n=62 v=0
37140 On ch=8 n=67 v=82
37140 On ch=8 n=62 v=89
37140 On ch=8 n=55 v=70
37153 On ch=8 n=62 v=0
37154 On ch=8 n=55 v=0
37154 On ch=8 n=67 v=0
37170 On ch=8 n=62 v=89
37170 On ch=8 n=55 v=69
37170 On ch=8 n=67 v=66
37181 On ch=8 n=62 v=0
37182 On ch=8 n=55 v=0
37183 On ch=8 n=67 v=0
37192 Par ch=8 c=64 v=0
37200 On ch=8 n=50 v=100
37200 On ch=8 n=67 v=93
37200 On ch=8 n=62 v=106
37200 On ch=8 n=55 v=85
37209 Par ch=8 c=64 v=127
37216 On ch=8 n=62 v=0
37217 On ch=8 n=50 v=0
37217 On ch=8 n=67 v=0
37217 On ch=8 n=55 v=0
37230 On ch=8 n=50 v=77
37230 On ch=8 n=62 v=78
37230 On ch=8 n=67 v=57
37230 On ch=8 n=55 v=42
37230 Par ch=8 c=7 v=126
37242 On ch=8 n=55 v=0
37242 On ch=8 n=50 v=0
37243 On ch=8 n=67 v=0
37243 On ch=8 n=62 v=0
37260 On ch=8 n=62 v=89
37260 On ch=8 n=55 v=65
37260 On ch=8 n=67 v=61
37260 On ch=8 n=50 v=89
37270 Par ch=8 c=7 v=125
37273 On ch=8 n=50 v=0
37273 On ch=8 n=62 v=0
37273 On ch=8 n=55 v=0
37273 On ch=8 n=67 v=0
37277 Par ch=8 c=7 v=124
37290 On ch=8 n=67 v=55
37290 On ch=8 n=62 v=78
37290 On ch=8 n=55 v=59
37290 On ch=8 n=50 v=73
37295 Par ch=8 c=7 v=123
37303 On ch=8 n=50 v=0
37305 On ch=8 n=67 v=0
37305 On ch=8 n=62 v=0
37307 On ch=8 n=55 v=0
37314 Par ch=8 c=64 v=0
37320 On ch=8 n=47 v=106
37320 On ch=8 n=43 v=86
37332 Par ch=8 c=64 v=127
37335 On ch=8 n=43 v=0
37337 Par ch=8 c=7 v=122
37337 On ch=8 n=47 v=0
37339 Par ch=8 c=7 v=121
37350 On ch=8 n=45 v=65
37357 Par ch=8 c=7 v=120
37368 On ch=8 n=45 v=0
37380 On ch=8 n=47 v=127
37399 On ch=8 n=47 v=0
37410 On ch=8 n=50 v=120
37410 Par ch=8 c=7 v=119
37423 On ch=8 n=50 v=0
37428 Par ch=8 c=64 v=0
37440 On ch=8 n=57 v=100
37440 On ch=8 n=62 v=117
37440 On ch=8 n=50 v=127
37445 Par ch=8 c=7 v=118
37449 Par ch=8 c=64 v=127
37457 Par ch=8 c=7 v=117
37467 On ch=8 n=57 v=0
37470 On ch=8 n=62 v=0
37474 On ch=8 n=50 v=0
37479 Par ch=8 c=7 v=116
37494 Par ch=8 c=7 v=115
37500 On ch=8 n=62 v=98
37500 On ch=8 n=50 v=120
37500 On ch=8 n=57 v=93
37510 On ch=8 n=62 v=0
37511 On ch=8 n=57 v=0
37512 On ch=8 n=50 v=0
37529 Par ch=8 c=7 v=114
37549 Par ch=8 c=7 v=113
37559 Par ch=8 c=64 v=0
37560 On ch=8 n=62 v=126
37560 On ch=8 n=66 v=127
37560 On ch=8 n=57 v=108
37560 On ch=8 n=50 v=111
37564 Par ch=8 c=7 v=112
37580 Par ch=8 c=64 v=127
37593 On ch=8 n=57 v=0
37596 On ch=8 n=62 v=0
37596 On ch=8 n=66 v=0
37616 Par ch=8 c=7 v=111
37620 On ch=8 n=66 v=122
37620 On ch=8 n=62 v=111
37620 On ch=8 n=57 v=77
37620 On ch=8 n=50 v=0
37629 On ch=8 n=62 v=0
37630 On ch=8 n=66 v=0
37630 On ch=8 n=57 v=0
37636 Par ch=8 c=7 v=110
37650 On ch=8 n=66 v=111
37650 On ch=8 n=62 v=100
37650 On ch=8 n=57 v=60
37659 Par ch=8 c=7 v=109
37659 On ch=8 n=57 v=0
37659 On ch=8 n=62 v=0
37663 On ch=8 n=66 v=0
37668 Par ch=8 c=7 v=108
37673 Par ch=8 c=7 v=107
37678 Par ch=8 c=64 v=0
37680 On ch=8 n=67 v=127
37680 On ch=8 n=50 v=113
37680 On ch=8 n=57 v=98
37680 On ch=8 n=62 v=126
37690 Par ch=8 c=7 v=106
37699 Par ch=8 c=64 v=127
37699 Par ch=8 c=7 v=105
37716 On ch=8 n=57 v=0
37719 On ch=8 n=62 v=0
37719 On ch=8 n=67 v=0
37729 Par ch=8 c=7 v=104
37740 On ch=8 n=66 v=127
37740 On ch=8 n=62 v=117
37740 On ch=8 n=57 v=98
37740 Par ch=8 c=7 v=103
37748 Par ch=8 c=7 v=102
37748 On ch=8 n=50 v=0
37754 On ch=8 n=57 v=0
37755 On ch=8 n=62 v=0
37758 On ch=8 n=66 v=0
37760 Par ch=8 c=7 v=101
37775 Par ch=8 c=7 v=100
37785 Par ch=8 c=7 v=99
37790 Par ch=8 c=7 v=98
37795 Par ch=8 c=64 v=0
37800 On ch=8 n=50 v=103
37800 On ch=8 n=62 v=103
37800 On ch=8 n=57 v=96
37800 On ch=8 n=64 v=120
37800 Par ch=8 c=7 v=97
37817 Par ch=8 c=64 v=127
37817 Par ch=8 c=7 v=96
37821 On ch=8 n=57 v=0
37823 On ch=8 n=62 v=0
37827 On ch=8 n=64 v=0
37828 Par ch=8 c=7 v=95
37846 Par ch=8 c=7 v=94
37851 Par ch=8 c=7 v=93
37860 On ch=8 n=66 v=104
37860 On ch=8 n=62 v=106
37860 On ch=8 n=57 v=96
37861 On ch=8 n=50 v=0
37870 On ch=8 n=62 v=0
37871 On ch=8 n=57 v=0
37873 On ch=8 n=66 v=0
37878 Par ch=8 c=7 v=92
37893 Par ch=8 c=7 v=91
37910 Par ch=8 c=64 v=0
37915 Par ch=8 c=7 v=90
37920 On ch=8 n=55 v=117
37920 On ch=8 n=62 v=127
37920 On ch=8 n=67 v=120
37937 Par ch=8 c=7 v=89
37940 Par ch=8 c=7 v=88
37966 Par ch=8 c=7 v=87
38005 Par ch=8 c=7 v=86
38017 Par ch=8 c=7 v=85
38024 On ch=8 n=67 v=0
38025 Par ch=8 c=7 v=84
38025 On ch=8 n=62 v=0
38025 On ch=8 n=55 v=0
38033 On ch=8 n=67 v=117
38033 On ch=8 n=62 v=117
38034 On ch=8 n=55 v=117
38034 Par ch=8 c=7 v=83
38054 Par ch=8 c=7 v=82
38075 Par ch=8 c=7 v=81
38089 Par ch=8 c=64 v=127
38089 Par ch=8 c=7 v=80
38094 Par ch=8 c=7 v=79
38111 Par ch=8 c=7 v=78
38125 Par ch=8 c=7 v=77
38125 On ch=8 n=67 v=0
38129 On ch=8 n=62 v=0
38134 On ch=8 n=55 v=0
38139 Par ch=8 c=7 v=76
38144 Par ch=8 c=7 v=75
38149 Par ch=8 c=7 v=74
38154 On ch=8 n=67 v=113
38155 On ch=8 n=62 v=108
38156 On ch=8 n=55 v=111
38156 Par ch=8 c=64 v=0
38170 Par ch=8 c=7 v=73
38190 Par ch=8 c=7 v=72
38203 Par ch=8 c=64 v=127
38203 Par ch=8 c=7 v=71
38210 On ch=8 n=67 v=0
38211 Par ch=8 c=7 v=70
38211 On ch=8 n=62 v=0
38220 On ch=8 n=67 v=106
38220 On ch=8 n=62 v=123
38225 Par ch=8 c=7 v=69
38228 Par ch=8 c=7 v=68
38239 Par ch=8 c=7 v=67
38242 On ch=8 n=62 v=0
38245 On ch=8 n=67 v=0
38246 On ch=8 n=55 v=0
38252 Par ch=8 c=7 v=66
38259 Par ch=8 c=7 v=65
38274 Par ch=8 c=7 v=64
38280 On ch=8 n=67 v=117
38280 On ch=8 n=62 v=117
38280 On ch=8 n=55 v=103
38285 Par ch=8 c=7 v=63
38295 On ch=8 n=62 v=0
38297 On ch=8 n=55 v=0
38298 On ch=8 n=67 v=0
38310 On ch=8 n=67 v=93
38310 On ch=8 n=62 v=106
38310 On ch=8 n=55 v=70
38315 Par ch=8 c=7 v=62
38325 On ch=8 n=62 v=0
38326 On ch=8 n=55 v=0
38327 On ch=8 n=67 v=0
38333 On ch=8 n=55 v=93
38334 Par ch=8 c=7 v=61
38340 On ch=8 n=62 v=111
38340 On ch=8 n=67 v=108
38340 Par ch=8 c=7 v=60
38347 Par ch=8 c=7 v=59
38347 On ch=8 n=55 v=0
38352 Par ch=8 c=7 v=58
38354 On ch=8 n=62 v=0
38356 On ch=8 n=67 v=0
38365 On ch=8 n=62 v=113
38365 On ch=8 n=67 v=113
38365 On ch=8 n=55 v=100
38365 Par ch=8 c=7 v=57
38376 Par ch=8 c=7 v=56
38379 On ch=8 n=62 v=0
38380 Par ch=8 c=7 v=55
38380 On ch=8 n=55 v=0
38380 On ch=8 n=67 v=0
38385 Par ch=8 c=7 v=54
38397 Par ch=8 c=64 v=0
38397 Par ch=8 c=7 v=53
38405 Par ch=8 c=7 v=52
38410 Par ch=8 c=7 v=51
38428 Par ch=8 c=7 v=50
38443 Par ch=8 c=7 v=49
38460 On ch=8 n=50 v=111
38460 Par ch=8 c=7 v=48
38471 Par ch=8 c=7 v=47
38476 Par ch=8 c=7 v=46
38490 Par ch=8 c=7 v=45
38510 Par ch=8 c=7 v=44
38520 On ch=8 n=62 v=127
38520 On ch=8 n=66 v=127
38520 On ch=8 n=57 v=117
38531 Par ch=8 c=64 v=127
38532 Par ch=8 c=7 v=43
38546 Par ch=8 c=7 v=42
38553 Par ch=8 c=7 v=41
38577 On ch=8 n=57 v=0
38577 On ch=8 n=62 v=0
38578 On ch=8 n=66 v=0
38582 Par ch=8 c=7 v=40
38585 On ch=8 n=50 v=0
38606 Par ch=8 c=7 v=39
38624 Par ch=8 c=7 v=38
38628 Par ch=8 c=64 v=0
38631 Par ch=8 c=7 v=37
38640 On ch=8 n=67 v=113
38640 On ch=8 n=62 v=126
38640 On ch=8 n=50 v=89
38640 On ch=8 n=57 v=106
38643 Par ch=8 c=7 v=36
38661 Par ch=8 c=7 v=35
38674 Par ch=8 c=7 v=34
38684 Par ch=8 c=7 v=33
38689 Par ch=8 c=7 v=32
38695 On ch=8 n=67 v=0
38700 On ch=8 n=66 v=122
38705 Par ch=8 c=7 v=31
38725 Par ch=8 c=64 v=127
38730 Par ch=8 c=7 v=30
38740 Par ch=8 c=7 v=29
38747 On ch=8 n=66 v=0
38760 On ch=8 n=64 v=120
38763 Par ch=8 c=7 v=28
38776 On ch=8 n=62 v=0
38780 Par ch=8 c=7 v=27
38780 On ch=8 n=57 v=0
38783 On ch=8 n=50 v=0
38790 On ch=8 n=64 v=0
38795 Par ch=8 c=7 v=26
38806 Par ch=8 c=7 v=25
38820 On ch=8 n=66 v=127
38820 Par ch=8 c=7 v=24
38820 Par ch=8 c=7 v=23
38832 Par ch=8 c=7 v=22
38837 Par ch=8 c=7 v=21
38837 On ch=8 n=66 v=0
38857 Par ch=8 c=7 v=20
38861 Par ch=8 c=64 v=0
38865 Par ch=8 c=7 v=19
38869 Par ch=8 c=7 v=18
38880 On ch=8 n=43 v=85
38880 On ch=8 n=47 v=108
38880 On ch=8 n=50 v=103
38880 Par ch=8 c=7 v=17
38886 Par ch=8 c=64 v=127
38899 Par ch=8 c=7 v=16
38907 On ch=8 n=50 v=0
38907 On ch=8 n=47 v=0
38912 Par ch=8 c=7 v=15
38912 On ch=8 n=43 v=0
38927 Par ch=8 c=7 v=14
38927 Par ch=8 c=7 v=13
38940 On ch=8 n=43 v=62
38940 On ch=8 n=47 v=98
38940 On ch=8 n=50 v=91
38940 Par ch=8 c=7 v=12
38951 Par ch=8 c=7 v=11
38965 Par ch=8 c=7 v=10
38968 On ch=8 n=50 v=0
38968 On ch=8 n=47 v=0
38969 On ch=8 n=43 v=0
38979 Par ch=8 c=7 v=9
38984 Par ch=8 c=7 v=8
38994 Par ch=8 c=7 v=7
39000 On ch=8 n=67 v=120
39000 On ch=8 n=62 v=127
39000 On ch=8 n=55 v=103
39000 Par ch=8 c=64 v=0
39011 Par ch=8 c=7 v=6
39025 Par ch=8 c=64 v=127
39025 Par ch=8 c=7 v=5
39035 Par ch=8 c=7 v=4
39044 On ch=8 n=62 v=0
39044 On ch=8 n=67 v=0
39049 Par ch=8 c=7 v=3
39049 On ch=8 n=55 v=0
39060 On ch=8 n=55 v=75
39060 On ch=8 n=67 v=91
39060 On ch=8 n=62 v=103
39072 Par ch=8 c=7 v=2
39075 On ch=8 n=55 v=0
39076 On ch=8 n=62 v=0
39077 On ch=8 n=67 v=0
39098 Par ch=8 c=7 v=1
39114 Par ch=8 c=64 v=0
39121 On ch=8 n=50 v=106
39122 On ch=8 n=55 v=111
39131 Par ch=8 c=64 v=127
39137 On ch=8 n=55 v=0
39138 On ch=8 n=50 v=0
39139 Par ch=8 c=7 v=0
39148 On ch=8 n=50 v=78
39148 On ch=8 n=55 v=65
39160 On ch=8 n=50 v=0
39161 On ch=8 n=55 v=0
39176 On ch=8 n=50 v=98
39176 On ch=8 n=55 v=75
39187 On ch=8 n=50 v=0
39189 On ch=8 n=55 v=0
39203 On ch=8 n=50 v=89
39203 On ch=8 n=55 v=80
39213 On ch=8 n=50 v=0
39217 On ch=8 n=55 v=0
39231 On ch=8 n=50 v=96
39234 On ch=8 n=55 v=83
39243 On ch=8 n=50 v=0
39246 On ch=8 n=55 v=0
39261 On ch=8 n=50 v=85
39264 On ch=8 n=55 v=78
39274 On ch=8 n=50 v=0
39277 On ch=8 n=55 v=0
39292 On ch=8 n=47 v=111
39316 On ch=8 n=47 v=0
39330 On ch=8 n=50 v=93
39349 On ch=8 n=50 v=0
39350 Par ch=8 c=64 v=0
39350 Meta TrkEnd
TrkEnd
MTrk
0 Meta 0x21 00
0 Meta TrkName "Bass"
0 PrCh ch=9 p=33
0 Par ch=9 c=7 v=120
12480 On ch=9 n=50 v=117
12714 On ch=9 n=50 v=0
12720 On ch=9 n=48 v=127
12765 Par ch=9 c=64 v=127
12804 On ch=9 n=48 v=0
12840 On ch=9 n=48 v=127
12840 Par ch=9 c=64 v=0
12883 Par ch=9 c=64 v=127
12902 On ch=9 n=48 v=0
12959 Par ch=9 c=64 v=0
12960 On ch=9 n=43 v=120
12984 Par ch=9 c=64 v=127
13020 On ch=9 n=43 v=0
13077 Par ch=9 c=64 v=0
13080 On ch=9 n=43 v=117
13098 Par ch=9 c=64 v=127
13140 On ch=9 n=43 v=0
13187 Par ch=9 c=64 v=0
13440 On ch=9 n=50 v=123
13592 Par ch=9 c=64 v=127
13629 On ch=9 n=50 v=0
13672 Par ch=9 c=64 v=0
13680 On ch=9 n=48 v=123
13735 Par ch=9 c=64 v=127
13752 On ch=9 n=48 v=0
13800 On ch=9 n=48 v=127
13803 Par ch=9 c=64 v=0
13875 On ch=9 n=48 v=0
13920 On ch=9 n=43 v=127
13977 On ch=9 n=43 v=0
14036 On ch=9 n=43 v=113
14095 On ch=9 n=43 v=0
14396 On ch=9 n=50 v=111
14637 On ch=9 n=50 v=0
14638 On ch=9 n=48 v=86
14690 Par ch=9 c=64 v=127
14712 On ch=9 n=48 v=0
14760 On ch=9 n=48 v=83
14762 Par ch=9 c=64 v=0
14800 Par ch=9 c=64 v=127
14820 On ch=9 n=48 v=0
14872 Par ch=9 c=64 v=0
14873 On ch=9 n=43 v=100
14906 Par ch=9 c=64 v=127
14941 On ch=9 n=43 v=0
14992 On ch=9 n=43 v=98
14994 Par ch=9 c=64 v=0
15091 On ch=9 n=43 v=0
15355 On ch=9 n=50 v=98
15505 Par ch=9 c=64 v=127
15542 On ch=9 n=50 v=0
15595 On ch=9 n=48 v=86
15598 Par ch=9 c=64 v=0
15648 Par ch=9 c=64 v=127
15670 On ch=9 n=48 v=0
15718 On ch=9 n=48 v=98
15725 Par ch=9 c=64 v=0
15767 Par ch=9 c=64 v=127
15769 On ch=9 n=48 v=0
15833 On ch=9 n=43 v=113
15839 Par ch=9 c=64 v=0
15872 Par ch=9 c=64 v=127
15899 On ch=9 n=43 v=0
15955 On ch=9 n=43 v=106
15961 Par ch=9 c=64 v=0
16065 On ch=9 n=43 v=0
16317 On ch=9 n=50 v=93
16467 Par ch=9 c=64 v=127
16507 On ch=9 n=50 v=0
16557 On ch=9 n=48 v=93
16560 Par ch=9 c=64 v=0
16615 Par ch=9 c=64 v=127
16632 On ch=9 n=48 v=0
16677 On ch=9 n=48 v=111
16683 Par ch=9 c=64 v=0
16729 Par ch=9 c=64 v=127
16739 On ch=9 n=48 v=0
16795 On ch=9 n=43 v=111
16797 Par ch=9 c=64 v=0
16847 Par ch=9 c=64 v=127
16868 On ch=9 n=43 v=0
16913 On ch=9 n=43 v=117
16919 Par ch=9 c=64 v=0
16982 On ch=9 n=43 v=0
17275 On ch=9 n=50 v=106
17447 Par ch=9 c=64 v=127
17470 On ch=9 n=50 v=0
17515 On ch=9 n=48 v=103
17519 Par ch=9 c=64 v=0
17570 Par ch=9 c=64 v=127
17594 On ch=9 n=48 v=0
17640 On ch=9 n=48 v=96
17645 Par ch=9 c=64 v=0
17687 Par ch=9 c=64 v=127
17695 On ch=9 n=48 v=0
17751 On ch=9 n=43 v=108
17759 Par ch=9 c=64 v=0
17793 Par ch=9 c=64 v=127
17822 On ch=9 n=43 v=0
17874 On ch=9 n=43 v=108
17878 Par ch=9 c=64 v=0
17936 On ch=9 n=43 v=0
18239 On ch=9 n=50 v=100
18397 Par ch=9 c=64 v=127
18424 On ch=9 n=50 v=0
18477 On ch=9 n=48 v=89
18481 Par ch=9 c=64 v=0
18528 Par ch=9 c=64 v=127
18548 On ch=9 n=48 v=0
18598 On ch=9 n=48 v=89
18604 Par ch=9 c=64 v=0
18629 Par ch=9 c=64 v=127
18660 On ch=9 n=48 v=0
18705 Par ch=9 c=64 v=0
18723 On ch=9 n=43 v=91
18753 Par ch=9 c=64 v=127
18781 On ch=9 n=43 v=0
18833 Par ch=9 c=64 v=0
18835 On ch=9 n=43 v=117
18950 On ch=9 n=43 v=0
19192 On ch=9 n=50 v=111
19365 Par ch=9 c=64 v=127
19392 On ch=9 n=50 v=0
19437 On ch=9 n=48 v=108
19440 Par ch=9 c=64 v=0
19483 Par ch=9 c=64 v=127
19506 On ch=9 n=48 v=0
19554 On ch=9 n=48 v=103
19563 Par ch=9 c=64 v=0
19584 Par ch=9 c=64 v=127
19625 On ch=9 n=48 v=0
19675 On ch=9 n=43 v=98
19681 Par ch=9 c=64 v=0
19711 Par ch=9 c=64 v=127
19752 On ch=9 n=43 v=0
19796 On ch=9 n=43 v=106
19799 Par ch=9 c=64 v=0
19902 On ch=9 n=43 v=0
20151 On ch=9 n=38 v=100
20340 Par ch=9 c=64 v=127
20359 On ch=9 n=38 v=0
20394 On ch=9 n=36 v=100
20394 Par ch=9 c=64 v=0
20466 Par ch=9 c=64 v=127
20485 On ch=9 n=36 v=0
20517 On ch=9 n=36 v=96
20521 Par ch=9 c=64 v=0
20555 Par ch=9 c=64 v=127
20576 On ch=9 n=36 v=0
20633 On ch=9 n=31 v=98
20635 Par ch=9 c=64 v=0
20673 Par ch=9 c=64 v=127
20714 On ch=9 n=31 v=0
20755 On ch=9 n=31 v=93
20758 Par ch=9 c=64 v=0
20865 On ch=9 n=31 v=0
21114 On ch=9 n=38 v=106
21361 On ch=9 n=38 v=0
22076 Par ch=9 c=64 v=127
22139 Par ch=9 c=64 v=0
22228 Par ch=9 c=64 v=127
22312 Par ch=9 c=64 v=0
22334 Par ch=9 c=64 v=127
22380 Par ch=9 c=64 v=0
22443 Par ch=9 c=64 v=127
22553 On ch=9 n=31 v=111
22553 Par ch=9 c=64 v=0
22933 Par ch=9 c=64 v=127
22973 On ch=9 n=31 v=0
23030 Par ch=9 c=64 v=0
23033 On ch=9 n=38 v=106
23153 Par ch=9 c=64 v=127
23172 On ch=9 n=38 v=0
23213 On ch=9 n=38 v=91
23223 On ch=9 n=38 v=0
23270 Par ch=9 c=64 v=0
23272 On ch=9 n=38 v=108
23288 Par ch=9 c=64 v=127
23295 On ch=9 n=38 v=0
23331 On ch=9 n=38 v=106
23338 Par ch=9 c=64 v=0
23406 Par ch=9 c=64 v=127
23419 On ch=9 n=38 v=0
23454 On ch=9 n=38 v=106
23507 Par ch=9 c=64 v=0
23511 On ch=9 n=38 v=0
23512 On ch=9 n=31 v=108
23513 On ch=9 n=43 v=96
23970 On ch=9 n=31 v=0
23972 On ch=9 n=43 v=0
24000 On ch=9 n=38 v=98
24129 Par ch=9 c=64 v=127
24137 On ch=9 n=38 v=0
24298 Par ch=9 c=64 v=0
24357 Par ch=9 c=64 v=127
24472 Par ch=9 c=64 v=0
24480 On ch=9 n=31 v=108
24480 On ch=9 n=43 v=91
24851 Par ch=9 c=64 v=127
24896 On ch=9 n=31 v=0
24902 On ch=9 n=43 v=0
24953 Par ch=9 c=64 v=0
24960 On ch=9 n=38 v=100
25084 Par ch=9 c=64 v=127
25108 On ch=9 n=38 v=0
25140 On ch=9 n=38 v=96
25151 On ch=9 n=38 v=0
25200 On ch=9 n=38 v=100
25214 On ch=9 n=38 v=0
25260 On ch=9 n=38 v=103
25278 On ch=9 n=38 v=0
25380 On ch=9 n=38 v=106
25398 On ch=9 n=38 v=0
25434 Par ch=9 c=64 v=0
25440 On ch=9 n=31 v=98
25440 On ch=9 n=43 v=98
25910 On ch=9 n=43 v=0
25910 On ch=9 n=31 v=0
27118 On ch=9 n=48 v=86
27170 Par ch=9 c=64 v=127
27192 On ch=9 n=48 v=0
27240 On ch=9 n=48 v=83
27242 Par ch=9 c=64 v=0
27280 Par ch=9 c=64 v=127
27300 On ch=9 n=48 v=0
27352 Par ch=9 c=64 v=0
27353 On ch=9 n=43 v=100
27386 Par ch=9 c=64 v=127
27421 On ch=9 n=43 v=0
27472 On ch=9 n=43 v=98
27474 Par ch=9 c=64 v=0
27571 On ch=9 n=43 v=0
27835 On ch=9 n=50 v=98
27985 Par ch=9 c=64 v=127
28022 On ch=9 n=50 v=0
28075 On ch=9 n=48 v=86
28078 Par ch=9 c=64 v=0
28128 Par ch=9 c=64 v=127
28150 On ch=9 n=48 v=0
28198 On ch=9 n=48 v=98
28205 Par ch=9 c=64 v=0
28247 Par ch=9 c=64 v=127
28249 On ch=9 n=48 v=0
28313 On ch=9 n=43 v=113
28319 Par ch=9 c=64 v=0
28352 Par ch=9 c=64 v=127
28379 On ch=9 n=43 v=0
28435 On ch=9 n=43 v=106
28441 Par ch=9 c=64 v=0
28545 On ch=9 n=43 v=0
28797 On ch=9 n=50 v=93
28947 Par ch=9 c=64 v=127
28987 On ch=9 n=50 v=0
29037 On ch=9 n=48 v=93
29040 Par ch=9 c=64 v=0
29095 Par ch=9 c=64 v=127
29112 On ch=9 n=48 v=0
29157 On ch=9 n=48 v=111
29163 Par ch=9 c=64 v=0
29209 Par ch=9 c=64 v=127
29219 On ch=9 n=48 v=0
29275 On ch=9 n=43 v=111
29277 Par ch=9 c=64 v=0
29327 Par ch=9 c=64 v=127
29348 On ch=9 n=43 v=0
29393 On ch=9 n=43 v=117
29399 Par ch=9 c=64 v=0
29462 On ch=9 n=43 v=0
29755 On ch=9 n=50 v=106
29927 Par ch=9 c=64 v=127
29950 On ch=9 n=50 v=0
29995 On ch=9 n=48 v=103
29999 Par ch=9 c=64 v=0
30050 Par ch=9 c=64 v=127
30074 On ch=9 n=48 v=0
30120 On ch=9 n=48 v=96
30125 Par ch=9 c=64 v=0
30167 Par ch=9 c=64 v=127
30175 On ch=9 n=48 v=0
30231 On ch=9 n=43 v=108
30239 Par ch=9 c=64 v=0
30273 Par ch=9 c=64 v=127
30302 On ch=9 n=43 v=0
30354 On ch=9 n=43 v=108
30358 Par ch=9 c=64 v=0
30416 On ch=9 n=43 v=0
30719 On ch=9 n=50 v=100
30877 Par ch=9 c=64 v=127
30904 On ch=9 n=50 v=0
30957 On ch=9 n=48 v=89
30961 Par ch=9 c=64 v=0
31008 Par ch=9 c=64 v=127
31028 On ch=9 n=48 v=0
31078 On ch=9 n=48 v=89
31084 Par ch=9 c=64 v=0
31109 Par ch=9 c=64 v=127
31140 On ch=9 n=48 v=0
31185 Par ch=9 c=64 v=0
31203 On ch=9 n=43 v=91
31233 Par ch=9 c=64 v=127
31261 On ch=9 n=43 v=0
31313 Par ch=9 c=64 v=0
31315 On ch=9 n=43 v=117
31430 On ch=9 n=43 v=0
31672 On ch=9 n=50 v=111
31845 Par ch=9 c=64 v=127
31872 On ch=9 n=50 v=0
31917 On ch=9 n=48 v=108
31920 Par ch=9 c=64 v=0
31963 Par ch=9 c=64 v=127
31986 On ch=9 n=48 v=0
32034 On ch=9 n=48 v=103
32043 Par ch=9 c=64 v=0
32064 Par ch=9 c=64 v=127
32105 On ch=9 n=48 v=0
32155 On ch=9 n=43 v=98
32161 Par ch=9 c=64 v=0
32191 Par ch=9 c=64 v=127
32232 On ch=9 n=43 v=0
32276 On ch=9 n=43 v=106
32279 Par ch=9 c=64 v=0
32382 On ch=9 n=43 v=0
32631 On ch=9 n=38 v=100
32820 Par ch=9 c=64 v=127
32839 On ch=9 n=38 v=0
32874 On ch=9 n=36 v=100
32874 Par ch=9 c=64 v=0
32946 Par ch=9 c=64 v=127
32965 On ch=9 n=36 v=0
32997 On ch=9 n=36 v=96
33001 Par ch=9 c=64 v=0
33035 Par ch=9 c=64 v=127
33056 On ch=9 n=36 v=0
33113 On ch=9 n=31 v=98
33115 Par ch=9 c=64 v=0
33153 Par ch=9 c=64 v=127
33194 On ch=9 n=31 v=0
33235 On ch=9 n=31 v=93
33238 Par ch=9 c=64 v=0
33345 On ch=9 n=31 v=0
33594 On ch=9 n=38 v=106
33841 On ch=9 n=38 v=0
34556 Par ch=9 c=64 v=127
34619 Par ch=9 c=64 v=0
34708 Par ch=9 c=64 v=127
34792 Par ch=9 c=64 v=0
34814 Par ch=9 c=64 v=127
34860 Par ch=9 c=64 v=0
34923 Par ch=9 c=64 v=127
35033 On ch=9 n=31 v=111
35033 Par ch=9 c=64 v=0
35413 Par ch=9 c=64 v=127
35453 On ch=9 n=31 v=0
35510 Par ch=9 c=64 v=0
35513 On ch=9 n=38 v=106
35633 Par ch=9 c=64 v=127
35652 On ch=9 n=38 v=0
35693 On ch=9 n=38 v=91
35703 On ch=9 n=38 v=0
35750 Par ch=9 c=64 v=0
35752 On ch=9 n=38 v=108
35768 Par ch=9 c=64 v=127
35775 On ch=9 n=38 v=0
35811 On ch=9 n=38 v=106
35818 Par ch=9 c=64 v=0
35886 Par ch=9 c=64 v=127
35899 On ch=9 n=38 v=0
35934 On ch=9 n=38 v=106
35987 Par ch=9 c=64 v=0
35991 On ch=9 n=38 v=0
35992 On ch=9 n=31 v=108
35993 On ch=9 n=43 v=96
36450 On ch=9 n=31 v=0
36452 On ch=9 n=43 v=0
36609 Par ch=9 c=64 v=127
36778 Par ch=9 c=64 v=0
36837 Par ch=9 c=64 v=127
36952 Par ch=9 c=64 v=0
36960 On ch=9 n=31 v=108
36960 On ch=9 n=43 v=91
37325 Par ch=9 c=7 v=124
37331 Par ch=9 c=64 v=127
37344 Par ch=9 c=7 v=123
37350 Par ch=9 c=7 v=120
37350 Par ch=9 c=7 v=119
37368 Par ch=9 c=7 v=118
37376 On ch=9 n=31 v=0
37382 On ch=9 n=43 v=0
37395 Par ch=9 c=7 v=117
37424 Par ch=9 c=7 v=116
37433 Par ch=9 c=64 v=0
37440 On ch=9 n=38 v=100
37449 Par ch=9 c=7 v=115
37484 Par ch=9 c=7 v=114
37494 Par ch=9 c=7 v=113
37510 Par ch=9 c=7 v=112
37529 Par ch=9 c=7 v=111
37554 Par ch=9 c=7 v=110
37564 Par ch=9 c=64 v=127
37574 Par ch=9 c=7 v=109
37588 On ch=9 n=38 v=0
37593 Par ch=9 c=7 v=108
37601 Par ch=9 c=7 v=107
37620 On ch=9 n=38 v=96
37625 Par ch=9 c=7 v=106
37631 On ch=9 n=38 v=0
37668 Par ch=9 c=7 v=105
37680 On ch=9 n=38 v=100
37694 On ch=9 n=38 v=0
37697 Par ch=9 c=7 v=104
37724 Par ch=9 c=7 v=103
37729 Par ch=9 c=7 v=102
37740 On ch=9 n=38 v=103
37745 Par ch=9 c=7 v=101
37758 On ch=9 n=38 v=0
37765 Par ch=9 c=7 v=100
37795 Par ch=9 c=7 v=99
37817 Par ch=9 c=7 v=98
37828 Par ch=9 c=7 v=97
37841 Par ch=9 c=7 v=96
37860 On ch=9 n=38 v=106
37878 On ch=9 n=38 v=0
37888 Par ch=9 c=7 v=95
37914 Par ch=9 c=64 v=0
37971 Par ch=9 c=7 v=94
37976 Par ch=9 c=7 v=93
37980 Par ch=9 c=7 v=92
38000 Par ch=9 c=7 v=91
38030 Par ch=9 c=7 v=90
38045 Par ch=9 c=7 v=89
38054 Par ch=9 c=7 v=88
38059 Par ch=9 c=7 v=87
38070 Par ch=9 c=7 v=86
38101 Par ch=9 c=7 v=85
38111 Par ch=9 c=7 v=84
38134 Par ch=9 c=7 v=83
38156 Par ch=9 c=7 v=82
38185 Par ch=9 c=7 v=81
38185 Par ch=9 c=7 v=80
38190 Par ch=9 c=7 v=79
38203 Par ch=9 c=7 v=78
38216 Par ch=9 c=7 v=77
38242 Par ch=9 c=7 v=76
38251 Par ch=9 c=7 v=75
38252 Par ch=9 c=7 v=74
38259 Par ch=9 c=7 v=73
38269 Par ch=9 c=7 v=72
38278 Par ch=9 c=7 v=71
38285 Par ch=9 c=7 v=70
38305 Par ch=9 c=7 v=69
38320 Par ch=9 c=7 v=68
38327 Par ch=9 c=7 v=67
38345 Par ch=9 c=7 v=66
38354 Par ch=9 c=7 v=65
38400 Par ch=9 c=7 v=64
38433 Par ch=9 c=7 v=63
38443 Par ch=9 c=7 v=62
38456 On ch=9 n=38 v=108
38456 Par ch=9 c=7 v=61
38459 Par ch=9 c=64 v=0
38460 Par ch=9 c=7 v=60
38460 Par ch=9 c=7 v=59
38470 Par ch=9 c=7 v=58
38480 Par ch=9 c=7 v=57
38500 Par ch=9 c=7 v=56
38505 Par ch=9 c=7 v=55
38510 Par ch=9 c=7 v=54
38515 Par ch=9 c=7 v=53
38515 Par ch=9 c=7 v=52
38525 Par ch=9 c=7 v=51
38541 Par ch=9 c=7 v=50
38548 Par ch=9 c=64 v=127
38558 Par ch=9 c=7 v=49
38563 Par ch=9 c=7 v=48
38573 Par ch=9 c=7 v=47
38582 Par ch=9 c=7 v=46
38582 On ch=9 n=38 v=0
38591 Par ch=9 c=7 v=45
38601 Par ch=9 c=7 v=44
38617 Par ch=9 c=7 v=43
38629 Par ch=9 c=7 v=42
38632 Par ch=9 c=64 v=0
38635 On ch=9 n=38 v=98
38641 Par ch=9 c=7 v=41
38654 Par ch=9 c=64 v=127
38661 Par ch=9 c=7 v=40
38664 On ch=9 n=38 v=0
38694 On ch=9 n=38 v=103
38694 Par ch=9 c=7 v=39
38700 Par ch=9 c=64 v=0
38710 Par ch=9 c=7 v=38
38719 Par ch=9 c=7 v=37
38747 Par ch=9 c=7 v=36
38763 Par ch=9 c=64 v=127
38768 Par ch=9 c=7 v=35
38788 Par ch=9 c=7 v=34
38801 Par ch=9 c=7 v=33
38811 Par ch=9 c=7 v=32
38832 Par ch=9 c=7 v=31
38857 Par ch=9 c=7 v=30
38865 Par ch=9 c=7 v=29
38873 On ch=9 n=31 v=111
38873 Par ch=9 c=64 v=0
38874 On ch=9 n=43 v=85
38874 On ch=9 n=38 v=0
38877 Par ch=9 c=7 v=28
38880 Par ch=9 c=7 v=27
38899 Par ch=9 c=7 v=26
38907 Par ch=9 c=7 v=25
38912 Par ch=9 c=7 v=24
38917 Par ch=9 c=7 v=23
38932 Par ch=9 c=7 v=22
38951 Par ch=9 c=7 v=21
38965 Par ch=9 c=7 v=20
38979 Par ch=9 c=7 v=19
38989 Par ch=9 c=7 v=18
39005 Par ch=9 c=7 v=17
39016 Par ch=9 c=7 v=16
39030 Par ch=9 c=7 v=15
39044 Par ch=9 c=7 v=14
39044 Par ch=9 c=7 v=13
39060 Par ch=9 c=7 v=12
39069 Par ch=9 c=7 v=11
39077 Par ch=9 c=7 v=10
39093 Par ch=9 c=7 v=9
39098 Par ch=9 c=7 v=8
39114 Par ch=9 c=7 v=7
39127 Par ch=9 c=7 v=6
39144 Par ch=9 c=7 v=5
39149 Par ch=9 c=7 v=4
39170 Par ch=9 c=7 v=3
39184 Par ch=9 c=7 v=2
39196 Par ch=9 c=7 v=1
39208 Par ch=9 c=7 v=0
39253 Par ch=9 c=64 v=127
39293 On ch=9 n=43 v=0
39293 On ch=9 n=31 v=0
39350 Par ch=9 c=64 v=0
39353 On ch=9 n=38 v=106
39492 On ch=9 n=38 v=0
39492 Meta TrkEnd
TrkEnd
MTrk
0 Meta 0x21 00
0 Meta TrkName "Highhats"
0 Par ch=10 c=7 v=120
12480 On ch=10 n=49 v=127
12501 On ch=10 n=49 v=0
12540 On ch=10 n=42 v=107
12550 On ch=10 n=42 v=0
12600 On ch=10 n=42 v=127
12611 On ch=10 n=42 v=0
12660 On ch=10 n=42 v=111
12671 On ch=10 n=42 v=0
12720 On ch=10 n=42 v=127
12734 On ch=10 n=42 v=0
12780 On ch=10 n=42 v=107
12787 On ch=10 n=42 v=0
12840 On ch=10 n=42 v=125
12854 On ch=10 n=42 v=0
12900 On ch=10 n=42 v=119
12911 On ch=10 n=42 v=0
12960 On ch=10 n=42 v=127
12974 On ch=10 n=42 v=0
13020 On ch=10 n=42 v=111
13030 On ch=10 n=42 v=0
13080 On ch=10 n=42 v=127
13093 On ch=10 n=42 v=0
13140 On ch=10 n=42 v=119
13150 On ch=10 n=42 v=0
13200 On ch=10 n=42 v=127
13213 On ch=10 n=42 v=0
13260 On ch=10 n=42 v=122
13270 On ch=10 n=42 v=0
13320 On ch=10 n=42 v=127
13330 On ch=10 n=42 v=0
13380 On ch=10 n=42 v=107
13389 On ch=10 n=42 v=0
13440 On ch=10 n=49 v=127
13454 On ch=10 n=49 v=0
13500 On ch=10 n=42 v=107
13511 On ch=10 n=42 v=0
13560 On ch=10 n=42 v=127
13572 On ch=10 n=42 v=0
13620 On ch=10 n=42 v=119
13631 On ch=10 n=42 v=0
13680 On ch=10 n=42 v=127
13691 On ch=10 n=42 v=0
13740 On ch=10 n=42 v=125
13751 On ch=10 n=42 v=0
13800 On ch=10 n=42 v=127
13811 On ch=10 n=42 v=0
13860 On ch=10 n=42 v=127
13869 On ch=10 n=42 v=0
13920 On ch=10 n=42 v=127
13934 On ch=10 n=42 v=0
13980 On ch=10 n=42 v=82
13991 On ch=10 n=42 v=0
14040 On ch=10 n=42 v=125
14052 On ch=10 n=42 v=0
14100 On ch=10 n=42 v=78
14110 On ch=10 n=42 v=0
14160 On ch=10 n=42 v=111
14172 On ch=10 n=42 v=0
14220 On ch=10 n=42 v=92
14230 On ch=10 n=42 v=0
14280 On ch=10 n=42 v=122
14292 On ch=10 n=42 v=0
14340 On ch=10 n=42 v=107
14350 On ch=10 n=42 v=0
14400 On ch=10 n=42 v=127
14411 On ch=10 n=42 v=0
14460 On ch=10 n=42 v=104
14471 On ch=10 n=42 v=0
14520 On ch=10 n=42 v=127
14532 On ch=10 n=42 v=0
14580 On ch=10 n=42 v=107
14590 On ch=10 n=42 v=0
14640 On ch=10 n=42 v=122
14652 On ch=10 n=42 v=0
14700 On ch=10 n=42 v=79
14712 On ch=10 n=42 v=0
14760 On ch=10 n=42 v=122
14774 On ch=10 n=42 v=0
14820 On ch=10 n=42 v=94
14833 On ch=10 n=42 v=0
14880 On ch=10 n=42 v=122
14893 On ch=10 n=42 v=0
14940 On ch=10 n=42 v=104
14950 On ch=10 n=42 v=0
15000 On ch=10 n=42 v=127
15014 On ch=10 n=42 v=0
15060 On ch=10 n=42 v=111
15071 On ch=10 n=42 v=0
15120 On ch=10 n=42 v=127
15134 On ch=10 n=42 v=0
15180 On ch=10 n=42 v=100
15193 On ch=10 n=42 v=0
15240 On ch=10 n=42 v=125
15254 On ch=10 n=42 v=0
15300 On ch=10 n=42 v=96
15313 On ch=10 n=42 v=0
15360 On ch=10 n=42 v=119
15373 On ch=10 n=42 v=0
15420 On ch=10 n=42 v=84
15432 On ch=10 n=42 v=0
15480 On ch=10 n=42 v=125
15494 On ch=10 n=42 v=0
15540 On ch=10 n=42 v=104
15551 On ch=10 n=42 v=0
15600 On ch=10 n=42 v=125
15614 On ch=10 n=42 v=0
15660 On ch=10 n=42 v=94
15672 On ch=10 n=42 v=0
15720 On ch=10 n=42 v=127
15734 On ch=10 n=42 v=0
15780 On ch=10 n=42 v=104
15792 On ch=10 n=42 v=0
15840 On ch=10 n=42 v=115
15854 On ch=10 n=42 v=0
15900 On ch=10 n=42 v=94
15912 On ch=10 n=42 v=0
15960 On ch=10 n=42 v=115
15974 On ch=10 n=42 v=0
16020 On ch=10 n=42 v=100
16033 On ch=10 n=42 v=0
16080 On ch=10 n=42 v=111
16095 On ch=10 n=42 v=0
16140 On ch=10 n=42 v=94
16154 On ch=10 n=42 v=0
16200 On ch=10 n=42 v=122
16214 On ch=10 n=42 v=0
16260 On ch=10 n=42 v=104
16271 On ch=10 n=42 v=0
16320 On ch=10 n=42 v=127
16333 On ch=10 n=42 v=0
16380 On ch=10 n=42 v=107
16393 On ch=10 n=42 v=0
16440 On ch=10 n=42 v=125
16455 On ch=10 n=42 v=0
16500 On ch=10 n=42 v=84
16513 On ch=10 n=42 v=0
16560 On ch=10 n=42 v=115
16575 On ch=10 n=42 v=0
16620 On ch=10 n=42 v=94
16633 On ch=10 n=42 v=0
16680 On ch=10 n=42 v=119
16695 On ch=10 n=42 v=0
16740 On ch=10 n=42 v=96
16752 On ch=10 n=42 v=0
16800 On ch=10 n=42 v=122
16814 On ch=10 n=42 v=0
16860 On ch=10 n=42 v=94
16873 On ch=10 n=42 v=0
16920 On ch=10 n=42 v=119
16935 On ch=10 n=42 v=0
16980 On ch=10 n=42 v=96
16993 On ch=10 n=42 v=0
17040 On ch=10 n=42 v=127
17051 On ch=10 n=42 v=0
17100 On ch=10 n=42 v=127
17158 On ch=10 n=42 v=0
17220 On ch=10 n=42 v=127
17233 On ch=10 n=42 v=0
17280 On ch=10 n=42 v=127
17292 On ch=10 n=42 v=0
17340 On ch=10 n=42 v=115
17352 On ch=10 n=42 v=0
17400 On ch=10 n=42 v=125
17413 On ch=10 n=42 v=0
17460 On ch=10 n=42 v=127
17471 On ch=10 n=42 v=0
17520 On ch=10 n=42 v=127
17533 On ch=10 n=42 v=0
17580 On ch=10 n=42 v=119
17591 On ch=10 n=42 v=0
17640 On ch=10 n=42 v=125
17654 On ch=10 n=42 v=0
17700 On ch=10 n=42 v=122
17712 On ch=10 n=42 v=0
17760 On ch=10 n=42 v=127
17775 On ch=10 n=42 v=0
17820 On ch=10 n=42 v=115
17833 On ch=10 n=42 v=0
17880 On ch=10 n=42 v=127
17895 On ch=10 n=42 v=0
17940 On ch=10 n=42 v=122
17953 On ch=10 n=42 v=0
18000 On ch=10 n=42 v=127
18012 On ch=10 n=42 v=0
18060 On ch=10 n=49 v=127
18068 On ch=10 n=49 v=0
18180 On ch=10 n=42 v=127
18190 On ch=10 n=42 v=0
18240 On ch=10 n=42 v=127
18240 On ch=10 n=49 v=127
18251 On ch=10 n=49 v=0
18251 On ch=10 n=42 v=0
18300 On ch=10 n=42 v=125
18310 On ch=10 n=42 v=0
18360 On ch=10 n=42 v=127
18374 On ch=10 n=42 v=0
18420 On ch=10 n=42 v=125
18433 On ch=10 n=42 v=0
18480 On ch=10 n=42 v=127
18493 On ch=10 n=42 v=0
18540 On ch=10 n=42 v=127
18552 On ch=10 n=42 v=0
18600 On ch=10 n=42 v=127
18613 On ch=10 n=42 v=0
18660 On ch=10 n=42 v=127
18671 On ch=10 n=42 v=0
18720 On ch=10 n=42 v=107
18733 On ch=10 n=42 v=0
18780 On ch=10 n=42 v=71
18790 On ch=10 n=42 v=0
18840 On ch=10 n=42 v=115
18854 On ch=10 n=42 v=0
18900 On ch=10 n=42 v=68
18912 On ch=10 n=42 v=0
18960 On ch=10 n=42 v=82
18973 On ch=10 n=42 v=0
19020 On ch=10 n=42 v=82
19033 On ch=10 n=42 v=0
19080 On ch=10 n=42 v=96
19093 On ch=10 n=42 v=0
19140 On ch=10 n=42 v=107
19151 On ch=10 n=42 v=0
19200 On ch=10 n=49 v=119
19211 On ch=10 n=49 v=0
19260 On ch=10 n=42 v=82
19270 On ch=10 n=42 v=0
19320 On ch=10 n=42 v=122
19333 On ch=10 n=42 v=0
19380 On ch=10 n=42 v=84
19392 On ch=10 n=42 v=0
19440 On ch=10 n=42 v=107
19453 On ch=10 n=42 v=0
19500 On ch=10 n=42 v=82
19511 On ch=10 n=42 v=0
19560 On ch=10 n=42 v=96
19571 On ch=10 n=42 v=0
19620 On ch=10 n=42 v=71
19632 On ch=10 n=42 v=0
19680 On ch=10 n=42 v=78
19693 On ch=10 n=42 v=0
19740 On ch=10 n=42 v=71
19750 On ch=10 n=42 v=0
19800 On ch=10 n=42 v=92
19814 On ch=10 n=42 v=0
19860 On ch=10 n=42 v=61
19873 On ch=10 n=42 v=0
19920 On ch=10 n=42 v=70
19933 On ch=10 n=42 v=0
19980 On ch=10 n=42 v=84
19990 On ch=10 n=42 v=0
20040 On ch=10 n=42 v=111
20053 On ch=10 n=42 v=0
20100 On ch=10 n=42 v=75
20111 On ch=10 n=42 v=0
20160 On ch=10 n=49 v=119
20172 On ch=10 n=49 v=0
20220 On ch=10 n=42 v=78
20230 On ch=10 n=42 v=0
20280 On ch=10 n=42 v=125
20293 On ch=10 n=42 v=0
20340 On ch=10 n=42 v=84
20353 On ch=10 n=42 v=0
20400 On ch=10 n=42 v=111
20413 On ch=10 n=42 v=0
20460 On ch=10 n=42 v=75
20472 On ch=10 n=42 v=0
20520 On ch=10 n=42 v=115
20532 On ch=10 n=42 v=0
20580 On ch=10 n=42 v=100
20591 On ch=10 n=42 v=0
20640 On ch=10 n=42 v=107
20654 On ch=10 n=42 v=0
20700 On ch=10 n=42 v=87
20711 On ch=10 n=42 v=0
20760 On ch=10 n=42 v=111
20773 On ch=10 n=42 v=0
20820 On ch=10 n=42 v=79
20833 On ch=10 n=42 v=0
20880 On ch=10 n=42 v=104
20895 On ch=10 n=42 v=0
20940 On ch=10 n=42 v=57
20953 On ch=10 n=42 v=0
21000 On ch=10 n=42 v=119
21012 On ch=10 n=42 v=0
21060 On ch=10 n=42 v=127
21072 On ch=10 n=42 v=0
21120 On ch=10 n=49 v=127
21133 On ch=10 n=49 v=0
22080 On ch=10 n=49 v=127
22098 On ch=10 n=49 v=0
22140 On ch=10 n=42 v=73
22151 On ch=10 n=42 v=0
22200 On ch=10 n=42 v=125
22212 On ch=10 n=42 v=0
22260 On ch=10 n=42 v=104
22271 On ch=10 n=42 v=0
22320 On ch=10 n=42 v=122
22333 On ch=10 n=42 v=0
22380 On ch=10 n=42 v=100
22392 On ch=10 n=42 v=0
22440 On ch=10 n=42 v=111
22453 On ch=10 n=42 v=0
22500 On ch=10 n=42 v=111
22512 On ch=10 n=42 v=0
22560 On ch=10 n=42 v=125
22572 On ch=10 n=42 v=0
22620 On ch=10 n=42 v=122
22631 On ch=10 n=42 v=0
22680 On ch=10 n=49 v=127
22691 On ch=10 n=49 v=0
23040 On ch=10 n=49 v=127
23051 On ch=10 n=49 v=0
23100 On ch=10 n=42 v=107
23110 On ch=10 n=42 v=0
23160 On ch=10 n=42 v=122
23172 On ch=10 n=42 v=0
23220 On ch=10 n=42 v=104
23233 On ch=10 n=42 v=0
23280 On ch=10 n=42 v=122
23291 On ch=10 n=42 v=0
23340 On ch=10 n=42 v=119
23352 On ch=10 n=42 v=0
23400 On ch=10 n=42 v=127
23413 On ch=10 n=42 v=0
23460 On ch=10 n=42 v=125
23471 On ch=10 n=42 v=0
23520 On ch=10 n=42 v=127
23533 On ch=10 n=42 v=0
23580 On ch=10 n=42 v=127
23592 On ch=10 n=42 v=0
23640 On ch=10 n=42 v=127
23654 On ch=10 n=42 v=0
24000 On ch=10 n=49 v=127
24015 On ch=10 n=49 v=0
24060 On ch=10 n=42 v=84
24069 On ch=10 n=42 v=0
24120 On ch=10 n=42 v=127
24131 On ch=10 n=42 v=0
24180 On ch=10 n=42 v=111
24190 On ch=10 n=42 v=0
24240 On ch=10 n=42 v=125
24251 On ch=10 n=42 v=0
24300 On ch=10 n=42 v=107
24311 On ch=10 n=42 v=0
24360 On ch=10 n=42 v=122
24372 On ch=10 n=42 v=0
24420 On ch=10 n=42 v=111
24432 On ch=10 n=42 v=0
24480 On ch=10 n=42 v=122
24493 On ch=10 n=42 v=0
24540 On ch=10 n=42 v=104
24550 On ch=10 n=42 v=0
24600 On ch=10 n=42 v=125
24613 On ch=10 n=42 v=0
24660 On ch=10 n=42 v=100
24672 On ch=10 n=42 v=0
24720 On ch=10 n=42 v=127
24731 On ch=10 n=42 v=0
24780 On ch=10 n=42 v=127
24792 On ch=10 n=42 v=0
24960 On ch=10 n=49 v=127
24977 On ch=10 n=49 v=0
25020 On ch=10 n=42 v=94
25029 On ch=10 n=42 v=0
25080 On ch=10 n=42 v=127
25093 On ch=10 n=42 v=0
25140 On ch=10 n=42 v=70
25151 On ch=10 n=42 v=0
25200 On ch=10 n=42 v=87
25214 On ch=10 n=42 v=0
25260 On ch=10 n=42 v=79
25270 On ch=10 n=42 v=0
25320 On ch=10 n=42 v=82
25334 On ch=10 n=42 v=0
25380 On ch=10 n=42 v=73
25394 On ch=10 n=42 v=0
25440 On ch=10 n=42 v=89
25456 On ch=10 n=42 v=0
25500 On ch=10 n=42 v=82
25512 On ch=10 n=42 v=0
25560 On ch=10 n=42 v=89
25574 On ch=10 n=42 v=0
25620 On ch=10 n=42 v=87
25632 On ch=10 n=42 v=0
25680 On ch=10 n=49 v=115
25703 On ch=10 n=49 v=0
25920 On ch=10 n=49 v=125
25931 On ch=10 n=49 v=0
26880 On ch=10 n=42 v=127
26891 On ch=10 n=42 v=0
26940 On ch=10 n=42 v=104
26951 On ch=10 n=42 v=0
27000 On ch=10 n=42 v=127
27012 On ch=10 n=42 v=0
27060 On ch=10 n=42 v=107
27070 On ch=10 n=42 v=0
27120 On ch=10 n=42 v=122
27132 On ch=10 n=42 v=0
27180 On ch=10 n=42 v=79
27192 On ch=10 n=42 v=0
27240 On ch=10 n=42 v=122
27254 On ch=10 n=42 v=0
27300 On ch=10 n=42 v=94
27313 On ch=10 n=42 v=0
27360 On ch=10 n=42 v=122
27373 On ch=10 n=42 v=0
27420 On ch=10 n=42 v=104
27430 On ch=10 n=42 v=0
27480 On ch=10 n=42 v=127
27494 On ch=10 n=42 v=0
27540 On ch=10 n=42 v=111
27551 On ch=10 n=42 v=0
27600 On ch=10 n=42 v=127
27614 On ch=10 n=42 v=0
27660 On ch=10 n=42 v=100
27673 On ch=10 n=42 v=0
27720 On ch=10 n=42 v=125
27734 On ch=10 n=42 v=0
27780 On ch=10 n=42 v=96
27793 On ch=10 n=42 v=0
27840 On ch=10 n=42 v=119
27853 On ch=10 n=42 v=0
27900 On ch=10 n=42 v=84
27912 On ch=10 n=42 v=0
27960 On ch=10 n=42 v=125
27974 On ch=10 n=42 v=0
28020 On ch=10 n=42 v=104
28031 On ch=10 n=42 v=0
28080 On ch=10 n=42 v=125
28094 On ch=10 n=42 v=0
28140 On ch=10 n=42 v=94
28152 On ch=10 n=42 v=0
28200 On ch=10 n=42 v=127
28214 On ch=10 n=42 v=0
28260 On ch=10 n=42 v=104
28272 On ch=10 n=42 v=0
28320 On ch=10 n=42 v=115
28334 On ch=10 n=42 v=0
28380 On ch=10 n=42 v=94
28392 On ch=10 n=42 v=0
28440 On ch=10 n=42 v=115
28454 On ch=10 n=42 v=0
28500 On ch=10 n=42 v=100
28513 On ch=10 n=42 v=0
28560 On ch=10 n=42 v=111
28575 On ch=10 n=42 v=0
28620 On ch=10 n=42 v=94
28634 On ch=10 n=42 v=0
28680 On ch=10 n=42 v=122
28694 On ch=10 n=42 v=0
28740 On ch=10 n=42 v=104
28751 On ch=10 n=42 v=0
28800 On ch=10 n=42 v=127
28813 On ch=10 n=42 v=0
28860 On ch=10 n=42 v=107
28873 On ch=10 n=42 v=0
28920 On ch=10 n=42 v=125
28935 On ch=10 n=42 v=0
28980 On ch=10 n=42 v=84
28993 On ch=10 n=42 v=0
29040 On ch=10 n=42 v=115
29055 On ch=10 n=42 v=0
29100 On ch=10 n=42 v=94
29113 On ch=10 n=42 v=0
29160 On ch=10 n=42 v=119
29175 On ch=10 n=42 v=0
29220 On ch=10 n=42 v=96
29232 On ch=10 n=42 v=0
29280 On ch=10 n=42 v=122
29294 On ch=10 n=42 v=0
29340 On ch=10 n=42 v=94
29353 On ch=10 n=42 v=0
29400 On ch=10 n=42 v=119
29415 On ch=10 n=42 v=0
29460 On ch=10 n=42 v=96
29473 On ch=10 n=42 v=0
29520 On ch=10 n=42 v=127
29531 On ch=10 n=42 v=0
29580 On ch=10 n=42 v=127
29638 On ch=10 n=42 v=0
29700 On ch=10 n=42 v=127
29713 On ch=10 n=42 v=0
29760 On ch=10 n=42 v=127
29772 On ch=10 n=42 v=0
29820 On ch=10 n=42 v=115
29832 On ch=10 n=42 v=0
29880 On ch=10 n=42 v=125
29893 On ch=10 n=42 v=0
29940 On ch=10 n=42 v=127
29951 On ch=10 n=42 v=0
30000 On ch=10 n=42 v=127
30013 On ch=10 n=42 v=0
30060 On ch=10 n=42 v=119
30071 On ch=10 n=42 v=0
30120 On ch=10 n=42 v=125
30134 On ch=10 n=42 v=0
30180 On ch=10 n=42 v=122
30192 On ch=10 n=42 v=0
30240 On ch=10 n=42 v=127
30255 On ch=10 n=42 v=0
30300 On ch=10 n=42 v=115
30313 On ch=10 n=42 v=0
30360 On ch=10 n=42 v=127
30375 On ch=10 n=42 v=0
30420 On ch=10 n=42 v=122
30433 On ch=10 n=42 v=0
30480 On ch=10 n=42 v=127
30492 On ch=10 n=42 v=0
30540 On ch=10 n=49 v=127
30548 On ch=10 n=49 v=0
30660 On ch=10 n=42 v=127
30670 On ch=10 n=42 v=0
30720 On ch=10 n=42 v=127
30720 On ch=10 n=49 v=127
30731 On ch=10 n=49 v=0
30731 On ch=10 n=42 v=0
30780 On ch=10 n=42 v=125
30790 On ch=10 n=42 v=0
30840 On ch=10 n=42 v=127
30854 On ch=10 n=42 v=0
30900 On ch=10 n=42 v=125
30913 On ch=10 n=42 v=0
30960 On ch=10 n=42 v=127
30973 On ch=10 n=42 v=0
31020 On ch=10 n=42 v=127
31032 On ch=10 n=42 v=0
31080 On ch=10 n=42 v=127
31093 On ch=10 n=42 v=0
31140 On ch=10 n=42 v=127
31151 On ch=10 n=42 v=0
31200 On ch=10 n=42 v=107
31213 On ch=10 n=42 v=0
31260 On ch=10 n=42 v=71
31270 On ch=10 n=42 v=0
31320 On ch=10 n=42 v=115
31334 On ch=10 n=42 v=0
31380 On ch=10 n=42 v=68
31392 On ch=10 n=42 v=0
31440 On ch=10 n=42 v=82
31453 On ch=10 n=42 v=0
31500 On ch=10 n=42 v=82
31513 On ch=10 n=42 v=0
31560 On ch=10 n=42 v=96
31573 On ch=10 n=42 v=0
31620 On ch=10 n=42 v=107
31631 On ch=10 n=42 v=0
31680 On ch=10 n=49 v=119
31691 On ch=10 n=49 v=0
31740 On ch=10 n=42 v=82
31750 On ch=10 n=42 v=0
31800 On ch=10 n=42 v=122
31813 On ch=10 n=42 v=0
31860 On ch=10 n=42 v=84
31872 On ch=10 n=42 v=0
31920 On ch=10 n=42 v=107
31933 On ch=10 n=42 v=0
31980 On ch=10 n=42 v=82
31991 On ch=10 n=42 v=0
32040 On ch=10 n=42 v=96
32051 On ch=10 n=42 v=0
32100 On ch=10 n=42 v=71
32112 On ch=10 n=42 v=0
32160 On ch=10 n=42 v=78
32173 On ch=10 n=42 v=0
32220 On ch=10 n=42 v=71
32230 On ch=10 n=42 v=0
32280 On ch=10 n=42 v=92
32294 On ch=10 n=42 v=0
32340 On ch=10 n=42 v=61
32353 On ch=10 n=42 v=0
32400 On ch=10 n=42 v=70
32413 On ch=10 n=42 v=0
32460 On ch=10 n=42 v=84
32470 On ch=10 n=42 v=0
32520 On ch=10 n=42 v=111
32533 On ch=10 n=42 v=0
32580 On ch=10 n=42 v=75
32591 On ch=10 n=42 v=0
32640 On ch=10 n=49 v=119
32652 On ch=10 n=49 v=0
32700 On ch=10 n=42 v=78
32710 On ch=10 n=42 v=0
32760 On ch=10 n=42 v=125
32773 On ch=10 n=42 v=0
32820 On ch=10 n=42 v=84
32833 On ch=10 n=42 v=0
32880 On ch=10 n=42 v=111
32893 On ch=10 n=42 v=0
32940 On ch=10 n=42 v=75
32952 On ch=10 n=42 v=0
33000 On ch=10 n=42 v=115
33012 On ch=10 n=42 v=0
33060 On ch=10 n=42 v=100
33071 On ch=10 n=42 v=0
33120 On ch=10 n=42 v=107
33134 On ch=10 n=42 v=0
33180 On ch=10 n=42 v=87
33191 On ch=10 n=42 v=0
33240 On ch=10 n=42 v=111
33253 On ch=10 n=42 v=0
33300 On ch=10 n=42 v=79
33313 On ch=10 n=42 v=0
33360 On ch=10 n=42 v=104
33375 On ch=10 n=42 v=0
33420 On ch=10 n=42 v=57
33433 On ch=10 n=42 v=0
33480 On ch=10 n=42 v=119
33492 On ch=10 n=42 v=0
33540 On ch=10 n=42 v=127
33552 On ch=10 n=42 v=0
33600 On ch=10 n=49 v=127
33613 On ch=10 n=49 v=0
34560 On ch=10 n=49 v=127
34578 On ch=10 n=49 v=0
34620 On ch=10 n=42 v=73
34631 On ch=10 n=42 v=0
34680 On ch=10 n=42 v=125
34692 On ch=10 n=42 v=0
34740 On ch=10 n=42 v=104
34751 On ch=10 n=42 v=0
34800 On ch=10 n=42 v=122
34813 On ch=10 n=42 v=0
34860 On ch=10 n=42 v=100
34872 On ch=10 n=42 v=0
34920 On ch=10 n=42 v=111
34933 On ch=10 n=42 v=0
34980 On ch=10 n=42 v=111
34992 On ch=10 n=42 v=0
35040 On ch=10 n=42 v=125
35052 On ch=10 n=42 v=0
35100 On ch=10 n=42 v=122
35111 On ch=10 n=42 v=0
35160 On ch=10 n=49 v=127
35171 On ch=10 n=49 v=0
35520 On ch=10 n=49 v=127
35531 On ch=10 n=49 v=0
35580 On ch=10 n=42 v=107
35590 On ch=10 n=42 v=0
35640 On ch=10 n=42 v=122
35652 On ch=10 n=42 v=0
35700 On ch=10 n=42 v=104
35713 On ch=10 n=42 v=0
35760 On ch=10 n=42 v=122
35771 On ch=10 n=42 v=0
35820 On ch=10 n=42 v=119
35832 On ch=10 n=42 v=0
35880 On ch=10 n=42 v=127
35893 On ch=10 n=42 v=0
35940 On ch=10 n=42 v=125
35951 On ch=10 n=42 v=0
36000 On ch=10 n=42 v=127
36013 On ch=10 n=42 v=0
36060 On ch=10 n=42 v=127
36072 On ch=10 n=42 v=0
36120 On ch=10 n=42 v=127
36134 On ch=10 n=42 v=0
36480 On ch=10 n=49 v=127
36495 On ch=10 n=49 v=0
36540 On ch=10 n=42 v=84
36549 On ch=10 n=42 v=0
36600 On ch=10 n=42 v=127
36611 On ch=10 n=42 v=0
36660 On ch=10 n=42 v=111
36670 On ch=10 n=42 v=0
36720 On ch=10 n=42 v=125
36731 On ch=10 n=42 v=0
36780 On ch=10 n=42 v=107
36791 On ch=10 n=42 v=0
36840 On ch=10 n=42 v=122
36852 On ch=10 n=42 v=0
36900 On ch=10 n=42 v=111
36912 On ch=10 n=42 v=0
36960 On ch=10 n=42 v=122
36965 Par ch=10 c=7 v=90
36973 On ch=10 n=42 v=0
37020 On ch=10 n=42 v=104
37030 On ch=10 n=42 v=0
37080 On ch=10 n=42 v=125
37093 On ch=10 n=42 v=0
37140 On ch=10 n=42 v=100
37152 On ch=10 n=42 v=0
37200 On ch=10 n=42 v=127
37211 On ch=10 n=42 v=0
37260 On ch=10 n=42 v=127
37272 On ch=10 n=42 v=0
37440 On ch=10 n=49 v=127
37457 On ch=10 n=49 v=0
37500 On ch=10 n=42 v=94
37509 On ch=10 n=42 v=0
37560 On ch=10 n=42 v=127
37573 On ch=10 n=42 v=0
37620 On ch=10 n=42 v=70
37631 On ch=10 n=42 v=0
37680 On ch=10 n=42 v=87
37694 On ch=10 n=42 v=0
37740 On ch=10 n=42 v=79
37750 On ch=10 n=42 v=0
37800 On ch=10 n=42 v=82
37814 On ch=10 n=42 v=0
37860 On ch=10 n=42 v=73
37874 On ch=10 n=42 v=0
37922 On ch=10 n=42 v=127
37940 On ch=10 n=42 v=0
37979 On ch=10 n=42 v=127
37990 On ch=10 n=42 v=0
38038 On ch=10 n=42 v=127
38054 On ch=10 n=42 v=0
38098 On ch=10 n=42 v=127
38111 On ch=10 n=42 v=0
38400 On ch=10 n=49 v=127
38418 On ch=10 n=49 v=0
38460 On ch=10 n=42 v=73
38471 On ch=10 n=42 v=0
38520 On ch=10 n=42 v=125
38532 On ch=10 n=42 v=0
38580 On ch=10 n=42 v=104
38591 On ch=10 n=42 v=0
38640 On ch=10 n=42 v=122
38653 On ch=10 n=42 v=0
38700 On ch=10 n=42 v=100
38712 On ch=10 n=42 v=0
38760 On ch=10 n=42 v=111
38773 On ch=10 n=42 v=0
38820 On ch=10 n=42 v=111
38832 On ch=10 n=42 v=0
38880 On ch=10 n=42 v=125
38892 On ch=10 n=42 v=0
38940 On ch=10 n=42 v=122
38951 On ch=10 n=42 v=0
39000 On ch=10 n=49 v=127
39011 On ch=10 n=49 v=0
39011 Meta TrkEnd
TrkEnd
MTrk
0 Meta 0x21 00
0 Meta TrkName "Kick/Snare27"
0 Par ch=10 c=7 v=120
12480 On ch=10 n=35 v=127
12495 On ch=10 n=35 v=0
12540 On ch=10 n=35 v=127
12555 On ch=10 n=35 v=0
12600 On ch=10 n=40 v=127
12612 On ch=10 n=40 v=0
12720 On ch=10 n=35 v=127
12738 On ch=10 n=35 v=0
12780 On ch=10 n=35 v=127
12799 On ch=10 n=35 v=0
12840 On ch=10 n=40 v=127
12857 On ch=10 n=40 v=0
12960 On ch=10 n=35 v=127
12988 On ch=10 n=35 v=0
13080 On ch=10 n=40 v=127
13094 On ch=10 n=40 v=0
13170 On ch=10 n=35 v=126
13182 On ch=10 n=35 v=0
13200 On ch=10 n=35 v=127
13215 On ch=10 n=35 v=0
13260 On ch=10 n=35 v=127
13282 On ch=10 n=35 v=0
13320 On ch=10 n=40 v=127
13337 On ch=10 n=40 v=0
13440 On ch=10 n=35 v=127
13460 On ch=10 n=35 v=0
13560 On ch=10 n=40 v=127
13572 On ch=10 n=40 v=0
13650 On ch=10 n=35 v=127
13661 On ch=10 n=35 v=0
13680 On ch=10 n=35 v=127
13694 On ch=10 n=35 v=0
13740 On ch=10 n=35 v=127
13756 On ch=10 n=35 v=0
13800 On ch=10 n=40 v=127
13812 On ch=10 n=40 v=0
13890 On ch=10 n=35 v=127
13898 On ch=10 n=35 v=0
13917 On ch=10 n=35 v=126
13917 On ch=10 n=40 v=127
13923 On ch=10 n=40 v=0
13965 On ch=10 n=35 v=0
14040 On ch=10 n=40 v=127
14058 On ch=10 n=40 v=0
14130 On ch=10 n=35 v=120
14142 On ch=10 n=35 v=0
14160 On ch=10 n=35 v=120
14173 On ch=10 n=35 v=0
14190 On ch=10 n=35 v=106
14203 On ch=10 n=35 v=0
14220 On ch=10 n=35 v=111
14231 On ch=10 n=35 v=0
14250 On ch=10 n=35 v=106
14270 On ch=10 n=35 v=0
14280 On ch=10 n=40 v=127
14297 On ch=10 n=40 v=0
14310 On ch=10 n=35 v=127
14332 On ch=10 n=35 v=0
14400 On ch=10 n=35 v=127
14432 On ch=10 n=35 v=0
14520 On ch=10 n=40 v=127
14539 On ch=10 n=40 v=0
14610 On ch=10 n=35 v=120
14622 On ch=10 n=35 v=0
14640 On ch=10 n=35 v=126
14653 On ch=10 n=35 v=0
14700 On ch=10 n=35 v=117
14717 On ch=10 n=35 v=0
14760 On ch=10 n=40 v=127
14775 On ch=10 n=40 v=0
14850 On ch=10 n=35 v=100
14861 On ch=10 n=35 v=0
14880 On ch=10 n=35 v=127
14897 On ch=10 n=35 v=0
15000 On ch=10 n=40 v=127
15014 On ch=10 n=40 v=0
15090 On ch=10 n=35 v=111
15101 On ch=10 n=35 v=0
15120 On ch=10 n=35 v=127
15135 On ch=10 n=35 v=0
15180 On ch=10 n=35 v=126
15191 On ch=10 n=35 v=0
15210 On ch=10 n=35 v=117
15227 On ch=10 n=35 v=0
15240 On ch=10 n=40 v=127
15254 On ch=10 n=40 v=0
15330 On ch=10 n=35 v=127
15341 On ch=10 n=35 v=0
15360 On ch=10 n=35 v=127
15375 On ch=10 n=35 v=0
15480 On ch=10 n=40 v=127
15493 On ch=10 n=40 v=0
15570 On ch=10 n=35 v=123
15582 On ch=10 n=35 v=0
15600 On ch=10 n=35 v=127
15614 On ch=10 n=35 v=0
15660 On ch=10 n=35 v=127
15675 On ch=10 n=35 v=0
15720 On ch=10 n=40 v=127
15734 On ch=10 n=40 v=0
15810 On ch=10 n=35 v=111
15821 On ch=10 n=35 v=0
15840 On ch=10 n=35 v=127
15853 On ch=10 n=35 v=0
15900 On ch=10 n=35 v=127
15916 On ch=10 n=35 v=0
15960 On ch=10 n=40 v=127
15976 On ch=10 n=40 v=0
16080 On ch=10 n=35 v=111
16095 On ch=10 n=35 v=0
16140 On ch=10 n=35 v=108
16165 On ch=10 n=35 v=0
16200 On ch=10 n=40 v=127
16219 On ch=10 n=40 v=0
16260 On ch=10 n=35 v=117
16273 On ch=10 n=35 v=0
16320 On ch=10 n=35 v=127
16337 On ch=10 n=35 v=0
16440 On ch=10 n=40 v=127
16459 On ch=10 n=40 v=0
16560 On ch=10 n=35 v=127
16575 On ch=10 n=35 v=0
16620 On ch=10 n=35 v=127
16638 On ch=10 n=35 v=0
16680 On ch=10 n=40 v=127
16696 On ch=10 n=40 v=0
16800 On ch=10 n=35 v=127
16820 On ch=10 n=35 v=0
16920 On ch=10 n=40 v=127
16938 On ch=10 n=40 v=0
17040 On ch=10 n=35 v=127
17055 On ch=10 n=35 v=0
17100 On ch=10 n=35 v=127
17122 On ch=10 n=35 v=0
17160 On ch=10 n=40 v=127
17173 On ch=10 n=40 v=0
17190 On ch=10 n=40 v=126
17200 On ch=10 n=40 v=0
17220 On ch=10 n=40 v=127
17233 On ch=10 n=40 v=0
17280 On ch=10 n=35 v=127
17296 On ch=10 n=35 v=0
17340 On ch=10 n=35 v=127
17359 On ch=10 n=35 v=0
17400 On ch=10 n=40 v=127
17418 On ch=10 n=40 v=0
17520 On ch=10 n=35 v=123
17537 On ch=10 n=35 v=0
17580 On ch=10 n=35 v=127
17602 On ch=10 n=35 v=0
17640 On ch=10 n=40 v=127
17654 On ch=10 n=40 v=0
17730 On ch=10 n=35 v=117
17742 On ch=10 n=35 v=0
17760 On ch=10 n=35 v=127
17778 On ch=10 n=35 v=0
17880 On ch=10 n=40 v=127
17899 On ch=10 n=40 v=0
18000 On ch=10 n=35 v=126
18016 On ch=10 n=35 v=0
18060 On ch=10 n=35 v=126
18079 On ch=10 n=35 v=0
18120 On ch=10 n=40 v=127
18132 On ch=10 n=40 v=0
18150 On ch=10 n=40 v=113
18161 On ch=10 n=40 v=0
18180 On ch=10 n=40 v=127
18192 On ch=10 n=40 v=0
18210 On ch=10 n=35 v=127
18221 On ch=10 n=35 v=0
18240 On ch=10 n=35 v=127
18254 On ch=10 n=35 v=0
18360 On ch=10 n=40 v=127
18376 On ch=10 n=40 v=0
18480 On ch=10 n=35 v=126
18497 On ch=10 n=35 v=0
18540 On ch=10 n=35 v=126
18561 On ch=10 n=35 v=0
18600 On ch=10 n=40 v=127
18614 On ch=10 n=40 v=0
18687 On ch=10 n=35 v=0
18699 On ch=10 n=35 v=0
18720 On ch=10 n=35 v=120
18745 On ch=10 n=35 v=0
18840 On ch=10 n=40 v=127
18857 On ch=10 n=40 v=0
18960 On ch=10 n=35 v=120
18981 On ch=10 n=35 v=0
19020 On ch=10 n=35 v=111
19036 On ch=10 n=35 v=0
19080 On ch=10 n=40 v=127
19092 On ch=10 n=40 v=0
19170 On ch=10 n=35 v=103
19180 On ch=10 n=35 v=0
19200 On ch=10 n=35 v=123
19215 On ch=10 n=35 v=0
19320 On ch=10 n=40 v=127
19334 On ch=10 n=40 v=0
19380 On ch=10 n=35 v=108
19393 On ch=10 n=35 v=0
19440 On ch=10 n=35 v=120
19454 On ch=10 n=35 v=0
19500 On ch=10 n=35 v=108
19516 On ch=10 n=35 v=0
19560 On ch=10 n=40 v=127
19576 On ch=10 n=40 v=0
19650 On ch=10 n=35 v=96
19661 On ch=10 n=35 v=0
19680 On ch=10 n=35 v=113
19693 On ch=10 n=35 v=0
19740 On ch=10 n=35 v=113
19757 On ch=10 n=35 v=0
19800 On ch=10 n=40 v=127
19814 On ch=10 n=40 v=0
19890 On ch=10 n=35 v=72
19900 On ch=10 n=35 v=0
19920 On ch=10 n=35 v=96
19935 On ch=10 n=35 v=0
19980 On ch=10 n=35 v=100
19997 On ch=10 n=35 v=0
20040 On ch=10 n=40 v=127
20054 On ch=10 n=40 v=0
20130 On ch=10 n=35 v=100
20144 On ch=10 n=35 v=0
20160 On ch=10 n=35 v=113
20178 On ch=10 n=35 v=0
20280 On ch=10 n=40 v=127
20292 On ch=10 n=40 v=0
20370 On ch=10 n=35 v=100
20382 On ch=10 n=35 v=0
20400 On ch=10 n=35 v=96
20414 On ch=10 n=35 v=0
20460 On ch=10 n=35 v=113
20475 On ch=10 n=35 v=0
20520 On ch=10 n=40 v=127
20533 On ch=10 n=40 v=0
20610 On ch=10 n=35 v=86
20623 On ch=10 n=35 v=0
20640 On ch=10 n=35 v=113
20656 On ch=10 n=35 v=0
20700 On ch=10 n=35 v=111
20716 On ch=10 n=35 v=0
20760 On ch=10 n=40 v=127
20774 On ch=10 n=40 v=0
20850 On ch=10 n=35 v=96
20862 On ch=10 n=35 v=0
20880 On ch=10 n=35 v=108
20894 On ch=10 n=35 v=0
20940 On ch=10 n=35 v=111
20958 On ch=10 n=35 v=0
21000 On ch=10 n=40 v=127
21018 On ch=10 n=40 v=0
21090 On ch=10 n=35 v=89
21100 On ch=10 n=35 v=0
21120 On ch=10 n=35 v=126
21135 On ch=10 n=35 v=0
22080 On ch=10 n=35 v=111
22096 On ch=10 n=35 v=0
22140 On ch=10 n=35 v=123
22160 On ch=10 n=35 v=0
22200 On ch=10 n=40 v=127
22216 On ch=10 n=40 v=0
22320 On ch=10 n=35 v=123
22336 On ch=10 n=35 v=0
22380 On ch=10 n=35 v=123
22399 On ch=10 n=35 v=0
22440 On ch=10 n=40 v=127
22459 On ch=10 n=40 v=0
22500 On ch=10 n=35 v=120
22514 On ch=10 n=35 v=0
22560 On ch=10 n=35 v=127
22574 On ch=10 n=35 v=0
22620 On ch=10 n=35 v=127
22635 On ch=10 n=35 v=0
23040 On ch=10 n=35 v=120
23055 On ch=10 n=35 v=0
23100 On ch=10 n=35 v=123
23119 On ch=10 n=35 v=0
23160 On ch=10 n=40 v=127
23178 On ch=10 n=40 v=0
23280 On ch=10 n=35 v=123
23295 On ch=10 n=35 v=0
23340 On ch=10 n=35 v=123
23362 On ch=10 n=35 v=0
23400 On ch=10 n=40 v=127
23418 On ch=10 n=40 v=0
23460 On ch=10 n=35 v=120
23475 On ch=10 n=35 v=0
23520 On ch=10 n=35 v=127
23535 On ch=10 n=35 v=0
23580 On ch=10 n=35 v=127
23595 On ch=10 n=35 v=0
23640 On ch=10 n=40 v=127
23651 On ch=10 n=40 v=0
24000 On ch=10 n=35 v=123
24016 On ch=10 n=35 v=0
24060 On ch=10 n=35 v=120
24086 On ch=10 n=35 v=0
24120 On ch=10 n=40 v=127
24137 On ch=10 n=40 v=0
24240 On ch=10 n=35 v=120
24257 On ch=10 n=35 v=0
24300 On ch=10 n=35 v=120
24332 On ch=10 n=35 v=0
24360 On ch=10 n=40 v=127
24376 On ch=10 n=40 v=0
24420 On ch=10 n=35 v=111
24433 On ch=10 n=35 v=0
24480 On ch=10 n=35 v=123
24494 On ch=10 n=35 v=0
24540 On ch=10 n=35 v=120
24556 On ch=10 n=35 v=0
24600 On ch=10 n=40 v=127
24614 On ch=10 n=40 v=0
24660 On ch=10 n=40 v=93
24668 On ch=10 n=40 v=0
24720 On ch=10 n=40 v=127
24733 On ch=10 n=40 v=0
24780 On ch=10 n=40 v=127
24792 On ch=10 n=40 v=0
24960 On ch=10 n=35 v=103
24977 On ch=10 n=35 v=0
25020 On ch=10 n=35 v=117
25039 On ch=10 n=35 v=0
25080 On ch=10 n=40 v=127
25094 On ch=10 n=40 v=0
25200 On ch=10 n=35 v=100
25217 On ch=10 n=35 v=0
25260 On ch=10 n=35 v=106
25280 On ch=10 n=35 v=0
25320 On ch=10 n=40 v=127
25333 On ch=10 n=40 v=0
25380 On ch=10 n=35 v=85
25395 On ch=10 n=35 v=0
25440 On ch=10 n=35 v=108
25456 On ch=10 n=35 v=0
25560 On ch=10 n=40 v=113
25580 On ch=10 n=40 v=0
25680 On ch=10 n=35 v=89
25700 On ch=10 n=35 v=0
25710 On ch=10 n=40 v=89
25724 On ch=10 n=40 v=0
25740 On ch=10 n=40 v=106
25752 On ch=10 n=40 v=0
25770 On ch=10 n=40 v=127
25785 On ch=10 n=40 v=0
25920 On ch=10 n=35 v=123
25931 On ch=10 n=35 v=0
26880 On ch=10 n=35 v=127
26912 On ch=10 n=35 v=0
27000 On ch=10 n=40 v=127
27019 On ch=10 n=40 v=0
27090 On ch=10 n=35 v=120
27102 On ch=10 n=35 v=0
27120 On ch=10 n=35 v=126
27133 On ch=10 n=35 v=0
27180 On ch=10 n=35 v=117
27197 On ch=10 n=35 v=0
27240 On ch=10 n=40 v=127
27255 On ch=10 n=40 v=0
27330 On ch=10 n=35 v=100
27341 On ch=10 n=35 v=0
27360 On ch=10 n=35 v=127
27377 On ch=10 n=35 v=0
27480 On ch=10 n=40 v=127
27494 On ch=10 n=40 v=0
27570 On ch=10 n=35 v=111
27581 On ch=10 n=35 v=0
27600 On ch=10 n=35 v=127
27615 On ch=10 n=35 v=0
27660 On ch=10 n=35 v=126
27671 On ch=10 n=35 v=0
27690 On ch=10 n=35 v=117
27707 On ch=10 n=35 v=0
27720 On ch=10 n=40 v=127
27734 On ch=10 n=40 v=0
27810 On ch=10 n=35 v=127
27821 On ch=10 n=35 v=0
27840 On ch=10 n=35 v=127
27855 On ch=10 n=35 v=0
27960 On ch=10 n=40 v=127
27973 On ch=10 n=40 v=0
28050 On ch=10 n=35 v=123
28062 On ch=10 n=35 v=0
28080 On ch=10 n=35 v=127
28094 On ch=10 n=35 v=0
28140 On ch=10 n=35 v=127
28155 On ch=10 n=35 v=0
28200 On ch=10 n=40 v=127
28214 On ch=10 n=40 v=0
28290 On ch=10 n=35 v=111
28301 On ch=10 n=35 v=0
28320 On ch=10 n=35 v=127
28333 On ch=10 n=35 v=0
28380 On ch=10 n=35 v=127
28396 On ch=10 n=35 v=0
28440 On ch=10 n=40 v=127
28456 On ch=10 n=40 v=0
28560 On ch=10 n=35 v=111
28575 On ch=10 n=35 v=0
28620 On ch=10 n=35 v=108
28645 On ch=10 n=35 v=0
28680 On ch=10 n=40 v=127
28699 On ch=10 n=40 v=0
28740 On ch=10 n=35 v=117
28753 On ch=10 n=35 v=0
28800 On ch=10 n=35 v=127
28817 On ch=10 n=35 v=0
28920 On ch=10 n=40 v=127
28939 On ch=10 n=40 v=0
29040 On ch=10 n=35 v=127
29055 On ch=10 n=35 v=0
29100 On ch=10 n=35 v=127
29118 On ch=10 n=35 v=0
29160 On ch=10 n=40 v=127
29176 On ch=10 n=40 v=0
29280 On ch=10 n=35 v=127
29300 On ch=10 n=35 v=0
29400 On ch=10 n=40 v=127
29418 On ch=10 n=40 v=0
29520 On ch=10 n=35 v=127
29535 On ch=10 n=35 v=0
29580 On ch=10 n=35 v=127
29602 On ch=10 n=35 v=0
29640 On ch=10 n=40 v=127
29653 On ch=10 n=40 v=0
29670 On ch=10 n=40 v=126
29680 On ch=10 n=40 v=0
29700 On ch=10 n=40 v=127
29713 On ch=10 n=40 v=0
29760 On ch=10 n=35 v=127
29776 On ch=10 n=35 v=0
29820 On ch=10 n=35 v=127
29839 On ch=10 n=35 v=0
29880 On ch=10 n=40 v=127
29898 On ch=10 n=40 v=0
30000 On ch=10 n=35 v=123
30017 On ch=10 n=35 v=0
30060 On ch=10 n=35 v=127
30082 On ch=10 n=35 v=0
30120 On ch=10 n=40 v=127
30134 On ch=10 n=40 v=0
30210 On ch=10 n=35 v=117
30222 On ch=10 n=35 v=0
30240 On ch=10 n=35 v=127
30258 On ch=10 n=35 v=0
30360 On ch=10 n=40 v=127
30379 On ch=10 n=40 v=0
30480 On ch=10 n=35 v=126
30496 On ch=10 n=35 v=0
30540 On ch=10 n=35 v=126
30559 On ch=10 n=35 v=0
30600 On ch=10 n=40 v=127
30612 On ch=10 n=40 v=0
30630 On ch=10 n=40 v=113
30641 On ch=10 n=40 v=0
30660 On ch=10 n=40 v=127
30672 On ch=10 n=40 v=0
30690 On ch=10 n=35 v=127
30701 On ch=10 n=35 v=0
30720 On ch=10 n=35 v=127
30734 On ch=10 n=35 v=0
30840 On ch=10 n=40 v=127
30856 On ch=10 n=40 v=0
30960 On ch=10 n=35 v=126
30977 On ch=10 n=35 v=0
31020 On ch=10 n=35 v=126
31041 On ch=10 n=35 v=0
31080 On ch=10 n=40 v=127
31094 On ch=10 n=40 v=0
31167 On ch=10 n=35 v=0
31179 On ch=10 n=35 v=0
31200 On ch=10 n=35 v=127
31225 On ch=10 n=35 v=0
31320 On ch=10 n=40 v=127
31337 On ch=10 n=40 v=0
31440 On ch=10 n=35 v=120
31461 On ch=10 n=35 v=0
31500 On ch=10 n=35 v=111
31516 On ch=10 n=35 v=0
31560 On ch=10 n=40 v=127
31572 On ch=10 n=40 v=0
31650 On ch=10 n=35 v=103
31660 On ch=10 n=35 v=0
31680 On ch=10 n=35 v=123
31695 On ch=10 n=35 v=0
31800 On ch=10 n=40 v=127
31814 On ch=10 n=40 v=0
31860 On ch=10 n=35 v=108
31873 On ch=10 n=35 v=0
31920 On ch=10 n=35 v=120
31934 On ch=10 n=35 v=0
31980 On ch=10 n=35 v=108
31996 On ch=10 n=35 v=0
32040 On ch=10 n=40 v=127
32056 On ch=10 n=40 v=0
32130 On ch=10 n=35 v=96
32141 On ch=10 n=35 v=0
32160 On ch=10 n=35 v=113
32173 On ch=10 n=35 v=0
32220 On ch=10 n=35 v=113
32237 On ch=10 n=35 v=0
32280 On ch=10 n=40 v=127
32294 On ch=10 n=40 v=0
32370 On ch=10 n=35 v=72
32380 On ch=10 n=35 v=0
32400 On ch=10 n=35 v=96
32415 On ch=10 n=35 v=0
32460 On ch=10 n=35 v=100
32477 On ch=10 n=35 v=0
32520 On ch=10 n=40 v=127
32534 On ch=10 n=40 v=0
32610 On ch=10 n=35 v=100
32624 On ch=10 n=35 v=0
32640 On ch=10 n=35 v=113
32658 On ch=10 n=35 v=0
32760 On ch=10 n=40 v=127
32772 On ch=10 n=40 v=0
32850 On ch=10 n=35 v=100
32862 On ch=10 n=35 v=0
32880 On ch=10 n=35 v=96
32894 On ch=10 n=35 v=0
32940 On ch=10 n=35 v=113
32955 On ch=10 n=35 v=0
33000 On ch=10 n=40 v=127
33013 On ch=10 n=40 v=0
33090 On ch=10 n=35 v=86
33103 On ch=10 n=35 v=0
33120 On ch=10 n=35 v=113
33136 On ch=10 n=35 v=0
33180 On ch=10 n=35 v=111
33196 On ch=10 n=35 v=0
33240 On ch=10 n=40 v=127
33254 On ch=10 n=40 v=0
33330 On ch=10 n=35 v=96
33342 On ch=10 n=35 v=0
33360 On ch=10 n=35 v=108
33374 On ch=10 n=35 v=0
33420 On ch=10 n=35 v=111
33438 On ch=10 n=35 v=0
33480 On ch=10 n=40 v=127
33498 On ch=10 n=40 v=0
33570 On ch=10 n=35 v=89
33580 On ch=10 n=35 v=0
33600 On ch=10 n=35 v=126
33615 On ch=10 n=35 v=0
34560 On ch=10 n=35 v=111
34576 On ch=10 n=35 v=0
34620 On ch=10 n=35 v=123
34640 On ch=10 n=35 v=0
34680 On ch=10 n=40 v=127
34696 On ch=10 n=40 v=0
34800 On ch=10 n=35 v=123
34816 On ch=10 n=35 v=0
34860 On ch=10 n=35 v=123
34879 On ch=10 n=35 v=0
34920 On ch=10 n=40 v=127
34939 On ch=10 n=40 v=0
34980 On ch=10 n=35 v=120
34994 On ch=10 n=35 v=0
35040 On ch=10 n=35 v=127
35054 On ch=10 n=35 v=0
35100 On ch=10 n=35 v=127
35115 On ch=10 n=35 v=0
35520 On ch=10 n=35 v=120
35535 On ch=10 n=35 v=0
35580 On ch=10 n=35 v=123
35599 On ch=10 n=35 v=0
35640 On ch=10 n=40 v=127
35658 On ch=10 n=40 v=0
35760 On ch=10 n=35 v=123
35775 On ch=10 n=35 v=0
35820 On ch=10 n=35 v=123
35842 On ch=10 n=35 v=0
35880 On ch=10 n=40 v=127
35898 On ch=10 n=40 v=0
35940 On ch=10 n=35 v=120
35955 On ch=10 n=35 v=0
36000 On ch=10 n=35 v=127
36015 On ch=10 n=35 v=0
36060 On ch=10 n=35 v=127
36075 On ch=10 n=35 v=0
36120 On ch=10 n=40 v=127
36131 On ch=10 n=40 v=0
36480 On ch=10 n=35 v=123
36496 On ch=10 n=35 v=0
36540 On ch=10 n=35 v=120
36566 On ch=10 n=35 v=0
36600 On ch=10 n=40 v=127
36617 On ch=10 n=40 v=0
36720 On ch=10 n=35 v=120
36737 On ch=10 n=35 v=0
36780 On ch=10 n=35 v=120
36812 On ch=10 n=35 v=0
36840 On ch=10 n=40 v=127
36856 On ch=10 n=40 v=0
36900 On ch=10 n=35 v=111
36913 On ch=10 n=35 v=0
36960 On ch=10 n=35 v=123
36974 On ch=10 n=35 v=0
37020 On ch=10 n=35 v=120
37036 On ch=10 n=35 v=0
37080 On ch=10 n=40 v=127
37094 On ch=10 n=40 v=0
37140 On ch=10 n=40 v=93
37148 On ch=10 n=40 v=0
37200 On ch=10 n=40 v=127
37213 On ch=10 n=40 v=0
37260 On ch=10 n=40 v=127
37272 On ch=10 n=40 v=0
37419 Par ch=10 c=7 v=126
37433 Par ch=10 c=7 v=125
37440 On ch=10 n=35 v=103
37440 Par ch=10 c=7 v=124
37454 Par ch=10 c=7 v=123
37457 On ch=10 n=35 v=0
37494 Par ch=10 c=7 v=121
37500 On ch=10 n=35 v=117
37512 Par ch=10 c=7 v=120
37519 On ch=10 n=35 v=0
37524 Par ch=10 c=7 v=119
37554 Par ch=10 c=7 v=118
37560 On ch=10 n=40 v=127
37560 Par ch=10 c=7 v=117
37574 On ch=10 n=40 v=0
37593 Par ch=10 c=7 v=116
37606 Par ch=10 c=7 v=115
37650 Par ch=10 c=7 v=114
37659 Par ch=10 c=7 v=113
37680 On ch=10 n=35 v=100
37685 Par ch=10 c=7 v=112
37697 On ch=10 n=35 v=0
37704 Par ch=10 c=7 v=111
37724 Par ch=10 c=7 v=110
37740 On ch=10 n=35 v=106
37745 Par ch=10 c=7 v=109
37760 Par ch=10 c=7 v=108
37760 On ch=10 n=35 v=0
37775 Par ch=10 c=7 v=107
37790 Par ch=10 c=7 v=106
37800 On ch=10 n=40 v=127
37804 Par ch=10 c=7 v=105
37809 Par ch=10 c=7 v=104
37813 On ch=10 n=40 v=0
37833 Par ch=10 c=7 v=103
37841 Par ch=10 c=7 v=102
37856 Par ch=10 c=7 v=101
37860 On ch=10 n=35 v=85
37866 Par ch=10 c=7 v=100
37875 On ch=10 n=35 v=0
37893 Par ch=10 c=7 v=99
37898 Par ch=10 c=7 v=98
37919 On ch=10 n=35 v=120
37932 Par ch=10 c=7 v=97
37946 On ch=10 n=35 v=0
37971 Par ch=10 c=7 v=96
37980 On ch=10 n=35 v=117
37985 Par ch=10 c=7 v=95
38005 Par ch=10 c=7 v=94
38017 Par ch=10 c=7 v=93
38017 On ch=10 n=35 v=0
38040 On ch=10 n=40 v=123
38064 Par ch=10 c=7 v=92
38070 On ch=10 n=40 v=0
38080 Par ch=10 c=7 v=91
38094 Par ch=10 c=7 v=90
38101 On ch=10 n=40 v=127
38116 Par ch=10 c=7 v=89
38122 On ch=10 n=40 v=0
38125 Par ch=10 c=7 v=88
38144 Par ch=10 c=7 v=87
38160 Par ch=10 c=7 v=86
38185 Par ch=10 c=7 v=85
38190 Par ch=10 c=7 v=84
38208 Par ch=10 c=7 v=83
38233 Par ch=10 c=7 v=82
38251 Par ch=10 c=7 v=81
38264 Par ch=10 c=7 v=80
38274 Par ch=10 c=7 v=79
38289 Par ch=10 c=7 v=78
38300 Par ch=10 c=7 v=77
38315 Par ch=10 c=7 v=76
38339 Par ch=10 c=7 v=75
38347 Par ch=10 c=7 v=74
38360 Par ch=10 c=7 v=73
38380 Par ch=10 c=7 v=72
38390 Par ch=10 c=7 v=71
38400 On ch=10 n=35 v=111
38400 Par ch=10 c=7 v=70
38410 Par ch=10 c=7 v=69
38416 On ch=10 n=35 v=0
38428 Par ch=10 c=7 v=68
38448 Par ch=10 c=7 v=67
38460 On ch=10 n=35 v=123
38465 Par ch=10 c=7 v=66
38476 Par ch=10 c=7 v=65
38480 On ch=10 n=35 v=0
38490 Par ch=10 c=7 v=64
38500 Par ch=10 c=7 v=63
38520 On ch=10 n=40 v=127
38520 Par ch=10 c=7 v=62
38536 Par ch=10 c=7 v=61
38536 On ch=10 n=40 v=0
38541 Par ch=10 c=7 v=60
38558 Par ch=10 c=7 v=59
38573 Par ch=10 c=7 v=58
38591 Par ch=10 c=7 v=57
38606 Par ch=10 c=7 v=56
38614 Par ch=10 c=7 v=55
38627 Par ch=10 c=7 v=54
38640 On ch=10 n=35 v=123
38643 Par ch=10 c=7 v=53
38654 Par ch=10 c=7 v=52
38656 On ch=10 n=35 v=0
38664 Par ch=10 c=7 v=51
38679 Par ch=10 c=7 v=50
38689 Par ch=10 c=7 v=49
38700 On ch=10 n=35 v=123
38700 Par ch=10 c=7 v=48
38705 Par ch=10 c=7 v=46
38719 Par ch=10 c=7 v=45
38719 On ch=10 n=35 v=0
38730 Par ch=10 c=7 v=44
38740 Par ch=10 c=7 v=43
38747 Par ch=10 c=7 v=42
38752 Par ch=10 c=7 v=41
38760 On ch=10 n=40 v=127
38763 Par ch=10 c=7 v=40
38776 Par ch=10 c=7 v=39
38779 On ch=10 n=40 v=0
38788 Par ch=10 c=7 v=37
38796 Par ch=10 c=7 v=36
38806 Par ch=10 c=7 v=35
38820 On ch=10 n=35 v=120
38825 Par ch=10 c=7 v=34
38834 On ch=10 n=35 v=0
38837 Par ch=10 c=7 v=33
38847 Par ch=10 c=7 v=32
38861 Par ch=10 c=7 v=31
38874 Par ch=10 c=7 v=30
38880 On ch=10 n=35 v=127
38880 Par ch=10 c=7 v=29
38894 Par ch=10 c=7 v=27
38894 On ch=10 n=35 v=0
38907 Par ch=10 c=7 v=26
38917 Par ch=10 c=7 v=25
38927 Par ch=10 c=7 v=24
38932 Par ch=10 c=7 v=23
38940 On ch=10 n=35 v=127
38940 Par ch=10 c=7 v=22
38951 Par ch=10 c=7 v=21
38955 On ch=10 n=35 v=0
38960 Par ch=10 c=7 v=20
38969 Par ch=10 c=7 v=19
38974 Par ch=10 c=7 v=18
38984 Par ch=10 c=7 v=17
38994 Par ch=10 c=7 v=16
39005 Par ch=10 c=7 v=15
39011 Par ch=10 c=7 v=13
39025 Par ch=10 c=7 v=12
39030 Par ch=10 c=7 v=11
39042 Par ch=10 c=7 v=10
39054 Par ch=10 c=7 v=9
39060 Par ch=10 c=7 v=8
39072 Par ch=10 c=7 v=7
39082 Par ch=10 c=7 v=6
39093 Par ch=10 c=7 v=5
39103 Par ch=10 c=7 v=4
39114 Par ch=10 c=7 v=3
39144 Par ch=10 c=7 v=2
39161 Par ch=10 c=7 v=1
39187 Par ch=10 c=7 v=0
39187 Meta TrkEnd
TrkEnd
MTrk
0 Meta 0x21 00
0 Meta TrkName "Triplets"
0 Par ch=10 c=7 v=120
22740 On ch=10 n=50 v=96
22755 On ch=10 n=50 v=0
22770 On ch=10 n=50 v=73
22789 On ch=10 n=50 v=0
22801 On ch=10 n=48 v=98
22815 On ch=10 n=48 v=0
22831 On ch=10 n=48 v=89
22847 On ch=10 n=48 v=0
22861 On ch=10 n=47 v=113
22875 On ch=10 n=47 v=0
22890 On ch=10 n=47 v=73
22903 On ch=10 n=47 v=0
22920 On ch=10 n=47 v=111
22932 On ch=10 n=47 v=0
22950 On ch=10 n=47 v=72
22964 On ch=10 n=47 v=0
22980 On ch=10 n=45 v=127
22989 On ch=10 n=45 v=0
23703 On ch=10 n=50 v=123
23713 On ch=10 n=50 v=0
23724 On ch=10 n=50 v=108
23732 On ch=10 n=50 v=0
23743 On ch=10 n=50 v=126
23752 On ch=10 n=50 v=0
23762 On ch=10 n=48 v=127
23771 On ch=10 n=48 v=0
23779 On ch=10 n=48 v=123
23789 On ch=10 n=48 v=0
23797 On ch=10 n=48 v=108
23811 On ch=10 n=48 v=0
23820 On ch=10 n=48 v=127
23831 On ch=10 n=48 v=0
23839 On ch=10 n=48 v=85
23848 On ch=10 n=48 v=0
23858 On ch=10 n=48 v=126
23868 On ch=10 n=48 v=0
23880 On ch=10 n=47 v=126
23888 On ch=10 n=47 v=0
23899 On ch=10 n=47 v=126
23910 On ch=10 n=47 v=0
23918 On ch=10 n=48 v=123
23930 On ch=10 n=48 v=0
23939 On ch=10 n=47 v=127
23950 On ch=10 n=47 v=0
23956 On ch=10 n=47 v=117
23966 On ch=10 n=47 v=0
23977 On ch=10 n=47 v=126
23985 On ch=10 n=47 v=0
24838 On ch=10 n=50 v=127
24847 On ch=10 n=50 v=0
24857 On ch=10 n=50 v=127
24865 On ch=10 n=50 v=0
24875 On ch=10 n=50 v=127
24887 On ch=10 n=50 v=0
24902 On ch=10 n=48 v=127
24917 On ch=10 n=48 v=0
24933 On ch=10 n=47 v=127
24943 On ch=10 n=47 v=0
25803 On ch=10 n=50 v=126
25817 On ch=10 n=50 v=0
25831 On ch=10 n=50 v=108
25848 On ch=10 n=50 v=0
25860 On ch=10 n=48 v=127
25870 On ch=10 n=48 v=0
26877 On ch=10 n=49 v=127
26887 On ch=10 n=49 v=0
35221 On ch=10 n=50 v=96
35236 On ch=10 n=50 v=0
35251 On ch=10 n=50 v=73
35270 On ch=10 n=50 v=0
35282 On ch=10 n=48 v=98
35296 On ch=10 n=48 v=0
35312 On ch=10 n=48 v=89
35328 On ch=10 n=48 v=0
35342 On ch=10 n=47 v=113
35356 On ch=10 n=47 v=0
35371 On ch=10 n=47 v=73
35384 On ch=10 n=47 v=0
35401 On ch=10 n=47 v=111
35413 On ch=10 n=47 v=0
35429 On ch=10 n=47 v=72
35443 On ch=10 n=47 v=0
35461 On ch=10 n=45 v=127
35470 On ch=10 n=45 v=0
36180 On ch=10 n=50 v=123
36199 On ch=10 n=50 v=0
36200 On ch=10 n=50 v=108
36219 On ch=10 n=50 v=0
36220 On ch=10 n=50 v=126
36239 On ch=10 n=50 v=0
36240 On ch=10 n=48 v=127
36259 On ch=10 n=48 v=0
36260 On ch=10 n=48 v=123
36279 On ch=10 n=48 v=0
36280 On ch=10 n=48 v=108
36299 On ch=10 n=48 v=0
36300 On ch=10 n=48 v=127
36319 On ch=10 n=48 v=0
36320 On ch=10 n=48 v=85
36339 On ch=10 n=48 v=0
36340 On ch=10 n=48 v=126
36359 On ch=10 n=48 v=0
36360 On ch=10 n=47 v=126
36379 On ch=10 n=47 v=0
36380 On ch=10 n=47 v=126
36399 On ch=10 n=47 v=0
36400 On ch=10 n=48 v=123
36419 On ch=10 n=48 v=0
36420 On ch=10 n=47 v=127
36439 On ch=10 n=47 v=0
36440 On ch=10 n=47 v=117
36459 On ch=10 n=47 v=0
36460 On ch=10 n=47 v=126
36479 On ch=10 n=47 v=0
37320 On ch=10 n=50 v=127
37329 On ch=10 n=50 v=0
37339 On ch=10 n=50 v=127
37347 On ch=10 n=50 v=0
37359 On ch=10 n=50 v=127
37371 On ch=10 n=50 v=0
37385 On ch=10 n=48 v=127
37400 On ch=10 n=48 v=0
37416 On ch=10 n=47 v=127
37426 On ch=10 n=47 v=0
38089 Par ch=10 c=7 v=91
38122 Par ch=10 c=7 v=90
38149 Par ch=10 c=7 v=89
38156 Par ch=10 c=7 v=88
38160 On ch=10 n=40 v=127
38165 Par ch=10 c=7 v=87
38179 On ch=10 n=40 v=0
38180 On ch=10 n=40 v=126
38189 On ch=10 n=40 v=100
38199 On ch=10 n=40 v=0
38200 On ch=10 n=40 v=126
38208 Par ch=10 c=7 v=86
38209 On ch=10 n=40 v=0
38219 On ch=10 n=40 v=0
38220 On ch=10 n=40 v=127
38225 Par ch=10 c=7 v=85
38233 Par ch=10 c=7 v=84
38239 On ch=10 n=40 v=0
38240 On ch=10 n=40 v=127
38250 On ch=10 n=40 v=100
38259 Par ch=10 c=7 v=83
38259 On ch=10 n=40 v=0
38260 On ch=10 n=40 v=127
38270 On ch=10 n=40 v=0
38279 On ch=10 n=40 v=0
38280 On ch=10 n=40 v=127
38280 Par ch=10 c=7 v=82
38299 On ch=10 n=40 v=0
38300 On ch=10 n=40 v=126
38300 Par ch=10 c=7 v=81
38310 Par ch=10 c=7 v=80
38319 On ch=10 n=40 v=0
38320 On ch=10 n=40 v=126
38327 Par ch=10 c=7 v=79
38339 On ch=10 n=40 v=0
38340 On ch=10 n=40 v=127
38345 Par ch=10 c=7 v=78
38359 On ch=10 n=40 v=0
38360 On ch=10 n=40 v=127
38360 Par ch=10 c=7 v=77
38376 Par ch=10 c=7 v=76
38379 On ch=10 n=40 v=0
38380 On ch=10 n=40 v=127
38394 Par ch=10 c=7 v=75
38399 On ch=10 n=40 v=0
38405 Par ch=10 c=7 v=74
38438 Par ch=10 c=7 v=73
38453 Par ch=10 c=7 v=72
38465 Par ch=10 c=7 v=71
38470 Par ch=10 c=7 v=70
38485 Par ch=10 c=7 v=69
38505 Par ch=10 c=7 v=68
38515 Par ch=10 c=7 v=67
38525 Par ch=10 c=7 v=66
38532 Par ch=10 c=7 v=65
38573 Par ch=10 c=7 v=64
38585 Par ch=10 c=7 v=63
38606 Par ch=10 c=7 v=62
38617 Par ch=10 c=7 v=61
38626 Par ch=10 c=7 v=60
38641 Par ch=10 c=7 v=59
38648 Par ch=10 c=7 v=58
38669 Par ch=10 c=7 v=57
38679 Par ch=10 c=7 v=56
38689 Par ch=10 c=7 v=55
38705 Par ch=10 c=7 v=54
38717 Par ch=10 c=7 v=53
38725 Par ch=10 c=7 v=52
38730 Par ch=10 c=7 v=51
38735 Par ch=10 c=7 v=50
38747 Par ch=10 c=7 v=49
38763 Par ch=10 c=7 v=48
38776 Par ch=10 c=7 v=47
38783 Par ch=10 c=7 v=46
38796 Par ch=10 c=7 v=45
38806 Par ch=10 c=7 v=44
38816 Par ch=10 c=7 v=43
38825 Par ch=10 c=7 v=42
38834 Par ch=10 c=7 v=41
38842 Par ch=10 c=7 v=40
38847 Par ch=10 c=7 v=39
38852 Par ch=10 c=7 v=38
38852 Par ch=10 c=7 v=37
38861 Par ch=10 c=7 v=36
38873 Par ch=10 c=7 v=35
38891 Par ch=10 c=7 v=34
38899 Par ch=10 c=7 v=32
38907 Par ch=10 c=7 v=31
38917 Par ch=10 c=7 v=30
38927 Par ch=10 c=7 v=29
38937 Par ch=10 c=7 v=28
38940 Par ch=10 c=7 v=27
38945 Par ch=10 c=7 v=26
38951 Par ch=10 c=7 v=25
38960 Par ch=10 c=7 v=24
38960 Par ch=10 c=7 v=23
38969 Par ch=10 c=7 v=22
38979 Par ch=10 c=7 v=21
38989 Par ch=10 c=7 v=20
38989 Par ch=10 c=7 v=19
38994 Par ch=10 c=7 v=18
39005 Par ch=10 c=7 v=17
39016 Par ch=10 c=7 v=16
39030 Par ch=10 c=7 v=15
39035 Par ch=10 c=7 v=14
39044 Par ch=10 c=7 v=13
39044 Par ch=10 c=7 v=12
39049 Par ch=10 c=7 v=11
39058 On ch=10 n=50 v=96
39060 Par ch=10 c=7 v=10
39069 Par ch=10 c=7 v=9
39073 On ch=10 n=50 v=0
39075 Par ch=10 c=7 v=8
39082 Par ch=10 c=7 v=7
39088 On ch=10 n=50 v=73
39088 Par ch=10 c=7 v=6
39098 Par ch=10 c=7 v=5
39103 Par ch=10 c=7 v=4
39107 On ch=10 n=50 v=0
39110 Par ch=10 c=7 v=3
39119 On ch=10 n=48 v=98
39122 Par ch=10 c=7 v=2
39133 Par ch=10 c=7 v=1
39133 On ch=10 n=48 v=0
39139 Par ch=10 c=7 v=0
39149 On ch=10 n=48 v=89
39165 On ch=10 n=48 v=0
39179 On ch=10 n=47 v=113
39193 On ch=10 n=47 v=0
39208 On ch=10 n=47 v=73
39221 On ch=10 n=47 v=0
39238 On ch=10 n=47 v=111
39250 On ch=10 n=47 v=0
39266 On ch=10 n=47 v=72
39280 On ch=10 n=47 v=0
39298 On ch=10 n=45 v=127
39307 On ch=10 n=45 v=0
39307 Meta TrkEnd
TrkEnd
MTrk
0 Meta 0x21 00
0 Meta TrkName "Hammond"
0 PrCh ch=11 p=20
0 Par ch=11 c=7 v=70
10676 On ch=11 n=69 v=93
10676 On ch=11 n=74 v=93
10705 On ch=11 n=71 v=91
10708 On ch=11 n=69 v=0
10735 On ch=11 n=69 v=113
10739 On ch=11 n=71 v=0
10764 On ch=11 n=66 v=100
10772 On ch=11 n=74 v=0
10795 On ch=11 n=66 v=0
10797 On ch=11 n=67 v=96
10797 On ch=11 n=69 v=0
10798 On ch=11 n=72 v=117
10823 On ch=11 n=67 v=0
10825 On ch=11 n=69 v=108
10847 On ch=11 n=72 v=0
10857 On ch=11 n=69 v=0
10858 On ch=11 n=67 v=103
10862 Par ch=11 c=64 v=127
10877 On ch=11 n=67 v=0
10887 On ch=11 n=64 v=103
10911 On ch=11 n=64 v=0
10919 On ch=11 n=74 v=117
10920 On ch=11 n=79 v=93
10921 Par ch=11 c=64 v=0
10934 On ch=11 n=74 v=0
10940 On ch=11 n=76 v=127
10972 Par ch=11 c=64 v=127
10979 On ch=11 n=79 v=0
10981 On ch=11 n=76 v=0
11026 On ch=11 n=69 v=78
11027 On ch=11 n=70 v=79
11031 Par ch=11 c=64 v=0
11036 On ch=11 n=71 v=117
11038 On ch=11 n=74 v=85
11039 On ch=11 n=69 v=0
11041 On ch=11 n=70 v=0
11159 On ch=11 n=69 v=98
11159 On ch=11 n=71 v=0
11163 On ch=11 n=74 v=0
11187 On ch=11 n=69 v=0
11189 On ch=11 n=67 v=106
11250 On ch=11 n=67 v=0
11645 On ch=11 n=74 v=93
11647 On ch=11 n=71 v=80
11647 On ch=11 n=66 v=87
11673 On ch=11 n=69 v=82
11675 On ch=11 n=71 v=0
11689 Par ch=11 c=64 v=127
11691 On ch=11 n=66 v=0
11706 On ch=11 n=66 v=71
11717 On ch=11 n=74 v=0
11719 On ch=11 n=66 v=0
11722 On ch=11 n=69 v=0
11734 On ch=11 n=66 v=73
11746 On ch=11 n=66 v=0
11765 Par ch=11 c=64 v=0
11769 On ch=11 n=64 v=86
11769 On ch=11 n=67 v=103
11770 On ch=11 n=72 v=83
11795 On ch=11 n=69 v=72
11799 On ch=11 n=67 v=0
11808 Par ch=11 c=64 v=127
11816 On ch=11 n=64 v=0
11824 On ch=11 n=67 v=93
11826 On ch=11 n=69 v=0
11836 On ch=11 n=72 v=0
11845 On ch=11 n=67 v=0
11852 On ch=11 n=64 v=71
11881 On ch=11 n=64 v=0
11884 On ch=11 n=60 v=100
11888 Par ch=11 c=64 v=0
11913 On ch=11 n=67 v=96
11930 Par ch=11 c=64 v=127
11943 On ch=11 n=67 v=0
11958 On ch=11 n=60 v=0
11970 On ch=11 n=67 v=89
11977 On ch=11 n=67 v=0
11995 On ch=11 n=69 v=96
11997 On ch=11 n=70 v=119
12002 Par ch=11 c=64 v=0
12004 On ch=11 n=62 v=86
12006 On ch=11 n=71 v=120
12008 On ch=11 n=69 v=0
12010 On ch=11 n=70 v=0
12053 Par ch=11 c=64 v=127
12117 On ch=11 n=62 v=0
12117 On ch=11 n=71 v=0
12118 On ch=11 n=69 v=96
12118 On ch=11 n=60 v=86
12124 Par ch=11 c=64 v=0
12147 On ch=11 n=69 v=0
12149 On ch=11 n=59 v=89
12149 On ch=11 n=67 v=93
12149 On ch=11 n=60 v=0
12210 On ch=11 n=67 v=0
12219 On ch=11 n=59 v=0
12329 On ch=11 n=60 v=68
12331 On ch=11 n=69 v=66
12331 On ch=11 n=65 v=55
12382 On ch=11 n=69 v=0
12386 On ch=11 n=65 v=0
12386 On ch=11 n=60 v=0
12417 On ch=11 n=60 v=75
12418 On ch=11 n=69 v=75
12419 On ch=11 n=65 v=68
12424 Par ch=11 c=64 v=127
12439 On ch=11 n=65 v=0
12439 On ch=11 n=60 v=0
12442 On ch=11 n=69 v=0
12480 On ch=11 n=50 v=100
12482 On ch=11 n=62 v=98
12483 Par ch=11 c=64 v=0
12599 On ch=11 n=74 v=100
12599 On ch=11 n=69 v=93
12614 Par ch=11 c=64 v=127
12627 On ch=11 n=71 v=80
12628 On ch=11 n=69 v=0
12647 On ch=11 n=71 v=0
12653 On ch=11 n=69 v=65
12658 On ch=11 n=74 v=0
12674 On ch=11 n=69 v=0
12676 On ch=11 n=62 v=0
12679 On ch=11 n=50 v=0
12681 On ch=11 n=66 v=92
12686 On ch=11 n=66 v=0
12715 Par ch=11 c=64 v=0
12716 On ch=11 n=69 v=103
12716 On ch=11 n=72 v=103
12717 On ch=11 n=48 v=85
12718 On ch=11 n=60 v=71
12742 On ch=11 n=67 v=89
12745 On ch=11 n=69 v=0
12770 Par ch=11 c=64 v=127
12770 On ch=11 n=64 v=91
12770 On ch=11 n=67 v=0
12786 On ch=11 n=72 v=0
12789 On ch=11 n=64 v=0
12798 On ch=11 n=67 v=63
12803 On ch=11 n=67 v=0
12836 On ch=11 n=74 v=117
12837 On ch=11 n=79 v=117
12838 Par ch=11 c=64 v=0
12854 Par ch=11 c=64 v=127
12861 On ch=11 n=74 v=0
12865 On ch=11 n=76 v=117
12882 On ch=11 n=76 v=0
12882 On ch=11 n=79 v=0
12905 On ch=11 n=48 v=0
12907 On ch=11 n=60 v=0
12943 On ch=11 n=69 v=85
12945 On ch=11 n=70 v=92
12950 On ch=11 n=71 v=98
12951 Par ch=11 c=64 v=0
12953 On ch=11 n=74 v=83
12955 On ch=11 n=69 v=0
12956 On ch=11 n=70 v=0
13075 On ch=11 n=69 v=98
13075 On ch=11 n=71 v=0
13087 On ch=11 n=74 v=0
13104 On ch=11 n=67 v=108
13104 On ch=11 n=69 v=0
13112 Par ch=11 c=64 v=127
13128 On ch=11 n=67 v=0
13166 On ch=11 n=43 v=103
13167 Par ch=11 c=64 v=0
13192 On ch=11 n=45 v=103
13194 On ch=11 n=43 v=0
13222 On ch=11 n=47 v=103
13222 On ch=11 n=45 v=0
13250 On ch=11 n=50 v=98
13250 On ch=11 n=47 v=0
13282 On ch=11 n=53 v=127
13282 On ch=11 n=50 v=0
13347 On ch=11 n=50 v=113
13352 On ch=11 n=53 v=0
13372 On ch=11 n=53 v=127
13373 On ch=11 n=50 v=0
13431 On ch=11 n=53 v=0
13433 On ch=11 n=50 v=126
13556 On ch=11 n=66 v=92
13557 On ch=11 n=71 v=126
13557 On ch=11 n=74 v=89
13589 On ch=11 n=69 v=108
13592 On ch=11 n=71 v=0
13592 On ch=11 n=66 v=0
13610 Par ch=11 c=64 v=127
13616 On ch=11 n=66 v=96
13622 On ch=11 n=69 v=0
13624 On ch=11 n=74 v=0
13631 On ch=11 n=66 v=0
13637 On ch=11 n=50 v=0
13645 On ch=11 n=66 v=87
13656 On ch=11 n=66 v=0
13673 Par ch=11 c=64 v=0
13675 On ch=11 n=67 v=113
13675 On ch=11 n=64 v=106
13677 On ch=11 n=72 v=85
13677 On ch=11 n=48 v=106
13703 On ch=11 n=69 v=82
13706 On ch=11 n=67 v=0
13707 Par ch=11 c=64 v=127
13718 On ch=11 n=64 v=0
13735 On ch=11 n=67 v=85
13735 On ch=11 n=69 v=0
13752 On ch=11 n=72 v=0
13754 On ch=11 n=67 v=0
13759 On ch=11 n=64 v=64
13770 On ch=11 n=64 v=0
13784 On ch=11 n=48 v=0
13796 On ch=11 n=60 v=111
13826 On ch=11 n=67 v=91
13829 On ch=11 n=60 v=0
13840 On ch=11 n=67 v=0
13856 On ch=11 n=52 v=103
13887 On ch=11 n=53 v=91
13893 On ch=11 n=52 v=0
13896 On ch=11 n=54 v=87
13904 On ch=11 n=53 v=0
13906 Par ch=11 c=64 v=0
13912 On ch=11 n=67 v=96
13913 On ch=11 n=55 v=127
13914 On ch=11 n=54 v=0
13942 On ch=11 n=67 v=0
13944 On ch=11 n=55 v=0
13944 Meta TrkEnd
TrkEnd
MTrk
0 Meta 0x21 00
0 Meta TrkName "Hammond 2"
0 PrCh ch=12 p=50
0 Par ch=12 c=7 v=105
80 PrCh ch=12 p=16
80 Par ch=12 c=0 v=8
15415 On ch=12 n=81 v=113
15474 On ch=12 n=81 v=0
15476 On ch=12 n=93 v=117
15648 Par ch=12 c=64 v=127
15668 On ch=12 n=93 v=0
15688 On ch=12 n=93 v=91
15698 Par ch=12 c=64 v=0
15712 On ch=12 n=95 v=106
15713 On ch=12 n=93 v=0
15756 On ch=12 n=93 v=108
15760 On ch=12 n=95 v=0
16069 On ch=12 n=95 v=106
16072 On ch=12 n=93 v=0
16129 On ch=12 n=93 v=93
16135 On ch=12 n=95 v=0
16190 On ch=12 n=91 v=98
16190 On ch=12 n=93 v=0
16248 On ch=12 n=90 v=96
16253 On ch=12 n=91 v=0
16309 On ch=12 n=90 v=0
16310 On ch=12 n=85 v=75
16312 On ch=12 n=88 v=82
16370 Par ch=12 c=64 v=127
16370 On ch=12 n=90 v=76
16370 On ch=12 n=85 v=0
16372 On ch=12 n=86 v=73
16373 On ch=12 n=88 v=0
16382 Par ch=12 c=64 v=0
16557 On ch=12 n=90 v=0
16558 On ch=12 n=86 v=0
17271 On ch=12 n=85 v=71
17271 On ch=12 n=88 v=113
17329 On ch=12 n=90 v=84
17330 On ch=12 n=86 v=93
17332 On ch=12 n=88 v=0
17333 On ch=12 n=85 v=0
17585 Par ch=12 c=64 v=127
17603 On ch=12 n=90 v=0
17616 On ch=12 n=86 v=0
17635 On ch=12 n=84 v=83
17636 Par ch=12 c=64 v=0
17666 On ch=12 n=86 v=100
17669 On ch=12 n=84 v=0
17692 On ch=12 n=90 v=92
17694 On ch=12 n=86 v=0
17721 On ch=12 n=93 v=86
17728 On ch=12 n=90 v=0
17751 On ch=12 n=93 v=0
17752 On ch=12 n=88 v=111
17779 On ch=12 n=90 v=104
17781 On ch=12 n=88 v=0
17893 Par ch=12 c=64 v=127
17901 On ch=12 n=90 v=0
17991 Par ch=12 c=64 v=0
17993 On ch=12 n=83 v=106
18022 On ch=12 n=81 v=111
18022 On ch=12 n=83 v=0
18075 Par ch=12 c=64 v=127
18112 On ch=12 n=79 v=103
18112 On ch=12 n=81 v=0
18117 Par ch=12 c=64 v=0
18145 On ch=12 n=78 v=100
18150 On ch=12 n=79 v=0
18176 Par ch=12 c=64 v=127
18185 On ch=12 n=78 v=0
18233 On ch=12 n=85 v=104
18236 Par ch=12 c=64 v=0
18259 On ch=12 n=86 v=100
18259 On ch=12 n=85 v=0
18707 On ch=12 n=86 v=0
27895 On ch=12 n=81 v=113
27954 On ch=12 n=81 v=0
27956 On ch=12 n=93 v=117
28128 Par ch=12 c=64 v=127
28148 On ch=12 n=93 v=0
28168 On ch=12 n=93 v=91
28178 Par ch=12 c=64 v=0
28192 On ch=12 n=95 v=106
28193 On ch=12 n=93 v=0
28236 On ch=12 n=93 v=108
28240 On ch=12 n=95 v=0
28549 On ch=12 n=95 v=106
28552 On ch=12 n=93 v=0
28609 On ch=12 n=93 v=93
28615 On ch=12 n=95 v=0
28670 On ch=12 n=91 v=98
28670 On ch=12 n=93 v=0
28728 On ch=12 n=90 v=96
28733 On ch=12 n=91 v=0
28789 On ch=12 n=90 v=0
28790 On ch=12 n=85 v=75
28792 On ch=12 n=88 v=82
28850 Par ch=12 c=64 v=127
28850 On ch=12 n=90 v=76
28850 On ch=12 n=85 v=0
28852 On ch=12 n=86 v=73
28853 On ch=12 n=88 v=0
28862 Par ch=12 c=64 v=0
29037 On ch=12 n=90 v=0
29038 On ch=12 n=86 v=0
29751 On ch=12 n=85 v=71
29751 On ch=12 n=88 v=113
29809 On ch=12 n=90 v=84
29810 On ch=12 n=86 v=93
29812 On ch=12 n=88 v=0
29813 On ch=12 n=85 v=0
30065 Par ch=12 c=64 v=127
30083 On ch=12 n=90 v=0
30096 On ch=12 n=86 v=0
30115 On ch=12 n=84 v=83
30116 Par ch=12 c=64 v=0
30146 On ch=12 n=86 v=100
30149 On ch=12 n=84 v=0
30172 On ch=12 n=90 v=92
30174 On ch=12 n=86 v=0
30201 On ch=12 n=93 v=86
30208 On ch=12 n=90 v=0
30231 On ch=12 n=93 v=0
30232 On ch=12 n=88 v=111
30259 On ch=12 n=90 v=104
30261 On ch=12 n=88 v=0
30373 Par ch=12 c=64 v=127
30381 On ch=12 n=90 v=0
30471 Par ch=12 c=64 v=0
30473 On ch=12 n=83 v=106
30502 On ch=12 n=81 v=111
30502 On ch=12 n=83 v=0
30555 Par ch=12 c=64 v=127
30592 On ch=12 n=79 v=103
30592 On ch=12 n=81 v=0
30597 Par ch=12 c=64 v=0
30625 On ch=12 n=78 v=100
30630 On ch=12 n=79 v=0
30656 Par ch=12 c=64 v=127
30665 On ch=12 n=78 v=0
30713 On ch=12 n=85 v=104
30716 Par ch=12 c=64 v=0
30739 On ch=12 n=86 v=100
30739 On ch=12 n=85 v=0
31187 On ch=12 n=86 v=0
31187 Meta TrkEnd
TrkEnd
MTrk
0 Meta 0x21 00
0 Meta TrkName "Your Time Is Gonna "
0 Meta TrkEnd
TrkEnd
MTrk
0 Meta 0x21 00
0 Meta TrkName "Come"
0 Meta TrkEnd
TrkEnd
MTrk
0 Meta 0x21 00
0 Meta TrkName "-Led Zeppelin"
0 Meta TrkEnd
TrkEnd
MTrk
0 Meta 0x21 00
0 Meta TrkName "Seq by M Boer"
0 Meta TrkEnd
TrkEnd
