MFile 1 14 384
MTrk
0 TimeSig 4/4 96 8
0 SeqSpec 00 00 41
0 Tempo 750000
0 Meta TrkEnd
TrkEnd
MTrk
0 Meta TrkName "melody (harmonica)  "
0 Par ch=1 c=0 v=0
0 PrCh ch=1 p=22
0 KeySig 0 major
24 PrCh ch=1 p=22
96 Par ch=1 c=1 v=0
24192 On ch=1 n=69 v=72
24360 Off ch=1 n=69 v=64
24384 On ch=1 n=71 v=72
24552 Off ch=1 n=71 v=64
24576 On ch=1 n=72 v=72
24936 Off ch=1 n=72 v=64
24960 On ch=1 n=71 v=72
25032 Off ch=1 n=71 v=64
25056 On ch=1 n=69 v=72
25224 Off ch=1 n=69 v=64
25248 On ch=1 n=71 v=72
25512 Off ch=1 n=71 v=64
25920 On ch=1 n=69 v=72
25992 Off ch=1 n=69 v=64
26016 On ch=1 n=71 v=72
26088 Off ch=1 n=71 v=64
26112 On ch=1 n=72 v=72
26184 Off ch=1 n=72 v=64
26208 On ch=1 n=74 v=72
26664 Off ch=1 n=74 v=64
26688 On ch=1 n=72 v=72
26856 Off ch=1 n=72 v=64
26880 On ch=1 n=71 v=72
26976 Off ch=1 n=71 v=64
26976 On ch=1 n=69 v=72
27240 Off ch=1 n=69 v=64
27264 On ch=1 n=72 v=72
27432 Off ch=1 n=72 v=64
27456 On ch=1 n=74 v=72
27624 Off ch=1 n=74 v=64
27648 On ch=1 n=76 v=72
27912 Off ch=1 n=76 v=64
27936 On ch=1 n=74 v=72
28200 Off ch=1 n=74 v=64
28224 On ch=1 n=72 v=72
28392 Off ch=1 n=72 v=64
28416 On ch=1 n=71 v=72
28584 Off ch=1 n=71 v=64
28608 On ch=1 n=69 v=72
28968 Off ch=1 n=69 v=64
29088 On ch=1 n=67 v=72
29160 Off ch=1 n=67 v=64
29184 On ch=1 n=67 v=72
29352 Off ch=1 n=67 v=64
29376 On ch=1 n=69 v=72
29928 Off ch=1 n=69 v=64
30336 On ch=1 n=69 v=72
30504 Off ch=1 n=69 v=64
30528 On ch=1 n=71 v=72
30696 Off ch=1 n=71 v=64
30720 On ch=1 n=72 v=72
31080 Off ch=1 n=72 v=64
31104 On ch=1 n=71 v=72
31272 Off ch=1 n=71 v=64
31296 On ch=1 n=69 v=72
31368 Off ch=1 n=69 v=64
31392 On ch=1 n=71 v=72
31656 Off ch=1 n=71 v=64
32064 On ch=1 n=69 v=72
32136 Off ch=1 n=69 v=64
32160 On ch=1 n=71 v=72
32232 Off ch=1 n=71 v=64
32256 On ch=1 n=72 v=72
32520 Off ch=1 n=72 v=64
32544 On ch=1 n=74 v=72
32808 Off ch=1 n=74 v=64
32832 On ch=1 n=72 v=72
33000 Off ch=1 n=72 v=64
33024 On ch=1 n=71 v=72
33120 Off ch=1 n=71 v=64
33120 On ch=1 n=69 v=72
33384 Off ch=1 n=69 v=64
33504 On ch=1 n=72 v=72
33576 Off ch=1 n=72 v=64
33600 On ch=1 n=74 v=72
33672 Off ch=1 n=74 v=64
33696 On ch=1 n=76 v=72
34056 Off ch=1 n=76 v=64
34080 On ch=1 n=74 v=72
34344 Off ch=1 n=74 v=64
34368 On ch=1 n=72 v=72
34536 Off ch=1 n=72 v=64
34560 On ch=1 n=71 v=72
34920 Off ch=1 n=71 v=64
34944 On ch=1 n=69 v=72
35112 Off ch=1 n=69 v=64
35136 On ch=1 n=67 v=72
35304 Off ch=1 n=67 v=64
35328 On ch=1 n=67 v=72
35520 Off ch=1 n=67 v=64
35520 On ch=1 n=69 v=72
35688 Off ch=1 n=69 v=64
35712 On ch=1 n=69 v=72
36072 Off ch=1 n=69 v=64
37248 On ch=1 n=72 v=72
37416 Off ch=1 n=72 v=64
37416 On ch=1 n=76 v=72
37632 Off ch=1 n=76 v=64
37632 On ch=1 n=74 v=72
38376 Off ch=1 n=74 v=64
38400 On ch=1 n=74 v=72
38880 Off ch=1 n=74 v=64
38880 On ch=1 n=72 v=72
38976 Off ch=1 n=72 v=64
38976 On ch=1 n=71 v=72
39168 Off ch=1 n=71 v=64
39168 On ch=1 n=72 v=72
39360 Off ch=1 n=72 v=64
39360 On ch=1 n=69 v=72
39528 Off ch=1 n=69 v=64
39552 On ch=1 n=69 v=72
39720 Off ch=1 n=69 v=64
39744 On ch=1 n=71 v=72
39912 Off ch=1 n=71 v=64
39936 On ch=1 n=72 v=72
40128 Off ch=1 n=72 v=64
40128 On ch=1 n=74 v=72
40296 Off ch=1 n=74 v=64
40320 On ch=1 n=76 v=72
40488 Off ch=1 n=76 v=64
40512 On ch=1 n=74 v=72
40680 Off ch=1 n=74 v=64
40704 On ch=1 n=74 v=72
40800 Off ch=1 n=74 v=64
40800 On ch=1 n=72 v=72
41064 Off ch=1 n=72 v=64
41088 On ch=1 n=71 v=72
41352 Off ch=1 n=71 v=64
41376 On ch=1 n=67 v=72
41448 Off ch=1 n=67 v=64
41472 On ch=1 n=67 v=72
41640 Off ch=1 n=67 v=64
41664 On ch=1 n=69 v=72
42216 Off ch=1 n=69 v=64
42624 On ch=1 n=69 v=72
42792 Off ch=1 n=69 v=64
42816 On ch=1 n=71 v=72
42984 Off ch=1 n=71 v=64
43008 On ch=1 n=72 v=72
43368 Off ch=1 n=72 v=64
43392 On ch=1 n=71 v=72
43560 Off ch=1 n=71 v=64
43584 On ch=1 n=69 v=72
43656 Off ch=1 n=69 v=64
43680 On ch=1 n=71 v=72
43776 Off ch=1 n=71 v=64
43776 On ch=1 n=69 v=72
44136 Off ch=1 n=69 v=64
44352 On ch=1 n=69 v=72
44424 Off ch=1 n=69 v=64
44448 On ch=1 n=71 v=72
44520 Off ch=1 n=71 v=64
44544 On ch=1 n=72 v=72
44904 Off ch=1 n=72 v=64
44928 On ch=1 n=74 v=72
45000 Off ch=1 n=74 v=64
45024 On ch=1 n=72 v=72
45192 Off ch=1 n=72 v=64
45216 On ch=1 n=71 v=72
45312 Off ch=1 n=71 v=64
45312 On ch=1 n=69 v=72
45672 Off ch=1 n=69 v=64
45696 On ch=1 n=72 v=72
45864 Off ch=1 n=72 v=64
45888 On ch=1 n=74 v=72
46056 Off ch=1 n=74 v=64
46080 On ch=1 n=76 v=72
46344 Off ch=1 n=76 v=64
46368 On ch=1 n=74 v=72
46632 Off ch=1 n=74 v=64
46656 On ch=1 n=72 v=72
46824 Off ch=1 n=72 v=64
46848 On ch=1 n=71 v=72
47112 Off ch=1 n=71 v=64
47136 On ch=1 n=69 v=72
47400 Off ch=1 n=69 v=64
47424 On ch=1 n=67 v=72
47592 Off ch=1 n=67 v=64
47616 On ch=1 n=67 v=72
47784 Off ch=1 n=67 v=64
47808 On ch=1 n=69 v=72
47976 Off ch=1 n=69 v=64
48000 On ch=1 n=69 v=72
48360 Off ch=1 n=69 v=64
48768 On ch=1 n=69 v=72
48936 Off ch=1 n=69 v=64
48960 On ch=1 n=71 v=72
49128 Off ch=1 n=71 v=64
49152 On ch=1 n=72 v=72
49512 Off ch=1 n=72 v=64
49536 On ch=1 n=74 v=72
49704 Off ch=1 n=74 v=64
49728 On ch=1 n=72 v=72
49800 Off ch=1 n=72 v=64
49824 On ch=1 n=71 v=72
49920 Off ch=1 n=71 v=64
49920 On ch=1 n=69 v=72
50280 Off ch=1 n=69 v=64
50304 On ch=1 n=69 v=72
50472 Off ch=1 n=69 v=64
50496 On ch=1 n=71 v=72
50664 Off ch=1 n=71 v=64
50688 On ch=1 n=72 v=72
50952 Off ch=1 n=72 v=64
50976 On ch=1 n=74 v=72
51240 Off ch=1 n=74 v=64
51264 On ch=1 n=72 v=72
51432 Off ch=1 n=72 v=64
51456 On ch=1 n=71 v=72
51552 Off ch=1 n=71 v=64
51552 On ch=1 n=69 v=72
51816 Off ch=1 n=69 v=64
51840 On ch=1 n=72 v=72
52008 Off ch=1 n=72 v=64
52032 On ch=1 n=74 v=72
52200 Off ch=1 n=74 v=64
52224 On ch=1 n=76 v=72
52488 Off ch=1 n=76 v=64
52512 On ch=1 n=74 v=72
52680 Off ch=1 n=74 v=64
52704 On ch=1 n=72 v=72
52968 Off ch=1 n=72 v=64
52992 On ch=1 n=71 v=72
53088 Off ch=1 n=71 v=64
53088 On ch=1 n=69 v=72
53256 Off ch=1 n=69 v=64
53376 On ch=1 n=69 v=72
53544 Off ch=1 n=69 v=64
53568 On ch=1 n=67 v=72
53736 Off ch=1 n=67 v=64
53760 On ch=1 n=67 v=72
53928 Off ch=1 n=67 v=64
53952 On ch=1 n=69 v=72
54120 Off ch=1 n=69 v=64
54144 On ch=1 n=69 v=72
54480 Off ch=1 n=69 v=64
62976 On ch=1 n=72 v=90
63912 Off ch=1 n=72 v=64
63936 On ch=1 n=72 v=90
64008 Off ch=1 n=72 v=64
64032 On ch=1 n=71 v=90
64296 Off ch=1 n=71 v=64
64320 On ch=1 n=72 v=90
64488 Off ch=1 n=72 v=64
64512 On ch=1 n=71 v=90
64680 Off ch=1 n=71 v=64
64704 On ch=1 n=69 v=90
65256 Off ch=1 n=69 v=64
67584 On ch=1 n=72 v=90
69480 Off ch=1 n=72 v=64
69504 On ch=1 n=71 v=90
69672 Off ch=1 n=71 v=64
69696 On ch=1 n=72 v=90
69768 Off ch=1 n=72 v=64
69792 On ch=1 n=71 v=90
69984 Off ch=1 n=71 v=64
69984 On ch=1 n=69 v=90
70080 Off ch=1 n=69 v=64
70104 On ch=1 n=69 v=90
70656 Off ch=1 n=69 v=64
70656 On ch=1 n=69 v=90
70656 Off ch=1 n=69 v=64
70944 On ch=1 n=67 v=90
71016 Off ch=1 n=67 v=64
71040 On ch=1 n=69 v=90
71208 Off ch=1 n=69 v=64
71232 On ch=1 n=67 v=90
71304 Off ch=1 n=67 v=64
71328 On ch=1 n=69 v=90
71496 Off ch=1 n=69 v=64
71520 On ch=1 n=67 v=90
71592 Off ch=1 n=67 v=64
71616 On ch=1 n=69 v=90
72168 Off ch=1 n=69 v=64
73344 On ch=1 n=69 v=90
73512 Off ch=1 n=69 v=64
73536 On ch=1 n=71 v=90
73704 Off ch=1 n=71 v=64
73728 On ch=1 n=72 v=90
74088 Off ch=1 n=72 v=64
74112 On ch=1 n=71 v=90
74184 Off ch=1 n=71 v=64
74208 On ch=1 n=69 v=90
74376 Off ch=1 n=69 v=64
74400 On ch=1 n=71 v=90
74856 Off ch=1 n=71 v=64
74976 On ch=1 n=69 v=90
75048 Off ch=1 n=69 v=64
75072 On ch=1 n=71 v=90
75240 Off ch=1 n=71 v=64
75264 On ch=1 n=72 v=90
75624 Off ch=1 n=72 v=64
75648 On ch=1 n=74 v=90
75816 Off ch=1 n=74 v=64
75840 On ch=1 n=72 v=90
75912 Off ch=1 n=72 v=64
75936 On ch=1 n=71 v=90
76032 Off ch=1 n=71 v=64
76032 On ch=1 n=69 v=90
76392 Off ch=1 n=69 v=64
76416 On ch=1 n=72 v=90
76584 Off ch=1 n=72 v=64
76608 On ch=1 n=74 v=90
76776 Off ch=1 n=74 v=64
76800 On ch=1 n=76 v=90
77160 Off ch=1 n=76 v=64
77184 On ch=1 n=74 v=90
77352 Off ch=1 n=74 v=64
77376 On ch=1 n=72 v=90
77544 Off ch=1 n=72 v=64
77568 On ch=1 n=71 v=90
77736 Off ch=1 n=71 v=64
77760 On ch=1 n=69 v=90
77928 Off ch=1 n=69 v=64
77952 On ch=1 n=67 v=90
78120 Off ch=1 n=67 v=64
78144 On ch=1 n=67 v=90
78504 Off ch=1 n=67 v=64
78528 On ch=1 n=69 v=90
79080 Off ch=1 n=69 v=64
79488 On ch=1 n=69 v=90
79656 Off ch=1 n=69 v=64
79680 On ch=1 n=71 v=90
79848 Off ch=1 n=71 v=64
79872 On ch=1 n=72 v=90
80232 Off ch=1 n=72 v=64
80256 On ch=1 n=74 v=90
80424 Off ch=1 n=74 v=64
80448 On ch=1 n=72 v=90
80616 Off ch=1 n=72 v=64
80640 On ch=1 n=71 v=90
80712 Off ch=1 n=71 v=64
80736 On ch=1 n=69 v=90
81144 Off ch=1 n=69 v=64
81168 On ch=1 n=69 v=90
81264 Off ch=1 n=69 v=64
81288 On ch=1 n=71 v=90
81384 Off ch=1 n=71 v=64
81408 On ch=1 n=72 v=90
81768 Off ch=1 n=72 v=64
81792 On ch=1 n=74 v=90
81960 Off ch=1 n=74 v=64
81984 On ch=1 n=72 v=90
82056 Off ch=1 n=72 v=64
82080 On ch=1 n=71 v=90
82176 Off ch=1 n=71 v=64
82176 On ch=1 n=69 v=90
82536 Off ch=1 n=69 v=64
82560 On ch=1 n=72 v=90
82728 Off ch=1 n=72 v=64
82752 On ch=1 n=74 v=90
82920 Off ch=1 n=74 v=64
82944 On ch=1 n=76 v=90
83304 Off ch=1 n=76 v=64
83328 On ch=1 n=74 v=90
83496 Off ch=1 n=74 v=64
83520 On ch=1 n=72 v=90
83688 Off ch=1 n=72 v=64
83712 On ch=1 n=71 v=90
83880 Off ch=1 n=71 v=64
83904 On ch=1 n=69 v=90
84072 Off ch=1 n=69 v=64
84096 On ch=1 n=67 v=90
84264 Off ch=1 n=67 v=64
84288 On ch=1 n=67 v=90
84648 Off ch=1 n=67 v=64
84672 On ch=1 n=69 v=90
85224 Off ch=1 n=69 v=64
89088 On ch=1 n=72 v=90
90024 Off ch=1 n=72 v=64
90048 On ch=1 n=72 v=90
90120 Off ch=1 n=72 v=64
90144 On ch=1 n=71 v=90
90408 Off ch=1 n=71 v=64
90432 On ch=1 n=72 v=90
90600 Off ch=1 n=72 v=64
90624 On ch=1 n=71 v=90
90792 Off ch=1 n=71 v=64
90816 On ch=1 n=69 v=90
91368 Off ch=1 n=69 v=64
93696 On ch=1 n=72 v=90
95592 Off ch=1 n=72 v=64
95616 On ch=1 n=71 v=90
95784 Off ch=1 n=71 v=64
95808 On ch=1 n=72 v=90
95880 Off ch=1 n=72 v=64
95904 On ch=1 n=71 v=90
96096 Off ch=1 n=71 v=64
96096 On ch=1 n=69 v=90
96192 Off ch=1 n=69 v=64
96216 On ch=1 n=69 v=90
96768 Off ch=1 n=69 v=64
96768 On ch=1 n=69 v=90
96768 Off ch=1 n=69 v=64
97056 On ch=1 n=67 v=90
97128 Off ch=1 n=67 v=64
97152 On ch=1 n=69 v=90
97320 Off ch=1 n=69 v=64
97344 On ch=1 n=67 v=90
97416 Off ch=1 n=67 v=64
97440 On ch=1 n=69 v=90
97608 Off ch=1 n=69 v=64
97632 On ch=1 n=67 v=90
97704 Off ch=1 n=67 v=64
97728 On ch=1 n=69 v=90
98280 Off ch=1 n=69 v=64
99456 On ch=1 n=69 v=90
99624 Off ch=1 n=69 v=64
99648 On ch=1 n=71 v=90
99816 Off ch=1 n=71 v=64
99840 On ch=1 n=72 v=90
100200 Off ch=1 n=72 v=64
100224 On ch=1 n=71 v=90
100296 Off ch=1 n=71 v=64
100320 On ch=1 n=69 v=90
100488 Off ch=1 n=69 v=64
100512 On ch=1 n=71 v=90
100968 Off ch=1 n=71 v=64
101088 On ch=1 n=69 v=90
101160 Off ch=1 n=69 v=64
101184 On ch=1 n=71 v=90
101352 Off ch=1 n=71 v=64
101376 On ch=1 n=72 v=90
101736 Off ch=1 n=72 v=64
101760 On ch=1 n=74 v=90
101928 Off ch=1 n=74 v=64
101952 On ch=1 n=72 v=90
102024 Off ch=1 n=72 v=64
102048 On ch=1 n=71 v=90
102144 Off ch=1 n=71 v=64
102144 On ch=1 n=69 v=90
102504 Off ch=1 n=69 v=64
102528 On ch=1 n=72 v=90
102696 Off ch=1 n=72 v=64
102720 On ch=1 n=74 v=90
102888 Off ch=1 n=74 v=64
102912 On ch=1 n=76 v=90
103272 Off ch=1 n=76 v=64
103296 On ch=1 n=74 v=90
103464 Off ch=1 n=74 v=64
103488 On ch=1 n=72 v=90
103656 Off ch=1 n=72 v=64
103680 On ch=1 n=71 v=90
103848 Off ch=1 n=71 v=64
103872 On ch=1 n=69 v=90
104040 Off ch=1 n=69 v=64
104064 On ch=1 n=67 v=90
104232 Off ch=1 n=67 v=64
104256 On ch=1 n=67 v=90
104616 Off ch=1 n=67 v=64
104640 On ch=1 n=69 v=90
105192 Off ch=1 n=69 v=64
105600 On ch=1 n=69 v=90
105768 Off ch=1 n=69 v=64
105792 On ch=1 n=71 v=90
105960 Off ch=1 n=71 v=64
105984 On ch=1 n=72 v=90
106344 Off ch=1 n=72 v=64
106368 On ch=1 n=74 v=90
106536 Off ch=1 n=74 v=64
106560 On ch=1 n=72 v=90
106728 Off ch=1 n=72 v=64
106752 On ch=1 n=71 v=90
106824 Off ch=1 n=71 v=64
106848 On ch=1 n=69 v=90
107256 Off ch=1 n=69 v=64
107280 On ch=1 n=69 v=90
107376 Off ch=1 n=69 v=64
107400 On ch=1 n=71 v=90
107496 Off ch=1 n=71 v=64
107520 On ch=1 n=72 v=90
107880 Off ch=1 n=72 v=64
107904 On ch=1 n=74 v=90
108072 Off ch=1 n=74 v=64
108096 On ch=1 n=72 v=90
108168 Off ch=1 n=72 v=64
108192 On ch=1 n=71 v=90
108288 Off ch=1 n=71 v=64
108288 On ch=1 n=69 v=90
108648 Off ch=1 n=69 v=64
108672 On ch=1 n=72 v=90
108840 Off ch=1 n=72 v=64
108864 On ch=1 n=74 v=90
109032 Off ch=1 n=74 v=64
109056 On ch=1 n=76 v=90
109416 Off ch=1 n=76 v=64
109440 On ch=1 n=74 v=90
109608 Off ch=1 n=74 v=64
109632 On ch=1 n=72 v=90
109800 Off ch=1 n=72 v=64
109824 On ch=1 n=71 v=90
109992 Off ch=1 n=71 v=64
110016 On ch=1 n=69 v=90
110184 Off ch=1 n=69 v=64
110208 On ch=1 n=67 v=90
110376 Off ch=1 n=67 v=64
110400 On ch=1 n=67 v=90
110760 Off ch=1 n=67 v=64
110784 On ch=1 n=69 v=90
111336 Off ch=1 n=69 v=64
121344 On ch=1 n=72 v=90
121440 Off ch=1 n=72 v=64
121440 On ch=1 n=74 v=90
121536 Off ch=1 n=74 v=64
121536 On ch=1 n=72 v=90
121632 Off ch=1 n=72 v=64
121632 On ch=1 n=74 v=90
121728 Off ch=1 n=74 v=64
121728 On ch=1 n=72 v=90
121824 Off ch=1 n=72 v=64
121824 On ch=1 n=74 v=90
121920 Off ch=1 n=74 v=64
121920 On ch=1 n=72 v=90
122016 Off ch=1 n=72 v=64
122016 On ch=1 n=74 v=90
122112 Off ch=1 n=74 v=64
122112 On ch=1 n=72 v=90
122376 Off ch=1 n=72 v=64
122400 On ch=1 n=71 v=90
122568 Off ch=1 n=71 v=64
122592 On ch=1 n=69 v=90
122856 Off ch=1 n=69 v=64
126144 On ch=1 n=76 v=90
126312 Off ch=1 n=76 v=64
126336 On ch=1 n=74 v=90
126504 Off ch=1 n=74 v=64
126528 On ch=1 n=72 v=90
126696 Off ch=1 n=72 v=64
126720 On ch=1 n=74 v=90
126888 Off ch=1 n=74 v=64
126912 On ch=1 n=72 v=90
127080 Off ch=1 n=72 v=64
127104 On ch=1 n=69 v=90
127272 Off ch=1 n=69 v=64
127296 On ch=1 n=67 v=90
127368 Off ch=1 n=67 v=64
127392 On ch=1 n=69 v=90
127656 Off ch=1 n=69 v=64
127680 On ch=1 n=72 v=90
127944 Off ch=1 n=72 v=64
127968 On ch=1 n=69 v=90
128040 Off ch=1 n=69 v=64
128064 On ch=1 n=69 v=90
128136 Off ch=1 n=69 v=64
128160 On ch=1 n=67 v=90
128232 Off ch=1 n=67 v=64
128256 On ch=1 n=69 v=90
128352 Off ch=1 n=69 v=64
128352 On ch=1 n=64 v=90
128424 Off ch=1 n=64 v=64
128448 On ch=1 n=64 v=90
128616 Off ch=1 n=64 v=64
129216 On ch=1 n=72 v=90
129384 Off ch=1 n=72 v=64
129408 On ch=1 n=72 v=90
129576 Off ch=1 n=72 v=64
129600 On ch=1 n=76 v=90
129768 Off ch=1 n=76 v=64
129792 On ch=1 n=74 v=90
129960 Off ch=1 n=74 v=64
129984 On ch=1 n=72 v=90
130152 Off ch=1 n=72 v=64
130176 On ch=1 n=69 v=90
130248 Off ch=1 n=69 v=64
130272 On ch=1 n=67 v=90
130344 Off ch=1 n=67 v=64
130368 On ch=1 n=72 v=90
130728 Off ch=1 n=72 v=64
130752 On ch=1 n=69 v=90
131328 Off ch=1 n=69 v=64
132288 On ch=1 n=76 v=90
132456 Off ch=1 n=76 v=64
132480 On ch=1 n=74 v=90
132648 Off ch=1 n=74 v=64
132672 On ch=1 n=72 v=90
132840 Off ch=1 n=72 v=64
132864 On ch=1 n=74 v=90
133032 Off ch=1 n=74 v=64
133056 On ch=1 n=72 v=90
133224 Off ch=1 n=72 v=64
133248 On ch=1 n=69 v=90
133416 Off ch=1 n=69 v=64
133440 On ch=1 n=67 v=90
133608 Off ch=1 n=67 v=64
133632 On ch=1 n=69 v=90
133800 Off ch=1 n=69 v=64
133824 On ch=1 n=72 v=90
134088 Off ch=1 n=72 v=64
134112 On ch=1 n=69 v=90
134184 Off ch=1 n=69 v=64
134208 On ch=1 n=69 v=90
134280 Off ch=1 n=69 v=64
134304 On ch=1 n=67 v=90
134376 Off ch=1 n=67 v=64
134400 On ch=1 n=69 v=90
134496 Off ch=1 n=69 v=64
134496 On ch=1 n=64 v=90
134568 Off ch=1 n=64 v=64
134592 On ch=1 n=64 v=90
134760 Off ch=1 n=64 v=64
135456 On ch=1 n=69 v=90
135528 Off ch=1 n=69 v=64
135552 On ch=1 n=72 v=90
135720 Off ch=1 n=72 v=64
135744 On ch=1 n=76 v=90
135912 Off ch=1 n=76 v=64
135936 On ch=1 n=74 v=90
136104 Off ch=1 n=74 v=64
136128 On ch=1 n=72 v=90
136200 Off ch=1 n=72 v=64
136224 On ch=1 n=74 v=90
136392 Off ch=1 n=74 v=64
136416 On ch=1 n=69 v=90
136488 Off ch=1 n=69 v=64
136512 On ch=1 n=72 v=90
136896 Off ch=1 n=72 v=64
136896 On ch=1 n=69 v=90
136968 Off ch=1 n=69 v=64
136992 On ch=1 n=69 v=90
137448 Off ch=1 n=69 v=64
142272 On ch=1 n=74 v=90
142344 Off ch=1 n=74 v=64
142368 On ch=1 n=74 v=90
142440 Off ch=1 n=74 v=64
142464 On ch=1 n=74 v=90
142632 Off ch=1 n=74 v=64
142656 On ch=1 n=74 v=90
142728 Off ch=1 n=74 v=64
142752 On ch=1 n=72 v=90
143016 Off ch=1 n=72 v=64
143040 On ch=1 n=72 v=90
143592 Off ch=1 n=72 v=64
147456 On ch=1 n=76 v=90
148392 Off ch=1 n=76 v=64
148416 On ch=1 n=78 v=90
148488 Off ch=1 n=78 v=64
148512 On ch=1 n=74 v=90
148680 Off ch=1 n=74 v=64
148704 On ch=1 n=72 v=90
149160 Off ch=1 n=72 v=64
152256 On ch=1 n=76 v=90
152424 Off ch=1 n=76 v=64
152448 On ch=1 n=74 v=90
152616 Off ch=1 n=74 v=64
152640 On ch=1 n=72 v=90
152808 Off ch=1 n=72 v=64
152832 On ch=1 n=74 v=90
153000 Off ch=1 n=74 v=64
153024 On ch=1 n=72 v=90
153192 Off ch=1 n=72 v=64
153216 On ch=1 n=69 v=90
153384 Off ch=1 n=69 v=64
153408 On ch=1 n=67 v=90
153576 Off ch=1 n=67 v=64
153600 On ch=1 n=69 v=90
153768 Off ch=1 n=69 v=64
153792 On ch=1 n=72 v=90
153960 Off ch=1 n=72 v=64
154080 On ch=1 n=69 v=90
154152 Off ch=1 n=69 v=64
154176 On ch=1 n=69 v=90
154248 Off ch=1 n=69 v=64
154272 On ch=1 n=67 v=90
154344 Off ch=1 n=67 v=64
154368 On ch=1 n=69 v=90
154440 Off ch=1 n=69 v=64
154464 On ch=1 n=64 v=90
154728 Off ch=1 n=64 v=64
155328 On ch=1 n=69 v=90
155400 Off ch=1 n=69 v=64
155424 On ch=1 n=72 v=90
155688 Off ch=1 n=72 v=64
155712 On ch=1 n=76 v=90
155880 Off ch=1 n=76 v=64
155904 On ch=1 n=74 v=90
156072 Off ch=1 n=74 v=64
156096 On ch=1 n=72 v=90
156168 Off ch=1 n=72 v=64
156192 On ch=1 n=69 v=90
156360 Off ch=1 n=69 v=64
156384 On ch=1 n=67 v=90
156456 Off ch=1 n=67 v=64
156480 On ch=1 n=72 v=90
156840 Off ch=1 n=72 v=64
156864 On ch=1 n=69 v=90
157248 Off ch=1 n=69 v=64
158400 On ch=1 n=76 v=90
158568 Off ch=1 n=76 v=64
158592 On ch=1 n=74 v=90
158760 Off ch=1 n=74 v=64
158784 On ch=1 n=72 v=90
158952 Off ch=1 n=72 v=64
158976 On ch=1 n=74 v=90
159144 Off ch=1 n=74 v=64
159168 On ch=1 n=72 v=90
159336 Off ch=1 n=72 v=64
159360 On ch=1 n=69 v=90
159528 Off ch=1 n=69 v=64
159552 On ch=1 n=67 v=90
159624 Off ch=1 n=67 v=64
159648 On ch=1 n=69 v=90
159912 Off ch=1 n=69 v=64
159936 On ch=1 n=72 v=90
160104 Off ch=1 n=72 v=64
160320 On ch=1 n=69 v=90
160392 Off ch=1 n=69 v=64
160416 On ch=1 n=67 v=90
160488 Off ch=1 n=67 v=64
160512 On ch=1 n=69 v=90
160584 Off ch=1 n=69 v=64
160608 On ch=1 n=64 v=90
160872 Off ch=1 n=64 v=64
161472 On ch=1 n=72 v=90
161640 Off ch=1 n=72 v=64
161664 On ch=1 n=72 v=90
161832 Off ch=1 n=72 v=64
161856 On ch=1 n=76 v=90
162024 Off ch=1 n=76 v=64
162048 On ch=1 n=74 v=90
162216 Off ch=1 n=74 v=64
162240 On ch=1 n=72 v=90
162408 Off ch=1 n=72 v=64
162432 On ch=1 n=69 v=90
162600 Off ch=1 n=69 v=64
162624 On ch=1 n=72 v=90
162984 Off ch=1 n=72 v=64
163008 On ch=1 n=69 v=90
163176 Off ch=1 n=69 v=64
163200 On ch=1 n=69 v=90
165096 Off ch=1 n=69 v=64
165120 On ch=1 n=71 v=90
166152 Off ch=1 n=71 v=64
166176 On ch=1 n=69 v=90
166608 Off ch=1 n=69 v=64
210432 On ch=1 n=81 v=120
210624 Off ch=1 n=81 v=64
210624 On ch=1 n=81 v=120
210816 Off ch=1 n=81 v=64
210816 On ch=1 n=81 v=120
210912 Off ch=1 n=81 v=64
210912 On ch=1 n=84 v=120
211200 Off ch=1 n=84 v=64
211200 On ch=1 n=83 v=120
211392 Off ch=1 n=83 v=64
211392 On ch=1 n=81 v=120
211584 Off ch=1 n=81 v=64
211584 On ch=1 n=79 v=120
211680 Off ch=1 n=79 v=64
211680 On ch=1 n=81 v=120
212160 Off ch=1 n=81 v=64
213504 On ch=1 n=81 v=120
213696 Off ch=1 n=81 v=64
213696 On ch=1 n=81 v=120
213792 Off ch=1 n=81 v=64
213792 On ch=1 n=81 v=120
214080 Off ch=1 n=81 v=64
214080 On ch=1 n=84 v=120
214272 Off ch=1 n=84 v=64
214272 On ch=1 n=83 v=120
214368 Off ch=1 n=83 v=64
214368 On ch=1 n=81 v=120
214464 Off ch=1 n=81 v=64
214464 On ch=1 n=83 v=120
214848 Off ch=1 n=83 v=64
214848 On ch=1 n=83 v=120
215016 On ch=1 n=81 v=120
215040 Off ch=1 n=83 v=64
215616 Off ch=1 n=81 v=64
216576 On ch=1 n=81 v=120
216768 Off ch=1 n=81 v=64
216768 On ch=1 n=81 v=120
216960 Off ch=1 n=81 v=64
216960 On ch=1 n=81 v=120
217056 Off ch=1 n=81 v=64
217080 On ch=1 n=88 v=120
217344 On ch=1 n=86 v=120
217368 Off ch=1 n=88 v=64
217536 Off ch=1 n=86 v=64
217536 On ch=1 n=84 v=120
217632 Off ch=1 n=84 v=64
217632 On ch=1 n=83 v=120
217824 Off ch=1 n=83 v=64
217824 On ch=1 n=83 v=120
218112 Off ch=1 n=83 v=64
218112 On ch=1 n=84 v=120
218208 Off ch=1 n=84 v=64
218208 On ch=1 n=83 v=120
218304 Off ch=1 n=83 v=64
218304 On ch=1 n=81 v=120
218664 Off ch=1 n=81 v=64
219648 On ch=1 n=81 v=120
219840 Off ch=1 n=81 v=64
219840 On ch=1 n=81 v=120
220032 Off ch=1 n=81 v=64
220032 On ch=1 n=81 v=120
220224 Off ch=1 n=81 v=64
220224 On ch=1 n=88 v=120
220416 Off ch=1 n=88 v=64
220416 On ch=1 n=86 v=120
220608 Off ch=1 n=86 v=64
220608 On ch=1 n=84 v=120
220800 Off ch=1 n=84 v=64
220800 On ch=1 n=83 v=120
220992 Off ch=1 n=83 v=64
220992 On ch=1 n=83 v=120
221160 On ch=1 n=81 v=120
221184 Off ch=1 n=83 v=64
221760 Off ch=1 n=81 v=64
222720 On ch=1 n=81 v=120
222912 Off ch=1 n=81 v=64
222912 On ch=1 n=81 v=120
223104 Off ch=1 n=81 v=64
223104 On ch=1 n=81 v=120
223200 Off ch=1 n=81 v=64
223200 On ch=1 n=84 v=120
223488 Off ch=1 n=84 v=64
223488 On ch=1 n=83 v=120
223680 Off ch=1 n=83 v=64
223680 On ch=1 n=81 v=120
223968 Off ch=1 n=81 v=64
223968 On ch=1 n=83 v=120
224064 Off ch=1 n=83 v=64
224064 On ch=1 n=83 v=120
224256 Off ch=1 n=83 v=64
224256 On ch=1 n=81 v=120
224832 Off ch=1 n=81 v=64
225792 On ch=1 n=81 v=120
225984 Off ch=1 n=81 v=64
225984 On ch=1 n=81 v=120
226176 Off ch=1 n=81 v=64
226176 On ch=1 n=81 v=120
226368 Off ch=1 n=81 v=64
226368 On ch=1 n=84 v=120
226464 Off ch=1 n=84 v=64
226464 On ch=1 n=83 v=120
226752 Off ch=1 n=83 v=64
226752 On ch=1 n=81 v=120
226848 Off ch=1 n=81 v=64
226848 On ch=1 n=83 v=120
227040 Off ch=1 n=83 v=64
227040 On ch=1 n=83 v=120
227328 Off ch=1 n=83 v=64
227328 On ch=1 n=81 v=120
227880 Off ch=1 n=81 v=64
228864 On ch=1 n=81 v=120
229056 Off ch=1 n=81 v=64
229056 On ch=1 n=81 v=120
229248 Off ch=1 n=81 v=64
229248 On ch=1 n=81 v=120
229344 Off ch=1 n=81 v=64
229344 On ch=1 n=84 v=120
229632 Off ch=1 n=84 v=64
229632 On ch=1 n=83 v=120
229728 Off ch=1 n=83 v=64
229728 On ch=1 n=83 v=120
230016 Off ch=1 n=83 v=64
230016 On ch=1 n=81 v=120
230112 Off ch=1 n=81 v=64
230112 On ch=1 n=79 v=120
230208 Off ch=1 n=79 v=64
230208 On ch=1 n=81 v=120
230976 Off ch=1 n=81 v=64
231936 On ch=1 n=81 v=120
232128 Off ch=1 n=81 v=64
232128 On ch=1 n=81 v=120
232224 Off ch=1 n=81 v=64
232224 On ch=1 n=81 v=120
232416 Off ch=1 n=81 v=64
232416 On ch=1 n=88 v=120
232704 Off ch=1 n=88 v=64
232704 On ch=1 n=86 v=120
232896 Off ch=1 n=86 v=64
232896 On ch=1 n=84 v=120
232992 Off ch=1 n=84 v=64
232992 On ch=1 n=86 v=120
233184 Off ch=1 n=86 v=64
233184 On ch=1 n=88 v=120
233472 Off ch=1 n=88 v=64
233472 On ch=1 n=86 v=120
233856 Off ch=1 n=86 v=64
233856 On ch=1 n=84 v=120
233952 Off ch=1 n=84 v=64
233952 On ch=1 n=83 v=120
234432 Off ch=1 n=83 v=64
235008 On ch=1 n=81 v=120
235200 Off ch=1 n=81 v=64
235200 On ch=1 n=81 v=120
235296 Off ch=1 n=81 v=64
235296 On ch=1 n=81 v=120
235488 Off ch=1 n=81 v=64
235488 On ch=1 n=84 v=120
235776 Off ch=1 n=84 v=64
235872 On ch=1 n=79 v=120
235968 Off ch=1 n=79 v=64
235968 On ch=1 n=84 v=120
236160 Off ch=1 n=84 v=64
236160 On ch=1 n=84 v=120
236352 Off ch=1 n=84 v=64
236352 On ch=1 n=84 v=127
240960 Off ch=1 n=84 v=64
240960 On ch=1 n=83 v=127
241728 On ch=1 n=81 v=127
241752 Off ch=1 n=83 v=64
242112 Off ch=1 n=81 v=64
249408 On ch=1 n=72 v=100
249792 Off ch=1 n=72 v=64
249792 On ch=1 n=74 v=100
250176 Off ch=1 n=74 v=64
250176 On ch=1 n=76 v=100
250560 Off ch=1 n=76 v=64
250560 On ch=1 n=75 v=100
250560 Off ch=1 n=75 v=64
250560 On ch=1 n=74 v=100
250944 Off ch=1 n=74 v=64
250944 On ch=1 n=72 v=100
251328 Off ch=1 n=72 v=64
251328 On ch=1 n=71 v=100
251712 Off ch=1 n=71 v=64
251712 On ch=1 n=72 v=100
251904 Off ch=1 n=72 v=64
251904 On ch=1 n=71 v=100
252096 Off ch=1 n=71 v=64
252096 On ch=1 n=69 v=100
252192 Off ch=1 n=69 v=64
252192 On ch=1 n=68 v=100
252192 Off ch=1 n=68 v=64
252192 On ch=1 n=67 v=100
252480 Off ch=1 n=67 v=64
252864 On ch=1 n=67 v=100
253248 Off ch=1 n=67 v=64
253248 On ch=1 n=72 v=100
253440 Off ch=1 n=72 v=64
253440 On ch=1 n=67 v=100
253632 Off ch=1 n=67 v=64
253632 On ch=1 n=68 v=100
253632 Off ch=1 n=68 v=64
253632 On ch=1 n=69 v=100
255528 Off ch=1 n=69 v=64
255528 Meta TrkEnd
TrkEnd
MTrk
0 Meta TrkName "acoustic guitar     "
0 Par ch=2 c=0 v=0
0 PrCh ch=2 p=35
0 KeySig 0 major
0 On ch=2 n=57 v=90
192 On ch=2 n=60 v=90
360 Off ch=2 n=60 v=64
384 On ch=2 n=64 v=90
552 Off ch=2 n=64 v=64
576 On ch=2 n=69 v=90
744 Off ch=2 n=57 v=64
744 Off ch=2 n=69 v=64
768 On ch=2 n=71 v=90
768 On ch=2 n=56 v=90
936 Off ch=2 n=71 v=64
960 On ch=2 n=64 v=90
1128 Off ch=2 n=64 v=64
1152 On ch=2 n=60 v=90
1320 Off ch=2 n=60 v=64
1344 On ch=2 n=71 v=90
1512 Off ch=2 n=56 v=64
1512 Off ch=2 n=71 v=64
1536 On ch=2 n=72 v=90
1536 On ch=2 n=55 v=90
1704 Off ch=2 n=72 v=64
1728 On ch=2 n=64 v=90
1896 Off ch=2 n=64 v=64
1920 On ch=2 n=60 v=90
2088 Off ch=2 n=60 v=64
2112 On ch=2 n=72 v=90
2280 Off ch=2 n=55 v=64
2280 Off ch=2 n=72 v=64
2304 On ch=2 n=66 v=90
2304 On ch=2 n=54 v=90
2472 Off ch=2 n=66 v=64
2496 On ch=2 n=62 v=90
2664 Off ch=2 n=62 v=64
2688 On ch=2 n=57 v=90
2856 Off ch=2 n=57 v=64
2880 On ch=2 n=66 v=90
3048 Off ch=2 n=66 v=64
3072 Off ch=2 n=54 v=64
3072 On ch=2 n=53 v=90
3072 On ch=2 n=64 v=90
3240 Off ch=2 n=64 v=64
3264 On ch=2 n=60 v=90
3432 Off ch=2 n=60 v=64
3456 On ch=2 n=57 v=90
3624 Off ch=2 n=57 v=64
3648 On ch=2 n=60 v=90
3816 Off ch=2 n=53 v=64
4008 Off ch=2 n=60 v=64
4032 On ch=2 n=64 v=90
4200 Off ch=2 n=64 v=64
4224 On ch=2 n=60 v=90
4392 Off ch=2 n=60 v=64
4416 On ch=2 n=57 v=90
4584 Off ch=2 n=57 v=64
4608 On ch=2 n=59 v=90
4608 On ch=2 n=55 v=90
4608 On ch=2 n=47 v=90
4776 Off ch=2 n=59 v=64
4776 Off ch=2 n=55 v=64
4776 Off ch=2 n=47 v=64
4800 On ch=2 n=45 v=90
4800 On ch=2 n=57 v=90
4800 On ch=2 n=60 v=90
4968 Off ch=2 n=45 v=64
4968 Off ch=2 n=57 v=64
4968 Off ch=2 n=60 v=64
4992 On ch=2 n=60 v=90
4992 On ch=2 n=57 v=90
4992 On ch=2 n=45 v=90
5544 Off ch=2 n=45 v=64
5568 On ch=2 n=45 v=90
5736 Off ch=2 n=45 v=64
5760 On ch=2 n=53 v=90
5928 Off ch=2 n=53 v=64
5952 On ch=2 n=52 v=90
6120 Off ch=2 n=60 v=64
6120 Off ch=2 n=57 v=64
6120 Off ch=2 n=52 v=64
6144 On ch=2 n=45 v=90
6336 On ch=2 n=57 v=90
6504 Off ch=2 n=57 v=64
6528 On ch=2 n=60 v=90
6696 Off ch=2 n=60 v=64
6720 On ch=2 n=64 v=90
6888 Off ch=2 n=45 v=64
6888 Off ch=2 n=64 v=64
6912 On ch=2 n=71 v=90
6912 On ch=2 n=56 v=90
7080 Off ch=2 n=71 v=64
7104 On ch=2 n=64 v=90
7272 Off ch=2 n=64 v=64
7296 On ch=2 n=60 v=90
7464 Off ch=2 n=60 v=64
7488 On ch=2 n=71 v=90
7656 Off ch=2 n=56 v=64
7656 Off ch=2 n=71 v=64
7680 On ch=2 n=55 v=90
7680 On ch=2 n=72 v=90
7848 Off ch=2 n=72 v=64
7872 On ch=2 n=64 v=90
8040 Off ch=2 n=64 v=64
8064 On ch=2 n=60 v=90
8232 Off ch=2 n=60 v=64
8256 On ch=2 n=72 v=90
8424 Off ch=2 n=55 v=64
8424 Off ch=2 n=72 v=64
8448 On ch=2 n=66 v=90
8448 On ch=2 n=54 v=90
8616 Off ch=2 n=66 v=64
8640 On ch=2 n=62 v=90
8808 Off ch=2 n=62 v=64
8832 On ch=2 n=57 v=90
9000 Off ch=2 n=57 v=64
9024 On ch=2 n=66 v=90
9192 Off ch=2 n=54 v=64
9192 Off ch=2 n=66 v=64
9216 On ch=2 n=53 v=90
9216 On ch=2 n=64 v=90
9384 Off ch=2 n=64 v=64
9408 On ch=2 n=60 v=90
9576 Off ch=2 n=60 v=64
9600 On ch=2 n=57 v=90
9768 Off ch=2 n=57 v=64
9792 On ch=2 n=60 v=90
10152 Off ch=2 n=60 v=64
10176 On ch=2 n=64 v=90
10344 Off ch=2 n=64 v=64
10368 On ch=2 n=60 v=90
10536 Off ch=2 n=60 v=64
10560 On ch=2 n=57 v=90
10728 Off ch=2 n=53 v=64
10728 Off ch=2 n=57 v=64
10752 On ch=2 n=47 v=90
10752 On ch=2 n=59 v=90
10752 On ch=2 n=55 v=90
10920 Off ch=2 n=47 v=64
10920 Off ch=2 n=59 v=64
10920 Off ch=2 n=55 v=64
10944 On ch=2 n=45 v=90
10944 On ch=2 n=57 v=90
10944 On ch=2 n=60 v=90
11112 Off ch=2 n=45 v=64
11112 Off ch=2 n=57 v=64
11112 Off ch=2 n=60 v=64
11136 On ch=2 n=45 v=90
11136 On ch=2 n=60 v=90
11136 On ch=2 n=57 v=90
11880 Off ch=2 n=45 v=64
11880 Off ch=2 n=60 v=64
11880 Off ch=2 n=57 v=64
11904 On ch=2 n=45 v=90
12072 Off ch=2 n=45 v=64
12096 On ch=2 n=47 v=90
12264 Off ch=2 n=47 v=64
12288 On ch=2 n=48 v=90
12480 On ch=2 n=52 v=90
12648 Off ch=2 n=52 v=64
12672 On ch=2 n=55 v=90
12840 Off ch=2 n=55 v=64
12864 On ch=2 n=64 v=90
13032 Off ch=2 n=48 v=64
13032 Off ch=2 n=64 v=64
13056 On ch=2 n=66 v=90
13056 On ch=2 n=50 v=90
13224 Off ch=2 n=66 v=64
13248 On ch=2 n=62 v=90
13416 Off ch=2 n=62 v=64
13440 On ch=2 n=57 v=90
13608 Off ch=2 n=57 v=64
13632 On ch=2 n=66 v=90
13800 Off ch=2 n=50 v=64
13800 Off ch=2 n=66 v=64
13824 On ch=2 n=53 v=90
13824 On ch=2 n=64 v=90
13992 Off ch=2 n=64 v=64
14016 On ch=2 n=60 v=90
14184 Off ch=2 n=60 v=64
14208 On ch=2 n=57 v=90
14376 Off ch=2 n=57 v=64
14400 On ch=2 n=64 v=90
14568 Off ch=2 n=53 v=64
14568 Off ch=2 n=64 v=64
14592 On ch=2 n=59 v=90
14592 On ch=2 n=45 v=90
14688 Off ch=2 n=59 v=64
14688 On ch=2 n=60 v=90
14760 Off ch=2 n=60 v=64
14784 On ch=2 n=57 v=90
14952 Off ch=2 n=45 v=64
14952 Off ch=2 n=57 v=64
14976 On ch=2 n=45 v=90
15144 Off ch=2 n=45 v=64
15168 On ch=2 n=47 v=90
15336 Off ch=2 n=47 v=64
15360 On ch=2 n=48 v=90
15360 On ch=2 n=60 v=90
15528 Off ch=2 n=60 v=64
15552 On ch=2 n=55 v=90
15720 Off ch=2 n=55 v=64
15744 On ch=2 n=52 v=90
15912 Off ch=2 n=52 v=64
15936 On ch=2 n=60 v=90
16104 Off ch=2 n=48 v=64
16104 Off ch=2 n=60 v=64
16128 On ch=2 n=43 v=90
16128 On ch=2 n=67 v=90
16296 Off ch=2 n=67 v=64
16320 On ch=2 n=59 v=90
16488 Off ch=2 n=59 v=64
16512 On ch=2 n=55 v=90
16680 Off ch=2 n=55 v=64
16704 On ch=2 n=67 v=90
16872 Off ch=2 n=43 v=64
16872 Off ch=2 n=67 v=64
16896 On ch=2 n=57 v=70
16896 On ch=2 n=62 v=70
16896 On ch=2 n=67 v=70
16896 On ch=2 n=50 v=70
16968 Off ch=2 n=67 v=64
16968 On ch=2 n=66 v=70
17064 Off ch=2 n=62 v=64
17064 Off ch=2 n=66 v=64
17088 On ch=2 n=66 v=70
17088 On ch=2 n=62 v=70
17256 Off ch=2 n=57 v=64
17256 Off ch=2 n=50 v=64
17256 Off ch=2 n=66 v=64
17256 Off ch=2 n=62 v=64
17280 On ch=2 n=62 v=70
17280 On ch=2 n=66 v=70
17280 On ch=2 n=50 v=70
17280 On ch=2 n=57 v=70
18024 Off ch=2 n=62 v=64
18024 Off ch=2 n=66 v=64
18024 Off ch=2 n=50 v=64
18024 Off ch=2 n=57 v=64
18048 On ch=2 n=45 v=90
18216 Off ch=2 n=45 v=64
18240 On ch=2 n=47 v=90
18408 Off ch=2 n=47 v=64
18432 On ch=2 n=48 v=90
18624 On ch=2 n=52 v=90
18792 Off ch=2 n=52 v=64
18816 On ch=2 n=55 v=90
18984 Off ch=2 n=55 v=64
19008 On ch=2 n=60 v=90
19176 Off ch=2 n=48 v=64
19176 Off ch=2 n=60 v=64
19200 On ch=2 n=66 v=90
19200 On ch=2 n=50 v=90
19368 Off ch=2 n=66 v=64
19392 On ch=2 n=62 v=90
19560 Off ch=2 n=62 v=64
19584 On ch=2 n=57 v=90
19752 Off ch=2 n=57 v=64
19776 On ch=2 n=66 v=90
19944 Off ch=2 n=50 v=64
19944 Off ch=2 n=66 v=64
19968 On ch=2 n=53 v=90
19968 On ch=2 n=64 v=90
20136 Off ch=2 n=64 v=64
20160 On ch=2 n=60 v=90
20328 Off ch=2 n=60 v=64
20352 On ch=2 n=57 v=90
20520 Off ch=2 n=57 v=64
20544 On ch=2 n=64 v=90
20712 Off ch=2 n=53 v=64
20712 Off ch=2 n=64 v=64
20736 On ch=2 n=59 v=90
20736 On ch=2 n=45 v=90
20808 Off ch=2 n=59 v=64
20808 On ch=2 n=60 v=90
20904 Off ch=2 n=60 v=64
20928 On ch=2 n=57 v=90
21096 Off ch=2 n=45 v=64
21096 Off ch=2 n=57 v=64
21120 On ch=2 n=45 v=90
21288 Off ch=2 n=45 v=64
21312 On ch=2 n=47 v=90
21480 Off ch=2 n=47 v=64
21504 On ch=2 n=48 v=90
21696 On ch=2 n=52 v=90
21864 Off ch=2 n=52 v=64
21888 On ch=2 n=55 v=90
22056 Off ch=2 n=55 v=64
22080 On ch=2 n=60 v=90
22248 Off ch=2 n=48 v=64
22248 Off ch=2 n=60 v=64
22272 On ch=2 n=50 v=90
22464 On ch=2 n=57 v=90
22632 Off ch=2 n=57 v=64
22656 On ch=2 n=62 v=90
22824 Off ch=2 n=62 v=64
22848 On ch=2 n=66 v=90
23016 Off ch=2 n=50 v=64
23016 Off ch=2 n=66 v=64
23040 On ch=2 n=60 v=80
23040 On ch=2 n=64 v=80
23040 On ch=2 n=57 v=80
23040 On ch=2 n=53 v=80
23208 Off ch=2 n=60 v=64
23208 Off ch=2 n=64 v=64
23208 Off ch=2 n=57 v=64
23208 Off ch=2 n=53 v=64
23232 On ch=2 n=53 v=80
23232 On ch=2 n=60 v=80
23232 On ch=2 n=64 v=80
23232 On ch=2 n=57 v=80
23400 Off ch=2 n=53 v=64
23400 Off ch=2 n=60 v=64
23400 Off ch=2 n=64 v=64
23400 Off ch=2 n=57 v=64
23424 On ch=2 n=64 v=80
23424 On ch=2 n=60 v=80
23424 On ch=2 n=57 v=80
23424 On ch=2 n=53 v=80
24168 Off ch=2 n=64 v=64
24168 Off ch=2 n=60 v=64
24168 Off ch=2 n=57 v=64
24168 Off ch=2 n=53 v=64
24576 On ch=2 n=57 v=90
24768 On ch=2 n=60 v=90
24936 Off ch=2 n=60 v=64
24960 On ch=2 n=64 v=90
25128 Off ch=2 n=64 v=64
25152 On ch=2 n=69 v=90
25320 Off ch=2 n=57 v=64
25320 Off ch=2 n=69 v=64
25344 On ch=2 n=71 v=90
25344 On ch=2 n=56 v=90
25512 Off ch=2 n=71 v=64
25536 On ch=2 n=64 v=90
25704 Off ch=2 n=64 v=64
25728 On ch=2 n=60 v=90
25896 Off ch=2 n=60 v=64
25920 On ch=2 n=71 v=90
26088 Off ch=2 n=56 v=64
26088 Off ch=2 n=71 v=64
26112 On ch=2 n=55 v=90
26112 On ch=2 n=72 v=90
26280 Off ch=2 n=72 v=64
26304 On ch=2 n=64 v=90
26472 Off ch=2 n=64 v=64
26496 On ch=2 n=60 v=90
26664 Off ch=2 n=60 v=64
26688 On ch=2 n=72 v=90
26832 Off ch=2 n=55 v=64
26856 Off ch=2 n=72 v=64
26880 On ch=2 n=54 v=90
26880 On ch=2 n=66 v=90
27048 Off ch=2 n=66 v=64
27072 On ch=2 n=62 v=90
27240 Off ch=2 n=62 v=64
27264 On ch=2 n=57 v=90
27432 Off ch=2 n=57 v=64
27456 On ch=2 n=66 v=90
27624 Off ch=2 n=54 v=64
27624 Off ch=2 n=66 v=64
27648 On ch=2 n=53 v=90
27648 On ch=2 n=64 v=90
27816 Off ch=2 n=64 v=64
27840 On ch=2 n=60 v=90
28008 Off ch=2 n=60 v=64
28032 On ch=2 n=57 v=90
28200 Off ch=2 n=57 v=64
28224 On ch=2 n=60 v=90
28584 Off ch=2 n=60 v=64
28608 On ch=2 n=64 v=90
28776 Off ch=2 n=64 v=64
28800 On ch=2 n=60 v=90
28968 Off ch=2 n=60 v=64
28992 On ch=2 n=57 v=90
29160 Off ch=2 n=53 v=64
29160 Off ch=2 n=57 v=64
29184 On ch=2 n=59 v=90
29184 On ch=2 n=55 v=90
29184 On ch=2 n=47 v=90
29352 Off ch=2 n=59 v=64
29352 Off ch=2 n=55 v=64
29352 Off ch=2 n=47 v=64
29376 On ch=2 n=57 v=90
29376 On ch=2 n=60 v=90
29376 On ch=2 n=45 v=90
29544 Off ch=2 n=57 v=64
29544 Off ch=2 n=60 v=64
29544 Off ch=2 n=45 v=64
29568 On ch=2 n=60 v=90
29568 On ch=2 n=57 v=90
29568 On ch=2 n=45 v=90
30312 Off ch=2 n=60 v=64
30312 Off ch=2 n=57 v=64
30312 Off ch=2 n=45 v=64
30720 On ch=2 n=57 v=90
30912 On ch=2 n=60 v=90
31080 Off ch=2 n=60 v=64
31104 On ch=2 n=64 v=90
31272 Off ch=2 n=64 v=64
31296 On ch=2 n=69 v=90
31464 Off ch=2 n=57 v=64
31464 Off ch=2 n=69 v=64
31488 On ch=2 n=71 v=90
31488 On ch=2 n=56 v=90
31656 Off ch=2 n=71 v=64
31680 On ch=2 n=64 v=90
31848 Off ch=2 n=64 v=64
31872 On ch=2 n=60 v=90
32040 Off ch=2 n=60 v=64
32064 On ch=2 n=71 v=90
32232 Off ch=2 n=56 v=64
32232 Off ch=2 n=71 v=64
32256 On ch=2 n=55 v=90
32256 On ch=2 n=72 v=90
32424 Off ch=2 n=72 v=64
32448 On ch=2 n=64 v=90
32616 Off ch=2 n=64 v=64
32640 On ch=2 n=60 v=90
32808 Off ch=2 n=60 v=64
32832 On ch=2 n=72 v=90
32976 Off ch=2 n=55 v=64
33000 Off ch=2 n=72 v=64
33024 On ch=2 n=54 v=90
33024 On ch=2 n=66 v=90
33192 Off ch=2 n=66 v=64
33216 On ch=2 n=62 v=90
33384 Off ch=2 n=62 v=64
33408 On ch=2 n=57 v=90
33576 Off ch=2 n=57 v=64
33600 On ch=2 n=66 v=90
33768 Off ch=2 n=54 v=64
33768 Off ch=2 n=66 v=64
33792 On ch=2 n=53 v=90
33792 On ch=2 n=64 v=90
33960 Off ch=2 n=64 v=64
33984 On ch=2 n=60 v=90
34152 Off ch=2 n=60 v=64
34176 On ch=2 n=57 v=90
34344 Off ch=2 n=57 v=64
34368 On ch=2 n=60 v=90
34728 Off ch=2 n=60 v=64
34752 On ch=2 n=64 v=90
34920 Off ch=2 n=64 v=64
34944 On ch=2 n=60 v=90
35112 Off ch=2 n=60 v=64
35136 On ch=2 n=57 v=90
35304 Off ch=2 n=53 v=64
35304 Off ch=2 n=57 v=64
35328 On ch=2 n=59 v=90
35328 On ch=2 n=55 v=90
35328 On ch=2 n=47 v=90
35496 Off ch=2 n=59 v=64
35496 Off ch=2 n=55 v=64
35496 Off ch=2 n=47 v=64
35520 On ch=2 n=57 v=90
35520 On ch=2 n=60 v=90
35520 On ch=2 n=45 v=90
35688 Off ch=2 n=57 v=64
35688 Off ch=2 n=60 v=64
35688 Off ch=2 n=45 v=64
35712 On ch=2 n=60 v=90
35712 On ch=2 n=57 v=90
35712 On ch=2 n=45 v=90
36456 Off ch=2 n=60 v=64
36456 Off ch=2 n=57 v=64
36456 Off ch=2 n=45 v=64
36480 On ch=2 n=45 v=90
36648 Off ch=2 n=45 v=64
36672 On ch=2 n=47 v=90
36840 Off ch=2 n=47 v=64
36864 On ch=2 n=48 v=90
37056 On ch=2 n=52 v=90
37224 Off ch=2 n=52 v=64
37248 On ch=2 n=55 v=90
37416 Off ch=2 n=55 v=64
37440 On ch=2 n=60 v=90
37608 Off ch=2 n=48 v=64
37608 Off ch=2 n=60 v=64
37632 On ch=2 n=66 v=90
37632 On ch=2 n=50 v=90
37800 Off ch=2 n=66 v=64
37824 On ch=2 n=62 v=90
37992 Off ch=2 n=62 v=64
38016 On ch=2 n=57 v=90
38184 Off ch=2 n=57 v=64
38208 On ch=2 n=66 v=90
38376 Off ch=2 n=50 v=64
38376 Off ch=2 n=66 v=64
38400 On ch=2 n=53 v=90
38400 On ch=2 n=64 v=90
38568 Off ch=2 n=64 v=64
38592 On ch=2 n=60 v=90
38760 Off ch=2 n=60 v=64
38784 On ch=2 n=57 v=90
38952 Off ch=2 n=57 v=64
38976 On ch=2 n=60 v=90
39144 Off ch=2 n=53 v=64
39144 Off ch=2 n=60 v=64
39168 On ch=2 n=59 v=90
39240 Off ch=2 n=59 v=64
39264 On ch=2 n=60 v=90
39336 Off ch=2 n=60 v=64
39360 On ch=2 n=57 v=90
39360 On ch=2 n=45 v=90
39528 Off ch=2 n=57 v=64
39528 Off ch=2 n=45 v=64
39552 On ch=2 n=45 v=90
39720 Off ch=2 n=45 v=64
39744 On ch=2 n=47 v=90
39912 Off ch=2 n=47 v=64
39936 On ch=2 n=48 v=90
39936 On ch=2 n=60 v=90
40104 Off ch=2 n=60 v=64
40128 On ch=2 n=55 v=90
40296 Off ch=2 n=55 v=64
40320 On ch=2 n=55 v=90
40320 On ch=2 n=52 v=90
40320 On ch=2 n=60 v=90
40488 Off ch=2 n=55 v=64
40488 Off ch=2 n=52 v=64
40488 Off ch=2 n=60 v=64
40512 On ch=2 n=60 v=90
40680 Off ch=2 n=48 v=64
40680 Off ch=2 n=60 v=64
40704 On ch=2 n=67 v=90
40704 On ch=2 n=43 v=90
40872 Off ch=2 n=67 v=64
40896 On ch=2 n=59 v=90
41064 Off ch=2 n=59 v=64
41088 On ch=2 n=55 v=90
41256 Off ch=2 n=55 v=64
41280 On ch=2 n=67 v=90
41448 Off ch=2 n=43 v=64
41448 Off ch=2 n=67 v=64
41472 On ch=2 n=50 v=90
41472 On ch=2 n=57 v=90
41472 On ch=2 n=62 v=90
41472 On ch=2 n=67 v=90
41544 Off ch=2 n=62 v=64
41544 Off ch=2 n=67 v=64
41568 On ch=2 n=66 v=90
41640 Off ch=2 n=66 v=64
41664 On ch=2 n=62 v=90
41664 On ch=2 n=66 v=90
41832 Off ch=2 n=50 v=64
41832 Off ch=2 n=57 v=64
41832 Off ch=2 n=62 v=64
41832 Off ch=2 n=66 v=64
41856 On ch=2 n=50 v=90
41856 On ch=2 n=57 v=90
41856 On ch=2 n=62 v=90
41856 On ch=2 n=66 v=90
42600 Off ch=2 n=50 v=64
42600 Off ch=2 n=57 v=64
42600 Off ch=2 n=62 v=64
42600 Off ch=2 n=66 v=64
42624 On ch=2 n=45 v=90
42792 Off ch=2 n=45 v=64
42816 On ch=2 n=47 v=90
42984 Off ch=2 n=47 v=64
43008 On ch=2 n=48 v=90
43200 On ch=2 n=52 v=90
43368 Off ch=2 n=52 v=64
43392 On ch=2 n=55 v=90
43560 Off ch=2 n=55 v=64
43584 On ch=2 n=60 v=90
43752 Off ch=2 n=48 v=64
43752 Off ch=2 n=60 v=64
43776 On ch=2 n=66 v=90
43776 On ch=2 n=50 v=90
43944 Off ch=2 n=66 v=64
43968 On ch=2 n=62 v=90
44136 Off ch=2 n=62 v=64
44160 On ch=2 n=57 v=90
44328 Off ch=2 n=57 v=64
44352 On ch=2 n=66 v=90
44520 Off ch=2 n=50 v=64
44520 Off ch=2 n=66 v=64
44544 On ch=2 n=53 v=90
44544 On ch=2 n=64 v=90
44712 Off ch=2 n=64 v=64
44736 On ch=2 n=60 v=90
44904 Off ch=2 n=60 v=64
44928 On ch=2 n=57 v=90
45096 Off ch=2 n=57 v=64
45120 On ch=2 n=60 v=90
45288 Off ch=2 n=53 v=64
45288 Off ch=2 n=60 v=64
45312 On ch=2 n=59 v=90
45384 Off ch=2 n=59 v=64
45408 On ch=2 n=60 v=90
45480 Off ch=2 n=60 v=64
45504 On ch=2 n=57 v=90
45504 On ch=2 n=45 v=90
45672 Off ch=2 n=57 v=64
45672 Off ch=2 n=45 v=64
45696 On ch=2 n=45 v=90
45864 Off ch=2 n=45 v=64
45888 On ch=2 n=47 v=90
46056 Off ch=2 n=47 v=64
46080 On ch=2 n=48 v=90
46080 On ch=2 n=60 v=90
46248 Off ch=2 n=60 v=64
46272 On ch=2 n=55 v=90
46440 Off ch=2 n=55 v=64
46464 On ch=2 n=52 v=90
46632 Off ch=2 n=52 v=64
46656 On ch=2 n=60 v=90
46824 Off ch=2 n=48 v=64
46824 Off ch=2 n=60 v=64
46848 On ch=2 n=50 v=90
46848 On ch=2 n=66 v=90
47016 Off ch=2 n=66 v=64
47040 On ch=2 n=62 v=90
47208 Off ch=2 n=62 v=64
47232 On ch=2 n=57 v=90
47400 Off ch=2 n=57 v=64
47424 On ch=2 n=67 v=90
47592 Off ch=2 n=50 v=64
47592 Off ch=2 n=67 v=64
47616 On ch=2 n=53 v=70
47616 On ch=2 n=57 v=70
47616 On ch=2 n=60 v=70
47616 On ch=2 n=64 v=70
47784 Off ch=2 n=53 v=64
47784 Off ch=2 n=57 v=64
47784 Off ch=2 n=60 v=64
47784 Off ch=2 n=64 v=64
47808 On ch=2 n=64 v=70
47808 On ch=2 n=60 v=70
47808 On ch=2 n=57 v=70
47808 On ch=2 n=53 v=70
47976 Off ch=2 n=64 v=64
47976 Off ch=2 n=60 v=64
47976 Off ch=2 n=57 v=64
47976 Off ch=2 n=53 v=64
48000 On ch=2 n=53 v=70
48000 On ch=2 n=57 v=70
48000 On ch=2 n=60 v=70
48000 On ch=2 n=64 v=70
48744 Off ch=2 n=53 v=64
48744 Off ch=2 n=57 v=64
48744 Off ch=2 n=60 v=64
48744 Off ch=2 n=64 v=64
49152 On ch=2 n=57 v=90
49344 On ch=2 n=60 v=90
49512 Off ch=2 n=60 v=64
49536 On ch=2 n=64 v=90
49704 Off ch=2 n=64 v=64
49728 On ch=2 n=69 v=90
49896 Off ch=2 n=57 v=64
49896 Off ch=2 n=69 v=64
49920 On ch=2 n=71 v=90
49920 On ch=2 n=56 v=90
50088 Off ch=2 n=71 v=64
50112 On ch=2 n=64 v=90
50280 Off ch=2 n=64 v=64
50304 On ch=2 n=60 v=90
50472 Off ch=2 n=60 v=64
50496 On ch=2 n=71 v=90
50664 Off ch=2 n=56 v=64
50664 Off ch=2 n=71 v=64
50688 On ch=2 n=55 v=90
50688 On ch=2 n=72 v=90
50856 Off ch=2 n=72 v=64
50880 On ch=2 n=64 v=90
51048 Off ch=2 n=64 v=64
51072 On ch=2 n=60 v=90
51240 Off ch=2 n=60 v=64
51264 On ch=2 n=72 v=90
51408 Off ch=2 n=55 v=64
51432 Off ch=2 n=72 v=64
51456 On ch=2 n=54 v=90
51456 On ch=2 n=66 v=90
51624 Off ch=2 n=66 v=64
51648 On ch=2 n=62 v=90
51816 Off ch=2 n=62 v=64
51840 On ch=2 n=57 v=90
52008 Off ch=2 n=57 v=64
52032 On ch=2 n=66 v=90
52200 Off ch=2 n=54 v=64
52200 Off ch=2 n=66 v=64
52224 On ch=2 n=53 v=90
52224 On ch=2 n=64 v=90
52392 Off ch=2 n=64 v=64
52416 On ch=2 n=60 v=90
52584 Off ch=2 n=60 v=64
52608 On ch=2 n=57 v=90
52776 Off ch=2 n=57 v=64
52800 On ch=2 n=60 v=90
53160 Off ch=2 n=60 v=64
53184 On ch=2 n=64 v=90
53352 Off ch=2 n=64 v=64
53376 On ch=2 n=60 v=90
53544 Off ch=2 n=60 v=64
53568 On ch=2 n=57 v=90
53736 Off ch=2 n=53 v=64
53736 Off ch=2 n=57 v=64
53760 On ch=2 n=59 v=90
53760 On ch=2 n=55 v=90
53760 On ch=2 n=47 v=90
53928 Off ch=2 n=59 v=64
53928 Off ch=2 n=55 v=64
53928 Off ch=2 n=47 v=64
53952 On ch=2 n=57 v=90
53952 On ch=2 n=60 v=90
53952 On ch=2 n=45 v=90
54120 Off ch=2 n=57 v=64
54120 Off ch=2 n=60 v=64
54120 Off ch=2 n=45 v=64
54144 On ch=2 n=60 v=90
54144 On ch=2 n=57 v=90
54144 On ch=2 n=45 v=90
54696 Off ch=2 n=45 v=64
54720 On ch=2 n=45 v=90
54888 Off ch=2 n=60 v=64
54888 Off ch=2 n=57 v=64
54888 Off ch=2 n=45 v=64
54912 On ch=2 n=53 v=90
55080 Off ch=2 n=53 v=64
55104 On ch=2 n=52 v=90
55272 Off ch=2 n=52 v=64
55296 On ch=2 n=45 v=90
55368 Off ch=2 n=45 v=64
55392 On ch=2 n=45 v=90
55488 On ch=2 n=57 v=90
55656 Off ch=2 n=57 v=64
55680 On ch=2 n=60 v=90
55848 Off ch=2 n=60 v=64
55872 On ch=2 n=69 v=90
56040 Off ch=2 n=45 v=64
56040 Off ch=2 n=69 v=64
56064 On ch=2 n=56 v=90
56064 On ch=2 n=71 v=90
56136 Off ch=2 n=71 v=64
56160 On ch=2 n=64 v=90
56232 Off ch=2 n=64 v=64
56256 On ch=2 n=60 v=90
56328 Off ch=2 n=60 v=64
56352 On ch=2 n=64 v=90
56424 Off ch=2 n=64 v=64
56448 On ch=2 n=71 v=90
56520 Off ch=2 n=71 v=64
56544 On ch=2 n=64 v=90
56616 Off ch=2 n=64 v=64
56640 On ch=2 n=60 v=90
56712 Off ch=2 n=56 v=64
56712 Off ch=2 n=60 v=64
56736 On ch=2 n=56 v=90
56808 Off ch=2 n=56 v=64
56832 On ch=2 n=55 v=90
56928 On ch=2 n=60 v=90
57000 Off ch=2 n=60 v=64
57024 On ch=2 n=64 v=90
57096 Off ch=2 n=64 v=64
57120 On ch=2 n=72 v=90
57192 Off ch=2 n=72 v=64
57216 On ch=2 n=64 v=90
57288 Off ch=2 n=64 v=64
57312 On ch=2 n=60 v=90
57384 Off ch=2 n=55 v=64
57384 Off ch=2 n=60 v=64
57408 On ch=2 n=55 v=90
57576 Off ch=2 n=55 v=64
57600 On ch=2 n=54 v=90
57696 On ch=2 n=57 v=90
57768 Off ch=2 n=57 v=64
57792 On ch=2 n=62 v=90
57864 Off ch=2 n=62 v=64
57888 On ch=2 n=66 v=90
57960 Off ch=2 n=66 v=64
57984 On ch=2 n=62 v=90
58056 Off ch=2 n=62 v=64
58080 On ch=2 n=57 v=90
58152 Off ch=2 n=54 v=64
58152 Off ch=2 n=57 v=64
58176 On ch=2 n=54 v=90
58296 On ch=2 n=57 v=90
58344 Off ch=2 n=54 v=64
58344 Off ch=2 n=57 v=64
58368 On ch=2 n=53 v=90
58464 On ch=2 n=57 v=90
58536 Off ch=2 n=57 v=64
58560 On ch=2 n=60 v=90
58632 Off ch=2 n=60 v=64
58656 On ch=2 n=64 v=90
58824 Off ch=2 n=64 v=64
58848 On ch=2 n=60 v=90
58920 Off ch=2 n=60 v=64
58944 On ch=2 n=57 v=90
59112 Off ch=2 n=53 v=64
59112 Off ch=2 n=57 v=64
59136 On ch=2 n=53 v=90
59232 On ch=2 n=57 v=90
59304 Off ch=2 n=57 v=64
59328 On ch=2 n=60 v=90
59400 Off ch=2 n=60 v=64
59424 On ch=2 n=64 v=90
59496 Off ch=2 n=64 v=64
59520 On ch=2 n=60 v=90
59592 Off ch=2 n=60 v=64
59616 On ch=2 n=57 v=90
59688 Off ch=2 n=53 v=64
59688 Off ch=2 n=57 v=64
59712 On ch=2 n=53 v=90
59880 Off ch=2 n=53 v=64
59904 On ch=2 n=59 v=90
59904 On ch=2 n=55 v=90
59904 On ch=2 n=47 v=90
60072 Off ch=2 n=59 v=64
60072 Off ch=2 n=55 v=64
60072 Off ch=2 n=47 v=64
60096 On ch=2 n=57 v=90
60096 On ch=2 n=60 v=90
60096 On ch=2 n=45 v=90
60264 Off ch=2 n=57 v=64
60264 Off ch=2 n=60 v=64
60264 Off ch=2 n=45 v=64
60288 On ch=2 n=60 v=90
60288 On ch=2 n=57 v=90
60288 On ch=2 n=45 v=90
61032 Off ch=2 n=60 v=64
61032 Off ch=2 n=57 v=64
61032 Off ch=2 n=45 v=64
61056 On ch=2 n=47 v=90
61056 On ch=2 n=50 v=90
61056 On ch=2 n=55 v=90
61056 On ch=2 n=62 v=90
61416 Off ch=2 n=47 v=64
61416 Off ch=2 n=50 v=64
61416 Off ch=2 n=62 v=64
61440 Off ch=2 n=55 v=64
61440 On ch=2 n=52 v=90
61440 On ch=2 n=60 v=90
61440 On ch=2 n=67 v=90
61440 On ch=2 n=55 v=90
61440 Off ch=2 n=55 v=64
61608 Off ch=2 n=52 v=64
61608 Off ch=2 n=60 v=64
61608 Off ch=2 n=67 v=64
61632 On ch=2 n=52 v=90
61632 On ch=2 n=60 v=90
61632 On ch=2 n=67 v=90
61632 On ch=2 n=55 v=90
61704 Off ch=2 n=52 v=64
61704 Off ch=2 n=60 v=64
61704 Off ch=2 n=67 v=64
61704 Off ch=2 n=55 v=64
61728 On ch=2 n=60 v=90
61728 On ch=2 n=67 v=90
61728 On ch=2 n=55 v=90
61800 Off ch=2 n=60 v=64
61800 Off ch=2 n=67 v=64
61800 Off ch=2 n=55 v=64
61824 On ch=2 n=52 v=90
61824 On ch=2 n=55 v=90
61824 On ch=2 n=67 v=90
61824 On ch=2 n=60 v=90
61992 Off ch=2 n=52 v=64
61992 Off ch=2 n=55 v=64
61992 Off ch=2 n=60 v=64
62016 Off ch=2 n=67 v=64
62016 On ch=2 n=52 v=90
62016 On ch=2 n=55 v=90
62016 On ch=2 n=67 v=90
62376 Off ch=2 n=52 v=64
62376 Off ch=2 n=55 v=64
62376 Off ch=2 n=67 v=64
62400 On ch=2 n=60 v=90
62400 On ch=2 n=64 v=90
62400 On ch=2 n=55 v=90
62760 Off ch=2 n=60 v=64
62760 Off ch=2 n=64 v=64
62760 Off ch=2 n=55 v=64
62784 On ch=2 n=64 v=90
62784 On ch=2 n=55 v=90
62808 On ch=2 n=62 v=90
63144 Off ch=2 n=55 v=64
63144 Off ch=2 n=62 v=64
63144 Off ch=2 n=64 v=64
63168 On ch=2 n=57 v=90
63168 On ch=2 n=62 v=90
63168 On ch=2 n=66 v=90
63552 On ch=2 n=45 v=90
63720 Off ch=2 n=57 v=64
63720 Off ch=2 n=62 v=64
63720 Off ch=2 n=66 v=64
63720 Off ch=2 n=45 v=64
63744 On ch=2 n=57 v=90
63744 On ch=2 n=62 v=90
63744 On ch=2 n=66 v=90
63912 Off ch=2 n=57 v=64
63912 Off ch=2 n=62 v=64
63912 Off ch=2 n=66 v=64
63936 On ch=2 n=66 v=90
63936 On ch=2 n=62 v=90
63936 On ch=2 n=57 v=90
64008 Off ch=2 n=66 v=64
64008 Off ch=2 n=62 v=64
64008 Off ch=2 n=57 v=64
64032 On ch=2 n=57 v=90
64032 On ch=2 n=62 v=90
64032 On ch=2 n=66 v=90
64104 Off ch=2 n=57 v=64
64104 Off ch=2 n=62 v=64
64104 Off ch=2 n=66 v=64
64128 On ch=2 n=66 v=90
64128 On ch=2 n=62 v=90
64128 On ch=2 n=57 v=90
64296 Off ch=2 n=66 v=64
64296 Off ch=2 n=62 v=64
64296 Off ch=2 n=57 v=64
64320 On ch=2 n=64 v=90
64320 On ch=2 n=59 v=90
64320 On ch=2 n=55 v=90
64488 Off ch=2 n=64 v=64
64488 Off ch=2 n=59 v=64
64488 Off ch=2 n=55 v=64
64512 On ch=2 n=52 v=90
64512 On ch=2 n=55 v=90
64512 On ch=2 n=60 v=90
64512 On ch=2 n=67 v=90
64680 Off ch=2 n=52 v=64
64680 Off ch=2 n=55 v=64
64680 Off ch=2 n=60 v=64
64680 Off ch=2 n=67 v=64
64704 On ch=2 n=60 v=90
64704 On ch=2 n=55 v=90
64704 On ch=2 n=52 v=90
64704 On ch=2 n=67 v=90
64776 Off ch=2 n=60 v=64
64776 Off ch=2 n=55 v=64
64776 Off ch=2 n=52 v=64
64776 Off ch=2 n=67 v=64
64800 On ch=2 n=67 v=90
64800 On ch=2 n=60 v=90
64800 On ch=2 n=55 v=90
64872 Off ch=2 n=67 v=64
64872 Off ch=2 n=60 v=64
64872 Off ch=2 n=55 v=64
64896 On ch=2 n=55 v=90
64896 On ch=2 n=52 v=90
64896 On ch=2 n=60 v=90
64896 On ch=2 n=67 v=90
65064 Off ch=2 n=55 v=64
65064 Off ch=2 n=52 v=64
65064 Off ch=2 n=60 v=64
65064 Off ch=2 n=67 v=64
65088 On ch=2 n=55 v=90
65088 On ch=2 n=52 v=90
65088 On ch=2 n=60 v=90
65088 On ch=2 n=67 v=90
65448 Off ch=2 n=55 v=64
65448 Off ch=2 n=52 v=64
65448 Off ch=2 n=60 v=64
65448 Off ch=2 n=67 v=64
65472 On ch=2 n=55 v=90
65472 On ch=2 n=60 v=90
65472 On ch=2 n=64 v=90
65640 Off ch=2 n=55 v=64
65640 Off ch=2 n=60 v=64
65640 Off ch=2 n=64 v=64
65856 On ch=2 n=64 v=90
65856 On ch=2 n=67 v=90
65856 On ch=2 n=71 v=90
66024 Off ch=2 n=64 v=64
66024 Off ch=2 n=67 v=64
66024 Off ch=2 n=71 v=64
66240 On ch=2 n=62 v=90
66240 On ch=2 n=66 v=90
66240 On ch=2 n=69 v=90
66408 Off ch=2 n=62 v=64
66408 Off ch=2 n=66 v=64
66408 Off ch=2 n=69 v=64
66624 On ch=2 n=60 v=90
66624 On ch=2 n=64 v=90
66624 On ch=2 n=67 v=90
66792 Off ch=2 n=60 v=64
66792 Off ch=2 n=64 v=64
66792 Off ch=2 n=67 v=64
67008 On ch=2 n=62 v=90
67008 On ch=2 n=66 v=90
67008 On ch=2 n=69 v=90
67176 Off ch=2 n=62 v=64
67176 Off ch=2 n=66 v=64
67176 Off ch=2 n=69 v=64
67392 On ch=2 n=52 v=90
67392 On ch=2 n=45 v=90
67560 Off ch=2 n=52 v=64
67560 Off ch=2 n=45 v=64
67584 On ch=2 n=52 v=90
67584 On ch=2 n=60 v=90
67584 On ch=2 n=67 v=90
67584 On ch=2 n=55 v=90
67752 Off ch=2 n=52 v=64
67752 Off ch=2 n=60 v=64
67752 Off ch=2 n=67 v=64
67752 Off ch=2 n=55 v=64
67776 On ch=2 n=52 v=90
67776 On ch=2 n=60 v=90
67776 On ch=2 n=67 v=90
67776 On ch=2 n=55 v=90
67848 Off ch=2 n=52 v=64
67848 Off ch=2 n=60 v=64
67848 Off ch=2 n=67 v=64
67848 Off ch=2 n=55 v=64
67872 On ch=2 n=60 v=90
67872 On ch=2 n=67 v=90
67872 On ch=2 n=55 v=90
67944 Off ch=2 n=60 v=64
67944 Off ch=2 n=67 v=64
67944 Off ch=2 n=55 v=64
67968 On ch=2 n=52 v=90
67968 On ch=2 n=60 v=90
67968 On ch=2 n=67 v=90
67968 On ch=2 n=55 v=90
68136 Off ch=2 n=52 v=64
68136 Off ch=2 n=60 v=64
68136 Off ch=2 n=67 v=64
68136 Off ch=2 n=55 v=64
68160 On ch=2 n=52 v=90
68160 On ch=2 n=67 v=90
68160 On ch=2 n=55 v=90
68520 Off ch=2 n=52 v=64
68520 Off ch=2 n=67 v=64
68520 Off ch=2 n=55 v=64
68544 On ch=2 n=60 v=90
68544 On ch=2 n=64 v=90
68544 On ch=2 n=55 v=90
68904 Off ch=2 n=60 v=64
68904 Off ch=2 n=64 v=64
68904 Off ch=2 n=55 v=64
68928 On ch=2 n=64 v=90
68928 On ch=2 n=55 v=90
68952 On ch=2 n=62 v=90
69288 Off ch=2 n=55 v=64
69288 Off ch=2 n=62 v=64
69288 Off ch=2 n=64 v=64
69312 On ch=2 n=57 v=90
69312 On ch=2 n=62 v=90
69312 On ch=2 n=66 v=90
69480 Off ch=2 n=57 v=64
69480 Off ch=2 n=62 v=64
69480 Off ch=2 n=66 v=64
69504 On ch=2 n=57 v=90
69504 On ch=2 n=62 v=90
69504 On ch=2 n=66 v=90
69672 Off ch=2 n=57 v=64
69672 Off ch=2 n=62 v=64
69672 Off ch=2 n=66 v=64
69696 On ch=2 n=57 v=90
69696 On ch=2 n=62 v=90
69696 On ch=2 n=66 v=90
69696 On ch=2 n=50 v=90
70056 Off ch=2 n=57 v=64
70056 Off ch=2 n=62 v=64
70056 Off ch=2 n=66 v=64
70080 On ch=2 n=66 v=90
70080 On ch=2 n=62 v=90
70080 On ch=2 n=57 v=90
70152 Off ch=2 n=66 v=64
70152 Off ch=2 n=62 v=64
70152 Off ch=2 n=57 v=64
70176 On ch=2 n=57 v=90
70176 On ch=2 n=62 v=90
70176 On ch=2 n=66 v=90
70248 Off ch=2 n=57 v=64
70248 Off ch=2 n=62 v=64
70248 Off ch=2 n=66 v=64
70272 On ch=2 n=66 v=90
70272 On ch=2 n=62 v=90
70272 On ch=2 n=57 v=90
70440 Off ch=2 n=66 v=64
70440 Off ch=2 n=62 v=64
70440 Off ch=2 n=57 v=64
70464 On ch=2 n=64 v=90
70464 On ch=2 n=59 v=90
70464 On ch=2 n=55 v=90
70536 Off ch=2 n=64 v=64
70536 Off ch=2 n=59 v=64
70536 Off ch=2 n=55 v=64
70560 On ch=2 n=64 v=90
70560 On ch=2 n=59 v=90
70560 On ch=2 n=55 v=90
70632 Off ch=2 n=50 v=64
70632 Off ch=2 n=59 v=64
70656 Off ch=2 n=64 v=64
70656 Off ch=2 n=55 v=64
70656 On ch=2 n=52 v=90
70656 On ch=2 n=55 v=90
70656 Off ch=2 n=55 v=64
70656 On ch=2 n=60 v=90
70656 On ch=2 n=67 v=90
70824 Off ch=2 n=52 v=64
70824 Off ch=2 n=60 v=64
70824 Off ch=2 n=67 v=64
70848 On ch=2 n=60 v=90
70848 On ch=2 n=55 v=90
70848 On ch=2 n=52 v=90
70848 On ch=2 n=67 v=90
70920 Off ch=2 n=60 v=64
70920 Off ch=2 n=55 v=64
70920 Off ch=2 n=52 v=64
70920 Off ch=2 n=67 v=64
70944 On ch=2 n=67 v=90
70944 On ch=2 n=60 v=90
70944 On ch=2 n=55 v=90
71016 Off ch=2 n=67 v=64
71016 Off ch=2 n=60 v=64
71016 Off ch=2 n=55 v=64
71040 On ch=2 n=55 v=90
71040 On ch=2 n=52 v=90
71040 On ch=2 n=60 v=90
71040 On ch=2 n=67 v=90
71208 Off ch=2 n=55 v=64
71208 Off ch=2 n=52 v=64
71208 Off ch=2 n=60 v=64
71208 Off ch=2 n=67 v=64
71232 On ch=2 n=55 v=90
71232 On ch=2 n=52 v=90
71232 On ch=2 n=60 v=90
71232 On ch=2 n=67 v=90
71592 Off ch=2 n=55 v=64
71592 Off ch=2 n=52 v=64
71592 Off ch=2 n=60 v=64
71592 Off ch=2 n=67 v=64
71616 On ch=2 n=55 v=90
71616 On ch=2 n=60 v=90
71616 On ch=2 n=64 v=90
71784 Off ch=2 n=55 v=64
71784 Off ch=2 n=60 v=64
71784 Off ch=2 n=64 v=64
72000 On ch=2 n=64 v=90
72000 On ch=2 n=67 v=90
72000 On ch=2 n=71 v=90
72168 Off ch=2 n=64 v=64
72168 Off ch=2 n=67 v=64
72168 Off ch=2 n=71 v=64
72384 On ch=2 n=62 v=90
72384 On ch=2 n=66 v=90
72384 On ch=2 n=69 v=90
72552 Off ch=2 n=62 v=64
72552 Off ch=2 n=66 v=64
72552 Off ch=2 n=69 v=64
72768 On ch=2 n=60 v=90
72768 On ch=2 n=64 v=90
72768 On ch=2 n=67 v=90
72936 Off ch=2 n=60 v=64
72936 Off ch=2 n=64 v=64
72936 Off ch=2 n=67 v=64
73152 On ch=2 n=62 v=90
73152 On ch=2 n=66 v=90
73152 On ch=2 n=69 v=90
73536 On ch=2 n=45 v=90
73704 Off ch=2 n=62 v=64
73704 Off ch=2 n=66 v=64
73704 Off ch=2 n=45 v=64
73728 Off ch=2 n=69 v=64
73728 On ch=2 n=48 v=90
73728 On ch=2 n=45 v=90
73728 Off ch=2 n=45 v=64
73920 On ch=2 n=52 v=90
74088 Off ch=2 n=52 v=64
74112 On ch=2 n=55 v=90
74280 Off ch=2 n=55 v=64
74304 On ch=2 n=60 v=90
74472 Off ch=2 n=48 v=64
74472 Off ch=2 n=60 v=64
74496 On ch=2 n=47 v=90
74688 On ch=2 n=50 v=90
74856 Off ch=2 n=50 v=64
74880 On ch=2 n=55 v=90
75048 Off ch=2 n=55 v=64
75072 On ch=2 n=62 v=90
75240 Off ch=2 n=47 v=64
75240 Off ch=2 n=62 v=64
75264 On ch=2 n=59 v=90
75264 Off ch=2 n=59 v=64
75264 On ch=2 n=60 v=90
75432 Off ch=2 n=60 v=64
75456 On ch=2 n=57 v=90
75624 Off ch=2 n=57 v=64
75648 On ch=2 n=45 v=90
75840 On ch=2 n=52 v=90
76008 Off ch=2 n=52 v=64
76032 On ch=2 n=57 v=90
76200 Off ch=2 n=57 v=64
76224 On ch=2 n=60 v=90
76392 Off ch=2 n=45 v=64
76392 Off ch=2 n=60 v=64
76416 On ch=2 n=45 v=90
76584 Off ch=2 n=45 v=64
76608 On ch=2 n=47 v=90
76776 Off ch=2 n=47 v=64
76800 On ch=2 n=48 v=90
76992 On ch=2 n=52 v=90
77160 Off ch=2 n=52 v=64
77184 On ch=2 n=55 v=90
77352 Off ch=2 n=55 v=64
77376 On ch=2 n=60 v=90
77544 Off ch=2 n=48 v=64
77544 Off ch=2 n=60 v=64
77568 On ch=2 n=47 v=90
77760 On ch=2 n=50 v=90
77928 Off ch=2 n=50 v=64
77952 On ch=2 n=55 v=90
78120 Off ch=2 n=47 v=64
78120 Off ch=2 n=55 v=64
78144 On ch=2 n=64 v=90
78144 On ch=2 n=59 v=90
78144 On ch=2 n=57 v=90
78144 On ch=2 n=48 v=90
78144 On ch=2 n=41 v=90
78504 Off ch=2 n=41 v=64
78504 Off ch=2 n=48 v=64
78504 Off ch=2 n=57 v=64
78504 Off ch=2 n=59 v=64
78504 Off ch=2 n=64 v=64
78528 On ch=2 n=64 v=90
78528 On ch=2 n=60 v=90
78528 On ch=2 n=57 v=90
78528 On ch=2 n=52 v=90
78528 On ch=2 n=45 v=90
79464 Off ch=2 n=64 v=64
79464 Off ch=2 n=60 v=64
79464 Off ch=2 n=57 v=64
79464 Off ch=2 n=52 v=64
79464 Off ch=2 n=45 v=64
79488 On ch=2 n=45 v=90
79656 Off ch=2 n=45 v=64
79680 On ch=2 n=47 v=90
79848 Off ch=2 n=47 v=64
79872 On ch=2 n=48 v=90
80064 On ch=2 n=52 v=90
80232 Off ch=2 n=52 v=64
80256 On ch=2 n=55 v=90
80424 Off ch=2 n=55 v=64
80448 On ch=2 n=60 v=90
80616 Off ch=2 n=48 v=64
80616 Off ch=2 n=60 v=64
80640 On ch=2 n=47 v=90
80832 On ch=2 n=50 v=90
81000 Off ch=2 n=50 v=64
81024 On ch=2 n=55 v=90
81192 Off ch=2 n=55 v=64
81216 On ch=2 n=62 v=90
81384 Off ch=2 n=47 v=64
81384 Off ch=2 n=62 v=64
81408 On ch=2 n=59 v=90
81408 On ch=2 n=45 v=90
81480 Off ch=2 n=59 v=64
81504 On ch=2 n=60 v=90
81576 Off ch=2 n=60 v=64
81600 On ch=2 n=57 v=90
81768 Off ch=2 n=45 v=64
81768 Off ch=2 n=57 v=64
81792 On ch=2 n=45 v=90
81984 On ch=2 n=52 v=90
82152 Off ch=2 n=52 v=64
82176 On ch=2 n=57 v=90
82344 Off ch=2 n=57 v=64
82368 On ch=2 n=60 v=90
82536 Off ch=2 n=45 v=64
82536 Off ch=2 n=60 v=64
82560 On ch=2 n=45 v=90
82728 Off ch=2 n=45 v=64
82752 On ch=2 n=47 v=90
82920 Off ch=2 n=47 v=64
82944 On ch=2 n=48 v=90
83136 On ch=2 n=52 v=90
83304 Off ch=2 n=52 v=64
83328 On ch=2 n=55 v=90
83496 Off ch=2 n=55 v=64
83520 On ch=2 n=60 v=90
83688 Off ch=2 n=48 v=64
83688 Off ch=2 n=60 v=64
83712 On ch=2 n=47 v=90
83904 On ch=2 n=50 v=90
84072 Off ch=2 n=50 v=64
84096 On ch=2 n=55 v=90
84264 Off ch=2 n=47 v=64
84264 Off ch=2 n=55 v=64
84288 On ch=2 n=48 v=90
84288 On ch=2 n=41 v=90
84288 On ch=2 n=53 v=90
84288 On ch=2 n=57 v=90
84288 On ch=2 n=60 v=90
84288 On ch=2 n=64 v=90
84648 Off ch=2 n=41 v=64
84648 Off ch=2 n=48 v=64
84648 Off ch=2 n=53 v=64
84648 Off ch=2 n=57 v=64
84648 Off ch=2 n=60 v=64
84648 Off ch=2 n=64 v=64
84672 On ch=2 n=64 v=90
84672 On ch=2 n=60 v=90
84672 On ch=2 n=57 v=90
84672 On ch=2 n=52 v=90
84672 On ch=2 n=45 v=90
85608 Off ch=2 n=64 v=64
85608 Off ch=2 n=60 v=64
85608 Off ch=2 n=57 v=64
85608 Off ch=2 n=52 v=64
85608 Off ch=2 n=45 v=64
85632 On ch=2 n=45 v=90
85800 Off ch=2 n=45 v=64
85824 On ch=2 n=47 v=90
85992 Off ch=2 n=47 v=64
86016 On ch=2 n=48 v=90
86208 On ch=2 n=52 v=90
86376 Off ch=2 n=52 v=64
86400 On ch=2 n=55 v=90
86568 Off ch=2 n=55 v=64
86592 On ch=2 n=60 v=90
86760 Off ch=2 n=48 v=64
86760 Off ch=2 n=60 v=64
86784 On ch=2 n=47 v=90
86976 On ch=2 n=50 v=90
87144 Off ch=2 n=50 v=64
87168 On ch=2 n=55 v=90
87336 Off ch=2 n=55 v=64
87360 On ch=2 n=62 v=90
87528 Off ch=2 n=47 v=64
87528 Off ch=2 n=62 v=64
87552 On ch=2 n=52 v=90
87552 On ch=2 n=60 v=90
87552 On ch=2 n=67 v=90
87552 On ch=2 n=55 v=90
87720 Off ch=2 n=52 v=64
87720 Off ch=2 n=60 v=64
87720 Off ch=2 n=67 v=64
87720 Off ch=2 n=55 v=64
87744 On ch=2 n=52 v=90
87744 On ch=2 n=60 v=90
87744 On ch=2 n=67 v=90
87744 On ch=2 n=55 v=90
87816 Off ch=2 n=52 v=64
87816 Off ch=2 n=60 v=64
87816 Off ch=2 n=67 v=64
87816 Off ch=2 n=55 v=64
87840 On ch=2 n=60 v=90
87840 On ch=2 n=67 v=90
87840 On ch=2 n=55 v=90
87912 Off ch=2 n=60 v=64
87912 Off ch=2 n=67 v=64
87912 Off ch=2 n=55 v=64
87936 On ch=2 n=52 v=90
87936 On ch=2 n=60 v=90
87936 On ch=2 n=67 v=90
87936 On ch=2 n=55 v=90
88104 Off ch=2 n=52 v=64
88104 Off ch=2 n=60 v=64
88104 Off ch=2 n=67 v=64
88104 Off ch=2 n=55 v=64
88128 On ch=2 n=52 v=90
88128 On ch=2 n=60 v=90
88128 On ch=2 n=55 v=90
88488 Off ch=2 n=52 v=64
88488 Off ch=2 n=60 v=64
88488 Off ch=2 n=55 v=64
88512 On ch=2 n=60 v=90
88512 On ch=2 n=64 v=90
88512 On ch=2 n=55 v=90
88872 Off ch=2 n=60 v=64
88872 Off ch=2 n=64 v=64
88872 Off ch=2 n=55 v=64
88896 On ch=2 n=64 v=90
88896 On ch=2 n=55 v=90
88920 On ch=2 n=62 v=90
89256 Off ch=2 n=55 v=64
89256 Off ch=2 n=62 v=64
89256 Off ch=2 n=64 v=64
89280 On ch=2 n=57 v=90
89280 On ch=2 n=62 v=90
89280 On ch=2 n=66 v=90
89664 On ch=2 n=45 v=90
89832 Off ch=2 n=57 v=64
89832 Off ch=2 n=62 v=64
89832 Off ch=2 n=66 v=64
89832 Off ch=2 n=45 v=64
89856 On ch=2 n=57 v=90
89856 On ch=2 n=62 v=90
89856 On ch=2 n=66 v=90
90024 Off ch=2 n=57 v=64
90024 Off ch=2 n=62 v=64
90024 Off ch=2 n=66 v=64
90048 On ch=2 n=66 v=90
90048 On ch=2 n=62 v=90
90048 On ch=2 n=57 v=90
90120 Off ch=2 n=66 v=64
90120 Off ch=2 n=62 v=64
90120 Off ch=2 n=57 v=64
90144 On ch=2 n=57 v=90
90144 On ch=2 n=62 v=90
90144 On ch=2 n=66 v=90
90216 Off ch=2 n=57 v=64
90216 Off ch=2 n=62 v=64
90216 Off ch=2 n=66 v=64
90240 On ch=2 n=66 v=90
90240 On ch=2 n=62 v=90
90240 On ch=2 n=57 v=90
90408 Off ch=2 n=66 v=64
90408 Off ch=2 n=62 v=64
90408 Off ch=2 n=57 v=64
90432 On ch=2 n=64 v=90
90432 On ch=2 n=59 v=90
90432 On ch=2 n=55 v=90
90600 Off ch=2 n=64 v=64
90600 Off ch=2 n=59 v=64
90600 Off ch=2 n=55 v=64
90624 On ch=2 n=52 v=90
90624 On ch=2 n=55 v=90
90624 On ch=2 n=60 v=90
90624 On ch=2 n=67 v=90
90792 Off ch=2 n=52 v=64
90792 Off ch=2 n=55 v=64
90792 Off ch=2 n=60 v=64
90792 Off ch=2 n=67 v=64
90816 On ch=2 n=60 v=90
90816 On ch=2 n=55 v=90
90816 On ch=2 n=52 v=90
90816 On ch=2 n=67 v=90
90888 Off ch=2 n=60 v=64
90888 Off ch=2 n=55 v=64
90888 Off ch=2 n=52 v=64
90888 Off ch=2 n=67 v=64
90912 On ch=2 n=67 v=90
90912 On ch=2 n=60 v=90
90912 On ch=2 n=55 v=90
90984 Off ch=2 n=67 v=64
90984 Off ch=2 n=60 v=64
90984 Off ch=2 n=55 v=64
91008 On ch=2 n=55 v=90
91008 On ch=2 n=52 v=90
91008 On ch=2 n=60 v=90
91008 On ch=2 n=67 v=90
91176 Off ch=2 n=55 v=64
91176 Off ch=2 n=52 v=64
91176 Off ch=2 n=60 v=64
91176 Off ch=2 n=67 v=64
91200 On ch=2 n=55 v=90
91200 On ch=2 n=52 v=90
91200 On ch=2 n=67 v=90
91560 Off ch=2 n=55 v=64
91560 Off ch=2 n=52 v=64
91560 Off ch=2 n=67 v=64
91584 On ch=2 n=55 v=90
91584 On ch=2 n=60 v=90
91584 On ch=2 n=64 v=90
91752 Off ch=2 n=55 v=64
91752 Off ch=2 n=60 v=64
91752 Off ch=2 n=64 v=64
91968 On ch=2 n=64 v=90
91968 On ch=2 n=67 v=90
91968 On ch=2 n=71 v=90
92136 Off ch=2 n=64 v=64
92136 Off ch=2 n=67 v=64
92136 Off ch=2 n=71 v=64
92352 On ch=2 n=62 v=90
92352 On ch=2 n=66 v=90
92352 On ch=2 n=69 v=90
92520 Off ch=2 n=62 v=64
92520 Off ch=2 n=66 v=64
92520 Off ch=2 n=69 v=64
92736 On ch=2 n=60 v=90
92736 On ch=2 n=64 v=90
92736 On ch=2 n=67 v=90
92904 Off ch=2 n=60 v=64
92904 Off ch=2 n=64 v=64
92904 Off ch=2 n=67 v=64
93120 On ch=2 n=62 v=90
93120 On ch=2 n=66 v=90
93120 On ch=2 n=69 v=90
93288 Off ch=2 n=62 v=64
93288 Off ch=2 n=66 v=64
93288 Off ch=2 n=69 v=64
93504 On ch=2 n=52 v=90
93504 On ch=2 n=45 v=90
93672 Off ch=2 n=52 v=64
93672 Off ch=2 n=45 v=64
93696 On ch=2 n=52 v=90
93696 On ch=2 n=60 v=90
93696 On ch=2 n=67 v=90
93696 On ch=2 n=55 v=90
93864 Off ch=2 n=52 v=64
93864 Off ch=2 n=60 v=64
93864 Off ch=2 n=67 v=64
93864 Off ch=2 n=55 v=64
93888 On ch=2 n=52 v=90
93888 On ch=2 n=60 v=90
93888 On ch=2 n=67 v=90
93888 On ch=2 n=55 v=90
93960 Off ch=2 n=52 v=64
93960 Off ch=2 n=60 v=64
93960 Off ch=2 n=67 v=64
93960 Off ch=2 n=55 v=64
93984 On ch=2 n=60 v=90
93984 On ch=2 n=67 v=90
93984 On ch=2 n=55 v=90
94056 Off ch=2 n=60 v=64
94056 Off ch=2 n=67 v=64
94056 Off ch=2 n=55 v=64
94080 On ch=2 n=52 v=90
94080 On ch=2 n=60 v=90
94080 On ch=2 n=67 v=90
94080 On ch=2 n=55 v=90
94248 Off ch=2 n=52 v=64
94248 Off ch=2 n=60 v=64
94248 Off ch=2 n=67 v=64
94248 Off ch=2 n=55 v=64
94272 On ch=2 n=52 v=90
94272 On ch=2 n=55 v=90
94272 On ch=2 n=67 v=64
94632 Off ch=2 n=52 v=64
94632 Off ch=2 n=55 v=64
94632 Off ch=2 n=67 v=64
94656 On ch=2 n=60 v=90
94656 On ch=2 n=64 v=90
94656 On ch=2 n=55 v=90
95016 Off ch=2 n=60 v=64
95016 Off ch=2 n=64 v=64
95016 Off ch=2 n=55 v=64
95040 On ch=2 n=64 v=90
95040 On ch=2 n=55 v=90
95064 On ch=2 n=62 v=90
95400 Off ch=2 n=55 v=64
95400 Off ch=2 n=62 v=64
95400 Off ch=2 n=64 v=64
95424 On ch=2 n=57 v=90
95424 On ch=2 n=62 v=90
95424 On ch=2 n=66 v=90
95592 Off ch=2 n=57 v=64
95592 Off ch=2 n=62 v=64
95592 Off ch=2 n=66 v=64
95616 On ch=2 n=57 v=90
95616 On ch=2 n=62 v=90
95616 On ch=2 n=66 v=90
95784 Off ch=2 n=57 v=64
95784 Off ch=2 n=62 v=64
95784 Off ch=2 n=66 v=64
95808 On ch=2 n=45 v=90
95808 On ch=2 n=57 v=90
95808 On ch=2 n=62 v=90
95808 On ch=2 n=66 v=90
96168 Off ch=2 n=57 v=64
96168 Off ch=2 n=62 v=64
96168 Off ch=2 n=66 v=64
96192 On ch=2 n=66 v=90
96192 On ch=2 n=62 v=90
96192 On ch=2 n=57 v=90
96264 Off ch=2 n=66 v=64
96264 Off ch=2 n=62 v=64
96264 Off ch=2 n=57 v=64
96288 On ch=2 n=57 v=90
96288 On ch=2 n=62 v=90
96288 On ch=2 n=66 v=90
96360 Off ch=2 n=57 v=64
96360 Off ch=2 n=62 v=64
96360 Off ch=2 n=66 v=64
96384 On ch=2 n=66 v=90
96384 On ch=2 n=62 v=90
96384 On ch=2 n=57 v=90
96552 Off ch=2 n=66 v=64
96552 Off ch=2 n=62 v=64
96552 Off ch=2 n=57 v=64
96576 On ch=2 n=64 v=90
96576 On ch=2 n=59 v=90
96576 On ch=2 n=55 v=90
96648 Off ch=2 n=64 v=64
96648 Off ch=2 n=59 v=64
96648 Off ch=2 n=55 v=64
96672 On ch=2 n=64 v=90
96672 On ch=2 n=59 v=90
96672 On ch=2 n=55 v=90
96744 Off ch=2 n=45 v=64
96744 Off ch=2 n=59 v=64
96768 Off ch=2 n=64 v=64
96768 Off ch=2 n=55 v=64
96768 On ch=2 n=52 v=90
96768 On ch=2 n=55 v=90
96768 Off ch=2 n=55 v=64
96768 On ch=2 n=60 v=90
96768 On ch=2 n=67 v=90
96936 Off ch=2 n=52 v=64
96936 Off ch=2 n=60 v=64
96936 Off ch=2 n=67 v=64
96960 On ch=2 n=60 v=90
96960 On ch=2 n=55 v=90
96960 On ch=2 n=52 v=90
96960 On ch=2 n=67 v=90
97032 Off ch=2 n=60 v=64
97032 Off ch=2 n=55 v=64
97032 Off ch=2 n=52 v=64
97032 Off ch=2 n=67 v=64
97056 On ch=2 n=67 v=90
97056 On ch=2 n=60 v=90
97056 On ch=2 n=55 v=90
97128 Off ch=2 n=67 v=64
97128 Off ch=2 n=60 v=64
97128 Off ch=2 n=55 v=64
97152 On ch=2 n=55 v=90
97152 On ch=2 n=52 v=90
97152 On ch=2 n=60 v=90
97152 On ch=2 n=67 v=90
97320 Off ch=2 n=55 v=64
97320 Off ch=2 n=52 v=64
97320 Off ch=2 n=60 v=64
97320 Off ch=2 n=67 v=64
97344 On ch=2 n=55 v=90
97344 On ch=2 n=52 v=90
97344 On ch=2 n=67 v=90
97704 Off ch=2 n=55 v=64
97704 Off ch=2 n=52 v=64
97704 Off ch=2 n=67 v=64
97728 On ch=2 n=55 v=90
97728 On ch=2 n=60 v=90
97728 On ch=2 n=64 v=90
97896 Off ch=2 n=55 v=64
97896 Off ch=2 n=60 v=64
97896 Off ch=2 n=64 v=64
98112 On ch=2 n=64 v=90
98112 On ch=2 n=67 v=90
98112 On ch=2 n=71 v=90
98280 Off ch=2 n=64 v=64
98280 Off ch=2 n=67 v=64
98280 Off ch=2 n=71 v=64
98496 On ch=2 n=62 v=90
98496 On ch=2 n=66 v=90
98496 On ch=2 n=69 v=90
98664 Off ch=2 n=62 v=64
98664 Off ch=2 n=66 v=64
98664 Off ch=2 n=69 v=64
98880 On ch=2 n=60 v=90
98880 On ch=2 n=64 v=90
98880 On ch=2 n=67 v=90
99048 Off ch=2 n=60 v=64
99048 Off ch=2 n=64 v=64
99048 Off ch=2 n=67 v=64
99264 On ch=2 n=62 v=90
99264 On ch=2 n=66 v=90
99264 On ch=2 n=69 v=90
99648 On ch=2 n=45 v=90
99816 Off ch=2 n=62 v=64
99816 Off ch=2 n=66 v=64
99816 Off ch=2 n=45 v=64
99840 Off ch=2 n=69 v=64
99840 On ch=2 n=48 v=90
99840 On ch=2 n=45 v=90
99840 Off ch=2 n=45 v=64
100032 On ch=2 n=52 v=90
100200 Off ch=2 n=52 v=64
100224 On ch=2 n=55 v=90
100392 Off ch=2 n=55 v=64
100416 On ch=2 n=60 v=90
100584 Off ch=2 n=48 v=64
100584 Off ch=2 n=60 v=64
100608 On ch=2 n=47 v=90
100800 On ch=2 n=50 v=90
100968 Off ch=2 n=50 v=64
100992 On ch=2 n=55 v=90
101160 Off ch=2 n=55 v=64
101184 On ch=2 n=62 v=90
101352 Off ch=2 n=47 v=64
101352 Off ch=2 n=62 v=64
101376 On ch=2 n=59 v=90
101376 Off ch=2 n=59 v=64
101376 On ch=2 n=60 v=90
101544 Off ch=2 n=60 v=64
101568 On ch=2 n=57 v=90
101736 Off ch=2 n=57 v=64
101760 On ch=2 n=45 v=90
101952 On ch=2 n=52 v=90
102120 Off ch=2 n=52 v=64
102144 On ch=2 n=57 v=90
102312 Off ch=2 n=57 v=64
102336 On ch=2 n=60 v=90
102504 Off ch=2 n=45 v=64
102504 Off ch=2 n=60 v=64
102528 On ch=2 n=45 v=90
102696 Off ch=2 n=45 v=64
102720 On ch=2 n=47 v=90
102888 Off ch=2 n=47 v=64
102912 On ch=2 n=48 v=90
103104 On ch=2 n=52 v=90
103272 Off ch=2 n=52 v=64
103296 On ch=2 n=55 v=90
103464 Off ch=2 n=55 v=64
103488 On ch=2 n=60 v=90
103656 Off ch=2 n=48 v=64
103656 Off ch=2 n=60 v=64
103680 On ch=2 n=47 v=90
103872 On ch=2 n=50 v=90
104040 Off ch=2 n=50 v=64
104064 On ch=2 n=55 v=90
104232 Off ch=2 n=47 v=64
104232 Off ch=2 n=55 v=64
104256 On ch=2 n=64 v=90
104256 On ch=2 n=59 v=90
104256 On ch=2 n=57 v=90
104256 On ch=2 n=48 v=90
104256 On ch=2 n=41 v=90
104616 Off ch=2 n=41 v=64
104616 Off ch=2 n=48 v=64
104616 Off ch=2 n=57 v=64
104616 Off ch=2 n=59 v=64
104616 Off ch=2 n=64 v=64
104640 On ch=2 n=64 v=90
104640 On ch=2 n=60 v=90
104640 On ch=2 n=57 v=90
104640 On ch=2 n=52 v=90
104640 On ch=2 n=45 v=90
105576 Off ch=2 n=64 v=64
105576 Off ch=2 n=60 v=64
105576 Off ch=2 n=57 v=64
105576 Off ch=2 n=52 v=64
105576 Off ch=2 n=45 v=64
105600 On ch=2 n=45 v=90
105768 Off ch=2 n=45 v=64
105792 On ch=2 n=47 v=90
105960 Off ch=2 n=47 v=64
105984 On ch=2 n=48 v=90
106176 On ch=2 n=52 v=90
106344 Off ch=2 n=52 v=64
106368 On ch=2 n=55 v=90
106536 Off ch=2 n=55 v=64
106560 On ch=2 n=60 v=90
106728 Off ch=2 n=48 v=64
106728 Off ch=2 n=60 v=64
106752 On ch=2 n=47 v=90
106944 On ch=2 n=50 v=90
107112 Off ch=2 n=50 v=64
107136 On ch=2 n=55 v=90
107304 Off ch=2 n=55 v=64
107328 On ch=2 n=62 v=90
107496 Off ch=2 n=47 v=64
107496 Off ch=2 n=62 v=64
107520 On ch=2 n=59 v=90
107520 On ch=2 n=45 v=90
107592 Off ch=2 n=59 v=64
107616 On ch=2 n=60 v=90
107688 Off ch=2 n=60 v=64
107712 On ch=2 n=57 v=90
107880 Off ch=2 n=45 v=64
107880 Off ch=2 n=57 v=64
107904 On ch=2 n=45 v=90
108096 On ch=2 n=52 v=90
108264 Off ch=2 n=52 v=64
108288 On ch=2 n=57 v=90
108456 Off ch=2 n=57 v=64
108480 On ch=2 n=60 v=90
108648 Off ch=2 n=45 v=64
108648 Off ch=2 n=60 v=64
108672 On ch=2 n=45 v=90
108840 Off ch=2 n=45 v=64
108864 On ch=2 n=47 v=90
109032 Off ch=2 n=47 v=64
109056 On ch=2 n=48 v=90
109248 On ch=2 n=52 v=90
109416 Off ch=2 n=52 v=64
109440 On ch=2 n=55 v=90
109608 Off ch=2 n=55 v=64
109632 On ch=2 n=60 v=90
109800 Off ch=2 n=48 v=64
109800 Off ch=2 n=60 v=64
109824 On ch=2 n=47 v=90
110016 On ch=2 n=50 v=90
110184 Off ch=2 n=50 v=64
110208 On ch=2 n=55 v=90
110376 Off ch=2 n=47 v=64
110376 Off ch=2 n=55 v=64
110400 On ch=2 n=48 v=90
110400 On ch=2 n=41 v=90
110400 On ch=2 n=53 v=90
110400 On ch=2 n=57 v=90
110400 On ch=2 n=60 v=90
110400 On ch=2 n=64 v=90
110760 Off ch=2 n=41 v=64
110760 Off ch=2 n=48 v=64
110760 Off ch=2 n=53 v=64
110760 Off ch=2 n=57 v=64
110760 Off ch=2 n=60 v=64
110760 Off ch=2 n=64 v=64
110784 On ch=2 n=64 v=90
110784 On ch=2 n=60 v=90
110784 On ch=2 n=57 v=90
110784 On ch=2 n=52 v=90
110784 On ch=2 n=45 v=90
111720 Off ch=2 n=64 v=64
111720 Off ch=2 n=60 v=64
111720 Off ch=2 n=57 v=64
111720 Off ch=2 n=52 v=64
111720 Off ch=2 n=45 v=64
111744 On ch=2 n=45 v=90
111912 Off ch=2 n=45 v=64
111936 On ch=2 n=47 v=90
112104 Off ch=2 n=47 v=64
112128 On ch=2 n=48 v=90
112320 On ch=2 n=52 v=90
112488 Off ch=2 n=52 v=64
112512 On ch=2 n=55 v=90
112680 Off ch=2 n=55 v=64
112704 On ch=2 n=60 v=90
112872 Off ch=2 n=48 v=64
112872 Off ch=2 n=60 v=64
112896 On ch=2 n=47 v=90
113088 On ch=2 n=50 v=90
113256 Off ch=2 n=50 v=64
113280 On ch=2 n=55 v=90
113448 Off ch=2 n=55 v=64
113472 On ch=2 n=62 v=90
113640 Off ch=2 n=47 v=64
113640 Off ch=2 n=62 v=64
113664 On ch=2 n=52 v=90
113664 On ch=2 n=57 v=90
113664 On ch=2 n=60 v=90
113664 On ch=2 n=67 v=90
113832 Off ch=2 n=52 v=64
113832 Off ch=2 n=57 v=64
113832 Off ch=2 n=60 v=64
113832 Off ch=2 n=67 v=64
113856 On ch=2 n=67 v=90
113856 On ch=2 n=60 v=90
113856 On ch=2 n=57 v=90
113856 On ch=2 n=52 v=90
113928 Off ch=2 n=67 v=64
113928 Off ch=2 n=60 v=64
113928 Off ch=2 n=57 v=64
113928 Off ch=2 n=52 v=64
113952 On ch=2 n=52 v=90
113952 On ch=2 n=57 v=90
113952 On ch=2 n=60 v=90
113952 On ch=2 n=67 v=90
114024 Off ch=2 n=52 v=64
114024 Off ch=2 n=57 v=64
114024 Off ch=2 n=60 v=64
114024 Off ch=2 n=67 v=64
114048 On ch=2 n=67 v=90
114048 On ch=2 n=60 v=90
114048 On ch=2 n=57 v=90
114048 On ch=2 n=52 v=90
114216 Off ch=2 n=67 v=64
114216 Off ch=2 n=60 v=64
114216 Off ch=2 n=57 v=64
114216 Off ch=2 n=52 v=64
114240 On ch=2 n=52 v=90
114240 On ch=2 n=57 v=90
114240 On ch=2 n=60 v=90
114240 On ch=2 n=67 v=90
114408 Off ch=2 n=52 v=64
114408 Off ch=2 n=57 v=64
114408 Off ch=2 n=60 v=64
114408 Off ch=2 n=67 v=64
114624 On ch=2 n=55 v=90
114624 On ch=2 n=60 v=90
114624 On ch=2 n=64 v=90
114792 Off ch=2 n=55 v=64
114792 Off ch=2 n=60 v=64
114792 Off ch=2 n=64 v=64
115008 On ch=2 n=64 v=90
115008 On ch=2 n=62 v=90
115008 On ch=2 n=55 v=90
115176 Off ch=2 n=64 v=64
115176 Off ch=2 n=62 v=64
115176 Off ch=2 n=55 v=64
115392 On ch=2 n=57 v=90
115392 On ch=2 n=62 v=90
115392 On ch=2 n=66 v=90
115776 On ch=2 n=50 v=90
115944 Off ch=2 n=57 v=64
115944 Off ch=2 n=62 v=64
115944 Off ch=2 n=66 v=64
115968 On ch=2 n=62 v=90
115968 On ch=2 n=66 v=90
115968 On ch=2 n=57 v=90
116136 Off ch=2 n=62 v=64
116136 Off ch=2 n=66 v=64
116136 Off ch=2 n=57 v=64
116160 On ch=2 n=57 v=90
116160 On ch=2 n=62 v=90
116160 On ch=2 n=66 v=90
116232 Off ch=2 n=57 v=64
116232 Off ch=2 n=62 v=64
116232 Off ch=2 n=66 v=64
116256 On ch=2 n=57 v=90
116256 On ch=2 n=62 v=90
116256 On ch=2 n=66 v=90
116328 Off ch=2 n=57 v=64
116328 Off ch=2 n=62 v=64
116328 Off ch=2 n=66 v=64
116352 On ch=2 n=57 v=90
116352 On ch=2 n=62 v=90
116352 On ch=2 n=66 v=90
116520 Off ch=2 n=57 v=64
116520 Off ch=2 n=62 v=64
116520 Off ch=2 n=66 v=64
116544 On ch=2 n=55 v=90
116544 On ch=2 n=59 v=90
116544 On ch=2 n=64 v=90
116616 Off ch=2 n=55 v=64
116616 Off ch=2 n=59 v=64
116616 Off ch=2 n=64 v=64
116640 On ch=2 n=55 v=90
116640 On ch=2 n=59 v=90
116640 On ch=2 n=64 v=90
116688 Off ch=2 n=50 v=64
116712 Off ch=2 n=55 v=64
116712 Off ch=2 n=59 v=64
116736 Off ch=2 n=64 v=64
116736 On ch=2 n=52 v=90
116736 On ch=2 n=57 v=90
116736 On ch=2 n=60 v=90
116736 On ch=2 n=67 v=90
116904 Off ch=2 n=52 v=64
116904 Off ch=2 n=57 v=64
116904 Off ch=2 n=60 v=64
116904 Off ch=2 n=67 v=64
116928 On ch=2 n=67 v=90
116928 On ch=2 n=60 v=90
116928 On ch=2 n=57 v=90
116928 On ch=2 n=52 v=90
117000 Off ch=2 n=67 v=64
117000 Off ch=2 n=60 v=64
117000 Off ch=2 n=57 v=64
117000 Off ch=2 n=52 v=64
117024 On ch=2 n=52 v=90
117024 On ch=2 n=57 v=90
117024 On ch=2 n=60 v=90
117024 On ch=2 n=67 v=90
117096 Off ch=2 n=52 v=64
117096 Off ch=2 n=57 v=64
117096 Off ch=2 n=60 v=64
117096 Off ch=2 n=67 v=64
117120 On ch=2 n=67 v=90
117120 On ch=2 n=60 v=90
117120 On ch=2 n=57 v=90
117120 On ch=2 n=52 v=90
117288 Off ch=2 n=67 v=64
117288 Off ch=2 n=60 v=64
117288 Off ch=2 n=57 v=64
117288 Off ch=2 n=52 v=64
117312 On ch=2 n=52 v=90
117312 On ch=2 n=57 v=90
117312 On ch=2 n=60 v=90
117312 On ch=2 n=67 v=90
117672 Off ch=2 n=52 v=64
117672 Off ch=2 n=57 v=64
117672 Off ch=2 n=60 v=64
117672 Off ch=2 n=67 v=64
117696 On ch=2 n=55 v=90
117696 On ch=2 n=60 v=90
117696 On ch=2 n=64 v=90
117864 Off ch=2 n=55 v=64
117864 Off ch=2 n=60 v=64
117864 Off ch=2 n=64 v=64
118080 On ch=2 n=64 v=90
118080 On ch=2 n=67 v=90
118080 On ch=2 n=71 v=90
118248 Off ch=2 n=64 v=64
118248 Off ch=2 n=67 v=64
118248 Off ch=2 n=71 v=64
118464 On ch=2 n=62 v=90
118464 On ch=2 n=66 v=90
118464 On ch=2 n=69 v=90
118632 Off ch=2 n=62 v=64
118632 Off ch=2 n=66 v=64
118632 Off ch=2 n=69 v=64
118848 On ch=2 n=60 v=90
118848 On ch=2 n=64 v=90
118848 On ch=2 n=67 v=90
119016 Off ch=2 n=60 v=64
119016 Off ch=2 n=64 v=64
119016 Off ch=2 n=67 v=64
119232 On ch=2 n=69 v=90
119232 On ch=2 n=66 v=90
119232 On ch=2 n=62 v=90
119424 On ch=2 n=50 v=90
119592 Off ch=2 n=69 v=64
119592 Off ch=2 n=66 v=64
119592 Off ch=2 n=62 v=64
119592 Off ch=2 n=50 v=64
119616 On ch=2 n=45 v=90
119808 On ch=2 n=52 v=90
119808 On ch=2 n=60 v=90
119808 On ch=2 n=67 v=90
119808 On ch=2 n=55 v=90
119976 Off ch=2 n=52 v=64
119976 Off ch=2 n=60 v=64
119976 Off ch=2 n=67 v=64
119976 Off ch=2 n=55 v=64
120000 On ch=2 n=67 v=90
120000 On ch=2 n=60 v=90
120000 On ch=2 n=52 v=90
120000 On ch=2 n=55 v=90
120072 Off ch=2 n=67 v=64
120072 Off ch=2 n=60 v=64
120072 Off ch=2 n=52 v=64
120072 Off ch=2 n=55 v=64
120096 On ch=2 n=52 v=90
120096 On ch=2 n=60 v=90
120096 On ch=2 n=67 v=90
120096 On ch=2 n=55 v=90
120168 Off ch=2 n=52 v=64
120168 Off ch=2 n=60 v=64
120168 Off ch=2 n=67 v=64
120168 Off ch=2 n=55 v=64
120192 On ch=2 n=67 v=90
120192 On ch=2 n=60 v=90
120192 On ch=2 n=52 v=90
120192 On ch=2 n=55 v=90
120360 Off ch=2 n=67 v=64
120360 Off ch=2 n=60 v=64
120360 Off ch=2 n=52 v=64
120360 Off ch=2 n=55 v=64
120384 On ch=2 n=52 v=90
120384 On ch=2 n=60 v=90
120384 On ch=2 n=67 v=90
120384 On ch=2 n=55 v=90
120552 Off ch=2 n=45 v=64
120552 Off ch=2 n=52 v=64
120552 Off ch=2 n=60 v=64
120552 Off ch=2 n=67 v=64
120552 Off ch=2 n=55 v=64
120576 On ch=2 n=64 v=90
120576 On ch=2 n=60 v=90
120576 On ch=2 n=55 v=90
120648 Off ch=2 n=64 v=64
120648 Off ch=2 n=60 v=64
120648 Off ch=2 n=55 v=64
120672 On ch=2 n=55 v=90
120672 On ch=2 n=60 v=90
120672 On ch=2 n=64 v=90
120744 Off ch=2 n=55 v=64
120744 Off ch=2 n=60 v=64
120744 Off ch=2 n=64 v=64
120768 On ch=2 n=55 v=90
120768 On ch=2 n=60 v=90
120768 On ch=2 n=64 v=90
120936 Off ch=2 n=55 v=64
120936 Off ch=2 n=60 v=64
120936 Off ch=2 n=64 v=64
120960 On ch=2 n=64 v=90
120960 On ch=2 n=60 v=90
120960 On ch=2 n=55 v=90
121128 Off ch=2 n=64 v=64
121128 Off ch=2 n=60 v=64
121128 Off ch=2 n=55 v=64
121152 On ch=2 n=55 v=90
121152 On ch=2 n=62 v=90
121152 On ch=2 n=64 v=90
121512 Off ch=2 n=55 v=64
121512 Off ch=2 n=62 v=64
121512 Off ch=2 n=64 v=64
121536 On ch=2 n=57 v=90
121536 On ch=2 n=62 v=90
121536 On ch=2 n=66 v=90
122088 Off ch=2 n=57 v=64
122088 Off ch=2 n=62 v=64
122088 Off ch=2 n=66 v=64
122112 On ch=2 n=62 v=90
122112 On ch=2 n=66 v=90
122112 On ch=2 n=57 v=90
122280 Off ch=2 n=62 v=64
122280 Off ch=2 n=66 v=64
122280 Off ch=2 n=57 v=64
122304 On ch=2 n=57 v=90
122304 On ch=2 n=62 v=90
122304 On ch=2 n=66 v=90
122376 Off ch=2 n=57 v=64
122376 Off ch=2 n=62 v=64
122376 Off ch=2 n=66 v=64
122400 On ch=2 n=57 v=90
122400 On ch=2 n=62 v=90
122400 On ch=2 n=66 v=90
122472 Off ch=2 n=57 v=64
122472 Off ch=2 n=62 v=64
122472 Off ch=2 n=66 v=64
122496 On ch=2 n=57 v=90
122496 On ch=2 n=62 v=90
122496 On ch=2 n=66 v=90
122664 Off ch=2 n=57 v=64
122664 Off ch=2 n=62 v=64
122664 Off ch=2 n=66 v=64
122688 On ch=2 n=55 v=90
122688 On ch=2 n=59 v=90
122688 On ch=2 n=64 v=90
122760 Off ch=2 n=55 v=64
122760 Off ch=2 n=59 v=64
122760 Off ch=2 n=64 v=64
122784 On ch=2 n=55 v=90
122784 On ch=2 n=59 v=90
122784 On ch=2 n=64 v=90
122856 Off ch=2 n=55 v=64
122856 Off ch=2 n=59 v=64
122880 Off ch=2 n=64 v=64
122880 On ch=2 n=52 v=90
122880 On ch=2 n=60 v=90
122880 On ch=2 n=67 v=90
122880 On ch=2 n=55 v=90
123048 Off ch=2 n=52 v=64
123048 Off ch=2 n=60 v=64
123048 Off ch=2 n=67 v=64
123048 Off ch=2 n=55 v=64
123072 On ch=2 n=67 v=90
123072 On ch=2 n=60 v=90
123072 On ch=2 n=55 v=90
123144 Off ch=2 n=67 v=64
123144 Off ch=2 n=60 v=64
123144 Off ch=2 n=55 v=64
123168 On ch=2 n=60 v=90
123168 On ch=2 n=67 v=90
123168 On ch=2 n=55 v=90
123240 Off ch=2 n=60 v=64
123240 Off ch=2 n=67 v=64
123240 Off ch=2 n=55 v=64
123264 On ch=2 n=67 v=90
123264 On ch=2 n=60 v=90
123264 On ch=2 n=52 v=90
123264 On ch=2 n=55 v=90
123432 Off ch=2 n=67 v=64
123432 Off ch=2 n=60 v=64
123432 Off ch=2 n=52 v=64
123432 Off ch=2 n=55 v=64
123456 On ch=2 n=52 v=90
123456 On ch=2 n=67 v=90
123456 On ch=2 n=55 v=90
123816 Off ch=2 n=52 v=64
123816 Off ch=2 n=67 v=64
123816 Off ch=2 n=55 v=64
123840 On ch=2 n=55 v=90
123840 On ch=2 n=60 v=90
123840 On ch=2 n=64 v=90
124200 Off ch=2 n=55 v=64
124200 Off ch=2 n=60 v=64
124200 Off ch=2 n=64 v=64
124224 On ch=2 n=64 v=90
124224 On ch=2 n=67 v=90
124224 On ch=2 n=71 v=90
124584 Off ch=2 n=64 v=64
124584 Off ch=2 n=67 v=64
124584 Off ch=2 n=71 v=64
124608 On ch=2 n=62 v=90
124608 On ch=2 n=66 v=90
124608 On ch=2 n=69 v=90
124968 Off ch=2 n=62 v=64
124968 Off ch=2 n=66 v=64
124968 Off ch=2 n=69 v=64
124992 On ch=2 n=60 v=90
124992 On ch=2 n=64 v=90
124992 On ch=2 n=67 v=90
125160 Off ch=2 n=60 v=64
125160 Off ch=2 n=64 v=64
125160 Off ch=2 n=67 v=64
125376 On ch=2 n=69 v=90
125376 On ch=2 n=66 v=90
125376 On ch=2 n=62 v=90
125736 Off ch=2 n=69 v=64
125736 Off ch=2 n=66 v=64
125736 Off ch=2 n=62 v=64
125760 On ch=2 n=45 v=90
125928 Off ch=2 n=45 v=64
125952 On ch=2 n=48 v=90
125952 On ch=2 n=45 v=90
125952 Off ch=2 n=45 v=64
126144 On ch=2 n=52 v=90
126312 Off ch=2 n=52 v=64
126336 On ch=2 n=55 v=90
126504 Off ch=2 n=55 v=64
126528 On ch=2 n=60 v=90
126696 Off ch=2 n=48 v=64
126696 Off ch=2 n=60 v=64
126720 On ch=2 n=47 v=90
126912 On ch=2 n=50 v=90
127080 Off ch=2 n=50 v=64
127104 On ch=2 n=55 v=90
127272 Off ch=2 n=55 v=64
127296 On ch=2 n=62 v=90
127464 Off ch=2 n=47 v=64
127464 Off ch=2 n=62 v=64
127488 On ch=2 n=59 v=90
127560 Off ch=2 n=59 v=64
127584 On ch=2 n=60 v=90
127656 Off ch=2 n=60 v=64
127680 On ch=2 n=57 v=90
127848 Off ch=2 n=57 v=64
127872 On ch=2 n=45 v=90
128064 On ch=2 n=52 v=90
128232 Off ch=2 n=52 v=64
128256 On ch=2 n=57 v=90
128424 Off ch=2 n=57 v=64
128448 On ch=2 n=60 v=90
128616 Off ch=2 n=45 v=64
128616 Off ch=2 n=60 v=64
128640 On ch=2 n=45 v=90
128808 Off ch=2 n=45 v=64
128832 On ch=2 n=47 v=90
129000 Off ch=2 n=47 v=64
129024 On ch=2 n=48 v=90
129216 On ch=2 n=52 v=90
129384 Off ch=2 n=52 v=64
129408 On ch=2 n=55 v=90
129576 Off ch=2 n=55 v=64
129600 On ch=2 n=60 v=90
129768 Off ch=2 n=48 v=64
129768 Off ch=2 n=60 v=64
129792 On ch=2 n=47 v=90
129984 On ch=2 n=50 v=90
130152 Off ch=2 n=50 v=64
130176 On ch=2 n=55 v=90
130344 Off ch=2 n=47 v=64
130344 Off ch=2 n=55 v=64
130368 On ch=2 n=48 v=90
130368 On ch=2 n=41 v=90
130368 On ch=2 n=53 v=90
130368 On ch=2 n=57 v=90
130368 On ch=2 n=60 v=90
130368 On ch=2 n=64 v=90
130728 Off ch=2 n=41 v=64
130728 Off ch=2 n=48 v=64
130728 Off ch=2 n=53 v=64
130728 Off ch=2 n=57 v=64
130728 Off ch=2 n=60 v=64
130728 Off ch=2 n=64 v=64
130752 On ch=2 n=64 v=90
130752 On ch=2 n=60 v=90
130752 On ch=2 n=57 v=90
130752 On ch=2 n=52 v=90
130752 On ch=2 n=45 v=90
131688 Off ch=2 n=64 v=64
131688 Off ch=2 n=60 v=64
131688 Off ch=2 n=57 v=64
131688 Off ch=2 n=52 v=64
131688 Off ch=2 n=45 v=64
131712 On ch=2 n=45 v=90
131880 Off ch=2 n=45 v=64
131904 On ch=2 n=47 v=90
132072 Off ch=2 n=47 v=64
132096 On ch=2 n=48 v=90
132288 On ch=2 n=52 v=90
132456 Off ch=2 n=52 v=64
132480 On ch=2 n=55 v=90
132648 Off ch=2 n=55 v=64
132672 On ch=2 n=60 v=90
132840 Off ch=2 n=48 v=64
132840 Off ch=2 n=60 v=64
132864 On ch=2 n=47 v=90
133056 On ch=2 n=50 v=90
133224 Off ch=2 n=50 v=64
133248 On ch=2 n=55 v=90
133416 Off ch=2 n=55 v=64
133440 On ch=2 n=62 v=90
133608 Off ch=2 n=47 v=64
133608 Off ch=2 n=62 v=64
133632 On ch=2 n=59 v=90
133632 On ch=2 n=45 v=90
133704 Off ch=2 n=59 v=64
133728 On ch=2 n=60 v=90
133800 Off ch=2 n=60 v=64
133824 On ch=2 n=57 v=90
133992 Off ch=2 n=45 v=64
133992 Off ch=2 n=57 v=64
134016 On ch=2 n=45 v=90
134208 On ch=2 n=52 v=90
134376 Off ch=2 n=52 v=64
134400 On ch=2 n=57 v=90
134568 Off ch=2 n=57 v=64
134592 On ch=2 n=60 v=90
134760 Off ch=2 n=45 v=64
134760 Off ch=2 n=60 v=64
134784 On ch=2 n=45 v=90
134952 Off ch=2 n=45 v=64
134976 On ch=2 n=47 v=90
135144 Off ch=2 n=47 v=64
135168 On ch=2 n=48 v=90
135360 On ch=2 n=52 v=90
135528 Off ch=2 n=52 v=64
135552 On ch=2 n=55 v=90
135720 Off ch=2 n=55 v=64
135744 On ch=2 n=60 v=90
135912 Off ch=2 n=48 v=64
135912 Off ch=2 n=60 v=64
135936 On ch=2 n=47 v=90
136128 On ch=2 n=50 v=90
136296 Off ch=2 n=50 v=64
136320 On ch=2 n=55 v=90
136488 Off ch=2 n=47 v=64
136488 Off ch=2 n=55 v=64
136512 On ch=2 n=48 v=90
136512 On ch=2 n=41 v=90
136512 On ch=2 n=53 v=90
136512 On ch=2 n=57 v=90
136512 On ch=2 n=60 v=90
136512 On ch=2 n=64 v=90
136872 Off ch=2 n=41 v=64
136872 Off ch=2 n=48 v=64
136872 Off ch=2 n=53 v=64
136872 Off ch=2 n=57 v=64
136872 Off ch=2 n=60 v=64
136872 Off ch=2 n=64 v=64
136896 On ch=2 n=64 v=90
136896 On ch=2 n=60 v=90
136896 On ch=2 n=57 v=90
136896 On ch=2 n=52 v=90
136896 On ch=2 n=45 v=90
137832 Off ch=2 n=64 v=64
137832 Off ch=2 n=60 v=64
137832 Off ch=2 n=57 v=64
137832 Off ch=2 n=52 v=64
137832 Off ch=2 n=45 v=64
137856 On ch=2 n=45 v=90
138024 Off ch=2 n=45 v=64
138048 On ch=2 n=47 v=90
138216 Off ch=2 n=47 v=64
138240 On ch=2 n=48 v=90
138432 On ch=2 n=52 v=90
138600 Off ch=2 n=52 v=64
138624 On ch=2 n=55 v=90
138792 Off ch=2 n=55 v=64
138816 On ch=2 n=60 v=90
138984 Off ch=2 n=48 v=64
138984 Off ch=2 n=60 v=64
139008 On ch=2 n=47 v=90
139200 On ch=2 n=50 v=90
139368 Off ch=2 n=50 v=64
139392 On ch=2 n=55 v=90
139560 Off ch=2 n=55 v=64
139584 On ch=2 n=60 v=90
139752 Off ch=2 n=47 v=64
139944 Off ch=2 n=60 v=64
139968 On ch=2 n=67 v=90
139968 On ch=2 n=60 v=90
139968 On ch=2 n=52 v=90
139968 On ch=2 n=55 v=90
140040 Off ch=2 n=67 v=64
140040 Off ch=2 n=60 v=64
140040 Off ch=2 n=52 v=64
140040 Off ch=2 n=55 v=64
140064 On ch=2 n=60 v=90
140064 On ch=2 n=67 v=90
140064 On ch=2 n=55 v=90
140136 Off ch=2 n=60 v=64
140136 Off ch=2 n=67 v=64
140136 Off ch=2 n=55 v=64
140160 On ch=2 n=67 v=90
140160 On ch=2 n=60 v=90
140160 On ch=2 n=52 v=90
140160 On ch=2 n=55 v=90
140328 Off ch=2 n=67 v=64
140328 Off ch=2 n=60 v=64
140328 Off ch=2 n=52 v=64
140328 Off ch=2 n=55 v=64
140352 On ch=2 n=52 v=90
140352 On ch=2 n=60 v=90
140352 On ch=2 n=67 v=90
140352 On ch=2 n=55 v=90
140712 Off ch=2 n=52 v=64
140712 Off ch=2 n=60 v=64
140712 Off ch=2 n=67 v=64
140712 Off ch=2 n=55 v=64
140736 On ch=2 n=60 v=90
140736 On ch=2 n=67 v=90
140736 On ch=2 n=52 v=90
140736 On ch=2 n=55 v=90
141096 Off ch=2 n=60 v=64
141096 Off ch=2 n=67 v=64
141096 Off ch=2 n=52 v=64
141096 Off ch=2 n=55 v=64
141120 On ch=2 n=64 v=90
141120 On ch=2 n=62 v=90
141120 On ch=2 n=55 v=90
141480 Off ch=2 n=55 v=64
141480 Off ch=2 n=62 v=64
141480 Off ch=2 n=64 v=64
141504 On ch=2 n=57 v=90
141504 On ch=2 n=62 v=90
141504 On ch=2 n=66 v=90
142344 Off ch=2 n=57 v=64
142344 Off ch=2 n=62 v=64
142344 Off ch=2 n=66 v=64
142368 On ch=2 n=57 v=90
142368 On ch=2 n=62 v=90
142368 On ch=2 n=66 v=90
142440 Off ch=2 n=57 v=64
142440 Off ch=2 n=62 v=64
142440 Off ch=2 n=66 v=64
142464 On ch=2 n=57 v=90
142464 On ch=2 n=62 v=90
142464 On ch=2 n=66 v=90
142632 Off ch=2 n=57 v=64
142632 Off ch=2 n=62 v=64
142632 Off ch=2 n=66 v=64
142848 On ch=2 n=52 v=90
142848 On ch=2 n=60 v=90
142848 On ch=2 n=67 v=90
142848 On ch=2 n=55 v=90
143016 Off ch=2 n=52 v=64
143016 Off ch=2 n=60 v=64
143016 Off ch=2 n=67 v=64
143016 Off ch=2 n=55 v=64
143040 On ch=2 n=67 v=90
143040 On ch=2 n=60 v=90
143040 On ch=2 n=52 v=90
143040 On ch=2 n=55 v=90
143112 Off ch=2 n=67 v=64
143112 Off ch=2 n=60 v=64
143112 Off ch=2 n=52 v=64
143112 Off ch=2 n=55 v=64
143136 On ch=2 n=60 v=90
143136 On ch=2 n=67 v=90
143136 On ch=2 n=55 v=90
143208 Off ch=2 n=60 v=64
143208 Off ch=2 n=67 v=64
143208 Off ch=2 n=55 v=64
143232 On ch=2 n=67 v=90
143232 On ch=2 n=60 v=90
143232 On ch=2 n=52 v=90
143232 On ch=2 n=55 v=90
143400 Off ch=2 n=67 v=64
143400 Off ch=2 n=60 v=64
143400 Off ch=2 n=52 v=64
143400 Off ch=2 n=55 v=64
143424 On ch=2 n=52 v=90
143424 On ch=2 n=60 v=90
143424 On ch=2 n=67 v=90
143424 On ch=2 n=55 v=90
143592 Off ch=2 n=52 v=64
143592 Off ch=2 n=60 v=64
143592 Off ch=2 n=67 v=64
143592 Off ch=2 n=55 v=64
143808 On ch=2 n=55 v=90
143808 On ch=2 n=60 v=90
143808 On ch=2 n=64 v=90
143976 Off ch=2 n=55 v=64
143976 Off ch=2 n=60 v=64
143976 Off ch=2 n=64 v=64
144192 On ch=2 n=64 v=90
144192 On ch=2 n=67 v=90
144192 On ch=2 n=71 v=90
144360 Off ch=2 n=64 v=64
144360 Off ch=2 n=67 v=64
144360 Off ch=2 n=71 v=64
144576 On ch=2 n=62 v=90
144576 On ch=2 n=66 v=90
144576 On ch=2 n=69 v=90
144744 Off ch=2 n=62 v=64
144744 Off ch=2 n=66 v=64
144744 Off ch=2 n=69 v=64
144960 On ch=2 n=60 v=90
144960 On ch=2 n=64 v=90
144960 On ch=2 n=67 v=90
145128 Off ch=2 n=60 v=64
145128 Off ch=2 n=64 v=64
145128 Off ch=2 n=67 v=64
145344 On ch=2 n=62 v=90
145344 On ch=2 n=66 v=90
145344 On ch=2 n=69 v=90
145704 Off ch=2 n=62 v=64
145704 Off ch=2 n=66 v=64
145704 Off ch=2 n=69 v=64
145728 On ch=2 n=45 v=90
145920 On ch=2 n=60 v=90
145920 On ch=2 n=55 v=90
145920 On ch=2 n=52 v=90
145920 On ch=2 n=67 v=90
146088 Off ch=2 n=60 v=64
146088 Off ch=2 n=55 v=64
146088 Off ch=2 n=52 v=64
146088 Off ch=2 n=67 v=64
146112 On ch=2 n=67 v=90
146112 On ch=2 n=60 v=90
146112 On ch=2 n=52 v=90
146112 On ch=2 n=55 v=90
146184 Off ch=2 n=67 v=64
146184 Off ch=2 n=60 v=64
146184 Off ch=2 n=52 v=64
146184 Off ch=2 n=55 v=64
146208 On ch=2 n=60 v=90
146208 On ch=2 n=67 v=90
146208 On ch=2 n=55 v=90
146280 Off ch=2 n=60 v=64
146280 Off ch=2 n=67 v=64
146280 Off ch=2 n=55 v=64
146304 On ch=2 n=67 v=90
146304 On ch=2 n=60 v=90
146304 On ch=2 n=55 v=90
146472 Off ch=2 n=67 v=64
146472 Off ch=2 n=60 v=64
146472 Off ch=2 n=55 v=64
146496 On ch=2 n=60 v=90
146496 On ch=2 n=67 v=90
146496 On ch=2 n=55 v=90
146664 Off ch=2 n=45 v=64
146664 Off ch=2 n=60 v=64
146664 Off ch=2 n=67 v=64
146664 Off ch=2 n=55 v=64
146880 On ch=2 n=60 v=90
146880 On ch=2 n=55 v=90
146880 On ch=2 n=64 v=90
147048 Off ch=2 n=60 v=64
147048 Off ch=2 n=55 v=64
147048 Off ch=2 n=64 v=64
147264 On ch=2 n=64 v=90
147264 On ch=2 n=62 v=90
147264 On ch=2 n=55 v=90
147432 Off ch=2 n=64 v=64
147432 Off ch=2 n=62 v=64
147456 Off ch=2 n=55 v=64
147456 On ch=2 n=64 v=90
147456 On ch=2 n=62 v=90
147456 On ch=2 n=55 v=90
147456 Off ch=2 n=55 v=64
147624 Off ch=2 n=64 v=64
147624 Off ch=2 n=62 v=64
147648 On ch=2 n=57 v=90
147648 On ch=2 n=62 v=90
147648 On ch=2 n=66 v=90
148488 Off ch=2 n=57 v=64
148488 Off ch=2 n=62 v=64
148488 Off ch=2 n=66 v=64
148512 On ch=2 n=57 v=90
148512 On ch=2 n=62 v=90
148512 On ch=2 n=66 v=90
148584 Off ch=2 n=57 v=64
148584 Off ch=2 n=62 v=64
148584 Off ch=2 n=66 v=64
148608 On ch=2 n=57 v=90
148608 On ch=2 n=62 v=90
148608 On ch=2 n=66 v=90
148776 Off ch=2 n=57 v=64
148776 Off ch=2 n=62 v=64
148776 Off ch=2 n=66 v=64
148992 On ch=2 n=52 v=90
148992 On ch=2 n=60 v=90
148992 On ch=2 n=67 v=90
148992 On ch=2 n=55 v=90
149160 Off ch=2 n=52 v=64
149160 Off ch=2 n=60 v=64
149160 Off ch=2 n=67 v=64
149160 Off ch=2 n=55 v=64
149184 On ch=2 n=67 v=90
149184 On ch=2 n=60 v=90
149184 On ch=2 n=55 v=90
149256 Off ch=2 n=67 v=64
149256 Off ch=2 n=60 v=64
149256 Off ch=2 n=55 v=64
149280 On ch=2 n=60 v=90
149280 On ch=2 n=67 v=90
149280 On ch=2 n=55 v=90
149352 Off ch=2 n=60 v=64
149352 Off ch=2 n=67 v=64
149352 Off ch=2 n=55 v=64
149376 On ch=2 n=67 v=90
149376 On ch=2 n=60 v=90
149376 On ch=2 n=52 v=90
149376 On ch=2 n=55 v=90
149544 Off ch=2 n=67 v=64
149544 Off ch=2 n=60 v=64
149544 Off ch=2 n=52 v=64
149544 Off ch=2 n=55 v=64
149568 On ch=2 n=52 v=90
149568 On ch=2 n=60 v=90
149568 On ch=2 n=67 v=90
149568 On ch=2 n=55 v=90
149736 Off ch=2 n=52 v=64
149736 Off ch=2 n=60 v=64
149736 Off ch=2 n=67 v=64
149736 Off ch=2 n=55 v=64
149952 On ch=2 n=55 v=90
149952 On ch=2 n=60 v=90
149952 On ch=2 n=67 v=90
150120 Off ch=2 n=55 v=64
150120 Off ch=2 n=60 v=64
150120 Off ch=2 n=67 v=64
150336 On ch=2 n=64 v=90
150336 On ch=2 n=67 v=90
150336 On ch=2 n=71 v=90
150504 Off ch=2 n=64 v=64
150504 Off ch=2 n=67 v=64
150504 Off ch=2 n=71 v=64
150720 On ch=2 n=62 v=90
150720 On ch=2 n=66 v=90
150720 On ch=2 n=69 v=90
150888 Off ch=2 n=62 v=64
150888 Off ch=2 n=66 v=64
150888 Off ch=2 n=69 v=64
151104 On ch=2 n=60 v=90
151104 On ch=2 n=64 v=90
151104 On ch=2 n=67 v=90
151272 Off ch=2 n=60 v=64
151272 Off ch=2 n=64 v=64
151272 Off ch=2 n=67 v=64
151488 On ch=2 n=62 v=90
151488 On ch=2 n=66 v=90
151488 On ch=2 n=69 v=90
151848 Off ch=2 n=62 v=64
151848 Off ch=2 n=66 v=64
151848 Off ch=2 n=69 v=64
151872 On ch=2 n=45 v=90
152064 Off ch=2 n=45 v=64
152064 On ch=2 n=48 v=90
152064 On ch=2 n=45 v=90
152064 Off ch=2 n=45 v=64
152256 On ch=2 n=52 v=90
152424 Off ch=2 n=52 v=64
152448 On ch=2 n=55 v=90
152616 Off ch=2 n=55 v=64
152640 On ch=2 n=60 v=90
152808 Off ch=2 n=48 v=64
152808 Off ch=2 n=60 v=64
152832 On ch=2 n=47 v=90
153024 On ch=2 n=50 v=90
153192 Off ch=2 n=50 v=64
153216 On ch=2 n=55 v=90
153384 Off ch=2 n=55 v=64
153408 On ch=2 n=62 v=90
153576 Off ch=2 n=47 v=64
153576 Off ch=2 n=62 v=64
153600 On ch=2 n=59 v=90
153672 Off ch=2 n=59 v=64
153696 On ch=2 n=60 v=90
153768 Off ch=2 n=60 v=64
153792 On ch=2 n=57 v=90
153960 Off ch=2 n=57 v=64
153984 On ch=2 n=45 v=90
154176 On ch=2 n=52 v=90
154344 Off ch=2 n=52 v=64
154368 On ch=2 n=57 v=90
154536 Off ch=2 n=57 v=64
154560 On ch=2 n=60 v=90
154728 Off ch=2 n=45 v=64
154728 Off ch=2 n=60 v=64
154752 On ch=2 n=45 v=90
154920 Off ch=2 n=45 v=64
154944 On ch=2 n=47 v=90
155112 Off ch=2 n=47 v=64
155136 On ch=2 n=48 v=90
155328 On ch=2 n=52 v=90
155496 Off ch=2 n=52 v=64
155520 On ch=2 n=55 v=90
155688 Off ch=2 n=55 v=64
155712 On ch=2 n=60 v=90
155880 Off ch=2 n=48 v=64
155880 Off ch=2 n=60 v=64
155904 On ch=2 n=47 v=90
156096 On ch=2 n=50 v=90
156264 Off ch=2 n=50 v=64
156288 On ch=2 n=55 v=90
156456 Off ch=2 n=47 v=64
156456 Off ch=2 n=55 v=64
156480 On ch=2 n=48 v=90
156480 On ch=2 n=41 v=90
156480 On ch=2 n=53 v=90
156480 On ch=2 n=57 v=90
156480 On ch=2 n=60 v=90
156480 On ch=2 n=64 v=90
156840 Off ch=2 n=41 v=64
156840 Off ch=2 n=48 v=64
156840 Off ch=2 n=53 v=64
156840 Off ch=2 n=57 v=64
156840 Off ch=2 n=60 v=64
156840 Off ch=2 n=64 v=64
156864 On ch=2 n=64 v=90
156864 On ch=2 n=60 v=90
156864 On ch=2 n=57 v=90
156864 On ch=2 n=52 v=90
156864 On ch=2 n=45 v=90
157800 Off ch=2 n=64 v=64
157800 Off ch=2 n=60 v=64
157800 Off ch=2 n=57 v=64
157800 Off ch=2 n=52 v=64
157800 Off ch=2 n=45 v=64
157824 On ch=2 n=45 v=90
157992 Off ch=2 n=45 v=64
158016 On ch=2 n=47 v=90
158184 Off ch=2 n=47 v=64
158208 On ch=2 n=48 v=90
158400 On ch=2 n=52 v=90
158568 Off ch=2 n=52 v=64
158592 On ch=2 n=55 v=90
158760 Off ch=2 n=55 v=64
158784 On ch=2 n=60 v=90
158952 Off ch=2 n=48 v=64
158952 Off ch=2 n=60 v=64
158976 On ch=2 n=47 v=90
159168 On ch=2 n=50 v=90
159336 Off ch=2 n=50 v=64
159360 On ch=2 n=55 v=90
159528 Off ch=2 n=55 v=64
159552 On ch=2 n=62 v=90
159720 Off ch=2 n=47 v=64
159720 Off ch=2 n=62 v=64
159744 On ch=2 n=59 v=90
159744 On ch=2 n=45 v=90
159816 Off ch=2 n=59 v=64
159840 On ch=2 n=60 v=90
159912 Off ch=2 n=60 v=64
159936 On ch=2 n=57 v=90
160104 Off ch=2 n=45 v=64
160104 Off ch=2 n=57 v=64
160128 On ch=2 n=45 v=90
160320 On ch=2 n=52 v=90
160488 Off ch=2 n=52 v=64
160512 On ch=2 n=57 v=90
160680 Off ch=2 n=57 v=64
160704 On ch=2 n=60 v=90
160872 Off ch=2 n=45 v=64
160872 Off ch=2 n=60 v=64
160896 On ch=2 n=45 v=90
161064 Off ch=2 n=45 v=64
161088 On ch=2 n=47 v=90
161256 Off ch=2 n=47 v=64
161280 On ch=2 n=48 v=90
161472 On ch=2 n=52 v=90
161640 Off ch=2 n=52 v=64
161664 On ch=2 n=55 v=90
161832 Off ch=2 n=55 v=64
161856 On ch=2 n=60 v=90
162024 Off ch=2 n=48 v=64
162024 Off ch=2 n=60 v=64
162048 On ch=2 n=47 v=90
162240 On ch=2 n=50 v=90
162408 Off ch=2 n=50 v=64
162432 On ch=2 n=55 v=90
162600 Off ch=2 n=47 v=64
162600 Off ch=2 n=55 v=64
162624 On ch=2 n=48 v=90
162624 On ch=2 n=41 v=90
162624 On ch=2 n=53 v=90
162624 On ch=2 n=57 v=90
162624 On ch=2 n=60 v=90
162624 On ch=2 n=64 v=90
162984 Off ch=2 n=41 v=64
162984 Off ch=2 n=48 v=64
162984 Off ch=2 n=53 v=64
162984 Off ch=2 n=57 v=64
162984 Off ch=2 n=60 v=64
162984 Off ch=2 n=64 v=64
163008 On ch=2 n=64 v=90
163008 On ch=2 n=60 v=90
163008 On ch=2 n=57 v=90
163008 On ch=2 n=52 v=90
163008 On ch=2 n=45 v=90
163944 Off ch=2 n=64 v=64
163944 Off ch=2 n=60 v=64
163944 Off ch=2 n=57 v=64
163944 Off ch=2 n=52 v=64
163944 Off ch=2 n=45 v=64
163968 On ch=2 n=45 v=90
164136 Off ch=2 n=45 v=64
164160 On ch=2 n=47 v=90
164328 Off ch=2 n=47 v=64
164352 On ch=2 n=48 v=90
164544 On ch=2 n=52 v=90
164712 Off ch=2 n=52 v=64
164736 On ch=2 n=55 v=90
164904 Off ch=2 n=55 v=64
164928 On ch=2 n=60 v=90
165096 Off ch=2 n=48 v=64
165096 Off ch=2 n=60 v=64
165120 On ch=2 n=47 v=90
165312 On ch=2 n=50 v=90
165480 Off ch=2 n=50 v=64
165504 On ch=2 n=55 v=90
165672 Off ch=2 n=55 v=64
165696 On ch=2 n=59 v=90
165864 Off ch=2 n=47 v=64
165864 Off ch=2 n=59 v=64
165888 On ch=2 n=66 v=90
165888 On ch=2 n=62 v=90
165888 On ch=2 n=57 v=90
165888 On ch=2 n=50 v=90
167016 Off ch=2 n=66 v=64
167016 Off ch=2 n=62 v=64
167016 Off ch=2 n=57 v=64
167016 Off ch=2 n=50 v=64
167232 On ch=2 n=62 v=90
167232 On ch=2 n=64 v=90
167232 On ch=2 n=57 v=90
167232 On ch=2 n=50 v=90
167304 Off ch=2 n=62 v=64
167304 Off ch=2 n=64 v=64
167304 Off ch=2 n=57 v=64
167304 Off ch=2 n=50 v=64
167328 On ch=2 n=62 v=90
167328 On ch=2 n=66 v=90
167328 On ch=2 n=57 v=90
167328 On ch=2 n=50 v=90
167400 Off ch=2 n=62 v=64
167400 Off ch=2 n=66 v=64
167400 Off ch=2 n=57 v=64
167400 Off ch=2 n=50 v=64
167424 On ch=2 n=50 v=90
167424 On ch=2 n=57 v=90
167424 On ch=2 n=62 v=90
167424 On ch=2 n=67 v=90
167976 Off ch=2 n=50 v=64
167976 Off ch=2 n=57 v=64
167976 Off ch=2 n=62 v=64
167976 Off ch=2 n=67 v=64
168000 On ch=2 n=50 v=90
168000 On ch=2 n=57 v=90
168000 On ch=2 n=62 v=90
168000 On ch=2 n=64 v=90
168072 Off ch=2 n=50 v=64
168072 Off ch=2 n=57 v=64
168072 Off ch=2 n=62 v=64
168072 Off ch=2 n=64 v=64
168096 On ch=2 n=50 v=90
168096 On ch=2 n=57 v=90
168096 On ch=2 n=62 v=90
168096 On ch=2 n=66 v=90
168168 Off ch=2 n=50 v=64
168168 Off ch=2 n=57 v=64
168168 Off ch=2 n=62 v=64
168168 Off ch=2 n=66 v=64
168192 On ch=2 n=50 v=90
168192 On ch=2 n=57 v=90
168192 On ch=2 n=67 v=90
168744 Off ch=2 n=50 v=64
168744 Off ch=2 n=57 v=64
168744 Off ch=2 n=67 v=64
168768 On ch=2 n=50 v=90
168768 On ch=2 n=57 v=90
168768 On ch=2 n=64 v=90
168840 Off ch=2 n=50 v=64
168840 Off ch=2 n=57 v=64
168840 Off ch=2 n=64 v=64
168864 On ch=2 n=50 v=90
168864 On ch=2 n=57 v=90
168864 On ch=2 n=66 v=90
168960 Off ch=2 n=50 v=64
168960 Off ch=2 n=57 v=64
168960 Off ch=2 n=66 v=64
168960 On ch=2 n=50 v=90
168960 Off ch=2 n=50 v=64
168960 On ch=2 n=57 v=90
168960 Off ch=2 n=57 v=64
168960 On ch=2 n=62 v=90
168960 On ch=2 n=67 v=90
169320 Off ch=2 n=62 v=64
169320 Off ch=2 n=67 v=64
169344 On ch=2 n=67 v=90
169344 On ch=2 n=62 v=90
169344 On ch=2 n=57 v=90
169344 On ch=2 n=50 v=90
169704 Off ch=2 n=67 v=64
169704 Off ch=2 n=62 v=64
169704 Off ch=2 n=57 v=64
169704 Off ch=2 n=50 v=64
169728 On ch=2 n=50 v=90
169728 On ch=2 n=57 v=90
169728 On ch=2 n=62 v=90
169728 On ch=2 n=66 v=90
170088 Off ch=2 n=50 v=64
170088 Off ch=2 n=57 v=64
170088 Off ch=2 n=62 v=64
170088 Off ch=2 n=66 v=64
170112 On ch=2 n=48 v=90
170112 On ch=2 n=52 v=90
170112 On ch=2 n=55 v=90
170112 On ch=2 n=62 v=90
170472 Off ch=2 n=52 v=64
170472 Off ch=2 n=55 v=64
170472 Off ch=2 n=62 v=64
170496 On ch=2 n=62 v=90
170496 On ch=2 n=55 v=90
170664 Off ch=2 n=62 v=64
170664 Off ch=2 n=55 v=64
170688 On ch=2 n=55 v=90
170688 On ch=2 n=62 v=90
170688 On ch=2 n=66 v=90
170952 Off ch=2 n=55 v=64
170952 Off ch=2 n=62 v=64
170952 Off ch=2 n=66 v=64
170976 On ch=2 n=55 v=90
170976 On ch=2 n=62 v=90
170976 On ch=2 n=66 v=90
171048 Off ch=2 n=55 v=64
171048 Off ch=2 n=62 v=64
171048 Off ch=2 n=66 v=64
171072 On ch=2 n=55 v=90
171072 On ch=2 n=62 v=90
171072 On ch=2 n=66 v=90
171240 Off ch=2 n=55 v=64
171240 Off ch=2 n=62 v=64
171240 Off ch=2 n=66 v=64
171264 On ch=2 n=55 v=90
171264 On ch=2 n=62 v=90
171264 On ch=2 n=64 v=90
171624 Off ch=2 n=48 v=64
171624 Off ch=2 n=55 v=64
171624 Off ch=2 n=62 v=64
171624 Off ch=2 n=64 v=64
171648 On ch=2 n=48 v=90
171648 On ch=2 n=52 v=90
171648 On ch=2 n=55 v=90
171648 On ch=2 n=60 v=90
172008 Off ch=2 n=52 v=64
172008 Off ch=2 n=55 v=64
172008 Off ch=2 n=60 v=64
172032 On ch=2 n=55 v=90
172032 On ch=2 n=60 v=90
172200 Off ch=2 n=55 v=64
172200 Off ch=2 n=60 v=64
172224 On ch=2 n=55 v=90
172224 On ch=2 n=62 v=90
172224 On ch=2 n=66 v=90
172488 Off ch=2 n=55 v=64
172488 Off ch=2 n=62 v=64
172488 Off ch=2 n=66 v=64
172512 On ch=2 n=66 v=90
172512 On ch=2 n=62 v=90
172512 On ch=2 n=55 v=90
172584 Off ch=2 n=66 v=64
172584 Off ch=2 n=62 v=64
172584 Off ch=2 n=55 v=64
172608 On ch=2 n=55 v=90
172608 On ch=2 n=62 v=90
172608 On ch=2 n=66 v=90
172776 Off ch=2 n=55 v=64
172776 Off ch=2 n=62 v=64
172776 Off ch=2 n=66 v=64
172800 On ch=2 n=64 v=90
172808 On ch=2 n=50 v=90
172808 On ch=2 n=62 v=90
173160 Off ch=2 n=64 v=64
173168 Off ch=2 n=50 v=64
173168 Off ch=2 n=62 v=64
173184 On ch=2 n=62 v=90
173184 On ch=2 n=64 v=90
173192 On ch=2 n=50 v=90
173352 Off ch=2 n=48 v=64
173352 Off ch=2 n=62 v=64
173352 Off ch=2 n=64 v=64
173360 Off ch=2 n=50 v=64
173376 On ch=2 n=50 v=90
173376 On ch=2 n=57 v=90
173376 On ch=2 n=62 v=90
173376 On ch=2 n=64 v=90
173448 Off ch=2 n=50 v=64
173448 Off ch=2 n=57 v=64
173448 Off ch=2 n=62 v=64
173448 Off ch=2 n=64 v=64
173472 On ch=2 n=50 v=90
173472 On ch=2 n=57 v=90
173472 On ch=2 n=62 v=90
173472 On ch=2 n=66 v=90
173544 Off ch=2 n=50 v=64
173544 Off ch=2 n=57 v=64
173544 Off ch=2 n=62 v=64
173544 Off ch=2 n=66 v=64
173568 On ch=2 n=50 v=90
173568 On ch=2 n=57 v=90
173568 On ch=2 n=62 v=90
173568 On ch=2 n=67 v=90
174120 Off ch=2 n=50 v=64
174120 Off ch=2 n=57 v=64
174120 Off ch=2 n=62 v=64
174120 Off ch=2 n=67 v=64
174144 On ch=2 n=50 v=90
174144 On ch=2 n=57 v=90
174144 On ch=2 n=62 v=90
174144 On ch=2 n=64 v=90
174216 Off ch=2 n=50 v=64
174216 Off ch=2 n=57 v=64
174216 Off ch=2 n=62 v=64
174216 Off ch=2 n=64 v=64
174240 On ch=2 n=50 v=90
174240 On ch=2 n=57 v=90
174240 On ch=2 n=62 v=90
174240 On ch=2 n=66 v=90
174312 Off ch=2 n=50 v=64
174312 Off ch=2 n=57 v=64
174312 Off ch=2 n=62 v=64
174312 Off ch=2 n=66 v=64
174336 On ch=2 n=50 v=90
174336 On ch=2 n=57 v=90
174336 On ch=2 n=67 v=90
174888 Off ch=2 n=50 v=64
174888 Off ch=2 n=57 v=64
174888 Off ch=2 n=67 v=64
174912 On ch=2 n=50 v=90
174912 On ch=2 n=57 v=90
174912 On ch=2 n=64 v=90
174984 Off ch=2 n=50 v=64
174984 Off ch=2 n=57 v=64
174984 Off ch=2 n=64 v=64
175008 On ch=2 n=50 v=90
175008 On ch=2 n=57 v=90
175008 On ch=2 n=66 v=90
175104 Off ch=2 n=50 v=64
175104 Off ch=2 n=57 v=64
175104 Off ch=2 n=66 v=64
175104 On ch=2 n=50 v=90
175104 Off ch=2 n=50 v=64
175104 On ch=2 n=57 v=90
175104 Off ch=2 n=57 v=64
175104 On ch=2 n=62 v=90
175104 On ch=2 n=67 v=90
175464 Off ch=2 n=62 v=64
175464 Off ch=2 n=67 v=64
175488 On ch=2 n=67 v=90
175488 On ch=2 n=62 v=90
175488 On ch=2 n=57 v=90
175488 On ch=2 n=50 v=90
175848 Off ch=2 n=67 v=64
175848 Off ch=2 n=62 v=64
175848 Off ch=2 n=57 v=64
175848 Off ch=2 n=50 v=64
175872 On ch=2 n=50 v=90
175872 On ch=2 n=57 v=90
175872 On ch=2 n=62 v=90
175872 On ch=2 n=66 v=90
176232 Off ch=2 n=50 v=64
176232 Off ch=2 n=57 v=64
176232 Off ch=2 n=62 v=64
176232 Off ch=2 n=66 v=64
176256 On ch=2 n=59 v=90
176256 Off ch=2 n=59 v=64
176256 On ch=2 n=60 v=90
176264 On ch=2 n=64 v=90
177576 Off ch=2 n=60 v=64
177576 Off ch=2 n=64 v=64
177576 Meta TrkEnd
TrkEnd
MTrk
0 Meta TrkName "recorders 1&2       "
0 Par ch=5 c=0 v=0
0 PrCh ch=5 p=74
0 KeySig 0 major
24 PrCh ch=5 p=74
6144 On ch=5 n=72 v=90
6144 On ch=5 n=76 v=90
7656 Off ch=5 n=72 v=64
7656 Off ch=5 n=76 v=64
7680 On ch=5 n=72 v=90
7680 On ch=5 n=69 v=90
9192 Off ch=5 n=72 v=64
9192 Off ch=5 n=69 v=64
9216 On ch=5 n=72 v=90
9216 On ch=5 n=69 v=90
10728 Off ch=5 n=72 v=64
10728 Off ch=5 n=69 v=64
10752 On ch=5 n=71 v=90
10752 On ch=5 n=74 v=90
10920 Off ch=5 n=71 v=64
10920 Off ch=5 n=74 v=64
10944 On ch=5 n=72 v=90
10944 On ch=5 n=76 v=90
11112 Off ch=5 n=72 v=64
11112 Off ch=5 n=76 v=64
11136 On ch=5 n=76 v=90
11136 On ch=5 n=72 v=90
11880 Off ch=5 n=76 v=64
11880 Off ch=5 n=72 v=64
12288 On ch=5 n=72 v=90
12288 On ch=5 n=76 v=90
13032 Off ch=5 n=72 v=64
13032 Off ch=5 n=76 v=64
13056 On ch=5 n=74 v=90
13056 On ch=5 n=78 v=90
13800 Off ch=5 n=74 v=64
13800 Off ch=5 n=78 v=64
13824 On ch=5 n=77 v=90
13824 On ch=5 n=81 v=90
14184 Off ch=5 n=77 v=64
14184 Off ch=5 n=81 v=64
14208 On ch=5 n=79 v=90
14208 On ch=5 n=74 v=90
14376 Off ch=5 n=79 v=64
14400 On ch=5 n=77 v=90
14568 Off ch=5 n=74 v=64
14568 Off ch=5 n=77 v=64
14592 On ch=5 n=72 v=90
14592 On ch=5 n=76 v=90
15144 Off ch=5 n=72 v=64
15144 Off ch=5 n=76 v=64
15168 On ch=5 n=74 v=90
15168 On ch=5 n=79 v=90
15336 Off ch=5 n=74 v=64
15336 Off ch=5 n=79 v=64
15360 On ch=5 n=76 v=90
15360 On ch=5 n=79 v=90
16104 Off ch=5 n=76 v=64
16104 Off ch=5 n=79 v=64
16128 On ch=5 n=79 v=90
16128 On ch=5 n=74 v=90
16872 Off ch=5 n=74 v=64
16896 Off ch=5 n=79 v=64
16896 On ch=5 n=79 v=110
16896 Off ch=5 n=79 v=64
17088 On ch=5 n=78 v=110
17088 On ch=5 n=81 v=110
17256 Off ch=5 n=78 v=64
17256 Off ch=5 n=81 v=64
17280 On ch=5 n=81 v=110
17280 On ch=5 n=78 v=110
18024 Off ch=5 n=81 v=64
18024 Off ch=5 n=78 v=64
18432 On ch=5 n=72 v=90
18432 On ch=5 n=76 v=90
18792 Off ch=5 n=72 v=64
18792 Off ch=5 n=76 v=64
18816 On ch=5 n=76 v=90
18816 On ch=5 n=81 v=90
18984 Off ch=5 n=81 v=64
19008 On ch=5 n=79 v=90
19176 Off ch=5 n=76 v=64
19176 Off ch=5 n=79 v=64
19200 On ch=5 n=79 v=90
19200 On ch=5 n=74 v=90
19368 Off ch=5 n=79 v=64
19392 On ch=5 n=78 v=90
19560 Off ch=5 n=74 v=64
19560 Off ch=5 n=78 v=64
19584 On ch=5 n=76 v=90
19584 On ch=5 n=69 v=90
19752 Off ch=5 n=76 v=64
19776 On ch=5 n=74 v=90
19944 Off ch=5 n=74 v=64
19968 Off ch=5 n=69 v=64
19968 On ch=5 n=81 v=90
19968 On ch=5 n=77 v=90
20328 Off ch=5 n=81 v=64
20352 On ch=5 n=84 v=90
20520 Off ch=5 n=77 v=64
20520 Off ch=5 n=84 v=64
20544 On ch=5 n=83 v=90
20544 On ch=5 n=79 v=90
20712 Off ch=5 n=83 v=64
20712 Off ch=5 n=79 v=64
20736 On ch=5 n=81 v=90
20736 On ch=5 n=84 v=90
21288 Off ch=5 n=81 v=64
21288 Off ch=5 n=84 v=64
21312 On ch=5 n=86 v=90
21480 Off ch=5 n=86 v=64
21504 On ch=5 n=79 v=90
21504 On ch=5 n=88 v=90
22248 Off ch=5 n=79 v=64
22248 Off ch=5 n=88 v=64
22272 On ch=5 n=86 v=90
22272 On ch=5 n=78 v=90
23016 Off ch=5 n=86 v=64
23040 Off ch=5 n=78 v=64
23040 On ch=5 n=72 v=100
23040 On ch=5 n=79 v=100
23208 Off ch=5 n=79 v=64
23232 On ch=5 n=81 v=100
23400 Off ch=5 n=81 v=64
23424 On ch=5 n=81 v=100
24168 Off ch=5 n=72 v=64
24168 Off ch=5 n=81 v=64
30720 On ch=5 n=72 v=90
30720 On ch=5 n=76 v=90
32232 Off ch=5 n=72 v=64
32256 Off ch=5 n=76 v=64
32256 On ch=5 n=72 v=90
32256 On ch=5 n=69 v=90
33768 Off ch=5 n=72 v=64
33768 Off ch=5 n=69 v=64
33792 On ch=5 n=72 v=90
33792 On ch=5 n=69 v=90
35304 Off ch=5 n=72 v=64
35304 Off ch=5 n=69 v=64
35328 On ch=5 n=71 v=90
35328 On ch=5 n=74 v=90
35496 Off ch=5 n=71 v=64
35496 Off ch=5 n=74 v=64
35520 On ch=5 n=72 v=90
35520 On ch=5 n=76 v=90
35688 Off ch=5 n=72 v=64
35688 Off ch=5 n=76 v=64
35712 On ch=5 n=76 v=90
35712 On ch=5 n=72 v=90
36456 Off ch=5 n=76 v=64
36456 Off ch=5 n=72 v=64
46080 On ch=5 n=76 v=90
46080 On ch=5 n=79 v=90
46824 Off ch=5 n=76 v=64
46824 Off ch=5 n=79 v=64
46848 On ch=5 n=78 v=90
46848 On ch=5 n=74 v=90
47592 Off ch=5 n=78 v=64
47592 Off ch=5 n=74 v=64
47616 On ch=5 n=76 v=90
47616 On ch=5 n=79 v=90
47784 Off ch=5 n=79 v=64
47808 On ch=5 n=81 v=90
47976 Off ch=5 n=81 v=64
48000 On ch=5 n=81 v=90
48744 Off ch=5 n=76 v=64
48744 Off ch=5 n=81 v=64
49152 On ch=5 n=72 v=90
49152 On ch=5 n=76 v=90
50664 Off ch=5 n=72 v=64
50688 Off ch=5 n=76 v=64
50688 On ch=5 n=72 v=90
50688 On ch=5 n=69 v=90
52200 Off ch=5 n=72 v=64
52200 Off ch=5 n=69 v=64
52224 On ch=5 n=72 v=90
52224 On ch=5 n=69 v=90
53736 Off ch=5 n=72 v=64
53736 Off ch=5 n=69 v=64
53760 On ch=5 n=71 v=90
53760 On ch=5 n=74 v=90
53928 Off ch=5 n=71 v=64
53928 Off ch=5 n=74 v=64
53952 On ch=5 n=72 v=90
53952 On ch=5 n=76 v=90
54120 Off ch=5 n=72 v=64
54120 Off ch=5 n=76 v=64
54144 On ch=5 n=76 v=90
54144 On ch=5 n=72 v=90
54888 Off ch=5 n=76 v=64
54888 Off ch=5 n=72 v=64
55296 On ch=5 n=72 v=90
55296 On ch=5 n=76 v=90
56808 Off ch=5 n=72 v=64
56832 Off ch=5 n=76 v=64
56832 On ch=5 n=72 v=90
56832 On ch=5 n=69 v=90
58344 Off ch=5 n=72 v=64
58344 Off ch=5 n=69 v=64
58368 On ch=5 n=72 v=90
58368 On ch=5 n=69 v=90
59880 Off ch=5 n=72 v=64
59880 Off ch=5 n=69 v=64
59904 On ch=5 n=71 v=90
59904 On ch=5 n=74 v=90
60072 Off ch=5 n=71 v=64
60072 Off ch=5 n=74 v=64
60096 On ch=5 n=72 v=90
60096 On ch=5 n=76 v=90
60264 Off ch=5 n=72 v=64
60264 Off ch=5 n=76 v=64
60288 On ch=5 n=76 v=90
60288 On ch=5 n=72 v=90
61032 Off ch=5 n=76 v=64
61032 Off ch=5 n=72 v=64
61032 Meta TrkEnd
TrkEnd
MTrk
0 Meta TrkName "recorders 3&4       "
0 Par ch=5 c=0 v=0
0 PrCh ch=5 p=74
0 KeySig 0 major
24 PrCh ch=5 p=74
4608 On ch=5 n=55 v=90
4776 Off ch=5 n=55 v=64
4800 On ch=5 n=57 v=90
4968 Off ch=5 n=57 v=64
4992 On ch=5 n=57 v=90
5736 Off ch=5 n=57 v=64
6144 On ch=5 n=57 v=90
6144 On ch=5 n=64 v=90
6888 Off ch=5 n=57 v=64
6912 On ch=5 n=56 v=90
7656 Off ch=5 n=56 v=64
7680 On ch=5 n=55 v=90
8424 Off ch=5 n=64 v=64
8424 Off ch=5 n=55 v=64
8448 On ch=5 n=62 v=90
8448 On ch=5 n=54 v=90
9192 Off ch=5 n=54 v=64
9216 Off ch=5 n=62 v=64
9216 On ch=5 n=53 v=90
9216 On ch=5 n=60 v=90
10728 Off ch=5 n=60 v=64
10752 Off ch=5 n=53 v=64
10752 On ch=5 n=57 v=90
10752 On ch=5 n=67 v=90
10920 Off ch=5 n=67 v=64
10944 On ch=5 n=69 v=90
11112 Off ch=5 n=57 v=64
11112 Off ch=5 n=69 v=64
11136 On ch=5 n=57 v=90
11136 On ch=5 n=69 v=90
11880 Off ch=5 n=57 v=64
11880 Off ch=5 n=69 v=64
12288 On ch=5 n=67 v=90
12288 On ch=5 n=60 v=90
13032 Off ch=5 n=67 v=64
13032 Off ch=5 n=60 v=64
13056 On ch=5 n=62 v=90
13056 On ch=5 n=69 v=90
13800 Off ch=5 n=62 v=64
13800 Off ch=5 n=69 v=64
13824 On ch=5 n=65 v=90
13824 On ch=5 n=72 v=90
14184 Off ch=5 n=72 v=64
14208 On ch=5 n=69 v=90
14568 Off ch=5 n=65 v=64
14568 Off ch=5 n=69 v=64
14592 On ch=5 n=69 v=90
14592 On ch=5 n=57 v=90
15144 Off ch=5 n=69 v=64
15144 Off ch=5 n=57 v=64
15168 On ch=5 n=67 v=90
15168 On ch=5 n=59 v=90
15336 Off ch=5 n=67 v=64
15336 Off ch=5 n=59 v=64
15360 On ch=5 n=60 v=90
15360 On ch=5 n=67 v=90
16104 Off ch=5 n=60 v=64
16104 Off ch=5 n=67 v=64
16128 On ch=5 n=67 v=90
16128 On ch=5 n=59 v=90
16872 Off ch=5 n=59 v=64
16896 Off ch=5 n=67 v=64
16896 On ch=5 n=62 v=110
16896 On ch=5 n=71 v=110
17064 Off ch=5 n=71 v=64
17088 On ch=5 n=69 v=110
17256 Off ch=5 n=62 v=64
17256 Off ch=5 n=69 v=64
17280 On ch=5 n=69 v=110
17280 On ch=5 n=62 v=110
18024 Off ch=5 n=69 v=64
18024 Off ch=5 n=62 v=64
18432 On ch=5 n=60 v=90
18432 On ch=5 n=67 v=90
18792 Off ch=5 n=67 v=64
18816 On ch=5 n=72 v=90
18984 Off ch=5 n=72 v=64
19008 On ch=5 n=71 v=90
19176 Off ch=5 n=60 v=64
19176 Off ch=5 n=71 v=64
19200 On ch=5 n=71 v=90
19200 On ch=5 n=62 v=90
19368 Off ch=5 n=71 v=64
19392 On ch=5 n=69 v=90
19560 Off ch=5 n=69 v=64
19584 On ch=5 n=67 v=90
19752 Off ch=5 n=67 v=64
19776 On ch=5 n=66 v=90
19944 Off ch=5 n=66 v=64
19968 Off ch=5 n=62 v=64
19968 On ch=5 n=72 v=90
19968 On ch=5 n=65 v=90
20328 Off ch=5 n=72 v=64
20352 On ch=5 n=74 v=90
20520 Off ch=5 n=65 v=64
20544 On ch=5 n=67 v=90
20712 Off ch=5 n=74 v=64
20712 Off ch=5 n=67 v=64
20736 On ch=5 n=69 v=90
20736 On ch=5 n=76 v=90
21288 Off ch=5 n=69 v=64
21288 Off ch=5 n=76 v=64
21504 On ch=5 n=72 v=90
21504 On ch=5 n=60 v=90
22248 Off ch=5 n=72 v=64
22248 Off ch=5 n=60 v=64
22272 On ch=5 n=62 v=90
22272 On ch=5 n=69 v=90
23016 Off ch=5 n=69 v=64
23040 Off ch=5 n=62 v=64
23040 On ch=5 n=64 v=100
23040 On ch=5 n=53 v=100
23208 Off ch=5 n=64 v=64
23232 On ch=5 n=65 v=100
23400 Off ch=5 n=65 v=64
23424 On ch=5 n=65 v=100
24168 Off ch=5 n=53 v=64
24168 Off ch=5 n=65 v=64
24576 On ch=5 n=57 v=90
25320 Off ch=5 n=57 v=64
25344 On ch=5 n=56 v=90
26088 Off ch=5 n=56 v=64
26112 On ch=5 n=55 v=90
26856 Off ch=5 n=55 v=64
26880 On ch=5 n=54 v=90
27624 Off ch=5 n=54 v=64
27648 On ch=5 n=53 v=90
29184 Off ch=5 n=53 v=64
29184 On ch=5 n=55 v=90
29352 Off ch=5 n=55 v=64
29376 On ch=5 n=57 v=90
29544 Off ch=5 n=57 v=64
29568 On ch=5 n=57 v=90
30312 Off ch=5 n=57 v=64
30720 On ch=5 n=57 v=90
30720 On ch=5 n=64 v=90
31464 Off ch=5 n=57 v=64
31488 On ch=5 n=56 v=90
32232 Off ch=5 n=56 v=64
32256 Off ch=5 n=64 v=64
32256 On ch=5 n=55 v=90
32256 On ch=5 n=64 v=90
32256 Off ch=5 n=64 v=64
33000 Off ch=5 n=55 v=64
33024 On ch=5 n=54 v=90
33024 On ch=5 n=62 v=90
33768 Off ch=5 n=54 v=64
33768 Off ch=5 n=62 v=64
33792 On ch=5 n=60 v=90
33792 On ch=5 n=53 v=90
35304 Off ch=5 n=60 v=64
35304 Off ch=5 n=53 v=64
35328 On ch=5 n=55 v=90
35328 On ch=5 n=67 v=90
35496 Off ch=5 n=55 v=64
35496 Off ch=5 n=67 v=64
35520 On ch=5 n=57 v=90
35520 On ch=5 n=69 v=90
35688 Off ch=5 n=57 v=64
35688 Off ch=5 n=69 v=64
35712 On ch=5 n=57 v=90
35712 On ch=5 n=69 v=90
36456 Off ch=5 n=57 v=64
36456 Off ch=5 n=69 v=64
36864 On ch=5 n=60 v=90
37608 Off ch=5 n=60 v=64
37632 On ch=5 n=62 v=90
38376 Off ch=5 n=62 v=64
38400 On ch=5 n=62 v=90
38760 Off ch=5 n=62 v=64
38784 On ch=5 n=60 v=90
38952 Off ch=5 n=60 v=64
38976 On ch=5 n=59 v=90
39144 Off ch=5 n=59 v=64
39168 On ch=5 n=60 v=90
39720 Off ch=5 n=60 v=64
39744 On ch=5 n=62 v=90
39912 Off ch=5 n=62 v=64
39936 On ch=5 n=64 v=90
40680 Off ch=5 n=64 v=64
40704 On ch=5 n=62 v=90
41448 Off ch=5 n=62 v=64
41472 On ch=5 n=55 v=90
41640 Off ch=5 n=55 v=64
41664 On ch=5 n=57 v=90
41832 Off ch=5 n=57 v=64
41856 On ch=5 n=57 v=90
42600 Off ch=5 n=57 v=64
43008 On ch=5 n=60 v=90
43008 On ch=5 n=67 v=90
43368 Off ch=5 n=67 v=64
43392 On ch=5 n=72 v=90
43560 Off ch=5 n=72 v=64
43584 On ch=5 n=71 v=90
43752 Off ch=5 n=60 v=64
43752 Off ch=5 n=71 v=64
43776 On ch=5 n=71 v=90
43776 On ch=5 n=62 v=90
43944 Off ch=5 n=71 v=64
43968 On ch=5 n=69 v=90
44136 Off ch=5 n=69 v=64
44160 On ch=5 n=67 v=90
44328 Off ch=5 n=67 v=64
44352 On ch=5 n=66 v=90
44520 Off ch=5 n=62 v=64
44520 Off ch=5 n=66 v=64
44544 On ch=5 n=65 v=90
44544 On ch=5 n=69 v=90
44904 Off ch=5 n=69 v=64
44928 On ch=5 n=71 v=90
45288 Off ch=5 n=65 v=64
45288 Off ch=5 n=71 v=64
45312 On ch=5 n=72 v=90
45312 On ch=5 n=57 v=90
45672 Off ch=5 n=72 v=64
45864 Off ch=5 n=57 v=64
45888 On ch=5 n=59 v=90
46056 Off ch=5 n=59 v=64
46080 On ch=5 n=60 v=90
46080 On ch=5 n=67 v=90
46824 Off ch=5 n=60 v=64
46824 Off ch=5 n=67 v=64
46848 On ch=5 n=69 v=90
46848 On ch=5 n=62 v=90
47592 Off ch=5 n=69 v=64
47592 Off ch=5 n=62 v=64
47616 On ch=5 n=53 v=90
47616 On ch=5 n=71 v=90
47784 Off ch=5 n=71 v=64
47808 On ch=5 n=72 v=90
47976 Off ch=5 n=72 v=64
48000 On ch=5 n=72 v=90
48360 Off ch=5 n=72 v=64
48744 Off ch=5 n=53 v=64
49152 On ch=5 n=64 v=90
49152 On ch=5 n=57 v=90
49896 Off ch=5 n=57 v=64
49920 On ch=5 n=56 v=90
50664 Off ch=5 n=64 v=64
50664 Off ch=5 n=56 v=64
50688 On ch=5 n=55 v=90
50688 On ch=5 n=64 v=90
51432 Off ch=5 n=55 v=64
51432 Off ch=5 n=64 v=64
51456 On ch=5 n=62 v=90
51456 On ch=5 n=54 v=90
52200 Off ch=5 n=62 v=64
52224 Off ch=5 n=54 v=64
52224 On ch=5 n=53 v=90
52224 On ch=5 n=60 v=90
53736 Off ch=5 n=53 v=64
53736 Off ch=5 n=60 v=64
53760 On ch=5 n=55 v=90
53760 On ch=5 n=67 v=90
53928 Off ch=5 n=55 v=64
53928 Off ch=5 n=67 v=64
53952 On ch=5 n=57 v=90
53952 On ch=5 n=69 v=90
54120 Off ch=5 n=57 v=64
54120 Off ch=5 n=69 v=64
54144 On ch=5 n=57 v=90
54144 On ch=5 n=69 v=90
54888 Off ch=5 n=57 v=64
54888 Off ch=5 n=69 v=64
55296 On ch=5 n=64 v=90
55296 On ch=5 n=57 v=90
56040 Off ch=5 n=57 v=64
56064 On ch=5 n=56 v=90
56808 Off ch=5 n=64 v=64
56808 Off ch=5 n=56 v=64
56832 On ch=5 n=55 v=90
56832 On ch=5 n=64 v=90
57576 Off ch=5 n=55 v=64
57576 Off ch=5 n=64 v=64
57600 On ch=5 n=62 v=90
57600 On ch=5 n=54 v=90
58344 Off ch=5 n=62 v=64
58368 Off ch=5 n=54 v=64
58368 On ch=5 n=53 v=90
58368 On ch=5 n=60 v=90
59880 Off ch=5 n=53 v=64
59880 Off ch=5 n=60 v=64
59904 On ch=5 n=55 v=90
59904 On ch=5 n=67 v=90
60072 Off ch=5 n=55 v=64
60072 Off ch=5 n=67 v=64
60096 On ch=5 n=57 v=90
60096 On ch=5 n=69 v=90
60264 Off ch=5 n=57 v=64
60264 Off ch=5 n=69 v=64
60288 On ch=5 n=57 v=90
60288 On ch=5 n=69 v=90
61032 Off ch=5 n=57 v=64
61032 Off ch=5 n=69 v=64
61032 Meta TrkEnd
TrkEnd
MTrk
0 Meta TrkName "mute guitar         "
0 Par ch=6 c=0 v=0
0 PrCh ch=6 p=28
0 KeySig 0 major
24 PrCh ch=6 p=28
65664 On ch=6 n=55 v=72
65664 On ch=6 n=60 v=72
65664 On ch=6 n=64 v=72
65832 Off ch=6 n=55 v=64
65832 Off ch=6 n=60 v=64
65832 Off ch=6 n=64 v=64
66048 On ch=6 n=64 v=72
66048 On ch=6 n=67 v=72
66048 On ch=6 n=71 v=72
66216 Off ch=6 n=64 v=64
66216 Off ch=6 n=67 v=64
66216 Off ch=6 n=71 v=64
66432 On ch=6 n=69 v=72
66432 On ch=6 n=66 v=72
66432 On ch=6 n=62 v=72
66600 Off ch=6 n=69 v=64
66600 Off ch=6 n=66 v=64
66600 Off ch=6 n=62 v=64
66816 On ch=6 n=60 v=72
66816 On ch=6 n=67 v=72
66816 On ch=6 n=64 v=72
66984 Off ch=6 n=60 v=64
66984 Off ch=6 n=67 v=64
66984 Off ch=6 n=64 v=64
67200 On ch=6 n=62 v=72
67200 On ch=6 n=66 v=72
67200 On ch=6 n=69 v=72
67368 Off ch=6 n=62 v=64
67368 Off ch=6 n=66 v=64
67368 Off ch=6 n=69 v=64
71808 On ch=6 n=55 v=72
71808 On ch=6 n=60 v=72
71808 On ch=6 n=64 v=72
71976 Off ch=6 n=55 v=64
71976 Off ch=6 n=60 v=64
71976 Off ch=6 n=64 v=64
72192 On ch=6 n=64 v=72
72192 On ch=6 n=67 v=72
72192 On ch=6 n=71 v=72
72360 Off ch=6 n=64 v=64
72360 Off ch=6 n=67 v=64
72360 Off ch=6 n=71 v=64
72576 On ch=6 n=69 v=72
72576 On ch=6 n=66 v=72
72576 On ch=6 n=62 v=72
72744 Off ch=6 n=69 v=64
72744 Off ch=6 n=66 v=64
72744 Off ch=6 n=62 v=64
72960 On ch=6 n=60 v=72
72960 On ch=6 n=67 v=72
72960 On ch=6 n=64 v=72
73128 Off ch=6 n=60 v=64
73128 Off ch=6 n=67 v=64
73128 Off ch=6 n=64 v=64
91776 On ch=6 n=55 v=72
91776 On ch=6 n=60 v=72
91776 On ch=6 n=64 v=72
91944 Off ch=6 n=55 v=64
91944 Off ch=6 n=60 v=64
91944 Off ch=6 n=64 v=64
92160 On ch=6 n=64 v=72
92160 On ch=6 n=67 v=72
92160 On ch=6 n=71 v=72
92328 Off ch=6 n=64 v=64
92328 Off ch=6 n=67 v=64
92328 Off ch=6 n=71 v=64
92544 On ch=6 n=69 v=72
92544 On ch=6 n=66 v=72
92544 On ch=6 n=62 v=72
92712 Off ch=6 n=69 v=64
92712 Off ch=6 n=66 v=64
92712 Off ch=6 n=62 v=64
92928 On ch=6 n=60 v=72
92928 On ch=6 n=67 v=72
92928 On ch=6 n=64 v=72
93096 Off ch=6 n=60 v=64
93096 Off ch=6 n=67 v=64
93096 Off ch=6 n=64 v=64
93312 On ch=6 n=62 v=72
93312 On ch=6 n=66 v=72
93312 On ch=6 n=69 v=72
93480 Off ch=6 n=62 v=64
93480 Off ch=6 n=66 v=64
93480 Off ch=6 n=69 v=64
97920 On ch=6 n=55 v=72
97920 On ch=6 n=60 v=72
97920 On ch=6 n=64 v=72
98088 Off ch=6 n=55 v=64
98088 Off ch=6 n=60 v=64
98088 Off ch=6 n=64 v=64
98304 On ch=6 n=64 v=72
98304 On ch=6 n=67 v=72
98304 On ch=6 n=71 v=72
98472 Off ch=6 n=64 v=64
98472 Off ch=6 n=67 v=64
98472 Off ch=6 n=71 v=64
98688 On ch=6 n=69 v=72
98688 On ch=6 n=66 v=72
98688 On ch=6 n=62 v=72
98856 Off ch=6 n=69 v=64
98856 Off ch=6 n=66 v=64
98856 Off ch=6 n=62 v=64
99072 On ch=6 n=60 v=72
99072 On ch=6 n=67 v=72
99072 On ch=6 n=64 v=72
99240 Off ch=6 n=60 v=64
99240 Off ch=6 n=67 v=64
99240 Off ch=6 n=64 v=64
114432 On ch=6 n=52 v=90
114432 On ch=6 n=55 v=90
114432 On ch=6 n=60 v=90
114432 On ch=6 n=67 v=90
114600 Off ch=6 n=52 v=64
114600 Off ch=6 n=55 v=64
114600 Off ch=6 n=60 v=64
114600 Off ch=6 n=67 v=64
114816 On ch=6 n=55 v=90
114816 On ch=6 n=62 v=90
114816 On ch=6 n=64 v=90
114984 Off ch=6 n=55 v=64
114984 Off ch=6 n=62 v=64
114984 Off ch=6 n=64 v=64
115200 On ch=6 n=64 v=90
115200 On ch=6 n=62 v=90
115200 On ch=6 n=55 v=90
115368 Off ch=6 n=64 v=64
115368 Off ch=6 n=62 v=64
115368 Off ch=6 n=55 v=64
117888 On ch=6 n=55 v=90
117888 On ch=6 n=60 v=90
117888 On ch=6 n=64 v=90
118056 Off ch=6 n=55 v=64
118056 Off ch=6 n=60 v=64
118056 Off ch=6 n=64 v=64
118272 On ch=6 n=64 v=90
118272 On ch=6 n=67 v=90
118272 On ch=6 n=71 v=90
118440 Off ch=6 n=64 v=64
118440 Off ch=6 n=67 v=64
118440 Off ch=6 n=71 v=64
119040 On ch=6 n=60 v=90
119040 On ch=6 n=64 v=90
119040 On ch=6 n=67 v=90
119112 Off ch=6 n=60 v=64
119112 Off ch=6 n=64 v=64
119112 Off ch=6 n=67 v=64
119136 On ch=6 n=60 v=90
119136 On ch=6 n=64 v=90
119136 On ch=6 n=67 v=90
119184 Off ch=6 n=67 v=64
119208 Off ch=6 n=60 v=64
119208 Off ch=6 n=64 v=64
208704 Par ch=6 c=0 v=0
208728 PrCh ch=6 p=25
210624 On ch=6 n=45 v=100
210624 On ch=6 n=52 v=100
210624 On ch=6 n=57 v=100
210624 On ch=6 n=60 v=100
210624 On ch=6 n=64 v=100
210624 On ch=6 n=69 v=100
210720 Off ch=6 n=45 v=64
210720 Off ch=6 n=52 v=64
210720 Off ch=6 n=57 v=64
210720 Off ch=6 n=60 v=64
210720 Off ch=6 n=64 v=64
210720 Off ch=6 n=69 v=64
210720 On ch=6 n=45 v=100
210720 On ch=6 n=52 v=100
210720 On ch=6 n=57 v=100
210720 On ch=6 n=60 v=100
210720 On ch=6 n=64 v=100
210720 On ch=6 n=69 v=100
210816 Off ch=6 n=45 v=64
210816 Off ch=6 n=52 v=64
210816 Off ch=6 n=57 v=64
210816 Off ch=6 n=60 v=64
210816 Off ch=6 n=64 v=64
210816 Off ch=6 n=69 v=64
210816 On ch=6 n=45 v=100
210816 On ch=6 n=52 v=100
210816 On ch=6 n=57 v=100
210816 On ch=6 n=60 v=100
210816 On ch=6 n=64 v=100
210816 On ch=6 n=69 v=100
210912 Off ch=6 n=45 v=64
210912 Off ch=6 n=52 v=64
210912 Off ch=6 n=57 v=64
210912 Off ch=6 n=60 v=64
210912 Off ch=6 n=64 v=64
210912 Off ch=6 n=69 v=64
210912 On ch=6 n=52 v=100
210912 On ch=6 n=45 v=100
210912 On ch=6 n=57 v=100
210912 On ch=6 n=60 v=100
210912 On ch=6 n=64 v=100
210912 On ch=6 n=69 v=100
211008 Off ch=6 n=52 v=64
211008 Off ch=6 n=45 v=64
211008 Off ch=6 n=57 v=64
211008 Off ch=6 n=60 v=64
211008 Off ch=6 n=64 v=64
211008 Off ch=6 n=69 v=64
211392 On ch=6 n=43 v=100
211392 On ch=6 n=50 v=100
211392 On ch=6 n=55 v=100
211392 On ch=6 n=59 v=100
211392 On ch=6 n=62 v=100
211392 On ch=6 n=67 v=100
211584 Off ch=6 n=43 v=64
211584 Off ch=6 n=50 v=64
211584 Off ch=6 n=55 v=64
211584 Off ch=6 n=59 v=64
211584 Off ch=6 n=62 v=64
211584 Off ch=6 n=67 v=64
211584 On ch=6 n=43 v=100
211584 On ch=6 n=50 v=100
211584 On ch=6 n=55 v=100
211584 On ch=6 n=59 v=100
211584 On ch=6 n=62 v=100
211584 On ch=6 n=67 v=100
211776 Off ch=6 n=43 v=64
211776 Off ch=6 n=50 v=64
211776 Off ch=6 n=55 v=64
211776 Off ch=6 n=59 v=64
211776 Off ch=6 n=62 v=64
211776 Off ch=6 n=67 v=64
212064 On ch=6 n=41 v=100
212064 On ch=6 n=48 v=100
212064 On ch=6 n=53 v=100
212064 On ch=6 n=57 v=100
212064 On ch=6 n=60 v=100
212064 On ch=6 n=65 v=100
212160 Off ch=6 n=41 v=64
212160 Off ch=6 n=48 v=64
212160 Off ch=6 n=53 v=64
212160 Off ch=6 n=57 v=64
212160 Off ch=6 n=60 v=64
212160 Off ch=6 n=65 v=64
212160 On ch=6 n=41 v=100
212160 On ch=6 n=48 v=100
212160 On ch=6 n=53 v=100
212160 On ch=6 n=57 v=100
212160 On ch=6 n=60 v=100
212160 On ch=6 n=65 v=100
212256 Off ch=6 n=41 v=64
212256 Off ch=6 n=48 v=64
212256 Off ch=6 n=53 v=64
212256 Off ch=6 n=57 v=64
212256 Off ch=6 n=60 v=64
212256 Off ch=6 n=65 v=64
212256 On ch=6 n=41 v=100
212256 On ch=6 n=48 v=100
212256 On ch=6 n=53 v=100
212256 On ch=6 n=57 v=100
212256 On ch=6 n=60 v=100
212256 On ch=6 n=65 v=100
212352 Off ch=6 n=41 v=64
212352 Off ch=6 n=48 v=64
212352 Off ch=6 n=53 v=64
212352 Off ch=6 n=57 v=64
212352 Off ch=6 n=60 v=64
212352 Off ch=6 n=65 v=64
212448 On ch=6 n=41 v=100
212448 On ch=6 n=48 v=100
212448 On ch=6 n=53 v=100
212448 On ch=6 n=57 v=100
212448 On ch=6 n=60 v=100
212448 On ch=6 n=65 v=100
212544 Off ch=6 n=41 v=64
212544 Off ch=6 n=48 v=64
212544 Off ch=6 n=53 v=64
212544 Off ch=6 n=57 v=64
212544 Off ch=6 n=60 v=64
212544 Off ch=6 n=65 v=64
212544 On ch=6 n=41 v=100
212544 On ch=6 n=48 v=100
212544 On ch=6 n=53 v=100
212544 On ch=6 n=57 v=100
212544 On ch=6 n=60 v=100
212544 On ch=6 n=65 v=100
212640 Off ch=6 n=41 v=64
212640 Off ch=6 n=48 v=64
212640 Off ch=6 n=53 v=64
212640 Off ch=6 n=57 v=64
212640 Off ch=6 n=60 v=64
212640 Off ch=6 n=65 v=64
212736 On ch=6 n=65 v=100
212736 On ch=6 n=60 v=100
212736 On ch=6 n=57 v=100
212736 On ch=6 n=53 v=100
212736 On ch=6 n=48 v=100
212736 On ch=6 n=41 v=100
212832 Off ch=6 n=65 v=64
212832 Off ch=6 n=60 v=64
212832 Off ch=6 n=57 v=64
212832 Off ch=6 n=53 v=64
212832 Off ch=6 n=48 v=64
212832 Off ch=6 n=41 v=64
212832 On ch=6 n=41 v=100
212832 On ch=6 n=48 v=100
212832 On ch=6 n=53 v=100
212832 On ch=6 n=57 v=100
212832 On ch=6 n=60 v=100
212832 On ch=6 n=65 v=100
212928 Off ch=6 n=41 v=64
212928 Off ch=6 n=48 v=64
212928 Off ch=6 n=53 v=64
212928 Off ch=6 n=57 v=64
212928 Off ch=6 n=60 v=64
212928 Off ch=6 n=65 v=64
213696 On ch=6 n=45 v=100
213696 On ch=6 n=52 v=100
213696 On ch=6 n=57 v=100
213696 On ch=6 n=60 v=100
213696 On ch=6 n=64 v=100
213696 On ch=6 n=69 v=100
213792 Off ch=6 n=45 v=64
213792 Off ch=6 n=52 v=64
213792 Off ch=6 n=57 v=64
213792 Off ch=6 n=60 v=64
213792 Off ch=6 n=64 v=64
213792 Off ch=6 n=69 v=64
213792 On ch=6 n=45 v=100
213792 On ch=6 n=52 v=100
213792 On ch=6 n=57 v=100
213792 On ch=6 n=60 v=100
213792 On ch=6 n=64 v=100
213792 On ch=6 n=69 v=100
213888 Off ch=6 n=45 v=64
213888 Off ch=6 n=52 v=64
213888 Off ch=6 n=57 v=64
213888 Off ch=6 n=60 v=64
213888 Off ch=6 n=64 v=64
213888 Off ch=6 n=69 v=64
213888 On ch=6 n=45 v=100
213888 On ch=6 n=52 v=100
213888 On ch=6 n=57 v=100
213888 On ch=6 n=60 v=100
213888 On ch=6 n=64 v=100
213888 On ch=6 n=69 v=100
213984 Off ch=6 n=45 v=64
213984 Off ch=6 n=52 v=64
213984 Off ch=6 n=57 v=64
213984 Off ch=6 n=60 v=64
213984 Off ch=6 n=64 v=64
213984 Off ch=6 n=69 v=64
213984 On ch=6 n=52 v=100
213984 On ch=6 n=45 v=100
213984 On ch=6 n=57 v=100
213984 On ch=6 n=60 v=100
213984 On ch=6 n=64 v=100
213984 On ch=6 n=69 v=100
214080 Off ch=6 n=52 v=64
214080 Off ch=6 n=45 v=64
214080 Off ch=6 n=57 v=64
214080 Off ch=6 n=60 v=64
214080 Off ch=6 n=64 v=64
214080 Off ch=6 n=69 v=64
214464 On ch=6 n=43 v=100
214464 On ch=6 n=50 v=100
214464 On ch=6 n=55 v=100
214464 On ch=6 n=59 v=100
214464 On ch=6 n=62 v=100
214464 On ch=6 n=67 v=100
214656 Off ch=6 n=43 v=64
214656 Off ch=6 n=50 v=64
214656 Off ch=6 n=55 v=64
214656 Off ch=6 n=59 v=64
214656 Off ch=6 n=62 v=64
214656 Off ch=6 n=67 v=64
214656 On ch=6 n=43 v=100
214656 On ch=6 n=50 v=100
214656 On ch=6 n=55 v=100
214656 On ch=6 n=59 v=100
214656 On ch=6 n=62 v=100
214656 On ch=6 n=67 v=100
214848 Off ch=6 n=43 v=64
214848 Off ch=6 n=50 v=64
214848 Off ch=6 n=55 v=64
214848 Off ch=6 n=59 v=64
214848 Off ch=6 n=62 v=64
214848 Off ch=6 n=67 v=64
215136 On ch=6 n=41 v=100
215136 On ch=6 n=48 v=100
215136 On ch=6 n=53 v=100
215136 On ch=6 n=57 v=100
215136 On ch=6 n=60 v=100
215136 On ch=6 n=65 v=100
215232 Off ch=6 n=41 v=64
215232 Off ch=6 n=48 v=64
215232 Off ch=6 n=53 v=64
215232 Off ch=6 n=57 v=64
215232 Off ch=6 n=60 v=64
215232 Off ch=6 n=65 v=64
215232 On ch=6 n=41 v=100
215232 On ch=6 n=48 v=100
215232 On ch=6 n=53 v=100
215232 On ch=6 n=57 v=100
215232 On ch=6 n=60 v=100
215232 On ch=6 n=65 v=100
215328 Off ch=6 n=41 v=64
215328 Off ch=6 n=48 v=64
215328 Off ch=6 n=53 v=64
215328 Off ch=6 n=57 v=64
215328 Off ch=6 n=60 v=64
215328 Off ch=6 n=65 v=64
215328 On ch=6 n=41 v=100
215328 On ch=6 n=48 v=100
215328 On ch=6 n=53 v=100
215328 On ch=6 n=57 v=100
215328 On ch=6 n=60 v=100
215328 On ch=6 n=65 v=100
215424 Off ch=6 n=41 v=64
215424 Off ch=6 n=48 v=64
215424 Off ch=6 n=53 v=64
215424 Off ch=6 n=57 v=64
215424 Off ch=6 n=60 v=64
215424 Off ch=6 n=65 v=64
215520 On ch=6 n=41 v=100
215520 On ch=6 n=48 v=100
215520 On ch=6 n=53 v=100
215520 On ch=6 n=57 v=100
215520 On ch=6 n=60 v=100
215520 On ch=6 n=65 v=100
215616 Off ch=6 n=41 v=64
215616 Off ch=6 n=48 v=64
215616 Off ch=6 n=53 v=64
215616 Off ch=6 n=57 v=64
215616 Off ch=6 n=60 v=64
215616 Off ch=6 n=65 v=64
215616 On ch=6 n=41 v=100
215616 On ch=6 n=48 v=100
215616 On ch=6 n=53 v=100
215616 On ch=6 n=57 v=100
215616 On ch=6 n=60 v=100
215616 On ch=6 n=65 v=100
215712 Off ch=6 n=41 v=64
215712 Off ch=6 n=48 v=64
215712 Off ch=6 n=53 v=64
215712 Off ch=6 n=57 v=64
215712 Off ch=6 n=60 v=64
215712 Off ch=6 n=65 v=64
215808 On ch=6 n=65 v=100
215808 On ch=6 n=60 v=100
215808 On ch=6 n=57 v=100
215808 On ch=6 n=53 v=100
215808 On ch=6 n=48 v=100
215808 On ch=6 n=41 v=100
215904 Off ch=6 n=65 v=64
215904 Off ch=6 n=60 v=64
215904 Off ch=6 n=57 v=64
215904 Off ch=6 n=53 v=64
215904 Off ch=6 n=48 v=64
215904 Off ch=6 n=41 v=64
215904 On ch=6 n=41 v=100
215904 On ch=6 n=48 v=100
215904 On ch=6 n=53 v=100
215904 On ch=6 n=57 v=100
215904 On ch=6 n=60 v=100
215904 On ch=6 n=65 v=100
216000 Off ch=6 n=41 v=64
216000 Off ch=6 n=48 v=64
216000 Off ch=6 n=53 v=64
216000 Off ch=6 n=57 v=64
216000 Off ch=6 n=60 v=64
216000 Off ch=6 n=65 v=64
216384 PrCh ch=6 p=25
216768 On ch=6 n=45 v=100
216768 On ch=6 n=52 v=100
216768 On ch=6 n=57 v=100
216768 On ch=6 n=60 v=100
216768 On ch=6 n=64 v=100
216768 On ch=6 n=69 v=100
216864 Off ch=6 n=45 v=64
216864 Off ch=6 n=52 v=64
216864 Off ch=6 n=57 v=64
216864 Off ch=6 n=60 v=64
216864 Off ch=6 n=64 v=64
216864 Off ch=6 n=69 v=64
216864 On ch=6 n=45 v=100
216864 On ch=6 n=52 v=100
216864 On ch=6 n=57 v=100
216864 On ch=6 n=60 v=100
216864 On ch=6 n=64 v=100
216864 On ch=6 n=69 v=100
216960 Off ch=6 n=45 v=64
216960 Off ch=6 n=52 v=64
216960 Off ch=6 n=57 v=64
216960 Off ch=6 n=60 v=64
216960 Off ch=6 n=64 v=64
216960 Off ch=6 n=69 v=64
216960 On ch=6 n=45 v=100
216960 On ch=6 n=52 v=100
216960 On ch=6 n=57 v=100
216960 On ch=6 n=60 v=100
216960 On ch=6 n=64 v=100
216960 On ch=6 n=69 v=100
217056 Off ch=6 n=45 v=64
217056 Off ch=6 n=52 v=64
217056 Off ch=6 n=57 v=64
217056 Off ch=6 n=60 v=64
217056 Off ch=6 n=64 v=64
217056 Off ch=6 n=69 v=64
217056 On ch=6 n=52 v=100
217056 On ch=6 n=45 v=100
217056 On ch=6 n=57 v=100
217056 On ch=6 n=60 v=100
217056 On ch=6 n=64 v=100
217056 On ch=6 n=69 v=100
217152 Off ch=6 n=52 v=64
217152 Off ch=6 n=45 v=64
217152 Off ch=6 n=57 v=64
217152 Off ch=6 n=60 v=64
217152 Off ch=6 n=64 v=64
217152 Off ch=6 n=69 v=64
217536 On ch=6 n=43 v=100
217536 On ch=6 n=50 v=100
217536 On ch=6 n=55 v=100
217536 On ch=6 n=59 v=100
217536 On ch=6 n=62 v=100
217536 On ch=6 n=67 v=100
217728 Off ch=6 n=43 v=64
217728 Off ch=6 n=50 v=64
217728 Off ch=6 n=55 v=64
217728 Off ch=6 n=59 v=64
217728 Off ch=6 n=62 v=64
217728 Off ch=6 n=67 v=64
217728 On ch=6 n=43 v=100
217728 On ch=6 n=50 v=100
217728 On ch=6 n=55 v=100
217728 On ch=6 n=59 v=100
217728 On ch=6 n=62 v=100
217728 On ch=6 n=67 v=100
217920 Off ch=6 n=43 v=64
217920 Off ch=6 n=50 v=64
217920 Off ch=6 n=55 v=64
217920 Off ch=6 n=59 v=64
217920 Off ch=6 n=62 v=64
217920 Off ch=6 n=67 v=64
218208 On ch=6 n=41 v=100
218208 On ch=6 n=48 v=100
218208 On ch=6 n=53 v=100
218208 On ch=6 n=57 v=100
218208 On ch=6 n=60 v=100
218208 On ch=6 n=65 v=100
218304 Off ch=6 n=41 v=64
218304 Off ch=6 n=48 v=64
218304 Off ch=6 n=53 v=64
218304 Off ch=6 n=57 v=64
218304 Off ch=6 n=60 v=64
218304 Off ch=6 n=65 v=64
218304 On ch=6 n=41 v=100
218304 On ch=6 n=48 v=100
218304 On ch=6 n=53 v=100
218304 On ch=6 n=57 v=100
218304 On ch=6 n=60 v=100
218304 On ch=6 n=65 v=100
218400 Off ch=6 n=41 v=64
218400 Off ch=6 n=48 v=64
218400 Off ch=6 n=53 v=64
218400 Off ch=6 n=57 v=64
218400 Off ch=6 n=60 v=64
218400 Off ch=6 n=65 v=64
218400 On ch=6 n=41 v=100
218400 On ch=6 n=48 v=100
218400 On ch=6 n=53 v=100
218400 On ch=6 n=57 v=100
218400 On ch=6 n=60 v=100
218400 On ch=6 n=65 v=100
218496 Off ch=6 n=41 v=64
218496 Off ch=6 n=48 v=64
218496 Off ch=6 n=53 v=64
218496 Off ch=6 n=57 v=64
218496 Off ch=6 n=60 v=64
218496 Off ch=6 n=65 v=64
218592 On ch=6 n=41 v=100
218592 On ch=6 n=48 v=100
218592 On ch=6 n=53 v=100
218592 On ch=6 n=57 v=100
218592 On ch=6 n=60 v=100
218592 On ch=6 n=65 v=100
218688 Off ch=6 n=41 v=64
218688 Off ch=6 n=48 v=64
218688 Off ch=6 n=53 v=64
218688 Off ch=6 n=57 v=64
218688 Off ch=6 n=60 v=64
218688 Off ch=6 n=65 v=64
218688 On ch=6 n=41 v=100
218688 On ch=6 n=48 v=100
218688 On ch=6 n=53 v=100
218688 On ch=6 n=57 v=100
218688 On ch=6 n=60 v=100
218688 On ch=6 n=65 v=100
218784 Off ch=6 n=41 v=64
218784 Off ch=6 n=48 v=64
218784 Off ch=6 n=53 v=64
218784 Off ch=6 n=57 v=64
218784 Off ch=6 n=60 v=64
218784 Off ch=6 n=65 v=64
218880 On ch=6 n=65 v=100
218880 On ch=6 n=60 v=100
218880 On ch=6 n=57 v=100
218880 On ch=6 n=53 v=100
218880 On ch=6 n=48 v=100
218880 On ch=6 n=41 v=100
218976 Off ch=6 n=65 v=64
218976 Off ch=6 n=60 v=64
218976 Off ch=6 n=57 v=64
218976 Off ch=6 n=53 v=64
218976 Off ch=6 n=48 v=64
218976 Off ch=6 n=41 v=64
218976 On ch=6 n=41 v=100
218976 On ch=6 n=48 v=100
218976 On ch=6 n=53 v=100
218976 On ch=6 n=57 v=100
218976 On ch=6 n=60 v=100
218976 On ch=6 n=65 v=100
219072 Off ch=6 n=41 v=64
219072 Off ch=6 n=48 v=64
219072 Off ch=6 n=53 v=64
219072 Off ch=6 n=57 v=64
219072 Off ch=6 n=60 v=64
219072 Off ch=6 n=65 v=64
219264 On ch=6 n=41 v=100
219456 Off ch=6 n=41 v=64
219840 On ch=6 n=45 v=100
219840 On ch=6 n=52 v=100
219840 On ch=6 n=57 v=100
219840 On ch=6 n=60 v=100
219840 On ch=6 n=64 v=100
219840 On ch=6 n=69 v=100
219936 Off ch=6 n=45 v=64
219936 Off ch=6 n=52 v=64
219936 Off ch=6 n=57 v=64
219936 Off ch=6 n=60 v=64
219936 Off ch=6 n=64 v=64
219936 Off ch=6 n=69 v=64
219936 On ch=6 n=45 v=100
219936 On ch=6 n=52 v=100
219936 On ch=6 n=57 v=100
219936 On ch=6 n=60 v=100
219936 On ch=6 n=64 v=100
219936 On ch=6 n=69 v=100
220032 Off ch=6 n=45 v=64
220032 Off ch=6 n=52 v=64
220032 Off ch=6 n=57 v=64
220032 Off ch=6 n=60 v=64
220032 Off ch=6 n=64 v=64
220032 Off ch=6 n=69 v=64
220032 On ch=6 n=45 v=100
220032 On ch=6 n=52 v=100
220032 On ch=6 n=57 v=100
220032 On ch=6 n=60 v=100
220032 On ch=6 n=64 v=100
220032 On ch=6 n=69 v=100
220128 Off ch=6 n=45 v=64
220128 Off ch=6 n=52 v=64
220128 Off ch=6 n=57 v=64
220128 Off ch=6 n=60 v=64
220128 Off ch=6 n=64 v=64
220128 Off ch=6 n=69 v=64
220128 On ch=6 n=52 v=100
220128 On ch=6 n=45 v=100
220128 On ch=6 n=57 v=100
220128 On ch=6 n=60 v=100
220128 On ch=6 n=64 v=100
220128 On ch=6 n=69 v=100
220128 On ch=6 n=43 v=100
220224 Off ch=6 n=52 v=64
220224 Off ch=6 n=45 v=64
220224 Off ch=6 n=57 v=64
220224 Off ch=6 n=60 v=64
220224 Off ch=6 n=64 v=64
220224 Off ch=6 n=69 v=64
220224 Off ch=6 n=43 v=64
220608 On ch=6 n=43 v=100
220608 On ch=6 n=50 v=100
220608 On ch=6 n=55 v=100
220608 On ch=6 n=59 v=100
220608 On ch=6 n=62 v=100
220608 On ch=6 n=67 v=100
220800 Off ch=6 n=43 v=64
220800 Off ch=6 n=50 v=64
220800 Off ch=6 n=55 v=64
220800 Off ch=6 n=59 v=64
220800 Off ch=6 n=62 v=64
220800 Off ch=6 n=67 v=64
220800 On ch=6 n=43 v=100
220800 On ch=6 n=50 v=100
220800 On ch=6 n=55 v=100
220800 On ch=6 n=59 v=100
220800 On ch=6 n=62 v=100
220800 On ch=6 n=67 v=100
220992 Off ch=6 n=43 v=64
220992 Off ch=6 n=50 v=64
220992 Off ch=6 n=55 v=64
220992 Off ch=6 n=59 v=64
220992 Off ch=6 n=62 v=64
220992 Off ch=6 n=67 v=64
221280 On ch=6 n=41 v=100
221280 On ch=6 n=48 v=100
221280 On ch=6 n=53 v=100
221280 On ch=6 n=57 v=100
221280 On ch=6 n=60 v=100
221280 On ch=6 n=65 v=100
221376 Off ch=6 n=41 v=64
221376 Off ch=6 n=48 v=64
221376 Off ch=6 n=53 v=64
221376 Off ch=6 n=57 v=64
221376 Off ch=6 n=60 v=64
221376 Off ch=6 n=65 v=64
221376 On ch=6 n=41 v=100
221376 On ch=6 n=48 v=100
221376 On ch=6 n=53 v=100
221376 On ch=6 n=57 v=100
221376 On ch=6 n=60 v=100
221376 On ch=6 n=65 v=100
221472 Off ch=6 n=41 v=64
221472 Off ch=6 n=48 v=64
221472 Off ch=6 n=53 v=64
221472 Off ch=6 n=57 v=64
221472 Off ch=6 n=60 v=64
221472 Off ch=6 n=65 v=64
221472 On ch=6 n=41 v=100
221472 On ch=6 n=48 v=100
221472 On ch=6 n=53 v=100
221472 On ch=6 n=57 v=100
221472 On ch=6 n=60 v=100
221472 On ch=6 n=65 v=100
221568 Off ch=6 n=41 v=64
221568 Off ch=6 n=48 v=64
221568 Off ch=6 n=53 v=64
221568 Off ch=6 n=57 v=64
221568 Off ch=6 n=60 v=64
221568 Off ch=6 n=65 v=64
221664 On ch=6 n=41 v=100
221664 On ch=6 n=48 v=100
221664 On ch=6 n=53 v=100
221664 On ch=6 n=57 v=100
221664 On ch=6 n=60 v=100
221664 On ch=6 n=65 v=100
221760 Off ch=6 n=41 v=64
221760 Off ch=6 n=48 v=64
221760 Off ch=6 n=53 v=64
221760 Off ch=6 n=57 v=64
221760 Off ch=6 n=60 v=64
221760 Off ch=6 n=65 v=64
221760 On ch=6 n=41 v=100
221760 On ch=6 n=48 v=100
221760 On ch=6 n=53 v=100
221760 On ch=6 n=57 v=100
221760 On ch=6 n=60 v=100
221760 On ch=6 n=65 v=100
221856 Off ch=6 n=41 v=64
221856 Off ch=6 n=48 v=64
221856 Off ch=6 n=53 v=64
221856 Off ch=6 n=57 v=64
221856 Off ch=6 n=60 v=64
221856 Off ch=6 n=65 v=64
221952 On ch=6 n=65 v=100
221952 On ch=6 n=60 v=100
221952 On ch=6 n=57 v=100
221952 On ch=6 n=53 v=100
221952 On ch=6 n=48 v=100
221952 On ch=6 n=41 v=100
222048 Off ch=6 n=65 v=64
222048 Off ch=6 n=60 v=64
222048 Off ch=6 n=57 v=64
222048 Off ch=6 n=53 v=64
222048 Off ch=6 n=48 v=64
222048 Off ch=6 n=41 v=64
222048 On ch=6 n=41 v=100
222048 On ch=6 n=48 v=100
222048 On ch=6 n=53 v=100
222048 On ch=6 n=57 v=100
222048 On ch=6 n=60 v=100
222048 On ch=6 n=65 v=100
222144 Off ch=6 n=41 v=64
222144 Off ch=6 n=48 v=64
222144 Off ch=6 n=53 v=64
222144 Off ch=6 n=57 v=64
222144 Off ch=6 n=60 v=64
222144 Off ch=6 n=65 v=64
222528 PrCh ch=6 p=25
222912 On ch=6 n=45 v=100
222912 On ch=6 n=52 v=100
222912 On ch=6 n=57 v=100
222912 On ch=6 n=60 v=100
222912 On ch=6 n=64 v=100
222912 On ch=6 n=69 v=100
223008 Off ch=6 n=45 v=64
223008 Off ch=6 n=52 v=64
223008 Off ch=6 n=57 v=64
223008 Off ch=6 n=60 v=64
223008 Off ch=6 n=64 v=64
223008 Off ch=6 n=69 v=64
223008 On ch=6 n=45 v=100
223008 On ch=6 n=52 v=100
223008 On ch=6 n=57 v=100
223008 On ch=6 n=60 v=100
223008 On ch=6 n=64 v=100
223008 On ch=6 n=69 v=100
223104 Off ch=6 n=45 v=64
223104 Off ch=6 n=52 v=64
223104 Off ch=6 n=57 v=64
223104 Off ch=6 n=60 v=64
223104 Off ch=6 n=64 v=64
223104 Off ch=6 n=69 v=64
223104 On ch=6 n=45 v=100
223104 On ch=6 n=52 v=100
223104 On ch=6 n=57 v=100
223104 On ch=6 n=60 v=100
223104 On ch=6 n=64 v=100
223104 On ch=6 n=69 v=100
223200 Off ch=6 n=45 v=64
223200 Off ch=6 n=52 v=64
223200 Off ch=6 n=57 v=64
223200 Off ch=6 n=60 v=64
223200 Off ch=6 n=64 v=64
223200 Off ch=6 n=69 v=64
223200 On ch=6 n=52 v=100
223200 On ch=6 n=45 v=100
223200 On ch=6 n=57 v=100
223200 On ch=6 n=60 v=100
223200 On ch=6 n=64 v=100
223200 On ch=6 n=69 v=100
223224 On ch=6 n=43 v=100
223296 Off ch=6 n=52 v=64
223296 Off ch=6 n=45 v=64
223296 Off ch=6 n=57 v=64
223296 Off ch=6 n=60 v=64
223296 Off ch=6 n=64 v=64
223296 Off ch=6 n=69 v=64
223296 Off ch=6 n=43 v=64
223680 On ch=6 n=43 v=100
223680 On ch=6 n=50 v=100
223680 On ch=6 n=55 v=100
223680 On ch=6 n=59 v=100
223680 On ch=6 n=62 v=100
223680 On ch=6 n=67 v=100
223872 Off ch=6 n=43 v=64
223872 Off ch=6 n=50 v=64
223872 Off ch=6 n=55 v=64
223872 Off ch=6 n=59 v=64
223872 Off ch=6 n=62 v=64
223872 Off ch=6 n=67 v=64
223872 On ch=6 n=43 v=100
223872 On ch=6 n=50 v=100
223872 On ch=6 n=55 v=100
223872 On ch=6 n=59 v=100
223872 On ch=6 n=62 v=100
223872 On ch=6 n=67 v=100
224064 Off ch=6 n=43 v=64
224064 Off ch=6 n=50 v=64
224064 Off ch=6 n=55 v=64
224064 Off ch=6 n=59 v=64
224064 Off ch=6 n=62 v=64
224064 Off ch=6 n=67 v=64
224352 On ch=6 n=41 v=100
224352 On ch=6 n=48 v=100
224352 On ch=6 n=53 v=100
224352 On ch=6 n=57 v=100
224352 On ch=6 n=60 v=100
224352 On ch=6 n=65 v=100
224448 Off ch=6 n=41 v=64
224448 Off ch=6 n=48 v=64
224448 Off ch=6 n=53 v=64
224448 Off ch=6 n=57 v=64
224448 Off ch=6 n=60 v=64
224448 Off ch=6 n=65 v=64
224448 On ch=6 n=41 v=100
224448 On ch=6 n=48 v=100
224448 On ch=6 n=53 v=100
224448 On ch=6 n=57 v=100
224448 On ch=6 n=60 v=100
224448 On ch=6 n=65 v=100
224544 Off ch=6 n=41 v=64
224544 Off ch=6 n=48 v=64
224544 Off ch=6 n=53 v=64
224544 Off ch=6 n=57 v=64
224544 Off ch=6 n=60 v=64
224544 Off ch=6 n=65 v=64
224544 On ch=6 n=41 v=100
224544 On ch=6 n=48 v=100
224544 On ch=6 n=53 v=100
224544 On ch=6 n=57 v=100
224544 On ch=6 n=60 v=100
224544 On ch=6 n=65 v=100
224640 Off ch=6 n=41 v=64
224640 Off ch=6 n=48 v=64
224640 Off ch=6 n=53 v=64
224640 Off ch=6 n=57 v=64
224640 Off ch=6 n=60 v=64
224640 Off ch=6 n=65 v=64
224736 On ch=6 n=41 v=100
224736 On ch=6 n=48 v=100
224736 On ch=6 n=53 v=100
224736 On ch=6 n=57 v=100
224736 On ch=6 n=60 v=100
224736 On ch=6 n=65 v=100
224832 Off ch=6 n=41 v=64
224832 Off ch=6 n=48 v=64
224832 Off ch=6 n=53 v=64
224832 Off ch=6 n=57 v=64
224832 Off ch=6 n=60 v=64
224832 Off ch=6 n=65 v=64
224832 On ch=6 n=41 v=100
224832 On ch=6 n=48 v=100
224832 On ch=6 n=53 v=100
224832 On ch=6 n=57 v=100
224832 On ch=6 n=60 v=100
224832 On ch=6 n=65 v=100
224928 Off ch=6 n=41 v=64
224928 Off ch=6 n=48 v=64
224928 Off ch=6 n=53 v=64
224928 Off ch=6 n=57 v=64
224928 Off ch=6 n=60 v=64
224928 Off ch=6 n=65 v=64
225024 On ch=6 n=65 v=100
225024 On ch=6 n=60 v=100
225024 On ch=6 n=57 v=100
225024 On ch=6 n=53 v=100
225024 On ch=6 n=48 v=100
225024 On ch=6 n=41 v=100
225120 Off ch=6 n=65 v=64
225120 Off ch=6 n=60 v=64
225120 Off ch=6 n=57 v=64
225120 Off ch=6 n=53 v=64
225120 Off ch=6 n=48 v=64
225120 Off ch=6 n=41 v=64
225120 On ch=6 n=41 v=100
225120 On ch=6 n=48 v=100
225120 On ch=6 n=53 v=100
225120 On ch=6 n=57 v=100
225120 On ch=6 n=60 v=100
225120 On ch=6 n=65 v=100
225216 Off ch=6 n=41 v=64
225216 Off ch=6 n=48 v=64
225216 Off ch=6 n=53 v=64
225216 Off ch=6 n=57 v=64
225216 Off ch=6 n=60 v=64
225216 Off ch=6 n=65 v=64
225984 On ch=6 n=45 v=100
225984 On ch=6 n=52 v=100
225984 On ch=6 n=57 v=100
225984 On ch=6 n=60 v=100
225984 On ch=6 n=64 v=100
225984 On ch=6 n=69 v=100
226080 Off ch=6 n=45 v=64
226080 Off ch=6 n=52 v=64
226080 Off ch=6 n=57 v=64
226080 Off ch=6 n=60 v=64
226080 Off ch=6 n=64 v=64
226080 Off ch=6 n=69 v=64
226080 On ch=6 n=45 v=100
226080 On ch=6 n=52 v=100
226080 On ch=6 n=57 v=100
226080 On ch=6 n=60 v=100
226080 On ch=6 n=64 v=100
226080 On ch=6 n=69 v=100
226176 Off ch=6 n=45 v=64
226176 Off ch=6 n=52 v=64
226176 Off ch=6 n=57 v=64
226176 Off ch=6 n=60 v=64
226176 Off ch=6 n=64 v=64
226176 Off ch=6 n=69 v=64
226176 On ch=6 n=45 v=100
226176 On ch=6 n=52 v=100
226176 On ch=6 n=57 v=100
226176 On ch=6 n=60 v=100
226176 On ch=6 n=64 v=100
226176 On ch=6 n=69 v=100
226272 Off ch=6 n=45 v=64
226272 Off ch=6 n=52 v=64
226272 Off ch=6 n=57 v=64
226272 Off ch=6 n=60 v=64
226272 Off ch=6 n=64 v=64
226272 Off ch=6 n=69 v=64
226272 On ch=6 n=52 v=100
226272 On ch=6 n=45 v=100
226272 On ch=6 n=57 v=100
226272 On ch=6 n=60 v=100
226272 On ch=6 n=64 v=100
226272 On ch=6 n=69 v=100
226272 On ch=6 n=43 v=100
226368 Off ch=6 n=52 v=64
226368 Off ch=6 n=45 v=64
226368 Off ch=6 n=57 v=64
226368 Off ch=6 n=60 v=64
226368 Off ch=6 n=64 v=64
226368 Off ch=6 n=69 v=64
226368 Off ch=6 n=43 v=64
226752 On ch=6 n=43 v=100
226752 On ch=6 n=50 v=100
226752 On ch=6 n=55 v=100
226752 On ch=6 n=59 v=100
226752 On ch=6 n=62 v=100
226752 On ch=6 n=67 v=100
226944 Off ch=6 n=43 v=64
226944 Off ch=6 n=50 v=64
226944 Off ch=6 n=55 v=64
226944 Off ch=6 n=59 v=64
226944 Off ch=6 n=62 v=64
226944 Off ch=6 n=67 v=64
226944 On ch=6 n=43 v=100
226944 On ch=6 n=50 v=100
226944 On ch=6 n=55 v=100
226944 On ch=6 n=59 v=100
226944 On ch=6 n=62 v=100
226944 On ch=6 n=67 v=100
227136 Off ch=6 n=43 v=64
227136 Off ch=6 n=50 v=64
227136 Off ch=6 n=55 v=64
227136 Off ch=6 n=59 v=64
227136 Off ch=6 n=62 v=64
227136 Off ch=6 n=67 v=64
227424 On ch=6 n=41 v=100
227424 On ch=6 n=48 v=100
227424 On ch=6 n=53 v=100
227424 On ch=6 n=57 v=100
227424 On ch=6 n=60 v=100
227424 On ch=6 n=65 v=100
227520 Off ch=6 n=41 v=64
227520 Off ch=6 n=48 v=64
227520 Off ch=6 n=53 v=64
227520 Off ch=6 n=57 v=64
227520 Off ch=6 n=60 v=64
227520 Off ch=6 n=65 v=64
227520 On ch=6 n=41 v=100
227520 On ch=6 n=48 v=100
227520 On ch=6 n=53 v=100
227520 On ch=6 n=57 v=100
227520 On ch=6 n=60 v=100
227520 On ch=6 n=65 v=100
227616 Off ch=6 n=41 v=64
227616 Off ch=6 n=48 v=64
227616 Off ch=6 n=53 v=64
227616 Off ch=6 n=57 v=64
227616 Off ch=6 n=60 v=64
227616 Off ch=6 n=65 v=64
227616 On ch=6 n=41 v=100
227616 On ch=6 n=48 v=100
227616 On ch=6 n=53 v=100
227616 On ch=6 n=57 v=100
227616 On ch=6 n=60 v=100
227616 On ch=6 n=65 v=100
227712 Off ch=6 n=41 v=64
227712 Off ch=6 n=48 v=64
227712 Off ch=6 n=53 v=64
227712 Off ch=6 n=57 v=64
227712 Off ch=6 n=60 v=64
227712 Off ch=6 n=65 v=64
227808 On ch=6 n=41 v=100
227808 On ch=6 n=48 v=100
227808 On ch=6 n=53 v=100
227808 On ch=6 n=57 v=100
227808 On ch=6 n=60 v=100
227808 On ch=6 n=65 v=100
227904 Off ch=6 n=41 v=64
227904 Off ch=6 n=48 v=64
227904 Off ch=6 n=53 v=64
227904 Off ch=6 n=57 v=64
227904 Off ch=6 n=60 v=64
227904 Off ch=6 n=65 v=64
227904 On ch=6 n=41 v=100
227904 On ch=6 n=48 v=100
227904 On ch=6 n=53 v=100
227904 On ch=6 n=57 v=100
227904 On ch=6 n=60 v=100
227904 On ch=6 n=65 v=100
228000 Off ch=6 n=41 v=64
228000 Off ch=6 n=48 v=64
228000 Off ch=6 n=53 v=64
228000 Off ch=6 n=57 v=64
228000 Off ch=6 n=60 v=64
228000 Off ch=6 n=65 v=64
228096 On ch=6 n=65 v=100
228096 On ch=6 n=60 v=100
228096 On ch=6 n=57 v=100
228096 On ch=6 n=53 v=100
228096 On ch=6 n=48 v=100
228096 On ch=6 n=41 v=100
228192 Off ch=6 n=65 v=64
228192 Off ch=6 n=60 v=64
228192 Off ch=6 n=57 v=64
228192 Off ch=6 n=53 v=64
228192 Off ch=6 n=48 v=64
228192 Off ch=6 n=41 v=64
228192 On ch=6 n=41 v=100
228192 On ch=6 n=48 v=100
228192 On ch=6 n=53 v=100
228192 On ch=6 n=57 v=100
228192 On ch=6 n=60 v=100
228192 On ch=6 n=65 v=100
228288 Off ch=6 n=41 v=64
228288 Off ch=6 n=48 v=64
228288 Off ch=6 n=53 v=64
228288 Off ch=6 n=57 v=64
228288 Off ch=6 n=60 v=64
228288 Off ch=6 n=65 v=64
228672 PrCh ch=6 p=25
229056 On ch=6 n=45 v=100
229056 On ch=6 n=52 v=100
229056 On ch=6 n=57 v=100
229056 On ch=6 n=60 v=100
229056 On ch=6 n=64 v=100
229056 On ch=6 n=69 v=100
229152 Off ch=6 n=45 v=64
229152 Off ch=6 n=52 v=64
229152 Off ch=6 n=57 v=64
229152 Off ch=6 n=60 v=64
229152 Off ch=6 n=64 v=64
229152 Off ch=6 n=69 v=64
229152 On ch=6 n=45 v=100
229152 On ch=6 n=52 v=100
229152 On ch=6 n=57 v=100
229152 On ch=6 n=60 v=100
229152 On ch=6 n=64 v=100
229152 On ch=6 n=69 v=100
229248 Off ch=6 n=45 v=64
229248 Off ch=6 n=52 v=64
229248 Off ch=6 n=57 v=64
229248 Off ch=6 n=60 v=64
229248 Off ch=6 n=64 v=64
229248 Off ch=6 n=69 v=64
229248 On ch=6 n=45 v=100
229248 On ch=6 n=52 v=100
229248 On ch=6 n=57 v=100
229248 On ch=6 n=60 v=100
229248 On ch=6 n=64 v=100
229248 On ch=6 n=69 v=100
229344 Off ch=6 n=45 v=64
229344 Off ch=6 n=52 v=64
229344 Off ch=6 n=57 v=64
229344 Off ch=6 n=60 v=64
229344 Off ch=6 n=64 v=64
229344 Off ch=6 n=69 v=64
229344 On ch=6 n=52 v=100
229344 On ch=6 n=45 v=100
229344 On ch=6 n=57 v=100
229344 On ch=6 n=60 v=100
229344 On ch=6 n=64 v=100
229344 On ch=6 n=69 v=100
229368 On ch=6 n=43 v=100
229440 Off ch=6 n=52 v=64
229440 Off ch=6 n=45 v=64
229440 Off ch=6 n=57 v=64
229440 Off ch=6 n=60 v=64
229440 Off ch=6 n=64 v=64
229440 Off ch=6 n=69 v=64
229440 Off ch=6 n=43 v=64
229824 On ch=6 n=43 v=100
229824 On ch=6 n=50 v=100
229824 On ch=6 n=55 v=100
229824 On ch=6 n=59 v=100
229824 On ch=6 n=62 v=100
229824 On ch=6 n=67 v=100
230016 Off ch=6 n=43 v=64
230016 Off ch=6 n=50 v=64
230016 Off ch=6 n=55 v=64
230016 Off ch=6 n=59 v=64
230016 Off ch=6 n=62 v=64
230016 Off ch=6 n=67 v=64
230016 On ch=6 n=43 v=100
230016 On ch=6 n=50 v=100
230016 On ch=6 n=55 v=100
230016 On ch=6 n=59 v=100
230016 On ch=6 n=62 v=100
230016 On ch=6 n=67 v=100
230208 Off ch=6 n=43 v=64
230208 Off ch=6 n=50 v=64
230208 Off ch=6 n=55 v=64
230208 Off ch=6 n=59 v=64
230208 Off ch=6 n=62 v=64
230208 Off ch=6 n=67 v=64
230496 On ch=6 n=41 v=100
230496 On ch=6 n=48 v=100
230496 On ch=6 n=53 v=100
230496 On ch=6 n=57 v=100
230496 On ch=6 n=60 v=100
230496 On ch=6 n=65 v=100
230592 Off ch=6 n=41 v=64
230592 Off ch=6 n=48 v=64
230592 Off ch=6 n=53 v=64
230592 Off ch=6 n=57 v=64
230592 Off ch=6 n=60 v=64
230592 Off ch=6 n=65 v=64
230592 On ch=6 n=41 v=100
230592 On ch=6 n=48 v=100
230592 On ch=6 n=53 v=100
230592 On ch=6 n=57 v=100
230592 On ch=6 n=60 v=100
230592 On ch=6 n=65 v=100
230688 Off ch=6 n=41 v=64
230688 Off ch=6 n=48 v=64
230688 Off ch=6 n=53 v=64
230688 Off ch=6 n=57 v=64
230688 Off ch=6 n=60 v=64
230688 Off ch=6 n=65 v=64
230688 On ch=6 n=41 v=100
230688 On ch=6 n=48 v=100
230688 On ch=6 n=53 v=100
230688 On ch=6 n=57 v=100
230688 On ch=6 n=60 v=100
230688 On ch=6 n=65 v=100
230784 Off ch=6 n=41 v=64
230784 Off ch=6 n=48 v=64
230784 Off ch=6 n=53 v=64
230784 Off ch=6 n=57 v=64
230784 Off ch=6 n=60 v=64
230784 Off ch=6 n=65 v=64
230880 On ch=6 n=41 v=100
230880 On ch=6 n=48 v=100
230880 On ch=6 n=53 v=100
230880 On ch=6 n=57 v=100
230880 On ch=6 n=60 v=100
230880 On ch=6 n=65 v=100
230976 Off ch=6 n=41 v=64
230976 Off ch=6 n=48 v=64
230976 Off ch=6 n=53 v=64
230976 Off ch=6 n=57 v=64
230976 Off ch=6 n=60 v=64
230976 Off ch=6 n=65 v=64
230976 On ch=6 n=41 v=100
230976 On ch=6 n=48 v=100
230976 On ch=6 n=53 v=100
230976 On ch=6 n=57 v=100
230976 On ch=6 n=60 v=100
230976 On ch=6 n=65 v=100
231072 Off ch=6 n=41 v=64
231072 Off ch=6 n=48 v=64
231072 Off ch=6 n=53 v=64
231072 Off ch=6 n=57 v=64
231072 Off ch=6 n=60 v=64
231072 Off ch=6 n=65 v=64
231168 On ch=6 n=65 v=100
231168 On ch=6 n=60 v=100
231168 On ch=6 n=57 v=100
231168 On ch=6 n=53 v=100
231168 On ch=6 n=48 v=100
231168 On ch=6 n=41 v=100
231264 Off ch=6 n=65 v=64
231264 Off ch=6 n=60 v=64
231264 Off ch=6 n=57 v=64
231264 Off ch=6 n=53 v=64
231264 Off ch=6 n=48 v=64
231264 Off ch=6 n=41 v=64
231264 On ch=6 n=41 v=100
231264 On ch=6 n=48 v=100
231264 On ch=6 n=53 v=100
231264 On ch=6 n=57 v=100
231264 On ch=6 n=60 v=100
231264 On ch=6 n=65 v=100
231360 Off ch=6 n=41 v=64
231360 Off ch=6 n=48 v=64
231360 Off ch=6 n=53 v=64
231360 Off ch=6 n=57 v=64
231360 Off ch=6 n=60 v=64
231360 Off ch=6 n=65 v=64
234624 On ch=6 n=45 v=100
234720 Off ch=6 n=45 v=64
234720 On ch=6 n=45 v=100
234816 Off ch=6 n=45 v=64
234816 Meta TrkEnd
TrkEnd
MTrk
0 Meta TrkName "12 string guitar 2  "
0 Par ch=2 c=0 v=0
0 PrCh ch=2 p=35
0 KeySig 0 major
24 PrCh ch=2 p=25
61440 On ch=2 n=57 v=90
61440 On ch=2 n=60 v=90
61440 On ch=2 n=67 v=90
61440 On ch=2 n=64 v=90
61608 Off ch=2 n=57 v=64
61608 Off ch=2 n=60 v=64
61608 Off ch=2 n=67 v=64
61608 Off ch=2 n=64 v=64
61632 On ch=2 n=67 v=90
61632 On ch=2 n=60 v=90
61632 On ch=2 n=57 v=90
61632 On ch=2 n=64 v=90
61704 Off ch=2 n=67 v=64
61704 Off ch=2 n=60 v=64
61704 Off ch=2 n=57 v=64
61704 Off ch=2 n=64 v=64
61728 On ch=2 n=57 v=90
61728 On ch=2 n=60 v=90
61728 On ch=2 n=67 v=90
61728 On ch=2 n=64 v=90
61800 Off ch=2 n=57 v=64
61800 Off ch=2 n=60 v=64
61800 Off ch=2 n=67 v=64
61800 Off ch=2 n=64 v=64
61824 On ch=2 n=57 v=90
61824 On ch=2 n=60 v=90
61824 On ch=2 n=67 v=90
61824 On ch=2 n=64 v=90
61992 Off ch=2 n=57 v=64
61992 Off ch=2 n=60 v=64
61992 Off ch=2 n=67 v=64
61992 Off ch=2 n=64 v=64
62016 On ch=2 n=60 v=90
62016 On ch=2 n=57 v=90
62016 On ch=2 n=67 v=90
62016 On ch=2 n=64 v=90
62376 Off ch=2 n=60 v=64
62376 Off ch=2 n=57 v=64
62376 Off ch=2 n=67 v=64
62376 Off ch=2 n=64 v=64
62400 On ch=2 n=57 v=90
62400 On ch=2 n=60 v=90
62400 On ch=2 n=64 v=90
62760 Off ch=2 n=57 v=64
62760 Off ch=2 n=60 v=64
62760 Off ch=2 n=64 v=64
62784 On ch=2 n=57 v=90
62784 On ch=2 n=62 v=90
62784 On ch=2 n=64 v=90
63144 Off ch=2 n=57 v=64
63144 Off ch=2 n=62 v=64
63144 Off ch=2 n=64 v=64
63168 On ch=2 n=57 v=90
63168 On ch=2 n=62 v=90
63168 On ch=2 n=66 v=90
63552 On ch=2 n=50 v=90
63720 Off ch=2 n=57 v=64
63720 Off ch=2 n=62 v=64
63720 Off ch=2 n=66 v=64
63744 On ch=2 n=62 v=90
63912 Off ch=2 n=62 v=64
63936 On ch=2 n=62 v=90
64008 Off ch=2 n=62 v=64
64032 On ch=2 n=66 v=90
64104 Off ch=2 n=66 v=64
64128 On ch=2 n=62 v=90
64296 Off ch=2 n=62 v=64
64320 On ch=2 n=59 v=90
64320 On ch=2 n=55 v=90
64392 Off ch=2 n=59 v=64
64392 Off ch=2 n=55 v=64
64416 On ch=2 n=55 v=90
64416 On ch=2 n=59 v=90
64488 Off ch=2 n=50 v=64
64512 Off ch=2 n=55 v=64
64512 Off ch=2 n=59 v=64
64512 On ch=2 n=57 v=90
64512 On ch=2 n=60 v=90
64512 On ch=2 n=67 v=90
64512 On ch=2 n=52 v=90
64512 On ch=2 n=64 v=90
64680 Off ch=2 n=57 v=64
64680 Off ch=2 n=60 v=64
64680 Off ch=2 n=67 v=64
64680 Off ch=2 n=52 v=64
64680 Off ch=2 n=64 v=64
64704 On ch=2 n=67 v=90
64704 On ch=2 n=60 v=90
64704 On ch=2 n=57 v=90
64704 On ch=2 n=52 v=90
64704 On ch=2 n=64 v=90
64776 Off ch=2 n=67 v=64
64776 Off ch=2 n=60 v=64
64776 Off ch=2 n=57 v=64
64776 Off ch=2 n=52 v=64
64776 Off ch=2 n=64 v=64
64800 On ch=2 n=52 v=90
64800 On ch=2 n=57 v=90
64800 On ch=2 n=60 v=90
64800 On ch=2 n=67 v=90
64800 On ch=2 n=64 v=90
64872 Off ch=2 n=52 v=64
64872 Off ch=2 n=57 v=64
64872 Off ch=2 n=60 v=64
64872 Off ch=2 n=67 v=64
64872 Off ch=2 n=64 v=64
64896 On ch=2 n=67 v=90
64896 On ch=2 n=60 v=90
64896 On ch=2 n=57 v=90
64896 On ch=2 n=52 v=90
64896 On ch=2 n=64 v=90
65064 Off ch=2 n=67 v=64
65064 Off ch=2 n=60 v=64
65064 Off ch=2 n=57 v=64
65064 Off ch=2 n=52 v=64
65064 Off ch=2 n=64 v=64
65088 On ch=2 n=67 v=90
65088 On ch=2 n=60 v=90
65088 On ch=2 n=57 v=90
65088 On ch=2 n=52 v=90
65088 On ch=2 n=64 v=90
65256 Off ch=2 n=67 v=64
65256 Off ch=2 n=60 v=64
65256 Off ch=2 n=57 v=64
65256 Off ch=2 n=52 v=64
65256 Off ch=2 n=64 v=64
65280 On ch=2 n=52 v=90
65280 On ch=2 n=57 v=90
65280 On ch=2 n=60 v=90
65280 On ch=2 n=67 v=90
65280 On ch=2 n=64 v=90
65448 Off ch=2 n=52 v=64
65448 Off ch=2 n=57 v=64
65448 Off ch=2 n=60 v=64
65448 Off ch=2 n=67 v=64
65448 Off ch=2 n=64 v=64
65472 On ch=2 n=52 v=90
65472 On ch=2 n=57 v=90
65472 On ch=2 n=60 v=90
65472 On ch=2 n=64 v=90
65640 Off ch=2 n=52 v=64
65640 Off ch=2 n=57 v=64
65640 Off ch=2 n=60 v=64
65640 Off ch=2 n=64 v=64
65856 On ch=2 n=50 v=90
65856 On ch=2 n=64 v=90
65856 On ch=2 n=67 v=90
65856 On ch=2 n=71 v=90
66216 Off ch=2 n=64 v=64
66216 Off ch=2 n=67 v=64
66216 Off ch=2 n=71 v=64
66240 On ch=2 n=62 v=90
66240 On ch=2 n=66 v=90
66240 On ch=2 n=69 v=90
66624 Off ch=2 n=62 v=64
66624 Off ch=2 n=66 v=64
66624 Off ch=2 n=69 v=64
66648 On ch=2 n=60 v=90
66648 On ch=2 n=64 v=90
66648 On ch=2 n=67 v=90
67008 Off ch=2 n=60 v=64
67008 Off ch=2 n=64 v=64
67008 Off ch=2 n=67 v=64
67032 On ch=2 n=62 v=90
67032 On ch=2 n=66 v=90
67032 On ch=2 n=69 v=90
67368 Off ch=2 n=50 v=64
67368 Off ch=2 n=62 v=64
67368 Off ch=2 n=66 v=64
67368 Off ch=2 n=69 v=64
67392 On ch=2 n=45 v=90
67392 On ch=2 n=50 v=90
67536 Off ch=2 n=50 v=64
67560 Off ch=2 n=45 v=64
67584 On ch=2 n=52 v=90
67584 On ch=2 n=57 v=90
67584 On ch=2 n=60 v=90
67584 On ch=2 n=67 v=90
67752 Off ch=2 n=52 v=64
67752 Off ch=2 n=57 v=64
67752 Off ch=2 n=60 v=64
67752 Off ch=2 n=67 v=64
67776 On ch=2 n=67 v=90
67776 On ch=2 n=60 v=90
67776 On ch=2 n=57 v=90
67776 On ch=2 n=52 v=90
67848 Off ch=2 n=67 v=64
67848 Off ch=2 n=60 v=64
67848 Off ch=2 n=57 v=64
67848 Off ch=2 n=52 v=64
67872 On ch=2 n=52 v=90
67872 On ch=2 n=57 v=90
67872 On ch=2 n=60 v=90
67872 On ch=2 n=67 v=90
67944 Off ch=2 n=52 v=64
67944 Off ch=2 n=57 v=64
67944 Off ch=2 n=60 v=64
67944 Off ch=2 n=67 v=64
67968 On ch=2 n=52 v=90
67968 On ch=2 n=57 v=90
67968 On ch=2 n=60 v=90
67968 On ch=2 n=67 v=90
68136 Off ch=2 n=52 v=64
68136 Off ch=2 n=57 v=64
68136 Off ch=2 n=60 v=64
68136 Off ch=2 n=67 v=64
68160 On ch=2 n=67 v=90
68160 On ch=2 n=60 v=90
68160 On ch=2 n=57 v=90
68520 Off ch=2 n=67 v=64
68520 Off ch=2 n=60 v=64
68520 Off ch=2 n=57 v=64
68544 On ch=2 n=52 v=90
68544 On ch=2 n=57 v=90
68544 On ch=2 n=60 v=90
68544 On ch=2 n=64 v=90
68904 Off ch=2 n=52 v=64
68904 Off ch=2 n=57 v=64
68904 Off ch=2 n=60 v=64
68904 Off ch=2 n=64 v=64
68928 On ch=2 n=57 v=90
68928 On ch=2 n=62 v=90
68928 On ch=2 n=64 v=90
69288 Off ch=2 n=57 v=64
69288 Off ch=2 n=62 v=64
69288 Off ch=2 n=64 v=64
69312 On ch=2 n=57 v=90
69312 On ch=2 n=62 v=90
69312 On ch=2 n=66 v=90
69696 On ch=2 n=50 v=90
69864 Off ch=2 n=57 v=64
69864 Off ch=2 n=62 v=64
69864 Off ch=2 n=66 v=64
69888 On ch=2 n=62 v=90
70056 Off ch=2 n=62 v=64
70080 On ch=2 n=62 v=90
70152 Off ch=2 n=62 v=64
70176 On ch=2 n=66 v=90
70248 Off ch=2 n=66 v=64
70272 On ch=2 n=62 v=90
70440 Off ch=2 n=62 v=64
70464 On ch=2 n=59 v=90
70464 On ch=2 n=55 v=90
70536 Off ch=2 n=59 v=64
70536 Off ch=2 n=55 v=64
70560 On ch=2 n=55 v=90
70560 On ch=2 n=59 v=90
70632 Off ch=2 n=50 v=64
70656 Off ch=2 n=55 v=64
70656 Off ch=2 n=59 v=64
70656 On ch=2 n=52 v=90
70656 On ch=2 n=57 v=90
70656 On ch=2 n=60 v=90
70656 On ch=2 n=67 v=90
70824 Off ch=2 n=52 v=64
70824 Off ch=2 n=57 v=64
70824 Off ch=2 n=60 v=64
70824 Off ch=2 n=67 v=64
70848 On ch=2 n=67 v=90
70848 On ch=2 n=60 v=90
70848 On ch=2 n=57 v=90
70848 On ch=2 n=52 v=90
70920 Off ch=2 n=67 v=64
70920 Off ch=2 n=60 v=64
70920 Off ch=2 n=57 v=64
70920 Off ch=2 n=52 v=64
70944 On ch=2 n=52 v=90
70944 On ch=2 n=57 v=90
70944 On ch=2 n=60 v=90
70944 On ch=2 n=67 v=90
71016 Off ch=2 n=52 v=64
71016 Off ch=2 n=57 v=64
71016 Off ch=2 n=60 v=64
71016 Off ch=2 n=67 v=64
71040 On ch=2 n=52 v=90
71040 On ch=2 n=57 v=90
71040 On ch=2 n=60 v=90
71040 On ch=2 n=67 v=90
71208 Off ch=2 n=52 v=64
71208 Off ch=2 n=57 v=64
71208 Off ch=2 n=60 v=64
71208 Off ch=2 n=67 v=64
71232 On ch=2 n=52 v=90
71232 On ch=2 n=57 v=90
71232 On ch=2 n=60 v=90
71232 On ch=2 n=64 v=90
71400 Off ch=2 n=52 v=64
71400 Off ch=2 n=57 v=64
71400 Off ch=2 n=60 v=64
71400 Off ch=2 n=64 v=64
71616 On ch=2 n=52 v=90
71616 On ch=2 n=57 v=90
71616 On ch=2 n=60 v=90
71616 On ch=2 n=64 v=90
71784 Off ch=2 n=52 v=64
71784 Off ch=2 n=57 v=64
71784 Off ch=2 n=60 v=64
71784 Off ch=2 n=64 v=64
72000 On ch=2 n=64 v=90
72000 On ch=2 n=67 v=90
72000 On ch=2 n=71 v=90
72168 Off ch=2 n=64 v=64
72168 Off ch=2 n=67 v=64
72168 Off ch=2 n=71 v=64
72384 On ch=2 n=62 v=90
72384 On ch=2 n=66 v=90
72384 On ch=2 n=69 v=90
72552 Off ch=2 n=62 v=64
72552 Off ch=2 n=66 v=64
72552 Off ch=2 n=69 v=64
72768 On ch=2 n=60 v=90
72768 On ch=2 n=64 v=90
72768 On ch=2 n=67 v=90
72936 Off ch=2 n=60 v=64
72936 Off ch=2 n=64 v=64
72936 Off ch=2 n=67 v=64
73152 On ch=2 n=62 v=90
73152 On ch=2 n=66 v=90
73152 On ch=2 n=69 v=90
73704 Off ch=2 n=62 v=64
73704 Off ch=2 n=66 v=64
73728 Off ch=2 n=69 v=64
73728 On ch=2 n=48 v=90
73728 On ch=2 n=45 v=90
73728 Off ch=2 n=45 v=64
73920 On ch=2 n=52 v=90
74088 Off ch=2 n=52 v=64
74112 On ch=2 n=55 v=90
74280 Off ch=2 n=55 v=64
74304 On ch=2 n=60 v=90
74472 Off ch=2 n=48 v=64
74472 Off ch=2 n=60 v=64
74496 On ch=2 n=47 v=90
74688 On ch=2 n=50 v=90
74856 Off ch=2 n=50 v=64
74880 On ch=2 n=55 v=90
75048 Off ch=2 n=55 v=64
75072 On ch=2 n=62 v=90
75240 Off ch=2 n=47 v=64
75240 Off ch=2 n=62 v=64
75264 On ch=2 n=59 v=90
75264 Off ch=2 n=59 v=64
75264 On ch=2 n=60 v=90
75432 Off ch=2 n=60 v=64
75456 On ch=2 n=57 v=90
75624 Off ch=2 n=57 v=64
75648 On ch=2 n=45 v=90
75840 On ch=2 n=52 v=90
76008 Off ch=2 n=52 v=64
76032 On ch=2 n=57 v=90
76200 Off ch=2 n=57 v=64
76224 On ch=2 n=60 v=90
76392 Off ch=2 n=45 v=64
76392 Off ch=2 n=60 v=64
76416 On ch=2 n=45 v=90
76584 Off ch=2 n=45 v=64
76608 On ch=2 n=47 v=90
76776 Off ch=2 n=47 v=64
76800 On ch=2 n=48 v=90
76992 On ch=2 n=52 v=90
77160 Off ch=2 n=52 v=64
77184 On ch=2 n=55 v=90
77352 Off ch=2 n=55 v=64
77376 On ch=2 n=60 v=90
77544 Off ch=2 n=48 v=64
77544 Off ch=2 n=60 v=64
77568 On ch=2 n=47 v=90
77760 On ch=2 n=50 v=90
77928 Off ch=2 n=50 v=64
77952 On ch=2 n=55 v=90
78120 Off ch=2 n=47 v=64
78120 Off ch=2 n=55 v=64
78144 On ch=2 n=64 v=90
78144 On ch=2 n=59 v=90
78144 On ch=2 n=57 v=90
78144 On ch=2 n=48 v=90
78144 On ch=2 n=41 v=90
78504 Off ch=2 n=41 v=64
78504 Off ch=2 n=48 v=64
78504 Off ch=2 n=57 v=64
78504 Off ch=2 n=59 v=64
78504 Off ch=2 n=64 v=64
78528 On ch=2 n=64 v=90
78528 On ch=2 n=60 v=90
78528 On ch=2 n=57 v=90
78528 On ch=2 n=52 v=90
78528 On ch=2 n=45 v=90
79464 Off ch=2 n=64 v=64
79464 Off ch=2 n=60 v=64
79464 Off ch=2 n=57 v=64
79464 Off ch=2 n=52 v=64
79464 Off ch=2 n=45 v=64
79488 On ch=2 n=45 v=90
79656 Off ch=2 n=45 v=64
79680 On ch=2 n=47 v=90
79848 Off ch=2 n=47 v=64
79872 On ch=2 n=48 v=90
80064 On ch=2 n=52 v=90
80232 Off ch=2 n=52 v=64
80256 On ch=2 n=55 v=90
80424 Off ch=2 n=55 v=64
80448 On ch=2 n=60 v=90
80616 Off ch=2 n=48 v=64
80616 Off ch=2 n=60 v=64
80640 On ch=2 n=47 v=90
80832 On ch=2 n=50 v=90
81000 Off ch=2 n=50 v=64
81024 On ch=2 n=55 v=90
81192 Off ch=2 n=55 v=64
81216 On ch=2 n=62 v=90
81384 Off ch=2 n=47 v=64
81384 Off ch=2 n=62 v=64
81408 On ch=2 n=59 v=90
81408 On ch=2 n=45 v=90
81480 Off ch=2 n=59 v=64
81504 On ch=2 n=60 v=90
81576 Off ch=2 n=60 v=64
81600 On ch=2 n=57 v=90
81768 Off ch=2 n=45 v=64
81768 Off ch=2 n=57 v=64
81792 On ch=2 n=45 v=90
81984 On ch=2 n=52 v=90
82152 Off ch=2 n=52 v=64
82176 On ch=2 n=57 v=90
82344 Off ch=2 n=57 v=64
82368 On ch=2 n=60 v=90
82536 Off ch=2 n=45 v=64
82536 Off ch=2 n=60 v=64
82560 On ch=2 n=45 v=90
82728 Off ch=2 n=45 v=64
82752 On ch=2 n=47 v=90
82920 Off ch=2 n=47 v=64
82944 On ch=2 n=48 v=90
83136 On ch=2 n=52 v=90
83304 Off ch=2 n=52 v=64
83328 On ch=2 n=55 v=90
83496 Off ch=2 n=55 v=64
83520 On ch=2 n=60 v=90
83688 Off ch=2 n=48 v=64
83688 Off ch=2 n=60 v=64
83712 On ch=2 n=47 v=90
83904 On ch=2 n=50 v=90
84072 Off ch=2 n=50 v=64
84096 On ch=2 n=55 v=90
84264 Off ch=2 n=47 v=64
84264 Off ch=2 n=55 v=64
84288 On ch=2 n=48 v=90
84288 On ch=2 n=41 v=90
84288 On ch=2 n=53 v=90
84288 On ch=2 n=57 v=90
84288 On ch=2 n=60 v=90
84288 On ch=2 n=64 v=90
84648 Off ch=2 n=41 v=64
84648 Off ch=2 n=48 v=64
84648 Off ch=2 n=53 v=64
84648 Off ch=2 n=57 v=64
84648 Off ch=2 n=60 v=64
84648 Off ch=2 n=64 v=64
84672 On ch=2 n=64 v=90
84672 On ch=2 n=60 v=90
84672 On ch=2 n=57 v=90
84672 On ch=2 n=52 v=90
84672 On ch=2 n=45 v=90
85608 Off ch=2 n=64 v=64
85608 Off ch=2 n=60 v=64
85608 Off ch=2 n=57 v=64
85608 Off ch=2 n=52 v=64
85608 Off ch=2 n=45 v=64
85632 On ch=2 n=45 v=90
85800 Off ch=2 n=45 v=64
85824 On ch=2 n=47 v=90
85992 Off ch=2 n=47 v=64
86016 On ch=2 n=48 v=90
86208 On ch=2 n=52 v=90
86376 Off ch=2 n=52 v=64
86400 On ch=2 n=55 v=90
86568 Off ch=2 n=55 v=64
86592 On ch=2 n=60 v=90
86760 Off ch=2 n=48 v=64
86760 Off ch=2 n=60 v=64
86784 On ch=2 n=47 v=90
86976 On ch=2 n=50 v=90
87144 Off ch=2 n=50 v=64
87168 On ch=2 n=55 v=90
87336 Off ch=2 n=55 v=64
87360 On ch=2 n=62 v=90
87528 Off ch=2 n=47 v=64
87528 Off ch=2 n=62 v=64
87552 On ch=2 n=52 v=90
87552 On ch=2 n=57 v=90
87552 On ch=2 n=60 v=90
87552 On ch=2 n=67 v=90
87720 Off ch=2 n=52 v=64
87720 Off ch=2 n=57 v=64
87720 Off ch=2 n=60 v=64
87720 Off ch=2 n=67 v=64
87744 On ch=2 n=67 v=90
87744 On ch=2 n=60 v=90
87744 On ch=2 n=57 v=90
87744 On ch=2 n=52 v=90
87816 Off ch=2 n=67 v=64
87816 Off ch=2 n=60 v=64
87816 Off ch=2 n=57 v=64
87816 Off ch=2 n=52 v=64
87840 On ch=2 n=52 v=90
87840 On ch=2 n=57 v=90
87840 On ch=2 n=60 v=90
87840 On ch=2 n=67 v=90
87912 Off ch=2 n=52 v=64
87912 Off ch=2 n=57 v=64
87912 Off ch=2 n=60 v=64
87912 Off ch=2 n=67 v=64
87936 On ch=2 n=52 v=90
87936 On ch=2 n=57 v=90
87936 On ch=2 n=60 v=90
87936 On ch=2 n=67 v=90
88104 Off ch=2 n=52 v=64
88104 Off ch=2 n=57 v=64
88104 Off ch=2 n=60 v=64
88104 Off ch=2 n=67 v=64
88128 On ch=2 n=67 v=90
88128 On ch=2 n=57 v=90
88488 Off ch=2 n=67 v=64
88488 Off ch=2 n=57 v=64
88512 On ch=2 n=52 v=90
88512 On ch=2 n=57 v=90
88512 On ch=2 n=60 v=90
88512 On ch=2 n=64 v=90
88872 Off ch=2 n=52 v=64
88872 Off ch=2 n=57 v=64
88872 Off ch=2 n=60 v=64
88872 Off ch=2 n=64 v=64
88896 On ch=2 n=57 v=90
88896 On ch=2 n=62 v=90
88896 On ch=2 n=64 v=90
89256 Off ch=2 n=57 v=64
89256 Off ch=2 n=62 v=64
89256 Off ch=2 n=64 v=64
89280 On ch=2 n=57 v=90
89280 On ch=2 n=62 v=90
89280 On ch=2 n=66 v=90
89664 On ch=2 n=50 v=90
89832 Off ch=2 n=57 v=64
89832 Off ch=2 n=62 v=64
89832 Off ch=2 n=66 v=64
89856 On ch=2 n=62 v=90
90024 Off ch=2 n=62 v=64
90048 On ch=2 n=62 v=90
90120 Off ch=2 n=62 v=64
90144 On ch=2 n=66 v=90
90216 Off ch=2 n=66 v=64
90240 On ch=2 n=62 v=90
90408 Off ch=2 n=62 v=64
90432 On ch=2 n=59 v=90
90432 On ch=2 n=55 v=90
90504 Off ch=2 n=59 v=64
90504 Off ch=2 n=55 v=64
90528 On ch=2 n=55 v=90
90528 On ch=2 n=59 v=90
90600 Off ch=2 n=50 v=64
90624 Off ch=2 n=55 v=64
90624 Off ch=2 n=59 v=64
90624 On ch=2 n=57 v=90
90624 On ch=2 n=60 v=90
90624 On ch=2 n=67 v=90
90624 On ch=2 n=52 v=90
90792 Off ch=2 n=57 v=64
90792 Off ch=2 n=60 v=64
90792 Off ch=2 n=67 v=64
90792 Off ch=2 n=52 v=64
90816 On ch=2 n=67 v=90
90816 On ch=2 n=60 v=90
90816 On ch=2 n=57 v=90
90816 On ch=2 n=52 v=90
90888 Off ch=2 n=67 v=64
90888 Off ch=2 n=60 v=64
90888 Off ch=2 n=57 v=64
90888 Off ch=2 n=52 v=64
90912 On ch=2 n=52 v=90
90912 On ch=2 n=57 v=90
90912 On ch=2 n=60 v=90
90912 On ch=2 n=67 v=90
90984 Off ch=2 n=52 v=64
90984 Off ch=2 n=57 v=64
90984 Off ch=2 n=60 v=64
90984 Off ch=2 n=67 v=64
91008 On ch=2 n=67 v=90
91008 On ch=2 n=60 v=90
91008 On ch=2 n=57 v=90
91008 On ch=2 n=52 v=90
91176 Off ch=2 n=67 v=64
91176 Off ch=2 n=60 v=64
91176 Off ch=2 n=57 v=64
91176 Off ch=2 n=52 v=64
91200 On ch=2 n=67 v=90
91200 On ch=2 n=60 v=90
91200 On ch=2 n=57 v=90
91200 On ch=2 n=52 v=90
91368 Off ch=2 n=67 v=64
91368 Off ch=2 n=60 v=64
91368 Off ch=2 n=57 v=64
91368 Off ch=2 n=52 v=64
91392 On ch=2 n=52 v=90
91392 On ch=2 n=57 v=90
91392 On ch=2 n=60 v=90
91392 On ch=2 n=67 v=90
91560 Off ch=2 n=52 v=64
91560 Off ch=2 n=57 v=64
91560 Off ch=2 n=60 v=64
91560 Off ch=2 n=67 v=64
91584 On ch=2 n=52 v=90
91584 On ch=2 n=57 v=90
91584 On ch=2 n=60 v=90
91584 On ch=2 n=64 v=90
91752 Off ch=2 n=52 v=64
91752 Off ch=2 n=57 v=64
91752 Off ch=2 n=60 v=64
91752 Off ch=2 n=64 v=64
91968 On ch=2 n=50 v=90
91968 On ch=2 n=64 v=90
91968 On ch=2 n=67 v=90
91968 On ch=2 n=71 v=90
92328 Off ch=2 n=64 v=64
92328 Off ch=2 n=67 v=64
92328 Off ch=2 n=71 v=64
92352 On ch=2 n=62 v=90
92352 On ch=2 n=66 v=90
92352 On ch=2 n=69 v=90
92736 Off ch=2 n=62 v=64
92736 Off ch=2 n=66 v=64
92736 Off ch=2 n=69 v=64
92760 On ch=2 n=60 v=90
92760 On ch=2 n=64 v=90
92760 On ch=2 n=67 v=90
93120 Off ch=2 n=60 v=64
93120 Off ch=2 n=64 v=64
93120 Off ch=2 n=67 v=64
93144 On ch=2 n=62 v=90
93144 On ch=2 n=66 v=90
93144 On ch=2 n=69 v=90
93480 Off ch=2 n=50 v=64
93480 Off ch=2 n=62 v=64
93480 Off ch=2 n=66 v=64
93480 Off ch=2 n=69 v=64
93504 On ch=2 n=45 v=90
93504 On ch=2 n=50 v=90
93672 Off ch=2 n=45 v=64
93672 Off ch=2 n=50 v=64
93696 On ch=2 n=52 v=90
93696 On ch=2 n=57 v=90
93696 On ch=2 n=60 v=90
93696 On ch=2 n=67 v=90
93864 Off ch=2 n=52 v=64
93864 Off ch=2 n=57 v=64
93864 Off ch=2 n=60 v=64
93864 Off ch=2 n=67 v=64
93888 On ch=2 n=67 v=90
93888 On ch=2 n=60 v=90
93888 On ch=2 n=57 v=90
93888 On ch=2 n=52 v=90
93960 Off ch=2 n=67 v=64
93960 Off ch=2 n=60 v=64
93960 Off ch=2 n=57 v=64
93960 Off ch=2 n=52 v=64
93984 On ch=2 n=52 v=90
93984 On ch=2 n=57 v=90
93984 On ch=2 n=60 v=90
93984 On ch=2 n=67 v=90
94056 Off ch=2 n=52 v=64
94056 Off ch=2 n=57 v=64
94056 Off ch=2 n=60 v=64
94056 Off ch=2 n=67 v=64
94080 On ch=2 n=52 v=90
94080 On ch=2 n=57 v=90
94080 On ch=2 n=60 v=90
94080 On ch=2 n=67 v=90
94248 Off ch=2 n=52 v=64
94248 Off ch=2 n=57 v=64
94248 Off ch=2 n=60 v=64
94248 Off ch=2 n=67 v=64
94272 On ch=2 n=67 v=90
94272 On ch=2 n=57 v=90
94272 On ch=2 n=60 v=64
94632 Off ch=2 n=67 v=64
94632 Off ch=2 n=57 v=64
94632 Off ch=2 n=60 v=64
94656 On ch=2 n=52 v=90
94656 On ch=2 n=57 v=90
94656 On ch=2 n=60 v=90
94656 On ch=2 n=64 v=90
95016 Off ch=2 n=52 v=64
95016 Off ch=2 n=57 v=64
95016 Off ch=2 n=60 v=64
95016 Off ch=2 n=64 v=64
95040 On ch=2 n=57 v=90
95040 On ch=2 n=62 v=90
95040 On ch=2 n=64 v=90
95400 Off ch=2 n=57 v=64
95400 Off ch=2 n=62 v=64
95400 Off ch=2 n=64 v=64
95424 On ch=2 n=57 v=90
95424 On ch=2 n=62 v=90
95424 On ch=2 n=66 v=90
95808 On ch=2 n=50 v=90
95976 Off ch=2 n=57 v=64
95976 Off ch=2 n=62 v=64
95976 Off ch=2 n=66 v=64
96000 On ch=2 n=62 v=90
96168 Off ch=2 n=62 v=64
96192 On ch=2 n=62 v=90
96264 Off ch=2 n=62 v=64
96288 On ch=2 n=66 v=90
96360 Off ch=2 n=66 v=64
96384 On ch=2 n=62 v=90
96552 Off ch=2 n=62 v=64
96576 On ch=2 n=59 v=90
96576 On ch=2 n=55 v=90
96648 Off ch=2 n=59 v=64
96648 Off ch=2 n=55 v=64
96672 On ch=2 n=55 v=90
96672 On ch=2 n=59 v=90
96744 Off ch=2 n=50 v=64
96768 Off ch=2 n=55 v=64
96768 Off ch=2 n=59 v=64
96768 On ch=2 n=52 v=90
96768 On ch=2 n=57 v=90
96768 On ch=2 n=60 v=90
96768 On ch=2 n=67 v=90
96936 Off ch=2 n=52 v=64
96936 Off ch=2 n=57 v=64
96936 Off ch=2 n=60 v=64
96936 Off ch=2 n=67 v=64
96960 On ch=2 n=67 v=90
96960 On ch=2 n=60 v=90
96960 On ch=2 n=57 v=90
96960 On ch=2 n=52 v=90
97032 Off ch=2 n=67 v=64
97032 Off ch=2 n=60 v=64
97032 Off ch=2 n=57 v=64
97032 Off ch=2 n=52 v=64
97056 On ch=2 n=52 v=90
97056 On ch=2 n=57 v=90
97056 On ch=2 n=60 v=90
97056 On ch=2 n=67 v=90
97128 Off ch=2 n=52 v=64
97128 Off ch=2 n=57 v=64
97128 Off ch=2 n=60 v=64
97128 Off ch=2 n=67 v=64
97152 On ch=2 n=52 v=90
97152 On ch=2 n=57 v=90
97152 On ch=2 n=60 v=90
97152 On ch=2 n=67 v=90
97320 Off ch=2 n=52 v=64
97320 Off ch=2 n=57 v=64
97320 Off ch=2 n=60 v=64
97320 Off ch=2 n=67 v=64
97344 On ch=2 n=57 v=90
97344 On ch=2 n=60 v=90
97344 On ch=2 n=64 v=90
97512 Off ch=2 n=57 v=64
97512 Off ch=2 n=60 v=64
97512 Off ch=2 n=64 v=64
97728 On ch=2 n=52 v=90
97728 On ch=2 n=57 v=90
97728 On ch=2 n=60 v=90
97728 On ch=2 n=64 v=90
97896 Off ch=2 n=52 v=64
97896 Off ch=2 n=57 v=64
97896 Off ch=2 n=60 v=64
97896 Off ch=2 n=64 v=64
98112 On ch=2 n=64 v=90
98112 On ch=2 n=67 v=90
98112 On ch=2 n=71 v=90
98280 Off ch=2 n=64 v=64
98280 Off ch=2 n=67 v=64
98280 Off ch=2 n=71 v=64
98496 On ch=2 n=62 v=90
98496 On ch=2 n=66 v=90
98496 On ch=2 n=69 v=90
98664 Off ch=2 n=62 v=64
98664 Off ch=2 n=66 v=64
98664 Off ch=2 n=69 v=64
98880 On ch=2 n=60 v=90
98880 On ch=2 n=64 v=90
98880 On ch=2 n=67 v=90
99048 Off ch=2 n=60 v=64
99048 Off ch=2 n=64 v=64
99048 Off ch=2 n=67 v=64
99264 On ch=2 n=62 v=90
99264 On ch=2 n=66 v=90
99264 On ch=2 n=69 v=90
99816 Off ch=2 n=62 v=64
99816 Off ch=2 n=66 v=64
99840 Off ch=2 n=69 v=64
99840 On ch=2 n=48 v=90
99840 On ch=2 n=45 v=90
99840 Off ch=2 n=45 v=64
100032 On ch=2 n=52 v=90
100200 Off ch=2 n=52 v=64
100224 On ch=2 n=55 v=90
100392 Off ch=2 n=55 v=64
100416 On ch=2 n=60 v=90
100584 Off ch=2 n=48 v=64
100584 Off ch=2 n=60 v=64
100608 On ch=2 n=47 v=90
100800 On ch=2 n=50 v=90
100968 Off ch=2 n=50 v=64
100992 On ch=2 n=55 v=90
101160 Off ch=2 n=55 v=64
101184 On ch=2 n=62 v=90
101352 Off ch=2 n=47 v=64
101352 Off ch=2 n=62 v=64
101376 On ch=2 n=59 v=90
101376 Off ch=2 n=59 v=64
101376 On ch=2 n=60 v=90
101544 Off ch=2 n=60 v=64
101568 On ch=2 n=57 v=90
101736 Off ch=2 n=57 v=64
101760 On ch=2 n=45 v=90
101952 On ch=2 n=52 v=90
102120 Off ch=2 n=52 v=64
102144 On ch=2 n=57 v=90
102312 Off ch=2 n=57 v=64
102336 On ch=2 n=60 v=90
102504 Off ch=2 n=45 v=64
102504 Off ch=2 n=60 v=64
102528 On ch=2 n=45 v=90
102696 Off ch=2 n=45 v=64
102720 On ch=2 n=47 v=90
102888 Off ch=2 n=47 v=64
102912 On ch=2 n=48 v=90
103104 On ch=2 n=52 v=90
103272 Off ch=2 n=52 v=64
103296 On ch=2 n=55 v=90
103464 Off ch=2 n=55 v=64
103488 On ch=2 n=60 v=90
103656 Off ch=2 n=48 v=64
103656 Off ch=2 n=60 v=64
103680 On ch=2 n=47 v=90
103872 On ch=2 n=50 v=90
104040 Off ch=2 n=50 v=64
104064 On ch=2 n=55 v=90
104232 Off ch=2 n=47 v=64
104232 Off ch=2 n=55 v=64
104256 On ch=2 n=64 v=90
104256 On ch=2 n=59 v=90
104256 On ch=2 n=57 v=90
104256 On ch=2 n=48 v=90
104256 On ch=2 n=41 v=90
104616 Off ch=2 n=41 v=64
104616 Off ch=2 n=48 v=64
104616 Off ch=2 n=57 v=64
104616 Off ch=2 n=59 v=64
104616 Off ch=2 n=64 v=64
104640 On ch=2 n=64 v=90
104640 On ch=2 n=60 v=90
104640 On ch=2 n=57 v=90
104640 On ch=2 n=52 v=90
104640 On ch=2 n=45 v=90
105576 Off ch=2 n=64 v=64
105576 Off ch=2 n=60 v=64
105576 Off ch=2 n=57 v=64
105576 Off ch=2 n=52 v=64
105576 Off ch=2 n=45 v=64
105600 On ch=2 n=45 v=90
105768 Off ch=2 n=45 v=64
105792 On ch=2 n=47 v=90
105960 Off ch=2 n=47 v=64
105984 On ch=2 n=48 v=90
106176 On ch=2 n=52 v=90
106344 Off ch=2 n=52 v=64
106368 On ch=2 n=55 v=90
106536 Off ch=2 n=55 v=64
106560 On ch=2 n=60 v=90
106728 Off ch=2 n=48 v=64
106728 Off ch=2 n=60 v=64
106752 On ch=2 n=47 v=90
106944 On ch=2 n=50 v=90
107112 Off ch=2 n=50 v=64
107136 On ch=2 n=55 v=90
107304 Off ch=2 n=55 v=64
107328 On ch=2 n=62 v=90
107496 Off ch=2 n=47 v=64
107496 Off ch=2 n=62 v=64
107520 On ch=2 n=59 v=90
107520 On ch=2 n=45 v=90
107592 Off ch=2 n=59 v=64
107616 On ch=2 n=60 v=90
107688 Off ch=2 n=60 v=64
107712 On ch=2 n=57 v=90
107880 Off ch=2 n=45 v=64
107880 Off ch=2 n=57 v=64
107904 On ch=2 n=45 v=90
108096 On ch=2 n=52 v=90
108264 Off ch=2 n=52 v=64
108288 On ch=2 n=57 v=90
108456 Off ch=2 n=57 v=64
108480 On ch=2 n=60 v=90
108648 Off ch=2 n=45 v=64
108648 Off ch=2 n=60 v=64
108672 On ch=2 n=45 v=90
108840 Off ch=2 n=45 v=64
108864 On ch=2 n=47 v=90
109032 Off ch=2 n=47 v=64
109056 On ch=2 n=48 v=90
109248 On ch=2 n=52 v=90
109416 Off ch=2 n=52 v=64
109440 On ch=2 n=55 v=90
109608 Off ch=2 n=55 v=64
109632 On ch=2 n=60 v=90
109800 Off ch=2 n=48 v=64
109800 Off ch=2 n=60 v=64
109824 On ch=2 n=47 v=90
110016 On ch=2 n=50 v=90
110184 Off ch=2 n=50 v=64
110208 On ch=2 n=55 v=90
110376 Off ch=2 n=47 v=64
110376 Off ch=2 n=55 v=64
110400 On ch=2 n=48 v=90
110400 On ch=2 n=41 v=90
110400 On ch=2 n=53 v=90
110400 On ch=2 n=57 v=90
110400 On ch=2 n=60 v=90
110400 On ch=2 n=64 v=90
110760 Off ch=2 n=41 v=64
110760 Off ch=2 n=48 v=64
110760 Off ch=2 n=53 v=64
110760 Off ch=2 n=57 v=64
110760 Off ch=2 n=60 v=64
110760 Off ch=2 n=64 v=64
110784 On ch=2 n=64 v=90
110784 On ch=2 n=60 v=90
110784 On ch=2 n=57 v=90
110784 On ch=2 n=52 v=90
110784 On ch=2 n=45 v=90
111720 Off ch=2 n=64 v=64
111720 Off ch=2 n=60 v=64
111720 Off ch=2 n=57 v=64
111720 Off ch=2 n=52 v=64
111720 Off ch=2 n=45 v=64
111744 On ch=2 n=45 v=90
111912 Off ch=2 n=45 v=64
111936 On ch=2 n=47 v=90
112104 Off ch=2 n=47 v=64
112128 On ch=2 n=48 v=90
112320 On ch=2 n=52 v=90
112488 Off ch=2 n=52 v=64
112512 On ch=2 n=55 v=90
112680 Off ch=2 n=55 v=64
112704 On ch=2 n=60 v=90
112872 Off ch=2 n=48 v=64
112872 Off ch=2 n=60 v=64
112896 On ch=2 n=47 v=90
113088 On ch=2 n=50 v=90
113256 Off ch=2 n=50 v=64
113280 On ch=2 n=55 v=90
113448 Off ch=2 n=55 v=64
113472 On ch=2 n=62 v=90
113640 Off ch=2 n=47 v=64
113640 Off ch=2 n=62 v=64
113664 On ch=2 n=52 v=90
113664 On ch=2 n=57 v=90
113664 On ch=2 n=60 v=90
113664 On ch=2 n=67 v=90
113832 Off ch=2 n=52 v=64
113832 Off ch=2 n=57 v=64
113832 Off ch=2 n=60 v=64
113832 Off ch=2 n=67 v=64
113856 On ch=2 n=67 v=90
113856 On ch=2 n=60 v=90
113856 On ch=2 n=57 v=90
113856 On ch=2 n=52 v=90
113928 Off ch=2 n=67 v=64
113928 Off ch=2 n=60 v=64
113928 Off ch=2 n=57 v=64
113928 Off ch=2 n=52 v=64
113952 On ch=2 n=52 v=90
113952 On ch=2 n=57 v=90
113952 On ch=2 n=67 v=90
114024 Off ch=2 n=52 v=64
114024 Off ch=2 n=57 v=64
114024 Off ch=2 n=67 v=64
114048 On ch=2 n=67 v=90
114048 On ch=2 n=60 v=90
114048 On ch=2 n=57 v=90
114048 On ch=2 n=52 v=90
114216 Off ch=2 n=67 v=64
114216 Off ch=2 n=60 v=64
114216 Off ch=2 n=57 v=64
114216 Off ch=2 n=52 v=64
114240 On ch=2 n=57 v=90
114240 On ch=2 n=67 v=90
114408 Off ch=2 n=57 v=64
114408 Off ch=2 n=67 v=64
114624 On ch=2 n=55 v=90
114624 On ch=2 n=60 v=90
114624 On ch=2 n=64 v=90
114792 Off ch=2 n=55 v=64
114792 Off ch=2 n=60 v=64
114792 Off ch=2 n=64 v=64
115008 On ch=2 n=64 v=90
115008 On ch=2 n=62 v=90
115008 On ch=2 n=55 v=90
115176 Off ch=2 n=64 v=64
115176 Off ch=2 n=62 v=64
115176 Off ch=2 n=55 v=64
115392 On ch=2 n=57 v=90
115392 On ch=2 n=62 v=90
115392 On ch=2 n=66 v=90
115944 Off ch=2 n=57 v=64
115944 Off ch=2 n=62 v=64
115944 Off ch=2 n=66 v=64
115968 On ch=2 n=57 v=90
115968 On ch=2 n=62 v=90
115968 On ch=2 n=66 v=90
116136 Off ch=2 n=57 v=64
116136 Off ch=2 n=62 v=64
116136 Off ch=2 n=66 v=64
116160 On ch=2 n=57 v=90
116160 On ch=2 n=62 v=90
116160 On ch=2 n=66 v=90
116232 Off ch=2 n=57 v=64
116232 Off ch=2 n=62 v=64
116232 Off ch=2 n=66 v=64
116256 On ch=2 n=57 v=90
116256 On ch=2 n=62 v=90
116256 On ch=2 n=66 v=90
116328 Off ch=2 n=57 v=64
116328 Off ch=2 n=62 v=64
116328 Off ch=2 n=66 v=64
116352 On ch=2 n=57 v=90
116352 On ch=2 n=62 v=90
116352 On ch=2 n=66 v=90
116520 Off ch=2 n=57 v=64
116520 Off ch=2 n=62 v=64
116520 Off ch=2 n=66 v=64
116544 On ch=2 n=59 v=90
116544 On ch=2 n=55 v=90
116712 Off ch=2 n=59 v=64
116712 Off ch=2 n=55 v=64
116736 On ch=2 n=52 v=90
116736 On ch=2 n=57 v=90
116736 On ch=2 n=60 v=90
116736 On ch=2 n=67 v=90
116904 Off ch=2 n=52 v=64
116904 Off ch=2 n=57 v=64
116904 Off ch=2 n=60 v=64
116904 Off ch=2 n=67 v=64
116928 On ch=2 n=67 v=90
116928 On ch=2 n=60 v=90
116928 On ch=2 n=57 v=90
116928 On ch=2 n=52 v=90
117000 Off ch=2 n=67 v=64
117000 Off ch=2 n=60 v=64
117000 Off ch=2 n=57 v=64
117000 Off ch=2 n=52 v=64
117024 On ch=2 n=52 v=90
117024 On ch=2 n=57 v=90
117024 On ch=2 n=60 v=90
117024 On ch=2 n=67 v=90
117096 Off ch=2 n=52 v=64
117096 Off ch=2 n=57 v=64
117096 Off ch=2 n=60 v=64
117096 Off ch=2 n=67 v=64
117120 On ch=2 n=67 v=90
117120 On ch=2 n=60 v=90
117120 On ch=2 n=57 v=90
117120 On ch=2 n=52 v=90
117288 Off ch=2 n=67 v=64
117288 Off ch=2 n=60 v=64
117288 Off ch=2 n=57 v=64
117288 Off ch=2 n=52 v=64
117312 On ch=2 n=57 v=90
117312 On ch=2 n=67 v=90
117480 Off ch=2 n=57 v=64
117480 Off ch=2 n=67 v=64
117504 On ch=2 n=64 v=90
117504 On ch=2 n=60 v=90
117504 On ch=2 n=57 v=90
117504 On ch=2 n=52 v=90
117672 Off ch=2 n=64 v=64
117672 Off ch=2 n=60 v=64
117672 Off ch=2 n=57 v=64
117672 Off ch=2 n=52 v=64
117696 On ch=2 n=52 v=90
117696 On ch=2 n=57 v=90
117696 On ch=2 n=60 v=90
117696 On ch=2 n=64 v=90
118056 Off ch=2 n=52 v=64
118056 Off ch=2 n=57 v=64
118056 Off ch=2 n=60 v=64
118056 Off ch=2 n=64 v=64
118080 On ch=2 n=64 v=90
118080 On ch=2 n=67 v=90
118080 On ch=2 n=71 v=90
118248 Off ch=2 n=64 v=64
118248 Off ch=2 n=67 v=64
118248 Off ch=2 n=71 v=64
118464 On ch=2 n=62 v=90
118464 On ch=2 n=66 v=90
118464 On ch=2 n=69 v=90
118632 Off ch=2 n=62 v=64
118632 Off ch=2 n=66 v=64
118632 Off ch=2 n=69 v=64
118848 On ch=2 n=60 v=90
118848 On ch=2 n=64 v=90
118848 On ch=2 n=67 v=90
119016 Off ch=2 n=60 v=64
119016 Off ch=2 n=64 v=64
119016 Off ch=2 n=67 v=64
119232 On ch=2 n=69 v=90
119232 On ch=2 n=66 v=90
119232 On ch=2 n=62 v=90
119592 Off ch=2 n=69 v=64
119592 Off ch=2 n=66 v=64
119592 Off ch=2 n=62 v=64
119616 On ch=2 n=45 v=90
119784 Off ch=2 n=45 v=64
119808 On ch=2 n=52 v=90
119808 On ch=2 n=60 v=90
119808 On ch=2 n=67 v=90
119808 On ch=2 n=57 v=90
119976 Off ch=2 n=52 v=64
119976 Off ch=2 n=60 v=64
119976 Off ch=2 n=67 v=64
119976 Off ch=2 n=57 v=64
120000 On ch=2 n=67 v=90
120000 On ch=2 n=60 v=90
120000 On ch=2 n=52 v=90
120000 On ch=2 n=57 v=90
120072 Off ch=2 n=67 v=64
120072 Off ch=2 n=60 v=64
120072 Off ch=2 n=52 v=64
120072 Off ch=2 n=57 v=64
120096 On ch=2 n=52 v=90
120096 On ch=2 n=60 v=90
120096 On ch=2 n=67 v=90
120096 On ch=2 n=57 v=90
120168 Off ch=2 n=52 v=64
120168 Off ch=2 n=60 v=64
120168 Off ch=2 n=67 v=64
120168 Off ch=2 n=57 v=64
120192 On ch=2 n=67 v=90
120192 On ch=2 n=60 v=90
120192 On ch=2 n=52 v=90
120192 On ch=2 n=57 v=90
120360 Off ch=2 n=67 v=64
120360 Off ch=2 n=60 v=64
120360 Off ch=2 n=52 v=64
120360 Off ch=2 n=57 v=64
120384 On ch=2 n=60 v=90
120384 On ch=2 n=67 v=90
120384 On ch=2 n=57 v=90
120552 Off ch=2 n=60 v=64
120552 Off ch=2 n=67 v=64
120552 Off ch=2 n=57 v=64
120576 On ch=2 n=52 v=90
120576 On ch=2 n=57 v=90
120576 On ch=2 n=60 v=90
120576 On ch=2 n=64 v=90
120744 Off ch=2 n=52 v=64
120744 Off ch=2 n=57 v=64
120744 Off ch=2 n=60 v=64
120744 Off ch=2 n=64 v=64
120768 On ch=2 n=52 v=90
120768 On ch=2 n=57 v=90
120768 On ch=2 n=60 v=90
120768 On ch=2 n=64 v=90
121128 Off ch=2 n=52 v=64
121128 Off ch=2 n=57 v=64
121128 Off ch=2 n=60 v=64
121128 Off ch=2 n=64 v=64
121152 On ch=2 n=55 v=90
121152 On ch=2 n=62 v=90
121152 On ch=2 n=64 v=90
121320 Off ch=2 n=55 v=64
121320 Off ch=2 n=62 v=64
121320 Off ch=2 n=64 v=64
121536 On ch=2 n=57 v=90
121536 On ch=2 n=62 v=90
121536 On ch=2 n=66 v=90
121920 On ch=2 n=50 v=90
122088 Off ch=2 n=57 v=64
122088 Off ch=2 n=62 v=64
122088 Off ch=2 n=66 v=64
122112 On ch=2 n=62 v=90
122112 On ch=2 n=66 v=90
122112 On ch=2 n=57 v=90
122280 Off ch=2 n=62 v=64
122280 Off ch=2 n=66 v=64
122280 Off ch=2 n=57 v=64
122304 On ch=2 n=57 v=90
122304 On ch=2 n=62 v=90
122304 On ch=2 n=66 v=90
122376 Off ch=2 n=57 v=64
122376 Off ch=2 n=62 v=64
122376 Off ch=2 n=66 v=64
122400 On ch=2 n=57 v=90
122400 On ch=2 n=62 v=90
122400 On ch=2 n=66 v=90
122472 Off ch=2 n=57 v=64
122472 Off ch=2 n=62 v=64
122472 Off ch=2 n=66 v=64
122496 On ch=2 n=57 v=90
122496 On ch=2 n=62 v=90
122496 On ch=2 n=66 v=90
122664 Off ch=2 n=50 v=64
122688 On ch=2 n=50 v=90
122856 Off ch=2 n=62 v=64
122856 Off ch=2 n=66 v=64
122856 Off ch=2 n=50 v=64
122880 Off ch=2 n=57 v=64
122880 On ch=2 n=52 v=90
122880 On ch=2 n=60 v=90
122880 On ch=2 n=67 v=90
122880 On ch=2 n=57 v=90
122880 Off ch=2 n=57 v=64
123048 Off ch=2 n=52 v=64
123048 Off ch=2 n=60 v=64
123048 Off ch=2 n=67 v=64
123072 On ch=2 n=67 v=90
123072 On ch=2 n=60 v=90
123072 On ch=2 n=57 v=90
123072 On ch=2 n=52 v=90
123144 Off ch=2 n=67 v=64
123144 Off ch=2 n=60 v=64
123144 Off ch=2 n=57 v=64
123144 Off ch=2 n=52 v=64
123168 On ch=2 n=60 v=90
123168 On ch=2 n=67 v=90
123168 On ch=2 n=57 v=90
123168 On ch=2 n=52 v=90
123240 Off ch=2 n=60 v=64
123240 Off ch=2 n=67 v=64
123240 Off ch=2 n=57 v=64
123240 Off ch=2 n=52 v=64
123264 On ch=2 n=67 v=90
123264 On ch=2 n=60 v=90
123264 On ch=2 n=52 v=90
123264 On ch=2 n=57 v=90
123432 Off ch=2 n=67 v=64
123432 Off ch=2 n=60 v=64
123432 Off ch=2 n=52 v=64
123432 Off ch=2 n=57 v=64
123456 On ch=2 n=60 v=90
123456 On ch=2 n=67 v=90
123456 On ch=2 n=57 v=90
123624 Off ch=2 n=60 v=64
123624 Off ch=2 n=67 v=64
123624 Off ch=2 n=57 v=64
123840 On ch=2 n=60 v=90
123840 On ch=2 n=64 v=90
123840 On ch=2 n=57 v=90
123840 On ch=2 n=52 v=90
124008 Off ch=2 n=60 v=64
124008 Off ch=2 n=64 v=64
124008 Off ch=2 n=57 v=64
124008 Off ch=2 n=52 v=64
124224 On ch=2 n=64 v=90
124224 On ch=2 n=67 v=90
124224 On ch=2 n=71 v=90
124584 Off ch=2 n=64 v=64
124584 Off ch=2 n=67 v=64
124584 Off ch=2 n=71 v=64
124608 On ch=2 n=62 v=90
124608 On ch=2 n=66 v=90
124608 On ch=2 n=69 v=90
124968 Off ch=2 n=62 v=64
124968 Off ch=2 n=66 v=64
124968 Off ch=2 n=69 v=64
124992 On ch=2 n=60 v=90
124992 On ch=2 n=64 v=90
124992 On ch=2 n=67 v=90
125160 Off ch=2 n=60 v=64
125160 Off ch=2 n=64 v=64
125160 Off ch=2 n=67 v=64
125376 On ch=2 n=69 v=90
125376 On ch=2 n=66 v=90
125376 On ch=2 n=62 v=90
125736 Off ch=2 n=69 v=64
125736 Off ch=2 n=66 v=64
125736 Off ch=2 n=62 v=64
125760 On ch=2 n=45 v=90
125928 Off ch=2 n=45 v=64
125952 On ch=2 n=48 v=90
125952 On ch=2 n=45 v=90
125952 Off ch=2 n=45 v=64
126144 On ch=2 n=52 v=90
126312 Off ch=2 n=52 v=64
126336 On ch=2 n=55 v=90
126504 Off ch=2 n=55 v=64
126528 On ch=2 n=60 v=90
126696 Off ch=2 n=48 v=64
126696 Off ch=2 n=60 v=64
126720 On ch=2 n=47 v=90
126912 On ch=2 n=50 v=90
127080 Off ch=2 n=50 v=64
127104 On ch=2 n=55 v=90
127272 Off ch=2 n=55 v=64
127296 On ch=2 n=62 v=90
127464 Off ch=2 n=47 v=64
127464 Off ch=2 n=62 v=64
127488 On ch=2 n=59 v=90
127560 Off ch=2 n=59 v=64
127584 On ch=2 n=60 v=90
127656 Off ch=2 n=60 v=64
127680 On ch=2 n=57 v=90
127848 Off ch=2 n=57 v=64
127872 On ch=2 n=45 v=90
128064 On ch=2 n=52 v=90
128232 Off ch=2 n=52 v=64
128256 On ch=2 n=57 v=90
128424 Off ch=2 n=57 v=64
128448 On ch=2 n=60 v=90
128616 Off ch=2 n=45 v=64
128616 Off ch=2 n=60 v=64
128640 On ch=2 n=45 v=90
128808 Off ch=2 n=45 v=64
128832 On ch=2 n=47 v=90
129000 Off ch=2 n=47 v=64
129024 On ch=2 n=48 v=90
129216 On ch=2 n=52 v=90
129384 Off ch=2 n=52 v=64
129408 On ch=2 n=55 v=90
129576 Off ch=2 n=55 v=64
129600 On ch=2 n=60 v=90
129768 Off ch=2 n=48 v=64
129768 Off ch=2 n=60 v=64
129792 On ch=2 n=47 v=90
129984 On ch=2 n=50 v=90
130152 Off ch=2 n=50 v=64
130176 On ch=2 n=55 v=90
130344 Off ch=2 n=47 v=64
130344 Off ch=2 n=55 v=64
130368 On ch=2 n=48 v=90
130368 On ch=2 n=41 v=90
130368 On ch=2 n=53 v=90
130368 On ch=2 n=57 v=90
130368 On ch=2 n=60 v=90
130368 On ch=2 n=64 v=90
130728 Off ch=2 n=41 v=64
130728 Off ch=2 n=48 v=64
130728 Off ch=2 n=53 v=64
130728 Off ch=2 n=57 v=64
130728 Off ch=2 n=60 v=64
130728 Off ch=2 n=64 v=64
130752 On ch=2 n=64 v=90
130752 On ch=2 n=60 v=90
130752 On ch=2 n=57 v=90
130752 On ch=2 n=52 v=90
130752 On ch=2 n=45 v=90
131688 Off ch=2 n=64 v=64
131688 Off ch=2 n=60 v=64
131688 Off ch=2 n=57 v=64
131688 Off ch=2 n=52 v=64
131688 Off ch=2 n=45 v=64
131712 On ch=2 n=45 v=90
131880 Off ch=2 n=45 v=64
131904 On ch=2 n=47 v=90
132072 Off ch=2 n=47 v=64
132096 On ch=2 n=48 v=90
132096 On ch=2 n=45 v=90
132096 Off ch=2 n=45 v=64
132288 On ch=2 n=52 v=90
132456 Off ch=2 n=52 v=64
132480 On ch=2 n=55 v=90
132648 Off ch=2 n=55 v=64
132672 On ch=2 n=60 v=90
132840 Off ch=2 n=48 v=64
132840 Off ch=2 n=60 v=64
132864 On ch=2 n=47 v=90
133056 On ch=2 n=50 v=90
133224 Off ch=2 n=50 v=64
133248 On ch=2 n=55 v=90
133416 Off ch=2 n=55 v=64
133440 On ch=2 n=62 v=90
133608 Off ch=2 n=47 v=64
133608 Off ch=2 n=62 v=64
133632 On ch=2 n=59 v=90
133632 On ch=2 n=45 v=90
133704 Off ch=2 n=59 v=64
133728 On ch=2 n=60 v=90
133800 Off ch=2 n=60 v=64
133824 On ch=2 n=57 v=90
133992 Off ch=2 n=45 v=64
133992 Off ch=2 n=57 v=64
134016 On ch=2 n=45 v=90
134208 On ch=2 n=52 v=90
134376 Off ch=2 n=52 v=64
134400 On ch=2 n=57 v=90
134568 Off ch=2 n=57 v=64
134592 On ch=2 n=60 v=90
134760 Off ch=2 n=45 v=64
134760 Off ch=2 n=60 v=64
134784 On ch=2 n=45 v=90
134952 Off ch=2 n=45 v=64
134976 On ch=2 n=47 v=90
135144 Off ch=2 n=47 v=64
135168 On ch=2 n=48 v=90
135360 On ch=2 n=52 v=90
135528 Off ch=2 n=52 v=64
135552 On ch=2 n=55 v=90
135720 Off ch=2 n=55 v=64
135744 On ch=2 n=60 v=90
135912 Off ch=2 n=48 v=64
135912 Off ch=2 n=60 v=64
135936 On ch=2 n=47 v=90
136128 On ch=2 n=50 v=90
136296 Off ch=2 n=50 v=64
136320 On ch=2 n=55 v=90
136488 Off ch=2 n=47 v=64
136488 Off ch=2 n=55 v=64
136512 On ch=2 n=48 v=90
136512 On ch=2 n=41 v=90
136512 On ch=2 n=53 v=90
136512 On ch=2 n=57 v=90
136512 On ch=2 n=60 v=90
136512 On ch=2 n=64 v=90
136872 Off ch=2 n=41 v=64
136872 Off ch=2 n=48 v=64
136872 Off ch=2 n=53 v=64
136872 Off ch=2 n=57 v=64
136872 Off ch=2 n=60 v=64
136872 Off ch=2 n=64 v=64
136896 On ch=2 n=64 v=90
136896 On ch=2 n=60 v=90
136896 On ch=2 n=57 v=90
136896 On ch=2 n=52 v=90
136896 On ch=2 n=45 v=90
137832 Off ch=2 n=64 v=64
137832 Off ch=2 n=60 v=64
137832 Off ch=2 n=57 v=64
137832 Off ch=2 n=52 v=64
137832 Off ch=2 n=45 v=64
137856 On ch=2 n=45 v=90
138024 Off ch=2 n=45 v=64
138048 On ch=2 n=47 v=90
138216 Off ch=2 n=47 v=64
138240 On ch=2 n=48 v=90
138432 On ch=2 n=52 v=90
138600 Off ch=2 n=52 v=64
138624 On ch=2 n=55 v=90
138792 Off ch=2 n=55 v=64
138816 On ch=2 n=60 v=90
138984 Off ch=2 n=48 v=64
138984 Off ch=2 n=60 v=64
139008 On ch=2 n=47 v=90
139200 On ch=2 n=50 v=90
139368 Off ch=2 n=50 v=64
139392 On ch=2 n=55 v=90
139560 Off ch=2 n=55 v=64
139584 On ch=2 n=59 v=90
139752 Off ch=2 n=47 v=64
139776 Off ch=2 n=59 v=64
139776 On ch=2 n=52 v=90
139776 On ch=2 n=57 v=90
139776 On ch=2 n=60 v=90
139776 On ch=2 n=67 v=90
139944 Off ch=2 n=52 v=64
139944 Off ch=2 n=57 v=64
139944 Off ch=2 n=60 v=64
139944 Off ch=2 n=67 v=64
139968 On ch=2 n=67 v=90
139968 On ch=2 n=60 v=90
139968 On ch=2 n=57 v=90
139968 On ch=2 n=52 v=90
140040 Off ch=2 n=67 v=64
140040 Off ch=2 n=60 v=64
140040 Off ch=2 n=57 v=64
140040 Off ch=2 n=52 v=64
140064 On ch=2 n=57 v=90
140064 On ch=2 n=60 v=90
140064 On ch=2 n=67 v=90
140064 On ch=2 n=52 v=90
140136 Off ch=2 n=57 v=64
140136 Off ch=2 n=60 v=64
140136 Off ch=2 n=67 v=64
140136 Off ch=2 n=52 v=64
140160 On ch=2 n=67 v=90
140160 On ch=2 n=60 v=90
140160 On ch=2 n=57 v=90
140160 On ch=2 n=52 v=90
140328 Off ch=2 n=67 v=64
140328 Off ch=2 n=60 v=64
140328 Off ch=2 n=57 v=64
140328 Off ch=2 n=52 v=64
140352 On ch=2 n=52 v=90
140352 On ch=2 n=57 v=90
140352 On ch=2 n=60 v=90
140352 On ch=2 n=67 v=90
140520 Off ch=2 n=52 v=64
140520 Off ch=2 n=57 v=64
140520 Off ch=2 n=60 v=64
140520 Off ch=2 n=67 v=64
140736 On ch=2 n=55 v=90
140736 On ch=2 n=60 v=90
140736 On ch=2 n=64 v=90
140904 Off ch=2 n=55 v=64
140904 Off ch=2 n=60 v=64
140904 Off ch=2 n=64 v=64
141120 On ch=2 n=64 v=90
141120 On ch=2 n=62 v=90
141120 On ch=2 n=55 v=90
141288 Off ch=2 n=64 v=64
141288 Off ch=2 n=62 v=64
141288 Off ch=2 n=55 v=64
141504 On ch=2 n=57 v=90
141504 On ch=2 n=62 v=90
141504 On ch=2 n=66 v=90
141768 Off ch=2 n=57 v=64
141768 Off ch=2 n=62 v=64
141768 Off ch=2 n=66 v=64
141792 On ch=2 n=57 v=90
141792 On ch=2 n=62 v=90
141792 On ch=2 n=66 v=90
142056 Off ch=2 n=57 v=64
142056 Off ch=2 n=62 v=64
142056 Off ch=2 n=66 v=64
142080 On ch=2 n=50 v=90
142080 On ch=2 n=57 v=90
142080 On ch=2 n=62 v=90
142080 On ch=2 n=66 v=90
142152 Off ch=2 n=57 v=64
142152 Off ch=2 n=62 v=64
142152 Off ch=2 n=66 v=64
142176 On ch=2 n=66 v=90
142176 On ch=2 n=62 v=90
142176 On ch=2 n=57 v=90
142248 Off ch=2 n=50 v=64
142248 Off ch=2 n=66 v=64
142248 Off ch=2 n=62 v=64
142248 Off ch=2 n=57 v=64
142272 On ch=2 n=57 v=90
142272 On ch=2 n=62 v=90
142272 On ch=2 n=66 v=90
142344 Off ch=2 n=57 v=64
142344 Off ch=2 n=62 v=64
142344 Off ch=2 n=66 v=64
142368 On ch=2 n=57 v=90
142368 On ch=2 n=62 v=90
142368 On ch=2 n=66 v=90
142440 Off ch=2 n=57 v=64
142440 Off ch=2 n=62 v=64
142440 Off ch=2 n=66 v=64
142464 On ch=2 n=57 v=90
142464 On ch=2 n=62 v=90
142464 On ch=2 n=66 v=90
142536 Off ch=2 n=57 v=64
142536 Off ch=2 n=62 v=64
142536 Off ch=2 n=66 v=64
142560 On ch=2 n=66 v=90
142560 On ch=2 n=62 v=90
142560 On ch=2 n=57 v=90
142632 Off ch=2 n=66 v=64
142632 Off ch=2 n=62 v=64
142632 Off ch=2 n=57 v=64
142656 On ch=2 n=59 v=90
142656 On ch=2 n=55 v=90
142728 Off ch=2 n=59 v=64
142728 Off ch=2 n=55 v=64
142752 On ch=2 n=59 v=90
142752 On ch=2 n=55 v=90
142848 Off ch=2 n=59 v=64
142848 Off ch=2 n=55 v=64
142848 On ch=2 n=52 v=90
142848 On ch=2 n=57 v=90
142848 On ch=2 n=60 v=90
142848 On ch=2 n=67 v=90
143016 Off ch=2 n=52 v=64
143016 Off ch=2 n=57 v=64
143016 Off ch=2 n=60 v=64
143016 Off ch=2 n=67 v=64
143040 On ch=2 n=67 v=90
143040 On ch=2 n=60 v=90
143040 On ch=2 n=57 v=90
143040 On ch=2 n=52 v=90
143112 Off ch=2 n=67 v=64
143112 Off ch=2 n=60 v=64
143112 Off ch=2 n=57 v=64
143112 Off ch=2 n=52 v=64
143136 On ch=2 n=57 v=90
143136 On ch=2 n=60 v=90
143136 On ch=2 n=67 v=90
143136 On ch=2 n=52 v=90
143208 Off ch=2 n=57 v=64
143208 Off ch=2 n=60 v=64
143208 Off ch=2 n=67 v=64
143208 Off ch=2 n=52 v=64
143232 On ch=2 n=67 v=90
143232 On ch=2 n=60 v=90
143232 On ch=2 n=57 v=90
143232 On ch=2 n=52 v=90
143400 Off ch=2 n=67 v=64
143400 Off ch=2 n=60 v=64
143400 Off ch=2 n=57 v=64
143400 Off ch=2 n=52 v=64
143424 On ch=2 n=52 v=90
143424 On ch=2 n=57 v=90
143424 On ch=2 n=60 v=90
143424 On ch=2 n=67 v=90
143592 Off ch=2 n=52 v=64
143592 Off ch=2 n=57 v=64
143592 Off ch=2 n=60 v=64
143592 Off ch=2 n=67 v=64
143808 On ch=2 n=55 v=90
143808 On ch=2 n=60 v=90
143808 On ch=2 n=64 v=90
143976 Off ch=2 n=55 v=64
143976 Off ch=2 n=60 v=64
143976 Off ch=2 n=64 v=64
144192 On ch=2 n=64 v=90
144192 On ch=2 n=67 v=90
144192 On ch=2 n=71 v=90
144360 Off ch=2 n=64 v=64
144360 Off ch=2 n=67 v=64
144360 Off ch=2 n=71 v=64
144576 On ch=2 n=62 v=90
144576 On ch=2 n=66 v=90
144576 On ch=2 n=69 v=90
144744 Off ch=2 n=62 v=64
144744 Off ch=2 n=66 v=64
144744 Off ch=2 n=69 v=64
144960 On ch=2 n=60 v=90
144960 On ch=2 n=64 v=90
144960 On ch=2 n=67 v=90
145128 Off ch=2 n=60 v=64
145128 Off ch=2 n=64 v=64
145128 Off ch=2 n=67 v=64
145344 On ch=2 n=62 v=90
145344 On ch=2 n=66 v=90
145344 On ch=2 n=69 v=90
145704 Off ch=2 n=62 v=64
145704 Off ch=2 n=66 v=64
145704 Off ch=2 n=69 v=64
145728 On ch=2 n=45 v=90
145920 On ch=2 n=60 v=90
145920 On ch=2 n=52 v=90
145920 On ch=2 n=67 v=90
145920 On ch=2 n=57 v=90
146088 Off ch=2 n=60 v=64
146088 Off ch=2 n=52 v=64
146088 Off ch=2 n=67 v=64
146088 Off ch=2 n=57 v=64
146112 On ch=2 n=67 v=90
146112 On ch=2 n=60 v=90
146112 On ch=2 n=52 v=90
146112 On ch=2 n=57 v=90
146184 Off ch=2 n=67 v=64
146184 Off ch=2 n=60 v=64
146184 Off ch=2 n=52 v=64
146184 Off ch=2 n=57 v=64
146208 On ch=2 n=60 v=90
146208 On ch=2 n=67 v=90
146208 On ch=2 n=52 v=90
146208 On ch=2 n=57 v=90
146280 Off ch=2 n=60 v=64
146280 Off ch=2 n=67 v=64
146280 Off ch=2 n=52 v=64
146280 Off ch=2 n=57 v=64
146304 On ch=2 n=67 v=90
146304 On ch=2 n=60 v=90
146304 On ch=2 n=52 v=90
146304 On ch=2 n=57 v=90
146472 Off ch=2 n=67 v=64
146472 Off ch=2 n=60 v=64
146472 Off ch=2 n=52 v=64
146472 Off ch=2 n=57 v=64
146496 On ch=2 n=60 v=90
146496 On ch=2 n=67 v=90
146496 On ch=2 n=52 v=90
146496 On ch=2 n=57 v=90
146664 Off ch=2 n=45 v=64
146664 Off ch=2 n=60 v=64
146664 Off ch=2 n=67 v=64
146664 Off ch=2 n=52 v=64
146664 Off ch=2 n=57 v=64
146880 On ch=2 n=60 v=90
146880 On ch=2 n=55 v=90
146880 On ch=2 n=64 v=90
147048 Off ch=2 n=60 v=64
147048 Off ch=2 n=55 v=64
147048 Off ch=2 n=64 v=64
147264 On ch=2 n=64 v=90
147264 On ch=2 n=62 v=90
147264 On ch=2 n=55 v=90
147432 Off ch=2 n=64 v=64
147432 Off ch=2 n=62 v=64
147456 Off ch=2 n=55 v=64
147648 On ch=2 n=57 v=90
147648 On ch=2 n=62 v=90
147648 On ch=2 n=66 v=90
148008 Off ch=2 n=57 v=64
148008 Off ch=2 n=62 v=64
148008 Off ch=2 n=66 v=64
148032 On ch=2 n=57 v=90
148032 On ch=2 n=62 v=90
148200 Off ch=2 n=57 v=64
148200 Off ch=2 n=62 v=64
148224 On ch=2 n=57 v=90
148224 On ch=2 n=62 v=90
148224 On ch=2 n=66 v=90
148392 Off ch=2 n=57 v=64
148392 Off ch=2 n=62 v=64
148392 Off ch=2 n=66 v=64
148416 On ch=2 n=57 v=90
148416 On ch=2 n=62 v=90
148416 On ch=2 n=66 v=90
148488 Off ch=2 n=57 v=64
148488 Off ch=2 n=62 v=64
148488 Off ch=2 n=66 v=64
148512 On ch=2 n=57 v=90
148512 On ch=2 n=62 v=90
148512 On ch=2 n=66 v=90
148584 Off ch=2 n=57 v=64
148584 Off ch=2 n=62 v=64
148584 Off ch=2 n=66 v=64
148608 On ch=2 n=57 v=90
148608 On ch=2 n=62 v=90
148608 On ch=2 n=66 v=90
148776 Off ch=2 n=57 v=64
148776 Off ch=2 n=62 v=64
148776 Off ch=2 n=66 v=64
148800 On ch=2 n=55 v=90
148800 On ch=2 n=59 v=90
148800 On ch=2 n=64 v=90
148872 Off ch=2 n=55 v=64
148872 Off ch=2 n=59 v=64
148872 Off ch=2 n=64 v=64
148896 On ch=2 n=64 v=90
148896 On ch=2 n=59 v=90
148896 On ch=2 n=55 v=90
148968 Off ch=2 n=59 v=64
148992 Off ch=2 n=64 v=64
148992 Off ch=2 n=55 v=64
148992 On ch=2 n=52 v=90
148992 On ch=2 n=60 v=90
148992 On ch=2 n=67 v=90
148992 On ch=2 n=57 v=90
149160 Off ch=2 n=52 v=64
149160 Off ch=2 n=60 v=64
149160 Off ch=2 n=67 v=64
149160 Off ch=2 n=57 v=64
149184 On ch=2 n=67 v=90
149184 On ch=2 n=60 v=90
149184 On ch=2 n=57 v=90
149184 On ch=2 n=52 v=90
149256 Off ch=2 n=67 v=64
149256 Off ch=2 n=60 v=64
149256 Off ch=2 n=57 v=64
149256 Off ch=2 n=52 v=64
149280 On ch=2 n=60 v=90
149280 On ch=2 n=67 v=90
149280 On ch=2 n=57 v=90
149280 On ch=2 n=52 v=90
149352 Off ch=2 n=60 v=64
149352 Off ch=2 n=67 v=64
149352 Off ch=2 n=57 v=64
149352 Off ch=2 n=52 v=64
149376 On ch=2 n=67 v=90
149376 On ch=2 n=60 v=90
149376 On ch=2 n=52 v=90
149376 On ch=2 n=57 v=90
149544 Off ch=2 n=67 v=64
149544 Off ch=2 n=60 v=64
149544 Off ch=2 n=52 v=64
149544 Off ch=2 n=57 v=64
149568 On ch=2 n=52 v=90
149568 On ch=2 n=60 v=90
149568 On ch=2 n=67 v=90
149568 On ch=2 n=57 v=90
149736 Off ch=2 n=52 v=64
149736 Off ch=2 n=60 v=64
149736 Off ch=2 n=67 v=64
149736 Off ch=2 n=57 v=64
149760 On ch=2 n=52 v=90
149760 On ch=2 n=57 v=90
149760 On ch=2 n=60 v=90
149760 On ch=2 n=64 v=90
149928 Off ch=2 n=52 v=64
149928 Off ch=2 n=57 v=64
149928 Off ch=2 n=60 v=64
149928 Off ch=2 n=64 v=64
149952 On ch=2 n=60 v=90
149952 On ch=2 n=52 v=90
149952 On ch=2 n=57 v=90
149952 On ch=2 n=64 v=90
150120 Off ch=2 n=60 v=64
150120 Off ch=2 n=52 v=64
150120 Off ch=2 n=57 v=64
150120 Off ch=2 n=64 v=64
150336 On ch=2 n=64 v=90
150336 On ch=2 n=67 v=90
150336 On ch=2 n=71 v=90
150504 Off ch=2 n=64 v=64
150504 Off ch=2 n=67 v=64
150504 Off ch=2 n=71 v=64
150720 On ch=2 n=62 v=90
150720 On ch=2 n=66 v=90
150720 On ch=2 n=69 v=90
150888 Off ch=2 n=62 v=64
150888 Off ch=2 n=66 v=64
150888 Off ch=2 n=69 v=64
151104 On ch=2 n=60 v=90
151104 On ch=2 n=64 v=90
151104 On ch=2 n=67 v=90
151272 Off ch=2 n=60 v=64
151272 Off ch=2 n=64 v=64
151272 Off ch=2 n=67 v=64
151488 On ch=2 n=62 v=90
151488 On ch=2 n=66 v=90
151488 On ch=2 n=69 v=90
152040 Off ch=2 n=62 v=64
152040 Off ch=2 n=66 v=64
152040 Off ch=2 n=69 v=64
152448 On ch=2 n=55 v=90
152616 Off ch=2 n=55 v=64
152640 On ch=2 n=60 v=90
152808 Off ch=2 n=60 v=64
152832 On ch=2 n=47 v=90
153024 On ch=2 n=50 v=90
153192 Off ch=2 n=50 v=64
153216 On ch=2 n=55 v=90
153384 Off ch=2 n=55 v=64
153408 On ch=2 n=62 v=90
153576 Off ch=2 n=47 v=64
153576 Off ch=2 n=62 v=64
153600 On ch=2 n=59 v=90
153672 Off ch=2 n=59 v=64
153696 On ch=2 n=60 v=90
153768 Off ch=2 n=60 v=64
153792 On ch=2 n=57 v=90
153960 Off ch=2 n=57 v=64
153984 On ch=2 n=45 v=90
154176 On ch=2 n=52 v=90
154344 Off ch=2 n=52 v=64
154368 On ch=2 n=57 v=90
154536 Off ch=2 n=57 v=64
154560 On ch=2 n=48 v=90
154728 Off ch=2 n=45 v=64
154728 Off ch=2 n=48 v=64
154752 On ch=2 n=45 v=90
154920 Off ch=2 n=45 v=64
154944 On ch=2 n=47 v=90
155112 Off ch=2 n=47 v=64
155136 On ch=2 n=48 v=90
155328 On ch=2 n=52 v=90
155496 Off ch=2 n=52 v=64
155520 On ch=2 n=55 v=90
155688 Off ch=2 n=55 v=64
155712 On ch=2 n=60 v=90
155880 Off ch=2 n=48 v=64
155880 Off ch=2 n=60 v=64
155904 On ch=2 n=47 v=90
156096 On ch=2 n=50 v=90
156264 Off ch=2 n=50 v=64
156288 On ch=2 n=55 v=90
156456 Off ch=2 n=47 v=64
156456 Off ch=2 n=55 v=64
156480 On ch=2 n=48 v=90
156480 On ch=2 n=41 v=90
156480 On ch=2 n=53 v=90
156480 On ch=2 n=57 v=90
156480 On ch=2 n=60 v=90
156480 On ch=2 n=64 v=90
156840 Off ch=2 n=41 v=64
156840 Off ch=2 n=48 v=64
156840 Off ch=2 n=53 v=64
156840 Off ch=2 n=57 v=64
156840 Off ch=2 n=60 v=64
156840 Off ch=2 n=64 v=64
156864 On ch=2 n=64 v=90
156864 On ch=2 n=60 v=90
156864 On ch=2 n=57 v=90
156864 On ch=2 n=52 v=90
156864 On ch=2 n=45 v=90
157800 Off ch=2 n=64 v=64
157800 Off ch=2 n=60 v=64
157800 Off ch=2 n=57 v=64
157800 Off ch=2 n=52 v=64
157800 Off ch=2 n=45 v=64
157824 On ch=2 n=45 v=90
157992 Off ch=2 n=45 v=64
158016 On ch=2 n=47 v=90
158184 Off ch=2 n=47 v=64
158208 On ch=2 n=48 v=90
158400 On ch=2 n=52 v=90
158568 Off ch=2 n=52 v=64
158592 On ch=2 n=55 v=90
158760 Off ch=2 n=55 v=64
158784 On ch=2 n=60 v=90
158952 Off ch=2 n=48 v=64
158952 Off ch=2 n=60 v=64
158976 On ch=2 n=47 v=90
159168 On ch=2 n=50 v=90
159336 Off ch=2 n=50 v=64
159360 On ch=2 n=55 v=90
159528 Off ch=2 n=55 v=64
159552 On ch=2 n=62 v=90
159720 Off ch=2 n=47 v=64
159720 Off ch=2 n=62 v=64
159744 On ch=2 n=59 v=90
159744 On ch=2 n=45 v=90
159816 Off ch=2 n=59 v=64
159840 On ch=2 n=60 v=90
159912 Off ch=2 n=60 v=64
159936 On ch=2 n=57 v=90
160104 Off ch=2 n=45 v=64
160104 Off ch=2 n=57 v=64
160128 On ch=2 n=45 v=90
160320 On ch=2 n=52 v=90
160488 Off ch=2 n=52 v=64
160512 On ch=2 n=57 v=90
160680 Off ch=2 n=57 v=64
160704 On ch=2 n=60 v=90
160872 Off ch=2 n=45 v=64
160872 Off ch=2 n=60 v=64
160896 On ch=2 n=45 v=90
161064 Off ch=2 n=45 v=64
161088 On ch=2 n=47 v=90
161256 Off ch=2 n=47 v=64
161280 On ch=2 n=48 v=90
161472 On ch=2 n=52 v=90
161640 Off ch=2 n=52 v=64
161664 On ch=2 n=55 v=90
161832 Off ch=2 n=55 v=64
161856 On ch=2 n=60 v=90
162024 Off ch=2 n=48 v=64
162024 Off ch=2 n=60 v=64
162048 On ch=2 n=47 v=90
162240 On ch=2 n=50 v=90
162408 Off ch=2 n=50 v=64
162432 On ch=2 n=55 v=90
162600 Off ch=2 n=47 v=64
162600 Off ch=2 n=55 v=64
162624 On ch=2 n=48 v=90
162624 On ch=2 n=41 v=90
162624 On ch=2 n=53 v=90
162624 On ch=2 n=57 v=90
162624 On ch=2 n=60 v=90
162624 On ch=2 n=64 v=90
162984 Off ch=2 n=41 v=64
162984 Off ch=2 n=48 v=64
162984 Off ch=2 n=53 v=64
162984 Off ch=2 n=57 v=64
162984 Off ch=2 n=60 v=64
162984 Off ch=2 n=64 v=64
163008 On ch=2 n=64 v=90
163008 On ch=2 n=60 v=90
163008 On ch=2 n=57 v=90
163008 On ch=2 n=52 v=90
163008 On ch=2 n=45 v=90
163944 Off ch=2 n=64 v=64
163944 Off ch=2 n=60 v=64
163944 Off ch=2 n=57 v=64
163944 Off ch=2 n=52 v=64
163944 Off ch=2 n=45 v=64
163968 On ch=2 n=45 v=90
164136 Off ch=2 n=45 v=64
164160 On ch=2 n=47 v=90
164328 Off ch=2 n=47 v=64
164352 On ch=2 n=60 v=90
164520 Off ch=2 n=60 v=64
164544 On ch=2 n=64 v=90
164712 Off ch=2 n=64 v=64
164736 On ch=2 n=67 v=90
164904 Off ch=2 n=67 v=64
164928 On ch=2 n=60 v=90
165096 Off ch=2 n=60 v=64
165120 On ch=2 n=59 v=90
165288 Off ch=2 n=59 v=64
165312 On ch=2 n=62 v=90
165480 Off ch=2 n=62 v=64
165504 On ch=2 n=67 v=90
165672 Off ch=2 n=67 v=64
165696 On ch=2 n=59 v=90
165864 Off ch=2 n=59 v=64
165888 On ch=2 n=66 v=90
165888 On ch=2 n=62 v=90
165888 On ch=2 n=57 v=90
165888 On ch=2 n=50 v=90
167016 Off ch=2 n=66 v=64
167016 Off ch=2 n=62 v=64
167016 Off ch=2 n=57 v=64
167016 Off ch=2 n=50 v=64
167232 On ch=2 n=62 v=90
167232 On ch=2 n=64 v=90
167232 On ch=2 n=57 v=90
167232 On ch=2 n=50 v=90
167304 Off ch=2 n=62 v=64
167304 Off ch=2 n=64 v=64
167304 Off ch=2 n=57 v=64
167304 Off ch=2 n=50 v=64
167328 On ch=2 n=62 v=90
167328 On ch=2 n=66 v=90
167328 On ch=2 n=57 v=90
167328 On ch=2 n=50 v=90
167400 Off ch=2 n=62 v=64
167400 Off ch=2 n=66 v=64
167400 Off ch=2 n=57 v=64
167400 Off ch=2 n=50 v=64
167424 On ch=2 n=50 v=90
167424 On ch=2 n=57 v=90
167424 On ch=2 n=62 v=90
167424 On ch=2 n=67 v=90
167976 Off ch=2 n=50 v=64
167976 Off ch=2 n=57 v=64
167976 Off ch=2 n=62 v=64
167976 Off ch=2 n=67 v=64
168000 On ch=2 n=50 v=90
168000 On ch=2 n=57 v=90
168000 On ch=2 n=62 v=90
168000 On ch=2 n=64 v=90
168072 Off ch=2 n=50 v=64
168072 Off ch=2 n=57 v=64
168072 Off ch=2 n=62 v=64
168072 Off ch=2 n=64 v=64
168096 On ch=2 n=50 v=90
168096 On ch=2 n=57 v=90
168096 On ch=2 n=62 v=90
168096 On ch=2 n=66 v=90
168168 Off ch=2 n=50 v=64
168168 Off ch=2 n=57 v=64
168168 Off ch=2 n=62 v=64
168168 Off ch=2 n=66 v=64
168192 On ch=2 n=50 v=90
168192 On ch=2 n=57 v=90
168192 On ch=2 n=67 v=90
168744 Off ch=2 n=50 v=64
168744 Off ch=2 n=57 v=64
168744 Off ch=2 n=67 v=64
168768 On ch=2 n=50 v=90
168768 On ch=2 n=57 v=90
168768 On ch=2 n=64 v=90
168840 Off ch=2 n=50 v=64
168840 Off ch=2 n=57 v=64
168840 Off ch=2 n=64 v=64
168864 On ch=2 n=50 v=90
168864 On ch=2 n=57 v=90
168864 On ch=2 n=66 v=90
168960 Off ch=2 n=50 v=64
168960 Off ch=2 n=57 v=64
168960 Off ch=2 n=66 v=64
168960 On ch=2 n=50 v=90
168960 Off ch=2 n=50 v=64
168960 On ch=2 n=57 v=90
168960 Off ch=2 n=57 v=64
168960 On ch=2 n=62 v=90
168960 On ch=2 n=67 v=90
169320 Off ch=2 n=62 v=64
169320 Off ch=2 n=67 v=64
169344 On ch=2 n=67 v=90
169344 On ch=2 n=62 v=90
169344 On ch=2 n=57 v=90
169344 On ch=2 n=50 v=90
169704 Off ch=2 n=67 v=64
169704 Off ch=2 n=62 v=64
169704 Off ch=2 n=57 v=64
169704 Off ch=2 n=50 v=64
169728 On ch=2 n=50 v=90
169728 On ch=2 n=57 v=90
169728 On ch=2 n=62 v=90
169728 On ch=2 n=66 v=90
170088 Off ch=2 n=50 v=64
170088 Off ch=2 n=57 v=64
170088 Off ch=2 n=62 v=64
170088 Off ch=2 n=66 v=64
170112 On ch=2 n=48 v=90
170112 On ch=2 n=52 v=90
170112 On ch=2 n=55 v=90
170112 On ch=2 n=62 v=90
170472 Off ch=2 n=52 v=64
170472 Off ch=2 n=55 v=64
170472 Off ch=2 n=62 v=64
170496 On ch=2 n=62 v=90
170496 On ch=2 n=55 v=90
170664 Off ch=2 n=62 v=64
170664 Off ch=2 n=55 v=64
170688 On ch=2 n=55 v=90
170688 On ch=2 n=62 v=90
170688 On ch=2 n=66 v=90
170952 Off ch=2 n=55 v=64
170952 Off ch=2 n=62 v=64
170952 Off ch=2 n=66 v=64
170976 On ch=2 n=55 v=90
170976 On ch=2 n=62 v=90
170976 On ch=2 n=66 v=90
171048 Off ch=2 n=55 v=64
171048 Off ch=2 n=62 v=64
171048 Off ch=2 n=66 v=64
171072 On ch=2 n=55 v=90
171072 On ch=2 n=62 v=90
171072 On ch=2 n=66 v=90
171240 Off ch=2 n=55 v=64
171240 Off ch=2 n=62 v=64
171240 Off ch=2 n=66 v=64
171264 On ch=2 n=55 v=90
171264 On ch=2 n=62 v=90
171264 On ch=2 n=64 v=90
171624 Off ch=2 n=48 v=64
171624 Off ch=2 n=55 v=64
171624 Off ch=2 n=62 v=64
171624 Off ch=2 n=64 v=64
171648 On ch=2 n=48 v=90
171648 On ch=2 n=52 v=90
171648 On ch=2 n=55 v=90
171648 On ch=2 n=60 v=90
172008 Off ch=2 n=52 v=64
172008 Off ch=2 n=55 v=64
172008 Off ch=2 n=60 v=64
172032 On ch=2 n=55 v=90
172032 On ch=2 n=60 v=90
172200 Off ch=2 n=55 v=64
172200 Off ch=2 n=60 v=64
172224 On ch=2 n=55 v=90
172224 On ch=2 n=62 v=90
172224 On ch=2 n=66 v=90
172488 Off ch=2 n=55 v=64
172488 Off ch=2 n=62 v=64
172488 Off ch=2 n=66 v=64
172512 On ch=2 n=66 v=90
172512 On ch=2 n=62 v=90
172512 On ch=2 n=55 v=90
172584 Off ch=2 n=66 v=64
172584 Off ch=2 n=62 v=64
172584 Off ch=2 n=55 v=64
172608 On ch=2 n=55 v=90
172608 On ch=2 n=62 v=90
172608 On ch=2 n=66 v=90
172776 Off ch=2 n=55 v=64
172776 Off ch=2 n=62 v=64
172776 Off ch=2 n=66 v=64
172800 On ch=2 n=64 v=90
172808 On ch=2 n=50 v=90
172808 On ch=2 n=62 v=90
173160 Off ch=2 n=64 v=64
173168 Off ch=2 n=50 v=64
173168 Off ch=2 n=62 v=64
173184 On ch=2 n=62 v=90
173184 On ch=2 n=64 v=90
173192 On ch=2 n=50 v=90
173352 Off ch=2 n=48 v=64
173352 Off ch=2 n=62 v=64
173352 Off ch=2 n=64 v=64
173360 Off ch=2 n=50 v=64
173376 On ch=2 n=50 v=90
173376 On ch=2 n=57 v=90
173376 On ch=2 n=62 v=90
173376 On ch=2 n=64 v=90
173448 Off ch=2 n=50 v=64
173448 Off ch=2 n=57 v=64
173448 Off ch=2 n=62 v=64
173448 Off ch=2 n=64 v=64
173472 On ch=2 n=50 v=90
173472 On ch=2 n=57 v=90
173472 On ch=2 n=62 v=90
173472 On ch=2 n=66 v=90
173544 Off ch=2 n=50 v=64
173544 Off ch=2 n=57 v=64
173544 Off ch=2 n=62 v=64
173544 Off ch=2 n=66 v=64
173568 On ch=2 n=50 v=90
173568 On ch=2 n=57 v=90
173568 On ch=2 n=62 v=90
173568 On ch=2 n=67 v=90
174120 Off ch=2 n=50 v=64
174120 Off ch=2 n=57 v=64
174120 Off ch=2 n=62 v=64
174120 Off ch=2 n=67 v=64
174144 On ch=2 n=50 v=90
174144 On ch=2 n=57 v=90
174144 On ch=2 n=62 v=90
174144 On ch=2 n=64 v=90
174216 Off ch=2 n=50 v=64
174216 Off ch=2 n=57 v=64
174216 Off ch=2 n=62 v=64
174216 Off ch=2 n=64 v=64
174240 On ch=2 n=50 v=90
174240 On ch=2 n=57 v=90
174240 On ch=2 n=62 v=90
174240 On ch=2 n=66 v=90
174312 Off ch=2 n=50 v=64
174312 Off ch=2 n=57 v=64
174312 Off ch=2 n=62 v=64
174312 Off ch=2 n=66 v=64
174336 On ch=2 n=50 v=90
174336 On ch=2 n=57 v=90
174336 On ch=2 n=67 v=90
174888 Off ch=2 n=50 v=64
174888 Off ch=2 n=57 v=64
174888 Off ch=2 n=67 v=64
174912 On ch=2 n=50 v=90
174912 On ch=2 n=57 v=90
174912 On ch=2 n=64 v=90
174984 Off ch=2 n=50 v=64
174984 Off ch=2 n=57 v=64
174984 Off ch=2 n=64 v=64
175008 On ch=2 n=50 v=90
175008 On ch=2 n=57 v=90
175008 On ch=2 n=66 v=90
175104 Off ch=2 n=50 v=64
175104 Off ch=2 n=57 v=64
175104 Off ch=2 n=66 v=64
175104 On ch=2 n=50 v=90
175104 Off ch=2 n=50 v=64
175104 On ch=2 n=57 v=90
175104 Off ch=2 n=57 v=64
175104 On ch=2 n=62 v=90
175104 On ch=2 n=67 v=90
175464 Off ch=2 n=62 v=64
175464 Off ch=2 n=67 v=64
175488 On ch=2 n=67 v=90
175488 On ch=2 n=62 v=90
175488 On ch=2 n=57 v=90
175488 On ch=2 n=50 v=90
175800 Off ch=2 n=67 v=64
175848 Off ch=2 n=62 v=64
175848 Off ch=2 n=57 v=64
175848 Off ch=2 n=50 v=64
175872 On ch=2 n=50 v=90
175872 On ch=2 n=57 v=90
175872 On ch=2 n=62 v=90
175872 On ch=2 n=66 v=90
176232 Off ch=2 n=50 v=64
176232 Off ch=2 n=57 v=64
176232 Off ch=2 n=62 v=64
176232 Off ch=2 n=66 v=64
177984 On ch=2 n=59 v=90
177984 On ch=2 n=62 v=90
179112 Off ch=2 n=59 v=64
179112 Off ch=2 n=62 v=64
179520 On ch=2 n=52 v=90
179520 On ch=2 n=57 v=90
179520 On ch=2 n=60 v=90
179520 On ch=2 n=64 v=90
179880 Off ch=2 n=52 v=64
179880 Off ch=2 n=57 v=64
179880 Off ch=2 n=60 v=64
179880 Off ch=2 n=64 v=64
179904 On ch=2 n=64 v=90
179904 On ch=2 n=60 v=90
179904 On ch=2 n=57 v=90
179904 On ch=2 n=52 v=90
180264 Off ch=2 n=64 v=64
180264 Off ch=2 n=60 v=64
180264 Off ch=2 n=57 v=64
180264 Off ch=2 n=52 v=64
180288 On ch=2 n=64 v=90
180288 On ch=2 n=60 v=90
180288 On ch=2 n=52 v=90
180288 On ch=2 n=55 v=90
180648 Off ch=2 n=64 v=64
180648 Off ch=2 n=60 v=64
180648 Off ch=2 n=52 v=64
180648 Off ch=2 n=55 v=64
180672 On ch=2 n=64 v=90
180672 On ch=2 n=60 v=90
180672 On ch=2 n=52 v=90
180672 On ch=2 n=55 v=90
181032 Off ch=2 n=64 v=64
181032 Off ch=2 n=60 v=64
181032 Off ch=2 n=52 v=64
181032 Off ch=2 n=55 v=64
181056 On ch=2 n=53 v=90
181056 On ch=2 n=57 v=90
181056 On ch=2 n=60 v=90
181056 On ch=2 n=64 v=90
181416 Off ch=2 n=53 v=64
181416 Off ch=2 n=57 v=64
181416 Off ch=2 n=60 v=64
181416 Off ch=2 n=64 v=64
181440 On ch=2 n=53 v=90
181440 On ch=2 n=57 v=90
181440 On ch=2 n=60 v=90
181440 On ch=2 n=64 v=90
181704 Off ch=2 n=53 v=64
181704 Off ch=2 n=57 v=64
181704 Off ch=2 n=60 v=64
181704 Off ch=2 n=64 v=64
181728 On ch=2 n=64 v=90
181728 On ch=2 n=60 v=90
181728 On ch=2 n=57 v=90
181728 On ch=2 n=53 v=90
181992 Off ch=2 n=64 v=64
181992 Off ch=2 n=60 v=64
181992 Off ch=2 n=57 v=64
181992 Off ch=2 n=53 v=64
182016 On ch=2 n=53 v=90
182016 On ch=2 n=57 v=90
182016 On ch=2 n=60 v=90
182016 On ch=2 n=64 v=90
182184 Off ch=2 n=53 v=64
182184 Off ch=2 n=57 v=64
182184 Off ch=2 n=60 v=64
182184 Off ch=2 n=64 v=64
182208 On ch=2 n=64 v=90
182208 On ch=2 n=60 v=90
182208 On ch=2 n=57 v=90
182208 On ch=2 n=53 v=90
182568 Off ch=2 n=64 v=64
182568 Off ch=2 n=60 v=64
182568 Off ch=2 n=57 v=64
182568 Off ch=2 n=53 v=64
182592 On ch=2 n=52 v=90
182592 On ch=2 n=57 v=90
182592 On ch=2 n=60 v=90
182592 On ch=2 n=64 v=90
182760 Off ch=2 n=52 v=64
182760 Off ch=2 n=57 v=64
182760 Off ch=2 n=60 v=64
182760 Off ch=2 n=64 v=64
182784 On ch=2 n=52 v=90
182784 On ch=2 n=57 v=90
182784 On ch=2 n=60 v=90
182784 On ch=2 n=64 v=90
182952 Off ch=2 n=52 v=64
182952 Off ch=2 n=57 v=64
182952 Off ch=2 n=60 v=64
182952 Off ch=2 n=64 v=64
182976 On ch=2 n=64 v=90
182976 On ch=2 n=60 v=90
182976 On ch=2 n=57 v=90
182976 On ch=2 n=52 v=90
183336 Off ch=2 n=64 v=64
183336 Off ch=2 n=60 v=64
183336 Off ch=2 n=57 v=64
183336 Off ch=2 n=52 v=64
183360 On ch=2 n=55 v=90
183360 On ch=2 n=60 v=90
183360 On ch=2 n=64 v=90
183360 On ch=2 n=52 v=90
183720 Off ch=2 n=55 v=64
183720 Off ch=2 n=60 v=64
183720 Off ch=2 n=64 v=64
183720 Off ch=2 n=52 v=64
183744 On ch=2 n=64 v=90
183744 On ch=2 n=60 v=90
183744 On ch=2 n=55 v=90
183744 On ch=2 n=52 v=90
184104 Off ch=2 n=64 v=64
184104 Off ch=2 n=60 v=64
184104 Off ch=2 n=55 v=64
184104 Off ch=2 n=52 v=64
184128 On ch=2 n=53 v=90
184128 On ch=2 n=57 v=90
184128 On ch=2 n=60 v=90
184128 On ch=2 n=64 v=90
184488 Off ch=2 n=53 v=64
184488 Off ch=2 n=57 v=64
184488 Off ch=2 n=60 v=64
184488 Off ch=2 n=64 v=64
184512 On ch=2 n=53 v=90
184512 On ch=2 n=57 v=90
184512 On ch=2 n=60 v=90
184512 On ch=2 n=64 v=90
184776 Off ch=2 n=53 v=64
184776 Off ch=2 n=57 v=64
184776 Off ch=2 n=60 v=64
184776 Off ch=2 n=64 v=64
184800 On ch=2 n=64 v=90
184800 On ch=2 n=60 v=90
184800 On ch=2 n=57 v=90
184800 On ch=2 n=53 v=90
185064 Off ch=2 n=64 v=64
185064 Off ch=2 n=60 v=64
185064 Off ch=2 n=57 v=64
185064 Off ch=2 n=53 v=64
185088 On ch=2 n=53 v=90
185088 On ch=2 n=57 v=90
185088 On ch=2 n=60 v=90
185088 On ch=2 n=64 v=90
185256 Off ch=2 n=53 v=64
185256 Off ch=2 n=57 v=64
185256 Off ch=2 n=60 v=64
185256 Off ch=2 n=64 v=64
185280 On ch=2 n=64 v=90
185280 On ch=2 n=60 v=90
185280 On ch=2 n=57 v=90
185280 On ch=2 n=53 v=90
185640 Off ch=2 n=64 v=64
185640 Off ch=2 n=60 v=64
185640 Off ch=2 n=57 v=64
185640 Off ch=2 n=53 v=64
185664 On ch=2 n=52 v=90
185664 On ch=2 n=57 v=90
185664 On ch=2 n=60 v=90
185664 On ch=2 n=64 v=90
186024 Off ch=2 n=52 v=64
186024 Off ch=2 n=57 v=64
186024 Off ch=2 n=60 v=64
186024 Off ch=2 n=64 v=64
186048 On ch=2 n=64 v=90
186048 On ch=2 n=60 v=90
186048 On ch=2 n=57 v=90
186048 On ch=2 n=52 v=90
186408 Off ch=2 n=64 v=64
186408 Off ch=2 n=60 v=64
186408 Off ch=2 n=57 v=64
186408 Off ch=2 n=52 v=64
186432 On ch=2 n=64 v=90
186432 On ch=2 n=60 v=90
186432 On ch=2 n=52 v=90
186432 On ch=2 n=55 v=90
186792 Off ch=2 n=64 v=64
186792 Off ch=2 n=60 v=64
186792 Off ch=2 n=52 v=64
186792 Off ch=2 n=55 v=64
186816 On ch=2 n=64 v=90
186816 On ch=2 n=60 v=90
186816 On ch=2 n=52 v=90
186816 On ch=2 n=55 v=90
187176 Off ch=2 n=64 v=64
187176 Off ch=2 n=60 v=64
187176 Off ch=2 n=52 v=64
187176 Off ch=2 n=55 v=64
187200 On ch=2 n=53 v=90
187200 On ch=2 n=57 v=90
187200 On ch=2 n=60 v=90
187200 On ch=2 n=64 v=90
187560 Off ch=2 n=53 v=64
187560 Off ch=2 n=57 v=64
187560 Off ch=2 n=60 v=64
187560 Off ch=2 n=64 v=64
187584 On ch=2 n=53 v=90
187584 On ch=2 n=57 v=90
187584 On ch=2 n=60 v=90
187584 On ch=2 n=64 v=90
187848 Off ch=2 n=53 v=64
187848 Off ch=2 n=57 v=64
187848 Off ch=2 n=60 v=64
187848 Off ch=2 n=64 v=64
187872 On ch=2 n=64 v=90
187872 On ch=2 n=60 v=90
187872 On ch=2 n=57 v=90
187872 On ch=2 n=53 v=90
188136 Off ch=2 n=64 v=64
188136 Off ch=2 n=60 v=64
188136 Off ch=2 n=57 v=64
188136 Off ch=2 n=53 v=64
188160 On ch=2 n=53 v=90
188160 On ch=2 n=57 v=90
188160 On ch=2 n=60 v=90
188160 On ch=2 n=64 v=90
188328 Off ch=2 n=53 v=64
188328 Off ch=2 n=57 v=64
188328 Off ch=2 n=60 v=64
188328 Off ch=2 n=64 v=64
188352 On ch=2 n=64 v=90
188352 On ch=2 n=60 v=90
188352 On ch=2 n=57 v=90
188352 On ch=2 n=53 v=90
188712 Off ch=2 n=64 v=64
188712 Off ch=2 n=60 v=64
188712 Off ch=2 n=57 v=64
188712 Off ch=2 n=53 v=64
188736 On ch=2 n=52 v=90
188736 On ch=2 n=57 v=90
188736 On ch=2 n=60 v=90
188736 On ch=2 n=64 v=90
189096 Off ch=2 n=52 v=64
189096 Off ch=2 n=57 v=64
189096 Off ch=2 n=60 v=64
189096 Off ch=2 n=64 v=64
189120 On ch=2 n=64 v=90
189120 On ch=2 n=60 v=90
189120 On ch=2 n=57 v=90
189120 On ch=2 n=52 v=90
189480 Off ch=2 n=64 v=64
189480 Off ch=2 n=60 v=64
189480 Off ch=2 n=57 v=64
189480 Off ch=2 n=52 v=64
189504 On ch=2 n=64 v=90
189504 On ch=2 n=60 v=90
189504 On ch=2 n=52 v=90
189504 On ch=2 n=55 v=90
189864 Off ch=2 n=64 v=64
189864 Off ch=2 n=60 v=64
189864 Off ch=2 n=52 v=64
189864 Off ch=2 n=55 v=64
189888 On ch=2 n=64 v=90
189888 On ch=2 n=60 v=90
189888 On ch=2 n=52 v=90
189888 On ch=2 n=55 v=90
190248 Off ch=2 n=64 v=64
190248 Off ch=2 n=60 v=64
190248 Off ch=2 n=52 v=64
190248 Off ch=2 n=55 v=64
190272 On ch=2 n=53 v=90
190272 On ch=2 n=57 v=90
190272 On ch=2 n=60 v=90
190272 On ch=2 n=64 v=90
190632 Off ch=2 n=53 v=64
190632 Off ch=2 n=57 v=64
190632 Off ch=2 n=60 v=64
190632 Off ch=2 n=64 v=64
190656 On ch=2 n=53 v=90
190656 On ch=2 n=57 v=90
190656 On ch=2 n=60 v=90
190656 On ch=2 n=64 v=90
190920 Off ch=2 n=53 v=64
190920 Off ch=2 n=57 v=64
190920 Off ch=2 n=60 v=64
190920 Off ch=2 n=64 v=64
190944 On ch=2 n=64 v=90
190944 On ch=2 n=60 v=90
190944 On ch=2 n=57 v=90
190944 On ch=2 n=53 v=90
191016 Off ch=2 n=64 v=64
191016 Off ch=2 n=60 v=64
191016 Off ch=2 n=57 v=64
191016 Off ch=2 n=53 v=64
191040 On ch=2 n=53 v=90
191040 On ch=2 n=57 v=90
191040 On ch=2 n=60 v=90
191040 On ch=2 n=64 v=90
191208 Off ch=2 n=53 v=64
191208 Off ch=2 n=57 v=64
191208 Off ch=2 n=60 v=64
191208 Off ch=2 n=64 v=64
191232 On ch=2 n=53 v=90
191232 On ch=2 n=57 v=90
191232 On ch=2 n=60 v=90
191232 On ch=2 n=64 v=90
191400 Off ch=2 n=53 v=64
191400 Off ch=2 n=57 v=64
191400 Off ch=2 n=60 v=64
191400 Off ch=2 n=64 v=64
191424 On ch=2 n=64 v=90
191424 On ch=2 n=60 v=90
191424 On ch=2 n=57 v=90
191424 On ch=2 n=53 v=90
191592 Off ch=2 n=64 v=64
191592 Off ch=2 n=60 v=64
191592 Off ch=2 n=57 v=64
191592 Off ch=2 n=53 v=64
191616 On ch=2 n=53 v=90
191616 On ch=2 n=57 v=90
191616 On ch=2 n=60 v=90
191616 On ch=2 n=64 v=90
191784 Off ch=2 n=53 v=64
191784 Off ch=2 n=57 v=64
191784 Off ch=2 n=60 v=64
191784 Off ch=2 n=64 v=64
191808 On ch=2 n=52 v=90
191808 On ch=2 n=57 v=90
191808 On ch=2 n=60 v=90
191808 On ch=2 n=64 v=90
192168 Off ch=2 n=52 v=64
192168 Off ch=2 n=57 v=64
192168 Off ch=2 n=60 v=64
192168 Off ch=2 n=64 v=64
192192 On ch=2 n=64 v=90
192192 On ch=2 n=60 v=90
192192 On ch=2 n=57 v=90
192192 On ch=2 n=52 v=90
192456 Off ch=2 n=64 v=64
192456 Off ch=2 n=60 v=64
192456 Off ch=2 n=57 v=64
192456 Off ch=2 n=52 v=64
192480 On ch=2 n=52 v=90
192480 On ch=2 n=57 v=90
192480 On ch=2 n=60 v=90
192480 On ch=2 n=64 v=90
192552 Off ch=2 n=52 v=64
192552 Off ch=2 n=57 v=64
192552 Off ch=2 n=60 v=64
192552 Off ch=2 n=64 v=64
192576 On ch=2 n=64 v=90
192576 On ch=2 n=60 v=90
192576 On ch=2 n=52 v=90
192576 On ch=2 n=55 v=90
192744 Off ch=2 n=64 v=64
192744 Off ch=2 n=60 v=64
192744 Off ch=2 n=52 v=64
192744 Off ch=2 n=55 v=64
192768 On ch=2 n=64 v=90
192768 On ch=2 n=60 v=90
192768 On ch=2 n=55 v=90
192768 On ch=2 n=52 v=90
192936 Off ch=2 n=64 v=64
192936 Off ch=2 n=60 v=64
192936 Off ch=2 n=55 v=64
192936 Off ch=2 n=52 v=64
192960 On ch=2 n=64 v=90
192960 On ch=2 n=60 v=90
192960 On ch=2 n=52 v=90
192960 On ch=2 n=55 v=90
193320 Off ch=2 n=64 v=64
193320 Off ch=2 n=60 v=64
193320 Off ch=2 n=52 v=64
193320 Off ch=2 n=55 v=64
193344 On ch=2 n=53 v=90
193344 On ch=2 n=57 v=90
193344 On ch=2 n=60 v=90
193344 On ch=2 n=64 v=90
193704 Off ch=2 n=53 v=64
193704 Off ch=2 n=57 v=64
193704 Off ch=2 n=60 v=64
193704 Off ch=2 n=64 v=64
193728 On ch=2 n=53 v=90
193728 On ch=2 n=57 v=90
193728 On ch=2 n=60 v=90
193728 On ch=2 n=64 v=90
193992 Off ch=2 n=53 v=64
193992 Off ch=2 n=57 v=64
193992 Off ch=2 n=60 v=64
193992 Off ch=2 n=64 v=64
194016 On ch=2 n=64 v=90
194016 On ch=2 n=60 v=90
194016 On ch=2 n=57 v=90
194016 On ch=2 n=53 v=90
194088 Off ch=2 n=64 v=64
194088 Off ch=2 n=60 v=64
194088 Off ch=2 n=57 v=64
194088 Off ch=2 n=53 v=64
194112 On ch=2 n=53 v=90
194112 On ch=2 n=57 v=90
194112 On ch=2 n=60 v=90
194112 On ch=2 n=64 v=90
194280 Off ch=2 n=53 v=64
194280 Off ch=2 n=57 v=64
194280 Off ch=2 n=60 v=64
194280 Off ch=2 n=64 v=64
194304 On ch=2 n=53 v=90
194304 On ch=2 n=57 v=90
194304 On ch=2 n=60 v=90
194304 On ch=2 n=64 v=90
194472 Off ch=2 n=53 v=64
194472 Off ch=2 n=57 v=64
194472 Off ch=2 n=60 v=64
194472 Off ch=2 n=64 v=64
194496 On ch=2 n=64 v=90
194496 On ch=2 n=60 v=90
194496 On ch=2 n=57 v=90
194496 On ch=2 n=53 v=90
194856 Off ch=2 n=64 v=64
194856 Off ch=2 n=60 v=64
194856 Off ch=2 n=57 v=64
194856 Off ch=2 n=53 v=64
194880 On ch=2 n=52 v=90
194880 On ch=2 n=57 v=90
194880 On ch=2 n=60 v=90
194880 On ch=2 n=64 v=90
195240 Off ch=2 n=52 v=64
195240 Off ch=2 n=57 v=64
195240 Off ch=2 n=60 v=64
195240 Off ch=2 n=64 v=64
195264 On ch=2 n=64 v=90
195264 On ch=2 n=60 v=90
195264 On ch=2 n=57 v=90
195264 On ch=2 n=52 v=90
195528 Off ch=2 n=64 v=64
195528 Off ch=2 n=60 v=64
195528 Off ch=2 n=57 v=64
195528 Off ch=2 n=52 v=64
195552 On ch=2 n=52 v=90
195552 On ch=2 n=57 v=90
195552 On ch=2 n=60 v=90
195552 On ch=2 n=64 v=90
195624 Off ch=2 n=52 v=64
195624 Off ch=2 n=57 v=64
195624 Off ch=2 n=60 v=64
195624 Off ch=2 n=64 v=64
195648 On ch=2 n=64 v=90
195648 On ch=2 n=60 v=90
195648 On ch=2 n=52 v=90
195648 On ch=2 n=55 v=90
195816 Off ch=2 n=64 v=64
195816 Off ch=2 n=60 v=64
195816 Off ch=2 n=52 v=64
195816 Off ch=2 n=55 v=64
195840 On ch=2 n=64 v=90
195840 On ch=2 n=60 v=90
195840 On ch=2 n=55 v=90
195840 On ch=2 n=52 v=90
196008 Off ch=2 n=64 v=64
196008 Off ch=2 n=60 v=64
196008 Off ch=2 n=55 v=64
196008 Off ch=2 n=52 v=64
196032 On ch=2 n=64 v=90
196032 On ch=2 n=60 v=90
196032 On ch=2 n=52 v=90
196032 On ch=2 n=55 v=90
196392 Off ch=2 n=64 v=64
196392 Off ch=2 n=60 v=64
196392 Off ch=2 n=52 v=64
196392 Off ch=2 n=55 v=64
196416 On ch=2 n=53 v=90
196416 On ch=2 n=57 v=90
196416 On ch=2 n=60 v=90
196416 On ch=2 n=64 v=90
196776 Off ch=2 n=53 v=64
196776 Off ch=2 n=57 v=64
196776 Off ch=2 n=60 v=64
196776 Off ch=2 n=64 v=64
196800 On ch=2 n=53 v=90
196800 On ch=2 n=57 v=90
196800 On ch=2 n=60 v=90
196800 On ch=2 n=64 v=90
197064 Off ch=2 n=53 v=64
197064 Off ch=2 n=57 v=64
197064 Off ch=2 n=60 v=64
197064 Off ch=2 n=64 v=64
197088 On ch=2 n=64 v=90
197088 On ch=2 n=60 v=90
197088 On ch=2 n=57 v=90
197088 On ch=2 n=53 v=90
197160 Off ch=2 n=64 v=64
197160 Off ch=2 n=60 v=64
197160 Off ch=2 n=57 v=64
197160 Off ch=2 n=53 v=64
197184 On ch=2 n=53 v=90
197184 On ch=2 n=57 v=90
197184 On ch=2 n=60 v=90
197184 On ch=2 n=64 v=90
197352 Off ch=2 n=53 v=64
197352 Off ch=2 n=57 v=64
197352 Off ch=2 n=60 v=64
197352 Off ch=2 n=64 v=64
197376 On ch=2 n=53 v=90
197376 On ch=2 n=57 v=90
197376 On ch=2 n=60 v=90
197376 On ch=2 n=64 v=90
197544 Off ch=2 n=53 v=64
197544 Off ch=2 n=57 v=64
197544 Off ch=2 n=60 v=64
197544 Off ch=2 n=64 v=64
197568 On ch=2 n=64 v=90
197568 On ch=2 n=60 v=90
197568 On ch=2 n=57 v=90
197568 On ch=2 n=53 v=90
197736 Off ch=2 n=64 v=64
197736 Off ch=2 n=60 v=64
197736 Off ch=2 n=57 v=64
197736 Off ch=2 n=53 v=64
197760 On ch=2 n=53 v=90
197760 On ch=2 n=57 v=90
197760 On ch=2 n=60 v=90
197760 On ch=2 n=64 v=90
197928 Off ch=2 n=53 v=64
197928 Off ch=2 n=57 v=64
197928 Off ch=2 n=60 v=64
197928 Off ch=2 n=64 v=64
197952 On ch=2 n=52 v=90
197952 On ch=2 n=57 v=90
197952 On ch=2 n=60 v=90
197952 On ch=2 n=64 v=90
198312 Off ch=2 n=52 v=64
198312 Off ch=2 n=57 v=64
198312 Off ch=2 n=60 v=64
198312 Off ch=2 n=64 v=64
198336 On ch=2 n=64 v=90
198336 On ch=2 n=60 v=90
198336 On ch=2 n=57 v=90
198336 On ch=2 n=52 v=90
198600 Off ch=2 n=64 v=64
198600 Off ch=2 n=60 v=64
198600 Off ch=2 n=57 v=64
198600 Off ch=2 n=52 v=64
198624 On ch=2 n=52 v=90
198624 On ch=2 n=57 v=90
198624 On ch=2 n=60 v=90
198624 On ch=2 n=64 v=90
198696 Off ch=2 n=52 v=64
198696 Off ch=2 n=57 v=64
198696 Off ch=2 n=60 v=64
198696 Off ch=2 n=64 v=64
198720 On ch=2 n=64 v=90
198720 On ch=2 n=60 v=90
198720 On ch=2 n=52 v=90
198720 On ch=2 n=55 v=90
198888 Off ch=2 n=64 v=64
198888 Off ch=2 n=60 v=64
198888 Off ch=2 n=52 v=64
198888 Off ch=2 n=55 v=64
198912 On ch=2 n=64 v=90
198912 On ch=2 n=60 v=90
198912 On ch=2 n=55 v=90
198912 On ch=2 n=52 v=90
199080 Off ch=2 n=64 v=64
199080 Off ch=2 n=60 v=64
199080 Off ch=2 n=55 v=64
199080 Off ch=2 n=52 v=64
199104 On ch=2 n=64 v=90
199104 On ch=2 n=60 v=90
199104 On ch=2 n=52 v=90
199104 On ch=2 n=55 v=90
199464 Off ch=2 n=64 v=64
199464 Off ch=2 n=60 v=64
199464 Off ch=2 n=52 v=64
199464 Off ch=2 n=55 v=64
199488 On ch=2 n=53 v=90
199488 On ch=2 n=57 v=90
199488 On ch=2 n=60 v=90
199488 On ch=2 n=64 v=90
199848 Off ch=2 n=53 v=64
199848 Off ch=2 n=57 v=64
199848 Off ch=2 n=60 v=64
199848 Off ch=2 n=64 v=64
199872 On ch=2 n=53 v=90
199872 On ch=2 n=57 v=90
199872 On ch=2 n=60 v=90
199872 On ch=2 n=64 v=90
200136 Off ch=2 n=53 v=64
200136 Off ch=2 n=57 v=64
200136 Off ch=2 n=60 v=64
200136 Off ch=2 n=64 v=64
200160 On ch=2 n=64 v=90
200160 On ch=2 n=60 v=90
200160 On ch=2 n=57 v=90
200160 On ch=2 n=53 v=90
200232 Off ch=2 n=64 v=64
200232 Off ch=2 n=60 v=64
200232 Off ch=2 n=57 v=64
200232 Off ch=2 n=53 v=64
200256 On ch=2 n=53 v=90
200256 On ch=2 n=57 v=90
200256 On ch=2 n=60 v=90
200256 On ch=2 n=64 v=90
200424 Off ch=2 n=53 v=64
200424 Off ch=2 n=57 v=64
200424 Off ch=2 n=60 v=64
200424 Off ch=2 n=64 v=64
200448 On ch=2 n=53 v=90
200448 On ch=2 n=57 v=90
200448 On ch=2 n=60 v=90
200448 On ch=2 n=64 v=90
200616 Off ch=2 n=53 v=64
200616 Off ch=2 n=57 v=64
200616 Off ch=2 n=60 v=64
200616 Off ch=2 n=64 v=64
200640 On ch=2 n=64 v=90
200640 On ch=2 n=60 v=90
200640 On ch=2 n=57 v=90
200640 On ch=2 n=53 v=90
201000 Off ch=2 n=64 v=64
201000 Off ch=2 n=60 v=64
201000 Off ch=2 n=57 v=64
201000 Off ch=2 n=53 v=64
201024 On ch=2 n=52 v=90
201024 On ch=2 n=57 v=90
201024 On ch=2 n=60 v=90
201024 On ch=2 n=64 v=90
201384 Off ch=2 n=52 v=64
201384 Off ch=2 n=57 v=64
201384 Off ch=2 n=60 v=64
201384 Off ch=2 n=64 v=64
201408 On ch=2 n=64 v=90
201408 On ch=2 n=60 v=90
201408 On ch=2 n=57 v=90
201408 On ch=2 n=52 v=90
201672 Off ch=2 n=64 v=64
201672 Off ch=2 n=60 v=64
201672 Off ch=2 n=57 v=64
201672 Off ch=2 n=52 v=64
201696 On ch=2 n=52 v=90
201696 On ch=2 n=57 v=90
201696 On ch=2 n=60 v=90
201696 On ch=2 n=64 v=90
201768 Off ch=2 n=52 v=64
201768 Off ch=2 n=57 v=64
201768 Off ch=2 n=60 v=64
201768 Off ch=2 n=64 v=64
201792 On ch=2 n=64 v=90
201792 On ch=2 n=60 v=90
201792 On ch=2 n=52 v=90
201792 On ch=2 n=55 v=90
201960 Off ch=2 n=64 v=64
201960 Off ch=2 n=60 v=64
201960 Off ch=2 n=52 v=64
201960 Off ch=2 n=55 v=64
201984 On ch=2 n=64 v=90
201984 On ch=2 n=60 v=90
201984 On ch=2 n=55 v=90
201984 On ch=2 n=52 v=90
202152 Off ch=2 n=64 v=64
202152 Off ch=2 n=60 v=64
202152 Off ch=2 n=55 v=64
202152 Off ch=2 n=52 v=64
202176 On ch=2 n=64 v=90
202176 On ch=2 n=60 v=90
202176 On ch=2 n=52 v=90
202176 On ch=2 n=55 v=90
202536 Off ch=2 n=64 v=64
202536 Off ch=2 n=60 v=64
202536 Off ch=2 n=52 v=64
202536 Off ch=2 n=55 v=64
202560 On ch=2 n=53 v=90
202560 On ch=2 n=57 v=90
202560 On ch=2 n=60 v=90
202560 On ch=2 n=64 v=90
202920 Off ch=2 n=53 v=64
202920 Off ch=2 n=57 v=64
202920 Off ch=2 n=60 v=64
202920 Off ch=2 n=64 v=64
202944 On ch=2 n=53 v=90
202944 On ch=2 n=57 v=90
202944 On ch=2 n=60 v=90
202944 On ch=2 n=64 v=90
203208 Off ch=2 n=53 v=64
203208 Off ch=2 n=57 v=64
203208 Off ch=2 n=60 v=64
203208 Off ch=2 n=64 v=64
203232 On ch=2 n=64 v=90
203232 On ch=2 n=60 v=90
203232 On ch=2 n=57 v=90
203232 On ch=2 n=53 v=90
203304 Off ch=2 n=64 v=64
203304 Off ch=2 n=60 v=64
203304 Off ch=2 n=57 v=64
203304 Off ch=2 n=53 v=64
203328 On ch=2 n=53 v=90
203328 On ch=2 n=57 v=90
203328 On ch=2 n=60 v=90
203328 On ch=2 n=64 v=90
203496 Off ch=2 n=53 v=64
203496 Off ch=2 n=57 v=64
203496 Off ch=2 n=60 v=64
203496 Off ch=2 n=64 v=64
203520 On ch=2 n=53 v=90
203520 On ch=2 n=57 v=90
203520 On ch=2 n=60 v=90
203520 On ch=2 n=64 v=90
203688 Off ch=2 n=53 v=64
203688 Off ch=2 n=57 v=64
203688 Off ch=2 n=60 v=64
203688 Off ch=2 n=64 v=64
203712 On ch=2 n=64 v=90
203712 On ch=2 n=60 v=90
203712 On ch=2 n=57 v=90
203712 On ch=2 n=53 v=90
204072 Off ch=2 n=64 v=64
204072 Off ch=2 n=60 v=64
204072 Off ch=2 n=57 v=64
204072 Off ch=2 n=53 v=64
204096 On ch=2 n=57 v=90
204096 On ch=2 n=60 v=90
204096 On ch=2 n=64 v=90
204096 On ch=2 n=52 v=90
204456 Off ch=2 n=52 v=64
204456 Off ch=2 n=57 v=64
204456 Off ch=2 n=60 v=64
204456 Off ch=2 n=64 v=64
204480 On ch=2 n=57 v=90
204480 On ch=2 n=60 v=90
204480 On ch=2 n=64 v=90
204480 On ch=2 n=52 v=90
204840 Off ch=2 n=57 v=64
204840 Off ch=2 n=60 v=64
204840 Off ch=2 n=64 v=64
204840 Off ch=2 n=52 v=64
204864 On ch=2 n=60 v=90
204864 On ch=2 n=64 v=90
204864 On ch=2 n=52 v=90
204864 On ch=2 n=55 v=90
205224 Off ch=2 n=60 v=64
205224 Off ch=2 n=64 v=64
205224 Off ch=2 n=52 v=64
205224 Off ch=2 n=55 v=64
205248 On ch=2 n=64 v=90
205248 On ch=2 n=60 v=90
205248 On ch=2 n=52 v=90
205248 On ch=2 n=55 v=90
205608 Off ch=2 n=64 v=64
205608 Off ch=2 n=60 v=64
205608 Off ch=2 n=52 v=64
205608 Off ch=2 n=55 v=64
205632 On ch=2 n=53 v=90
205632 On ch=2 n=57 v=90
205632 On ch=2 n=60 v=90
205632 On ch=2 n=64 v=90
205992 Off ch=2 n=53 v=64
205992 Off ch=2 n=57 v=64
205992 Off ch=2 n=60 v=64
205992 Off ch=2 n=64 v=64
206016 On ch=2 n=53 v=90
206016 On ch=2 n=57 v=90
206016 On ch=2 n=60 v=90
206016 On ch=2 n=64 v=90
206280 Off ch=2 n=53 v=64
206280 Off ch=2 n=57 v=64
206280 Off ch=2 n=60 v=64
206280 Off ch=2 n=64 v=64
206304 On ch=2 n=64 v=90
206304 On ch=2 n=60 v=90
206304 On ch=2 n=57 v=90
206304 On ch=2 n=53 v=90
206376 Off ch=2 n=64 v=64
206376 Off ch=2 n=60 v=64
206376 Off ch=2 n=57 v=64
206376 Off ch=2 n=53 v=64
206400 On ch=2 n=53 v=90
206400 On ch=2 n=57 v=90
206400 On ch=2 n=60 v=90
206400 On ch=2 n=64 v=90
206760 Off ch=2 n=53 v=64
206760 Off ch=2 n=57 v=64
206760 Off ch=2 n=60 v=64
206760 Off ch=2 n=64 v=64
206784 On ch=2 n=64 v=90
206784 On ch=2 n=60 v=90
206784 On ch=2 n=57 v=90
206784 On ch=2 n=53 v=90
207144 Off ch=2 n=64 v=64
207144 Off ch=2 n=60 v=64
207144 Off ch=2 n=57 v=64
207144 Off ch=2 n=53 v=64
207168 On ch=2 n=57 v=90
207168 On ch=2 n=60 v=90
207168 On ch=2 n=64 v=90
207168 On ch=2 n=52 v=90
207528 Off ch=2 n=52 v=64
207528 Off ch=2 n=57 v=64
207528 Off ch=2 n=60 v=64
207528 Off ch=2 n=64 v=64
207552 On ch=2 n=57 v=90
207552 On ch=2 n=60 v=90
207552 On ch=2 n=64 v=90
207552 On ch=2 n=52 v=90
207912 Off ch=2 n=57 v=64
207912 Off ch=2 n=60 v=64
207912 Off ch=2 n=64 v=64
207912 Off ch=2 n=52 v=64
207936 On ch=2 n=60 v=90
207936 On ch=2 n=64 v=90
207936 On ch=2 n=52 v=90
207936 On ch=2 n=55 v=90
208296 Off ch=2 n=60 v=64
208296 Off ch=2 n=64 v=64
208296 Off ch=2 n=52 v=64
208296 Off ch=2 n=55 v=64
208320 On ch=2 n=64 v=90
208320 On ch=2 n=60 v=90
208320 On ch=2 n=52 v=90
208320 On ch=2 n=55 v=90
208680 Off ch=2 n=64 v=64
208680 Off ch=2 n=60 v=64
208680 Off ch=2 n=52 v=64
208680 Off ch=2 n=55 v=64
208704 On ch=2 n=53 v=90
208704 On ch=2 n=57 v=90
208704 On ch=2 n=60 v=90
208704 On ch=2 n=64 v=90
209064 Off ch=2 n=53 v=64
209064 Off ch=2 n=57 v=64
209064 Off ch=2 n=60 v=64
209064 Off ch=2 n=64 v=64
209088 On ch=2 n=53 v=90
209088 On ch=2 n=57 v=90
209088 On ch=2 n=60 v=90
209088 On ch=2 n=64 v=90
209352 Off ch=2 n=53 v=64
209352 Off ch=2 n=57 v=64
209352 Off ch=2 n=60 v=64
209352 Off ch=2 n=64 v=64
209376 On ch=2 n=64 v=90
209376 On ch=2 n=60 v=90
209376 On ch=2 n=57 v=90
209376 On ch=2 n=53 v=90
209448 Off ch=2 n=64 v=64
209448 Off ch=2 n=60 v=64
209448 Off ch=2 n=57 v=64
209448 Off ch=2 n=53 v=64
209472 On ch=2 n=53 v=90
209472 On ch=2 n=57 v=90
209472 On ch=2 n=60 v=90
209472 On ch=2 n=64 v=90
209832 Off ch=2 n=53 v=64
209832 Off ch=2 n=57 v=64
209832 Off ch=2 n=60 v=64
209832 Off ch=2 n=64 v=64
209856 On ch=2 n=64 v=90
209856 On ch=2 n=60 v=90
209856 On ch=2 n=57 v=90
209856 On ch=2 n=53 v=90
210216 Off ch=2 n=64 v=64
210216 Off ch=2 n=60 v=64
210216 Off ch=2 n=57 v=64
210216 Off ch=2 n=53 v=64
210240 On ch=2 n=45 v=110
210240 On ch=2 n=52 v=110
210240 On ch=2 n=57 v=110
210240 On ch=2 n=60 v=110
210240 On ch=2 n=64 v=110
210240 On ch=2 n=69 v=110
210432 Off ch=2 n=45 v=64
210432 Off ch=2 n=52 v=64
210432 Off ch=2 n=57 v=64
210432 Off ch=2 n=60 v=64
210432 Off ch=2 n=64 v=64
210432 Off ch=2 n=69 v=64
210432 On ch=2 n=45 v=110
210432 Off ch=2 n=45 v=64
210432 On ch=2 n=52 v=110
210432 Off ch=2 n=52 v=64
210432 On ch=2 n=57 v=110
210432 Off ch=2 n=57 v=64
210432 On ch=2 n=60 v=110
210432 Off ch=2 n=60 v=64
210432 On ch=2 n=64 v=110
210432 Off ch=2 n=64 v=64
210432 On ch=2 n=69 v=110
210432 Off ch=2 n=69 v=64
211008 On ch=2 n=43 v=110
211008 On ch=2 n=50 v=110
211008 On ch=2 n=67 v=110
211008 On ch=2 n=62 v=110
211008 On ch=2 n=59 v=110
211008 On ch=2 n=55 v=110
211200 Off ch=2 n=43 v=64
211200 Off ch=2 n=50 v=64
211200 Off ch=2 n=67 v=64
211200 Off ch=2 n=62 v=64
211200 Off ch=2 n=59 v=64
211200 Off ch=2 n=55 v=64
211200 On ch=2 n=43 v=110
211200 On ch=2 n=50 v=110
211200 On ch=2 n=55 v=110
211200 On ch=2 n=59 v=110
211200 On ch=2 n=62 v=110
211200 On ch=2 n=67 v=110
211392 Off ch=2 n=43 v=64
211392 Off ch=2 n=50 v=64
211392 Off ch=2 n=55 v=64
211392 Off ch=2 n=59 v=64
211392 Off ch=2 n=62 v=64
211392 Off ch=2 n=67 v=64
211776 On ch=2 n=48 v=110
211776 On ch=2 n=41 v=110
211776 On ch=2 n=53 v=110
211776 On ch=2 n=57 v=110
211776 On ch=2 n=60 v=110
211776 On ch=2 n=65 v=110
211968 Off ch=2 n=48 v=64
211968 Off ch=2 n=41 v=64
211968 Off ch=2 n=53 v=64
211968 Off ch=2 n=57 v=64
211968 Off ch=2 n=60 v=64
211968 Off ch=2 n=65 v=64
212064 On ch=2 n=65 v=110
212064 On ch=2 n=60 v=110
212064 On ch=2 n=57 v=110
212064 On ch=2 n=53 v=110
212064 On ch=2 n=48 v=110
212064 On ch=2 n=41 v=110
212160 Off ch=2 n=65 v=64
212160 Off ch=2 n=60 v=64
212160 Off ch=2 n=57 v=64
212160 Off ch=2 n=53 v=64
212160 Off ch=2 n=48 v=64
212160 Off ch=2 n=41 v=64
212352 On ch=2 n=65 v=110
212352 On ch=2 n=60 v=110
212352 On ch=2 n=57 v=110
212352 On ch=2 n=53 v=110
212352 On ch=2 n=48 v=110
212352 On ch=2 n=41 v=110
212448 Off ch=2 n=65 v=64
212448 Off ch=2 n=60 v=64
212448 Off ch=2 n=57 v=64
212448 Off ch=2 n=53 v=64
212448 Off ch=2 n=48 v=64
212448 Off ch=2 n=41 v=64
212640 On ch=2 n=65 v=110
212640 On ch=2 n=60 v=110
212640 On ch=2 n=57 v=110
212640 On ch=2 n=53 v=110
212640 On ch=2 n=48 v=110
212640 On ch=2 n=41 v=110
212736 Off ch=2 n=65 v=64
212736 Off ch=2 n=60 v=64
212736 Off ch=2 n=57 v=64
212736 Off ch=2 n=53 v=64
212736 Off ch=2 n=48 v=64
212736 Off ch=2 n=41 v=64
212928 On ch=2 n=65 v=110
212928 On ch=2 n=60 v=110
212928 On ch=2 n=57 v=110
212928 On ch=2 n=53 v=110
212928 On ch=2 n=48 v=110
212928 On ch=2 n=41 v=110
213120 Off ch=2 n=65 v=64
213120 Off ch=2 n=60 v=64
213120 Off ch=2 n=57 v=64
213120 Off ch=2 n=53 v=64
213120 Off ch=2 n=48 v=64
213120 Off ch=2 n=41 v=64
213120 On ch=2 n=43 v=110
213120 On ch=2 n=50 v=110
213120 On ch=2 n=55 v=110
213120 On ch=2 n=59 v=110
213120 On ch=2 n=62 v=110
213120 On ch=2 n=67 v=110
213312 Off ch=2 n=43 v=64
213312 Off ch=2 n=50 v=64
213312 Off ch=2 n=55 v=64
213312 Off ch=2 n=59 v=64
213312 Off ch=2 n=62 v=64
213312 Off ch=2 n=67 v=64
213312 On ch=2 n=45 v=110
213312 On ch=2 n=52 v=110
213312 On ch=2 n=57 v=110
213312 On ch=2 n=60 v=110
213312 On ch=2 n=64 v=110
213312 On ch=2 n=69 v=110
213504 Off ch=2 n=45 v=64
213504 Off ch=2 n=52 v=64
213504 Off ch=2 n=57 v=64
213504 Off ch=2 n=60 v=64
213504 Off ch=2 n=64 v=64
213504 Off ch=2 n=69 v=64
213504 On ch=2 n=45 v=110
213504 Off ch=2 n=45 v=64
213504 On ch=2 n=52 v=110
213504 Off ch=2 n=52 v=64
213504 On ch=2 n=57 v=110
213504 Off ch=2 n=57 v=64
213504 On ch=2 n=60 v=110
213504 Off ch=2 n=60 v=64
213504 On ch=2 n=64 v=110
213504 Off ch=2 n=64 v=64
213504 On ch=2 n=69 v=110
213504 Off ch=2 n=69 v=64
214080 On ch=2 n=43 v=110
214080 On ch=2 n=50 v=110
214080 On ch=2 n=67 v=110
214080 On ch=2 n=62 v=110
214080 On ch=2 n=59 v=110
214080 On ch=2 n=55 v=110
214272 Off ch=2 n=43 v=64
214272 Off ch=2 n=50 v=64
214272 Off ch=2 n=67 v=64
214272 Off ch=2 n=62 v=64
214272 Off ch=2 n=59 v=64
214272 Off ch=2 n=55 v=64
214272 On ch=2 n=43 v=110
214272 On ch=2 n=50 v=110
214272 On ch=2 n=55 v=110
214272 On ch=2 n=59 v=110
214272 On ch=2 n=62 v=110
214272 On ch=2 n=67 v=110
214464 Off ch=2 n=43 v=64
214464 Off ch=2 n=50 v=64
214464 Off ch=2 n=55 v=64
214464 Off ch=2 n=59 v=64
214464 Off ch=2 n=62 v=64
214464 Off ch=2 n=67 v=64
214848 On ch=2 n=48 v=110
214848 On ch=2 n=41 v=110
214848 On ch=2 n=53 v=110
214848 On ch=2 n=57 v=110
214848 On ch=2 n=60 v=110
214848 On ch=2 n=65 v=110
215040 Off ch=2 n=48 v=64
215040 Off ch=2 n=41 v=64
215040 Off ch=2 n=53 v=64
215040 Off ch=2 n=57 v=64
215040 Off ch=2 n=60 v=64
215040 Off ch=2 n=65 v=64
215136 On ch=2 n=65 v=110
215136 On ch=2 n=60 v=110
215136 On ch=2 n=57 v=110
215136 On ch=2 n=53 v=110
215136 On ch=2 n=48 v=110
215136 On ch=2 n=41 v=110
215232 Off ch=2 n=65 v=64
215232 Off ch=2 n=60 v=64
215232 Off ch=2 n=57 v=64
215232 Off ch=2 n=53 v=64
215232 Off ch=2 n=48 v=64
215232 Off ch=2 n=41 v=64
215424 On ch=2 n=65 v=110
215424 On ch=2 n=60 v=110
215424 On ch=2 n=57 v=110
215424 On ch=2 n=53 v=110
215424 On ch=2 n=48 v=110
215424 On ch=2 n=41 v=110
215520 Off ch=2 n=65 v=64
215520 Off ch=2 n=60 v=64
215520 Off ch=2 n=57 v=64
215520 Off ch=2 n=53 v=64
215520 Off ch=2 n=48 v=64
215520 Off ch=2 n=41 v=64
215712 On ch=2 n=65 v=110
215712 On ch=2 n=60 v=110
215712 On ch=2 n=57 v=110
215712 On ch=2 n=53 v=110
215712 On ch=2 n=48 v=110
215712 On ch=2 n=41 v=110
215808 Off ch=2 n=65 v=64
215808 Off ch=2 n=60 v=64
215808 Off ch=2 n=57 v=64
215808 Off ch=2 n=53 v=64
215808 Off ch=2 n=48 v=64
215808 Off ch=2 n=41 v=64
216000 On ch=2 n=65 v=110
216000 On ch=2 n=60 v=110
216000 On ch=2 n=57 v=110
216000 On ch=2 n=53 v=110
216000 On ch=2 n=48 v=110
216000 On ch=2 n=41 v=110
216192 Off ch=2 n=65 v=64
216192 Off ch=2 n=60 v=64
216192 Off ch=2 n=57 v=64
216192 Off ch=2 n=53 v=64
216192 Off ch=2 n=48 v=64
216192 Off ch=2 n=41 v=64
216192 On ch=2 n=43 v=110
216192 On ch=2 n=50 v=110
216192 On ch=2 n=55 v=110
216192 On ch=2 n=59 v=110
216192 On ch=2 n=62 v=110
216192 On ch=2 n=67 v=110
216384 Off ch=2 n=43 v=64
216384 Off ch=2 n=50 v=64
216384 Off ch=2 n=55 v=64
216384 Off ch=2 n=59 v=64
216384 Off ch=2 n=62 v=64
216384 Off ch=2 n=67 v=64
216384 On ch=2 n=45 v=110
216384 On ch=2 n=52 v=110
216384 On ch=2 n=57 v=110
216384 On ch=2 n=60 v=110
216384 On ch=2 n=64 v=110
216384 On ch=2 n=69 v=110
216576 Off ch=2 n=45 v=64
216576 Off ch=2 n=52 v=64
216576 Off ch=2 n=57 v=64
216576 Off ch=2 n=60 v=64
216576 Off ch=2 n=64 v=64
216576 Off ch=2 n=69 v=64
216576 On ch=2 n=45 v=110
216576 Off ch=2 n=45 v=64
216576 On ch=2 n=52 v=110
216576 Off ch=2 n=52 v=64
216576 On ch=2 n=57 v=110
216576 Off ch=2 n=57 v=64
216576 On ch=2 n=60 v=110
216576 Off ch=2 n=60 v=64
216576 On ch=2 n=64 v=110
216576 Off ch=2 n=64 v=64
216576 On ch=2 n=69 v=110
216576 Off ch=2 n=69 v=64
217152 On ch=2 n=43 v=110
217152 On ch=2 n=50 v=110
217152 On ch=2 n=67 v=110
217152 On ch=2 n=62 v=110
217152 On ch=2 n=59 v=110
217152 On ch=2 n=55 v=110
217344 Off ch=2 n=43 v=64
217344 Off ch=2 n=50 v=64
217344 Off ch=2 n=67 v=64
217344 Off ch=2 n=62 v=64
217344 Off ch=2 n=59 v=64
217344 Off ch=2 n=55 v=64
217344 On ch=2 n=43 v=110
217344 On ch=2 n=50 v=110
217344 On ch=2 n=55 v=110
217344 On ch=2 n=59 v=110
217344 On ch=2 n=62 v=110
217344 On ch=2 n=67 v=110
217536 Off ch=2 n=43 v=64
217536 Off ch=2 n=50 v=64
217536 Off ch=2 n=55 v=64
217536 Off ch=2 n=59 v=64
217536 Off ch=2 n=62 v=64
217536 Off ch=2 n=67 v=64
217920 On ch=2 n=48 v=110
217920 On ch=2 n=41 v=110
217920 On ch=2 n=53 v=110
217920 On ch=2 n=57 v=110
217920 On ch=2 n=60 v=110
217920 On ch=2 n=65 v=110
218112 Off ch=2 n=48 v=64
218112 Off ch=2 n=41 v=64
218112 Off ch=2 n=53 v=64
218112 Off ch=2 n=57 v=64
218112 Off ch=2 n=60 v=64
218112 Off ch=2 n=65 v=64
218208 On ch=2 n=65 v=110
218208 On ch=2 n=60 v=110
218208 On ch=2 n=57 v=110
218208 On ch=2 n=53 v=110
218208 On ch=2 n=48 v=110
218208 On ch=2 n=41 v=110
218304 Off ch=2 n=65 v=64
218304 Off ch=2 n=60 v=64
218304 Off ch=2 n=57 v=64
218304 Off ch=2 n=53 v=64
218304 Off ch=2 n=48 v=64
218304 Off ch=2 n=41 v=64
218496 On ch=2 n=65 v=110
218496 On ch=2 n=60 v=110
218496 On ch=2 n=57 v=110
218496 On ch=2 n=53 v=110
218496 On ch=2 n=48 v=110
218496 On ch=2 n=41 v=110
218592 Off ch=2 n=65 v=64
218592 Off ch=2 n=60 v=64
218592 Off ch=2 n=57 v=64
218592 Off ch=2 n=53 v=64
218592 Off ch=2 n=48 v=64
218592 Off ch=2 n=41 v=64
218784 On ch=2 n=65 v=110
218784 On ch=2 n=60 v=110
218784 On ch=2 n=57 v=110
218784 On ch=2 n=53 v=110
218784 On ch=2 n=48 v=110
218784 On ch=2 n=41 v=110
218880 Off ch=2 n=65 v=64
218880 Off ch=2 n=60 v=64
218880 Off ch=2 n=57 v=64
218880 Off ch=2 n=53 v=64
218880 Off ch=2 n=48 v=64
218880 Off ch=2 n=41 v=64
219072 On ch=2 n=65 v=110
219072 On ch=2 n=60 v=110
219072 On ch=2 n=57 v=110
219072 On ch=2 n=53 v=110
219072 On ch=2 n=48 v=110
219072 On ch=2 n=41 v=110
219264 Off ch=2 n=65 v=64
219264 Off ch=2 n=60 v=64
219264 Off ch=2 n=57 v=64
219264 Off ch=2 n=53 v=64
219264 Off ch=2 n=48 v=64
219264 Off ch=2 n=41 v=64
219264 On ch=2 n=43 v=110
219264 On ch=2 n=50 v=110
219264 On ch=2 n=55 v=110
219264 On ch=2 n=59 v=110
219264 On ch=2 n=62 v=110
219264 On ch=2 n=67 v=110
219456 Off ch=2 n=43 v=64
219456 Off ch=2 n=50 v=64
219456 Off ch=2 n=55 v=64
219456 Off ch=2 n=59 v=64
219456 Off ch=2 n=62 v=64
219456 Off ch=2 n=67 v=64
219456 On ch=2 n=45 v=110
219456 On ch=2 n=52 v=110
219456 On ch=2 n=57 v=110
219456 On ch=2 n=60 v=110
219456 On ch=2 n=64 v=110
219456 On ch=2 n=69 v=110
219648 Off ch=2 n=45 v=64
219648 Off ch=2 n=52 v=64
219648 Off ch=2 n=57 v=64
219648 Off ch=2 n=60 v=64
219648 Off ch=2 n=64 v=64
219648 Off ch=2 n=69 v=64
219648 On ch=2 n=45 v=110
219648 Off ch=2 n=45 v=64
219648 On ch=2 n=52 v=110
219648 Off ch=2 n=52 v=64
219648 On ch=2 n=57 v=110
219648 Off ch=2 n=57 v=64
219648 On ch=2 n=60 v=110
219648 Off ch=2 n=60 v=64
219648 On ch=2 n=64 v=110
219648 Off ch=2 n=64 v=64
219648 On ch=2 n=69 v=110
219648 Off ch=2 n=69 v=64
220224 On ch=2 n=43 v=110
220224 On ch=2 n=50 v=110
220224 On ch=2 n=67 v=110
220224 On ch=2 n=62 v=110
220224 On ch=2 n=59 v=110
220224 On ch=2 n=55 v=110
220416 Off ch=2 n=43 v=64
220416 Off ch=2 n=50 v=64
220416 Off ch=2 n=67 v=64
220416 Off ch=2 n=62 v=64
220416 Off ch=2 n=59 v=64
220416 Off ch=2 n=55 v=64
220416 On ch=2 n=43 v=110
220416 On ch=2 n=50 v=110
220416 On ch=2 n=55 v=110
220416 On ch=2 n=59 v=110
220416 On ch=2 n=62 v=110
220416 On ch=2 n=67 v=110
220608 Off ch=2 n=43 v=64
220608 Off ch=2 n=50 v=64
220608 Off ch=2 n=55 v=64
220608 Off ch=2 n=59 v=64
220608 Off ch=2 n=62 v=64
220608 Off ch=2 n=67 v=64
220992 On ch=2 n=48 v=110
220992 On ch=2 n=41 v=110
220992 On ch=2 n=53 v=110
220992 On ch=2 n=57 v=110
220992 On ch=2 n=60 v=110
220992 On ch=2 n=65 v=110
221184 Off ch=2 n=48 v=64
221184 Off ch=2 n=41 v=64
221184 Off ch=2 n=53 v=64
221184 Off ch=2 n=57 v=64
221184 Off ch=2 n=60 v=64
221184 Off ch=2 n=65 v=64
221280 On ch=2 n=65 v=110
221280 On ch=2 n=60 v=110
221280 On ch=2 n=57 v=110
221280 On ch=2 n=53 v=110
221280 On ch=2 n=48 v=110
221280 On ch=2 n=41 v=110
221376 Off ch=2 n=65 v=64
221376 Off ch=2 n=60 v=64
221376 Off ch=2 n=57 v=64
221376 Off ch=2 n=53 v=64
221376 Off ch=2 n=48 v=64
221376 Off ch=2 n=41 v=64
221568 On ch=2 n=65 v=110
221568 On ch=2 n=60 v=110
221568 On ch=2 n=57 v=110
221568 On ch=2 n=53 v=110
221568 On ch=2 n=48 v=110
221568 On ch=2 n=41 v=110
221664 Off ch=2 n=65 v=64
221664 Off ch=2 n=60 v=64
221664 Off ch=2 n=57 v=64
221664 Off ch=2 n=53 v=64
221664 Off ch=2 n=48 v=64
221664 Off ch=2 n=41 v=64
221856 On ch=2 n=65 v=110
221856 On ch=2 n=60 v=110
221856 On ch=2 n=57 v=110
221856 On ch=2 n=53 v=110
221856 On ch=2 n=48 v=110
221856 On ch=2 n=41 v=110
221952 Off ch=2 n=65 v=64
221952 Off ch=2 n=60 v=64
221952 Off ch=2 n=57 v=64
221952 Off ch=2 n=53 v=64
221952 Off ch=2 n=48 v=64
221952 Off ch=2 n=41 v=64
222144 On ch=2 n=65 v=110
222144 On ch=2 n=60 v=110
222144 On ch=2 n=57 v=110
222144 On ch=2 n=53 v=110
222144 On ch=2 n=48 v=110
222144 On ch=2 n=41 v=110
222336 Off ch=2 n=65 v=64
222336 Off ch=2 n=60 v=64
222336 Off ch=2 n=57 v=64
222336 Off ch=2 n=53 v=64
222336 Off ch=2 n=48 v=64
222336 Off ch=2 n=41 v=64
222336 On ch=2 n=43 v=110
222336 On ch=2 n=50 v=110
222336 On ch=2 n=55 v=110
222336 On ch=2 n=59 v=110
222336 On ch=2 n=62 v=110
222336 On ch=2 n=67 v=110
222528 Off ch=2 n=43 v=64
222528 Off ch=2 n=50 v=64
222528 Off ch=2 n=55 v=64
222528 Off ch=2 n=59 v=64
222528 Off ch=2 n=62 v=64
222528 Off ch=2 n=67 v=64
222528 On ch=2 n=45 v=110
222528 On ch=2 n=52 v=110
222528 On ch=2 n=57 v=110
222528 On ch=2 n=60 v=110
222528 On ch=2 n=64 v=110
222528 On ch=2 n=69 v=110
222720 Off ch=2 n=45 v=64
222720 Off ch=2 n=52 v=64
222720 Off ch=2 n=57 v=64
222720 Off ch=2 n=60 v=64
222720 Off ch=2 n=64 v=64
222720 Off ch=2 n=69 v=64
222720 On ch=2 n=45 v=110
222720 Off ch=2 n=45 v=64
222720 On ch=2 n=52 v=110
222720 Off ch=2 n=52 v=64
222720 On ch=2 n=57 v=110
222720 Off ch=2 n=57 v=64
222720 On ch=2 n=60 v=110
222720 Off ch=2 n=60 v=64
222720 On ch=2 n=64 v=110
222720 Off ch=2 n=64 v=64
222720 On ch=2 n=69 v=110
222720 Off ch=2 n=69 v=64
223296 On ch=2 n=43 v=110
223296 On ch=2 n=50 v=110
223296 On ch=2 n=67 v=110
223296 On ch=2 n=62 v=110
223296 On ch=2 n=59 v=110
223296 On ch=2 n=55 v=110
223488 Off ch=2 n=43 v=64
223488 Off ch=2 n=50 v=64
223488 Off ch=2 n=67 v=64
223488 Off ch=2 n=62 v=64
223488 Off ch=2 n=59 v=64
223488 Off ch=2 n=55 v=64
223488 On ch=2 n=43 v=110
223488 On ch=2 n=50 v=110
223488 On ch=2 n=55 v=110
223488 On ch=2 n=59 v=110
223488 On ch=2 n=62 v=110
223488 On ch=2 n=67 v=110
223680 Off ch=2 n=43 v=64
223680 Off ch=2 n=50 v=64
223680 Off ch=2 n=55 v=64
223680 Off ch=2 n=59 v=64
223680 Off ch=2 n=62 v=64
223680 Off ch=2 n=67 v=64
224064 On ch=2 n=48 v=110
224064 On ch=2 n=41 v=110
224064 On ch=2 n=53 v=110
224064 On ch=2 n=57 v=110
224064 On ch=2 n=60 v=110
224064 On ch=2 n=65 v=110
224256 Off ch=2 n=48 v=64
224256 Off ch=2 n=41 v=64
224256 Off ch=2 n=53 v=64
224256 Off ch=2 n=57 v=64
224256 Off ch=2 n=60 v=64
224256 Off ch=2 n=65 v=64
224352 On ch=2 n=65 v=110
224352 On ch=2 n=60 v=110
224352 On ch=2 n=57 v=110
224352 On ch=2 n=53 v=110
224352 On ch=2 n=48 v=110
224352 On ch=2 n=41 v=110
224448 Off ch=2 n=65 v=64
224448 Off ch=2 n=60 v=64
224448 Off ch=2 n=57 v=64
224448 Off ch=2 n=53 v=64
224448 Off ch=2 n=48 v=64
224448 Off ch=2 n=41 v=64
224640 On ch=2 n=65 v=110
224640 On ch=2 n=60 v=110
224640 On ch=2 n=57 v=110
224640 On ch=2 n=53 v=110
224640 On ch=2 n=48 v=110
224640 On ch=2 n=41 v=110
224736 Off ch=2 n=65 v=64
224736 Off ch=2 n=60 v=64
224736 Off ch=2 n=57 v=64
224736 Off ch=2 n=53 v=64
224736 Off ch=2 n=48 v=64
224736 Off ch=2 n=41 v=64
224928 On ch=2 n=65 v=110
224928 On ch=2 n=60 v=110
224928 On ch=2 n=57 v=110
224928 On ch=2 n=53 v=110
224928 On ch=2 n=48 v=110
224928 On ch=2 n=41 v=110
225024 Off ch=2 n=65 v=64
225024 Off ch=2 n=60 v=64
225024 Off ch=2 n=57 v=64
225024 Off ch=2 n=53 v=64
225024 Off ch=2 n=48 v=64
225024 Off ch=2 n=41 v=64
225216 On ch=2 n=65 v=110
225216 On ch=2 n=60 v=110
225216 On ch=2 n=57 v=110
225216 On ch=2 n=53 v=110
225216 On ch=2 n=48 v=110
225216 On ch=2 n=41 v=110
225408 Off ch=2 n=65 v=64
225408 Off ch=2 n=60 v=64
225408 Off ch=2 n=57 v=64
225408 Off ch=2 n=53 v=64
225408 Off ch=2 n=48 v=64
225408 Off ch=2 n=41 v=64
225408 On ch=2 n=43 v=110
225408 On ch=2 n=50 v=110
225408 On ch=2 n=55 v=110
225408 On ch=2 n=59 v=110
225408 On ch=2 n=62 v=110
225408 On ch=2 n=67 v=110
225600 Off ch=2 n=43 v=64
225600 Off ch=2 n=50 v=64
225600 Off ch=2 n=55 v=64
225600 Off ch=2 n=59 v=64
225600 Off ch=2 n=62 v=64
225600 Off ch=2 n=67 v=64
225600 On ch=2 n=45 v=110
225600 On ch=2 n=52 v=110
225600 On ch=2 n=57 v=110
225600 On ch=2 n=60 v=110
225600 On ch=2 n=64 v=110
225600 On ch=2 n=69 v=110
225792 Off ch=2 n=45 v=64
225792 Off ch=2 n=52 v=64
225792 Off ch=2 n=57 v=64
225792 Off ch=2 n=60 v=64
225792 Off ch=2 n=64 v=64
225792 Off ch=2 n=69 v=64
225792 On ch=2 n=45 v=110
225792 Off ch=2 n=45 v=64
225792 On ch=2 n=52 v=110
225792 Off ch=2 n=52 v=64
225792 On ch=2 n=57 v=110
225792 Off ch=2 n=57 v=64
225792 On ch=2 n=60 v=110
225792 Off ch=2 n=60 v=64
225792 On ch=2 n=64 v=110
225792 Off ch=2 n=64 v=64
225792 On ch=2 n=69 v=110
225792 Off ch=2 n=69 v=64
226368 On ch=2 n=43 v=110
226368 On ch=2 n=50 v=110
226368 On ch=2 n=67 v=110
226368 On ch=2 n=62 v=110
226368 On ch=2 n=59 v=110
226368 On ch=2 n=55 v=110
226560 Off ch=2 n=43 v=64
226560 Off ch=2 n=50 v=64
226560 Off ch=2 n=67 v=64
226560 Off ch=2 n=62 v=64
226560 Off ch=2 n=59 v=64
226560 Off ch=2 n=55 v=64
226560 On ch=2 n=43 v=110
226560 On ch=2 n=50 v=110
226560 On ch=2 n=55 v=110
226560 On ch=2 n=59 v=110
226560 On ch=2 n=62 v=110
226560 On ch=2 n=67 v=110
226752 Off ch=2 n=43 v=64
226752 Off ch=2 n=50 v=64
226752 Off ch=2 n=55 v=64
226752 Off ch=2 n=59 v=64
226752 Off ch=2 n=62 v=64
226752 Off ch=2 n=67 v=64
227136 On ch=2 n=48 v=110
227136 On ch=2 n=41 v=110
227136 On ch=2 n=53 v=110
227136 On ch=2 n=57 v=110
227136 On ch=2 n=60 v=110
227136 On ch=2 n=65 v=110
227328 Off ch=2 n=48 v=64
227328 Off ch=2 n=41 v=64
227328 Off ch=2 n=53 v=64
227328 Off ch=2 n=57 v=64
227328 Off ch=2 n=60 v=64
227328 Off ch=2 n=65 v=64
227424 On ch=2 n=65 v=110
227424 On ch=2 n=60 v=110
227424 On ch=2 n=57 v=110
227424 On ch=2 n=53 v=110
227424 On ch=2 n=48 v=110
227424 On ch=2 n=41 v=110
227520 Off ch=2 n=65 v=64
227520 Off ch=2 n=60 v=64
227520 Off ch=2 n=57 v=64
227520 Off ch=2 n=53 v=64
227520 Off ch=2 n=48 v=64
227520 Off ch=2 n=41 v=64
227712 On ch=2 n=65 v=110
227712 On ch=2 n=60 v=110
227712 On ch=2 n=57 v=110
227712 On ch=2 n=53 v=110
227712 On ch=2 n=48 v=110
227712 On ch=2 n=41 v=110
227808 Off ch=2 n=65 v=64
227808 Off ch=2 n=60 v=64
227808 Off ch=2 n=57 v=64
227808 Off ch=2 n=53 v=64
227808 Off ch=2 n=48 v=64
227808 Off ch=2 n=41 v=64
228000 On ch=2 n=65 v=110
228000 On ch=2 n=60 v=110
228000 On ch=2 n=57 v=110
228000 On ch=2 n=53 v=110
228000 On ch=2 n=48 v=110
228000 On ch=2 n=41 v=110
228096 Off ch=2 n=65 v=64
228096 Off ch=2 n=60 v=64
228096 Off ch=2 n=57 v=64
228096 Off ch=2 n=53 v=64
228096 Off ch=2 n=48 v=64
228096 Off ch=2 n=41 v=64
228288 On ch=2 n=65 v=110
228288 On ch=2 n=60 v=110
228288 On ch=2 n=57 v=110
228288 On ch=2 n=53 v=110
228288 On ch=2 n=48 v=110
228288 On ch=2 n=41 v=110
228480 Off ch=2 n=65 v=64
228480 Off ch=2 n=60 v=64
228480 Off ch=2 n=57 v=64
228480 Off ch=2 n=53 v=64
228480 Off ch=2 n=48 v=64
228480 Off ch=2 n=41 v=64
228480 On ch=2 n=43 v=110
228480 On ch=2 n=50 v=110
228480 On ch=2 n=55 v=110
228480 On ch=2 n=59 v=110
228480 On ch=2 n=62 v=110
228480 On ch=2 n=67 v=110
228672 Off ch=2 n=43 v=64
228672 Off ch=2 n=50 v=64
228672 Off ch=2 n=55 v=64
228672 Off ch=2 n=59 v=64
228672 Off ch=2 n=62 v=64
228672 Off ch=2 n=67 v=64
228672 On ch=2 n=45 v=110
228672 On ch=2 n=52 v=110
228672 On ch=2 n=57 v=110
228672 On ch=2 n=60 v=110
228672 On ch=2 n=64 v=110
228672 On ch=2 n=69 v=110
228864 Off ch=2 n=45 v=64
228864 Off ch=2 n=52 v=64
228864 Off ch=2 n=57 v=64
228864 Off ch=2 n=60 v=64
228864 Off ch=2 n=64 v=64
228864 Off ch=2 n=69 v=64
228864 On ch=2 n=45 v=110
228864 Off ch=2 n=45 v=64
228864 On ch=2 n=52 v=110
228864 Off ch=2 n=52 v=64
228864 On ch=2 n=57 v=110
228864 Off ch=2 n=57 v=64
228864 On ch=2 n=60 v=110
228864 Off ch=2 n=60 v=64
228864 On ch=2 n=64 v=110
228864 Off ch=2 n=64 v=64
228864 On ch=2 n=69 v=110
228864 Off ch=2 n=69 v=64
229440 On ch=2 n=43 v=110
229440 On ch=2 n=50 v=110
229440 On ch=2 n=67 v=110
229440 On ch=2 n=62 v=110
229440 On ch=2 n=59 v=110
229440 On ch=2 n=55 v=110
229632 Off ch=2 n=43 v=64
229632 Off ch=2 n=50 v=64
229632 Off ch=2 n=67 v=64
229632 Off ch=2 n=62 v=64
229632 Off ch=2 n=59 v=64
229632 Off ch=2 n=55 v=64
229632 On ch=2 n=43 v=110
229632 On ch=2 n=50 v=110
229632 On ch=2 n=55 v=110
229632 On ch=2 n=59 v=110
229632 On ch=2 n=62 v=110
229632 On ch=2 n=67 v=110
229824 Off ch=2 n=43 v=64
229824 Off ch=2 n=50 v=64
229824 Off ch=2 n=55 v=64
229824 Off ch=2 n=59 v=64
229824 Off ch=2 n=62 v=64
229824 Off ch=2 n=67 v=64
230208 On ch=2 n=48 v=110
230208 On ch=2 n=41 v=110
230208 On ch=2 n=53 v=110
230208 On ch=2 n=57 v=110
230208 On ch=2 n=60 v=110
230208 On ch=2 n=65 v=110
230400 Off ch=2 n=48 v=64
230400 Off ch=2 n=41 v=64
230400 Off ch=2 n=53 v=64
230400 Off ch=2 n=57 v=64
230400 Off ch=2 n=60 v=64
230400 Off ch=2 n=65 v=64
230496 On ch=2 n=65 v=110
230496 On ch=2 n=60 v=110
230496 On ch=2 n=57 v=110
230496 On ch=2 n=53 v=110
230496 On ch=2 n=48 v=110
230496 On ch=2 n=41 v=110
230592 Off ch=2 n=65 v=64
230592 Off ch=2 n=60 v=64
230592 Off ch=2 n=57 v=64
230592 Off ch=2 n=53 v=64
230592 Off ch=2 n=48 v=64
230592 Off ch=2 n=41 v=64
230784 On ch=2 n=65 v=110
230784 On ch=2 n=60 v=110
230784 On ch=2 n=57 v=110
230784 On ch=2 n=53 v=110
230784 On ch=2 n=48 v=110
230784 On ch=2 n=41 v=110
230880 Off ch=2 n=65 v=64
230880 Off ch=2 n=60 v=64
230880 Off ch=2 n=57 v=64
230880 Off ch=2 n=53 v=64
230880 Off ch=2 n=48 v=64
230880 Off ch=2 n=41 v=64
231072 On ch=2 n=65 v=110
231072 On ch=2 n=60 v=110
231072 On ch=2 n=57 v=110
231072 On ch=2 n=53 v=110
231072 On ch=2 n=48 v=110
231072 On ch=2 n=41 v=110
231168 Off ch=2 n=65 v=64
231168 Off ch=2 n=60 v=64
231168 Off ch=2 n=57 v=64
231168 Off ch=2 n=53 v=64
231168 Off ch=2 n=48 v=64
231168 Off ch=2 n=41 v=64
231360 On ch=2 n=65 v=110
231360 On ch=2 n=60 v=110
231360 On ch=2 n=57 v=110
231360 On ch=2 n=53 v=110
231360 On ch=2 n=48 v=110
231360 On ch=2 n=41 v=110
231552 Off ch=2 n=65 v=64
231552 Off ch=2 n=60 v=64
231552 Off ch=2 n=57 v=64
231552 Off ch=2 n=53 v=64
231552 Off ch=2 n=48 v=64
231552 Off ch=2 n=41 v=64
231552 On ch=2 n=43 v=110
231552 On ch=2 n=50 v=110
231552 On ch=2 n=55 v=110
231552 On ch=2 n=59 v=110
231552 On ch=2 n=62 v=110
231552 On ch=2 n=67 v=110
231744 Off ch=2 n=43 v=64
231744 Off ch=2 n=50 v=64
231744 Off ch=2 n=55 v=64
231744 Off ch=2 n=59 v=64
231744 Off ch=2 n=62 v=64
231744 Off ch=2 n=67 v=64
231744 On ch=2 n=45 v=110
231744 On ch=2 n=52 v=110
231744 On ch=2 n=57 v=110
231744 On ch=2 n=60 v=110
231744 On ch=2 n=64 v=110
231744 On ch=2 n=69 v=110
231936 Off ch=2 n=45 v=64
231936 Off ch=2 n=52 v=64
231936 Off ch=2 n=57 v=64
231936 Off ch=2 n=60 v=64
231936 Off ch=2 n=64 v=64
231936 Off ch=2 n=69 v=64
231936 On ch=2 n=45 v=110
231936 Off ch=2 n=45 v=64
231936 On ch=2 n=52 v=110
231936 Off ch=2 n=52 v=64
231936 On ch=2 n=57 v=110
231936 Off ch=2 n=57 v=64
231936 On ch=2 n=60 v=110
231936 Off ch=2 n=60 v=64
231936 On ch=2 n=64 v=110
231936 Off ch=2 n=64 v=64
231936 On ch=2 n=69 v=110
231936 Off ch=2 n=69 v=64
232512 On ch=2 n=43 v=110
232512 On ch=2 n=50 v=110
232512 On ch=2 n=67 v=110
232512 On ch=2 n=62 v=110
232512 On ch=2 n=59 v=110
232512 On ch=2 n=55 v=110
232704 Off ch=2 n=43 v=64
232704 Off ch=2 n=50 v=64
232704 Off ch=2 n=67 v=64
232704 Off ch=2 n=62 v=64
232704 Off ch=2 n=59 v=64
232704 Off ch=2 n=55 v=64
232704 On ch=2 n=43 v=110
232704 On ch=2 n=50 v=110
232704 On ch=2 n=55 v=110
232704 On ch=2 n=59 v=110
232704 On ch=2 n=62 v=110
232704 On ch=2 n=67 v=110
232896 Off ch=2 n=43 v=64
232896 Off ch=2 n=50 v=64
232896 Off ch=2 n=55 v=64
232896 Off ch=2 n=59 v=64
232896 Off ch=2 n=62 v=64
232896 Off ch=2 n=67 v=64
233088 On ch=2 n=60 v=120
233088 On ch=2 n=64 v=120
233088 On ch=2 n=57 v=120
233088 On ch=2 n=53 v=120
233664 Off ch=2 n=53 v=64
233664 Off ch=2 n=57 v=64
233664 Off ch=2 n=60 v=64
233664 Off ch=2 n=64 v=64
233664 On ch=2 n=53 v=110
233664 On ch=2 n=57 v=110
233664 On ch=2 n=60 v=110
233664 On ch=2 n=64 v=110
234240 Off ch=2 n=53 v=64
234240 Off ch=2 n=57 v=64
234240 Off ch=2 n=60 v=64
234240 Off ch=2 n=64 v=64
234240 On ch=2 n=53 v=110
234240 On ch=2 n=57 v=110
234240 On ch=2 n=64 v=110
234240 On ch=2 n=60 v=110
234432 Off ch=2 n=53 v=64
234432 Off ch=2 n=57 v=64
234432 Off ch=2 n=64 v=64
234432 Off ch=2 n=60 v=64
234432 On ch=2 n=64 v=120
234432 On ch=2 n=60 v=120
234432 On ch=2 n=57 v=120
234432 On ch=2 n=53 v=120
234624 Off ch=2 n=64 v=64
234624 Off ch=2 n=60 v=64
234624 Off ch=2 n=57 v=64
234624 Off ch=2 n=53 v=64
234624 On ch=2 n=53 v=110
234624 On ch=2 n=57 v=110
234624 On ch=2 n=60 v=110
234624 On ch=2 n=64 v=120
234816 Off ch=2 n=53 v=64
234816 Off ch=2 n=57 v=64
234816 Off ch=2 n=60 v=64
234816 Off ch=2 n=64 v=64
234816 On ch=2 n=45 v=110
234816 On ch=2 n=52 v=110
234816 On ch=2 n=57 v=110
234816 On ch=2 n=60 v=110
234816 On ch=2 n=64 v=110
234816 On ch=2 n=69 v=110
235008 Off ch=2 n=45 v=64
235008 Off ch=2 n=52 v=64
235008 Off ch=2 n=57 v=64
235008 Off ch=2 n=60 v=64
235008 Off ch=2 n=64 v=64
235008 Off ch=2 n=69 v=64
235008 On ch=2 n=45 v=110
235008 Off ch=2 n=45 v=64
235008 On ch=2 n=52 v=110
235008 Off ch=2 n=52 v=64
235008 On ch=2 n=57 v=110
235008 Off ch=2 n=57 v=64
235008 On ch=2 n=60 v=110
235008 Off ch=2 n=60 v=64
235008 On ch=2 n=64 v=110
235008 Off ch=2 n=64 v=64
235008 On ch=2 n=69 v=110
235008 Off ch=2 n=69 v=64
235584 On ch=2 n=43 v=110
235584 On ch=2 n=50 v=110
235584 On ch=2 n=67 v=110
235584 On ch=2 n=62 v=110
235584 On ch=2 n=59 v=110
235584 On ch=2 n=55 v=110
235776 Off ch=2 n=43 v=64
235776 Off ch=2 n=50 v=64
235776 Off ch=2 n=67 v=64
235776 Off ch=2 n=62 v=64
235776 Off ch=2 n=59 v=64
235776 Off ch=2 n=55 v=64
235776 On ch=2 n=43 v=110
235776 On ch=2 n=50 v=110
235776 On ch=2 n=55 v=110
235776 On ch=2 n=59 v=110
235776 On ch=2 n=62 v=110
235776 On ch=2 n=67 v=110
235968 Off ch=2 n=43 v=64
235968 Off ch=2 n=50 v=64
235968 Off ch=2 n=55 v=64
235968 Off ch=2 n=59 v=64
235968 Off ch=2 n=62 v=64
235968 Off ch=2 n=67 v=64
236160 On ch=2 n=60 v=120
236160 On ch=2 n=64 v=120
236160 On ch=2 n=57 v=120
236160 On ch=2 n=53 v=120
236544 Off ch=2 n=60 v=64
236544 Off ch=2 n=64 v=64
236544 Off ch=2 n=57 v=64
236544 Off ch=2 n=53 v=64
236544 On ch=2 n=53 v=110
236544 Off ch=2 n=53 v=64
236544 On ch=2 n=57 v=110
236544 Off ch=2 n=57 v=64
236544 On ch=2 n=60 v=110
236544 Off ch=2 n=60 v=64
236544 On ch=2 n=64 v=110
236544 Off ch=2 n=64 v=64
236736 On ch=2 n=64 v=120
236736 Off ch=2 n=64 v=64
236736 On ch=2 n=60 v=120
236736 Off ch=2 n=60 v=64
236736 On ch=2 n=57 v=120
236736 Off ch=2 n=57 v=64
236736 On ch=2 n=53 v=120
236736 Off ch=2 n=53 v=64
236928 On ch=2 n=53 v=120
236928 Off ch=2 n=53 v=64
236928 On ch=2 n=57 v=120
236928 Off ch=2 n=57 v=64
236928 On ch=2 n=60 v=120
236928 Off ch=2 n=60 v=64
236928 On ch=2 n=64 v=120
236928 Off ch=2 n=64 v=64
237120 On ch=2 n=64 v=120
237120 Off ch=2 n=64 v=64
237120 On ch=2 n=60 v=120
237120 Off ch=2 n=60 v=64
237120 On ch=2 n=57 v=120
237120 Off ch=2 n=57 v=64
237120 On ch=2 n=53 v=120
237120 Off ch=2 n=53 v=64
237312 On ch=2 n=53 v=110
237312 Off ch=2 n=53 v=64
237312 On ch=2 n=57 v=110
237312 Off ch=2 n=57 v=64
237312 On ch=2 n=64 v=110
237312 Off ch=2 n=64 v=64
237312 On ch=2 n=60 v=110
237312 Off ch=2 n=60 v=64
237504 On ch=2 n=64 v=120
237504 Off ch=2 n=64 v=64
237504 On ch=2 n=60 v=120
237504 Off ch=2 n=60 v=64
237504 On ch=2 n=57 v=120
237504 Off ch=2 n=57 v=64
237504 On ch=2 n=53 v=120
237504 Off ch=2 n=53 v=64
237696 On ch=2 n=64 v=120
237696 Off ch=2 n=64 v=64
237696 On ch=2 n=59 v=110
237696 On ch=2 n=55 v=110
237696 On ch=2 n=50 v=110
237888 Off ch=2 n=59 v=64
237888 Off ch=2 n=55 v=64
237888 Off ch=2 n=50 v=64
237888 On ch=2 n=52 v=100
237888 On ch=2 n=57 v=100
237888 On ch=2 n=60 v=100
237888 On ch=2 n=64 v=100
237888 Off ch=2 n=64 v=64
238272 Off ch=2 n=52 v=64
238272 Off ch=2 n=57 v=64
238272 Off ch=2 n=60 v=64
238272 On ch=2 n=52 v=100
238272 On ch=2 n=57 v=100
238272 On ch=2 n=60 v=100
238272 On ch=2 n=64 v=100
238272 Off ch=2 n=64 v=64
238560 Off ch=2 n=52 v=64
238560 Off ch=2 n=57 v=64
238560 Off ch=2 n=60 v=64
238560 On ch=2 n=64 v=100
238560 Off ch=2 n=64 v=64
238560 On ch=2 n=60 v=100
238560 On ch=2 n=57 v=100
238560 On ch=2 n=52 v=100
238656 Off ch=2 n=60 v=64
238656 Off ch=2 n=57 v=64
238656 Off ch=2 n=52 v=64
238656 On ch=2 n=52 v=100
238656 On ch=2 n=55 v=100
238656 On ch=2 n=60 v=100
238656 On ch=2 n=64 v=100
238656 Off ch=2 n=64 v=64
238848 Off ch=2 n=52 v=64
238848 Off ch=2 n=55 v=64
238848 Off ch=2 n=60 v=64
238848 On ch=2 n=64 v=100
238848 Off ch=2 n=64 v=64
238848 On ch=2 n=60 v=100
238848 On ch=2 n=55 v=100
238848 On ch=2 n=52 v=100
239040 Off ch=2 n=60 v=64
239040 Off ch=2 n=55 v=64
239040 Off ch=2 n=52 v=64
239040 On ch=2 n=52 v=100
239040 On ch=2 n=55 v=100
239040 On ch=2 n=60 v=100
239040 On ch=2 n=64 v=100
239040 Off ch=2 n=64 v=64
239232 Off ch=2 n=52 v=64
239232 Off ch=2 n=55 v=64
239232 Off ch=2 n=60 v=64
239232 On ch=2 n=64 v=100
239232 Off ch=2 n=64 v=64
239232 On ch=2 n=60 v=100
239232 On ch=2 n=55 v=100
239232 On ch=2 n=52 v=100
239328 Off ch=2 n=60 v=64
239328 Off ch=2 n=55 v=64
239328 Off ch=2 n=52 v=64
239328 On ch=2 n=52 v=100
239328 On ch=2 n=55 v=100
239328 On ch=2 n=60 v=100
239328 On ch=2 n=64 v=100
239328 Off ch=2 n=64 v=64
239424 Off ch=2 n=52 v=64
239424 Off ch=2 n=55 v=64
239424 Off ch=2 n=60 v=64
239424 On ch=2 n=64 v=100
239424 Off ch=2 n=64 v=64
239424 On ch=2 n=60 v=100
239424 On ch=2 n=57 v=100
239424 On ch=2 n=53 v=100
239808 Off ch=2 n=53 v=64
239808 Off ch=2 n=57 v=64
239808 Off ch=2 n=60 v=64
239808 On ch=2 n=53 v=100
239808 On ch=2 n=57 v=100
239808 On ch=2 n=60 v=100
239808 On ch=2 n=64 v=100
239808 Off ch=2 n=64 v=64
240576 Off ch=2 n=53 v=64
240576 Off ch=2 n=57 v=64
240576 Off ch=2 n=60 v=64
240576 On ch=2 n=53 v=100
240576 On ch=2 n=57 v=100
240576 On ch=2 n=60 v=100
240576 On ch=2 n=64 v=100
240576 Off ch=2 n=64 v=64
240960 Off ch=2 n=53 v=64
240960 Off ch=2 n=57 v=64
240960 Off ch=2 n=60 v=64
240960 On ch=2 n=52 v=97
240960 On ch=2 n=57 v=97
240960 On ch=2 n=60 v=97
240960 On ch=2 n=64 v=97
240960 Off ch=2 n=64 v=64
241344 Off ch=2 n=52 v=64
241344 Off ch=2 n=57 v=64
241344 Off ch=2 n=60 v=64
241344 On ch=2 n=52 v=97
241344 On ch=2 n=57 v=97
241344 On ch=2 n=60 v=97
241344 On ch=2 n=64 v=97
241344 Off ch=2 n=64 v=64
241632 Off ch=2 n=52 v=64
241632 Off ch=2 n=57 v=64
241632 Off ch=2 n=60 v=64
241632 On ch=2 n=52 v=97
241632 On ch=2 n=57 v=97
241632 On ch=2 n=60 v=97
241632 On ch=2 n=64 v=97
241632 Off ch=2 n=64 v=64
241728 Off ch=2 n=52 v=64
241728 Off ch=2 n=57 v=64
241728 Off ch=2 n=60 v=64
241728 On ch=2 n=64 v=97
241728 Off ch=2 n=64 v=64
241728 On ch=2 n=60 v=97
241728 On ch=2 n=52 v=97
241728 On ch=2 n=55 v=97
242112 Off ch=2 n=60 v=64
242112 Off ch=2 n=52 v=64
242112 Off ch=2 n=55 v=64
242112 On ch=2 n=64 v=97
242112 Off ch=2 n=64 v=64
242112 On ch=2 n=60 v=97
242112 On ch=2 n=52 v=97
242112 On ch=2 n=55 v=97
242208 Off ch=2 n=55 v=64
242208 On ch=2 n=64 v=97
242208 Off ch=2 n=64 v=64
242208 On ch=2 n=62 v=97
242208 On ch=2 n=55 v=97
242208 On ch=2 n=50 v=97
242472 Off ch=2 n=62 v=64
242496 Off ch=2 n=60 v=64
242496 Off ch=2 n=52 v=64
242496 Off ch=2 n=55 v=64
242496 Off ch=2 n=50 v=64
242496 On ch=2 n=53 v=97
242496 On ch=2 n=57 v=97
242496 On ch=2 n=60 v=97
242496 On ch=2 n=64 v=97
242496 Off ch=2 n=64 v=64
242688 Off ch=2 n=53 v=64
242712 On ch=2 n=53 v=97
242880 Off ch=2 n=60 v=64
242880 On ch=2 n=64 v=97
242880 Off ch=2 n=64 v=64
243072 On ch=2 n=60 v=97
243240 Off ch=2 n=57 v=64
243240 Off ch=2 n=53 v=64
243264 Off ch=2 n=60 v=64
243264 On ch=2 n=64 v=97
243264 On ch=2 n=60 v=97
243264 On ch=2 n=57 v=97
243264 On ch=2 n=53 v=97
243456 Off ch=2 n=64 v=64
243456 Off ch=2 n=60 v=64
243456 Off ch=2 n=57 v=64
243456 Off ch=2 n=53 v=64
243456 On ch=2 n=53 v=97
243456 On ch=2 n=57 v=97
243456 On ch=2 n=60 v=97
243456 On ch=2 n=64 v=97
243648 Off ch=2 n=53 v=64
243648 Off ch=2 n=57 v=64
243648 Off ch=2 n=60 v=64
243648 Off ch=2 n=64 v=64
243648 On ch=2 n=64 v=97
243648 On ch=2 n=60 v=97
243648 On ch=2 n=57 v=97
243648 On ch=2 n=53 v=97
244032 Off ch=2 n=64 v=64
244032 Off ch=2 n=60 v=64
244032 Off ch=2 n=57 v=64
244032 Off ch=2 n=53 v=64
244032 On ch=2 n=52 v=87
244032 On ch=2 n=57 v=87
244032 On ch=2 n=60 v=87
244032 On ch=2 n=64 v=87
244224 Off ch=2 n=52 v=64
244224 Off ch=2 n=57 v=64
244224 Off ch=2 n=60 v=64
244224 Off ch=2 n=64 v=64
244224 On ch=2 n=52 v=87
244224 Off ch=2 n=52 v=64
244224 On ch=2 n=64 v=87
244224 Off ch=2 n=64 v=64
244224 On ch=2 n=60 v=87
244224 Off ch=2 n=60 v=64
244224 On ch=2 n=57 v=87
244224 Off ch=2 n=57 v=64
244416 On ch=2 n=52 v=87
244416 Off ch=2 n=52 v=64
244416 On ch=2 n=57 v=87
244416 Off ch=2 n=57 v=64
244416 On ch=2 n=60 v=87
244416 Off ch=2 n=60 v=64
244416 On ch=2 n=64 v=87
244416 Off ch=2 n=64 v=64
244800 On ch=2 n=64 v=87
244800 Off ch=2 n=64 v=64
244800 On ch=2 n=60 v=87
244800 Off ch=2 n=60 v=64
244800 On ch=2 n=55 v=87
244800 On ch=2 n=52 v=87
244800 Off ch=2 n=52 v=64
244800 On ch=2 n=62 v=87
244800 On ch=2 n=50 v=87
244992 Off ch=2 n=55 v=64
244992 On ch=2 n=64 v=87
244992 Off ch=2 n=64 v=64
244992 On ch=2 n=60 v=87
244992 Off ch=2 n=60 v=64
244992 On ch=2 n=55 v=87
244992 On ch=2 n=52 v=87
244992 Off ch=2 n=52 v=64
245184 Off ch=2 n=62 v=64
245184 Off ch=2 n=50 v=64
245184 Off ch=2 n=55 v=64
245184 On ch=2 n=52 v=87
245184 Off ch=2 n=52 v=64
245184 On ch=2 n=64 v=87
245184 Off ch=2 n=64 v=64
245184 On ch=2 n=60 v=87
245184 Off ch=2 n=60 v=64
245184 On ch=2 n=55 v=87
245184 On ch=2 n=50 v=87
245184 On ch=2 n=62 v=87
245376 Off ch=2 n=55 v=64
245376 Off ch=2 n=50 v=64
245376 Off ch=2 n=62 v=64
245376 On ch=2 n=52 v=87
245376 Off ch=2 n=52 v=64
245376 On ch=2 n=55 v=87
245376 On ch=2 n=60 v=87
245376 Off ch=2 n=60 v=64
245376 On ch=2 n=64 v=87
245376 Off ch=2 n=64 v=64
245376 On ch=2 n=50 v=87
245376 On ch=2 n=62 v=87
245568 Off ch=2 n=55 v=64
245568 Off ch=2 n=50 v=64
245568 Off ch=2 n=62 v=64
245760 On ch=2 n=53 v=87
245760 On ch=2 n=57 v=87
245760 On ch=2 n=60 v=87
245760 On ch=2 n=64 v=87
245952 Off ch=2 n=53 v=64
245952 Off ch=2 n=57 v=64
245952 Off ch=2 n=60 v=64
245952 Off ch=2 n=64 v=64
245952 On ch=2 n=64 v=87
245952 On ch=2 n=60 v=87
245952 On ch=2 n=57 v=87
245952 On ch=2 n=53 v=87
246144 Off ch=2 n=64 v=64
246144 Off ch=2 n=60 v=64
246144 Off ch=2 n=57 v=64
246144 Off ch=2 n=53 v=64
246144 On ch=2 n=53 v=87
246144 On ch=2 n=57 v=87
246144 On ch=2 n=60 v=87
246144 On ch=2 n=64 v=87
246240 Off ch=2 n=53 v=64
246240 Off ch=2 n=57 v=64
246240 Off ch=2 n=60 v=64
246240 Off ch=2 n=64 v=64
246240 On ch=2 n=64 v=87
246240 On ch=2 n=60 v=87
246240 On ch=2 n=57 v=87
246240 On ch=2 n=53 v=87
246432 Off ch=2 n=64 v=64
246432 Off ch=2 n=60 v=64
246432 Off ch=2 n=57 v=64
246432 Off ch=2 n=53 v=64
246432 On ch=2 n=53 v=87
246432 On ch=2 n=57 v=87
246432 On ch=2 n=60 v=87
246432 On ch=2 n=64 v=87
246528 Off ch=2 n=53 v=64
246528 Off ch=2 n=57 v=64
246528 Off ch=2 n=60 v=64
246528 Off ch=2 n=64 v=64
246528 On ch=2 n=53 v=87
246528 On ch=2 n=57 v=87
246528 On ch=2 n=60 v=87
246528 On ch=2 n=64 v=87
246720 Off ch=2 n=53 v=64
246720 Off ch=2 n=57 v=64
246720 Off ch=2 n=60 v=64
246720 Off ch=2 n=64 v=64
246720 On ch=2 n=53 v=87
246720 On ch=2 n=57 v=87
246720 On ch=2 n=60 v=87
246720 On ch=2 n=64 v=87
246912 Off ch=2 n=53 v=64
246912 Off ch=2 n=57 v=64
246912 Off ch=2 n=60 v=64
246912 Off ch=2 n=64 v=64
246912 On ch=2 n=53 v=87
246912 On ch=2 n=57 v=87
246912 On ch=2 n=60 v=87
246912 On ch=2 n=64 v=87
247104 Off ch=2 n=53 v=64
247104 Off ch=2 n=57 v=64
247104 Off ch=2 n=60 v=64
247104 Off ch=2 n=64 v=64
247104 On ch=2 n=52 v=87
247104 On ch=2 n=57 v=87
247104 On ch=2 n=60 v=87
247104 On ch=2 n=64 v=87
247488 Off ch=2 n=52 v=64
247488 Off ch=2 n=57 v=64
247488 Off ch=2 n=60 v=64
247488 Off ch=2 n=64 v=64
247488 On ch=2 n=52 v=87
247488 On ch=2 n=57 v=87
247488 On ch=2 n=60 v=87
247488 On ch=2 n=64 v=87
247848 Off ch=2 n=52 v=64
247872 Off ch=2 n=57 v=64
247872 Off ch=2 n=60 v=64
247872 Off ch=2 n=64 v=64
247872 On ch=2 n=64 v=87
247872 On ch=2 n=60 v=87
247872 On ch=2 n=52 v=87
247872 On ch=2 n=55 v=87
247872 On ch=2 n=50 v=87
248256 Off ch=2 n=64 v=64
248256 Off ch=2 n=60 v=64
248256 Off ch=2 n=52 v=64
248256 Off ch=2 n=55 v=64
248256 Off ch=2 n=50 v=64
248256 On ch=2 n=60 v=87
248256 On ch=2 n=52 v=87
248256 On ch=2 n=55 v=87
248256 On ch=2 n=64 v=87
248256 On ch=2 n=50 v=87
248616 Off ch=2 n=64 v=64
248640 Off ch=2 n=60 v=64
248640 Off ch=2 n=52 v=64
248640 Off ch=2 n=55 v=64
248640 Off ch=2 n=50 v=64
248640 On ch=2 n=53 v=97
248640 On ch=2 n=57 v=97
248640 On ch=2 n=60 v=97
248640 On ch=2 n=64 v=97
253248 Off ch=2 n=53 v=64
253248 Off ch=2 n=57 v=64
253248 Off ch=2 n=60 v=64
253248 Off ch=2 n=64 v=64
253248 Meta TrkEnd
TrkEnd
MTrk
0 Meta TrkName "12 string guitar 1  "
0 Par ch=9 c=0 v=8
0 PrCh ch=9 p=16
0 KeySig 0 major
24 PrCh ch=9 p=25
85656 On ch=9 n=45 v=90
85824 Off ch=9 n=45 v=64
85848 On ch=9 n=47 v=90
86016 Off ch=9 n=47 v=64
86040 On ch=9 n=48 v=90
86232 On ch=9 n=52 v=90
86400 Off ch=9 n=52 v=64
86424 On ch=9 n=55 v=90
86592 Off ch=9 n=55 v=64
86616 On ch=9 n=60 v=90
86784 Off ch=9 n=48 v=64
86784 Off ch=9 n=60 v=64
86808 On ch=9 n=47 v=90
87000 On ch=9 n=50 v=90
87168 Off ch=9 n=50 v=64
87192 On ch=9 n=55 v=90
87360 Off ch=9 n=55 v=64
87384 On ch=9 n=59 v=90
87552 Off ch=9 n=47 v=64
87552 Off ch=9 n=59 v=64
87552 On ch=9 n=45 v=90
87912 Off ch=9 n=45 v=64
111768 On ch=9 n=45 v=90
111936 Off ch=9 n=45 v=64
111960 On ch=9 n=47 v=90
112128 Off ch=9 n=47 v=64
112152 On ch=9 n=48 v=90
112344 On ch=9 n=52 v=90
112512 Off ch=9 n=52 v=64
112536 On ch=9 n=55 v=90
112704 Off ch=9 n=55 v=64
112728 On ch=9 n=60 v=90
112896 Off ch=9 n=48 v=64
112896 Off ch=9 n=60 v=64
112920 On ch=9 n=47 v=90
113112 On ch=9 n=50 v=90
113280 Off ch=9 n=50 v=64
113304 On ch=9 n=55 v=90
113472 Off ch=9 n=55 v=64
113496 On ch=9 n=59 v=90
113664 Off ch=9 n=47 v=64
113664 Off ch=9 n=59 v=64
113664 On ch=9 n=45 v=90
115560 Off ch=9 n=45 v=64
138240 On ch=9 n=48 v=90
138432 On ch=9 n=52 v=90
138600 Off ch=9 n=52 v=64
138624 On ch=9 n=55 v=90
138792 Off ch=9 n=55 v=64
138816 On ch=9 n=60 v=90
138984 Off ch=9 n=48 v=64
138984 Off ch=9 n=60 v=64
139008 On ch=9 n=47 v=90
139200 On ch=9 n=50 v=90
139368 Off ch=9 n=50 v=64
139392 On ch=9 n=55 v=90
139560 Off ch=9 n=55 v=64
139584 On ch=9 n=59 v=90
139752 Off ch=9 n=47 v=64
139776 Off ch=9 n=59 v=64
139776 On ch=9 n=45 v=90
142056 Off ch=9 n=45 v=64
163968 On ch=9 n=45 v=90
164136 Off ch=9 n=45 v=64
164160 On ch=9 n=47 v=90
164328 Off ch=9 n=47 v=64
164352 On ch=9 n=48 v=90
164544 On ch=9 n=52 v=90
164712 Off ch=9 n=52 v=64
164736 On ch=9 n=55 v=90
164904 Off ch=9 n=55 v=64
164928 On ch=9 n=60 v=90
165096 Off ch=9 n=48 v=64
165096 Off ch=9 n=60 v=64
165120 On ch=9 n=47 v=90
165312 On ch=9 n=50 v=90
165480 Off ch=9 n=50 v=64
165504 On ch=9 n=55 v=90
165672 Off ch=9 n=55 v=64
165696 On ch=9 n=59 v=90
165864 Off ch=9 n=47 v=64
165864 Off ch=9 n=59 v=64
165888 On ch=9 n=66 v=90
165888 On ch=9 n=62 v=90
165888 On ch=9 n=57 v=90
165888 On ch=9 n=50 v=90
167208 Off ch=9 n=66 v=64
167208 Off ch=9 n=62 v=64
167208 Off ch=9 n=57 v=64
167208 Off ch=9 n=50 v=64
176256 On ch=9 n=48 v=90
176256 On ch=9 n=52 v=90
176256 On ch=9 n=55 v=90
176256 On ch=9 n=60 v=90
176256 On ch=9 n=64 v=90
176616 Off ch=9 n=52 v=64
176616 Off ch=9 n=55 v=64
176616 Off ch=9 n=60 v=64
176616 Off ch=9 n=64 v=64
176640 On ch=9 n=55 v=90
176640 On ch=9 n=60 v=90
176640 On ch=9 n=64 v=90
176808 Off ch=9 n=55 v=64
176808 Off ch=9 n=60 v=64
176808 Off ch=9 n=64 v=64
176832 On ch=9 n=55 v=90
176832 On ch=9 n=62 v=90
176832 On ch=9 n=66 v=90
177096 Off ch=9 n=55 v=64
177096 Off ch=9 n=62 v=64
177096 Off ch=9 n=66 v=64
177120 On ch=9 n=55 v=90
177120 On ch=9 n=62 v=90
177120 On ch=9 n=66 v=90
177192 Off ch=9 n=55 v=64
177192 Off ch=9 n=62 v=64
177192 Off ch=9 n=66 v=64
177216 On ch=9 n=55 v=90
177216 On ch=9 n=62 v=90
177216 On ch=9 n=66 v=90
177384 Off ch=9 n=55 v=64
177384 Off ch=9 n=62 v=64
177384 Off ch=9 n=66 v=64
177408 On ch=9 n=55 v=90
177408 On ch=9 n=62 v=90
177408 On ch=9 n=64 v=90
177576 Off ch=9 n=55 v=64
177576 Off ch=9 n=62 v=64
177576 Off ch=9 n=64 v=64
177600 On ch=9 n=62 v=90
177768 Off ch=9 n=48 v=64
177792 On ch=9 n=55 v=90
177936 Off ch=9 n=55 v=64
177960 Off ch=9 n=62 v=64
177984 On ch=9 n=47 v=90
178368 On ch=9 n=50 v=90
178536 Off ch=9 n=50 v=64
178560 On ch=9 n=62 v=90
178728 Off ch=9 n=62 v=64
178752 On ch=9 n=67 v=90
178920 Off ch=9 n=67 v=64
178944 On ch=9 n=62 v=90
179112 Off ch=9 n=47 v=64
179112 Off ch=9 n=62 v=64
179136 On ch=9 n=59 v=90
179208 Off ch=9 n=59 v=64
179232 On ch=9 n=57 v=90
179304 Off ch=9 n=57 v=64
179328 On ch=9 n=55 v=90
179496 Off ch=9 n=55 v=64
179496 Meta TrkEnd
TrkEnd
MTrk
0 Meta TrkName "drum track          "
0 Par ch=10 c=0 v=0
0 PrCh ch=10 p=126
0 KeySig 0 major
125184 On ch=10 n=40 v=64
125352 Off ch=10 n=40 v=64
125376 On ch=10 n=47 v=114
125544 Off ch=10 n=47 v=64
125568 On ch=10 n=43 v=114
125736 Off ch=10 n=43 v=64
125760 On ch=10 n=35 v=124
125928 Off ch=10 n=35 v=64
125952 On ch=10 n=42 v=84
125952 On ch=10 n=35 v=84
125952 On ch=10 n=57 v=94
126096 Off ch=10 n=57 v=64
126120 Off ch=10 n=42 v=64
126120 Off ch=10 n=35 v=64
126336 On ch=10 n=42 v=84
126336 On ch=10 n=40 v=84
126504 Off ch=10 n=42 v=64
126528 On ch=10 n=42 v=84
126696 Off ch=10 n=40 v=64
126696 Off ch=10 n=42 v=64
126720 On ch=10 n=42 v=84
126720 On ch=10 n=35 v=84
126888 Off ch=10 n=42 v=64
126888 Off ch=10 n=35 v=64
126912 On ch=10 n=42 v=84
127080 Off ch=10 n=42 v=64
127104 On ch=10 n=42 v=84
127104 On ch=10 n=40 v=84
127272 Off ch=10 n=42 v=64
127296 On ch=10 n=42 v=84
127464 Off ch=10 n=40 v=64
127464 Off ch=10 n=42 v=64
127488 On ch=10 n=35 v=84
127488 On ch=10 n=42 v=84
127656 Off ch=10 n=35 v=64
127656 Off ch=10 n=42 v=64
127680 On ch=10 n=42 v=84
127848 Off ch=10 n=42 v=64
127872 On ch=10 n=40 v=84
127872 On ch=10 n=42 v=84
128040 Off ch=10 n=42 v=64
128064 On ch=10 n=42 v=84
128232 Off ch=10 n=40 v=64
128232 Off ch=10 n=42 v=64
128256 On ch=10 n=35 v=84
128256 On ch=10 n=42 v=84
128424 Off ch=10 n=35 v=64
128424 Off ch=10 n=42 v=64
128448 On ch=10 n=35 v=84
128448 On ch=10 n=42 v=84
128616 Off ch=10 n=35 v=64
128616 Off ch=10 n=42 v=64
128640 On ch=10 n=40 v=84
128640 On ch=10 n=35 v=84
128640 On ch=10 n=42 v=84
128808 Off ch=10 n=40 v=64
128808 Off ch=10 n=35 v=64
128808 Off ch=10 n=42 v=64
128832 On ch=10 n=35 v=84
128832 On ch=10 n=42 v=84
129000 Off ch=10 n=35 v=64
129000 Off ch=10 n=42 v=64
129024 On ch=10 n=35 v=84
129024 On ch=10 n=42 v=84
129192 Off ch=10 n=35 v=64
129192 Off ch=10 n=42 v=64
129216 On ch=10 n=42 v=84
129384 Off ch=10 n=42 v=64
129408 On ch=10 n=40 v=84
129408 On ch=10 n=42 v=84
129576 Off ch=10 n=40 v=64
129576 Off ch=10 n=42 v=64
129600 On ch=10 n=42 v=84
129768 Off ch=10 n=42 v=64
129792 On ch=10 n=35 v=84
129792 On ch=10 n=42 v=84
129960 Off ch=10 n=35 v=64
129960 Off ch=10 n=42 v=64
129984 On ch=10 n=48 v=84
130056 Off ch=10 n=48 v=64
130080 On ch=10 n=48 v=84
130152 Off ch=10 n=48 v=64
130176 On ch=10 n=48 v=84
130248 Off ch=10 n=48 v=64
130272 On ch=10 n=48 v=84
130344 Off ch=10 n=48 v=64
130368 On ch=10 n=35 v=84
130368 On ch=10 n=42 v=84
130536 Off ch=10 n=42 v=64
130560 On ch=10 n=42 v=84
130728 Off ch=10 n=35 v=64
130728 Off ch=10 n=42 v=64
130752 On ch=10 n=35 v=84
130752 On ch=10 n=42 v=84
130920 Off ch=10 n=35 v=64
130920 Off ch=10 n=42 v=64
130944 On ch=10 n=40 v=84
130944 On ch=10 n=42 v=84
131112 Off ch=10 n=40 v=64
131112 Off ch=10 n=42 v=64
131136 On ch=10 n=42 v=84
131304 Off ch=10 n=42 v=64
131328 On ch=10 n=42 v=84
131496 Off ch=10 n=42 v=64
131520 On ch=10 n=35 v=84
131520 On ch=10 n=42 v=84
131688 Off ch=10 n=35 v=64
131688 Off ch=10 n=42 v=64
131712 On ch=10 n=40 v=84
131712 On ch=10 n=42 v=84
131880 Off ch=10 n=40 v=64
131880 Off ch=10 n=42 v=64
131904 On ch=10 n=35 v=84
131904 On ch=10 n=42 v=84
132072 Off ch=10 n=35 v=64
132072 Off ch=10 n=42 v=64
132096 On ch=10 n=35 v=84
132096 On ch=10 n=42 v=84
132264 Off ch=10 n=35 v=64
132264 Off ch=10 n=42 v=64
132288 On ch=10 n=42 v=84
132456 Off ch=10 n=42 v=64
132480 On ch=10 n=40 v=84
132480 On ch=10 n=42 v=84
132648 Off ch=10 n=42 v=64
132672 On ch=10 n=42 v=84
132840 Off ch=10 n=40 v=64
132840 Off ch=10 n=42 v=64
132864 On ch=10 n=35 v=84
132864 On ch=10 n=42 v=84
133032 Off ch=10 n=35 v=64
133032 Off ch=10 n=42 v=64
133056 On ch=10 n=35 v=84
133056 On ch=10 n=42 v=84
133224 Off ch=10 n=35 v=64
133224 Off ch=10 n=42 v=64
133248 On ch=10 n=40 v=84
133248 On ch=10 n=35 v=84
133248 On ch=10 n=42 v=84
133416 Off ch=10 n=40 v=64
133416 Off ch=10 n=35 v=64
133416 Off ch=10 n=42 v=64
133440 On ch=10 n=35 v=84
133440 On ch=10 n=42 v=84
133608 Off ch=10 n=35 v=64
133608 Off ch=10 n=42 v=64
133632 On ch=10 n=35 v=84
133632 On ch=10 n=42 v=84
133800 Off ch=10 n=35 v=64
133800 Off ch=10 n=42 v=64
133824 On ch=10 n=42 v=84
133992 Off ch=10 n=42 v=64
134016 On ch=10 n=40 v=84
134016 On ch=10 n=42 v=84
134184 Off ch=10 n=42 v=64
134208 On ch=10 n=42 v=84
134376 Off ch=10 n=40 v=64
134376 Off ch=10 n=42 v=64
134400 On ch=10 n=35 v=84
134400 On ch=10 n=42 v=84
134568 Off ch=10 n=35 v=64
134568 Off ch=10 n=42 v=64
134592 On ch=10 n=35 v=84
134592 On ch=10 n=42 v=84
134760 Off ch=10 n=35 v=64
134760 Off ch=10 n=42 v=64
134784 On ch=10 n=40 v=84
134784 On ch=10 n=35 v=84
134784 On ch=10 n=42 v=84
134952 Off ch=10 n=40 v=64
134952 Off ch=10 n=35 v=64
134952 Off ch=10 n=42 v=64
134976 On ch=10 n=35 v=84
134976 On ch=10 n=42 v=84
135144 Off ch=10 n=35 v=64
135144 Off ch=10 n=42 v=64
135168 On ch=10 n=35 v=84
135168 On ch=10 n=42 v=84
135336 Off ch=10 n=35 v=64
135336 Off ch=10 n=42 v=64
135360 On ch=10 n=42 v=84
135528 Off ch=10 n=42 v=64
135552 On ch=10 n=40 v=84
135552 On ch=10 n=42 v=84
135720 Off ch=10 n=40 v=64
135720 Off ch=10 n=42 v=64
135744 On ch=10 n=42 v=84
135912 Off ch=10 n=42 v=64
135936 On ch=10 n=35 v=84
135936 On ch=10 n=42 v=84
136104 Off ch=10 n=42 v=64
136200 Off ch=10 n=35 v=64
136224 On ch=10 n=48 v=84
136296 Off ch=10 n=48 v=64
136320 On ch=10 n=48 v=84
136392 Off ch=10 n=48 v=64
136416 On ch=10 n=48 v=84
136488 Off ch=10 n=48 v=64
136512 On ch=10 n=35 v=84
136512 On ch=10 n=42 v=84
136680 Off ch=10 n=42 v=64
136704 On ch=10 n=42 v=84
136872 Off ch=10 n=35 v=64
136872 Off ch=10 n=42 v=64
136896 On ch=10 n=35 v=84
136896 On ch=10 n=42 v=84
137064 Off ch=10 n=35 v=64
137064 Off ch=10 n=42 v=64
137088 On ch=10 n=40 v=84
137088 On ch=10 n=42 v=84
137256 Off ch=10 n=40 v=64
137256 Off ch=10 n=42 v=64
137280 On ch=10 n=42 v=84
137448 Off ch=10 n=42 v=64
137472 On ch=10 n=42 v=84
137640 Off ch=10 n=42 v=64
137664 On ch=10 n=35 v=84
137664 On ch=10 n=42 v=84
137832 Off ch=10 n=35 v=64
137832 Off ch=10 n=42 v=64
137856 On ch=10 n=40 v=84
137856 On ch=10 n=42 v=84
138024 Off ch=10 n=40 v=64
138024 Off ch=10 n=42 v=64
138048 On ch=10 n=35 v=84
138048 On ch=10 n=42 v=84
138216 Off ch=10 n=35 v=64
138216 Off ch=10 n=42 v=64
138240 On ch=10 n=42 v=64
138240 On ch=10 n=35 v=64
138408 Off ch=10 n=42 v=64
138432 On ch=10 n=42 v=64
138600 Off ch=10 n=35 v=64
138600 Off ch=10 n=42 v=64
138624 On ch=10 n=42 v=64
138624 On ch=10 n=40 v=64
138792 Off ch=10 n=42 v=64
138816 On ch=10 n=42 v=64
138984 Off ch=10 n=40 v=64
138984 Off ch=10 n=42 v=64
139008 On ch=10 n=42 v=64
139008 On ch=10 n=35 v=64
139176 Off ch=10 n=42 v=64
139176 Off ch=10 n=35 v=64
139200 On ch=10 n=42 v=64
139200 On ch=10 n=40 v=64
139272 Off ch=10 n=40 v=64
139296 On ch=10 n=40 v=64
139368 Off ch=10 n=42 v=64
139464 Off ch=10 n=40 v=64
139488 On ch=10 n=40 v=64
139560 Off ch=10 n=40 v=64
139584 On ch=10 n=40 v=64
139656 Off ch=10 n=40 v=64
139680 On ch=10 n=40 v=64
139752 Off ch=10 n=40 v=64
139776 On ch=10 n=35 v=64
139776 On ch=10 n=59 v=64
139848 Off ch=10 n=59 v=64
139944 Off ch=10 n=35 v=64
139968 On ch=10 n=59 v=64
140040 Off ch=10 n=59 v=64
140160 On ch=10 n=40 v=64
140160 On ch=10 n=59 v=64
140232 Off ch=10 n=59 v=64
140328 Off ch=10 n=40 v=64
140352 On ch=10 n=35 v=64
140352 On ch=10 n=59 v=64
140424 Off ch=10 n=59 v=64
140544 On ch=10 n=59 v=64
140616 Off ch=10 n=59 v=64
140712 Off ch=10 n=35 v=64
140736 On ch=10 n=35 v=64
140736 On ch=10 n=59 v=64
140808 Off ch=10 n=59 v=64
140904 Off ch=10 n=35 v=64
140928 On ch=10 n=40 v=64
140928 On ch=10 n=59 v=64
141000 Off ch=10 n=59 v=64
141096 Off ch=10 n=40 v=64
141120 On ch=10 n=35 v=64
141120 On ch=10 n=59 v=64
141192 Off ch=10 n=59 v=64
141288 Off ch=10 n=35 v=64
141312 On ch=10 n=35 v=64
141312 On ch=10 n=59 v=64
141384 Off ch=10 n=35 v=64
141384 Off ch=10 n=59 v=64
141408 On ch=10 n=40 v=64
141480 Off ch=10 n=40 v=64
141504 On ch=10 n=35 v=64
141504 On ch=10 n=59 v=64
141576 Off ch=10 n=59 v=64
141672 Off ch=10 n=35 v=64
141696 On ch=10 n=40 v=64
141696 On ch=10 n=59 v=64
141768 Off ch=10 n=59 v=64
141864 Off ch=10 n=40 v=64
141888 On ch=10 n=59 v=64
141960 Off ch=10 n=59 v=64
141984 On ch=10 n=40 v=64
142056 Off ch=10 n=40 v=64
142080 On ch=10 n=35 v=64
142080 On ch=10 n=59 v=64
142152 Off ch=10 n=35 v=64
142152 Off ch=10 n=59 v=64
142176 On ch=10 n=40 v=64
142248 Off ch=10 n=40 v=64
142272 On ch=10 n=40 v=64
142272 On ch=10 n=59 v=64
142344 Off ch=10 n=40 v=64
142344 Off ch=10 n=59 v=64
142368 On ch=10 n=35 v=64
142440 Off ch=10 n=35 v=64
142464 On ch=10 n=35 v=64
142464 On ch=10 n=59 v=64
142536 Off ch=10 n=35 v=64
142536 Off ch=10 n=59 v=64
142560 On ch=10 n=40 v=64
142632 Off ch=10 n=40 v=64
142656 On ch=10 n=40 v=64
142656 On ch=10 n=59 v=64
142728 Off ch=10 n=40 v=64
142728 Off ch=10 n=59 v=64
142752 On ch=10 n=40 v=64
142824 Off ch=10 n=40 v=64
142848 On ch=10 n=35 v=64
142848 On ch=10 n=59 v=64
142920 Off ch=10 n=59 v=64
143040 On ch=10 n=59 v=64
143112 Off ch=10 n=59 v=64
143208 Off ch=10 n=35 v=64
143232 On ch=10 n=40 v=64
143232 On ch=10 n=59 v=64
143304 Off ch=10 n=40 v=64
143304 Off ch=10 n=59 v=64
143424 On ch=10 n=35 v=64
143424 On ch=10 n=59 v=64
143496 Off ch=10 n=59 v=64
143616 On ch=10 n=59 v=64
143688 Off ch=10 n=59 v=64
143784 Off ch=10 n=35 v=64
143808 On ch=10 n=35 v=64
143808 On ch=10 n=59 v=64
143880 Off ch=10 n=59 v=64
143976 Off ch=10 n=35 v=64
144000 On ch=10 n=40 v=64
144000 On ch=10 n=59 v=64
144072 Off ch=10 n=40 v=64
144072 Off ch=10 n=59 v=64
144192 On ch=10 n=35 v=64
144192 On ch=10 n=59 v=64
144264 Off ch=10 n=59 v=64
144384 On ch=10 n=59 v=64
144456 Off ch=10 n=59 v=64
144552 Off ch=10 n=35 v=64
144576 On ch=10 n=59 v=64
144576 On ch=10 n=35 v=64
144648 Off ch=10 n=59 v=64
144648 Off ch=10 n=35 v=64
144768 On ch=10 n=59 v=64
144768 On ch=10 n=40 v=64
144840 Off ch=10 n=59 v=64
144840 Off ch=10 n=40 v=64
144960 On ch=10 n=59 v=64
144960 On ch=10 n=35 v=64
145032 Off ch=10 n=59 v=64
145032 Off ch=10 n=35 v=64
145152 On ch=10 n=59 v=64
145224 Off ch=10 n=59 v=64
145248 On ch=10 n=47 v=64
145320 Off ch=10 n=47 v=64
145344 On ch=10 n=59 v=64
145344 On ch=10 n=47 v=64
145416 Off ch=10 n=59 v=64
145416 Off ch=10 n=47 v=64
145536 On ch=10 n=59 v=64
145536 On ch=10 n=40 v=64
145608 Off ch=10 n=59 v=64
145608 Off ch=10 n=40 v=64
145728 On ch=10 n=59 v=64
145728 On ch=10 n=35 v=64
145800 Off ch=10 n=59 v=64
145800 Off ch=10 n=35 v=64
145920 On ch=10 n=59 v=64
145920 On ch=10 n=35 v=64
145992 Off ch=10 n=59 v=64
145992 Off ch=10 n=35 v=64
146112 On ch=10 n=59 v=64
146184 Off ch=10 n=59 v=64
146304 On ch=10 n=59 v=64
146304 On ch=10 n=40 v=64
146376 Off ch=10 n=59 v=64
146376 Off ch=10 n=40 v=64
146496 On ch=10 n=59 v=64
146496 On ch=10 n=35 v=64
146568 Off ch=10 n=59 v=64
146568 Off ch=10 n=35 v=64
146688 On ch=10 n=59 v=64
146760 Off ch=10 n=59 v=64
146880 On ch=10 n=59 v=64
146880 On ch=10 n=35 v=64
146952 Off ch=10 n=59 v=64
146952 Off ch=10 n=35 v=64
147072 On ch=10 n=59 v=64
147072 On ch=10 n=40 v=64
147144 Off ch=10 n=59 v=64
147144 Off ch=10 n=40 v=64
147264 On ch=10 n=59 v=64
147264 On ch=10 n=35 v=64
147336 Off ch=10 n=59 v=64
147336 Off ch=10 n=35 v=64
147456 On ch=10 n=59 v=64
147528 Off ch=10 n=59 v=64
147552 On ch=10 n=40 v=64
147624 Off ch=10 n=40 v=64
147648 On ch=10 n=59 v=64
147648 On ch=10 n=35 v=64
147720 Off ch=10 n=59 v=64
147720 Off ch=10 n=35 v=64
147840 On ch=10 n=59 v=64
147840 On ch=10 n=40 v=64
147912 Off ch=10 n=59 v=64
147912 Off ch=10 n=40 v=64
148032 On ch=10 n=59 v=64
148104 Off ch=10 n=59 v=64
148128 On ch=10 n=40 v=64
148200 Off ch=10 n=40 v=64
148224 On ch=10 n=59 v=64
148224 On ch=10 n=35 v=64
148296 Off ch=10 n=59 v=64
148296 Off ch=10 n=35 v=64
148320 On ch=10 n=40 v=64
148392 Off ch=10 n=40 v=64
148416 On ch=10 n=59 v=64
148416 On ch=10 n=40 v=64
148488 Off ch=10 n=59 v=64
148488 Off ch=10 n=40 v=64
148512 On ch=10 n=35 v=64
148584 Off ch=10 n=35 v=64
148608 On ch=10 n=59 v=64
148608 On ch=10 n=35 v=64
148680 Off ch=10 n=59 v=64
148680 Off ch=10 n=35 v=64
148704 On ch=10 n=40 v=64
148776 Off ch=10 n=40 v=64
148800 On ch=10 n=59 v=64
148800 On ch=10 n=40 v=64
148872 Off ch=10 n=59 v=64
148872 Off ch=10 n=40 v=64
148896 On ch=10 n=40 v=64
148968 Off ch=10 n=40 v=64
148992 On ch=10 n=59 v=64
148992 On ch=10 n=35 v=64
149064 Off ch=10 n=59 v=64
149064 Off ch=10 n=35 v=64
149184 On ch=10 n=59 v=64
149256 Off ch=10 n=59 v=64
149376 On ch=10 n=59 v=64
149376 On ch=10 n=40 v=64
149448 Off ch=10 n=59 v=64
149448 Off ch=10 n=40 v=64
149568 On ch=10 n=59 v=64
149568 On ch=10 n=35 v=64
149640 Off ch=10 n=59 v=64
149640 Off ch=10 n=35 v=64
149760 On ch=10 n=59 v=64
149832 Off ch=10 n=59 v=64
149952 On ch=10 n=59 v=64
149952 On ch=10 n=35 v=64
150024 Off ch=10 n=59 v=64
150024 Off ch=10 n=35 v=64
150144 On ch=10 n=59 v=64
150144 On ch=10 n=40 v=64
150216 Off ch=10 n=59 v=64
150216 Off ch=10 n=40 v=64
150336 On ch=10 n=59 v=64
150336 On ch=10 n=35 v=64
150408 Off ch=10 n=59 v=64
150408 Off ch=10 n=35 v=64
150528 On ch=10 n=59 v=64
150600 Off ch=10 n=59 v=64
150720 On ch=10 n=59 v=64
150720 On ch=10 n=35 v=64
150792 Off ch=10 n=59 v=64
150792 Off ch=10 n=35 v=64
150912 On ch=10 n=59 v=64
150912 On ch=10 n=40 v=64
150984 Off ch=10 n=59 v=64
150984 Off ch=10 n=40 v=64
151104 On ch=10 n=59 v=64
151104 On ch=10 n=35 v=64
151176 Off ch=10 n=59 v=64
151176 Off ch=10 n=35 v=64
151296 On ch=10 n=40 v=64
151368 Off ch=10 n=40 v=64
151584 On ch=10 n=40 v=64
151656 Off ch=10 n=40 v=64
151680 On ch=10 n=40 v=64
151752 Off ch=10 n=40 v=64
151872 On ch=10 n=40 v=64
151944 Off ch=10 n=40 v=64
152064 On ch=10 n=35 v=64
152064 On ch=10 n=57 v=90
152136 Off ch=10 n=35 v=64
152256 On ch=10 n=35 v=64
152328 Off ch=10 n=35 v=64
152424 Off ch=10 n=57 v=64
152448 On ch=10 n=42 v=64
152448 On ch=10 n=40 v=64
152520 Off ch=10 n=42 v=64
152520 Off ch=10 n=40 v=64
152640 On ch=10 n=42 v=64
152712 Off ch=10 n=42 v=64
152736 On ch=10 n=35 v=64
152808 Off ch=10 n=35 v=64
152832 On ch=10 n=35 v=64
152832 On ch=10 n=42 v=64
152904 Off ch=10 n=35 v=64
152904 Off ch=10 n=42 v=64
153024 On ch=10 n=42 v=64
153096 Off ch=10 n=42 v=64
153216 On ch=10 n=42 v=64
153216 On ch=10 n=40 v=64
153288 Off ch=10 n=42 v=64
153288 Off ch=10 n=40 v=64
153408 On ch=10 n=42 v=64
153480 Off ch=10 n=42 v=64
153600 On ch=10 n=35 v=64
153600 On ch=10 n=42 v=64
153672 Off ch=10 n=35 v=64
153672 Off ch=10 n=42 v=64
153792 On ch=10 n=42 v=64
153864 Off ch=10 n=42 v=64
153984 On ch=10 n=42 v=64
153984 On ch=10 n=40 v=64
154056 Off ch=10 n=42 v=64
154056 Off ch=10 n=40 v=64
154176 On ch=10 n=42 v=64
154248 Off ch=10 n=42 v=64
154272 On ch=10 n=42 v=64
154344 Off ch=10 n=42 v=64
154368 On ch=10 n=35 v=64
154368 On ch=10 n=42 v=64
154440 Off ch=10 n=35 v=64
154440 Off ch=10 n=42 v=64
154560 On ch=10 n=42 v=64
154632 Off ch=10 n=42 v=64
154752 On ch=10 n=42 v=64
154752 On ch=10 n=40 v=64
154824 Off ch=10 n=42 v=64
154824 Off ch=10 n=40 v=64
154944 On ch=10 n=42 v=64
155016 Off ch=10 n=42 v=64
155040 On ch=10 n=35 v=64
155040 On ch=10 n=42 v=64
155112 Off ch=10 n=35 v=64
155112 Off ch=10 n=42 v=64
155136 On ch=10 n=35 v=64
155136 On ch=10 n=42 v=64
155208 Off ch=10 n=35 v=64
155208 Off ch=10 n=42 v=64
155328 On ch=10 n=42 v=64
155400 Off ch=10 n=42 v=64
155520 On ch=10 n=42 v=64
155520 On ch=10 n=40 v=64
155592 Off ch=10 n=42 v=64
155592 Off ch=10 n=40 v=64
155712 On ch=10 n=42 v=64
155784 Off ch=10 n=42 v=64
155808 On ch=10 n=42 v=64
155880 Off ch=10 n=42 v=64
155904 On ch=10 n=35 v=64
155904 On ch=10 n=42 v=64
155976 Off ch=10 n=35 v=64
155976 Off ch=10 n=42 v=64
156000 On ch=10 n=40 v=64
156072 Off ch=10 n=40 v=64
156096 On ch=10 n=42 v=64
156096 On ch=10 n=40 v=64
156168 Off ch=10 n=42 v=64
156168 Off ch=10 n=40 v=64
156192 On ch=10 n=40 v=64
156264 Off ch=10 n=40 v=64
156288 On ch=10 n=42 v=64
156288 On ch=10 n=40 v=64
156360 Off ch=10 n=42 v=64
156360 Off ch=10 n=40 v=64
156384 On ch=10 n=40 v=64
156456 Off ch=10 n=40 v=64
156480 On ch=10 n=42 v=64
156480 On ch=10 n=35 v=64
156480 On ch=10 n=40 v=64
156552 Off ch=10 n=42 v=64
156552 Off ch=10 n=35 v=64
156552 Off ch=10 n=40 v=64
156672 On ch=10 n=42 v=64
156744 Off ch=10 n=42 v=64
156864 On ch=10 n=42 v=64
156936 Off ch=10 n=42 v=64
157056 On ch=10 n=35 v=64
157056 On ch=10 n=42 v=64
157056 On ch=10 n=40 v=64
157128 Off ch=10 n=35 v=64
157128 Off ch=10 n=42 v=64
157128 Off ch=10 n=40 v=64
157248 On ch=10 n=42 v=64
157320 Off ch=10 n=42 v=64
157344 On ch=10 n=42 v=64
157416 Off ch=10 n=42 v=64
157440 On ch=10 n=42 v=64
157512 Off ch=10 n=42 v=64
157632 On ch=10 n=35 v=64
157632 On ch=10 n=42 v=64
157704 Off ch=10 n=35 v=64
157704 Off ch=10 n=42 v=64
157824 On ch=10 n=42 v=64
157824 On ch=10 n=40 v=64
157896 Off ch=10 n=42 v=64
157896 Off ch=10 n=40 v=64
158016 On ch=10 n=42 v=64
158088 Off ch=10 n=42 v=64
158112 On ch=10 n=42 v=64
158184 Off ch=10 n=42 v=64
158208 On ch=10 n=35 v=64
158208 On ch=10 n=42 v=64
158280 Off ch=10 n=35 v=64
158280 Off ch=10 n=42 v=64
158400 On ch=10 n=42 v=64
158472 Off ch=10 n=42 v=64
158592 On ch=10 n=42 v=64
158592 On ch=10 n=40 v=64
158664 Off ch=10 n=42 v=64
158664 Off ch=10 n=40 v=64
158784 On ch=10 n=42 v=64
158856 Off ch=10 n=42 v=64
158976 On ch=10 n=35 v=64
158976 On ch=10 n=42 v=64
159048 Off ch=10 n=35 v=64
159048 Off ch=10 n=42 v=64
159168 On ch=10 n=35 v=64
159168 On ch=10 n=42 v=64
159240 Off ch=10 n=35 v=64
159240 Off ch=10 n=42 v=64
159360 On ch=10 n=42 v=64
159360 On ch=10 n=40 v=64
159432 Off ch=10 n=42 v=64
159432 Off ch=10 n=40 v=64
159552 On ch=10 n=35 v=64
159552 On ch=10 n=42 v=64
159624 Off ch=10 n=35 v=64
159624 Off ch=10 n=42 v=64
159744 On ch=10 n=35 v=64
159744 On ch=10 n=42 v=64
159816 Off ch=10 n=35 v=64
159816 Off ch=10 n=42 v=64
159936 On ch=10 n=42 v=64
160008 Off ch=10 n=42 v=64
160128 On ch=10 n=42 v=64
160128 On ch=10 n=40 v=64
160200 Off ch=10 n=42 v=64
160200 Off ch=10 n=40 v=64
160320 On ch=10 n=42 v=64
160392 Off ch=10 n=42 v=64
160416 On ch=10 n=35 v=64
160416 On ch=10 n=42 v=64
160488 Off ch=10 n=35 v=64
160488 Off ch=10 n=42 v=64
160512 On ch=10 n=35 v=64
160512 On ch=10 n=42 v=64
160584 Off ch=10 n=35 v=64
160584 Off ch=10 n=42 v=64
160704 On ch=10 n=35 v=64
160704 On ch=10 n=42 v=64
160776 Off ch=10 n=35 v=64
160776 Off ch=10 n=42 v=64
160896 On ch=10 n=42 v=64
160896 On ch=10 n=40 v=64
160968 Off ch=10 n=42 v=64
160968 Off ch=10 n=40 v=64
161088 On ch=10 n=35 v=64
161088 On ch=10 n=42 v=64
161160 Off ch=10 n=35 v=64
161160 Off ch=10 n=42 v=64
161280 On ch=10 n=35 v=64
161280 On ch=10 n=42 v=64
161352 Off ch=10 n=35 v=64
161352 Off ch=10 n=42 v=64
161472 On ch=10 n=42 v=64
161544 Off ch=10 n=42 v=64
161664 On ch=10 n=42 v=64
161664 On ch=10 n=40 v=64
161736 Off ch=10 n=42 v=64
161736 Off ch=10 n=40 v=64
161856 On ch=10 n=42 v=64
161928 Off ch=10 n=42 v=64
161952 On ch=10 n=35 v=64
161952 On ch=10 n=42 v=64
162024 Off ch=10 n=35 v=64
162024 Off ch=10 n=42 v=64
162048 On ch=10 n=35 v=64
162048 On ch=10 n=42 v=64
162120 Off ch=10 n=35 v=64
162120 Off ch=10 n=42 v=64
162240 On ch=10 n=42 v=64
162240 On ch=10 n=40 v=64
162312 Off ch=10 n=42 v=64
162312 Off ch=10 n=40 v=64
162336 On ch=10 n=40 v=64
162408 Off ch=10 n=40 v=64
162432 On ch=10 n=42 v=64
162432 On ch=10 n=40 v=64
162504 Off ch=10 n=42 v=64
162504 Off ch=10 n=40 v=64
162528 On ch=10 n=40 v=64
162600 Off ch=10 n=40 v=64
162624 On ch=10 n=35 v=64
162624 On ch=10 n=42 v=64
162624 On ch=10 n=40 v=64
162696 Off ch=10 n=35 v=64
162696 Off ch=10 n=42 v=64
162696 Off ch=10 n=40 v=64
162816 On ch=10 n=42 v=64
162888 Off ch=10 n=42 v=64
163008 On ch=10 n=35 v=64
163008 On ch=10 n=42 v=64
163080 Off ch=10 n=35 v=64
163080 Off ch=10 n=42 v=64
163200 On ch=10 n=42 v=64
163200 On ch=10 n=40 v=64
163272 Off ch=10 n=42 v=64
163272 Off ch=10 n=40 v=64
163392 On ch=10 n=42 v=64
163464 Off ch=10 n=42 v=64
163488 On ch=10 n=42 v=64
163560 Off ch=10 n=42 v=64
163584 On ch=10 n=42 v=64
163656 Off ch=10 n=42 v=64
163776 On ch=10 n=35 v=64
163776 On ch=10 n=42 v=64
163848 Off ch=10 n=35 v=64
163848 Off ch=10 n=42 v=64
163968 On ch=10 n=42 v=64
163968 On ch=10 n=40 v=64
164040 Off ch=10 n=42 v=64
164040 Off ch=10 n=40 v=64
164160 On ch=10 n=42 v=64
164232 Off ch=10 n=42 v=64
164256 On ch=10 n=42 v=64
164328 Off ch=10 n=42 v=64
164352 On ch=10 n=42 v=64
164352 On ch=10 n=35 v=64
164424 Off ch=10 n=42 v=64
164424 Off ch=10 n=35 v=64
164544 On ch=10 n=42 v=64
164544 On ch=10 n=35 v=64
164616 Off ch=10 n=42 v=64
164616 Off ch=10 n=35 v=64
164736 On ch=10 n=42 v=64
164736 On ch=10 n=40 v=64
164808 Off ch=10 n=42 v=64
164808 Off ch=10 n=40 v=64
164928 On ch=10 n=42 v=64
164928 On ch=10 n=35 v=64
165000 Off ch=10 n=42 v=64
165000 Off ch=10 n=35 v=64
165024 On ch=10 n=42 v=64
165096 Off ch=10 n=42 v=64
165120 On ch=10 n=42 v=64
165120 On ch=10 n=35 v=64
165192 Off ch=10 n=42 v=64
165192 Off ch=10 n=35 v=64
165312 On ch=10 n=42 v=64
165312 On ch=10 n=35 v=64
165384 Off ch=10 n=42 v=64
165384 Off ch=10 n=35 v=64
165504 On ch=10 n=42 v=64
165504 On ch=10 n=40 v=64
165576 Off ch=10 n=42 v=64
165576 Off ch=10 n=40 v=64
165696 On ch=10 n=42 v=64
165696 On ch=10 n=40 v=64
165768 Off ch=10 n=42 v=64
165768 Off ch=10 n=40 v=64
165792 On ch=10 n=40 v=64
165864 Off ch=10 n=40 v=64
165888 On ch=10 n=40 v=64
165888 On ch=10 n=35 v=64
165888 On ch=10 n=57 v=94
165960 Off ch=10 n=40 v=64
165960 Off ch=10 n=35 v=64
165960 Off ch=10 n=57 v=64
167232 On ch=10 n=43 v=64
167304 Off ch=10 n=43 v=64
167328 On ch=10 n=43 v=64
167400 Off ch=10 n=43 v=64
167424 On ch=10 n=43 v=64
167496 Off ch=10 n=43 v=64
168000 On ch=10 n=43 v=64
168072 Off ch=10 n=43 v=64
168096 On ch=10 n=43 v=64
168168 Off ch=10 n=43 v=64
168192 On ch=10 n=43 v=64
168264 Off ch=10 n=43 v=64
168768 On ch=10 n=43 v=64
168840 Off ch=10 n=43 v=64
168864 On ch=10 n=43 v=64
168936 Off ch=10 n=43 v=64
168960 On ch=10 n=43 v=64
169024 Off ch=10 n=43 v=64
169344 On ch=10 n=43 v=64
169408 Off ch=10 n=43 v=64
169728 On ch=10 n=43 v=64
169792 Off ch=10 n=43 v=64
170112 On ch=10 n=35 v=94
170112 On ch=10 n=57 v=94
170176 Off ch=10 n=35 v=64
170176 Off ch=10 n=57 v=64
173376 On ch=10 n=43 v=114
173448 Off ch=10 n=43 v=64
173472 On ch=10 n=43 v=114
173544 Off ch=10 n=43 v=64
173568 On ch=10 n=43 v=114
173640 Off ch=10 n=43 v=64
174144 On ch=10 n=43 v=114
174216 Off ch=10 n=43 v=64
174240 On ch=10 n=43 v=114
174312 Off ch=10 n=43 v=64
174336 On ch=10 n=43 v=114
174408 Off ch=10 n=43 v=64
174912 On ch=10 n=43 v=114
174984 Off ch=10 n=43 v=64
175008 On ch=10 n=43 v=114
175080 Off ch=10 n=43 v=64
175104 On ch=10 n=43 v=114
175168 Off ch=10 n=43 v=64
175488 On ch=10 n=43 v=114
175552 Off ch=10 n=43 v=64
175872 On ch=10 n=43 v=114
175936 Off ch=10 n=43 v=64
176256 On ch=10 n=35 v=114
176256 On ch=10 n=57 v=124
176320 Off ch=10 n=35 v=64
176320 Off ch=10 n=57 v=64
176616 On ch=10 n=35 v=94
176640 On ch=10 n=42 v=94
176688 Off ch=10 n=35 v=64
176712 Off ch=10 n=42 v=64
176832 On ch=10 n=40 v=94
176848 On ch=10 n=42 v=94
176904 Off ch=10 n=40 v=64
176920 Off ch=10 n=42 v=64
177040 On ch=10 n=42 v=94
177112 Off ch=10 n=42 v=64
177216 On ch=10 n=35 v=94
177232 On ch=10 n=42 v=94
177288 Off ch=10 n=35 v=64
177304 Off ch=10 n=42 v=64
177408 On ch=10 n=35 v=94
177424 On ch=10 n=42 v=94
177480 Off ch=10 n=35 v=64
177496 Off ch=10 n=42 v=64
177600 On ch=10 n=40 v=94
177616 On ch=10 n=42 v=94
177672 Off ch=10 n=40 v=64
177688 Off ch=10 n=42 v=64
177808 On ch=10 n=42 v=94
177880 Off ch=10 n=42 v=64
177984 On ch=10 n=35 v=94
177984 On ch=10 n=57 v=127
178056 Off ch=10 n=35 v=64
178056 Off ch=10 n=57 v=64
178176 On ch=10 n=40 v=94
178248 Off ch=10 n=40 v=64
178272 On ch=10 n=40 v=94
178344 Off ch=10 n=40 v=64
178368 On ch=10 n=40 v=94
178440 Off ch=10 n=40 v=64
178568 On ch=10 n=47 v=94
178640 Off ch=10 n=47 v=64
178664 On ch=10 n=47 v=94
178736 Off ch=10 n=47 v=64
178752 On ch=10 n=47 v=94
178824 Off ch=10 n=47 v=64
178952 On ch=10 n=43 v=94
179024 Off ch=10 n=43 v=64
179136 On ch=10 n=42 v=94
179136 On ch=10 n=43 v=94
179208 Off ch=10 n=42 v=64
179208 Off ch=10 n=43 v=64
179328 On ch=10 n=35 v=94
179400 Off ch=10 n=35 v=64
179520 On ch=10 n=57 v=127
179520 On ch=10 n=35 v=94
179592 Off ch=10 n=57 v=64
179592 Off ch=10 n=35 v=64
179904 On ch=10 n=42 v=94
179904 On ch=10 n=40 v=94
179976 Off ch=10 n=42 v=64
179976 Off ch=10 n=40 v=64
180096 On ch=10 n=42 v=94
180168 Off ch=10 n=42 v=64
180288 On ch=10 n=42 v=94
180288 On ch=10 n=35 v=94
180360 Off ch=10 n=42 v=64
180360 Off ch=10 n=35 v=64
180480 On ch=10 n=42 v=94
180480 On ch=10 n=35 v=94
180552 Off ch=10 n=42 v=64
180552 Off ch=10 n=35 v=64
180672 On ch=10 n=42 v=94
180672 On ch=10 n=40 v=94
180744 Off ch=10 n=42 v=64
180744 Off ch=10 n=40 v=64
180864 On ch=10 n=42 v=94
180936 Off ch=10 n=42 v=64
180960 On ch=10 n=35 v=94
181032 Off ch=10 n=35 v=64
181056 On ch=10 n=42 v=94
181056 On ch=10 n=35 v=94
181128 Off ch=10 n=42 v=64
181128 Off ch=10 n=35 v=64
181248 On ch=10 n=42 v=94
181248 On ch=10 n=40 v=94
181320 Off ch=10 n=42 v=64
181320 Off ch=10 n=40 v=64
181440 On ch=10 n=42 v=94
181512 Off ch=10 n=42 v=64
181536 On ch=10 n=40 v=94
181608 Off ch=10 n=40 v=64
181632 On ch=10 n=42 v=94
181632 On ch=10 n=35 v=94
181704 Off ch=10 n=42 v=64
181704 Off ch=10 n=35 v=64
181824 On ch=10 n=42 v=94
181824 On ch=10 n=35 v=94
181896 Off ch=10 n=42 v=64
181896 Off ch=10 n=35 v=64
182016 On ch=10 n=42 v=94
182016 On ch=10 n=40 v=94
182088 Off ch=10 n=42 v=64
182088 Off ch=10 n=40 v=64
182112 On ch=10 n=35 v=94
182184 Off ch=10 n=35 v=64
182208 On ch=10 n=42 v=94
182208 On ch=10 n=40 v=94
182280 Off ch=10 n=42 v=64
182280 Off ch=10 n=40 v=64
182304 On ch=10 n=35 v=94
182376 Off ch=10 n=35 v=64
182400 On ch=10 n=42 v=94
182400 On ch=10 n=40 v=94
182472 Off ch=10 n=42 v=64
182472 Off ch=10 n=40 v=64
182592 On ch=10 n=42 v=94
182592 On ch=10 n=35 v=94
182664 Off ch=10 n=42 v=64
182664 Off ch=10 n=35 v=64
182784 On ch=10 n=42 v=94
182784 On ch=10 n=35 v=94
182856 Off ch=10 n=42 v=64
182856 Off ch=10 n=35 v=64
182976 On ch=10 n=42 v=94
182976 On ch=10 n=40 v=94
183048 Off ch=10 n=42 v=64
183048 Off ch=10 n=40 v=64
183168 On ch=10 n=42 v=94
183240 Off ch=10 n=42 v=64
183264 On ch=10 n=35 v=94
183336 Off ch=10 n=35 v=64
183360 On ch=10 n=42 v=94
183360 On ch=10 n=35 v=94
183432 Off ch=10 n=42 v=64
183432 Off ch=10 n=35 v=64
183552 On ch=10 n=42 v=94
183552 On ch=10 n=35 v=94
183624 Off ch=10 n=42 v=64
183624 Off ch=10 n=35 v=64
183744 On ch=10 n=42 v=94
183744 On ch=10 n=40 v=94
183816 Off ch=10 n=42 v=64
183816 Off ch=10 n=40 v=64
183936 On ch=10 n=42 v=94
184008 Off ch=10 n=42 v=64
184032 On ch=10 n=35 v=94
184104 Off ch=10 n=35 v=64
184128 On ch=10 n=42 v=94
184128 On ch=10 n=35 v=94
184200 Off ch=10 n=42 v=64
184200 Off ch=10 n=35 v=64
184320 On ch=10 n=42 v=94
184320 On ch=10 n=35 v=94
184392 Off ch=10 n=42 v=64
184392 Off ch=10 n=35 v=64
184512 On ch=10 n=42 v=94
184512 On ch=10 n=40 v=94
184584 Off ch=10 n=42 v=64
184584 Off ch=10 n=40 v=64
184704 On ch=10 n=42 v=94
184776 Off ch=10 n=42 v=64
184896 On ch=10 n=42 v=94
184896 On ch=10 n=35 v=94
184968 Off ch=10 n=42 v=64
184968 Off ch=10 n=35 v=64
184992 On ch=10 n=40 v=94
185064 Off ch=10 n=40 v=64
185088 On ch=10 n=42 v=94
185088 On ch=10 n=40 v=94
185160 Off ch=10 n=42 v=64
185160 Off ch=10 n=40 v=64
185184 On ch=10 n=35 v=94
185256 Off ch=10 n=35 v=64
185280 On ch=10 n=42 v=94
185280 On ch=10 n=40 v=94
185352 Off ch=10 n=42 v=64
185352 Off ch=10 n=40 v=64
185472 On ch=10 n=42 v=94
185472 On ch=10 n=35 v=94
185544 Off ch=10 n=42 v=64
185544 Off ch=10 n=35 v=64
185664 On ch=10 n=42 v=94
185664 On ch=10 n=35 v=94
185736 Off ch=10 n=42 v=64
185736 Off ch=10 n=35 v=64
185856 On ch=10 n=42 v=94
185856 On ch=10 n=35 v=94
185928 Off ch=10 n=42 v=64
185928 Off ch=10 n=35 v=64
186048 On ch=10 n=42 v=94
186048 On ch=10 n=40 v=94
186120 Off ch=10 n=42 v=64
186120 Off ch=10 n=40 v=64
186240 On ch=10 n=42 v=94
186312 Off ch=10 n=42 v=64
186336 On ch=10 n=35 v=94
186408 Off ch=10 n=35 v=64
186432 On ch=10 n=42 v=94
186432 On ch=10 n=35 v=94
186504 Off ch=10 n=42 v=64
186504 Off ch=10 n=35 v=64
186624 On ch=10 n=42 v=94
186624 On ch=10 n=35 v=94
186696 Off ch=10 n=42 v=64
186696 Off ch=10 n=35 v=64
186816 On ch=10 n=42 v=94
186816 On ch=10 n=40 v=94
186888 Off ch=10 n=42 v=64
186888 Off ch=10 n=40 v=64
187008 On ch=10 n=42 v=94
187080 Off ch=10 n=42 v=64
187104 On ch=10 n=35 v=94
187176 Off ch=10 n=35 v=64
187200 On ch=10 n=42 v=94
187200 On ch=10 n=35 v=94
187272 Off ch=10 n=42 v=64
187272 Off ch=10 n=35 v=64
187392 On ch=10 n=42 v=94
187392 On ch=10 n=35 v=94
187464 Off ch=10 n=42 v=64
187464 Off ch=10 n=35 v=64
187584 On ch=10 n=42 v=94
187584 On ch=10 n=40 v=94
187656 Off ch=10 n=42 v=64
187656 Off ch=10 n=40 v=64
187776 On ch=10 n=42 v=94
187848 Off ch=10 n=42 v=64
187872 On ch=10 n=35 v=94
187944 Off ch=10 n=35 v=64
187968 On ch=10 n=42 v=94
187968 On ch=10 n=35 v=94
188040 Off ch=10 n=42 v=64
188040 Off ch=10 n=35 v=64
188160 On ch=10 n=42 v=94
188160 On ch=10 n=35 v=94
188232 Off ch=10 n=42 v=64
188232 Off ch=10 n=35 v=64
188352 On ch=10 n=42 v=94
188352 On ch=10 n=40 v=94
188424 Off ch=10 n=42 v=64
188424 Off ch=10 n=40 v=64
188544 On ch=10 n=42 v=94
188616 Off ch=10 n=42 v=64
188640 On ch=10 n=35 v=94
188712 Off ch=10 n=35 v=64
188736 On ch=10 n=42 v=94
188736 On ch=10 n=35 v=94
188808 Off ch=10 n=42 v=64
188808 Off ch=10 n=35 v=64
188928 On ch=10 n=42 v=94
188928 On ch=10 n=35 v=94
189000 Off ch=10 n=42 v=64
189000 Off ch=10 n=35 v=64
189120 On ch=10 n=42 v=94
189120 On ch=10 n=40 v=94
189192 Off ch=10 n=42 v=64
189192 Off ch=10 n=40 v=64
189312 On ch=10 n=42 v=94
189384 Off ch=10 n=42 v=64
189408 On ch=10 n=35 v=94
189480 Off ch=10 n=35 v=64
189504 On ch=10 n=42 v=94
189504 On ch=10 n=35 v=94
189576 Off ch=10 n=42 v=64
189576 Off ch=10 n=35 v=64
189696 On ch=10 n=42 v=94
189696 On ch=10 n=35 v=94
189768 Off ch=10 n=42 v=64
189768 Off ch=10 n=35 v=64
189888 On ch=10 n=42 v=94
189888 On ch=10 n=40 v=94
189960 Off ch=10 n=42 v=64
189960 Off ch=10 n=40 v=64
190080 On ch=10 n=42 v=94
190152 Off ch=10 n=42 v=64
190176 On ch=10 n=35 v=94
190248 Off ch=10 n=35 v=64
190272 On ch=10 n=42 v=94
190272 On ch=10 n=35 v=94
190344 Off ch=10 n=42 v=64
190344 Off ch=10 n=35 v=64
190464 On ch=10 n=42 v=94
190464 On ch=10 n=35 v=94
190536 Off ch=10 n=42 v=64
190536 Off ch=10 n=35 v=64
190656 On ch=10 n=42 v=94
190656 On ch=10 n=40 v=94
190728 Off ch=10 n=42 v=64
190728 Off ch=10 n=40 v=64
190752 On ch=10 n=35 v=94
190824 Off ch=10 n=35 v=64
190848 On ch=10 n=42 v=94
190848 On ch=10 n=35 v=94
190920 Off ch=10 n=42 v=64
190920 Off ch=10 n=35 v=64
190944 On ch=10 n=35 v=94
191016 Off ch=10 n=35 v=64
191040 On ch=10 n=42 v=94
191040 On ch=10 n=35 v=94
191112 Off ch=10 n=42 v=64
191112 Off ch=10 n=35 v=64
191136 On ch=10 n=35 v=94
191208 Off ch=10 n=35 v=64
191232 On ch=10 n=42 v=94
191232 On ch=10 n=35 v=94
191304 Off ch=10 n=42 v=64
191304 Off ch=10 n=35 v=64
191328 On ch=10 n=35 v=94
191400 Off ch=10 n=35 v=64
191424 On ch=10 n=42 v=94
191424 On ch=10 n=40 v=94
191424 On ch=10 n=35 v=94
191496 Off ch=10 n=42 v=64
191496 Off ch=10 n=40 v=64
191496 Off ch=10 n=35 v=64
191520 On ch=10 n=35 v=94
191592 Off ch=10 n=35 v=64
191616 On ch=10 n=42 v=94
191616 On ch=10 n=35 v=94
191688 Off ch=10 n=42 v=64
191688 Off ch=10 n=35 v=64
191712 On ch=10 n=35 v=94
191784 Off ch=10 n=35 v=64
191808 On ch=10 n=57 v=104
191808 On ch=10 n=35 v=94
191880 Off ch=10 n=57 v=64
191880 Off ch=10 n=35 v=64
192000 On ch=10 n=42 v=94
192000 On ch=10 n=35 v=94
192072 Off ch=10 n=42 v=64
192072 Off ch=10 n=35 v=64
192192 On ch=10 n=42 v=94
192192 On ch=10 n=40 v=94
192264 Off ch=10 n=42 v=64
192264 Off ch=10 n=40 v=64
192384 On ch=10 n=42 v=94
192456 Off ch=10 n=42 v=64
192480 On ch=10 n=35 v=94
192552 Off ch=10 n=35 v=64
192576 On ch=10 n=42 v=94
192576 On ch=10 n=35 v=94
192648 Off ch=10 n=42 v=64
192648 Off ch=10 n=35 v=64
192768 On ch=10 n=42 v=94
192792 On ch=10 n=35 v=94
192840 Off ch=10 n=42 v=64
192864 Off ch=10 n=35 v=64
192960 On ch=10 n=42 v=94
192960 On ch=10 n=40 v=94
193032 Off ch=10 n=42 v=64
193032 Off ch=10 n=40 v=64
193152 On ch=10 n=42 v=94
193224 Off ch=10 n=42 v=64
193248 On ch=10 n=35 v=94
193320 Off ch=10 n=35 v=64
193344 On ch=10 n=42 v=94
193344 On ch=10 n=35 v=94
193416 Off ch=10 n=42 v=64
193416 Off ch=10 n=35 v=64
193536 On ch=10 n=42 v=94
193536 On ch=10 n=35 v=94
193608 Off ch=10 n=42 v=64
193608 Off ch=10 n=35 v=64
193728 On ch=10 n=42 v=94
193728 On ch=10 n=40 v=94
193800 Off ch=10 n=42 v=64
193800 Off ch=10 n=40 v=64
193920 On ch=10 n=42 v=94
193992 Off ch=10 n=42 v=64
194016 On ch=10 n=35 v=94
194088 Off ch=10 n=35 v=64
194112 On ch=10 n=42 v=94
194112 On ch=10 n=35 v=94
194184 Off ch=10 n=42 v=64
194184 Off ch=10 n=35 v=64
194304 On ch=10 n=42 v=94
194376 Off ch=10 n=42 v=64
194400 On ch=10 n=35 v=94
194472 Off ch=10 n=35 v=64
194496 On ch=10 n=42 v=94
194496 On ch=10 n=40 v=94
194568 Off ch=10 n=42 v=64
194568 Off ch=10 n=40 v=64
194688 On ch=10 n=42 v=94
194760 Off ch=10 n=42 v=64
194784 On ch=10 n=35 v=94
194856 Off ch=10 n=35 v=64
194880 On ch=10 n=42 v=94
194880 On ch=10 n=35 v=94
194952 Off ch=10 n=42 v=64
194952 Off ch=10 n=35 v=64
195072 On ch=10 n=42 v=94
195072 On ch=10 n=35 v=94
195144 Off ch=10 n=42 v=64
195144 Off ch=10 n=35 v=64
195264 On ch=10 n=42 v=94
195264 On ch=10 n=40 v=94
195336 Off ch=10 n=42 v=64
195336 Off ch=10 n=40 v=64
195456 On ch=10 n=42 v=94
195528 Off ch=10 n=42 v=64
195552 On ch=10 n=35 v=94
195624 Off ch=10 n=35 v=64
195648 On ch=10 n=42 v=94
195648 On ch=10 n=35 v=94
195720 Off ch=10 n=42 v=64
195720 Off ch=10 n=35 v=64
195840 On ch=10 n=42 v=94
195840 On ch=10 n=35 v=94
195912 Off ch=10 n=42 v=64
195912 Off ch=10 n=35 v=64
196032 On ch=10 n=42 v=94
196032 On ch=10 n=40 v=94
196104 Off ch=10 n=42 v=64
196104 Off ch=10 n=40 v=64
196224 On ch=10 n=42 v=94
196224 On ch=10 n=40 v=94
196296 Off ch=10 n=42 v=64
196296 Off ch=10 n=40 v=64
196416 On ch=10 n=46 v=94
196416 On ch=10 n=47 v=94
196440 Off ch=10 n=47 v=64
196464 On ch=10 n=43 v=94
196488 Off ch=10 n=43 v=64
196512 On ch=10 n=43 v=94
196536 Off ch=10 n=43 v=64
196560 On ch=10 n=43 v=94
196584 Off ch=10 n=43 v=64
196608 On ch=10 n=43 v=94
196632 Off ch=10 n=43 v=64
196656 On ch=10 n=43 v=94
196680 Off ch=10 n=46 v=64
196680 Off ch=10 n=43 v=64
196704 On ch=10 n=46 v=94
196704 On ch=10 n=47 v=94
196728 Off ch=10 n=47 v=64
196752 On ch=10 n=43 v=94
196776 Off ch=10 n=43 v=64
196800 On ch=10 n=43 v=94
196824 Off ch=10 n=43 v=64
196848 On ch=10 n=43 v=94
196872 Off ch=10 n=43 v=64
196896 On ch=10 n=43 v=94
196920 Off ch=10 n=43 v=64
196944 On ch=10 n=43 v=94
196968 Off ch=10 n=46 v=64
196968 Off ch=10 n=43 v=64
196992 On ch=10 n=46 v=94
196992 On ch=10 n=47 v=94
197016 Off ch=10 n=47 v=64
197040 On ch=10 n=43 v=94
197064 Off ch=10 n=43 v=64
197088 On ch=10 n=43 v=94
197112 Off ch=10 n=43 v=64
197136 On ch=10 n=43 v=94
197160 Off ch=10 n=43 v=64
197184 On ch=10 n=43 v=94
197208 Off ch=10 n=43 v=64
197232 On ch=10 n=43 v=94
197256 Off ch=10 n=43 v=64
197280 On ch=10 n=43 v=94
197304 Off ch=10 n=43 v=64
197328 On ch=10 n=43 v=94
197352 Off ch=10 n=46 v=64
197352 Off ch=10 n=43 v=64
197376 On ch=10 n=46 v=94
197376 On ch=10 n=47 v=94
197400 Off ch=10 n=47 v=64
197424 On ch=10 n=43 v=94
197448 Off ch=10 n=43 v=64
197472 On ch=10 n=43 v=94
197496 Off ch=10 n=43 v=64
197520 On ch=10 n=43 v=94
197544 Off ch=10 n=43 v=64
197568 On ch=10 n=47 v=94
197592 Off ch=10 n=47 v=64
197616 On ch=10 n=43 v=94
197640 Off ch=10 n=43 v=64
197664 On ch=10 n=43 v=94
197688 Off ch=10 n=43 v=64
197712 On ch=10 n=43 v=94
197736 Off ch=10 n=46 v=64
197736 Off ch=10 n=43 v=64
197760 On ch=10 n=46 v=94
197760 On ch=10 n=40 v=94
197928 Off ch=10 n=46 v=64
197928 Off ch=10 n=40 v=64
197952 On ch=10 n=57 v=104
197952 On ch=10 n=35 v=94
198024 Off ch=10 n=57 v=64
198024 Off ch=10 n=35 v=64
198144 On ch=10 n=35 v=94
198216 Off ch=10 n=35 v=64
198336 On ch=10 n=42 v=94
198336 On ch=10 n=40 v=94
198408 Off ch=10 n=42 v=64
198408 Off ch=10 n=40 v=64
198528 On ch=10 n=42 v=94
198600 Off ch=10 n=42 v=64
198624 On ch=10 n=35 v=94
198696 Off ch=10 n=35 v=64
198720 On ch=10 n=42 v=94
198720 On ch=10 n=35 v=94
198792 Off ch=10 n=42 v=64
198792 Off ch=10 n=35 v=64
198912 On ch=10 n=42 v=94
198912 On ch=10 n=35 v=94
198984 Off ch=10 n=42 v=64
198984 Off ch=10 n=35 v=64
199104 On ch=10 n=42 v=94
199104 On ch=10 n=40 v=94
199176 Off ch=10 n=42 v=64
199176 Off ch=10 n=40 v=64
199296 On ch=10 n=42 v=94
199368 Off ch=10 n=42 v=64
199488 On ch=10 n=42 v=94
199488 On ch=10 n=35 v=94
199560 Off ch=10 n=42 v=64
199560 Off ch=10 n=35 v=64
199680 On ch=10 n=42 v=94
199680 On ch=10 n=35 v=94
199752 Off ch=10 n=42 v=64
199752 Off ch=10 n=35 v=64
199872 On ch=10 n=42 v=94
199872 On ch=10 n=40 v=94
199944 Off ch=10 n=42 v=64
199944 Off ch=10 n=40 v=64
200064 On ch=10 n=42 v=94
200136 Off ch=10 n=42 v=64
200256 On ch=10 n=42 v=94
200328 Off ch=10 n=42 v=64
200352 On ch=10 n=40 v=94
200424 Off ch=10 n=40 v=64
200448 On ch=10 n=42 v=94
200448 On ch=10 n=35 v=94
200520 Off ch=10 n=42 v=64
200520 Off ch=10 n=35 v=64
200640 On ch=10 n=42 v=94
200640 On ch=10 n=40 v=94
200712 Off ch=10 n=42 v=64
200712 Off ch=10 n=40 v=64
200832 On ch=10 n=42 v=94
200904 Off ch=10 n=42 v=64
200928 On ch=10 n=35 v=94
201000 Off ch=10 n=35 v=64
201024 On ch=10 n=35 v=94
201024 On ch=10 n=57 v=94
201096 Off ch=10 n=35 v=64
201096 Off ch=10 n=57 v=64
201408 On ch=10 n=42 v=94
201408 On ch=10 n=40 v=94
201480 Off ch=10 n=42 v=64
201480 Off ch=10 n=40 v=64
201600 On ch=10 n=42 v=94
201672 Off ch=10 n=42 v=64
201792 On ch=10 n=42 v=94
201792 On ch=10 n=35 v=94
201864 Off ch=10 n=42 v=64
201864 Off ch=10 n=35 v=64
201984 On ch=10 n=42 v=94
201984 On ch=10 n=35 v=94
202056 Off ch=10 n=42 v=64
202056 Off ch=10 n=35 v=64
202176 On ch=10 n=42 v=94
202176 On ch=10 n=40 v=94
202248 Off ch=10 n=42 v=64
202248 Off ch=10 n=40 v=64
202368 On ch=10 n=42 v=94
202440 Off ch=10 n=42 v=64
202560 On ch=10 n=42 v=94
202560 On ch=10 n=35 v=94
202632 Off ch=10 n=42 v=64
202632 Off ch=10 n=35 v=64
202752 On ch=10 n=42 v=94
202752 On ch=10 n=35 v=94
202824 Off ch=10 n=42 v=64
202824 Off ch=10 n=35 v=64
202944 On ch=10 n=42 v=94
202944 On ch=10 n=40 v=94
203016 Off ch=10 n=42 v=64
203016 Off ch=10 n=40 v=64
203136 On ch=10 n=42 v=94
203208 Off ch=10 n=42 v=64
203328 On ch=10 n=42 v=94
203400 Off ch=10 n=42 v=64
203424 On ch=10 n=40 v=94
203496 Off ch=10 n=40 v=64
203520 On ch=10 n=42 v=94
203520 On ch=10 n=35 v=94
203592 Off ch=10 n=42 v=64
203592 Off ch=10 n=35 v=64
203712 On ch=10 n=42 v=94
203712 On ch=10 n=40 v=94
203784 Off ch=10 n=42 v=64
203784 Off ch=10 n=40 v=64
203904 On ch=10 n=42 v=94
203976 Off ch=10 n=42 v=64
204096 On ch=10 n=57 v=90
204096 On ch=10 n=35 v=90
204192 Off ch=10 n=57 v=64
204192 Off ch=10 n=35 v=64
204288 On ch=10 n=42 v=90
204288 On ch=10 n=35 v=90
204384 Off ch=10 n=42 v=64
204384 Off ch=10 n=35 v=64
204480 On ch=10 n=42 v=90
204480 On ch=10 n=40 v=90
204576 Off ch=10 n=42 v=64
204576 Off ch=10 n=40 v=64
204672 On ch=10 n=42 v=90
204768 Off ch=10 n=42 v=64
204864 On ch=10 n=42 v=90
204864 On ch=10 n=35 v=90
204960 Off ch=10 n=42 v=64
204960 Off ch=10 n=35 v=64
205056 On ch=10 n=42 v=90
205152 Off ch=10 n=42 v=64
205248 On ch=10 n=42 v=90
205248 On ch=10 n=40 v=90
205344 Off ch=10 n=42 v=64
205344 Off ch=10 n=40 v=64
205440 On ch=10 n=42 v=90
205536 Off ch=10 n=42 v=64
205632 On ch=10 n=35 v=90
205632 On ch=10 n=42 v=90
205728 Off ch=10 n=35 v=64
205728 Off ch=10 n=42 v=64
205824 On ch=10 n=35 v=90
205824 On ch=10 n=42 v=90
205920 Off ch=10 n=35 v=64
205920 Off ch=10 n=42 v=64
206016 On ch=10 n=40 v=90
206016 On ch=10 n=42 v=90
206112 Off ch=10 n=40 v=64
206112 Off ch=10 n=42 v=64
206208 On ch=10 n=42 v=90
206304 Off ch=10 n=42 v=64
206400 On ch=10 n=35 v=90
206400 On ch=10 n=42 v=90
206496 Off ch=10 n=35 v=64
206496 Off ch=10 n=42 v=64
206592 On ch=10 n=42 v=90
206688 Off ch=10 n=42 v=64
206688 On ch=10 n=35 v=90
206784 Off ch=10 n=35 v=64
206784 On ch=10 n=40 v=90
206784 On ch=10 n=42 v=90
206880 Off ch=10 n=40 v=64
206880 Off ch=10 n=42 v=64
206976 On ch=10 n=42 v=90
207072 Off ch=10 n=42 v=64
207168 On ch=10 n=35 v=90
207168 On ch=10 n=42 v=90
207264 Off ch=10 n=35 v=64
207264 Off ch=10 n=42 v=64
207360 On ch=10 n=35 v=90
207360 On ch=10 n=42 v=90
207456 Off ch=10 n=35 v=64
207456 Off ch=10 n=42 v=64
207552 On ch=10 n=40 v=90
207552 On ch=10 n=42 v=90
207648 Off ch=10 n=40 v=64
207648 Off ch=10 n=42 v=64
207744 On ch=10 n=42 v=90
207840 Off ch=10 n=42 v=64
207936 On ch=10 n=35 v=90
207936 On ch=10 n=42 v=90
208032 Off ch=10 n=35 v=64
208032 Off ch=10 n=42 v=64
208128 On ch=10 n=42 v=90
208128 On ch=10 n=35 v=90
208224 Off ch=10 n=42 v=64
208224 Off ch=10 n=35 v=64
208320 On ch=10 n=40 v=90
208320 On ch=10 n=42 v=90
208416 Off ch=10 n=40 v=64
208416 Off ch=10 n=42 v=64
208512 On ch=10 n=42 v=90
208608 Off ch=10 n=42 v=64
208704 On ch=10 n=40 v=90
208800 Off ch=10 n=40 v=64
208896 On ch=10 n=35 v=90
208992 Off ch=10 n=35 v=64
208992 On ch=10 n=40 v=90
209088 Off ch=10 n=40 v=64
209184 On ch=10 n=35 v=90
209280 Off ch=10 n=35 v=64
209280 On ch=10 n=40 v=90
209376 Off ch=10 n=40 v=64
209472 On ch=10 n=35 v=90
209568 Off ch=10 n=35 v=64
209568 On ch=10 n=40 v=90
209664 Off ch=10 n=40 v=64
209760 On ch=10 n=35 v=90
209856 Off ch=10 n=35 v=64
209856 On ch=10 n=40 v=90
209952 Off ch=10 n=40 v=64
210048 On ch=10 n=40 v=90
210144 Off ch=10 n=40 v=64
210240 On ch=10 n=35 v=110
210240 On ch=10 n=57 v=110
210336 Off ch=10 n=35 v=64
210336 Off ch=10 n=57 v=64
210432 On ch=10 n=35 v=110
210528 Off ch=10 n=35 v=64
210624 On ch=10 n=40 v=110
210624 On ch=10 n=42 v=110
210720 Off ch=10 n=40 v=64
210720 Off ch=10 n=42 v=64
210816 On ch=10 n=42 v=110
210912 Off ch=10 n=42 v=64
211008 On ch=10 n=35 v=110
211008 On ch=10 n=42 v=110
211104 Off ch=10 n=35 v=64
211104 Off ch=10 n=42 v=64
211200 On ch=10 n=35 v=110
211200 On ch=10 n=42 v=110
211296 Off ch=10 n=35 v=64
211296 Off ch=10 n=42 v=64
211392 On ch=10 n=40 v=110
211392 On ch=10 n=42 v=110
211488 Off ch=10 n=40 v=64
211488 Off ch=10 n=42 v=64
211584 On ch=10 n=42 v=110
211680 Off ch=10 n=42 v=64
211776 On ch=10 n=42 v=110
211776 On ch=10 n=35 v=110
211872 Off ch=10 n=42 v=64
211872 Off ch=10 n=35 v=64
211968 On ch=10 n=42 v=110
211968 On ch=10 n=40 v=110
212064 Off ch=10 n=42 v=64
212064 Off ch=10 n=40 v=64
212064 On ch=10 n=35 v=110
212160 Off ch=10 n=35 v=64
212160 On ch=10 n=42 v=110
212256 Off ch=10 n=42 v=64
212256 On ch=10 n=40 v=110
212352 Off ch=10 n=40 v=64
212352 On ch=10 n=42 v=110
212352 On ch=10 n=35 v=110
212448 Off ch=10 n=42 v=64
212448 Off ch=10 n=35 v=64
212544 On ch=10 n=42 v=110
212544 On ch=10 n=40 v=110
212640 Off ch=10 n=42 v=64
212640 Off ch=10 n=40 v=64
212640 On ch=10 n=35 v=110
212736 Off ch=10 n=35 v=64
212736 On ch=10 n=42 v=110
212832 Off ch=10 n=42 v=64
212832 On ch=10 n=40 v=110
212928 Off ch=10 n=40 v=64
212928 On ch=10 n=42 v=110
212928 On ch=10 n=35 v=110
213024 Off ch=10 n=42 v=64
213024 Off ch=10 n=35 v=64
213120 On ch=10 n=42 v=110
213120 On ch=10 n=35 v=110
213120 On ch=10 n=40 v=110
213216 Off ch=10 n=42 v=64
213216 Off ch=10 n=35 v=64
213216 Off ch=10 n=40 v=64
213312 On ch=10 n=35 v=110
213312 On ch=10 n=42 v=110
213408 Off ch=10 n=35 v=64
213408 Off ch=10 n=42 v=64
213504 On ch=10 n=35 v=110
213504 On ch=10 n=42 v=110
213600 Off ch=10 n=35 v=64
213600 Off ch=10 n=42 v=64
213696 On ch=10 n=40 v=110
213696 On ch=10 n=42 v=110
213792 Off ch=10 n=40 v=64
213792 Off ch=10 n=42 v=64
213888 On ch=10 n=42 v=110
213984 Off ch=10 n=42 v=64
214080 On ch=10 n=35 v=110
214080 On ch=10 n=42 v=110
214176 Off ch=10 n=35 v=64
214176 Off ch=10 n=42 v=64
214272 On ch=10 n=35 v=110
214272 On ch=10 n=42 v=110
214368 Off ch=10 n=35 v=64
214368 Off ch=10 n=42 v=64
214464 On ch=10 n=40 v=110
214464 On ch=10 n=42 v=110
214560 Off ch=10 n=40 v=64
214560 Off ch=10 n=42 v=64
214656 On ch=10 n=42 v=110
214752 Off ch=10 n=42 v=64
214848 On ch=10 n=42 v=110
214848 On ch=10 n=35 v=110
214944 Off ch=10 n=42 v=64
214944 Off ch=10 n=35 v=64
215040 On ch=10 n=42 v=110
215040 On ch=10 n=40 v=110
215136 Off ch=10 n=42 v=64
215136 Off ch=10 n=40 v=64
215136 On ch=10 n=35 v=110
215232 Off ch=10 n=35 v=64
215232 On ch=10 n=42 v=110
215328 Off ch=10 n=42 v=64
215328 On ch=10 n=40 v=110
215424 Off ch=10 n=40 v=64
215424 On ch=10 n=42 v=110
215424 On ch=10 n=35 v=110
215520 Off ch=10 n=42 v=64
215520 Off ch=10 n=35 v=64
215616 On ch=10 n=42 v=110
215616 On ch=10 n=40 v=110
215712 Off ch=10 n=42 v=64
215712 Off ch=10 n=40 v=64
215712 On ch=10 n=35 v=110
215808 Off ch=10 n=35 v=64
215808 On ch=10 n=42 v=110
215904 Off ch=10 n=42 v=64
215904 On ch=10 n=40 v=110
216000 Off ch=10 n=40 v=64
216000 On ch=10 n=42 v=110
216000 On ch=10 n=35 v=110
216096 Off ch=10 n=42 v=64
216096 Off ch=10 n=35 v=64
216192 On ch=10 n=42 v=110
216192 On ch=10 n=35 v=110
216192 On ch=10 n=40 v=110
216288 Off ch=10 n=42 v=64
216288 Off ch=10 n=35 v=64
216288 Off ch=10 n=40 v=64
216384 On ch=10 n=35 v=110
216384 On ch=10 n=42 v=120
216480 Off ch=10 n=35 v=64
216480 Off ch=10 n=42 v=64
216576 On ch=10 n=35 v=110
216576 On ch=10 n=42 v=120
216672 Off ch=10 n=35 v=64
216672 Off ch=10 n=42 v=64
216768 On ch=10 n=40 v=110
216768 On ch=10 n=42 v=110
216864 Off ch=10 n=40 v=64
216864 Off ch=10 n=42 v=64
216960 On ch=10 n=42 v=110
217056 Off ch=10 n=42 v=64
217152 On ch=10 n=35 v=110
217152 On ch=10 n=42 v=110
217248 Off ch=10 n=35 v=64
217248 Off ch=10 n=42 v=64
217344 On ch=10 n=35 v=110
217344 On ch=10 n=42 v=110
217440 Off ch=10 n=35 v=64
217440 Off ch=10 n=42 v=64
217536 On ch=10 n=40 v=110
217536 On ch=10 n=42 v=110
217632 Off ch=10 n=40 v=64
217632 Off ch=10 n=42 v=64
217728 On ch=10 n=42 v=110
217824 Off ch=10 n=42 v=64
217920 On ch=10 n=42 v=110
217920 On ch=10 n=35 v=110
218016 Off ch=10 n=42 v=64
218016 Off ch=10 n=35 v=64
218112 On ch=10 n=42 v=110
218112 On ch=10 n=40 v=110
218208 Off ch=10 n=42 v=64
218208 Off ch=10 n=40 v=64
218208 On ch=10 n=35 v=110
218304 Off ch=10 n=35 v=64
218304 On ch=10 n=42 v=110
218400 Off ch=10 n=42 v=64
218400 On ch=10 n=40 v=110
218496 Off ch=10 n=40 v=64
218496 On ch=10 n=42 v=110
218496 On ch=10 n=35 v=110
218592 Off ch=10 n=42 v=64
218592 Off ch=10 n=35 v=64
218688 On ch=10 n=42 v=110
218688 On ch=10 n=40 v=110
218784 Off ch=10 n=42 v=64
218784 Off ch=10 n=40 v=64
218784 On ch=10 n=35 v=110
218880 Off ch=10 n=35 v=64
218880 On ch=10 n=42 v=110
218976 Off ch=10 n=42 v=64
218976 On ch=10 n=40 v=110
219072 Off ch=10 n=40 v=64
219072 On ch=10 n=42 v=110
219072 On ch=10 n=35 v=110
219168 Off ch=10 n=42 v=64
219168 Off ch=10 n=35 v=64
219264 On ch=10 n=42 v=110
219264 On ch=10 n=35 v=110
219264 On ch=10 n=40 v=110
219360 Off ch=10 n=42 v=64
219360 Off ch=10 n=35 v=64
219360 Off ch=10 n=40 v=64
219456 On ch=10 n=35 v=110
219456 On ch=10 n=42 v=110
219552 Off ch=10 n=35 v=64
219552 Off ch=10 n=42 v=64
219648 On ch=10 n=35 v=110
219648 On ch=10 n=42 v=110
219744 Off ch=10 n=35 v=64
219744 Off ch=10 n=42 v=64
219840 On ch=10 n=40 v=110
219840 On ch=10 n=42 v=110
219936 Off ch=10 n=40 v=64
219936 Off ch=10 n=42 v=64
220032 On ch=10 n=42 v=110
220128 Off ch=10 n=42 v=64
220224 On ch=10 n=35 v=110
220224 On ch=10 n=42 v=110
220320 Off ch=10 n=35 v=64
220320 Off ch=10 n=42 v=64
220416 On ch=10 n=35 v=110
220416 On ch=10 n=42 v=110
220512 Off ch=10 n=35 v=64
220512 Off ch=10 n=42 v=64
220608 On ch=10 n=40 v=110
220608 On ch=10 n=42 v=110
220704 Off ch=10 n=40 v=64
220704 Off ch=10 n=42 v=64
220800 On ch=10 n=42 v=110
220896 Off ch=10 n=42 v=64
220992 On ch=10 n=42 v=110
220992 On ch=10 n=35 v=110
221088 Off ch=10 n=42 v=64
221088 Off ch=10 n=35 v=64
221184 On ch=10 n=42 v=110
221184 On ch=10 n=40 v=110
221280 Off ch=10 n=42 v=64
221280 Off ch=10 n=40 v=64
221280 On ch=10 n=35 v=110
221376 Off ch=10 n=35 v=64
221376 On ch=10 n=42 v=110
221472 Off ch=10 n=42 v=64
221472 On ch=10 n=40 v=110
221568 Off ch=10 n=40 v=64
221568 On ch=10 n=42 v=110
221568 On ch=10 n=35 v=110
221664 Off ch=10 n=42 v=64
221664 Off ch=10 n=35 v=64
221760 On ch=10 n=42 v=110
221760 On ch=10 n=40 v=110
221856 Off ch=10 n=42 v=64
221856 Off ch=10 n=40 v=64
221856 On ch=10 n=35 v=110
221952 Off ch=10 n=35 v=64
221952 On ch=10 n=42 v=110
222048 Off ch=10 n=42 v=64
222048 On ch=10 n=40 v=110
222144 Off ch=10 n=40 v=64
222144 On ch=10 n=42 v=110
222144 On ch=10 n=35 v=110
222240 Off ch=10 n=42 v=64
222240 Off ch=10 n=35 v=64
222336 On ch=10 n=42 v=110
222336 On ch=10 n=35 v=110
222336 On ch=10 n=40 v=110
222432 Off ch=10 n=42 v=64
222432 Off ch=10 n=35 v=64
222432 Off ch=10 n=40 v=64
222528 On ch=10 n=35 v=110
222528 On ch=10 n=42 v=110
222624 Off ch=10 n=35 v=64
222624 Off ch=10 n=42 v=64
222720 On ch=10 n=35 v=110
222720 On ch=10 n=42 v=110
222816 Off ch=10 n=35 v=64
222816 Off ch=10 n=42 v=64
222912 On ch=10 n=40 v=110
222912 On ch=10 n=42 v=110
223008 Off ch=10 n=40 v=64
223008 Off ch=10 n=42 v=64
223104 On ch=10 n=42 v=110
223200 Off ch=10 n=42 v=64
223296 On ch=10 n=35 v=110
223296 On ch=10 n=42 v=110
223392 Off ch=10 n=35 v=64
223392 Off ch=10 n=42 v=64
223488 On ch=10 n=35 v=110
223488 On ch=10 n=42 v=110
223584 Off ch=10 n=35 v=64
223584 Off ch=10 n=42 v=64
223680 On ch=10 n=40 v=110
223680 On ch=10 n=42 v=110
223776 Off ch=10 n=40 v=64
223776 Off ch=10 n=42 v=64
223872 On ch=10 n=42 v=110
223968 Off ch=10 n=42 v=64
224064 On ch=10 n=42 v=110
224064 On ch=10 n=35 v=110
224160 Off ch=10 n=42 v=64
224160 Off ch=10 n=35 v=64
224256 On ch=10 n=42 v=110
224256 On ch=10 n=40 v=110
224352 Off ch=10 n=42 v=64
224352 Off ch=10 n=40 v=64
224352 On ch=10 n=35 v=110
224448 Off ch=10 n=35 v=64
224448 On ch=10 n=42 v=110
224544 Off ch=10 n=42 v=64
224544 On ch=10 n=40 v=110
224640 Off ch=10 n=40 v=64
224640 On ch=10 n=42 v=110
224640 On ch=10 n=35 v=110
224736 Off ch=10 n=42 v=64
224736 Off ch=10 n=35 v=64
224832 On ch=10 n=42 v=110
224832 On ch=10 n=40 v=110
224928 Off ch=10 n=42 v=64
224928 Off ch=10 n=40 v=64
224928 On ch=10 n=35 v=110
225024 Off ch=10 n=35 v=64
225024 On ch=10 n=42 v=110
225120 Off ch=10 n=42 v=64
225120 On ch=10 n=40 v=110
225216 Off ch=10 n=40 v=64
225216 On ch=10 n=42 v=110
225216 On ch=10 n=35 v=110
225312 Off ch=10 n=42 v=64
225312 Off ch=10 n=35 v=64
225408 On ch=10 n=42 v=110
225408 On ch=10 n=35 v=110
225408 On ch=10 n=40 v=110
225504 Off ch=10 n=42 v=64
225504 Off ch=10 n=35 v=64
225504 Off ch=10 n=40 v=64
225600 On ch=10 n=35 v=110
225600 On ch=10 n=42 v=110
225696 Off ch=10 n=35 v=64
225696 Off ch=10 n=42 v=64
225792 On ch=10 n=35 v=110
225792 On ch=10 n=42 v=110
225888 Off ch=10 n=35 v=64
225888 Off ch=10 n=42 v=64
225984 On ch=10 n=40 v=110
225984 On ch=10 n=42 v=110
226080 Off ch=10 n=40 v=64
226080 Off ch=10 n=42 v=64
226176 On ch=10 n=42 v=110
226272 Off ch=10 n=42 v=64
226368 On ch=10 n=35 v=110
226368 On ch=10 n=42 v=110
226464 Off ch=10 n=35 v=64
226464 Off ch=10 n=42 v=64
226560 On ch=10 n=35 v=110
226560 On ch=10 n=42 v=110
226656 Off ch=10 n=35 v=64
226656 Off ch=10 n=42 v=64
226752 On ch=10 n=40 v=110
226752 On ch=10 n=42 v=110
226848 Off ch=10 n=40 v=64
226848 Off ch=10 n=42 v=64
226944 On ch=10 n=42 v=110
227040 Off ch=10 n=42 v=64
227136 On ch=10 n=42 v=110
227136 On ch=10 n=35 v=110
227232 Off ch=10 n=42 v=64
227232 Off ch=10 n=35 v=64
227328 On ch=10 n=42 v=110
227328 On ch=10 n=40 v=110
227424 Off ch=10 n=42 v=64
227424 Off ch=10 n=40 v=64
227424 On ch=10 n=35 v=110
227520 Off ch=10 n=35 v=64
227520 On ch=10 n=42 v=110
227616 Off ch=10 n=42 v=64
227616 On ch=10 n=40 v=110
227712 Off ch=10 n=40 v=64
227712 On ch=10 n=42 v=110
227712 On ch=10 n=35 v=110
227808 Off ch=10 n=42 v=64
227808 Off ch=10 n=35 v=64
227904 On ch=10 n=42 v=110
227904 On ch=10 n=40 v=110
228000 Off ch=10 n=42 v=64
228000 Off ch=10 n=40 v=64
228000 On ch=10 n=35 v=110
228096 Off ch=10 n=35 v=64
228096 On ch=10 n=42 v=110
228192 Off ch=10 n=42 v=64
228192 On ch=10 n=40 v=110
228288 Off ch=10 n=40 v=64
228288 On ch=10 n=42 v=110
228288 On ch=10 n=35 v=110
228384 Off ch=10 n=42 v=64
228384 Off ch=10 n=35 v=64
228480 On ch=10 n=42 v=110
228480 On ch=10 n=35 v=110
228480 On ch=10 n=40 v=110
228576 Off ch=10 n=42 v=64
228576 Off ch=10 n=35 v=64
228576 Off ch=10 n=40 v=64
228672 On ch=10 n=35 v=110
228672 On ch=10 n=42 v=110
228768 Off ch=10 n=35 v=64
228768 Off ch=10 n=42 v=64
228864 On ch=10 n=35 v=110
228864 On ch=10 n=42 v=110
228960 Off ch=10 n=35 v=64
228960 Off ch=10 n=42 v=64
229056 On ch=10 n=40 v=110
229056 On ch=10 n=42 v=110
229152 Off ch=10 n=40 v=64
229152 Off ch=10 n=42 v=64
229248 On ch=10 n=42 v=110
229344 Off ch=10 n=42 v=64
229440 On ch=10 n=35 v=110
229440 On ch=10 n=42 v=110
229536 Off ch=10 n=35 v=64
229536 Off ch=10 n=42 v=64
229632 On ch=10 n=35 v=110
229632 On ch=10 n=42 v=110
229728 Off ch=10 n=35 v=64
229728 Off ch=10 n=42 v=64
229824 On ch=10 n=40 v=110
229824 On ch=10 n=42 v=110
229920 Off ch=10 n=40 v=64
229920 Off ch=10 n=42 v=64
230016 On ch=10 n=42 v=110
230112 Off ch=10 n=42 v=64
230208 On ch=10 n=40 v=100
230304 Off ch=10 n=40 v=64
230400 On ch=10 n=35 v=100
230496 Off ch=10 n=35 v=64
230496 On ch=10 n=40 v=100
230592 Off ch=10 n=40 v=64
230688 On ch=10 n=35 v=100
230784 Off ch=10 n=35 v=64
230784 On ch=10 n=40 v=100
230880 Off ch=10 n=40 v=64
230976 On ch=10 n=35 v=100
231072 Off ch=10 n=35 v=64
231072 On ch=10 n=40 v=100
231168 Off ch=10 n=40 v=64
231264 On ch=10 n=35 v=100
231360 Off ch=10 n=35 v=64
231360 On ch=10 n=40 v=100
231456 Off ch=10 n=40 v=64
231456 On ch=10 n=40 v=100
231552 Off ch=10 n=40 v=64
231552 On ch=10 n=40 v=100
231648 Off ch=10 n=40 v=64
231648 On ch=10 n=40 v=100
231744 Off ch=10 n=40 v=64
231744 On ch=10 n=35 v=100
231744 On ch=10 n=57 v=100
231840 Off ch=10 n=35 v=64
231840 Off ch=10 n=57 v=64
231936 On ch=10 n=35 v=100
231936 On ch=10 n=57 v=100
232032 Off ch=10 n=35 v=64
232032 Off ch=10 n=57 v=64
232128 On ch=10 n=40 v=100
232224 Off ch=10 n=40 v=64
232224 On ch=10 n=40 v=100
232320 Off ch=10 n=40 v=64
232320 On ch=10 n=40 v=100
232416 Off ch=10 n=40 v=64
232416 On ch=10 n=40 v=100
232512 Off ch=10 n=40 v=64
232512 On ch=10 n=35 v=100
232608 Off ch=10 n=35 v=64
232704 On ch=10 n=35 v=100
232704 On ch=10 n=57 v=100
232800 Off ch=10 n=35 v=64
232800 Off ch=10 n=57 v=64
232896 On ch=10 n=40 v=100
232992 Off ch=10 n=40 v=64
233088 On ch=10 n=35 v=100
233088 On ch=10 n=57 v=100
233184 Off ch=10 n=35 v=64
233184 Off ch=10 n=57 v=64
233472 On ch=10 n=35 v=100
233568 Off ch=10 n=35 v=64
233664 On ch=10 n=40 v=100
233664 On ch=10 n=42 v=100
233760 Off ch=10 n=40 v=64
233760 Off ch=10 n=42 v=64
234048 On ch=10 n=35 v=100
234048 On ch=10 n=42 v=100
234144 Off ch=10 n=35 v=64
234144 Off ch=10 n=42 v=64
234240 On ch=10 n=40 v=100
234336 Off ch=10 n=40 v=64
234336 On ch=10 n=40 v=100
234432 Off ch=10 n=40 v=64
234432 On ch=10 n=40 v=100
234432 On ch=10 n=42 v=100
234528 Off ch=10 n=40 v=64
234528 Off ch=10 n=42 v=64
234528 On ch=10 n=40 v=100
234624 Off ch=10 n=40 v=64
234624 On ch=10 n=40 v=100
234624 On ch=10 n=42 v=100
234720 Off ch=10 n=40 v=64
234720 Off ch=10 n=42 v=64
234720 On ch=10 n=40 v=100
234816 Off ch=10 n=40 v=64
234816 On ch=10 n=35 v=100
234816 On ch=10 n=57 v=100
234912 Off ch=10 n=35 v=64
234912 Off ch=10 n=57 v=64
235008 On ch=10 n=35 v=100
235008 On ch=10 n=57 v=100
235104 Off ch=10 n=35 v=64
235104 Off ch=10 n=57 v=64
235200 On ch=10 n=40 v=100
235296 Off ch=10 n=40 v=64
235296 On ch=10 n=40 v=100
235392 Off ch=10 n=40 v=64
235392 On ch=10 n=40 v=100
235488 Off ch=10 n=40 v=64
235488 On ch=10 n=40 v=100
235584 Off ch=10 n=40 v=64
235584 On ch=10 n=35 v=100
235680 Off ch=10 n=35 v=64
235776 On ch=10 n=35 v=100
235776 On ch=10 n=57 v=100
235872 Off ch=10 n=35 v=64
235872 Off ch=10 n=57 v=64
235968 On ch=10 n=40 v=100
236064 Off ch=10 n=40 v=64
236160 On ch=10 n=35 v=100
236160 On ch=10 n=57 v=100
236256 Off ch=10 n=35 v=64
236256 Off ch=10 n=57 v=64
236544 On ch=10 n=35 v=100
236544 On ch=10 n=42 v=100
236640 Off ch=10 n=35 v=64
236640 Off ch=10 n=42 v=64
236736 On ch=10 n=40 v=100
236736 On ch=10 n=42 v=100
236832 Off ch=10 n=40 v=64
236832 Off ch=10 n=42 v=64
236928 On ch=10 n=42 v=100
237024 Off ch=10 n=42 v=64
237024 On ch=10 n=35 v=100
237120 Off ch=10 n=35 v=64
237120 On ch=10 n=35 v=100
237120 On ch=10 n=42 v=100
237216 Off ch=10 n=35 v=64
237216 Off ch=10 n=42 v=64
237312 On ch=10 n=42 v=100
237312 On ch=10 n=50 v=100
237408 Off ch=10 n=42 v=64
237408 Off ch=10 n=50 v=64
237408 On ch=10 n=47 v=100
237504 Off ch=10 n=47 v=64
237504 On ch=10 n=42 v=100
237504 On ch=10 n=43 v=100
237600 Off ch=10 n=42 v=64
237600 Off ch=10 n=43 v=64
237696 On ch=10 n=42 v=100
237792 Off ch=10 n=42 v=64
237888 On ch=10 n=57 v=100
237888 On ch=10 n=35 v=100
237888 On ch=10 n=42 v=100
237984 Off ch=10 n=57 v=64
237984 Off ch=10 n=35 v=64
237984 Off ch=10 n=42 v=64
238080 On ch=10 n=42 v=100
238176 Off ch=10 n=42 v=64
238272 On ch=10 n=40 v=100
238272 On ch=10 n=42 v=100
238368 Off ch=10 n=40 v=64
238368 Off ch=10 n=42 v=64
238464 On ch=10 n=42 v=100
238560 Off ch=10 n=42 v=64
238656 On ch=10 n=35 v=100
238656 On ch=10 n=42 v=100
238752 Off ch=10 n=35 v=64
238752 Off ch=10 n=42 v=64
238848 On ch=10 n=35 v=100
238848 On ch=10 n=42 v=100
238944 Off ch=10 n=35 v=64
238944 Off ch=10 n=42 v=64
239040 On ch=10 n=40 v=100
239040 On ch=10 n=42 v=100
239136 Off ch=10 n=40 v=64
239136 Off ch=10 n=42 v=64
239232 On ch=10 n=42 v=100
239328 Off ch=10 n=42 v=64
239328 On ch=10 n=35 v=100
239328 On ch=10 n=42 v=100
239424 Off ch=10 n=35 v=64
239424 Off ch=10 n=42 v=64
239424 On ch=10 n=57 v=100
239424 On ch=10 n=35 v=100
239424 On ch=10 n=42 v=100
239520 Off ch=10 n=57 v=64
239520 Off ch=10 n=35 v=64
239520 Off ch=10 n=42 v=64
239616 On ch=10 n=42 v=100
239712 Off ch=10 n=42 v=64
239808 On ch=10 n=40 v=100
239808 On ch=10 n=42 v=100
239904 Off ch=10 n=40 v=64
239904 Off ch=10 n=42 v=64
240000 On ch=10 n=42 v=100
240096 Off ch=10 n=42 v=64
240096 On ch=10 n=42 v=100
240192 Off ch=10 n=42 v=64
240192 On ch=10 n=35 v=100
240192 On ch=10 n=42 v=100
240288 Off ch=10 n=35 v=64
240288 Off ch=10 n=42 v=64
240384 On ch=10 n=35 v=100
240384 On ch=10 n=42 v=100
240480 Off ch=10 n=35 v=64
240480 Off ch=10 n=42 v=64
240576 On ch=10 n=40 v=100
240576 On ch=10 n=42 v=100
240672 Off ch=10 n=40 v=64
240672 Off ch=10 n=42 v=64
240768 On ch=10 n=42 v=100
240864 Off ch=10 n=42 v=64
240864 On ch=10 n=35 v=100
240864 On ch=10 n=42 v=100
240960 Off ch=10 n=35 v=64
240960 Off ch=10 n=42 v=64
240960 On ch=10 n=42 v=100
240960 On ch=10 n=35 v=100
241056 Off ch=10 n=42 v=64
241056 Off ch=10 n=35 v=64
241152 On ch=10 n=42 v=100
241248 Off ch=10 n=42 v=64
241344 On ch=10 n=42 v=100
241344 On ch=10 n=40 v=100
241440 Off ch=10 n=42 v=64
241440 Off ch=10 n=40 v=64
241536 On ch=10 n=42 v=100
241632 Off ch=10 n=42 v=64
241632 On ch=10 n=42 v=100
241728 Off ch=10 n=42 v=64
241728 On ch=10 n=42 v=100
241728 On ch=10 n=35 v=100
241824 Off ch=10 n=42 v=64
241824 Off ch=10 n=35 v=64
241920 On ch=10 n=42 v=100
241920 On ch=10 n=35 v=100
242016 Off ch=10 n=42 v=64
242016 Off ch=10 n=35 v=64
242112 On ch=10 n=42 v=100
242112 On ch=10 n=40 v=100
242208 Off ch=10 n=42 v=64
242208 Off ch=10 n=40 v=64
242304 On ch=10 n=42 v=100
242400 Off ch=10 n=42 v=64
242496 On ch=10 n=42 v=100
242496 On ch=10 n=35 v=100
242592 Off ch=10 n=42 v=64
242592 Off ch=10 n=35 v=64
242688 On ch=10 n=42 v=100
242688 On ch=10 n=35 v=100
242784 Off ch=10 n=42 v=64
242784 Off ch=10 n=35 v=64
242880 On ch=10 n=42 v=100
242880 On ch=10 n=40 v=100
242976 Off ch=10 n=42 v=64
242976 Off ch=10 n=40 v=64
243072 On ch=10 n=42 v=100
243168 Off ch=10 n=42 v=64
243168 On ch=10 n=42 v=100
243264 Off ch=10 n=42 v=64
243264 On ch=10 n=42 v=100
243264 On ch=10 n=35 v=100
243360 Off ch=10 n=42 v=64
243360 Off ch=10 n=35 v=64
243360 On ch=10 n=40 v=100
243456 Off ch=10 n=40 v=64
243456 On ch=10 n=42 v=100
243456 On ch=10 n=35 v=100
243552 Off ch=10 n=42 v=64
243552 Off ch=10 n=35 v=64
243648 On ch=10 n=42 v=100
243648 On ch=10 n=40 v=100
243744 Off ch=10 n=42 v=64
243744 Off ch=10 n=40 v=64
243840 On ch=10 n=42 v=100
243936 Off ch=10 n=42 v=64
243936 On ch=10 n=42 v=100
243936 On ch=10 n=35 v=100
244032 Off ch=10 n=42 v=64
244032 Off ch=10 n=35 v=64
244032 On ch=10 n=42 v=100
244032 On ch=10 n=35 v=100
244128 Off ch=10 n=42 v=64
244128 Off ch=10 n=35 v=64
244224 On ch=10 n=42 v=100
244320 Off ch=10 n=42 v=64
244416 On ch=10 n=42 v=100
244416 On ch=10 n=40 v=100
244512 Off ch=10 n=42 v=64
244512 Off ch=10 n=40 v=64
244608 On ch=10 n=42 v=100
244704 Off ch=10 n=42 v=64
244704 On ch=10 n=42 v=100
244800 Off ch=10 n=42 v=64
244800 On ch=10 n=42 v=100
244800 On ch=10 n=35 v=100
244896 Off ch=10 n=42 v=64
244896 Off ch=10 n=35 v=64
244992 On ch=10 n=42 v=100
244992 On ch=10 n=35 v=100
245088 Off ch=10 n=42 v=64
245088 Off ch=10 n=35 v=64
245184 On ch=10 n=42 v=100
245184 On ch=10 n=40 v=100
245280 Off ch=10 n=42 v=64
245280 Off ch=10 n=40 v=64
245376 On ch=10 n=42 v=100
245472 Off ch=10 n=42 v=64
245472 On ch=10 n=35 v=100
245472 On ch=10 n=42 v=100
245568 Off ch=10 n=35 v=64
245568 Off ch=10 n=42 v=64
245568 On ch=10 n=42 v=100
245568 On ch=10 n=35 v=100
245664 Off ch=10 n=42 v=64
245664 Off ch=10 n=35 v=64
245760 On ch=10 n=42 v=100
245760 On ch=10 n=35 v=100
245856 Off ch=10 n=42 v=64
245856 Off ch=10 n=35 v=64
245952 On ch=10 n=42 v=100
245952 On ch=10 n=40 v=100
246048 Off ch=10 n=42 v=64
246048 Off ch=10 n=40 v=64
246144 On ch=10 n=42 v=100
246240 Off ch=10 n=42 v=64
246240 On ch=10 n=42 v=100
246336 Off ch=10 n=42 v=64
246336 On ch=10 n=42 v=100
246336 On ch=10 n=35 v=100
246432 Off ch=10 n=42 v=64
246432 Off ch=10 n=35 v=64
246528 On ch=10 n=42 v=100
246624 Off ch=10 n=42 v=64
246720 On ch=10 n=42 v=100
246720 On ch=10 n=40 v=100
246816 Off ch=10 n=42 v=64
246816 Off ch=10 n=40 v=64
246912 On ch=10 n=42 v=100
247008 Off ch=10 n=42 v=64
247008 On ch=10 n=42 v=100
247008 On ch=10 n=35 v=100
247104 Off ch=10 n=42 v=64
247104 Off ch=10 n=35 v=64
247104 On ch=10 n=35 v=100
247104 On ch=10 n=57 v=100
247200 Off ch=10 n=35 v=64
247200 Off ch=10 n=57 v=64
247296 On ch=10 n=42 v=100
247392 Off ch=10 n=42 v=64
247488 On ch=10 n=42 v=100
247488 On ch=10 n=40 v=100
247584 Off ch=10 n=42 v=64
247584 Off ch=10 n=40 v=64
247680 On ch=10 n=42 v=100
247776 Off ch=10 n=42 v=64
247776 On ch=10 n=42 v=100
247872 Off ch=10 n=42 v=64
247872 On ch=10 n=42 v=100
247872 On ch=10 n=35 v=100
247968 Off ch=10 n=42 v=64
247968 Off ch=10 n=35 v=64
248064 On ch=10 n=42 v=100
248064 On ch=10 n=35 v=100
248160 Off ch=10 n=42 v=64
248160 Off ch=10 n=35 v=64
248256 On ch=10 n=42 v=100
248256 On ch=10 n=40 v=100
248352 Off ch=10 n=42 v=64
248352 Off ch=10 n=40 v=64
248448 On ch=10 n=42 v=100
248544 Off ch=10 n=42 v=64
248544 On ch=10 n=42 v=100
248640 Off ch=10 n=42 v=64
248640 On ch=10 n=57 v=127
248640 On ch=10 n=35 v=127
248736 Off ch=10 n=57 v=64
248736 Off ch=10 n=35 v=64
248736 Meta TrkEnd
TrkEnd
MTrk
0 Meta TrkName "bass                "
0 Par ch=7 c=0 v=126
0 PrCh ch=7 p=67
0 KeySig 0 major
24 PrCh ch=7 p=28
125952 On ch=7 n=36 v=110
126696 Off ch=7 n=36 v=64
126720 On ch=7 n=35 v=110
127488 Off ch=7 n=35 v=64
127488 On ch=7 n=33 v=110
128808 Off ch=7 n=33 v=64
128832 On ch=7 n=35 v=110
129000 Off ch=7 n=35 v=64
129024 On ch=7 n=36 v=110
129768 Off ch=7 n=36 v=64
129792 On ch=7 n=35 v=110
130344 Off ch=7 n=35 v=64
130368 On ch=7 n=29 v=110
130536 Off ch=7 n=29 v=64
130752 On ch=7 n=33 v=110
131880 Off ch=7 n=33 v=64
131904 On ch=7 n=35 v=110
132072 Off ch=7 n=35 v=64
132096 On ch=7 n=36 v=110
132840 Off ch=7 n=36 v=64
132864 On ch=7 n=35 v=110
133632 Off ch=7 n=35 v=64
133632 On ch=7 n=33 v=110
134760 Off ch=7 n=33 v=64
134784 On ch=7 n=33 v=110
134952 Off ch=7 n=33 v=64
134976 On ch=7 n=35 v=110
135144 Off ch=7 n=35 v=64
135168 On ch=7 n=36 v=110
135912 Off ch=7 n=36 v=64
135936 On ch=7 n=35 v=110
136488 Off ch=7 n=35 v=64
136512 On ch=7 n=29 v=110
136680 Off ch=7 n=29 v=64
136896 On ch=7 n=33 v=110
138024 Off ch=7 n=33 v=64
138048 On ch=7 n=35 v=110
138216 Off ch=7 n=35 v=64
138240 On ch=7 n=36 v=110
138984 Off ch=7 n=36 v=64
139008 On ch=7 n=35 v=110
139752 Off ch=7 n=35 v=64
139776 On ch=7 n=33 v=110
140520 Off ch=7 n=33 v=64
140544 On ch=7 n=45 v=110
140712 Off ch=7 n=45 v=64
140736 On ch=7 n=40 v=110
141096 Off ch=7 n=40 v=64
141120 On ch=7 n=38 v=110
141480 Off ch=7 n=38 v=64
141504 On ch=7 n=45 v=110
141864 Off ch=7 n=45 v=64
141888 On ch=7 n=50 v=110
142056 Off ch=7 n=50 v=64
142080 On ch=7 n=42 v=110
142248 Off ch=7 n=42 v=64
142272 On ch=7 n=38 v=110
142344 Off ch=7 n=38 v=64
142368 On ch=7 n=43 v=110
142536 Off ch=7 n=43 v=64
142560 On ch=7 n=38 v=110
142632 Off ch=7 n=38 v=64
142656 On ch=7 n=45 v=110
142824 Off ch=7 n=45 v=64
142848 On ch=7 n=33 v=110
143400 Off ch=7 n=33 v=64
143424 On ch=7 n=40 v=110
143592 Off ch=7 n=40 v=64
143616 On ch=7 n=45 v=110
143784 Off ch=7 n=45 v=64
143808 On ch=7 n=40 v=110
144168 Off ch=7 n=40 v=64
144192 On ch=7 n=38 v=110
144264 Off ch=7 n=38 v=64
144288 On ch=7 n=45 v=110
144384 Off ch=7 n=45 v=64
144384 On ch=7 n=50 v=110
144936 Off ch=7 n=50 v=64
144960 On ch=7 n=50 v=110
145032 Off ch=7 n=50 v=64
145056 On ch=7 n=45 v=110
145128 Off ch=7 n=45 v=64
145152 On ch=7 n=38 v=110
145704 Off ch=7 n=38 v=64
145728 On ch=7 n=45 v=110
145800 Off ch=7 n=45 v=64
145824 On ch=7 n=40 v=110
145896 Off ch=7 n=40 v=64
145920 On ch=7 n=33 v=110
146472 Off ch=7 n=33 v=64
146520 On ch=7 n=45 v=110
146880 Off ch=7 n=45 v=64
146880 On ch=7 n=40 v=110
147240 Off ch=7 n=40 v=64
147264 On ch=7 n=38 v=110
147624 Off ch=7 n=38 v=64
147648 On ch=7 n=33 v=110
147816 Off ch=7 n=33 v=64
147840 On ch=7 n=38 v=110
148392 Off ch=7 n=38 v=64
148416 On ch=7 n=38 v=110
148488 Off ch=7 n=38 v=64
148512 On ch=7 n=43 v=110
148680 Off ch=7 n=43 v=64
148704 On ch=7 n=38 v=110
148776 Off ch=7 n=38 v=64
148800 On ch=7 n=45 v=110
148968 Off ch=7 n=45 v=64
148992 On ch=7 n=33 v=110
149544 Off ch=7 n=33 v=64
149568 On ch=7 n=33 v=110
149928 Off ch=7 n=33 v=64
149952 On ch=7 n=40 v=110
150312 Off ch=7 n=40 v=64
150336 On ch=7 n=38 v=110
150408 Off ch=7 n=38 v=64
150432 On ch=7 n=45 v=110
150528 Off ch=7 n=45 v=64
150528 On ch=7 n=50 v=110
151080 Off ch=7 n=50 v=64
151104 On ch=7 n=50 v=110
151176 Off ch=7 n=50 v=64
151200 On ch=7 n=45 v=110
151272 Off ch=7 n=45 v=64
151296 On ch=7 n=38 v=110
151848 Off ch=7 n=38 v=64
151872 On ch=7 n=40 v=110
151944 Off ch=7 n=40 v=64
151968 On ch=7 n=38 v=110
152040 Off ch=7 n=38 v=64
152064 On ch=7 n=36 v=110
152808 Off ch=7 n=36 v=64
152832 On ch=7 n=35 v=110
153576 Off ch=7 n=35 v=64
153600 On ch=7 n=33 v=110
154344 Off ch=7 n=33 v=64
154368 On ch=7 n=45 v=110
154536 Off ch=7 n=45 v=64
154560 On ch=7 n=40 v=110
154728 Off ch=7 n=40 v=64
154752 On ch=7 n=33 v=110
154920 Off ch=7 n=33 v=64
154944 On ch=7 n=35 v=110
155112 Off ch=7 n=35 v=64
155136 On ch=7 n=36 v=110
155880 Off ch=7 n=36 v=64
155904 On ch=7 n=35 v=110
156456 Off ch=7 n=35 v=64
156480 On ch=7 n=29 v=110
156648 Off ch=7 n=29 v=64
156864 On ch=7 n=33 v=110
157800 Off ch=7 n=33 v=64
157824 On ch=7 n=33 v=110
157992 Off ch=7 n=33 v=64
158016 On ch=7 n=35 v=110
158184 Off ch=7 n=35 v=64
158208 On ch=7 n=36 v=110
158952 Off ch=7 n=36 v=64
158976 On ch=7 n=35 v=110
159720 Off ch=7 n=35 v=64
159744 On ch=7 n=33 v=110
161064 Off ch=7 n=33 v=64
161088 On ch=7 n=35 v=110
161256 Off ch=7 n=35 v=64
161280 On ch=7 n=36 v=110
162024 Off ch=7 n=36 v=64
162048 On ch=7 n=35 v=110
162600 Off ch=7 n=35 v=64
162624 On ch=7 n=29 v=110
162792 Off ch=7 n=29 v=64
163008 On ch=7 n=33 v=110
163944 Off ch=7 n=33 v=64
164064 On ch=7 n=33 v=110
164136 Off ch=7 n=33 v=64
164160 On ch=7 n=35 v=110
164232 Off ch=7 n=35 v=64
164256 On ch=7 n=35 v=110
164352 Off ch=7 n=35 v=64
164352 On ch=7 n=36 v=110
165096 Off ch=7 n=36 v=64
165120 On ch=7 n=35 v=110
165888 Off ch=7 n=35 v=64
165888 On ch=7 n=38 v=110
167208 Off ch=7 n=38 v=64
167232 On ch=7 n=38 v=110
167304 Off ch=7 n=38 v=64
167328 On ch=7 n=38 v=110
167424 Off ch=7 n=38 v=64
167424 On ch=7 n=38 v=110
167424 Off ch=7 n=38 v=64
168000 On ch=7 n=38 v=110
168072 Off ch=7 n=38 v=64
168096 On ch=7 n=38 v=110
168168 Off ch=7 n=38 v=64
168192 On ch=7 n=38 v=110
168744 Off ch=7 n=38 v=64
168768 On ch=7 n=38 v=110
168840 Off ch=7 n=38 v=64
168864 On ch=7 n=38 v=110
168960 Off ch=7 n=38 v=64
168960 On ch=7 n=38 v=110
168960 Off ch=7 n=38 v=64
169344 On ch=7 n=38 v=110
169704 Off ch=7 n=38 v=64
169728 On ch=7 n=38 v=110
170088 Off ch=7 n=38 v=64
170112 On ch=7 n=36 v=110
170280 Off ch=7 n=36 v=64
170304 On ch=7 n=36 v=110
171048 Off ch=7 n=36 v=64
171072 On ch=7 n=36 v=110
171816 Off ch=7 n=36 v=64
171840 On ch=7 n=36 v=110
172584 Off ch=7 n=36 v=64
172608 On ch=7 n=36 v=110
173352 Off ch=7 n=36 v=64
173376 On ch=7 n=38 v=110
173448 Off ch=7 n=38 v=64
173472 On ch=7 n=38 v=110
173544 Off ch=7 n=38 v=64
173568 On ch=7 n=38 v=110
174120 Off ch=7 n=38 v=64
174144 On ch=7 n=38 v=110
174216 Off ch=7 n=38 v=64
174240 On ch=7 n=38 v=110
174312 Off ch=7 n=38 v=64
174336 On ch=7 n=38 v=110
174888 Off ch=7 n=38 v=64
174912 On ch=7 n=38 v=110
174984 Off ch=7 n=38 v=64
175008 On ch=7 n=38 v=110
175104 Off ch=7 n=38 v=64
175104 On ch=7 n=38 v=110
175104 Off ch=7 n=38 v=64
175488 On ch=7 n=38 v=110
175848 Off ch=7 n=38 v=64
175872 On ch=7 n=38 v=110
176232 Off ch=7 n=38 v=64
176256 On ch=7 n=36 v=110
176424 Off ch=7 n=36 v=64
176448 On ch=7 n=36 v=110
177192 Off ch=7 n=36 v=64
177216 On ch=7 n=36 v=110
177960 Off ch=7 n=36 v=64
177984 On ch=7 n=35 v=110
178728 Off ch=7 n=35 v=64
178752 On ch=7 n=35 v=110
179496 Off ch=7 n=35 v=64
179520 On ch=7 n=33 v=110
180264 Off ch=7 n=33 v=64
180288 On ch=7 n=31 v=110
180456 Off ch=7 n=31 v=64
180480 On ch=7 n=31 v=110
180936 Off ch=7 n=31 v=64
180960 On ch=7 n=31 v=110
181032 Off ch=7 n=31 v=64
181056 On ch=7 n=29 v=110
181224 Off ch=7 n=29 v=64
181248 On ch=7 n=29 v=110
181512 Off ch=7 n=29 v=64
181536 On ch=7 n=29 v=110
181608 Off ch=7 n=29 v=64
181632 On ch=7 n=29 v=110
181704 Off ch=7 n=29 v=64
181728 On ch=7 n=29 v=110
181800 Off ch=7 n=29 v=64
181824 On ch=7 n=29 v=110
181896 Off ch=7 n=29 v=64
181920 On ch=7 n=29 v=110
181992 Off ch=7 n=29 v=64
182016 On ch=7 n=29 v=110
182184 Off ch=7 n=29 v=64
182208 On ch=7 n=29 v=110
182280 Off ch=7 n=29 v=64
182304 On ch=7 n=29 v=110
182376 Off ch=7 n=29 v=64
182400 On ch=7 n=31 v=110
182472 Off ch=7 n=31 v=64
182496 On ch=7 n=29 v=110
182568 Off ch=7 n=29 v=64
182592 On ch=7 n=33 v=110
182760 Off ch=7 n=33 v=64
182784 On ch=7 n=33 v=110
183240 Off ch=7 n=33 v=64
183264 On ch=7 n=33 v=110
183336 Off ch=7 n=33 v=64
183360 On ch=7 n=31 v=110
183552 Off ch=7 n=31 v=64
183576 On ch=7 n=31 v=110
184008 Off ch=7 n=31 v=64
184032 On ch=7 n=31 v=110
184104 Off ch=7 n=31 v=64
184128 On ch=7 n=29 v=110
184392 Off ch=7 n=29 v=64
184416 On ch=7 n=29 v=110
184680 Off ch=7 n=29 v=64
184704 On ch=7 n=29 v=110
184968 Off ch=7 n=29 v=64
184992 On ch=7 n=29 v=110
185064 Off ch=7 n=29 v=64
185088 On ch=7 n=29 v=110
185160 Off ch=7 n=29 v=64
185184 On ch=7 n=29 v=110
185256 Off ch=7 n=29 v=64
185280 On ch=7 n=29 v=110
185352 Off ch=7 n=29 v=64
185376 On ch=7 n=29 v=110
185448 Off ch=7 n=29 v=64
185472 On ch=7 n=29 v=110
185544 Off ch=7 n=29 v=64
185568 On ch=7 n=31 v=110
185640 Off ch=7 n=31 v=64
185664 On ch=7 n=33 v=110
185832 Off ch=7 n=33 v=64
185856 On ch=7 n=33 v=110
186312 Off ch=7 n=33 v=64
186336 On ch=7 n=33 v=110
186408 Off ch=7 n=33 v=64
186432 On ch=7 n=31 v=110
186624 Off ch=7 n=31 v=64
186648 On ch=7 n=31 v=110
187080 Off ch=7 n=31 v=64
187104 On ch=7 n=31 v=110
187176 Off ch=7 n=31 v=64
187200 On ch=7 n=29 v=110
187368 Off ch=7 n=29 v=64
187392 On ch=7 n=29 v=110
187464 Off ch=7 n=29 v=64
187488 On ch=7 n=29 v=110
187560 Off ch=7 n=29 v=64
187584 On ch=7 n=29 v=110
187848 Off ch=7 n=29 v=64
187872 On ch=7 n=29 v=110
187944 Off ch=7 n=29 v=64
187968 On ch=7 n=29 v=110
188040 Off ch=7 n=29 v=64
188064 On ch=7 n=29 v=110
188136 Off ch=7 n=29 v=64
188160 On ch=7 n=29 v=110
188232 Off ch=7 n=29 v=64
188256 On ch=7 n=29 v=110
188328 Off ch=7 n=29 v=64
188352 On ch=7 n=29 v=110
188424 Off ch=7 n=29 v=64
188448 On ch=7 n=29 v=110
188520 Off ch=7 n=29 v=64
188544 On ch=7 n=29 v=110
188616 Off ch=7 n=29 v=64
188640 On ch=7 n=31 v=110
188712 Off ch=7 n=31 v=64
188736 On ch=7 n=33 v=110
188904 Off ch=7 n=33 v=64
188928 On ch=7 n=33 v=110
189384 Off ch=7 n=33 v=64
189408 On ch=7 n=33 v=110
189480 Off ch=7 n=33 v=64
189504 On ch=7 n=31 v=110
189696 Off ch=7 n=31 v=64
189720 On ch=7 n=31 v=110
190152 Off ch=7 n=31 v=64
190176 On ch=7 n=31 v=110
190248 Off ch=7 n=31 v=64
190272 On ch=7 n=29 v=110
190440 Off ch=7 n=29 v=64
190464 On ch=7 n=29 v=110
190536 Off ch=7 n=29 v=64
190560 On ch=7 n=29 v=110
190632 Off ch=7 n=29 v=64
190656 On ch=7 n=29 v=110
190728 Off ch=7 n=29 v=64
190752 On ch=7 n=29 v=110
190824 Off ch=7 n=29 v=64
190848 On ch=7 n=29 v=110
190920 Off ch=7 n=29 v=64
190944 On ch=7 n=29 v=110
191016 Off ch=7 n=29 v=64
191040 On ch=7 n=29 v=110
191112 Off ch=7 n=29 v=64
191136 On ch=7 n=29 v=110
191208 Off ch=7 n=29 v=64
191232 On ch=7 n=29 v=110
191304 Off ch=7 n=29 v=64
191328 On ch=7 n=29 v=110
191400 Off ch=7 n=29 v=64
191424 On ch=7 n=29 v=110
191496 Off ch=7 n=29 v=64
191520 On ch=7 n=29 v=110
191592 Off ch=7 n=29 v=64
191616 On ch=7 n=29 v=110
191688 Off ch=7 n=29 v=64
191712 On ch=7 n=31 v=110
191784 Off ch=7 n=31 v=64
191808 On ch=7 n=33 v=110
191976 Off ch=7 n=33 v=64
192000 On ch=7 n=33 v=110
192456 Off ch=7 n=33 v=64
192480 On ch=7 n=33 v=110
192552 Off ch=7 n=33 v=64
192576 On ch=7 n=31 v=110
192744 Off ch=7 n=31 v=64
192768 On ch=7 n=31 v=110
193032 Off ch=7 n=31 v=64
193056 On ch=7 n=31 v=110
193128 Off ch=7 n=31 v=64
193152 On ch=7 n=38 v=110
193224 Off ch=7 n=38 v=64
193248 On ch=7 n=31 v=110
193320 Off ch=7 n=31 v=64
193344 On ch=7 n=29 v=110
193512 Off ch=7 n=29 v=64
193536 On ch=7 n=29 v=110
193992 Off ch=7 n=29 v=64
194016 On ch=7 n=29 v=110
194088 Off ch=7 n=29 v=64
194112 On ch=7 n=29 v=110
194184 Off ch=7 n=29 v=64
194208 On ch=7 n=29 v=110
194376 Off ch=7 n=29 v=64
194400 On ch=7 n=29 v=110
194472 Off ch=7 n=29 v=64
194496 On ch=7 n=29 v=110
194568 Off ch=7 n=29 v=64
194592 On ch=7 n=29 v=110
194664 Off ch=7 n=29 v=64
194688 On ch=7 n=29 v=110
194760 Off ch=7 n=29 v=64
194784 On ch=7 n=29 v=110
194856 Off ch=7 n=29 v=64
194880 On ch=7 n=33 v=110
195048 Off ch=7 n=33 v=64
195072 On ch=7 n=33 v=110
195336 Off ch=7 n=33 v=64
195360 On ch=7 n=28 v=110
195432 Off ch=7 n=28 v=64
195456 On ch=7 n=33 v=110
195528 Off ch=7 n=33 v=64
195552 On ch=7 n=28 v=110
195624 Off ch=7 n=28 v=64
195648 On ch=7 n=31 v=110
195840 Off ch=7 n=31 v=64
195864 On ch=7 n=31 v=110
196200 Off ch=7 n=31 v=64
196224 On ch=7 n=31 v=110
196296 Off ch=7 n=31 v=64
196320 On ch=7 n=31 v=110
196392 Off ch=7 n=31 v=64
196416 On ch=7 n=29 v=110
196680 Off ch=7 n=29 v=64
196704 On ch=7 n=29 v=110
196968 Off ch=7 n=29 v=64
196992 On ch=7 n=29 v=110
197352 Off ch=7 n=29 v=64
197376 On ch=7 n=29 v=110
197544 Off ch=7 n=29 v=64
197568 On ch=7 n=29 v=110
197736 Off ch=7 n=29 v=64
197760 On ch=7 n=31 v=110
197928 Off ch=7 n=31 v=64
197952 On ch=7 n=33 v=110
198120 Off ch=7 n=33 v=64
198144 On ch=7 n=33 v=110
198408 Off ch=7 n=33 v=64
198432 On ch=7 n=33 v=110
198504 Off ch=7 n=33 v=64
198528 On ch=7 n=40 v=110
198600 Off ch=7 n=40 v=64
198624 On ch=7 n=40 v=110
198696 Off ch=7 n=40 v=64
198720 On ch=7 n=31 v=110
198888 Off ch=7 n=31 v=64
198912 On ch=7 n=31 v=110
199176 Off ch=7 n=31 v=64
199200 On ch=7 n=31 v=110
199272 Off ch=7 n=31 v=64
199296 On ch=7 n=38 v=110
199368 Off ch=7 n=38 v=64
199392 On ch=7 n=31 v=110
199464 Off ch=7 n=31 v=64
199488 On ch=7 n=29 v=110
199656 Off ch=7 n=29 v=64
199680 On ch=7 n=29 v=110
199944 Off ch=7 n=29 v=64
199968 On ch=7 n=29 v=110
200040 Off ch=7 n=29 v=64
200064 On ch=7 n=35 v=110
200136 Off ch=7 n=35 v=64
200160 On ch=7 n=36 v=110
200328 Off ch=7 n=36 v=64
200352 On ch=7 n=41 v=110
200424 Off ch=7 n=41 v=64
200448 On ch=7 n=36 v=110
200520 Off ch=7 n=36 v=64
200544 On ch=7 n=36 v=110
200616 Off ch=7 n=36 v=64
200640 On ch=7 n=41 v=110
200712 Off ch=7 n=41 v=64
200736 On ch=7 n=36 v=110
200808 Off ch=7 n=36 v=64
200832 On ch=7 n=29 v=110
200904 Off ch=7 n=29 v=64
200928 On ch=7 n=29 v=110
201000 Off ch=7 n=29 v=64
201024 On ch=7 n=33 v=110
201192 Off ch=7 n=33 v=64
201216 On ch=7 n=33 v=110
201480 Off ch=7 n=33 v=64
201504 On ch=7 n=40 v=110
201576 Off ch=7 n=40 v=64
201600 On ch=7 n=28 v=110
201672 Off ch=7 n=28 v=64
201696 On ch=7 n=31 v=110
201768 Off ch=7 n=31 v=64
201792 On ch=7 n=31 v=110
201960 Off ch=7 n=31 v=64
201984 On ch=7 n=31 v=110
202248 Off ch=7 n=31 v=64
202272 On ch=7 n=31 v=110
202344 Off ch=7 n=31 v=64
202368 On ch=7 n=31 v=110
202440 Off ch=7 n=31 v=64
202464 On ch=7 n=31 v=110
202536 Off ch=7 n=31 v=64
202560 On ch=7 n=29 v=110
202728 Off ch=7 n=29 v=64
202752 On ch=7 n=29 v=110
202920 Off ch=7 n=29 v=64
202944 On ch=7 n=29 v=110
203016 Off ch=7 n=29 v=64
203040 On ch=7 n=29 v=110
203208 Off ch=7 n=29 v=64
203232 On ch=7 n=29 v=110
203400 Off ch=7 n=29 v=64
203424 On ch=7 n=29 v=110
203496 Off ch=7 n=29 v=64
203520 On ch=7 n=29 v=110
203592 Off ch=7 n=29 v=64
203616 On ch=7 n=29 v=110
203688 Off ch=7 n=29 v=64
203712 On ch=7 n=29 v=110
203784 Off ch=7 n=29 v=64
203808 On ch=7 n=29 v=110
203880 Off ch=7 n=29 v=64
203904 On ch=7 n=29 v=110
203976 Off ch=7 n=29 v=64
204000 On ch=7 n=31 v=110
204072 Off ch=7 n=31 v=64
204096 On ch=7 n=33 v=110
204288 Off ch=7 n=33 v=64
204288 On ch=7 n=33 v=110
204288 Off ch=7 n=33 v=64
204672 On ch=7 n=40 v=110
204768 Off ch=7 n=40 v=64
204768 On ch=7 n=33 v=110
204864 Off ch=7 n=33 v=64
204864 On ch=7 n=31 v=110
205056 Off ch=7 n=31 v=64
205056 On ch=7 n=31 v=110
205344 Off ch=7 n=31 v=64
205344 On ch=7 n=41 v=110
205440 Off ch=7 n=41 v=64
205440 On ch=7 n=31 v=110
205536 Off ch=7 n=31 v=64
205536 On ch=7 n=29 v=110
205632 Off ch=7 n=29 v=64
205632 On ch=7 n=29 v=110
205824 Off ch=7 n=29 v=64
205824 On ch=7 n=29 v=110
205824 Off ch=7 n=29 v=64
206304 On ch=7 n=29 v=110
206304 Off ch=7 n=29 v=64
206400 On ch=7 n=36 v=110
206496 Off ch=7 n=36 v=64
206496 On ch=7 n=41 v=110
206688 Off ch=7 n=41 v=64
206688 On ch=7 n=36 v=110
206784 Off ch=7 n=36 v=64
206784 On ch=7 n=29 v=110
206880 Off ch=7 n=29 v=64
206880 On ch=7 n=36 v=110
206976 Off ch=7 n=36 v=64
206976 On ch=7 n=29 v=110
207072 Off ch=7 n=29 v=64
207072 On ch=7 n=31 v=110
207168 Off ch=7 n=31 v=64
207168 On ch=7 n=33 v=110
207360 Off ch=7 n=33 v=64
207360 On ch=7 n=33 v=110
207360 Off ch=7 n=33 v=64
207744 On ch=7 n=33 v=110
207744 Off ch=7 n=33 v=64
207840 On ch=7 n=33 v=110
207840 Off ch=7 n=33 v=64
207936 On ch=7 n=31 v=110
208128 Off ch=7 n=31 v=64
208128 On ch=7 n=31 v=110
208416 Off ch=7 n=31 v=64
208416 On ch=7 n=31 v=110
208512 Off ch=7 n=31 v=64
208512 On ch=7 n=38 v=110
208608 Off ch=7 n=38 v=64
208608 On ch=7 n=31 v=110
208704 Off ch=7 n=31 v=64
208704 On ch=7 n=29 v=110
208896 Off ch=7 n=29 v=64
208896 On ch=7 n=29 v=110
208896 Off ch=7 n=29 v=64
208992 On ch=7 n=29 v=110
208992 Off ch=7 n=29 v=64
209184 On ch=7 n=29 v=110
209184 Off ch=7 n=29 v=64
209280 On ch=7 n=29 v=110
209280 Off ch=7 n=29 v=64
209568 On ch=7 n=29 v=110
209568 Off ch=7 n=29 v=64
209760 On ch=7 n=29 v=110
209760 Off ch=7 n=29 v=64
209856 On ch=7 n=29 v=110
209856 Off ch=7 n=29 v=64
210048 On ch=7 n=31 v=110
210240 Off ch=7 n=31 v=64
210240 On ch=7 n=33 v=110
210432 Off ch=7 n=33 v=64
210432 On ch=7 n=33 v=110
210432 Off ch=7 n=33 v=64
211008 On ch=7 n=31 v=110
211200 Off ch=7 n=31 v=64
211200 On ch=7 n=31 v=110
211392 Off ch=7 n=31 v=64
211680 On ch=7 n=28 v=110
211776 Off ch=7 n=28 v=64
211776 On ch=7 n=29 v=110
211968 Off ch=7 n=29 v=64
211968 On ch=7 n=29 v=110
211968 Off ch=7 n=29 v=64
212064 On ch=7 n=29 v=110
212064 Off ch=7 n=29 v=64
212256 On ch=7 n=29 v=110
212256 Off ch=7 n=29 v=64
212352 On ch=7 n=29 v=110
212352 Off ch=7 n=29 v=64
212640 On ch=7 n=29 v=110
212640 Off ch=7 n=29 v=64
212832 On ch=7 n=29 v=110
212832 Off ch=7 n=29 v=64
212928 On ch=7 n=29 v=110
212928 Off ch=7 n=29 v=64
213120 On ch=7 n=31 v=110
213312 Off ch=7 n=31 v=64
213312 On ch=7 n=33 v=110
213504 Off ch=7 n=33 v=64
213504 On ch=7 n=33 v=110
213504 Off ch=7 n=33 v=64
214080 On ch=7 n=31 v=110
214272 Off ch=7 n=31 v=64
214272 On ch=7 n=31 v=110
214464 Off ch=7 n=31 v=64
214752 On ch=7 n=28 v=110
214848 Off ch=7 n=28 v=64
214848 On ch=7 n=29 v=110
215040 Off ch=7 n=29 v=64
215040 On ch=7 n=29 v=110
215040 Off ch=7 n=29 v=64
215136 On ch=7 n=29 v=110
215136 Off ch=7 n=29 v=64
215328 On ch=7 n=29 v=110
215328 Off ch=7 n=29 v=64
215424 On ch=7 n=29 v=110
215424 Off ch=7 n=29 v=64
215712 On ch=7 n=29 v=110
215712 Off ch=7 n=29 v=64
215904 On ch=7 n=29 v=110
215904 Off ch=7 n=29 v=64
216000 On ch=7 n=29 v=110
216000 Off ch=7 n=29 v=64
216192 On ch=7 n=31 v=110
216384 Off ch=7 n=31 v=64
216384 On ch=7 n=33 v=110
216576 Off ch=7 n=33 v=64
216576 On ch=7 n=33 v=110
216576 Off ch=7 n=33 v=64
217152 On ch=7 n=31 v=110
217344 Off ch=7 n=31 v=64
217344 On ch=7 n=31 v=110
217536 Off ch=7 n=31 v=64
217824 On ch=7 n=28 v=110
217920 Off ch=7 n=28 v=64
217920 On ch=7 n=29 v=110
218112 Off ch=7 n=29 v=64
218112 On ch=7 n=29 v=110
218112 Off ch=7 n=29 v=64
218208 On ch=7 n=29 v=110
218208 Off ch=7 n=29 v=64
218400 On ch=7 n=29 v=110
218400 Off ch=7 n=29 v=64
218496 On ch=7 n=29 v=110
218496 Off ch=7 n=29 v=64
218784 On ch=7 n=29 v=110
218784 Off ch=7 n=29 v=64
218976 On ch=7 n=29 v=110
218976 Off ch=7 n=29 v=64
219072 On ch=7 n=29 v=110
219072 Off ch=7 n=29 v=64
219264 On ch=7 n=31 v=110
219456 Off ch=7 n=31 v=64
219456 On ch=7 n=33 v=110
219648 Off ch=7 n=33 v=64
219648 On ch=7 n=33 v=110
219648 Off ch=7 n=33 v=64
220224 On ch=7 n=31 v=110
220416 Off ch=7 n=31 v=64
220416 On ch=7 n=31 v=110
220608 Off ch=7 n=31 v=64
220896 On ch=7 n=28 v=110
220992 Off ch=7 n=28 v=64
220992 On ch=7 n=29 v=110
221184 Off ch=7 n=29 v=64
221184 On ch=7 n=29 v=110
221184 Off ch=7 n=29 v=64
221280 On ch=7 n=29 v=110
221280 Off ch=7 n=29 v=64
221472 On ch=7 n=29 v=110
221472 Off ch=7 n=29 v=64
221568 On ch=7 n=29 v=110
221568 Off ch=7 n=29 v=64
221856 On ch=7 n=29 v=110
221856 Off ch=7 n=29 v=64
222048 On ch=7 n=29 v=110
222048 Off ch=7 n=29 v=64
222144 On ch=7 n=29 v=110
222144 Off ch=7 n=29 v=64
222336 On ch=7 n=31 v=110
222528 Off ch=7 n=31 v=64
222528 On ch=7 n=33 v=110
222720 Off ch=7 n=33 v=64
222720 On ch=7 n=33 v=110
222720 Off ch=7 n=33 v=64
223296 On ch=7 n=31 v=110
223488 Off ch=7 n=31 v=64
223488 On ch=7 n=31 v=110
223680 Off ch=7 n=31 v=64
223968 On ch=7 n=28 v=110
224064 Off ch=7 n=28 v=64
224064 On ch=7 n=29 v=110
224256 Off ch=7 n=29 v=64
224256 On ch=7 n=29 v=110
224256 Off ch=7 n=29 v=64
224352 On ch=7 n=29 v=110
224352 Off ch=7 n=29 v=64
224544 On ch=7 n=29 v=110
224544 Off ch=7 n=29 v=64
224640 On ch=7 n=29 v=110
224640 Off ch=7 n=29 v=64
224928 On ch=7 n=29 v=110
224928 Off ch=7 n=29 v=64
225120 On ch=7 n=29 v=110
225120 Off ch=7 n=29 v=64
225216 On ch=7 n=29 v=110
225216 Off ch=7 n=29 v=64
225408 On ch=7 n=31 v=110
225600 Off ch=7 n=31 v=64
225600 On ch=7 n=33 v=110
225792 Off ch=7 n=33 v=64
225792 On ch=7 n=33 v=110
225792 Off ch=7 n=33 v=64
226368 On ch=7 n=31 v=110
226560 Off ch=7 n=31 v=64
226560 On ch=7 n=31 v=110
226752 Off ch=7 n=31 v=64
227040 On ch=7 n=28 v=110
227136 Off ch=7 n=28 v=64
227136 On ch=7 n=29 v=110
227328 Off ch=7 n=29 v=64
227328 On ch=7 n=29 v=110
227328 Off ch=7 n=29 v=64
227424 On ch=7 n=29 v=110
227424 Off ch=7 n=29 v=64
227616 On ch=7 n=29 v=110
227616 Off ch=7 n=29 v=64
227712 On ch=7 n=29 v=110
227712 Off ch=7 n=29 v=64
228000 On ch=7 n=29 v=110
228000 Off ch=7 n=29 v=64
228192 On ch=7 n=29 v=110
228192 Off ch=7 n=29 v=64
228288 On ch=7 n=29 v=110
228288 Off ch=7 n=29 v=64
228480 On ch=7 n=31 v=110
228672 Off ch=7 n=31 v=64
228672 On ch=7 n=33 v=110
228864 Off ch=7 n=33 v=64
228864 On ch=7 n=33 v=110
228864 Off ch=7 n=33 v=64
229440 On ch=7 n=31 v=110
229632 Off ch=7 n=31 v=64
229632 On ch=7 n=31 v=110
229824 Off ch=7 n=31 v=64
230112 On ch=7 n=28 v=110
230208 Off ch=7 n=28 v=64
230208 On ch=7 n=29 v=110
230400 Off ch=7 n=29 v=64
230400 On ch=7 n=29 v=110
230400 Off ch=7 n=29 v=64
230496 On ch=7 n=29 v=110
230496 Off ch=7 n=29 v=64
230688 On ch=7 n=29 v=110
230688 Off ch=7 n=29 v=64
230784 On ch=7 n=29 v=110
230784 Off ch=7 n=29 v=64
231072 On ch=7 n=29 v=110
231072 Off ch=7 n=29 v=64
231264 On ch=7 n=29 v=110
231264 Off ch=7 n=29 v=64
231360 On ch=7 n=29 v=110
231360 Off ch=7 n=29 v=64
231552 On ch=7 n=31 v=110
231744 Off ch=7 n=31 v=64
231744 On ch=7 n=33 v=110
231936 Off ch=7 n=33 v=64
231936 On ch=7 n=33 v=110
231936 Off ch=7 n=33 v=64
232416 On ch=7 n=29 v=100
232512 Off ch=7 n=29 v=64
232512 On ch=7 n=31 v=110
232704 Off ch=7 n=31 v=64
232704 On ch=7 n=31 v=110
232896 Off ch=7 n=31 v=64
233184 On ch=7 n=29 v=110
233472 Off ch=7 n=29 v=64
233472 On ch=7 n=29 v=100
233472 Off ch=7 n=29 v=64
233664 On ch=7 n=29 v=100
233664 Off ch=7 n=29 v=64
233952 On ch=7 n=28 v=100
234048 Off ch=7 n=28 v=64
234048 On ch=7 n=29 v=100
234144 Off ch=7 n=29 v=64
234144 On ch=7 n=28 v=100
234240 Off ch=7 n=28 v=64
234240 On ch=7 n=30 v=100
234528 Off ch=7 n=30 v=64
234528 On ch=7 n=30 v=100
234624 Off ch=7 n=30 v=64
234624 On ch=7 n=30 v=100
234720 Off ch=7 n=30 v=64
234720 On ch=7 n=31 v=100
234816 Off ch=7 n=31 v=64
234816 On ch=7 n=33 v=100
235008 Off ch=7 n=33 v=64
235008 On ch=7 n=33 v=100
235008 Off ch=7 n=33 v=64
235584 On ch=7 n=31 v=100
235776 Off ch=7 n=31 v=64
235776 On ch=7 n=31 v=100
235968 Off ch=7 n=31 v=64
236160 On ch=7 n=29 v=100
236544 Off ch=7 n=29 v=64
236544 On ch=7 n=28 v=100
236736 Off ch=7 n=28 v=64
236736 On ch=7 n=29 v=100
237024 Off ch=7 n=29 v=64
237024 On ch=7 n=33 v=100
237120 Off ch=7 n=33 v=64
237120 On ch=7 n=36 v=100
237216 Off ch=7 n=36 v=64
237216 On ch=7 n=41 v=100
237312 Off ch=7 n=41 v=64
237312 On ch=7 n=38 v=100
237408 Off ch=7 n=38 v=64
237408 On ch=7 n=36 v=100
237504 Off ch=7 n=36 v=64
237504 On ch=7 n=33 v=100
237600 Off ch=7 n=33 v=64
237600 On ch=7 n=31 v=100
237696 Off ch=7 n=31 v=64
237696 On ch=7 n=29 v=100
237792 Off ch=7 n=29 v=64
237792 On ch=7 n=31 v=100
237888 Off ch=7 n=31 v=64
237888 On ch=7 n=33 v=100
238272 Off ch=7 n=33 v=64
238272 On ch=7 n=33 v=100
238560 Off ch=7 n=33 v=64
238560 On ch=7 n=33 v=100
238656 Off ch=7 n=33 v=64
238656 On ch=7 n=31 v=100
238848 Off ch=7 n=31 v=64
238848 On ch=7 n=31 v=100
239040 Off ch=7 n=31 v=64
239040 On ch=7 n=38 v=100
239232 Off ch=7 n=38 v=64
239232 On ch=7 n=29 v=100
239616 Off ch=7 n=29 v=64
239616 On ch=7 n=29 v=100
239616 Off ch=7 n=29 v=64
239808 On ch=7 n=29 v=100
239808 Off ch=7 n=29 v=64
240096 On ch=7 n=29 v=100
240192 Off ch=7 n=29 v=64
240192 On ch=7 n=29 v=100
240288 Off ch=7 n=29 v=64
240288 On ch=7 n=29 v=100
240384 Off ch=7 n=29 v=64
240384 On ch=7 n=29 v=100
240672 Off ch=7 n=29 v=64
240672 On ch=7 n=28 v=100
240768 Off ch=7 n=28 v=64
240768 On ch=7 n=29 v=100
240864 Off ch=7 n=29 v=64
240864 On ch=7 n=28 v=100
240960 Off ch=7 n=28 v=64
240960 On ch=7 n=33 v=100
241152 Off ch=7 n=33 v=64
241152 On ch=7 n=29 v=100
241344 Off ch=7 n=29 v=64
241344 On ch=7 n=33 v=100
241632 Off ch=7 n=33 v=64
241632 On ch=7 n=33 v=100
241728 Off ch=7 n=33 v=64
241728 On ch=7 n=31 v=100
241920 Off ch=7 n=31 v=64
241920 On ch=7 n=31 v=100
242112 Off ch=7 n=31 v=64
242112 On ch=7 n=38 v=100
242208 Off ch=7 n=38 v=64
242208 On ch=7 n=31 v=100
242304 Off ch=7 n=31 v=64
242304 On ch=7 n=29 v=100
242688 Off ch=7 n=29 v=64
242688 On ch=7 n=29 v=100
242688 Off ch=7 n=29 v=64
242880 On ch=7 n=29 v=100
242880 Off ch=7 n=29 v=64
243168 On ch=7 n=33 v=100
243264 Off ch=7 n=33 v=64
243264 On ch=7 n=36 v=100
243360 Off ch=7 n=36 v=64
243360 On ch=7 n=41 v=100
243552 Off ch=7 n=41 v=64
243552 On ch=7 n=36 v=100
243648 Off ch=7 n=36 v=64
243648 On ch=7 n=41 v=100
243744 Off ch=7 n=41 v=64
243744 On ch=7 n=29 v=100
243840 Off ch=7 n=29 v=64
243840 On ch=7 n=29 v=100
243936 Off ch=7 n=29 v=64
243936 On ch=7 n=31 v=100
244032 Off ch=7 n=31 v=64
244032 On ch=7 n=33 v=100
244224 Off ch=7 n=33 v=64
244224 On ch=7 n=28 v=100
244416 Off ch=7 n=28 v=64
244416 On ch=7 n=33 v=100
244704 Off ch=7 n=33 v=64
244704 On ch=7 n=33 v=100
244800 Off ch=7 n=33 v=64
244800 On ch=7 n=31 v=100
244992 Off ch=7 n=31 v=64
244992 On ch=7 n=31 v=100
245184 Off ch=7 n=31 v=64
245184 On ch=7 n=38 v=100
245280 Off ch=7 n=38 v=64
245280 On ch=7 n=31 v=100
245376 Off ch=7 n=31 v=64
245376 On ch=7 n=29 v=100
245568 Off ch=7 n=29 v=64
245568 On ch=7 n=29 v=100
245760 Off ch=7 n=29 v=64
245760 On ch=7 n=29 v=100
245760 Off ch=7 n=29 v=64
245952 On ch=7 n=29 v=100
245952 Off ch=7 n=29 v=64
246240 On ch=7 n=33 v=100
246336 Off ch=7 n=33 v=64
246336 On ch=7 n=36 v=100
246432 Off ch=7 n=36 v=64
246432 On ch=7 n=41 v=100
246528 Off ch=7 n=41 v=64
246528 On ch=7 n=41 v=100
246624 Off ch=7 n=41 v=64
246624 On ch=7 n=36 v=100
246720 Off ch=7 n=36 v=64
246720 On ch=7 n=36 v=100
246816 Off ch=7 n=36 v=64
246816 On ch=7 n=41 v=100
246912 Off ch=7 n=41 v=64
246912 On ch=7 n=29 v=100
246984 Off ch=7 n=29 v=64
247008 On ch=7 n=31 v=100
247104 Off ch=7 n=31 v=64
247104 On ch=7 n=33 v=100
247296 Off ch=7 n=33 v=64
247296 On ch=7 n=33 v=100
247296 Off ch=7 n=33 v=64
247488 On ch=7 n=33 v=100
247488 Off ch=7 n=33 v=64
247872 On ch=7 n=31 v=100
248064 Off ch=7 n=31 v=64
248064 On ch=7 n=31 v=100
248256 Off ch=7 n=31 v=64
248256 On ch=7 n=31 v=100
248640 Off ch=7 n=31 v=64
248640 On ch=7 n=29 v=127
251712 Off ch=7 n=29 v=64
251712 Meta TrkEnd
TrkEnd
MTrk
0 Meta TrkName "electric guitar 2   "
0 Par ch=4 c=0 v=0
0 PrCh ch=4 p=60
0 KeySig 0 major
24 PrCh ch=4 p=30
198336 On ch=4 n=72 v=90
198696 Off ch=4 n=72 v=64
198720 On ch=4 n=71 v=90
199080 Off ch=4 n=71 v=64
199104 On ch=4 n=72 v=90
199368 Off ch=4 n=72 v=64
199368 On ch=4 n=71 v=64
199416 Off ch=4 n=71 v=64
199416 On ch=4 n=70 v=64
199464 Off ch=4 n=70 v=64
199464 On ch=4 n=69 v=90
200616 Off ch=4 n=69 v=64
201408 On ch=4 n=72 v=90
201768 Off ch=4 n=72 v=64
201792 On ch=4 n=71 v=90
202152 Off ch=4 n=71 v=64
202176 On ch=4 n=72 v=90
202440 Off ch=4 n=72 v=64
202440 On ch=4 n=71 v=64
202488 Off ch=4 n=71 v=64
202488 On ch=4 n=70 v=64
202536 Off ch=4 n=70 v=64
202536 On ch=4 n=69 v=90
203688 Off ch=4 n=69 v=64
204480 On ch=4 n=72 v=90
204840 Off ch=4 n=72 v=64
204864 On ch=4 n=71 v=90
205224 Off ch=4 n=71 v=64
205248 On ch=4 n=72 v=90
205512 Off ch=4 n=72 v=64
205512 On ch=4 n=71 v=64
205560 Off ch=4 n=71 v=64
205560 On ch=4 n=70 v=64
205608 Off ch=4 n=70 v=64
205608 On ch=4 n=69 v=90
206760 Off ch=4 n=69 v=64
207552 On ch=4 n=72 v=90
207912 Off ch=4 n=72 v=64
207936 On ch=4 n=71 v=90
208296 Off ch=4 n=71 v=64
208320 On ch=4 n=72 v=90
208584 Off ch=4 n=72 v=64
208584 On ch=4 n=71 v=64
208632 Off ch=4 n=71 v=64
208632 On ch=4 n=70 v=64
208680 Off ch=4 n=70 v=64
208680 On ch=4 n=69 v=90
209832 Off ch=4 n=69 v=64
220992 On ch=4 n=65 v=90
221280 Off ch=4 n=65 v=64
221280 On ch=4 n=69 v=90
221568 Off ch=4 n=69 v=64
221568 On ch=4 n=72 v=90
221856 Off ch=4 n=72 v=64
221856 On ch=4 n=74 v=90
221856 Off ch=4 n=74 v=64
221880 On ch=4 n=76 v=90
222144 Off ch=4 n=76 v=64
222144 On ch=4 n=74 v=90
222336 Off ch=4 n=74 v=64
222336 On ch=4 n=72 v=90
222528 Off ch=4 n=72 v=64
222528 On ch=4 n=69 v=90
222720 Off ch=4 n=69 v=64
222720 On ch=4 n=69 v=90
222720 Off ch=4 n=69 v=64
223296 On ch=4 n=67 v=90
223488 Off ch=4 n=67 v=64
223488 On ch=4 n=67 v=90
223680 Off ch=4 n=67 v=64
224064 On ch=4 n=65 v=90
224328 Off ch=4 n=65 v=64
224328 On ch=4 n=67 v=90
224328 Off ch=4 n=67 v=64
224352 On ch=4 n=69 v=90
224640 Off ch=4 n=69 v=64
224640 On ch=4 n=72 v=90
224928 Off ch=4 n=72 v=64
224928 On ch=4 n=74 v=90
224928 Off ch=4 n=74 v=64
224928 On ch=4 n=76 v=90
225216 Off ch=4 n=76 v=64
225216 On ch=4 n=74 v=90
225408 Off ch=4 n=74 v=64
225408 On ch=4 n=72 v=90
225600 Off ch=4 n=72 v=64
225600 On ch=4 n=69 v=90
225792 Off ch=4 n=69 v=64
225792 On ch=4 n=69 v=90
225792 Off ch=4 n=69 v=64
226368 On ch=4 n=67 v=90
226560 Off ch=4 n=67 v=64
226560 On ch=4 n=67 v=90
226752 Off ch=4 n=67 v=64
227136 On ch=4 n=65 v=90
227400 Off ch=4 n=65 v=64
227400 On ch=4 n=67 v=90
227400 Off ch=4 n=67 v=64
227424 On ch=4 n=69 v=90
227712 Off ch=4 n=69 v=64
227712 On ch=4 n=72 v=90
228000 Off ch=4 n=72 v=64
228000 On ch=4 n=74 v=90
228000 Off ch=4 n=74 v=64
228000 On ch=4 n=76 v=90
228288 Off ch=4 n=76 v=64
228288 On ch=4 n=74 v=90
228480 Off ch=4 n=74 v=64
228480 On ch=4 n=72 v=90
228672 Off ch=4 n=72 v=64
228672 On ch=4 n=69 v=90
228864 Off ch=4 n=69 v=64
228864 On ch=4 n=69 v=90
228864 Off ch=4 n=69 v=64
229440 On ch=4 n=67 v=90
229632 Off ch=4 n=67 v=64
229632 On ch=4 n=67 v=90
229824 Off ch=4 n=67 v=64
230208 On ch=4 n=65 v=90
230472 Off ch=4 n=65 v=64
230472 On ch=4 n=67 v=90
230472 Off ch=4 n=67 v=64
230496 On ch=4 n=69 v=90
230784 Off ch=4 n=69 v=64
230784 On ch=4 n=72 v=90
231072 Off ch=4 n=72 v=64
231072 On ch=4 n=74 v=90
231072 Off ch=4 n=74 v=64
231072 On ch=4 n=76 v=90
231360 Off ch=4 n=76 v=64
231360 On ch=4 n=74 v=90
231552 Off ch=4 n=74 v=64
231552 On ch=4 n=72 v=90
231744 Off ch=4 n=72 v=64
231744 On ch=4 n=69 v=90
231936 Off ch=4 n=69 v=64
231936 On ch=4 n=69 v=90
231936 Off ch=4 n=69 v=64
232512 On ch=4 n=67 v=90
232704 Off ch=4 n=67 v=64
232704 On ch=4 n=67 v=90
232896 Off ch=4 n=67 v=64
233088 On ch=4 n=65 v=90
234048 Off ch=4 n=65 v=64
234816 On ch=4 n=69 v=90
235008 Off ch=4 n=69 v=64
235008 On ch=4 n=69 v=90
235008 Off ch=4 n=69 v=64
235584 On ch=4 n=67 v=90
235776 Off ch=4 n=67 v=64
235776 On ch=4 n=67 v=90
235968 Off ch=4 n=67 v=64
236160 On ch=4 n=65 v=90
237120 Off ch=4 n=65 v=64
237888 On ch=4 n=67 v=90
237888 Off ch=4 n=67 v=64
237888 On ch=4 n=69 v=90
238848 Off ch=4 n=69 v=64
238848 On ch=4 n=72 v=90
239040 Off ch=4 n=72 v=64
239040 On ch=4 n=74 v=90
239136 Off ch=4 n=74 v=64
239136 On ch=4 n=69 v=90
239424 Off ch=4 n=69 v=64
239424 On ch=4 n=67 v=90
239520 Off ch=4 n=67 v=64
239520 On ch=4 n=69 v=90
239808 Off ch=4 n=69 v=64
239808 On ch=4 n=67 v=90
239808 Off ch=4 n=67 v=64
239808 On ch=4 n=69 v=90
240576 Off ch=4 n=69 v=64
240576 On ch=4 n=60 v=90
240576 Off ch=4 n=60 v=64
240576 On ch=4 n=62 v=90
240960 Off ch=4 n=62 v=64
240960 On ch=4 n=62 v=90
240960 Off ch=4 n=62 v=64
240960 On ch=4 n=64 v=90
241728 Off ch=4 n=64 v=64
241728 On ch=4 n=65 v=90
241728 Off ch=4 n=65 v=64
241728 On ch=4 n=67 v=90
242112 Off ch=4 n=67 v=64
242112 On ch=4 n=69 v=90
242136 On ch=4 n=67 v=90
242136 Off ch=4 n=67 v=64
242496 Off ch=4 n=69 v=64
242496 On ch=4 n=72 v=90
242496 On ch=4 n=70 v=90
242496 Off ch=4 n=70 v=64
243648 Off ch=4 n=72 v=64
243648 On ch=4 n=69 v=90
243648 Off ch=4 n=69 v=64
243648 On ch=4 n=71 v=90
244224 Off ch=4 n=71 v=64
244224 On ch=4 n=70 v=90
244224 Off ch=4 n=70 v=64
244224 On ch=4 n=72 v=90
244800 Off ch=4 n=72 v=64
244800 On ch=4 n=71 v=90
244800 On ch=4 n=69 v=90
244800 Off ch=4 n=69 v=64
245376 Off ch=4 n=71 v=64
245400 On ch=4 n=70 v=90
245400 Off ch=4 n=70 v=64
245400 On ch=4 n=72 v=90
245952 Off ch=4 n=72 v=64
245952 On ch=4 n=69 v=90
245952 Off ch=4 n=69 v=64
245952 On ch=4 n=71 v=90
246528 Off ch=4 n=71 v=64
246528 On ch=4 n=70 v=90
246528 Off ch=4 n=70 v=64
246528 On ch=4 n=72 v=90
246912 Off ch=4 n=72 v=64
246912 On ch=4 n=74 v=90
246912 On ch=4 n=72 v=90
246912 Off ch=4 n=72 v=64
247488 Off ch=4 n=74 v=64
247488 On ch=4 n=70 v=90
247488 Off ch=4 n=70 v=64
247488 On ch=4 n=72 v=90
247872 Off ch=4 n=72 v=64
247872 On ch=4 n=69 v=90
247872 Off ch=4 n=69 v=64
247872 On ch=4 n=71 v=90
248256 Off ch=4 n=71 v=64
248256 On ch=4 n=72 v=90
248256 Off ch=4 n=72 v=64
248256 On ch=4 n=74 v=90
248640 Off ch=4 n=74 v=64
248640 On ch=4 n=70 v=90
248640 Off ch=4 n=70 v=64
248640 On ch=4 n=72 v=90
249792 Off ch=4 n=72 v=64
249792 Meta TrkEnd
TrkEnd
MTrk
0 Meta TrkName "Stairway to Heaven  "
0 KeySig 0 major
0 Meta TrkEnd
TrkEnd
MTrk
0 Meta TrkName "REVAMPED FOR REAL SO"
0 KeySig 0 major
0 Meta TrkEnd
TrkEnd
MTrk
0 Meta TrkName "Meter Track         "
0 KeySig 0 major
0 Meta TrkEnd
TrkEnd
