MFile 1 21 120
MTrk
0 Meta SeqName "Party rock anthem"
0 Meta Text "Mel Ofrecio\n"
0 Meta Text "Something Special Band\n"
0 SysEx f0 7e 7f 09 01 f7
0 SysEx f0 41 10 42 12 40 00 7f 00 41 f7
0 SysEx f0 41 10 42 12 40 1a 15 02 0f f7
0 TimeSig 4/4 24 8
0 KeySig -4 major
0 Tempo 461538
480 Tempo 461538
480 Meta TrkEnd
TrkEnd
MTrk
0 Meta TrkName "Sawtooth"
0 PrCh ch=1 p=81
0 Par ch=1 c=7 v=80
483 Par ch=1 c=91 v=127
483 Par ch=1 c=93 v=20
483 Par ch=1 c=1 v=20
4320 On ch=1 n=77 v=80
4320 On ch=1 n=80 v=80
4320 On ch=1 n=72 v=80
4380 On ch=1 n=72 v=0
4380 On ch=1 n=80 v=0
4380 On ch=1 n=77 v=0
4410 On ch=1 n=80 v=80
4410 On ch=1 n=77 v=80
4410 On ch=1 n=72 v=80
4470 On ch=1 n=72 v=0
4470 On ch=1 n=77 v=0
4470 On ch=1 n=80 v=0
4500 On ch=1 n=77 v=80
4500 On ch=1 n=80 v=80
4500 On ch=1 n=72 v=80
4560 On ch=1 n=72 v=0
4560 On ch=1 n=80 v=0
4560 On ch=1 n=77 v=0
4620 On ch=1 n=80 v=80
4620 On ch=1 n=77 v=80
4620 On ch=1 n=72 v=80
4680 On ch=1 n=72 v=0
4680 On ch=1 n=77 v=0
4680 On ch=1 n=80 v=0
4710 On ch=1 n=77 v=80
4710 On ch=1 n=80 v=80
4710 On ch=1 n=72 v=80
4770 On ch=1 n=72 v=0
4770 On ch=1 n=80 v=0
4770 On ch=1 n=77 v=0
4800 On ch=1 n=75 v=80
4800 On ch=1 n=79 v=80
4800 On ch=1 n=70 v=80
4860 On ch=1 n=70 v=0
4860 On ch=1 n=79 v=0
4860 On ch=1 n=75 v=0
4890 On ch=1 n=75 v=80
4890 On ch=1 n=79 v=80
4890 On ch=1 n=70 v=80
4950 On ch=1 n=70 v=0
4950 On ch=1 n=79 v=0
4950 On ch=1 n=75 v=0
4980 On ch=1 n=73 v=80
4980 On ch=1 n=77 v=80
4980 On ch=1 n=68 v=80
5040 On ch=1 n=68 v=0
5040 On ch=1 n=77 v=0
5040 On ch=1 n=73 v=0
5100 On ch=1 n=77 v=80
5100 On ch=1 n=73 v=80
5100 On ch=1 n=68 v=80
5160 On ch=1 n=68 v=0
5160 On ch=1 n=73 v=0
5160 On ch=1 n=77 v=0
5190 On ch=1 n=77 v=80
5190 On ch=1 n=73 v=80
5190 On ch=1 n=68 v=80
5250 On ch=1 n=68 v=0
5250 On ch=1 n=73 v=0
5250 On ch=1 n=77 v=0
5280 On ch=1 n=77 v=80
5280 On ch=1 n=80 v=80
5280 On ch=1 n=72 v=80
5340 On ch=1 n=72 v=0
5340 On ch=1 n=80 v=0
5340 On ch=1 n=77 v=0
5370 On ch=1 n=77 v=80
5370 On ch=1 n=80 v=80
5370 On ch=1 n=72 v=80
5430 On ch=1 n=72 v=0
5430 On ch=1 n=80 v=0
5430 On ch=1 n=77 v=0
5460 On ch=1 n=77 v=80
5460 On ch=1 n=80 v=80
5460 On ch=1 n=72 v=80
5520 On ch=1 n=72 v=0
5520 On ch=1 n=80 v=0
5520 On ch=1 n=77 v=0
5580 On ch=1 n=77 v=80
5580 On ch=1 n=80 v=80
5580 On ch=1 n=72 v=80
5640 On ch=1 n=72 v=0
5640 On ch=1 n=80 v=0
5640 On ch=1 n=77 v=0
5670 On ch=1 n=77 v=80
5670 On ch=1 n=80 v=80
5670 On ch=1 n=72 v=80
5730 On ch=1 n=72 v=0
5730 On ch=1 n=80 v=0
5730 On ch=1 n=77 v=0
5760 On ch=1 n=79 v=80
5760 On ch=1 n=75 v=80
5760 On ch=1 n=70 v=80
5820 On ch=1 n=70 v=0
5820 On ch=1 n=75 v=0
5820 On ch=1 n=79 v=0
5850 On ch=1 n=70 v=80
5850 On ch=1 n=79 v=80
5850 On ch=1 n=75 v=80
5910 On ch=1 n=75 v=0
5910 On ch=1 n=79 v=0
5910 On ch=1 n=70 v=0
5940 On ch=1 n=73 v=80
5940 On ch=1 n=77 v=80
5940 On ch=1 n=80 v=80
5940 On ch=1 n=68 v=80
6000 On ch=1 n=68 v=0
6000 On ch=1 n=73 v=0
6000 On ch=1 n=77 v=0
6000 On ch=1 n=80 v=0
6060 On ch=1 n=68 v=80
6060 On ch=1 n=77 v=80
6060 On ch=1 n=73 v=80
6060 On ch=1 n=80 v=80
6120 On ch=1 n=80 v=0
6120 On ch=1 n=68 v=0
6120 On ch=1 n=77 v=0
6120 On ch=1 n=73 v=0
6150 On ch=1 n=77 v=80
6150 On ch=1 n=68 v=80
6150 On ch=1 n=80 v=80
6150 On ch=1 n=73 v=80
6210 On ch=1 n=73 v=0
6210 On ch=1 n=77 v=0
6210 On ch=1 n=68 v=0
6210 On ch=1 n=80 v=0
6240 On ch=1 n=77 v=80
6240 On ch=1 n=80 v=80
6240 On ch=1 n=72 v=80
6300 On ch=1 n=72 v=0
6300 On ch=1 n=80 v=0
6300 On ch=1 n=77 v=0
6330 On ch=1 n=80 v=80
6330 On ch=1 n=77 v=80
6330 On ch=1 n=72 v=80
6390 On ch=1 n=72 v=0
6390 On ch=1 n=77 v=0
6390 On ch=1 n=80 v=0
6420 On ch=1 n=77 v=80
6420 On ch=1 n=80 v=80
6420 On ch=1 n=72 v=80
6480 On ch=1 n=72 v=0
6480 On ch=1 n=80 v=0
6480 On ch=1 n=77 v=0
6540 On ch=1 n=80 v=80
6540 On ch=1 n=77 v=80
6540 On ch=1 n=72 v=80
6600 On ch=1 n=72 v=0
6600 On ch=1 n=77 v=0
6600 On ch=1 n=80 v=0
6630 On ch=1 n=77 v=80
6630 On ch=1 n=80 v=80
6630 On ch=1 n=72 v=80
6690 On ch=1 n=72 v=0
6690 On ch=1 n=80 v=0
6690 On ch=1 n=77 v=0
6720 On ch=1 n=75 v=80
6720 On ch=1 n=79 v=80
6720 On ch=1 n=70 v=80
6780 On ch=1 n=70 v=0
6780 On ch=1 n=79 v=0
6780 On ch=1 n=75 v=0
6810 On ch=1 n=75 v=80
6810 On ch=1 n=79 v=80
6810 On ch=1 n=70 v=80
6870 On ch=1 n=70 v=0
6870 On ch=1 n=79 v=0
6870 On ch=1 n=75 v=0
6900 On ch=1 n=73 v=80
6900 On ch=1 n=77 v=80
6900 On ch=1 n=68 v=80
6960 On ch=1 n=68 v=0
6960 On ch=1 n=77 v=0
6960 On ch=1 n=73 v=0
7020 On ch=1 n=77 v=80
7020 On ch=1 n=73 v=80
7020 On ch=1 n=68 v=80
7080 On ch=1 n=68 v=0
7080 On ch=1 n=73 v=0
7080 On ch=1 n=77 v=0
7110 On ch=1 n=77 v=80
7110 On ch=1 n=73 v=80
7110 On ch=1 n=68 v=80
7170 On ch=1 n=68 v=0
7170 On ch=1 n=73 v=0
7170 On ch=1 n=77 v=0
7200 On ch=1 n=77 v=80
7200 On ch=1 n=80 v=80
7200 On ch=1 n=72 v=80
7260 On ch=1 n=72 v=0
7260 On ch=1 n=80 v=0
7260 On ch=1 n=77 v=0
7290 On ch=1 n=77 v=80
7290 On ch=1 n=80 v=80
7290 On ch=1 n=72 v=80
7350 On ch=1 n=72 v=0
7350 On ch=1 n=80 v=0
7350 On ch=1 n=77 v=0
7380 On ch=1 n=77 v=80
7380 On ch=1 n=80 v=80
7380 On ch=1 n=72 v=80
7440 On ch=1 n=72 v=0
7440 On ch=1 n=80 v=0
7440 On ch=1 n=77 v=0
7500 On ch=1 n=77 v=80
7500 On ch=1 n=80 v=80
7500 On ch=1 n=72 v=80
7560 On ch=1 n=72 v=0
7560 On ch=1 n=80 v=0
7560 On ch=1 n=77 v=0
7590 On ch=1 n=77 v=80
7590 On ch=1 n=80 v=80
7590 On ch=1 n=72 v=80
7650 On ch=1 n=72 v=0
7650 On ch=1 n=80 v=0
7650 On ch=1 n=77 v=0
7680 On ch=1 n=79 v=80
7680 On ch=1 n=75 v=80
7680 On ch=1 n=70 v=80
7740 On ch=1 n=70 v=0
7740 On ch=1 n=75 v=0
7740 On ch=1 n=79 v=0
7770 On ch=1 n=70 v=80
7770 On ch=1 n=79 v=80
7770 On ch=1 n=75 v=80
7830 On ch=1 n=75 v=0
7830 On ch=1 n=79 v=0
7830 On ch=1 n=70 v=0
7860 On ch=1 n=73 v=80
7860 On ch=1 n=77 v=80
7860 On ch=1 n=80 v=80
7860 On ch=1 n=68 v=80
7920 On ch=1 n=68 v=0
7920 On ch=1 n=73 v=0
7920 On ch=1 n=77 v=0
7920 On ch=1 n=80 v=0
7980 On ch=1 n=68 v=80
7980 On ch=1 n=77 v=80
7980 On ch=1 n=73 v=80
7980 On ch=1 n=80 v=80
8040 On ch=1 n=80 v=0
8040 On ch=1 n=68 v=0
8040 On ch=1 n=77 v=0
8040 On ch=1 n=73 v=0
8070 On ch=1 n=77 v=80
8070 On ch=1 n=68 v=80
8070 On ch=1 n=80 v=80
8070 On ch=1 n=73 v=80
8130 On ch=1 n=73 v=0
8130 On ch=1 n=77 v=0
8130 On ch=1 n=68 v=0
8130 On ch=1 n=80 v=0
8160 On ch=1 n=77 v=80
8160 On ch=1 n=80 v=80
8160 On ch=1 n=72 v=80
8220 On ch=1 n=72 v=0
8220 On ch=1 n=80 v=0
8220 On ch=1 n=77 v=0
8250 On ch=1 n=80 v=80
8250 On ch=1 n=77 v=80
8250 On ch=1 n=72 v=80
8310 On ch=1 n=72 v=0
8310 On ch=1 n=77 v=0
8310 On ch=1 n=80 v=0
8340 On ch=1 n=77 v=80
8340 On ch=1 n=80 v=80
8340 On ch=1 n=72 v=80
8400 On ch=1 n=72 v=0
8400 On ch=1 n=80 v=0
8400 On ch=1 n=77 v=0
8460 On ch=1 n=80 v=80
8460 On ch=1 n=77 v=80
8460 On ch=1 n=72 v=80
8520 On ch=1 n=72 v=0
8520 On ch=1 n=77 v=0
8520 On ch=1 n=80 v=0
8550 On ch=1 n=77 v=80
8550 On ch=1 n=80 v=80
8550 On ch=1 n=72 v=80
8610 On ch=1 n=72 v=0
8610 On ch=1 n=80 v=0
8610 On ch=1 n=77 v=0
8640 On ch=1 n=75 v=80
8640 On ch=1 n=79 v=80
8640 On ch=1 n=70 v=80
8700 On ch=1 n=70 v=0
8700 On ch=1 n=79 v=0
8700 On ch=1 n=75 v=0
8730 On ch=1 n=75 v=80
8730 On ch=1 n=79 v=80
8730 On ch=1 n=70 v=80
8790 On ch=1 n=70 v=0
8790 On ch=1 n=79 v=0
8790 On ch=1 n=75 v=0
8820 On ch=1 n=73 v=80
8820 On ch=1 n=77 v=80
8820 On ch=1 n=68 v=80
8880 On ch=1 n=68 v=0
8880 On ch=1 n=77 v=0
8880 On ch=1 n=73 v=0
8940 On ch=1 n=77 v=80
8940 On ch=1 n=73 v=80
8940 On ch=1 n=68 v=80
9000 On ch=1 n=68 v=0
9000 On ch=1 n=73 v=0
9000 On ch=1 n=77 v=0
9030 On ch=1 n=77 v=80
9030 On ch=1 n=73 v=80
9030 On ch=1 n=68 v=80
9090 On ch=1 n=68 v=0
9090 On ch=1 n=73 v=0
9090 On ch=1 n=77 v=0
9120 On ch=1 n=77 v=80
9120 On ch=1 n=80 v=80
9120 On ch=1 n=72 v=80
9180 On ch=1 n=72 v=0
9180 On ch=1 n=80 v=0
9180 On ch=1 n=77 v=0
9210 On ch=1 n=77 v=80
9210 On ch=1 n=80 v=80
9210 On ch=1 n=72 v=80
9270 On ch=1 n=72 v=0
9270 On ch=1 n=80 v=0
9270 On ch=1 n=77 v=0
9300 On ch=1 n=77 v=80
9300 On ch=1 n=80 v=80
9300 On ch=1 n=72 v=80
9360 On ch=1 n=72 v=0
9360 On ch=1 n=80 v=0
9360 On ch=1 n=77 v=0
9420 On ch=1 n=77 v=80
9420 On ch=1 n=80 v=80
9420 On ch=1 n=72 v=80
9480 On ch=1 n=72 v=0
9480 On ch=1 n=80 v=0
9480 On ch=1 n=77 v=0
9510 On ch=1 n=77 v=80
9510 On ch=1 n=80 v=80
9510 On ch=1 n=72 v=80
9570 On ch=1 n=72 v=0
9570 On ch=1 n=80 v=0
9570 On ch=1 n=77 v=0
9600 On ch=1 n=79 v=80
9600 On ch=1 n=75 v=80
9600 On ch=1 n=70 v=80
9660 On ch=1 n=70 v=0
9660 On ch=1 n=75 v=0
9660 On ch=1 n=79 v=0
9690 On ch=1 n=70 v=80
9690 On ch=1 n=79 v=80
9690 On ch=1 n=75 v=80
9750 On ch=1 n=75 v=0
9750 On ch=1 n=79 v=0
9750 On ch=1 n=70 v=0
9780 On ch=1 n=73 v=80
9780 On ch=1 n=77 v=80
9780 On ch=1 n=80 v=80
9780 On ch=1 n=68 v=80
9840 On ch=1 n=68 v=0
9840 On ch=1 n=73 v=0
9840 On ch=1 n=77 v=0
9840 On ch=1 n=80 v=0
9900 On ch=1 n=68 v=80
9900 On ch=1 n=77 v=80
9900 On ch=1 n=73 v=80
9900 On ch=1 n=80 v=80
9960 On ch=1 n=80 v=0
9960 On ch=1 n=68 v=0
9960 On ch=1 n=77 v=0
9960 On ch=1 n=73 v=0
9990 On ch=1 n=77 v=80
9990 On ch=1 n=68 v=80
9990 On ch=1 n=80 v=80
9990 On ch=1 n=73 v=80
10050 On ch=1 n=73 v=0
10050 On ch=1 n=77 v=0
10050 On ch=1 n=68 v=0
10050 On ch=1 n=80 v=0
10080 On ch=1 n=77 v=80
10080 On ch=1 n=80 v=80
10080 On ch=1 n=72 v=80
10140 On ch=1 n=72 v=0
10140 On ch=1 n=80 v=0
10140 On ch=1 n=77 v=0
10170 On ch=1 n=80 v=80
10170 On ch=1 n=77 v=80
10170 On ch=1 n=72 v=80
10230 On ch=1 n=72 v=0
10230 On ch=1 n=77 v=0
10230 On ch=1 n=80 v=0
10260 On ch=1 n=77 v=80
10260 On ch=1 n=80 v=80
10260 On ch=1 n=72 v=80
10320 On ch=1 n=72 v=0
10320 On ch=1 n=80 v=0
10320 On ch=1 n=77 v=0
10380 On ch=1 n=80 v=80
10380 On ch=1 n=77 v=80
10380 On ch=1 n=72 v=80
10440 On ch=1 n=72 v=0
10440 On ch=1 n=77 v=0
10440 On ch=1 n=80 v=0
10470 On ch=1 n=77 v=80
10470 On ch=1 n=80 v=80
10470 On ch=1 n=72 v=80
10530 On ch=1 n=72 v=0
10530 On ch=1 n=80 v=0
10530 On ch=1 n=77 v=0
10560 On ch=1 n=75 v=80
10560 On ch=1 n=79 v=80
10560 On ch=1 n=70 v=80
10620 On ch=1 n=70 v=0
10620 On ch=1 n=79 v=0
10620 On ch=1 n=75 v=0
10650 On ch=1 n=75 v=80
10650 On ch=1 n=79 v=80
10650 On ch=1 n=70 v=80
10710 On ch=1 n=70 v=0
10710 On ch=1 n=79 v=0
10710 On ch=1 n=75 v=0
10740 On ch=1 n=73 v=80
10740 On ch=1 n=77 v=80
10740 On ch=1 n=68 v=80
10800 On ch=1 n=68 v=0
10800 On ch=1 n=77 v=0
10800 On ch=1 n=73 v=0
10860 On ch=1 n=77 v=80
10860 On ch=1 n=73 v=80
10860 On ch=1 n=68 v=80
10920 On ch=1 n=68 v=0
10920 On ch=1 n=73 v=0
10920 On ch=1 n=77 v=0
10950 On ch=1 n=77 v=80
10950 On ch=1 n=73 v=80
10950 On ch=1 n=68 v=80
11010 On ch=1 n=68 v=0
11010 On ch=1 n=73 v=0
11010 On ch=1 n=77 v=0
11040 On ch=1 n=77 v=80
11040 On ch=1 n=80 v=80
11040 On ch=1 n=72 v=80
11100 On ch=1 n=72 v=0
11100 On ch=1 n=80 v=0
11100 On ch=1 n=77 v=0
11130 On ch=1 n=77 v=80
11130 On ch=1 n=80 v=80
11130 On ch=1 n=72 v=80
11190 On ch=1 n=72 v=0
11190 On ch=1 n=80 v=0
11190 On ch=1 n=77 v=0
11220 On ch=1 n=77 v=80
11220 On ch=1 n=80 v=80
11220 On ch=1 n=72 v=80
11280 On ch=1 n=72 v=0
11280 On ch=1 n=80 v=0
11280 On ch=1 n=77 v=0
11340 On ch=1 n=77 v=80
11340 On ch=1 n=80 v=80
11340 On ch=1 n=72 v=80
11400 On ch=1 n=72 v=0
11400 On ch=1 n=80 v=0
11400 On ch=1 n=77 v=0
12000 On ch=1 n=77 v=80
12000 On ch=1 n=80 v=80
12000 On ch=1 n=72 v=80
12060 On ch=1 n=72 v=0
12060 On ch=1 n=80 v=0
12060 On ch=1 n=77 v=0
12090 On ch=1 n=80 v=80
12090 On ch=1 n=77 v=80
12090 On ch=1 n=72 v=80
12150 On ch=1 n=72 v=0
12150 On ch=1 n=77 v=0
12150 On ch=1 n=80 v=0
12180 On ch=1 n=77 v=80
12180 On ch=1 n=80 v=80
12180 On ch=1 n=72 v=80
12240 On ch=1 n=72 v=0
12240 On ch=1 n=80 v=0
12240 On ch=1 n=77 v=0
12300 On ch=1 n=80 v=80
12300 On ch=1 n=77 v=80
12300 On ch=1 n=72 v=80
12360 On ch=1 n=72 v=0
12360 On ch=1 n=77 v=0
12360 On ch=1 n=80 v=0
12390 On ch=1 n=77 v=80
12390 On ch=1 n=80 v=80
12390 On ch=1 n=72 v=80
12450 On ch=1 n=72 v=0
12450 On ch=1 n=80 v=0
12450 On ch=1 n=77 v=0
12480 On ch=1 n=75 v=80
12480 On ch=1 n=79 v=80
12480 On ch=1 n=70 v=80
12540 On ch=1 n=70 v=0
12540 On ch=1 n=79 v=0
12540 On ch=1 n=75 v=0
12570 On ch=1 n=75 v=80
12570 On ch=1 n=79 v=80
12570 On ch=1 n=70 v=80
12630 On ch=1 n=70 v=0
12630 On ch=1 n=79 v=0
12630 On ch=1 n=75 v=0
12660 On ch=1 n=73 v=80
12660 On ch=1 n=77 v=80
12660 On ch=1 n=68 v=80
12720 On ch=1 n=68 v=0
12720 On ch=1 n=77 v=0
12720 On ch=1 n=73 v=0
12780 On ch=1 n=77 v=80
12780 On ch=1 n=73 v=80
12780 On ch=1 n=68 v=80
12840 On ch=1 n=68 v=0
12840 On ch=1 n=73 v=0
12840 On ch=1 n=77 v=0
12870 On ch=1 n=77 v=80
12870 On ch=1 n=73 v=80
12870 On ch=1 n=68 v=80
12930 On ch=1 n=68 v=0
12930 On ch=1 n=73 v=0
12930 On ch=1 n=77 v=0
12960 On ch=1 n=77 v=80
12960 On ch=1 n=80 v=80
12960 On ch=1 n=72 v=80
13020 On ch=1 n=72 v=0
13020 On ch=1 n=80 v=0
13020 On ch=1 n=77 v=0
13050 On ch=1 n=77 v=80
13050 On ch=1 n=80 v=80
13050 On ch=1 n=72 v=80
13110 On ch=1 n=72 v=0
13110 On ch=1 n=80 v=0
13110 On ch=1 n=77 v=0
13140 On ch=1 n=77 v=80
13140 On ch=1 n=80 v=80
13140 On ch=1 n=72 v=80
13200 On ch=1 n=72 v=0
13200 On ch=1 n=80 v=0
13200 On ch=1 n=77 v=0
13260 On ch=1 n=77 v=80
13260 On ch=1 n=80 v=80
13260 On ch=1 n=72 v=80
13320 On ch=1 n=72 v=0
13320 On ch=1 n=80 v=0
13320 On ch=1 n=77 v=0
13350 On ch=1 n=77 v=80
13350 On ch=1 n=80 v=80
13350 On ch=1 n=72 v=80
13410 On ch=1 n=72 v=0
13410 On ch=1 n=80 v=0
13410 On ch=1 n=77 v=0
13440 On ch=1 n=79 v=80
13440 On ch=1 n=75 v=80
13440 On ch=1 n=70 v=80
13500 On ch=1 n=70 v=0
13500 On ch=1 n=75 v=0
13500 On ch=1 n=79 v=0
13530 On ch=1 n=70 v=80
13530 On ch=1 n=79 v=80
13530 On ch=1 n=75 v=80
13590 On ch=1 n=75 v=0
13590 On ch=1 n=79 v=0
13590 On ch=1 n=70 v=0
13620 On ch=1 n=73 v=80
13620 On ch=1 n=77 v=80
13620 On ch=1 n=80 v=80
13620 On ch=1 n=68 v=80
13680 On ch=1 n=68 v=0
13680 On ch=1 n=73 v=0
13680 On ch=1 n=77 v=0
13680 On ch=1 n=80 v=0
13740 On ch=1 n=68 v=80
13740 On ch=1 n=77 v=80
13740 On ch=1 n=73 v=80
13740 On ch=1 n=80 v=80
13800 On ch=1 n=80 v=0
13800 On ch=1 n=68 v=0
13800 On ch=1 n=77 v=0
13800 On ch=1 n=73 v=0
13830 On ch=1 n=77 v=80
13830 On ch=1 n=68 v=80
13830 On ch=1 n=80 v=80
13830 On ch=1 n=73 v=80
13890 On ch=1 n=73 v=0
13890 On ch=1 n=77 v=0
13890 On ch=1 n=68 v=0
13890 On ch=1 n=80 v=0
13920 On ch=1 n=77 v=80
13920 On ch=1 n=80 v=80
13920 On ch=1 n=72 v=80
13980 On ch=1 n=72 v=0
13980 On ch=1 n=80 v=0
13980 On ch=1 n=77 v=0
14010 On ch=1 n=80 v=80
14010 On ch=1 n=77 v=80
14010 On ch=1 n=72 v=80
14070 On ch=1 n=72 v=0
14070 On ch=1 n=77 v=0
14070 On ch=1 n=80 v=0
14100 On ch=1 n=77 v=80
14100 On ch=1 n=80 v=80
14100 On ch=1 n=72 v=80
14160 On ch=1 n=72 v=0
14160 On ch=1 n=80 v=0
14160 On ch=1 n=77 v=0
14220 On ch=1 n=80 v=80
14220 On ch=1 n=77 v=80
14220 On ch=1 n=72 v=80
14280 On ch=1 n=72 v=0
14280 On ch=1 n=77 v=0
14280 On ch=1 n=80 v=0
14310 On ch=1 n=77 v=80
14310 On ch=1 n=80 v=80
14310 On ch=1 n=72 v=80
14370 On ch=1 n=72 v=0
14370 On ch=1 n=80 v=0
14370 On ch=1 n=77 v=0
14400 On ch=1 n=75 v=80
14400 On ch=1 n=79 v=80
14400 On ch=1 n=70 v=80
14460 On ch=1 n=70 v=0
14460 On ch=1 n=79 v=0
14460 On ch=1 n=75 v=0
14490 On ch=1 n=75 v=80
14490 On ch=1 n=79 v=80
14490 On ch=1 n=70 v=80
14550 On ch=1 n=70 v=0
14550 On ch=1 n=79 v=0
14550 On ch=1 n=75 v=0
14580 On ch=1 n=73 v=80
14580 On ch=1 n=77 v=80
14580 On ch=1 n=68 v=80
14640 On ch=1 n=68 v=0
14640 On ch=1 n=77 v=0
14640 On ch=1 n=73 v=0
14700 On ch=1 n=77 v=80
14700 On ch=1 n=73 v=80
14700 On ch=1 n=68 v=80
14760 On ch=1 n=68 v=0
14760 On ch=1 n=73 v=0
14760 On ch=1 n=77 v=0
14790 On ch=1 n=77 v=80
14790 On ch=1 n=73 v=80
14790 On ch=1 n=68 v=80
14850 On ch=1 n=68 v=0
14850 On ch=1 n=73 v=0
14850 On ch=1 n=77 v=0
14880 On ch=1 n=77 v=80
14880 On ch=1 n=80 v=80
14880 On ch=1 n=72 v=80
14940 On ch=1 n=72 v=0
14940 On ch=1 n=80 v=0
14940 On ch=1 n=77 v=0
14970 On ch=1 n=77 v=80
14970 On ch=1 n=80 v=80
14970 On ch=1 n=72 v=80
15030 On ch=1 n=72 v=0
15030 On ch=1 n=80 v=0
15030 On ch=1 n=77 v=0
15060 On ch=1 n=77 v=80
15060 On ch=1 n=80 v=80
15060 On ch=1 n=72 v=80
15120 On ch=1 n=72 v=0
15120 On ch=1 n=80 v=0
15120 On ch=1 n=77 v=0
15180 On ch=1 n=77 v=80
15180 On ch=1 n=80 v=80
15180 On ch=1 n=72 v=80
15240 On ch=1 n=72 v=0
15240 On ch=1 n=80 v=0
15240 On ch=1 n=77 v=0
19200 On ch=1 n=79 v=80
19200 On ch=1 n=75 v=80
19200 On ch=1 n=70 v=80
19260 On ch=1 n=70 v=0
19260 On ch=1 n=75 v=0
19260 On ch=1 n=79 v=0
19290 On ch=1 n=70 v=80
19290 On ch=1 n=79 v=80
19290 On ch=1 n=75 v=80
19350 On ch=1 n=75 v=0
19350 On ch=1 n=79 v=0
19350 On ch=1 n=70 v=0
19380 On ch=1 n=73 v=80
19380 On ch=1 n=77 v=80
19380 On ch=1 n=80 v=80
19380 On ch=1 n=68 v=80
19440 On ch=1 n=68 v=0
19440 On ch=1 n=73 v=0
19440 On ch=1 n=77 v=0
19440 On ch=1 n=80 v=0
19500 On ch=1 n=68 v=80
19500 On ch=1 n=77 v=80
19500 On ch=1 n=73 v=80
19500 On ch=1 n=80 v=80
19560 On ch=1 n=80 v=0
19560 On ch=1 n=68 v=0
19560 On ch=1 n=77 v=0
19560 On ch=1 n=73 v=0
19590 On ch=1 n=77 v=80
19590 On ch=1 n=68 v=80
19590 On ch=1 n=80 v=80
19590 On ch=1 n=73 v=80
19650 On ch=1 n=73 v=0
19650 On ch=1 n=77 v=0
19650 On ch=1 n=68 v=0
19650 On ch=1 n=80 v=0
25440 On ch=1 n=77 v=80
25440 On ch=1 n=80 v=80
25440 On ch=1 n=72 v=80
25500 On ch=1 n=72 v=0
25500 On ch=1 n=80 v=0
25500 On ch=1 n=77 v=0
25530 On ch=1 n=80 v=80
25530 On ch=1 n=77 v=80
25530 On ch=1 n=72 v=80
25590 On ch=1 n=72 v=0
25590 On ch=1 n=77 v=0
25590 On ch=1 n=80 v=0
25620 On ch=1 n=77 v=80
25620 On ch=1 n=80 v=80
25620 On ch=1 n=72 v=80
25680 On ch=1 n=72 v=0
25680 On ch=1 n=80 v=0
25680 On ch=1 n=77 v=0
25740 On ch=1 n=80 v=80
25740 On ch=1 n=77 v=80
25740 On ch=1 n=72 v=80
25800 On ch=1 n=72 v=0
25800 On ch=1 n=77 v=0
25800 On ch=1 n=80 v=0
25830 On ch=1 n=77 v=80
25830 On ch=1 n=80 v=80
25830 On ch=1 n=72 v=80
25890 On ch=1 n=72 v=0
25890 On ch=1 n=80 v=0
25890 On ch=1 n=77 v=0
25920 On ch=1 n=75 v=80
25920 On ch=1 n=79 v=80
25920 On ch=1 n=70 v=80
25980 On ch=1 n=70 v=0
25980 On ch=1 n=79 v=0
25980 On ch=1 n=75 v=0
26010 On ch=1 n=75 v=80
26010 On ch=1 n=79 v=80
26010 On ch=1 n=70 v=80
26070 On ch=1 n=70 v=0
26070 On ch=1 n=79 v=0
26070 On ch=1 n=75 v=0
26100 On ch=1 n=73 v=80
26100 On ch=1 n=77 v=80
26100 On ch=1 n=68 v=80
26160 On ch=1 n=68 v=0
26160 On ch=1 n=77 v=0
26160 On ch=1 n=73 v=0
26220 On ch=1 n=77 v=80
26220 On ch=1 n=73 v=80
26220 On ch=1 n=68 v=80
26280 On ch=1 n=68 v=0
26280 On ch=1 n=73 v=0
26280 On ch=1 n=77 v=0
26310 On ch=1 n=77 v=80
26310 On ch=1 n=73 v=80
26310 On ch=1 n=68 v=80
26370 On ch=1 n=68 v=0
26370 On ch=1 n=73 v=0
26370 On ch=1 n=77 v=0
26400 On ch=1 n=77 v=80
26400 On ch=1 n=80 v=80
26400 On ch=1 n=72 v=80
26460 On ch=1 n=72 v=0
26460 On ch=1 n=80 v=0
26460 On ch=1 n=77 v=0
26490 On ch=1 n=77 v=80
26490 On ch=1 n=80 v=80
26490 On ch=1 n=72 v=80
26550 On ch=1 n=72 v=0
26550 On ch=1 n=80 v=0
26550 On ch=1 n=77 v=0
26580 On ch=1 n=77 v=80
26580 On ch=1 n=80 v=80
26580 On ch=1 n=72 v=80
26640 On ch=1 n=72 v=0
26640 On ch=1 n=80 v=0
26640 On ch=1 n=77 v=0
26700 On ch=1 n=77 v=80
26700 On ch=1 n=80 v=80
26700 On ch=1 n=72 v=80
26760 On ch=1 n=72 v=0
26760 On ch=1 n=80 v=0
26760 On ch=1 n=77 v=0
26790 On ch=1 n=77 v=80
26790 On ch=1 n=80 v=80
26790 On ch=1 n=72 v=80
26850 On ch=1 n=72 v=0
26850 On ch=1 n=80 v=0
26850 On ch=1 n=77 v=0
27360 On ch=1 n=77 v=80
27360 On ch=1 n=80 v=80
27360 On ch=1 n=72 v=80
27420 On ch=1 n=72 v=0
27420 On ch=1 n=80 v=0
27420 On ch=1 n=77 v=0
27450 On ch=1 n=80 v=80
27450 On ch=1 n=77 v=80
27450 On ch=1 n=72 v=80
27510 On ch=1 n=72 v=0
27510 On ch=1 n=77 v=0
27510 On ch=1 n=80 v=0
27540 On ch=1 n=77 v=80
27540 On ch=1 n=80 v=80
27540 On ch=1 n=72 v=80
27600 On ch=1 n=72 v=0
27600 On ch=1 n=80 v=0
27600 On ch=1 n=77 v=0
27660 On ch=1 n=80 v=80
27660 On ch=1 n=77 v=80
27660 On ch=1 n=72 v=80
27720 On ch=1 n=72 v=0
27720 On ch=1 n=77 v=0
27720 On ch=1 n=80 v=0
27750 On ch=1 n=77 v=80
27750 On ch=1 n=80 v=80
27750 On ch=1 n=72 v=80
27810 On ch=1 n=72 v=0
27810 On ch=1 n=80 v=0
27810 On ch=1 n=77 v=0
27840 On ch=1 n=75 v=80
27840 On ch=1 n=79 v=80
27840 On ch=1 n=70 v=80
27900 On ch=1 n=70 v=0
27900 On ch=1 n=79 v=0
27900 On ch=1 n=75 v=0
27930 On ch=1 n=75 v=80
27930 On ch=1 n=79 v=80
27930 On ch=1 n=70 v=80
27990 On ch=1 n=70 v=0
27990 On ch=1 n=79 v=0
27990 On ch=1 n=75 v=0
28020 On ch=1 n=73 v=80
28020 On ch=1 n=77 v=80
28020 On ch=1 n=68 v=80
28080 On ch=1 n=68 v=0
28080 On ch=1 n=77 v=0
28080 On ch=1 n=73 v=0
28140 On ch=1 n=77 v=80
28140 On ch=1 n=73 v=80
28140 On ch=1 n=68 v=80
28200 On ch=1 n=68 v=0
28200 On ch=1 n=73 v=0
28200 On ch=1 n=77 v=0
28230 On ch=1 n=77 v=80
28230 On ch=1 n=73 v=80
28230 On ch=1 n=68 v=80
28290 On ch=1 n=68 v=0
28290 On ch=1 n=73 v=0
28290 On ch=1 n=77 v=0
28320 On ch=1 n=77 v=80
28320 On ch=1 n=80 v=80
28320 On ch=1 n=72 v=80
28380 On ch=1 n=72 v=0
28380 On ch=1 n=80 v=0
28380 On ch=1 n=77 v=0
28410 On ch=1 n=77 v=80
28410 On ch=1 n=80 v=80
28410 On ch=1 n=72 v=80
28470 On ch=1 n=72 v=0
28470 On ch=1 n=80 v=0
28470 On ch=1 n=77 v=0
28500 On ch=1 n=77 v=80
28500 On ch=1 n=80 v=80
28500 On ch=1 n=72 v=80
28560 On ch=1 n=72 v=0
28560 On ch=1 n=80 v=0
28560 On ch=1 n=77 v=0
28620 On ch=1 n=77 v=80
28620 On ch=1 n=80 v=80
28620 On ch=1 n=72 v=80
28680 On ch=1 n=72 v=0
28680 On ch=1 n=80 v=0
28680 On ch=1 n=77 v=0
28710 On ch=1 n=77 v=80
28710 On ch=1 n=80 v=80
28710 On ch=1 n=72 v=80
28770 On ch=1 n=72 v=0
28770 On ch=1 n=80 v=0
28770 On ch=1 n=77 v=0
28800 On ch=1 n=79 v=80
28800 On ch=1 n=75 v=80
28800 On ch=1 n=70 v=80
28860 On ch=1 n=70 v=0
28860 On ch=1 n=75 v=0
28860 On ch=1 n=79 v=0
28890 On ch=1 n=70 v=80
28890 On ch=1 n=79 v=80
28890 On ch=1 n=75 v=80
28950 On ch=1 n=75 v=0
28950 On ch=1 n=79 v=0
28950 On ch=1 n=70 v=0
28980 On ch=1 n=73 v=80
28980 On ch=1 n=77 v=80
28980 On ch=1 n=80 v=80
28980 On ch=1 n=68 v=80
29040 On ch=1 n=68 v=0
29040 On ch=1 n=73 v=0
29040 On ch=1 n=77 v=0
29040 On ch=1 n=80 v=0
29100 On ch=1 n=68 v=80
29100 On ch=1 n=77 v=80
29100 On ch=1 n=73 v=80
29100 On ch=1 n=80 v=80
29160 On ch=1 n=80 v=0
29160 On ch=1 n=68 v=0
29160 On ch=1 n=77 v=0
29160 On ch=1 n=73 v=0
29190 On ch=1 n=77 v=80
29190 On ch=1 n=68 v=80
29190 On ch=1 n=80 v=80
29190 On ch=1 n=73 v=80
29250 On ch=1 n=73 v=0
29250 On ch=1 n=77 v=0
29250 On ch=1 n=68 v=0
29250 On ch=1 n=80 v=0
29280 On ch=1 n=77 v=80
29280 On ch=1 n=80 v=80
29280 On ch=1 n=72 v=80
29340 On ch=1 n=72 v=0
29340 On ch=1 n=80 v=0
29340 On ch=1 n=77 v=0
29370 On ch=1 n=80 v=80
29370 On ch=1 n=77 v=80
29370 On ch=1 n=72 v=80
29430 On ch=1 n=72 v=0
29430 On ch=1 n=77 v=0
29430 On ch=1 n=80 v=0
29460 On ch=1 n=77 v=80
29460 On ch=1 n=80 v=80
29460 On ch=1 n=72 v=80
29520 On ch=1 n=72 v=0
29520 On ch=1 n=80 v=0
29520 On ch=1 n=77 v=0
29580 On ch=1 n=80 v=80
29580 On ch=1 n=77 v=80
29580 On ch=1 n=72 v=80
29640 On ch=1 n=72 v=0
29640 On ch=1 n=77 v=0
29640 On ch=1 n=80 v=0
29670 On ch=1 n=77 v=80
29670 On ch=1 n=80 v=80
29670 On ch=1 n=72 v=80
29730 On ch=1 n=72 v=0
29730 On ch=1 n=80 v=0
29730 On ch=1 n=77 v=0
29760 On ch=1 n=75 v=80
29760 On ch=1 n=79 v=80
29760 On ch=1 n=70 v=80
29820 On ch=1 n=70 v=0
29820 On ch=1 n=79 v=0
29820 On ch=1 n=75 v=0
29850 On ch=1 n=75 v=80
29850 On ch=1 n=79 v=80
29850 On ch=1 n=70 v=80
29910 On ch=1 n=70 v=0
29910 On ch=1 n=79 v=0
29910 On ch=1 n=75 v=0
29940 On ch=1 n=73 v=80
29940 On ch=1 n=77 v=80
29940 On ch=1 n=68 v=80
30000 On ch=1 n=68 v=0
30000 On ch=1 n=77 v=0
30000 On ch=1 n=73 v=0
30060 On ch=1 n=77 v=80
30060 On ch=1 n=73 v=80
30060 On ch=1 n=68 v=80
30120 On ch=1 n=68 v=0
30120 On ch=1 n=73 v=0
30120 On ch=1 n=77 v=0
30150 On ch=1 n=77 v=80
30150 On ch=1 n=73 v=80
30150 On ch=1 n=68 v=80
30210 On ch=1 n=68 v=0
30210 On ch=1 n=73 v=0
30210 On ch=1 n=77 v=0
30240 On ch=1 n=77 v=80
30240 On ch=1 n=80 v=80
30240 On ch=1 n=72 v=80
30300 On ch=1 n=72 v=0
30300 On ch=1 n=80 v=0
30300 On ch=1 n=77 v=0
30330 On ch=1 n=77 v=80
30330 On ch=1 n=80 v=80
30330 On ch=1 n=72 v=80
30390 On ch=1 n=72 v=0
30390 On ch=1 n=80 v=0
30390 On ch=1 n=77 v=0
30420 On ch=1 n=77 v=80
30420 On ch=1 n=80 v=80
30420 On ch=1 n=72 v=80
30480 On ch=1 n=72 v=0
30480 On ch=1 n=80 v=0
30480 On ch=1 n=77 v=0
30540 On ch=1 n=77 v=80
30540 On ch=1 n=80 v=80
30540 On ch=1 n=72 v=80
30600 On ch=1 n=72 v=0
30600 On ch=1 n=80 v=0
30600 On ch=1 n=77 v=0
30630 On ch=1 n=77 v=80
30630 On ch=1 n=80 v=80
30630 On ch=1 n=72 v=80
30690 On ch=1 n=72 v=0
30690 On ch=1 n=80 v=0
30690 On ch=1 n=77 v=0
30720 On ch=1 n=79 v=80
30720 On ch=1 n=75 v=80
30720 On ch=1 n=70 v=80
30780 On ch=1 n=70 v=0
30780 On ch=1 n=75 v=0
30780 On ch=1 n=79 v=0
30810 On ch=1 n=70 v=80
30810 On ch=1 n=79 v=80
30810 On ch=1 n=75 v=80
30870 On ch=1 n=75 v=0
30870 On ch=1 n=79 v=0
30870 On ch=1 n=70 v=0
30900 On ch=1 n=73 v=80
30900 On ch=1 n=77 v=80
30900 On ch=1 n=80 v=80
30900 On ch=1 n=68 v=80
30960 On ch=1 n=68 v=0
30960 On ch=1 n=73 v=0
30960 On ch=1 n=77 v=0
30960 On ch=1 n=80 v=0
31020 On ch=1 n=68 v=80
31020 On ch=1 n=77 v=80
31020 On ch=1 n=73 v=80
31020 On ch=1 n=80 v=80
31080 On ch=1 n=80 v=0
31080 On ch=1 n=68 v=0
31080 On ch=1 n=77 v=0
31080 On ch=1 n=73 v=0
31110 On ch=1 n=77 v=80
31110 On ch=1 n=68 v=80
31110 On ch=1 n=80 v=80
31110 On ch=1 n=73 v=80
31170 On ch=1 n=73 v=0
31170 On ch=1 n=77 v=0
31170 On ch=1 n=68 v=0
31170 On ch=1 n=80 v=0
31200 On ch=1 n=77 v=80
31200 On ch=1 n=80 v=80
31200 On ch=1 n=72 v=80
31260 On ch=1 n=72 v=0
31260 On ch=1 n=80 v=0
31260 On ch=1 n=77 v=0
31290 On ch=1 n=80 v=80
31290 On ch=1 n=77 v=80
31290 On ch=1 n=72 v=80
31350 On ch=1 n=72 v=0
31350 On ch=1 n=77 v=0
31350 On ch=1 n=80 v=0
31380 On ch=1 n=77 v=80
31380 On ch=1 n=80 v=80
31380 On ch=1 n=72 v=80
31440 On ch=1 n=72 v=0
31440 On ch=1 n=80 v=0
31440 On ch=1 n=77 v=0
31500 On ch=1 n=80 v=80
31500 On ch=1 n=77 v=80
31500 On ch=1 n=72 v=80
31560 On ch=1 n=72 v=0
31560 On ch=1 n=77 v=0
31560 On ch=1 n=80 v=0
31590 On ch=1 n=77 v=80
31590 On ch=1 n=80 v=80
31590 On ch=1 n=72 v=80
31650 On ch=1 n=72 v=0
31650 On ch=1 n=80 v=0
31650 On ch=1 n=77 v=0
31680 On ch=1 n=75 v=80
31680 On ch=1 n=79 v=80
31680 On ch=1 n=70 v=80
31740 On ch=1 n=70 v=0
31740 On ch=1 n=79 v=0
31740 On ch=1 n=75 v=0
31770 On ch=1 n=75 v=80
31770 On ch=1 n=79 v=80
31770 On ch=1 n=70 v=80
31830 On ch=1 n=70 v=0
31830 On ch=1 n=79 v=0
31830 On ch=1 n=75 v=0
31860 On ch=1 n=73 v=80
31860 On ch=1 n=77 v=80
31860 On ch=1 n=68 v=80
31920 On ch=1 n=68 v=0
31920 On ch=1 n=77 v=0
31920 On ch=1 n=73 v=0
31980 On ch=1 n=77 v=80
31980 On ch=1 n=73 v=80
31980 On ch=1 n=68 v=80
32040 On ch=1 n=68 v=0
32040 On ch=1 n=73 v=0
32040 On ch=1 n=77 v=0
32070 On ch=1 n=77 v=80
32070 On ch=1 n=73 v=80
32070 On ch=1 n=68 v=80
32130 On ch=1 n=68 v=0
32130 On ch=1 n=73 v=0
32130 On ch=1 n=77 v=0
32160 On ch=1 n=77 v=80
32160 On ch=1 n=80 v=80
32160 On ch=1 n=72 v=80
32220 On ch=1 n=72 v=0
32220 On ch=1 n=80 v=0
32220 On ch=1 n=77 v=0
32250 On ch=1 n=77 v=80
32250 On ch=1 n=80 v=80
32250 On ch=1 n=72 v=80
32310 On ch=1 n=72 v=0
32310 On ch=1 n=80 v=0
32310 On ch=1 n=77 v=0
32340 On ch=1 n=77 v=80
32340 On ch=1 n=80 v=80
32340 On ch=1 n=72 v=80
32400 On ch=1 n=72 v=0
32400 On ch=1 n=80 v=0
32400 On ch=1 n=77 v=0
32460 On ch=1 n=77 v=80
32460 On ch=1 n=80 v=80
32460 On ch=1 n=72 v=80
32520 On ch=1 n=72 v=0
32520 On ch=1 n=80 v=0
32520 On ch=1 n=77 v=0
32550 On ch=1 n=77 v=80
32550 On ch=1 n=80 v=80
32550 On ch=1 n=72 v=80
32610 On ch=1 n=72 v=0
32610 On ch=1 n=80 v=0
32610 On ch=1 n=77 v=0
32640 On ch=1 n=79 v=80
32640 On ch=1 n=75 v=80
32640 On ch=1 n=70 v=80
32700 On ch=1 n=70 v=0
32700 On ch=1 n=75 v=0
32700 On ch=1 n=79 v=0
32730 On ch=1 n=70 v=80
32730 On ch=1 n=79 v=80
32730 On ch=1 n=75 v=80
32790 On ch=1 n=75 v=0
32790 On ch=1 n=79 v=0
32790 On ch=1 n=70 v=0
32820 On ch=1 n=73 v=80
32820 On ch=1 n=77 v=80
32820 On ch=1 n=80 v=80
32820 On ch=1 n=68 v=80
32880 On ch=1 n=68 v=0
32880 On ch=1 n=73 v=0
32880 On ch=1 n=77 v=0
32880 On ch=1 n=80 v=0
32940 On ch=1 n=68 v=80
32940 On ch=1 n=77 v=80
32940 On ch=1 n=73 v=80
32940 On ch=1 n=80 v=80
33000 On ch=1 n=80 v=0
33000 On ch=1 n=68 v=0
33000 On ch=1 n=77 v=0
33000 On ch=1 n=73 v=0
33030 On ch=1 n=77 v=80
33030 On ch=1 n=68 v=80
33030 On ch=1 n=80 v=80
33030 On ch=1 n=73 v=80
33090 On ch=1 n=73 v=0
33090 On ch=1 n=77 v=0
33090 On ch=1 n=68 v=0
33090 On ch=1 n=80 v=0
33120 On ch=1 n=77 v=80
33120 On ch=1 n=80 v=80
33120 On ch=1 n=72 v=80
33180 On ch=1 n=72 v=0
33180 On ch=1 n=80 v=0
33180 On ch=1 n=77 v=0
33210 On ch=1 n=80 v=80
33210 On ch=1 n=77 v=80
33210 On ch=1 n=72 v=80
33270 On ch=1 n=72 v=0
33270 On ch=1 n=77 v=0
33270 On ch=1 n=80 v=0
33300 On ch=1 n=77 v=80
33300 On ch=1 n=80 v=80
33300 On ch=1 n=72 v=80
33360 On ch=1 n=72 v=0
33360 On ch=1 n=80 v=0
33360 On ch=1 n=77 v=0
33420 On ch=1 n=80 v=80
33420 On ch=1 n=77 v=80
33420 On ch=1 n=72 v=80
33480 On ch=1 n=72 v=0
33480 On ch=1 n=77 v=0
33480 On ch=1 n=80 v=0
33510 On ch=1 n=77 v=80
33510 On ch=1 n=80 v=80
33510 On ch=1 n=72 v=80
33570 On ch=1 n=72 v=0
33570 On ch=1 n=80 v=0
33570 On ch=1 n=77 v=0
33600 On ch=1 n=75 v=80
33600 On ch=1 n=79 v=80
33600 On ch=1 n=70 v=80
33660 On ch=1 n=70 v=0
33660 On ch=1 n=79 v=0
33660 On ch=1 n=75 v=0
33690 On ch=1 n=75 v=80
33690 On ch=1 n=79 v=80
33690 On ch=1 n=70 v=80
33750 On ch=1 n=70 v=0
33750 On ch=1 n=79 v=0
33750 On ch=1 n=75 v=0
33780 On ch=1 n=73 v=80
33780 On ch=1 n=77 v=80
33780 On ch=1 n=68 v=80
33840 On ch=1 n=68 v=0
33840 On ch=1 n=77 v=0
33840 On ch=1 n=73 v=0
33900 On ch=1 n=77 v=80
33900 On ch=1 n=73 v=80
33900 On ch=1 n=68 v=80
33960 On ch=1 n=68 v=0
33960 On ch=1 n=73 v=0
33960 On ch=1 n=77 v=0
33990 On ch=1 n=77 v=80
33990 On ch=1 n=73 v=80
33990 On ch=1 n=68 v=80
34050 On ch=1 n=68 v=0
34050 On ch=1 n=73 v=0
34050 On ch=1 n=77 v=0
34080 On ch=1 n=77 v=80
34080 On ch=1 n=80 v=80
34080 On ch=1 n=72 v=80
34140 On ch=1 n=72 v=0
34140 On ch=1 n=80 v=0
34140 On ch=1 n=77 v=0
34170 On ch=1 n=77 v=80
34170 On ch=1 n=80 v=80
34170 On ch=1 n=72 v=80
34230 On ch=1 n=72 v=0
34230 On ch=1 n=80 v=0
34230 On ch=1 n=77 v=0
34260 On ch=1 n=77 v=80
34260 On ch=1 n=80 v=80
34260 On ch=1 n=72 v=80
34320 On ch=1 n=72 v=0
34320 On ch=1 n=80 v=0
34320 On ch=1 n=77 v=0
34380 On ch=1 n=77 v=80
34380 On ch=1 n=80 v=80
34380 On ch=1 n=72 v=80
34440 On ch=1 n=72 v=0
34440 On ch=1 n=80 v=0
34440 On ch=1 n=77 v=0
34470 On ch=1 n=77 v=80
34470 On ch=1 n=80 v=80
34470 On ch=1 n=72 v=80
34530 On ch=1 n=72 v=0
34530 On ch=1 n=80 v=0
34530 On ch=1 n=77 v=0
34560 On ch=1 n=79 v=80
34560 On ch=1 n=75 v=80
34560 On ch=1 n=70 v=80
34620 On ch=1 n=70 v=0
34620 On ch=1 n=75 v=0
34620 On ch=1 n=79 v=0
34650 On ch=1 n=70 v=80
34650 On ch=1 n=79 v=80
34650 On ch=1 n=75 v=80
34710 On ch=1 n=75 v=0
34710 On ch=1 n=79 v=0
34710 On ch=1 n=70 v=0
34740 On ch=1 n=73 v=80
34740 On ch=1 n=77 v=80
34740 On ch=1 n=80 v=80
34740 On ch=1 n=68 v=80
34800 On ch=1 n=68 v=0
34800 On ch=1 n=73 v=0
34800 On ch=1 n=77 v=0
34800 On ch=1 n=80 v=0
42720 On ch=1 n=77 v=70
42720 On ch=1 n=80 v=70
42720 On ch=1 n=72 v=70
42780 On ch=1 n=72 v=0
42780 On ch=1 n=80 v=0
42780 On ch=1 n=77 v=0
42810 On ch=1 n=80 v=73
42810 On ch=1 n=77 v=73
42810 On ch=1 n=72 v=73
42870 On ch=1 n=72 v=0
42870 On ch=1 n=77 v=0
42870 On ch=1 n=80 v=0
42900 On ch=1 n=80 v=77
42900 On ch=1 n=77 v=77
42900 On ch=1 n=72 v=77
42960 On ch=1 n=72 v=0
42960 On ch=1 n=77 v=0
42960 On ch=1 n=80 v=0
43020 On ch=1 n=77 v=83
43020 On ch=1 n=80 v=83
43020 On ch=1 n=72 v=83
43080 On ch=1 n=72 v=0
43080 On ch=1 n=80 v=0
43080 On ch=1 n=77 v=0
43110 On ch=1 n=80 v=87
43110 On ch=1 n=77 v=87
43110 On ch=1 n=72 v=87
43170 On ch=1 n=72 v=0
43170 On ch=1 n=77 v=0
43170 On ch=1 n=80 v=0
43200 On ch=1 n=75 v=91
43200 On ch=1 n=79 v=91
43200 On ch=1 n=70 v=91
43260 On ch=1 n=70 v=0
43260 On ch=1 n=79 v=0
43260 On ch=1 n=75 v=0
43290 On ch=1 n=75 v=95
43290 On ch=1 n=79 v=95
43290 On ch=1 n=70 v=95
43350 On ch=1 n=70 v=0
43350 On ch=1 n=79 v=0
43350 On ch=1 n=75 v=0
43380 On ch=1 n=77 v=98
43380 On ch=1 n=73 v=98
43380 On ch=1 n=68 v=98
43440 On ch=1 n=68 v=0
43440 On ch=1 n=73 v=0
43440 On ch=1 n=77 v=0
43500 On ch=1 n=77 v=104
43500 On ch=1 n=68 v=104
43500 On ch=1 n=73 v=104
43560 On ch=1 n=73 v=0
43560 On ch=1 n=68 v=0
43560 On ch=1 n=77 v=0
43590 On ch=1 n=68 v=108
43590 On ch=1 n=73 v=108
43590 On ch=1 n=77 v=108
43650 On ch=1 n=77 v=0
43650 On ch=1 n=73 v=0
43650 On ch=1 n=68 v=0
43680 On ch=1 n=77 v=80
43680 On ch=1 n=80 v=80
43680 On ch=1 n=72 v=80
43740 On ch=1 n=72 v=0
43740 On ch=1 n=80 v=0
43740 On ch=1 n=77 v=0
43770 On ch=1 n=80 v=80
43770 On ch=1 n=77 v=80
43770 On ch=1 n=72 v=80
43830 On ch=1 n=72 v=0
43830 On ch=1 n=77 v=0
43830 On ch=1 n=80 v=0
43860 On ch=1 n=77 v=80
43860 On ch=1 n=80 v=80
43860 On ch=1 n=72 v=80
43920 On ch=1 n=72 v=0
43920 On ch=1 n=80 v=0
43920 On ch=1 n=77 v=0
43980 On ch=1 n=80 v=80
43980 On ch=1 n=77 v=80
43980 On ch=1 n=72 v=80
44040 On ch=1 n=72 v=0
44040 On ch=1 n=77 v=0
44040 On ch=1 n=80 v=0
44070 On ch=1 n=77 v=80
44070 On ch=1 n=80 v=80
44070 On ch=1 n=72 v=80
44130 On ch=1 n=72 v=0
44130 On ch=1 n=80 v=0
44130 On ch=1 n=77 v=0
44160 On ch=1 n=75 v=80
44160 On ch=1 n=79 v=80
44160 On ch=1 n=70 v=80
44220 On ch=1 n=70 v=0
44220 On ch=1 n=79 v=0
44220 On ch=1 n=75 v=0
44250 On ch=1 n=75 v=80
44250 On ch=1 n=79 v=80
44250 On ch=1 n=70 v=80
44310 On ch=1 n=70 v=0
44310 On ch=1 n=79 v=0
44310 On ch=1 n=75 v=0
44340 On ch=1 n=73 v=80
44340 On ch=1 n=77 v=80
44340 On ch=1 n=68 v=80
44400 On ch=1 n=68 v=0
44400 On ch=1 n=77 v=0
44400 On ch=1 n=73 v=0
44460 On ch=1 n=77 v=80
44460 On ch=1 n=73 v=80
44460 On ch=1 n=68 v=80
44520 On ch=1 n=68 v=0
44520 On ch=1 n=73 v=0
44520 On ch=1 n=77 v=0
44550 On ch=1 n=77 v=80
44550 On ch=1 n=73 v=80
44550 On ch=1 n=68 v=80
44610 On ch=1 n=68 v=0
44610 On ch=1 n=73 v=0
44610 On ch=1 n=77 v=0
44640 On ch=1 n=77 v=80
44640 On ch=1 n=80 v=80
44640 On ch=1 n=72 v=80
44700 On ch=1 n=72 v=0
44700 On ch=1 n=80 v=0
44700 On ch=1 n=77 v=0
44730 On ch=1 n=77 v=80
44730 On ch=1 n=80 v=80
44730 On ch=1 n=72 v=80
44790 On ch=1 n=72 v=0
44790 On ch=1 n=80 v=0
44790 On ch=1 n=77 v=0
44820 On ch=1 n=77 v=80
44820 On ch=1 n=80 v=80
44820 On ch=1 n=72 v=80
44880 On ch=1 n=72 v=0
44880 On ch=1 n=80 v=0
44880 On ch=1 n=77 v=0
44940 On ch=1 n=77 v=80
44940 On ch=1 n=80 v=80
44940 On ch=1 n=72 v=80
45000 On ch=1 n=72 v=0
45000 On ch=1 n=80 v=0
45000 On ch=1 n=77 v=0
45030 On ch=1 n=77 v=80
45030 On ch=1 n=80 v=80
45030 On ch=1 n=72 v=80
45090 On ch=1 n=72 v=0
45090 On ch=1 n=80 v=0
45090 On ch=1 n=77 v=0
45120 On ch=1 n=79 v=80
45120 On ch=1 n=75 v=80
45120 On ch=1 n=70 v=80
45180 On ch=1 n=70 v=0
45180 On ch=1 n=75 v=0
45180 On ch=1 n=79 v=0
45210 On ch=1 n=70 v=80
45210 On ch=1 n=79 v=80
45210 On ch=1 n=75 v=80
45270 On ch=1 n=75 v=0
45270 On ch=1 n=79 v=0
45270 On ch=1 n=70 v=0
45300 On ch=1 n=73 v=80
45300 On ch=1 n=77 v=80
45300 On ch=1 n=80 v=80
45300 On ch=1 n=68 v=80
45360 On ch=1 n=68 v=0
45360 On ch=1 n=73 v=0
45360 On ch=1 n=77 v=0
45360 On ch=1 n=80 v=0
45420 On ch=1 n=68 v=80
45420 On ch=1 n=77 v=80
45420 On ch=1 n=73 v=80
45420 On ch=1 n=80 v=80
45480 On ch=1 n=80 v=0
45480 On ch=1 n=68 v=0
45480 On ch=1 n=77 v=0
45480 On ch=1 n=73 v=0
45510 On ch=1 n=77 v=80
45510 On ch=1 n=68 v=80
45510 On ch=1 n=80 v=80
45510 On ch=1 n=73 v=80
45570 On ch=1 n=73 v=0
45570 On ch=1 n=77 v=0
45570 On ch=1 n=68 v=0
45570 On ch=1 n=80 v=0
45600 On ch=1 n=77 v=80
45600 On ch=1 n=80 v=80
45600 On ch=1 n=72 v=80
45660 On ch=1 n=72 v=0
45660 On ch=1 n=80 v=0
45660 On ch=1 n=77 v=0
45690 On ch=1 n=80 v=80
45690 On ch=1 n=77 v=80
45690 On ch=1 n=72 v=80
45750 On ch=1 n=72 v=0
45750 On ch=1 n=77 v=0
45750 On ch=1 n=80 v=0
45780 On ch=1 n=77 v=80
45780 On ch=1 n=80 v=80
45780 On ch=1 n=72 v=80
45840 On ch=1 n=72 v=0
45840 On ch=1 n=80 v=0
45840 On ch=1 n=77 v=0
45900 On ch=1 n=80 v=80
45900 On ch=1 n=77 v=80
45900 On ch=1 n=72 v=80
45960 On ch=1 n=72 v=0
45960 On ch=1 n=77 v=0
45960 On ch=1 n=80 v=0
45990 On ch=1 n=77 v=80
45990 On ch=1 n=80 v=80
45990 On ch=1 n=72 v=80
46050 On ch=1 n=72 v=0
46050 On ch=1 n=80 v=0
46050 On ch=1 n=77 v=0
46080 On ch=1 n=75 v=80
46080 On ch=1 n=79 v=80
46080 On ch=1 n=70 v=80
46140 On ch=1 n=70 v=0
46140 On ch=1 n=79 v=0
46140 On ch=1 n=75 v=0
46170 On ch=1 n=75 v=80
46170 On ch=1 n=79 v=80
46170 On ch=1 n=70 v=80
46230 On ch=1 n=70 v=0
46230 On ch=1 n=79 v=0
46230 On ch=1 n=75 v=0
46260 On ch=1 n=73 v=80
46260 On ch=1 n=77 v=80
46260 On ch=1 n=68 v=80
46320 On ch=1 n=68 v=0
46320 On ch=1 n=77 v=0
46320 On ch=1 n=73 v=0
46380 On ch=1 n=77 v=80
46380 On ch=1 n=73 v=80
46380 On ch=1 n=68 v=80
46440 On ch=1 n=68 v=0
46440 On ch=1 n=73 v=0
46440 On ch=1 n=77 v=0
46470 On ch=1 n=77 v=80
46470 On ch=1 n=73 v=80
46470 On ch=1 n=68 v=80
46530 On ch=1 n=68 v=0
46530 On ch=1 n=73 v=0
46530 On ch=1 n=77 v=0
46560 On ch=1 n=77 v=80
46560 On ch=1 n=80 v=80
46560 On ch=1 n=72 v=80
46620 On ch=1 n=72 v=0
46620 On ch=1 n=80 v=0
46620 On ch=1 n=77 v=0
46650 On ch=1 n=77 v=80
46650 On ch=1 n=80 v=80
46650 On ch=1 n=72 v=80
46710 On ch=1 n=72 v=0
46710 On ch=1 n=80 v=0
46710 On ch=1 n=77 v=0
46740 On ch=1 n=77 v=80
46740 On ch=1 n=80 v=80
46740 On ch=1 n=72 v=80
46800 On ch=1 n=72 v=0
46800 On ch=1 n=80 v=0
46800 On ch=1 n=77 v=0
46860 On ch=1 n=77 v=80
46860 On ch=1 n=80 v=80
46860 On ch=1 n=72 v=80
46920 On ch=1 n=72 v=0
46920 On ch=1 n=80 v=0
46920 On ch=1 n=77 v=0
46950 On ch=1 n=77 v=80
46950 On ch=1 n=80 v=80
46950 On ch=1 n=72 v=80
47010 On ch=1 n=72 v=0
47010 On ch=1 n=80 v=0
47010 On ch=1 n=77 v=0
47040 On ch=1 n=79 v=80
47040 On ch=1 n=75 v=80
47040 On ch=1 n=70 v=80
47100 On ch=1 n=70 v=0
47100 On ch=1 n=75 v=0
47100 On ch=1 n=79 v=0
47130 On ch=1 n=70 v=80
47130 On ch=1 n=79 v=80
47130 On ch=1 n=75 v=80
47190 On ch=1 n=75 v=0
47190 On ch=1 n=79 v=0
47190 On ch=1 n=70 v=0
47220 On ch=1 n=73 v=80
47220 On ch=1 n=77 v=80
47220 On ch=1 n=80 v=80
47220 On ch=1 n=68 v=80
47280 On ch=1 n=68 v=0
47280 On ch=1 n=73 v=0
47280 On ch=1 n=77 v=0
47280 On ch=1 n=80 v=0
47340 On ch=1 n=68 v=80
47340 On ch=1 n=77 v=80
47340 On ch=1 n=73 v=80
47340 On ch=1 n=80 v=80
47400 On ch=1 n=80 v=0
47400 On ch=1 n=68 v=0
47400 On ch=1 n=77 v=0
47400 On ch=1 n=73 v=0
47430 On ch=1 n=77 v=80
47430 On ch=1 n=68 v=80
47430 On ch=1 n=80 v=80
47430 On ch=1 n=73 v=80
47490 On ch=1 n=73 v=0
47490 On ch=1 n=77 v=0
47490 On ch=1 n=68 v=0
47490 On ch=1 n=80 v=0
47520 On ch=1 n=77 v=80
47520 On ch=1 n=80 v=80
47520 On ch=1 n=72 v=80
47580 On ch=1 n=72 v=0
47580 On ch=1 n=80 v=0
47580 On ch=1 n=77 v=0
47610 On ch=1 n=80 v=80
47610 On ch=1 n=77 v=80
47610 On ch=1 n=72 v=80
47670 On ch=1 n=72 v=0
47670 On ch=1 n=77 v=0
47670 On ch=1 n=80 v=0
47700 On ch=1 n=77 v=80
47700 On ch=1 n=80 v=80
47700 On ch=1 n=72 v=80
47760 On ch=1 n=72 v=0
47760 On ch=1 n=80 v=0
47760 On ch=1 n=77 v=0
47820 On ch=1 n=80 v=80
47820 On ch=1 n=77 v=80
47820 On ch=1 n=72 v=80
47880 On ch=1 n=72 v=0
47880 On ch=1 n=77 v=0
47880 On ch=1 n=80 v=0
47910 On ch=1 n=77 v=80
47910 On ch=1 n=80 v=80
47910 On ch=1 n=72 v=80
47970 On ch=1 n=72 v=0
47970 On ch=1 n=80 v=0
47970 On ch=1 n=77 v=0
48000 On ch=1 n=77 v=80
48000 On ch=1 n=80 v=80
48000 On ch=1 n=72 v=80
48060 On ch=1 n=72 v=0
48060 On ch=1 n=80 v=0
48060 On ch=1 n=77 v=0
48090 On ch=1 n=80 v=80
48090 On ch=1 n=77 v=80
48090 On ch=1 n=72 v=80
48150 On ch=1 n=72 v=0
48150 On ch=1 n=77 v=0
48150 On ch=1 n=80 v=0
48180 On ch=1 n=77 v=80
48180 On ch=1 n=80 v=80
48180 On ch=1 n=72 v=80
48240 On ch=1 n=72 v=0
48240 On ch=1 n=80 v=0
48240 On ch=1 n=77 v=0
48300 On ch=1 n=80 v=80
48300 On ch=1 n=77 v=80
48300 On ch=1 n=72 v=80
48360 On ch=1 n=72 v=0
48360 On ch=1 n=77 v=0
48360 On ch=1 n=80 v=0
48390 On ch=1 n=77 v=80
48390 On ch=1 n=80 v=80
48390 On ch=1 n=72 v=80
48450 On ch=1 n=72 v=0
48450 On ch=1 n=80 v=0
48450 On ch=1 n=77 v=0
48480 On ch=1 n=77 v=80
48480 On ch=1 n=80 v=80
48480 On ch=1 n=72 v=80
48540 On ch=1 n=72 v=0
48540 On ch=1 n=80 v=0
48540 On ch=1 n=77 v=0
48570 On ch=1 n=80 v=80
48570 On ch=1 n=77 v=80
48570 On ch=1 n=72 v=80
48630 On ch=1 n=72 v=0
48630 On ch=1 n=77 v=0
48630 On ch=1 n=80 v=0
48660 On ch=1 n=77 v=80
48660 On ch=1 n=80 v=80
48660 On ch=1 n=72 v=80
48720 On ch=1 n=72 v=0
48720 On ch=1 n=80 v=0
48720 On ch=1 n=77 v=0
48780 On ch=1 n=80 v=80
48780 On ch=1 n=77 v=80
48780 On ch=1 n=72 v=80
48840 On ch=1 n=72 v=0
48840 On ch=1 n=77 v=0
48840 On ch=1 n=80 v=0
48870 On ch=1 n=77 v=80
48870 On ch=1 n=80 v=80
48870 On ch=1 n=72 v=80
48930 On ch=1 n=72 v=0
48930 On ch=1 n=80 v=0
48930 On ch=1 n=77 v=0
48960 On ch=1 n=77 v=80
48960 On ch=1 n=80 v=80
48960 On ch=1 n=72 v=80
49020 On ch=1 n=72 v=0
49020 On ch=1 n=80 v=0
49020 On ch=1 n=77 v=0
49050 On ch=1 n=80 v=80
49050 On ch=1 n=77 v=80
49050 On ch=1 n=72 v=80
49110 On ch=1 n=72 v=0
49110 On ch=1 n=77 v=0
49110 On ch=1 n=80 v=0
49140 On ch=1 n=77 v=80
49140 On ch=1 n=80 v=80
49140 On ch=1 n=72 v=80
49200 On ch=1 n=72 v=0
49200 On ch=1 n=80 v=0
49200 On ch=1 n=77 v=0
49260 On ch=1 n=80 v=80
49260 On ch=1 n=77 v=80
49260 On ch=1 n=72 v=80
49320 On ch=1 n=72 v=0
49320 On ch=1 n=77 v=0
49320 On ch=1 n=80 v=0
49350 On ch=1 n=77 v=80
49350 On ch=1 n=80 v=80
49350 On ch=1 n=72 v=80
49410 On ch=1 n=72 v=0
49410 On ch=1 n=80 v=0
49410 On ch=1 n=77 v=0
49440 On ch=1 n=77 v=80
49440 On ch=1 n=80 v=80
49440 On ch=1 n=72 v=80
49500 On ch=1 n=72 v=0
49500 On ch=1 n=80 v=0
49500 On ch=1 n=77 v=0
49530 On ch=1 n=80 v=80
49530 On ch=1 n=77 v=80
49530 On ch=1 n=72 v=80
49590 On ch=1 n=72 v=0
49590 On ch=1 n=77 v=0
49590 On ch=1 n=80 v=0
49620 On ch=1 n=77 v=80
49620 On ch=1 n=80 v=80
49620 On ch=1 n=72 v=80
49680 On ch=1 n=72 v=0
49680 On ch=1 n=80 v=0
49680 On ch=1 n=77 v=0
49740 On ch=1 n=80 v=80
49740 On ch=1 n=77 v=80
49740 On ch=1 n=72 v=80
49800 On ch=1 n=72 v=0
49800 On ch=1 n=77 v=0
49800 On ch=1 n=80 v=0
49830 On ch=1 n=77 v=80
49830 On ch=1 n=80 v=80
49830 On ch=1 n=72 v=80
49890 On ch=1 n=72 v=0
49890 On ch=1 n=80 v=0
49890 On ch=1 n=77 v=0
49920 On ch=1 n=77 v=80
49920 On ch=1 n=80 v=80
49920 On ch=1 n=72 v=80
49980 On ch=1 n=72 v=0
49980 On ch=1 n=80 v=0
49980 On ch=1 n=77 v=0
50010 On ch=1 n=80 v=80
50010 On ch=1 n=77 v=80
50010 On ch=1 n=72 v=80
50070 On ch=1 n=72 v=0
50070 On ch=1 n=77 v=0
50070 On ch=1 n=80 v=0
50100 On ch=1 n=77 v=80
50100 On ch=1 n=80 v=80
50100 On ch=1 n=72 v=80
50160 On ch=1 n=72 v=0
50160 On ch=1 n=80 v=0
50160 On ch=1 n=77 v=0
50220 On ch=1 n=80 v=80
50220 On ch=1 n=77 v=80
50220 On ch=1 n=72 v=80
50280 On ch=1 n=72 v=0
50280 On ch=1 n=77 v=0
50280 On ch=1 n=80 v=0
50310 On ch=1 n=77 v=80
50310 On ch=1 n=80 v=80
50310 On ch=1 n=72 v=80
50370 On ch=1 n=72 v=0
50370 On ch=1 n=80 v=0
50370 On ch=1 n=77 v=0
50400 On ch=1 n=77 v=80
50400 On ch=1 n=80 v=80
50400 On ch=1 n=72 v=80
50460 On ch=1 n=72 v=0
50460 On ch=1 n=80 v=0
50460 On ch=1 n=77 v=0
50490 On ch=1 n=80 v=80
50490 On ch=1 n=77 v=80
50490 On ch=1 n=72 v=80
50550 On ch=1 n=72 v=0
50550 On ch=1 n=77 v=0
50550 On ch=1 n=80 v=0
50580 On ch=1 n=77 v=80
50580 On ch=1 n=80 v=80
50580 On ch=1 n=72 v=80
50640 On ch=1 n=72 v=0
50640 On ch=1 n=80 v=0
50640 On ch=1 n=77 v=0
50700 On ch=1 n=80 v=80
50700 On ch=1 n=77 v=80
50700 On ch=1 n=72 v=80
50760 On ch=1 n=72 v=0
50760 On ch=1 n=77 v=0
50760 On ch=1 n=80 v=0
50790 On ch=1 n=77 v=80
50790 On ch=1 n=80 v=80
50790 On ch=1 n=72 v=80
50850 On ch=1 n=72 v=0
50850 On ch=1 n=80 v=0
50850 On ch=1 n=77 v=0
50880 On ch=1 n=77 v=80
50880 On ch=1 n=80 v=80
50880 On ch=1 n=72 v=80
50940 On ch=1 n=72 v=0
50940 On ch=1 n=80 v=0
50940 On ch=1 n=77 v=0
50970 On ch=1 n=80 v=80
50970 On ch=1 n=77 v=80
50970 On ch=1 n=72 v=80
51030 On ch=1 n=72 v=0
51030 On ch=1 n=77 v=0
51030 On ch=1 n=80 v=0
51060 On ch=1 n=77 v=80
51060 On ch=1 n=80 v=80
51060 On ch=1 n=72 v=80
51120 On ch=1 n=72 v=0
51120 On ch=1 n=80 v=0
51120 On ch=1 n=77 v=0
51180 On ch=1 n=80 v=80
51180 On ch=1 n=77 v=80
51180 On ch=1 n=72 v=80
51240 On ch=1 n=72 v=0
51240 On ch=1 n=77 v=0
51240 On ch=1 n=80 v=0
51270 On ch=1 n=77 v=80
51270 On ch=1 n=80 v=80
51270 On ch=1 n=72 v=80
51330 On ch=1 n=72 v=0
51330 On ch=1 n=80 v=0
51330 On ch=1 n=77 v=0
51360 On ch=1 n=77 v=80
51360 On ch=1 n=80 v=80
51360 On ch=1 n=72 v=80
51420 On ch=1 n=72 v=0
51420 On ch=1 n=80 v=0
51420 On ch=1 n=77 v=0
51450 On ch=1 n=80 v=80
51450 On ch=1 n=77 v=80
51450 On ch=1 n=72 v=80
51510 On ch=1 n=72 v=0
51510 On ch=1 n=77 v=0
51510 On ch=1 n=80 v=0
51540 On ch=1 n=77 v=80
51540 On ch=1 n=80 v=80
51540 On ch=1 n=72 v=80
51600 On ch=1 n=72 v=0
51600 On ch=1 n=80 v=0
51600 On ch=1 n=77 v=0
51660 On ch=1 n=80 v=80
51660 On ch=1 n=77 v=80
51660 On ch=1 n=72 v=80
51720 On ch=1 n=72 v=0
51720 On ch=1 n=77 v=0
51720 On ch=1 n=80 v=0
51750 On ch=1 n=77 v=80
51750 On ch=1 n=80 v=80
51750 On ch=1 n=72 v=80
51810 On ch=1 n=72 v=0
51810 On ch=1 n=80 v=0
51810 On ch=1 n=77 v=0
51840 On ch=1 n=75 v=80
51840 On ch=1 n=79 v=80
51840 On ch=1 n=70 v=80
51900 On ch=1 n=70 v=0
51900 On ch=1 n=79 v=0
51900 On ch=1 n=75 v=0
51930 On ch=1 n=75 v=80
51930 On ch=1 n=79 v=80
51930 On ch=1 n=70 v=80
51990 On ch=1 n=70 v=0
51990 On ch=1 n=79 v=0
51990 On ch=1 n=75 v=0
52020 On ch=1 n=73 v=80
52020 On ch=1 n=77 v=80
52020 On ch=1 n=68 v=80
52080 On ch=1 n=68 v=0
52080 On ch=1 n=77 v=0
52080 On ch=1 n=73 v=0
52140 On ch=1 n=77 v=80
52140 On ch=1 n=73 v=80
52140 On ch=1 n=68 v=80
52200 On ch=1 n=68 v=0
52200 On ch=1 n=73 v=0
52200 On ch=1 n=77 v=0
52230 On ch=1 n=77 v=80
52230 On ch=1 n=73 v=80
52230 On ch=1 n=68 v=80
52290 On ch=1 n=68 v=0
52290 On ch=1 n=73 v=0
52290 On ch=1 n=77 v=0
52320 On ch=1 n=77 v=80
52320 On ch=1 n=80 v=80
52320 On ch=1 n=72 v=80
52380 On ch=1 n=72 v=0
52380 On ch=1 n=80 v=0
52380 On ch=1 n=77 v=0
52410 On ch=1 n=77 v=80
52410 On ch=1 n=80 v=80
52410 On ch=1 n=72 v=80
52470 On ch=1 n=72 v=0
52470 On ch=1 n=80 v=0
52470 On ch=1 n=77 v=0
52500 On ch=1 n=77 v=80
52500 On ch=1 n=80 v=80
52500 On ch=1 n=72 v=80
52560 On ch=1 n=72 v=0
52560 On ch=1 n=80 v=0
52560 On ch=1 n=77 v=0
52620 On ch=1 n=77 v=80
52620 On ch=1 n=80 v=80
52620 On ch=1 n=72 v=80
52680 On ch=1 n=72 v=0
52680 On ch=1 n=80 v=0
52680 On ch=1 n=77 v=0
52710 On ch=1 n=77 v=80
52710 On ch=1 n=80 v=80
52710 On ch=1 n=72 v=80
52770 On ch=1 n=72 v=0
52770 On ch=1 n=80 v=0
52770 On ch=1 n=77 v=0
52800 On ch=1 n=79 v=80
52800 On ch=1 n=75 v=80
52800 On ch=1 n=70 v=80
52860 On ch=1 n=70 v=0
52860 On ch=1 n=75 v=0
52860 On ch=1 n=79 v=0
52890 On ch=1 n=70 v=80
52890 On ch=1 n=79 v=80
52890 On ch=1 n=75 v=80
52950 On ch=1 n=75 v=0
52950 On ch=1 n=79 v=0
52950 On ch=1 n=70 v=0
52980 On ch=1 n=73 v=80
52980 On ch=1 n=77 v=80
52980 On ch=1 n=80 v=80
52980 On ch=1 n=68 v=80
53040 On ch=1 n=68 v=0
53040 On ch=1 n=73 v=0
53040 On ch=1 n=77 v=0
53040 On ch=1 n=80 v=0
53100 On ch=1 n=68 v=80
53100 On ch=1 n=77 v=80
53100 On ch=1 n=73 v=80
53100 On ch=1 n=80 v=80
53160 On ch=1 n=80 v=0
53160 On ch=1 n=68 v=0
53160 On ch=1 n=77 v=0
53160 On ch=1 n=73 v=0
53190 On ch=1 n=77 v=80
53190 On ch=1 n=68 v=80
53190 On ch=1 n=80 v=80
53190 On ch=1 n=73 v=80
53250 On ch=1 n=73 v=0
53250 On ch=1 n=77 v=0
53250 On ch=1 n=68 v=0
53250 On ch=1 n=80 v=0
53280 On ch=1 n=77 v=80
53280 On ch=1 n=80 v=80
53280 On ch=1 n=72 v=80
53340 On ch=1 n=72 v=0
53340 On ch=1 n=80 v=0
53340 On ch=1 n=77 v=0
53370 On ch=1 n=80 v=80
53370 On ch=1 n=77 v=80
53370 On ch=1 n=72 v=80
53430 On ch=1 n=72 v=0
53430 On ch=1 n=77 v=0
53430 On ch=1 n=80 v=0
53460 On ch=1 n=77 v=80
53460 On ch=1 n=80 v=80
53460 On ch=1 n=72 v=80
53520 On ch=1 n=72 v=0
53520 On ch=1 n=80 v=0
53520 On ch=1 n=77 v=0
53580 On ch=1 n=80 v=80
53580 On ch=1 n=77 v=80
53580 On ch=1 n=72 v=80
53640 On ch=1 n=72 v=0
53640 On ch=1 n=77 v=0
53640 On ch=1 n=80 v=0
53670 On ch=1 n=77 v=80
53670 On ch=1 n=80 v=80
53670 On ch=1 n=72 v=80
53730 On ch=1 n=72 v=0
53730 On ch=1 n=80 v=0
53730 On ch=1 n=77 v=0
53760 On ch=1 n=75 v=80
53760 On ch=1 n=79 v=80
53760 On ch=1 n=70 v=80
53820 On ch=1 n=70 v=0
53820 On ch=1 n=79 v=0
53820 On ch=1 n=75 v=0
53850 On ch=1 n=75 v=80
53850 On ch=1 n=79 v=80
53850 On ch=1 n=70 v=80
53910 On ch=1 n=70 v=0
53910 On ch=1 n=79 v=0
53910 On ch=1 n=75 v=0
53940 On ch=1 n=73 v=80
53940 On ch=1 n=77 v=80
53940 On ch=1 n=68 v=80
54000 On ch=1 n=68 v=0
54000 On ch=1 n=77 v=0
54000 On ch=1 n=73 v=0
54060 On ch=1 n=77 v=80
54060 On ch=1 n=73 v=80
54060 On ch=1 n=68 v=80
54120 On ch=1 n=68 v=0
54120 On ch=1 n=73 v=0
54120 On ch=1 n=77 v=0
54150 On ch=1 n=77 v=80
54150 On ch=1 n=73 v=80
54150 On ch=1 n=68 v=80
54210 On ch=1 n=68 v=0
54210 On ch=1 n=73 v=0
54210 On ch=1 n=77 v=0
54240 On ch=1 n=77 v=80
54240 On ch=1 n=80 v=80
54240 On ch=1 n=72 v=80
54300 On ch=1 n=72 v=0
54300 On ch=1 n=80 v=0
54300 On ch=1 n=77 v=0
54330 On ch=1 n=77 v=80
54330 On ch=1 n=80 v=80
54330 On ch=1 n=72 v=80
54390 On ch=1 n=72 v=0
54390 On ch=1 n=80 v=0
54390 On ch=1 n=77 v=0
54420 On ch=1 n=77 v=80
54420 On ch=1 n=80 v=80
54420 On ch=1 n=72 v=80
54480 On ch=1 n=72 v=0
54480 On ch=1 n=80 v=0
54480 On ch=1 n=77 v=0
54540 On ch=1 n=77 v=80
54540 On ch=1 n=80 v=80
54540 On ch=1 n=72 v=80
54600 On ch=1 n=72 v=0
54600 On ch=1 n=80 v=0
54600 On ch=1 n=77 v=0
54630 On ch=1 n=77 v=80
54630 On ch=1 n=80 v=80
54630 On ch=1 n=72 v=80
54690 On ch=1 n=72 v=0
54690 On ch=1 n=80 v=0
54690 On ch=1 n=77 v=0
54720 On ch=1 n=79 v=80
54720 On ch=1 n=75 v=80
54720 On ch=1 n=70 v=80
54780 On ch=1 n=70 v=0
54780 On ch=1 n=75 v=0
54780 On ch=1 n=79 v=0
54810 On ch=1 n=70 v=80
54810 On ch=1 n=79 v=80
54810 On ch=1 n=75 v=80
54870 On ch=1 n=75 v=0
54870 On ch=1 n=79 v=0
54870 On ch=1 n=70 v=0
54900 On ch=1 n=73 v=80
54900 On ch=1 n=77 v=80
54900 On ch=1 n=80 v=80
54900 On ch=1 n=68 v=80
54960 On ch=1 n=68 v=0
54960 On ch=1 n=73 v=0
54960 On ch=1 n=77 v=0
54960 On ch=1 n=80 v=0
55020 On ch=1 n=68 v=80
55020 On ch=1 n=77 v=80
55020 On ch=1 n=73 v=80
55020 On ch=1 n=80 v=80
55080 On ch=1 n=80 v=0
55080 On ch=1 n=68 v=0
55080 On ch=1 n=77 v=0
55080 On ch=1 n=73 v=0
55110 On ch=1 n=77 v=80
55110 On ch=1 n=68 v=80
55110 On ch=1 n=80 v=80
55110 On ch=1 n=73 v=80
55170 On ch=1 n=73 v=0
55170 On ch=1 n=77 v=0
55170 On ch=1 n=68 v=0
55170 On ch=1 n=80 v=0
60000 On ch=1 n=77 v=80
60000 On ch=1 n=80 v=80
60000 On ch=1 n=72 v=80
60060 On ch=1 n=72 v=0
60060 On ch=1 n=80 v=0
60060 On ch=1 n=77 v=0
60090 On ch=1 n=80 v=80
60090 On ch=1 n=77 v=80
60090 On ch=1 n=72 v=80
60150 On ch=1 n=72 v=0
60150 On ch=1 n=77 v=0
60150 On ch=1 n=80 v=0
60180 On ch=1 n=77 v=80
60180 On ch=1 n=80 v=80
60180 On ch=1 n=72 v=80
60240 On ch=1 n=72 v=0
60240 On ch=1 n=80 v=0
60240 On ch=1 n=77 v=0
60300 On ch=1 n=80 v=80
60300 On ch=1 n=77 v=80
60300 On ch=1 n=72 v=80
60360 On ch=1 n=72 v=0
60360 On ch=1 n=77 v=0
60360 On ch=1 n=80 v=0
60390 On ch=1 n=77 v=80
60390 On ch=1 n=80 v=80
60390 On ch=1 n=72 v=80
60450 On ch=1 n=72 v=0
60450 On ch=1 n=80 v=0
60450 On ch=1 n=77 v=0
60480 On ch=1 n=75 v=80
60480 On ch=1 n=79 v=80
60480 On ch=1 n=70 v=80
60540 On ch=1 n=70 v=0
60540 On ch=1 n=79 v=0
60540 On ch=1 n=75 v=0
60570 On ch=1 n=75 v=80
60570 On ch=1 n=79 v=80
60570 On ch=1 n=70 v=80
60630 On ch=1 n=70 v=0
60630 On ch=1 n=79 v=0
60630 On ch=1 n=75 v=0
60660 On ch=1 n=73 v=80
60660 On ch=1 n=77 v=80
60660 On ch=1 n=68 v=80
60720 On ch=1 n=68 v=0
60720 On ch=1 n=77 v=0
60720 On ch=1 n=73 v=0
60780 On ch=1 n=77 v=80
60780 On ch=1 n=73 v=80
60780 On ch=1 n=68 v=80
60840 On ch=1 n=68 v=0
60840 On ch=1 n=73 v=0
60840 On ch=1 n=77 v=0
60870 On ch=1 n=77 v=80
60870 On ch=1 n=73 v=80
60870 On ch=1 n=68 v=80
60930 On ch=1 n=68 v=0
60930 On ch=1 n=73 v=0
60930 On ch=1 n=77 v=0
60960 On ch=1 n=77 v=80
60960 On ch=1 n=80 v=80
60960 On ch=1 n=72 v=80
61020 On ch=1 n=72 v=0
61020 On ch=1 n=80 v=0
61020 On ch=1 n=77 v=0
61050 On ch=1 n=77 v=80
61050 On ch=1 n=80 v=80
61050 On ch=1 n=72 v=80
61110 On ch=1 n=72 v=0
61110 On ch=1 n=80 v=0
61110 On ch=1 n=77 v=0
61140 On ch=1 n=77 v=80
61140 On ch=1 n=80 v=80
61140 On ch=1 n=72 v=80
61200 On ch=1 n=72 v=0
61200 On ch=1 n=80 v=0
61200 On ch=1 n=77 v=0
61260 On ch=1 n=77 v=80
61260 On ch=1 n=80 v=80
61260 On ch=1 n=72 v=80
61320 On ch=1 n=72 v=0
61320 On ch=1 n=80 v=0
61320 On ch=1 n=77 v=0
61350 On ch=1 n=77 v=80
61350 On ch=1 n=80 v=80
61350 On ch=1 n=72 v=80
61410 On ch=1 n=72 v=0
61410 On ch=1 n=80 v=0
61410 On ch=1 n=77 v=0
61440 On ch=1 n=79 v=80
61440 On ch=1 n=75 v=80
61440 On ch=1 n=70 v=80
61500 On ch=1 n=70 v=0
61500 On ch=1 n=75 v=0
61500 On ch=1 n=79 v=0
61530 On ch=1 n=70 v=80
61530 On ch=1 n=79 v=80
61530 On ch=1 n=75 v=80
61590 On ch=1 n=75 v=0
61590 On ch=1 n=79 v=0
61590 On ch=1 n=70 v=0
61620 On ch=1 n=73 v=80
61620 On ch=1 n=77 v=80
61620 On ch=1 n=80 v=80
61620 On ch=1 n=68 v=80
61680 On ch=1 n=68 v=0
61680 On ch=1 n=73 v=0
61680 On ch=1 n=77 v=0
61680 On ch=1 n=80 v=0
61740 On ch=1 n=68 v=80
61740 On ch=1 n=77 v=80
61740 On ch=1 n=73 v=80
61740 On ch=1 n=80 v=80
61800 On ch=1 n=80 v=0
61800 On ch=1 n=68 v=0
61800 On ch=1 n=77 v=0
61800 On ch=1 n=73 v=0
61830 On ch=1 n=77 v=80
61830 On ch=1 n=68 v=80
61830 On ch=1 n=80 v=80
61830 On ch=1 n=73 v=80
61890 On ch=1 n=73 v=0
61890 On ch=1 n=77 v=0
61890 On ch=1 n=68 v=0
61890 On ch=1 n=80 v=0
61920 On ch=1 n=77 v=80
61920 On ch=1 n=80 v=80
61920 On ch=1 n=72 v=80
61980 On ch=1 n=72 v=0
61980 On ch=1 n=80 v=0
61980 On ch=1 n=77 v=0
62010 On ch=1 n=80 v=80
62010 On ch=1 n=77 v=80
62010 On ch=1 n=72 v=80
62070 On ch=1 n=72 v=0
62070 On ch=1 n=77 v=0
62070 On ch=1 n=80 v=0
62100 On ch=1 n=77 v=80
62100 On ch=1 n=80 v=80
62100 On ch=1 n=72 v=80
62160 On ch=1 n=72 v=0
62160 On ch=1 n=80 v=0
62160 On ch=1 n=77 v=0
62220 On ch=1 n=80 v=80
62220 On ch=1 n=77 v=80
62220 On ch=1 n=72 v=80
62280 On ch=1 n=72 v=0
62280 On ch=1 n=77 v=0
62280 On ch=1 n=80 v=0
62310 On ch=1 n=77 v=80
62310 On ch=1 n=80 v=80
62310 On ch=1 n=72 v=80
62370 On ch=1 n=72 v=0
62370 On ch=1 n=80 v=0
62370 On ch=1 n=77 v=0
62400 On ch=1 n=75 v=80
62400 On ch=1 n=79 v=80
62400 On ch=1 n=70 v=80
62460 On ch=1 n=70 v=0
62460 On ch=1 n=79 v=0
62460 On ch=1 n=75 v=0
62490 On ch=1 n=75 v=80
62490 On ch=1 n=79 v=80
62490 On ch=1 n=70 v=80
62550 On ch=1 n=70 v=0
62550 On ch=1 n=79 v=0
62550 On ch=1 n=75 v=0
62580 On ch=1 n=73 v=80
62580 On ch=1 n=77 v=80
62580 On ch=1 n=68 v=80
62640 On ch=1 n=68 v=0
62640 On ch=1 n=77 v=0
62640 On ch=1 n=73 v=0
62700 On ch=1 n=77 v=80
62700 On ch=1 n=73 v=80
62700 On ch=1 n=68 v=80
62760 On ch=1 n=68 v=0
62760 On ch=1 n=73 v=0
62760 On ch=1 n=77 v=0
62790 On ch=1 n=77 v=80
62790 On ch=1 n=73 v=80
62790 On ch=1 n=68 v=80
62850 On ch=1 n=68 v=0
62850 On ch=1 n=73 v=0
62850 On ch=1 n=77 v=0
62880 On ch=1 n=77 v=80
62880 On ch=1 n=80 v=80
62880 On ch=1 n=72 v=80
62940 On ch=1 n=72 v=0
62940 On ch=1 n=80 v=0
62940 On ch=1 n=77 v=0
62970 On ch=1 n=77 v=80
62970 On ch=1 n=80 v=80
62970 On ch=1 n=72 v=80
63030 On ch=1 n=72 v=0
63030 On ch=1 n=80 v=0
63030 On ch=1 n=77 v=0
63060 On ch=1 n=77 v=80
63060 On ch=1 n=80 v=80
63060 On ch=1 n=72 v=80
63120 On ch=1 n=72 v=0
63120 On ch=1 n=80 v=0
63120 On ch=1 n=77 v=0
63180 On ch=1 n=77 v=80
63180 On ch=1 n=80 v=80
63180 On ch=1 n=72 v=80
63240 On ch=1 n=72 v=0
63240 On ch=1 n=80 v=0
63240 On ch=1 n=77 v=0
63270 On ch=1 n=77 v=80
63270 On ch=1 n=80 v=80
63270 On ch=1 n=72 v=80
63330 On ch=1 n=72 v=0
63330 On ch=1 n=80 v=0
63330 On ch=1 n=77 v=0
63360 On ch=1 n=79 v=80
63360 On ch=1 n=75 v=80
63360 On ch=1 n=70 v=80
63420 On ch=1 n=70 v=0
63420 On ch=1 n=75 v=0
63420 On ch=1 n=79 v=0
63450 On ch=1 n=70 v=80
63450 On ch=1 n=79 v=80
63450 On ch=1 n=75 v=80
63510 On ch=1 n=75 v=0
63510 On ch=1 n=79 v=0
63510 On ch=1 n=70 v=0
63540 On ch=1 n=73 v=80
63540 On ch=1 n=77 v=80
63540 On ch=1 n=80 v=80
63540 On ch=1 n=68 v=80
63600 On ch=1 n=68 v=0
63600 On ch=1 n=73 v=0
63600 On ch=1 n=77 v=0
63600 On ch=1 n=80 v=0
63660 On ch=1 n=68 v=80
63660 On ch=1 n=77 v=80
63660 On ch=1 n=73 v=80
63660 On ch=1 n=80 v=80
63720 On ch=1 n=80 v=0
63720 On ch=1 n=68 v=0
63720 On ch=1 n=77 v=0
63720 On ch=1 n=73 v=0
63750 On ch=1 n=77 v=80
63750 On ch=1 n=68 v=80
63750 On ch=1 n=80 v=80
63750 On ch=1 n=73 v=80
63810 On ch=1 n=73 v=0
63810 On ch=1 n=77 v=0
63810 On ch=1 n=68 v=0
63810 On ch=1 n=80 v=0
67200 On ch=1 n=77 v=80
67200 On ch=1 n=65 v=80
67200 On ch=1 n=53 v=80
67208 On ch=1 n=65 v=0
67211 On ch=1 n=77 v=0
67217 On ch=1 n=53 v=0
67260 On ch=1 n=65 v=80
67260 On ch=1 n=77 v=80
67260 On ch=1 n=53 v=80
67280 On ch=1 n=65 v=0
67282 On ch=1 n=77 v=0
67285 On ch=1 n=53 v=0
67320 On ch=1 n=65 v=80
67320 On ch=1 n=77 v=80
67320 On ch=1 n=53 v=80
67338 On ch=1 n=65 v=0
67340 On ch=1 n=53 v=0
67340 On ch=1 n=77 v=0
67350 On ch=1 n=77 v=80
67350 On ch=1 n=65 v=80
67350 On ch=1 n=53 v=80
67368 On ch=1 n=65 v=0
67372 On ch=1 n=53 v=0
67378 On ch=1 n=77 v=0
67410 On ch=1 n=77 v=80
67410 On ch=1 n=65 v=80
67410 On ch=1 n=53 v=80
67431 On ch=1 n=65 v=0
67438 On ch=1 n=77 v=0
67439 On ch=1 n=53 v=0
67439 Meta TrkEnd
TrkEnd
MTrk
0 Meta TrkName "Finger bass"
0 PrCh ch=2 p=33
0 Par ch=2 c=7 v=120
483 Par ch=2 c=91 v=12
4320 On ch=2 n=29 v=103
4371 On ch=2 n=29 v=0
4410 On ch=2 n=29 v=102
4466 On ch=2 n=29 v=0
4500 On ch=2 n=29 v=102
4572 On ch=2 n=29 v=0
4620 On ch=2 n=29 v=103
4699 On ch=2 n=29 v=0
4710 On ch=2 n=29 v=98
4754 On ch=2 n=29 v=0
4800 On ch=2 n=27 v=97
4861 On ch=2 n=27 v=0
4890 On ch=2 n=27 v=105
4954 On ch=2 n=27 v=0
4980 On ch=2 n=25 v=105
5058 On ch=2 n=25 v=0
5100 On ch=2 n=25 v=106
5173 On ch=2 n=25 v=0
5190 On ch=2 n=25 v=109
5235 On ch=2 n=25 v=0
5280 On ch=2 n=29 v=103
5331 On ch=2 n=29 v=0
5370 On ch=2 n=29 v=102
5426 On ch=2 n=29 v=0
5460 On ch=2 n=29 v=102
5532 On ch=2 n=29 v=0
5580 On ch=2 n=29 v=103
5659 On ch=2 n=29 v=0
5670 On ch=2 n=29 v=98
5714 On ch=2 n=29 v=0
5760 On ch=2 n=27 v=97
5821 On ch=2 n=27 v=0
5850 On ch=2 n=27 v=105
5914 On ch=2 n=27 v=0
5940 On ch=2 n=25 v=105
6018 On ch=2 n=25 v=0
6060 On ch=2 n=25 v=106
6133 On ch=2 n=25 v=0
6150 On ch=2 n=25 v=109
6195 On ch=2 n=25 v=0
6240 On ch=2 n=29 v=103
6291 On ch=2 n=29 v=0
6330 On ch=2 n=29 v=102
6386 On ch=2 n=29 v=0
6420 On ch=2 n=29 v=102
6492 On ch=2 n=29 v=0
6540 On ch=2 n=29 v=103
6619 On ch=2 n=29 v=0
6630 On ch=2 n=29 v=98
6674 On ch=2 n=29 v=0
6720 On ch=2 n=27 v=97
6781 On ch=2 n=27 v=0
6810 On ch=2 n=27 v=105
6874 On ch=2 n=27 v=0
6900 On ch=2 n=25 v=105
6978 On ch=2 n=25 v=0
7020 On ch=2 n=25 v=106
7093 On ch=2 n=25 v=0
7110 On ch=2 n=25 v=109
7155 On ch=2 n=25 v=0
7200 On ch=2 n=29 v=103
7251 On ch=2 n=29 v=0
7290 On ch=2 n=29 v=102
7346 On ch=2 n=29 v=0
7380 On ch=2 n=29 v=102
7452 On ch=2 n=29 v=0
7500 On ch=2 n=29 v=103
7579 On ch=2 n=29 v=0
7590 On ch=2 n=29 v=98
7634 On ch=2 n=29 v=0
7680 On ch=2 n=27 v=97
7741 On ch=2 n=27 v=0
7770 On ch=2 n=27 v=105
7834 On ch=2 n=27 v=0
7860 On ch=2 n=25 v=105
7938 On ch=2 n=25 v=0
7980 On ch=2 n=25 v=106
8053 On ch=2 n=25 v=0
8070 On ch=2 n=25 v=109
8115 On ch=2 n=25 v=0
8160 On ch=2 n=29 v=103
8211 On ch=2 n=29 v=0
8250 On ch=2 n=29 v=102
8306 On ch=2 n=29 v=0
8340 On ch=2 n=29 v=102
8412 On ch=2 n=29 v=0
8460 On ch=2 n=29 v=103
8539 On ch=2 n=29 v=0
8550 On ch=2 n=29 v=98
8594 On ch=2 n=29 v=0
8640 On ch=2 n=27 v=97
8701 On ch=2 n=27 v=0
8730 On ch=2 n=27 v=105
8794 On ch=2 n=27 v=0
8820 On ch=2 n=25 v=105
8898 On ch=2 n=25 v=0
8940 On ch=2 n=25 v=106
9013 On ch=2 n=25 v=0
9030 On ch=2 n=25 v=109
9075 On ch=2 n=25 v=0
9120 On ch=2 n=29 v=103
9171 On ch=2 n=29 v=0
9210 On ch=2 n=29 v=102
9266 On ch=2 n=29 v=0
9300 On ch=2 n=29 v=102
9372 On ch=2 n=29 v=0
9420 On ch=2 n=29 v=103
9499 On ch=2 n=29 v=0
9510 On ch=2 n=29 v=98
9554 On ch=2 n=29 v=0
9600 On ch=2 n=27 v=97
9661 On ch=2 n=27 v=0
9690 On ch=2 n=27 v=105
9754 On ch=2 n=27 v=0
9780 On ch=2 n=25 v=105
9858 On ch=2 n=25 v=0
9900 On ch=2 n=25 v=106
9973 On ch=2 n=25 v=0
9990 On ch=2 n=25 v=109
10035 On ch=2 n=25 v=0
10080 On ch=2 n=29 v=103
10131 On ch=2 n=29 v=0
10170 On ch=2 n=29 v=102
10226 On ch=2 n=29 v=0
10260 On ch=2 n=29 v=102
10332 On ch=2 n=29 v=0
10380 On ch=2 n=29 v=103
10459 On ch=2 n=29 v=0
10470 On ch=2 n=29 v=98
10514 On ch=2 n=29 v=0
10560 On ch=2 n=27 v=97
10621 On ch=2 n=27 v=0
10650 On ch=2 n=27 v=105
10714 On ch=2 n=27 v=0
10740 On ch=2 n=25 v=105
10818 On ch=2 n=25 v=0
10860 On ch=2 n=25 v=106
10933 On ch=2 n=25 v=0
10950 On ch=2 n=25 v=109
10995 On ch=2 n=25 v=0
11040 On ch=2 n=29 v=103
11091 On ch=2 n=29 v=0
11130 On ch=2 n=29 v=102
11186 On ch=2 n=29 v=0
11220 On ch=2 n=29 v=102
11292 On ch=2 n=29 v=0
11340 On ch=2 n=29 v=103
11419 On ch=2 n=29 v=0
12000 On ch=2 n=29 v=103
12051 On ch=2 n=29 v=0
12090 On ch=2 n=29 v=102
12146 On ch=2 n=29 v=0
12180 On ch=2 n=29 v=102
12252 On ch=2 n=29 v=0
12300 On ch=2 n=29 v=103
12379 On ch=2 n=29 v=0
12390 On ch=2 n=29 v=98
12434 On ch=2 n=29 v=0
12480 On ch=2 n=27 v=97
12541 On ch=2 n=27 v=0
12570 On ch=2 n=27 v=105
12634 On ch=2 n=27 v=0
12660 On ch=2 n=25 v=105
12738 On ch=2 n=25 v=0
12780 On ch=2 n=25 v=106
12853 On ch=2 n=25 v=0
12870 On ch=2 n=25 v=109
12915 On ch=2 n=25 v=0
12960 On ch=2 n=29 v=103
13011 On ch=2 n=29 v=0
13050 On ch=2 n=29 v=102
13106 On ch=2 n=29 v=0
13140 On ch=2 n=29 v=102
13212 On ch=2 n=29 v=0
13260 On ch=2 n=29 v=103
13339 On ch=2 n=29 v=0
13350 On ch=2 n=29 v=98
13394 On ch=2 n=29 v=0
13440 On ch=2 n=27 v=97
13501 On ch=2 n=27 v=0
13530 On ch=2 n=27 v=105
13594 On ch=2 n=27 v=0
13620 On ch=2 n=25 v=105
13698 On ch=2 n=25 v=0
13740 On ch=2 n=25 v=106
13813 On ch=2 n=25 v=0
13830 On ch=2 n=25 v=109
13875 On ch=2 n=25 v=0
13920 On ch=2 n=29 v=103
13971 On ch=2 n=29 v=0
14010 On ch=2 n=29 v=102
14066 On ch=2 n=29 v=0
14100 On ch=2 n=29 v=102
14172 On ch=2 n=29 v=0
14220 On ch=2 n=29 v=103
14299 On ch=2 n=29 v=0
14310 On ch=2 n=29 v=98
14354 On ch=2 n=29 v=0
14400 On ch=2 n=27 v=97
14461 On ch=2 n=27 v=0
14490 On ch=2 n=27 v=105
14554 On ch=2 n=27 v=0
14580 On ch=2 n=25 v=105
14658 On ch=2 n=25 v=0
14700 On ch=2 n=25 v=106
14773 On ch=2 n=25 v=0
14790 On ch=2 n=25 v=109
14835 On ch=2 n=25 v=0
14880 On ch=2 n=29 v=103
14931 On ch=2 n=29 v=0
14970 On ch=2 n=29 v=102
15026 On ch=2 n=29 v=0
15060 On ch=2 n=29 v=102
15132 On ch=2 n=29 v=0
15180 On ch=2 n=29 v=103
15259 On ch=2 n=29 v=0
15840 On ch=2 n=29 v=68
15890 On ch=2 n=29 v=0
15900 On ch=2 n=29 v=64
15950 On ch=2 n=29 v=0
15960 On ch=2 n=29 v=63
16010 On ch=2 n=29 v=0
16020 On ch=2 n=29 v=64
16070 On ch=2 n=29 v=0
16080 On ch=2 n=29 v=67
16130 On ch=2 n=29 v=0
16140 On ch=2 n=29 v=64
16190 On ch=2 n=29 v=0
16200 On ch=2 n=29 v=64
16250 On ch=2 n=29 v=0
16260 On ch=2 n=29 v=71
16310 On ch=2 n=29 v=0
16320 On ch=2 n=29 v=68
16370 On ch=2 n=29 v=0
16380 On ch=2 n=29 v=64
16430 On ch=2 n=29 v=0
16440 On ch=2 n=29 v=63
16490 On ch=2 n=29 v=0
16500 On ch=2 n=29 v=64
16550 On ch=2 n=29 v=0
16560 On ch=2 n=29 v=67
16610 On ch=2 n=29 v=0
16620 On ch=2 n=29 v=64
16670 On ch=2 n=29 v=0
16680 On ch=2 n=29 v=64
16730 On ch=2 n=29 v=0
16740 On ch=2 n=29 v=71
16790 On ch=2 n=29 v=0
16800 On ch=2 n=29 v=68
16850 On ch=2 n=29 v=0
16860 On ch=2 n=29 v=64
16910 On ch=2 n=29 v=0
16920 On ch=2 n=29 v=63
16970 On ch=2 n=29 v=0
16980 On ch=2 n=29 v=64
17030 On ch=2 n=29 v=0
17040 On ch=2 n=29 v=67
17090 On ch=2 n=29 v=0
17100 On ch=2 n=29 v=64
17150 On ch=2 n=29 v=0
17160 On ch=2 n=29 v=64
17210 On ch=2 n=29 v=0
17220 On ch=2 n=29 v=71
17270 On ch=2 n=29 v=0
17280 On ch=2 n=29 v=68
17330 On ch=2 n=29 v=0
17340 On ch=2 n=29 v=64
17390 On ch=2 n=29 v=0
17400 On ch=2 n=29 v=63
17450 On ch=2 n=29 v=0
17460 On ch=2 n=29 v=64
17510 On ch=2 n=29 v=0
17520 On ch=2 n=29 v=67
17570 On ch=2 n=29 v=0
17580 On ch=2 n=29 v=64
17630 On ch=2 n=29 v=0
17640 On ch=2 n=29 v=64
17690 On ch=2 n=29 v=0
17700 On ch=2 n=29 v=71
17750 On ch=2 n=29 v=0
17760 On ch=2 n=29 v=68
17810 On ch=2 n=29 v=0
17820 On ch=2 n=29 v=64
17870 On ch=2 n=29 v=0
17880 On ch=2 n=29 v=63
17930 On ch=2 n=29 v=0
17940 On ch=2 n=29 v=64
17990 On ch=2 n=29 v=0
18000 On ch=2 n=29 v=67
18050 On ch=2 n=29 v=0
18060 On ch=2 n=29 v=64
18110 On ch=2 n=29 v=0
18120 On ch=2 n=29 v=64
18170 On ch=2 n=29 v=0
18180 On ch=2 n=29 v=71
18230 On ch=2 n=29 v=0
18240 On ch=2 n=29 v=68
18290 On ch=2 n=29 v=0
18300 On ch=2 n=29 v=64
18350 On ch=2 n=29 v=0
18360 On ch=2 n=29 v=63
18410 On ch=2 n=29 v=0
18420 On ch=2 n=29 v=64
18470 On ch=2 n=29 v=0
18480 On ch=2 n=29 v=67
18530 On ch=2 n=29 v=0
18540 On ch=2 n=29 v=64
18590 On ch=2 n=29 v=0
18600 On ch=2 n=29 v=64
18650 On ch=2 n=29 v=0
18660 On ch=2 n=29 v=71
18710 On ch=2 n=29 v=0
18720 On ch=2 n=29 v=68
18770 On ch=2 n=29 v=0
18780 On ch=2 n=29 v=64
18830 On ch=2 n=29 v=0
18840 On ch=2 n=29 v=63
18890 On ch=2 n=29 v=0
18900 On ch=2 n=29 v=64
18950 On ch=2 n=29 v=0
18960 On ch=2 n=29 v=67
19010 On ch=2 n=29 v=0
19020 On ch=2 n=29 v=64
19070 On ch=2 n=29 v=0
19080 On ch=2 n=29 v=64
19130 On ch=2 n=29 v=0
19140 On ch=2 n=29 v=71
19190 On ch=2 n=29 v=0
19200 On ch=2 n=27 v=97
19261 On ch=2 n=27 v=0
19290 On ch=2 n=27 v=105
19354 On ch=2 n=27 v=0
19380 On ch=2 n=25 v=105
19458 On ch=2 n=25 v=0
19500 On ch=2 n=25 v=106
19573 On ch=2 n=25 v=0
19590 On ch=2 n=25 v=109
19635 On ch=2 n=25 v=0
19680 On ch=2 n=29 v=85
19740 On ch=2 n=41 v=75
19747 On ch=2 n=29 v=0
19800 On ch=2 n=29 v=77
19804 On ch=2 n=41 v=0
19860 On ch=2 n=41 v=85
19861 On ch=2 n=29 v=0
19920 On ch=2 n=29 v=76
19923 On ch=2 n=41 v=0
19974 On ch=2 n=29 v=0
19980 On ch=2 n=41 v=76
20040 On ch=2 n=29 v=75
20051 On ch=2 n=41 v=0
20093 On ch=2 n=29 v=0
20100 On ch=2 n=41 v=79
20157 On ch=2 n=41 v=0
20160 On ch=2 n=27 v=88
20217 On ch=2 n=27 v=0
20220 On ch=2 n=39 v=82
20280 On ch=2 n=27 v=80
20285 On ch=2 n=39 v=0
20340 On ch=2 n=39 v=81
20343 On ch=2 n=27 v=0
20400 On ch=2 n=39 v=0
20400 On ch=2 n=25 v=81
20447 On ch=2 n=25 v=0
20460 On ch=2 n=37 v=76
20519 On ch=2 n=37 v=0
20520 On ch=2 n=25 v=73
20572 On ch=2 n=25 v=0
20580 On ch=2 n=37 v=84
20630 On ch=2 n=37 v=0
20640 On ch=2 n=29 v=84
20700 On ch=2 n=41 v=84
20705 On ch=2 n=29 v=0
20760 On ch=2 n=29 v=77
20765 On ch=2 n=41 v=0
20810 On ch=2 n=29 v=0
20820 On ch=2 n=41 v=84
20880 On ch=2 n=29 v=71
20882 On ch=2 n=41 v=0
20936 On ch=2 n=29 v=0
20940 On ch=2 n=41 v=86
21000 On ch=2 n=29 v=79
21006 On ch=2 n=41 v=0
21052 On ch=2 n=29 v=0
21060 On ch=2 n=41 v=82
21118 On ch=2 n=41 v=0
21120 On ch=2 n=29 v=93
21579 On ch=2 n=29 v=0
21600 On ch=2 n=29 v=82
21660 On ch=2 n=41 v=82
21665 On ch=2 n=29 v=0
21720 On ch=2 n=29 v=84
21729 On ch=2 n=41 v=0
21780 On ch=2 n=41 v=84
21783 On ch=2 n=29 v=0
21840 On ch=2 n=29 v=75
21845 On ch=2 n=41 v=0
21899 On ch=2 n=29 v=0
21900 On ch=2 n=41 v=86
21960 On ch=2 n=29 v=75
21976 On ch=2 n=41 v=0
22020 On ch=2 n=41 v=80
22024 On ch=2 n=29 v=0
22080 On ch=2 n=27 v=88
22082 On ch=2 n=41 v=0
22140 On ch=2 n=39 v=85
22151 On ch=2 n=27 v=0
22200 On ch=2 n=27 v=77
22206 On ch=2 n=39 v=0
22260 On ch=2 n=39 v=90
22277 On ch=2 n=27 v=0
22320 On ch=2 n=25 v=79
22323 On ch=2 n=39 v=0
22380 On ch=2 n=37 v=88
22381 On ch=2 n=25 v=0
22440 On ch=2 n=25 v=90
22446 On ch=2 n=37 v=0
22494 On ch=2 n=25 v=0
22500 On ch=2 n=37 v=93
22560 On ch=2 n=29 v=81
22566 On ch=2 n=37 v=0
22620 On ch=2 n=41 v=86
22625 On ch=2 n=29 v=0
22680 On ch=2 n=29 v=82
22687 On ch=2 n=41 v=0
22733 On ch=2 n=29 v=0
22740 On ch=2 n=41 v=82
22800 On ch=2 n=29 v=79
22812 On ch=2 n=41 v=0
22853 On ch=2 n=29 v=0
22860 On ch=2 n=41 v=85
22920 On ch=2 n=29 v=81
22930 On ch=2 n=41 v=0
22979 On ch=2 n=29 v=0
22980 On ch=2 n=41 v=86
23040 On ch=2 n=29 v=97
23048 On ch=2 n=41 v=0
23096 On ch=2 n=29 v=0
23520 On ch=2 n=29 v=85
23580 On ch=2 n=41 v=75
23587 On ch=2 n=29 v=0
23640 On ch=2 n=29 v=77
23644 On ch=2 n=41 v=0
23700 On ch=2 n=41 v=85
23701 On ch=2 n=29 v=0
23760 On ch=2 n=29 v=76
23763 On ch=2 n=41 v=0
23814 On ch=2 n=29 v=0
23820 On ch=2 n=41 v=76
23880 On ch=2 n=29 v=75
23891 On ch=2 n=41 v=0
23933 On ch=2 n=29 v=0
23940 On ch=2 n=41 v=79
23997 On ch=2 n=41 v=0
24000 On ch=2 n=27 v=88
24057 On ch=2 n=27 v=0
24060 On ch=2 n=39 v=82
24120 On ch=2 n=27 v=80
24125 On ch=2 n=39 v=0
24180 On ch=2 n=39 v=81
24183 On ch=2 n=27 v=0
24240 On ch=2 n=39 v=0
24240 On ch=2 n=25 v=81
24287 On ch=2 n=25 v=0
24300 On ch=2 n=37 v=76
24359 On ch=2 n=37 v=0
24360 On ch=2 n=25 v=73
24412 On ch=2 n=25 v=0
24420 On ch=2 n=37 v=84
24470 On ch=2 n=37 v=0
25440 On ch=2 n=29 v=82
25500 On ch=2 n=41 v=82
25505 On ch=2 n=29 v=0
25560 On ch=2 n=29 v=84
25569 On ch=2 n=41 v=0
25620 On ch=2 n=41 v=84
25623 On ch=2 n=29 v=0
25680 On ch=2 n=29 v=75
25685 On ch=2 n=41 v=0
25739 On ch=2 n=29 v=0
25740 On ch=2 n=41 v=86
25800 On ch=2 n=29 v=75
25816 On ch=2 n=41 v=0
25860 On ch=2 n=41 v=80
25864 On ch=2 n=29 v=0
25920 On ch=2 n=27 v=88
25922 On ch=2 n=41 v=0
25980 On ch=2 n=39 v=85
25991 On ch=2 n=27 v=0
26040 On ch=2 n=27 v=77
26046 On ch=2 n=39 v=0
26100 On ch=2 n=39 v=90
26117 On ch=2 n=27 v=0
26160 On ch=2 n=25 v=79
26163 On ch=2 n=39 v=0
26220 On ch=2 n=37 v=88
26221 On ch=2 n=25 v=0
26280 On ch=2 n=25 v=90
26286 On ch=2 n=37 v=0
26334 On ch=2 n=25 v=0
26340 On ch=2 n=37 v=93
26400 On ch=2 n=29 v=81
26406 On ch=2 n=37 v=0
26460 On ch=2 n=41 v=86
26465 On ch=2 n=29 v=0
26520 On ch=2 n=29 v=82
26527 On ch=2 n=41 v=0
26573 On ch=2 n=29 v=0
26580 On ch=2 n=41 v=82
26640 On ch=2 n=29 v=79
26652 On ch=2 n=41 v=0
26693 On ch=2 n=29 v=0
26700 On ch=2 n=41 v=85
26760 On ch=2 n=29 v=81
26770 On ch=2 n=41 v=0
26819 On ch=2 n=29 v=0
26820 On ch=2 n=41 v=86
26888 On ch=2 n=41 v=0
27360 On ch=2 n=29 v=103
27411 On ch=2 n=29 v=0
27450 On ch=2 n=29 v=102
27506 On ch=2 n=29 v=0
27540 On ch=2 n=29 v=102
27612 On ch=2 n=29 v=0
27660 On ch=2 n=29 v=103
27739 On ch=2 n=29 v=0
27750 On ch=2 n=29 v=98
27794 On ch=2 n=29 v=0
27840 On ch=2 n=27 v=97
27901 On ch=2 n=27 v=0
27930 On ch=2 n=27 v=105
27994 On ch=2 n=27 v=0
28020 On ch=2 n=25 v=105
28098 On ch=2 n=25 v=0
28140 On ch=2 n=25 v=106
28213 On ch=2 n=25 v=0
28230 On ch=2 n=25 v=109
28275 On ch=2 n=25 v=0
28320 On ch=2 n=29 v=103
28371 On ch=2 n=29 v=0
28410 On ch=2 n=29 v=102
28466 On ch=2 n=29 v=0
28500 On ch=2 n=29 v=102
28572 On ch=2 n=29 v=0
28620 On ch=2 n=29 v=103
28699 On ch=2 n=29 v=0
28710 On ch=2 n=29 v=98
28754 On ch=2 n=29 v=0
28800 On ch=2 n=27 v=97
28861 On ch=2 n=27 v=0
28890 On ch=2 n=27 v=105
28954 On ch=2 n=27 v=0
28980 On ch=2 n=25 v=105
29058 On ch=2 n=25 v=0
29100 On ch=2 n=25 v=106
29173 On ch=2 n=25 v=0
29190 On ch=2 n=25 v=109
29235 On ch=2 n=25 v=0
29280 On ch=2 n=29 v=103
29331 On ch=2 n=29 v=0
29370 On ch=2 n=29 v=102
29426 On ch=2 n=29 v=0
29460 On ch=2 n=29 v=102
29532 On ch=2 n=29 v=0
29580 On ch=2 n=29 v=103
29659 On ch=2 n=29 v=0
29670 On ch=2 n=29 v=98
29714 On ch=2 n=29 v=0
29760 On ch=2 n=27 v=97
29821 On ch=2 n=27 v=0
29850 On ch=2 n=27 v=105
29914 On ch=2 n=27 v=0
29940 On ch=2 n=25 v=105
30018 On ch=2 n=25 v=0
30060 On ch=2 n=25 v=106
30133 On ch=2 n=25 v=0
30150 On ch=2 n=25 v=109
30195 On ch=2 n=25 v=0
30240 On ch=2 n=29 v=103
30291 On ch=2 n=29 v=0
30330 On ch=2 n=29 v=102
30386 On ch=2 n=29 v=0
30420 On ch=2 n=29 v=102
30492 On ch=2 n=29 v=0
30540 On ch=2 n=29 v=103
30619 On ch=2 n=29 v=0
30630 On ch=2 n=29 v=98
30674 On ch=2 n=29 v=0
30720 On ch=2 n=27 v=97
30781 On ch=2 n=27 v=0
30810 On ch=2 n=27 v=105
30874 On ch=2 n=27 v=0
30900 On ch=2 n=25 v=105
30978 On ch=2 n=25 v=0
31020 On ch=2 n=25 v=106
31093 On ch=2 n=25 v=0
31110 On ch=2 n=25 v=109
31155 On ch=2 n=25 v=0
31200 On ch=2 n=29 v=103
31251 On ch=2 n=29 v=0
31290 On ch=2 n=29 v=102
31346 On ch=2 n=29 v=0
31380 On ch=2 n=29 v=102
31452 On ch=2 n=29 v=0
31500 On ch=2 n=29 v=103
31579 On ch=2 n=29 v=0
31590 On ch=2 n=29 v=98
31634 On ch=2 n=29 v=0
31680 On ch=2 n=27 v=97
31741 On ch=2 n=27 v=0
31770 On ch=2 n=27 v=105
31834 On ch=2 n=27 v=0
31860 On ch=2 n=25 v=105
31938 On ch=2 n=25 v=0
31980 On ch=2 n=25 v=106
32053 On ch=2 n=25 v=0
32070 On ch=2 n=25 v=109
32115 On ch=2 n=25 v=0
32160 On ch=2 n=29 v=103
32211 On ch=2 n=29 v=0
32250 On ch=2 n=29 v=102
32306 On ch=2 n=29 v=0
32340 On ch=2 n=29 v=102
32412 On ch=2 n=29 v=0
32460 On ch=2 n=29 v=103
32539 On ch=2 n=29 v=0
32550 On ch=2 n=29 v=98
32594 On ch=2 n=29 v=0
32640 On ch=2 n=27 v=97
32701 On ch=2 n=27 v=0
32730 On ch=2 n=27 v=105
32794 On ch=2 n=27 v=0
32820 On ch=2 n=25 v=105
32898 On ch=2 n=25 v=0
32940 On ch=2 n=25 v=106
33013 On ch=2 n=25 v=0
33030 On ch=2 n=25 v=109
33075 On ch=2 n=25 v=0
33120 On ch=2 n=29 v=103
33171 On ch=2 n=29 v=0
33210 On ch=2 n=29 v=102
33266 On ch=2 n=29 v=0
33300 On ch=2 n=29 v=102
33372 On ch=2 n=29 v=0
33420 On ch=2 n=29 v=103
33499 On ch=2 n=29 v=0
33510 On ch=2 n=29 v=98
33554 On ch=2 n=29 v=0
33600 On ch=2 n=27 v=97
33661 On ch=2 n=27 v=0
33690 On ch=2 n=27 v=105
33754 On ch=2 n=27 v=0
33780 On ch=2 n=25 v=105
33858 On ch=2 n=25 v=0
33900 On ch=2 n=25 v=106
33973 On ch=2 n=25 v=0
33990 On ch=2 n=25 v=109
34035 On ch=2 n=25 v=0
34080 On ch=2 n=29 v=103
34131 On ch=2 n=29 v=0
34170 On ch=2 n=29 v=102
34226 On ch=2 n=29 v=0
34260 On ch=2 n=29 v=102
34332 On ch=2 n=29 v=0
34380 On ch=2 n=29 v=103
34459 On ch=2 n=29 v=0
34470 On ch=2 n=29 v=98
34514 On ch=2 n=29 v=0
34560 On ch=2 n=27 v=97
34621 On ch=2 n=27 v=0
34650 On ch=2 n=27 v=105
34714 On ch=2 n=27 v=0
34740 On ch=2 n=25 v=105
34818 On ch=2 n=25 v=0
36000 On ch=2 n=29 v=68
36050 On ch=2 n=29 v=0
36060 On ch=2 n=29 v=64
36110 On ch=2 n=29 v=0
36120 On ch=2 n=29 v=63
36170 On ch=2 n=29 v=0
36180 On ch=2 n=29 v=64
36230 On ch=2 n=29 v=0
36240 On ch=2 n=29 v=67
36290 On ch=2 n=29 v=0
36300 On ch=2 n=29 v=64
36350 On ch=2 n=29 v=0
36360 On ch=2 n=29 v=64
36410 On ch=2 n=29 v=0
36420 On ch=2 n=29 v=71
36470 On ch=2 n=29 v=0
36480 On ch=2 n=29 v=68
36530 On ch=2 n=29 v=0
36540 On ch=2 n=29 v=64
36590 On ch=2 n=29 v=0
36600 On ch=2 n=29 v=63
36650 On ch=2 n=29 v=0
36660 On ch=2 n=29 v=64
36710 On ch=2 n=29 v=0
36720 On ch=2 n=29 v=67
36770 On ch=2 n=29 v=0
36780 On ch=2 n=29 v=64
36830 On ch=2 n=29 v=0
36840 On ch=2 n=29 v=64
36890 On ch=2 n=29 v=0
36900 On ch=2 n=29 v=71
36950 On ch=2 n=29 v=0
36960 On ch=2 n=29 v=68
37010 On ch=2 n=29 v=0
37020 On ch=2 n=29 v=64
37070 On ch=2 n=29 v=0
37080 On ch=2 n=29 v=63
37130 On ch=2 n=29 v=0
37140 On ch=2 n=29 v=64
37190 On ch=2 n=29 v=0
37200 On ch=2 n=29 v=67
37250 On ch=2 n=29 v=0
37260 On ch=2 n=29 v=64
37310 On ch=2 n=29 v=0
37320 On ch=2 n=29 v=64
37370 On ch=2 n=29 v=0
37380 On ch=2 n=29 v=71
37430 On ch=2 n=29 v=0
37440 On ch=2 n=29 v=68
37490 On ch=2 n=29 v=0
37500 On ch=2 n=29 v=64
37550 On ch=2 n=29 v=0
37560 On ch=2 n=29 v=63
37610 On ch=2 n=29 v=0
37620 On ch=2 n=29 v=64
37670 On ch=2 n=29 v=0
37680 On ch=2 n=29 v=67
37730 On ch=2 n=29 v=0
37740 On ch=2 n=29 v=64
37790 On ch=2 n=29 v=0
37800 On ch=2 n=29 v=64
37850 On ch=2 n=29 v=0
37860 On ch=2 n=29 v=71
37910 On ch=2 n=29 v=0
37920 On ch=2 n=29 v=68
37970 On ch=2 n=29 v=0
37980 On ch=2 n=29 v=64
38030 On ch=2 n=29 v=0
38040 On ch=2 n=29 v=63
38090 On ch=2 n=29 v=0
38100 On ch=2 n=29 v=64
38150 On ch=2 n=29 v=0
38160 On ch=2 n=29 v=67
38210 On ch=2 n=29 v=0
38220 On ch=2 n=29 v=64
38270 On ch=2 n=29 v=0
38280 On ch=2 n=29 v=64
38330 On ch=2 n=29 v=0
38340 On ch=2 n=29 v=71
38390 On ch=2 n=29 v=0
38400 On ch=2 n=29 v=68
38450 On ch=2 n=29 v=0
38460 On ch=2 n=29 v=64
38510 On ch=2 n=29 v=0
38520 On ch=2 n=29 v=63
38570 On ch=2 n=29 v=0
38580 On ch=2 n=29 v=64
38630 On ch=2 n=29 v=0
38640 On ch=2 n=29 v=67
38690 On ch=2 n=29 v=0
38700 On ch=2 n=29 v=64
38750 On ch=2 n=29 v=0
38760 On ch=2 n=29 v=64
38810 On ch=2 n=29 v=0
38820 On ch=2 n=29 v=71
38870 On ch=2 n=29 v=0
38880 On ch=2 n=29 v=68
38930 On ch=2 n=29 v=0
38940 On ch=2 n=29 v=64
38990 On ch=2 n=29 v=0
39000 On ch=2 n=29 v=63
39050 On ch=2 n=29 v=0
39060 On ch=2 n=29 v=64
39110 On ch=2 n=29 v=0
39120 On ch=2 n=29 v=67
39170 On ch=2 n=29 v=0
39180 On ch=2 n=29 v=64
39230 On ch=2 n=29 v=0
39240 On ch=2 n=29 v=64
39290 On ch=2 n=29 v=0
39300 On ch=2 n=29 v=71
39350 On ch=2 n=29 v=0
39360 On ch=2 n=29 v=68
39410 On ch=2 n=29 v=0
39420 On ch=2 n=29 v=64
39470 On ch=2 n=29 v=0
39480 On ch=2 n=29 v=63
39530 On ch=2 n=29 v=0
39540 On ch=2 n=29 v=64
39590 On ch=2 n=29 v=0
39600 On ch=2 n=29 v=67
39650 On ch=2 n=29 v=0
39660 On ch=2 n=29 v=64
39710 On ch=2 n=29 v=0
39720 On ch=2 n=29 v=64
39770 On ch=2 n=29 v=0
39780 On ch=2 n=29 v=71
39830 On ch=2 n=29 v=0
39840 On ch=2 n=29 v=103
39891 On ch=2 n=29 v=0
39930 On ch=2 n=29 v=102
39986 On ch=2 n=29 v=0
40020 On ch=2 n=29 v=102
40092 On ch=2 n=29 v=0
40140 On ch=2 n=29 v=103
40219 On ch=2 n=29 v=0
40230 On ch=2 n=29 v=98
40274 On ch=2 n=29 v=0
40320 On ch=2 n=27 v=97
40381 On ch=2 n=27 v=0
40410 On ch=2 n=27 v=105
40474 On ch=2 n=27 v=0
40500 On ch=2 n=25 v=105
40578 On ch=2 n=25 v=0
40620 On ch=2 n=25 v=106
40693 On ch=2 n=25 v=0
40710 On ch=2 n=25 v=109
40755 On ch=2 n=25 v=0
40800 On ch=2 n=29 v=103
40851 On ch=2 n=29 v=0
40890 On ch=2 n=29 v=102
40946 On ch=2 n=29 v=0
40980 On ch=2 n=29 v=102
41052 On ch=2 n=29 v=0
41100 On ch=2 n=29 v=103
41179 On ch=2 n=29 v=0
41190 On ch=2 n=29 v=98
41234 On ch=2 n=29 v=0
41760 On ch=2 n=29 v=103
41811 On ch=2 n=29 v=0
41850 On ch=2 n=29 v=102
41906 On ch=2 n=29 v=0
41940 On ch=2 n=29 v=102
42012 On ch=2 n=29 v=0
42060 On ch=2 n=29 v=103
42139 On ch=2 n=29 v=0
42150 On ch=2 n=29 v=98
42194 On ch=2 n=29 v=0
42240 On ch=2 n=27 v=97
42301 On ch=2 n=27 v=0
42330 On ch=2 n=27 v=105
42394 On ch=2 n=27 v=0
42420 On ch=2 n=25 v=105
42498 On ch=2 n=25 v=0
42540 On ch=2 n=25 v=106
42613 On ch=2 n=25 v=0
42630 On ch=2 n=25 v=109
42675 On ch=2 n=25 v=0
42720 On ch=2 n=29 v=103
42771 On ch=2 n=29 v=0
42810 On ch=2 n=29 v=102
42866 On ch=2 n=29 v=0
42900 On ch=2 n=29 v=102
42972 On ch=2 n=29 v=0
43020 On ch=2 n=29 v=103
43099 On ch=2 n=29 v=0
43110 On ch=2 n=29 v=98
43154 On ch=2 n=29 v=0
43200 On ch=2 n=27 v=97
43261 On ch=2 n=27 v=0
43290 On ch=2 n=27 v=105
43354 On ch=2 n=27 v=0
43380 On ch=2 n=25 v=105
43458 On ch=2 n=25 v=0
43500 On ch=2 n=25 v=106
43573 On ch=2 n=25 v=0
43590 On ch=2 n=25 v=109
43635 On ch=2 n=25 v=0
45600 On ch=2 n=29 v=103
45651 On ch=2 n=29 v=0
45690 On ch=2 n=29 v=102
45746 On ch=2 n=29 v=0
45780 On ch=2 n=29 v=102
45852 On ch=2 n=29 v=0
45900 On ch=2 n=29 v=103
45979 On ch=2 n=29 v=0
45990 On ch=2 n=29 v=98
46034 On ch=2 n=29 v=0
46080 On ch=2 n=27 v=97
46141 On ch=2 n=27 v=0
46170 On ch=2 n=27 v=105
46234 On ch=2 n=27 v=0
46260 On ch=2 n=25 v=105
46338 On ch=2 n=25 v=0
46380 On ch=2 n=25 v=106
46453 On ch=2 n=25 v=0
46470 On ch=2 n=25 v=109
46515 On ch=2 n=25 v=0
46560 On ch=2 n=29 v=103
46611 On ch=2 n=29 v=0
46650 On ch=2 n=29 v=102
46706 On ch=2 n=29 v=0
46740 On ch=2 n=29 v=102
46812 On ch=2 n=29 v=0
46860 On ch=2 n=29 v=103
46939 On ch=2 n=29 v=0
46950 On ch=2 n=29 v=98
46994 On ch=2 n=29 v=0
47040 On ch=2 n=27 v=97
47101 On ch=2 n=27 v=0
47130 On ch=2 n=27 v=105
47194 On ch=2 n=27 v=0
47220 On ch=2 n=25 v=105
47298 On ch=2 n=25 v=0
47340 On ch=2 n=25 v=106
47413 On ch=2 n=25 v=0
47430 On ch=2 n=25 v=109
47475 On ch=2 n=25 v=0
47520 On ch=2 n=29 v=103
47571 On ch=2 n=29 v=0
47610 On ch=2 n=29 v=102
47666 On ch=2 n=29 v=0
47700 On ch=2 n=29 v=102
47772 On ch=2 n=29 v=0
47820 On ch=2 n=29 v=103
47899 On ch=2 n=29 v=0
47910 On ch=2 n=29 v=98
47954 On ch=2 n=29 v=0
48000 On ch=2 n=29 v=103
48051 On ch=2 n=29 v=0
48090 On ch=2 n=29 v=102
48146 On ch=2 n=29 v=0
48180 On ch=2 n=29 v=102
48252 On ch=2 n=29 v=0
48300 On ch=2 n=29 v=103
48379 On ch=2 n=29 v=0
48390 On ch=2 n=29 v=98
48434 On ch=2 n=29 v=0
48480 On ch=2 n=29 v=103
48531 On ch=2 n=29 v=0
48570 On ch=2 n=29 v=102
48626 On ch=2 n=29 v=0
48660 On ch=2 n=29 v=102
48732 On ch=2 n=29 v=0
48780 On ch=2 n=29 v=103
48859 On ch=2 n=29 v=0
48870 On ch=2 n=29 v=98
48914 On ch=2 n=29 v=0
48960 On ch=2 n=29 v=103
49011 On ch=2 n=29 v=0
49050 On ch=2 n=29 v=102
49106 On ch=2 n=29 v=0
49140 On ch=2 n=29 v=102
49212 On ch=2 n=29 v=0
49260 On ch=2 n=29 v=103
49339 On ch=2 n=29 v=0
49350 On ch=2 n=29 v=98
49394 On ch=2 n=29 v=0
49440 On ch=2 n=29 v=103
49491 On ch=2 n=29 v=0
49530 On ch=2 n=29 v=102
49586 On ch=2 n=29 v=0
49620 On ch=2 n=29 v=102
49692 On ch=2 n=29 v=0
49740 On ch=2 n=29 v=103
49819 On ch=2 n=29 v=0
49830 On ch=2 n=29 v=98
49874 On ch=2 n=29 v=0
49920 On ch=2 n=29 v=103
49971 On ch=2 n=29 v=0
50010 On ch=2 n=29 v=102
50066 On ch=2 n=29 v=0
50100 On ch=2 n=29 v=102
50172 On ch=2 n=29 v=0
50220 On ch=2 n=29 v=103
50299 On ch=2 n=29 v=0
50310 On ch=2 n=29 v=98
50354 On ch=2 n=29 v=0
50400 On ch=2 n=29 v=103
50451 On ch=2 n=29 v=0
50490 On ch=2 n=29 v=102
50546 On ch=2 n=29 v=0
50580 On ch=2 n=29 v=102
50652 On ch=2 n=29 v=0
50700 On ch=2 n=29 v=103
50779 On ch=2 n=29 v=0
50790 On ch=2 n=29 v=98
50834 On ch=2 n=29 v=0
50880 On ch=2 n=29 v=103
50931 On ch=2 n=29 v=0
50970 On ch=2 n=29 v=102
51026 On ch=2 n=29 v=0
51060 On ch=2 n=29 v=102
51132 On ch=2 n=29 v=0
51180 On ch=2 n=29 v=103
51259 On ch=2 n=29 v=0
51270 On ch=2 n=29 v=98
51314 On ch=2 n=29 v=0
51360 On ch=2 n=29 v=103
51411 On ch=2 n=29 v=0
51450 On ch=2 n=29 v=102
51506 On ch=2 n=29 v=0
51540 On ch=2 n=29 v=102
51612 On ch=2 n=29 v=0
51660 On ch=2 n=29 v=103
51739 On ch=2 n=29 v=0
51750 On ch=2 n=29 v=98
51794 On ch=2 n=29 v=0
51840 On ch=2 n=27 v=97
51901 On ch=2 n=27 v=0
51930 On ch=2 n=27 v=105
51994 On ch=2 n=27 v=0
52020 On ch=2 n=25 v=105
52098 On ch=2 n=25 v=0
52140 On ch=2 n=25 v=106
52213 On ch=2 n=25 v=0
52230 On ch=2 n=25 v=109
52275 On ch=2 n=25 v=0
52320 On ch=2 n=29 v=103
52371 On ch=2 n=29 v=0
52410 On ch=2 n=29 v=102
52466 On ch=2 n=29 v=0
52500 On ch=2 n=29 v=102
52572 On ch=2 n=29 v=0
52620 On ch=2 n=29 v=103
52699 On ch=2 n=29 v=0
52710 On ch=2 n=29 v=98
52754 On ch=2 n=29 v=0
52800 On ch=2 n=27 v=97
52861 On ch=2 n=27 v=0
52890 On ch=2 n=27 v=105
52954 On ch=2 n=27 v=0
52980 On ch=2 n=25 v=105
53058 On ch=2 n=25 v=0
53100 On ch=2 n=25 v=106
53173 On ch=2 n=25 v=0
53190 On ch=2 n=25 v=109
53235 On ch=2 n=25 v=0
53280 On ch=2 n=29 v=103
53331 On ch=2 n=29 v=0
53370 On ch=2 n=29 v=102
53426 On ch=2 n=29 v=0
53460 On ch=2 n=29 v=102
53532 On ch=2 n=29 v=0
53580 On ch=2 n=29 v=103
53659 On ch=2 n=29 v=0
53670 On ch=2 n=29 v=98
53714 On ch=2 n=29 v=0
53760 On ch=2 n=27 v=97
53821 On ch=2 n=27 v=0
53850 On ch=2 n=27 v=105
53914 On ch=2 n=27 v=0
53940 On ch=2 n=25 v=105
54018 On ch=2 n=25 v=0
54060 On ch=2 n=25 v=106
54133 On ch=2 n=25 v=0
54150 On ch=2 n=25 v=109
54195 On ch=2 n=25 v=0
54240 On ch=2 n=29 v=103
54291 On ch=2 n=29 v=0
54330 On ch=2 n=29 v=102
54386 On ch=2 n=29 v=0
54420 On ch=2 n=29 v=102
54492 On ch=2 n=29 v=0
54540 On ch=2 n=29 v=103
54619 On ch=2 n=29 v=0
54630 On ch=2 n=29 v=98
54674 On ch=2 n=29 v=0
54720 On ch=2 n=27 v=97
54781 On ch=2 n=27 v=0
54810 On ch=2 n=27 v=105
54874 On ch=2 n=27 v=0
54900 On ch=2 n=25 v=105
54978 On ch=2 n=25 v=0
55020 On ch=2 n=25 v=106
55093 On ch=2 n=25 v=0
55110 On ch=2 n=25 v=109
55155 On ch=2 n=25 v=0
55200 On ch=2 n=29 v=93
55260 On ch=2 n=29 v=0
55260 On ch=2 n=41 v=93
55320 On ch=2 n=41 v=0
55320 On ch=2 n=29 v=92
55380 On ch=2 n=29 v=0
55380 On ch=2 n=41 v=90
55440 On ch=2 n=41 v=0
55440 On ch=2 n=29 v=82
55500 On ch=2 n=29 v=0
55500 On ch=2 n=41 v=85
55560 On ch=2 n=41 v=0
55560 On ch=2 n=29 v=79
55620 On ch=2 n=29 v=0
55620 On ch=2 n=41 v=86
55680 On ch=2 n=41 v=0
55680 On ch=2 n=25 v=100
55740 On ch=2 n=25 v=0
55740 On ch=2 n=37 v=93
55800 On ch=2 n=37 v=0
55800 On ch=2 n=25 v=93
55860 On ch=2 n=25 v=0
55860 On ch=2 n=37 v=95
55920 On ch=2 n=37 v=0
55920 On ch=2 n=27 v=92
55980 On ch=2 n=27 v=0
55980 On ch=2 n=39 v=98
56040 On ch=2 n=39 v=0
56040 On ch=2 n=27 v=102
56100 On ch=2 n=27 v=0
56100 On ch=2 n=39 v=95
56160 On ch=2 n=39 v=0
56160 On ch=2 n=29 v=84
56220 On ch=2 n=29 v=0
56220 On ch=2 n=41 v=97
56280 On ch=2 n=41 v=0
56280 On ch=2 n=29 v=93
56340 On ch=2 n=29 v=0
56340 On ch=2 n=41 v=97
56400 On ch=2 n=41 v=0
56400 On ch=2 n=29 v=88
56460 On ch=2 n=29 v=0
56460 On ch=2 n=41 v=100
56520 On ch=2 n=41 v=0
56520 On ch=2 n=29 v=90
56580 On ch=2 n=29 v=0
56580 On ch=2 n=41 v=92
56640 On ch=2 n=41 v=0
56640 On ch=2 n=25 v=98
56700 On ch=2 n=25 v=0
56700 On ch=2 n=37 v=93
56760 On ch=2 n=37 v=0
56760 On ch=2 n=25 v=97
56820 On ch=2 n=25 v=0
56820 On ch=2 n=37 v=102
56880 On ch=2 n=37 v=0
56880 On ch=2 n=27 v=102
56940 On ch=2 n=27 v=0
56940 On ch=2 n=39 v=102
57000 On ch=2 n=39 v=0
57000 On ch=2 n=27 v=103
57060 On ch=2 n=27 v=0
57060 On ch=2 n=39 v=102
57120 On ch=2 n=39 v=0
57120 On ch=2 n=29 v=93
57180 On ch=2 n=29 v=0
57180 On ch=2 n=41 v=93
57240 On ch=2 n=41 v=0
57240 On ch=2 n=29 v=92
57300 On ch=2 n=29 v=0
57300 On ch=2 n=41 v=90
57360 On ch=2 n=41 v=0
57360 On ch=2 n=29 v=82
57420 On ch=2 n=29 v=0
57420 On ch=2 n=41 v=85
57480 On ch=2 n=41 v=0
57480 On ch=2 n=29 v=79
57540 On ch=2 n=29 v=0
57540 On ch=2 n=41 v=86
57600 On ch=2 n=41 v=0
57600 On ch=2 n=25 v=100
57660 On ch=2 n=25 v=0
57660 On ch=2 n=37 v=93
57720 On ch=2 n=37 v=0
57720 On ch=2 n=25 v=93
57780 On ch=2 n=25 v=0
57780 On ch=2 n=37 v=95
57840 On ch=2 n=37 v=0
57840 On ch=2 n=27 v=92
57900 On ch=2 n=27 v=0
57900 On ch=2 n=39 v=98
57960 On ch=2 n=39 v=0
57960 On ch=2 n=27 v=102
58020 On ch=2 n=27 v=0
58020 On ch=2 n=39 v=95
58080 On ch=2 n=39 v=0
58080 On ch=2 n=29 v=84
58140 On ch=2 n=29 v=0
58140 On ch=2 n=41 v=97
58200 On ch=2 n=41 v=0
58200 On ch=2 n=29 v=93
58260 On ch=2 n=29 v=0
58260 On ch=2 n=41 v=97
58320 On ch=2 n=41 v=0
58320 On ch=2 n=29 v=88
58380 On ch=2 n=29 v=0
58380 On ch=2 n=41 v=100
58440 On ch=2 n=41 v=0
58440 On ch=2 n=29 v=90
58500 On ch=2 n=29 v=0
58500 On ch=2 n=41 v=92
58560 On ch=2 n=41 v=0
58560 On ch=2 n=25 v=98
58620 On ch=2 n=25 v=0
58620 On ch=2 n=37 v=93
58680 On ch=2 n=37 v=0
58680 On ch=2 n=25 v=97
58740 On ch=2 n=25 v=0
58740 On ch=2 n=37 v=102
58800 On ch=2 n=37 v=0
58800 On ch=2 n=27 v=102
58860 On ch=2 n=27 v=0
58860 On ch=2 n=39 v=102
58920 On ch=2 n=39 v=0
58920 On ch=2 n=27 v=103
58980 On ch=2 n=27 v=0
58980 On ch=2 n=39 v=102
59040 On ch=2 n=39 v=0
60000 On ch=2 n=29 v=103
60051 On ch=2 n=29 v=0
60090 On ch=2 n=29 v=102
60146 On ch=2 n=29 v=0
60180 On ch=2 n=29 v=102
60252 On ch=2 n=29 v=0
60300 On ch=2 n=29 v=103
60379 On ch=2 n=29 v=0
60390 On ch=2 n=29 v=98
60434 On ch=2 n=29 v=0
60480 On ch=2 n=27 v=97
60541 On ch=2 n=27 v=0
60570 On ch=2 n=27 v=105
60634 On ch=2 n=27 v=0
60660 On ch=2 n=25 v=105
60738 On ch=2 n=25 v=0
60780 On ch=2 n=25 v=106
60853 On ch=2 n=25 v=0
60870 On ch=2 n=25 v=109
60915 On ch=2 n=25 v=0
60960 On ch=2 n=29 v=103
61011 On ch=2 n=29 v=0
61050 On ch=2 n=29 v=102
61106 On ch=2 n=29 v=0
61140 On ch=2 n=29 v=102
61212 On ch=2 n=29 v=0
61260 On ch=2 n=29 v=103
61339 On ch=2 n=29 v=0
61350 On ch=2 n=29 v=98
61394 On ch=2 n=29 v=0
61440 On ch=2 n=27 v=97
61501 On ch=2 n=27 v=0
61530 On ch=2 n=27 v=105
61594 On ch=2 n=27 v=0
61620 On ch=2 n=25 v=105
61698 On ch=2 n=25 v=0
61740 On ch=2 n=25 v=106
61813 On ch=2 n=25 v=0
61830 On ch=2 n=25 v=109
61875 On ch=2 n=25 v=0
61920 On ch=2 n=29 v=103
61971 On ch=2 n=29 v=0
62010 On ch=2 n=29 v=102
62066 On ch=2 n=29 v=0
62100 On ch=2 n=29 v=102
62172 On ch=2 n=29 v=0
62220 On ch=2 n=29 v=103
62299 On ch=2 n=29 v=0
62310 On ch=2 n=29 v=98
62354 On ch=2 n=29 v=0
62400 On ch=2 n=27 v=97
62461 On ch=2 n=27 v=0
62490 On ch=2 n=27 v=105
62554 On ch=2 n=27 v=0
62580 On ch=2 n=25 v=105
62658 On ch=2 n=25 v=0
62700 On ch=2 n=25 v=106
62773 On ch=2 n=25 v=0
62790 On ch=2 n=25 v=109
62835 On ch=2 n=25 v=0
62880 On ch=2 n=29 v=103
62931 On ch=2 n=29 v=0
62970 On ch=2 n=29 v=102
63026 On ch=2 n=29 v=0
63060 On ch=2 n=29 v=102
63132 On ch=2 n=29 v=0
63180 On ch=2 n=29 v=103
63259 On ch=2 n=29 v=0
63270 On ch=2 n=29 v=98
63314 On ch=2 n=29 v=0
63360 On ch=2 n=27 v=97
63421 On ch=2 n=27 v=0
63450 On ch=2 n=27 v=105
63514 On ch=2 n=27 v=0
63540 On ch=2 n=25 v=105
63618 On ch=2 n=25 v=0
63660 On ch=2 n=25 v=106
63733 On ch=2 n=25 v=0
63750 On ch=2 n=25 v=109
63795 On ch=2 n=25 v=0
63840 On ch=2 n=29 v=93
63900 On ch=2 n=29 v=0
63900 On ch=2 n=41 v=93
63960 On ch=2 n=41 v=0
63960 On ch=2 n=29 v=92
64020 On ch=2 n=29 v=0
64020 On ch=2 n=41 v=90
64080 On ch=2 n=41 v=0
64080 On ch=2 n=29 v=82
64140 On ch=2 n=29 v=0
64140 On ch=2 n=41 v=85
64200 On ch=2 n=41 v=0
64200 On ch=2 n=29 v=79
64260 On ch=2 n=29 v=0
64260 On ch=2 n=41 v=86
64320 On ch=2 n=41 v=0
64320 On ch=2 n=25 v=100
64380 On ch=2 n=25 v=0
64380 On ch=2 n=37 v=93
64440 On ch=2 n=37 v=0
64440 On ch=2 n=25 v=93
64500 On ch=2 n=25 v=0
64500 On ch=2 n=37 v=95
64560 On ch=2 n=37 v=0
64560 On ch=2 n=27 v=92
64620 On ch=2 n=27 v=0
64620 On ch=2 n=39 v=98
64680 On ch=2 n=39 v=0
64680 On ch=2 n=27 v=102
64740 On ch=2 n=27 v=0
64740 On ch=2 n=39 v=95
64800 On ch=2 n=39 v=0
64800 On ch=2 n=29 v=84
64860 On ch=2 n=29 v=0
64860 On ch=2 n=41 v=97
64920 On ch=2 n=41 v=0
64920 On ch=2 n=29 v=93
64980 On ch=2 n=29 v=0
64980 On ch=2 n=41 v=97
65040 On ch=2 n=41 v=0
65040 On ch=2 n=29 v=88
65100 On ch=2 n=29 v=0
65100 On ch=2 n=41 v=100
65160 On ch=2 n=41 v=0
65160 On ch=2 n=29 v=90
65220 On ch=2 n=29 v=0
65220 On ch=2 n=41 v=92
65280 On ch=2 n=41 v=0
65280 On ch=2 n=25 v=98
65340 On ch=2 n=25 v=0
65340 On ch=2 n=37 v=93
65400 On ch=2 n=37 v=0
65400 On ch=2 n=25 v=97
65460 On ch=2 n=25 v=0
65460 On ch=2 n=37 v=102
65520 On ch=2 n=37 v=0
65520 On ch=2 n=27 v=102
65580 On ch=2 n=27 v=0
65580 On ch=2 n=39 v=102
65640 On ch=2 n=39 v=0
65640 On ch=2 n=27 v=103
65700 On ch=2 n=27 v=0
65700 On ch=2 n=39 v=102
65760 On ch=2 n=39 v=0
65760 On ch=2 n=29 v=93
65820 On ch=2 n=29 v=0
65820 On ch=2 n=41 v=93
65880 On ch=2 n=41 v=0
65880 On ch=2 n=29 v=92
65940 On ch=2 n=29 v=0
65940 On ch=2 n=41 v=90
66000 On ch=2 n=41 v=0
66000 On ch=2 n=29 v=82
66060 On ch=2 n=29 v=0
66060 On ch=2 n=41 v=85
66120 On ch=2 n=41 v=0
66120 On ch=2 n=29 v=79
66180 On ch=2 n=29 v=0
66180 On ch=2 n=41 v=86
66240 On ch=2 n=41 v=0
66240 On ch=2 n=25 v=100
66300 On ch=2 n=25 v=0
66300 On ch=2 n=37 v=93
66360 On ch=2 n=37 v=0
66360 On ch=2 n=25 v=93
66420 On ch=2 n=25 v=0
66420 On ch=2 n=37 v=95
66480 On ch=2 n=37 v=0
66480 On ch=2 n=27 v=92
66540 On ch=2 n=27 v=0
66540 On ch=2 n=39 v=98
66600 On ch=2 n=39 v=0
66600 On ch=2 n=27 v=102
66660 On ch=2 n=27 v=0
66660 On ch=2 n=39 v=95
66720 On ch=2 n=39 v=0
66720 On ch=2 n=29 v=84
66780 On ch=2 n=29 v=0
66780 On ch=2 n=41 v=97
66840 On ch=2 n=41 v=0
66840 On ch=2 n=29 v=93
66900 On ch=2 n=29 v=0
66900 On ch=2 n=41 v=97
66960 On ch=2 n=41 v=0
66960 On ch=2 n=29 v=88
67020 On ch=2 n=29 v=0
67020 On ch=2 n=41 v=100
67080 On ch=2 n=41 v=0
67080 On ch=2 n=29 v=90
67140 On ch=2 n=29 v=0
67140 On ch=2 n=41 v=92
67200 On ch=2 n=41 v=0
67200 On ch=2 n=29 v=106
67214 On ch=2 n=29 v=0
67260 On ch=2 n=29 v=100
67277 On ch=2 n=29 v=0
67320 On ch=2 n=29 v=110
67337 On ch=2 n=29 v=0
67350 On ch=2 n=29 v=102
67368 On ch=2 n=29 v=0
67410 On ch=2 n=29 v=109
67435 On ch=2 n=29 v=0
67435 Meta TrkEnd
TrkEnd
MTrk
0 Meta TrkName "Sawtooth lead"
0 PrCh ch=3 p=81
0 Par ch=3 c=7 v=100
483 Par ch=3 c=91 v=100
483 Par ch=3 c=93 v=100
483 Par ch=3 c=6 v=49
483 Par ch=3 c=101 v=0
484 Par ch=3 c=100 v=0
485 Par ch=3 c=6 v=7
486 Par ch=3 c=38 v=0
486 Par ch=3 c=1 v=40
15840 On ch=3 n=77 v=110
15859 On ch=3 n=77 v=0
15900 On ch=3 n=77 v=106
15920 On ch=3 n=77 v=0
15960 On ch=3 n=77 v=106
15979 On ch=3 n=77 v=0
16020 On ch=3 n=77 v=106
16035 On ch=3 n=77 v=0
16066 Pb ch=3 v=8322
16068 Pb ch=3 v=8712
16070 Pb ch=3 v=9102
16072 Pb ch=3 v=9622
16074 Pb ch=3 v=10012
16076 Pb ch=3 v=10532
16079 Pb ch=3 v=11312
16080 On ch=3 n=77 v=106
16081 Pb ch=3 v=12092
16083 Pb ch=3 v=12872
16085 Pb ch=3 v=13652
16087 Pb ch=3 v=14432
16089 Pb ch=3 v=15082
16091 Pb ch=3 v=15862
16093 Pb ch=3 v=16382
16122 On ch=3 n=77 v=0
16129 Pb ch=3 v=16122
16131 Pb ch=3 v=13912
16133 Pb ch=3 v=9882
16135 Pb ch=3 v=7296
16137 Pb ch=3 v=5888
16139 Pb ch=3 v=6784
16140 On ch=3 n=77 v=109
16141 Pb ch=3 v=8192
16143 Pb ch=3 v=10012
16145 Pb ch=3 v=9492
16148 Pb ch=3 v=8192
16152 Pb ch=3 v=8582
16154 Pb ch=3 v=8322
16156 Pb ch=3 v=8192
16157 On ch=3 n=77 v=0
16158 Pb ch=3 v=8192
16164 Pb ch=3 v=8192
16170 On ch=3 n=77 v=98
16191 On ch=3 n=77 v=0
16281 Pb ch=3 v=8322
16283 Pb ch=3 v=8842
16285 Pb ch=3 v=9362
16288 Pb ch=3 v=10142
16290 On ch=3 n=77 v=106
16290 Pb ch=3 v=10792
16292 Pb ch=3 v=11702
16294 Pb ch=3 v=12482
16296 Pb ch=3 v=13002
16298 Pb ch=3 v=13522
16300 Pb ch=3 v=14042
16302 Pb ch=3 v=14822
16304 Pb ch=3 v=15472
16307 Pb ch=3 v=16252
16308 Pb ch=3 v=16382
16331 On ch=3 n=77 v=0
16338 Pb ch=3 v=15602
16340 Pb ch=3 v=12742
16342 Pb ch=3 v=8452
16344 Pb ch=3 v=6784
16346 Pb ch=3 v=6400
16348 Pb ch=3 v=8064
16350 On ch=3 n=77 v=105
16350 Pb ch=3 v=9232
16352 Pb ch=3 v=9882
16354 Pb ch=3 v=8452
16356 Pb ch=3 v=8192
16361 Pb ch=3 v=8582
16363 Pb ch=3 v=8192
16365 On ch=3 n=77 v=0
16365 Pb ch=3 v=8192
16380 On ch=3 n=77 v=97
16400 On ch=3 n=77 v=0
16440 On ch=3 n=77 v=106
16459 On ch=3 n=77 v=0
16500 On ch=3 n=77 v=105
16517 On ch=3 n=77 v=0
16560 On ch=3 n=77 v=109
16581 On ch=3 n=77 v=0
16800 On ch=3 n=77 v=103
16820 On ch=3 n=77 v=0
16860 On ch=3 n=77 v=103
16878 On ch=3 n=77 v=0
16920 On ch=3 n=77 v=97
16937 On ch=3 n=77 v=0
16980 On ch=3 n=77 v=102
16994 On ch=3 n=77 v=0
17031 Pb ch=3 v=8452
17034 Pb ch=3 v=8972
17035 Pb ch=3 v=9362
17038 Pb ch=3 v=10012
17040 On ch=3 n=77 v=106
17040 Pb ch=3 v=10792
17042 Pb ch=3 v=11702
17044 Pb ch=3 v=12482
17046 Pb ch=3 v=13262
17048 Pb ch=3 v=13912
17050 Pb ch=3 v=14692
17052 Pb ch=3 v=15342
17054 Pb ch=3 v=16122
17056 Pb ch=3 v=16382
17081 On ch=3 n=77 v=0
17090 Pb ch=3 v=15472
17092 Pb ch=3 v=12612
17094 Pb ch=3 v=8192
17096 Pb ch=3 v=6272
17098 Pb ch=3 v=5888
17100 On ch=3 n=77 v=105
17100 Pb ch=3 v=7680
17102 Pb ch=3 v=9102
17104 Pb ch=3 v=10142
17106 Pb ch=3 v=9102
17108 Pb ch=3 v=8192
17113 Pb ch=3 v=8712
17114 On ch=3 n=77 v=0
17115 Pb ch=3 v=8192
17130 On ch=3 n=77 v=102
17150 On ch=3 n=77 v=0
17236 Pb ch=3 v=8322
17238 Pb ch=3 v=8582
17240 Pb ch=3 v=8972
17242 Pb ch=3 v=9622
17244 Pb ch=3 v=10272
17247 Pb ch=3 v=11312
17249 Pb ch=3 v=12222
17250 On ch=3 n=77 v=106
17251 Pb ch=3 v=13002
17253 Pb ch=3 v=13782
17255 Pb ch=3 v=14562
17257 Pb ch=3 v=15212
17259 Pb ch=3 v=16122
17261 Pb ch=3 v=16382
17291 On ch=3 n=77 v=0
17293 Pb ch=3 v=14302
17295 Pb ch=3 v=10142
17296 Pb ch=3 v=7424
17299 Pb ch=3 v=5760
17301 Pb ch=3 v=6656
17303 Pb ch=3 v=8192
17305 Pb ch=3 v=10012
17307 Pb ch=3 v=9752
17309 Pb ch=3 v=8192
17310 On ch=3 n=77 v=106
17313 Pb ch=3 v=8452
17315 Pb ch=3 v=8582
17318 Pb ch=3 v=8192
17320 Pb ch=3 v=8192
17322 Pb ch=3 v=8192
17326 On ch=3 n=77 v=0
17340 On ch=3 n=77 v=98
17359 On ch=3 n=77 v=0
17400 On ch=3 n=77 v=106
17420 On ch=3 n=77 v=0
17460 On ch=3 n=77 v=89
17477 On ch=3 n=77 v=0
17520 On ch=3 n=77 v=105
17540 On ch=3 n=77 v=0
17700 On ch=3 n=75 v=105
17719 On ch=3 n=75 v=0
17760 On ch=3 n=77 v=98
17779 On ch=3 n=77 v=0
17820 On ch=3 n=77 v=100
17837 On ch=3 n=77 v=0
17880 On ch=3 n=77 v=100
17897 On ch=3 n=77 v=0
17940 On ch=3 n=77 v=100
17955 On ch=3 n=77 v=0
17991 Pb ch=3 v=8452
17993 Pb ch=3 v=8972
17995 Pb ch=3 v=9362
17997 Pb ch=3 v=10012
17999 Pb ch=3 v=10662
18000 On ch=3 n=77 v=106
18001 Pb ch=3 v=11572
18003 Pb ch=3 v=12482
18005 Pb ch=3 v=13522
18007 Pb ch=3 v=14432
18009 Pb ch=3 v=15342
18012 Pb ch=3 v=16122
18014 Pb ch=3 v=16382
18036 On ch=3 n=77 v=0
18049 Pb ch=3 v=15862
18051 Pb ch=3 v=12872
18053 Pb ch=3 v=8192
18055 Pb ch=3 v=6272
18057 Pb ch=3 v=5632
18060 On ch=3 n=77 v=102
18060 Pb ch=3 v=7296
18061 Pb ch=3 v=8972
18064 Pb ch=3 v=10272
18066 Pb ch=3 v=9362
18068 Pb ch=3 v=8192
18072 Pb ch=3 v=8582
18074 Pb ch=3 v=8322
18076 Pb ch=3 v=8192
18079 On ch=3 n=77 v=0
18090 On ch=3 n=77 v=97
18112 On ch=3 n=77 v=0
18197 Pb ch=3 v=8192
18199 Pb ch=3 v=8582
18201 Pb ch=3 v=8972
18204 Pb ch=3 v=9622
18206 Pb ch=3 v=10142
18208 Pb ch=3 v=10792
18210 On ch=3 n=77 v=109
18210 Pb ch=3 v=11442
18212 Pb ch=3 v=12092
18214 Pb ch=3 v=12872
18216 Pb ch=3 v=13522
18218 Pb ch=3 v=14302
18220 Pb ch=3 v=15082
18223 Pb ch=3 v=15732
18225 Pb ch=3 v=16382
18256 On ch=3 n=77 v=0
18260 Pb ch=3 v=16122
18262 Pb ch=3 v=13782
18264 Pb ch=3 v=9752
18266 Pb ch=3 v=7168
18268 Pb ch=3 v=5888
18270 On ch=3 n=77 v=105
18271 Pb ch=3 v=6912
18272 Pb ch=3 v=8192
18275 Pb ch=3 v=10012
18277 Pb ch=3 v=9492
18279 Pb ch=3 v=8192
18283 Pb ch=3 v=8582
18285 Pb ch=3 v=8322
18287 Pb ch=3 v=8192
18289 On ch=3 n=77 v=0
18289 Pb ch=3 v=8192
18300 On ch=3 n=77 v=93
18306 Pb ch=3 v=8192
18319 On ch=3 n=77 v=0
18360 On ch=3 n=77 v=103
18378 On ch=3 n=77 v=0
18420 On ch=3 n=77 v=106
18438 On ch=3 n=77 v=0
18480 On ch=3 n=77 v=103
18499 On ch=3 n=77 v=0
18720 On ch=3 n=77 v=103
18738 On ch=3 n=77 v=0
18780 On ch=3 n=77 v=98
18796 On ch=3 n=77 v=0
18840 On ch=3 n=77 v=100
18857 On ch=3 n=77 v=0
18900 On ch=3 n=77 v=103
18916 On ch=3 n=77 v=0
18947 Pb ch=3 v=8452
18950 Pb ch=3 v=8842
18952 Pb ch=3 v=9232
18954 Pb ch=3 v=9882
18956 Pb ch=3 v=10792
18958 Pb ch=3 v=11702
18960 On ch=3 n=77 v=105
18960 Pb ch=3 v=12482
18962 Pb ch=3 v=13132
18964 Pb ch=3 v=13912
18966 Pb ch=3 v=14562
18969 Pb ch=3 v=15342
18971 Pb ch=3 v=16382
19004 On ch=3 n=77 v=0
19008 Pb ch=3 v=15342
19010 Pb ch=3 v=12092
19012 Pb ch=3 v=8192
19015 Pb ch=3 v=6016
19017 Pb ch=3 v=6144
19019 Pb ch=3 v=8192
19020 On ch=3 n=77 v=98
19021 Pb ch=3 v=9492
19023 Pb ch=3 v=10012
19025 Pb ch=3 v=8452
19027 Pb ch=3 v=8192
19031 Pb ch=3 v=8582
19033 Pb ch=3 v=8192
19035 On ch=3 n=77 v=0
19035 Pb ch=3 v=8322
19037 Pb ch=3 v=8192
19050 On ch=3 n=77 v=97
19073 On ch=3 n=77 v=0
19199 Pb ch=3 v=8322
19200 On ch=3 n=77 v=80
19201 Pb ch=3 v=8712
19203 Pb ch=3 v=9232
19205 Pb ch=3 v=10012
19207 Pb ch=3 v=10792
19209 Pb ch=3 v=11572
19211 Pb ch=3 v=12092
19213 Pb ch=3 v=12742
19215 Pb ch=3 v=13262
19217 Pb ch=3 v=13782
19219 Pb ch=3 v=14432
19221 Pb ch=3 v=15082
19224 Pb ch=3 v=15732
19226 Pb ch=3 v=16382
19275 On ch=3 n=77 v=0
19284 Pb ch=3 v=14562
19286 Pb ch=3 v=10142
19288 Pb ch=3 v=7168
19290 Pb ch=3 v=5120
19292 Pb ch=3 v=6016
19294 Pb ch=3 v=8192
19297 Pb ch=3 v=10012
19299 Pb ch=3 v=10272
19301 Pb ch=3 v=8582
19303 Pb ch=3 v=8192
19307 Pb ch=3 v=8842
19309 Pb ch=3 v=8192
22560 On ch=3 n=77 v=103
22578 On ch=3 n=77 v=0
22620 On ch=3 n=77 v=98
22636 On ch=3 n=77 v=0
22680 On ch=3 n=77 v=100
22697 On ch=3 n=77 v=0
22740 On ch=3 n=77 v=103
22756 On ch=3 n=77 v=0
22787 Pb ch=3 v=8452
22790 Pb ch=3 v=8842
22792 Pb ch=3 v=9232
22794 Pb ch=3 v=9882
22796 Pb ch=3 v=10792
22798 Pb ch=3 v=11702
22800 On ch=3 n=77 v=105
22800 Pb ch=3 v=12482
22802 Pb ch=3 v=13132
22804 Pb ch=3 v=13912
22806 Pb ch=3 v=14562
22809 Pb ch=3 v=15342
22811 Pb ch=3 v=16382
22844 On ch=3 n=77 v=0
22848 Pb ch=3 v=15342
22850 Pb ch=3 v=12092
22852 Pb ch=3 v=8192
22855 Pb ch=3 v=6016
22857 Pb ch=3 v=6144
22859 Pb ch=3 v=8192
22860 On ch=3 n=77 v=98
22861 Pb ch=3 v=9492
22863 Pb ch=3 v=10012
22865 Pb ch=3 v=8452
22867 Pb ch=3 v=8192
22871 Pb ch=3 v=8582
22873 Pb ch=3 v=8192
22875 On ch=3 n=77 v=0
22875 Pb ch=3 v=8322
22877 Pb ch=3 v=8192
22890 On ch=3 n=77 v=97
22913 On ch=3 n=77 v=0
23039 Pb ch=3 v=8322
23040 On ch=3 n=77 v=80
23041 Pb ch=3 v=8712
23043 Pb ch=3 v=9232
23045 Pb ch=3 v=10012
23047 Pb ch=3 v=10792
23049 Pb ch=3 v=11572
23051 Pb ch=3 v=12092
23053 Pb ch=3 v=12742
23055 Pb ch=3 v=13262
23057 Pb ch=3 v=13782
23059 Pb ch=3 v=14432
23061 Pb ch=3 v=15082
23064 Pb ch=3 v=15732
23066 Pb ch=3 v=16382
23115 On ch=3 n=77 v=0
23124 Pb ch=3 v=14562
23126 Pb ch=3 v=10142
23128 Pb ch=3 v=7168
23130 Pb ch=3 v=5120
23132 Pb ch=3 v=6016
23134 Pb ch=3 v=8192
23137 Pb ch=3 v=10012
23139 Pb ch=3 v=10272
23141 Pb ch=3 v=8582
23143 Pb ch=3 v=8192
23147 Pb ch=3 v=8842
23149 Pb ch=3 v=8192
36000 On ch=3 n=77 v=110
36019 On ch=3 n=77 v=0
36060 On ch=3 n=77 v=106
36080 On ch=3 n=77 v=0
36120 On ch=3 n=77 v=106
36139 On ch=3 n=77 v=0
36180 On ch=3 n=77 v=106
36195 On ch=3 n=77 v=0
36226 Pb ch=3 v=8322
36228 Pb ch=3 v=8712
36230 Pb ch=3 v=9102
36232 Pb ch=3 v=9622
36234 Pb ch=3 v=10012
36236 Pb ch=3 v=10532
36239 Pb ch=3 v=11312
36240 On ch=3 n=77 v=106
36241 Pb ch=3 v=12092
36243 Pb ch=3 v=12872
36245 Pb ch=3 v=13652
36247 Pb ch=3 v=14432
36249 Pb ch=3 v=15082
36251 Pb ch=3 v=15862
36253 Pb ch=3 v=16382
36282 On ch=3 n=77 v=0
36289 Pb ch=3 v=16122
36291 Pb ch=3 v=13912
36293 Pb ch=3 v=9882
36295 Pb ch=3 v=7296
36297 Pb ch=3 v=5888
36299 Pb ch=3 v=6784
36300 On ch=3 n=77 v=109
36301 Pb ch=3 v=8192
36303 Pb ch=3 v=10012
36305 Pb ch=3 v=9492
36308 Pb ch=3 v=8192
36312 Pb ch=3 v=8582
36314 Pb ch=3 v=8322
36316 Pb ch=3 v=8192
36317 On ch=3 n=77 v=0
36318 Pb ch=3 v=8192
36324 Pb ch=3 v=8192
36330 On ch=3 n=77 v=98
36351 On ch=3 n=77 v=0
36441 Pb ch=3 v=8322
36443 Pb ch=3 v=8842
36445 Pb ch=3 v=9362
36448 Pb ch=3 v=10142
36450 On ch=3 n=77 v=106
36450 Pb ch=3 v=10792
36452 Pb ch=3 v=11702
36454 Pb ch=3 v=12482
36456 Pb ch=3 v=13002
36458 Pb ch=3 v=13522
36460 Pb ch=3 v=14042
36462 Pb ch=3 v=14822
36464 Pb ch=3 v=15472
36467 Pb ch=3 v=16252
36468 Pb ch=3 v=16382
36491 On ch=3 n=77 v=0
36498 Pb ch=3 v=15602
36500 Pb ch=3 v=12742
36502 Pb ch=3 v=8452
36504 Pb ch=3 v=6784
36506 Pb ch=3 v=6400
36508 Pb ch=3 v=8064
36510 On ch=3 n=77 v=105
36510 Pb ch=3 v=9232
36512 Pb ch=3 v=9882
36514 Pb ch=3 v=8452
36516 Pb ch=3 v=8192
36521 Pb ch=3 v=8582
36523 Pb ch=3 v=8192
36525 On ch=3 n=77 v=0
36525 Pb ch=3 v=8192
36540 On ch=3 n=77 v=97
36560 On ch=3 n=77 v=0
36600 On ch=3 n=77 v=106
36619 On ch=3 n=77 v=0
36660 On ch=3 n=77 v=105
36677 On ch=3 n=77 v=0
36720 On ch=3 n=77 v=109
36741 On ch=3 n=77 v=0
36960 On ch=3 n=77 v=103
36980 On ch=3 n=77 v=0
37020 On ch=3 n=77 v=103
37038 On ch=3 n=77 v=0
37080 On ch=3 n=77 v=97
37097 On ch=3 n=77 v=0
37140 On ch=3 n=77 v=102
37154 On ch=3 n=77 v=0
37191 Pb ch=3 v=8452
37194 Pb ch=3 v=8972
37195 Pb ch=3 v=9362
37198 Pb ch=3 v=10012
37200 On ch=3 n=77 v=106
37200 Pb ch=3 v=10792
37202 Pb ch=3 v=11702
37204 Pb ch=3 v=12482
37206 Pb ch=3 v=13262
37208 Pb ch=3 v=13912
37210 Pb ch=3 v=14692
37212 Pb ch=3 v=15342
37214 Pb ch=3 v=16122
37216 Pb ch=3 v=16382
37241 On ch=3 n=77 v=0
37250 Pb ch=3 v=15472
37252 Pb ch=3 v=12612
37254 Pb ch=3 v=8192
37256 Pb ch=3 v=6272
37258 Pb ch=3 v=5888
37260 On ch=3 n=77 v=105
37260 Pb ch=3 v=7680
37262 Pb ch=3 v=9102
37264 Pb ch=3 v=10142
37266 Pb ch=3 v=9102
37268 Pb ch=3 v=8192
37273 Pb ch=3 v=8712
37274 On ch=3 n=77 v=0
37275 Pb ch=3 v=8192
37290 On ch=3 n=77 v=102
37310 On ch=3 n=77 v=0
37396 Pb ch=3 v=8322
37398 Pb ch=3 v=8582
37400 Pb ch=3 v=8972
37402 Pb ch=3 v=9622
37404 Pb ch=3 v=10272
37407 Pb ch=3 v=11312
37409 Pb ch=3 v=12222
37410 On ch=3 n=77 v=106
37411 Pb ch=3 v=13002
37413 Pb ch=3 v=13782
37415 Pb ch=3 v=14562
37417 Pb ch=3 v=15212
37419 Pb ch=3 v=16122
37421 Pb ch=3 v=16382
37451 On ch=3 n=77 v=0
37453 Pb ch=3 v=14302
37455 Pb ch=3 v=10142
37456 Pb ch=3 v=7424
37459 Pb ch=3 v=5760
37461 Pb ch=3 v=6656
37463 Pb ch=3 v=8192
37465 Pb ch=3 v=10012
37467 Pb ch=3 v=9752
37469 Pb ch=3 v=8192
37470 On ch=3 n=77 v=106
37473 Pb ch=3 v=8452
37475 Pb ch=3 v=8582
37478 Pb ch=3 v=8192
37480 Pb ch=3 v=8192
37482 Pb ch=3 v=8192
37486 On ch=3 n=77 v=0
37500 On ch=3 n=77 v=98
37519 On ch=3 n=77 v=0
37560 On ch=3 n=77 v=106
37580 On ch=3 n=77 v=0
37620 On ch=3 n=77 v=89
37637 On ch=3 n=77 v=0
37680 On ch=3 n=77 v=105
37700 On ch=3 n=77 v=0
37920 On ch=3 n=89 v=110
37939 On ch=3 n=89 v=0
37980 On ch=3 n=89 v=106
38000 On ch=3 n=89 v=0
38040 On ch=3 n=89 v=106
38059 On ch=3 n=89 v=0
38100 On ch=3 n=89 v=106
38115 On ch=3 n=89 v=0
38146 Pb ch=3 v=8322
38148 Pb ch=3 v=8712
38150 Pb ch=3 v=9102
38152 Pb ch=3 v=9622
38154 Pb ch=3 v=10012
38156 Pb ch=3 v=10532
38159 Pb ch=3 v=11312
38160 On ch=3 n=89 v=106
38161 Pb ch=3 v=12092
38163 Pb ch=3 v=12872
38165 Pb ch=3 v=13652
38167 Pb ch=3 v=14432
38169 Pb ch=3 v=15082
38171 Pb ch=3 v=15862
38173 Pb ch=3 v=16382
38202 On ch=3 n=89 v=0
38209 Pb ch=3 v=16122
38211 Pb ch=3 v=13912
38213 Pb ch=3 v=9882
38215 Pb ch=3 v=7296
38217 Pb ch=3 v=5888
38219 Pb ch=3 v=6784
38220 On ch=3 n=89 v=109
38221 Pb ch=3 v=8192
38223 Pb ch=3 v=10012
38225 Pb ch=3 v=9492
38228 Pb ch=3 v=8192
38232 Pb ch=3 v=8582
38234 Pb ch=3 v=8322
38236 Pb ch=3 v=8192
38237 On ch=3 n=89 v=0
38238 Pb ch=3 v=8192
38244 Pb ch=3 v=8192
38250 On ch=3 n=89 v=98
38271 On ch=3 n=89 v=0
38361 Pb ch=3 v=8322
38363 Pb ch=3 v=8842
38365 Pb ch=3 v=9362
38368 Pb ch=3 v=10142
38370 On ch=3 n=89 v=106
38370 Pb ch=3 v=10792
38372 Pb ch=3 v=11702
38374 Pb ch=3 v=12482
38376 Pb ch=3 v=13002
38378 Pb ch=3 v=13522
38380 Pb ch=3 v=14042
38382 Pb ch=3 v=14822
38384 Pb ch=3 v=15472
38387 Pb ch=3 v=16252
38388 Pb ch=3 v=16382
38411 On ch=3 n=89 v=0
38418 Pb ch=3 v=15602
38420 Pb ch=3 v=12742
38422 Pb ch=3 v=8452
38424 Pb ch=3 v=6784
38426 Pb ch=3 v=6400
38428 Pb ch=3 v=8064
38430 On ch=3 n=89 v=105
38430 Pb ch=3 v=9232
38432 Pb ch=3 v=9882
38434 Pb ch=3 v=8452
38436 Pb ch=3 v=8192
38441 Pb ch=3 v=8582
38443 Pb ch=3 v=8192
38445 On ch=3 n=89 v=0
38445 Pb ch=3 v=8192
38460 On ch=3 n=89 v=97
38480 On ch=3 n=89 v=0
38520 On ch=3 n=89 v=106
38539 On ch=3 n=89 v=0
38580 On ch=3 n=89 v=105
38597 On ch=3 n=89 v=0
38640 On ch=3 n=89 v=109
38661 On ch=3 n=89 v=0
38880 On ch=3 n=89 v=103
38900 On ch=3 n=89 v=0
38940 On ch=3 n=89 v=103
38958 On ch=3 n=89 v=0
39000 On ch=3 n=89 v=97
39017 On ch=3 n=89 v=0
39060 On ch=3 n=89 v=102
39074 On ch=3 n=89 v=0
39111 Pb ch=3 v=8452
39114 Pb ch=3 v=8972
39115 Pb ch=3 v=9362
39118 Pb ch=3 v=10012
39120 On ch=3 n=89 v=106
39120 Pb ch=3 v=10792
39122 Pb ch=3 v=11702
39124 Pb ch=3 v=12482
39126 Pb ch=3 v=13262
39128 Pb ch=3 v=13912
39130 Pb ch=3 v=14692
39132 Pb ch=3 v=15342
39134 Pb ch=3 v=16122
39136 Pb ch=3 v=16382
39161 On ch=3 n=89 v=0
39170 Pb ch=3 v=15472
39172 Pb ch=3 v=12612
39174 Pb ch=3 v=8192
39176 Pb ch=3 v=6272
39178 Pb ch=3 v=5888
39180 On ch=3 n=89 v=105
39180 Pb ch=3 v=7680
39182 Pb ch=3 v=9102
39184 Pb ch=3 v=10142
39186 Pb ch=3 v=9102
39188 Pb ch=3 v=8192
39193 Pb ch=3 v=8712
39194 On ch=3 n=89 v=0
39195 Pb ch=3 v=8192
39210 On ch=3 n=89 v=102
39230 On ch=3 n=89 v=0
39316 Pb ch=3 v=8322
39318 Pb ch=3 v=8582
39320 Pb ch=3 v=8972
39322 Pb ch=3 v=9622
39324 Pb ch=3 v=10272
39327 Pb ch=3 v=11312
39329 Pb ch=3 v=12222
39330 On ch=3 n=89 v=106
39331 Pb ch=3 v=13002
39333 Pb ch=3 v=13782
39335 Pb ch=3 v=14562
39337 Pb ch=3 v=15212
39339 Pb ch=3 v=16122
39341 Pb ch=3 v=16382
39371 On ch=3 n=89 v=0
39373 Pb ch=3 v=14302
39375 Pb ch=3 v=10142
39376 Pb ch=3 v=7424
39379 Pb ch=3 v=5760
39381 Pb ch=3 v=6656
39383 Pb ch=3 v=8192
39385 Pb ch=3 v=10012
39387 Pb ch=3 v=9752
39389 Pb ch=3 v=8192
39390 On ch=3 n=89 v=106
39393 Pb ch=3 v=8452
39395 Pb ch=3 v=8582
39398 Pb ch=3 v=8192
39400 Pb ch=3 v=8192
39402 Pb ch=3 v=8192
39406 On ch=3 n=89 v=0
39420 On ch=3 n=89 v=98
39439 On ch=3 n=89 v=0
39480 On ch=3 n=89 v=106
39500 On ch=3 n=89 v=0
39540 On ch=3 n=89 v=89
39557 On ch=3 n=89 v=0
39600 Par ch=3 c=1 v=100
39600 On ch=3 n=89 v=105
39840 On ch=3 n=89 v=0
55200 On ch=3 n=77 v=110
55219 On ch=3 n=77 v=0
55260 On ch=3 n=77 v=106
55280 On ch=3 n=77 v=0
55320 On ch=3 n=77 v=106
55339 On ch=3 n=77 v=0
55380 On ch=3 n=77 v=106
55395 On ch=3 n=77 v=0
55426 Pb ch=3 v=8322
55428 Pb ch=3 v=8712
55430 Pb ch=3 v=9102
55432 Pb ch=3 v=9622
55434 Pb ch=3 v=10012
55436 Pb ch=3 v=10532
55439 Pb ch=3 v=11312
55440 On ch=3 n=77 v=106
55441 Pb ch=3 v=12092
55443 Pb ch=3 v=12872
55445 Pb ch=3 v=13652
55447 Pb ch=3 v=14432
55449 Pb ch=3 v=15082
55451 Pb ch=3 v=15862
55453 Pb ch=3 v=16382
55482 On ch=3 n=77 v=0
55489 Pb ch=3 v=16122
55491 Pb ch=3 v=13912
55493 Pb ch=3 v=9882
55495 Pb ch=3 v=7296
55497 Pb ch=3 v=5888
55499 Pb ch=3 v=6784
55500 On ch=3 n=77 v=109
55501 Pb ch=3 v=8192
55503 Pb ch=3 v=10012
55505 Pb ch=3 v=9492
55508 Pb ch=3 v=8192
55512 Pb ch=3 v=8582
55514 Pb ch=3 v=8322
55516 Pb ch=3 v=8192
55517 On ch=3 n=77 v=0
55518 Pb ch=3 v=8192
55524 Pb ch=3 v=8192
55530 On ch=3 n=77 v=98
55551 On ch=3 n=77 v=0
55641 Pb ch=3 v=8322
55643 Pb ch=3 v=8842
55645 Pb ch=3 v=9362
55648 Pb ch=3 v=10142
55650 On ch=3 n=77 v=106
55650 Pb ch=3 v=10792
55652 Pb ch=3 v=11702
55654 Pb ch=3 v=12482
55656 Pb ch=3 v=13002
55658 Pb ch=3 v=13522
55660 Pb ch=3 v=14042
55662 Pb ch=3 v=14822
55664 Pb ch=3 v=15472
55667 Pb ch=3 v=16252
55668 Pb ch=3 v=16382
55691 On ch=3 n=77 v=0
55698 Pb ch=3 v=15602
55700 Pb ch=3 v=12742
55702 Pb ch=3 v=8452
55704 Pb ch=3 v=6784
55706 Pb ch=3 v=6400
55708 Pb ch=3 v=8064
55710 On ch=3 n=77 v=105
55710 Pb ch=3 v=9232
55712 Pb ch=3 v=9882
55714 Pb ch=3 v=8452
55716 Pb ch=3 v=8192
55721 Pb ch=3 v=8582
55723 Pb ch=3 v=8192
55725 On ch=3 n=77 v=0
55725 Pb ch=3 v=8192
55740 On ch=3 n=77 v=97
55760 On ch=3 n=77 v=0
55800 On ch=3 n=77 v=106
55819 On ch=3 n=77 v=0
55860 On ch=3 n=77 v=105
55877 On ch=3 n=77 v=0
55920 On ch=3 n=77 v=109
55941 On ch=3 n=77 v=0
56160 On ch=3 n=77 v=103
56180 On ch=3 n=77 v=0
56220 On ch=3 n=77 v=103
56238 On ch=3 n=77 v=0
56280 On ch=3 n=77 v=97
56297 On ch=3 n=77 v=0
56340 On ch=3 n=77 v=102
56354 On ch=3 n=77 v=0
56391 Pb ch=3 v=8452
56394 Pb ch=3 v=8972
56395 Pb ch=3 v=9362
56398 Pb ch=3 v=10012
56400 On ch=3 n=77 v=106
56400 Pb ch=3 v=10792
56402 Pb ch=3 v=11702
56404 Pb ch=3 v=12482
56406 Pb ch=3 v=13262
56408 Pb ch=3 v=13912
56410 Pb ch=3 v=14692
56412 Pb ch=3 v=15342
56414 Pb ch=3 v=16122
56416 Pb ch=3 v=16382
56441 On ch=3 n=77 v=0
56450 Pb ch=3 v=15472
56452 Pb ch=3 v=12612
56454 Pb ch=3 v=8192
56456 Pb ch=3 v=6272
56458 Pb ch=3 v=5888
56460 On ch=3 n=77 v=105
56460 Pb ch=3 v=7680
56462 Pb ch=3 v=9102
56464 Pb ch=3 v=10142
56466 Pb ch=3 v=9102
56468 Pb ch=3 v=8192
56473 Pb ch=3 v=8712
56474 On ch=3 n=77 v=0
56475 Pb ch=3 v=8192
56490 On ch=3 n=77 v=102
56510 On ch=3 n=77 v=0
56596 Pb ch=3 v=8322
56598 Pb ch=3 v=8582
56600 Pb ch=3 v=8972
56602 Pb ch=3 v=9622
56604 Pb ch=3 v=10272
56607 Pb ch=3 v=11312
56609 Pb ch=3 v=12222
56610 On ch=3 n=77 v=106
56611 Pb ch=3 v=13002
56613 Pb ch=3 v=13782
56615 Pb ch=3 v=14562
56617 Pb ch=3 v=15212
56619 Pb ch=3 v=16122
56621 Pb ch=3 v=16382
56651 On ch=3 n=77 v=0
56653 Pb ch=3 v=14302
56655 Pb ch=3 v=10142
56656 Pb ch=3 v=7424
56659 Pb ch=3 v=5760
56661 Pb ch=3 v=6656
56663 Pb ch=3 v=8192
56665 Pb ch=3 v=10012
56667 Pb ch=3 v=9752
56669 Pb ch=3 v=8192
56670 On ch=3 n=77 v=106
56673 Pb ch=3 v=8452
56675 Pb ch=3 v=8582
56678 Pb ch=3 v=8192
56680 Pb ch=3 v=8192
56682 Pb ch=3 v=8192
56686 On ch=3 n=77 v=0
56700 On ch=3 n=77 v=98
56719 On ch=3 n=77 v=0
56760 On ch=3 n=77 v=106
56780 On ch=3 n=77 v=0
56820 On ch=3 n=77 v=89
56837 On ch=3 n=77 v=0
56880 On ch=3 n=77 v=105
56900 On ch=3 n=77 v=0
57120 On ch=3 n=77 v=110
57139 On ch=3 n=77 v=0
57180 On ch=3 n=77 v=106
57200 On ch=3 n=77 v=0
57240 On ch=3 n=77 v=106
57259 On ch=3 n=77 v=0
57300 On ch=3 n=77 v=106
57315 On ch=3 n=77 v=0
57346 Pb ch=3 v=8322
57348 Pb ch=3 v=8712
57350 Pb ch=3 v=9102
57352 Pb ch=3 v=9622
57354 Pb ch=3 v=10012
57356 Pb ch=3 v=10532
57359 Pb ch=3 v=11312
57360 On ch=3 n=77 v=106
57361 Pb ch=3 v=12092
57363 Pb ch=3 v=12872
57365 Pb ch=3 v=13652
57367 Pb ch=3 v=14432
57369 Pb ch=3 v=15082
57371 Pb ch=3 v=15862
57373 Pb ch=3 v=16382
57402 On ch=3 n=77 v=0
57409 Pb ch=3 v=16122
57411 Pb ch=3 v=13912
57413 Pb ch=3 v=9882
57415 Pb ch=3 v=7296
57417 Pb ch=3 v=5888
57419 Pb ch=3 v=6784
57420 On ch=3 n=77 v=109
57421 Pb ch=3 v=8192
57423 Pb ch=3 v=10012
57425 Pb ch=3 v=9492
57428 Pb ch=3 v=8192
57432 Pb ch=3 v=8582
57434 Pb ch=3 v=8322
57436 Pb ch=3 v=8192
57437 On ch=3 n=77 v=0
57438 Pb ch=3 v=8192
57444 Pb ch=3 v=8192
57450 On ch=3 n=77 v=98
57471 On ch=3 n=77 v=0
57561 Pb ch=3 v=8322
57563 Pb ch=3 v=8842
57565 Pb ch=3 v=9362
57568 Pb ch=3 v=10142
57570 On ch=3 n=77 v=106
57570 Pb ch=3 v=10792
57572 Pb ch=3 v=11702
57574 Pb ch=3 v=12482
57576 Pb ch=3 v=13002
57578 Pb ch=3 v=13522
57580 Pb ch=3 v=14042
57582 Pb ch=3 v=14822
57584 Pb ch=3 v=15472
57587 Pb ch=3 v=16252
57588 Pb ch=3 v=16382
57611 On ch=3 n=77 v=0
57618 Pb ch=3 v=15602
57620 Pb ch=3 v=12742
57622 Pb ch=3 v=8452
57624 Pb ch=3 v=6784
57626 Pb ch=3 v=6400
57628 Pb ch=3 v=8064
57630 On ch=3 n=77 v=105
57630 Pb ch=3 v=9232
57632 Pb ch=3 v=9882
57634 Pb ch=3 v=8452
57636 Pb ch=3 v=8192
57641 Pb ch=3 v=8582
57643 Pb ch=3 v=8192
57645 On ch=3 n=77 v=0
57645 Pb ch=3 v=8192
57660 On ch=3 n=77 v=97
57680 On ch=3 n=77 v=0
57720 On ch=3 n=77 v=106
57739 On ch=3 n=77 v=0
57780 On ch=3 n=77 v=105
57797 On ch=3 n=77 v=0
57840 On ch=3 n=77 v=109
57861 On ch=3 n=77 v=0
58080 On ch=3 n=77 v=103
58100 On ch=3 n=77 v=0
58140 On ch=3 n=77 v=103
58158 On ch=3 n=77 v=0
58200 On ch=3 n=77 v=97
58217 On ch=3 n=77 v=0
58260 On ch=3 n=77 v=102
58274 On ch=3 n=77 v=0
58311 Pb ch=3 v=8452
58314 Pb ch=3 v=8972
58315 Pb ch=3 v=9362
58318 Pb ch=3 v=10012
58320 On ch=3 n=77 v=106
58320 Pb ch=3 v=10792
58322 Pb ch=3 v=11702
58324 Pb ch=3 v=12482
58326 Pb ch=3 v=13262
58328 Pb ch=3 v=13912
58330 Pb ch=3 v=14692
58332 Pb ch=3 v=15342
58334 Pb ch=3 v=16122
58336 Pb ch=3 v=16382
58361 On ch=3 n=77 v=0
58370 Pb ch=3 v=15472
58372 Pb ch=3 v=12612
58374 Pb ch=3 v=8192
58376 Pb ch=3 v=6272
58378 Pb ch=3 v=5888
58380 On ch=3 n=77 v=105
58380 Pb ch=3 v=7680
58382 Pb ch=3 v=9102
58384 Pb ch=3 v=10142
58386 Pb ch=3 v=9102
58388 Pb ch=3 v=8192
58393 Pb ch=3 v=8712
58394 On ch=3 n=77 v=0
58395 Pb ch=3 v=8192
58410 On ch=3 n=77 v=102
58430 On ch=3 n=77 v=0
58516 Pb ch=3 v=8322
58518 Pb ch=3 v=8582
58520 Pb ch=3 v=8972
58522 Pb ch=3 v=9622
58524 Pb ch=3 v=10272
58527 Pb ch=3 v=11312
58529 Pb ch=3 v=12222
58530 On ch=3 n=77 v=106
58531 Pb ch=3 v=13002
58533 Pb ch=3 v=13782
58535 Pb ch=3 v=14562
58537 Pb ch=3 v=15212
58539 Pb ch=3 v=16122
58541 Pb ch=3 v=16382
58571 On ch=3 n=77 v=0
58573 Pb ch=3 v=14302
58575 Pb ch=3 v=10142
58576 Pb ch=3 v=7424
58579 Pb ch=3 v=5760
58581 Pb ch=3 v=6656
58583 Pb ch=3 v=8192
58585 Pb ch=3 v=10012
58587 Pb ch=3 v=9752
58589 Pb ch=3 v=8192
58590 On ch=3 n=77 v=106
58593 Pb ch=3 v=8452
58595 Pb ch=3 v=8582
58598 Pb ch=3 v=8192
58600 Pb ch=3 v=8192
58602 Pb ch=3 v=8192
58606 On ch=3 n=77 v=0
58620 On ch=3 n=77 v=98
58639 On ch=3 n=77 v=0
58680 On ch=3 n=77 v=106
58700 On ch=3 n=77 v=0
58740 On ch=3 n=77 v=89
58757 On ch=3 n=77 v=0
58800 On ch=3 n=77 v=105
58820 On ch=3 n=77 v=0
63840 On ch=3 n=77 v=110
63859 On ch=3 n=77 v=0
63900 On ch=3 n=77 v=106
63920 On ch=3 n=77 v=0
63960 On ch=3 n=77 v=106
63979 On ch=3 n=77 v=0
64020 On ch=3 n=77 v=106
64035 On ch=3 n=77 v=0
64066 Pb ch=3 v=8322
64068 Pb ch=3 v=8712
64070 Pb ch=3 v=9102
64072 Pb ch=3 v=9622
64074 Pb ch=3 v=10012
64076 Pb ch=3 v=10532
64079 Pb ch=3 v=11312
64080 On ch=3 n=77 v=106
64081 Pb ch=3 v=12092
64083 Pb ch=3 v=12872
64085 Pb ch=3 v=13652
64087 Pb ch=3 v=14432
64089 Pb ch=3 v=15082
64091 Pb ch=3 v=15862
64093 Pb ch=3 v=16382
64122 On ch=3 n=77 v=0
64129 Pb ch=3 v=16122
64131 Pb ch=3 v=13912
64133 Pb ch=3 v=9882
64135 Pb ch=3 v=7296
64137 Pb ch=3 v=5888
64139 Pb ch=3 v=6784
64140 On ch=3 n=77 v=109
64141 Pb ch=3 v=8192
64143 Pb ch=3 v=10012
64145 Pb ch=3 v=9492
64148 Pb ch=3 v=8192
64152 Pb ch=3 v=8582
64154 Pb ch=3 v=8322
64156 Pb ch=3 v=8192
64157 On ch=3 n=77 v=0
64158 Pb ch=3 v=8192
64164 Pb ch=3 v=8192
64170 On ch=3 n=77 v=98
64191 On ch=3 n=77 v=0
64281 Pb ch=3 v=8322
64283 Pb ch=3 v=8842
64285 Pb ch=3 v=9362
64288 Pb ch=3 v=10142
64290 On ch=3 n=77 v=106
64290 Pb ch=3 v=10792
64292 Pb ch=3 v=11702
64294 Pb ch=3 v=12482
64296 Pb ch=3 v=13002
64298 Pb ch=3 v=13522
64300 Pb ch=3 v=14042
64302 Pb ch=3 v=14822
64304 Pb ch=3 v=15472
64307 Pb ch=3 v=16252
64308 Pb ch=3 v=16382
64331 On ch=3 n=77 v=0
64338 Pb ch=3 v=15602
64340 Pb ch=3 v=12742
64342 Pb ch=3 v=8452
64344 Pb ch=3 v=6784
64346 Pb ch=3 v=6400
64348 Pb ch=3 v=8064
64350 On ch=3 n=77 v=105
64350 Pb ch=3 v=9232
64352 Pb ch=3 v=9882
64354 Pb ch=3 v=8452
64356 Pb ch=3 v=8192
64361 Pb ch=3 v=8582
64363 Pb ch=3 v=8192
64365 On ch=3 n=77 v=0
64365 Pb ch=3 v=8192
64380 On ch=3 n=77 v=97
64400 On ch=3 n=77 v=0
64440 On ch=3 n=77 v=106
64459 On ch=3 n=77 v=0
64500 On ch=3 n=77 v=105
64517 On ch=3 n=77 v=0
64560 On ch=3 n=77 v=109
64581 On ch=3 n=77 v=0
64800 On ch=3 n=77 v=103
64820 On ch=3 n=77 v=0
64860 On ch=3 n=77 v=103
64878 On ch=3 n=77 v=0
64920 On ch=3 n=77 v=97
64937 On ch=3 n=77 v=0
64980 On ch=3 n=77 v=102
64994 On ch=3 n=77 v=0
65031 Pb ch=3 v=8452
65034 Pb ch=3 v=8972
65035 Pb ch=3 v=9362
65038 Pb ch=3 v=10012
65040 On ch=3 n=77 v=106
65040 Pb ch=3 v=10792
65042 Pb ch=3 v=11702
65044 Pb ch=3 v=12482
65046 Pb ch=3 v=13262
65048 Pb ch=3 v=13912
65050 Pb ch=3 v=14692
65052 Pb ch=3 v=15342
65054 Pb ch=3 v=16122
65056 Pb ch=3 v=16382
65081 On ch=3 n=77 v=0
65090 Pb ch=3 v=15472
65092 Pb ch=3 v=12612
65094 Pb ch=3 v=8192
65096 Pb ch=3 v=6272
65098 Pb ch=3 v=5888
65100 On ch=3 n=77 v=105
65100 Pb ch=3 v=7680
65102 Pb ch=3 v=9102
65104 Pb ch=3 v=10142
65106 Pb ch=3 v=9102
65108 Pb ch=3 v=8192
65113 Pb ch=3 v=8712
65114 On ch=3 n=77 v=0
65115 Pb ch=3 v=8192
65130 On ch=3 n=77 v=102
65150 On ch=3 n=77 v=0
65236 Pb ch=3 v=8322
65238 Pb ch=3 v=8582
65240 Pb ch=3 v=8972
65242 Pb ch=3 v=9622
65244 Pb ch=3 v=10272
65247 Pb ch=3 v=11312
65249 Pb ch=3 v=12222
65250 On ch=3 n=77 v=106
65251 Pb ch=3 v=13002
65253 Pb ch=3 v=13782
65255 Pb ch=3 v=14562
65257 Pb ch=3 v=15212
65259 Pb ch=3 v=16122
65261 Pb ch=3 v=16382
65291 On ch=3 n=77 v=0
65293 Pb ch=3 v=14302
65295 Pb ch=3 v=10142
65296 Pb ch=3 v=7424
65299 Pb ch=3 v=5760
65301 Pb ch=3 v=6656
65303 Pb ch=3 v=8192
65305 Pb ch=3 v=10012
65307 Pb ch=3 v=9752
65309 Pb ch=3 v=8192
65310 On ch=3 n=77 v=106
65313 Pb ch=3 v=8452
65315 Pb ch=3 v=8582
65318 Pb ch=3 v=8192
65320 Pb ch=3 v=8192
65322 Pb ch=3 v=8192
65326 On ch=3 n=77 v=0
65340 On ch=3 n=77 v=98
65359 On ch=3 n=77 v=0
65400 On ch=3 n=77 v=106
65420 On ch=3 n=77 v=0
65460 On ch=3 n=77 v=89
65477 On ch=3 n=77 v=0
65520 On ch=3 n=77 v=105
65540 On ch=3 n=77 v=0
65760 On ch=3 n=77 v=110
65779 On ch=3 n=77 v=0
65820 On ch=3 n=77 v=106
65840 On ch=3 n=77 v=0
65880 On ch=3 n=77 v=106
65899 On ch=3 n=77 v=0
65940 On ch=3 n=77 v=106
65955 On ch=3 n=77 v=0
65986 Pb ch=3 v=8322
65988 Pb ch=3 v=8712
65990 Pb ch=3 v=9102
65992 Pb ch=3 v=9622
65994 Pb ch=3 v=10012
65996 Pb ch=3 v=10532
65999 Pb ch=3 v=11312
66000 On ch=3 n=77 v=106
66001 Pb ch=3 v=12092
66003 Pb ch=3 v=12872
66005 Pb ch=3 v=13652
66007 Pb ch=3 v=14432
66009 Pb ch=3 v=15082
66011 Pb ch=3 v=15862
66013 Pb ch=3 v=16382
66042 On ch=3 n=77 v=0
66049 Pb ch=3 v=16122
66051 Pb ch=3 v=13912
66053 Pb ch=3 v=9882
66055 Pb ch=3 v=7296
66057 Pb ch=3 v=5888
66059 Pb ch=3 v=6784
66060 On ch=3 n=77 v=109
66061 Pb ch=3 v=8192
66063 Pb ch=3 v=10012
66065 Pb ch=3 v=9492
66068 Pb ch=3 v=8192
66072 Pb ch=3 v=8582
66074 Pb ch=3 v=8322
66076 Pb ch=3 v=8192
66077 On ch=3 n=77 v=0
66078 Pb ch=3 v=8192
66084 Pb ch=3 v=8192
66090 On ch=3 n=77 v=98
66111 On ch=3 n=77 v=0
66201 Pb ch=3 v=8322
66203 Pb ch=3 v=8842
66205 Pb ch=3 v=9362
66208 Pb ch=3 v=10142
66210 On ch=3 n=77 v=106
66210 Pb ch=3 v=10792
66212 Pb ch=3 v=11702
66214 Pb ch=3 v=12482
66216 Pb ch=3 v=13002
66218 Pb ch=3 v=13522
66220 Pb ch=3 v=14042
66222 Pb ch=3 v=14822
66224 Pb ch=3 v=15472
66227 Pb ch=3 v=16252
66228 Pb ch=3 v=16382
66251 On ch=3 n=77 v=0
66258 Pb ch=3 v=15602
66260 Pb ch=3 v=12742
66262 Pb ch=3 v=8452
66264 Pb ch=3 v=6784
66266 Pb ch=3 v=6400
66268 Pb ch=3 v=8064
66270 On ch=3 n=77 v=105
66270 Pb ch=3 v=9232
66272 Pb ch=3 v=9882
66274 Pb ch=3 v=8452
66276 Pb ch=3 v=8192
66281 Pb ch=3 v=8582
66283 Pb ch=3 v=8192
66285 On ch=3 n=77 v=0
66285 Pb ch=3 v=8192
66300 On ch=3 n=77 v=97
66320 On ch=3 n=77 v=0
66360 On ch=3 n=77 v=106
66379 On ch=3 n=77 v=0
66420 On ch=3 n=77 v=105
66437 On ch=3 n=77 v=0
66480 On ch=3 n=77 v=109
66501 On ch=3 n=77 v=0
66720 On ch=3 n=77 v=103
66740 On ch=3 n=77 v=0
66780 On ch=3 n=77 v=103
66798 On ch=3 n=77 v=0
66840 On ch=3 n=77 v=97
66857 On ch=3 n=77 v=0
66900 On ch=3 n=77 v=102
66914 On ch=3 n=77 v=0
66951 Pb ch=3 v=8452
66954 Pb ch=3 v=8972
66955 Pb ch=3 v=9362
66958 Pb ch=3 v=10012
66960 On ch=3 n=77 v=106
66960 Pb ch=3 v=10792
66962 Pb ch=3 v=11702
66964 Pb ch=3 v=12482
66966 Pb ch=3 v=13262
66968 Pb ch=3 v=13912
66970 Pb ch=3 v=14692
66972 Pb ch=3 v=15342
66974 Pb ch=3 v=16122
66976 Pb ch=3 v=16382
67001 On ch=3 n=77 v=0
67010 Pb ch=3 v=15472
67012 Pb ch=3 v=12612
67014 Pb ch=3 v=8192
67016 Pb ch=3 v=6272
67018 Pb ch=3 v=5888
67020 On ch=3 n=77 v=105
67020 Pb ch=3 v=7680
67022 Pb ch=3 v=9102
67024 Pb ch=3 v=10142
67026 Pb ch=3 v=9102
67028 Pb ch=3 v=8192
67033 Pb ch=3 v=8712
67034 On ch=3 n=77 v=0
67035 Pb ch=3 v=8192
67050 On ch=3 n=77 v=102
67070 On ch=3 n=77 v=0
67200 On ch=3 n=77 v=115
67214 On ch=3 n=77 v=0
67260 On ch=3 n=77 v=113
67279 On ch=3 n=77 v=0
67320 On ch=3 n=77 v=113
67337 On ch=3 n=77 v=0
67350 On ch=3 n=77 v=113
67368 On ch=3 n=77 v=0
67410 On ch=3 n=77 v=115
67435 On ch=3 n=77 v=0
67435 Meta TrkEnd
TrkEnd
MTrk
0 Meta TrkName "Synth bass 101"
0 Par ch=4 c=0 v=1
0 Par ch=4 c=7 v=80
1 Par ch=4 c=32 v=0
2 PrCh ch=4 p=38
483 Par ch=4 c=91 v=100
3360 On ch=4 n=63 v=50
3360 On ch=4 n=68 v=50
3360 On ch=4 n=65 v=50
3360 On ch=4 n=60 v=50
3415 On ch=4 n=60 v=0
3427 On ch=4 n=65 v=0
3427 On ch=4 n=63 v=0
3429 On ch=4 n=68 v=0
3450 On ch=4 n=63 v=55
3450 On ch=4 n=68 v=55
3450 On ch=4 n=65 v=55
3450 On ch=4 n=60 v=55
3510 On ch=4 n=60 v=0
3517 On ch=4 n=65 v=0
3519 On ch=4 n=68 v=0
3521 On ch=4 n=63 v=0
3540 On ch=4 n=63 v=61
3540 On ch=4 n=65 v=61
3540 On ch=4 n=68 v=61
3540 On ch=4 n=60 v=61
3609 On ch=4 n=60 v=0
3618 On ch=4 n=63 v=0
3622 On ch=4 n=68 v=0
3622 On ch=4 n=65 v=0
3660 On ch=4 n=65 v=69
3660 On ch=4 n=63 v=69
3660 On ch=4 n=68 v=69
3660 On ch=4 n=60 v=69
3733 On ch=4 n=60 v=0
3738 On ch=4 n=63 v=0
3743 On ch=4 n=65 v=0
3744 On ch=4 n=68 v=0
3750 On ch=4 n=63 v=74
3750 On ch=4 n=68 v=74
3750 On ch=4 n=60 v=74
3750 On ch=4 n=65 v=74
3796 On ch=4 n=63 v=0
3803 On ch=4 n=60 v=0
3807 On ch=4 n=68 v=0
3812 On ch=4 n=65 v=0
3840 On ch=4 n=65 v=80
3840 On ch=4 n=63 v=80
3840 On ch=4 n=68 v=80
3840 On ch=4 n=77 v=80
3840 On ch=4 n=60 v=80
3840 On ch=4 n=80 v=80
3895 On ch=4 n=60 v=0
3905 On ch=4 n=63 v=0
3907 On ch=4 n=80 v=0
3908 On ch=4 n=68 v=0
3909 On ch=4 n=77 v=0
3910 On ch=4 n=65 v=0
3930 On ch=4 n=63 v=86
3930 On ch=4 n=77 v=86
3930 On ch=4 n=65 v=86
3930 On ch=4 n=68 v=86
3930 On ch=4 n=80 v=86
3930 On ch=4 n=60 v=86
3988 On ch=4 n=60 v=0
3993 On ch=4 n=80 v=0
3996 On ch=4 n=77 v=0
3997 On ch=4 n=68 v=0
4000 On ch=4 n=63 v=0
4006 On ch=4 n=65 v=0
4020 On ch=4 n=63 v=92
4020 On ch=4 n=65 v=92
4020 On ch=4 n=68 v=92
4020 On ch=4 n=60 v=92
4020 On ch=4 n=80 v=92
4020 On ch=4 n=77 v=92
4082 On ch=4 n=60 v=0
4091 On ch=4 n=63 v=0
4092 On ch=4 n=80 v=0
4092 On ch=4 n=77 v=0
4094 On ch=4 n=65 v=0
4094 On ch=4 n=68 v=0
4110 On ch=4 n=63 v=97
4110 On ch=4 n=68 v=97
4110 On ch=4 n=65 v=97
4110 On ch=4 n=60 v=97
4110 On ch=4 n=77 v=97
4110 On ch=4 n=80 v=97
4157 On ch=4 n=80 v=0
4158 On ch=4 n=77 v=0
4159 On ch=4 n=60 v=0
4167 On ch=4 n=68 v=0
4168 On ch=4 n=65 v=0
4168 On ch=4 n=63 v=0
4200 On ch=4 n=77 v=103
4200 On ch=4 n=80 v=103
4200 On ch=4 n=63 v=103
4200 On ch=4 n=68 v=103
4200 On ch=4 n=65 v=103
4200 On ch=4 n=60 v=103
4251 On ch=4 n=60 v=0
4253 On ch=4 n=77 v=0
4253 On ch=4 n=80 v=0
4256 On ch=4 n=68 v=0
4256 On ch=4 n=63 v=0
4260 On ch=4 n=65 v=0
19740 On ch=4 n=63 v=89
19740 On ch=4 n=68 v=75
19740 On ch=4 n=60 v=105
19740 On ch=4 n=65 v=90
19755 On ch=4 n=65 v=0
19755 On ch=4 n=60 v=0
19759 On ch=4 n=63 v=0
19763 On ch=4 n=68 v=0
19830 On ch=4 n=63 v=92
19830 On ch=4 n=65 v=95
19830 On ch=4 n=68 v=79
19830 On ch=4 n=60 v=103
19845 On ch=4 n=60 v=0
19845 On ch=4 n=65 v=0
19847 On ch=4 n=63 v=0
19850 On ch=4 n=68 v=0
19920 On ch=4 n=63 v=95
19920 On ch=4 n=65 v=98
19920 On ch=4 n=68 v=79
19920 On ch=4 n=60 v=109
19934 On ch=4 n=60 v=0
19936 On ch=4 n=63 v=0
19937 On ch=4 n=65 v=0
19941 On ch=4 n=68 v=0
20010 On ch=4 n=63 v=90
20010 On ch=4 n=68 v=80
20010 On ch=4 n=65 v=92
20010 On ch=4 n=60 v=109
20022 On ch=4 n=60 v=0
20026 On ch=4 n=65 v=0
20027 On ch=4 n=63 v=0
20031 On ch=4 n=68 v=0
20100 On ch=4 n=63 v=89
20100 On ch=4 n=65 v=92
20100 On ch=4 n=60 v=110
20100 On ch=4 n=68 v=67
20113 On ch=4 n=68 v=0
20114 On ch=4 n=60 v=0
20116 On ch=4 n=65 v=0
20116 On ch=4 n=63 v=0
20220 On ch=4 n=58 v=90
20220 On ch=4 n=63 v=98
20220 On ch=4 n=67 v=82
20238 On ch=4 n=63 v=0
20238 On ch=4 n=58 v=0
20241 On ch=4 n=67 v=0
20310 On ch=4 n=63 v=95
20310 On ch=4 n=67 v=80
20310 On ch=4 n=58 v=97
20324 On ch=4 n=67 v=0
20324 On ch=4 n=63 v=0
20327 On ch=4 n=58 v=0
20460 On ch=4 n=56 v=97
20460 On ch=4 n=61 v=100
20460 On ch=4 n=65 v=86
20469 On ch=4 n=61 v=0
20474 On ch=4 n=56 v=0
20478 On ch=4 n=65 v=0
20550 On ch=4 n=56 v=95
20550 On ch=4 n=61 v=100
20550 On ch=4 n=65 v=85
20559 On ch=4 n=61 v=0
20565 On ch=4 n=56 v=0
20570 On ch=4 n=65 v=0
20700 On ch=4 n=63 v=89
20700 On ch=4 n=60 v=110
20700 On ch=4 n=65 v=89
20700 On ch=4 n=68 v=79
20715 On ch=4 n=65 v=0
20715 On ch=4 n=60 v=0
20717 On ch=4 n=63 v=0
20720 On ch=4 n=68 v=0
20790 On ch=4 n=63 v=90
20790 On ch=4 n=60 v=110
20790 On ch=4 n=65 v=95
20790 On ch=4 n=68 v=77
20803 On ch=4 n=60 v=0
20805 On ch=4 n=63 v=0
20805 On ch=4 n=65 v=0
20809 On ch=4 n=68 v=0
20880 On ch=4 n=63 v=90
20880 On ch=4 n=68 v=81
20880 On ch=4 n=65 v=95
20880 On ch=4 n=60 v=109
20893 On ch=4 n=60 v=0
20893 On ch=4 n=65 v=0
20894 On ch=4 n=63 v=0
20900 On ch=4 n=68 v=0
20970 On ch=4 n=63 v=90
20970 On ch=4 n=65 v=89
20970 On ch=4 n=60 v=109
20970 On ch=4 n=68 v=77
20982 On ch=4 n=60 v=0
20984 On ch=4 n=63 v=0
20985 On ch=4 n=65 v=0
20989 On ch=4 n=68 v=0
21060 On ch=4 n=63 v=97
21060 On ch=4 n=65 v=97
21060 On ch=4 n=60 v=110
21060 On ch=4 n=68 v=81
21073 On ch=4 n=60 v=0
21074 On ch=4 n=63 v=0
21075 On ch=4 n=65 v=0
21078 On ch=4 n=68 v=0
21660 On ch=4 n=63 v=92
21660 On ch=4 n=60 v=106
21660 On ch=4 n=68 v=77
21660 On ch=4 n=65 v=92
21677 On ch=4 n=60 v=0
21679 On ch=4 n=63 v=0
21679 On ch=4 n=65 v=0
21682 On ch=4 n=68 v=0
21750 On ch=4 n=63 v=92
21750 On ch=4 n=68 v=82
21750 On ch=4 n=65 v=93
21750 On ch=4 n=60 v=109
21764 On ch=4 n=60 v=0
21766 On ch=4 n=65 v=0
21766 On ch=4 n=63 v=0
21771 On ch=4 n=68 v=0
21840 On ch=4 n=63 v=89
21840 On ch=4 n=68 v=77
21840 On ch=4 n=65 v=92
21840 On ch=4 n=60 v=106
21853 On ch=4 n=60 v=0
21855 On ch=4 n=65 v=0
21856 On ch=4 n=63 v=0
21861 On ch=4 n=68 v=0
21930 On ch=4 n=63 v=97
21930 On ch=4 n=65 v=97
21930 On ch=4 n=68 v=81
21930 On ch=4 n=60 v=113
21945 On ch=4 n=60 v=0
21946 On ch=4 n=63 v=0
21946 On ch=4 n=65 v=0
21952 On ch=4 n=68 v=0
22020 On ch=4 n=65 v=90
22020 On ch=4 n=63 v=95
22020 On ch=4 n=68 v=75
22020 On ch=4 n=60 v=109
22032 On ch=4 n=60 v=0
22034 On ch=4 n=65 v=0
22034 On ch=4 n=63 v=0
22034 On ch=4 n=68 v=0
22140 On ch=4 n=63 v=97
22140 On ch=4 n=58 v=102
22140 On ch=4 n=67 v=79
22160 On ch=4 n=63 v=0
22161 On ch=4 n=58 v=0
22163 On ch=4 n=67 v=0
22230 On ch=4 n=67 v=80
22230 On ch=4 n=63 v=98
22230 On ch=4 n=58 v=100
22250 On ch=4 n=63 v=0
22251 On ch=4 n=67 v=0
22253 On ch=4 n=58 v=0
22380 On ch=4 n=61 v=100
22380 On ch=4 n=56 v=98
22380 On ch=4 n=65 v=95
22394 On ch=4 n=61 v=0
22396 On ch=4 n=56 v=0
22402 On ch=4 n=65 v=0
22470 On ch=4 n=56 v=95
22470 On ch=4 n=61 v=100
22470 On ch=4 n=65 v=88
22479 On ch=4 n=61 v=0
22484 On ch=4 n=56 v=0
22492 On ch=4 n=65 v=0
22620 On ch=4 n=63 v=90
22620 On ch=4 n=60 v=106
22620 On ch=4 n=68 v=73
22620 On ch=4 n=65 v=95
22637 On ch=4 n=65 v=0
22638 On ch=4 n=63 v=0
22638 On ch=4 n=60 v=0
22640 On ch=4 n=68 v=0
22710 On ch=4 n=63 v=93
22710 On ch=4 n=68 v=73
22710 On ch=4 n=60 v=110
22710 On ch=4 n=65 v=93
22726 On ch=4 n=65 v=0
22726 On ch=4 n=60 v=0
22728 On ch=4 n=63 v=0
22734 On ch=4 n=68 v=0
22800 On ch=4 n=63 v=98
22800 On ch=4 n=68 v=82
22800 On ch=4 n=65 v=98
22800 On ch=4 n=60 v=113
22814 On ch=4 n=60 v=0
22815 On ch=4 n=65 v=0
22817 On ch=4 n=63 v=0
22820 On ch=4 n=68 v=0
22890 On ch=4 n=63 v=92
22890 On ch=4 n=65 v=93
22890 On ch=4 n=68 v=79
22890 On ch=4 n=60 v=110
22904 On ch=4 n=60 v=0
22906 On ch=4 n=65 v=0
22907 On ch=4 n=63 v=0
22910 On ch=4 n=68 v=0
22980 On ch=4 n=63 v=98
22980 On ch=4 n=68 v=80
22980 On ch=4 n=65 v=100
22980 On ch=4 n=60 v=115
22993 On ch=4 n=60 v=0
22994 On ch=4 n=65 v=0
22995 On ch=4 n=63 v=0
22999 On ch=4 n=68 v=0
23580 On ch=4 n=63 v=89
23580 On ch=4 n=68 v=75
23580 On ch=4 n=60 v=105
23580 On ch=4 n=65 v=90
23595 On ch=4 n=65 v=0
23595 On ch=4 n=60 v=0
23599 On ch=4 n=63 v=0
23603 On ch=4 n=68 v=0
23670 On ch=4 n=63 v=92
23670 On ch=4 n=65 v=95
23670 On ch=4 n=68 v=79
23670 On ch=4 n=60 v=103
23685 On ch=4 n=60 v=0
23685 On ch=4 n=65 v=0
23687 On ch=4 n=63 v=0
23690 On ch=4 n=68 v=0
23760 On ch=4 n=63 v=95
23760 On ch=4 n=65 v=98
23760 On ch=4 n=68 v=79
23760 On ch=4 n=60 v=109
23774 On ch=4 n=60 v=0
23776 On ch=4 n=63 v=0
23777 On ch=4 n=65 v=0
23781 On ch=4 n=68 v=0
23850 On ch=4 n=63 v=90
23850 On ch=4 n=68 v=80
23850 On ch=4 n=65 v=92
23850 On ch=4 n=60 v=109
23862 On ch=4 n=60 v=0
23866 On ch=4 n=65 v=0
23867 On ch=4 n=63 v=0
23871 On ch=4 n=68 v=0
23940 On ch=4 n=63 v=89
23940 On ch=4 n=65 v=92
23940 On ch=4 n=60 v=110
23940 On ch=4 n=68 v=67
23953 On ch=4 n=68 v=0
23954 On ch=4 n=60 v=0
23956 On ch=4 n=65 v=0
23956 On ch=4 n=63 v=0
24060 On ch=4 n=58 v=90
24060 On ch=4 n=63 v=98
24060 On ch=4 n=67 v=82
24078 On ch=4 n=63 v=0
24078 On ch=4 n=58 v=0
24081 On ch=4 n=67 v=0
24150 On ch=4 n=63 v=95
24150 On ch=4 n=67 v=80
24150 On ch=4 n=58 v=97
24164 On ch=4 n=67 v=0
24164 On ch=4 n=63 v=0
24167 On ch=4 n=58 v=0
24300 On ch=4 n=56 v=97
24300 On ch=4 n=61 v=100
24300 On ch=4 n=65 v=86
24309 On ch=4 n=61 v=0
24314 On ch=4 n=56 v=0
24318 On ch=4 n=65 v=0
24390 On ch=4 n=56 v=95
24390 On ch=4 n=61 v=100
24390 On ch=4 n=65 v=85
24399 On ch=4 n=61 v=0
24405 On ch=4 n=56 v=0
24410 On ch=4 n=65 v=0
25500 On ch=4 n=63 v=92
25500 On ch=4 n=60 v=106
25500 On ch=4 n=68 v=77
25500 On ch=4 n=65 v=92
25517 On ch=4 n=60 v=0
25519 On ch=4 n=63 v=0
25519 On ch=4 n=65 v=0
25522 On ch=4 n=68 v=0
25590 On ch=4 n=63 v=92
25590 On ch=4 n=68 v=82
25590 On ch=4 n=65 v=93
25590 On ch=4 n=60 v=109
25604 On ch=4 n=60 v=0
25606 On ch=4 n=65 v=0
25606 On ch=4 n=63 v=0
25611 On ch=4 n=68 v=0
25680 On ch=4 n=63 v=89
25680 On ch=4 n=68 v=77
25680 On ch=4 n=65 v=92
25680 On ch=4 n=60 v=106
25693 On ch=4 n=60 v=0
25695 On ch=4 n=65 v=0
25696 On ch=4 n=63 v=0
25701 On ch=4 n=68 v=0
25770 On ch=4 n=63 v=97
25770 On ch=4 n=65 v=97
25770 On ch=4 n=68 v=81
25770 On ch=4 n=60 v=113
25785 On ch=4 n=60 v=0
25786 On ch=4 n=63 v=0
25786 On ch=4 n=65 v=0
25792 On ch=4 n=68 v=0
25860 On ch=4 n=65 v=90
25860 On ch=4 n=63 v=95
25860 On ch=4 n=68 v=75
25860 On ch=4 n=60 v=109
25872 On ch=4 n=60 v=0
25874 On ch=4 n=65 v=0
25874 On ch=4 n=63 v=0
25874 On ch=4 n=68 v=0
25980 On ch=4 n=63 v=97
25980 On ch=4 n=58 v=102
25980 On ch=4 n=67 v=79
26000 On ch=4 n=63 v=0
26001 On ch=4 n=58 v=0
26003 On ch=4 n=67 v=0
26070 On ch=4 n=67 v=80
26070 On ch=4 n=63 v=98
26070 On ch=4 n=58 v=100
26090 On ch=4 n=63 v=0
26091 On ch=4 n=67 v=0
26093 On ch=4 n=58 v=0
26220 On ch=4 n=61 v=100
26220 On ch=4 n=56 v=98
26220 On ch=4 n=65 v=95
26234 On ch=4 n=61 v=0
26236 On ch=4 n=56 v=0
26242 On ch=4 n=65 v=0
26310 On ch=4 n=56 v=95
26310 On ch=4 n=61 v=100
26310 On ch=4 n=65 v=88
26319 On ch=4 n=61 v=0
26324 On ch=4 n=56 v=0
26332 On ch=4 n=65 v=0
26460 On ch=4 n=63 v=90
26460 On ch=4 n=60 v=106
26460 On ch=4 n=68 v=73
26460 On ch=4 n=65 v=95
26477 On ch=4 n=65 v=0
26478 On ch=4 n=63 v=0
26478 On ch=4 n=60 v=0
26480 On ch=4 n=68 v=0
26550 On ch=4 n=63 v=93
26550 On ch=4 n=68 v=73
26550 On ch=4 n=60 v=110
26550 On ch=4 n=65 v=93
26566 On ch=4 n=65 v=0
26566 On ch=4 n=60 v=0
26568 On ch=4 n=63 v=0
26574 On ch=4 n=68 v=0
26640 On ch=4 n=63 v=98
26640 On ch=4 n=68 v=82
26640 On ch=4 n=65 v=98
26640 On ch=4 n=60 v=113
26654 On ch=4 n=60 v=0
26655 On ch=4 n=65 v=0
26657 On ch=4 n=63 v=0
26660 On ch=4 n=68 v=0
26730 On ch=4 n=63 v=92
26730 On ch=4 n=65 v=93
26730 On ch=4 n=68 v=79
26730 On ch=4 n=60 v=110
26744 On ch=4 n=60 v=0
26746 On ch=4 n=65 v=0
26747 On ch=4 n=63 v=0
26750 On ch=4 n=68 v=0
26820 On ch=4 n=63 v=98
26820 On ch=4 n=68 v=80
26820 On ch=4 n=65 v=100
26820 On ch=4 n=60 v=115
26833 On ch=4 n=60 v=0
26834 On ch=4 n=65 v=0
26835 On ch=4 n=63 v=0
26839 On ch=4 n=68 v=0
39840 On ch=4 n=53 v=76
39840 On ch=4 n=68 v=68
39840 On ch=4 n=65 v=90
39840 On ch=4 n=60 v=103
39891 On ch=4 n=60 v=0
39898 On ch=4 n=53 v=0
39906 On ch=4 n=68 v=0
39908 On ch=4 n=65 v=0
39930 On ch=4 n=68 v=73
39930 On ch=4 n=65 v=90
39930 On ch=4 n=60 v=109
39930 On ch=4 n=53 v=76
39981 On ch=4 n=60 v=0
39984 On ch=4 n=53 v=0
39995 On ch=4 n=65 v=0
39997 On ch=4 n=68 v=0
40020 On ch=4 n=68 v=76
40020 On ch=4 n=53 v=79
40020 On ch=4 n=65 v=97
40020 On ch=4 n=60 v=110
40080 On ch=4 n=60 v=0
40085 On ch=4 n=53 v=0
40095 On ch=4 n=65 v=0
40097 On ch=4 n=68 v=0
40140 On ch=4 n=68 v=70
40140 On ch=4 n=65 v=93
40140 On ch=4 n=53 v=84
40140 On ch=4 n=60 v=110
40201 On ch=4 n=60 v=0
40201 On ch=4 n=53 v=0
40213 On ch=4 n=65 v=0
40230 On ch=4 n=68 v=54
40230 On ch=4 n=65 v=90
40230 On ch=4 n=60 v=115
40230 On ch=4 n=53 v=81
40231 On ch=4 n=68 v=0
40251 On ch=4 n=68 v=0
40261 On ch=4 n=60 v=0
40275 On ch=4 n=65 v=0
40292 On ch=4 n=53 v=0
40320 On ch=4 n=67 v=73
40320 On ch=4 n=63 v=92
40320 On ch=4 n=58 v=100
40320 On ch=4 n=51 v=98
40371 On ch=4 n=51 v=0
40382 On ch=4 n=63 v=0
40386 On ch=4 n=58 v=0
40407 On ch=4 n=67 v=0
40410 On ch=4 n=67 v=69
40410 On ch=4 n=51 v=86
40410 On ch=4 n=58 v=90
40410 On ch=4 n=63 v=92
40440 On ch=4 n=67 v=0
40444 On ch=4 n=63 v=0
40464 On ch=4 n=58 v=0
40485 On ch=4 n=51 v=0
40500 On ch=4 n=65 v=90
40500 On ch=4 n=56 v=93
40500 On ch=4 n=61 v=110
40500 On ch=4 n=49 v=110
40557 On ch=4 n=49 v=0
40557 On ch=4 n=61 v=0
40573 On ch=4 n=56 v=0
40586 On ch=4 n=65 v=0
40620 On ch=4 n=49 v=103
40620 On ch=4 n=65 v=85
40620 On ch=4 n=61 v=110
40620 On ch=4 n=56 v=93
40669 On ch=4 n=49 v=0
40672 On ch=4 n=61 v=0
40687 On ch=4 n=56 v=0
40690 On ch=4 n=65 v=0
40710 On ch=4 n=56 v=77
40710 On ch=4 n=61 v=100
40710 On ch=4 n=65 v=88
40710 On ch=4 n=49 v=105
40729 On ch=4 n=56 v=0
40734 On ch=4 n=61 v=0
40741 On ch=4 n=65 v=0
40780 On ch=4 n=49 v=0
40800 On ch=4 n=68 v=25
40800 On ch=4 n=60 v=110
40800 On ch=4 n=65 v=92
40800 On ch=4 n=53 v=82
40849 On ch=4 n=53 v=0
40853 On ch=4 n=60 v=0
40858 On ch=4 n=68 v=0
40864 On ch=4 n=65 v=0
40890 On ch=4 n=65 v=95
40890 On ch=4 n=68 v=79
40890 On ch=4 n=60 v=113
40890 On ch=4 n=53 v=82
40935 On ch=4 n=60 v=0
40945 On ch=4 n=53 v=0
40951 On ch=4 n=65 v=0
40953 On ch=4 n=68 v=0
40980 On ch=4 n=53 v=73
40980 On ch=4 n=68 v=71
40980 On ch=4 n=65 v=95
40980 On ch=4 n=60 v=115
41037 On ch=4 n=60 v=0
41048 On ch=4 n=53 v=0
41049 On ch=4 n=65 v=0
41054 On ch=4 n=68 v=0
41100 On ch=4 n=68 v=69
41100 On ch=4 n=65 v=90
41100 On ch=4 n=60 v=115
41100 On ch=4 n=53 v=79
41155 On ch=4 n=60 v=0
41159 On ch=4 n=53 v=0
41164 On ch=4 n=65 v=0
41175 On ch=4 n=68 v=0
41190 On ch=4 n=68 v=62
41190 On ch=4 n=65 v=95
41190 On ch=4 n=60 v=115
41190 On ch=4 n=53 v=80
41215 On ch=4 n=68 v=0
41224 On ch=4 n=60 v=0
41231 On ch=4 n=65 v=0
41239 On ch=4 n=53 v=0
41760 On ch=4 n=53 v=73
41760 On ch=4 n=68 v=70
41760 On ch=4 n=65 v=93
41760 On ch=4 n=60 v=102
41807 On ch=4 n=60 v=0
41817 On ch=4 n=65 v=0
41817 On ch=4 n=53 v=0
41819 On ch=4 n=68 v=0
41850 On ch=4 n=65 v=97
41850 On ch=4 n=68 v=72
41850 On ch=4 n=60 v=113
41850 On ch=4 n=53 v=72
41893 On ch=4 n=60 v=0
41904 On ch=4 n=53 v=0
41905 On ch=4 n=65 v=0
41907 On ch=4 n=68 v=0
41940 On ch=4 n=65 v=93
41940 On ch=4 n=68 v=71
41940 On ch=4 n=53 v=77
41940 On ch=4 n=60 v=110
41993 On ch=4 n=60 v=0
42005 On ch=4 n=53 v=0
42005 On ch=4 n=65 v=0
42008 On ch=4 n=68 v=0
42060 On ch=4 n=65 v=93
42060 On ch=4 n=68 v=72
42060 On ch=4 n=60 v=109
42060 On ch=4 n=53 v=76
42116 On ch=4 n=60 v=0
42125 On ch=4 n=53 v=0
42127 On ch=4 n=65 v=0
42132 On ch=4 n=68 v=0
42150 On ch=4 n=68 v=75
42150 On ch=4 n=65 v=93
42150 On ch=4 n=60 v=118
42150 On ch=4 n=53 v=82
42181 On ch=4 n=68 v=0
42182 On ch=4 n=60 v=0
42197 On ch=4 n=65 v=0
42206 On ch=4 n=53 v=0
42240 On ch=4 n=67 v=72
42240 On ch=4 n=63 v=92
42240 On ch=4 n=58 v=102
42240 On ch=4 n=51 v=92
42283 On ch=4 n=51 v=0
42293 On ch=4 n=58 v=0
42299 On ch=4 n=63 v=0
42304 On ch=4 n=67 v=0
42330 On ch=4 n=51 v=81
42330 On ch=4 n=67 v=77
42330 On ch=4 n=63 v=90
42330 On ch=4 n=58 v=95
42359 On ch=4 n=67 v=0
42361 On ch=4 n=63 v=0
42378 On ch=4 n=58 v=0
42398 On ch=4 n=51 v=0
42420 On ch=4 n=65 v=89
42420 On ch=4 n=56 v=88
42420 On ch=4 n=61 v=100
42420 On ch=4 n=49 v=84
42470 On ch=4 n=61 v=0
42477 On ch=4 n=49 v=0
42493 On ch=4 n=56 v=0
42495 On ch=4 n=65 v=0
42540 On ch=4 n=65 v=86
42540 On ch=4 n=49 v=109
42540 On ch=4 n=56 v=86
42540 On ch=4 n=61 v=100
42586 On ch=4 n=61 v=0
42591 On ch=4 n=49 v=0
42611 On ch=4 n=56 v=0
42613 On ch=4 n=65 v=0
42630 On ch=4 n=65 v=86
42630 On ch=4 n=61 v=100
42630 On ch=4 n=56 v=67
42630 On ch=4 n=49 v=105
42648 On ch=4 n=56 v=0
42662 On ch=4 n=65 v=0
42667 On ch=4 n=61 v=0
42688 On ch=4 n=49 v=0
42720 On ch=4 n=68 v=63
42720 On ch=4 n=60 v=110
42720 On ch=4 n=65 v=82
42720 On ch=4 n=53 v=79
42765 On ch=4 n=60 v=0
42776 On ch=4 n=65 v=0
42778 On ch=4 n=68 v=0
42780 On ch=4 n=53 v=0
42810 On ch=4 n=68 v=72
42810 On ch=4 n=65 v=95
42810 On ch=4 n=60 v=106
42810 On ch=4 n=53 v=77
42855 On ch=4 n=60 v=0
42864 On ch=4 n=53 v=0
42866 On ch=4 n=65 v=0
42871 On ch=4 n=68 v=0
42900 On ch=4 n=68 v=77
42900 On ch=4 n=65 v=93
42900 On ch=4 n=60 v=110
42900 On ch=4 n=53 v=80
42956 On ch=4 n=60 v=0
42960 On ch=4 n=53 v=0
42965 On ch=4 n=65 v=0
42978 On ch=4 n=68 v=0
43020 On ch=4 n=68 v=70
43020 On ch=4 n=65 v=88
43020 On ch=4 n=60 v=113
43020 On ch=4 n=53 v=81
43071 On ch=4 n=53 v=0
43071 On ch=4 n=60 v=0
43081 On ch=4 n=65 v=0
43089 On ch=4 n=68 v=0
43110 On ch=4 n=68 v=66
43110 On ch=4 n=65 v=97
43110 On ch=4 n=60 v=115
43110 On ch=4 n=53 v=82
43137 On ch=4 n=68 v=0
43141 On ch=4 n=60 v=0
43155 On ch=4 n=65 v=0
43165 On ch=4 n=53 v=0
43200 On ch=4 n=63 v=95
43200 On ch=4 n=67 v=75
43200 On ch=4 n=58 v=100
43200 On ch=4 n=51 v=90
43250 On ch=4 n=51 v=0
43250 On ch=4 n=58 v=0
43253 On ch=4 n=63 v=0
43264 On ch=4 n=67 v=0
43290 On ch=4 n=67 v=73
43290 On ch=4 n=63 v=90
43290 On ch=4 n=58 v=92
43290 On ch=4 n=51 v=89
43320 On ch=4 n=67 v=0
43323 On ch=4 n=63 v=0
43346 On ch=4 n=58 v=0
43360 On ch=4 n=51 v=0
43380 On ch=4 n=65 v=89
43380 On ch=4 n=56 v=89
43380 On ch=4 n=61 v=100
43380 On ch=4 n=49 v=106
43433 On ch=4 n=49 v=0
43435 On ch=4 n=61 v=0
43445 On ch=4 n=65 v=0
43448 On ch=4 n=56 v=0
43500 On ch=4 n=65 v=84
43500 On ch=4 n=56 v=89
43500 On ch=4 n=61 v=100
43500 On ch=4 n=49 v=106
43553 On ch=4 n=61 v=0
43560 On ch=4 n=49 v=0
43567 On ch=4 n=56 v=0
43573 On ch=4 n=65 v=0
43590 On ch=4 n=56 v=75
43590 On ch=4 n=65 v=82
43590 On ch=4 n=49 v=106
43590 On ch=4 n=61 v=100
43618 On ch=4 n=49 v=0
43620 On ch=4 n=61 v=0
43623 On ch=4 n=65 v=0
43623 On ch=4 n=56 v=0
43680 On ch=4 n=53 v=73
43680 On ch=4 n=68 v=70
43680 On ch=4 n=65 v=93
43680 On ch=4 n=60 v=102
43727 On ch=4 n=60 v=0
43737 On ch=4 n=65 v=0
43737 On ch=4 n=53 v=0
43739 On ch=4 n=68 v=0
43770 On ch=4 n=65 v=97
43770 On ch=4 n=68 v=72
43770 On ch=4 n=60 v=113
43770 On ch=4 n=53 v=72
43813 On ch=4 n=60 v=0
43824 On ch=4 n=53 v=0
43825 On ch=4 n=65 v=0
43827 On ch=4 n=68 v=0
43860 On ch=4 n=65 v=93
43860 On ch=4 n=68 v=71
43860 On ch=4 n=53 v=77
43860 On ch=4 n=60 v=110
43913 On ch=4 n=60 v=0
43925 On ch=4 n=53 v=0
43925 On ch=4 n=65 v=0
43928 On ch=4 n=68 v=0
43980 On ch=4 n=65 v=93
43980 On ch=4 n=68 v=72
43980 On ch=4 n=60 v=109
43980 On ch=4 n=53 v=76
44036 On ch=4 n=60 v=0
44045 On ch=4 n=53 v=0
44047 On ch=4 n=65 v=0
44052 On ch=4 n=68 v=0
44070 On ch=4 n=68 v=75
44070 On ch=4 n=65 v=93
44070 On ch=4 n=60 v=118
44070 On ch=4 n=53 v=82
44101 On ch=4 n=68 v=0
44102 On ch=4 n=60 v=0
44117 On ch=4 n=65 v=0
44126 On ch=4 n=53 v=0
44160 On ch=4 n=67 v=72
44160 On ch=4 n=63 v=92
44160 On ch=4 n=58 v=102
44160 On ch=4 n=51 v=92
44203 On ch=4 n=51 v=0
44213 On ch=4 n=58 v=0
44219 On ch=4 n=63 v=0
44224 On ch=4 n=67 v=0
44250 On ch=4 n=51 v=81
44250 On ch=4 n=67 v=77
44250 On ch=4 n=63 v=90
44250 On ch=4 n=58 v=95
44279 On ch=4 n=67 v=0
44281 On ch=4 n=63 v=0
44298 On ch=4 n=58 v=0
44318 On ch=4 n=51 v=0
44340 On ch=4 n=65 v=89
44340 On ch=4 n=56 v=88
44340 On ch=4 n=61 v=100
44340 On ch=4 n=49 v=84
44390 On ch=4 n=61 v=0
44397 On ch=4 n=49 v=0
44413 On ch=4 n=56 v=0
44415 On ch=4 n=65 v=0
44460 On ch=4 n=65 v=86
44460 On ch=4 n=49 v=109
44460 On ch=4 n=56 v=86
44460 On ch=4 n=61 v=100
44506 On ch=4 n=61 v=0
44511 On ch=4 n=49 v=0
44531 On ch=4 n=56 v=0
44533 On ch=4 n=65 v=0
44550 On ch=4 n=65 v=86
44550 On ch=4 n=61 v=100
44550 On ch=4 n=56 v=67
44550 On ch=4 n=49 v=105
44568 On ch=4 n=56 v=0
44582 On ch=4 n=65 v=0
44587 On ch=4 n=61 v=0
44608 On ch=4 n=49 v=0
44640 On ch=4 n=68 v=63
44640 On ch=4 n=60 v=110
44640 On ch=4 n=65 v=82
44640 On ch=4 n=53 v=79
44685 On ch=4 n=60 v=0
44696 On ch=4 n=65 v=0
44698 On ch=4 n=68 v=0
44700 On ch=4 n=53 v=0
44730 On ch=4 n=68 v=72
44730 On ch=4 n=65 v=95
44730 On ch=4 n=60 v=106
44730 On ch=4 n=53 v=77
44775 On ch=4 n=60 v=0
44784 On ch=4 n=53 v=0
44786 On ch=4 n=65 v=0
44791 On ch=4 n=68 v=0
44820 On ch=4 n=68 v=77
44820 On ch=4 n=65 v=93
44820 On ch=4 n=60 v=110
44820 On ch=4 n=53 v=80
44876 On ch=4 n=60 v=0
44880 On ch=4 n=53 v=0
44885 On ch=4 n=65 v=0
44898 On ch=4 n=68 v=0
44940 On ch=4 n=68 v=70
44940 On ch=4 n=65 v=88
44940 On ch=4 n=60 v=113
44940 On ch=4 n=53 v=81
44991 On ch=4 n=53 v=0
44991 On ch=4 n=60 v=0
45001 On ch=4 n=65 v=0
45009 On ch=4 n=68 v=0
45030 On ch=4 n=68 v=66
45030 On ch=4 n=65 v=97
45030 On ch=4 n=60 v=115
45030 On ch=4 n=53 v=82
45057 On ch=4 n=68 v=0
45061 On ch=4 n=60 v=0
45075 On ch=4 n=65 v=0
45085 On ch=4 n=53 v=0
45120 On ch=4 n=63 v=95
45120 On ch=4 n=67 v=75
45120 On ch=4 n=58 v=100
45120 On ch=4 n=51 v=90
45170 On ch=4 n=51 v=0
45170 On ch=4 n=58 v=0
45173 On ch=4 n=63 v=0
45184 On ch=4 n=67 v=0
45210 On ch=4 n=67 v=73
45210 On ch=4 n=63 v=90
45210 On ch=4 n=58 v=92
45210 On ch=4 n=51 v=89
45240 On ch=4 n=67 v=0
45243 On ch=4 n=63 v=0
45266 On ch=4 n=58 v=0
45280 On ch=4 n=51 v=0
45300 On ch=4 n=65 v=89
45300 On ch=4 n=56 v=89
45300 On ch=4 n=61 v=100
45300 On ch=4 n=49 v=106
45353 On ch=4 n=49 v=0
45355 On ch=4 n=61 v=0
45365 On ch=4 n=65 v=0
45368 On ch=4 n=56 v=0
45420 On ch=4 n=65 v=84
45420 On ch=4 n=56 v=89
45420 On ch=4 n=61 v=100
45420 On ch=4 n=49 v=106
45473 On ch=4 n=61 v=0
45480 On ch=4 n=49 v=0
45487 On ch=4 n=56 v=0
45493 On ch=4 n=65 v=0
45510 On ch=4 n=56 v=75
45510 On ch=4 n=65 v=82
45510 On ch=4 n=49 v=106
45510 On ch=4 n=61 v=100
45538 On ch=4 n=49 v=0
45540 On ch=4 n=61 v=0
45543 On ch=4 n=65 v=0
45543 On ch=4 n=56 v=0
45600 On ch=4 n=53 v=73
45600 On ch=4 n=68 v=70
45600 On ch=4 n=65 v=93
45600 On ch=4 n=60 v=102
45647 On ch=4 n=60 v=0
45657 On ch=4 n=65 v=0
45657 On ch=4 n=53 v=0
45659 On ch=4 n=68 v=0
45690 On ch=4 n=65 v=97
45690 On ch=4 n=68 v=72
45690 On ch=4 n=60 v=113
45690 On ch=4 n=53 v=72
45733 On ch=4 n=60 v=0
45744 On ch=4 n=53 v=0
45745 On ch=4 n=65 v=0
45747 On ch=4 n=68 v=0
45780 On ch=4 n=65 v=93
45780 On ch=4 n=68 v=71
45780 On ch=4 n=53 v=77
45780 On ch=4 n=60 v=110
45833 On ch=4 n=60 v=0
45845 On ch=4 n=53 v=0
45845 On ch=4 n=65 v=0
45848 On ch=4 n=68 v=0
45900 On ch=4 n=65 v=93
45900 On ch=4 n=68 v=72
45900 On ch=4 n=60 v=109
45900 On ch=4 n=53 v=76
45956 On ch=4 n=60 v=0
45965 On ch=4 n=53 v=0
45967 On ch=4 n=65 v=0
45972 On ch=4 n=68 v=0
45990 On ch=4 n=68 v=75
45990 On ch=4 n=65 v=93
45990 On ch=4 n=60 v=118
45990 On ch=4 n=53 v=82
46021 On ch=4 n=68 v=0
46022 On ch=4 n=60 v=0
46037 On ch=4 n=65 v=0
46046 On ch=4 n=53 v=0
46080 On ch=4 n=67 v=72
46080 On ch=4 n=63 v=92
46080 On ch=4 n=58 v=102
46080 On ch=4 n=51 v=92
46123 On ch=4 n=51 v=0
46133 On ch=4 n=58 v=0
46139 On ch=4 n=63 v=0
46144 On ch=4 n=67 v=0
46170 On ch=4 n=51 v=81
46170 On ch=4 n=67 v=77
46170 On ch=4 n=63 v=90
46170 On ch=4 n=58 v=95
46199 On ch=4 n=67 v=0
46201 On ch=4 n=63 v=0
46218 On ch=4 n=58 v=0
46238 On ch=4 n=51 v=0
46260 On ch=4 n=65 v=89
46260 On ch=4 n=56 v=88
46260 On ch=4 n=61 v=100
46260 On ch=4 n=49 v=84
46310 On ch=4 n=61 v=0
46317 On ch=4 n=49 v=0
46333 On ch=4 n=56 v=0
46335 On ch=4 n=65 v=0
46380 On ch=4 n=65 v=86
46380 On ch=4 n=49 v=109
46380 On ch=4 n=56 v=86
46380 On ch=4 n=61 v=100
46426 On ch=4 n=61 v=0
46431 On ch=4 n=49 v=0
46451 On ch=4 n=56 v=0
46453 On ch=4 n=65 v=0
46470 On ch=4 n=65 v=86
46470 On ch=4 n=61 v=100
46470 On ch=4 n=56 v=67
46470 On ch=4 n=49 v=105
46488 On ch=4 n=56 v=0
46502 On ch=4 n=65 v=0
46507 On ch=4 n=61 v=0
46528 On ch=4 n=49 v=0
46560 On ch=4 n=68 v=63
46560 On ch=4 n=60 v=110
46560 On ch=4 n=65 v=82
46560 On ch=4 n=53 v=79
46605 On ch=4 n=60 v=0
46616 On ch=4 n=65 v=0
46618 On ch=4 n=68 v=0
46620 On ch=4 n=53 v=0
46650 On ch=4 n=68 v=72
46650 On ch=4 n=65 v=95
46650 On ch=4 n=60 v=106
46650 On ch=4 n=53 v=77
46695 On ch=4 n=60 v=0
46704 On ch=4 n=53 v=0
46706 On ch=4 n=65 v=0
46711 On ch=4 n=68 v=0
46740 On ch=4 n=68 v=77
46740 On ch=4 n=65 v=93
46740 On ch=4 n=60 v=110
46740 On ch=4 n=53 v=80
46796 On ch=4 n=60 v=0
46800 On ch=4 n=53 v=0
46805 On ch=4 n=65 v=0
46818 On ch=4 n=68 v=0
46860 On ch=4 n=68 v=70
46860 On ch=4 n=65 v=88
46860 On ch=4 n=60 v=113
46860 On ch=4 n=53 v=81
46911 On ch=4 n=53 v=0
46911 On ch=4 n=60 v=0
46921 On ch=4 n=65 v=0
46929 On ch=4 n=68 v=0
46950 On ch=4 n=68 v=66
46950 On ch=4 n=65 v=97
46950 On ch=4 n=60 v=115
46950 On ch=4 n=53 v=82
46977 On ch=4 n=68 v=0
46981 On ch=4 n=60 v=0
46995 On ch=4 n=65 v=0
47005 On ch=4 n=53 v=0
47040 On ch=4 n=63 v=95
47040 On ch=4 n=67 v=75
47040 On ch=4 n=58 v=100
47040 On ch=4 n=51 v=90
47090 On ch=4 n=51 v=0
47090 On ch=4 n=58 v=0
47093 On ch=4 n=63 v=0
47104 On ch=4 n=67 v=0
47130 On ch=4 n=67 v=73
47130 On ch=4 n=63 v=90
47130 On ch=4 n=58 v=92
47130 On ch=4 n=51 v=89
47160 On ch=4 n=67 v=0
47163 On ch=4 n=63 v=0
47186 On ch=4 n=58 v=0
47200 On ch=4 n=51 v=0
47220 On ch=4 n=65 v=89
47220 On ch=4 n=56 v=89
47220 On ch=4 n=61 v=100
47220 On ch=4 n=49 v=106
47273 On ch=4 n=49 v=0
47275 On ch=4 n=61 v=0
47285 On ch=4 n=65 v=0
47288 On ch=4 n=56 v=0
47340 On ch=4 n=65 v=84
47340 On ch=4 n=56 v=89
47340 On ch=4 n=61 v=100
47340 On ch=4 n=49 v=106
47393 On ch=4 n=61 v=0
47400 On ch=4 n=49 v=0
47407 On ch=4 n=56 v=0
47413 On ch=4 n=65 v=0
47430 On ch=4 n=56 v=75
47430 On ch=4 n=65 v=82
47430 On ch=4 n=49 v=106
47430 On ch=4 n=61 v=100
47458 On ch=4 n=49 v=0
47460 On ch=4 n=61 v=0
47463 On ch=4 n=65 v=0
47463 On ch=4 n=56 v=0
47520 On ch=4 n=53 v=73
47520 On ch=4 n=68 v=70
47520 On ch=4 n=65 v=93
47520 On ch=4 n=60 v=102
47567 On ch=4 n=60 v=0
47577 On ch=4 n=65 v=0
47577 On ch=4 n=53 v=0
47579 On ch=4 n=68 v=0
47610 On ch=4 n=65 v=97
47610 On ch=4 n=68 v=72
47610 On ch=4 n=60 v=113
47610 On ch=4 n=53 v=72
47653 On ch=4 n=60 v=0
47664 On ch=4 n=53 v=0
47665 On ch=4 n=65 v=0
47667 On ch=4 n=68 v=0
47700 On ch=4 n=65 v=93
47700 On ch=4 n=68 v=71
47700 On ch=4 n=53 v=77
47700 On ch=4 n=60 v=110
47753 On ch=4 n=60 v=0
47765 On ch=4 n=53 v=0
47765 On ch=4 n=65 v=0
47768 On ch=4 n=68 v=0
47820 On ch=4 n=65 v=93
47820 On ch=4 n=68 v=72
47820 On ch=4 n=60 v=109
47820 On ch=4 n=53 v=76
47876 On ch=4 n=60 v=0
47885 On ch=4 n=53 v=0
47887 On ch=4 n=65 v=0
47892 On ch=4 n=68 v=0
47910 On ch=4 n=68 v=75
47910 On ch=4 n=65 v=93
47910 On ch=4 n=60 v=118
47910 On ch=4 n=53 v=82
47941 On ch=4 n=68 v=0
47942 On ch=4 n=60 v=0
47957 On ch=4 n=65 v=0
47966 On ch=4 n=53 v=0
48000 On ch=4 n=53 v=73
48000 On ch=4 n=68 v=70
48000 On ch=4 n=65 v=93
48000 On ch=4 n=60 v=102
48047 On ch=4 n=60 v=0
48057 On ch=4 n=65 v=0
48057 On ch=4 n=53 v=0
48059 On ch=4 n=68 v=0
48090 On ch=4 n=65 v=97
48090 On ch=4 n=68 v=72
48090 On ch=4 n=60 v=113
48090 On ch=4 n=53 v=72
48133 On ch=4 n=60 v=0
48144 On ch=4 n=53 v=0
48145 On ch=4 n=65 v=0
48147 On ch=4 n=68 v=0
48180 On ch=4 n=65 v=93
48180 On ch=4 n=68 v=71
48180 On ch=4 n=53 v=77
48180 On ch=4 n=60 v=110
48233 On ch=4 n=60 v=0
48245 On ch=4 n=53 v=0
48245 On ch=4 n=65 v=0
48248 On ch=4 n=68 v=0
48300 On ch=4 n=65 v=93
48300 On ch=4 n=68 v=72
48300 On ch=4 n=60 v=109
48300 On ch=4 n=53 v=76
48356 On ch=4 n=60 v=0
48365 On ch=4 n=53 v=0
48367 On ch=4 n=65 v=0
48372 On ch=4 n=68 v=0
48390 On ch=4 n=68 v=75
48390 On ch=4 n=65 v=93
48390 On ch=4 n=60 v=118
48390 On ch=4 n=53 v=82
48421 On ch=4 n=68 v=0
48422 On ch=4 n=60 v=0
48437 On ch=4 n=65 v=0
48446 On ch=4 n=53 v=0
48480 On ch=4 n=53 v=73
48480 On ch=4 n=68 v=70
48480 On ch=4 n=65 v=93
48480 On ch=4 n=60 v=102
48527 On ch=4 n=60 v=0
48537 On ch=4 n=65 v=0
48537 On ch=4 n=53 v=0
48539 On ch=4 n=68 v=0
48570 On ch=4 n=65 v=97
48570 On ch=4 n=68 v=72
48570 On ch=4 n=60 v=113
48570 On ch=4 n=53 v=72
48613 On ch=4 n=60 v=0
48624 On ch=4 n=53 v=0
48625 On ch=4 n=65 v=0
48627 On ch=4 n=68 v=0
48660 On ch=4 n=65 v=93
48660 On ch=4 n=68 v=71
48660 On ch=4 n=53 v=77
48660 On ch=4 n=60 v=110
48713 On ch=4 n=60 v=0
48725 On ch=4 n=53 v=0
48725 On ch=4 n=65 v=0
48728 On ch=4 n=68 v=0
48780 On ch=4 n=65 v=93
48780 On ch=4 n=68 v=72
48780 On ch=4 n=60 v=109
48780 On ch=4 n=53 v=76
48836 On ch=4 n=60 v=0
48845 On ch=4 n=53 v=0
48847 On ch=4 n=65 v=0
48852 On ch=4 n=68 v=0
48870 On ch=4 n=68 v=75
48870 On ch=4 n=65 v=93
48870 On ch=4 n=60 v=118
48870 On ch=4 n=53 v=82
48901 On ch=4 n=68 v=0
48902 On ch=4 n=60 v=0
48917 On ch=4 n=65 v=0
48926 On ch=4 n=53 v=0
48960 On ch=4 n=53 v=73
48960 On ch=4 n=68 v=70
48960 On ch=4 n=65 v=93
48960 On ch=4 n=60 v=102
49007 On ch=4 n=60 v=0
49017 On ch=4 n=65 v=0
49017 On ch=4 n=53 v=0
49019 On ch=4 n=68 v=0
49050 On ch=4 n=65 v=97
49050 On ch=4 n=68 v=72
49050 On ch=4 n=60 v=113
49050 On ch=4 n=53 v=72
49093 On ch=4 n=60 v=0
49104 On ch=4 n=53 v=0
49105 On ch=4 n=65 v=0
49107 On ch=4 n=68 v=0
49140 On ch=4 n=65 v=93
49140 On ch=4 n=68 v=71
49140 On ch=4 n=53 v=77
49140 On ch=4 n=60 v=110
49193 On ch=4 n=60 v=0
49205 On ch=4 n=53 v=0
49205 On ch=4 n=65 v=0
49208 On ch=4 n=68 v=0
49260 On ch=4 n=65 v=93
49260 On ch=4 n=68 v=72
49260 On ch=4 n=60 v=109
49260 On ch=4 n=53 v=76
49316 On ch=4 n=60 v=0
49325 On ch=4 n=53 v=0
49327 On ch=4 n=65 v=0
49332 On ch=4 n=68 v=0
49350 On ch=4 n=68 v=75
49350 On ch=4 n=65 v=93
49350 On ch=4 n=60 v=118
49350 On ch=4 n=53 v=82
49381 On ch=4 n=68 v=0
49382 On ch=4 n=60 v=0
49397 On ch=4 n=65 v=0
49406 On ch=4 n=53 v=0
49440 On ch=4 n=53 v=73
49440 On ch=4 n=68 v=70
49440 On ch=4 n=65 v=93
49440 On ch=4 n=60 v=102
49487 On ch=4 n=60 v=0
49497 On ch=4 n=65 v=0
49497 On ch=4 n=53 v=0
49499 On ch=4 n=68 v=0
49530 On ch=4 n=65 v=97
49530 On ch=4 n=68 v=72
49530 On ch=4 n=60 v=113
49530 On ch=4 n=53 v=72
49573 On ch=4 n=60 v=0
49584 On ch=4 n=53 v=0
49585 On ch=4 n=65 v=0
49587 On ch=4 n=68 v=0
49620 On ch=4 n=65 v=93
49620 On ch=4 n=68 v=71
49620 On ch=4 n=53 v=77
49620 On ch=4 n=60 v=110
49673 On ch=4 n=60 v=0
49685 On ch=4 n=53 v=0
49685 On ch=4 n=65 v=0
49688 On ch=4 n=68 v=0
49740 On ch=4 n=65 v=93
49740 On ch=4 n=68 v=72
49740 On ch=4 n=60 v=109
49740 On ch=4 n=53 v=76
49796 On ch=4 n=60 v=0
49805 On ch=4 n=53 v=0
49807 On ch=4 n=65 v=0
49812 On ch=4 n=68 v=0
49830 On ch=4 n=68 v=75
49830 On ch=4 n=65 v=93
49830 On ch=4 n=60 v=118
49830 On ch=4 n=53 v=82
49861 On ch=4 n=68 v=0
49862 On ch=4 n=60 v=0
49877 On ch=4 n=65 v=0
49886 On ch=4 n=53 v=0
49920 On ch=4 n=53 v=73
49920 On ch=4 n=68 v=70
49920 On ch=4 n=65 v=93
49920 On ch=4 n=60 v=102
49967 On ch=4 n=60 v=0
49977 On ch=4 n=65 v=0
49977 On ch=4 n=53 v=0
49979 On ch=4 n=68 v=0
50010 On ch=4 n=65 v=97
50010 On ch=4 n=68 v=72
50010 On ch=4 n=60 v=113
50010 On ch=4 n=53 v=72
50053 On ch=4 n=60 v=0
50064 On ch=4 n=53 v=0
50065 On ch=4 n=65 v=0
50067 On ch=4 n=68 v=0
50100 On ch=4 n=65 v=93
50100 On ch=4 n=68 v=71
50100 On ch=4 n=53 v=77
50100 On ch=4 n=60 v=110
50153 On ch=4 n=60 v=0
50165 On ch=4 n=53 v=0
50165 On ch=4 n=65 v=0
50168 On ch=4 n=68 v=0
50220 On ch=4 n=65 v=93
50220 On ch=4 n=68 v=72
50220 On ch=4 n=60 v=109
50220 On ch=4 n=53 v=76
50276 On ch=4 n=60 v=0
50285 On ch=4 n=53 v=0
50287 On ch=4 n=65 v=0
50292 On ch=4 n=68 v=0
50310 On ch=4 n=68 v=75
50310 On ch=4 n=65 v=93
50310 On ch=4 n=60 v=118
50310 On ch=4 n=53 v=82
50341 On ch=4 n=68 v=0
50342 On ch=4 n=60 v=0
50357 On ch=4 n=65 v=0
50366 On ch=4 n=53 v=0
50400 On ch=4 n=53 v=73
50400 On ch=4 n=68 v=70
50400 On ch=4 n=65 v=93
50400 On ch=4 n=60 v=102
50447 On ch=4 n=60 v=0
50457 On ch=4 n=65 v=0
50457 On ch=4 n=53 v=0
50459 On ch=4 n=68 v=0
50490 On ch=4 n=65 v=97
50490 On ch=4 n=68 v=72
50490 On ch=4 n=60 v=113
50490 On ch=4 n=53 v=72
50533 On ch=4 n=60 v=0
50544 On ch=4 n=53 v=0
50545 On ch=4 n=65 v=0
50547 On ch=4 n=68 v=0
50580 On ch=4 n=65 v=93
50580 On ch=4 n=68 v=71
50580 On ch=4 n=53 v=77
50580 On ch=4 n=60 v=110
50633 On ch=4 n=60 v=0
50645 On ch=4 n=53 v=0
50645 On ch=4 n=65 v=0
50648 On ch=4 n=68 v=0
50700 On ch=4 n=65 v=93
50700 On ch=4 n=68 v=72
50700 On ch=4 n=60 v=109
50700 On ch=4 n=53 v=76
50756 On ch=4 n=60 v=0
50765 On ch=4 n=53 v=0
50767 On ch=4 n=65 v=0
50772 On ch=4 n=68 v=0
50790 On ch=4 n=68 v=75
50790 On ch=4 n=65 v=93
50790 On ch=4 n=60 v=118
50790 On ch=4 n=53 v=82
50821 On ch=4 n=68 v=0
50822 On ch=4 n=60 v=0
50837 On ch=4 n=65 v=0
50846 On ch=4 n=53 v=0
50880 On ch=4 n=53 v=73
50880 On ch=4 n=68 v=70
50880 On ch=4 n=65 v=93
50880 On ch=4 n=60 v=102
50927 On ch=4 n=60 v=0
50937 On ch=4 n=65 v=0
50937 On ch=4 n=53 v=0
50939 On ch=4 n=68 v=0
50970 On ch=4 n=65 v=97
50970 On ch=4 n=68 v=72
50970 On ch=4 n=60 v=113
50970 On ch=4 n=53 v=72
51013 On ch=4 n=60 v=0
51024 On ch=4 n=53 v=0
51025 On ch=4 n=65 v=0
51027 On ch=4 n=68 v=0
51060 On ch=4 n=65 v=93
51060 On ch=4 n=68 v=71
51060 On ch=4 n=53 v=77
51060 On ch=4 n=60 v=110
51113 On ch=4 n=60 v=0
51125 On ch=4 n=53 v=0
51125 On ch=4 n=65 v=0
51128 On ch=4 n=68 v=0
51180 On ch=4 n=65 v=93
51180 On ch=4 n=68 v=72
51180 On ch=4 n=60 v=109
51180 On ch=4 n=53 v=76
51236 On ch=4 n=60 v=0
51245 On ch=4 n=53 v=0
51247 On ch=4 n=65 v=0
51252 On ch=4 n=68 v=0
51270 On ch=4 n=68 v=75
51270 On ch=4 n=65 v=93
51270 On ch=4 n=60 v=118
51270 On ch=4 n=53 v=82
51301 On ch=4 n=68 v=0
51302 On ch=4 n=60 v=0
51317 On ch=4 n=65 v=0
51326 On ch=4 n=53 v=0
51326 Meta TrkEnd
TrkEnd
MTrk
0 Meta TrkName "Brightness"
0 PrCh ch=5 p=100
0 Par ch=5 c=7 v=110
483 Par ch=5 c=91 v=80
483 Par ch=5 c=93 v=30
16680 On ch=5 n=65 v=80
16706 On ch=5 n=65 v=0
17640 On ch=5 n=65 v=80
17659 On ch=5 n=65 v=0
18600 On ch=5 n=65 v=80
18620 On ch=5 n=65 v=0
36840 On ch=5 n=65 v=80
36866 On ch=5 n=65 v=0
37800 On ch=5 n=65 v=80
37819 On ch=5 n=65 v=0
38760 On ch=5 n=65 v=80
38786 On ch=5 n=65 v=0
39720 On ch=5 n=65 v=80
39739 On ch=5 n=65 v=0
56040 On ch=5 n=65 v=80
56066 On ch=5 n=65 v=0
57000 On ch=5 n=65 v=80
57019 On ch=5 n=65 v=0
57960 On ch=5 n=65 v=80
57986 On ch=5 n=65 v=0
58920 On ch=5 n=65 v=80
58939 On ch=5 n=65 v=0
64680 On ch=5 n=65 v=80
64706 On ch=5 n=65 v=0
65640 On ch=5 n=65 v=80
65659 On ch=5 n=65 v=0
66600 On ch=5 n=65 v=80
66626 On ch=5 n=65 v=0
66626 Meta TrkEnd
TrkEnd
MTrk
0 Meta TrkName "Starship"
0 Par ch=6 c=0 v=8
0 Par ch=6 c=7 v=90
1 Par ch=6 c=32 v=0
2 PrCh ch=6 p=125
14640 On ch=6 n=41 v=110
15833 On ch=6 n=41 v=0
22320 On ch=6 n=41 v=110
23513 On ch=6 n=41 v=0
26160 On ch=6 n=41 v=110
27353 On ch=6 n=41 v=0
50160 On ch=6 n=41 v=110
51353 On ch=6 n=41 v=0
58800 On ch=6 n=41 v=110
59993 On ch=6 n=41 v=0
59993 Meta TrkEnd
TrkEnd
MTrk
0 Meta TrkName "Applause 2"
0 Par ch=7 c=0 v=6
0 Par ch=7 c=7 v=80
1 Par ch=7 c=32 v=0
2 PrCh ch=7 p=126
480 On ch=7 n=53 v=80
960 On ch=7 n=53 v=0
2400 On ch=7 n=53 v=80
2880 On ch=7 n=53 v=0
2880 Meta TrkEnd
TrkEnd
MTrk
0 Meta TrkName "Explosion"
0 Par ch=8 c=0 v=3
0 Par ch=8 c=7 v=100
1 Par ch=8 c=32 v=0
2 PrCh ch=8 p=127
4320 On ch=8 n=77 v=100
5280 On ch=8 n=77 v=0
8160 On ch=8 n=77 v=100
9120 On ch=8 n=77 v=0
12000 On ch=8 n=77 v=100
12960 On ch=8 n=77 v=0
27360 On ch=8 n=77 v=100
28320 On ch=8 n=77 v=0
29280 On ch=8 n=77 v=100
30240 On ch=8 n=77 v=0
39840 On ch=8 n=77 v=100
40800 On ch=8 n=77 v=0
41760 On ch=8 n=77 v=100
42720 On ch=8 n=77 v=0
43680 On ch=8 n=77 v=100
44640 On ch=8 n=77 v=0
45600 On ch=8 n=77 v=100
46560 On ch=8 n=77 v=0
46560 On ch=8 n=77 v=100
47520 On ch=8 n=77 v=0
47520 On ch=8 n=77 v=100
48480 On ch=8 n=77 v=0
48480 Meta TrkEnd
TrkEnd
MTrk
0 Meta TrkName "Sawtooth bass"
0 PrCh ch=9 p=81
0 Par ch=9 c=7 v=100
483 Par ch=9 c=91 v=50
483 Par ch=9 c=93 v=20
960 On ch=9 n=29 v=55
1054 On ch=9 n=29 v=0
1080 On ch=9 n=29 v=59
1181 On ch=9 n=29 v=0
1200 On ch=9 n=29 v=64
1306 On ch=9 n=29 v=0
1320 On ch=9 n=29 v=51
1407 On ch=9 n=29 v=0
1920 On ch=9 n=29 v=65
2008 On ch=9 n=29 v=0
2040 On ch=9 n=29 v=56
2138 On ch=9 n=29 v=0
2160 On ch=9 n=29 v=62
2267 On ch=9 n=29 v=0
2280 On ch=9 n=29 v=66
2368 On ch=9 n=29 v=0
2880 On ch=9 n=29 v=59
2970 On ch=9 n=29 v=0
3000 On ch=9 n=29 v=62
3087 On ch=9 n=29 v=0
3120 On ch=9 n=29 v=60
3210 On ch=9 n=29 v=0
3240 On ch=9 n=29 v=62
3327 On ch=9 n=29 v=0
3360 On ch=9 n=29 v=61
3451 On ch=9 n=29 v=0
3480 On ch=9 n=29 v=62
3575 On ch=9 n=29 v=0
3600 On ch=9 n=29 v=67
3688 On ch=9 n=29 v=0
3720 On ch=9 n=29 v=64
3811 On ch=9 n=29 v=0
3840 On ch=9 n=29 v=70
3933 On ch=9 n=29 v=0
3960 On ch=9 n=29 v=76
4053 On ch=9 n=29 v=0
4080 On ch=9 n=29 v=68
4167 On ch=9 n=29 v=0
4200 On ch=9 n=29 v=69
4274 On ch=9 n=29 v=0
4274 Meta TrkEnd
TrkEnd
MTrk
0 Meta TrkName "Cheese organ"
0 Par ch=12 c=0 v=24
0 Par ch=12 c=7 v=80
1 Par ch=12 c=32 v=0
2 PrCh ch=12 p=16
480 Par ch=12 c=91 v=100
4320 On ch=12 n=77 v=80
4320 On ch=12 n=80 v=80
4320 On ch=12 n=72 v=80
4380 On ch=12 n=72 v=0
4380 On ch=12 n=80 v=0
4380 On ch=12 n=77 v=0
4410 On ch=12 n=80 v=80
4410 On ch=12 n=77 v=80
4410 On ch=12 n=72 v=80
4470 On ch=12 n=72 v=0
4470 On ch=12 n=77 v=0
4470 On ch=12 n=80 v=0
4500 On ch=12 n=77 v=80
4500 On ch=12 n=80 v=80
4500 On ch=12 n=72 v=80
4560 On ch=12 n=72 v=0
4560 On ch=12 n=80 v=0
4560 On ch=12 n=77 v=0
4620 On ch=12 n=80 v=80
4620 On ch=12 n=77 v=80
4620 On ch=12 n=72 v=80
4680 On ch=12 n=72 v=0
4680 On ch=12 n=77 v=0
4680 On ch=12 n=80 v=0
4710 On ch=12 n=77 v=80
4710 On ch=12 n=80 v=80
4710 On ch=12 n=72 v=80
4770 On ch=12 n=72 v=0
4770 On ch=12 n=80 v=0
4770 On ch=12 n=77 v=0
4800 On ch=12 n=75 v=80
4800 On ch=12 n=79 v=80
4800 On ch=12 n=70 v=80
4860 On ch=12 n=70 v=0
4860 On ch=12 n=79 v=0
4860 On ch=12 n=75 v=0
4890 On ch=12 n=75 v=80
4890 On ch=12 n=79 v=80
4890 On ch=12 n=70 v=80
4950 On ch=12 n=70 v=0
4950 On ch=12 n=79 v=0
4950 On ch=12 n=75 v=0
4980 On ch=12 n=73 v=80
4980 On ch=12 n=77 v=80
4980 On ch=12 n=68 v=80
5040 On ch=12 n=68 v=0
5040 On ch=12 n=77 v=0
5040 On ch=12 n=73 v=0
5100 On ch=12 n=77 v=80
5100 On ch=12 n=73 v=80
5100 On ch=12 n=68 v=80
5160 On ch=12 n=68 v=0
5160 On ch=12 n=73 v=0
5160 On ch=12 n=77 v=0
5190 On ch=12 n=77 v=80
5190 On ch=12 n=73 v=80
5190 On ch=12 n=68 v=80
5250 On ch=12 n=68 v=0
5250 On ch=12 n=73 v=0
5250 On ch=12 n=77 v=0
5280 On ch=12 n=77 v=80
5280 On ch=12 n=80 v=80
5280 On ch=12 n=72 v=80
5340 On ch=12 n=72 v=0
5340 On ch=12 n=80 v=0
5340 On ch=12 n=77 v=0
5370 On ch=12 n=77 v=80
5370 On ch=12 n=80 v=80
5370 On ch=12 n=72 v=80
5430 On ch=12 n=72 v=0
5430 On ch=12 n=80 v=0
5430 On ch=12 n=77 v=0
5460 On ch=12 n=77 v=80
5460 On ch=12 n=80 v=80
5460 On ch=12 n=72 v=80
5520 On ch=12 n=72 v=0
5520 On ch=12 n=80 v=0
5520 On ch=12 n=77 v=0
5580 On ch=12 n=77 v=80
5580 On ch=12 n=80 v=80
5580 On ch=12 n=72 v=80
5640 On ch=12 n=72 v=0
5640 On ch=12 n=80 v=0
5640 On ch=12 n=77 v=0
5670 On ch=12 n=77 v=80
5670 On ch=12 n=80 v=80
5670 On ch=12 n=72 v=80
5730 On ch=12 n=72 v=0
5730 On ch=12 n=80 v=0
5730 On ch=12 n=77 v=0
5760 On ch=12 n=79 v=80
5760 On ch=12 n=75 v=80
5760 On ch=12 n=70 v=80
5820 On ch=12 n=70 v=0
5820 On ch=12 n=75 v=0
5820 On ch=12 n=79 v=0
5850 On ch=12 n=70 v=80
5850 On ch=12 n=79 v=80
5850 On ch=12 n=75 v=80
5910 On ch=12 n=75 v=0
5910 On ch=12 n=79 v=0
5910 On ch=12 n=70 v=0
5940 On ch=12 n=73 v=80
5940 On ch=12 n=77 v=80
5940 On ch=12 n=80 v=80
5940 On ch=12 n=68 v=80
6000 On ch=12 n=68 v=0
6000 On ch=12 n=73 v=0
6000 On ch=12 n=77 v=0
6000 On ch=12 n=80 v=0
6060 On ch=12 n=68 v=80
6060 On ch=12 n=77 v=80
6060 On ch=12 n=73 v=80
6060 On ch=12 n=80 v=80
6120 On ch=12 n=80 v=0
6120 On ch=12 n=68 v=0
6120 On ch=12 n=77 v=0
6120 On ch=12 n=73 v=0
6150 On ch=12 n=77 v=80
6150 On ch=12 n=68 v=80
6150 On ch=12 n=80 v=80
6150 On ch=12 n=73 v=80
6210 On ch=12 n=73 v=0
6210 On ch=12 n=77 v=0
6210 On ch=12 n=68 v=0
6210 On ch=12 n=80 v=0
6240 On ch=12 n=77 v=80
6240 On ch=12 n=80 v=80
6240 On ch=12 n=72 v=80
6300 On ch=12 n=72 v=0
6300 On ch=12 n=80 v=0
6300 On ch=12 n=77 v=0
6330 On ch=12 n=80 v=80
6330 On ch=12 n=77 v=80
6330 On ch=12 n=72 v=80
6390 On ch=12 n=72 v=0
6390 On ch=12 n=77 v=0
6390 On ch=12 n=80 v=0
6420 On ch=12 n=77 v=80
6420 On ch=12 n=80 v=80
6420 On ch=12 n=72 v=80
6480 On ch=12 n=72 v=0
6480 On ch=12 n=80 v=0
6480 On ch=12 n=77 v=0
6540 On ch=12 n=80 v=80
6540 On ch=12 n=77 v=80
6540 On ch=12 n=72 v=80
6600 On ch=12 n=72 v=0
6600 On ch=12 n=77 v=0
6600 On ch=12 n=80 v=0
6630 On ch=12 n=77 v=80
6630 On ch=12 n=80 v=80
6630 On ch=12 n=72 v=80
6690 On ch=12 n=72 v=0
6690 On ch=12 n=80 v=0
6690 On ch=12 n=77 v=0
6720 On ch=12 n=75 v=80
6720 On ch=12 n=79 v=80
6720 On ch=12 n=70 v=80
6780 On ch=12 n=70 v=0
6780 On ch=12 n=79 v=0
6780 On ch=12 n=75 v=0
6810 On ch=12 n=75 v=80
6810 On ch=12 n=79 v=80
6810 On ch=12 n=70 v=80
6870 On ch=12 n=70 v=0
6870 On ch=12 n=79 v=0
6870 On ch=12 n=75 v=0
6900 On ch=12 n=73 v=80
6900 On ch=12 n=77 v=80
6900 On ch=12 n=68 v=80
6960 On ch=12 n=68 v=0
6960 On ch=12 n=77 v=0
6960 On ch=12 n=73 v=0
7020 On ch=12 n=77 v=80
7020 On ch=12 n=73 v=80
7020 On ch=12 n=68 v=80
7080 On ch=12 n=68 v=0
7080 On ch=12 n=73 v=0
7080 On ch=12 n=77 v=0
7110 On ch=12 n=77 v=80
7110 On ch=12 n=73 v=80
7110 On ch=12 n=68 v=80
7170 On ch=12 n=68 v=0
7170 On ch=12 n=73 v=0
7170 On ch=12 n=77 v=0
7200 On ch=12 n=77 v=80
7200 On ch=12 n=80 v=80
7200 On ch=12 n=72 v=80
7260 On ch=12 n=72 v=0
7260 On ch=12 n=80 v=0
7260 On ch=12 n=77 v=0
7290 On ch=12 n=77 v=80
7290 On ch=12 n=80 v=80
7290 On ch=12 n=72 v=80
7350 On ch=12 n=72 v=0
7350 On ch=12 n=80 v=0
7350 On ch=12 n=77 v=0
7380 On ch=12 n=77 v=80
7380 On ch=12 n=80 v=80
7380 On ch=12 n=72 v=80
7440 On ch=12 n=72 v=0
7440 On ch=12 n=80 v=0
7440 On ch=12 n=77 v=0
7500 On ch=12 n=77 v=80
7500 On ch=12 n=80 v=80
7500 On ch=12 n=72 v=80
7560 On ch=12 n=72 v=0
7560 On ch=12 n=80 v=0
7560 On ch=12 n=77 v=0
7590 On ch=12 n=77 v=80
7590 On ch=12 n=80 v=80
7590 On ch=12 n=72 v=80
7650 On ch=12 n=72 v=0
7650 On ch=12 n=80 v=0
7650 On ch=12 n=77 v=0
7680 On ch=12 n=79 v=80
7680 On ch=12 n=75 v=80
7680 On ch=12 n=70 v=80
7740 On ch=12 n=70 v=0
7740 On ch=12 n=75 v=0
7740 On ch=12 n=79 v=0
7770 On ch=12 n=70 v=80
7770 On ch=12 n=79 v=80
7770 On ch=12 n=75 v=80
7830 On ch=12 n=75 v=0
7830 On ch=12 n=79 v=0
7830 On ch=12 n=70 v=0
7860 On ch=12 n=73 v=80
7860 On ch=12 n=77 v=80
7860 On ch=12 n=80 v=80
7860 On ch=12 n=68 v=80
7920 On ch=12 n=68 v=0
7920 On ch=12 n=73 v=0
7920 On ch=12 n=77 v=0
7920 On ch=12 n=80 v=0
7980 On ch=12 n=68 v=80
7980 On ch=12 n=77 v=80
7980 On ch=12 n=73 v=80
7980 On ch=12 n=80 v=80
8040 On ch=12 n=80 v=0
8040 On ch=12 n=68 v=0
8040 On ch=12 n=77 v=0
8040 On ch=12 n=73 v=0
8070 On ch=12 n=77 v=80
8070 On ch=12 n=68 v=80
8070 On ch=12 n=80 v=80
8070 On ch=12 n=73 v=80
8130 On ch=12 n=73 v=0
8130 On ch=12 n=77 v=0
8130 On ch=12 n=68 v=0
8130 On ch=12 n=80 v=0
8160 On ch=12 n=77 v=80
8160 On ch=12 n=80 v=80
8160 On ch=12 n=72 v=80
8220 On ch=12 n=72 v=0
8220 On ch=12 n=80 v=0
8220 On ch=12 n=77 v=0
8250 On ch=12 n=80 v=80
8250 On ch=12 n=77 v=80
8250 On ch=12 n=72 v=80
8310 On ch=12 n=72 v=0
8310 On ch=12 n=77 v=0
8310 On ch=12 n=80 v=0
8340 On ch=12 n=77 v=80
8340 On ch=12 n=80 v=80
8340 On ch=12 n=72 v=80
8400 On ch=12 n=72 v=0
8400 On ch=12 n=80 v=0
8400 On ch=12 n=77 v=0
8460 On ch=12 n=80 v=80
8460 On ch=12 n=77 v=80
8460 On ch=12 n=72 v=80
8520 On ch=12 n=72 v=0
8520 On ch=12 n=77 v=0
8520 On ch=12 n=80 v=0
8550 On ch=12 n=77 v=80
8550 On ch=12 n=80 v=80
8550 On ch=12 n=72 v=80
8610 On ch=12 n=72 v=0
8610 On ch=12 n=80 v=0
8610 On ch=12 n=77 v=0
8640 On ch=12 n=75 v=80
8640 On ch=12 n=79 v=80
8640 On ch=12 n=70 v=80
8700 On ch=12 n=70 v=0
8700 On ch=12 n=79 v=0
8700 On ch=12 n=75 v=0
8730 On ch=12 n=75 v=80
8730 On ch=12 n=79 v=80
8730 On ch=12 n=70 v=80
8790 On ch=12 n=70 v=0
8790 On ch=12 n=79 v=0
8790 On ch=12 n=75 v=0
8820 On ch=12 n=73 v=80
8820 On ch=12 n=77 v=80
8820 On ch=12 n=68 v=80
8880 On ch=12 n=68 v=0
8880 On ch=12 n=77 v=0
8880 On ch=12 n=73 v=0
8940 On ch=12 n=77 v=80
8940 On ch=12 n=73 v=80
8940 On ch=12 n=68 v=80
9000 On ch=12 n=68 v=0
9000 On ch=12 n=73 v=0
9000 On ch=12 n=77 v=0
9030 On ch=12 n=77 v=80
9030 On ch=12 n=73 v=80
9030 On ch=12 n=68 v=80
9090 On ch=12 n=68 v=0
9090 On ch=12 n=73 v=0
9090 On ch=12 n=77 v=0
9120 On ch=12 n=77 v=80
9120 On ch=12 n=80 v=80
9120 On ch=12 n=72 v=80
9180 On ch=12 n=72 v=0
9180 On ch=12 n=80 v=0
9180 On ch=12 n=77 v=0
9210 On ch=12 n=77 v=80
9210 On ch=12 n=80 v=80
9210 On ch=12 n=72 v=80
9270 On ch=12 n=72 v=0
9270 On ch=12 n=80 v=0
9270 On ch=12 n=77 v=0
9300 On ch=12 n=77 v=80
9300 On ch=12 n=80 v=80
9300 On ch=12 n=72 v=80
9360 On ch=12 n=72 v=0
9360 On ch=12 n=80 v=0
9360 On ch=12 n=77 v=0
9420 On ch=12 n=77 v=80
9420 On ch=12 n=80 v=80
9420 On ch=12 n=72 v=80
9480 On ch=12 n=72 v=0
9480 On ch=12 n=80 v=0
9480 On ch=12 n=77 v=0
9510 On ch=12 n=77 v=80
9510 On ch=12 n=80 v=80
9510 On ch=12 n=72 v=80
9570 On ch=12 n=72 v=0
9570 On ch=12 n=80 v=0
9570 On ch=12 n=77 v=0
9600 On ch=12 n=79 v=80
9600 On ch=12 n=75 v=80
9600 On ch=12 n=70 v=80
9660 On ch=12 n=70 v=0
9660 On ch=12 n=75 v=0
9660 On ch=12 n=79 v=0
9690 On ch=12 n=70 v=80
9690 On ch=12 n=79 v=80
9690 On ch=12 n=75 v=80
9750 On ch=12 n=75 v=0
9750 On ch=12 n=79 v=0
9750 On ch=12 n=70 v=0
9780 On ch=12 n=73 v=80
9780 On ch=12 n=77 v=80
9780 On ch=12 n=80 v=80
9780 On ch=12 n=68 v=80
9840 On ch=12 n=68 v=0
9840 On ch=12 n=73 v=0
9840 On ch=12 n=77 v=0
9840 On ch=12 n=80 v=0
9900 On ch=12 n=68 v=80
9900 On ch=12 n=77 v=80
9900 On ch=12 n=73 v=80
9900 On ch=12 n=80 v=80
9960 On ch=12 n=80 v=0
9960 On ch=12 n=68 v=0
9960 On ch=12 n=77 v=0
9960 On ch=12 n=73 v=0
9990 On ch=12 n=77 v=80
9990 On ch=12 n=68 v=80
9990 On ch=12 n=80 v=80
9990 On ch=12 n=73 v=80
10050 On ch=12 n=73 v=0
10050 On ch=12 n=77 v=0
10050 On ch=12 n=68 v=0
10050 On ch=12 n=80 v=0
10080 On ch=12 n=77 v=80
10080 On ch=12 n=80 v=80
10080 On ch=12 n=72 v=80
10140 On ch=12 n=72 v=0
10140 On ch=12 n=80 v=0
10140 On ch=12 n=77 v=0
10170 On ch=12 n=80 v=80
10170 On ch=12 n=77 v=80
10170 On ch=12 n=72 v=80
10230 On ch=12 n=72 v=0
10230 On ch=12 n=77 v=0
10230 On ch=12 n=80 v=0
10260 On ch=12 n=77 v=80
10260 On ch=12 n=80 v=80
10260 On ch=12 n=72 v=80
10320 On ch=12 n=72 v=0
10320 On ch=12 n=80 v=0
10320 On ch=12 n=77 v=0
10380 On ch=12 n=80 v=80
10380 On ch=12 n=77 v=80
10380 On ch=12 n=72 v=80
10440 On ch=12 n=72 v=0
10440 On ch=12 n=77 v=0
10440 On ch=12 n=80 v=0
10470 On ch=12 n=77 v=80
10470 On ch=12 n=80 v=80
10470 On ch=12 n=72 v=80
10530 On ch=12 n=72 v=0
10530 On ch=12 n=80 v=0
10530 On ch=12 n=77 v=0
10560 On ch=12 n=75 v=80
10560 On ch=12 n=79 v=80
10560 On ch=12 n=70 v=80
10620 On ch=12 n=70 v=0
10620 On ch=12 n=79 v=0
10620 On ch=12 n=75 v=0
10650 On ch=12 n=75 v=80
10650 On ch=12 n=79 v=80
10650 On ch=12 n=70 v=80
10710 On ch=12 n=70 v=0
10710 On ch=12 n=79 v=0
10710 On ch=12 n=75 v=0
10740 On ch=12 n=73 v=80
10740 On ch=12 n=77 v=80
10740 On ch=12 n=68 v=80
10800 On ch=12 n=68 v=0
10800 On ch=12 n=77 v=0
10800 On ch=12 n=73 v=0
10860 On ch=12 n=77 v=80
10860 On ch=12 n=73 v=80
10860 On ch=12 n=68 v=80
10920 On ch=12 n=68 v=0
10920 On ch=12 n=73 v=0
10920 On ch=12 n=77 v=0
10950 On ch=12 n=77 v=80
10950 On ch=12 n=73 v=80
10950 On ch=12 n=68 v=80
11010 On ch=12 n=68 v=0
11010 On ch=12 n=73 v=0
11010 On ch=12 n=77 v=0
11040 On ch=12 n=77 v=80
11040 On ch=12 n=80 v=80
11040 On ch=12 n=72 v=80
11100 On ch=12 n=72 v=0
11100 On ch=12 n=80 v=0
11100 On ch=12 n=77 v=0
11130 On ch=12 n=77 v=80
11130 On ch=12 n=80 v=80
11130 On ch=12 n=72 v=80
11190 On ch=12 n=72 v=0
11190 On ch=12 n=80 v=0
11190 On ch=12 n=77 v=0
11220 On ch=12 n=77 v=80
11220 On ch=12 n=80 v=80
11220 On ch=12 n=72 v=80
11280 On ch=12 n=72 v=0
11280 On ch=12 n=80 v=0
11280 On ch=12 n=77 v=0
11340 On ch=12 n=77 v=80
11340 On ch=12 n=80 v=80
11340 On ch=12 n=72 v=80
11400 On ch=12 n=72 v=0
11400 On ch=12 n=80 v=0
11400 On ch=12 n=77 v=0
12000 On ch=12 n=77 v=80
12000 On ch=12 n=80 v=80
12000 On ch=12 n=72 v=80
12060 On ch=12 n=72 v=0
12060 On ch=12 n=80 v=0
12060 On ch=12 n=77 v=0
12090 On ch=12 n=80 v=80
12090 On ch=12 n=77 v=80
12090 On ch=12 n=72 v=80
12150 On ch=12 n=72 v=0
12150 On ch=12 n=77 v=0
12150 On ch=12 n=80 v=0
12180 On ch=12 n=77 v=80
12180 On ch=12 n=80 v=80
12180 On ch=12 n=72 v=80
12240 On ch=12 n=72 v=0
12240 On ch=12 n=80 v=0
12240 On ch=12 n=77 v=0
12300 On ch=12 n=80 v=80
12300 On ch=12 n=77 v=80
12300 On ch=12 n=72 v=80
12360 On ch=12 n=72 v=0
12360 On ch=12 n=77 v=0
12360 On ch=12 n=80 v=0
12390 On ch=12 n=77 v=80
12390 On ch=12 n=80 v=80
12390 On ch=12 n=72 v=80
12450 On ch=12 n=72 v=0
12450 On ch=12 n=80 v=0
12450 On ch=12 n=77 v=0
12480 On ch=12 n=75 v=80
12480 On ch=12 n=79 v=80
12480 On ch=12 n=70 v=80
12540 On ch=12 n=70 v=0
12540 On ch=12 n=79 v=0
12540 On ch=12 n=75 v=0
12570 On ch=12 n=75 v=80
12570 On ch=12 n=79 v=80
12570 On ch=12 n=70 v=80
12630 On ch=12 n=70 v=0
12630 On ch=12 n=79 v=0
12630 On ch=12 n=75 v=0
12660 On ch=12 n=73 v=80
12660 On ch=12 n=77 v=80
12660 On ch=12 n=68 v=80
12720 On ch=12 n=68 v=0
12720 On ch=12 n=77 v=0
12720 On ch=12 n=73 v=0
12780 On ch=12 n=77 v=80
12780 On ch=12 n=73 v=80
12780 On ch=12 n=68 v=80
12840 On ch=12 n=68 v=0
12840 On ch=12 n=73 v=0
12840 On ch=12 n=77 v=0
12870 On ch=12 n=77 v=80
12870 On ch=12 n=73 v=80
12870 On ch=12 n=68 v=80
12930 On ch=12 n=68 v=0
12930 On ch=12 n=73 v=0
12930 On ch=12 n=77 v=0
12960 On ch=12 n=77 v=80
12960 On ch=12 n=80 v=80
12960 On ch=12 n=72 v=80
13020 On ch=12 n=72 v=0
13020 On ch=12 n=80 v=0
13020 On ch=12 n=77 v=0
13050 On ch=12 n=77 v=80
13050 On ch=12 n=80 v=80
13050 On ch=12 n=72 v=80
13110 On ch=12 n=72 v=0
13110 On ch=12 n=80 v=0
13110 On ch=12 n=77 v=0
13140 On ch=12 n=77 v=80
13140 On ch=12 n=80 v=80
13140 On ch=12 n=72 v=80
13200 On ch=12 n=72 v=0
13200 On ch=12 n=80 v=0
13200 On ch=12 n=77 v=0
13260 On ch=12 n=77 v=80
13260 On ch=12 n=80 v=80
13260 On ch=12 n=72 v=80
13320 On ch=12 n=72 v=0
13320 On ch=12 n=80 v=0
13320 On ch=12 n=77 v=0
13350 On ch=12 n=77 v=80
13350 On ch=12 n=80 v=80
13350 On ch=12 n=72 v=80
13410 On ch=12 n=72 v=0
13410 On ch=12 n=80 v=0
13410 On ch=12 n=77 v=0
13440 On ch=12 n=79 v=80
13440 On ch=12 n=75 v=80
13440 On ch=12 n=70 v=80
13500 On ch=12 n=70 v=0
13500 On ch=12 n=75 v=0
13500 On ch=12 n=79 v=0
13530 On ch=12 n=70 v=80
13530 On ch=12 n=79 v=80
13530 On ch=12 n=75 v=80
13590 On ch=12 n=75 v=0
13590 On ch=12 n=79 v=0
13590 On ch=12 n=70 v=0
13620 On ch=12 n=73 v=80
13620 On ch=12 n=77 v=80
13620 On ch=12 n=80 v=80
13620 On ch=12 n=68 v=80
13680 On ch=12 n=68 v=0
13680 On ch=12 n=73 v=0
13680 On ch=12 n=77 v=0
13680 On ch=12 n=80 v=0
13740 On ch=12 n=68 v=80
13740 On ch=12 n=77 v=80
13740 On ch=12 n=73 v=80
13740 On ch=12 n=80 v=80
13800 On ch=12 n=80 v=0
13800 On ch=12 n=68 v=0
13800 On ch=12 n=77 v=0
13800 On ch=12 n=73 v=0
13830 On ch=12 n=77 v=80
13830 On ch=12 n=68 v=80
13830 On ch=12 n=80 v=80
13830 On ch=12 n=73 v=80
13890 On ch=12 n=73 v=0
13890 On ch=12 n=77 v=0
13890 On ch=12 n=68 v=0
13890 On ch=12 n=80 v=0
13920 On ch=12 n=77 v=80
13920 On ch=12 n=80 v=80
13920 On ch=12 n=72 v=80
13980 On ch=12 n=72 v=0
13980 On ch=12 n=80 v=0
13980 On ch=12 n=77 v=0
14010 On ch=12 n=80 v=80
14010 On ch=12 n=77 v=80
14010 On ch=12 n=72 v=80
14070 On ch=12 n=72 v=0
14070 On ch=12 n=77 v=0
14070 On ch=12 n=80 v=0
14100 On ch=12 n=77 v=80
14100 On ch=12 n=80 v=80
14100 On ch=12 n=72 v=80
14160 On ch=12 n=72 v=0
14160 On ch=12 n=80 v=0
14160 On ch=12 n=77 v=0
14220 On ch=12 n=80 v=80
14220 On ch=12 n=77 v=80
14220 On ch=12 n=72 v=80
14280 On ch=12 n=72 v=0
14280 On ch=12 n=77 v=0
14280 On ch=12 n=80 v=0
14310 On ch=12 n=77 v=80
14310 On ch=12 n=80 v=80
14310 On ch=12 n=72 v=80
14370 On ch=12 n=72 v=0
14370 On ch=12 n=80 v=0
14370 On ch=12 n=77 v=0
14400 On ch=12 n=75 v=80
14400 On ch=12 n=79 v=80
14400 On ch=12 n=70 v=80
14460 On ch=12 n=70 v=0
14460 On ch=12 n=79 v=0
14460 On ch=12 n=75 v=0
14490 On ch=12 n=75 v=80
14490 On ch=12 n=79 v=80
14490 On ch=12 n=70 v=80
14550 On ch=12 n=70 v=0
14550 On ch=12 n=79 v=0
14550 On ch=12 n=75 v=0
14580 On ch=12 n=73 v=80
14580 On ch=12 n=77 v=80
14580 On ch=12 n=68 v=80
14640 On ch=12 n=68 v=0
14640 On ch=12 n=77 v=0
14640 On ch=12 n=73 v=0
14700 On ch=12 n=77 v=80
14700 On ch=12 n=73 v=80
14700 On ch=12 n=68 v=80
14760 On ch=12 n=68 v=0
14760 On ch=12 n=73 v=0
14760 On ch=12 n=77 v=0
14790 On ch=12 n=77 v=80
14790 On ch=12 n=73 v=80
14790 On ch=12 n=68 v=80
14850 On ch=12 n=68 v=0
14850 On ch=12 n=73 v=0
14850 On ch=12 n=77 v=0
14880 On ch=12 n=77 v=80
14880 On ch=12 n=80 v=80
14880 On ch=12 n=72 v=80
14940 On ch=12 n=72 v=0
14940 On ch=12 n=80 v=0
14940 On ch=12 n=77 v=0
14970 On ch=12 n=77 v=80
14970 On ch=12 n=80 v=80
14970 On ch=12 n=72 v=80
15030 On ch=12 n=72 v=0
15030 On ch=12 n=80 v=0
15030 On ch=12 n=77 v=0
15060 On ch=12 n=77 v=80
15060 On ch=12 n=80 v=80
15060 On ch=12 n=72 v=80
15120 On ch=12 n=72 v=0
15120 On ch=12 n=80 v=0
15120 On ch=12 n=77 v=0
15180 On ch=12 n=77 v=80
15180 On ch=12 n=80 v=80
15180 On ch=12 n=72 v=80
15240 On ch=12 n=72 v=0
15240 On ch=12 n=80 v=0
15240 On ch=12 n=77 v=0
19200 On ch=12 n=79 v=80
19200 On ch=12 n=75 v=80
19200 On ch=12 n=70 v=80
19260 On ch=12 n=70 v=0
19260 On ch=12 n=75 v=0
19260 On ch=12 n=79 v=0
19290 On ch=12 n=70 v=80
19290 On ch=12 n=79 v=80
19290 On ch=12 n=75 v=80
19350 On ch=12 n=75 v=0
19350 On ch=12 n=79 v=0
19350 On ch=12 n=70 v=0
19380 On ch=12 n=73 v=80
19380 On ch=12 n=77 v=80
19380 On ch=12 n=80 v=80
19380 On ch=12 n=68 v=80
19440 On ch=12 n=68 v=0
19440 On ch=12 n=73 v=0
19440 On ch=12 n=77 v=0
19440 On ch=12 n=80 v=0
19500 On ch=12 n=68 v=80
19500 On ch=12 n=77 v=80
19500 On ch=12 n=73 v=80
19500 On ch=12 n=80 v=80
19560 On ch=12 n=80 v=0
19560 On ch=12 n=68 v=0
19560 On ch=12 n=77 v=0
19560 On ch=12 n=73 v=0
19590 On ch=12 n=77 v=80
19590 On ch=12 n=68 v=80
19590 On ch=12 n=80 v=80
19590 On ch=12 n=73 v=80
19650 On ch=12 n=73 v=0
19650 On ch=12 n=77 v=0
19650 On ch=12 n=68 v=0
19650 On ch=12 n=80 v=0
25440 On ch=12 n=77 v=80
25440 On ch=12 n=80 v=80
25440 On ch=12 n=72 v=80
25500 On ch=12 n=72 v=0
25500 On ch=12 n=80 v=0
25500 On ch=12 n=77 v=0
25530 On ch=12 n=80 v=80
25530 On ch=12 n=77 v=80
25530 On ch=12 n=72 v=80
25590 On ch=12 n=72 v=0
25590 On ch=12 n=77 v=0
25590 On ch=12 n=80 v=0
25620 On ch=12 n=77 v=80
25620 On ch=12 n=80 v=80
25620 On ch=12 n=72 v=80
25680 On ch=12 n=72 v=0
25680 On ch=12 n=80 v=0
25680 On ch=12 n=77 v=0
25740 On ch=12 n=80 v=80
25740 On ch=12 n=77 v=80
25740 On ch=12 n=72 v=80
25800 On ch=12 n=72 v=0
25800 On ch=12 n=77 v=0
25800 On ch=12 n=80 v=0
25830 On ch=12 n=77 v=80
25830 On ch=12 n=80 v=80
25830 On ch=12 n=72 v=80
25890 On ch=12 n=72 v=0
25890 On ch=12 n=80 v=0
25890 On ch=12 n=77 v=0
25920 On ch=12 n=75 v=80
25920 On ch=12 n=79 v=80
25920 On ch=12 n=70 v=80
25980 On ch=12 n=70 v=0
25980 On ch=12 n=79 v=0
25980 On ch=12 n=75 v=0
26010 On ch=12 n=75 v=80
26010 On ch=12 n=79 v=80
26010 On ch=12 n=70 v=80
26070 On ch=12 n=70 v=0
26070 On ch=12 n=79 v=0
26070 On ch=12 n=75 v=0
26100 On ch=12 n=73 v=80
26100 On ch=12 n=77 v=80
26100 On ch=12 n=68 v=80
26160 On ch=12 n=68 v=0
26160 On ch=12 n=77 v=0
26160 On ch=12 n=73 v=0
26220 On ch=12 n=77 v=80
26220 On ch=12 n=73 v=80
26220 On ch=12 n=68 v=80
26280 On ch=12 n=68 v=0
26280 On ch=12 n=73 v=0
26280 On ch=12 n=77 v=0
26310 On ch=12 n=77 v=80
26310 On ch=12 n=73 v=80
26310 On ch=12 n=68 v=80
26370 On ch=12 n=68 v=0
26370 On ch=12 n=73 v=0
26370 On ch=12 n=77 v=0
26400 On ch=12 n=77 v=80
26400 On ch=12 n=80 v=80
26400 On ch=12 n=72 v=80
26460 On ch=12 n=72 v=0
26460 On ch=12 n=80 v=0
26460 On ch=12 n=77 v=0
26490 On ch=12 n=77 v=80
26490 On ch=12 n=80 v=80
26490 On ch=12 n=72 v=80
26550 On ch=12 n=72 v=0
26550 On ch=12 n=80 v=0
26550 On ch=12 n=77 v=0
26580 On ch=12 n=77 v=80
26580 On ch=12 n=80 v=80
26580 On ch=12 n=72 v=80
26640 On ch=12 n=72 v=0
26640 On ch=12 n=80 v=0
26640 On ch=12 n=77 v=0
26700 On ch=12 n=77 v=80
26700 On ch=12 n=80 v=80
26700 On ch=12 n=72 v=80
26760 On ch=12 n=72 v=0
26760 On ch=12 n=80 v=0
26760 On ch=12 n=77 v=0
26790 On ch=12 n=77 v=80
26790 On ch=12 n=80 v=80
26790 On ch=12 n=72 v=80
26850 On ch=12 n=72 v=0
26850 On ch=12 n=80 v=0
26850 On ch=12 n=77 v=0
27360 On ch=12 n=77 v=80
27360 On ch=12 n=80 v=80
27360 On ch=12 n=72 v=80
27420 On ch=12 n=72 v=0
27420 On ch=12 n=80 v=0
27420 On ch=12 n=77 v=0
27450 On ch=12 n=80 v=80
27450 On ch=12 n=77 v=80
27450 On ch=12 n=72 v=80
27510 On ch=12 n=72 v=0
27510 On ch=12 n=77 v=0
27510 On ch=12 n=80 v=0
27540 On ch=12 n=77 v=80
27540 On ch=12 n=80 v=80
27540 On ch=12 n=72 v=80
27600 On ch=12 n=72 v=0
27600 On ch=12 n=80 v=0
27600 On ch=12 n=77 v=0
27660 On ch=12 n=80 v=80
27660 On ch=12 n=77 v=80
27660 On ch=12 n=72 v=80
27720 On ch=12 n=72 v=0
27720 On ch=12 n=77 v=0
27720 On ch=12 n=80 v=0
27750 On ch=12 n=77 v=80
27750 On ch=12 n=80 v=80
27750 On ch=12 n=72 v=80
27810 On ch=12 n=72 v=0
27810 On ch=12 n=80 v=0
27810 On ch=12 n=77 v=0
27840 On ch=12 n=75 v=80
27840 On ch=12 n=79 v=80
27840 On ch=12 n=70 v=80
27900 On ch=12 n=70 v=0
27900 On ch=12 n=79 v=0
27900 On ch=12 n=75 v=0
27930 On ch=12 n=75 v=80
27930 On ch=12 n=79 v=80
27930 On ch=12 n=70 v=80
27990 On ch=12 n=70 v=0
27990 On ch=12 n=79 v=0
27990 On ch=12 n=75 v=0
28020 On ch=12 n=73 v=80
28020 On ch=12 n=77 v=80
28020 On ch=12 n=68 v=80
28080 On ch=12 n=68 v=0
28080 On ch=12 n=77 v=0
28080 On ch=12 n=73 v=0
28140 On ch=12 n=77 v=80
28140 On ch=12 n=73 v=80
28140 On ch=12 n=68 v=80
28200 On ch=12 n=68 v=0
28200 On ch=12 n=73 v=0
28200 On ch=12 n=77 v=0
28230 On ch=12 n=77 v=80
28230 On ch=12 n=73 v=80
28230 On ch=12 n=68 v=80
28290 On ch=12 n=68 v=0
28290 On ch=12 n=73 v=0
28290 On ch=12 n=77 v=0
28320 On ch=12 n=77 v=80
28320 On ch=12 n=80 v=80
28320 On ch=12 n=72 v=80
28380 On ch=12 n=72 v=0
28380 On ch=12 n=80 v=0
28380 On ch=12 n=77 v=0
28410 On ch=12 n=77 v=80
28410 On ch=12 n=80 v=80
28410 On ch=12 n=72 v=80
28470 On ch=12 n=72 v=0
28470 On ch=12 n=80 v=0
28470 On ch=12 n=77 v=0
28500 On ch=12 n=77 v=80
28500 On ch=12 n=80 v=80
28500 On ch=12 n=72 v=80
28560 On ch=12 n=72 v=0
28560 On ch=12 n=80 v=0
28560 On ch=12 n=77 v=0
28620 On ch=12 n=77 v=80
28620 On ch=12 n=80 v=80
28620 On ch=12 n=72 v=80
28680 On ch=12 n=72 v=0
28680 On ch=12 n=80 v=0
28680 On ch=12 n=77 v=0
28710 On ch=12 n=77 v=80
28710 On ch=12 n=80 v=80
28710 On ch=12 n=72 v=80
28770 On ch=12 n=72 v=0
28770 On ch=12 n=80 v=0
28770 On ch=12 n=77 v=0
28800 On ch=12 n=79 v=80
28800 On ch=12 n=75 v=80
28800 On ch=12 n=70 v=80
28860 On ch=12 n=70 v=0
28860 On ch=12 n=75 v=0
28860 On ch=12 n=79 v=0
28890 On ch=12 n=70 v=80
28890 On ch=12 n=79 v=80
28890 On ch=12 n=75 v=80
28950 On ch=12 n=75 v=0
28950 On ch=12 n=79 v=0
28950 On ch=12 n=70 v=0
28980 On ch=12 n=73 v=80
28980 On ch=12 n=77 v=80
28980 On ch=12 n=80 v=80
28980 On ch=12 n=68 v=80
29040 On ch=12 n=68 v=0
29040 On ch=12 n=73 v=0
29040 On ch=12 n=77 v=0
29040 On ch=12 n=80 v=0
29100 On ch=12 n=68 v=80
29100 On ch=12 n=77 v=80
29100 On ch=12 n=73 v=80
29100 On ch=12 n=80 v=80
29160 On ch=12 n=80 v=0
29160 On ch=12 n=68 v=0
29160 On ch=12 n=77 v=0
29160 On ch=12 n=73 v=0
29190 On ch=12 n=77 v=80
29190 On ch=12 n=68 v=80
29190 On ch=12 n=80 v=80
29190 On ch=12 n=73 v=80
29250 On ch=12 n=73 v=0
29250 On ch=12 n=77 v=0
29250 On ch=12 n=68 v=0
29250 On ch=12 n=80 v=0
29280 On ch=12 n=77 v=80
29280 On ch=12 n=80 v=80
29280 On ch=12 n=72 v=80
29340 On ch=12 n=72 v=0
29340 On ch=12 n=80 v=0
29340 On ch=12 n=77 v=0
29370 On ch=12 n=80 v=80
29370 On ch=12 n=77 v=80
29370 On ch=12 n=72 v=80
29430 On ch=12 n=72 v=0
29430 On ch=12 n=77 v=0
29430 On ch=12 n=80 v=0
29460 On ch=12 n=77 v=80
29460 On ch=12 n=80 v=80
29460 On ch=12 n=72 v=80
29520 On ch=12 n=72 v=0
29520 On ch=12 n=80 v=0
29520 On ch=12 n=77 v=0
29580 On ch=12 n=80 v=80
29580 On ch=12 n=77 v=80
29580 On ch=12 n=72 v=80
29640 On ch=12 n=72 v=0
29640 On ch=12 n=77 v=0
29640 On ch=12 n=80 v=0
29670 On ch=12 n=77 v=80
29670 On ch=12 n=80 v=80
29670 On ch=12 n=72 v=80
29730 On ch=12 n=72 v=0
29730 On ch=12 n=80 v=0
29730 On ch=12 n=77 v=0
29760 On ch=12 n=75 v=80
29760 On ch=12 n=79 v=80
29760 On ch=12 n=70 v=80
29820 On ch=12 n=70 v=0
29820 On ch=12 n=79 v=0
29820 On ch=12 n=75 v=0
29850 On ch=12 n=75 v=80
29850 On ch=12 n=79 v=80
29850 On ch=12 n=70 v=80
29910 On ch=12 n=70 v=0
29910 On ch=12 n=79 v=0
29910 On ch=12 n=75 v=0
29940 On ch=12 n=73 v=80
29940 On ch=12 n=77 v=80
29940 On ch=12 n=68 v=80
30000 On ch=12 n=68 v=0
30000 On ch=12 n=77 v=0
30000 On ch=12 n=73 v=0
30060 On ch=12 n=77 v=80
30060 On ch=12 n=73 v=80
30060 On ch=12 n=68 v=80
30120 On ch=12 n=68 v=0
30120 On ch=12 n=73 v=0
30120 On ch=12 n=77 v=0
30150 On ch=12 n=77 v=80
30150 On ch=12 n=73 v=80
30150 On ch=12 n=68 v=80
30210 On ch=12 n=68 v=0
30210 On ch=12 n=73 v=0
30210 On ch=12 n=77 v=0
30240 On ch=12 n=77 v=80
30240 On ch=12 n=80 v=80
30240 On ch=12 n=72 v=80
30300 On ch=12 n=72 v=0
30300 On ch=12 n=80 v=0
30300 On ch=12 n=77 v=0
30330 On ch=12 n=77 v=80
30330 On ch=12 n=80 v=80
30330 On ch=12 n=72 v=80
30390 On ch=12 n=72 v=0
30390 On ch=12 n=80 v=0
30390 On ch=12 n=77 v=0
30420 On ch=12 n=77 v=80
30420 On ch=12 n=80 v=80
30420 On ch=12 n=72 v=80
30480 On ch=12 n=72 v=0
30480 On ch=12 n=80 v=0
30480 On ch=12 n=77 v=0
30540 On ch=12 n=77 v=80
30540 On ch=12 n=80 v=80
30540 On ch=12 n=72 v=80
30600 On ch=12 n=72 v=0
30600 On ch=12 n=80 v=0
30600 On ch=12 n=77 v=0
30630 On ch=12 n=77 v=80
30630 On ch=12 n=80 v=80
30630 On ch=12 n=72 v=80
30690 On ch=12 n=72 v=0
30690 On ch=12 n=80 v=0
30690 On ch=12 n=77 v=0
30720 On ch=12 n=79 v=80
30720 On ch=12 n=75 v=80
30720 On ch=12 n=70 v=80
30780 On ch=12 n=70 v=0
30780 On ch=12 n=75 v=0
30780 On ch=12 n=79 v=0
30810 On ch=12 n=70 v=80
30810 On ch=12 n=79 v=80
30810 On ch=12 n=75 v=80
30870 On ch=12 n=75 v=0
30870 On ch=12 n=79 v=0
30870 On ch=12 n=70 v=0
30900 On ch=12 n=73 v=80
30900 On ch=12 n=77 v=80
30900 On ch=12 n=80 v=80
30900 On ch=12 n=68 v=80
30960 On ch=12 n=68 v=0
30960 On ch=12 n=73 v=0
30960 On ch=12 n=77 v=0
30960 On ch=12 n=80 v=0
31020 On ch=12 n=68 v=80
31020 On ch=12 n=77 v=80
31020 On ch=12 n=73 v=80
31020 On ch=12 n=80 v=80
31080 On ch=12 n=80 v=0
31080 On ch=12 n=68 v=0
31080 On ch=12 n=77 v=0
31080 On ch=12 n=73 v=0
31110 On ch=12 n=77 v=80
31110 On ch=12 n=68 v=80
31110 On ch=12 n=80 v=80
31110 On ch=12 n=73 v=80
31170 On ch=12 n=73 v=0
31170 On ch=12 n=77 v=0
31170 On ch=12 n=68 v=0
31170 On ch=12 n=80 v=0
31200 On ch=12 n=77 v=80
31200 On ch=12 n=80 v=80
31200 On ch=12 n=72 v=80
31260 On ch=12 n=72 v=0
31260 On ch=12 n=80 v=0
31260 On ch=12 n=77 v=0
31290 On ch=12 n=80 v=80
31290 On ch=12 n=77 v=80
31290 On ch=12 n=72 v=80
31350 On ch=12 n=72 v=0
31350 On ch=12 n=77 v=0
31350 On ch=12 n=80 v=0
31380 On ch=12 n=77 v=80
31380 On ch=12 n=80 v=80
31380 On ch=12 n=72 v=80
31440 On ch=12 n=72 v=0
31440 On ch=12 n=80 v=0
31440 On ch=12 n=77 v=0
31500 On ch=12 n=80 v=80
31500 On ch=12 n=77 v=80
31500 On ch=12 n=72 v=80
31560 On ch=12 n=72 v=0
31560 On ch=12 n=77 v=0
31560 On ch=12 n=80 v=0
31590 On ch=12 n=77 v=80
31590 On ch=12 n=80 v=80
31590 On ch=12 n=72 v=80
31650 On ch=12 n=72 v=0
31650 On ch=12 n=80 v=0
31650 On ch=12 n=77 v=0
31680 On ch=12 n=75 v=80
31680 On ch=12 n=79 v=80
31680 On ch=12 n=70 v=80
31740 On ch=12 n=70 v=0
31740 On ch=12 n=79 v=0
31740 On ch=12 n=75 v=0
31770 On ch=12 n=75 v=80
31770 On ch=12 n=79 v=80
31770 On ch=12 n=70 v=80
31830 On ch=12 n=70 v=0
31830 On ch=12 n=79 v=0
31830 On ch=12 n=75 v=0
31860 On ch=12 n=73 v=80
31860 On ch=12 n=77 v=80
31860 On ch=12 n=68 v=80
31920 On ch=12 n=68 v=0
31920 On ch=12 n=77 v=0
31920 On ch=12 n=73 v=0
31980 On ch=12 n=77 v=80
31980 On ch=12 n=73 v=80
31980 On ch=12 n=68 v=80
32040 On ch=12 n=68 v=0
32040 On ch=12 n=73 v=0
32040 On ch=12 n=77 v=0
32070 On ch=12 n=77 v=80
32070 On ch=12 n=73 v=80
32070 On ch=12 n=68 v=80
32130 On ch=12 n=68 v=0
32130 On ch=12 n=73 v=0
32130 On ch=12 n=77 v=0
32160 On ch=12 n=77 v=80
32160 On ch=12 n=80 v=80
32160 On ch=12 n=72 v=80
32220 On ch=12 n=72 v=0
32220 On ch=12 n=80 v=0
32220 On ch=12 n=77 v=0
32250 On ch=12 n=77 v=80
32250 On ch=12 n=80 v=80
32250 On ch=12 n=72 v=80
32310 On ch=12 n=72 v=0
32310 On ch=12 n=80 v=0
32310 On ch=12 n=77 v=0
32340 On ch=12 n=77 v=80
32340 On ch=12 n=80 v=80
32340 On ch=12 n=72 v=80
32400 On ch=12 n=72 v=0
32400 On ch=12 n=80 v=0
32400 On ch=12 n=77 v=0
32460 On ch=12 n=77 v=80
32460 On ch=12 n=80 v=80
32460 On ch=12 n=72 v=80
32520 On ch=12 n=72 v=0
32520 On ch=12 n=80 v=0
32520 On ch=12 n=77 v=0
32550 On ch=12 n=77 v=80
32550 On ch=12 n=80 v=80
32550 On ch=12 n=72 v=80
32610 On ch=12 n=72 v=0
32610 On ch=12 n=80 v=0
32610 On ch=12 n=77 v=0
32640 On ch=12 n=79 v=80
32640 On ch=12 n=75 v=80
32640 On ch=12 n=70 v=80
32700 On ch=12 n=70 v=0
32700 On ch=12 n=75 v=0
32700 On ch=12 n=79 v=0
32730 On ch=12 n=70 v=80
32730 On ch=12 n=79 v=80
32730 On ch=12 n=75 v=80
32790 On ch=12 n=75 v=0
32790 On ch=12 n=79 v=0
32790 On ch=12 n=70 v=0
32820 On ch=12 n=73 v=80
32820 On ch=12 n=77 v=80
32820 On ch=12 n=80 v=80
32820 On ch=12 n=68 v=80
32880 On ch=12 n=68 v=0
32880 On ch=12 n=73 v=0
32880 On ch=12 n=77 v=0
32880 On ch=12 n=80 v=0
32940 On ch=12 n=68 v=80
32940 On ch=12 n=77 v=80
32940 On ch=12 n=73 v=80
32940 On ch=12 n=80 v=80
33000 On ch=12 n=80 v=0
33000 On ch=12 n=68 v=0
33000 On ch=12 n=77 v=0
33000 On ch=12 n=73 v=0
33030 On ch=12 n=77 v=80
33030 On ch=12 n=68 v=80
33030 On ch=12 n=80 v=80
33030 On ch=12 n=73 v=80
33090 On ch=12 n=73 v=0
33090 On ch=12 n=77 v=0
33090 On ch=12 n=68 v=0
33090 On ch=12 n=80 v=0
33120 On ch=12 n=77 v=80
33120 On ch=12 n=80 v=80
33120 On ch=12 n=72 v=80
33180 On ch=12 n=72 v=0
33180 On ch=12 n=80 v=0
33180 On ch=12 n=77 v=0
33210 On ch=12 n=80 v=80
33210 On ch=12 n=77 v=80
33210 On ch=12 n=72 v=80
33270 On ch=12 n=72 v=0
33270 On ch=12 n=77 v=0
33270 On ch=12 n=80 v=0
33300 On ch=12 n=77 v=80
33300 On ch=12 n=80 v=80
33300 On ch=12 n=72 v=80
33360 On ch=12 n=72 v=0
33360 On ch=12 n=80 v=0
33360 On ch=12 n=77 v=0
33420 On ch=12 n=80 v=80
33420 On ch=12 n=77 v=80
33420 On ch=12 n=72 v=80
33480 On ch=12 n=72 v=0
33480 On ch=12 n=77 v=0
33480 On ch=12 n=80 v=0
33510 On ch=12 n=77 v=80
33510 On ch=12 n=80 v=80
33510 On ch=12 n=72 v=80
33570 On ch=12 n=72 v=0
33570 On ch=12 n=80 v=0
33570 On ch=12 n=77 v=0
33600 On ch=12 n=75 v=80
33600 On ch=12 n=79 v=80
33600 On ch=12 n=70 v=80
33660 On ch=12 n=70 v=0
33660 On ch=12 n=79 v=0
33660 On ch=12 n=75 v=0
33690 On ch=12 n=75 v=80
33690 On ch=12 n=79 v=80
33690 On ch=12 n=70 v=80
33750 On ch=12 n=70 v=0
33750 On ch=12 n=79 v=0
33750 On ch=12 n=75 v=0
33780 On ch=12 n=73 v=80
33780 On ch=12 n=77 v=80
33780 On ch=12 n=68 v=80
33840 On ch=12 n=68 v=0
33840 On ch=12 n=77 v=0
33840 On ch=12 n=73 v=0
33900 On ch=12 n=77 v=80
33900 On ch=12 n=73 v=80
33900 On ch=12 n=68 v=80
33960 On ch=12 n=68 v=0
33960 On ch=12 n=73 v=0
33960 On ch=12 n=77 v=0
33990 On ch=12 n=77 v=80
33990 On ch=12 n=73 v=80
33990 On ch=12 n=68 v=80
34050 On ch=12 n=68 v=0
34050 On ch=12 n=73 v=0
34050 On ch=12 n=77 v=0
34080 On ch=12 n=77 v=80
34080 On ch=12 n=80 v=80
34080 On ch=12 n=72 v=80
34140 On ch=12 n=72 v=0
34140 On ch=12 n=80 v=0
34140 On ch=12 n=77 v=0
34170 On ch=12 n=77 v=80
34170 On ch=12 n=80 v=80
34170 On ch=12 n=72 v=80
34230 On ch=12 n=72 v=0
34230 On ch=12 n=80 v=0
34230 On ch=12 n=77 v=0
34260 On ch=12 n=77 v=80
34260 On ch=12 n=80 v=80
34260 On ch=12 n=72 v=80
34320 On ch=12 n=72 v=0
34320 On ch=12 n=80 v=0
34320 On ch=12 n=77 v=0
34380 On ch=12 n=77 v=80
34380 On ch=12 n=80 v=80
34380 On ch=12 n=72 v=80
34440 On ch=12 n=72 v=0
34440 On ch=12 n=80 v=0
34440 On ch=12 n=77 v=0
34470 On ch=12 n=77 v=80
34470 On ch=12 n=80 v=80
34470 On ch=12 n=72 v=80
34530 On ch=12 n=72 v=0
34530 On ch=12 n=80 v=0
34530 On ch=12 n=77 v=0
34560 On ch=12 n=79 v=80
34560 On ch=12 n=75 v=80
34560 On ch=12 n=70 v=80
34620 On ch=12 n=70 v=0
34620 On ch=12 n=75 v=0
34620 On ch=12 n=79 v=0
34650 On ch=12 n=70 v=80
34650 On ch=12 n=79 v=80
34650 On ch=12 n=75 v=80
34710 On ch=12 n=75 v=0
34710 On ch=12 n=79 v=0
34710 On ch=12 n=70 v=0
34740 On ch=12 n=73 v=80
34740 On ch=12 n=77 v=80
34740 On ch=12 n=80 v=80
34740 On ch=12 n=68 v=80
34800 On ch=12 n=68 v=0
34800 On ch=12 n=73 v=0
34800 On ch=12 n=77 v=0
34800 On ch=12 n=80 v=0
43680 On ch=12 n=77 v=80
43680 On ch=12 n=80 v=80
43680 On ch=12 n=72 v=80
43740 On ch=12 n=72 v=0
43740 On ch=12 n=80 v=0
43740 On ch=12 n=77 v=0
43770 On ch=12 n=80 v=80
43770 On ch=12 n=77 v=80
43770 On ch=12 n=72 v=80
43830 On ch=12 n=72 v=0
43830 On ch=12 n=77 v=0
43830 On ch=12 n=80 v=0
43860 On ch=12 n=77 v=80
43860 On ch=12 n=80 v=80
43860 On ch=12 n=72 v=80
43920 On ch=12 n=72 v=0
43920 On ch=12 n=80 v=0
43920 On ch=12 n=77 v=0
43980 On ch=12 n=80 v=80
43980 On ch=12 n=77 v=80
43980 On ch=12 n=72 v=80
44040 On ch=12 n=72 v=0
44040 On ch=12 n=77 v=0
44040 On ch=12 n=80 v=0
44070 On ch=12 n=77 v=80
44070 On ch=12 n=80 v=80
44070 On ch=12 n=72 v=80
44130 On ch=12 n=72 v=0
44130 On ch=12 n=80 v=0
44130 On ch=12 n=77 v=0
44160 On ch=12 n=75 v=80
44160 On ch=12 n=79 v=80
44160 On ch=12 n=70 v=80
44220 On ch=12 n=70 v=0
44220 On ch=12 n=79 v=0
44220 On ch=12 n=75 v=0
44250 On ch=12 n=75 v=80
44250 On ch=12 n=79 v=80
44250 On ch=12 n=70 v=80
44310 On ch=12 n=70 v=0
44310 On ch=12 n=79 v=0
44310 On ch=12 n=75 v=0
44340 On ch=12 n=73 v=80
44340 On ch=12 n=77 v=80
44340 On ch=12 n=68 v=80
44400 On ch=12 n=68 v=0
44400 On ch=12 n=77 v=0
44400 On ch=12 n=73 v=0
44460 On ch=12 n=77 v=80
44460 On ch=12 n=73 v=80
44460 On ch=12 n=68 v=80
44520 On ch=12 n=68 v=0
44520 On ch=12 n=73 v=0
44520 On ch=12 n=77 v=0
44550 On ch=12 n=77 v=80
44550 On ch=12 n=73 v=80
44550 On ch=12 n=68 v=80
44610 On ch=12 n=68 v=0
44610 On ch=12 n=73 v=0
44610 On ch=12 n=77 v=0
44640 On ch=12 n=77 v=80
44640 On ch=12 n=80 v=80
44640 On ch=12 n=72 v=80
44700 On ch=12 n=72 v=0
44700 On ch=12 n=80 v=0
44700 On ch=12 n=77 v=0
44730 On ch=12 n=77 v=80
44730 On ch=12 n=80 v=80
44730 On ch=12 n=72 v=80
44790 On ch=12 n=72 v=0
44790 On ch=12 n=80 v=0
44790 On ch=12 n=77 v=0
44820 On ch=12 n=77 v=80
44820 On ch=12 n=80 v=80
44820 On ch=12 n=72 v=80
44880 On ch=12 n=72 v=0
44880 On ch=12 n=80 v=0
44880 On ch=12 n=77 v=0
44940 On ch=12 n=77 v=80
44940 On ch=12 n=80 v=80
44940 On ch=12 n=72 v=80
45000 On ch=12 n=72 v=0
45000 On ch=12 n=80 v=0
45000 On ch=12 n=77 v=0
45030 On ch=12 n=77 v=80
45030 On ch=12 n=80 v=80
45030 On ch=12 n=72 v=80
45090 On ch=12 n=72 v=0
45090 On ch=12 n=80 v=0
45090 On ch=12 n=77 v=0
45120 On ch=12 n=79 v=80
45120 On ch=12 n=75 v=80
45120 On ch=12 n=70 v=80
45180 On ch=12 n=70 v=0
45180 On ch=12 n=75 v=0
45180 On ch=12 n=79 v=0
45210 On ch=12 n=70 v=80
45210 On ch=12 n=79 v=80
45210 On ch=12 n=75 v=80
45270 On ch=12 n=75 v=0
45270 On ch=12 n=79 v=0
45270 On ch=12 n=70 v=0
45300 On ch=12 n=73 v=80
45300 On ch=12 n=77 v=80
45300 On ch=12 n=80 v=80
45300 On ch=12 n=68 v=80
45360 On ch=12 n=68 v=0
45360 On ch=12 n=73 v=0
45360 On ch=12 n=77 v=0
45360 On ch=12 n=80 v=0
45420 On ch=12 n=68 v=80
45420 On ch=12 n=77 v=80
45420 On ch=12 n=73 v=80
45420 On ch=12 n=80 v=80
45480 On ch=12 n=80 v=0
45480 On ch=12 n=68 v=0
45480 On ch=12 n=77 v=0
45480 On ch=12 n=73 v=0
45510 On ch=12 n=77 v=80
45510 On ch=12 n=68 v=80
45510 On ch=12 n=80 v=80
45510 On ch=12 n=73 v=80
45570 On ch=12 n=73 v=0
45570 On ch=12 n=77 v=0
45570 On ch=12 n=68 v=0
45570 On ch=12 n=80 v=0
45600 On ch=12 n=77 v=80
45600 On ch=12 n=80 v=80
45600 On ch=12 n=72 v=80
45660 On ch=12 n=72 v=0
45660 On ch=12 n=80 v=0
45660 On ch=12 n=77 v=0
45690 On ch=12 n=80 v=80
45690 On ch=12 n=77 v=80
45690 On ch=12 n=72 v=80
45750 On ch=12 n=72 v=0
45750 On ch=12 n=77 v=0
45750 On ch=12 n=80 v=0
45780 On ch=12 n=77 v=80
45780 On ch=12 n=80 v=80
45780 On ch=12 n=72 v=80
45840 On ch=12 n=72 v=0
45840 On ch=12 n=80 v=0
45840 On ch=12 n=77 v=0
45900 On ch=12 n=80 v=80
45900 On ch=12 n=77 v=80
45900 On ch=12 n=72 v=80
45960 On ch=12 n=72 v=0
45960 On ch=12 n=77 v=0
45960 On ch=12 n=80 v=0
45990 On ch=12 n=77 v=80
45990 On ch=12 n=80 v=80
45990 On ch=12 n=72 v=80
46050 On ch=12 n=72 v=0
46050 On ch=12 n=80 v=0
46050 On ch=12 n=77 v=0
46080 On ch=12 n=75 v=80
46080 On ch=12 n=79 v=80
46080 On ch=12 n=70 v=80
46140 On ch=12 n=70 v=0
46140 On ch=12 n=79 v=0
46140 On ch=12 n=75 v=0
46170 On ch=12 n=75 v=80
46170 On ch=12 n=79 v=80
46170 On ch=12 n=70 v=80
46230 On ch=12 n=70 v=0
46230 On ch=12 n=79 v=0
46230 On ch=12 n=75 v=0
46260 On ch=12 n=73 v=80
46260 On ch=12 n=77 v=80
46260 On ch=12 n=68 v=80
46320 On ch=12 n=68 v=0
46320 On ch=12 n=77 v=0
46320 On ch=12 n=73 v=0
46380 On ch=12 n=77 v=80
46380 On ch=12 n=73 v=80
46380 On ch=12 n=68 v=80
46440 On ch=12 n=68 v=0
46440 On ch=12 n=73 v=0
46440 On ch=12 n=77 v=0
46470 On ch=12 n=77 v=80
46470 On ch=12 n=73 v=80
46470 On ch=12 n=68 v=80
46530 On ch=12 n=68 v=0
46530 On ch=12 n=73 v=0
46530 On ch=12 n=77 v=0
46560 On ch=12 n=77 v=80
46560 On ch=12 n=80 v=80
46560 On ch=12 n=72 v=80
46620 On ch=12 n=72 v=0
46620 On ch=12 n=80 v=0
46620 On ch=12 n=77 v=0
46650 On ch=12 n=77 v=80
46650 On ch=12 n=80 v=80
46650 On ch=12 n=72 v=80
46710 On ch=12 n=72 v=0
46710 On ch=12 n=80 v=0
46710 On ch=12 n=77 v=0
46740 On ch=12 n=77 v=80
46740 On ch=12 n=80 v=80
46740 On ch=12 n=72 v=80
46800 On ch=12 n=72 v=0
46800 On ch=12 n=80 v=0
46800 On ch=12 n=77 v=0
46860 On ch=12 n=77 v=80
46860 On ch=12 n=80 v=80
46860 On ch=12 n=72 v=80
46920 On ch=12 n=72 v=0
46920 On ch=12 n=80 v=0
46920 On ch=12 n=77 v=0
46950 On ch=12 n=77 v=80
46950 On ch=12 n=80 v=80
46950 On ch=12 n=72 v=80
47010 On ch=12 n=72 v=0
47010 On ch=12 n=80 v=0
47010 On ch=12 n=77 v=0
47040 On ch=12 n=79 v=80
47040 On ch=12 n=75 v=80
47040 On ch=12 n=70 v=80
47100 On ch=12 n=70 v=0
47100 On ch=12 n=75 v=0
47100 On ch=12 n=79 v=0
47130 On ch=12 n=70 v=80
47130 On ch=12 n=79 v=80
47130 On ch=12 n=75 v=80
47190 On ch=12 n=75 v=0
47190 On ch=12 n=79 v=0
47190 On ch=12 n=70 v=0
47220 On ch=12 n=73 v=80
47220 On ch=12 n=77 v=80
47220 On ch=12 n=80 v=80
47220 On ch=12 n=68 v=80
47280 On ch=12 n=68 v=0
47280 On ch=12 n=73 v=0
47280 On ch=12 n=77 v=0
47280 On ch=12 n=80 v=0
47340 On ch=12 n=68 v=80
47340 On ch=12 n=77 v=80
47340 On ch=12 n=73 v=80
47340 On ch=12 n=80 v=80
47400 On ch=12 n=80 v=0
47400 On ch=12 n=68 v=0
47400 On ch=12 n=77 v=0
47400 On ch=12 n=73 v=0
47430 On ch=12 n=77 v=80
47430 On ch=12 n=68 v=80
47430 On ch=12 n=80 v=80
47430 On ch=12 n=73 v=80
47490 On ch=12 n=73 v=0
47490 On ch=12 n=77 v=0
47490 On ch=12 n=68 v=0
47490 On ch=12 n=80 v=0
47520 On ch=12 n=77 v=80
47520 On ch=12 n=80 v=80
47520 On ch=12 n=72 v=80
47580 On ch=12 n=72 v=0
47580 On ch=12 n=80 v=0
47580 On ch=12 n=77 v=0
47610 On ch=12 n=80 v=80
47610 On ch=12 n=77 v=80
47610 On ch=12 n=72 v=80
47670 On ch=12 n=72 v=0
47670 On ch=12 n=77 v=0
47670 On ch=12 n=80 v=0
47700 On ch=12 n=77 v=80
47700 On ch=12 n=80 v=80
47700 On ch=12 n=72 v=80
47760 On ch=12 n=72 v=0
47760 On ch=12 n=80 v=0
47760 On ch=12 n=77 v=0
47820 On ch=12 n=80 v=80
47820 On ch=12 n=77 v=80
47820 On ch=12 n=72 v=80
47880 On ch=12 n=72 v=0
47880 On ch=12 n=77 v=0
47880 On ch=12 n=80 v=0
47910 On ch=12 n=77 v=80
47910 On ch=12 n=80 v=80
47910 On ch=12 n=72 v=80
47970 On ch=12 n=72 v=0
47970 On ch=12 n=80 v=0
47970 On ch=12 n=77 v=0
48000 On ch=12 n=77 v=80
48000 On ch=12 n=80 v=80
48000 On ch=12 n=72 v=80
48060 On ch=12 n=72 v=0
48060 On ch=12 n=80 v=0
48060 On ch=12 n=77 v=0
48090 On ch=12 n=80 v=80
48090 On ch=12 n=77 v=80
48090 On ch=12 n=72 v=80
48150 On ch=12 n=72 v=0
48150 On ch=12 n=77 v=0
48150 On ch=12 n=80 v=0
48180 On ch=12 n=77 v=80
48180 On ch=12 n=80 v=80
48180 On ch=12 n=72 v=80
48240 On ch=12 n=72 v=0
48240 On ch=12 n=80 v=0
48240 On ch=12 n=77 v=0
48300 On ch=12 n=80 v=80
48300 On ch=12 n=77 v=80
48300 On ch=12 n=72 v=80
48360 On ch=12 n=72 v=0
48360 On ch=12 n=77 v=0
48360 On ch=12 n=80 v=0
48390 On ch=12 n=77 v=80
48390 On ch=12 n=80 v=80
48390 On ch=12 n=72 v=80
48450 On ch=12 n=72 v=0
48450 On ch=12 n=80 v=0
48450 On ch=12 n=77 v=0
48480 On ch=12 n=77 v=80
48480 On ch=12 n=80 v=80
48480 On ch=12 n=72 v=80
48540 On ch=12 n=72 v=0
48540 On ch=12 n=80 v=0
48540 On ch=12 n=77 v=0
48570 On ch=12 n=80 v=80
48570 On ch=12 n=77 v=80
48570 On ch=12 n=72 v=80
48630 On ch=12 n=72 v=0
48630 On ch=12 n=77 v=0
48630 On ch=12 n=80 v=0
48660 On ch=12 n=77 v=80
48660 On ch=12 n=80 v=80
48660 On ch=12 n=72 v=80
48720 On ch=12 n=72 v=0
48720 On ch=12 n=80 v=0
48720 On ch=12 n=77 v=0
48780 On ch=12 n=80 v=80
48780 On ch=12 n=77 v=80
48780 On ch=12 n=72 v=80
48840 On ch=12 n=72 v=0
48840 On ch=12 n=77 v=0
48840 On ch=12 n=80 v=0
48870 On ch=12 n=77 v=80
48870 On ch=12 n=80 v=80
48870 On ch=12 n=72 v=80
48930 On ch=12 n=72 v=0
48930 On ch=12 n=80 v=0
48930 On ch=12 n=77 v=0
48960 On ch=12 n=77 v=80
48960 On ch=12 n=80 v=80
48960 On ch=12 n=72 v=80
49020 On ch=12 n=72 v=0
49020 On ch=12 n=80 v=0
49020 On ch=12 n=77 v=0
49050 On ch=12 n=80 v=80
49050 On ch=12 n=77 v=80
49050 On ch=12 n=72 v=80
49110 On ch=12 n=72 v=0
49110 On ch=12 n=77 v=0
49110 On ch=12 n=80 v=0
49140 On ch=12 n=77 v=80
49140 On ch=12 n=80 v=80
49140 On ch=12 n=72 v=80
49200 On ch=12 n=72 v=0
49200 On ch=12 n=80 v=0
49200 On ch=12 n=77 v=0
49260 On ch=12 n=80 v=80
49260 On ch=12 n=77 v=80
49260 On ch=12 n=72 v=80
49320 On ch=12 n=72 v=0
49320 On ch=12 n=77 v=0
49320 On ch=12 n=80 v=0
49350 On ch=12 n=77 v=80
49350 On ch=12 n=80 v=80
49350 On ch=12 n=72 v=80
49410 On ch=12 n=72 v=0
49410 On ch=12 n=80 v=0
49410 On ch=12 n=77 v=0
49440 On ch=12 n=77 v=80
49440 On ch=12 n=80 v=80
49440 On ch=12 n=72 v=80
49500 On ch=12 n=72 v=0
49500 On ch=12 n=80 v=0
49500 On ch=12 n=77 v=0
49530 On ch=12 n=80 v=80
49530 On ch=12 n=77 v=80
49530 On ch=12 n=72 v=80
49590 On ch=12 n=72 v=0
49590 On ch=12 n=77 v=0
49590 On ch=12 n=80 v=0
49620 On ch=12 n=77 v=80
49620 On ch=12 n=80 v=80
49620 On ch=12 n=72 v=80
49680 On ch=12 n=72 v=0
49680 On ch=12 n=80 v=0
49680 On ch=12 n=77 v=0
49740 On ch=12 n=80 v=80
49740 On ch=12 n=77 v=80
49740 On ch=12 n=72 v=80
49800 On ch=12 n=72 v=0
49800 On ch=12 n=77 v=0
49800 On ch=12 n=80 v=0
49830 On ch=12 n=77 v=80
49830 On ch=12 n=80 v=80
49830 On ch=12 n=72 v=80
49890 On ch=12 n=72 v=0
49890 On ch=12 n=80 v=0
49890 On ch=12 n=77 v=0
49920 On ch=12 n=77 v=80
49920 On ch=12 n=80 v=80
49920 On ch=12 n=72 v=80
49980 On ch=12 n=72 v=0
49980 On ch=12 n=80 v=0
49980 On ch=12 n=77 v=0
50010 On ch=12 n=80 v=80
50010 On ch=12 n=77 v=80
50010 On ch=12 n=72 v=80
50070 On ch=12 n=72 v=0
50070 On ch=12 n=77 v=0
50070 On ch=12 n=80 v=0
50100 On ch=12 n=77 v=80
50100 On ch=12 n=80 v=80
50100 On ch=12 n=72 v=80
50160 On ch=12 n=72 v=0
50160 On ch=12 n=80 v=0
50160 On ch=12 n=77 v=0
50220 On ch=12 n=80 v=80
50220 On ch=12 n=77 v=80
50220 On ch=12 n=72 v=80
50280 On ch=12 n=72 v=0
50280 On ch=12 n=77 v=0
50280 On ch=12 n=80 v=0
50310 On ch=12 n=77 v=80
50310 On ch=12 n=80 v=80
50310 On ch=12 n=72 v=80
50370 On ch=12 n=72 v=0
50370 On ch=12 n=80 v=0
50370 On ch=12 n=77 v=0
50400 On ch=12 n=77 v=80
50400 On ch=12 n=80 v=80
50400 On ch=12 n=72 v=80
50460 On ch=12 n=72 v=0
50460 On ch=12 n=80 v=0
50460 On ch=12 n=77 v=0
50490 On ch=12 n=80 v=80
50490 On ch=12 n=77 v=80
50490 On ch=12 n=72 v=80
50550 On ch=12 n=72 v=0
50550 On ch=12 n=77 v=0
50550 On ch=12 n=80 v=0
50580 On ch=12 n=77 v=80
50580 On ch=12 n=80 v=80
50580 On ch=12 n=72 v=80
50640 On ch=12 n=72 v=0
50640 On ch=12 n=80 v=0
50640 On ch=12 n=77 v=0
50700 On ch=12 n=80 v=80
50700 On ch=12 n=77 v=80
50700 On ch=12 n=72 v=80
50760 On ch=12 n=72 v=0
50760 On ch=12 n=77 v=0
50760 On ch=12 n=80 v=0
50790 On ch=12 n=77 v=80
50790 On ch=12 n=80 v=80
50790 On ch=12 n=72 v=80
50850 On ch=12 n=72 v=0
50850 On ch=12 n=80 v=0
50850 On ch=12 n=77 v=0
50880 On ch=12 n=77 v=80
50880 On ch=12 n=80 v=80
50880 On ch=12 n=72 v=80
50940 On ch=12 n=72 v=0
50940 On ch=12 n=80 v=0
50940 On ch=12 n=77 v=0
50970 On ch=12 n=80 v=80
50970 On ch=12 n=77 v=80
50970 On ch=12 n=72 v=80
51030 On ch=12 n=72 v=0
51030 On ch=12 n=77 v=0
51030 On ch=12 n=80 v=0
51060 On ch=12 n=77 v=80
51060 On ch=12 n=80 v=80
51060 On ch=12 n=72 v=80
51120 On ch=12 n=72 v=0
51120 On ch=12 n=80 v=0
51120 On ch=12 n=77 v=0
51180 On ch=12 n=80 v=80
51180 On ch=12 n=77 v=80
51180 On ch=12 n=72 v=80
51240 On ch=12 n=72 v=0
51240 On ch=12 n=77 v=0
51240 On ch=12 n=80 v=0
51270 On ch=12 n=77 v=80
51270 On ch=12 n=80 v=80
51270 On ch=12 n=72 v=80
51330 On ch=12 n=72 v=0
51330 On ch=12 n=80 v=0
51330 On ch=12 n=77 v=0
51360 On ch=12 n=77 v=80
51360 On ch=12 n=80 v=80
51360 On ch=12 n=72 v=80
51420 On ch=12 n=72 v=0
51420 On ch=12 n=80 v=0
51420 On ch=12 n=77 v=0
51450 On ch=12 n=80 v=80
51450 On ch=12 n=77 v=80
51450 On ch=12 n=72 v=80
51510 On ch=12 n=72 v=0
51510 On ch=12 n=77 v=0
51510 On ch=12 n=80 v=0
51540 On ch=12 n=77 v=80
51540 On ch=12 n=80 v=80
51540 On ch=12 n=72 v=80
51600 On ch=12 n=72 v=0
51600 On ch=12 n=80 v=0
51600 On ch=12 n=77 v=0
51660 On ch=12 n=80 v=80
51660 On ch=12 n=77 v=80
51660 On ch=12 n=72 v=80
51720 On ch=12 n=72 v=0
51720 On ch=12 n=77 v=0
51720 On ch=12 n=80 v=0
51750 On ch=12 n=77 v=80
51750 On ch=12 n=80 v=80
51750 On ch=12 n=72 v=80
51810 On ch=12 n=72 v=0
51810 On ch=12 n=80 v=0
51810 On ch=12 n=77 v=0
51840 On ch=12 n=75 v=80
51840 On ch=12 n=79 v=80
51840 On ch=12 n=70 v=80
51900 On ch=12 n=70 v=0
51900 On ch=12 n=79 v=0
51900 On ch=12 n=75 v=0
51930 On ch=12 n=75 v=80
51930 On ch=12 n=79 v=80
51930 On ch=12 n=70 v=80
51990 On ch=12 n=70 v=0
51990 On ch=12 n=79 v=0
51990 On ch=12 n=75 v=0
52020 On ch=12 n=73 v=80
52020 On ch=12 n=77 v=80
52020 On ch=12 n=68 v=80
52080 On ch=12 n=68 v=0
52080 On ch=12 n=77 v=0
52080 On ch=12 n=73 v=0
52140 On ch=12 n=77 v=80
52140 On ch=12 n=73 v=80
52140 On ch=12 n=68 v=80
52200 On ch=12 n=68 v=0
52200 On ch=12 n=73 v=0
52200 On ch=12 n=77 v=0
52230 On ch=12 n=77 v=80
52230 On ch=12 n=73 v=80
52230 On ch=12 n=68 v=80
52290 On ch=12 n=68 v=0
52290 On ch=12 n=73 v=0
52290 On ch=12 n=77 v=0
52320 On ch=12 n=77 v=80
52320 On ch=12 n=80 v=80
52320 On ch=12 n=72 v=80
52380 On ch=12 n=72 v=0
52380 On ch=12 n=80 v=0
52380 On ch=12 n=77 v=0
52410 On ch=12 n=77 v=80
52410 On ch=12 n=80 v=80
52410 On ch=12 n=72 v=80
52470 On ch=12 n=72 v=0
52470 On ch=12 n=80 v=0
52470 On ch=12 n=77 v=0
52500 On ch=12 n=77 v=80
52500 On ch=12 n=80 v=80
52500 On ch=12 n=72 v=80
52560 On ch=12 n=72 v=0
52560 On ch=12 n=80 v=0
52560 On ch=12 n=77 v=0
52620 On ch=12 n=77 v=80
52620 On ch=12 n=80 v=80
52620 On ch=12 n=72 v=80
52680 On ch=12 n=72 v=0
52680 On ch=12 n=80 v=0
52680 On ch=12 n=77 v=0
52710 On ch=12 n=77 v=80
52710 On ch=12 n=80 v=80
52710 On ch=12 n=72 v=80
52770 On ch=12 n=72 v=0
52770 On ch=12 n=80 v=0
52770 On ch=12 n=77 v=0
52800 On ch=12 n=79 v=80
52800 On ch=12 n=75 v=80
52800 On ch=12 n=70 v=80
52860 On ch=12 n=70 v=0
52860 On ch=12 n=75 v=0
52860 On ch=12 n=79 v=0
52890 On ch=12 n=70 v=80
52890 On ch=12 n=79 v=80
52890 On ch=12 n=75 v=80
52950 On ch=12 n=75 v=0
52950 On ch=12 n=79 v=0
52950 On ch=12 n=70 v=0
52980 On ch=12 n=73 v=80
52980 On ch=12 n=77 v=80
52980 On ch=12 n=80 v=80
52980 On ch=12 n=68 v=80
53040 On ch=12 n=68 v=0
53040 On ch=12 n=73 v=0
53040 On ch=12 n=77 v=0
53040 On ch=12 n=80 v=0
53100 On ch=12 n=68 v=80
53100 On ch=12 n=77 v=80
53100 On ch=12 n=73 v=80
53100 On ch=12 n=80 v=80
53160 On ch=12 n=80 v=0
53160 On ch=12 n=68 v=0
53160 On ch=12 n=77 v=0
53160 On ch=12 n=73 v=0
53190 On ch=12 n=77 v=80
53190 On ch=12 n=68 v=80
53190 On ch=12 n=80 v=80
53190 On ch=12 n=73 v=80
53250 On ch=12 n=73 v=0
53250 On ch=12 n=77 v=0
53250 On ch=12 n=68 v=0
53250 On ch=12 n=80 v=0
53280 On ch=12 n=77 v=80
53280 On ch=12 n=80 v=80
53280 On ch=12 n=72 v=80
53340 On ch=12 n=72 v=0
53340 On ch=12 n=80 v=0
53340 On ch=12 n=77 v=0
53370 On ch=12 n=80 v=80
53370 On ch=12 n=77 v=80
53370 On ch=12 n=72 v=80
53430 On ch=12 n=72 v=0
53430 On ch=12 n=77 v=0
53430 On ch=12 n=80 v=0
53460 On ch=12 n=77 v=80
53460 On ch=12 n=80 v=80
53460 On ch=12 n=72 v=80
53520 On ch=12 n=72 v=0
53520 On ch=12 n=80 v=0
53520 On ch=12 n=77 v=0
53580 On ch=12 n=80 v=80
53580 On ch=12 n=77 v=80
53580 On ch=12 n=72 v=80
53640 On ch=12 n=72 v=0
53640 On ch=12 n=77 v=0
53640 On ch=12 n=80 v=0
53670 On ch=12 n=77 v=80
53670 On ch=12 n=80 v=80
53670 On ch=12 n=72 v=80
53730 On ch=12 n=72 v=0
53730 On ch=12 n=80 v=0
53730 On ch=12 n=77 v=0
53760 On ch=12 n=75 v=80
53760 On ch=12 n=79 v=80
53760 On ch=12 n=70 v=80
53820 On ch=12 n=70 v=0
53820 On ch=12 n=79 v=0
53820 On ch=12 n=75 v=0
53850 On ch=12 n=75 v=80
53850 On ch=12 n=79 v=80
53850 On ch=12 n=70 v=80
53910 On ch=12 n=70 v=0
53910 On ch=12 n=79 v=0
53910 On ch=12 n=75 v=0
53940 On ch=12 n=73 v=80
53940 On ch=12 n=77 v=80
53940 On ch=12 n=68 v=80
54000 On ch=12 n=68 v=0
54000 On ch=12 n=77 v=0
54000 On ch=12 n=73 v=0
54060 On ch=12 n=77 v=80
54060 On ch=12 n=73 v=80
54060 On ch=12 n=68 v=80
54120 On ch=12 n=68 v=0
54120 On ch=12 n=73 v=0
54120 On ch=12 n=77 v=0
54150 On ch=12 n=77 v=80
54150 On ch=12 n=73 v=80
54150 On ch=12 n=68 v=80
54210 On ch=12 n=68 v=0
54210 On ch=12 n=73 v=0
54210 On ch=12 n=77 v=0
54240 On ch=12 n=77 v=80
54240 On ch=12 n=80 v=80
54240 On ch=12 n=72 v=80
54300 On ch=12 n=72 v=0
54300 On ch=12 n=80 v=0
54300 On ch=12 n=77 v=0
54330 On ch=12 n=77 v=80
54330 On ch=12 n=80 v=80
54330 On ch=12 n=72 v=80
54390 On ch=12 n=72 v=0
54390 On ch=12 n=80 v=0
54390 On ch=12 n=77 v=0
54420 On ch=12 n=77 v=80
54420 On ch=12 n=80 v=80
54420 On ch=12 n=72 v=80
54480 On ch=12 n=72 v=0
54480 On ch=12 n=80 v=0
54480 On ch=12 n=77 v=0
54540 On ch=12 n=77 v=80
54540 On ch=12 n=80 v=80
54540 On ch=12 n=72 v=80
54600 On ch=12 n=72 v=0
54600 On ch=12 n=80 v=0
54600 On ch=12 n=77 v=0
54630 On ch=12 n=77 v=80
54630 On ch=12 n=80 v=80
54630 On ch=12 n=72 v=80
54690 On ch=12 n=72 v=0
54690 On ch=12 n=80 v=0
54690 On ch=12 n=77 v=0
54720 On ch=12 n=79 v=80
54720 On ch=12 n=75 v=80
54720 On ch=12 n=70 v=80
54780 On ch=12 n=70 v=0
54780 On ch=12 n=75 v=0
54780 On ch=12 n=79 v=0
54810 On ch=12 n=70 v=80
54810 On ch=12 n=79 v=80
54810 On ch=12 n=75 v=80
54870 On ch=12 n=75 v=0
54870 On ch=12 n=79 v=0
54870 On ch=12 n=70 v=0
54900 On ch=12 n=73 v=80
54900 On ch=12 n=77 v=80
54900 On ch=12 n=80 v=80
54900 On ch=12 n=68 v=80
54960 On ch=12 n=68 v=0
54960 On ch=12 n=73 v=0
54960 On ch=12 n=77 v=0
54960 On ch=12 n=80 v=0
55020 On ch=12 n=68 v=80
55020 On ch=12 n=77 v=80
55020 On ch=12 n=73 v=80
55020 On ch=12 n=80 v=80
55080 On ch=12 n=80 v=0
55080 On ch=12 n=68 v=0
55080 On ch=12 n=77 v=0
55080 On ch=12 n=73 v=0
55110 On ch=12 n=77 v=80
55110 On ch=12 n=68 v=80
55110 On ch=12 n=80 v=80
55110 On ch=12 n=73 v=80
55170 On ch=12 n=73 v=0
55170 On ch=12 n=77 v=0
55170 On ch=12 n=68 v=0
55170 On ch=12 n=80 v=0
60000 On ch=12 n=77 v=80
60000 On ch=12 n=80 v=80
60000 On ch=12 n=72 v=80
60060 On ch=12 n=72 v=0
60060 On ch=12 n=80 v=0
60060 On ch=12 n=77 v=0
60090 On ch=12 n=80 v=80
60090 On ch=12 n=77 v=80
60090 On ch=12 n=72 v=80
60150 On ch=12 n=72 v=0
60150 On ch=12 n=77 v=0
60150 On ch=12 n=80 v=0
60180 On ch=12 n=77 v=80
60180 On ch=12 n=80 v=80
60180 On ch=12 n=72 v=80
60240 On ch=12 n=72 v=0
60240 On ch=12 n=80 v=0
60240 On ch=12 n=77 v=0
60300 On ch=12 n=80 v=80
60300 On ch=12 n=77 v=80
60300 On ch=12 n=72 v=80
60360 On ch=12 n=72 v=0
60360 On ch=12 n=77 v=0
60360 On ch=12 n=80 v=0
60390 On ch=12 n=77 v=80
60390 On ch=12 n=80 v=80
60390 On ch=12 n=72 v=80
60450 On ch=12 n=72 v=0
60450 On ch=12 n=80 v=0
60450 On ch=12 n=77 v=0
60480 On ch=12 n=75 v=80
60480 On ch=12 n=79 v=80
60480 On ch=12 n=70 v=80
60540 On ch=12 n=70 v=0
60540 On ch=12 n=79 v=0
60540 On ch=12 n=75 v=0
60570 On ch=12 n=75 v=80
60570 On ch=12 n=79 v=80
60570 On ch=12 n=70 v=80
60630 On ch=12 n=70 v=0
60630 On ch=12 n=79 v=0
60630 On ch=12 n=75 v=0
60660 On ch=12 n=73 v=80
60660 On ch=12 n=77 v=80
60660 On ch=12 n=68 v=80
60720 On ch=12 n=68 v=0
60720 On ch=12 n=77 v=0
60720 On ch=12 n=73 v=0
60780 On ch=12 n=77 v=80
60780 On ch=12 n=73 v=80
60780 On ch=12 n=68 v=80
60840 On ch=12 n=68 v=0
60840 On ch=12 n=73 v=0
60840 On ch=12 n=77 v=0
60870 On ch=12 n=77 v=80
60870 On ch=12 n=73 v=80
60870 On ch=12 n=68 v=80
60930 On ch=12 n=68 v=0
60930 On ch=12 n=73 v=0
60930 On ch=12 n=77 v=0
60960 On ch=12 n=77 v=80
60960 On ch=12 n=80 v=80
60960 On ch=12 n=72 v=80
61020 On ch=12 n=72 v=0
61020 On ch=12 n=80 v=0
61020 On ch=12 n=77 v=0
61050 On ch=12 n=77 v=80
61050 On ch=12 n=80 v=80
61050 On ch=12 n=72 v=80
61110 On ch=12 n=72 v=0
61110 On ch=12 n=80 v=0
61110 On ch=12 n=77 v=0
61140 On ch=12 n=77 v=80
61140 On ch=12 n=80 v=80
61140 On ch=12 n=72 v=80
61200 On ch=12 n=72 v=0
61200 On ch=12 n=80 v=0
61200 On ch=12 n=77 v=0
61260 On ch=12 n=77 v=80
61260 On ch=12 n=80 v=80
61260 On ch=12 n=72 v=80
61320 On ch=12 n=72 v=0
61320 On ch=12 n=80 v=0
61320 On ch=12 n=77 v=0
61350 On ch=12 n=77 v=80
61350 On ch=12 n=80 v=80
61350 On ch=12 n=72 v=80
61410 On ch=12 n=72 v=0
61410 On ch=12 n=80 v=0
61410 On ch=12 n=77 v=0
61440 On ch=12 n=79 v=80
61440 On ch=12 n=75 v=80
61440 On ch=12 n=70 v=80
61500 On ch=12 n=70 v=0
61500 On ch=12 n=75 v=0
61500 On ch=12 n=79 v=0
61530 On ch=12 n=70 v=80
61530 On ch=12 n=79 v=80
61530 On ch=12 n=75 v=80
61590 On ch=12 n=75 v=0
61590 On ch=12 n=79 v=0
61590 On ch=12 n=70 v=0
61620 On ch=12 n=73 v=80
61620 On ch=12 n=77 v=80
61620 On ch=12 n=80 v=80
61620 On ch=12 n=68 v=80
61680 On ch=12 n=68 v=0
61680 On ch=12 n=73 v=0
61680 On ch=12 n=77 v=0
61680 On ch=12 n=80 v=0
61740 On ch=12 n=68 v=80
61740 On ch=12 n=77 v=80
61740 On ch=12 n=73 v=80
61740 On ch=12 n=80 v=80
61800 On ch=12 n=80 v=0
61800 On ch=12 n=68 v=0
61800 On ch=12 n=77 v=0
61800 On ch=12 n=73 v=0
61830 On ch=12 n=77 v=80
61830 On ch=12 n=68 v=80
61830 On ch=12 n=80 v=80
61830 On ch=12 n=73 v=80
61890 On ch=12 n=73 v=0
61890 On ch=12 n=77 v=0
61890 On ch=12 n=68 v=0
61890 On ch=12 n=80 v=0
61920 On ch=12 n=77 v=80
61920 On ch=12 n=80 v=80
61920 On ch=12 n=72 v=80
61980 On ch=12 n=72 v=0
61980 On ch=12 n=80 v=0
61980 On ch=12 n=77 v=0
62010 On ch=12 n=80 v=80
62010 On ch=12 n=77 v=80
62010 On ch=12 n=72 v=80
62070 On ch=12 n=72 v=0
62070 On ch=12 n=77 v=0
62070 On ch=12 n=80 v=0
62100 On ch=12 n=77 v=80
62100 On ch=12 n=80 v=80
62100 On ch=12 n=72 v=80
62160 On ch=12 n=72 v=0
62160 On ch=12 n=80 v=0
62160 On ch=12 n=77 v=0
62220 On ch=12 n=80 v=80
62220 On ch=12 n=77 v=80
62220 On ch=12 n=72 v=80
62280 On ch=12 n=72 v=0
62280 On ch=12 n=77 v=0
62280 On ch=12 n=80 v=0
62310 On ch=12 n=77 v=80
62310 On ch=12 n=80 v=80
62310 On ch=12 n=72 v=80
62370 On ch=12 n=72 v=0
62370 On ch=12 n=80 v=0
62370 On ch=12 n=77 v=0
62400 On ch=12 n=75 v=80
62400 On ch=12 n=79 v=80
62400 On ch=12 n=70 v=80
62460 On ch=12 n=70 v=0
62460 On ch=12 n=79 v=0
62460 On ch=12 n=75 v=0
62490 On ch=12 n=75 v=80
62490 On ch=12 n=79 v=80
62490 On ch=12 n=70 v=80
62550 On ch=12 n=70 v=0
62550 On ch=12 n=79 v=0
62550 On ch=12 n=75 v=0
62580 On ch=12 n=73 v=80
62580 On ch=12 n=77 v=80
62580 On ch=12 n=68 v=80
62640 On ch=12 n=68 v=0
62640 On ch=12 n=77 v=0
62640 On ch=12 n=73 v=0
62700 On ch=12 n=77 v=80
62700 On ch=12 n=73 v=80
62700 On ch=12 n=68 v=80
62760 On ch=12 n=68 v=0
62760 On ch=12 n=73 v=0
62760 On ch=12 n=77 v=0
62790 On ch=12 n=77 v=80
62790 On ch=12 n=73 v=80
62790 On ch=12 n=68 v=80
62850 On ch=12 n=68 v=0
62850 On ch=12 n=73 v=0
62850 On ch=12 n=77 v=0
62880 On ch=12 n=77 v=80
62880 On ch=12 n=80 v=80
62880 On ch=12 n=72 v=80
62940 On ch=12 n=72 v=0
62940 On ch=12 n=80 v=0
62940 On ch=12 n=77 v=0
62970 On ch=12 n=77 v=80
62970 On ch=12 n=80 v=80
62970 On ch=12 n=72 v=80
63030 On ch=12 n=72 v=0
63030 On ch=12 n=80 v=0
63030 On ch=12 n=77 v=0
63060 On ch=12 n=77 v=80
63060 On ch=12 n=80 v=80
63060 On ch=12 n=72 v=80
63120 On ch=12 n=72 v=0
63120 On ch=12 n=80 v=0
63120 On ch=12 n=77 v=0
63180 On ch=12 n=77 v=80
63180 On ch=12 n=80 v=80
63180 On ch=12 n=72 v=80
63240 On ch=12 n=72 v=0
63240 On ch=12 n=80 v=0
63240 On ch=12 n=77 v=0
63270 On ch=12 n=77 v=80
63270 On ch=12 n=80 v=80
63270 On ch=12 n=72 v=80
63330 On ch=12 n=72 v=0
63330 On ch=12 n=80 v=0
63330 On ch=12 n=77 v=0
63360 On ch=12 n=79 v=80
63360 On ch=12 n=75 v=80
63360 On ch=12 n=70 v=80
63420 On ch=12 n=70 v=0
63420 On ch=12 n=75 v=0
63420 On ch=12 n=79 v=0
63450 On ch=12 n=70 v=80
63450 On ch=12 n=79 v=80
63450 On ch=12 n=75 v=80
63510 On ch=12 n=75 v=0
63510 On ch=12 n=79 v=0
63510 On ch=12 n=70 v=0
63540 On ch=12 n=73 v=80
63540 On ch=12 n=77 v=80
63540 On ch=12 n=80 v=80
63540 On ch=12 n=68 v=80
63600 On ch=12 n=68 v=0
63600 On ch=12 n=73 v=0
63600 On ch=12 n=77 v=0
63600 On ch=12 n=80 v=0
63660 On ch=12 n=68 v=80
63660 On ch=12 n=77 v=80
63660 On ch=12 n=73 v=80
63660 On ch=12 n=80 v=80
63720 On ch=12 n=80 v=0
63720 On ch=12 n=68 v=0
63720 On ch=12 n=77 v=0
63720 On ch=12 n=73 v=0
63750 On ch=12 n=77 v=80
63750 On ch=12 n=68 v=80
63750 On ch=12 n=80 v=80
63750 On ch=12 n=73 v=80
63810 On ch=12 n=73 v=0
63810 On ch=12 n=77 v=0
63810 On ch=12 n=68 v=0
63810 On ch=12 n=80 v=0
63810 Meta TrkEnd
TrkEnd
MTrk
0 Meta TrkName "Strings 1"
0 PrCh ch=14 p=48
0 Par ch=14 c=7 v=80
480 Par ch=14 c=91 v=50
480 Par ch=14 c=93 v=20
15840 On ch=14 n=53 v=80
15840 On ch=14 n=68 v=80
15840 On ch=14 n=65 v=80
15840 On ch=14 n=60 v=80
19200 On ch=14 n=60 v=0
19200 On ch=14 n=53 v=0
19200 On ch=14 n=68 v=0
19200 On ch=14 n=65 v=0
31200 On ch=14 n=53 v=80
31200 On ch=14 n=68 v=80
31200 On ch=14 n=65 v=80
31200 On ch=14 n=60 v=80
31275 Par ch=14 c=64 v=127
31330 On ch=14 n=60 v=0
31330 On ch=14 n=65 v=0
31331 On ch=14 n=53 v=0
31334 On ch=14 n=68 v=0
31669 Par ch=14 c=64 v=0
31680 On ch=14 n=51 v=80
31680 On ch=14 n=63 v=80
31680 On ch=14 n=58 v=80
31680 On ch=14 n=67 v=80
31734 Par ch=14 c=64 v=127
31749 On ch=14 n=63 v=0
31751 On ch=14 n=67 v=0
31752 On ch=14 n=58 v=0
31776 On ch=14 n=51 v=0
31830 On ch=14 n=49 v=80
31830 On ch=14 n=65 v=80
31854 Par ch=14 c=64 v=0
31860 On ch=14 n=56 v=80
31860 On ch=14 n=61 v=80
31917 On ch=14 n=65 v=0
31917 Par ch=14 c=64 v=127
31923 On ch=14 n=49 v=0
31935 On ch=14 n=56 v=0
31937 On ch=14 n=61 v=0
32130 On ch=14 n=53 v=80
32148 Par ch=14 c=64 v=0
32160 On ch=14 n=68 v=80
32160 On ch=14 n=65 v=80
32160 On ch=14 n=60 v=80
32207 Par ch=14 c=64 v=127
32247 On ch=14 n=53 v=0
32262 On ch=14 n=65 v=0
32263 On ch=14 n=60 v=0
32270 On ch=14 n=68 v=0
32640 On ch=14 n=51 v=80
32640 On ch=14 n=67 v=80
32640 On ch=14 n=63 v=80
32640 On ch=14 n=58 v=80
32641 Par ch=14 c=64 v=0
32693 On ch=14 n=58 v=0
32695 On ch=14 n=63 v=0
32696 On ch=14 n=67 v=0
32699 Par ch=14 c=64 v=127
32723 On ch=14 n=51 v=0
32820 On ch=14 n=49 v=80
32820 On ch=14 n=65 v=80
32820 On ch=14 n=56 v=80
32820 On ch=14 n=61 v=80
32823 Par ch=14 c=64 v=0
32881 Par ch=14 c=64 v=127
32883 On ch=14 n=56 v=0
32884 On ch=14 n=61 v=0
32897 On ch=14 n=65 v=0
32903 On ch=14 n=49 v=0
33090 On ch=14 n=68 v=80
33090 On ch=14 n=53 v=80
33090 On ch=14 n=60 v=80
33090 On ch=14 n=65 v=80
33112 Par ch=14 c=64 v=0
33159 Par ch=14 c=64 v=127
33170 On ch=14 n=65 v=0
33172 On ch=14 n=60 v=0
33176 On ch=14 n=68 v=0
33182 On ch=14 n=53 v=0
33600 On ch=14 n=67 v=80
33600 On ch=14 n=51 v=80
33600 On ch=14 n=58 v=80
33600 On ch=14 n=63 v=80
33601 Par ch=14 c=64 v=0
33648 Par ch=14 c=64 v=127
33651 On ch=14 n=67 v=0
33653 On ch=14 n=63 v=0
33661 On ch=14 n=58 v=0
33675 On ch=14 n=51 v=0
33750 On ch=14 n=65 v=80
33780 On ch=14 n=49 v=80
33780 On ch=14 n=56 v=80
33780 On ch=14 n=61 v=80
33783 Par ch=14 c=64 v=0
33826 On ch=14 n=65 v=0
33828 Par ch=14 c=64 v=127
33846 On ch=14 n=56 v=0
33847 On ch=14 n=61 v=0
33862 On ch=14 n=49 v=0
34050 On ch=14 n=53 v=80
34050 On ch=14 n=68 v=80
34050 On ch=14 n=65 v=80
34050 On ch=14 n=60 v=80
34070 Par ch=14 c=64 v=0
34129 Par ch=14 c=64 v=127
34138 On ch=14 n=65 v=0
34140 On ch=14 n=60 v=0
34145 On ch=14 n=68 v=0
34160 On ch=14 n=53 v=0
34556 Par ch=14 c=64 v=0
34560 On ch=14 n=58 v=80
34560 On ch=14 n=63 v=80
34560 On ch=14 n=51 v=80
34560 On ch=14 n=67 v=80
34603 Par ch=14 c=64 v=127
34614 On ch=14 n=67 v=0
34617 On ch=14 n=63 v=0
34625 On ch=14 n=58 v=0
34636 On ch=14 n=51 v=0
34710 On ch=14 n=65 v=80
34710 On ch=14 n=49 v=80
34710 On ch=14 n=61 v=80
34710 On ch=14 n=56 v=80
34739 Par ch=14 c=64 v=0
34796 On ch=14 n=61 v=0
34797 On ch=14 n=56 v=0
34799 On ch=14 n=49 v=0
34800 On ch=14 n=65 v=0
36000 On ch=14 n=53 v=80
36000 On ch=14 n=68 v=80
36000 On ch=14 n=65 v=80
36000 On ch=14 n=60 v=80
39840 On ch=14 n=60 v=0
39840 On ch=14 n=53 v=0
39840 On ch=14 n=68 v=0
39840 On ch=14 n=65 v=0
51360 On ch=14 n=53 v=80
51360 On ch=14 n=68 v=80
51360 On ch=14 n=65 v=80
51360 On ch=14 n=60 v=80
51435 Par ch=14 c=64 v=127
51490 On ch=14 n=60 v=0
51490 On ch=14 n=65 v=0
51491 On ch=14 n=53 v=0
51494 On ch=14 n=68 v=0
51829 Par ch=14 c=64 v=0
51840 On ch=14 n=51 v=80
51840 On ch=14 n=63 v=80
51840 On ch=14 n=58 v=80
51840 On ch=14 n=67 v=80
51894 Par ch=14 c=64 v=127
51909 On ch=14 n=63 v=0
51911 On ch=14 n=67 v=0
51912 On ch=14 n=58 v=0
51936 On ch=14 n=51 v=0
51990 On ch=14 n=49 v=80
51990 On ch=14 n=65 v=80
52014 Par ch=14 c=64 v=0
52020 On ch=14 n=56 v=80
52020 On ch=14 n=61 v=80
52077 On ch=14 n=65 v=0
52077 Par ch=14 c=64 v=127
52083 On ch=14 n=49 v=0
52095 On ch=14 n=56 v=0
52097 On ch=14 n=61 v=0
52290 On ch=14 n=53 v=80
52308 Par ch=14 c=64 v=0
52320 On ch=14 n=68 v=80
52320 On ch=14 n=65 v=80
52320 On ch=14 n=60 v=80
52367 Par ch=14 c=64 v=127
52407 On ch=14 n=53 v=0
52422 On ch=14 n=65 v=0
52423 On ch=14 n=60 v=0
52430 On ch=14 n=68 v=0
52800 On ch=14 n=51 v=80
52800 On ch=14 n=67 v=80
52800 On ch=14 n=63 v=80
52800 On ch=14 n=58 v=80
52801 Par ch=14 c=64 v=0
52853 On ch=14 n=58 v=0
52855 On ch=14 n=63 v=0
52856 On ch=14 n=67 v=0
52859 Par ch=14 c=64 v=127
52883 On ch=14 n=51 v=0
52980 On ch=14 n=49 v=80
52980 On ch=14 n=65 v=80
52980 On ch=14 n=56 v=80
52980 On ch=14 n=61 v=80
52983 Par ch=14 c=64 v=0
53041 Par ch=14 c=64 v=127
53043 On ch=14 n=56 v=0
53044 On ch=14 n=61 v=0
53057 On ch=14 n=65 v=0
53063 On ch=14 n=49 v=0
53250 On ch=14 n=68 v=80
53250 On ch=14 n=53 v=80
53250 On ch=14 n=60 v=80
53250 On ch=14 n=65 v=80
53272 Par ch=14 c=64 v=0
53280 On ch=14 n=53 v=80
53280 On ch=14 n=68 v=80
53280 On ch=14 n=65 v=80
53280 On ch=14 n=60 v=80
53330 On ch=14 n=65 v=0
53332 On ch=14 n=60 v=0
53336 On ch=14 n=68 v=0
53342 On ch=14 n=53 v=0
53355 Par ch=14 c=64 v=127
53410 On ch=14 n=60 v=0
53410 On ch=14 n=65 v=0
53411 On ch=14 n=53 v=0
53414 On ch=14 n=68 v=0
53749 Par ch=14 c=64 v=0
53760 On ch=14 n=51 v=80
53760 On ch=14 n=63 v=80
53760 On ch=14 n=58 v=80
53760 On ch=14 n=67 v=80
53814 Par ch=14 c=64 v=127
53829 On ch=14 n=63 v=0
53831 On ch=14 n=67 v=0
53832 On ch=14 n=58 v=0
53856 On ch=14 n=51 v=0
53910 On ch=14 n=49 v=80
53910 On ch=14 n=65 v=80
53934 Par ch=14 c=64 v=0
53940 On ch=14 n=56 v=80
53940 On ch=14 n=61 v=80
53997 On ch=14 n=65 v=0
53997 Par ch=14 c=64 v=127
54003 On ch=14 n=49 v=0
54015 On ch=14 n=56 v=0
54017 On ch=14 n=61 v=0
54210 On ch=14 n=53 v=80
54228 Par ch=14 c=64 v=0
54240 On ch=14 n=68 v=80
54240 On ch=14 n=65 v=80
54240 On ch=14 n=60 v=80
54287 Par ch=14 c=64 v=127
54327 On ch=14 n=53 v=0
54342 On ch=14 n=65 v=0
54343 On ch=14 n=60 v=0
54350 On ch=14 n=68 v=0
54720 On ch=14 n=51 v=80
54720 On ch=14 n=67 v=80
54720 On ch=14 n=63 v=80
54720 On ch=14 n=58 v=80
54721 Par ch=14 c=64 v=0
54773 On ch=14 n=58 v=0
54775 On ch=14 n=63 v=0
54776 On ch=14 n=67 v=0
54779 Par ch=14 c=64 v=127
54803 On ch=14 n=51 v=0
54900 On ch=14 n=49 v=80
54900 On ch=14 n=65 v=80
54900 On ch=14 n=56 v=80
54900 On ch=14 n=61 v=80
54903 Par ch=14 c=64 v=0
54961 Par ch=14 c=64 v=127
54963 On ch=14 n=56 v=0
54964 On ch=14 n=61 v=0
54977 On ch=14 n=65 v=0
54983 On ch=14 n=49 v=0
55192 Par ch=14 c=64 v=0
55200 On ch=14 n=68 v=80
55200 On ch=14 n=53 v=80
55200 On ch=14 n=65 v=80
55200 On ch=14 n=60 v=80
55279 Par ch=14 c=64 v=127
55362 On ch=14 n=60 v=0
55365 On ch=14 n=65 v=0
55368 On ch=14 n=68 v=0
55371 On ch=14 n=53 v=0
55678 Par ch=14 c=64 v=0
55680 On ch=14 n=49 v=80
55680 On ch=14 n=65 v=80
55680 On ch=14 n=61 v=80
55680 On ch=14 n=68 v=80
55718 Par ch=14 c=64 v=127
55750 On ch=14 n=65 v=0
55751 On ch=14 n=61 v=0
55759 On ch=14 n=68 v=0
55763 On ch=14 n=49 v=0
55890 On ch=14 n=51 v=80
55890 On ch=14 n=67 v=80
55890 On ch=14 n=63 v=80
55917 Par ch=14 c=64 v=0
55920 On ch=14 n=58 v=80
55953 Par ch=14 c=64 v=127
55968 On ch=14 n=63 v=0
55977 On ch=14 n=67 v=0
55980 On ch=14 n=51 v=0
55995 On ch=14 n=58 v=0
56160 On ch=14 n=53 v=80
56160 On ch=14 n=68 v=80
56160 On ch=14 n=65 v=80
56160 On ch=14 n=60 v=80
56163 Par ch=14 c=64 v=0
56215 Par ch=14 c=64 v=127
56259 On ch=14 n=60 v=0
56265 On ch=14 n=65 v=0
56272 On ch=14 n=68 v=0
56273 On ch=14 n=53 v=0
56639 Par ch=14 c=64 v=0
56640 On ch=14 n=49 v=80
56640 On ch=14 n=61 v=80
56640 On ch=14 n=65 v=80
56640 On ch=14 n=68 v=80
56690 Par ch=14 c=64 v=127
56718 On ch=14 n=65 v=0
56720 On ch=14 n=61 v=0
56727 On ch=14 n=68 v=0
56735 On ch=14 n=49 v=0
56850 On ch=14 n=51 v=80
56850 On ch=14 n=67 v=80
56880 On ch=14 n=63 v=80
56880 On ch=14 n=58 v=80
56885 Par ch=14 c=64 v=0
56932 Par ch=14 c=64 v=127
56946 On ch=14 n=67 v=0
56954 On ch=14 n=51 v=0
56967 On ch=14 n=58 v=0
56968 On ch=14 n=63 v=0
57120 On ch=14 n=53 v=80
57120 On ch=14 n=68 v=80
57120 On ch=14 n=65 v=80
57120 On ch=14 n=60 v=80
57120 Par ch=14 c=64 v=0
57190 Par ch=14 c=64 v=127
57238 On ch=14 n=60 v=0
57242 On ch=14 n=65 v=0
57246 On ch=14 n=68 v=0
57257 On ch=14 n=53 v=0
57600 On ch=14 n=68 v=80
57600 On ch=14 n=65 v=80
57600 On ch=14 n=61 v=80
57600 On ch=14 n=49 v=80
57605 Par ch=14 c=64 v=0
57645 Par ch=14 c=64 v=127
57678 On ch=14 n=65 v=0
57680 On ch=14 n=61 v=0
57682 On ch=14 n=49 v=0
57685 On ch=14 n=68 v=0
57810 On ch=14 n=51 v=80
57810 On ch=14 n=67 v=80
57839 Par ch=14 c=64 v=0
57840 On ch=14 n=58 v=80
57840 On ch=14 n=63 v=80
57881 Par ch=14 c=64 v=127
57905 On ch=14 n=67 v=0
57915 On ch=14 n=51 v=0
57922 On ch=14 n=58 v=0
57927 On ch=14 n=63 v=0
58080 On ch=14 n=68 v=80
58080 On ch=14 n=65 v=80
58080 On ch=14 n=60 v=80
58080 On ch=14 n=53 v=80
58086 Par ch=14 c=64 v=0
58134 Par ch=14 c=64 v=127
58157 On ch=14 n=60 v=0
58161 On ch=14 n=65 v=0
58165 On ch=14 n=53 v=0
58169 On ch=14 n=68 v=0
58530 On ch=14 n=68 v=80
58542 Par ch=14 c=64 v=0
58560 On ch=14 n=65 v=80
58560 On ch=14 n=49 v=80
58560 On ch=14 n=61 v=80
58583 Par ch=14 c=64 v=127
58597 On ch=14 n=68 v=0
58619 On ch=14 n=65 v=0
58620 On ch=14 n=61 v=0
58634 On ch=14 n=49 v=0
58770 On ch=14 n=51 v=80
58770 On ch=14 n=58 v=80
58770 On ch=14 n=67 v=80
58770 On ch=14 n=63 v=80
58791 Par ch=14 c=64 v=0
59006 On ch=14 n=63 v=0
59006 On ch=14 n=58 v=0
59007 On ch=14 n=67 v=0
59013 On ch=14 n=51 v=0
60000 On ch=14 n=53 v=80
60000 On ch=14 n=68 v=80
60000 On ch=14 n=65 v=80
60000 On ch=14 n=60 v=80
60075 Par ch=14 c=64 v=127
60130 On ch=14 n=60 v=0
60130 On ch=14 n=65 v=0
60131 On ch=14 n=53 v=0
60134 On ch=14 n=68 v=0
60469 Par ch=14 c=64 v=0
60480 On ch=14 n=51 v=80
60480 On ch=14 n=63 v=80
60480 On ch=14 n=58 v=80
60480 On ch=14 n=67 v=80
60534 Par ch=14 c=64 v=127
60549 On ch=14 n=63 v=0
60551 On ch=14 n=67 v=0
60552 On ch=14 n=58 v=0
60576 On ch=14 n=51 v=0
60630 On ch=14 n=49 v=80
60630 On ch=14 n=65 v=80
60654 Par ch=14 c=64 v=0
60660 On ch=14 n=56 v=80
60660 On ch=14 n=61 v=80
60717 On ch=14 n=65 v=0
60717 Par ch=14 c=64 v=127
60723 On ch=14 n=49 v=0
60735 On ch=14 n=56 v=0
60737 On ch=14 n=61 v=0
60930 On ch=14 n=53 v=80
60948 Par ch=14 c=64 v=0
60960 On ch=14 n=68 v=80
60960 On ch=14 n=65 v=80
60960 On ch=14 n=60 v=80
61007 Par ch=14 c=64 v=127
61047 On ch=14 n=53 v=0
61062 On ch=14 n=65 v=0
61063 On ch=14 n=60 v=0
61070 On ch=14 n=68 v=0
61440 On ch=14 n=51 v=80
61440 On ch=14 n=67 v=80
61440 On ch=14 n=63 v=80
61440 On ch=14 n=58 v=80
61441 Par ch=14 c=64 v=0
61493 On ch=14 n=58 v=0
61495 On ch=14 n=63 v=0
61496 On ch=14 n=67 v=0
61499 Par ch=14 c=64 v=127
61523 On ch=14 n=51 v=0
61620 On ch=14 n=49 v=80
61620 On ch=14 n=65 v=80
61620 On ch=14 n=56 v=80
61620 On ch=14 n=61 v=80
61623 Par ch=14 c=64 v=0
61681 Par ch=14 c=64 v=127
61683 On ch=14 n=56 v=0
61684 On ch=14 n=61 v=0
61697 On ch=14 n=65 v=0
61703 On ch=14 n=49 v=0
61890 On ch=14 n=68 v=80
61890 On ch=14 n=53 v=80
61890 On ch=14 n=60 v=80
61890 On ch=14 n=65 v=80
61912 Par ch=14 c=64 v=0
61920 On ch=14 n=53 v=80
61920 On ch=14 n=68 v=80
61920 On ch=14 n=65 v=80
61920 On ch=14 n=60 v=80
61970 On ch=14 n=65 v=0
61972 On ch=14 n=60 v=0
61976 On ch=14 n=68 v=0
61982 On ch=14 n=53 v=0
61995 Par ch=14 c=64 v=127
62050 On ch=14 n=60 v=0
62050 On ch=14 n=65 v=0
62051 On ch=14 n=53 v=0
62054 On ch=14 n=68 v=0
62389 Par ch=14 c=64 v=0
62400 On ch=14 n=51 v=80
62400 On ch=14 n=63 v=80
62400 On ch=14 n=58 v=80
62400 On ch=14 n=67 v=80
62454 Par ch=14 c=64 v=127
62469 On ch=14 n=63 v=0
62471 On ch=14 n=67 v=0
62472 On ch=14 n=58 v=0
62496 On ch=14 n=51 v=0
62550 On ch=14 n=49 v=80
62550 On ch=14 n=65 v=80
62574 Par ch=14 c=64 v=0
62580 On ch=14 n=56 v=80
62580 On ch=14 n=61 v=80
62637 On ch=14 n=65 v=0
62637 Par ch=14 c=64 v=127
62643 On ch=14 n=49 v=0
62655 On ch=14 n=56 v=0
62657 On ch=14 n=61 v=0
62850 On ch=14 n=53 v=80
62868 Par ch=14 c=64 v=0
62880 On ch=14 n=68 v=80
62880 On ch=14 n=65 v=80
62880 On ch=14 n=60 v=80
62927 Par ch=14 c=64 v=127
62967 On ch=14 n=53 v=0
62982 On ch=14 n=65 v=0
62983 On ch=14 n=60 v=0
62990 On ch=14 n=68 v=0
63360 On ch=14 n=51 v=80
63360 On ch=14 n=67 v=80
63360 On ch=14 n=63 v=80
63360 On ch=14 n=58 v=80
63361 Par ch=14 c=64 v=0
63413 On ch=14 n=58 v=0
63415 On ch=14 n=63 v=0
63416 On ch=14 n=67 v=0
63419 Par ch=14 c=64 v=127
63443 On ch=14 n=51 v=0
63540 On ch=14 n=49 v=80
63540 On ch=14 n=65 v=80
63540 On ch=14 n=56 v=80
63540 On ch=14 n=61 v=80
63543 Par ch=14 c=64 v=0
63601 Par ch=14 c=64 v=127
63603 On ch=14 n=56 v=0
63604 On ch=14 n=61 v=0
63617 On ch=14 n=65 v=0
63623 On ch=14 n=49 v=0
63832 Par ch=14 c=64 v=0
63840 On ch=14 n=68 v=80
63840 On ch=14 n=53 v=80
63840 On ch=14 n=65 v=80
63840 On ch=14 n=60 v=80
63919 Par ch=14 c=64 v=127
64002 On ch=14 n=60 v=0
64005 On ch=14 n=65 v=0
64008 On ch=14 n=68 v=0
64011 On ch=14 n=53 v=0
64318 Par ch=14 c=64 v=0
64320 On ch=14 n=49 v=80
64320 On ch=14 n=65 v=80
64320 On ch=14 n=61 v=80
64320 On ch=14 n=68 v=80
64358 Par ch=14 c=64 v=127
64390 On ch=14 n=65 v=0
64391 On ch=14 n=61 v=0
64399 On ch=14 n=68 v=0
64403 On ch=14 n=49 v=0
64530 On ch=14 n=51 v=80
64530 On ch=14 n=67 v=80
64530 On ch=14 n=63 v=80
64557 Par ch=14 c=64 v=0
64560 On ch=14 n=58 v=80
64593 Par ch=14 c=64 v=127
64608 On ch=14 n=63 v=0
64617 On ch=14 n=67 v=0
64620 On ch=14 n=51 v=0
64635 On ch=14 n=58 v=0
64800 On ch=14 n=53 v=80
64800 On ch=14 n=68 v=80
64800 On ch=14 n=65 v=80
64800 On ch=14 n=60 v=80
64803 Par ch=14 c=64 v=0
64855 Par ch=14 c=64 v=127
64899 On ch=14 n=60 v=0
64905 On ch=14 n=65 v=0
64912 On ch=14 n=68 v=0
64913 On ch=14 n=53 v=0
65279 Par ch=14 c=64 v=0
65280 On ch=14 n=49 v=80
65280 On ch=14 n=61 v=80
65280 On ch=14 n=65 v=80
65280 On ch=14 n=68 v=80
65330 Par ch=14 c=64 v=127
65358 On ch=14 n=65 v=0
65360 On ch=14 n=61 v=0
65367 On ch=14 n=68 v=0
65375 On ch=14 n=49 v=0
65490 On ch=14 n=51 v=80
65490 On ch=14 n=67 v=80
65520 On ch=14 n=63 v=80
65520 On ch=14 n=58 v=80
65525 Par ch=14 c=64 v=0
65572 Par ch=14 c=64 v=127
65586 On ch=14 n=67 v=0
65594 On ch=14 n=51 v=0
65607 On ch=14 n=58 v=0
65608 On ch=14 n=63 v=0
65760 On ch=14 n=53 v=80
65760 On ch=14 n=68 v=80
65760 On ch=14 n=65 v=80
65760 On ch=14 n=60 v=80
65760 Par ch=14 c=64 v=0
65830 Par ch=14 c=64 v=127
65878 On ch=14 n=60 v=0
65882 On ch=14 n=65 v=0
65886 On ch=14 n=68 v=0
65897 On ch=14 n=53 v=0
66240 On ch=14 n=68 v=80
66240 On ch=14 n=65 v=80
66240 On ch=14 n=61 v=80
66240 On ch=14 n=49 v=80
66245 Par ch=14 c=64 v=0
66285 Par ch=14 c=64 v=127
66318 On ch=14 n=65 v=0
66320 On ch=14 n=61 v=0
66322 On ch=14 n=49 v=0
66325 On ch=14 n=68 v=0
66450 On ch=14 n=51 v=80
66450 On ch=14 n=67 v=80
66479 Par ch=14 c=64 v=0
66480 On ch=14 n=58 v=80
66480 On ch=14 n=63 v=80
66521 Par ch=14 c=64 v=127
66545 On ch=14 n=67 v=0
66555 On ch=14 n=51 v=0
66562 On ch=14 n=58 v=0
66567 On ch=14 n=63 v=0
66720 On ch=14 n=68 v=80
66720 On ch=14 n=65 v=80
66720 On ch=14 n=60 v=80
66720 On ch=14 n=53 v=80
66726 Par ch=14 c=64 v=0
66774 Par ch=14 c=64 v=127
66797 On ch=14 n=60 v=0
66801 On ch=14 n=65 v=0
66805 On ch=14 n=53 v=0
66809 On ch=14 n=68 v=0
67182 Par ch=14 c=64 v=0
67200 On ch=14 n=77 v=105
67200 On ch=14 n=68 v=106
67200 On ch=14 n=65 v=90
67200 On ch=14 n=72 v=126
67200 On ch=14 n=60 v=127
67200 On ch=14 n=53 v=76
67210 On ch=14 n=72 v=0
67214 On ch=14 n=68 v=0
67216 On ch=14 n=60 v=0
67218 On ch=14 n=65 v=0
67219 On ch=14 n=77 v=0
67220 On ch=14 n=53 v=0
67260 On ch=14 n=72 v=126
67260 On ch=14 n=68 v=103
67260 On ch=14 n=77 v=97
67260 On ch=14 n=53 v=86
67260 On ch=14 n=65 v=89
67260 On ch=14 n=60 v=127
67275 On ch=14 n=60 v=0
67275 On ch=14 n=72 v=0
67278 On ch=14 n=68 v=0
67279 On ch=14 n=65 v=0
67279 On ch=14 n=77 v=0
67283 On ch=14 n=53 v=0
67320 On ch=14 n=68 v=106
67320 On ch=14 n=72 v=123
67320 On ch=14 n=77 v=98
67320 On ch=14 n=60 v=127
67320 On ch=14 n=65 v=90
67320 On ch=14 n=53 v=84
67333 On ch=14 n=72 v=0
67334 On ch=14 n=77 v=0
67337 On ch=14 n=68 v=0
67338 On ch=14 n=60 v=0
67338 On ch=14 n=65 v=0
67350 On ch=14 n=68 v=95
67350 On ch=14 n=77 v=98
67350 On ch=14 n=72 v=126
67350 On ch=14 n=60 v=127
67350 On ch=14 n=65 v=62
67370 On ch=14 n=72 v=0
67371 On ch=14 n=65 v=0
67374 On ch=14 n=77 v=0
67374 On ch=14 n=60 v=0
67375 On ch=14 n=68 v=0
67375 On ch=14 n=53 v=0
67410 On ch=14 n=77 v=109
67410 On ch=14 n=72 v=127
67410 On ch=14 n=68 v=110
67410 On ch=14 n=60 v=127
67410 On ch=14 n=53 v=89
67410 On ch=14 n=65 v=93
67433 On ch=14 n=72 v=0
67436 On ch=14 n=68 v=0
67438 On ch=14 n=77 v=0
67441 On ch=14 n=65 v=0
67442 On ch=14 n=60 v=0
67445 On ch=14 n=53 v=0
67445 Meta TrkEnd
TrkEnd
MTrk
0 Meta TrkName "Clean"
0 PrCh ch=15 p=27
0 Par ch=15 c=7 v=100
480 Par ch=15 c=91 v=100
480 Par ch=15 c=93 v=20
39840 On ch=15 n=68 v=95
39856 On ch=15 n=68 v=0
39870 On ch=15 n=68 v=97
39889 On ch=15 n=68 v=0
39900 On ch=15 n=68 v=97
39918 On ch=15 n=68 v=0
39930 On ch=15 n=68 v=93
39950 On ch=15 n=68 v=0
39960 On ch=15 n=68 v=93
39980 On ch=15 n=68 v=0
39990 On ch=15 n=68 v=82
40010 On ch=15 n=68 v=0
40020 On ch=15 n=68 v=89
40038 On ch=15 n=68 v=0
40050 On ch=15 n=68 v=88
40070 On ch=15 n=68 v=0
40080 On ch=15 n=68 v=92
40097 On ch=15 n=68 v=0
40110 On ch=15 n=68 v=86
40129 On ch=15 n=68 v=0
40140 On ch=15 n=68 v=90
40158 On ch=15 n=68 v=0
40170 On ch=15 n=68 v=86
40191 On ch=15 n=68 v=0
40200 On ch=15 n=68 v=93
40221 On ch=15 n=68 v=0
40230 On ch=15 n=68 v=97
40252 On ch=15 n=68 v=0
40260 On ch=15 n=68 v=95
40276 On ch=15 n=68 v=0
40290 On ch=15 n=68 v=95
40306 On ch=15 n=68 v=0
40320 On ch=15 n=68 v=95
40336 On ch=15 n=68 v=0
40350 On ch=15 n=68 v=97
40369 On ch=15 n=68 v=0
40380 On ch=15 n=68 v=97
40398 On ch=15 n=68 v=0
40410 On ch=15 n=68 v=93
40430 On ch=15 n=68 v=0
40440 On ch=15 n=68 v=93
40460 On ch=15 n=68 v=0
40470 On ch=15 n=68 v=82
40490 On ch=15 n=68 v=0
40500 On ch=15 n=68 v=89
40518 On ch=15 n=68 v=0
40530 On ch=15 n=68 v=88
40550 On ch=15 n=68 v=0
40560 On ch=15 n=68 v=92
40577 On ch=15 n=68 v=0
40590 On ch=15 n=68 v=86
40609 On ch=15 n=68 v=0
40620 On ch=15 n=68 v=90
40638 On ch=15 n=68 v=0
40650 On ch=15 n=68 v=86
40671 On ch=15 n=68 v=0
40680 On ch=15 n=68 v=93
40701 On ch=15 n=68 v=0
40710 On ch=15 n=68 v=97
40732 On ch=15 n=68 v=0
40740 On ch=15 n=68 v=95
40756 On ch=15 n=68 v=0
40770 On ch=15 n=68 v=95
40786 On ch=15 n=68 v=0
40800 On ch=15 n=68 v=95
40816 On ch=15 n=68 v=0
40830 On ch=15 n=68 v=97
40849 On ch=15 n=68 v=0
40860 On ch=15 n=68 v=97
40878 On ch=15 n=68 v=0
40890 On ch=15 n=68 v=93
40910 On ch=15 n=68 v=0
40920 On ch=15 n=68 v=93
40940 On ch=15 n=68 v=0
40950 On ch=15 n=68 v=82
40970 On ch=15 n=68 v=0
40980 On ch=15 n=68 v=89
40998 On ch=15 n=68 v=0
41010 On ch=15 n=68 v=88
41030 On ch=15 n=68 v=0
41040 On ch=15 n=68 v=92
41057 On ch=15 n=68 v=0
41070 On ch=15 n=68 v=86
41089 On ch=15 n=68 v=0
41100 On ch=15 n=68 v=90
41118 On ch=15 n=68 v=0
41130 On ch=15 n=68 v=86
41151 On ch=15 n=68 v=0
41160 On ch=15 n=68 v=93
41181 On ch=15 n=68 v=0
41190 On ch=15 n=68 v=97
41212 On ch=15 n=68 v=0
41220 On ch=15 n=68 v=95
41236 On ch=15 n=68 v=0
41250 On ch=15 n=68 v=95
41266 On ch=15 n=68 v=0
41760 On ch=15 n=68 v=95
41776 On ch=15 n=68 v=0
41790 On ch=15 n=68 v=97
41809 On ch=15 n=68 v=0
41820 On ch=15 n=68 v=97
41838 On ch=15 n=68 v=0
41850 On ch=15 n=68 v=93
41870 On ch=15 n=68 v=0
41880 On ch=15 n=68 v=93
41900 On ch=15 n=68 v=0
41910 On ch=15 n=68 v=82
41930 On ch=15 n=68 v=0
41940 On ch=15 n=68 v=89
41958 On ch=15 n=68 v=0
41970 On ch=15 n=68 v=88
41990 On ch=15 n=68 v=0
42000 On ch=15 n=68 v=92
42017 On ch=15 n=68 v=0
42030 On ch=15 n=68 v=86
42049 On ch=15 n=68 v=0
42060 On ch=15 n=68 v=90
42078 On ch=15 n=68 v=0
42090 On ch=15 n=68 v=86
42111 On ch=15 n=68 v=0
42120 On ch=15 n=68 v=93
42141 On ch=15 n=68 v=0
42150 On ch=15 n=68 v=97
42172 On ch=15 n=68 v=0
42180 On ch=15 n=68 v=95
42196 On ch=15 n=68 v=0
42210 On ch=15 n=68 v=95
42226 On ch=15 n=68 v=0
42240 On ch=15 n=68 v=95
42256 On ch=15 n=68 v=0
42270 On ch=15 n=68 v=97
42289 On ch=15 n=68 v=0
42300 On ch=15 n=68 v=97
42318 On ch=15 n=68 v=0
42330 On ch=15 n=68 v=93
42350 On ch=15 n=68 v=0
42360 On ch=15 n=68 v=93
42380 On ch=15 n=68 v=0
42390 On ch=15 n=68 v=82
42410 On ch=15 n=68 v=0
42420 On ch=15 n=68 v=89
42438 On ch=15 n=68 v=0
42450 On ch=15 n=68 v=88
42470 On ch=15 n=68 v=0
42480 On ch=15 n=68 v=92
42497 On ch=15 n=68 v=0
42510 On ch=15 n=68 v=86
42529 On ch=15 n=68 v=0
42540 On ch=15 n=68 v=90
42558 On ch=15 n=68 v=0
42570 On ch=15 n=68 v=86
42591 On ch=15 n=68 v=0
42600 On ch=15 n=68 v=93
42621 On ch=15 n=68 v=0
42630 On ch=15 n=68 v=97
42652 On ch=15 n=68 v=0
42660 On ch=15 n=68 v=95
42676 On ch=15 n=68 v=0
42690 On ch=15 n=68 v=95
42706 On ch=15 n=68 v=0
42720 On ch=15 n=68 v=95
42736 On ch=15 n=68 v=0
42750 On ch=15 n=68 v=97
42769 On ch=15 n=68 v=0
42780 On ch=15 n=68 v=97
42798 On ch=15 n=68 v=0
42810 On ch=15 n=68 v=93
42830 On ch=15 n=68 v=0
42840 On ch=15 n=68 v=93
42860 On ch=15 n=68 v=0
42870 On ch=15 n=68 v=82
42890 On ch=15 n=68 v=0
42900 On ch=15 n=68 v=89
42918 On ch=15 n=68 v=0
42930 On ch=15 n=68 v=88
42950 On ch=15 n=68 v=0
42960 On ch=15 n=68 v=92
42977 On ch=15 n=68 v=0
42990 On ch=15 n=68 v=86
43009 On ch=15 n=68 v=0
43020 On ch=15 n=68 v=90
43038 On ch=15 n=68 v=0
43050 On ch=15 n=68 v=86
43071 On ch=15 n=68 v=0
43080 On ch=15 n=68 v=93
43101 On ch=15 n=68 v=0
43110 On ch=15 n=68 v=97
43132 On ch=15 n=68 v=0
43140 On ch=15 n=68 v=95
43156 On ch=15 n=68 v=0
43170 On ch=15 n=68 v=95
43186 On ch=15 n=68 v=0
43186 Meta TrkEnd
TrkEnd
MTrk
0 Meta TrkName "Sawtooth bend"
0 PrCh ch=16 p=81
0 Par ch=16 c=7 v=127
480 Par ch=16 c=91 v=90
480 Par ch=16 c=93 v=30
480 Par ch=16 c=6 v=49
480 Par ch=16 c=101 v=0
481 Par ch=16 c=100 v=0
482 Par ch=16 c=6 v=24
483 Par ch=16 c=38 v=0
49440 On ch=16 n=65 v=69
49440 On ch=16 n=53 v=77
49713 Pb ch=16 v=8322
49738 Pb ch=16 v=8452
49749 Pb ch=16 v=8582
49782 Pb ch=16 v=8712
49797 Pb ch=16 v=8842
49826 Pb ch=16 v=8972
49878 Pb ch=16 v=9102
49916 Pb ch=16 v=9232
49955 Pb ch=16 v=9362
49972 Pb ch=16 v=9492
49995 Pb ch=16 v=9622
50022 Pb ch=16 v=9752
50030 Pb ch=16 v=9882
50058 Pb ch=16 v=10012
50095 Pb ch=16 v=10142
50133 Pb ch=16 v=10272
50156 Pb ch=16 v=10402
50166 Pb ch=16 v=10532
50189 Pb ch=16 v=10662
50219 Pb ch=16 v=10792
50239 Pb ch=16 v=10922
50272 Pb ch=16 v=11052
50300 Pb ch=16 v=11312
50315 Pb ch=16 v=11442
50337 Pb ch=16 v=11572
50362 Pb ch=16 v=11702
50398 Pb ch=16 v=11832
50444 Pb ch=16 v=11962
50473 Pb ch=16 v=12092
50494 Pb ch=16 v=12222
50513 Pb ch=16 v=12352
50536 Pb ch=16 v=12612
50561 Pb ch=16 v=12742
50609 Pb ch=16 v=12872
50649 Pb ch=16 v=13002
50661 Pb ch=16 v=13132
50684 Pb ch=16 v=13262
50705 Pb ch=16 v=13392
50718 Pb ch=16 v=13522
50753 Pb ch=16 v=13652
50793 Pb ch=16 v=13782
50818 Pb ch=16 v=13912
50836 Pb ch=16 v=14042
50849 Pb ch=16 v=14172
50861 Pb ch=16 v=14302
50884 Pb ch=16 v=14432
50895 Pb ch=16 v=14562
50910 Pb ch=16 v=14692
50922 Pb ch=16 v=14822
50937 Pb ch=16 v=14952
50945 Pb ch=16 v=15082
50970 Pb ch=16 v=15212
50999 Pb ch=16 v=15342
51024 Pb ch=16 v=15602
51043 Pb ch=16 v=15732
51050 Pb ch=16 v=15862
51060 Pb ch=16 v=15992
51078 Pb ch=16 v=16122
51085 Pb ch=16 v=16382
51343 On ch=16 n=53 v=0
51345 On ch=16 n=65 v=0
51365 Pb ch=16 v=14822
51367 Pb ch=16 v=10142
51369 Pb ch=16 v=6912
51371 Pb ch=16 v=4736
51373 Pb ch=16 v=5632
51375 Pb ch=16 v=8192
51377 Pb ch=16 v=9882
51379 Pb ch=16 v=10532
51381 Pb ch=16 v=9102
51383 Pb ch=16 v=8192
51388 Pb ch=16 v=8842
51390 Pb ch=16 v=8322
51392 Pb ch=16 v=8192
51394 Pb ch=16 v=8322
51396 Pb ch=16 v=8192
51657 Pb ch=16 v=15472
51659 Pb ch=16 v=14822
51661 Pb ch=16 v=14042
51663 Pb ch=16 v=13132
51666 Pb ch=16 v=12092
51667 Pb ch=16 v=10662
51669 Pb ch=16 v=8452
51672 Pb ch=16 v=8192
51674 Pb ch=16 v=8192
51676 Pb ch=16 v=8972
51678 Pb ch=16 v=8582
51680 Pb ch=16 v=8192
51682 Pb ch=16 v=8452
51684 Pb ch=16 v=8192
51687 Pb ch=16 v=8322
51689 Pb ch=16 v=8192
60005 Pb ch=16 v=14822
60007 Pb ch=16 v=10142
60009 Pb ch=16 v=6912
60011 Pb ch=16 v=4736
60013 Pb ch=16 v=5632
60015 Pb ch=16 v=8192
60017 Pb ch=16 v=9882
60019 Pb ch=16 v=10532
60021 Pb ch=16 v=9102
60023 Pb ch=16 v=8192
60028 Pb ch=16 v=8842
60030 Pb ch=16 v=8322
60032 Pb ch=16 v=8192
60034 Pb ch=16 v=8322
60036 Pb ch=16 v=8192
60297 Pb ch=16 v=15472
60299 Pb ch=16 v=14822
60301 Pb ch=16 v=14042
60303 Pb ch=16 v=13132
60306 Pb ch=16 v=12092
60307 Pb ch=16 v=10662
60309 Pb ch=16 v=8452
60312 Pb ch=16 v=8192
60314 Pb ch=16 v=8192
60316 Pb ch=16 v=8972
60318 Pb ch=16 v=8582
60320 Pb ch=16 v=8192
60322 Pb ch=16 v=8452
60324 Pb ch=16 v=8192
60327 Pb ch=16 v=8322
60329 Pb ch=16 v=8192
60329 Meta TrkEnd
TrkEnd
MTrk
0 Meta TrkName "Kick 2"
0 Par ch=10 c=0 v=0
0 Par ch=10 c=7 v=120
1 PrCh ch=10 p=8
480 Par ch=10 c=91 v=30
480 On ch=10 n=35 v=127
510 On ch=10 n=35 v=0
600 On ch=10 n=35 v=127
629 On ch=10 n=35 v=0
720 On ch=10 n=35 v=127
750 On ch=10 n=35 v=0
840 On ch=10 n=35 v=127
872 On ch=10 n=35 v=0
960 On ch=10 n=35 v=127
990 On ch=10 n=35 v=0
1080 On ch=10 n=35 v=127
1109 On ch=10 n=35 v=0
1200 On ch=10 n=35 v=127
1230 On ch=10 n=35 v=0
1320 On ch=10 n=35 v=127
1352 On ch=10 n=35 v=0
1440 On ch=10 n=35 v=127
1470 On ch=10 n=35 v=0
1560 On ch=10 n=35 v=127
1589 On ch=10 n=35 v=0
1680 On ch=10 n=35 v=127
1710 On ch=10 n=35 v=0
1800 On ch=10 n=35 v=127
1832 On ch=10 n=35 v=0
1920 On ch=10 n=35 v=127
1950 On ch=10 n=35 v=0
2040 On ch=10 n=35 v=127
2069 On ch=10 n=35 v=0
2160 On ch=10 n=35 v=127
2190 On ch=10 n=35 v=0
2280 On ch=10 n=35 v=127
2312 On ch=10 n=35 v=0
2400 On ch=10 n=35 v=127
2430 On ch=10 n=35 v=0
2520 On ch=10 n=35 v=127
2549 On ch=10 n=35 v=0
2640 On ch=10 n=35 v=127
2670 On ch=10 n=35 v=0
2760 On ch=10 n=35 v=127
2792 On ch=10 n=35 v=0
2880 On ch=10 n=35 v=127
2910 On ch=10 n=35 v=0
3000 On ch=10 n=35 v=127
3029 On ch=10 n=35 v=0
3120 On ch=10 n=35 v=127
3150 On ch=10 n=35 v=0
3240 On ch=10 n=35 v=127
3272 On ch=10 n=35 v=0
3360 On ch=10 n=35 v=127
3390 On ch=10 n=35 v=0
3480 On ch=10 n=35 v=127
3509 On ch=10 n=35 v=0
3600 On ch=10 n=35 v=127
3630 On ch=10 n=35 v=0
3720 On ch=10 n=35 v=127
3752 On ch=10 n=35 v=0
3840 On ch=10 n=35 v=127
3870 On ch=10 n=35 v=0
3960 On ch=10 n=35 v=127
3989 On ch=10 n=35 v=0
4080 On ch=10 n=35 v=127
4110 On ch=10 n=35 v=0
4200 On ch=10 n=35 v=127
4232 On ch=10 n=35 v=0
15840 On ch=10 n=35 v=127
15870 On ch=10 n=35 v=0
15960 On ch=10 n=35 v=127
15989 On ch=10 n=35 v=0
16080 On ch=10 n=35 v=127
16110 On ch=10 n=35 v=0
16200 On ch=10 n=35 v=127
16232 On ch=10 n=35 v=0
16320 On ch=10 n=35 v=127
16350 On ch=10 n=35 v=0
16440 On ch=10 n=35 v=127
16469 On ch=10 n=35 v=0
16560 On ch=10 n=35 v=127
16590 On ch=10 n=35 v=0
16680 On ch=10 n=35 v=127
16712 On ch=10 n=35 v=0
16800 On ch=10 n=35 v=127
16830 On ch=10 n=35 v=0
16920 On ch=10 n=35 v=127
16949 On ch=10 n=35 v=0
17040 On ch=10 n=35 v=127
17070 On ch=10 n=35 v=0
17160 On ch=10 n=35 v=127
17192 On ch=10 n=35 v=0
17280 On ch=10 n=35 v=127
17310 On ch=10 n=35 v=0
17400 On ch=10 n=35 v=127
17429 On ch=10 n=35 v=0
17520 On ch=10 n=35 v=127
17550 On ch=10 n=35 v=0
17760 On ch=10 n=35 v=127
17790 On ch=10 n=35 v=0
17880 On ch=10 n=35 v=127
17909 On ch=10 n=35 v=0
18000 On ch=10 n=35 v=127
18030 On ch=10 n=35 v=0
18120 On ch=10 n=35 v=127
18152 On ch=10 n=35 v=0
18240 On ch=10 n=35 v=127
18270 On ch=10 n=35 v=0
18360 On ch=10 n=35 v=127
18389 On ch=10 n=35 v=0
18480 On ch=10 n=35 v=127
18510 On ch=10 n=35 v=0
18600 On ch=10 n=35 v=127
18632 On ch=10 n=35 v=0
18720 On ch=10 n=35 v=127
18750 On ch=10 n=35 v=0
18840 On ch=10 n=35 v=127
18869 On ch=10 n=35 v=0
18960 On ch=10 n=35 v=127
18990 On ch=10 n=35 v=0
19080 On ch=10 n=35 v=127
19112 On ch=10 n=35 v=0
19680 On ch=10 n=35 v=127
19710 On ch=10 n=35 v=0
19800 On ch=10 n=35 v=127
19829 On ch=10 n=35 v=0
19920 On ch=10 n=35 v=127
19950 On ch=10 n=35 v=0
20040 On ch=10 n=35 v=127
20072 On ch=10 n=35 v=0
20160 On ch=10 n=35 v=127
20190 On ch=10 n=35 v=0
20280 On ch=10 n=35 v=127
20309 On ch=10 n=35 v=0
20400 On ch=10 n=35 v=127
20430 On ch=10 n=35 v=0
20520 On ch=10 n=35 v=127
20552 On ch=10 n=35 v=0
20640 On ch=10 n=35 v=127
20670 On ch=10 n=35 v=0
20760 On ch=10 n=35 v=127
20789 On ch=10 n=35 v=0
20880 On ch=10 n=35 v=127
20910 On ch=10 n=35 v=0
21000 On ch=10 n=35 v=127
21032 On ch=10 n=35 v=0
21120 On ch=10 n=35 v=127
21150 On ch=10 n=35 v=0
21240 On ch=10 n=35 v=127
21269 On ch=10 n=35 v=0
21360 On ch=10 n=35 v=127
21390 On ch=10 n=35 v=0
21480 On ch=10 n=35 v=127
21512 On ch=10 n=35 v=0
21600 On ch=10 n=35 v=127
21630 On ch=10 n=35 v=0
21720 On ch=10 n=35 v=127
21749 On ch=10 n=35 v=0
21840 On ch=10 n=35 v=127
21870 On ch=10 n=35 v=0
21960 On ch=10 n=35 v=127
21992 On ch=10 n=35 v=0
22080 On ch=10 n=35 v=127
22110 On ch=10 n=35 v=0
22200 On ch=10 n=35 v=127
22229 On ch=10 n=35 v=0
22320 On ch=10 n=35 v=127
22350 On ch=10 n=35 v=0
22440 On ch=10 n=35 v=127
22472 On ch=10 n=35 v=0
22560 On ch=10 n=35 v=127
22590 On ch=10 n=35 v=0
22680 On ch=10 n=35 v=127
22709 On ch=10 n=35 v=0
22800 On ch=10 n=35 v=127
22830 On ch=10 n=35 v=0
22920 On ch=10 n=35 v=127
22952 On ch=10 n=35 v=0
23040 On ch=10 n=35 v=127
23072 On ch=10 n=35 v=0
23520 On ch=10 n=35 v=127
23550 On ch=10 n=35 v=0
23640 On ch=10 n=35 v=127
23669 On ch=10 n=35 v=0
23760 On ch=10 n=35 v=127
23790 On ch=10 n=35 v=0
23880 On ch=10 n=35 v=127
23912 On ch=10 n=35 v=0
24000 On ch=10 n=35 v=127
24030 On ch=10 n=35 v=0
24120 On ch=10 n=35 v=127
24149 On ch=10 n=35 v=0
24240 On ch=10 n=35 v=127
24270 On ch=10 n=35 v=0
24360 On ch=10 n=35 v=127
24392 On ch=10 n=35 v=0
24480 On ch=10 n=35 v=127
24510 On ch=10 n=35 v=0
24600 On ch=10 n=35 v=127
24629 On ch=10 n=35 v=0
24720 On ch=10 n=35 v=127
24750 On ch=10 n=35 v=0
24840 On ch=10 n=35 v=127
24872 On ch=10 n=35 v=0
24960 On ch=10 n=35 v=127
24990 On ch=10 n=35 v=0
25080 On ch=10 n=35 v=127
25109 On ch=10 n=35 v=0
25200 On ch=10 n=35 v=127
25230 On ch=10 n=35 v=0
25320 On ch=10 n=35 v=127
25352 On ch=10 n=35 v=0
25440 On ch=10 n=35 v=127
25470 On ch=10 n=35 v=0
25560 On ch=10 n=35 v=127
25589 On ch=10 n=35 v=0
25680 On ch=10 n=35 v=127
25710 On ch=10 n=35 v=0
25800 On ch=10 n=35 v=127
25832 On ch=10 n=35 v=0
25920 On ch=10 n=35 v=127
25950 On ch=10 n=35 v=0
26040 On ch=10 n=35 v=127
26069 On ch=10 n=35 v=0
26160 On ch=10 n=35 v=127
26190 On ch=10 n=35 v=0
26280 On ch=10 n=35 v=127
26312 On ch=10 n=35 v=0
31200 On ch=10 n=35 v=127
31230 On ch=10 n=35 v=0
31320 On ch=10 n=35 v=127
31349 On ch=10 n=35 v=0
31440 On ch=10 n=35 v=127
31470 On ch=10 n=35 v=0
31560 On ch=10 n=35 v=127
31592 On ch=10 n=35 v=0
31680 On ch=10 n=35 v=127
31710 On ch=10 n=35 v=0
31800 On ch=10 n=35 v=127
31829 On ch=10 n=35 v=0
31920 On ch=10 n=35 v=127
31950 On ch=10 n=35 v=0
32040 On ch=10 n=35 v=127
32072 On ch=10 n=35 v=0
32160 On ch=10 n=35 v=127
32190 On ch=10 n=35 v=0
32280 On ch=10 n=35 v=127
32309 On ch=10 n=35 v=0
32400 On ch=10 n=35 v=127
32430 On ch=10 n=35 v=0
32520 On ch=10 n=35 v=127
32552 On ch=10 n=35 v=0
32640 On ch=10 n=35 v=127
32670 On ch=10 n=35 v=0
32760 On ch=10 n=35 v=127
32789 On ch=10 n=35 v=0
32880 On ch=10 n=35 v=127
32910 On ch=10 n=35 v=0
33000 On ch=10 n=35 v=127
33032 On ch=10 n=35 v=0
33120 On ch=10 n=35 v=127
33150 On ch=10 n=35 v=0
33240 On ch=10 n=35 v=127
33269 On ch=10 n=35 v=0
33360 On ch=10 n=35 v=127
33390 On ch=10 n=35 v=0
33480 On ch=10 n=35 v=127
33512 On ch=10 n=35 v=0
33600 On ch=10 n=35 v=127
33630 On ch=10 n=35 v=0
33720 On ch=10 n=35 v=127
33749 On ch=10 n=35 v=0
33840 On ch=10 n=35 v=127
33870 On ch=10 n=35 v=0
33960 On ch=10 n=35 v=127
33992 On ch=10 n=35 v=0
34080 On ch=10 n=35 v=127
34110 On ch=10 n=35 v=0
34200 On ch=10 n=35 v=127
34229 On ch=10 n=35 v=0
34320 On ch=10 n=35 v=127
34350 On ch=10 n=35 v=0
34440 On ch=10 n=35 v=127
34472 On ch=10 n=35 v=0
36000 On ch=10 n=35 v=127
36030 On ch=10 n=35 v=0
36120 On ch=10 n=35 v=127
36149 On ch=10 n=35 v=0
36240 On ch=10 n=35 v=127
36270 On ch=10 n=35 v=0
36360 On ch=10 n=35 v=127
36392 On ch=10 n=35 v=0
36480 On ch=10 n=35 v=127
36510 On ch=10 n=35 v=0
36600 On ch=10 n=35 v=127
36629 On ch=10 n=35 v=0
36720 On ch=10 n=35 v=127
36750 On ch=10 n=35 v=0
36840 On ch=10 n=35 v=127
36872 On ch=10 n=35 v=0
36960 On ch=10 n=35 v=127
36990 On ch=10 n=35 v=0
37080 On ch=10 n=35 v=127
37109 On ch=10 n=35 v=0
37200 On ch=10 n=35 v=127
37230 On ch=10 n=35 v=0
37320 On ch=10 n=35 v=127
37352 On ch=10 n=35 v=0
37440 On ch=10 n=35 v=127
37470 On ch=10 n=35 v=0
37560 On ch=10 n=35 v=127
37589 On ch=10 n=35 v=0
37680 On ch=10 n=35 v=127
37710 On ch=10 n=35 v=0
37920 On ch=10 n=35 v=127
37950 On ch=10 n=35 v=0
38040 On ch=10 n=35 v=127
38069 On ch=10 n=35 v=0
38160 On ch=10 n=35 v=127
38190 On ch=10 n=35 v=0
38280 On ch=10 n=35 v=127
38312 On ch=10 n=35 v=0
38400 On ch=10 n=35 v=127
38430 On ch=10 n=35 v=0
38520 On ch=10 n=35 v=127
38549 On ch=10 n=35 v=0
38640 On ch=10 n=35 v=127
38670 On ch=10 n=35 v=0
38760 On ch=10 n=35 v=127
38792 On ch=10 n=35 v=0
38880 On ch=10 n=35 v=127
38910 On ch=10 n=35 v=0
39000 On ch=10 n=35 v=127
39029 On ch=10 n=35 v=0
39120 On ch=10 n=35 v=127
39150 On ch=10 n=35 v=0
39240 On ch=10 n=35 v=127
39272 On ch=10 n=35 v=0
39360 On ch=10 n=35 v=127
39390 On ch=10 n=35 v=0
39480 On ch=10 n=35 v=127
39509 On ch=10 n=35 v=0
39600 On ch=10 n=35 v=127
39630 On ch=10 n=35 v=0
39840 On ch=10 n=35 v=120
39862 On ch=10 n=35 v=0
41760 On ch=10 n=35 v=120
41782 On ch=10 n=35 v=0
41850 On ch=10 n=35 v=114
41865 On ch=10 n=35 v=0
41880 On ch=10 n=35 v=103
41900 On ch=10 n=35 v=0
41940 On ch=10 n=35 v=120
41960 On ch=10 n=35 v=0
42060 On ch=10 n=35 v=117
42079 On ch=10 n=35 v=0
42150 On ch=10 n=35 v=122
42172 On ch=10 n=35 v=0
42240 On ch=10 n=35 v=120
42262 On ch=10 n=35 v=0
42330 On ch=10 n=35 v=114
42345 On ch=10 n=35 v=0
42360 On ch=10 n=35 v=103
42380 On ch=10 n=35 v=0
42420 On ch=10 n=35 v=120
42440 On ch=10 n=35 v=0
42540 On ch=10 n=35 v=117
42559 On ch=10 n=35 v=0
42630 On ch=10 n=35 v=122
42652 On ch=10 n=35 v=0
42720 On ch=10 n=35 v=120
42742 On ch=10 n=35 v=0
42810 On ch=10 n=35 v=114
42825 On ch=10 n=35 v=0
42840 On ch=10 n=35 v=103
42860 On ch=10 n=35 v=0
42900 On ch=10 n=35 v=120
42920 On ch=10 n=35 v=0
43020 On ch=10 n=35 v=117
43039 On ch=10 n=35 v=0
43110 On ch=10 n=35 v=122
43132 On ch=10 n=35 v=0
45600 On ch=10 n=35 v=127
45629 On ch=10 n=35 v=0
46560 On ch=10 n=35 v=127
46589 On ch=10 n=35 v=0
47520 On ch=10 n=35 v=127
47549 On ch=10 n=35 v=0
51360 On ch=10 n=35 v=127
51390 On ch=10 n=35 v=0
51480 On ch=10 n=35 v=127
51509 On ch=10 n=35 v=0
51600 On ch=10 n=35 v=127
51630 On ch=10 n=35 v=0
51720 On ch=10 n=35 v=127
51752 On ch=10 n=35 v=0
51840 On ch=10 n=35 v=127
51870 On ch=10 n=35 v=0
51960 On ch=10 n=35 v=127
51989 On ch=10 n=35 v=0
52080 On ch=10 n=35 v=127
52110 On ch=10 n=35 v=0
52200 On ch=10 n=35 v=127
52232 On ch=10 n=35 v=0
52320 On ch=10 n=35 v=127
52350 On ch=10 n=35 v=0
52440 On ch=10 n=35 v=127
52469 On ch=10 n=35 v=0
52560 On ch=10 n=35 v=127
52590 On ch=10 n=35 v=0
52680 On ch=10 n=35 v=127
52712 On ch=10 n=35 v=0
52800 On ch=10 n=35 v=127
52830 On ch=10 n=35 v=0
52920 On ch=10 n=35 v=127
52949 On ch=10 n=35 v=0
53040 On ch=10 n=35 v=127
53070 On ch=10 n=35 v=0
53160 On ch=10 n=35 v=127
53192 On ch=10 n=35 v=0
53280 On ch=10 n=35 v=127
53310 On ch=10 n=35 v=0
53400 On ch=10 n=35 v=127
53429 On ch=10 n=35 v=0
53520 On ch=10 n=35 v=127
53550 On ch=10 n=35 v=0
53640 On ch=10 n=35 v=127
53672 On ch=10 n=35 v=0
53760 On ch=10 n=35 v=127
53790 On ch=10 n=35 v=0
53880 On ch=10 n=35 v=127
53909 On ch=10 n=35 v=0
54000 On ch=10 n=35 v=127
54030 On ch=10 n=35 v=0
54120 On ch=10 n=35 v=127
54152 On ch=10 n=35 v=0
54240 On ch=10 n=35 v=127
54270 On ch=10 n=35 v=0
54360 On ch=10 n=35 v=127
54389 On ch=10 n=35 v=0
54480 On ch=10 n=35 v=127
54510 On ch=10 n=35 v=0
54600 On ch=10 n=35 v=127
54632 On ch=10 n=35 v=0
54720 On ch=10 n=35 v=127
54750 On ch=10 n=35 v=0
54840 On ch=10 n=35 v=127
54869 On ch=10 n=35 v=0
54960 On ch=10 n=35 v=127
54990 On ch=10 n=35 v=0
55080 On ch=10 n=35 v=127
55112 On ch=10 n=35 v=0
55200 On ch=10 n=35 v=127
55230 On ch=10 n=35 v=0
55320 On ch=10 n=35 v=127
55349 On ch=10 n=35 v=0
55440 On ch=10 n=35 v=127
55470 On ch=10 n=35 v=0
55560 On ch=10 n=35 v=127
55592 On ch=10 n=35 v=0
55680 On ch=10 n=35 v=127
55710 On ch=10 n=35 v=0
55800 On ch=10 n=35 v=127
55829 On ch=10 n=35 v=0
55920 On ch=10 n=35 v=127
55950 On ch=10 n=35 v=0
56040 On ch=10 n=35 v=127
56072 On ch=10 n=35 v=0
56160 On ch=10 n=35 v=127
56190 On ch=10 n=35 v=0
56280 On ch=10 n=35 v=127
56309 On ch=10 n=35 v=0
56400 On ch=10 n=35 v=127
56430 On ch=10 n=35 v=0
56520 On ch=10 n=35 v=127
56552 On ch=10 n=35 v=0
56640 On ch=10 n=35 v=127
56670 On ch=10 n=35 v=0
56760 On ch=10 n=35 v=127
56789 On ch=10 n=35 v=0
56880 On ch=10 n=35 v=127
56910 On ch=10 n=35 v=0
57000 On ch=10 n=35 v=127
57032 On ch=10 n=35 v=0
57120 On ch=10 n=35 v=127
57150 On ch=10 n=35 v=0
57240 On ch=10 n=35 v=127
57269 On ch=10 n=35 v=0
57360 On ch=10 n=35 v=127
57390 On ch=10 n=35 v=0
57480 On ch=10 n=35 v=127
57512 On ch=10 n=35 v=0
57600 On ch=10 n=35 v=127
57630 On ch=10 n=35 v=0
57720 On ch=10 n=35 v=127
57749 On ch=10 n=35 v=0
57840 On ch=10 n=35 v=127
57870 On ch=10 n=35 v=0
57960 On ch=10 n=35 v=127
57992 On ch=10 n=35 v=0
58080 On ch=10 n=35 v=127
58110 On ch=10 n=35 v=0
58200 On ch=10 n=35 v=127
58229 On ch=10 n=35 v=0
58320 On ch=10 n=35 v=127
58350 On ch=10 n=35 v=0
58440 On ch=10 n=35 v=127
58472 On ch=10 n=35 v=0
58560 On ch=10 n=35 v=127
58590 On ch=10 n=35 v=0
58680 On ch=10 n=35 v=127
58709 On ch=10 n=35 v=0
58800 On ch=10 n=35 v=127
58830 On ch=10 n=35 v=0
58920 On ch=10 n=35 v=127
58952 On ch=10 n=35 v=0
59040 On ch=10 n=35 v=127
59070 On ch=10 n=35 v=0
59160 On ch=10 n=35 v=127
59189 On ch=10 n=35 v=0
59280 On ch=10 n=35 v=127
59310 On ch=10 n=35 v=0
59400 On ch=10 n=35 v=127
59432 On ch=10 n=35 v=0
59520 On ch=10 n=35 v=127
59550 On ch=10 n=35 v=0
59640 On ch=10 n=35 v=127
59669 On ch=10 n=35 v=0
59760 On ch=10 n=35 v=127
59790 On ch=10 n=35 v=0
59880 On ch=10 n=35 v=127
59912 On ch=10 n=35 v=0
60000 On ch=10 n=35 v=127
60030 On ch=10 n=35 v=0
60120 On ch=10 n=35 v=127
60149 On ch=10 n=35 v=0
60240 On ch=10 n=35 v=127
60270 On ch=10 n=35 v=0
60360 On ch=10 n=35 v=127
60392 On ch=10 n=35 v=0
60480 On ch=10 n=35 v=127
60510 On ch=10 n=35 v=0
60600 On ch=10 n=35 v=127
60629 On ch=10 n=35 v=0
60720 On ch=10 n=35 v=127
60750 On ch=10 n=35 v=0
60840 On ch=10 n=35 v=127
60872 On ch=10 n=35 v=0
60960 On ch=10 n=35 v=127
60990 On ch=10 n=35 v=0
61080 On ch=10 n=35 v=127
61109 On ch=10 n=35 v=0
61200 On ch=10 n=35 v=127
61230 On ch=10 n=35 v=0
61320 On ch=10 n=35 v=127
61352 On ch=10 n=35 v=0
61440 On ch=10 n=35 v=127
61470 On ch=10 n=35 v=0
61560 On ch=10 n=35 v=127
61589 On ch=10 n=35 v=0
61680 On ch=10 n=35 v=127
61710 On ch=10 n=35 v=0
61800 On ch=10 n=35 v=127
61832 On ch=10 n=35 v=0
61920 On ch=10 n=35 v=127
61950 On ch=10 n=35 v=0
62040 On ch=10 n=35 v=127
62069 On ch=10 n=35 v=0
62160 On ch=10 n=35 v=127
62190 On ch=10 n=35 v=0
62280 On ch=10 n=35 v=127
62312 On ch=10 n=35 v=0
62400 On ch=10 n=35 v=127
62430 On ch=10 n=35 v=0
62520 On ch=10 n=35 v=127
62549 On ch=10 n=35 v=0
62640 On ch=10 n=35 v=127
62670 On ch=10 n=35 v=0
62760 On ch=10 n=35 v=127
62792 On ch=10 n=35 v=0
62880 On ch=10 n=35 v=127
62910 On ch=10 n=35 v=0
63000 On ch=10 n=35 v=127
63029 On ch=10 n=35 v=0
63120 On ch=10 n=35 v=127
63150 On ch=10 n=35 v=0
63240 On ch=10 n=35 v=127
63272 On ch=10 n=35 v=0
63360 On ch=10 n=35 v=127
63390 On ch=10 n=35 v=0
63480 On ch=10 n=35 v=127
63509 On ch=10 n=35 v=0
63600 On ch=10 n=35 v=127
63630 On ch=10 n=35 v=0
63720 On ch=10 n=35 v=127
63752 On ch=10 n=35 v=0
63840 On ch=10 n=35 v=127
63870 On ch=10 n=35 v=0
63960 On ch=10 n=35 v=127
63989 On ch=10 n=35 v=0
64080 On ch=10 n=35 v=127
64110 On ch=10 n=35 v=0
64200 On ch=10 n=35 v=127
64232 On ch=10 n=35 v=0
64320 On ch=10 n=35 v=127
64350 On ch=10 n=35 v=0
64440 On ch=10 n=35 v=127
64469 On ch=10 n=35 v=0
64560 On ch=10 n=35 v=127
64590 On ch=10 n=35 v=0
64680 On ch=10 n=35 v=127
64712 On ch=10 n=35 v=0
64800 On ch=10 n=35 v=127
64830 On ch=10 n=35 v=0
64920 On ch=10 n=35 v=127
64949 On ch=10 n=35 v=0
65040 On ch=10 n=35 v=127
65070 On ch=10 n=35 v=0
65160 On ch=10 n=35 v=127
65192 On ch=10 n=35 v=0
65280 On ch=10 n=35 v=127
65310 On ch=10 n=35 v=0
65400 On ch=10 n=35 v=127
65429 On ch=10 n=35 v=0
65520 On ch=10 n=35 v=127
65550 On ch=10 n=35 v=0
65640 On ch=10 n=35 v=127
65672 On ch=10 n=35 v=0
65760 On ch=10 n=35 v=127
65790 On ch=10 n=35 v=0
65880 On ch=10 n=35 v=127
65909 On ch=10 n=35 v=0
66000 On ch=10 n=35 v=127
66030 On ch=10 n=35 v=0
66120 On ch=10 n=35 v=127
66152 On ch=10 n=35 v=0
66240 On ch=10 n=35 v=127
66270 On ch=10 n=35 v=0
66360 On ch=10 n=35 v=127
66389 On ch=10 n=35 v=0
66480 On ch=10 n=35 v=127
66510 On ch=10 n=35 v=0
66600 On ch=10 n=35 v=127
66632 On ch=10 n=35 v=0
66720 On ch=10 n=35 v=127
66750 On ch=10 n=35 v=0
66840 On ch=10 n=35 v=127
66869 On ch=10 n=35 v=0
66960 On ch=10 n=35 v=127
66990 On ch=10 n=35 v=0
67080 On ch=10 n=35 v=127
67112 On ch=10 n=35 v=0
67200 On ch=10 n=35 v=127
67213 On ch=10 n=35 v=0
67260 On ch=10 n=35 v=127
67280 On ch=10 n=35 v=0
67320 On ch=10 n=35 v=127
67337 On ch=10 n=35 v=0
67350 On ch=10 n=35 v=127
67370 On ch=10 n=35 v=0
67410 On ch=10 n=35 v=127
67427 On ch=10 n=35 v=0
67427 Meta TrkEnd
TrkEnd
MTrk
0 Meta TrkName "Snare 2"
0 Par ch=10 c=0 v=0
1 PrCh ch=10 p=8
15960 On ch=10 n=38 v=120
15987 On ch=10 n=38 v=0
16200 On ch=10 n=38 v=120
16223 On ch=10 n=38 v=0
16440 On ch=10 n=38 v=120
16464 On ch=10 n=38 v=0
16680 On ch=10 n=38 v=120
16702 On ch=10 n=38 v=0
16920 On ch=10 n=38 v=120
16944 On ch=10 n=38 v=0
17160 On ch=10 n=38 v=120
17181 On ch=10 n=38 v=0
17400 On ch=10 n=38 v=120
17421 On ch=10 n=38 v=0
17880 On ch=10 n=38 v=120
17902 On ch=10 n=38 v=0
18120 On ch=10 n=38 v=120
18143 On ch=10 n=38 v=0
18360 On ch=10 n=38 v=120
18382 On ch=10 n=38 v=0
18600 On ch=10 n=38 v=120
18624 On ch=10 n=38 v=0
18840 On ch=10 n=38 v=120
18862 On ch=10 n=38 v=0
19080 On ch=10 n=38 v=120
19099 On ch=10 n=38 v=0
19800 On ch=10 n=38 v=120
19822 On ch=10 n=38 v=0
20040 On ch=10 n=38 v=120
20059 On ch=10 n=38 v=0
20280 On ch=10 n=38 v=120
20302 On ch=10 n=38 v=0
20520 On ch=10 n=38 v=120
20539 On ch=10 n=38 v=0
20760 On ch=10 n=38 v=120
20782 On ch=10 n=38 v=0
21000 On ch=10 n=38 v=120
21019 On ch=10 n=38 v=0
21240 On ch=10 n=38 v=120
21262 On ch=10 n=38 v=0
21480 On ch=10 n=38 v=120
21499 On ch=10 n=38 v=0
21720 On ch=10 n=38 v=120
21742 On ch=10 n=38 v=0
21960 On ch=10 n=38 v=120
21979 On ch=10 n=38 v=0
22200 On ch=10 n=38 v=120
22222 On ch=10 n=38 v=0
22440 On ch=10 n=38 v=120
22459 On ch=10 n=38 v=0
22680 On ch=10 n=38 v=120
22702 On ch=10 n=38 v=0
22920 On ch=10 n=38 v=120
22939 On ch=10 n=38 v=0
23640 On ch=10 n=38 v=120
23662 On ch=10 n=38 v=0
23880 On ch=10 n=38 v=120
23899 On ch=10 n=38 v=0
24120 On ch=10 n=38 v=120
24142 On ch=10 n=38 v=0
24360 On ch=10 n=38 v=120
24379 On ch=10 n=38 v=0
25560 On ch=10 n=38 v=120
25582 On ch=10 n=38 v=0
25800 On ch=10 n=38 v=120
25819 On ch=10 n=38 v=0
26040 On ch=10 n=38 v=120
26062 On ch=10 n=38 v=0
26280 On ch=10 n=38 v=120
26299 On ch=10 n=38 v=0
31320 On ch=10 n=38 v=120
31342 On ch=10 n=38 v=0
31560 On ch=10 n=38 v=120
31579 On ch=10 n=38 v=0
31800 On ch=10 n=38 v=120
31822 On ch=10 n=38 v=0
32040 On ch=10 n=38 v=120
32059 On ch=10 n=38 v=0
32280 On ch=10 n=38 v=120
32302 On ch=10 n=38 v=0
32520 On ch=10 n=38 v=120
32539 On ch=10 n=38 v=0
32760 On ch=10 n=38 v=120
32782 On ch=10 n=38 v=0
33000 On ch=10 n=38 v=120
33019 On ch=10 n=38 v=0
33240 On ch=10 n=38 v=120
33262 On ch=10 n=38 v=0
33480 On ch=10 n=38 v=120
33499 On ch=10 n=38 v=0
33720 On ch=10 n=38 v=120
33742 On ch=10 n=38 v=0
33960 On ch=10 n=38 v=120
33979 On ch=10 n=38 v=0
34200 On ch=10 n=38 v=120
34222 On ch=10 n=38 v=0
34440 On ch=10 n=38 v=120
34459 On ch=10 n=38 v=0
36120 On ch=10 n=38 v=120
36147 On ch=10 n=38 v=0
36360 On ch=10 n=38 v=120
36383 On ch=10 n=38 v=0
36600 On ch=10 n=38 v=120
36624 On ch=10 n=38 v=0
36840 On ch=10 n=38 v=120
36862 On ch=10 n=38 v=0
37080 On ch=10 n=38 v=120
37104 On ch=10 n=38 v=0
37320 On ch=10 n=38 v=120
37341 On ch=10 n=38 v=0
37560 On ch=10 n=38 v=120
37581 On ch=10 n=38 v=0
38040 On ch=10 n=38 v=120
38067 On ch=10 n=38 v=0
38280 On ch=10 n=38 v=120
38303 On ch=10 n=38 v=0
38520 On ch=10 n=38 v=120
38544 On ch=10 n=38 v=0
38760 On ch=10 n=38 v=120
38782 On ch=10 n=38 v=0
39000 On ch=10 n=38 v=120
39024 On ch=10 n=38 v=0
39240 On ch=10 n=38 v=120
39261 On ch=10 n=38 v=0
39480 On ch=10 n=38 v=120
39501 On ch=10 n=38 v=0
51480 On ch=10 n=38 v=120
51502 On ch=10 n=38 v=0
51720 On ch=10 n=38 v=120
51739 On ch=10 n=38 v=0
51960 On ch=10 n=38 v=120
51982 On ch=10 n=38 v=0
52200 On ch=10 n=38 v=120
52219 On ch=10 n=38 v=0
52440 On ch=10 n=38 v=120
52462 On ch=10 n=38 v=0
52680 On ch=10 n=38 v=120
52699 On ch=10 n=38 v=0
52920 On ch=10 n=38 v=120
52942 On ch=10 n=38 v=0
53160 On ch=10 n=38 v=120
53179 On ch=10 n=38 v=0
53400 On ch=10 n=38 v=120
53422 On ch=10 n=38 v=0
53640 On ch=10 n=38 v=120
53659 On ch=10 n=38 v=0
53880 On ch=10 n=38 v=120
53902 On ch=10 n=38 v=0
54120 On ch=10 n=38 v=120
54139 On ch=10 n=38 v=0
54360 On ch=10 n=38 v=120
54382 On ch=10 n=38 v=0
54600 On ch=10 n=38 v=120
54619 On ch=10 n=38 v=0
54840 On ch=10 n=38 v=120
54862 On ch=10 n=38 v=0
55080 On ch=10 n=38 v=120
55099 On ch=10 n=38 v=0
55320 On ch=10 n=38 v=120
55347 On ch=10 n=38 v=0
55560 On ch=10 n=38 v=120
55583 On ch=10 n=38 v=0
55800 On ch=10 n=38 v=120
55824 On ch=10 n=38 v=0
56040 On ch=10 n=38 v=120
56062 On ch=10 n=38 v=0
56280 On ch=10 n=38 v=120
56304 On ch=10 n=38 v=0
56520 On ch=10 n=38 v=120
56541 On ch=10 n=38 v=0
56760 On ch=10 n=38 v=120
56784 On ch=10 n=38 v=0
57000 On ch=10 n=38 v=120
57021 On ch=10 n=38 v=0
57240 On ch=10 n=38 v=120
57267 On ch=10 n=38 v=0
57480 On ch=10 n=38 v=120
57503 On ch=10 n=38 v=0
57720 On ch=10 n=38 v=120
57744 On ch=10 n=38 v=0
57960 On ch=10 n=38 v=120
57982 On ch=10 n=38 v=0
58200 On ch=10 n=38 v=120
58224 On ch=10 n=38 v=0
58440 On ch=10 n=38 v=120
58461 On ch=10 n=38 v=0
58680 On ch=10 n=38 v=120
58704 On ch=10 n=38 v=0
58920 On ch=10 n=38 v=120
58941 On ch=10 n=38 v=0
60120 On ch=10 n=38 v=120
60142 On ch=10 n=38 v=0
60360 On ch=10 n=38 v=120
60379 On ch=10 n=38 v=0
60600 On ch=10 n=38 v=120
60622 On ch=10 n=38 v=0
60840 On ch=10 n=38 v=120
60859 On ch=10 n=38 v=0
61080 On ch=10 n=38 v=120
61102 On ch=10 n=38 v=0
61320 On ch=10 n=38 v=120
61339 On ch=10 n=38 v=0
61560 On ch=10 n=38 v=120
61582 On ch=10 n=38 v=0
61800 On ch=10 n=38 v=120
61819 On ch=10 n=38 v=0
62040 On ch=10 n=38 v=120
62062 On ch=10 n=38 v=0
62280 On ch=10 n=38 v=120
62299 On ch=10 n=38 v=0
62520 On ch=10 n=38 v=120
62542 On ch=10 n=38 v=0
62760 On ch=10 n=38 v=120
62779 On ch=10 n=38 v=0
63000 On ch=10 n=38 v=120
63022 On ch=10 n=38 v=0
63240 On ch=10 n=38 v=120
63259 On ch=10 n=38 v=0
63480 On ch=10 n=38 v=120
63502 On ch=10 n=38 v=0
63720 On ch=10 n=38 v=120
63739 On ch=10 n=38 v=0
63960 On ch=10 n=38 v=120
63987 On ch=10 n=38 v=0
64200 On ch=10 n=38 v=120
64223 On ch=10 n=38 v=0
64440 On ch=10 n=38 v=120
64464 On ch=10 n=38 v=0
64680 On ch=10 n=38 v=120
64702 On ch=10 n=38 v=0
64920 On ch=10 n=38 v=120
64944 On ch=10 n=38 v=0
65160 On ch=10 n=38 v=120
65181 On ch=10 n=38 v=0
65400 On ch=10 n=38 v=120
65424 On ch=10 n=38 v=0
65640 On ch=10 n=38 v=120
65661 On ch=10 n=38 v=0
65880 On ch=10 n=38 v=120
65907 On ch=10 n=38 v=0
66120 On ch=10 n=38 v=120
66143 On ch=10 n=38 v=0
66360 On ch=10 n=38 v=120
66384 On ch=10 n=38 v=0
66600 On ch=10 n=38 v=120
66622 On ch=10 n=38 v=0
66840 On ch=10 n=38 v=120
66864 On ch=10 n=38 v=0
67080 On ch=10 n=38 v=120
67101 On ch=10 n=38 v=0
67101 Meta TrkEnd
TrkEnd
MTrk
0 Meta TrkName "Open hihat"
0 Par ch=10 c=0 v=0
1 PrCh ch=10 p=8
15900 On ch=10 n=46 v=100
15926 On ch=10 n=46 v=0
16020 On ch=10 n=46 v=100
16049 On ch=10 n=46 v=0
16140 On ch=10 n=46 v=100
16169 On ch=10 n=46 v=0
16260 On ch=10 n=46 v=100
16285 On ch=10 n=46 v=0
16380 On ch=10 n=46 v=100
16406 On ch=10 n=46 v=0
16500 On ch=10 n=46 v=100
16529 On ch=10 n=46 v=0
16620 On ch=10 n=46 v=100
16649 On ch=10 n=46 v=0
16740 On ch=10 n=46 v=100
16765 On ch=10 n=46 v=0
16860 On ch=10 n=46 v=100
16886 On ch=10 n=46 v=0
16980 On ch=10 n=46 v=100
17009 On ch=10 n=46 v=0
17100 On ch=10 n=46 v=100
17129 On ch=10 n=46 v=0
17220 On ch=10 n=46 v=100
17245 On ch=10 n=46 v=0
17340 On ch=10 n=46 v=100
17366 On ch=10 n=46 v=0
17460 On ch=10 n=46 v=100
17489 On ch=10 n=46 v=0
17580 On ch=10 n=46 v=100
17609 On ch=10 n=46 v=0
17700 On ch=10 n=46 v=100
17725 On ch=10 n=46 v=0
17820 On ch=10 n=46 v=100
17846 On ch=10 n=46 v=0
17940 On ch=10 n=46 v=100
17969 On ch=10 n=46 v=0
18060 On ch=10 n=46 v=100
18089 On ch=10 n=46 v=0
18180 On ch=10 n=46 v=100
18205 On ch=10 n=46 v=0
18300 On ch=10 n=46 v=100
18326 On ch=10 n=46 v=0
18420 On ch=10 n=46 v=100
18449 On ch=10 n=46 v=0
18540 On ch=10 n=46 v=100
18569 On ch=10 n=46 v=0
18660 On ch=10 n=46 v=100
18685 On ch=10 n=46 v=0
18780 On ch=10 n=46 v=100
18806 On ch=10 n=46 v=0
18900 On ch=10 n=46 v=100
18929 On ch=10 n=46 v=0
19020 On ch=10 n=46 v=100
19049 On ch=10 n=46 v=0
19140 On ch=10 n=46 v=100
19165 On ch=10 n=46 v=0
23580 On ch=10 n=46 v=100
23606 On ch=10 n=46 v=0
23700 On ch=10 n=46 v=100
23729 On ch=10 n=46 v=0
23820 On ch=10 n=46 v=100
23849 On ch=10 n=46 v=0
23940 On ch=10 n=46 v=100
23965 On ch=10 n=46 v=0
24060 On ch=10 n=46 v=100
24086 On ch=10 n=46 v=0
24180 On ch=10 n=46 v=100
24209 On ch=10 n=46 v=0
24300 On ch=10 n=46 v=100
24329 On ch=10 n=46 v=0
24420 On ch=10 n=46 v=100
24445 On ch=10 n=46 v=0
24540 On ch=10 n=46 v=100
24566 On ch=10 n=46 v=0
24660 On ch=10 n=46 v=100
24689 On ch=10 n=46 v=0
24780 On ch=10 n=46 v=100
24809 On ch=10 n=46 v=0
24900 On ch=10 n=46 v=100
24925 On ch=10 n=46 v=0
25020 On ch=10 n=46 v=100
25046 On ch=10 n=46 v=0
25140 On ch=10 n=46 v=100
25169 On ch=10 n=46 v=0
25260 On ch=10 n=46 v=100
25289 On ch=10 n=46 v=0
25380 On ch=10 n=46 v=100
25405 On ch=10 n=46 v=0
25500 On ch=10 n=46 v=100
25526 On ch=10 n=46 v=0
25620 On ch=10 n=46 v=100
25649 On ch=10 n=46 v=0
25740 On ch=10 n=46 v=100
25769 On ch=10 n=46 v=0
25860 On ch=10 n=46 v=100
25885 On ch=10 n=46 v=0
25980 On ch=10 n=46 v=100
26006 On ch=10 n=46 v=0
26100 On ch=10 n=46 v=100
26129 On ch=10 n=46 v=0
26220 On ch=10 n=46 v=100
26249 On ch=10 n=46 v=0
26340 On ch=10 n=46 v=100
26365 On ch=10 n=46 v=0
31260 On ch=10 n=46 v=100
31286 On ch=10 n=46 v=0
31380 On ch=10 n=46 v=100
31409 On ch=10 n=46 v=0
31500 On ch=10 n=46 v=100
31529 On ch=10 n=46 v=0
31620 On ch=10 n=46 v=100
31645 On ch=10 n=46 v=0
31740 On ch=10 n=46 v=100
31766 On ch=10 n=46 v=0
31860 On ch=10 n=46 v=100
31889 On ch=10 n=46 v=0
31980 On ch=10 n=46 v=100
32009 On ch=10 n=46 v=0
32100 On ch=10 n=46 v=100
32125 On ch=10 n=46 v=0
32220 On ch=10 n=46 v=100
32246 On ch=10 n=46 v=0
32340 On ch=10 n=46 v=100
32369 On ch=10 n=46 v=0
32460 On ch=10 n=46 v=100
32489 On ch=10 n=46 v=0
32580 On ch=10 n=46 v=100
32605 On ch=10 n=46 v=0
32700 On ch=10 n=46 v=100
32726 On ch=10 n=46 v=0
32820 On ch=10 n=46 v=100
32849 On ch=10 n=46 v=0
32940 On ch=10 n=46 v=100
32969 On ch=10 n=46 v=0
33060 On ch=10 n=46 v=100
33085 On ch=10 n=46 v=0
33180 On ch=10 n=46 v=100
33206 On ch=10 n=46 v=0
33300 On ch=10 n=46 v=100
33329 On ch=10 n=46 v=0
33420 On ch=10 n=46 v=100
33449 On ch=10 n=46 v=0
33540 On ch=10 n=46 v=100
33565 On ch=10 n=46 v=0
33660 On ch=10 n=46 v=100
33686 On ch=10 n=46 v=0
33780 On ch=10 n=46 v=100
33809 On ch=10 n=46 v=0
33900 On ch=10 n=46 v=100
33929 On ch=10 n=46 v=0
34020 On ch=10 n=46 v=100
34045 On ch=10 n=46 v=0
34140 On ch=10 n=46 v=100
34166 On ch=10 n=46 v=0
34260 On ch=10 n=46 v=100
34289 On ch=10 n=46 v=0
34380 On ch=10 n=46 v=100
34409 On ch=10 n=46 v=0
34500 On ch=10 n=46 v=100
34525 On ch=10 n=46 v=0
36060 On ch=10 n=46 v=100
36086 On ch=10 n=46 v=0
36180 On ch=10 n=46 v=100
36209 On ch=10 n=46 v=0
36300 On ch=10 n=46 v=100
36329 On ch=10 n=46 v=0
36420 On ch=10 n=46 v=100
36445 On ch=10 n=46 v=0
36540 On ch=10 n=46 v=100
36566 On ch=10 n=46 v=0
36660 On ch=10 n=46 v=100
36689 On ch=10 n=46 v=0
36780 On ch=10 n=46 v=100
36809 On ch=10 n=46 v=0
36900 On ch=10 n=46 v=100
36925 On ch=10 n=46 v=0
37020 On ch=10 n=46 v=100
37046 On ch=10 n=46 v=0
37140 On ch=10 n=46 v=100
37169 On ch=10 n=46 v=0
37260 On ch=10 n=46 v=100
37289 On ch=10 n=46 v=0
37380 On ch=10 n=46 v=100
37405 On ch=10 n=46 v=0
37500 On ch=10 n=46 v=100
37526 On ch=10 n=46 v=0
37620 On ch=10 n=46 v=100
37649 On ch=10 n=46 v=0
37740 On ch=10 n=46 v=100
37769 On ch=10 n=46 v=0
37860 On ch=10 n=46 v=100
37885 On ch=10 n=46 v=0
37980 On ch=10 n=46 v=100
38006 On ch=10 n=46 v=0
38100 On ch=10 n=46 v=100
38129 On ch=10 n=46 v=0
38220 On ch=10 n=46 v=100
38249 On ch=10 n=46 v=0
38340 On ch=10 n=46 v=100
38365 On ch=10 n=46 v=0
38460 On ch=10 n=46 v=100
38486 On ch=10 n=46 v=0
38580 On ch=10 n=46 v=100
38609 On ch=10 n=46 v=0
38700 On ch=10 n=46 v=100
38729 On ch=10 n=46 v=0
38820 On ch=10 n=46 v=100
38845 On ch=10 n=46 v=0
38940 On ch=10 n=46 v=100
38966 On ch=10 n=46 v=0
39060 On ch=10 n=46 v=100
39089 On ch=10 n=46 v=0
39180 On ch=10 n=46 v=100
39209 On ch=10 n=46 v=0
39300 On ch=10 n=46 v=100
39325 On ch=10 n=46 v=0
39420 On ch=10 n=46 v=100
39446 On ch=10 n=46 v=0
39540 On ch=10 n=46 v=100
39569 On ch=10 n=46 v=0
39660 On ch=10 n=46 v=100
39689 On ch=10 n=46 v=0
39780 On ch=10 n=46 v=100
39805 On ch=10 n=46 v=0
51420 On ch=10 n=46 v=100
51446 On ch=10 n=46 v=0
51540 On ch=10 n=46 v=100
51569 On ch=10 n=46 v=0
51660 On ch=10 n=46 v=100
51689 On ch=10 n=46 v=0
51780 On ch=10 n=46 v=100
51805 On ch=10 n=46 v=0
51900 On ch=10 n=46 v=100
51926 On ch=10 n=46 v=0
52020 On ch=10 n=46 v=100
52049 On ch=10 n=46 v=0
52140 On ch=10 n=46 v=100
52169 On ch=10 n=46 v=0
52260 On ch=10 n=46 v=100
52285 On ch=10 n=46 v=0
52380 On ch=10 n=46 v=100
52406 On ch=10 n=46 v=0
52500 On ch=10 n=46 v=100
52529 On ch=10 n=46 v=0
52620 On ch=10 n=46 v=100
52649 On ch=10 n=46 v=0
52740 On ch=10 n=46 v=100
52765 On ch=10 n=46 v=0
52860 On ch=10 n=46 v=100
52886 On ch=10 n=46 v=0
52980 On ch=10 n=46 v=100
53009 On ch=10 n=46 v=0
53100 On ch=10 n=46 v=100
53129 On ch=10 n=46 v=0
53220 On ch=10 n=46 v=100
53245 On ch=10 n=46 v=0
53340 On ch=10 n=46 v=100
53366 On ch=10 n=46 v=0
53460 On ch=10 n=46 v=100
53489 On ch=10 n=46 v=0
53580 On ch=10 n=46 v=100
53609 On ch=10 n=46 v=0
53700 On ch=10 n=46 v=100
53725 On ch=10 n=46 v=0
53820 On ch=10 n=46 v=100
53846 On ch=10 n=46 v=0
53940 On ch=10 n=46 v=100
53969 On ch=10 n=46 v=0
54060 On ch=10 n=46 v=100
54089 On ch=10 n=46 v=0
54180 On ch=10 n=46 v=100
54205 On ch=10 n=46 v=0
54300 On ch=10 n=46 v=100
54326 On ch=10 n=46 v=0
54420 On ch=10 n=46 v=100
54449 On ch=10 n=46 v=0
54540 On ch=10 n=46 v=100
54569 On ch=10 n=46 v=0
54660 On ch=10 n=46 v=100
54685 On ch=10 n=46 v=0
54780 On ch=10 n=46 v=100
54806 On ch=10 n=46 v=0
54900 On ch=10 n=46 v=100
54929 On ch=10 n=46 v=0
55020 On ch=10 n=46 v=100
55049 On ch=10 n=46 v=0
55140 On ch=10 n=46 v=100
55165 On ch=10 n=46 v=0
55260 On ch=10 n=46 v=100
55286 On ch=10 n=46 v=0
55380 On ch=10 n=46 v=100
55409 On ch=10 n=46 v=0
55500 On ch=10 n=46 v=100
55529 On ch=10 n=46 v=0
55620 On ch=10 n=46 v=100
55645 On ch=10 n=46 v=0
55740 On ch=10 n=46 v=100
55766 On ch=10 n=46 v=0
55860 On ch=10 n=46 v=100
55889 On ch=10 n=46 v=0
55980 On ch=10 n=46 v=100
56009 On ch=10 n=46 v=0
56100 On ch=10 n=46 v=100
56125 On ch=10 n=46 v=0
56220 On ch=10 n=46 v=100
56246 On ch=10 n=46 v=0
56340 On ch=10 n=46 v=100
56369 On ch=10 n=46 v=0
56460 On ch=10 n=46 v=100
56489 On ch=10 n=46 v=0
56580 On ch=10 n=46 v=100
56605 On ch=10 n=46 v=0
56700 On ch=10 n=46 v=100
56726 On ch=10 n=46 v=0
56820 On ch=10 n=46 v=100
56849 On ch=10 n=46 v=0
56940 On ch=10 n=46 v=100
56969 On ch=10 n=46 v=0
57060 On ch=10 n=46 v=100
57085 On ch=10 n=46 v=0
57180 On ch=10 n=46 v=100
57206 On ch=10 n=46 v=0
57300 On ch=10 n=46 v=100
57329 On ch=10 n=46 v=0
57420 On ch=10 n=46 v=100
57449 On ch=10 n=46 v=0
57540 On ch=10 n=46 v=100
57565 On ch=10 n=46 v=0
57660 On ch=10 n=46 v=100
57686 On ch=10 n=46 v=0
57780 On ch=10 n=46 v=100
57809 On ch=10 n=46 v=0
57900 On ch=10 n=46 v=100
57929 On ch=10 n=46 v=0
58020 On ch=10 n=46 v=100
58045 On ch=10 n=46 v=0
58140 On ch=10 n=46 v=100
58166 On ch=10 n=46 v=0
58260 On ch=10 n=46 v=100
58289 On ch=10 n=46 v=0
58380 On ch=10 n=46 v=100
58409 On ch=10 n=46 v=0
58500 On ch=10 n=46 v=100
58525 On ch=10 n=46 v=0
58620 On ch=10 n=46 v=100
58646 On ch=10 n=46 v=0
58740 On ch=10 n=46 v=100
58769 On ch=10 n=46 v=0
58860 On ch=10 n=46 v=100
58889 On ch=10 n=46 v=0
58980 On ch=10 n=46 v=100
59005 On ch=10 n=46 v=0
59100 On ch=10 n=46 v=100
59126 On ch=10 n=46 v=0
59220 On ch=10 n=46 v=100
59249 On ch=10 n=46 v=0
59340 On ch=10 n=46 v=100
59369 On ch=10 n=46 v=0
59460 On ch=10 n=46 v=100
59485 On ch=10 n=46 v=0
59580 On ch=10 n=46 v=100
59606 On ch=10 n=46 v=0
59700 On ch=10 n=46 v=100
59729 On ch=10 n=46 v=0
59820 On ch=10 n=46 v=100
59849 On ch=10 n=46 v=0
59940 On ch=10 n=46 v=100
59965 On ch=10 n=46 v=0
60060 On ch=10 n=46 v=100
60086 On ch=10 n=46 v=0
60180 On ch=10 n=46 v=100
60209 On ch=10 n=46 v=0
60300 On ch=10 n=46 v=100
60329 On ch=10 n=46 v=0
60420 On ch=10 n=46 v=100
60445 On ch=10 n=46 v=0
60540 On ch=10 n=46 v=100
60566 On ch=10 n=46 v=0
60660 On ch=10 n=46 v=100
60689 On ch=10 n=46 v=0
60780 On ch=10 n=46 v=100
60809 On ch=10 n=46 v=0
60900 On ch=10 n=46 v=100
60925 On ch=10 n=46 v=0
61020 On ch=10 n=46 v=100
61046 On ch=10 n=46 v=0
61140 On ch=10 n=46 v=100
61169 On ch=10 n=46 v=0
61260 On ch=10 n=46 v=100
61289 On ch=10 n=46 v=0
61380 On ch=10 n=46 v=100
61405 On ch=10 n=46 v=0
61500 On ch=10 n=46 v=100
61526 On ch=10 n=46 v=0
61620 On ch=10 n=46 v=100
61649 On ch=10 n=46 v=0
61740 On ch=10 n=46 v=100
61769 On ch=10 n=46 v=0
61860 On ch=10 n=46 v=100
61885 On ch=10 n=46 v=0
61980 On ch=10 n=46 v=100
62006 On ch=10 n=46 v=0
62100 On ch=10 n=46 v=100
62129 On ch=10 n=46 v=0
62220 On ch=10 n=46 v=100
62249 On ch=10 n=46 v=0
62340 On ch=10 n=46 v=100
62365 On ch=10 n=46 v=0
62460 On ch=10 n=46 v=100
62486 On ch=10 n=46 v=0
62580 On ch=10 n=46 v=100
62609 On ch=10 n=46 v=0
62700 On ch=10 n=46 v=100
62729 On ch=10 n=46 v=0
62820 On ch=10 n=46 v=100
62845 On ch=10 n=46 v=0
62940 On ch=10 n=46 v=100
62966 On ch=10 n=46 v=0
63060 On ch=10 n=46 v=100
63089 On ch=10 n=46 v=0
63180 On ch=10 n=46 v=100
63209 On ch=10 n=46 v=0
63300 On ch=10 n=46 v=100
63325 On ch=10 n=46 v=0
63420 On ch=10 n=46 v=100
63446 On ch=10 n=46 v=0
63540 On ch=10 n=46 v=100
63569 On ch=10 n=46 v=0
63660 On ch=10 n=46 v=100
63689 On ch=10 n=46 v=0
63780 On ch=10 n=46 v=100
63805 On ch=10 n=46 v=0
63900 On ch=10 n=46 v=100
63926 On ch=10 n=46 v=0
64020 On ch=10 n=46 v=100
64049 On ch=10 n=46 v=0
64140 On ch=10 n=46 v=100
64169 On ch=10 n=46 v=0
64260 On ch=10 n=46 v=100
64285 On ch=10 n=46 v=0
64380 On ch=10 n=46 v=100
64406 On ch=10 n=46 v=0
64500 On ch=10 n=46 v=100
64529 On ch=10 n=46 v=0
64620 On ch=10 n=46 v=100
64649 On ch=10 n=46 v=0
64740 On ch=10 n=46 v=100
64765 On ch=10 n=46 v=0
64860 On ch=10 n=46 v=100
64886 On ch=10 n=46 v=0
64980 On ch=10 n=46 v=100
65009 On ch=10 n=46 v=0
65100 On ch=10 n=46 v=100
65129 On ch=10 n=46 v=0
65220 On ch=10 n=46 v=100
65245 On ch=10 n=46 v=0
65340 On ch=10 n=46 v=100
65366 On ch=10 n=46 v=0
65460 On ch=10 n=46 v=100
65489 On ch=10 n=46 v=0
65580 On ch=10 n=46 v=100
65609 On ch=10 n=46 v=0
65700 On ch=10 n=46 v=100
65725 On ch=10 n=46 v=0
65820 On ch=10 n=46 v=100
65846 On ch=10 n=46 v=0
65940 On ch=10 n=46 v=100
65969 On ch=10 n=46 v=0
66060 On ch=10 n=46 v=100
66089 On ch=10 n=46 v=0
66180 On ch=10 n=46 v=100
66205 On ch=10 n=46 v=0
66300 On ch=10 n=46 v=100
66326 On ch=10 n=46 v=0
66420 On ch=10 n=46 v=100
66449 On ch=10 n=46 v=0
66540 On ch=10 n=46 v=100
66569 On ch=10 n=46 v=0
66660 On ch=10 n=46 v=100
66685 On ch=10 n=46 v=0
66780 On ch=10 n=46 v=100
66806 On ch=10 n=46 v=0
66900 On ch=10 n=46 v=100
66929 On ch=10 n=46 v=0
67020 On ch=10 n=46 v=100
67049 On ch=10 n=46 v=0
67140 On ch=10 n=46 v=100
67165 On ch=10 n=46 v=0
67200 On ch=10 n=46 v=110
67207 On ch=10 n=46 v=0
67260 On ch=10 n=46 v=110
67273 On ch=10 n=46 v=0
67320 On ch=10 n=46 v=110
67333 On ch=10 n=46 v=0
67350 On ch=10 n=46 v=110
67365 On ch=10 n=46 v=0
67410 On ch=10 n=46 v=110
67423 On ch=10 n=46 v=0
67423 Meta TrkEnd
TrkEnd
MTrk
0 Meta TrkName "Pedal hihat"
0 Par ch=10 c=0 v=0
1 PrCh ch=10 p=8
540 On ch=10 n=44 v=120
563 On ch=10 n=44 v=0
660 On ch=10 n=44 v=120
679 On ch=10 n=44 v=0
780 On ch=10 n=44 v=120
799 On ch=10 n=44 v=0
900 On ch=10 n=44 v=120
921 On ch=10 n=44 v=0
1020 On ch=10 n=44 v=120
1043 On ch=10 n=44 v=0
1140 On ch=10 n=44 v=120
1159 On ch=10 n=44 v=0
1260 On ch=10 n=44 v=120
1279 On ch=10 n=44 v=0
1380 On ch=10 n=44 v=120
1401 On ch=10 n=44 v=0
1500 On ch=10 n=44 v=120
1523 On ch=10 n=44 v=0
1620 On ch=10 n=44 v=120
1639 On ch=10 n=44 v=0
1740 On ch=10 n=44 v=120
1759 On ch=10 n=44 v=0
1860 On ch=10 n=44 v=120
1881 On ch=10 n=44 v=0
1980 On ch=10 n=44 v=120
2003 On ch=10 n=44 v=0
2100 On ch=10 n=44 v=120
2119 On ch=10 n=44 v=0
2220 On ch=10 n=44 v=120
2239 On ch=10 n=44 v=0
2340 On ch=10 n=44 v=120
2361 On ch=10 n=44 v=0
2460 On ch=10 n=44 v=120
2483 On ch=10 n=44 v=0
2580 On ch=10 n=44 v=120
2599 On ch=10 n=44 v=0
2700 On ch=10 n=44 v=120
2719 On ch=10 n=44 v=0
2820 On ch=10 n=44 v=120
2841 On ch=10 n=44 v=0
2940 On ch=10 n=44 v=120
2963 On ch=10 n=44 v=0
3060 On ch=10 n=44 v=120
3079 On ch=10 n=44 v=0
3180 On ch=10 n=44 v=120
3199 On ch=10 n=44 v=0
3300 On ch=10 n=44 v=120
3321 On ch=10 n=44 v=0
3420 On ch=10 n=44 v=120
3443 On ch=10 n=44 v=0
3540 On ch=10 n=44 v=120
3559 On ch=10 n=44 v=0
3660 On ch=10 n=44 v=120
3679 On ch=10 n=44 v=0
3780 On ch=10 n=44 v=120
3801 On ch=10 n=44 v=0
3900 On ch=10 n=44 v=120
3923 On ch=10 n=44 v=0
4020 On ch=10 n=44 v=120
4039 On ch=10 n=44 v=0
4140 On ch=10 n=44 v=120
4159 On ch=10 n=44 v=0
4260 On ch=10 n=44 v=120
4281 On ch=10 n=44 v=0
19740 On ch=10 n=44 v=120
19768 On ch=10 n=44 v=0
19860 On ch=10 n=44 v=120
19883 On ch=10 n=44 v=0
19980 On ch=10 n=44 v=120
20002 On ch=10 n=44 v=0
20100 On ch=10 n=44 v=120
20122 On ch=10 n=44 v=0
20220 On ch=10 n=44 v=120
20248 On ch=10 n=44 v=0
20340 On ch=10 n=44 v=120
20363 On ch=10 n=44 v=0
20460 On ch=10 n=44 v=120
20482 On ch=10 n=44 v=0
20580 On ch=10 n=44 v=120
20602 On ch=10 n=44 v=0
20700 On ch=10 n=44 v=120
20728 On ch=10 n=44 v=0
20820 On ch=10 n=44 v=120
20843 On ch=10 n=44 v=0
20940 On ch=10 n=44 v=120
20962 On ch=10 n=44 v=0
21060 On ch=10 n=44 v=120
21082 On ch=10 n=44 v=0
21180 On ch=10 n=44 v=120
21208 On ch=10 n=44 v=0
21300 On ch=10 n=44 v=120
21323 On ch=10 n=44 v=0
21420 On ch=10 n=44 v=120
21442 On ch=10 n=44 v=0
21540 On ch=10 n=44 v=120
21562 On ch=10 n=44 v=0
21660 On ch=10 n=44 v=120
21688 On ch=10 n=44 v=0
21780 On ch=10 n=44 v=120
21803 On ch=10 n=44 v=0
21900 On ch=10 n=44 v=120
21922 On ch=10 n=44 v=0
22020 On ch=10 n=44 v=120
22042 On ch=10 n=44 v=0
22140 On ch=10 n=44 v=120
22168 On ch=10 n=44 v=0
22260 On ch=10 n=44 v=120
22283 On ch=10 n=44 v=0
22380 On ch=10 n=44 v=120
22402 On ch=10 n=44 v=0
22500 On ch=10 n=44 v=120
22522 On ch=10 n=44 v=0
22620 On ch=10 n=44 v=120
22648 On ch=10 n=44 v=0
22740 On ch=10 n=44 v=120
22763 On ch=10 n=44 v=0
22860 On ch=10 n=44 v=120
22882 On ch=10 n=44 v=0
22980 On ch=10 n=44 v=120
23002 On ch=10 n=44 v=0
26400 On ch=10 n=44 v=120
26415 On ch=10 n=44 v=0
26460 On ch=10 n=44 v=120
26475 On ch=10 n=44 v=0
26520 On ch=10 n=44 v=120
26536 On ch=10 n=44 v=0
26580 On ch=10 n=44 v=120
26596 On ch=10 n=44 v=0
26640 On ch=10 n=44 v=120
26656 On ch=10 n=44 v=0
26700 On ch=10 n=44 v=120
26717 On ch=10 n=44 v=0
26760 On ch=10 n=44 v=120
26777 On ch=10 n=44 v=0
26820 On ch=10 n=44 v=120
26836 On ch=10 n=44 v=0
26880 On ch=10 n=44 v=100
26898 On ch=10 n=44 v=0
27000 On ch=10 n=44 v=100
27017 On ch=10 n=44 v=0
27120 On ch=10 n=44 v=100
27138 On ch=10 n=44 v=0
27240 On ch=10 n=44 v=100
27256 On ch=10 n=44 v=0
35040 On ch=10 n=44 v=100
35058 On ch=10 n=44 v=0
35160 On ch=10 n=44 v=100
35177 On ch=10 n=44 v=0
35280 On ch=10 n=44 v=100
35298 On ch=10 n=44 v=0
35400 On ch=10 n=44 v=100
35416 On ch=10 n=44 v=0
35520 On ch=10 n=44 v=100
35538 On ch=10 n=44 v=0
35640 On ch=10 n=44 v=100
35657 On ch=10 n=44 v=0
35760 On ch=10 n=44 v=100
35778 On ch=10 n=44 v=0
35880 On ch=10 n=44 v=100
35896 On ch=10 n=44 v=0
41280 On ch=10 n=44 v=100
41298 On ch=10 n=44 v=0
41400 On ch=10 n=44 v=100
41417 On ch=10 n=44 v=0
41520 On ch=10 n=44 v=100
41538 On ch=10 n=44 v=0
41640 On ch=10 n=44 v=100
41656 On ch=10 n=44 v=0
41656 Meta TrkEnd
TrkEnd
MTrk
0 Meta TrkName "Crash"
0 Par ch=10 c=0 v=0
1 PrCh ch=10 p=8
15840 On ch=10 n=49 v=100
16164 On ch=10 n=49 v=0
19680 On ch=10 n=49 v=100
20004 On ch=10 n=49 v=0
23520 On ch=10 n=49 v=100
23844 On ch=10 n=49 v=0
25440 On ch=10 n=49 v=100
25764 On ch=10 n=49 v=0
31200 On ch=10 n=49 v=100
31524 On ch=10 n=49 v=0
36000 On ch=10 n=49 v=100
36324 On ch=10 n=49 v=0
37920 On ch=10 n=49 v=100
38244 On ch=10 n=49 v=0
39840 On ch=10 n=49 v=100
40164 On ch=10 n=49 v=0
41760 On ch=10 n=49 v=100
42084 On ch=10 n=49 v=0
45600 On ch=10 n=49 v=100
45924 On ch=10 n=49 v=0
46560 On ch=10 n=49 v=100
46884 On ch=10 n=49 v=0
47520 On ch=10 n=49 v=100
47844 On ch=10 n=49 v=0
51360 On ch=10 n=49 v=100
51684 On ch=10 n=49 v=0
53280 On ch=10 n=49 v=100
53604 On ch=10 n=49 v=0
55200 On ch=10 n=49 v=100
55524 On ch=10 n=49 v=0
57120 On ch=10 n=49 v=100
57444 On ch=10 n=49 v=0
60000 On ch=10 n=49 v=100
60324 On ch=10 n=49 v=0
61920 On ch=10 n=49 v=100
62244 On ch=10 n=49 v=0
63840 On ch=10 n=49 v=100
64164 On ch=10 n=49 v=0
65760 On ch=10 n=49 v=100
66084 On ch=10 n=49 v=0
67200 On ch=10 n=49 v=109
67213 On ch=10 n=49 v=0
67410 On ch=10 n=49 v=106
67425 On ch=10 n=49 v=0
67425 Meta TrkEnd
TrkEnd
MTrk
0 Meta TrkName "Hand clap"
0 Par ch=10 c=0 v=0
1 PrCh ch=10 p=8
12000 On ch=10 n=39 v=100
12021 On ch=10 n=39 v=0
12120 On ch=10 n=39 v=100
12141 On ch=10 n=39 v=0
12240 On ch=10 n=39 v=100
12263 On ch=10 n=39 v=0
12360 On ch=10 n=39 v=100
12380 On ch=10 n=39 v=0
12480 On ch=10 n=39 v=100
12501 On ch=10 n=39 v=0
12600 On ch=10 n=39 v=100
12621 On ch=10 n=39 v=0
12720 On ch=10 n=39 v=100
12743 On ch=10 n=39 v=0
12840 On ch=10 n=39 v=100
12860 On ch=10 n=39 v=0
12960 On ch=10 n=39 v=100
12981 On ch=10 n=39 v=0
13080 On ch=10 n=39 v=100
13101 On ch=10 n=39 v=0
13200 On ch=10 n=39 v=100
13223 On ch=10 n=39 v=0
13320 On ch=10 n=39 v=100
13340 On ch=10 n=39 v=0
13440 On ch=10 n=39 v=100
13461 On ch=10 n=39 v=0
13560 On ch=10 n=39 v=100
13581 On ch=10 n=39 v=0
13680 On ch=10 n=39 v=100
13703 On ch=10 n=39 v=0
13800 On ch=10 n=39 v=100
13820 On ch=10 n=39 v=0
13920 On ch=10 n=39 v=100
13941 On ch=10 n=39 v=0
14040 On ch=10 n=39 v=100
14061 On ch=10 n=39 v=0
14160 On ch=10 n=39 v=100
14183 On ch=10 n=39 v=0
14280 On ch=10 n=39 v=100
14300 On ch=10 n=39 v=0
14400 On ch=10 n=39 v=100
14421 On ch=10 n=39 v=0
14520 On ch=10 n=39 v=100
14541 On ch=10 n=39 v=0
14640 On ch=10 n=39 v=100
14663 On ch=10 n=39 v=0
14760 On ch=10 n=39 v=100
14780 On ch=10 n=39 v=0
14880 On ch=10 n=39 v=100
14901 On ch=10 n=39 v=0
15000 On ch=10 n=39 v=100
15021 On ch=10 n=39 v=0
15120 On ch=10 n=39 v=100
15143 On ch=10 n=39 v=0
15240 On ch=10 n=39 v=100
15260 On ch=10 n=39 v=0
17640 On ch=10 n=39 v=100
17661 On ch=10 n=39 v=0
27360 On ch=10 n=39 v=100
27381 On ch=10 n=39 v=0
27480 On ch=10 n=39 v=100
27501 On ch=10 n=39 v=0
27600 On ch=10 n=39 v=100
27623 On ch=10 n=39 v=0
27720 On ch=10 n=39 v=100
27740 On ch=10 n=39 v=0
27840 On ch=10 n=39 v=100
27861 On ch=10 n=39 v=0
27960 On ch=10 n=39 v=100
27981 On ch=10 n=39 v=0
28080 On ch=10 n=39 v=100
28103 On ch=10 n=39 v=0
28200 On ch=10 n=39 v=100
28220 On ch=10 n=39 v=0
28320 On ch=10 n=39 v=100
28341 On ch=10 n=39 v=0
28440 On ch=10 n=39 v=100
28461 On ch=10 n=39 v=0
28560 On ch=10 n=39 v=100
28583 On ch=10 n=39 v=0
28680 On ch=10 n=39 v=100
28700 On ch=10 n=39 v=0
28800 On ch=10 n=39 v=100
28821 On ch=10 n=39 v=0
28920 On ch=10 n=39 v=100
28941 On ch=10 n=39 v=0
29040 On ch=10 n=39 v=100
29063 On ch=10 n=39 v=0
29160 On ch=10 n=39 v=100
29180 On ch=10 n=39 v=0
29280 On ch=10 n=39 v=100
29301 On ch=10 n=39 v=0
29400 On ch=10 n=39 v=100
29421 On ch=10 n=39 v=0
29520 On ch=10 n=39 v=100
29543 On ch=10 n=39 v=0
29640 On ch=10 n=39 v=100
29660 On ch=10 n=39 v=0
29760 On ch=10 n=39 v=100
29781 On ch=10 n=39 v=0
29880 On ch=10 n=39 v=100
29901 On ch=10 n=39 v=0
30000 On ch=10 n=39 v=100
30023 On ch=10 n=39 v=0
30120 On ch=10 n=39 v=100
30140 On ch=10 n=39 v=0
30240 On ch=10 n=39 v=100
30261 On ch=10 n=39 v=0
30360 On ch=10 n=39 v=100
30381 On ch=10 n=39 v=0
30480 On ch=10 n=39 v=100
30503 On ch=10 n=39 v=0
30600 On ch=10 n=39 v=100
30620 On ch=10 n=39 v=0
30720 On ch=10 n=39 v=100
30741 On ch=10 n=39 v=0
30840 On ch=10 n=39 v=100
30861 On ch=10 n=39 v=0
30960 On ch=10 n=39 v=100
30983 On ch=10 n=39 v=0
31080 On ch=10 n=39 v=100
31100 On ch=10 n=39 v=0
31200 On ch=10 n=39 v=100
31221 On ch=10 n=39 v=0
31320 On ch=10 n=39 v=100
31341 On ch=10 n=39 v=0
31440 On ch=10 n=39 v=100
31463 On ch=10 n=39 v=0
31560 On ch=10 n=39 v=100
31580 On ch=10 n=39 v=0
31680 On ch=10 n=39 v=100
31701 On ch=10 n=39 v=0
31800 On ch=10 n=39 v=100
31821 On ch=10 n=39 v=0
31920 On ch=10 n=39 v=100
31943 On ch=10 n=39 v=0
32040 On ch=10 n=39 v=100
32060 On ch=10 n=39 v=0
32160 On ch=10 n=39 v=100
32181 On ch=10 n=39 v=0
32280 On ch=10 n=39 v=100
32301 On ch=10 n=39 v=0
32400 On ch=10 n=39 v=100
32423 On ch=10 n=39 v=0
32520 On ch=10 n=39 v=100
32540 On ch=10 n=39 v=0
32640 On ch=10 n=39 v=100
32661 On ch=10 n=39 v=0
32760 On ch=10 n=39 v=100
32781 On ch=10 n=39 v=0
32880 On ch=10 n=39 v=100
32903 On ch=10 n=39 v=0
33000 On ch=10 n=39 v=100
33020 On ch=10 n=39 v=0
33120 On ch=10 n=39 v=100
33141 On ch=10 n=39 v=0
33240 On ch=10 n=39 v=100
33261 On ch=10 n=39 v=0
33360 On ch=10 n=39 v=100
33383 On ch=10 n=39 v=0
33480 On ch=10 n=39 v=100
33500 On ch=10 n=39 v=0
33600 On ch=10 n=39 v=100
33621 On ch=10 n=39 v=0
33720 On ch=10 n=39 v=100
33741 On ch=10 n=39 v=0
33840 On ch=10 n=39 v=100
33863 On ch=10 n=39 v=0
33960 On ch=10 n=39 v=100
33980 On ch=10 n=39 v=0
34080 On ch=10 n=39 v=100
34101 On ch=10 n=39 v=0
34200 On ch=10 n=39 v=100
34221 On ch=10 n=39 v=0
34320 On ch=10 n=39 v=100
34343 On ch=10 n=39 v=0
34440 On ch=10 n=39 v=100
34460 On ch=10 n=39 v=0
37800 On ch=10 n=39 v=100
37821 On ch=10 n=39 v=0
39720 On ch=10 n=39 v=100
39741 On ch=10 n=39 v=0
43680 On ch=10 n=39 v=100
43701 On ch=10 n=39 v=0
43800 On ch=10 n=39 v=100
43821 On ch=10 n=39 v=0
43920 On ch=10 n=39 v=100
43943 On ch=10 n=39 v=0
44040 On ch=10 n=39 v=100
44060 On ch=10 n=39 v=0
44160 On ch=10 n=39 v=100
44181 On ch=10 n=39 v=0
44280 On ch=10 n=39 v=100
44301 On ch=10 n=39 v=0
44400 On ch=10 n=39 v=100
44423 On ch=10 n=39 v=0
44520 On ch=10 n=39 v=100
44540 On ch=10 n=39 v=0
44640 On ch=10 n=39 v=100
44661 On ch=10 n=39 v=0
44760 On ch=10 n=39 v=100
44781 On ch=10 n=39 v=0
44880 On ch=10 n=39 v=100
44903 On ch=10 n=39 v=0
45000 On ch=10 n=39 v=100
45020 On ch=10 n=39 v=0
45120 On ch=10 n=39 v=100
45141 On ch=10 n=39 v=0
45240 On ch=10 n=39 v=100
45261 On ch=10 n=39 v=0
45360 On ch=10 n=39 v=100
45383 On ch=10 n=39 v=0
45480 On ch=10 n=39 v=100
45500 On ch=10 n=39 v=0
45600 On ch=10 n=39 v=100
45621 On ch=10 n=39 v=0
45720 On ch=10 n=39 v=100
45741 On ch=10 n=39 v=0
45840 On ch=10 n=39 v=100
45863 On ch=10 n=39 v=0
45960 On ch=10 n=39 v=100
45980 On ch=10 n=39 v=0
46080 On ch=10 n=39 v=100
46101 On ch=10 n=39 v=0
46200 On ch=10 n=39 v=100
46221 On ch=10 n=39 v=0
46320 On ch=10 n=39 v=100
46343 On ch=10 n=39 v=0
46440 On ch=10 n=39 v=100
46460 On ch=10 n=39 v=0
46560 On ch=10 n=39 v=100
46581 On ch=10 n=39 v=0
46680 On ch=10 n=39 v=100
46701 On ch=10 n=39 v=0
46800 On ch=10 n=39 v=100
46823 On ch=10 n=39 v=0
46920 On ch=10 n=39 v=100
46940 On ch=10 n=39 v=0
47040 On ch=10 n=39 v=100
47061 On ch=10 n=39 v=0
47160 On ch=10 n=39 v=100
47181 On ch=10 n=39 v=0
47280 On ch=10 n=39 v=100
47303 On ch=10 n=39 v=0
47400 On ch=10 n=39 v=100
47420 On ch=10 n=39 v=0
47520 On ch=10 n=39 v=100
47541 On ch=10 n=39 v=0
47640 On ch=10 n=39 v=100
47661 On ch=10 n=39 v=0
47760 On ch=10 n=39 v=100
47783 On ch=10 n=39 v=0
47880 On ch=10 n=39 v=100
47900 On ch=10 n=39 v=0
48000 On ch=10 n=39 v=100
48021 On ch=10 n=39 v=0
48120 On ch=10 n=39 v=100
48141 On ch=10 n=39 v=0
48240 On ch=10 n=39 v=100
48263 On ch=10 n=39 v=0
48360 On ch=10 n=39 v=100
48380 On ch=10 n=39 v=0
48480 On ch=10 n=39 v=100
48501 On ch=10 n=39 v=0
48600 On ch=10 n=39 v=100
48621 On ch=10 n=39 v=0
48720 On ch=10 n=39 v=100
48743 On ch=10 n=39 v=0
48840 On ch=10 n=39 v=100
48860 On ch=10 n=39 v=0
48960 On ch=10 n=39 v=100
48981 On ch=10 n=39 v=0
49080 On ch=10 n=39 v=100
49101 On ch=10 n=39 v=0
49200 On ch=10 n=39 v=100
49223 On ch=10 n=39 v=0
49320 On ch=10 n=39 v=100
49340 On ch=10 n=39 v=0
49440 On ch=10 n=39 v=100
49461 On ch=10 n=39 v=0
49560 On ch=10 n=39 v=100
49581 On ch=10 n=39 v=0
49680 On ch=10 n=39 v=100
49703 On ch=10 n=39 v=0
49800 On ch=10 n=39 v=100
49820 On ch=10 n=39 v=0
49920 On ch=10 n=39 v=100
49941 On ch=10 n=39 v=0
50040 On ch=10 n=39 v=100
50061 On ch=10 n=39 v=0
50160 On ch=10 n=39 v=100
50183 On ch=10 n=39 v=0
50280 On ch=10 n=39 v=100
50300 On ch=10 n=39 v=0
50400 On ch=10 n=39 v=100
50421 On ch=10 n=39 v=0
50520 On ch=10 n=39 v=100
50541 On ch=10 n=39 v=0
50640 On ch=10 n=39 v=100
50663 On ch=10 n=39 v=0
50760 On ch=10 n=39 v=100
50780 On ch=10 n=39 v=0
50880 On ch=10 n=39 v=100
50901 On ch=10 n=39 v=0
51000 On ch=10 n=39 v=100
51021 On ch=10 n=39 v=0
51120 On ch=10 n=39 v=100
51143 On ch=10 n=39 v=0
51240 On ch=10 n=39 v=100
51260 On ch=10 n=39 v=0
51360 On ch=10 n=39 v=100
51381 On ch=10 n=39 v=0
51480 On ch=10 n=39 v=100
51501 On ch=10 n=39 v=0
51600 On ch=10 n=39 v=100
51623 On ch=10 n=39 v=0
51720 On ch=10 n=39 v=100
51740 On ch=10 n=39 v=0
51840 On ch=10 n=39 v=100
51861 On ch=10 n=39 v=0
51960 On ch=10 n=39 v=100
51981 On ch=10 n=39 v=0
52080 On ch=10 n=39 v=100
52103 On ch=10 n=39 v=0
52200 On ch=10 n=39 v=100
52220 On ch=10 n=39 v=0
52320 On ch=10 n=39 v=100
52341 On ch=10 n=39 v=0
52440 On ch=10 n=39 v=100
52461 On ch=10 n=39 v=0
52560 On ch=10 n=39 v=100
52583 On ch=10 n=39 v=0
52680 On ch=10 n=39 v=100
52700 On ch=10 n=39 v=0
52800 On ch=10 n=39 v=100
52821 On ch=10 n=39 v=0
52920 On ch=10 n=39 v=100
52941 On ch=10 n=39 v=0
53040 On ch=10 n=39 v=100
53063 On ch=10 n=39 v=0
53160 On ch=10 n=39 v=100
53180 On ch=10 n=39 v=0
53280 On ch=10 n=39 v=100
53301 On ch=10 n=39 v=0
53400 On ch=10 n=39 v=100
53421 On ch=10 n=39 v=0
53520 On ch=10 n=39 v=100
53543 On ch=10 n=39 v=0
53640 On ch=10 n=39 v=100
53660 On ch=10 n=39 v=0
53760 On ch=10 n=39 v=100
53781 On ch=10 n=39 v=0
53880 On ch=10 n=39 v=100
53901 On ch=10 n=39 v=0
54000 On ch=10 n=39 v=100
54023 On ch=10 n=39 v=0
54120 On ch=10 n=39 v=100
54140 On ch=10 n=39 v=0
54240 On ch=10 n=39 v=100
54261 On ch=10 n=39 v=0
54360 On ch=10 n=39 v=100
54381 On ch=10 n=39 v=0
54480 On ch=10 n=39 v=100
54503 On ch=10 n=39 v=0
54600 On ch=10 n=39 v=100
54620 On ch=10 n=39 v=0
54720 On ch=10 n=39 v=100
54741 On ch=10 n=39 v=0
54840 On ch=10 n=39 v=100
54861 On ch=10 n=39 v=0
54960 On ch=10 n=39 v=100
54983 On ch=10 n=39 v=0
55080 On ch=10 n=39 v=100
55100 On ch=10 n=39 v=0
57000 On ch=10 n=39 v=100
57021 On ch=10 n=39 v=0
58920 On ch=10 n=39 v=100
58941 On ch=10 n=39 v=0
59880 On ch=10 n=39 v=100
59901 On ch=10 n=39 v=0
60000 On ch=10 n=39 v=100
60021 On ch=10 n=39 v=0
60120 On ch=10 n=39 v=100
60141 On ch=10 n=39 v=0
60240 On ch=10 n=39 v=100
60263 On ch=10 n=39 v=0
60360 On ch=10 n=39 v=100
60380 On ch=10 n=39 v=0
60480 On ch=10 n=39 v=100
60501 On ch=10 n=39 v=0
60600 On ch=10 n=39 v=100
60621 On ch=10 n=39 v=0
60720 On ch=10 n=39 v=100
60743 On ch=10 n=39 v=0
60840 On ch=10 n=39 v=100
60860 On ch=10 n=39 v=0
60960 On ch=10 n=39 v=100
60981 On ch=10 n=39 v=0
61080 On ch=10 n=39 v=100
61101 On ch=10 n=39 v=0
61200 On ch=10 n=39 v=100
61223 On ch=10 n=39 v=0
61320 On ch=10 n=39 v=100
61340 On ch=10 n=39 v=0
61440 On ch=10 n=39 v=100
61461 On ch=10 n=39 v=0
61560 On ch=10 n=39 v=100
61581 On ch=10 n=39 v=0
61680 On ch=10 n=39 v=100
61703 On ch=10 n=39 v=0
61800 On ch=10 n=39 v=100
61820 On ch=10 n=39 v=0
61920 On ch=10 n=39 v=100
61941 On ch=10 n=39 v=0
62040 On ch=10 n=39 v=100
62061 On ch=10 n=39 v=0
62160 On ch=10 n=39 v=100
62183 On ch=10 n=39 v=0
62280 On ch=10 n=39 v=100
62300 On ch=10 n=39 v=0
62400 On ch=10 n=39 v=100
62421 On ch=10 n=39 v=0
62520 On ch=10 n=39 v=100
62541 On ch=10 n=39 v=0
62640 On ch=10 n=39 v=100
62663 On ch=10 n=39 v=0
62760 On ch=10 n=39 v=100
62780 On ch=10 n=39 v=0
62880 On ch=10 n=39 v=100
62901 On ch=10 n=39 v=0
63000 On ch=10 n=39 v=100
63021 On ch=10 n=39 v=0
63120 On ch=10 n=39 v=100
63143 On ch=10 n=39 v=0
63240 On ch=10 n=39 v=100
63260 On ch=10 n=39 v=0
63360 On ch=10 n=39 v=100
63381 On ch=10 n=39 v=0
63480 On ch=10 n=39 v=100
63501 On ch=10 n=39 v=0
63600 On ch=10 n=39 v=100
63623 On ch=10 n=39 v=0
63720 On ch=10 n=39 v=100
63740 On ch=10 n=39 v=0
65640 On ch=10 n=39 v=100
65661 On ch=10 n=39 v=0
65661 Meta TrkEnd
TrkEnd
MTrk
0 Meta TrkName "Snare 1"
0 Par ch=11 c=0 v=0
0 Par ch=11 c=7 v=115
1 Par ch=11 c=32 v=0
2 PrCh ch=11 p=1
480 Par ch=11 c=91 v=60
480 Par ch=11 c=93 v=127
930 On ch=11 n=38 v=100
939 On ch=11 n=38 v=0
1410 On ch=11 n=38 v=100
1419 On ch=11 n=38 v=0
1890 On ch=11 n=38 v=100
1899 On ch=11 n=38 v=0
2370 On ch=11 n=38 v=100
2379 On ch=11 n=38 v=0
2580 On ch=11 n=38 v=100
2592 On ch=11 n=38 v=0
2670 On ch=11 n=38 v=100
2678 On ch=11 n=38 v=0
2760 On ch=11 n=38 v=100
2767 On ch=11 n=38 v=0
2850 On ch=11 n=38 v=100
2858 On ch=11 n=38 v=0
3060 On ch=11 n=38 v=100
3070 On ch=11 n=38 v=0
3150 On ch=11 n=38 v=100
3160 On ch=11 n=38 v=0
3240 On ch=11 n=38 v=100
3250 On ch=11 n=38 v=0
3330 On ch=11 n=38 v=100
3339 On ch=11 n=38 v=0
3540 On ch=11 n=38 v=100
3550 On ch=11 n=38 v=0
3630 On ch=11 n=38 v=100
3641 On ch=11 n=38 v=0
3720 On ch=11 n=38 v=100
3730 On ch=11 n=38 v=0
3810 On ch=11 n=38 v=100
3819 On ch=11 n=38 v=0
4020 On ch=11 n=38 v=100
4032 On ch=11 n=38 v=0
4110 On ch=11 n=38 v=100
4122 On ch=11 n=38 v=0
4200 On ch=11 n=38 v=100
4208 On ch=11 n=38 v=0
4290 On ch=11 n=38 v=100
4300 On ch=11 n=38 v=0
20610 On ch=11 n=38 v=100
20620 On ch=11 n=38 v=0
21570 On ch=11 n=38 v=100
21580 On ch=11 n=38 v=0
22530 On ch=11 n=38 v=100
22540 On ch=11 n=38 v=0
23490 On ch=11 n=38 v=100
23500 On ch=11 n=38 v=0
24450 On ch=11 n=38 v=100
24460 On ch=11 n=38 v=0
24570 On ch=11 n=38 v=110
24588 On ch=11 n=38 v=0
24660 On ch=11 n=38 v=110
24674 On ch=11 n=38 v=0
24810 On ch=11 n=38 v=113
24828 On ch=11 n=38 v=0
24900 On ch=11 n=38 v=113
24917 On ch=11 n=38 v=0
25050 On ch=11 n=38 v=110
25068 On ch=11 n=38 v=0
25140 On ch=11 n=38 v=110
25154 On ch=11 n=38 v=0
25290 On ch=11 n=38 v=113
25308 On ch=11 n=38 v=0
25380 On ch=11 n=38 v=113
25397 On ch=11 n=38 v=0
26370 On ch=11 n=38 v=100
26380 On ch=11 n=38 v=0
31170 On ch=11 n=38 v=100
31180 On ch=11 n=38 v=0
47520 On ch=11 n=38 v=109
47541 On ch=11 n=38 v=0
47640 On ch=11 n=38 v=109
47659 On ch=11 n=38 v=0
47760 On ch=11 n=38 v=106
47781 On ch=11 n=38 v=0
47880 On ch=11 n=38 v=113
47899 On ch=11 n=38 v=0
48000 On ch=11 n=38 v=115
48021 On ch=11 n=38 v=0
48120 On ch=11 n=38 v=110
48142 On ch=11 n=38 v=0
48240 On ch=11 n=38 v=113
48260 On ch=11 n=38 v=0
48360 On ch=11 n=38 v=113
48380 On ch=11 n=38 v=0
48480 On ch=11 n=38 v=113
48500 On ch=11 n=38 v=0
48600 On ch=11 n=38 v=110
48622 On ch=11 n=38 v=0
48720 On ch=11 n=38 v=113
48741 On ch=11 n=38 v=0
48840 On ch=11 n=38 v=113
48862 On ch=11 n=38 v=0
48960 On ch=11 n=38 v=113
48979 On ch=11 n=38 v=0
49080 On ch=11 n=38 v=113
49104 On ch=11 n=38 v=0
49200 On ch=11 n=38 v=110
49221 On ch=11 n=38 v=0
49320 On ch=11 n=38 v=109
49341 On ch=11 n=38 v=0
49440 On ch=11 n=38 v=110
49458 On ch=11 n=38 v=0
49500 On ch=11 n=38 v=100
49517 On ch=11 n=38 v=0
49560 On ch=11 n=38 v=105
49577 On ch=11 n=38 v=0
49620 On ch=11 n=38 v=103
49638 On ch=11 n=38 v=0
49680 On ch=11 n=38 v=105
49699 On ch=11 n=38 v=0
49740 On ch=11 n=38 v=103
49758 On ch=11 n=38 v=0
49800 On ch=11 n=38 v=105
49818 On ch=11 n=38 v=0
49860 On ch=11 n=38 v=102
49876 On ch=11 n=38 v=0
49920 On ch=11 n=38 v=110
49938 On ch=11 n=38 v=0
49980 On ch=11 n=38 v=106
49997 On ch=11 n=38 v=0
50040 On ch=11 n=38 v=106
50057 On ch=11 n=38 v=0
50100 On ch=11 n=38 v=105
50119 On ch=11 n=38 v=0
50160 On ch=11 n=38 v=102
50178 On ch=11 n=38 v=0
50220 On ch=11 n=38 v=105
50237 On ch=11 n=38 v=0
50280 On ch=11 n=38 v=106
50295 On ch=11 n=38 v=0
50340 On ch=11 n=38 v=109
50354 On ch=11 n=38 v=0
50400 On ch=11 n=38 v=113
50407 On ch=11 n=38 v=0
50430 On ch=11 n=38 v=100
50449 On ch=11 n=38 v=0
50460 On ch=11 n=38 v=98
50469 On ch=11 n=38 v=0
50490 On ch=11 n=38 v=90
50507 On ch=11 n=38 v=0
50520 On ch=11 n=38 v=103
50530 On ch=11 n=38 v=0
50550 On ch=11 n=38 v=98
50570 On ch=11 n=38 v=0
50580 On ch=11 n=38 v=105
50592 On ch=11 n=38 v=0
50610 On ch=11 n=38 v=95
50628 On ch=11 n=38 v=0
50640 On ch=11 n=38 v=100
50650 On ch=11 n=38 v=0
50670 On ch=11 n=38 v=97
50689 On ch=11 n=38 v=0
50700 On ch=11 n=38 v=102
50712 On ch=11 n=38 v=0
50730 On ch=11 n=38 v=98
50751 On ch=11 n=38 v=0
50760 On ch=11 n=38 v=103
50770 On ch=11 n=38 v=0
50790 On ch=11 n=38 v=95
50809 On ch=11 n=38 v=0
50820 On ch=11 n=38 v=109
50832 On ch=11 n=38 v=0
50850 On ch=11 n=38 v=109
50862 On ch=11 n=38 v=0
50880 On ch=11 n=38 v=113
50887 On ch=11 n=38 v=0
50910 On ch=11 n=38 v=100
50929 On ch=11 n=38 v=0
50940 On ch=11 n=38 v=98
50949 On ch=11 n=38 v=0
50970 On ch=11 n=38 v=90
50987 On ch=11 n=38 v=0
51000 On ch=11 n=38 v=103
51010 On ch=11 n=38 v=0
51030 On ch=11 n=38 v=98
51050 On ch=11 n=38 v=0
51060 On ch=11 n=38 v=105
51072 On ch=11 n=38 v=0
51090 On ch=11 n=38 v=95
51108 On ch=11 n=38 v=0
51120 On ch=11 n=38 v=100
51130 On ch=11 n=38 v=0
51150 On ch=11 n=38 v=97
51169 On ch=11 n=38 v=0
51180 On ch=11 n=38 v=102
51192 On ch=11 n=38 v=0
51210 On ch=11 n=38 v=98
51231 On ch=11 n=38 v=0
51240 On ch=11 n=38 v=103
51250 On ch=11 n=38 v=0
51270 On ch=11 n=38 v=95
51289 On ch=11 n=38 v=0
51300 On ch=11 n=38 v=109
51312 On ch=11 n=38 v=0
51330 On ch=11 n=38 v=109
51342 On ch=11 n=38 v=0
59040 On ch=11 n=38 v=109
59061 On ch=11 n=38 v=0
59160 On ch=11 n=38 v=109
59179 On ch=11 n=38 v=0
59280 On ch=11 n=38 v=106
59301 On ch=11 n=38 v=0
59400 On ch=11 n=38 v=113
59419 On ch=11 n=38 v=0
59520 On ch=11 n=38 v=113
59527 On ch=11 n=38 v=0
59550 On ch=11 n=38 v=100
59569 On ch=11 n=38 v=0
59580 On ch=11 n=38 v=98
59589 On ch=11 n=38 v=0
59610 On ch=11 n=38 v=90
59627 On ch=11 n=38 v=0
59640 On ch=11 n=38 v=103
59650 On ch=11 n=38 v=0
59670 On ch=11 n=38 v=98
59690 On ch=11 n=38 v=0
59700 On ch=11 n=38 v=105
59712 On ch=11 n=38 v=0
59730 On ch=11 n=38 v=95
59748 On ch=11 n=38 v=0
59760 On ch=11 n=38 v=100
59770 On ch=11 n=38 v=0
59790 On ch=11 n=38 v=97
59809 On ch=11 n=38 v=0
59820 On ch=11 n=38 v=102
59832 On ch=11 n=38 v=0
59850 On ch=11 n=38 v=98
59871 On ch=11 n=38 v=0
59880 On ch=11 n=38 v=103
59890 On ch=11 n=38 v=0
59910 On ch=11 n=38 v=95
59929 On ch=11 n=38 v=0
59940 On ch=11 n=38 v=109
59952 On ch=11 n=38 v=0
59970 On ch=11 n=38 v=109
59982 On ch=11 n=38 v=0
59982 Meta TrkEnd
TrkEnd
