MFile 1 13 384
MTrk
0 Meta SeqName "Mozart Forte / The Shadows"
0 Meta Copyright "Sequenced by Chris Hankins 1999Seq. by chris@daisydots.freeserve.co.uk"
0 Meta Text "Lead guitar by Gabor Kerenyi : kepenu@agria.hu\n"
0 SMPTE 96 0 3 0 0
0 TimeSig 4/4 24 8
0 KeySig 0 major
0 Tempo 545455
7680 Tempo 303030
164352 Tempo 545455
170496 Tempo 303030
170496 Meta TrkEnd
TrkEnd
MTrk
0 Meta 0x21 00
0 Meta TrkName "Lead 1"
0 PrCh ch=1 p=27
0 Par ch=1 c=7 v=127
0 Par ch=1 c=10 v=89
13440 On ch=1 n=51 v=127
13611 On ch=1 n=51 v=0
13632 On ch=1 n=50 v=127
13791 On ch=1 n=50 v=0
13824 On ch=1 n=50 v=127
14146 On ch=1 n=50 v=0
14208 On ch=1 n=51 v=127
14400 On ch=1 n=50 v=127
14419 On ch=1 n=51 v=0
14555 On ch=1 n=50 v=0
14592 On ch=1 n=50 v=127
14936 On ch=1 n=50 v=0
14976 On ch=1 n=51 v=127
15123 On ch=1 n=51 v=0
15168 On ch=1 n=50 v=127
15325 On ch=1 n=50 v=0
15360 On ch=1 n=50 v=127
15744 On ch=1 n=58 v=127
15768 On ch=1 n=50 v=0
16317 On ch=1 n=58 v=0
16512 On ch=1 n=58 v=127
16682 On ch=1 n=58 v=0
16704 On ch=1 n=57 v=127
16872 On ch=1 n=57 v=0
16896 On ch=1 n=55 v=127
17230 On ch=1 n=55 v=0
17280 On ch=1 n=55 v=127
17452 On ch=1 n=55 v=0
17472 On ch=1 n=53 v=127
17664 On ch=1 n=53 v=0
17664 On ch=1 n=51 v=127
17971 On ch=1 n=51 v=0
18048 On ch=1 n=51 v=127
18240 On ch=1 n=50 v=127
18246 On ch=1 n=51 v=0
18432 On ch=1 n=50 v=0
18432 On ch=1 n=48 v=127
19198 On ch=1 n=48 v=0
19584 On ch=1 n=50 v=127
19776 On ch=1 n=48 v=127
19797 On ch=1 n=50 v=0
19922 On ch=1 n=48 v=0
19968 On ch=1 n=48 v=127
20290 On ch=1 n=48 v=0
20352 On ch=1 n=50 v=127
20518 On ch=1 n=50 v=0
20544 On ch=1 n=48 v=127
20703 On ch=1 n=48 v=0
20736 On ch=1 n=48 v=127
21073 On ch=1 n=48 v=0
21120 On ch=1 n=50 v=127
21294 On ch=1 n=50 v=0
21312 On ch=1 n=48 v=127
21473 On ch=1 n=48 v=0
21504 On ch=1 n=48 v=127
21888 On ch=1 n=48 v=0
21888 On ch=1 n=57 v=127
22467 On ch=1 n=57 v=0
22656 On ch=1 n=57 v=127
22848 On ch=1 n=55 v=127
22899 On ch=1 n=57 v=0
23040 On ch=1 n=54 v=127
23051 On ch=1 n=55 v=0
23338 On ch=1 n=54 v=0
23424 On ch=1 n=54 v=127
23605 On ch=1 n=54 v=0
23616 On ch=1 n=51 v=127
23808 On ch=1 n=50 v=127
23830 On ch=1 n=51 v=0
24113 On ch=1 n=50 v=0
24192 On ch=1 n=50 v=127
24384 On ch=1 n=48 v=127
24388 On ch=1 n=50 v=0
24576 On ch=1 n=46 v=127
24602 On ch=1 n=48 v=0
25397 On ch=1 n=46 v=0
25728 On ch=1 n=58 v=127
25920 On ch=1 n=57 v=127
25921 On ch=1 n=58 v=0
26092 On ch=1 n=57 v=0
26112 On ch=1 n=57 v=127
26435 On ch=1 n=57 v=0
26496 On ch=1 n=60 v=127
26880 On ch=1 n=54 v=127
26892 On ch=1 n=60 v=0
27222 On ch=1 n=54 v=0
27264 On ch=1 n=57 v=127
27648 On ch=1 n=55 v=127
27690 On ch=1 n=57 v=0
28021 On ch=1 n=55 v=0
28032 On ch=1 n=50 v=127
28787 On ch=1 n=50 v=0
28800 On ch=1 n=58 v=127
28992 On ch=1 n=57 v=127
28997 On ch=1 n=58 v=0
29161 On ch=1 n=57 v=0
29184 On ch=1 n=57 v=127
29557 On ch=1 n=57 v=0
29568 On ch=1 n=60 v=127
29947 On ch=1 n=60 v=0
29952 On ch=1 n=54 v=127
30336 On ch=1 n=57 v=127
30368 On ch=1 n=54 v=0
30720 On ch=1 n=55 v=127
30727 On ch=1 n=57 v=0
31103 On ch=1 n=55 v=0
31104 On ch=1 n=58 v=127
31488 On ch=1 n=57 v=127
31502 On ch=1 n=58 v=0
31680 On ch=1 n=55 v=127
31689 On ch=1 n=57 v=0
31864 On ch=1 n=55 v=0
31872 On ch=1 n=53 v=127
32064 On ch=1 n=53 v=0
32064 On ch=1 n=51 v=127
32256 On ch=1 n=51 v=0
32256 On ch=1 n=50 v=127
32640 On ch=1 n=54 v=127
32656 On ch=1 n=50 v=0
32994 On ch=1 n=54 v=0
33024 On ch=1 n=55 v=127
33358 On ch=1 n=55 v=0
33408 On ch=1 n=57 v=127
33792 On ch=1 n=57 v=0
33792 On ch=1 n=58 v=127
34122 On ch=1 n=58 v=0
34176 On ch=1 n=60 v=127
34327 On ch=1 n=60 v=0
34368 On ch=1 n=58 v=127
34515 On ch=1 n=58 v=0
34560 On ch=1 n=57 v=127
34917 On ch=1 n=57 v=0
34944 On ch=1 n=55 v=127
35299 On ch=1 n=55 v=0
35328 On ch=1 n=62 v=127
35576 On ch=1 n=62 v=0
36096 On ch=1 n=63 v=127
36864 On ch=1 n=62 v=127
36880 On ch=1 n=63 v=0
37138 On ch=1 n=62 v=0
37632 On ch=1 n=63 v=127
38400 On ch=1 n=62 v=127
38409 On ch=1 n=63 v=0
38570 On ch=1 n=62 v=0
38784 On ch=1 n=63 v=127
38999 On ch=1 n=63 v=0
39168 On ch=1 n=62 v=127
39345 On ch=1 n=62 v=0
39552 On ch=1 n=63 v=127
39721 On ch=1 n=63 v=0
39936 On ch=1 n=62 v=127
40810 On ch=1 n=62 v=0
41088 On ch=1 n=51 v=127
41280 On ch=1 n=50 v=127
41298 On ch=1 n=51 v=0
41444 On ch=1 n=50 v=0
41472 On ch=1 n=50 v=127
41750 On ch=1 n=50 v=0
41856 On ch=1 n=51 v=127
42048 On ch=1 n=50 v=127
42058 On ch=1 n=51 v=0
42214 On ch=1 n=50 v=0
42240 On ch=1 n=50 v=127
42577 On ch=1 n=50 v=0
42624 On ch=1 n=51 v=127
42812 On ch=1 n=51 v=0
42816 On ch=1 n=50 v=127
42973 On ch=1 n=50 v=0
43008 On ch=1 n=50 v=127
43392 On ch=1 n=58 v=127
43393 On ch=1 n=50 v=0
43930 On ch=1 n=58 v=0
44160 On ch=1 n=58 v=127
44327 On ch=1 n=58 v=0
44352 On ch=1 n=57 v=127
44544 On ch=1 n=55 v=127
44557 On ch=1 n=57 v=0
44841 On ch=1 n=55 v=0
44928 On ch=1 n=55 v=127
45120 On ch=1 n=53 v=127
45176 On ch=1 n=55 v=0
45312 On ch=1 n=51 v=127
45332 On ch=1 n=53 v=0
45581 On ch=1 n=51 v=0
45696 On ch=1 n=51 v=127
45888 On ch=1 n=51 v=0
45888 On ch=1 n=50 v=127
46080 On ch=1 n=50 v=0
46080 On ch=1 n=48 v=127
46847 On ch=1 n=48 v=0
47232 On ch=1 n=53 v=127
47388 On ch=1 n=53 v=0
47424 On ch=1 n=51 v=127
47578 On ch=1 n=51 v=0
47616 On ch=1 n=51 v=127
47993 On ch=1 n=51 v=0
48000 On ch=1 n=53 v=127
48153 On ch=1 n=53 v=0
48192 On ch=1 n=51 v=127
48353 On ch=1 n=51 v=0
48384 On ch=1 n=51 v=127
48719 On ch=1 n=51 v=0
48768 On ch=1 n=53 v=127
48935 On ch=1 n=53 v=0
48960 On ch=1 n=51 v=127
49111 On ch=1 n=51 v=0
49152 On ch=1 n=51 v=127
49524 On ch=1 n=51 v=0
49536 On ch=1 n=60 v=127
50072 On ch=1 n=60 v=0
50304 On ch=1 n=60 v=127
50496 On ch=1 n=58 v=127
50505 On ch=1 n=60 v=0
50682 On ch=1 n=58 v=0
50688 On ch=1 n=57 v=127
50991 On ch=1 n=57 v=0
51072 On ch=1 n=57 v=127
51247 On ch=1 n=57 v=0
51264 On ch=1 n=55 v=127
51456 On ch=1 n=53 v=127
51480 On ch=1 n=55 v=0
51719 On ch=1 n=53 v=0
51840 On ch=1 n=53 v=127
52010 On ch=1 n=53 v=0
52032 On ch=1 n=51 v=127
52224 On ch=1 n=51 v=0
52224 On ch=1 n=50 v=127
52994 On ch=1 n=50 v=0
53376 On ch=1 n=58 v=127
53529 On ch=1 n=58 v=0
53568 On ch=1 n=58 v=127
53721 On ch=1 n=58 v=0
53760 On ch=1 n=58 v=127
54528 On ch=1 n=58 v=0
54528 On ch=1 n=57 v=127
54785 On ch=1 n=57 v=0
54912 On ch=1 n=51 v=127
55063 On ch=1 n=51 v=0
55104 On ch=1 n=51 v=127
55257 On ch=1 n=51 v=0
55296 On ch=1 n=51 v=127
56064 On ch=1 n=50 v=127
56081 On ch=1 n=51 v=0
56248 On ch=1 n=50 v=0
56448 On ch=1 n=58 v=127
56601 On ch=1 n=58 v=0
56640 On ch=1 n=58 v=127
56793 On ch=1 n=58 v=0
56832 On ch=1 n=58 v=127
57559 On ch=1 n=58 v=0
57600 On ch=1 n=57 v=127
57748 On ch=1 n=57 v=0
57984 On ch=1 n=51 v=127
58150 On ch=1 n=51 v=0
58176 On ch=1 n=51 v=127
58325 On ch=1 n=51 v=0
58368 On ch=1 n=51 v=127
59136 On ch=1 n=51 v=0
59136 On ch=1 n=50 v=127
59342 On ch=1 n=50 v=0
59520 On ch=1 n=63 v=127
59693 On ch=1 n=63 v=0
59712 On ch=1 n=62 v=127
59863 On ch=1 n=62 v=0
59904 On ch=1 n=62 v=127
60288 On ch=1 n=63 v=127
60304 On ch=1 n=62 v=0
60423 On ch=1 n=63 v=0
60480 On ch=1 n=62 v=127
60626 On ch=1 n=62 v=0
60672 On ch=1 n=62 v=127
61010 On ch=1 n=62 v=0
61056 On ch=1 n=63 v=127
61241 On ch=1 n=63 v=0
61248 On ch=1 n=62 v=127
61409 On ch=1 n=62 v=0
61440 On ch=1 n=62 v=127
62117 On ch=1 n=62 v=0
62208 On ch=1 n=63 v=127
62720 On ch=1 n=63 v=0
62784 On ch=1 n=60 v=127
62976 On ch=1 n=58 v=127
62977 On ch=1 n=60 v=0
63544 On ch=1 n=58 v=0
63552 On ch=1 n=62 v=127
63744 On ch=1 n=60 v=127
63752 On ch=1 n=62 v=0
64320 On ch=1 n=57 v=127
64334 On ch=1 n=60 v=0
64489 On ch=1 n=57 v=0
64512 On ch=1 n=58 v=127
64730 On ch=1 n=58 v=0
64896 On ch=1 n=62 v=127
65088 On ch=1 n=62 v=0
65088 On ch=1 n=60 v=127
65275 On ch=1 n=60 v=0
65280 On ch=1 n=58 v=127
65470 On ch=1 n=58 v=0
65472 On ch=1 n=57 v=127
65664 On ch=1 n=57 v=0
65664 On ch=1 n=55 v=127
65856 On ch=1 n=55 v=0
65856 On ch=1 n=53 v=127
66029 On ch=1 n=53 v=0
66048 On ch=1 n=51 v=127
66224 On ch=1 n=51 v=0
66240 On ch=1 n=50 v=127
66432 On ch=1 n=50 v=0
66432 On ch=1 n=48 v=127
66624 On ch=1 n=48 v=0
66624 On ch=1 n=46 v=127
66810 On ch=1 n=46 v=0
66816 On ch=1 n=45 v=127
67008 On ch=1 n=45 v=0
67008 On ch=1 n=48 v=127
67173 On ch=1 n=48 v=0
67200 On ch=1 n=53 v=127
67347 On ch=1 n=53 v=0
67392 On ch=1 n=51 v=127
67584 On ch=1 n=51 v=0
67584 On ch=1 n=50 v=127
67751 On ch=1 n=50 v=0
67968 On ch=1 n=50 v=127
68135 On ch=1 n=50 v=0
68352 On ch=1 n=51 v=127
68517 On ch=1 n=51 v=0
68736 On ch=1 n=53 v=127
68919 On ch=1 n=53 v=0
69504 On ch=1 n=62 v=127
69696 On ch=1 n=62 v=0
69696 On ch=1 n=60 v=127
69883 On ch=1 n=60 v=0
69888 On ch=1 n=58 v=127
70078 On ch=1 n=58 v=0
70080 On ch=1 n=57 v=127
70272 On ch=1 n=57 v=0
70272 On ch=1 n=55 v=127
70464 On ch=1 n=55 v=0
70464 On ch=1 n=53 v=127
70637 On ch=1 n=53 v=0
70656 On ch=1 n=51 v=127
70832 On ch=1 n=51 v=0
70848 On ch=1 n=50 v=127
71040 On ch=1 n=50 v=0
71040 On ch=1 n=48 v=127
71232 On ch=1 n=48 v=0
71232 On ch=1 n=46 v=127
71418 On ch=1 n=46 v=0
71424 On ch=1 n=45 v=127
71616 On ch=1 n=45 v=0
71616 On ch=1 n=48 v=127
71781 On ch=1 n=48 v=0
71808 On ch=1 n=53 v=127
71955 On ch=1 n=53 v=0
72000 On ch=1 n=51 v=127
72192 On ch=1 n=51 v=0
72192 On ch=1 n=50 v=127
72359 On ch=1 n=50 v=0
72576 On ch=1 n=50 v=127
72743 On ch=1 n=50 v=0
72960 On ch=1 n=51 v=127
73125 On ch=1 n=51 v=0
73344 On ch=1 n=53 v=127
73527 On ch=1 n=53 v=0
73728 On ch=1 n=46 v=127
73958 On ch=1 n=46 v=0
74112 On ch=1 n=50 v=127
74309 On ch=1 n=50 v=0
74496 On ch=1 n=51 v=127
74697 On ch=1 n=51 v=0
74880 On ch=1 n=53 v=127
75075 On ch=1 n=53 v=0
75264 On ch=1 n=46 v=127
75517 On ch=1 n=46 v=0
76032 On ch=1 n=53 v=127
76359 On ch=1 n=53 v=0
76800 On ch=1 n=46 v=127
77086 On ch=1 n=46 v=0
77952 On ch=1 n=51 v=127
78123 On ch=1 n=51 v=0
78144 On ch=1 n=50 v=127
78303 On ch=1 n=50 v=0
78336 On ch=1 n=50 v=127
78658 On ch=1 n=50 v=0
78720 On ch=1 n=51 v=127
78912 On ch=1 n=51 v=0
78912 On ch=1 n=50 v=127
79082 On ch=1 n=50 v=0
79104 On ch=1 n=50 v=127
79448 On ch=1 n=50 v=0
79488 On ch=1 n=51 v=127
79663 On ch=1 n=51 v=0
79680 On ch=1 n=50 v=127
79837 On ch=1 n=50 v=0
79872 On ch=1 n=50 v=127
80256 On ch=1 n=58 v=127
80280 On ch=1 n=50 v=0
80708 On ch=1 n=58 v=0
81024 On ch=1 n=58 v=127
81194 On ch=1 n=58 v=0
81216 On ch=1 n=57 v=127
81384 On ch=1 n=57 v=0
81408 On ch=1 n=55 v=127
81742 On ch=1 n=55 v=0
81792 On ch=1 n=55 v=127
81964 On ch=1 n=55 v=0
81984 On ch=1 n=53 v=127
82176 On ch=1 n=51 v=127
82206 On ch=1 n=53 v=0
82483 On ch=1 n=51 v=0
82560 On ch=1 n=51 v=127
82752 On ch=1 n=50 v=127
82758 On ch=1 n=51 v=0
82944 On ch=1 n=50 v=0
82944 On ch=1 n=48 v=127
83710 On ch=1 n=48 v=0
84096 On ch=1 n=50 v=127
84288 On ch=1 n=48 v=127
84309 On ch=1 n=50 v=0
84434 On ch=1 n=48 v=0
84480 On ch=1 n=48 v=127
84802 On ch=1 n=48 v=0
84864 On ch=1 n=50 v=127
85030 On ch=1 n=50 v=0
85056 On ch=1 n=48 v=127
85215 On ch=1 n=48 v=0
85248 On ch=1 n=48 v=127
85585 On ch=1 n=48 v=0
85632 On ch=1 n=50 v=127
85806 On ch=1 n=50 v=0
85824 On ch=1 n=48 v=127
85985 On ch=1 n=48 v=0
86016 On ch=1 n=48 v=127
86400 On ch=1 n=57 v=127
86437 On ch=1 n=48 v=0
86979 On ch=1 n=57 v=0
87168 On ch=1 n=57 v=127
87360 On ch=1 n=57 v=0
87360 On ch=1 n=55 v=127
87552 On ch=1 n=54 v=127
87563 On ch=1 n=55 v=0
87850 On ch=1 n=54 v=0
87936 On ch=1 n=54 v=127
88117 On ch=1 n=54 v=0
88128 On ch=1 n=51 v=127
88320 On ch=1 n=50 v=127
88342 On ch=1 n=51 v=0
88625 On ch=1 n=50 v=0
88704 On ch=1 n=50 v=127
88896 On ch=1 n=48 v=127
88900 On ch=1 n=50 v=0
89088 On ch=1 n=48 v=0
89088 On ch=1 n=46 v=127
89909 On ch=1 n=46 v=0
90240 On ch=1 n=58 v=127
90432 On ch=1 n=57 v=127
90433 On ch=1 n=58 v=0
90604 On ch=1 n=57 v=0
90624 On ch=1 n=57 v=127
90999 On ch=1 n=57 v=0
91008 On ch=1 n=60 v=127
91392 On ch=1 n=54 v=127
91404 On ch=1 n=60 v=0
91734 On ch=1 n=54 v=0
91776 On ch=1 n=57 v=127
92160 On ch=1 n=57 v=0
92160 On ch=1 n=55 v=127
92533 On ch=1 n=55 v=0
92544 On ch=1 n=50 v=127
93299 On ch=1 n=50 v=0
93312 On ch=1 n=58 v=127
93504 On ch=1 n=57 v=127
93509 On ch=1 n=58 v=0
93673 On ch=1 n=57 v=0
93696 On ch=1 n=57 v=127
94069 On ch=1 n=57 v=0
94080 On ch=1 n=60 v=127
94459 On ch=1 n=60 v=0
94464 On ch=1 n=54 v=127
94848 On ch=1 n=57 v=127
94880 On ch=1 n=54 v=0
95232 On ch=1 n=55 v=127
95239 On ch=1 n=57 v=0
95615 On ch=1 n=55 v=0
95616 On ch=1 n=58 v=127
96000 On ch=1 n=57 v=127
96003 On ch=1 n=57 v=127
96003 On ch=1 n=57 v=127
96014 On ch=1 n=58 v=0
96095 On ch=1 n=57 v=0
96098 On ch=1 n=57 v=0
96098 On ch=1 n=57 v=0
96134 On ch=1 n=58 v=127
96192 On ch=1 n=57 v=127
96205 On ch=1 n=57 v=127
96231 On ch=1 n=58 v=0
96264 On ch=1 n=55 v=127
96278 On ch=1 n=57 v=0
96291 On ch=1 n=57 v=0
96366 On ch=1 n=55 v=0
96384 On ch=1 n=53 v=127
96576 On ch=1 n=51 v=127
96622 On ch=1 n=53 v=0
96768 On ch=1 n=51 v=0
96768 On ch=1 n=50 v=127
97152 On ch=1 n=54 v=127
97168 On ch=1 n=50 v=0
97506 On ch=1 n=54 v=0
97536 On ch=1 n=55 v=127
97870 On ch=1 n=55 v=0
97920 On ch=1 n=57 v=127
98304 On ch=1 n=57 v=0
98304 On ch=1 n=58 v=127
98643 On ch=1 n=58 v=0
98688 On ch=1 n=60 v=127
98857 On ch=1 n=60 v=0
98880 On ch=1 n=58 v=127
99054 On ch=1 n=58 v=0
99072 On ch=1 n=57 v=127
99429 On ch=1 n=57 v=0
99456 On ch=1 n=55 v=127
99811 On ch=1 n=55 v=0
99840 On ch=1 n=62 v=127
100088 On ch=1 n=62 v=0
100608 On ch=1 n=63 v=127
101376 On ch=1 n=62 v=127
101392 On ch=1 n=63 v=0
101650 On ch=1 n=62 v=0
102144 On ch=1 n=63 v=127
102912 On ch=1 n=62 v=127
102921 On ch=1 n=63 v=0
103082 On ch=1 n=62 v=0
103296 On ch=1 n=63 v=127
103511 On ch=1 n=63 v=0
103680 On ch=1 n=62 v=127
103857 On ch=1 n=62 v=0
104064 On ch=1 n=63 v=127
104233 On ch=1 n=63 v=0
104448 On ch=1 n=62 v=127
105322 On ch=1 n=62 v=0
105600 On ch=1 n=63 v=127
105792 On ch=1 n=62 v=127
105810 On ch=1 n=63 v=0
105947 On ch=1 n=62 v=0
105984 On ch=1 n=62 v=127
107097 On ch=1 n=62 v=0
107136 On ch=1 n=63 v=127
107328 On ch=1 n=62 v=127
107346 On ch=1 n=63 v=0
107476 On ch=1 n=62 v=0
107520 On ch=1 n=62 v=127
108635 On ch=1 n=62 v=0
108672 On ch=1 n=51 v=127
108864 On ch=1 n=50 v=127
108882 On ch=1 n=51 v=0
109038 On ch=1 n=50 v=0
109056 On ch=1 n=50 v=127
109392 On ch=1 n=50 v=0
109440 On ch=1 n=51 v=127
109632 On ch=1 n=50 v=127
109650 On ch=1 n=51 v=0
109806 On ch=1 n=50 v=0
109824 On ch=1 n=50 v=127
110160 On ch=1 n=50 v=0
110208 On ch=1 n=51 v=127
110400 On ch=1 n=50 v=127
110418 On ch=1 n=51 v=0
110565 On ch=1 n=50 v=0
110592 On ch=1 n=50 v=127
111660 On ch=1 n=50 v=0
111744 On ch=1 n=62 v=127
111936 On ch=1 n=62 v=0
111936 On ch=1 n=63 v=127
112104 On ch=1 n=63 v=0
112128 On ch=1 n=63 v=127
113164 On ch=1 n=63 v=0
113280 On ch=1 n=63 v=127
113472 On ch=1 n=62 v=127
113483 On ch=1 n=63 v=0
113624 On ch=1 n=62 v=0
113664 On ch=1 n=62 v=127
114677 On ch=1 n=62 v=0
114816 On ch=1 n=62 v=127
114991 On ch=1 n=62 v=0
115008 On ch=1 n=61 v=127
115186 On ch=1 n=61 v=0
115200 On ch=1 n=61 v=127
116231 On ch=1 n=61 v=0
116352 On ch=1 n=61 v=127
116521 On ch=1 n=61 v=0
116544 On ch=1 n=62 v=127
116700 On ch=1 n=62 v=0
116736 On ch=1 n=62 v=127
117882 On ch=1 n=62 v=0
117888 On ch=1 n=59 v=127
118052 On ch=1 n=59 v=0
118080 On ch=1 n=60 v=127
118236 On ch=1 n=60 v=0
118272 On ch=1 n=60 v=127
119424 On ch=1 n=57 v=127
119430 On ch=1 n=60 v=0
119573 On ch=1 n=57 v=0
119616 On ch=1 n=58 v=127
119771 On ch=1 n=58 v=0
119808 On ch=1 n=58 v=127
120947 On ch=1 n=58 v=0
120960 On ch=1 n=55 v=127
121115 On ch=1 n=55 v=0
121152 On ch=1 n=57 v=127
121315 On ch=1 n=57 v=0
121344 On ch=1 n=57 v=127
121720 On ch=1 n=57 v=0
121728 On ch=1 n=53 v=127
121889 On ch=1 n=53 v=0
121920 On ch=1 n=55 v=127
122084 On ch=1 n=55 v=0
122112 On ch=1 n=55 v=127
122496 On ch=1 n=51 v=127
122502 On ch=1 n=55 v=0
122880 On ch=1 n=51 v=0
122880 On ch=1 n=50 v=127
123139 On ch=1 n=50 v=0
123264 On ch=1 n=63 v=127
123452 On ch=1 n=63 v=0
123456 On ch=1 n=62 v=127
123622 On ch=1 n=62 v=0
123648 On ch=1 n=62 v=127
124665 On ch=1 n=62 v=0
124800 On ch=1 n=62 v=127
124992 On ch=1 n=61 v=127
125005 On ch=1 n=62 v=0
125166 On ch=1 n=61 v=0
125184 On ch=1 n=60 v=127
126211 On ch=1 n=60 v=0
126336 On ch=1 n=60 v=127
126528 On ch=1 n=59 v=127
126534 On ch=1 n=60 v=0
126720 On ch=1 n=58 v=127
126722 On ch=1 n=59 v=0
127698 On ch=1 n=58 v=0
127872 On ch=1 n=58 v=127
128052 On ch=1 n=58 v=0
128064 On ch=1 n=57 v=127
128247 On ch=1 n=57 v=0
128256 On ch=1 n=57 v=127
129234 On ch=1 n=57 v=0
129408 On ch=1 n=57 v=127
129600 On ch=1 n=56 v=127
129601 On ch=1 n=57 v=0
129782 On ch=1 n=56 v=0
129792 On ch=1 n=55 v=127
130095 On ch=1 n=55 v=0
130176 On ch=1 n=51 v=127
130368 On ch=1 n=50 v=127
130386 On ch=1 n=51 v=0
130532 On ch=1 n=50 v=0
130560 On ch=1 n=50 v=127
130917 On ch=1 n=50 v=0
130944 On ch=1 n=51 v=127
131136 On ch=1 n=50 v=127
131146 On ch=1 n=51 v=0
131302 On ch=1 n=50 v=0
131328 On ch=1 n=50 v=127
131665 On ch=1 n=50 v=0
131712 On ch=1 n=51 v=127
131900 On ch=1 n=51 v=0
131904 On ch=1 n=50 v=127
132061 On ch=1 n=50 v=0
132096 On ch=1 n=50 v=127
132480 On ch=1 n=58 v=127
132481 On ch=1 n=50 v=0
133018 On ch=1 n=58 v=0
133248 On ch=1 n=58 v=127
133415 On ch=1 n=58 v=0
133440 On ch=1 n=57 v=127
133632 On ch=1 n=55 v=127
133645 On ch=1 n=57 v=0
133989 On ch=1 n=55 v=0
134016 On ch=1 n=55 v=127
134208 On ch=1 n=53 v=127
134264 On ch=1 n=55 v=0
134400 On ch=1 n=51 v=127
134420 On ch=1 n=53 v=0
134739 On ch=1 n=51 v=0
134784 On ch=1 n=51 v=127
134976 On ch=1 n=51 v=0
134976 On ch=1 n=50 v=127
135168 On ch=1 n=48 v=127
135202 On ch=1 n=50 v=0
135935 On ch=1 n=48 v=0
136320 On ch=1 n=53 v=127
136476 On ch=1 n=53 v=0
136512 On ch=1 n=51 v=127
136666 On ch=1 n=51 v=0
136704 On ch=1 n=51 v=127
137081 On ch=1 n=51 v=0
137088 On ch=1 n=53 v=127
137241 On ch=1 n=53 v=0
137280 On ch=1 n=51 v=127
137441 On ch=1 n=51 v=0
137472 On ch=1 n=51 v=127
137807 On ch=1 n=51 v=0
137856 On ch=1 n=53 v=127
138023 On ch=1 n=53 v=0
138048 On ch=1 n=51 v=127
138199 On ch=1 n=51 v=0
138240 On ch=1 n=51 v=127
138612 On ch=1 n=51 v=0
138624 On ch=1 n=60 v=127
139160 On ch=1 n=60 v=0
139392 On ch=1 n=60 v=127
139584 On ch=1 n=58 v=127
139593 On ch=1 n=60 v=0
139770 On ch=1 n=58 v=0
139776 On ch=1 n=57 v=127
140133 On ch=1 n=57 v=0
140160 On ch=1 n=57 v=127
140335 On ch=1 n=57 v=0
140352 On ch=1 n=55 v=127
140544 On ch=1 n=53 v=127
140568 On ch=1 n=55 v=0
140892 On ch=1 n=53 v=0
140928 On ch=1 n=53 v=127
141098 On ch=1 n=53 v=0
141120 On ch=1 n=51 v=127
141312 On ch=1 n=50 v=127
141368 On ch=1 n=51 v=0
142082 On ch=1 n=50 v=0
142464 On ch=1 n=58 v=127
142634 On ch=1 n=58 v=0
142656 On ch=1 n=57 v=127
142830 On ch=1 n=57 v=0
142848 On ch=1 n=55 v=127
143196 On ch=1 n=55 v=0
143232 On ch=1 n=55 v=127
143410 On ch=1 n=55 v=0
143424 On ch=1 n=53 v=127
143589 On ch=1 n=53 v=0
143616 On ch=1 n=51 v=127
143955 On ch=1 n=51 v=0
144000 On ch=1 n=51 v=127
144162 On ch=1 n=51 v=0
144192 On ch=1 n=50 v=127
144354 On ch=1 n=50 v=0
144384 On ch=1 n=48 v=127
144723 On ch=1 n=48 v=0
144768 On ch=1 n=57 v=127
145411 On ch=1 n=57 v=0
145536 On ch=1 n=57 v=127
145706 On ch=1 n=57 v=0
145728 On ch=1 n=55 v=127
145898 On ch=1 n=55 v=0
145920 On ch=1 n=54 v=127
146268 On ch=1 n=54 v=0
146304 On ch=1 n=54 v=127
146474 On ch=1 n=54 v=0
146496 On ch=1 n=51 v=127
146666 On ch=1 n=51 v=0
146688 On ch=1 n=50 v=127
147036 On ch=1 n=50 v=0
147072 On ch=1 n=50 v=127
147238 On ch=1 n=50 v=0
147264 On ch=1 n=48 v=127
147423 On ch=1 n=48 v=0
147456 On ch=1 n=46 v=127
148322 On ch=1 n=46 v=0
148608 On ch=1 n=63 v=127
148781 On ch=1 n=63 v=0
148800 On ch=1 n=62 v=127
148951 On ch=1 n=62 v=0
148992 On ch=1 n=62 v=127
149367 On ch=1 n=62 v=0
149376 On ch=1 n=63 v=127
149545 On ch=1 n=63 v=0
149568 On ch=1 n=62 v=127
149714 On ch=1 n=62 v=0
149760 On ch=1 n=62 v=127
150098 On ch=1 n=62 v=0
150144 On ch=1 n=63 v=127
150329 On ch=1 n=63 v=0
150336 On ch=1 n=62 v=127
150497 On ch=1 n=62 v=0
150528 On ch=1 n=62 v=127
151205 On ch=1 n=62 v=0
151296 On ch=1 n=63 v=127
151808 On ch=1 n=63 v=0
151872 On ch=1 n=60 v=127
152064 On ch=1 n=58 v=127
152065 On ch=1 n=60 v=0
152632 On ch=1 n=58 v=0
152640 On ch=1 n=62 v=127
152832 On ch=1 n=60 v=127
152840 On ch=1 n=62 v=0
153408 On ch=1 n=57 v=127
153422 On ch=1 n=60 v=0
153577 On ch=1 n=57 v=0
153600 On ch=1 n=58 v=127
153818 On ch=1 n=58 v=0
153984 On ch=1 n=62 v=127
154176 On ch=1 n=62 v=0
154176 On ch=1 n=60 v=127
154363 On ch=1 n=60 v=0
154368 On ch=1 n=58 v=127
154558 On ch=1 n=58 v=0
154560 On ch=1 n=57 v=127
154752 On ch=1 n=57 v=0
154752 On ch=1 n=55 v=127
154944 On ch=1 n=55 v=0
154944 On ch=1 n=53 v=127
155117 On ch=1 n=53 v=0
155136 On ch=1 n=51 v=127
155312 On ch=1 n=51 v=0
155328 On ch=1 n=50 v=127
155520 On ch=1 n=50 v=0
155520 On ch=1 n=48 v=127
155712 On ch=1 n=48 v=0
155712 On ch=1 n=46 v=127
155898 On ch=1 n=46 v=0
155904 On ch=1 n=45 v=127
156096 On ch=1 n=45 v=0
156096 On ch=1 n=48 v=127
156261 On ch=1 n=48 v=0
156288 On ch=1 n=53 v=127
156435 On ch=1 n=53 v=0
156480 On ch=1 n=51 v=127
156672 On ch=1 n=51 v=0
156672 On ch=1 n=50 v=127
156839 On ch=1 n=50 v=0
157056 On ch=1 n=50 v=127
157223 On ch=1 n=50 v=0
157440 On ch=1 n=51 v=127
157605 On ch=1 n=51 v=0
157824 On ch=1 n=53 v=127
158007 On ch=1 n=53 v=0
158592 On ch=1 n=62 v=127
158784 On ch=1 n=62 v=0
158784 On ch=1 n=60 v=127
158971 On ch=1 n=60 v=0
158976 On ch=1 n=58 v=127
159166 On ch=1 n=58 v=0
159168 On ch=1 n=57 v=127
159360 On ch=1 n=57 v=0
159360 On ch=1 n=55 v=127
159552 On ch=1 n=55 v=0
159552 On ch=1 n=53 v=127
159725 On ch=1 n=53 v=0
159744 On ch=1 n=51 v=127
159920 On ch=1 n=51 v=0
159936 On ch=1 n=50 v=127
160128 On ch=1 n=50 v=0
160128 On ch=1 n=48 v=127
160320 On ch=1 n=48 v=0
160320 On ch=1 n=46 v=127
160506 On ch=1 n=46 v=0
160512 On ch=1 n=45 v=127
160704 On ch=1 n=45 v=0
160704 On ch=1 n=48 v=127
160869 On ch=1 n=48 v=0
160896 On ch=1 n=53 v=127
161043 On ch=1 n=53 v=0
161088 On ch=1 n=51 v=127
161280 On ch=1 n=51 v=0
161280 On ch=1 n=50 v=127
161447 On ch=1 n=50 v=0
161664 On ch=1 n=50 v=127
161831 On ch=1 n=50 v=0
162048 On ch=1 n=51 v=127
162213 On ch=1 n=51 v=0
162432 On ch=1 n=53 v=127
162615 On ch=1 n=53 v=0
162816 On ch=1 n=46 v=127
163046 On ch=1 n=46 v=0
163200 On ch=1 n=50 v=127
163397 On ch=1 n=50 v=0
163584 On ch=1 n=51 v=127
163785 On ch=1 n=51 v=0
163968 On ch=1 n=53 v=127
164163 On ch=1 n=53 v=0
170880 On ch=1 n=62 v=127
171072 On ch=1 n=62 v=0
171072 On ch=1 n=60 v=127
171259 On ch=1 n=60 v=0
171264 On ch=1 n=58 v=127
171454 On ch=1 n=58 v=0
171456 On ch=1 n=57 v=127
171648 On ch=1 n=57 v=0
171648 On ch=1 n=55 v=127
171840 On ch=1 n=55 v=0
171840 On ch=1 n=53 v=127
172013 On ch=1 n=53 v=0
172032 On ch=1 n=51 v=127
172208 On ch=1 n=51 v=0
172224 On ch=1 n=50 v=127
172416 On ch=1 n=50 v=0
172416 On ch=1 n=48 v=127
172608 On ch=1 n=48 v=0
172608 On ch=1 n=46 v=127
172794 On ch=1 n=46 v=0
172800 On ch=1 n=45 v=127
172992 On ch=1 n=45 v=0
172992 On ch=1 n=48 v=127
173157 On ch=1 n=48 v=0
173184 On ch=1 n=53 v=127
173331 On ch=1 n=53 v=0
173376 On ch=1 n=51 v=127
173568 On ch=1 n=51 v=0
173568 On ch=1 n=50 v=127
173735 On ch=1 n=50 v=0
173952 On ch=1 n=50 v=127
174119 On ch=1 n=50 v=0
174336 On ch=1 n=51 v=127
174501 On ch=1 n=51 v=0
174720 On ch=1 n=53 v=127
174903 On ch=1 n=53 v=0
175104 On ch=1 n=46 v=127
175334 On ch=1 n=46 v=0
175488 On ch=1 n=50 v=127
175685 On ch=1 n=50 v=0
175872 On ch=1 n=51 v=127
176073 On ch=1 n=51 v=0
176256 On ch=1 n=53 v=127
176451 On ch=1 n=53 v=0
176640 On ch=1 n=46 v=127
176870 On ch=1 n=46 v=0
177408 On ch=1 n=51 v=127
177638 On ch=1 n=51 v=0
178176 On ch=1 n=53 v=127
178406 On ch=1 n=53 v=0
179712 On ch=1 n=41 v=127
179942 On ch=1 n=41 v=0
181248 On ch=1 n=46 v=127
182784 On ch=1 n=46 v=0
182784 Meta TrkEnd
TrkEnd
MTrk
0 Meta 0x21 00
0 Meta TrkName "Lead 1"
0 PrCh ch=2 p=25
0 Par ch=2 c=7 v=127
0 Par ch=2 c=10 v=118
13440 On ch=2 n=51 v=127
13611 On ch=2 n=51 v=0
13632 On ch=2 n=50 v=127
13791 On ch=2 n=50 v=0
13824 On ch=2 n=50 v=127
14146 On ch=2 n=50 v=0
14208 On ch=2 n=51 v=127
14400 On ch=2 n=50 v=127
14419 On ch=2 n=51 v=0
14555 On ch=2 n=50 v=0
14592 On ch=2 n=50 v=127
14936 On ch=2 n=50 v=0
14976 On ch=2 n=51 v=127
15123 On ch=2 n=51 v=0
15168 On ch=2 n=50 v=127
15325 On ch=2 n=50 v=0
15360 On ch=2 n=50 v=127
15744 On ch=2 n=58 v=127
15768 On ch=2 n=50 v=0
16317 On ch=2 n=58 v=0
16512 On ch=2 n=58 v=127
16682 On ch=2 n=58 v=0
16704 On ch=2 n=57 v=127
16872 On ch=2 n=57 v=0
16896 On ch=2 n=55 v=127
17230 On ch=2 n=55 v=0
17280 On ch=2 n=55 v=127
17452 On ch=2 n=55 v=0
17472 On ch=2 n=53 v=127
17664 On ch=2 n=53 v=0
17664 On ch=2 n=51 v=127
17971 On ch=2 n=51 v=0
18048 On ch=2 n=51 v=127
18240 On ch=2 n=50 v=127
18246 On ch=2 n=51 v=0
18432 On ch=2 n=50 v=0
18432 On ch=2 n=48 v=127
19198 On ch=2 n=48 v=0
19584 On ch=2 n=50 v=127
19776 On ch=2 n=48 v=127
19797 On ch=2 n=50 v=0
19922 On ch=2 n=48 v=0
19968 On ch=2 n=48 v=127
20290 On ch=2 n=48 v=0
20352 On ch=2 n=50 v=127
20518 On ch=2 n=50 v=0
20544 On ch=2 n=48 v=127
20703 On ch=2 n=48 v=0
20736 On ch=2 n=48 v=127
21073 On ch=2 n=48 v=0
21120 On ch=2 n=50 v=127
21294 On ch=2 n=50 v=0
21312 On ch=2 n=48 v=127
21473 On ch=2 n=48 v=0
21504 On ch=2 n=48 v=127
21888 On ch=2 n=48 v=0
21888 On ch=2 n=57 v=127
22467 On ch=2 n=57 v=0
22656 On ch=2 n=57 v=127
22848 On ch=2 n=55 v=127
22899 On ch=2 n=57 v=0
23040 On ch=2 n=54 v=127
23051 On ch=2 n=55 v=0
23338 On ch=2 n=54 v=0
23424 On ch=2 n=54 v=127
23605 On ch=2 n=54 v=0
23616 On ch=2 n=51 v=127
23808 On ch=2 n=50 v=127
23830 On ch=2 n=51 v=0
24113 On ch=2 n=50 v=0
24192 On ch=2 n=50 v=127
24384 On ch=2 n=48 v=127
24388 On ch=2 n=50 v=0
24576 On ch=2 n=46 v=127
24602 On ch=2 n=48 v=0
25397 On ch=2 n=46 v=0
25728 On ch=2 n=58 v=127
25920 On ch=2 n=57 v=127
25921 On ch=2 n=58 v=0
26092 On ch=2 n=57 v=0
26112 On ch=2 n=57 v=127
26435 On ch=2 n=57 v=0
26496 On ch=2 n=60 v=127
26880 On ch=2 n=54 v=127
26892 On ch=2 n=60 v=0
27222 On ch=2 n=54 v=0
27264 On ch=2 n=57 v=127
27648 On ch=2 n=55 v=127
27690 On ch=2 n=57 v=0
28021 On ch=2 n=55 v=0
28032 On ch=2 n=50 v=127
28787 On ch=2 n=50 v=0
28800 On ch=2 n=58 v=127
28992 On ch=2 n=57 v=127
28997 On ch=2 n=58 v=0
29161 On ch=2 n=57 v=0
29184 On ch=2 n=57 v=127
29557 On ch=2 n=57 v=0
29568 On ch=2 n=60 v=127
29947 On ch=2 n=60 v=0
29952 On ch=2 n=54 v=127
30336 On ch=2 n=57 v=127
30368 On ch=2 n=54 v=0
30720 On ch=2 n=55 v=127
30727 On ch=2 n=57 v=0
31103 On ch=2 n=55 v=0
31104 On ch=2 n=58 v=127
31488 On ch=2 n=57 v=127
31502 On ch=2 n=58 v=0
31680 On ch=2 n=55 v=127
31689 On ch=2 n=57 v=0
31864 On ch=2 n=55 v=0
31872 On ch=2 n=53 v=127
32064 On ch=2 n=53 v=0
32064 On ch=2 n=51 v=127
32256 On ch=2 n=51 v=0
32256 On ch=2 n=50 v=127
32640 On ch=2 n=54 v=127
32656 On ch=2 n=50 v=0
32994 On ch=2 n=54 v=0
33024 On ch=2 n=55 v=127
33358 On ch=2 n=55 v=0
33408 On ch=2 n=57 v=127
33792 On ch=2 n=57 v=0
33792 On ch=2 n=58 v=127
34122 On ch=2 n=58 v=0
34176 On ch=2 n=60 v=127
34327 On ch=2 n=60 v=0
34368 On ch=2 n=58 v=127
34515 On ch=2 n=58 v=0
34560 On ch=2 n=57 v=127
34917 On ch=2 n=57 v=0
34944 On ch=2 n=55 v=127
35299 On ch=2 n=55 v=0
35328 On ch=2 n=62 v=127
35576 On ch=2 n=62 v=0
36096 On ch=2 n=63 v=127
36864 On ch=2 n=62 v=127
36880 On ch=2 n=63 v=0
37138 On ch=2 n=62 v=0
37632 On ch=2 n=63 v=127
38400 On ch=2 n=62 v=127
38409 On ch=2 n=63 v=0
38570 On ch=2 n=62 v=0
38784 On ch=2 n=63 v=127
38999 On ch=2 n=63 v=0
39168 On ch=2 n=62 v=127
39345 On ch=2 n=62 v=0
39552 On ch=2 n=63 v=127
39721 On ch=2 n=63 v=0
39936 On ch=2 n=62 v=127
40810 On ch=2 n=62 v=0
41088 On ch=2 n=51 v=127
41280 On ch=2 n=50 v=127
41298 On ch=2 n=51 v=0
41444 On ch=2 n=50 v=0
41472 On ch=2 n=50 v=127
41750 On ch=2 n=50 v=0
41856 On ch=2 n=51 v=127
42048 On ch=2 n=50 v=127
42058 On ch=2 n=51 v=0
42214 On ch=2 n=50 v=0
42240 On ch=2 n=50 v=127
42577 On ch=2 n=50 v=0
42624 On ch=2 n=51 v=127
42812 On ch=2 n=51 v=0
42816 On ch=2 n=50 v=127
42973 On ch=2 n=50 v=0
43008 On ch=2 n=50 v=127
43392 On ch=2 n=58 v=127
43393 On ch=2 n=50 v=0
43930 On ch=2 n=58 v=0
44160 On ch=2 n=58 v=127
44327 On ch=2 n=58 v=0
44352 On ch=2 n=57 v=127
44544 On ch=2 n=55 v=127
44557 On ch=2 n=57 v=0
44841 On ch=2 n=55 v=0
44928 On ch=2 n=55 v=127
45120 On ch=2 n=53 v=127
45176 On ch=2 n=55 v=0
45312 On ch=2 n=51 v=127
45332 On ch=2 n=53 v=0
45581 On ch=2 n=51 v=0
45696 On ch=2 n=51 v=127
45888 On ch=2 n=51 v=0
45888 On ch=2 n=50 v=127
46080 On ch=2 n=50 v=0
46080 On ch=2 n=48 v=127
46847 On ch=2 n=48 v=0
47232 On ch=2 n=53 v=127
47388 On ch=2 n=53 v=0
47424 On ch=2 n=51 v=127
47578 On ch=2 n=51 v=0
47616 On ch=2 n=51 v=127
47993 On ch=2 n=51 v=0
48000 On ch=2 n=53 v=127
48153 On ch=2 n=53 v=0
48192 On ch=2 n=51 v=127
48353 On ch=2 n=51 v=0
48384 On ch=2 n=51 v=127
48719 On ch=2 n=51 v=0
48768 On ch=2 n=53 v=127
48935 On ch=2 n=53 v=0
48960 On ch=2 n=51 v=127
49111 On ch=2 n=51 v=0
49152 On ch=2 n=51 v=127
49524 On ch=2 n=51 v=0
49536 On ch=2 n=60 v=127
50072 On ch=2 n=60 v=0
50304 On ch=2 n=60 v=127
50496 On ch=2 n=58 v=127
50505 On ch=2 n=60 v=0
50682 On ch=2 n=58 v=0
50688 On ch=2 n=57 v=127
50991 On ch=2 n=57 v=0
51072 On ch=2 n=57 v=127
51247 On ch=2 n=57 v=0
51264 On ch=2 n=55 v=127
51456 On ch=2 n=53 v=127
51480 On ch=2 n=55 v=0
51719 On ch=2 n=53 v=0
51840 On ch=2 n=53 v=127
52010 On ch=2 n=53 v=0
52032 On ch=2 n=51 v=127
52224 On ch=2 n=51 v=0
52224 On ch=2 n=50 v=127
52994 On ch=2 n=50 v=0
53376 On ch=2 n=58 v=127
53529 On ch=2 n=58 v=0
53568 On ch=2 n=58 v=127
53721 On ch=2 n=58 v=0
53760 On ch=2 n=58 v=127
54528 On ch=2 n=58 v=0
54528 On ch=2 n=57 v=127
54785 On ch=2 n=57 v=0
54912 On ch=2 n=51 v=127
55063 On ch=2 n=51 v=0
55104 On ch=2 n=51 v=127
55257 On ch=2 n=51 v=0
55296 On ch=2 n=51 v=127
56064 On ch=2 n=50 v=127
56081 On ch=2 n=51 v=0
56248 On ch=2 n=50 v=0
56448 On ch=2 n=58 v=127
56601 On ch=2 n=58 v=0
56640 On ch=2 n=58 v=127
56793 On ch=2 n=58 v=0
56832 On ch=2 n=58 v=127
57559 On ch=2 n=58 v=0
57600 On ch=2 n=57 v=127
57748 On ch=2 n=57 v=0
57984 On ch=2 n=51 v=127
58150 On ch=2 n=51 v=0
58176 On ch=2 n=51 v=127
58325 On ch=2 n=51 v=0
58368 On ch=2 n=51 v=127
59136 On ch=2 n=51 v=0
59136 On ch=2 n=50 v=127
59342 On ch=2 n=50 v=0
59520 On ch=2 n=63 v=127
59693 On ch=2 n=63 v=0
59712 On ch=2 n=62 v=127
59863 On ch=2 n=62 v=0
59904 On ch=2 n=62 v=127
60288 On ch=2 n=63 v=127
60304 On ch=2 n=62 v=0
60423 On ch=2 n=63 v=0
60480 On ch=2 n=62 v=127
60626 On ch=2 n=62 v=0
60672 On ch=2 n=62 v=127
61010 On ch=2 n=62 v=0
61056 On ch=2 n=63 v=127
61241 On ch=2 n=63 v=0
61248 On ch=2 n=62 v=127
61409 On ch=2 n=62 v=0
61440 On ch=2 n=62 v=127
62117 On ch=2 n=62 v=0
62208 On ch=2 n=63 v=127
62720 On ch=2 n=63 v=0
62784 On ch=2 n=60 v=127
62976 On ch=2 n=58 v=127
62977 On ch=2 n=60 v=0
63544 On ch=2 n=58 v=0
63552 On ch=2 n=62 v=127
63744 On ch=2 n=60 v=127
63752 On ch=2 n=62 v=0
64320 On ch=2 n=57 v=127
64334 On ch=2 n=60 v=0
64489 On ch=2 n=57 v=0
64512 On ch=2 n=58 v=127
64730 On ch=2 n=58 v=0
64896 On ch=2 n=62 v=127
65088 On ch=2 n=62 v=0
65088 On ch=2 n=60 v=127
65275 On ch=2 n=60 v=0
65280 On ch=2 n=58 v=127
65470 On ch=2 n=58 v=0
65472 On ch=2 n=57 v=127
65664 On ch=2 n=57 v=0
65664 On ch=2 n=55 v=127
65856 On ch=2 n=55 v=0
65856 On ch=2 n=53 v=127
66029 On ch=2 n=53 v=0
66048 On ch=2 n=51 v=127
66224 On ch=2 n=51 v=0
66240 On ch=2 n=50 v=127
66432 On ch=2 n=50 v=0
66432 On ch=2 n=48 v=127
66624 On ch=2 n=48 v=0
66624 On ch=2 n=46 v=127
66810 On ch=2 n=46 v=0
66816 On ch=2 n=45 v=127
67008 On ch=2 n=45 v=0
67008 On ch=2 n=48 v=127
67173 On ch=2 n=48 v=0
67200 On ch=2 n=53 v=127
67347 On ch=2 n=53 v=0
67392 On ch=2 n=51 v=127
67584 On ch=2 n=51 v=0
67584 On ch=2 n=50 v=127
67751 On ch=2 n=50 v=0
67968 On ch=2 n=50 v=127
68135 On ch=2 n=50 v=0
68352 On ch=2 n=51 v=127
68517 On ch=2 n=51 v=0
68736 On ch=2 n=53 v=127
68919 On ch=2 n=53 v=0
69504 On ch=2 n=62 v=127
69696 On ch=2 n=62 v=0
69696 On ch=2 n=60 v=127
69883 On ch=2 n=60 v=0
69888 On ch=2 n=58 v=127
70078 On ch=2 n=58 v=0
70080 On ch=2 n=57 v=127
70272 On ch=2 n=57 v=0
70272 On ch=2 n=55 v=127
70464 On ch=2 n=55 v=0
70464 On ch=2 n=53 v=127
70637 On ch=2 n=53 v=0
70656 On ch=2 n=51 v=127
70832 On ch=2 n=51 v=0
70848 On ch=2 n=50 v=127
71040 On ch=2 n=50 v=0
71040 On ch=2 n=48 v=127
71232 On ch=2 n=48 v=0
71232 On ch=2 n=46 v=127
71418 On ch=2 n=46 v=0
71424 On ch=2 n=45 v=127
71616 On ch=2 n=45 v=0
71616 On ch=2 n=48 v=127
71781 On ch=2 n=48 v=0
71808 On ch=2 n=53 v=127
71955 On ch=2 n=53 v=0
72000 On ch=2 n=51 v=127
72192 On ch=2 n=51 v=0
72192 On ch=2 n=50 v=127
72359 On ch=2 n=50 v=0
72576 On ch=2 n=50 v=127
72743 On ch=2 n=50 v=0
72960 On ch=2 n=51 v=127
73125 On ch=2 n=51 v=0
73344 On ch=2 n=53 v=127
73527 On ch=2 n=53 v=0
73728 On ch=2 n=46 v=127
73958 On ch=2 n=46 v=0
74112 On ch=2 n=50 v=127
74309 On ch=2 n=50 v=0
74496 On ch=2 n=51 v=127
74697 On ch=2 n=51 v=0
74880 On ch=2 n=53 v=127
75075 On ch=2 n=53 v=0
75264 On ch=2 n=46 v=127
75517 On ch=2 n=46 v=0
76032 On ch=2 n=53 v=127
76359 On ch=2 n=53 v=0
76800 On ch=2 n=46 v=127
77086 On ch=2 n=46 v=0
77952 On ch=2 n=51 v=127
78123 On ch=2 n=51 v=0
78144 On ch=2 n=50 v=127
78303 On ch=2 n=50 v=0
78336 On ch=2 n=50 v=127
78658 On ch=2 n=50 v=0
78720 On ch=2 n=51 v=127
78912 On ch=2 n=51 v=0
78912 On ch=2 n=50 v=127
79082 On ch=2 n=50 v=0
79104 On ch=2 n=50 v=127
79448 On ch=2 n=50 v=0
79488 On ch=2 n=51 v=127
79663 On ch=2 n=51 v=0
79680 On ch=2 n=50 v=127
79837 On ch=2 n=50 v=0
79872 On ch=2 n=50 v=127
80256 On ch=2 n=58 v=127
80280 On ch=2 n=50 v=0
80708 On ch=2 n=58 v=0
81024 On ch=2 n=58 v=127
81194 On ch=2 n=58 v=0
81216 On ch=2 n=57 v=127
81384 On ch=2 n=57 v=0
81408 On ch=2 n=55 v=127
81742 On ch=2 n=55 v=0
81792 On ch=2 n=55 v=127
81964 On ch=2 n=55 v=0
81984 On ch=2 n=53 v=127
82176 On ch=2 n=51 v=127
82206 On ch=2 n=53 v=0
82483 On ch=2 n=51 v=0
82560 On ch=2 n=51 v=127
82752 On ch=2 n=50 v=127
82758 On ch=2 n=51 v=0
82944 On ch=2 n=50 v=0
82944 On ch=2 n=48 v=127
83710 On ch=2 n=48 v=0
84096 On ch=2 n=50 v=127
84288 On ch=2 n=48 v=127
84309 On ch=2 n=50 v=0
84434 On ch=2 n=48 v=0
84480 On ch=2 n=48 v=127
84802 On ch=2 n=48 v=0
84864 On ch=2 n=50 v=127
85030 On ch=2 n=50 v=0
85056 On ch=2 n=48 v=127
85215 On ch=2 n=48 v=0
85248 On ch=2 n=48 v=127
85585 On ch=2 n=48 v=0
85632 On ch=2 n=50 v=127
85806 On ch=2 n=50 v=0
85824 On ch=2 n=48 v=127
85985 On ch=2 n=48 v=0
86016 On ch=2 n=48 v=127
86400 On ch=2 n=57 v=127
86437 On ch=2 n=48 v=0
86979 On ch=2 n=57 v=0
87168 On ch=2 n=57 v=127
87360 On ch=2 n=57 v=0
87360 On ch=2 n=55 v=127
87552 On ch=2 n=54 v=127
87563 On ch=2 n=55 v=0
87850 On ch=2 n=54 v=0
87936 On ch=2 n=54 v=127
88117 On ch=2 n=54 v=0
88128 On ch=2 n=51 v=127
88320 On ch=2 n=50 v=127
88342 On ch=2 n=51 v=0
88625 On ch=2 n=50 v=0
88704 On ch=2 n=50 v=127
88896 On ch=2 n=48 v=127
88900 On ch=2 n=50 v=0
89088 On ch=2 n=48 v=0
89088 On ch=2 n=46 v=127
89909 On ch=2 n=46 v=0
90240 On ch=2 n=58 v=127
90432 On ch=2 n=57 v=127
90433 On ch=2 n=58 v=0
90604 On ch=2 n=57 v=0
90624 On ch=2 n=57 v=127
90999 On ch=2 n=57 v=0
91008 On ch=2 n=60 v=127
91392 On ch=2 n=54 v=127
91404 On ch=2 n=60 v=0
91734 On ch=2 n=54 v=0
91776 On ch=2 n=57 v=127
92160 On ch=2 n=57 v=0
92160 On ch=2 n=55 v=127
92533 On ch=2 n=55 v=0
92544 On ch=2 n=50 v=127
93299 On ch=2 n=50 v=0
93312 On ch=2 n=58 v=127
93504 On ch=2 n=57 v=127
93509 On ch=2 n=58 v=0
93673 On ch=2 n=57 v=0
93696 On ch=2 n=57 v=127
94069 On ch=2 n=57 v=0
94080 On ch=2 n=60 v=127
94459 On ch=2 n=60 v=0
94464 On ch=2 n=54 v=127
94848 On ch=2 n=57 v=127
94880 On ch=2 n=54 v=0
95232 On ch=2 n=55 v=127
95239 On ch=2 n=57 v=0
95615 On ch=2 n=55 v=0
95616 On ch=2 n=58 v=127
96000 On ch=2 n=57 v=127
96003 On ch=2 n=57 v=127
96003 On ch=2 n=57 v=127
96014 On ch=2 n=58 v=0
96095 On ch=2 n=57 v=0
96098 On ch=2 n=57 v=0
96098 On ch=2 n=57 v=0
96134 On ch=2 n=58 v=127
96192 On ch=2 n=57 v=127
96205 On ch=2 n=57 v=127
96231 On ch=2 n=58 v=0
96264 On ch=2 n=55 v=127
96278 On ch=2 n=57 v=0
96291 On ch=2 n=57 v=0
96366 On ch=2 n=55 v=0
96384 On ch=2 n=53 v=127
96576 On ch=2 n=51 v=127
96622 On ch=2 n=53 v=0
96768 On ch=2 n=51 v=0
96768 On ch=2 n=50 v=127
97152 On ch=2 n=54 v=127
97168 On ch=2 n=50 v=0
97506 On ch=2 n=54 v=0
97536 On ch=2 n=55 v=127
97870 On ch=2 n=55 v=0
97920 On ch=2 n=57 v=127
98304 On ch=2 n=57 v=0
98304 On ch=2 n=58 v=127
98643 On ch=2 n=58 v=0
98688 On ch=2 n=60 v=127
98857 On ch=2 n=60 v=0
98880 On ch=2 n=58 v=127
99054 On ch=2 n=58 v=0
99072 On ch=2 n=57 v=127
99429 On ch=2 n=57 v=0
99456 On ch=2 n=55 v=127
99811 On ch=2 n=55 v=0
99840 On ch=2 n=62 v=127
100088 On ch=2 n=62 v=0
100608 On ch=2 n=63 v=127
101376 On ch=2 n=62 v=127
101392 On ch=2 n=63 v=0
101650 On ch=2 n=62 v=0
102144 On ch=2 n=63 v=127
102912 On ch=2 n=62 v=127
102921 On ch=2 n=63 v=0
103082 On ch=2 n=62 v=0
103296 On ch=2 n=63 v=127
103511 On ch=2 n=63 v=0
103680 On ch=2 n=62 v=127
103857 On ch=2 n=62 v=0
104064 On ch=2 n=63 v=127
104233 On ch=2 n=63 v=0
104448 On ch=2 n=62 v=127
105322 On ch=2 n=62 v=0
105600 On ch=2 n=63 v=127
105792 On ch=2 n=62 v=127
105810 On ch=2 n=63 v=0
105947 On ch=2 n=62 v=0
105984 On ch=2 n=62 v=127
107097 On ch=2 n=62 v=0
107136 On ch=2 n=63 v=127
107328 On ch=2 n=62 v=127
107346 On ch=2 n=63 v=0
107476 On ch=2 n=62 v=0
107520 On ch=2 n=62 v=127
108635 On ch=2 n=62 v=0
108672 On ch=2 n=51 v=127
108864 On ch=2 n=50 v=127
108882 On ch=2 n=51 v=0
109038 On ch=2 n=50 v=0
109056 On ch=2 n=50 v=127
109392 On ch=2 n=50 v=0
109440 On ch=2 n=51 v=127
109632 On ch=2 n=50 v=127
109650 On ch=2 n=51 v=0
109806 On ch=2 n=50 v=0
109824 On ch=2 n=50 v=127
110160 On ch=2 n=50 v=0
110208 On ch=2 n=51 v=127
110400 On ch=2 n=50 v=127
110418 On ch=2 n=51 v=0
110565 On ch=2 n=50 v=0
110592 On ch=2 n=50 v=127
111660 On ch=2 n=50 v=0
111744 On ch=2 n=62 v=127
111936 On ch=2 n=62 v=0
111936 On ch=2 n=63 v=127
112104 On ch=2 n=63 v=0
112128 On ch=2 n=63 v=127
113164 On ch=2 n=63 v=0
113280 On ch=2 n=63 v=127
113472 On ch=2 n=62 v=127
113483 On ch=2 n=63 v=0
113624 On ch=2 n=62 v=0
113664 On ch=2 n=62 v=127
114677 On ch=2 n=62 v=0
114816 On ch=2 n=62 v=127
114991 On ch=2 n=62 v=0
115008 On ch=2 n=61 v=127
115186 On ch=2 n=61 v=0
115200 On ch=2 n=61 v=127
116231 On ch=2 n=61 v=0
116352 On ch=2 n=61 v=127
116521 On ch=2 n=61 v=0
116544 On ch=2 n=62 v=127
116700 On ch=2 n=62 v=0
116736 On ch=2 n=62 v=127
117882 On ch=2 n=62 v=0
117888 On ch=2 n=59 v=127
118052 On ch=2 n=59 v=0
118080 On ch=2 n=60 v=127
118236 On ch=2 n=60 v=0
118272 On ch=2 n=60 v=127
119424 On ch=2 n=57 v=127
119430 On ch=2 n=60 v=0
119573 On ch=2 n=57 v=0
119616 On ch=2 n=58 v=127
119771 On ch=2 n=58 v=0
119808 On ch=2 n=58 v=127
120947 On ch=2 n=58 v=0
120960 On ch=2 n=55 v=127
121115 On ch=2 n=55 v=0
121152 On ch=2 n=57 v=127
121315 On ch=2 n=57 v=0
121344 On ch=2 n=57 v=127
121720 On ch=2 n=57 v=0
121728 On ch=2 n=53 v=127
121889 On ch=2 n=53 v=0
121920 On ch=2 n=55 v=127
122084 On ch=2 n=55 v=0
122112 On ch=2 n=55 v=127
122496 On ch=2 n=51 v=127
122502 On ch=2 n=55 v=0
122880 On ch=2 n=51 v=0
122880 On ch=2 n=50 v=127
123139 On ch=2 n=50 v=0
123264 On ch=2 n=63 v=127
123452 On ch=2 n=63 v=0
123456 On ch=2 n=62 v=127
123622 On ch=2 n=62 v=0
123648 On ch=2 n=62 v=127
124665 On ch=2 n=62 v=0
124800 On ch=2 n=62 v=127
124992 On ch=2 n=61 v=127
125005 On ch=2 n=62 v=0
125166 On ch=2 n=61 v=0
125184 On ch=2 n=60 v=127
126211 On ch=2 n=60 v=0
126336 On ch=2 n=60 v=127
126528 On ch=2 n=59 v=127
126534 On ch=2 n=60 v=0
126720 On ch=2 n=58 v=127
126722 On ch=2 n=59 v=0
127698 On ch=2 n=58 v=0
127872 On ch=2 n=58 v=127
128052 On ch=2 n=58 v=0
128064 On ch=2 n=57 v=127
128247 On ch=2 n=57 v=0
128256 On ch=2 n=57 v=127
129234 On ch=2 n=57 v=0
129408 On ch=2 n=57 v=127
129600 On ch=2 n=56 v=127
129601 On ch=2 n=57 v=0
129782 On ch=2 n=56 v=0
129792 On ch=2 n=55 v=127
130095 On ch=2 n=55 v=0
130176 On ch=2 n=51 v=127
130368 On ch=2 n=50 v=127
130386 On ch=2 n=51 v=0
130532 On ch=2 n=50 v=0
130560 On ch=2 n=50 v=127
130917 On ch=2 n=50 v=0
130944 On ch=2 n=51 v=127
131136 On ch=2 n=50 v=127
131146 On ch=2 n=51 v=0
131302 On ch=2 n=50 v=0
131328 On ch=2 n=50 v=127
131665 On ch=2 n=50 v=0
131712 On ch=2 n=51 v=127
131900 On ch=2 n=51 v=0
131904 On ch=2 n=50 v=127
132061 On ch=2 n=50 v=0
132096 On ch=2 n=50 v=127
132480 On ch=2 n=58 v=127
132481 On ch=2 n=50 v=0
133018 On ch=2 n=58 v=0
133248 On ch=2 n=58 v=127
133415 On ch=2 n=58 v=0
133440 On ch=2 n=57 v=127
133632 On ch=2 n=55 v=127
133645 On ch=2 n=57 v=0
133989 On ch=2 n=55 v=0
134016 On ch=2 n=55 v=127
134208 On ch=2 n=53 v=127
134264 On ch=2 n=55 v=0
134400 On ch=2 n=51 v=127
134420 On ch=2 n=53 v=0
134739 On ch=2 n=51 v=0
134784 On ch=2 n=51 v=127
134976 On ch=2 n=51 v=0
134976 On ch=2 n=50 v=127
135168 On ch=2 n=48 v=127
135202 On ch=2 n=50 v=0
135935 On ch=2 n=48 v=0
136320 On ch=2 n=53 v=127
136476 On ch=2 n=53 v=0
136512 On ch=2 n=51 v=127
136666 On ch=2 n=51 v=0
136704 On ch=2 n=51 v=127
137081 On ch=2 n=51 v=0
137088 On ch=2 n=53 v=127
137241 On ch=2 n=53 v=0
137280 On ch=2 n=51 v=127
137441 On ch=2 n=51 v=0
137472 On ch=2 n=51 v=127
137807 On ch=2 n=51 v=0
137856 On ch=2 n=53 v=127
138023 On ch=2 n=53 v=0
138048 On ch=2 n=51 v=127
138199 On ch=2 n=51 v=0
138240 On ch=2 n=51 v=127
138612 On ch=2 n=51 v=0
138624 On ch=2 n=60 v=127
139160 On ch=2 n=60 v=0
139392 On ch=2 n=60 v=127
139584 On ch=2 n=58 v=127
139593 On ch=2 n=60 v=0
139770 On ch=2 n=58 v=0
139776 On ch=2 n=57 v=127
140133 On ch=2 n=57 v=0
140160 On ch=2 n=57 v=127
140335 On ch=2 n=57 v=0
140352 On ch=2 n=55 v=127
140544 On ch=2 n=53 v=127
140568 On ch=2 n=55 v=0
140892 On ch=2 n=53 v=0
140928 On ch=2 n=53 v=127
141098 On ch=2 n=53 v=0
141120 On ch=2 n=51 v=127
141312 On ch=2 n=50 v=127
141368 On ch=2 n=51 v=0
142082 On ch=2 n=50 v=0
142464 On ch=2 n=58 v=127
142634 On ch=2 n=58 v=0
142656 On ch=2 n=57 v=127
142830 On ch=2 n=57 v=0
142848 On ch=2 n=55 v=127
143196 On ch=2 n=55 v=0
143232 On ch=2 n=55 v=127
143410 On ch=2 n=55 v=0
143424 On ch=2 n=53 v=127
143589 On ch=2 n=53 v=0
143616 On ch=2 n=51 v=127
143955 On ch=2 n=51 v=0
144000 On ch=2 n=51 v=127
144162 On ch=2 n=51 v=0
144192 On ch=2 n=50 v=127
144354 On ch=2 n=50 v=0
144384 On ch=2 n=48 v=127
144723 On ch=2 n=48 v=0
144768 On ch=2 n=57 v=127
145411 On ch=2 n=57 v=0
145536 On ch=2 n=57 v=127
145706 On ch=2 n=57 v=0
145728 On ch=2 n=55 v=127
145898 On ch=2 n=55 v=0
145920 On ch=2 n=54 v=127
146268 On ch=2 n=54 v=0
146304 On ch=2 n=54 v=127
146474 On ch=2 n=54 v=0
146496 On ch=2 n=51 v=127
146666 On ch=2 n=51 v=0
146688 On ch=2 n=50 v=127
147036 On ch=2 n=50 v=0
147072 On ch=2 n=50 v=127
147238 On ch=2 n=50 v=0
147264 On ch=2 n=48 v=127
147423 On ch=2 n=48 v=0
147456 On ch=2 n=46 v=127
148322 On ch=2 n=46 v=0
148608 On ch=2 n=63 v=127
148781 On ch=2 n=63 v=0
148800 On ch=2 n=62 v=127
148951 On ch=2 n=62 v=0
148992 On ch=2 n=62 v=127
149367 On ch=2 n=62 v=0
149376 On ch=2 n=63 v=127
149545 On ch=2 n=63 v=0
149568 On ch=2 n=62 v=127
149714 On ch=2 n=62 v=0
149760 On ch=2 n=62 v=127
150098 On ch=2 n=62 v=0
150144 On ch=2 n=63 v=127
150329 On ch=2 n=63 v=0
150336 On ch=2 n=62 v=127
150497 On ch=2 n=62 v=0
150528 On ch=2 n=62 v=127
151205 On ch=2 n=62 v=0
151296 On ch=2 n=63 v=127
151808 On ch=2 n=63 v=0
151872 On ch=2 n=60 v=127
152064 On ch=2 n=58 v=127
152065 On ch=2 n=60 v=0
152632 On ch=2 n=58 v=0
152640 On ch=2 n=62 v=127
152832 On ch=2 n=60 v=127
152840 On ch=2 n=62 v=0
153408 On ch=2 n=57 v=127
153422 On ch=2 n=60 v=0
153577 On ch=2 n=57 v=0
153600 On ch=2 n=58 v=127
153818 On ch=2 n=58 v=0
153984 On ch=2 n=62 v=127
154176 On ch=2 n=62 v=0
154176 On ch=2 n=60 v=127
154363 On ch=2 n=60 v=0
154368 On ch=2 n=58 v=127
154558 On ch=2 n=58 v=0
154560 On ch=2 n=57 v=127
154752 On ch=2 n=57 v=0
154752 On ch=2 n=55 v=127
154944 On ch=2 n=55 v=0
154944 On ch=2 n=53 v=127
155117 On ch=2 n=53 v=0
155136 On ch=2 n=51 v=127
155312 On ch=2 n=51 v=0
155328 On ch=2 n=50 v=127
155520 On ch=2 n=50 v=0
155520 On ch=2 n=48 v=127
155712 On ch=2 n=48 v=0
155712 On ch=2 n=46 v=127
155898 On ch=2 n=46 v=0
155904 On ch=2 n=45 v=127
156096 On ch=2 n=45 v=0
156096 On ch=2 n=48 v=127
156261 On ch=2 n=48 v=0
156288 On ch=2 n=53 v=127
156435 On ch=2 n=53 v=0
156480 On ch=2 n=51 v=127
156672 On ch=2 n=51 v=0
156672 On ch=2 n=50 v=127
156839 On ch=2 n=50 v=0
157056 On ch=2 n=50 v=127
157223 On ch=2 n=50 v=0
157440 On ch=2 n=51 v=127
157605 On ch=2 n=51 v=0
157824 On ch=2 n=53 v=127
158007 On ch=2 n=53 v=0
158592 On ch=2 n=62 v=127
158784 On ch=2 n=62 v=0
158784 On ch=2 n=60 v=127
158971 On ch=2 n=60 v=0
158976 On ch=2 n=58 v=127
159166 On ch=2 n=58 v=0
159168 On ch=2 n=57 v=127
159360 On ch=2 n=57 v=0
159360 On ch=2 n=55 v=127
159552 On ch=2 n=55 v=0
159552 On ch=2 n=53 v=127
159725 On ch=2 n=53 v=0
159744 On ch=2 n=51 v=127
159920 On ch=2 n=51 v=0
159936 On ch=2 n=50 v=127
160128 On ch=2 n=50 v=0
160128 On ch=2 n=48 v=127
160320 On ch=2 n=48 v=0
160320 On ch=2 n=46 v=127
160506 On ch=2 n=46 v=0
160512 On ch=2 n=45 v=127
160704 On ch=2 n=45 v=0
160704 On ch=2 n=48 v=127
160869 On ch=2 n=48 v=0
160896 On ch=2 n=53 v=127
161043 On ch=2 n=53 v=0
161088 On ch=2 n=51 v=127
161280 On ch=2 n=51 v=0
161280 On ch=2 n=50 v=127
161447 On ch=2 n=50 v=0
161664 On ch=2 n=50 v=127
161831 On ch=2 n=50 v=0
162048 On ch=2 n=51 v=127
162213 On ch=2 n=51 v=0
162432 On ch=2 n=53 v=127
162615 On ch=2 n=53 v=0
162816 On ch=2 n=46 v=127
163046 On ch=2 n=46 v=0
163200 On ch=2 n=50 v=127
163397 On ch=2 n=50 v=0
163584 On ch=2 n=51 v=127
163785 On ch=2 n=51 v=0
163968 On ch=2 n=53 v=127
164163 On ch=2 n=53 v=0
170880 On ch=2 n=62 v=127
171072 On ch=2 n=62 v=0
171072 On ch=2 n=60 v=127
171259 On ch=2 n=60 v=0
171264 On ch=2 n=58 v=127
171454 On ch=2 n=58 v=0
171456 On ch=2 n=57 v=127
171648 On ch=2 n=57 v=0
171648 On ch=2 n=55 v=127
171840 On ch=2 n=55 v=0
171840 On ch=2 n=53 v=127
172013 On ch=2 n=53 v=0
172032 On ch=2 n=51 v=127
172208 On ch=2 n=51 v=0
172224 On ch=2 n=50 v=127
172416 On ch=2 n=50 v=0
172416 On ch=2 n=48 v=127
172608 On ch=2 n=48 v=0
172608 On ch=2 n=46 v=127
172794 On ch=2 n=46 v=0
172800 On ch=2 n=45 v=127
172992 On ch=2 n=45 v=0
172992 On ch=2 n=48 v=127
173157 On ch=2 n=48 v=0
173184 On ch=2 n=53 v=127
173331 On ch=2 n=53 v=0
173376 On ch=2 n=51 v=127
173568 On ch=2 n=51 v=0
173568 On ch=2 n=50 v=127
173735 On ch=2 n=50 v=0
173952 On ch=2 n=50 v=127
174119 On ch=2 n=50 v=0
174336 On ch=2 n=51 v=127
174501 On ch=2 n=51 v=0
174720 On ch=2 n=53 v=127
174903 On ch=2 n=53 v=0
175104 On ch=2 n=46 v=127
175334 On ch=2 n=46 v=0
175488 On ch=2 n=50 v=127
175685 On ch=2 n=50 v=0
175872 On ch=2 n=51 v=127
176073 On ch=2 n=51 v=0
176256 On ch=2 n=53 v=127
176451 On ch=2 n=53 v=0
176640 On ch=2 n=46 v=127
176870 On ch=2 n=46 v=0
177408 On ch=2 n=51 v=127
177638 On ch=2 n=51 v=0
178176 On ch=2 n=53 v=127
178406 On ch=2 n=53 v=0
179712 On ch=2 n=41 v=127
179942 On ch=2 n=41 v=0
181248 On ch=2 n=46 v=127
182784 On ch=2 n=46 v=0
182784 Meta TrkEnd
TrkEnd
MTrk
0 Meta 0x21 00
0 Meta TrkName "Lead 3"
0 PrCh ch=3 p=26
0 Par ch=3 c=7 v=127
0 Par ch=3 c=10 v=26
13440 On ch=3 n=51 v=111
13611 On ch=3 n=51 v=0
13632 On ch=3 n=50 v=111
13791 On ch=3 n=50 v=0
13824 On ch=3 n=50 v=111
14146 On ch=3 n=50 v=0
14208 On ch=3 n=51 v=111
14400 On ch=3 n=50 v=111
14419 On ch=3 n=51 v=0
14555 On ch=3 n=50 v=0
14592 On ch=3 n=50 v=111
14936 On ch=3 n=50 v=0
14976 On ch=3 n=51 v=111
15123 On ch=3 n=51 v=0
15168 On ch=3 n=50 v=111
15325 On ch=3 n=50 v=0
15360 On ch=3 n=50 v=111
15744 On ch=3 n=58 v=111
15768 On ch=3 n=50 v=0
16317 On ch=3 n=58 v=0
16512 On ch=3 n=58 v=97
16682 On ch=3 n=58 v=0
16704 On ch=3 n=57 v=105
16872 On ch=3 n=57 v=0
16896 On ch=3 n=55 v=109
17230 On ch=3 n=55 v=0
17280 On ch=3 n=55 v=105
17452 On ch=3 n=55 v=0
17472 On ch=3 n=53 v=101
17664 On ch=3 n=53 v=0
17664 On ch=3 n=51 v=105
17971 On ch=3 n=51 v=0
18048 On ch=3 n=51 v=107
18240 On ch=3 n=50 v=109
18246 On ch=3 n=51 v=0
18432 On ch=3 n=50 v=0
18432 On ch=3 n=48 v=106
19198 On ch=3 n=48 v=0
19584 On ch=3 n=50 v=110
19776 On ch=3 n=48 v=107
19797 On ch=3 n=50 v=0
19922 On ch=3 n=48 v=0
19968 On ch=3 n=48 v=111
20290 On ch=3 n=48 v=0
20352 On ch=3 n=50 v=108
20518 On ch=3 n=50 v=0
20544 On ch=3 n=48 v=107
20703 On ch=3 n=48 v=0
20736 On ch=3 n=48 v=111
21073 On ch=3 n=48 v=0
21120 On ch=3 n=50 v=105
21294 On ch=3 n=50 v=0
21312 On ch=3 n=48 v=111
21473 On ch=3 n=48 v=0
21504 On ch=3 n=48 v=109
21888 On ch=3 n=48 v=0
21888 On ch=3 n=57 v=105
22467 On ch=3 n=57 v=0
22656 On ch=3 n=57 v=107
22848 On ch=3 n=55 v=85
22899 On ch=3 n=57 v=0
23040 On ch=3 n=54 v=99
23051 On ch=3 n=55 v=0
23338 On ch=3 n=54 v=0
23424 On ch=3 n=54 v=98
23605 On ch=3 n=54 v=0
23616 On ch=3 n=51 v=98
23808 On ch=3 n=50 v=106
23830 On ch=3 n=51 v=0
24113 On ch=3 n=50 v=0
24192 On ch=3 n=50 v=107
24384 On ch=3 n=48 v=104
24388 On ch=3 n=50 v=0
24576 On ch=3 n=46 v=107
24602 On ch=3 n=48 v=0
25397 On ch=3 n=46 v=0
25728 On ch=3 n=58 v=107
25920 On ch=3 n=57 v=110
25921 On ch=3 n=58 v=0
26092 On ch=3 n=57 v=0
26112 On ch=3 n=57 v=106
26435 On ch=3 n=57 v=0
26496 On ch=3 n=60 v=108
26880 On ch=3 n=54 v=108
26892 On ch=3 n=60 v=0
27222 On ch=3 n=54 v=0
27264 On ch=3 n=57 v=105
27648 On ch=3 n=55 v=102
27690 On ch=3 n=57 v=0
28021 On ch=3 n=55 v=0
28032 On ch=3 n=50 v=100
28787 On ch=3 n=50 v=0
28800 On ch=3 n=58 v=111
28992 On ch=3 n=57 v=102
28997 On ch=3 n=58 v=0
29161 On ch=3 n=57 v=0
29184 On ch=3 n=57 v=106
29557 On ch=3 n=57 v=0
29568 On ch=3 n=60 v=106
29947 On ch=3 n=60 v=0
29952 On ch=3 n=54 v=98
30336 On ch=3 n=57 v=99
30368 On ch=3 n=54 v=0
30720 On ch=3 n=55 v=97
30727 On ch=3 n=57 v=0
31103 On ch=3 n=55 v=0
31104 On ch=3 n=58 v=96
31488 On ch=3 n=57 v=97
31502 On ch=3 n=58 v=0
31680 On ch=3 n=55 v=98
31689 On ch=3 n=57 v=0
31864 On ch=3 n=55 v=0
31872 On ch=3 n=53 v=105
32064 On ch=3 n=53 v=0
32064 On ch=3 n=51 v=101
32256 On ch=3 n=51 v=0
32256 On ch=3 n=50 v=104
32640 On ch=3 n=54 v=102
32656 On ch=3 n=50 v=0
32994 On ch=3 n=54 v=0
33024 On ch=3 n=55 v=106
33358 On ch=3 n=55 v=0
33408 On ch=3 n=57 v=102
33792 On ch=3 n=57 v=0
33792 On ch=3 n=58 v=111
34122 On ch=3 n=58 v=0
34176 On ch=3 n=60 v=111
34327 On ch=3 n=60 v=0
34368 On ch=3 n=58 v=90
34515 On ch=3 n=58 v=0
34560 On ch=3 n=57 v=98
34917 On ch=3 n=57 v=0
34944 On ch=3 n=55 v=104
35299 On ch=3 n=55 v=0
35328 On ch=3 n=62 v=92
35576 On ch=3 n=62 v=0
36096 On ch=3 n=63 v=106
36864 On ch=3 n=62 v=106
36880 On ch=3 n=63 v=0
37138 On ch=3 n=62 v=0
37632 On ch=3 n=63 v=110
38400 On ch=3 n=62 v=101
38409 On ch=3 n=63 v=0
38570 On ch=3 n=62 v=0
38784 On ch=3 n=63 v=106
38999 On ch=3 n=63 v=0
39168 On ch=3 n=62 v=103
39345 On ch=3 n=62 v=0
39552 On ch=3 n=63 v=109
39721 On ch=3 n=63 v=0
39936 On ch=3 n=62 v=106
40810 On ch=3 n=62 v=0
41088 On ch=3 n=51 v=110
41280 On ch=3 n=50 v=111
41298 On ch=3 n=51 v=0
41444 On ch=3 n=50 v=0
41472 On ch=3 n=50 v=107
41750 On ch=3 n=50 v=0
41856 On ch=3 n=51 v=106
42048 On ch=3 n=50 v=108
42058 On ch=3 n=51 v=0
42214 On ch=3 n=50 v=0
42240 On ch=3 n=50 v=105
42577 On ch=3 n=50 v=0
42624 On ch=3 n=51 v=105
42812 On ch=3 n=51 v=0
42816 On ch=3 n=50 v=106
42973 On ch=3 n=50 v=0
43008 On ch=3 n=50 v=97
43392 On ch=3 n=58 v=110
43393 On ch=3 n=50 v=0
43930 On ch=3 n=58 v=0
44160 On ch=3 n=58 v=96
44327 On ch=3 n=58 v=0
44352 On ch=3 n=57 v=106
44544 On ch=3 n=55 v=104
44557 On ch=3 n=57 v=0
44841 On ch=3 n=55 v=0
44928 On ch=3 n=55 v=103
45120 On ch=3 n=53 v=98
45176 On ch=3 n=55 v=0
45312 On ch=3 n=51 v=99
45332 On ch=3 n=53 v=0
45581 On ch=3 n=51 v=0
45696 On ch=3 n=51 v=105
45888 On ch=3 n=51 v=0
45888 On ch=3 n=50 v=105
46080 On ch=3 n=50 v=0
46080 On ch=3 n=48 v=103
46847 On ch=3 n=48 v=0
47232 On ch=3 n=53 v=110
47388 On ch=3 n=53 v=0
47424 On ch=3 n=51 v=106
47578 On ch=3 n=51 v=0
47616 On ch=3 n=51 v=109
47993 On ch=3 n=51 v=0
48000 On ch=3 n=53 v=107
48153 On ch=3 n=53 v=0
48192 On ch=3 n=51 v=109
48353 On ch=3 n=51 v=0
48384 On ch=3 n=51 v=107
48719 On ch=3 n=51 v=0
48768 On ch=3 n=53 v=106
48935 On ch=3 n=53 v=0
48960 On ch=3 n=51 v=106
49111 On ch=3 n=51 v=0
49152 On ch=3 n=51 v=104
49524 On ch=3 n=51 v=0
49536 On ch=3 n=60 v=111
50072 On ch=3 n=60 v=0
50304 On ch=3 n=60 v=107
50496 On ch=3 n=58 v=103
50505 On ch=3 n=60 v=0
50682 On ch=3 n=58 v=0
50688 On ch=3 n=57 v=101
50991 On ch=3 n=57 v=0
51072 On ch=3 n=57 v=105
51247 On ch=3 n=57 v=0
51264 On ch=3 n=55 v=107
51456 On ch=3 n=53 v=109
51480 On ch=3 n=55 v=0
51719 On ch=3 n=53 v=0
51840 On ch=3 n=53 v=106
52010 On ch=3 n=53 v=0
52032 On ch=3 n=51 v=101
52224 On ch=3 n=51 v=0
52224 On ch=3 n=50 v=108
52994 On ch=3 n=50 v=0
53376 On ch=3 n=58 v=107
53529 On ch=3 n=58 v=0
53568 On ch=3 n=58 v=107
53721 On ch=3 n=58 v=0
53760 On ch=3 n=58 v=95
54528 On ch=3 n=58 v=0
54528 On ch=3 n=57 v=109
54785 On ch=3 n=57 v=0
54912 On ch=3 n=51 v=98
55063 On ch=3 n=51 v=0
55104 On ch=3 n=51 v=100
55257 On ch=3 n=51 v=0
55296 On ch=3 n=51 v=98
56064 On ch=3 n=50 v=106
56081 On ch=3 n=51 v=0
56248 On ch=3 n=50 v=0
56448 On ch=3 n=58 v=97
56601 On ch=3 n=58 v=0
56640 On ch=3 n=58 v=97
56793 On ch=3 n=58 v=0
56832 On ch=3 n=58 v=110
57559 On ch=3 n=58 v=0
57600 On ch=3 n=57 v=109
57748 On ch=3 n=57 v=0
57984 On ch=3 n=51 v=107
58150 On ch=3 n=51 v=0
58176 On ch=3 n=51 v=101
58325 On ch=3 n=51 v=0
58368 On ch=3 n=51 v=110
59136 On ch=3 n=51 v=0
59136 On ch=3 n=50 v=111
59342 On ch=3 n=50 v=0
59520 On ch=3 n=63 v=111
59693 On ch=3 n=63 v=0
59712 On ch=3 n=62 v=107
59863 On ch=3 n=62 v=0
59904 On ch=3 n=62 v=106
60288 On ch=3 n=63 v=106
60304 On ch=3 n=62 v=0
60423 On ch=3 n=63 v=0
60480 On ch=3 n=62 v=111
60626 On ch=3 n=62 v=0
60672 On ch=3 n=62 v=107
61010 On ch=3 n=62 v=0
61056 On ch=3 n=63 v=111
61241 On ch=3 n=63 v=0
61248 On ch=3 n=62 v=107
61409 On ch=3 n=62 v=0
61440 On ch=3 n=62 v=110
62117 On ch=3 n=62 v=0
62208 On ch=3 n=63 v=107
62720 On ch=3 n=63 v=0
62784 On ch=3 n=60 v=110
62976 On ch=3 n=58 v=110
62977 On ch=3 n=60 v=0
63544 On ch=3 n=58 v=0
63552 On ch=3 n=62 v=104
63744 On ch=3 n=60 v=111
63752 On ch=3 n=62 v=0
64320 On ch=3 n=57 v=100
64334 On ch=3 n=60 v=0
64489 On ch=3 n=57 v=0
64512 On ch=3 n=58 v=111
64730 On ch=3 n=58 v=0
64896 On ch=3 n=62 v=102
65088 On ch=3 n=62 v=0
65088 On ch=3 n=60 v=110
65275 On ch=3 n=60 v=0
65280 On ch=3 n=58 v=102
65470 On ch=3 n=58 v=0
65472 On ch=3 n=57 v=110
65664 On ch=3 n=57 v=0
65664 On ch=3 n=55 v=107
65856 On ch=3 n=55 v=0
65856 On ch=3 n=53 v=105
66029 On ch=3 n=53 v=0
66048 On ch=3 n=51 v=102
66224 On ch=3 n=51 v=0
66240 On ch=3 n=50 v=96
66432 On ch=3 n=50 v=0
66432 On ch=3 n=48 v=111
66624 On ch=3 n=48 v=0
66624 On ch=3 n=46 v=105
66810 On ch=3 n=46 v=0
66816 On ch=3 n=45 v=101
67008 On ch=3 n=45 v=0
67008 On ch=3 n=48 v=92
67173 On ch=3 n=48 v=0
67200 On ch=3 n=53 v=110
67347 On ch=3 n=53 v=0
67392 On ch=3 n=51 v=93
67584 On ch=3 n=51 v=0
67584 On ch=3 n=50 v=111
67751 On ch=3 n=50 v=0
67968 On ch=3 n=50 v=111
68135 On ch=3 n=50 v=0
68352 On ch=3 n=51 v=111
68517 On ch=3 n=51 v=0
68736 On ch=3 n=53 v=111
68919 On ch=3 n=53 v=0
69504 On ch=3 n=62 v=102
69696 On ch=3 n=62 v=0
69696 On ch=3 n=60 v=110
69883 On ch=3 n=60 v=0
69888 On ch=3 n=58 v=102
70078 On ch=3 n=58 v=0
70080 On ch=3 n=57 v=110
70272 On ch=3 n=57 v=0
70272 On ch=3 n=55 v=107
70464 On ch=3 n=55 v=0
70464 On ch=3 n=53 v=105
70637 On ch=3 n=53 v=0
70656 On ch=3 n=51 v=102
70832 On ch=3 n=51 v=0
70848 On ch=3 n=50 v=96
71040 On ch=3 n=50 v=0
71040 On ch=3 n=48 v=111
71232 On ch=3 n=48 v=0
71232 On ch=3 n=46 v=105
71418 On ch=3 n=46 v=0
71424 On ch=3 n=45 v=101
71616 On ch=3 n=45 v=0
71616 On ch=3 n=48 v=92
71781 On ch=3 n=48 v=0
71808 On ch=3 n=53 v=110
71955 On ch=3 n=53 v=0
72000 On ch=3 n=51 v=93
72192 On ch=3 n=51 v=0
72192 On ch=3 n=50 v=111
72359 On ch=3 n=50 v=0
72576 On ch=3 n=50 v=111
72743 On ch=3 n=50 v=0
72960 On ch=3 n=51 v=111
73125 On ch=3 n=51 v=0
73344 On ch=3 n=53 v=111
73527 On ch=3 n=53 v=0
73728 On ch=3 n=46 v=111
73958 On ch=3 n=46 v=0
74112 On ch=3 n=50 v=110
74309 On ch=3 n=50 v=0
74496 On ch=3 n=51 v=110
74697 On ch=3 n=51 v=0
74880 On ch=3 n=53 v=111
75075 On ch=3 n=53 v=0
75264 On ch=3 n=46 v=95
75517 On ch=3 n=46 v=0
76032 On ch=3 n=53 v=86
76359 On ch=3 n=53 v=0
76800 On ch=3 n=46 v=101
77086 On ch=3 n=46 v=0
77952 On ch=3 n=51 v=111
78123 On ch=3 n=51 v=0
78144 On ch=3 n=50 v=111
78303 On ch=3 n=50 v=0
78336 On ch=3 n=50 v=111
78658 On ch=3 n=50 v=0
78720 On ch=3 n=51 v=111
78912 On ch=3 n=51 v=0
78912 On ch=3 n=50 v=111
79082 On ch=3 n=50 v=0
79104 On ch=3 n=50 v=111
79448 On ch=3 n=50 v=0
79488 On ch=3 n=51 v=111
79663 On ch=3 n=51 v=0
79680 On ch=3 n=50 v=111
79837 On ch=3 n=50 v=0
79872 On ch=3 n=50 v=111
80256 On ch=3 n=58 v=111
80280 On ch=3 n=50 v=0
80708 On ch=3 n=58 v=0
81024 On ch=3 n=58 v=97
81194 On ch=3 n=58 v=0
81216 On ch=3 n=57 v=105
81384 On ch=3 n=57 v=0
81408 On ch=3 n=55 v=109
81742 On ch=3 n=55 v=0
81792 On ch=3 n=55 v=105
81964 On ch=3 n=55 v=0
81984 On ch=3 n=53 v=101
82176 On ch=3 n=51 v=105
82206 On ch=3 n=53 v=0
82483 On ch=3 n=51 v=0
82560 On ch=3 n=51 v=107
82752 On ch=3 n=50 v=109
82758 On ch=3 n=51 v=0
82944 On ch=3 n=50 v=0
82944 On ch=3 n=48 v=106
83710 On ch=3 n=48 v=0
84096 On ch=3 n=50 v=110
84288 On ch=3 n=48 v=107
84309 On ch=3 n=50 v=0
84434 On ch=3 n=48 v=0
84480 On ch=3 n=48 v=111
84802 On ch=3 n=48 v=0
84864 On ch=3 n=50 v=108
85030 On ch=3 n=50 v=0
85056 On ch=3 n=48 v=107
85215 On ch=3 n=48 v=0
85248 On ch=3 n=48 v=111
85585 On ch=3 n=48 v=0
85632 On ch=3 n=50 v=105
85806 On ch=3 n=50 v=0
85824 On ch=3 n=48 v=111
85985 On ch=3 n=48 v=0
86016 On ch=3 n=48 v=109
86400 On ch=3 n=57 v=105
86437 On ch=3 n=48 v=0
86979 On ch=3 n=57 v=0
87168 On ch=3 n=57 v=107
87360 On ch=3 n=57 v=0
87360 On ch=3 n=55 v=85
87552 On ch=3 n=54 v=99
87563 On ch=3 n=55 v=0
87850 On ch=3 n=54 v=0
87936 On ch=3 n=54 v=98
88117 On ch=3 n=54 v=0
88128 On ch=3 n=51 v=98
88320 On ch=3 n=50 v=106
88342 On ch=3 n=51 v=0
88625 On ch=3 n=50 v=0
88704 On ch=3 n=50 v=107
88896 On ch=3 n=48 v=104
88900 On ch=3 n=50 v=0
89088 On ch=3 n=48 v=0
89088 On ch=3 n=46 v=107
89909 On ch=3 n=46 v=0
90240 On ch=3 n=58 v=107
90432 On ch=3 n=57 v=110
90433 On ch=3 n=58 v=0
90604 On ch=3 n=57 v=0
90624 On ch=3 n=57 v=106
90999 On ch=3 n=57 v=0
91008 On ch=3 n=60 v=108
91392 On ch=3 n=54 v=108
91404 On ch=3 n=60 v=0
91734 On ch=3 n=54 v=0
91776 On ch=3 n=57 v=105
92160 On ch=3 n=57 v=0
92160 On ch=3 n=55 v=102
92533 On ch=3 n=55 v=0
92544 On ch=3 n=50 v=100
93299 On ch=3 n=50 v=0
93312 On ch=3 n=58 v=111
93504 On ch=3 n=57 v=102
93509 On ch=3 n=58 v=0
93673 On ch=3 n=57 v=0
93696 On ch=3 n=57 v=106
94069 On ch=3 n=57 v=0
94080 On ch=3 n=60 v=106
94459 On ch=3 n=60 v=0
94464 On ch=3 n=54 v=98
94848 On ch=3 n=57 v=99
94880 On ch=3 n=54 v=0
95232 On ch=3 n=55 v=97
95239 On ch=3 n=57 v=0
95615 On ch=3 n=55 v=0
95616 On ch=3 n=58 v=96
96000 On ch=3 n=57 v=97
96003 On ch=3 n=57 v=97
96003 On ch=3 n=57 v=97
96014 On ch=3 n=58 v=0
96095 On ch=3 n=57 v=0
96098 On ch=3 n=57 v=0
96098 On ch=3 n=57 v=0
96134 On ch=3 n=58 v=107
96192 On ch=3 n=57 v=97
96205 On ch=3 n=57 v=97
96231 On ch=3 n=58 v=0
96264 On ch=3 n=55 v=98
96278 On ch=3 n=57 v=0
96291 On ch=3 n=57 v=0
96366 On ch=3 n=55 v=0
96384 On ch=3 n=53 v=105
96576 On ch=3 n=51 v=101
96622 On ch=3 n=53 v=0
96768 On ch=3 n=51 v=0
96768 On ch=3 n=50 v=104
97152 On ch=3 n=54 v=102
97168 On ch=3 n=50 v=0
97506 On ch=3 n=54 v=0
97536 On ch=3 n=55 v=106
97870 On ch=3 n=55 v=0
97920 On ch=3 n=57 v=102
98304 On ch=3 n=57 v=0
98304 On ch=3 n=58 v=111
98643 On ch=3 n=58 v=0
98688 On ch=3 n=60 v=111
98857 On ch=3 n=60 v=0
98880 On ch=3 n=58 v=90
99054 On ch=3 n=58 v=0
99072 On ch=3 n=57 v=98
99429 On ch=3 n=57 v=0
99456 On ch=3 n=55 v=104
99811 On ch=3 n=55 v=0
99840 On ch=3 n=62 v=92
100088 On ch=3 n=62 v=0
100608 On ch=3 n=63 v=106
101376 On ch=3 n=62 v=106
101392 On ch=3 n=63 v=0
101650 On ch=3 n=62 v=0
102144 On ch=3 n=63 v=110
102912 On ch=3 n=62 v=101
102921 On ch=3 n=63 v=0
103082 On ch=3 n=62 v=0
103296 On ch=3 n=63 v=106
103511 On ch=3 n=63 v=0
103680 On ch=3 n=62 v=103
103857 On ch=3 n=62 v=0
104064 On ch=3 n=63 v=109
104233 On ch=3 n=63 v=0
104448 On ch=3 n=62 v=106
105322 On ch=3 n=62 v=0
105600 On ch=3 n=63 v=110
105792 On ch=3 n=62 v=111
105810 On ch=3 n=63 v=0
105947 On ch=3 n=62 v=0
105984 On ch=3 n=62 v=107
107097 On ch=3 n=62 v=0
107136 On ch=3 n=63 v=110
107328 On ch=3 n=62 v=111
107346 On ch=3 n=63 v=0
107476 On ch=3 n=62 v=0
107520 On ch=3 n=62 v=107
108635 On ch=3 n=62 v=0
108672 On ch=3 n=51 v=110
108864 On ch=3 n=50 v=111
108882 On ch=3 n=51 v=0
109038 On ch=3 n=50 v=0
109056 On ch=3 n=50 v=107
109392 On ch=3 n=50 v=0
109440 On ch=3 n=51 v=110
109632 On ch=3 n=50 v=111
109650 On ch=3 n=51 v=0
109806 On ch=3 n=50 v=0
109824 On ch=3 n=50 v=107
110160 On ch=3 n=50 v=0
110208 On ch=3 n=51 v=110
110400 On ch=3 n=50 v=111
110418 On ch=3 n=51 v=0
110565 On ch=3 n=50 v=0
110592 On ch=3 n=50 v=107
111660 On ch=3 n=50 v=0
111744 On ch=3 n=62 v=111
111936 On ch=3 n=62 v=0
111936 On ch=3 n=63 v=111
112104 On ch=3 n=63 v=0
112128 On ch=3 n=63 v=111
113164 On ch=3 n=63 v=0
113280 On ch=3 n=63 v=111
113472 On ch=3 n=62 v=111
113483 On ch=3 n=63 v=0
113624 On ch=3 n=62 v=0
113664 On ch=3 n=62 v=109
114677 On ch=3 n=62 v=0
114816 On ch=3 n=62 v=111
114991 On ch=3 n=62 v=0
115008 On ch=3 n=61 v=110
115186 On ch=3 n=61 v=0
115200 On ch=3 n=61 v=107
116231 On ch=3 n=61 v=0
116352 On ch=3 n=61 v=104
116521 On ch=3 n=61 v=0
116544 On ch=3 n=62 v=109
116700 On ch=3 n=62 v=0
116736 On ch=3 n=62 v=97
117882 On ch=3 n=62 v=0
117888 On ch=3 n=59 v=104
118052 On ch=3 n=59 v=0
118080 On ch=3 n=60 v=111
118236 On ch=3 n=60 v=0
118272 On ch=3 n=60 v=109
119424 On ch=3 n=57 v=110
119430 On ch=3 n=60 v=0
119573 On ch=3 n=57 v=0
119616 On ch=3 n=58 v=107
119771 On ch=3 n=58 v=0
119808 On ch=3 n=58 v=109
120947 On ch=3 n=58 v=0
120960 On ch=3 n=55 v=109
121115 On ch=3 n=55 v=0
121152 On ch=3 n=57 v=111
121315 On ch=3 n=57 v=0
121344 On ch=3 n=57 v=106
121720 On ch=3 n=57 v=0
121728 On ch=3 n=53 v=111
121889 On ch=3 n=53 v=0
121920 On ch=3 n=55 v=86
122084 On ch=3 n=55 v=0
122112 On ch=3 n=55 v=109
122496 On ch=3 n=51 v=105
122502 On ch=3 n=55 v=0
122880 On ch=3 n=51 v=0
122880 On ch=3 n=50 v=109
123139 On ch=3 n=50 v=0
123264 On ch=3 n=63 v=111
123452 On ch=3 n=63 v=0
123456 On ch=3 n=62 v=111
123622 On ch=3 n=62 v=0
123648 On ch=3 n=62 v=111
124665 On ch=3 n=62 v=0
124800 On ch=3 n=62 v=109
124992 On ch=3 n=61 v=109
125005 On ch=3 n=62 v=0
125166 On ch=3 n=61 v=0
125184 On ch=3 n=60 v=102
126211 On ch=3 n=60 v=0
126336 On ch=3 n=60 v=104
126528 On ch=3 n=59 v=90
126534 On ch=3 n=60 v=0
126720 On ch=3 n=58 v=98
126722 On ch=3 n=59 v=0
127698 On ch=3 n=58 v=0
127872 On ch=3 n=58 v=97
128052 On ch=3 n=58 v=0
128064 On ch=3 n=57 v=94
128247 On ch=3 n=57 v=0
128256 On ch=3 n=57 v=87
129234 On ch=3 n=57 v=0
129408 On ch=3 n=57 v=84
129600 On ch=3 n=56 v=83
129601 On ch=3 n=57 v=0
129782 On ch=3 n=56 v=0
129792 On ch=3 n=55 v=78
130095 On ch=3 n=55 v=0
130176 On ch=3 n=51 v=110
130368 On ch=3 n=50 v=111
130386 On ch=3 n=51 v=0
130532 On ch=3 n=50 v=0
130560 On ch=3 n=50 v=107
130917 On ch=3 n=50 v=0
130944 On ch=3 n=51 v=106
131136 On ch=3 n=50 v=108
131146 On ch=3 n=51 v=0
131302 On ch=3 n=50 v=0
131328 On ch=3 n=50 v=105
131665 On ch=3 n=50 v=0
131712 On ch=3 n=51 v=105
131900 On ch=3 n=51 v=0
131904 On ch=3 n=50 v=106
132061 On ch=3 n=50 v=0
132096 On ch=3 n=50 v=97
132480 On ch=3 n=58 v=110
132481 On ch=3 n=50 v=0
133018 On ch=3 n=58 v=0
133248 On ch=3 n=58 v=96
133415 On ch=3 n=58 v=0
133440 On ch=3 n=57 v=106
133632 On ch=3 n=55 v=104
133645 On ch=3 n=57 v=0
133989 On ch=3 n=55 v=0
134016 On ch=3 n=55 v=103
134208 On ch=3 n=53 v=98
134264 On ch=3 n=55 v=0
134400 On ch=3 n=51 v=99
134420 On ch=3 n=53 v=0
134739 On ch=3 n=51 v=0
134784 On ch=3 n=51 v=105
134976 On ch=3 n=51 v=0
134976 On ch=3 n=50 v=105
135168 On ch=3 n=48 v=103
135202 On ch=3 n=50 v=0
135935 On ch=3 n=48 v=0
136320 On ch=3 n=53 v=110
136476 On ch=3 n=53 v=0
136512 On ch=3 n=51 v=106
136666 On ch=3 n=51 v=0
136704 On ch=3 n=51 v=109
137081 On ch=3 n=51 v=0
137088 On ch=3 n=53 v=107
137241 On ch=3 n=53 v=0
137280 On ch=3 n=51 v=109
137441 On ch=3 n=51 v=0
137472 On ch=3 n=51 v=107
137807 On ch=3 n=51 v=0
137856 On ch=3 n=53 v=106
138023 On ch=3 n=53 v=0
138048 On ch=3 n=51 v=106
138199 On ch=3 n=51 v=0
138240 On ch=3 n=51 v=104
138612 On ch=3 n=51 v=0
138624 On ch=3 n=60 v=111
139160 On ch=3 n=60 v=0
139392 On ch=3 n=60 v=107
139584 On ch=3 n=58 v=103
139593 On ch=3 n=60 v=0
139770 On ch=3 n=58 v=0
139776 On ch=3 n=57 v=101
140133 On ch=3 n=57 v=0
140160 On ch=3 n=57 v=105
140335 On ch=3 n=57 v=0
140352 On ch=3 n=55 v=107
140544 On ch=3 n=53 v=109
140568 On ch=3 n=55 v=0
140892 On ch=3 n=53 v=0
140928 On ch=3 n=53 v=106
141098 On ch=3 n=53 v=0
141120 On ch=3 n=51 v=101
141312 On ch=3 n=50 v=108
141368 On ch=3 n=51 v=0
142082 On ch=3 n=50 v=0
142464 On ch=3 n=58 v=107
142634 On ch=3 n=58 v=0
142656 On ch=3 n=57 v=107
142830 On ch=3 n=57 v=0
142848 On ch=3 n=55 v=95
143196 On ch=3 n=55 v=0
143232 On ch=3 n=55 v=98
143410 On ch=3 n=55 v=0
143424 On ch=3 n=53 v=100
143589 On ch=3 n=53 v=0
143616 On ch=3 n=51 v=95
143955 On ch=3 n=51 v=0
144000 On ch=3 n=51 v=98
144162 On ch=3 n=51 v=0
144192 On ch=3 n=50 v=100
144354 On ch=3 n=50 v=0
144384 On ch=3 n=48 v=109
144723 On ch=3 n=48 v=0
144768 On ch=3 n=57 v=109
145411 On ch=3 n=57 v=0
145536 On ch=3 n=57 v=107
145706 On ch=3 n=57 v=0
145728 On ch=3 n=55 v=107
145898 On ch=3 n=55 v=0
145920 On ch=3 n=54 v=95
146268 On ch=3 n=54 v=0
146304 On ch=3 n=54 v=107
146474 On ch=3 n=54 v=0
146496 On ch=3 n=51 v=107
146666 On ch=3 n=51 v=0
146688 On ch=3 n=50 v=95
147036 On ch=3 n=50 v=0
147072 On ch=3 n=50 v=107
147238 On ch=3 n=50 v=0
147264 On ch=3 n=48 v=101
147423 On ch=3 n=48 v=0
147456 On ch=3 n=46 v=110
148322 On ch=3 n=46 v=0
148608 On ch=3 n=63 v=111
148781 On ch=3 n=63 v=0
148800 On ch=3 n=62 v=107
148951 On ch=3 n=62 v=0
148992 On ch=3 n=62 v=106
149367 On ch=3 n=62 v=0
149376 On ch=3 n=63 v=106
149545 On ch=3 n=63 v=0
149568 On ch=3 n=62 v=101
149714 On ch=3 n=62 v=0
149760 On ch=3 n=62 v=107
150098 On ch=3 n=62 v=0
150144 On ch=3 n=63 v=111
150329 On ch=3 n=63 v=0
150336 On ch=3 n=62 v=107
150497 On ch=3 n=62 v=0
150528 On ch=3 n=62 v=110
151205 On ch=3 n=62 v=0
151296 On ch=3 n=63 v=107
151808 On ch=3 n=63 v=0
151872 On ch=3 n=60 v=110
152064 On ch=3 n=58 v=110
152065 On ch=3 n=60 v=0
152632 On ch=3 n=58 v=0
152640 On ch=3 n=62 v=104
152832 On ch=3 n=60 v=111
152840 On ch=3 n=62 v=0
153408 On ch=3 n=57 v=100
153422 On ch=3 n=60 v=0
153577 On ch=3 n=57 v=0
153600 On ch=3 n=58 v=111
153818 On ch=3 n=58 v=0
153984 On ch=3 n=62 v=102
154176 On ch=3 n=62 v=0
154176 On ch=3 n=60 v=110
154363 On ch=3 n=60 v=0
154368 On ch=3 n=58 v=102
154558 On ch=3 n=58 v=0
154560 On ch=3 n=57 v=110
154752 On ch=3 n=57 v=0
154752 On ch=3 n=55 v=107
154944 On ch=3 n=55 v=0
154944 On ch=3 n=53 v=105
155117 On ch=3 n=53 v=0
155136 On ch=3 n=51 v=102
155312 On ch=3 n=51 v=0
155328 On ch=3 n=50 v=96
155520 On ch=3 n=50 v=0
155520 On ch=3 n=48 v=111
155712 On ch=3 n=48 v=0
155712 On ch=3 n=46 v=105
155898 On ch=3 n=46 v=0
155904 On ch=3 n=45 v=101
156096 On ch=3 n=45 v=0
156096 On ch=3 n=48 v=92
156261 On ch=3 n=48 v=0
156288 On ch=3 n=53 v=110
156435 On ch=3 n=53 v=0
156480 On ch=3 n=51 v=93
156672 On ch=3 n=51 v=0
156672 On ch=3 n=50 v=111
156839 On ch=3 n=50 v=0
157056 On ch=3 n=50 v=111
157223 On ch=3 n=50 v=0
157440 On ch=3 n=51 v=111
157605 On ch=3 n=51 v=0
157824 On ch=3 n=53 v=111
158007 On ch=3 n=53 v=0
158592 On ch=3 n=62 v=102
158784 On ch=3 n=62 v=0
158784 On ch=3 n=60 v=110
158971 On ch=3 n=60 v=0
158976 On ch=3 n=58 v=102
159166 On ch=3 n=58 v=0
159168 On ch=3 n=57 v=110
159360 On ch=3 n=57 v=0
159360 On ch=3 n=55 v=107
159552 On ch=3 n=55 v=0
159552 On ch=3 n=53 v=105
159725 On ch=3 n=53 v=0
159744 On ch=3 n=51 v=102
159920 On ch=3 n=51 v=0
159936 On ch=3 n=50 v=96
160128 On ch=3 n=50 v=0
160128 On ch=3 n=48 v=111
160320 On ch=3 n=48 v=0
160320 On ch=3 n=46 v=105
160506 On ch=3 n=46 v=0
160512 On ch=3 n=45 v=101
160704 On ch=3 n=45 v=0
160704 On ch=3 n=48 v=92
160869 On ch=3 n=48 v=0
160896 On ch=3 n=53 v=110
161043 On ch=3 n=53 v=0
161088 On ch=3 n=51 v=93
161280 On ch=3 n=51 v=0
161280 On ch=3 n=50 v=111
161447 On ch=3 n=50 v=0
161664 On ch=3 n=50 v=111
161831 On ch=3 n=50 v=0
162048 On ch=3 n=51 v=111
162213 On ch=3 n=51 v=0
162432 On ch=3 n=53 v=111
162615 On ch=3 n=53 v=0
162816 On ch=3 n=46 v=111
163046 On ch=3 n=46 v=0
163200 On ch=3 n=50 v=110
163397 On ch=3 n=50 v=0
163584 On ch=3 n=51 v=110
163785 On ch=3 n=51 v=0
163968 On ch=3 n=53 v=111
164163 On ch=3 n=53 v=0
170880 On ch=3 n=62 v=102
171072 On ch=3 n=62 v=0
171072 On ch=3 n=60 v=110
171259 On ch=3 n=60 v=0
171264 On ch=3 n=58 v=102
171454 On ch=3 n=58 v=0
171456 On ch=3 n=57 v=110
171648 On ch=3 n=57 v=0
171648 On ch=3 n=55 v=107
171840 On ch=3 n=55 v=0
171840 On ch=3 n=53 v=105
172013 On ch=3 n=53 v=0
172032 On ch=3 n=51 v=102
172208 On ch=3 n=51 v=0
172224 On ch=3 n=50 v=96
172416 On ch=3 n=50 v=0
172416 On ch=3 n=48 v=111
172608 On ch=3 n=48 v=0
172608 On ch=3 n=46 v=105
172794 On ch=3 n=46 v=0
172800 On ch=3 n=45 v=101
172992 On ch=3 n=45 v=0
172992 On ch=3 n=48 v=92
173157 On ch=3 n=48 v=0
173184 On ch=3 n=53 v=110
173331 On ch=3 n=53 v=0
173376 On ch=3 n=51 v=93
173568 On ch=3 n=51 v=0
173568 On ch=3 n=50 v=111
173735 On ch=3 n=50 v=0
173952 On ch=3 n=50 v=111
174119 On ch=3 n=50 v=0
174336 On ch=3 n=51 v=111
174501 On ch=3 n=51 v=0
174720 On ch=3 n=53 v=111
174903 On ch=3 n=53 v=0
175104 On ch=3 n=46 v=111
175334 On ch=3 n=46 v=0
175488 On ch=3 n=50 v=110
175685 On ch=3 n=50 v=0
175872 On ch=3 n=51 v=110
176073 On ch=3 n=51 v=0
176256 On ch=3 n=53 v=111
176451 On ch=3 n=53 v=0
176640 On ch=3 n=46 v=111
176870 On ch=3 n=46 v=0
177408 On ch=3 n=51 v=111
177638 On ch=3 n=51 v=0
178176 On ch=3 n=53 v=111
178406 On ch=3 n=53 v=0
179712 On ch=3 n=41 v=111
179942 On ch=3 n=41 v=0
181248 On ch=3 n=46 v=71
182784 On ch=3 n=46 v=0
182784 Meta TrkEnd
TrkEnd
MTrk
0 Meta 0x21 00
0 Meta TrkName "bass"
0 PrCh ch=4 p=33
0 Par ch=4 c=7 v=127
0 Par ch=4 c=10 v=64
192 Par ch=4 c=91 v=40
1536 On ch=4 n=31 v=93
3072 On ch=4 n=31 v=0
3072 On ch=4 n=39 v=98
4608 On ch=4 n=39 v=0
4608 On ch=4 n=34 v=93
6144 On ch=4 n=34 v=0
6144 On ch=4 n=29 v=93
7680 On ch=4 n=29 v=0
7680 On ch=4 n=38 v=95
8040 On ch=4 n=38 v=0
8064 On ch=4 n=38 v=93
8232 On ch=4 n=38 v=0
8256 On ch=4 n=38 v=93
8424 On ch=4 n=38 v=0
8448 On ch=4 n=38 v=93
8784 On ch=4 n=38 v=0
8832 On ch=4 n=38 v=93
8976 On ch=4 n=38 v=0
9024 On ch=4 n=38 v=93
9192 On ch=4 n=38 v=0
9216 On ch=4 n=38 v=93
9384 On ch=4 n=38 v=0
9408 On ch=4 n=38 v=90
9552 On ch=4 n=38 v=0
9600 On ch=4 n=38 v=93
9768 On ch=4 n=38 v=0
9792 On ch=4 n=38 v=93
9960 On ch=4 n=38 v=0
9984 On ch=4 n=38 v=90
10152 On ch=4 n=38 v=0
10176 On ch=4 n=38 v=90
10320 On ch=4 n=38 v=0
10368 On ch=4 n=38 v=93
10512 On ch=4 n=38 v=0
10560 On ch=4 n=38 v=93
10728 On ch=4 n=38 v=0
10752 On ch=4 n=38 v=93
10920 On ch=4 n=38 v=0
10944 On ch=4 n=38 v=90
11088 On ch=4 n=38 v=0
11136 On ch=4 n=38 v=93
11304 On ch=4 n=38 v=0
11328 On ch=4 n=38 v=93
11496 On ch=4 n=38 v=0
11520 On ch=4 n=38 v=90
11688 On ch=4 n=38 v=0
11712 On ch=4 n=38 v=90
11856 On ch=4 n=38 v=0
11904 On ch=4 n=38 v=93
12048 On ch=4 n=38 v=0
12096 On ch=4 n=38 v=93
12264 On ch=4 n=38 v=0
12288 On ch=4 n=38 v=93
12456 On ch=4 n=38 v=0
12480 On ch=4 n=38 v=90
12624 On ch=4 n=38 v=0
12672 On ch=4 n=38 v=93
12840 On ch=4 n=38 v=0
12864 On ch=4 n=38 v=93
13032 On ch=4 n=38 v=0
13056 On ch=4 n=38 v=90
13224 On ch=4 n=38 v=0
13248 On ch=4 n=38 v=90
13392 On ch=4 n=38 v=0
13440 On ch=4 n=38 v=93
13584 On ch=4 n=38 v=0
13632 On ch=4 n=38 v=93
13800 On ch=4 n=38 v=0
13824 On ch=4 n=43 v=87
14160 On ch=4 n=43 v=0
14402 On ch=4 n=43 v=84
14546 On ch=4 n=43 v=0
14594 On ch=4 n=38 v=90
14738 On ch=4 n=38 v=0
14784 On ch=4 n=38 v=87
14928 On ch=4 n=38 v=0
14980 On ch=4 n=40 v=87
15124 On ch=4 n=40 v=0
15168 On ch=4 n=42 v=84
15312 On ch=4 n=42 v=0
15358 On ch=4 n=43 v=87
15694 On ch=4 n=43 v=0
15936 On ch=4 n=43 v=84
16080 On ch=4 n=43 v=0
16130 On ch=4 n=38 v=90
16274 On ch=4 n=38 v=0
16322 On ch=4 n=38 v=87
16466 On ch=4 n=38 v=0
16514 On ch=4 n=40 v=87
16658 On ch=4 n=40 v=0
16706 On ch=4 n=42 v=84
16850 On ch=4 n=42 v=0
16896 On ch=4 n=43 v=87
17232 On ch=4 n=43 v=0
17470 On ch=4 n=43 v=84
17614 On ch=4 n=43 v=0
17668 On ch=4 n=38 v=90
18076 On ch=4 n=38 v=0
18242 On ch=4 n=38 v=84
18362 On ch=4 n=38 v=0
18434 On ch=4 n=43 v=81
18770 On ch=4 n=43 v=0
19008 On ch=4 n=43 v=84
19152 On ch=4 n=43 v=0
19204 On ch=4 n=43 v=87
19564 On ch=4 n=43 v=0
19972 On ch=4 n=43 v=81
20308 On ch=4 n=43 v=0
20546 On ch=4 n=43 v=87
20690 On ch=4 n=43 v=0
20738 On ch=4 n=43 v=84
21074 On ch=4 n=43 v=0
21316 On ch=4 n=43 v=84
21460 On ch=4 n=43 v=0
21504 On ch=4 n=42 v=87
21864 On ch=4 n=42 v=0
22084 On ch=4 n=42 v=81
22228 On ch=4 n=42 v=0
22272 On ch=4 n=38 v=84
22632 On ch=4 n=38 v=0
23042 On ch=4 n=45 v=81
23378 On ch=4 n=45 v=0
23616 On ch=4 n=45 v=81
23760 On ch=4 n=45 v=0
23806 On ch=4 n=38 v=84
24166 On ch=4 n=38 v=0
24578 On ch=4 n=43 v=81
24938 On ch=4 n=43 v=0
25154 On ch=4 n=43 v=75
25274 On ch=4 n=43 v=0
25344 On ch=4 n=38 v=84
25680 On ch=4 n=38 v=0
26116 On ch=4 n=36 v=81
26452 On ch=4 n=36 v=0
26690 On ch=4 n=36 v=81
26834 On ch=4 n=36 v=0
26882 On ch=4 n=36 v=75
27242 On ch=4 n=36 v=0
27652 On ch=4 n=34 v=75
28012 On ch=4 n=34 v=0
28228 On ch=4 n=34 v=75
28372 On ch=4 n=34 v=0
28420 On ch=4 n=34 v=75
28756 On ch=4 n=34 v=0
29186 On ch=4 n=36 v=81
29546 On ch=4 n=36 v=0
29764 On ch=4 n=36 v=81
29908 On ch=4 n=36 v=0
29952 On ch=4 n=36 v=81
30312 On ch=4 n=36 v=0
30720 On ch=4 n=34 v=81
31056 On ch=4 n=34 v=0
31298 On ch=4 n=34 v=78
31442 On ch=4 n=34 v=0
31490 On ch=4 n=34 v=84
31826 On ch=4 n=34 v=0
32254 On ch=4 n=40 v=81
32614 On ch=4 n=40 v=0
32832 On ch=4 n=40 v=75
33000 On ch=4 n=40 v=0
33026 On ch=4 n=40 v=81
33386 On ch=4 n=40 v=0
33792 On ch=4 n=39 v=75
34128 On ch=4 n=39 v=0
34366 On ch=4 n=39 v=75
34534 On ch=4 n=39 v=0
34564 On ch=4 n=39 v=78
34924 On ch=4 n=39 v=0
35330 On ch=4 n=38 v=81
35498 On ch=4 n=38 v=0
36100 On ch=4 n=39 v=78
36844 On ch=4 n=39 v=0
36868 On ch=4 n=38 v=78
37036 On ch=4 n=38 v=0
37634 On ch=4 n=39 v=78
38354 On ch=4 n=39 v=0
38400 On ch=4 n=38 v=78
38568 On ch=4 n=38 v=0
38788 On ch=4 n=39 v=75
38956 On ch=4 n=39 v=0
39168 On ch=4 n=38 v=75
39336 On ch=4 n=38 v=0
39554 On ch=4 n=39 v=75
39698 On ch=4 n=39 v=0
39938 On ch=4 n=38 v=75
41474 On ch=4 n=38 v=0
41474 On ch=4 n=43 v=87
41810 On ch=4 n=43 v=0
42050 On ch=4 n=43 v=84
42194 On ch=4 n=43 v=0
42240 On ch=4 n=38 v=90
42384 On ch=4 n=38 v=0
42436 On ch=4 n=38 v=87
42580 On ch=4 n=38 v=0
42624 On ch=4 n=40 v=87
42768 On ch=4 n=40 v=0
42814 On ch=4 n=42 v=84
42958 On ch=4 n=42 v=0
43012 On ch=4 n=43 v=87
43348 On ch=4 n=43 v=0
43586 On ch=4 n=43 v=84
43730 On ch=4 n=43 v=0
43778 On ch=4 n=38 v=90
44186 On ch=4 n=38 v=0
44548 On ch=4 n=43 v=81
44884 On ch=4 n=43 v=0
45124 On ch=4 n=43 v=84
45268 On ch=4 n=43 v=0
45316 On ch=4 n=43 v=87
45676 On ch=4 n=43 v=0
46082 On ch=4 n=39 v=84
46442 On ch=4 n=39 v=0
46660 On ch=4 n=39 v=81
46804 On ch=4 n=39 v=0
46848 On ch=4 n=39 v=81
47208 On ch=4 n=39 v=0
47616 On ch=4 n=36 v=78
47952 On ch=4 n=36 v=0
48194 On ch=4 n=36 v=78
48338 On ch=4 n=36 v=0
48386 On ch=4 n=36 v=75
48530 On ch=4 n=36 v=0
48576 On ch=4 n=38 v=78
48720 On ch=4 n=38 v=0
48772 On ch=4 n=39 v=81
48892 On ch=4 n=39 v=0
48960 On ch=4 n=40 v=78
49104 On ch=4 n=40 v=0
49150 On ch=4 n=41 v=84
49462 On ch=4 n=41 v=0
49728 On ch=4 n=41 v=81
49872 On ch=4 n=41 v=0
49922 On ch=4 n=36 v=78
50282 On ch=4 n=36 v=0
50688 On ch=4 n=41 v=81
51024 On ch=4 n=41 v=0
51262 On ch=4 n=41 v=84
51406 On ch=4 n=41 v=0
51460 On ch=4 n=36 v=75
51796 On ch=4 n=36 v=0
52226 On ch=4 n=34 v=75
52562 On ch=4 n=34 v=0
52800 On ch=4 n=34 v=75
52944 On ch=4 n=34 v=0
52996 On ch=4 n=34 v=78
53356 On ch=4 n=34 v=0
53760 On ch=4 n=39 v=87
54072 On ch=4 n=39 v=0
54528 On ch=4 n=39 v=93
54840 On ch=4 n=39 v=0
55296 On ch=4 n=34 v=78
55632 On ch=4 n=34 v=0
56064 On ch=4 n=34 v=84
56400 On ch=4 n=34 v=0
56832 On ch=4 n=39 v=81
57144 On ch=4 n=39 v=0
57600 On ch=4 n=39 v=78
57936 On ch=4 n=39 v=0
58370 On ch=4 n=34 v=78
58706 On ch=4 n=34 v=0
59136 On ch=4 n=34 v=72
59472 On ch=4 n=34 v=0
59904 On ch=4 n=38 v=64
60264 On ch=4 n=38 v=0
60480 On ch=4 n=38 v=69
60624 On ch=4 n=38 v=0
60672 On ch=4 n=38 v=69
61008 On ch=4 n=38 v=0
61444 On ch=4 n=34 v=75
61780 On ch=4 n=34 v=0
62212 On ch=4 n=39 v=72
62548 On ch=4 n=39 v=0
62978 On ch=4 n=41 v=69
63314 On ch=4 n=41 v=0
63744 On ch=4 n=29 v=87
64032 On ch=4 n=29 v=0
64512 On ch=4 n=34 v=84
64848 On ch=4 n=34 v=0
65090 On ch=4 n=34 v=87
65234 On ch=4 n=34 v=0
65282 On ch=4 n=31 v=90
65618 On ch=4 n=31 v=0
65856 On ch=4 n=31 v=81
66000 On ch=4 n=31 v=0
66046 On ch=4 n=36 v=81
66238 On ch=4 n=36 v=0
66244 On ch=4 n=38 v=81
66436 On ch=4 n=38 v=0
66436 On ch=4 n=39 v=81
66624 On ch=4 n=40 v=81
66628 On ch=4 n=39 v=0
66816 On ch=4 n=40 v=0
66818 On ch=4 n=41 v=81
67010 On ch=4 n=41 v=0
67010 On ch=4 n=43 v=81
67202 On ch=4 n=43 v=0
67202 On ch=4 n=44 v=81
67394 On ch=4 n=44 v=0
67394 On ch=4 n=45 v=81
67584 On ch=4 n=46 v=87
67586 On ch=4 n=45 v=0
67704 On ch=4 n=46 v=0
67780 On ch=4 n=46 v=87
67900 On ch=4 n=46 v=0
67968 On ch=4 n=38 v=75
68280 On ch=4 n=38 v=0
68356 On ch=4 n=39 v=72
68692 On ch=4 n=39 v=0
68736 On ch=4 n=41 v=75
69072 On ch=4 n=41 v=0
69122 On ch=4 n=34 v=84
69458 On ch=4 n=34 v=0
69696 On ch=4 n=34 v=87
69840 On ch=4 n=34 v=0
69892 On ch=4 n=31 v=90
70228 On ch=4 n=31 v=0
70468 On ch=4 n=31 v=81
70612 On ch=4 n=31 v=0
70660 On ch=4 n=36 v=81
70848 On ch=4 n=38 v=81
70852 On ch=4 n=36 v=0
71040 On ch=4 n=38 v=0
71042 On ch=4 n=39 v=81
71234 On ch=4 n=39 v=0
71234 On ch=4 n=40 v=81
71426 On ch=4 n=40 v=0
71426 On ch=4 n=41 v=81
71618 On ch=4 n=41 v=0
71618 On ch=4 n=43 v=81
71808 On ch=4 n=44 v=81
71810 On ch=4 n=43 v=0
72000 On ch=4 n=44 v=0
72004 On ch=4 n=45 v=81
72192 On ch=4 n=46 v=87
72196 On ch=4 n=45 v=0
72312 On ch=4 n=46 v=0
72382 On ch=4 n=46 v=87
72502 On ch=4 n=46 v=0
72580 On ch=4 n=38 v=75
72892 On ch=4 n=38 v=0
72960 On ch=4 n=39 v=72
73296 On ch=4 n=39 v=0
73346 On ch=4 n=41 v=75
73682 On ch=4 n=41 v=0
73730 On ch=4 n=34 v=84
74018 On ch=4 n=34 v=0
74116 On ch=4 n=38 v=75
74428 On ch=4 n=38 v=0
74494 On ch=4 n=39 v=72
74830 On ch=4 n=39 v=0
74884 On ch=4 n=41 v=75
75220 On ch=4 n=41 v=0
75266 On ch=4 n=34 v=84
75602 On ch=4 n=34 v=0
75842 On ch=4 n=34 v=84
75986 On ch=4 n=34 v=0
76032 On ch=4 n=41 v=84
76344 On ch=4 n=41 v=0
76606 On ch=4 n=41 v=81
76750 On ch=4 n=41 v=0
76804 On ch=4 n=34 v=84
77140 On ch=4 n=34 v=0
77378 On ch=4 n=34 v=84
77522 On ch=4 n=34 v=0
77570 On ch=4 n=36 v=81
77762 On ch=4 n=36 v=0
77762 On ch=4 n=38 v=84
77954 On ch=4 n=38 v=0
77954 On ch=4 n=41 v=84
78290 On ch=4 n=41 v=0
78340 On ch=4 n=43 v=87
78676 On ch=4 n=43 v=0
78916 On ch=4 n=43 v=84
79060 On ch=4 n=43 v=0
79108 On ch=4 n=38 v=90
79252 On ch=4 n=38 v=0
79296 On ch=4 n=38 v=87
79440 On ch=4 n=38 v=0
79490 On ch=4 n=40 v=87
79634 On ch=4 n=40 v=0
79682 On ch=4 n=42 v=84
79826 On ch=4 n=42 v=0
79874 On ch=4 n=43 v=87
80210 On ch=4 n=43 v=0
80452 On ch=4 n=43 v=84
80596 On ch=4 n=43 v=0
80640 On ch=4 n=38 v=90
80784 On ch=4 n=38 v=0
80830 On ch=4 n=38 v=87
80974 On ch=4 n=38 v=0
81028 On ch=4 n=40 v=87
81172 On ch=4 n=40 v=0
81220 On ch=4 n=42 v=84
81364 On ch=4 n=42 v=0
81408 On ch=4 n=43 v=87
81744 On ch=4 n=43 v=0
81986 On ch=4 n=43 v=84
82130 On ch=4 n=43 v=0
82178 On ch=4 n=38 v=90
82586 On ch=4 n=38 v=0
82752 On ch=4 n=38 v=84
82872 On ch=4 n=38 v=0
82942 On ch=4 n=43 v=81
83278 On ch=4 n=43 v=0
83520 On ch=4 n=43 v=84
83664 On ch=4 n=43 v=0
83714 On ch=4 n=43 v=87
84074 On ch=4 n=43 v=0
84480 On ch=4 n=43 v=81
84816 On ch=4 n=43 v=0
85054 On ch=4 n=43 v=87
85198 On ch=4 n=43 v=0
85252 On ch=4 n=43 v=84
85588 On ch=4 n=43 v=0
85826 On ch=4 n=43 v=84
85970 On ch=4 n=43 v=0
86018 On ch=4 n=42 v=87
86378 On ch=4 n=42 v=0
86592 On ch=4 n=42 v=81
86736 On ch=4 n=42 v=0
86788 On ch=4 n=38 v=84
87148 On ch=4 n=38 v=0
87556 On ch=4 n=45 v=81
87892 On ch=4 n=45 v=0
88130 On ch=4 n=45 v=81
88274 On ch=4 n=45 v=0
88322 On ch=4 n=38 v=84
88682 On ch=4 n=38 v=0
89088 On ch=4 n=43 v=81
89448 On ch=4 n=43 v=0
89668 On ch=4 n=43 v=75
89788 On ch=4 n=43 v=0
89856 On ch=4 n=38 v=84
90192 On ch=4 n=38 v=0
90626 On ch=4 n=36 v=81
90962 On ch=4 n=36 v=0
91200 On ch=4 n=36 v=81
91344 On ch=4 n=36 v=0
91390 On ch=4 n=36 v=75
91750 On ch=4 n=36 v=0
92162 On ch=4 n=34 v=75
92522 On ch=4 n=34 v=0
92738 On ch=4 n=34 v=75
92882 On ch=4 n=34 v=0
92928 On ch=4 n=34 v=75
93264 On ch=4 n=34 v=0
93700 On ch=4 n=36 v=81
94060 On ch=4 n=36 v=0
94274 On ch=4 n=36 v=81
94418 On ch=4 n=36 v=0
94466 On ch=4 n=36 v=81
94826 On ch=4 n=36 v=0
95236 On ch=4 n=34 v=81
95572 On ch=4 n=34 v=0
95812 On ch=4 n=34 v=78
95956 On ch=4 n=34 v=0
96004 On ch=4 n=34 v=84
96340 On ch=4 n=34 v=0
96770 On ch=4 n=40 v=81
97130 On ch=4 n=40 v=0
97348 On ch=4 n=40 v=75
97516 On ch=4 n=40 v=0
97536 On ch=4 n=40 v=81
97896 On ch=4 n=40 v=0
98304 On ch=4 n=39 v=75
98640 On ch=4 n=39 v=0
98882 On ch=4 n=39 v=75
99050 On ch=4 n=39 v=0
99074 On ch=4 n=39 v=78
99434 On ch=4 n=39 v=0
99838 On ch=4 n=38 v=81
100006 On ch=4 n=38 v=0
100610 On ch=4 n=39 v=78
101354 On ch=4 n=39 v=0
101376 On ch=4 n=38 v=78
101544 On ch=4 n=38 v=0
102148 On ch=4 n=39 v=78
102868 On ch=4 n=39 v=0
102914 On ch=4 n=38 v=78
103082 On ch=4 n=38 v=0
103298 On ch=4 n=39 v=75
103466 On ch=4 n=39 v=0
103684 On ch=4 n=38 v=75
103852 On ch=4 n=38 v=0
104062 On ch=4 n=39 v=75
104206 On ch=4 n=39 v=0
104452 On ch=4 n=38 v=75
105984 On ch=4 n=50 v=81
105988 On ch=4 n=38 v=0
106344 On ch=4 n=50 v=0
106564 On ch=4 n=50 v=84
106708 On ch=4 n=50 v=0
106752 On ch=4 n=50 v=84
107112 On ch=4 n=50 v=0
107522 On ch=4 n=38 v=81
107882 On ch=4 n=38 v=0
108096 On ch=4 n=38 v=84
108240 On ch=4 n=38 v=0
108286 On ch=4 n=38 v=84
108646 On ch=4 n=38 v=0
109058 On ch=4 n=50 v=81
109418 On ch=4 n=50 v=0
109634 On ch=4 n=50 v=84
109778 On ch=4 n=50 v=0
109824 On ch=4 n=50 v=84
110184 On ch=4 n=50 v=0
110596 On ch=4 n=38 v=81
110956 On ch=4 n=38 v=0
111170 On ch=4 n=38 v=84
111314 On ch=4 n=38 v=0
111362 On ch=4 n=38 v=84
111722 On ch=4 n=38 v=0
112132 On ch=4 n=36 v=81
112492 On ch=4 n=36 v=0
112708 On ch=4 n=36 v=84
112852 On ch=4 n=36 v=0
112900 On ch=4 n=36 v=84
113260 On ch=4 n=36 v=0
113666 On ch=4 n=34 v=81
114026 On ch=4 n=34 v=0
114244 On ch=4 n=34 v=84
114388 On ch=4 n=34 v=0
114432 On ch=4 n=34 v=84
114792 On ch=4 n=34 v=0
115200 On ch=4 n=39 v=81
115560 On ch=4 n=39 v=0
115778 On ch=4 n=39 v=84
115922 On ch=4 n=39 v=0
115970 On ch=4 n=39 v=84
116330 On ch=4 n=39 v=0
116734 On ch=4 n=38 v=81
117094 On ch=4 n=38 v=0
117312 On ch=4 n=38 v=84
117456 On ch=4 n=38 v=0
117506 On ch=4 n=38 v=84
117866 On ch=4 n=38 v=0
118272 On ch=4 n=36 v=84
118632 On ch=4 n=36 v=0
118846 On ch=4 n=36 v=84
119014 On ch=4 n=36 v=0
119044 On ch=4 n=36 v=81
119380 On ch=4 n=36 v=0
119810 On ch=4 n=34 v=81
120146 On ch=4 n=34 v=0
120384 On ch=4 n=34 v=81
120528 On ch=4 n=34 v=0
120580 On ch=4 n=34 v=81
120892 On ch=4 n=34 v=0
121348 On ch=4 n=38 v=78
121684 On ch=4 n=38 v=0
122114 On ch=4 n=39 v=75
122450 On ch=4 n=39 v=0
122880 On ch=4 n=38 v=78
123216 On ch=4 n=38 v=0
123460 On ch=4 n=38 v=72
123628 On ch=4 n=38 v=0
123648 On ch=4 n=38 v=78
123984 On ch=4 n=38 v=0
124034 On ch=4 n=45 v=75
124226 On ch=4 n=45 v=0
124226 On ch=4 n=47 v=84
124418 On ch=4 n=47 v=0
124418 On ch=4 n=50 v=81
124778 On ch=4 n=50 v=0
124992 On ch=4 n=50 v=81
125136 On ch=4 n=50 v=0
125182 On ch=4 n=50 v=81
125542 On ch=4 n=50 v=0
125954 On ch=4 n=38 v=75
126290 On ch=4 n=38 v=0
126530 On ch=4 n=38 v=69
126698 On ch=4 n=38 v=0
126720 On ch=4 n=38 v=75
127080 On ch=4 n=38 v=0
127104 On ch=4 n=45 v=75
127294 On ch=4 n=47 v=75
127296 On ch=4 n=45 v=0
127486 On ch=4 n=47 v=0
127492 On ch=4 n=50 v=78
127828 On ch=4 n=50 v=0
128066 On ch=4 n=50 v=75
128210 On ch=4 n=50 v=0
128258 On ch=4 n=50 v=78
128618 On ch=4 n=50 v=0
129028 On ch=4 n=38 v=72
129388 On ch=4 n=38 v=0
129604 On ch=4 n=38 v=69
129748 On ch=4 n=38 v=0
129796 On ch=4 n=38 v=84
130132 On ch=4 n=38 v=0
130562 On ch=4 n=43 v=87
130898 On ch=4 n=43 v=0
131140 On ch=4 n=43 v=84
131284 On ch=4 n=43 v=0
131328 On ch=4 n=38 v=90
131472 On ch=4 n=38 v=0
131518 On ch=4 n=38 v=87
131662 On ch=4 n=38 v=0
131716 On ch=4 n=40 v=87
131860 On ch=4 n=40 v=0
131908 On ch=4 n=42 v=84
132052 On ch=4 n=42 v=0
132096 On ch=4 n=43 v=87
132432 On ch=4 n=43 v=0
132674 On ch=4 n=43 v=84
132818 On ch=4 n=43 v=0
132866 On ch=4 n=38 v=90
133274 On ch=4 n=38 v=0
133630 On ch=4 n=43 v=81
133966 On ch=4 n=43 v=0
134208 On ch=4 n=43 v=84
134352 On ch=4 n=43 v=0
134402 On ch=4 n=43 v=87
134762 On ch=4 n=43 v=0
135168 On ch=4 n=39 v=84
135528 On ch=4 n=39 v=0
135742 On ch=4 n=39 v=81
135886 On ch=4 n=39 v=0
135940 On ch=4 n=39 v=81
136300 On ch=4 n=39 v=0
136706 On ch=4 n=36 v=78
137042 On ch=4 n=36 v=0
137280 On ch=4 n=36 v=78
137424 On ch=4 n=36 v=0
137476 On ch=4 n=36 v=75
137620 On ch=4 n=36 v=0
137664 On ch=4 n=38 v=78
137808 On ch=4 n=38 v=0
137854 On ch=4 n=39 v=81
137974 On ch=4 n=39 v=0
138052 On ch=4 n=40 v=78
138196 On ch=4 n=40 v=0
138244 On ch=4 n=41 v=84
138556 On ch=4 n=41 v=0
138818 On ch=4 n=41 v=81
138962 On ch=4 n=41 v=0
139010 On ch=4 n=36 v=78
139370 On ch=4 n=36 v=0
139776 On ch=4 n=41 v=81
140112 On ch=4 n=41 v=0
140356 On ch=4 n=41 v=84
140500 On ch=4 n=41 v=0
140544 On ch=4 n=36 v=75
140880 On ch=4 n=36 v=0
141314 On ch=4 n=34 v=75
141650 On ch=4 n=34 v=0
141888 On ch=4 n=34 v=75
142032 On ch=4 n=34 v=0
142078 On ch=4 n=34 v=78
142438 On ch=4 n=34 v=0
142850 On ch=4 n=36 v=75
143186 On ch=4 n=36 v=0
143426 On ch=4 n=36 v=75
143546 On ch=4 n=36 v=0
143616 On ch=4 n=36 v=75
143952 On ch=4 n=36 v=0
144388 On ch=4 n=33 v=75
144724 On ch=4 n=33 v=0
144962 On ch=4 n=33 v=72
145106 On ch=4 n=33 v=0
145154 On ch=4 n=33 v=72
145490 On ch=4 n=33 v=0
145924 On ch=4 n=42 v=75
146260 On ch=4 n=42 v=0
146500 On ch=4 n=42 v=75
146668 On ch=4 n=42 v=0
146692 On ch=4 n=38 v=75
147052 On ch=4 n=38 v=0
147458 On ch=4 n=34 v=72
147794 On ch=4 n=34 v=0
148036 On ch=4 n=34 v=72
148204 On ch=4 n=34 v=0
148224 On ch=4 n=43 v=72
148584 On ch=4 n=43 v=0
148992 On ch=4 n=38 v=75
149352 On ch=4 n=38 v=0
149570 On ch=4 n=38 v=75
149714 On ch=4 n=38 v=0
149762 On ch=4 n=38 v=75
150098 On ch=4 n=38 v=0
150148 On ch=4 n=38 v=75
150508 On ch=4 n=38 v=0
150526 On ch=4 n=43 v=72
150886 On ch=4 n=43 v=0
151104 On ch=4 n=43 v=78
151272 On ch=4 n=43 v=0
151298 On ch=4 n=39 v=69
151634 On ch=4 n=39 v=0
151874 On ch=4 n=36 v=75
152042 On ch=4 n=36 v=0
152064 On ch=4 n=34 v=75
152424 On ch=4 n=34 v=0
152638 On ch=4 n=34 v=75
152782 On ch=4 n=34 v=0
152836 On ch=4 n=29 v=75
153172 On ch=4 n=29 v=0
153410 On ch=4 n=29 v=72
153554 On ch=4 n=29 v=0
153602 On ch=4 n=34 v=81
153938 On ch=4 n=34 v=0
154176 On ch=4 n=34 v=78
154344 On ch=4 n=34 v=0
154372 On ch=4 n=31 v=78
154732 On ch=4 n=31 v=0
154948 On ch=4 n=31 v=78
155092 On ch=4 n=31 v=0
155140 On ch=4 n=39 v=75
155328 On ch=4 n=38 v=75
155332 On ch=4 n=39 v=0
155520 On ch=4 n=38 v=0
155522 On ch=4 n=39 v=75
155714 On ch=4 n=39 v=0
155714 On ch=4 n=40 v=75
155906 On ch=4 n=40 v=0
155906 On ch=4 n=41 v=75
156098 On ch=4 n=41 v=0
156098 On ch=4 n=43 v=75
156288 On ch=4 n=44 v=75
156290 On ch=4 n=43 v=0
156480 On ch=4 n=44 v=0
156484 On ch=4 n=45 v=75
156672 On ch=4 n=46 v=75
156676 On ch=4 n=45 v=0
156840 On ch=4 n=46 v=0
156862 On ch=4 n=46 v=75
157006 On ch=4 n=46 v=0
157060 On ch=4 n=38 v=75
157396 On ch=4 n=38 v=0
157440 On ch=4 n=39 v=75
157776 On ch=4 n=39 v=0
157826 On ch=4 n=41 v=75
158162 On ch=4 n=41 v=0
158210 On ch=4 n=34 v=81
158546 On ch=4 n=34 v=0
158784 On ch=4 n=34 v=78
158952 On ch=4 n=34 v=0
158974 On ch=4 n=31 v=78
159334 On ch=4 n=31 v=0
159552 On ch=4 n=31 v=78
159696 On ch=4 n=31 v=0
159746 On ch=4 n=39 v=75
159938 On ch=4 n=39 v=0
159938 On ch=4 n=38 v=75
160130 On ch=4 n=38 v=0
160130 On ch=4 n=39 v=75
160322 On ch=4 n=39 v=0
160322 On ch=4 n=40 v=75
160512 On ch=4 n=41 v=75
160514 On ch=4 n=40 v=0
160704 On ch=4 n=41 v=0
160708 On ch=4 n=43 v=75
160896 On ch=4 n=44 v=75
160900 On ch=4 n=43 v=0
161086 On ch=4 n=45 v=75
161088 On ch=4 n=44 v=0
161278 On ch=4 n=45 v=0
161284 On ch=4 n=46 v=75
161452 On ch=4 n=46 v=0
161476 On ch=4 n=46 v=75
161620 On ch=4 n=46 v=0
161664 On ch=4 n=38 v=75
162000 On ch=4 n=38 v=0
162050 On ch=4 n=39 v=75
162386 On ch=4 n=39 v=0
162434 On ch=4 n=41 v=75
162770 On ch=4 n=41 v=0
162820 On ch=4 n=34 v=78
163156 On ch=4 n=34 v=0
163198 On ch=4 n=38 v=75
163534 On ch=4 n=38 v=0
163588 On ch=4 n=39 v=75
163924 On ch=4 n=39 v=0
163970 On ch=4 n=41 v=75
164306 On ch=4 n=41 v=0
164354 On ch=4 n=31 v=93
165888 On ch=4 n=39 v=98
165890 On ch=4 n=31 v=0
167422 On ch=4 n=34 v=93
167424 On ch=4 n=39 v=0
168958 On ch=4 n=34 v=0
168960 On ch=4 n=29 v=93
170496 On ch=4 n=29 v=0
170498 On ch=4 n=34 v=81
170834 On ch=4 n=34 v=0
171072 On ch=4 n=34 v=78
171240 On ch=4 n=34 v=0
171268 On ch=4 n=31 v=78
171628 On ch=4 n=31 v=0
171844 On ch=4 n=31 v=78
171988 On ch=4 n=31 v=0
172036 On ch=4 n=39 v=75
172224 On ch=4 n=38 v=75
172228 On ch=4 n=39 v=0
172416 On ch=4 n=38 v=0
172418 On ch=4 n=39 v=75
172610 On ch=4 n=39 v=0
172610 On ch=4 n=40 v=75
172802 On ch=4 n=40 v=0
172802 On ch=4 n=41 v=75
172994 On ch=4 n=41 v=0
172994 On ch=4 n=43 v=75
173184 On ch=4 n=44 v=75
173186 On ch=4 n=43 v=0
173376 On ch=4 n=44 v=0
173380 On ch=4 n=45 v=75
173568 On ch=4 n=46 v=75
173572 On ch=4 n=45 v=0
173736 On ch=4 n=46 v=0
173758 On ch=4 n=46 v=75
173902 On ch=4 n=46 v=0
173956 On ch=4 n=38 v=75
174292 On ch=4 n=38 v=0
174336 On ch=4 n=39 v=75
174672 On ch=4 n=39 v=0
174722 On ch=4 n=41 v=75
175058 On ch=4 n=41 v=0
175106 On ch=4 n=34 v=75
175394 On ch=4 n=34 v=0
175492 On ch=4 n=38 v=75
175828 On ch=4 n=38 v=0
175870 On ch=4 n=39 v=75
176206 On ch=4 n=39 v=0
176260 On ch=4 n=41 v=75
176596 On ch=4 n=41 v=0
176642 On ch=4 n=34 v=101
176858 On ch=4 n=34 v=0
177408 On ch=4 n=39 v=98
177624 On ch=4 n=39 v=0
178180 On ch=4 n=41 v=98
178396 On ch=4 n=41 v=0
179716 On ch=4 n=29 v=104
179884 On ch=4 n=29 v=0
181250 On ch=4 n=34 v=66
184320 On ch=4 n=34 v=0
184320 Meta TrkEnd
TrkEnd
MTrk
0 Meta 0x21 00
0 Meta TrkName "piano"
0 PrCh ch=5 p=0
0 Par ch=5 c=7 v=117
0 Par ch=5 c=10 v=12
192 Par ch=5 c=91 v=68
1488 On ch=5 n=55 v=87
1512 On ch=5 n=62 v=93
1536 On ch=5 n=67 v=95
1560 On ch=5 n=70 v=95
3024 On ch=5 n=55 v=0
3024 On ch=5 n=55 v=93
3048 On ch=5 n=62 v=0
3048 On ch=5 n=63 v=93
3072 On ch=5 n=70 v=0
3072 On ch=5 n=67 v=0
3072 On ch=5 n=67 v=93
3096 On ch=5 n=70 v=93
4560 On ch=5 n=55 v=0
4560 On ch=5 n=63 v=0
4584 On ch=5 n=62 v=93
4584 On ch=5 n=53 v=93
4608 On ch=5 n=67 v=0
4608 On ch=5 n=65 v=93
4632 On ch=5 n=70 v=0
4632 On ch=5 n=70 v=93
6072 On ch=5 n=53 v=0
6096 On ch=5 n=53 v=87
6120 On ch=5 n=62 v=0
6120 On ch=5 n=60 v=87
6144 On ch=5 n=70 v=0
6144 On ch=5 n=65 v=0
6144 On ch=5 n=65 v=87
6168 On ch=5 n=69 v=87
7656 On ch=5 n=53 v=0
7680 On ch=5 n=60 v=0
7680 On ch=5 n=65 v=0
7680 On ch=5 n=69 v=0
7680 On ch=5 n=50 v=75
7848 On ch=5 n=50 v=0
7872 On ch=5 n=50 v=75
8016 On ch=5 n=50 v=0
8064 On ch=5 n=50 v=75
8232 On ch=5 n=50 v=0
8256 On ch=5 n=50 v=75
8400 On ch=5 n=50 v=0
8448 On ch=5 n=50 v=75
8592 On ch=5 n=50 v=0
8640 On ch=5 n=50 v=75
8784 On ch=5 n=50 v=0
8832 On ch=5 n=50 v=75
8976 On ch=5 n=50 v=0
9024 On ch=5 n=50 v=75
9168 On ch=5 n=50 v=0
9216 On ch=5 n=54 v=72
9216 On ch=5 n=50 v=72
9360 On ch=5 n=54 v=0
9384 On ch=5 n=50 v=0
9408 On ch=5 n=54 v=75
9408 On ch=5 n=50 v=75
9552 On ch=5 n=50 v=0
9552 On ch=5 n=54 v=0
9600 On ch=5 n=54 v=75
9600 On ch=5 n=50 v=75
9744 On ch=5 n=54 v=0
9768 On ch=5 n=50 v=0
9792 On ch=5 n=54 v=72
9792 On ch=5 n=50 v=72
9936 On ch=5 n=50 v=0
9936 On ch=5 n=54 v=0
9984 On ch=5 n=54 v=72
9984 On ch=5 n=50 v=72
10128 On ch=5 n=50 v=0
10128 On ch=5 n=54 v=0
10176 On ch=5 n=54 v=72
10176 On ch=5 n=50 v=72
10320 On ch=5 n=50 v=0
10320 On ch=5 n=54 v=0
10368 On ch=5 n=54 v=72
10368 On ch=5 n=50 v=72
10512 On ch=5 n=50 v=0
10512 On ch=5 n=54 v=0
10560 On ch=5 n=54 v=75
10560 On ch=5 n=50 v=75
10704 On ch=5 n=50 v=0
10704 On ch=5 n=54 v=0
10752 On ch=5 n=57 v=72
10752 On ch=5 n=54 v=72
10752 On ch=5 n=50 v=72
10872 On ch=5 n=57 v=0
10896 On ch=5 n=54 v=0
10920 On ch=5 n=50 v=0
10944 On ch=5 n=57 v=72
10944 On ch=5 n=54 v=72
10944 On ch=5 n=50 v=72
11088 On ch=5 n=50 v=0
11088 On ch=5 n=54 v=0
11088 On ch=5 n=57 v=0
11136 On ch=5 n=57 v=72
11136 On ch=5 n=54 v=72
11136 On ch=5 n=50 v=72
11280 On ch=5 n=54 v=0
11280 On ch=5 n=57 v=0
11304 On ch=5 n=50 v=0
11328 On ch=5 n=57 v=72
11328 On ch=5 n=54 v=72
11328 On ch=5 n=50 v=72
11448 On ch=5 n=57 v=0
11472 On ch=5 n=50 v=0
11472 On ch=5 n=54 v=0
11520 On ch=5 n=57 v=66
11520 On ch=5 n=54 v=66
11520 On ch=5 n=50 v=66
11640 On ch=5 n=57 v=0
11664 On ch=5 n=50 v=0
11664 On ch=5 n=54 v=0
11712 On ch=5 n=57 v=66
11712 On ch=5 n=54 v=66
11712 On ch=5 n=50 v=66
11832 On ch=5 n=57 v=0
11856 On ch=5 n=50 v=0
11856 On ch=5 n=54 v=0
11904 On ch=5 n=57 v=66
11904 On ch=5 n=54 v=66
11904 On ch=5 n=50 v=66
12048 On ch=5 n=50 v=0
12048 On ch=5 n=54 v=0
12048 On ch=5 n=57 v=0
12096 On ch=5 n=57 v=69
12096 On ch=5 n=54 v=69
12096 On ch=5 n=50 v=69
12240 On ch=5 n=50 v=0
12240 On ch=5 n=54 v=0
12240 On ch=5 n=57 v=0
12288 On ch=5 n=62 v=78
12288 On ch=5 n=57 v=78
12288 On ch=5 n=54 v=78
12288 On ch=5 n=50 v=78
12408 On ch=5 n=57 v=0
12432 On ch=5 n=62 v=0
12432 On ch=5 n=54 v=0
12456 On ch=5 n=50 v=0
12480 On ch=5 n=62 v=75
12480 On ch=5 n=57 v=75
12480 On ch=5 n=54 v=75
12480 On ch=5 n=50 v=75
12624 On ch=5 n=50 v=0
12624 On ch=5 n=62 v=0
12624 On ch=5 n=57 v=0
12624 On ch=5 n=54 v=0
12672 On ch=5 n=62 v=75
12672 On ch=5 n=57 v=75
12672 On ch=5 n=54 v=75
12672 On ch=5 n=50 v=75
12816 On ch=5 n=54 v=0
12816 On ch=5 n=62 v=0
12816 On ch=5 n=57 v=0
12840 On ch=5 n=50 v=0
12864 On ch=5 n=62 v=72
12864 On ch=5 n=57 v=72
12864 On ch=5 n=54 v=72
12864 On ch=5 n=50 v=72
12984 On ch=5 n=57 v=0
12984 On ch=5 n=62 v=0
13008 On ch=5 n=54 v=0
13008 On ch=5 n=50 v=0
13056 On ch=5 n=62 v=72
13056 On ch=5 n=57 v=72
13056 On ch=5 n=54 v=72
13056 On ch=5 n=50 v=72
13176 On ch=5 n=57 v=0
13200 On ch=5 n=62 v=0
13200 On ch=5 n=54 v=0
13200 On ch=5 n=50 v=0
13248 On ch=5 n=62 v=72
13248 On ch=5 n=57 v=72
13248 On ch=5 n=54 v=72
13248 On ch=5 n=50 v=72
13368 On ch=5 n=57 v=0
13392 On ch=5 n=62 v=0
13392 On ch=5 n=54 v=0
13392 On ch=5 n=50 v=0
13440 On ch=5 n=62 v=72
13440 On ch=5 n=57 v=72
13440 On ch=5 n=54 v=72
13440 On ch=5 n=50 v=72
13560 On ch=5 n=62 v=0
13584 On ch=5 n=57 v=0
13584 On ch=5 n=54 v=0
13584 On ch=5 n=50 v=0
13632 On ch=5 n=62 v=78
13632 On ch=5 n=57 v=78
13632 On ch=5 n=54 v=78
13632 On ch=5 n=50 v=78
13752 On ch=5 n=62 v=0
13776 On ch=5 n=57 v=0
13776 On ch=5 n=54 v=0
13776 On ch=5 n=50 v=0
14208 On ch=5 n=55 v=81
14352 On ch=5 n=55 v=0
14400 On ch=5 n=57 v=81
14544 On ch=5 n=57 v=0
14592 On ch=5 n=58 v=78
14736 On ch=5 n=58 v=0
14784 On ch=5 n=57 v=78
14928 On ch=5 n=57 v=0
14976 On ch=5 n=55 v=84
15168 On ch=5 n=55 v=0
15744 On ch=5 n=55 v=75
15888 On ch=5 n=55 v=0
15936 On ch=5 n=57 v=72
16080 On ch=5 n=57 v=0
16128 On ch=5 n=58 v=72
16272 On ch=5 n=58 v=0
16320 On ch=5 n=57 v=81
16464 On ch=5 n=57 v=0
16512 On ch=5 n=55 v=75
16704 On ch=5 n=55 v=0
17280 On ch=5 n=55 v=69
17424 On ch=5 n=55 v=0
17472 On ch=5 n=57 v=72
17616 On ch=5 n=57 v=0
17664 On ch=5 n=58 v=81
17808 On ch=5 n=58 v=0
17856 On ch=5 n=57 v=72
18000 On ch=5 n=57 v=0
18048 On ch=5 n=55 v=81
18240 On ch=5 n=55 v=0
18816 On ch=5 n=60 v=72
18960 On ch=5 n=60 v=0
19008 On ch=5 n=62 v=72
19152 On ch=5 n=62 v=0
19200 On ch=5 n=63 v=87
19344 On ch=5 n=63 v=0
19392 On ch=5 n=62 v=75
19536 On ch=5 n=62 v=0
19584 On ch=5 n=60 v=75
19776 On ch=5 n=60 v=0
20352 On ch=5 n=60 v=72
20496 On ch=5 n=60 v=0
20544 On ch=5 n=62 v=75
20688 On ch=5 n=62 v=0
20736 On ch=5 n=63 v=78
20880 On ch=5 n=63 v=0
20928 On ch=5 n=62 v=78
21072 On ch=5 n=62 v=0
21120 On ch=5 n=60 v=81
21312 On ch=5 n=60 v=0
21888 On ch=5 n=62 v=69
22056 On ch=5 n=62 v=0
22080 On ch=5 n=64 v=75
22224 On ch=5 n=64 v=0
22272 On ch=5 n=66 v=75
22416 On ch=5 n=66 v=0
22464 On ch=5 n=64 v=72
22608 On ch=5 n=64 v=0
22656 On ch=5 n=62 v=78
22848 On ch=5 n=62 v=0
23424 On ch=5 n=62 v=69
23592 On ch=5 n=62 v=0
23616 On ch=5 n=64 v=75
23760 On ch=5 n=64 v=0
23808 On ch=5 n=66 v=75
23952 On ch=5 n=66 v=0
24000 On ch=5 n=64 v=72
24144 On ch=5 n=64 v=0
24192 On ch=5 n=62 v=78
24384 On ch=5 n=62 v=0
24960 On ch=5 n=55 v=81
25104 On ch=5 n=55 v=0
25152 On ch=5 n=57 v=81
25296 On ch=5 n=57 v=0
25344 On ch=5 n=58 v=78
25488 On ch=5 n=58 v=0
25536 On ch=5 n=57 v=78
25680 On ch=5 n=57 v=0
25728 On ch=5 n=55 v=84
25920 On ch=5 n=55 v=0
26280 On ch=5 n=63 v=69
26496 On ch=5 n=63 v=0
26496 On ch=5 n=66 v=69
26688 On ch=5 n=66 v=0
26688 On ch=5 n=72 v=69
26904 On ch=5 n=72 v=0
27072 On ch=5 n=60 v=69
27264 On ch=5 n=63 v=69
27288 On ch=5 n=60 v=0
27456 On ch=5 n=66 v=69
27480 On ch=5 n=63 v=0
27648 On ch=5 n=66 v=0
27840 On ch=5 n=58 v=69
28032 On ch=5 n=58 v=0
28032 On ch=5 n=62 v=69
28224 On ch=5 n=67 v=69
28248 On ch=5 n=62 v=0
28440 On ch=5 n=67 v=0
28584 On ch=5 n=62 v=66
28776 On ch=5 n=62 v=0
28800 On ch=5 n=67 v=66
28992 On ch=5 n=67 v=0
28992 On ch=5 n=70 v=72
29184 On ch=5 n=70 v=0
29352 On ch=5 n=63 v=69
29568 On ch=5 n=63 v=0
29568 On ch=5 n=66 v=69
29760 On ch=5 n=66 v=0
29760 On ch=5 n=72 v=69
29976 On ch=5 n=72 v=0
30144 On ch=5 n=60 v=69
30336 On ch=5 n=63 v=69
30360 On ch=5 n=60 v=0
30528 On ch=5 n=66 v=69
30552 On ch=5 n=63 v=0
30720 On ch=5 n=66 v=0
30912 On ch=5 n=58 v=69
31104 On ch=5 n=58 v=0
31104 On ch=5 n=62 v=69
31296 On ch=5 n=67 v=69
31320 On ch=5 n=62 v=0
31512 On ch=5 n=67 v=0
31656 On ch=5 n=62 v=66
31848 On ch=5 n=62 v=0
31872 On ch=5 n=67 v=66
32064 On ch=5 n=67 v=0
32064 On ch=5 n=70 v=72
32256 On ch=5 n=70 v=0
32448 On ch=5 n=59 v=69
32640 On ch=5 n=59 v=0
32640 On ch=5 n=64 v=66
32832 On ch=5 n=64 v=0
32832 On ch=5 n=67 v=72
33024 On ch=5 n=67 v=0
33216 On ch=5 n=64 v=72
33408 On ch=5 n=64 v=0
33408 On ch=5 n=67 v=72
33600 On ch=5 n=67 v=0
33600 On ch=5 n=71 v=66
33792 On ch=5 n=71 v=0
33984 On ch=5 n=63 v=69
34176 On ch=5 n=63 v=0
34176 On ch=5 n=67 v=58
34368 On ch=5 n=67 v=0
34368 On ch=5 n=70 v=69
34560 On ch=5 n=70 v=0
34752 On ch=5 n=58 v=66
34944 On ch=5 n=58 v=0
34944 On ch=5 n=63 v=64
35136 On ch=5 n=63 v=0
35136 On ch=5 n=67 v=72
35328 On ch=5 n=67 v=0
35328 On ch=5 n=62 v=78
35328 On ch=5 n=66 v=78
35496 On ch=5 n=66 v=0
35496 On ch=5 n=62 v=0
36096 On ch=5 n=63 v=72
36096 On ch=5 n=67 v=72
36864 On ch=5 n=67 v=0
36864 On ch=5 n=63 v=0
36864 On ch=5 n=62 v=66
36864 On ch=5 n=66 v=66
37008 On ch=5 n=62 v=0
37032 On ch=5 n=66 v=0
37632 On ch=5 n=63 v=72
37632 On ch=5 n=67 v=72
38400 On ch=5 n=67 v=0
38400 On ch=5 n=63 v=0
38400 On ch=5 n=62 v=69
38400 On ch=5 n=66 v=69
38544 On ch=5 n=66 v=0
38544 On ch=5 n=62 v=0
38784 On ch=5 n=63 v=75
38784 On ch=5 n=67 v=75
38928 On ch=5 n=63 v=0
38952 On ch=5 n=67 v=0
39168 On ch=5 n=62 v=75
39168 On ch=5 n=66 v=75
39312 On ch=5 n=62 v=0
39336 On ch=5 n=66 v=0
39552 On ch=5 n=63 v=75
39552 On ch=5 n=67 v=75
39696 On ch=5 n=67 v=0
39696 On ch=5 n=63 v=0
39936 On ch=5 n=62 v=72
39936 On ch=5 n=66 v=72
41472 On ch=5 n=66 v=0
41472 On ch=5 n=62 v=0
41856 On ch=5 n=55 v=81
42000 On ch=5 n=55 v=0
42048 On ch=5 n=57 v=81
42192 On ch=5 n=57 v=0
42240 On ch=5 n=58 v=78
42384 On ch=5 n=58 v=0
42432 On ch=5 n=57 v=78
42576 On ch=5 n=57 v=0
42624 On ch=5 n=55 v=84
42816 On ch=5 n=55 v=0
43392 On ch=5 n=55 v=75
43536 On ch=5 n=55 v=0
43584 On ch=5 n=57 v=72
43728 On ch=5 n=57 v=0
43776 On ch=5 n=58 v=72
43920 On ch=5 n=58 v=0
43968 On ch=5 n=57 v=81
44112 On ch=5 n=57 v=0
44160 On ch=5 n=55 v=75
44352 On ch=5 n=55 v=0
44928 On ch=5 n=55 v=69
45072 On ch=5 n=55 v=0
45120 On ch=5 n=57 v=72
45264 On ch=5 n=57 v=0
45312 On ch=5 n=58 v=81
45456 On ch=5 n=58 v=0
45504 On ch=5 n=57 v=72
45648 On ch=5 n=57 v=0
45696 On ch=5 n=55 v=81
45888 On ch=5 n=55 v=0
46464 On ch=5 n=60 v=72
46608 On ch=5 n=60 v=0
46656 On ch=5 n=62 v=72
46800 On ch=5 n=62 v=0
46848 On ch=5 n=63 v=87
46992 On ch=5 n=63 v=0
47040 On ch=5 n=62 v=75
47184 On ch=5 n=62 v=0
47232 On ch=5 n=60 v=75
47424 On ch=5 n=60 v=0
48000 On ch=5 n=60 v=72
48144 On ch=5 n=60 v=0
48192 On ch=5 n=62 v=72
48336 On ch=5 n=62 v=0
48384 On ch=5 n=63 v=87
48528 On ch=5 n=63 v=0
48576 On ch=5 n=62 v=75
48720 On ch=5 n=62 v=0
48768 On ch=5 n=60 v=75
48960 On ch=5 n=60 v=0
49536 On ch=5 n=53 v=69
49704 On ch=5 n=53 v=0
49728 On ch=5 n=55 v=69
49896 On ch=5 n=55 v=0
49920 On ch=5 n=57 v=69
50088 On ch=5 n=57 v=0
50112 On ch=5 n=55 v=69
50256 On ch=5 n=55 v=0
50304 On ch=5 n=53 v=69
50496 On ch=5 n=53 v=0
51072 On ch=5 n=53 v=66
51240 On ch=5 n=53 v=0
51264 On ch=5 n=55 v=66
51432 On ch=5 n=55 v=0
51456 On ch=5 n=57 v=66
51624 On ch=5 n=57 v=0
51648 On ch=5 n=55 v=66
51816 On ch=5 n=55 v=0
51840 On ch=5 n=53 v=75
52032 On ch=5 n=53 v=0
52608 On ch=5 n=58 v=75
52752 On ch=5 n=58 v=0
52800 On ch=5 n=60 v=75
52944 On ch=5 n=60 v=0
52992 On ch=5 n=62 v=75
53160 On ch=5 n=62 v=0
53184 On ch=5 n=60 v=75
53328 On ch=5 n=60 v=0
53376 On ch=5 n=58 v=75
53568 On ch=5 n=58 v=0
53760 On ch=5 n=63 v=75
53952 On ch=5 n=67 v=75
53976 On ch=5 n=63 v=0
54144 On ch=5 n=70 v=72
54192 On ch=5 n=67 v=0
54336 On ch=5 n=67 v=69
54360 On ch=5 n=70 v=0
54528 On ch=5 n=63 v=69
54576 On ch=5 n=67 v=0
54720 On ch=5 n=67 v=69
54744 On ch=5 n=63 v=0
54888 On ch=5 n=70 v=69
54912 On ch=5 n=67 v=0
55104 On ch=5 n=70 v=0
55104 On ch=5 n=67 v=75
55272 On ch=5 n=67 v=0
55272 On ch=5 n=62 v=64
55488 On ch=5 n=62 v=0
55488 On ch=5 n=65 v=64
55680 On ch=5 n=70 v=75
55704 On ch=5 n=65 v=0
55848 On ch=5 n=70 v=0
55848 On ch=5 n=65 v=75
56040 On ch=5 n=62 v=66
56088 On ch=5 n=65 v=0
56232 On ch=5 n=62 v=0
56256 On ch=5 n=65 v=66
56448 On ch=5 n=70 v=66
56472 On ch=5 n=65 v=0
56640 On ch=5 n=70 v=0
56640 On ch=5 n=65 v=66
56832 On ch=5 n=65 v=0
56832 On ch=5 n=63 v=75
57024 On ch=5 n=67 v=75
57048 On ch=5 n=63 v=0
57216 On ch=5 n=70 v=72
57264 On ch=5 n=67 v=0
57408 On ch=5 n=67 v=69
57432 On ch=5 n=70 v=0
57600 On ch=5 n=63 v=69
57648 On ch=5 n=67 v=0
57792 On ch=5 n=67 v=69
57816 On ch=5 n=63 v=0
57960 On ch=5 n=70 v=69
57984 On ch=5 n=67 v=0
58176 On ch=5 n=70 v=0
58176 On ch=5 n=67 v=75
58344 On ch=5 n=67 v=0
58344 On ch=5 n=62 v=64
58560 On ch=5 n=62 v=0
58560 On ch=5 n=65 v=64
58752 On ch=5 n=70 v=75
58776 On ch=5 n=65 v=0
58920 On ch=5 n=70 v=0
58920 On ch=5 n=65 v=75
59112 On ch=5 n=62 v=66
59160 On ch=5 n=65 v=0
59304 On ch=5 n=62 v=0
59328 On ch=5 n=65 v=66
59520 On ch=5 n=70 v=66
59544 On ch=5 n=65 v=0
59712 On ch=5 n=70 v=0
59712 On ch=5 n=65 v=66
59904 On ch=5 n=65 v=0
59904 On ch=5 n=62 v=66
60096 On ch=5 n=66 v=66
60144 On ch=5 n=62 v=0
60288 On ch=5 n=69 v=66
60336 On ch=5 n=66 v=0
60480 On ch=5 n=66 v=66
60528 On ch=5 n=69 v=0
60672 On ch=5 n=62 v=66
60816 On ch=5 n=66 v=0
60864 On ch=5 n=66 v=66
61008 On ch=5 n=62 v=0
61032 On ch=5 n=66 v=0
61056 On ch=5 n=69 v=64
61248 On ch=5 n=66 v=64
61272 On ch=5 n=69 v=0
61440 On ch=5 n=66 v=0
61440 On ch=5 n=62 v=66
61632 On ch=5 n=67 v=66
61656 On ch=5 n=62 v=0
61824 On ch=5 n=70 v=66
61872 On ch=5 n=67 v=0
62016 On ch=5 n=67 v=66
62040 On ch=5 n=70 v=0
62208 On ch=5 n=63 v=64
62232 On ch=5 n=67 v=0
62400 On ch=5 n=67 v=64
62424 On ch=5 n=63 v=0
62568 On ch=5 n=70 v=64
62592 On ch=5 n=67 v=0
62784 On ch=5 n=67 v=61
62832 On ch=5 n=70 v=0
62952 On ch=5 n=62 v=61
62976 On ch=5 n=67 v=0
63168 On ch=5 n=65 v=66
63216 On ch=5 n=62 v=0
63360 On ch=5 n=70 v=66
63384 On ch=5 n=65 v=0
63552 On ch=5 n=70 v=0
63552 On ch=5 n=65 v=66
63744 On ch=5 n=65 v=0
63744 On ch=5 n=60 v=64
63936 On ch=5 n=65 v=64
63960 On ch=5 n=60 v=0
64128 On ch=5 n=69 v=64
64152 On ch=5 n=65 v=0
64320 On ch=5 n=72 v=61
64344 On ch=5 n=69 v=0
64512 On ch=5 n=72 v=0
64512 On ch=5 n=62 v=64
64704 On ch=5 n=65 v=64
64728 On ch=5 n=62 v=0
64896 On ch=5 n=70 v=64
64920 On ch=5 n=65 v=0
65088 On ch=5 n=74 v=64
65112 On ch=5 n=70 v=0
65280 On ch=5 n=74 v=0
65280 On ch=5 n=62 v=64
65472 On ch=5 n=67 v=64
65496 On ch=5 n=62 v=0
65664 On ch=5 n=67 v=0
65664 On ch=5 n=70 v=64
65856 On ch=5 n=74 v=64
65904 On ch=5 n=70 v=0
66048 On ch=5 n=74 v=0
66048 On ch=5 n=60 v=64
66240 On ch=5 n=63 v=61
66264 On ch=5 n=60 v=0
66432 On ch=5 n=67 v=61
66480 On ch=5 n=63 v=0
66624 On ch=5 n=67 v=0
66624 On ch=5 n=72 v=61
66816 On ch=5 n=72 v=0
66816 On ch=5 n=60 v=69
67008 On ch=5 n=60 v=0
67008 On ch=5 n=65 v=66
67200 On ch=5 n=69 v=61
67248 On ch=5 n=65 v=0
67392 On ch=5 n=72 v=64
67440 On ch=5 n=69 v=0
67584 On ch=5 n=72 v=0
67584 On ch=5 n=74 v=66
67776 On ch=5 n=70 v=64
67824 On ch=5 n=74 v=0
67968 On ch=5 n=65 v=64
68016 On ch=5 n=70 v=0
68160 On ch=5 n=62 v=64
68184 On ch=5 n=65 v=0
68352 On ch=5 n=63 v=64
68376 On ch=5 n=62 v=0
68544 On ch=5 n=63 v=0
68544 On ch=5 n=67 v=64
68736 On ch=5 n=69 v=69
68760 On ch=5 n=67 v=0
68928 On ch=5 n=72 v=72
68952 On ch=5 n=69 v=0
69120 On ch=5 n=72 v=0
69120 On ch=5 n=62 v=64
69312 On ch=5 n=65 v=64
69336 On ch=5 n=62 v=0
69504 On ch=5 n=70 v=64
69528 On ch=5 n=65 v=0
69696 On ch=5 n=74 v=64
69720 On ch=5 n=70 v=0
69888 On ch=5 n=74 v=0
69888 On ch=5 n=62 v=64
70080 On ch=5 n=67 v=64
70104 On ch=5 n=62 v=0
70272 On ch=5 n=67 v=0
70272 On ch=5 n=70 v=64
70464 On ch=5 n=74 v=64
70512 On ch=5 n=70 v=0
70656 On ch=5 n=74 v=0
70656 On ch=5 n=60 v=64
70848 On ch=5 n=63 v=61
70872 On ch=5 n=60 v=0
71040 On ch=5 n=67 v=61
71088 On ch=5 n=63 v=0
71232 On ch=5 n=67 v=0
71232 On ch=5 n=72 v=61
71424 On ch=5 n=72 v=0
71424 On ch=5 n=60 v=69
71616 On ch=5 n=60 v=0
71616 On ch=5 n=65 v=66
71808 On ch=5 n=69 v=61
71856 On ch=5 n=65 v=0
72000 On ch=5 n=72 v=64
72048 On ch=5 n=69 v=0
72192 On ch=5 n=72 v=0
72192 On ch=5 n=74 v=66
72384 On ch=5 n=70 v=64
72432 On ch=5 n=74 v=0
72576 On ch=5 n=65 v=64
72624 On ch=5 n=70 v=0
72768 On ch=5 n=62 v=64
72792 On ch=5 n=65 v=0
72960 On ch=5 n=63 v=64
72984 On ch=5 n=62 v=0
73152 On ch=5 n=63 v=0
73152 On ch=5 n=67 v=64
73344 On ch=5 n=69 v=69
73368 On ch=5 n=67 v=0
73536 On ch=5 n=72 v=72
73560 On ch=5 n=69 v=0
73728 On ch=5 n=72 v=0
73728 On ch=5 n=70 v=72
73920 On ch=5 n=65 v=69
73944 On ch=5 n=70 v=0
74112 On ch=5 n=62 v=61
74136 On ch=5 n=65 v=0
74304 On ch=5 n=65 v=61
74328 On ch=5 n=62 v=0
74496 On ch=5 n=67 v=61
74544 On ch=5 n=65 v=0
74688 On ch=5 n=70 v=61
74712 On ch=5 n=67 v=0
74880 On ch=5 n=69 v=66
74904 On ch=5 n=70 v=0
75072 On ch=5 n=65 v=66
75096 On ch=5 n=69 v=0
75264 On ch=5 n=65 v=0
75264 On ch=5 n=62 v=75
75456 On ch=5 n=58 v=69
75480 On ch=5 n=62 v=0
75648 On ch=5 n=62 v=66
75672 On ch=5 n=58 v=0
75840 On ch=5 n=65 v=66
75864 On ch=5 n=62 v=0
76032 On ch=5 n=70 v=69
76056 On ch=5 n=65 v=0
76224 On ch=5 n=65 v=64
76272 On ch=5 n=70 v=0
76416 On ch=5 n=65 v=0
76416 On ch=5 n=70 v=72
76608 On ch=5 n=70 v=0
76608 On ch=5 n=74 v=69
76800 On ch=5 n=77 v=69
76824 On ch=5 n=74 v=0
76992 On ch=5 n=77 v=0
76992 On ch=5 n=74 v=64
77184 On ch=5 n=70 v=75
77208 On ch=5 n=74 v=0
77376 On ch=5 n=70 v=0
77376 On ch=5 n=65 v=66
77568 On ch=5 n=62 v=66
77592 On ch=5 n=65 v=0
77760 On ch=5 n=58 v=66
77784 On ch=5 n=62 v=0
77952 On ch=5 n=62 v=66
77976 On ch=5 n=58 v=0
78144 On ch=5 n=65 v=66
78168 On ch=5 n=62 v=0
78336 On ch=5 n=65 v=0
78720 On ch=5 n=55 v=81
78864 On ch=5 n=55 v=0
78912 On ch=5 n=57 v=81
79056 On ch=5 n=57 v=0
79104 On ch=5 n=58 v=78
79248 On ch=5 n=58 v=0
79296 On ch=5 n=57 v=78
79440 On ch=5 n=57 v=0
79488 On ch=5 n=55 v=84
79680 On ch=5 n=55 v=0
80256 On ch=5 n=55 v=75
80400 On ch=5 n=55 v=0
80448 On ch=5 n=57 v=72
80592 On ch=5 n=57 v=0
80640 On ch=5 n=58 v=72
80784 On ch=5 n=58 v=0
80832 On ch=5 n=57 v=81
80976 On ch=5 n=57 v=0
81024 On ch=5 n=55 v=75
81216 On ch=5 n=55 v=0
81792 On ch=5 n=55 v=69
81936 On ch=5 n=55 v=0
81984 On ch=5 n=57 v=72
82128 On ch=5 n=57 v=0
82176 On ch=5 n=58 v=81
82320 On ch=5 n=58 v=0
82368 On ch=5 n=57 v=72
82512 On ch=5 n=57 v=0
82560 On ch=5 n=55 v=81
82752 On ch=5 n=55 v=0
83328 On ch=5 n=60 v=72
83472 On ch=5 n=60 v=0
83520 On ch=5 n=62 v=72
83664 On ch=5 n=62 v=0
83712 On ch=5 n=63 v=87
83856 On ch=5 n=63 v=0
83904 On ch=5 n=62 v=75
84048 On ch=5 n=62 v=0
84096 On ch=5 n=60 v=75
84288 On ch=5 n=60 v=0
84864 On ch=5 n=60 v=72
85008 On ch=5 n=60 v=0
85056 On ch=5 n=62 v=75
85200 On ch=5 n=62 v=0
85248 On ch=5 n=63 v=78
85392 On ch=5 n=63 v=0
85440 On ch=5 n=62 v=78
85584 On ch=5 n=62 v=0
85632 On ch=5 n=60 v=81
85824 On ch=5 n=60 v=0
86400 On ch=5 n=62 v=69
86568 On ch=5 n=62 v=0
86592 On ch=5 n=64 v=75
86736 On ch=5 n=64 v=0
86784 On ch=5 n=66 v=75
86928 On ch=5 n=66 v=0
86976 On ch=5 n=64 v=72
87120 On ch=5 n=64 v=0
87168 On ch=5 n=62 v=78
87360 On ch=5 n=62 v=0
87936 On ch=5 n=62 v=69
88104 On ch=5 n=62 v=0
88128 On ch=5 n=64 v=75
88272 On ch=5 n=64 v=0
88320 On ch=5 n=66 v=75
88464 On ch=5 n=66 v=0
88512 On ch=5 n=64 v=72
88656 On ch=5 n=64 v=0
88704 On ch=5 n=62 v=78
88896 On ch=5 n=62 v=0
89472 On ch=5 n=55 v=81
89616 On ch=5 n=55 v=0
89664 On ch=5 n=57 v=81
89808 On ch=5 n=57 v=0
89856 On ch=5 n=58 v=78
90000 On ch=5 n=58 v=0
90048 On ch=5 n=57 v=78
90192 On ch=5 n=57 v=0
90240 On ch=5 n=55 v=84
90432 On ch=5 n=55 v=0
90792 On ch=5 n=63 v=69
91008 On ch=5 n=63 v=0
91008 On ch=5 n=66 v=69
91200 On ch=5 n=66 v=0
91200 On ch=5 n=72 v=69
91416 On ch=5 n=72 v=0
91584 On ch=5 n=60 v=69
91776 On ch=5 n=63 v=69
91800 On ch=5 n=60 v=0
91968 On ch=5 n=66 v=69
91992 On ch=5 n=63 v=0
92160 On ch=5 n=66 v=0
92352 On ch=5 n=58 v=69
92544 On ch=5 n=58 v=0
92544 On ch=5 n=62 v=69
92736 On ch=5 n=67 v=69
92760 On ch=5 n=62 v=0
92952 On ch=5 n=67 v=0
93096 On ch=5 n=62 v=66
93288 On ch=5 n=62 v=0
93312 On ch=5 n=67 v=66
93504 On ch=5 n=67 v=0
93504 On ch=5 n=70 v=72
93696 On ch=5 n=70 v=0
93864 On ch=5 n=63 v=69
94080 On ch=5 n=63 v=0
94080 On ch=5 n=66 v=69
94272 On ch=5 n=66 v=0
94272 On ch=5 n=72 v=69
94488 On ch=5 n=72 v=0
94656 On ch=5 n=60 v=69
94848 On ch=5 n=63 v=69
94872 On ch=5 n=60 v=0
95040 On ch=5 n=66 v=69
95064 On ch=5 n=63 v=0
95232 On ch=5 n=66 v=0
95424 On ch=5 n=58 v=69
95616 On ch=5 n=58 v=0
95616 On ch=5 n=62 v=69
95808 On ch=5 n=67 v=69
95832 On ch=5 n=62 v=0
96024 On ch=5 n=67 v=0
96168 On ch=5 n=62 v=66
96360 On ch=5 n=62 v=0
96384 On ch=5 n=67 v=66
96576 On ch=5 n=67 v=0
96576 On ch=5 n=70 v=72
96768 On ch=5 n=70 v=0
96960 On ch=5 n=59 v=69
97152 On ch=5 n=59 v=0
97152 On ch=5 n=64 v=66
97344 On ch=5 n=64 v=0
97344 On ch=5 n=67 v=72
97536 On ch=5 n=67 v=0
97728 On ch=5 n=64 v=72
97920 On ch=5 n=64 v=0
97920 On ch=5 n=67 v=72
98112 On ch=5 n=67 v=0
98112 On ch=5 n=71 v=66
98304 On ch=5 n=71 v=0
98496 On ch=5 n=63 v=69
98688 On ch=5 n=63 v=0
98688 On ch=5 n=67 v=58
98880 On ch=5 n=67 v=0
98880 On ch=5 n=70 v=69
99072 On ch=5 n=70 v=0
99264 On ch=5 n=58 v=66
99456 On ch=5 n=58 v=0
99456 On ch=5 n=63 v=64
99648 On ch=5 n=63 v=0
99648 On ch=5 n=67 v=72
99840 On ch=5 n=67 v=0
99840 On ch=5 n=62 v=78
99840 On ch=5 n=66 v=78
100008 On ch=5 n=66 v=0
100008 On ch=5 n=62 v=0
100608 On ch=5 n=63 v=72
100608 On ch=5 n=67 v=72
101376 On ch=5 n=67 v=0
101376 On ch=5 n=63 v=0
101376 On ch=5 n=62 v=66
101376 On ch=5 n=66 v=66
101520 On ch=5 n=62 v=0
101544 On ch=5 n=66 v=0
102144 On ch=5 n=63 v=72
102144 On ch=5 n=67 v=72
102912 On ch=5 n=67 v=0
102912 On ch=5 n=63 v=0
102912 On ch=5 n=62 v=69
102912 On ch=5 n=66 v=69
103056 On ch=5 n=66 v=0
103056 On ch=5 n=62 v=0
103296 On ch=5 n=63 v=75
103296 On ch=5 n=67 v=75
103440 On ch=5 n=63 v=0
103464 On ch=5 n=67 v=0
103680 On ch=5 n=62 v=75
103680 On ch=5 n=66 v=75
103824 On ch=5 n=62 v=0
103848 On ch=5 n=66 v=0
104064 On ch=5 n=63 v=75
104064 On ch=5 n=67 v=75
104208 On ch=5 n=67 v=0
104208 On ch=5 n=63 v=0
104448 On ch=5 n=62 v=72
104448 On ch=5 n=66 v=72
105984 On ch=5 n=66 v=0
105984 On ch=5 n=62 v=0
130944 On ch=5 n=55 v=81
131088 On ch=5 n=55 v=0
131136 On ch=5 n=57 v=81
131280 On ch=5 n=57 v=0
131328 On ch=5 n=58 v=78
131472 On ch=5 n=58 v=0
131520 On ch=5 n=57 v=78
131664 On ch=5 n=57 v=0
131712 On ch=5 n=55 v=84
131904 On ch=5 n=55 v=0
132480 On ch=5 n=55 v=75
132624 On ch=5 n=55 v=0
132672 On ch=5 n=57 v=72
132816 On ch=5 n=57 v=0
132864 On ch=5 n=58 v=72
133008 On ch=5 n=58 v=0
133056 On ch=5 n=57 v=81
133200 On ch=5 n=57 v=0
133248 On ch=5 n=55 v=75
133440 On ch=5 n=55 v=0
134016 On ch=5 n=55 v=69
134160 On ch=5 n=55 v=0
134208 On ch=5 n=57 v=72
134352 On ch=5 n=57 v=0
134400 On ch=5 n=58 v=81
134544 On ch=5 n=58 v=0
134592 On ch=5 n=57 v=72
134736 On ch=5 n=57 v=0
134784 On ch=5 n=55 v=81
134976 On ch=5 n=55 v=0
135552 On ch=5 n=60 v=72
135696 On ch=5 n=60 v=0
135744 On ch=5 n=62 v=72
135888 On ch=5 n=62 v=0
135936 On ch=5 n=63 v=87
136080 On ch=5 n=63 v=0
136128 On ch=5 n=62 v=75
136272 On ch=5 n=62 v=0
136320 On ch=5 n=60 v=75
136512 On ch=5 n=60 v=0
137088 On ch=5 n=60 v=72
137232 On ch=5 n=60 v=0
137280 On ch=5 n=62 v=72
137424 On ch=5 n=62 v=0
137472 On ch=5 n=63 v=87
137616 On ch=5 n=63 v=0
137664 On ch=5 n=62 v=75
137808 On ch=5 n=62 v=0
137856 On ch=5 n=60 v=75
138048 On ch=5 n=60 v=0
138624 On ch=5 n=53 v=69
138792 On ch=5 n=53 v=0
138816 On ch=5 n=55 v=69
138984 On ch=5 n=55 v=0
139008 On ch=5 n=57 v=69
139176 On ch=5 n=57 v=0
139200 On ch=5 n=55 v=69
139344 On ch=5 n=55 v=0
139392 On ch=5 n=53 v=69
139584 On ch=5 n=53 v=0
140160 On ch=5 n=53 v=66
140328 On ch=5 n=53 v=0
140352 On ch=5 n=55 v=66
140520 On ch=5 n=55 v=0
140544 On ch=5 n=57 v=66
140712 On ch=5 n=57 v=0
140736 On ch=5 n=55 v=66
140904 On ch=5 n=55 v=0
140928 On ch=5 n=53 v=75
141120 On ch=5 n=53 v=0
141696 On ch=5 n=58 v=75
141840 On ch=5 n=58 v=0
141888 On ch=5 n=60 v=75
142032 On ch=5 n=60 v=0
142080 On ch=5 n=62 v=75
142248 On ch=5 n=62 v=0
142272 On ch=5 n=60 v=75
142416 On ch=5 n=60 v=0
142464 On ch=5 n=58 v=75
142656 On ch=5 n=58 v=0
143040 On ch=5 n=60 v=72
143232 On ch=5 n=63 v=72
143256 On ch=5 n=60 v=0
143424 On ch=5 n=67 v=72
143448 On ch=5 n=63 v=0
143616 On ch=5 n=67 v=0
143808 On ch=5 n=60 v=72
144000 On ch=5 n=63 v=72
144024 On ch=5 n=60 v=0
144192 On ch=5 n=67 v=72
144216 On ch=5 n=63 v=0
144384 On ch=5 n=67 v=0
144576 On ch=5 n=57 v=66
144768 On ch=5 n=60 v=66
144792 On ch=5 n=57 v=0
144960 On ch=5 n=60 v=0
144960 On ch=5 n=63 v=66
145152 On ch=5 n=63 v=0
145344 On ch=5 n=57 v=66
145536 On ch=5 n=60 v=66
145560 On ch=5 n=57 v=0
145728 On ch=5 n=60 v=0
145728 On ch=5 n=63 v=66
145920 On ch=5 n=63 v=0
146112 On ch=5 n=57 v=64
146304 On ch=5 n=62 v=64
146328 On ch=5 n=57 v=0
146472 On ch=5 n=66 v=64
146520 On ch=5 n=62 v=0
146664 On ch=5 n=66 v=0
146856 On ch=5 n=57 v=64
147048 On ch=5 n=57 v=0
147072 On ch=5 n=62 v=64
147264 On ch=5 n=62 v=0
147264 On ch=5 n=66 v=64
147432 On ch=5 n=66 v=0
147648 On ch=5 n=58 v=69
147840 On ch=5 n=58 v=0
147840 On ch=5 n=62 v=69
148032 On ch=5 n=67 v=69
148056 On ch=5 n=62 v=0
148248 On ch=5 n=67 v=0
148416 On ch=5 n=58 v=69
148584 On ch=5 n=62 v=69
148608 On ch=5 n=58 v=0
148776 On ch=5 n=62 v=0
148800 On ch=5 n=67 v=69
148968 On ch=5 n=67 v=0
149184 On ch=5 n=57 v=69
149376 On ch=5 n=62 v=66
149400 On ch=5 n=57 v=0
149568 On ch=5 n=62 v=0
149568 On ch=5 n=66 v=66
149760 On ch=5 n=66 v=0
149952 On ch=5 n=57 v=66
150144 On ch=5 n=57 v=0
150144 On ch=5 n=62 v=66
150336 On ch=5 n=66 v=66
150360 On ch=5 n=62 v=0
150504 On ch=5 n=66 v=0
150528 On ch=5 n=58 v=66
150720 On ch=5 n=58 v=0
150720 On ch=5 n=62 v=66
150912 On ch=5 n=67 v=72
150936 On ch=5 n=62 v=0
151104 On ch=5 n=70 v=72
151128 On ch=5 n=67 v=0
151296 On ch=5 n=58 v=64
151320 On ch=5 n=70 v=0
151488 On ch=5 n=63 v=64
151512 On ch=5 n=58 v=0
151680 On ch=5 n=67 v=64
151704 On ch=5 n=63 v=0
151872 On ch=5 n=67 v=0
151872 On ch=5 n=70 v=64
152040 On ch=5 n=70 v=0
152064 On ch=5 n=58 v=72
152256 On ch=5 n=58 v=0
152256 On ch=5 n=62 v=66
152448 On ch=5 n=65 v=61
152472 On ch=5 n=62 v=0
152640 On ch=5 n=70 v=66
152664 On ch=5 n=65 v=0
152832 On ch=5 n=70 v=0
152832 On ch=5 n=57 v=75
153024 On ch=5 n=60 v=66
153048 On ch=5 n=57 v=0
153216 On ch=5 n=65 v=66
153240 On ch=5 n=60 v=0
153408 On ch=5 n=69 v=69
153432 On ch=5 n=65 v=0
153576 On ch=5 n=69 v=0
153600 On ch=5 n=62 v=64
153792 On ch=5 n=65 v=64
153816 On ch=5 n=62 v=0
153984 On ch=5 n=70 v=64
154008 On ch=5 n=65 v=0
154176 On ch=5 n=74 v=64
154200 On ch=5 n=70 v=0
154368 On ch=5 n=74 v=0
154368 On ch=5 n=62 v=64
154560 On ch=5 n=67 v=64
154584 On ch=5 n=62 v=0
154752 On ch=5 n=67 v=0
154752 On ch=5 n=70 v=64
154944 On ch=5 n=74 v=64
154992 On ch=5 n=70 v=0
155136 On ch=5 n=74 v=0
155136 On ch=5 n=60 v=64
155328 On ch=5 n=63 v=61
155352 On ch=5 n=60 v=0
155520 On ch=5 n=67 v=61
155568 On ch=5 n=63 v=0
155712 On ch=5 n=67 v=0
155712 On ch=5 n=72 v=61
155904 On ch=5 n=72 v=0
155904 On ch=5 n=60 v=69
156096 On ch=5 n=60 v=0
156096 On ch=5 n=65 v=66
156288 On ch=5 n=69 v=61
156336 On ch=5 n=65 v=0
156480 On ch=5 n=72 v=64
156528 On ch=5 n=69 v=0
156672 On ch=5 n=72 v=0
156672 On ch=5 n=74 v=66
156864 On ch=5 n=70 v=64
156912 On ch=5 n=74 v=0
157056 On ch=5 n=65 v=64
157104 On ch=5 n=70 v=0
157248 On ch=5 n=62 v=64
157272 On ch=5 n=65 v=0
157440 On ch=5 n=63 v=64
157464 On ch=5 n=62 v=0
157632 On ch=5 n=63 v=0
157632 On ch=5 n=67 v=64
157824 On ch=5 n=69 v=69
157848 On ch=5 n=67 v=0
158016 On ch=5 n=72 v=72
158040 On ch=5 n=69 v=0
158208 On ch=5 n=72 v=0
158208 On ch=5 n=62 v=64
158400 On ch=5 n=65 v=64
158424 On ch=5 n=62 v=0
158592 On ch=5 n=70 v=64
158616 On ch=5 n=65 v=0
158784 On ch=5 n=74 v=64
158808 On ch=5 n=70 v=0
158976 On ch=5 n=74 v=0
158976 On ch=5 n=62 v=64
159168 On ch=5 n=67 v=64
159192 On ch=5 n=62 v=0
159360 On ch=5 n=67 v=0
159360 On ch=5 n=70 v=64
159552 On ch=5 n=74 v=64
159600 On ch=5 n=70 v=0
159744 On ch=5 n=74 v=0
159744 On ch=5 n=60 v=64
159936 On ch=5 n=63 v=61
159960 On ch=5 n=60 v=0
160128 On ch=5 n=67 v=61
160176 On ch=5 n=63 v=0
160320 On ch=5 n=67 v=0
160320 On ch=5 n=72 v=61
160512 On ch=5 n=72 v=0
160512 On ch=5 n=60 v=69
160704 On ch=5 n=60 v=0
160704 On ch=5 n=65 v=66
160896 On ch=5 n=69 v=61
160944 On ch=5 n=65 v=0
161088 On ch=5 n=72 v=64
161136 On ch=5 n=69 v=0
161280 On ch=5 n=72 v=0
161280 On ch=5 n=74 v=66
161472 On ch=5 n=70 v=64
161520 On ch=5 n=74 v=0
161664 On ch=5 n=65 v=64
161712 On ch=5 n=70 v=0
161856 On ch=5 n=62 v=64
161880 On ch=5 n=65 v=0
162048 On ch=5 n=63 v=64
162072 On ch=5 n=62 v=0
162240 On ch=5 n=63 v=0
162240 On ch=5 n=67 v=64
162432 On ch=5 n=69 v=69
162456 On ch=5 n=67 v=0
162624 On ch=5 n=72 v=72
162648 On ch=5 n=69 v=0
162816 On ch=5 n=72 v=0
162816 On ch=5 n=70 v=72
163008 On ch=5 n=65 v=69
163032 On ch=5 n=70 v=0
163200 On ch=5 n=62 v=61
163224 On ch=5 n=65 v=0
163392 On ch=5 n=65 v=61
163416 On ch=5 n=62 v=0
163584 On ch=5 n=67 v=61
163632 On ch=5 n=65 v=0
163776 On ch=5 n=70 v=61
163800 On ch=5 n=67 v=0
163968 On ch=5 n=69 v=66
163992 On ch=5 n=70 v=0
164160 On ch=5 n=65 v=66
164184 On ch=5 n=69 v=0
164328 On ch=5 n=55 v=90
164352 On ch=5 n=65 v=0
164352 On ch=5 n=62 v=90
164352 On ch=5 n=67 v=90
164376 On ch=5 n=70 v=90
165816 On ch=5 n=55 v=0
165840 On ch=5 n=55 v=93
165864 On ch=5 n=63 v=93
165888 On ch=5 n=70 v=0
165888 On ch=5 n=67 v=0
165888 On ch=5 n=67 v=93
165912 On ch=5 n=62 v=0
165912 On ch=5 n=70 v=93
167376 On ch=5 n=55 v=0
167376 On ch=5 n=63 v=0
167400 On ch=5 n=62 v=93
167400 On ch=5 n=53 v=93
167424 On ch=5 n=67 v=0
167424 On ch=5 n=65 v=93
167448 On ch=5 n=70 v=0
167448 On ch=5 n=70 v=93
168888 On ch=5 n=53 v=0
168912 On ch=5 n=53 v=87
168936 On ch=5 n=62 v=0
168936 On ch=5 n=60 v=87
168960 On ch=5 n=70 v=0
168960 On ch=5 n=65 v=0
168960 On ch=5 n=65 v=87
168984 On ch=5 n=69 v=87
170472 On ch=5 n=53 v=0
170496 On ch=5 n=60 v=0
170496 On ch=5 n=65 v=0
170496 On ch=5 n=69 v=0
170496 On ch=5 n=62 v=64
170688 On ch=5 n=65 v=64
170712 On ch=5 n=62 v=0
170880 On ch=5 n=70 v=64
170904 On ch=5 n=65 v=0
171072 On ch=5 n=74 v=64
171096 On ch=5 n=70 v=0
171264 On ch=5 n=74 v=0
171264 On ch=5 n=62 v=64
171456 On ch=5 n=67 v=64
171480 On ch=5 n=62 v=0
171648 On ch=5 n=67 v=0
171648 On ch=5 n=70 v=64
171840 On ch=5 n=74 v=64
171888 On ch=5 n=70 v=0
172032 On ch=5 n=74 v=0
172032 On ch=5 n=60 v=64
172224 On ch=5 n=63 v=61
172248 On ch=5 n=60 v=0
172416 On ch=5 n=67 v=61
172464 On ch=5 n=63 v=0
172608 On ch=5 n=67 v=0
172608 On ch=5 n=72 v=61
172800 On ch=5 n=72 v=0
172800 On ch=5 n=60 v=69
172992 On ch=5 n=60 v=0
172992 On ch=5 n=65 v=66
173184 On ch=5 n=69 v=61
173232 On ch=5 n=65 v=0
173376 On ch=5 n=72 v=64
173424 On ch=5 n=69 v=0
173568 On ch=5 n=72 v=0
173568 On ch=5 n=74 v=66
173760 On ch=5 n=70 v=64
173808 On ch=5 n=74 v=0
173952 On ch=5 n=65 v=64
174000 On ch=5 n=70 v=0
174144 On ch=5 n=62 v=64
174168 On ch=5 n=65 v=0
174336 On ch=5 n=63 v=64
174360 On ch=5 n=62 v=0
174528 On ch=5 n=63 v=0
174528 On ch=5 n=67 v=64
174720 On ch=5 n=69 v=69
174744 On ch=5 n=67 v=0
174912 On ch=5 n=72 v=72
174936 On ch=5 n=69 v=0
175104 On ch=5 n=72 v=0
175104 On ch=5 n=70 v=72
175296 On ch=5 n=65 v=69
175320 On ch=5 n=70 v=0
175488 On ch=5 n=62 v=61
175512 On ch=5 n=65 v=0
175680 On ch=5 n=65 v=61
175704 On ch=5 n=62 v=0
175872 On ch=5 n=67 v=61
175920 On ch=5 n=65 v=0
176064 On ch=5 n=70 v=61
176088 On ch=5 n=67 v=0
176256 On ch=5 n=69 v=66
176280 On ch=5 n=70 v=0
176448 On ch=5 n=65 v=66
176472 On ch=5 n=69 v=0
176640 On ch=5 n=65 v=0
176640 Meta TrkEnd
TrkEnd
MTrk
0 Meta 0x21 00
0 Meta TrkName "strings"
0 PrCh ch=6 p=48
0 Par ch=6 c=7 v=117
0 Par ch=6 c=10 v=97
192 Par ch=6 c=91 v=68
46464 On ch=6 n=84 v=110
46464 On ch=6 n=87 v=110
46560 On ch=6 n=87 v=0
46560 On ch=6 n=84 v=0
46656 On ch=6 n=79 v=93
46656 On ch=6 n=84 v=93
46752 On ch=6 n=84 v=0
46752 On ch=6 n=79 v=0
48000 On ch=6 n=84 v=107
48000 On ch=6 n=87 v=107
48096 On ch=6 n=87 v=0
48096 On ch=6 n=84 v=0
48192 On ch=6 n=79 v=90
48192 On ch=6 n=84 v=90
48288 On ch=6 n=84 v=0
48288 On ch=6 n=79 v=0
49536 On ch=6 n=81 v=104
49536 On ch=6 n=84 v=104
49632 On ch=6 n=84 v=0
49632 On ch=6 n=81 v=0
49728 On ch=6 n=77 v=81
49728 On ch=6 n=81 v=81
49824 On ch=6 n=81 v=0
49824 On ch=6 n=77 v=0
51072 On ch=6 n=84 v=104
51072 On ch=6 n=81 v=104
51168 On ch=6 n=81 v=0
51168 On ch=6 n=84 v=0
51264 On ch=6 n=77 v=84
51264 On ch=6 n=81 v=84
51360 On ch=6 n=81 v=0
51360 On ch=6 n=77 v=0
52608 On ch=6 n=77 v=107
52608 On ch=6 n=82 v=107
52704 On ch=6 n=82 v=0
52704 On ch=6 n=77 v=0
52800 On ch=6 n=77 v=84
52800 On ch=6 n=74 v=84
52896 On ch=6 n=74 v=0
52896 On ch=6 n=77 v=0
54144 On ch=6 n=82 v=110
54144 On ch=6 n=87 v=110
54240 On ch=6 n=87 v=0
54240 On ch=6 n=82 v=0
54336 On ch=6 n=79 v=87
54336 On ch=6 n=82 v=87
54432 On ch=6 n=82 v=0
54432 On ch=6 n=79 v=0
55680 On ch=6 n=82 v=107
55680 On ch=6 n=86 v=107
55776 On ch=6 n=86 v=0
55776 On ch=6 n=82 v=0
55872 On ch=6 n=77 v=87
55872 On ch=6 n=82 v=87
55968 On ch=6 n=82 v=0
55968 On ch=6 n=77 v=0
57216 On ch=6 n=82 v=110
57216 On ch=6 n=87 v=110
57312 On ch=6 n=87 v=0
57312 On ch=6 n=82 v=0
57408 On ch=6 n=79 v=87
57408 On ch=6 n=82 v=87
57504 On ch=6 n=82 v=0
57504 On ch=6 n=79 v=0
58752 On ch=6 n=82 v=107
58752 On ch=6 n=86 v=107
58848 On ch=6 n=86 v=0
58848 On ch=6 n=82 v=0
58944 On ch=6 n=77 v=87
58944 On ch=6 n=82 v=87
59040 On ch=6 n=82 v=0
59040 On ch=6 n=77 v=0
60288 On ch=6 n=81 v=116
60288 On ch=6 n=86 v=116
60384 On ch=6 n=86 v=0
60384 On ch=6 n=81 v=0
60480 On ch=6 n=74 v=90
60480 On ch=6 n=81 v=90
60576 On ch=6 n=81 v=0
60576 On ch=6 n=74 v=0
61824 On ch=6 n=86 v=90
61824 On ch=6 n=82 v=90
61824 On ch=6 n=79 v=90
61920 On ch=6 n=79 v=0
61920 On ch=6 n=82 v=0
61920 On ch=6 n=86 v=0
62592 On ch=6 n=87 v=84
62592 On ch=6 n=82 v=84
62592 On ch=6 n=79 v=84
62688 On ch=6 n=79 v=0
62688 On ch=6 n=82 v=0
62688 On ch=6 n=87 v=0
63360 On ch=6 n=86 v=78
63360 On ch=6 n=82 v=78
63360 On ch=6 n=77 v=78
63456 On ch=6 n=77 v=0
63456 On ch=6 n=82 v=0
63456 On ch=6 n=86 v=0
64128 On ch=6 n=84 v=75
64128 On ch=6 n=81 v=75
64128 On ch=6 n=77 v=75
64224 On ch=6 n=77 v=0
64224 On ch=6 n=81 v=0
64224 On ch=6 n=84 v=0
64896 On ch=6 n=86 v=104
65088 On ch=6 n=86 v=0
65088 On ch=6 n=84 v=93
65280 On ch=6 n=84 v=0
65280 On ch=6 n=82 v=93
65472 On ch=6 n=82 v=0
65472 On ch=6 n=81 v=93
65664 On ch=6 n=81 v=0
65664 On ch=6 n=79 v=93
65856 On ch=6 n=79 v=0
65856 On ch=6 n=77 v=93
66048 On ch=6 n=77 v=0
66048 On ch=6 n=75 v=90
66240 On ch=6 n=75 v=0
66240 On ch=6 n=74 v=87
66432 On ch=6 n=74 v=0
66432 On ch=6 n=72 v=81
66624 On ch=6 n=72 v=0
66624 On ch=6 n=70 v=81
66816 On ch=6 n=70 v=0
66816 On ch=6 n=69 v=81
67008 On ch=6 n=69 v=0
67008 On ch=6 n=67 v=81
67200 On ch=6 n=67 v=0
67200 On ch=6 n=65 v=81
67392 On ch=6 n=65 v=0
67392 On ch=6 n=63 v=90
67584 On ch=6 n=63 v=0
67584 On ch=6 n=62 v=84
67776 On ch=6 n=62 v=0
69504 On ch=6 n=86 v=104
69696 On ch=6 n=86 v=0
69696 On ch=6 n=84 v=93
69888 On ch=6 n=84 v=0
69888 On ch=6 n=82 v=93
70080 On ch=6 n=82 v=0
70080 On ch=6 n=81 v=93
70272 On ch=6 n=81 v=0
70272 On ch=6 n=79 v=93
70464 On ch=6 n=79 v=0
70464 On ch=6 n=77 v=93
70656 On ch=6 n=77 v=0
70656 On ch=6 n=75 v=90
70848 On ch=6 n=75 v=0
70848 On ch=6 n=74 v=87
71040 On ch=6 n=74 v=0
71040 On ch=6 n=72 v=81
71232 On ch=6 n=72 v=0
71232 On ch=6 n=70 v=81
71424 On ch=6 n=70 v=0
71424 On ch=6 n=69 v=81
71616 On ch=6 n=69 v=0
71616 On ch=6 n=67 v=81
71808 On ch=6 n=67 v=0
71808 On ch=6 n=65 v=81
72000 On ch=6 n=65 v=0
72000 On ch=6 n=63 v=90
72192 On ch=6 n=63 v=0
72192 On ch=6 n=62 v=84
72384 On ch=6 n=62 v=0
75264 On ch=6 n=82 v=78
75264 On ch=6 n=77 v=78
75264 On ch=6 n=74 v=78
78336 On ch=6 n=74 v=0
78336 On ch=6 n=77 v=0
78336 On ch=6 n=82 v=0
78720 On ch=6 n=79 v=113
78720 On ch=6 n=82 v=113
78816 On ch=6 n=82 v=0
78816 On ch=6 n=79 v=0
78912 On ch=6 n=74 v=84
78912 On ch=6 n=79 v=84
79008 On ch=6 n=79 v=0
79008 On ch=6 n=74 v=0
80256 On ch=6 n=79 v=113
80256 On ch=6 n=82 v=113
80352 On ch=6 n=82 v=0
80352 On ch=6 n=79 v=0
80448 On ch=6 n=74 v=84
80448 On ch=6 n=79 v=84
80544 On ch=6 n=79 v=0
80544 On ch=6 n=74 v=0
81792 On ch=6 n=79 v=113
81792 On ch=6 n=82 v=113
81888 On ch=6 n=82 v=0
81888 On ch=6 n=79 v=0
81984 On ch=6 n=74 v=84
81984 On ch=6 n=79 v=84
82080 On ch=6 n=79 v=0
82080 On ch=6 n=74 v=0
83328 On ch=6 n=79 v=116
83328 On ch=6 n=84 v=116
83424 On ch=6 n=84 v=0
83424 On ch=6 n=79 v=0
83520 On ch=6 n=75 v=90
83520 On ch=6 n=79 v=90
83616 On ch=6 n=79 v=0
83616 On ch=6 n=75 v=0
84864 On ch=6 n=79 v=116
84864 On ch=6 n=84 v=116
84960 On ch=6 n=84 v=0
84960 On ch=6 n=79 v=0
85056 On ch=6 n=75 v=101
85056 On ch=6 n=79 v=101
85152 On ch=6 n=79 v=0
85152 On ch=6 n=75 v=0
86400 On ch=6 n=81 v=107
86400 On ch=6 n=86 v=107
86496 On ch=6 n=86 v=0
86496 On ch=6 n=81 v=0
86592 On ch=6 n=78 v=95
86592 On ch=6 n=81 v=95
86688 On ch=6 n=81 v=0
86688 On ch=6 n=78 v=0
87936 On ch=6 n=81 v=113
87936 On ch=6 n=86 v=113
88032 On ch=6 n=86 v=0
88032 On ch=6 n=81 v=0
88128 On ch=6 n=78 v=104
88128 On ch=6 n=81 v=104
88224 On ch=6 n=81 v=0
88224 On ch=6 n=78 v=0
89472 On ch=6 n=82 v=113
89472 On ch=6 n=86 v=113
89568 On ch=6 n=86 v=0
89568 On ch=6 n=82 v=0
89664 On ch=6 n=79 v=101
89664 On ch=6 n=82 v=101
89760 On ch=6 n=82 v=0
89760 On ch=6 n=79 v=0
91008 On ch=6 n=84 v=113
91008 On ch=6 n=87 v=113
91104 On ch=6 n=87 v=0
91104 On ch=6 n=84 v=0
91200 On ch=6 n=78 v=98
91200 On ch=6 n=84 v=98
91296 On ch=6 n=84 v=0
91296 On ch=6 n=78 v=0
92544 On ch=6 n=82 v=110
92544 On ch=6 n=86 v=110
92640 On ch=6 n=86 v=0
92640 On ch=6 n=82 v=0
92736 On ch=6 n=79 v=98
92736 On ch=6 n=82 v=98
92832 On ch=6 n=82 v=0
92832 On ch=6 n=79 v=0
94080 On ch=6 n=84 v=113
94080 On ch=6 n=87 v=113
94176 On ch=6 n=87 v=0
94176 On ch=6 n=84 v=0
94272 On ch=6 n=78 v=104
94272 On ch=6 n=84 v=104
94368 On ch=6 n=84 v=0
94368 On ch=6 n=78 v=0
95616 On ch=6 n=82 v=110
95616 On ch=6 n=86 v=110
95712 On ch=6 n=86 v=0
95712 On ch=6 n=82 v=0
95808 On ch=6 n=79 v=95
95808 On ch=6 n=82 v=95
95904 On ch=6 n=82 v=0
95904 On ch=6 n=79 v=0
97152 On ch=6 n=83 v=107
97152 On ch=6 n=88 v=107
97248 On ch=6 n=88 v=0
97248 On ch=6 n=83 v=0
97344 On ch=6 n=79 v=98
97344 On ch=6 n=83 v=98
97440 On ch=6 n=83 v=0
97440 On ch=6 n=79 v=0
98688 On ch=6 n=82 v=107
98688 On ch=6 n=87 v=107
98784 On ch=6 n=87 v=0
98784 On ch=6 n=82 v=0
98880 On ch=6 n=79 v=95
98880 On ch=6 n=82 v=95
98976 On ch=6 n=82 v=0
98976 On ch=6 n=79 v=0
99840 On ch=6 n=81 v=95
99840 On ch=6 n=86 v=95
99984 On ch=6 n=86 v=0
99984 On ch=6 n=81 v=0
100608 On ch=6 n=82 v=93
100608 On ch=6 n=87 v=93
101376 On ch=6 n=87 v=0
101376 On ch=6 n=82 v=0
101376 On ch=6 n=81 v=90
101376 On ch=6 n=86 v=90
101520 On ch=6 n=86 v=0
101520 On ch=6 n=81 v=0
102144 On ch=6 n=82 v=84
102144 On ch=6 n=87 v=84
102912 On ch=6 n=87 v=0
102912 On ch=6 n=82 v=0
102912 On ch=6 n=86 v=93
102912 On ch=6 n=81 v=93
103056 On ch=6 n=81 v=0
103056 On ch=6 n=86 v=0
103296 On ch=6 n=87 v=90
103296 On ch=6 n=82 v=90
103440 On ch=6 n=82 v=0
103440 On ch=6 n=87 v=0
103680 On ch=6 n=86 v=90
103680 On ch=6 n=81 v=90
103824 On ch=6 n=81 v=0
103824 On ch=6 n=86 v=0
104064 On ch=6 n=87 v=90
104064 On ch=6 n=82 v=90
104208 On ch=6 n=82 v=0
104208 On ch=6 n=87 v=0
104448 On ch=6 n=86 v=81
104448 On ch=6 n=81 v=81
105984 On ch=6 n=81 v=0
105984 On ch=6 n=86 v=0
130944 On ch=6 n=79 v=113
130944 On ch=6 n=82 v=113
131040 On ch=6 n=82 v=0
131040 On ch=6 n=79 v=0
131136 On ch=6 n=74 v=84
131136 On ch=6 n=79 v=84
131232 On ch=6 n=79 v=0
131232 On ch=6 n=74 v=0
132480 On ch=6 n=79 v=113
132480 On ch=6 n=82 v=113
132576 On ch=6 n=82 v=0
132576 On ch=6 n=79 v=0
132672 On ch=6 n=74 v=84
132672 On ch=6 n=79 v=84
132768 On ch=6 n=79 v=0
132768 On ch=6 n=74 v=0
134016 On ch=6 n=79 v=113
134016 On ch=6 n=82 v=113
134112 On ch=6 n=82 v=0
134112 On ch=6 n=79 v=0
134208 On ch=6 n=74 v=84
134208 On ch=6 n=79 v=84
134304 On ch=6 n=79 v=0
134304 On ch=6 n=74 v=0
135552 On ch=6 n=84 v=110
135552 On ch=6 n=87 v=110
135648 On ch=6 n=87 v=0
135648 On ch=6 n=84 v=0
135744 On ch=6 n=79 v=93
135744 On ch=6 n=84 v=93
135840 On ch=6 n=84 v=0
135840 On ch=6 n=79 v=0
137088 On ch=6 n=84 v=107
137088 On ch=6 n=87 v=107
137184 On ch=6 n=87 v=0
137184 On ch=6 n=84 v=0
137280 On ch=6 n=79 v=90
137280 On ch=6 n=84 v=90
137376 On ch=6 n=84 v=0
137376 On ch=6 n=79 v=0
138624 On ch=6 n=81 v=104
138624 On ch=6 n=84 v=104
138720 On ch=6 n=84 v=0
138720 On ch=6 n=81 v=0
138816 On ch=6 n=77 v=81
138816 On ch=6 n=81 v=81
138912 On ch=6 n=81 v=0
138912 On ch=6 n=77 v=0
140160 On ch=6 n=84 v=104
140160 On ch=6 n=81 v=104
140256 On ch=6 n=81 v=0
140256 On ch=6 n=84 v=0
140352 On ch=6 n=77 v=84
140352 On ch=6 n=81 v=84
140448 On ch=6 n=81 v=0
140448 On ch=6 n=77 v=0
141696 On ch=6 n=77 v=107
141696 On ch=6 n=82 v=107
141792 On ch=6 n=82 v=0
141792 On ch=6 n=77 v=0
141888 On ch=6 n=77 v=84
141888 On ch=6 n=74 v=84
141984 On ch=6 n=74 v=0
141984 On ch=6 n=77 v=0
143232 On ch=6 n=84 v=110
143232 On ch=6 n=87 v=110
143328 On ch=6 n=87 v=0
143328 On ch=6 n=84 v=0
143424 On ch=6 n=79 v=90
143424 On ch=6 n=84 v=90
143520 On ch=6 n=84 v=0
143520 On ch=6 n=79 v=0
144768 On ch=6 n=81 v=110
144768 On ch=6 n=84 v=110
144864 On ch=6 n=84 v=0
144864 On ch=6 n=81 v=0
144960 On ch=6 n=75 v=95
144960 On ch=6 n=81 v=95
145056 On ch=6 n=81 v=0
145056 On ch=6 n=75 v=0
146304 On ch=6 n=81 v=110
146304 On ch=6 n=86 v=110
146400 On ch=6 n=86 v=0
146400 On ch=6 n=81 v=0
146496 On ch=6 n=78 v=95
146496 On ch=6 n=81 v=95
146592 On ch=6 n=81 v=0
146592 On ch=6 n=78 v=0
147840 On ch=6 n=82 v=110
147840 On ch=6 n=86 v=110
147936 On ch=6 n=86 v=0
147936 On ch=6 n=82 v=0
148032 On ch=6 n=79 v=98
148032 On ch=6 n=82 v=98
148128 On ch=6 n=82 v=0
148128 On ch=6 n=79 v=0
149376 On ch=6 n=81 v=116
149376 On ch=6 n=86 v=116
149472 On ch=6 n=86 v=0
149472 On ch=6 n=81 v=0
149568 On ch=6 n=74 v=90
149568 On ch=6 n=81 v=90
149664 On ch=6 n=81 v=0
149664 On ch=6 n=74 v=0
150912 On ch=6 n=86 v=90
150912 On ch=6 n=82 v=90
150912 On ch=6 n=79 v=90
151008 On ch=6 n=79 v=0
151008 On ch=6 n=82 v=0
151008 On ch=6 n=86 v=0
151680 On ch=6 n=87 v=84
151680 On ch=6 n=82 v=84
151680 On ch=6 n=79 v=84
151776 On ch=6 n=79 v=0
151776 On ch=6 n=82 v=0
151776 On ch=6 n=87 v=0
152448 On ch=6 n=86 v=78
152448 On ch=6 n=82 v=78
152448 On ch=6 n=77 v=78
152544 On ch=6 n=77 v=0
152544 On ch=6 n=82 v=0
152544 On ch=6 n=86 v=0
153216 On ch=6 n=84 v=75
153216 On ch=6 n=81 v=75
153216 On ch=6 n=77 v=75
153312 On ch=6 n=77 v=0
153312 On ch=6 n=81 v=0
153312 On ch=6 n=84 v=0
153984 On ch=6 n=86 v=104
154176 On ch=6 n=86 v=0
154176 On ch=6 n=84 v=93
154368 On ch=6 n=84 v=0
154368 On ch=6 n=82 v=93
154560 On ch=6 n=82 v=0
154560 On ch=6 n=81 v=93
154752 On ch=6 n=81 v=0
154752 On ch=6 n=79 v=93
154944 On ch=6 n=79 v=0
154944 On ch=6 n=77 v=93
155136 On ch=6 n=77 v=0
155136 On ch=6 n=75 v=90
155328 On ch=6 n=75 v=0
155328 On ch=6 n=74 v=87
155520 On ch=6 n=74 v=0
155520 On ch=6 n=72 v=81
155712 On ch=6 n=72 v=0
155712 On ch=6 n=70 v=81
155904 On ch=6 n=70 v=0
155904 On ch=6 n=69 v=81
156096 On ch=6 n=69 v=0
156096 On ch=6 n=67 v=81
156288 On ch=6 n=67 v=0
156288 On ch=6 n=65 v=81
156480 On ch=6 n=65 v=0
156480 On ch=6 n=63 v=90
156672 On ch=6 n=63 v=0
156672 On ch=6 n=62 v=84
156864 On ch=6 n=62 v=0
158592 On ch=6 n=86 v=104
158784 On ch=6 n=86 v=0
158784 On ch=6 n=84 v=93
158976 On ch=6 n=84 v=0
158976 On ch=6 n=82 v=93
159168 On ch=6 n=82 v=0
159168 On ch=6 n=81 v=93
159360 On ch=6 n=81 v=0
159360 On ch=6 n=79 v=93
159552 On ch=6 n=79 v=0
159552 On ch=6 n=77 v=93
159744 On ch=6 n=77 v=0
159744 On ch=6 n=75 v=90
159936 On ch=6 n=75 v=0
159936 On ch=6 n=74 v=87
160128 On ch=6 n=74 v=0
160128 On ch=6 n=72 v=81
160320 On ch=6 n=72 v=0
160320 On ch=6 n=70 v=81
160512 On ch=6 n=70 v=0
160512 On ch=6 n=69 v=81
160704 On ch=6 n=69 v=0
160704 On ch=6 n=67 v=81
160896 On ch=6 n=67 v=0
160896 On ch=6 n=65 v=81
161088 On ch=6 n=65 v=0
161088 On ch=6 n=63 v=90
161280 On ch=6 n=63 v=0
161280 On ch=6 n=62 v=84
161472 On ch=6 n=62 v=0
162816 On ch=6 n=62 v=84
163008 On ch=6 n=62 v=0
170880 On ch=6 n=86 v=104
171072 On ch=6 n=86 v=0
171072 On ch=6 n=84 v=93
171264 On ch=6 n=84 v=0
171264 On ch=6 n=82 v=93
171456 On ch=6 n=82 v=0
171456 On ch=6 n=81 v=93
171648 On ch=6 n=81 v=0
171648 On ch=6 n=79 v=93
171840 On ch=6 n=79 v=0
171840 On ch=6 n=77 v=93
172032 On ch=6 n=77 v=0
172032 On ch=6 n=75 v=90
172224 On ch=6 n=75 v=0
172224 On ch=6 n=74 v=87
172416 On ch=6 n=74 v=0
172416 On ch=6 n=72 v=81
172608 On ch=6 n=72 v=0
172608 On ch=6 n=70 v=81
172800 On ch=6 n=70 v=0
172800 On ch=6 n=69 v=81
172992 On ch=6 n=69 v=0
172992 On ch=6 n=67 v=81
173184 On ch=6 n=67 v=0
173184 On ch=6 n=65 v=81
173376 On ch=6 n=65 v=0
173376 On ch=6 n=63 v=90
173568 On ch=6 n=63 v=0
173568 On ch=6 n=62 v=84
173760 On ch=6 n=62 v=0
176640 On ch=6 n=77 v=90
176640 On ch=6 n=74 v=90
176640 On ch=6 n=70 v=90
176784 On ch=6 n=70 v=0
176784 On ch=6 n=74 v=0
176784 On ch=6 n=77 v=0
177408 On ch=6 n=79 v=87
177408 On ch=6 n=75 v=87
177408 On ch=6 n=70 v=87
177552 On ch=6 n=75 v=0
177552 On ch=6 n=79 v=0
177576 On ch=6 n=70 v=0
178176 On ch=6 n=81 v=84
178176 On ch=6 n=77 v=84
178176 On ch=6 n=72 v=84
178320 On ch=6 n=72 v=0
178320 On ch=6 n=77 v=0
178320 On ch=6 n=81 v=0
179712 On ch=6 n=72 v=81
179712 On ch=6 n=77 v=81
179712 On ch=6 n=81 v=81
179832 On ch=6 n=77 v=0
179856 On ch=6 n=81 v=0
179856 On ch=6 n=72 v=0
179856 Meta TrkEnd
TrkEnd
MTrk
0 Meta 0x21 00
0 Meta TrkName "flute"
0 PrCh ch=7 p=73
0 Par ch=7 c=7 v=117
0 Par ch=7 c=10 v=12
192 Par ch=7 c=91 v=52
1536 On ch=7 n=74 v=87
3072 On ch=7 n=74 v=0
3072 On ch=7 n=75 v=84
4416 On ch=7 n=75 v=0
4416 On ch=7 n=72 v=81
4608 On ch=7 n=72 v=0
4608 On ch=7 n=70 v=81
5952 On ch=7 n=70 v=0
5952 On ch=7 n=74 v=81
6144 On ch=7 n=74 v=0
6144 On ch=7 n=72 v=78
7296 On ch=7 n=72 v=0
7296 On ch=7 n=69 v=78
7680 On ch=7 n=69 v=0
7680 On ch=7 n=62 v=78
9216 On ch=7 n=62 v=0
106368 On ch=7 n=70 v=87
106368 On ch=7 n=75 v=87
106560 On ch=7 n=75 v=0
106560 On ch=7 n=70 v=0
106560 On ch=7 n=69 v=87
106560 On ch=7 n=74 v=87
106704 On ch=7 n=74 v=0
106704 On ch=7 n=69 v=0
106752 On ch=7 n=69 v=84
106752 On ch=7 n=74 v=84
106944 On ch=7 n=74 v=0
106944 On ch=7 n=69 v=0
107904 On ch=7 n=58 v=87
107904 On ch=7 n=63 v=87
108096 On ch=7 n=63 v=0
108096 On ch=7 n=58 v=0
108096 On ch=7 n=57 v=87
108096 On ch=7 n=62 v=87
108240 On ch=7 n=62 v=0
108240 On ch=7 n=57 v=0
108288 On ch=7 n=57 v=84
108288 On ch=7 n=62 v=84
108480 On ch=7 n=62 v=0
108480 On ch=7 n=57 v=0
112512 On ch=7 n=60 v=81
112512 On ch=7 n=63 v=81
112680 On ch=7 n=60 v=0
112704 On ch=7 n=63 v=0
112704 On ch=7 n=54 v=81
112704 On ch=7 n=60 v=81
112872 On ch=7 n=60 v=0
112872 On ch=7 n=54 v=0
112896 On ch=7 n=54 v=81
112896 On ch=7 n=60 v=81
113040 On ch=7 n=54 v=0
113064 On ch=7 n=60 v=0
114048 On ch=7 n=55 v=81
114048 On ch=7 n=58 v=81
114216 On ch=7 n=55 v=0
114240 On ch=7 n=58 v=0
114240 On ch=7 n=58 v=75
114240 On ch=7 n=62 v=75
114432 On ch=7 n=62 v=0
114432 On ch=7 n=58 v=0
114432 On ch=7 n=62 v=81
114432 On ch=7 n=67 v=81
114624 On ch=7 n=62 v=0
114648 On ch=7 n=67 v=0
115200 On ch=7 n=67 v=75
115200 On ch=7 n=70 v=75
115584 On ch=7 n=70 v=0
115584 On ch=7 n=67 v=0
115584 On ch=7 n=63 v=75
115584 On ch=7 n=67 v=75
115968 On ch=7 n=67 v=0
115968 On ch=7 n=63 v=0
115968 On ch=7 n=58 v=75
115968 On ch=7 n=63 v=75
116352 On ch=7 n=63 v=0
116352 On ch=7 n=58 v=0
116352 On ch=7 n=55 v=75
116352 On ch=7 n=58 v=75
116736 On ch=7 n=58 v=0
116736 On ch=7 n=55 v=0
116736 On ch=7 n=66 v=84
116736 On ch=7 n=69 v=84
117120 On ch=7 n=69 v=0
117120 On ch=7 n=66 v=0
117120 On ch=7 n=62 v=84
117120 On ch=7 n=66 v=84
117480 On ch=7 n=66 v=0
117504 On ch=7 n=62 v=0
117504 On ch=7 n=57 v=84
117504 On ch=7 n=62 v=84
117888 On ch=7 n=62 v=0
117888 On ch=7 n=57 v=0
117888 On ch=7 n=54 v=84
117888 On ch=7 n=57 v=84
118272 On ch=7 n=57 v=0
118272 On ch=7 n=54 v=0
118656 On ch=7 n=54 v=90
118656 On ch=7 n=60 v=90
118848 On ch=7 n=60 v=0
118848 On ch=7 n=54 v=0
118848 On ch=7 n=60 v=90
118848 On ch=7 n=62 v=90
118992 On ch=7 n=60 v=0
119016 On ch=7 n=62 v=0
119040 On ch=7 n=60 v=87
119040 On ch=7 n=63 v=87
119184 On ch=7 n=60 v=0
119208 On ch=7 n=63 v=0
120192 On ch=7 n=62 v=90
120192 On ch=7 n=67 v=90
120384 On ch=7 n=67 v=0
120384 On ch=7 n=62 v=0
120384 On ch=7 n=67 v=87
120384 On ch=7 n=69 v=87
120552 On ch=7 n=69 v=0
120576 On ch=7 n=67 v=0
120576 On ch=7 n=67 v=87
120576 On ch=7 n=70 v=87
120768 On ch=7 n=70 v=0
120768 On ch=7 n=67 v=0
121344 On ch=7 n=66 v=87
121344 On ch=7 n=69 v=87
121728 On ch=7 n=69 v=0
121728 On ch=7 n=66 v=0
121728 On ch=7 n=62 v=87
121728 On ch=7 n=66 v=87
122112 On ch=7 n=66 v=0
122112 On ch=7 n=62 v=0
122112 On ch=7 n=63 v=87
122112 On ch=7 n=67 v=87
122496 On ch=7 n=67 v=0
122496 On ch=7 n=63 v=0
122496 On ch=7 n=58 v=87
122496 On ch=7 n=63 v=87
122880 On ch=7 n=63 v=0
122880 On ch=7 n=58 v=0
122880 On ch=7 n=57 v=87
122880 On ch=7 n=62 v=87
123672 On ch=7 n=57 v=0
123696 On ch=7 n=62 v=0
124032 On ch=7 n=76 v=78
124224 On ch=7 n=76 v=0
124224 On ch=7 n=75 v=78
124416 On ch=7 n=75 v=0
124416 On ch=7 n=74 v=78
125208 On ch=7 n=74 v=0
125568 On ch=7 n=74 v=84
125760 On ch=7 n=74 v=0
125760 On ch=7 n=73 v=84
125952 On ch=7 n=73 v=0
125952 On ch=7 n=72 v=84
126744 On ch=7 n=72 v=0
127104 On ch=7 n=72 v=84
127296 On ch=7 n=72 v=0
127296 On ch=7 n=71 v=84
127488 On ch=7 n=71 v=0
127488 On ch=7 n=70 v=84
128280 On ch=7 n=70 v=0
128640 On ch=7 n=70 v=78
128832 On ch=7 n=70 v=0
128832 On ch=7 n=69 v=78
129024 On ch=7 n=69 v=0
129024 On ch=7 n=62 v=81
129816 On ch=7 n=62 v=0
164352 On ch=7 n=74 v=87
165888 On ch=7 n=74 v=0
165888 On ch=7 n=75 v=84
167232 On ch=7 n=75 v=0
167232 On ch=7 n=72 v=81
167424 On ch=7 n=72 v=0
167424 On ch=7 n=70 v=81
168768 On ch=7 n=70 v=0
168768 On ch=7 n=74 v=81
168960 On ch=7 n=74 v=0
168960 On ch=7 n=72 v=78
170112 On ch=7 n=72 v=0
170112 On ch=7 n=69 v=78
170496 On ch=7 n=69 v=0
170496 On ch=7 n=70 v=75
172032 On ch=7 n=70 v=0
172032 Meta TrkEnd
TrkEnd
MTrk
0 Meta 0x21 00
0 Meta TrkName "stg 2"
0 PrCh ch=8 p=48
0 Par ch=8 c=7 v=106
0 Par ch=8 c=10 v=20
192 Par ch=8 c=91 v=12
1536 On ch=8 n=74 v=75
1536 On ch=8 n=70 v=75
1536 On ch=8 n=67 v=75
3072 On ch=8 n=67 v=0
3072 On ch=8 n=70 v=0
3072 On ch=8 n=74 v=0
3072 On ch=8 n=67 v=75
3072 On ch=8 n=70 v=75
3072 On ch=8 n=75 v=75
4608 On ch=8 n=75 v=0
4608 On ch=8 n=70 v=0
4608 On ch=8 n=67 v=0
4608 On ch=8 n=74 v=66
4608 On ch=8 n=70 v=66
4608 On ch=8 n=65 v=66
6144 On ch=8 n=65 v=0
6144 On ch=8 n=70 v=0
6144 On ch=8 n=74 v=0
6144 On ch=8 n=72 v=69
6144 On ch=8 n=69 v=69
6144 On ch=8 n=65 v=69
7680 On ch=8 n=65 v=0
7680 On ch=8 n=69 v=0
7680 On ch=8 n=72 v=0
7680 On ch=8 n=69 v=66
7680 On ch=8 n=66 v=66
7680 On ch=8 n=62 v=66
13824 On ch=8 n=62 v=0
13824 On ch=8 n=66 v=0
13824 On ch=8 n=69 v=0
13824 On ch=8 n=74 v=78
13824 On ch=8 n=67 v=78
13824 On ch=8 n=70 v=78
18432 On ch=8 n=70 v=0
18432 On ch=8 n=67 v=0
18432 On ch=8 n=74 v=0
18432 On ch=8 n=75 v=66
18432 On ch=8 n=72 v=66
18432 On ch=8 n=67 v=66
21504 On ch=8 n=67 v=0
21504 On ch=8 n=72 v=0
21504 On ch=8 n=75 v=0
21504 On ch=8 n=74 v=66
21504 On ch=8 n=69 v=66
21504 On ch=8 n=66 v=66
24576 On ch=8 n=66 v=0
24576 On ch=8 n=69 v=0
24576 On ch=8 n=74 v=0
24576 On ch=8 n=74 v=64
24576 On ch=8 n=67 v=64
24576 On ch=8 n=70 v=64
26112 On ch=8 n=70 v=0
26112 On ch=8 n=67 v=0
26112 On ch=8 n=74 v=0
26112 On ch=8 n=72 v=72
26112 On ch=8 n=66 v=72
26112 On ch=8 n=63 v=72
27648 On ch=8 n=63 v=0
27648 On ch=8 n=66 v=0
27648 On ch=8 n=72 v=0
27648 On ch=8 n=70 v=66
27648 On ch=8 n=67 v=66
27648 On ch=8 n=62 v=66
29184 On ch=8 n=62 v=0
29184 On ch=8 n=67 v=0
29184 On ch=8 n=70 v=0
29184 On ch=8 n=72 v=72
29184 On ch=8 n=66 v=72
29184 On ch=8 n=63 v=72
30720 On ch=8 n=63 v=0
30720 On ch=8 n=66 v=0
30720 On ch=8 n=72 v=0
30720 On ch=8 n=70 v=66
30720 On ch=8 n=62 v=66
30720 On ch=8 n=67 v=66
32256 On ch=8 n=67 v=0
32256 On ch=8 n=62 v=0
32256 On ch=8 n=70 v=0
32256 On ch=8 n=59 v=69
32256 On ch=8 n=67 v=69
32256 On ch=8 n=64 v=69
33792 On ch=8 n=64 v=0
33792 On ch=8 n=67 v=0
33792 On ch=8 n=59 v=0
33792 On ch=8 n=67 v=72
33792 On ch=8 n=63 v=72
33792 On ch=8 n=58 v=72
35328 On ch=8 n=58 v=0
35328 On ch=8 n=63 v=0
35328 On ch=8 n=67 v=0
35328 On ch=8 n=69 v=66
35328 On ch=8 n=66 v=66
35328 On ch=8 n=62 v=66
35520 On ch=8 n=62 v=0
35520 On ch=8 n=66 v=0
35520 On ch=8 n=69 v=0
36096 On ch=8 n=70 v=64
36096 On ch=8 n=67 v=64
36096 On ch=8 n=63 v=64
36864 On ch=8 n=63 v=0
36864 On ch=8 n=67 v=0
36864 On ch=8 n=70 v=0
36864 On ch=8 n=69 v=61
36864 On ch=8 n=66 v=61
36864 On ch=8 n=62 v=61
37056 On ch=8 n=62 v=0
37056 On ch=8 n=66 v=0
37056 On ch=8 n=69 v=0
37632 On ch=8 n=63 v=58
37632 On ch=8 n=67 v=58
37632 On ch=8 n=70 v=58
38400 On ch=8 n=70 v=0
38400 On ch=8 n=67 v=0
38400 On ch=8 n=63 v=0
38400 On ch=8 n=69 v=72
38400 On ch=8 n=66 v=72
38400 On ch=8 n=62 v=72
38592 On ch=8 n=62 v=0
38592 On ch=8 n=66 v=0
38592 On ch=8 n=69 v=0
38784 On ch=8 n=63 v=61
38784 On ch=8 n=67 v=61
38784 On ch=8 n=70 v=61
38976 On ch=8 n=70 v=0
38976 On ch=8 n=67 v=0
38976 On ch=8 n=63 v=0
39168 On ch=8 n=69 v=66
39168 On ch=8 n=66 v=66
39168 On ch=8 n=62 v=66
39360 On ch=8 n=62 v=0
39360 On ch=8 n=66 v=0
39360 On ch=8 n=69 v=0
39552 On ch=8 n=63 v=64
39552 On ch=8 n=67 v=64
39552 On ch=8 n=70 v=64
39744 On ch=8 n=70 v=0
39744 On ch=8 n=67 v=0
39744 On ch=8 n=63 v=0
39936 On ch=8 n=69 v=61
39936 On ch=8 n=66 v=61
39936 On ch=8 n=62 v=61
41472 On ch=8 n=62 v=0
41472 On ch=8 n=66 v=0
41472 On ch=8 n=69 v=0
41472 On ch=8 n=74 v=78
41472 On ch=8 n=67 v=78
41472 On ch=8 n=70 v=78
46080 On ch=8 n=70 v=0
46080 On ch=8 n=67 v=0
46080 On ch=8 n=74 v=0
46080 On ch=8 n=75 v=66
46080 On ch=8 n=72 v=66
46080 On ch=8 n=67 v=66
49152 On ch=8 n=67 v=0
49152 On ch=8 n=72 v=0
49152 On ch=8 n=75 v=0
49152 On ch=8 n=65 v=66
49152 On ch=8 n=69 v=66
49152 On ch=8 n=72 v=66
52224 On ch=8 n=72 v=0
52224 On ch=8 n=69 v=0
52224 On ch=8 n=65 v=0
52224 On ch=8 n=62 v=64
52224 On ch=8 n=65 v=64
52224 On ch=8 n=70 v=64
53760 On ch=8 n=70 v=0
53760 On ch=8 n=65 v=0
53760 On ch=8 n=62 v=0
53760 On ch=8 n=70 v=69
53760 On ch=8 n=67 v=69
53760 On ch=8 n=63 v=69
55296 On ch=8 n=63 v=0
55296 On ch=8 n=67 v=0
55296 On ch=8 n=70 v=0
55296 On ch=8 n=62 v=66
55296 On ch=8 n=65 v=66
55296 On ch=8 n=70 v=66
56832 On ch=8 n=70 v=0
56832 On ch=8 n=65 v=0
56832 On ch=8 n=62 v=0
56832 On ch=8 n=63 v=66
56832 On ch=8 n=67 v=66
56832 On ch=8 n=70 v=66
58368 On ch=8 n=70 v=0
58368 On ch=8 n=67 v=0
58368 On ch=8 n=63 v=0
58368 On ch=8 n=62 v=64
58368 On ch=8 n=65 v=64
58368 On ch=8 n=70 v=64
59904 On ch=8 n=70 v=0
59904 On ch=8 n=65 v=0
59904 On ch=8 n=62 v=0
59904 On ch=8 n=69 v=75
59904 On ch=8 n=66 v=75
59904 On ch=8 n=62 v=75
61440 On ch=8 n=62 v=0
61440 On ch=8 n=66 v=0
61440 On ch=8 n=69 v=0
61440 On ch=8 n=70 v=72
61440 On ch=8 n=67 v=72
61440 On ch=8 n=62 v=72
62208 On ch=8 n=62 v=0
62208 On ch=8 n=67 v=0
62208 On ch=8 n=70 v=0
62208 On ch=8 n=63 v=69
62208 On ch=8 n=67 v=69
62208 On ch=8 n=70 v=69
62976 On ch=8 n=70 v=0
62976 On ch=8 n=67 v=0
62976 On ch=8 n=63 v=0
62976 On ch=8 n=70 v=66
62976 On ch=8 n=65 v=66
62976 On ch=8 n=62 v=66
63744 On ch=8 n=62 v=0
63744 On ch=8 n=65 v=0
63744 On ch=8 n=70 v=0
63744 On ch=8 n=60 v=66
63744 On ch=8 n=65 v=66
63744 On ch=8 n=69 v=66
64512 On ch=8 n=69 v=0
64512 On ch=8 n=65 v=0
64512 On ch=8 n=60 v=0
64512 On ch=8 n=62 v=64
64512 On ch=8 n=65 v=64
64512 On ch=8 n=70 v=64
65280 On ch=8 n=70 v=0
65280 On ch=8 n=65 v=0
65280 On ch=8 n=62 v=0
65280 On ch=8 n=70 v=61
65280 On ch=8 n=67 v=61
65280 On ch=8 n=62 v=61
66048 On ch=8 n=62 v=0
66048 On ch=8 n=67 v=0
66048 On ch=8 n=70 v=0
66048 On ch=8 n=72 v=61
66048 On ch=8 n=67 v=61
66048 On ch=8 n=63 v=61
66816 On ch=8 n=63 v=0
66816 On ch=8 n=67 v=0
66816 On ch=8 n=72 v=0
66816 On ch=8 n=65 v=64
66816 On ch=8 n=69 v=64
66816 On ch=8 n=72 v=64
67584 On ch=8 n=72 v=0
67584 On ch=8 n=69 v=0
67584 On ch=8 n=65 v=0
67584 On ch=8 n=70 v=75
67584 On ch=8 n=65 v=75
67584 On ch=8 n=62 v=75
67872 On ch=8 n=62 v=0
67872 On ch=8 n=65 v=0
67872 On ch=8 n=70 v=0
67968 On ch=8 n=62 v=75
67968 On ch=8 n=65 v=75
67968 On ch=8 n=70 v=75
68256 On ch=8 n=70 v=0
68256 On ch=8 n=65 v=0
68256 On ch=8 n=62 v=0
68352 On ch=8 n=70 v=75
68352 On ch=8 n=67 v=75
68352 On ch=8 n=63 v=75
68640 On ch=8 n=63 v=0
68640 On ch=8 n=67 v=0
68640 On ch=8 n=70 v=0
68736 On ch=8 n=65 v=72
68736 On ch=8 n=69 v=72
68736 On ch=8 n=72 v=72
69024 On ch=8 n=72 v=0
69024 On ch=8 n=69 v=0
69024 On ch=8 n=65 v=0
69120 On ch=8 n=62 v=64
69120 On ch=8 n=65 v=64
69120 On ch=8 n=70 v=64
69888 On ch=8 n=70 v=0
69888 On ch=8 n=65 v=0
69888 On ch=8 n=62 v=0
69888 On ch=8 n=70 v=61
69888 On ch=8 n=67 v=61
69888 On ch=8 n=62 v=61
70656 On ch=8 n=62 v=0
70656 On ch=8 n=67 v=0
70656 On ch=8 n=70 v=0
70656 On ch=8 n=72 v=61
70656 On ch=8 n=67 v=61
70656 On ch=8 n=63 v=61
71424 On ch=8 n=63 v=0
71424 On ch=8 n=67 v=0
71424 On ch=8 n=72 v=0
71424 On ch=8 n=65 v=64
71424 On ch=8 n=69 v=64
71424 On ch=8 n=72 v=64
72192 On ch=8 n=72 v=0
72192 On ch=8 n=69 v=0
72192 On ch=8 n=65 v=0
72192 On ch=8 n=70 v=84
72192 On ch=8 n=65 v=84
72192 On ch=8 n=62 v=84
72480 On ch=8 n=62 v=0
72480 On ch=8 n=65 v=0
72480 On ch=8 n=70 v=0
72576 On ch=8 n=62 v=78
72576 On ch=8 n=65 v=78
72576 On ch=8 n=70 v=78
72864 On ch=8 n=70 v=0
72864 On ch=8 n=65 v=0
72864 On ch=8 n=62 v=0
72960 On ch=8 n=70 v=75
72960 On ch=8 n=67 v=75
72960 On ch=8 n=63 v=75
73248 On ch=8 n=63 v=0
73248 On ch=8 n=67 v=0
73248 On ch=8 n=70 v=0
73344 On ch=8 n=65 v=72
73344 On ch=8 n=69 v=72
73344 On ch=8 n=72 v=72
73632 On ch=8 n=72 v=0
73632 On ch=8 n=69 v=0
73632 On ch=8 n=65 v=0
73728 On ch=8 n=70 v=75
73728 On ch=8 n=65 v=75
73728 On ch=8 n=62 v=75
74016 On ch=8 n=62 v=0
74016 On ch=8 n=65 v=0
74016 On ch=8 n=70 v=0
74112 On ch=8 n=62 v=75
74112 On ch=8 n=65 v=75
74112 On ch=8 n=70 v=75
74400 On ch=8 n=70 v=0
74400 On ch=8 n=65 v=0
74400 On ch=8 n=62 v=0
74496 On ch=8 n=70 v=75
74496 On ch=8 n=67 v=75
74496 On ch=8 n=63 v=75
74784 On ch=8 n=63 v=0
74784 On ch=8 n=67 v=0
74784 On ch=8 n=70 v=0
74880 On ch=8 n=65 v=75
74880 On ch=8 n=69 v=75
74880 On ch=8 n=72 v=75
75168 On ch=8 n=72 v=0
75168 On ch=8 n=69 v=0
75168 On ch=8 n=65 v=0
75264 On ch=8 n=70 v=64
75264 On ch=8 n=65 v=64
75264 On ch=8 n=62 v=64
78336 On ch=8 n=62 v=0
78336 On ch=8 n=65 v=0
78336 On ch=8 n=70 v=0
78336 On ch=8 n=74 v=78
78336 On ch=8 n=67 v=78
78336 On ch=8 n=70 v=78
82944 On ch=8 n=70 v=0
82944 On ch=8 n=67 v=0
82944 On ch=8 n=74 v=0
82944 On ch=8 n=75 v=66
82944 On ch=8 n=72 v=66
82944 On ch=8 n=67 v=66
86016 On ch=8 n=67 v=0
86016 On ch=8 n=72 v=0
86016 On ch=8 n=75 v=0
86016 On ch=8 n=74 v=66
86016 On ch=8 n=69 v=66
86016 On ch=8 n=66 v=66
89088 On ch=8 n=66 v=0
89088 On ch=8 n=69 v=0
89088 On ch=8 n=74 v=0
89088 On ch=8 n=74 v=64
89088 On ch=8 n=67 v=64
89088 On ch=8 n=70 v=64
90624 On ch=8 n=70 v=0
90624 On ch=8 n=67 v=0
90624 On ch=8 n=74 v=0
90624 On ch=8 n=72 v=72
90624 On ch=8 n=66 v=72
90624 On ch=8 n=63 v=72
92160 On ch=8 n=63 v=0
92160 On ch=8 n=66 v=0
92160 On ch=8 n=72 v=0
92160 On ch=8 n=70 v=66
92160 On ch=8 n=67 v=66
92160 On ch=8 n=62 v=66
93696 On ch=8 n=62 v=0
93696 On ch=8 n=67 v=0
93696 On ch=8 n=70 v=0
93696 On ch=8 n=72 v=72
93696 On ch=8 n=66 v=72
93696 On ch=8 n=63 v=72
95232 On ch=8 n=63 v=0
95232 On ch=8 n=66 v=0
95232 On ch=8 n=72 v=0
95232 On ch=8 n=70 v=66
95232 On ch=8 n=62 v=66
95232 On ch=8 n=67 v=66
96768 On ch=8 n=67 v=0
96768 On ch=8 n=62 v=0
96768 On ch=8 n=70 v=0
96768 On ch=8 n=59 v=69
96768 On ch=8 n=67 v=69
96768 On ch=8 n=64 v=69
98304 On ch=8 n=64 v=0
98304 On ch=8 n=67 v=0
98304 On ch=8 n=59 v=0
98304 On ch=8 n=67 v=72
98304 On ch=8 n=63 v=72
98304 On ch=8 n=58 v=72
99840 On ch=8 n=58 v=0
99840 On ch=8 n=63 v=0
99840 On ch=8 n=67 v=0
99840 On ch=8 n=69 v=66
99840 On ch=8 n=66 v=66
99840 On ch=8 n=62 v=66
100032 On ch=8 n=62 v=0
100032 On ch=8 n=66 v=0
100032 On ch=8 n=69 v=0
100608 On ch=8 n=70 v=64
100608 On ch=8 n=67 v=64
100608 On ch=8 n=63 v=64
101376 On ch=8 n=63 v=0
101376 On ch=8 n=67 v=0
101376 On ch=8 n=70 v=0
101376 On ch=8 n=69 v=61
101376 On ch=8 n=66 v=61
101376 On ch=8 n=62 v=61
101568 On ch=8 n=62 v=0
101568 On ch=8 n=66 v=0
101568 On ch=8 n=69 v=0
102144 On ch=8 n=63 v=58
102144 On ch=8 n=67 v=58
102144 On ch=8 n=70 v=58
102912 On ch=8 n=70 v=0
102912 On ch=8 n=67 v=0
102912 On ch=8 n=63 v=0
102912 On ch=8 n=69 v=72
102912 On ch=8 n=66 v=72
102912 On ch=8 n=62 v=72
103104 On ch=8 n=62 v=0
103104 On ch=8 n=66 v=0
103104 On ch=8 n=69 v=0
103296 On ch=8 n=63 v=61
103296 On ch=8 n=67 v=61
103296 On ch=8 n=70 v=61
103488 On ch=8 n=70 v=0
103488 On ch=8 n=67 v=0
103488 On ch=8 n=63 v=0
103680 On ch=8 n=69 v=66
103680 On ch=8 n=66 v=66
103680 On ch=8 n=62 v=66
103872 On ch=8 n=62 v=0
103872 On ch=8 n=66 v=0
103872 On ch=8 n=69 v=0
104064 On ch=8 n=63 v=64
104064 On ch=8 n=67 v=64
104064 On ch=8 n=70 v=64
104256 On ch=8 n=70 v=0
104256 On ch=8 n=67 v=0
104256 On ch=8 n=63 v=0
104448 On ch=8 n=69 v=61
104448 On ch=8 n=66 v=61
104448 On ch=8 n=62 v=61
105984 On ch=8 n=62 v=0
105984 On ch=8 n=66 v=0
105984 On ch=8 n=69 v=0
105984 On ch=8 n=57 v=55
105984 On ch=8 n=62 v=55
105984 On ch=8 n=66 v=55
112128 On ch=8 n=66 v=0
112128 On ch=8 n=62 v=0
112128 On ch=8 n=57 v=0
112128 On ch=8 n=66 v=61
112128 On ch=8 n=63 v=61
112128 On ch=8 n=60 v=61
113664 On ch=8 n=60 v=0
113664 On ch=8 n=63 v=0
113664 On ch=8 n=66 v=0
113664 On ch=8 n=58 v=58
113664 On ch=8 n=67 v=58
113664 On ch=8 n=62 v=58
115200 On ch=8 n=62 v=0
115200 On ch=8 n=67 v=0
115200 On ch=8 n=58 v=0
115200 On ch=8 n=58 v=64
115200 On ch=8 n=67 v=64
115200 On ch=8 n=63 v=64
116736 On ch=8 n=63 v=0
116736 On ch=8 n=67 v=0
116736 On ch=8 n=58 v=0
116736 On ch=8 n=57 v=58
116736 On ch=8 n=66 v=58
116736 On ch=8 n=62 v=58
118272 On ch=8 n=62 v=0
118272 On ch=8 n=66 v=0
118272 On ch=8 n=57 v=0
118272 On ch=8 n=66 v=75
118272 On ch=8 n=63 v=75
118272 On ch=8 n=60 v=75
119808 On ch=8 n=60 v=0
119808 On ch=8 n=63 v=0
119808 On ch=8 n=66 v=0
119808 On ch=8 n=58 v=75
119808 On ch=8 n=67 v=75
119808 On ch=8 n=62 v=75
121344 On ch=8 n=62 v=0
121344 On ch=8 n=67 v=0
121344 On ch=8 n=58 v=0
121344 On ch=8 n=57 v=72
121344 On ch=8 n=66 v=72
121344 On ch=8 n=62 v=72
122112 On ch=8 n=62 v=0
122112 On ch=8 n=66 v=0
122112 On ch=8 n=57 v=0
122112 On ch=8 n=58 v=72
122112 On ch=8 n=67 v=72
122112 On ch=8 n=63 v=72
122880 On ch=8 n=63 v=0
122880 On ch=8 n=67 v=0
122880 On ch=8 n=58 v=0
122880 On ch=8 n=66 v=72
122880 On ch=8 n=62 v=72
122880 On ch=8 n=57 v=72
125952 On ch=8 n=57 v=0
125952 On ch=8 n=62 v=0
125952 On ch=8 n=66 v=0
125952 On ch=8 n=69 v=78
125952 On ch=8 n=66 v=78
125952 On ch=8 n=60 v=78
127488 On ch=8 n=60 v=0
127488 On ch=8 n=66 v=0
127488 On ch=8 n=69 v=0
127488 On ch=8 n=69 v=69
127488 On ch=8 n=66 v=69
127488 On ch=8 n=58 v=69
129024 On ch=8 n=58 v=0
129024 On ch=8 n=66 v=0
129024 On ch=8 n=69 v=0
129024 On ch=8 n=66 v=69
129024 On ch=8 n=62 v=69
129024 On ch=8 n=57 v=69
130560 On ch=8 n=57 v=0
130560 On ch=8 n=62 v=0
130560 On ch=8 n=66 v=0
130560 On ch=8 n=74 v=78
130560 On ch=8 n=67 v=78
130560 On ch=8 n=70 v=78
135168 On ch=8 n=70 v=0
135168 On ch=8 n=67 v=0
135168 On ch=8 n=74 v=0
135168 On ch=8 n=75 v=66
135168 On ch=8 n=72 v=66
135168 On ch=8 n=67 v=66
138240 On ch=8 n=67 v=0
138240 On ch=8 n=72 v=0
138240 On ch=8 n=75 v=0
138240 On ch=8 n=65 v=66
138240 On ch=8 n=69 v=66
138240 On ch=8 n=72 v=66
141312 On ch=8 n=72 v=0
141312 On ch=8 n=69 v=0
141312 On ch=8 n=65 v=0
141312 On ch=8 n=62 v=64
141312 On ch=8 n=65 v=64
141312 On ch=8 n=70 v=64
142848 On ch=8 n=70 v=0
142848 On ch=8 n=65 v=0
142848 On ch=8 n=62 v=0
142848 On ch=8 n=60 v=64
142848 On ch=8 n=67 v=64
142848 On ch=8 n=63 v=64
144384 On ch=8 n=63 v=0
144384 On ch=8 n=67 v=0
144384 On ch=8 n=60 v=0
144384 On ch=8 n=69 v=64
144384 On ch=8 n=63 v=64
144384 On ch=8 n=60 v=64
145920 On ch=8 n=60 v=0
145920 On ch=8 n=63 v=0
145920 On ch=8 n=69 v=0
145920 On ch=8 n=69 v=61
145920 On ch=8 n=66 v=61
145920 On ch=8 n=62 v=61
147456 On ch=8 n=62 v=0
147456 On ch=8 n=66 v=0
147456 On ch=8 n=69 v=0
147456 On ch=8 n=70 v=69
147456 On ch=8 n=67 v=69
147456 On ch=8 n=62 v=69
148992 On ch=8 n=62 v=0
148992 On ch=8 n=67 v=0
148992 On ch=8 n=70 v=0
148992 On ch=8 n=69 v=66
148992 On ch=8 n=66 v=66
148992 On ch=8 n=62 v=66
150528 On ch=8 n=62 v=0
150528 On ch=8 n=66 v=0
150528 On ch=8 n=69 v=0
150528 On ch=8 n=70 v=64
150528 On ch=8 n=67 v=64
150528 On ch=8 n=62 v=64
151296 On ch=8 n=62 v=0
151296 On ch=8 n=67 v=0
151296 On ch=8 n=70 v=0
151296 On ch=8 n=70 v=61
151296 On ch=8 n=67 v=61
151296 On ch=8 n=63 v=61
152064 On ch=8 n=63 v=0
152064 On ch=8 n=67 v=0
152064 On ch=8 n=70 v=0
152064 On ch=8 n=70 v=66
152064 On ch=8 n=65 v=66
152064 On ch=8 n=62 v=66
152832 On ch=8 n=62 v=0
152832 On ch=8 n=65 v=0
152832 On ch=8 n=70 v=0
152832 On ch=8 n=69 v=61
152832 On ch=8 n=65 v=61
152832 On ch=8 n=60 v=61
153600 On ch=8 n=60 v=0
153600 On ch=8 n=65 v=0
153600 On ch=8 n=69 v=0
153600 On ch=8 n=62 v=64
153600 On ch=8 n=65 v=64
153600 On ch=8 n=70 v=64
154368 On ch=8 n=70 v=0
154368 On ch=8 n=65 v=0
154368 On ch=8 n=62 v=0
154368 On ch=8 n=70 v=61
154368 On ch=8 n=67 v=61
154368 On ch=8 n=62 v=61
155136 On ch=8 n=62 v=0
155136 On ch=8 n=67 v=0
155136 On ch=8 n=70 v=0
155136 On ch=8 n=72 v=61
155136 On ch=8 n=67 v=61
155136 On ch=8 n=63 v=61
155904 On ch=8 n=63 v=0
155904 On ch=8 n=67 v=0
155904 On ch=8 n=72 v=0
155904 On ch=8 n=65 v=64
155904 On ch=8 n=69 v=64
155904 On ch=8 n=72 v=64
156672 On ch=8 n=72 v=0
156672 On ch=8 n=69 v=0
156672 On ch=8 n=65 v=0
156672 On ch=8 n=70 v=75
156672 On ch=8 n=65 v=75
156672 On ch=8 n=62 v=75
156960 On ch=8 n=62 v=0
156960 On ch=8 n=65 v=0
156960 On ch=8 n=70 v=0
157056 On ch=8 n=62 v=75
157056 On ch=8 n=65 v=75
157056 On ch=8 n=70 v=75
157344 On ch=8 n=70 v=0
157344 On ch=8 n=65 v=0
157344 On ch=8 n=62 v=0
157440 On ch=8 n=70 v=75
157440 On ch=8 n=67 v=75
157440 On ch=8 n=63 v=75
157728 On ch=8 n=63 v=0
157728 On ch=8 n=67 v=0
157728 On ch=8 n=70 v=0
157824 On ch=8 n=65 v=72
157824 On ch=8 n=69 v=72
157824 On ch=8 n=72 v=72
158112 On ch=8 n=72 v=0
158112 On ch=8 n=69 v=0
158112 On ch=8 n=65 v=0
158208 On ch=8 n=62 v=64
158208 On ch=8 n=65 v=64
158208 On ch=8 n=70 v=64
158976 On ch=8 n=70 v=0
158976 On ch=8 n=65 v=0
158976 On ch=8 n=62 v=0
158976 On ch=8 n=70 v=61
158976 On ch=8 n=67 v=61
158976 On ch=8 n=62 v=61
159744 On ch=8 n=62 v=0
159744 On ch=8 n=67 v=0
159744 On ch=8 n=70 v=0
159744 On ch=8 n=72 v=61
159744 On ch=8 n=67 v=61
159744 On ch=8 n=63 v=61
160512 On ch=8 n=63 v=0
160512 On ch=8 n=67 v=0
160512 On ch=8 n=72 v=0
160512 On ch=8 n=65 v=64
160512 On ch=8 n=69 v=64
160512 On ch=8 n=72 v=64
161280 On ch=8 n=72 v=0
161280 On ch=8 n=69 v=0
161280 On ch=8 n=65 v=0
161280 On ch=8 n=70 v=84
161280 On ch=8 n=65 v=84
161280 On ch=8 n=62 v=84
161568 On ch=8 n=62 v=0
161568 On ch=8 n=65 v=0
161568 On ch=8 n=70 v=0
161664 On ch=8 n=62 v=78
161664 On ch=8 n=65 v=78
161664 On ch=8 n=70 v=78
161952 On ch=8 n=70 v=0
161952 On ch=8 n=65 v=0
161952 On ch=8 n=62 v=0
162048 On ch=8 n=70 v=75
162048 On ch=8 n=67 v=75
162048 On ch=8 n=63 v=75
162336 On ch=8 n=63 v=0
162336 On ch=8 n=67 v=0
162336 On ch=8 n=70 v=0
162432 On ch=8 n=65 v=72
162432 On ch=8 n=69 v=72
162432 On ch=8 n=72 v=72
162720 On ch=8 n=72 v=0
162720 On ch=8 n=69 v=0
162720 On ch=8 n=65 v=0
162816 On ch=8 n=70 v=75
162816 On ch=8 n=65 v=75
162816 On ch=8 n=62 v=75
163104 On ch=8 n=62 v=0
163104 On ch=8 n=65 v=0
163104 On ch=8 n=70 v=0
163200 On ch=8 n=62 v=75
163200 On ch=8 n=65 v=75
163200 On ch=8 n=70 v=75
163488 On ch=8 n=70 v=0
163488 On ch=8 n=65 v=0
163488 On ch=8 n=62 v=0
163584 On ch=8 n=70 v=75
163584 On ch=8 n=67 v=75
163584 On ch=8 n=63 v=75
163872 On ch=8 n=63 v=0
163872 On ch=8 n=67 v=0
163872 On ch=8 n=70 v=0
163968 On ch=8 n=65 v=75
163968 On ch=8 n=69 v=75
163968 On ch=8 n=72 v=75
164256 On ch=8 n=72 v=0
164256 On ch=8 n=69 v=0
164256 On ch=8 n=65 v=0
164352 On ch=8 n=74 v=75
164352 On ch=8 n=70 v=75
164352 On ch=8 n=67 v=75
165888 On ch=8 n=67 v=0
165888 On ch=8 n=70 v=0
165888 On ch=8 n=74 v=0
165888 On ch=8 n=67 v=75
165888 On ch=8 n=70 v=75
165888 On ch=8 n=75 v=75
167424 On ch=8 n=75 v=0
167424 On ch=8 n=70 v=0
167424 On ch=8 n=67 v=0
167424 On ch=8 n=74 v=66
167424 On ch=8 n=70 v=66
167424 On ch=8 n=65 v=66
168960 On ch=8 n=65 v=0
168960 On ch=8 n=70 v=0
168960 On ch=8 n=74 v=0
168960 On ch=8 n=72 v=69
168960 On ch=8 n=69 v=69
168960 On ch=8 n=65 v=69
170496 On ch=8 n=65 v=0
170496 On ch=8 n=69 v=0
170496 On ch=8 n=72 v=0
170496 On ch=8 n=62 v=64
170496 On ch=8 n=65 v=64
170496 On ch=8 n=70 v=64
171264 On ch=8 n=70 v=0
171264 On ch=8 n=65 v=0
171264 On ch=8 n=62 v=0
171264 On ch=8 n=70 v=61
171264 On ch=8 n=67 v=61
171264 On ch=8 n=62 v=61
172032 On ch=8 n=62 v=0
172032 On ch=8 n=67 v=0
172032 On ch=8 n=70 v=0
172032 On ch=8 n=72 v=61
172032 On ch=8 n=67 v=61
172032 On ch=8 n=63 v=61
172800 On ch=8 n=63 v=0
172800 On ch=8 n=67 v=0
172800 On ch=8 n=72 v=0
172800 On ch=8 n=65 v=64
172800 On ch=8 n=69 v=64
172800 On ch=8 n=72 v=64
173568 On ch=8 n=72 v=0
173568 On ch=8 n=69 v=0
173568 On ch=8 n=65 v=0
173568 On ch=8 n=70 v=84
173568 On ch=8 n=65 v=84
173568 On ch=8 n=62 v=84
173856 On ch=8 n=62 v=0
173856 On ch=8 n=65 v=0
173856 On ch=8 n=70 v=0
173952 On ch=8 n=62 v=78
173952 On ch=8 n=65 v=78
173952 On ch=8 n=70 v=78
174240 On ch=8 n=70 v=0
174240 On ch=8 n=65 v=0
174240 On ch=8 n=62 v=0
174336 On ch=8 n=70 v=75
174336 On ch=8 n=67 v=75
174336 On ch=8 n=63 v=75
174624 On ch=8 n=63 v=0
174624 On ch=8 n=67 v=0
174624 On ch=8 n=70 v=0
174720 On ch=8 n=65 v=72
174720 On ch=8 n=69 v=72
174720 On ch=8 n=72 v=72
175008 On ch=8 n=72 v=0
175008 On ch=8 n=69 v=0
175008 On ch=8 n=65 v=0
175104 On ch=8 n=70 v=75
175104 On ch=8 n=65 v=75
175104 On ch=8 n=62 v=75
175392 On ch=8 n=62 v=0
175392 On ch=8 n=65 v=0
175392 On ch=8 n=70 v=0
175488 On ch=8 n=62 v=75
175488 On ch=8 n=65 v=75
175488 On ch=8 n=70 v=75
175776 On ch=8 n=70 v=0
175776 On ch=8 n=65 v=0
175776 On ch=8 n=62 v=0
175872 On ch=8 n=70 v=75
175872 On ch=8 n=67 v=75
175872 On ch=8 n=63 v=75
176160 On ch=8 n=63 v=0
176160 On ch=8 n=67 v=0
176160 On ch=8 n=70 v=0
176256 On ch=8 n=65 v=75
176256 On ch=8 n=69 v=75
176256 On ch=8 n=72 v=75
176544 On ch=8 n=72 v=0
176544 On ch=8 n=69 v=0
176544 On ch=8 n=65 v=0
176640 On ch=8 n=70 v=72
176640 On ch=8 n=65 v=72
176640 On ch=8 n=62 v=72
176928 On ch=8 n=62 v=0
176928 On ch=8 n=65 v=0
176928 On ch=8 n=70 v=0
177408 On ch=8 n=63 v=72
177408 On ch=8 n=67 v=72
177408 On ch=8 n=70 v=72
177672 On ch=8 n=63 v=0
177696 On ch=8 n=70 v=0
177696 On ch=8 n=67 v=0
178176 On ch=8 n=65 v=69
178176 On ch=8 n=69 v=69
178176 On ch=8 n=72 v=69
178464 On ch=8 n=72 v=0
178464 On ch=8 n=69 v=0
178464 On ch=8 n=65 v=0
179712 On ch=8 n=69 v=72
179712 On ch=8 n=65 v=72
179712 On ch=8 n=60 v=72
180000 On ch=8 n=60 v=0
180000 On ch=8 n=65 v=0
180000 On ch=8 n=69 v=0
181248 On ch=8 n=70 v=61
181248 On ch=8 n=65 v=61
181248 On ch=8 n=62 v=61
184320 On ch=8 n=62 v=0
184320 On ch=8 n=65 v=0
184320 On ch=8 n=70 v=0
184320 Meta TrkEnd
TrkEnd
MTrk
0 Meta 0x21 00
0 Meta TrkName "crash"
0 PrCh ch=10 p=0
0 Par ch=10 c=7 v=127
0 Par ch=10 c=10 v=35
192 Par ch=10 c=91 v=40
1536 On ch=10 n=49 v=70
1538 On ch=10 n=49 v=0
3072 On ch=10 n=49 v=70
3074 On ch=10 n=49 v=0
4608 On ch=10 n=49 v=70
4610 On ch=10 n=49 v=0
6144 On ch=10 n=49 v=70
6146 On ch=10 n=49 v=0
7680 On ch=10 n=49 v=70
7682 On ch=10 n=49 v=0
13824 On ch=10 n=49 v=70
13826 On ch=10 n=49 v=0
36096 On ch=10 n=49 v=75
36098 On ch=10 n=49 v=0
37632 On ch=10 n=49 v=75
37634 On ch=10 n=49 v=0
39936 On ch=10 n=49 v=70
39938 On ch=10 n=49 v=0
67584 On ch=10 n=49 v=70
67586 On ch=10 n=49 v=0
72192 On ch=10 n=49 v=70
72194 On ch=10 n=49 v=0
73728 On ch=10 n=49 v=70
73730 On ch=10 n=49 v=0
78336 On ch=10 n=49 v=70
78338 On ch=10 n=49 v=0
100608 On ch=10 n=49 v=75
100610 On ch=10 n=49 v=0
102144 On ch=10 n=49 v=75
102146 On ch=10 n=49 v=0
104448 On ch=10 n=49 v=70
104450 On ch=10 n=49 v=0
130560 On ch=10 n=49 v=70
130562 On ch=10 n=49 v=0
156672 On ch=10 n=49 v=98
156674 On ch=10 n=49 v=0
161280 On ch=10 n=49 v=70
161282 On ch=10 n=49 v=0
162816 On ch=10 n=49 v=70
162818 On ch=10 n=49 v=0
164352 On ch=10 n=49 v=70
164354 On ch=10 n=49 v=0
165888 On ch=10 n=49 v=70
165890 On ch=10 n=49 v=0
167424 On ch=10 n=49 v=70
167426 On ch=10 n=49 v=0
168960 On ch=10 n=49 v=70
168962 On ch=10 n=49 v=0
170496 On ch=10 n=49 v=70
170498 On ch=10 n=49 v=0
173568 On ch=10 n=49 v=70
173570 On ch=10 n=49 v=0
175104 On ch=10 n=49 v=70
175106 On ch=10 n=49 v=0
176640 On ch=10 n=49 v=70
176642 On ch=10 n=49 v=0
177408 On ch=10 n=49 v=66
177432 On ch=10 n=49 v=0
178176 On ch=10 n=49 v=70
178178 On ch=10 n=49 v=0
179712 On ch=10 n=49 v=70
179714 On ch=10 n=49 v=0
179714 Meta TrkEnd
TrkEnd
MTrk
0 Meta 0x21 00
0 Meta TrkName "snare"
0 PrCh ch=10 p=0
0 Par ch=10 c=7 v=117
0 Par ch=10 c=10 v=97
192 Par ch=10 c=91 v=40
288 Par ch=10 c=11 v=127
8066 On ch=10 n=40 v=104
8068 On ch=10 n=40 v=0
8832 On ch=10 n=40 v=104
8834 On ch=10 n=40 v=0
9604 On ch=10 n=40 v=104
9606 On ch=10 n=40 v=0
10370 On ch=10 n=40 v=104
10372 On ch=10 n=40 v=0
11140 On ch=10 n=40 v=104
11142 On ch=10 n=40 v=0
11908 On ch=10 n=40 v=104
11910 On ch=10 n=40 v=0
12674 On ch=10 n=40 v=104
12676 On ch=10 n=40 v=0
13252 On ch=10 n=40 v=87
13254 On ch=10 n=40 v=0
13440 On ch=10 n=40 v=104
13442 On ch=10 n=40 v=0
13630 On ch=10 n=40 v=113
13632 On ch=10 n=40 v=0
14208 On ch=10 n=40 v=104
14210 On ch=10 n=40 v=0
14978 On ch=10 n=40 v=104
14980 On ch=10 n=40 v=0
15742 On ch=10 n=40 v=104
15744 On ch=10 n=40 v=0
16514 On ch=10 n=40 v=104
16516 On ch=10 n=40 v=0
17280 On ch=10 n=40 v=104
17282 On ch=10 n=40 v=0
18052 On ch=10 n=40 v=104
18054 On ch=10 n=40 v=0
18818 On ch=10 n=40 v=104
18820 On ch=10 n=40 v=0
19588 On ch=10 n=40 v=104
19590 On ch=10 n=40 v=0
20356 On ch=10 n=40 v=104
20358 On ch=10 n=40 v=0
21122 On ch=10 n=40 v=104
21124 On ch=10 n=40 v=0
21888 On ch=10 n=40 v=104
21890 On ch=10 n=40 v=0
22656 On ch=10 n=40 v=104
22658 On ch=10 n=40 v=0
23426 On ch=10 n=40 v=104
23428 On ch=10 n=40 v=0
24190 On ch=10 n=40 v=104
24192 On ch=10 n=40 v=0
24962 On ch=10 n=40 v=104
24964 On ch=10 n=40 v=0
25728 On ch=10 n=40 v=104
25730 On ch=10 n=40 v=0
26500 On ch=10 n=40 v=104
26502 On ch=10 n=40 v=0
27266 On ch=10 n=40 v=104
27268 On ch=10 n=40 v=0
28036 On ch=10 n=40 v=104
28038 On ch=10 n=40 v=0
28804 On ch=10 n=40 v=104
28806 On ch=10 n=40 v=0
29570 On ch=10 n=40 v=104
29572 On ch=10 n=40 v=0
30336 On ch=10 n=40 v=104
30338 On ch=10 n=40 v=0
31104 On ch=10 n=40 v=104
31106 On ch=10 n=40 v=0
31874 On ch=10 n=40 v=104
31876 On ch=10 n=40 v=0
32638 On ch=10 n=40 v=104
32640 On ch=10 n=40 v=0
33410 On ch=10 n=40 v=104
33412 On ch=10 n=40 v=0
34176 On ch=10 n=40 v=104
34178 On ch=10 n=40 v=0
34948 On ch=10 n=40 v=104
34950 On ch=10 n=40 v=0
35328 On ch=10 n=40 v=113
35330 On ch=10 n=40 v=0
36098 On ch=10 n=40 v=110
36100 On ch=10 n=40 v=0
36862 On ch=10 n=40 v=113
36864 On ch=10 n=40 v=0
37634 On ch=10 n=40 v=110
37636 On ch=10 n=40 v=0
38400 On ch=10 n=40 v=113
38402 On ch=10 n=40 v=0
38784 On ch=10 n=40 v=113
38786 On ch=10 n=40 v=0
39172 On ch=10 n=40 v=110
39174 On ch=10 n=40 v=0
39552 On ch=10 n=40 v=110
39554 On ch=10 n=40 v=0
39938 On ch=10 n=40 v=113
39940 On ch=10 n=40 v=0
40512 On ch=10 n=40 v=84
40514 On ch=10 n=40 v=0
40608 On ch=10 n=40 v=90
40610 On ch=10 n=40 v=0
40708 On ch=10 n=40 v=113
40710 On ch=10 n=40 v=0
40896 On ch=10 n=40 v=113
40898 On ch=10 n=40 v=0
41086 On ch=10 n=40 v=113
41088 On ch=10 n=40 v=0
41284 On ch=10 n=40 v=122
41286 On ch=10 n=40 v=0
41858 On ch=10 n=40 v=104
41860 On ch=10 n=40 v=0
42624 On ch=10 n=40 v=104
42626 On ch=10 n=40 v=0
43396 On ch=10 n=40 v=104
43398 On ch=10 n=40 v=0
44162 On ch=10 n=40 v=104
44164 On ch=10 n=40 v=0
44932 On ch=10 n=40 v=104
44934 On ch=10 n=40 v=0
45700 On ch=10 n=40 v=104
45702 On ch=10 n=40 v=0
46466 On ch=10 n=40 v=104
46468 On ch=10 n=40 v=0
47232 On ch=10 n=40 v=104
47234 On ch=10 n=40 v=0
48000 On ch=10 n=40 v=104
48002 On ch=10 n=40 v=0
48770 On ch=10 n=40 v=104
48772 On ch=10 n=40 v=0
49534 On ch=10 n=40 v=104
49536 On ch=10 n=40 v=0
50306 On ch=10 n=40 v=104
50308 On ch=10 n=40 v=0
51072 On ch=10 n=40 v=104
51074 On ch=10 n=40 v=0
51844 On ch=10 n=40 v=104
51846 On ch=10 n=40 v=0
52610 On ch=10 n=40 v=104
52612 On ch=10 n=40 v=0
53380 On ch=10 n=40 v=104
53382 On ch=10 n=40 v=0
54148 On ch=10 n=40 v=104
54150 On ch=10 n=40 v=0
54914 On ch=10 n=40 v=104
54916 On ch=10 n=40 v=0
55680 On ch=10 n=40 v=104
55682 On ch=10 n=40 v=0
56448 On ch=10 n=40 v=104
56450 On ch=10 n=40 v=0
57218 On ch=10 n=40 v=104
57220 On ch=10 n=40 v=0
57982 On ch=10 n=40 v=104
57984 On ch=10 n=40 v=0
58754 On ch=10 n=40 v=104
58756 On ch=10 n=40 v=0
59520 On ch=10 n=40 v=104
59522 On ch=10 n=40 v=0
60292 On ch=10 n=40 v=104
60294 On ch=10 n=40 v=0
61058 On ch=10 n=40 v=104
61060 On ch=10 n=40 v=0
61828 On ch=10 n=40 v=104
61830 On ch=10 n=40 v=0
62596 On ch=10 n=40 v=104
62598 On ch=10 n=40 v=0
63362 On ch=10 n=40 v=104
63364 On ch=10 n=40 v=0
64128 On ch=10 n=40 v=104
64130 On ch=10 n=40 v=0
64896 On ch=10 n=40 v=104
64898 On ch=10 n=40 v=0
65666 On ch=10 n=40 v=104
65668 On ch=10 n=40 v=0
66430 On ch=10 n=40 v=104
66432 On ch=10 n=40 v=0
67202 On ch=10 n=40 v=104
67204 On ch=10 n=40 v=0
67968 On ch=10 n=40 v=122
67970 On ch=10 n=40 v=0
68352 On ch=10 n=40 v=122
68354 On ch=10 n=40 v=0
68740 On ch=10 n=40 v=119
68742 On ch=10 n=40 v=0
69506 On ch=10 n=40 v=104
69508 On ch=10 n=40 v=0
70276 On ch=10 n=40 v=104
70278 On ch=10 n=40 v=0
71044 On ch=10 n=40 v=104
71046 On ch=10 n=40 v=0
71810 On ch=10 n=40 v=104
71812 On ch=10 n=40 v=0
72576 On ch=10 n=40 v=122
72578 On ch=10 n=40 v=0
72964 On ch=10 n=40 v=122
72966 On ch=10 n=40 v=0
73344 On ch=10 n=40 v=119
73346 On ch=10 n=40 v=0
74114 On ch=10 n=40 v=122
74116 On ch=10 n=40 v=0
74500 On ch=10 n=40 v=122
74502 On ch=10 n=40 v=0
74878 On ch=10 n=40 v=119
74880 On ch=10 n=40 v=0
75650 On ch=10 n=40 v=104
75652 On ch=10 n=40 v=0
76416 On ch=10 n=40 v=104
76418 On ch=10 n=40 v=0
77188 On ch=10 n=40 v=104
77190 On ch=10 n=40 v=0
77954 On ch=10 n=40 v=127
77956 On ch=10 n=40 v=0
78146 On ch=10 n=40 v=119
78148 On ch=10 n=40 v=0
78724 On ch=10 n=40 v=104
78726 On ch=10 n=40 v=0
79492 On ch=10 n=40 v=104
79494 On ch=10 n=40 v=0
80258 On ch=10 n=40 v=104
80260 On ch=10 n=40 v=0
81024 On ch=10 n=40 v=104
81026 On ch=10 n=40 v=0
81792 On ch=10 n=40 v=104
81794 On ch=10 n=40 v=0
82562 On ch=10 n=40 v=104
82564 On ch=10 n=40 v=0
83326 On ch=10 n=40 v=104
83328 On ch=10 n=40 v=0
84098 On ch=10 n=40 v=104
84100 On ch=10 n=40 v=0
84864 On ch=10 n=40 v=104
84866 On ch=10 n=40 v=0
85636 On ch=10 n=40 v=104
85638 On ch=10 n=40 v=0
86402 On ch=10 n=40 v=104
86404 On ch=10 n=40 v=0
87172 On ch=10 n=40 v=104
87174 On ch=10 n=40 v=0
87940 On ch=10 n=40 v=104
87942 On ch=10 n=40 v=0
88706 On ch=10 n=40 v=104
88708 On ch=10 n=40 v=0
89472 On ch=10 n=40 v=104
89474 On ch=10 n=40 v=0
90240 On ch=10 n=40 v=104
90242 On ch=10 n=40 v=0
91010 On ch=10 n=40 v=104
91012 On ch=10 n=40 v=0
91774 On ch=10 n=40 v=104
91776 On ch=10 n=40 v=0
92546 On ch=10 n=40 v=104
92548 On ch=10 n=40 v=0
93312 On ch=10 n=40 v=104
93314 On ch=10 n=40 v=0
94084 On ch=10 n=40 v=104
94086 On ch=10 n=40 v=0
94850 On ch=10 n=40 v=104
94852 On ch=10 n=40 v=0
95620 On ch=10 n=40 v=104
95622 On ch=10 n=40 v=0
96388 On ch=10 n=40 v=104
96390 On ch=10 n=40 v=0
97154 On ch=10 n=40 v=104
97156 On ch=10 n=40 v=0
97920 On ch=10 n=40 v=104
97922 On ch=10 n=40 v=0
98688 On ch=10 n=40 v=104
98690 On ch=10 n=40 v=0
99458 On ch=10 n=40 v=104
99460 On ch=10 n=40 v=0
99844 On ch=10 n=40 v=113
99846 On ch=10 n=40 v=0
100612 On ch=10 n=40 v=110
100614 On ch=10 n=40 v=0
101378 On ch=10 n=40 v=113
101380 On ch=10 n=40 v=0
102144 On ch=10 n=40 v=110
102146 On ch=10 n=40 v=0
102912 On ch=10 n=40 v=113
102914 On ch=10 n=40 v=0
103298 On ch=10 n=40 v=113
103300 On ch=10 n=40 v=0
103682 On ch=10 n=40 v=110
103684 On ch=10 n=40 v=0
104068 On ch=10 n=40 v=110
104070 On ch=10 n=40 v=0
104446 On ch=10 n=40 v=113
104448 On ch=10 n=40 v=0
106756 On ch=10 n=40 v=110
106758 On ch=10 n=40 v=0
108292 On ch=10 n=40 v=110
108294 On ch=10 n=40 v=0
109826 On ch=10 n=40 v=110
109828 On ch=10 n=40 v=0
111360 On ch=10 n=40 v=110
111362 On ch=10 n=40 v=0
112894 On ch=10 n=40 v=110
112896 On ch=10 n=40 v=0
114432 On ch=10 n=40 v=110
114434 On ch=10 n=40 v=0
115970 On ch=10 n=40 v=110
115972 On ch=10 n=40 v=0
117508 On ch=10 n=40 v=110
117510 On ch=10 n=40 v=0
119040 On ch=10 n=40 v=110
119042 On ch=10 n=40 v=0
120578 On ch=10 n=40 v=110
120580 On ch=10 n=40 v=0
122114 On ch=10 n=40 v=110
122116 On ch=10 n=40 v=0
123652 On ch=10 n=40 v=110
123654 On ch=10 n=40 v=0
125188 On ch=10 n=40 v=110
125190 On ch=10 n=40 v=0
126722 On ch=10 n=40 v=110
126724 On ch=10 n=40 v=0
128256 On ch=10 n=40 v=110
128258 On ch=10 n=40 v=0
129790 On ch=10 n=40 v=95
129792 On ch=10 n=40 v=0
129988 On ch=10 n=40 v=107
129990 On ch=10 n=40 v=0
130180 On ch=10 n=40 v=116
130182 On ch=10 n=40 v=0
130368 On ch=10 n=40 v=127
130370 On ch=10 n=40 v=0
130946 On ch=10 n=40 v=104
130948 On ch=10 n=40 v=0
131712 On ch=10 n=40 v=104
131714 On ch=10 n=40 v=0
132480 On ch=10 n=40 v=104
132482 On ch=10 n=40 v=0
133250 On ch=10 n=40 v=104
133252 On ch=10 n=40 v=0
134014 On ch=10 n=40 v=104
134016 On ch=10 n=40 v=0
134786 On ch=10 n=40 v=104
134788 On ch=10 n=40 v=0
135552 On ch=10 n=40 v=104
135554 On ch=10 n=40 v=0
136324 On ch=10 n=40 v=104
136326 On ch=10 n=40 v=0
137090 On ch=10 n=40 v=104
137092 On ch=10 n=40 v=0
137860 On ch=10 n=40 v=104
137862 On ch=10 n=40 v=0
138628 On ch=10 n=40 v=104
138630 On ch=10 n=40 v=0
139394 On ch=10 n=40 v=104
139396 On ch=10 n=40 v=0
140160 On ch=10 n=40 v=104
140162 On ch=10 n=40 v=0
140928 On ch=10 n=40 v=104
140930 On ch=10 n=40 v=0
141698 On ch=10 n=40 v=104
141700 On ch=10 n=40 v=0
142462 On ch=10 n=40 v=104
142464 On ch=10 n=40 v=0
143234 On ch=10 n=40 v=104
143236 On ch=10 n=40 v=0
144000 On ch=10 n=40 v=104
144002 On ch=10 n=40 v=0
144772 On ch=10 n=40 v=104
144774 On ch=10 n=40 v=0
145538 On ch=10 n=40 v=104
145540 On ch=10 n=40 v=0
146308 On ch=10 n=40 v=104
146310 On ch=10 n=40 v=0
147076 On ch=10 n=40 v=104
147078 On ch=10 n=40 v=0
147842 On ch=10 n=40 v=104
147844 On ch=10 n=40 v=0
148608 On ch=10 n=40 v=104
148610 On ch=10 n=40 v=0
149376 On ch=10 n=40 v=104
149378 On ch=10 n=40 v=0
150146 On ch=10 n=40 v=104
150148 On ch=10 n=40 v=0
150910 On ch=10 n=40 v=104
150912 On ch=10 n=40 v=0
151682 On ch=10 n=40 v=104
151684 On ch=10 n=40 v=0
152448 On ch=10 n=40 v=104
152450 On ch=10 n=40 v=0
153220 On ch=10 n=40 v=104
153222 On ch=10 n=40 v=0
153986 On ch=10 n=40 v=104
153988 On ch=10 n=40 v=0
154756 On ch=10 n=40 v=104
154758 On ch=10 n=40 v=0
155524 On ch=10 n=40 v=104
155526 On ch=10 n=40 v=0
156290 On ch=10 n=40 v=104
156292 On ch=10 n=40 v=0
157056 On ch=10 n=40 v=122
157058 On ch=10 n=40 v=0
157444 On ch=10 n=40 v=122
157446 On ch=10 n=40 v=0
157824 On ch=10 n=40 v=119
157826 On ch=10 n=40 v=0
158594 On ch=10 n=40 v=104
158596 On ch=10 n=40 v=0
159358 On ch=10 n=40 v=104
159360 On ch=10 n=40 v=0
160130 On ch=10 n=40 v=104
160132 On ch=10 n=40 v=0
160896 On ch=10 n=40 v=104
160898 On ch=10 n=40 v=0
161668 On ch=10 n=40 v=122
161670 On ch=10 n=40 v=0
162048 On ch=10 n=40 v=122
162050 On ch=10 n=40 v=0
162434 On ch=10 n=40 v=119
162436 On ch=10 n=40 v=0
163204 On ch=10 n=40 v=122
163206 On ch=10 n=40 v=0
163582 On ch=10 n=40 v=122
163584 On ch=10 n=40 v=0
163972 On ch=10 n=40 v=119
163974 On ch=10 n=40 v=0
170304 On ch=10 n=40 v=122
170306 On ch=10 n=40 v=0
170882 On ch=10 n=40 v=104
170884 On ch=10 n=40 v=0
171652 On ch=10 n=40 v=104
171654 On ch=10 n=40 v=0
172420 On ch=10 n=40 v=104
172422 On ch=10 n=40 v=0
173186 On ch=10 n=40 v=104
173188 On ch=10 n=40 v=0
173952 On ch=10 n=40 v=122
173954 On ch=10 n=40 v=0
174340 On ch=10 n=40 v=122
174342 On ch=10 n=40 v=0
174720 On ch=10 n=40 v=119
174722 On ch=10 n=40 v=0
175490 On ch=10 n=40 v=122
175492 On ch=10 n=40 v=0
175876 On ch=10 n=40 v=122
175878 On ch=10 n=40 v=0
176254 On ch=10 n=40 v=119
176256 On ch=10 n=40 v=0
176644 On ch=10 n=40 v=127
176646 On ch=10 n=40 v=0
177410 On ch=10 n=40 v=127
177412 On ch=10 n=40 v=0
178176 On ch=10 n=40 v=127
178178 On ch=10 n=40 v=0
179714 On ch=10 n=40 v=127
179716 On ch=10 n=40 v=0
179716 Meta TrkEnd
TrkEnd
MTrk
0 Meta 0x21 00
0 Meta TrkName "hi hat"
0 On ch=10 n=42 v=127
2 On ch=10 n=42 v=0
96 PrCh ch=10 p=0
192 Par ch=10 c=7 v=126
192 Par ch=10 c=10 v=64
192 Par ch=10 c=91 v=16
384 On ch=10 n=42 v=127
386 On ch=10 n=42 v=0
768 On ch=10 n=42 v=127
770 On ch=10 n=42 v=0
1152 On ch=10 n=42 v=122
1154 On ch=10 n=42 v=0
1536 On ch=10 n=42 v=127
1538 On ch=10 n=42 v=0
1922 On ch=10 n=42 v=125
1924 On ch=10 n=42 v=0
2306 On ch=10 n=42 v=125
2308 On ch=10 n=42 v=0
2692 On ch=10 n=42 v=122
2694 On ch=10 n=42 v=0
3070 On ch=10 n=42 v=127
3072 On ch=10 n=42 v=0
3460 On ch=10 n=42 v=125
3462 On ch=10 n=42 v=0
3842 On ch=10 n=42 v=125
3844 On ch=10 n=42 v=0
4226 On ch=10 n=42 v=122
4228 On ch=10 n=42 v=0
4608 On ch=10 n=42 v=127
4610 On ch=10 n=42 v=0
4992 On ch=10 n=42 v=125
4994 On ch=10 n=42 v=0
5380 On ch=10 n=42 v=125
5382 On ch=10 n=42 v=0
5760 On ch=10 n=42 v=122
5762 On ch=10 n=42 v=0
6146 On ch=10 n=42 v=127
6148 On ch=10 n=42 v=0
6530 On ch=10 n=42 v=125
6532 On ch=10 n=42 v=0
6916 On ch=10 n=42 v=125
6918 On ch=10 n=42 v=0
7294 On ch=10 n=42 v=122
7296 On ch=10 n=42 v=0
7684 On ch=10 n=44 v=107
7686 On ch=10 n=44 v=0
7872 On ch=10 n=44 v=107
7874 On ch=10 n=44 v=0
8066 On ch=10 n=44 v=107
8068 On ch=10 n=44 v=0
8258 On ch=10 n=44 v=104
8260 On ch=10 n=44 v=0
8450 On ch=10 n=44 v=104
8452 On ch=10 n=44 v=0
8642 On ch=10 n=44 v=104
8644 On ch=10 n=44 v=0
8832 On ch=10 n=44 v=104
8834 On ch=10 n=44 v=0
9028 On ch=10 n=44 v=104
9030 On ch=10 n=44 v=0
9216 On ch=10 n=44 v=107
9218 On ch=10 n=44 v=0
9406 On ch=10 n=44 v=107
9408 On ch=10 n=44 v=0
9604 On ch=10 n=44 v=107
9606 On ch=10 n=44 v=0
9796 On ch=10 n=44 v=104
9798 On ch=10 n=44 v=0
9984 On ch=10 n=44 v=104
9986 On ch=10 n=44 v=0
10178 On ch=10 n=44 v=104
10180 On ch=10 n=44 v=0
10370 On ch=10 n=44 v=104
10372 On ch=10 n=44 v=0
10562 On ch=10 n=44 v=104
10564 On ch=10 n=44 v=0
10754 On ch=10 n=44 v=107
10756 On ch=10 n=44 v=0
10944 On ch=10 n=44 v=107
10946 On ch=10 n=44 v=0
11140 On ch=10 n=44 v=107
11142 On ch=10 n=44 v=0
11328 On ch=10 n=44 v=104
11330 On ch=10 n=44 v=0
11518 On ch=10 n=44 v=104
11520 On ch=10 n=44 v=0
11716 On ch=10 n=44 v=104
11718 On ch=10 n=44 v=0
11908 On ch=10 n=44 v=104
11910 On ch=10 n=44 v=0
12096 On ch=10 n=44 v=104
12098 On ch=10 n=44 v=0
12290 On ch=10 n=44 v=107
12292 On ch=10 n=44 v=0
12482 On ch=10 n=44 v=107
12484 On ch=10 n=44 v=0
12674 On ch=10 n=44 v=107
12676 On ch=10 n=44 v=0
12866 On ch=10 n=44 v=104
12868 On ch=10 n=44 v=0
13056 On ch=10 n=44 v=104
13058 On ch=10 n=44 v=0
13252 On ch=10 n=44 v=104
13254 On ch=10 n=44 v=0
13440 On ch=10 n=44 v=104
13442 On ch=10 n=44 v=0
13630 On ch=10 n=44 v=104
13632 On ch=10 n=44 v=0
13828 On ch=10 n=44 v=107
13830 On ch=10 n=44 v=0
14020 On ch=10 n=44 v=107
14022 On ch=10 n=44 v=0
14208 On ch=10 n=44 v=107
14210 On ch=10 n=44 v=0
14402 On ch=10 n=44 v=104
14404 On ch=10 n=44 v=0
14594 On ch=10 n=44 v=104
14596 On ch=10 n=44 v=0
14786 On ch=10 n=44 v=104
14788 On ch=10 n=44 v=0
14978 On ch=10 n=44 v=104
14980 On ch=10 n=44 v=0
15168 On ch=10 n=44 v=104
15170 On ch=10 n=44 v=0
15364 On ch=10 n=44 v=107
15366 On ch=10 n=44 v=0
15552 On ch=10 n=44 v=107
15554 On ch=10 n=44 v=0
15742 On ch=10 n=44 v=107
15744 On ch=10 n=44 v=0
15940 On ch=10 n=44 v=104
15942 On ch=10 n=44 v=0
16132 On ch=10 n=44 v=104
16134 On ch=10 n=44 v=0
16320 On ch=10 n=44 v=104
16322 On ch=10 n=44 v=0
16514 On ch=10 n=44 v=104
16516 On ch=10 n=44 v=0
16706 On ch=10 n=44 v=104
16708 On ch=10 n=44 v=0
16898 On ch=10 n=44 v=107
16900 On ch=10 n=44 v=0
17090 On ch=10 n=44 v=107
17092 On ch=10 n=44 v=0
17280 On ch=10 n=44 v=107
17282 On ch=10 n=44 v=0
17476 On ch=10 n=44 v=104
17478 On ch=10 n=44 v=0
17664 On ch=10 n=44 v=104
17666 On ch=10 n=44 v=0
17854 On ch=10 n=44 v=104
17856 On ch=10 n=44 v=0
18052 On ch=10 n=44 v=104
18054 On ch=10 n=44 v=0
18244 On ch=10 n=44 v=104
18246 On ch=10 n=44 v=0
18432 On ch=10 n=44 v=107
18434 On ch=10 n=44 v=0
18626 On ch=10 n=44 v=107
18628 On ch=10 n=44 v=0
18818 On ch=10 n=44 v=107
18820 On ch=10 n=44 v=0
19010 On ch=10 n=44 v=104
19012 On ch=10 n=44 v=0
19202 On ch=10 n=44 v=104
19204 On ch=10 n=44 v=0
19392 On ch=10 n=44 v=104
19394 On ch=10 n=44 v=0
19588 On ch=10 n=44 v=104
19590 On ch=10 n=44 v=0
19776 On ch=10 n=44 v=104
19778 On ch=10 n=44 v=0
19966 On ch=10 n=44 v=107
19968 On ch=10 n=44 v=0
20164 On ch=10 n=44 v=107
20166 On ch=10 n=44 v=0
20356 On ch=10 n=44 v=107
20358 On ch=10 n=44 v=0
20544 On ch=10 n=44 v=104
20546 On ch=10 n=44 v=0
20738 On ch=10 n=44 v=104
20740 On ch=10 n=44 v=0
20930 On ch=10 n=44 v=104
20932 On ch=10 n=44 v=0
21122 On ch=10 n=44 v=104
21124 On ch=10 n=44 v=0
21314 On ch=10 n=44 v=104
21316 On ch=10 n=44 v=0
21504 On ch=10 n=44 v=107
21506 On ch=10 n=44 v=0
21700 On ch=10 n=44 v=107
21702 On ch=10 n=44 v=0
21888 On ch=10 n=44 v=107
21890 On ch=10 n=44 v=0
22078 On ch=10 n=44 v=104
22080 On ch=10 n=44 v=0
22276 On ch=10 n=44 v=104
22278 On ch=10 n=44 v=0
22468 On ch=10 n=44 v=104
22470 On ch=10 n=44 v=0
22656 On ch=10 n=44 v=104
22658 On ch=10 n=44 v=0
22850 On ch=10 n=44 v=104
22852 On ch=10 n=44 v=0
23042 On ch=10 n=44 v=107
23044 On ch=10 n=44 v=0
23234 On ch=10 n=44 v=107
23236 On ch=10 n=44 v=0
23426 On ch=10 n=44 v=107
23428 On ch=10 n=44 v=0
23616 On ch=10 n=44 v=104
23618 On ch=10 n=44 v=0
23812 On ch=10 n=44 v=104
23814 On ch=10 n=44 v=0
24000 On ch=10 n=44 v=104
24002 On ch=10 n=44 v=0
24190 On ch=10 n=44 v=104
24192 On ch=10 n=44 v=0
24388 On ch=10 n=44 v=104
24390 On ch=10 n=44 v=0
24580 On ch=10 n=44 v=107
24582 On ch=10 n=44 v=0
24768 On ch=10 n=44 v=107
24770 On ch=10 n=44 v=0
24962 On ch=10 n=44 v=107
24964 On ch=10 n=44 v=0
25154 On ch=10 n=44 v=104
25156 On ch=10 n=44 v=0
25346 On ch=10 n=44 v=104
25348 On ch=10 n=44 v=0
25538 On ch=10 n=44 v=104
25540 On ch=10 n=44 v=0
25728 On ch=10 n=44 v=104
25730 On ch=10 n=44 v=0
25924 On ch=10 n=44 v=104
25926 On ch=10 n=44 v=0
26112 On ch=10 n=44 v=107
26114 On ch=10 n=44 v=0
26302 On ch=10 n=44 v=107
26304 On ch=10 n=44 v=0
26500 On ch=10 n=44 v=107
26502 On ch=10 n=44 v=0
26692 On ch=10 n=44 v=104
26694 On ch=10 n=44 v=0
26880 On ch=10 n=44 v=104
26882 On ch=10 n=44 v=0
27074 On ch=10 n=44 v=104
27076 On ch=10 n=44 v=0
27266 On ch=10 n=44 v=104
27268 On ch=10 n=44 v=0
27458 On ch=10 n=44 v=104
27460 On ch=10 n=44 v=0
27650 On ch=10 n=44 v=107
27652 On ch=10 n=44 v=0
27840 On ch=10 n=44 v=107
27842 On ch=10 n=44 v=0
28036 On ch=10 n=44 v=107
28038 On ch=10 n=44 v=0
28224 On ch=10 n=44 v=104
28226 On ch=10 n=44 v=0
28414 On ch=10 n=44 v=104
28416 On ch=10 n=44 v=0
28612 On ch=10 n=44 v=104
28614 On ch=10 n=44 v=0
28804 On ch=10 n=44 v=104
28806 On ch=10 n=44 v=0
28992 On ch=10 n=44 v=104
28994 On ch=10 n=44 v=0
29186 On ch=10 n=44 v=107
29188 On ch=10 n=44 v=0
29378 On ch=10 n=44 v=107
29380 On ch=10 n=44 v=0
29570 On ch=10 n=44 v=107
29572 On ch=10 n=44 v=0
29762 On ch=10 n=44 v=104
29764 On ch=10 n=44 v=0
29952 On ch=10 n=44 v=104
29954 On ch=10 n=44 v=0
30148 On ch=10 n=44 v=104
30150 On ch=10 n=44 v=0
30336 On ch=10 n=44 v=104
30338 On ch=10 n=44 v=0
30526 On ch=10 n=44 v=104
30528 On ch=10 n=44 v=0
30724 On ch=10 n=44 v=107
30726 On ch=10 n=44 v=0
30916 On ch=10 n=44 v=107
30918 On ch=10 n=44 v=0
31104 On ch=10 n=44 v=107
31106 On ch=10 n=44 v=0
31298 On ch=10 n=44 v=104
31300 On ch=10 n=44 v=0
31490 On ch=10 n=44 v=104
31492 On ch=10 n=44 v=0
31682 On ch=10 n=44 v=104
31684 On ch=10 n=44 v=0
31874 On ch=10 n=44 v=104
31876 On ch=10 n=44 v=0
32064 On ch=10 n=44 v=104
32066 On ch=10 n=44 v=0
32260 On ch=10 n=44 v=107
32262 On ch=10 n=44 v=0
32448 On ch=10 n=44 v=107
32450 On ch=10 n=44 v=0
32638 On ch=10 n=44 v=107
32640 On ch=10 n=44 v=0
32836 On ch=10 n=44 v=104
32838 On ch=10 n=44 v=0
33028 On ch=10 n=44 v=104
33030 On ch=10 n=44 v=0
33216 On ch=10 n=44 v=104
33218 On ch=10 n=44 v=0
33410 On ch=10 n=44 v=104
33412 On ch=10 n=44 v=0
33602 On ch=10 n=44 v=104
33604 On ch=10 n=44 v=0
33794 On ch=10 n=44 v=107
33796 On ch=10 n=44 v=0
33986 On ch=10 n=44 v=107
33988 On ch=10 n=44 v=0
34176 On ch=10 n=44 v=107
34178 On ch=10 n=44 v=0
34372 On ch=10 n=44 v=104
34374 On ch=10 n=44 v=0
34560 On ch=10 n=44 v=104
34562 On ch=10 n=44 v=0
34750 On ch=10 n=44 v=104
34752 On ch=10 n=44 v=0
34948 On ch=10 n=44 v=104
34950 On ch=10 n=44 v=0
35140 On ch=10 n=44 v=104
35142 On ch=10 n=44 v=0
35328 On ch=10 n=44 v=104
35330 On ch=10 n=44 v=0
35714 On ch=10 n=44 v=98
35716 On ch=10 n=44 v=0
36098 On ch=10 n=44 v=95
36100 On ch=10 n=44 v=0
36484 On ch=10 n=44 v=98
36486 On ch=10 n=44 v=0
36862 On ch=10 n=44 v=104
36864 On ch=10 n=44 v=0
37252 On ch=10 n=44 v=98
37254 On ch=10 n=44 v=0
37634 On ch=10 n=44 v=95
37636 On ch=10 n=44 v=0
38018 On ch=10 n=44 v=98
38020 On ch=10 n=44 v=0
38400 On ch=10 n=44 v=104
38402 On ch=10 n=44 v=0
38784 On ch=10 n=44 v=98
38786 On ch=10 n=44 v=0
39172 On ch=10 n=44 v=95
39174 On ch=10 n=44 v=0
39552 On ch=10 n=44 v=98
39554 On ch=10 n=44 v=0
39938 On ch=10 n=44 v=104
39940 On ch=10 n=44 v=0
40322 On ch=10 n=44 v=98
40324 On ch=10 n=44 v=0
40708 On ch=10 n=44 v=95
40710 On ch=10 n=44 v=0
41086 On ch=10 n=44 v=98
41088 On ch=10 n=44 v=0
41476 On ch=10 n=44 v=107
41478 On ch=10 n=44 v=0
41664 On ch=10 n=44 v=107
41666 On ch=10 n=44 v=0
41858 On ch=10 n=44 v=107
41860 On ch=10 n=44 v=0
42050 On ch=10 n=44 v=104
42052 On ch=10 n=44 v=0
42242 On ch=10 n=44 v=104
42244 On ch=10 n=44 v=0
42434 On ch=10 n=44 v=104
42436 On ch=10 n=44 v=0
42624 On ch=10 n=44 v=104
42626 On ch=10 n=44 v=0
42820 On ch=10 n=44 v=104
42822 On ch=10 n=44 v=0
43008 On ch=10 n=44 v=107
43010 On ch=10 n=44 v=0
43198 On ch=10 n=44 v=107
43200 On ch=10 n=44 v=0
43396 On ch=10 n=44 v=107
43398 On ch=10 n=44 v=0
43588 On ch=10 n=44 v=104
43590 On ch=10 n=44 v=0
43776 On ch=10 n=44 v=104
43778 On ch=10 n=44 v=0
43970 On ch=10 n=44 v=104
43972 On ch=10 n=44 v=0
44162 On ch=10 n=44 v=104
44164 On ch=10 n=44 v=0
44354 On ch=10 n=44 v=104
44356 On ch=10 n=44 v=0
44546 On ch=10 n=44 v=107
44548 On ch=10 n=44 v=0
44736 On ch=10 n=44 v=107
44738 On ch=10 n=44 v=0
44932 On ch=10 n=44 v=107
44934 On ch=10 n=44 v=0
45120 On ch=10 n=44 v=104
45122 On ch=10 n=44 v=0
45310 On ch=10 n=44 v=104
45312 On ch=10 n=44 v=0
45508 On ch=10 n=44 v=104
45510 On ch=10 n=44 v=0
45700 On ch=10 n=44 v=104
45702 On ch=10 n=44 v=0
45888 On ch=10 n=44 v=104
45890 On ch=10 n=44 v=0
46082 On ch=10 n=44 v=107
46084 On ch=10 n=44 v=0
46274 On ch=10 n=44 v=107
46276 On ch=10 n=44 v=0
46466 On ch=10 n=44 v=107
46468 On ch=10 n=44 v=0
46658 On ch=10 n=44 v=104
46660 On ch=10 n=44 v=0
46848 On ch=10 n=44 v=104
46850 On ch=10 n=44 v=0
47044 On ch=10 n=44 v=104
47046 On ch=10 n=44 v=0
47232 On ch=10 n=44 v=104
47234 On ch=10 n=44 v=0
47422 On ch=10 n=44 v=104
47424 On ch=10 n=44 v=0
47620 On ch=10 n=44 v=107
47622 On ch=10 n=44 v=0
47812 On ch=10 n=44 v=107
47814 On ch=10 n=44 v=0
48000 On ch=10 n=44 v=107
48002 On ch=10 n=44 v=0
48194 On ch=10 n=44 v=104
48196 On ch=10 n=44 v=0
48386 On ch=10 n=44 v=104
48388 On ch=10 n=44 v=0
48578 On ch=10 n=44 v=104
48580 On ch=10 n=44 v=0
48770 On ch=10 n=44 v=104
48772 On ch=10 n=44 v=0
48960 On ch=10 n=44 v=104
48962 On ch=10 n=44 v=0
49156 On ch=10 n=44 v=107
49158 On ch=10 n=44 v=0
49344 On ch=10 n=44 v=107
49346 On ch=10 n=44 v=0
49534 On ch=10 n=44 v=107
49536 On ch=10 n=44 v=0
49732 On ch=10 n=44 v=104
49734 On ch=10 n=44 v=0
49924 On ch=10 n=44 v=104
49926 On ch=10 n=44 v=0
50112 On ch=10 n=44 v=104
50114 On ch=10 n=44 v=0
50306 On ch=10 n=44 v=104
50308 On ch=10 n=44 v=0
50498 On ch=10 n=44 v=104
50500 On ch=10 n=44 v=0
50690 On ch=10 n=44 v=107
50692 On ch=10 n=44 v=0
50882 On ch=10 n=44 v=107
50884 On ch=10 n=44 v=0
51072 On ch=10 n=44 v=107
51074 On ch=10 n=44 v=0
51268 On ch=10 n=44 v=104
51270 On ch=10 n=44 v=0
51456 On ch=10 n=44 v=104
51458 On ch=10 n=44 v=0
51646 On ch=10 n=44 v=104
51648 On ch=10 n=44 v=0
51844 On ch=10 n=44 v=104
51846 On ch=10 n=44 v=0
52036 On ch=10 n=44 v=104
52038 On ch=10 n=44 v=0
52224 On ch=10 n=44 v=107
52226 On ch=10 n=44 v=0
52418 On ch=10 n=44 v=107
52420 On ch=10 n=44 v=0
52610 On ch=10 n=44 v=107
52612 On ch=10 n=44 v=0
52802 On ch=10 n=44 v=104
52804 On ch=10 n=44 v=0
52994 On ch=10 n=44 v=104
52996 On ch=10 n=44 v=0
53184 On ch=10 n=44 v=104
53186 On ch=10 n=44 v=0
53380 On ch=10 n=44 v=104
53382 On ch=10 n=44 v=0
53568 On ch=10 n=44 v=104
53570 On ch=10 n=44 v=0
53758 On ch=10 n=44 v=107
53760 On ch=10 n=44 v=0
53956 On ch=10 n=44 v=107
53958 On ch=10 n=44 v=0
54148 On ch=10 n=44 v=107
54150 On ch=10 n=44 v=0
54336 On ch=10 n=44 v=104
54338 On ch=10 n=44 v=0
54530 On ch=10 n=44 v=104
54532 On ch=10 n=44 v=0
54722 On ch=10 n=44 v=104
54724 On ch=10 n=44 v=0
54914 On ch=10 n=44 v=104
54916 On ch=10 n=44 v=0
55106 On ch=10 n=44 v=104
55108 On ch=10 n=44 v=0
55296 On ch=10 n=44 v=107
55298 On ch=10 n=44 v=0
55492 On ch=10 n=44 v=107
55494 On ch=10 n=44 v=0
55680 On ch=10 n=44 v=107
55682 On ch=10 n=44 v=0
55870 On ch=10 n=44 v=104
55872 On ch=10 n=44 v=0
56068 On ch=10 n=44 v=104
56070 On ch=10 n=44 v=0
56260 On ch=10 n=44 v=104
56262 On ch=10 n=44 v=0
56448 On ch=10 n=44 v=104
56450 On ch=10 n=44 v=0
56642 On ch=10 n=44 v=104
56644 On ch=10 n=44 v=0
56834 On ch=10 n=44 v=107
56836 On ch=10 n=44 v=0
57026 On ch=10 n=44 v=107
57028 On ch=10 n=44 v=0
57218 On ch=10 n=44 v=107
57220 On ch=10 n=44 v=0
57408 On ch=10 n=44 v=104
57410 On ch=10 n=44 v=0
57604 On ch=10 n=44 v=104
57606 On ch=10 n=44 v=0
57792 On ch=10 n=44 v=104
57794 On ch=10 n=44 v=0
57982 On ch=10 n=44 v=104
57984 On ch=10 n=44 v=0
58180 On ch=10 n=44 v=104
58182 On ch=10 n=44 v=0
58372 On ch=10 n=44 v=107
58374 On ch=10 n=44 v=0
58560 On ch=10 n=44 v=107
58562 On ch=10 n=44 v=0
58754 On ch=10 n=44 v=107
58756 On ch=10 n=44 v=0
58946 On ch=10 n=44 v=104
58948 On ch=10 n=44 v=0
59138 On ch=10 n=44 v=104
59140 On ch=10 n=44 v=0
59330 On ch=10 n=44 v=104
59332 On ch=10 n=44 v=0
59520 On ch=10 n=44 v=104
59522 On ch=10 n=44 v=0
59716 On ch=10 n=44 v=104
59718 On ch=10 n=44 v=0
59904 On ch=10 n=44 v=107
59906 On ch=10 n=44 v=0
60094 On ch=10 n=44 v=107
60096 On ch=10 n=44 v=0
60292 On ch=10 n=44 v=107
60294 On ch=10 n=44 v=0
60484 On ch=10 n=44 v=104
60486 On ch=10 n=44 v=0
60672 On ch=10 n=44 v=104
60674 On ch=10 n=44 v=0
60866 On ch=10 n=44 v=104
60868 On ch=10 n=44 v=0
61058 On ch=10 n=44 v=104
61060 On ch=10 n=44 v=0
61250 On ch=10 n=44 v=104
61252 On ch=10 n=44 v=0
61442 On ch=10 n=44 v=107
61444 On ch=10 n=44 v=0
61632 On ch=10 n=44 v=107
61634 On ch=10 n=44 v=0
61828 On ch=10 n=44 v=107
61830 On ch=10 n=44 v=0
62016 On ch=10 n=44 v=104
62018 On ch=10 n=44 v=0
62206 On ch=10 n=44 v=104
62208 On ch=10 n=44 v=0
62404 On ch=10 n=44 v=104
62406 On ch=10 n=44 v=0
62596 On ch=10 n=44 v=104
62598 On ch=10 n=44 v=0
62784 On ch=10 n=44 v=104
62786 On ch=10 n=44 v=0
62978 On ch=10 n=44 v=107
62980 On ch=10 n=44 v=0
63170 On ch=10 n=44 v=107
63172 On ch=10 n=44 v=0
63362 On ch=10 n=44 v=107
63364 On ch=10 n=44 v=0
63554 On ch=10 n=44 v=104
63556 On ch=10 n=44 v=0
63744 On ch=10 n=44 v=104
63746 On ch=10 n=44 v=0
63940 On ch=10 n=44 v=104
63942 On ch=10 n=44 v=0
64128 On ch=10 n=44 v=104
64130 On ch=10 n=44 v=0
64318 On ch=10 n=44 v=104
64320 On ch=10 n=44 v=0
64516 On ch=10 n=44 v=107
64518 On ch=10 n=44 v=0
64708 On ch=10 n=44 v=107
64710 On ch=10 n=44 v=0
64896 On ch=10 n=44 v=107
64898 On ch=10 n=44 v=0
65090 On ch=10 n=44 v=104
65092 On ch=10 n=44 v=0
65282 On ch=10 n=44 v=104
65284 On ch=10 n=44 v=0
65474 On ch=10 n=44 v=104
65476 On ch=10 n=44 v=0
65666 On ch=10 n=44 v=104
65668 On ch=10 n=44 v=0
65856 On ch=10 n=44 v=104
65858 On ch=10 n=44 v=0
66052 On ch=10 n=44 v=107
66054 On ch=10 n=44 v=0
66240 On ch=10 n=44 v=107
66242 On ch=10 n=44 v=0
66430 On ch=10 n=44 v=107
66432 On ch=10 n=44 v=0
66628 On ch=10 n=44 v=104
66630 On ch=10 n=44 v=0
66820 On ch=10 n=44 v=104
66822 On ch=10 n=44 v=0
67008 On ch=10 n=44 v=104
67010 On ch=10 n=44 v=0
67202 On ch=10 n=44 v=104
67204 On ch=10 n=44 v=0
67394 On ch=10 n=44 v=104
67396 On ch=10 n=44 v=0
67586 On ch=10 n=44 v=107
67588 On ch=10 n=44 v=0
67968 On ch=10 n=44 v=107
67970 On ch=10 n=44 v=0
68352 On ch=10 n=44 v=104
68354 On ch=10 n=44 v=0
68740 On ch=10 n=44 v=104
68742 On ch=10 n=44 v=0
69120 On ch=10 n=44 v=107
69122 On ch=10 n=44 v=0
69314 On ch=10 n=44 v=107
69316 On ch=10 n=44 v=0
69506 On ch=10 n=44 v=107
69508 On ch=10 n=44 v=0
69698 On ch=10 n=44 v=104
69700 On ch=10 n=44 v=0
69890 On ch=10 n=44 v=104
69892 On ch=10 n=44 v=0
70080 On ch=10 n=44 v=104
70082 On ch=10 n=44 v=0
70276 On ch=10 n=44 v=104
70278 On ch=10 n=44 v=0
70464 On ch=10 n=44 v=104
70466 On ch=10 n=44 v=0
70654 On ch=10 n=44 v=107
70656 On ch=10 n=44 v=0
70852 On ch=10 n=44 v=107
70854 On ch=10 n=44 v=0
71044 On ch=10 n=44 v=107
71046 On ch=10 n=44 v=0
71232 On ch=10 n=44 v=104
71234 On ch=10 n=44 v=0
71426 On ch=10 n=44 v=104
71428 On ch=10 n=44 v=0
71618 On ch=10 n=44 v=104
71620 On ch=10 n=44 v=0
71810 On ch=10 n=44 v=104
71812 On ch=10 n=44 v=0
72002 On ch=10 n=44 v=104
72004 On ch=10 n=44 v=0
72192 On ch=10 n=44 v=107
72194 On ch=10 n=44 v=0
72576 On ch=10 n=44 v=107
72578 On ch=10 n=44 v=0
72964 On ch=10 n=44 v=104
72966 On ch=10 n=44 v=0
73344 On ch=10 n=44 v=104
73346 On ch=10 n=44 v=0
73730 On ch=10 n=44 v=107
73732 On ch=10 n=44 v=0
74114 On ch=10 n=44 v=107
74116 On ch=10 n=44 v=0
74500 On ch=10 n=44 v=104
74502 On ch=10 n=44 v=0
74878 On ch=10 n=44 v=104
74880 On ch=10 n=44 v=0
75268 On ch=10 n=44 v=107
75270 On ch=10 n=44 v=0
75456 On ch=10 n=44 v=107
75458 On ch=10 n=44 v=0
75650 On ch=10 n=44 v=107
75652 On ch=10 n=44 v=0
75842 On ch=10 n=44 v=104
75844 On ch=10 n=44 v=0
76034 On ch=10 n=44 v=104
76036 On ch=10 n=44 v=0
76226 On ch=10 n=44 v=104
76228 On ch=10 n=44 v=0
76416 On ch=10 n=44 v=104
76418 On ch=10 n=44 v=0
76612 On ch=10 n=44 v=104
76614 On ch=10 n=44 v=0
76800 On ch=10 n=44 v=107
76802 On ch=10 n=44 v=0
76990 On ch=10 n=44 v=107
76992 On ch=10 n=44 v=0
77188 On ch=10 n=44 v=107
77190 On ch=10 n=44 v=0
77380 On ch=10 n=44 v=104
77382 On ch=10 n=44 v=0
77568 On ch=10 n=44 v=104
77570 On ch=10 n=44 v=0
77762 On ch=10 n=44 v=104
77764 On ch=10 n=44 v=0
77954 On ch=10 n=44 v=104
77956 On ch=10 n=44 v=0
78146 On ch=10 n=44 v=104
78148 On ch=10 n=44 v=0
78338 On ch=10 n=44 v=107
78340 On ch=10 n=44 v=0
78528 On ch=10 n=44 v=107
78530 On ch=10 n=44 v=0
78724 On ch=10 n=44 v=107
78726 On ch=10 n=44 v=0
78912 On ch=10 n=44 v=104
78914 On ch=10 n=44 v=0
79102 On ch=10 n=44 v=104
79104 On ch=10 n=44 v=0
79300 On ch=10 n=44 v=104
79302 On ch=10 n=44 v=0
79492 On ch=10 n=44 v=104
79494 On ch=10 n=44 v=0
79680 On ch=10 n=44 v=104
79682 On ch=10 n=44 v=0
79874 On ch=10 n=44 v=107
79876 On ch=10 n=44 v=0
80066 On ch=10 n=44 v=107
80068 On ch=10 n=44 v=0
80258 On ch=10 n=44 v=107
80260 On ch=10 n=44 v=0
80450 On ch=10 n=44 v=104
80452 On ch=10 n=44 v=0
80640 On ch=10 n=44 v=104
80642 On ch=10 n=44 v=0
80836 On ch=10 n=44 v=104
80838 On ch=10 n=44 v=0
81024 On ch=10 n=44 v=104
81026 On ch=10 n=44 v=0
81214 On ch=10 n=44 v=104
81216 On ch=10 n=44 v=0
81412 On ch=10 n=44 v=107
81414 On ch=10 n=44 v=0
81604 On ch=10 n=44 v=107
81606 On ch=10 n=44 v=0
81792 On ch=10 n=44 v=107
81794 On ch=10 n=44 v=0
81986 On ch=10 n=44 v=104
81988 On ch=10 n=44 v=0
82178 On ch=10 n=44 v=104
82180 On ch=10 n=44 v=0
82370 On ch=10 n=44 v=104
82372 On ch=10 n=44 v=0
82562 On ch=10 n=44 v=104
82564 On ch=10 n=44 v=0
82752 On ch=10 n=44 v=104
82754 On ch=10 n=44 v=0
82948 On ch=10 n=44 v=107
82950 On ch=10 n=44 v=0
83136 On ch=10 n=44 v=107
83138 On ch=10 n=44 v=0
83326 On ch=10 n=44 v=107
83328 On ch=10 n=44 v=0
83524 On ch=10 n=44 v=104
83526 On ch=10 n=44 v=0
83716 On ch=10 n=44 v=104
83718 On ch=10 n=44 v=0
83904 On ch=10 n=44 v=104
83906 On ch=10 n=44 v=0
84098 On ch=10 n=44 v=104
84100 On ch=10 n=44 v=0
84290 On ch=10 n=44 v=104
84292 On ch=10 n=44 v=0
84482 On ch=10 n=44 v=107
84484 On ch=10 n=44 v=0
84674 On ch=10 n=44 v=107
84676 On ch=10 n=44 v=0
84864 On ch=10 n=44 v=107
84866 On ch=10 n=44 v=0
85060 On ch=10 n=44 v=104
85062 On ch=10 n=44 v=0
85248 On ch=10 n=44 v=104
85250 On ch=10 n=44 v=0
85438 On ch=10 n=44 v=104
85440 On ch=10 n=44 v=0
85636 On ch=10 n=44 v=104
85638 On ch=10 n=44 v=0
85828 On ch=10 n=44 v=104
85830 On ch=10 n=44 v=0
86016 On ch=10 n=44 v=107
86018 On ch=10 n=44 v=0
86210 On ch=10 n=44 v=107
86212 On ch=10 n=44 v=0
86402 On ch=10 n=44 v=107
86404 On ch=10 n=44 v=0
86594 On ch=10 n=44 v=104
86596 On ch=10 n=44 v=0
86786 On ch=10 n=44 v=104
86788 On ch=10 n=44 v=0
86976 On ch=10 n=44 v=104
86978 On ch=10 n=44 v=0
87172 On ch=10 n=44 v=104
87174 On ch=10 n=44 v=0
87360 On ch=10 n=44 v=104
87362 On ch=10 n=44 v=0
87550 On ch=10 n=44 v=107
87552 On ch=10 n=44 v=0
87748 On ch=10 n=44 v=107
87750 On ch=10 n=44 v=0
87940 On ch=10 n=44 v=107
87942 On ch=10 n=44 v=0
88128 On ch=10 n=44 v=104
88130 On ch=10 n=44 v=0
88322 On ch=10 n=44 v=104
88324 On ch=10 n=44 v=0
88514 On ch=10 n=44 v=104
88516 On ch=10 n=44 v=0
88706 On ch=10 n=44 v=104
88708 On ch=10 n=44 v=0
88898 On ch=10 n=44 v=104
88900 On ch=10 n=44 v=0
89088 On ch=10 n=44 v=107
89090 On ch=10 n=44 v=0
89284 On ch=10 n=44 v=107
89286 On ch=10 n=44 v=0
89472 On ch=10 n=44 v=107
89474 On ch=10 n=44 v=0
89662 On ch=10 n=44 v=104
89664 On ch=10 n=44 v=0
89860 On ch=10 n=44 v=104
89862 On ch=10 n=44 v=0
90052 On ch=10 n=44 v=104
90054 On ch=10 n=44 v=0
90240 On ch=10 n=44 v=104
90242 On ch=10 n=44 v=0
90434 On ch=10 n=44 v=104
90436 On ch=10 n=44 v=0
90626 On ch=10 n=44 v=107
90628 On ch=10 n=44 v=0
90818 On ch=10 n=44 v=107
90820 On ch=10 n=44 v=0
91010 On ch=10 n=44 v=107
91012 On ch=10 n=44 v=0
91200 On ch=10 n=44 v=104
91202 On ch=10 n=44 v=0
91396 On ch=10 n=44 v=104
91398 On ch=10 n=44 v=0
91584 On ch=10 n=44 v=104
91586 On ch=10 n=44 v=0
91774 On ch=10 n=44 v=104
91776 On ch=10 n=44 v=0
91972 On ch=10 n=44 v=104
91974 On ch=10 n=44 v=0
92164 On ch=10 n=44 v=107
92166 On ch=10 n=44 v=0
92352 On ch=10 n=44 v=107
92354 On ch=10 n=44 v=0
92546 On ch=10 n=44 v=107
92548 On ch=10 n=44 v=0
92738 On ch=10 n=44 v=104
92740 On ch=10 n=44 v=0
92930 On ch=10 n=44 v=104
92932 On ch=10 n=44 v=0
93122 On ch=10 n=44 v=104
93124 On ch=10 n=44 v=0
93312 On ch=10 n=44 v=104
93314 On ch=10 n=44 v=0
93508 On ch=10 n=44 v=104
93510 On ch=10 n=44 v=0
93696 On ch=10 n=44 v=107
93698 On ch=10 n=44 v=0
93886 On ch=10 n=44 v=107
93888 On ch=10 n=44 v=0
94084 On ch=10 n=44 v=107
94086 On ch=10 n=44 v=0
94276 On ch=10 n=44 v=104
94278 On ch=10 n=44 v=0
94464 On ch=10 n=44 v=104
94466 On ch=10 n=44 v=0
94658 On ch=10 n=44 v=104
94660 On ch=10 n=44 v=0
94850 On ch=10 n=44 v=104
94852 On ch=10 n=44 v=0
95042 On ch=10 n=44 v=104
95044 On ch=10 n=44 v=0
95234 On ch=10 n=44 v=107
95236 On ch=10 n=44 v=0
95424 On ch=10 n=44 v=107
95426 On ch=10 n=44 v=0
95620 On ch=10 n=44 v=107
95622 On ch=10 n=44 v=0
95808 On ch=10 n=44 v=104
95810 On ch=10 n=44 v=0
95998 On ch=10 n=44 v=104
96000 On ch=10 n=44 v=0
96196 On ch=10 n=44 v=104
96198 On ch=10 n=44 v=0
96388 On ch=10 n=44 v=104
96390 On ch=10 n=44 v=0
96576 On ch=10 n=44 v=104
96578 On ch=10 n=44 v=0
96770 On ch=10 n=44 v=107
96772 On ch=10 n=44 v=0
96962 On ch=10 n=44 v=107
96964 On ch=10 n=44 v=0
97154 On ch=10 n=44 v=107
97156 On ch=10 n=44 v=0
97346 On ch=10 n=44 v=104
97348 On ch=10 n=44 v=0
97536 On ch=10 n=44 v=104
97538 On ch=10 n=44 v=0
97732 On ch=10 n=44 v=104
97734 On ch=10 n=44 v=0
97920 On ch=10 n=44 v=104
97922 On ch=10 n=44 v=0
98110 On ch=10 n=44 v=104
98112 On ch=10 n=44 v=0
98308 On ch=10 n=44 v=107
98310 On ch=10 n=44 v=0
98500 On ch=10 n=44 v=107
98502 On ch=10 n=44 v=0
98688 On ch=10 n=44 v=107
98690 On ch=10 n=44 v=0
98882 On ch=10 n=44 v=104
98884 On ch=10 n=44 v=0
99074 On ch=10 n=44 v=104
99076 On ch=10 n=44 v=0
99266 On ch=10 n=44 v=104
99268 On ch=10 n=44 v=0
99458 On ch=10 n=44 v=104
99460 On ch=10 n=44 v=0
99648 On ch=10 n=44 v=104
99650 On ch=10 n=44 v=0
99844 On ch=10 n=44 v=104
99846 On ch=10 n=44 v=0
100222 On ch=10 n=44 v=98
100224 On ch=10 n=44 v=0
100612 On ch=10 n=44 v=95
100614 On ch=10 n=44 v=0
100994 On ch=10 n=44 v=98
100996 On ch=10 n=44 v=0
101378 On ch=10 n=44 v=104
101380 On ch=10 n=44 v=0
101760 On ch=10 n=44 v=98
101762 On ch=10 n=44 v=0
102144 On ch=10 n=44 v=95
102146 On ch=10 n=44 v=0
102532 On ch=10 n=44 v=98
102534 On ch=10 n=44 v=0
102912 On ch=10 n=44 v=104
102914 On ch=10 n=44 v=0
103298 On ch=10 n=44 v=98
103300 On ch=10 n=44 v=0
103682 On ch=10 n=44 v=95
103684 On ch=10 n=44 v=0
104068 On ch=10 n=44 v=98
104070 On ch=10 n=44 v=0
104446 On ch=10 n=44 v=104
104448 On ch=10 n=44 v=0
104836 On ch=10 n=44 v=98
104838 On ch=10 n=44 v=0
105218 On ch=10 n=44 v=95
105220 On ch=10 n=44 v=0
105602 On ch=10 n=44 v=98
105604 On ch=10 n=44 v=0
105984 On ch=10 n=44 v=104
105986 On ch=10 n=44 v=0
106368 On ch=10 n=44 v=98
106370 On ch=10 n=44 v=0
106756 On ch=10 n=44 v=95
106758 On ch=10 n=44 v=0
107136 On ch=10 n=44 v=98
107138 On ch=10 n=44 v=0
107522 On ch=10 n=44 v=104
107524 On ch=10 n=44 v=0
107906 On ch=10 n=44 v=98
107908 On ch=10 n=44 v=0
108292 On ch=10 n=44 v=95
108294 On ch=10 n=44 v=0
108670 On ch=10 n=44 v=98
108672 On ch=10 n=44 v=0
109060 On ch=10 n=44 v=104
109062 On ch=10 n=44 v=0
109442 On ch=10 n=44 v=98
109444 On ch=10 n=44 v=0
109826 On ch=10 n=44 v=95
109828 On ch=10 n=44 v=0
110208 On ch=10 n=44 v=98
110210 On ch=10 n=44 v=0
110592 On ch=10 n=44 v=104
110594 On ch=10 n=44 v=0
110980 On ch=10 n=44 v=98
110982 On ch=10 n=44 v=0
111360 On ch=10 n=44 v=95
111362 On ch=10 n=44 v=0
111746 On ch=10 n=44 v=98
111748 On ch=10 n=44 v=0
112130 On ch=10 n=44 v=104
112132 On ch=10 n=44 v=0
112516 On ch=10 n=44 v=98
112518 On ch=10 n=44 v=0
112894 On ch=10 n=44 v=95
112896 On ch=10 n=44 v=0
113284 On ch=10 n=44 v=98
113286 On ch=10 n=44 v=0
113666 On ch=10 n=44 v=104
113668 On ch=10 n=44 v=0
114050 On ch=10 n=44 v=98
114052 On ch=10 n=44 v=0
114432 On ch=10 n=44 v=95
114434 On ch=10 n=44 v=0
114816 On ch=10 n=44 v=98
114818 On ch=10 n=44 v=0
115204 On ch=10 n=44 v=104
115206 On ch=10 n=44 v=0
115584 On ch=10 n=44 v=98
115586 On ch=10 n=44 v=0
115970 On ch=10 n=44 v=95
115972 On ch=10 n=44 v=0
116354 On ch=10 n=44 v=98
116356 On ch=10 n=44 v=0
116740 On ch=10 n=44 v=104
116742 On ch=10 n=44 v=0
117118 On ch=10 n=44 v=98
117120 On ch=10 n=44 v=0
117508 On ch=10 n=44 v=95
117510 On ch=10 n=44 v=0
117890 On ch=10 n=44 v=98
117892 On ch=10 n=44 v=0
118274 On ch=10 n=44 v=104
118276 On ch=10 n=44 v=0
118656 On ch=10 n=44 v=98
118658 On ch=10 n=44 v=0
119040 On ch=10 n=44 v=95
119042 On ch=10 n=44 v=0
119428 On ch=10 n=44 v=98
119430 On ch=10 n=44 v=0
119808 On ch=10 n=44 v=104
119810 On ch=10 n=44 v=0
120194 On ch=10 n=44 v=98
120196 On ch=10 n=44 v=0
120578 On ch=10 n=44 v=95
120580 On ch=10 n=44 v=0
120964 On ch=10 n=44 v=98
120966 On ch=10 n=44 v=0
121342 On ch=10 n=44 v=104
121344 On ch=10 n=44 v=0
121732 On ch=10 n=44 v=98
121734 On ch=10 n=44 v=0
122114 On ch=10 n=44 v=95
122116 On ch=10 n=44 v=0
122498 On ch=10 n=44 v=98
122500 On ch=10 n=44 v=0
122880 On ch=10 n=44 v=104
122882 On ch=10 n=44 v=0
123264 On ch=10 n=44 v=98
123266 On ch=10 n=44 v=0
123652 On ch=10 n=44 v=95
123654 On ch=10 n=44 v=0
124032 On ch=10 n=44 v=98
124034 On ch=10 n=44 v=0
124418 On ch=10 n=44 v=104
124420 On ch=10 n=44 v=0
124802 On ch=10 n=44 v=98
124804 On ch=10 n=44 v=0
125188 On ch=10 n=44 v=95
125190 On ch=10 n=44 v=0
125566 On ch=10 n=44 v=98
125568 On ch=10 n=44 v=0
125956 On ch=10 n=44 v=104
125958 On ch=10 n=44 v=0
126338 On ch=10 n=44 v=98
126340 On ch=10 n=44 v=0
126722 On ch=10 n=44 v=95
126724 On ch=10 n=44 v=0
127104 On ch=10 n=44 v=98
127106 On ch=10 n=44 v=0
127488 On ch=10 n=44 v=104
127490 On ch=10 n=44 v=0
127876 On ch=10 n=44 v=98
127878 On ch=10 n=44 v=0
128256 On ch=10 n=44 v=95
128258 On ch=10 n=44 v=0
128642 On ch=10 n=44 v=98
128644 On ch=10 n=44 v=0
129026 On ch=10 n=44 v=104
129028 On ch=10 n=44 v=0
129412 On ch=10 n=44 v=98
129414 On ch=10 n=44 v=0
129790 On ch=10 n=44 v=95
129792 On ch=10 n=44 v=0
130180 On ch=10 n=44 v=98
130182 On ch=10 n=44 v=0
130562 On ch=10 n=44 v=107
130564 On ch=10 n=44 v=0
130754 On ch=10 n=44 v=107
130756 On ch=10 n=44 v=0
130946 On ch=10 n=44 v=107
130948 On ch=10 n=44 v=0
131138 On ch=10 n=44 v=104
131140 On ch=10 n=44 v=0
131328 On ch=10 n=44 v=104
131330 On ch=10 n=44 v=0
131524 On ch=10 n=44 v=104
131526 On ch=10 n=44 v=0
131712 On ch=10 n=44 v=104
131714 On ch=10 n=44 v=0
131902 On ch=10 n=44 v=104
131904 On ch=10 n=44 v=0
132100 On ch=10 n=44 v=107
132102 On ch=10 n=44 v=0
132292 On ch=10 n=44 v=107
132294 On ch=10 n=44 v=0
132480 On ch=10 n=44 v=107
132482 On ch=10 n=44 v=0
132674 On ch=10 n=44 v=104
132676 On ch=10 n=44 v=0
132866 On ch=10 n=44 v=104
132868 On ch=10 n=44 v=0
133058 On ch=10 n=44 v=104
133060 On ch=10 n=44 v=0
133250 On ch=10 n=44 v=104
133252 On ch=10 n=44 v=0
133440 On ch=10 n=44 v=104
133442 On ch=10 n=44 v=0
133636 On ch=10 n=44 v=107
133638 On ch=10 n=44 v=0
133824 On ch=10 n=44 v=107
133826 On ch=10 n=44 v=0
134014 On ch=10 n=44 v=107
134016 On ch=10 n=44 v=0
134212 On ch=10 n=44 v=104
134214 On ch=10 n=44 v=0
134404 On ch=10 n=44 v=104
134406 On ch=10 n=44 v=0
134592 On ch=10 n=44 v=104
134594 On ch=10 n=44 v=0
134786 On ch=10 n=44 v=104
134788 On ch=10 n=44 v=0
134978 On ch=10 n=44 v=104
134980 On ch=10 n=44 v=0
135170 On ch=10 n=44 v=107
135172 On ch=10 n=44 v=0
135362 On ch=10 n=44 v=107
135364 On ch=10 n=44 v=0
135552 On ch=10 n=44 v=107
135554 On ch=10 n=44 v=0
135748 On ch=10 n=44 v=104
135750 On ch=10 n=44 v=0
135936 On ch=10 n=44 v=104
135938 On ch=10 n=44 v=0
136126 On ch=10 n=44 v=104
136128 On ch=10 n=44 v=0
136324 On ch=10 n=44 v=104
136326 On ch=10 n=44 v=0
136516 On ch=10 n=44 v=104
136518 On ch=10 n=44 v=0
136704 On ch=10 n=44 v=107
136706 On ch=10 n=44 v=0
136898 On ch=10 n=44 v=107
136900 On ch=10 n=44 v=0
137090 On ch=10 n=44 v=107
137092 On ch=10 n=44 v=0
137282 On ch=10 n=44 v=104
137284 On ch=10 n=44 v=0
137474 On ch=10 n=44 v=104
137476 On ch=10 n=44 v=0
137664 On ch=10 n=44 v=104
137666 On ch=10 n=44 v=0
137860 On ch=10 n=44 v=104
137862 On ch=10 n=44 v=0
138048 On ch=10 n=44 v=104
138050 On ch=10 n=44 v=0
138238 On ch=10 n=44 v=107
138240 On ch=10 n=44 v=0
138436 On ch=10 n=44 v=107
138438 On ch=10 n=44 v=0
138628 On ch=10 n=44 v=107
138630 On ch=10 n=44 v=0
138816 On ch=10 n=44 v=104
138818 On ch=10 n=44 v=0
139010 On ch=10 n=44 v=104
139012 On ch=10 n=44 v=0
139202 On ch=10 n=44 v=104
139204 On ch=10 n=44 v=0
139394 On ch=10 n=44 v=104
139396 On ch=10 n=44 v=0
139586 On ch=10 n=44 v=104
139588 On ch=10 n=44 v=0
139776 On ch=10 n=44 v=107
139778 On ch=10 n=44 v=0
139972 On ch=10 n=44 v=107
139974 On ch=10 n=44 v=0
140160 On ch=10 n=44 v=107
140162 On ch=10 n=44 v=0
140350 On ch=10 n=44 v=104
140352 On ch=10 n=44 v=0
140548 On ch=10 n=44 v=104
140550 On ch=10 n=44 v=0
140740 On ch=10 n=44 v=104
140742 On ch=10 n=44 v=0
140928 On ch=10 n=44 v=104
140930 On ch=10 n=44 v=0
141122 On ch=10 n=44 v=104
141124 On ch=10 n=44 v=0
141314 On ch=10 n=44 v=107
141316 On ch=10 n=44 v=0
141506 On ch=10 n=44 v=107
141508 On ch=10 n=44 v=0
141698 On ch=10 n=44 v=107
141700 On ch=10 n=44 v=0
141888 On ch=10 n=44 v=104
141890 On ch=10 n=44 v=0
142084 On ch=10 n=44 v=104
142086 On ch=10 n=44 v=0
142272 On ch=10 n=44 v=104
142274 On ch=10 n=44 v=0
142462 On ch=10 n=44 v=104
142464 On ch=10 n=44 v=0
142660 On ch=10 n=44 v=104
142662 On ch=10 n=44 v=0
142852 On ch=10 n=44 v=107
142854 On ch=10 n=44 v=0
143040 On ch=10 n=44 v=107
143042 On ch=10 n=44 v=0
143234 On ch=10 n=44 v=107
143236 On ch=10 n=44 v=0
143426 On ch=10 n=44 v=104
143428 On ch=10 n=44 v=0
143618 On ch=10 n=44 v=104
143620 On ch=10 n=44 v=0
143810 On ch=10 n=44 v=104
143812 On ch=10 n=44 v=0
144000 On ch=10 n=44 v=104
144002 On ch=10 n=44 v=0
144196 On ch=10 n=44 v=104
144198 On ch=10 n=44 v=0
144384 On ch=10 n=44 v=107
144386 On ch=10 n=44 v=0
144574 On ch=10 n=44 v=107
144576 On ch=10 n=44 v=0
144772 On ch=10 n=44 v=107
144774 On ch=10 n=44 v=0
144964 On ch=10 n=44 v=104
144966 On ch=10 n=44 v=0
145152 On ch=10 n=44 v=104
145154 On ch=10 n=44 v=0
145346 On ch=10 n=44 v=104
145348 On ch=10 n=44 v=0
145538 On ch=10 n=44 v=104
145540 On ch=10 n=44 v=0
145730 On ch=10 n=44 v=104
145732 On ch=10 n=44 v=0
145922 On ch=10 n=44 v=107
145924 On ch=10 n=44 v=0
146112 On ch=10 n=44 v=107
146114 On ch=10 n=44 v=0
146308 On ch=10 n=44 v=107
146310 On ch=10 n=44 v=0
146496 On ch=10 n=44 v=104
146498 On ch=10 n=44 v=0
146686 On ch=10 n=44 v=104
146688 On ch=10 n=44 v=0
146884 On ch=10 n=44 v=104
146886 On ch=10 n=44 v=0
147076 On ch=10 n=44 v=104
147078 On ch=10 n=44 v=0
147264 On ch=10 n=44 v=104
147266 On ch=10 n=44 v=0
147458 On ch=10 n=44 v=107
147460 On ch=10 n=44 v=0
147650 On ch=10 n=44 v=107
147652 On ch=10 n=44 v=0
147842 On ch=10 n=44 v=107
147844 On ch=10 n=44 v=0
148034 On ch=10 n=44 v=104
148036 On ch=10 n=44 v=0
148224 On ch=10 n=44 v=104
148226 On ch=10 n=44 v=0
148420 On ch=10 n=44 v=104
148422 On ch=10 n=44 v=0
148608 On ch=10 n=44 v=104
148610 On ch=10 n=44 v=0
148798 On ch=10 n=44 v=104
148800 On ch=10 n=44 v=0
148996 On ch=10 n=44 v=107
148998 On ch=10 n=44 v=0
149188 On ch=10 n=44 v=107
149190 On ch=10 n=44 v=0
149376 On ch=10 n=44 v=107
149378 On ch=10 n=44 v=0
149570 On ch=10 n=44 v=104
149572 On ch=10 n=44 v=0
149762 On ch=10 n=44 v=104
149764 On ch=10 n=44 v=0
149954 On ch=10 n=44 v=104
149956 On ch=10 n=44 v=0
150146 On ch=10 n=44 v=104
150148 On ch=10 n=44 v=0
150336 On ch=10 n=44 v=104
150338 On ch=10 n=44 v=0
150532 On ch=10 n=44 v=107
150534 On ch=10 n=44 v=0
150720 On ch=10 n=44 v=107
150722 On ch=10 n=44 v=0
150910 On ch=10 n=44 v=107
150912 On ch=10 n=44 v=0
151108 On ch=10 n=44 v=104
151110 On ch=10 n=44 v=0
151300 On ch=10 n=44 v=104
151302 On ch=10 n=44 v=0
151488 On ch=10 n=44 v=104
151490 On ch=10 n=44 v=0
151682 On ch=10 n=44 v=104
151684 On ch=10 n=44 v=0
151874 On ch=10 n=44 v=104
151876 On ch=10 n=44 v=0
152066 On ch=10 n=44 v=107
152068 On ch=10 n=44 v=0
152258 On ch=10 n=44 v=107
152260 On ch=10 n=44 v=0
152448 On ch=10 n=44 v=107
152450 On ch=10 n=44 v=0
152644 On ch=10 n=44 v=104
152646 On ch=10 n=44 v=0
152832 On ch=10 n=44 v=104
152834 On ch=10 n=44 v=0
153022 On ch=10 n=44 v=104
153024 On ch=10 n=44 v=0
153220 On ch=10 n=44 v=104
153222 On ch=10 n=44 v=0
153412 On ch=10 n=44 v=104
153414 On ch=10 n=44 v=0
153600 On ch=10 n=44 v=107
153602 On ch=10 n=44 v=0
153794 On ch=10 n=44 v=107
153796 On ch=10 n=44 v=0
153986 On ch=10 n=44 v=107
153988 On ch=10 n=44 v=0
154178 On ch=10 n=44 v=104
154180 On ch=10 n=44 v=0
154370 On ch=10 n=44 v=104
154372 On ch=10 n=44 v=0
154560 On ch=10 n=44 v=104
154562 On ch=10 n=44 v=0
154756 On ch=10 n=44 v=104
154758 On ch=10 n=44 v=0
154944 On ch=10 n=44 v=104
154946 On ch=10 n=44 v=0
155134 On ch=10 n=44 v=107
155136 On ch=10 n=44 v=0
155332 On ch=10 n=44 v=107
155334 On ch=10 n=44 v=0
155524 On ch=10 n=44 v=107
155526 On ch=10 n=44 v=0
155712 On ch=10 n=44 v=104
155714 On ch=10 n=44 v=0
155906 On ch=10 n=44 v=104
155908 On ch=10 n=44 v=0
156098 On ch=10 n=44 v=104
156100 On ch=10 n=44 v=0
156290 On ch=10 n=44 v=104
156292 On ch=10 n=44 v=0
156482 On ch=10 n=44 v=104
156484 On ch=10 n=44 v=0
156672 On ch=10 n=44 v=107
156674 On ch=10 n=44 v=0
157056 On ch=10 n=44 v=107
157058 On ch=10 n=44 v=0
157444 On ch=10 n=44 v=104
157446 On ch=10 n=44 v=0
157824 On ch=10 n=44 v=104
157826 On ch=10 n=44 v=0
158210 On ch=10 n=44 v=107
158212 On ch=10 n=44 v=0
158402 On ch=10 n=44 v=107
158404 On ch=10 n=44 v=0
158594 On ch=10 n=44 v=107
158596 On ch=10 n=44 v=0
158784 On ch=10 n=44 v=104
158786 On ch=10 n=44 v=0
158980 On ch=10 n=44 v=104
158982 On ch=10 n=44 v=0
159168 On ch=10 n=44 v=104
159170 On ch=10 n=44 v=0
159358 On ch=10 n=44 v=104
159360 On ch=10 n=44 v=0
159556 On ch=10 n=44 v=104
159558 On ch=10 n=44 v=0
159748 On ch=10 n=44 v=107
159750 On ch=10 n=44 v=0
159936 On ch=10 n=44 v=107
159938 On ch=10 n=44 v=0
160130 On ch=10 n=44 v=107
160132 On ch=10 n=44 v=0
160322 On ch=10 n=44 v=104
160324 On ch=10 n=44 v=0
160514 On ch=10 n=44 v=104
160516 On ch=10 n=44 v=0
160706 On ch=10 n=44 v=104
160708 On ch=10 n=44 v=0
160896 On ch=10 n=44 v=104
160898 On ch=10 n=44 v=0
161092 On ch=10 n=44 v=104
161094 On ch=10 n=44 v=0
161280 On ch=10 n=44 v=107
161282 On ch=10 n=44 v=0
161668 On ch=10 n=44 v=107
161670 On ch=10 n=44 v=0
162048 On ch=10 n=44 v=104
162050 On ch=10 n=44 v=0
162434 On ch=10 n=44 v=104
162436 On ch=10 n=44 v=0
162818 On ch=10 n=44 v=107
162820 On ch=10 n=44 v=0
163204 On ch=10 n=44 v=107
163206 On ch=10 n=44 v=0
163582 On ch=10 n=44 v=104
163584 On ch=10 n=44 v=0
163972 On ch=10 n=44 v=104
163974 On ch=10 n=44 v=0
164354 On ch=10 n=42 v=127
164356 On ch=10 n=42 v=0
164738 On ch=10 n=42 v=125
164740 On ch=10 n=42 v=0
165120 On ch=10 n=42 v=125
165122 On ch=10 n=42 v=0
165504 On ch=10 n=42 v=122
165506 On ch=10 n=42 v=0
165892 On ch=10 n=42 v=127
165894 On ch=10 n=42 v=0
166272 On ch=10 n=42 v=125
166274 On ch=10 n=42 v=0
166658 On ch=10 n=42 v=125
166660 On ch=10 n=42 v=0
167042 On ch=10 n=42 v=122
167044 On ch=10 n=42 v=0
167428 On ch=10 n=42 v=127
167430 On ch=10 n=42 v=0
167806 On ch=10 n=42 v=125
167808 On ch=10 n=42 v=0
168196 On ch=10 n=42 v=125
168198 On ch=10 n=42 v=0
168578 On ch=10 n=42 v=122
168580 On ch=10 n=42 v=0
168962 On ch=10 n=42 v=127
168964 On ch=10 n=42 v=0
169344 On ch=10 n=42 v=125
169346 On ch=10 n=42 v=0
169728 On ch=10 n=42 v=125
169730 On ch=10 n=42 v=0
170116 On ch=10 n=42 v=122
170118 On ch=10 n=42 v=0
170496 On ch=10 n=44 v=107
170498 On ch=10 n=44 v=0
170690 On ch=10 n=44 v=107
170692 On ch=10 n=44 v=0
170882 On ch=10 n=44 v=107
170884 On ch=10 n=44 v=0
171074 On ch=10 n=44 v=104
171076 On ch=10 n=44 v=0
171266 On ch=10 n=44 v=104
171268 On ch=10 n=44 v=0
171456 On ch=10 n=44 v=104
171458 On ch=10 n=44 v=0
171652 On ch=10 n=44 v=104
171654 On ch=10 n=44 v=0
171840 On ch=10 n=44 v=104
171842 On ch=10 n=44 v=0
172030 On ch=10 n=44 v=107
172032 On ch=10 n=44 v=0
172228 On ch=10 n=44 v=107
172230 On ch=10 n=44 v=0
172420 On ch=10 n=44 v=107
172422 On ch=10 n=44 v=0
172608 On ch=10 n=44 v=104
172610 On ch=10 n=44 v=0
172802 On ch=10 n=44 v=104
172804 On ch=10 n=44 v=0
172994 On ch=10 n=44 v=104
172996 On ch=10 n=44 v=0
173186 On ch=10 n=44 v=104
173188 On ch=10 n=44 v=0
173378 On ch=10 n=44 v=104
173380 On ch=10 n=44 v=0
173568 On ch=10 n=44 v=107
173570 On ch=10 n=44 v=0
173952 On ch=10 n=44 v=107
173954 On ch=10 n=44 v=0
174340 On ch=10 n=44 v=104
174342 On ch=10 n=44 v=0
174720 On ch=10 n=44 v=104
174722 On ch=10 n=44 v=0
175106 On ch=10 n=44 v=107
175108 On ch=10 n=44 v=0
175490 On ch=10 n=44 v=107
175492 On ch=10 n=44 v=0
175876 On ch=10 n=44 v=104
175878 On ch=10 n=44 v=0
176254 On ch=10 n=44 v=104
176256 On ch=10 n=44 v=0
176644 On ch=10 n=44 v=107
176646 On ch=10 n=44 v=0
177026 On ch=10 n=44 v=107
177028 On ch=10 n=44 v=0
177410 On ch=10 n=44 v=104
177412 On ch=10 n=44 v=0
177792 On ch=10 n=44 v=104
177794 On ch=10 n=44 v=0
178176 On ch=10 n=44 v=107
178178 On ch=10 n=44 v=0
178564 On ch=10 n=44 v=107
178566 On ch=10 n=44 v=0
178944 On ch=10 n=44 v=104
178946 On ch=10 n=44 v=0
179330 On ch=10 n=44 v=104
179332 On ch=10 n=44 v=0
179714 On ch=10 n=44 v=107
179716 On ch=10 n=44 v=0
180100 On ch=10 n=44 v=107
180102 On ch=10 n=44 v=0
180478 On ch=10 n=44 v=104
180480 On ch=10 n=44 v=0
180868 On ch=10 n=44 v=104
180870 On ch=10 n=44 v=0
180870 Meta TrkEnd
TrkEnd
MTrk
0 Meta 0x21 00
0 Meta TrkName "bass drm"
0 PrCh ch=10 p=0
0 Par ch=10 c=7 v=117
0 Par ch=10 c=10 v=115
192 Par ch=10 c=91 v=10
1536 On ch=10 n=35 v=81
1538 On ch=10 n=35 v=0
3070 On ch=10 n=35 v=81
3072 On ch=10 n=35 v=0
4608 On ch=10 n=35 v=81
4610 On ch=10 n=35 v=0
6146 On ch=10 n=35 v=81
6148 On ch=10 n=35 v=0
7684 On ch=10 n=35 v=81
7686 On ch=10 n=35 v=0
8258 On ch=10 n=35 v=81
8260 On ch=10 n=35 v=0
8450 On ch=10 n=35 v=81
8452 On ch=10 n=35 v=0
9216 On ch=10 n=35 v=81
9218 On ch=10 n=35 v=0
9796 On ch=10 n=35 v=81
9798 On ch=10 n=35 v=0
9984 On ch=10 n=35 v=81
9986 On ch=10 n=35 v=0
10754 On ch=10 n=35 v=81
10756 On ch=10 n=35 v=0
11328 On ch=10 n=35 v=81
11330 On ch=10 n=35 v=0
11518 On ch=10 n=35 v=81
11520 On ch=10 n=35 v=0
12290 On ch=10 n=35 v=81
12292 On ch=10 n=35 v=0
12866 On ch=10 n=35 v=81
12868 On ch=10 n=35 v=0
13056 On ch=10 n=35 v=81
13058 On ch=10 n=35 v=0
13828 On ch=10 n=35 v=81
13830 On ch=10 n=35 v=0
14402 On ch=10 n=35 v=81
14404 On ch=10 n=35 v=0
14594 On ch=10 n=35 v=81
14596 On ch=10 n=35 v=0
15364 On ch=10 n=35 v=81
15366 On ch=10 n=35 v=0
15940 On ch=10 n=35 v=81
15942 On ch=10 n=35 v=0
16132 On ch=10 n=35 v=81
16134 On ch=10 n=35 v=0
16898 On ch=10 n=35 v=81
16900 On ch=10 n=35 v=0
17476 On ch=10 n=35 v=81
17478 On ch=10 n=35 v=0
17664 On ch=10 n=35 v=81
17666 On ch=10 n=35 v=0
18432 On ch=10 n=35 v=81
18434 On ch=10 n=35 v=0
19010 On ch=10 n=35 v=81
19012 On ch=10 n=35 v=0
19202 On ch=10 n=35 v=81
19204 On ch=10 n=35 v=0
19966 On ch=10 n=35 v=81
19968 On ch=10 n=35 v=0
20544 On ch=10 n=35 v=81
20546 On ch=10 n=35 v=0
20738 On ch=10 n=35 v=81
20740 On ch=10 n=35 v=0
21504 On ch=10 n=35 v=81
21506 On ch=10 n=35 v=0
22078 On ch=10 n=35 v=81
22080 On ch=10 n=35 v=0
22276 On ch=10 n=35 v=81
22278 On ch=10 n=35 v=0
23042 On ch=10 n=35 v=81
23044 On ch=10 n=35 v=0
23616 On ch=10 n=35 v=81
23618 On ch=10 n=35 v=0
23812 On ch=10 n=35 v=81
23814 On ch=10 n=35 v=0
24580 On ch=10 n=35 v=81
24582 On ch=10 n=35 v=0
25154 On ch=10 n=35 v=81
25156 On ch=10 n=35 v=0
25346 On ch=10 n=35 v=81
25348 On ch=10 n=35 v=0
26112 On ch=10 n=35 v=81
26114 On ch=10 n=35 v=0
26692 On ch=10 n=35 v=81
26694 On ch=10 n=35 v=0
26880 On ch=10 n=35 v=81
26882 On ch=10 n=35 v=0
27650 On ch=10 n=35 v=81
27652 On ch=10 n=35 v=0
28224 On ch=10 n=35 v=81
28226 On ch=10 n=35 v=0
28414 On ch=10 n=35 v=81
28416 On ch=10 n=35 v=0
29186 On ch=10 n=35 v=81
29188 On ch=10 n=35 v=0
29762 On ch=10 n=35 v=81
29764 On ch=10 n=35 v=0
29952 On ch=10 n=35 v=81
29954 On ch=10 n=35 v=0
30724 On ch=10 n=35 v=81
30726 On ch=10 n=35 v=0
31298 On ch=10 n=35 v=81
31300 On ch=10 n=35 v=0
31490 On ch=10 n=35 v=81
31492 On ch=10 n=35 v=0
32260 On ch=10 n=35 v=81
32262 On ch=10 n=35 v=0
32836 On ch=10 n=35 v=81
32838 On ch=10 n=35 v=0
33028 On ch=10 n=35 v=81
33030 On ch=10 n=35 v=0
33794 On ch=10 n=35 v=81
33796 On ch=10 n=35 v=0
34372 On ch=10 n=35 v=81
34374 On ch=10 n=35 v=0
34560 On ch=10 n=35 v=81
34562 On ch=10 n=35 v=0
35328 On ch=10 n=35 v=81
35330 On ch=10 n=35 v=0
36098 On ch=10 n=35 v=81
36100 On ch=10 n=35 v=0
36862 On ch=10 n=35 v=81
36864 On ch=10 n=35 v=0
37634 On ch=10 n=35 v=81
37636 On ch=10 n=35 v=0
38400 On ch=10 n=35 v=81
38402 On ch=10 n=35 v=0
38784 On ch=10 n=35 v=78
38786 On ch=10 n=35 v=0
39172 On ch=10 n=35 v=81
39174 On ch=10 n=35 v=0
39552 On ch=10 n=35 v=81
39554 On ch=10 n=35 v=0
39938 On ch=10 n=35 v=81
39940 On ch=10 n=35 v=0
41476 On ch=10 n=35 v=81
41478 On ch=10 n=35 v=0
42050 On ch=10 n=35 v=81
42052 On ch=10 n=35 v=0
42242 On ch=10 n=35 v=81
42244 On ch=10 n=35 v=0
43008 On ch=10 n=35 v=81
43010 On ch=10 n=35 v=0
43588 On ch=10 n=35 v=81
43590 On ch=10 n=35 v=0
43776 On ch=10 n=35 v=81
43778 On ch=10 n=35 v=0
44546 On ch=10 n=35 v=81
44548 On ch=10 n=35 v=0
45120 On ch=10 n=35 v=81
45122 On ch=10 n=35 v=0
45310 On ch=10 n=35 v=81
45312 On ch=10 n=35 v=0
46082 On ch=10 n=35 v=81
46084 On ch=10 n=35 v=0
46658 On ch=10 n=35 v=81
46660 On ch=10 n=35 v=0
46848 On ch=10 n=35 v=81
46850 On ch=10 n=35 v=0
47620 On ch=10 n=35 v=81
47622 On ch=10 n=35 v=0
48194 On ch=10 n=35 v=81
48196 On ch=10 n=35 v=0
48386 On ch=10 n=35 v=81
48388 On ch=10 n=35 v=0
49156 On ch=10 n=35 v=81
49158 On ch=10 n=35 v=0
49732 On ch=10 n=35 v=81
49734 On ch=10 n=35 v=0
49924 On ch=10 n=35 v=81
49926 On ch=10 n=35 v=0
50690 On ch=10 n=35 v=81
50692 On ch=10 n=35 v=0
51268 On ch=10 n=35 v=81
51270 On ch=10 n=35 v=0
51456 On ch=10 n=35 v=81
51458 On ch=10 n=35 v=0
52224 On ch=10 n=35 v=81
52226 On ch=10 n=35 v=0
52802 On ch=10 n=35 v=81
52804 On ch=10 n=35 v=0
52994 On ch=10 n=35 v=81
52996 On ch=10 n=35 v=0
53758 On ch=10 n=35 v=81
53760 On ch=10 n=35 v=0
54336 On ch=10 n=35 v=81
54338 On ch=10 n=35 v=0
54530 On ch=10 n=35 v=81
54532 On ch=10 n=35 v=0
55296 On ch=10 n=35 v=81
55298 On ch=10 n=35 v=0
55870 On ch=10 n=35 v=81
55872 On ch=10 n=35 v=0
56068 On ch=10 n=35 v=81
56070 On ch=10 n=35 v=0
56834 On ch=10 n=35 v=81
56836 On ch=10 n=35 v=0
57408 On ch=10 n=35 v=81
57410 On ch=10 n=35 v=0
57604 On ch=10 n=35 v=81
57606 On ch=10 n=35 v=0
58372 On ch=10 n=35 v=81
58374 On ch=10 n=35 v=0
58946 On ch=10 n=35 v=81
58948 On ch=10 n=35 v=0
59138 On ch=10 n=35 v=81
59140 On ch=10 n=35 v=0
59904 On ch=10 n=35 v=81
59906 On ch=10 n=35 v=0
60484 On ch=10 n=35 v=81
60486 On ch=10 n=35 v=0
60672 On ch=10 n=35 v=81
60674 On ch=10 n=35 v=0
61442 On ch=10 n=35 v=81
61444 On ch=10 n=35 v=0
62016 On ch=10 n=35 v=81
62018 On ch=10 n=35 v=0
62206 On ch=10 n=35 v=81
62208 On ch=10 n=35 v=0
62978 On ch=10 n=35 v=81
62980 On ch=10 n=35 v=0
63554 On ch=10 n=35 v=81
63556 On ch=10 n=35 v=0
63744 On ch=10 n=35 v=81
63746 On ch=10 n=35 v=0
64516 On ch=10 n=35 v=81
64518 On ch=10 n=35 v=0
65090 On ch=10 n=35 v=81
65092 On ch=10 n=35 v=0
65282 On ch=10 n=35 v=81
65284 On ch=10 n=35 v=0
66052 On ch=10 n=35 v=81
66054 On ch=10 n=35 v=0
66628 On ch=10 n=35 v=81
66630 On ch=10 n=35 v=0
66820 On ch=10 n=35 v=81
66822 On ch=10 n=35 v=0
67586 On ch=10 n=35 v=81
67588 On ch=10 n=35 v=0
67968 On ch=10 n=35 v=78
67970 On ch=10 n=35 v=0
68352 On ch=10 n=35 v=81
68354 On ch=10 n=35 v=0
68740 On ch=10 n=35 v=75
68742 On ch=10 n=35 v=0
69120 On ch=10 n=35 v=81
69122 On ch=10 n=35 v=0
69698 On ch=10 n=35 v=81
69700 On ch=10 n=35 v=0
69890 On ch=10 n=35 v=81
69892 On ch=10 n=35 v=0
70654 On ch=10 n=35 v=81
70656 On ch=10 n=35 v=0
71232 On ch=10 n=35 v=81
71234 On ch=10 n=35 v=0
71426 On ch=10 n=35 v=81
71428 On ch=10 n=35 v=0
72192 On ch=10 n=35 v=81
72194 On ch=10 n=35 v=0
72576 On ch=10 n=35 v=78
72578 On ch=10 n=35 v=0
72964 On ch=10 n=35 v=81
72966 On ch=10 n=35 v=0
73344 On ch=10 n=35 v=75
73346 On ch=10 n=35 v=0
73730 On ch=10 n=35 v=81
73732 On ch=10 n=35 v=0
74114 On ch=10 n=35 v=78
74116 On ch=10 n=35 v=0
74500 On ch=10 n=35 v=81
74502 On ch=10 n=35 v=0
74878 On ch=10 n=35 v=75
74880 On ch=10 n=35 v=0
75268 On ch=10 n=35 v=81
75270 On ch=10 n=35 v=0
75842 On ch=10 n=35 v=81
75844 On ch=10 n=35 v=0
76034 On ch=10 n=35 v=81
76036 On ch=10 n=35 v=0
76800 On ch=10 n=35 v=81
76802 On ch=10 n=35 v=0
77380 On ch=10 n=35 v=81
77382 On ch=10 n=35 v=0
77568 On ch=10 n=35 v=81
77570 On ch=10 n=35 v=0
78338 On ch=10 n=35 v=81
78340 On ch=10 n=35 v=0
78912 On ch=10 n=35 v=81
78914 On ch=10 n=35 v=0
79102 On ch=10 n=35 v=81
79104 On ch=10 n=35 v=0
79874 On ch=10 n=35 v=81
79876 On ch=10 n=35 v=0
80450 On ch=10 n=35 v=81
80452 On ch=10 n=35 v=0
80640 On ch=10 n=35 v=81
80642 On ch=10 n=35 v=0
81412 On ch=10 n=35 v=81
81414 On ch=10 n=35 v=0
81986 On ch=10 n=35 v=81
81988 On ch=10 n=35 v=0
82178 On ch=10 n=35 v=81
82180 On ch=10 n=35 v=0
82948 On ch=10 n=35 v=81
82950 On ch=10 n=35 v=0
83524 On ch=10 n=35 v=81
83526 On ch=10 n=35 v=0
83716 On ch=10 n=35 v=81
83718 On ch=10 n=35 v=0
84482 On ch=10 n=35 v=81
84484 On ch=10 n=35 v=0
85060 On ch=10 n=35 v=81
85062 On ch=10 n=35 v=0
85248 On ch=10 n=35 v=81
85250 On ch=10 n=35 v=0
86016 On ch=10 n=35 v=81
86018 On ch=10 n=35 v=0
86594 On ch=10 n=35 v=81
86596 On ch=10 n=35 v=0
86786 On ch=10 n=35 v=81
86788 On ch=10 n=35 v=0
87550 On ch=10 n=35 v=81
87552 On ch=10 n=35 v=0
88128 On ch=10 n=35 v=81
88130 On ch=10 n=35 v=0
88322 On ch=10 n=35 v=81
88324 On ch=10 n=35 v=0
89088 On ch=10 n=35 v=81
89090 On ch=10 n=35 v=0
89662 On ch=10 n=35 v=81
89664 On ch=10 n=35 v=0
89860 On ch=10 n=35 v=81
89862 On ch=10 n=35 v=0
90626 On ch=10 n=35 v=81
90628 On ch=10 n=35 v=0
91200 On ch=10 n=35 v=81
91202 On ch=10 n=35 v=0
91396 On ch=10 n=35 v=81
91398 On ch=10 n=35 v=0
92164 On ch=10 n=35 v=81
92166 On ch=10 n=35 v=0
92738 On ch=10 n=35 v=81
92740 On ch=10 n=35 v=0
92930 On ch=10 n=35 v=81
92932 On ch=10 n=35 v=0
93696 On ch=10 n=35 v=81
93698 On ch=10 n=35 v=0
94276 On ch=10 n=35 v=81
94278 On ch=10 n=35 v=0
94464 On ch=10 n=35 v=81
94466 On ch=10 n=35 v=0
95234 On ch=10 n=35 v=81
95236 On ch=10 n=35 v=0
95808 On ch=10 n=35 v=81
95810 On ch=10 n=35 v=0
95998 On ch=10 n=35 v=81
96000 On ch=10 n=35 v=0
96770 On ch=10 n=35 v=81
96772 On ch=10 n=35 v=0
97346 On ch=10 n=35 v=81
97348 On ch=10 n=35 v=0
97536 On ch=10 n=35 v=81
97538 On ch=10 n=35 v=0
98308 On ch=10 n=35 v=81
98310 On ch=10 n=35 v=0
98882 On ch=10 n=35 v=81
98884 On ch=10 n=35 v=0
99074 On ch=10 n=35 v=81
99076 On ch=10 n=35 v=0
99844 On ch=10 n=35 v=81
99846 On ch=10 n=35 v=0
100612 On ch=10 n=35 v=81
100614 On ch=10 n=35 v=0
101378 On ch=10 n=35 v=81
101380 On ch=10 n=35 v=0
102144 On ch=10 n=35 v=81
102146 On ch=10 n=35 v=0
102912 On ch=10 n=35 v=81
102914 On ch=10 n=35 v=0
103298 On ch=10 n=35 v=78
103300 On ch=10 n=35 v=0
103682 On ch=10 n=35 v=81
103684 On ch=10 n=35 v=0
104068 On ch=10 n=35 v=81
104070 On ch=10 n=35 v=0
104446 On ch=10 n=35 v=81
104448 On ch=10 n=35 v=0
105984 On ch=10 n=35 v=81
105986 On ch=10 n=35 v=0
106756 On ch=10 n=35 v=78
106758 On ch=10 n=35 v=0
107522 On ch=10 n=35 v=81
107524 On ch=10 n=35 v=0
108292 On ch=10 n=35 v=78
108294 On ch=10 n=35 v=0
109060 On ch=10 n=35 v=81
109062 On ch=10 n=35 v=0
109826 On ch=10 n=35 v=78
109828 On ch=10 n=35 v=0
110592 On ch=10 n=35 v=81
110594 On ch=10 n=35 v=0
111360 On ch=10 n=35 v=78
111362 On ch=10 n=35 v=0
112130 On ch=10 n=35 v=81
112132 On ch=10 n=35 v=0
112894 On ch=10 n=35 v=78
112896 On ch=10 n=35 v=0
113666 On ch=10 n=35 v=81
113668 On ch=10 n=35 v=0
114432 On ch=10 n=35 v=78
114434 On ch=10 n=35 v=0
115204 On ch=10 n=35 v=81
115206 On ch=10 n=35 v=0
115970 On ch=10 n=35 v=78
115972 On ch=10 n=35 v=0
116740 On ch=10 n=35 v=81
116742 On ch=10 n=35 v=0
117508 On ch=10 n=35 v=78
117510 On ch=10 n=35 v=0
118274 On ch=10 n=35 v=81
118276 On ch=10 n=35 v=0
119040 On ch=10 n=35 v=78
119042 On ch=10 n=35 v=0
119808 On ch=10 n=35 v=81
119810 On ch=10 n=35 v=0
120578 On ch=10 n=35 v=78
120580 On ch=10 n=35 v=0
121342 On ch=10 n=35 v=81
121344 On ch=10 n=35 v=0
122114 On ch=10 n=35 v=78
122116 On ch=10 n=35 v=0
122880 On ch=10 n=35 v=81
122882 On ch=10 n=35 v=0
123652 On ch=10 n=35 v=78
123654 On ch=10 n=35 v=0
124418 On ch=10 n=35 v=81
124420 On ch=10 n=35 v=0
125188 On ch=10 n=35 v=78
125190 On ch=10 n=35 v=0
125956 On ch=10 n=35 v=81
125958 On ch=10 n=35 v=0
126722 On ch=10 n=35 v=78
126724 On ch=10 n=35 v=0
127488 On ch=10 n=35 v=81
127490 On ch=10 n=35 v=0
128256 On ch=10 n=35 v=78
128258 On ch=10 n=35 v=0
129026 On ch=10 n=35 v=81
129028 On ch=10 n=35 v=0
130562 On ch=10 n=35 v=81
130564 On ch=10 n=35 v=0
131138 On ch=10 n=35 v=81
131140 On ch=10 n=35 v=0
131328 On ch=10 n=35 v=81
131330 On ch=10 n=35 v=0
132100 On ch=10 n=35 v=81
132102 On ch=10 n=35 v=0
132674 On ch=10 n=35 v=81
132676 On ch=10 n=35 v=0
132866 On ch=10 n=35 v=81
132868 On ch=10 n=35 v=0
133636 On ch=10 n=35 v=81
133638 On ch=10 n=35 v=0
134212 On ch=10 n=35 v=81
134214 On ch=10 n=35 v=0
134404 On ch=10 n=35 v=81
134406 On ch=10 n=35 v=0
135170 On ch=10 n=35 v=81
135172 On ch=10 n=35 v=0
135748 On ch=10 n=35 v=81
135750 On ch=10 n=35 v=0
135936 On ch=10 n=35 v=81
135938 On ch=10 n=35 v=0
136704 On ch=10 n=35 v=81
136706 On ch=10 n=35 v=0
137282 On ch=10 n=35 v=81
137284 On ch=10 n=35 v=0
137474 On ch=10 n=35 v=81
137476 On ch=10 n=35 v=0
138238 On ch=10 n=35 v=81
138240 On ch=10 n=35 v=0
138816 On ch=10 n=35 v=81
138818 On ch=10 n=35 v=0
139010 On ch=10 n=35 v=81
139012 On ch=10 n=35 v=0
139776 On ch=10 n=35 v=81
139778 On ch=10 n=35 v=0
140350 On ch=10 n=35 v=81
140352 On ch=10 n=35 v=0
140548 On ch=10 n=35 v=81
140550 On ch=10 n=35 v=0
141314 On ch=10 n=35 v=81
141316 On ch=10 n=35 v=0
141888 On ch=10 n=35 v=81
141890 On ch=10 n=35 v=0
142084 On ch=10 n=35 v=81
142086 On ch=10 n=35 v=0
142852 On ch=10 n=35 v=81
142854 On ch=10 n=35 v=0
143426 On ch=10 n=35 v=81
143428 On ch=10 n=35 v=0
143618 On ch=10 n=35 v=81
143620 On ch=10 n=35 v=0
144384 On ch=10 n=35 v=81
144386 On ch=10 n=35 v=0
144964 On ch=10 n=35 v=81
144966 On ch=10 n=35 v=0
145152 On ch=10 n=35 v=81
145154 On ch=10 n=35 v=0
145922 On ch=10 n=35 v=81
145924 On ch=10 n=35 v=0
146496 On ch=10 n=35 v=81
146498 On ch=10 n=35 v=0
146686 On ch=10 n=35 v=81
146688 On ch=10 n=35 v=0
147458 On ch=10 n=35 v=81
147460 On ch=10 n=35 v=0
148034 On ch=10 n=35 v=81
148036 On ch=10 n=35 v=0
148224 On ch=10 n=35 v=81
148226 On ch=10 n=35 v=0
148996 On ch=10 n=35 v=81
148998 On ch=10 n=35 v=0
149570 On ch=10 n=35 v=81
149572 On ch=10 n=35 v=0
149762 On ch=10 n=35 v=81
149764 On ch=10 n=35 v=0
150532 On ch=10 n=35 v=81
150534 On ch=10 n=35 v=0
151108 On ch=10 n=35 v=81
151110 On ch=10 n=35 v=0
151300 On ch=10 n=35 v=81
151302 On ch=10 n=35 v=0
152066 On ch=10 n=35 v=81
152068 On ch=10 n=35 v=0
152644 On ch=10 n=35 v=81
152646 On ch=10 n=35 v=0
152832 On ch=10 n=35 v=81
152834 On ch=10 n=35 v=0
153600 On ch=10 n=35 v=81
153602 On ch=10 n=35 v=0
154178 On ch=10 n=35 v=81
154180 On ch=10 n=35 v=0
154370 On ch=10 n=35 v=81
154372 On ch=10 n=35 v=0
155134 On ch=10 n=35 v=81
155136 On ch=10 n=35 v=0
155712 On ch=10 n=35 v=81
155714 On ch=10 n=35 v=0
155906 On ch=10 n=35 v=81
155908 On ch=10 n=35 v=0
156672 On ch=10 n=35 v=81
156674 On ch=10 n=35 v=0
157056 On ch=10 n=35 v=78
157058 On ch=10 n=35 v=0
157444 On ch=10 n=35 v=81
157446 On ch=10 n=35 v=0
157824 On ch=10 n=35 v=75
157826 On ch=10 n=35 v=0
158210 On ch=10 n=35 v=81
158212 On ch=10 n=35 v=0
158784 On ch=10 n=35 v=81
158786 On ch=10 n=35 v=0
158980 On ch=10 n=35 v=81
158982 On ch=10 n=35 v=0
159748 On ch=10 n=35 v=81
159750 On ch=10 n=35 v=0
160322 On ch=10 n=35 v=81
160324 On ch=10 n=35 v=0
160514 On ch=10 n=35 v=81
160516 On ch=10 n=35 v=0
161280 On ch=10 n=35 v=81
161282 On ch=10 n=35 v=0
161668 On ch=10 n=35 v=78
161670 On ch=10 n=35 v=0
162048 On ch=10 n=35 v=81
162050 On ch=10 n=35 v=0
162434 On ch=10 n=35 v=75
162436 On ch=10 n=35 v=0
162818 On ch=10 n=35 v=81
162820 On ch=10 n=35 v=0
163204 On ch=10 n=35 v=78
163206 On ch=10 n=35 v=0
163582 On ch=10 n=35 v=81
163584 On ch=10 n=35 v=0
163972 On ch=10 n=35 v=75
163974 On ch=10 n=35 v=0
164354 On ch=10 n=35 v=81
164356 On ch=10 n=35 v=0
165892 On ch=10 n=35 v=81
165894 On ch=10 n=35 v=0
167428 On ch=10 n=35 v=81
167430 On ch=10 n=35 v=0
168962 On ch=10 n=35 v=81
168964 On ch=10 n=35 v=0
170496 On ch=10 n=35 v=81
170498 On ch=10 n=35 v=0
171074 On ch=10 n=35 v=81
171076 On ch=10 n=35 v=0
171266 On ch=10 n=35 v=81
171268 On ch=10 n=35 v=0
172030 On ch=10 n=35 v=81
172032 On ch=10 n=35 v=0
172608 On ch=10 n=35 v=81
172610 On ch=10 n=35 v=0
172802 On ch=10 n=35 v=81
172804 On ch=10 n=35 v=0
173568 On ch=10 n=35 v=81
173570 On ch=10 n=35 v=0
173952 On ch=10 n=35 v=78
173954 On ch=10 n=35 v=0
174340 On ch=10 n=35 v=81
174342 On ch=10 n=35 v=0
174720 On ch=10 n=35 v=75
174722 On ch=10 n=35 v=0
175106 On ch=10 n=35 v=81
175108 On ch=10 n=35 v=0
175490 On ch=10 n=35 v=78
175492 On ch=10 n=35 v=0
175876 On ch=10 n=35 v=81
175878 On ch=10 n=35 v=0
176254 On ch=10 n=35 v=75
176256 On ch=10 n=35 v=0
176644 On ch=10 n=35 v=81
176646 On ch=10 n=35 v=0
177410 On ch=10 n=35 v=81
177412 On ch=10 n=35 v=0
178176 On ch=10 n=35 v=81
178178 On ch=10 n=35 v=0
179714 On ch=10 n=35 v=81
179716 On ch=10 n=35 v=0
179716 Meta TrkEnd
TrkEnd
