MFile 1 2 96
MTrk
0 TimeSig 2/4 24 8
0 KeySig 0 major
0 Tempo 769231
0 Meta Marker "Queen. Bohemian rhapsody"
28416 Tempo 389610
39360 Tempo 769231
39360 Meta TrkEnd
TrkEnd
MTrk
0 Meta 0x21 00
80 Par ch=1 c=121 v=0
81 Par ch=2 c=121 v=0
82 Par ch=3 c=121 v=0
83 Par ch=4 c=121 v=0
84 Par ch=5 c=121 v=0
85 Par ch=6 c=121 v=0
86 Par ch=7 c=121 v=0
87 Par ch=8 c=121 v=0
88 Par ch=9 c=121 v=0
89 Par ch=10 c=121 v=0
90 Par ch=11 c=121 v=0
91 Par ch=12 c=121 v=0
92 Par ch=13 c=121 v=0
98 Par ch=1 c=0 v=0
98 Par ch=1 c=32 v=0
98 PrCh ch=1 p=0
99 Par ch=1 c=7 v=123
99 Par ch=1 c=10 v=64
99 Par ch=1 c=11 v=110
100 Par ch=1 c=91 v=127
100 Par ch=1 c=93 v=0
103 Par ch=2 c=0 v=0
103 Par ch=2 c=32 v=0
103 PrCh ch=2 p=33
104 Par ch=2 c=7 v=123
104 Par ch=2 c=10 v=64
104 Par ch=2 c=11 v=110
105 Par ch=2 c=91 v=0
105 Par ch=2 c=93 v=60
108 Par ch=3 c=0 v=0
108 Par ch=3 c=32 v=0
108 PrCh ch=3 p=48
109 Par ch=3 c=7 v=123
109 Par ch=3 c=10 v=100
109 Par ch=3 c=11 v=80
110 Par ch=3 c=91 v=127
110 Par ch=3 c=93 v=20
113 Par ch=4 c=0 v=0
113 Par ch=4 c=32 v=0
113 PrCh ch=4 p=52
114 Par ch=4 c=7 v=123
114 Par ch=4 c=10 v=20
114 Par ch=4 c=11 v=95
115 Par ch=4 c=91 v=127
115 Par ch=4 c=93 v=0
118 Par ch=5 c=0 v=0
118 Par ch=5 c=32 v=0
118 PrCh ch=5 p=65
119 Par ch=5 c=7 v=123
119 Par ch=5 c=10 v=64
119 Par ch=5 c=11 v=110
120 Par ch=5 c=91 v=127
120 Par ch=5 c=93 v=20
123 Par ch=6 c=0 v=0
123 Par ch=6 c=32 v=0
123 PrCh ch=6 p=60
124 Par ch=6 c=7 v=123
124 Par ch=6 c=10 v=64
124 Par ch=6 c=11 v=100
125 Par ch=6 c=91 v=127
125 Par ch=6 c=93 v=60
128 Par ch=7 c=0 v=0
128 Par ch=7 c=32 v=0
128 PrCh ch=7 p=62
129 Par ch=7 c=7 v=123
129 Par ch=7 c=10 v=110
129 Par ch=7 c=11 v=110
130 Par ch=7 c=91 v=127
130 Par ch=7 c=93 v=60
133 Par ch=8 c=0 v=0
133 Par ch=8 c=32 v=0
133 PrCh ch=8 p=69
134 Par ch=8 c=7 v=123
134 Par ch=8 c=10 v=10
134 Par ch=8 c=11 v=90
135 Par ch=8 c=91 v=127
135 Par ch=8 c=93 v=40
138 Par ch=9 c=0 v=0
138 Par ch=9 c=32 v=0
138 PrCh ch=9 p=30
139 Par ch=9 c=7 v=123
139 Par ch=9 c=10 v=127
139 Par ch=9 c=11 v=90
140 Par ch=9 c=91 v=127
140 Par ch=9 c=93 v=50
143 Par ch=10 c=0 v=0
143 Par ch=10 c=32 v=0
143 PrCh ch=10 p=0
144 Par ch=10 c=7 v=123
144 Par ch=10 c=10 v=64
144 Par ch=10 c=11 v=110
145 Par ch=10 c=91 v=127
145 Par ch=10 c=93 v=0
148 Par ch=11 c=0 v=0
148 Par ch=11 c=32 v=0
148 PrCh ch=11 p=47
149 Par ch=11 c=7 v=123
149 Par ch=11 c=10 v=64
149 Par ch=11 c=11 v=110
150 Par ch=11 c=91 v=127
150 Par ch=11 c=93 v=20
153 Par ch=12 c=0 v=0
153 Par ch=12 c=32 v=0
153 PrCh ch=12 p=30
154 Par ch=12 c=7 v=123
154 Par ch=12 c=10 v=0
154 Par ch=12 c=11 v=90
155 Par ch=12 c=91 v=127
155 Par ch=12 c=93 v=0
158 Par ch=13 c=0 v=0
158 Par ch=13 c=32 v=0
158 PrCh ch=13 p=55
159 Par ch=13 c=7 v=123
159 Par ch=13 c=10 v=64
159 Par ch=13 c=11 v=110
160 Par ch=13 c=91 v=126
160 Par ch=13 c=93 v=0
336 On ch=4 n=65 v=113
336 On ch=4 n=68 v=113
336 On ch=4 n=70 v=113
336 On ch=4 n=73 v=113
374 On ch=4 n=73 v=0
376 On ch=4 n=65 v=0
383 On ch=4 n=70 v=0
383 On ch=4 n=68 v=0
384 On ch=4 n=65 v=113
384 On ch=4 n=68 v=113
384 On ch=4 n=70 v=113
384 On ch=4 n=73 v=113
411 On ch=4 n=68 v=0
412 On ch=4 n=70 v=0
419 On ch=4 n=73 v=0
422 On ch=4 n=65 v=0
432 On ch=4 n=65 v=113
432 On ch=4 n=68 v=113
432 On ch=4 n=70 v=113
432 On ch=4 n=73 v=113
473 On ch=4 n=73 v=0
475 On ch=4 n=65 v=0
475 On ch=4 n=68 v=0
477 On ch=4 n=70 v=0
480 On ch=4 n=65 v=113
480 On ch=4 n=68 v=113
480 On ch=4 n=70 v=113
480 On ch=4 n=73 v=113
562 On ch=4 n=73 v=0
565 On ch=4 n=65 v=0
568 On ch=4 n=68 v=0
570 On ch=4 n=70 v=0
576 On ch=4 n=65 v=113
576 On ch=4 n=68 v=113
576 On ch=4 n=70 v=113
576 On ch=4 n=73 v=113
655 On ch=4 n=68 v=0
657 On ch=4 n=70 v=0
660 On ch=4 n=73 v=0
662 On ch=4 n=65 v=0
720 On ch=4 n=63 v=113
720 On ch=4 n=67 v=113
720 On ch=4 n=70 v=113
720 On ch=4 n=73 v=113
757 On ch=4 n=70 v=0
757 On ch=4 n=67 v=0
758 On ch=4 n=73 v=0
760 On ch=4 n=63 v=0
768 On ch=4 n=63 v=113
768 On ch=4 n=67 v=113
768 On ch=4 n=70 v=113
768 On ch=4 n=73 v=113
809 On ch=4 n=67 v=0
811 On ch=4 n=70 v=0
815 On ch=4 n=63 v=0
815 On ch=4 n=73 v=0
816 On ch=4 n=65 v=113
816 On ch=4 n=68 v=113
816 On ch=4 n=70 v=113
856 On ch=4 n=70 v=0
860 On ch=4 n=68 v=0
863 On ch=4 n=65 v=0
864 On ch=4 n=67 v=113
864 On ch=4 n=70 v=113
864 On ch=4 n=73 v=113
911 On ch=4 n=73 v=0
911 On ch=4 n=70 v=0
911 On ch=4 n=67 v=0
912 On ch=4 n=65 v=113
912 On ch=4 n=68 v=113
935 On ch=4 n=68 v=0
935 On ch=4 n=65 v=0
936 On ch=4 n=63 v=113
936 On ch=4 n=67 v=113
1022 On ch=4 n=67 v=0
1036 On ch=4 n=63 v=0
1056 On ch=4 n=63 v=113
1056 On ch=4 n=66 v=113
1056 On ch=4 n=68 v=113
1056 On ch=4 n=72 v=113
1092 On ch=4 n=66 v=0
1096 On ch=4 n=72 v=0
1100 On ch=4 n=63 v=0
1101 On ch=4 n=68 v=0
1104 On ch=4 n=63 v=113
1104 On ch=4 n=66 v=113
1104 On ch=4 n=68 v=113
1104 On ch=4 n=72 v=113
1140 On ch=4 n=66 v=0
1144 On ch=4 n=63 v=0
1145 On ch=4 n=68 v=0
1146 On ch=4 n=72 v=0
1152 On ch=4 n=63 v=113
1152 On ch=4 n=66 v=113
1152 On ch=4 n=68 v=113
1152 On ch=4 n=72 v=113
1189 On ch=4 n=66 v=0
1196 On ch=4 n=63 v=0
1196 On ch=4 n=72 v=0
1199 On ch=4 n=68 v=0
1200 On ch=4 n=63 v=113
1200 On ch=4 n=66 v=113
1200 On ch=4 n=70 v=113
1200 On ch=4 n=73 v=113
1295 On ch=4 n=73 v=0
1295 On ch=4 n=63 v=0
1295 On ch=4 n=66 v=0
1295 On ch=4 n=70 v=0
1296 On ch=4 n=63 v=113
1296 On ch=4 n=66 v=113
1296 On ch=4 n=68 v=113
1296 On ch=4 n=72 v=113
1320 On ch=4 n=66 v=0
1323 On ch=4 n=63 v=0
1379 On ch=4 n=68 v=0
1391 On ch=4 n=72 v=0
1392 On ch=4 n=68 v=113
1431 On ch=4 n=68 v=0
1440 On ch=4 n=61 v=113
1440 On ch=4 n=65 v=113
1440 On ch=4 n=68 v=113
1440 On ch=4 n=73 v=113
1461 On ch=4 n=65 v=0
1462 On ch=4 n=61 v=0
1462 On ch=4 n=68 v=0
1466 On ch=4 n=73 v=0
1488 On ch=4 n=61 v=113
1488 On ch=4 n=65 v=113
1488 On ch=4 n=68 v=113
1488 On ch=4 n=73 v=113
1511 On ch=4 n=65 v=0
1531 On ch=4 n=68 v=0
1535 On ch=4 n=61 v=0
1535 On ch=4 n=73 v=0
1536 On ch=4 n=66 v=113
1536 On ch=4 n=70 v=113
1573 On ch=4 n=66 v=0
1583 On ch=4 n=70 v=0
1584 On ch=4 n=65 v=113
1584 On ch=4 n=68 v=113
1631 On ch=4 n=68 v=0
1631 On ch=4 n=65 v=0
1632 On ch=4 n=63 v=113
1632 On ch=4 n=66 v=113
1679 On ch=4 n=66 v=0
1679 On ch=4 n=63 v=0
1680 On ch=4 n=61 v=113
1680 On ch=4 n=65 v=113
1856 On ch=4 n=65 v=0
1862 On ch=4 n=61 v=0
1920 On ch=1 n=46 v=120
1920 On ch=1 n=53 v=123
1920 On ch=1 n=58 v=123
1920 On ch=1 n=61 v=123
1920 On ch=1 n=65 v=122
1920 On ch=3 n=65 v=104
1920 On ch=4 n=46 v=113
1920 On ch=4 n=53 v=113
1920 On ch=4 n=58 v=113
1920 On ch=4 n=61 v=113
1920 On ch=4 n=65 v=113
1961 On ch=1 n=58 v=0
1968 On ch=1 n=58 v=95
1972 On ch=1 n=65 v=0
1980 On ch=1 n=61 v=0
2000 On ch=3 n=65 v=0
2016 On ch=1 n=61 v=121
2016 On ch=1 n=65 v=122
2016 On ch=3 n=65 v=111
2021 On ch=1 n=58 v=0
2057 On ch=3 n=65 v=0
2060 On ch=1 n=65 v=0
2064 On ch=1 n=58 v=104
2064 On ch=3 n=65 v=110
2072 On ch=1 n=61 v=0
2112 On ch=1 n=61 v=121
2112 On ch=1 n=65 v=122
2118 On ch=1 n=58 v=0
2160 On ch=1 n=65 v=0
2160 On ch=1 n=58 v=109
2169 On ch=1 n=61 v=0
2208 On ch=1 n=61 v=120
2208 On ch=1 n=65 v=120
2218 On ch=1 n=58 v=0
2247 On ch=3 n=65 v=0
2251 On ch=1 n=53 v=0
2256 On ch=1 n=58 v=116
2256 On ch=3 n=65 v=111
2260 On ch=1 n=65 v=0
2264 On ch=1 n=61 v=0
2276 On ch=1 n=58 v=0
2289 On ch=4 n=58 v=0
2298 On ch=3 n=65 v=0
2299 On ch=4 n=53 v=0
2299 On ch=4 n=46 v=0
2300 On ch=1 n=46 v=0
2303 On ch=4 n=61 v=0
2303 On ch=4 n=65 v=0
2304 On ch=1 n=49 v=123
2304 On ch=1 n=56 v=122
2304 On ch=1 n=59 v=123
2304 On ch=1 n=61 v=123
2304 On ch=1 n=65 v=123
2304 On ch=3 n=65 v=117
2304 On ch=4 n=59 v=113
2340 On ch=1 n=59 v=0
2345 On ch=3 n=65 v=0
2352 On ch=1 n=59 v=118
2352 On ch=3 n=65 v=116
2354 On ch=1 n=61 v=0
2360 On ch=1 n=65 v=0
2399 On ch=4 n=59 v=0
2400 On ch=3 n=65 v=0
2400 On ch=1 n=61 v=122
2400 On ch=1 n=65 v=123
2400 On ch=3 n=66 v=115
2400 On ch=4 n=66 v=113
2410 On ch=1 n=59 v=0
2447 On ch=4 n=66 v=0
2448 On ch=1 n=59 v=110
2448 On ch=3 n=68 v=113
2448 On ch=4 n=68 v=113
2451 On ch=1 n=65 v=0
2453 On ch=3 n=66 v=0
2456 On ch=1 n=61 v=0
2496 On ch=1 n=61 v=121
2496 On ch=1 n=65 v=118
2501 On ch=1 n=59 v=0
2543 On ch=4 n=68 v=0
2544 On ch=1 n=59 v=117
2544 On ch=3 n=61 v=103
2544 On ch=4 n=61 v=113
2548 On ch=3 n=68 v=0
2548 On ch=1 n=65 v=0
2552 On ch=1 n=61 v=0
2592 On ch=1 n=61 v=120
2592 On ch=1 n=65 v=122
2598 On ch=1 n=59 v=0
2637 On ch=1 n=65 v=0
2639 On ch=4 n=61 v=0
2640 On ch=1 n=59 v=117
2640 On ch=3 n=70 v=101
2640 On ch=4 n=66 v=113
2640 On ch=4 n=70 v=113
2650 On ch=3 n=61 v=0
2656 On ch=1 n=61 v=0
2657 On ch=1 n=56 v=0
2662 On ch=1 n=59 v=0
2688 On ch=1 n=42 v=121
2688 On ch=1 n=54 v=118
2688 On ch=1 n=61 v=123
2688 On ch=1 n=66 v=118
2688 On ch=1 n=70 v=121
2736 On ch=1 n=58 v=116
2742 On ch=1 n=70 v=0
2747 On ch=1 n=66 v=0
2748 On ch=1 n=61 v=0
2784 On ch=1 n=61 v=122
2784 On ch=1 n=66 v=121
2784 On ch=1 n=70 v=121
2789 On ch=1 n=58 v=0
2830 On ch=1 n=70 v=0
2832 On ch=1 n=66 v=0
2832 On ch=1 n=58 v=117
2836 On ch=1 n=61 v=0
2880 On ch=1 n=61 v=121
2880 On ch=1 n=66 v=122
2880 On ch=1 n=70 v=123
2886 On ch=1 n=58 v=0
2928 On ch=1 n=58 v=116
2931 On ch=1 n=70 v=0
2937 On ch=1 n=66 v=0
2938 On ch=1 n=61 v=0
2976 On ch=1 n=61 v=120
2976 On ch=1 n=66 v=119
2976 On ch=1 n=70 v=121
2983 On ch=1 n=58 v=0
2999 On ch=3 n=70 v=0
3024 On ch=1 n=58 v=115
3026 On ch=1 n=70 v=0
3029 On ch=1 n=61 v=0
3029 On ch=1 n=66 v=0
3069 On ch=1 n=54 v=0
3071 On ch=4 n=66 v=0
3071 On ch=1 n=49 v=0
3071 On ch=4 n=70 v=0
3072 On ch=1 n=51 v=123
3072 On ch=1 n=63 v=123
3072 On ch=1 n=66 v=122
3072 On ch=1 n=70 v=123
3072 On ch=3 n=70 v=107
3072 On ch=3 n=82 v=47
3072 On ch=4 n=58 v=113
3072 On ch=4 n=63 v=113
3073 On ch=1 n=42 v=0
3076 On ch=1 n=58 v=0
3118 On ch=1 n=70 v=0
3120 On ch=1 n=58 v=109
3124 On ch=1 n=66 v=0
3131 On ch=1 n=63 v=0
3164 On ch=3 n=82 v=0
3168 On ch=1 n=63 v=122
3168 On ch=1 n=66 v=119
3168 On ch=1 n=70 v=122
3168 On ch=3 n=82 v=104
3173 On ch=1 n=58 v=0
3213 On ch=3 n=70 v=0
3214 On ch=1 n=70 v=0
3216 On ch=1 n=58 v=115
3216 On ch=3 n=70 v=117
3219 On ch=1 n=66 v=0
3222 On ch=1 n=63 v=0
3264 On ch=1 n=63 v=122
3264 On ch=1 n=66 v=120
3264 On ch=1 n=70 v=120
3270 On ch=1 n=58 v=0
3300 On ch=1 n=70 v=0
3306 On ch=3 n=70 v=0
3312 On ch=1 n=66 v=0
3312 On ch=1 n=58 v=108
3312 On ch=3 n=70 v=115
3318 On ch=1 n=63 v=0
3360 On ch=1 n=63 v=121
3360 On ch=1 n=66 v=117
3360 On ch=1 n=70 v=122
3365 On ch=1 n=58 v=0
3394 On ch=1 n=66 v=0
3408 On ch=1 n=58 v=115
3412 On ch=1 n=63 v=0
3431 On ch=1 n=58 v=0
3452 On ch=1 n=70 v=0
3455 On ch=4 n=58 v=0
3455 On ch=4 n=63 v=0
3456 On ch=3 n=70 v=0
3456 On ch=1 n=44 v=109
3456 On ch=1 n=56 v=122
3456 On ch=1 n=60 v=119
3456 On ch=1 n=63 v=122
3456 On ch=1 n=68 v=123
3456 On ch=3 n=68 v=111
3456 On ch=3 n=80 v=76
3456 On ch=4 n=56 v=113
3456 On ch=4 n=60 v=113
3456 On ch=4 n=68 v=113
3458 On ch=3 n=82 v=0
3462 On ch=1 n=51 v=0
3486 On ch=1 n=60 v=0
3494 On ch=3 n=68 v=0
3495 On ch=3 n=80 v=0
3504 On ch=1 n=68 v=0
3504 On ch=1 n=51 v=120
3504 On ch=1 n=60 v=119
3504 On ch=3 n=68 v=116
3504 On ch=3 n=80 v=110
3507 On ch=1 n=63 v=0
3511 On ch=1 n=56 v=0
3551 On ch=4 n=60 v=0
3551 On ch=4 n=56 v=0
3551 On ch=4 n=68 v=0
3551 On ch=1 n=51 v=0
3552 On ch=1 n=56 v=123
3552 On ch=1 n=63 v=122
3552 On ch=1 n=70 v=123
3552 On ch=3 n=70 v=117
3552 On ch=3 n=82 v=112
3552 On ch=4 n=58 v=113
3552 On ch=4 n=70 v=113
3557 On ch=3 n=68 v=0
3558 On ch=3 n=80 v=0
3559 On ch=1 n=60 v=0
3596 On ch=1 n=63 v=0
3599 On ch=4 n=58 v=0
3599 On ch=4 n=70 v=0
3600 On ch=3 n=70 v=0
3600 On ch=1 n=51 v=119
3600 On ch=1 n=60 v=114
3600 On ch=1 n=68 v=119
3600 On ch=3 n=68 v=111
3600 On ch=3 n=80 v=112
3600 On ch=4 n=56 v=113
3600 On ch=4 n=68 v=113
3603 On ch=1 n=56 v=0
3605 On ch=1 n=70 v=0
3608 On ch=3 n=82 v=0
3623 On ch=4 n=68 v=0
3623 On ch=4 n=56 v=0
3624 On ch=1 n=66 v=113
3624 On ch=3 n=66 v=113
3624 On ch=3 n=78 v=108
3624 On ch=4 n=66 v=113
3628 On ch=3 n=80 v=0
3629 On ch=3 n=68 v=0
3631 On ch=1 n=68 v=0
3647 On ch=3 n=78 v=0
3647 On ch=3 n=66 v=0
3647 On ch=4 n=66 v=0
3648 On ch=1 n=63 v=115
3648 On ch=3 n=63 v=116
3648 On ch=3 n=75 v=118
3648 On ch=4 n=63 v=113
3657 On ch=1 n=66 v=0
3668 On ch=4 n=63 v=0
3673 On ch=1 n=44 v=0
3686 On ch=3 n=75 v=0
3689 On ch=3 n=63 v=0
3725 On ch=1 n=63 v=0
3730 On ch=1 n=51 v=0
3731 On ch=1 n=60 v=0
3744 On ch=1 n=65 v=121
3744 On ch=3 n=65 v=83
3744 On ch=4 n=65 v=113
3790 On ch=1 n=65 v=0
3791 On ch=4 n=65 v=0
3792 On ch=1 n=66 v=117
3792 On ch=3 n=66 v=112
3792 On ch=4 n=66 v=113
3805 On ch=3 n=65 v=0
3839 On ch=1 n=66 v=0
3839 On ch=4 n=66 v=0
3840 On ch=1 n=47 v=117
3840 On ch=1 n=54 v=122
3840 On ch=1 n=59 v=123
3840 On ch=1 n=63 v=121
3840 On ch=1 n=66 v=122
3840 On ch=1 n=71 v=123
3840 On ch=3 n=71 v=115
3840 On ch=4 n=59 v=113
3840 On ch=4 n=63 v=113
3840 On ch=4 n=71 v=113
3841 On ch=1 n=66 v=0
3846 On ch=3 n=66 v=0
3871 On ch=1 n=71 v=0
3872 On ch=4 n=59 v=0
3873 On ch=1 n=63 v=0
3874 On ch=1 n=47 v=0
3875 On ch=4 n=71 v=0
3875 On ch=1 n=59 v=0
3875 On ch=4 n=63 v=0
3878 On ch=3 n=71 v=0
3888 On ch=1 n=47 v=113
3888 On ch=1 n=59 v=122
3888 On ch=1 n=63 v=123
3888 On ch=1 n=66 v=122
3888 On ch=1 n=71 v=122
3888 On ch=3 n=71 v=114
3888 On ch=4 n=59 v=113
3888 On ch=4 n=63 v=113
3888 On ch=4 n=71 v=113
3914 On ch=1 n=59 v=0
3915 On ch=1 n=47 v=0
3916 On ch=1 n=54 v=0
3921 On ch=1 n=66 v=0
3923 On ch=4 n=63 v=0
3927 On ch=1 n=63 v=0
3931 On ch=1 n=71 v=0
3931 On ch=4 n=71 v=0
3935 On ch=4 n=59 v=0
3936 On ch=1 n=46 v=117
3936 On ch=1 n=53 v=123
3936 On ch=1 n=58 v=123
3936 On ch=1 n=62 v=123
3936 On ch=1 n=65 v=123
3936 On ch=1 n=70 v=123
3936 On ch=3 n=70 v=116
3936 On ch=4 n=58 v=113
3936 On ch=4 n=65 v=113
3936 On ch=4 n=70 v=113
3939 On ch=3 n=71 v=0
3963 On ch=1 n=70 v=0
3965 On ch=1 n=62 v=0
3969 On ch=4 n=70 v=0
3971 On ch=1 n=58 v=0
3971 On ch=1 n=53 v=0
3972 On ch=3 n=70 v=0
3972 On ch=1 n=65 v=0
3976 On ch=4 n=65 v=0
3980 On ch=4 n=58 v=0
3981 On ch=1 n=46 v=0
4032 On ch=1 n=45 v=120
4032 On ch=1 n=52 v=123
4032 On ch=1 n=57 v=123
4032 On ch=1 n=61 v=113
4032 On ch=1 n=64 v=123
4032 On ch=1 n=69 v=117
4032 On ch=3 n=69 v=111
4032 On ch=4 n=57 v=113
4032 On ch=4 n=64 v=113
4032 On ch=4 n=69 v=113
4064 On ch=4 n=69 v=0
4065 On ch=4 n=57 v=0
4065 On ch=1 n=69 v=0
4065 On ch=1 n=61 v=0
4066 On ch=1 n=57 v=0
4068 On ch=1 n=45 v=0
4069 On ch=4 n=64 v=0
4070 On ch=3 n=69 v=0
4070 On ch=1 n=64 v=0
4074 On ch=1 n=52 v=0
4080 On ch=1 n=45 v=117
4080 On ch=1 n=52 v=117
4080 On ch=1 n=57 v=122
4080 On ch=1 n=61 v=123
4080 On ch=1 n=64 v=123
4080 On ch=1 n=69 v=120
4080 On ch=3 n=69 v=118
4080 On ch=4 n=57 v=113
4080 On ch=4 n=64 v=113
4080 On ch=4 n=69 v=113
4098 On ch=1 n=45 v=0
4101 On ch=1 n=64 v=0
4105 On ch=1 n=57 v=0
4111 On ch=1 n=52 v=0
4113 On ch=1 n=69 v=0
4117 On ch=1 n=61 v=0
4125 On ch=4 n=69 v=0
4125 On ch=4 n=57 v=0
4127 On ch=4 n=64 v=0
4128 On ch=3 n=69 v=0
4128 On ch=1 n=46 v=118
4128 On ch=1 n=53 v=123
4128 On ch=1 n=58 v=123
4128 On ch=1 n=62 v=123
4128 On ch=1 n=65 v=123
4128 On ch=1 n=70 v=123
4128 On ch=3 n=70 v=117
4128 On ch=4 n=58 v=113
4128 On ch=4 n=65 v=113
4128 On ch=4 n=70 v=113
4157 On ch=1 n=62 v=0
4166 On ch=1 n=46 v=0
4167 On ch=1 n=65 v=0
4168 On ch=1 n=53 v=0
4168 On ch=4 n=65 v=0
4170 On ch=1 n=70 v=0
4171 On ch=4 n=58 v=0
4172 On ch=3 n=70 v=0
4174 On ch=1 n=58 v=0
4177 On ch=4 n=70 v=0
4224 On ch=1 n=47 v=119
4224 On ch=1 n=54 v=121
4224 On ch=1 n=59 v=123
4224 On ch=1 n=63 v=122
4224 On ch=1 n=66 v=119
4224 On ch=1 n=71 v=123
4224 On ch=3 n=71 v=110
4224 On ch=4 n=59 v=113
4224 On ch=4 n=66 v=113
4224 On ch=4 n=71 v=113
4253 On ch=1 n=63 v=0
4254 On ch=4 n=59 v=0
4257 On ch=1 n=59 v=0
4257 On ch=1 n=71 v=0
4259 On ch=1 n=47 v=0
4260 On ch=4 n=71 v=0
4262 On ch=4 n=66 v=0
4263 On ch=3 n=71 v=0
4264 On ch=1 n=66 v=0
4272 On ch=1 n=47 v=117
4272 On ch=1 n=59 v=123
4272 On ch=1 n=63 v=121
4272 On ch=1 n=66 v=119
4272 On ch=1 n=71 v=123
4272 On ch=3 n=71 v=118
4272 On ch=4 n=59 v=113
4272 On ch=4 n=66 v=113
4272 On ch=4 n=71 v=113
4297 On ch=1 n=59 v=0
4297 On ch=1 n=47 v=0
4300 On ch=1 n=66 v=0
4300 On ch=1 n=54 v=0
4304 On ch=1 n=63 v=0
4310 On ch=1 n=71 v=0
4317 On ch=4 n=66 v=0
4319 On ch=4 n=59 v=0
4319 On ch=4 n=71 v=0
4320 On ch=3 n=71 v=0
4320 On ch=1 n=46 v=18
4320 On ch=1 n=53 v=121
4320 On ch=1 n=58 v=123
4320 On ch=1 n=62 v=123
4320 On ch=1 n=65 v=123
4320 On ch=1 n=70 v=121
4320 On ch=3 n=70 v=117
4320 On ch=4 n=58 v=113
4320 On ch=4 n=65 v=113
4320 On ch=4 n=70 v=113
4349 On ch=1 n=62 v=0
4356 On ch=1 n=70 v=0
4364 On ch=1 n=53 v=0
4366 On ch=4 n=70 v=0
4367 On ch=1 n=58 v=0
4369 On ch=4 n=65 v=0
4369 On ch=1 n=65 v=0
4370 On ch=4 n=58 v=0
4375 On ch=3 n=70 v=0
4375 On ch=1 n=46 v=0
4416 On ch=1 n=45 v=117
4416 On ch=1 n=52 v=121
4416 On ch=1 n=57 v=120
4416 On ch=1 n=61 v=122
4416 On ch=1 n=64 v=123
4416 On ch=1 n=69 v=117
4416 On ch=3 n=69 v=115
4416 On ch=4 n=57 v=113
4416 On ch=4 n=64 v=113
4416 On ch=4 n=69 v=113
4441 On ch=1 n=61 v=0
4445 On ch=1 n=57 v=0
4448 On ch=1 n=69 v=0
4449 On ch=1 n=64 v=0
4452 On ch=4 n=57 v=0
4453 On ch=3 n=69 v=0
4463 On ch=4 n=69 v=0
4463 On ch=4 n=64 v=0
4464 On ch=1 n=57 v=116
4464 On ch=1 n=61 v=120
4464 On ch=1 n=64 v=119
4464 On ch=1 n=69 v=116
4464 On ch=3 n=69 v=115
4464 On ch=4 n=57 v=113
4477 On ch=1 n=45 v=0
4483 On ch=1 n=64 v=0
4490 On ch=1 n=52 v=0
4491 On ch=1 n=57 v=0
4492 On ch=3 n=69 v=0
4504 On ch=1 n=61 v=0
4504 On ch=1 n=69 v=0
4511 On ch=4 n=57 v=0
4512 On ch=1 n=46 v=112
4512 On ch=1 n=53 v=122
4512 On ch=1 n=58 v=122
4512 On ch=1 n=62 v=121
4512 On ch=1 n=65 v=122
4512 On ch=1 n=70 v=122
4512 On ch=3 n=70 v=113
4512 On ch=4 n=58 v=113
4512 On ch=4 n=65 v=113
4512 On ch=4 n=70 v=113
4551 On ch=4 n=70 v=0
4561 On ch=4 n=65 v=0
4566 On ch=4 n=58 v=0
4576 On ch=1 n=62 v=0
4581 On ch=1 n=58 v=0
4598 On ch=1 n=46 v=0
4605 On ch=1 n=65 v=0
4605 On ch=1 n=53 v=0
4608 On ch=1 n=51 v=123
4608 On ch=1 n=58 v=123
4608 On ch=1 n=63 v=122
4608 On ch=1 n=67 v=123
4608 On ch=4 n=63 v=113
4608 On ch=4 n=67 v=113
4608 On ch=4 n=70 v=113
4613 On ch=1 n=70 v=0
4632 On ch=3 n=70 v=0
4640 On ch=1 n=63 v=0
4656 On ch=1 n=63 v=118
4656 On ch=3 n=67 v=76
4669 On ch=1 n=67 v=0
4675 On ch=1 n=58 v=0
4691 On ch=3 n=67 v=0
4704 On ch=1 n=58 v=123
4704 On ch=1 n=67 v=122
4704 On ch=1 n=70 v=122
4704 On ch=3 n=67 v=117
4709 On ch=1 n=63 v=0
4711 On ch=1 n=51 v=0
4744 On ch=3 n=67 v=0
4748 On ch=1 n=70 v=0
4752 On ch=1 n=51 v=122
4752 On ch=1 n=63 v=118
4752 On ch=3 n=67 v=118
4755 On ch=1 n=58 v=0
4794 On ch=1 n=63 v=0
4796 On ch=4 n=63 v=0
4797 On ch=4 n=67 v=0
4799 On ch=4 n=70 v=0
4799 On ch=1 n=67 v=0
4800 On ch=1 n=50 v=121
4800 On ch=1 n=58 v=121
4800 On ch=1 n=62 v=122
4800 On ch=1 n=65 v=123
4800 On ch=3 n=65 v=115
4800 On ch=4 n=62 v=113
4800 On ch=4 n=65 v=113
4802 On ch=1 n=51 v=0
4812 On ch=3 n=67 v=0
4831 On ch=1 n=62 v=0
4848 On ch=1 n=62 v=121
4857 On ch=1 n=65 v=0
4874 On ch=1 n=58 v=0
4895 On ch=3 n=65 v=0
4896 On ch=1 n=58 v=122
4896 On ch=1 n=65 v=123
4896 On ch=1 n=70 v=120
4896 On ch=3 n=70 v=112
4897 On ch=1 n=50 v=0
4902 On ch=1 n=62 v=0
4919 On ch=4 n=62 v=0
4919 On ch=4 n=65 v=0
4920 On ch=4 n=70 v=113
4944 On ch=1 n=50 v=120
4944 On ch=1 n=62 v=121
4948 On ch=1 n=58 v=0
4949 On ch=1 n=65 v=0
4965 On ch=1 n=62 v=0
4986 On ch=1 n=70 v=0
4991 On ch=4 n=70 v=0
4992 On ch=1 n=49 v=122
4992 On ch=1 n=58 v=123
4992 On ch=1 n=61 v=123
4992 On ch=1 n=64 v=123
4992 On ch=1 n=67 v=123
4992 On ch=3 n=64 v=115
4992 On ch=4 n=61 v=113
4992 On ch=4 n=64 v=113
4996 On ch=3 n=70 v=0
4997 On ch=1 n=50 v=0
5021 On ch=1 n=61 v=0
5033 On ch=3 n=64 v=0
5039 On ch=4 n=61 v=0
5039 On ch=4 n=64 v=0
5040 On ch=1 n=61 v=120
5040 On ch=3 n=64 v=117
5040 On ch=4 n=67 v=113
5051 On ch=1 n=64 v=0
5052 On ch=1 n=67 v=0
5079 On ch=3 n=64 v=0
5082 On ch=1 n=58 v=0
5087 On ch=4 n=67 v=0
5088 On ch=1 n=64 v=123
5088 On ch=1 n=67 v=122
5088 On ch=3 n=64 v=117
5088 On ch=4 n=70 v=113
5124 On ch=1 n=61 v=0
5129 On ch=3 n=64 v=0
5133 On ch=1 n=64 v=0
5136 On ch=1 n=58 v=122
5136 On ch=1 n=61 v=118
5136 On ch=1 n=70 v=122
5136 On ch=3 n=65 v=110
5171 On ch=1 n=67 v=0
5172 On ch=1 n=58 v=0
5174 On ch=1 n=61 v=0
5178 On ch=1 n=70 v=0
5183 On ch=4 n=70 v=0
5183 On ch=3 n=65 v=0
5184 On ch=1 n=48 v=117
5184 On ch=1 n=57 v=123
5184 On ch=1 n=60 v=123
5184 On ch=1 n=65 v=123
5184 On ch=1 n=69 v=123
5184 On ch=3 n=65 v=117
5184 On ch=4 n=60 v=113
5184 On ch=4 n=65 v=113
5184 On ch=4 n=69 v=113
5193 On ch=1 n=49 v=0
5213 On ch=1 n=60 v=0
5232 On ch=1 n=60 v=112
5245 On ch=1 n=65 v=0
5248 On ch=1 n=69 v=0
5279 On ch=4 n=60 v=0
5279 On ch=4 n=65 v=0
5279 On ch=4 n=69 v=0
5280 On ch=1 n=65 v=123
5280 On ch=1 n=69 v=122
5280 On ch=3 n=60 v=113
5280 On ch=4 n=63 v=113
5286 On ch=3 n=65 v=0
5293 On ch=1 n=60 v=0
5316 On ch=1 n=57 v=0
5326 On ch=3 n=60 v=0
5328 On ch=1 n=60 v=117
5328 On ch=3 n=63 v=110
5331 On ch=1 n=48 v=0
5338 On ch=1 n=65 v=0
5375 On ch=4 n=63 v=0
5376 On ch=1 n=41 v=120
5376 On ch=1 n=63 v=123
5376 On ch=1 n=67 v=123
5376 On ch=1 n=72 v=122
5376 On ch=3 n=65 v=103
5376 On ch=3 n=69 v=104
5376 On ch=4 n=72 v=113
5424 On ch=1 n=48 v=119
5472 On ch=1 n=57 v=123
5482 On ch=1 n=60 v=0
5520 On ch=1 n=69 v=0
5520 On ch=1 n=60 v=119
5550 On ch=1 n=63 v=0
5559 On ch=1 n=72 v=0
5564 On ch=1 n=67 v=0
5568 On ch=1 n=63 v=18
5568 On ch=1 n=69 v=117
5568 On ch=1 n=72 v=121
5572 On ch=1 n=69 v=0
5580 On ch=3 n=65 v=0
5580 On ch=4 n=72 v=0
5583 On ch=3 n=69 v=0
5592 On ch=3 n=63 v=0
5627 On ch=1 n=57 v=0
5636 On ch=1 n=60 v=0
5644 On ch=1 n=72 v=0
5658 On ch=1 n=41 v=0
5659 On ch=1 n=63 v=0
5664 On ch=1 n=57 v=122
5664 On ch=3 n=57 v=98
5664 On ch=4 n=57 v=113
5665 On ch=1 n=48 v=0
5752 On ch=1 n=57 v=0
5759 On ch=4 n=57 v=0
5760 On ch=1 n=34 v=121
5760 On ch=1 n=46 v=123
5760 On ch=1 n=58 v=119
5760 On ch=3 n=58 v=89
5760 On ch=4 n=58 v=113
5763 On ch=3 n=57 v=0
5808 On ch=1 n=53 v=115
5825 On ch=1 n=58 v=0
5856 On ch=1 n=58 v=117
5904 On ch=1 n=62 v=115
5952 On ch=1 n=67 v=116
5952 On ch=1 n=79 v=116
5967 On ch=1 n=53 v=0
6000 On ch=1 n=53 v=101
6048 On ch=1 n=65 v=117
6048 On ch=1 n=77 v=118
6054 On ch=1 n=53 v=0
6065 On ch=1 n=62 v=0
6096 On ch=1 n=53 v=107
6099 On ch=1 n=58 v=0
6117 On ch=1 n=34 v=0
6135 On ch=1 n=65 v=0
6139 On ch=1 n=77 v=0
6144 On ch=1 n=34 v=123
6144 On ch=1 n=58 v=118
6144 On ch=1 n=62 v=123
6150 On ch=1 n=53 v=0
6153 On ch=1 n=79 v=0
6192 On ch=1 n=53 v=104
6200 On ch=1 n=62 v=0
6201 On ch=1 n=58 v=0
6240 On ch=1 n=58 v=113
6288 On ch=1 n=62 v=116
6292 On ch=1 n=67 v=0
6336 On ch=1 n=67 v=116
6336 On ch=1 n=79 v=116
6347 On ch=1 n=53 v=0
6384 On ch=1 n=53 v=108
6399 On ch=1 n=62 v=0
6432 On ch=1 n=65 v=118
6432 On ch=1 n=77 v=118
6444 On ch=1 n=53 v=0
6472 On ch=3 n=58 v=0
6474 On ch=4 n=58 v=0
6478 On ch=1 n=58 v=0
6480 On ch=1 n=53 v=115
6493 On ch=1 n=34 v=0
6494 On ch=1 n=46 v=0
6523 On ch=1 n=65 v=0
6523 On ch=1 n=77 v=0
6528 On ch=1 n=34 v=123
6528 On ch=1 n=46 v=123
6528 On ch=1 n=58 v=122
6528 On ch=1 n=62 v=122
6528 On ch=6 n=72 v=121
6528 On ch=6 n=74 v=119
6531 On ch=1 n=53 v=0
6537 On ch=1 n=67 v=0
6537 On ch=1 n=79 v=0
6539 On ch=6 n=72 v=0
6569 On ch=1 n=58 v=0
6576 On ch=1 n=53 v=113
6624 On ch=1 n=58 v=115
6625 On ch=1 n=62 v=0
6672 On ch=1 n=62 v=115
6720 On ch=1 n=67 v=117
6720 On ch=1 n=79 v=116
6725 On ch=1 n=53 v=0
6768 On ch=1 n=53 v=115
6816 On ch=1 n=65 v=120
6816 On ch=1 n=77 v=118
6820 On ch=1 n=62 v=0
6843 On ch=1 n=53 v=0
6858 On ch=6 n=74 v=0
6864 On ch=1 n=53 v=114
6864 On ch=6 n=70 v=121
6867 On ch=1 n=58 v=0
6907 On ch=1 n=77 v=0
6910 On ch=1 n=46 v=0
6912 On ch=6 n=70 v=0
6912 On ch=1 n=43 v=122
6912 On ch=1 n=58 v=120
6912 On ch=1 n=62 v=123
6912 On ch=6 n=72 v=122
6913 On ch=1 n=34 v=0
6914 On ch=1 n=53 v=0
6916 On ch=1 n=65 v=0
6920 On ch=1 n=67 v=0
6921 On ch=1 n=79 v=0
6957 On ch=6 n=72 v=0
6960 On ch=1 n=55 v=116
6960 On ch=6 n=74 v=117
6967 On ch=1 n=58 v=0
6984 On ch=6 n=73 v=118
7002 On ch=6 n=73 v=0
7008 On ch=1 n=58 v=117
7018 On ch=1 n=62 v=0
7056 On ch=1 n=62 v=118
7104 On ch=1 n=69 v=117
7104 On ch=1 n=81 v=116
7125 On ch=1 n=55 v=0
7152 On ch=1 n=55 v=117
7156 On ch=1 n=69 v=0
7200 On ch=1 n=67 v=121
7200 On ch=1 n=79 v=118
7202 On ch=1 n=62 v=0
7227 On ch=6 n=74 v=0
7248 On ch=1 n=62 v=117
7248 On ch=6 n=74 v=123
7259 On ch=1 n=58 v=0
7264 On ch=1 n=62 v=0
7291 On ch=1 n=79 v=0
7292 On ch=1 n=55 v=0
7295 On ch=6 n=74 v=0
7296 On ch=1 n=36 v=123
7296 On ch=1 n=48 v=123
7296 On ch=1 n=60 v=123
7296 On ch=1 n=63 v=123
7296 On ch=6 n=75 v=123
7298 On ch=1 n=43 v=0
7305 On ch=1 n=81 v=0
7306 On ch=1 n=67 v=0
7340 On ch=1 n=60 v=0
7344 On ch=6 n=75 v=0
7344 On ch=1 n=60 v=119
7344 On ch=6 n=77 v=122
7364 On ch=1 n=63 v=0
7368 On ch=6 n=75 v=121
7369 On ch=6 n=77 v=0
7392 On ch=1 n=63 v=117
7416 On ch=6 n=75 v=0
7416 On ch=6 n=74 v=120
7440 On ch=1 n=67 v=109
7458 On ch=6 n=74 v=0
7464 On ch=6 n=72 v=120
7488 On ch=1 n=74 v=116
7488 On ch=1 n=86 v=116
7502 On ch=1 n=60 v=0
7536 On ch=1 n=60 v=119
7543 On ch=1 n=74 v=0
7584 On ch=1 n=72 v=121
7584 On ch=1 n=84 v=118
7592 On ch=1 n=67 v=0
7615 On ch=1 n=63 v=0
7619 On ch=6 n=72 v=0
7632 On ch=1 n=63 v=121
7632 On ch=6 n=72 v=120
7652 On ch=1 n=48 v=0
7656 On ch=6 n=74 v=122
7657 On ch=1 n=36 v=0
7664 On ch=6 n=72 v=0
7675 On ch=1 n=84 v=0
7680 On ch=1 n=36 v=123
7680 On ch=1 n=48 v=123
7680 On ch=1 n=67 v=123
7680 On ch=6 n=75 v=121
7686 On ch=1 n=60 v=0
7689 On ch=1 n=86 v=0
7691 On ch=6 n=74 v=0
7723 On ch=1 n=63 v=0
7726 On ch=6 n=75 v=0
7728 On ch=1 n=60 v=114
7728 On ch=6 n=77 v=121
7736 On ch=1 n=36 v=0
7752 On ch=1 n=36 v=99
7752 On ch=6 n=75 v=120
7762 On ch=6 n=77 v=0
7771 On ch=1 n=67 v=0
7776 On ch=1 n=63 v=118
7781 On ch=1 n=36 v=0
7792 On ch=6 n=75 v=0
7800 On ch=6 n=74 v=120
7821 On ch=1 n=60 v=0
7824 On ch=1 n=63 v=0
7824 On ch=1 n=67 v=117
7824 On ch=6 n=72 v=118
7838 On ch=6 n=74 v=0
7864 On ch=1 n=72 v=0
7868 On ch=1 n=48 v=0
7869 On ch=1 n=67 v=0
7872 On ch=1 n=41 v=113
7872 On ch=1 n=53 v=121
7872 On ch=1 n=69 v=123
7920 On ch=1 n=63 v=117
7968 On ch=1 n=65 v=119
8010 On ch=1 n=63 v=0
8010 On ch=1 n=69 v=0
8016 On ch=1 n=72 v=119
8021 On ch=1 n=65 v=0
8030 On ch=1 n=72 v=0
8053 On ch=6 n=72 v=0
8064 On ch=1 n=53 v=0
8064 On ch=1 n=46 v=121
8064 On ch=1 n=58 v=119
8064 On ch=1 n=62 v=122
8064 On ch=6 n=73 v=122
8064 On ch=6 n=74 v=123
8068 On ch=1 n=41 v=0
8069 On ch=6 n=73 v=0
8102 On ch=6 n=74 v=0
8112 On ch=1 n=53 v=113
8112 On ch=6 n=74 v=122
8121 On ch=1 n=58 v=0
8160 On ch=1 n=58 v=118
8170 On ch=1 n=62 v=0
8208 On ch=1 n=62 v=120
8208 On ch=6 n=72 v=120
8214 On ch=6 n=74 v=0
8231 On ch=6 n=72 v=0
8232 On ch=6 n=70 v=120
8253 On ch=6 n=70 v=0
8256 On ch=1 n=67 v=120
8256 On ch=1 n=79 v=116
8256 On ch=6 n=72 v=118
8263 On ch=1 n=53 v=0
8280 On ch=6 n=74 v=118
8288 On ch=6 n=72 v=0
8304 On ch=1 n=53 v=116
8309 On ch=6 n=74 v=0
8350 On ch=1 n=62 v=0
8352 On ch=1 n=65 v=119
8352 On ch=1 n=77 v=118
8358 On ch=1 n=53 v=0
8400 On ch=1 n=53 v=112
8400 On ch=6 n=77 v=123
8402 On ch=1 n=58 v=0
8438 On ch=6 n=77 v=0
8443 On ch=1 n=77 v=0
8443 On ch=1 n=53 v=0
8446 On ch=1 n=65 v=0
8448 On ch=1 n=43 v=120
8448 On ch=1 n=58 v=122
8448 On ch=1 n=62 v=123
8448 On ch=6 n=80 v=122
8448 On ch=6 n=81 v=122
8449 On ch=1 n=46 v=0
8455 On ch=6 n=80 v=0
8457 On ch=1 n=67 v=0
8457 On ch=1 n=79 v=0
8496 On ch=1 n=55 v=117
8504 On ch=1 n=58 v=0
8515 On ch=6 n=81 v=0
8520 On ch=6 n=79 v=120
8544 On ch=1 n=58 v=121
8561 On ch=1 n=62 v=0
8592 On ch=1 n=62 v=120
8640 On ch=1 n=69 v=117
8640 On ch=1 n=81 v=116
8645 On ch=1 n=55 v=0
8688 On ch=1 n=55 v=121
8691 On ch=1 n=69 v=0
8736 On ch=1 n=67 v=120
8736 On ch=1 n=79 v=118
8740 On ch=1 n=55 v=0
8753 On ch=1 n=62 v=0
8776 On ch=1 n=58 v=0
8784 On ch=1 n=55 v=117
8784 On ch=6 n=78 v=122
8788 On ch=6 n=79 v=0
8804 On ch=6 n=78 v=0
8808 On ch=6 n=79 v=122
8827 On ch=1 n=79 v=0
8827 On ch=1 n=55 v=0
8832 On ch=6 n=79 v=0
8832 On ch=1 n=48 v=123
8832 On ch=1 n=60 v=123
8832 On ch=1 n=63 v=122
8832 On ch=6 n=82 v=123
8834 On ch=1 n=43 v=0
8841 On ch=1 n=81 v=0
8872 On ch=6 n=82 v=0
8880 On ch=1 n=55 v=117
8880 On ch=6 n=82 v=122
8888 On ch=1 n=60 v=0
8891 On ch=1 n=63 v=0
8902 On ch=6 n=82 v=0
8904 On ch=6 n=82 v=122
8928 On ch=1 n=60 v=118
8973 On ch=1 n=55 v=0
8976 On ch=1 n=47 v=122
8976 On ch=1 n=55 v=119
8976 On ch=1 n=63 v=121
8989 On ch=1 n=60 v=0
8998 On ch=6 n=82 v=0
9000 On ch=6 n=81 v=120
9000 On ch=6 n=82 v=119
9005 On ch=1 n=48 v=0
9006 On ch=1 n=47 v=0
9007 On ch=1 n=63 v=0
9009 On ch=6 n=81 v=0
9020 On ch=1 n=55 v=0
9024 On ch=1 n=46 v=123
9024 On ch=1 n=58 v=123
9024 On ch=1 n=63 v=122
9033 On ch=1 n=67 v=0
9048 On ch=1 n=67 v=18
9070 On ch=1 n=58 v=0
9071 On ch=6 n=82 v=0
9072 On ch=1 n=55 v=117
9072 On ch=6 n=79 v=123
9081 On ch=1 n=63 v=0
9115 On ch=6 n=79 v=0
9116 On ch=1 n=46 v=0
9120 On ch=1 n=45 v=123
9120 On ch=1 n=57 v=123
9120 On ch=1 n=63 v=123
9120 On ch=6 n=74 v=123
9120 On ch=6 n=75 v=123
9125 On ch=1 n=67 v=0
9127 On ch=1 n=55 v=0
9132 On ch=6 n=75 v=0
9166 On ch=1 n=57 v=0
9168 On ch=1 n=55 v=118
9168 On ch=6 n=72 v=123
9184 On ch=6 n=74 v=0
9187 On ch=1 n=63 v=0
9216 On ch=1 n=55 v=0
9216 On ch=1 n=44 v=123
9216 On ch=1 n=58 v=123
9216 On ch=1 n=63 v=123
9217 On ch=1 n=45 v=0
9264 On ch=1 n=58 v=0
9264 On ch=1 n=56 v=120
9288 On ch=1 n=63 v=0
9307 On ch=1 n=56 v=0
9311 On ch=10 n=35 v=111
9311 On ch=10 n=45 v=111
9312 On ch=1 n=60 v=121
9312 On ch=1 n=63 v=120
9317 On ch=10 n=35 v=0
9321 On ch=10 n=45 v=0
9335 On ch=10 n=35 v=113
9335 On ch=10 n=45 v=113
9341 On ch=10 n=35 v=0
9344 On ch=10 n=45 v=0
9359 On ch=10 n=35 v=114
9359 On ch=10 n=45 v=114
9360 On ch=1 n=56 v=116
9365 On ch=10 n=35 v=0
9369 On ch=10 n=45 v=0
9373 On ch=1 n=63 v=0
9383 On ch=10 n=35 v=115
9383 On ch=10 n=45 v=115
9393 On ch=10 n=45 v=0
9394 On ch=10 n=35 v=0
9403 On ch=1 n=44 v=0
9405 On ch=1 n=56 v=0
9407 On ch=10 n=35 v=116
9407 On ch=10 n=45 v=116
9408 On ch=1 n=60 v=0
9408 On ch=1 n=43 v=122
9408 On ch=1 n=58 v=123
9408 On ch=1 n=63 v=123
9412 On ch=6 n=72 v=0
9417 On ch=10 n=45 v=0
9418 On ch=10 n=35 v=0
9431 On ch=10 n=35 v=117
9431 On ch=10 n=45 v=117
9440 On ch=10 n=45 v=0
9440 On ch=10 n=35 v=0
9455 On ch=10 n=35 v=118
9455 On ch=10 n=45 v=118
9456 On ch=1 n=55 v=113
9457 On ch=1 n=58 v=0
9465 On ch=10 n=45 v=0
9465 On ch=10 n=35 v=0
9479 On ch=10 n=35 v=119
9479 On ch=10 n=45 v=119
9489 On ch=10 n=45 v=0
9489 On ch=10 n=35 v=0
9490 On ch=1 n=63 v=0
9490 On ch=1 n=55 v=0
9503 On ch=10 n=35 v=121
9503 On ch=10 n=43 v=121
9504 On ch=1 n=41 v=122
9504 On ch=1 n=56 v=123
9504 On ch=1 n=63 v=123
9508 On ch=1 n=43 v=0
9513 On ch=10 n=35 v=0
9513 On ch=10 n=43 v=0
9527 On ch=10 n=35 v=122
9527 On ch=10 n=43 v=122
9537 On ch=10 n=43 v=0
9537 On ch=10 n=35 v=0
9551 On ch=10 n=35 v=123
9551 On ch=10 n=43 v=123
9552 On ch=1 n=53 v=117
9556 On ch=1 n=56 v=0
9560 On ch=10 n=43 v=0
9561 On ch=10 n=35 v=0
9572 On ch=1 n=63 v=0
9575 On ch=10 n=35 v=123
9575 On ch=10 n=43 v=123
9587 On ch=10 n=43 v=0
9587 On ch=10 n=35 v=0
9597 On ch=1 n=53 v=0
9599 On ch=1 n=41 v=0
9599 On ch=10 n=35 v=124
9599 On ch=10 n=49 v=124
9600 On ch=1 n=39 v=123
9600 On ch=1 n=51 v=122
9600 On ch=1 n=58 v=123
9600 On ch=1 n=63 v=123
9600 On ch=1 n=67 v=123
9600 On ch=3 n=75 v=80
9600 On ch=3 n=82 v=92
9600 On ch=6 n=78 v=123
9600 On ch=6 n=79 v=123
9606 On ch=2 n=39 v=125
9608 On ch=6 n=78 v=0
9647 On ch=10 n=51 v=120
9648 On ch=1 n=55 v=93
9656 On ch=1 n=67 v=0
9658 On ch=1 n=58 v=0
9662 On ch=1 n=63 v=0
9670 On ch=10 n=51 v=0
9695 On ch=10 n=40 v=124
9695 On ch=10 n=42 v=122
9695 On ch=10 n=51 v=122
9696 On ch=1 n=58 v=123
9696 On ch=1 n=63 v=122
9696 On ch=1 n=67 v=123
9705 On ch=1 n=55 v=0
9718 On ch=10 n=51 v=0
9728 On ch=10 n=42 v=0
9728 On ch=10 n=35 v=0
9729 On ch=2 n=39 v=0
9743 On ch=10 n=35 v=117
9743 On ch=10 n=51 v=120
9744 On ch=1 n=55 v=117
9746 On ch=1 n=67 v=0
9750 On ch=2 n=39 v=125
9755 On ch=1 n=58 v=0
9756 On ch=10 n=51 v=0
9758 On ch=10 n=35 v=0
9759 On ch=1 n=63 v=0
9765 On ch=2 n=39 v=0
9791 On ch=10 n=35 v=123
9791 On ch=10 n=51 v=122
9792 On ch=1 n=58 v=122
9792 On ch=1 n=63 v=121
9792 On ch=1 n=67 v=123
9798 On ch=2 n=39 v=125
9800 On ch=1 n=55 v=0
9814 On ch=10 n=51 v=0
9839 On ch=1 n=67 v=0
9839 On ch=10 n=51 v=117
9840 On ch=1 n=55 v=118
9848 On ch=1 n=58 v=0
9849 On ch=10 n=51 v=0
9852 On ch=10 n=40 v=0
9867 On ch=1 n=63 v=0
9879 On ch=1 n=55 v=0
9882 On ch=1 n=51 v=0
9886 On ch=6 n=79 v=0
9887 On ch=10 n=40 v=124
9887 On ch=10 n=42 v=123
9887 On ch=10 n=51 v=123
9888 On ch=1 n=38 v=122
9888 On ch=1 n=50 v=123
9888 On ch=1 n=58 v=123
9888 On ch=1 n=62 v=123
9888 On ch=1 n=65 v=123
9888 On ch=3 n=74 v=101
9888 On ch=6 n=77 v=123
9893 On ch=1 n=39 v=0
9894 On ch=2 n=39 v=0
9894 On ch=2 n=34 v=125
9898 On ch=3 n=75 v=0
9910 On ch=10 n=51 v=0
9913 On ch=10 n=42 v=0
9931 On ch=1 n=62 v=0
9935 On ch=10 n=51 v=118
9936 On ch=1 n=58 v=0
9936 On ch=1 n=53 v=117
9936 On ch=6 n=79 v=122
9941 On ch=6 n=77 v=0
9945 On ch=10 n=35 v=0
9952 On ch=10 n=51 v=0
9960 On ch=6 n=80 v=121
9964 On ch=6 n=79 v=0
9970 On ch=1 n=50 v=0
9977 On ch=1 n=53 v=0
9982 On ch=1 n=38 v=0
9983 On ch=10 n=35 v=124
9983 On ch=10 n=51 v=122
9984 On ch=3 n=74 v=0
9984 On ch=1 n=36 v=123
9984 On ch=1 n=48 v=123
9984 On ch=1 n=60 v=123
9984 On ch=1 n=63 v=123
9984 On ch=3 n=72 v=91
9984 On ch=3 n=75 v=80
9984 On ch=3 n=79 v=69
9984 On ch=3 n=84 v=91
9984 On ch=6 n=79 v=122
9986 On ch=6 n=80 v=0
9987 On ch=3 n=82 v=0
9989 On ch=1 n=65 v=0
9990 On ch=2 n=36 v=125
9993 On ch=2 n=34 v=0
9997 On ch=10 n=51 v=0
10016 On ch=1 n=60 v=0
10031 On ch=10 n=51 v=119
10032 On ch=1 n=60 v=116
10033 On ch=10 n=40 v=0
10040 On ch=1 n=63 v=0
10041 On ch=10 n=51 v=0
10079 On ch=10 n=40 v=124
10079 On ch=10 n=42 v=123
10079 On ch=10 n=51 v=123
10080 On ch=1 n=63 v=121
10088 On ch=1 n=60 v=0
10093 On ch=10 n=35 v=0
10098 On ch=2 n=36 v=0
10102 On ch=10 n=51 v=0
10107 On ch=10 n=42 v=0
10127 On ch=10 n=35 v=121
10127 On ch=10 n=51 v=120
10128 On ch=1 n=67 v=117
10134 On ch=2 n=36 v=125
10136 On ch=10 n=35 v=0
10144 On ch=10 n=51 v=0
10150 On ch=2 n=36 v=0
10161 On ch=1 n=63 v=0
10175 On ch=10 n=49 v=0
10175 On ch=10 n=35 v=124
10175 On ch=10 n=51 v=122
10176 On ch=1 n=62 v=119
10176 On ch=1 n=74 v=118
10176 On ch=3 n=77 v=100
10179 On ch=1 n=67 v=0
10182 On ch=2 n=36 v=125
10191 On ch=10 n=51 v=0
10223 On ch=10 n=51 v=120
10224 On ch=1 n=63 v=119
10226 On ch=1 n=62 v=0
10227 On ch=10 n=40 v=0
10236 On ch=10 n=51 v=0
10241 On ch=1 n=74 v=0
10262 On ch=3 n=77 v=0
10269 On ch=6 n=79 v=0
10271 On ch=10 n=40 v=124
10271 On ch=10 n=42 v=124
10271 On ch=10 n=51 v=123
10272 On ch=1 n=60 v=116
10272 On ch=1 n=72 v=122
10272 On ch=3 n=82 v=95
10278 On ch=2 n=31 v=125
10282 On ch=2 n=36 v=0
10286 On ch=10 n=51 v=0
10288 On ch=10 n=35 v=0
10302 On ch=10 n=42 v=0
10302 On ch=1 n=36 v=0
10313 On ch=1 n=48 v=0
10319 On ch=10 n=35 v=116
10319 On ch=10 n=51 v=113
10320 On ch=1 n=67 v=114
10320 On ch=6 n=79 v=123
10326 On ch=2 n=30 v=125
10328 On ch=10 n=35 v=0
10329 On ch=2 n=31 v=0
10336 On ch=10 n=51 v=0
10356 On ch=1 n=63 v=0
10360 On ch=1 n=67 v=0
10362 On ch=6 n=79 v=0
10366 On ch=3 n=79 v=0
10366 On ch=3 n=82 v=0
10367 On ch=10 n=35 v=124
10367 On ch=10 n=49 v=122
10368 On ch=3 n=75 v=0
10368 On ch=1 n=41 v=120
10368 On ch=1 n=53 v=123
10368 On ch=1 n=65 v=122
10368 On ch=1 n=68 v=123
10368 On ch=3 n=77 v=98
10368 On ch=3 n=80 v=96
10368 On ch=6 n=79 v=123
10368 On ch=6 n=80 v=119
10374 On ch=2 n=29 v=125
10380 On ch=2 n=30 v=0
10383 On ch=6 n=79 v=0
10388 On ch=1 n=60 v=0
10415 On ch=10 n=49 v=0
10415 On ch=10 n=51 v=118
10416 On ch=1 n=60 v=120
10418 On ch=10 n=40 v=0
10418 On ch=1 n=68 v=0
10422 On ch=1 n=72 v=0
10428 On ch=10 n=51 v=0
10435 On ch=6 n=80 v=0
10440 On ch=1 n=65 v=0
10440 On ch=6 n=79 v=123
10463 On ch=10 n=40 v=124
10463 On ch=10 n=42 v=123
10463 On ch=10 n=51 v=123
10464 On ch=1 n=65 v=123
10464 On ch=1 n=68 v=121
10464 On ch=1 n=72 v=120
10464 On ch=3 n=76 v=96
10469 On ch=1 n=60 v=0
10473 On ch=6 n=79 v=0
10478 On ch=10 n=35 v=0
10478 On ch=3 n=77 v=0
10481 On ch=10 n=51 v=0
10488 On ch=6 n=79 v=123
10490 On ch=1 n=53 v=0
10492 On ch=10 n=42 v=0
10502 On ch=1 n=65 v=0
10511 On ch=10 n=35 v=118
10511 On ch=10 n=49 v=120
10512 On ch=1 n=40 v=121
10512 On ch=1 n=52 v=115
10512 On ch=1 n=60 v=112
10512 On ch=1 n=64 v=122
10512 On ch=6 n=77 v=122
10516 On ch=6 n=79 v=0
10516 On ch=2 n=29 v=0
10518 On ch=1 n=41 v=0
10518 On ch=2 n=40 v=125
10522 On ch=10 n=35 v=0
10539 On ch=1 n=52 v=0
10540 On ch=6 n=77 v=0
10544 On ch=1 n=64 v=0
10545 On ch=1 n=68 v=0
10551 On ch=3 n=76 v=0
10559 On ch=10 n=49 v=0
10559 On ch=10 n=35 v=123
10559 On ch=10 n=49 v=123
10560 On ch=1 n=39 v=122
10560 On ch=1 n=51 v=123
10560 On ch=1 n=63 v=123
10560 On ch=1 n=68 v=123
10560 On ch=3 n=75 v=92
10560 On ch=6 n=77 v=123
10563 On ch=1 n=40 v=0
10566 On ch=2 n=39 v=125
10572 On ch=2 n=40 v=0
10593 On ch=1 n=60 v=0
10594 On ch=10 n=40 v=0
10607 On ch=10 n=51 v=119
10608 On ch=1 n=60 v=95
10615 On ch=1 n=63 v=0
10618 On ch=10 n=51 v=0
10626 On ch=1 n=68 v=0
10631 On ch=1 n=72 v=0
10644 On ch=1 n=51 v=0
10655 On ch=10 n=40 v=124
10655 On ch=10 n=42 v=123
10655 On ch=10 n=51 v=123
10656 On ch=10 n=35 v=0
10656 On ch=1 n=38 v=122
10656 On ch=1 n=50 v=123
10656 On ch=1 n=62 v=123
10656 On ch=1 n=68 v=123
10656 On ch=1 n=72 v=123
10656 On ch=3 n=74 v=99
10661 On ch=1 n=60 v=0
10662 On ch=2 n=38 v=125
10664 On ch=3 n=75 v=0
10667 On ch=2 n=39 v=0
10667 On ch=1 n=39 v=0
10675 On ch=10 n=51 v=0
10684 On ch=10 n=42 v=0
10696 On ch=1 n=50 v=0
10703 On ch=1 n=68 v=0
10703 On ch=10 n=35 v=117
10703 On ch=10 n=51 v=120
10704 On ch=1 n=60 v=110
10705 On ch=1 n=72 v=0
10712 On ch=3 n=72 v=0
10713 On ch=10 n=35 v=0
10716 On ch=10 n=51 v=0
10717 On ch=1 n=62 v=0
10723 On ch=2 n=38 v=0
10728 On ch=6 n=70 v=123
10734 On ch=2 n=36 v=119
10737 On ch=6 n=77 v=0
10743 On ch=1 n=60 v=0
10747 On ch=1 n=38 v=0
10750 On ch=6 n=70 v=0
10751 On ch=3 n=74 v=0
10751 On ch=10 n=35 v=123
10751 On ch=10 n=51 v=123
10752 On ch=1 n=34 v=121
10752 On ch=1 n=46 v=123
10752 On ch=1 n=62 v=123
10752 On ch=1 n=66 v=18
10752 On ch=1 n=70 v=122
10752 On ch=3 n=70 v=92
10752 On ch=3 n=74 v=86
10752 On ch=3 n=77 v=74
10752 On ch=3 n=82 v=88
10752 On ch=6 n=70 v=123
10758 On ch=2 n=34 v=125
10760 On ch=3 n=74 v=0
10760 On ch=3 n=84 v=0
10763 On ch=3 n=80 v=0
10767 On ch=10 n=51 v=0
10770 On ch=2 n=36 v=0
10775 On ch=10 n=49 v=0
10782 On ch=1 n=66 v=0
10793 On ch=6 n=70 v=0
10799 On ch=10 n=51 v=119
10800 On ch=1 n=58 v=107
10800 On ch=6 n=77 v=122
10806 On ch=10 n=40 v=0
10810 On ch=10 n=51 v=0
10810 On ch=1 n=62 v=0
10829 On ch=6 n=77 v=0
10847 On ch=10 n=40 v=124
10847 On ch=10 n=42 v=121
10847 On ch=10 n=51 v=124
10848 On ch=1 n=62 v=123
10848 On ch=1 n=65 v=123
10848 On ch=6 n=77 v=123
10855 On ch=1 n=58 v=0
10861 On ch=10 n=35 v=0
10864 On ch=10 n=51 v=0
10869 On ch=10 n=42 v=0
10881 On ch=2 n=34 v=0
10893 On ch=6 n=77 v=0
10895 On ch=10 n=35 v=122
10895 On ch=10 n=51 v=120
10896 On ch=1 n=58 v=105
10896 On ch=6 n=79 v=123
10902 On ch=1 n=65 v=0
10902 On ch=2 n=34 v=121
10904 On ch=10 n=35 v=0
10904 On ch=1 n=70 v=0
10905 On ch=1 n=62 v=0
10910 On ch=10 n=51 v=0
10924 On ch=6 n=79 v=0
10925 On ch=2 n=34 v=0
10943 On ch=10 n=35 v=124
10943 On ch=10 n=51 v=122
10944 On ch=1 n=62 v=122
10944 On ch=1 n=65 v=122
10944 On ch=1 n=70 v=120
10944 On ch=6 n=79 v=123
10947 On ch=1 n=58 v=0
10950 On ch=2 n=34 v=125
10952 On ch=10 n=40 v=0
10957 On ch=10 n=51 v=0
10979 On ch=2 n=34 v=0
10991 On ch=10 n=40 v=124
10991 On ch=10 n=51 v=120
10992 On ch=1 n=58 v=117
10992 On ch=6 n=80 v=122
10996 On ch=6 n=79 v=0
10998 On ch=2 n=34 v=125
11000 On ch=10 n=51 v=0
11003 On ch=1 n=62 v=0
11005 On ch=10 n=40 v=0
11006 On ch=1 n=65 v=0
11014 On ch=1 n=70 v=0
11029 On ch=6 n=80 v=0
11036 On ch=2 n=34 v=0
11039 On ch=10 n=40 v=124
11039 On ch=10 n=42 v=121
11040 On ch=1 n=62 v=122
11040 On ch=1 n=65 v=122
11040 On ch=1 n=70 v=117
11040 On ch=3 n=80 v=90
11040 On ch=6 n=80 v=122
11046 On ch=2 n=34 v=125
11050 On ch=10 n=35 v=0
11052 On ch=10 n=40 v=0
11058 On ch=10 n=42 v=0
11063 On ch=10 n=43 v=123
11065 On ch=1 n=70 v=0
11070 On ch=2 n=34 v=0
11070 On ch=2 n=36 v=125
11079 On ch=1 n=62 v=0
11081 On ch=1 n=65 v=0
11085 On ch=10 n=43 v=0
11087 On ch=10 n=35 v=124
11087 On ch=10 n=45 v=122
11088 On ch=6 n=82 v=122
11090 On ch=6 n=80 v=0
11091 On ch=1 n=34 v=0
11094 On ch=2 n=36 v=0
11094 On ch=2 n=38 v=125
11097 On ch=1 n=46 v=0
11103 On ch=10 n=45 v=0
11103 On ch=10 n=35 v=0
11135 On ch=10 n=35 v=123
11135 On ch=10 n=49 v=124
11136 On ch=1 n=39 v=121
11136 On ch=1 n=51 v=122
11136 On ch=1 n=63 v=122
11136 On ch=1 n=67 v=123
11136 On ch=3 n=75 v=90
11136 On ch=3 n=79 v=92
11136 On ch=6 n=80 v=119
11139 On ch=6 n=82 v=0
11139 On ch=3 n=80 v=0
11140 On ch=2 n=39 v=125
11141 On ch=2 n=38 v=0
11145 On ch=3 n=77 v=0
11159 On ch=1 n=58 v=0
11179 On ch=2 n=39 v=0
11181 On ch=6 n=80 v=0
11181 On ch=1 n=67 v=0
11183 On ch=3 n=75 v=0
11183 On ch=10 n=51 v=122
11184 On ch=1 n=58 v=102
11184 On ch=3 n=75 v=18
11184 On ch=6 n=79 v=118
11188 On ch=2 n=39 v=125
11194 On ch=10 n=51 v=0
11210 On ch=2 n=39 v=0
11231 On ch=10 n=40 v=124
11231 On ch=10 n=42 v=123
11231 On ch=10 n=51 v=123
11232 On ch=1 n=67 v=117
11236 On ch=2 n=39 v=125
11247 On ch=10 n=51 v=0
11248 On ch=10 n=35 v=0
11256 On ch=10 n=42 v=0
11267 On ch=2 n=39 v=0
11270 On ch=6 n=79 v=0
11277 On ch=1 n=63 v=0
11279 On ch=10 n=35 v=120
11279 On ch=10 n=51 v=119
11280 On ch=1 n=65 v=114
11280 On ch=6 n=77 v=123
11284 On ch=2 n=39 v=125
11291 On ch=1 n=67 v=0
11293 On ch=10 n=35 v=0
11295 On ch=10 n=51 v=0
11303 On ch=1 n=65 v=0
11304 On ch=6 n=77 v=0
11304 On ch=1 n=63 v=115
11304 On ch=6 n=75 v=122
11310 On ch=1 n=58 v=0
11311 On ch=1 n=51 v=0
11319 On ch=3 n=75 v=0
11323 On ch=3 n=79 v=0
11323 On ch=6 n=75 v=0
11327 On ch=10 n=35 v=124
11327 On ch=10 n=51 v=122
11328 On ch=1 n=38 v=119
11328 On ch=1 n=50 v=119
11328 On ch=1 n=58 v=123
11328 On ch=1 n=62 v=123
11328 On ch=1 n=65 v=123
11328 On ch=3 n=74 v=98
11328 On ch=3 n=77 v=73
11328 On ch=6 n=77 v=119
11331 On ch=2 n=39 v=0
11331 On ch=1 n=39 v=0
11332 On ch=2 n=38 v=125
11334 On ch=1 n=63 v=0
11345 On ch=10 n=51 v=0
11357 On ch=2 n=38 v=0
11358 On ch=1 n=58 v=0
11375 On ch=10 n=49 v=0
11375 On ch=10 n=51 v=117
11376 On ch=1 n=58 v=93
11380 On ch=2 n=38 v=125
11384 On ch=10 n=51 v=0
11385 On ch=10 n=40 v=0
11388 On ch=1 n=65 v=0
11390 On ch=1 n=62 v=0
11408 On ch=2 n=38 v=0
11423 On ch=10 n=40 v=124
11423 On ch=10 n=42 v=122
11423 On ch=10 n=51 v=123
11424 On ch=1 n=62 v=117
11424 On ch=1 n=65 v=117
11428 On ch=2 n=38 v=125
11433 On ch=10 n=35 v=0
11442 On ch=10 n=51 v=0
11447 On ch=10 n=42 v=0
11453 On ch=2 n=38 v=0
11464 On ch=1 n=62 v=0
11471 On ch=10 n=35 v=122
11471 On ch=10 n=51 v=115
11472 On ch=1 n=63 v=107
11472 On ch=6 n=75 v=123
11476 On ch=6 n=77 v=0
11476 On ch=2 n=38 v=125
11483 On ch=1 n=65 v=0
11486 On ch=10 n=51 v=0
11489 On ch=10 n=35 v=0
11493 On ch=1 n=58 v=0
11496 On ch=1 n=62 v=115
11496 On ch=6 n=74 v=116
11499 On ch=1 n=63 v=0
11502 On ch=6 n=75 v=0
11506 On ch=1 n=50 v=0
11515 On ch=3 n=70 v=0
11519 On ch=10 n=35 v=124
11519 On ch=10 n=51 v=122
11520 On ch=1 n=62 v=0
11520 On ch=6 n=74 v=0
11520 On ch=1 n=36 v=119
11520 On ch=1 n=48 v=121
11520 On ch=1 n=60 v=122
11520 On ch=1 n=63 v=118
11520 On ch=3 n=72 v=91
11520 On ch=3 n=75 v=83
11520 On ch=6 n=75 v=119
11521 On ch=3 n=74 v=0
11524 On ch=3 n=82 v=0
11524 On ch=1 n=38 v=0
11524 On ch=2 n=38 v=0
11526 On ch=2 n=36 v=125
11531 On ch=3 n=77 v=0
11538 On ch=10 n=51 v=0
11560 On ch=2 n=36 v=0
11567 On ch=10 n=51 v=119
11568 On ch=1 n=55 v=63
11574 On ch=2 n=36 v=125
11578 On ch=1 n=60 v=0
11579 On ch=1 n=63 v=0
11580 On ch=10 n=51 v=0
11581 On ch=10 n=40 v=0
11606 On ch=2 n=36 v=0
11615 On ch=10 n=40 v=124
11615 On ch=10 n=42 v=121
11615 On ch=10 n=51 v=124
11616 On ch=1 n=60 v=117
11616 On ch=1 n=63 v=117
11622 On ch=2 n=36 v=125
11624 On ch=1 n=55 v=0
11628 On ch=10 n=35 v=0
11629 On ch=10 n=51 v=0
11632 On ch=10 n=42 v=0
11663 On ch=1 n=60 v=0
11663 On ch=10 n=35 v=121
11663 On ch=10 n=42 v=120
11664 On ch=1 n=55 v=112
11664 On ch=6 n=70 v=121
11667 On ch=2 n=36 v=0
11670 On ch=6 n=75 v=0
11670 On ch=2 n=31 v=125
11672 On ch=1 n=63 v=0
11675 On ch=10 n=42 v=0
11676 On ch=10 n=35 v=0
11678 On ch=6 n=70 v=0
11688 On ch=6 n=70 v=122
11689 On ch=10 n=40 v=0
11709 On ch=6 n=70 v=0
11709 On ch=1 n=55 v=0
11711 On ch=10 n=35 v=124
11711 On ch=10 n=49 v=123
11712 On ch=1 n=44 v=122
11712 On ch=1 n=59 v=122
11712 On ch=1 n=63 v=117
11712 On ch=3 n=68 v=67
11712 On ch=3 n=71 v=92
11712 On ch=6 n=71 v=122
11713 On ch=1 n=48 v=0
11714 On ch=1 n=36 v=0
11717 On ch=2 n=31 v=0
11718 On ch=2 n=32 v=125
11719 On ch=3 n=72 v=0
11754 On ch=6 n=71 v=0
11760 On ch=1 n=56 v=107
11760 On ch=6 n=73 v=119
11769 On ch=1 n=63 v=0
11770 On ch=1 n=59 v=0
11784 On ch=6 n=71 v=120
11791 On ch=6 n=73 v=0
11808 On ch=1 n=59 v=121
11808 On ch=1 n=63 v=117
11808 On ch=6 n=73 v=119
11812 On ch=1 n=56 v=0
11815 On ch=6 n=71 v=0
11829 On ch=6 n=73 v=0
11832 On ch=6 n=71 v=119
11847 On ch=10 n=35 v=0
11849 On ch=6 n=71 v=0
11856 On ch=1 n=56 v=109
11856 On ch=6 n=73 v=119
11873 On ch=6 n=73 v=0
11873 On ch=3 n=71 v=0
11880 On ch=6 n=71 v=121
11881 On ch=10 n=49 v=0
11893 On ch=1 n=44 v=0
11895 On ch=1 n=56 v=0
11897 On ch=6 n=71 v=0
11901 On ch=1 n=59 v=0
11903 On ch=10 n=35 v=124
11903 On ch=10 n=49 v=123
11904 On ch=1 n=39 v=121
11904 On ch=1 n=51 v=117
11904 On ch=3 n=63 v=63
11904 On ch=3 n=70 v=77
11904 On ch=6 n=70 v=120
11910 On ch=2 n=27 v=125
11910 On ch=2 n=39 v=125
11912 On ch=3 n=75 v=0
11913 On ch=1 n=63 v=0
11915 On ch=2 n=32 v=0
11919 On ch=3 n=68 v=0
11952 On ch=1 n=63 v=114
12000 On ch=1 n=67 v=117
12045 On ch=1 n=67 v=0
12048 On ch=1 n=70 v=120
12085 On ch=3 n=63 v=0
12095 On ch=1 n=70 v=0
12095 On ch=3 n=70 v=0
12096 On ch=1 n=68 v=121
12096 On ch=1 n=72 v=116
12096 On ch=3 n=68 v=76
12096 On ch=3 n=72 v=60
12096 On ch=3 n=75 v=18
12096 On ch=3 n=80 v=51
12120 On ch=6 n=70 v=0
12144 On ch=1 n=75 v=112
12146 On ch=1 n=72 v=0
12155 On ch=1 n=68 v=0
12189 On ch=3 n=75 v=0
12191 On ch=3 n=80 v=0
12192 On ch=1 n=67 v=116
12192 On ch=1 n=70 v=118
12192 On ch=3 n=67 v=96
12192 On ch=3 n=70 v=90
12195 On ch=3 n=68 v=0
12196 On ch=1 n=75 v=0
12196 On ch=3 n=72 v=0
12240 On ch=1 n=75 v=116
12247 On ch=1 n=67 v=0
12252 On ch=1 n=70 v=0
12288 On ch=1 n=66 v=108
12288 On ch=1 n=69 v=118
12288 On ch=3 n=66 v=63
12288 On ch=3 n=69 v=63
12293 On ch=1 n=75 v=0
12294 On ch=3 n=70 v=0
12299 On ch=3 n=67 v=0
12335 On ch=10 n=42 v=121
12336 On ch=1 n=75 v=119
12337 On ch=1 n=69 v=0
12346 On ch=1 n=66 v=0
12346 On ch=10 n=49 v=0
12354 On ch=3 n=69 v=0
12383 On ch=10 n=40 v=122
12384 On ch=1 n=65 v=119
12384 On ch=1 n=68 v=120
12384 On ch=3 n=65 v=97
12384 On ch=3 n=68 v=88
12386 On ch=1 n=75 v=0
12388 On ch=3 n=66 v=0
12407 On ch=10 n=40 v=0
12407 On ch=10 n=43 v=119
12420 On ch=2 n=39 v=0
12422 On ch=2 n=27 v=0
12427 On ch=10 n=35 v=0
12430 On ch=10 n=43 v=0
12431 On ch=10 n=45 v=117
12432 On ch=1 n=75 v=121
12446 On ch=1 n=68 v=0
12455 On ch=3 n=68 v=0
12460 On ch=1 n=65 v=0
12465 On ch=1 n=63 v=0
12467 On ch=1 n=75 v=0
12470 On ch=10 n=45 v=0
12475 On ch=1 n=39 v=0
12476 On ch=3 n=65 v=0
12477 On ch=1 n=51 v=0
12479 On ch=10 n=35 v=124
12479 On ch=10 n=49 v=124
12480 On ch=1 n=34 v=121
12480 On ch=1 n=46 v=123
12480 On ch=1 n=58 v=119
12480 On ch=2 n=34 v=125
12522 On ch=10 n=42 v=0
12528 On ch=1 n=53 v=115
12545 On ch=1 n=58 v=0
12570 On ch=10 n=35 v=0
12574 On ch=10 n=42 v=122
12575 On ch=10 n=40 v=124
12576 On ch=1 n=58 v=117
12597 On ch=10 n=42 v=0
12599 On ch=2 n=34 v=0
12622 On ch=10 n=35 v=119
12623 On ch=10 n=42 v=116
12624 On ch=1 n=62 v=115
12626 On ch=2 n=34 v=122
12633 On ch=10 n=35 v=0
12636 On ch=10 n=42 v=0
12645 On ch=2 n=34 v=0
12671 On ch=2 n=34 v=124
12671 On ch=10 n=35 v=124
12671 On ch=10 n=42 v=122
12672 On ch=1 n=67 v=116
12672 On ch=1 n=79 v=116
12687 On ch=1 n=53 v=0
12689 On ch=10 n=42 v=0
12719 On ch=10 n=42 v=114
12720 On ch=1 n=53 v=101
12727 On ch=10 n=40 v=0
12732 On ch=10 n=42 v=0
12767 On ch=10 n=40 v=124
12767 On ch=10 n=42 v=123
12768 On ch=1 n=65 v=117
12768 On ch=1 n=77 v=118
12774 On ch=1 n=53 v=0
12785 On ch=1 n=62 v=0
12791 On ch=10 n=42 v=0
12815 On ch=10 n=42 v=114
12816 On ch=1 n=53 v=107
12819 On ch=1 n=58 v=0
12829 On ch=10 n=42 v=0
12830 On ch=10 n=35 v=0
12837 On ch=2 n=34 v=0
12837 On ch=1 n=34 v=0
12855 On ch=1 n=65 v=0
12859 On ch=1 n=77 v=0
12863 On ch=2 n=34 v=125
12863 On ch=10 n=35 v=123
12863 On ch=10 n=42 v=122
12864 On ch=1 n=34 v=123
12864 On ch=1 n=58 v=118
12864 On ch=1 n=62 v=123
12870 On ch=1 n=53 v=0
12873 On ch=1 n=79 v=0
12875 On ch=10 n=49 v=0
12884 On ch=10 n=42 v=0
12911 On ch=10 n=42 v=113
12912 On ch=1 n=53 v=104
12920 On ch=1 n=62 v=0
12921 On ch=1 n=58 v=0
12922 On ch=10 n=40 v=0
12926 On ch=10 n=42 v=0
12959 On ch=10 n=40 v=124
12959 On ch=10 n=42 v=122
12960 On ch=1 n=58 v=113
12976 On ch=10 n=35 v=0
12976 On ch=2 n=34 v=0
12979 On ch=10 n=42 v=0
13007 On ch=2 n=34 v=125
13007 On ch=10 n=35 v=121
13007 On ch=10 n=42 v=116
13008 On ch=1 n=62 v=116
13012 On ch=1 n=67 v=0
13020 On ch=10 n=42 v=0
13021 On ch=10 n=35 v=0
13026 On ch=2 n=34 v=0
13055 On ch=2 n=34 v=125
13055 On ch=10 n=35 v=123
13055 On ch=10 n=42 v=120
13056 On ch=1 n=67 v=116
13056 On ch=1 n=79 v=116
13067 On ch=1 n=53 v=0
13073 On ch=10 n=42 v=0
13103 On ch=10 n=42 v=115
13104 On ch=1 n=53 v=108
13105 On ch=10 n=40 v=0
13118 On ch=10 n=42 v=0
13119 On ch=1 n=62 v=0
13151 On ch=2 n=29 v=123
13151 On ch=10 n=40 v=124
13151 On ch=10 n=42 v=121
13152 On ch=1 n=65 v=118
13152 On ch=1 n=77 v=118
13155 On ch=2 n=34 v=0
13162 On ch=10 n=42 v=0
13164 On ch=1 n=53 v=0
13175 On ch=10 n=42 v=120
13198 On ch=1 n=58 v=0
13199 On ch=10 n=42 v=0
13199 On ch=10 n=46 v=120
13200 On ch=1 n=53 v=115
13209 On ch=10 n=35 v=0
13213 On ch=1 n=34 v=0
13214 On ch=1 n=46 v=0
13243 On ch=1 n=65 v=0
13243 On ch=1 n=77 v=0
13247 On ch=2 n=29 v=0
13247 On ch=2 n=34 v=125
13247 On ch=5 n=62 v=122
13247 On ch=10 n=35 v=123
13247 On ch=10 n=49 v=123
13248 On ch=1 n=34 v=123
13248 On ch=1 n=46 v=123
13248 On ch=1 n=58 v=122
13248 On ch=1 n=62 v=122
13250 On ch=10 n=46 v=0
13251 On ch=1 n=53 v=0
13257 On ch=1 n=67 v=0
13257 On ch=1 n=79 v=0
13282 Pb ch=5 v=6400
13286 Pb ch=5 v=1792
13289 On ch=1 n=58 v=0
13290 Pb ch=5 v=512
13294 Pb ch=5 v=8192
13295 On ch=10 n=42 v=113
13296 On ch=1 n=53 v=113
13300 On ch=10 n=40 v=0
13310 On ch=10 n=42 v=0
13343 On ch=10 n=40 v=124
13343 On ch=10 n=42 v=123
13344 On ch=1 n=58 v=115
13345 On ch=1 n=62 v=0
13358 On ch=2 n=34 v=0
13359 On ch=10 n=35 v=0
13367 On ch=10 n=42 v=0
13391 On ch=2 n=34 v=122
13391 On ch=10 n=35 v=120
13391 On ch=10 n=42 v=117
13392 On ch=1 n=62 v=115
13405 On ch=10 n=35 v=0
13408 On ch=10 n=42 v=0
13411 On ch=2 n=34 v=0
13439 On ch=2 n=34 v=125
13439 On ch=10 n=35 v=123
13439 On ch=10 n=42 v=115
13440 On ch=1 n=67 v=117
13440 On ch=1 n=79 v=116
13445 On ch=1 n=53 v=0
13461 On ch=10 n=42 v=0
13463 On ch=10 n=49 v=0
13475 Pb ch=5 v=7808
13481 Pb ch=5 v=8192
13487 On ch=10 n=42 v=114
13488 On ch=1 n=53 v=115
13490 On ch=10 n=40 v=0
13502 On ch=10 n=42 v=0
13521 Par ch=5 c=1 v=20
13529 Par ch=5 c=1 v=60
13535 On ch=10 n=40 v=124
13535 On ch=10 n=42 v=123
13536 On ch=1 n=65 v=120
13536 On ch=1 n=77 v=118
13537 Par ch=5 c=1 v=76
13540 On ch=1 n=62 v=0
13545 Par ch=5 c=1 v=82
13553 Par ch=5 c=1 v=100
13558 On ch=10 n=42 v=0
13561 Par ch=5 c=1 v=73
13563 On ch=1 n=53 v=0
13565 Par ch=5 c=0 v=40
13569 Par ch=5 c=1 v=0
13583 On ch=10 n=42 v=114
13584 On ch=5 n=62 v=0
13584 On ch=1 n=53 v=114
13586 On ch=5 n=58 v=123
13587 On ch=1 n=58 v=0
13592 On ch=10 n=35 v=0
13600 On ch=10 n=42 v=0
13621 On ch=5 n=58 v=0
13627 On ch=1 n=77 v=0
13630 On ch=1 n=46 v=0
13630 On ch=2 n=34 v=0
13630 On ch=5 n=60 v=123
13631 On ch=2 n=31 v=125
13631 On ch=10 n=35 v=123
13631 On ch=10 n=42 v=120
13632 On ch=1 n=43 v=122
13632 On ch=1 n=58 v=120
13632 On ch=1 n=62 v=123
13633 On ch=1 n=34 v=0
13634 On ch=1 n=53 v=0
13636 On ch=1 n=65 v=0
13640 On ch=1 n=67 v=0
13641 On ch=1 n=79 v=0
13649 On ch=10 n=42 v=0
13672 On ch=5 n=60 v=0
13675 On ch=5 n=62 v=123
13676 On ch=10 n=40 v=0
13679 On ch=10 n=42 v=115
13680 On ch=1 n=55 v=116
13687 On ch=1 n=58 v=0
13692 On ch=10 n=42 v=0
13696 Pb ch=5 v=5376
13700 Pb ch=5 v=3456
13705 Pb ch=5 v=5120
13709 Pb ch=5 v=8192
13727 On ch=10 n=40 v=124
13727 On ch=10 n=42 v=123
13728 On ch=1 n=58 v=117
13738 On ch=1 n=62 v=0
13740 On ch=10 n=35 v=0
13741 On ch=2 n=31 v=0
13751 On ch=10 n=42 v=0
13775 On ch=2 n=31 v=123
13775 On ch=10 n=35 v=121
13775 On ch=10 n=42 v=116
13776 On ch=1 n=62 v=118
13788 On ch=10 n=35 v=0
13792 On ch=10 n=42 v=0
13794 Par ch=5 c=1 v=11
13798 On ch=2 n=31 v=0
13802 Par ch=5 c=1 v=28
13810 Par ch=5 c=1 v=41
13818 Par ch=5 c=1 v=53
13823 On ch=2 n=31 v=124
13823 On ch=10 n=35 v=123
13823 On ch=10 n=42 v=121
13824 On ch=1 n=69 v=117
13824 On ch=1 n=81 v=116
13826 Par ch=5 c=1 v=75
13835 Par ch=5 c=1 v=77
13838 On ch=10 n=42 v=0
13845 On ch=1 n=55 v=0
13851 Par ch=5 c=1 v=86
13859 Par ch=5 c=1 v=96
13871 On ch=10 n=42 v=116
13872 On ch=1 n=55 v=117
13876 On ch=1 n=69 v=0
13876 Par ch=5 c=1 v=101
13878 On ch=10 n=40 v=0
13880 On ch=10 n=42 v=0
13885 Par ch=5 c=1 v=97
13893 Par ch=5 c=1 v=61
13901 Par ch=5 c=1 v=0
13903 On ch=5 n=62 v=0
13919 On ch=10 n=40 v=124
13919 On ch=10 n=42 v=123
13920 On ch=1 n=67 v=121
13920 On ch=1 n=79 v=118
13922 On ch=1 n=62 v=0
13939 On ch=10 n=42 v=0
13967 On ch=10 n=42 v=116
13968 On ch=1 n=62 v=117
13969 On ch=5 n=62 v=122
13977 On ch=10 n=35 v=0
13979 On ch=1 n=58 v=0
13983 On ch=10 n=42 v=0
13984 On ch=1 n=62 v=0
14011 On ch=1 n=79 v=0
14011 On ch=5 n=62 v=0
14012 On ch=1 n=55 v=0
14015 On ch=2 n=36 v=124
14015 On ch=10 n=35 v=124
14015 On ch=10 n=42 v=120
14016 On ch=1 n=36 v=123
14016 On ch=1 n=48 v=123
14016 On ch=1 n=60 v=123
14016 On ch=1 n=63 v=123
14016 On ch=5 n=63 v=122
14018 On ch=1 n=43 v=0
14020 On ch=2 n=31 v=0
14025 On ch=1 n=81 v=0
14026 On ch=1 n=67 v=0
14034 On ch=10 n=42 v=0
14060 On ch=1 n=60 v=0
14061 On ch=5 n=63 v=0
14063 On ch=10 n=42 v=116
14064 On ch=1 n=60 v=119
14065 On ch=5 n=65 v=122
14066 On ch=10 n=40 v=0
14076 On ch=10 n=42 v=0
14084 On ch=1 n=63 v=0
14088 On ch=5 n=63 v=123
14099 On ch=5 n=65 v=0
14111 On ch=10 n=40 v=124
14111 On ch=10 n=42 v=123
14112 On ch=1 n=63 v=117
14122 On ch=2 n=36 v=0
14130 On ch=10 n=35 v=0
14134 On ch=10 n=42 v=0
14136 On ch=5 n=63 v=0
14136 On ch=5 n=62 v=122
14159 On ch=2 n=36 v=122
14159 On ch=10 n=35 v=120
14159 On ch=10 n=42 v=117
14160 On ch=1 n=67 v=109
14163 On ch=5 n=62 v=0
14164 On ch=5 n=60 v=122
14175 On ch=10 n=42 v=0
14175 On ch=10 n=35 v=0
14178 On ch=2 n=36 v=0
14207 On ch=2 n=36 v=125
14207 On ch=10 n=35 v=123
14207 On ch=10 n=42 v=120
14208 On ch=1 n=74 v=116
14208 On ch=1 n=86 v=116
14222 On ch=1 n=60 v=0
14223 On ch=10 n=42 v=0
14235 Par ch=5 c=1 v=1
14243 Par ch=5 c=1 v=33
14251 Par ch=5 c=1 v=51
14255 On ch=10 n=42 v=113
14256 On ch=1 n=60 v=119
14260 Par ch=5 c=1 v=76
14263 On ch=1 n=74 v=0
14263 On ch=10 n=40 v=0
14268 On ch=10 n=42 v=0
14268 Par ch=5 c=1 v=103
14276 Par ch=5 c=1 v=121
14284 Par ch=5 c=1 v=107
14292 Par ch=5 c=1 v=65
14293 On ch=5 n=60 v=0
14300 Par ch=5 c=1 v=0
14303 On ch=10 n=40 v=124
14303 On ch=10 n=42 v=122
14304 On ch=1 n=72 v=121
14304 On ch=1 n=84 v=118
14312 On ch=1 n=67 v=0
14324 On ch=10 n=42 v=0
14335 On ch=1 n=63 v=0
14349 On ch=5 n=60 v=122
14350 On ch=2 n=36 v=0
14351 On ch=2 n=31 v=123
14351 On ch=10 n=42 v=118
14352 On ch=1 n=63 v=121
14364 On ch=10 n=35 v=0
14365 On ch=10 n=42 v=0
14372 On ch=1 n=48 v=0
14374 On ch=5 n=62 v=122
14377 On ch=1 n=36 v=0
14380 On ch=5 n=60 v=0
14395 On ch=1 n=84 v=0
14399 On ch=5 n=62 v=0
14399 On ch=2 n=36 v=125
14399 On ch=10 n=35 v=123
14399 On ch=10 n=42 v=120
14400 On ch=1 n=36 v=123
14400 On ch=1 n=48 v=123
14400 On ch=1 n=67 v=123
14401 On ch=5 n=63 v=122
14404 On ch=2 n=31 v=0
14406 On ch=1 n=60 v=0
14409 On ch=1 n=86 v=0
14418 On ch=10 n=42 v=0
14440 On ch=5 n=63 v=0
14443 On ch=1 n=63 v=0
14444 On ch=5 n=65 v=122
14447 On ch=10 n=42 v=113
14448 On ch=10 n=40 v=0
14448 On ch=1 n=60 v=114
14456 On ch=1 n=36 v=0
14457 On ch=10 n=42 v=0
14472 On ch=1 n=36 v=99
14474 On ch=5 n=63 v=122
14479 On ch=5 n=65 v=0
14491 On ch=1 n=67 v=0
14495 On ch=10 n=40 v=124
14495 On ch=10 n=42 v=122
14496 On ch=1 n=63 v=118
14501 On ch=1 n=36 v=0
14510 On ch=10 n=35 v=0
14511 On ch=10 n=42 v=0
14511 On ch=5 n=62 v=122
14513 On ch=5 n=63 v=0
14535 On ch=5 n=62 v=0
14536 Pb ch=5 v=7936
14540 On ch=2 n=36 v=0
14540 Pb ch=5 v=6400
14541 On ch=1 n=60 v=0
14543 On ch=2 n=31 v=123
14543 On ch=10 n=35 v=121
14543 On ch=10 n=46 v=120
14544 On ch=1 n=63 v=0
14544 On ch=1 n=67 v=117
14544 Pb ch=5 v=5248
14545 On ch=5 n=62 v=122
14548 Pb ch=5 v=3584
14553 Pb ch=5 v=3712
14557 Pb ch=5 v=8192
14558 On ch=10 n=35 v=0
14567 On ch=2 n=30 v=120
14570 On ch=2 n=31 v=0
14584 On ch=1 n=72 v=0
14588 On ch=1 n=48 v=0
14588 On ch=10 n=46 v=0
14589 On ch=1 n=67 v=0
14589 On ch=5 n=62 v=0
14589 On ch=5 n=60 v=122
14591 On ch=2 n=29 v=125
14591 On ch=10 n=35 v=123
14591 On ch=10 n=42 v=121
14592 On ch=1 n=41 v=113
14592 On ch=1 n=53 v=121
14592 On ch=1 n=69 v=123
14597 On ch=2 n=30 v=0
14598 On ch=10 n=40 v=0
14606 On ch=10 n=42 v=0
14639 On ch=10 n=40 v=124
14640 On ch=1 n=63 v=117
14659 On ch=10 n=40 v=0
14686 On ch=2 n=29 v=0
14687 On ch=2 n=29 v=125
14687 On ch=10 n=42 v=116
14687 On ch=10 n=43 v=124
14688 On ch=1 n=65 v=119
14706 On ch=10 n=35 v=0
14707 On ch=10 n=43 v=0
14711 On ch=10 n=42 v=0
14711 On ch=10 n=45 v=122
14730 On ch=1 n=63 v=0
14730 On ch=1 n=69 v=0
14735 On ch=10 n=35 v=123
14736 On ch=1 n=72 v=119
14741 On ch=1 n=65 v=0
14746 On ch=10 n=45 v=0
14750 On ch=1 n=72 v=0
14762 On ch=10 n=35 v=0
14780 On ch=5 n=60 v=0
14783 On ch=2 n=29 v=0
14783 On ch=2 n=34 v=125
14783 On ch=10 n=35 v=123
14783 On ch=10 n=49 v=122
14784 On ch=1 n=53 v=0
14784 On ch=1 n=46 v=121
14784 On ch=1 n=58 v=119
14784 On ch=1 n=62 v=122
14785 On ch=5 n=62 v=122
14788 On ch=1 n=41 v=0
14822 Pb ch=5 v=6784
14826 Pb ch=5 v=4992
14830 Pb ch=5 v=4608
14831 On ch=10 n=42 v=111
14832 On ch=1 n=53 v=113
14834 Pb ch=5 v=8192
14841 On ch=1 n=58 v=0
14855 On ch=10 n=42 v=0
14879 On ch=10 n=40 v=123
14879 On ch=10 n=42 v=122
14880 On ch=1 n=58 v=118
14890 On ch=1 n=62 v=0
14891 On ch=10 n=35 v=0
14899 On ch=10 n=42 v=0
14904 On ch=2 n=34 v=0
14927 On ch=2 n=34 v=121
14927 On ch=10 n=35 v=121
14927 On ch=10 n=42 v=113
14928 On ch=1 n=62 v=120
14928 On ch=5 n=60 v=122
14932 On ch=5 n=62 v=0
14941 On ch=10 n=42 v=0
14945 On ch=10 n=35 v=0
14951 On ch=5 n=60 v=0
14951 On ch=5 n=58 v=122
14963 On ch=2 n=34 v=0
14969 On ch=5 n=58 v=0
14974 On ch=5 n=60 v=122
14975 On ch=2 n=34 v=125
14975 On ch=10 n=35 v=124
14975 On ch=10 n=42 v=120
14976 On ch=1 n=67 v=120
14976 On ch=1 n=79 v=116
14983 On ch=1 n=53 v=0
14993 On ch=10 n=42 v=0
15001 On ch=5 n=60 v=0
15002 On ch=5 n=62 v=122
15019 On ch=5 n=62 v=0
15023 On ch=10 n=42 v=115
15024 On ch=1 n=53 v=116
15031 On ch=10 n=40 v=0
15039 On ch=10 n=42 v=0
15070 On ch=1 n=62 v=0
15071 On ch=10 n=40 v=124
15071 On ch=10 n=42 v=123
15072 On ch=1 n=65 v=119
15072 On ch=1 n=77 v=118
15078 On ch=1 n=53 v=0
15091 On ch=10 n=42 v=0
15095 On ch=10 n=49 v=0
15118 On ch=5 n=65 v=122
15119 On ch=10 n=42 v=116
15120 On ch=1 n=53 v=112
15122 On ch=1 n=58 v=0
15133 On ch=10 n=42 v=0
15133 On ch=10 n=35 v=0
15134 On ch=5 n=65 v=0
15162 On ch=2 n=34 v=0
15163 On ch=1 n=53 v=0
15163 On ch=1 n=77 v=0
15166 On ch=1 n=65 v=0
15166 On ch=5 n=67 v=122
15167 On ch=2 n=31 v=125
15167 On ch=10 n=35 v=124
15167 On ch=10 n=42 v=121
15168 On ch=1 n=43 v=120
15168 On ch=1 n=58 v=122
15168 On ch=1 n=62 v=123
15169 On ch=1 n=46 v=0
15175 Pb ch=5 v=10922
15177 On ch=1 n=79 v=0
15177 On ch=1 n=67 v=0
15179 On ch=1 n=60 v=109
15179 Pb ch=5 v=14042
15180 On ch=1 n=60 v=0
15183 Pb ch=5 v=16382
15186 On ch=10 n=42 v=0
15215 On ch=10 n=42 v=116
15216 On ch=1 n=55 v=117
15220 On ch=10 n=40 v=0
15224 On ch=1 n=58 v=0
15230 On ch=10 n=42 v=0
15231 Pb ch=5 v=15602
15235 Pb ch=5 v=12742
15239 Pb ch=5 v=8192
15249 On ch=5 n=67 v=0
15249 On ch=5 n=65 v=122
15259 On ch=5 n=67 v=122
15260 On ch=2 n=31 v=0
15263 On ch=5 n=65 v=0
15263 On ch=2 n=34 v=124
15263 On ch=10 n=40 v=124
15263 On ch=10 n=42 v=122
15264 On ch=1 n=58 v=121
15276 On ch=10 n=35 v=0
15281 On ch=1 n=62 v=0
15283 On ch=10 n=42 v=0
15311 On ch=2 n=38 v=122
15311 On ch=10 n=35 v=118
15311 On ch=10 n=42 v=115
15312 On ch=1 n=62 v=120
15314 On ch=2 n=34 v=0
15328 On ch=10 n=42 v=0
15329 On ch=10 n=35 v=0
15359 On ch=2 n=43 v=125
15359 On ch=10 n=35 v=124
15359 On ch=10 n=42 v=121
15360 On ch=1 n=69 v=117
15360 On ch=1 n=81 v=116
15361 On ch=2 n=38 v=0
15364 Par ch=5 c=1 v=9
15365 On ch=1 n=55 v=0
15372 Par ch=5 c=1 v=27
15377 On ch=10 n=42 v=0
15380 Par ch=5 c=1 v=51
15388 Par ch=5 c=1 v=74
15396 Par ch=5 c=1 v=80
15404 Par ch=5 c=1 v=91
15407 On ch=10 n=42 v=113
15408 On ch=1 n=55 v=121
15411 On ch=1 n=69 v=0
15412 Par ch=5 c=1 v=115
15419 On ch=10 n=40 v=0
15420 On ch=10 n=42 v=0
15420 Par ch=5 c=1 v=126
15428 Par ch=5 c=1 v=116
15436 Par ch=5 c=1 v=78
15444 Par ch=5 c=1 v=0
15445 On ch=5 n=67 v=0
15455 On ch=10 n=40 v=124
15455 On ch=10 n=42 v=122
15456 On ch=1 n=67 v=120
15456 On ch=1 n=79 v=118
15460 On ch=1 n=55 v=0
15473 On ch=1 n=62 v=0
15475 On ch=10 n=42 v=0
15483 On ch=10 n=35 v=0
15496 On ch=1 n=58 v=0
15497 On ch=5 n=65 v=122
15502 On ch=2 n=43 v=0
15503 On ch=2 n=38 v=125
15503 On ch=10 n=35 v=120
15503 On ch=10 n=43 v=121
15504 On ch=1 n=55 v=117
15518 On ch=10 n=43 v=0
15520 On ch=10 n=35 v=0
15522 On ch=5 n=67 v=122
15530 On ch=5 n=65 v=0
15547 On ch=1 n=79 v=0
15547 On ch=1 n=55 v=0
15549 On ch=5 n=67 v=0
15551 On ch=2 n=36 v=124
15551 On ch=10 n=35 v=123
15551 On ch=10 n=49 v=123
15552 On ch=1 n=48 v=123
15552 On ch=1 n=60 v=123
15552 On ch=1 n=63 v=122
15554 On ch=1 n=43 v=0
15557 On ch=5 n=70 v=122
15561 On ch=2 n=38 v=0
15561 On ch=1 n=81 v=0
15596 On ch=5 n=70 v=0
15599 On ch=10 n=46 v=120
15600 On ch=1 n=55 v=117
15605 On ch=10 n=40 v=0
15608 On ch=1 n=60 v=0
15609 On ch=5 n=70 v=122
15611 On ch=1 n=63 v=0
15632 On ch=5 n=70 v=0
15647 On ch=10 n=46 v=0
15647 On ch=10 n=40 v=124
15647 On ch=10 n=46 v=121
15648 On ch=1 n=60 v=118
15653 On ch=5 n=70 v=122
15660 On ch=10 n=35 v=0
15676 On ch=5 n=70 v=0
15685 On ch=5 n=70 v=122
15693 On ch=1 n=55 v=0
15695 On ch=10 n=46 v=0
15695 On ch=10 n=49 v=0
15695 On ch=2 n=35 v=125
15695 On ch=10 n=35 v=123
15695 On ch=10 n=49 v=124
15696 On ch=2 n=36 v=0
15696 On ch=1 n=47 v=122
15696 On ch=1 n=55 v=119
15696 On ch=1 n=63 v=121
15709 On ch=1 n=60 v=0
15710 On ch=5 n=70 v=0
15713 On ch=10 n=35 v=0
15724 On ch=5 n=70 v=122
15725 On ch=1 n=48 v=0
15726 On ch=1 n=47 v=0
15727 On ch=1 n=63 v=0
15728 Pb ch=5 v=6528
15732 Pb ch=5 v=5504
15738 Pb ch=5 v=5760
15740 On ch=1 n=55 v=0
15741 On ch=2 n=35 v=0
15742 Pb ch=5 v=8564
15743 On ch=10 n=49 v=0
15743 On ch=2 n=34 v=125
15743 On ch=10 n=35 v=124
15743 On ch=10 n=49 v=124
15744 On ch=1 n=46 v=123
15744 On ch=1 n=58 v=123
15744 On ch=1 n=63 v=122
15753 On ch=1 n=67 v=0
15768 On ch=1 n=67 v=18
15785 On ch=10 n=35 v=0
15790 On ch=1 n=58 v=0
15791 On ch=10 n=46 v=119
15792 On ch=1 n=55 v=117
15801 On ch=1 n=63 v=0
15807 On ch=5 n=67 v=122
15811 On ch=10 n=40 v=0
15813 On ch=5 n=70 v=0
15815 On ch=10 n=35 v=120
15836 On ch=1 n=46 v=0
15839 On ch=10 n=46 v=0
15839 On ch=5 n=67 v=0
15839 On ch=10 n=49 v=0
15839 On ch=2 n=33 v=125
15839 On ch=10 n=40 v=124
15839 On ch=10 n=49 v=124
15840 On ch=1 n=45 v=123
15840 On ch=1 n=57 v=123
15840 On ch=1 n=63 v=123
15841 On ch=2 n=34 v=0
15841 On ch=5 n=62 v=122
15845 On ch=1 n=67 v=0
15847 On ch=1 n=55 v=0
15864 Pb ch=5 v=12659
15879 On ch=10 n=35 v=0
15886 On ch=1 n=57 v=0
15887 On ch=10 n=35 v=123
15887 On ch=10 n=46 v=119
15888 On ch=1 n=55 v=118
15888 Pb ch=5 v=8936
15907 On ch=1 n=63 v=0
15907 Pb ch=5 v=8634
15911 On ch=10 n=35 v=0
15911 On ch=10 n=49 v=0
15912 Pb ch=5 v=8564
15913 On ch=5 n=60 v=122
15919 On ch=5 n=62 v=0
15933 On ch=2 n=33 v=0
15935 On ch=10 n=46 v=0
15935 On ch=2 n=32 v=125
15935 On ch=10 n=35 v=124
15935 On ch=10 n=49 v=124
15936 On ch=1 n=55 v=0
15936 On ch=1 n=44 v=123
15936 On ch=1 n=58 v=123
15936 On ch=1 n=63 v=123
15937 On ch=1 n=45 v=0
15983 On ch=10 n=46 v=121
15984 On ch=1 n=58 v=0
15984 On ch=1 n=56 v=120
15998 On ch=10 n=35 v=0
16008 On ch=1 n=63 v=0
16010 On ch=10 n=40 v=0
16027 On ch=1 n=56 v=0
16031 On ch=10 n=46 v=0
16031 On ch=10 n=40 v=124
16031 On ch=10 n=46 v=120
16032 On ch=1 n=60 v=121
16032 On ch=1 n=63 v=120
16079 On ch=10 n=46 v=0
16079 On ch=10 n=35 v=124
16079 On ch=10 n=46 v=120
16080 On ch=1 n=56 v=116
16082 Par ch=5 c=1 v=12
16086 On ch=10 n=40 v=0
16090 Par ch=5 c=1 v=38
16093 On ch=1 n=63 v=0
16098 Par ch=5 c=1 v=55
16106 Par ch=5 c=1 v=71
16114 Par ch=5 c=1 v=83
16122 Par ch=5 c=1 v=97
16123 On ch=1 n=44 v=0
16125 On ch=1 n=56 v=0
16127 On ch=10 n=49 v=0
16127 On ch=10 n=46 v=0
16127 On ch=2 n=31 v=124
16127 On ch=10 n=40 v=124
16127 On ch=10 n=46 v=123
16128 On ch=1 n=60 v=0
16128 On ch=1 n=43 v=122
16128 On ch=1 n=58 v=123
16128 On ch=1 n=63 v=123
16130 On ch=10 n=35 v=0
16130 Par ch=5 c=1 v=109
16132 On ch=2 n=32 v=0
16138 Par ch=5 c=1 v=119
16146 Par ch=5 c=1 v=127
16175 On ch=10 n=35 v=124
16176 On ch=1 n=55 v=113
16177 On ch=1 n=58 v=0
16177 On ch=5 n=60 v=0
16181 Par ch=5 c=1 v=126
16182 On ch=10 n=40 v=0
16189 Par ch=5 c=1 v=68
16197 Par ch=5 c=1 v=0
16210 On ch=1 n=55 v=0
16210 On ch=1 n=63 v=0
16220 On ch=2 n=31 v=0
16220 On ch=10 n=35 v=0
16223 On ch=10 n=46 v=0
16223 On ch=2 n=34 v=121
16223 On ch=10 n=40 v=124
16223 On ch=10 n=42 v=120
16224 On ch=1 n=41 v=122
16224 On ch=1 n=56 v=123
16224 On ch=1 n=63 v=123
16228 On ch=1 n=43 v=0
16238 On ch=10 n=40 v=0
16247 On ch=10 n=42 v=0
16247 On ch=10 n=43 v=123
16263 On ch=10 n=43 v=0
16271 On ch=10 n=35 v=123
16271 On ch=10 n=45 v=124
16272 On ch=1 n=53 v=117
16276 On ch=1 n=56 v=0
16291 On ch=10 n=35 v=0
16292 On ch=1 n=63 v=0
16295 On ch=10 n=45 v=0
16317 On ch=1 n=53 v=0
16319 On ch=1 n=41 v=0
16319 On ch=2 n=39 v=125
16319 On ch=10 n=35 v=124
16319 On ch=10 n=49 v=123
16320 On ch=1 n=39 v=123
16320 On ch=1 n=51 v=122
16320 On ch=1 n=58 v=123
16320 On ch=1 n=63 v=123
16320 On ch=1 n=67 v=123
16320 On ch=3 n=70 v=97
16320 On ch=3 n=75 v=86
16321 On ch=5 n=67 v=123
16322 On ch=2 n=34 v=0
16360 Pb ch=5 v=6272
16364 Pb ch=5 v=4468
16367 On ch=10 n=49 v=0
16367 On ch=10 n=51 v=120
16368 On ch=1 n=55 v=93
16371 Pb ch=5 v=5026
16375 Pb ch=5 v=5324
16376 On ch=1 n=67 v=0
16378 On ch=1 n=58 v=0
16379 Pb ch=5 v=8564
16382 On ch=1 n=63 v=0
16390 On ch=10 n=51 v=0
16404 On ch=2 n=39 v=0
16415 On ch=2 n=39 v=123
16415 On ch=10 n=40 v=124
16415 On ch=10 n=42 v=122
16415 On ch=10 n=51 v=122
16416 On ch=1 n=58 v=123
16416 On ch=1 n=63 v=122
16416 On ch=1 n=67 v=123
16425 On ch=1 n=55 v=0
16438 On ch=10 n=51 v=0
16438 On ch=2 n=39 v=0
16448 On ch=10 n=42 v=0
16448 On ch=10 n=35 v=0
16463 On ch=2 n=39 v=123
16463 On ch=10 n=35 v=117
16463 On ch=10 n=51 v=120
16464 On ch=1 n=55 v=117
16466 On ch=1 n=67 v=0
16475 On ch=1 n=58 v=0
16475 Par ch=5 c=1 v=12
16476 On ch=10 n=51 v=0
16478 On ch=10 n=35 v=0
16479 On ch=1 n=63 v=0
16483 Par ch=5 c=1 v=32
16486 On ch=2 n=39 v=0
16491 Par ch=5 c=1 v=45
16499 Par ch=5 c=1 v=53
16507 Par ch=5 c=1 v=65
16511 On ch=2 n=39 v=124
16511 On ch=10 n=35 v=123
16511 On ch=10 n=51 v=122
16512 On ch=1 n=58 v=122
16512 On ch=1 n=63 v=121
16512 On ch=1 n=67 v=123
16515 Par ch=5 c=1 v=77
16520 On ch=1 n=55 v=0
16523 Par ch=5 c=1 v=88
16531 Par ch=5 c=1 v=96
16534 On ch=10 n=51 v=0
16536 On ch=2 n=39 v=0
16539 Par ch=5 c=1 v=101
16547 Par ch=5 c=1 v=101
16559 On ch=1 n=67 v=0
16559 On ch=2 n=39 v=123
16559 On ch=10 n=51 v=117
16560 On ch=1 n=55 v=118
16567 Par ch=5 c=1 v=103
16568 On ch=1 n=58 v=0
16569 On ch=10 n=51 v=0
16572 On ch=10 n=40 v=0
16577 Par ch=5 c=1 v=101
16585 Par ch=5 c=1 v=94
16587 On ch=1 n=63 v=0
16593 Par ch=5 c=1 v=86
16599 On ch=1 n=55 v=0
16600 On ch=2 n=39 v=0
16601 Par ch=5 c=1 v=65
16602 On ch=1 n=51 v=0
16607 On ch=5 n=67 v=0
16607 On ch=2 n=38 v=124
16607 On ch=10 n=40 v=124
16607 On ch=10 n=42 v=123
16607 On ch=10 n=51 v=123
16608 On ch=3 n=70 v=0
16608 On ch=1 n=38 v=122
16608 On ch=1 n=50 v=123
16608 On ch=1 n=58 v=123
16608 On ch=1 n=62 v=123
16608 On ch=1 n=65 v=123
16608 On ch=3 n=74 v=100
16608 On ch=3 n=77 v=102
16609 On ch=5 n=65 v=123
16609 Par ch=5 c=1 v=0
16610 On ch=3 n=75 v=0
16613 On ch=1 n=39 v=0
16630 On ch=10 n=51 v=0
16633 On ch=10 n=42 v=0
16641 On ch=2 n=38 v=0
16651 On ch=1 n=62 v=0
16655 On ch=2 n=38 v=123
16655 On ch=10 n=51 v=118
16656 On ch=1 n=58 v=0
16656 On ch=1 n=53 v=117
16657 On ch=5 n=67 v=123
16661 On ch=5 n=65 v=0
16665 On ch=10 n=35 v=0
16672 On ch=10 n=51 v=0
16674 Pb ch=5 v=9362
16678 Pb ch=5 v=10272
16682 Pb ch=5 v=10922
16686 Pb ch=5 v=11832
16690 On ch=1 n=50 v=0
16690 Pb ch=5 v=12742
16694 On ch=2 n=38 v=0
16694 Pb ch=5 v=13522
16697 On ch=1 n=53 v=0
16698 Pb ch=5 v=13392
16702 On ch=1 n=38 v=0
16702 Pb ch=5 v=10662
16703 On ch=2 n=36 v=123
16703 On ch=10 n=35 v=124
16703 On ch=10 n=51 v=122
16704 On ch=1 n=36 v=123
16704 On ch=1 n=48 v=123
16704 On ch=1 n=60 v=123
16704 On ch=1 n=63 v=123
16704 On ch=3 n=72 v=98
16704 On ch=3 n=75 v=92
16706 Pb ch=5 v=8192
16709 On ch=3 n=77 v=0
16709 On ch=1 n=65 v=0
16710 On ch=3 n=74 v=0
16717 On ch=10 n=51 v=0
16730 On ch=2 n=36 v=0
16736 On ch=1 n=60 v=0
16751 On ch=2 n=36 v=122
16751 On ch=10 n=51 v=119
16752 On ch=1 n=60 v=116
16753 On ch=10 n=40 v=0
16760 On ch=1 n=63 v=0
16761 On ch=10 n=51 v=0
16770 On ch=2 n=36 v=0
16799 On ch=2 n=36 v=123
16799 On ch=10 n=40 v=124
16799 On ch=10 n=42 v=123
16799 On ch=10 n=51 v=123
16800 On ch=1 n=63 v=121
16800 On ch=3 n=79 v=98
16808 On ch=1 n=60 v=0
16810 Par ch=5 c=1 v=1
16813 On ch=10 n=35 v=0
16819 Par ch=5 c=1 v=7
16822 On ch=10 n=51 v=0
16827 On ch=10 n=42 v=0
16827 Par ch=5 c=1 v=15
16836 Par ch=5 c=1 v=22
16841 On ch=2 n=36 v=0
16845 Par ch=5 c=1 v=28
16847 On ch=2 n=31 v=125
16847 On ch=10 n=35 v=121
16847 On ch=10 n=51 v=120
16848 On ch=1 n=67 v=117
16854 Par ch=5 c=1 v=36
16856 On ch=10 n=35 v=0
16862 Par ch=5 c=1 v=46
16864 On ch=10 n=51 v=0
16870 Par ch=5 c=1 v=60
16878 Par ch=5 c=1 v=65
16879 On ch=2 n=31 v=0
16881 On ch=1 n=63 v=0
16886 Par ch=5 c=1 v=68
16894 Par ch=5 c=1 v=78
16895 On ch=2 n=36 v=123
16895 On ch=10 n=35 v=124
16895 On ch=10 n=51 v=122
16896 On ch=1 n=62 v=119
16896 On ch=1 n=74 v=118
16896 On ch=3 n=69 v=92
16896 On ch=3 n=71 v=77
16896 On ch=3 n=74 v=95
16899 On ch=3 n=72 v=0
16899 On ch=1 n=67 v=0
16900 On ch=3 n=75 v=0
16902 On ch=3 n=69 v=0
16902 Par ch=5 c=1 v=94
16910 Par ch=5 c=1 v=109
16911 On ch=10 n=51 v=0
16918 Par ch=5 c=1 v=114
16930 Par ch=5 c=1 v=108
16933 On ch=2 n=36 v=0
16938 Par ch=5 c=1 v=94
16943 On ch=2 n=36 v=121
16943 On ch=10 n=51 v=120
16944 On ch=1 n=63 v=119
16946 On ch=1 n=62 v=0
16946 Par ch=5 c=1 v=83
16947 On ch=10 n=40 v=0
16955 Par ch=5 c=1 v=51
16956 On ch=10 n=51 v=0
16961 On ch=1 n=74 v=0
16963 Par ch=5 c=1 v=0
16975 On ch=5 n=67 v=0
16976 On ch=2 n=36 v=0
16983 On ch=3 n=71 v=0
16985 On ch=3 n=74 v=0
16991 On ch=2 n=36 v=123
16991 On ch=10 n=40 v=124
16991 On ch=10 n=42 v=124
16991 On ch=10 n=51 v=123
16992 On ch=1 n=60 v=116
16992 On ch=1 n=72 v=122
16992 On ch=3 n=72 v=99
16992 On ch=3 n=75 v=92
17004 On ch=2 n=36 v=0
17006 On ch=10 n=51 v=0
17008 On ch=10 n=35 v=0
17015 On ch=2 n=36 v=122
17022 On ch=10 n=42 v=0
17022 On ch=1 n=36 v=0
17033 On ch=1 n=48 v=0
17037 On ch=5 n=67 v=112
17038 On ch=2 n=36 v=0
17039 On ch=2 n=31 v=122
17039 On ch=10 n=35 v=116
17039 On ch=10 n=51 v=113
17040 On ch=1 n=67 v=114
17048 On ch=10 n=35 v=0
17049 On ch=5 n=72 v=117
17056 On ch=10 n=51 v=0
17056 On ch=5 n=67 v=0
17061 On ch=5 n=75 v=123
17063 On ch=2 n=30 v=125
17064 On ch=2 n=31 v=0
17066 On ch=5 n=72 v=0
17073 On ch=5 n=79 v=123
17076 On ch=1 n=63 v=0
17078 On ch=5 n=75 v=0
17080 On ch=1 n=67 v=0
17086 On ch=2 n=30 v=0
17087 On ch=2 n=29 v=123
17087 On ch=10 n=35 v=124
17087 On ch=10 n=51 v=122
17088 On ch=1 n=41 v=120
17088 On ch=1 n=53 v=123
17088 On ch=1 n=65 v=122
17088 On ch=1 n=68 v=123
17088 On ch=3 n=68 v=99
17088 On ch=3 n=77 v=98
17093 On ch=3 n=79 v=0
17094 On ch=3 n=75 v=0
17098 On ch=3 n=72 v=0
17099 Pb ch=5 v=9102
17103 Pb ch=5 v=10704
17104 On ch=10 n=51 v=0
17107 Pb ch=5 v=11123
17108 On ch=1 n=60 v=0
17112 Pb ch=5 v=11542
17116 Pb ch=5 v=11442
17120 Pb ch=5 v=11571
17124 Pb ch=5 v=11915
17128 On ch=2 n=29 v=0
17135 On ch=2 n=29 v=122
17135 On ch=10 n=51 v=118
17136 On ch=1 n=60 v=120
17138 On ch=1 n=68 v=0
17138 On ch=10 n=40 v=0
17142 On ch=1 n=72 v=0
17148 On ch=10 n=51 v=0
17160 On ch=1 n=65 v=0
17160 Pb ch=5 v=10792
17162 On ch=2 n=29 v=0
17164 Pb ch=5 v=8192
17183 On ch=2 n=29 v=120
17183 On ch=10 n=40 v=124
17183 On ch=10 n=42 v=123
17183 On ch=10 n=51 v=123
17184 On ch=1 n=65 v=123
17184 On ch=1 n=68 v=121
17184 On ch=1 n=72 v=120
17189 On ch=1 n=60 v=0
17192 On ch=5 n=79 v=0
17198 On ch=10 n=35 v=0
17201 On ch=10 n=51 v=0
17202 On ch=5 n=79 v=123
17210 On ch=1 n=53 v=0
17212 On ch=10 n=42 v=0
17222 On ch=1 n=65 v=0
17223 On ch=2 n=29 v=0
17231 On ch=2 n=41 v=125
17231 On ch=5 n=77 v=123
17231 On ch=10 n=35 v=118
17231 On ch=10 n=51 v=120
17232 On ch=1 n=40 v=121
17232 On ch=1 n=52 v=115
17232 On ch=1 n=60 v=112
17232 On ch=1 n=64 v=122
17233 On ch=5 n=79 v=0
17238 On ch=1 n=41 v=0
17242 On ch=10 n=35 v=0
17245 On ch=10 n=51 v=0
17251 On ch=2 n=41 v=0
17254 On ch=5 n=77 v=0
17255 On ch=2 n=40 v=125
17259 On ch=1 n=52 v=0
17264 On ch=1 n=64 v=0
17264 On ch=5 n=77 v=123
17265 On ch=1 n=68 v=0
17279 On ch=2 n=39 v=125
17279 On ch=10 n=35 v=123
17279 On ch=10 n=51 v=123
17280 On ch=3 n=68 v=0
17280 On ch=1 n=39 v=122
17280 On ch=1 n=51 v=123
17280 On ch=1 n=63 v=123
17280 On ch=1 n=68 v=123
17280 On ch=3 n=67 v=104
17282 On ch=2 n=40 v=0
17283 On ch=1 n=40 v=0
17298 On ch=10 n=51 v=0
17313 On ch=1 n=60 v=0
17314 On ch=10 n=40 v=0
17318 On ch=2 n=39 v=0
17320 Par ch=5 c=1 v=33
17327 On ch=2 n=39 v=120
17327 On ch=10 n=51 v=119
17328 On ch=1 n=60 v=95
17328 Par ch=5 c=1 v=59
17335 On ch=1 n=63 v=0
17336 Par ch=5 c=1 v=74
17338 On ch=10 n=51 v=0
17344 Par ch=5 c=1 v=85
17346 On ch=1 n=68 v=0
17351 On ch=1 n=72 v=0
17352 Par ch=5 c=1 v=99
17360 Par ch=5 c=1 v=112
17364 On ch=1 n=51 v=0
17368 Par ch=5 c=1 v=120
17375 On ch=2 n=38 v=125
17375 On ch=10 n=40 v=124
17375 On ch=10 n=42 v=123
17375 On ch=10 n=51 v=123
17376 On ch=10 n=35 v=0
17376 On ch=2 n=39 v=0
17376 On ch=1 n=38 v=122
17376 On ch=1 n=50 v=123
17376 On ch=1 n=62 v=123
17376 On ch=1 n=68 v=123
17376 On ch=1 n=72 v=123
17376 On ch=3 n=68 v=100
17380 On ch=3 n=67 v=0
17381 On ch=1 n=60 v=0
17383 Par ch=5 c=1 v=126
17387 On ch=1 n=39 v=0
17392 Par ch=5 c=1 v=125
17395 On ch=10 n=51 v=0
17400 Par ch=5 c=1 v=96
17404 On ch=10 n=42 v=0
17408 Par ch=5 c=1 v=50
17409 On ch=2 n=38 v=0
17416 On ch=1 n=50 v=0
17416 Par ch=5 c=1 v=0
17422 On ch=5 n=77 v=0
17423 On ch=1 n=68 v=0
17423 On ch=2 n=38 v=125
17423 On ch=10 n=35 v=117
17423 On ch=10 n=51 v=120
17424 On ch=1 n=60 v=110
17425 On ch=1 n=72 v=0
17433 On ch=10 n=35 v=0
17436 On ch=10 n=51 v=0
17437 On ch=1 n=62 v=0
17442 On ch=5 n=70 v=123
17447 On ch=2 n=36 v=121
17452 On ch=2 n=38 v=0
17463 On ch=1 n=60 v=0
17465 On ch=5 n=70 v=0
17467 On ch=1 n=38 v=0
17471 On ch=2 n=36 v=0
17471 On ch=2 n=34 v=125
17471 On ch=10 n=35 v=123
17471 On ch=10 n=51 v=123
17472 On ch=1 n=34 v=121
17472 On ch=1 n=46 v=123
17472 On ch=1 n=62 v=123
17472 On ch=1 n=66 v=18
17472 On ch=1 n=70 v=122
17472 On ch=3 n=70 v=95
17472 On ch=3 n=74 v=96
17474 On ch=3 n=68 v=0
17476 On ch=3 n=77 v=0
17476 On ch=5 n=70 v=123
17487 On ch=10 n=51 v=0
17502 On ch=1 n=66 v=0
17512 On ch=2 n=34 v=0
17515 On ch=5 n=70 v=0
17519 On ch=2 n=34 v=121
17519 On ch=10 n=51 v=119
17520 On ch=1 n=58 v=107
17520 On ch=5 n=77 v=123
17526 On ch=10 n=40 v=0
17530 On ch=10 n=51 v=0
17530 On ch=1 n=62 v=0
17543 On ch=2 n=34 v=0
17557 On ch=5 n=77 v=0
17567 On ch=2 n=34 v=122
17567 On ch=10 n=40 v=124
17567 On ch=10 n=42 v=121
17567 On ch=10 n=51 v=124
17568 On ch=1 n=62 v=123
17568 On ch=1 n=65 v=123
17569 On ch=5 n=77 v=123
17575 On ch=1 n=58 v=0
17581 On ch=10 n=35 v=0
17584 On ch=10 n=51 v=0
17589 On ch=10 n=42 v=0
17594 On ch=2 n=34 v=0
17613 On ch=5 n=77 v=0
17615 On ch=2 n=34 v=123
17615 On ch=10 n=35 v=122
17615 On ch=10 n=51 v=120
17616 On ch=1 n=58 v=105
17618 On ch=5 n=79 v=123
17622 On ch=1 n=65 v=0
17624 On ch=10 n=35 v=0
17624 On ch=1 n=70 v=0
17625 On ch=1 n=62 v=0
17630 On ch=10 n=51 v=0
17639 On ch=2 n=34 v=0
17657 On ch=5 n=79 v=0
17663 On ch=2 n=34 v=125
17663 On ch=10 n=35 v=124
17663 On ch=10 n=51 v=122
17664 On ch=1 n=62 v=122
17664 On ch=1 n=65 v=122
17664 On ch=1 n=70 v=120
17664 On ch=3 n=72 v=100
17664 On ch=3 n=75 v=96
17667 On ch=1 n=58 v=0
17668 On ch=5 n=79 v=123
17672 On ch=10 n=40 v=0
17673 On ch=3 n=70 v=0
17674 On ch=3 n=74 v=0
17677 On ch=10 n=51 v=0
17693 On ch=2 n=34 v=0
17710 On ch=5 n=79 v=0
17711 On ch=2 n=34 v=125
17711 On ch=10 n=40 v=124
17711 On ch=10 n=51 v=120
17712 On ch=1 n=58 v=117
17715 On ch=5 n=80 v=123
17720 On ch=10 n=51 v=0
17723 On ch=1 n=62 v=0
17725 On ch=10 n=40 v=0
17726 On ch=1 n=65 v=0
17734 On ch=1 n=70 v=0
17738 On ch=2 n=34 v=0
17751 On ch=5 n=80 v=0
17759 On ch=3 n=72 v=0
17759 On ch=2 n=34 v=123
17759 On ch=10 n=40 v=124
17759 On ch=10 n=42 v=121
17760 On ch=1 n=62 v=122
17760 On ch=1 n=65 v=122
17760 On ch=1 n=70 v=117
17760 On ch=3 n=74 v=95
17760 On ch=3 n=77 v=96
17762 On ch=3 n=75 v=0
17763 On ch=5 n=80 v=123
17770 On ch=10 n=35 v=0
17772 On ch=10 n=40 v=0
17778 On ch=10 n=42 v=0
17782 On ch=2 n=34 v=0
17783 On ch=2 n=36 v=124
17783 On ch=10 n=43 v=123
17785 On ch=1 n=70 v=0
17799 On ch=1 n=62 v=0
17801 On ch=1 n=65 v=0
17803 Pb ch=5 v=8582
17805 On ch=10 n=43 v=0
17807 On ch=2 n=38 v=125
17807 Pb ch=5 v=10792
17807 On ch=10 n=35 v=124
17807 On ch=10 n=45 v=122
17809 On ch=2 n=36 v=0
17811 On ch=1 n=34 v=0
17811 Pb ch=5 v=13522
17815 Pb ch=5 v=16382
17817 On ch=1 n=46 v=0
17823 On ch=10 n=35 v=0
17823 On ch=10 n=45 v=0
17841 Pb ch=5 v=15992
17845 On ch=2 n=38 v=0
17845 Pb ch=5 v=15342
17849 Pb ch=5 v=14562
17853 Pb ch=5 v=12222
17855 On ch=1 n=58 v=0
17855 On ch=2 n=39 v=122
17855 On ch=10 n=35 v=123
17855 On ch=10 n=49 v=122
17856 On ch=1 n=39 v=122
17856 On ch=1 n=51 v=123
17856 On ch=1 n=58 v=123
17856 On ch=1 n=63 v=122
17856 On ch=1 n=67 v=122
17856 On ch=3 n=75 v=98
17856 On ch=3 n=79 v=102
17857 On ch=3 n=74 v=0
17857 Pb ch=5 v=8192
17860 On ch=3 n=77 v=0
17879 On ch=1 n=58 v=0
17899 On ch=10 n=49 v=0
17899 On ch=5 n=79 v=123
17902 On ch=5 n=80 v=0
17903 On ch=10 n=51 v=120
17923 On ch=1 n=51 v=0
17925 Par ch=5 c=1 v=2
17929 On ch=10 n=51 v=0
17933 Par ch=5 c=1 v=17
17941 Par ch=5 c=1 v=24
17945 On ch=1 n=67 v=0
17949 Par ch=5 c=1 v=31
17949 On ch=9 n=67 v=122
17951 On ch=3 n=75 v=0
17951 On ch=10 n=40 v=124
17951 On ch=10 n=42 v=122
17951 On ch=10 n=51 v=122
17952 On ch=1 n=51 v=123
17952 On ch=1 n=58 v=122
17952 On ch=1 n=67 v=122
17952 On ch=3 n=70 v=87
17952 On ch=3 n=75 v=74
17958 Par ch=5 c=1 v=45
17966 Par ch=5 c=1 v=62
17972 On ch=10 n=51 v=0
17973 On ch=2 n=39 v=0
17974 Par ch=5 c=1 v=86
17982 On ch=10 n=35 v=0
17982 Par ch=5 c=1 v=98
17991 Par ch=5 c=1 v=106
17996 On ch=9 n=65 v=124
17997 On ch=12 n=67 v=117
17999 On ch=9 n=67 v=0
17999 On ch=2 n=39 v=120
17999 Par ch=5 c=1 v=120
17999 On ch=10 n=35 v=118
17999 On ch=10 n=51 v=120
18000 On ch=1 n=63 v=0
18000 On ch=1 n=65 v=122
18003 On ch=10 n=42 v=0
18004 On ch=1 n=67 v=0
18007 Par ch=5 c=1 v=127
18011 On ch=10 n=35 v=0
18015 On ch=10 n=51 v=0
18021 On ch=9 n=65 v=0
18022 On ch=9 n=63 v=124
18024 On ch=1 n=63 v=112
18026 On ch=1 n=65 v=0
18037 On ch=1 n=39 v=0
18041 On ch=3 n=75 v=0
18041 On ch=1 n=58 v=0
18042 On ch=9 n=63 v=0
18044 On ch=2 n=39 v=0
18044 On ch=12 n=65 v=119
18045 On ch=1 n=63 v=0
18045 On ch=9 n=70 v=124
18047 On ch=1 n=51 v=0
18047 On ch=12 n=67 v=0
18047 On ch=2 n=38 v=123
18047 On ch=10 n=35 v=123
18047 On ch=10 n=51 v=123
18048 On ch=1 n=38 v=123
18048 On ch=1 n=58 v=102
18048 On ch=1 n=62 v=123
18048 On ch=1 n=65 v=123
18048 On ch=1 n=70 v=122
18048 On ch=3 n=77 v=89
18054 On ch=3 n=79 v=0
18059 On ch=10 n=51 v=0
18069 On ch=12 n=65 v=0
18070 On ch=12 n=63 v=119
18084 On ch=5 n=79 v=0
18090 On ch=12 n=63 v=0
18093 On ch=12 n=70 v=119
18095 On ch=10 n=51 v=119
18096 On ch=10 n=40 v=0
18102 On ch=10 n=51 v=0
18103 Par ch=9 c=1 v=14
18111 Par ch=9 c=1 v=52
18119 Par ch=9 c=1 v=84
18127 Par ch=9 c=1 v=95
18135 Par ch=9 c=1 v=101
18143 On ch=10 n=40 v=124
18143 On ch=10 n=42 v=123
18143 On ch=10 n=51 v=123
18144 On ch=1 n=50 v=122
18144 On ch=3 n=65 v=82
18144 On ch=3 n=74 v=89
18144 Par ch=9 c=1 v=114
18151 Par ch=12 c=1 v=14
18152 Par ch=9 c=1 v=127
18154 On ch=10 n=35 v=0
18154 On ch=3 n=70 v=0
18154 On ch=3 n=77 v=0
18157 On ch=10 n=51 v=0
18159 Par ch=12 c=1 v=52
18160 On ch=2 n=38 v=0
18167 Par ch=12 c=1 v=84
18167 Par ch=9 c=1 v=111
18169 On ch=1 n=62 v=0
18170 On ch=10 n=42 v=0
18175 Par ch=12 c=1 v=95
18175 Par ch=9 c=1 v=75
18176 On ch=1 n=58 v=0
18181 On ch=1 n=65 v=0
18183 Par ch=12 c=1 v=101
18183 Par ch=9 c=1 v=0
18186 Par ch=5 c=1 v=119
18188 On ch=1 n=70 v=0
18191 On ch=9 n=70 v=0
18191 On ch=2 n=38 v=124
18191 On ch=10 n=35 v=114
18191 On ch=10 n=51 v=118
18191 On ch=9 n=67 v=124
18192 On ch=1 n=67 v=122
18192 Par ch=12 c=1 v=114
18200 Par ch=12 c=1 v=127
18206 On ch=10 n=51 v=0
18208 On ch=10 n=35 v=0
18215 Par ch=12 c=1 v=111
18221 On ch=1 n=38 v=0
18223 Par ch=12 c=1 v=75
18231 Par ch=12 c=1 v=0
18232 On ch=1 n=67 v=0
18236 On ch=3 n=74 v=0
18238 On ch=9 n=67 v=0
18239 On ch=3 n=65 v=0
18239 On ch=12 n=70 v=0
18239 On ch=2 n=38 v=0
18239 On ch=2 n=36 v=122
18239 On ch=12 n=67 v=119
18239 On ch=10 n=35 v=124
18239 On ch=10 n=51 v=123
18239 On ch=9 n=72 v=124
18240 On ch=1 n=36 v=123
18240 On ch=1 n=60 v=122
18240 On ch=1 n=63 v=122
18240 On ch=1 n=67 v=123
18240 On ch=1 n=72 v=122
18240 On ch=3 n=67 v=89
18240 On ch=3 n=75 v=77
18243 On ch=1 n=50 v=0
18252 On ch=10 n=51 v=0
18280 Par ch=5 c=1 v=123
18286 On ch=12 n=67 v=0
18287 On ch=12 n=72 v=119
18287 On ch=10 n=51 v=114
18290 On ch=10 n=40 v=0
18297 Par ch=9 c=1 v=5
18299 On ch=10 n=51 v=0
18305 Par ch=9 c=1 v=14
18313 Par ch=9 c=1 v=23
18321 Par ch=9 c=1 v=31
18329 Par ch=9 c=1 v=41
18335 On ch=10 n=40 v=124
18335 On ch=10 n=42 v=122
18335 On ch=10 n=51 v=123
18336 On ch=1 n=48 v=121
18336 On ch=3 n=72 v=77
18336 On ch=3 n=79 v=92
18337 Par ch=9 c=1 v=51
18341 On ch=3 n=75 v=0
18342 On ch=3 n=67 v=0
18342 Par ch=5 c=1 v=125
18345 Par ch=12 c=1 v=5
18345 Par ch=9 c=1 v=60
18350 On ch=10 n=51 v=0
18352 On ch=10 n=35 v=0
18353 Par ch=12 c=1 v=14
18353 Par ch=9 c=1 v=72
18359 Par ch=5 c=1 v=127
18361 Par ch=12 c=1 v=23
18361 Par ch=9 c=1 v=86
18362 On ch=2 n=36 v=0
18363 On ch=10 n=42 v=0
18369 Par ch=12 c=1 v=31
18369 Par ch=9 c=1 v=100
18377 Par ch=12 c=1 v=41
18378 Par ch=9 c=1 v=98
18383 On ch=2 n=36 v=119
18383 On ch=10 n=35 v=114
18383 On ch=10 n=51 v=115
18385 Par ch=12 c=1 v=51
18386 Par ch=9 c=1 v=66
18393 Par ch=12 c=1 v=60
18394 Par ch=5 c=1 v=124
18394 Par ch=9 c=1 v=0
18396 On ch=10 n=51 v=0
18397 On ch=10 n=35 v=0
18401 On ch=2 n=36 v=0
18401 Par ch=12 c=1 v=72
18403 Par ch=5 c=1 v=120
18409 Par ch=12 c=1 v=86
18412 On ch=1 n=60 v=0
18412 Par ch=5 c=1 v=107
18413 On ch=9 n=72 v=0
18415 On ch=1 n=72 v=0
18416 On ch=1 n=36 v=0
18417 On ch=1 n=63 v=0
18417 Par ch=12 c=1 v=100
18418 On ch=1 n=67 v=0
18420 Par ch=5 c=1 v=66
18426 Par ch=12 c=1 v=98
18428 Par ch=5 c=1 v=0
18429 On ch=9 n=72 v=124
18431 On ch=2 n=36 v=122
18431 On ch=10 n=35 v=124
18431 On ch=10 n=51 v=122
18432 On ch=1 n=36 v=123
18432 On ch=1 n=60 v=123
18432 On ch=1 n=63 v=123
18432 On ch=1 n=67 v=123
18432 On ch=1 n=72 v=123
18432 On ch=3 n=75 v=86
18432 On ch=3 n=84 v=78
18434 On ch=3 n=79 v=0
18434 Par ch=12 c=1 v=66
18438 On ch=3 n=72 v=0
18442 Par ch=12 c=1 v=0
18445 On ch=10 n=51 v=0
18461 On ch=12 n=72 v=0
18464 On ch=1 n=60 v=0
18468 On ch=10 n=40 v=0
18476 On ch=1 n=63 v=0
18477 On ch=12 n=72 v=119
18479 On ch=10 n=51 v=115
18480 On ch=1 n=62 v=122
18480 On ch=9 n=74 v=124
18486 On ch=9 n=72 v=0
18489 On ch=10 n=51 v=0
18490 On ch=1 n=67 v=0
18503 On ch=1 n=62 v=0
18503 On ch=9 n=75 v=124
18504 On ch=9 n=74 v=0
18504 On ch=1 n=63 v=119
18508 On ch=1 n=48 v=0
18512 On ch=1 n=72 v=0
18526 On ch=3 n=84 v=0
18527 On ch=2 n=36 v=0
18527 On ch=2 n=31 v=122
18527 On ch=10 n=40 v=123
18527 On ch=10 n=42 v=124
18527 On ch=10 n=51 v=122
18528 On ch=1 n=48 v=121
18528 On ch=1 n=60 v=123
18528 On ch=1 n=67 v=123
18528 On ch=1 n=72 v=122
18528 On ch=3 n=79 v=84
18528 On ch=12 n=74 v=119
18533 On ch=9 n=72 v=124
18534 On ch=12 n=72 v=0
18535 On ch=9 n=75 v=0
18539 On ch=10 n=35 v=0
18546 On ch=10 n=51 v=0
18551 On ch=12 n=75 v=119
18552 On ch=12 n=74 v=0
18556 On ch=1 n=60 v=0
18561 On ch=10 n=42 v=0
18567 On ch=1 n=63 v=0
18575 On ch=2 n=30 v=120
18575 On ch=10 n=35 v=118
18575 On ch=10 n=51 v=121
18576 On ch=1 n=62 v=119
18577 On ch=2 n=31 v=0
18577 On ch=9 n=74 v=124
18581 On ch=9 n=72 v=0
18581 On ch=1 n=67 v=0
18581 On ch=12 n=72 v=119
18583 On ch=12 n=75 v=0
18591 On ch=10 n=35 v=0
18592 On ch=10 n=51 v=0
18598 On ch=1 n=36 v=0
18600 On ch=1 n=43 v=118
18600 On ch=1 n=63 v=114
18600 On ch=9 n=75 v=124
18603 On ch=9 n=74 v=0
18607 On ch=1 n=62 v=0
18612 On ch=1 n=43 v=0
18616 On ch=1 n=63 v=0
18617 On ch=1 n=48 v=0
18622 On ch=3 n=79 v=0
18622 On ch=3 n=75 v=0
18623 On ch=2 n=29 v=123
18623 On ch=10 n=35 v=124
18623 On ch=10 n=49 v=123
18624 On ch=1 n=41 v=122
18624 On ch=1 n=65 v=121
18624 On ch=1 n=68 v=121
18624 On ch=3 n=77 v=89
18624 On ch=3 n=80 v=84
18625 On ch=2 n=30 v=0
18625 On ch=12 n=74 v=119
18627 On ch=9 n=75 v=0
18629 On ch=12 n=72 v=0
18629 On ch=9 n=77 v=124
18648 On ch=12 n=75 v=119
18651 On ch=12 n=74 v=0
18668 Par ch=9 c=1 v=1
18669 On ch=10 n=49 v=0
18671 On ch=10 n=51 v=120
18675 On ch=12 n=75 v=0
18676 Par ch=9 c=1 v=13
18677 On ch=12 n=77 v=119
18678 On ch=10 n=40 v=0
18684 Par ch=9 c=1 v=31
18685 On ch=10 n=51 v=0
18692 Par ch=9 c=1 v=43
18701 Par ch=9 c=1 v=47
18709 Par ch=9 c=1 v=52
18716 Par ch=12 c=1 v=1
18718 Par ch=9 c=1 v=59
18719 On ch=10 n=40 v=124
18719 On ch=10 n=42 v=123
18719 On ch=10 n=51 v=124
18720 On ch=1 n=53 v=122
18720 On ch=3 n=76 v=94
18724 Par ch=12 c=1 v=13
18726 On ch=3 n=77 v=0
18726 Par ch=9 c=1 v=69
18732 Par ch=12 c=1 v=31
18734 Par ch=9 c=1 v=80
18735 On ch=10 n=35 v=0
18740 Par ch=12 c=1 v=43
18742 Par ch=9 c=1 v=86
18749 Par ch=12 c=1 v=47
18751 On ch=1 n=72 v=0
18753 Par ch=9 c=1 v=83
18755 On ch=10 n=42 v=0
18756 On ch=1 n=53 v=0
18757 On ch=1 n=41 v=0
18757 On ch=1 n=65 v=0
18757 Par ch=12 c=1 v=52
18761 Par ch=9 c=1 v=50
18765 On ch=2 n=29 v=0
18766 Par ch=12 c=1 v=59
18767 On ch=2 n=41 v=122
18767 On ch=10 n=35 v=120
18768 On ch=1 n=40 v=123
18768 On ch=1 n=52 v=122
18768 On ch=1 n=60 v=123
18768 On ch=1 n=64 v=123
18768 On ch=1 n=72 v=123
18769 Par ch=9 c=1 v=0
18770 On ch=9 n=77 v=0
18770 On ch=10 n=51 v=0
18771 On ch=9 n=72 v=124
18774 Par ch=12 c=1 v=69
18780 On ch=10 n=35 v=0
18782 Par ch=12 c=1 v=80
18790 Par ch=12 c=1 v=86
18791 On ch=2 n=40 v=121
18794 On ch=2 n=41 v=0
18801 On ch=1 n=64 v=0
18801 Par ch=12 c=1 v=83
18806 On ch=9 n=72 v=0
18809 Par ch=12 c=1 v=50
18810 On ch=1 n=72 v=0
18811 On ch=9 n=77 v=124
18813 On ch=1 n=68 v=0
18815 On ch=2 n=39 v=123
18815 On ch=10 n=35 v=123
18815 On ch=10 n=51 v=123
18816 On ch=1 n=39 v=123
18816 On ch=1 n=63 v=123
18816 On ch=1 n=68 v=123
18816 On ch=1 n=72 v=123
18816 On ch=3 n=75 v=84
18817 On ch=3 n=76 v=0
18817 Par ch=12 c=1 v=0
18818 On ch=12 n=77 v=0
18818 On ch=1 n=52 v=0
18819 On ch=1 n=40 v=0
18819 On ch=12 n=72 v=119
18822 On ch=2 n=40 v=0
18825 On ch=10 n=51 v=0
18840 On ch=9 n=77 v=0
18840 On ch=9 n=79 v=123
18854 On ch=10 n=40 v=0
18854 On ch=12 n=72 v=0
18858 On ch=9 n=79 v=0
18859 On ch=12 n=77 v=119
18868 On ch=9 n=80 v=124
18882 On ch=9 n=80 v=0
18888 On ch=12 n=77 v=0
18888 On ch=12 n=79 v=118
18888 On ch=9 n=82 v=124
18891 On ch=1 n=72 v=0
18892 On ch=1 n=63 v=0
18899 On ch=9 n=82 v=0
18903 On ch=1 n=60 v=0
18906 On ch=12 n=79 v=0
18906 On ch=2 n=39 v=0
18910 On ch=9 n=82 v=124
18911 On ch=2 n=38 v=125
18911 On ch=10 n=40 v=124
18911 On ch=10 n=42 v=123
18911 On ch=10 n=51 v=123
18912 On ch=1 n=50 v=123
18912 On ch=1 n=60 v=123
18912 On ch=1 n=62 v=123
18912 On ch=1 n=72 v=123
18912 On ch=3 n=74 v=87
18916 On ch=12 n=80 v=119
18918 On ch=1 n=39 v=0
18918 On ch=3 n=75 v=0
18919 Pb ch=9 v=9492
18923 Pb ch=9 v=12482
18927 Pb ch=9 v=16382
18930 On ch=12 n=80 v=0
18932 On ch=10 n=51 v=0
18936 On ch=12 n=82 v=119
18947 On ch=12 n=82 v=0
18948 On ch=10 n=42 v=0
18951 On ch=1 n=72 v=0
18958 On ch=10 n=35 v=0
18958 On ch=12 n=82 v=119
18959 On ch=10 n=51 v=120
18961 On ch=1 n=50 v=0
18962 On ch=1 n=60 v=0
18967 Pb ch=12 v=9492
18971 Pb ch=12 v=12482
18972 On ch=10 n=51 v=0
18975 Pb ch=12 v=16382
18981 On ch=1 n=68 v=0
18998 On ch=1 n=62 v=0
19004 On ch=3 n=74 v=0
19007 On ch=2 n=34 v=125
19007 On ch=10 n=35 v=124
19007 On ch=10 n=49 v=123
19008 On ch=1 n=34 v=123
19008 On ch=1 n=46 v=123
19008 On ch=1 n=58 v=123
19008 On ch=1 n=62 v=123
19008 On ch=1 n=65 v=123
19008 On ch=1 n=70 v=123
19008 On ch=3 n=70 v=84
19008 On ch=3 n=82 v=83
19012 On ch=2 n=38 v=0
19012 On ch=3 n=80 v=0
19030 On ch=10 n=49 v=0
19035 Pb ch=9 v=16122
19039 Pb ch=9 v=11832
19043 Pb ch=9 v=8192
19055 On ch=10 n=51 v=117
19058 On ch=10 n=40 v=0
19064 On ch=9 n=80 v=124
19066 On ch=9 n=82 v=0
19071 On ch=10 n=51 v=0
19079 On ch=1 n=46 v=0
19080 On ch=9 n=80 v=0
19081 On ch=9 n=82 v=124
19083 Pb ch=12 v=16122
19087 Pb ch=12 v=11832
19091 Pb ch=12 v=8192
19098 On ch=9 n=80 v=124
19102 On ch=9 n=82 v=0
19103 On ch=10 n=40 v=123
19103 On ch=10 n=42 v=124
19103 On ch=10 n=51 v=123
19104 On ch=1 n=46 v=120
19104 On ch=3 n=72 v=97
19104 On ch=3 n=75 v=89
19104 On ch=3 n=76 v=89
19106 On ch=1 n=34 v=0
19112 On ch=12 n=80 v=119
19113 On ch=9 n=80 v=0
19113 On ch=9 n=79 v=124
19114 On ch=12 n=82 v=0
19115 On ch=10 n=35 v=0
19120 On ch=3 n=76 v=0
19123 On ch=10 n=51 v=0
19124 On ch=3 n=75 v=0
19125 On ch=3 n=70 v=0
19128 On ch=12 n=80 v=0
19128 On ch=3 n=75 v=42
19129 On ch=12 n=82 v=119
19130 On ch=9 n=79 v=0
19130 On ch=9 n=80 v=124
19132 On ch=1 n=58 v=0
19136 On ch=2 n=34 v=0
19137 On ch=10 n=42 v=0
19143 On ch=9 n=79 v=124
19145 On ch=9 n=80 v=0
19146 On ch=12 n=80 v=119
19150 On ch=12 n=82 v=0
19151 On ch=2 n=34 v=119
19151 On ch=10 n=35 v=119
19151 On ch=10 n=51 v=120
19152 On ch=1 n=34 v=119
19152 On ch=1 n=58 v=118
19159 On ch=9 n=77 v=124
19160 On ch=9 n=79 v=0
19161 On ch=12 n=80 v=0
19161 On ch=12 n=79 v=119
19164 On ch=10 n=51 v=0
19170 On ch=9 n=79 v=124
19172 On ch=10 n=35 v=0
19173 On ch=9 n=77 v=0
19173 On ch=2 n=34 v=0
19178 On ch=12 n=79 v=0
19178 On ch=12 n=80 v=119
19180 On ch=3 n=75 v=0
19183 On ch=9 n=77 v=124
19189 On ch=9 n=79 v=0
19191 On ch=3 n=72 v=0
19191 On ch=1 n=34 v=0
19191 On ch=12 n=79 v=119
19193 On ch=1 n=62 v=0
19193 On ch=12 n=80 v=0
19199 On ch=2 n=34 v=123
19199 On ch=10 n=35 v=122
19199 On ch=10 n=51 v=123
19199 On ch=9 n=75 v=124
19200 On ch=9 n=77 v=0
19200 On ch=1 n=34 v=117
19200 On ch=1 n=62 v=120
19200 On ch=3 n=74 v=92
19200 On ch=3 n=77 v=89
19207 On ch=12 n=77 v=119
19208 On ch=12 n=79 v=0
19215 On ch=10 n=51 v=0
19215 On ch=1 n=65 v=0
19216 On ch=9 n=75 v=0
19216 On ch=9 n=77 v=124
19218 On ch=12 n=79 v=119
19221 On ch=12 n=77 v=0
19227 On ch=9 n=75 v=124
19229 On ch=9 n=77 v=0
19230 On ch=10 n=40 v=0
19231 On ch=12 n=77 v=119
19237 On ch=12 n=79 v=0
19241 On ch=9 n=74 v=124
19243 On ch=9 n=75 v=0
19247 On ch=12 n=75 v=119
19247 On ch=10 n=40 v=123
19247 On ch=10 n=42 v=123
19247 On ch=10 n=51 v=122
19248 On ch=12 n=77 v=0
19248 On ch=1 n=65 v=120
19251 On ch=9 n=74 v=0
19251 On ch=9 n=75 v=124
19259 On ch=10 n=40 v=0
19261 On ch=1 n=70 v=0
19262 On ch=10 n=51 v=0
19263 On ch=9 n=74 v=124
19264 On ch=12 n=75 v=0
19264 On ch=12 n=77 v=119
19265 On ch=9 n=75 v=0
19270 On ch=1 n=46 v=0
19275 On ch=9 n=74 v=0
19275 On ch=12 n=75 v=119
19276 On ch=10 n=42 v=0
19276 On ch=9 n=72 v=124
19277 On ch=12 n=77 v=0
19289 On ch=1 n=58 v=0
19289 On ch=12 n=74 v=119
19291 On ch=12 n=75 v=0
19292 On ch=9 n=70 v=124
19295 On ch=10 n=40 v=123
19296 On ch=9 n=72 v=0
19296 On ch=1 n=46 v=122
19296 On ch=1 n=58 v=120
19296 On ch=1 n=70 v=120
19296 On ch=3 n=80 v=82
19299 On ch=12 n=74 v=0
19299 On ch=12 n=75 v=119
19301 On ch=10 n=35 v=0
19302 On ch=1 n=65 v=0
19303 On ch=1 n=34 v=0
19304 On ch=3 n=82 v=0
19311 On ch=12 n=74 v=119
19312 On ch=10 n=40 v=0
19313 On ch=12 n=75 v=0
19316 On ch=1 n=62 v=0
19319 On ch=2 n=36 v=121
19319 On ch=10 n=43 v=122
19319 On ch=10 n=51 v=123
19320 On ch=1 n=65 v=107
19321 On ch=2 n=34 v=0
19323 On ch=12 n=74 v=0
19324 On ch=12 n=72 v=119
19328 Par ch=9 c=1 v=4
19333 On ch=10 n=51 v=0
19336 Par ch=9 c=1 v=38
19340 On ch=12 n=70 v=119
19342 On ch=10 n=43 v=0
19343 On ch=2 n=38 v=124
19343 On ch=10 n=35 v=123
19343 On ch=10 n=42 v=123
19343 On ch=10 n=45 v=122
19344 On ch=2 n=36 v=0
19344 On ch=12 n=72 v=0
19344 On ch=1 n=34 v=116
19344 Par ch=9 c=1 v=59
19352 Par ch=9 c=1 v=84
19354 On ch=10 n=42 v=0
19359 On ch=1 n=34 v=0
19360 Par ch=9 c=1 v=107
19362 On ch=10 n=35 v=0
19368 Par ch=9 c=1 v=120
19370 On ch=1 n=46 v=0
19375 On ch=1 n=70 v=0
19376 Par ch=12 c=1 v=4
19376 Par ch=9 c=1 v=117
19378 On ch=1 n=58 v=0
19384 Par ch=12 c=1 v=38
19384 Par ch=9 c=1 v=85
19387 On ch=9 n=70 v=0
19388 On ch=10 n=45 v=0
19389 On ch=1 n=65 v=0
19390 On ch=3 n=77 v=0
19391 On ch=3 n=74 v=0
19391 On ch=2 n=39 v=123
19391 On ch=10 n=35 v=123
19391 On ch=10 n=49 v=123
19392 On ch=1 n=39 v=123
19392 On ch=1 n=58 v=123
19392 On ch=1 n=63 v=123
19392 On ch=1 n=67 v=123
19392 On ch=1 n=70 v=123
19392 On ch=3 n=75 v=83
19392 On ch=3 n=79 v=88
19392 Par ch=12 c=1 v=59
19393 On ch=3 n=80 v=0
19393 Par ch=9 c=1 v=0
19394 On ch=2 n=38 v=0
19400 Par ch=12 c=1 v=84
19408 Par ch=12 c=1 v=107
19416 Par ch=12 c=1 v=120
19423 On ch=9 n=70 v=124
19425 Par ch=12 c=1 v=114
19433 Par ch=12 c=1 v=80
19435 On ch=12 n=70 v=0
19441 Par ch=12 c=1 v=0
19443 On ch=9 n=70 v=0
19445 On ch=9 n=72 v=124
19455 On ch=10 n=49 v=0
19465 On ch=9 n=74 v=124
19470 On ch=9 n=72 v=0
19471 On ch=12 n=70 v=119
19472 On ch=2 n=39 v=0
19481 On ch=9 n=74 v=0
19485 On ch=9 n=75 v=124
19487 On ch=2 n=39 v=119
19487 On ch=10 n=40 v=124
19487 On ch=10 n=42 v=123
19487 On ch=10 n=51 v=123
19488 On ch=1 n=51 v=120
19488 On ch=3 n=82 v=90
19491 On ch=12 n=70 v=0
19493 On ch=12 n=72 v=119
19496 On ch=3 n=79 v=0
19498 On ch=10 n=35 v=0
19499 On ch=9 n=75 v=0
19503 On ch=9 n=77 v=124
19513 On ch=12 n=74 v=119
19514 On ch=2 n=39 v=0
19515 On ch=1 n=58 v=0
19515 On ch=10 n=51 v=0
19518 On ch=12 n=72 v=0
19518 On ch=1 n=39 v=0
19519 On ch=1 n=70 v=0
19519 On ch=9 n=79 v=124
19521 On ch=1 n=67 v=0
19522 On ch=9 n=77 v=0
19527 On ch=1 n=63 v=0
19529 On ch=12 n=74 v=0
19531 On ch=10 n=42 v=0
19533 On ch=12 n=75 v=119
19534 On ch=9 n=79 v=0
19535 On ch=2 n=39 v=122
19535 On ch=10 n=35 v=116
19535 On ch=10 n=51 v=121
19536 On ch=1 n=39 v=122
19536 On ch=1 n=58 v=123
19536 On ch=1 n=63 v=120
19536 On ch=1 n=67 v=120
19536 On ch=1 n=70 v=122
19536 On ch=9 n=80 v=124
19547 On ch=12 n=75 v=0
19548 On ch=10 n=51 v=0
19551 On ch=12 n=77 v=119
19551 On ch=9 n=82 v=124
19552 On ch=9 n=80 v=0
19554 On ch=10 n=35 v=0
19567 On ch=12 n=79 v=119
19570 On ch=12 n=77 v=0
19571 Par ch=9 c=1 v=6
19574 On ch=1 n=39 v=0
19579 On ch=1 n=63 v=0
19579 Par ch=9 c=1 v=18
19581 On ch=1 n=67 v=0
19582 On ch=12 n=79 v=0
19583 On ch=2 n=38 v=125
19583 On ch=10 n=35 v=123
19583 On ch=10 n=49 v=123
19584 On ch=2 n=39 v=0
19584 On ch=3 n=75 v=0
19584 On ch=3 n=82 v=0
19584 On ch=1 n=38 v=121
19584 On ch=1 n=62 v=123
19584 On ch=1 n=65 v=123
19584 On ch=3 n=74 v=92
19584 On ch=3 n=77 v=78
19584 On ch=12 n=80 v=119
19585 On ch=1 n=51 v=0
19587 Par ch=9 c=1 v=38
19595 Par ch=9 c=1 v=65
19599 On ch=12 n=82 v=119
19600 On ch=12 n=80 v=0
19603 Par ch=9 c=1 v=84
19607 On ch=10 n=49 v=0
19611 Par ch=9 c=1 v=68
19615 On ch=9 n=70 v=124
19616 On ch=9 n=82 v=0
19619 Par ch=12 c=1 v=6
19619 Par ch=9 c=1 v=0
19625 On ch=1 n=58 v=0
19627 Par ch=12 c=1 v=18
19628 On ch=9 n=70 v=0
19631 On ch=10 n=51 v=120
19631 On ch=9 n=72 v=124
19632 On ch=1 n=58 v=117
19635 On ch=10 n=40 v=0
19635 Par ch=12 c=1 v=38
19636 On ch=1 n=62 v=0
19643 Par ch=12 c=1 v=65
19646 On ch=10 n=51 v=0
19650 On ch=9 n=74 v=124
19651 Par ch=12 c=1 v=84
19654 On ch=9 n=72 v=0
19656 On ch=1 n=62 v=110
19659 Par ch=12 c=1 v=68
19663 On ch=1 n=65 v=0
19663 On ch=12 n=70 v=119
19664 On ch=12 n=82 v=0
19666 On ch=9 n=74 v=0
19667 Par ch=12 c=1 v=0
19668 On ch=9 n=75 v=124
19673 On ch=2 n=38 v=0
19676 On ch=12 n=70 v=0
19679 On ch=2 n=38 v=121
19679 On ch=12 n=72 v=119
19679 On ch=10 n=40 v=124
19679 On ch=10 n=42 v=123
19679 On ch=10 n=51 v=123
19680 On ch=1 n=50 v=123
19680 On ch=3 n=82 v=78
19683 On ch=9 n=75 v=0
19685 On ch=9 n=77 v=124
19689 On ch=1 n=58 v=0
19690 On ch=1 n=38 v=0
19693 On ch=10 n=35 v=0
19694 On ch=2 n=38 v=0
19697 On ch=1 n=70 v=0
19698 On ch=10 n=51 v=0
19698 On ch=12 n=74 v=119
19702 On ch=12 n=72 v=0
19704 On ch=1 n=58 v=122
19704 On ch=1 n=65 v=123
19704 On ch=1 n=70 v=122
19704 On ch=9 n=79 v=124
19708 On ch=9 n=77 v=0
19714 On ch=12 n=74 v=0
19716 On ch=12 n=75 v=119
19719 On ch=10 n=42 v=0
19720 On ch=9 n=79 v=0
19723 On ch=9 n=80 v=124
19727 On ch=2 n=38 v=125
19727 On ch=10 n=35 v=121
19727 On ch=10 n=51 v=122
19728 On ch=1 n=43 v=116
19730 On ch=1 n=62 v=0
19731 On ch=12 n=75 v=0
19733 On ch=12 n=77 v=119
19736 On ch=1 n=65 v=0
19738 On ch=9 n=80 v=0
19739 On ch=10 n=51 v=0
19740 On ch=9 n=82 v=124
19749 On ch=10 n=35 v=0
19750 On ch=1 n=70 v=0
19752 On ch=1 n=67 v=112
19752 On ch=12 n=79 v=119
19756 On ch=12 n=77 v=0
19758 On ch=1 n=67 v=0
19758 On ch=1 n=58 v=0
19768 On ch=12 n=79 v=0
19768 Pb ch=9 v=8842
19771 On ch=3 n=82 v=0
19771 On ch=12 n=80 v=119
19772 Pb ch=9 v=10792
19775 On ch=2 n=36 v=125
19775 On ch=10 n=35 v=124
19775 On ch=10 n=49 v=123
19776 On ch=1 n=50 v=0
19776 On ch=1 n=36 v=123
19776 On ch=1 n=60 v=123
19776 On ch=1 n=63 v=123
19776 On ch=1 n=67 v=123
19776 On ch=1 n=72 v=123
19776 On ch=3 n=72 v=89
19776 On ch=3 n=75 v=86
19776 Pb ch=9 v=13652
19777 On ch=1 n=43 v=0
19780 Pb ch=9 v=16382
19781 On ch=3 n=77 v=0
19783 On ch=2 n=38 v=0
19786 On ch=12 n=80 v=0
19786 On ch=3 n=74 v=0
19788 On ch=12 n=82 v=119
19803 On ch=10 n=49 v=0
19816 Pb ch=12 v=8842
19820 Pb ch=12 v=10792
19823 On ch=10 n=51 v=118
19824 Pb ch=12 v=13652
19827 On ch=10 n=40 v=0
19828 Pb ch=12 v=16382
19837 On ch=10 n=51 v=0
19871 On ch=10 n=40 v=124
19871 On ch=10 n=42 v=123
19871 On ch=10 n=51 v=123
19872 On ch=1 n=48 v=122
19872 On ch=3 n=82 v=87
19878 On ch=1 n=60 v=0
19879 Par ch=9 c=1 v=6
19887 Par ch=9 c=1 v=28
19889 On ch=10 n=35 v=0
19891 On ch=10 n=51 v=0
19895 Par ch=9 c=1 v=79
19903 Par ch=9 c=1 v=100
19906 On ch=10 n=42 v=0
19908 On ch=1 n=63 v=0
19911 On ch=2 n=36 v=0
19911 Par ch=9 c=1 v=112
19919 On ch=2 n=31 v=121
19919 On ch=10 n=35 v=121
19919 On ch=10 n=51 v=120
19920 On ch=9 n=82 v=0
19920 On ch=1 n=62 v=117
19920 Pb ch=9 v=8192
19920 On ch=9 n=74 v=124
19922 Par ch=9 c=1 v=82
19923 On ch=1 n=67 v=0
19927 Par ch=12 c=1 v=6
19930 Par ch=9 c=1 v=0
19934 On ch=10 n=51 v=0
19935 Par ch=12 c=1 v=28
19936 On ch=10 n=35 v=0
19942 On ch=9 n=74 v=0
19943 On ch=1 n=62 v=0
19943 On ch=2 n=34 v=122
19943 Par ch=12 c=1 v=79
19944 On ch=1 n=63 v=116
19944 On ch=9 n=75 v=124
19944 Pb ch=9 v=8564
19946 On ch=1 n=72 v=0
19951 On ch=2 n=31 v=0
19951 Par ch=12 c=1 v=100
19958 On ch=1 n=36 v=0
19959 Par ch=12 c=1 v=112
19965 On ch=2 n=34 v=0
19966 On ch=3 n=75 v=0
19967 On ch=2 n=36 v=124
19967 On ch=10 n=35 v=124
19967 On ch=10 n=51 v=123
19968 On ch=3 n=82 v=0
19968 On ch=12 n=82 v=0
19968 On ch=9 n=75 v=0
19968 On ch=1 n=36 v=121
19968 On ch=1 n=60 v=122
19968 On ch=1 n=67 v=122
19968 On ch=1 n=72 v=123
19968 On ch=3 n=70 v=81
19968 On ch=3 n=74 v=74
19968 On ch=3 n=77 v=78
19968 Pb ch=12 v=8192
19968 On ch=12 n=74 v=119
19968 On ch=9 n=72 v=124
19969 On ch=3 n=72 v=0
19970 Par ch=12 c=1 v=82
19977 On ch=1 n=63 v=0
19978 Par ch=12 c=1 v=0
19988 On ch=10 n=51 v=0
19990 On ch=12 n=74 v=0
19992 On ch=12 n=75 v=119
19992 Pb ch=12 v=8564
20002 On ch=1 n=60 v=0
20012 On ch=10 n=40 v=0
20013 On ch=9 n=72 v=0
20015 On ch=10 n=51 v=120
20016 On ch=12 n=75 v=0
20016 On ch=1 n=62 v=120
20016 On ch=12 n=72 v=119
20016 On ch=9 n=74 v=124
20028 On ch=1 n=48 v=0
20029 On ch=10 n=51 v=0
20037 On ch=9 n=75 v=124
20040 On ch=1 n=62 v=0
20040 On ch=9 n=74 v=0
20040 On ch=1 n=63 v=122
20048 On ch=1 n=67 v=0
20050 On ch=1 n=72 v=0
20061 On ch=12 n=72 v=0
20063 On ch=3 n=70 v=0
20063 On ch=2 n=31 v=122
20063 On ch=10 n=40 v=124
20063 On ch=10 n=42 v=123
20063 On ch=10 n=51 v=124
20064 On ch=2 n=36 v=0
20064 On ch=1 n=48 v=122
20064 On ch=1 n=60 v=123
20064 On ch=1 n=67 v=123
20064 On ch=1 n=72 v=123
20064 On ch=3 n=72 v=74
20064 On ch=3 n=75 v=90
20064 On ch=3 n=82 v=74
20064 On ch=12 n=74 v=119
20065 On ch=1 n=63 v=0
20066 On ch=9 n=72 v=124
20067 On ch=9 n=75 v=0
20072 On ch=3 n=77 v=0
20077 On ch=3 n=82 v=0
20079 On ch=10 n=35 v=0
20080 On ch=3 n=74 v=0
20083 On ch=10 n=51 v=0
20085 On ch=12 n=75 v=119
20088 On ch=12 n=74 v=0
20089 On ch=1 n=60 v=0
20095 On ch=1 n=36 v=0
20111 On ch=2 n=30 v=122
20111 On ch=10 n=35 v=123
20111 On ch=10 n=51 v=122
20111 On ch=9 n=74 v=124
20112 On ch=1 n=62 v=114
20113 On ch=10 n=42 v=0
20114 On ch=12 n=72 v=119
20115 On ch=2 n=31 v=0
20115 On ch=12 n=75 v=0
20118 On ch=9 n=72 v=0
20121 On ch=1 n=67 v=0
20128 On ch=10 n=51 v=0
20130 On ch=10 n=35 v=0
20133 On ch=9 n=75 v=124
20135 On ch=1 n=48 v=0
20135 On ch=9 n=74 v=0
20136 On ch=1 n=43 v=119
20136 On ch=1 n=63 v=117
20140 On ch=1 n=72 v=0
20142 On ch=1 n=62 v=0
20148 On ch=1 n=43 v=0
20152 On ch=1 n=63 v=0
20156 On ch=2 n=30 v=0
20159 On ch=9 n=75 v=0
20159 On ch=2 n=29 v=124
20159 On ch=12 n=74 v=119
20159 On ch=10 n=35 v=123
20159 On ch=10 n=49 v=123
20160 On ch=3 n=75 v=0
20160 On ch=3 n=72 v=0
20160 On ch=1 n=41 v=119
20160 On ch=1 n=60 v=123
20160 On ch=1 n=65 v=123
20160 On ch=1 n=68 v=122
20160 On ch=1 n=72 v=123
20160 On ch=3 n=65 v=81
20160 On ch=3 n=72 v=81
20160 On ch=3 n=77 v=81
20160 On ch=3 n=80 v=81
20162 On ch=9 n=77 v=124
20166 On ch=12 n=72 v=0
20181 On ch=12 n=75 v=119
20183 On ch=12 n=74 v=0
20184 On ch=10 n=49 v=0
20207 On ch=12 n=75 v=0
20207 On ch=10 n=51 v=121
20208 Pb ch=9 v=8564
20210 On ch=12 n=77 v=119
20213 On ch=10 n=40 v=0
20221 On ch=10 n=51 v=0
20240 On ch=1 n=60 v=0
20247 Pb ch=9 v=8456
20252 Pb ch=9 v=8301
20254 On ch=1 n=65 v=0
20255 On ch=10 n=40 v=123
20255 On ch=10 n=42 v=123
20255 On ch=10 n=51 v=123
20256 On ch=1 n=53 v=123
20256 Pb ch=12 v=8564
20256 Pb ch=9 v=8192
20257 On ch=1 n=72 v=0
20259 On ch=1 n=68 v=0
20268 On ch=10 n=35 v=0
20273 Pb ch=9 v=8533
20280 On ch=3 n=77 v=0
20280 On ch=3 n=72 v=0
20280 On ch=3 n=65 v=0
20284 On ch=10 n=51 v=0
20285 Pb ch=9 v=8458
20292 On ch=3 n=80 v=0
20294 On ch=9 n=77 v=0
20295 On ch=10 n=42 v=0
20295 Pb ch=12 v=8456
20295 On ch=9 n=65 v=124
20297 Pb ch=9 v=8384
20300 Pb ch=12 v=8301
20301 On ch=2 n=29 v=0
20303 On ch=10 n=40 v=0
20303 On ch=2 n=41 v=125
20303 On ch=10 n=40 v=122
20304 On ch=1 n=41 v=0
20304 On ch=1 n=65 v=122
20304 On ch=1 n=77 v=121
20304 On ch=3 n=53 v=100
20304 On ch=3 n=65 v=100
20304 On ch=3 n=77 v=100
20304 On ch=3 n=89 v=92
20304 Pb ch=12 v=8192
20307 On ch=1 n=53 v=0
20309 Pb ch=9 v=8309
20314 On ch=10 n=40 v=0
20315 On ch=1 n=65 v=0
20316 On ch=3 n=77 v=0
20316 On ch=3 n=53 v=0
20316 On ch=3 n=65 v=0
20316 On ch=1 n=77 v=0
20319 On ch=3 n=89 v=0
20321 Pb ch=12 v=8533
20321 Pb ch=9 v=8235
20326 On ch=9 n=67 v=124
20327 On ch=2 n=40 v=121
20327 On ch=10 n=40 v=124
20328 On ch=1 n=52 v=120
20328 On ch=1 n=67 v=123
20328 On ch=1 n=79 v=123
20328 On ch=3 n=52 v=100
20328 On ch=3 n=64 v=100
20328 On ch=3 n=79 v=100
20328 On ch=3 n=91 v=100
20331 On ch=2 n=41 v=0
20332 On ch=1 n=52 v=0
20333 Pb ch=12 v=8458
20334 On ch=9 n=65 v=0
20337 On ch=1 n=67 v=0
20340 On ch=3 n=52 v=0
20340 On ch=3 n=64 v=0
20340 On ch=3 n=79 v=0
20340 On ch=10 n=40 v=0
20340 On ch=3 n=91 v=0
20341 On ch=1 n=79 v=0
20342 On ch=12 n=77 v=0
20343 On ch=12 n=65 v=119
20345 Pb ch=12 v=8384
20351 On ch=2 n=39 v=125
20351 On ch=10 n=35 v=124
20351 On ch=10 n=49 v=120
20352 On ch=1 n=51 v=122
20352 On ch=1 n=63 v=123
20352 On ch=1 n=68 v=122
20352 On ch=1 n=80 v=123
20352 On ch=3 n=51 v=100
20352 On ch=3 n=63 v=100
20352 On ch=3 n=68 v=100
20352 On ch=3 n=75 v=100
20352 On ch=3 n=80 v=100
20352 On ch=3 n=92 v=100
20356 On ch=2 n=40 v=0
20357 On ch=9 n=67 v=0
20357 Pb ch=12 v=8309
20358 On ch=9 n=68 v=124
20369 Pb ch=12 v=8235
20374 On ch=12 n=67 v=119
20382 On ch=12 n=65 v=0
20389 On ch=10 n=49 v=0
20395 On ch=1 n=68 v=0
20400 On ch=3 n=51 v=0
20405 On ch=12 n=67 v=0
20406 On ch=1 n=80 v=0
20406 On ch=12 n=68 v=119
20407 On ch=3 n=68 v=0
20408 On ch=1 n=63 v=0
20412 On ch=1 n=51 v=0
20412 On ch=3 n=80 v=0
20415 On ch=3 n=63 v=0
20431 On ch=3 n=75 v=0
20432 On ch=3 n=92 v=0
20440 On ch=9 n=68 v=0
20443 On ch=2 n=39 v=0
20443 On ch=9 n=77 v=124
20447 On ch=2 n=38 v=125
20447 On ch=10 n=40 v=124
20447 On ch=10 n=57 v=121
20448 On ch=1 n=50 v=121
20448 On ch=1 n=62 v=123
20448 On ch=1 n=77 v=123
20448 On ch=1 n=89 v=122
20448 On ch=3 n=50 v=95
20448 On ch=3 n=62 v=90
20448 On ch=3 n=77 v=104
20448 On ch=3 n=89 v=103
20469 On ch=10 n=57 v=0
20488 On ch=12 n=68 v=0
20491 On ch=12 n=77 v=119
20493 On ch=1 n=89 v=0
20494 On ch=1 n=77 v=0
20499 On ch=1 n=50 v=0
20500 On ch=1 n=62 v=0
20502 On ch=3 n=89 v=0
20505 On ch=10 n=35 v=0
20507 On ch=3 n=77 v=0
20512 On ch=3 n=50 v=0
20515 On ch=3 n=62 v=0
20543 On ch=2 n=38 v=0
20543 On ch=2 n=37 v=125
20543 On ch=10 n=35 v=124
20543 On ch=10 n=49 v=121
20543 On ch=9 n=68 v=124
20544 On ch=9 n=77 v=0
20544 On ch=1 n=49 v=123
20544 On ch=1 n=61 v=123
20544 On ch=1 n=68 v=123
20544 On ch=1 n=80 v=122
20544 On ch=3 n=49 v=97
20544 On ch=3 n=61 v=104
20544 On ch=3 n=68 v=103
20544 On ch=3 n=80 v=98
20569 On ch=10 n=49 v=0
20591 On ch=12 n=68 v=119
20592 On ch=12 n=77 v=0
20611 On ch=10 n=40 v=0
20639 On ch=10 n=40 v=124
20639 On ch=10 n=51 v=122
20644 On ch=3 n=68 v=0
20645 On ch=1 n=68 v=0
20646 On ch=3 n=80 v=0
20648 On ch=10 n=35 v=0
20649 On ch=1 n=80 v=0
20656 On ch=10 n=51 v=0
20663 On ch=2 n=37 v=0
20663 On ch=2 n=37 v=123
20663 On ch=10 n=35 v=123
20663 On ch=10 n=52 v=122
20664 On ch=1 n=61 v=0
20664 On ch=1 n=61 v=118
20664 On ch=1 n=73 v=118
20664 On ch=1 n=85 v=118
20664 On ch=3 n=73 v=100
20664 On ch=3 n=85 v=102
20668 On ch=10 n=40 v=0
20671 On ch=9 n=73 v=124
20672 On ch=9 n=68 v=0
20676 On ch=1 n=61 v=0
20678 On ch=3 n=61 v=0
20679 On ch=10 n=52 v=0
20679 On ch=1 n=73 v=0
20679 On ch=1 n=85 v=0
20681 On ch=3 n=73 v=0
20681 On ch=3 n=85 v=0
20682 On ch=3 n=49 v=0
20684 On ch=10 n=35 v=0
20691 On ch=9 n=73 v=0
20691 On ch=2 n=37 v=0
20696 On ch=1 n=49 v=0
20699 On ch=2 n=36 v=125
20699 On ch=10 n=35 v=124
20699 On ch=10 n=49 v=120
20700 On ch=1 n=48 v=117
20700 On ch=1 n=60 v=121
20700 On ch=1 n=73 v=123
20700 On ch=1 n=85 v=123
20700 On ch=9 n=73 v=124
20712 On ch=3 n=48 v=92
20712 On ch=3 n=60 v=89
20712 On ch=3 n=73 v=100
20712 On ch=3 n=85 v=100
20719 On ch=10 n=35 v=0
20719 On ch=12 n=73 v=119
20720 On ch=1 n=85 v=0
20720 On ch=10 n=49 v=0
20720 On ch=1 n=73 v=0
20720 On ch=12 n=68 v=0
20726 On ch=1 n=48 v=0
20726 On ch=1 n=60 v=0
20728 On ch=9 n=73 v=0
20729 On ch=3 n=85 v=0
20731 On ch=3 n=60 v=0
20732 On ch=3 n=73 v=0
20734 On ch=3 n=48 v=0
20735 On ch=2 n=35 v=125
20735 On ch=10 n=35 v=124
20735 On ch=10 n=57 v=121
20736 On ch=1 n=47 v=123
20736 On ch=1 n=59 v=123
20736 On ch=1 n=73 v=123
20736 On ch=1 n=85 v=122
20736 On ch=3 n=47 v=95
20736 On ch=3 n=59 v=100
20736 On ch=3 n=73 v=104
20736 On ch=3 n=85 v=103
20739 On ch=12 n=73 v=0
20739 On ch=2 n=36 v=0
20740 On ch=9 n=73 v=124
20748 On ch=12 n=73 v=119
20772 On ch=10 n=57 v=0
20776 On ch=12 n=73 v=0
20782 On ch=1 n=85 v=0
20783 On ch=3 n=85 v=0
20788 On ch=1 n=73 v=0
20788 On ch=12 n=73 v=119
20790 On ch=3 n=73 v=0
20792 On ch=3 n=47 v=0
20796 On ch=3 n=59 v=0
20800 On ch=1 n=47 v=0
20803 On ch=1 n=59 v=0
20828 On ch=9 n=73 v=0
20830 On ch=9 n=61 v=124
20831 On ch=2 n=35 v=0
20831 On ch=2 n=34 v=125
20831 On ch=10 n=40 v=124
20831 On ch=10 n=43 v=124
20831 On ch=10 n=49 v=123
20832 On ch=1 n=46 v=120
20832 On ch=1 n=58 v=123
20832 On ch=1 n=61 v=123
20832 On ch=1 n=73 v=123
20832 On ch=3 n=46 v=102
20832 On ch=3 n=58 v=102
20832 On ch=3 n=61 v=104
20832 On ch=3 n=73 v=100
20851 On ch=10 n=49 v=0
20876 On ch=12 n=73 v=0
20878 On ch=12 n=61 v=119
20881 On ch=1 n=73 v=0
20881 On ch=1 n=58 v=0
20883 On ch=10 n=35 v=0
20885 On ch=1 n=61 v=0
20888 On ch=1 n=46 v=0
20890 On ch=10 n=40 v=0
20890 On ch=3 n=46 v=0
20890 On ch=3 n=61 v=0
20891 On ch=10 n=43 v=0
20892 On ch=3 n=73 v=0
20894 On ch=3 n=58 v=0
20901 On ch=9 n=61 v=0
20923 On ch=2 n=34 v=0
20927 On ch=2 n=33 v=125
20928 On ch=1 n=33 v=123
20928 On ch=1 n=45 v=123
20928 On ch=1 n=69 v=123
20928 On ch=1 n=76 v=123
20928 On ch=1 n=81 v=123
20928 On ch=3 n=33 v=119
20928 On ch=3 n=45 v=122
20928 On ch=3 n=57 v=121
20928 On ch=10 n=40 v=124
20932 On ch=10 n=40 v=0
20933 On ch=10 n=40 v=123
20942 On ch=1 n=69 v=0
20943 On ch=1 n=76 v=0
20944 On ch=1 n=81 v=0
20949 On ch=12 n=61 v=0
20951 On ch=1 n=33 v=0
20952 On ch=1 n=45 v=0
20956 On ch=3 n=33 v=0
20956 On ch=3 n=57 v=0
20960 On ch=3 n=45 v=0
20961 On ch=2 n=33 v=0
20976 On ch=10 n=40 v=0
20976 On ch=1 n=57 v=120
20976 On ch=1 n=61 v=122
20976 On ch=1 n=64 v=122
20978 On ch=10 n=81 v=103
20984 On ch=1 n=57 v=0
20987 On ch=1 n=61 v=0
20987 On ch=1 n=64 v=0
20992 On ch=10 n=81 v=0
21023 On ch=10 n=81 v=103
21024 On ch=1 n=57 v=121
21024 On ch=1 n=61 v=119
21024 On ch=1 n=64 v=122
21033 On ch=1 n=61 v=0
21033 On ch=1 n=57 v=0
21035 On ch=10 n=81 v=0
21036 On ch=1 n=64 v=0
21069 On ch=10 n=81 v=104
21072 On ch=1 n=57 v=121
21072 On ch=1 n=61 v=121
21072 On ch=1 n=64 v=123
21081 On ch=10 n=81 v=0
21083 On ch=1 n=57 v=0
21084 On ch=1 n=61 v=0
21086 On ch=1 n=64 v=0
21116 On ch=10 n=81 v=103
21120 On ch=1 n=57 v=120
21120 On ch=1 n=61 v=120
21120 On ch=1 n=64 v=120
21129 On ch=10 n=81 v=0
21131 On ch=1 n=57 v=0
21133 On ch=1 n=61 v=0
21134 On ch=1 n=64 v=0
21165 On ch=10 n=81 v=104
21168 On ch=1 n=57 v=121
21168 On ch=1 n=61 v=119
21168 On ch=1 n=64 v=118
21179 On ch=1 n=61 v=0
21179 On ch=10 n=81 v=0
21179 On ch=1 n=57 v=0
21182 On ch=1 n=64 v=0
21213 On ch=10 n=81 v=104
21216 On ch=1 n=57 v=115
21216 On ch=1 n=61 v=118
21216 On ch=1 n=64 v=119
21225 On ch=1 n=57 v=0
21227 On ch=10 n=81 v=0
21228 On ch=1 n=61 v=0
21228 On ch=1 n=64 v=0
21261 On ch=10 n=81 v=104
21264 On ch=1 n=57 v=118
21264 On ch=1 n=61 v=118
21264 On ch=1 n=64 v=120
21274 On ch=1 n=57 v=0
21275 On ch=10 n=81 v=0
21276 On ch=1 n=61 v=0
21277 On ch=1 n=64 v=0
21311 On ch=10 n=81 v=104
21312 On ch=1 n=57 v=122
21312 On ch=1 n=62 v=123
21312 On ch=1 n=66 v=122
21312 On ch=8 n=74 v=119
21323 On ch=1 n=57 v=0
21323 On ch=10 n=81 v=0
21328 On ch=1 n=62 v=0
21330 On ch=1 n=66 v=0
21351 On ch=8 n=74 v=0
21357 On ch=10 n=81 v=104
21360 On ch=1 n=57 v=122
21360 On ch=1 n=61 v=121
21360 On ch=1 n=64 v=123
21360 On ch=8 n=73 v=118
21369 On ch=8 n=73 v=0
21369 On ch=10 n=81 v=0
21369 On ch=1 n=57 v=0
21371 On ch=1 n=61 v=0
21371 On ch=1 n=64 v=0
21384 On ch=1 n=57 v=117
21384 On ch=1 n=61 v=121
21384 On ch=1 n=64 v=118
21384 On ch=8 n=73 v=119
21390 On ch=1 n=57 v=0
21395 On ch=1 n=61 v=0
21395 On ch=1 n=64 v=0
21395 On ch=8 n=73 v=0
21405 On ch=10 n=81 v=104
21408 On ch=1 n=57 v=122
21408 On ch=1 n=60 v=122
21408 On ch=1 n=63 v=122
21408 On ch=8 n=71 v=113
21408 On ch=8 n=72 v=117
21412 On ch=8 n=71 v=0
21418 On ch=8 n=72 v=0
21419 On ch=10 n=81 v=0
21422 On ch=1 n=57 v=0
21422 On ch=1 n=60 v=0
21428 On ch=1 n=63 v=0
21432 On ch=8 n=72 v=118
21442 On ch=8 n=72 v=0
21454 On ch=10 n=81 v=106
21456 On ch=1 n=57 v=123
21456 On ch=1 n=61 v=123
21456 On ch=1 n=64 v=123
21456 On ch=8 n=73 v=119
21465 On ch=8 n=73 v=0
21466 On ch=10 n=81 v=0
21469 On ch=1 n=57 v=0
21472 On ch=1 n=64 v=0
21473 On ch=1 n=61 v=0
21480 On ch=8 n=73 v=118
21488 On ch=8 n=73 v=0
21501 On ch=10 n=81 v=102
21504 On ch=1 n=57 v=123
21504 On ch=1 n=62 v=123
21504 On ch=1 n=66 v=122
21504 On ch=8 n=74 v=118
21513 On ch=8 n=74 v=0
21515 On ch=10 n=81 v=0
21515 On ch=1 n=57 v=0
21518 On ch=1 n=62 v=0
21521 On ch=1 n=66 v=0
21528 On ch=8 n=74 v=119
21539 On ch=8 n=74 v=0
21548 On ch=10 n=81 v=104
21552 On ch=1 n=57 v=122
21552 On ch=1 n=61 v=123
21552 On ch=1 n=64 v=122
21552 On ch=8 n=73 v=119
21560 On ch=10 n=81 v=0
21561 On ch=1 n=57 v=0
21561 On ch=1 n=61 v=0
21562 On ch=8 n=73 v=0
21563 On ch=1 n=64 v=0
21576 On ch=1 n=57 v=118
21576 On ch=1 n=61 v=119
21576 On ch=1 n=64 v=122
21576 On ch=8 n=73 v=118
21582 On ch=1 n=57 v=0
21585 On ch=1 n=61 v=0
21585 On ch=1 n=64 v=0
21586 On ch=8 n=73 v=0
21598 On ch=10 n=81 v=102
21600 On ch=1 n=57 v=121
21600 On ch=1 n=60 v=123
21600 On ch=1 n=63 v=123
21600 On ch=8 n=72 v=118
21610 On ch=10 n=81 v=0
21626 On ch=1 n=60 v=0
21627 On ch=1 n=57 v=0
21630 On ch=1 n=63 v=0
21638 On ch=8 n=72 v=0
21646 On ch=10 n=81 v=103
21647 On ch=2 n=37 v=125
21648 On ch=1 n=57 v=120
21648 On ch=1 n=61 v=121
21648 On ch=1 n=64 v=123
21648 On ch=3 n=64 v=119
21648 On ch=3 n=69 v=114
21648 On ch=3 n=73 v=112
21648 On ch=3 n=76 v=115
21648 On ch=3 n=81 v=96
21648 On ch=6 n=88 v=121
21648 On ch=7 n=76 v=120
21656 On ch=3 n=81 v=0
21656 On ch=1 n=64 v=0
21657 On ch=6 n=88 v=0
21657 On ch=7 n=76 v=0
21658 On ch=3 n=76 v=0
21658 On ch=1 n=61 v=0
21658 On ch=1 n=57 v=0
21658 On ch=10 n=81 v=0
21659 On ch=3 n=69 v=0
21659 On ch=3 n=73 v=0
21661 On ch=2 n=37 v=0
21664 On ch=3 n=64 v=0
21671 On ch=2 n=37 v=124
21672 On ch=1 n=57 v=118
21672 On ch=1 n=61 v=121
21672 On ch=1 n=64 v=123
21672 On ch=3 n=64 v=119
21672 On ch=3 n=69 v=115
21672 On ch=3 n=73 v=112
21672 On ch=3 n=76 v=117
21672 On ch=3 n=81 v=112
21672 On ch=6 n=88 v=120
21672 On ch=7 n=76 v=119
21682 On ch=7 n=76 v=0
21682 On ch=6 n=88 v=0
21683 On ch=1 n=57 v=0
21684 On ch=1 n=64 v=0
21684 On ch=3 n=69 v=0
21685 On ch=3 n=81 v=0
21685 On ch=1 n=61 v=0
21689 On ch=3 n=73 v=0
21690 On ch=3 n=76 v=0
21690 On ch=2 n=37 v=0
21694 On ch=3 n=64 v=0
21695 On ch=2 n=38 v=125
21695 On ch=10 n=81 v=103
21696 On ch=1 n=57 v=123
21696 On ch=1 n=62 v=123
21696 On ch=1 n=66 v=123
21696 On ch=1 n=69 v=123
21696 On ch=3 n=62 v=119
21696 On ch=3 n=66 v=110
21696 On ch=3 n=69 v=121
21696 On ch=3 n=74 v=121
21696 On ch=3 n=78 v=118
21696 On ch=3 n=81 v=118
21696 On ch=6 n=93 v=122
21696 On ch=7 n=81 v=121
21706 On ch=10 n=81 v=0
21721 On ch=1 n=57 v=0
21724 On ch=1 n=69 v=0
21727 On ch=1 n=62 v=0
21728 On ch=3 n=74 v=0
21730 On ch=1 n=66 v=0
21733 On ch=3 n=62 v=0
21736 On ch=2 n=38 v=0
21736 On ch=6 n=93 v=0
21736 On ch=7 n=81 v=0
21739 On ch=3 n=78 v=0
21741 On ch=3 n=81 v=0
21741 On ch=3 n=66 v=0
21742 On ch=3 n=69 v=0
21743 On ch=2 n=37 v=124
21744 On ch=1 n=57 v=115
21744 On ch=1 n=61 v=118
21744 On ch=1 n=64 v=118
21744 On ch=3 n=61 v=108
21744 On ch=3 n=64 v=112
21744 On ch=3 n=69 v=114
21744 On ch=3 n=73 v=115
21744 On ch=3 n=76 v=116
21744 On ch=3 n=81 v=18
21744 On ch=6 n=88 v=120
21744 On ch=7 n=76 v=119
21747 On ch=3 n=81 v=0
21747 On ch=10 n=81 v=104
21750 On ch=1 n=64 v=0
21751 On ch=1 n=57 v=0
21753 On ch=1 n=61 v=0
21754 On ch=3 n=73 v=0
21754 On ch=3 n=64 v=0
21754 On ch=6 n=88 v=0
21754 On ch=3 n=69 v=0
21754 On ch=7 n=76 v=0
21755 On ch=2 n=37 v=0
21756 On ch=3 n=76 v=0
21757 On ch=10 n=81 v=0
21760 On ch=3 n=61 v=0
21767 On ch=2 n=37 v=125
21768 On ch=1 n=57 v=113
21768 On ch=1 n=61 v=118
21768 On ch=1 n=64 v=123
21768 On ch=3 n=61 v=118
21768 On ch=3 n=64 v=108
21768 On ch=3 n=69 v=117
21768 On ch=3 n=73 v=115
21768 On ch=3 n=76 v=108
21768 On ch=3 n=81 v=114
21768 On ch=6 n=88 v=122
21768 On ch=7 n=76 v=120
21779 On ch=7 n=76 v=0
21779 On ch=1 n=57 v=0
21779 On ch=6 n=88 v=0
21780 On ch=3 n=81 v=0
21781 On ch=2 n=37 v=0
21781 On ch=3 n=69 v=0
21783 On ch=1 n=61 v=0
21784 On ch=3 n=73 v=0
21784 On ch=3 n=76 v=0
21785 On ch=1 n=64 v=0
21786 On ch=3 n=61 v=0
21791 On ch=2 n=38 v=125
21792 On ch=1 n=57 v=123
21792 On ch=1 n=62 v=123
21792 On ch=1 n=66 v=123
21792 On ch=1 n=69 v=123
21792 On ch=3 n=62 v=123
21792 On ch=3 n=66 v=119
21792 On ch=3 n=69 v=119
21792 On ch=3 n=74 v=120
21792 On ch=3 n=78 v=119
21792 On ch=3 n=81 v=119
21792 On ch=6 n=93 v=122
21792 On ch=7 n=81 v=121
21795 On ch=3 n=64 v=0
21796 On ch=10 n=81 v=103
21807 On ch=10 n=81 v=0
21817 On ch=3 n=74 v=0
21825 On ch=1 n=57 v=0
21826 On ch=1 n=62 v=0
21826 On ch=1 n=69 v=0
21830 On ch=2 n=38 v=0
21831 On ch=1 n=66 v=0
21832 On ch=3 n=78 v=0
21832 On ch=3 n=81 v=0
21833 On ch=3 n=62 v=0
21834 On ch=3 n=66 v=0
21835 On ch=6 n=93 v=0
21835 On ch=7 n=81 v=0
21839 On ch=2 n=37 v=125
21840 On ch=1 n=57 v=117
21840 On ch=1 n=61 v=121
21840 On ch=1 n=64 v=122
21840 On ch=3 n=61 v=113
21840 On ch=3 n=64 v=117
21840 On ch=3 n=73 v=114
21840 On ch=3 n=76 v=112
21840 On ch=6 n=88 v=121
21840 On ch=7 n=76 v=120
21844 On ch=10 n=81 v=105
21848 On ch=1 n=57 v=0
21849 On ch=1 n=64 v=0
21850 On ch=3 n=76 v=0
21850 On ch=1 n=61 v=0
21850 On ch=3 n=69 v=0
21851 On ch=6 n=88 v=0
21851 On ch=2 n=37 v=0
21851 On ch=7 n=76 v=0
21852 On ch=3 n=61 v=0
21853 On ch=3 n=73 v=0
21855 On ch=3 n=64 v=0
21855 On ch=10 n=81 v=0
21863 On ch=2 n=37 v=125
21864 On ch=1 n=57 v=117
21864 On ch=1 n=61 v=121
21864 On ch=1 n=64 v=122
21864 On ch=1 n=69 v=122
21864 On ch=3 n=61 v=107
21864 On ch=3 n=64 v=120
21864 On ch=3 n=69 v=115
21864 On ch=3 n=73 v=116
21864 On ch=3 n=76 v=114
21864 On ch=3 n=81 v=101
21864 On ch=6 n=88 v=120
21864 On ch=7 n=76 v=119
21868 On ch=3 n=81 v=0
21873 On ch=3 n=76 v=0
21873 On ch=3 n=69 v=0
21875 On ch=1 n=64 v=0
21876 On ch=1 n=57 v=0
21877 On ch=3 n=73 v=0
21877 On ch=3 n=64 v=0
21877 On ch=1 n=61 v=0
21878 On ch=6 n=88 v=0
21878 On ch=3 n=61 v=0
21878 On ch=7 n=76 v=0
21879 On ch=1 n=69 v=0
21881 On ch=2 n=37 v=0
21887 On ch=2 n=36 v=123
21888 On ch=1 n=57 v=121
21888 On ch=1 n=60 v=121
21888 On ch=1 n=63 v=123
21888 On ch=1 n=69 v=123
21888 On ch=3 n=60 v=113
21888 On ch=3 n=63 v=116
21888 On ch=3 n=69 v=111
21888 On ch=3 n=72 v=118
21888 On ch=3 n=75 v=118
21888 On ch=6 n=87 v=121
21888 On ch=7 n=75 v=120
21892 On ch=10 n=81 v=103
21897 On ch=3 n=69 v=0
21897 On ch=1 n=57 v=0
21899 On ch=1 n=69 v=0
21899 On ch=3 n=75 v=0
21900 On ch=3 n=72 v=0
21900 On ch=6 n=87 v=0
21900 On ch=7 n=75 v=0
21900 On ch=1 n=60 v=0
21900 On ch=3 n=63 v=0
21901 On ch=1 n=63 v=0
21901 On ch=3 n=60 v=0
21902 On ch=2 n=36 v=0
21905 On ch=10 n=81 v=0
21911 On ch=2 n=36 v=122
21912 On ch=1 n=57 v=122
21912 On ch=1 n=60 v=117
21912 On ch=1 n=63 v=122
21912 On ch=1 n=69 v=122
21912 On ch=3 n=60 v=112
21912 On ch=3 n=63 v=115
21912 On ch=3 n=69 v=113
21912 On ch=3 n=72 v=115
21912 On ch=3 n=75 v=114
21912 On ch=6 n=87 v=119
21912 On ch=7 n=75 v=118
21919 On ch=3 n=69 v=0
21922 On ch=3 n=72 v=0
21923 On ch=1 n=60 v=0
21923 On ch=1 n=57 v=0
21924 On ch=1 n=69 v=0
21924 On ch=3 n=75 v=0
21926 On ch=6 n=87 v=0
21926 On ch=7 n=75 v=0
21926 On ch=1 n=63 v=0
21927 On ch=3 n=60 v=0
21929 On ch=3 n=63 v=0
21930 On ch=2 n=36 v=0
21935 On ch=2 n=37 v=125
21936 On ch=1 n=57 v=123
21936 On ch=1 n=61 v=123
21936 On ch=1 n=64 v=123
21936 On ch=1 n=69 v=121
21936 On ch=3 n=61 v=116
21936 On ch=3 n=64 v=112
21936 On ch=3 n=69 v=119
21936 On ch=3 n=73 v=116
21936 On ch=3 n=76 v=118
21936 On ch=6 n=88 v=121
21936 On ch=7 n=76 v=119
21939 On ch=10 n=81 v=102
21948 On ch=1 n=69 v=0
21951 On ch=10 n=81 v=0
21952 On ch=1 n=57 v=0
21953 On ch=3 n=69 v=0
21954 On ch=1 n=64 v=0
21955 On ch=6 n=88 v=0
21955 On ch=1 n=61 v=0
21955 On ch=7 n=76 v=0
21956 On ch=3 n=76 v=0
21957 On ch=3 n=73 v=0
21957 On ch=2 n=37 v=0
21962 On ch=3 n=61 v=0
21964 On ch=3 n=64 v=0
21983 On ch=2 n=38 v=125
21984 On ch=1 n=57 v=123
21984 On ch=1 n=62 v=122
21984 On ch=1 n=66 v=122
21984 On ch=1 n=69 v=123
21984 On ch=3 n=62 v=119
21984 On ch=3 n=66 v=111
21984 On ch=3 n=69 v=120
21984 On ch=3 n=74 v=119
21984 On ch=3 n=78 v=119
21984 On ch=6 n=90 v=121
21984 On ch=7 n=78 v=120
21987 On ch=10 n=81 v=103
21996 On ch=3 n=69 v=0
21999 On ch=10 n=81 v=0
22000 On ch=3 n=74 v=0
22002 On ch=1 n=57 v=0
22004 On ch=1 n=62 v=0
22005 On ch=3 n=78 v=0
22006 On ch=3 n=66 v=0
22007 On ch=1 n=69 v=0
22008 On ch=6 n=90 v=0
22008 On ch=7 n=78 v=0
22009 On ch=3 n=62 v=0
22011 On ch=1 n=66 v=0
22014 On ch=2 n=38 v=0
22031 On ch=2 n=37 v=125
22032 On ch=1 n=57 v=123
22032 On ch=1 n=61 v=123
22032 On ch=1 n=64 v=123
22032 On ch=1 n=69 v=123
22032 On ch=3 n=61 v=119
22032 On ch=3 n=64 v=120
22032 On ch=3 n=69 v=122
22032 On ch=3 n=73 v=118
22032 On ch=3 n=76 v=122
22032 On ch=6 n=88 v=122
22032 On ch=7 n=76 v=121
22036 On ch=10 n=81 v=104
22048 On ch=3 n=69 v=0
22050 On ch=10 n=81 v=0
22051 On ch=3 n=73 v=0
22052 On ch=6 n=88 v=0
22052 On ch=7 n=76 v=0
22054 On ch=1 n=61 v=0
22054 On ch=1 n=64 v=0
22054 On ch=2 n=37 v=0
22054 On ch=3 n=76 v=0
22054 On ch=1 n=57 v=0
22056 On ch=3 n=64 v=0
22057 On ch=1 n=69 v=0
22057 On ch=3 n=61 v=0
22079 On ch=2 n=36 v=125
22079 On ch=10 n=35 v=123
22079 On ch=10 n=45 v=123
22079 On ch=10 n=47 v=118
22080 On ch=1 n=48 v=120
22080 On ch=1 n=55 v=123
22080 On ch=1 n=60 v=123
22080 On ch=1 n=64 v=123
22080 On ch=1 n=67 v=123
22080 On ch=3 n=60 v=120
22080 On ch=3 n=64 v=119
22080 On ch=3 n=67 v=119
22080 On ch=3 n=72 v=120
22080 On ch=3 n=76 v=118
22080 On ch=11 n=36 v=122
22080 On ch=11 n=48 v=118
22083 On ch=10 n=47 v=0
22083 On ch=10 n=81 v=102
22084 On ch=4 n=88 v=113
22086 On ch=4 n=88 v=0
22086 On ch=4 n=76 v=113
22087 On ch=10 n=45 v=0
22087 On ch=10 n=35 v=0
22088 On ch=1 n=64 v=0
22088 On ch=1 n=60 v=0
22088 On ch=3 n=60 v=0
22088 On ch=3 n=72 v=0
22088 On ch=3 n=67 v=0
22088 On ch=11 n=36 v=0
22089 On ch=3 n=76 v=0
22089 On ch=11 n=48 v=0
22089 On ch=1 n=67 v=0
22089 On ch=3 n=64 v=0
22090 On ch=1 n=48 v=0
22091 On ch=1 n=55 v=0
22093 On ch=10 n=81 v=0
22094 On ch=2 n=36 v=0
22097 On ch=4 n=76 v=0
22100 On ch=1 n=55 v=119
22101 On ch=1 n=48 v=118
22101 On ch=1 n=60 v=123
22101 On ch=1 n=67 v=123
22102 On ch=1 n=64 v=123
22103 On ch=2 n=36 v=120
22103 On ch=10 n=35 v=123
22103 On ch=10 n=45 v=123
22104 On ch=3 n=60 v=116
22104 On ch=3 n=64 v=108
22104 On ch=3 n=67 v=116
22104 On ch=3 n=72 v=114
22104 On ch=3 n=76 v=116
22104 On ch=11 n=36 v=122
22104 On ch=11 n=48 v=117
22107 On ch=4 n=76 v=113
22107 On ch=4 n=88 v=113
22107 On ch=10 n=81 v=99
22112 On ch=1 n=60 v=0
22113 On ch=11 n=48 v=0
22113 On ch=3 n=72 v=0
22114 On ch=3 n=67 v=0
22114 On ch=1 n=64 v=0
22114 On ch=10 n=35 v=0
22114 On ch=1 n=48 v=0
22115 On ch=10 n=45 v=0
22115 On ch=1 n=67 v=0
22115 On ch=3 n=76 v=0
22115 On ch=11 n=36 v=0
22116 On ch=3 n=60 v=0
22116 On ch=4 n=88 v=0
22116 On ch=1 n=55 v=0
22116 On ch=10 n=81 v=0
22117 On ch=3 n=64 v=0
22118 On ch=2 n=36 v=0
22118 On ch=4 n=76 v=0
22125 On ch=1 n=60 v=122
22126 On ch=1 n=48 v=123
22126 On ch=1 n=55 v=121
22126 On ch=1 n=67 v=123
22127 On ch=1 n=64 v=123
22127 On ch=2 n=36 v=116
22127 On ch=10 n=35 v=123
22127 On ch=10 n=45 v=124
22127 On ch=10 n=81 v=104
22128 On ch=3 n=60 v=115
22128 On ch=3 n=64 v=117
22128 On ch=3 n=67 v=113
22128 On ch=3 n=72 v=116
22128 On ch=3 n=76 v=113
22128 On ch=4 n=88 v=113
22128 On ch=11 n=36 v=120
22128 On ch=11 n=48 v=117
22129 On ch=4 n=88 v=0
22130 On ch=4 n=76 v=113
22137 On ch=11 n=48 v=0
22137 On ch=11 n=36 v=0
22137 On ch=3 n=72 v=0
22137 On ch=1 n=60 v=0
22138 On ch=10 n=45 v=0
22138 On ch=10 n=81 v=0
22138 On ch=1 n=64 v=0
22138 On ch=3 n=67 v=0
22138 On ch=10 n=35 v=0
22139 On ch=4 n=76 v=0
22139 On ch=1 n=67 v=0
22139 On ch=3 n=76 v=0
22140 On ch=1 n=48 v=0
22141 On ch=1 n=55 v=0
22142 On ch=3 n=64 v=0
22142 On ch=3 n=60 v=0
22147 On ch=2 n=36 v=0
22148 On ch=1 n=48 v=109
22149 On ch=1 n=55 v=122
22149 On ch=1 n=60 v=122
22149 On ch=1 n=67 v=123
22149 On ch=10 n=81 v=110
22150 On ch=1 n=64 v=122
22150 On ch=4 n=76 v=113
22150 On ch=4 n=88 v=113
22151 On ch=2 n=31 v=125
22151 On ch=10 n=35 v=123
22151 On ch=10 n=45 v=122
22152 On ch=3 n=60 v=115
22152 On ch=3 n=64 v=118
22152 On ch=3 n=67 v=119
22152 On ch=3 n=72 v=120
22152 On ch=3 n=76 v=117
22152 On ch=11 n=36 v=120
22152 On ch=11 n=48 v=118
22160 On ch=10 n=81 v=0
22161 On ch=11 n=48 v=0
22161 On ch=11 n=36 v=0
22162 On ch=1 n=60 v=0
22162 On ch=4 n=88 v=0
22162 On ch=4 n=76 v=0
22163 On ch=10 n=35 v=0
22163 On ch=1 n=67 v=0
22164 On ch=1 n=55 v=0
22165 On ch=3 n=67 v=0
22166 On ch=1 n=64 v=0
22167 On ch=1 n=48 v=0
22167 On ch=10 n=45 v=0
22168 On ch=3 n=72 v=0
22169 On ch=3 n=64 v=0
22169 On ch=3 n=76 v=0
22169 On ch=2 n=31 v=0
22171 On ch=3 n=60 v=0
22175 On ch=1 n=47 v=120
22175 On ch=2 n=35 v=125
22175 On ch=10 n=35 v=124
22175 On ch=10 n=43 v=124
22176 On ch=1 n=55 v=123
22176 On ch=1 n=59 v=123
22176 On ch=1 n=62 v=123
22176 On ch=1 n=67 v=123
22176 On ch=3 n=59 v=118
22176 On ch=3 n=62 v=119
22176 On ch=3 n=67 v=119
22176 On ch=3 n=71 v=121
22176 On ch=3 n=74 v=119
22176 On ch=11 n=36 v=119
22176 On ch=11 n=48 v=120
22176 On ch=10 n=81 v=114
22177 On ch=4 n=74 v=113
22177 On ch=4 n=86 v=113
22186 On ch=11 n=48 v=0
22186 On ch=11 n=36 v=0
22187 On ch=10 n=81 v=0
22191 On ch=4 n=86 v=0
22191 On ch=4 n=74 v=0
22193 On ch=1 n=47 v=0
22193 On ch=3 n=67 v=0
22194 On ch=1 n=55 v=0
22194 On ch=3 n=71 v=0
22195 On ch=1 n=59 v=0
22196 On ch=10 n=35 v=0
22196 On ch=1 n=67 v=0
22196 On ch=1 n=62 v=0
22197 On ch=3 n=74 v=0
22198 On ch=10 n=43 v=0
22198 On ch=3 n=62 v=0
22199 On ch=3 n=59 v=0
22200 On ch=2 n=35 v=0
22222 On ch=1 n=47 v=120
22223 On ch=1 n=55 v=123
22223 On ch=1 n=67 v=123
22223 On ch=2 n=35 v=125
22223 On ch=10 n=35 v=124
22223 On ch=10 n=43 v=123
22223 On ch=10 n=45 v=121
22224 On ch=1 n=59 v=123
22224 On ch=1 n=62 v=123
22224 On ch=3 n=59 v=115
22224 On ch=3 n=62 v=119
22224 On ch=3 n=67 v=117
22224 On ch=3 n=71 v=121
22224 On ch=3 n=74 v=119
22224 On ch=11 n=36 v=122
22224 On ch=11 n=48 v=122
22224 On ch=10 n=81 v=109
22225 On ch=4 n=74 v=113
22225 On ch=4 n=86 v=113
22230 On ch=10 n=45 v=0
22233 On ch=11 n=48 v=0
22234 On ch=11 n=36 v=0
22236 On ch=10 n=81 v=0
22236 On ch=3 n=71 v=0
22239 On ch=1 n=59 v=0
22240 On ch=3 n=62 v=0
22241 On ch=4 n=86 v=0
22242 On ch=3 n=59 v=0
22242 On ch=3 n=67 v=0
22242 On ch=1 n=67 v=0
22243 On ch=4 n=74 v=0
22243 On ch=1 n=55 v=0
22245 On ch=10 n=35 v=0
22246 On ch=1 n=62 v=0
22246 On ch=1 n=47 v=0
22246 On ch=10 n=43 v=0
22246 On ch=3 n=74 v=0
22247 On ch=2 n=35 v=0
22270 On ch=1 n=53 v=123
22271 On ch=2 n=34 v=125
22271 On ch=10 n=35 v=124
22271 On ch=10 n=43 v=123
22271 On ch=10 n=81 v=108
22272 On ch=1 n=46 v=122
22272 On ch=1 n=58 v=123
22272 On ch=1 n=62 v=123
22272 On ch=3 n=58 v=121
22272 On ch=3 n=65 v=114
22272 On ch=3 n=70 v=118
22272 On ch=3 n=74 v=122
22272 On ch=3 n=77 v=116
22272 On ch=4 n=86 v=113
22272 On ch=11 n=36 v=119
22272 On ch=11 n=48 v=120
22273 On ch=4 n=86 v=0
22273 On ch=1 n=65 v=123
22274 On ch=4 n=74 v=113
22279 On ch=10 n=35 v=0
22280 On ch=10 n=81 v=0
22281 On ch=11 n=48 v=0
22282 On ch=10 n=43 v=0
22282 On ch=11 n=36 v=0
22283 On ch=3 n=70 v=0
22284 On ch=1 n=62 v=0
22284 On ch=4 n=74 v=0
22284 On ch=3 n=77 v=0
22285 On ch=1 n=58 v=0
22285 On ch=3 n=65 v=0
22285 On ch=3 n=74 v=0
22286 On ch=1 n=53 v=0
22287 On ch=1 n=46 v=0
22287 On ch=1 n=65 v=0
22288 On ch=3 n=58 v=0
22292 On ch=1 n=62 v=115
22293 On ch=1 n=53 v=122
22293 On ch=1 n=58 v=120
22293 On ch=10 n=81 v=106
22294 On ch=1 n=46 v=121
22294 On ch=1 n=65 v=123
22295 On ch=2 n=34 v=0
22295 On ch=2 n=33 v=125
22295 On ch=10 n=35 v=123
22295 On ch=10 n=43 v=123
22296 On ch=3 n=58 v=115
22296 On ch=3 n=65 v=114
22296 On ch=3 n=70 v=120
22296 On ch=3 n=74 v=104
22296 On ch=3 n=77 v=117
22296 On ch=4 n=74 v=113
22296 On ch=4 n=86 v=113
22296 On ch=11 n=36 v=121
22296 On ch=11 n=48 v=118
22303 On ch=10 n=81 v=0
22305 On ch=11 n=48 v=0
22305 On ch=11 n=36 v=0
22305 On ch=10 n=35 v=0
22305 On ch=4 n=86 v=0
22306 On ch=1 n=62 v=0
22306 On ch=10 n=43 v=0
22306 On ch=4 n=74 v=0
22306 On ch=3 n=74 v=0
22308 On ch=1 n=65 v=0
22308 On ch=1 n=58 v=0
22308 On ch=1 n=46 v=0
22308 On ch=3 n=70 v=0
22309 On ch=1 n=53 v=0
22311 On ch=3 n=77 v=0
22311 On ch=2 n=33 v=0
22312 On ch=3 n=65 v=0
22313 On ch=3 n=58 v=0
22315 On ch=10 n=81 v=108
22316 On ch=1 n=62 v=123
22317 On ch=1 n=53 v=122
22317 On ch=1 n=58 v=123
22317 On ch=1 n=65 v=113
22318 On ch=4 n=86 v=113
22319 On ch=1 n=46 v=120
22319 On ch=2 n=32 v=125
22319 On ch=10 n=35 v=123
22319 On ch=10 n=43 v=123
22320 On ch=4 n=86 v=0
22320 On ch=3 n=65 v=105
22320 On ch=3 n=70 v=105
22320 On ch=3 n=74 v=105
22320 On ch=3 n=77 v=105
22320 On ch=4 n=74 v=113
22320 On ch=11 n=36 v=122
22320 On ch=11 n=48 v=119
22326 On ch=10 n=81 v=0
22327 On ch=11 n=48 v=0
22329 On ch=11 n=36 v=0
22329 On ch=4 n=74 v=0
22330 On ch=10 n=43 v=0
22330 On ch=1 n=62 v=0
22330 On ch=10 n=35 v=0
22330 On ch=3 n=74 v=0
22332 On ch=1 n=58 v=0
22332 On ch=3 n=70 v=0
22332 On ch=1 n=46 v=0
22333 On ch=3 n=77 v=0
22333 On ch=1 n=65 v=0
22339 On ch=10 n=81 v=111
22340 On ch=3 n=65 v=0
22340 On ch=1 n=58 v=122
22340 On ch=1 n=62 v=123
22341 On ch=2 n=32 v=0
22341 On ch=1 n=65 v=117
22342 On ch=1 n=46 v=121
22342 On ch=1 n=66 v=120
22342 On ch=4 n=74 v=113
22342 On ch=4 n=86 v=113
22343 On ch=2 n=31 v=125
22343 On ch=10 n=35 v=122
22343 On ch=10 n=43 v=123
22344 On ch=3 n=58 v=119
22344 On ch=3 n=70 v=116
22344 On ch=3 n=74 v=111
22344 On ch=3 n=77 v=118
22344 On ch=11 n=36 v=122
22344 On ch=11 n=48 v=119
22350 On ch=10 n=81 v=0
22351 On ch=4 n=74 v=0
22352 On ch=1 n=53 v=0
22353 On ch=1 n=62 v=0
22353 On ch=11 n=48 v=0
22353 On ch=4 n=86 v=0
22354 On ch=11 n=36 v=0
22354 On ch=3 n=74 v=0
22354 On ch=1 n=66 v=0
22356 On ch=1 n=58 v=0
22356 On ch=10 n=35 v=0
22356 On ch=1 n=65 v=0
22357 On ch=3 n=70 v=0
22357 On ch=10 n=43 v=0
22361 On ch=2 n=31 v=0
22361 On ch=3 n=77 v=0
22361 On ch=1 n=46 v=0
22362 On ch=3 n=58 v=0
22364 On ch=10 n=81 v=112
22366 On ch=1 n=66 v=123
22367 On ch=1 n=50 v=122
22367 On ch=1 n=54 v=123
22367 On ch=1 n=60 v=123
22367 On ch=1 n=62 v=123
22367 On ch=2 n=30 v=125
22367 On ch=10 n=35 v=123
22367 On ch=10 n=45 v=124
22368 On ch=3 n=50 v=122
22368 On ch=3 n=62 v=123
22368 On ch=3 n=72 v=117
22368 On ch=3 n=74 v=117
22368 On ch=3 n=78 v=118
22368 On ch=4 n=78 v=113
22368 On ch=11 n=36 v=122
22368 On ch=11 n=48 v=120
22369 On ch=4 n=78 v=0
22370 On ch=4 n=90 v=113
22377 On ch=10 n=81 v=0
22378 On ch=11 n=48 v=0
22379 On ch=11 n=36 v=0
22382 On ch=4 n=90 v=0
22388 On ch=10 n=35 v=0
22388 On ch=3 n=74 v=0
22390 On ch=3 n=50 v=0
22390 On ch=1 n=60 v=0
22391 On ch=3 n=78 v=0
22391 On ch=10 n=45 v=0
22392 On ch=1 n=66 v=0
22392 On ch=1 n=54 v=0
22393 On ch=3 n=72 v=0
22394 On ch=1 n=50 v=0
22395 On ch=1 n=62 v=0
22396 On ch=3 n=62 v=0
22399 On ch=2 n=30 v=0
22412 On ch=10 n=81 v=112
22415 On ch=2 n=26 v=125
22415 On ch=2 n=28 v=125
22415 On ch=10 n=35 v=124
22415 On ch=10 n=43 v=124
22416 On ch=3 n=50 v=122
22416 On ch=3 n=62 v=120
22416 On ch=3 n=72 v=121
22416 On ch=3 n=74 v=122
22416 On ch=3 n=78 v=119
22416 On ch=11 n=36 v=120
22416 On ch=11 n=48 v=120
22417 On ch=4 n=78 v=113
22417 On ch=4 n=90 v=113
22418 On ch=1 n=50 v=122
22418 On ch=1 n=54 v=123
22419 On ch=1 n=60 v=123
22419 On ch=1 n=62 v=123
22419 On ch=1 n=66 v=123
22422 On ch=2 n=28 v=0
22425 On ch=10 n=81 v=0
22426 On ch=11 n=48 v=0
22428 On ch=11 n=36 v=0
22431 On ch=4 n=78 v=0
22431 On ch=4 n=90 v=0
22434 On ch=3 n=62 v=0
22436 On ch=10 n=43 v=0
22436 On ch=3 n=72 v=0
22436 On ch=10 n=35 v=0
22437 On ch=3 n=74 v=0
22438 On ch=3 n=78 v=0
22440 On ch=1 n=60 v=0
22440 On ch=3 n=50 v=0
22441 On ch=1 n=54 v=0
22443 On ch=1 n=62 v=0
22444 On ch=2 n=26 v=0
22445 On ch=1 n=50 v=0
22446 On ch=1 n=66 v=0
22463 On ch=2 n=31 v=125
22463 On ch=10 n=35 v=124
22463 On ch=10 n=40 v=124
22464 On ch=3 n=43 v=121
22464 On ch=3 n=55 v=122
22464 On ch=3 n=71 v=122
22464 On ch=3 n=74 v=121
22464 On ch=3 n=79 v=119
22464 On ch=11 n=36 v=122
22464 On ch=11 n=48 v=120
22464 On ch=10 n=81 v=117
22465 On ch=1 n=50 v=123
22465 On ch=1 n=67 v=123
22465 On ch=4 n=79 v=113
22465 On ch=4 n=91 v=113
22466 On ch=4 n=79 v=0
22466 On ch=1 n=43 v=123
22466 On ch=1 n=55 v=123
22466 On ch=1 n=59 v=123
22466 On ch=1 n=62 v=123
22470 On ch=1 n=66 v=101
22473 On ch=1 n=66 v=0
22473 On ch=10 n=81 v=0
22474 On ch=11 n=36 v=0
22475 On ch=11 n=48 v=0
22481 On ch=4 n=91 v=0
22485 On ch=3 n=71 v=0
22488 On ch=3 n=74 v=0
22488 On ch=3 n=43 v=0
22489 On ch=3 n=55 v=0
22489 On ch=3 n=79 v=0
22497 On ch=1 n=62 v=0
22497 On ch=2 n=31 v=0
22498 On ch=1 n=59 v=0
22499 On ch=1 n=67 v=0
22500 On ch=1 n=43 v=0
22500 On ch=1 n=55 v=0
22501 On ch=1 n=50 v=0
22503 On ch=10 n=40 v=0
22503 On ch=10 n=35 v=0
22512 On ch=8 n=59 v=119
22512 On ch=8 n=67 v=119
22524 On ch=8 n=67 v=0
22526 On ch=8 n=59 v=0
22536 On ch=8 n=59 v=119
22536 On ch=8 n=67 v=119
22547 On ch=8 n=67 v=0
22560 On ch=8 n=59 v=0
22560 On ch=8 n=60 v=120
22560 On ch=8 n=67 v=120
22584 On ch=8 n=59 v=120
22589 On ch=8 n=60 v=0
22594 On ch=8 n=67 v=0
22601 On ch=8 n=59 v=0
22608 On ch=3 n=50 v=116
22608 On ch=3 n=62 v=114
22608 On ch=4 n=62 v=113
22608 On ch=4 n=74 v=113
22617 On ch=4 n=62 v=0
22617 On ch=3 n=50 v=0
22617 On ch=3 n=62 v=0
22620 On ch=4 n=74 v=0
22632 On ch=3 n=50 v=113
22632 On ch=3 n=62 v=114
22632 On ch=4 n=62 v=113
22632 On ch=4 n=74 v=113
22638 On ch=3 n=50 v=0
22639 On ch=3 n=62 v=0
22645 On ch=4 n=62 v=0
22645 On ch=4 n=74 v=0
22656 On ch=3 n=52 v=119
22656 On ch=3 n=64 v=119
22656 On ch=4 n=64 v=113
22656 On ch=4 n=76 v=113
22677 On ch=3 n=52 v=0
22679 On ch=3 n=64 v=0
22679 On ch=4 n=64 v=0
22679 On ch=4 n=76 v=0
22680 On ch=3 n=50 v=115
22680 On ch=3 n=62 v=114
22680 On ch=4 n=62 v=113
22680 On ch=4 n=74 v=113
22690 On ch=3 n=62 v=0
22691 On ch=3 n=50 v=0
22701 On ch=4 n=74 v=0
22704 On ch=4 n=62 v=0
22704 On ch=8 n=59 v=120
22704 On ch=8 n=67 v=120
22714 On ch=8 n=67 v=0
22716 On ch=8 n=59 v=0
22728 On ch=8 n=59 v=120
22728 On ch=8 n=67 v=120
22738 On ch=8 n=67 v=0
22752 On ch=8 n=59 v=0
22752 On ch=8 n=60 v=120
22752 On ch=8 n=67 v=120
22775 On ch=8 n=60 v=0
22776 On ch=8 n=67 v=0
22776 On ch=8 n=59 v=120
22790 On ch=8 n=59 v=0
22800 On ch=3 n=50 v=116
22800 On ch=3 n=62 v=118
22800 On ch=4 n=60 v=113
22800 On ch=4 n=74 v=113
22807 On ch=3 n=50 v=0
22808 On ch=3 n=62 v=0
22811 On ch=4 n=74 v=0
22814 On ch=4 n=60 v=0
22824 On ch=3 n=50 v=116
22824 On ch=3 n=62 v=116
22824 On ch=4 n=74 v=113
22832 On ch=3 n=50 v=0
22833 On ch=3 n=62 v=0
22837 On ch=4 n=74 v=0
22848 On ch=3 n=52 v=119
22848 On ch=3 n=64 v=119
22848 On ch=4 n=64 v=113
22848 On ch=4 n=76 v=113
22864 On ch=3 n=52 v=0
22866 On ch=3 n=64 v=0
22871 On ch=4 n=64 v=0
22871 On ch=4 n=76 v=0
22872 On ch=3 n=50 v=116
22872 On ch=3 n=62 v=119
22872 On ch=4 n=62 v=113
22872 On ch=4 n=74 v=113
22881 On ch=3 n=62 v=0
22882 On ch=3 n=50 v=0
22888 On ch=4 n=62 v=0
22888 On ch=4 n=74 v=0
22896 On ch=3 n=62 v=119
22896 On ch=3 n=74 v=119
22896 On ch=8 n=55 v=120
22896 On ch=8 n=59 v=120
22896 On ch=8 n=67 v=120
22901 On ch=3 n=62 v=0
22905 On ch=3 n=74 v=0
22908 On ch=8 n=67 v=0
22909 On ch=8 n=55 v=0
22909 On ch=8 n=59 v=0
22920 On ch=3 n=62 v=119
22920 On ch=3 n=74 v=121
22920 On ch=8 n=55 v=120
22920 On ch=8 n=59 v=119
22920 On ch=8 n=67 v=120
22931 On ch=3 n=62 v=0
22934 On ch=8 n=67 v=0
22937 On ch=3 n=74 v=0
22938 On ch=8 n=55 v=0
22943 On ch=8 n=59 v=0
22944 On ch=3 n=64 v=121
22944 On ch=3 n=76 v=116
22944 On ch=8 n=57 v=120
22944 On ch=8 n=60 v=119
22944 On ch=8 n=67 v=120
22965 On ch=3 n=76 v=0
22967 On ch=8 n=60 v=0
22968 On ch=8 n=57 v=0
22968 On ch=3 n=62 v=119
22968 On ch=3 n=74 v=117
22968 On ch=8 n=55 v=119
22968 On ch=8 n=59 v=111
22970 On ch=3 n=64 v=0
22987 On ch=3 n=62 v=0
22989 On ch=3 n=74 v=0
22989 On ch=8 n=55 v=0
22992 On ch=3 n=60 v=119
22992 On ch=3 n=72 v=120
22992 On ch=8 n=54 v=119
22992 On ch=8 n=57 v=119
22995 On ch=8 n=59 v=0
23006 On ch=8 n=54 v=0
23009 On ch=3 n=72 v=0
23009 On ch=3 n=60 v=0
23016 On ch=3 n=59 v=119
23016 On ch=3 n=71 v=119
23016 On ch=8 n=52 v=120
23016 On ch=8 n=55 v=120
23019 On ch=8 n=57 v=0
23031 On ch=3 n=71 v=0
23034 On ch=3 n=59 v=0
23036 On ch=8 n=67 v=0
23036 On ch=8 n=55 v=0
23040 On ch=8 n=52 v=0
23040 On ch=3 n=57 v=119
23040 On ch=3 n=69 v=120
23040 On ch=8 n=50 v=120
23040 On ch=8 n=54 v=120
23040 On ch=8 n=62 v=120
23040 On ch=8 n=66 v=120
23055 On ch=3 n=69 v=0
23061 On ch=8 n=50 v=0
23062 On ch=3 n=57 v=0
23064 On ch=8 n=54 v=0
23066 On ch=8 n=66 v=0
23069 On ch=8 n=62 v=0
23088 On ch=4 n=72 v=113
23088 On ch=6 n=84 v=119
23088 On ch=7 n=72 v=117
23088 On ch=8 n=72 v=118
23103 On ch=8 n=72 v=0
23103 On ch=7 n=72 v=0
23103 On ch=6 n=84 v=0
23104 On ch=4 n=72 v=0
23112 On ch=4 n=72 v=113
23112 On ch=6 n=84 v=119
23112 On ch=7 n=72 v=117
23112 On ch=8 n=72 v=118
23124 On ch=8 n=72 v=0
23124 On ch=7 n=72 v=0
23124 On ch=6 n=84 v=0
23130 On ch=4 n=72 v=0
23136 On ch=4 n=72 v=113
23136 On ch=6 n=84 v=119
23136 On ch=7 n=72 v=117
23136 On ch=8 n=72 v=118
23159 On ch=4 n=72 v=0
23160 On ch=4 n=69 v=113
23160 On ch=6 n=81 v=119
23160 On ch=7 n=69 v=117
23160 On ch=8 n=69 v=118
23207 On ch=4 n=69 v=0
23208 On ch=4 n=65 v=113
23208 On ch=6 n=77 v=119
23208 On ch=7 n=65 v=117
23208 On ch=8 n=65 v=118
23255 On ch=4 n=65 v=0
23256 On ch=4 n=62 v=113
23256 On ch=6 n=74 v=120
23256 On ch=7 n=62 v=119
23256 On ch=8 n=62 v=119
23287 On ch=8 n=72 v=0
23287 On ch=6 n=84 v=0
23287 On ch=7 n=72 v=0
23303 On ch=4 n=62 v=0
23304 On ch=4 n=60 v=113
23304 On ch=6 n=72 v=120
23304 On ch=7 n=60 v=118
23304 On ch=8 n=60 v=119
23352 On ch=8 n=69 v=0
23352 On ch=6 n=81 v=0
23352 On ch=7 n=69 v=0
23353 On ch=4 n=60 v=0
23357 On ch=8 n=65 v=0
23357 On ch=6 n=77 v=0
23357 On ch=7 n=65 v=0
23359 On ch=8 n=62 v=0
23359 On ch=6 n=74 v=0
23359 On ch=7 n=62 v=0
23367 On ch=8 n=60 v=0
23367 On ch=6 n=72 v=0
23367 On ch=7 n=60 v=0
23376 On ch=1 n=61 v=113
23376 On ch=1 n=65 v=113
23376 On ch=1 n=68 v=113
23376 On ch=1 n=73 v=113
23376 On ch=3 n=49 v=116
23376 On ch=3 n=56 v=113
23376 On ch=3 n=61 v=113
23385 On ch=3 n=49 v=0
23386 On ch=3 n=61 v=0
23387 On ch=1 n=68 v=0
23387 On ch=3 n=56 v=0
23388 On ch=1 n=65 v=0
23388 On ch=1 n=73 v=0
23391 On ch=1 n=61 v=0
23424 On ch=1 n=60 v=114
23424 On ch=1 n=64 v=114
23424 On ch=1 n=67 v=114
23424 On ch=1 n=72 v=114
23424 On ch=3 n=48 v=103
23424 On ch=3 n=55 v=107
23424 On ch=3 n=60 v=111
23432 On ch=3 n=55 v=0
23432 On ch=1 n=67 v=0
23432 On ch=1 n=64 v=0
23432 On ch=3 n=48 v=0
23433 On ch=3 n=60 v=0
23434 On ch=1 n=72 v=0
23434 On ch=1 n=60 v=0
23448 On ch=1 n=60 v=114
23448 On ch=1 n=64 v=114
23448 On ch=1 n=67 v=114
23448 On ch=1 n=72 v=114
23448 On ch=3 n=48 v=113
23448 On ch=3 n=55 v=111
23448 On ch=3 n=60 v=108
23455 On ch=3 n=55 v=0
23456 On ch=1 n=64 v=0
23457 On ch=1 n=67 v=0
23457 On ch=1 n=72 v=0
23457 On ch=3 n=48 v=0
23457 On ch=3 n=60 v=0
23458 On ch=1 n=60 v=0
23472 On ch=1 n=59 v=114
23472 On ch=1 n=63 v=114
23472 On ch=1 n=66 v=114
23472 On ch=1 n=71 v=114
23472 On ch=3 n=47 v=117
23472 On ch=3 n=54 v=117
23472 On ch=3 n=59 v=118
23480 On ch=3 n=59 v=0
23480 On ch=3 n=54 v=0
23481 On ch=1 n=63 v=0
23481 On ch=3 n=47 v=0
23486 On ch=1 n=59 v=0
23487 On ch=1 n=71 v=0
23488 On ch=1 n=66 v=0
23520 On ch=1 n=60 v=114
23520 On ch=1 n=64 v=114
23520 On ch=1 n=67 v=114
23520 On ch=1 n=72 v=114
23520 On ch=3 n=48 v=114
23520 On ch=3 n=55 v=116
23520 On ch=3 n=60 v=119
23529 On ch=3 n=55 v=0
23530 On ch=1 n=64 v=0
23530 On ch=3 n=60 v=0
23531 On ch=3 n=48 v=0
23535 On ch=1 n=72 v=0
23536 On ch=1 n=67 v=0
23540 On ch=1 n=60 v=0
23568 On ch=1 n=61 v=114
23568 On ch=1 n=65 v=114
23568 On ch=1 n=68 v=114
23568 On ch=1 n=73 v=114
23568 On ch=3 n=49 v=116
23568 On ch=3 n=56 v=117
23568 On ch=3 n=61 v=118
23578 On ch=3 n=61 v=0
23578 On ch=3 n=56 v=0
23579 On ch=3 n=49 v=0
23581 On ch=1 n=68 v=0
23581 On ch=1 n=65 v=0
23583 On ch=1 n=73 v=0
23587 On ch=1 n=61 v=0
23616 On ch=1 n=60 v=114
23616 On ch=1 n=64 v=114
23616 On ch=1 n=67 v=114
23616 On ch=1 n=72 v=114
23616 On ch=3 n=48 v=113
23616 On ch=3 n=55 v=113
23616 On ch=3 n=60 v=114
23623 On ch=1 n=64 v=0
23625 On ch=3 n=48 v=0
23625 On ch=1 n=67 v=0
23625 On ch=3 n=55 v=0
23626 On ch=3 n=60 v=0
23626 On ch=1 n=60 v=0
23628 On ch=1 n=72 v=0
23640 On ch=1 n=60 v=114
23640 On ch=1 n=64 v=114
23640 On ch=1 n=67 v=114
23640 On ch=1 n=72 v=114
23640 On ch=3 n=48 v=104
23640 On ch=3 n=55 v=100
23640 On ch=3 n=60 v=110
23645 On ch=1 n=64 v=0
23646 On ch=3 n=55 v=0
23648 On ch=3 n=60 v=0
23649 On ch=3 n=48 v=0
23651 On ch=1 n=60 v=0
23651 On ch=1 n=67 v=0
23651 On ch=1 n=72 v=0
23664 On ch=1 n=59 v=114
23664 On ch=1 n=63 v=114
23664 On ch=1 n=66 v=114
23664 On ch=1 n=71 v=114
23664 On ch=3 n=47 v=118
23664 On ch=3 n=54 v=116
23664 On ch=3 n=59 v=114
23688 On ch=1 n=63 v=0
23692 On ch=1 n=71 v=0
23692 On ch=1 n=66 v=0
23705 On ch=3 n=54 v=0
23706 On ch=3 n=59 v=0
23707 On ch=1 n=59 v=0
23709 On ch=3 n=47 v=0
23712 On ch=1 n=60 v=122
23712 On ch=1 n=64 v=122
23712 On ch=1 n=67 v=120
23712 On ch=1 n=72 v=120
23712 On ch=3 n=48 v=118
23712 On ch=3 n=55 v=115
23712 On ch=3 n=60 v=117
23731 On ch=1 n=60 v=0
23735 On ch=3 n=55 v=0
23741 On ch=3 n=60 v=0
23743 On ch=1 n=64 v=0
23744 On ch=1 n=72 v=0
23755 On ch=3 n=48 v=0
23759 On ch=2 n=29 v=125
23759 On ch=10 n=35 v=123
23759 On ch=10 n=43 v=123
23760 On ch=1 n=67 v=0
23760 On ch=1 n=41 v=117
23760 On ch=1 n=53 v=123
23760 On ch=1 n=65 v=123
23760 On ch=1 n=70 v=123
23760 On ch=1 n=74 v=121
23760 On ch=3 n=53 v=119
23760 On ch=3 n=65 v=117
23760 On ch=3 n=70 v=118
23760 On ch=3 n=74 v=120
23760 On ch=4 n=74 v=113
23760 On ch=4 n=86 v=113
23760 On ch=13 n=74 v=123
23760 On ch=11 n=36 v=121
23760 On ch=11 n=48 v=122
23765 On ch=10 n=81 v=114
23767 On ch=11 n=48 v=0
23769 On ch=11 n=36 v=0
23777 On ch=10 n=81 v=0
23782 On ch=1 n=53 v=0
23784 On ch=10 n=35 v=0
23786 On ch=10 n=43 v=0
23787 On ch=1 n=41 v=0
23788 On ch=1 n=65 v=0
23791 On ch=3 n=65 v=0
23791 On ch=2 n=29 v=0
23792 On ch=3 n=53 v=0
23793 On ch=3 n=74 v=0
23796 On ch=3 n=70 v=0
23797 On ch=1 n=70 v=0
23798 On ch=1 n=74 v=0
23799 On ch=13 n=74 v=0
23805 On ch=4 n=86 v=0
23807 On ch=4 n=74 v=0
23807 On ch=2 n=29 v=125
23807 On ch=10 n=35 v=122
23807 On ch=10 n=43 v=122
23808 On ch=1 n=41 v=122
23808 On ch=1 n=53 v=114
23808 On ch=1 n=65 v=123
23808 On ch=1 n=69 v=123
23808 On ch=1 n=72 v=123
23808 On ch=3 n=53 v=117
23808 On ch=3 n=65 v=117
23808 On ch=3 n=69 v=119
23808 On ch=3 n=72 v=119
23808 On ch=4 n=72 v=113
23808 On ch=4 n=84 v=113
23808 On ch=13 n=72 v=123
23808 On ch=11 n=36 v=122
23808 On ch=11 n=48 v=121
23811 On ch=10 n=81 v=108
23815 On ch=3 n=69 v=0
23816 On ch=11 n=48 v=0
23816 On ch=3 n=65 v=0
23816 On ch=3 n=72 v=0
23817 On ch=4 n=84 v=0
23817 On ch=11 n=36 v=0
23817 On ch=10 n=43 v=0
23817 On ch=3 n=53 v=0
23817 On ch=1 n=53 v=0
23817 On ch=10 n=35 v=0
23817 On ch=13 n=72 v=0
23818 On ch=1 n=69 v=0
23818 On ch=2 n=29 v=0
23818 On ch=1 n=65 v=0
23819 On ch=4 n=72 v=0
23819 On ch=1 n=41 v=0
23820 On ch=1 n=72 v=0
23822 On ch=10 n=81 v=0
23831 On ch=2 n=29 v=124
23831 On ch=10 n=35 v=121
23831 On ch=10 n=43 v=121
23832 On ch=1 n=41 v=116
23832 On ch=1 n=53 v=118
23832 On ch=1 n=65 v=117
23832 On ch=1 n=69 v=121
23832 On ch=1 n=72 v=116
23832 On ch=3 n=53 v=116
23832 On ch=3 n=65 v=114
23832 On ch=3 n=69 v=118
23832 On ch=3 n=72 v=113
23832 On ch=4 n=72 v=113
23832 On ch=4 n=84 v=113
23832 On ch=13 n=72 v=122
23835 On ch=10 n=81 v=108
23838 On ch=3 n=65 v=0
23838 On ch=1 n=65 v=0
23839 On ch=3 n=69 v=0
23839 On ch=3 n=53 v=0
23839 On ch=1 n=69 v=0
23839 On ch=10 n=43 v=0
23840 On ch=10 n=35 v=0
23841 On ch=1 n=41 v=0
23841 On ch=2 n=29 v=0
23841 On ch=13 n=72 v=0
23842 On ch=4 n=84 v=0
23843 On ch=1 n=53 v=0
23843 On ch=3 n=72 v=0
23844 On ch=4 n=72 v=0
23845 On ch=1 n=72 v=0
23845 On ch=10 n=81 v=0
23855 On ch=2 n=29 v=125
23855 On ch=10 n=35 v=122
23855 On ch=10 n=43 v=121
23856 On ch=1 n=41 v=118
23856 On ch=1 n=53 v=123
23856 On ch=1 n=65 v=120
23856 On ch=1 n=68 v=122
23856 On ch=1 n=71 v=117
23856 On ch=3 n=53 v=117
23856 On ch=3 n=65 v=119
23856 On ch=3 n=68 v=117
23856 On ch=3 n=71 v=119
23856 On ch=4 n=71 v=113
23856 On ch=4 n=83 v=113
23856 On ch=13 n=71 v=123
23856 On ch=11 n=36 v=121
23856 On ch=11 n=48 v=121
23860 On ch=10 n=81 v=111
23863 On ch=11 n=48 v=0
23863 On ch=11 n=36 v=0
23872 On ch=10 n=81 v=0
23872 On ch=13 n=71 v=0
23880 On ch=10 n=35 v=0
23883 On ch=10 n=43 v=0
23885 On ch=1 n=65 v=0
23886 On ch=1 n=41 v=0
23887 On ch=3 n=53 v=0
23887 On ch=3 n=65 v=0
23887 On ch=1 n=53 v=0
23887 On ch=1 n=68 v=0
23888 On ch=3 n=68 v=0
23891 On ch=3 n=71 v=0
23892 On ch=1 n=71 v=0
23892 On ch=2 n=29 v=0
23892 On ch=4 n=71 v=0
23894 On ch=4 n=83 v=0
23903 On ch=2 n=29 v=125
23903 On ch=10 n=35 v=123
23903 On ch=10 n=43 v=123
23904 On ch=1 n=41 v=117
23904 On ch=1 n=53 v=123
23904 On ch=1 n=65 v=123
23904 On ch=1 n=69 v=123
23904 On ch=1 n=72 v=123
23904 On ch=3 n=53 v=117
23904 On ch=3 n=65 v=114
23904 On ch=3 n=69 v=118
23904 On ch=3 n=72 v=115
23904 On ch=4 n=72 v=113
23904 On ch=4 n=84 v=113
23904 On ch=13 n=72 v=123
23904 On ch=11 n=36 v=120
23904 On ch=11 n=48 v=121
23908 On ch=10 n=81 v=113
23913 On ch=11 n=48 v=0
23913 On ch=11 n=36 v=0
23919 On ch=10 n=81 v=0
23929 On ch=13 n=72 v=0
23934 On ch=10 n=43 v=0
23934 On ch=10 n=35 v=0
23936 On ch=1 n=65 v=0
23937 On ch=3 n=65 v=0
23937 On ch=1 n=41 v=0
23938 On ch=2 n=29 v=0
23938 On ch=1 n=53 v=0
23939 On ch=1 n=69 v=0
23941 On ch=3 n=53 v=0
23941 On ch=3 n=69 v=0
23942 On ch=3 n=72 v=0
23942 On ch=1 n=72 v=0
23945 On ch=4 n=84 v=0
23947 On ch=4 n=72 v=0
23951 On ch=2 n=29 v=125
23951 On ch=10 n=35 v=123
23951 On ch=10 n=45 v=122
23952 On ch=1 n=41 v=105
23952 On ch=1 n=53 v=119
23952 On ch=1 n=65 v=123
23952 On ch=1 n=70 v=123
23952 On ch=1 n=74 v=118
23952 On ch=3 n=53 v=120
23952 On ch=3 n=65 v=115
23952 On ch=3 n=70 v=119
23952 On ch=3 n=74 v=112
23952 On ch=4 n=74 v=113
23952 On ch=4 n=86 v=113
23952 On ch=13 n=74 v=123
23952 On ch=11 n=36 v=120
23952 On ch=11 n=48 v=121
23955 On ch=10 n=81 v=111
23959 On ch=11 n=48 v=0
23959 On ch=3 n=70 v=0
23959 On ch=3 n=65 v=0
23959 On ch=1 n=70 v=0
23960 On ch=1 n=74 v=0
23960 On ch=3 n=53 v=0
23960 On ch=3 n=74 v=0
23960 On ch=1 n=65 v=0
23960 On ch=1 n=41 v=0
23961 On ch=11 n=36 v=0
23961 On ch=1 n=53 v=0
23962 On ch=4 n=86 v=0
23962 On ch=2 n=29 v=0
23962 On ch=10 n=45 v=0
23962 On ch=10 n=35 v=0
23963 On ch=13 n=74 v=0
23963 On ch=4 n=74 v=0
23963 On ch=10 n=81 v=0
23975 On ch=2 n=29 v=123
23975 On ch=10 n=35 v=121
23975 On ch=10 n=45 v=120
23976 On ch=1 n=41 v=117
23976 On ch=1 n=53 v=120
23976 On ch=1 n=65 v=120
23976 On ch=1 n=70 v=120
23976 On ch=1 n=74 v=120
23976 On ch=3 n=53 v=118
23976 On ch=3 n=65 v=113
23976 On ch=3 n=70 v=118
23976 On ch=3 n=74 v=117
23976 On ch=4 n=74 v=113
23976 On ch=4 n=86 v=113
23976 On ch=13 n=74 v=121
23978 On ch=10 n=81 v=109
23981 On ch=3 n=65 v=0
23981 On ch=1 n=74 v=0
23982 On ch=1 n=65 v=0
23983 On ch=1 n=41 v=0
23984 On ch=3 n=53 v=0
23984 On ch=3 n=74 v=0
23985 On ch=1 n=53 v=0
23985 On ch=3 n=70 v=0
23986 On ch=10 n=45 v=0
23987 On ch=1 n=70 v=0
23987 On ch=13 n=74 v=0
23987 On ch=2 n=29 v=0
23988 On ch=10 n=35 v=0
23988 On ch=4 n=74 v=0
23988 On ch=4 n=86 v=0
23989 On ch=10 n=81 v=0
23999 On ch=2 n=29 v=125
23999 On ch=10 n=35 v=124
23999 On ch=10 n=43 v=123
24000 On ch=1 n=41 v=120
24000 On ch=1 n=53 v=120
24000 On ch=1 n=65 v=122
24000 On ch=1 n=69 v=122
24000 On ch=1 n=72 v=117
24000 On ch=3 n=53 v=121
24000 On ch=3 n=65 v=117
24000 On ch=3 n=69 v=121
24000 On ch=3 n=72 v=116
24000 On ch=4 n=72 v=113
24000 On ch=4 n=84 v=113
24000 On ch=13 n=72 v=124
24000 On ch=11 n=36 v=121
24000 On ch=11 n=48 v=119
24002 On ch=10 n=81 v=110
24007 On ch=11 n=48 v=0
24007 On ch=11 n=36 v=0
24014 On ch=10 n=81 v=0
24020 On ch=13 n=72 v=0
24028 On ch=1 n=69 v=0
24030 On ch=1 n=41 v=0
24033 On ch=3 n=69 v=0
24033 On ch=10 n=43 v=0
24033 On ch=1 n=65 v=0
24034 On ch=1 n=72 v=0
24034 On ch=1 n=53 v=0
24034 On ch=3 n=65 v=0
24034 On ch=10 n=35 v=0
24036 On ch=3 n=53 v=0
24036 On ch=2 n=29 v=0
24039 On ch=3 n=72 v=0
24043 On ch=4 n=72 v=0
24045 On ch=4 n=84 v=0
24047 On ch=2 n=29 v=125
24047 On ch=10 n=35 v=122
24047 On ch=10 n=41 v=123
24047 On ch=10 n=81 v=113
24048 On ch=1 n=41 v=117
24048 On ch=1 n=53 v=120
24048 On ch=1 n=65 v=114
24048 On ch=1 n=68 v=122
24048 On ch=1 n=71 v=117
24048 On ch=3 n=53 v=119
24048 On ch=3 n=65 v=104
24048 On ch=3 n=68 v=117
24048 On ch=3 n=71 v=114
24048 On ch=4 n=71 v=113
24048 On ch=4 n=83 v=113
24048 On ch=13 n=71 v=124
24048 On ch=11 n=36 v=120
24048 On ch=11 n=48 v=121
24054 On ch=1 n=71 v=0
24055 On ch=11 n=48 v=0
24055 On ch=11 n=36 v=0
24056 On ch=3 n=71 v=0
24057 On ch=4 n=71 v=0
24057 On ch=3 n=65 v=0
24057 On ch=10 n=81 v=0
24057 On ch=13 n=71 v=0
24057 On ch=1 n=65 v=0
24057 On ch=1 n=41 v=0
24057 On ch=4 n=83 v=0
24059 On ch=3 n=53 v=0
24059 On ch=1 n=53 v=0
24059 On ch=10 n=41 v=0
24059 On ch=10 n=35 v=0
24060 On ch=1 n=68 v=0
24060 On ch=3 n=68 v=0
24060 On ch=2 n=29 v=0
24071 On ch=2 n=29 v=122
24071 On ch=10 n=35 v=122
24071 On ch=10 n=41 v=121
24071 On ch=10 n=81 v=107
24072 On ch=1 n=41 v=114
24072 On ch=1 n=53 v=122
24072 On ch=1 n=65 v=93
24072 On ch=1 n=68 v=110
24072 On ch=1 n=71 v=115
24072 On ch=3 n=53 v=118
24072 On ch=3 n=65 v=113
24072 On ch=3 n=68 v=114
24072 On ch=3 n=71 v=116
24072 On ch=4 n=71 v=113
24072 On ch=4 n=83 v=113
24072 On ch=13 n=71 v=124
24081 On ch=10 n=81 v=0
24082 On ch=4 n=83 v=0
24083 On ch=13 n=71 v=0
24083 On ch=3 n=65 v=0
24083 On ch=1 n=41 v=0
24083 On ch=10 n=41 v=0
24083 On ch=4 n=71 v=0
24083 On ch=1 n=65 v=0
24084 On ch=3 n=53 v=0
24085 On ch=1 n=53 v=0
24085 On ch=10 n=35 v=0
24086 On ch=1 n=68 v=0
24087 On ch=1 n=71 v=0
24087 On ch=2 n=29 v=0
24087 On ch=3 n=68 v=0
24089 On ch=3 n=71 v=0
24095 On ch=2 n=29 v=125
24095 On ch=10 n=35 v=124
24095 On ch=10 n=43 v=123
24096 On ch=1 n=41 v=119
24096 On ch=1 n=53 v=123
24096 On ch=1 n=65 v=123
24096 On ch=1 n=69 v=123
24096 On ch=1 n=72 v=123
24096 On ch=3 n=53 v=119
24096 On ch=3 n=65 v=117
24096 On ch=3 n=69 v=121
24096 On ch=3 n=72 v=119
24096 On ch=4 n=72 v=113
24096 On ch=4 n=84 v=113
24096 On ch=13 n=72 v=123
24096 On ch=11 n=36 v=121
24096 On ch=11 n=48 v=122
24096 On ch=10 n=81 v=109
24105 On ch=11 n=48 v=0
24105 On ch=11 n=36 v=0
24108 On ch=10 n=81 v=0
24114 On ch=1 n=69 v=0
24115 On ch=1 n=72 v=0
24115 On ch=1 n=41 v=0
24116 On ch=13 n=72 v=0
24120 On ch=1 n=53 v=0
24122 On ch=1 n=65 v=0
24125 On ch=10 n=43 v=0
24126 On ch=4 n=84 v=0
24128 On ch=4 n=72 v=0
24129 On ch=3 n=53 v=0
24129 On ch=10 n=35 v=0
24131 On ch=3 n=69 v=0
24131 On ch=3 n=65 v=0
24133 On ch=3 n=72 v=0
24140 On ch=2 n=29 v=0
24143 On ch=2 n=34 v=125
24143 On ch=10 n=35 v=124
24143 On ch=10 n=49 v=123
24144 On ch=1 n=46 v=121
24144 On ch=1 n=58 v=122
24144 On ch=1 n=65 v=123
24144 On ch=1 n=70 v=123
24144 On ch=1 n=74 v=121
24144 On ch=3 n=58 v=118
24144 On ch=3 n=65 v=111
24144 On ch=3 n=70 v=118
24144 On ch=3 n=74 v=117
24144 On ch=4 n=74 v=113
24144 On ch=4 n=86 v=113
24144 On ch=13 n=74 v=122
24144 On ch=11 n=36 v=122
24144 On ch=11 n=48 v=122
24144 On ch=10 n=81 v=114
24151 On ch=11 n=36 v=0
24153 On ch=11 n=48 v=0
24156 On ch=10 n=81 v=0
24160 On ch=13 n=74 v=0
24171 On ch=1 n=65 v=0
24173 On ch=1 n=74 v=0
24174 On ch=4 n=74 v=0
24175 On ch=1 n=70 v=0
24176 On ch=4 n=86 v=0
24177 On ch=1 n=46 v=0
24177 On ch=3 n=65 v=0
24179 On ch=2 n=34 v=0
24179 On ch=3 n=70 v=0
24180 On ch=1 n=58 v=0
24180 On ch=3 n=74 v=0
24182 On ch=3 n=58 v=0
24191 On ch=10 n=35 v=0
24191 On ch=2 n=34 v=125
24191 On ch=10 n=35 v=121
24191 On ch=10 n=43 v=121
24192 On ch=1 n=46 v=119
24192 On ch=1 n=58 v=123
24192 On ch=1 n=65 v=123
24192 On ch=1 n=70 v=122
24192 On ch=1 n=74 v=122
24192 On ch=3 n=58 v=119
24192 On ch=3 n=65 v=112
24192 On ch=3 n=70 v=117
24192 On ch=3 n=74 v=119
24192 On ch=4 n=74 v=113
24192 On ch=4 n=86 v=113
24192 On ch=13 n=74 v=123
24194 On ch=10 n=81 v=108
24201 On ch=10 n=81 v=0
24203 On ch=13 n=74 v=0
24204 On ch=3 n=65 v=0
24207 On ch=3 n=58 v=0
24207 On ch=2 n=34 v=0
24207 On ch=4 n=86 v=0
24209 On ch=3 n=74 v=0
24210 On ch=3 n=70 v=0
24214 On ch=4 n=74 v=0
24215 On ch=10 n=43 v=0
24215 On ch=10 n=35 v=0
24215 On ch=2 n=34 v=119
24215 On ch=10 n=35 v=124
24215 On ch=10 n=43 v=124
24215 On ch=10 n=81 v=106
24216 On ch=1 n=76 v=117
24216 On ch=3 n=58 v=117
24216 On ch=3 n=65 v=107
24216 On ch=3 n=76 v=104
24216 On ch=4 n=76 v=113
24216 On ch=4 n=88 v=113
24216 On ch=13 n=76 v=122
24220 On ch=10 n=49 v=0
24222 On ch=1 n=74 v=0
24223 On ch=1 n=70 v=0
24225 On ch=1 n=65 v=0
24225 On ch=10 n=81 v=0
24225 On ch=3 n=65 v=0
24226 On ch=1 n=58 v=0
24227 On ch=1 n=46 v=0
24227 On ch=3 n=76 v=0
24228 On ch=13 n=76 v=0
24231 On ch=1 n=76 v=0
24233 On ch=4 n=76 v=0
24233 On ch=3 n=58 v=0
24234 On ch=4 n=88 v=0
24235 On ch=2 n=34 v=0
24235 On ch=10 n=35 v=0
24239 On ch=10 n=43 v=0
24239 On ch=2 n=33 v=125
24239 On ch=10 n=35 v=124
24239 On ch=10 n=57 v=123
24240 On ch=1 n=45 v=123
24240 On ch=1 n=57 v=122
24240 On ch=1 n=65 v=122
24240 On ch=1 n=69 v=123
24240 On ch=1 n=72 v=123
24240 On ch=3 n=57 v=119
24240 On ch=3 n=65 v=121
24240 On ch=3 n=69 v=120
24240 On ch=3 n=72 v=117
24240 On ch=4 n=72 v=113
24240 On ch=4 n=84 v=113
24240 On ch=13 n=72 v=124
24240 On ch=11 n=36 v=122
24240 On ch=11 n=48 v=122
24240 On ch=10 n=81 v=113
24249 On ch=11 n=48 v=0
24249 On ch=11 n=36 v=0
24252 On ch=10 n=81 v=0
24253 On ch=3 n=65 v=0
24254 On ch=3 n=69 v=0
24255 On ch=1 n=72 v=0
24256 On ch=1 n=69 v=0
24256 On ch=1 n=45 v=0
24256 On ch=3 n=57 v=0
24256 On ch=13 n=72 v=0
24256 On ch=1 n=57 v=0
24257 On ch=1 n=65 v=0
24257 On ch=3 n=72 v=0
24266 On ch=4 n=84 v=0
24267 On ch=4 n=72 v=0
24271 On ch=2 n=33 v=0
24287 On ch=10 n=35 v=0
24287 On ch=2 n=33 v=125
24287 On ch=10 n=35 v=120
24287 On ch=10 n=43 v=120
24288 On ch=1 n=45 v=123
24288 On ch=1 n=57 v=123
24288 On ch=1 n=65 v=123
24288 On ch=1 n=69 v=123
24288 On ch=1 n=72 v=123
24288 On ch=3 n=57 v=119
24288 On ch=3 n=69 v=119
24288 On ch=3 n=72 v=119
24288 On ch=4 n=72 v=113
24288 On ch=4 n=84 v=113
24288 On ch=13 n=72 v=123
24291 On ch=10 n=81 v=114
24297 On ch=13 n=72 v=0
24297 On ch=4 n=84 v=0
24299 On ch=1 n=65 v=0
24299 On ch=4 n=72 v=0
24299 On ch=3 n=57 v=0
24300 On ch=10 n=81 v=0
24301 On ch=10 n=57 v=0
24301 On ch=2 n=33 v=0
24306 On ch=3 n=72 v=0
24307 On ch=3 n=69 v=0
24309 On ch=1 n=72 v=0
24311 On ch=10 n=35 v=0
24311 On ch=10 n=43 v=0
24311 On ch=1 n=69 v=0
24311 On ch=2 n=33 v=123
24311 On ch=10 n=35 v=123
24311 On ch=10 n=43 v=123
24312 On ch=1 n=65 v=122
24312 On ch=3 n=57 v=119
24312 On ch=3 n=65 v=118
24312 On ch=4 n=72 v=113
24312 On ch=4 n=84 v=113
24312 On ch=13 n=72 v=121
24312 On ch=10 n=81 v=111
24318 On ch=1 n=57 v=0
24323 On ch=13 n=72 v=0
24324 On ch=4 n=84 v=0
24324 On ch=1 n=45 v=0
24324 On ch=10 n=81 v=0
24326 On ch=4 n=72 v=0
24327 On ch=3 n=65 v=0
24330 On ch=2 n=33 v=0
24331 On ch=3 n=57 v=0
24331 On ch=10 n=35 v=0
24335 On ch=10 n=43 v=0
24335 On ch=2 n=31 v=125
24335 On ch=10 n=35 v=124
24335 On ch=10 n=49 v=124
24336 On ch=1 n=43 v=123
24336 On ch=1 n=55 v=120
24336 On ch=1 n=67 v=122
24336 On ch=1 n=71 v=123
24336 On ch=3 n=55 v=121
24336 On ch=3 n=65 v=116
24336 On ch=3 n=67 v=118
24336 On ch=3 n=71 v=119
24336 On ch=4 n=71 v=113
24336 On ch=4 n=83 v=113
24336 On ch=13 n=71 v=123
24336 On ch=11 n=36 v=122
24336 On ch=11 n=48 v=122
24337 On ch=10 n=81 v=116
24345 On ch=11 n=48 v=0
24345 On ch=11 n=36 v=0
24347 On ch=10 n=81 v=0
24350 On ch=13 n=71 v=0
24350 On ch=3 n=65 v=0
24351 On ch=3 n=67 v=0
24352 On ch=3 n=71 v=0
24354 On ch=1 n=71 v=0
24355 On ch=1 n=55 v=0
24355 On ch=1 n=65 v=0
24355 On ch=3 n=55 v=0
24355 On ch=1 n=43 v=0
24356 On ch=1 n=67 v=0
24359 On ch=4 n=83 v=0
24361 On ch=4 n=71 v=0
24365 On ch=10 n=35 v=0
24374 On ch=2 n=31 v=0
24383 On ch=2 n=31 v=123
24383 On ch=10 n=35 v=123
24383 On ch=10 n=43 v=123
24384 On ch=1 n=43 v=123
24384 On ch=1 n=55 v=123
24384 On ch=1 n=65 v=123
24384 On ch=1 n=67 v=123
24384 On ch=1 n=71 v=118
24384 On ch=3 n=55 v=117
24384 On ch=3 n=65 v=117
24384 On ch=3 n=67 v=119
24384 On ch=3 n=71 v=121
24384 On ch=4 n=71 v=113
24384 On ch=4 n=83 v=113
24384 On ch=13 n=71 v=123
24384 On ch=11 n=36 v=122
24384 On ch=11 n=48 v=121
24388 On ch=10 n=81 v=115
24389 On ch=10 n=49 v=0
24392 On ch=11 n=48 v=0
24392 On ch=10 n=35 v=0
24393 On ch=13 n=71 v=0
24393 On ch=10 n=43 v=0
24394 On ch=2 n=31 v=0
24394 On ch=1 n=67 v=0
24394 On ch=11 n=36 v=0
24394 On ch=4 n=83 v=0
24394 On ch=4 n=71 v=0
24395 On ch=1 n=43 v=0
24396 On ch=1 n=65 v=0
24396 On ch=3 n=65 v=0
24397 On ch=1 n=71 v=0
24398 On ch=1 n=55 v=0
24398 On ch=3 n=67 v=0
24399 On ch=10 n=81 v=0
24399 On ch=3 n=71 v=0
24400 On ch=3 n=55 v=0
24407 On ch=2 n=31 v=123
24407 On ch=10 n=35 v=124
24407 On ch=10 n=43 v=123
24408 On ch=1 n=43 v=113
24408 On ch=1 n=55 v=123
24408 On ch=1 n=65 v=121
24408 On ch=1 n=67 v=122
24408 On ch=1 n=71 v=115
24408 On ch=3 n=55 v=115
24408 On ch=3 n=65 v=115
24408 On ch=3 n=67 v=115
24408 On ch=3 n=71 v=116
24408 On ch=4 n=71 v=113
24408 On ch=4 n=83 v=113
24408 On ch=13 n=71 v=124
24411 On ch=10 n=81 v=112
24416 On ch=10 n=43 v=0
24418 On ch=1 n=65 v=0
24419 On ch=10 n=35 v=0
24419 On ch=13 n=71 v=0
24420 On ch=1 n=67 v=0
24421 On ch=10 n=81 v=0
24421 On ch=4 n=83 v=0
24424 On ch=3 n=67 v=0
24424 On ch=3 n=65 v=0
24424 On ch=4 n=71 v=0
24425 On ch=1 n=71 v=0
24431 On ch=3 n=71 v=0
24431 On ch=1 n=43 v=0
24431 On ch=2 n=36 v=125
24431 On ch=10 n=35 v=124
24431 On ch=10 n=46 v=123
24432 On ch=1 n=55 v=0
24432 On ch=2 n=31 v=0
24432 On ch=1 n=48 v=122
24432 On ch=1 n=60 v=122
24432 On ch=1 n=67 v=123
24432 On ch=1 n=72 v=122
24432 On ch=3 n=48 v=119
24432 On ch=3 n=60 v=121
24432 On ch=3 n=64 v=119
24432 On ch=3 n=67 v=121
24432 On ch=3 n=72 v=119
24432 On ch=4 n=72 v=113
24432 On ch=4 n=84 v=113
24432 On ch=13 n=72 v=123
24432 On ch=11 n=36 v=122
24432 On ch=11 n=48 v=122
24433 On ch=10 n=81 v=117
24436 On ch=3 n=55 v=0
24441 On ch=11 n=48 v=0
24444 On ch=11 n=36 v=0
24445 On ch=13 n=72 v=0
24445 On ch=10 n=81 v=0
24445 On ch=1 n=60 v=0
24450 On ch=4 n=84 v=0
24452 On ch=1 n=67 v=0
24455 On ch=3 n=48 v=0
24456 On ch=3 n=60 v=0
24456 On ch=4 n=72 v=0
24457 On ch=1 n=72 v=0
24457 On ch=3 n=64 v=0
24458 On ch=3 n=67 v=0
24461 On ch=3 n=72 v=0
24467 On ch=2 n=36 v=0
24468 On ch=1 n=48 v=0
24479 On ch=10 n=46 v=0
24480 On ch=1 n=72 v=123
24490 On ch=1 n=72 v=0
24504 On ch=1 n=72 v=121
24508 On ch=10 n=35 v=0
24524 On ch=1 n=72 v=0
24528 On ch=1 n=70 v=122
24528 On ch=1 n=74 v=119
24546 On ch=1 n=74 v=0
24552 On ch=1 n=77 v=117
24575 On ch=1 n=77 v=0
24576 On ch=1 n=70 v=0
24576 On ch=1 n=69 v=123
24576 On ch=1 n=72 v=121
24600 On ch=1 n=72 v=0
24600 On ch=1 n=77 v=121
24616 On ch=1 n=69 v=0
24624 On ch=1 n=68 v=118
24624 On ch=1 n=71 v=118
24625 On ch=1 n=77 v=0
24646 On ch=1 n=71 v=0
24648 On ch=1 n=77 v=118
24672 On ch=1 n=68 v=0
24672 On ch=1 n=67 v=122
24672 On ch=1 n=70 v=123
24674 On ch=1 n=77 v=0
24694 On ch=1 n=67 v=0
24696 On ch=1 n=77 v=120
24699 On ch=1 n=70 v=0
24705 On ch=1 n=77 v=0
24719 On ch=2 n=37 v=118
24720 On ch=1 n=61 v=123
24720 On ch=1 n=65 v=120
24720 On ch=1 n=68 v=122
24720 On ch=1 n=73 v=120
24720 On ch=3 n=49 v=113
24720 On ch=3 n=56 v=113
24720 On ch=3 n=61 v=113
24723 On ch=3 n=49 v=0
24726 On ch=3 n=61 v=0
24726 On ch=3 n=56 v=0
24727 On ch=1 n=65 v=0
24729 On ch=1 n=68 v=0
24731 On ch=1 n=73 v=0
24734 On ch=2 n=37 v=0
24737 On ch=1 n=61 v=0
24743 On ch=2 n=37 v=106
24744 On ch=1 n=61 v=123
24744 On ch=1 n=65 v=120
24744 On ch=1 n=68 v=122
24744 On ch=1 n=73 v=120
24744 On ch=3 n=49 v=113
24744 On ch=3 n=56 v=115
24751 On ch=3 n=56 v=0
24751 On ch=1 n=65 v=0
24752 On ch=3 n=49 v=0
24753 On ch=1 n=68 v=0
24755 On ch=1 n=73 v=0
24761 On ch=1 n=61 v=0
24764 On ch=2 n=37 v=0
24767 On ch=2 n=36 v=121
24768 On ch=1 n=60 v=123
24768 On ch=1 n=64 v=119
24768 On ch=1 n=67 v=119
24768 On ch=1 n=72 v=112
24768 On ch=3 n=36 v=114
24768 On ch=3 n=43 v=116
24768 On ch=3 n=48 v=118
24774 On ch=3 n=36 v=0
24775 On ch=3 n=48 v=0
24775 On ch=3 n=43 v=0
24776 On ch=1 n=64 v=0
24777 On ch=1 n=67 v=0
24777 On ch=1 n=72 v=0
24778 On ch=1 n=60 v=0
24785 On ch=2 n=36 v=0
24815 On ch=2 n=35 v=116
24816 On ch=1 n=59 v=117
24816 On ch=1 n=63 v=117
24816 On ch=1 n=66 v=117
24816 On ch=1 n=71 v=112
24816 On ch=3 n=35 v=103
24816 On ch=3 n=42 v=113
24816 On ch=3 n=47 v=112
24820 On ch=3 n=35 v=0
24821 On ch=3 n=47 v=0
24822 On ch=3 n=42 v=0
24823 On ch=1 n=63 v=0
24825 On ch=1 n=59 v=0
24826 On ch=1 n=71 v=0
24827 On ch=2 n=35 v=0
24828 On ch=1 n=66 v=0
24839 On ch=2 n=35 v=111
24840 On ch=1 n=59 v=117
24840 On ch=1 n=63 v=95
24840 On ch=1 n=66 v=109
24840 On ch=1 n=71 v=102
24840 On ch=3 n=35 v=108
24840 On ch=3 n=42 v=112
24840 On ch=3 n=47 v=100
24845 On ch=3 n=47 v=0
24845 On ch=3 n=35 v=0
24846 On ch=3 n=42 v=0
24852 On ch=1 n=63 v=0
24853 On ch=1 n=66 v=0
24853 On ch=1 n=71 v=0
24860 On ch=2 n=35 v=0
24863 On ch=2 n=36 v=118
24864 On ch=1 n=59 v=0
24864 On ch=1 n=60 v=122
24864 On ch=1 n=64 v=118
24864 On ch=1 n=67 v=113
24864 On ch=1 n=72 v=116
24864 On ch=3 n=36 v=118
24864 On ch=3 n=43 v=112
24864 On ch=3 n=48 v=113
24873 On ch=3 n=43 v=0
24874 On ch=3 n=48 v=0
24874 On ch=1 n=64 v=0
24874 On ch=3 n=36 v=0
24875 On ch=1 n=67 v=0
24876 On ch=1 n=72 v=0
24879 On ch=1 n=60 v=0
24887 On ch=2 n=36 v=0
24911 On ch=2 n=37 v=118
24912 On ch=1 n=61 v=119
24912 On ch=1 n=65 v=115
24912 On ch=1 n=68 v=120
24912 On ch=1 n=73 v=118
24912 On ch=3 n=37 v=115
24912 On ch=3 n=44 v=117
24912 On ch=3 n=49 v=112
24918 On ch=3 n=44 v=0
24920 On ch=3 n=49 v=0
24920 On ch=2 n=37 v=0
24920 On ch=3 n=37 v=0
24921 On ch=1 n=65 v=0
24922 On ch=1 n=68 v=0
24924 On ch=1 n=61 v=0
24925 On ch=1 n=73 v=0
24935 On ch=2 n=37 v=118
24936 On ch=1 n=61 v=117
24936 On ch=1 n=65 v=107
24936 On ch=1 n=68 v=120
24936 On ch=1 n=73 v=120
24936 On ch=3 n=37 v=115
24936 On ch=3 n=44 v=112
24936 On ch=3 n=49 v=104
24941 On ch=1 n=65 v=0
24944 On ch=3 n=49 v=0
24944 On ch=3 n=37 v=0
24944 On ch=3 n=44 v=0
24945 On ch=1 n=73 v=0
24946 On ch=1 n=68 v=0
24950 On ch=2 n=37 v=0
24953 On ch=1 n=61 v=0
24959 On ch=2 n=36 v=117
24960 On ch=1 n=60 v=118
24960 On ch=1 n=64 v=121
24960 On ch=1 n=67 v=117
24960 On ch=1 n=72 v=117
24960 On ch=3 n=36 v=111
24960 On ch=3 n=43 v=112
24960 On ch=3 n=48 v=111
24967 On ch=3 n=43 v=0
24967 On ch=1 n=67 v=0
24968 On ch=3 n=48 v=0
24968 On ch=1 n=64 v=0
24969 On ch=1 n=72 v=0
24969 On ch=3 n=36 v=0
24969 On ch=1 n=60 v=0
24974 On ch=2 n=36 v=0
24983 On ch=2 n=36 v=114
24984 On ch=1 n=60 v=112
24984 On ch=1 n=67 v=108
24984 On ch=1 n=72 v=105
24984 On ch=3 n=36 v=104
24984 On ch=3 n=48 v=100
24993 On ch=3 n=48 v=0
24993 On ch=1 n=72 v=0
24994 On ch=1 n=67 v=0
24995 On ch=3 n=36 v=0
25004 On ch=1 n=60 v=0
25007 On ch=2 n=36 v=0
25007 On ch=2 n=35 v=120
25008 On ch=1 n=59 v=120
25008 On ch=1 n=63 v=123
25008 On ch=1 n=66 v=113
25008 On ch=1 n=71 v=119
25008 On ch=3 n=35 v=115
25008 On ch=3 n=42 v=114
25008 On ch=3 n=47 v=115
25016 On ch=3 n=42 v=0
25018 On ch=1 n=66 v=0
25019 On ch=3 n=47 v=0
25028 On ch=3 n=35 v=0
25030 On ch=1 n=63 v=0
25033 On ch=1 n=71 v=0
25049 On ch=2 n=35 v=0
25050 On ch=1 n=59 v=0
25055 On ch=2 n=36 v=125
25055 On ch=10 n=35 v=124
25055 On ch=10 n=49 v=123
25056 On ch=1 n=48 v=123
25056 On ch=1 n=60 v=123
25056 On ch=1 n=64 v=123
25056 On ch=1 n=67 v=123
25056 On ch=1 n=72 v=123
25056 On ch=3 n=48 v=116
25056 On ch=3 n=60 v=116
25056 On ch=3 n=64 v=116
25056 On ch=3 n=67 v=116
25056 On ch=3 n=72 v=116
25056 On ch=13 n=60 v=122
25056 On ch=13 n=72 v=124
25056 On ch=11 n=36 v=122
25056 On ch=11 n=48 v=121
25057 On ch=10 n=81 v=111
25065 On ch=11 n=48 v=0
25065 On ch=11 n=36 v=0
25066 On ch=1 n=67 v=0
25066 On ch=1 n=64 v=0
25067 On ch=10 n=81 v=0
25068 On ch=1 n=60 v=0
25069 On ch=3 n=60 v=0
25069 On ch=10 n=35 v=0
25070 On ch=3 n=48 v=0
25071 On ch=1 n=72 v=0
25072 On ch=3 n=64 v=0
25073 On ch=3 n=67 v=0
25075 On ch=2 n=36 v=0
25075 On ch=10 n=49 v=0
25080 On ch=1 n=48 v=0
25080 On ch=3 n=72 v=0
25089 On ch=13 n=72 v=0
25089 On ch=13 n=60 v=0
25103 On ch=2 n=29 v=125
25103 On ch=10 n=35 v=124
25103 On ch=10 n=52 v=123
25104 On ch=1 n=41 v=123
25104 On ch=1 n=53 v=123
25104 On ch=1 n=65 v=123
25104 On ch=1 n=69 v=123
25104 On ch=1 n=72 v=123
25104 On ch=1 n=77 v=123
25104 On ch=3 n=41 v=116
25104 On ch=3 n=60 v=116
25104 On ch=3 n=65 v=116
25104 On ch=3 n=69 v=116
25104 On ch=3 n=72 v=116
25104 On ch=3 n=77 v=116
25104 On ch=11 n=36 v=123
25104 On ch=11 n=48 v=121
25105 On ch=13 n=65 v=124
25105 On ch=13 n=77 v=122
25106 On ch=10 n=81 v=117
25113 On ch=11 n=48 v=0
25113 On ch=11 n=36 v=0
25115 On ch=1 n=69 v=0
25116 On ch=3 n=60 v=0
25116 On ch=1 n=53 v=0
25117 On ch=10 n=81 v=0
25118 On ch=1 n=72 v=0
25118 On ch=1 n=77 v=0
25119 On ch=3 n=41 v=0
25119 On ch=3 n=65 v=0
25119 On ch=1 n=65 v=0
25120 On ch=3 n=72 v=0
25120 On ch=3 n=69 v=0
25121 On ch=1 n=41 v=0
25124 On ch=2 n=29 v=0
25125 On ch=10 n=35 v=0
25126 On ch=10 n=52 v=0
25128 On ch=3 n=77 v=0
25136 On ch=13 n=77 v=0
25140 On ch=13 n=65 v=0
25151 On ch=2 n=36 v=125
25151 On ch=10 n=35 v=124
25151 On ch=10 n=49 v=122
25152 On ch=1 n=36 v=123
25152 On ch=1 n=48 v=123
25152 On ch=1 n=64 v=123
25152 On ch=1 n=67 v=123
25152 On ch=1 n=72 v=123
25152 On ch=3 n=48 v=117
25152 On ch=3 n=60 v=119
25152 On ch=3 n=64 v=118
25152 On ch=3 n=67 v=120
25152 On ch=11 n=36 v=122
25152 On ch=11 n=48 v=121
25154 On ch=13 n=60 v=120
25156 On ch=13 n=72 v=121
25156 On ch=10 n=81 v=117
25159 On ch=1 n=64 v=0
25161 On ch=11 n=48 v=0
25161 On ch=1 n=67 v=0
25161 On ch=11 n=36 v=0
25162 On ch=3 n=60 v=0
25163 On ch=1 n=48 v=0
25165 On ch=10 n=35 v=0
25166 On ch=10 n=81 v=0
25166 On ch=1 n=72 v=0
25166 On ch=3 n=64 v=0
25168 On ch=3 n=67 v=0
25169 On ch=1 n=36 v=0
25170 On ch=3 n=48 v=0
25174 On ch=10 n=49 v=0
25176 On ch=2 n=36 v=0
25182 On ch=13 n=72 v=0
25184 On ch=13 n=60 v=0
25199 On ch=2 n=29 v=125
25199 On ch=2 n=41 v=125
25199 On ch=10 n=35 v=124
25199 On ch=10 n=57 v=123
25200 On ch=1 n=29 v=123
25200 On ch=1 n=41 v=123
25200 On ch=1 n=65 v=123
25200 On ch=1 n=69 v=123
25200 On ch=1 n=72 v=123
25200 On ch=1 n=77 v=123
25200 On ch=3 n=41 v=114
25200 On ch=3 n=65 v=119
25200 On ch=3 n=69 v=121
25200 On ch=3 n=72 v=119
25200 On ch=3 n=77 v=122
25200 On ch=11 n=36 v=122
25200 On ch=11 n=48 v=122
25204 On ch=13 n=65 v=124
25204 On ch=13 n=77 v=123
25204 On ch=10 n=81 v=119
25210 On ch=11 n=48 v=0
25210 On ch=11 n=36 v=0
25216 On ch=10 n=81 v=0
25245 On ch=3 n=65 v=0
25247 On ch=10 n=35 v=0
25248 On ch=3 n=77 v=0
25249 On ch=3 n=41 v=0
25249 On ch=3 n=69 v=0
25249 On ch=3 n=72 v=0
25252 On ch=1 n=77 v=0
25253 On ch=1 n=72 v=0
25255 On ch=1 n=69 v=0
25256 On ch=1 n=65 v=0
25258 On ch=10 n=57 v=0
25263 On ch=2 n=41 v=0
25268 On ch=2 n=29 v=0
25268 On ch=1 n=29 v=0
25269 On ch=13 n=65 v=0
25271 On ch=1 n=41 v=0
25272 On ch=13 n=77 v=0
25272 On ch=1 n=60 v=117
25272 On ch=1 n=64 v=117
25272 On ch=1 n=67 v=117
25272 On ch=7 n=60 v=121
25272 On ch=7 n=64 v=119
25272 On ch=7 n=67 v=121
25272 On ch=11 n=36 v=114
25272 On ch=11 n=48 v=111
25273 On ch=10 n=81 v=104
25279 On ch=11 n=48 v=0
25279 On ch=1 n=64 v=0
25279 On ch=1 n=60 v=0
25281 On ch=1 n=67 v=0
25281 On ch=11 n=36 v=0
25282 On ch=7 n=60 v=0
25282 On ch=7 n=67 v=0
25283 On ch=10 n=81 v=0
25283 On ch=7 n=64 v=0
25295 On ch=10 n=81 v=108
25296 On ch=1 n=60 v=118
25296 On ch=1 n=64 v=118
25296 On ch=1 n=67 v=118
25296 On ch=7 n=60 v=120
25296 On ch=7 n=64 v=119
25296 On ch=7 n=67 v=120
25296 On ch=11 n=36 v=116
25296 On ch=11 n=48 v=112
25301 On ch=1 n=60 v=0
25303 On ch=11 n=48 v=0
25303 On ch=11 n=36 v=0
25305 On ch=7 n=60 v=0
25305 On ch=10 n=81 v=0
25305 On ch=7 n=64 v=0
25307 On ch=7 n=67 v=0
25316 On ch=1 n=67 v=0
25320 On ch=1 n=64 v=0
25320 On ch=1 n=60 v=116
25320 On ch=1 n=65 v=116
25320 On ch=1 n=69 v=116
25320 On ch=7 n=60 v=119
25320 On ch=7 n=65 v=118
25320 On ch=7 n=69 v=119
25320 On ch=11 n=36 v=122
25320 On ch=11 n=48 v=118
25320 On ch=10 n=81 v=113
25327 On ch=11 n=48 v=0
25327 On ch=7 n=65 v=0
25328 On ch=7 n=60 v=0
25328 On ch=7 n=69 v=0
25329 On ch=10 n=81 v=0
25329 On ch=1 n=60 v=0
25329 On ch=11 n=36 v=0
25343 On ch=10 n=81 v=116
25344 On ch=1 n=65 v=0
25344 On ch=1 n=60 v=117
25344 On ch=1 n=67 v=117
25344 On ch=1 n=70 v=117
25344 On ch=7 n=60 v=117
25344 On ch=7 n=67 v=119
25344 On ch=7 n=70 v=120
25344 On ch=11 n=36 v=120
25344 On ch=11 n=48 v=117
25349 On ch=1 n=69 v=0
25351 On ch=1 n=70 v=0
25351 On ch=7 n=67 v=0
25352 On ch=7 n=60 v=0
25353 On ch=10 n=81 v=0
25353 On ch=11 n=36 v=0
25353 On ch=11 n=48 v=0
25356 On ch=7 n=70 v=0
25365 On ch=1 n=60 v=0
25366 On ch=10 n=81 v=118
25368 On ch=1 n=67 v=0
25368 On ch=1 n=65 v=118
25368 On ch=1 n=69 v=118
25368 On ch=7 n=60 v=119
25368 On ch=7 n=65 v=120
25368 On ch=7 n=69 v=119
25368 On ch=11 n=36 v=122
25368 On ch=11 n=48 v=119
25377 On ch=11 n=48 v=0
25377 On ch=11 n=36 v=0
25377 On ch=7 n=65 v=0
25377 On ch=10 n=81 v=0
25377 On ch=7 n=69 v=0
25378 On ch=7 n=60 v=0
25392 On ch=1 n=65 v=0
25392 On ch=1 n=64 v=123
25392 On ch=1 n=67 v=123
25392 On ch=7 n=60 v=121
25392 On ch=7 n=64 v=121
25392 On ch=7 n=67 v=122
25392 On ch=11 n=36 v=120
25392 On ch=11 n=48 v=121
25392 On ch=10 n=81 v=120
25396 On ch=1 n=67 v=0
25400 On ch=1 n=69 v=0
25401 On ch=11 n=48 v=0
25402 On ch=11 n=36 v=0
25404 On ch=10 n=81 v=0
25405 On ch=7 n=67 v=0
25405 On ch=7 n=64 v=0
25406 On ch=7 n=60 v=0
25415 On ch=2 n=29 v=125
25415 On ch=2 n=41 v=125
25415 On ch=10 n=35 v=122
25415 On ch=10 n=49 v=123
25416 On ch=1 n=64 v=0
25416 On ch=1 n=41 v=123
25416 On ch=1 n=53 v=123
25416 On ch=1 n=65 v=123
25416 On ch=1 n=69 v=123
25416 On ch=1 n=72 v=123
25416 On ch=1 n=77 v=123
25416 On ch=3 n=29 v=118
25416 On ch=3 n=41 v=123
25416 On ch=3 n=65 v=119
25416 On ch=3 n=72 v=119
25416 On ch=3 n=77 v=118
25419 On ch=13 n=65 v=123
25419 On ch=13 n=77 v=120
25424 On ch=1 n=65 v=0
25424 On ch=10 n=49 v=0
25425 On ch=10 n=35 v=0
25426 On ch=1 n=69 v=0
25427 On ch=3 n=41 v=0
25428 On ch=2 n=29 v=0
25428 On ch=1 n=72 v=0
25428 On ch=1 n=77 v=0
25428 On ch=2 n=41 v=0
25429 On ch=3 n=65 v=0
25430 On ch=3 n=29 v=0
25431 On ch=1 n=53 v=0
25432 On ch=1 n=41 v=0
25432 On ch=3 n=72 v=0
25432 On ch=13 n=77 v=0
25432 On ch=3 n=77 v=0
25433 On ch=13 n=65 v=0
25439 On ch=2 n=29 v=124
25439 On ch=2 n=41 v=125
25439 On ch=10 n=35 v=124
25439 On ch=10 n=57 v=122
25440 On ch=1 n=41 v=120
25440 On ch=1 n=53 v=123
25440 On ch=1 n=65 v=123
25440 On ch=1 n=69 v=123
25440 On ch=1 n=72 v=123
25440 On ch=1 n=77 v=123
25440 On ch=3 n=29 v=116
25440 On ch=3 n=41 v=116
25440 On ch=3 n=65 v=119
25440 On ch=3 n=72 v=119
25440 On ch=3 n=77 v=117
25443 On ch=13 n=77 v=120
25444 On ch=13 n=65 v=121
25449 On ch=1 n=65 v=0
25450 On ch=1 n=69 v=0
25450 On ch=10 n=35 v=0
25450 On ch=10 n=57 v=0
25451 On ch=1 n=77 v=0
25451 On ch=2 n=41 v=0
25452 On ch=2 n=29 v=0
25452 On ch=1 n=72 v=0
25454 On ch=1 n=41 v=0
25454 On ch=3 n=65 v=0
25455 On ch=1 n=53 v=0
25455 On ch=3 n=77 v=0
25456 On ch=3 n=41 v=0
25456 On ch=3 n=29 v=0
25457 On ch=13 n=77 v=0
25457 On ch=13 n=65 v=0
25457 On ch=3 n=72 v=0
25463 On ch=2 n=29 v=125
25463 On ch=2 n=41 v=125
25463 On ch=10 n=35 v=124
25463 On ch=10 n=49 v=123
25464 On ch=1 n=41 v=123
25464 On ch=1 n=53 v=123
25464 On ch=1 n=65 v=123
25464 On ch=1 n=69 v=123
25464 On ch=1 n=72 v=123
25464 On ch=1 n=77 v=123
25464 On ch=3 n=29 v=113
25464 On ch=3 n=41 v=122
25464 On ch=3 n=65 v=123
25464 On ch=3 n=72 v=116
25464 On ch=3 n=77 v=119
25468 On ch=13 n=77 v=123
25471 On ch=13 n=65 v=123
25499 On ch=1 n=77 v=0
25500 On ch=1 n=72 v=0
25503 On ch=1 n=65 v=0
25503 On ch=1 n=69 v=0
25503 On ch=1 n=53 v=0
25510 On ch=1 n=41 v=0
25512 On ch=10 n=49 v=0
25512 On ch=10 n=35 v=0
25516 On ch=3 n=77 v=0
25518 On ch=3 n=65 v=0
25518 On ch=3 n=72 v=0
25521 On ch=2 n=41 v=0
25523 On ch=13 n=65 v=0
25523 On ch=13 n=77 v=0
25532 On ch=3 n=41 v=0
25532 On ch=3 n=29 v=0
25535 On ch=2 n=36 v=125
25535 On ch=10 n=35 v=124
25535 On ch=10 n=43 v=124
25536 On ch=1 n=36 v=123
25536 On ch=1 n=48 v=123
25536 On ch=1 n=60 v=123
25536 On ch=1 n=64 v=123
25536 On ch=1 n=67 v=123
25536 On ch=1 n=72 v=123
25536 On ch=3 n=36 v=120
25536 On ch=3 n=60 v=119
25536 On ch=3 n=72 v=120
25536 On ch=13 n=60 v=121
25536 On ch=11 n=36 v=123
25536 On ch=11 n=48 v=121
25537 On ch=2 n=29 v=0
25538 On ch=10 n=81 v=122
25539 On ch=13 n=72 v=123
25545 On ch=11 n=48 v=0
25545 On ch=11 n=36 v=0
25545 On ch=3 n=60 v=0
25546 On ch=1 n=60 v=0
25548 On ch=1 n=64 v=0
25550 On ch=1 n=67 v=0
25551 On ch=10 n=81 v=0
25552 On ch=1 n=48 v=0
25554 On ch=1 n=72 v=0
25555 On ch=3 n=72 v=0
25556 On ch=1 n=36 v=0
25556 On ch=10 n=35 v=0
25558 On ch=10 n=43 v=0
25559 On ch=2 n=36 v=0
25561 On ch=3 n=36 v=0
25566 On ch=13 n=72 v=0
25570 On ch=13 n=60 v=0
25583 On ch=2 n=29 v=125
25583 On ch=2 n=41 v=125
25583 On ch=10 n=35 v=124
25583 On ch=10 n=43 v=124
25584 On ch=1 n=29 v=123
25584 On ch=1 n=41 v=123
25584 On ch=1 n=65 v=123
25584 On ch=1 n=69 v=123
25584 On ch=1 n=72 v=123
25584 On ch=1 n=77 v=123
25584 On ch=3 n=29 v=119
25584 On ch=3 n=41 v=120
25584 On ch=3 n=65 v=120
25584 On ch=3 n=69 v=120
25584 On ch=3 n=72 v=118
25584 On ch=3 n=77 v=122
25584 On ch=11 n=36 v=122
25584 On ch=11 n=48 v=122
25587 On ch=10 n=81 v=118
25589 On ch=13 n=65 v=124
25589 On ch=13 n=77 v=123
25592 On ch=1 n=41 v=0
25593 On ch=11 n=48 v=0
25593 On ch=11 n=36 v=0
25596 On ch=1 n=29 v=0
25597 On ch=1 n=65 v=0
25598 On ch=1 n=77 v=0
25598 On ch=1 n=72 v=0
25599 On ch=10 n=81 v=0
25599 On ch=3 n=65 v=0
25600 On ch=1 n=69 v=0
25601 On ch=10 n=35 v=0
25601 On ch=3 n=77 v=0
25602 On ch=3 n=72 v=0
25602 On ch=3 n=69 v=0
25604 On ch=10 n=43 v=0
25605 On ch=3 n=29 v=0
25605 On ch=3 n=41 v=0
25607 On ch=2 n=29 v=0
25613 On ch=2 n=41 v=0
25614 On ch=13 n=77 v=0
25618 On ch=13 n=65 v=0
25631 On ch=2 n=36 v=125
25631 On ch=10 n=35 v=124
25631 On ch=10 n=43 v=124
25632 On ch=1 n=36 v=123
25632 On ch=1 n=48 v=123
25632 On ch=1 n=60 v=123
25632 On ch=1 n=64 v=123
25632 On ch=1 n=67 v=123
25632 On ch=1 n=72 v=123
25632 On ch=3 n=36 v=118
25632 On ch=3 n=60 v=121
25632 On ch=3 n=64 v=119
25632 On ch=3 n=67 v=122
25632 On ch=3 n=72 v=121
25632 On ch=11 n=36 v=122
25632 On ch=11 n=48 v=121
25634 On ch=13 n=60 v=122
25634 On ch=13 n=72 v=124
25634 On ch=10 n=81 v=116
25639 On ch=1 n=64 v=0
25639 On ch=1 n=60 v=0
25641 On ch=1 n=67 v=0
25641 On ch=11 n=36 v=0
25642 On ch=11 n=48 v=0
25643 On ch=3 n=60 v=0
25643 On ch=1 n=48 v=0
25645 On ch=1 n=36 v=0
25645 On ch=3 n=64 v=0
25646 On ch=3 n=67 v=0
25647 On ch=10 n=81 v=0
25647 On ch=1 n=72 v=0
25649 On ch=3 n=72 v=0
25650 On ch=10 n=43 v=0
25651 On ch=10 n=35 v=0
25653 On ch=2 n=36 v=0
25658 On ch=3 n=36 v=0
25661 On ch=13 n=72 v=0
25665 On ch=13 n=60 v=0
25679 On ch=2 n=29 v=125
25679 On ch=2 n=41 v=125
25679 On ch=10 n=35 v=124
25679 On ch=10 n=49 v=123
25680 On ch=1 n=29 v=123
25680 On ch=1 n=41 v=123
25680 On ch=1 n=65 v=123
25680 On ch=1 n=69 v=123
25680 On ch=1 n=72 v=123
25680 On ch=1 n=77 v=123
25680 On ch=3 n=29 v=117
25680 On ch=3 n=41 v=123
25680 On ch=3 n=65 v=119
25680 On ch=3 n=69 v=121
25680 On ch=3 n=72 v=122
25680 On ch=3 n=77 v=123
25680 On ch=11 n=36 v=121
25680 On ch=11 n=48 v=120
25683 On ch=13 n=65 v=123
25683 On ch=13 n=77 v=123
25683 On ch=10 n=81 v=118
25689 On ch=11 n=48 v=0
25691 On ch=11 n=36 v=0
25695 On ch=10 n=81 v=0
25724 On ch=1 n=77 v=0
25727 On ch=1 n=72 v=0
25730 On ch=1 n=69 v=0
25731 On ch=1 n=65 v=0
25739 On ch=13 n=77 v=0
25740 On ch=1 n=41 v=0
25741 On ch=13 n=65 v=0
25741 On ch=1 n=29 v=0
25743 On ch=3 n=72 v=0
25743 On ch=3 n=65 v=0
25744 On ch=3 n=77 v=0
25744 On ch=3 n=69 v=0
25745 On ch=2 n=41 v=0
25746 On ch=3 n=29 v=0
25746 On ch=2 n=29 v=0
25746 On ch=3 n=41 v=0
25748 On ch=10 n=81 v=100
25752 On ch=1 n=60 v=113
25752 On ch=1 n=64 v=113
25752 On ch=1 n=67 v=113
25752 On ch=7 n=60 v=116
25752 On ch=7 n=64 v=115
25752 On ch=7 n=67 v=117
25752 On ch=11 n=36 v=111
25752 On ch=11 n=48 v=105
25759 On ch=11 n=36 v=0
25759 On ch=10 n=81 v=0
25761 On ch=11 n=48 v=0
25762 On ch=1 n=60 v=0
25763 On ch=1 n=64 v=0
25763 On ch=7 n=60 v=0
25764 On ch=7 n=67 v=0
25764 On ch=7 n=64 v=0
25767 On ch=1 n=67 v=0
25774 On ch=10 n=81 v=107
25776 On ch=1 n=64 v=113
25776 On ch=1 n=67 v=113
25776 On ch=7 n=60 v=115
25776 On ch=7 n=64 v=113
25776 On ch=7 n=67 v=116
25776 On ch=11 n=36 v=113
25776 On ch=11 n=48 v=110
25780 On ch=10 n=49 v=0
25784 On ch=11 n=48 v=0
25784 On ch=10 n=35 v=0
25784 On ch=10 n=81 v=0
25785 On ch=11 n=36 v=0
25787 On ch=7 n=64 v=0
25789 On ch=7 n=60 v=0
25791 On ch=1 n=64 v=0
25794 On ch=7 n=67 v=0
25797 On ch=1 n=67 v=0
25797 On ch=10 n=81 v=114
25800 On ch=1 n=65 v=113
25800 On ch=1 n=69 v=113
25800 On ch=7 n=60 v=119
25800 On ch=7 n=65 v=117
25800 On ch=7 n=69 v=117
25800 On ch=11 n=36 v=122
25800 On ch=11 n=48 v=120
25806 On ch=10 n=81 v=0
25809 On ch=11 n=48 v=0
25810 On ch=7 n=65 v=0
25810 On ch=11 n=36 v=0
25811 On ch=7 n=60 v=0
25815 On ch=7 n=69 v=0
25817 On ch=1 n=65 v=0
25819 On ch=1 n=69 v=0
25821 On ch=10 n=81 v=118
25824 On ch=1 n=60 v=113
25824 On ch=1 n=67 v=113
25824 On ch=1 n=70 v=113
25824 On ch=7 n=60 v=114
25824 On ch=7 n=67 v=119
25824 On ch=7 n=70 v=119
25824 On ch=11 n=36 v=122
25824 On ch=11 n=48 v=120
25830 On ch=1 n=60 v=0
25830 On ch=10 n=81 v=0
25831 On ch=11 n=48 v=0
25833 On ch=11 n=36 v=0
25835 On ch=1 n=70 v=0
25837 On ch=7 n=60 v=0
25838 On ch=1 n=67 v=0
25840 On ch=7 n=67 v=0
25842 On ch=7 n=70 v=0
25845 On ch=10 n=81 v=118
25848 On ch=1 n=65 v=113
25848 On ch=1 n=69 v=113
25848 On ch=7 n=60 v=119
25848 On ch=7 n=65 v=117
25848 On ch=7 n=69 v=119
25848 On ch=11 n=36 v=120
25848 On ch=11 n=48 v=118
25855 On ch=10 n=81 v=0
25857 On ch=11 n=48 v=0
25859 On ch=7 n=65 v=0
25859 On ch=11 n=36 v=0
25860 On ch=7 n=60 v=0
25862 On ch=7 n=69 v=0
25870 On ch=1 n=65 v=0
25870 On ch=10 n=81 v=119
25872 On ch=1 n=64 v=113
25872 On ch=1 n=67 v=113
25872 On ch=7 n=60 v=119
25872 On ch=7 n=64 v=119
25872 On ch=7 n=67 v=119
25872 On ch=11 n=36 v=120
25872 On ch=11 n=48 v=122
25879 On ch=1 n=67 v=0
25879 On ch=1 n=69 v=0
25882 On ch=10 n=81 v=0
25883 On ch=11 n=36 v=0
25883 On ch=11 n=48 v=0
25886 On ch=7 n=60 v=0
25887 On ch=7 n=64 v=0
25890 On ch=7 n=67 v=0
25895 On ch=2 n=29 v=123
25895 On ch=2 n=41 v=125
25895 On ch=10 n=35 v=124
25895 On ch=10 n=43 v=123
25896 On ch=1 n=64 v=0
25896 On ch=1 n=29 v=123
25896 On ch=1 n=41 v=123
25896 On ch=1 n=65 v=123
25896 On ch=1 n=69 v=123
25896 On ch=1 n=72 v=123
25896 On ch=1 n=77 v=123
25896 On ch=3 n=65 v=119
25896 On ch=3 n=72 v=118
25896 On ch=3 n=77 v=111
25897 On ch=13 n=65 v=124
25900 On ch=13 n=77 v=123
25903 On ch=1 n=65 v=0
25904 On ch=1 n=69 v=0
25906 On ch=1 n=72 v=0
25906 On ch=10 n=43 v=0
25906 On ch=10 n=35 v=0
25907 On ch=2 n=29 v=0
25907 On ch=2 n=41 v=0
25909 On ch=13 n=77 v=0
25909 On ch=1 n=41 v=0
25910 On ch=1 n=77 v=0
25911 On ch=13 n=65 v=0
25912 On ch=3 n=77 v=0
25912 On ch=3 n=72 v=0
25912 On ch=3 n=65 v=0
25913 On ch=1 n=29 v=0
25919 On ch=2 n=29 v=124
25919 On ch=2 n=41 v=125
25919 On ch=10 n=35 v=124
25919 On ch=10 n=43 v=124
25920 On ch=1 n=29 v=123
25920 On ch=1 n=41 v=123
25920 On ch=1 n=65 v=123
25920 On ch=1 n=69 v=123
25920 On ch=1 n=72 v=123
25920 On ch=1 n=77 v=123
25920 On ch=3 n=65 v=117
25920 On ch=3 n=72 v=117
25920 On ch=3 n=77 v=117
25924 On ch=13 n=65 v=123
25924 On ch=13 n=77 v=123
25929 On ch=1 n=77 v=0
25929 On ch=1 n=72 v=0
25929 On ch=1 n=69 v=0
25930 On ch=1 n=65 v=0
25931 On ch=2 n=29 v=0
25931 On ch=10 n=35 v=0
25931 On ch=10 n=43 v=0
25931 On ch=2 n=41 v=0
25934 On ch=13 n=77 v=0
25936 On ch=13 n=65 v=0
25937 On ch=3 n=65 v=0
25939 On ch=3 n=77 v=0
25940 On ch=3 n=72 v=0
25940 On ch=1 n=29 v=0
25942 On ch=1 n=41 v=0
25943 On ch=2 n=29 v=125
25943 On ch=2 n=41 v=125
25943 On ch=10 n=35 v=124
25943 On ch=10 n=43 v=124
25944 On ch=1 n=60 v=112
25944 On ch=1 n=64 v=112
25944 On ch=1 n=67 v=112
25944 On ch=3 n=65 v=117
25944 On ch=3 n=72 v=117
25944 On ch=3 n=77 v=117
25944 On ch=7 n=60 v=119
25944 On ch=7 n=64 v=117
25944 On ch=7 n=67 v=118
25947 On ch=13 n=65 v=122
25947 On ch=13 n=77 v=124
25954 On ch=7 n=67 v=0
25954 On ch=1 n=60 v=0
25955 On ch=1 n=64 v=0
25956 On ch=7 n=60 v=0
25956 On ch=3 n=77 v=0
25957 On ch=7 n=64 v=0
25959 On ch=1 n=67 v=0
25968 On ch=3 n=65 v=0
25968 On ch=3 n=72 v=0
25968 On ch=1 n=64 v=112
25968 On ch=1 n=67 v=112
25968 On ch=3 n=77 v=98
25968 On ch=7 n=60 v=116
25968 On ch=7 n=64 v=115
25968 On ch=7 n=67 v=119
25968 On ch=11 n=36 v=119
25968 On ch=11 n=48 v=114
25973 On ch=10 n=43 v=0
25973 On ch=10 n=35 v=0
25975 On ch=10 n=81 v=102
25976 On ch=11 n=36 v=0
25976 On ch=2 n=29 v=0
25978 On ch=7 n=64 v=0
25978 On ch=11 n=48 v=0
25979 On ch=7 n=60 v=0
25979 On ch=2 n=41 v=0
25983 On ch=7 n=67 v=0
25983 On ch=1 n=64 v=0
25987 On ch=10 n=81 v=0
25989 On ch=1 n=67 v=0
25991 On ch=13 n=77 v=0
25991 On ch=13 n=65 v=0
25992 On ch=1 n=65 v=112
25992 On ch=1 n=69 v=112
25992 On ch=7 n=60 v=121
25992 On ch=7 n=65 v=118
25992 On ch=7 n=69 v=120
25992 On ch=11 n=36 v=121
25992 On ch=11 n=48 v=116
25996 On ch=10 n=81 v=106
25999 On ch=11 n=48 v=0
25999 On ch=11 n=36 v=0
26001 On ch=7 n=65 v=0
26003 On ch=7 n=60 v=0
26005 On ch=7 n=69 v=0
26006 On ch=10 n=81 v=0
26009 On ch=1 n=65 v=0
26011 On ch=1 n=69 v=0
26016 On ch=1 n=60 v=112
26016 On ch=1 n=67 v=112
26016 On ch=1 n=70 v=112
26016 On ch=7 n=60 v=121
26016 On ch=7 n=67 v=120
26016 On ch=7 n=70 v=119
26016 On ch=11 n=36 v=122
26016 On ch=11 n=48 v=118
26019 On ch=10 n=81 v=117
26022 On ch=1 n=60 v=0
26024 On ch=11 n=36 v=0
26025 On ch=11 n=48 v=0
26026 On ch=7 n=60 v=0
26027 On ch=1 n=70 v=0
26030 On ch=10 n=81 v=0
26030 On ch=1 n=67 v=0
26031 On ch=7 n=67 v=0
26034 On ch=7 n=70 v=0
26040 On ch=1 n=65 v=112
26040 On ch=1 n=69 v=112
26040 On ch=7 n=60 v=117
26040 On ch=7 n=65 v=120
26040 On ch=7 n=69 v=119
26040 On ch=11 n=36 v=119
26040 On ch=11 n=48 v=120
26043 On ch=10 n=81 v=118
26049 On ch=11 n=48 v=0
26051 On ch=11 n=36 v=0
26051 On ch=7 n=65 v=0
26053 On ch=7 n=60 v=0
26053 On ch=10 n=81 v=0
26055 On ch=7 n=69 v=0
26062 On ch=1 n=65 v=0
26064 On ch=1 n=64 v=112
26064 On ch=1 n=67 v=112
26064 On ch=7 n=60 v=121
26064 On ch=7 n=64 v=120
26064 On ch=7 n=67 v=121
26064 On ch=11 n=36 v=121
26064 On ch=11 n=48 v=122
26067 On ch=10 n=81 v=121
26071 On ch=1 n=67 v=0
26071 On ch=1 n=69 v=0
26073 On ch=11 n=48 v=0
26075 On ch=11 n=36 v=0
26077 On ch=10 n=81 v=0
26080 On ch=7 n=64 v=0
26080 On ch=7 n=60 v=0
26080 On ch=7 n=67 v=0
26083 On ch=3 n=77 v=0
26087 On ch=2 n=29 v=125
26087 On ch=2 n=41 v=125
26087 On ch=10 n=35 v=123
26087 On ch=10 n=43 v=124
26088 On ch=1 n=64 v=0
26088 On ch=1 n=29 v=123
26088 On ch=1 n=41 v=123
26088 On ch=1 n=65 v=123
26088 On ch=1 n=69 v=123
26088 On ch=1 n=77 v=123
26088 On ch=3 n=65 v=119
26088 On ch=3 n=72 v=119
26088 On ch=3 n=77 v=114
26091 On ch=13 n=65 v=124
26093 On ch=13 n=77 v=123
26096 On ch=1 n=65 v=0
26097 On ch=10 n=35 v=0
26098 On ch=10 n=43 v=0
26099 On ch=1 n=69 v=0
26100 On ch=2 n=29 v=0
26100 On ch=1 n=77 v=0
26101 On ch=2 n=41 v=0
26102 On ch=3 n=65 v=0
26102 On ch=1 n=41 v=0
26103 On ch=13 n=65 v=0
26103 On ch=1 n=29 v=0
26103 On ch=13 n=77 v=0
26104 On ch=3 n=72 v=0
26104 On ch=3 n=77 v=0
26111 On ch=2 n=29 v=125
26111 On ch=2 n=41 v=125
26111 On ch=10 n=35 v=124
26111 On ch=10 n=43 v=124
26112 On ch=1 n=29 v=123
26112 On ch=1 n=41 v=123
26112 On ch=1 n=65 v=123
26112 On ch=1 n=69 v=123
26112 On ch=1 n=77 v=123
26112 On ch=3 n=65 v=118
26112 On ch=3 n=72 v=118
26112 On ch=3 n=77 v=117
26117 On ch=13 n=65 v=124
26118 On ch=13 n=77 v=124
26122 On ch=1 n=65 v=0
26123 On ch=10 n=35 v=0
26123 On ch=10 n=43 v=0
26123 On ch=2 n=41 v=0
26124 On ch=2 n=29 v=0
26125 On ch=1 n=69 v=0
26126 On ch=1 n=77 v=0
26128 On ch=13 n=77 v=0
26128 On ch=13 n=65 v=0
26129 On ch=1 n=29 v=0
26129 On ch=1 n=41 v=0
26135 On ch=3 n=77 v=0
26135 On ch=2 n=29 v=125
26135 On ch=2 n=41 v=125
26135 On ch=10 n=35 v=124
26135 On ch=10 n=43 v=124
26136 On ch=3 n=65 v=0
26136 On ch=3 n=72 v=0
26136 On ch=1 n=60 v=112
26136 On ch=1 n=64 v=112
26136 On ch=1 n=67 v=112
26136 On ch=3 n=65 v=117
26136 On ch=3 n=72 v=117
26136 On ch=3 n=77 v=117
26136 On ch=7 n=60 v=120
26136 On ch=7 n=64 v=121
26136 On ch=7 n=67 v=121
26137 On ch=3 n=65 v=0
26141 On ch=13 n=65 v=123
26141 On ch=13 n=77 v=124
26146 On ch=1 n=60 v=0
26147 On ch=1 n=64 v=0
26147 On ch=7 n=67 v=0
26147 On ch=7 n=64 v=0
26148 On ch=3 n=77 v=0
26148 On ch=3 n=72 v=0
26148 On ch=7 n=60 v=0
26151 On ch=1 n=67 v=0
26155 On ch=10 n=35 v=0
26156 On ch=10 n=43 v=0
26159 On ch=13 n=65 v=0
26159 On ch=13 n=77 v=0
26160 On ch=1 n=64 v=112
26160 On ch=1 n=67 v=112
26160 On ch=3 n=77 v=94
26160 On ch=7 n=60 v=117
26160 On ch=7 n=64 v=119
26160 On ch=7 n=67 v=120
26160 On ch=11 n=36 v=116
26160 On ch=11 n=48 v=118
26165 On ch=10 n=81 v=104
26167 On ch=11 n=36 v=0
26169 On ch=11 n=48 v=0
26170 On ch=7 n=64 v=0
26173 On ch=7 n=60 v=0
26174 On ch=2 n=41 v=0
26175 On ch=1 n=64 v=0
26176 On ch=7 n=67 v=0
26176 On ch=10 n=81 v=0
26176 On ch=2 n=29 v=0
26181 On ch=1 n=67 v=0
26184 On ch=1 n=65 v=112
26184 On ch=1 n=69 v=112
26184 On ch=7 n=60 v=119
26184 On ch=7 n=65 v=120
26184 On ch=7 n=69 v=120
26184 On ch=11 n=36 v=121
26184 On ch=11 n=48 v=119
26187 On ch=10 n=81 v=110
26191 On ch=11 n=48 v=0
26191 On ch=11 n=36 v=0
26194 On ch=7 n=65 v=0
26195 On ch=7 n=60 v=0
26198 On ch=10 n=81 v=0
26198 On ch=7 n=69 v=0
26201 On ch=1 n=65 v=0
26203 On ch=1 n=69 v=0
26208 On ch=1 n=60 v=112
26208 On ch=1 n=67 v=112
26208 On ch=1 n=70 v=112
26208 On ch=7 n=60 v=120
26208 On ch=7 n=67 v=120
26208 On ch=7 n=70 v=119
26208 On ch=11 n=36 v=122
26208 On ch=11 n=48 v=118
26211 On ch=10 n=81 v=118
26214 On ch=1 n=60 v=0
26215 On ch=11 n=48 v=0
26217 On ch=11 n=36 v=0
26219 On ch=1 n=70 v=0
26220 On ch=7 n=60 v=0
26220 On ch=10 n=81 v=0
26222 On ch=1 n=67 v=0
26223 On ch=7 n=67 v=0
26226 On ch=7 n=70 v=0
26232 On ch=1 n=65 v=112
26232 On ch=1 n=69 v=112
26232 On ch=7 n=60 v=121
26232 On ch=7 n=65 v=120
26232 On ch=7 n=69 v=120
26232 On ch=11 n=36 v=119
26232 On ch=11 n=48 v=120
26233 On ch=10 n=81 v=118
26240 On ch=11 n=48 v=0
26241 On ch=7 n=65 v=0
26242 On ch=10 n=81 v=0
26243 On ch=11 n=36 v=0
26244 On ch=7 n=60 v=0
26246 On ch=7 n=69 v=0
26254 On ch=1 n=65 v=0
26256 On ch=1 n=64 v=112
26256 On ch=1 n=67 v=112
26256 On ch=7 n=60 v=122
26256 On ch=7 n=64 v=119
26256 On ch=7 n=67 v=121
26256 On ch=11 n=36 v=120
26256 On ch=11 n=48 v=122
26257 On ch=10 n=81 v=121
26263 On ch=1 n=67 v=0
26263 On ch=1 n=69 v=0
26265 On ch=11 n=36 v=0
26267 On ch=11 n=48 v=0
26269 On ch=10 n=81 v=0
26272 On ch=7 n=64 v=0
26273 On ch=7 n=67 v=0
26273 On ch=7 n=60 v=0
26280 On ch=1 n=64 v=0
26280 On ch=3 n=77 v=0
26280 On ch=1 n=65 v=123
26283 On ch=13 n=65 v=124
26283 On ch=13 n=77 v=123
26294 On ch=13 n=65 v=0
26295 On ch=13 n=77 v=0
26304 On ch=1 n=65 v=0
26304 On ch=1 n=77 v=123
26304 On ch=3 n=77 v=116
26307 On ch=13 n=77 v=122
26308 On ch=13 n=65 v=124
26318 On ch=13 n=65 v=0
26318 On ch=13 n=77 v=0
26319 On ch=3 n=77 v=0
26320 On ch=1 n=77 v=0
26328 On ch=1 n=77 v=121
26328 On ch=3 n=77 v=116
26331 On ch=13 n=65 v=124
26331 On ch=13 n=77 v=124
26349 On ch=13 n=65 v=0
26351 On ch=13 n=77 v=0
26352 On ch=1 n=75 v=122
26352 On ch=3 n=75 v=116
26376 On ch=1 n=72 v=123
26376 On ch=3 n=72 v=107
26376 On ch=6 n=84 v=121
26376 On ch=7 n=72 v=119
26376 On ch=8 n=72 v=119
26392 On ch=1 n=77 v=0
26424 On ch=1 n=68 v=123
26424 On ch=3 n=68 v=118
26424 On ch=6 n=80 v=120
26424 On ch=7 n=68 v=119
26424 On ch=8 n=68 v=119
26425 On ch=3 n=77 v=0
26472 On ch=1 n=65 v=123
26472 On ch=3 n=65 v=118
26472 On ch=6 n=77 v=120
26472 On ch=7 n=65 v=119
26472 On ch=8 n=65 v=119
26520 On ch=1 n=63 v=123
26520 On ch=3 n=63 v=117
26520 On ch=6 n=75 v=121
26520 On ch=7 n=63 v=119
26520 On ch=8 n=63 v=119
26523 On ch=3 n=63 v=0
26524 On ch=3 n=72 v=0
26572 On ch=7 n=72 v=0
26572 On ch=8 n=72 v=0
26572 On ch=6 n=84 v=0
26575 On ch=6 n=80 v=0
26575 On ch=8 n=68 v=0
26575 On ch=7 n=68 v=0
26580 On ch=8 n=65 v=0
26580 On ch=7 n=65 v=0
26580 On ch=3 n=68 v=0
26580 On ch=6 n=77 v=0
26581 On ch=3 n=75 v=0
26583 On ch=3 n=65 v=0
26585 On ch=6 n=75 v=0
26585 On ch=8 n=63 v=0
26585 On ch=7 n=63 v=0
26605 On ch=1 n=65 v=0
26607 On ch=1 n=68 v=0
26610 On ch=1 n=72 v=0
26613 On ch=1 n=63 v=0
26614 On ch=1 n=75 v=0
26615 On ch=2 n=43 v=125
26615 On ch=10 n=35 v=123
26615 On ch=10 n=43 v=124
26615 On ch=10 n=81 v=118
26616 On ch=1 n=48 v=123
26616 On ch=1 n=60 v=123
26616 On ch=1 n=72 v=123
26616 On ch=1 n=84 v=123
26616 On ch=3 n=60 v=116
26616 On ch=3 n=67 v=116
26616 On ch=3 n=72 v=116
26616 On ch=6 n=60 v=122
26616 On ch=7 n=48 v=120
26616 On ch=13 n=60 v=123
26616 On ch=11 n=36 v=108
26616 On ch=8 n=48 v=120
26626 On ch=11 n=36 v=0
26627 On ch=10 n=81 v=0
26636 On ch=3 n=60 v=0
26638 On ch=1 n=60 v=0
26639 On ch=3 n=72 v=0
26640 On ch=1 n=48 v=0
26640 On ch=3 n=67 v=0
26640 On ch=1 n=72 v=0
26641 On ch=1 n=84 v=0
26643 On ch=10 n=43 v=0
26643 On ch=10 n=35 v=0
26646 On ch=13 n=60 v=0
26649 On ch=7 n=48 v=0
26649 On ch=8 n=48 v=0
26649 On ch=6 n=60 v=0
26653 On ch=2 n=43 v=0
26663 On ch=10 n=35 v=124
26663 On ch=10 n=43 v=124
26663 On ch=10 n=45 v=124
26664 On ch=1 n=47 v=123
26664 On ch=1 n=59 v=123
26664 On ch=1 n=71 v=123
26664 On ch=1 n=83 v=123
26664 On ch=3 n=59 v=114
26664 On ch=3 n=65 v=114
26664 On ch=3 n=71 v=114
26664 On ch=3 n=74 v=114
26664 On ch=6 n=59 v=122
26664 On ch=7 n=47 v=121
26664 On ch=13 n=59 v=121
26664 On ch=11 n=36 v=105
26664 On ch=10 n=81 v=121
26664 On ch=8 n=47 v=120
26665 On ch=2 n=41 v=125
26677 On ch=10 n=81 v=0
26677 On ch=11 n=36 v=0
26678 On ch=1 n=71 v=0
26682 On ch=3 n=59 v=0
26685 On ch=1 n=59 v=0
26688 On ch=3 n=65 v=0
26688 On ch=1 n=47 v=0
26688 On ch=3 n=74 v=0
26688 On ch=10 n=43 v=0
26688 On ch=3 n=71 v=0
26688 On ch=1 n=83 v=0
26692 On ch=10 n=45 v=0
26693 On ch=10 n=35 v=0
26694 On ch=8 n=47 v=0
26694 On ch=6 n=59 v=0
26694 On ch=7 n=47 v=0
26694 On ch=13 n=59 v=0
26704 On ch=2 n=41 v=0
26711 On ch=2 n=38 v=125
26711 On ch=10 n=35 v=124
26711 On ch=10 n=45 v=124
26712 On ch=1 n=51 v=123
26712 On ch=1 n=63 v=123
26712 On ch=1 n=75 v=123
26712 On ch=1 n=87 v=123
26712 On ch=3 n=63 v=115
26712 On ch=3 n=71 v=115
26712 On ch=3 n=75 v=115
26712 On ch=6 n=56 v=123
26712 On ch=6 n=65 v=123
26712 On ch=7 n=44 v=122
26712 On ch=7 n=53 v=122
26712 On ch=13 n=63 v=122
26712 On ch=11 n=36 v=117
26712 On ch=8 n=44 v=120
26712 On ch=8 n=53 v=120
26713 On ch=10 n=81 v=121
26726 On ch=10 n=81 v=0
26728 On ch=11 n=36 v=0
26735 On ch=3 n=75 v=0
26735 On ch=3 n=63 v=0
26735 On ch=1 n=75 v=0
26736 On ch=3 n=71 v=0
26736 On ch=8 n=53 v=0
26736 On ch=7 n=53 v=0
26736 On ch=1 n=51 v=0
26736 On ch=6 n=65 v=0
26737 On ch=1 n=87 v=0
26738 On ch=10 n=35 v=0
26739 On ch=13 n=63 v=0
26739 On ch=10 n=45 v=0
26741 On ch=2 n=38 v=0
26744 On ch=1 n=63 v=0
26748 On ch=8 n=44 v=0
26748 On ch=7 n=44 v=0
26748 On ch=6 n=56 v=0
26759 On ch=2 n=35 v=125
26759 On ch=10 n=35 v=124
26759 On ch=10 n=43 v=124
26759 On ch=10 n=81 v=119
26760 On ch=1 n=50 v=123
26760 On ch=1 n=62 v=123
26760 On ch=1 n=74 v=123
26760 On ch=1 n=86 v=123
26760 On ch=3 n=62 v=116
26760 On ch=3 n=67 v=116
26760 On ch=3 n=74 v=116
26760 On ch=3 n=77 v=116
26760 On ch=6 n=55 v=123
26760 On ch=6 n=62 v=123
26760 On ch=7 n=43 v=122
26760 On ch=7 n=50 v=122
26760 On ch=13 n=62 v=123
26760 On ch=11 n=36 v=122
26760 On ch=8 n=43 v=121
26760 On ch=8 n=50 v=121
26772 On ch=1 n=74 v=0
26773 On ch=10 n=81 v=0
26775 On ch=11 n=36 v=0
26779 On ch=3 n=62 v=0
26781 On ch=1 n=86 v=0
26781 On ch=1 n=62 v=0
26783 On ch=10 n=35 v=0
26784 On ch=3 n=74 v=0
26784 On ch=1 n=50 v=0
26784 On ch=3 n=67 v=0
26784 On ch=3 n=77 v=0
26784 On ch=10 n=43 v=0
26785 On ch=13 n=62 v=0
26791 On ch=8 n=43 v=0
26791 On ch=6 n=55 v=0
26791 On ch=7 n=43 v=0
26795 On ch=2 n=35 v=0
26807 On ch=2 n=32 v=125
26807 On ch=10 n=35 v=124
26807 On ch=10 n=45 v=124
26807 On ch=10 n=81 v=120
26808 On ch=8 n=50 v=0
26808 On ch=7 n=50 v=0
26808 On ch=6 n=62 v=0
26808 On ch=1 n=56 v=123
26808 On ch=1 n=68 v=123
26808 On ch=1 n=80 v=123
26808 On ch=1 n=92 v=123
26808 On ch=3 n=59 v=120
26808 On ch=3 n=68 v=120
26808 On ch=3 n=74 v=120
26808 On ch=3 n=80 v=120
26808 On ch=6 n=53 v=123
26808 On ch=6 n=68 v=123
26808 On ch=7 n=41 v=122
26808 On ch=7 n=56 v=122
26808 On ch=13 n=68 v=121
26808 On ch=11 n=36 v=121
26808 On ch=8 n=41 v=121
26808 On ch=8 n=56 v=121
26822 On ch=1 n=80 v=0
26822 On ch=10 n=81 v=0
26823 On ch=11 n=36 v=0
26824 On ch=1 n=68 v=0
26829 On ch=3 n=68 v=0
26829 On ch=3 n=80 v=0
26831 On ch=10 n=35 v=0
26831 On ch=1 n=92 v=0
26832 On ch=6 n=68 v=0
26832 On ch=7 n=56 v=0
26832 On ch=3 n=74 v=0
26832 On ch=3 n=59 v=0
26832 On ch=8 n=56 v=0
26832 On ch=10 n=45 v=0
26832 On ch=1 n=56 v=0
26833 On ch=13 n=68 v=0
26838 On ch=7 n=41 v=0
26838 On ch=6 n=53 v=0
26838 On ch=8 n=41 v=0
26840 On ch=2 n=32 v=0
26854 On ch=2 n=31 v=125
26855 On ch=10 n=35 v=124
26855 On ch=10 n=43 v=124
26856 On ch=1 n=55 v=123
26856 On ch=1 n=67 v=123
26856 On ch=1 n=79 v=123
26856 On ch=1 n=91 v=123
26856 On ch=3 n=55 v=120
26856 On ch=3 n=67 v=120
26856 On ch=3 n=77 v=120
26856 On ch=3 n=83 v=120
26856 On ch=6 n=50 v=123
26856 On ch=6 n=67 v=123
26856 On ch=7 n=38 v=122
26856 On ch=7 n=55 v=122
26856 On ch=13 n=67 v=123
26856 On ch=11 n=36 v=122
26856 On ch=8 n=38 v=121
26856 On ch=8 n=55 v=121
26857 On ch=10 n=81 v=120
26869 On ch=1 n=79 v=0
26871 On ch=11 n=36 v=0
26872 On ch=10 n=81 v=0
26875 On ch=10 n=43 v=0
26876 On ch=1 n=91 v=0
26877 On ch=3 n=67 v=0
26878 On ch=1 n=67 v=0
26880 On ch=3 n=55 v=0
26880 On ch=8 n=55 v=0
26880 On ch=1 n=55 v=0
26880 On ch=3 n=83 v=0
26880 On ch=3 n=77 v=0
26880 On ch=6 n=67 v=0
26880 On ch=7 n=55 v=0
26882 On ch=13 n=67 v=0
26883 On ch=10 n=35 v=0
26885 On ch=2 n=31 v=0
26887 On ch=7 n=38 v=0
26887 On ch=8 n=38 v=0
26887 On ch=6 n=50 v=0
26902 On ch=10 n=81 v=120
26903 On ch=2 n=36 v=98
26903 On ch=10 n=35 v=124
26903 On ch=10 n=49 v=123
26904 On ch=1 n=48 v=123
26904 On ch=1 n=60 v=123
26904 On ch=1 n=72 v=123
26904 On ch=1 n=84 v=123
26904 On ch=1 n=96 v=123
26904 On ch=3 n=24 v=120
26904 On ch=3 n=48 v=120
26904 On ch=3 n=60 v=120
26904 On ch=3 n=72 v=120
26904 On ch=6 n=48 v=122
26904 On ch=6 n=72 v=123
26904 On ch=7 n=12 v=121
26904 On ch=7 n=36 v=122
26904 On ch=13 n=72 v=123
26904 On ch=11 n=36 v=123
26904 On ch=8 n=36 v=120
26904 On ch=8 n=60 v=121
26905 On ch=2 n=24 v=125
26917 On ch=11 n=36 v=0
26920 On ch=10 n=81 v=0
26927 On ch=2 n=24 v=0
26928 On ch=3 n=48 v=0
26928 On ch=1 n=48 v=0
26929 On ch=3 n=60 v=0
26931 On ch=1 n=84 v=0
26931 On ch=3 n=24 v=0
26931 On ch=3 n=72 v=0
26932 On ch=13 n=72 v=0
26932 On ch=1 n=60 v=0
26933 On ch=10 n=35 v=0
26934 On ch=1 n=96 v=0
26934 On ch=10 n=49 v=0
26935 On ch=1 n=72 v=0
26949 On ch=2 n=36 v=0
26952 On ch=6 n=72 v=0
26952 On ch=7 n=36 v=0
26952 On ch=8 n=60 v=0
26952 On ch=8 n=79 v=119
26953 On ch=8 n=36 v=0
26953 On ch=7 n=12 v=0
26953 On ch=6 n=48 v=0
26966 On ch=8 n=79 v=0
26976 On ch=8 n=79 v=120
26995 On ch=8 n=79 v=0
27000 On ch=8 n=81 v=120
27021 On ch=8 n=81 v=0
27024 On ch=8 n=79 v=120
27048 On ch=3 n=67 v=113
27048 On ch=7 n=43 v=112
27048 On ch=7 n=55 v=111
27056 On ch=7 n=43 v=0
27058 On ch=7 n=55 v=0
27058 On ch=3 n=67 v=0
27072 On ch=3 n=67 v=108
27072 On ch=7 n=43 v=113
27072 On ch=7 n=55 v=113
27082 On ch=7 n=55 v=0
27082 On ch=7 n=43 v=0
27095 On ch=3 n=67 v=0
27096 On ch=3 n=69 v=118
27096 On ch=7 n=45 v=117
27096 On ch=7 n=57 v=116
27117 On ch=3 n=69 v=0
27119 On ch=7 n=57 v=0
27120 On ch=3 n=67 v=118
27120 On ch=7 n=43 v=116
27120 On ch=7 n=55 v=115
27121 On ch=7 n=45 v=0
27135 On ch=8 n=79 v=0
27143 On ch=7 n=55 v=0
27143 On ch=2 n=43 v=121
27144 On ch=1 n=72 v=123
27144 On ch=1 n=76 v=121
27144 On ch=3 n=48 v=120
27144 On ch=3 n=55 v=120
27144 On ch=3 n=64 v=119
27144 On ch=7 n=52 v=121
27144 On ch=7 n=55 v=120
27144 On ch=13 n=76 v=122
27144 On ch=11 n=36 v=115
27144 On ch=11 n=48 v=110
27144 On ch=8 n=76 v=120
27144 On ch=8 n=79 v=120
27148 On ch=10 n=81 v=103
27151 On ch=11 n=48 v=0
27153 On ch=11 n=36 v=0
27153 On ch=13 n=76 v=0
27154 On ch=3 n=55 v=0
27154 On ch=2 n=43 v=0
27155 On ch=7 n=55 v=0
27155 On ch=1 n=72 v=0
27156 On ch=3 n=48 v=0
27156 On ch=7 n=43 v=0
27156 On ch=8 n=79 v=0
27158 On ch=1 n=76 v=0
27159 On ch=7 n=52 v=0
27159 On ch=8 n=76 v=0
27159 On ch=3 n=64 v=0
27160 On ch=10 n=81 v=0
27167 On ch=2 n=43 v=123
27168 On ch=1 n=72 v=123
27168 On ch=1 n=76 v=116
27168 On ch=3 n=48 v=113
27168 On ch=3 n=55 v=116
27168 On ch=3 n=64 v=118
27168 On ch=7 n=43 v=101
27168 On ch=7 n=52 v=118
27168 On ch=7 n=55 v=119
27168 On ch=13 n=76 v=123
27168 On ch=11 n=36 v=111
27168 On ch=11 n=48 v=110
27168 On ch=8 n=76 v=118
27168 On ch=8 n=79 v=119
27170 On ch=7 n=43 v=0
27170 On ch=10 n=81 v=103
27171 On ch=3 n=67 v=0
27175 On ch=11 n=48 v=0
27176 On ch=11 n=36 v=0
27177 On ch=13 n=76 v=0
27178 On ch=3 n=48 v=0
27178 On ch=3 n=64 v=0
27178 On ch=3 n=55 v=0
27180 On ch=2 n=43 v=0
27181 On ch=10 n=81 v=0
27182 On ch=1 n=72 v=0
27183 On ch=1 n=76 v=0
27187 On ch=7 n=52 v=0
27187 On ch=8 n=76 v=0
27191 On ch=2 n=45 v=121
27192 On ch=1 n=74 v=123
27192 On ch=1 n=77 v=122
27192 On ch=3 n=50 v=122
27192 On ch=3 n=57 v=119
27192 On ch=3 n=65 v=115
27192 On ch=7 n=53 v=119
27192 On ch=13 n=77 v=124
27192 On ch=11 n=36 v=121
27192 On ch=11 n=48 v=119
27192 On ch=8 n=77 v=119
27195 On ch=10 n=81 v=114
27201 On ch=11 n=48 v=0
27201 On ch=11 n=36 v=0
27202 On ch=3 n=65 v=0
27202 On ch=3 n=57 v=0
27202 On ch=3 n=50 v=0
27203 On ch=1 n=74 v=0
27204 On ch=2 n=45 v=0
27205 On ch=13 n=77 v=0
27206 On ch=10 n=81 v=0
27210 On ch=7 n=55 v=0
27210 On ch=8 n=79 v=0
27210 On ch=1 n=77 v=0
27211 On ch=8 n=77 v=0
27211 On ch=7 n=53 v=0
27215 On ch=2 n=43 v=122
27216 On ch=1 n=72 v=118
27216 On ch=1 n=76 v=122
27216 On ch=3 n=48 v=108
27216 On ch=3 n=55 v=121
27216 On ch=3 n=64 v=120
27216 On ch=7 n=52 v=119
27216 On ch=7 n=55 v=119
27216 On ch=13 n=76 v=122
27216 On ch=11 n=36 v=117
27216 On ch=11 n=48 v=107
27216 On ch=8 n=76 v=119
27216 On ch=8 n=79 v=119
27219 On ch=10 n=81 v=117
27221 On ch=11 n=48 v=0
27222 On ch=11 n=36 v=0
27226 On ch=3 n=64 v=0
27226 On ch=2 n=43 v=0
27226 On ch=3 n=48 v=0
27226 On ch=3 n=55 v=0
27227 On ch=13 n=76 v=0
27230 On ch=1 n=72 v=0
27230 On ch=10 n=81 v=0
27232 On ch=7 n=55 v=0
27232 On ch=7 n=52 v=0
27232 On ch=8 n=76 v=0
27232 On ch=8 n=79 v=0
27233 On ch=1 n=76 v=0
27239 On ch=2 n=41 v=125
27240 On ch=1 n=71 v=123
27240 On ch=1 n=74 v=120
27240 On ch=3 n=47 v=119
27240 On ch=3 n=53 v=118
27240 On ch=3 n=62 v=119
27240 On ch=7 n=50 v=120
27240 On ch=7 n=55 v=119
27240 On ch=13 n=74 v=123
27240 On ch=11 n=36 v=122
27240 On ch=11 n=48 v=119
27240 On ch=8 n=74 v=120
27240 On ch=8 n=79 v=119
27243 On ch=10 n=81 v=117
27249 On ch=11 n=48 v=0
27250 On ch=3 n=62 v=0
27250 On ch=2 n=41 v=0
27250 On ch=3 n=47 v=0
27250 On ch=1 n=74 v=0
27250 On ch=3 n=53 v=0
27250 On ch=1 n=71 v=0
27251 On ch=11 n=36 v=0
27253 On ch=13 n=74 v=0
27253 On ch=10 n=81 v=0
27255 On ch=8 n=74 v=0
27255 On ch=7 n=50 v=0
27256 On ch=8 n=79 v=0
27256 On ch=7 n=55 v=0
27263 On ch=2 n=40 v=122
27264 On ch=1 n=69 v=123
27264 On ch=1 n=72 v=123
27264 On ch=3 n=45 v=119
27264 On ch=3 n=52 v=121
27264 On ch=3 n=60 v=119
27264 On ch=7 n=48 v=120
27264 On ch=7 n=55 v=119
27264 On ch=13 n=72 v=122
27264 On ch=11 n=36 v=121
27264 On ch=11 n=48 v=119
27264 On ch=8 n=72 v=120
27264 On ch=8 n=79 v=119
27267 On ch=10 n=81 v=118
27273 On ch=11 n=48 v=0
27273 On ch=11 n=36 v=0
27273 On ch=3 n=60 v=0
27274 On ch=3 n=45 v=0
27274 On ch=3 n=52 v=0
27275 On ch=13 n=72 v=0
27275 On ch=1 n=72 v=0
27275 On ch=1 n=69 v=0
27276 On ch=2 n=40 v=0
27277 On ch=8 n=72 v=0
27277 On ch=7 n=48 v=0
27279 On ch=7 n=55 v=0
27279 On ch=8 n=79 v=0
27279 On ch=10 n=81 v=0
27287 On ch=2 n=38 v=121
27288 On ch=1 n=67 v=123
27288 On ch=1 n=71 v=123
27288 On ch=3 n=43 v=123
27288 On ch=3 n=50 v=123
27288 On ch=3 n=59 v=122
27288 On ch=7 n=47 v=121
27288 On ch=7 n=55 v=121
27288 On ch=13 n=71 v=122
27288 On ch=11 n=36 v=121
27288 On ch=11 n=48 v=121
27288 On ch=8 n=71 v=120
27288 On ch=8 n=79 v=120
27292 On ch=10 n=81 v=120
27298 On ch=11 n=36 v=0
27299 On ch=11 n=48 v=0
27304 On ch=10 n=81 v=0
27305 On ch=1 n=71 v=0
27305 On ch=1 n=67 v=0
27313 On ch=7 n=47 v=0
27313 On ch=8 n=71 v=0
27314 On ch=13 n=71 v=0
27315 On ch=7 n=55 v=0
27315 On ch=8 n=79 v=0
27316 On ch=3 n=50 v=0
27318 On ch=3 n=43 v=0
27318 On ch=3 n=59 v=0
27325 On ch=2 n=38 v=0
27336 On ch=1 n=62 v=123
27336 On ch=1 n=67 v=123
27336 On ch=1 n=71 v=123
27336 On ch=4 n=55 v=113
27336 On ch=7 n=55 v=119
27337 On ch=8 n=79 v=119
27354 On ch=1 n=62 v=0
27371 On ch=1 n=67 v=0
27372 On ch=7 n=55 v=0
27373 On ch=8 n=79 v=0
27378 On ch=1 n=71 v=0
27383 On ch=4 n=55 v=0
27383 On ch=2 n=36 v=123
27383 On ch=2 n=38 v=110
27383 On ch=10 n=35 v=123
27383 On ch=10 n=49 v=123
27384 On ch=1 n=48 v=119
27384 On ch=1 n=55 v=123
27384 On ch=1 n=60 v=123
27384 On ch=1 n=64 v=123
27384 On ch=1 n=67 v=123
27384 On ch=1 n=72 v=122
27384 On ch=3 n=55 v=119
27384 On ch=3 n=60 v=119
27384 On ch=4 n=48 v=113
27384 On ch=4 n=52 v=113
27384 On ch=4 n=60 v=113
27384 On ch=7 n=59 v=121
27384 On ch=7 n=60 v=118
27386 On ch=7 n=59 v=0
27386 On ch=8 n=84 v=119
27387 On ch=10 n=81 v=120
27387 On ch=8 n=83 v=120
27389 On ch=8 n=83 v=0
27394 On ch=2 n=38 v=0
27399 On ch=10 n=81 v=0
27432 On ch=10 n=81 v=106
27436 On ch=1 n=64 v=0
27440 On ch=7 n=60 v=0
27440 On ch=1 n=67 v=0
27440 On ch=3 n=55 v=0
27440 On ch=1 n=72 v=0
27441 On ch=1 n=48 v=0
27441 On ch=3 n=60 v=0
27441 On ch=1 n=60 v=0
27442 On ch=8 n=84 v=0
27442 On ch=2 n=36 v=0
27444 On ch=1 n=55 v=0
27446 On ch=10 n=81 v=0
27451 On ch=10 n=49 v=0
27451 On ch=10 n=35 v=0
27453 On ch=8 n=84 v=120
27455 On ch=2 n=36 v=122
27455 On ch=10 n=35 v=119
27455 On ch=10 n=57 v=119
27456 On ch=1 n=48 v=121
27456 On ch=1 n=55 v=117
27456 On ch=1 n=60 v=123
27456 On ch=1 n=64 v=123
27456 On ch=1 n=67 v=123
27456 On ch=1 n=72 v=122
27456 On ch=3 n=55 v=117
27456 On ch=3 n=60 v=110
27456 On ch=7 n=60 v=120
27456 On ch=11 n=36 v=117
27456 On ch=11 n=48 v=110
27466 On ch=11 n=48 v=0
27466 On ch=11 n=36 v=0
27467 On ch=1 n=64 v=0
27467 On ch=1 n=48 v=0
27468 On ch=8 n=84 v=0
27468 On ch=3 n=55 v=0
27470 On ch=4 n=52 v=0
27470 On ch=7 n=60 v=0
27470 On ch=3 n=60 v=0
27474 On ch=1 n=60 v=0
27475 On ch=1 n=72 v=0
27476 On ch=1 n=67 v=0
27477 On ch=2 n=36 v=0
27479 On ch=4 n=48 v=0
27479 On ch=1 n=55 v=0
27479 On ch=4 n=60 v=0
27479 On ch=10 n=57 v=0
27479 On ch=10 n=35 v=0
27479 On ch=2 n=33 v=121
27479 On ch=10 n=35 v=122
27479 On ch=10 n=52 v=124
27480 On ch=1 n=53 v=122
27480 On ch=1 n=60 v=121
27480 On ch=1 n=65 v=123
27480 On ch=1 n=69 v=123
27480 On ch=1 n=72 v=122
27480 On ch=3 n=53 v=119
27480 On ch=3 n=57 v=119
27480 On ch=3 n=60 v=117
27480 On ch=4 n=53 v=113
27480 On ch=4 n=57 v=113
27480 On ch=7 n=60 v=121
27480 On ch=11 n=36 v=122
27480 On ch=11 n=48 v=122
27480 On ch=10 n=81 v=117
27480 On ch=8 n=84 v=120
27489 On ch=11 n=36 v=0
27490 On ch=3 n=53 v=0
27491 On ch=11 n=48 v=0
27491 On ch=3 n=57 v=0
27492 On ch=10 n=81 v=0
27496 On ch=3 n=60 v=0
27496 On ch=1 n=65 v=0
27498 On ch=1 n=72 v=0
27498 On ch=8 n=84 v=0
27498 On ch=7 n=60 v=0
27500 On ch=1 n=69 v=0
27501 On ch=1 n=53 v=0
27502 On ch=1 n=60 v=0
27504 On ch=10 n=35 v=0
27526 On ch=2 n=33 v=0
27527 On ch=2 n=33 v=120
27527 On ch=8 n=84 v=119
27528 On ch=1 n=53 v=119
27528 On ch=1 n=60 v=122
27528 On ch=1 n=65 v=123
27528 On ch=1 n=69 v=123
27528 On ch=1 n=72 v=123
27528 On ch=3 n=53 v=119
27528 On ch=3 n=57 v=119
27528 On ch=3 n=60 v=119
27528 On ch=7 n=60 v=119
27533 On ch=10 n=81 v=116
27537 On ch=3 n=53 v=0
27538 On ch=1 n=65 v=0
27538 On ch=2 n=33 v=0
27539 On ch=1 n=69 v=0
27539 On ch=3 n=57 v=0
27541 On ch=1 n=60 v=0
27541 On ch=8 n=84 v=0
27541 On ch=3 n=60 v=0
27542 On ch=1 n=53 v=0
27542 On ch=7 n=60 v=0
27543 On ch=1 n=72 v=0
27543 On ch=10 n=81 v=0
27549 On ch=8 n=84 v=118
27551 On ch=10 n=52 v=0
27551 On ch=2 n=33 v=118
27552 On ch=1 n=53 v=119
27552 On ch=1 n=60 v=119
27552 On ch=1 n=65 v=122
27552 On ch=1 n=69 v=123
27552 On ch=1 n=72 v=122
27552 On ch=3 n=53 v=114
27552 On ch=3 n=57 v=114
27552 On ch=3 n=60 v=111
27552 On ch=7 n=60 v=117
27560 On ch=3 n=57 v=0
27562 On ch=3 n=53 v=0
27562 On ch=1 n=65 v=0
27564 On ch=2 n=33 v=0
27566 On ch=3 n=60 v=0
27566 On ch=1 n=60 v=0
27567 On ch=1 n=69 v=0
27568 On ch=8 n=84 v=0
27570 On ch=7 n=60 v=0
27570 On ch=1 n=72 v=0
27572 On ch=1 n=53 v=0
27574 On ch=4 n=53 v=0
27574 On ch=8 n=83 v=119
27575 On ch=4 n=57 v=0
27575 On ch=2 n=35 v=124
27575 On ch=10 n=35 v=124
27575 On ch=10 n=55 v=127
27576 On ch=1 n=52 v=123
27576 On ch=1 n=59 v=123
27576 On ch=1 n=64 v=123
27576 On ch=1 n=68 v=122
27576 On ch=1 n=71 v=123
27576 On ch=3 n=52 v=118
27576 On ch=3 n=56 v=118
27576 On ch=3 n=59 v=118
27576 On ch=4 n=52 v=113
27576 On ch=4 n=56 v=113
27576 On ch=4 n=59 v=113
27576 On ch=7 n=59 v=118
27576 On ch=11 n=36 v=122
27576 On ch=11 n=48 v=122
27579 On ch=10 n=81 v=118
27584 On ch=11 n=48 v=0
27585 On ch=3 n=52 v=0
27587 On ch=3 n=56 v=0
27587 On ch=1 n=64 v=0
27588 On ch=11 n=36 v=0
27590 On ch=8 n=83 v=0
27590 On ch=1 n=68 v=0
27590 On ch=3 n=59 v=0
27590 On ch=1 n=59 v=0
27590 On ch=1 n=52 v=0
27591 On ch=10 n=81 v=0
27592 On ch=7 n=59 v=0
27592 On ch=1 n=71 v=0
27599 On ch=8 n=83 v=118
27600 On ch=1 n=52 v=113
27600 On ch=1 n=59 v=123
27600 On ch=1 n=64 v=121
27600 On ch=1 n=68 v=123
27600 On ch=1 n=71 v=120
27600 On ch=3 n=52 v=106
27600 On ch=3 n=56 v=107
27600 On ch=3 n=59 v=110
27600 On ch=7 n=59 v=116
27608 On ch=3 n=52 v=0
27612 On ch=10 n=55 v=0
27612 On ch=1 n=64 v=0
27612 On ch=3 n=59 v=0
27612 On ch=10 n=35 v=0
27612 On ch=3 n=56 v=0
27613 On ch=1 n=52 v=0
27613 On ch=1 n=59 v=0
27614 On ch=8 n=83 v=0
27614 On ch=1 n=71 v=0
27615 On ch=7 n=59 v=0
27615 On ch=1 n=68 v=0
27623 On ch=10 n=35 v=123
27623 On ch=10 n=49 v=123
27624 On ch=1 n=52 v=112
27624 On ch=1 n=59 v=122
27624 On ch=1 n=64 v=123
27624 On ch=1 n=68 v=122
27624 On ch=1 n=71 v=122
27624 On ch=3 n=52 v=116
27624 On ch=3 n=56 v=116
27624 On ch=3 n=59 v=117
27624 On ch=7 n=59 v=119
27624 On ch=8 n=83 v=119
27626 On ch=10 n=81 v=116
27631 On ch=2 n=35 v=0
27634 On ch=1 n=64 v=0
27634 On ch=3 n=52 v=0
27635 On ch=1 n=59 v=0
27635 On ch=1 n=52 v=0
27636 On ch=1 n=71 v=0
27636 On ch=1 n=68 v=0
27636 On ch=3 n=56 v=0
27637 On ch=3 n=59 v=0
27638 On ch=10 n=81 v=0
27639 On ch=8 n=83 v=0
27639 On ch=7 n=59 v=0
27647 On ch=2 n=35 v=124
27648 On ch=1 n=52 v=122
27648 On ch=1 n=59 v=123
27648 On ch=1 n=64 v=123
27648 On ch=1 n=68 v=123
27648 On ch=1 n=71 v=121
27648 On ch=3 n=52 v=116
27648 On ch=3 n=56 v=116
27648 On ch=3 n=59 v=115
27648 On ch=7 n=59 v=117
27648 On ch=11 n=36 v=118
27648 On ch=11 n=48 v=115
27648 On ch=8 n=83 v=118
27651 On ch=10 n=49 v=0
27655 On ch=10 n=35 v=0
27657 On ch=11 n=48 v=0
27657 On ch=11 n=36 v=0
27658 On ch=1 n=59 v=0
27658 On ch=3 n=52 v=0
27660 On ch=1 n=64 v=0
27662 On ch=1 n=52 v=0
27663 On ch=3 n=56 v=0
27664 On ch=2 n=35 v=0
27664 On ch=3 n=59 v=0
27665 On ch=1 n=71 v=0
27665 On ch=1 n=68 v=0
27667 On ch=8 n=83 v=0
27667 On ch=7 n=59 v=0
27671 On ch=4 n=52 v=0
27671 On ch=4 n=59 v=0
27671 On ch=4 n=56 v=0
27671 On ch=2 n=40 v=123
27671 On ch=10 n=35 v=124
27671 On ch=10 n=57 v=123
27672 On ch=1 n=45 v=123
27672 On ch=1 n=57 v=123
27672 On ch=1 n=64 v=123
27672 On ch=1 n=69 v=123
27672 On ch=1 n=72 v=122
27672 On ch=3 n=52 v=118
27672 On ch=3 n=57 v=119
27672 On ch=3 n=60 v=116
27672 On ch=4 n=57 v=113
27672 On ch=4 n=60 v=113
27672 On ch=7 n=52 v=121
27672 On ch=11 n=36 v=121
27672 On ch=11 n=48 v=122
27673 On ch=8 n=76 v=120
27674 On ch=10 n=81 v=119
27681 On ch=11 n=48 v=0
27681 On ch=11 n=36 v=0
27686 On ch=10 n=81 v=0
27689 On ch=3 n=52 v=0
27691 On ch=3 n=57 v=0
27691 On ch=1 n=69 v=0
27692 On ch=1 n=72 v=0
27693 On ch=3 n=60 v=0
27694 On ch=1 n=64 v=0
27694 On ch=1 n=45 v=0
27696 On ch=1 n=57 v=0
27699 On ch=7 n=52 v=0
27700 On ch=8 n=76 v=0
27720 On ch=1 n=45 v=122
27720 On ch=1 n=57 v=123
27720 On ch=1 n=64 v=123
27720 On ch=1 n=69 v=123
27720 On ch=1 n=72 v=123
27720 On ch=3 n=52 v=120
27720 On ch=3 n=57 v=122
27720 On ch=3 n=60 v=118
27720 On ch=7 n=52 v=121
27721 On ch=8 n=76 v=120
27725 On ch=10 n=81 v=118
27728 On ch=2 n=40 v=0
27731 On ch=1 n=45 v=0
27735 On ch=1 n=69 v=0
27735 On ch=1 n=64 v=0
27736 On ch=1 n=57 v=0
27738 On ch=1 n=72 v=0
27739 On ch=10 n=81 v=0
27739 On ch=3 n=52 v=0
27741 On ch=3 n=60 v=0
27742 On ch=3 n=57 v=0
27743 On ch=2 n=40 v=123
27749 On ch=10 n=57 v=0
27750 On ch=4 n=57 v=0
27753 On ch=10 n=35 v=0
27756 On ch=7 n=52 v=0
27757 On ch=8 n=76 v=0
27765 On ch=2 n=40 v=0
27767 On ch=4 n=60 v=0
27767 On ch=2 n=36 v=123
27767 On ch=10 n=35 v=124
27767 On ch=10 n=49 v=123
27768 On ch=1 n=48 v=121
27768 On ch=1 n=58 v=123
27768 On ch=1 n=60 v=123
27768 On ch=1 n=64 v=123
27768 On ch=1 n=67 v=123
27768 On ch=1 n=70 v=123
27768 On ch=3 n=52 v=118
27768 On ch=3 n=55 v=119
27768 On ch=3 n=58 v=103
27768 On ch=4 n=48 v=113
27768 On ch=4 n=55 v=113
27768 On ch=4 n=58 v=113
27768 On ch=7 n=50 v=120
27768 On ch=11 n=36 v=122
27768 On ch=11 n=48 v=119
27769 On ch=8 n=74 v=120
27771 On ch=4 n=55 v=0
27773 On ch=10 n=81 v=117
27780 On ch=11 n=48 v=0
27782 On ch=11 n=36 v=0
27785 On ch=10 n=81 v=0
27802 On ch=10 n=35 v=0
27815 On ch=10 n=35 v=123
27816 On ch=11 n=36 v=107
27816 On ch=11 n=48 v=107
27818 On ch=10 n=81 v=115
27824 On ch=11 n=36 v=0
27825 On ch=11 n=48 v=0
27832 On ch=10 n=81 v=0
27844 On ch=10 n=35 v=0
27863 On ch=10 n=35 v=123
27864 On ch=7 n=50 v=0
27864 On ch=11 n=36 v=108
27864 On ch=10 n=81 v=117
27870 On ch=11 n=36 v=0
27878 On ch=10 n=81 v=0
27888 On ch=11 n=48 v=80
27892 On ch=11 n=48 v=0
27894 On ch=2 n=36 v=0
27899 On ch=10 n=35 v=0
27911 On ch=1 n=48 v=0
27911 On ch=2 n=36 v=123
27911 On ch=10 n=35 v=123
27911 On ch=10 n=81 v=116
27912 On ch=11 n=36 v=110
27912 On ch=11 n=48 v=110
27920 On ch=11 n=36 v=0
27920 On ch=1 n=58 v=0
27921 On ch=11 n=48 v=0
27924 On ch=10 n=81 v=0
27935 On ch=8 n=74 v=0
27936 On ch=7 n=48 v=119
27936 On ch=8 n=72 v=119
27939 On ch=10 n=49 v=0
27942 On ch=10 n=35 v=0
27943 On ch=2 n=36 v=0
27944 On ch=1 n=60 v=0
27946 On ch=1 n=67 v=0
27948 On ch=8 n=72 v=0
27948 On ch=7 n=48 v=0
27949 On ch=1 n=64 v=0
27949 On ch=8 n=74 v=118
27954 On ch=1 n=70 v=0
27955 On ch=3 n=52 v=0
27957 On ch=4 n=48 v=0
27957 On ch=10 n=81 v=107
27959 On ch=4 n=58 v=0
27959 On ch=2 n=36 v=122
27959 On ch=10 n=35 v=124
27959 On ch=10 n=57 v=123
27960 On ch=8 n=74 v=0
27960 On ch=1 n=52 v=123
27960 On ch=1 n=58 v=123
27960 On ch=1 n=60 v=123
27960 On ch=1 n=64 v=123
27960 On ch=1 n=67 v=123
27960 On ch=1 n=70 v=123
27960 On ch=1 n=72 v=123
27960 On ch=3 n=60 v=107
27960 On ch=3 n=64 v=116
27960 On ch=4 n=52 v=113
27960 On ch=4 n=64 v=113
27960 On ch=4 n=67 v=113
27960 On ch=11 n=36 v=110
27960 On ch=11 n=48 v=108
27960 On ch=8 n=72 v=118
27969 On ch=11 n=48 v=0
27969 On ch=11 n=36 v=0
27970 On ch=8 n=72 v=0
27971 On ch=10 n=81 v=0
27972 On ch=8 n=74 v=119
27981 On ch=8 n=74 v=0
27982 On ch=8 n=72 v=118
27990 On ch=10 n=35 v=0
27993 On ch=8 n=74 v=119
27994 On ch=8 n=74 v=0
27994 On ch=8 n=72 v=0
28004 On ch=8 n=72 v=117
28007 On ch=10 n=35 v=123
28007 On ch=10 n=81 v=110
28008 On ch=11 n=36 v=110
28008 On ch=11 n=48 v=105
28015 On ch=8 n=74 v=119
28016 On ch=8 n=72 v=0
28017 On ch=11 n=48 v=0
28017 On ch=11 n=36 v=0
28019 On ch=10 n=81 v=0
28023 On ch=8 n=74 v=0
28026 On ch=8 n=72 v=117
28036 On ch=10 n=35 v=0
28036 On ch=8 n=74 v=119
28037 On ch=8 n=72 v=0
28046 On ch=8 n=74 v=0
28048 On ch=8 n=72 v=118
28055 On ch=10 n=35 v=124
28055 On ch=10 n=81 v=111
28056 On ch=11 n=36 v=112
28056 On ch=11 n=48 v=112
28059 On ch=8 n=72 v=0
28059 On ch=8 n=74 v=119
28065 On ch=11 n=48 v=0
28066 On ch=11 n=36 v=0
28067 On ch=10 n=81 v=0
28069 On ch=8 n=74 v=0
28071 On ch=8 n=72 v=118
28081 On ch=8 n=74 v=119
28082 On ch=8 n=72 v=0
28089 On ch=10 n=35 v=0
28091 On ch=8 n=74 v=0
28094 On ch=8 n=72 v=119
28103 On ch=10 n=35 v=123
28103 On ch=10 n=81 v=112
28104 On ch=1 n=64 v=0
28104 On ch=11 n=36 v=116
28104 On ch=11 n=48 v=119
28104 On ch=8 n=74 v=118
28105 On ch=8 n=72 v=0
28106 On ch=1 n=67 v=0
28108 On ch=1 n=52 v=0
28111 On ch=11 n=36 v=0
28111 On ch=1 n=60 v=0
28111 On ch=1 n=72 v=0
28112 On ch=11 n=48 v=0
28112 On ch=8 n=74 v=0
28112 On ch=1 n=70 v=0
28113 On ch=1 n=58 v=0
28115 On ch=2 n=36 v=0
28115 On ch=10 n=81 v=0
28115 On ch=8 n=72 v=118
28126 On ch=8 n=72 v=0
28126 On ch=8 n=74 v=119
28127 On ch=2 n=36 v=122
28132 On ch=10 n=57 v=0
28134 On ch=4 n=64 v=0
28136 On ch=8 n=74 v=0
28136 On ch=10 n=35 v=0
28139 On ch=8 n=72 v=119
28140 On ch=2 n=36 v=0
28146 On ch=4 n=67 v=0
28149 On ch=10 n=81 v=113
28150 On ch=8 n=74 v=119
28151 On ch=8 n=72 v=0
28151 On ch=4 n=52 v=0
28151 On ch=2 n=36 v=123
28151 On ch=10 n=35 v=123
28151 On ch=10 n=49 v=123
28152 On ch=1 n=55 v=123
28152 On ch=1 n=58 v=123
28152 On ch=1 n=60 v=123
28152 On ch=1 n=64 v=123
28152 On ch=1 n=67 v=123
28152 On ch=1 n=70 v=123
28152 On ch=1 n=72 v=123
28152 On ch=1 n=76 v=123
28152 On ch=3 n=67 v=113
28152 On ch=4 n=55 v=113
28152 On ch=4 n=67 v=113
28154 On ch=3 n=64 v=0
28159 On ch=8 n=74 v=0
28161 On ch=10 n=81 v=0
28162 On ch=8 n=72 v=118
28172 On ch=8 n=72 v=0
28172 On ch=8 n=74 v=119
28175 On ch=2 n=36 v=0
28176 On ch=11 n=47 v=74
28176 On ch=11 n=48 v=107
28178 On ch=11 n=47 v=0
28180 On ch=8 n=74 v=0
28183 On ch=11 n=48 v=0
28184 On ch=8 n=72 v=118
28185 On ch=10 n=35 v=0
28194 On ch=8 n=72 v=0
28194 On ch=8 n=74 v=119
28199 On ch=10 n=35 v=122
28199 On ch=10 n=81 v=112
28200 On ch=11 n=48 v=98
28201 On ch=11 n=48 v=0
28204 On ch=8 n=74 v=0
28207 On ch=8 n=72 v=118
28211 On ch=10 n=81 v=0
28217 On ch=8 n=72 v=0
28217 On ch=8 n=74 v=119
28224 On ch=11 n=48 v=100
28227 On ch=8 n=74 v=0
28230 On ch=11 n=48 v=0
28230 On ch=8 n=72 v=118
28231 On ch=8 n=72 v=0
28233 On ch=10 n=35 v=0
28240 On ch=8 n=74 v=119
28247 On ch=10 n=35 v=123
28247 On ch=10 n=81 v=111
28248 On ch=11 n=48 v=91
28250 On ch=8 n=74 v=0
28253 On ch=8 n=72 v=119
28255 On ch=11 n=48 v=0
28259 On ch=10 n=81 v=0
28263 On ch=8 n=72 v=0
28264 On ch=8 n=74 v=118
28272 On ch=11 n=48 v=122
28273 On ch=8 n=74 v=0
28275 On ch=8 n=72 v=119
28279 On ch=11 n=48 v=0
28281 On ch=10 n=35 v=0
28287 On ch=8 n=72 v=0
28287 On ch=8 n=74 v=118
28295 On ch=8 n=74 v=0
28295 On ch=3 n=58 v=0
28295 On ch=10 n=35 v=123
28295 On ch=10 n=81 v=111
28295 On ch=8 n=72 v=117
28296 On ch=11 n=48 v=118
28298 On ch=1 n=60 v=0
28298 On ch=1 n=67 v=0
28299 On ch=1 n=55 v=0
28300 On ch=1 n=70 v=0
28301 On ch=3 n=55 v=0
28303 On ch=11 n=48 v=0
28303 On ch=1 n=72 v=0
28305 On ch=1 n=64 v=0
28306 On ch=1 n=58 v=0
28306 On ch=8 n=72 v=0
28306 On ch=1 n=76 v=0
28306 On ch=3 n=60 v=0
28306 On ch=8 n=74 v=117
28307 On ch=10 n=81 v=0
28313 On ch=8 n=72 v=117
28315 On ch=8 n=74 v=0
28320 On ch=11 n=48 v=117
28325 On ch=8 n=72 v=0
28327 On ch=11 n=48 v=0
28327 On ch=8 n=71 v=111
28331 On ch=10 n=35 v=0
28331 On ch=10 n=49 v=0
28337 On ch=8 n=72 v=119
28338 On ch=8 n=71 v=0
28338 On ch=10 n=81 v=115
28343 On ch=4 n=55 v=0
28343 On ch=4 n=67 v=0
28343 On ch=10 n=35 v=124
28343 On ch=10 n=49 v=124
28344 On ch=1 n=60 v=123
28344 On ch=1 n=67 v=123
28344 On ch=1 n=70 v=123
28344 On ch=1 n=72 v=123
28344 On ch=1 n=76 v=123
28344 On ch=1 n=82 v=123
28344 On ch=1 n=84 v=123
28344 On ch=3 n=60 v=119
28344 On ch=3 n=72 v=113
28344 On ch=3 n=84 v=115
28344 On ch=4 n=64 v=113
28344 On ch=4 n=70 v=113
28344 On ch=4 n=72 v=113
28349 On ch=3 n=67 v=0
28350 On ch=10 n=81 v=0
28357 On ch=10 n=81 v=102
28358 On ch=10 n=81 v=0
28368 On ch=11 n=48 v=90
28369 On ch=11 n=48 v=0
28370 On ch=10 n=81 v=112
28375 On ch=10 n=35 v=0
28378 On ch=10 n=81 v=0
28387 On ch=10 n=81 v=105
28388 On ch=10 n=81 v=0
28392 On ch=11 n=48 v=89
28393 On ch=11 n=48 v=0
28402 On ch=10 n=81 v=115
28406 On ch=10 n=81 v=0
28416 On ch=11 n=48 v=86
28423 On ch=11 n=48 v=0
28440 On ch=11 n=48 v=123
28453 On ch=11 n=48 v=0
28464 On ch=11 n=48 v=86
28477 On ch=11 n=48 v=0
28488 On ch=11 n=48 v=91
28500 On ch=11 n=48 v=0
28501 On ch=3 n=84 v=0
28506 On ch=3 n=60 v=0
28506 On ch=3 n=72 v=0
28511 On ch=10 n=40 v=119
28512 On ch=11 n=48 v=123
28523 On ch=10 n=40 v=0
28526 On ch=11 n=48 v=0
28536 On ch=4 n=64 v=0
28536 On ch=4 n=72 v=0
28536 On ch=11 n=48 v=97
28538 On ch=4 n=70 v=0
28543 On ch=10 n=40 v=122
28546 On ch=11 n=48 v=0
28546 On ch=10 n=49 v=0
28548 On ch=8 n=72 v=0
28555 On ch=10 n=40 v=0
28560 On ch=11 n=48 v=123
28572 On ch=11 n=48 v=0
28575 On ch=10 n=45 v=122
28584 On ch=11 n=48 v=122
28587 On ch=10 n=45 v=0
28593 On ch=1 n=72 v=0
28594 On ch=1 n=82 v=0
28594 On ch=1 n=76 v=0
28595 On ch=1 n=84 v=0
28596 On ch=1 n=67 v=0
28597 On ch=1 n=70 v=0
28597 On ch=11 n=48 v=0
28598 On ch=1 n=60 v=0
28607 On ch=2 n=41 v=125
28607 On ch=10 n=35 v=121
28607 On ch=10 n=49 v=122
28608 On ch=1 n=65 v=123
28608 On ch=9 n=53 v=122
28632 On ch=11 n=48 v=123
28645 On ch=11 n=48 v=0
28647 On ch=10 n=35 v=0
28656 On ch=12 n=53 v=117
28670 On ch=2 n=41 v=0
28671 On ch=2 n=33 v=124
28671 On ch=10 n=35 v=120
28672 On ch=1 n=57 v=123
28672 On ch=9 n=45 v=122
28674 On ch=1 n=65 v=0
28677 On ch=9 n=53 v=0
28703 On ch=10 n=40 v=121
28703 On ch=10 n=42 v=121
28703 On ch=10 n=51 v=122
28720 On ch=12 n=45 v=117
28725 On ch=12 n=53 v=0
28728 On ch=2 n=33 v=0
28735 On ch=2 n=34 v=124
28736 On ch=9 n=45 v=0
28736 On ch=1 n=58 v=122
28736 On ch=9 n=46 v=121
28739 On ch=1 n=57 v=0
28752 On ch=10 n=51 v=0
28770 On ch=10 n=35 v=0
28784 On ch=12 n=45 v=0
28784 Par ch=1 c=91 v=60
28784 On ch=12 n=46 v=115
28792 On ch=1 n=58 v=0
28795 On ch=2 n=34 v=0
28797 On ch=9 n=46 v=0
28799 On ch=2 n=35 v=125
28799 On ch=10 n=35 v=121
28799 On ch=10 n=51 v=122
28800 On ch=1 n=59 v=123
28800 On ch=9 n=47 v=121
28818 On ch=10 n=42 v=0
28844 On ch=10 n=35 v=0
28845 On ch=12 n=46 v=0
28846 On ch=10 n=51 v=0
28848 On ch=12 n=47 v=116
28852 On ch=1 n=59 v=0
28862 On ch=9 n=47 v=0
28863 On ch=2 n=36 v=124
28863 On ch=10 n=35 v=120
28864 On ch=1 n=60 v=122
28864 On ch=9 n=48 v=121
28865 On ch=2 n=35 v=0
28866 On ch=10 n=40 v=0
28890 On ch=1 n=60 v=0
28895 On ch=2 n=38 v=119
28895 On ch=10 n=40 v=121
28895 On ch=10 n=42 v=121
28895 On ch=10 n=51 v=121
28896 On ch=1 n=62 v=123
28896 On ch=9 n=50 v=119
28900 On ch=2 n=36 v=0
28902 On ch=9 n=48 v=0
28910 On ch=12 n=47 v=0
28912 On ch=12 n=48 v=115
28922 On ch=1 n=62 v=0
28924 On ch=2 n=38 v=0
28927 On ch=2 n=40 v=120
28928 On ch=1 n=64 v=123
28928 On ch=9 n=52 v=121
28929 On ch=9 n=50 v=0
28944 On ch=10 n=51 v=0
28944 On ch=12 n=50 v=113
28950 On ch=12 n=48 v=0
28952 On ch=2 n=40 v=0
28958 On ch=1 n=64 v=0
28959 On ch=2 n=41 v=123
28960 On ch=1 n=65 v=122
28960 On ch=9 n=53 v=121
28967 On ch=10 n=35 v=0
28972 On ch=9 n=52 v=0
28976 On ch=2 n=41 v=0
28976 On ch=12 n=52 v=116
28977 On ch=12 n=50 v=0
28981 On ch=9 n=53 v=0
28984 On ch=1 n=65 v=0
28991 On ch=2 n=41 v=124
28991 On ch=10 n=35 v=120
28991 On ch=10 n=51 v=122
28992 On ch=1 n=65 v=122
28992 On ch=9 n=53 v=121
29008 On ch=12 n=53 v=115
29020 On ch=12 n=52 v=0
29025 On ch=10 n=42 v=0
29029 On ch=12 n=53 v=0
29035 On ch=10 n=35 v=0
29040 On ch=12 n=53 v=115
29047 On ch=10 n=51 v=0
29055 On ch=2 n=33 v=124
29055 On ch=10 n=35 v=121
29056 On ch=1 n=57 v=123
29056 On ch=9 n=45 v=121
29058 On ch=1 n=65 v=0
29060 On ch=9 n=53 v=0
29061 On ch=2 n=41 v=0
29064 On ch=10 n=40 v=0
29087 On ch=10 n=40 v=123
29087 On ch=10 n=42 v=121
29087 On ch=10 n=51 v=122
29104 On ch=12 n=45 v=115
29108 On ch=12 n=53 v=0
29119 On ch=2 n=34 v=121
29120 On ch=1 n=58 v=122
29120 On ch=9 n=46 v=121
29124 On ch=1 n=57 v=0
29130 On ch=2 n=33 v=0
29131 On ch=9 n=45 v=0
29142 On ch=10 n=51 v=0
29160 On ch=10 n=35 v=0
29168 On ch=2 n=34 v=0
29168 On ch=12 n=46 v=115
29179 On ch=12 n=45 v=0
29181 On ch=1 n=58 v=0
29181 On ch=9 n=46 v=0
29183 On ch=2 n=35 v=121
29183 On ch=10 n=35 v=121
29183 On ch=10 n=51 v=121
29184 On ch=1 n=59 v=123
29184 On ch=9 n=47 v=120
29213 On ch=2 n=35 v=0
29215 On ch=2 n=36 v=118
29216 On ch=1 n=60 v=123
29216 On ch=9 n=48 v=117
29222 On ch=10 n=35 v=0
29225 On ch=9 n=47 v=0
29225 On ch=1 n=59 v=0
29227 On ch=10 n=42 v=0
29229 On ch=12 n=46 v=0
29232 On ch=12 n=47 v=114
29235 On ch=10 n=51 v=0
29239 On ch=1 n=60 v=0
29241 On ch=2 n=36 v=0
29242 On ch=9 n=48 v=0
29247 On ch=2 n=38 v=118
29247 On ch=10 n=35 v=121
29248 On ch=1 n=62 v=123
29248 On ch=9 n=50 v=121
29252 On ch=10 n=40 v=0
29264 On ch=12 n=48 v=110
29273 On ch=12 n=47 v=0
29278 On ch=2 n=38 v=0
29279 On ch=2 n=36 v=124
29279 On ch=10 n=40 v=123
29279 On ch=10 n=42 v=121
29279 On ch=10 n=51 v=122
29280 On ch=1 n=60 v=123
29280 On ch=9 n=48 v=123
29282 On ch=9 n=50 v=0
29290 On ch=12 n=48 v=0
29290 On ch=1 n=62 v=0
29293 On ch=10 n=35 v=0
29296 On ch=12 n=50 v=116
29328 On ch=12 n=48 v=117
29330 On ch=12 n=50 v=0
29339 On ch=10 n=51 v=0
29343 On ch=10 n=35 v=120
29360 On ch=10 n=35 v=0
29362 On ch=9 n=48 v=0
29362 On ch=1 n=60 v=0
29375 On ch=2 n=41 v=125
29375 On ch=10 n=35 v=122
29375 On ch=10 n=51 v=122
29376 On ch=1 n=65 v=123
29376 On ch=9 n=53 v=120
29380 On ch=2 n=36 v=0
29410 On ch=12 n=48 v=0
29413 On ch=10 n=42 v=0
29424 On ch=12 n=53 v=114
29426 On ch=10 n=35 v=0
29429 On ch=10 n=51 v=0
29439 On ch=2 n=33 v=123
29439 On ch=10 n=35 v=122
29440 On ch=2 n=41 v=0
29440 On ch=1 n=57 v=123
29440 On ch=9 n=45 v=120
29444 On ch=10 n=40 v=0
29445 On ch=9 n=53 v=0
29445 On ch=1 n=65 v=0
29471 On ch=10 n=40 v=124
29471 On ch=10 n=42 v=122
29471 On ch=10 n=51 v=122
29488 On ch=12 n=45 v=114
29493 On ch=12 n=53 v=0
29499 On ch=9 n=45 v=0
29503 On ch=2 n=34 v=124
29504 On ch=1 n=58 v=122
29504 On ch=9 n=46 v=121
29505 On ch=2 n=33 v=0
29505 On ch=1 n=57 v=0
29525 On ch=10 n=51 v=0
29544 On ch=10 n=35 v=0
29547 On ch=12 n=45 v=0
29552 On ch=12 n=46 v=115
29559 On ch=1 n=58 v=0
29565 On ch=2 n=34 v=0
29567 On ch=2 n=35 v=125
29567 On ch=10 n=35 v=121
29567 On ch=10 n=51 v=122
29568 On ch=1 n=59 v=123
29568 On ch=9 n=47 v=121
29570 On ch=9 n=46 v=0
29580 On ch=10 n=49 v=0
29603 On ch=10 n=35 v=0
29616 On ch=12 n=47 v=115
29618 On ch=12 n=46 v=0
29624 On ch=10 n=42 v=0
29626 On ch=1 n=59 v=0
29626 On ch=2 n=35 v=0
29627 On ch=10 n=51 v=0
29631 On ch=2 n=36 v=122
29631 On ch=10 n=35 v=123
29632 On ch=1 n=60 v=123
29632 On ch=9 n=48 v=119
29637 On ch=9 n=47 v=0
29639 On ch=10 n=40 v=0
29659 On ch=1 n=60 v=0
29663 On ch=2 n=38 v=122
29663 On ch=10 n=40 v=123
29663 On ch=10 n=42 v=121
29663 On ch=10 n=51 v=122
29664 On ch=1 n=62 v=123
29664 On ch=9 n=50 v=120
29666 On ch=2 n=36 v=0
29675 On ch=9 n=48 v=0
29680 On ch=12 n=48 v=113
29685 On ch=12 n=47 v=0
29690 On ch=2 n=38 v=0
29693 On ch=1 n=62 v=0
29695 On ch=2 n=40 v=122
29696 On ch=1 n=64 v=122
29696 On ch=9 n=52 v=119
29697 On ch=9 n=50 v=0
29712 On ch=12 n=50 v=114
29718 On ch=2 n=40 v=0
29720 On ch=10 n=51 v=0
29723 On ch=12 n=48 v=0
29727 On ch=2 n=41 v=119
29728 On ch=1 n=65 v=122
29728 On ch=9 n=53 v=118
29734 On ch=10 n=35 v=0
29738 On ch=1 n=64 v=0
29741 On ch=9 n=52 v=0
29744 On ch=12 n=52 v=113
29745 On ch=12 n=50 v=0
29746 On ch=2 n=41 v=0
29751 On ch=1 n=65 v=0
29752 On ch=9 n=53 v=0
29759 On ch=2 n=43 v=125
29759 On ch=10 n=35 v=121
29759 On ch=10 n=51 v=122
29760 On ch=1 n=67 v=123
29760 On ch=9 n=55 v=122
29776 On ch=12 n=53 v=112
29789 On ch=12 n=52 v=0
29796 On ch=10 n=35 v=0
29800 On ch=12 n=53 v=0
29802 On ch=10 n=42 v=0
29808 On ch=12 n=55 v=117
29819 On ch=10 n=51 v=0
29823 On ch=9 n=55 v=0
29823 On ch=2 n=43 v=0
29823 On ch=2 n=35 v=125
29823 On ch=10 n=35 v=123
29824 On ch=1 n=67 v=0
29824 On ch=1 n=59 v=123
29824 On ch=9 n=47 v=121
29832 On ch=10 n=40 v=0
29855 On ch=10 n=40 v=123
29855 On ch=10 n=42 v=121
29855 On ch=10 n=51 v=122
29871 On ch=12 n=55 v=0
29872 On ch=12 n=47 v=115
29887 On ch=2 n=36 v=121
29888 On ch=1 n=60 v=123
29888 On ch=9 n=48 v=116
29892 On ch=1 n=59 v=0
29903 On ch=9 n=47 v=0
29905 On ch=2 n=35 v=0
29913 On ch=10 n=51 v=0
29914 On ch=10 n=35 v=0
29934 On ch=2 n=36 v=0
29936 On ch=12 n=48 v=109
29942 On ch=9 n=48 v=0
29943 On ch=1 n=60 v=0
29951 On ch=12 n=47 v=0
29951 On ch=2 n=37 v=119
29951 On ch=10 n=35 v=121
29951 On ch=10 n=51 v=122
29952 On ch=1 n=61 v=122
29952 On ch=9 n=49 v=117
29957 On ch=10 n=40 v=0
29972 On ch=10 n=35 v=0
29977 On ch=1 n=61 v=0
29980 On ch=2 n=37 v=0
29983 On ch=2 n=38 v=122
29983 On ch=10 n=40 v=122
29984 On ch=1 n=62 v=123
29990 On ch=12 n=48 v=0
29990 On ch=9 n=49 v=0
30000 On ch=12 n=49 v=110
30000 On ch=9 n=50 v=121
30005 On ch=10 n=40 v=0
30006 On ch=10 n=42 v=0
30007 On ch=10 n=51 v=0
30008 On ch=2 n=38 v=0
30013 On ch=1 n=62 v=0
30015 On ch=2 n=40 v=122
30015 On ch=10 n=40 v=121
30016 On ch=1 n=64 v=123
30029 On ch=10 n=40 v=0
30032 On ch=9 n=52 v=118
30038 On ch=12 n=49 v=0
30042 On ch=1 n=64 v=0
30042 On ch=9 n=50 v=0
30047 On ch=2 n=38 v=125
30047 On ch=10 n=42 v=121
30047 On ch=10 n=43 v=122
30047 On ch=10 n=51 v=123
30048 On ch=2 n=40 v=0
30048 On ch=1 n=62 v=123
30048 On ch=12 n=50 v=116
30048 On ch=9 n=50 v=114
30056 On ch=9 n=52 v=0
30066 On ch=10 n=43 v=0
30079 On ch=10 n=40 v=121
30080 On ch=12 n=52 v=112
30088 On ch=1 n=62 v=0
30090 On ch=12 n=50 v=0
30091 On ch=10 n=40 v=0
30096 On ch=12 n=50 v=107
30104 On ch=12 n=52 v=0
30111 On ch=10 n=45 v=123
30134 On ch=10 n=51 v=0
30136 On ch=10 n=42 v=0
30137 On ch=2 n=38 v=0
30138 On ch=9 n=50 v=0
30143 On ch=2 n=36 v=125
30143 On ch=10 n=35 v=124
30143 On ch=10 n=49 v=123
30144 On ch=1 n=60 v=123
30144 On ch=1 n=67 v=123
30144 On ch=1 n=72 v=123
30144 On ch=9 n=43 v=123
30144 On ch=9 n=48 v=121
30145 On ch=10 n=45 v=0
30184 On ch=2 n=36 v=0
30186 On ch=12 n=50 v=0
30187 On ch=10 n=35 v=0
30192 On ch=12 n=43 v=117
30192 On ch=12 n=48 v=115
30195 Pb ch=5 v=7424
30199 Pb ch=5 v=6144
30203 Pb ch=5 v=4608
30205 On ch=5 n=70 v=122
30207 On ch=2 n=36 v=119
30207 Pb ch=5 v=3072
30207 On ch=10 n=35 v=119
30211 Pb ch=5 v=3200
30216 Pb ch=5 v=4480
30221 Pb ch=5 v=7040
30224 On ch=2 n=36 v=0
30225 Pb ch=5 v=8192
30239 On ch=2 n=36 v=120
30239 On ch=10 n=40 v=123
30239 On ch=10 n=42 v=122
30239 On ch=10 n=46 v=122
30244 On ch=10 n=49 v=0
30261 On ch=5 n=70 v=0
30278 On ch=5 n=70 v=122
30289 On ch=2 n=36 v=0
30292 On ch=10 n=46 v=0
30293 On ch=10 n=35 v=0
30303 On ch=2 n=36 v=104
30315 On ch=2 n=36 v=0
30321 On ch=5 n=70 v=0
30335 On ch=2 n=36 v=114
30335 On ch=10 n=35 v=122
30335 On ch=10 n=46 v=122
30346 On ch=5 n=70 v=123
30347 On ch=10 n=42 v=0
30347 Pb ch=5 v=6144
30351 Pb ch=5 v=3584
30355 Pb ch=5 v=2304
30361 Pb ch=5 v=3328
30366 Pb ch=5 v=8192
30370 On ch=10 n=35 v=0
30370 Pb ch=5 v=8192
30383 On ch=2 n=36 v=0
30399 On ch=2 n=36 v=119
30399 On ch=10 n=35 v=120
30405 On ch=10 n=40 v=0
30408 On ch=5 n=69 v=119
30411 On ch=2 n=36 v=0
30411 On ch=5 n=70 v=0
30417 On ch=10 n=46 v=0
30431 On ch=2 n=36 v=122
30431 On ch=10 n=40 v=123
30431 On ch=10 n=42 v=122
30431 On ch=10 n=46 v=122
30454 On ch=5 n=69 v=0
30471 On ch=5 n=69 v=118
30482 On ch=2 n=36 v=0
30483 On ch=10 n=46 v=0
30493 On ch=10 n=35 v=0
30495 On ch=2 n=36 v=110
30509 On ch=2 n=36 v=0
30511 On ch=5 n=69 v=0
30523 Pb ch=5 v=7552
30525 On ch=10 n=42 v=0
30527 On ch=2 n=36 v=116
30527 Pb ch=5 v=5632
30527 On ch=10 n=35 v=118
30527 On ch=10 n=46 v=122
30531 Pb ch=5 v=3584
30532 On ch=5 n=69 v=122
30536 Pb ch=5 v=3584
30541 Pb ch=5 v=5376
30545 Pb ch=5 v=8192
30561 On ch=10 n=35 v=0
30572 On ch=2 n=36 v=0
30578 On ch=10 n=46 v=0
30591 On ch=2 n=36 v=120
30591 On ch=10 n=35 v=121
30594 On ch=5 n=69 v=0
30596 On ch=10 n=40 v=0
30599 On ch=5 n=67 v=123
30608 On ch=2 n=36 v=0
30615 On ch=1 n=72 v=0
30623 On ch=2 n=36 v=121
30623 On ch=10 n=40 v=123
30623 On ch=10 n=46 v=123
30638 On ch=1 n=67 v=0
30642 On ch=5 n=67 v=0
30658 On ch=2 n=36 v=0
30661 On ch=5 n=67 v=122
30684 On ch=10 n=35 v=0
30687 On ch=2 n=36 v=116
30688 On ch=1 n=60 v=0
30690 On ch=10 n=46 v=0
30695 On ch=5 n=67 v=0
30710 Pb ch=5 v=5888
30715 On ch=5 n=67 v=120
30715 Pb ch=5 v=2560
30717 On ch=2 n=36 v=0
30719 On ch=2 n=29 v=125
30719 Pb ch=5 v=0
30719 On ch=10 n=35 v=123
30719 On ch=10 n=46 v=123
30720 On ch=1 n=60 v=123
30720 On ch=1 n=65 v=123
30720 On ch=1 n=69 v=123
30720 On ch=1 n=72 v=123
30720 On ch=9 n=41 v=121
30724 Pb ch=5 v=128
30727 On ch=9 n=43 v=0
30728 Pb ch=5 v=2560
30732 Pb ch=5 v=6784
30736 Pb ch=5 v=8192
30740 Pb ch=5 v=8192
30744 On ch=10 n=35 v=0
30768 On ch=12 n=41 v=115
30775 On ch=12 n=43 v=0
30781 On ch=10 n=40 v=0
30783 On ch=10 n=35 v=122
30787 On ch=10 n=46 v=0
30802 On ch=2 n=29 v=0
30808 On ch=5 n=67 v=0
30813 On ch=5 n=65 v=123
30815 On ch=2 n=29 v=125
30815 On ch=10 n=40 v=123
30815 On ch=10 n=46 v=123
30878 On ch=1 n=72 v=0
30880 On ch=10 n=35 v=0
30885 On ch=10 n=46 v=0
30889 On ch=1 n=65 v=0
30895 On ch=1 n=69 v=0
30901 On ch=1 n=60 v=0
30902 Pb ch=5 v=5376
30905 On ch=9 n=41 v=0
30905 On ch=2 n=29 v=0
30905 On ch=5 n=65 v=0
30906 Pb ch=5 v=2304
30908 On ch=5 n=64 v=123
30910 Pb ch=5 v=0
30911 On ch=9 n=48 v=0
30911 On ch=2 n=36 v=123
30911 On ch=10 n=35 v=123
30911 On ch=10 n=46 v=123
30912 On ch=1 n=60 v=123
30912 On ch=1 n=64 v=123
30912 On ch=1 n=67 v=123
30912 On ch=1 n=72 v=123
30912 On ch=9 n=43 v=117
30912 On ch=9 n=48 v=122
30917 On ch=9 n=48 v=0
30927 Pb ch=5 v=384
30931 Pb ch=5 v=4992
30936 Pb ch=5 v=9752
30940 Pb ch=5 v=6272
30944 On ch=10 n=35 v=0
30944 Pb ch=5 v=8842
30948 Pb ch=5 v=8192
30951 On ch=2 n=36 v=0
30953 On ch=12 n=41 v=0
30959 On ch=12 n=48 v=0
30960 On ch=12 n=43 v=110
30960 On ch=12 n=48 v=117
30965 On ch=12 n=48 v=0
30969 On ch=10 n=40 v=0
30975 On ch=2 n=36 v=111
30975 On ch=10 n=35 v=121
30978 On ch=5 n=64 v=0
30982 On ch=10 n=46 v=0
30983 On ch=5 n=65 v=123
30993 On ch=2 n=36 v=0
31007 On ch=2 n=36 v=112
31007 On ch=10 n=40 v=123
31007 On ch=10 n=46 v=122
31008 On ch=5 n=65 v=0
31016 On ch=5 n=67 v=122
31017 On ch=5 n=65 v=113
31024 On ch=5 n=65 v=0
31039 On ch=2 n=36 v=0
31067 On ch=10 n=35 v=0
31071 On ch=2 n=36 v=121
31083 On ch=10 n=46 v=0
31092 On ch=2 n=36 v=0
31103 On ch=2 n=36 v=115
31103 On ch=10 n=35 v=123
31103 On ch=10 n=46 v=122
31117 Par ch=5 c=1 v=11
31126 Par ch=5 c=1 v=35
31134 On ch=10 n=35 v=0
31134 Par ch=5 c=1 v=53
31142 Par ch=5 c=1 v=75
31149 On ch=2 n=36 v=0
31150 Par ch=5 c=1 v=96
31158 Par ch=5 c=1 v=110
31167 On ch=2 n=36 v=114
31167 Par ch=5 c=1 v=124
31167 On ch=10 n=35 v=123
31178 Par ch=5 c=1 v=127
31179 On ch=10 n=40 v=0
31180 On ch=10 n=46 v=0
31184 On ch=2 n=36 v=0
31199 On ch=2 n=36 v=119
31199 On ch=10 n=40 v=123
31199 On ch=10 n=46 v=122
31233 On ch=10 n=35 v=0
31245 On ch=2 n=36 v=0
31254 On ch=1 n=67 v=0
31262 On ch=1 n=64 v=0
31263 On ch=2 n=36 v=110
31263 Par ch=5 c=1 v=121
31263 On ch=10 n=35 v=123
31272 Par ch=5 c=1 v=108
31276 On ch=1 n=60 v=0
31279 On ch=10 n=35 v=0
31280 Par ch=5 c=1 v=89
31281 On ch=10 n=46 v=0
31282 On ch=1 n=72 v=0
31284 On ch=5 n=67 v=0
31285 On ch=9 n=43 v=0
31288 Par ch=5 c=1 v=51
31295 On ch=2 n=31 v=120
31295 On ch=10 n=35 v=123
31295 On ch=10 n=46 v=122
31296 On ch=1 n=55 v=122
31296 On ch=1 n=67 v=123
31296 Par ch=5 c=1 v=0
31296 On ch=9 n=43 v=118
31297 On ch=10 n=40 v=0
31298 On ch=2 n=36 v=0
31315 On ch=10 n=35 v=0
31319 On ch=2 n=31 v=0
31327 On ch=2 n=34 v=120
31327 On ch=10 n=40 v=123
31328 On ch=1 n=58 v=122
31328 On ch=1 n=70 v=122
31328 On ch=9 n=46 v=120
31332 On ch=1 n=67 v=0
31333 On ch=12 n=43 v=0
31335 On ch=1 n=55 v=0
31337 On ch=9 n=43 v=0
31343 On ch=10 n=40 v=0
31344 On ch=12 n=43 v=112
31351 On ch=2 n=34 v=0
31355 On ch=1 n=70 v=0
31356 On ch=9 n=46 v=0
31359 On ch=2 n=36 v=114
31359 On ch=10 n=40 v=122
31360 On ch=1 n=60 v=122
31360 On ch=1 n=72 v=122
31360 On ch=9 n=48 v=121
31364 On ch=1 n=58 v=0
31370 On ch=10 n=46 v=0
31375 On ch=2 n=36 v=0
31376 On ch=12 n=46 v=114
31377 On ch=10 n=40 v=0
31378 On ch=1 n=72 v=0
31381 On ch=1 n=60 v=0
31384 On ch=9 n=48 v=0
31385 On ch=12 n=43 v=0
31391 On ch=2 n=36 v=124
31391 On ch=10 n=40 v=122
31391 On ch=10 n=46 v=122
31392 On ch=1 n=60 v=117
31392 On ch=1 n=72 v=123
31392 On ch=9 n=48 v=121
31404 On ch=12 n=46 v=0
31408 On ch=12 n=48 v=115
31416 On ch=10 n=40 v=0
31422 On ch=2 n=36 v=0
31423 On ch=2 n=34 v=123
31423 On ch=10 n=35 v=123
31424 On ch=1 n=58 v=123
31424 On ch=1 n=70 v=123
31424 On ch=9 n=46 v=119
31427 On ch=1 n=72 v=0
31428 On ch=9 n=48 v=0
31432 On ch=12 n=48 v=0
31432 On ch=1 n=60 v=0
31440 On ch=12 n=48 v=115
31443 On ch=10 n=46 v=0
31444 On ch=2 n=34 v=0
31447 On ch=1 n=70 v=0
31450 On ch=9 n=46 v=0
31455 On ch=2 n=39 v=125
31455 On ch=10 n=40 v=124
31455 On ch=10 n=49 v=124
31456 On ch=1 n=63 v=123
31456 On ch=1 n=67 v=123
31456 On ch=1 n=70 v=123
31456 On ch=1 n=75 v=122
31456 On ch=9 n=51 v=121
31458 On ch=1 n=58 v=0
31471 On ch=10 n=35 v=0
31472 On ch=12 n=46 v=113
31476 On ch=12 n=48 v=0
31487 On ch=10 n=40 v=0
31498 On ch=12 n=46 v=0
31504 On ch=12 n=51 v=115
31529 Par ch=5 c=1 v=2
31549 Par ch=5 c=1 v=0
31615 On ch=2 n=34 v=123
31615 On ch=10 n=40 v=123
31620 On ch=2 n=39 v=0
31635 On ch=10 n=40 v=0
31637 On ch=2 n=34 v=0
31644 On ch=1 n=67 v=0
31647 On ch=2 n=35 v=121
31647 On ch=10 n=40 v=123
31660 On ch=1 n=70 v=0
31660 On ch=1 n=63 v=0
31662 On ch=1 n=75 v=0
31664 On ch=10 n=49 v=0
31668 On ch=10 n=40 v=0
31669 On ch=2 n=35 v=0
31679 On ch=2 n=36 v=120
31679 On ch=10 n=35 v=124
31679 On ch=10 n=49 v=122
31680 On ch=1 n=60 v=123
31680 On ch=1 n=67 v=123
31680 On ch=1 n=72 v=123
31680 On ch=9 n=43 v=124
31680 On ch=9 n=48 v=122
31685 On ch=9 n=51 v=0
31708 Pb ch=5 v=7552
31712 Pb ch=5 v=6912
31717 Pb ch=5 v=5760
31721 Pb ch=5 v=5248
31726 On ch=2 n=36 v=0
31728 Pb ch=5 v=5760
31728 On ch=12 n=43 v=119
31728 On ch=12 n=48 v=117
31731 On ch=10 n=35 v=0
31732 Pb ch=5 v=8192
31733 On ch=12 n=51 v=0
31735 On ch=5 n=70 v=123
31743 On ch=2 n=36 v=116
31743 On ch=10 n=35 v=122
31754 On ch=2 n=36 v=0
31775 On ch=2 n=36 v=119
31775 On ch=10 n=40 v=124
31775 On ch=10 n=46 v=122
31779 On ch=5 n=70 v=0
31779 On ch=10 n=49 v=0
31803 On ch=5 n=70 v=120
31821 On ch=2 n=36 v=0
31823 On ch=10 n=35 v=0
31839 On ch=2 n=36 v=111
31839 On ch=10 n=35 v=121
31844 On ch=5 n=70 v=0
31853 On ch=10 n=46 v=0
31854 On ch=10 n=35 v=0
31859 On ch=2 n=36 v=0
31861 Pb ch=5 v=7808
31865 Pb ch=5 v=6656
31869 Pb ch=5 v=5248
31871 On ch=2 n=36 v=113
31871 On ch=10 n=35 v=120
31871 On ch=10 n=46 v=122
31873 Pb ch=5 v=4480
31874 On ch=5 n=70 v=122
31877 Pb ch=5 v=4480
31881 Pb ch=5 v=7552
31885 Pb ch=5 v=8192
31916 On ch=2 n=36 v=0
31921 On ch=10 n=35 v=0
31935 On ch=2 n=36 v=115
31935 On ch=10 n=35 v=121
31941 On ch=5 n=69 v=119
31944 On ch=5 n=70 v=0
31948 On ch=10 n=40 v=0
31952 On ch=10 n=46 v=0
31953 On ch=2 n=36 v=0
31967 On ch=2 n=36 v=114
31967 On ch=10 n=40 v=123
31967 On ch=10 n=46 v=122
31989 On ch=5 n=69 v=0
31992 On ch=2 n=36 v=0
31999 On ch=2 n=34 v=119
32004 On ch=10 n=35 v=0
32016 On ch=5 n=69 v=123
32017 On ch=2 n=34 v=0
32025 On ch=5 n=67 v=81
32031 On ch=2 n=35 v=112
32031 On ch=10 n=35 v=116
32035 On ch=5 n=67 v=0
32045 On ch=2 n=35 v=0
32050 On ch=10 n=46 v=0
32050 On ch=10 n=35 v=0
32053 On ch=5 n=69 v=0
32062 Pb ch=5 v=7808
32063 On ch=2 n=36 v=123
32063 On ch=10 n=35 v=123
32063 On ch=10 n=46 v=122
32066 Pb ch=5 v=6784
32070 Pb ch=5 v=5632
32074 Pb ch=5 v=4480
32075 On ch=5 n=69 v=120
32078 Pb ch=5 v=4352
32082 Pb ch=5 v=7552
32086 Pb ch=5 v=8192
32090 Pb ch=5 v=8192
32109 On ch=2 n=36 v=0
32113 On ch=10 n=35 v=0
32127 On ch=2 n=36 v=112
32127 On ch=10 n=35 v=121
32131 On ch=10 n=40 v=0
32138 On ch=5 n=67 v=122
32143 On ch=5 n=69 v=0
32145 On ch=10 n=46 v=0
32146 On ch=2 n=36 v=0
32159 On ch=2 n=36 v=116
32159 On ch=10 n=40 v=123
32159 On ch=10 n=46 v=122
32179 On ch=5 n=67 v=0
32195 On ch=5 n=67 v=120
32200 On ch=10 n=35 v=0
32205 On ch=2 n=36 v=0
32223 On ch=2 n=36 v=122
32223 On ch=10 n=35 v=121
32228 On ch=1 n=72 v=0
32232 On ch=1 n=67 v=0
32238 On ch=1 n=60 v=0
32240 On ch=9 n=43 v=0
32240 On ch=10 n=46 v=0
32241 On ch=10 n=35 v=0
32243 On ch=5 n=67 v=0
32251 On ch=2 n=36 v=0
32251 Pb ch=5 v=7424
32255 On ch=2 n=29 v=123
32255 Pb ch=5 v=5632
32255 On ch=10 n=35 v=121
32255 On ch=10 n=46 v=122
32256 On ch=1 n=53 v=122
32256 On ch=1 n=60 v=123
32256 On ch=1 n=65 v=123
32256 On ch=1 n=69 v=123
32256 On ch=1 n=72 v=123
32256 On ch=9 n=41 v=121
32260 Pb ch=5 v=4096
32263 On ch=5 n=67 v=122
32264 Pb ch=5 v=3200
32270 Pb ch=5 v=3328
32274 Pb ch=5 v=6528
32278 Pb ch=5 v=8842
32282 Pb ch=5 v=8192
32288 On ch=12 n=43 v=0
32294 On ch=10 n=35 v=0
32304 On ch=2 n=29 v=0
32304 On ch=12 n=41 v=115
32319 On ch=2 n=29 v=119
32319 On ch=10 n=35 v=122
32325 On ch=10 n=40 v=0
32335 On ch=10 n=46 v=0
32343 On ch=2 n=29 v=0
32350 On ch=10 n=35 v=0
32351 On ch=2 n=29 v=123
32351 On ch=10 n=40 v=123
32351 On ch=10 n=46 v=122
32352 On ch=5 n=67 v=0
32357 On ch=5 n=65 v=123
32375 On ch=10 n=40 v=0
32383 On ch=10 n=40 v=122
32391 On ch=1 n=53 v=0
32395 On ch=2 n=29 v=0
32406 On ch=10 n=40 v=0
32407 On ch=1 n=65 v=0
32415 On ch=2 n=29 v=112
32415 On ch=10 n=40 v=121
32420 On ch=1 n=72 v=0
32422 On ch=1 n=69 v=0
32424 On ch=1 n=60 v=0
32436 On ch=9 n=41 v=0
32438 On ch=2 n=29 v=0
32438 Pb ch=5 v=7552
32439 On ch=5 n=65 v=0
32439 On ch=10 n=46 v=0
32442 Pb ch=5 v=5120
32446 Pb ch=5 v=2304
32447 On ch=2 n=34 v=122
32447 On ch=5 n=70 v=123
32447 On ch=10 n=35 v=123
32447 On ch=10 n=49 v=122
32448 On ch=1 n=58 v=123
32448 On ch=1 n=62 v=123
32448 On ch=1 n=65 v=123
32448 On ch=1 n=70 v=123
32448 On ch=1 n=74 v=123
32448 On ch=9 n=46 v=121
32448 On ch=9 n=53 v=121
32451 Pb ch=5 v=0
32458 Pb ch=5 v=4352
32462 Pb ch=5 v=8842
32465 On ch=9 n=48 v=0
32467 Pb ch=5 v=8192
32484 On ch=2 n=34 v=0
32484 On ch=12 n=41 v=0
32496 On ch=12 n=46 v=116
32496 On ch=12 n=53 v=116
32500 On ch=10 n=35 v=0
32511 On ch=2 n=34 v=118
32511 On ch=10 n=35 v=121
32513 On ch=12 n=48 v=0
32519 On ch=10 n=40 v=0
32529 On ch=5 n=70 v=0
32531 On ch=5 n=67 v=122
32533 On ch=10 n=49 v=0
32536 On ch=2 n=34 v=0
32543 On ch=2 n=34 v=121
32543 On ch=10 n=40 v=124
32543 On ch=10 n=46 v=123
32555 On ch=5 n=67 v=0
32557 On ch=5 n=65 v=123
32580 On ch=10 n=35 v=0
32584 On ch=2 n=34 v=0
32607 On ch=2 n=34 v=121
32607 On ch=10 n=35 v=120
32624 On ch=10 n=35 v=0
32625 On ch=10 n=46 v=0
32632 On ch=2 n=34 v=0
32639 On ch=2 n=34 v=121
32639 On ch=10 n=35 v=121
32639 On ch=10 n=46 v=122
32651 Pb ch=5 v=7424
32655 Pb ch=5 v=6400
32659 Pb ch=5 v=5632
32663 Pb ch=5 v=5504
32667 Pb ch=5 v=5760
32670 On ch=2 n=34 v=0
32671 Pb ch=5 v=6272
32675 Pb ch=5 v=8192
32678 On ch=10 n=35 v=0
32703 On ch=2 n=34 v=121
32703 On ch=10 n=35 v=123
32712 On ch=10 n=40 v=0
32719 On ch=10 n=46 v=0
32724 On ch=2 n=34 v=0
32735 On ch=2 n=34 v=124
32735 On ch=10 n=40 v=123
32735 On ch=10 n=46 v=123
32754 On ch=10 n=35 v=0
32758 On ch=2 n=34 v=0
32767 On ch=2 n=34 v=122
32767 On ch=10 n=43 v=121
32770 On ch=10 n=40 v=0
32789 On ch=2 n=34 v=0
32790 On ch=1 n=65 v=0
32799 On ch=1 n=62 v=0
32799 On ch=2 n=33 v=120
32799 On ch=10 n=45 v=121
32802 On ch=1 n=74 v=0
32804 On ch=10 n=43 v=0
32817 On ch=1 n=70 v=0
32818 On ch=10 n=46 v=0
32827 On ch=9 n=46 v=0
32830 On ch=2 n=33 v=0
32830 On ch=9 n=53 v=0
32831 On ch=5 n=65 v=0
32831 On ch=2 n=31 v=123
32831 Pb ch=5 v=4224
32831 On ch=10 n=35 v=124
32831 On ch=10 n=49 v=122
32832 On ch=1 n=55 v=122
32832 On ch=1 n=62 v=123
32832 On ch=1 n=67 v=123
32832 On ch=1 n=70 v=123
32832 On ch=1 n=74 v=123
32832 On ch=9 n=43 v=120
32832 On ch=9 n=50 v=122
32835 Pb ch=5 v=2304
32837 On ch=1 n=58 v=0
32839 Pb ch=5 v=512
32841 On ch=5 n=70 v=122
32844 On ch=5 n=69 v=115
32845 Pb ch=5 v=768
32850 Pb ch=5 v=3968
32855 Pb ch=5 v=9102
32859 On ch=5 n=69 v=0
32860 Pb ch=5 v=8192
32864 Pb ch=5 v=8192
32869 On ch=10 n=45 v=0
32875 On ch=12 n=46 v=0
32877 On ch=10 n=35 v=0
32878 On ch=12 n=53 v=0
32880 On ch=12 n=43 v=114
32880 On ch=12 n=50 v=117
32882 On ch=2 n=31 v=0
32895 On ch=2 n=31 v=121
32895 On ch=10 n=35 v=123
32911 On ch=2 n=31 v=0
32923 On ch=10 n=49 v=0
32927 On ch=2 n=31 v=119
32927 On ch=10 n=40 v=124
32927 On ch=10 n=46 v=123
32942 On ch=10 n=35 v=0
32971 On ch=2 n=31 v=0
32991 On ch=2 n=31 v=117
32991 On ch=10 n=35 v=121
33009 On ch=10 n=46 v=0
33010 On ch=10 n=35 v=0
33012 On ch=2 n=31 v=0
33023 On ch=2 n=31 v=119
33023 On ch=10 n=35 v=121
33023 On ch=10 n=46 v=122
33065 On ch=2 n=31 v=0
33069 On ch=10 n=35 v=0
33087 On ch=2 n=31 v=116
33087 On ch=10 n=35 v=123
33090 On ch=10 n=46 v=0
33104 On ch=10 n=40 v=0
33108 On ch=2 n=31 v=0
33119 On ch=2 n=31 v=115
33119 On ch=10 n=40 v=124
33119 On ch=10 n=46 v=122
33131 On ch=10 n=35 v=0
33144 On ch=2 n=31 v=0
33151 On ch=2 n=34 v=115
33156 On ch=1 n=74 v=0
33176 On ch=2 n=34 v=0
33182 On ch=1 n=67 v=0
33183 On ch=2 n=35 v=112
33183 On ch=10 n=35 v=121
33185 On ch=1 n=70 v=0
33191 On ch=1 n=55 v=0
33194 On ch=1 n=62 v=0
33198 On ch=10 n=46 v=0
33201 On ch=9 n=43 v=0
33203 On ch=10 n=35 v=0
33209 On ch=2 n=35 v=0
33215 On ch=2 n=36 v=119
33215 On ch=10 n=35 v=122
33215 On ch=10 n=49 v=123
33216 On ch=1 n=60 v=123
33216 On ch=1 n=64 v=123
33216 On ch=1 n=67 v=123
33216 On ch=1 n=72 v=123
33216 On ch=1 n=76 v=123
33216 On ch=9 n=48 v=120
33218 On ch=5 n=69 v=116
33226 On ch=9 n=50 v=0
33228 On ch=5 n=70 v=0
33249 On ch=12 n=43 v=0
33264 On ch=10 n=35 v=0
33264 On ch=12 n=48 v=114
33266 On ch=2 n=36 v=0
33274 On ch=12 n=50 v=0
33279 On ch=2 n=36 v=120
33279 On ch=10 n=35 v=121
33280 On ch=10 n=40 v=0
33293 On ch=2 n=36 v=0
33304 On ch=10 n=49 v=0
33307 On ch=5 n=69 v=0
33307 On ch=5 n=67 v=123
33311 On ch=2 n=36 v=113
33311 On ch=10 n=40 v=123
33311 On ch=10 n=46 v=122
33325 On ch=10 n=35 v=0
33356 On ch=2 n=36 v=0
33375 On ch=2 n=36 v=114
33375 On ch=10 n=35 v=121
33377 On ch=10 n=46 v=0
33393 On ch=2 n=36 v=0
33395 On ch=10 n=35 v=0
33407 On ch=2 n=36 v=118
33407 On ch=10 n=35 v=121
33407 On ch=10 n=46 v=122
33449 On ch=10 n=35 v=0
33449 On ch=2 n=36 v=0
33464 Pb ch=5 v=8192
33468 Pb ch=5 v=10662
33471 On ch=2 n=36 v=104
33471 On ch=10 n=35 v=121
33472 Pb ch=5 v=12092
33475 On ch=10 n=46 v=0
33476 Pb ch=5 v=13782
33481 Pb ch=5 v=15602
33485 On ch=2 n=36 v=0
33485 On ch=10 n=40 v=0
33485 Pb ch=5 v=16382
33503 On ch=2 n=36 v=112
33503 On ch=10 n=40 v=124
33503 On ch=10 n=46 v=122
33507 Pb ch=5 v=15602
33511 Pb ch=5 v=12872
33515 Pb ch=5 v=8192
33540 On ch=10 n=35 v=0
33554 On ch=1 n=64 v=0
33555 On ch=2 n=36 v=0
33567 On ch=2 n=36 v=121
33567 On ch=10 n=35 v=122
33568 On ch=5 n=67 v=0
33569 On ch=1 n=67 v=0
33581 On ch=10 n=46 v=0
33584 On ch=1 n=76 v=0
33586 On ch=10 n=35 v=0
33587 On ch=1 n=72 v=0
33599 On ch=2 n=36 v=0
33599 On ch=2 n=31 v=123
33599 On ch=10 n=35 v=121
33599 On ch=10 n=46 v=122
33600 On ch=1 n=60 v=0
33600 On ch=1 n=55 v=123
33600 On ch=1 n=62 v=123
33600 On ch=1 n=65 v=123
33600 On ch=1 n=70 v=123
33600 On ch=1 n=74 v=123
33600 On ch=9 n=43 v=122
33600 On ch=9 n=46 v=120
33611 On ch=9 n=48 v=0
33637 On ch=2 n=31 v=0
33647 On ch=10 n=35 v=0
33648 On ch=12 n=43 v=117
33648 On ch=12 n=46 v=114
33651 Pb ch=5 v=7808
33656 Pb ch=5 v=4992
33659 On ch=12 n=48 v=0
33660 Pb ch=5 v=2560
33663 On ch=2 n=31 v=92
33663 On ch=5 n=70 v=122
33663 On ch=10 n=35 v=121
33664 On ch=10 n=46 v=0
33664 Pb ch=5 v=0
33670 Pb ch=5 v=512
33671 On ch=10 n=40 v=0
33674 Pb ch=5 v=6272
33678 Pb ch=5 v=10402
33680 On ch=2 n=31 v=0
33682 Pb ch=5 v=6272
33686 Pb ch=5 v=8452
33690 Pb ch=5 v=8192
33695 On ch=2 n=31 v=122
33695 On ch=10 n=40 v=123
33695 On ch=10 n=46 v=122
33715 On ch=5 n=70 v=0
33731 On ch=10 n=35 v=0
33731 On ch=5 n=70 v=123
33734 On ch=2 n=31 v=0
33759 On ch=2 n=31 v=115
33759 On ch=10 n=35 v=120
33765 On ch=10 n=46 v=0
33779 On ch=10 n=35 v=0
33779 On ch=2 n=31 v=0
33784 On ch=5 n=70 v=0
33788 Pb ch=5 v=7808
33791 On ch=2 n=31 v=118
33791 On ch=10 n=35 v=121
33791 On ch=10 n=46 v=122
33792 Pb ch=5 v=6144
33796 Pb ch=5 v=4736
33800 On ch=5 n=70 v=123
33800 Pb ch=5 v=3712
33809 Pb ch=5 v=7040
33813 Pb ch=5 v=8192
33817 Pb ch=5 v=8192
33830 On ch=2 n=31 v=0
33832 On ch=10 n=35 v=0
33843 On ch=5 n=70 v=0
33855 On ch=2 n=31 v=114
33855 On ch=10 n=35 v=121
33860 On ch=10 n=46 v=0
33861 On ch=5 n=70 v=119
33865 On ch=10 n=40 v=0
33873 On ch=2 n=31 v=0
33887 On ch=2 n=31 v=120
33887 On ch=10 n=40 v=124
33887 On ch=10 n=46 v=122
33907 On ch=5 n=70 v=0
33913 On ch=2 n=31 v=0
33919 On ch=2 n=34 v=119
33925 On ch=5 n=70 v=122
33926 On ch=10 n=35 v=0
33938 On ch=1 n=65 v=0
33943 On ch=2 n=34 v=0
33951 On ch=2 n=35 v=106
33951 On ch=10 n=35 v=121
33961 On ch=10 n=46 v=0
33964 On ch=9 n=43 v=0
33965 On ch=1 n=55 v=0
33966 On ch=1 n=74 v=0
33970 On ch=1 n=70 v=0
33971 On ch=10 n=35 v=0
33974 On ch=1 n=62 v=0
33975 On ch=2 n=35 v=0
33976 On ch=9 n=46 v=0
33983 On ch=2 n=36 v=120
33983 On ch=10 n=35 v=123
33983 On ch=10 n=46 v=122
33984 On ch=1 n=60 v=123
33984 On ch=1 n=64 v=123
33984 On ch=1 n=67 v=123
33984 On ch=1 n=72 v=123
33984 On ch=1 n=76 v=123
33984 On ch=9 n=43 v=120
33984 On ch=9 n=48 v=118
33990 On ch=5 n=69 v=120
33992 On ch=5 n=70 v=0
34012 On ch=12 n=43 v=0
34024 On ch=12 n=46 v=0
34026 On ch=2 n=36 v=0
34026 On ch=10 n=35 v=0
34032 On ch=12 n=43 v=114
34032 On ch=12 n=48 v=112
34047 On ch=2 n=36 v=112
34047 On ch=10 n=35 v=121
34052 On ch=10 n=46 v=0
34054 On ch=10 n=40 v=0
34064 On ch=2 n=36 v=0
34076 Pb ch=5 v=7808
34079 On ch=2 n=36 v=118
34079 On ch=10 n=40 v=123
34079 On ch=10 n=46 v=122
34080 Pb ch=5 v=6528
34084 On ch=5 n=69 v=0
34084 Pb ch=5 v=5888
34085 On ch=5 n=67 v=123
34088 Pb ch=5 v=6016
34092 Pb ch=5 v=8192
34113 On ch=10 n=35 v=0
34120 On ch=2 n=36 v=0
34143 On ch=2 n=36 v=115
34143 On ch=10 n=35 v=123
34150 On ch=10 n=46 v=0
34160 On ch=2 n=36 v=0
34163 On ch=10 n=35 v=0
34175 On ch=2 n=36 v=116
34175 On ch=10 n=35 v=122
34175 On ch=10 n=46 v=121
34214 On ch=10 n=35 v=0
34215 On ch=2 n=36 v=0
34238 Pb ch=5 v=10402
34239 On ch=2 n=36 v=114
34239 On ch=10 n=35 v=123
34241 On ch=10 n=46 v=0
34242 Pb ch=5 v=11832
34246 Pb ch=5 v=12872
34250 On ch=10 n=40 v=0
34250 Pb ch=5 v=12872
34254 Pb ch=5 v=11312
34255 On ch=5 n=67 v=0
34258 Pb ch=5 v=8192
34262 Pb ch=5 v=8192
34263 On ch=2 n=36 v=0
34271 On ch=2 n=36 v=118
34271 On ch=10 n=40 v=123
34271 On ch=10 n=46 v=121
34286 On ch=10 n=35 v=0
34304 On ch=2 n=36 v=0
34335 On ch=2 n=36 v=113
34335 On ch=10 n=35 v=123
34337 On ch=1 n=67 v=0
34346 On ch=1 n=76 v=0
34348 On ch=1 n=64 v=0
34351 On ch=1 n=72 v=0
34355 On ch=10 n=35 v=0
34356 On ch=10 n=46 v=0
34358 On ch=9 n=43 v=0
34363 On ch=1 n=60 v=0
34363 On ch=2 n=36 v=0
34363 On ch=5 n=65 v=123
34367 On ch=2 n=31 v=125
34367 On ch=10 n=35 v=124
34367 On ch=10 n=49 v=123
34368 On ch=1 n=55 v=121
34368 On ch=1 n=62 v=123
34368 On ch=1 n=65 v=123
34368 On ch=1 n=70 v=123
34368 On ch=1 n=74 v=123
34368 On ch=9 n=43 v=118
34368 On ch=9 n=46 v=121
34371 On ch=9 n=48 v=0
34406 On ch=12 n=43 v=0
34416 On ch=12 n=43 v=112
34416 On ch=12 n=46 v=115
34419 On ch=12 n=48 v=0
34420 On ch=5 n=65 v=0
34424 On ch=10 n=35 v=0
34431 On ch=5 n=65 v=120
34431 On ch=10 n=35 v=123
34446 On ch=10 n=40 v=0
34463 On ch=10 n=40 v=123
34463 On ch=10 n=46 v=122
34469 On ch=5 n=65 v=0
34473 On ch=10 n=35 v=0
34497 On ch=5 n=65 v=122
34505 On ch=1 n=65 v=0
34517 On ch=5 n=65 v=0
34527 On ch=10 n=35 v=124
34531 On ch=5 n=65 v=122
34534 On ch=10 n=46 v=0
34537 On ch=10 n=49 v=0
34541 On ch=5 n=64 v=81
34543 On ch=5 n=64 v=0
34544 On ch=1 n=70 v=0
34548 On ch=1 n=74 v=0
34549 On ch=9 n=43 v=0
34551 On ch=5 n=65 v=0
34554 On ch=1 n=55 v=0
34557 On ch=1 n=62 v=0
34559 On ch=2 n=31 v=0
34559 On ch=2 n=36 v=123
34559 On ch=10 n=49 v=123
34560 On ch=9 n=46 v=0
34560 On ch=1 n=60 v=123
34560 On ch=1 n=64 v=123
34560 On ch=1 n=67 v=123
34560 On ch=1 n=72 v=123
34560 On ch=1 n=76 v=122
34560 On ch=9 n=43 v=122
34560 On ch=9 n=48 v=118
34564 On ch=5 n=67 v=122
34568 Pb ch=5 v=6912
34572 Pb ch=5 v=3328
34577 Pb ch=5 v=0
34582 Pb ch=5 v=1920
34586 Pb ch=5 v=13652
34590 Pb ch=5 v=7424
34594 Pb ch=5 v=8192
34597 On ch=12 n=43 v=0
34598 Pb ch=5 v=9232
34602 Pb ch=5 v=7168
34606 Pb ch=5 v=8192
34608 On ch=12 n=46 v=0
34608 On ch=12 n=43 v=117
34608 On ch=12 n=48 v=112
34610 Pb ch=5 v=8192
34622 On ch=10 n=35 v=0
34623 On ch=10 n=35 v=123
34640 On ch=10 n=40 v=0
34655 On ch=10 n=40 v=123
34655 On ch=10 n=46 v=122
34701 On ch=10 n=35 v=0
34713 On ch=10 n=46 v=0
34716 On ch=10 n=49 v=0
34719 On ch=10 n=35 v=121
34722 On ch=1 n=67 v=0
34732 On ch=1 n=76 v=0
34735 On ch=9 n=43 v=0
34739 On ch=1 n=64 v=0
34739 On ch=10 n=35 v=0
34744 On ch=1 n=72 v=0
34751 On ch=2 n=36 v=0
34751 On ch=2 n=31 v=125
34751 On ch=10 n=35 v=122
34751 On ch=10 n=49 v=123
34752 On ch=1 n=60 v=0
34752 On ch=1 n=55 v=123
34752 On ch=1 n=62 v=123
34752 On ch=1 n=65 v=123
34752 On ch=1 n=70 v=123
34752 On ch=1 n=74 v=123
34752 On ch=9 n=43 v=119
34752 On ch=9 n=46 v=121
34757 On ch=9 n=48 v=0
34758 On ch=5 n=67 v=0
34759 On ch=5 n=65 v=118
34783 On ch=12 n=43 v=0
34800 On ch=12 n=43 v=113
34800 On ch=12 n=46 v=115
34805 On ch=12 n=48 v=0
34807 On ch=5 n=65 v=0
34809 On ch=10 n=35 v=0
34815 On ch=10 n=35 v=124
34821 On ch=5 n=65 v=119
34837 On ch=10 n=40 v=0
34847 On ch=10 n=35 v=0
34847 On ch=10 n=40 v=124
34847 On ch=10 n=46 v=122
34848 On ch=5 n=65 v=0
34867 On ch=5 n=65 v=122
34889 On ch=5 n=65 v=0
34895 On ch=10 n=40 v=0
34902 On ch=1 n=65 v=0
34902 On ch=5 n=65 v=122
34905 On ch=10 n=46 v=0
34913 On ch=10 n=49 v=0
34926 On ch=1 n=74 v=0
34929 On ch=1 n=70 v=0
34933 On ch=1 n=62 v=0
34934 On ch=1 n=55 v=0
34941 On ch=5 n=65 v=0
34943 On ch=2 n=31 v=0
34943 On ch=2 n=36 v=121
34943 On ch=10 n=35 v=123
34943 On ch=10 n=49 v=123
34944 On ch=1 n=60 v=123
34944 On ch=1 n=64 v=123
34944 On ch=1 n=67 v=123
34944 On ch=1 n=72 v=123
34944 On ch=1 n=76 v=121
34944 On ch=9 n=48 v=116
34945 On ch=9 n=46 v=0
34952 Pb ch=5 v=6400
34956 Pb ch=5 v=3712
34958 On ch=5 n=67 v=123
34962 Pb ch=5 v=6912
34966 Pb ch=5 v=8192
34975 On ch=10 n=35 v=0
34992 On ch=12 n=48 v=109
34993 On ch=12 n=46 v=0
35007 On ch=10 n=35 v=123
35020 On ch=5 n=65 v=123
35027 On ch=5 n=67 v=0
35029 On ch=10 n=35 v=0
35039 On ch=10 n=40 v=124
35039 On ch=10 n=46 v=122
35041 On ch=10 n=49 v=0
35066 On ch=10 n=46 v=0
35071 On ch=2 n=36 v=0
35071 On ch=10 n=35 v=124
35071 On ch=10 n=49 v=123
35076 On ch=5 n=65 v=0
35080 On ch=5 n=64 v=123
35087 On ch=10 n=40 v=0
35087 On ch=2 n=31 v=118
35097 On ch=1 n=64 v=0
35101 On ch=10 n=49 v=0
35103 On ch=10 n=35 v=0
35103 On ch=10 n=40 v=123
35103 On ch=10 n=46 v=123
35107 On ch=1 n=76 v=0
35110 On ch=1 n=67 v=0
35115 On ch=2 n=31 v=0
35123 On ch=1 n=72 v=0
35131 On ch=5 n=64 v=0
35134 On ch=1 n=60 v=0
35135 On ch=9 n=43 v=0
35135 On ch=2 n=41 v=124
35135 On ch=10 n=35 v=123
35135 On ch=10 n=49 v=123
35136 On ch=1 n=65 v=123
35136 On ch=1 n=77 v=123
35136 On ch=9 n=53 v=121
35140 On ch=5 n=65 v=122
35141 On ch=9 n=48 v=0
35166 On ch=10 n=46 v=0
35183 On ch=12 n=43 v=0
35183 On ch=10 n=35 v=0
35184 On ch=12 n=53 v=115
35189 On ch=12 n=48 v=0
35197 On ch=2 n=41 v=0
35198 On ch=1 n=65 v=0
35198 On ch=9 n=53 v=0
35198 On ch=1 n=77 v=0
35199 On ch=2 n=33 v=124
35199 On ch=10 n=35 v=121
35200 On ch=1 n=57 v=123
35200 On ch=1 n=69 v=123
35200 On ch=9 n=45 v=121
35206 On ch=10 n=40 v=0
35206 On ch=5 n=65 v=0
35206 On ch=5 n=62 v=120
35229 On ch=5 n=60 v=119
35231 On ch=10 n=40 v=123
35231 On ch=10 n=46 v=122
35239 On ch=5 n=62 v=0
35246 On ch=12 n=53 v=0
35248 On ch=12 n=45 v=116
35262 On ch=9 n=45 v=0
35262 On ch=2 n=33 v=0
35262 On ch=1 n=69 v=0
35262 On ch=1 n=57 v=0
35263 On ch=2 n=34 v=123
35264 On ch=1 n=58 v=122
35264 On ch=1 n=70 v=122
35264 On ch=9 n=46 v=120
35291 On ch=10 n=35 v=0
35310 On ch=12 n=45 v=0
35312 On ch=12 n=46 v=114
35314 On ch=10 n=46 v=0
35321 On ch=2 n=34 v=0
35326 On ch=1 n=70 v=0
35326 On ch=1 n=58 v=0
35326 On ch=9 n=46 v=0
35327 On ch=2 n=35 v=125
35327 On ch=10 n=35 v=123
35327 On ch=10 n=46 v=122
35328 On ch=1 n=59 v=123
35328 On ch=1 n=71 v=123
35328 On ch=9 n=47 v=122
35335 Pb ch=5 v=7808
35339 Pb ch=5 v=7424
35347 Pb ch=5 v=8192
35364 On ch=10 n=35 v=0
35374 On ch=12 n=46 v=0
35376 On ch=12 n=47 v=117
35386 On ch=2 n=35 v=0
35391 On ch=2 n=36 v=122
35391 On ch=10 n=35 v=121
35392 On ch=1 n=60 v=120
35392 On ch=1 n=72 v=120
35392 On ch=9 n=48 v=117
35393 On ch=10 n=40 v=0
35395 On ch=10 n=46 v=0
35400 On ch=1 n=71 v=0
35400 On ch=1 n=59 v=0
35400 On ch=9 n=47 v=0
35416 Pb ch=5 v=7296
35422 Pb ch=5 v=7552
35423 On ch=2 n=38 v=119
35423 On ch=10 n=40 v=123
35423 On ch=10 n=46 v=122
35424 On ch=1 n=62 v=121
35424 On ch=1 n=74 v=121
35424 On ch=9 n=50 v=118
35426 On ch=2 n=36 v=0
35427 Pb ch=5 v=8192
35432 On ch=1 n=60 v=0
35432 On ch=9 n=48 v=0
35432 On ch=1 n=72 v=0
35440 On ch=12 n=48 v=110
35448 On ch=12 n=47 v=0
35453 On ch=2 n=38 v=0
35455 On ch=2 n=40 v=120
35456 On ch=1 n=64 v=122
35456 On ch=1 n=76 v=122
35456 On ch=9 n=52 v=120
35457 On ch=9 n=50 v=0
35457 On ch=1 n=74 v=0
35457 On ch=1 n=62 v=0
35472 Pb ch=5 v=6400
35472 On ch=12 n=50 v=112
35476 Pb ch=5 v=4608
35480 On ch=12 n=48 v=0
35480 Pb ch=5 v=3456
35485 Pb ch=5 v=7424
35487 On ch=2 n=41 v=123
35488 On ch=1 n=65 v=123
35488 On ch=1 n=77 v=123
35488 On ch=9 n=53 v=121
35489 Pb ch=5 v=8192
35490 On ch=10 n=35 v=0
35493 On ch=10 n=46 v=0
35493 On ch=2 n=40 v=0
35499 On ch=1 n=64 v=0
35499 On ch=1 n=76 v=0
35499 On ch=9 n=52 v=0
35504 On ch=12 n=52 v=114
35505 On ch=12 n=50 v=0
35506 On ch=2 n=41 v=0
35511 On ch=1 n=77 v=0
35511 On ch=1 n=65 v=0
35511 On ch=9 n=53 v=0
35519 On ch=2 n=41 v=125
35519 On ch=10 n=35 v=123
35519 On ch=10 n=46 v=123
35520 On ch=1 n=65 v=123
35520 On ch=1 n=77 v=123
35520 On ch=9 n=53 v=121
35536 On ch=12 n=53 v=115
35538 On ch=5 n=59 v=109
35546 On ch=5 n=60 v=0
35547 On ch=12 n=52 v=0
35550 On ch=5 n=57 v=110
35552 On ch=5 n=59 v=0
35558 On ch=5 n=57 v=0
35559 On ch=12 n=53 v=0
35559 On ch=10 n=35 v=0
35561 On ch=5 n=55 v=104
35567 On ch=5 n=55 v=0
35568 On ch=12 n=53 v=115
35582 On ch=1 n=77 v=0
35582 On ch=1 n=65 v=0
35582 On ch=9 n=53 v=0
35583 On ch=2 n=33 v=125
35583 On ch=10 n=35 v=120
35584 On ch=1 n=57 v=123
35584 On ch=1 n=69 v=123
35584 On ch=9 n=45 v=121
35587 On ch=10 n=40 v=0
35588 On ch=2 n=41 v=0
35589 On ch=10 n=46 v=0
35615 On ch=10 n=40 v=123
35615 On ch=10 n=46 v=123
35630 On ch=12 n=53 v=0
35632 On ch=12 n=45 v=116
35648 On ch=1 n=58 v=122
35648 On ch=1 n=70 v=122
35648 On ch=9 n=46 v=120
35651 On ch=1 n=57 v=0
35651 On ch=1 n=69 v=0
35651 On ch=9 n=45 v=0
35654 On ch=2 n=33 v=0
35655 On ch=2 n=34 v=123
35672 On ch=10 n=35 v=0
35688 On ch=10 n=46 v=0
35696 On ch=12 n=46 v=114
35699 On ch=12 n=45 v=0
35707 On ch=1 n=58 v=0
35707 On ch=1 n=70 v=0
35707 On ch=9 n=46 v=0
35711 On ch=2 n=34 v=0
35711 On ch=10 n=49 v=0
35711 On ch=2 n=35 v=123
35711 On ch=10 n=35 v=121
35711 On ch=10 n=46 v=123
35712 On ch=1 n=59 v=122
35712 On ch=1 n=71 v=122
35712 On ch=9 n=47 v=120
35739 On ch=10 n=35 v=0
35743 On ch=2 n=36 v=119
35744 On ch=1 n=60 v=120
35744 On ch=1 n=72 v=120
35744 On ch=9 n=48 v=117
35746 On ch=2 n=35 v=0
35747 On ch=9 n=47 v=0
35747 On ch=1 n=71 v=0
35747 On ch=1 n=59 v=0
35755 On ch=12 n=46 v=0
35760 On ch=12 n=47 v=114
35770 On ch=2 n=36 v=0
35771 On ch=1 n=72 v=0
35771 On ch=9 n=48 v=0
35771 On ch=1 n=60 v=0
35775 On ch=2 n=38 v=124
35775 On ch=10 n=35 v=122
35776 On ch=1 n=62 v=123
35776 On ch=1 n=74 v=123
35776 On ch=9 n=50 v=122
35779 On ch=10 n=46 v=0
35784 On ch=10 n=40 v=0
35792 On ch=12 n=48 v=110
35795 On ch=12 n=47 v=0
35807 On ch=2 n=36 v=124
35807 On ch=10 n=40 v=123
35807 On ch=10 n=46 v=122
35808 On ch=1 n=60 v=123
35808 On ch=1 n=72 v=123
35808 On ch=9 n=48 v=122
35810 On ch=9 n=50 v=0
35810 On ch=1 n=74 v=0
35810 On ch=1 n=62 v=0
35815 On ch=2 n=38 v=0
35819 On ch=12 n=48 v=0
35824 On ch=12 n=50 v=117
35856 On ch=12 n=48 v=117
35858 On ch=12 n=50 v=0
35863 On ch=10 n=35 v=0
35877 On ch=10 n=46 v=0
35897 On ch=2 n=36 v=0
35897 On ch=9 n=48 v=0
35897 On ch=1 n=60 v=0
35897 On ch=1 n=72 v=0
35903 On ch=2 n=41 v=125
35903 On ch=10 n=35 v=123
35903 On ch=10 n=46 v=122
35904 On ch=1 n=65 v=123
35904 On ch=1 n=77 v=123
35904 On ch=9 n=53 v=122
35931 On ch=10 n=35 v=0
35945 On ch=12 n=48 v=0
35952 On ch=12 n=53 v=117
35967 On ch=2 n=33 v=125
35967 On ch=10 n=35 v=122
35968 On ch=1 n=57 v=123
35968 On ch=1 n=69 v=123
35968 On ch=9 n=45 v=122
35971 On ch=10 n=40 v=0
35971 On ch=2 n=41 v=0
35972 On ch=1 n=77 v=0
35972 On ch=9 n=53 v=0
35972 On ch=10 n=46 v=0
35972 On ch=1 n=65 v=0
35999 On ch=10 n=40 v=123
35999 On ch=10 n=46 v=122
36016 On ch=12 n=45 v=117
36020 On ch=12 n=53 v=0
36031 On ch=2 n=34 v=120
36032 On ch=1 n=58 v=123
36032 On ch=1 n=70 v=123
36032 On ch=9 n=46 v=121
36034 On ch=1 n=69 v=0
36034 On ch=1 n=57 v=0
36034 On ch=9 n=45 v=0
36038 On ch=2 n=33 v=0
36052 On ch=10 n=35 v=0
36069 On ch=10 n=46 v=0
36080 On ch=12 n=46 v=115
36082 On ch=12 n=45 v=0
36089 On ch=2 n=34 v=0
36093 On ch=1 n=70 v=0
36093 On ch=9 n=46 v=0
36093 On ch=1 n=58 v=0
36095 On ch=2 n=35 v=125
36095 On ch=10 n=35 v=123
36095 On ch=10 n=46 v=122
36096 On ch=1 n=59 v=123
36096 On ch=1 n=71 v=123
36096 On ch=9 n=47 v=121
36125 On ch=10 n=35 v=0
36141 On ch=12 n=46 v=0
36144 On ch=12 n=47 v=115
36157 On ch=2 n=35 v=0
36159 On ch=2 n=36 v=124
36159 On ch=10 n=35 v=123
36160 On ch=1 n=60 v=119
36160 On ch=1 n=72 v=119
36160 On ch=9 n=48 v=116
36163 On ch=9 n=47 v=0
36163 On ch=1 n=71 v=0
36163 On ch=1 n=59 v=0
36167 On ch=10 n=46 v=0
36172 On ch=10 n=40 v=0
36191 On ch=2 n=38 v=119
36191 On ch=10 n=40 v=123
36191 On ch=10 n=46 v=123
36192 On ch=1 n=62 v=120
36192 On ch=1 n=74 v=120
36192 On ch=9 n=50 v=117
36193 On ch=1 n=60 v=0
36193 On ch=9 n=48 v=0
36193 On ch=1 n=72 v=0
36194 On ch=2 n=36 v=0
36208 On ch=12 n=48 v=109
36211 On ch=12 n=47 v=0
36219 On ch=2 n=38 v=0
36220 On ch=1 n=62 v=0
36220 On ch=9 n=50 v=0
36220 On ch=1 n=74 v=0
36223 On ch=2 n=40 v=114
36224 On ch=1 n=64 v=121
36224 On ch=1 n=76 v=121
36224 On ch=9 n=52 v=118
36240 On ch=12 n=50 v=110
36241 On ch=12 n=48 v=0
36247 On ch=10 n=35 v=0
36251 On ch=2 n=40 v=0
36255 On ch=2 n=41 v=121
36256 On ch=1 n=65 v=121
36256 On ch=1 n=77 v=121
36256 On ch=9 n=53 v=118
36268 On ch=12 n=50 v=0
36269 On ch=10 n=46 v=0
36272 On ch=2 n=41 v=0
36272 On ch=12 n=52 v=112
36273 On ch=1 n=76 v=0
36273 On ch=1 n=64 v=0
36273 On ch=9 n=52 v=0
36278 On ch=1 n=77 v=0
36278 On ch=9 n=53 v=0
36278 On ch=1 n=65 v=0
36287 On ch=2 n=43 v=125
36287 On ch=10 n=35 v=123
36287 On ch=10 n=49 v=123
36288 On ch=1 n=67 v=123
36288 On ch=1 n=79 v=123
36288 On ch=9 n=55 v=121
36304 On ch=12 n=53 v=112
36321 On ch=10 n=35 v=0
36321 On ch=12 n=52 v=0
36326 On ch=12 n=53 v=0
36336 On ch=12 n=55 v=116
36344 On ch=10 n=49 v=0
36347 On ch=2 n=43 v=0
36350 On ch=1 n=79 v=0
36350 On ch=9 n=55 v=0
36350 On ch=1 n=67 v=0
36351 On ch=2 n=35 v=124
36351 On ch=10 n=35 v=123
36352 On ch=1 n=59 v=123
36352 On ch=1 n=71 v=123
36352 On ch=9 n=47 v=121
36354 On ch=10 n=40 v=0
36383 On ch=10 n=40 v=123
36383 On ch=10 n=46 v=122
36398 On ch=12 n=55 v=0
36400 On ch=12 n=47 v=116
36415 On ch=2 n=36 v=123
36416 On ch=1 n=60 v=122
36416 On ch=1 n=72 v=122
36416 On ch=9 n=48 v=119
36433 On ch=1 n=71 v=0
36433 On ch=10 n=35 v=0
36433 On ch=1 n=59 v=0
36433 On ch=9 n=47 v=0
36436 On ch=2 n=35 v=0
36451 On ch=10 n=46 v=0
36464 On ch=12 n=48 v=113
36469 On ch=2 n=36 v=0
36478 On ch=9 n=48 v=0
36478 On ch=1 n=60 v=0
36478 On ch=1 n=72 v=0
36479 On ch=2 n=38 v=123
36479 On ch=10 n=35 v=122
36479 On ch=10 n=46 v=122
36480 On ch=1 n=62 v=122
36480 On ch=1 n=74 v=122
36480 On ch=9 n=50 v=120
36481 On ch=12 n=47 v=0
36515 On ch=10 n=35 v=0
36526 On ch=12 n=48 v=0
36528 On ch=12 n=50 v=114
36533 On ch=2 n=38 v=0
36537 On ch=1 n=74 v=0
36537 On ch=9 n=50 v=0
36537 On ch=1 n=62 v=0
36543 On ch=2 n=39 v=123
36543 On ch=10 n=35 v=123
36544 On ch=1 n=63 v=120
36544 On ch=1 n=75 v=120
36544 On ch=9 n=51 v=117
36553 On ch=10 n=46 v=0
36554 On ch=10 n=40 v=0
36574 On ch=1 n=63 v=0
36574 On ch=9 n=51 v=0
36574 On ch=1 n=75 v=0
36575 On ch=2 n=40 v=120
36575 On ch=10 n=40 v=123
36575 On ch=10 n=46 v=123
36576 On ch=1 n=64 v=123
36576 On ch=1 n=76 v=123
36576 On ch=9 n=52 v=121
36577 On ch=10 n=35 v=0
36582 On ch=2 n=39 v=0
36585 On ch=12 n=50 v=0
36592 On ch=12 n=51 v=110
36605 On ch=2 n=40 v=0
36607 On ch=2 n=41 v=125
36607 On ch=10 n=43 v=121
36608 On ch=1 n=64 v=0
36608 On ch=9 n=52 v=0
36608 On ch=1 n=76 v=0
36608 On ch=1 n=65 v=119
36608 On ch=1 n=77 v=119
36608 On ch=9 n=53 v=116
36612 On ch=10 n=40 v=0
36622 On ch=12 n=51 v=0
36624 On ch=12 n=52 v=115
36631 On ch=1 n=65 v=0
36631 On ch=9 n=53 v=0
36631 On ch=1 n=77 v=0
36639 On ch=2 n=43 v=120
36639 On ch=10 n=45 v=122
36640 On ch=1 n=67 v=122
36640 On ch=1 n=79 v=122
36640 On ch=9 n=55 v=120
36644 On ch=2 n=41 v=0
36645 On ch=10 n=43 v=0
36656 On ch=12 n=52 v=0
36656 On ch=12 n=53 v=109
36668 On ch=2 n=43 v=0
36670 On ch=1 n=67 v=0
36670 On ch=9 n=55 v=0
36670 On ch=1 n=79 v=0
36670 On ch=10 n=45 v=0
36671 On ch=2 n=42 v=125
36671 On ch=5 n=66 v=122
36671 On ch=10 n=35 v=122
36671 On ch=10 n=49 v=122
36672 On ch=1 n=66 v=122
36672 On ch=1 n=78 v=122
36672 On ch=9 n=54 v=120
36674 On ch=10 n=46 v=0
36679 On ch=12 n=53 v=0
36688 On ch=12 n=55 v=114
36703 On ch=5 n=66 v=0
36703 On ch=2 n=44 v=125
36704 On ch=2 n=42 v=0
36704 On ch=1 n=68 v=122
36704 On ch=1 n=80 v=122
36704 On ch=9 n=56 v=119
36714 On ch=1 n=78 v=0
36714 On ch=9 n=54 v=0
36714 On ch=1 n=66 v=0
36718 On ch=12 n=55 v=0
36720 On ch=12 n=54 v=114
36735 On ch=2 n=46 v=125
36736 On ch=1 n=70 v=123
36736 On ch=1 n=82 v=123
36736 On ch=9 n=58 v=121
36737 On ch=1 n=80 v=0
36737 On ch=1 n=68 v=0
36737 On ch=9 n=56 v=0
36740 On ch=2 n=44 v=0
36752 On ch=12 n=56 v=113
36762 On ch=12 n=54 v=0
36763 On ch=1 n=82 v=0
36763 On ch=1 n=70 v=0
36763 On ch=9 n=58 v=0
36764 On ch=2 n=46 v=0
36767 On ch=10 n=40 v=124
36776 On ch=10 n=49 v=0
36784 On ch=12 n=58 v=115
36785 On ch=12 n=56 v=0
36794 On ch=10 n=35 v=0
36798 On ch=10 n=40 v=0
36799 On ch=2 n=44 v=125
36799 On ch=10 n=40 v=123
36800 On ch=1 n=68 v=122
36800 On ch=1 n=80 v=122
36800 On ch=9 n=56 v=120
36811 On ch=12 n=58 v=0
36826 On ch=10 n=40 v=0
36829 On ch=2 n=44 v=0
36831 On ch=2 n=46 v=125
36831 On ch=10 n=43 v=121
36832 On ch=1 n=70 v=121
36832 On ch=1 n=82 v=121
36832 On ch=9 n=58 v=118
36834 On ch=1 n=68 v=0
36834 On ch=1 n=80 v=0
36834 On ch=9 n=56 v=0
36848 On ch=12 n=56 v=114
36861 On ch=2 n=46 v=0
36863 On ch=2 n=48 v=123
36863 On ch=10 n=35 v=121
36863 On ch=10 n=49 v=121
36864 On ch=1 n=72 v=123
36864 On ch=1 n=84 v=123
36864 On ch=9 n=60 v=121
36867 On ch=1 n=70 v=0
36867 On ch=9 n=58 v=0
36867 On ch=1 n=82 v=0
36876 On ch=10 n=43 v=0
36880 On ch=12 n=58 v=112
36882 On ch=12 n=56 v=0
36901 On ch=2 n=48 v=0
36902 On ch=1 n=72 v=0
36902 On ch=9 n=60 v=0
36902 On ch=1 n=84 v=0
36912 On ch=12 n=60 v=116
36915 On ch=12 n=58 v=0
36933 On ch=10 n=35 v=0
36950 On ch=12 n=60 v=0
36959 On ch=10 n=49 v=0
36959 On ch=2 n=46 v=125
36959 On ch=10 n=40 v=122
36960 On ch=1 n=70 v=122
36960 On ch=1 n=82 v=122
36960 On ch=9 n=58 v=120
36987 On ch=10 n=40 v=0
36988 On ch=2 n=46 v=0
36989 On ch=1 n=82 v=0
36989 On ch=1 n=70 v=0
36989 On ch=9 n=58 v=0
36991 On ch=2 n=48 v=121
36991 On ch=10 n=43 v=121
36992 On ch=1 n=72 v=122
36992 On ch=1 n=84 v=122
36992 On ch=9 n=60 v=119
37008 On ch=12 n=58 v=114
37023 On ch=2 n=50 v=125
37023 On ch=10 n=35 v=122
37023 On ch=10 n=57 v=122
37024 On ch=10 n=43 v=0
37024 On ch=1 n=74 v=121
37024 On ch=1 n=86 v=121
37024 On ch=9 n=62 v=118
37026 On ch=2 n=48 v=0
37032 Par ch=1 c=91 v=127
37033 On ch=1 n=84 v=0
37033 On ch=9 n=60 v=0
37033 On ch=1 n=72 v=0
37037 On ch=12 n=58 v=0
37039 On ch=10 n=35 v=0
37040 On ch=2 n=50 v=0
37040 On ch=12 n=60 v=113
37043 On ch=9 n=62 v=0
37043 On ch=10 n=57 v=0
37043 On ch=1 n=86 v=0
37043 On ch=1 n=74 v=0
37055 On ch=2 n=35 v=125
37055 On ch=10 n=35 v=122
37055 On ch=10 n=49 v=122
37056 On ch=1 n=47 v=123
37056 On ch=1 n=59 v=123
37056 On ch=1 n=66 v=123
37056 On ch=1 n=71 v=123
37056 On ch=1 n=75 v=123
37056 On ch=1 n=78 v=123
37056 On ch=9 n=47 v=121
37072 On ch=9 n=47 v=0
37072 On ch=12 n=62 v=112
37072 On ch=9 n=49 v=116
37081 On ch=12 n=60 v=0
37088 On ch=9 n=49 v=0
37088 On ch=9 n=51 v=116
37091 On ch=12 n=62 v=0
37104 On ch=9 n=51 v=0
37104 On ch=12 n=47 v=115
37104 On ch=9 n=49 v=117
37120 On ch=9 n=49 v=0
37120 On ch=12 n=47 v=0
37120 On ch=12 n=49 v=109
37120 On ch=9 n=51 v=117
37136 On ch=9 n=51 v=0
37136 On ch=12 n=49 v=0
37136 On ch=12 n=51 v=109
37136 On ch=9 n=54 v=118
37151 On ch=10 n=46 v=122
37152 On ch=9 n=54 v=0
37152 On ch=12 n=51 v=0
37152 On ch=12 n=49 v=110
37152 On ch=9 n=51 v=118
37168 On ch=9 n=51 v=0
37168 On ch=12 n=49 v=0
37168 On ch=12 n=51 v=111
37168 On ch=9 n=54 v=118
37184 On ch=9 n=54 v=0
37184 On ch=12 n=51 v=0
37184 On ch=12 n=54 v=112
37184 On ch=9 n=52 v=121
37200 On ch=9 n=52 v=0
37200 On ch=12 n=54 v=0
37200 On ch=12 n=51 v=112
37200 On ch=9 n=54 v=118
37216 On ch=9 n=54 v=0
37216 On ch=12 n=51 v=0
37216 On ch=12 n=54 v=112
37216 On ch=9 n=54 v=119
37232 On ch=12 n=54 v=0
37232 On ch=12 n=52 v=115
37232 On ch=9 n=56 v=121
37245 On ch=9 n=54 v=0
37248 On ch=12 n=52 v=0
37248 On ch=12 n=54 v=112
37248 On ch=9 n=58 v=120
37256 On ch=9 n=56 v=0
37264 On ch=9 n=58 v=0
37264 On ch=12 n=54 v=0
37264 On ch=12 n=54 v=113
37264 On ch=9 n=58 v=119
37280 On ch=12 n=56 v=115
37280 On ch=9 n=56 v=119
37287 On ch=9 n=58 v=0
37293 On ch=12 n=54 v=0
37296 On ch=12 n=58 v=114
37296 On ch=9 n=54 v=119
37301 On ch=9 n=56 v=0
37304 On ch=12 n=56 v=0
37312 On ch=12 n=58 v=0
37312 On ch=9 n=54 v=0
37312 On ch=12 n=58 v=113
37312 On ch=9 n=53 v=119
37325 On ch=10 n=46 v=0
37327 On ch=1 n=75 v=0
37328 On ch=9 n=53 v=0
37328 On ch=12 n=56 v=113
37328 On ch=9 n=56 v=119
37332 On ch=1 n=71 v=0
37335 On ch=12 n=58 v=0
37336 On ch=1 n=78 v=0
37343 On ch=10 n=46 v=123
37344 On ch=12 n=54 v=113
37344 On ch=9 n=58 v=120
37349 On ch=12 n=56 v=0
37349 On ch=1 n=66 v=0
37351 On ch=9 n=56 v=0
37354 On ch=1 n=47 v=0
37357 On ch=1 n=59 v=0
37360 On ch=9 n=58 v=0
37360 On ch=12 n=54 v=0
37360 On ch=12 n=53 v=113
37360 On ch=9 n=59 v=121
37369 On ch=10 n=35 v=0
37376 On ch=12 n=53 v=0
37376 On ch=12 n=56 v=113
37376 On ch=9 n=61 v=121
37378 On ch=9 n=59 v=0
37391 On ch=10 n=49 v=0
37392 On ch=12 n=58 v=114
37392 On ch=9 n=62 v=120
37395 On ch=9 n=61 v=0
37399 On ch=12 n=56 v=0
37408 On ch=12 n=58 v=0
37408 On ch=9 n=62 v=0
37408 On ch=12 n=59 v=115
37408 On ch=9 n=63 v=118
37424 On ch=12 n=61 v=115
37426 On ch=12 n=59 v=0
37433 On ch=2 n=35 v=0
37439 On ch=2 n=32 v=125
37439 On ch=10 n=35 v=124
37439 On ch=10 n=43 v=123
37440 On ch=9 n=63 v=0
37440 On ch=1 n=44 v=123
37440 On ch=1 n=56 v=123
37440 On ch=1 n=63 v=123
37440 On ch=1 n=68 v=123
37440 On ch=1 n=72 v=123
37440 On ch=1 n=75 v=123
37440 On ch=12 n=62 v=114
37440 On ch=9 n=44 v=120
37443 On ch=12 n=61 v=0
37456 On ch=9 n=44 v=0
37456 On ch=12 n=62 v=0
37456 On ch=12 n=63 v=112
37456 On ch=9 n=46 v=124
37460 On ch=10 n=46 v=0
37472 On ch=9 n=46 v=0
37472 On ch=9 n=48 v=125
37488 On ch=9 n=48 v=0
37488 On ch=12 n=63 v=0
37488 On ch=12 n=44 v=114
37488 On ch=9 n=46 v=125
37504 On ch=9 n=46 v=0
37504 On ch=12 n=44 v=0
37504 On ch=12 n=46 v=119
37504 On ch=9 n=44 v=125
37520 On ch=9 n=44 v=0
37520 On ch=12 n=46 v=0
37520 On ch=12 n=48 v=120
37520 On ch=9 n=46 v=125
37535 On ch=10 n=46 v=122
37536 On ch=9 n=46 v=0
37536 On ch=12 n=48 v=0
37536 On ch=12 n=46 v=120
37536 On ch=9 n=48 v=125
37552 On ch=9 n=48 v=0
37552 On ch=12 n=46 v=0
37552 On ch=12 n=44 v=120
37552 On ch=9 n=50 v=125
37568 On ch=9 n=50 v=0
37568 On ch=12 n=44 v=0
37568 On ch=12 n=46 v=120
37568 On ch=9 n=51 v=125
37584 On ch=9 n=51 v=0
37584 On ch=12 n=46 v=0
37584 On ch=12 n=48 v=120
37584 On ch=9 n=53 v=125
37600 On ch=9 n=53 v=0
37600 On ch=12 n=48 v=0
37600 On ch=12 n=50 v=120
37600 On ch=9 n=56 v=125
37616 On ch=9 n=56 v=0
37616 On ch=12 n=50 v=0
37616 On ch=12 n=51 v=120
37616 On ch=9 n=55 v=125
37632 On ch=9 n=55 v=0
37632 On ch=12 n=51 v=0
37632 On ch=12 n=53 v=120
37632 On ch=9 n=56 v=125
37648 On ch=9 n=56 v=0
37648 On ch=12 n=53 v=0
37648 On ch=12 n=56 v=120
37648 On ch=9 n=58 v=125
37664 On ch=9 n=58 v=0
37664 On ch=12 n=56 v=0
37664 On ch=12 n=55 v=120
37664 On ch=9 n=60 v=125
37680 On ch=9 n=60 v=0
37680 On ch=12 n=55 v=0
37680 On ch=12 n=56 v=120
37680 On ch=9 n=62 v=125
37696 On ch=9 n=62 v=0
37696 On ch=10 n=46 v=0
37696 On ch=12 n=56 v=0
37696 On ch=12 n=58 v=120
37696 On ch=9 n=63 v=125
37711 On ch=1 n=72 v=0
37712 On ch=9 n=63 v=0
37712 On ch=12 n=58 v=0
37712 On ch=12 n=60 v=120
37712 On ch=9 n=60 v=122
37714 On ch=1 n=63 v=0
37717 On ch=1 n=68 v=0
37727 On ch=10 n=46 v=122
37728 On ch=12 n=60 v=0
37728 On ch=9 n=60 v=0
37728 On ch=12 n=62 v=120
37728 On ch=9 n=63 v=125
37732 On ch=1 n=75 v=0
37744 On ch=12 n=62 v=0
37744 On ch=12 n=63 v=120
37745 On ch=1 n=56 v=0
37746 On ch=1 n=44 v=0
37760 On ch=12 n=63 v=0
37760 On ch=12 n=60 v=116
37770 On ch=10 n=35 v=0
37776 On ch=12 n=60 v=0
37776 On ch=12 n=63 v=120
37815 On ch=10 n=43 v=0
37817 On ch=2 n=32 v=0
37821 On ch=10 n=46 v=0
37823 On ch=2 n=34 v=125
37823 On ch=10 n=35 v=124
37823 On ch=10 n=49 v=123
37824 On ch=9 n=63 v=0
37824 On ch=1 n=46 v=123
37824 On ch=1 n=58 v=123
37824 On ch=1 n=65 v=123
37824 On ch=1 n=70 v=123
37824 On ch=1 n=74 v=123
37824 On ch=1 n=77 v=123
37824 On ch=9 n=46 v=118
37840 On ch=9 n=48 v=119
37843 On ch=9 n=46 v=0
37856 On ch=9 n=48 v=0
37856 On ch=9 n=50 v=119
37872 On ch=12 n=63 v=0
37872 On ch=12 n=46 v=112
37872 On ch=9 n=48 v=119
37878 On ch=9 n=50 v=0
37888 On ch=12 n=48 v=112
37888 On ch=9 n=50 v=119
37891 On ch=12 n=46 v=0
37896 On ch=9 n=48 v=0
37904 On ch=12 n=48 v=0
37904 On ch=12 n=50 v=112
37904 On ch=9 n=51 v=119
37906 On ch=9 n=50 v=0
37920 On ch=9 n=51 v=0
37920 On ch=12 n=48 v=113
37920 On ch=9 n=50 v=119
37926 On ch=12 n=50 v=0
37936 On ch=9 n=50 v=0
37936 On ch=12 n=50 v=113
37936 On ch=9 n=51 v=119
37944 On ch=12 n=48 v=0
37952 On ch=9 n=51 v=0
37952 On ch=12 n=51 v=113
37952 On ch=9 n=53 v=120
37954 On ch=12 n=50 v=0
37968 On ch=12 n=51 v=0
37968 On ch=9 n=53 v=0
37968 On ch=12 n=50 v=113
37968 On ch=9 n=52 v=120
37984 On ch=9 n=52 v=0
37984 On ch=12 n=50 v=0
37984 On ch=12 n=51 v=113
37984 On ch=9 n=53 v=120
38000 On ch=12 n=51 v=0
38000 On ch=12 n=53 v=114
38000 On ch=9 n=55 v=120
38003 On ch=9 n=53 v=0
38016 On ch=12 n=53 v=0
38016 On ch=9 n=55 v=0
38016 On ch=12 n=52 v=114
38016 On ch=9 n=53 v=120
38032 On ch=9 n=53 v=0
38032 On ch=12 n=52 v=0
38032 On ch=12 n=53 v=114
38032 On ch=9 n=56 v=121
38048 On ch=12 n=55 v=114
38048 On ch=9 n=55 v=121
38051 On ch=12 n=53 v=0
38052 On ch=9 n=56 v=0
38064 On ch=12 n=55 v=0
38064 On ch=12 n=53 v=114
38064 On ch=9 n=53 v=121
38065 On ch=9 n=55 v=0
38080 On ch=12 n=53 v=0
38080 On ch=12 n=56 v=115
38080 On ch=9 n=55 v=121
38081 On ch=9 n=53 v=0
38095 On ch=9 n=55 v=0
38096 On ch=12 n=55 v=115
38096 On ch=9 n=56 v=121
38100 On ch=12 n=56 v=0
38112 On ch=12 n=53 v=115
38112 On ch=9 n=58 v=121
38113 On ch=12 n=55 v=0
38116 On ch=9 n=56 v=0
38122 On ch=9 n=58 v=0
38128 On ch=12 n=55 v=115
38128 On ch=9 n=60 v=121
38129 On ch=12 n=53 v=0
38141 On ch=9 n=60 v=0
38143 On ch=12 n=55 v=0
38144 On ch=12 n=56 v=115
38144 On ch=9 n=62 v=122
38160 On ch=12 n=58 v=115
38160 On ch=9 n=63 v=122
38161 On ch=9 n=62 v=0
38164 On ch=12 n=56 v=0
38170 On ch=12 n=58 v=0
38176 On ch=12 n=60 v=116
38176 On ch=9 n=62 v=122
38177 On ch=9 n=63 v=0
38187 On ch=9 n=62 v=0
38189 On ch=12 n=60 v=0
38192 On ch=12 n=62 v=116
38192 On ch=9 n=60 v=122
38208 On ch=9 n=60 v=0
38208 On ch=12 n=63 v=116
38208 On ch=9 n=62 v=122
38209 On ch=12 n=62 v=0
38224 On ch=9 n=62 v=0
38224 On ch=12 n=62 v=116
38224 On ch=9 n=63 v=122
38225 On ch=12 n=63 v=0
38235 On ch=12 n=62 v=0
38239 On ch=9 n=63 v=0
38240 On ch=12 n=60 v=116
38240 On ch=9 n=65 v=122
38254 On ch=9 n=65 v=0
38256 On ch=12 n=60 v=0
38256 On ch=12 n=62 v=117
38256 On ch=9 n=67 v=123
38272 On ch=12 n=62 v=0
38272 On ch=12 n=63 v=117
38272 On ch=9 n=68 v=123
38275 On ch=9 n=67 v=0
38287 On ch=12 n=63 v=0
38288 On ch=12 n=65 v=117
38288 On ch=9 n=70 v=123
38290 On ch=9 n=68 v=0
38302 On ch=12 n=65 v=0
38304 On ch=12 n=67 v=117
38304 On ch=9 n=68 v=123
38309 On ch=9 n=70 v=0
38316 On ch=9 n=68 v=0
38320 On ch=12 n=68 v=117
38320 On ch=9 n=65 v=123
38323 On ch=12 n=67 v=0
38334 On ch=9 n=65 v=0
38336 On ch=12 n=70 v=117
38336 On ch=9 n=67 v=123
38338 On ch=12 n=68 v=0
38350 On ch=9 n=67 v=0
38352 On ch=12 n=68 v=117
38352 On ch=9 n=70 v=123
38357 On ch=12 n=70 v=0
38361 On ch=9 n=70 v=0
38364 On ch=12 n=68 v=0
38368 On ch=12 n=65 v=118
38368 On ch=9 n=72 v=124
38382 On ch=12 n=65 v=0
38384 On ch=9 n=72 v=0
38384 On ch=12 n=67 v=118
38384 On ch=9 n=74 v=124
38398 On ch=12 n=67 v=0
38400 On ch=12 n=70 v=118
38400 On ch=9 n=75 v=124
38402 On ch=9 n=74 v=0
38409 On ch=12 n=70 v=0
38416 On ch=12 n=72 v=118
38416 Pb ch=9 v=9681
38432 On ch=12 n=72 v=0
38432 On ch=12 n=74 v=118
38432 Pb ch=9 v=10946
38448 On ch=12 n=75 v=119
38448 Pb ch=9 v=12212
38450 On ch=12 n=74 v=0
38456 On ch=10 n=49 v=0
38464 Pb ch=12 v=9681
38464 Pb ch=9 v=13478
38480 Pb ch=12 v=10946
38480 Pb ch=9 v=16383
38496 Pb ch=12 v=12212
38512 Pb ch=12 v=13478
38528 Pb ch=12 v=16383
38549 On ch=2 n=34 v=0
38583 On ch=10 n=35 v=0
38784 On ch=1 n=74 v=0
38784 On ch=1 n=46 v=0
38784 On ch=1 n=65 v=0
38784 On ch=1 n=70 v=0
38784 On ch=1 n=77 v=0
38784 On ch=1 n=58 v=0
38832 On ch=1 n=46 v=115
38832 On ch=1 n=58 v=115
38880 On ch=1 n=58 v=0
38880 On ch=1 n=46 v=0
38880 On ch=1 n=45 v=117
38880 On ch=1 n=57 v=117
38928 On ch=1 n=57 v=0
38928 On ch=1 n=45 v=0
38928 On ch=1 n=46 v=118
38928 On ch=1 n=58 v=118
38976 On ch=1 n=58 v=0
38976 On ch=1 n=46 v=0
38976 On ch=1 n=48 v=119
38976 On ch=1 n=60 v=119
39024 On ch=1 n=60 v=0
39024 On ch=1 n=48 v=0
39024 On ch=1 n=46 v=120
39024 On ch=1 n=58 v=120
39072 On ch=1 n=58 v=0
39072 On ch=1 n=46 v=0
39072 On ch=1 n=50 v=122
39072 On ch=1 n=62 v=122
39120 On ch=1 n=62 v=0
39120 On ch=1 n=50 v=0
39120 On ch=1 n=46 v=123
39120 On ch=1 n=58 v=123
39167 On ch=9 n=75 v=0
39168 On ch=1 n=58 v=0
39168 On ch=1 n=46 v=0
39168 On ch=1 n=51 v=123
39168 On ch=1 n=63 v=123
39184 Pb ch=9 v=8192
39215 On ch=12 n=75 v=0
39216 On ch=1 n=63 v=0
39216 On ch=1 n=51 v=0
39216 On ch=1 n=46 v=123
39216 On ch=1 n=58 v=123
39232 Pb ch=12 v=8192
39264 On ch=1 n=58 v=0
39264 On ch=1 n=46 v=0
39264 On ch=1 n=53 v=123
39264 On ch=1 n=65 v=123
39312 On ch=1 n=65 v=0
39312 On ch=1 n=53 v=0
39312 On ch=1 n=46 v=123
39312 On ch=1 n=58 v=123
39359 On ch=2 n=39 v=125
39359 On ch=10 n=35 v=124
39359 On ch=10 n=52 v=123
39360 On ch=1 n=58 v=0
39360 On ch=1 n=46 v=0
39360 On ch=1 n=51 v=123
39360 On ch=1 n=55 v=123
39360 On ch=1 n=58 v=123
39360 On ch=1 n=63 v=123
39360 On ch=1 n=67 v=123
39363 On ch=1 n=67 v=0
39363 On ch=1 n=63 v=0
39363 On ch=1 n=75 v=122
39364 On ch=1 n=51 v=0
39364 On ch=1 n=58 v=0
39364 On ch=1 n=63 v=123
39364 On ch=1 n=67 v=123
39365 On ch=1 n=51 v=123
39365 On ch=1 n=58 v=123
39365 On ch=1 n=70 v=123
39384 On ch=5 n=51 v=115
39384 On ch=9 n=55 v=111
39384 On ch=9 n=58 v=115
39407 On ch=9 n=58 v=0
39407 On ch=10 n=46 v=120
39408 On ch=5 n=55 v=116
39408 On ch=9 n=58 v=108
39411 On ch=9 n=63 v=110
39421 On ch=10 n=46 v=0
39421 On ch=5 n=51 v=0
39422 On ch=9 n=55 v=0
39423 On ch=9 n=58 v=0
39431 On ch=9 n=63 v=0
39432 On ch=5 n=58 v=115
39432 On ch=12 n=55 v=102
39432 On ch=12 n=58 v=108
39432 On ch=9 n=63 v=105
39433 On ch=9 n=67 v=113
39434 On ch=5 n=55 v=0
39437 On ch=9 n=63 v=0
39438 On ch=1 n=58 v=0
39453 On ch=1 n=55 v=0
39455 On ch=9 n=67 v=0
39455 On ch=12 n=58 v=0
39455 On ch=10 n=40 v=124
39455 On ch=10 n=46 v=122
39456 On ch=1 n=58 v=123
39456 On ch=5 n=63 v=114
39456 On ch=12 n=58 v=98
39456 On ch=9 n=67 v=112
39458 On ch=5 n=58 v=0
39458 On ch=9 n=70 v=114
39459 On ch=12 n=63 v=100
39461 Pb ch=9 v=4736
39463 On ch=9 n=67 v=0
39465 Pb ch=9 v=8192
39469 Pb ch=9 v=8192
39470 On ch=12 n=55 v=0
39471 On ch=12 n=58 v=0
39472 On ch=1 n=75 v=0
39472 On ch=2 n=39 v=0
39473 On ch=1 n=63 v=0
39474 On ch=1 n=67 v=0
39475 On ch=1 n=70 v=0
39477 On ch=1 n=58 v=0
39479 On ch=1 n=51 v=0
39479 On ch=12 n=63 v=0
39480 On ch=1 n=63 v=123
39480 On ch=1 n=67 v=123
39480 On ch=1 n=70 v=121
39480 On ch=1 n=75 v=122
39480 On ch=12 n=63 v=94
39481 On ch=12 n=67 v=105
39485 On ch=12 n=63 v=0
39486 On ch=10 n=35 v=0
39493 On ch=10 n=46 v=0
39503 On ch=12 n=67 v=0
39503 On ch=2 n=39 v=125
39503 On ch=10 n=35 v=121
39503 On ch=10 n=46 v=119
39504 On ch=1 n=63 v=0
39504 On ch=1 n=51 v=122
39504 On ch=12 n=67 v=104
39505 On ch=1 n=67 v=0
39506 On ch=12 n=70 v=106
39509 Pb ch=12 v=4736
39511 On ch=12 n=67 v=0
39513 Pb ch=12 v=8192
39514 On ch=1 n=75 v=0
39517 Pb ch=12 v=8192
39519 On ch=1 n=70 v=0
39525 On ch=10 n=35 v=0
39530 On ch=10 n=52 v=0
39548 On ch=1 n=51 v=0
39551 On ch=2 n=38 v=125
39551 On ch=10 n=35 v=124
39551 On ch=10 n=49 v=123
39552 On ch=2 n=39 v=0
39552 On ch=1 n=50 v=123
39552 On ch=1 n=58 v=123
39552 On ch=1 n=62 v=123
39552 On ch=1 n=65 v=123
39552 On ch=1 n=70 v=123
39552 On ch=1 n=74 v=122
39562 On ch=10 n=46 v=0
39567 On ch=5 n=63 v=0
39576 On ch=5 n=50 v=112
39576 On ch=9 n=53 v=111
39578 On ch=9 n=58 v=114
39595 On ch=9 n=70 v=0
39599 On ch=9 n=58 v=0
39599 On ch=10 n=46 v=119
39600 On ch=5 n=53 v=115
39600 On ch=9 n=58 v=110
39604 On ch=9 n=62 v=113
39608 On ch=5 n=50 v=0
39608 On ch=9 n=53 v=0
39610 On ch=1 n=58 v=0
39611 On ch=10 n=40 v=0
39615 On ch=9 n=58 v=0
39623 On ch=9 n=62 v=0
39624 On ch=10 n=46 v=0
39624 On ch=5 n=58 v=113
39624 On ch=12 n=53 v=102
39624 On ch=9 n=62 v=110
39626 On ch=12 n=58 v=107
39626 On ch=9 n=65 v=112
39630 On ch=9 n=62 v=0
39631 On ch=5 n=53 v=0
39643 On ch=12 n=70 v=0
39647 On ch=12 n=58 v=0
39647 On ch=9 n=65 v=0
39647 On ch=10 n=40 v=124
39647 On ch=10 n=46 v=122
39647 Pb ch=9 v=6400
39648 On ch=1 n=58 v=122
39648 On ch=5 n=62 v=114
39648 On ch=12 n=58 v=101
39648 On ch=9 n=65 v=113
39648 On ch=9 n=70 v=112
39651 Pb ch=9 v=4480
39652 On ch=5 n=58 v=0
39652 On ch=1 n=62 v=0
39652 On ch=12 n=62 v=105
39653 On ch=9 n=65 v=0
39655 On ch=1 n=74 v=0
39655 Pb ch=9 v=6784
39656 On ch=12 n=53 v=0
39657 On ch=1 n=65 v=0
39659 Pb ch=9 v=8192
39660 On ch=1 n=70 v=0
39663 On ch=12 n=58 v=0
39666 On ch=2 n=38 v=0
39668 On ch=10 n=35 v=0
39671 On ch=12 n=62 v=0
39671 On ch=1 n=50 v=0
39672 On ch=1 n=62 v=123
39672 On ch=1 n=65 v=123
39672 On ch=1 n=70 v=122
39672 On ch=1 n=74 v=120
39672 On ch=12 n=62 v=101
39674 On ch=12 n=65 v=104
39678 On ch=12 n=62 v=0
39681 On ch=10 n=46 v=0
39695 On ch=12 n=65 v=0
39695 On ch=2 n=38 v=125
39695 Pb ch=12 v=6400
39695 On ch=10 n=35 v=120
39695 On ch=10 n=46 v=120
39696 On ch=1 n=50 v=117
39696 On ch=12 n=65 v=105
39696 On ch=12 n=70 v=104
39699 On ch=1 n=74 v=0
39699 On ch=1 n=65 v=0
39699 Pb ch=12 v=4480
39701 On ch=1 n=70 v=0
39701 On ch=12 n=65 v=0
39703 Pb ch=12 v=6784
39707 Pb ch=12 v=8192
39712 On ch=1 n=62 v=0
39713 On ch=10 n=35 v=0
39718 On ch=10 n=49 v=0
39724 On ch=1 n=58 v=0
39726 On ch=1 n=50 v=0
39743 On ch=2 n=38 v=0
39743 On ch=2 n=36 v=125
39743 On ch=10 n=35 v=124
39743 On ch=10 n=57 v=123
39744 On ch=1 n=48 v=122
39744 On ch=1 n=55 v=123
39744 On ch=1 n=60 v=123
39744 On ch=1 n=63 v=123
39744 On ch=1 n=67 v=123
39744 On ch=1 n=72 v=122
39758 On ch=5 n=62 v=0
39765 On ch=9 n=60 v=112
39766 On ch=9 n=70 v=0
39766 On ch=10 n=46 v=0
39768 On ch=5 n=48 v=113
39768 On ch=9 n=55 v=111
39789 On ch=10 n=40 v=0
39790 On ch=9 n=63 v=109
39791 On ch=9 n=60 v=0
39791 On ch=10 n=46 v=119
39792 On ch=5 n=51 v=113
39792 On ch=9 n=60 v=114
39796 On ch=5 n=48 v=0
39801 On ch=9 n=60 v=0
39806 On ch=9 n=55 v=0
39807 On ch=10 n=46 v=0
39808 On ch=1 n=55 v=0
39813 On ch=12 n=60 v=104
39814 On ch=12 n=70 v=0
39815 On ch=9 n=63 v=0
39816 On ch=5 n=51 v=0
39816 On ch=5 n=55 v=114
39816 On ch=12 n=55 v=102
39816 On ch=9 n=63 v=108
39816 On ch=9 n=67 v=111
39819 On ch=9 n=63 v=0
39838 On ch=12 n=63 v=99
39839 On ch=9 n=67 v=0
39839 On ch=12 n=60 v=0
39839 On ch=10 n=40 v=124
39839 On ch=10 n=46 v=122
39839 On ch=9 n=70 v=114
39840 On ch=1 n=55 v=123
39840 On ch=5 n=58 v=113
39840 On ch=12 n=60 v=106
39840 On ch=9 n=65 v=117
39842 On ch=1 n=60 v=0
39843 On ch=5 n=55 v=0
39844 Pb ch=9 v=8842
39845 On ch=1 n=48 v=0
39846 Pb ch=5 v=9492
39848 Pb ch=9 v=11962
39849 On ch=12 n=60 v=0
39850 Pb ch=5 v=11832
39852 Pb ch=9 v=9492
39854 On ch=12 n=55 v=0
39854 Pb ch=5 v=14302
39856 Pb ch=9 v=12092
39858 Pb ch=5 v=16382
39860 Pb ch=9 v=14822
39863 On ch=10 n=35 v=0
39863 On ch=12 n=63 v=0
39864 On ch=1 n=60 v=120
39864 On ch=12 n=63 v=97
39864 On ch=12 n=67 v=102
39864 Pb ch=9 v=16382
39866 On ch=2 n=36 v=0
39867 On ch=12 n=63 v=0
39875 On ch=10 n=46 v=0
39887 On ch=12 n=67 v=0
39887 On ch=2 n=36 v=125
39887 On ch=12 n=70 v=107
39887 On ch=10 n=35 v=120
39887 On ch=10 n=46 v=122
39888 On ch=1 n=48 v=118
39888 On ch=12 n=65 v=110
39892 Pb ch=12 v=8842
39894 On ch=1 n=72 v=0
39896 Pb ch=12 v=11962
39897 On ch=1 n=67 v=0
39900 On ch=10 n=57 v=0
39900 Pb ch=12 v=9492
39901 On ch=1 n=63 v=0
39903 On ch=10 n=35 v=0
39904 Pb ch=12 v=12092
39906 On ch=1 n=60 v=0
39908 Pb ch=12 v=14822
39909 On ch=1 n=48 v=0
39911 On ch=1 n=55 v=0
39912 On ch=10 n=40 v=0
39912 Pb ch=12 v=16382
39931 On ch=5 n=58 v=0
39932 On ch=2 n=36 v=0
39935 On ch=2 n=31 v=125
39935 On ch=10 n=35 v=123
39935 On ch=10 n=49 v=122
39936 On ch=10 n=46 v=0
39936 On ch=1 n=43 v=123
39936 On ch=1 n=55 v=123
39936 On ch=1 n=59 v=123
39936 On ch=1 n=62 v=123
39936 On ch=1 n=67 v=123
39936 On ch=3 n=43 v=116
39936 On ch=3 n=55 v=115
39936 On ch=3 n=67 v=104
39936 On ch=3 n=71 v=103
39936 On ch=3 n=74 v=101
39936 On ch=3 n=79 v=113
39949 Pb ch=5 v=12872
39953 Pb ch=5 v=8192
39990 On ch=9 n=70 v=0
40001 On ch=10 n=35 v=0
40008 On ch=9 n=65 v=0
40018 On ch=10 n=49 v=0
40022 On ch=1 n=59 v=0
40023 On ch=3 n=71 v=0
40026 On ch=1 n=55 v=0
40026 On ch=2 n=31 v=0
40027 On ch=1 n=67 v=0
40030 On ch=1 n=43 v=0
40031 On ch=2 n=36 v=125
40031 On ch=10 n=35 v=124
40031 On ch=10 n=52 v=123
40032 On ch=3 n=43 v=0
40032 On ch=1 n=48 v=123
40032 On ch=1 n=55 v=123
40032 On ch=1 n=60 v=123
40032 On ch=1 n=63 v=123
40032 On ch=1 n=67 v=123
40032 On ch=3 n=48 v=117
40032 On ch=3 n=72 v=116
40032 On ch=3 n=75 v=101
40033 On ch=3 n=74 v=0
40034 Pb ch=9 v=15602
40035 On ch=3 n=55 v=0
40038 On ch=12 n=70 v=0
40038 On ch=1 n=62 v=0
40038 Pb ch=9 v=12742
40042 Pb ch=9 v=10272
40046 Pb ch=9 v=8192
40056 On ch=12 n=65 v=0
40069 On ch=1 n=67 v=0
40071 On ch=3 n=48 v=0
40072 On ch=3 n=79 v=0
40072 On ch=10 n=35 v=0
40074 On ch=1 n=55 v=0
40075 On ch=1 n=48 v=0
40075 On ch=3 n=67 v=0
40076 On ch=1 n=63 v=0
40076 On ch=3 n=75 v=0
40076 On ch=1 n=60 v=0
40077 On ch=3 n=72 v=0
40082 Pb ch=12 v=15602
40084 On ch=2 n=36 v=0
40086 Pb ch=12 v=12742
40087 On ch=10 n=52 v=0
40089 Pb ch=9 v=15992
40090 Pb ch=12 v=10272
40093 Pb ch=9 v=14562
40094 Pb ch=12 v=8192
40097 Pb ch=9 v=12092
40101 Pb ch=9 v=9752
40105 Pb ch=9 v=8192
40127 On ch=2 n=35 v=125
40127 On ch=10 n=35 v=124
40127 On ch=10 n=55 v=127
40128 On ch=1 n=43 v=123
40128 On ch=1 n=55 v=123
40128 On ch=1 n=59 v=123
40128 On ch=1 n=62 v=123
40128 On ch=1 n=67 v=122
40128 On ch=3 n=43 v=116
40128 On ch=3 n=55 v=118
40128 On ch=3 n=67 v=111
40128 On ch=3 n=71 v=111
40128 On ch=3 n=74 v=112
40128 On ch=3 n=79 v=115
40137 Pb ch=12 v=15992
40141 Pb ch=12 v=14562
40145 Pb ch=12 v=12092
40149 Pb ch=12 v=9752
40153 Pb ch=12 v=8192
40197 On ch=10 n=35 v=0
40203 On ch=1 n=59 v=0
40207 On ch=3 n=71 v=0
40211 On ch=10 n=55 v=0
40219 On ch=3 n=43 v=0
40220 On ch=1 n=55 v=0
40221 On ch=1 n=67 v=0
40221 On ch=2 n=35 v=0
40222 On ch=3 n=74 v=0
40223 On ch=3 n=55 v=0
40223 On ch=2 n=36 v=125
40223 On ch=10 n=35 v=124
40223 On ch=10 n=57 v=123
40224 On ch=1 n=48 v=123
40224 On ch=1 n=55 v=123
40224 On ch=1 n=60 v=123
40224 On ch=1 n=63 v=123
40224 On ch=1 n=67 v=123
40224 On ch=3 n=48 v=119
40224 On ch=3 n=72 v=115
40224 On ch=3 n=75 v=114
40227 On ch=1 n=62 v=0
40228 On ch=1 n=43 v=0
40255 On ch=3 n=79 v=0
40255 On ch=10 n=57 v=0
40260 On ch=1 n=48 v=0
40261 On ch=10 n=35 v=0
40262 On ch=3 n=48 v=0
40263 On ch=1 n=55 v=0
40266 On ch=1 n=60 v=0
40271 On ch=1 n=63 v=0
40274 On ch=3 n=67 v=0
40275 On ch=1 n=67 v=0
40276 On ch=3 n=72 v=0
40285 On ch=3 n=75 v=0
40318 On ch=2 n=36 v=0
40319 On ch=2 n=34 v=125
40319 On ch=10 n=35 v=124
40319 On ch=10 n=52 v=123
40320 On ch=1 n=46 v=120
40320 On ch=1 n=53 v=123
40320 On ch=1 n=56 v=123
40320 On ch=1 n=58 v=123
40320 On ch=1 n=62 v=123
40320 On ch=1 n=65 v=123
40320 On ch=3 n=46 v=110
40320 On ch=3 n=58 v=118
40320 On ch=3 n=65 v=118
40320 On ch=3 n=70 v=115
40320 On ch=3 n=74 v=116
40320 On ch=3 n=77 v=119
40320 On ch=5 n=62 v=122
40374 On ch=3 n=46 v=0
40376 On ch=10 n=35 v=0
40384 On ch=3 n=58 v=0
40388 On ch=10 n=52 v=0
40395 On ch=1 n=58 v=0
40402 On ch=3 n=65 v=0
40405 On ch=1 n=56 v=0
40407 On ch=2 n=34 v=0
40410 On ch=1 n=65 v=0
40412 On ch=1 n=62 v=0
40413 On ch=5 n=62 v=0
40413 On ch=1 n=53 v=0
40415 On ch=1 n=46 v=0
40415 On ch=2 n=39 v=125
40415 On ch=10 n=35 v=123
40415 On ch=10 n=49 v=123
40416 On ch=3 n=74 v=0
40416 On ch=1 n=51 v=123
40416 On ch=1 n=55 v=123
40416 On ch=1 n=58 v=123
40416 On ch=1 n=63 v=122
40416 On ch=1 n=67 v=123
40416 On ch=3 n=51 v=116
40416 On ch=3 n=58 v=115
40416 On ch=3 n=63 v=117
40416 On ch=3 n=67 v=114
40416 On ch=3 n=75 v=112
40416 On ch=5 n=63 v=115
40422 On ch=3 n=77 v=0
40461 On ch=5 n=63 v=0
40464 On ch=3 n=79 v=112
40464 On ch=5 n=67 v=115
40470 On ch=10 n=49 v=0
40475 On ch=10 n=35 v=0
40487 On ch=3 n=58 v=0
40489 On ch=3 n=67 v=0
40495 On ch=3 n=70 v=0
40503 On ch=1 n=58 v=0
40506 On ch=1 n=67 v=0
40509 On ch=3 n=63 v=0
40510 On ch=2 n=39 v=0
40510 On ch=1 n=63 v=0
40510 On ch=1 n=55 v=0
40510 On ch=1 n=51 v=0
40511 On ch=2 n=38 v=125
40511 On ch=10 n=35 v=124
40511 On ch=10 n=57 v=123
40512 On ch=5 n=67 v=0
40512 On ch=1 n=50 v=122
40512 On ch=1 n=60 v=123
40512 On ch=1 n=62 v=123
40512 On ch=1 n=66 v=122
40512 On ch=3 n=62 v=114
40512 On ch=3 n=72 v=114
40512 On ch=3 n=74 v=114
40512 On ch=3 n=78 v=110
40512 On ch=5 n=66 v=123
40513 On ch=3 n=75 v=0
40514 On ch=3 n=51 v=0
40521 On ch=3 n=79 v=0
40607 On ch=2 n=34 v=125
40607 On ch=10 n=40 v=124
40607 On ch=10 n=46 v=122
40608 On ch=1 n=67 v=122
40608 On ch=3 n=79 v=111
40608 On ch=5 n=67 v=123
40612 On ch=3 n=78 v=0
40613 On ch=5 n=66 v=0
40617 On ch=2 n=38 v=0
40619 On ch=1 n=66 v=0
40620 On ch=10 n=35 v=0
40638 On ch=10 n=46 v=0
40645 On ch=1 n=67 v=0
40655 On ch=2 n=33 v=125
40655 On ch=10 n=35 v=123
40655 On ch=10 n=46 v=112
40656 On ch=1 n=69 v=123
40656 On ch=3 n=81 v=112
40656 On ch=5 n=69 v=122
40658 On ch=5 n=67 v=0
40658 On ch=2 n=34 v=0
40661 On ch=3 n=72 v=0
40672 On ch=10 n=46 v=0
40677 On ch=10 n=35 v=0
40680 On ch=3 n=81 v=0
40683 On ch=1 n=60 v=0
40688 On ch=1 n=69 v=0
40703 On ch=2 n=31 v=125
40703 On ch=10 n=35 v=124
40703 On ch=10 n=46 v=122
40704 On ch=1 n=43 v=122
40704 On ch=1 n=58 v=122
40704 On ch=1 n=67 v=121
40704 On ch=1 n=70 v=121
40704 On ch=3 n=82 v=116
40704 On ch=5 n=70 v=122
40705 On ch=2 n=33 v=0
40710 On ch=5 n=69 v=0
40713 On ch=1 n=50 v=0
40729 On ch=10 n=46 v=0
40751 On ch=2 n=38 v=122
40751 On ch=10 n=46 v=112
40752 On ch=1 n=50 v=122
40758 On ch=2 n=31 v=0
40764 On ch=10 n=46 v=0
40771 On ch=10 n=40 v=0
40799 On ch=2 n=43 v=125
40799 On ch=10 n=40 v=123
40799 On ch=10 n=46 v=122
40800 On ch=1 n=55 v=123
40803 On ch=2 n=38 v=0
40805 On ch=10 n=35 v=0
40811 On ch=1 n=58 v=0
40823 On ch=10 n=43 v=122
40826 On ch=10 n=46 v=0
40827 On ch=10 n=40 v=0
40843 On ch=2 n=43 v=0
40847 On ch=2 n=31 v=125
40847 On ch=10 n=35 v=124
40847 On ch=10 n=45 v=122
40848 On ch=1 n=58 v=110
40849 On ch=10 n=43 v=0
40854 On ch=1 n=43 v=0
40861 On ch=10 n=57 v=0
40867 On ch=10 n=35 v=0
40890 On ch=10 n=45 v=0
40891 On ch=1 n=58 v=0
40893 On ch=2 n=31 v=0
40895 On ch=2 n=32 v=125
40895 On ch=10 n=35 v=124
40895 On ch=10 n=49 v=123
40896 On ch=3 n=74 v=0
40896 On ch=3 n=82 v=0
40896 On ch=3 n=79 v=0
40896 On ch=3 n=62 v=0
40896 On ch=1 n=50 v=0
40896 On ch=1 n=44 v=123
40896 On ch=3 n=60 v=112
40896 On ch=3 n=63 v=112
40896 On ch=3 n=68 v=112
40896 On ch=3 n=72 v=112
40896 On ch=5 n=60 v=122
40897 On ch=1 n=67 v=0
40897 On ch=5 n=70 v=0
40898 On ch=1 n=55 v=0
40899 On ch=1 n=62 v=0
40900 On ch=1 n=70 v=0
40943 On ch=10 n=46 v=111
40944 On ch=1 n=51 v=121
40967 On ch=10 n=46 v=0
40991 On ch=10 n=40 v=122
40991 On ch=10 n=46 v=122
40992 On ch=3 n=72 v=0
40992 On ch=1 n=56 v=123
40992 On ch=1 n=60 v=123
40992 On ch=1 n=63 v=123
40992 On ch=1 n=68 v=120
40992 On ch=3 n=72 v=113
41002 On ch=10 n=35 v=0
41016 On ch=10 n=46 v=0
41023 On ch=3 n=72 v=0
41031 On ch=2 n=32 v=0
41033 On ch=5 n=60 v=0
41039 On ch=2 n=32 v=125
41039 On ch=10 n=35 v=123
41039 On ch=10 n=46 v=114
41040 On ch=3 n=74 v=110
41040 On ch=5 n=60 v=117
41048 On ch=3 n=63 v=0
41050 On ch=10 n=46 v=0
41057 On ch=3 n=60 v=0
41061 On ch=10 n=35 v=0
41064 On ch=5 n=62 v=114
41068 On ch=5 n=60 v=0
41068 On ch=1 n=60 v=0
41077 On ch=1 n=51 v=0
41081 On ch=2 n=32 v=0
41085 On ch=1 n=63 v=0
41086 On ch=3 n=74 v=0
41087 On ch=2 n=39 v=125
41087 On ch=10 n=35 v=123
41087 On ch=10 n=46 v=122
41088 On ch=1 n=51 v=122
41088 On ch=1 n=58 v=117
41088 On ch=1 n=63 v=115
41088 On ch=1 n=67 v=119
41088 On ch=3 n=63 v=114
41088 On ch=3 n=67 v=114
41088 On ch=3 n=70 v=114
41088 On ch=5 n=58 v=116
41089 On ch=1 n=56 v=0
41091 On ch=3 n=68 v=0
41094 On ch=5 n=62 v=0
41095 On ch=1 n=68 v=0
41095 On ch=1 n=44 v=0
41101 On ch=10 n=46 v=0
41133 On ch=1 n=51 v=0
41135 On ch=10 n=46 v=111
41136 On ch=1 n=51 v=109
41150 On ch=10 n=40 v=0
41159 On ch=10 n=46 v=0
41181 On ch=1 n=67 v=0
41182 On ch=1 n=58 v=0
41183 On ch=10 n=40 v=124
41183 On ch=10 n=46 v=123
41184 On ch=1 n=58 v=115
41200 On ch=10 n=46 v=0
41212 On ch=10 n=35 v=0
41219 On ch=1 n=58 v=0
41226 On ch=1 n=63 v=0
41230 On ch=1 n=51 v=0
41231 On ch=10 n=35 v=123
41231 On ch=10 n=46 v=120
41240 On ch=10 n=40 v=0
41244 On ch=10 n=46 v=0
41247 On ch=10 n=49 v=0
41248 On ch=5 n=58 v=0
41256 On ch=2 n=39 v=0
41275 On ch=10 n=35 v=0
41279 On ch=2 n=36 v=123
41279 On ch=10 n=35 v=123
41279 On ch=10 n=49 v=122
41280 On ch=3 n=67 v=0
41280 On ch=3 n=63 v=0
41280 On ch=3 n=70 v=0
41280 On ch=1 n=48 v=122
41280 On ch=1 n=67 v=123
41280 On ch=1 n=72 v=122
41280 On ch=6 n=80 v=121
41324 On ch=6 n=80 v=0
41328 On ch=1 n=55 v=117
41328 On ch=1 n=63 v=120
41328 On ch=6 n=79 v=122
41333 On ch=1 n=72 v=0
41341 On ch=1 n=67 v=0
41369 On ch=10 n=49 v=0
41375 On ch=10 n=40 v=123
41375 On ch=10 n=42 v=122
41376 On ch=1 n=60 v=123
41376 On ch=1 n=67 v=123
41376 On ch=1 n=72 v=122
41376 On ch=6 n=75 v=120
41377 On ch=1 n=55 v=0
41381 On ch=6 n=79 v=0
41382 On ch=1 n=63 v=0
41393 On ch=10 n=35 v=0
41403 On ch=2 n=36 v=0
41412 On ch=10 n=42 v=0
41423 On ch=1 n=60 v=0
41423 On ch=6 n=75 v=0
41423 On ch=2 n=36 v=119
41423 On ch=10 n=35 v=118
41423 On ch=10 n=42 v=117
41424 On ch=1 n=55 v=122
41424 On ch=1 n=63 v=121
41424 On ch=6 n=67 v=121
41425 On ch=1 n=48 v=0
41428 On ch=1 n=67 v=0
41443 On ch=10 n=42 v=0
41447 On ch=10 n=35 v=0
41448 On ch=6 n=70 v=119
41454 On ch=6 n=67 v=0
41468 On ch=2 n=36 v=0
41469 On ch=1 n=55 v=0
41470 On ch=1 n=63 v=0
41471 On ch=2 n=31 v=123
41471 On ch=10 n=35 v=122
41471 On ch=10 n=42 v=121
41472 On ch=1 n=43 v=121
41472 On ch=1 n=67 v=121
41472 On ch=1 n=70 v=122
41478 On ch=1 n=72 v=0
41498 On ch=10 n=42 v=0
41519 On ch=10 n=42 v=111
41520 On ch=1 n=50 v=114
41520 On ch=1 n=62 v=116
41529 On ch=1 n=67 v=0
41532 On ch=10 n=40 v=0
41534 On ch=10 n=42 v=0
41546 On ch=1 n=70 v=0
41567 On ch=10 n=40 v=124
41567 On ch=10 n=42 v=123
41568 On ch=1 n=55 v=122
41568 On ch=1 n=67 v=123
41568 On ch=1 n=70 v=122
41574 On ch=1 n=50 v=0
41599 On ch=10 n=42 v=0
41607 On ch=1 n=62 v=0
41615 On ch=2 n=34 v=120
41615 On ch=10 n=42 v=113
41616 On ch=1 n=50 v=114
41616 On ch=1 n=62 v=122
41618 On ch=1 n=43 v=0
41618 On ch=2 n=31 v=0
41629 On ch=10 n=35 v=0
41634 On ch=10 n=42 v=0
41635 On ch=1 n=50 v=0
41647 On ch=1 n=62 v=0
41657 On ch=6 n=70 v=0
41661 On ch=1 n=55 v=0
41663 On ch=2 n=36 v=125
41663 On ch=10 n=35 v=123
41663 On ch=10 n=42 v=122
41664 On ch=1 n=48 v=121
41664 On ch=1 n=63 v=123
41664 On ch=1 n=72 v=122
41664 On ch=6 n=79 v=121
41665 On ch=2 n=34 v=0
41667 On ch=1 n=70 v=0
41690 On ch=10 n=42 v=0
41711 On ch=10 n=42 v=114
41712 On ch=1 n=55 v=119
41712 On ch=6 n=77 v=120
41717 On ch=6 n=79 v=0
41718 On ch=10 n=40 v=0
41729 On ch=10 n=42 v=0
41729 On ch=1 n=72 v=0
41738 On ch=1 n=67 v=0
41759 On ch=10 n=40 v=124
41759 On ch=10 n=42 v=122
41760 On ch=1 n=60 v=123
41760 On ch=1 n=67 v=123
41760 On ch=1 n=72 v=122
41760 On ch=6 n=75 v=119
41763 On ch=1 n=63 v=0
41763 On ch=1 n=55 v=0
41765 On ch=6 n=77 v=0
41777 On ch=10 n=35 v=0
41790 On ch=10 n=42 v=0
41801 On ch=2 n=36 v=0
41807 On ch=1 n=60 v=0
41807 On ch=2 n=36 v=123
41807 On ch=10 n=35 v=123
41807 On ch=10 n=42 v=117
41808 On ch=1 n=55 v=121
41808 On ch=1 n=63 v=121
41808 On ch=6 n=74 v=119
41810 On ch=1 n=48 v=0
41815 On ch=1 n=67 v=0
41816 On ch=6 n=75 v=0
41824 On ch=10 n=42 v=0
41825 On ch=1 n=55 v=0
41831 On ch=10 n=35 v=0
41832 On ch=6 n=70 v=120
41837 On ch=6 n=74 v=0
41848 On ch=1 n=63 v=0
41849 On ch=2 n=36 v=0
41855 On ch=2 n=31 v=125
41855 On ch=10 n=35 v=123
41855 On ch=10 n=42 v=122
41856 On ch=1 n=43 v=123
41856 On ch=1 n=62 v=118
41856 On ch=1 n=67 v=122
41856 On ch=1 n=70 v=122
41865 On ch=1 n=72 v=0
41896 On ch=10 n=42 v=0
41903 On ch=10 n=46 v=121
41913 On ch=10 n=40 v=0
41951 On ch=10 n=40 v=124
41951 On ch=10 n=42 v=122
41952 On ch=10 n=46 v=0
41973 On ch=10 n=35 v=0
41993 On ch=10 n=42 v=0
41997 On ch=1 n=43 v=0
41999 On ch=2 n=34 v=117
41999 On ch=10 n=35 v=123
41999 On ch=10 n=46 v=122
42008 On ch=2 n=31 v=0
42020 On ch=10 n=35 v=0
42020 On ch=1 n=62 v=0
42035 On ch=1 n=67 v=0
42046 On ch=6 n=70 v=0
42047 On ch=10 n=46 v=0
42047 On ch=2 n=36 v=125
42047 On ch=10 n=35 v=124
42047 On ch=10 n=49 v=122
42048 On ch=1 n=48 v=121
42048 On ch=1 n=63 v=123
42048 On ch=1 n=67 v=120
42048 On ch=1 n=72 v=123
42048 On ch=6 n=79 v=120
42049 On ch=2 n=34 v=0
42053 On ch=1 n=70 v=0
42094 On ch=6 n=79 v=0
42096 On ch=6 n=75 v=118
42123 On ch=1 n=67 v=0
42144 On ch=1 n=67 v=18
42144 On ch=6 n=77 v=119
42145 On ch=6 n=75 v=0
42166 On ch=1 n=72 v=0
42179 On ch=10 n=49 v=0
42192 On ch=1 n=72 v=18
42192 On ch=6 n=79 v=119
42198 On ch=10 n=35 v=0
42200 On ch=6 n=77 v=0
42208 On ch=1 n=72 v=0
42216 On ch=6 n=75 v=118
42219 On ch=6 n=79 v=0
42225 On ch=1 n=63 v=0
42229 On ch=1 n=67 v=0
42232 On ch=2 n=36 v=0
42239 On ch=2 n=32 v=123
42239 On ch=10 n=35 v=124
42239 On ch=10 n=57 v=123
42240 On ch=1 n=44 v=122
42240 On ch=1 n=56 v=120
42240 On ch=1 n=59 v=123
42240 On ch=1 n=63 v=122
42240 On ch=1 n=68 v=122
42252 On ch=1 n=48 v=0
42264 On ch=6 n=75 v=0
42264 On ch=6 n=71 v=117
42431 On ch=10 n=51 v=120
42457 On ch=10 n=51 v=0
42479 On ch=10 n=51 v=119
42535 On ch=10 n=51 v=0
42551 On ch=10 n=51 v=120
42578 On ch=1 n=59 v=0
42590 On ch=10 n=57 v=0
42593 On ch=10 n=35 v=0
42601 On ch=1 n=63 v=0
42604 On ch=1 n=68 v=0
42612 On ch=6 n=71 v=0
42622 On ch=1 n=56 v=0
42623 On ch=2 n=34 v=125
42623 On ch=10 n=35 v=124
42623 On ch=10 n=49 v=123
42624 On ch=1 n=46 v=123
42624 On ch=1 n=60 v=123
42624 On ch=1 n=63 v=122
42624 On ch=1 n=68 v=123
42624 On ch=3 n=79 v=104
42624 On ch=6 n=78 v=117
42624 On ch=6 n=79 v=121
42624 On ch=7 n=66 v=115
42624 On ch=7 n=67 v=120
42631 On ch=1 n=44 v=0
42632 On ch=2 n=32 v=0
42637 On ch=7 n=66 v=0
42637 On ch=6 n=78 v=0
42672 On ch=7 n=67 v=0
42672 On ch=6 n=79 v=0
42672 On ch=3 n=77 v=110
42672 On ch=6 n=77 v=120
42672 On ch=7 n=65 v=119
42678 On ch=3 n=79 v=0
42710 On ch=1 n=68 v=0
42713 On ch=3 n=77 v=0
42715 On ch=7 n=65 v=0
42715 On ch=6 n=77 v=0
42717 On ch=1 n=63 v=0
42720 On ch=1 n=63 v=117
42720 On ch=1 n=68 v=120
42720 On ch=3 n=77 v=116
42720 On ch=6 n=77 v=121
42720 On ch=7 n=65 v=120
42739 On ch=1 n=60 v=0
42768 On ch=1 n=58 v=118
42768 On ch=3 n=75 v=112
42768 On ch=6 n=75 v=118
42768 On ch=7 n=63 v=117
42770 On ch=1 n=63 v=0
42776 On ch=6 n=77 v=0
42776 On ch=3 n=77 v=0
42776 On ch=7 n=65 v=0
42781 On ch=1 n=68 v=0
42809 On ch=6 n=75 v=0
42809 On ch=7 n=63 v=0
42815 On ch=3 n=75 v=0
42816 On ch=1 n=60 v=119
42816 On ch=1 n=63 v=118
42816 On ch=1 n=68 v=118
42816 On ch=3 n=75 v=111
42816 On ch=6 n=75 v=119
42816 On ch=7 n=63 v=118
42825 On ch=1 n=58 v=0
42864 On ch=7 n=63 v=0
42864 On ch=6 n=75 v=0
42864 On ch=3 n=72 v=114
42864 On ch=6 n=72 v=118
42864 On ch=7 n=60 v=116
42866 On ch=3 n=75 v=0
42888 On ch=1 n=58 v=18
42960 On ch=3 n=74 v=112
42960 On ch=6 n=74 v=120
42960 On ch=7 n=62 v=119
42962 On ch=3 n=72 v=0
42967 On ch=7 n=60 v=0
42967 On ch=6 n=72 v=0
42969 On ch=1 n=58 v=0
42970 On ch=1 n=68 v=0
42982 On ch=1 n=63 v=0
42990 On ch=10 n=35 v=0
42994 On ch=1 n=60 v=0
43003 On ch=10 n=49 v=0
43005 On ch=1 n=46 v=0
43007 On ch=6 n=74 v=0
43007 On ch=7 n=62 v=0
43007 On ch=2 n=34 v=0
43007 On ch=3 n=74 v=0
43007 On ch=2 n=39 v=124
43007 On ch=10 n=35 v=122
43007 On ch=10 n=52 v=119
43008 On ch=1 n=39 v=117
43008 On ch=1 n=58 v=119
43008 On ch=1 n=63 v=121
43008 On ch=1 n=67 v=122
43008 On ch=3 n=63 v=96
43008 On ch=3 n=67 v=65
43008 On ch=3 n=75 v=103
43008 On ch=6 n=75 v=120
43008 On ch=7 n=63 v=119
43024 On ch=10 n=51 v=0
43056 On ch=1 n=58 v=0
43056 On ch=1 n=46 v=119
43084 On ch=1 n=63 v=0
43088 On ch=1 n=67 v=0
43103 On ch=10 n=51 v=119
43104 On ch=1 n=51 v=122
43104 On ch=1 n=67 v=123
43107 On ch=1 n=46 v=0
43108 On ch=1 n=39 v=0
43143 On ch=10 n=35 v=0
43151 On ch=10 n=51 v=0
43151 On ch=10 n=35 v=121
43152 On ch=1 n=70 v=122
43154 On ch=1 n=67 v=0
43175 On ch=3 n=67 v=0
43181 On ch=1 n=51 v=0
43186 On ch=10 n=35 v=0
43197 On ch=3 n=75 v=0
43199 On ch=10 n=35 v=123
43199 On ch=10 n=51 v=119
43200 On ch=1 n=56 v=122
43200 On ch=1 n=63 v=117
43200 On ch=1 n=68 v=122
43200 On ch=1 n=72 v=120
43200 On ch=3 n=68 v=111
43200 On ch=3 n=72 v=111
43206 On ch=1 n=70 v=0
43247 On ch=10 n=51 v=0
43248 On ch=1 n=70 v=123
43248 On ch=1 n=74 v=118
43248 On ch=3 n=74 v=110
43255 On ch=1 n=72 v=0
43258 On ch=3 n=72 v=0
43260 On ch=1 n=68 v=0
43295 On ch=10 n=51 v=119
43296 On ch=1 n=68 v=120
43296 On ch=1 n=72 v=121
43296 On ch=3 n=72 v=110
43297 On ch=1 n=74 v=0
43303 On ch=1 n=70 v=0
43321 On ch=3 n=74 v=0
43343 On ch=10 n=51 v=0
43344 On ch=1 n=74 v=118
43344 On ch=3 n=74 v=89
43347 On ch=3 n=72 v=0
43376 On ch=1 n=68 v=0
43380 On ch=10 n=35 v=0
43384 On ch=3 n=68 v=0
43391 On ch=1 n=72 v=0
43391 On ch=3 n=74 v=0
43391 On ch=10 n=35 v=122
43391 On ch=10 n=51 v=119
43392 On ch=1 n=55 v=117
43392 On ch=1 n=67 v=122
43392 On ch=1 n=70 v=121
43392 On ch=3 n=67 v=96
43392 On ch=3 n=70 v=101
43396 On ch=1 n=74 v=0
43403 On ch=1 n=63 v=0
43408 On ch=1 n=56 v=0
43439 On ch=10 n=51 v=0
43440 On ch=1 n=63 v=121
43454 On ch=1 n=67 v=0
43457 On ch=1 n=70 v=0
43487 On ch=10 n=51 v=119
43488 On ch=1 n=67 v=121
43532 On ch=10 n=35 v=0
43534 On ch=1 n=67 v=0
43535 On ch=10 n=35 v=117
43536 On ch=1 n=70 v=120
43543 On ch=10 n=51 v=0
43566 On ch=1 n=63 v=0
43570 On ch=10 n=35 v=0
43583 On ch=10 n=35 v=122
43583 On ch=10 n=51 v=120
43584 On ch=3 n=70 v=0
43584 On ch=1 n=55 v=0
43584 On ch=1 n=70 v=0
43584 On ch=1 n=54 v=121
43584 On ch=1 n=66 v=122
43584 On ch=1 n=69 v=122
43584 On ch=1 n=72 v=119
43584 On ch=3 n=66 v=110
43584 On ch=3 n=72 v=103
43590 On ch=3 n=67 v=0
43593 On ch=6 n=75 v=0
43593 On ch=7 n=63 v=0
43632 On ch=1 n=74 v=117
43632 On ch=3 n=74 v=112
43639 On ch=1 n=72 v=0
43643 On ch=3 n=72 v=0
43644 On ch=10 n=51 v=0
43676 On ch=3 n=74 v=0
43679 On ch=1 n=74 v=0
43679 On ch=10 n=51 v=119
43680 On ch=1 n=72 v=117
43680 On ch=3 n=72 v=108
43683 On ch=2 n=39 v=0
43728 On ch=1 n=74 v=118
43728 On ch=3 n=74 v=100
43733 On ch=1 n=69 v=0
43734 On ch=1 n=72 v=0
43738 On ch=1 n=66 v=0
43745 On ch=3 n=72 v=0
43754 On ch=10 n=51 v=0
43759 On ch=10 n=35 v=0
43775 On ch=3 n=63 v=0
43775 On ch=10 n=35 v=121
43775 On ch=10 n=51 v=119
43776 On ch=1 n=53 v=120
43776 On ch=1 n=65 v=121
43776 On ch=1 n=70 v=122
43776 On ch=3 n=62 v=113
43776 On ch=3 n=65 v=71
43776 On ch=3 n=70 v=106
43778 On ch=1 n=74 v=0
43781 On ch=3 n=62 v=0
43783 On ch=1 n=54 v=0
43787 On ch=3 n=66 v=0
43824 On ch=1 n=62 v=122
43829 On ch=1 n=65 v=0
43841 On ch=10 n=51 v=0
43871 On ch=10 n=51 v=119
43872 On ch=1 n=65 v=116
43883 On ch=1 n=70 v=0
43912 On ch=1 n=62 v=0
43920 On ch=1 n=70 v=120
43933 On ch=10 n=51 v=0
43949 On ch=1 n=65 v=0
43955 On ch=1 n=70 v=0
43959 On ch=3 n=70 v=0
43962 On ch=10 n=35 v=0
43967 On ch=10 n=35 v=120
43967 On ch=10 n=51 v=120
43968 On ch=1 n=61 v=121
43968 On ch=1 n=65 v=122
43968 On ch=1 n=70 v=123
43968 On ch=3 n=61 v=116
43968 On ch=3 n=70 v=110
43973 On ch=3 n=74 v=0
44016 On ch=1 n=68 v=118
44016 On ch=3 n=68 v=112
44023 On ch=3 n=70 v=0
44027 On ch=1 n=70 v=0
44030 On ch=10 n=51 v=0
44050 On ch=1 n=68 v=0
44060 On ch=3 n=68 v=0
44063 On ch=10 n=51 v=118
44064 On ch=1 n=68 v=121
44064 On ch=3 n=68 v=116
44089 On ch=10 n=35 v=0
44103 On ch=3 n=68 v=0
44111 On ch=10 n=35 v=118
44112 On ch=1 n=65 v=0
44112 On ch=1 n=67 v=117
44112 On ch=3 n=67 v=114
44113 On ch=1 n=68 v=0
44119 On ch=10 n=51 v=0
44127 On ch=1 n=61 v=0
44137 On ch=3 n=65 v=0
44138 On ch=1 n=67 v=0
44147 On ch=10 n=35 v=0
44159 On ch=10 n=35 v=121
44159 On ch=10 n=51 v=118
44160 On ch=1 n=52 v=115
44160 On ch=1 n=60 v=117
44160 On ch=1 n=64 v=115
44160 On ch=1 n=67 v=121
44160 On ch=3 n=60 v=111
44160 On ch=3 n=64 v=106
44167 On ch=3 n=61 v=0
44168 On ch=1 n=53 v=0
44197 On ch=1 n=60 v=0
44208 On ch=1 n=60 v=114
44221 On ch=10 n=51 v=0
44223 On ch=1 n=64 v=0
44255 On ch=10 n=51 v=118
44256 On ch=1 n=64 v=122
44265 On ch=1 n=67 v=0
44303 On ch=2 n=46 v=112
44304 On ch=1 n=70 v=117
44315 On ch=10 n=51 v=0
44331 On ch=1 n=70 v=0
44335 On ch=2 n=46 v=0
44351 On ch=2 n=46 v=114
44351 On ch=10 n=51 v=118
44352 On ch=1 n=70 v=120
44352 On ch=3 n=70 v=101
44359 On ch=3 n=64 v=0
44399 On ch=2 n=44 v=118
44400 On ch=1 n=68 v=118
44400 On ch=3 n=68 v=113
44402 On ch=3 n=67 v=0
44405 On ch=10 n=51 v=0
44406 On ch=2 n=46 v=0
44406 On ch=3 n=70 v=0
44410 On ch=1 n=70 v=0
44432 On ch=1 n=68 v=0
44446 On ch=3 n=68 v=0
44447 On ch=10 n=51 v=119
44448 On ch=1 n=68 v=115
44448 On ch=3 n=68 v=117
44452 On ch=10 n=52 v=0
44483 On ch=1 n=68 v=0
44485 On ch=1 n=52 v=0
44495 On ch=3 n=68 v=0
44495 On ch=2 n=43 v=119
44496 On ch=1 n=67 v=115
44496 On ch=3 n=67 v=117
44504 On ch=2 n=44 v=0
44516 On ch=1 n=60 v=0
44518 On ch=10 n=51 v=0
44529 On ch=2 n=43 v=0
44530 On ch=1 n=67 v=0
44536 On ch=3 n=67 v=0
44543 On ch=2 n=43 v=120
44543 On ch=10 n=51 v=118
44544 On ch=1 n=36 v=123
44544 On ch=1 n=48 v=120
44544 On ch=1 n=60 v=121
44544 On ch=1 n=67 v=123
44544 On ch=3 n=67 v=116
44548 On ch=1 n=64 v=0
44591 On ch=2 n=43 v=0
44591 On ch=2 n=40 v=119
44592 On ch=1 n=60 v=0
44592 On ch=1 n=64 v=122
44592 On ch=3 n=64 v=114
44594 On ch=1 n=36 v=0
44597 On ch=3 n=60 v=0
44621 On ch=10 n=51 v=0
44630 On ch=2 n=40 v=0
44639 On ch=2 n=36 v=120
44639 On ch=10 n=51 v=108
44640 On ch=1 n=60 v=101
44640 On ch=3 n=60 v=108
44644 On ch=1 n=64 v=0
44650 On ch=3 n=64 v=0
44687 On ch=2 n=34 v=120
44688 On ch=1 n=58 v=122
44688 On ch=3 n=58 v=108
44689 On ch=2 n=36 v=0
44725 On ch=1 n=60 v=0
44731 On ch=1 n=58 v=0
44735 On ch=2 n=33 v=120
44735 On ch=10 n=49 v=117
44736 On ch=1 n=48 v=0
44736 On ch=1 n=53 v=123
44736 On ch=1 n=57 v=123
44736 On ch=1 n=60 v=123
44736 On ch=1 n=65 v=123
44736 On ch=3 n=57 v=111
44736 On ch=3 n=65 v=106
44739 On ch=2 n=34 v=0
44740 On ch=3 n=58 v=0
44742 On ch=3 n=67 v=0
44744 On ch=10 n=51 v=0
44780 On ch=1 n=48 v=115
44784 On ch=1 n=53 v=0
44784 On ch=1 n=60 v=0
44784 On ch=1 n=57 v=0
44784 On ch=1 n=65 v=0
44830 On ch=1 n=48 v=0
44830 On ch=1 n=53 v=120
44831 On ch=10 n=40 v=0
44831 On ch=1 n=67 v=0
44832 On ch=1 n=65 v=120
44885 On ch=1 n=48 v=102
44892 On ch=10 n=35 v=0
44895 On ch=1 n=53 v=0
44919 On ch=2 n=33 v=0
44927 On ch=3 n=60 v=0
44928 On ch=3 n=58 v=107
44928 On ch=3 n=60 v=18
44931 On ch=1 n=62 v=118
44932 On ch=1 n=46 v=119
44932 On ch=1 n=53 v=117
44932 On ch=1 n=58 v=122
44933 On ch=1 n=65 v=0
44936 On ch=10 n=49 v=0
44938 On ch=1 n=48 v=0
44940 On ch=3 n=57 v=0
44941 On ch=3 n=60 v=0
44991 On ch=1 n=62 v=0
44996 On ch=1 n=62 v=105
45014 On ch=3 n=58 v=0
45024 On ch=3 n=57 v=110
45039 On ch=1 n=57 v=109
45040 On ch=1 n=60 v=121
45041 On ch=1 n=45 v=120
45043 On ch=1 n=62 v=0
45045 On ch=1 n=58 v=0
45046 On ch=1 n=46 v=0
45084 On ch=1 n=57 v=0
45093 On ch=1 n=60 v=0
45103 On ch=1 n=60 v=119
45104 On ch=1 n=57 v=119
45144 On ch=3 n=56 v=106
45148 On ch=1 n=57 v=0
45149 On ch=3 n=57 v=0
45160 On ch=1 n=60 v=0
45164 On ch=1 n=59 v=114
45165 On ch=1 n=44 v=117
45166 On ch=1 n=56 v=122
45171 On ch=1 n=45 v=0
45247 On ch=1 n=65 v=119
45312 On ch=3 n=55 v=89
45312 On ch=3 n=62 v=76
45314 On ch=3 n=56 v=0
45327 On ch=1 n=59 v=0
45338 On ch=1 n=56 v=0
45340 On ch=1 n=55 v=115
45341 On ch=1 n=43 v=122
45341 On ch=1 n=58 v=122
45353 On ch=1 n=44 v=0
45364 On ch=1 n=65 v=0
45453 On ch=1 n=65 v=119
45590 On ch=3 n=55 v=0
45624 On ch=3 n=41 v=18
45624 On ch=3 n=53 v=18
45624 On ch=3 n=57 v=18
45671 On ch=1 n=65 v=0
45671 On ch=3 n=62 v=0
45671 On ch=1 n=53 v=0
45672 On ch=1 n=55 v=0
45672 On ch=1 n=41 v=122
45674 On ch=1 n=58 v=0
45677 On ch=1 n=43 v=0
45678 On ch=1 n=53 v=122
45684 On ch=1 n=57 v=122
45690 On ch=1 n=60 v=122
45696 On ch=1 n=65 v=123
46141 On ch=3 n=41 v=0
46149 On ch=3 n=53 v=0
46150 On ch=3 n=65 v=0
46154 On ch=3 n=57 v=0
46248 On ch=1 n=41 v=0
46266 On ch=1 n=60 v=0
46278 On ch=1 n=53 v=0
46284 On ch=1 n=57 v=0
46320 On ch=1 n=65 v=0
46464 Par ch=1 c=120 v=0
46464 Par ch=2 c=120 v=0
46464 Par ch=3 c=120 v=0
46464 Par ch=4 c=120 v=0
46464 Par ch=5 c=120 v=0
46464 Par ch=6 c=120 v=0
46464 Par ch=7 c=120 v=0
46464 Par ch=13 c=120 v=0
46464 Par ch=12 c=120 v=0
46464 Par ch=11 c=120 v=0
46464 Par ch=10 c=120 v=0
46464 Par ch=9 c=120 v=0
46464 Par ch=8 c=120 v=0
46465 Par ch=1 c=123 v=0
46465 Par ch=2 c=123 v=0
46465 Par ch=3 c=123 v=0
46465 Par ch=4 c=123 v=0
46465 Par ch=5 c=123 v=0
46465 Par ch=6 c=123 v=0
46465 Par ch=7 c=123 v=0
46465 Par ch=13 c=123 v=0
46465 Par ch=12 c=123 v=0
46465 Par ch=11 c=123 v=0
46465 Par ch=10 c=123 v=0
46465 Par ch=9 c=123 v=0
46465 Par ch=8 c=123 v=0
46465 Meta TrkEnd
TrkEnd
