MFile 1 22 120
MTrk
0 Meta SeqName "untitled"
0 Meta Copyright "by Sirio"
0 TimeSig 4/4 24 8
0 KeySig 1 major
0 Tempo 882353
360 Tempo 833333
720 Tempo 750000
1440 Tempo 833333
41040 Tempo 882353
41520 Tempo 750000
41760 Tempo 833333
41760 Meta TrkEnd
TrkEnd
MTrk
0 Meta TrkName "Words"
1200 Meta Text "\\There's"
1320 Meta Text " no"
1440 Meta Text " time"
1620 Meta Text " for"
1680 Meta Text " us,"
2220 Meta Text "/There's"
2280 Meta Text " no"
2400 Meta Text " place"
2520 Meta Text " for"
2580 Meta Text " us,"
3120 Meta Text "\\What"
3210 Meta Text " is"
3300 Meta Text " this"
3360 Meta Text " thing"
3540 Meta Text " that"
3600 Meta Text " builds"
3660 Meta Text " our"
3780 Meta Text " dreams"
4140 Meta Text "/yet"
4200 Meta Text " slips"
4260 Meta Text " a"
4320 Meta Text "way"
4500 Meta Text " from"
4560 Meta Text " us."
5220 Meta Text "\\Who"
5280 Meta Text " wants"
5460 Meta Text " to"
5520 Meta Text " live"
5700 Meta Text " fo"
5760 Meta Text "re"
5790 Meta Text "ver?"
6180 Meta Text "/Who"
6240 Meta Text " wants"
6420 Meta Text " to"
6480 Meta Text " live"
6660 Meta Text " fo"
6720 Meta Text "re"
6750 Meta Text "ver?"
8040 Meta Text "\\There's"
8100 Meta Text " no"
8160 Meta Text " chance"
8340 Meta Text " for"
8400 Meta Text " us,"
8970 Meta Text "/It's"
9000 Meta Text " all"
9060 Meta Text " de"
9120 Meta Text "ci"
9180 Meta Text "ded"
9240 Meta Text " for"
9300 Meta Text " us"
9840 Meta Text "\\This"
9930 Meta Text " world"
10020 Meta Text " has"
10080 Meta Text " on"
10260 Meta Text "ly"
10320 Meta Text " one"
10380 Meta Text " sweet"
10500 Meta Text " mo"
10620 Meta Text "ment"
10920 Meta Text "/set"
10980 Meta Text " a"
11040 Meta Text "side"
11160 Meta Text " for"
11220 Meta Text " us"
11940 Meta Text "\\Who"
12000 Meta Text " wants"
12180 Meta Text " to"
12240 Meta Text " live"
12420 Meta Text " fo"
12480 Meta Text "re"
12510 Meta Text "ver?"
12900 Meta Text "/Who"
12960 Meta Text " wants"
13140 Meta Text " to"
13200 Meta Text " live"
13380 Meta Text " fo"
13440 Meta Text "re"
13470 Meta Text "ver?"
15300 Meta Text "\\Who"
15360 Meta Text " dares"
15540 Meta Text " to"
15600 Meta Text " love"
15780 Meta Text " fo"
15840 Meta Text "re"
15870 Meta Text "ver,"
16320 Meta Text "/oh,"
17100 Meta Text "/when"
17160 Meta Text " love"
17220 Meta Text " must"
17280 Meta Text " die"
21900 Meta Text "\\But"
21960 Meta Text " touch"
22020 Meta Text " my"
22080 Meta Text " tears"
22440 Meta Text " with"
22500 Meta Text " your"
22560 Meta Text " lips,"
22920 Meta Text "/Touch"
22980 Meta Text " my"
23040 Meta Text " world"
23340 Meta Text " with"
23370 Meta Text " your"
23400 Meta Text " fin"
23460 Meta Text "ger"
23520 Meta Text "tips"
23970 Meta Text "\\And"
24000 Meta Text " we"
24210 Meta Text " can"
24240 Meta Text " have"
24450 Meta Text " fo"
24480 Meta Text "re"
24510 Meta Text "ver,"
24930 Meta Text "/And"
24960 Meta Text " we"
25140 Meta Text " can"
25200 Meta Text " love"
25410 Meta Text " fo"
25440 Meta Text "re"
25470 Meta Text "ver"
25860 Meta Text "/Fo"
25920 Meta Text "re"
26070 Meta Text "ver"
26340 Meta Text " is"
26400 Meta Text " our"
26580 Meta Text " to"
26610 Meta Text "day"
27300 Meta Text "\\Who"
27360 Meta Text " wants"
27570 Meta Text " to"
27600 Meta Text " live"
27810 Meta Text " fo"
27840 Meta Text "re"
27870 Meta Text "ver?"
28260 Meta Text "/Who"
28320 Meta Text " wants"
28530 Meta Text " to"
28560 Meta Text " live"
28770 Meta Text " fo"
28800 Meta Text "re"
28830 Meta Text "ver?"
29220 Meta Text "/Fo"
29280 Meta Text "re"
29460 Meta Text "ver"
29700 Meta Text " is"
29760 Meta Text " our"
29910 Meta Text " to"
29940 Meta Text "day"
31110 Meta Text "\\Who"
31140 Meta Text " waits"
31170 Meta Text " fo"
31200 Meta Text "re"
31230 Meta Text "ver"
31260 Meta Text " a"
31290 Meta Text "ny"
31320 Meta Text "way?"
31320 Meta TrkEnd
TrkEnd
MTrk
0 Meta TrkName "Guitar 1            "
0 PrCh ch=1 p=29
0 Par ch=1 c=7 v=127
0 Par ch=1 c=121 v=0
0 Par ch=1 c=91 v=80
18180 On ch=1 n=71 v=100
18240 On ch=1 n=71 v=0
18240 On ch=1 n=79 v=100
18600 On ch=1 n=79 v=0
18600 On ch=1 n=78 v=100
18660 On ch=1 n=78 v=0
18660 On ch=1 n=71 v=100
18720 On ch=1 n=71 v=0
18720 On ch=1 n=76 v=100
19080 On ch=1 n=76 v=0
19200 On ch=1 n=79 v=100
19500 On ch=1 n=79 v=0
19500 On ch=1 n=78 v=100
19530 On ch=1 n=78 v=0
19530 On ch=1 n=79 v=100
19560 On ch=1 n=79 v=0
19560 On ch=1 n=78 v=100
19620 On ch=1 n=78 v=0
19620 On ch=1 n=71 v=100
19680 On ch=1 n=71 v=0
19680 On ch=1 n=76 v=100
20040 On ch=1 n=76 v=0
20040 On ch=1 n=78 v=100
20100 On ch=1 n=78 v=0
20100 On ch=1 n=79 v=100
20160 On ch=1 n=79 v=0
20160 On ch=1 n=79 v=100
20460 On ch=1 n=79 v=0
20460 On ch=1 n=76 v=100
20520 On ch=1 n=76 v=0
20520 On ch=1 n=78 v=100
20580 On ch=1 n=78 v=0
20580 On ch=1 n=79 v=100
20640 On ch=1 n=79 v=0
20640 On ch=1 n=79 v=100
20680 On ch=1 n=79 v=0
20680 On ch=1 n=81 v=100
20720 On ch=1 n=81 v=0
20720 On ch=1 n=83 v=100
21000 On ch=1 n=83 v=0
21030 On ch=1 n=71 v=100
21060 On ch=1 n=71 v=0
21060 On ch=1 n=76 v=100
21090 On ch=1 n=76 v=0
21090 On ch=1 n=78 v=100
21120 On ch=1 n=79 v=100
21128 On ch=1 n=78 v=0
21150 On ch=1 n=79 v=0
21150 On ch=1 n=78 v=100
21180 On ch=1 n=78 v=0
21180 On ch=1 n=79 v=100
21210 On ch=1 n=79 v=0
21210 On ch=1 n=78 v=100
21240 On ch=1 n=78 v=0
21240 On ch=1 n=79 v=100
21270 On ch=1 n=79 v=0
21270 On ch=1 n=78 v=100
21300 On ch=1 n=78 v=0
21300 On ch=1 n=76 v=100
21330 On ch=1 n=76 v=0
21330 On ch=1 n=74 v=100
21360 On ch=1 n=74 v=0
21360 On ch=1 n=76 v=100
21405 On ch=1 n=76 v=0
21405 On ch=1 n=74 v=100
21420 On ch=1 n=74 v=0
21420 On ch=1 n=71 v=100
21450 On ch=1 n=71 v=0
21450 On ch=1 n=69 v=100
21480 On ch=1 n=69 v=0
21480 On ch=1 n=67 v=100
21510 On ch=1 n=67 v=0
21510 On ch=1 n=66 v=100
21540 On ch=1 n=66 v=0
21540 On ch=1 n=64 v=100
21570 On ch=1 n=64 v=0
21570 On ch=1 n=62 v=100
21600 On ch=1 n=62 v=0
21600 On ch=1 n=60 v=100
21600 On ch=1 n=67 v=100
21600 On ch=1 n=72 v=100
22020 On ch=1 n=72 v=0
22020 On ch=1 n=67 v=0
22020 On ch=1 n=60 v=0
24000 On ch=1 n=67 v=100
24240 On ch=1 n=67 v=0
24240 On ch=1 n=66 v=100
24480 On ch=1 n=66 v=0
24480 On ch=1 n=64 v=100
24960 On ch=1 n=64 v=0
24960 On ch=1 n=67 v=100
25200 On ch=1 n=67 v=0
25200 On ch=1 n=66 v=100
25440 On ch=1 n=66 v=0
25440 On ch=1 n=64 v=100
25680 On ch=1 n=64 v=0
25680 On ch=1 n=64 v=100
25710 On ch=1 n=64 v=0
25710 On ch=1 n=64 v=100
25740 On ch=1 n=64 v=0
25740 On ch=1 n=64 v=100
25770 On ch=1 n=64 v=0
25770 On ch=1 n=64 v=100
25800 On ch=1 n=64 v=0
25800 On ch=1 n=64 v=100
25860 On ch=1 n=64 v=0
25860 On ch=1 n=64 v=100
25920 On ch=1 n=64 v=0
25920 On ch=1 n=61 v=100
26340 On ch=1 n=61 v=0
26340 On ch=1 n=61 v=100
26400 On ch=1 n=61 v=0
26400 On ch=1 n=62 v=100
27240 On ch=1 n=62 v=0
27360 On ch=1 n=55 v=100
27840 On ch=1 n=55 v=0
28072 On ch=1 n=86 v=100
28080 On ch=1 n=86 v=0
28080 On ch=1 n=88 v=100
28200 On ch=1 n=88 v=0
28200 On ch=1 n=86 v=100
28230 On ch=1 n=86 v=0
28230 On ch=1 n=83 v=100
28260 On ch=1 n=83 v=0
28260 On ch=1 n=83 v=100
28290 On ch=1 n=83 v=0
28290 On ch=1 n=81 v=100
28305 On ch=1 n=81 v=0
28305 On ch=1 n=79 v=100
28320 On ch=1 n=79 v=0
28320 On ch=1 n=81 v=100
28321 On ch=1 n=81 v=0
28327 On ch=1 n=83 v=100
28500 On ch=1 n=81 v=100
28507 On ch=1 n=83 v=0
28560 On ch=1 n=81 v=0
28560 On ch=1 n=76 v=100
28672 On ch=1 n=86 v=100
28673 On ch=1 n=86 v=0
28680 On ch=1 n=76 v=0
28680 On ch=1 n=88 v=100
28770 On ch=1 n=88 v=0
28770 On ch=1 n=86 v=100
28800 On ch=1 n=86 v=0
28800 On ch=1 n=83 v=100
28800 On ch=1 n=81 v=100
28801 On ch=1 n=81 v=0
28815 On ch=1 n=83 v=0
28815 On ch=1 n=81 v=100
28830 On ch=1 n=81 v=0
28830 On ch=1 n=79 v=100
29160 On ch=1 n=79 v=0
31680 On ch=1 n=88 v=100
32640 On ch=1 n=88 v=0
36000 On ch=1 n=88 v=100
36720 On ch=1 n=88 v=0
36720 On ch=1 n=91 v=100
36840 On ch=1 n=91 v=0
36840 On ch=1 n=90 v=100
36960 On ch=1 n=90 v=0
36960 On ch=1 n=91 v=100
37440 On ch=1 n=91 v=0
37440 On ch=1 n=93 v=100
37800 On ch=1 n=93 v=0
37800 On ch=1 n=95 v=100
37920 On ch=1 n=95 v=0
37920 On ch=1 n=91 v=100
38880 On ch=1 n=91 v=0
39840 On ch=1 n=88 v=100
41160 On ch=1 n=88 v=0
41160 Meta TrkEnd
TrkEnd
MTrk
0 Meta TrkName "Guitar 2            "
0 PrCh ch=2 p=29
0 Par ch=2 c=7 v=127
0 Par ch=2 c=121 v=0
0 Par ch=2 c=91 v=80
16290 On ch=2 n=62 v=100
16290 On ch=2 n=67 v=100
16305 On ch=2 n=67 v=0
16305 On ch=2 n=62 v=0
16305 On ch=2 n=67 v=100
16305 On ch=2 n=62 v=100
16320 On ch=2 n=62 v=0
16320 On ch=2 n=67 v=0
16320 On ch=2 n=62 v=100
16320 On ch=2 n=67 v=100
16740 On ch=2 n=67 v=0
16740 On ch=2 n=62 v=0
16740 On ch=2 n=62 v=100
16740 On ch=2 n=69 v=100
17280 On ch=2 n=69 v=0
17280 On ch=2 n=62 v=0
17760 On ch=2 n=71 v=100
17783 On ch=2 n=71 v=0
17790 On ch=2 n=72 v=100
17791 On ch=2 n=72 v=0
17800 On ch=2 n=71 v=100
17801 On ch=2 n=71 v=0
17810 On ch=2 n=69 v=100
17811 On ch=2 n=69 v=0
17820 On ch=2 n=71 v=100
18240 On ch=2 n=71 v=0
18240 On ch=2 n=71 v=100
18263 On ch=2 n=71 v=0
18270 On ch=2 n=72 v=100
18271 On ch=2 n=72 v=0
18280 On ch=2 n=71 v=100
18281 On ch=2 n=71 v=0
18290 On ch=2 n=69 v=100
18291 On ch=2 n=69 v=0
18300 On ch=2 n=71 v=100
18960 On ch=2 n=71 v=0
19200 On ch=2 n=71 v=100
19223 On ch=2 n=71 v=0
19230 On ch=2 n=72 v=100
19245 On ch=2 n=72 v=0
19245 On ch=2 n=71 v=100
19260 On ch=2 n=71 v=0
19260 On ch=2 n=69 v=100
19290 On ch=2 n=69 v=0
19290 On ch=2 n=71 v=100
19920 On ch=2 n=71 v=0
20160 On ch=2 n=71 v=100
20183 On ch=2 n=71 v=0
20190 On ch=2 n=72 v=100
20205 On ch=2 n=72 v=0
20205 On ch=2 n=71 v=100
20220 On ch=2 n=71 v=0
20220 On ch=2 n=69 v=100
20250 On ch=2 n=69 v=0
20250 On ch=2 n=71 v=100
20640 On ch=2 n=71 v=0
20640 On ch=2 n=84 v=100
20640 On ch=2 n=91 v=100
21120 On ch=2 n=91 v=0
21120 On ch=2 n=84 v=0
22200 PrCh ch=2 p=49
22260 On ch=2 n=59 v=100
22260 On ch=2 n=55 v=100
22260 On ch=2 n=52 v=100
22274 Par ch=2 c=7 v=17
22289 Par ch=2 c=7 v=27
22304 Par ch=2 c=7 v=37
22319 Par ch=2 c=7 v=47
22334 Par ch=2 c=7 v=57
22349 Par ch=2 c=7 v=67
22364 Par ch=2 c=7 v=77
22379 Par ch=2 c=7 v=87
22394 Par ch=2 c=7 v=96
22409 Par ch=2 c=7 v=106
22424 Par ch=2 c=7 v=116
22439 Par ch=2 c=7 v=126
22440 On ch=2 n=52 v=0
22440 On ch=2 n=55 v=0
22440 On ch=2 n=59 v=0
22440 Par ch=2 c=7 v=127
22680 Par ch=2 c=7 v=8
22680 On ch=2 n=55 v=100
22680 On ch=2 n=60 v=100
22695 Par ch=2 c=7 v=15
22710 Par ch=2 c=7 v=22
22725 Par ch=2 c=7 v=30
22740 Par ch=2 c=7 v=37
22755 Par ch=2 c=7 v=45
22770 Par ch=2 c=7 v=52
22785 Par ch=2 c=7 v=60
22800 Par ch=2 c=7 v=67
22815 Par ch=2 c=7 v=74
22830 Par ch=2 c=7 v=82
22845 Par ch=2 c=7 v=89
22860 Par ch=2 c=7 v=97
22875 Par ch=2 c=7 v=104
22890 Par ch=2 c=7 v=112
22905 Par ch=2 c=7 v=119
22920 On ch=2 n=60 v=0
22920 On ch=2 n=55 v=0
22920 Par ch=2 c=7 v=127
23219 Par ch=2 c=7 v=8
23220 On ch=2 n=55 v=100
23220 On ch=2 n=59 v=100
23234 Par ch=2 c=7 v=22
23249 Par ch=2 c=7 v=37
23264 Par ch=2 c=7 v=52
23279 Par ch=2 c=7 v=67
23294 Par ch=2 c=7 v=82
23309 Par ch=2 c=7 v=97
23324 Par ch=2 c=7 v=112
23339 Par ch=2 c=7 v=127
23340 On ch=2 n=59 v=0
23340 On ch=2 n=55 v=0
23640 Par ch=2 c=7 v=8
23640 On ch=2 n=55 v=100
23640 On ch=2 n=60 v=100
23655 Par ch=2 c=7 v=15
23670 Par ch=2 c=7 v=22
23685 Par ch=2 c=7 v=30
23700 Par ch=2 c=7 v=37
23715 Par ch=2 c=7 v=45
23730 Par ch=2 c=7 v=52
23745 Par ch=2 c=7 v=60
23760 Par ch=2 c=7 v=67
23775 Par ch=2 c=7 v=74
23790 Par ch=2 c=7 v=82
23805 Par ch=2 c=7 v=89
23820 Par ch=2 c=7 v=97
23835 Par ch=2 c=7 v=104
23850 Par ch=2 c=7 v=112
23865 Par ch=2 c=7 v=119
23880 Pb ch=2 v=8191
23880 Par ch=2 c=7 v=127
23911 Pb ch=2 v=8190
23918 Pb ch=2 v=8189
23922 Pb ch=2 v=8188
23925 Pb ch=2 v=8187
23927 Pb ch=2 v=8186
23930 Pb ch=2 v=8185
23931 Pb ch=2 v=8184
23933 Pb ch=2 v=8183
23934 Pb ch=2 v=8182
23935 Pb ch=2 v=8181
23936 Pb ch=2 v=8180
23936 Pb ch=2 v=8179
23938 Pb ch=2 v=8178
23939 Pb ch=2 v=8177
23940 Pb ch=2 v=8176
23940 Pb ch=2 v=8175
23941 Pb ch=2 v=8174
23941 Pb ch=2 v=8172
23942 Pb ch=2 v=8171
23943 Pb ch=2 v=8170
23943 Pb ch=2 v=8169
23944 Pb ch=2 v=8167
23945 Pb ch=2 v=8166
23945 Pb ch=2 v=8165
23946 Pb ch=2 v=8164
23946 Pb ch=2 v=8162
23947 Pb ch=2 v=8160
23948 Pb ch=2 v=8158
23948 Pb ch=2 v=8155
23949 Pb ch=2 v=8153
23950 Pb ch=2 v=8151
23950 Pb ch=2 v=8148
23951 Pb ch=2 v=8146
23951 Pb ch=2 v=8143
23952 Pb ch=2 v=8141
23953 Pb ch=2 v=8138
23953 Pb ch=2 v=8136
23954 Pb ch=2 v=8133
23955 Pb ch=2 v=8129
23955 Pb ch=2 v=8124
23956 Pb ch=2 v=8119
23956 Pb ch=2 v=8114
23957 Pb ch=2 v=8109
23958 Pb ch=2 v=8104
23958 Pb ch=2 v=8099
23959 Pb ch=2 v=8094
23960 Pb ch=2 v=8089
23960 Pb ch=2 v=8084
23961 Pb ch=2 v=8079
23961 Pb ch=2 v=8074
23962 Pb ch=2 v=8066
23963 Pb ch=2 v=8056
23963 Pb ch=2 v=8046
23964 Pb ch=2 v=8036
23965 Pb ch=2 v=8026
23965 Pb ch=2 v=8016
23966 Pb ch=2 v=8006
23966 Pb ch=2 v=7996
23967 Pb ch=2 v=7986
23968 Pb ch=2 v=7976
23968 Pb ch=2 v=7966
23969 Pb ch=2 v=7956
23970 Pb ch=2 v=7939
23970 Pb ch=2 v=7919
23971 Pb ch=2 v=7899
23971 Pb ch=2 v=7879
23972 Pb ch=2 v=7859
23973 Pb ch=2 v=7840
23973 Pb ch=2 v=7820
23974 Pb ch=2 v=7800
23975 Pb ch=2 v=7780
23975 Pb ch=2 v=7760
23976 Pb ch=2 v=7740
23976 Pb ch=2 v=7720
23977 Pb ch=2 v=7684
23978 Pb ch=2 v=7644
23978 Pb ch=2 v=7604
23979 Pb ch=2 v=7565
23980 Pb ch=2 v=7525
23980 Pb ch=2 v=7485
23981 Pb ch=2 v=7445
23981 Pb ch=2 v=7406
23982 Pb ch=2 v=7366
23983 Pb ch=2 v=7326
23983 Pb ch=2 v=7286
23984 Pb ch=2 v=7246
23985 Pb ch=2 v=7172
23985 Pb ch=2 v=7092
23986 Pb ch=2 v=7013
23986 Pb ch=2 v=6933
23987 Pb ch=2 v=6853
23988 Pb ch=2 v=6774
23988 Pb ch=2 v=6694
23989 Pb ch=2 v=6615
23990 Pb ch=2 v=6535
23990 Pb ch=2 v=6455
23991 Pb ch=2 v=6376
23991 Pb ch=2 v=6296
23992 Pb ch=2 v=6142
23993 Pb ch=2 v=5983
23993 Pb ch=2 v=5824
23994 Pb ch=2 v=5664
23995 Pb ch=2 v=5505
23995 Pb ch=2 v=5346
23996 Pb ch=2 v=5187
23996 Pb ch=2 v=5028
23997 Pb ch=2 v=4869
23998 Pb ch=2 v=4710
23998 Pb ch=2 v=4551
23999 Pb ch=2 v=4392
24000 On ch=2 n=60 v=0
24000 On ch=2 n=55 v=0
24000 Pb ch=2 v=8192
24000 On ch=2 n=55 v=100
24000 On ch=2 n=50 v=100
24000 On ch=2 n=43 v=100
24240 On ch=2 n=43 v=0
24240 On ch=2 n=50 v=0
24240 On ch=2 n=55 v=0
24240 On ch=2 n=57 v=100
24240 On ch=2 n=50 v=100
24240 On ch=2 n=45 v=100
24480 On ch=2 n=45 v=0
24480 On ch=2 n=50 v=0
24480 On ch=2 n=57 v=0
24480 On ch=2 n=40 v=100
24480 On ch=2 n=47 v=100
24480 On ch=2 n=52 v=100
24480 On ch=2 n=59 v=100
24960 On ch=2 n=59 v=0
24960 On ch=2 n=40 v=0
24960 On ch=2 n=47 v=0
24960 On ch=2 n=52 v=0
24960 On ch=2 n=55 v=100
24960 On ch=2 n=50 v=100
24960 On ch=2 n=43 v=100
25200 On ch=2 n=43 v=0
25200 On ch=2 n=50 v=0
25200 On ch=2 n=55 v=0
25200 On ch=2 n=57 v=100
25200 On ch=2 n=50 v=100
25440 On ch=2 n=50 v=0
25440 On ch=2 n=57 v=0
25440 On ch=2 n=52 v=100
25440 On ch=2 n=59 v=100
25920 On ch=2 n=59 v=0
25920 On ch=2 n=52 v=0
25920 On ch=2 n=52 v=100
25920 On ch=2 n=59 v=100
26400 On ch=2 n=59 v=0
26400 On ch=2 n=52 v=0
26400 On ch=2 n=50 v=100
27360 On ch=2 n=50 v=0
27360 On ch=2 n=55 v=100
27600 On ch=2 n=55 v=0
27600 On ch=2 n=54 v=100
27840 On ch=2 n=54 v=0
27840 On ch=2 n=52 v=100
28320 On ch=2 n=52 v=0
28320 On ch=2 n=55 v=100
28560 On ch=2 n=55 v=0
28560 On ch=2 n=54 v=100
28800 On ch=2 n=54 v=0
28800 On ch=2 n=52 v=100
29040 On ch=2 n=52 v=0
29040 On ch=2 n=52 v=100
29070 On ch=2 n=52 v=0
29070 On ch=2 n=52 v=100
29100 On ch=2 n=52 v=0
29100 On ch=2 n=52 v=100
29130 On ch=2 n=52 v=0
29130 On ch=2 n=52 v=100
29160 On ch=2 n=52 v=0
29160 On ch=2 n=50 v=100
29220 On ch=2 n=50 v=0
29220 On ch=2 n=50 v=100
29280 On ch=2 n=50 v=0
29280 On ch=2 n=49 v=100
29760 On ch=2 n=49 v=0
29760 On ch=2 n=50 v=100
30660 On ch=2 n=50 v=0
31680 On ch=2 n=88 v=100
32640 On ch=2 n=88 v=0
32640 Meta TrkEnd
TrkEnd
MTrk
0 Meta TrkName "Guitar 3            "
0 PrCh ch=3 p=30
0 Par ch=3 c=7 v=127
0 Par ch=3 c=121 v=0
0 Par ch=3 c=91 v=80
16049 Pb ch=3 v=8192
16050 On ch=3 n=57 v=100
16057 Pb ch=3 v=8193
16059 Pb ch=3 v=8194
16060 Pb ch=3 v=8195
16060 Pb ch=3 v=8196
16061 Pb ch=3 v=8197
16061 Pb ch=3 v=8198
16062 Pb ch=3 v=8199
16063 Pb ch=3 v=8202
16063 Pb ch=3 v=8205
16064 Pb ch=3 v=8207
16065 Pb ch=3 v=8212
16065 Pb ch=3 v=8217
16066 Pb ch=3 v=8223
16066 Pb ch=3 v=8231
16067 Pb ch=3 v=8243
16068 Pb ch=3 v=8254
16068 Pb ch=3 v=8270
16069 Pb ch=3 v=8293
16070 Pb ch=3 v=8316
16070 Pb ch=3 v=8346
16071 Pb ch=3 v=8391
16071 Pb ch=3 v=8437
16072 Pb ch=3 v=8494
16073 Pb ch=3 v=8586
16073 Pb ch=3 v=8677
16074 Pb ch=3 v=8786
16075 Pb ch=3 v=8969
16075 Pb ch=3 v=9152
16076 Pb ch=3 v=9358
16076 Pb ch=3 v=9723
16077 Pb ch=3 v=10089
16078 Pb ch=3 v=10478
16078 Pb ch=3 v=11210
16079 Pb ch=3 v=11941
16080 On ch=3 n=57 v=0
16080 On ch=3 n=64 v=100
16080 Pb ch=3 v=8192
16289 Pb ch=3 v=8191
16304 Pb ch=3 v=8186
16319 Pb ch=3 v=6826
16320 On ch=3 n=64 v=0
16320 On ch=3 n=62 v=100
16320 On ch=3 n=57 v=100
16320 On ch=3 n=50 v=100
16320 Pb ch=3 v=8192
16680 On ch=3 n=50 v=0
16680 On ch=3 n=57 v=0
16680 On ch=3 n=62 v=0
16680 Pb ch=3 v=8192
16680 On ch=3 n=50 v=100
16704 Pb ch=3 v=8193
16711 Pb ch=3 v=8194
16715 Pb ch=3 v=8195
16718 Pb ch=3 v=8196
16720 Pb ch=3 v=8197
16721 Pb ch=3 v=8198
16723 Pb ch=3 v=8199
16725 Pb ch=3 v=8200
16726 Pb ch=3 v=8201
16726 Pb ch=3 v=8202
16728 Pb ch=3 v=8203
16728 Pb ch=3 v=8204
16730 Pb ch=3 v=8205
16730 Pb ch=3 v=8206
16731 Pb ch=3 v=8207
16732 Pb ch=3 v=8208
16733 Pb ch=3 v=8209
16733 Pb ch=3 v=8211
16734 Pb ch=3 v=8212
16735 Pb ch=3 v=8213
16735 Pb ch=3 v=8215
16736 Pb ch=3 v=8216
16736 Pb ch=3 v=8217
16737 Pb ch=3 v=8219
16738 Pb ch=3 v=8220
16738 Pb ch=3 v=8221
16739 Pb ch=3 v=8223
16740 Pb ch=3 v=8225
16740 Pb ch=3 v=8227
16741 Pb ch=3 v=8230
16741 Pb ch=3 v=8233
16742 Pb ch=3 v=8235
16743 Pb ch=3 v=8238
16743 Pb ch=3 v=8241
16744 Pb ch=3 v=8243
16745 Pb ch=3 v=8246
16745 Pb ch=3 v=8249
16746 Pb ch=3 v=8251
16746 Pb ch=3 v=8254
16747 Pb ch=3 v=8258
16748 Pb ch=3 v=8264
16748 Pb ch=3 v=8269
16749 Pb ch=3 v=8274
16750 Pb ch=3 v=8280
16750 Pb ch=3 v=8285
16751 Pb ch=3 v=8290
16751 Pb ch=3 v=8296
16752 Pb ch=3 v=8301
16753 Pb ch=3 v=8307
16753 Pb ch=3 v=8312
16754 Pb ch=3 v=8317
16755 Pb ch=3 v=8326
16755 Pb ch=3 v=8337
16756 Pb ch=3 v=8347
16756 Pb ch=3 v=8358
16757 Pb ch=3 v=8369
16758 Pb ch=3 v=8380
16758 Pb ch=3 v=8390
16759 Pb ch=3 v=8401
16760 Pb ch=3 v=8412
16760 Pb ch=3 v=8422
16761 Pb ch=3 v=8433
16761 Pb ch=3 v=8444
16762 Pb ch=3 v=8462
16763 Pb ch=3 v=8484
16763 Pb ch=3 v=8505
16764 Pb ch=3 v=8526
16765 Pb ch=3 v=8548
16765 Pb ch=3 v=8569
16766 Pb ch=3 v=8591
16766 Pb ch=3 v=8612
16767 Pb ch=3 v=8634
16768 Pb ch=3 v=8655
16768 Pb ch=3 v=8677
16769 Pb ch=3 v=8698
16770 Pb ch=3 v=8736
16770 Pb ch=3 v=8778
16771 Pb ch=3 v=8821
16771 Pb ch=3 v=8864
16772 Pb ch=3 v=8907
16773 Pb ch=3 v=8950
16773 Pb ch=3 v=8993
16774 Pb ch=3 v=9036
16775 Pb ch=3 v=9079
16775 Pb ch=3 v=9122
16776 Pb ch=3 v=9164
16776 Pb ch=3 v=9207
16777 Pb ch=3 v=9285
16778 Pb ch=3 v=9371
16778 Pb ch=3 v=9457
16779 Pb ch=3 v=9542
16780 Pb ch=3 v=9628
16780 Pb ch=3 v=9714
16781 Pb ch=3 v=9800
16781 Pb ch=3 v=9885
16782 Pb ch=3 v=9971
16783 Pb ch=3 v=10057
16783 Pb ch=3 v=10143
16784 Pb ch=3 v=10229
16785 Pb ch=3 v=10390
16785 Pb ch=3 v=10561
16786 Pb ch=3 v=10733
16786 Pb ch=3 v=10904
16787 Pb ch=3 v=11076
16788 Pb ch=3 v=11247
16788 Pb ch=3 v=11418
16789 Pb ch=3 v=11590
16790 Pb ch=3 v=11762
16790 Pb ch=3 v=11933
16791 Pb ch=3 v=12105
16791 Pb ch=3 v=12276
16792 Pb ch=3 v=12609
16793 Pb ch=3 v=12952
16793 Pb ch=3 v=13295
16794 Pb ch=3 v=13639
16795 Pb ch=3 v=13982
16795 Pb ch=3 v=14325
16796 Pb ch=3 v=14668
16796 Pb ch=3 v=15011
16797 Pb ch=3 v=15354
16798 Pb ch=3 v=15696
16798 Pb ch=3 v=16039
16799 Pb ch=3 v=16383
16800 On ch=3 n=50 v=0
16800 On ch=3 n=62 v=100
16800 Pb ch=3 v=8192
17219 Pb ch=3 v=8191
17220 Pb ch=3 v=8127
17220 Pb ch=3 v=8063
17221 Pb ch=3 v=7999
17221 Pb ch=3 v=7935
17222 Pb ch=3 v=7871
17223 Pb ch=3 v=7807
17223 Pb ch=3 v=7743
17224 Pb ch=3 v=7679
17225 Pb ch=3 v=7615
17225 Pb ch=3 v=7551
17226 Pb ch=3 v=7487
17226 Pb ch=3 v=7423
17227 Pb ch=3 v=7359
17228 Pb ch=3 v=7295
17228 Pb ch=3 v=7231
17229 Pb ch=3 v=7167
17230 Pb ch=3 v=7103
17230 Pb ch=3 v=7039
17231 Pb ch=3 v=6975
17231 Pb ch=3 v=6911
17232 Pb ch=3 v=6847
17233 Pb ch=3 v=6783
17233 Pb ch=3 v=6719
17234 Pb ch=3 v=6655
17235 Pb ch=3 v=6591
17235 Pb ch=3 v=6527
17236 Pb ch=3 v=6463
17236 Pb ch=3 v=6399
17237 Pb ch=3 v=6335
17238 Pb ch=3 v=6270
17238 Pb ch=3 v=6206
17239 Pb ch=3 v=6142
17240 Pb ch=3 v=6078
17240 Pb ch=3 v=6014
17241 Pb ch=3 v=5950
17241 Pb ch=3 v=5886
17242 Pb ch=3 v=5822
17243 Pb ch=3 v=5758
17243 Pb ch=3 v=5694
17244 Pb ch=3 v=5630
17245 Pb ch=3 v=5566
17245 Pb ch=3 v=5502
17246 Pb ch=3 v=5438
17246 Pb ch=3 v=5374
17247 Pb ch=3 v=5310
17248 Pb ch=3 v=5246
17248 Pb ch=3 v=5182
17249 Pb ch=3 v=5118
17250 Pb ch=3 v=5054
17250 Pb ch=3 v=4990
17251 Pb ch=3 v=4926
17251 Pb ch=3 v=4862
17252 Pb ch=3 v=4798
17253 Pb ch=3 v=4734
17253 Pb ch=3 v=4670
17254 Pb ch=3 v=4606
17255 Pb ch=3 v=4542
17255 Pb ch=3 v=4478
17256 Pb ch=3 v=4414
17256 Pb ch=3 v=4350
17257 Pb ch=3 v=4286
17258 Pb ch=3 v=4221
17258 Pb ch=3 v=4157
17259 Pb ch=3 v=4093
17260 Pb ch=3 v=4029
17260 Pb ch=3 v=3965
17261 Pb ch=3 v=3901
17261 Pb ch=3 v=3837
17262 Pb ch=3 v=3773
17263 Pb ch=3 v=3709
17263 Pb ch=3 v=3645
17264 Pb ch=3 v=3581
17265 Pb ch=3 v=3517
17265 Pb ch=3 v=3453
17266 Pb ch=3 v=3389
17266 Pb ch=3 v=3325
17267 Pb ch=3 v=3261
17268 Pb ch=3 v=3197
17268 Pb ch=3 v=3133
17269 Pb ch=3 v=3069
17270 Pb ch=3 v=3005
17270 Pb ch=3 v=2941
17271 Pb ch=3 v=2877
17271 Pb ch=3 v=2813
17272 Pb ch=3 v=2749
17273 Pb ch=3 v=2685
17273 Pb ch=3 v=2621
17274 Pb ch=3 v=2557
17275 Pb ch=3 v=2493
17275 Pb ch=3 v=2429
17276 Pb ch=3 v=2365
17276 Pb ch=3 v=2301
17277 Pb ch=3 v=2236
17278 Pb ch=3 v=2173
17278 Pb ch=3 v=2108
17279 Pb ch=3 v=2045
17280 On ch=3 n=62 v=0
17280 On ch=3 n=52 v=100
17280 Pb ch=3 v=8192
18240 On ch=3 n=52 v=0
18240 Meta TrkEnd
TrkEnd
MTrk
0 Meta TrkName "Keyboard 1 (Treble) "
0 PrCh ch=4 p=99
0 Par ch=4 c=7 v=100
0 Par ch=4 c=121 v=0
0 Par ch=4 c=91 v=80
30 On ch=4 n=59 v=100
60 On ch=4 n=64 v=100
90 On ch=4 n=66 v=100
110 On ch=4 n=59 v=0
120 On ch=4 n=67 v=100
140 On ch=4 n=64 v=0
150 On ch=4 n=72 v=100
170 On ch=4 n=66 v=0
180 On ch=4 n=76 v=100
200 On ch=4 n=67 v=0
210 On ch=4 n=78 v=100
230 On ch=4 n=72 v=0
240 On ch=4 n=79 v=100
260 On ch=4 n=76 v=0
290 On ch=4 n=78 v=0
360 On ch=4 n=81 v=100
390 On ch=4 n=79 v=0
390 On ch=4 n=69 v=100
420 On ch=4 n=83 v=100
450 On ch=4 n=69 v=0
450 On ch=4 n=71 v=100
480 On ch=4 n=71 v=0
480 On ch=4 n=83 v=0
480 On ch=4 n=81 v=0
480 On ch=4 n=71 v=100
480 On ch=4 n=67 v=100
480 On ch=4 n=76 v=100
480 On ch=4 n=79 v=100
960 On ch=4 n=79 v=0
960 On ch=4 n=71 v=0
960 On ch=4 n=67 v=0
960 On ch=4 n=76 v=0
960 On ch=4 n=64 v=100
1440 On ch=4 n=64 v=0
1440 On ch=4 n=64 v=100
1440 On ch=4 n=60 v=100
1440 On ch=4 n=69 v=100
1440 On ch=4 n=71 v=100
1680 On ch=4 n=71 v=0
1680 On ch=4 n=72 v=100
2400 On ch=4 n=72 v=0
2400 On ch=4 n=69 v=0
2400 On ch=4 n=60 v=0
2400 On ch=4 n=64 v=0
2400 On ch=4 n=64 v=100
2400 On ch=4 n=67 v=100
2400 On ch=4 n=59 v=100
3360 On ch=4 n=59 v=0
3360 On ch=4 n=67 v=0
3360 On ch=4 n=64 v=0
3360 On ch=4 n=59 v=100
3360 On ch=4 n=62 v=100
3360 On ch=4 n=67 v=100
3840 On ch=4 n=67 v=0
3840 On ch=4 n=62 v=0
3840 On ch=4 n=59 v=0
3840 On ch=4 n=57 v=100
3840 On ch=4 n=61 v=100
3840 On ch=4 n=64 v=100
3840 On ch=4 n=67 v=100
4320 On ch=4 n=67 v=0
4320 On ch=4 n=57 v=0
4320 On ch=4 n=61 v=0
4320 On ch=4 n=64 v=0
4320 On ch=4 n=67 v=100
4320 On ch=4 n=69 v=100
4800 On ch=4 n=69 v=0
4800 On ch=4 n=67 v=0
4800 On ch=4 n=66 v=100
4800 On ch=4 n=69 v=100
5280 On ch=4 n=69 v=0
5280 On ch=4 n=66 v=0
5280 On ch=4 n=64 v=100
5280 On ch=4 n=67 v=100
5280 On ch=4 n=72 v=100
5520 On ch=4 n=72 v=0
5520 On ch=4 n=67 v=0
5520 On ch=4 n=64 v=0
5520 On ch=4 n=71 v=100
5520 On ch=4 n=67 v=100
5520 On ch=4 n=62 v=100
5760 On ch=4 n=62 v=0
5760 On ch=4 n=67 v=0
5760 On ch=4 n=71 v=0
5760 On ch=4 n=64 v=100
5760 On ch=4 n=72 v=100
5760 On ch=4 n=69 v=100
6240 On ch=4 n=69 v=0
6240 On ch=4 n=72 v=0
6240 On ch=4 n=64 v=0
6240 On ch=4 n=64 v=100
6240 On ch=4 n=67 v=100
6240 On ch=4 n=72 v=100
6480 On ch=4 n=72 v=0
6480 On ch=4 n=67 v=0
6480 On ch=4 n=64 v=0
6480 On ch=4 n=71 v=100
6480 On ch=4 n=66 v=100
6480 On ch=4 n=74 v=100
6720 On ch=4 n=74 v=0
6720 On ch=4 n=66 v=0
6720 On ch=4 n=71 v=0
6720 On ch=4 n=72 v=100
6720 On ch=4 n=67 v=100
6720 On ch=4 n=76 v=100
7200 On ch=4 n=76 v=0
7200 On ch=4 n=67 v=0
7200 On ch=4 n=72 v=0
7200 On ch=4 n=72 v=100
7200 On ch=4 n=76 v=100
7200 On ch=4 n=79 v=100
7200 On ch=4 n=69 v=100
7680 On ch=4 n=79 v=0
7680 On ch=4 n=78 v=100
7860 On ch=4 n=78 v=0
7860 On ch=4 n=69 v=0
7860 On ch=4 n=76 v=0
7860 On ch=4 n=72 v=0
8160 On ch=4 n=71 v=100
8160 On ch=4 n=69 v=100
8160 On ch=4 n=64 v=100
8160 On ch=4 n=60 v=100
8400 On ch=4 n=71 v=0
8400 On ch=4 n=72 v=100
9120 On ch=4 n=72 v=0
9120 On ch=4 n=60 v=0
9120 On ch=4 n=64 v=0
9120 On ch=4 n=69 v=0
9120 On ch=4 n=67 v=100
9120 On ch=4 n=64 v=100
9120 On ch=4 n=59 v=100
10080 On ch=4 n=59 v=0
10080 On ch=4 n=64 v=0
10080 On ch=4 n=67 v=0
10080 On ch=4 n=59 v=100
10080 On ch=4 n=62 v=100
10080 On ch=4 n=67 v=100
10560 On ch=4 n=67 v=0
10560 On ch=4 n=62 v=0
10560 On ch=4 n=59 v=0
10560 On ch=4 n=67 v=100
10560 On ch=4 n=64 v=100
10560 On ch=4 n=61 v=100
10560 On ch=4 n=57 v=100
11040 On ch=4 n=57 v=0
11040 On ch=4 n=67 v=0
11040 On ch=4 n=64 v=0
11040 On ch=4 n=61 v=0
11040 On ch=4 n=67 v=100
11040 On ch=4 n=69 v=100
11520 On ch=4 n=69 v=0
11520 On ch=4 n=67 v=0
11520 On ch=4 n=69 v=100
11520 On ch=4 n=66 v=100
12000 On ch=4 n=66 v=0
12000 On ch=4 n=69 v=0
12000 On ch=4 n=72 v=100
12000 On ch=4 n=67 v=100
12000 On ch=4 n=64 v=100
12240 On ch=4 n=64 v=0
12240 On ch=4 n=67 v=0
12240 On ch=4 n=72 v=0
12240 On ch=4 n=62 v=100
12240 On ch=4 n=67 v=100
12240 On ch=4 n=71 v=100
12480 On ch=4 n=71 v=0
12480 On ch=4 n=67 v=0
12480 On ch=4 n=62 v=0
12480 On ch=4 n=72 v=100
12480 On ch=4 n=69 v=100
12480 On ch=4 n=64 v=100
12960 On ch=4 n=64 v=0
12960 On ch=4 n=69 v=0
12960 On ch=4 n=72 v=0
12960 On ch=4 n=72 v=100
12960 On ch=4 n=67 v=100
12960 On ch=4 n=64 v=100
13200 On ch=4 n=64 v=0
13200 On ch=4 n=67 v=0
13200 On ch=4 n=72 v=0
13200 On ch=4 n=71 v=100
13200 On ch=4 n=66 v=100
13200 On ch=4 n=74 v=100
13440 On ch=4 n=74 v=0
13440 On ch=4 n=66 v=0
13440 On ch=4 n=71 v=0
13440 On ch=4 n=72 v=100
13440 On ch=4 n=67 v=100
13440 On ch=4 n=76 v=100
13920 On ch=4 n=76 v=0
13920 On ch=4 n=67 v=0
13920 On ch=4 n=72 v=0
13920 On ch=4 n=74 v=100
13920 On ch=4 n=69 v=100
13920 On ch=4 n=67 v=100
14153 On ch=4 n=67 v=0
14160 On ch=4 n=66 v=100
14273 On ch=4 n=66 v=0
14273 On ch=4 n=69 v=0
14273 On ch=4 n=74 v=0
14280 On ch=4 n=67 v=100
14280 On ch=4 n=74 v=100
14400 On ch=4 n=74 v=0
14400 On ch=4 n=67 v=0
14400 On ch=4 n=72 v=100
14400 On ch=4 n=67 v=100
14400 On ch=4 n=64 v=100
14640 On ch=4 n=64 v=0
14640 On ch=4 n=67 v=0
14640 On ch=4 n=72 v=0
18240 On ch=4 n=71 v=100
18240 On ch=4 n=79 v=100
18240 On ch=4 n=76 v=100
18600 On ch=4 n=76 v=0
18600 On ch=4 n=79 v=0
18600 On ch=4 n=71 v=0
18600 On ch=4 n=74 v=100
18720 On ch=4 n=74 v=0
18720 On ch=4 n=72 v=100
18720 On ch=4 n=76 v=100
18720 On ch=4 n=79 v=100
19200 On ch=4 n=79 v=0
19200 On ch=4 n=76 v=0
19200 On ch=4 n=72 v=0
19200 On ch=4 n=71 v=100
19200 On ch=4 n=79 v=100
19200 On ch=4 n=76 v=100
19560 On ch=4 n=76 v=0
19560 On ch=4 n=74 v=100
19680 On ch=4 n=74 v=0
19680 On ch=4 n=79 v=0
19680 On ch=4 n=71 v=0
19680 On ch=4 n=72 v=100
19680 On ch=4 n=76 v=100
19680 On ch=4 n=79 v=100
20160 On ch=4 n=79 v=0
20160 On ch=4 n=76 v=0
20160 On ch=4 n=72 v=0
20160 On ch=4 n=71 v=100
20160 On ch=4 n=79 v=100
20160 On ch=4 n=76 v=100
20520 On ch=4 n=76 v=0
20520 On ch=4 n=74 v=100
20640 On ch=4 n=74 v=0
20640 On ch=4 n=79 v=0
20640 On ch=4 n=71 v=0
20640 On ch=4 n=72 v=100
20640 On ch=4 n=76 v=100
20640 On ch=4 n=79 v=100
21120 On ch=4 n=79 v=0
21120 On ch=4 n=76 v=0
21120 On ch=4 n=72 v=0
21120 On ch=4 n=71 v=100
21120 On ch=4 n=79 v=100
21120 On ch=4 n=76 v=100
21480 On ch=4 n=76 v=0
21480 On ch=4 n=74 v=100
21600 On ch=4 n=74 v=0
21600 On ch=4 n=79 v=0
21600 On ch=4 n=71 v=0
21600 On ch=4 n=72 v=100
21600 On ch=4 n=76 v=100
21600 On ch=4 n=79 v=100
22080 On ch=4 n=79 v=0
22080 On ch=4 n=76 v=0
22080 On ch=4 n=72 v=0
22080 On ch=4 n=76 v=100
22080 On ch=4 n=79 v=100
22080 On ch=4 n=71 v=100
22560 On ch=4 n=71 v=0
22560 On ch=4 n=79 v=0
22560 On ch=4 n=76 v=0
22560 On ch=4 n=72 v=100
22560 On ch=4 n=76 v=100
22560 On ch=4 n=79 v=100
23040 On ch=4 n=79 v=0
23040 On ch=4 n=76 v=0
23040 On ch=4 n=72 v=0
23040 On ch=4 n=76 v=100
23040 On ch=4 n=79 v=100
23040 On ch=4 n=71 v=100
23520 On ch=4 n=71 v=0
23520 On ch=4 n=79 v=0
23520 On ch=4 n=76 v=0
23520 On ch=4 n=72 v=100
23520 On ch=4 n=76 v=100
23520 On ch=4 n=79 v=100
24000 On ch=4 n=79 v=0
24000 On ch=4 n=76 v=0
24000 On ch=4 n=72 v=0
30240 On ch=4 n=77 v=100
30240 On ch=4 n=74 v=100
30240 On ch=4 n=70 v=100
30240 On ch=4 n=67 v=100
31200 On ch=4 n=67 v=0
31200 On ch=4 n=77 v=0
31200 On ch=4 n=74 v=0
31200 On ch=4 n=70 v=0
31200 On ch=4 n=64 v=100
31200 On ch=4 n=59 v=100
31200 On ch=4 n=55 v=100
31680 On ch=4 n=59 v=0
31680 On ch=4 n=60 v=100
32160 On ch=4 n=60 v=0
32160 On ch=4 n=55 v=0
32160 On ch=4 n=64 v=0
32160 On ch=4 n=55 v=100
32160 On ch=4 n=59 v=100
32160 On ch=4 n=64 v=100
32640 On ch=4 n=64 v=0
32640 On ch=4 n=59 v=0
32640 On ch=4 n=55 v=0
32640 On ch=4 n=63 v=100
32640 On ch=4 n=60 v=100
32640 On ch=4 n=55 v=100
33120 On ch=4 n=55 v=0
33120 On ch=4 n=60 v=0
33120 On ch=4 n=63 v=0
33120 On ch=4 n=60 v=100
33120 On ch=4 n=64 v=100
33120 On ch=4 n=57 v=100
33600 On ch=4 n=57 v=0
33600 On ch=4 n=64 v=0
33600 On ch=4 n=60 v=0
33600 On ch=4 n=60 v=100
33600 On ch=4 n=56 v=100
33600 On ch=4 n=65 v=100
34080 On ch=4 n=65 v=0
34080 On ch=4 n=56 v=0
34080 On ch=4 n=60 v=0
34080 On ch=4 n=62 v=100
34080 On ch=4 n=57 v=100
34080 On ch=4 n=53 v=100
34560 On ch=4 n=53 v=0
34560 On ch=4 n=57 v=0
34560 On ch=4 n=62 v=0
34560 On ch=4 n=62 v=100
34560 On ch=4 n=59 v=100
34560 On ch=4 n=54 v=100
35040 On ch=4 n=54 v=0
35040 On ch=4 n=59 v=0
35040 On ch=4 n=62 v=0
35040 On ch=4 n=55 v=100
35040 On ch=4 n=58 v=100
35040 On ch=4 n=62 v=100
36000 On ch=4 n=62 v=0
36000 On ch=4 n=58 v=0
36000 On ch=4 n=55 v=0
36240 On ch=4 n=67 v=100
36240 On ch=4 n=71 v=100
36240 On ch=4 n=76 v=100
36960 On ch=4 n=76 v=0
36960 On ch=4 n=71 v=0
36960 On ch=4 n=72 v=100
36960 On ch=4 n=76 v=100
36960 On ch=4 n=79 v=100
37440 On ch=4 n=79 v=0
37440 On ch=4 n=67 v=0
37440 On ch=4 n=72 v=0
37440 On ch=4 n=76 v=0
37440 On ch=4 n=69 v=100
37440 On ch=4 n=72 v=100
37440 On ch=4 n=76 v=100
37440 On ch=4 n=79 v=100
37680 On ch=4 n=79 v=0
37680 On ch=4 n=76 v=0
37680 On ch=4 n=78 v=100
37680 On ch=4 n=81 v=100
37920 On ch=4 n=81 v=0
37920 On ch=4 n=69 v=0
37920 On ch=4 n=72 v=0
37920 On ch=4 n=78 v=0
37920 On ch=4 n=76 v=100
37920 On ch=4 n=83 v=100
37920 On ch=4 n=71 v=100
38400 On ch=4 n=71 v=0
38400 On ch=4 n=83 v=0
38400 On ch=4 n=76 v=0
38400 On ch=4 n=76 v=100
38400 On ch=4 n=71 v=100
38400 On ch=4 n=64 v=100
38880 On ch=4 n=71 v=0
39840 On ch=4 n=64 v=0
39840 On ch=4 n=76 v=0
39840 On ch=4 n=64 v=100
39840 On ch=4 n=67 v=100
39840 On ch=4 n=59 v=100
39840 On ch=4 n=55 v=100
41040 On ch=4 n=55 v=0
41040 On ch=4 n=64 v=0
41040 On ch=4 n=67 v=0
41040 On ch=4 n=59 v=0
41070 On ch=4 n=57 v=100
41100 On ch=4 n=62 v=100
41115 On ch=4 n=57 v=0
41130 On ch=4 n=64 v=100
41145 On ch=4 n=62 v=0
41160 On ch=4 n=66 v=100
41175 On ch=4 n=64 v=0
41190 On ch=4 n=69 v=100
41205 On ch=4 n=66 v=0
41220 On ch=4 n=74 v=100
41235 On ch=4 n=69 v=0
41250 On ch=4 n=76 v=100
41265 On ch=4 n=74 v=0
41280 On ch=4 n=78 v=100
41295 On ch=4 n=76 v=0
41400 On ch=4 n=81 v=100
41415 On ch=4 n=78 v=0
41460 On ch=4 n=86 v=100
41475 On ch=4 n=81 v=0
42240 On ch=4 n=86 v=0
42240 Meta TrkEnd
TrkEnd
MTrk
0 Meta TrkName "Keyboard 1 (Bass)   "
0 PrCh ch=5 p=88
0 Par ch=5 c=7 v=100
0 On ch=5 n=52 v=100
0 Par ch=5 c=121 v=0
0 Par ch=5 c=91 v=80
60 On ch=5 n=40 v=100
120 On ch=5 n=55 v=100
120 On ch=5 n=60 v=100
360 On ch=5 n=40 v=0
480 On ch=5 n=52 v=0
480 On ch=5 n=55 v=0
480 On ch=5 n=60 v=0
480 On ch=5 n=52 v=100
480 On ch=5 n=59 v=100
480 On ch=5 n=64 v=100
960 On ch=5 n=64 v=0
960 On ch=5 n=59 v=0
960 On ch=5 n=52 v=0
960 On ch=5 n=52 v=100
960 On ch=5 n=40 v=100
1440 On ch=5 n=40 v=0
1440 On ch=5 n=52 v=0
1440 On ch=5 n=57 v=100
1440 On ch=5 n=45 v=100
2160 On ch=5 n=45 v=0
2160 On ch=5 n=57 v=0
2160 On ch=5 n=54 v=100
2160 On ch=5 n=42 v=100
2400 On ch=5 n=42 v=0
2400 On ch=5 n=54 v=0
2400 On ch=5 n=52 v=100
2400 On ch=5 n=40 v=100
2880 On ch=5 n=40 v=0
2880 On ch=5 n=52 v=0
2880 On ch=5 n=50 v=100
3120 On ch=5 n=50 v=0
3120 On ch=5 n=49 v=100
3360 On ch=5 n=49 v=0
3360 On ch=5 n=50 v=100
3840 On ch=5 n=50 v=0
3840 On ch=5 n=52 v=100
4320 On ch=5 n=52 v=0
4320 On ch=5 n=50 v=100
4320 On ch=5 n=57 v=100
4320 On ch=5 n=62 v=100
5280 On ch=5 n=62 v=0
5280 On ch=5 n=57 v=0
5280 On ch=5 n=50 v=0
5340 On ch=5 n=52 v=100
5400 On ch=5 n=55 v=100
5460 On ch=5 n=52 v=0
5460 On ch=5 n=60 v=100
5520 On ch=5 n=55 v=0
5520 On ch=5 n=59 v=100
5580 On ch=5 n=60 v=0
5580 On ch=5 n=55 v=100
5640 On ch=5 n=59 v=0
5640 On ch=5 n=50 v=100
5700 On ch=5 n=55 v=0
5820 On ch=5 n=50 v=0
5820 On ch=5 n=52 v=100
5850 On ch=5 n=57 v=100
5880 On ch=5 n=52 v=0
5880 On ch=5 n=60 v=100
5910 On ch=5 n=57 v=0
5940 On ch=5 n=59 v=100
6000 On ch=5 n=60 v=0
6120 On ch=5 n=57 v=100
6150 On ch=5 n=59 v=0
6240 On ch=5 n=55 v=100
6240 On ch=5 n=48 v=100
6360 On ch=5 n=57 v=0
6480 On ch=5 n=48 v=0
6480 On ch=5 n=47 v=100
6720 On ch=5 n=47 v=0
6720 On ch=5 n=55 v=0
6720 On ch=5 n=45 v=100
7200 On ch=5 n=45 v=0
7200 On ch=5 n=50 v=100
7200 On ch=5 n=62 v=100
7860 On ch=5 n=62 v=0
7860 On ch=5 n=50 v=0
8160 On ch=5 n=45 v=100
8160 On ch=5 n=57 v=100
8880 On ch=5 n=57 v=0
8880 On ch=5 n=45 v=0
8880 On ch=5 n=54 v=100
8880 On ch=5 n=42 v=100
9120 On ch=5 n=42 v=0
9120 On ch=5 n=54 v=0
9120 On ch=5 n=40 v=100
9120 On ch=5 n=52 v=100
9600 On ch=5 n=52 v=0
9600 On ch=5 n=40 v=0
9600 On ch=5 n=50 v=100
9840 On ch=5 n=50 v=0
9840 On ch=5 n=49 v=100
10080 On ch=5 n=49 v=0
10080 On ch=5 n=50 v=100
10560 On ch=5 n=50 v=0
10560 On ch=5 n=52 v=100
11040 On ch=5 n=52 v=0
11040 On ch=5 n=50 v=100
11040 On ch=5 n=57 v=100
11040 On ch=5 n=62 v=100
12000 On ch=5 n=62 v=0
12000 On ch=5 n=57 v=0
12000 On ch=5 n=50 v=0
12060 On ch=5 n=52 v=100
12120 On ch=5 n=52 v=0
12120 On ch=5 n=54 v=100
12180 On ch=5 n=54 v=0
12180 On ch=5 n=60 v=100
12240 On ch=5 n=60 v=0
12240 On ch=5 n=59 v=100
12300 On ch=5 n=59 v=0
12300 On ch=5 n=54 v=100
12360 On ch=5 n=54 v=0
12360 On ch=5 n=50 v=100
12540 On ch=5 n=50 v=0
12540 On ch=5 n=52 v=100
12570 On ch=5 n=52 v=0
12570 On ch=5 n=57 v=100
12600 On ch=5 n=57 v=0
12600 On ch=5 n=60 v=100
12660 On ch=5 n=60 v=0
12660 On ch=5 n=59 v=100
12840 On ch=5 n=59 v=0
12840 On ch=5 n=57 v=100
12960 On ch=5 n=57 v=0
12960 On ch=5 n=55 v=100
12960 On ch=5 n=48 v=100
13200 On ch=5 n=48 v=0
13200 On ch=5 n=47 v=100
13440 On ch=5 n=47 v=0
13440 On ch=5 n=55 v=0
13440 On ch=5 n=45 v=100
13920 On ch=5 n=45 v=0
13920 On ch=5 n=50 v=100
14273 On ch=5 n=50 v=0
14280 On ch=5 n=47 v=100
14393 On ch=5 n=47 v=0
14400 On ch=5 n=48 v=100
14640 On ch=5 n=48 v=0
18240 On ch=5 n=52 v=100
18240 On ch=5 n=59 v=100
18720 On ch=5 n=59 v=0
18720 On ch=5 n=52 v=0
18720 On ch=5 n=48 v=100
18720 On ch=5 n=55 v=100
19200 On ch=5 n=55 v=0
19200 On ch=5 n=48 v=0
19200 On ch=5 n=52 v=100
19200 On ch=5 n=59 v=100
19680 On ch=5 n=59 v=0
19680 On ch=5 n=52 v=0
19680 On ch=5 n=48 v=100
19680 On ch=5 n=55 v=100
20160 On ch=5 n=55 v=0
20160 On ch=5 n=48 v=0
20160 On ch=5 n=52 v=100
20160 On ch=5 n=59 v=100
20640 On ch=5 n=59 v=0
20640 On ch=5 n=52 v=0
20640 On ch=5 n=48 v=100
20640 On ch=5 n=55 v=100
21120 On ch=5 n=55 v=0
21120 On ch=5 n=48 v=0
21120 On ch=5 n=52 v=100
21120 On ch=5 n=59 v=100
21600 On ch=5 n=59 v=0
21600 On ch=5 n=52 v=0
21600 On ch=5 n=48 v=100
21600 On ch=5 n=55 v=100
22080 On ch=5 n=55 v=0
22080 On ch=5 n=48 v=0
22080 On ch=5 n=52 v=100
22080 On ch=5 n=59 v=100
22560 On ch=5 n=59 v=0
22560 On ch=5 n=52 v=0
22560 On ch=5 n=48 v=100
22560 On ch=5 n=55 v=100
22560 On ch=5 n=60 v=100
23040 On ch=5 n=60 v=0
23040 On ch=5 n=55 v=0
23040 On ch=5 n=48 v=0
23040 On ch=5 n=52 v=100
23040 On ch=5 n=59 v=100
23520 On ch=5 n=59 v=0
23520 On ch=5 n=52 v=0
23520 On ch=5 n=48 v=100
23520 On ch=5 n=55 v=100
23520 On ch=5 n=60 v=100
24000 On ch=5 n=60 v=0
24000 On ch=5 n=55 v=0
24000 On ch=5 n=48 v=0
30240 On ch=5 n=50 v=100
31200 On ch=5 n=50 v=0
31200 On ch=5 n=52 v=100
31200 On ch=5 n=40 v=100
32160 On ch=5 n=40 v=0
32160 On ch=5 n=52 v=0
32160 On ch=5 n=40 v=100
32160 On ch=5 n=52 v=100
32640 On ch=5 n=52 v=0
32640 On ch=5 n=40 v=0
32640 On ch=5 n=48 v=100
33120 On ch=5 n=48 v=0
33120 On ch=5 n=45 v=100
33600 On ch=5 n=45 v=0
33600 On ch=5 n=42 v=100
34080 On ch=5 n=42 v=0
34080 On ch=5 n=38 v=100
34560 On ch=5 n=38 v=0
34560 On ch=5 n=47 v=100
35040 On ch=5 n=47 v=0
35040 On ch=5 n=43 v=100
36000 On ch=5 n=43 v=0
36000 On ch=5 n=52 v=100
36000 On ch=5 n=55 v=100
36000 On ch=5 n=59 v=100
36720 On ch=5 n=59 v=0
36720 On ch=5 n=64 v=100
36840 On ch=5 n=64 v=0
36840 On ch=5 n=62 v=100
36960 On ch=5 n=62 v=0
36960 On ch=5 n=60 v=100
37440 On ch=5 n=60 v=0
37440 On ch=5 n=55 v=0
37440 On ch=5 n=52 v=0
37440 On ch=5 n=52 v=100
37440 On ch=5 n=57 v=100
37440 On ch=5 n=60 v=100
37920 On ch=5 n=60 v=0
37920 On ch=5 n=57 v=0
37920 On ch=5 n=52 v=0
37920 On ch=5 n=52 v=100
37920 On ch=5 n=40 v=100
39840 On ch=5 n=40 v=0
39840 On ch=5 n=52 v=0
39840 On ch=5 n=52 v=100
39840 On ch=5 n=40 v=100
41040 On ch=5 n=40 v=0
41040 On ch=5 n=52 v=0
41040 On ch=5 n=38 v=100
41040 On ch=5 n=26 v=100
42240 On ch=5 n=26 v=0
42240 On ch=5 n=38 v=0
42240 Meta TrkEnd
TrkEnd
MTrk
0 Meta TrkName "French Horns        "
0 PrCh ch=6 p=60
0 Par ch=6 c=7 v=100
0 Par ch=6 c=121 v=0
0 Par ch=6 c=91 v=80
10560 On ch=6 n=71 v=100
10920 On ch=6 n=71 v=0
10920 On ch=6 n=69 v=100
11040 On ch=6 n=69 v=0
11040 On ch=6 n=69 v=100
11160 On ch=6 n=62 v=100
11280 On ch=6 n=62 v=0
11280 On ch=6 n=67 v=100
11400 On ch=6 n=67 v=0
11400 On ch=6 n=64 v=100
11520 On ch=6 n=64 v=0
11520 On ch=6 n=66 v=100
11760 On ch=6 n=66 v=0
11760 On ch=6 n=69 v=0
12480 On ch=6 n=69 v=100
12960 On ch=6 n=69 v=0
12960 On ch=6 n=67 v=100
12960 On ch=6 n=60 v=100
13140 On ch=6 n=60 v=0
13140 On ch=6 n=62 v=100
13200 On ch=6 n=62 v=0
13200 On ch=6 n=67 v=0
13200 On ch=6 n=62 v=100
13380 On ch=6 n=62 v=0
13380 On ch=6 n=62 v=100
13440 On ch=6 n=62 v=0
13440 On ch=6 n=62 v=100
13500 On ch=6 n=62 v=0
13500 On ch=6 n=60 v=100
13560 On ch=6 n=64 v=100
13620 On ch=6 n=64 v=0
13620 On ch=6 n=64 v=100
13680 On ch=6 n=64 v=0
13680 On ch=6 n=71 v=100
13800 On ch=6 n=71 v=0
13800 On ch=6 n=69 v=100
13920 On ch=6 n=69 v=0
13920 On ch=6 n=60 v=0
13920 On ch=6 n=67 v=100
13920 On ch=6 n=64 v=100
14153 On ch=6 n=64 v=0
14153 On ch=6 n=67 v=0
14160 On ch=6 n=66 v=100
14160 On ch=6 n=62 v=100
14273 On ch=6 n=66 v=0
14280 On ch=6 n=67 v=100
14400 On ch=6 n=67 v=0
14400 On ch=6 n=62 v=0
14400 On ch=6 n=67 v=100
14400 On ch=6 n=60 v=100
14580 On ch=6 n=60 v=0
14580 On ch=6 n=62 v=100
14640 On ch=6 n=62 v=0
14640 On ch=6 n=62 v=100
14820 On ch=6 n=62 v=0
14820 On ch=6 n=64 v=100
14880 On ch=6 n=64 v=0
14880 On ch=6 n=67 v=0
14880 On ch=6 n=67 v=100
14880 On ch=6 n=64 v=100
14920 On ch=6 n=64 v=0
14920 On ch=6 n=62 v=100
14960 On ch=6 n=62 v=0
14960 On ch=6 n=60 v=100
15060 On ch=6 n=67 v=0
15060 On ch=6 n=67 v=100
15120 On ch=6 n=67 v=0
15120 On ch=6 n=72 v=100
15180 On ch=6 n=72 v=0
15180 On ch=6 n=71 v=100
15240 On ch=6 n=71 v=0
15240 On ch=6 n=71 v=100
15300 On ch=6 n=71 v=0
15300 On ch=6 n=69 v=100
15360 On ch=6 n=69 v=0
15360 On ch=6 n=60 v=0
15360 On ch=6 n=67 v=100
15540 On ch=6 n=67 v=0
15540 On ch=6 n=67 v=100
15600 On ch=6 n=67 v=0
15600 On ch=6 n=69 v=100
15720 On ch=6 n=69 v=0
15720 On ch=6 n=62 v=100
15840 On ch=6 n=62 v=0
15840 On ch=6 n=67 v=100
15900 On ch=6 n=67 v=0
15900 On ch=6 n=64 v=100
15960 On ch=6 n=64 v=0
15960 On ch=6 n=60 v=100
16200 On ch=6 n=60 v=0
16320 On ch=6 n=62 v=100
16620 On ch=6 n=62 v=0
16620 On ch=6 n=67 v=100
16800 On ch=6 n=67 v=0
16800 On ch=6 n=62 v=100
17040 On ch=6 n=62 v=0
24960 On ch=6 n=67 v=100
25200 On ch=6 n=67 v=0
25200 On ch=6 n=69 v=100
25440 On ch=6 n=69 v=0
25440 On ch=6 n=71 v=100
25800 On ch=6 n=71 v=0
25920 On ch=6 n=71 v=100
25920 On ch=6 n=61 v=100
26160 On ch=6 n=71 v=0
26160 On ch=6 n=69 v=100
26400 On ch=6 n=69 v=0
26400 On ch=6 n=61 v=0
26400 On ch=6 n=62 v=100
26940 On ch=6 n=58 v=100
27000 On ch=6 n=58 v=0
27000 On ch=6 n=65 v=100
27060 On ch=6 n=65 v=0
27060 On ch=6 n=58 v=100
27120 On ch=6 n=58 v=0
27120 On ch=6 n=65 v=100
27180 On ch=6 n=65 v=0
27180 On ch=6 n=58 v=100
27240 On ch=6 n=58 v=0
27240 On ch=6 n=65 v=100
27360 On ch=6 n=65 v=0
27360 On ch=6 n=62 v=0
28320 On ch=6 n=67 v=100
28560 On ch=6 n=67 v=0
28560 On ch=6 n=69 v=100
28800 On ch=6 n=69 v=0
28800 On ch=6 n=71 v=100
29160 On ch=6 n=71 v=0
29280 On ch=6 n=71 v=100
29280 On ch=6 n=61 v=100
29280 On ch=6 n=67 v=100
29520 On ch=6 n=71 v=0
29520 On ch=6 n=69 v=100
29760 On ch=6 n=69 v=0
29760 On ch=6 n=67 v=0
29760 On ch=6 n=61 v=0
29760 On ch=6 n=62 v=100
30300 On ch=6 n=58 v=100
30360 On ch=6 n=58 v=0
30360 On ch=6 n=65 v=100
30420 On ch=6 n=65 v=0
30420 On ch=6 n=58 v=100
30480 On ch=6 n=58 v=0
30480 On ch=6 n=65 v=100
30540 On ch=6 n=65 v=0
30540 On ch=6 n=58 v=100
30600 On ch=6 n=58 v=0
30600 On ch=6 n=65 v=100
30720 On ch=6 n=65 v=0
31200 On ch=6 n=62 v=0
31200 On ch=6 n=57 v=100
31200 On ch=6 n=69 v=100
31440 On ch=6 n=69 v=0
31440 On ch=6 n=57 v=0
31440 On ch=6 n=67 v=100
31440 On ch=6 n=55 v=100
32160 On ch=6 n=55 v=0
32160 On ch=6 n=67 v=0
32160 On ch=6 n=69 v=100
32340 On ch=6 n=69 v=0
32340 On ch=6 n=67 v=100
32400 On ch=6 n=67 v=0
32400 On ch=6 n=67 v=100
33120 On ch=6 n=67 v=0
34080 On ch=6 n=65 v=100
34080 On ch=6 n=57 v=100
34560 On ch=6 n=57 v=0
34560 On ch=6 n=65 v=0
34560 On ch=6 n=62 v=100
34560 On ch=6 n=54 v=100
35040 On ch=6 n=54 v=0
35040 On ch=6 n=62 v=0
35040 On ch=6 n=62 v=100
35040 On ch=6 n=58 v=100
36000 On ch=6 n=58 v=0
36000 On ch=6 n=62 v=0
36480 On ch=6 n=55 v=100
36720 On ch=6 n=64 v=100
36840 On ch=6 n=55 v=0
36840 On ch=6 n=59 v=100
36900 On ch=6 n=59 v=0
36900 On ch=6 n=62 v=100
36960 On ch=6 n=62 v=0
36960 On ch=6 n=64 v=0
36960 On ch=6 n=64 v=100
36960 On ch=6 n=67 v=100
37200 On ch=6 n=67 v=0
37200 On ch=6 n=64 v=0
37200 On ch=6 n=64 v=100
37320 On ch=6 n=64 v=0
37320 On ch=6 n=60 v=100
37440 On ch=6 n=60 v=0
37440 On ch=6 n=64 v=100
37440 On ch=6 n=57 v=100
37560 On ch=6 n=64 v=0
37560 On ch=6 n=67 v=100
37680 On ch=6 n=67 v=0
37680 On ch=6 n=57 v=0
37680 On ch=6 n=66 v=100
37760 On ch=6 n=66 v=0
37760 On ch=6 n=62 v=100
37840 On ch=6 n=62 v=0
37840 On ch=6 n=57 v=100
37920 On ch=6 n=57 v=0
37920 On ch=6 n=64 v=100
38760 On ch=6 n=64 v=0
38880 On ch=6 n=69 v=100
39120 On ch=6 n=69 v=0
39120 On ch=6 n=67 v=100
39360 On ch=6 n=67 v=0
39360 On ch=6 n=66 v=100
39440 On ch=6 n=66 v=0
39440 On ch=6 n=62 v=100
39520 On ch=6 n=62 v=0
39520 On ch=6 n=57 v=100
39600 On ch=6 n=57 v=0
39600 On ch=6 n=64 v=100
39840 On ch=6 n=64 v=0
39840 On ch=6 n=59 v=100
39840 On ch=6 n=55 v=100
39870 On ch=6 n=64 v=100
41040 On ch=6 n=64 v=0
41040 On ch=6 n=55 v=0
41040 On ch=6 n=59 v=0
41040 Meta TrkEnd
TrkEnd
MTrk
0 Meta TrkName "Trumpets/Keyboard 2 "
0 PrCh ch=7 p=56
0 Par ch=7 c=7 v=100
0 Par ch=7 c=121 v=0
0 Par ch=7 c=91 v=80
14400 On ch=7 n=60 v=100
14580 On ch=7 n=60 v=0
14580 On ch=7 n=62 v=100
14640 On ch=7 n=62 v=0
14640 On ch=7 n=62 v=100
14820 On ch=7 n=62 v=0
14820 On ch=7 n=64 v=100
14880 On ch=7 n=64 v=0
14880 On ch=7 n=64 v=100
15240 On ch=7 n=64 v=0
15300 On ch=7 n=64 v=100
15300 On ch=7 n=60 v=100
15360 On ch=7 n=60 v=0
15360 On ch=7 n=64 v=0
15360 On ch=7 n=60 v=100
15360 On ch=7 n=64 v=100
15540 On ch=7 n=64 v=0
15540 On ch=7 n=60 v=0
15540 On ch=7 n=66 v=100
15540 On ch=7 n=62 v=100
15600 On ch=7 n=62 v=0
15600 On ch=7 n=66 v=0
15600 On ch=7 n=66 v=100
15600 On ch=7 n=62 v=100
15780 On ch=7 n=62 v=0
15780 On ch=7 n=66 v=0
15780 On ch=7 n=66 v=100
15780 On ch=7 n=62 v=100
15840 On ch=7 n=62 v=0
15840 On ch=7 n=66 v=0
15840 On ch=7 n=67 v=100
15840 On ch=7 n=64 v=100
16073 On ch=7 n=67 v=0
16080 On ch=7 n=72 v=100
16320 On ch=7 n=72 v=0
16320 On ch=7 n=64 v=0
16320 On ch=7 n=71 v=100
16380 On ch=7 n=71 v=0
16380 On ch=7 n=69 v=100
16440 On ch=7 n=69 v=0
16440 On ch=7 n=67 v=100
16860 On ch=7 n=67 v=0
16860 On ch=7 n=66 v=100
17040 On ch=7 n=66 v=0
20280 On ch=7 n=88 v=100
20280 PrCh ch=7 p=119
20640 On ch=7 n=88 v=0
20640 PrCh ch=7 p=17
37860 PrCh ch=7 p=20
37920 On ch=7 n=76 v=100
37920 On ch=7 n=79 v=100
38160 On ch=7 n=79 v=0
38160 On ch=7 n=76 v=0
38160 On ch=7 n=78 v=100
38160 On ch=7 n=74 v=100
38400 On ch=7 n=74 v=0
38400 On ch=7 n=78 v=0
38400 On ch=7 n=73 v=100
38400 On ch=7 n=76 v=100
38640 On ch=7 n=76 v=0
38640 On ch=7 n=73 v=0
38640 On ch=7 n=74 v=100
38640 On ch=7 n=71 v=100
38880 On ch=7 n=71 v=0
38880 On ch=7 n=74 v=0
38880 On ch=7 n=69 v=100
38880 On ch=7 n=73 v=100
39060 On ch=7 n=73 v=0
39060 On ch=7 n=69 v=0
39060 On ch=7 n=74 v=100
39060 On ch=7 n=71 v=100
39090 On ch=7 n=71 v=0
39090 On ch=7 n=74 v=0
39090 On ch=7 n=73 v=100
39090 On ch=7 n=69 v=100
39120 On ch=7 n=69 v=0
39120 On ch=7 n=73 v=0
39120 On ch=7 n=71 v=100
39120 On ch=7 n=67 v=100
39360 On ch=7 n=67 v=0
39360 On ch=7 n=71 v=0
39360 On ch=7 n=66 v=100
39360 On ch=7 n=69 v=100
39600 On ch=7 n=69 v=0
39600 On ch=7 n=66 v=0
39600 On ch=7 n=67 v=100
39600 On ch=7 n=64 v=100
39810 On ch=7 n=64 v=0
39810 On ch=7 n=67 v=0
39810 On ch=7 n=66 v=100
39810 On ch=7 n=69 v=100
39840 On ch=7 n=69 v=0
39840 On ch=7 n=66 v=0
39840 On ch=7 n=71 v=100
39840 On ch=7 n=67 v=100
41040 On ch=7 n=67 v=0
41040 On ch=7 n=71 v=0
41280 PrCh ch=7 p=15
41280 Meta TrkEnd
TrkEnd
MTrk
0 Meta TrkName "Trombones           "
0 PrCh ch=8 p=57
0 Par ch=8 c=7 v=100
0 Par ch=8 c=121 v=0
0 Par ch=8 c=91 v=80
12960 On ch=8 n=45 v=100
12960 On ch=8 n=55 v=100
13200 On ch=8 n=45 v=0
13200 On ch=8 n=43 v=100
13380 On ch=8 n=55 v=0
13380 On ch=8 n=52 v=100
13440 On ch=8 n=52 v=0
13440 On ch=8 n=43 v=0
13440 On ch=8 n=52 v=100
13440 On ch=8 n=45 v=100
13440 On ch=8 n=59 v=100
13553 On ch=8 n=59 v=0
13560 On ch=8 n=57 v=100
13920 On ch=8 n=57 v=0
13920 On ch=8 n=45 v=0
13920 On ch=8 n=52 v=0
13920 On ch=8 n=60 v=100
13920 On ch=8 n=57 v=100
13920 On ch=8 n=50 v=100
14100 On ch=8 n=50 v=0
14100 On ch=8 n=57 v=0
14280 On ch=8 n=60 v=0
14280 On ch=8 n=47 v=100
14280 On ch=8 n=55 v=100
14400 On ch=8 n=55 v=0
14400 On ch=8 n=47 v=0
14400 On ch=8 n=36 v=100
14400 On ch=8 n=48 v=100
14520 On ch=8 n=55 v=100
14640 On ch=8 n=55 v=0
14640 On ch=8 n=48 v=0
14640 On ch=8 n=36 v=0
14640 On ch=8 n=35 v=100
14640 On ch=8 n=47 v=100
14640 On ch=8 n=62 v=100
14820 On ch=8 n=62 v=0
14820 On ch=8 n=64 v=100
14880 On ch=8 n=64 v=0
14880 On ch=8 n=47 v=0
14880 On ch=8 n=35 v=0
14880 On ch=8 n=33 v=100
14880 On ch=8 n=45 v=100
14880 On ch=8 n=64 v=100
14920 On ch=8 n=64 v=0
14920 On ch=8 n=62 v=100
14960 On ch=8 n=62 v=0
14960 On ch=8 n=60 v=100
15059 On ch=8 n=60 v=0
15060 On ch=8 n=55 v=100
15120 On ch=8 n=55 v=0
15120 On ch=8 n=45 v=0
15120 On ch=8 n=33 v=0
15120 On ch=8 n=55 v=100
15180 On ch=8 n=35 v=100
15180 On ch=8 n=47 v=100
15240 On ch=8 n=47 v=0
15240 On ch=8 n=35 v=0
15240 On ch=8 n=35 v=100
15240 On ch=8 n=47 v=100
15300 On ch=8 n=55 v=0
15300 On ch=8 n=55 v=100
15360 On ch=8 n=55 v=0
15360 On ch=8 n=47 v=0
15360 On ch=8 n=35 v=0
15360 On ch=8 n=55 v=100
15360 On ch=8 n=36 v=100
15540 On ch=8 n=55 v=0
15540 On ch=8 n=55 v=100
15600 On ch=8 n=55 v=0
15600 On ch=8 n=36 v=0
15600 On ch=8 n=55 v=100
15600 On ch=8 n=35 v=100
15780 On ch=8 n=55 v=0
15780 On ch=8 n=55 v=100
15840 On ch=8 n=55 v=0
15840 On ch=8 n=35 v=0
15840 On ch=8 n=55 v=100
15840 On ch=8 n=45 v=100
15840 On ch=8 n=33 v=100
15960 On ch=8 n=55 v=0
15960 On ch=8 n=60 v=100
16020 On ch=8 n=60 v=0
16020 On ch=8 n=59 v=100
16073 On ch=8 n=59 v=0
16080 On ch=8 n=55 v=100
16200 On ch=8 n=55 v=0
16200 On ch=8 n=57 v=100
16320 On ch=8 n=57 v=0
16320 On ch=8 n=33 v=0
16320 On ch=8 n=45 v=0
16320 On ch=8 n=57 v=100
16320 On ch=8 n=50 v=100
16320 On ch=8 n=38 v=100
16800 On ch=8 n=38 v=0
16800 On ch=8 n=50 v=0
16800 On ch=8 n=57 v=0
16800 On ch=8 n=50 v=100
16800 On ch=8 n=57 v=100
16800 On ch=8 n=62 v=100
17040 On ch=8 n=62 v=0
17040 On ch=8 n=57 v=0
17040 On ch=8 n=50 v=0
22080 On ch=8 n=54 v=100
22080 On ch=8 n=42 v=100
22140 On ch=8 n=42 v=0
22140 On ch=8 n=54 v=0
22140 On ch=8 n=55 v=100
22140 On ch=8 n=43 v=100
22200 On ch=8 n=43 v=0
22200 On ch=8 n=55 v=0
22200 On ch=8 n=54 v=100
22200 On ch=8 n=42 v=100
22260 On ch=8 n=42 v=0
22260 On ch=8 n=54 v=0
22260 On ch=8 n=55 v=100
22260 On ch=8 n=43 v=100
22320 On ch=8 n=43 v=0
22320 On ch=8 n=55 v=0
22320 On ch=8 n=57 v=100
22320 On ch=8 n=45 v=100
22380 On ch=8 n=45 v=0
22380 On ch=8 n=57 v=0
22380 On ch=8 n=55 v=100
22380 On ch=8 n=43 v=100
22440 On ch=8 n=43 v=0
22440 On ch=8 n=55 v=0
22440 On ch=8 n=54 v=100
22440 On ch=8 n=42 v=100
22500 On ch=8 n=42 v=0
22500 On ch=8 n=54 v=0
22500 On ch=8 n=55 v=100
22500 On ch=8 n=43 v=100
22560 On ch=8 n=43 v=0
22560 On ch=8 n=55 v=0
22560 On ch=8 n=54 v=100
22560 On ch=8 n=42 v=100
22620 On ch=8 n=42 v=0
22620 On ch=8 n=54 v=0
22620 On ch=8 n=55 v=100
22620 On ch=8 n=43 v=100
22680 On ch=8 n=43 v=0
22680 On ch=8 n=55 v=0
22680 On ch=8 n=54 v=100
22680 On ch=8 n=42 v=100
22740 On ch=8 n=42 v=0
22740 On ch=8 n=54 v=0
22740 On ch=8 n=55 v=100
22740 On ch=8 n=43 v=100
22800 On ch=8 n=43 v=0
22800 On ch=8 n=55 v=0
22800 On ch=8 n=57 v=100
22800 On ch=8 n=45 v=100
22860 On ch=8 n=45 v=0
22860 On ch=8 n=57 v=0
22860 On ch=8 n=55 v=100
22860 On ch=8 n=43 v=100
22920 On ch=8 n=43 v=0
22920 On ch=8 n=55 v=0
22920 On ch=8 n=54 v=100
22920 On ch=8 n=42 v=100
22980 On ch=8 n=42 v=0
22980 On ch=8 n=54 v=0
22980 On ch=8 n=55 v=100
22980 On ch=8 n=43 v=100
23040 On ch=8 n=43 v=0
23040 On ch=8 n=55 v=0
23040 On ch=8 n=54 v=100
23040 On ch=8 n=42 v=100
23100 On ch=8 n=42 v=0
23100 On ch=8 n=54 v=0
23100 On ch=8 n=55 v=100
23100 On ch=8 n=43 v=100
23160 On ch=8 n=43 v=0
23160 On ch=8 n=55 v=0
23160 On ch=8 n=54 v=100
23160 On ch=8 n=42 v=100
23220 On ch=8 n=42 v=0
23220 On ch=8 n=54 v=0
23220 On ch=8 n=55 v=100
23220 On ch=8 n=43 v=100
23280 On ch=8 n=43 v=0
23280 On ch=8 n=55 v=0
23280 On ch=8 n=57 v=100
23280 On ch=8 n=45 v=100
23340 On ch=8 n=45 v=0
23340 On ch=8 n=57 v=0
23340 On ch=8 n=55 v=100
23340 On ch=8 n=43 v=100
23400 On ch=8 n=43 v=0
23400 On ch=8 n=55 v=0
23400 On ch=8 n=54 v=100
23400 On ch=8 n=42 v=100
23460 On ch=8 n=42 v=0
23460 On ch=8 n=54 v=0
23460 On ch=8 n=55 v=100
23460 On ch=8 n=43 v=100
23520 On ch=8 n=43 v=0
23520 On ch=8 n=55 v=0
23520 On ch=8 n=54 v=100
23520 On ch=8 n=42 v=100
23580 On ch=8 n=42 v=0
23580 On ch=8 n=54 v=0
23580 On ch=8 n=55 v=100
23580 On ch=8 n=43 v=100
23640 On ch=8 n=43 v=0
23640 On ch=8 n=55 v=0
23640 On ch=8 n=54 v=100
23640 On ch=8 n=42 v=100
23700 On ch=8 n=42 v=0
23700 On ch=8 n=54 v=0
23700 On ch=8 n=55 v=100
23700 On ch=8 n=43 v=100
23760 On ch=8 n=43 v=0
23760 On ch=8 n=55 v=0
23760 On ch=8 n=57 v=100
23760 On ch=8 n=45 v=100
23820 On ch=8 n=45 v=0
23820 On ch=8 n=57 v=0
23820 On ch=8 n=55 v=100
23820 On ch=8 n=43 v=100
23880 On ch=8 n=43 v=0
23880 On ch=8 n=55 v=0
23880 On ch=8 n=54 v=100
23880 On ch=8 n=42 v=100
23940 On ch=8 n=42 v=0
23940 On ch=8 n=54 v=0
23940 On ch=8 n=55 v=100
23940 On ch=8 n=43 v=100
24000 On ch=8 n=43 v=0
24000 On ch=8 n=55 v=0
24000 On ch=8 n=55 v=100
24000 On ch=8 n=43 v=100
24240 On ch=8 n=43 v=0
24240 On ch=8 n=55 v=0
24240 On ch=8 n=54 v=100
24240 On ch=8 n=42 v=100
24480 On ch=8 n=42 v=0
24480 On ch=8 n=54 v=0
24480 On ch=8 n=52 v=100
24480 On ch=8 n=40 v=100
24960 On ch=8 n=40 v=0
24960 On ch=8 n=52 v=0
24960 On ch=8 n=55 v=100
24960 On ch=8 n=43 v=100
25200 On ch=8 n=43 v=0
25200 On ch=8 n=55 v=0
25200 On ch=8 n=54 v=100
25200 On ch=8 n=42 v=100
25440 On ch=8 n=42 v=0
25440 On ch=8 n=54 v=0
25440 On ch=8 n=52 v=100
25440 On ch=8 n=40 v=100
25800 On ch=8 n=40 v=0
25800 On ch=8 n=52 v=0
25800 On ch=8 n=50 v=100
25800 On ch=8 n=38 v=100
25920 On ch=8 n=38 v=0
25920 On ch=8 n=50 v=0
25920 On ch=8 n=49 v=100
25920 On ch=8 n=37 v=100
26400 On ch=8 n=37 v=0
26400 On ch=8 n=49 v=0
26400 On ch=8 n=50 v=100
26400 On ch=8 n=38 v=100
27360 On ch=8 n=38 v=0
27360 On ch=8 n=50 v=0
27360 On ch=8 n=55 v=100
27360 On ch=8 n=43 v=100
27600 On ch=8 n=43 v=0
27600 On ch=8 n=55 v=0
27600 On ch=8 n=54 v=100
27600 On ch=8 n=42 v=100
27840 On ch=8 n=42 v=0
27840 On ch=8 n=54 v=0
27840 On ch=8 n=52 v=100
27840 On ch=8 n=40 v=100
28320 On ch=8 n=40 v=0
28320 On ch=8 n=52 v=0
28320 On ch=8 n=55 v=100
28320 On ch=8 n=43 v=100
28560 On ch=8 n=43 v=0
28560 On ch=8 n=55 v=0
28560 On ch=8 n=54 v=100
28560 On ch=8 n=42 v=100
28800 On ch=8 n=42 v=0
28800 On ch=8 n=54 v=0
28800 On ch=8 n=52 v=100
28800 On ch=8 n=40 v=100
29160 On ch=8 n=40 v=0
29160 On ch=8 n=52 v=0
29160 On ch=8 n=50 v=100
29160 On ch=8 n=38 v=100
29280 On ch=8 n=38 v=0
29280 On ch=8 n=50 v=0
29280 On ch=8 n=49 v=100
29280 On ch=8 n=37 v=100
29760 On ch=8 n=37 v=0
29760 On ch=8 n=49 v=0
29760 On ch=8 n=50 v=100
29760 On ch=8 n=38 v=100
30720 On ch=8 n=38 v=0
30720 On ch=8 n=50 v=0
30720 Meta TrkEnd
TrkEnd
MTrk
0 Meta TrkName "Strings (Treble)    "
0 PrCh ch=9 p=49
0 Par ch=9 c=7 v=100
0 Par ch=9 c=121 v=0
0 Par ch=9 c=91 v=80
1440 On ch=9 n=60 v=100
1440 On ch=9 n=64 v=100
2400 On ch=9 n=64 v=0
2400 On ch=9 n=60 v=0
2400 On ch=9 n=60 v=100
2520 On ch=9 n=60 v=0
2520 On ch=9 n=59 v=100
3200 On ch=9 n=59 v=0
3200 On ch=9 n=64 v=100
3280 On ch=9 n=64 v=0
3280 On ch=9 n=67 v=100
3360 On ch=9 n=67 v=0
3360 On ch=9 n=67 v=100
3360 On ch=9 n=59 v=100
3600 On ch=9 n=67 v=0
3600 On ch=9 n=62 v=100
3720 On ch=9 n=59 v=0
3720 On ch=9 n=55 v=100
3840 On ch=9 n=55 v=0
3840 On ch=9 n=62 v=0
3840 On ch=9 n=67 v=100
3840 On ch=9 n=57 v=100
4200 On ch=9 n=57 v=0
4200 On ch=9 n=67 v=0
4260 On ch=9 n=57 v=100
4320 On ch=9 n=57 v=0
4320 On ch=9 n=57 v=100
4320 On ch=9 n=62 v=100
5040 On ch=9 n=62 v=0
5040 On ch=9 n=57 v=0
5280 On ch=9 n=60 v=100
5520 On ch=9 n=60 v=0
5520 On ch=9 n=62 v=100
5760 On ch=9 n=62 v=0
5760 On ch=9 n=62 v=100
5820 On ch=9 n=62 v=0
5820 On ch=9 n=64 v=100
5820 On ch=9 n=60 v=100
6120 On ch=9 n=60 v=0
6120 On ch=9 n=64 v=0
6180 On ch=9 n=64 v=100
6240 On ch=9 n=64 v=0
6240 On ch=9 n=64 v=100
6240 On ch=9 n=60 v=100
6420 On ch=9 n=60 v=0
6420 On ch=9 n=64 v=0
6420 On ch=9 n=62 v=100
6420 On ch=9 n=66 v=100
6480 On ch=9 n=66 v=0
6480 On ch=9 n=62 v=0
6480 On ch=9 n=66 v=100
6480 On ch=9 n=62 v=100
6660 On ch=9 n=62 v=0
6660 On ch=9 n=66 v=0
6660 On ch=9 n=62 v=100
6660 On ch=9 n=66 v=100
6720 On ch=9 n=66 v=0
6720 On ch=9 n=62 v=0
6720 On ch=9 n=66 v=100
6720 On ch=9 n=62 v=100
6780 On ch=9 n=62 v=0
6780 On ch=9 n=66 v=0
6780 On ch=9 n=64 v=100
6780 On ch=9 n=67 v=100
6900 On ch=9 n=67 v=0
6900 On ch=9 n=67 v=100
6960 On ch=9 n=67 v=0
6960 On ch=9 n=72 v=100
7020 On ch=9 n=72 v=0
7020 On ch=9 n=71 v=100
7140 On ch=9 n=71 v=0
7140 On ch=9 n=69 v=100
7200 On ch=9 n=64 v=0
7200 On ch=9 n=67 v=100
7860 On ch=9 n=67 v=0
7860 On ch=9 n=69 v=0
8340 On ch=9 n=64 v=100
8340 On ch=9 n=60 v=100
8400 On ch=9 n=60 v=0
8400 On ch=9 n=64 v=0
8400 On ch=9 n=64 v=100
8460 On ch=9 n=64 v=0
8460 On ch=9 n=60 v=100
8520 On ch=9 n=60 v=0
8520 On ch=9 n=64 v=100
8580 On ch=9 n=64 v=0
8580 On ch=9 n=60 v=100
8640 On ch=9 n=60 v=0
8640 On ch=9 n=64 v=100
8640 On ch=9 n=60 v=100
8700 On ch=9 n=60 v=0
8700 On ch=9 n=64 v=0
8700 On ch=9 n=60 v=100
8760 On ch=9 n=60 v=0
8760 On ch=9 n=64 v=100
8820 On ch=9 n=64 v=0
8820 On ch=9 n=69 v=100
8880 On ch=9 n=69 v=0
8880 On ch=9 n=69 v=100
9120 On ch=9 n=69 v=0
9120 On ch=9 n=66 v=100
9120 On ch=9 n=71 v=100
9180 On ch=9 n=71 v=0
9180 On ch=9 n=66 v=0
9180 On ch=9 n=67 v=100
9180 On ch=9 n=64 v=100
9240 On ch=9 n=64 v=0
9240 On ch=9 n=67 v=0
9240 On ch=9 n=71 v=100
9240 On ch=9 n=59 v=100
9300 On ch=9 n=59 v=0
9300 On ch=9 n=71 v=0
9300 On ch=9 n=64 v=100
9300 On ch=9 n=67 v=100
9360 On ch=9 n=67 v=0
9360 On ch=9 n=64 v=0
9360 On ch=9 n=71 v=100
9360 On ch=9 n=66 v=100
9420 On ch=9 n=66 v=0
9420 On ch=9 n=71 v=0
9420 On ch=9 n=67 v=100
9420 On ch=9 n=64 v=100
9480 On ch=9 n=64 v=0
9480 On ch=9 n=67 v=0
9480 On ch=9 n=71 v=100
9480 On ch=9 n=66 v=100
9540 On ch=9 n=66 v=0
9540 On ch=9 n=71 v=0
9540 On ch=9 n=67 v=100
9540 On ch=9 n=64 v=100
9600 On ch=9 n=64 v=0
9600 On ch=9 n=67 v=0
9600 On ch=9 n=66 v=100
9600 On ch=9 n=71 v=100
9660 On ch=9 n=71 v=0
9660 On ch=9 n=66 v=0
9660 On ch=9 n=67 v=100
9660 On ch=9 n=64 v=100
9720 On ch=9 n=64 v=0
9720 On ch=9 n=67 v=0
9720 On ch=9 n=71 v=100
9720 On ch=9 n=59 v=100
9780 On ch=9 n=59 v=0
9780 On ch=9 n=71 v=0
9780 On ch=9 n=64 v=100
9780 On ch=9 n=67 v=100
9840 On ch=9 n=67 v=0
9840 On ch=9 n=64 v=0
9840 On ch=9 n=71 v=100
9840 On ch=9 n=67 v=100
9900 On ch=9 n=67 v=0
9900 On ch=9 n=71 v=0
9900 On ch=9 n=67 v=100
9900 On ch=9 n=64 v=100
9960 On ch=9 n=64 v=0
9960 On ch=9 n=67 v=0
9960 On ch=9 n=59 v=100
9960 On ch=9 n=67 v=100
10020 On ch=9 n=59 v=0
10020 On ch=9 n=61 v=100
10080 On ch=9 n=61 v=0
10080 On ch=9 n=67 v=0
10080 On ch=9 n=59 v=100
10080 On ch=9 n=62 v=100
10320 On ch=9 n=62 v=0
10320 On ch=9 n=67 v=100
10500 On ch=9 n=67 v=0
10500 On ch=9 n=71 v=100
10530 On ch=9 n=71 v=0
10530 On ch=9 n=67 v=100
10560 On ch=9 n=67 v=0
10560 On ch=9 n=59 v=0
10560 On ch=9 n=61 v=100
10560 On ch=9 n=59 v=100
10680 On ch=9 n=59 v=0
10680 On ch=9 n=61 v=0
10680 On ch=9 n=64 v=100
10680 On ch=9 n=59 v=100
10680 On ch=9 n=61 v=100
10720 On ch=9 n=61 v=0
10720 On ch=9 n=59 v=0
10720 On ch=9 n=64 v=0
10720 On ch=9 n=67 v=100
10720 On ch=9 n=61 v=100
10720 On ch=9 n=64 v=100
10760 On ch=9 n=64 v=0
10760 On ch=9 n=61 v=0
10760 On ch=9 n=67 v=0
10760 On ch=9 n=71 v=100
10760 On ch=9 n=67 v=100
10760 On ch=9 n=64 v=100
10800 On ch=9 n=64 v=0
10800 On ch=9 n=67 v=0
10800 On ch=9 n=61 v=100
10800 On ch=9 n=64 v=100
10800 On ch=9 n=67 v=100
10920 On ch=9 n=71 v=0
10920 On ch=9 n=76 v=100
11040 On ch=9 n=76 v=0
11040 On ch=9 n=67 v=0
11040 On ch=9 n=64 v=0
11040 On ch=9 n=61 v=0
11040 On ch=9 n=57 v=100
11220 On ch=9 n=62 v=100
11280 On ch=9 n=62 v=0
11280 On ch=9 n=62 v=100
11340 On ch=9 n=62 v=0
11340 On ch=9 n=57 v=0
11340 On ch=9 n=62 v=100
11340 On ch=9 n=69 v=100
11400 On ch=9 n=69 v=0
11400 On ch=9 n=62 v=0
11400 On ch=9 n=62 v=100
11400 On ch=9 n=69 v=100
11460 On ch=9 n=69 v=0
11460 On ch=9 n=62 v=0
11460 On ch=9 n=67 v=100
11460 On ch=9 n=74 v=100
11520 On ch=9 n=74 v=0
11520 On ch=9 n=67 v=0
11520 On ch=9 n=74 v=100
11520 On ch=9 n=69 v=100
11520 On ch=9 n=66 v=100
11880 On ch=9 n=66 v=0
11880 On ch=9 n=69 v=0
11880 On ch=9 n=74 v=0
12080 On ch=9 n=60 v=100
12160 On ch=9 n=60 v=0
12160 On ch=9 n=67 v=100
12240 On ch=9 n=67 v=0
12240 On ch=9 n=67 v=100
12240 On ch=9 n=74 v=100
12420 On ch=9 n=74 v=0
12420 On ch=9 n=79 v=100
12480 On ch=9 n=79 v=0
12480 On ch=9 n=67 v=0
12480 On ch=9 n=67 v=100
12480 On ch=9 n=64 v=100
12480 On ch=9 n=60 v=100
12480 On ch=9 n=76 v=100
12960 On ch=9 n=76 v=0
12960 On ch=9 n=67 v=0
12960 On ch=9 n=64 v=0
12960 On ch=9 n=60 v=0
12960 On ch=9 n=76 v=100
12960 On ch=9 n=72 v=100
13140 On ch=9 n=72 v=0
13140 On ch=9 n=76 v=0
13140 On ch=9 n=78 v=100
13140 On ch=9 n=71 v=100
13200 On ch=9 n=71 v=0
13200 On ch=9 n=78 v=0
13200 On ch=9 n=78 v=100
13200 On ch=9 n=71 v=100
13380 On ch=9 n=71 v=0
13380 On ch=9 n=78 v=0
13380 On ch=9 n=78 v=100
13380 On ch=9 n=71 v=100
13440 On ch=9 n=71 v=0
13440 On ch=9 n=78 v=0
13440 On ch=9 n=71 v=100
13440 On ch=9 n=78 v=100
13493 On ch=9 n=71 v=0
13500 On ch=9 n=78 v=0
13500 On ch=9 n=69 v=100
13500 On ch=9 n=79 v=100
13560 On ch=9 n=79 v=0
13560 On ch=9 n=72 v=100
13605 On ch=9 n=72 v=0
13605 On ch=9 n=74 v=100
13620 On ch=9 n=74 v=0
13620 On ch=9 n=76 v=100
13635 On ch=9 n=76 v=0
13635 On ch=9 n=78 v=100
13650 On ch=9 n=78 v=0
13650 On ch=9 n=79 v=100
13665 On ch=9 n=79 v=0
13665 On ch=9 n=81 v=100
13673 On ch=9 n=69 v=0
13680 On ch=9 n=81 v=0
13680 On ch=9 n=83 v=100
13680 On ch=9 n=71 v=100
13793 On ch=9 n=71 v=0
13800 On ch=9 n=83 v=0
13800 On ch=9 n=69 v=100
13800 On ch=9 n=81 v=100
13920 On ch=9 n=81 v=0
13920 On ch=9 n=69 v=0
13920 On ch=9 n=74 v=100
13920 On ch=9 n=86 v=100
14280 On ch=9 n=86 v=0
14280 On ch=9 n=74 v=0
14280 On ch=9 n=74 v=100
14280 On ch=9 n=62 v=100
14300 On ch=9 n=62 v=0
14300 On ch=9 n=74 v=0
14300 On ch=9 n=76 v=100
14300 On ch=9 n=64 v=100
14320 On ch=9 n=64 v=0
14320 On ch=9 n=76 v=0
14320 On ch=9 n=78 v=100
14320 On ch=9 n=66 v=100
14340 On ch=9 n=66 v=0
14340 On ch=9 n=78 v=0
14340 On ch=9 n=79 v=100
14340 On ch=9 n=67 v=100
14360 On ch=9 n=67 v=0
14360 On ch=9 n=79 v=0
14360 On ch=9 n=81 v=100
14360 On ch=9 n=69 v=100
14380 On ch=9 n=69 v=0
14380 On ch=9 n=81 v=0
14380 On ch=9 n=83 v=100
14380 On ch=9 n=71 v=100
14400 On ch=9 n=71 v=0
14400 On ch=9 n=83 v=0
14400 On ch=9 n=84 v=100
14400 On ch=9 n=72 v=100
14580 On ch=9 n=72 v=0
14580 On ch=9 n=84 v=0
14580 On ch=9 n=74 v=100
14580 On ch=9 n=86 v=100
14640 On ch=9 n=86 v=0
14640 On ch=9 n=74 v=0
14640 On ch=9 n=74 v=100
14640 On ch=9 n=86 v=100
14820 On ch=9 n=86 v=0
14820 On ch=9 n=74 v=0
14820 On ch=9 n=76 v=100
14820 On ch=9 n=88 v=100
14880 On ch=9 n=88 v=0
14880 On ch=9 n=76 v=0
14880 On ch=9 n=88 v=100
14880 On ch=9 n=76 v=100
15300 On ch=9 n=76 v=0
15300 On ch=9 n=88 v=0
15300 On ch=9 n=76 v=100
15300 On ch=9 n=88 v=100
15360 On ch=9 n=88 v=0
15360 On ch=9 n=76 v=0
15360 On ch=9 n=88 v=100
15540 On ch=9 n=88 v=0
15540 On ch=9 n=90 v=100
15600 On ch=9 n=90 v=0
15600 On ch=9 n=90 v=100
15780 On ch=9 n=90 v=0
15780 On ch=9 n=91 v=100
15825 On ch=9 n=91 v=0
15840 On ch=9 n=91 v=100
15840 On ch=9 n=79 v=100
15900 On ch=9 n=79 v=0
15900 On ch=9 n=91 v=0
15900 On ch=9 n=76 v=100
15900 On ch=9 n=88 v=100
15960 On ch=9 n=88 v=0
15960 On ch=9 n=76 v=0
15960 On ch=9 n=86 v=100
15960 On ch=9 n=98 v=100
16073 On ch=9 n=86 v=0
16080 On ch=9 n=98 v=0
16080 On ch=9 n=96 v=100
16080 On ch=9 n=84 v=100
16320 On ch=9 n=84 v=0
16320 On ch=9 n=96 v=0
16320 On ch=9 n=83 v=100
16320 On ch=9 n=95 v=100
16380 On ch=9 n=95 v=0
16380 On ch=9 n=83 v=0
16380 On ch=9 n=93 v=100
16380 On ch=9 n=81 v=100
16440 On ch=9 n=81 v=0
16440 On ch=9 n=93 v=0
16440 On ch=9 n=91 v=100
16440 On ch=9 n=79 v=100
16800 On ch=9 n=79 v=0
16800 On ch=9 n=91 v=0
16800 On ch=9 n=74 v=100
16800 On ch=9 n=86 v=100
17040 On ch=9 n=86 v=0
17040 On ch=9 n=74 v=0
17280 On ch=9 n=71 v=100
18240 On ch=9 n=71 v=0
18240 On ch=9 n=76 v=100
18720 On ch=9 n=76 v=0
18720 On ch=9 n=72 v=100
19200 On ch=9 n=72 v=0
19200 On ch=9 n=76 v=100
19680 On ch=9 n=76 v=0
19680 On ch=9 n=72 v=100
20160 On ch=9 n=72 v=0
20160 On ch=9 n=76 v=100
20640 On ch=9 n=76 v=0
20760 On ch=9 n=72 v=100
20760 On ch=9 n=76 v=100
20760 On ch=9 n=83 v=100
20880 On ch=9 n=83 v=0
20880 On ch=9 n=86 v=100
21000 On ch=9 n=86 v=0
21000 On ch=9 n=83 v=100
21120 On ch=9 n=83 v=0
21120 On ch=9 n=76 v=0
21120 On ch=9 n=72 v=0
21120 On ch=9 n=83 v=100
21120 On ch=9 n=79 v=100
21120 On ch=9 n=76 v=100
21120 On ch=9 n=88 v=100
22080 On ch=9 n=88 v=0
22080 On ch=9 n=83 v=0
22080 On ch=9 n=79 v=0
22080 On ch=9 n=76 v=0
24000 On ch=9 n=91 v=100
24000 On ch=9 n=79 v=100
24240 On ch=9 n=79 v=0
24240 On ch=9 n=91 v=0
24240 On ch=9 n=90 v=100
24240 On ch=9 n=78 v=100
24480 On ch=9 n=78 v=0
24480 On ch=9 n=90 v=0
24480 On ch=9 n=91 v=100
24480 On ch=9 n=79 v=100
24720 On ch=9 n=79 v=0
24720 On ch=9 n=91 v=0
24720 On ch=9 n=83 v=100
24720 On ch=9 n=95 v=100
24900 On ch=9 n=95 v=0
24900 On ch=9 n=83 v=0
24900 On ch=9 n=86 v=100
24900 On ch=9 n=98 v=100
24960 On ch=9 n=98 v=0
24960 On ch=9 n=86 v=0
24960 On ch=9 n=91 v=100
24960 On ch=9 n=79 v=100
25200 On ch=9 n=79 v=0
25200 On ch=9 n=91 v=0
25200 On ch=9 n=93 v=100
25200 On ch=9 n=81 v=100
25440 On ch=9 n=81 v=0
25440 On ch=9 n=93 v=0
25440 On ch=9 n=86 v=100
25440 On ch=9 n=98 v=100
25560 On ch=9 n=98 v=0
25560 On ch=9 n=86 v=0
25560 On ch=9 n=88 v=100
25560 On ch=9 n=100 v=100
25680 On ch=9 n=100 v=0
25680 On ch=9 n=88 v=0
25680 On ch=9 n=90 v=100
25680 On ch=9 n=102 v=100
25800 On ch=9 n=102 v=0
25800 On ch=9 n=90 v=0
25800 On ch=9 n=91 v=100
25800 On ch=9 n=103 v=100
25920 On ch=9 n=103 v=0
25920 On ch=9 n=91 v=0
25920 On ch=9 n=91 v=100
25920 On ch=9 n=103 v=100
26160 On ch=9 n=103 v=0
26160 On ch=9 n=91 v=0
26160 On ch=9 n=93 v=100
26160 On ch=9 n=81 v=100
26400 On ch=9 n=81 v=0
26400 On ch=9 n=93 v=0
26400 On ch=9 n=88 v=100
26400 On ch=9 n=100 v=100
26580 On ch=9 n=100 v=0
26580 On ch=9 n=88 v=0
26580 On ch=9 n=98 v=100
26580 On ch=9 n=86 v=100
26640 On ch=9 n=86 v=0
26640 On ch=9 n=98 v=0
26640 On ch=9 n=98 v=100
26640 On ch=9 n=86 v=100
26760 On ch=9 n=86 v=0
26760 On ch=9 n=98 v=0
26760 On ch=9 n=95 v=100
26760 On ch=9 n=83 v=100
26820 On ch=9 n=83 v=0
26820 On ch=9 n=95 v=0
26820 On ch=9 n=82 v=100
26820 On ch=9 n=89 v=100
26820 On ch=9 n=101 v=100
27360 On ch=9 n=101 v=0
27360 On ch=9 n=89 v=0
27360 On ch=9 n=82 v=0
27360 On ch=9 n=98 v=100
27360 On ch=9 n=86 v=100
27360 On ch=9 n=74 v=100
27840 On ch=9 n=74 v=0
27840 On ch=9 n=86 v=0
27840 On ch=9 n=98 v=0
27840 On ch=9 n=79 v=100
27840 On ch=9 n=103 v=100
27840 On ch=9 n=91 v=100
27960 On ch=9 n=91 v=0
27960 On ch=9 n=103 v=0
27960 On ch=9 n=79 v=0
27960 On ch=9 n=74 v=100
27960 On ch=9 n=86 v=100
27960 On ch=9 n=98 v=100
28080 On ch=9 n=98 v=0
28080 On ch=9 n=86 v=0
28080 On ch=9 n=74 v=0
28080 On ch=9 n=95 v=100
28080 On ch=9 n=71 v=100
28080 On ch=9 n=83 v=100
28200 On ch=9 n=83 v=0
28200 On ch=9 n=71 v=0
28200 On ch=9 n=95 v=0
28200 On ch=9 n=74 v=100
28200 On ch=9 n=86 v=100
28200 On ch=9 n=98 v=100
28320 On ch=9 n=98 v=0
28320 On ch=9 n=86 v=0
28320 On ch=9 n=74 v=0
28320 On ch=9 n=98 v=100
28320 On ch=9 n=86 v=100
28320 On ch=9 n=74 v=100
28560 On ch=9 n=74 v=0
28560 On ch=9 n=76 v=100
28680 On ch=9 n=76 v=0
28680 On ch=9 n=86 v=0
28680 On ch=9 n=98 v=0
28680 On ch=9 n=100 v=100
28680 On ch=9 n=88 v=100
28680 On ch=9 n=74 v=100
28800 On ch=9 n=74 v=0
28800 On ch=9 n=88 v=0
28800 On ch=9 n=100 v=0
28800 On ch=9 n=86 v=100
28800 On ch=9 n=98 v=100
28800 On ch=9 n=79 v=100
28920 On ch=9 n=98 v=0
28920 On ch=9 n=86 v=0
28920 On ch=9 n=88 v=100
28920 On ch=9 n=100 v=100
29040 On ch=9 n=100 v=0
29040 On ch=9 n=88 v=0
29040 On ch=9 n=90 v=100
29040 On ch=9 n=102 v=100
29160 On ch=9 n=102 v=0
29160 On ch=9 n=90 v=0
29160 On ch=9 n=91 v=100
29160 On ch=9 n=103 v=100
29280 On ch=9 n=103 v=0
29280 On ch=9 n=91 v=0
29280 On ch=9 n=79 v=0
29280 On ch=9 n=91 v=100
29280 On ch=9 n=103 v=100
29520 On ch=9 n=103 v=0
29520 On ch=9 n=91 v=0
29520 On ch=9 n=93 v=100
29520 On ch=9 n=81 v=100
29700 On ch=9 n=81 v=0
29700 On ch=9 n=93 v=0
29700 On ch=9 n=88 v=100
29700 On ch=9 n=76 v=100
29760 On ch=9 n=76 v=0
29760 On ch=9 n=88 v=0
29760 On ch=9 n=88 v=100
29760 On ch=9 n=76 v=100
29940 On ch=9 n=76 v=0
29940 On ch=9 n=88 v=0
29940 On ch=9 n=86 v=100
29940 On ch=9 n=74 v=100
30000 On ch=9 n=74 v=0
30000 On ch=9 n=86 v=0
30000 On ch=9 n=86 v=100
30000 On ch=9 n=74 v=100
30120 On ch=9 n=74 v=0
30120 On ch=9 n=86 v=0
30120 On ch=9 n=83 v=100
30120 On ch=9 n=71 v=100
30180 On ch=9 n=71 v=0
30180 On ch=9 n=83 v=0
30180 On ch=9 n=89 v=100
30180 On ch=9 n=77 v=100
30240 On ch=9 n=62 v=100
31200 On ch=9 n=62 v=0
31200 On ch=9 n=77 v=0
31200 On ch=9 n=89 v=0
31200 On ch=9 n=40 v=100
31200 On ch=9 n=64 v=100
31260 On ch=9 n=76 v=100
31350 On ch=9 n=76 v=0
31350 On ch=9 n=71 v=100
31380 On ch=9 n=71 v=0
31380 On ch=9 n=69 v=100
31410 On ch=9 n=69 v=0
31410 On ch=9 n=67 v=100
31440 On ch=9 n=67 v=0
31440 On ch=9 n=64 v=0
31440 On ch=9 n=69 v=100
31440 On ch=9 n=59 v=100
31470 On ch=9 n=69 v=0
31470 On ch=9 n=67 v=100
31560 On ch=9 n=67 v=0
31560 On ch=9 n=64 v=100
31680 On ch=9 n=59 v=0
31680 On ch=9 n=60 v=100
31920 On ch=9 n=40 v=0
32160 On ch=9 n=60 v=0
32160 On ch=9 n=64 v=0
32280 On ch=9 n=64 v=100
32280 On ch=9 n=59 v=100
32640 On ch=9 n=59 v=0
32640 On ch=9 n=64 v=0
32640 On ch=9 n=60 v=100
32640 On ch=9 n=63 v=100
33120 On ch=9 n=63 v=0
33120 On ch=9 n=60 v=0
33180 On ch=9 n=60 v=100
33180 On ch=9 n=64 v=100
33600 On ch=9 n=64 v=0
33600 On ch=9 n=60 v=0
33600 On ch=9 n=60 v=100
33600 On ch=9 n=56 v=100
34080 On ch=9 n=56 v=0
34080 On ch=9 n=60 v=0
34080 On ch=9 n=57 v=100
34080 On ch=9 n=53 v=100
34560 On ch=9 n=53 v=0
34560 On ch=9 n=57 v=0
34560 On ch=9 n=54 v=100
34560 On ch=9 n=50 v=100
35040 On ch=9 n=50 v=0
35040 On ch=9 n=54 v=0
35220 On ch=9 n=58 v=100
35220 On ch=9 n=62 v=100
36000 On ch=9 n=62 v=0
36000 On ch=9 n=58 v=0
36240 On ch=9 n=76 v=100
36240 On ch=9 n=88 v=100
36720 On ch=9 n=88 v=0
36720 On ch=9 n=76 v=0
36720 On ch=9 n=79 v=100
36720 On ch=9 n=91 v=100
36960 On ch=9 n=60 v=100
37320 On ch=9 n=60 v=0
37320 On ch=9 n=67 v=100
37440 On ch=9 n=67 v=0
37440 On ch=9 n=91 v=0
37440 On ch=9 n=79 v=0
37440 On ch=9 n=64 v=100
37440 On ch=9 n=79 v=100
37440 On ch=9 n=81 v=100
37440 On ch=9 n=93 v=100
37560 On ch=9 n=64 v=0
37560 On ch=9 n=67 v=100
37680 On ch=9 n=67 v=0
37680 On ch=9 n=79 v=0
37680 On ch=9 n=66 v=100
37680 On ch=9 n=78 v=100
37760 On ch=9 n=66 v=0
37760 On ch=9 n=62 v=100
37840 On ch=9 n=62 v=0
37840 On ch=9 n=57 v=100
37920 On ch=9 n=57 v=0
37920 On ch=9 n=93 v=0
37920 On ch=9 n=81 v=0
37920 On ch=9 n=78 v=0
37920 On ch=9 n=76 v=100
37920 On ch=9 n=79 v=100
37920 On ch=9 n=83 v=100
37920 On ch=9 n=95 v=100
38160 On ch=9 n=79 v=0
38160 On ch=9 n=76 v=0
38160 On ch=9 n=78 v=100
38160 On ch=9 n=74 v=100
38400 On ch=9 n=74 v=0
38400 On ch=9 n=95 v=0
38400 On ch=9 n=83 v=0
38400 On ch=9 n=78 v=0
38400 On ch=9 n=73 v=100
38400 On ch=9 n=76 v=100
38400 On ch=9 n=88 v=100
38640 On ch=9 n=73 v=0
38640 On ch=9 n=74 v=100
38640 On ch=9 n=71 v=100
38880 On ch=9 n=71 v=0
38880 On ch=9 n=76 v=0
38880 On ch=9 n=88 v=0
38880 On ch=9 n=74 v=0
38880 On ch=9 n=88 v=100
38880 On ch=9 n=69 v=100
38880 On ch=9 n=73 v=100
38880 On ch=9 n=100 v=100
39060 On ch=9 n=73 v=0
39060 On ch=9 n=69 v=0
39060 On ch=9 n=74 v=100
39060 On ch=9 n=71 v=100
39090 On ch=9 n=71 v=0
39090 On ch=9 n=74 v=0
39090 On ch=9 n=73 v=100
39090 On ch=9 n=69 v=100
39120 On ch=9 n=69 v=0
39120 On ch=9 n=73 v=0
39120 On ch=9 n=71 v=100
39120 On ch=9 n=67 v=100
39360 On ch=9 n=67 v=0
39360 On ch=9 n=71 v=0
39360 On ch=9 n=69 v=100
39360 On ch=9 n=66 v=100
39600 On ch=9 n=66 v=0
39600 On ch=9 n=69 v=0
39600 On ch=9 n=67 v=100
39600 On ch=9 n=64 v=100
39840 On ch=9 n=64 v=0
39840 On ch=9 n=67 v=0
39840 On ch=9 n=64 v=100
39840 On ch=9 n=59 v=100
40920 On ch=9 n=88 v=0
40920 On ch=9 n=100 v=0
41040 On ch=9 n=64 v=0
41040 On ch=9 n=59 v=0
41040 Meta TrkEnd
TrkEnd
MTrk
0 Meta TrkName "Strings (Bass)      "
0 PrCh ch=11 p=50
0 Par ch=11 c=7 v=100
0 Par ch=11 c=121 v=0
0 Par ch=11 c=91 v=80
1440 On ch=11 n=57 v=100
1440 On ch=11 n=45 v=100
1920 On ch=11 n=45 v=0
1920 On ch=11 n=45 v=100
2160 On ch=11 n=45 v=0
2160 On ch=11 n=42 v=100
2400 On ch=11 n=42 v=0
2400 On ch=11 n=57 v=0
2400 On ch=11 n=55 v=100
2400 On ch=11 n=52 v=100
2400 On ch=11 n=40 v=100
2880 On ch=11 n=40 v=0
2880 On ch=11 n=50 v=100
3120 On ch=11 n=50 v=0
3120 On ch=11 n=52 v=0
3120 On ch=11 n=55 v=0
3120 On ch=11 n=55 v=100
3120 On ch=11 n=49 v=100
3200 On ch=11 n=55 v=0
3200 On ch=11 n=57 v=100
3280 On ch=11 n=57 v=0
3280 On ch=11 n=59 v=100
3360 On ch=11 n=59 v=0
3360 On ch=11 n=49 v=0
3360 On ch=11 n=50 v=100
3840 On ch=11 n=50 v=0
3840 On ch=11 n=52 v=100
4320 On ch=11 n=52 v=0
4320 On ch=11 n=50 v=100
4320 On ch=11 n=55 v=100
4800 On ch=11 n=55 v=0
4800 On ch=11 n=54 v=100
5040 On ch=11 n=54 v=0
5040 On ch=11 n=50 v=0
5280 On ch=11 n=48 v=100
5520 On ch=11 n=48 v=0
5520 On ch=11 n=47 v=100
5760 On ch=11 n=47 v=0
5760 On ch=11 n=45 v=100
5820 On ch=11 n=52 v=100
5850 On ch=11 n=52 v=0
5850 On ch=11 n=57 v=100
5880 On ch=11 n=57 v=0
5880 On ch=11 n=60 v=100
5940 On ch=11 n=60 v=0
5940 On ch=11 n=59 v=100
6120 On ch=11 n=59 v=0
6120 On ch=11 n=57 v=100
6240 On ch=11 n=57 v=0
6240 On ch=11 n=45 v=0
6240 On ch=11 n=55 v=100
6240 On ch=11 n=48 v=100
6480 On ch=11 n=48 v=0
6480 On ch=11 n=47 v=100
6720 On ch=11 n=47 v=0
6720 On ch=11 n=55 v=0
6720 On ch=11 n=45 v=100
6780 On ch=11 n=52 v=100
6810 On ch=11 n=52 v=0
6810 On ch=11 n=57 v=100
6840 On ch=11 n=57 v=0
6840 On ch=11 n=60 v=100
7200 On ch=11 n=60 v=0
7200 On ch=11 n=45 v=0
7200 On ch=11 n=62 v=100
7200 On ch=11 n=57 v=100
7200 On ch=11 n=50 v=100
7860 On ch=11 n=50 v=0
7860 On ch=11 n=57 v=0
7860 On ch=11 n=62 v=0
8160 On ch=11 n=45 v=100
8280 On ch=11 n=52 v=100
8340 On ch=11 n=52 v=0
8340 On ch=11 n=57 v=100
8400 On ch=11 n=57 v=0
8400 On ch=11 n=59 v=100
8460 On ch=11 n=59 v=0
8460 On ch=11 n=57 v=100
8520 On ch=11 n=57 v=0
8520 On ch=11 n=59 v=100
8580 On ch=11 n=59 v=0
8580 On ch=11 n=57 v=100
8640 On ch=11 n=57 v=0
8640 On ch=11 n=59 v=100
8700 On ch=11 n=59 v=0
8700 On ch=11 n=45 v=0
8700 On ch=11 n=57 v=100
8700 On ch=11 n=48 v=100
8760 On ch=11 n=48 v=0
8760 On ch=11 n=57 v=0
8760 On ch=11 n=59 v=100
8760 On ch=11 n=47 v=100
8820 On ch=11 n=47 v=0
8820 On ch=11 n=59 v=0
8820 On ch=11 n=45 v=100
8820 On ch=11 n=60 v=100
8880 On ch=11 n=60 v=0
8880 On ch=11 n=45 v=0
8880 On ch=11 n=42 v=100
8880 On ch=11 n=62 v=100
8880 On ch=11 n=57 v=100
9120 On ch=11 n=57 v=0
9120 On ch=11 n=62 v=0
9120 On ch=11 n=42 v=0
9120 On ch=11 n=55 v=100
9120 On ch=11 n=52 v=100
9300 On ch=11 n=52 v=0
9300 On ch=11 n=55 v=0
9300 On ch=11 n=52 v=100
9300 On ch=11 n=55 v=100
9360 On ch=11 n=55 v=0
9360 On ch=11 n=52 v=0
9360 On ch=11 n=55 v=100
9360 On ch=11 n=52 v=100
9420 On ch=11 n=55 v=0
9420 On ch=11 n=59 v=100
9480 On ch=11 n=59 v=0
9480 On ch=11 n=55 v=100
9540 On ch=11 n=55 v=0
9540 On ch=11 n=59 v=100
9600 On ch=11 n=59 v=0
9600 On ch=11 n=52 v=0
9600 On ch=11 n=50 v=100
9600 On ch=11 n=55 v=100
9660 On ch=11 n=55 v=0
9660 On ch=11 n=59 v=100
9720 On ch=11 n=59 v=0
9720 On ch=11 n=55 v=100
9780 On ch=11 n=55 v=0
9780 On ch=11 n=50 v=0
9780 On ch=11 n=50 v=100
9780 On ch=11 n=59 v=100
9840 On ch=11 n=59 v=0
9840 On ch=11 n=50 v=0
9840 On ch=11 n=49 v=100
9840 On ch=11 n=64 v=100
9900 On ch=11 n=64 v=0
9900 On ch=11 n=59 v=100
9960 On ch=11 n=59 v=0
9960 On ch=11 n=55 v=100
9960 On ch=11 n=52 v=100
10080 On ch=11 n=52 v=0
10080 On ch=11 n=55 v=0
10080 On ch=11 n=49 v=0
10080 On ch=11 n=55 v=100
10080 On ch=11 n=50 v=100
10560 On ch=11 n=50 v=0
10560 On ch=11 n=55 v=0
10560 On ch=11 n=52 v=100
11040 On ch=11 n=52 v=0
11040 On ch=11 n=55 v=100
11040 On ch=11 n=50 v=100
11400 On ch=11 n=55 v=0
11400 On ch=11 n=52 v=100
11520 On ch=11 n=52 v=0
11520 On ch=11 n=54 v=100
11880 On ch=11 n=54 v=0
11880 On ch=11 n=50 v=0
12000 On ch=11 n=48 v=100
12240 On ch=11 n=48 v=0
12240 On ch=11 n=47 v=100
12480 On ch=11 n=47 v=0
12480 On ch=11 n=45 v=100
12660 On ch=11 n=52 v=100
12720 On ch=11 n=52 v=0
12720 On ch=11 n=60 v=100
12780 On ch=11 n=60 v=0
12780 On ch=11 n=59 v=100
12840 On ch=11 n=59 v=0
12840 On ch=11 n=59 v=100
12900 On ch=11 n=59 v=0
12900 On ch=11 n=57 v=100
12960 On ch=11 n=57 v=0
12960 On ch=11 n=45 v=0
12960 On ch=11 n=55 v=100
12960 On ch=11 n=48 v=100
12960 On ch=11 n=36 v=100
13200 On ch=11 n=36 v=0
13200 On ch=11 n=48 v=0
13200 On ch=11 n=35 v=100
13200 On ch=11 n=47 v=100
13320 On ch=11 n=55 v=0
13320 On ch=11 n=55 v=100
13380 On ch=11 n=55 v=0
13380 On ch=11 n=52 v=100
13440 On ch=11 n=52 v=0
13440 On ch=11 n=47 v=0
13440 On ch=11 n=35 v=0
13440 On ch=11 n=59 v=100
13440 On ch=11 n=45 v=100
13440 On ch=11 n=33 v=100
13560 On ch=11 n=45 v=0
13560 On ch=11 n=59 v=0
13840 On ch=11 n=33 v=0
13840 On ch=11 n=48 v=100
13840 On ch=11 n=36 v=100
13920 On ch=11 n=36 v=0
13920 On ch=11 n=48 v=0
13920 On ch=11 n=38 v=100
13920 On ch=11 n=57 v=100
14273 On ch=11 n=57 v=0
14280 On ch=11 n=38 v=0
14280 On ch=11 n=55 v=100
14280 On ch=11 n=35 v=100
14400 On ch=11 n=35 v=0
14400 On ch=11 n=55 v=0
14400 On ch=11 n=36 v=100
14400 On ch=11 n=48 v=100
14400 On ch=11 n=60 v=100
14580 On ch=11 n=60 v=0
14580 On ch=11 n=62 v=100
14640 On ch=11 n=62 v=0
14640 On ch=11 n=48 v=0
14640 On ch=11 n=36 v=0
14640 On ch=11 n=35 v=100
14640 On ch=11 n=47 v=100
14640 On ch=11 n=62 v=100
14820 On ch=11 n=62 v=0
14820 On ch=11 n=64 v=100
14880 On ch=11 n=64 v=0
14880 On ch=11 n=47 v=0
14880 On ch=11 n=35 v=0
14880 On ch=11 n=64 v=100
14880 On ch=11 n=33 v=100
14880 On ch=11 n=45 v=100
14920 On ch=11 n=64 v=0
14920 On ch=11 n=62 v=100
14960 On ch=11 n=62 v=0
14960 On ch=11 n=60 v=100
15060 On ch=11 n=55 v=100
15067 On ch=11 n=60 v=0
15120 On ch=11 n=33 v=0
15120 On ch=11 n=45 v=0
15120 On ch=11 n=55 v=0
15120 On ch=11 n=55 v=100
15180 On ch=11 n=47 v=100
15180 On ch=11 n=35 v=100
15240 On ch=11 n=35 v=0
15240 On ch=11 n=47 v=0
15240 On ch=11 n=47 v=100
15240 On ch=11 n=35 v=100
15300 On ch=11 n=55 v=0
15300 On ch=11 n=55 v=100
15360 On ch=11 n=55 v=0
15360 On ch=11 n=35 v=0
15360 On ch=11 n=47 v=0
15360 On ch=11 n=55 v=100
15360 On ch=11 n=48 v=100
15540 On ch=11 n=55 v=0
15540 On ch=11 n=55 v=100
15600 On ch=11 n=55 v=0
15600 On ch=11 n=48 v=0
15600 On ch=11 n=55 v=100
15600 On ch=11 n=47 v=100
15780 On ch=11 n=55 v=0
15780 On ch=11 n=55 v=100
15825 On ch=11 n=55 v=0
15825 On ch=11 n=47 v=0
15840 On ch=11 n=55 v=100
15840 On ch=11 n=45 v=100
15840 On ch=11 n=33 v=100
15960 On ch=11 n=55 v=0
15960 On ch=11 n=60 v=100
16020 On ch=11 n=60 v=0
16020 On ch=11 n=59 v=100
16073 On ch=11 n=59 v=0
16080 On ch=11 n=55 v=100
16200 On ch=11 n=55 v=0
16200 On ch=11 n=57 v=100
16320 On ch=11 n=57 v=0
16320 On ch=11 n=33 v=0
16320 On ch=11 n=45 v=0
16320 On ch=11 n=57 v=100
16320 On ch=11 n=50 v=100
16320 On ch=11 n=38 v=100
16800 On ch=11 n=38 v=0
16800 On ch=11 n=50 v=0
16800 On ch=11 n=57 v=0
16800 On ch=11 n=50 v=100
16800 On ch=11 n=57 v=100
16800 On ch=11 n=62 v=100
17040 On ch=11 n=62 v=0
17040 On ch=11 n=57 v=0
17040 On ch=11 n=50 v=0
17280 On ch=11 n=47 v=100
17280 On ch=11 n=40 v=100
17280 On ch=11 n=28 v=100
17340 On ch=11 n=55 v=100
17580 On ch=11 n=55 v=0
17580 On ch=11 n=54 v=100
17820 On ch=11 n=54 v=0
17820 On ch=11 n=52 v=100
18000 On ch=11 n=52 v=0
18240 On ch=11 n=47 v=0
18240 On ch=11 n=40 v=0
18240 On ch=11 n=28 v=0
18240 On ch=11 n=59 v=100
18240 On ch=11 n=40 v=100
18720 On ch=11 n=59 v=0
18720 On ch=11 n=55 v=100
19200 On ch=11 n=55 v=0
19200 On ch=11 n=40 v=0
19200 On ch=11 n=59 v=100
19200 On ch=11 n=40 v=100
19680 On ch=11 n=59 v=0
19680 On ch=11 n=55 v=100
20160 On ch=11 n=55 v=0
20160 On ch=11 n=40 v=0
20160 On ch=11 n=59 v=100
20160 On ch=11 n=52 v=100
20160 On ch=11 n=40 v=100
20640 On ch=11 n=40 v=0
20640 On ch=11 n=52 v=0
20640 On ch=11 n=59 v=0
20640 On ch=11 n=36 v=100
20640 On ch=11 n=43 v=100
20640 On ch=11 n=48 v=100
20640 On ch=11 n=52 v=100
20640 On ch=11 n=55 v=100
21120 On ch=11 n=55 v=0
21120 On ch=11 n=48 v=0
21120 On ch=11 n=36 v=0
21120 On ch=11 n=43 v=0
21120 On ch=11 n=52 v=0
21120 On ch=11 n=55 v=100
21120 On ch=11 n=52 v=100
21120 On ch=11 n=47 v=100
21120 On ch=11 n=40 v=100
21960 On ch=11 n=40 v=0
21960 On ch=11 n=55 v=0
21960 On ch=11 n=52 v=0
21960 On ch=11 n=47 v=0
22140 On ch=11 n=55 v=100
22140 On ch=11 n=43 v=100
22170 On ch=11 n=43 v=0
22170 On ch=11 n=55 v=0
22170 On ch=11 n=55 v=100
22170 On ch=11 n=43 v=100
22200 On ch=11 n=43 v=0
22200 On ch=11 n=55 v=0
22200 On ch=11 n=54 v=100
22200 On ch=11 n=42 v=100
22230 On ch=11 n=42 v=0
22230 On ch=11 n=54 v=0
22230 On ch=11 n=54 v=100
22230 On ch=11 n=42 v=100
22260 On ch=11 n=42 v=0
22260 On ch=11 n=54 v=0
22260 On ch=11 n=55 v=100
22260 On ch=11 n=43 v=100
22290 On ch=11 n=43 v=0
22290 On ch=11 n=55 v=0
22290 On ch=11 n=55 v=100
22290 On ch=11 n=43 v=100
22320 On ch=11 n=43 v=0
22320 On ch=11 n=55 v=0
22320 On ch=11 n=57 v=100
22320 On ch=11 n=45 v=100
22350 On ch=11 n=45 v=0
22350 On ch=11 n=57 v=0
22350 On ch=11 n=57 v=100
22350 On ch=11 n=45 v=100
22380 On ch=11 n=45 v=0
22380 On ch=11 n=57 v=0
22380 On ch=11 n=55 v=100
22380 On ch=11 n=43 v=100
22410 On ch=11 n=43 v=0
22410 On ch=11 n=55 v=0
22410 On ch=11 n=55 v=100
22410 On ch=11 n=43 v=100
22440 On ch=11 n=43 v=0
22440 On ch=11 n=55 v=0
22440 On ch=11 n=54 v=100
22440 On ch=11 n=42 v=100
22470 On ch=11 n=42 v=0
22470 On ch=11 n=54 v=0
22470 On ch=11 n=54 v=100
22470 On ch=11 n=42 v=100
22500 On ch=11 n=42 v=0
22500 On ch=11 n=54 v=0
22500 On ch=11 n=55 v=100
22500 On ch=11 n=43 v=100
22530 On ch=11 n=43 v=0
22530 On ch=11 n=55 v=0
22530 On ch=11 n=55 v=100
22530 On ch=11 n=43 v=100
22560 On ch=11 n=43 v=0
22560 On ch=11 n=55 v=0
22560 On ch=11 n=54 v=100
22560 On ch=11 n=42 v=100
22590 On ch=11 n=42 v=0
22590 On ch=11 n=54 v=0
22590 On ch=11 n=54 v=100
22590 On ch=11 n=42 v=100
22620 On ch=11 n=42 v=0
22620 On ch=11 n=54 v=0
22620 On ch=11 n=55 v=100
22620 On ch=11 n=43 v=100
22650 On ch=11 n=43 v=0
22650 On ch=11 n=55 v=0
22650 On ch=11 n=55 v=100
22650 On ch=11 n=43 v=100
22680 On ch=11 n=43 v=0
22680 On ch=11 n=55 v=0
22680 On ch=11 n=54 v=100
22680 On ch=11 n=42 v=100
22710 On ch=11 n=42 v=0
22710 On ch=11 n=54 v=0
22710 On ch=11 n=54 v=100
22710 On ch=11 n=42 v=100
22740 On ch=11 n=42 v=0
22740 On ch=11 n=54 v=0
22740 On ch=11 n=55 v=100
22740 On ch=11 n=43 v=100
22770 On ch=11 n=43 v=0
22770 On ch=11 n=55 v=0
22770 On ch=11 n=55 v=100
22770 On ch=11 n=43 v=100
22800 On ch=11 n=43 v=0
22800 On ch=11 n=55 v=0
22800 On ch=11 n=57 v=100
22800 On ch=11 n=45 v=100
22830 On ch=11 n=45 v=0
22830 On ch=11 n=57 v=0
22830 On ch=11 n=57 v=100
22830 On ch=11 n=45 v=100
22860 On ch=11 n=45 v=0
22860 On ch=11 n=57 v=0
22860 On ch=11 n=55 v=100
22860 On ch=11 n=43 v=100
22890 On ch=11 n=43 v=0
22890 On ch=11 n=55 v=0
22890 On ch=11 n=55 v=100
22890 On ch=11 n=43 v=100
22920 On ch=11 n=43 v=0
22920 On ch=11 n=55 v=0
22920 On ch=11 n=54 v=100
22920 On ch=11 n=42 v=100
22950 On ch=11 n=42 v=0
22950 On ch=11 n=54 v=0
22950 On ch=11 n=54 v=100
22950 On ch=11 n=42 v=100
22980 On ch=11 n=42 v=0
22980 On ch=11 n=54 v=0
22980 On ch=11 n=55 v=100
22980 On ch=11 n=43 v=100
23010 On ch=11 n=43 v=0
23010 On ch=11 n=55 v=0
23010 On ch=11 n=55 v=100
23010 On ch=11 n=43 v=100
23040 On ch=11 n=43 v=0
23040 On ch=11 n=55 v=0
23040 On ch=11 n=54 v=100
23040 On ch=11 n=42 v=100
23070 On ch=11 n=42 v=0
23070 On ch=11 n=54 v=0
23070 On ch=11 n=54 v=100
23070 On ch=11 n=42 v=100
23100 On ch=11 n=42 v=0
23100 On ch=11 n=54 v=0
23100 On ch=11 n=55 v=100
23100 On ch=11 n=43 v=100
23130 On ch=11 n=43 v=0
23130 On ch=11 n=55 v=0
23130 On ch=11 n=55 v=100
23130 On ch=11 n=43 v=100
23160 On ch=11 n=43 v=0
23160 On ch=11 n=55 v=0
23160 On ch=11 n=54 v=100
23160 On ch=11 n=42 v=100
23190 On ch=11 n=42 v=0
23190 On ch=11 n=54 v=0
23190 On ch=11 n=54 v=100
23190 On ch=11 n=42 v=100
23220 On ch=11 n=42 v=0
23220 On ch=11 n=54 v=0
23220 On ch=11 n=55 v=100
23220 On ch=11 n=43 v=100
23250 On ch=11 n=43 v=0
23250 On ch=11 n=55 v=0
23250 On ch=11 n=55 v=100
23250 On ch=11 n=43 v=100
23280 On ch=11 n=43 v=0
23280 On ch=11 n=55 v=0
23280 On ch=11 n=57 v=100
23280 On ch=11 n=45 v=100
23310 On ch=11 n=45 v=0
23310 On ch=11 n=57 v=0
23310 On ch=11 n=57 v=100
23310 On ch=11 n=45 v=100
23340 On ch=11 n=45 v=0
23340 On ch=11 n=57 v=0
23340 On ch=11 n=55 v=100
23340 On ch=11 n=43 v=100
23370 On ch=11 n=43 v=0
23370 On ch=11 n=55 v=0
23370 On ch=11 n=55 v=100
23370 On ch=11 n=43 v=100
23400 On ch=11 n=43 v=0
23400 On ch=11 n=55 v=0
23400 On ch=11 n=54 v=100
23400 On ch=11 n=42 v=100
23430 On ch=11 n=42 v=0
23430 On ch=11 n=54 v=0
23430 On ch=11 n=54 v=100
23430 On ch=11 n=42 v=100
23460 On ch=11 n=42 v=0
23460 On ch=11 n=54 v=0
23460 On ch=11 n=55 v=100
23460 On ch=11 n=43 v=100
23490 On ch=11 n=43 v=0
23490 On ch=11 n=55 v=0
23490 On ch=11 n=55 v=100
23490 On ch=11 n=43 v=100
23520 On ch=11 n=43 v=0
23520 On ch=11 n=55 v=0
23520 On ch=11 n=54 v=100
23520 On ch=11 n=42 v=100
23550 On ch=11 n=42 v=0
23550 On ch=11 n=54 v=0
23550 On ch=11 n=54 v=100
23550 On ch=11 n=42 v=100
23580 On ch=11 n=42 v=0
23580 On ch=11 n=54 v=0
23580 On ch=11 n=55 v=100
23580 On ch=11 n=43 v=100
23610 On ch=11 n=43 v=0
23610 On ch=11 n=55 v=0
23610 On ch=11 n=55 v=100
23610 On ch=11 n=43 v=100
23640 On ch=11 n=43 v=0
23640 On ch=11 n=55 v=0
23640 On ch=11 n=54 v=100
23640 On ch=11 n=42 v=100
23670 On ch=11 n=42 v=0
23670 On ch=11 n=54 v=0
23670 On ch=11 n=54 v=100
23670 On ch=11 n=42 v=100
23700 On ch=11 n=42 v=0
23700 On ch=11 n=54 v=0
23700 On ch=11 n=55 v=100
23700 On ch=11 n=43 v=100
23730 On ch=11 n=43 v=0
23730 On ch=11 n=55 v=0
23730 On ch=11 n=55 v=100
23730 On ch=11 n=43 v=100
23760 On ch=11 n=43 v=0
23760 On ch=11 n=55 v=0
23760 On ch=11 n=57 v=100
23760 On ch=11 n=45 v=100
23790 On ch=11 n=45 v=0
23790 On ch=11 n=57 v=0
23790 On ch=11 n=57 v=100
23790 On ch=11 n=45 v=100
23820 On ch=11 n=45 v=0
23820 On ch=11 n=57 v=0
23820 On ch=11 n=55 v=100
23820 On ch=11 n=43 v=100
23850 On ch=11 n=43 v=0
23850 On ch=11 n=55 v=0
23850 On ch=11 n=55 v=100
23850 On ch=11 n=43 v=100
23880 On ch=11 n=43 v=0
23880 On ch=11 n=55 v=0
23880 On ch=11 n=54 v=100
23880 On ch=11 n=42 v=100
23910 On ch=11 n=42 v=0
23910 On ch=11 n=54 v=0
23910 On ch=11 n=54 v=100
23910 On ch=11 n=42 v=100
23940 On ch=11 n=42 v=0
23940 On ch=11 n=54 v=0
23940 On ch=11 n=55 v=100
23940 On ch=11 n=43 v=100
23970 On ch=11 n=43 v=0
23970 On ch=11 n=55 v=0
23970 On ch=11 n=55 v=100
23970 On ch=11 n=43 v=100
24000 On ch=11 n=43 v=0
24000 On ch=11 n=55 v=0
24000 On ch=11 n=55 v=100
24000 On ch=11 n=43 v=100
24240 On ch=11 n=43 v=0
24240 On ch=11 n=55 v=0
24240 On ch=11 n=57 v=100
24240 On ch=11 n=54 v=100
24240 On ch=11 n=42 v=100
24480 On ch=11 n=42 v=0
24480 On ch=11 n=54 v=0
24480 On ch=11 n=57 v=0
24480 On ch=11 n=59 v=100
24480 On ch=11 n=52 v=100
24480 On ch=11 n=40 v=100
24840 On ch=11 n=59 v=0
24840 On ch=11 n=55 v=100
24960 On ch=11 n=55 v=0
24960 On ch=11 n=40 v=0
24960 On ch=11 n=52 v=0
24960 On ch=11 n=55 v=100
24960 On ch=11 n=43 v=100
25200 On ch=11 n=43 v=0
25200 On ch=11 n=55 v=0
25200 On ch=11 n=57 v=100
25200 On ch=11 n=54 v=100
25200 On ch=11 n=42 v=100
25440 On ch=11 n=42 v=0
25440 On ch=11 n=54 v=0
25440 On ch=11 n=57 v=0
25440 On ch=11 n=52 v=100
25440 On ch=11 n=55 v=100
25440 On ch=11 n=40 v=100
25800 On ch=11 n=40 v=0
25800 On ch=11 n=52 v=0
25800 On ch=11 n=50 v=100
25800 On ch=11 n=38 v=100
25920 On ch=11 n=38 v=0
25920 On ch=11 n=50 v=0
25920 On ch=11 n=55 v=0
25920 On ch=11 n=49 v=100
25920 On ch=11 n=37 v=100
25920 On ch=11 n=57 v=100
26280 On ch=11 n=57 v=0
26280 On ch=11 n=55 v=100
26400 On ch=11 n=55 v=0
26400 On ch=11 n=37 v=0
26400 On ch=11 n=49 v=0
26400 On ch=11 n=57 v=100
26400 On ch=11 n=50 v=100
26400 On ch=11 n=38 v=100
26640 On ch=11 n=57 v=0
26640 On ch=11 n=55 v=100
26760 On ch=11 n=55 v=0
26760 On ch=11 n=55 v=100
26820 On ch=11 n=55 v=0
26820 On ch=11 n=58 v=100
27360 On ch=11 n=58 v=0
27360 On ch=11 n=38 v=0
27360 On ch=11 n=50 v=0
27360 On ch=11 n=55 v=100
27360 On ch=11 n=43 v=100
27600 On ch=11 n=43 v=0
27600 On ch=11 n=55 v=0
27600 On ch=11 n=57 v=100
27600 On ch=11 n=54 v=100
27600 On ch=11 n=42 v=100
27840 On ch=11 n=42 v=0
27840 On ch=11 n=54 v=0
27840 On ch=11 n=57 v=0
27840 On ch=11 n=59 v=100
27840 On ch=11 n=52 v=100
27840 On ch=11 n=40 v=100
28200 On ch=11 n=59 v=0
28200 On ch=11 n=55 v=100
28320 On ch=11 n=55 v=0
28320 On ch=11 n=40 v=0
28320 On ch=11 n=52 v=0
28320 On ch=11 n=55 v=100
28320 On ch=11 n=43 v=100
28560 On ch=11 n=43 v=0
28560 On ch=11 n=55 v=0
28560 On ch=11 n=57 v=100
28560 On ch=11 n=54 v=100
28560 On ch=11 n=42 v=100
28800 On ch=11 n=42 v=0
28800 On ch=11 n=54 v=0
28800 On ch=11 n=57 v=0
28800 On ch=11 n=64 v=100
28800 On ch=11 n=67 v=100
28800 On ch=11 n=52 v=100
29160 On ch=11 n=52 v=0
29160 On ch=11 n=64 v=0
29160 On ch=11 n=62 v=100
29160 On ch=11 n=50 v=100
29280 On ch=11 n=50 v=0
29280 On ch=11 n=62 v=0
29280 On ch=11 n=67 v=0
29280 On ch=11 n=61 v=100
29280 On ch=11 n=49 v=100
29280 On ch=11 n=69 v=100
29640 On ch=11 n=69 v=0
29640 On ch=11 n=55 v=100
29760 On ch=11 n=55 v=0
29760 On ch=11 n=49 v=0
29760 On ch=11 n=61 v=0
29760 On ch=11 n=57 v=100
29760 On ch=11 n=50 v=100
29760 On ch=11 n=38 v=100
30000 On ch=11 n=57 v=0
30000 On ch=11 n=55 v=100
30120 On ch=11 n=55 v=0
30120 On ch=11 n=55 v=100
30180 On ch=11 n=55 v=0
30180 On ch=11 n=58 v=100
30240 On ch=11 n=55 v=100
31200 On ch=11 n=55 v=0
31200 On ch=11 n=50 v=0
31200 On ch=11 n=38 v=0
31200 On ch=11 n=58 v=0
31200 On ch=11 n=40 v=100
31200 On ch=11 n=28 v=100
31260 On ch=11 n=64 v=100
31350 On ch=11 n=64 v=0
31350 On ch=11 n=59 v=100
31380 On ch=11 n=59 v=0
31380 On ch=11 n=57 v=100
31410 On ch=11 n=57 v=0
31410 On ch=11 n=55 v=100
31440 On ch=11 n=55 v=0
31440 On ch=11 n=57 v=100
31470 On ch=11 n=57 v=0
31470 On ch=11 n=55 v=100
31920 On ch=11 n=28 v=0
31920 On ch=11 n=40 v=0
32160 On ch=11 n=55 v=0
32160 On ch=11 n=28 v=100
32160 On ch=11 n=40 v=100
32280 On ch=11 n=55 v=100
32400 On ch=11 n=55 v=0
32400 On ch=11 n=59 v=100
32520 On ch=11 n=59 v=0
32520 On ch=11 n=40 v=0
32520 On ch=11 n=28 v=0
32520 On ch=11 n=28 v=100
32520 On ch=11 n=40 v=100
32520 On ch=11 n=55 v=100
32640 On ch=11 n=55 v=0
32640 On ch=11 n=40 v=0
32640 On ch=11 n=28 v=0
32640 On ch=11 n=55 v=100
32640 On ch=11 n=48 v=100
32640 On ch=11 n=36 v=100
33120 On ch=11 n=36 v=0
33120 On ch=11 n=48 v=0
33120 On ch=11 n=55 v=0
33180 On ch=11 n=57 v=100
33180 On ch=11 n=52 v=100
33180 On ch=11 n=45 v=100
33180 On ch=11 n=33 v=100
33540 On ch=11 n=33 v=0
33540 On ch=11 n=45 v=0
33540 On ch=11 n=31 v=100
33540 On ch=11 n=43 v=100
33600 On ch=11 n=43 v=0
33600 On ch=11 n=57 v=0
33600 On ch=11 n=52 v=0
33600 On ch=11 n=31 v=0
33600 On ch=11 n=29 v=100
33600 On ch=11 n=41 v=100
33600 On ch=11 n=53 v=100
34080 On ch=11 n=53 v=0
34080 On ch=11 n=41 v=0
34080 On ch=11 n=29 v=0
34080 On ch=11 n=26 v=100
34080 On ch=11 n=38 v=100
34080 On ch=11 n=50 v=100
34560 On ch=11 n=50 v=0
34560 On ch=11 n=38 v=0
34560 On ch=11 n=26 v=0
34560 On ch=11 n=23 v=100
34560 On ch=11 n=35 v=100
34560 On ch=11 n=47 v=100
35040 On ch=11 n=47 v=0
35040 On ch=11 n=35 v=0
35040 On ch=11 n=23 v=0
35040 On ch=11 n=31 v=100
35040 On ch=11 n=43 v=100
35220 On ch=11 n=55 v=100
36000 On ch=11 n=55 v=0
36000 On ch=11 n=43 v=0
36000 On ch=11 n=31 v=0
36000 On ch=11 n=28 v=100
36000 On ch=11 n=40 v=100
36120 On ch=11 n=55 v=100
36120 On ch=11 n=59 v=100
36960 On ch=11 n=59 v=0
36960 On ch=11 n=55 v=0
36960 On ch=11 n=55 v=100
36960 On ch=11 n=60 v=100
37440 On ch=11 n=60 v=0
37440 On ch=11 n=55 v=0
37440 On ch=11 n=60 v=100
37440 On ch=11 n=57 v=100
37920 On ch=11 n=57 v=0
37920 On ch=11 n=60 v=0
37920 On ch=11 n=59 v=100
37920 On ch=11 n=64 v=100
38400 On ch=11 n=59 v=0
38400 On ch=11 n=57 v=100
39840 On ch=11 n=57 v=0
39840 On ch=11 n=64 v=0
39840 On ch=11 n=52 v=100
39840 On ch=11 n=55 v=100
41040 On ch=11 n=55 v=0
41040 On ch=11 n=28 v=0
41040 On ch=11 n=40 v=0
41040 On ch=11 n=52 v=0
41040 On ch=11 n=50 v=100
41040 On ch=11 n=38 v=100
42120 On ch=11 n=38 v=0
42120 On ch=11 n=50 v=0
42120 On ch=11 n=40 v=100
42120 On ch=11 n=28 v=100
42720 On ch=11 n=47 v=100
43200 On ch=11 n=47 v=0
43200 On ch=11 n=28 v=0
43200 On ch=11 n=40 v=0
43200 Meta TrkEnd
TrkEnd
MTrk
0 Meta TrkName "Reverse cymbal"
0 PrCh ch=12 p=119
0 Par ch=12 c=7 v=127
0 Par ch=12 c=121 v=0
0 Par ch=12 c=91 v=80
13680 On ch=12 n=56 v=100
13920 On ch=12 n=56 v=0
14160 On ch=12 n=56 v=100
14400 On ch=12 n=56 v=0
21840 On ch=12 n=70 v=100
22080 On ch=12 n=70 v=0
23820 On ch=12 n=60 v=100
24000 On ch=12 n=60 v=0
27180 On ch=12 n=60 v=100
27360 On ch=12 n=60 v=0
27360 Meta TrkEnd
TrkEnd
MTrk
0 Meta TrkName "Low Bass Drum"
0 PrCh ch=10 p=24
0 Par ch=10 c=7 v=127
0 Par ch=10 c=121 v=0
120 Par ch=10 c=91 v=127
18720 On ch=10 n=69 v=100
18840 On ch=10 n=69 v=0
19680 On ch=10 n=69 v=100
19800 On ch=10 n=69 v=0
42720 Par ch=10 c=121 v=0
42720 Meta TrkEnd
TrkEnd
MTrk
0 Meta TrkName "Bass Drum/Wood Block"
0 Par ch=10 c=7 v=127
8640 On ch=10 n=35 v=100
8730 On ch=10 n=35 v=0
8730 On ch=10 n=35 v=100
8760 On ch=10 n=35 v=0
9600 On ch=10 n=35 v=100
9690 On ch=10 n=35 v=0
9690 On ch=10 n=35 v=100
9720 On ch=10 n=35 v=0
11520 On ch=10 n=35 v=100
11610 On ch=10 n=35 v=0
11610 On ch=10 n=35 v=100
11640 On ch=10 n=35 v=0
18240 On ch=10 n=35 v=100
18330 On ch=10 n=35 v=0
18330 On ch=10 n=35 v=100
18360 On ch=10 n=35 v=0
18720 On ch=10 n=35 v=100
18810 On ch=10 n=35 v=0
18810 On ch=10 n=35 v=100
18840 On ch=10 n=35 v=0
19200 On ch=10 n=35 v=100
19290 On ch=10 n=35 v=0
19290 On ch=10 n=35 v=100
19320 On ch=10 n=35 v=0
19680 On ch=10 n=35 v=100
19770 On ch=10 n=35 v=0
19770 On ch=10 n=35 v=100
19800 On ch=10 n=35 v=0
20160 On ch=10 n=35 v=100
20250 On ch=10 n=35 v=0
20250 On ch=10 n=35 v=100
20280 On ch=10 n=35 v=0
20640 On ch=10 n=35 v=100
20730 On ch=10 n=35 v=0
20730 On ch=10 n=35 v=100
20760 On ch=10 n=35 v=0
21120 On ch=10 n=35 v=100
21210 On ch=10 n=35 v=0
21210 On ch=10 n=35 v=100
21240 On ch=10 n=35 v=0
21600 On ch=10 n=35 v=100
21690 On ch=10 n=35 v=0
21690 On ch=10 n=35 v=100
21720 On ch=10 n=35 v=0
22080 On ch=10 n=35 v=100
22170 On ch=10 n=35 v=0
22170 On ch=10 n=35 v=100
22200 On ch=10 n=35 v=0
22200 Meta TrkEnd
TrkEnd
MTrk
0 Meta TrkName "Bass Drum"
0 Par ch=10 c=7 v=127
18720 On ch=10 n=36 v=100
18810 On ch=10 n=36 v=0
18810 On ch=10 n=36 v=100
18840 On ch=10 n=36 v=0
19680 On ch=10 n=36 v=100
19770 On ch=10 n=36 v=0
19770 On ch=10 n=36 v=100
19800 On ch=10 n=36 v=0
22560 On ch=10 n=36 v=100
22650 On ch=10 n=36 v=0
22650 On ch=10 n=36 v=100
22680 On ch=10 n=36 v=0
23040 On ch=10 n=36 v=100
23070 On ch=10 n=36 v=0
23070 On ch=10 n=36 v=100
23130 On ch=10 n=36 v=0
23130 On ch=10 n=36 v=100
23160 On ch=10 n=36 v=0
23520 On ch=10 n=36 v=100
23610 On ch=10 n=36 v=0
23610 On ch=10 n=36 v=100
23640 On ch=10 n=36 v=0
24000 On ch=10 n=36 v=100
24120 On ch=10 n=36 v=0
24240 On ch=10 n=36 v=100
24360 On ch=10 n=36 v=0
24480 On ch=10 n=36 v=100
24600 On ch=10 n=36 v=0
24690 On ch=10 n=36 v=100
24750 On ch=10 n=36 v=0
24750 On ch=10 n=36 v=100
24810 On ch=10 n=36 v=0
24810 On ch=10 n=36 v=100
24870 On ch=10 n=36 v=0
24870 On ch=10 n=36 v=100
24960 On ch=10 n=36 v=0
24960 On ch=10 n=36 v=100
25080 On ch=10 n=36 v=0
25200 On ch=10 n=36 v=100
25320 On ch=10 n=36 v=0
25440 On ch=10 n=36 v=100
25560 On ch=10 n=36 v=0
25680 On ch=10 n=36 v=100
25800 On ch=10 n=36 v=0
25920 On ch=10 n=36 v=100
26040 On ch=10 n=36 v=0
26160 On ch=10 n=36 v=100
26280 On ch=10 n=36 v=0
26400 On ch=10 n=36 v=100
26520 On ch=10 n=36 v=0
26640 On ch=10 n=36 v=100
26760 On ch=10 n=36 v=0
26820 On ch=10 n=36 v=100
26880 On ch=10 n=36 v=0
26880 On ch=10 n=36 v=100
27000 On ch=10 n=36 v=0
27360 On ch=10 n=36 v=100
27480 On ch=10 n=36 v=0
27600 On ch=10 n=36 v=100
27720 On ch=10 n=36 v=0
27840 On ch=10 n=36 v=100
27960 On ch=10 n=36 v=0
28050 On ch=10 n=36 v=100
28110 On ch=10 n=36 v=0
28110 On ch=10 n=36 v=100
28170 On ch=10 n=36 v=0
28170 On ch=10 n=36 v=100
28230 On ch=10 n=36 v=0
28320 On ch=10 n=36 v=100
28440 On ch=10 n=36 v=0
28560 On ch=10 n=36 v=100
28680 On ch=10 n=36 v=0
28800 On ch=10 n=36 v=100
28920 On ch=10 n=36 v=0
29040 On ch=10 n=36 v=100
29160 On ch=10 n=36 v=0
29280 On ch=10 n=36 v=100
29400 On ch=10 n=36 v=0
29520 On ch=10 n=36 v=100
29640 On ch=10 n=36 v=0
29760 On ch=10 n=36 v=100
29880 On ch=10 n=36 v=0
30000 On ch=10 n=36 v=100
30120 On ch=10 n=36 v=0
30180 On ch=10 n=36 v=100
30240 On ch=10 n=36 v=0
30240 On ch=10 n=36 v=100
30360 On ch=10 n=36 v=0
31200 On ch=10 n=36 v=100
31290 On ch=10 n=36 v=0
31290 On ch=10 n=36 v=100
31320 On ch=10 n=36 v=0
32160 On ch=10 n=36 v=100
32250 On ch=10 n=36 v=0
32250 On ch=10 n=36 v=100
32280 On ch=10 n=36 v=0
35040 On ch=10 n=36 v=100
35160 On ch=10 n=36 v=0
35520 On ch=10 n=36 v=100
35610 On ch=10 n=36 v=0
35610 On ch=10 n=36 v=100
35640 On ch=10 n=36 v=0
39840 On ch=10 n=36 v=100
39960 On ch=10 n=36 v=0
40320 On ch=10 n=36 v=100
40440 On ch=10 n=36 v=0
40800 On ch=10 n=36 v=100
40890 On ch=10 n=36 v=0
40890 On ch=10 n=36 v=100
40920 On ch=10 n=36 v=0
40920 Meta TrkEnd
TrkEnd
MTrk
0 Meta TrkName "Bass Drum 2"
0 Par ch=10 c=7 v=127
24000 On ch=10 n=35 v=100
24060 On ch=10 n=35 v=0
24240 On ch=10 n=35 v=100
24300 On ch=10 n=35 v=0
24480 On ch=10 n=35 v=100
24540 On ch=10 n=35 v=0
24960 On ch=10 n=35 v=100
25020 On ch=10 n=35 v=0
25200 On ch=10 n=35 v=100
25260 On ch=10 n=35 v=0
25440 On ch=10 n=35 v=100
25500 On ch=10 n=35 v=0
25920 On ch=10 n=35 v=100
25980 On ch=10 n=35 v=0
26400 On ch=10 n=35 v=100
26460 On ch=10 n=35 v=0
26880 On ch=10 n=35 v=100
27000 On ch=10 n=35 v=0
27360 On ch=10 n=35 v=100
27420 On ch=10 n=35 v=0
27600 On ch=10 n=35 v=100
27660 On ch=10 n=35 v=0
27840 On ch=10 n=35 v=100
27900 On ch=10 n=35 v=0
28320 On ch=10 n=35 v=100
28380 On ch=10 n=35 v=0
28560 On ch=10 n=35 v=100
28620 On ch=10 n=35 v=0
28800 On ch=10 n=35 v=100
28860 On ch=10 n=35 v=0
29280 On ch=10 n=35 v=100
29340 On ch=10 n=35 v=0
29760 On ch=10 n=35 v=100
29820 On ch=10 n=35 v=0
30240 On ch=10 n=35 v=100
30270 On ch=10 n=35 v=0
30270 Meta TrkEnd
TrkEnd
MTrk
0 Meta TrkName "Snare Drum"
0 Par ch=10 c=7 v=127
18900 On ch=10 n=38 v=127
18960 On ch=10 n=38 v=0
19860 On ch=10 n=38 v=127
19920 On ch=10 n=38 v=0
21300 On ch=10 n=38 v=127
21360 On ch=10 n=38 v=0
22200 On ch=10 n=38 v=127
22320 On ch=10 n=38 v=0
22680 On ch=10 n=38 v=127
22800 On ch=10 n=38 v=0
23160 On ch=10 n=38 v=127
23280 On ch=10 n=38 v=0
23640 On ch=10 n=38 v=127
23760 On ch=10 n=38 v=0
23880 On ch=10 n=38 v=127
23910 On ch=10 n=38 v=0
23910 On ch=10 n=38 v=127
23940 On ch=10 n=38 v=0
23940 On ch=10 n=38 v=127
24000 On ch=10 n=38 v=0
24120 On ch=10 n=38 v=127
24240 On ch=10 n=38 v=0
24360 On ch=10 n=38 v=127
24480 On ch=10 n=38 v=0
24600 On ch=10 n=38 v=127
24698 On ch=10 n=38 v=0
24716 On ch=10 n=38 v=127
24719 On ch=10 n=38 v=0
24720 On ch=10 n=38 v=127
24818 On ch=10 n=38 v=0
24836 On ch=10 n=38 v=127
24839 On ch=10 n=38 v=0
24840 On ch=10 n=38 v=127
24960 On ch=10 n=38 v=0
25080 On ch=10 n=38 v=127
25200 On ch=10 n=38 v=0
25320 On ch=10 n=38 v=127
25440 On ch=10 n=38 v=0
25560 On ch=10 n=38 v=127
25680 On ch=10 n=38 v=0
25800 On ch=10 n=38 v=127
25920 On ch=10 n=38 v=0
26040 On ch=10 n=38 v=127
26160 On ch=10 n=38 v=0
26280 On ch=10 n=38 v=127
26400 On ch=10 n=38 v=0
26520 On ch=10 n=38 v=127
26640 On ch=10 n=38 v=0
26760 On ch=10 n=38 v=127
26880 On ch=10 n=38 v=0
27480 On ch=10 n=38 v=127
27600 On ch=10 n=38 v=0
27720 On ch=10 n=38 v=127
27840 On ch=10 n=38 v=0
27960 On ch=10 n=38 v=127
28080 On ch=10 n=38 v=0
28080 On ch=10 n=38 v=127
28200 On ch=10 n=38 v=0
28200 On ch=10 n=38 v=127
28320 On ch=10 n=38 v=0
28440 On ch=10 n=38 v=127
28560 On ch=10 n=38 v=0
28680 On ch=10 n=38 v=127
28800 On ch=10 n=38 v=0
28920 On ch=10 n=38 v=127
29040 On ch=10 n=38 v=0
29160 On ch=10 n=38 v=127
29280 On ch=10 n=38 v=0
29400 On ch=10 n=38 v=127
29520 On ch=10 n=38 v=0
29640 On ch=10 n=38 v=127
29760 On ch=10 n=38 v=0
29880 On ch=10 n=38 v=127
30000 On ch=10 n=38 v=0
30120 On ch=10 n=38 v=127
30240 On ch=10 n=38 v=0
30240 Meta TrkEnd
TrkEnd
MTrk
0 Meta TrkName "Crash Cymbals  1           "
0 Par ch=10 c=7 v=127
13560 On ch=10 n=49 v=100
13561 On ch=10 n=49 v=0
13567 On ch=10 n=49 v=100
13567 Par ch=10 c=7 v=2
13568 On ch=10 n=49 v=0
13571 Par ch=10 c=7 v=4
13573 Par ch=10 c=7 v=5
13575 On ch=10 n=49 v=100
13575 Par ch=10 c=7 v=6
13576 On ch=10 n=49 v=0
13577 Par ch=10 c=7 v=7
13579 Par ch=10 c=7 v=8
13581 Par ch=10 c=7 v=9
13582 On ch=10 n=49 v=100
13583 On ch=10 n=49 v=0
13583 Par ch=10 c=7 v=10
13587 Par ch=10 c=7 v=11
13590 On ch=10 n=49 v=100
13591 On ch=10 n=49 v=0
13591 Par ch=10 c=7 v=12
13597 On ch=10 n=49 v=100
13598 On ch=10 n=49 v=0
13601 Par ch=10 c=7 v=13
13603 Par ch=10 c=7 v=15
13605 On ch=10 n=49 v=100
13606 On ch=10 n=49 v=0
13611 Par ch=10 c=7 v=16
13612 On ch=10 n=49 v=100
13613 On ch=10 n=49 v=0
13615 Par ch=10 c=7 v=17
13617 Par ch=10 c=7 v=18
13620 On ch=10 n=49 v=100
13621 On ch=10 n=49 v=0
13625 Par ch=10 c=7 v=20
13627 On ch=10 n=49 v=100
13627 Par ch=10 c=7 v=22
13628 On ch=10 n=49 v=0
13635 On ch=10 n=49 v=100
13636 On ch=10 n=49 v=0
13642 On ch=10 n=49 v=100
13643 On ch=10 n=49 v=0
13645 Par ch=10 c=7 v=23
13650 On ch=10 n=49 v=100
13651 On ch=10 n=49 v=0
13651 Par ch=10 c=7 v=24
13655 Par ch=10 c=7 v=25
13657 On ch=10 n=49 v=100
13658 On ch=10 n=49 v=0
13659 Par ch=10 c=7 v=26
13665 On ch=10 n=49 v=100
13666 On ch=10 n=49 v=0
13671 Par ch=10 c=7 v=28
13672 On ch=10 n=49 v=100
13673 On ch=10 n=49 v=0
13677 Par ch=10 c=7 v=30
13680 On ch=10 n=49 v=100
13681 On ch=10 n=49 v=0
13683 Par ch=10 c=7 v=31
13687 On ch=10 n=49 v=100
13687 Par ch=10 c=7 v=32
13688 On ch=10 n=49 v=0
13691 Par ch=10 c=7 v=34
13695 On ch=10 n=49 v=100
13696 On ch=10 n=49 v=0
13702 On ch=10 n=49 v=100
13703 On ch=10 n=49 v=0
13703 Par ch=10 c=7 v=36
13707 Par ch=10 c=7 v=37
13709 Par ch=10 c=7 v=38
13710 On ch=10 n=49 v=100
13711 On ch=10 n=49 v=0
13713 Par ch=10 c=7 v=39
13717 On ch=10 n=49 v=100
13717 Par ch=10 c=7 v=41
13718 On ch=10 n=49 v=0
13721 Par ch=10 c=7 v=42
13725 On ch=10 n=49 v=100
13725 Par ch=10 c=7 v=44
13726 On ch=10 n=49 v=0
13729 Par ch=10 c=7 v=46
13732 On ch=10 n=49 v=100
13733 On ch=10 n=49 v=0
13733 Par ch=10 c=7 v=47
13737 Par ch=10 c=7 v=48
13739 Par ch=10 c=7 v=50
13740 On ch=10 n=49 v=100
13741 On ch=10 n=49 v=0
13745 Par ch=10 c=7 v=52
13747 On ch=10 n=49 v=100
13747 Par ch=10 c=7 v=53
13748 On ch=10 n=49 v=0
13751 Par ch=10 c=7 v=55
13755 On ch=10 n=49 v=100
13756 On ch=10 n=49 v=0
13762 On ch=10 n=49 v=100
13763 On ch=10 n=49 v=0
13763 Par ch=10 c=7 v=61
13770 On ch=10 n=49 v=100
13771 On ch=10 n=49 v=0
13775 Par ch=10 c=7 v=63
13777 On ch=10 n=49 v=100
13778 On ch=10 n=49 v=0
13779 Par ch=10 c=7 v=67
13783 Par ch=10 c=7 v=68
13785 On ch=10 n=49 v=100
13785 Par ch=10 c=7 v=69
13786 On ch=10 n=49 v=0
13787 Par ch=10 c=7 v=70
13789 Par ch=10 c=7 v=71
13792 On ch=10 n=49 v=100
13793 On ch=10 n=49 v=0
13793 Par ch=10 c=7 v=73
13795 Par ch=10 c=7 v=75
13800 On ch=10 n=49 v=100
13801 On ch=10 n=49 v=0
13807 Par ch=10 c=7 v=77
13811 Par ch=10 c=7 v=79
13815 Par ch=10 c=7 v=85
13827 Par ch=10 c=7 v=86
13829 Par ch=10 c=7 v=92
13833 Par ch=10 c=7 v=93
13845 Par ch=10 c=7 v=95
13849 Par ch=10 c=7 v=97
13851 Par ch=10 c=7 v=98
13853 Par ch=10 c=7 v=99
13857 Par ch=10 c=7 v=100
13859 Par ch=10 c=7 v=102
13861 Par ch=10 c=7 v=103
13865 Par ch=10 c=7 v=105
13869 Par ch=10 c=7 v=106
13873 Par ch=10 c=7 v=107
13875 Par ch=10 c=7 v=108
13877 Par ch=10 c=7 v=109
13879 Par ch=10 c=7 v=111
13895 Par ch=10 c=7 v=113
13907 Par ch=10 c=7 v=115
13911 Par ch=10 c=7 v=117
13913 Par ch=10 c=7 v=118
13915 Par ch=10 c=7 v=119
13917 Par ch=10 c=7 v=121
14099 Par ch=10 c=7 v=32
14100 On ch=10 n=49 v=100
14101 On ch=10 n=49 v=0
14107 On ch=10 n=49 v=100
14108 On ch=10 n=49 v=0
14114 Par ch=10 c=7 v=34
14115 On ch=10 n=49 v=100
14116 On ch=10 n=49 v=0
14122 On ch=10 n=49 v=100
14123 On ch=10 n=49 v=0
14129 Par ch=10 c=7 v=37
14130 On ch=10 n=49 v=100
14131 On ch=10 n=49 v=0
14137 On ch=10 n=49 v=100
14138 On ch=10 n=49 v=0
14144 Par ch=10 c=7 v=40
14145 On ch=10 n=49 v=100
14146 On ch=10 n=49 v=0
14152 On ch=10 n=49 v=100
14153 On ch=10 n=49 v=0
14159 Par ch=10 c=7 v=43
14160 On ch=10 n=49 v=100
14161 On ch=10 n=49 v=0
14167 On ch=10 n=49 v=100
14168 On ch=10 n=49 v=0
14174 Par ch=10 c=7 v=46
14175 On ch=10 n=49 v=100
14176 On ch=10 n=49 v=0
14182 On ch=10 n=49 v=100
14183 On ch=10 n=49 v=0
14189 Par ch=10 c=7 v=49
14190 On ch=10 n=49 v=100
14191 On ch=10 n=49 v=0
14197 On ch=10 n=49 v=100
14198 On ch=10 n=49 v=0
14204 Par ch=10 c=7 v=51
14205 On ch=10 n=49 v=100
14206 On ch=10 n=49 v=0
14212 On ch=10 n=49 v=100
14213 On ch=10 n=49 v=0
14219 Par ch=10 c=7 v=54
14220 On ch=10 n=49 v=100
14221 On ch=10 n=49 v=0
14227 On ch=10 n=49 v=100
14228 On ch=10 n=49 v=0
14234 Par ch=10 c=7 v=57
14235 On ch=10 n=49 v=100
14236 On ch=10 n=49 v=0
14242 On ch=10 n=49 v=100
14243 On ch=10 n=49 v=0
14249 Par ch=10 c=7 v=60
14250 On ch=10 n=49 v=100
14251 On ch=10 n=49 v=0
14257 On ch=10 n=49 v=100
14258 On ch=10 n=49 v=0
14264 Par ch=10 c=7 v=63
14265 On ch=10 n=49 v=100
14266 On ch=10 n=49 v=0
14272 On ch=10 n=49 v=100
14273 On ch=10 n=49 v=0
14279 Par ch=10 c=7 v=66
14280 On ch=10 n=49 v=100
14281 On ch=10 n=49 v=0
14287 On ch=10 n=49 v=100
14288 On ch=10 n=49 v=0
14294 Par ch=10 c=7 v=68
14295 On ch=10 n=49 v=100
14296 On ch=10 n=49 v=0
14302 On ch=10 n=49 v=100
14303 On ch=10 n=49 v=0
14309 Par ch=10 c=7 v=71
14310 On ch=10 n=49 v=100
14311 On ch=10 n=49 v=0
14317 On ch=10 n=49 v=100
14318 On ch=10 n=49 v=0
14324 Par ch=10 c=7 v=74
14325 On ch=10 n=49 v=100
14326 On ch=10 n=49 v=0
14332 On ch=10 n=49 v=100
14333 On ch=10 n=49 v=0
14339 Par ch=10 c=7 v=77
14340 On ch=10 n=49 v=100
14341 On ch=10 n=49 v=0
14347 On ch=10 n=49 v=100
14348 On ch=10 n=49 v=0
14354 Par ch=10 c=7 v=80
14355 On ch=10 n=49 v=100
14356 On ch=10 n=49 v=0
14362 On ch=10 n=49 v=100
14363 On ch=10 n=49 v=0
14369 Par ch=10 c=7 v=83
14370 On ch=10 n=49 v=100
14371 On ch=10 n=49 v=0
14377 On ch=10 n=49 v=100
14378 On ch=10 n=49 v=0
14384 Par ch=10 c=7 v=85
14385 On ch=10 n=49 v=100
14386 On ch=10 n=49 v=0
14392 On ch=10 n=49 v=100
14393 On ch=10 n=49 v=0
14399 Par ch=10 c=7 v=88
14400 On ch=10 n=49 v=100
14414 Par ch=10 c=7 v=91
14429 Par ch=10 c=7 v=94
14444 Par ch=10 c=7 v=97
14460 On ch=10 n=49 v=0
14610 Par ch=10 c=7 v=55
14640 Par ch=10 c=7 v=56
14670 Par ch=10 c=7 v=57
14700 Par ch=10 c=7 v=58
14730 Par ch=10 c=7 v=59
14760 Par ch=10 c=7 v=60
14790 Par ch=10 c=7 v=61
14820 Par ch=10 c=7 v=62
14850 Par ch=10 c=7 v=63
14879 Par ch=10 c=7 v=64
15360 Par ch=10 c=7 v=32
15360 On ch=10 n=49 v=100
15361 On ch=10 n=49 v=0
15367 On ch=10 n=49 v=100
15368 On ch=10 n=49 v=0
15375 Par ch=10 c=7 v=33
15375 On ch=10 n=49 v=100
15376 On ch=10 n=49 v=0
15382 On ch=10 n=49 v=100
15383 On ch=10 n=49 v=0
15390 Par ch=10 c=7 v=34
15390 On ch=10 n=49 v=100
15391 On ch=10 n=49 v=0
15397 On ch=10 n=49 v=100
15398 On ch=10 n=49 v=0
15405 Par ch=10 c=7 v=35
15405 On ch=10 n=49 v=100
15406 On ch=10 n=49 v=0
15412 On ch=10 n=49 v=100
15413 On ch=10 n=49 v=0
15420 Par ch=10 c=7 v=37
15420 On ch=10 n=49 v=100
15421 On ch=10 n=49 v=0
15427 On ch=10 n=49 v=100
15428 On ch=10 n=49 v=0
15435 Par ch=10 c=7 v=38
15435 On ch=10 n=49 v=100
15436 On ch=10 n=49 v=0
15442 On ch=10 n=49 v=100
15443 On ch=10 n=49 v=0
15450 Par ch=10 c=7 v=39
15450 On ch=10 n=49 v=100
15451 On ch=10 n=49 v=0
15457 On ch=10 n=49 v=100
15458 On ch=10 n=49 v=0
15465 Par ch=10 c=7 v=41
15465 On ch=10 n=49 v=100
15466 On ch=10 n=49 v=0
15472 On ch=10 n=49 v=100
15473 On ch=10 n=49 v=0
15480 Par ch=10 c=7 v=42
15480 On ch=10 n=49 v=100
15481 On ch=10 n=49 v=0
15487 On ch=10 n=49 v=100
15488 On ch=10 n=49 v=0
15495 Par ch=10 c=7 v=43
15495 On ch=10 n=49 v=100
15496 On ch=10 n=49 v=0
15502 On ch=10 n=49 v=100
15503 On ch=10 n=49 v=0
15510 Par ch=10 c=7 v=45
15510 On ch=10 n=49 v=100
15511 On ch=10 n=49 v=0
15517 On ch=10 n=49 v=100
15518 On ch=10 n=49 v=0
15525 Par ch=10 c=7 v=46
15525 On ch=10 n=49 v=100
15526 On ch=10 n=49 v=0
15532 On ch=10 n=49 v=100
15533 On ch=10 n=49 v=0
15540 Par ch=10 c=7 v=47
15540 On ch=10 n=49 v=100
15541 On ch=10 n=49 v=0
15547 On ch=10 n=49 v=100
15548 On ch=10 n=49 v=0
15555 Par ch=10 c=7 v=49
15555 On ch=10 n=49 v=100
15556 On ch=10 n=49 v=0
15562 On ch=10 n=49 v=100
15563 On ch=10 n=49 v=0
15570 Par ch=10 c=7 v=50
15570 On ch=10 n=49 v=100
15571 On ch=10 n=49 v=0
15577 On ch=10 n=49 v=100
15578 On ch=10 n=49 v=0
15585 Par ch=10 c=7 v=51
15585 On ch=10 n=49 v=100
15586 On ch=10 n=49 v=0
15592 On ch=10 n=49 v=100
15593 On ch=10 n=49 v=0
15600 Par ch=10 c=7 v=53
15600 On ch=10 n=49 v=100
15601 On ch=10 n=49 v=0
15607 On ch=10 n=49 v=100
15608 On ch=10 n=49 v=0
15615 Par ch=10 c=7 v=54
15615 On ch=10 n=49 v=100
15616 On ch=10 n=49 v=0
15622 On ch=10 n=49 v=100
15623 On ch=10 n=49 v=0
15630 Par ch=10 c=7 v=55
15630 On ch=10 n=49 v=100
15631 On ch=10 n=49 v=0
15637 On ch=10 n=49 v=100
15638 On ch=10 n=49 v=0
15645 Par ch=10 c=7 v=57
15645 On ch=10 n=49 v=100
15646 On ch=10 n=49 v=0
15652 On ch=10 n=49 v=100
15653 On ch=10 n=49 v=0
15660 Par ch=10 c=7 v=58
15660 On ch=10 n=49 v=100
15661 On ch=10 n=49 v=0
15667 On ch=10 n=49 v=100
15668 On ch=10 n=49 v=0
15675 Par ch=10 c=7 v=59
15675 On ch=10 n=49 v=100
15676 On ch=10 n=49 v=0
15682 On ch=10 n=49 v=100
15683 On ch=10 n=49 v=0
15690 Par ch=10 c=7 v=61
15690 On ch=10 n=49 v=100
15691 On ch=10 n=49 v=0
15697 On ch=10 n=49 v=100
15698 On ch=10 n=49 v=0
15705 Par ch=10 c=7 v=62
15705 On ch=10 n=49 v=100
15706 On ch=10 n=49 v=0
15712 On ch=10 n=49 v=100
15713 On ch=10 n=49 v=0
15720 Par ch=10 c=7 v=63
15720 On ch=10 n=49 v=100
15721 On ch=10 n=49 v=0
15727 On ch=10 n=49 v=100
15728 On ch=10 n=49 v=0
15735 Par ch=10 c=7 v=65
15735 On ch=10 n=49 v=100
15736 On ch=10 n=49 v=0
15742 On ch=10 n=49 v=100
15743 On ch=10 n=49 v=0
15750 Par ch=10 c=7 v=66
15750 On ch=10 n=49 v=100
15751 On ch=10 n=49 v=0
15757 On ch=10 n=49 v=100
15758 On ch=10 n=49 v=0
15765 Par ch=10 c=7 v=67
15765 On ch=10 n=49 v=100
15766 On ch=10 n=49 v=0
15772 On ch=10 n=49 v=100
15773 On ch=10 n=49 v=0
15780 Par ch=10 c=7 v=68
15780 On ch=10 n=49 v=100
15781 On ch=10 n=49 v=0
15787 On ch=10 n=49 v=100
15788 On ch=10 n=49 v=0
15795 Par ch=10 c=7 v=70
15795 On ch=10 n=49 v=100
15796 On ch=10 n=49 v=0
15802 On ch=10 n=49 v=100
15803 On ch=10 n=49 v=0
15810 Par ch=10 c=7 v=71
15810 On ch=10 n=49 v=100
15811 On ch=10 n=49 v=0
15817 On ch=10 n=49 v=100
15818 On ch=10 n=49 v=0
15825 Par ch=10 c=7 v=72
15825 On ch=10 n=49 v=100
15826 On ch=10 n=49 v=0
15832 On ch=10 n=49 v=100
15833 On ch=10 n=49 v=0
15840 Par ch=10 c=7 v=74
15840 On ch=10 n=49 v=100
15847 On ch=10 n=49 v=100
15848 On ch=10 n=49 v=0
15848 On ch=10 n=49 v=0
15855 Par ch=10 c=7 v=75
15855 On ch=10 n=49 v=100
15856 On ch=10 n=49 v=0
15862 On ch=10 n=49 v=100
15863 On ch=10 n=49 v=0
15870 Par ch=10 c=7 v=76
15870 On ch=10 n=49 v=100
15871 On ch=10 n=49 v=0
15877 On ch=10 n=49 v=100
15878 On ch=10 n=49 v=0
15885 Par ch=10 c=7 v=78
15885 On ch=10 n=49 v=100
15886 On ch=10 n=49 v=0
15892 On ch=10 n=49 v=100
15893 On ch=10 n=49 v=0
15900 Par ch=10 c=7 v=79
15900 On ch=10 n=49 v=100
15901 On ch=10 n=49 v=0
15907 On ch=10 n=49 v=100
15908 On ch=10 n=49 v=0
15915 Par ch=10 c=7 v=80
15915 On ch=10 n=49 v=100
15916 On ch=10 n=49 v=0
15922 On ch=10 n=49 v=100
15923 On ch=10 n=49 v=0
15930 Par ch=10 c=7 v=82
15930 On ch=10 n=49 v=100
15931 On ch=10 n=49 v=0
15937 On ch=10 n=49 v=100
15938 On ch=10 n=49 v=0
15945 Par ch=10 c=7 v=83
15945 On ch=10 n=49 v=100
15946 On ch=10 n=49 v=0
15952 On ch=10 n=49 v=100
15953 On ch=10 n=49 v=0
15960 Par ch=10 c=7 v=84
15960 On ch=10 n=49 v=100
15961 On ch=10 n=49 v=0
15967 On ch=10 n=49 v=100
15968 On ch=10 n=49 v=0
15975 Par ch=10 c=7 v=86
15975 On ch=10 n=49 v=100
15976 On ch=10 n=49 v=0
15982 On ch=10 n=49 v=100
15983 On ch=10 n=49 v=0
15990 Par ch=10 c=7 v=87
15990 On ch=10 n=49 v=100
15991 On ch=10 n=49 v=0
15997 On ch=10 n=49 v=100
15998 On ch=10 n=49 v=0
16005 Par ch=10 c=7 v=88
16005 On ch=10 n=49 v=100
16006 On ch=10 n=49 v=0
16012 On ch=10 n=49 v=100
16013 On ch=10 n=49 v=0
16020 Par ch=10 c=7 v=90
16020 On ch=10 n=49 v=100
16021 On ch=10 n=49 v=0
16027 On ch=10 n=49 v=100
16028 On ch=10 n=49 v=0
16035 Par ch=10 c=7 v=91
16035 On ch=10 n=49 v=100
16036 On ch=10 n=49 v=0
16042 On ch=10 n=49 v=100
16043 On ch=10 n=49 v=0
16050 Par ch=10 c=7 v=92
16050 On ch=10 n=49 v=100
16051 On ch=10 n=49 v=0
16057 On ch=10 n=49 v=100
16058 On ch=10 n=49 v=0
16065 Par ch=10 c=7 v=94
16065 On ch=10 n=49 v=100
16066 On ch=10 n=49 v=0
16072 On ch=10 n=49 v=100
16073 On ch=10 n=49 v=0
16080 Par ch=10 c=7 v=95
16080 On ch=10 n=49 v=100
16081 On ch=10 n=49 v=0
16087 On ch=10 n=49 v=100
16088 On ch=10 n=49 v=0
16095 Par ch=10 c=7 v=96
16095 On ch=10 n=49 v=100
16096 On ch=10 n=49 v=0
16102 On ch=10 n=49 v=100
16103 On ch=10 n=49 v=0
16110 Par ch=10 c=7 v=98
16110 On ch=10 n=49 v=100
16111 On ch=10 n=49 v=0
16117 On ch=10 n=49 v=100
16118 On ch=10 n=49 v=0
16125 Par ch=10 c=7 v=99
16125 On ch=10 n=49 v=100
16126 On ch=10 n=49 v=0
16132 On ch=10 n=49 v=100
16133 On ch=10 n=49 v=0
16140 Par ch=10 c=7 v=100
16140 On ch=10 n=49 v=100
16141 On ch=10 n=49 v=0
16147 On ch=10 n=49 v=100
16148 On ch=10 n=49 v=0
16155 Par ch=10 c=7 v=101
16155 On ch=10 n=49 v=100
16156 On ch=10 n=49 v=0
16162 On ch=10 n=49 v=100
16163 On ch=10 n=49 v=0
16170 Par ch=10 c=7 v=103
16170 On ch=10 n=49 v=100
16171 On ch=10 n=49 v=0
16177 On ch=10 n=49 v=100
16178 On ch=10 n=49 v=0
16185 Par ch=10 c=7 v=104
16185 On ch=10 n=49 v=100
16186 On ch=10 n=49 v=0
16192 On ch=10 n=49 v=100
16193 On ch=10 n=49 v=0
16200 Par ch=10 c=7 v=105
16200 On ch=10 n=49 v=100
16201 On ch=10 n=49 v=0
16207 On ch=10 n=49 v=100
16208 On ch=10 n=49 v=0
16215 Par ch=10 c=7 v=107
16215 On ch=10 n=49 v=100
16216 On ch=10 n=49 v=0
16222 On ch=10 n=49 v=100
16223 On ch=10 n=49 v=0
16230 Par ch=10 c=7 v=108
16230 On ch=10 n=49 v=100
16231 On ch=10 n=49 v=0
16237 On ch=10 n=49 v=100
16238 On ch=10 n=49 v=0
16245 Par ch=10 c=7 v=109
16245 On ch=10 n=49 v=100
16246 On ch=10 n=49 v=0
16252 On ch=10 n=49 v=100
16253 On ch=10 n=49 v=0
16260 Par ch=10 c=7 v=111
16260 On ch=10 n=49 v=100
16261 On ch=10 n=49 v=0
16267 On ch=10 n=49 v=100
16268 On ch=10 n=49 v=0
16275 Par ch=10 c=7 v=112
16275 On ch=10 n=49 v=100
16276 On ch=10 n=49 v=0
16282 On ch=10 n=49 v=100
16283 On ch=10 n=49 v=0
16290 Par ch=10 c=7 v=113
16290 On ch=10 n=49 v=100
16291 On ch=10 n=49 v=0
16297 On ch=10 n=49 v=100
16298 On ch=10 n=49 v=0
16305 Par ch=10 c=7 v=115
16305 On ch=10 n=49 v=100
16306 On ch=10 n=49 v=0
16312 On ch=10 n=49 v=100
16313 On ch=10 n=49 v=0
16320 Par ch=10 c=7 v=116
16320 On ch=10 n=49 v=100
16335 Par ch=10 c=7 v=117
16350 Par ch=10 c=7 v=119
16365 Par ch=10 c=7 v=120
16380 Par ch=10 c=7 v=121
16395 Par ch=10 c=7 v=123
16410 Par ch=10 c=7 v=124
16425 Par ch=10 c=7 v=125
16439 Par ch=10 c=7 v=127
16560 On ch=10 n=49 v=0
24960 On ch=10 n=49 v=100
25080 On ch=10 n=49 v=0
25920 On ch=10 n=49 v=100
26040 On ch=10 n=49 v=0
27360 On ch=10 n=49 v=100
27480 On ch=10 n=49 v=0
34560 On ch=10 n=49 v=100
34561 On ch=10 n=49 v=0
34561 Par ch=10 c=7 v=1
34565 Par ch=10 c=7 v=3
34567 On ch=10 n=49 v=100
34567 Par ch=10 c=7 v=4
34568 On ch=10 n=49 v=0
34570 Par ch=10 c=7 v=5
34571 Par ch=10 c=7 v=6
34573 Par ch=10 c=7 v=8
34575 On ch=10 n=49 v=100
34576 On ch=10 n=49 v=0
34580 Par ch=10 c=7 v=9
34582 On ch=10 n=49 v=100
34583 On ch=10 n=49 v=0
34585 Par ch=10 c=7 v=10
34590 On ch=10 n=49 v=100
34591 On ch=10 n=49 v=0
34595 Par ch=10 c=7 v=11
34597 On ch=10 n=49 v=100
34597 Par ch=10 c=7 v=12
34598 On ch=10 n=49 v=0
34605 On ch=10 n=49 v=100
34606 On ch=10 n=49 v=0
34610 Par ch=10 c=7 v=14
34612 On ch=10 n=49 v=100
34613 On ch=10 n=49 v=0
34615 Par ch=10 c=7 v=15
34617 Par ch=10 c=7 v=16
34620 On ch=10 n=49 v=100
34621 On ch=10 n=49 v=0
34623 Par ch=10 c=7 v=17
34627 On ch=10 n=49 v=100
34628 On ch=10 n=49 v=0
34635 On ch=10 n=49 v=100
34635 Par ch=10 c=7 v=18
34636 On ch=10 n=49 v=0
34642 On ch=10 n=49 v=100
34643 On ch=10 n=49 v=0
34647 Par ch=10 c=7 v=20
34650 On ch=10 n=49 v=100
34650 Par ch=10 c=7 v=21
34651 On ch=10 n=49 v=0
34653 Par ch=10 c=7 v=22
34657 On ch=10 n=49 v=100
34657 Par ch=10 c=7 v=24
34658 On ch=10 n=49 v=0
34661 Par ch=10 c=7 v=25
34663 Par ch=10 c=7 v=26
34665 On ch=10 n=49 v=100
34666 On ch=10 n=49 v=0
34667 Par ch=10 c=7 v=27
34670 Par ch=10 c=7 v=28
34671 Par ch=10 c=7 v=29
34672 On ch=10 n=49 v=100
34673 On ch=10 n=49 v=0
34673 Par ch=10 c=7 v=30
34680 On ch=10 n=49 v=100
34680 Par ch=10 c=7 v=31
34681 On ch=10 n=49 v=0
34681 Par ch=10 c=7 v=33
34687 On ch=10 n=49 v=100
34687 Par ch=10 c=7 v=34
34688 On ch=10 n=49 v=0
34690 Par ch=10 c=7 v=36
34693 Par ch=10 c=7 v=38
34695 On ch=10 n=49 v=100
34695 Par ch=10 c=7 v=39
34696 On ch=10 n=49 v=0
34697 Par ch=10 c=7 v=40
34700 Par ch=10 c=7 v=41
34701 Par ch=10 c=7 v=42
34702 On ch=10 n=49 v=100
34703 On ch=10 n=49 v=0
34705 Par ch=10 c=7 v=44
34707 Par ch=10 c=7 v=45
34710 On ch=10 n=49 v=100
34710 Par ch=10 c=7 v=46
34711 On ch=10 n=49 v=0
34713 Par ch=10 c=7 v=47
34717 On ch=10 n=49 v=100
34717 Par ch=10 c=7 v=48
34718 On ch=10 n=49 v=0
34720 Par ch=10 c=7 v=49
34721 Par ch=10 c=7 v=50
34723 Par ch=10 c=7 v=52
34725 On ch=10 n=49 v=100
34726 On ch=10 n=49 v=0
34730 Par ch=10 c=7 v=53
34732 On ch=10 n=49 v=100
34733 On ch=10 n=49 v=0
34733 Par ch=10 c=7 v=54
34740 On ch=10 n=49 v=100
34740 Par ch=10 c=7 v=55
34741 On ch=10 n=49 v=0
34743 Par ch=10 c=7 v=56
34747 On ch=10 n=49 v=100
34748 On ch=10 n=49 v=0
34753 Par ch=10 c=7 v=58
34755 On ch=10 n=49 v=100
34756 On ch=10 n=49 v=0
34760 Par ch=10 c=7 v=60
34761 Par ch=10 c=7 v=61
34762 On ch=10 n=49 v=100
34763 On ch=10 n=49 v=0
34765 Par ch=10 c=7 v=62
34770 On ch=10 n=49 v=100
34770 Par ch=10 c=7 v=63
34771 On ch=10 n=49 v=0
34773 Par ch=10 c=7 v=64
34777 On ch=10 n=49 v=100
34778 On ch=10 n=49 v=0
34785 On ch=10 n=49 v=100
34785 Par ch=10 c=7 v=65
34786 On ch=10 n=49 v=0
34792 On ch=10 n=49 v=100
34793 On ch=10 n=49 v=0
34797 Par ch=10 c=7 v=66
34800 On ch=10 n=49 v=100
34801 On ch=10 n=49 v=0
34801 Par ch=10 c=7 v=68
34807 On ch=10 n=49 v=100
34808 On ch=10 n=49 v=0
34815 On ch=10 n=49 v=100
34816 On ch=10 n=49 v=0
34822 On ch=10 n=49 v=100
34823 On ch=10 n=49 v=0
34827 Par ch=10 c=7 v=69
34830 On ch=10 n=49 v=100
34830 Par ch=10 c=7 v=70
34831 On ch=10 n=49 v=0
34837 On ch=10 n=49 v=100
34838 On ch=10 n=49 v=0
34843 Par ch=10 c=7 v=72
34845 On ch=10 n=49 v=100
34846 On ch=10 n=49 v=0
34852 On ch=10 n=49 v=100
34853 On ch=10 n=49 v=0
34860 On ch=10 n=49 v=100
34861 On ch=10 n=49 v=0
34863 Par ch=10 c=7 v=73
34867 On ch=10 n=49 v=100
34867 Par ch=10 c=7 v=74
34868 On ch=10 n=49 v=0
34871 Par ch=10 c=7 v=76
34875 On ch=10 n=49 v=100
34876 On ch=10 n=49 v=0
34882 On ch=10 n=49 v=100
34883 On ch=10 n=49 v=0
34890 On ch=10 n=49 v=100
34890 Par ch=10 c=7 v=77
34891 On ch=10 n=49 v=0
34893 Par ch=10 c=7 v=78
34897 On ch=10 n=49 v=100
34898 On ch=10 n=49 v=0
34905 On ch=10 n=49 v=100
34906 On ch=10 n=49 v=0
34912 On ch=10 n=49 v=100
34913 On ch=10 n=49 v=0
34920 On ch=10 n=49 v=100
34920 Par ch=10 c=7 v=79
34921 On ch=10 n=49 v=0
34927 On ch=10 n=49 v=100
34928 On ch=10 n=49 v=0
34933 Par ch=10 c=7 v=80
34935 On ch=10 n=49 v=100
34936 On ch=10 n=49 v=0
34941 Par ch=10 c=7 v=81
34942 On ch=10 n=49 v=100
34943 On ch=10 n=49 v=0
34950 On ch=10 n=49 v=100
34951 On ch=10 n=49 v=0
34957 On ch=10 n=49 v=100
34958 On ch=10 n=49 v=0
34965 On ch=10 n=49 v=100
34966 On ch=10 n=49 v=0
34970 Par ch=10 c=7 v=82
34972 On ch=10 n=49 v=100
34973 On ch=10 n=49 v=0
34980 On ch=10 n=49 v=100
34981 On ch=10 n=49 v=0
34985 Par ch=10 c=7 v=84
34987 On ch=10 n=49 v=100
34988 On ch=10 n=49 v=0
34995 On ch=10 n=49 v=100
34996 On ch=10 n=49 v=0
35002 On ch=10 n=49 v=100
35003 On ch=10 n=49 v=0
35010 On ch=10 n=49 v=100
35011 On ch=10 n=49 v=0
35017 On ch=10 n=49 v=100
35018 On ch=10 n=49 v=0
35025 On ch=10 n=49 v=100
35026 On ch=10 n=49 v=0
35031 Par ch=10 c=7 v=85
35032 On ch=10 n=49 v=100
35033 On ch=10 n=49 v=0
35040 On ch=10 n=49 v=100
35077 Par ch=10 c=7 v=83
35081 Par ch=10 c=7 v=84
35085 Par ch=10 c=7 v=83
35091 Par ch=10 c=7 v=82
35093 Par ch=10 c=7 v=81
35097 Par ch=10 c=7 v=79
35121 Par ch=10 c=7 v=77
35137 Par ch=10 c=7 v=76
35140 Par ch=10 c=7 v=75
35153 Par ch=10 c=7 v=73
35157 Par ch=10 c=7 v=72
35160 On ch=10 n=49 v=0
35160 Par ch=10 c=7 v=71
35175 Par ch=10 c=7 v=70
35180 Par ch=10 c=7 v=68
35183 Par ch=10 c=7 v=66
35200 Par ch=10 c=7 v=58
35211 Par ch=10 c=7 v=50
35215 Par ch=10 c=7 v=44
35217 Par ch=10 c=7 v=42
35221 Par ch=10 c=7 v=40
35225 Par ch=10 c=7 v=38
35237 Par ch=10 c=7 v=36
35257 Par ch=10 c=7 v=30
35270 Par ch=10 c=7 v=28
35281 Par ch=10 c=7 v=27
35285 Par ch=10 c=7 v=25
35290 Par ch=10 c=7 v=24
35291 Par ch=10 c=7 v=23
35303 Par ch=10 c=7 v=21
35307 Par ch=10 c=7 v=19
35331 Par ch=10 c=7 v=11
35351 Par ch=10 c=7 v=5
35367 Par ch=10 c=7 v=3
35371 Par ch=10 c=7 v=2
35373 Par ch=10 c=7 v=0
35385 Par ch=10 c=7 v=0
35455 Par ch=10 c=7 v=127
35455 Meta TrkEnd
TrkEnd
MTrk
0 Meta TrkName "Crash Cymbals 2"
0 Par ch=10 c=7 v=127
14400 On ch=10 n=57 v=100
14520 On ch=10 n=57 v=0
24000 On ch=10 n=57 v=100
24120 On ch=10 n=57 v=0
24120 Meta TrkEnd
TrkEnd
MTrk
0 Meta TrkName "Closed Hi Hat"
0 Par ch=10 c=7 v=127
17760 On ch=10 n=42 v=120
17790 On ch=10 n=42 v=0
17790 On ch=10 n=42 v=80
17820 On ch=10 n=42 v=0
17820 On ch=10 n=42 v=120
17850 On ch=10 n=42 v=0
17850 On ch=10 n=42 v=80
17880 On ch=10 n=42 v=0
17880 On ch=10 n=42 v=120
17910 On ch=10 n=42 v=0
17910 On ch=10 n=42 v=80
17940 On ch=10 n=42 v=0
17940 On ch=10 n=42 v=120
17970 On ch=10 n=42 v=0
17970 On ch=10 n=42 v=80
18000 On ch=10 n=42 v=0
18000 On ch=10 n=42 v=120
18030 On ch=10 n=42 v=0
18030 On ch=10 n=42 v=80
18060 On ch=10 n=42 v=0
18060 On ch=10 n=42 v=120
18090 On ch=10 n=42 v=0
18090 On ch=10 n=42 v=80
18120 On ch=10 n=42 v=0
18120 On ch=10 n=42 v=120
18150 On ch=10 n=42 v=0
18150 On ch=10 n=42 v=80
18180 On ch=10 n=42 v=0
18180 On ch=10 n=42 v=120
18210 On ch=10 n=42 v=0
18210 On ch=10 n=42 v=80
18240 On ch=10 n=42 v=0
18240 On ch=10 n=42 v=120
18270 On ch=10 n=42 v=0
18270 On ch=10 n=42 v=80
18300 On ch=10 n=42 v=0
18300 On ch=10 n=42 v=120
18330 On ch=10 n=42 v=0
18330 On ch=10 n=42 v=80
18360 On ch=10 n=42 v=0
18360 On ch=10 n=42 v=120
18390 On ch=10 n=42 v=0
18390 On ch=10 n=42 v=80
18420 On ch=10 n=42 v=0
18420 On ch=10 n=42 v=120
18450 On ch=10 n=42 v=0
18450 On ch=10 n=42 v=80
18480 On ch=10 n=42 v=0
18480 On ch=10 n=42 v=120
18510 On ch=10 n=42 v=0
18510 On ch=10 n=42 v=80
18540 On ch=10 n=42 v=0
18540 On ch=10 n=42 v=120
18570 On ch=10 n=42 v=0
18570 On ch=10 n=42 v=80
18600 On ch=10 n=42 v=0
18600 On ch=10 n=42 v=120
18630 On ch=10 n=42 v=0
18630 On ch=10 n=42 v=80
18660 On ch=10 n=42 v=0
18660 On ch=10 n=42 v=120
18690 On ch=10 n=42 v=0
18690 On ch=10 n=42 v=80
18720 On ch=10 n=42 v=0
18720 On ch=10 n=42 v=120
18750 On ch=10 n=42 v=0
18750 On ch=10 n=42 v=80
18780 On ch=10 n=42 v=0
18780 On ch=10 n=42 v=120
18810 On ch=10 n=42 v=0
18810 On ch=10 n=42 v=80
18840 On ch=10 n=42 v=0
18840 On ch=10 n=42 v=120
18870 On ch=10 n=42 v=0
18870 On ch=10 n=42 v=80
18900 On ch=10 n=42 v=0
18900 On ch=10 n=42 v=120
18930 On ch=10 n=42 v=0
18930 On ch=10 n=42 v=80
18960 On ch=10 n=42 v=0
18960 On ch=10 n=42 v=120
18990 On ch=10 n=42 v=0
18990 On ch=10 n=42 v=80
19020 On ch=10 n=42 v=0
19020 On ch=10 n=42 v=120
19050 On ch=10 n=42 v=0
19050 On ch=10 n=42 v=80
19080 On ch=10 n=42 v=0
19080 On ch=10 n=42 v=120
19110 On ch=10 n=42 v=0
19110 On ch=10 n=42 v=80
19140 On ch=10 n=42 v=0
19140 On ch=10 n=42 v=120
19170 On ch=10 n=42 v=0
19170 On ch=10 n=42 v=80
19200 On ch=10 n=42 v=0
19200 On ch=10 n=42 v=120
19230 On ch=10 n=42 v=0
19230 On ch=10 n=42 v=80
19260 On ch=10 n=42 v=0
19260 On ch=10 n=42 v=120
19290 On ch=10 n=42 v=0
19290 On ch=10 n=42 v=80
19320 On ch=10 n=42 v=0
19320 On ch=10 n=42 v=120
19350 On ch=10 n=42 v=0
19350 On ch=10 n=42 v=80
19380 On ch=10 n=42 v=0
19380 On ch=10 n=42 v=120
19410 On ch=10 n=42 v=0
19410 On ch=10 n=42 v=80
19440 On ch=10 n=42 v=0
19440 On ch=10 n=42 v=120
19470 On ch=10 n=42 v=0
19470 On ch=10 n=42 v=80
19500 On ch=10 n=42 v=0
19500 On ch=10 n=42 v=120
19530 On ch=10 n=42 v=0
19530 On ch=10 n=42 v=80
19560 On ch=10 n=42 v=0
19560 On ch=10 n=42 v=120
19590 On ch=10 n=42 v=0
19590 On ch=10 n=42 v=80
19620 On ch=10 n=42 v=0
19620 On ch=10 n=42 v=120
19650 On ch=10 n=42 v=0
19650 On ch=10 n=42 v=80
19680 On ch=10 n=42 v=0
19680 On ch=10 n=42 v=120
19710 On ch=10 n=42 v=0
19710 On ch=10 n=42 v=80
19740 On ch=10 n=42 v=0
19740 On ch=10 n=42 v=120
19770 On ch=10 n=42 v=0
19770 On ch=10 n=42 v=80
19800 On ch=10 n=42 v=0
19800 On ch=10 n=42 v=120
19830 On ch=10 n=42 v=0
19830 On ch=10 n=42 v=80
19860 On ch=10 n=42 v=0
19860 On ch=10 n=42 v=120
19890 On ch=10 n=42 v=0
19890 On ch=10 n=42 v=80
19920 On ch=10 n=42 v=0
19920 On ch=10 n=42 v=120
19950 On ch=10 n=42 v=0
19950 On ch=10 n=42 v=80
19980 On ch=10 n=42 v=0
19980 On ch=10 n=42 v=120
20010 On ch=10 n=42 v=0
20010 On ch=10 n=42 v=80
20040 On ch=10 n=42 v=0
20040 On ch=10 n=42 v=120
20070 On ch=10 n=42 v=0
20070 On ch=10 n=42 v=80
20100 On ch=10 n=42 v=0
20100 On ch=10 n=42 v=120
20130 On ch=10 n=42 v=0
20130 On ch=10 n=42 v=80
20160 On ch=10 n=42 v=0
20160 On ch=10 n=42 v=120
20190 On ch=10 n=42 v=0
20190 On ch=10 n=42 v=80
20220 On ch=10 n=42 v=0
20220 On ch=10 n=42 v=120
20250 On ch=10 n=42 v=0
20250 On ch=10 n=42 v=80
20280 On ch=10 n=42 v=0
20280 On ch=10 n=42 v=120
20310 On ch=10 n=42 v=0
20310 On ch=10 n=42 v=80
20340 On ch=10 n=42 v=0
20340 On ch=10 n=42 v=120
20370 On ch=10 n=42 v=0
20370 On ch=10 n=42 v=80
20400 On ch=10 n=42 v=0
20400 On ch=10 n=42 v=120
20430 On ch=10 n=42 v=0
20430 On ch=10 n=42 v=80
20460 On ch=10 n=42 v=0
20460 On ch=10 n=42 v=120
20490 On ch=10 n=42 v=0
20490 On ch=10 n=42 v=80
20520 On ch=10 n=42 v=0
20520 On ch=10 n=42 v=120
20550 On ch=10 n=42 v=0
20550 On ch=10 n=42 v=80
20580 On ch=10 n=42 v=0
20580 On ch=10 n=42 v=120
20610 On ch=10 n=42 v=0
20610 On ch=10 n=42 v=80
20640 On ch=10 n=42 v=0
20640 On ch=10 n=42 v=120
20670 On ch=10 n=42 v=0
20670 On ch=10 n=42 v=80
20700 On ch=10 n=42 v=0
20700 On ch=10 n=42 v=120
20730 On ch=10 n=42 v=0
20730 On ch=10 n=42 v=80
20760 On ch=10 n=42 v=0
20760 On ch=10 n=42 v=120
20790 On ch=10 n=42 v=0
20790 On ch=10 n=42 v=80
20820 On ch=10 n=42 v=0
20820 On ch=10 n=42 v=120
20850 On ch=10 n=42 v=0
20850 On ch=10 n=42 v=80
20880 On ch=10 n=42 v=0
20880 On ch=10 n=42 v=120
20910 On ch=10 n=42 v=0
20910 On ch=10 n=42 v=80
20940 On ch=10 n=42 v=0
20940 On ch=10 n=42 v=120
20970 On ch=10 n=42 v=0
20970 On ch=10 n=42 v=80
21000 On ch=10 n=42 v=0
21000 On ch=10 n=42 v=120
21030 On ch=10 n=42 v=0
21030 On ch=10 n=42 v=80
21060 On ch=10 n=42 v=0
21060 On ch=10 n=42 v=120
21090 On ch=10 n=42 v=0
21090 On ch=10 n=42 v=80
21120 On ch=10 n=42 v=0
21120 On ch=10 n=42 v=120
21150 On ch=10 n=42 v=0
21150 On ch=10 n=42 v=80
21180 On ch=10 n=42 v=0
21180 On ch=10 n=42 v=120
21210 On ch=10 n=42 v=0
21210 On ch=10 n=42 v=80
21240 On ch=10 n=42 v=0
21240 On ch=10 n=42 v=120
21270 On ch=10 n=42 v=0
21270 On ch=10 n=42 v=80
21300 On ch=10 n=42 v=0
21300 On ch=10 n=42 v=120
21330 On ch=10 n=42 v=0
21330 On ch=10 n=42 v=80
21360 On ch=10 n=42 v=0
21360 On ch=10 n=42 v=120
21390 On ch=10 n=42 v=0
21390 On ch=10 n=42 v=80
21420 On ch=10 n=42 v=0
21420 On ch=10 n=42 v=120
21450 On ch=10 n=42 v=0
21450 On ch=10 n=42 v=80
21480 On ch=10 n=42 v=0
21480 On ch=10 n=42 v=120
21510 On ch=10 n=42 v=0
21510 On ch=10 n=42 v=80
21540 On ch=10 n=42 v=0
21540 On ch=10 n=42 v=120
21570 On ch=10 n=42 v=0
21570 On ch=10 n=42 v=80
21600 On ch=10 n=42 v=0
21600 On ch=10 n=42 v=120
21630 On ch=10 n=42 v=0
21630 On ch=10 n=42 v=80
21660 On ch=10 n=42 v=0
21660 On ch=10 n=42 v=120
21690 On ch=10 n=42 v=0
21690 On ch=10 n=42 v=80
21720 On ch=10 n=42 v=0
21720 On ch=10 n=42 v=120
21750 On ch=10 n=42 v=0
21750 On ch=10 n=42 v=80
21780 On ch=10 n=42 v=0
21780 On ch=10 n=42 v=120
21810 On ch=10 n=42 v=0
21810 On ch=10 n=42 v=80
21840 On ch=10 n=42 v=0
21840 On ch=10 n=42 v=120
21870 On ch=10 n=42 v=0
21870 On ch=10 n=42 v=80
21900 On ch=10 n=42 v=0
21900 On ch=10 n=42 v=120
21930 On ch=10 n=42 v=0
21930 On ch=10 n=42 v=80
21960 On ch=10 n=42 v=0
21960 On ch=10 n=42 v=120
21990 On ch=10 n=42 v=0
21990 On ch=10 n=42 v=80
22020 On ch=10 n=42 v=0
22020 On ch=10 n=42 v=120
22050 On ch=10 n=42 v=0
22050 On ch=10 n=42 v=80
22080 On ch=10 n=42 v=0
22080 On ch=10 n=42 v=120
22110 On ch=10 n=42 v=0
22110 On ch=10 n=42 v=80
22140 On ch=10 n=42 v=0
22140 On ch=10 n=42 v=120
22170 On ch=10 n=42 v=0
22170 On ch=10 n=42 v=80
22200 On ch=10 n=42 v=0
22200 On ch=10 n=42 v=120
22230 On ch=10 n=42 v=0
22230 On ch=10 n=42 v=80
22260 On ch=10 n=42 v=0
22260 On ch=10 n=42 v=120
22290 On ch=10 n=42 v=0
22290 On ch=10 n=42 v=80
22320 On ch=10 n=42 v=0
22320 On ch=10 n=42 v=120
22350 On ch=10 n=42 v=0
22350 On ch=10 n=42 v=80
22380 On ch=10 n=42 v=0
22380 On ch=10 n=42 v=120
22410 On ch=10 n=42 v=0
22410 On ch=10 n=42 v=80
22440 On ch=10 n=42 v=0
22440 On ch=10 n=42 v=120
22470 On ch=10 n=42 v=0
22470 On ch=10 n=42 v=80
22500 On ch=10 n=42 v=0
22500 On ch=10 n=42 v=120
22530 On ch=10 n=42 v=0
22530 On ch=10 n=42 v=80
22560 On ch=10 n=42 v=0
22560 On ch=10 n=42 v=120
22590 On ch=10 n=42 v=0
22590 On ch=10 n=42 v=80
22620 On ch=10 n=42 v=0
22620 On ch=10 n=42 v=120
22650 On ch=10 n=42 v=0
22650 On ch=10 n=42 v=80
22680 On ch=10 n=42 v=0
22680 On ch=10 n=42 v=120
22710 On ch=10 n=42 v=0
22710 On ch=10 n=42 v=80
22740 On ch=10 n=42 v=0
22740 On ch=10 n=42 v=120
22770 On ch=10 n=42 v=0
22770 On ch=10 n=42 v=80
22800 On ch=10 n=42 v=0
22800 On ch=10 n=42 v=120
22830 On ch=10 n=42 v=0
22830 On ch=10 n=42 v=80
22860 On ch=10 n=42 v=0
22860 On ch=10 n=42 v=120
22890 On ch=10 n=42 v=0
22890 On ch=10 n=42 v=80
22920 On ch=10 n=42 v=0
22920 On ch=10 n=42 v=120
22950 On ch=10 n=42 v=0
22950 On ch=10 n=42 v=80
22980 On ch=10 n=42 v=0
22980 On ch=10 n=42 v=120
23010 On ch=10 n=42 v=0
23010 On ch=10 n=42 v=80
23040 On ch=10 n=42 v=0
23040 On ch=10 n=42 v=120
23070 On ch=10 n=42 v=0
23070 On ch=10 n=42 v=80
23100 On ch=10 n=42 v=0
23100 On ch=10 n=42 v=120
23130 On ch=10 n=42 v=0
23130 On ch=10 n=42 v=80
23160 On ch=10 n=42 v=0
23160 On ch=10 n=42 v=120
23190 On ch=10 n=42 v=0
23190 On ch=10 n=42 v=80
23220 On ch=10 n=42 v=0
23220 On ch=10 n=42 v=120
23250 On ch=10 n=42 v=0
23250 On ch=10 n=42 v=80
23280 On ch=10 n=42 v=0
23280 On ch=10 n=42 v=120
23310 On ch=10 n=42 v=0
23310 On ch=10 n=42 v=80
23340 On ch=10 n=42 v=0
23340 On ch=10 n=42 v=120
23370 On ch=10 n=42 v=0
23370 On ch=10 n=42 v=80
23400 On ch=10 n=42 v=0
23400 On ch=10 n=42 v=120
23430 On ch=10 n=42 v=0
23430 On ch=10 n=42 v=80
23460 On ch=10 n=42 v=0
23460 On ch=10 n=42 v=120
23490 On ch=10 n=42 v=0
23490 On ch=10 n=42 v=80
23520 On ch=10 n=42 v=0
23520 On ch=10 n=42 v=120
23550 On ch=10 n=42 v=0
23550 On ch=10 n=42 v=80
23580 On ch=10 n=42 v=0
23580 On ch=10 n=42 v=120
23610 On ch=10 n=42 v=0
23610 On ch=10 n=42 v=80
23640 On ch=10 n=42 v=0
23640 On ch=10 n=42 v=120
23670 On ch=10 n=42 v=0
23670 On ch=10 n=42 v=80
23700 On ch=10 n=42 v=0
23700 On ch=10 n=42 v=120
23730 On ch=10 n=42 v=0
23730 On ch=10 n=42 v=80
23760 On ch=10 n=42 v=0
23760 On ch=10 n=42 v=120
23790 On ch=10 n=42 v=0
23790 On ch=10 n=42 v=80
23820 On ch=10 n=42 v=0
23820 On ch=10 n=42 v=120
23850 On ch=10 n=42 v=0
23850 On ch=10 n=42 v=80
23880 On ch=10 n=42 v=0
23880 On ch=10 n=42 v=120
23910 On ch=10 n=42 v=0
23910 On ch=10 n=42 v=80
23940 On ch=10 n=42 v=0
23940 On ch=10 n=42 v=120
23970 On ch=10 n=42 v=0
23970 On ch=10 n=42 v=80
24000 On ch=10 n=42 v=0
24060 On ch=10 n=42 v=100
24120 On ch=10 n=42 v=0
24120 On ch=10 n=42 v=100
24180 On ch=10 n=42 v=0
24180 On ch=10 n=42 v=100
24240 On ch=10 n=42 v=0
24300 On ch=10 n=42 v=100
24360 On ch=10 n=42 v=0
24360 On ch=10 n=42 v=100
24420 On ch=10 n=42 v=0
24420 On ch=10 n=42 v=100
24480 On ch=10 n=42 v=0
24540 On ch=10 n=42 v=100
24600 On ch=10 n=42 v=0
24600 On ch=10 n=42 v=100
24660 On ch=10 n=42 v=0
24660 On ch=10 n=42 v=100
24720 On ch=10 n=42 v=0
25020 On ch=10 n=42 v=100
25080 On ch=10 n=42 v=0
25080 On ch=10 n=42 v=100
25140 On ch=10 n=42 v=0
25140 On ch=10 n=42 v=100
25200 On ch=10 n=42 v=0
25260 On ch=10 n=42 v=100
25320 On ch=10 n=42 v=0
25320 On ch=10 n=42 v=100
25380 On ch=10 n=42 v=0
25380 On ch=10 n=42 v=100
25440 On ch=10 n=42 v=0
25500 On ch=10 n=42 v=100
25560 On ch=10 n=42 v=0
25560 On ch=10 n=42 v=100
25620 On ch=10 n=42 v=0
25620 On ch=10 n=42 v=100
25680 On ch=10 n=42 v=0
25680 On ch=10 n=42 v=100
25740 On ch=10 n=42 v=0
25740 On ch=10 n=42 v=100
25800 On ch=10 n=42 v=0
25800 On ch=10 n=42 v=100
25860 On ch=10 n=42 v=0
25860 On ch=10 n=44 v=100
25920 On ch=10 n=44 v=0
25980 On ch=10 n=42 v=100
26040 On ch=10 n=42 v=0
26040 On ch=10 n=42 v=100
26100 On ch=10 n=42 v=0
26100 On ch=10 n=42 v=100
26160 On ch=10 n=42 v=0
26160 On ch=10 n=42 v=100
26220 On ch=10 n=42 v=0
26220 On ch=10 n=42 v=100
26280 On ch=10 n=42 v=0
26280 On ch=10 n=42 v=100
26340 On ch=10 n=42 v=0
26340 On ch=10 n=44 v=100
26400 On ch=10 n=44 v=0
26460 On ch=10 n=42 v=100
26520 On ch=10 n=42 v=0
26520 On ch=10 n=42 v=100
26580 On ch=10 n=42 v=0
26580 On ch=10 n=42 v=100
26640 On ch=10 n=42 v=0
26640 On ch=10 n=42 v=100
26700 On ch=10 n=42 v=0
26700 On ch=10 n=42 v=100
26760 On ch=10 n=42 v=0
26760 On ch=10 n=42 v=100
26820 On ch=10 n=42 v=0
26820 On ch=10 n=44 v=100
26880 On ch=10 n=44 v=0
27420 On ch=10 n=42 v=100
27480 On ch=10 n=42 v=0
27480 On ch=10 n=42 v=100
27540 On ch=10 n=42 v=0
27540 On ch=10 n=42 v=100
27600 On ch=10 n=42 v=0
27660 On ch=10 n=42 v=100
27720 On ch=10 n=42 v=0
27720 On ch=10 n=42 v=100
27780 On ch=10 n=42 v=0
27780 On ch=10 n=42 v=100
27840 On ch=10 n=42 v=0
27900 On ch=10 n=42 v=100
27960 On ch=10 n=42 v=0
27960 On ch=10 n=42 v=100
28020 On ch=10 n=42 v=0
28020 On ch=10 n=42 v=100
28080 On ch=10 n=42 v=0
28080 On ch=10 n=44 v=100
28110 On ch=10 n=44 v=0
28110 On ch=10 n=42 v=100
28200 On ch=10 n=42 v=0
28200 On ch=10 n=44 v=100
28320 On ch=10 n=44 v=0
28380 On ch=10 n=42 v=100
28440 On ch=10 n=42 v=0
28440 On ch=10 n=42 v=100
28500 On ch=10 n=42 v=0
28500 On ch=10 n=42 v=100
28560 On ch=10 n=42 v=0
28620 On ch=10 n=42 v=100
28680 On ch=10 n=42 v=0
28680 On ch=10 n=42 v=100
28740 On ch=10 n=42 v=0
28740 On ch=10 n=42 v=100
28800 On ch=10 n=42 v=0
28860 On ch=10 n=42 v=100
28920 On ch=10 n=42 v=0
28920 On ch=10 n=42 v=100
28980 On ch=10 n=42 v=0
28980 On ch=10 n=42 v=100
29040 On ch=10 n=42 v=0
29040 On ch=10 n=42 v=100
29100 On ch=10 n=42 v=0
29100 On ch=10 n=42 v=100
29160 On ch=10 n=42 v=0
29160 On ch=10 n=42 v=100
29220 On ch=10 n=42 v=0
29220 On ch=10 n=42 v=100
29280 On ch=10 n=42 v=0
29340 On ch=10 n=42 v=100
29400 On ch=10 n=42 v=0
29400 On ch=10 n=42 v=100
29460 On ch=10 n=42 v=0
29460 On ch=10 n=42 v=100
29520 On ch=10 n=42 v=0
29520 On ch=10 n=42 v=100
29580 On ch=10 n=42 v=0
29580 On ch=10 n=42 v=100
29640 On ch=10 n=42 v=0
29640 On ch=10 n=42 v=100
29700 On ch=10 n=42 v=0
29700 On ch=10 n=42 v=100
29760 On ch=10 n=42 v=0
29820 On ch=10 n=42 v=100
29880 On ch=10 n=42 v=0
29880 On ch=10 n=42 v=100
29940 On ch=10 n=42 v=0
29940 On ch=10 n=42 v=100
30000 On ch=10 n=42 v=0
30000 On ch=10 n=42 v=100
30060 On ch=10 n=42 v=0
30060 On ch=10 n=42 v=100
30120 On ch=10 n=42 v=0
30120 On ch=10 n=42 v=100
30180 On ch=10 n=42 v=0
30180 On ch=10 n=44 v=100
30240 On ch=10 n=44 v=0
30270 On ch=10 n=42 v=100
30300 On ch=10 n=42 v=0
30300 On ch=10 n=42 v=100
30330 On ch=10 n=42 v=0
30330 On ch=10 n=42 v=100
30360 On ch=10 n=42 v=0
30360 On ch=10 n=42 v=100
30390 On ch=10 n=42 v=0
30390 On ch=10 n=42 v=100
30420 On ch=10 n=42 v=0
30420 On ch=10 n=42 v=100
30450 On ch=10 n=42 v=0
30450 On ch=10 n=42 v=100
30480 On ch=10 n=42 v=0
30480 On ch=10 n=42 v=100
30510 On ch=10 n=42 v=0
30510 On ch=10 n=42 v=100
30540 On ch=10 n=42 v=0
30540 On ch=10 n=42 v=100
30570 On ch=10 n=42 v=0
30570 On ch=10 n=42 v=100
30600 On ch=10 n=42 v=0
30600 On ch=10 n=42 v=100
30630 On ch=10 n=42 v=0
30630 On ch=10 n=42 v=100
30660 On ch=10 n=42 v=0
30660 On ch=10 n=42 v=100
30690 On ch=10 n=42 v=0
30690 On ch=10 n=42 v=100
30720 On ch=10 n=42 v=0
30720 On ch=10 n=42 v=100
30750 On ch=10 n=42 v=0
30750 On ch=10 n=42 v=95
30780 On ch=10 n=42 v=0
30780 On ch=10 n=42 v=93
30810 On ch=10 n=42 v=0
30810 On ch=10 n=42 v=90
30840 On ch=10 n=42 v=0
30840 On ch=10 n=42 v=88
30870 On ch=10 n=42 v=0
30870 On ch=10 n=42 v=85
30900 On ch=10 n=42 v=0
30900 On ch=10 n=42 v=82
30930 On ch=10 n=42 v=0
30930 On ch=10 n=42 v=70
30960 On ch=10 n=42 v=0
30960 On ch=10 n=42 v=68
30990 On ch=10 n=42 v=0
30990 On ch=10 n=42 v=66
31020 On ch=10 n=42 v=0
31020 On ch=10 n=42 v=64
31050 On ch=10 n=42 v=0
31050 On ch=10 n=42 v=62
31080 On ch=10 n=42 v=0
31080 On ch=10 n=42 v=60
31110 On ch=10 n=42 v=0
31110 On ch=10 n=42 v=58
31140 On ch=10 n=42 v=0
31140 On ch=10 n=42 v=56
31170 On ch=10 n=42 v=0
31170 On ch=10 n=42 v=54
31200 On ch=10 n=42 v=0
31200 On ch=10 n=42 v=52
31230 On ch=10 n=42 v=0
31230 On ch=10 n=42 v=51
31260 On ch=10 n=42 v=0
31260 On ch=10 n=42 v=50
31290 On ch=10 n=42 v=0
31290 On ch=10 n=42 v=49
31320 On ch=10 n=42 v=0
31320 On ch=10 n=42 v=48
31350 On ch=10 n=42 v=0
31350 On ch=10 n=42 v=47
31380 On ch=10 n=42 v=0
31380 On ch=10 n=42 v=46
31410 On ch=10 n=42 v=0
31410 On ch=10 n=42 v=45
31440 On ch=10 n=42 v=0
31440 On ch=10 n=42 v=44
31470 On ch=10 n=42 v=0
31470 On ch=10 n=42 v=43
31500 On ch=10 n=42 v=0
31500 On ch=10 n=42 v=42
31530 On ch=10 n=42 v=0
31530 On ch=10 n=42 v=41
31560 On ch=10 n=42 v=0
31560 On ch=10 n=42 v=40
31590 On ch=10 n=42 v=0
31590 On ch=10 n=42 v=39
31620 On ch=10 n=42 v=0
31620 On ch=10 n=42 v=38
31650 On ch=10 n=42 v=0
31650 On ch=10 n=42 v=37
31680 On ch=10 n=42 v=0
31680 On ch=10 n=42 v=36
31710 On ch=10 n=42 v=0
31710 On ch=10 n=42 v=35
31740 On ch=10 n=42 v=0
31740 On ch=10 n=42 v=34
31770 On ch=10 n=42 v=0
31770 On ch=10 n=42 v=32
31800 On ch=10 n=42 v=0
31800 On ch=10 n=42 v=31
31830 On ch=10 n=42 v=0
31830 On ch=10 n=42 v=30
31860 On ch=10 n=42 v=0
31860 On ch=10 n=42 v=28
31890 On ch=10 n=42 v=0
31890 On ch=10 n=42 v=26
31920 On ch=10 n=42 v=0
31920 On ch=10 n=42 v=24
31950 On ch=10 n=42 v=0
31950 On ch=10 n=42 v=20
31980 On ch=10 n=42 v=0
31980 On ch=10 n=42 v=18
32010 On ch=10 n=42 v=0
32010 On ch=10 n=42 v=16
32040 On ch=10 n=42 v=0
32040 On ch=10 n=42 v=14
32070 On ch=10 n=42 v=0
32070 On ch=10 n=42 v=12
32100 On ch=10 n=42 v=0
32100 On ch=10 n=42 v=10
32130 On ch=10 n=42 v=0
32130 On ch=10 n=42 v=5
32160 On ch=10 n=42 v=0
32160 Meta TrkEnd
TrkEnd
MTrk
0 Meta TrkName "Ride Cymbals"
0 Par ch=10 c=7 v=127
24000 On ch=10 n=51 v=100
24060 On ch=10 n=51 v=0
24060 On ch=10 n=51 v=100
24120 On ch=10 n=51 v=0
24120 On ch=10 n=51 v=100
24180 On ch=10 n=51 v=0
24180 On ch=10 n=51 v=100
24240 On ch=10 n=51 v=0
24240 On ch=10 n=51 v=100
24300 On ch=10 n=51 v=0
24300 On ch=10 n=51 v=100
24360 On ch=10 n=51 v=0
24360 On ch=10 n=51 v=100
24420 On ch=10 n=51 v=0
24420 On ch=10 n=51 v=100
24480 On ch=10 n=51 v=0
24480 On ch=10 n=51 v=100
24540 On ch=10 n=51 v=0
24540 On ch=10 n=51 v=100
24600 On ch=10 n=51 v=0
24600 On ch=10 n=51 v=100
24660 On ch=10 n=51 v=0
24660 On ch=10 n=51 v=100
24720 On ch=10 n=51 v=0
24720 On ch=10 n=51 v=100
24780 On ch=10 n=51 v=0
24780 On ch=10 n=51 v=100
24840 On ch=10 n=51 v=0
24840 On ch=10 n=51 v=100
24900 On ch=10 n=51 v=0
24900 On ch=10 n=51 v=100
24960 On ch=10 n=51 v=0
24960 On ch=10 n=51 v=100
25020 On ch=10 n=51 v=0
25020 On ch=10 n=51 v=100
25080 On ch=10 n=51 v=0
25080 On ch=10 n=51 v=100
25140 On ch=10 n=51 v=0
25140 On ch=10 n=51 v=100
25200 On ch=10 n=51 v=0
25200 On ch=10 n=51 v=100
25260 On ch=10 n=51 v=0
25260 On ch=10 n=51 v=100
25320 On ch=10 n=51 v=0
25320 On ch=10 n=51 v=100
25380 On ch=10 n=51 v=0
25380 On ch=10 n=51 v=100
25440 On ch=10 n=51 v=0
25440 On ch=10 n=51 v=100
25500 On ch=10 n=51 v=0
25500 On ch=10 n=51 v=100
25560 On ch=10 n=51 v=0
25560 On ch=10 n=51 v=100
25620 On ch=10 n=51 v=0
25620 On ch=10 n=51 v=100
25680 On ch=10 n=51 v=0
25680 On ch=10 n=51 v=100
25740 On ch=10 n=51 v=0
25740 On ch=10 n=51 v=100
25800 On ch=10 n=51 v=0
25800 On ch=10 n=51 v=100
25860 On ch=10 n=51 v=0
25860 On ch=10 n=51 v=100
25920 On ch=10 n=51 v=0
25920 On ch=10 n=51 v=100
25980 On ch=10 n=51 v=0
25980 On ch=10 n=51 v=100
26040 On ch=10 n=51 v=0
26040 On ch=10 n=51 v=100
26100 On ch=10 n=51 v=0
26100 On ch=10 n=51 v=100
26160 On ch=10 n=51 v=0
26160 On ch=10 n=51 v=100
26220 On ch=10 n=51 v=0
26220 On ch=10 n=51 v=100
26280 On ch=10 n=51 v=0
26280 On ch=10 n=51 v=100
26340 On ch=10 n=51 v=0
26340 On ch=10 n=51 v=100
26400 On ch=10 n=51 v=0
26400 On ch=10 n=51 v=100
26460 On ch=10 n=51 v=0
26460 On ch=10 n=51 v=100
26520 On ch=10 n=51 v=0
26520 On ch=10 n=51 v=100
26580 On ch=10 n=51 v=0
26580 On ch=10 n=51 v=100
26640 On ch=10 n=51 v=0
26640 On ch=10 n=51 v=100
26700 On ch=10 n=51 v=0
26700 On ch=10 n=51 v=100
26760 On ch=10 n=51 v=0
26760 On ch=10 n=51 v=100
26820 On ch=10 n=51 v=0
26820 On ch=10 n=51 v=100
26880 On ch=10 n=51 v=0
27360 On ch=10 n=51 v=100
27420 On ch=10 n=51 v=0
27420 On ch=10 n=51 v=100
27480 On ch=10 n=51 v=0
27480 On ch=10 n=51 v=100
27540 On ch=10 n=51 v=0
27540 On ch=10 n=51 v=100
27600 On ch=10 n=51 v=0
27600 On ch=10 n=51 v=100
27660 On ch=10 n=51 v=0
27660 On ch=10 n=51 v=100
27720 On ch=10 n=51 v=0
27720 On ch=10 n=51 v=100
27780 On ch=10 n=51 v=0
27780 On ch=10 n=51 v=100
27840 On ch=10 n=51 v=0
27840 On ch=10 n=51 v=100
27900 On ch=10 n=51 v=0
27900 On ch=10 n=51 v=100
27960 On ch=10 n=51 v=0
27960 On ch=10 n=51 v=100
28020 On ch=10 n=51 v=0
28020 On ch=10 n=51 v=100
28080 On ch=10 n=51 v=0
28080 On ch=10 n=51 v=100
28140 On ch=10 n=51 v=0
28140 On ch=10 n=51 v=100
28200 On ch=10 n=51 v=0
28200 On ch=10 n=51 v=100
28260 On ch=10 n=51 v=0
28260 On ch=10 n=51 v=100
28320 On ch=10 n=51 v=0
28320 On ch=10 n=51 v=100
28380 On ch=10 n=51 v=0
28380 On ch=10 n=51 v=100
28440 On ch=10 n=51 v=0
28440 On ch=10 n=51 v=100
28500 On ch=10 n=51 v=0
28500 On ch=10 n=51 v=100
28560 On ch=10 n=51 v=0
28560 On ch=10 n=51 v=100
28620 On ch=10 n=51 v=0
28620 On ch=10 n=51 v=100
28680 On ch=10 n=51 v=0
28680 On ch=10 n=51 v=100
28740 On ch=10 n=51 v=0
28740 On ch=10 n=51 v=100
28800 On ch=10 n=51 v=0
28800 On ch=10 n=51 v=100
28860 On ch=10 n=51 v=0
28860 On ch=10 n=51 v=100
28920 On ch=10 n=51 v=0
28920 On ch=10 n=51 v=100
28980 On ch=10 n=51 v=0
28980 On ch=10 n=51 v=100
29040 On ch=10 n=51 v=0
29040 On ch=10 n=51 v=100
29100 On ch=10 n=51 v=0
29100 On ch=10 n=51 v=100
29160 On ch=10 n=51 v=0
29160 On ch=10 n=51 v=100
29220 On ch=10 n=51 v=0
29220 On ch=10 n=51 v=100
29280 On ch=10 n=51 v=0
29280 On ch=10 n=51 v=100
29340 On ch=10 n=51 v=0
29340 On ch=10 n=51 v=100
29400 On ch=10 n=51 v=0
29400 On ch=10 n=51 v=100
29460 On ch=10 n=51 v=0
29460 On ch=10 n=51 v=100
29520 On ch=10 n=51 v=0
29520 On ch=10 n=51 v=100
29580 On ch=10 n=51 v=0
29580 On ch=10 n=51 v=100
29640 On ch=10 n=51 v=0
29640 On ch=10 n=51 v=100
29700 On ch=10 n=51 v=0
29700 On ch=10 n=51 v=100
29760 On ch=10 n=51 v=0
29760 On ch=10 n=51 v=100
29820 On ch=10 n=51 v=0
29820 On ch=10 n=51 v=100
29880 On ch=10 n=51 v=0
29880 On ch=10 n=51 v=100
29940 On ch=10 n=51 v=0
29940 On ch=10 n=51 v=100
30000 On ch=10 n=51 v=0
30000 On ch=10 n=51 v=100
30060 On ch=10 n=51 v=0
30060 On ch=10 n=51 v=100
30120 On ch=10 n=51 v=0
30120 On ch=10 n=51 v=100
30180 On ch=10 n=51 v=0
30180 On ch=10 n=51 v=100
30240 On ch=10 n=51 v=0
30240 Meta TrkEnd
TrkEnd
