MFile 1 15 192
MTrk
0 Meta Text "{GNMIDI}Generated by illegal use of GNMIDI 2.0 demo after 41 days (only 14 days free testing allowed)\n"
0 Meta Text "{GNMIDI}Generated by illegal use of GNMIDI 2.0 demo after 41 days (only 14 days free testing allowed)\n"
0 Meta SeqName "    WAKA WAKA "
0 Meta Marker "HECHO POR ERNESTO VILLARREAL midis.gratis@yahoo.com  http://www.gabitogrupos.com/MidisGratis/"
0 TimeSig 4/4 24 8
0 KeySig 0 major
0 Tempo 476190
9414 Meta Lyric "You're a good soldier\r"
10188 Meta Lyric "Choosing your battles\r"
11075 Meta Lyric "Pick yourself up\r"
11441 Meta Lyric "And dust yourself off\r"
11831 Meta Lyric "Get back in the saddle\r"
12615 Meta Lyric "You're on the front line\r"
13351 Meta Lyric "Everyone's watching\r"
14148 Meta Lyric "You know it's serious\r"
14518 Meta Lyric "We're getting closer\r"
14897 Meta Lyric "This isn't over\r"
15680 Meta Lyric "The pressure's on; you feel it\r"
17199 Meta Lyric "But you got it all; believe it\r"
18572 Meta Lyric "When you fall, get up, oh oh\r"
19348 Meta Lyric "And if you fall, get up, eh eh\r"
20083 Meta Lyric "Tsamina mina zangalewa\r"
20925 Meta Lyric "Cause this is Africa\r"
21669 Meta Lyric "Tsamina mina eh, eh\r"
22443 Meta Lyric "Waka waka eh, eh\r"
23223 Meta Lyric "Tsamina mina zangalewa\r"
24025 Meta Lyric "This time for Africa\r"
30936 Meta Lyric "Listen to your god\r"
31725 Meta Lyric "This is our motto\r"
32520 Meta Lyric "Your time to shine\r"
32886 Meta Lyric "Don't wait in line\r"
33285 Meta Lyric "Y vamos por todo\r"
34078 Meta Lyric "People are raising\r"
34833 Meta Lyric "Their expectations\r"
35644 Meta Lyric "Go on and feel it\r"
36004 Meta Lyric "This is your moment\r"
36389 Meta Lyric "No hesitation\r"
37197 Meta Lyric "Today's your day; I feel it\r"
38630 Meta Lyric "You paved the way, believe it\r"
40053 Meta Lyric "If you get down, get up oh, oh\r"
40053 Meta Lyric "When you get down, get up eh, eh\r"
40053 Meta Lyric "Tsamina mina zangalewa\r"
40053 Meta Lyric "This time for Africa\r"
40053 Meta Lyric "Tsamina mina eh, eh\r"
40053 Meta Lyric "Waka waka eh, eh\r"
40053 Meta Lyric "Tsamina mina zangalewa\r"
40053 Meta Lyric "Anawa ah, ah\r"
40053 Meta Lyric "Tsamina mina eh, eh\r"
40053 Meta Lyric "Waka waka eh, eh\r"
40053 Meta Lyric "Tsamina mina zangalewa\r"
40053 Meta Lyric "This time for Africa\r"
40053 Meta Lyric "Cause this is Africa\r"
40053 Meta Lyric "Tsamina mina eh, eh\r"
40053 Meta Lyric "Waka waka eh, eh\r"
40053 Meta Lyric "Tsamina mina zangalewa\r"
40053 Meta Lyric "Anawa ah, ah\r"
40053 Meta Lyric "Tsamina mina eh, eh\r"
40053 Meta Lyric "Waka waka eh, eh\r"
40053 Meta Lyric "Tsamina mina zangalewa\r"
40053 Meta Lyric "This time for Africa\r"
40053 Meta Lyric "Yango eh, eh\r"
40053 Meta Lyric "Yango eh, eh\r"
40053 Meta Lyric "Tsamina mina zangalewa\r"
40053 Meta Lyric "Anawa ah, ah\r"
40053 Meta Lyric "Yango eh, eh\r"
40053 Meta Lyric "Yango eh, eh\r"
40053 Meta Lyric "Tsamina mina zangalewa\r"
40053 Meta Lyric "Anawa ah, ah\r"
40053 Meta Lyric "This time for Africa\r"
40053 Meta Lyric "This time for Africa\r"
40053 Meta Lyric "We're all Africa\r"
40053 Meta Lyric "We're all Africa\r"
79851 Meta TrkEnd
TrkEnd
MTrk
0 Meta TrkName "Soft karaoke"
0 Meta Text "@KMIDI KARAOKE FILE"
0 Meta TrkEnd
TrkEnd
MTrk
0 Meta TrkName "Words"
0 Meta Text "@LENGL"
0 Meta Text "@TWaka Waka"
0 Meta Text "@TShakira"
9409 Meta Text "\\You're"
9488 Meta Text " a"
9601 Meta Text " good"
9680 Meta Text " sol"
9793 Meta Text "dier"
10177 Meta Text "/Choosing"
10256 Meta Text " your"
10369 Meta Text " bat"
10561 Meta Text "tles"
10832 Meta Text "/Pick"
10945 Meta Text " yourself"
11024 Meta Text " up"
11137 Meta Text "/And"
11216 Meta Text " dust"
11329 Meta Text " yourself"
11408 Meta Text " off"
11521 Meta Text "/Get"
11600 Meta Text " back"
11713 Meta Text " in"
11792 Meta Text " the"
11905 Meta Text " sad"
12019 Meta Text "dle"
12481 Meta Text "/You're"
12560 Meta Text " on"
12673 Meta Text " the"
12752 Meta Text " front"
12865 Meta Text " line"
13249 Meta Text "/Everyone's"
13441 Meta Text " wat"
13633 Meta Text "ching"
13904 Meta Text "/You"
14017 Meta Text " know"
14056 Meta Text " it's"
14096 Meta Text " serious"
14209 Meta Text "/We're"
14288 Meta Text " getting"
14480 Meta Text " closer"
14593 Meta Text "/This"
14785 Meta Text " isn't"
14977 Meta Text " o"
15091 Meta Text "ver"
15553 Meta Text "\\The"
15632 Meta Text " pressure's"
15824 Meta Text " on;"
16321 Meta Text " you"
16400 Meta Text " feel"
16513 Meta Text " it"
17168 Meta Text "/But"
17281 Meta Text " you"
17360 Meta Text " got"
17440 Meta Text " it"
17473 Meta Text " all;"
18128 Meta Text " believe"
18320 Meta Text " it"
18625 Meta Text "\\When"
18704 Meta Text " you"
18817 Meta Text " fall,"
18896 Meta Text " get"
18976 Meta Text " up,"
19006 Meta Text " oh"
19088 Meta Text " oh"
19201 Meta Text "/And"
19240 Meta Text " if"
19472 Meta Text " you"
19585 Meta Text " fall,"
19664 Meta Text " get"
19744 Meta Text " up,"
19774 Meta Text " eh"
19856 Meta Text " eh"
20161 Meta Text "/Tsa"
20240 Meta Text "mina"
20353 Meta Text " mina"
20624 Meta Text " zanga"
20737 Meta Text "lewa"
20929 Meta Text "/Cause"
21008 Meta Text " this"
21121 Meta Text " is"
21200 Meta Text " Africa"
21505 Meta Text "\\Tsa"
21584 Meta Text "mina"
21697 Meta Text " mina"
21968 Meta Text " eh,"
22081 Meta Text " eh"
22273 Meta Text "/Wa"
22432 Meta Text "ka"
22465 Meta Text " wa"
22624 Meta Text "ka"
22816 Meta Text " eh,"
22928 Meta Text " eh"
23233 Meta Text "/Tsa"
23312 Meta Text "mina"
23425 Meta Text " mina"
23696 Meta Text " zanga"
23809 Meta Text "lewa"
24001 Meta Text "/This"
24080 Meta Text " time"
24193 Meta Text " for"
24272 Meta Text " Africa"
30913 Meta Text "\\Listen"
31105 Meta Text " to"
31184 Meta Text " your"
31297 Meta Text " god"
31681 Meta Text "/This"
31720 Meta Text " is"
31760 Meta Text " our"
31873 Meta Text " mot"
32065 Meta Text "to"
32336 Meta Text "/Your"
32449 Meta Text " time"
32528 Meta Text " to"
32608 Meta Text " shine"
32641 Meta Text "/Don't"
32720 Meta Text " wait"
32833 Meta Text " in"
32912 Meta Text " line"
33025 Meta Text "/Y"
33104 Meta Text " va"
33217 Meta Text "mos"
33296 Meta Text " por"
33409 Meta Text " to"
33523 Meta Text "do"
33985 Meta Text "/Peo"
34064 Meta Text "ple"
34177 Meta Text " are"
34256 Meta Text " rai"
34369 Meta Text "sing"
34753 Meta Text "/Their"
34945 Meta Text " expecta"
35137 Meta Text "tions"
35408 Meta Text "/Go"
35521 Meta Text " on"
35560 Meta Text " and"
35600 Meta Text " feel"
35680 Meta Text " it"
35713 Meta Text "/This"
35792 Meta Text " is"
35872 Meta Text " your"
35984 Meta Text " moment"
36097 Meta Text "/No"
36289 Meta Text " hesi"
36481 Meta Text "ta"
36595 Meta Text "tion"
37057 Meta Text "\\Today's"
37136 Meta Text " your"
37328 Meta Text " day;"
37825 Meta Text " I"
37904 Meta Text " feel"
38017 Meta Text " it"
38672 Meta Text "/You"
38785 Meta Text " paved"
38864 Meta Text " the"
38977 Meta Text " way,"
39632 Meta Text " believe"
39824 Meta Text " it"
40129 Meta Text "\\If"
40208 Meta Text " you"
40321 Meta Text " get"
40360 Meta Text " down,"
40400 Meta Text " get"
40480 Meta Text " up"
40510 Meta Text " oh,"
40592 Meta Text " oh"
40705 Meta Text "/When"
40744 Meta Text " you"
40976 Meta Text " get"
41089 Meta Text " down,"
41168 Meta Text " get"
41248 Meta Text " up"
41278 Meta Text " eh,"
41360 Meta Text " eh"
41665 Meta Text "/Tsa"
41744 Meta Text "mina"
41857 Meta Text " mina"
42128 Meta Text " zanga"
42241 Meta Text "lewa"
42433 Meta Text "/This"
42512 Meta Text " time"
42625 Meta Text " for"
42704 Meta Text " Africa"
43009 Meta Text "\\Tsa"
43088 Meta Text "mina"
43201 Meta Text " mina"
43472 Meta Text " eh,"
43585 Meta Text " eh"
43777 Meta Text "/Wa"
43936 Meta Text "ka"
43969 Meta Text " wa"
44128 Meta Text "ka"
44320 Meta Text " eh,"
44432 Meta Text " eh"
44737 Meta Text "/Tsa"
44816 Meta Text "mina"
44929 Meta Text " mina"
45200 Meta Text " zanga"
45313 Meta Text "lewa"
45505 Meta Text "/Anawa"
45697 Meta Text " ah,"
46048 Meta Text " ah"
46081 Meta Text "\\Tsa"
46160 Meta Text "mina"
46273 Meta Text " mina"
46544 Meta Text " eh,"
46657 Meta Text " eh"
46849 Meta Text "/Wa"
47008 Meta Text "ka"
47041 Meta Text " wa"
47200 Meta Text "ka"
47392 Meta Text " eh,"
47504 Meta Text " eh"
47809 Meta Text "/Tsa"
47888 Meta Text "mina"
48001 Meta Text " mina"
48272 Meta Text " zanga"
48385 Meta Text "lewa"
48577 Meta Text "/This"
48656 Meta Text " time"
48769 Meta Text " for"
48848 Meta Text " Africa"
52417 Meta Text "\\If"
52496 Meta Text " you"
52609 Meta Text " get"
52648 Meta Text " down,"
52688 Meta Text " get"
52768 Meta Text " up"
52798 Meta Text " oh,"
52880 Meta Text " oh"
52993 Meta Text "/When"
53032 Meta Text " you"
53264 Meta Text " get"
53377 Meta Text " down,"
53456 Meta Text " get"
53536 Meta Text " up"
53566 Meta Text " eh,"
53648 Meta Text " eh"
54721 Meta Text "\\Cause"
54800 Meta Text " this"
54913 Meta Text " is"
54992 Meta Text " Africa"
61441 Meta Text "\\Tsa"
61520 Meta Text "mina"
61633 Meta Text " mina"
61904 Meta Text " eh,"
62017 Meta Text " eh"
62209 Meta Text "/Wa"
62368 Meta Text "ka"
62401 Meta Text " wa"
62560 Meta Text "ka"
62752 Meta Text " eh,"
62864 Meta Text " eh"
63169 Meta Text "/Tsa"
63248 Meta Text "mina"
63361 Meta Text " mina"
63632 Meta Text " zanga"
63745 Meta Text "lewa"
63937 Meta Text "/Anawa"
64129 Meta Text " ah,"
64480 Meta Text " ah"
64513 Meta Text "\\Tsa"
64592 Meta Text "mina"
64705 Meta Text " mina"
64976 Meta Text " eh,"
65089 Meta Text " eh"
65281 Meta Text "/Wa"
65440 Meta Text "ka"
65473 Meta Text " wa"
65632 Meta Text "ka"
65824 Meta Text " eh,"
65936 Meta Text " eh"
66241 Meta Text "/Tsa"
66320 Meta Text "mina"
66433 Meta Text " mina"
66704 Meta Text " zanga"
66817 Meta Text "lewa"
67009 Meta Text "/This"
67088 Meta Text " time"
67201 Meta Text " for"
67280 Meta Text " Africa"
67585 Meta Text "\\Yango"
67856 Meta Text " eh,"
68161 Meta Text " eh"
68353 Meta Text "/Yango"
68624 Meta Text " eh,"
68929 Meta Text " eh"
69313 Meta Text "/Tsa"
69392 Meta Text "mina"
69505 Meta Text " mina"
69776 Meta Text " zanga"
69889 Meta Text "lewa"
70081 Meta Text "/Anawa"
70273 Meta Text " ah,"
70624 Meta Text " ah"
70657 Meta Text "\\Yango"
70928 Meta Text " eh,"
71233 Meta Text " eh"
71425 Meta Text "/Yango"
71696 Meta Text " eh,"
72001 Meta Text " eh"
72385 Meta Text "/Tsa"
72464 Meta Text "mina"
72577 Meta Text " mina"
72848 Meta Text " zanga"
72961 Meta Text "lewa"
73153 Meta Text "/Anawa"
73345 Meta Text " ah,"
73696 Meta Text " ah"
74592 Meta Text "\\This"
74688 Meta Text " time"
74784 Meta Text " for"
74880 Meta Text " A"
74976 Meta Text "fri"
75072 Meta Text "ca"
76128 Meta Text "/This"
76224 Meta Text " time"
76320 Meta Text " for"
76416 Meta Text " A"
76512 Meta Text "fri"
76608 Meta Text "ca"
77664 Meta Text "\\We're"
77856 Meta Text " all"
77952 Meta Text " Afri"
78048 Meta Text "ca"
79200 Meta Text "/We're"
79392 Meta Text " all"
79488 Meta Text " Afri"
79584 Meta Text "ca"
79584 Meta TrkEnd
TrkEnd
MTrk
0 Meta Text "{GNMIDI}Generated by illegal use of GNMIDI 2.0 demo after 41 days (only 14 days free testing allowed)\n"
0 Meta TrkName "FngrBass"
0 Par ch=1 c=0 v=0
0 Par ch=1 c=7 v=110
0 Par ch=1 c=10 v=64
0 Par ch=1 c=93 v=0
0 Par ch=1 c=91 v=40
2 Par ch=1 c=32 v=0
2 PrCh ch=1 p=33
1537 On ch=1 n=29 v=117
1575 On ch=1 n=29 v=0
1584 On ch=1 n=29 v=117
1622 On ch=1 n=29 v=0
1632 On ch=1 n=29 v=117
1670 On ch=1 n=29 v=0
1680 On ch=1 n=29 v=117
1718 On ch=1 n=29 v=0
1728 On ch=1 n=29 v=117
1766 On ch=1 n=29 v=0
1776 On ch=1 n=29 v=117
1814 On ch=1 n=29 v=0
1824 On ch=1 n=29 v=117
1862 On ch=1 n=29 v=0
1872 On ch=1 n=29 v=117
1910 On ch=1 n=29 v=0
1920 On ch=1 n=29 v=117
1958 On ch=1 n=29 v=0
1968 On ch=1 n=29 v=117
2006 On ch=1 n=29 v=0
2016 On ch=1 n=29 v=117
2054 On ch=1 n=29 v=0
2064 On ch=1 n=29 v=117
2102 On ch=1 n=29 v=0
2112 On ch=1 n=29 v=117
2150 On ch=1 n=29 v=0
2160 On ch=1 n=29 v=117
2198 On ch=1 n=29 v=0
2208 On ch=1 n=29 v=117
2246 On ch=1 n=29 v=0
2256 On ch=1 n=29 v=117
2294 On ch=1 n=29 v=0
2305 On ch=1 n=29 v=117
2343 On ch=1 n=29 v=0
2352 On ch=1 n=29 v=117
2390 On ch=1 n=29 v=0
2400 On ch=1 n=29 v=117
2438 On ch=1 n=29 v=0
2448 On ch=1 n=29 v=117
2486 On ch=1 n=29 v=0
2496 On ch=1 n=29 v=117
2534 On ch=1 n=29 v=0
2544 On ch=1 n=29 v=117
2582 On ch=1 n=29 v=0
2592 On ch=1 n=29 v=117
2630 On ch=1 n=29 v=0
2640 On ch=1 n=29 v=117
2678 On ch=1 n=29 v=0
2688 On ch=1 n=29 v=117
2726 On ch=1 n=29 v=0
2736 On ch=1 n=29 v=117
2774 On ch=1 n=29 v=0
2784 On ch=1 n=29 v=117
2822 On ch=1 n=29 v=0
2832 On ch=1 n=29 v=117
2870 On ch=1 n=29 v=0
2880 On ch=1 n=29 v=117
2897 ChPr ch=1 v=8
2902 ChPr ch=1 v=29
2910 ChPr ch=1 v=47
2915 ChPr ch=1 v=77
2918 Off ch=1 n=29 v=0
2922 ChPr ch=1 v=127
2928 On ch=1 n=29 v=117
2966 On ch=1 n=29 v=0
2976 On ch=1 n=29 v=117
3014 On ch=1 n=29 v=0
3024 On ch=1 n=29 v=117
3059 ChPr ch=1 v=0
3062 Off ch=1 n=29 v=0
3072 On ch=1 n=26 v=123
3072 ChPr ch=1 v=127
3120 ChPr ch=1 v=21
3120 ChPr ch=1 v=0
3120 ChPr ch=1 v=22
3168 ChPr ch=1 v=127
3216 ChPr ch=1 v=19
3216 ChPr ch=1 v=0
3249 Off ch=1 n=26 v=0
4608 On ch=1 n=26 v=123
4608 ChPr ch=1 v=127
4656 ChPr ch=1 v=88
4656 ChPr ch=1 v=0
4656 ChPr ch=1 v=40
4656 ChPr ch=1 v=127
4752 ChPr ch=1 v=49
4752 ChPr ch=1 v=10
4800 ChPr ch=1 v=0
4804 Off ch=1 n=26 v=0
6144 On ch=1 n=26 v=127
6144 ChPr ch=1 v=127
6192 ChPr ch=1 v=24
6192 ChPr ch=1 v=3
6192 ChPr ch=1 v=0
6240 ChPr ch=1 v=22
6240 ChPr ch=1 v=127
6288 Off ch=1 n=26 v=0
6288 ChPr ch=1 v=0
7680 On ch=1 n=26 v=123
7680 ChPr ch=1 v=127
7728 ChPr ch=1 v=96
7728 ChPr ch=1 v=0
7728 ChPr ch=1 v=127
7824 ChPr ch=1 v=0
7860 Off ch=1 n=26 v=0
21504 On ch=1 n=26 v=117
21511 ChPr ch=1 v=127
21532 ChPr ch=1 v=0
21617 Off ch=1 n=26 v=0
21702 On ch=1 n=26 v=117
21714 ChPr ch=1 v=127
21740 ChPr ch=1 v=5
21746 ChPr ch=1 v=0
21777 Off ch=1 n=26 v=0
21856 Pb ch=1 v=7515
21862 Pb ch=1 v=963
21870 Pb ch=1 v=0
21883 Par ch=1 c=2 v=5
21890 Par ch=1 c=2 v=12
21897 Par ch=1 c=2 v=18
21899 On ch=1 n=50 v=111
21902 Par ch=1 c=2 v=32
21909 Par ch=1 c=2 v=42
21915 Par ch=1 c=2 v=46
21928 Pb ch=1 v=651
21936 Pb ch=1 v=1951
21936 Par ch=1 c=2 v=42
21941 Pb ch=1 v=3407
21941 Par ch=1 c=2 v=32
21948 Pb ch=1 v=5409
21949 Par ch=1 c=2 v=16
21955 Pb ch=1 v=8192
21955 Par ch=1 c=2 v=0
21997 On ch=1 n=54 v=114
22006 On ch=1 n=50 v=0
22149 On ch=1 n=54 v=0
22272 On ch=1 n=33 v=108
22360 On ch=1 n=33 v=0
22368 On ch=1 n=45 v=114
22368 ChPr ch=1 v=5
22368 ChPr ch=1 v=52
22416 ChPr ch=1 v=70
22416 ChPr ch=1 v=4
22416 ChPr ch=1 v=0
22455 Off ch=1 n=45 v=0
22464 On ch=1 n=33 v=105
22548 On ch=1 n=33 v=0
22752 On ch=1 n=45 v=117
22836 On ch=1 n=45 v=0
22848 On ch=1 n=33 v=102
22848 ChPr ch=1 v=4
22896 ChPr ch=1 v=34
22896 ChPr ch=1 v=127
22896 ChPr ch=1 v=19
22896 ChPr ch=1 v=0
22973 Off ch=1 n=33 v=0
23046 On ch=1 n=35 v=108
23069 ChPr ch=1 v=58
23076 ChPr ch=1 v=45
23082 ChPr ch=1 v=0
23181 Off ch=1 n=35 v=0
23248 On ch=1 n=35 v=108
23271 ChPr ch=1 v=29
23277 ChPr ch=1 v=23
23284 ChPr ch=1 v=0
23341 Off ch=1 n=35 v=0
23374 Pb ch=1 v=7385
23380 Pb ch=1 v=5383
23388 Pb ch=1 v=3017
23394 Pb ch=1 v=547
23400 Pb ch=1 v=0
23420 Par ch=1 c=2 v=17
23420 On ch=1 n=47 v=108
23427 Par ch=1 c=2 v=44
23433 Par ch=1 c=2 v=67
23439 Par ch=1 c=2 v=78
23446 Par ch=1 c=2 v=83
23458 Pb ch=1 v=1509
23459 Par ch=1 c=2 v=74
23465 Pb ch=1 v=3693
23465 Par ch=1 c=2 v=55
23471 Pb ch=1 v=5799
23472 Par ch=1 c=2 v=34
23479 Pb ch=1 v=7619
23479 Par ch=1 c=2 v=8
23484 Pb ch=1 v=8192
23485 Par ch=1 c=2 v=0
23515 Off ch=1 n=47 v=0
23517 On ch=1 n=50 v=105
23615 On ch=1 n=47 v=105
23634 On ch=1 n=50 v=0
23711 On ch=1 n=42 v=114
23722 On ch=1 n=47 v=0
23796 On ch=1 n=42 v=0
24576 Par ch=1 c=2 v=86
24576 On ch=1 n=50 v=105
24576 On ch=1 n=45 v=108
24576 Pb ch=1 v=0
24582 Par ch=1 c=2 v=104
24587 Par ch=1 c=2 v=117
24595 Par ch=1 c=2 v=124
24600 Par ch=1 c=2 v=126
24620 Pb ch=1 v=755
24626 Pb ch=1 v=2289
24626 Par ch=1 c=2 v=123
24633 Pb ch=1 v=3511
24634 Par ch=1 c=2 v=118
24640 Pb ch=1 v=4967
24640 Par ch=1 c=2 v=112
24646 Pb ch=1 v=6059
24647 Par ch=1 c=2 v=103
24652 Pb ch=1 v=6787
24652 Par ch=1 c=2 v=96
24659 Pb ch=1 v=7567
24660 Par ch=1 c=2 v=86
24665 Pb ch=1 v=7983
24665 Par ch=1 c=2 v=76
24673 Pb ch=1 v=8192
24673 Par ch=1 c=2 v=65
24678 Par ch=1 c=2 v=54
24685 Par ch=1 c=2 v=48
24692 Par ch=1 c=2 v=42
24698 Par ch=1 c=2 v=35
24705 Par ch=1 c=2 v=28
24711 Par ch=1 c=2 v=19
24718 Par ch=1 c=2 v=13
24724 Par ch=1 c=2 v=7
24730 Par ch=1 c=2 v=1
24737 Par ch=1 c=2 v=0
24883 Off ch=1 n=45 v=0
24899 Pb ch=1 v=7099
24906 Pb ch=1 v=5539
24912 Pb ch=1 v=3485
24913 Off ch=1 n=50 v=0
24919 Pb ch=1 v=1223
24925 Pb ch=1 v=0
24945 Par ch=1 c=2 v=14
24951 Par ch=1 c=2 v=47
24956 On ch=1 n=50 v=114
24959 Par ch=1 c=2 v=80
24965 Par ch=1 c=2 v=103
24971 Par ch=1 c=2 v=114
24972 ChPr ch=1 v=26
24977 Par ch=1 c=2 v=116
24978 ChPr ch=1 v=32
24984 Par ch=1 c=2 v=114
24985 ChPr ch=1 v=7
24990 Pb ch=1 v=1093
24991 Par ch=1 c=2 v=103
24991 ChPr ch=1 v=0
24997 Pb ch=1 v=2705
24998 Par ch=1 c=2 v=91
25003 Pb ch=1 v=4473
25004 Par ch=1 c=2 v=73
25010 Pb ch=1 v=5929
25010 Par ch=1 c=2 v=49
25016 Pb ch=1 v=7385
25017 Par ch=1 c=2 v=15
25023 Pb ch=1 v=8192
25024 Par ch=1 c=2 v=0
25065 On ch=1 n=54 v=114
25067 On ch=1 n=50 v=0
25267 On ch=1 n=54 v=0
25344 Par ch=1 c=2 v=37
25344 Pb ch=1 v=0
25347 On ch=1 n=52 v=105
25348 On ch=1 n=45 v=105
25352 Par ch=1 c=2 v=56
25356 Par ch=1 c=2 v=76
25363 Par ch=1 c=2 v=100
25370 Par ch=1 c=2 v=105
25383 Pb ch=1 v=1119
25389 Pb ch=1 v=2497
25396 Pb ch=1 v=4005
25396 Par ch=1 c=2 v=99
25403 Pb ch=1 v=5175
25403 Par ch=1 c=2 v=90
25409 Pb ch=1 v=6371
25410 Par ch=1 c=2 v=78
25416 Pb ch=1 v=7359
25416 Par ch=1 c=2 v=65
25422 Pb ch=1 v=8061
25423 Par ch=1 c=2 v=50
25429 Pb ch=1 v=8192
25429 Par ch=1 c=2 v=37
25435 Par ch=1 c=2 v=23
25442 Par ch=1 c=2 v=10
25448 Par ch=1 c=2 v=0
25642 Off ch=1 n=45 v=0
25661 Off ch=1 n=52 v=0
25682 Pb ch=1 v=6605
25689 Pb ch=1 v=4369
25695 Pb ch=1 v=1717
25702 Pb ch=1 v=0
25710 On ch=1 n=52 v=114
25715 Par ch=1 c=2 v=16
25721 Par ch=1 c=2 v=46
25731 Par ch=1 c=2 v=78
25731 ChPr ch=1 v=13
25734 Par ch=1 c=2 v=103
25735 ChPr ch=1 v=11
25741 Par ch=1 c=2 v=120
25741 ChPr ch=1 v=0
25747 Par ch=1 c=2 v=127
25753 Pb ch=1 v=209
25760 Pb ch=1 v=1925
25761 Par ch=1 c=2 v=122
25766 Pb ch=1 v=4109
25767 Par ch=1 c=2 v=106
25773 Pb ch=1 v=6319
25774 Par ch=1 c=2 v=86
25779 Pb ch=1 v=8087
25780 Par ch=1 c=2 v=66
25786 Pb ch=1 v=8192
25787 Par ch=1 c=2 v=41
25793 Par ch=1 c=2 v=12
25799 Par ch=1 c=2 v=0
25825 On ch=1 n=57 v=105
25831 On ch=1 n=52 v=0
25920 On ch=1 n=52 v=114
25925 On ch=1 n=57 v=0
25936 ChPr ch=1 v=13
25943 ChPr ch=1 v=16
25950 ChPr ch=1 v=6
25957 ChPr ch=1 v=0
25976 ChPr ch=1 v=8
25982 ChPr ch=1 v=17
25989 ChPr ch=1 v=23
25995 ChPr ch=1 v=40
26002 ChPr ch=1 v=45
26008 ChPr ch=1 v=67
26015 ChPr ch=1 v=127
26054 ChPr ch=1 v=3
26060 ChPr ch=1 v=0
26072 Off ch=1 n=52 v=0
26112 Par ch=1 c=2 v=38
26112 Pb ch=1 v=0
26119 Par ch=1 c=2 v=60
26119 On ch=1 n=42 v=114
26119 On ch=1 n=47 v=105
26123 Par ch=1 c=2 v=83
26129 Par ch=1 c=2 v=100
26136 Par ch=1 c=2 v=113
26142 Par ch=1 c=2 v=120
26149 Par ch=1 c=2 v=123
26155 Pb ch=1 v=1171
26156 Par ch=1 c=2 v=126
26161 Pb ch=1 v=2809
26168 Pb ch=1 v=4603
26175 Pb ch=1 v=6371
26175 Par ch=1 c=2 v=121
26181 Pb ch=1 v=7671
26181 Par ch=1 c=2 v=113
26188 Pb ch=1 v=8192
26188 Par ch=1 c=2 v=102
26194 Par ch=1 c=2 v=91
26200 Par ch=1 c=2 v=74
26207 Par ch=1 c=2 v=51
26214 Par ch=1 c=2 v=27
26220 Par ch=1 c=2 v=2
26226 Par ch=1 c=2 v=0
26390 Off ch=1 n=42 v=0
26411 Off ch=1 n=47 v=0
26436 Pb ch=1 v=7567
26443 Pb ch=1 v=5825
26449 Pb ch=1 v=3719
26456 Pb ch=1 v=1431
26462 Pb ch=1 v=0
26475 Par ch=1 c=2 v=20
26480 On ch=1 n=47 v=105
26482 Par ch=1 c=2 v=49
26487 Par ch=1 c=2 v=83
26495 Par ch=1 c=2 v=109
26501 Par ch=1 c=2 v=126
26507 Pb ch=1 v=1015
26508 Par ch=1 c=2 v=127
26513 Pb ch=1 v=2939
26520 Pb ch=1 v=4967
26526 Pb ch=1 v=6839
26527 Par ch=1 c=2 v=111
26533 Pb ch=1 v=8192
26534 Par ch=1 c=2 v=87
26540 Par ch=1 c=2 v=56
26546 Par ch=1 c=2 v=23
26552 Par ch=1 c=2 v=0
26582 On ch=1 n=50 v=102
26590 On ch=1 n=47 v=0
26667 On ch=1 n=42 v=108
26672 On ch=1 n=50 v=0
26763 On ch=1 n=42 v=0
26771 On ch=1 n=38 v=111
26788 ChPr ch=1 v=5
26795 ChPr ch=1 v=127
26808 ChPr ch=1 v=3
26814 ChPr ch=1 v=0
26869 Off ch=1 n=38 v=0
26880 On ch=1 n=43 v=114
26904 On ch=1 n=43 v=0
26926 On ch=1 n=43 v=108
26935 ChPr ch=1 v=47
26941 ChPr ch=1 v=127
26947 ChPr ch=1 v=28
26954 ChPr ch=1 v=0
26960 Off ch=1 n=43 v=0
27029 On ch=1 n=43 v=114
27039 ChPr ch=1 v=127
27058 ChPr ch=1 v=21
27065 ChPr ch=1 v=0
27072 ChPr ch=1 v=4
27077 ChPr ch=1 v=10
27084 ChPr ch=1 v=5
27091 ChPr ch=1 v=0
27112 Off ch=1 n=43 v=0
27207 Pb ch=1 v=6579
27213 Pb ch=1 v=3875
27219 Pb ch=1 v=1093
27226 Pb ch=1 v=0
27227 Par ch=1 c=2 v=2
27232 Par ch=1 c=2 v=24
27239 Par ch=1 c=2 v=51
27246 Par ch=1 c=2 v=83
27252 Par ch=1 c=2 v=112
27258 Par ch=1 c=2 v=127
27264 On ch=1 n=38 v=114
27278 Pb ch=1 v=1015
27285 Pb ch=1 v=3095
27285 ChPr ch=1 v=40
27291 Pb ch=1 v=5123
27291 Par ch=1 c=2 v=107
27293 ChPr ch=1 v=4
27298 Pb ch=1 v=6995
27298 Par ch=1 c=2 v=83
27299 ChPr ch=1 v=0
27305 Pb ch=1 v=8192
27305 Par ch=1 c=2 v=53
27311 Par ch=1 c=2 v=23
27318 Par ch=1 c=2 v=0
27356 On ch=1 n=43 v=111
27357 On ch=1 n=38 v=0
27451 On ch=1 n=38 v=117
27463 On ch=1 n=43 v=0
27534 On ch=1 n=38 v=0
27540 On ch=1 n=33 v=114
27554 ChPr ch=1 v=127
27567 ChPr ch=1 v=112
27573 ChPr ch=1 v=3
27579 ChPr ch=1 v=0
27593 ChPr ch=1 v=6
27599 ChPr ch=1 v=4
27605 ChPr ch=1 v=0
27627 Off ch=1 n=33 v=0
27648 Par ch=1 c=2 v=86
27648 On ch=1 n=50 v=105
27648 On ch=1 n=45 v=108
27648 Pb ch=1 v=0
27654 Par ch=1 c=2 v=104
27659 Par ch=1 c=2 v=117
27667 Par ch=1 c=2 v=124
27672 Par ch=1 c=2 v=126
27692 Pb ch=1 v=755
27698 Pb ch=1 v=2289
27698 Par ch=1 c=2 v=123
27705 Pb ch=1 v=3511
27706 Par ch=1 c=2 v=118
27712 Pb ch=1 v=4967
27712 Par ch=1 c=2 v=112
27718 Pb ch=1 v=6059
27719 Par ch=1 c=2 v=103
27724 Pb ch=1 v=6787
27724 Par ch=1 c=2 v=96
27731 Pb ch=1 v=7567
27732 Par ch=1 c=2 v=86
27737 Pb ch=1 v=7983
27737 Par ch=1 c=2 v=76
27745 Pb ch=1 v=8192
27745 Par ch=1 c=2 v=65
27750 Par ch=1 c=2 v=54
27757 Par ch=1 c=2 v=48
27764 Par ch=1 c=2 v=42
27770 Par ch=1 c=2 v=35
27777 Par ch=1 c=2 v=28
27783 Par ch=1 c=2 v=19
27790 Par ch=1 c=2 v=13
27796 Par ch=1 c=2 v=7
27802 Par ch=1 c=2 v=1
27809 Par ch=1 c=2 v=0
27955 Off ch=1 n=45 v=0
27971 Pb ch=1 v=7099
27978 Pb ch=1 v=5539
27984 Pb ch=1 v=3485
27985 Off ch=1 n=50 v=0
27991 Pb ch=1 v=1223
27997 Pb ch=1 v=0
28017 Par ch=1 c=2 v=14
28023 Par ch=1 c=2 v=47
28028 On ch=1 n=50 v=114
28031 Par ch=1 c=2 v=80
28037 Par ch=1 c=2 v=103
28043 Par ch=1 c=2 v=114
28044 ChPr ch=1 v=26
28049 Par ch=1 c=2 v=116
28050 ChPr ch=1 v=32
28056 Par ch=1 c=2 v=114
28057 ChPr ch=1 v=7
28062 Pb ch=1 v=1093
28063 Par ch=1 c=2 v=103
28063 ChPr ch=1 v=0
28069 Pb ch=1 v=2705
28070 Par ch=1 c=2 v=91
28075 Pb ch=1 v=4473
28076 Par ch=1 c=2 v=73
28082 Pb ch=1 v=5929
28082 Par ch=1 c=2 v=49
28088 Pb ch=1 v=7385
28089 Par ch=1 c=2 v=15
28095 Pb ch=1 v=8192
28096 Par ch=1 c=2 v=0
28137 On ch=1 n=54 v=114
28139 On ch=1 n=50 v=0
28339 On ch=1 n=54 v=0
28416 Par ch=1 c=2 v=37
28416 Pb ch=1 v=0
28419 On ch=1 n=52 v=105
28420 On ch=1 n=45 v=105
28424 Par ch=1 c=2 v=56
28428 Par ch=1 c=2 v=76
28435 Par ch=1 c=2 v=100
28442 Par ch=1 c=2 v=105
28455 Pb ch=1 v=1119
28461 Pb ch=1 v=2497
28468 Pb ch=1 v=4005
28468 Par ch=1 c=2 v=99
28475 Pb ch=1 v=5175
28475 Par ch=1 c=2 v=90
28481 Pb ch=1 v=6371
28482 Par ch=1 c=2 v=78
28488 Pb ch=1 v=7359
28488 Par ch=1 c=2 v=65
28494 Pb ch=1 v=8061
28495 Par ch=1 c=2 v=50
28501 Pb ch=1 v=8192
28501 Par ch=1 c=2 v=37
28507 Par ch=1 c=2 v=23
28514 Par ch=1 c=2 v=10
28520 Par ch=1 c=2 v=0
28714 Off ch=1 n=45 v=0
28733 Off ch=1 n=52 v=0
28754 Pb ch=1 v=6605
28761 Pb ch=1 v=4369
28767 Pb ch=1 v=1717
28774 Pb ch=1 v=0
28782 On ch=1 n=52 v=114
28787 Par ch=1 c=2 v=16
28793 Par ch=1 c=2 v=46
28803 Par ch=1 c=2 v=78
28803 ChPr ch=1 v=13
28806 Par ch=1 c=2 v=103
28807 ChPr ch=1 v=11
28813 Par ch=1 c=2 v=120
28813 ChPr ch=1 v=0
28819 Par ch=1 c=2 v=127
28825 Pb ch=1 v=209
28832 Pb ch=1 v=1925
28833 Par ch=1 c=2 v=122
28838 Pb ch=1 v=4109
28839 Par ch=1 c=2 v=106
28845 Pb ch=1 v=6319
28846 Par ch=1 c=2 v=86
28851 Pb ch=1 v=8087
28852 Par ch=1 c=2 v=66
28858 Pb ch=1 v=8192
28859 Par ch=1 c=2 v=41
28865 Par ch=1 c=2 v=12
28871 Par ch=1 c=2 v=0
28897 On ch=1 n=57 v=105
28903 On ch=1 n=52 v=0
28992 On ch=1 n=52 v=114
28997 On ch=1 n=57 v=0
29008 ChPr ch=1 v=13
29015 ChPr ch=1 v=16
29022 ChPr ch=1 v=6
29029 ChPr ch=1 v=0
29048 ChPr ch=1 v=8
29054 ChPr ch=1 v=17
29061 ChPr ch=1 v=23
29067 ChPr ch=1 v=40
29074 ChPr ch=1 v=45
29080 ChPr ch=1 v=67
29087 ChPr ch=1 v=127
29126 ChPr ch=1 v=3
29132 ChPr ch=1 v=0
29144 Off ch=1 n=52 v=0
29184 Par ch=1 c=2 v=38
29184 Pb ch=1 v=0
29191 Par ch=1 c=2 v=60
29191 On ch=1 n=42 v=114
29191 On ch=1 n=47 v=105
29195 Par ch=1 c=2 v=83
29201 Par ch=1 c=2 v=100
29208 Par ch=1 c=2 v=113
29214 Par ch=1 c=2 v=120
29221 Par ch=1 c=2 v=123
29227 Pb ch=1 v=1171
29228 Par ch=1 c=2 v=126
29233 Pb ch=1 v=2809
29240 Pb ch=1 v=4603
29247 Pb ch=1 v=6371
29247 Par ch=1 c=2 v=121
29253 Pb ch=1 v=7671
29253 Par ch=1 c=2 v=113
29260 Pb ch=1 v=8192
29260 Par ch=1 c=2 v=102
29266 Par ch=1 c=2 v=91
29272 Par ch=1 c=2 v=74
29279 Par ch=1 c=2 v=51
29286 Par ch=1 c=2 v=27
29292 Par ch=1 c=2 v=2
29298 Par ch=1 c=2 v=0
29462 Off ch=1 n=42 v=0
29483 Off ch=1 n=47 v=0
29508 Pb ch=1 v=7567
29515 Pb ch=1 v=5825
29521 Pb ch=1 v=3719
29528 Pb ch=1 v=1431
29534 Pb ch=1 v=0
29547 Par ch=1 c=2 v=20
29552 On ch=1 n=47 v=105
29554 Par ch=1 c=2 v=49
29559 Par ch=1 c=2 v=83
29567 Par ch=1 c=2 v=109
29573 Par ch=1 c=2 v=126
29579 Pb ch=1 v=1015
29580 Par ch=1 c=2 v=127
29585 Pb ch=1 v=2939
29592 Pb ch=1 v=4967
29598 Pb ch=1 v=6839
29599 Par ch=1 c=2 v=111
29605 Pb ch=1 v=8192
29606 Par ch=1 c=2 v=87
29612 Par ch=1 c=2 v=56
29618 Par ch=1 c=2 v=23
29624 Par ch=1 c=2 v=0
29654 On ch=1 n=50 v=102
29662 On ch=1 n=47 v=0
29739 On ch=1 n=42 v=108
29744 On ch=1 n=50 v=0
29835 On ch=1 n=42 v=0
29843 On ch=1 n=38 v=111
29860 ChPr ch=1 v=5
29867 ChPr ch=1 v=127
29880 ChPr ch=1 v=3
29886 ChPr ch=1 v=0
29941 Off ch=1 n=38 v=0
29952 On ch=1 n=43 v=114
29976 On ch=1 n=43 v=0
29998 On ch=1 n=43 v=108
30007 ChPr ch=1 v=47
30013 ChPr ch=1 v=127
30019 ChPr ch=1 v=28
30026 ChPr ch=1 v=0
30032 Off ch=1 n=43 v=0
30101 On ch=1 n=43 v=114
30111 ChPr ch=1 v=127
30130 ChPr ch=1 v=21
30137 ChPr ch=1 v=0
30144 ChPr ch=1 v=4
30149 ChPr ch=1 v=10
30156 ChPr ch=1 v=5
30163 ChPr ch=1 v=0
30184 Off ch=1 n=43 v=0
30279 Pb ch=1 v=6579
30285 Pb ch=1 v=3875
30291 Pb ch=1 v=1093
30298 Pb ch=1 v=0
30299 Par ch=1 c=2 v=2
30304 Par ch=1 c=2 v=24
30311 Par ch=1 c=2 v=51
30318 Par ch=1 c=2 v=83
30324 Par ch=1 c=2 v=112
30330 Par ch=1 c=2 v=127
30336 On ch=1 n=38 v=114
30350 Pb ch=1 v=1015
30357 Pb ch=1 v=3095
30357 ChPr ch=1 v=40
30363 Pb ch=1 v=5123
30363 Par ch=1 c=2 v=107
30365 ChPr ch=1 v=4
30370 Pb ch=1 v=6995
30370 Par ch=1 c=2 v=83
30371 ChPr ch=1 v=0
30377 Pb ch=1 v=8192
30377 Par ch=1 c=2 v=53
30383 Par ch=1 c=2 v=23
30390 Par ch=1 c=2 v=0
30428 On ch=1 n=43 v=111
30429 On ch=1 n=38 v=0
30523 On ch=1 n=38 v=117
30535 On ch=1 n=43 v=0
30606 On ch=1 n=38 v=0
30612 On ch=1 n=33 v=114
30626 ChPr ch=1 v=127
30639 ChPr ch=1 v=112
30645 ChPr ch=1 v=3
30651 ChPr ch=1 v=0
30665 ChPr ch=1 v=6
30671 ChPr ch=1 v=4
30677 ChPr ch=1 v=0
30699 Off ch=1 n=33 v=0
43008 Par ch=1 c=2 v=86
43008 On ch=1 n=50 v=105
43008 On ch=1 n=45 v=108
43008 Pb ch=1 v=0
43014 Par ch=1 c=2 v=104
43019 Par ch=1 c=2 v=117
43027 Par ch=1 c=2 v=124
43032 Par ch=1 c=2 v=126
43052 Pb ch=1 v=755
43058 Pb ch=1 v=2289
43058 Par ch=1 c=2 v=123
43065 Pb ch=1 v=3511
43066 Par ch=1 c=2 v=118
43072 Pb ch=1 v=4967
43072 Par ch=1 c=2 v=112
43078 Pb ch=1 v=6059
43079 Par ch=1 c=2 v=103
43084 Pb ch=1 v=6787
43084 Par ch=1 c=2 v=96
43091 Pb ch=1 v=7567
43092 Par ch=1 c=2 v=86
43097 Pb ch=1 v=7983
43097 Par ch=1 c=2 v=76
43105 Pb ch=1 v=8192
43105 Par ch=1 c=2 v=65
43110 Par ch=1 c=2 v=54
43117 Par ch=1 c=2 v=48
43124 Par ch=1 c=2 v=42
43130 Par ch=1 c=2 v=35
43137 Par ch=1 c=2 v=28
43143 Par ch=1 c=2 v=19
43150 Par ch=1 c=2 v=13
43156 Par ch=1 c=2 v=7
43162 Par ch=1 c=2 v=1
43169 Par ch=1 c=2 v=0
43315 Off ch=1 n=45 v=0
43331 Pb ch=1 v=7099
43338 Pb ch=1 v=5539
43344 Pb ch=1 v=3485
43345 Off ch=1 n=50 v=0
43351 Pb ch=1 v=1223
43357 Pb ch=1 v=0
43377 Par ch=1 c=2 v=14
43383 Par ch=1 c=2 v=47
43388 On ch=1 n=50 v=114
43391 Par ch=1 c=2 v=80
43397 Par ch=1 c=2 v=103
43403 Par ch=1 c=2 v=114
43404 ChPr ch=1 v=26
43409 Par ch=1 c=2 v=116
43410 ChPr ch=1 v=32
43416 Par ch=1 c=2 v=114
43417 ChPr ch=1 v=7
43422 Pb ch=1 v=1093
43423 Par ch=1 c=2 v=103
43423 ChPr ch=1 v=0
43429 Pb ch=1 v=2705
43430 Par ch=1 c=2 v=91
43435 Pb ch=1 v=4473
43436 Par ch=1 c=2 v=73
43442 Pb ch=1 v=5929
43442 Par ch=1 c=2 v=49
43448 Pb ch=1 v=7385
43449 Par ch=1 c=2 v=15
43455 Pb ch=1 v=8192
43456 Par ch=1 c=2 v=0
43497 On ch=1 n=54 v=114
43499 On ch=1 n=50 v=0
43699 On ch=1 n=54 v=0
43776 Par ch=1 c=2 v=37
43776 Pb ch=1 v=0
43779 On ch=1 n=52 v=105
43780 On ch=1 n=45 v=105
43784 Par ch=1 c=2 v=56
43788 Par ch=1 c=2 v=76
43795 Par ch=1 c=2 v=100
43802 Par ch=1 c=2 v=105
43815 Pb ch=1 v=1119
43821 Pb ch=1 v=2497
43828 Pb ch=1 v=4005
43828 Par ch=1 c=2 v=99
43835 Pb ch=1 v=5175
43835 Par ch=1 c=2 v=90
43841 Pb ch=1 v=6371
43842 Par ch=1 c=2 v=78
43848 Pb ch=1 v=7359
43848 Par ch=1 c=2 v=65
43854 Pb ch=1 v=8061
43855 Par ch=1 c=2 v=50
43861 Pb ch=1 v=8192
43861 Par ch=1 c=2 v=37
43867 Par ch=1 c=2 v=23
43874 Par ch=1 c=2 v=10
43880 Par ch=1 c=2 v=0
44074 Off ch=1 n=45 v=0
44093 Off ch=1 n=52 v=0
44114 Pb ch=1 v=6605
44121 Pb ch=1 v=4369
44127 Pb ch=1 v=1717
44134 Pb ch=1 v=0
44142 On ch=1 n=52 v=114
44147 Par ch=1 c=2 v=16
44153 Par ch=1 c=2 v=46
44163 Par ch=1 c=2 v=78
44163 ChPr ch=1 v=13
44166 Par ch=1 c=2 v=103
44167 ChPr ch=1 v=11
44173 Par ch=1 c=2 v=120
44173 ChPr ch=1 v=0
44179 Par ch=1 c=2 v=127
44185 Pb ch=1 v=209
44192 Pb ch=1 v=1925
44193 Par ch=1 c=2 v=122
44198 Pb ch=1 v=4109
44199 Par ch=1 c=2 v=106
44205 Pb ch=1 v=6319
44206 Par ch=1 c=2 v=86
44211 Pb ch=1 v=8087
44212 Par ch=1 c=2 v=66
44218 Pb ch=1 v=8192
44219 Par ch=1 c=2 v=41
44225 Par ch=1 c=2 v=12
44231 Par ch=1 c=2 v=0
44257 On ch=1 n=57 v=105
44263 On ch=1 n=52 v=0
44352 On ch=1 n=52 v=114
44357 On ch=1 n=57 v=0
44368 ChPr ch=1 v=13
44375 ChPr ch=1 v=16
44382 ChPr ch=1 v=6
44389 ChPr ch=1 v=0
44408 ChPr ch=1 v=8
44414 ChPr ch=1 v=17
44421 ChPr ch=1 v=23
44427 ChPr ch=1 v=40
44434 ChPr ch=1 v=45
44440 ChPr ch=1 v=67
44447 ChPr ch=1 v=127
44486 ChPr ch=1 v=3
44492 ChPr ch=1 v=0
44504 Off ch=1 n=52 v=0
44544 Par ch=1 c=2 v=38
44544 Pb ch=1 v=0
44551 Par ch=1 c=2 v=60
44551 On ch=1 n=42 v=114
44551 On ch=1 n=47 v=105
44555 Par ch=1 c=2 v=83
44561 Par ch=1 c=2 v=100
44568 Par ch=1 c=2 v=113
44574 Par ch=1 c=2 v=120
44581 Par ch=1 c=2 v=123
44587 Pb ch=1 v=1171
44588 Par ch=1 c=2 v=126
44593 Pb ch=1 v=2809
44600 Pb ch=1 v=4603
44607 Pb ch=1 v=6371
44607 Par ch=1 c=2 v=121
44613 Pb ch=1 v=7671
44613 Par ch=1 c=2 v=113
44620 Pb ch=1 v=8192
44620 Par ch=1 c=2 v=102
44626 Par ch=1 c=2 v=91
44632 Par ch=1 c=2 v=74
44639 Par ch=1 c=2 v=51
44646 Par ch=1 c=2 v=27
44652 Par ch=1 c=2 v=2
44658 Par ch=1 c=2 v=0
44822 Off ch=1 n=42 v=0
44843 Off ch=1 n=47 v=0
44868 Pb ch=1 v=7567
44875 Pb ch=1 v=5825
44881 Pb ch=1 v=3719
44888 Pb ch=1 v=1431
44894 Pb ch=1 v=0
44907 Par ch=1 c=2 v=20
44912 On ch=1 n=47 v=105
44914 Par ch=1 c=2 v=49
44919 Par ch=1 c=2 v=83
44927 Par ch=1 c=2 v=109
44933 Par ch=1 c=2 v=126
44939 Pb ch=1 v=1015
44940 Par ch=1 c=2 v=127
44945 Pb ch=1 v=2939
44952 Pb ch=1 v=4967
44958 Pb ch=1 v=6839
44959 Par ch=1 c=2 v=111
44965 Pb ch=1 v=8192
44966 Par ch=1 c=2 v=87
44972 Par ch=1 c=2 v=56
44978 Par ch=1 c=2 v=23
44984 Par ch=1 c=2 v=0
45014 On ch=1 n=50 v=102
45022 On ch=1 n=47 v=0
45099 On ch=1 n=42 v=108
45104 On ch=1 n=50 v=0
45195 On ch=1 n=42 v=0
45203 On ch=1 n=38 v=111
45220 ChPr ch=1 v=5
45227 ChPr ch=1 v=127
45240 ChPr ch=1 v=3
45246 ChPr ch=1 v=0
45301 Off ch=1 n=38 v=0
45312 On ch=1 n=43 v=114
45336 On ch=1 n=43 v=0
45358 On ch=1 n=43 v=108
45367 ChPr ch=1 v=47
45373 ChPr ch=1 v=127
45379 ChPr ch=1 v=28
45386 ChPr ch=1 v=0
45392 Off ch=1 n=43 v=0
45461 On ch=1 n=43 v=114
45471 ChPr ch=1 v=127
45490 ChPr ch=1 v=21
45497 ChPr ch=1 v=0
45504 ChPr ch=1 v=4
45509 ChPr ch=1 v=10
45516 ChPr ch=1 v=5
45523 ChPr ch=1 v=0
45544 Off ch=1 n=43 v=0
45639 Pb ch=1 v=6579
45645 Pb ch=1 v=3875
45651 Pb ch=1 v=1093
45658 Pb ch=1 v=0
45659 Par ch=1 c=2 v=2
45664 Par ch=1 c=2 v=24
45671 Par ch=1 c=2 v=51
45678 Par ch=1 c=2 v=83
45684 Par ch=1 c=2 v=112
45690 Par ch=1 c=2 v=127
45696 On ch=1 n=38 v=114
45710 Pb ch=1 v=1015
45717 Pb ch=1 v=3095
45717 ChPr ch=1 v=40
45723 Pb ch=1 v=5123
45723 Par ch=1 c=2 v=107
45725 ChPr ch=1 v=4
45730 Pb ch=1 v=6995
45730 Par ch=1 c=2 v=83
45731 ChPr ch=1 v=0
45737 Pb ch=1 v=8192
45737 Par ch=1 c=2 v=53
45743 Par ch=1 c=2 v=23
45750 Par ch=1 c=2 v=0
45788 On ch=1 n=43 v=111
45789 On ch=1 n=38 v=0
45883 On ch=1 n=38 v=117
45895 On ch=1 n=43 v=0
45966 On ch=1 n=38 v=0
45972 On ch=1 n=33 v=114
45986 ChPr ch=1 v=127
45999 ChPr ch=1 v=112
46005 ChPr ch=1 v=3
46011 ChPr ch=1 v=0
46025 ChPr ch=1 v=6
46031 ChPr ch=1 v=4
46037 ChPr ch=1 v=0
46059 Off ch=1 n=33 v=0
46080 Par ch=1 c=2 v=86
46080 On ch=1 n=50 v=105
46080 On ch=1 n=45 v=108
46080 Pb ch=1 v=0
46086 Par ch=1 c=2 v=104
46091 Par ch=1 c=2 v=117
46099 Par ch=1 c=2 v=124
46104 Par ch=1 c=2 v=126
46124 Pb ch=1 v=755
46130 Pb ch=1 v=2289
46130 Par ch=1 c=2 v=123
46137 Pb ch=1 v=3511
46138 Par ch=1 c=2 v=118
46144 Pb ch=1 v=4967
46144 Par ch=1 c=2 v=112
46150 Pb ch=1 v=6059
46151 Par ch=1 c=2 v=103
46156 Pb ch=1 v=6787
46156 Par ch=1 c=2 v=96
46163 Pb ch=1 v=7567
46164 Par ch=1 c=2 v=86
46169 Pb ch=1 v=7983
46169 Par ch=1 c=2 v=76
46177 Pb ch=1 v=8192
46177 Par ch=1 c=2 v=65
46182 Par ch=1 c=2 v=54
46189 Par ch=1 c=2 v=48
46196 Par ch=1 c=2 v=42
46202 Par ch=1 c=2 v=35
46209 Par ch=1 c=2 v=28
46215 Par ch=1 c=2 v=19
46222 Par ch=1 c=2 v=13
46228 Par ch=1 c=2 v=7
46234 Par ch=1 c=2 v=1
46241 Par ch=1 c=2 v=0
46387 Off ch=1 n=45 v=0
46403 Pb ch=1 v=7099
46410 Pb ch=1 v=5539
46416 Pb ch=1 v=3485
46417 Off ch=1 n=50 v=0
46423 Pb ch=1 v=1223
46429 Pb ch=1 v=0
46449 Par ch=1 c=2 v=14
46455 Par ch=1 c=2 v=47
46460 On ch=1 n=50 v=114
46463 Par ch=1 c=2 v=80
46469 Par ch=1 c=2 v=103
46475 Par ch=1 c=2 v=114
46476 ChPr ch=1 v=26
46481 Par ch=1 c=2 v=116
46482 ChPr ch=1 v=32
46488 Par ch=1 c=2 v=114
46489 ChPr ch=1 v=7
46494 Pb ch=1 v=1093
46495 Par ch=1 c=2 v=103
46495 ChPr ch=1 v=0
46501 Pb ch=1 v=2705
46502 Par ch=1 c=2 v=91
46507 Pb ch=1 v=4473
46508 Par ch=1 c=2 v=73
46514 Pb ch=1 v=5929
46514 Par ch=1 c=2 v=49
46520 Pb ch=1 v=7385
46521 Par ch=1 c=2 v=15
46527 Pb ch=1 v=8192
46528 Par ch=1 c=2 v=0
46569 On ch=1 n=54 v=114
46571 On ch=1 n=50 v=0
46771 On ch=1 n=54 v=0
46848 Par ch=1 c=2 v=37
46848 Pb ch=1 v=0
46851 On ch=1 n=52 v=105
46852 On ch=1 n=45 v=105
46856 Par ch=1 c=2 v=56
46860 Par ch=1 c=2 v=76
46867 Par ch=1 c=2 v=100
46874 Par ch=1 c=2 v=105
46887 Pb ch=1 v=1119
46893 Pb ch=1 v=2497
46900 Pb ch=1 v=4005
46900 Par ch=1 c=2 v=99
46907 Pb ch=1 v=5175
46907 Par ch=1 c=2 v=90
46913 Pb ch=1 v=6371
46914 Par ch=1 c=2 v=78
46920 Pb ch=1 v=7359
46920 Par ch=1 c=2 v=65
46926 Pb ch=1 v=8061
46927 Par ch=1 c=2 v=50
46933 Pb ch=1 v=8192
46933 Par ch=1 c=2 v=37
46939 Par ch=1 c=2 v=23
46946 Par ch=1 c=2 v=10
46952 Par ch=1 c=2 v=0
47146 Off ch=1 n=45 v=0
47165 Off ch=1 n=52 v=0
47186 Pb ch=1 v=6605
47193 Pb ch=1 v=4369
47199 Pb ch=1 v=1717
47206 Pb ch=1 v=0
47214 On ch=1 n=52 v=114
47219 Par ch=1 c=2 v=16
47225 Par ch=1 c=2 v=46
47235 Par ch=1 c=2 v=78
47235 ChPr ch=1 v=13
47238 Par ch=1 c=2 v=103
47239 ChPr ch=1 v=11
47245 Par ch=1 c=2 v=120
47245 ChPr ch=1 v=0
47251 Par ch=1 c=2 v=127
47257 Pb ch=1 v=209
47264 Pb ch=1 v=1925
47265 Par ch=1 c=2 v=122
47270 Pb ch=1 v=4109
47271 Par ch=1 c=2 v=106
47277 Pb ch=1 v=6319
47278 Par ch=1 c=2 v=86
47283 Pb ch=1 v=8087
47284 Par ch=1 c=2 v=66
47290 Pb ch=1 v=8192
47291 Par ch=1 c=2 v=41
47297 Par ch=1 c=2 v=12
47303 Par ch=1 c=2 v=0
47329 On ch=1 n=57 v=105
47335 On ch=1 n=52 v=0
47424 On ch=1 n=52 v=114
47429 On ch=1 n=57 v=0
47440 ChPr ch=1 v=13
47447 ChPr ch=1 v=16
47454 ChPr ch=1 v=6
47461 ChPr ch=1 v=0
47480 ChPr ch=1 v=8
47486 ChPr ch=1 v=17
47493 ChPr ch=1 v=23
47499 ChPr ch=1 v=40
47506 ChPr ch=1 v=45
47512 ChPr ch=1 v=67
47519 ChPr ch=1 v=127
47558 ChPr ch=1 v=3
47564 ChPr ch=1 v=0
47576 Off ch=1 n=52 v=0
47616 Par ch=1 c=2 v=38
47616 Pb ch=1 v=0
47623 Par ch=1 c=2 v=60
47623 On ch=1 n=42 v=114
47623 On ch=1 n=47 v=105
47627 Par ch=1 c=2 v=83
47633 Par ch=1 c=2 v=100
47640 Par ch=1 c=2 v=113
47646 Par ch=1 c=2 v=120
47653 Par ch=1 c=2 v=123
47659 Pb ch=1 v=1171
47660 Par ch=1 c=2 v=126
47665 Pb ch=1 v=2809
47672 Pb ch=1 v=4603
47679 Pb ch=1 v=6371
47679 Par ch=1 c=2 v=121
47685 Pb ch=1 v=7671
47685 Par ch=1 c=2 v=113
47692 Pb ch=1 v=8192
47692 Par ch=1 c=2 v=102
47698 Par ch=1 c=2 v=91
47704 Par ch=1 c=2 v=74
47711 Par ch=1 c=2 v=51
47718 Par ch=1 c=2 v=27
47724 Par ch=1 c=2 v=2
47730 Par ch=1 c=2 v=0
47894 Off ch=1 n=42 v=0
47915 Off ch=1 n=47 v=0
47940 Pb ch=1 v=7567
47947 Pb ch=1 v=5825
47953 Pb ch=1 v=3719
47960 Pb ch=1 v=1431
47966 Pb ch=1 v=0
47979 Par ch=1 c=2 v=20
47984 On ch=1 n=47 v=105
47986 Par ch=1 c=2 v=49
47991 Par ch=1 c=2 v=83
47999 Par ch=1 c=2 v=109
48005 Par ch=1 c=2 v=126
48011 Pb ch=1 v=1015
48012 Par ch=1 c=2 v=127
48017 Pb ch=1 v=2939
48024 Pb ch=1 v=4967
48030 Pb ch=1 v=6839
48031 Par ch=1 c=2 v=111
48037 Pb ch=1 v=8192
48038 Par ch=1 c=2 v=87
48044 Par ch=1 c=2 v=56
48050 Par ch=1 c=2 v=23
48056 Par ch=1 c=2 v=0
48086 On ch=1 n=50 v=102
48094 On ch=1 n=47 v=0
48171 On ch=1 n=42 v=108
48176 On ch=1 n=50 v=0
48267 On ch=1 n=42 v=0
48275 On ch=1 n=38 v=111
48292 ChPr ch=1 v=5
48299 ChPr ch=1 v=127
48312 ChPr ch=1 v=3
48318 ChPr ch=1 v=0
48373 Off ch=1 n=38 v=0
61440 Par ch=1 c=2 v=86
61440 On ch=1 n=50 v=105
61440 On ch=1 n=45 v=108
61440 Pb ch=1 v=0
61446 Par ch=1 c=2 v=104
61451 Par ch=1 c=2 v=117
61459 Par ch=1 c=2 v=124
61464 Par ch=1 c=2 v=126
61484 Pb ch=1 v=755
61490 Pb ch=1 v=2289
61490 Par ch=1 c=2 v=123
61497 Pb ch=1 v=3511
61498 Par ch=1 c=2 v=118
61504 Pb ch=1 v=4967
61504 Par ch=1 c=2 v=112
61510 Pb ch=1 v=6059
61511 Par ch=1 c=2 v=103
61516 Pb ch=1 v=6787
61516 Par ch=1 c=2 v=96
61523 Pb ch=1 v=7567
61524 Par ch=1 c=2 v=86
61529 Pb ch=1 v=7983
61529 Par ch=1 c=2 v=76
61537 Pb ch=1 v=8192
61537 Par ch=1 c=2 v=65
61542 Par ch=1 c=2 v=54
61549 Par ch=1 c=2 v=48
61556 Par ch=1 c=2 v=42
61562 Par ch=1 c=2 v=35
61569 Par ch=1 c=2 v=28
61575 Par ch=1 c=2 v=19
61582 Par ch=1 c=2 v=13
61588 Par ch=1 c=2 v=7
61594 Par ch=1 c=2 v=1
61601 Par ch=1 c=2 v=0
61747 Off ch=1 n=45 v=0
61763 Pb ch=1 v=7099
61770 Pb ch=1 v=5539
61776 Pb ch=1 v=3485
61777 Off ch=1 n=50 v=0
61783 Pb ch=1 v=1223
61789 Pb ch=1 v=0
61809 Par ch=1 c=2 v=14
61815 Par ch=1 c=2 v=47
61820 On ch=1 n=50 v=114
61823 Par ch=1 c=2 v=80
61829 Par ch=1 c=2 v=103
61835 Par ch=1 c=2 v=114
61836 ChPr ch=1 v=26
61841 Par ch=1 c=2 v=116
61842 ChPr ch=1 v=32
61848 Par ch=1 c=2 v=114
61849 ChPr ch=1 v=7
61854 Pb ch=1 v=1093
61855 Par ch=1 c=2 v=103
61855 ChPr ch=1 v=0
61861 Pb ch=1 v=2705
61862 Par ch=1 c=2 v=91
61867 Pb ch=1 v=4473
61868 Par ch=1 c=2 v=73
61874 Pb ch=1 v=5929
61874 Par ch=1 c=2 v=49
61880 Pb ch=1 v=7385
61881 Par ch=1 c=2 v=15
61887 Pb ch=1 v=8192
61888 Par ch=1 c=2 v=0
61929 On ch=1 n=54 v=114
61931 On ch=1 n=50 v=0
62131 On ch=1 n=54 v=0
62208 Par ch=1 c=2 v=37
62208 Pb ch=1 v=0
62211 On ch=1 n=52 v=105
62212 On ch=1 n=45 v=105
62216 Par ch=1 c=2 v=56
62220 Par ch=1 c=2 v=76
62227 Par ch=1 c=2 v=100
62234 Par ch=1 c=2 v=105
62247 Pb ch=1 v=1119
62253 Pb ch=1 v=2497
62260 Pb ch=1 v=4005
62260 Par ch=1 c=2 v=99
62267 Pb ch=1 v=5175
62267 Par ch=1 c=2 v=90
62273 Pb ch=1 v=6371
62274 Par ch=1 c=2 v=78
62280 Pb ch=1 v=7359
62280 Par ch=1 c=2 v=65
62286 Pb ch=1 v=8061
62287 Par ch=1 c=2 v=50
62293 Pb ch=1 v=8192
62293 Par ch=1 c=2 v=37
62299 Par ch=1 c=2 v=23
62306 Par ch=1 c=2 v=10
62312 Par ch=1 c=2 v=0
62506 Off ch=1 n=45 v=0
62525 Off ch=1 n=52 v=0
62546 Pb ch=1 v=6605
62553 Pb ch=1 v=4369
62559 Pb ch=1 v=1717
62566 Pb ch=1 v=0
62574 On ch=1 n=52 v=114
62579 Par ch=1 c=2 v=16
62585 Par ch=1 c=2 v=46
62595 Par ch=1 c=2 v=78
62595 ChPr ch=1 v=13
62598 Par ch=1 c=2 v=103
62599 ChPr ch=1 v=11
62605 Par ch=1 c=2 v=120
62605 ChPr ch=1 v=0
62611 Par ch=1 c=2 v=127
62617 Pb ch=1 v=209
62624 Pb ch=1 v=1925
62625 Par ch=1 c=2 v=122
62630 Pb ch=1 v=4109
62631 Par ch=1 c=2 v=106
62637 Pb ch=1 v=6319
62638 Par ch=1 c=2 v=86
62643 Pb ch=1 v=8087
62644 Par ch=1 c=2 v=66
62650 Pb ch=1 v=8192
62651 Par ch=1 c=2 v=41
62657 Par ch=1 c=2 v=12
62663 Par ch=1 c=2 v=0
62689 On ch=1 n=57 v=105
62695 On ch=1 n=52 v=0
62784 On ch=1 n=52 v=114
62789 On ch=1 n=57 v=0
62800 ChPr ch=1 v=13
62807 ChPr ch=1 v=16
62814 ChPr ch=1 v=6
62821 ChPr ch=1 v=0
62840 ChPr ch=1 v=8
62846 ChPr ch=1 v=17
62853 ChPr ch=1 v=23
62859 ChPr ch=1 v=40
62866 ChPr ch=1 v=45
62872 ChPr ch=1 v=67
62879 ChPr ch=1 v=127
62918 ChPr ch=1 v=3
62924 ChPr ch=1 v=0
62936 Off ch=1 n=52 v=0
62976 Par ch=1 c=2 v=38
62976 Pb ch=1 v=0
62983 Par ch=1 c=2 v=60
62983 On ch=1 n=42 v=114
62983 On ch=1 n=47 v=105
62987 Par ch=1 c=2 v=83
62993 Par ch=1 c=2 v=100
63000 Par ch=1 c=2 v=113
63006 Par ch=1 c=2 v=120
63013 Par ch=1 c=2 v=123
63019 Pb ch=1 v=1171
63020 Par ch=1 c=2 v=126
63025 Pb ch=1 v=2809
63032 Pb ch=1 v=4603
63039 Pb ch=1 v=6371
63039 Par ch=1 c=2 v=121
63045 Pb ch=1 v=7671
63045 Par ch=1 c=2 v=113
63052 Pb ch=1 v=8192
63052 Par ch=1 c=2 v=102
63058 Par ch=1 c=2 v=91
63064 Par ch=1 c=2 v=74
63071 Par ch=1 c=2 v=51
63078 Par ch=1 c=2 v=27
63084 Par ch=1 c=2 v=2
63090 Par ch=1 c=2 v=0
63254 Off ch=1 n=42 v=0
63275 Off ch=1 n=47 v=0
63300 Pb ch=1 v=7567
63307 Pb ch=1 v=5825
63313 Pb ch=1 v=3719
63320 Pb ch=1 v=1431
63326 Pb ch=1 v=0
63339 Par ch=1 c=2 v=20
63344 On ch=1 n=47 v=105
63346 Par ch=1 c=2 v=49
63351 Par ch=1 c=2 v=83
63359 Par ch=1 c=2 v=109
63365 Par ch=1 c=2 v=126
63371 Pb ch=1 v=1015
63372 Par ch=1 c=2 v=127
63377 Pb ch=1 v=2939
63384 Pb ch=1 v=4967
63390 Pb ch=1 v=6839
63391 Par ch=1 c=2 v=111
63397 Pb ch=1 v=8192
63398 Par ch=1 c=2 v=87
63404 Par ch=1 c=2 v=56
63410 Par ch=1 c=2 v=23
63416 Par ch=1 c=2 v=0
63446 On ch=1 n=50 v=102
63454 On ch=1 n=47 v=0
63531 On ch=1 n=42 v=108
63536 On ch=1 n=50 v=0
63627 On ch=1 n=42 v=0
63635 On ch=1 n=38 v=111
63652 ChPr ch=1 v=5
63659 ChPr ch=1 v=127
63672 ChPr ch=1 v=3
63678 ChPr ch=1 v=0
63733 Off ch=1 n=38 v=0
63744 On ch=1 n=43 v=114
63768 On ch=1 n=43 v=0
63790 On ch=1 n=43 v=108
63799 ChPr ch=1 v=47
63805 ChPr ch=1 v=127
63811 ChPr ch=1 v=28
63818 ChPr ch=1 v=0
63824 Off ch=1 n=43 v=0
63893 On ch=1 n=43 v=114
63903 ChPr ch=1 v=127
63922 ChPr ch=1 v=21
63929 ChPr ch=1 v=0
63936 ChPr ch=1 v=4
63941 ChPr ch=1 v=10
63948 ChPr ch=1 v=5
63955 ChPr ch=1 v=0
63976 Off ch=1 n=43 v=0
64071 Pb ch=1 v=6579
64077 Pb ch=1 v=3875
64083 Pb ch=1 v=1093
64090 Pb ch=1 v=0
64091 Par ch=1 c=2 v=2
64096 Par ch=1 c=2 v=24
64103 Par ch=1 c=2 v=51
64110 Par ch=1 c=2 v=83
64116 Par ch=1 c=2 v=112
64122 Par ch=1 c=2 v=127
64128 On ch=1 n=38 v=114
64142 Pb ch=1 v=1015
64149 Pb ch=1 v=3095
64149 ChPr ch=1 v=40
64155 Pb ch=1 v=5123
64155 Par ch=1 c=2 v=107
64157 ChPr ch=1 v=4
64162 Pb ch=1 v=6995
64162 Par ch=1 c=2 v=83
64163 ChPr ch=1 v=0
64169 Pb ch=1 v=8192
64169 Par ch=1 c=2 v=53
64175 Par ch=1 c=2 v=23
64182 Par ch=1 c=2 v=0
64220 On ch=1 n=43 v=111
64221 On ch=1 n=38 v=0
64315 On ch=1 n=38 v=117
64327 On ch=1 n=43 v=0
64398 On ch=1 n=38 v=0
64404 On ch=1 n=33 v=114
64418 ChPr ch=1 v=127
64431 ChPr ch=1 v=112
64437 ChPr ch=1 v=3
64443 ChPr ch=1 v=0
64457 ChPr ch=1 v=6
64463 ChPr ch=1 v=4
64469 ChPr ch=1 v=0
64491 Off ch=1 n=33 v=0
64512 Par ch=1 c=2 v=86
64512 On ch=1 n=50 v=105
64512 On ch=1 n=45 v=108
64512 Pb ch=1 v=0
64518 Par ch=1 c=2 v=104
64523 Par ch=1 c=2 v=117
64531 Par ch=1 c=2 v=124
64536 Par ch=1 c=2 v=126
64556 Pb ch=1 v=755
64562 Pb ch=1 v=2289
64562 Par ch=1 c=2 v=123
64569 Pb ch=1 v=3511
64570 Par ch=1 c=2 v=118
64576 Pb ch=1 v=4967
64576 Par ch=1 c=2 v=112
64582 Pb ch=1 v=6059
64583 Par ch=1 c=2 v=103
64588 Pb ch=1 v=6787
64588 Par ch=1 c=2 v=96
64595 Pb ch=1 v=7567
64596 Par ch=1 c=2 v=86
64601 Pb ch=1 v=7983
64601 Par ch=1 c=2 v=76
64609 Pb ch=1 v=8192
64609 Par ch=1 c=2 v=65
64614 Par ch=1 c=2 v=54
64621 Par ch=1 c=2 v=48
64628 Par ch=1 c=2 v=42
64634 Par ch=1 c=2 v=35
64641 Par ch=1 c=2 v=28
64647 Par ch=1 c=2 v=19
64654 Par ch=1 c=2 v=13
64660 Par ch=1 c=2 v=7
64666 Par ch=1 c=2 v=1
64673 Par ch=1 c=2 v=0
64819 Off ch=1 n=45 v=0
64835 Pb ch=1 v=7099
64842 Pb ch=1 v=5539
64848 Pb ch=1 v=3485
64849 Off ch=1 n=50 v=0
64855 Pb ch=1 v=1223
64861 Pb ch=1 v=0
64881 Par ch=1 c=2 v=14
64887 Par ch=1 c=2 v=47
64892 On ch=1 n=50 v=114
64895 Par ch=1 c=2 v=80
64901 Par ch=1 c=2 v=103
64907 Par ch=1 c=2 v=114
64908 ChPr ch=1 v=26
64913 Par ch=1 c=2 v=116
64914 ChPr ch=1 v=32
64920 Par ch=1 c=2 v=114
64921 ChPr ch=1 v=7
64926 Pb ch=1 v=1093
64927 Par ch=1 c=2 v=103
64927 ChPr ch=1 v=0
64933 Pb ch=1 v=2705
64934 Par ch=1 c=2 v=91
64939 Pb ch=1 v=4473
64940 Par ch=1 c=2 v=73
64946 Pb ch=1 v=5929
64946 Par ch=1 c=2 v=49
64952 Pb ch=1 v=7385
64953 Par ch=1 c=2 v=15
64959 Pb ch=1 v=8192
64960 Par ch=1 c=2 v=0
65001 On ch=1 n=54 v=114
65003 On ch=1 n=50 v=0
65203 On ch=1 n=54 v=0
65280 Par ch=1 c=2 v=37
65280 Pb ch=1 v=0
65283 On ch=1 n=52 v=105
65284 On ch=1 n=45 v=105
65288 Par ch=1 c=2 v=56
65292 Par ch=1 c=2 v=76
65299 Par ch=1 c=2 v=100
65306 Par ch=1 c=2 v=105
65319 Pb ch=1 v=1119
65325 Pb ch=1 v=2497
65332 Pb ch=1 v=4005
65332 Par ch=1 c=2 v=99
65339 Pb ch=1 v=5175
65339 Par ch=1 c=2 v=90
65345 Pb ch=1 v=6371
65346 Par ch=1 c=2 v=78
65352 Pb ch=1 v=7359
65352 Par ch=1 c=2 v=65
65358 Pb ch=1 v=8061
65359 Par ch=1 c=2 v=50
65365 Pb ch=1 v=8192
65365 Par ch=1 c=2 v=37
65371 Par ch=1 c=2 v=23
65378 Par ch=1 c=2 v=10
65384 Par ch=1 c=2 v=0
65578 Off ch=1 n=45 v=0
65597 Off ch=1 n=52 v=0
65618 Pb ch=1 v=6605
65625 Pb ch=1 v=4369
65631 Pb ch=1 v=1717
65638 Pb ch=1 v=0
65646 On ch=1 n=52 v=114
65651 Par ch=1 c=2 v=16
65657 Par ch=1 c=2 v=46
65667 Par ch=1 c=2 v=78
65667 ChPr ch=1 v=13
65670 Par ch=1 c=2 v=103
65671 ChPr ch=1 v=11
65677 Par ch=1 c=2 v=120
65677 ChPr ch=1 v=0
65683 Par ch=1 c=2 v=127
65689 Pb ch=1 v=209
65696 Pb ch=1 v=1925
65697 Par ch=1 c=2 v=122
65702 Pb ch=1 v=4109
65703 Par ch=1 c=2 v=106
65709 Pb ch=1 v=6319
65710 Par ch=1 c=2 v=86
65715 Pb ch=1 v=8087
65716 Par ch=1 c=2 v=66
65722 Pb ch=1 v=8192
65723 Par ch=1 c=2 v=41
65729 Par ch=1 c=2 v=12
65735 Par ch=1 c=2 v=0
65761 On ch=1 n=57 v=105
65767 On ch=1 n=52 v=0
65856 On ch=1 n=52 v=114
65861 On ch=1 n=57 v=0
65872 ChPr ch=1 v=13
65879 ChPr ch=1 v=16
65886 ChPr ch=1 v=6
65893 ChPr ch=1 v=0
65912 ChPr ch=1 v=8
65918 ChPr ch=1 v=17
65925 ChPr ch=1 v=23
65931 ChPr ch=1 v=40
65938 ChPr ch=1 v=45
65944 ChPr ch=1 v=67
65951 ChPr ch=1 v=127
65990 ChPr ch=1 v=3
65996 ChPr ch=1 v=0
66008 Off ch=1 n=52 v=0
66048 Par ch=1 c=2 v=38
66048 Pb ch=1 v=0
66055 Par ch=1 c=2 v=60
66055 On ch=1 n=42 v=114
66055 On ch=1 n=47 v=105
66059 Par ch=1 c=2 v=83
66065 Par ch=1 c=2 v=100
66072 Par ch=1 c=2 v=113
66078 Par ch=1 c=2 v=120
66085 Par ch=1 c=2 v=123
66091 Pb ch=1 v=1171
66092 Par ch=1 c=2 v=126
66097 Pb ch=1 v=2809
66104 Pb ch=1 v=4603
66111 Pb ch=1 v=6371
66111 Par ch=1 c=2 v=121
66117 Pb ch=1 v=7671
66117 Par ch=1 c=2 v=113
66124 Pb ch=1 v=8192
66124 Par ch=1 c=2 v=102
66130 Par ch=1 c=2 v=91
66136 Par ch=1 c=2 v=74
66143 Par ch=1 c=2 v=51
66150 Par ch=1 c=2 v=27
66156 Par ch=1 c=2 v=2
66162 Par ch=1 c=2 v=0
66326 Off ch=1 n=42 v=0
66347 Off ch=1 n=47 v=0
66372 Pb ch=1 v=7567
66379 Pb ch=1 v=5825
66385 Pb ch=1 v=3719
66392 Pb ch=1 v=1431
66398 Pb ch=1 v=0
66411 Par ch=1 c=2 v=20
66416 On ch=1 n=47 v=105
66418 Par ch=1 c=2 v=49
66423 Par ch=1 c=2 v=83
66431 Par ch=1 c=2 v=109
66437 Par ch=1 c=2 v=126
66443 Pb ch=1 v=1015
66444 Par ch=1 c=2 v=127
66449 Pb ch=1 v=2939
66456 Pb ch=1 v=4967
66462 Pb ch=1 v=6839
66463 Par ch=1 c=2 v=111
66469 Pb ch=1 v=8192
66470 Par ch=1 c=2 v=87
66476 Par ch=1 c=2 v=56
66482 Par ch=1 c=2 v=23
66488 Par ch=1 c=2 v=0
66518 On ch=1 n=50 v=102
66526 On ch=1 n=47 v=0
66603 On ch=1 n=42 v=108
66608 On ch=1 n=50 v=0
66699 On ch=1 n=42 v=0
66707 On ch=1 n=38 v=111
66724 ChPr ch=1 v=5
66731 ChPr ch=1 v=127
66744 ChPr ch=1 v=3
66750 ChPr ch=1 v=0
66805 Off ch=1 n=38 v=0
67584 Par ch=1 c=2 v=86
67584 On ch=1 n=50 v=105
67584 On ch=1 n=45 v=108
67584 Pb ch=1 v=0
67590 Par ch=1 c=2 v=104
67595 Par ch=1 c=2 v=117
67603 Par ch=1 c=2 v=124
67608 Par ch=1 c=2 v=126
67628 Pb ch=1 v=755
67634 Pb ch=1 v=2289
67634 Par ch=1 c=2 v=123
67641 Pb ch=1 v=3511
67642 Par ch=1 c=2 v=118
67648 Pb ch=1 v=4967
67648 Par ch=1 c=2 v=112
67654 Pb ch=1 v=6059
67655 Par ch=1 c=2 v=103
67660 Pb ch=1 v=6787
67660 Par ch=1 c=2 v=96
67667 Pb ch=1 v=7567
67668 Par ch=1 c=2 v=86
67673 Pb ch=1 v=7983
67673 Par ch=1 c=2 v=76
67681 Pb ch=1 v=8192
67681 Par ch=1 c=2 v=65
67686 Par ch=1 c=2 v=54
67693 Par ch=1 c=2 v=48
67700 Par ch=1 c=2 v=42
67706 Par ch=1 c=2 v=35
67713 Par ch=1 c=2 v=28
67719 Par ch=1 c=2 v=19
67726 Par ch=1 c=2 v=13
67732 Par ch=1 c=2 v=7
67738 Par ch=1 c=2 v=1
67745 Par ch=1 c=2 v=0
67891 Off ch=1 n=45 v=0
67907 Pb ch=1 v=7099
67914 Pb ch=1 v=5539
67920 Pb ch=1 v=3485
67921 Off ch=1 n=50 v=0
67927 Pb ch=1 v=1223
67933 Pb ch=1 v=0
67953 Par ch=1 c=2 v=14
67959 Par ch=1 c=2 v=47
67964 On ch=1 n=50 v=114
67967 Par ch=1 c=2 v=80
67973 Par ch=1 c=2 v=103
67979 Par ch=1 c=2 v=114
67980 ChPr ch=1 v=26
67985 Par ch=1 c=2 v=116
67986 ChPr ch=1 v=32
67992 Par ch=1 c=2 v=114
67993 ChPr ch=1 v=7
67998 Pb ch=1 v=1093
67999 Par ch=1 c=2 v=103
67999 ChPr ch=1 v=0
68005 Pb ch=1 v=2705
68006 Par ch=1 c=2 v=91
68011 Pb ch=1 v=4473
68012 Par ch=1 c=2 v=73
68018 Pb ch=1 v=5929
68018 Par ch=1 c=2 v=49
68024 Pb ch=1 v=7385
68025 Par ch=1 c=2 v=15
68031 Pb ch=1 v=8192
68032 Par ch=1 c=2 v=0
68073 On ch=1 n=54 v=114
68075 On ch=1 n=50 v=0
68275 On ch=1 n=54 v=0
68352 Par ch=1 c=2 v=37
68352 Pb ch=1 v=0
68355 On ch=1 n=52 v=105
68356 On ch=1 n=45 v=105
68360 Par ch=1 c=2 v=56
68364 Par ch=1 c=2 v=76
68371 Par ch=1 c=2 v=100
68378 Par ch=1 c=2 v=105
68391 Pb ch=1 v=1119
68397 Pb ch=1 v=2497
68404 Pb ch=1 v=4005
68404 Par ch=1 c=2 v=99
68411 Pb ch=1 v=5175
68411 Par ch=1 c=2 v=90
68417 Pb ch=1 v=6371
68418 Par ch=1 c=2 v=78
68424 Pb ch=1 v=7359
68424 Par ch=1 c=2 v=65
68430 Pb ch=1 v=8061
68431 Par ch=1 c=2 v=50
68437 Pb ch=1 v=8192
68437 Par ch=1 c=2 v=37
68443 Par ch=1 c=2 v=23
68450 Par ch=1 c=2 v=10
68456 Par ch=1 c=2 v=0
68650 Off ch=1 n=45 v=0
68669 Off ch=1 n=52 v=0
68690 Pb ch=1 v=6605
68697 Pb ch=1 v=4369
68703 Pb ch=1 v=1717
68710 Pb ch=1 v=0
68718 On ch=1 n=52 v=114
68723 Par ch=1 c=2 v=16
68729 Par ch=1 c=2 v=46
68739 Par ch=1 c=2 v=78
68739 ChPr ch=1 v=13
68742 Par ch=1 c=2 v=103
68743 ChPr ch=1 v=11
68749 Par ch=1 c=2 v=120
68749 ChPr ch=1 v=0
68755 Par ch=1 c=2 v=127
68761 Pb ch=1 v=209
68768 Pb ch=1 v=1925
68769 Par ch=1 c=2 v=122
68774 Pb ch=1 v=4109
68775 Par ch=1 c=2 v=106
68781 Pb ch=1 v=6319
68782 Par ch=1 c=2 v=86
68787 Pb ch=1 v=8087
68788 Par ch=1 c=2 v=66
68794 Pb ch=1 v=8192
68795 Par ch=1 c=2 v=41
68801 Par ch=1 c=2 v=12
68807 Par ch=1 c=2 v=0
68833 On ch=1 n=57 v=105
68839 On ch=1 n=52 v=0
68928 On ch=1 n=52 v=114
68933 On ch=1 n=57 v=0
68944 ChPr ch=1 v=13
68951 ChPr ch=1 v=16
68958 ChPr ch=1 v=6
68965 ChPr ch=1 v=0
68984 ChPr ch=1 v=8
68990 ChPr ch=1 v=17
68997 ChPr ch=1 v=23
69003 ChPr ch=1 v=40
69010 ChPr ch=1 v=45
69016 ChPr ch=1 v=67
69023 ChPr ch=1 v=127
69062 ChPr ch=1 v=3
69068 ChPr ch=1 v=0
69080 Off ch=1 n=52 v=0
69120 Par ch=1 c=2 v=38
69120 Pb ch=1 v=0
69127 Par ch=1 c=2 v=60
69127 On ch=1 n=42 v=114
69127 On ch=1 n=47 v=105
69131 Par ch=1 c=2 v=83
69137 Par ch=1 c=2 v=100
69144 Par ch=1 c=2 v=113
69150 Par ch=1 c=2 v=120
69157 Par ch=1 c=2 v=123
69163 Pb ch=1 v=1171
69164 Par ch=1 c=2 v=126
69169 Pb ch=1 v=2809
69176 Pb ch=1 v=4603
69183 Pb ch=1 v=6371
69183 Par ch=1 c=2 v=121
69189 Pb ch=1 v=7671
69189 Par ch=1 c=2 v=113
69196 Pb ch=1 v=8192
69196 Par ch=1 c=2 v=102
69202 Par ch=1 c=2 v=91
69208 Par ch=1 c=2 v=74
69215 Par ch=1 c=2 v=51
69222 Par ch=1 c=2 v=27
69228 Par ch=1 c=2 v=2
69234 Par ch=1 c=2 v=0
69398 Off ch=1 n=42 v=0
69419 Off ch=1 n=47 v=0
69444 Pb ch=1 v=7567
69451 Pb ch=1 v=5825
69457 Pb ch=1 v=3719
69464 Pb ch=1 v=1431
69470 Pb ch=1 v=0
69483 Par ch=1 c=2 v=20
69488 On ch=1 n=47 v=105
69490 Par ch=1 c=2 v=49
69495 Par ch=1 c=2 v=83
69503 Par ch=1 c=2 v=109
69509 Par ch=1 c=2 v=126
69515 Pb ch=1 v=1015
69516 Par ch=1 c=2 v=127
69521 Pb ch=1 v=2939
69528 Pb ch=1 v=4967
69534 Pb ch=1 v=6839
69535 Par ch=1 c=2 v=111
69541 Pb ch=1 v=8192
69542 Par ch=1 c=2 v=87
69548 Par ch=1 c=2 v=56
69554 Par ch=1 c=2 v=23
69560 Par ch=1 c=2 v=0
69590 On ch=1 n=50 v=102
69598 On ch=1 n=47 v=0
69675 On ch=1 n=42 v=108
69680 On ch=1 n=50 v=0
69771 On ch=1 n=42 v=0
69779 On ch=1 n=38 v=111
69796 ChPr ch=1 v=5
69803 ChPr ch=1 v=127
69816 ChPr ch=1 v=3
69822 ChPr ch=1 v=0
69877 Off ch=1 n=38 v=0
69888 On ch=1 n=43 v=114
69912 On ch=1 n=43 v=0
69934 On ch=1 n=43 v=108
69943 ChPr ch=1 v=47
69949 ChPr ch=1 v=127
69955 ChPr ch=1 v=28
69962 ChPr ch=1 v=0
69968 Off ch=1 n=43 v=0
70037 On ch=1 n=43 v=114
70047 ChPr ch=1 v=127
70066 ChPr ch=1 v=21
70073 ChPr ch=1 v=0
70080 ChPr ch=1 v=4
70085 ChPr ch=1 v=10
70092 ChPr ch=1 v=5
70099 ChPr ch=1 v=0
70120 Off ch=1 n=43 v=0
70215 Pb ch=1 v=6579
70221 Pb ch=1 v=3875
70227 Pb ch=1 v=1093
70234 Pb ch=1 v=0
70235 Par ch=1 c=2 v=2
70240 Par ch=1 c=2 v=24
70247 Par ch=1 c=2 v=51
70254 Par ch=1 c=2 v=83
70260 Par ch=1 c=2 v=112
70266 Par ch=1 c=2 v=127
70272 On ch=1 n=38 v=114
70286 Pb ch=1 v=1015
70293 Pb ch=1 v=3095
70293 ChPr ch=1 v=40
70299 Pb ch=1 v=5123
70299 Par ch=1 c=2 v=107
70301 ChPr ch=1 v=4
70306 Pb ch=1 v=6995
70306 Par ch=1 c=2 v=83
70307 ChPr ch=1 v=0
70313 Pb ch=1 v=8192
70313 Par ch=1 c=2 v=53
70319 Par ch=1 c=2 v=23
70326 Par ch=1 c=2 v=0
70364 On ch=1 n=43 v=111
70365 On ch=1 n=38 v=0
70459 On ch=1 n=38 v=117
70471 On ch=1 n=43 v=0
70542 On ch=1 n=38 v=0
70548 On ch=1 n=33 v=114
70562 ChPr ch=1 v=127
70575 ChPr ch=1 v=112
70581 ChPr ch=1 v=3
70587 ChPr ch=1 v=0
70601 ChPr ch=1 v=6
70607 ChPr ch=1 v=4
70613 ChPr ch=1 v=0
70635 Off ch=1 n=33 v=0
70656 Par ch=1 c=2 v=86
70656 On ch=1 n=50 v=105
70656 On ch=1 n=45 v=108
70656 Pb ch=1 v=0
70662 Par ch=1 c=2 v=104
70667 Par ch=1 c=2 v=117
70675 Par ch=1 c=2 v=124
70680 Par ch=1 c=2 v=126
70700 Pb ch=1 v=755
70706 Pb ch=1 v=2289
70706 Par ch=1 c=2 v=123
70713 Pb ch=1 v=3511
70714 Par ch=1 c=2 v=118
70720 Pb ch=1 v=4967
70720 Par ch=1 c=2 v=112
70726 Pb ch=1 v=6059
70727 Par ch=1 c=2 v=103
70732 Pb ch=1 v=6787
70732 Par ch=1 c=2 v=96
70739 Pb ch=1 v=7567
70740 Par ch=1 c=2 v=86
70745 Pb ch=1 v=7983
70745 Par ch=1 c=2 v=76
70753 Pb ch=1 v=8192
70753 Par ch=1 c=2 v=65
70758 Par ch=1 c=2 v=54
70765 Par ch=1 c=2 v=48
70772 Par ch=1 c=2 v=42
70778 Par ch=1 c=2 v=35
70785 Par ch=1 c=2 v=28
70791 Par ch=1 c=2 v=19
70798 Par ch=1 c=2 v=13
70804 Par ch=1 c=2 v=7
70810 Par ch=1 c=2 v=1
70817 Par ch=1 c=2 v=0
70963 Off ch=1 n=45 v=0
70979 Pb ch=1 v=7099
70986 Pb ch=1 v=5539
70992 Pb ch=1 v=3485
70993 Off ch=1 n=50 v=0
70999 Pb ch=1 v=1223
71005 Pb ch=1 v=0
71025 Par ch=1 c=2 v=14
71031 Par ch=1 c=2 v=47
71036 On ch=1 n=50 v=114
71039 Par ch=1 c=2 v=80
71045 Par ch=1 c=2 v=103
71051 Par ch=1 c=2 v=114
71052 ChPr ch=1 v=26
71057 Par ch=1 c=2 v=116
71058 ChPr ch=1 v=32
71064 Par ch=1 c=2 v=114
71065 ChPr ch=1 v=7
71070 Pb ch=1 v=1093
71071 Par ch=1 c=2 v=103
71071 ChPr ch=1 v=0
71077 Pb ch=1 v=2705
71078 Par ch=1 c=2 v=91
71083 Pb ch=1 v=4473
71084 Par ch=1 c=2 v=73
71090 Pb ch=1 v=5929
71090 Par ch=1 c=2 v=49
71096 Pb ch=1 v=7385
71097 Par ch=1 c=2 v=15
71103 Pb ch=1 v=8192
71104 Par ch=1 c=2 v=0
71145 On ch=1 n=54 v=114
71147 On ch=1 n=50 v=0
71347 On ch=1 n=54 v=0
71424 Par ch=1 c=2 v=37
71424 Pb ch=1 v=0
71427 On ch=1 n=52 v=105
71428 On ch=1 n=45 v=105
71432 Par ch=1 c=2 v=56
71436 Par ch=1 c=2 v=76
71443 Par ch=1 c=2 v=100
71450 Par ch=1 c=2 v=105
71463 Pb ch=1 v=1119
71469 Pb ch=1 v=2497
71476 Pb ch=1 v=4005
71476 Par ch=1 c=2 v=99
71483 Pb ch=1 v=5175
71483 Par ch=1 c=2 v=90
71489 Pb ch=1 v=6371
71490 Par ch=1 c=2 v=78
71496 Pb ch=1 v=7359
71496 Par ch=1 c=2 v=65
71502 Pb ch=1 v=8061
71503 Par ch=1 c=2 v=50
71509 Pb ch=1 v=8192
71509 Par ch=1 c=2 v=37
71515 Par ch=1 c=2 v=23
71522 Par ch=1 c=2 v=10
71528 Par ch=1 c=2 v=0
71722 Off ch=1 n=45 v=0
71741 Off ch=1 n=52 v=0
71762 Pb ch=1 v=6605
71769 Pb ch=1 v=4369
71775 Pb ch=1 v=1717
71782 Pb ch=1 v=0
71790 On ch=1 n=52 v=114
71795 Par ch=1 c=2 v=16
71801 Par ch=1 c=2 v=46
71811 Par ch=1 c=2 v=78
71811 ChPr ch=1 v=13
71814 Par ch=1 c=2 v=103
71815 ChPr ch=1 v=11
71821 Par ch=1 c=2 v=120
71821 ChPr ch=1 v=0
71827 Par ch=1 c=2 v=127
71833 Pb ch=1 v=209
71840 Pb ch=1 v=1925
71841 Par ch=1 c=2 v=122
71846 Pb ch=1 v=4109
71847 Par ch=1 c=2 v=106
71853 Pb ch=1 v=6319
71854 Par ch=1 c=2 v=86
71859 Pb ch=1 v=8087
71860 Par ch=1 c=2 v=66
71866 Pb ch=1 v=8192
71867 Par ch=1 c=2 v=41
71873 Par ch=1 c=2 v=12
71879 Par ch=1 c=2 v=0
71905 On ch=1 n=57 v=105
71911 On ch=1 n=52 v=0
72000 On ch=1 n=52 v=114
72005 On ch=1 n=57 v=0
72016 ChPr ch=1 v=13
72023 ChPr ch=1 v=16
72030 ChPr ch=1 v=6
72037 ChPr ch=1 v=0
72056 ChPr ch=1 v=8
72062 ChPr ch=1 v=17
72069 ChPr ch=1 v=23
72075 ChPr ch=1 v=40
72082 ChPr ch=1 v=45
72088 ChPr ch=1 v=67
72095 ChPr ch=1 v=127
72134 ChPr ch=1 v=3
72140 ChPr ch=1 v=0
72152 Off ch=1 n=52 v=0
72192 Par ch=1 c=2 v=38
72192 Pb ch=1 v=0
72199 Par ch=1 c=2 v=60
72199 On ch=1 n=42 v=114
72199 On ch=1 n=47 v=105
72203 Par ch=1 c=2 v=83
72209 Par ch=1 c=2 v=100
72216 Par ch=1 c=2 v=113
72222 Par ch=1 c=2 v=120
72229 Par ch=1 c=2 v=123
72235 Pb ch=1 v=1171
72236 Par ch=1 c=2 v=126
72241 Pb ch=1 v=2809
72248 Pb ch=1 v=4603
72255 Pb ch=1 v=6371
72255 Par ch=1 c=2 v=121
72261 Pb ch=1 v=7671
72261 Par ch=1 c=2 v=113
72268 Pb ch=1 v=8192
72268 Par ch=1 c=2 v=102
72274 Par ch=1 c=2 v=91
72280 Par ch=1 c=2 v=74
72287 Par ch=1 c=2 v=51
72294 Par ch=1 c=2 v=27
72300 Par ch=1 c=2 v=2
72306 Par ch=1 c=2 v=0
72470 Off ch=1 n=42 v=0
72491 Off ch=1 n=47 v=0
72516 Pb ch=1 v=7567
72523 Pb ch=1 v=5825
72529 Pb ch=1 v=3719
72536 Pb ch=1 v=1431
72542 Pb ch=1 v=0
72555 Par ch=1 c=2 v=20
72560 On ch=1 n=47 v=105
72562 Par ch=1 c=2 v=49
72567 Par ch=1 c=2 v=83
72575 Par ch=1 c=2 v=109
72581 Par ch=1 c=2 v=126
72587 Pb ch=1 v=1015
72588 Par ch=1 c=2 v=127
72593 Pb ch=1 v=2939
72600 Pb ch=1 v=4967
72606 Pb ch=1 v=6839
72607 Par ch=1 c=2 v=111
72613 Pb ch=1 v=8192
72614 Par ch=1 c=2 v=87
72620 Par ch=1 c=2 v=56
72626 Par ch=1 c=2 v=23
72632 Par ch=1 c=2 v=0
72662 On ch=1 n=50 v=102
72670 On ch=1 n=47 v=0
72747 On ch=1 n=42 v=108
72752 On ch=1 n=50 v=0
72843 On ch=1 n=42 v=0
72851 On ch=1 n=38 v=111
72868 ChPr ch=1 v=5
72875 ChPr ch=1 v=127
72888 ChPr ch=1 v=3
72894 ChPr ch=1 v=0
72949 Off ch=1 n=38 v=0
72960 On ch=1 n=43 v=114
72984 On ch=1 n=43 v=0
73006 On ch=1 n=43 v=108
73015 ChPr ch=1 v=47
73021 ChPr ch=1 v=127
73027 ChPr ch=1 v=28
73034 ChPr ch=1 v=0
73040 Off ch=1 n=43 v=0
73109 On ch=1 n=43 v=114
73119 ChPr ch=1 v=127
73138 ChPr ch=1 v=21
73145 ChPr ch=1 v=0
73152 ChPr ch=1 v=4
73157 ChPr ch=1 v=10
73164 ChPr ch=1 v=5
73171 ChPr ch=1 v=0
73192 Off ch=1 n=43 v=0
73287 Pb ch=1 v=6579
73293 Pb ch=1 v=3875
73299 Pb ch=1 v=1093
73306 Pb ch=1 v=0
73307 Par ch=1 c=2 v=2
73312 Par ch=1 c=2 v=24
73319 Par ch=1 c=2 v=51
73326 Par ch=1 c=2 v=83
73332 Par ch=1 c=2 v=112
73338 Par ch=1 c=2 v=127
73344 On ch=1 n=38 v=114
73358 Pb ch=1 v=1015
73365 Pb ch=1 v=3095
73365 ChPr ch=1 v=40
73371 Pb ch=1 v=5123
73371 Par ch=1 c=2 v=107
73373 ChPr ch=1 v=4
73378 Pb ch=1 v=6995
73378 Par ch=1 c=2 v=83
73379 ChPr ch=1 v=0
73385 Pb ch=1 v=8192
73385 Par ch=1 c=2 v=53
73391 Par ch=1 c=2 v=23
73398 Par ch=1 c=2 v=0
73436 On ch=1 n=43 v=111
73437 On ch=1 n=38 v=0
73531 On ch=1 n=38 v=117
73543 On ch=1 n=43 v=0
73614 On ch=1 n=38 v=0
73620 On ch=1 n=33 v=114
73634 ChPr ch=1 v=127
73647 ChPr ch=1 v=112
73653 ChPr ch=1 v=3
73659 ChPr ch=1 v=0
73673 ChPr ch=1 v=6
73679 ChPr ch=1 v=4
73685 ChPr ch=1 v=0
73707 Off ch=1 n=33 v=0
73728 Par ch=1 c=2 v=86
73728 On ch=1 n=50 v=105
73728 On ch=1 n=45 v=108
73728 Pb ch=1 v=0
73734 Par ch=1 c=2 v=104
73739 Par ch=1 c=2 v=117
73747 Par ch=1 c=2 v=124
73752 Par ch=1 c=2 v=126
73772 Pb ch=1 v=755
73778 Pb ch=1 v=2289
73778 Par ch=1 c=2 v=123
73785 Pb ch=1 v=3511
73786 Par ch=1 c=2 v=118
73792 Pb ch=1 v=4967
73792 Par ch=1 c=2 v=112
73798 Pb ch=1 v=6059
73799 Par ch=1 c=2 v=103
73804 Pb ch=1 v=6787
73804 Par ch=1 c=2 v=96
73811 Pb ch=1 v=7567
73812 Par ch=1 c=2 v=86
73817 Pb ch=1 v=7983
73817 Par ch=1 c=2 v=76
73825 Pb ch=1 v=8192
73825 Par ch=1 c=2 v=65
73830 Par ch=1 c=2 v=54
73837 Par ch=1 c=2 v=48
73844 Par ch=1 c=2 v=42
73850 Par ch=1 c=2 v=35
73857 Par ch=1 c=2 v=28
73863 Par ch=1 c=2 v=19
73870 Par ch=1 c=2 v=13
73876 Par ch=1 c=2 v=7
73882 Par ch=1 c=2 v=1
73889 Par ch=1 c=2 v=0
74035 Off ch=1 n=45 v=0
74051 Pb ch=1 v=7099
74058 Pb ch=1 v=5539
74064 Pb ch=1 v=3485
74065 Off ch=1 n=50 v=0
74071 Pb ch=1 v=1223
74077 Pb ch=1 v=0
74097 Par ch=1 c=2 v=14
74103 Par ch=1 c=2 v=47
74108 On ch=1 n=50 v=114
74111 Par ch=1 c=2 v=80
74117 Par ch=1 c=2 v=103
74123 Par ch=1 c=2 v=114
74124 ChPr ch=1 v=26
74129 Par ch=1 c=2 v=116
74130 ChPr ch=1 v=32
74136 Par ch=1 c=2 v=114
74137 ChPr ch=1 v=7
74142 Pb ch=1 v=1093
74143 Par ch=1 c=2 v=103
74143 ChPr ch=1 v=0
74149 Pb ch=1 v=2705
74150 Par ch=1 c=2 v=91
74155 Pb ch=1 v=4473
74156 Par ch=1 c=2 v=73
74162 Pb ch=1 v=5929
74162 Par ch=1 c=2 v=49
74168 Pb ch=1 v=7385
74169 Par ch=1 c=2 v=15
74175 Pb ch=1 v=8192
74176 Par ch=1 c=2 v=0
74217 On ch=1 n=54 v=114
74219 On ch=1 n=50 v=0
74419 On ch=1 n=54 v=0
74496 Par ch=1 c=2 v=37
74496 Pb ch=1 v=0
74499 On ch=1 n=52 v=105
74500 On ch=1 n=45 v=105
74504 Par ch=1 c=2 v=56
74508 Par ch=1 c=2 v=76
74515 Par ch=1 c=2 v=100
74522 Par ch=1 c=2 v=105
74535 Pb ch=1 v=1119
74541 Pb ch=1 v=2497
74548 Pb ch=1 v=4005
74548 Par ch=1 c=2 v=99
74555 Pb ch=1 v=5175
74555 Par ch=1 c=2 v=90
74561 Pb ch=1 v=6371
74562 Par ch=1 c=2 v=78
74568 Pb ch=1 v=7359
74568 Par ch=1 c=2 v=65
74574 Pb ch=1 v=8061
74575 Par ch=1 c=2 v=50
74581 Pb ch=1 v=8192
74581 Par ch=1 c=2 v=37
74587 Par ch=1 c=2 v=23
74594 Par ch=1 c=2 v=10
74600 Par ch=1 c=2 v=0
74794 Off ch=1 n=45 v=0
74813 Off ch=1 n=52 v=0
74834 Pb ch=1 v=6605
74841 Pb ch=1 v=4369
74847 Pb ch=1 v=1717
74854 Pb ch=1 v=0
74862 On ch=1 n=52 v=114
74867 Par ch=1 c=2 v=16
74873 Par ch=1 c=2 v=46
74883 Par ch=1 c=2 v=78
74883 ChPr ch=1 v=13
74886 Par ch=1 c=2 v=103
74887 ChPr ch=1 v=11
74893 Par ch=1 c=2 v=120
74893 ChPr ch=1 v=0
74899 Par ch=1 c=2 v=127
74905 Pb ch=1 v=209
74912 Pb ch=1 v=1925
74913 Par ch=1 c=2 v=122
74918 Pb ch=1 v=4109
74919 Par ch=1 c=2 v=106
74925 Pb ch=1 v=6319
74926 Par ch=1 c=2 v=86
74931 Pb ch=1 v=8087
74932 Par ch=1 c=2 v=66
74938 Pb ch=1 v=8192
74939 Par ch=1 c=2 v=41
74945 Par ch=1 c=2 v=12
74951 Par ch=1 c=2 v=0
74977 On ch=1 n=57 v=105
74983 On ch=1 n=52 v=0
75072 On ch=1 n=52 v=114
75077 On ch=1 n=57 v=0
75088 ChPr ch=1 v=13
75095 ChPr ch=1 v=16
75102 ChPr ch=1 v=6
75109 ChPr ch=1 v=0
75128 ChPr ch=1 v=8
75134 ChPr ch=1 v=17
75141 ChPr ch=1 v=23
75147 ChPr ch=1 v=40
75154 ChPr ch=1 v=45
75160 ChPr ch=1 v=67
75167 ChPr ch=1 v=127
75206 ChPr ch=1 v=3
75212 ChPr ch=1 v=0
75224 Off ch=1 n=52 v=0
75264 Par ch=1 c=2 v=38
75264 Pb ch=1 v=0
75271 Par ch=1 c=2 v=60
75271 On ch=1 n=42 v=114
75271 On ch=1 n=47 v=105
75275 Par ch=1 c=2 v=83
75281 Par ch=1 c=2 v=100
75288 Par ch=1 c=2 v=113
75294 Par ch=1 c=2 v=120
75301 Par ch=1 c=2 v=123
75307 Pb ch=1 v=1171
75308 Par ch=1 c=2 v=126
75313 Pb ch=1 v=2809
75320 Pb ch=1 v=4603
75327 Pb ch=1 v=6371
75327 Par ch=1 c=2 v=121
75333 Pb ch=1 v=7671
75333 Par ch=1 c=2 v=113
75340 Pb ch=1 v=8192
75340 Par ch=1 c=2 v=102
75346 Par ch=1 c=2 v=91
75352 Par ch=1 c=2 v=74
75359 Par ch=1 c=2 v=51
75366 Par ch=1 c=2 v=27
75372 Par ch=1 c=2 v=2
75378 Par ch=1 c=2 v=0
75542 Off ch=1 n=42 v=0
75563 Off ch=1 n=47 v=0
75588 Pb ch=1 v=7567
75595 Pb ch=1 v=5825
75601 Pb ch=1 v=3719
75608 Pb ch=1 v=1431
75614 Pb ch=1 v=0
75627 Par ch=1 c=2 v=20
75632 On ch=1 n=47 v=105
75634 Par ch=1 c=2 v=49
75639 Par ch=1 c=2 v=83
75647 Par ch=1 c=2 v=109
75653 Par ch=1 c=2 v=126
75659 Pb ch=1 v=1015
75660 Par ch=1 c=2 v=127
75665 Pb ch=1 v=2939
75672 Pb ch=1 v=4967
75678 Pb ch=1 v=6839
75679 Par ch=1 c=2 v=111
75685 Pb ch=1 v=8192
75686 Par ch=1 c=2 v=87
75692 Par ch=1 c=2 v=56
75698 Par ch=1 c=2 v=23
75704 Par ch=1 c=2 v=0
75734 On ch=1 n=50 v=102
75742 On ch=1 n=47 v=0
75819 On ch=1 n=42 v=108
75824 On ch=1 n=50 v=0
75915 On ch=1 n=42 v=0
75923 On ch=1 n=38 v=111
75940 ChPr ch=1 v=5
75947 ChPr ch=1 v=127
75960 ChPr ch=1 v=3
75966 ChPr ch=1 v=0
76021 Off ch=1 n=38 v=0
76032 On ch=1 n=43 v=114
76056 On ch=1 n=43 v=0
76078 On ch=1 n=43 v=108
76087 ChPr ch=1 v=47
76093 ChPr ch=1 v=127
76099 ChPr ch=1 v=28
76106 ChPr ch=1 v=0
76112 Off ch=1 n=43 v=0
76181 On ch=1 n=43 v=114
76191 ChPr ch=1 v=127
76210 ChPr ch=1 v=21
76217 ChPr ch=1 v=0
76224 ChPr ch=1 v=4
76229 ChPr ch=1 v=10
76236 ChPr ch=1 v=5
76243 ChPr ch=1 v=0
76264 Off ch=1 n=43 v=0
76359 Pb ch=1 v=6579
76365 Pb ch=1 v=3875
76371 Pb ch=1 v=1093
76378 Pb ch=1 v=0
76379 Par ch=1 c=2 v=2
76384 Par ch=1 c=2 v=24
76391 Par ch=1 c=2 v=51
76398 Par ch=1 c=2 v=83
76404 Par ch=1 c=2 v=112
76410 Par ch=1 c=2 v=127
76416 On ch=1 n=38 v=114
76430 Pb ch=1 v=1015
76437 Pb ch=1 v=3095
76437 ChPr ch=1 v=40
76443 Pb ch=1 v=5123
76443 Par ch=1 c=2 v=107
76445 ChPr ch=1 v=4
76450 Pb ch=1 v=6995
76450 Par ch=1 c=2 v=83
76451 ChPr ch=1 v=0
76457 Pb ch=1 v=8192
76457 Par ch=1 c=2 v=53
76463 Par ch=1 c=2 v=23
76470 Par ch=1 c=2 v=0
76508 On ch=1 n=43 v=111
76509 On ch=1 n=38 v=0
76603 On ch=1 n=38 v=117
76615 On ch=1 n=43 v=0
76686 On ch=1 n=38 v=0
76692 On ch=1 n=33 v=114
76706 ChPr ch=1 v=127
76719 ChPr ch=1 v=112
76725 ChPr ch=1 v=3
76731 ChPr ch=1 v=0
76745 ChPr ch=1 v=6
76751 ChPr ch=1 v=4
76757 ChPr ch=1 v=0
76779 Off ch=1 n=33 v=0
76800 Par ch=1 c=2 v=86
76800 On ch=1 n=50 v=105
76800 On ch=1 n=45 v=108
76800 Pb ch=1 v=0
76806 Par ch=1 c=2 v=104
76811 Par ch=1 c=2 v=117
76819 Par ch=1 c=2 v=124
76824 Par ch=1 c=2 v=126
76844 Pb ch=1 v=755
76850 Pb ch=1 v=2289
76850 Par ch=1 c=2 v=123
76857 Pb ch=1 v=3511
76858 Par ch=1 c=2 v=118
76864 Pb ch=1 v=4967
76864 Par ch=1 c=2 v=112
76870 Pb ch=1 v=6059
76871 Par ch=1 c=2 v=103
76876 Pb ch=1 v=6787
76876 Par ch=1 c=2 v=96
76883 Pb ch=1 v=7567
76884 Par ch=1 c=2 v=86
76889 Pb ch=1 v=7983
76889 Par ch=1 c=2 v=76
76897 Pb ch=1 v=8192
76897 Par ch=1 c=2 v=65
76902 Par ch=1 c=2 v=54
76909 Par ch=1 c=2 v=48
76916 Par ch=1 c=2 v=42
76922 Par ch=1 c=2 v=35
76929 Par ch=1 c=2 v=28
76935 Par ch=1 c=2 v=19
76942 Par ch=1 c=2 v=13
76948 Par ch=1 c=2 v=7
76954 Par ch=1 c=2 v=1
76961 Par ch=1 c=2 v=0
77107 Off ch=1 n=45 v=0
77123 Pb ch=1 v=7099
77130 Pb ch=1 v=5539
77136 Pb ch=1 v=3485
77137 Off ch=1 n=50 v=0
77143 Pb ch=1 v=1223
77149 Pb ch=1 v=0
77169 Par ch=1 c=2 v=14
77175 Par ch=1 c=2 v=47
77180 On ch=1 n=50 v=114
77183 Par ch=1 c=2 v=80
77189 Par ch=1 c=2 v=103
77195 Par ch=1 c=2 v=114
77196 ChPr ch=1 v=26
77201 Par ch=1 c=2 v=116
77202 ChPr ch=1 v=32
77208 Par ch=1 c=2 v=114
77209 ChPr ch=1 v=7
77214 Pb ch=1 v=1093
77215 Par ch=1 c=2 v=103
77215 ChPr ch=1 v=0
77221 Pb ch=1 v=2705
77222 Par ch=1 c=2 v=91
77227 Pb ch=1 v=4473
77228 Par ch=1 c=2 v=73
77234 Pb ch=1 v=5929
77234 Par ch=1 c=2 v=49
77240 Pb ch=1 v=7385
77241 Par ch=1 c=2 v=15
77247 Pb ch=1 v=8192
77248 Par ch=1 c=2 v=0
77289 On ch=1 n=54 v=114
77291 On ch=1 n=50 v=0
77491 On ch=1 n=54 v=0
77568 Par ch=1 c=2 v=37
77568 Pb ch=1 v=0
77571 On ch=1 n=52 v=105
77572 On ch=1 n=45 v=105
77576 Par ch=1 c=2 v=56
77580 Par ch=1 c=2 v=76
77587 Par ch=1 c=2 v=100
77594 Par ch=1 c=2 v=105
77607 Pb ch=1 v=1119
77613 Pb ch=1 v=2497
77620 Pb ch=1 v=4005
77620 Par ch=1 c=2 v=99
77627 Pb ch=1 v=5175
77627 Par ch=1 c=2 v=90
77633 Pb ch=1 v=6371
77634 Par ch=1 c=2 v=78
77640 Pb ch=1 v=7359
77640 Par ch=1 c=2 v=65
77646 Pb ch=1 v=8061
77647 Par ch=1 c=2 v=50
77653 Pb ch=1 v=8192
77653 Par ch=1 c=2 v=37
77659 Par ch=1 c=2 v=23
77666 Par ch=1 c=2 v=10
77672 Par ch=1 c=2 v=0
77866 Off ch=1 n=45 v=0
77885 Off ch=1 n=52 v=0
77906 Pb ch=1 v=6605
77913 Pb ch=1 v=4369
77919 Pb ch=1 v=1717
77926 Pb ch=1 v=0
77934 On ch=1 n=52 v=114
77939 Par ch=1 c=2 v=16
77945 Par ch=1 c=2 v=46
77955 Par ch=1 c=2 v=78
77955 ChPr ch=1 v=13
77958 Par ch=1 c=2 v=103
77959 ChPr ch=1 v=11
77965 Par ch=1 c=2 v=120
77965 ChPr ch=1 v=0
77971 Par ch=1 c=2 v=127
77977 Pb ch=1 v=209
77984 Pb ch=1 v=1925
77985 Par ch=1 c=2 v=122
77990 Pb ch=1 v=4109
77991 Par ch=1 c=2 v=106
77997 Pb ch=1 v=6319
77998 Par ch=1 c=2 v=86
78003 Pb ch=1 v=8087
78004 Par ch=1 c=2 v=66
78010 Pb ch=1 v=8192
78011 Par ch=1 c=2 v=41
78017 Par ch=1 c=2 v=12
78023 Par ch=1 c=2 v=0
78049 On ch=1 n=57 v=105
78055 On ch=1 n=52 v=0
78144 On ch=1 n=52 v=114
78149 On ch=1 n=57 v=0
78160 ChPr ch=1 v=13
78167 ChPr ch=1 v=16
78174 ChPr ch=1 v=6
78181 ChPr ch=1 v=0
78200 ChPr ch=1 v=8
78206 ChPr ch=1 v=17
78213 ChPr ch=1 v=23
78219 ChPr ch=1 v=40
78226 ChPr ch=1 v=45
78232 ChPr ch=1 v=67
78239 ChPr ch=1 v=127
78278 ChPr ch=1 v=3
78284 ChPr ch=1 v=0
78296 Off ch=1 n=52 v=0
78336 Par ch=1 c=2 v=38
78336 Pb ch=1 v=0
78343 Par ch=1 c=2 v=60
78343 On ch=1 n=42 v=114
78343 On ch=1 n=47 v=105
78347 Par ch=1 c=2 v=83
78353 Par ch=1 c=2 v=100
78360 Par ch=1 c=2 v=113
78366 Par ch=1 c=2 v=120
78373 Par ch=1 c=2 v=123
78379 Pb ch=1 v=1171
78380 Par ch=1 c=2 v=126
78385 Pb ch=1 v=2809
78392 Pb ch=1 v=4603
78399 Pb ch=1 v=6371
78399 Par ch=1 c=2 v=121
78405 Pb ch=1 v=7671
78405 Par ch=1 c=2 v=113
78412 Pb ch=1 v=8192
78412 Par ch=1 c=2 v=102
78418 Par ch=1 c=2 v=91
78424 Par ch=1 c=2 v=74
78431 Par ch=1 c=2 v=51
78438 Par ch=1 c=2 v=27
78444 Par ch=1 c=2 v=2
78450 Par ch=1 c=2 v=0
78614 Off ch=1 n=42 v=0
78635 Off ch=1 n=47 v=0
78660 Pb ch=1 v=7567
78667 Pb ch=1 v=5825
78673 Pb ch=1 v=3719
78680 Pb ch=1 v=1431
78686 Pb ch=1 v=0
78699 Par ch=1 c=2 v=20
78704 On ch=1 n=47 v=105
78706 Par ch=1 c=2 v=49
78711 Par ch=1 c=2 v=83
78719 Par ch=1 c=2 v=109
78725 Par ch=1 c=2 v=126
78731 Pb ch=1 v=1015
78732 Par ch=1 c=2 v=127
78737 Pb ch=1 v=2939
78744 Pb ch=1 v=4967
78750 Pb ch=1 v=6839
78751 Par ch=1 c=2 v=111
78757 Pb ch=1 v=8192
78758 Par ch=1 c=2 v=87
78764 Par ch=1 c=2 v=56
78770 Par ch=1 c=2 v=23
78776 Par ch=1 c=2 v=0
78806 On ch=1 n=50 v=102
78814 On ch=1 n=47 v=0
78891 On ch=1 n=42 v=108
78896 On ch=1 n=50 v=0
78987 On ch=1 n=42 v=0
78995 On ch=1 n=38 v=111
79012 ChPr ch=1 v=5
79019 ChPr ch=1 v=127
79032 ChPr ch=1 v=3
79038 ChPr ch=1 v=0
79093 Off ch=1 n=38 v=0
79104 On ch=1 n=43 v=114
79128 On ch=1 n=43 v=0
79150 On ch=1 n=43 v=108
79159 ChPr ch=1 v=47
79165 ChPr ch=1 v=127
79171 ChPr ch=1 v=28
79178 ChPr ch=1 v=0
79184 Off ch=1 n=43 v=0
79253 On ch=1 n=43 v=114
79263 ChPr ch=1 v=127
79282 ChPr ch=1 v=21
79289 ChPr ch=1 v=0
79296 ChPr ch=1 v=4
79301 ChPr ch=1 v=10
79308 ChPr ch=1 v=5
79315 ChPr ch=1 v=0
79336 Off ch=1 n=43 v=0
79431 Pb ch=1 v=6579
79437 Pb ch=1 v=3875
79443 Pb ch=1 v=1093
79450 Pb ch=1 v=0
79451 Par ch=1 c=2 v=2
79456 Par ch=1 c=2 v=24
79463 Par ch=1 c=2 v=51
79470 Par ch=1 c=2 v=83
79476 Par ch=1 c=2 v=112
79482 Par ch=1 c=2 v=127
79488 On ch=1 n=38 v=114
79502 Pb ch=1 v=1015
79509 Pb ch=1 v=3095
79509 ChPr ch=1 v=40
79515 Pb ch=1 v=5123
79515 Par ch=1 c=2 v=107
79517 ChPr ch=1 v=4
79522 Pb ch=1 v=6995
79522 Par ch=1 c=2 v=83
79523 ChPr ch=1 v=0
79529 Pb ch=1 v=8192
79529 Par ch=1 c=2 v=53
79535 Par ch=1 c=2 v=23
79542 Par ch=1 c=2 v=0
79580 On ch=1 n=43 v=111
79581 On ch=1 n=38 v=0
79675 On ch=1 n=38 v=117
79687 On ch=1 n=43 v=0
79758 On ch=1 n=38 v=0
79764 On ch=1 n=33 v=114
79778 ChPr ch=1 v=127
79791 ChPr ch=1 v=112
79797 ChPr ch=1 v=3
79803 ChPr ch=1 v=0
79817 ChPr ch=1 v=6
79823 ChPr ch=1 v=4
79829 ChPr ch=1 v=0
79851 Off ch=1 n=33 v=0
79851 Meta TrkEnd
TrkEnd
MTrk
0 Meta Text "{GNMIDI}Generated by illegal use of GNMIDI 2.0 demo after 41 days (only 14 days free testing allowed)\n"
0 Meta TrkName "SteelGtr"
0 Par ch=2 c=0 v=0
0 Par ch=2 c=7 v=103
0 Par ch=2 c=10 v=64
0 Par ch=2 c=93 v=0
0 Par ch=2 c=91 v=40
2 Par ch=2 c=32 v=0
2 PrCh ch=2 p=25
24672 On ch=2 n=74 v=84
24672 On ch=2 n=69 v=105
24699 On ch=2 n=74 v=0
24704 On ch=2 n=69 v=0
24720 On ch=2 n=69 v=90
24720 On ch=2 n=66 v=102
24774 On ch=2 n=66 v=0
24780 On ch=2 n=69 v=0
24816 On ch=2 n=69 v=87
24816 On ch=2 n=74 v=90
24839 On ch=2 n=69 v=0
24844 On ch=2 n=74 v=0
24864 On ch=2 n=66 v=108
24864 On ch=2 n=62 v=93
24951 On ch=2 n=66 v=0
24962 On ch=2 n=62 v=0
25008 On ch=2 n=81 v=108
25036 On ch=2 n=81 v=0
25056 On ch=2 n=81 v=105
25132 On ch=2 n=81 v=0
25152 On ch=2 n=79 v=105
25193 On ch=2 n=79 v=0
25200 On ch=2 n=78 v=114
25248 On ch=2 n=76 v=108
25250 On ch=2 n=78 v=0
25316 On ch=2 n=76 v=0
25440 On ch=2 n=73 v=114
25474 On ch=2 n=73 v=0
25488 On ch=2 n=69 v=105
25536 On ch=2 n=69 v=0
25584 On ch=2 n=73 v=108
25613 On ch=2 n=73 v=0
25632 On ch=2 n=64 v=105
25725 On ch=2 n=64 v=0
25776 On ch=2 n=81 v=96
25801 On ch=2 n=81 v=0
25824 On ch=2 n=81 v=102
25899 On ch=2 n=81 v=0
25920 On ch=2 n=79 v=105
25960 On ch=2 n=79 v=0
25968 On ch=2 n=78 v=117
26016 On ch=2 n=76 v=108
26022 On ch=2 n=78 v=0
26082 On ch=2 n=76 v=0
26201 On ch=2 n=78 v=117
26238 On ch=2 n=78 v=0
26259 On ch=2 n=74 v=105
26307 On ch=2 n=74 v=0
26352 On ch=2 n=78 v=114
26386 On ch=2 n=78 v=0
26396 On ch=2 n=74 v=108
26436 On ch=2 n=74 v=0
26441 Pb ch=2 v=8113
26449 Pb ch=2 v=5825
26454 Pb ch=2 v=3095
26462 Pb ch=2 v=885
26467 Pb ch=2 v=0
26468 Par ch=2 c=2 v=17
26475 Par ch=2 c=2 v=44
26481 Par ch=2 c=2 v=75
26488 Par ch=2 c=2 v=102
26493 On ch=2 n=83 v=105
26494 Par ch=2 c=2 v=125
26500 Par ch=2 c=2 v=127
26507 Pb ch=2 v=1301
26514 Pb ch=2 v=3147
26520 Pb ch=2 v=5305
26520 Par ch=2 c=2 v=123
26527 Pb ch=2 v=7463
26527 Par ch=2 c=2 v=100
26533 Pb ch=2 v=8192
26533 Par ch=2 c=2 v=77
26539 Par ch=2 c=2 v=48
26546 Par ch=2 c=2 v=18
26552 Par ch=2 c=2 v=0
26561 Off ch=2 n=83 v=0
26601 On ch=2 n=74 v=105
26645 On ch=2 n=74 v=0
26692 On ch=2 n=83 v=102
26736 On ch=2 n=83 v=0
26769 On ch=2 n=74 v=105
26803 On ch=2 n=74 v=0
26824 On ch=2 n=83 v=96
26868 On ch=2 n=83 v=0
26932 On ch=2 n=79 v=111
26945 ChPr ch=2 v=29
26953 ChPr ch=2 v=127
26958 ChPr ch=2 v=6
26965 ChPr ch=2 v=0
27018 Off ch=2 n=79 v=0
27120 On ch=2 n=71 v=114
27157 On ch=2 n=71 v=0
27169 On ch=2 n=67 v=108
27205 On ch=2 n=67 v=0
27264 On ch=2 n=79 v=111
27321 On ch=2 n=79 v=0
27353 On ch=2 n=74 v=93
27391 On ch=2 n=74 v=0
27445 On ch=2 n=71 v=105
27450 On ch=2 n=79 v=111
27460 ChPr ch=2 v=2
27466 ChPr ch=2 v=31
27474 ChPr ch=2 v=0
27504 Off ch=2 n=71 v=0
27511 Off ch=2 n=79 v=0
27544 On ch=2 n=78 v=117
27545 On ch=2 n=69 v=96
27640 On ch=2 n=69 v=0
27648 On ch=2 n=78 v=0
27744 On ch=2 n=74 v=84
27744 On ch=2 n=69 v=105
27771 On ch=2 n=74 v=0
27776 On ch=2 n=69 v=0
27792 On ch=2 n=69 v=90
27792 On ch=2 n=66 v=102
27846 On ch=2 n=66 v=0
27852 On ch=2 n=69 v=0
27888 On ch=2 n=69 v=87
27888 On ch=2 n=74 v=90
27911 On ch=2 n=69 v=0
27916 On ch=2 n=74 v=0
27936 On ch=2 n=66 v=108
27936 On ch=2 n=62 v=93
28023 On ch=2 n=66 v=0
28034 On ch=2 n=62 v=0
28080 On ch=2 n=81 v=108
28108 On ch=2 n=81 v=0
28128 On ch=2 n=81 v=105
28204 On ch=2 n=81 v=0
28224 On ch=2 n=79 v=105
28265 On ch=2 n=79 v=0
28272 On ch=2 n=78 v=114
28320 On ch=2 n=76 v=108
28322 On ch=2 n=78 v=0
28388 On ch=2 n=76 v=0
28512 On ch=2 n=73 v=114
28546 On ch=2 n=73 v=0
28560 On ch=2 n=69 v=105
28608 On ch=2 n=69 v=0
28656 On ch=2 n=73 v=108
28685 On ch=2 n=73 v=0
28704 On ch=2 n=64 v=105
28797 On ch=2 n=64 v=0
28848 On ch=2 n=81 v=96
28873 On ch=2 n=81 v=0
28896 On ch=2 n=81 v=102
28971 On ch=2 n=81 v=0
28992 On ch=2 n=79 v=105
29032 On ch=2 n=79 v=0
29040 On ch=2 n=78 v=117
29088 On ch=2 n=76 v=108
29094 On ch=2 n=78 v=0
29154 On ch=2 n=76 v=0
29261 On ch=2 n=78 v=127
29291 On ch=2 n=78 v=0
29324 On ch=2 n=74 v=108
29366 On ch=2 n=74 v=0
29415 On ch=2 n=78 v=117
29445 On ch=2 n=78 v=0
29457 On ch=2 n=74 v=108
29494 Pb ch=2 v=7099
29497 Off ch=2 n=74 v=0
29501 Pb ch=2 v=4109
29506 Pb ch=2 v=729
29513 Pb ch=2 v=0
29514 Par ch=2 c=2 v=3
29520 Par ch=2 c=2 v=29
29526 Par ch=2 c=2 v=61
29532 Par ch=2 c=2 v=95
29539 Par ch=2 c=2 v=123
29546 Par ch=2 c=2 v=127
29554 On ch=2 n=83 v=105
29558 Pb ch=2 v=781
29566 Pb ch=2 v=3147
29571 Pb ch=2 v=5461
29572 Par ch=2 c=2 v=126
29578 Pb ch=2 v=7749
29578 Par ch=2 c=2 v=103
29584 Pb ch=2 v=8192
29585 Par ch=2 c=2 v=78
29591 Par ch=2 c=2 v=48
29597 Par ch=2 c=2 v=15
29605 Par ch=2 c=2 v=0
29626 Off ch=2 n=83 v=0
29659 On ch=2 n=74 v=108
29706 On ch=2 n=74 v=0
29759 On ch=2 n=83 v=105
29800 On ch=2 n=83 v=0
29838 On ch=2 n=74 v=105
29874 On ch=2 n=74 v=0
29894 On ch=2 n=83 v=105
29934 On ch=2 n=83 v=0
30001 On ch=2 n=79 v=111
30127 On ch=2 n=79 v=0
30335 On ch=2 n=74 v=108
30375 On ch=2 n=74 v=0
30379 On ch=2 n=83 v=96
30419 On ch=2 n=83 v=0
30430 On ch=2 n=73 v=114
30456 On ch=2 n=73 v=0
30470 On ch=2 n=81 v=90
30507 On ch=2 n=81 v=0
30518 On ch=2 n=71 v=111
30550 On ch=2 n=71 v=0
30563 On ch=2 n=79 v=105
30593 On ch=2 n=79 v=0
30610 On ch=2 n=69 v=84
30622 On ch=2 n=78 v=117
30679 On ch=2 n=69 v=0
30686 On ch=2 n=78 v=0
67680 On ch=2 n=74 v=84
67680 On ch=2 n=69 v=105
67707 On ch=2 n=74 v=0
67712 On ch=2 n=69 v=0
67728 On ch=2 n=69 v=90
67728 On ch=2 n=66 v=102
67782 On ch=2 n=66 v=0
67788 On ch=2 n=69 v=0
67824 On ch=2 n=69 v=87
67824 On ch=2 n=74 v=90
67847 On ch=2 n=69 v=0
67852 On ch=2 n=74 v=0
67872 On ch=2 n=66 v=108
67872 On ch=2 n=62 v=93
67959 On ch=2 n=66 v=0
67970 On ch=2 n=62 v=0
68016 On ch=2 n=81 v=108
68044 On ch=2 n=81 v=0
68064 On ch=2 n=81 v=105
68140 On ch=2 n=81 v=0
68160 On ch=2 n=79 v=105
68201 On ch=2 n=79 v=0
68208 On ch=2 n=78 v=114
68256 On ch=2 n=76 v=108
68258 On ch=2 n=78 v=0
68324 On ch=2 n=76 v=0
68448 On ch=2 n=73 v=114
68482 On ch=2 n=73 v=0
68496 On ch=2 n=69 v=105
68544 On ch=2 n=69 v=0
68592 On ch=2 n=73 v=108
68621 On ch=2 n=73 v=0
68640 On ch=2 n=64 v=105
68733 On ch=2 n=64 v=0
68784 On ch=2 n=81 v=96
68809 On ch=2 n=81 v=0
68832 On ch=2 n=81 v=102
68907 On ch=2 n=81 v=0
68928 On ch=2 n=79 v=105
68968 On ch=2 n=79 v=0
68976 On ch=2 n=78 v=117
69024 On ch=2 n=76 v=108
69030 On ch=2 n=78 v=0
69090 On ch=2 n=76 v=0
69209 On ch=2 n=78 v=117
69246 On ch=2 n=78 v=0
69267 On ch=2 n=74 v=105
69315 On ch=2 n=74 v=0
69360 On ch=2 n=78 v=114
69394 On ch=2 n=78 v=0
69404 On ch=2 n=74 v=108
69444 On ch=2 n=74 v=0
69449 Pb ch=2 v=8113
69457 Pb ch=2 v=5825
69462 Pb ch=2 v=3095
69470 Pb ch=2 v=885
69475 Pb ch=2 v=0
69476 Par ch=2 c=2 v=17
69483 Par ch=2 c=2 v=44
69489 Par ch=2 c=2 v=75
69496 Par ch=2 c=2 v=102
69501 On ch=2 n=83 v=105
69502 Par ch=2 c=2 v=125
69508 Par ch=2 c=2 v=127
69515 Pb ch=2 v=1301
69522 Pb ch=2 v=3147
69528 Pb ch=2 v=5305
69528 Par ch=2 c=2 v=123
69535 Pb ch=2 v=7463
69535 Par ch=2 c=2 v=100
69541 Pb ch=2 v=8192
69541 Par ch=2 c=2 v=77
69547 Par ch=2 c=2 v=48
69554 Par ch=2 c=2 v=18
69560 Par ch=2 c=2 v=0
69569 Off ch=2 n=83 v=0
69609 On ch=2 n=74 v=105
69653 On ch=2 n=74 v=0
69700 On ch=2 n=83 v=102
69744 On ch=2 n=83 v=0
69777 On ch=2 n=74 v=105
69811 On ch=2 n=74 v=0
69832 On ch=2 n=83 v=96
69876 On ch=2 n=83 v=0
69940 On ch=2 n=79 v=111
69953 ChPr ch=2 v=29
69961 ChPr ch=2 v=127
69966 ChPr ch=2 v=6
69973 ChPr ch=2 v=0
70026 Off ch=2 n=79 v=0
70128 On ch=2 n=71 v=114
70165 On ch=2 n=71 v=0
70177 On ch=2 n=67 v=108
70213 On ch=2 n=67 v=0
70272 On ch=2 n=79 v=111
70329 On ch=2 n=79 v=0
70361 On ch=2 n=74 v=93
70399 On ch=2 n=74 v=0
70453 On ch=2 n=71 v=105
70458 On ch=2 n=79 v=111
70468 ChPr ch=2 v=2
70474 ChPr ch=2 v=31
70482 ChPr ch=2 v=0
70512 Off ch=2 n=71 v=0
70519 Off ch=2 n=79 v=0
70552 On ch=2 n=78 v=117
70553 On ch=2 n=69 v=96
70648 On ch=2 n=69 v=0
70656 On ch=2 n=78 v=0
70752 On ch=2 n=74 v=84
70752 On ch=2 n=69 v=105
70779 On ch=2 n=74 v=0
70784 On ch=2 n=69 v=0
70800 On ch=2 n=69 v=90
70800 On ch=2 n=66 v=102
70854 On ch=2 n=66 v=0
70860 On ch=2 n=69 v=0
70896 On ch=2 n=69 v=87
70896 On ch=2 n=74 v=90
70919 On ch=2 n=69 v=0
70924 On ch=2 n=74 v=0
70944 On ch=2 n=66 v=108
70944 On ch=2 n=62 v=93
71031 On ch=2 n=66 v=0
71042 On ch=2 n=62 v=0
71088 On ch=2 n=81 v=108
71116 On ch=2 n=81 v=0
71136 On ch=2 n=81 v=105
71212 On ch=2 n=81 v=0
71232 On ch=2 n=79 v=105
71273 On ch=2 n=79 v=0
71280 On ch=2 n=78 v=114
71328 On ch=2 n=76 v=108
71330 On ch=2 n=78 v=0
71396 On ch=2 n=76 v=0
71520 On ch=2 n=73 v=114
71554 On ch=2 n=73 v=0
71568 On ch=2 n=69 v=105
71616 On ch=2 n=69 v=0
71664 On ch=2 n=73 v=108
71693 On ch=2 n=73 v=0
71712 On ch=2 n=64 v=105
71805 On ch=2 n=64 v=0
71856 On ch=2 n=81 v=96
71881 On ch=2 n=81 v=0
71904 On ch=2 n=81 v=102
71979 On ch=2 n=81 v=0
72000 On ch=2 n=79 v=105
72040 On ch=2 n=79 v=0
72048 On ch=2 n=78 v=117
72096 On ch=2 n=76 v=108
72102 On ch=2 n=78 v=0
72162 On ch=2 n=76 v=0
72269 On ch=2 n=78 v=127
72299 On ch=2 n=78 v=0
72332 On ch=2 n=74 v=108
72374 On ch=2 n=74 v=0
72423 On ch=2 n=78 v=117
72453 On ch=2 n=78 v=0
72465 On ch=2 n=74 v=108
72502 Pb ch=2 v=7099
72505 Off ch=2 n=74 v=0
72509 Pb ch=2 v=4109
72514 Pb ch=2 v=729
72521 Pb ch=2 v=0
72522 Par ch=2 c=2 v=3
72528 Par ch=2 c=2 v=29
72534 Par ch=2 c=2 v=61
72540 Par ch=2 c=2 v=95
72547 Par ch=2 c=2 v=123
72554 Par ch=2 c=2 v=127
72562 On ch=2 n=83 v=105
72566 Pb ch=2 v=781
72574 Pb ch=2 v=3147
72579 Pb ch=2 v=5461
72580 Par ch=2 c=2 v=126
72586 Pb ch=2 v=7749
72586 Par ch=2 c=2 v=103
72592 Pb ch=2 v=8192
72593 Par ch=2 c=2 v=78
72599 Par ch=2 c=2 v=48
72605 Par ch=2 c=2 v=15
72613 Par ch=2 c=2 v=0
72634 Off ch=2 n=83 v=0
72667 On ch=2 n=74 v=108
72714 On ch=2 n=74 v=0
72767 On ch=2 n=83 v=105
72808 On ch=2 n=83 v=0
72846 On ch=2 n=74 v=105
72882 On ch=2 n=74 v=0
72902 On ch=2 n=83 v=105
72942 On ch=2 n=83 v=0
73009 On ch=2 n=79 v=111
73135 On ch=2 n=79 v=0
73343 On ch=2 n=74 v=108
73383 On ch=2 n=74 v=0
73387 On ch=2 n=83 v=96
73427 On ch=2 n=83 v=0
73438 On ch=2 n=73 v=114
73464 On ch=2 n=73 v=0
73478 On ch=2 n=81 v=90
73515 On ch=2 n=81 v=0
73526 On ch=2 n=71 v=111
73558 On ch=2 n=71 v=0
73571 On ch=2 n=79 v=105
73601 On ch=2 n=79 v=0
73618 On ch=2 n=69 v=84
73630 On ch=2 n=78 v=117
73687 On ch=2 n=69 v=0
73694 On ch=2 n=78 v=0
73824 On ch=2 n=74 v=84
73824 On ch=2 n=69 v=105
73851 On ch=2 n=74 v=0
73856 On ch=2 n=69 v=0
73872 On ch=2 n=69 v=90
73872 On ch=2 n=66 v=102
73926 On ch=2 n=66 v=0
73932 On ch=2 n=69 v=0
73968 On ch=2 n=69 v=87
73968 On ch=2 n=74 v=90
73991 On ch=2 n=69 v=0
73996 On ch=2 n=74 v=0
74016 On ch=2 n=66 v=108
74016 On ch=2 n=62 v=93
74103 On ch=2 n=66 v=0
74114 On ch=2 n=62 v=0
74160 On ch=2 n=81 v=108
74188 On ch=2 n=81 v=0
74208 On ch=2 n=81 v=105
74284 On ch=2 n=81 v=0
74304 On ch=2 n=79 v=105
74345 On ch=2 n=79 v=0
74352 On ch=2 n=78 v=114
74400 On ch=2 n=76 v=108
74402 On ch=2 n=78 v=0
74468 On ch=2 n=76 v=0
74592 On ch=2 n=73 v=114
74626 On ch=2 n=73 v=0
74640 On ch=2 n=69 v=105
74688 On ch=2 n=69 v=0
74736 On ch=2 n=73 v=108
74765 On ch=2 n=73 v=0
74784 On ch=2 n=64 v=105
74877 On ch=2 n=64 v=0
74928 On ch=2 n=81 v=96
74953 On ch=2 n=81 v=0
74976 On ch=2 n=81 v=102
75051 On ch=2 n=81 v=0
75072 On ch=2 n=79 v=105
75112 On ch=2 n=79 v=0
75120 On ch=2 n=78 v=117
75168 On ch=2 n=76 v=108
75174 On ch=2 n=78 v=0
75234 On ch=2 n=76 v=0
75353 On ch=2 n=78 v=117
75390 On ch=2 n=78 v=0
75411 On ch=2 n=74 v=105
75459 On ch=2 n=74 v=0
75504 On ch=2 n=78 v=114
75538 On ch=2 n=78 v=0
75548 On ch=2 n=74 v=108
75588 On ch=2 n=74 v=0
75593 Pb ch=2 v=8113
75601 Pb ch=2 v=5825
75606 Pb ch=2 v=3095
75614 Pb ch=2 v=885
75619 Pb ch=2 v=0
75620 Par ch=2 c=2 v=17
75627 Par ch=2 c=2 v=44
75633 Par ch=2 c=2 v=75
75640 Par ch=2 c=2 v=102
75645 On ch=2 n=83 v=105
75646 Par ch=2 c=2 v=125
75652 Par ch=2 c=2 v=127
75659 Pb ch=2 v=1301
75666 Pb ch=2 v=3147
75672 Pb ch=2 v=5305
75672 Par ch=2 c=2 v=123
75679 Pb ch=2 v=7463
75679 Par ch=2 c=2 v=100
75685 Pb ch=2 v=8192
75685 Par ch=2 c=2 v=77
75691 Par ch=2 c=2 v=48
75698 Par ch=2 c=2 v=18
75704 Par ch=2 c=2 v=0
75713 Off ch=2 n=83 v=0
75753 On ch=2 n=74 v=105
75797 On ch=2 n=74 v=0
75844 On ch=2 n=83 v=102
75888 On ch=2 n=83 v=0
75921 On ch=2 n=74 v=105
75955 On ch=2 n=74 v=0
75976 On ch=2 n=83 v=96
76020 On ch=2 n=83 v=0
76084 On ch=2 n=79 v=111
76097 ChPr ch=2 v=29
76105 ChPr ch=2 v=127
76110 ChPr ch=2 v=6
76117 ChPr ch=2 v=0
76170 Off ch=2 n=79 v=0
76272 On ch=2 n=71 v=114
76309 On ch=2 n=71 v=0
76321 On ch=2 n=67 v=108
76357 On ch=2 n=67 v=0
76416 On ch=2 n=79 v=111
76473 On ch=2 n=79 v=0
76505 On ch=2 n=74 v=93
76543 On ch=2 n=74 v=0
76597 On ch=2 n=71 v=105
76602 On ch=2 n=79 v=111
76612 ChPr ch=2 v=2
76618 ChPr ch=2 v=31
76626 ChPr ch=2 v=0
76656 Off ch=2 n=71 v=0
76663 Off ch=2 n=79 v=0
76696 On ch=2 n=78 v=117
76697 On ch=2 n=69 v=96
76792 On ch=2 n=69 v=0
76800 On ch=2 n=78 v=0
76896 On ch=2 n=74 v=84
76896 On ch=2 n=69 v=105
76923 On ch=2 n=74 v=0
76928 On ch=2 n=69 v=0
76944 On ch=2 n=69 v=90
76944 On ch=2 n=66 v=102
76998 On ch=2 n=66 v=0
77004 On ch=2 n=69 v=0
77040 On ch=2 n=69 v=87
77040 On ch=2 n=74 v=90
77063 On ch=2 n=69 v=0
77068 On ch=2 n=74 v=0
77088 On ch=2 n=66 v=108
77088 On ch=2 n=62 v=93
77175 On ch=2 n=66 v=0
77186 On ch=2 n=62 v=0
77232 On ch=2 n=81 v=108
77260 On ch=2 n=81 v=0
77280 On ch=2 n=81 v=105
77356 On ch=2 n=81 v=0
77376 On ch=2 n=79 v=105
77417 On ch=2 n=79 v=0
77424 On ch=2 n=78 v=114
77472 On ch=2 n=76 v=108
77474 On ch=2 n=78 v=0
77540 On ch=2 n=76 v=0
77664 On ch=2 n=73 v=114
77698 On ch=2 n=73 v=0
77712 On ch=2 n=69 v=105
77760 On ch=2 n=69 v=0
77808 On ch=2 n=73 v=108
77837 On ch=2 n=73 v=0
77856 On ch=2 n=64 v=105
77949 On ch=2 n=64 v=0
78000 On ch=2 n=81 v=96
78025 On ch=2 n=81 v=0
78048 On ch=2 n=81 v=102
78123 On ch=2 n=81 v=0
78144 On ch=2 n=79 v=105
78184 On ch=2 n=79 v=0
78192 On ch=2 n=78 v=117
78240 On ch=2 n=76 v=108
78246 On ch=2 n=78 v=0
78306 On ch=2 n=76 v=0
78413 On ch=2 n=78 v=127
78443 On ch=2 n=78 v=0
78476 On ch=2 n=74 v=108
78518 On ch=2 n=74 v=0
78567 On ch=2 n=78 v=117
78597 On ch=2 n=78 v=0
78609 On ch=2 n=74 v=108
78646 Pb ch=2 v=7099
78649 Off ch=2 n=74 v=0
78653 Pb ch=2 v=4109
78658 Pb ch=2 v=729
78665 Pb ch=2 v=0
78666 Par ch=2 c=2 v=3
78672 Par ch=2 c=2 v=29
78678 Par ch=2 c=2 v=61
78684 Par ch=2 c=2 v=95
78691 Par ch=2 c=2 v=123
78698 Par ch=2 c=2 v=127
78706 On ch=2 n=83 v=105
78710 Pb ch=2 v=781
78718 Pb ch=2 v=3147
78723 Pb ch=2 v=5461
78724 Par ch=2 c=2 v=126
78730 Pb ch=2 v=7749
78730 Par ch=2 c=2 v=103
78736 Pb ch=2 v=8192
78737 Par ch=2 c=2 v=78
78743 Par ch=2 c=2 v=48
78749 Par ch=2 c=2 v=15
78757 Par ch=2 c=2 v=0
78778 Off ch=2 n=83 v=0
78811 On ch=2 n=74 v=108
78858 On ch=2 n=74 v=0
78911 On ch=2 n=83 v=105
78952 On ch=2 n=83 v=0
78990 On ch=2 n=74 v=105
79026 On ch=2 n=74 v=0
79046 On ch=2 n=83 v=105
79086 On ch=2 n=83 v=0
79153 On ch=2 n=79 v=111
79279 On ch=2 n=79 v=0
79487 On ch=2 n=74 v=108
79527 On ch=2 n=74 v=0
79531 On ch=2 n=83 v=96
79571 On ch=2 n=83 v=0
79582 On ch=2 n=73 v=114
79608 On ch=2 n=73 v=0
79622 On ch=2 n=81 v=90
79659 On ch=2 n=81 v=0
79670 On ch=2 n=71 v=111
79702 On ch=2 n=71 v=0
79715 On ch=2 n=79 v=105
79745 On ch=2 n=79 v=0
79762 On ch=2 n=69 v=84
79774 On ch=2 n=78 v=117
79831 On ch=2 n=69 v=0
79838 On ch=2 n=78 v=0
79851 Meta TrkEnd
TrkEnd
MTrk
0 Meta Text "{GNMIDI}Generated by illegal use of GNMIDI 2.0 demo after 41 days (only 14 days free testing allowed)\n"
0 Meta TrkName "BariSax"
0 Par ch=3 c=0 v=0
0 Par ch=3 c=7 v=106
0 Par ch=3 c=10 v=64
0 Par ch=3 c=93 v=0
0 Par ch=3 c=91 v=40
2 Par ch=3 c=32 v=0
2 PrCh ch=3 p=67
3072 On ch=3 n=38 v=117
3072 ChPr ch=3 v=127
3078 ChPr ch=3 v=0
3085 ChPr ch=3 v=127
3105 ChPr ch=3 v=23
3111 ChPr ch=3 v=0
3131 ChPr ch=3 v=6
3137 ChPr ch=3 v=42
3144 ChPr ch=3 v=80
3150 ChPr ch=3 v=127
3202 ChPr ch=3 v=96
3208 ChPr ch=3 v=8
3215 ChPr ch=3 v=0
3230 On ch=3 n=41 v=114
3243 On ch=3 n=38 v=0
3254 ChPr ch=3 v=8
3261 ChPr ch=3 v=12
3267 ChPr ch=3 v=0
3293 ChPr ch=3 v=4
3300 ChPr ch=3 v=8
3307 ChPr ch=3 v=16
3313 ChPr ch=3 v=19
3319 ChPr ch=3 v=21
3326 ChPr ch=3 v=42
3333 ChPr ch=3 v=58
3339 ChPr ch=3 v=31
3345 ChPr ch=3 v=0
3367 Off ch=3 n=41 v=0
4608 On ch=3 n=38 v=117
4608 ChPr ch=3 v=127
4614 ChPr ch=3 v=0
4621 ChPr ch=3 v=127
4641 ChPr ch=3 v=23
4647 ChPr ch=3 v=0
4667 ChPr ch=3 v=6
4673 ChPr ch=3 v=42
4680 ChPr ch=3 v=80
4686 ChPr ch=3 v=127
4738 ChPr ch=3 v=96
4744 ChPr ch=3 v=8
4751 ChPr ch=3 v=0
4766 On ch=3 n=41 v=114
4779 On ch=3 n=38 v=0
4790 ChPr ch=3 v=8
4797 ChPr ch=3 v=12
4803 ChPr ch=3 v=0
4829 ChPr ch=3 v=4
4836 ChPr ch=3 v=8
4843 ChPr ch=3 v=16
4849 ChPr ch=3 v=19
4855 ChPr ch=3 v=21
4862 ChPr ch=3 v=42
4869 ChPr ch=3 v=58
4875 ChPr ch=3 v=31
4881 ChPr ch=3 v=0
4903 Off ch=3 n=41 v=0
6144 On ch=3 n=38 v=117
6144 ChPr ch=3 v=127
6150 ChPr ch=3 v=0
6157 ChPr ch=3 v=127
6177 ChPr ch=3 v=23
6183 ChPr ch=3 v=0
6203 ChPr ch=3 v=6
6209 ChPr ch=3 v=42
6216 ChPr ch=3 v=80
6222 ChPr ch=3 v=127
6274 ChPr ch=3 v=96
6280 ChPr ch=3 v=8
6287 ChPr ch=3 v=0
6302 On ch=3 n=41 v=114
6315 On ch=3 n=38 v=0
6326 ChPr ch=3 v=8
6333 ChPr ch=3 v=12
6339 ChPr ch=3 v=0
6365 ChPr ch=3 v=4
6372 ChPr ch=3 v=8
6379 ChPr ch=3 v=16
6385 ChPr ch=3 v=19
6391 ChPr ch=3 v=21
6398 ChPr ch=3 v=42
6405 ChPr ch=3 v=58
6411 ChPr ch=3 v=31
6417 ChPr ch=3 v=0
6439 Off ch=3 n=41 v=0
7680 On ch=3 n=38 v=117
7680 ChPr ch=3 v=127
7686 ChPr ch=3 v=0
7693 ChPr ch=3 v=127
7713 ChPr ch=3 v=23
7719 ChPr ch=3 v=0
7739 ChPr ch=3 v=6
7745 ChPr ch=3 v=42
7752 ChPr ch=3 v=80
7758 ChPr ch=3 v=127
7810 ChPr ch=3 v=96
7816 ChPr ch=3 v=8
7823 ChPr ch=3 v=0
7838 On ch=3 n=41 v=114
7851 On ch=3 n=38 v=0
7862 ChPr ch=3 v=8
7869 ChPr ch=3 v=12
7875 ChPr ch=3 v=0
7901 ChPr ch=3 v=4
7908 ChPr ch=3 v=8
7915 ChPr ch=3 v=16
7921 ChPr ch=3 v=19
7927 ChPr ch=3 v=21
7934 ChPr ch=3 v=42
7941 ChPr ch=3 v=58
7947 ChPr ch=3 v=31
7953 ChPr ch=3 v=0
7975 Off ch=3 n=41 v=0
79851 Meta TrkEnd
TrkEnd
MTrk
0 Meta Text "{GNMIDI}Generated by illegal use of GNMIDI 2.0 demo after 41 days (only 14 days free testing allowed)\n"
0 Meta TrkName "Ensmble2"
0 Par ch=4 c=0 v=0
0 Par ch=4 c=7 v=100
0 Par ch=4 c=10 v=64
0 Par ch=4 c=93 v=0
0 Par ch=4 c=91 v=40
2 Par ch=4 c=32 v=0
2 PrCh ch=4 p=49
9216 On ch=4 n=81 v=87
10365 On ch=4 n=81 v=0
10368 On ch=4 n=76 v=82
10752 On ch=4 n=76 v=0
10752 On ch=4 n=78 v=102
11520 On ch=4 n=78 v=0
11520 On ch=4 n=74 v=78
12144 ChPr ch=4 v=4
12144 ChPr ch=4 v=6
12144 ChPr ch=4 v=8
12192 ChPr ch=4 v=10
12192 ChPr ch=4 v=11
12192 ChPr ch=4 v=12
12192 ChPr ch=4 v=13
12192 ChPr ch=4 v=14
12192 ChPr ch=4 v=16
12192 ChPr ch=4 v=17
12240 ChPr ch=4 v=19
12240 ChPr ch=4 v=21
12240 ChPr ch=4 v=22
12240 ChPr ch=4 v=23
12240 ChPr ch=4 v=22
12288 Off ch=4 n=74 v=0
12288 On ch=4 n=81 v=87
13437 On ch=4 n=81 v=0
13440 On ch=4 n=76 v=82
13824 On ch=4 n=76 v=0
13824 On ch=4 n=78 v=102
14592 On ch=4 n=78 v=0
14592 On ch=4 n=74 v=78
15216 ChPr ch=4 v=4
15216 ChPr ch=4 v=6
15216 ChPr ch=4 v=8
15264 ChPr ch=4 v=10
15264 ChPr ch=4 v=11
15264 ChPr ch=4 v=12
15264 ChPr ch=4 v=13
15264 ChPr ch=4 v=14
15264 ChPr ch=4 v=16
15264 ChPr ch=4 v=17
15312 ChPr ch=4 v=19
15312 ChPr ch=4 v=21
15312 ChPr ch=4 v=22
15312 ChPr ch=4 v=23
15312 ChPr ch=4 v=22
15360 Off ch=4 n=74 v=0
15360 On ch=4 n=81 v=87
16509 On ch=4 n=81 v=0
16512 On ch=4 n=76 v=82
16896 On ch=4 n=76 v=0
16896 On ch=4 n=78 v=102
17664 On ch=4 n=78 v=0
17664 On ch=4 n=74 v=78
18288 ChPr ch=4 v=4
18288 ChPr ch=4 v=6
18288 ChPr ch=4 v=8
18336 ChPr ch=4 v=10
18336 ChPr ch=4 v=11
18336 ChPr ch=4 v=12
18336 ChPr ch=4 v=13
18336 ChPr ch=4 v=14
18336 ChPr ch=4 v=16
18336 ChPr ch=4 v=17
18384 ChPr ch=4 v=19
18384 ChPr ch=4 v=21
18384 ChPr ch=4 v=22
18384 ChPr ch=4 v=23
18384 ChPr ch=4 v=22
18432 Off ch=4 n=74 v=0
18432 On ch=4 n=81 v=87
19581 On ch=4 n=81 v=0
19584 On ch=4 n=76 v=82
19968 On ch=4 n=76 v=0
19968 On ch=4 n=78 v=102
20736 On ch=4 n=78 v=0
21504 On ch=4 n=81 v=87
22653 On ch=4 n=81 v=0
22656 On ch=4 n=76 v=82
23040 On ch=4 n=76 v=0
23040 On ch=4 n=78 v=102
23808 On ch=4 n=78 v=0
39936 On ch=4 n=81 v=93
41088 On ch=4 n=76 v=90
41100 On ch=4 n=81 v=0
41472 On ch=4 n=76 v=0
41472 On ch=4 n=78 v=99
42139 On ch=4 n=78 v=0
43008 On ch=4 n=81 v=87
44157 On ch=4 n=81 v=0
44160 On ch=4 n=76 v=82
44544 On ch=4 n=76 v=0
44544 On ch=4 n=78 v=102
45312 On ch=4 n=78 v=0
45312 On ch=4 n=74 v=78
45936 ChPr ch=4 v=4
45936 ChPr ch=4 v=6
45936 ChPr ch=4 v=8
45984 ChPr ch=4 v=10
45984 ChPr ch=4 v=11
45984 ChPr ch=4 v=12
45984 ChPr ch=4 v=13
45984 ChPr ch=4 v=14
45984 ChPr ch=4 v=16
45984 ChPr ch=4 v=17
46032 ChPr ch=4 v=19
46032 ChPr ch=4 v=21
46032 ChPr ch=4 v=22
46032 ChPr ch=4 v=23
46032 ChPr ch=4 v=22
46080 Off ch=4 n=74 v=0
46080 On ch=4 n=81 v=87
47229 On ch=4 n=81 v=0
47232 On ch=4 n=76 v=82
47616 On ch=4 n=76 v=0
47616 On ch=4 n=78 v=102
48384 On ch=4 n=78 v=0
48384 On ch=4 n=74 v=70
48973 On ch=4 n=74 v=0
55296 On ch=4 n=81 v=78
56448 On ch=4 n=76 v=84
56450 On ch=4 n=81 v=0
56832 On ch=4 n=76 v=0
56832 On ch=4 n=78 v=80
57600 On ch=4 n=78 v=0
57600 On ch=4 n=74 v=76
58368 On ch=4 n=74 v=0
58368 On ch=4 n=81 v=78
59520 On ch=4 n=76 v=84
59529 On ch=4 n=81 v=0
59904 On ch=4 n=76 v=0
59904 On ch=4 n=78 v=82
60672 On ch=4 n=78 v=0
60672 On ch=4 n=74 v=54
61275 On ch=4 n=74 v=0
61440 On ch=4 n=81 v=87
62589 On ch=4 n=81 v=0
62592 On ch=4 n=76 v=82
62976 On ch=4 n=76 v=0
62976 On ch=4 n=78 v=102
63744 On ch=4 n=78 v=0
63744 On ch=4 n=74 v=78
64368 ChPr ch=4 v=4
64368 ChPr ch=4 v=6
64368 ChPr ch=4 v=8
64416 ChPr ch=4 v=10
64416 ChPr ch=4 v=11
64416 ChPr ch=4 v=12
64416 ChPr ch=4 v=13
64416 ChPr ch=4 v=14
64416 ChPr ch=4 v=16
64416 ChPr ch=4 v=17
64464 ChPr ch=4 v=19
64464 ChPr ch=4 v=21
64464 ChPr ch=4 v=22
64464 ChPr ch=4 v=23
64464 ChPr ch=4 v=22
64512 Off ch=4 n=74 v=0
64512 On ch=4 n=81 v=87
65661 On ch=4 n=81 v=0
65664 On ch=4 n=76 v=82
66048 On ch=4 n=76 v=0
66048 On ch=4 n=78 v=102
66816 On ch=4 n=78 v=0
66816 On ch=4 n=74 v=70
67405 On ch=4 n=74 v=0
79851 Meta TrkEnd
TrkEnd
MTrk
0 Meta Text "{GNMIDI}Generated by illegal use of GNMIDI 2.0 demo after 41 days (only 14 days free testing allowed)\n"
0 Meta TrkName "SynStrg1"
0 Par ch=5 c=0 v=0
0 Par ch=5 c=7 v=100
0 Par ch=5 c=10 v=64
0 Par ch=5 c=93 v=0
0 Par ch=5 c=91 v=40
2 Par ch=5 c=32 v=0
2 PrCh ch=5 p=50
9216 On ch=5 n=62 v=87
9936 On ch=5 n=57 v=93
9976 On ch=5 n=62 v=0
10752 On ch=5 n=57 v=0
10752 On ch=5 n=59 v=96
11520 On ch=5 n=59 v=0
11520 On ch=5 n=55 v=102
12288 On ch=5 n=62 v=96
12298 On ch=5 n=55 v=0
13056 On ch=5 n=57 v=102
13061 On ch=5 n=62 v=0
13824 On ch=5 n=59 v=102
13841 On ch=5 n=57 v=0
14589 On ch=5 n=59 v=0
14592 On ch=5 n=55 v=96
15360 On ch=5 n=62 v=102
15374 On ch=5 n=55 v=0
16123 On ch=5 n=62 v=0
16128 On ch=5 n=57 v=102
16560 ChPr ch=5 v=1
16560 ChPr ch=5 v=3
16656 ChPr ch=5 v=2
16704 ChPr ch=5 v=0
16752 ChPr ch=5 v=2
16752 ChPr ch=5 v=3
16752 ChPr ch=5 v=0
16896 On ch=5 n=59 v=90
16907 On ch=5 n=57 v=0
17661 On ch=5 n=59 v=0
17664 On ch=5 n=55 v=102
18432 On ch=5 n=62 v=93
18443 On ch=5 n=55 v=0
19197 On ch=5 n=62 v=0
19200 On ch=5 n=57 v=105
19968 On ch=5 n=59 v=90
19975 On ch=5 n=57 v=0
20592 ChPr ch=5 v=4
20592 ChPr ch=5 v=5
20640 ChPr ch=5 v=6
20640 ChPr ch=5 v=7
20640 ChPr ch=5 v=9
20640 ChPr ch=5 v=12
20640 ChPr ch=5 v=14
20640 ChPr ch=5 v=15
20640 ChPr ch=5 v=17
20640 ChPr ch=5 v=29
20688 ChPr ch=5 v=49
20688 ChPr ch=5 v=55
20688 ChPr ch=5 v=32
20688 ChPr ch=5 v=0
20719 Off ch=5 n=59 v=0
21504 On ch=5 n=62 v=93
22269 On ch=5 n=62 v=0
22272 On ch=5 n=57 v=105
23040 On ch=5 n=59 v=90
23047 On ch=5 n=57 v=0
23664 ChPr ch=5 v=4
23664 ChPr ch=5 v=5
23712 ChPr ch=5 v=6
23712 ChPr ch=5 v=7
23712 ChPr ch=5 v=9
23712 ChPr ch=5 v=12
23712 ChPr ch=5 v=14
23712 ChPr ch=5 v=15
23712 ChPr ch=5 v=17
23712 ChPr ch=5 v=29
23760 ChPr ch=5 v=49
23760 ChPr ch=5 v=55
23760 ChPr ch=5 v=32
23760 ChPr ch=5 v=0
23791 Off ch=5 n=59 v=0
43008 On ch=5 n=62 v=102
43771 On ch=5 n=62 v=0
43776 On ch=5 n=57 v=102
44208 ChPr ch=5 v=1
44208 ChPr ch=5 v=3
44304 ChPr ch=5 v=2
44352 ChPr ch=5 v=0
44400 ChPr ch=5 v=2
44400 ChPr ch=5 v=3
44400 ChPr ch=5 v=0
44544 On ch=5 n=59 v=90
44555 On ch=5 n=57 v=0
45309 On ch=5 n=59 v=0
45312 On ch=5 n=55 v=102
46080 On ch=5 n=62 v=93
46091 On ch=5 n=55 v=0
46845 On ch=5 n=62 v=0
46848 On ch=5 n=57 v=105
47616 On ch=5 n=59 v=90
47623 On ch=5 n=57 v=0
48240 ChPr ch=5 v=4
48240 ChPr ch=5 v=5
48288 ChPr ch=5 v=6
48288 ChPr ch=5 v=7
48288 ChPr ch=5 v=9
48288 ChPr ch=5 v=12
48288 ChPr ch=5 v=14
48288 ChPr ch=5 v=15
48288 ChPr ch=5 v=17
48288 ChPr ch=5 v=29
48336 ChPr ch=5 v=49
48336 ChPr ch=5 v=55
48336 ChPr ch=5 v=32
48336 ChPr ch=5 v=0
48367 Off ch=5 n=59 v=0
60672 On ch=5 n=67 v=62
60672 On ch=5 n=74 v=70
60672 On ch=5 n=71 v=84
61318 On ch=5 n=67 v=0
61331 On ch=5 n=71 v=0
61339 On ch=5 n=74 v=0
61440 On ch=5 n=62 v=102
62203 On ch=5 n=62 v=0
62208 On ch=5 n=57 v=102
62640 ChPr ch=5 v=1
62640 ChPr ch=5 v=3
62736 ChPr ch=5 v=2
62784 ChPr ch=5 v=0
62832 ChPr ch=5 v=2
62832 ChPr ch=5 v=3
62832 ChPr ch=5 v=0
62976 On ch=5 n=59 v=90
62987 On ch=5 n=57 v=0
63741 On ch=5 n=59 v=0
63744 On ch=5 n=55 v=102
64512 On ch=5 n=62 v=93
64523 On ch=5 n=55 v=0
65277 On ch=5 n=62 v=0
65280 On ch=5 n=57 v=105
66048 On ch=5 n=59 v=90
66055 On ch=5 n=57 v=0
66672 ChPr ch=5 v=4
66672 ChPr ch=5 v=5
66720 ChPr ch=5 v=6
66720 ChPr ch=5 v=7
66720 ChPr ch=5 v=9
66720 ChPr ch=5 v=12
66720 ChPr ch=5 v=14
66720 ChPr ch=5 v=15
66720 ChPr ch=5 v=17
66720 ChPr ch=5 v=29
66768 ChPr ch=5 v=49
66768 ChPr ch=5 v=55
66768 ChPr ch=5 v=32
66768 ChPr ch=5 v=0
66799 Off ch=5 n=59 v=0
79851 Meta TrkEnd
TrkEnd
MTrk
0 Meta Text "{GNMIDI}Generated by illegal use of GNMIDI 2.0 demo after 41 days (only 14 days free testing allowed)\n"
0 Meta TrkName "AahChoir"
0 Par ch=6 c=0 v=0
0 Par ch=6 c=7 v=110
0 Par ch=6 c=10 v=64
0 Par ch=6 c=93 v=0
0 Par ch=6 c=91 v=40
2 Par ch=6 c=32 v=0
2 PrCh ch=6 p=52
768 On ch=6 n=69 v=93
768 On ch=6 n=57 v=93
2467 Pb ch=6 v=8165
2486 Pb ch=6 v=7879
2499 Pb ch=6 v=7723
2519 Pb ch=6 v=7619
2525 Pb ch=6 v=7489
2545 Pb ch=6 v=7307
2551 Pb ch=6 v=7177
2558 Pb ch=6 v=7021
2564 Pb ch=6 v=6891
2571 Pb ch=6 v=6735
2577 Pb ch=6 v=6631
2590 Pb ch=6 v=6423
2603 Pb ch=6 v=6267
2616 Pb ch=6 v=6163
2629 Pb ch=6 v=6033
2649 Pb ch=6 v=5877
2662 Pb ch=6 v=5695
2675 Pb ch=6 v=5513
2689 Pb ch=6 v=5383
2701 Pb ch=6 v=5227
2720 Pb ch=6 v=5097
2727 Pb ch=6 v=4993
2753 Pb ch=6 v=4837
2766 Pb ch=6 v=4733
2785 Pb ch=6 v=4603
2798 Pb ch=6 v=4499
2811 Pb ch=6 v=4369
2824 Pb ch=6 v=4239
2831 Par ch=6 c=2 v=2
2837 Pb ch=6 v=4057
2850 Pb ch=6 v=3849
2857 Pb ch=6 v=3667
2857 Par ch=6 c=2 v=5
2863 Pb ch=6 v=3355
2870 Pb ch=6 v=3147
2876 Par ch=6 c=2 v=7
2884 Pb ch=6 v=2757
2889 Off ch=6 n=57 v=0
2890 Par ch=6 c=2 v=10
2891 Off ch=6 n=69 v=0
2896 Pb ch=6 v=2315
2896 Par ch=6 c=2 v=13
2902 Pb ch=6 v=2185
2909 Pb ch=6 v=2029
2909 Par ch=6 c=2 v=15
2928 Pb ch=6 v=2471
2929 Par ch=6 c=2 v=12
2935 Pb ch=6 v=4265
2935 Par ch=6 c=2 v=5
2941 Pb ch=6 v=8191
2942 Par ch=6 c=2 v=0
2948 Pb ch=6 v=8192
3072 On ch=6 n=50 v=114
3108 On ch=6 n=50 v=0
3216 On ch=6 n=50 v=114
3216 ChPr ch=6 v=64
3264 ChPr ch=6 v=127
3264 ChPr ch=6 v=52
3264 ChPr ch=6 v=0
3312 ChPr ch=6 v=18
3312 ChPr ch=6 v=45
3312 ChPr ch=6 v=117
3312 ChPr ch=6 v=127
3312 ChPr ch=6 v=67
3312 ChPr ch=6 v=28
3312 ChPr ch=6 v=0
3364 Off ch=6 n=50 v=0
3456 On ch=6 n=48 v=117
3456 ChPr ch=6 v=127
3456 ChPr ch=6 v=96
3504 ChPr ch=6 v=0
3505 Off ch=6 n=48 v=0
3552 On ch=6 n=50 v=117
3592 On ch=6 n=50 v=0
3600 On ch=6 n=47 v=114
3600 ChPr ch=6 v=127
3648 ChPr ch=6 v=0
3648 ChPr ch=6 v=38
3648 ChPr ch=6 v=127
3648 ChPr ch=6 v=36
3691 Off ch=6 n=47 v=0
3696 ChPr ch=6 v=0
4608 On ch=6 n=50 v=114
4608 ChPr ch=6 v=47
4647 Off ch=6 n=50 v=0
4656 ChPr ch=6 v=0
4752 On ch=6 n=50 v=114
4752 ChPr ch=6 v=127
4800 ChPr ch=6 v=0
4848 ChPr ch=6 v=10
4848 ChPr ch=6 v=36
4848 ChPr ch=6 v=40
4848 ChPr ch=6 v=22
4848 ChPr ch=6 v=0
4891 Off ch=6 n=50 v=0
4992 On ch=6 n=48 v=114
4992 ChPr ch=6 v=34
4992 ChPr ch=6 v=58
4992 ChPr ch=6 v=34
4992 ChPr ch=6 v=0
5033 Off ch=6 n=48 v=0
5088 On ch=6 n=50 v=117
5125 On ch=6 n=50 v=0
5136 On ch=6 n=47 v=111
5136 ChPr ch=6 v=127
5136 ChPr ch=6 v=0
5184 ChPr ch=6 v=8
5184 ChPr ch=6 v=15
5184 ChPr ch=6 v=0
5235 Off ch=6 n=47 v=0
6144 On ch=6 n=50 v=114
6180 On ch=6 n=50 v=0
6288 On ch=6 n=50 v=114
6288 ChPr ch=6 v=64
6336 ChPr ch=6 v=127
6336 ChPr ch=6 v=52
6336 ChPr ch=6 v=0
6384 ChPr ch=6 v=18
6384 ChPr ch=6 v=45
6384 ChPr ch=6 v=117
6384 ChPr ch=6 v=127
6384 ChPr ch=6 v=67
6384 ChPr ch=6 v=28
6384 ChPr ch=6 v=0
6436 Off ch=6 n=50 v=0
6528 On ch=6 n=48 v=117
6528 ChPr ch=6 v=127
6528 ChPr ch=6 v=96
6576 ChPr ch=6 v=0
6577 Off ch=6 n=48 v=0
6624 On ch=6 n=50 v=117
6664 On ch=6 n=50 v=0
6672 On ch=6 n=47 v=114
6672 ChPr ch=6 v=127
6720 ChPr ch=6 v=0
6720 ChPr ch=6 v=38
6720 ChPr ch=6 v=127
6720 ChPr ch=6 v=36
6763 Off ch=6 n=47 v=0
6768 ChPr ch=6 v=0
7680 On ch=6 n=50 v=114
7680 ChPr ch=6 v=47
7719 Off ch=6 n=50 v=0
7728 ChPr ch=6 v=0
7824 On ch=6 n=50 v=114
7824 ChPr ch=6 v=127
7872 ChPr ch=6 v=0
7920 ChPr ch=6 v=10
7920 ChPr ch=6 v=36
7920 ChPr ch=6 v=40
7920 ChPr ch=6 v=22
7920 ChPr ch=6 v=0
7963 Off ch=6 n=50 v=0
8064 On ch=6 n=48 v=114
8064 ChPr ch=6 v=34
8064 ChPr ch=6 v=58
8064 ChPr ch=6 v=34
8064 ChPr ch=6 v=0
8105 Off ch=6 n=48 v=0
8160 On ch=6 n=50 v=117
8197 On ch=6 n=50 v=0
8208 On ch=6 n=47 v=111
8208 ChPr ch=6 v=127
8208 ChPr ch=6 v=0
8256 ChPr ch=6 v=8
8256 ChPr ch=6 v=15
8256 ChPr ch=6 v=0
8307 Off ch=6 n=47 v=0
21504 On ch=6 n=57 v=114
21504 On ch=6 n=45 v=117
21504 ChPr ch=6 v=127
21504 ChPr ch=6 v=0
21528 Off ch=6 n=45 v=0
21530 Off ch=6 n=57 v=0
21600 On ch=6 n=45 v=114
21600 On ch=6 n=57 v=111
21626 On ch=6 n=45 v=0
21627 On ch=6 n=57 v=0
21648 On ch=6 n=57 v=105
21648 On ch=6 n=45 v=111
21648 ChPr ch=6 v=3
21648 ChPr ch=6 v=127
21678 Off ch=6 n=45 v=0
21679 Off ch=6 n=57 v=0
21696 ChPr ch=6 v=0
21744 On ch=6 n=45 v=108
21744 On ch=6 n=57 v=111
21744 ChPr ch=6 v=22
21744 ChPr ch=6 v=0
21769 Off ch=6 n=45 v=0
21769 Off ch=6 n=57 v=0
21792 On ch=6 n=57 v=108
21792 On ch=6 n=45 v=114
21792 ChPr ch=6 v=127
21792 ChPr ch=6 v=0
21819 Off ch=6 n=45 v=0
21821 Off ch=6 n=57 v=0
22272 On ch=6 n=45 v=117
22306 On ch=6 n=45 v=0
22368 On ch=6 n=45 v=108
22406 On ch=6 n=45 v=0
22464 On ch=6 n=45 v=114
22500 On ch=6 n=45 v=0
22560 On ch=6 n=45 v=114
22560 ChPr ch=6 v=29
22560 ChPr ch=6 v=52
22560 ChPr ch=6 v=127
22560 ChPr ch=6 v=0
22599 Off ch=6 n=45 v=0
23040 On ch=6 n=59 v=114
23040 On ch=6 n=47 v=114
23040 ChPr ch=6 v=16
23040 ChPr ch=6 v=127
23078 Off ch=6 n=59 v=0
23081 Off ch=6 n=47 v=0
23088 ChPr ch=6 v=0
23136 On ch=6 n=47 v=111
23136 On ch=6 n=59 v=111
23136 ChPr ch=6 v=127
23136 ChPr ch=6 v=21
23136 ChPr ch=6 v=0
23162 Off ch=6 n=59 v=0
23163 Off ch=6 n=47 v=0
23184 On ch=6 n=59 v=105
23184 On ch=6 n=47 v=108
23184 ChPr ch=6 v=49
23184 ChPr ch=6 v=127
23215 Off ch=6 n=59 v=0
23216 Off ch=6 n=47 v=0
23232 ChPr ch=6 v=0
23280 On ch=6 n=47 v=111
23280 On ch=6 n=59 v=108
23280 ChPr ch=6 v=16
23280 ChPr ch=6 v=127
23280 ChPr ch=6 v=0
23306 Off ch=6 n=59 v=0
23310 Off ch=6 n=47 v=0
23328 On ch=6 n=59 v=108
23328 On ch=6 n=47 v=111
23328 ChPr ch=6 v=127
23328 ChPr ch=6 v=0
23356 Off ch=6 n=59 v=0
23358 Off ch=6 n=47 v=0
43008 On ch=6 n=57 v=114
43008 On ch=6 n=45 v=111
43008 ChPr ch=6 v=127
43047 Off ch=6 n=57 v=0
43052 Off ch=6 n=45 v=0
43056 ChPr ch=6 v=0
43104 On ch=6 n=45 v=111
43104 On ch=6 n=57 v=114
43104 ChPr ch=6 v=74
43104 ChPr ch=6 v=5
43104 ChPr ch=6 v=0
43132 Off ch=6 n=57 v=0
43134 Off ch=6 n=45 v=0
43152 On ch=6 n=57 v=108
43152 On ch=6 n=45 v=108
43152 ChPr ch=6 v=127
43183 Off ch=6 n=57 v=0
43185 Off ch=6 n=45 v=0
43200 ChPr ch=6 v=0
43248 On ch=6 n=45 v=111
43248 On ch=6 n=57 v=111
43248 ChPr ch=6 v=6
43248 ChPr ch=6 v=0
43274 Off ch=6 n=57 v=0
43276 Off ch=6 n=45 v=0
43296 On ch=6 n=45 v=111
43296 On ch=6 n=57 v=111
43296 ChPr ch=6 v=127
43296 ChPr ch=6 v=3
43325 Off ch=6 n=57 v=0
43342 Off ch=6 n=45 v=0
43344 ChPr ch=6 v=0
44544 On ch=6 n=59 v=111
44544 On ch=6 n=47 v=114
44544 ChPr ch=6 v=14
44544 ChPr ch=6 v=0
44580 Off ch=6 n=59 v=0
44587 Off ch=6 n=47 v=0
44640 On ch=6 n=59 v=108
44640 On ch=6 n=47 v=108
44668 On ch=6 n=59 v=0
44670 On ch=6 n=47 v=0
44688 On ch=6 n=59 v=105
44688 ChPr ch=6 v=11
44688 On ch=6 n=47 v=108
44688 ChPr ch=6 v=127
44688 ChPr ch=6 v=0
44721 Off ch=6 n=59 v=0
44721 Off ch=6 n=47 v=0
44784 On ch=6 n=47 v=111
44784 On ch=6 n=59 v=108
44784 ChPr ch=6 v=127
44784 ChPr ch=6 v=45
44784 ChPr ch=6 v=0
44809 Off ch=6 n=59 v=0
44814 Off ch=6 n=47 v=0
44832 On ch=6 n=59 v=108
44832 On ch=6 n=47 v=114
44832 ChPr ch=6 v=3
44832 ChPr ch=6 v=127
44832 ChPr ch=6 v=0
44864 Off ch=6 n=59 v=0
44869 Off ch=6 n=47 v=0
45408 On ch=6 n=55 v=90
45408 On ch=6 n=43 v=108
45448 On ch=6 n=55 v=0
45459 On ch=6 n=43 v=0
45504 On ch=6 n=43 v=108
45504 On ch=6 n=55 v=111
45540 On ch=6 n=55 v=0
45546 On ch=6 n=43 v=0
45600 On ch=6 n=55 v=108
45600 On ch=6 n=43 v=111
45600 ChPr ch=6 v=127
45600 ChPr ch=6 v=9
45637 Off ch=6 n=55 v=0
45641 Off ch=6 n=43 v=0
45648 ChPr ch=6 v=0
45696 On ch=6 n=45 v=111
45696 On ch=6 n=57 v=114
45696 ChPr ch=6 v=127
45744 ChPr ch=6 v=0
45810 Off ch=6 n=57 v=0
45815 Off ch=6 n=45 v=0
45888 On ch=6 n=57 v=117
45888 On ch=6 n=45 v=111
45888 ChPr ch=6 v=3
45888 ChPr ch=6 v=127
45936 ChPr ch=6 v=0
45968 Off ch=6 n=57 v=0
45972 Off ch=6 n=45 v=0
46080 On ch=6 n=57 v=114
46080 On ch=6 n=45 v=114
46080 ChPr ch=6 v=127
46120 Off ch=6 n=57 v=0
46121 Off ch=6 n=45 v=0
46128 ChPr ch=6 v=0
46176 On ch=6 n=57 v=111
46176 On ch=6 n=45 v=111
46176 ChPr ch=6 v=127
46176 ChPr ch=6 v=0
46204 Off ch=6 n=45 v=0
46204 Off ch=6 n=57 v=0
46224 On ch=6 n=57 v=108
46224 ChPr ch=6 v=6
46224 On ch=6 n=45 v=102
46224 ChPr ch=6 v=127
46254 Off ch=6 n=57 v=0
46257 Off ch=6 n=45 v=0
46272 ChPr ch=6 v=0
46320 On ch=6 n=57 v=111
46320 On ch=6 n=45 v=111
46320 ChPr ch=6 v=127
46320 ChPr ch=6 v=0
46345 Off ch=6 n=57 v=0
46346 Off ch=6 n=45 v=0
46368 On ch=6 n=57 v=111
46368 On ch=6 n=45 v=111
46368 ChPr ch=6 v=32
46368 ChPr ch=6 v=127
46398 Off ch=6 n=57 v=0
46415 Off ch=6 n=45 v=0
46416 ChPr ch=6 v=14
46416 ChPr ch=6 v=0
47616 On ch=6 n=59 v=111
47616 On ch=6 n=47 v=114
47616 ChPr ch=6 v=19
47616 ChPr ch=6 v=0
47656 Off ch=6 n=47 v=0
47657 Off ch=6 n=59 v=0
47712 On ch=6 n=59 v=105
47712 On ch=6 n=47 v=111
47741 On ch=6 n=47 v=0
47741 On ch=6 n=59 v=0
47760 On ch=6 n=59 v=102
47760 On ch=6 n=47 v=105
47760 ChPr ch=6 v=127
47792 Off ch=6 n=59 v=0
47792 Off ch=6 n=47 v=0
47808 ChPr ch=6 v=0
47856 On ch=6 n=59 v=108
47856 On ch=6 n=47 v=114
47882 On ch=6 n=59 v=0
47884 On ch=6 n=47 v=0
47904 On ch=6 n=59 v=108
47904 On ch=6 n=47 v=111
47904 ChPr ch=6 v=127
47904 ChPr ch=6 v=0
47931 Off ch=6 n=47 v=0
47932 Off ch=6 n=59 v=0
52224 On ch=6 n=66 v=114
52224 On ch=6 n=62 v=111
52239 On ch=6 n=66 v=0
52241 On ch=6 n=62 v=0
52272 On ch=6 n=62 v=96
52272 On ch=6 n=66 v=114
52301 On ch=6 n=66 v=0
52303 On ch=6 n=62 v=0
52368 On ch=6 n=62 v=111
52368 On ch=6 n=66 v=117
52395 On ch=6 n=66 v=0
52397 On ch=6 n=62 v=0
52464 On ch=6 n=62 v=102
52464 On ch=6 n=66 v=102
52484 On ch=6 n=66 v=0
52486 On ch=6 n=62 v=0
52512 On ch=6 n=62 v=102
52512 On ch=6 n=66 v=114
52544 On ch=6 n=62 v=0
52552 On ch=6 n=66 v=0
52608 On ch=6 n=64 v=117
52608 On ch=6 n=67 v=117
52608 ChPr ch=6 v=21
52608 ChPr ch=6 v=0
52656 ChPr ch=6 v=28
52656 ChPr ch=6 v=0
52737 Off ch=6 n=64 v=0
52738 Off ch=6 n=67 v=0
52800 On ch=6 n=66 v=117
52800 On ch=6 n=62 v=108
52901 On ch=6 n=62 v=0
52915 On ch=6 n=66 v=0
52992 On ch=6 n=64 v=111
52992 On ch=6 n=67 v=117
53016 On ch=6 n=67 v=0
53017 On ch=6 n=64 v=0
53040 On ch=6 n=64 v=111
53040 On ch=6 n=67 v=114
53040 ChPr ch=6 v=8
53040 ChPr ch=6 v=0
53071 Off ch=6 n=64 v=0
53075 Off ch=6 n=67 v=0
53136 On ch=6 n=67 v=117
53136 On ch=6 n=64 v=117
53136 ChPr ch=6 v=127
53136 ChPr ch=6 v=0
53161 Off ch=6 n=64 v=0
53162 Off ch=6 n=67 v=0
53232 On ch=6 n=64 v=111
53232 On ch=6 n=67 v=111
53252 On ch=6 n=67 v=0
53252 On ch=6 n=64 v=0
53280 On ch=6 n=64 v=108
53280 On ch=6 n=67 v=111
53315 On ch=6 n=64 v=0
53318 On ch=6 n=67 v=0
53376 On ch=6 n=66 v=117
53376 On ch=6 n=69 v=111
53498 On ch=6 n=66 v=0
53505 On ch=6 n=69 v=0
53568 On ch=6 n=64 v=114
53568 On ch=6 n=67 v=117
53568 ChPr ch=6 v=127
53568 ChPr ch=6 v=3
53568 ChPr ch=6 v=15
53568 ChPr ch=6 v=4
53616 ChPr ch=6 v=0
53694 Off ch=6 n=64 v=0
53700 Off ch=6 n=67 v=0
56832 On ch=6 n=47 v=114
56832 On ch=6 n=59 v=117
56832 ChPr ch=6 v=88
56832 ChPr ch=6 v=127
56832 ChPr ch=6 v=0
56861 Off ch=6 n=59 v=0
56868 Off ch=6 n=47 v=0
56928 On ch=6 n=47 v=114
56928 On ch=6 n=59 v=111
56955 On ch=6 n=59 v=0
56961 On ch=6 n=47 v=0
56976 On ch=6 n=59 v=105
56976 ChPr ch=6 v=127
56976 On ch=6 n=47 v=105
56976 ChPr ch=6 v=64
57006 Off ch=6 n=59 v=0
57013 Off ch=6 n=47 v=0
57024 ChPr ch=6 v=0
57072 On ch=6 n=47 v=111
57072 ChPr ch=6 v=6
57072 On ch=6 n=59 v=108
57072 ChPr ch=6 v=127
57072 ChPr ch=6 v=0
57095 Off ch=6 n=59 v=0
57101 Off ch=6 n=47 v=0
57120 On ch=6 n=59 v=111
57120 On ch=6 n=47 v=108
57120 ChPr ch=6 v=127
57120 ChPr ch=6 v=0
57158 Off ch=6 n=59 v=0
57162 Off ch=6 n=47 v=0
57696 On ch=6 n=55 v=108
57696 On ch=6 n=43 v=108
57696 ChPr ch=6 v=7
57696 ChPr ch=6 v=0
57730 Off ch=6 n=55 v=0
57740 Off ch=6 n=43 v=0
57792 On ch=6 n=43 v=105
57792 On ch=6 n=55 v=108
57792 ChPr ch=6 v=19
57792 ChPr ch=6 v=127
57792 ChPr ch=6 v=7
57792 ChPr ch=6 v=0
57829 Off ch=6 n=55 v=0
57839 Off ch=6 n=43 v=0
57888 On ch=6 n=55 v=105
57888 On ch=6 n=43 v=108
57888 ChPr ch=6 v=16
57888 ChPr ch=6 v=127
57888 ChPr ch=6 v=4
57888 ChPr ch=6 v=0
57922 Off ch=6 n=55 v=0
57933 Off ch=6 n=43 v=0
57984 On ch=6 n=57 v=114
57984 On ch=6 n=45 v=114
57984 ChPr ch=6 v=127
57984 ChPr ch=6 v=38
58032 ChPr ch=6 v=0
58100 Off ch=6 n=57 v=0
58110 Off ch=6 n=45 v=0
58176 On ch=6 n=57 v=111
58176 ChPr ch=6 v=127
58176 On ch=6 n=45 v=108
58176 ChPr ch=6 v=31
58224 ChPr ch=6 v=0
58286 Off ch=6 n=57 v=0
58288 Off ch=6 n=45 v=0
58368 On ch=6 n=57 v=114
58368 On ch=6 n=45 v=114
58368 ChPr ch=6 v=127
58368 ChPr ch=6 v=0
58405 Off ch=6 n=57 v=0
58409 Off ch=6 n=45 v=0
58464 On ch=6 n=57 v=111
58464 On ch=6 n=45 v=114
58464 ChPr ch=6 v=8
58464 ChPr ch=6 v=9
58464 ChPr ch=6 v=0
58491 Off ch=6 n=57 v=0
58494 Off ch=6 n=45 v=0
58512 On ch=6 n=57 v=102
58512 ChPr ch=6 v=127
58512 On ch=6 n=45 v=108
58543 On ch=6 n=57 v=0
58548 On ch=6 n=45 v=0
58560 ChPr ch=6 v=3
58560 ChPr ch=6 v=0
58608 On ch=6 n=57 v=111
58608 On ch=6 n=45 v=111
58608 ChPr ch=6 v=127
58608 ChPr ch=6 v=17
58608 ChPr ch=6 v=0
58632 Off ch=6 n=57 v=0
58634 Off ch=6 n=45 v=0
58656 On ch=6 n=57 v=114
58656 ChPr ch=6 v=127
58656 On ch=6 n=45 v=111
58692 On ch=6 n=45 v=0
58695 On ch=6 n=57 v=0
58704 ChPr ch=6 v=0
59904 On ch=6 n=59 v=111
59904 On ch=6 n=47 v=114
59904 ChPr ch=6 v=127
59904 ChPr ch=6 v=26
59942 Off ch=6 n=59 v=0
59944 Off ch=6 n=47 v=0
59952 ChPr ch=6 v=0
60000 On ch=6 n=59 v=108
60000 On ch=6 n=47 v=108
60028 On ch=6 n=59 v=0
60030 On ch=6 n=47 v=0
60048 On ch=6 n=59 v=108
60048 ChPr ch=6 v=127
60048 On ch=6 n=47 v=108
60080 On ch=6 n=47 v=0
60084 On ch=6 n=59 v=0
60096 ChPr ch=6 v=0
60144 On ch=6 n=59 v=111
60144 On ch=6 n=47 v=117
60144 ChPr ch=6 v=127
60144 ChPr ch=6 v=34
60144 ChPr ch=6 v=0
60170 Off ch=6 n=59 v=0
60173 Off ch=6 n=47 v=0
60192 On ch=6 n=59 v=108
60192 ChPr ch=6 v=127
60192 On ch=6 n=47 v=108
60240 ChPr ch=6 v=0
60247 Off ch=6 n=47 v=0
60248 Off ch=6 n=59 v=0
60768 On ch=6 n=55 v=111
60768 On ch=6 n=43 v=111
60768 ChPr ch=6 v=26
60768 ChPr ch=6 v=0
60805 Off ch=6 n=43 v=0
60805 Off ch=6 n=55 v=0
60864 On ch=6 n=43 v=111
60864 On ch=6 n=55 v=114
60864 ChPr ch=6 v=127
60864 ChPr ch=6 v=0
60903 Off ch=6 n=55 v=0
60904 Off ch=6 n=43 v=0
60960 On ch=6 n=55 v=108
60960 On ch=6 n=43 v=114
60960 ChPr ch=6 v=40
60960 ChPr ch=6 v=29
60960 ChPr ch=6 v=0
60995 Off ch=6 n=55 v=0
60997 Off ch=6 n=43 v=0
61056 On ch=6 n=57 v=111
61056 On ch=6 n=45 v=111
61056 ChPr ch=6 v=127
61104 ChPr ch=6 v=0
61170 Off ch=6 n=45 v=0
61176 Off ch=6 n=57 v=0
61248 On ch=6 n=45 v=111
61248 On ch=6 n=57 v=114
61248 ChPr ch=6 v=127
61296 ChPr ch=6 v=18
61296 ChPr ch=6 v=3
61296 ChPr ch=6 v=0
61296 ChPr ch=6 v=12
61296 ChPr ch=6 v=16
61296 ChPr ch=6 v=0
61349 Off ch=6 n=45 v=0
61353 Off ch=6 n=57 v=0
61440 On ch=6 n=57 v=114
61440 On ch=6 n=45 v=111
61440 ChPr ch=6 v=127
61479 Off ch=6 n=57 v=0
61484 Off ch=6 n=45 v=0
61488 ChPr ch=6 v=0
61536 On ch=6 n=45 v=111
61536 On ch=6 n=57 v=114
61536 ChPr ch=6 v=74
61536 ChPr ch=6 v=5
61536 ChPr ch=6 v=0
61564 Off ch=6 n=57 v=0
61566 Off ch=6 n=45 v=0
61584 On ch=6 n=57 v=108
61584 On ch=6 n=45 v=108
61584 ChPr ch=6 v=127
61615 Off ch=6 n=57 v=0
61617 Off ch=6 n=45 v=0
61632 ChPr ch=6 v=0
61680 On ch=6 n=45 v=111
61680 On ch=6 n=57 v=111
61680 ChPr ch=6 v=6
61680 ChPr ch=6 v=0
61706 Off ch=6 n=57 v=0
61708 Off ch=6 n=45 v=0
61728 On ch=6 n=45 v=111
61728 On ch=6 n=57 v=111
61728 ChPr ch=6 v=127
61728 ChPr ch=6 v=3
61757 Off ch=6 n=57 v=0
61774 Off ch=6 n=45 v=0
61776 ChPr ch=6 v=0
62976 On ch=6 n=59 v=111
62976 On ch=6 n=47 v=114
62976 ChPr ch=6 v=14
62976 ChPr ch=6 v=0
63012 Off ch=6 n=59 v=0
63019 Off ch=6 n=47 v=0
63072 On ch=6 n=59 v=108
63072 On ch=6 n=47 v=108
63100 On ch=6 n=59 v=0
63102 On ch=6 n=47 v=0
63120 On ch=6 n=59 v=105
63120 ChPr ch=6 v=11
63120 On ch=6 n=47 v=108
63120 ChPr ch=6 v=127
63120 ChPr ch=6 v=0
63153 Off ch=6 n=59 v=0
63153 Off ch=6 n=47 v=0
63216 On ch=6 n=47 v=111
63216 On ch=6 n=59 v=108
63216 ChPr ch=6 v=127
63216 ChPr ch=6 v=45
63216 ChPr ch=6 v=0
63241 Off ch=6 n=59 v=0
63246 Off ch=6 n=47 v=0
63264 On ch=6 n=59 v=108
63264 On ch=6 n=47 v=114
63264 ChPr ch=6 v=3
63264 ChPr ch=6 v=127
63264 ChPr ch=6 v=0
63296 Off ch=6 n=59 v=0
63301 Off ch=6 n=47 v=0
63840 On ch=6 n=55 v=90
63840 On ch=6 n=43 v=108
63880 On ch=6 n=55 v=0
63891 On ch=6 n=43 v=0
63936 On ch=6 n=43 v=108
63936 On ch=6 n=55 v=111
63972 On ch=6 n=55 v=0
63978 On ch=6 n=43 v=0
64032 On ch=6 n=55 v=108
64032 On ch=6 n=43 v=111
64032 ChPr ch=6 v=127
64032 ChPr ch=6 v=9
64069 Off ch=6 n=55 v=0
64073 Off ch=6 n=43 v=0
64080 ChPr ch=6 v=0
64128 On ch=6 n=45 v=111
64128 On ch=6 n=57 v=114
64128 ChPr ch=6 v=127
64176 ChPr ch=6 v=0
64242 Off ch=6 n=57 v=0
64247 Off ch=6 n=45 v=0
64320 On ch=6 n=57 v=117
64320 On ch=6 n=45 v=111
64320 ChPr ch=6 v=3
64320 ChPr ch=6 v=127
64368 ChPr ch=6 v=0
64400 Off ch=6 n=57 v=0
64404 Off ch=6 n=45 v=0
64512 On ch=6 n=57 v=114
64512 On ch=6 n=45 v=114
64512 ChPr ch=6 v=127
64552 Off ch=6 n=57 v=0
64553 Off ch=6 n=45 v=0
64560 ChPr ch=6 v=0
64608 On ch=6 n=57 v=111
64608 On ch=6 n=45 v=111
64608 ChPr ch=6 v=127
64608 ChPr ch=6 v=0
64636 Off ch=6 n=45 v=0
64636 Off ch=6 n=57 v=0
64656 On ch=6 n=57 v=108
64656 ChPr ch=6 v=6
64656 On ch=6 n=45 v=102
64656 ChPr ch=6 v=127
64686 Off ch=6 n=57 v=0
64689 Off ch=6 n=45 v=0
64704 ChPr ch=6 v=0
64752 On ch=6 n=57 v=111
64752 On ch=6 n=45 v=111
64752 ChPr ch=6 v=127
64752 ChPr ch=6 v=0
64777 Off ch=6 n=57 v=0
64778 Off ch=6 n=45 v=0
64800 On ch=6 n=57 v=111
64800 On ch=6 n=45 v=111
64800 ChPr ch=6 v=32
64800 ChPr ch=6 v=127
64830 Off ch=6 n=57 v=0
64847 Off ch=6 n=45 v=0
64848 ChPr ch=6 v=14
64848 ChPr ch=6 v=0
66048 On ch=6 n=59 v=111
66048 On ch=6 n=47 v=114
66048 ChPr ch=6 v=19
66048 ChPr ch=6 v=0
66088 Off ch=6 n=47 v=0
66089 Off ch=6 n=59 v=0
66144 On ch=6 n=59 v=105
66144 On ch=6 n=47 v=111
66173 On ch=6 n=47 v=0
66173 On ch=6 n=59 v=0
66192 On ch=6 n=59 v=102
66192 On ch=6 n=47 v=105
66192 ChPr ch=6 v=127
66224 Off ch=6 n=59 v=0
66224 Off ch=6 n=47 v=0
66240 ChPr ch=6 v=0
66288 On ch=6 n=59 v=108
66288 On ch=6 n=47 v=114
66314 On ch=6 n=59 v=0
66316 On ch=6 n=47 v=0
66336 On ch=6 n=59 v=108
66336 On ch=6 n=47 v=111
66336 ChPr ch=6 v=127
66336 ChPr ch=6 v=0
66363 Off ch=6 n=47 v=0
66364 Off ch=6 n=59 v=0
74592 On ch=6 n=66 v=108
74592 On ch=6 n=54 v=117
74624 On ch=6 n=66 v=0
74627 On ch=6 n=54 v=0
74688 On ch=6 n=54 v=108
74688 On ch=6 n=66 v=99
74717 On ch=6 n=66 v=0
74723 On ch=6 n=54 v=0
74784 On ch=6 n=54 v=114
74784 On ch=6 n=66 v=102
74816 On ch=6 n=66 v=0
74829 On ch=6 n=54 v=0
74880 On ch=6 n=55 v=111
74880 On ch=6 n=67 v=108
74913 On ch=6 n=67 v=0
74925 On ch=6 n=55 v=0
74976 On ch=6 n=67 v=108
74976 On ch=6 n=55 v=111
74976 ChPr ch=6 v=5
74976 ChPr ch=6 v=0
75009 Off ch=6 n=67 v=0
75019 Off ch=6 n=55 v=0
75072 On ch=6 n=54 v=117
75072 On ch=6 n=66 v=108
75171 On ch=6 n=54 v=0
75173 On ch=6 n=66 v=0
76128 On ch=6 n=54 v=117
76128 On ch=6 n=66 v=108
76162 On ch=6 n=66 v=0
76165 On ch=6 n=54 v=0
76224 On ch=6 n=54 v=117
76224 On ch=6 n=66 v=108
76256 On ch=6 n=66 v=0
76259 On ch=6 n=54 v=0
76320 On ch=6 n=54 v=117
76320 On ch=6 n=66 v=99
76351 On ch=6 n=66 v=0
76366 On ch=6 n=54 v=0
76416 On ch=6 n=67 v=111
76416 On ch=6 n=55 v=114
76416 ChPr ch=6 v=22
76416 ChPr ch=6 v=21
76416 ChPr ch=6 v=0
76450 Off ch=6 n=67 v=0
76457 Off ch=6 n=55 v=0
76512 On ch=6 n=67 v=105
76512 On ch=6 n=55 v=108
76512 ChPr ch=6 v=9
76512 ChPr ch=6 v=11
76512 ChPr ch=6 v=24
76512 ChPr ch=6 v=0
76549 Off ch=6 n=67 v=0
76560 Off ch=6 n=55 v=0
76608 On ch=6 n=54 v=117
76608 On ch=6 n=66 v=108
76689 On ch=6 n=54 v=0
76691 On ch=6 n=66 v=0
77664 On ch=6 n=66 v=114
77664 On ch=6 n=54 v=117
77700 On ch=6 n=66 v=0
77701 On ch=6 n=54 v=0
77856 On ch=6 n=66 v=108
77856 On ch=6 n=54 v=117
77888 On ch=6 n=66 v=0
77898 On ch=6 n=54 v=0
77952 On ch=6 n=55 v=111
77952 On ch=6 n=67 v=111
77952 ChPr ch=6 v=26
77952 ChPr ch=6 v=96
77952 ChPr ch=6 v=0
78047 Off ch=6 n=67 v=0
78048 On ch=6 n=54 v=127
78048 On ch=6 n=66 v=114
78053 On ch=6 n=55 v=0
78143 On ch=6 n=66 v=0
78146 On ch=6 n=54 v=0
79200 On ch=6 n=66 v=114
79200 On ch=6 n=54 v=117
79252 On ch=6 n=54 v=0
79259 On ch=6 n=66 v=0
79392 On ch=6 n=66 v=114
79392 On ch=6 n=54 v=127
79431 On ch=6 n=66 v=0
79445 On ch=6 n=54 v=0
79488 On ch=6 n=55 v=111
79488 On ch=6 n=67 v=111
79488 ChPr ch=6 v=7
79488 ChPr ch=6 v=127
79488 ChPr ch=6 v=7
79488 ChPr ch=6 v=0
79574 Off ch=6 n=67 v=0
79584 On ch=6 n=66 v=114
79584 On ch=6 n=54 v=127
79585 On ch=6 n=55 v=0
79665 On ch=6 n=66 v=0
79666 On ch=6 n=54 v=0
79851 Meta TrkEnd
TrkEnd
MTrk
0 Meta Text "{GNMIDI}Generated by illegal use of GNMIDI 2.0 demo after 41 days (only 14 days free testing allowed)\n"
0 Meta TrkName "NylonGtr"
0 Par ch=7 c=0 v=0
0 Par ch=7 c=7 v=103
0 Par ch=7 c=10 v=64
0 Par ch=7 c=93 v=0
0 Par ch=7 c=91 v=40
2 Par ch=7 c=32 v=0
2 PrCh ch=7 p=24
27734 On ch=7 n=66 v=114
27785 On ch=7 n=66 v=0
27815 On ch=7 n=62 v=105
27860 On ch=7 n=62 v=0
27895 On ch=7 n=66 v=114
27932 On ch=7 n=66 v=0
27944 On ch=7 n=62 v=108
27988 On ch=7 n=62 v=0
28037 On ch=7 n=66 v=114
28089 On ch=7 n=66 v=0
28124 On ch=7 n=62 v=111
28182 On ch=7 n=62 v=0
28225 On ch=7 n=66 v=114
28282 On ch=7 n=66 v=0
28320 On ch=7 n=62 v=108
28343 ChPr ch=7 v=3
28350 ChPr ch=7 v=0
28387 Off ch=7 n=62 v=0
28468 On ch=7 n=61 v=108
28512 On ch=7 n=61 v=0
28559 On ch=7 n=57 v=108
28611 On ch=7 n=57 v=0
28648 On ch=7 n=61 v=114
28684 On ch=7 n=61 v=0
28695 On ch=7 n=57 v=105
28732 On ch=7 n=57 v=0
28795 On ch=7 n=67 v=114
28836 On ch=7 n=67 v=0
28891 On ch=7 n=69 v=102
28932 On ch=7 n=69 v=0
28982 On ch=7 n=67 v=111
29031 On ch=7 n=66 v=102
29036 On ch=7 n=67 v=0
29074 On ch=7 n=64 v=105
29086 On ch=7 n=66 v=0
29135 On ch=7 n=64 v=0
29249 On ch=7 n=62 v=105
29287 On ch=7 n=62 v=0
29346 On ch=7 n=59 v=102
29389 On ch=7 n=59 v=0
29426 On ch=7 n=62 v=108
29458 On ch=7 n=62 v=0
29476 On ch=7 n=59 v=96
29526 On ch=7 n=59 v=0
29569 On ch=7 n=66 v=114
29619 On ch=7 n=66 v=0
29665 On ch=7 n=62 v=114
29703 On ch=7 n=62 v=0
29761 On ch=7 n=62 v=108
29815 On ch=7 n=62 v=0
29818 On ch=7 n=64 v=111
29861 On ch=7 n=66 v=114
29868 On ch=7 n=64 v=0
29920 On ch=7 n=66 v=0
30023 On ch=7 n=59 v=84
30078 On ch=7 n=59 v=0
30089 On ch=7 n=55 v=96
30142 On ch=7 n=55 v=0
30185 On ch=7 n=64 v=102
30236 On ch=7 n=62 v=93
30237 On ch=7 n=64 v=0
30270 On ch=7 n=62 v=0
30329 On ch=7 n=67 v=105
30369 On ch=7 n=67 v=0
30436 On ch=7 n=67 v=108
30445 ChPr ch=7 v=8
30452 ChPr ch=7 v=6
30459 ChPr ch=7 v=0
30518 Off ch=7 n=67 v=0
30526 On ch=7 n=66 v=96
30594 On ch=7 n=66 v=0
30616 On ch=7 n=64 v=96
30628 ChPr ch=7 v=4
30635 ChPr ch=7 v=21
30641 ChPr ch=7 v=11
30648 ChPr ch=7 v=0
30694 Off ch=7 n=64 v=0
70742 On ch=7 n=66 v=114
70793 On ch=7 n=66 v=0
70823 On ch=7 n=62 v=105
70868 On ch=7 n=62 v=0
70903 On ch=7 n=66 v=114
70940 On ch=7 n=66 v=0
70952 On ch=7 n=62 v=108
70996 On ch=7 n=62 v=0
71045 On ch=7 n=66 v=114
71097 On ch=7 n=66 v=0
71132 On ch=7 n=62 v=111
71190 On ch=7 n=62 v=0
71233 On ch=7 n=66 v=114
71290 On ch=7 n=66 v=0
71328 On ch=7 n=62 v=108
71351 ChPr ch=7 v=3
71358 ChPr ch=7 v=0
71395 Off ch=7 n=62 v=0
71476 On ch=7 n=61 v=108
71520 On ch=7 n=61 v=0
71567 On ch=7 n=57 v=108
71619 On ch=7 n=57 v=0
71656 On ch=7 n=61 v=114
71692 On ch=7 n=61 v=0
71703 On ch=7 n=57 v=105
71740 On ch=7 n=57 v=0
71803 On ch=7 n=67 v=114
71844 On ch=7 n=67 v=0
71899 On ch=7 n=69 v=102
71940 On ch=7 n=69 v=0
71990 On ch=7 n=67 v=111
72039 On ch=7 n=66 v=102
72044 On ch=7 n=67 v=0
72082 On ch=7 n=64 v=105
72094 On ch=7 n=66 v=0
72143 On ch=7 n=64 v=0
72257 On ch=7 n=62 v=105
72295 On ch=7 n=62 v=0
72354 On ch=7 n=59 v=102
72397 On ch=7 n=59 v=0
72434 On ch=7 n=62 v=108
72466 On ch=7 n=62 v=0
72484 On ch=7 n=59 v=96
72534 On ch=7 n=59 v=0
72577 On ch=7 n=66 v=114
72627 On ch=7 n=66 v=0
72673 On ch=7 n=62 v=114
72711 On ch=7 n=62 v=0
72769 On ch=7 n=62 v=108
72823 On ch=7 n=62 v=0
72826 On ch=7 n=64 v=111
72869 On ch=7 n=66 v=114
72876 On ch=7 n=64 v=0
72928 On ch=7 n=66 v=0
73031 On ch=7 n=59 v=84
73086 On ch=7 n=59 v=0
73097 On ch=7 n=55 v=96
73150 On ch=7 n=55 v=0
73193 On ch=7 n=64 v=102
73244 On ch=7 n=62 v=93
73245 On ch=7 n=64 v=0
73278 On ch=7 n=62 v=0
73337 On ch=7 n=67 v=105
73377 On ch=7 n=67 v=0
73444 On ch=7 n=67 v=108
73453 ChPr ch=7 v=8
73460 ChPr ch=7 v=6
73467 ChPr ch=7 v=0
73526 Off ch=7 n=67 v=0
73534 On ch=7 n=66 v=96
73602 On ch=7 n=66 v=0
73624 On ch=7 n=64 v=96
73636 ChPr ch=7 v=4
73643 ChPr ch=7 v=21
73649 ChPr ch=7 v=11
73656 ChPr ch=7 v=0
73702 Off ch=7 n=64 v=0
76886 On ch=7 n=66 v=114
76937 On ch=7 n=66 v=0
76967 On ch=7 n=62 v=105
77012 On ch=7 n=62 v=0
77047 On ch=7 n=66 v=114
77084 On ch=7 n=66 v=0
77096 On ch=7 n=62 v=108
77140 On ch=7 n=62 v=0
77189 On ch=7 n=66 v=114
77241 On ch=7 n=66 v=0
77276 On ch=7 n=62 v=111
77334 On ch=7 n=62 v=0
77377 On ch=7 n=66 v=114
77434 On ch=7 n=66 v=0
77472 On ch=7 n=62 v=108
77495 ChPr ch=7 v=3
77502 ChPr ch=7 v=0
77539 Off ch=7 n=62 v=0
77620 On ch=7 n=61 v=108
77664 On ch=7 n=61 v=0
77711 On ch=7 n=57 v=108
77763 On ch=7 n=57 v=0
77800 On ch=7 n=61 v=114
77836 On ch=7 n=61 v=0
77847 On ch=7 n=57 v=105
77884 On ch=7 n=57 v=0
77947 On ch=7 n=67 v=114
77988 On ch=7 n=67 v=0
78043 On ch=7 n=69 v=102
78084 On ch=7 n=69 v=0
78134 On ch=7 n=67 v=111
78183 On ch=7 n=66 v=102
78188 On ch=7 n=67 v=0
78226 On ch=7 n=64 v=105
78238 On ch=7 n=66 v=0
78287 On ch=7 n=64 v=0
78401 On ch=7 n=62 v=105
78439 On ch=7 n=62 v=0
78498 On ch=7 n=59 v=102
78541 On ch=7 n=59 v=0
78578 On ch=7 n=62 v=108
78610 On ch=7 n=62 v=0
78628 On ch=7 n=59 v=96
78678 On ch=7 n=59 v=0
78721 On ch=7 n=66 v=114
78771 On ch=7 n=66 v=0
78817 On ch=7 n=62 v=114
78855 On ch=7 n=62 v=0
78913 On ch=7 n=62 v=108
78967 On ch=7 n=62 v=0
78970 On ch=7 n=64 v=111
79013 On ch=7 n=66 v=114
79020 On ch=7 n=64 v=0
79072 On ch=7 n=66 v=0
79175 On ch=7 n=59 v=84
79230 On ch=7 n=59 v=0
79241 On ch=7 n=55 v=96
79294 On ch=7 n=55 v=0
79337 On ch=7 n=64 v=102
79388 On ch=7 n=62 v=93
79389 On ch=7 n=64 v=0
79422 On ch=7 n=62 v=0
79481 On ch=7 n=67 v=105
79521 On ch=7 n=67 v=0
79588 On ch=7 n=67 v=108
79597 ChPr ch=7 v=8
79604 ChPr ch=7 v=6
79611 ChPr ch=7 v=0
79670 Off ch=7 n=67 v=0
79678 On ch=7 n=66 v=96
79746 On ch=7 n=66 v=0
79768 On ch=7 n=64 v=96
79780 ChPr ch=7 v=4
79787 ChPr ch=7 v=21
79793 ChPr ch=7 v=11
79800 ChPr ch=7 v=0
79846 Off ch=7 n=64 v=0
79851 Meta TrkEnd
TrkEnd
MTrk
0 Meta Text "{GNMIDI}Generated by illegal use of GNMIDI 2.0 demo after 41 days (only 14 days free testing allowed)\n"
0 Meta TrkName "RockOrgn"
0 Par ch=8 c=0 v=0
0 Par ch=8 c=7 v=90
0 Par ch=8 c=10 v=64
0 Par ch=8 c=93 v=0
0 Par ch=8 c=91 v=40
2 Par ch=8 c=32 v=0
2 PrCh ch=8 p=18
33888 On ch=8 n=62 v=102
33888 On ch=8 n=69 v=108
33888 On ch=8 n=74 v=105
33916 On ch=8 n=69 v=0
33917 On ch=8 n=62 v=0
33927 On ch=8 n=74 v=0
34080 On ch=8 n=62 v=105
34080 On ch=8 n=69 v=108
34080 On ch=8 n=74 v=105
34104 On ch=8 n=69 v=0
34104 On ch=8 n=62 v=0
34114 On ch=8 n=74 v=0
34272 On ch=8 n=69 v=105
34272 On ch=8 n=62 v=105
34272 On ch=8 n=74 v=108
34297 On ch=8 n=62 v=0
34300 On ch=8 n=69 v=0
34307 On ch=8 n=74 v=0
34464 On ch=8 n=69 v=105
34464 On ch=8 n=62 v=105
34464 On ch=8 n=74 v=105
34488 On ch=8 n=62 v=0
34494 On ch=8 n=69 v=0
34499 On ch=8 n=74 v=0
34656 On ch=8 n=69 v=108
34656 On ch=8 n=62 v=108
34656 On ch=8 n=74 v=105
34681 On ch=8 n=62 v=0
34684 On ch=8 n=69 v=0
34694 On ch=8 n=74 v=0
34848 On ch=8 n=62 v=105
34848 On ch=8 n=74 v=105
34848 On ch=8 n=69 v=114
34874 On ch=8 n=62 v=0
34875 On ch=8 n=69 v=0
34886 On ch=8 n=74 v=0
35040 On ch=8 n=74 v=105
35040 On ch=8 n=62 v=108
35040 On ch=8 n=69 v=108
35065 On ch=8 n=62 v=0
35066 On ch=8 n=69 v=0
35078 On ch=8 n=74 v=0
35232 On ch=8 n=74 v=102
35232 On ch=8 n=69 v=108
35232 On ch=8 n=62 v=108
35258 On ch=8 n=62 v=0
35263 On ch=8 n=69 v=0
35270 On ch=8 n=74 v=0
35424 On ch=8 n=74 v=102
35424 On ch=8 n=71 v=117
35424 On ch=8 n=62 v=105
35449 On ch=8 n=62 v=0
35450 On ch=8 n=71 v=0
35461 On ch=8 n=74 v=0
35616 On ch=8 n=62 v=105
35616 On ch=8 n=71 v=117
35616 On ch=8 n=74 v=102
35638 On ch=8 n=62 v=0
35639 On ch=8 n=71 v=0
35649 On ch=8 n=74 v=0
35808 On ch=8 n=62 v=102
35808 On ch=8 n=71 v=117
35808 On ch=8 n=74 v=105
35831 On ch=8 n=71 v=0
35833 On ch=8 n=62 v=0
35841 On ch=8 n=74 v=0
36000 On ch=8 n=62 v=102
36000 On ch=8 n=71 v=114
36000 On ch=8 n=74 v=108
36023 On ch=8 n=71 v=0
36023 On ch=8 n=62 v=0
36032 On ch=8 n=74 v=0
36192 On ch=8 n=74 v=102
36192 On ch=8 n=71 v=117
36192 On ch=8 n=62 v=102
36214 On ch=8 n=62 v=0
36216 On ch=8 n=71 v=0
36224 On ch=8 n=74 v=0
36384 On ch=8 n=62 v=96
36384 On ch=8 n=71 v=114
36384 On ch=8 n=74 v=102
36409 On ch=8 n=62 v=0
36414 On ch=8 n=71 v=0
36417 On ch=8 n=74 v=0
36576 On ch=8 n=71 v=114
36576 On ch=8 n=74 v=102
36576 On ch=8 n=62 v=105
36599 On ch=8 n=62 v=0
36602 On ch=8 n=71 v=0
36606 On ch=8 n=74 v=0
36768 On ch=8 n=71 v=114
36768 On ch=8 n=74 v=102
36768 On ch=8 n=62 v=111
36794 On ch=8 n=62 v=0
36797 On ch=8 n=71 v=0
36805 On ch=8 n=74 v=0
79851 Meta TrkEnd
TrkEnd
MTrk
0 Meta Text "{GNMIDI}Generated by illegal use of GNMIDI 2.0 demo after 41 days (only 14 days free testing allowed)\n"
0 Meta TrkName "SawLd"
0 Par ch=9 c=0 v=0
0 Par ch=9 c=7 v=100
0 Par ch=9 c=10 v=64
0 Par ch=9 c=93 v=0
0 Par ch=9 c=91 v=40
2 Par ch=9 c=32 v=0
2 PrCh ch=9 p=81
36864 On ch=9 n=74 v=108
36864 On ch=9 n=62 v=114
36912 On ch=9 n=74 v=0
36921 On ch=9 n=62 v=0
37056 On ch=9 n=74 v=105
37056 On ch=9 n=62 v=111
37094 On ch=9 n=74 v=0
37100 On ch=9 n=62 v=0
37104 ChPr ch=9 v=16
37104 ChPr ch=9 v=0
37248 On ch=9 n=74 v=105
37248 On ch=9 n=62 v=111
37284 On ch=9 n=74 v=0
37289 On ch=9 n=62 v=0
37440 On ch=9 n=74 v=108
37440 On ch=9 n=62 v=108
37440 ChPr ch=9 v=127
37476 Off ch=9 n=74 v=0
37479 Off ch=9 n=62 v=0
37488 ChPr ch=9 v=0
37632 On ch=9 n=74 v=108
37632 On ch=9 n=62 v=111
37632 ChPr ch=9 v=28
37668 Off ch=9 n=74 v=0
37669 Off ch=9 n=62 v=0
37680 ChPr ch=9 v=0
37824 On ch=9 n=74 v=108
37824 On ch=9 n=62 v=108
37824 ChPr ch=9 v=13
37824 ChPr ch=9 v=0
37859 Off ch=9 n=62 v=0
37862 Off ch=9 n=74 v=0
38016 On ch=9 n=74 v=105
38016 On ch=9 n=62 v=111
38016 ChPr ch=9 v=13
38016 ChPr ch=9 v=0
38051 Off ch=9 n=62 v=0
38054 Off ch=9 n=74 v=0
38208 On ch=9 n=74 v=108
38208 On ch=9 n=62 v=108
38208 ChPr ch=9 v=9
38208 ChPr ch=9 v=127
38208 ChPr ch=9 v=0
38245 Off ch=9 n=62 v=0
38247 Off ch=9 n=74 v=0
38400 On ch=9 n=74 v=108
38400 On ch=9 n=62 v=111
38400 ChPr ch=9 v=42
38400 ChPr ch=9 v=127
38400 ChPr ch=9 v=0
38438 Off ch=9 n=62 v=0
38439 Off ch=9 n=74 v=0
38592 On ch=9 n=74 v=108
38592 On ch=9 n=62 v=105
38592 ChPr ch=9 v=34
38592 ChPr ch=9 v=45
38630 Off ch=9 n=62 v=0
38632 Off ch=9 n=74 v=0
38640 ChPr ch=9 v=0
38784 On ch=9 n=74 v=108
38784 On ch=9 n=62 v=111
38784 ChPr ch=9 v=47
38822 Off ch=9 n=74 v=0
38823 Off ch=9 n=62 v=0
38832 ChPr ch=9 v=0
38976 On ch=9 n=74 v=105
38976 On ch=9 n=62 v=105
38976 ChPr ch=9 v=19
39015 Off ch=9 n=74 v=0
39017 Off ch=9 n=62 v=0
39024 ChPr ch=9 v=0
39168 On ch=9 n=74 v=105
39168 On ch=9 n=62 v=105
39168 ChPr ch=9 v=6
39168 ChPr ch=9 v=4
39206 Off ch=9 n=74 v=0
39207 Off ch=9 n=62 v=0
39216 ChPr ch=9 v=52
39216 ChPr ch=9 v=0
39360 On ch=9 n=74 v=108
39360 On ch=9 n=62 v=108
39396 On ch=9 n=62 v=0
39398 On ch=9 n=74 v=0
39408 ChPr ch=9 v=36
39408 ChPr ch=9 v=0
39552 On ch=9 n=74 v=102
39552 On ch=9 n=62 v=105
39552 ChPr ch=9 v=5
39589 Off ch=9 n=74 v=0
39589 Off ch=9 n=62 v=0
39600 ChPr ch=9 v=0
39744 On ch=9 n=74 v=105
39744 On ch=9 n=62 v=105
39780 On ch=9 n=74 v=0
39781 On ch=9 n=62 v=0
39936 On ch=9 n=74 v=105
39936 On ch=9 n=62 v=105
39973 On ch=9 n=62 v=0
39975 On ch=9 n=74 v=0
40128 On ch=9 n=74 v=105
40128 On ch=9 n=62 v=102
40165 On ch=9 n=62 v=0
40165 On ch=9 n=74 v=0
40320 On ch=9 n=74 v=105
40320 On ch=9 n=62 v=105
40320 ChPr ch=9 v=19
40320 ChPr ch=9 v=8
40356 Off ch=9 n=62 v=0
40357 Off ch=9 n=74 v=0
40368 ChPr ch=9 v=0
40512 On ch=9 n=74 v=102
40512 On ch=9 n=62 v=102
40512 ChPr ch=9 v=4
40512 ChPr ch=9 v=0
40512 ChPr ch=9 v=45
40548 Off ch=9 n=62 v=0
40550 Off ch=9 n=74 v=0
40560 ChPr ch=9 v=0
40704 On ch=9 n=74 v=105
40704 On ch=9 n=62 v=102
40704 ChPr ch=9 v=22
40704 ChPr ch=9 v=28
40704 ChPr ch=9 v=0
40739 Off ch=9 n=62 v=0
40741 Off ch=9 n=74 v=0
40896 On ch=9 n=74 v=102
40896 On ch=9 n=62 v=102
40896 ChPr ch=9 v=13
40896 ChPr ch=9 v=0
40930 Off ch=9 n=62 v=0
40933 Off ch=9 n=74 v=0
41088 On ch=9 n=74 v=105
41088 On ch=9 n=62 v=102
41088 ChPr ch=9 v=42
41088 ChPr ch=9 v=0
41124 Off ch=9 n=62 v=0
41125 Off ch=9 n=74 v=0
41280 On ch=9 n=74 v=105
41280 On ch=9 n=62 v=105
41280 ChPr ch=9 v=7
41313 Off ch=9 n=62 v=0
41319 Off ch=9 n=74 v=0
41328 ChPr ch=9 v=0
41472 On ch=9 n=74 v=102
41472 On ch=9 n=62 v=102
41506 On ch=9 n=62 v=0
41510 On ch=9 n=74 v=0
41664 On ch=9 n=74 v=105
41664 On ch=9 n=62 v=102
41664 ChPr ch=9 v=5
41664 ChPr ch=9 v=0
41700 Off ch=9 n=62 v=0
41704 Off ch=9 n=74 v=0
41856 On ch=9 n=62 v=105
41856 On ch=9 n=74 v=102
41892 On ch=9 n=62 v=0
41894 On ch=9 n=74 v=0
42048 On ch=9 n=62 v=105
42048 On ch=9 n=74 v=108
42048 ChPr ch=9 v=23
42048 ChPr ch=9 v=0
42082 Off ch=9 n=62 v=0
42089 Off ch=9 n=74 v=0
79851 Meta TrkEnd
TrkEnd
MTrk
0 Meta Text "{GNMIDI}Generated by illegal use of GNMIDI 2.0 demo after 41 days (only 14 days free testing allowed)\n"
0 Meta TrkName "GM Drums"
0 Par ch=10 c=0 v=0
0 Par ch=10 c=7 v=100
0 Par ch=10 c=10 v=64
0 Par ch=10 c=93 v=0
0 Par ch=10 c=91 v=40
0 Par ch=10 c=7 v=100
0 Par ch=10 c=10 v=64
0 Par ch=10 c=93 v=0
0 Par ch=10 c=91 v=40
0 Par ch=10 c=7 v=100
0 Par ch=10 c=10 v=64
0 Par ch=10 c=93 v=0
0 Par ch=10 c=91 v=40
0 Par ch=10 c=7 v=100
0 Par ch=10 c=10 v=64
0 Par ch=10 c=93 v=0
0 Par ch=10 c=91 v=40
0 Par ch=10 c=7 v=100
0 Par ch=10 c=10 v=64
0 Par ch=10 c=93 v=0
0 Par ch=10 c=91 v=40
2 Par ch=10 c=32 v=0
2 PrCh ch=10 p=0
2 Par ch=10 c=0 v=0
2 Par ch=10 c=32 v=0
2 PrCh ch=10 p=0
2 Par ch=10 c=0 v=0
2 Par ch=10 c=32 v=0
2 PrCh ch=10 p=0
2 Par ch=10 c=0 v=0
2 Par ch=10 c=32 v=0
2 PrCh ch=10 p=0
2 Par ch=10 c=0 v=0
2 Par ch=10 c=32 v=0
2 PrCh ch=10 p=0
3072 On ch=10 n=36 v=123
3072 ChPr ch=10 v=127
3072 ChPr ch=10 v=0
3072 On ch=10 n=44 v=127
3072 On ch=10 n=49 v=117
3072 On ch=10 n=87 v=127
3085 On ch=10 n=44 v=0
3102 On ch=10 n=87 v=0
3103 On ch=10 n=36 v=0
3105 On ch=10 n=49 v=0
3216 On ch=10 n=38 v=114
3216 On ch=10 n=44 v=117
3243 On ch=10 n=44 v=0
3243 On ch=10 n=38 v=0
3264 On ch=10 n=36 v=123
3264 ChPr ch=10 v=11
3264 ChPr ch=10 v=0
3264 On ch=10 n=44 v=127
3288 On ch=10 n=44 v=0
3298 On ch=10 n=36 v=0
3360 On ch=10 n=38 v=117
3360 On ch=10 n=44 v=127
3387 On ch=10 n=38 v=0
3389 On ch=10 n=44 v=0
3456 On ch=10 n=36 v=117
3456 On ch=10 n=44 v=127
3483 On ch=10 n=44 v=0
3483 On ch=10 n=36 v=0
3600 On ch=10 n=38 v=114
3600 On ch=10 n=44 v=117
3628 On ch=10 n=38 v=0
3631 On ch=10 n=44 v=0
3648 On ch=10 n=36 v=114
3648 On ch=10 n=44 v=127
3678 On ch=10 n=44 v=0
3681 On ch=10 n=36 v=0
3744 On ch=10 n=38 v=117
3744 On ch=10 n=44 v=127
3766 On ch=10 n=38 v=0
3774 On ch=10 n=44 v=0
3840 On ch=10 n=36 v=123
3840 ChPr ch=10 v=127
3840 ChPr ch=10 v=0
3840 On ch=10 n=44 v=127
3840 On ch=10 n=39 v=127
3863 On ch=10 n=39 v=0
3868 On ch=10 n=44 v=0
3871 On ch=10 n=36 v=0
3984 On ch=10 n=38 v=114
3984 On ch=10 n=44 v=117
4011 On ch=10 n=38 v=0
4014 On ch=10 n=44 v=0
4032 On ch=10 n=36 v=123
4032 ChPr ch=10 v=11
4032 ChPr ch=10 v=0
4032 On ch=10 n=44 v=117
4032 On ch=10 n=39 v=127
4054 On ch=10 n=39 v=0
4058 On ch=10 n=44 v=0
4066 On ch=10 n=36 v=0
4128 On ch=10 n=38 v=117
4128 On ch=10 n=44 v=117
4155 On ch=10 n=38 v=0
4158 On ch=10 n=44 v=0
4224 On ch=10 n=36 v=117
4224 On ch=10 n=44 v=127
4224 On ch=10 n=39 v=127
4248 On ch=10 n=39 v=0
4249 On ch=10 n=44 v=0
4251 On ch=10 n=36 v=0
4368 On ch=10 n=38 v=114
4368 On ch=10 n=44 v=117
4396 On ch=10 n=44 v=0
4396 On ch=10 n=38 v=0
4416 On ch=10 n=36 v=114
4416 On ch=10 n=44 v=127
4416 On ch=10 n=39 v=127
4436 On ch=10 n=39 v=0
4444 On ch=10 n=44 v=0
4449 On ch=10 n=36 v=0
4512 On ch=10 n=38 v=117
4512 On ch=10 n=44 v=127
4534 On ch=10 n=38 v=0
4541 On ch=10 n=44 v=0
4608 On ch=10 n=36 v=123
4608 ChPr ch=10 v=127
4608 ChPr ch=10 v=0
4608 On ch=10 n=44 v=127
4608 On ch=10 n=87 v=127
4608 On ch=10 n=57 v=117
4608 ChPr ch=10 v=23
4608 ChPr ch=10 v=0
4633 Off ch=10 n=44 v=0
4639 Off ch=10 n=36 v=0
4640 Off ch=10 n=87 v=0
4640 Off ch=10 n=57 v=0
4752 On ch=10 n=38 v=114
4752 On ch=10 n=44 v=117
4779 On ch=10 n=38 v=0
4780 On ch=10 n=44 v=0
4800 On ch=10 n=36 v=123
4800 ChPr ch=10 v=11
4800 ChPr ch=10 v=0
4800 On ch=10 n=44 v=117
4827 On ch=10 n=44 v=0
4834 On ch=10 n=36 v=0
4896 On ch=10 n=38 v=117
4896 On ch=10 n=44 v=117
4923 On ch=10 n=44 v=0
4923 On ch=10 n=38 v=0
4992 On ch=10 n=36 v=117
4992 On ch=10 n=44 v=127
5017 On ch=10 n=44 v=0
5019 On ch=10 n=36 v=0
5136 On ch=10 n=38 v=114
5136 On ch=10 n=44 v=114
5164 On ch=10 n=44 v=0
5164 On ch=10 n=38 v=0
5184 On ch=10 n=36 v=114
5184 On ch=10 n=44 v=127
5212 On ch=10 n=44 v=0
5217 On ch=10 n=36 v=0
5280 On ch=10 n=38 v=117
5280 On ch=10 n=44 v=117
5302 On ch=10 n=38 v=0
5309 On ch=10 n=44 v=0
5376 On ch=10 n=36 v=123
5376 ChPr ch=10 v=127
5376 ChPr ch=10 v=0
5376 On ch=10 n=44 v=127
5376 On ch=10 n=39 v=127
5401 On ch=10 n=39 v=0
5401 On ch=10 n=44 v=0
5407 On ch=10 n=36 v=0
5520 On ch=10 n=38 v=114
5520 On ch=10 n=44 v=117
5547 On ch=10 n=38 v=0
5551 On ch=10 n=44 v=0
5568 On ch=10 n=36 v=123
5568 ChPr ch=10 v=11
5568 ChPr ch=10 v=0
5568 On ch=10 n=44 v=127
5568 On ch=10 n=39 v=127
5591 On ch=10 n=39 v=0
5592 On ch=10 n=44 v=0
5602 On ch=10 n=36 v=0
5664 On ch=10 n=38 v=117
5664 On ch=10 n=44 v=117
5691 On ch=10 n=38 v=0
5692 On ch=10 n=44 v=0
5760 On ch=10 n=36 v=117
5760 On ch=10 n=44 v=117
5760 On ch=10 n=39 v=127
5784 On ch=10 n=44 v=0
5785 On ch=10 n=39 v=0
5787 On ch=10 n=36 v=0
5904 On ch=10 n=38 v=114
5904 On ch=10 n=44 v=117
5932 On ch=10 n=38 v=0
5933 On ch=10 n=44 v=0
5952 On ch=10 n=36 v=114
5952 On ch=10 n=44 v=127
5952 On ch=10 n=39 v=127
5977 On ch=10 n=39 v=0
5977 On ch=10 n=44 v=0
5985 On ch=10 n=36 v=0
6048 On ch=10 n=38 v=117
6048 On ch=10 n=44 v=127
6070 On ch=10 n=38 v=0
6075 On ch=10 n=44 v=0
6144 On ch=10 n=36 v=123
6144 ChPr ch=10 v=127
6144 ChPr ch=10 v=0
6144 On ch=10 n=44 v=127
6144 On ch=10 n=49 v=117
6144 On ch=10 n=87 v=127
6170 On ch=10 n=44 v=0
6173 On ch=10 n=87 v=0
6174 On ch=10 n=49 v=0
6175 On ch=10 n=36 v=0
6288 On ch=10 n=38 v=114
6288 On ch=10 n=44 v=117
6315 On ch=10 n=44 v=0
6315 On ch=10 n=38 v=0
6336 On ch=10 n=36 v=123
6336 ChPr ch=10 v=11
6336 ChPr ch=10 v=0
6336 On ch=10 n=44 v=117
6360 On ch=10 n=44 v=0
6370 On ch=10 n=36 v=0
6432 On ch=10 n=38 v=117
6432 On ch=10 n=44 v=117
6459 On ch=10 n=38 v=0
6460 On ch=10 n=44 v=0
6528 On ch=10 n=36 v=117
6528 On ch=10 n=44 v=117
6550 On ch=10 n=44 v=0
6555 On ch=10 n=36 v=0
6672 On ch=10 n=38 v=114
6672 On ch=10 n=44 v=117
6697 On ch=10 n=44 v=0
6700 On ch=10 n=38 v=0
6720 On ch=10 n=36 v=114
6720 On ch=10 n=44 v=117
6744 On ch=10 n=44 v=0
6753 On ch=10 n=36 v=0
6816 On ch=10 n=38 v=117
6816 On ch=10 n=44 v=127
6838 On ch=10 n=38 v=0
6843 On ch=10 n=44 v=0
6912 On ch=10 n=36 v=123
6912 ChPr ch=10 v=127
6912 ChPr ch=10 v=0
6912 On ch=10 n=44 v=127
6912 On ch=10 n=39 v=127
6936 On ch=10 n=39 v=0
6936 On ch=10 n=44 v=0
6943 On ch=10 n=36 v=0
7056 On ch=10 n=38 v=114
7056 On ch=10 n=44 v=117
7082 On ch=10 n=44 v=0
7083 On ch=10 n=38 v=0
7104 On ch=10 n=36 v=123
7104 ChPr ch=10 v=11
7104 ChPr ch=10 v=0
7104 On ch=10 n=44 v=117
7104 On ch=10 n=39 v=127
7127 On ch=10 n=39 v=0
7127 On ch=10 n=44 v=0
7138 On ch=10 n=36 v=0
7200 On ch=10 n=38 v=117
7200 On ch=10 n=44 v=117
7225 On ch=10 n=44 v=0
7227 On ch=10 n=38 v=0
7296 On ch=10 n=36 v=117
7296 On ch=10 n=44 v=127
7296 On ch=10 n=39 v=127
7319 On ch=10 n=44 v=0
7323 On ch=10 n=39 v=0
7323 On ch=10 n=36 v=0
7440 On ch=10 n=38 v=114
7440 On ch=10 n=44 v=117
7464 On ch=10 n=44 v=0
7468 On ch=10 n=38 v=0
7488 On ch=10 n=36 v=114
7488 On ch=10 n=44 v=127
7488 On ch=10 n=39 v=127
7514 On ch=10 n=39 v=0
7514 On ch=10 n=44 v=0
7521 On ch=10 n=36 v=0
7584 On ch=10 n=38 v=117
7584 On ch=10 n=44 v=127
7606 On ch=10 n=38 v=0
7610 On ch=10 n=44 v=0
7680 On ch=10 n=36 v=123
7680 ChPr ch=10 v=127
7680 ChPr ch=10 v=0
7680 On ch=10 n=44 v=127
7680 On ch=10 n=87 v=127
7680 On ch=10 n=57 v=117
7703 On ch=10 n=44 v=0
7710 On ch=10 n=57 v=0
7711 On ch=10 n=36 v=0
7711 On ch=10 n=87 v=0
7824 On ch=10 n=38 v=114
7824 On ch=10 n=44 v=117
7849 On ch=10 n=44 v=0
7851 On ch=10 n=38 v=0
7872 On ch=10 n=36 v=123
7872 ChPr ch=10 v=11
7872 ChPr ch=10 v=0
7872 On ch=10 n=44 v=127
7898 On ch=10 n=44 v=0
7906 On ch=10 n=36 v=0
7968 On ch=10 n=38 v=117
7968 On ch=10 n=44 v=117
7993 On ch=10 n=44 v=0
7995 On ch=10 n=38 v=0
8064 On ch=10 n=36 v=117
8064 On ch=10 n=44 v=127
8088 On ch=10 n=44 v=0
8091 On ch=10 n=36 v=0
8208 On ch=10 n=38 v=114
8208 On ch=10 n=44 v=117
8235 On ch=10 n=44 v=0
8236 On ch=10 n=38 v=0
8256 On ch=10 n=36 v=114
8256 On ch=10 n=44 v=117
8282 On ch=10 n=44 v=0
8289 On ch=10 n=36 v=0
8352 On ch=10 n=38 v=117
8352 On ch=10 n=44 v=127
8374 On ch=10 n=38 v=0
8378 On ch=10 n=44 v=0
8448 On ch=10 n=36 v=123
8448 ChPr ch=10 v=127
8448 ChPr ch=10 v=0
8448 On ch=10 n=44 v=127
8448 On ch=10 n=39 v=127
8472 On ch=10 n=44 v=0
8474 On ch=10 n=39 v=0
8479 On ch=10 n=36 v=0
8592 On ch=10 n=38 v=114
8592 On ch=10 n=44 v=117
8618 On ch=10 n=44 v=0
8619 On ch=10 n=38 v=0
8640 On ch=10 n=36 v=123
8640 ChPr ch=10 v=11
8640 ChPr ch=10 v=0
8640 On ch=10 n=44 v=117
8640 On ch=10 n=39 v=127
8666 On ch=10 n=39 v=0
8666 On ch=10 n=44 v=0
8674 On ch=10 n=36 v=0
8736 On ch=10 n=38 v=117
8736 On ch=10 n=44 v=117
8763 On ch=10 n=44 v=0
8763 On ch=10 n=38 v=0
8832 On ch=10 n=36 v=117
8832 On ch=10 n=44 v=127
8832 On ch=10 n=39 v=127
8856 On ch=10 n=44 v=0
8858 On ch=10 n=39 v=0
8859 On ch=10 n=36 v=0
8976 On ch=10 n=38 v=114
8976 On ch=10 n=44 v=117
9002 On ch=10 n=44 v=0
9004 On ch=10 n=38 v=0
9024 On ch=10 n=36 v=114
9024 On ch=10 n=44 v=117
9024 On ch=10 n=39 v=127
9046 On ch=10 n=39 v=0
9049 On ch=10 n=44 v=0
9057 On ch=10 n=36 v=0
9120 On ch=10 n=38 v=117
9120 On ch=10 n=44 v=117
9142 On ch=10 n=38 v=0
9148 On ch=10 n=44 v=0
9216 On ch=10 n=36 v=117
9216 ChPr ch=10 v=42
9216 ChPr ch=10 v=22
9216 ChPr ch=10 v=0
9216 On ch=10 n=87 v=127
9216 On ch=10 n=49 v=108
9246 On ch=10 n=36 v=0
9408 On ch=10 n=36 v=123
9439 On ch=10 n=36 v=0
9600 On ch=10 n=36 v=117
9600 ChPr ch=10 v=127
9600 ChPr ch=10 v=0
9633 Off ch=10 n=36 v=0
9643 Off ch=10 n=49 v=0
9672 Off ch=10 n=87 v=0
9792 On ch=10 n=36 v=123
9822 On ch=10 n=36 v=0
9984 On ch=10 n=36 v=123
10016 On ch=10 n=36 v=0
10176 On ch=10 n=36 v=117
10205 On ch=10 n=36 v=0
10368 On ch=10 n=36 v=117
10397 On ch=10 n=36 v=0
10560 On ch=10 n=36 v=117
10560 ChPr ch=10 v=14
10560 ChPr ch=10 v=0
10591 Off ch=10 n=36 v=0
10752 On ch=10 n=36 v=117
10781 On ch=10 n=36 v=0
10944 On ch=10 n=36 v=117
10974 On ch=10 n=36 v=0
11136 On ch=10 n=36 v=123
11167 On ch=10 n=36 v=0
11328 On ch=10 n=36 v=117
11358 On ch=10 n=36 v=0
11520 On ch=10 n=36 v=117
11520 ChPr ch=10 v=127
11520 ChPr ch=10 v=0
11550 Off ch=10 n=36 v=0
11712 On ch=10 n=36 v=117
11740 On ch=10 n=36 v=0
11904 On ch=10 n=36 v=117
11904 ChPr ch=10 v=15
11904 ChPr ch=10 v=0
11933 Off ch=10 n=36 v=0
12096 On ch=10 n=36 v=117
12126 On ch=10 n=36 v=0
12288 On ch=10 n=36 v=123
12318 On ch=10 n=36 v=0
12480 On ch=10 n=36 v=117
12509 On ch=10 n=36 v=0
12672 On ch=10 n=36 v=117
12704 On ch=10 n=36 v=0
12864 On ch=10 n=36 v=117
12894 On ch=10 n=36 v=0
13056 On ch=10 n=36 v=117
13087 On ch=10 n=36 v=0
13248 On ch=10 n=36 v=123
13279 On ch=10 n=36 v=0
13440 On ch=10 n=36 v=117
13470 On ch=10 n=36 v=0
13632 On ch=10 n=36 v=117
13632 ChPr ch=10 v=9
13632 ChPr ch=10 v=0
13662 Off ch=10 n=36 v=0
13824 On ch=10 n=36 v=117
13824 ChPr ch=10 v=21
13824 ChPr ch=10 v=0
13858 Off ch=10 n=36 v=0
14016 On ch=10 n=36 v=117
14048 On ch=10 n=36 v=0
14208 On ch=10 n=36 v=117
14239 On ch=10 n=36 v=0
14400 On ch=10 n=36 v=117
14435 On ch=10 n=36 v=0
14592 On ch=10 n=36 v=123
14592 ChPr ch=10 v=55
14592 ChPr ch=10 v=0
14628 Off ch=10 n=36 v=0
14784 On ch=10 n=36 v=117
14784 ChPr ch=10 v=4
14784 ChPr ch=10 v=0
14815 Off ch=10 n=36 v=0
14976 On ch=10 n=36 v=117
15006 On ch=10 n=36 v=0
15168 On ch=10 n=36 v=117
15199 On ch=10 n=36 v=0
15360 On ch=10 n=36 v=114
15360 On ch=10 n=44 v=127
15381 On ch=10 n=44 v=0
15397 On ch=10 n=36 v=0
15408 On ch=10 n=44 v=127
15435 On ch=10 n=44 v=0
15504 On ch=10 n=44 v=127
15524 On ch=10 n=44 v=0
15552 On ch=10 n=36 v=117
15552 ChPr ch=10 v=15
15552 ChPr ch=10 v=0
15552 On ch=10 n=44 v=117
15577 On ch=10 n=44 v=0
15589 On ch=10 n=36 v=0
15600 On ch=10 n=44 v=127
15625 On ch=10 n=44 v=0
15648 On ch=10 n=44 v=127
15678 On ch=10 n=44 v=0
15744 On ch=10 n=36 v=117
15744 On ch=10 n=44 v=127
15767 On ch=10 n=44 v=0
15777 On ch=10 n=36 v=0
15792 On ch=10 n=44 v=127
15819 On ch=10 n=44 v=0
15888 On ch=10 n=44 v=127
15911 On ch=10 n=44 v=0
15936 On ch=10 n=36 v=117
15936 On ch=10 n=44 v=117
15963 On ch=10 n=44 v=0
15970 On ch=10 n=36 v=0
15984 On ch=10 n=44 v=127
16009 On ch=10 n=44 v=0
16032 On ch=10 n=44 v=127
16057 On ch=10 n=44 v=0
16128 On ch=10 n=36 v=117
16128 ChPr ch=10 v=18
16128 ChPr ch=10 v=0
16128 On ch=10 n=44 v=127
16149 On ch=10 n=44 v=0
16162 On ch=10 n=36 v=0
16176 On ch=10 n=44 v=127
16203 On ch=10 n=44 v=0
16272 On ch=10 n=44 v=127
16292 On ch=10 n=44 v=0
16320 On ch=10 n=36 v=117
16320 ChPr ch=10 v=70
16320 ChPr ch=10 v=0
16320 On ch=10 n=44 v=117
16345 On ch=10 n=44 v=0
16354 On ch=10 n=36 v=0
16368 On ch=10 n=44 v=127
16393 On ch=10 n=44 v=0
16416 On ch=10 n=44 v=127
16446 On ch=10 n=44 v=0
16512 On ch=10 n=36 v=117
16512 On ch=10 n=44 v=127
16535 On ch=10 n=44 v=0
16546 On ch=10 n=36 v=0
16560 On ch=10 n=44 v=127
16587 On ch=10 n=44 v=0
16656 On ch=10 n=44 v=127
16679 On ch=10 n=44 v=0
16704 On ch=10 n=36 v=117
16704 On ch=10 n=44 v=117
16731 On ch=10 n=44 v=0
16738 On ch=10 n=36 v=0
16752 On ch=10 n=44 v=127
16777 On ch=10 n=44 v=0
16800 On ch=10 n=44 v=127
16825 On ch=10 n=44 v=0
16896 On ch=10 n=36 v=117
16896 On ch=10 n=44 v=127
16917 On ch=10 n=44 v=0
16929 On ch=10 n=36 v=0
16944 On ch=10 n=44 v=127
16971 On ch=10 n=44 v=0
17040 On ch=10 n=44 v=127
17060 On ch=10 n=44 v=0
17088 On ch=10 n=36 v=117
17088 ChPr ch=10 v=3
17088 ChPr ch=10 v=0
17088 On ch=10 n=44 v=117
17113 On ch=10 n=44 v=0
17123 On ch=10 n=36 v=0
17136 On ch=10 n=44 v=127
17161 On ch=10 n=44 v=0
17184 On ch=10 n=44 v=127
17214 On ch=10 n=44 v=0
17280 On ch=10 n=36 v=123
17280 On ch=10 n=44 v=127
17303 On ch=10 n=44 v=0
17315 On ch=10 n=36 v=0
17328 On ch=10 n=44 v=127
17355 On ch=10 n=44 v=0
17424 On ch=10 n=44 v=127
17447 On ch=10 n=44 v=0
17472 On ch=10 n=36 v=123
17472 On ch=10 n=44 v=117
17499 On ch=10 n=44 v=0
17505 On ch=10 n=36 v=0
17520 On ch=10 n=44 v=127
17545 On ch=10 n=44 v=0
17568 On ch=10 n=44 v=127
17593 On ch=10 n=44 v=0
17664 On ch=10 n=36 v=114
17664 On ch=10 n=44 v=127
17685 On ch=10 n=44 v=0
17699 On ch=10 n=36 v=0
17712 On ch=10 n=44 v=127
17739 On ch=10 n=44 v=0
17808 On ch=10 n=44 v=127
17828 On ch=10 n=44 v=0
17856 On ch=10 n=36 v=114
17856 On ch=10 n=44 v=117
17881 On ch=10 n=44 v=0
17886 On ch=10 n=36 v=0
17904 On ch=10 n=44 v=127
17929 On ch=10 n=44 v=0
17952 On ch=10 n=44 v=127
17982 On ch=10 n=44 v=0
18048 On ch=10 n=36 v=117
18048 On ch=10 n=44 v=127
18071 On ch=10 n=44 v=0
18080 On ch=10 n=36 v=0
18096 On ch=10 n=44 v=127
18123 On ch=10 n=44 v=0
18192 On ch=10 n=44 v=127
18215 On ch=10 n=44 v=0
18240 On ch=10 n=36 v=117
18240 On ch=10 n=44 v=117
18267 On ch=10 n=44 v=0
18273 On ch=10 n=36 v=0
18288 On ch=10 n=44 v=127
18313 On ch=10 n=44 v=0
18336 On ch=10 n=44 v=127
18361 On ch=10 n=44 v=0
18432 On ch=10 n=36 v=117
18432 On ch=10 n=44 v=127
18453 On ch=10 n=44 v=0
18467 On ch=10 n=36 v=0
18480 On ch=10 n=44 v=127
18507 On ch=10 n=44 v=0
18576 On ch=10 n=38 v=114
18576 On ch=10 n=44 v=127
18596 On ch=10 n=44 v=0
18603 On ch=10 n=38 v=0
18624 On ch=10 n=36 v=117
18624 On ch=10 n=44 v=117
18649 On ch=10 n=44 v=0
18655 On ch=10 n=36 v=0
18672 On ch=10 n=44 v=127
18697 On ch=10 n=44 v=0
18720 On ch=10 n=38 v=123
18720 ChPr ch=10 v=22
18720 On ch=10 n=44 v=127
18746 On ch=10 n=38 v=0
18750 On ch=10 n=44 v=0
18768 ChPr ch=10 v=0
18816 On ch=10 n=36 v=117
18816 On ch=10 n=44 v=127
18839 On ch=10 n=44 v=0
18842 On ch=10 n=36 v=0
18864 On ch=10 n=44 v=127
18891 On ch=10 n=44 v=0
18960 On ch=10 n=38 v=117
18960 On ch=10 n=44 v=127
18983 On ch=10 n=44 v=0
18987 On ch=10 n=38 v=0
19008 On ch=10 n=36 v=117
19008 On ch=10 n=44 v=117
19035 On ch=10 n=44 v=0
19041 On ch=10 n=36 v=0
19056 On ch=10 n=44 v=127
19081 On ch=10 n=44 v=0
19104 On ch=10 n=38 v=117
19104 On ch=10 n=44 v=127
19129 On ch=10 n=44 v=0
19132 On ch=10 n=38 v=0
19200 On ch=10 n=36 v=117
19200 On ch=10 n=44 v=127
19221 On ch=10 n=44 v=0
19229 On ch=10 n=36 v=0
19248 On ch=10 n=44 v=127
19275 On ch=10 n=44 v=0
19344 On ch=10 n=38 v=114
19344 On ch=10 n=44 v=127
19364 On ch=10 n=44 v=0
19371 On ch=10 n=38 v=0
19392 On ch=10 n=36 v=117
19392 ChPr ch=10 v=127
19392 ChPr ch=10 v=13
19392 On ch=10 n=44 v=117
19417 On ch=10 n=44 v=0
19428 On ch=10 n=36 v=0
19440 ChPr ch=10 v=0
19440 On ch=10 n=44 v=127
19465 On ch=10 n=44 v=0
19488 On ch=10 n=38 v=117
19488 ChPr ch=10 v=23
19488 On ch=10 n=44 v=127
19516 On ch=10 n=38 v=0
19518 On ch=10 n=44 v=0
19536 ChPr ch=10 v=0
19584 On ch=10 n=36 v=117
19584 ChPr ch=10 v=127
19584 On ch=10 n=44 v=127
19607 On ch=10 n=44 v=0
19615 On ch=10 n=36 v=0
19632 ChPr ch=10 v=0
19632 On ch=10 n=44 v=127
19659 On ch=10 n=44 v=0
19728 On ch=10 n=38 v=117
19728 On ch=10 n=44 v=127
19751 On ch=10 n=44 v=0
19756 On ch=10 n=38 v=0
19776 On ch=10 n=36 v=117
19776 ChPr ch=10 v=55
19776 On ch=10 n=44 v=117
19803 On ch=10 n=44 v=0
19812 On ch=10 n=36 v=0
19824 ChPr ch=10 v=15
19824 ChPr ch=10 v=0
19824 On ch=10 n=44 v=127
19849 On ch=10 n=44 v=0
19872 On ch=10 n=38 v=123
19872 ChPr ch=10 v=21
19872 On ch=10 n=44 v=127
19897 On ch=10 n=44 v=0
19901 On ch=10 n=38 v=0
19920 ChPr ch=10 v=0
19968 On ch=10 n=36 v=123
19968 ChPr ch=10 v=127
19968 On ch=10 n=44 v=127
19989 On ch=10 n=44 v=0
20001 On ch=10 n=36 v=0
20016 ChPr ch=10 v=0
20016 On ch=10 n=44 v=127
20043 On ch=10 n=44 v=0
20112 On ch=10 n=38 v=117
20112 On ch=10 n=44 v=127
20132 On ch=10 n=44 v=0
20141 On ch=10 n=38 v=0
20160 On ch=10 n=36 v=117
20160 ChPr ch=10 v=21
20160 On ch=10 n=44 v=117
20185 On ch=10 n=44 v=0
20193 On ch=10 n=36 v=0
20208 ChPr ch=10 v=0
20208 On ch=10 n=44 v=127
20233 On ch=10 n=44 v=0
20256 On ch=10 n=38 v=114
20256 On ch=10 n=44 v=127
20284 On ch=10 n=38 v=0
20286 On ch=10 n=44 v=0
20352 On ch=10 n=36 v=123
20352 On ch=10 n=44 v=127
20375 On ch=10 n=44 v=0
20385 On ch=10 n=36 v=0
20400 ChPr ch=10 v=8
20400 ChPr ch=10 v=0
20400 On ch=10 n=44 v=127
20427 On ch=10 n=44 v=0
20496 On ch=10 n=38 v=117
20496 On ch=10 n=44 v=127
20519 On ch=10 n=44 v=0
20523 On ch=10 n=38 v=0
20544 On ch=10 n=36 v=117
20544 ChPr ch=10 v=67
20544 On ch=10 n=44 v=117
20571 On ch=10 n=44 v=0
20579 On ch=10 n=36 v=0
20592 ChPr ch=10 v=0
20592 On ch=10 n=44 v=127
20617 On ch=10 n=44 v=0
20640 On ch=10 n=38 v=114
20640 On ch=10 n=44 v=127
20665 On ch=10 n=44 v=0
20666 On ch=10 n=38 v=0
20736 On ch=10 n=36 v=123
20736 On ch=10 n=44 v=127
20753 On ch=10 n=44 v=0
20758 On ch=10 n=36 v=0
21504 On ch=10 n=36 v=117
21504 On ch=10 n=44 v=127
21504 On ch=10 n=80 v=114
21525 On ch=10 n=44 v=0
21534 On ch=10 n=80 v=0
21539 On ch=10 n=36 v=0
21552 On ch=10 n=44 v=127
21579 On ch=10 n=44 v=0
21600 On ch=10 n=81 v=102
21631 On ch=10 n=81 v=0
21648 On ch=10 n=38 v=114
21648 On ch=10 n=44 v=127
21668 On ch=10 n=44 v=0
21675 On ch=10 n=38 v=0
21696 On ch=10 n=36 v=117
21696 On ch=10 n=44 v=117
21696 On ch=10 n=80 v=108
21721 On ch=10 n=44 v=0
21724 On ch=10 n=80 v=0
21727 On ch=10 n=36 v=0
21744 On ch=10 n=44 v=127
21769 On ch=10 n=44 v=0
21792 On ch=10 n=38 v=123
21792 ChPr ch=10 v=22
21792 On ch=10 n=44 v=127
21792 On ch=10 n=81 v=105
21818 On ch=10 n=38 v=0
21822 On ch=10 n=44 v=0
21823 On ch=10 n=81 v=0
21840 ChPr ch=10 v=0
21888 On ch=10 n=36 v=117
21888 On ch=10 n=44 v=127
21888 On ch=10 n=80 v=117
21911 On ch=10 n=44 v=0
21914 On ch=10 n=36 v=0
21918 On ch=10 n=80 v=0
21936 On ch=10 n=44 v=127
21963 On ch=10 n=44 v=0
21984 On ch=10 n=81 v=108
22013 On ch=10 n=81 v=0
22032 On ch=10 n=38 v=117
22032 On ch=10 n=44 v=127
22055 On ch=10 n=44 v=0
22059 On ch=10 n=38 v=0
22080 On ch=10 n=36 v=117
22080 On ch=10 n=44 v=117
22080 On ch=10 n=80 v=114
22107 On ch=10 n=80 v=0
22107 On ch=10 n=44 v=0
22113 On ch=10 n=36 v=0
22128 On ch=10 n=44 v=127
22153 On ch=10 n=44 v=0
22176 On ch=10 n=38 v=117
22176 On ch=10 n=44 v=127
22176 On ch=10 n=81 v=105
22201 On ch=10 n=44 v=0
22204 On ch=10 n=38 v=0
22206 On ch=10 n=81 v=0
22272 On ch=10 n=36 v=117
22272 On ch=10 n=44 v=127
22272 On ch=10 n=80 v=108
22293 On ch=10 n=44 v=0
22300 On ch=10 n=80 v=0
22301 On ch=10 n=36 v=0
22320 On ch=10 n=44 v=127
22347 On ch=10 n=44 v=0
22368 On ch=10 n=81 v=105
22396 On ch=10 n=81 v=0
22416 On ch=10 n=38 v=114
22416 On ch=10 n=44 v=127
22436 On ch=10 n=44 v=0
22443 On ch=10 n=38 v=0
22464 On ch=10 n=36 v=117
22464 ChPr ch=10 v=127
22464 ChPr ch=10 v=13
22464 On ch=10 n=44 v=117
22464 On ch=10 n=80 v=114
22489 On ch=10 n=44 v=0
22491 On ch=10 n=80 v=0
22500 On ch=10 n=36 v=0
22512 ChPr ch=10 v=0
22512 On ch=10 n=44 v=127
22537 On ch=10 n=44 v=0
22560 On ch=10 n=38 v=117
22560 ChPr ch=10 v=23
22560 On ch=10 n=44 v=127
22560 On ch=10 n=81 v=102
22588 On ch=10 n=38 v=0
22589 On ch=10 n=81 v=0
22590 On ch=10 n=44 v=0
22608 ChPr ch=10 v=0
22656 On ch=10 n=36 v=117
22656 ChPr ch=10 v=127
22656 On ch=10 n=44 v=127
22656 On ch=10 n=80 v=127
22679 On ch=10 n=44 v=0
22685 On ch=10 n=80 v=0
22687 On ch=10 n=36 v=0
22704 ChPr ch=10 v=0
22704 On ch=10 n=44 v=127
22731 On ch=10 n=44 v=0
22752 On ch=10 n=81 v=105
22780 On ch=10 n=81 v=0
22800 On ch=10 n=38 v=117
22800 On ch=10 n=44 v=127
22823 On ch=10 n=44 v=0
22828 On ch=10 n=38 v=0
22848 On ch=10 n=36 v=117
22848 ChPr ch=10 v=55
22848 On ch=10 n=44 v=117
22848 On ch=10 n=80 v=117
22875 On ch=10 n=80 v=0
22875 On ch=10 n=44 v=0
22884 On ch=10 n=36 v=0
22896 ChPr ch=10 v=15
22896 ChPr ch=10 v=0
22896 On ch=10 n=44 v=127
22921 On ch=10 n=44 v=0
22944 On ch=10 n=38 v=123
22944 ChPr ch=10 v=21
22944 On ch=10 n=44 v=127
22944 On ch=10 n=81 v=105
22969 On ch=10 n=44 v=0
22972 On ch=10 n=81 v=0
22973 On ch=10 n=38 v=0
22992 ChPr ch=10 v=0
23040 On ch=10 n=36 v=123
23040 ChPr ch=10 v=127
23040 On ch=10 n=44 v=127
23040 On ch=10 n=80 v=117
23061 On ch=10 n=44 v=0
23067 On ch=10 n=80 v=0
23073 On ch=10 n=36 v=0
23088 ChPr ch=10 v=0
23088 On ch=10 n=44 v=127
23115 On ch=10 n=44 v=0
23136 On ch=10 n=81 v=108
23165 On ch=10 n=81 v=0
23184 On ch=10 n=38 v=117
23184 On ch=10 n=44 v=127
23204 On ch=10 n=44 v=0
23213 On ch=10 n=38 v=0
23232 On ch=10 n=36 v=117
23232 ChPr ch=10 v=21
23232 On ch=10 n=44 v=117
23232 On ch=10 n=80 v=114
23257 On ch=10 n=44 v=0
23259 On ch=10 n=80 v=0
23265 On ch=10 n=36 v=0
23280 ChPr ch=10 v=0
23280 On ch=10 n=44 v=127
23305 On ch=10 n=44 v=0
23328 On ch=10 n=38 v=114
23328 On ch=10 n=44 v=127
23328 On ch=10 n=81 v=105
23356 On ch=10 n=38 v=0
23358 On ch=10 n=81 v=0
23358 On ch=10 n=44 v=0
23424 On ch=10 n=36 v=123
23424 On ch=10 n=44 v=127
23424 On ch=10 n=80 v=108
23447 On ch=10 n=44 v=0
23452 On ch=10 n=80 v=0
23457 On ch=10 n=36 v=0
23472 ChPr ch=10 v=8
23472 ChPr ch=10 v=0
23472 On ch=10 n=44 v=127
23499 On ch=10 n=44 v=0
23520 On ch=10 n=81 v=105
23548 On ch=10 n=81 v=0
23568 On ch=10 n=38 v=117
23568 On ch=10 n=44 v=127
23591 On ch=10 n=44 v=0
23595 On ch=10 n=38 v=0
23616 On ch=10 n=36 v=117
23616 ChPr ch=10 v=67
23616 On ch=10 n=44 v=117
23616 On ch=10 n=80 v=108
23643 On ch=10 n=44 v=0
23644 On ch=10 n=80 v=0
23651 On ch=10 n=36 v=0
23664 ChPr ch=10 v=0
23664 On ch=10 n=44 v=127
23689 On ch=10 n=44 v=0
23712 On ch=10 n=38 v=114
23712 On ch=10 n=44 v=127
23712 On ch=10 n=81 v=108
23737 On ch=10 n=44 v=0
23738 On ch=10 n=38 v=0
23740 On ch=10 n=81 v=0
23808 On ch=10 n=87 v=127
23808 On ch=10 n=36 v=123
23808 ChPr ch=10 v=84
23808 ChPr ch=10 v=92
23808 ChPr ch=10 v=40
23808 On ch=10 n=44 v=127
23825 On ch=10 n=44 v=0
23856 ChPr ch=10 v=0
23958 Off ch=10 n=87 v=0
23959 Off ch=10 n=36 v=0
24576 On ch=10 n=36 v=117
24576 On ch=10 n=44 v=127
24576 On ch=10 n=80 v=114
24576 On ch=10 n=87 v=127
24576 On ch=10 n=49 v=117
24596 On ch=10 n=49 v=0
24597 On ch=10 n=44 v=0
24597 On ch=10 n=87 v=0
24607 On ch=10 n=80 v=0
24611 On ch=10 n=36 v=0
24624 On ch=10 n=44 v=127
24651 On ch=10 n=44 v=0
24672 On ch=10 n=81 v=105
24705 On ch=10 n=81 v=0
24720 On ch=10 n=38 v=114
24720 On ch=10 n=44 v=127
24740 On ch=10 n=44 v=0
24747 On ch=10 n=38 v=0
24768 On ch=10 n=36 v=117
24768 On ch=10 n=44 v=117
24768 On ch=10 n=80 v=108
24793 On ch=10 n=44 v=0
24796 On ch=10 n=80 v=0
24799 On ch=10 n=36 v=0
24816 On ch=10 n=44 v=127
24841 On ch=10 n=44 v=0
24864 On ch=10 n=38 v=123
24864 ChPr ch=10 v=22
24864 On ch=10 n=44 v=127
24864 On ch=10 n=81 v=96
24890 On ch=10 n=38 v=0
24893 On ch=10 n=81 v=0
24894 On ch=10 n=44 v=0
24912 ChPr ch=10 v=0
24960 On ch=10 n=36 v=117
24960 On ch=10 n=44 v=127
24960 On ch=10 n=80 v=108
24983 On ch=10 n=44 v=0
24986 On ch=10 n=36 v=0
24987 On ch=10 n=80 v=0
25008 On ch=10 n=44 v=127
25035 On ch=10 n=44 v=0
25056 On ch=10 n=81 v=93
25087 On ch=10 n=81 v=0
25104 On ch=10 n=38 v=117
25104 On ch=10 n=44 v=127
25127 On ch=10 n=44 v=0
25131 On ch=10 n=38 v=0
25152 On ch=10 n=36 v=117
25152 On ch=10 n=44 v=117
25152 On ch=10 n=80 v=102
25179 On ch=10 n=44 v=0
25180 On ch=10 n=80 v=0
25185 On ch=10 n=36 v=0
25200 On ch=10 n=44 v=127
25225 On ch=10 n=44 v=0
25248 On ch=10 n=38 v=117
25248 On ch=10 n=44 v=127
25248 On ch=10 n=81 v=93
25273 On ch=10 n=44 v=0
25276 On ch=10 n=38 v=0
25280 On ch=10 n=81 v=0
25344 On ch=10 n=36 v=117
25344 On ch=10 n=44 v=127
25344 On ch=10 n=80 v=102
25365 On ch=10 n=44 v=0
25373 On ch=10 n=36 v=0
25374 On ch=10 n=80 v=0
25392 On ch=10 n=44 v=127
25419 On ch=10 n=44 v=0
25440 On ch=10 n=81 v=102
25473 On ch=10 n=81 v=0
25488 On ch=10 n=38 v=114
25488 On ch=10 n=44 v=127
25508 On ch=10 n=44 v=0
25515 On ch=10 n=38 v=0
25536 On ch=10 n=36 v=117
25536 ChPr ch=10 v=127
25536 ChPr ch=10 v=13
25536 On ch=10 n=44 v=117
25536 On ch=10 n=80 v=108
25561 On ch=10 n=44 v=0
25566 On ch=10 n=80 v=0
25572 On ch=10 n=36 v=0
25584 ChPr ch=10 v=0
25584 On ch=10 n=44 v=127
25609 On ch=10 n=44 v=0
25632 On ch=10 n=38 v=117
25632 ChPr ch=10 v=23
25632 On ch=10 n=44 v=127
25632 On ch=10 n=81 v=96
25660 On ch=10 n=38 v=0
25662 On ch=10 n=44 v=0
25665 On ch=10 n=81 v=0
25680 ChPr ch=10 v=0
25728 On ch=10 n=36 v=117
25728 ChPr ch=10 v=127
25728 On ch=10 n=44 v=127
25728 On ch=10 n=80 v=108
25751 On ch=10 n=44 v=0
25759 On ch=10 n=80 v=0
25759 On ch=10 n=36 v=0
25776 ChPr ch=10 v=0
25776 On ch=10 n=44 v=127
25803 On ch=10 n=44 v=0
25824 On ch=10 n=81 v=105
25856 On ch=10 n=81 v=0
25872 On ch=10 n=38 v=117
25872 On ch=10 n=44 v=127
25895 On ch=10 n=44 v=0
25900 On ch=10 n=38 v=0
25920 On ch=10 n=36 v=117
25920 ChPr ch=10 v=55
25920 On ch=10 n=44 v=117
25920 On ch=10 n=80 v=108
25947 On ch=10 n=44 v=0
25950 On ch=10 n=80 v=0
25956 On ch=10 n=36 v=0
25968 ChPr ch=10 v=15
25968 ChPr ch=10 v=0
25968 On ch=10 n=44 v=127
25993 On ch=10 n=44 v=0
26016 On ch=10 n=38 v=123
26016 ChPr ch=10 v=21
26016 On ch=10 n=44 v=127
26016 On ch=10 n=81 v=102
26041 On ch=10 n=44 v=0
26045 On ch=10 n=38 v=0
26048 On ch=10 n=81 v=0
26064 ChPr ch=10 v=0
26112 On ch=10 n=36 v=123
26112 ChPr ch=10 v=127
26112 On ch=10 n=44 v=127
26112 On ch=10 n=80 v=108
26133 On ch=10 n=44 v=0
26140 On ch=10 n=80 v=0
26145 On ch=10 n=36 v=0
26160 ChPr ch=10 v=0
26160 On ch=10 n=44 v=127
26187 On ch=10 n=44 v=0
26208 On ch=10 n=81 v=105
26239 On ch=10 n=81 v=0
26256 On ch=10 n=38 v=117
26256 On ch=10 n=44 v=127
26276 On ch=10 n=44 v=0
26285 On ch=10 n=38 v=0
26304 On ch=10 n=36 v=117
26304 ChPr ch=10 v=21
26304 On ch=10 n=44 v=117
26304 On ch=10 n=80 v=108
26329 On ch=10 n=44 v=0
26333 On ch=10 n=80 v=0
26337 On ch=10 n=36 v=0
26352 ChPr ch=10 v=0
26352 On ch=10 n=44 v=127
26377 On ch=10 n=44 v=0
26400 On ch=10 n=38 v=114
26400 On ch=10 n=44 v=127
26400 On ch=10 n=81 v=102
26428 On ch=10 n=38 v=0
26430 On ch=10 n=44 v=0
26431 On ch=10 n=81 v=0
26496 On ch=10 n=36 v=123
26496 On ch=10 n=44 v=127
26496 On ch=10 n=80 v=114
26519 On ch=10 n=44 v=0
26526 On ch=10 n=80 v=0
26529 On ch=10 n=36 v=0
26544 ChPr ch=10 v=8
26544 ChPr ch=10 v=0
26544 On ch=10 n=44 v=127
26571 On ch=10 n=44 v=0
26592 On ch=10 n=81 v=105
26623 On ch=10 n=81 v=0
26640 On ch=10 n=38 v=117
26640 On ch=10 n=44 v=127
26663 On ch=10 n=44 v=0
26667 On ch=10 n=38 v=0
26688 On ch=10 n=36 v=117
26688 ChPr ch=10 v=67
26688 On ch=10 n=44 v=117
26688 On ch=10 n=80 v=117
26715 On ch=10 n=44 v=0
26717 On ch=10 n=80 v=0
26723 On ch=10 n=36 v=0
26736 ChPr ch=10 v=0
26736 On ch=10 n=44 v=127
26761 On ch=10 n=44 v=0
26784 On ch=10 n=38 v=114
26784 On ch=10 n=44 v=127
26784 On ch=10 n=81 v=108
26809 On ch=10 n=44 v=0
26810 On ch=10 n=38 v=0
26815 On ch=10 n=81 v=0
26880 On ch=10 n=36 v=117
26880 On ch=10 n=44 v=127
26880 On ch=10 n=80 v=127
26901 On ch=10 n=44 v=0
26911 On ch=10 n=80 v=0
26915 On ch=10 n=36 v=0
26928 On ch=10 n=44 v=127
26955 On ch=10 n=44 v=0
26976 On ch=10 n=81 v=108
27007 On ch=10 n=81 v=0
27024 On ch=10 n=38 v=114
27024 On ch=10 n=44 v=127
27044 On ch=10 n=44 v=0
27051 On ch=10 n=38 v=0
27072 On ch=10 n=36 v=117
27072 On ch=10 n=44 v=117
27072 On ch=10 n=80 v=108
27097 On ch=10 n=44 v=0
27102 On ch=10 n=80 v=0
27103 On ch=10 n=36 v=0
27120 On ch=10 n=44 v=127
27145 On ch=10 n=44 v=0
27168 On ch=10 n=38 v=123
27168 ChPr ch=10 v=22
27168 On ch=10 n=44 v=127
27168 On ch=10 n=81 v=108
27194 On ch=10 n=38 v=0
27198 On ch=10 n=44 v=0
27200 On ch=10 n=81 v=0
27216 ChPr ch=10 v=0
27264 On ch=10 n=36 v=117
27264 On ch=10 n=44 v=127
27264 On ch=10 n=80 v=108
27287 On ch=10 n=44 v=0
27290 On ch=10 n=36 v=0
27294 On ch=10 n=80 v=0
27312 On ch=10 n=44 v=127
27339 On ch=10 n=44 v=0
27360 On ch=10 n=81 v=105
27394 On ch=10 n=81 v=0
27408 On ch=10 n=38 v=117
27408 On ch=10 n=44 v=127
27431 On ch=10 n=44 v=0
27435 On ch=10 n=38 v=0
27456 On ch=10 n=36 v=117
27456 On ch=10 n=44 v=117
27456 On ch=10 n=80 v=108
27483 On ch=10 n=44 v=0
27485 On ch=10 n=80 v=0
27489 On ch=10 n=36 v=0
27504 On ch=10 n=44 v=127
27529 On ch=10 n=44 v=0
27552 On ch=10 n=38 v=117
27552 On ch=10 n=44 v=127
27552 On ch=10 n=81 v=108
27577 On ch=10 n=44 v=0
27580 On ch=10 n=38 v=0
27583 On ch=10 n=81 v=0
27648 On ch=10 n=36 v=117
27648 On ch=10 n=44 v=127
27648 On ch=10 n=80 v=114
27648 On ch=10 n=87 v=127
27648 On ch=10 n=57 v=123
27669 On ch=10 n=44 v=0
27672 On ch=10 n=87 v=0
27672 On ch=10 n=57 v=0
27677 On ch=10 n=36 v=0
27679 On ch=10 n=80 v=0
27696 On ch=10 n=44 v=127
27723 On ch=10 n=44 v=0
27744 On ch=10 n=81 v=108
27775 On ch=10 n=81 v=0
27792 On ch=10 n=38 v=114
27792 On ch=10 n=44 v=127
27812 On ch=10 n=44 v=0
27819 On ch=10 n=38 v=0
27840 On ch=10 n=36 v=117
27840 ChPr ch=10 v=127
27840 ChPr ch=10 v=13
27840 On ch=10 n=44 v=117
27840 On ch=10 n=80 v=114
27865 On ch=10 n=44 v=0
27873 On ch=10 n=80 v=0
27876 On ch=10 n=36 v=0
27888 ChPr ch=10 v=0
27888 On ch=10 n=44 v=127
27913 On ch=10 n=44 v=0
27936 On ch=10 n=38 v=117
27936 ChPr ch=10 v=23
27936 On ch=10 n=44 v=127
27936 On ch=10 n=81 v=105
27964 On ch=10 n=38 v=0
27966 On ch=10 n=44 v=0
27967 On ch=10 n=81 v=0
27984 ChPr ch=10 v=0
28032 On ch=10 n=36 v=117
28032 ChPr ch=10 v=127
28032 On ch=10 n=44 v=127
28032 On ch=10 n=80 v=108
28055 On ch=10 n=44 v=0
28063 On ch=10 n=80 v=0
28063 On ch=10 n=36 v=0
28080 ChPr ch=10 v=0
28080 On ch=10 n=44 v=127
28107 On ch=10 n=44 v=0
28128 On ch=10 n=81 v=108
28159 On ch=10 n=81 v=0
28176 On ch=10 n=38 v=117
28176 On ch=10 n=44 v=127
28199 On ch=10 n=44 v=0
28204 On ch=10 n=38 v=0
28224 On ch=10 n=36 v=117
28224 ChPr ch=10 v=55
28224 On ch=10 n=44 v=117
28224 On ch=10 n=80 v=114
28251 On ch=10 n=44 v=0
28256 On ch=10 n=80 v=0
28260 On ch=10 n=36 v=0
28272 ChPr ch=10 v=15
28272 ChPr ch=10 v=0
28272 On ch=10 n=44 v=127
28297 On ch=10 n=44 v=0
28320 On ch=10 n=38 v=123
28320 ChPr ch=10 v=21
28320 On ch=10 n=44 v=127
28320 On ch=10 n=81 v=108
28345 On ch=10 n=44 v=0
28349 On ch=10 n=38 v=0
28352 On ch=10 n=81 v=0
28368 ChPr ch=10 v=0
28416 On ch=10 n=36 v=117
28416 On ch=10 n=44 v=127
28416 On ch=10 n=80 v=114
28437 On ch=10 n=44 v=0
28447 On ch=10 n=80 v=0
28451 On ch=10 n=36 v=0
28464 On ch=10 n=44 v=127
28491 On ch=10 n=44 v=0
28512 On ch=10 n=81 v=105
28543 On ch=10 n=81 v=0
28560 On ch=10 n=38 v=114
28560 On ch=10 n=44 v=127
28580 On ch=10 n=44 v=0
28587 On ch=10 n=38 v=0
28608 On ch=10 n=36 v=117
28608 On ch=10 n=44 v=117
28608 On ch=10 n=80 v=114
28633 On ch=10 n=44 v=0
28638 On ch=10 n=80 v=0
28639 On ch=10 n=36 v=0
28656 On ch=10 n=44 v=127
28681 On ch=10 n=44 v=0
28704 On ch=10 n=38 v=123
28704 ChPr ch=10 v=22
28704 On ch=10 n=44 v=127
28704 On ch=10 n=81 v=108
28730 On ch=10 n=38 v=0
28734 On ch=10 n=44 v=0
28735 On ch=10 n=81 v=0
28752 ChPr ch=10 v=0
28800 On ch=10 n=36 v=117
28800 On ch=10 n=44 v=127
28800 On ch=10 n=80 v=114
28823 On ch=10 n=44 v=0
28826 On ch=10 n=36 v=0
28830 On ch=10 n=80 v=0
28848 On ch=10 n=44 v=127
28875 On ch=10 n=44 v=0
28896 On ch=10 n=81 v=108
28926 On ch=10 n=81 v=0
28944 On ch=10 n=38 v=117
28944 On ch=10 n=44 v=127
28967 On ch=10 n=44 v=0
28971 On ch=10 n=38 v=0
28992 On ch=10 n=36 v=117
28992 On ch=10 n=44 v=117
28992 On ch=10 n=80 v=117
29019 On ch=10 n=44 v=0
29020 On ch=10 n=80 v=0
29025 On ch=10 n=36 v=0
29040 On ch=10 n=44 v=127
29065 On ch=10 n=44 v=0
29088 On ch=10 n=38 v=117
29088 On ch=10 n=44 v=127
29088 On ch=10 n=81 v=108
29113 On ch=10 n=44 v=0
29116 On ch=10 n=38 v=0
29117 On ch=10 n=81 v=0
29184 On ch=10 n=36 v=117
29184 On ch=10 n=44 v=127
29184 On ch=10 n=80 v=114
29205 On ch=10 n=44 v=0
29213 On ch=10 n=36 v=0
29213 On ch=10 n=80 v=0
29232 On ch=10 n=44 v=127
29259 On ch=10 n=44 v=0
29280 On ch=10 n=81 v=111
29310 On ch=10 n=81 v=0
29328 On ch=10 n=38 v=114
29328 On ch=10 n=44 v=127
29348 On ch=10 n=44 v=0
29355 On ch=10 n=38 v=0
29376 On ch=10 n=36 v=117
29376 ChPr ch=10 v=127
29376 ChPr ch=10 v=13
29376 On ch=10 n=44 v=117
29376 On ch=10 n=80 v=108
29401 On ch=10 n=44 v=0
29406 On ch=10 n=80 v=0
29412 On ch=10 n=36 v=0
29424 ChPr ch=10 v=0
29424 On ch=10 n=44 v=127
29449 On ch=10 n=44 v=0
29472 On ch=10 n=38 v=117
29472 ChPr ch=10 v=23
29472 On ch=10 n=44 v=127
29472 On ch=10 n=81 v=111
29500 On ch=10 n=38 v=0
29502 On ch=10 n=44 v=0
29502 On ch=10 n=81 v=0
29520 ChPr ch=10 v=0
29568 On ch=10 n=36 v=117
29568 ChPr ch=10 v=127
29568 On ch=10 n=44 v=127
29568 On ch=10 n=80 v=114
29591 On ch=10 n=44 v=0
29598 On ch=10 n=80 v=0
29599 On ch=10 n=36 v=0
29616 ChPr ch=10 v=0
29616 On ch=10 n=44 v=127
29643 On ch=10 n=44 v=0
29664 On ch=10 n=81 v=111
29694 On ch=10 n=81 v=0
29712 On ch=10 n=38 v=117
29712 On ch=10 n=44 v=127
29735 On ch=10 n=44 v=0
29740 On ch=10 n=38 v=0
29760 On ch=10 n=36 v=117
29760 ChPr ch=10 v=55
29760 On ch=10 n=44 v=117
29760 On ch=10 n=80 v=114
29787 On ch=10 n=44 v=0
29790 On ch=10 n=80 v=0
29796 On ch=10 n=36 v=0
29808 ChPr ch=10 v=15
29808 ChPr ch=10 v=0
29808 On ch=10 n=44 v=127
29833 On ch=10 n=44 v=0
29856 On ch=10 n=38 v=123
29856 ChPr ch=10 v=21
29856 On ch=10 n=44 v=127
29856 On ch=10 n=81 v=108
29881 On ch=10 n=44 v=0
29885 On ch=10 n=38 v=0
29886 On ch=10 n=81 v=0
29904 ChPr ch=10 v=0
29952 On ch=10 n=36 v=123
29952 ChPr ch=10 v=127
29952 On ch=10 n=44 v=127
29952 On ch=10 n=80 v=114
29973 On ch=10 n=44 v=0
29981 On ch=10 n=80 v=0
29985 On ch=10 n=36 v=0
30000 ChPr ch=10 v=0
30000 On ch=10 n=44 v=127
30027 On ch=10 n=44 v=0
30048 On ch=10 n=81 v=105
30078 On ch=10 n=81 v=0
30096 On ch=10 n=38 v=117
30096 On ch=10 n=44 v=127
30116 On ch=10 n=44 v=0
30125 On ch=10 n=38 v=0
30144 On ch=10 n=36 v=117
30144 ChPr ch=10 v=21
30144 On ch=10 n=44 v=117
30144 On ch=10 n=80 v=108
30169 On ch=10 n=44 v=0
30173 On ch=10 n=80 v=0
30177 On ch=10 n=36 v=0
30192 ChPr ch=10 v=0
30192 On ch=10 n=44 v=127
30217 On ch=10 n=44 v=0
30240 On ch=10 n=38 v=114
30240 On ch=10 n=44 v=127
30240 On ch=10 n=81 v=105
30268 On ch=10 n=38 v=0
30270 On ch=10 n=44 v=0
30270 On ch=10 n=81 v=0
30336 On ch=10 n=36 v=123
30336 On ch=10 n=44 v=127
30336 On ch=10 n=80 v=127
30359 On ch=10 n=44 v=0
30365 On ch=10 n=80 v=0
30369 On ch=10 n=36 v=0
30384 ChPr ch=10 v=8
30384 ChPr ch=10 v=0
30384 On ch=10 n=44 v=127
30411 On ch=10 n=44 v=0
30432 On ch=10 n=81 v=105
30462 On ch=10 n=81 v=0
30480 On ch=10 n=38 v=117
30480 On ch=10 n=44 v=127
30503 On ch=10 n=44 v=0
30507 On ch=10 n=38 v=0
30528 On ch=10 n=36 v=117
30528 ChPr ch=10 v=67
30528 On ch=10 n=44 v=117
30528 On ch=10 n=80 v=117
30555 On ch=10 n=44 v=0
30558 On ch=10 n=80 v=0
30563 On ch=10 n=36 v=0
30576 ChPr ch=10 v=0
30576 On ch=10 n=44 v=127
30601 On ch=10 n=44 v=0
30624 On ch=10 n=38 v=114
30624 On ch=10 n=44 v=127
30624 On ch=10 n=81 v=108
30649 On ch=10 n=81 v=0
30649 On ch=10 n=44 v=0
30650 On ch=10 n=38 v=0
30720 On ch=10 n=36 v=117
30720 ChPr ch=10 v=127
30720 ChPr ch=10 v=80
30720 On ch=10 n=82 v=127
30732 On ch=10 n=82 v=0
30760 On ch=10 n=36 v=0
30768 ChPr ch=10 v=36
30768 ChPr ch=10 v=0
30768 On ch=10 n=82 v=117
30785 On ch=10 n=82 v=0
30816 On ch=10 n=82 v=127
30834 On ch=10 n=82 v=0
30864 On ch=10 n=38 v=123
30864 On ch=10 n=82 v=117
30883 On ch=10 n=82 v=0
30892 On ch=10 n=38 v=0
30912 On ch=10 n=36 v=117
30912 On ch=10 n=82 v=117
30932 On ch=10 n=82 v=0
30947 On ch=10 n=36 v=0
30960 On ch=10 n=82 v=127
30979 On ch=10 n=82 v=0
31008 On ch=10 n=38 v=117
31008 On ch=10 n=82 v=117
31026 On ch=10 n=82 v=0
31037 On ch=10 n=38 v=0
31056 On ch=10 n=82 v=117
31056 ChPr ch=10 v=31
31056 ChPr ch=10 v=0
31075 Off ch=10 n=82 v=0
31104 On ch=10 n=36 v=117
31104 On ch=10 n=82 v=117
31124 On ch=10 n=82 v=0
31136 On ch=10 n=36 v=0
31152 On ch=10 n=82 v=117
31172 On ch=10 n=82 v=0
31200 On ch=10 n=82 v=127
31220 On ch=10 n=82 v=0
31248 On ch=10 n=38 v=114
31248 On ch=10 n=82 v=117
31268 On ch=10 n=82 v=0
31276 On ch=10 n=38 v=0
31296 On ch=10 n=36 v=117
31296 On ch=10 n=82 v=117
31316 On ch=10 n=82 v=0
31331 On ch=10 n=36 v=0
31344 On ch=10 n=82 v=117
31364 On ch=10 n=82 v=0
31392 On ch=10 n=38 v=117
31392 On ch=10 n=82 v=127
31412 On ch=10 n=82 v=0
31420 On ch=10 n=38 v=0
31440 On ch=10 n=82 v=117
31461 On ch=10 n=82 v=0
31488 On ch=10 n=36 v=117
31488 On ch=10 n=82 v=127
31500 On ch=10 n=82 v=0
31520 On ch=10 n=36 v=0
31536 On ch=10 n=82 v=117
31553 On ch=10 n=82 v=0
31584 On ch=10 n=82 v=127
31602 On ch=10 n=82 v=0
31632 On ch=10 n=38 v=114
31632 On ch=10 n=82 v=117
31651 On ch=10 n=82 v=0
31659 On ch=10 n=38 v=0
31680 On ch=10 n=36 v=117
31680 ChPr ch=10 v=16
31680 ChPr ch=10 v=0
31680 On ch=10 n=82 v=117
31700 On ch=10 n=82 v=0
31713 On ch=10 n=36 v=0
31728 On ch=10 n=82 v=127
31747 On ch=10 n=82 v=0
31776 On ch=10 n=38 v=123
31776 On ch=10 n=82 v=117
31794 On ch=10 n=82 v=0
31804 On ch=10 n=38 v=0
31824 On ch=10 n=82 v=117
31824 ChPr ch=10 v=31
31824 ChPr ch=10 v=0
31843 Off ch=10 n=82 v=0
31872 On ch=10 n=36 v=117
31872 On ch=10 n=82 v=117
31892 On ch=10 n=82 v=0
31901 On ch=10 n=36 v=0
31920 On ch=10 n=82 v=117
31940 On ch=10 n=82 v=0
31968 On ch=10 n=82 v=127
31988 On ch=10 n=82 v=0
32016 On ch=10 n=38 v=114
32016 On ch=10 n=82 v=117
32036 On ch=10 n=82 v=0
32044 On ch=10 n=38 v=0
32064 On ch=10 n=36 v=117
32064 On ch=10 n=82 v=117
32084 On ch=10 n=82 v=0
32095 On ch=10 n=36 v=0
32112 On ch=10 n=82 v=117
32132 On ch=10 n=82 v=0
32160 On ch=10 n=38 v=114
32160 On ch=10 n=82 v=127
32180 On ch=10 n=82 v=0
32188 On ch=10 n=38 v=0
32208 On ch=10 n=82 v=117
32229 On ch=10 n=82 v=0
32256 On ch=10 n=36 v=114
32256 ChPr ch=10 v=127
32256 On ch=10 n=82 v=127
32268 On ch=10 n=82 v=0
32288 On ch=10 n=36 v=0
32304 ChPr ch=10 v=0
32304 On ch=10 n=82 v=117
32321 On ch=10 n=82 v=0
32352 On ch=10 n=82 v=127
32370 On ch=10 n=82 v=0
32400 On ch=10 n=38 v=114
32400 ChPr ch=10 v=7
32400 ChPr ch=10 v=0
32400 On ch=10 n=82 v=117
32419 On ch=10 n=82 v=0
32430 On ch=10 n=38 v=0
32448 On ch=10 n=36 v=111
32448 ChPr ch=10 v=127
32448 ChPr ch=10 v=0
32448 On ch=10 n=82 v=117
32468 On ch=10 n=82 v=0
32484 On ch=10 n=36 v=0
32496 On ch=10 n=82 v=127
32515 On ch=10 n=82 v=0
32544 On ch=10 n=38 v=114
32544 On ch=10 n=82 v=117
32562 On ch=10 n=82 v=0
32573 On ch=10 n=38 v=0
32592 On ch=10 n=82 v=117
32592 ChPr ch=10 v=31
32592 ChPr ch=10 v=0
32611 Off ch=10 n=82 v=0
32640 On ch=10 n=36 v=114
32640 On ch=10 n=82 v=117
32660 On ch=10 n=82 v=0
32670 On ch=10 n=36 v=0
32688 On ch=10 n=82 v=117
32708 On ch=10 n=82 v=0
32736 On ch=10 n=82 v=127
32756 On ch=10 n=82 v=0
32784 On ch=10 n=38 v=111
32784 On ch=10 n=82 v=117
32804 On ch=10 n=82 v=0
32811 On ch=10 n=38 v=0
32832 On ch=10 n=36 v=117
32832 ChPr ch=10 v=10
32832 ChPr ch=10 v=0
32832 On ch=10 n=82 v=117
32852 On ch=10 n=82 v=0
32866 On ch=10 n=36 v=0
32880 On ch=10 n=82 v=117
32900 On ch=10 n=82 v=0
32928 On ch=10 n=38 v=117
32928 ChPr ch=10 v=52
32928 ChPr ch=10 v=0
32928 On ch=10 n=82 v=127
32948 On ch=10 n=82 v=0
32955 On ch=10 n=38 v=0
32976 On ch=10 n=82 v=117
32997 On ch=10 n=82 v=0
33024 On ch=10 n=36 v=114
33024 On ch=10 n=82 v=127
33036 On ch=10 n=82 v=0
33053 On ch=10 n=36 v=0
33072 On ch=10 n=82 v=117
33089 On ch=10 n=82 v=0
33120 On ch=10 n=82 v=127
33138 On ch=10 n=82 v=0
33168 On ch=10 n=38 v=114
33168 On ch=10 n=82 v=117
33187 On ch=10 n=82 v=0
33196 On ch=10 n=38 v=0
33216 On ch=10 n=36 v=114
33216 On ch=10 n=82 v=117
33236 On ch=10 n=82 v=0
33248 On ch=10 n=36 v=0
33264 On ch=10 n=82 v=127
33283 On ch=10 n=82 v=0
33312 On ch=10 n=38 v=117
33312 On ch=10 n=82 v=117
33330 On ch=10 n=82 v=0
33339 On ch=10 n=38 v=0
33360 On ch=10 n=82 v=117
33360 ChPr ch=10 v=31
33360 ChPr ch=10 v=0
33379 Off ch=10 n=82 v=0
33408 On ch=10 n=36 v=117
33408 On ch=10 n=82 v=117
33428 On ch=10 n=82 v=0
33438 On ch=10 n=36 v=0
33456 On ch=10 n=82 v=117
33476 On ch=10 n=82 v=0
33504 On ch=10 n=82 v=127
33524 On ch=10 n=82 v=0
33552 On ch=10 n=38 v=114
33552 On ch=10 n=82 v=117
33572 On ch=10 n=82 v=0
33579 On ch=10 n=38 v=0
33600 On ch=10 n=36 v=114
33600 ChPr ch=10 v=21
33600 ChPr ch=10 v=3
33600 ChPr ch=10 v=0
33600 On ch=10 n=82 v=117
33620 On ch=10 n=82 v=0
33634 On ch=10 n=36 v=0
33648 On ch=10 n=82 v=117
33668 On ch=10 n=82 v=0
33696 On ch=10 n=38 v=114
33696 On ch=10 n=82 v=127
33716 On ch=10 n=82 v=0
33726 On ch=10 n=38 v=0
33744 On ch=10 n=82 v=117
33765 On ch=10 n=82 v=0
33792 On ch=10 n=36 v=117
33792 On ch=10 n=82 v=127
33804 On ch=10 n=82 v=0
33820 On ch=10 n=36 v=0
33840 On ch=10 n=82 v=117
33857 On ch=10 n=82 v=0
33888 On ch=10 n=82 v=127
33906 On ch=10 n=82 v=0
33936 On ch=10 n=38 v=114
33936 ChPr ch=10 v=4
33936 ChPr ch=10 v=0
33936 On ch=10 n=82 v=117
33955 On ch=10 n=82 v=0
33963 On ch=10 n=38 v=0
33984 On ch=10 n=36 v=117
33984 ChPr ch=10 v=17
33984 ChPr ch=10 v=0
33984 On ch=10 n=82 v=117
34004 On ch=10 n=82 v=0
34016 On ch=10 n=36 v=0
34032 On ch=10 n=82 v=127
34051 On ch=10 n=82 v=0
34080 On ch=10 n=38 v=117
34080 On ch=10 n=82 v=117
34098 On ch=10 n=82 v=0
34107 On ch=10 n=38 v=0
34128 On ch=10 n=82 v=117
34128 ChPr ch=10 v=31
34128 ChPr ch=10 v=0
34147 Off ch=10 n=82 v=0
34176 On ch=10 n=36 v=117
34176 On ch=10 n=82 v=117
34196 On ch=10 n=82 v=0
34206 On ch=10 n=36 v=0
34224 On ch=10 n=82 v=117
34244 On ch=10 n=82 v=0
34272 On ch=10 n=82 v=127
34292 On ch=10 n=82 v=0
34320 On ch=10 n=38 v=114
34320 On ch=10 n=82 v=117
34340 On ch=10 n=82 v=0
34348 On ch=10 n=38 v=0
34368 On ch=10 n=36 v=117
34368 ChPr ch=10 v=6
34368 ChPr ch=10 v=0
34368 On ch=10 n=82 v=117
34388 On ch=10 n=82 v=0
34399 On ch=10 n=36 v=0
34416 On ch=10 n=82 v=117
34436 On ch=10 n=82 v=0
34464 On ch=10 n=38 v=117
34464 On ch=10 n=82 v=127
34484 On ch=10 n=82 v=0
34491 On ch=10 n=38 v=0
34512 On ch=10 n=82 v=117
34533 On ch=10 n=82 v=0
34560 On ch=10 n=36 v=117
34560 On ch=10 n=82 v=127
34572 On ch=10 n=82 v=0
34589 On ch=10 n=36 v=0
34608 On ch=10 n=82 v=117
34625 On ch=10 n=82 v=0
34656 On ch=10 n=82 v=127
34674 On ch=10 n=82 v=0
34704 On ch=10 n=38 v=117
34704 On ch=10 n=82 v=117
34723 On ch=10 n=82 v=0
34732 On ch=10 n=38 v=0
34752 On ch=10 n=36 v=114
34752 On ch=10 n=82 v=117
34772 On ch=10 n=82 v=0
34784 On ch=10 n=36 v=0
34800 On ch=10 n=82 v=127
34819 On ch=10 n=82 v=0
34848 On ch=10 n=38 v=123
34848 On ch=10 n=82 v=117
34866 On ch=10 n=82 v=0
34875 On ch=10 n=38 v=0
34896 On ch=10 n=82 v=117
34896 ChPr ch=10 v=31
34896 ChPr ch=10 v=0
34915 Off ch=10 n=82 v=0
34944 On ch=10 n=36 v=117
34944 On ch=10 n=82 v=117
34964 On ch=10 n=82 v=0
34974 On ch=10 n=36 v=0
34992 On ch=10 n=82 v=117
35012 On ch=10 n=82 v=0
35040 On ch=10 n=82 v=127
35060 On ch=10 n=82 v=0
35088 On ch=10 n=38 v=117
35088 On ch=10 n=82 v=117
35108 On ch=10 n=82 v=0
35116 On ch=10 n=38 v=0
35136 On ch=10 n=36 v=114
35136 ChPr ch=10 v=52
35136 On ch=10 n=82 v=117
35156 On ch=10 n=82 v=0
35174 On ch=10 n=36 v=0
35184 ChPr ch=10 v=9
35184 ChPr ch=10 v=0
35184 On ch=10 n=82 v=117
35204 On ch=10 n=82 v=0
35232 On ch=10 n=38 v=117
35232 On ch=10 n=82 v=127
35252 On ch=10 n=82 v=0
35257 On ch=10 n=38 v=0
35280 On ch=10 n=82 v=117
35301 On ch=10 n=82 v=0
35328 On ch=10 n=36 v=117
35328 ChPr ch=10 v=14
35328 ChPr ch=10 v=0
35328 On ch=10 n=82 v=127
35340 On ch=10 n=82 v=0
35357 On ch=10 n=36 v=0
35376 On ch=10 n=82 v=117
35393 On ch=10 n=82 v=0
35424 On ch=10 n=82 v=127
35442 On ch=10 n=82 v=0
35472 On ch=10 n=38 v=117
35472 On ch=10 n=82 v=117
35491 On ch=10 n=82 v=0
35499 On ch=10 n=38 v=0
35520 On ch=10 n=36 v=114
35520 ChPr ch=10 v=1
35520 ChPr ch=10 v=13
35520 On ch=10 n=82 v=117
35540 On ch=10 n=82 v=0
35555 On ch=10 n=36 v=0
35568 ChPr ch=10 v=0
35568 On ch=10 n=82 v=127
35587 On ch=10 n=82 v=0
35616 On ch=10 n=38 v=117
35616 On ch=10 n=82 v=117
35634 On ch=10 n=82 v=0
35644 On ch=10 n=38 v=0
35664 On ch=10 n=82 v=117
35664 ChPr ch=10 v=31
35664 ChPr ch=10 v=0
35683 Off ch=10 n=82 v=0
35712 On ch=10 n=36 v=117
35712 On ch=10 n=82 v=117
35732 On ch=10 n=82 v=0
35742 On ch=10 n=36 v=0
35760 On ch=10 n=82 v=117
35780 On ch=10 n=82 v=0
35808 On ch=10 n=82 v=127
35828 On ch=10 n=82 v=0
35856 On ch=10 n=38 v=114
35856 On ch=10 n=82 v=117
35876 On ch=10 n=82 v=0
35881 On ch=10 n=38 v=0
35904 On ch=10 n=36 v=114
35904 ChPr ch=10 v=6
35904 ChPr ch=10 v=0
35904 On ch=10 n=82 v=117
35924 On ch=10 n=82 v=0
35936 On ch=10 n=36 v=0
35952 On ch=10 n=82 v=117
35972 On ch=10 n=82 v=0
36000 On ch=10 n=38 v=117
36000 On ch=10 n=82 v=127
36020 On ch=10 n=82 v=0
36026 On ch=10 n=38 v=0
36048 On ch=10 n=82 v=117
36069 On ch=10 n=82 v=0
36096 On ch=10 n=36 v=117
36096 On ch=10 n=82 v=127
36108 On ch=10 n=82 v=0
36125 On ch=10 n=36 v=0
36144 On ch=10 n=82 v=117
36161 On ch=10 n=82 v=0
36192 On ch=10 n=82 v=127
36210 On ch=10 n=82 v=0
36240 On ch=10 n=38 v=117
36240 On ch=10 n=82 v=117
36259 On ch=10 n=82 v=0
36266 On ch=10 n=38 v=0
36288 On ch=10 n=36 v=117
36288 On ch=10 n=82 v=117
36308 On ch=10 n=82 v=0
36320 On ch=10 n=36 v=0
36336 On ch=10 n=82 v=127
36355 On ch=10 n=82 v=0
36384 On ch=10 n=38 v=117
36384 On ch=10 n=82 v=117
36402 On ch=10 n=82 v=0
36410 On ch=10 n=38 v=0
36432 On ch=10 n=82 v=117
36432 ChPr ch=10 v=31
36432 ChPr ch=10 v=0
36451 Off ch=10 n=82 v=0
36480 On ch=10 n=36 v=123
36480 ChPr ch=10 v=3
36480 ChPr ch=10 v=0
36480 On ch=10 n=82 v=117
36500 On ch=10 n=82 v=0
36511 On ch=10 n=36 v=0
36528 On ch=10 n=82 v=117
36548 On ch=10 n=82 v=0
36576 On ch=10 n=82 v=127
36596 On ch=10 n=82 v=0
36624 On ch=10 n=38 v=117
36624 On ch=10 n=82 v=117
36644 On ch=10 n=82 v=0
36652 On ch=10 n=38 v=0
36672 On ch=10 n=36 v=117
36672 On ch=10 n=82 v=117
36692 On ch=10 n=82 v=0
36704 On ch=10 n=36 v=0
36720 On ch=10 n=82 v=117
36740 On ch=10 n=82 v=0
36768 On ch=10 n=38 v=117
36768 On ch=10 n=82 v=127
36787 On ch=10 n=38 v=0
36788 On ch=10 n=82 v=0
36816 On ch=10 n=82 v=117
36837 On ch=10 n=82 v=0
36864 On ch=10 n=36 v=117
36864 ChPr ch=10 v=127
36864 ChPr ch=10 v=80
36864 On ch=10 n=44 v=127
36887 On ch=10 n=44 v=0
36904 On ch=10 n=36 v=0
36912 ChPr ch=10 v=36
36912 ChPr ch=10 v=0
36912 On ch=10 n=44 v=127
36938 On ch=10 n=44 v=0
37008 On ch=10 n=38 v=123
37008 On ch=10 n=44 v=127
37029 On ch=10 n=44 v=0
37036 On ch=10 n=38 v=0
37056 On ch=10 n=36 v=117
37056 On ch=10 n=44 v=127
37082 On ch=10 n=44 v=0
37091 On ch=10 n=36 v=0
37104 On ch=10 n=44 v=127
37129 On ch=10 n=44 v=0
37152 On ch=10 n=38 v=117
37152 On ch=10 n=44 v=127
37180 On ch=10 n=44 v=0
37181 On ch=10 n=38 v=0
37248 On ch=10 n=36 v=117
37248 On ch=10 n=44 v=127
37272 On ch=10 n=44 v=0
37280 On ch=10 n=36 v=0
37296 On ch=10 n=44 v=127
37325 On ch=10 n=44 v=0
37392 On ch=10 n=38 v=114
37392 On ch=10 n=44 v=127
37412 On ch=10 n=44 v=0
37420 On ch=10 n=38 v=0
37440 On ch=10 n=36 v=117
37440 On ch=10 n=44 v=127
37464 On ch=10 n=44 v=0
37475 On ch=10 n=36 v=0
37488 On ch=10 n=44 v=127
37511 On ch=10 n=44 v=0
37536 On ch=10 n=38 v=117
37536 On ch=10 n=44 v=127
37536 ChPr ch=10 v=64
37536 ChPr ch=10 v=0
37563 Off ch=10 n=44 v=0
37564 Off ch=10 n=38 v=0
37632 On ch=10 n=36 v=117
37632 On ch=10 n=44 v=127
37656 On ch=10 n=44 v=0
37664 On ch=10 n=36 v=0
37680 On ch=10 n=44 v=127
37706 On ch=10 n=44 v=0
37776 On ch=10 n=38 v=114
37776 On ch=10 n=44 v=127
37800 On ch=10 n=44 v=0
37803 On ch=10 n=38 v=0
37824 On ch=10 n=36 v=117
37824 ChPr ch=10 v=16
37824 ChPr ch=10 v=0
37824 On ch=10 n=44 v=127
37850 On ch=10 n=44 v=0
37857 On ch=10 n=36 v=0
37872 On ch=10 n=44 v=127
37897 On ch=10 n=44 v=0
37920 On ch=10 n=38 v=123
37920 On ch=10 n=44 v=127
37920 ChPr ch=10 v=127
37948 Off ch=10 n=38 v=0
37949 Off ch=10 n=44 v=0
37968 ChPr ch=10 v=42
37968 ChPr ch=10 v=0
38016 On ch=10 n=36 v=117
38016 On ch=10 n=44 v=127
38040 On ch=10 n=44 v=0
38045 On ch=10 n=36 v=0
38064 On ch=10 n=44 v=127
38064 ChPr ch=10 v=88
38093 Off ch=10 n=44 v=0
38112 ChPr ch=10 v=0
38160 On ch=10 n=38 v=114
38160 On ch=10 n=44 v=127
38185 On ch=10 n=44 v=0
38188 On ch=10 n=38 v=0
38208 On ch=10 n=36 v=117
38208 On ch=10 n=44 v=127
38236 On ch=10 n=44 v=0
38239 On ch=10 n=36 v=0
38256 On ch=10 n=44 v=127
38280 On ch=10 n=44 v=0
38304 On ch=10 n=38 v=114
38304 On ch=10 n=44 v=127
38330 On ch=10 n=44 v=0
38332 On ch=10 n=38 v=0
38400 On ch=10 n=36 v=114
38400 ChPr ch=10 v=127
38400 On ch=10 n=44 v=127
38424 On ch=10 n=44 v=0
38432 On ch=10 n=36 v=0
38448 ChPr ch=10 v=0
38448 On ch=10 n=44 v=127
38477 On ch=10 n=44 v=0
38544 On ch=10 n=38 v=114
38544 ChPr ch=10 v=7
38544 ChPr ch=10 v=0
38544 On ch=10 n=44 v=127
38567 On ch=10 n=44 v=0
38574 On ch=10 n=38 v=0
38592 On ch=10 n=36 v=111
38592 ChPr ch=10 v=127
38592 ChPr ch=10 v=0
38592 On ch=10 n=44 v=127
38618 On ch=10 n=44 v=0
38628 On ch=10 n=36 v=0
38640 On ch=10 n=44 v=127
38663 On ch=10 n=44 v=0
38688 On ch=10 n=38 v=114
38688 On ch=10 n=44 v=127
38715 On ch=10 n=44 v=0
38717 On ch=10 n=38 v=0
38784 On ch=10 n=36 v=114
38784 On ch=10 n=44 v=127
38806 On ch=10 n=44 v=0
38814 On ch=10 n=36 v=0
38832 On ch=10 n=44 v=127
38858 On ch=10 n=44 v=0
38928 On ch=10 n=38 v=111
38928 On ch=10 n=44 v=117
38952 On ch=10 n=44 v=0
38955 On ch=10 n=38 v=0
38976 On ch=10 n=36 v=117
38976 ChPr ch=10 v=10
38976 ChPr ch=10 v=0
38976 On ch=10 n=44 v=127
39002 On ch=10 n=44 v=0
39010 On ch=10 n=36 v=0
39024 On ch=10 n=44 v=87
39047 On ch=10 n=44 v=0
39072 On ch=10 n=38 v=117
39072 ChPr ch=10 v=52
39072 ChPr ch=10 v=0
39072 On ch=10 n=44 v=127
39096 On ch=10 n=44 v=0
39099 On ch=10 n=38 v=0
39168 On ch=10 n=36 v=114
39168 On ch=10 n=44 v=127
39192 On ch=10 n=44 v=0
39197 On ch=10 n=36 v=0
39216 On ch=10 n=44 v=127
39243 On ch=10 n=44 v=0
39312 On ch=10 n=38 v=114
39312 On ch=10 n=44 v=117
39333 On ch=10 n=44 v=0
39340 On ch=10 n=38 v=0
39360 On ch=10 n=36 v=114
39360 On ch=10 n=44 v=127
39386 On ch=10 n=44 v=0
39392 On ch=10 n=36 v=0
39408 On ch=10 n=44 v=127
39430 On ch=10 n=44 v=0
39456 On ch=10 n=38 v=117
39456 On ch=10 n=44 v=127
39479 On ch=10 n=44 v=0
39483 On ch=10 n=38 v=0
39552 On ch=10 n=36 v=117
39552 On ch=10 n=44 v=127
39574 On ch=10 n=44 v=0
39582 On ch=10 n=36 v=0
39600 On ch=10 n=44 v=127
39628 On ch=10 n=44 v=0
39696 On ch=10 n=38 v=114
39696 On ch=10 n=44 v=127
39718 On ch=10 n=44 v=0
39723 On ch=10 n=38 v=0
39744 On ch=10 n=36 v=114
39744 ChPr ch=10 v=21
39744 ChPr ch=10 v=3
39744 ChPr ch=10 v=0
39744 On ch=10 n=44 v=127
39770 On ch=10 n=44 v=0
39778 On ch=10 n=36 v=0
39792 On ch=10 n=44 v=117
39813 On ch=10 n=44 v=0
39840 On ch=10 n=38 v=114
39840 On ch=10 n=44 v=127
39864 On ch=10 n=44 v=0
39870 On ch=10 n=38 v=0
39936 On ch=10 n=36 v=117
39936 On ch=10 n=44 v=127
39959 On ch=10 n=44 v=0
39964 On ch=10 n=36 v=0
39984 On ch=10 n=44 v=127
40010 On ch=10 n=44 v=0
40080 On ch=10 n=38 v=114
40080 ChPr ch=10 v=4
40080 ChPr ch=10 v=0
40080 On ch=10 n=44 v=127
40101 On ch=10 n=44 v=0
40107 On ch=10 n=38 v=0
40128 On ch=10 n=36 v=117
40128 ChPr ch=10 v=17
40128 ChPr ch=10 v=0
40128 On ch=10 n=44 v=127
40154 On ch=10 n=44 v=0
40160 On ch=10 n=36 v=0
40176 On ch=10 n=44 v=127
40201 On ch=10 n=44 v=0
40224 On ch=10 n=38 v=117
40224 On ch=10 n=44 v=127
40251 On ch=10 n=38 v=0
40252 On ch=10 n=44 v=0
40320 On ch=10 n=36 v=117
40320 On ch=10 n=44 v=127
40344 On ch=10 n=44 v=0
40350 On ch=10 n=36 v=0
40368 On ch=10 n=44 v=127
40397 On ch=10 n=44 v=0
40464 On ch=10 n=38 v=114
40464 On ch=10 n=44 v=127
40484 On ch=10 n=44 v=0
40492 On ch=10 n=38 v=0
40512 On ch=10 n=36 v=117
40512 ChPr ch=10 v=6
40512 ChPr ch=10 v=0
40512 On ch=10 n=44 v=127
40536 On ch=10 n=44 v=0
40543 On ch=10 n=36 v=0
40560 On ch=10 n=44 v=127
40583 On ch=10 n=44 v=0
40608 On ch=10 n=38 v=117
40608 On ch=10 n=44 v=127
40608 ChPr ch=10 v=64
40608 ChPr ch=10 v=0
40635 Off ch=10 n=44 v=0
40635 Off ch=10 n=38 v=0
40704 On ch=10 n=36 v=117
40704 On ch=10 n=44 v=127
40728 On ch=10 n=44 v=0
40733 On ch=10 n=36 v=0
40752 On ch=10 n=44 v=127
40778 On ch=10 n=44 v=0
40848 On ch=10 n=38 v=117
40848 On ch=10 n=44 v=127
40872 On ch=10 n=44 v=0
40876 On ch=10 n=38 v=0
40896 On ch=10 n=36 v=114
40896 On ch=10 n=44 v=127
40922 On ch=10 n=44 v=0
40928 On ch=10 n=36 v=0
40944 On ch=10 n=44 v=127
40969 On ch=10 n=44 v=0
40992 On ch=10 n=38 v=123
40992 On ch=10 n=44 v=127
40992 ChPr ch=10 v=127
41019 Off ch=10 n=38 v=0
41021 Off ch=10 n=44 v=0
41040 ChPr ch=10 v=42
41040 ChPr ch=10 v=0
41088 On ch=10 n=36 v=117
41088 On ch=10 n=44 v=127
41112 On ch=10 n=44 v=0
41118 On ch=10 n=36 v=0
41136 On ch=10 n=44 v=127
41136 ChPr ch=10 v=88
41165 Off ch=10 n=44 v=0
41184 ChPr ch=10 v=0
41232 On ch=10 n=38 v=117
41232 On ch=10 n=44 v=127
41257 On ch=10 n=44 v=0
41260 On ch=10 n=38 v=0
41280 On ch=10 n=36 v=114
41280 ChPr ch=10 v=52
41280 On ch=10 n=44 v=127
41308 On ch=10 n=44 v=0
41318 On ch=10 n=36 v=0
41328 ChPr ch=10 v=9
41328 ChPr ch=10 v=0
41328 On ch=10 n=44 v=127
41352 On ch=10 n=44 v=0
41376 On ch=10 n=38 v=117
41376 On ch=10 n=44 v=127
41401 On ch=10 n=38 v=0
41402 On ch=10 n=44 v=0
41472 On ch=10 n=36 v=117
41472 ChPr ch=10 v=14
41472 ChPr ch=10 v=0
41472 On ch=10 n=44 v=127
41496 On ch=10 n=44 v=0
41501 On ch=10 n=36 v=0
41520 On ch=10 n=44 v=127
41549 On ch=10 n=44 v=0
41616 On ch=10 n=38 v=117
41616 On ch=10 n=44 v=127
41639 On ch=10 n=44 v=0
41643 On ch=10 n=38 v=0
41664 On ch=10 n=36 v=114
41664 ChPr ch=10 v=1
41664 ChPr ch=10 v=13
41664 On ch=10 n=44 v=127
41690 On ch=10 n=44 v=0
41699 On ch=10 n=36 v=0
41712 ChPr ch=10 v=0
41712 On ch=10 n=44 v=127
41735 On ch=10 n=44 v=0
41760 On ch=10 n=38 v=117
41760 On ch=10 n=44 v=127
41787 On ch=10 n=44 v=0
41788 On ch=10 n=38 v=0
41856 On ch=10 n=36 v=117
41856 On ch=10 n=44 v=127
41878 On ch=10 n=44 v=0
41886 On ch=10 n=36 v=0
41904 On ch=10 n=44 v=127
41930 On ch=10 n=44 v=0
42000 On ch=10 n=38 v=114
42000 On ch=10 n=44 v=117
42024 On ch=10 n=44 v=0
42025 On ch=10 n=38 v=0
42048 On ch=10 n=36 v=114
42048 ChPr ch=10 v=6
42048 ChPr ch=10 v=0
42048 On ch=10 n=44 v=127
42074 On ch=10 n=44 v=0
42080 On ch=10 n=36 v=0
42096 On ch=10 n=44 v=87
42119 On ch=10 n=44 v=0
42144 On ch=10 n=38 v=117
42144 On ch=10 n=44 v=127
42168 On ch=10 n=44 v=0
42170 On ch=10 n=38 v=0
43008 On ch=10 n=36 v=117
43008 On ch=10 n=44 v=127
43008 On ch=10 n=80 v=114
43008 On ch=10 n=87 v=127
43008 On ch=10 n=49 v=117
43028 On ch=10 n=49 v=0
43029 On ch=10 n=87 v=0
43029 On ch=10 n=44 v=0
43039 On ch=10 n=80 v=0
43043 On ch=10 n=36 v=0
43056 On ch=10 n=44 v=127
43083 On ch=10 n=44 v=0
43104 On ch=10 n=81 v=105
43137 On ch=10 n=81 v=0
43152 On ch=10 n=38 v=114
43152 On ch=10 n=44 v=127
43172 On ch=10 n=44 v=0
43179 On ch=10 n=38 v=0
43200 On ch=10 n=36 v=117
43200 On ch=10 n=44 v=117
43200 On ch=10 n=80 v=108
43225 On ch=10 n=44 v=0
43228 On ch=10 n=80 v=0
43231 On ch=10 n=36 v=0
43248 On ch=10 n=44 v=127
43273 On ch=10 n=44 v=0
43296 On ch=10 n=38 v=123
43296 ChPr ch=10 v=22
43296 On ch=10 n=44 v=127
43296 On ch=10 n=81 v=96
43322 On ch=10 n=38 v=0
43325 On ch=10 n=81 v=0
43326 On ch=10 n=44 v=0
43344 ChPr ch=10 v=0
43392 On ch=10 n=36 v=117
43392 On ch=10 n=44 v=127
43392 On ch=10 n=80 v=108
43415 On ch=10 n=44 v=0
43418 On ch=10 n=36 v=0
43419 On ch=10 n=80 v=0
43440 On ch=10 n=44 v=127
43467 On ch=10 n=44 v=0
43488 On ch=10 n=81 v=93
43519 On ch=10 n=81 v=0
43536 On ch=10 n=38 v=117
43536 On ch=10 n=44 v=127
43559 On ch=10 n=44 v=0
43563 On ch=10 n=38 v=0
43584 On ch=10 n=36 v=117
43584 On ch=10 n=44 v=117
43584 On ch=10 n=80 v=102
43611 On ch=10 n=44 v=0
43612 On ch=10 n=80 v=0
43617 On ch=10 n=36 v=0
43632 On ch=10 n=44 v=127
43657 On ch=10 n=44 v=0
43680 On ch=10 n=38 v=117
43680 On ch=10 n=44 v=127
43680 On ch=10 n=81 v=93
43705 On ch=10 n=44 v=0
43708 On ch=10 n=38 v=0
43712 On ch=10 n=81 v=0
43776 On ch=10 n=36 v=117
43776 On ch=10 n=44 v=127
43776 On ch=10 n=80 v=102
43797 On ch=10 n=44 v=0
43805 On ch=10 n=36 v=0
43806 On ch=10 n=80 v=0
43824 On ch=10 n=44 v=127
43851 On ch=10 n=44 v=0
43872 On ch=10 n=81 v=102
43905 On ch=10 n=81 v=0
43920 On ch=10 n=38 v=114
43920 On ch=10 n=44 v=127
43940 On ch=10 n=44 v=0
43947 On ch=10 n=38 v=0
43968 On ch=10 n=36 v=117
43968 ChPr ch=10 v=127
43968 ChPr ch=10 v=13
43968 On ch=10 n=44 v=117
43968 On ch=10 n=80 v=108
43993 On ch=10 n=44 v=0
43998 On ch=10 n=80 v=0
44004 On ch=10 n=36 v=0
44016 ChPr ch=10 v=0
44016 On ch=10 n=44 v=127
44041 On ch=10 n=44 v=0
44064 On ch=10 n=38 v=117
44064 ChPr ch=10 v=23
44064 On ch=10 n=44 v=127
44064 On ch=10 n=81 v=96
44092 On ch=10 n=38 v=0
44094 On ch=10 n=44 v=0
44097 On ch=10 n=81 v=0
44112 ChPr ch=10 v=0
44160 On ch=10 n=36 v=117
44160 ChPr ch=10 v=127
44160 On ch=10 n=44 v=127
44160 On ch=10 n=80 v=108
44183 On ch=10 n=44 v=0
44191 On ch=10 n=36 v=0
44191 On ch=10 n=80 v=0
44208 ChPr ch=10 v=0
44208 On ch=10 n=44 v=127
44235 On ch=10 n=44 v=0
44256 On ch=10 n=81 v=105
44288 On ch=10 n=81 v=0
44304 On ch=10 n=38 v=117
44304 On ch=10 n=44 v=127
44327 On ch=10 n=44 v=0
44332 On ch=10 n=38 v=0
44352 On ch=10 n=36 v=117
44352 ChPr ch=10 v=55
44352 On ch=10 n=44 v=117
44352 On ch=10 n=80 v=108
44379 On ch=10 n=44 v=0
44382 On ch=10 n=80 v=0
44388 On ch=10 n=36 v=0
44400 ChPr ch=10 v=15
44400 ChPr ch=10 v=0
44400 On ch=10 n=44 v=127
44425 On ch=10 n=44 v=0
44448 On ch=10 n=38 v=123
44448 ChPr ch=10 v=21
44448 On ch=10 n=44 v=127
44448 On ch=10 n=81 v=102
44473 On ch=10 n=44 v=0
44477 On ch=10 n=38 v=0
44480 On ch=10 n=81 v=0
44496 ChPr ch=10 v=0
44544 On ch=10 n=36 v=123
44544 ChPr ch=10 v=127
44544 On ch=10 n=44 v=127
44544 On ch=10 n=80 v=108
44565 On ch=10 n=44 v=0
44572 On ch=10 n=80 v=0
44577 On ch=10 n=36 v=0
44592 ChPr ch=10 v=0
44592 On ch=10 n=44 v=127
44619 On ch=10 n=44 v=0
44640 On ch=10 n=81 v=105
44671 On ch=10 n=81 v=0
44688 On ch=10 n=38 v=117
44688 On ch=10 n=44 v=127
44708 On ch=10 n=44 v=0
44717 On ch=10 n=38 v=0
44736 On ch=10 n=36 v=117
44736 ChPr ch=10 v=21
44736 On ch=10 n=44 v=117
44736 On ch=10 n=80 v=108
44761 On ch=10 n=44 v=0
44765 On ch=10 n=80 v=0
44769 On ch=10 n=36 v=0
44784 ChPr ch=10 v=0
44784 On ch=10 n=44 v=127
44809 On ch=10 n=44 v=0
44832 On ch=10 n=38 v=114
44832 On ch=10 n=44 v=127
44832 On ch=10 n=81 v=102
44860 On ch=10 n=38 v=0
44862 On ch=10 n=44 v=0
44863 On ch=10 n=81 v=0
44928 On ch=10 n=36 v=123
44928 On ch=10 n=44 v=127
44928 On ch=10 n=80 v=114
44951 On ch=10 n=44 v=0
44958 On ch=10 n=80 v=0
44961 On ch=10 n=36 v=0
44976 ChPr ch=10 v=8
44976 ChPr ch=10 v=0
44976 On ch=10 n=44 v=127
45003 On ch=10 n=44 v=0
45024 On ch=10 n=81 v=105
45055 On ch=10 n=81 v=0
45072 On ch=10 n=38 v=117
45072 On ch=10 n=44 v=127
45095 On ch=10 n=44 v=0
45099 On ch=10 n=38 v=0
45120 On ch=10 n=36 v=117
45120 ChPr ch=10 v=67
45120 On ch=10 n=44 v=117
45120 On ch=10 n=80 v=117
45147 On ch=10 n=44 v=0
45149 On ch=10 n=80 v=0
45155 On ch=10 n=36 v=0
45168 ChPr ch=10 v=0
45168 On ch=10 n=44 v=127
45193 On ch=10 n=44 v=0
45216 On ch=10 n=38 v=114
45216 On ch=10 n=44 v=127
45216 On ch=10 n=81 v=108
45241 On ch=10 n=44 v=0
45242 On ch=10 n=38 v=0
45247 On ch=10 n=81 v=0
45312 On ch=10 n=36 v=117
45312 On ch=10 n=44 v=127
45312 On ch=10 n=80 v=127
45333 On ch=10 n=44 v=0
45343 On ch=10 n=80 v=0
45347 On ch=10 n=36 v=0
45360 On ch=10 n=44 v=127
45387 On ch=10 n=44 v=0
45408 On ch=10 n=81 v=108
45439 On ch=10 n=81 v=0
45456 On ch=10 n=38 v=114
45456 On ch=10 n=44 v=127
45476 On ch=10 n=44 v=0
45483 On ch=10 n=38 v=0
45504 On ch=10 n=36 v=117
45504 On ch=10 n=44 v=117
45504 On ch=10 n=80 v=108
45529 On ch=10 n=44 v=0
45534 On ch=10 n=80 v=0
45535 On ch=10 n=36 v=0
45552 On ch=10 n=44 v=127
45577 On ch=10 n=44 v=0
45600 On ch=10 n=38 v=123
45600 ChPr ch=10 v=22
45600 On ch=10 n=44 v=127
45600 On ch=10 n=81 v=108
45626 On ch=10 n=38 v=0
45630 On ch=10 n=44 v=0
45632 On ch=10 n=81 v=0
45648 ChPr ch=10 v=0
45696 On ch=10 n=36 v=117
45696 On ch=10 n=44 v=127
45696 On ch=10 n=80 v=108
45719 On ch=10 n=44 v=0
45722 On ch=10 n=36 v=0
45726 On ch=10 n=80 v=0
45744 On ch=10 n=44 v=127
45771 On ch=10 n=44 v=0
45792 On ch=10 n=81 v=105
45826 On ch=10 n=81 v=0
45840 On ch=10 n=38 v=117
45840 On ch=10 n=44 v=127
45863 On ch=10 n=44 v=0
45867 On ch=10 n=38 v=0
45888 On ch=10 n=36 v=117
45888 On ch=10 n=44 v=117
45888 On ch=10 n=80 v=108
45915 On ch=10 n=44 v=0
45917 On ch=10 n=80 v=0
45921 On ch=10 n=36 v=0
45936 On ch=10 n=44 v=127
45961 On ch=10 n=44 v=0
45984 On ch=10 n=38 v=117
45984 On ch=10 n=44 v=127
45984 On ch=10 n=81 v=108
46009 On ch=10 n=44 v=0
46012 On ch=10 n=38 v=0
46015 On ch=10 n=81 v=0
46080 On ch=10 n=36 v=117
46080 On ch=10 n=44 v=127
46080 On ch=10 n=80 v=114
46080 On ch=10 n=87 v=127
46080 On ch=10 n=57 v=123
46101 On ch=10 n=44 v=0
46104 On ch=10 n=87 v=0
46104 On ch=10 n=57 v=0
46109 On ch=10 n=36 v=0
46111 On ch=10 n=80 v=0
46128 On ch=10 n=44 v=127
46155 On ch=10 n=44 v=0
46176 On ch=10 n=81 v=108
46207 On ch=10 n=81 v=0
46224 On ch=10 n=38 v=114
46224 On ch=10 n=44 v=127
46244 On ch=10 n=44 v=0
46251 On ch=10 n=38 v=0
46272 On ch=10 n=36 v=117
46272 ChPr ch=10 v=127
46272 ChPr ch=10 v=13
46272 On ch=10 n=44 v=117
46272 On ch=10 n=80 v=114
46297 On ch=10 n=44 v=0
46305 On ch=10 n=80 v=0
46308 On ch=10 n=36 v=0
46320 ChPr ch=10 v=0
46320 On ch=10 n=44 v=127
46345 On ch=10 n=44 v=0
46368 On ch=10 n=38 v=117
46368 ChPr ch=10 v=23
46368 On ch=10 n=44 v=127
46368 On ch=10 n=81 v=105
46396 On ch=10 n=38 v=0
46398 On ch=10 n=44 v=0
46399 On ch=10 n=81 v=0
46416 ChPr ch=10 v=0
46464 On ch=10 n=36 v=117
46464 ChPr ch=10 v=127
46464 On ch=10 n=44 v=127
46464 On ch=10 n=80 v=108
46487 On ch=10 n=44 v=0
46495 On ch=10 n=36 v=0
46495 On ch=10 n=80 v=0
46512 ChPr ch=10 v=0
46512 On ch=10 n=44 v=127
46539 On ch=10 n=44 v=0
46560 On ch=10 n=81 v=108
46591 On ch=10 n=81 v=0
46608 On ch=10 n=38 v=117
46608 On ch=10 n=44 v=127
46631 On ch=10 n=44 v=0
46636 On ch=10 n=38 v=0
46656 On ch=10 n=36 v=117
46656 ChPr ch=10 v=55
46656 On ch=10 n=44 v=117
46656 On ch=10 n=80 v=114
46683 On ch=10 n=44 v=0
46688 On ch=10 n=80 v=0
46692 On ch=10 n=36 v=0
46704 ChPr ch=10 v=15
46704 ChPr ch=10 v=0
46704 On ch=10 n=44 v=127
46729 On ch=10 n=44 v=0
46752 On ch=10 n=38 v=123
46752 ChPr ch=10 v=21
46752 On ch=10 n=44 v=127
46752 On ch=10 n=81 v=108
46777 On ch=10 n=44 v=0
46781 On ch=10 n=38 v=0
46784 On ch=10 n=81 v=0
46800 ChPr ch=10 v=0
46848 On ch=10 n=36 v=117
46848 On ch=10 n=44 v=127
46848 On ch=10 n=80 v=114
46869 On ch=10 n=44 v=0
46879 On ch=10 n=80 v=0
46883 On ch=10 n=36 v=0
46896 On ch=10 n=44 v=127
46923 On ch=10 n=44 v=0
46944 On ch=10 n=81 v=105
46975 On ch=10 n=81 v=0
46992 On ch=10 n=38 v=114
46992 On ch=10 n=44 v=127
47012 On ch=10 n=44 v=0
47019 On ch=10 n=38 v=0
47040 On ch=10 n=36 v=117
47040 On ch=10 n=44 v=117
47040 On ch=10 n=80 v=114
47065 On ch=10 n=44 v=0
47070 On ch=10 n=80 v=0
47071 On ch=10 n=36 v=0
47088 On ch=10 n=44 v=127
47113 On ch=10 n=44 v=0
47136 On ch=10 n=38 v=123
47136 ChPr ch=10 v=22
47136 On ch=10 n=44 v=127
47136 On ch=10 n=81 v=108
47162 On ch=10 n=38 v=0
47166 On ch=10 n=44 v=0
47167 On ch=10 n=81 v=0
47184 ChPr ch=10 v=0
47232 On ch=10 n=36 v=117
47232 On ch=10 n=44 v=127
47232 On ch=10 n=80 v=114
47255 On ch=10 n=44 v=0
47258 On ch=10 n=36 v=0
47262 On ch=10 n=80 v=0
47280 On ch=10 n=44 v=127
47307 On ch=10 n=44 v=0
47328 On ch=10 n=81 v=108
47358 On ch=10 n=81 v=0
47376 On ch=10 n=38 v=117
47376 On ch=10 n=44 v=127
47399 On ch=10 n=44 v=0
47403 On ch=10 n=38 v=0
47424 On ch=10 n=36 v=117
47424 On ch=10 n=44 v=117
47424 On ch=10 n=80 v=117
47451 On ch=10 n=44 v=0
47452 On ch=10 n=80 v=0
47457 On ch=10 n=36 v=0
47472 On ch=10 n=44 v=127
47497 On ch=10 n=44 v=0
47520 On ch=10 n=38 v=117
47520 On ch=10 n=44 v=127
47520 On ch=10 n=81 v=108
47545 On ch=10 n=44 v=0
47548 On ch=10 n=38 v=0
47549 On ch=10 n=81 v=0
47616 On ch=10 n=36 v=117
47616 On ch=10 n=44 v=127
47616 On ch=10 n=80 v=114
47637 On ch=10 n=44 v=0
47645 On ch=10 n=80 v=0
47645 On ch=10 n=36 v=0
47664 On ch=10 n=44 v=127
47691 On ch=10 n=44 v=0
47712 On ch=10 n=81 v=111
47742 On ch=10 n=81 v=0
47760 On ch=10 n=38 v=114
47760 On ch=10 n=44 v=127
47780 On ch=10 n=44 v=0
47787 On ch=10 n=38 v=0
47808 On ch=10 n=36 v=117
47808 ChPr ch=10 v=127
47808 ChPr ch=10 v=13
47808 On ch=10 n=44 v=117
47808 On ch=10 n=80 v=108
47833 On ch=10 n=44 v=0
47838 On ch=10 n=80 v=0
47844 On ch=10 n=36 v=0
47856 ChPr ch=10 v=0
47856 On ch=10 n=44 v=127
47881 On ch=10 n=44 v=0
47904 On ch=10 n=38 v=117
47904 ChPr ch=10 v=23
47904 On ch=10 n=44 v=127
47904 On ch=10 n=81 v=111
47932 On ch=10 n=38 v=0
47934 On ch=10 n=44 v=0
47934 On ch=10 n=81 v=0
47952 ChPr ch=10 v=0
48000 On ch=10 n=36 v=117
48000 ChPr ch=10 v=127
48000 On ch=10 n=44 v=127
48000 On ch=10 n=80 v=114
48023 On ch=10 n=44 v=0
48030 On ch=10 n=80 v=0
48031 On ch=10 n=36 v=0
48048 ChPr ch=10 v=0
48048 On ch=10 n=44 v=127
48075 On ch=10 n=44 v=0
48096 On ch=10 n=81 v=111
48126 On ch=10 n=81 v=0
48144 On ch=10 n=38 v=117
48144 On ch=10 n=44 v=127
48167 On ch=10 n=44 v=0
48172 On ch=10 n=38 v=0
48192 On ch=10 n=36 v=117
48192 ChPr ch=10 v=55
48192 On ch=10 n=44 v=117
48192 On ch=10 n=80 v=114
48219 On ch=10 n=44 v=0
48222 On ch=10 n=80 v=0
48228 On ch=10 n=36 v=0
48240 ChPr ch=10 v=15
48240 ChPr ch=10 v=0
48240 On ch=10 n=44 v=127
48265 On ch=10 n=44 v=0
48288 On ch=10 n=38 v=123
48288 ChPr ch=10 v=21
48288 On ch=10 n=44 v=127
48288 On ch=10 n=81 v=108
48313 On ch=10 n=44 v=0
48317 On ch=10 n=38 v=0
48318 On ch=10 n=81 v=0
48336 ChPr ch=10 v=0
48384 On ch=10 n=36 v=117
48384 ChPr ch=10 v=127
48384 On ch=10 n=87 v=127
48384 ChPr ch=10 v=0
48404 Off ch=10 n=87 v=0
48413 Off ch=10 n=36 v=0
49152 On ch=10 n=36 v=117
49152 On ch=10 n=44 v=127
49152 On ch=10 n=80 v=114
49152 On ch=10 n=87 v=127
49173 On ch=10 n=44 v=0
49182 On ch=10 n=87 v=0
49183 On ch=10 n=80 v=0
49187 On ch=10 n=36 v=0
49200 On ch=10 n=44 v=127
49227 On ch=10 n=44 v=0
49248 On ch=10 n=81 v=105
49281 On ch=10 n=81 v=0
49296 On ch=10 n=38 v=114
49296 On ch=10 n=44 v=127
49296 On ch=10 n=87 v=127
49316 On ch=10 n=44 v=0
49323 On ch=10 n=38 v=0
49324 On ch=10 n=87 v=0
49344 On ch=10 n=36 v=117
49344 On ch=10 n=44 v=117
49344 On ch=10 n=80 v=108
49369 On ch=10 n=44 v=0
49372 On ch=10 n=80 v=0
49375 On ch=10 n=36 v=0
49392 On ch=10 n=44 v=127
49417 On ch=10 n=44 v=0
49440 On ch=10 n=38 v=123
49440 ChPr ch=10 v=22
49440 On ch=10 n=44 v=127
49440 On ch=10 n=81 v=96
49466 On ch=10 n=38 v=0
49469 On ch=10 n=81 v=0
49470 On ch=10 n=44 v=0
49488 ChPr ch=10 v=0
49536 On ch=10 n=36 v=117
49536 On ch=10 n=44 v=127
49536 On ch=10 n=80 v=108
49559 On ch=10 n=44 v=0
49562 On ch=10 n=36 v=0
49563 On ch=10 n=80 v=0
49584 On ch=10 n=44 v=127
49611 On ch=10 n=44 v=0
49632 On ch=10 n=81 v=93
49663 On ch=10 n=81 v=0
49680 On ch=10 n=38 v=117
49680 On ch=10 n=44 v=127
49703 On ch=10 n=44 v=0
49707 On ch=10 n=38 v=0
49728 On ch=10 n=36 v=117
49728 On ch=10 n=44 v=117
49728 On ch=10 n=80 v=102
49755 On ch=10 n=44 v=0
49756 On ch=10 n=80 v=0
49761 On ch=10 n=36 v=0
49776 On ch=10 n=44 v=127
49801 On ch=10 n=44 v=0
49824 On ch=10 n=38 v=117
49824 On ch=10 n=44 v=127
49824 On ch=10 n=81 v=93
49849 On ch=10 n=44 v=0
49852 On ch=10 n=38 v=0
49856 On ch=10 n=81 v=0
49920 On ch=10 n=36 v=117
49920 On ch=10 n=44 v=127
49920 On ch=10 n=80 v=102
49920 On ch=10 n=87 v=127
49941 On ch=10 n=44 v=0
49949 On ch=10 n=36 v=0
49950 On ch=10 n=80 v=0
49950 On ch=10 n=87 v=0
49968 On ch=10 n=44 v=127
49995 On ch=10 n=44 v=0
50016 On ch=10 n=81 v=102
50049 On ch=10 n=81 v=0
50064 On ch=10 n=38 v=114
50064 On ch=10 n=44 v=127
50064 On ch=10 n=87 v=127
50084 On ch=10 n=44 v=0
50089 On ch=10 n=87 v=0
50091 On ch=10 n=38 v=0
50112 On ch=10 n=36 v=117
50112 ChPr ch=10 v=127
50112 ChPr ch=10 v=13
50112 On ch=10 n=44 v=117
50112 On ch=10 n=80 v=108
50137 On ch=10 n=44 v=0
50142 On ch=10 n=80 v=0
50148 On ch=10 n=36 v=0
50160 ChPr ch=10 v=0
50160 On ch=10 n=44 v=127
50185 On ch=10 n=44 v=0
50208 On ch=10 n=38 v=117
50208 ChPr ch=10 v=23
50208 On ch=10 n=44 v=127
50208 On ch=10 n=81 v=96
50236 On ch=10 n=38 v=0
50238 On ch=10 n=44 v=0
50241 On ch=10 n=81 v=0
50256 ChPr ch=10 v=0
50304 On ch=10 n=36 v=117
50304 ChPr ch=10 v=127
50304 On ch=10 n=44 v=127
50304 On ch=10 n=80 v=108
50327 On ch=10 n=44 v=0
50335 On ch=10 n=80 v=0
50335 On ch=10 n=36 v=0
50352 ChPr ch=10 v=0
50352 On ch=10 n=44 v=127
50379 On ch=10 n=44 v=0
50400 On ch=10 n=81 v=105
50432 On ch=10 n=81 v=0
50448 On ch=10 n=38 v=117
50448 On ch=10 n=44 v=127
50471 On ch=10 n=44 v=0
50476 On ch=10 n=38 v=0
50496 On ch=10 n=36 v=117
50496 ChPr ch=10 v=55
50496 On ch=10 n=44 v=117
50496 On ch=10 n=80 v=108
50523 On ch=10 n=44 v=0
50526 On ch=10 n=80 v=0
50532 On ch=10 n=36 v=0
50544 ChPr ch=10 v=15
50544 ChPr ch=10 v=0
50544 On ch=10 n=44 v=127
50569 On ch=10 n=44 v=0
50592 On ch=10 n=38 v=123
50592 ChPr ch=10 v=21
50592 On ch=10 n=44 v=127
50592 On ch=10 n=81 v=102
50617 On ch=10 n=44 v=0
50621 On ch=10 n=38 v=0
50624 On ch=10 n=81 v=0
50640 ChPr ch=10 v=0
50688 On ch=10 n=36 v=123
50688 ChPr ch=10 v=127
50688 On ch=10 n=44 v=127
50688 On ch=10 n=80 v=108
50688 On ch=10 n=87 v=127
50709 On ch=10 n=44 v=0
50714 On ch=10 n=87 v=0
50716 On ch=10 n=80 v=0
50721 On ch=10 n=36 v=0
50736 ChPr ch=10 v=0
50736 On ch=10 n=44 v=127
50763 On ch=10 n=44 v=0
50784 On ch=10 n=81 v=105
50815 On ch=10 n=81 v=0
50832 On ch=10 n=38 v=117
50832 On ch=10 n=44 v=127
50832 On ch=10 n=87 v=127
50852 On ch=10 n=44 v=0
50855 On ch=10 n=87 v=0
50861 On ch=10 n=38 v=0
50880 On ch=10 n=36 v=117
50880 ChPr ch=10 v=21
50880 On ch=10 n=44 v=117
50880 On ch=10 n=80 v=108
50905 On ch=10 n=44 v=0
50909 On ch=10 n=80 v=0
50913 On ch=10 n=36 v=0
50928 ChPr ch=10 v=0
50928 On ch=10 n=44 v=127
50953 On ch=10 n=44 v=0
50976 On ch=10 n=38 v=114
50976 On ch=10 n=44 v=127
50976 On ch=10 n=81 v=102
51004 On ch=10 n=38 v=0
51006 On ch=10 n=44 v=0
51007 On ch=10 n=81 v=0
51072 On ch=10 n=36 v=123
51072 On ch=10 n=44 v=127
51072 On ch=10 n=80 v=114
51095 On ch=10 n=44 v=0
51102 On ch=10 n=80 v=0
51105 On ch=10 n=36 v=0
51120 ChPr ch=10 v=8
51120 ChPr ch=10 v=0
51120 On ch=10 n=44 v=127
51147 On ch=10 n=44 v=0
51168 On ch=10 n=81 v=105
51199 On ch=10 n=81 v=0
51216 On ch=10 n=38 v=117
51216 On ch=10 n=44 v=127
51239 On ch=10 n=44 v=0
51243 On ch=10 n=38 v=0
51264 On ch=10 n=36 v=117
51264 ChPr ch=10 v=67
51264 On ch=10 n=44 v=117
51264 On ch=10 n=80 v=117
51291 On ch=10 n=44 v=0
51293 On ch=10 n=80 v=0
51299 On ch=10 n=36 v=0
51312 ChPr ch=10 v=0
51312 On ch=10 n=44 v=127
51337 On ch=10 n=44 v=0
51360 On ch=10 n=38 v=114
51360 On ch=10 n=44 v=127
51360 On ch=10 n=81 v=108
51385 On ch=10 n=44 v=0
51386 On ch=10 n=38 v=0
51391 On ch=10 n=81 v=0
51456 On ch=10 n=36 v=117
51456 On ch=10 n=44 v=127
51456 On ch=10 n=80 v=127
51456 On ch=10 n=87 v=127
51477 On ch=10 n=44 v=0
51480 On ch=10 n=87 v=0
51487 On ch=10 n=80 v=0
51491 On ch=10 n=36 v=0
51504 On ch=10 n=44 v=127
51531 On ch=10 n=44 v=0
51552 On ch=10 n=81 v=108
51583 On ch=10 n=81 v=0
51600 On ch=10 n=38 v=114
51600 On ch=10 n=44 v=127
51600 On ch=10 n=87 v=127
51620 On ch=10 n=87 v=0
51620 On ch=10 n=44 v=0
51627 On ch=10 n=38 v=0
51648 On ch=10 n=36 v=117
51648 On ch=10 n=44 v=117
51648 On ch=10 n=80 v=108
51673 On ch=10 n=44 v=0
51678 On ch=10 n=80 v=0
51679 On ch=10 n=36 v=0
51696 On ch=10 n=44 v=127
51721 On ch=10 n=44 v=0
51744 On ch=10 n=38 v=123
51744 ChPr ch=10 v=22
51744 On ch=10 n=44 v=127
51744 On ch=10 n=81 v=108
51770 On ch=10 n=38 v=0
51774 On ch=10 n=44 v=0
51776 On ch=10 n=81 v=0
51792 ChPr ch=10 v=0
51840 On ch=10 n=36 v=117
51840 On ch=10 n=44 v=127
51840 On ch=10 n=80 v=108
51863 On ch=10 n=44 v=0
51866 On ch=10 n=36 v=0
51870 On ch=10 n=80 v=0
51888 On ch=10 n=44 v=127
51915 On ch=10 n=44 v=0
51936 On ch=10 n=81 v=105
51970 On ch=10 n=81 v=0
51984 On ch=10 n=38 v=117
51984 On ch=10 n=44 v=127
52007 On ch=10 n=44 v=0
52011 On ch=10 n=38 v=0
52032 On ch=10 n=36 v=117
52032 On ch=10 n=44 v=117
52032 On ch=10 n=80 v=108
52059 On ch=10 n=44 v=0
52061 On ch=10 n=80 v=0
52065 On ch=10 n=36 v=0
52080 On ch=10 n=44 v=127
52105 On ch=10 n=44 v=0
52128 On ch=10 n=38 v=117
52128 On ch=10 n=44 v=127
52128 On ch=10 n=81 v=108
52153 On ch=10 n=44 v=0
52156 On ch=10 n=38 v=0
52159 On ch=10 n=81 v=0
52224 On ch=10 n=36 v=117
52224 On ch=10 n=44 v=127
52224 On ch=10 n=80 v=114
52224 On ch=10 n=87 v=127
52245 On ch=10 n=44 v=0
52253 On ch=10 n=36 v=0
52254 On ch=10 n=87 v=0
52255 On ch=10 n=80 v=0
52272 On ch=10 n=44 v=127
52299 On ch=10 n=44 v=0
52320 On ch=10 n=81 v=108
52351 On ch=10 n=81 v=0
52368 On ch=10 n=38 v=114
52368 On ch=10 n=44 v=127
52368 On ch=10 n=87 v=127
52388 On ch=10 n=44 v=0
52391 On ch=10 n=87 v=0
52395 On ch=10 n=38 v=0
52416 On ch=10 n=36 v=117
52416 ChPr ch=10 v=127
52416 ChPr ch=10 v=13
52416 On ch=10 n=44 v=117
52416 On ch=10 n=80 v=114
52441 On ch=10 n=44 v=0
52449 On ch=10 n=80 v=0
52452 On ch=10 n=36 v=0
52464 ChPr ch=10 v=0
52464 On ch=10 n=44 v=127
52489 On ch=10 n=44 v=0
52512 On ch=10 n=38 v=117
52512 ChPr ch=10 v=23
52512 On ch=10 n=44 v=127
52512 On ch=10 n=81 v=105
52540 On ch=10 n=38 v=0
52542 On ch=10 n=44 v=0
52543 On ch=10 n=81 v=0
52560 ChPr ch=10 v=0
52608 On ch=10 n=36 v=117
52608 ChPr ch=10 v=127
52608 On ch=10 n=44 v=127
52608 On ch=10 n=80 v=108
52631 On ch=10 n=44 v=0
52639 On ch=10 n=36 v=0
52639 On ch=10 n=80 v=0
52656 ChPr ch=10 v=0
52656 On ch=10 n=44 v=127
52683 On ch=10 n=44 v=0
52704 On ch=10 n=81 v=108
52735 On ch=10 n=81 v=0
52752 On ch=10 n=38 v=117
52752 On ch=10 n=44 v=127
52775 On ch=10 n=44 v=0
52780 On ch=10 n=38 v=0
52800 On ch=10 n=36 v=117
52800 ChPr ch=10 v=55
52800 On ch=10 n=44 v=117
52800 On ch=10 n=80 v=114
52827 On ch=10 n=44 v=0
52832 On ch=10 n=80 v=0
52836 On ch=10 n=36 v=0
52848 ChPr ch=10 v=15
52848 ChPr ch=10 v=0
52848 On ch=10 n=44 v=127
52873 On ch=10 n=44 v=0
52896 On ch=10 n=38 v=123
52896 ChPr ch=10 v=21
52896 On ch=10 n=44 v=127
52896 On ch=10 n=81 v=108
52921 On ch=10 n=44 v=0
52925 On ch=10 n=38 v=0
52928 On ch=10 n=81 v=0
52944 ChPr ch=10 v=0
52992 On ch=10 n=36 v=117
52992 On ch=10 n=44 v=127
52992 On ch=10 n=80 v=114
52992 On ch=10 n=87 v=127
53013 On ch=10 n=44 v=0
53015 On ch=10 n=87 v=0
53023 On ch=10 n=80 v=0
53027 On ch=10 n=36 v=0
53040 On ch=10 n=44 v=127
53067 On ch=10 n=44 v=0
53088 On ch=10 n=81 v=105
53119 On ch=10 n=81 v=0
53136 On ch=10 n=38 v=114
53136 On ch=10 n=44 v=127
53136 On ch=10 n=87 v=127
53156 On ch=10 n=87 v=0
53156 On ch=10 n=44 v=0
53163 On ch=10 n=38 v=0
53184 On ch=10 n=36 v=117
53184 On ch=10 n=44 v=117
53184 On ch=10 n=80 v=114
53209 On ch=10 n=44 v=0
53214 On ch=10 n=80 v=0
53215 On ch=10 n=36 v=0
53232 On ch=10 n=44 v=127
53257 On ch=10 n=44 v=0
53280 On ch=10 n=38 v=123
53280 ChPr ch=10 v=22
53280 On ch=10 n=44 v=127
53280 On ch=10 n=81 v=108
53306 On ch=10 n=38 v=0
53310 On ch=10 n=44 v=0
53311 On ch=10 n=81 v=0
53328 ChPr ch=10 v=0
53376 On ch=10 n=36 v=117
53376 On ch=10 n=44 v=127
53376 On ch=10 n=80 v=114
53399 On ch=10 n=44 v=0
53402 On ch=10 n=36 v=0
53406 On ch=10 n=80 v=0
53424 On ch=10 n=44 v=127
53451 On ch=10 n=44 v=0
53472 On ch=10 n=81 v=108
53502 On ch=10 n=81 v=0
53520 On ch=10 n=38 v=117
53520 On ch=10 n=44 v=127
53543 On ch=10 n=44 v=0
53547 On ch=10 n=38 v=0
53568 On ch=10 n=36 v=117
53568 On ch=10 n=44 v=117
53568 On ch=10 n=80 v=117
53595 On ch=10 n=44 v=0
53596 On ch=10 n=80 v=0
53601 On ch=10 n=36 v=0
53616 On ch=10 n=44 v=127
53641 On ch=10 n=44 v=0
53664 On ch=10 n=38 v=117
53664 On ch=10 n=44 v=127
53664 On ch=10 n=81 v=108
53689 On ch=10 n=44 v=0
53692 On ch=10 n=38 v=0
53693 On ch=10 n=81 v=0
53760 On ch=10 n=36 v=117
53760 On ch=10 n=44 v=127
53760 On ch=10 n=80 v=114
53760 On ch=10 n=87 v=127
53781 On ch=10 n=44 v=0
53786 On ch=10 n=87 v=0
53789 On ch=10 n=80 v=0
53789 On ch=10 n=36 v=0
53808 On ch=10 n=44 v=127
53835 On ch=10 n=44 v=0
53856 On ch=10 n=81 v=111
53886 On ch=10 n=81 v=0
53904 On ch=10 n=38 v=114
53904 On ch=10 n=44 v=127
53904 On ch=10 n=87 v=127
53924 On ch=10 n=87 v=0
53924 On ch=10 n=44 v=0
53931 On ch=10 n=38 v=0
53952 On ch=10 n=36 v=117
53952 ChPr ch=10 v=127
53952 ChPr ch=10 v=13
53952 On ch=10 n=44 v=117
53952 On ch=10 n=80 v=108
53977 On ch=10 n=44 v=0
53982 On ch=10 n=80 v=0
53988 On ch=10 n=36 v=0
54000 ChPr ch=10 v=0
54000 On ch=10 n=44 v=127
54025 On ch=10 n=44 v=0
54048 On ch=10 n=38 v=117
54048 ChPr ch=10 v=23
54048 On ch=10 n=44 v=127
54048 On ch=10 n=81 v=111
54076 On ch=10 n=38 v=0
54078 On ch=10 n=81 v=0
54078 On ch=10 n=44 v=0
54096 ChPr ch=10 v=0
54144 On ch=10 n=36 v=117
54144 ChPr ch=10 v=127
54144 On ch=10 n=44 v=127
54144 On ch=10 n=80 v=114
54167 On ch=10 n=44 v=0
54174 On ch=10 n=80 v=0
54175 On ch=10 n=36 v=0
54192 ChPr ch=10 v=0
54192 On ch=10 n=44 v=127
54219 On ch=10 n=44 v=0
54240 On ch=10 n=81 v=111
54270 On ch=10 n=81 v=0
54288 On ch=10 n=38 v=117
54288 On ch=10 n=44 v=127
54311 On ch=10 n=44 v=0
54316 On ch=10 n=38 v=0
54336 On ch=10 n=36 v=117
54336 ChPr ch=10 v=55
54336 On ch=10 n=44 v=117
54336 On ch=10 n=80 v=114
54363 On ch=10 n=44 v=0
54366 On ch=10 n=80 v=0
54372 On ch=10 n=36 v=0
54384 ChPr ch=10 v=15
54384 ChPr ch=10 v=0
54384 On ch=10 n=44 v=127
54409 On ch=10 n=44 v=0
54432 On ch=10 n=38 v=123
54432 ChPr ch=10 v=21
54432 On ch=10 n=44 v=127
54432 On ch=10 n=81 v=108
54457 On ch=10 n=44 v=0
54461 On ch=10 n=38 v=0
54462 On ch=10 n=81 v=0
54480 ChPr ch=10 v=0
54528 On ch=10 n=36 v=117
54528 ChPr ch=10 v=127
54528 On ch=10 n=87 v=127
54528 ChPr ch=10 v=0
54548 Off ch=10 n=87 v=0
54557 Off ch=10 n=36 v=0
55296 On ch=10 n=36 v=117
55296 ChPr ch=10 v=67
55296 ChPr ch=10 v=0
55327 Off ch=10 n=36 v=0
55488 On ch=10 n=36 v=114
55520 On ch=10 n=36 v=0
55680 On ch=10 n=36 v=114
55709 On ch=10 n=36 v=0
55872 On ch=10 n=36 v=117
55903 On ch=10 n=36 v=0
56064 On ch=10 n=36 v=117
56091 On ch=10 n=36 v=0
56256 On ch=10 n=36 v=114
56283 On ch=10 n=36 v=0
56448 On ch=10 n=36 v=114
56477 On ch=10 n=36 v=0
56640 On ch=10 n=36 v=114
56669 On ch=10 n=36 v=0
56832 On ch=10 n=36 v=114
56858 On ch=10 n=36 v=0
57024 On ch=10 n=36 v=117
57051 On ch=10 n=36 v=0
57216 On ch=10 n=36 v=117
57246 On ch=10 n=36 v=0
57408 On ch=10 n=36 v=117
57436 On ch=10 n=36 v=0
57600 On ch=10 n=36 v=117
57600 ChPr ch=10 v=58
57600 ChPr ch=10 v=0
57629 Off ch=10 n=36 v=0
57792 On ch=10 n=36 v=114
57822 On ch=10 n=36 v=0
57984 On ch=10 n=36 v=111
58013 On ch=10 n=36 v=0
58176 On ch=10 n=36 v=111
58208 On ch=10 n=36 v=0
58368 On ch=10 n=36 v=114
58401 On ch=10 n=36 v=0
58512 On ch=10 n=37 v=117
58529 On ch=10 n=37 v=0
58560 On ch=10 n=36 v=114
58560 On ch=10 n=37 v=114
58579 On ch=10 n=37 v=0
58590 On ch=10 n=36 v=0
58752 On ch=10 n=36 v=117
58752 ChPr ch=10 v=23
58752 ChPr ch=10 v=0
58783 Off ch=10 n=36 v=0
58896 On ch=10 n=37 v=117
58910 On ch=10 n=37 v=0
58944 On ch=10 n=36 v=117
58944 On ch=10 n=37 v=117
58962 On ch=10 n=37 v=0
58976 On ch=10 n=36 v=0
59136 On ch=10 n=36 v=117
59168 On ch=10 n=36 v=0
59280 On ch=10 n=37 v=127
59299 On ch=10 n=37 v=0
59328 On ch=10 n=36 v=117
59328 On ch=10 n=37 v=114
59350 On ch=10 n=37 v=0
59358 On ch=10 n=36 v=0
59520 On ch=10 n=36 v=114
59548 On ch=10 n=36 v=0
59664 On ch=10 n=37 v=117
59684 On ch=10 n=37 v=0
59712 On ch=10 n=36 v=117
59712 On ch=10 n=37 v=117
59733 On ch=10 n=37 v=0
59745 On ch=10 n=36 v=0
59904 On ch=10 n=36 v=117
59936 On ch=10 n=36 v=0
60048 On ch=10 n=37 v=127
60067 On ch=10 n=37 v=0
60096 On ch=10 n=36 v=114
60096 On ch=10 n=37 v=114
60116 On ch=10 n=37 v=0
60127 On ch=10 n=36 v=0
60288 On ch=10 n=36 v=117
60318 On ch=10 n=36 v=0
60432 On ch=10 n=37 v=127
60449 On ch=10 n=37 v=0
60480 On ch=10 n=36 v=114
60480 On ch=10 n=37 v=117
60499 On ch=10 n=37 v=0
60509 On ch=10 n=36 v=0
60672 On ch=10 n=36 v=117
60672 On ch=10 n=39 v=127
60672 ChPr ch=10 v=0
60684 Off ch=10 n=39 v=0
60696 Off ch=10 n=36 v=0
61440 On ch=10 n=36 v=117
61440 On ch=10 n=44 v=127
61440 On ch=10 n=80 v=114
61440 On ch=10 n=87 v=127
61440 On ch=10 n=49 v=117
61460 On ch=10 n=49 v=0
61461 On ch=10 n=87 v=0
61461 On ch=10 n=44 v=0
61471 On ch=10 n=80 v=0
61475 On ch=10 n=36 v=0
61488 On ch=10 n=44 v=127
61515 On ch=10 n=44 v=0
61536 On ch=10 n=81 v=105
61569 On ch=10 n=81 v=0
61584 On ch=10 n=38 v=114
61584 On ch=10 n=44 v=127
61604 On ch=10 n=44 v=0
61611 On ch=10 n=38 v=0
61632 On ch=10 n=36 v=117
61632 On ch=10 n=44 v=117
61632 On ch=10 n=80 v=108
61657 On ch=10 n=44 v=0
61660 On ch=10 n=80 v=0
61663 On ch=10 n=36 v=0
61680 On ch=10 n=44 v=127
61705 On ch=10 n=44 v=0
61728 On ch=10 n=38 v=123
61728 ChPr ch=10 v=22
61728 On ch=10 n=44 v=127
61728 On ch=10 n=81 v=96
61754 On ch=10 n=38 v=0
61757 On ch=10 n=81 v=0
61758 On ch=10 n=44 v=0
61776 ChPr ch=10 v=0
61824 On ch=10 n=36 v=117
61824 On ch=10 n=44 v=127
61824 On ch=10 n=80 v=108
61847 On ch=10 n=44 v=0
61850 On ch=10 n=36 v=0
61851 On ch=10 n=80 v=0
61872 On ch=10 n=44 v=127
61899 On ch=10 n=44 v=0
61920 On ch=10 n=81 v=93
61951 On ch=10 n=81 v=0
61968 On ch=10 n=38 v=117
61968 On ch=10 n=44 v=127
61991 On ch=10 n=44 v=0
61995 On ch=10 n=38 v=0
62016 On ch=10 n=36 v=117
62016 On ch=10 n=44 v=117
62016 On ch=10 n=80 v=102
62043 On ch=10 n=44 v=0
62044 On ch=10 n=80 v=0
62049 On ch=10 n=36 v=0
62064 On ch=10 n=44 v=127
62089 On ch=10 n=44 v=0
62112 On ch=10 n=38 v=117
62112 On ch=10 n=44 v=127
62112 On ch=10 n=81 v=93
62137 On ch=10 n=44 v=0
62140 On ch=10 n=38 v=0
62144 On ch=10 n=81 v=0
62208 On ch=10 n=36 v=117
62208 On ch=10 n=44 v=127
62208 On ch=10 n=80 v=102
62229 On ch=10 n=44 v=0
62237 On ch=10 n=36 v=0
62238 On ch=10 n=80 v=0
62256 On ch=10 n=44 v=127
62283 On ch=10 n=44 v=0
62304 On ch=10 n=81 v=102
62337 On ch=10 n=81 v=0
62352 On ch=10 n=38 v=114
62352 On ch=10 n=44 v=127
62372 On ch=10 n=44 v=0
62379 On ch=10 n=38 v=0
62400 On ch=10 n=36 v=117
62400 ChPr ch=10 v=127
62400 ChPr ch=10 v=13
62400 On ch=10 n=44 v=117
62400 On ch=10 n=80 v=108
62425 On ch=10 n=44 v=0
62430 On ch=10 n=80 v=0
62436 On ch=10 n=36 v=0
62448 ChPr ch=10 v=0
62448 On ch=10 n=44 v=127
62473 On ch=10 n=44 v=0
62496 On ch=10 n=38 v=117
62496 ChPr ch=10 v=23
62496 On ch=10 n=44 v=127
62496 On ch=10 n=81 v=96
62524 On ch=10 n=38 v=0
62526 On ch=10 n=44 v=0
62529 On ch=10 n=81 v=0
62544 ChPr ch=10 v=0
62592 On ch=10 n=36 v=117
62592 ChPr ch=10 v=127
62592 On ch=10 n=44 v=127
62592 On ch=10 n=80 v=108
62615 On ch=10 n=44 v=0
62623 On ch=10 n=36 v=0
62623 On ch=10 n=80 v=0
62640 ChPr ch=10 v=0
62640 On ch=10 n=44 v=127
62667 On ch=10 n=44 v=0
62688 On ch=10 n=81 v=105
62720 On ch=10 n=81 v=0
62736 On ch=10 n=38 v=117
62736 On ch=10 n=44 v=127
62759 On ch=10 n=44 v=0
62764 On ch=10 n=38 v=0
62784 On ch=10 n=36 v=117
62784 ChPr ch=10 v=55
62784 On ch=10 n=44 v=117
62784 On ch=10 n=80 v=108
62811 On ch=10 n=44 v=0
62814 On ch=10 n=80 v=0
62820 On ch=10 n=36 v=0
62832 ChPr ch=10 v=15
62832 ChPr ch=10 v=0
62832 On ch=10 n=44 v=127
62857 On ch=10 n=44 v=0
62880 On ch=10 n=38 v=123
62880 ChPr ch=10 v=21
62880 On ch=10 n=44 v=127
62880 On ch=10 n=81 v=102
62905 On ch=10 n=44 v=0
62909 On ch=10 n=38 v=0
62912 On ch=10 n=81 v=0
62928 ChPr ch=10 v=0
62976 On ch=10 n=36 v=123
62976 ChPr ch=10 v=127
62976 On ch=10 n=44 v=127
62976 On ch=10 n=80 v=108
62997 On ch=10 n=44 v=0
63004 On ch=10 n=80 v=0
63009 On ch=10 n=36 v=0
63024 ChPr ch=10 v=0
63024 On ch=10 n=44 v=127
63051 On ch=10 n=44 v=0
63072 On ch=10 n=81 v=105
63103 On ch=10 n=81 v=0
63120 On ch=10 n=38 v=117
63120 On ch=10 n=44 v=127
63140 On ch=10 n=44 v=0
63149 On ch=10 n=38 v=0
63168 On ch=10 n=36 v=117
63168 ChPr ch=10 v=21
63168 On ch=10 n=44 v=117
63168 On ch=10 n=80 v=108
63193 On ch=10 n=44 v=0
63197 On ch=10 n=80 v=0
63201 On ch=10 n=36 v=0
63216 ChPr ch=10 v=0
63216 On ch=10 n=44 v=127
63241 On ch=10 n=44 v=0
63264 On ch=10 n=38 v=114
63264 On ch=10 n=44 v=127
63264 On ch=10 n=81 v=102
63292 On ch=10 n=38 v=0
63294 On ch=10 n=44 v=0
63295 On ch=10 n=81 v=0
63360 On ch=10 n=36 v=123
63360 On ch=10 n=44 v=127
63360 On ch=10 n=80 v=114
63383 On ch=10 n=44 v=0
63390 On ch=10 n=80 v=0
63393 On ch=10 n=36 v=0
63408 ChPr ch=10 v=8
63408 ChPr ch=10 v=0
63408 On ch=10 n=44 v=127
63435 On ch=10 n=44 v=0
63456 On ch=10 n=81 v=105
63487 On ch=10 n=81 v=0
63504 On ch=10 n=38 v=117
63504 On ch=10 n=44 v=127
63527 On ch=10 n=44 v=0
63531 On ch=10 n=38 v=0
63552 On ch=10 n=36 v=117
63552 ChPr ch=10 v=67
63552 On ch=10 n=44 v=117
63552 On ch=10 n=80 v=117
63579 On ch=10 n=44 v=0
63581 On ch=10 n=80 v=0
63587 On ch=10 n=36 v=0
63600 ChPr ch=10 v=0
63600 On ch=10 n=44 v=127
63625 On ch=10 n=44 v=0
63648 On ch=10 n=38 v=114
63648 On ch=10 n=44 v=127
63648 On ch=10 n=81 v=108
63673 On ch=10 n=44 v=0
63674 On ch=10 n=38 v=0
63679 On ch=10 n=81 v=0
63744 On ch=10 n=36 v=117
63744 On ch=10 n=44 v=127
63744 On ch=10 n=80 v=127
63765 On ch=10 n=44 v=0
63775 On ch=10 n=80 v=0
63779 On ch=10 n=36 v=0
63792 On ch=10 n=44 v=127
63819 On ch=10 n=44 v=0
63840 On ch=10 n=81 v=108
63871 On ch=10 n=81 v=0
63888 On ch=10 n=38 v=114
63888 On ch=10 n=44 v=127
63908 On ch=10 n=44 v=0
63915 On ch=10 n=38 v=0
63936 On ch=10 n=36 v=117
63936 On ch=10 n=44 v=117
63936 On ch=10 n=80 v=108
63961 On ch=10 n=44 v=0
63966 On ch=10 n=80 v=0
63967 On ch=10 n=36 v=0
63984 On ch=10 n=44 v=127
64009 On ch=10 n=44 v=0
64032 On ch=10 n=38 v=123
64032 ChPr ch=10 v=22
64032 On ch=10 n=44 v=127
64032 On ch=10 n=81 v=108
64058 On ch=10 n=38 v=0
64062 On ch=10 n=44 v=0
64064 On ch=10 n=81 v=0
64080 ChPr ch=10 v=0
64128 On ch=10 n=36 v=117
64128 On ch=10 n=44 v=127
64128 On ch=10 n=80 v=108
64151 On ch=10 n=44 v=0
64154 On ch=10 n=36 v=0
64158 On ch=10 n=80 v=0
64176 On ch=10 n=44 v=127
64203 On ch=10 n=44 v=0
64224 On ch=10 n=81 v=105
64258 On ch=10 n=81 v=0
64272 On ch=10 n=38 v=117
64272 On ch=10 n=44 v=127
64295 On ch=10 n=44 v=0
64299 On ch=10 n=38 v=0
64320 On ch=10 n=36 v=117
64320 On ch=10 n=44 v=117
64320 On ch=10 n=80 v=108
64347 On ch=10 n=44 v=0
64349 On ch=10 n=80 v=0
64353 On ch=10 n=36 v=0
64368 On ch=10 n=44 v=127
64393 On ch=10 n=44 v=0
64416 On ch=10 n=38 v=117
64416 On ch=10 n=44 v=127
64416 On ch=10 n=81 v=108
64441 On ch=10 n=44 v=0
64444 On ch=10 n=38 v=0
64447 On ch=10 n=81 v=0
64512 On ch=10 n=36 v=117
64512 On ch=10 n=44 v=127
64512 On ch=10 n=80 v=114
64512 On ch=10 n=87 v=127
64512 On ch=10 n=57 v=123
64533 On ch=10 n=44 v=0
64536 On ch=10 n=87 v=0
64536 On ch=10 n=57 v=0
64541 On ch=10 n=36 v=0
64543 On ch=10 n=80 v=0
64560 On ch=10 n=44 v=127
64587 On ch=10 n=44 v=0
64608 On ch=10 n=81 v=108
64639 On ch=10 n=81 v=0
64656 On ch=10 n=38 v=114
64656 On ch=10 n=44 v=127
64676 On ch=10 n=44 v=0
64683 On ch=10 n=38 v=0
64704 On ch=10 n=36 v=117
64704 ChPr ch=10 v=127
64704 ChPr ch=10 v=13
64704 On ch=10 n=44 v=117
64704 On ch=10 n=80 v=114
64729 On ch=10 n=44 v=0
64737 On ch=10 n=80 v=0
64740 On ch=10 n=36 v=0
64752 ChPr ch=10 v=0
64752 On ch=10 n=44 v=127
64777 On ch=10 n=44 v=0
64800 On ch=10 n=38 v=117
64800 ChPr ch=10 v=23
64800 On ch=10 n=44 v=127
64800 On ch=10 n=81 v=105
64828 On ch=10 n=38 v=0
64830 On ch=10 n=44 v=0
64831 On ch=10 n=81 v=0
64848 ChPr ch=10 v=0
64896 On ch=10 n=36 v=117
64896 ChPr ch=10 v=127
64896 On ch=10 n=44 v=127
64896 On ch=10 n=80 v=108
64919 On ch=10 n=44 v=0
64927 On ch=10 n=36 v=0
64927 On ch=10 n=80 v=0
64944 ChPr ch=10 v=0
64944 On ch=10 n=44 v=127
64971 On ch=10 n=44 v=0
64992 On ch=10 n=81 v=108
65023 On ch=10 n=81 v=0
65040 On ch=10 n=38 v=117
65040 On ch=10 n=44 v=127
65063 On ch=10 n=44 v=0
65068 On ch=10 n=38 v=0
65088 On ch=10 n=36 v=117
65088 ChPr ch=10 v=55
65088 On ch=10 n=44 v=117
65088 On ch=10 n=80 v=114
65115 On ch=10 n=44 v=0
65120 On ch=10 n=80 v=0
65124 On ch=10 n=36 v=0
65136 ChPr ch=10 v=15
65136 ChPr ch=10 v=0
65136 On ch=10 n=44 v=127
65161 On ch=10 n=44 v=0
65184 On ch=10 n=38 v=123
65184 ChPr ch=10 v=21
65184 On ch=10 n=44 v=127
65184 On ch=10 n=81 v=108
65209 On ch=10 n=44 v=0
65213 On ch=10 n=38 v=0
65216 On ch=10 n=81 v=0
65232 ChPr ch=10 v=0
65280 On ch=10 n=36 v=117
65280 On ch=10 n=44 v=127
65280 On ch=10 n=80 v=114
65301 On ch=10 n=44 v=0
65311 On ch=10 n=80 v=0
65315 On ch=10 n=36 v=0
65328 On ch=10 n=44 v=127
65355 On ch=10 n=44 v=0
65376 On ch=10 n=81 v=105
65407 On ch=10 n=81 v=0
65424 On ch=10 n=38 v=114
65424 On ch=10 n=44 v=127
65444 On ch=10 n=44 v=0
65451 On ch=10 n=38 v=0
65472 On ch=10 n=36 v=117
65472 On ch=10 n=44 v=117
65472 On ch=10 n=80 v=114
65497 On ch=10 n=44 v=0
65502 On ch=10 n=80 v=0
65503 On ch=10 n=36 v=0
65520 On ch=10 n=44 v=127
65545 On ch=10 n=44 v=0
65568 On ch=10 n=38 v=123
65568 ChPr ch=10 v=22
65568 On ch=10 n=44 v=127
65568 On ch=10 n=81 v=108
65594 On ch=10 n=38 v=0
65598 On ch=10 n=44 v=0
65599 On ch=10 n=81 v=0
65616 ChPr ch=10 v=0
65664 On ch=10 n=36 v=117
65664 On ch=10 n=44 v=127
65664 On ch=10 n=80 v=114
65687 On ch=10 n=44 v=0
65690 On ch=10 n=36 v=0
65694 On ch=10 n=80 v=0
65712 On ch=10 n=44 v=127
65739 On ch=10 n=44 v=0
65760 On ch=10 n=81 v=108
65790 On ch=10 n=81 v=0
65808 On ch=10 n=38 v=117
65808 On ch=10 n=44 v=127
65831 On ch=10 n=44 v=0
65835 On ch=10 n=38 v=0
65856 On ch=10 n=36 v=117
65856 On ch=10 n=44 v=117
65856 On ch=10 n=80 v=117
65883 On ch=10 n=44 v=0
65884 On ch=10 n=80 v=0
65889 On ch=10 n=36 v=0
65904 On ch=10 n=44 v=127
65929 On ch=10 n=44 v=0
65952 On ch=10 n=38 v=117
65952 On ch=10 n=44 v=127
65952 On ch=10 n=81 v=108
65977 On ch=10 n=44 v=0
65980 On ch=10 n=38 v=0
65981 On ch=10 n=81 v=0
66048 On ch=10 n=36 v=117
66048 On ch=10 n=44 v=127
66048 On ch=10 n=80 v=114
66069 On ch=10 n=44 v=0
66077 On ch=10 n=80 v=0
66077 On ch=10 n=36 v=0
66096 On ch=10 n=44 v=127
66123 On ch=10 n=44 v=0
66144 On ch=10 n=81 v=111
66174 On ch=10 n=81 v=0
66192 On ch=10 n=38 v=114
66192 On ch=10 n=44 v=127
66212 On ch=10 n=44 v=0
66219 On ch=10 n=38 v=0
66240 On ch=10 n=36 v=117
66240 ChPr ch=10 v=127
66240 ChPr ch=10 v=13
66240 On ch=10 n=44 v=117
66240 On ch=10 n=80 v=108
66265 On ch=10 n=44 v=0
66270 On ch=10 n=80 v=0
66276 On ch=10 n=36 v=0
66288 ChPr ch=10 v=0
66288 On ch=10 n=44 v=127
66313 On ch=10 n=44 v=0
66336 On ch=10 n=38 v=117
66336 ChPr ch=10 v=23
66336 On ch=10 n=44 v=127
66336 On ch=10 n=81 v=111
66364 On ch=10 n=38 v=0
66366 On ch=10 n=44 v=0
66366 On ch=10 n=81 v=0
66384 ChPr ch=10 v=0
66432 On ch=10 n=36 v=117
66432 ChPr ch=10 v=127
66432 On ch=10 n=44 v=127
66432 On ch=10 n=80 v=114
66455 On ch=10 n=44 v=0
66462 On ch=10 n=80 v=0
66463 On ch=10 n=36 v=0
66480 ChPr ch=10 v=0
66480 On ch=10 n=44 v=127
66507 On ch=10 n=44 v=0
66528 On ch=10 n=81 v=111
66558 On ch=10 n=81 v=0
66576 On ch=10 n=38 v=117
66576 On ch=10 n=44 v=127
66599 On ch=10 n=44 v=0
66604 On ch=10 n=38 v=0
66624 On ch=10 n=36 v=117
66624 ChPr ch=10 v=55
66624 On ch=10 n=44 v=117
66624 On ch=10 n=80 v=114
66651 On ch=10 n=44 v=0
66654 On ch=10 n=80 v=0
66660 On ch=10 n=36 v=0
66672 ChPr ch=10 v=15
66672 ChPr ch=10 v=0
66672 On ch=10 n=44 v=127
66697 On ch=10 n=44 v=0
66720 On ch=10 n=38 v=123
66720 ChPr ch=10 v=21
66720 On ch=10 n=44 v=127
66720 On ch=10 n=81 v=108
66745 On ch=10 n=44 v=0
66749 On ch=10 n=38 v=0
66750 On ch=10 n=81 v=0
66768 ChPr ch=10 v=0
66816 On ch=10 n=36 v=117
66816 ChPr ch=10 v=127
66816 On ch=10 n=87 v=127
66816 ChPr ch=10 v=0
66836 Off ch=10 n=87 v=0
66845 Off ch=10 n=36 v=0
67584 On ch=10 n=36 v=117
67584 On ch=10 n=44 v=127
67584 On ch=10 n=80 v=114
67584 On ch=10 n=87 v=127
67584 On ch=10 n=49 v=117
67604 On ch=10 n=49 v=0
67605 On ch=10 n=44 v=0
67605 On ch=10 n=87 v=0
67615 On ch=10 n=80 v=0
67619 On ch=10 n=36 v=0
67632 On ch=10 n=44 v=127
67659 On ch=10 n=44 v=0
67680 On ch=10 n=81 v=105
67713 On ch=10 n=81 v=0
67728 On ch=10 n=38 v=114
67728 On ch=10 n=44 v=127
67748 On ch=10 n=44 v=0
67755 On ch=10 n=38 v=0
67776 On ch=10 n=36 v=117
67776 On ch=10 n=44 v=117
67776 On ch=10 n=80 v=108
67801 On ch=10 n=44 v=0
67804 On ch=10 n=80 v=0
67807 On ch=10 n=36 v=0
67824 On ch=10 n=44 v=127
67849 On ch=10 n=44 v=0
67872 On ch=10 n=38 v=123
67872 ChPr ch=10 v=22
67872 On ch=10 n=44 v=127
67872 On ch=10 n=81 v=96
67898 On ch=10 n=38 v=0
67901 On ch=10 n=81 v=0
67902 On ch=10 n=44 v=0
67920 ChPr ch=10 v=0
67968 On ch=10 n=36 v=117
67968 On ch=10 n=44 v=127
67968 On ch=10 n=80 v=108
67991 On ch=10 n=44 v=0
67994 On ch=10 n=36 v=0
67995 On ch=10 n=80 v=0
68016 On ch=10 n=44 v=127
68043 On ch=10 n=44 v=0
68064 On ch=10 n=81 v=93
68095 On ch=10 n=81 v=0
68112 On ch=10 n=38 v=117
68112 On ch=10 n=44 v=127
68135 On ch=10 n=44 v=0
68139 On ch=10 n=38 v=0
68160 On ch=10 n=36 v=117
68160 On ch=10 n=44 v=117
68160 On ch=10 n=80 v=102
68187 On ch=10 n=44 v=0
68188 On ch=10 n=80 v=0
68193 On ch=10 n=36 v=0
68208 On ch=10 n=44 v=127
68233 On ch=10 n=44 v=0
68256 On ch=10 n=38 v=117
68256 On ch=10 n=44 v=127
68256 On ch=10 n=81 v=93
68281 On ch=10 n=44 v=0
68284 On ch=10 n=38 v=0
68288 On ch=10 n=81 v=0
68352 On ch=10 n=36 v=117
68352 On ch=10 n=44 v=127
68352 On ch=10 n=80 v=102
68373 On ch=10 n=44 v=0
68381 On ch=10 n=36 v=0
68382 On ch=10 n=80 v=0
68400 On ch=10 n=44 v=127
68427 On ch=10 n=44 v=0
68448 On ch=10 n=81 v=102
68481 On ch=10 n=81 v=0
68496 On ch=10 n=38 v=114
68496 On ch=10 n=44 v=127
68516 On ch=10 n=44 v=0
68523 On ch=10 n=38 v=0
68544 On ch=10 n=36 v=117
68544 ChPr ch=10 v=127
68544 ChPr ch=10 v=13
68544 On ch=10 n=44 v=117
68544 On ch=10 n=80 v=108
68569 On ch=10 n=44 v=0
68574 On ch=10 n=80 v=0
68580 On ch=10 n=36 v=0
68592 ChPr ch=10 v=0
68592 On ch=10 n=44 v=127
68617 On ch=10 n=44 v=0
68640 On ch=10 n=38 v=117
68640 ChPr ch=10 v=23
68640 On ch=10 n=44 v=127
68640 On ch=10 n=81 v=96
68668 On ch=10 n=38 v=0
68670 On ch=10 n=44 v=0
68673 On ch=10 n=81 v=0
68688 ChPr ch=10 v=0
68736 On ch=10 n=36 v=117
68736 ChPr ch=10 v=127
68736 On ch=10 n=44 v=127
68736 On ch=10 n=80 v=108
68759 On ch=10 n=44 v=0
68767 On ch=10 n=80 v=0
68767 On ch=10 n=36 v=0
68784 ChPr ch=10 v=0
68784 On ch=10 n=44 v=127
68811 On ch=10 n=44 v=0
68832 On ch=10 n=81 v=105
68864 On ch=10 n=81 v=0
68880 On ch=10 n=38 v=117
68880 On ch=10 n=44 v=127
68903 On ch=10 n=44 v=0
68908 On ch=10 n=38 v=0
68928 On ch=10 n=36 v=117
68928 ChPr ch=10 v=55
68928 On ch=10 n=44 v=117
68928 On ch=10 n=80 v=108
68955 On ch=10 n=44 v=0
68958 On ch=10 n=80 v=0
68964 On ch=10 n=36 v=0
68976 ChPr ch=10 v=15
68976 ChPr ch=10 v=0
68976 On ch=10 n=44 v=127
69001 On ch=10 n=44 v=0
69024 On ch=10 n=38 v=123
69024 ChPr ch=10 v=21
69024 On ch=10 n=44 v=127
69024 On ch=10 n=81 v=102
69049 On ch=10 n=44 v=0
69053 On ch=10 n=38 v=0
69056 On ch=10 n=81 v=0
69072 ChPr ch=10 v=0
69120 On ch=10 n=36 v=123
69120 ChPr ch=10 v=127
69120 On ch=10 n=44 v=127
69120 On ch=10 n=80 v=108
69141 On ch=10 n=44 v=0
69148 On ch=10 n=80 v=0
69153 On ch=10 n=36 v=0
69168 ChPr ch=10 v=0
69168 On ch=10 n=44 v=127
69195 On ch=10 n=44 v=0
69216 On ch=10 n=81 v=105
69247 On ch=10 n=81 v=0
69264 On ch=10 n=38 v=117
69264 On ch=10 n=44 v=127
69284 On ch=10 n=44 v=0
69293 On ch=10 n=38 v=0
69312 On ch=10 n=36 v=117
69312 ChPr ch=10 v=21
69312 On ch=10 n=44 v=117
69312 On ch=10 n=80 v=108
69337 On ch=10 n=44 v=0
69341 On ch=10 n=80 v=0
69345 On ch=10 n=36 v=0
69360 ChPr ch=10 v=0
69360 On ch=10 n=44 v=127
69385 On ch=10 n=44 v=0
69408 On ch=10 n=38 v=114
69408 On ch=10 n=44 v=127
69408 On ch=10 n=81 v=102
69436 On ch=10 n=38 v=0
69438 On ch=10 n=44 v=0
69439 On ch=10 n=81 v=0
69504 On ch=10 n=36 v=123
69504 On ch=10 n=44 v=127
69504 On ch=10 n=80 v=114
69527 On ch=10 n=44 v=0
69534 On ch=10 n=80 v=0
69537 On ch=10 n=36 v=0
69552 ChPr ch=10 v=8
69552 ChPr ch=10 v=0
69552 On ch=10 n=44 v=127
69579 On ch=10 n=44 v=0
69600 On ch=10 n=81 v=105
69631 On ch=10 n=81 v=0
69648 On ch=10 n=38 v=117
69648 On ch=10 n=44 v=127
69671 On ch=10 n=44 v=0
69675 On ch=10 n=38 v=0
69696 On ch=10 n=36 v=117
69696 ChPr ch=10 v=67
69696 On ch=10 n=44 v=117
69696 On ch=10 n=80 v=117
69723 On ch=10 n=44 v=0
69725 On ch=10 n=80 v=0
69731 On ch=10 n=36 v=0
69744 ChPr ch=10 v=0
69744 On ch=10 n=44 v=127
69769 On ch=10 n=44 v=0
69792 On ch=10 n=38 v=114
69792 On ch=10 n=44 v=127
69792 On ch=10 n=81 v=108
69817 On ch=10 n=44 v=0
69818 On ch=10 n=38 v=0
69823 On ch=10 n=81 v=0
69888 On ch=10 n=36 v=117
69888 On ch=10 n=44 v=127
69888 On ch=10 n=80 v=127
69909 On ch=10 n=44 v=0
69919 On ch=10 n=80 v=0
69923 On ch=10 n=36 v=0
69936 On ch=10 n=44 v=127
69963 On ch=10 n=44 v=0
69984 On ch=10 n=81 v=108
70015 On ch=10 n=81 v=0
70032 On ch=10 n=38 v=114
70032 On ch=10 n=44 v=127
70052 On ch=10 n=44 v=0
70059 On ch=10 n=38 v=0
70080 On ch=10 n=36 v=117
70080 On ch=10 n=44 v=117
70080 On ch=10 n=80 v=108
70105 On ch=10 n=44 v=0
70110 On ch=10 n=80 v=0
70111 On ch=10 n=36 v=0
70128 On ch=10 n=44 v=127
70153 On ch=10 n=44 v=0
70176 On ch=10 n=38 v=123
70176 ChPr ch=10 v=22
70176 On ch=10 n=44 v=127
70176 On ch=10 n=81 v=108
70202 On ch=10 n=38 v=0
70206 On ch=10 n=44 v=0
70208 On ch=10 n=81 v=0
70224 ChPr ch=10 v=0
70272 On ch=10 n=36 v=117
70272 On ch=10 n=44 v=127
70272 On ch=10 n=80 v=108
70295 On ch=10 n=44 v=0
70298 On ch=10 n=36 v=0
70302 On ch=10 n=80 v=0
70320 On ch=10 n=44 v=127
70347 On ch=10 n=44 v=0
70368 On ch=10 n=81 v=105
70402 On ch=10 n=81 v=0
70416 On ch=10 n=38 v=117
70416 On ch=10 n=44 v=127
70439 On ch=10 n=44 v=0
70443 On ch=10 n=38 v=0
70464 On ch=10 n=36 v=117
70464 On ch=10 n=44 v=117
70464 On ch=10 n=80 v=108
70491 On ch=10 n=44 v=0
70493 On ch=10 n=80 v=0
70497 On ch=10 n=36 v=0
70512 On ch=10 n=44 v=127
70537 On ch=10 n=44 v=0
70560 On ch=10 n=38 v=117
70560 On ch=10 n=44 v=127
70560 On ch=10 n=81 v=108
70585 On ch=10 n=44 v=0
70588 On ch=10 n=38 v=0
70591 On ch=10 n=81 v=0
70656 On ch=10 n=36 v=117
70656 On ch=10 n=44 v=127
70656 On ch=10 n=80 v=114
70656 On ch=10 n=87 v=127
70656 On ch=10 n=57 v=123
70677 On ch=10 n=44 v=0
70680 On ch=10 n=87 v=0
70680 On ch=10 n=57 v=0
70685 On ch=10 n=36 v=0
70687 On ch=10 n=80 v=0
70704 On ch=10 n=44 v=127
70731 On ch=10 n=44 v=0
70752 On ch=10 n=81 v=108
70783 On ch=10 n=81 v=0
70800 On ch=10 n=38 v=114
70800 On ch=10 n=44 v=127
70820 On ch=10 n=44 v=0
70827 On ch=10 n=38 v=0
70848 On ch=10 n=36 v=117
70848 ChPr ch=10 v=127
70848 ChPr ch=10 v=13
70848 On ch=10 n=44 v=117
70848 On ch=10 n=80 v=114
70873 On ch=10 n=44 v=0
70881 On ch=10 n=80 v=0
70884 On ch=10 n=36 v=0
70896 ChPr ch=10 v=0
70896 On ch=10 n=44 v=127
70921 On ch=10 n=44 v=0
70944 On ch=10 n=38 v=117
70944 ChPr ch=10 v=23
70944 On ch=10 n=44 v=127
70944 On ch=10 n=81 v=105
70972 On ch=10 n=38 v=0
70974 On ch=10 n=44 v=0
70975 On ch=10 n=81 v=0
70992 ChPr ch=10 v=0
71040 On ch=10 n=36 v=117
71040 ChPr ch=10 v=127
71040 On ch=10 n=44 v=127
71040 On ch=10 n=80 v=108
71063 On ch=10 n=44 v=0
71071 On ch=10 n=80 v=0
71071 On ch=10 n=36 v=0
71088 ChPr ch=10 v=0
71088 On ch=10 n=44 v=127
71115 On ch=10 n=44 v=0
71136 On ch=10 n=81 v=108
71167 On ch=10 n=81 v=0
71184 On ch=10 n=38 v=117
71184 On ch=10 n=44 v=127
71207 On ch=10 n=44 v=0
71212 On ch=10 n=38 v=0
71232 On ch=10 n=36 v=117
71232 ChPr ch=10 v=55
71232 On ch=10 n=44 v=117
71232 On ch=10 n=80 v=114
71259 On ch=10 n=44 v=0
71264 On ch=10 n=80 v=0
71268 On ch=10 n=36 v=0
71280 ChPr ch=10 v=15
71280 ChPr ch=10 v=0
71280 On ch=10 n=44 v=127
71305 On ch=10 n=44 v=0
71328 On ch=10 n=38 v=123
71328 ChPr ch=10 v=21
71328 On ch=10 n=44 v=127
71328 On ch=10 n=81 v=108
71353 On ch=10 n=44 v=0
71357 On ch=10 n=38 v=0
71360 On ch=10 n=81 v=0
71376 ChPr ch=10 v=0
71424 On ch=10 n=36 v=117
71424 On ch=10 n=44 v=127
71424 On ch=10 n=80 v=114
71445 On ch=10 n=44 v=0
71455 On ch=10 n=80 v=0
71459 On ch=10 n=36 v=0
71472 On ch=10 n=44 v=127
71499 On ch=10 n=44 v=0
71520 On ch=10 n=81 v=105
71551 On ch=10 n=81 v=0
71568 On ch=10 n=38 v=114
71568 On ch=10 n=44 v=127
71588 On ch=10 n=44 v=0
71595 On ch=10 n=38 v=0
71616 On ch=10 n=36 v=117
71616 On ch=10 n=44 v=117
71616 On ch=10 n=80 v=114
71641 On ch=10 n=44 v=0
71646 On ch=10 n=80 v=0
71647 On ch=10 n=36 v=0
71664 On ch=10 n=44 v=127
71689 On ch=10 n=44 v=0
71712 On ch=10 n=38 v=123
71712 ChPr ch=10 v=22
71712 On ch=10 n=44 v=127
71712 On ch=10 n=81 v=108
71738 On ch=10 n=38 v=0
71742 On ch=10 n=44 v=0
71743 On ch=10 n=81 v=0
71760 ChPr ch=10 v=0
71808 On ch=10 n=36 v=117
71808 On ch=10 n=44 v=127
71808 On ch=10 n=80 v=114
71831 On ch=10 n=44 v=0
71834 On ch=10 n=36 v=0
71838 On ch=10 n=80 v=0
71856 On ch=10 n=44 v=127
71883 On ch=10 n=44 v=0
71904 On ch=10 n=81 v=108
71934 On ch=10 n=81 v=0
71952 On ch=10 n=38 v=117
71952 On ch=10 n=44 v=127
71975 On ch=10 n=44 v=0
71979 On ch=10 n=38 v=0
72000 On ch=10 n=36 v=117
72000 On ch=10 n=44 v=117
72000 On ch=10 n=80 v=117
72027 On ch=10 n=44 v=0
72028 On ch=10 n=80 v=0
72033 On ch=10 n=36 v=0
72048 On ch=10 n=44 v=127
72073 On ch=10 n=44 v=0
72096 On ch=10 n=38 v=117
72096 On ch=10 n=44 v=127
72096 On ch=10 n=81 v=108
72121 On ch=10 n=44 v=0
72124 On ch=10 n=38 v=0
72125 On ch=10 n=81 v=0
72192 On ch=10 n=36 v=117
72192 On ch=10 n=44 v=127
72192 On ch=10 n=80 v=114
72213 On ch=10 n=44 v=0
72221 On ch=10 n=36 v=0
72221 On ch=10 n=80 v=0
72240 On ch=10 n=44 v=127
72267 On ch=10 n=44 v=0
72288 On ch=10 n=81 v=111
72318 On ch=10 n=81 v=0
72336 On ch=10 n=38 v=114
72336 On ch=10 n=44 v=127
72356 On ch=10 n=44 v=0
72363 On ch=10 n=38 v=0
72384 On ch=10 n=36 v=117
72384 ChPr ch=10 v=127
72384 ChPr ch=10 v=13
72384 On ch=10 n=44 v=117
72384 On ch=10 n=80 v=108
72409 On ch=10 n=44 v=0
72414 On ch=10 n=80 v=0
72420 On ch=10 n=36 v=0
72432 ChPr ch=10 v=0
72432 On ch=10 n=44 v=127
72457 On ch=10 n=44 v=0
72480 On ch=10 n=38 v=117
72480 ChPr ch=10 v=23
72480 On ch=10 n=44 v=127
72480 On ch=10 n=81 v=111
72508 On ch=10 n=38 v=0
72510 On ch=10 n=44 v=0
72510 On ch=10 n=81 v=0
72528 ChPr ch=10 v=0
72576 On ch=10 n=36 v=117
72576 ChPr ch=10 v=127
72576 On ch=10 n=44 v=127
72576 On ch=10 n=80 v=114
72599 On ch=10 n=44 v=0
72606 On ch=10 n=80 v=0
72607 On ch=10 n=36 v=0
72624 ChPr ch=10 v=0
72624 On ch=10 n=44 v=127
72651 On ch=10 n=44 v=0
72672 On ch=10 n=81 v=111
72702 On ch=10 n=81 v=0
72720 On ch=10 n=38 v=117
72720 On ch=10 n=44 v=127
72743 On ch=10 n=44 v=0
72748 On ch=10 n=38 v=0
72768 On ch=10 n=36 v=117
72768 ChPr ch=10 v=55
72768 On ch=10 n=44 v=117
72768 On ch=10 n=80 v=114
72795 On ch=10 n=44 v=0
72798 On ch=10 n=80 v=0
72804 On ch=10 n=36 v=0
72816 ChPr ch=10 v=15
72816 ChPr ch=10 v=0
72816 On ch=10 n=44 v=127
72841 On ch=10 n=44 v=0
72864 On ch=10 n=38 v=123
72864 ChPr ch=10 v=21
72864 On ch=10 n=44 v=127
72864 On ch=10 n=81 v=108
72889 On ch=10 n=44 v=0
72893 On ch=10 n=38 v=0
72894 On ch=10 n=81 v=0
72912 ChPr ch=10 v=0
72960 On ch=10 n=36 v=123
72960 ChPr ch=10 v=127
72960 On ch=10 n=44 v=127
72960 On ch=10 n=80 v=114
72981 On ch=10 n=44 v=0
72989 On ch=10 n=80 v=0
72993 On ch=10 n=36 v=0
73008 ChPr ch=10 v=0
73008 On ch=10 n=44 v=127
73035 On ch=10 n=44 v=0
73056 On ch=10 n=81 v=105
73086 On ch=10 n=81 v=0
73104 On ch=10 n=38 v=117
73104 On ch=10 n=44 v=127
73124 On ch=10 n=44 v=0
73133 On ch=10 n=38 v=0
73152 On ch=10 n=36 v=117
73152 ChPr ch=10 v=21
73152 On ch=10 n=44 v=117
73152 On ch=10 n=80 v=108
73177 On ch=10 n=44 v=0
73181 On ch=10 n=80 v=0
73185 On ch=10 n=36 v=0
73200 ChPr ch=10 v=0
73200 On ch=10 n=44 v=127
73225 On ch=10 n=44 v=0
73248 On ch=10 n=38 v=114
73248 On ch=10 n=44 v=127
73248 On ch=10 n=81 v=105
73276 On ch=10 n=38 v=0
73278 On ch=10 n=44 v=0
73278 On ch=10 n=81 v=0
73344 On ch=10 n=36 v=123
73344 On ch=10 n=44 v=127
73344 On ch=10 n=80 v=127
73367 On ch=10 n=44 v=0
73373 On ch=10 n=80 v=0
73377 On ch=10 n=36 v=0
73392 ChPr ch=10 v=8
73392 ChPr ch=10 v=0
73392 On ch=10 n=44 v=127
73419 On ch=10 n=44 v=0
73440 On ch=10 n=81 v=105
73470 On ch=10 n=81 v=0
73488 On ch=10 n=38 v=117
73488 On ch=10 n=44 v=127
73511 On ch=10 n=44 v=0
73515 On ch=10 n=38 v=0
73536 On ch=10 n=36 v=117
73536 ChPr ch=10 v=67
73536 On ch=10 n=44 v=117
73536 On ch=10 n=80 v=117
73563 On ch=10 n=44 v=0
73566 On ch=10 n=80 v=0
73571 On ch=10 n=36 v=0
73584 ChPr ch=10 v=0
73584 On ch=10 n=44 v=127
73609 On ch=10 n=44 v=0
73632 On ch=10 n=38 v=114
73632 On ch=10 n=44 v=127
73632 On ch=10 n=81 v=108
73657 On ch=10 n=81 v=0
73657 On ch=10 n=44 v=0
73658 On ch=10 n=38 v=0
73728 On ch=10 n=36 v=117
73728 On ch=10 n=44 v=127
73728 On ch=10 n=80 v=114
73728 On ch=10 n=87 v=127
73728 On ch=10 n=49 v=117
73748 On ch=10 n=49 v=0
73749 On ch=10 n=44 v=0
73749 On ch=10 n=87 v=0
73759 On ch=10 n=80 v=0
73763 On ch=10 n=36 v=0
73776 On ch=10 n=44 v=127
73803 On ch=10 n=44 v=0
73824 On ch=10 n=81 v=105
73857 On ch=10 n=81 v=0
73872 On ch=10 n=38 v=114
73872 On ch=10 n=44 v=127
73892 On ch=10 n=44 v=0
73899 On ch=10 n=38 v=0
73920 On ch=10 n=36 v=117
73920 On ch=10 n=44 v=117
73920 On ch=10 n=80 v=108
73945 On ch=10 n=44 v=0
73948 On ch=10 n=80 v=0
73951 On ch=10 n=36 v=0
73968 On ch=10 n=44 v=127
73993 On ch=10 n=44 v=0
74016 On ch=10 n=38 v=123
74016 ChPr ch=10 v=22
74016 On ch=10 n=44 v=127
74016 On ch=10 n=81 v=96
74042 On ch=10 n=38 v=0
74045 On ch=10 n=81 v=0
74046 On ch=10 n=44 v=0
74064 ChPr ch=10 v=0
74112 On ch=10 n=36 v=117
74112 On ch=10 n=44 v=127
74112 On ch=10 n=80 v=108
74135 On ch=10 n=44 v=0
74138 On ch=10 n=36 v=0
74139 On ch=10 n=80 v=0
74160 On ch=10 n=44 v=127
74187 On ch=10 n=44 v=0
74208 On ch=10 n=81 v=93
74239 On ch=10 n=81 v=0
74256 On ch=10 n=38 v=117
74256 On ch=10 n=44 v=127
74279 On ch=10 n=44 v=0
74283 On ch=10 n=38 v=0
74304 On ch=10 n=36 v=117
74304 On ch=10 n=44 v=117
74304 On ch=10 n=80 v=102
74331 On ch=10 n=44 v=0
74332 On ch=10 n=80 v=0
74337 On ch=10 n=36 v=0
74352 On ch=10 n=44 v=127
74377 On ch=10 n=44 v=0
74400 On ch=10 n=38 v=117
74400 On ch=10 n=44 v=127
74400 On ch=10 n=81 v=93
74425 On ch=10 n=44 v=0
74428 On ch=10 n=38 v=0
74432 On ch=10 n=81 v=0
74496 On ch=10 n=36 v=117
74496 On ch=10 n=44 v=127
74496 On ch=10 n=80 v=102
74517 On ch=10 n=44 v=0
74525 On ch=10 n=36 v=0
74526 On ch=10 n=80 v=0
74544 On ch=10 n=44 v=127
74571 On ch=10 n=44 v=0
74592 On ch=10 n=81 v=102
74625 On ch=10 n=81 v=0
74640 On ch=10 n=38 v=114
74640 On ch=10 n=44 v=127
74660 On ch=10 n=44 v=0
74667 On ch=10 n=38 v=0
74688 On ch=10 n=36 v=117
74688 ChPr ch=10 v=127
74688 ChPr ch=10 v=13
74688 On ch=10 n=44 v=117
74688 On ch=10 n=80 v=108
74713 On ch=10 n=44 v=0
74718 On ch=10 n=80 v=0
74724 On ch=10 n=36 v=0
74736 ChPr ch=10 v=0
74736 On ch=10 n=44 v=127
74761 On ch=10 n=44 v=0
74784 On ch=10 n=38 v=117
74784 ChPr ch=10 v=23
74784 On ch=10 n=44 v=127
74784 On ch=10 n=81 v=96
74812 On ch=10 n=38 v=0
74814 On ch=10 n=44 v=0
74817 On ch=10 n=81 v=0
74832 ChPr ch=10 v=0
74880 On ch=10 n=36 v=117
74880 ChPr ch=10 v=127
74880 On ch=10 n=44 v=127
74880 On ch=10 n=80 v=108
74903 On ch=10 n=44 v=0
74911 On ch=10 n=36 v=0
74911 On ch=10 n=80 v=0
74928 ChPr ch=10 v=0
74928 On ch=10 n=44 v=127
74955 On ch=10 n=44 v=0
74976 On ch=10 n=81 v=105
75008 On ch=10 n=81 v=0
75024 On ch=10 n=38 v=117
75024 On ch=10 n=44 v=127
75047 On ch=10 n=44 v=0
75052 On ch=10 n=38 v=0
75072 On ch=10 n=36 v=117
75072 ChPr ch=10 v=55
75072 On ch=10 n=44 v=117
75072 On ch=10 n=80 v=108
75099 On ch=10 n=44 v=0
75102 On ch=10 n=80 v=0
75108 On ch=10 n=36 v=0
75120 ChPr ch=10 v=15
75120 ChPr ch=10 v=0
75120 On ch=10 n=44 v=127
75145 On ch=10 n=44 v=0
75168 On ch=10 n=38 v=123
75168 ChPr ch=10 v=21
75168 On ch=10 n=44 v=127
75168 On ch=10 n=81 v=102
75193 On ch=10 n=44 v=0
75197 On ch=10 n=38 v=0
75200 On ch=10 n=81 v=0
75216 ChPr ch=10 v=0
75264 On ch=10 n=36 v=123
75264 ChPr ch=10 v=127
75264 On ch=10 n=44 v=127
75264 On ch=10 n=80 v=108
75285 On ch=10 n=44 v=0
75292 On ch=10 n=80 v=0
75297 On ch=10 n=36 v=0
75312 ChPr ch=10 v=0
75312 On ch=10 n=44 v=127
75339 On ch=10 n=44 v=0
75360 On ch=10 n=81 v=105
75391 On ch=10 n=81 v=0
75408 On ch=10 n=38 v=117
75408 On ch=10 n=44 v=127
75428 On ch=10 n=44 v=0
75437 On ch=10 n=38 v=0
75456 On ch=10 n=36 v=117
75456 ChPr ch=10 v=21
75456 On ch=10 n=44 v=117
75456 On ch=10 n=80 v=108
75481 On ch=10 n=44 v=0
75485 On ch=10 n=80 v=0
75489 On ch=10 n=36 v=0
75504 ChPr ch=10 v=0
75504 On ch=10 n=44 v=127
75529 On ch=10 n=44 v=0
75552 On ch=10 n=38 v=114
75552 On ch=10 n=44 v=127
75552 On ch=10 n=81 v=102
75580 On ch=10 n=38 v=0
75582 On ch=10 n=44 v=0
75583 On ch=10 n=81 v=0
75648 On ch=10 n=36 v=123
75648 On ch=10 n=44 v=127
75648 On ch=10 n=80 v=114
75671 On ch=10 n=44 v=0
75678 On ch=10 n=80 v=0
75681 On ch=10 n=36 v=0
75696 ChPr ch=10 v=8
75696 ChPr ch=10 v=0
75696 On ch=10 n=44 v=127
75723 On ch=10 n=44 v=0
75744 On ch=10 n=81 v=105
75775 On ch=10 n=81 v=0
75792 On ch=10 n=38 v=117
75792 On ch=10 n=44 v=127
75815 On ch=10 n=44 v=0
75819 On ch=10 n=38 v=0
75840 On ch=10 n=36 v=117
75840 ChPr ch=10 v=67
75840 On ch=10 n=44 v=117
75840 On ch=10 n=80 v=117
75867 On ch=10 n=44 v=0
75869 On ch=10 n=80 v=0
75875 On ch=10 n=36 v=0
75888 ChPr ch=10 v=0
75888 On ch=10 n=44 v=127
75913 On ch=10 n=44 v=0
75936 On ch=10 n=38 v=114
75936 On ch=10 n=44 v=127
75936 On ch=10 n=81 v=108
75961 On ch=10 n=44 v=0
75962 On ch=10 n=38 v=0
75967 On ch=10 n=81 v=0
76032 On ch=10 n=36 v=117
76032 On ch=10 n=44 v=127
76032 On ch=10 n=80 v=127
76053 On ch=10 n=44 v=0
76063 On ch=10 n=80 v=0
76067 On ch=10 n=36 v=0
76080 On ch=10 n=44 v=127
76107 On ch=10 n=44 v=0
76128 On ch=10 n=81 v=108
76159 On ch=10 n=81 v=0
76176 On ch=10 n=38 v=114
76176 On ch=10 n=44 v=127
76196 On ch=10 n=44 v=0
76203 On ch=10 n=38 v=0
76224 On ch=10 n=36 v=117
76224 On ch=10 n=44 v=117
76224 On ch=10 n=80 v=108
76249 On ch=10 n=44 v=0
76254 On ch=10 n=80 v=0
76255 On ch=10 n=36 v=0
76272 On ch=10 n=44 v=127
76297 On ch=10 n=44 v=0
76320 On ch=10 n=38 v=123
76320 ChPr ch=10 v=22
76320 On ch=10 n=44 v=127
76320 On ch=10 n=81 v=108
76346 On ch=10 n=38 v=0
76350 On ch=10 n=44 v=0
76352 On ch=10 n=81 v=0
76368 ChPr ch=10 v=0
76416 On ch=10 n=36 v=117
76416 On ch=10 n=44 v=127
76416 On ch=10 n=80 v=108
76439 On ch=10 n=44 v=0
76442 On ch=10 n=36 v=0
76446 On ch=10 n=80 v=0
76464 On ch=10 n=44 v=127
76491 On ch=10 n=44 v=0
76512 On ch=10 n=81 v=105
76546 On ch=10 n=81 v=0
76560 On ch=10 n=38 v=117
76560 On ch=10 n=44 v=127
76583 On ch=10 n=44 v=0
76587 On ch=10 n=38 v=0
76608 On ch=10 n=36 v=117
76608 On ch=10 n=44 v=117
76608 On ch=10 n=80 v=108
76635 On ch=10 n=44 v=0
76637 On ch=10 n=80 v=0
76641 On ch=10 n=36 v=0
76656 On ch=10 n=44 v=127
76681 On ch=10 n=44 v=0
76704 On ch=10 n=38 v=117
76704 On ch=10 n=44 v=127
76704 On ch=10 n=81 v=108
76729 On ch=10 n=44 v=0
76732 On ch=10 n=38 v=0
76735 On ch=10 n=81 v=0
76800 On ch=10 n=36 v=117
76800 On ch=10 n=87 v=127
76800 On ch=10 n=57 v=123
76824 On ch=10 n=57 v=0
76824 On ch=10 n=87 v=0
76833 On ch=10 n=36 v=0
76944 On ch=10 n=36 v=117
76966 On ch=10 n=36 v=0
76992 On ch=10 n=36 v=108
77019 On ch=10 n=36 v=0
77184 On ch=10 n=36 v=123
77212 On ch=10 n=36 v=0
77376 On ch=10 n=36 v=123
77403 On ch=10 n=36 v=0
77568 On ch=10 n=36 v=123
77594 On ch=10 n=36 v=0
77712 On ch=10 n=36 v=117
77736 On ch=10 n=36 v=0
77760 On ch=10 n=36 v=111
77760 ChPr ch=10 v=12
77760 ChPr ch=10 v=28
77789 Off ch=10 n=36 v=0
77808 ChPr ch=10 v=0
77952 On ch=10 n=36 v=117
77975 On ch=10 n=36 v=0
78144 On ch=10 n=36 v=123
78169 On ch=10 n=36 v=0
78336 On ch=10 n=36 v=117
78363 On ch=10 n=36 v=0
78480 On ch=10 n=36 v=117
78480 ChPr ch=10 v=67
78480 ChPr ch=10 v=0
78503 Off ch=10 n=36 v=0
78528 On ch=10 n=36 v=111
78528 ChPr ch=10 v=55
78528 ChPr ch=10 v=49
78528 ChPr ch=10 v=0
78556 Off ch=10 n=36 v=0
78720 On ch=10 n=36 v=117
78747 On ch=10 n=36 v=0
78912 On ch=10 n=36 v=123
78938 On ch=10 n=36 v=0
79104 On ch=10 n=36 v=117
79132 On ch=10 n=36 v=0
79248 On ch=10 n=36 v=123
79271 On ch=10 n=36 v=0
79296 On ch=10 n=36 v=111
79296 ChPr ch=10 v=19
79296 ChPr ch=10 v=42
79296 ChPr ch=10 v=0
79325 Off ch=10 n=36 v=0
79488 On ch=10 n=36 v=117
79514 On ch=10 n=36 v=0
79680 On ch=10 n=36 v=117
79703 On ch=10 n=36 v=0
79851 Meta TrkEnd
TrkEnd
MTrk
0 Meta Text "{GNMIDI}Generated by illegal use of GNMIDI 2.0 demo after 41 days (only 14 days free testing allowed)\n"
0 Meta TrkName "AahChoir"
0 Par ch=15 c=0 v=0
0 Par ch=15 c=7 v=110
0 Par ch=15 c=10 v=64
0 Par ch=15 c=93 v=0
0 Par ch=15 c=91 v=40
2 Par ch=15 c=32 v=0
2 PrCh ch=15 p=52
55392 On ch=15 n=62 v=96
55423 On ch=15 n=62 v=0
55488 On ch=15 n=62 v=105
55584 On ch=15 n=64 v=87
55597 On ch=15 n=62 v=0
55680 On ch=15 n=67 v=102
55681 On ch=15 n=64 v=0
55776 On ch=15 n=66 v=108
55801 On ch=15 n=67 v=0
55872 On ch=15 n=64 v=111
55896 On ch=15 n=66 v=0
55990 On ch=15 n=64 v=0
56160 On ch=15 n=66 v=117
56197 On ch=15 n=66 v=0
56352 On ch=15 n=66 v=114
56405 On ch=15 n=66 v=0
56544 On ch=15 n=62 v=114
56580 On ch=15 n=62 v=0
56640 On ch=15 n=62 v=111
56640 ChPr ch=15 v=11
56640 ChPr ch=15 v=0
56640 ChPr ch=15 v=3
56677 Off ch=15 n=62 v=0
56688 ChPr ch=15 v=0
56736 On ch=15 n=62 v=111
56736 ChPr ch=15 v=17
56736 ChPr ch=15 v=23
56775 Off ch=15 n=62 v=0
56784 ChPr ch=15 v=0
56928 On ch=15 n=62 v=96
56966 On ch=15 n=62 v=0
57024 On ch=15 n=62 v=102
57120 On ch=15 n=64 v=105
57141 On ch=15 n=62 v=0
57214 On ch=15 n=64 v=0
57216 On ch=15 n=67 v=105
57312 On ch=15 n=66 v=108
57331 On ch=15 n=67 v=0
57408 On ch=15 n=64 v=111
57419 On ch=15 n=66 v=0
57508 On ch=15 n=64 v=0
57696 On ch=15 n=66 v=114
57733 On ch=15 n=66 v=0
57888 On ch=15 n=66 v=114
57930 On ch=15 n=66 v=0
58080 On ch=15 n=62 v=111
58113 On ch=15 n=62 v=0
58176 On ch=15 n=62 v=111
58211 On ch=15 n=62 v=0
58272 On ch=15 n=62 v=114
58272 ChPr ch=15 v=23
58272 ChPr ch=15 v=12
58272 ChPr ch=15 v=127
58313 Off ch=15 n=62 v=0
58320 ChPr ch=15 v=5
58320 ChPr ch=15 v=0
58464 On ch=15 n=62 v=96
58495 On ch=15 n=62 v=0
58560 On ch=15 n=62 v=105
58656 On ch=15 n=64 v=87
58669 On ch=15 n=62 v=0
58752 On ch=15 n=67 v=102
58753 On ch=15 n=64 v=0
58848 On ch=15 n=66 v=108
58873 On ch=15 n=67 v=0
58944 On ch=15 n=64 v=111
58968 On ch=15 n=66 v=0
59062 On ch=15 n=64 v=0
59232 On ch=15 n=66 v=117
59269 On ch=15 n=66 v=0
59424 On ch=15 n=66 v=114
59477 On ch=15 n=66 v=0
59616 On ch=15 n=62 v=114
59652 On ch=15 n=62 v=0
59712 On ch=15 n=62 v=111
59712 ChPr ch=15 v=11
59712 ChPr ch=15 v=0
59712 ChPr ch=15 v=3
59749 Off ch=15 n=62 v=0
59760 ChPr ch=15 v=0
59808 On ch=15 n=62 v=111
59808 ChPr ch=15 v=17
59808 ChPr ch=15 v=23
59847 Off ch=15 n=62 v=0
59856 ChPr ch=15 v=0
60000 On ch=15 n=62 v=102
60043 On ch=15 n=62 v=0
60096 On ch=15 n=62 v=96
60192 On ch=15 n=64 v=96
60210 On ch=15 n=62 v=0
60288 On ch=15 n=67 v=102
60298 On ch=15 n=64 v=0
60384 On ch=15 n=66 v=99
60394 On ch=15 n=67 v=0
60480 On ch=15 n=64 v=105
60489 On ch=15 n=66 v=0
60584 On ch=15 n=64 v=0
79851 Meta TrkEnd
TrkEnd
MTrk
0 Meta Text "{GNMIDI}Generated by illegal use of GNMIDI 2.0 demo after 41 days (only 14 days free testing allowed)\n"
0 Meta TrkName "SynBass2"
0 Par ch=16 c=0 v=0
0 Par ch=16 c=7 v=110
0 Par ch=16 c=10 v=64
0 Par ch=16 c=93 v=0
0 Par ch=16 c=91 v=40
1 Par ch=16 c=32 v=0
2 PrCh ch=16 p=39
30720 On ch=16 n=26 v=123
30720 ChPr ch=16 v=127
30768 ChPr ch=16 v=0
30798 Off ch=16 n=26 v=0
30864 On ch=16 n=26 v=108
30894 On ch=16 n=26 v=0
30912 On ch=16 n=26 v=111
30912 ChPr ch=16 v=127
30912 ChPr ch=16 v=0
30964 Off ch=16 n=26 v=0
31008 On ch=16 n=21 v=111
31061 On ch=16 n=21 v=0
31104 On ch=16 n=26 v=123
31104 ChPr ch=16 v=127
31152 ChPr ch=16 v=0
31188 Off ch=16 n=26 v=0
31248 On ch=16 n=26 v=111
31280 On ch=16 n=26 v=0
31296 On ch=16 n=26 v=114
31296 ChPr ch=16 v=127
31344 ChPr ch=16 v=0
31357 Off ch=16 n=26 v=0
31392 On ch=16 n=21 v=111
31441 On ch=16 n=21 v=0
31488 On ch=16 n=33 v=114
31488 ChPr ch=16 v=9
31488 ChPr ch=16 v=0
31488 ChPr ch=16 v=21
31536 ChPr ch=16 v=31
31536 ChPr ch=16 v=11
31536 ChPr ch=16 v=0
31568 Off ch=16 n=33 v=0
31632 On ch=16 n=33 v=108
31661 On ch=16 n=33 v=0
31680 On ch=16 n=33 v=111
31680 ChPr ch=16 v=49
31680 ChPr ch=16 v=127
31680 ChPr ch=16 v=0
31724 Off ch=16 n=33 v=0
31776 On ch=16 n=28 v=114
31776 ChPr ch=16 v=18
31776 ChPr ch=16 v=0
31776 ChPr ch=16 v=5
31776 ChPr ch=16 v=0
31833 Off ch=16 n=28 v=0
31872 On ch=16 n=33 v=114
31872 ChPr ch=16 v=117
31872 ChPr ch=16 v=127
31920 ChPr ch=16 v=19
31920 ChPr ch=16 v=0
31957 Off ch=16 n=33 v=0
32016 On ch=16 n=33 v=114
32042 On ch=16 n=33 v=0
32064 On ch=16 n=33 v=111
32064 ChPr ch=16 v=15
32064 ChPr ch=16 v=34
32064 ChPr ch=16 v=9
32103 Off ch=16 n=33 v=0
32112 ChPr ch=16 v=0
32160 On ch=16 n=28 v=117
32160 ChPr ch=16 v=11
32160 ChPr ch=16 v=0
32206 Off ch=16 n=28 v=0
32256 On ch=16 n=35 v=117
32336 On ch=16 n=35 v=0
32400 On ch=16 n=35 v=111
32424 On ch=16 n=35 v=0
32448 On ch=16 n=35 v=111
32448 ChPr ch=16 v=26
32448 ChPr ch=16 v=127
32496 ChPr ch=16 v=0
32497 Off ch=16 n=35 v=0
32544 On ch=16 n=30 v=117
32593 On ch=16 n=30 v=0
32640 On ch=16 n=35 v=117
32640 ChPr ch=16 v=127
32688 ChPr ch=16 v=0
32734 Off ch=16 n=35 v=0
32784 On ch=16 n=35 v=111
32811 On ch=16 n=35 v=0
32832 On ch=16 n=35 v=114
32875 On ch=16 n=35 v=0
32880 ChPr ch=16 v=127
32880 ChPr ch=16 v=0
32928 On ch=16 n=30 v=114
32977 On ch=16 n=30 v=0
33024 On ch=16 n=31 v=123
33024 ChPr ch=16 v=40
33024 ChPr ch=16 v=31
33072 ChPr ch=16 v=0
33118 Off ch=16 n=31 v=0
33168 On ch=16 n=31 v=111
33197 On ch=16 n=31 v=0
33216 On ch=16 n=31 v=114
33216 ChPr ch=16 v=127
33216 ChPr ch=16 v=22
33264 ChPr ch=16 v=0
33265 Off ch=16 n=31 v=0
33312 On ch=16 n=26 v=114
33312 ChPr ch=16 v=3
33312 ChPr ch=16 v=21
33312 ChPr ch=16 v=3
33360 ChPr ch=16 v=0
33367 Off ch=16 n=26 v=0
33408 On ch=16 n=31 v=123
33408 ChPr ch=16 v=127
33456 ChPr ch=16 v=58
33456 ChPr ch=16 v=0
33495 Off ch=16 n=31 v=0
33552 On ch=16 n=31 v=114
33583 On ch=16 n=31 v=0
33600 On ch=16 n=31 v=111
33600 ChPr ch=16 v=127
33600 ChPr ch=16 v=0
33653 Off ch=16 n=31 v=0
33696 On ch=16 n=31 v=117
33696 ChPr ch=16 v=4
33696 ChPr ch=16 v=127
33696 ChPr ch=16 v=11
33744 ChPr ch=16 v=0
33751 Off ch=16 n=31 v=0
33792 On ch=16 n=26 v=123
33792 ChPr ch=16 v=127
33840 ChPr ch=16 v=0
33870 Off ch=16 n=26 v=0
33936 On ch=16 n=26 v=108
33966 On ch=16 n=26 v=0
33984 On ch=16 n=26 v=111
33984 ChPr ch=16 v=127
33984 ChPr ch=16 v=0
34036 Off ch=16 n=26 v=0
34080 On ch=16 n=21 v=111
34133 On ch=16 n=21 v=0
34176 On ch=16 n=26 v=123
34176 ChPr ch=16 v=127
34224 ChPr ch=16 v=0
34260 Off ch=16 n=26 v=0
34320 On ch=16 n=26 v=111
34352 On ch=16 n=26 v=0
34368 On ch=16 n=26 v=114
34368 ChPr ch=16 v=127
34416 ChPr ch=16 v=0
34429 Off ch=16 n=26 v=0
34464 On ch=16 n=21 v=111
34513 On ch=16 n=21 v=0
34560 On ch=16 n=33 v=114
34560 ChPr ch=16 v=9
34560 ChPr ch=16 v=0
34560 ChPr ch=16 v=21
34608 ChPr ch=16 v=31
34608 ChPr ch=16 v=11
34608 ChPr ch=16 v=0
34640 Off ch=16 n=33 v=0
34704 On ch=16 n=33 v=108
34733 On ch=16 n=33 v=0
34752 On ch=16 n=33 v=111
34752 ChPr ch=16 v=49
34752 ChPr ch=16 v=127
34752 ChPr ch=16 v=0
34796 Off ch=16 n=33 v=0
34848 On ch=16 n=28 v=114
34848 ChPr ch=16 v=18
34848 ChPr ch=16 v=0
34848 ChPr ch=16 v=5
34848 ChPr ch=16 v=0
34905 Off ch=16 n=28 v=0
34944 On ch=16 n=33 v=114
34944 ChPr ch=16 v=117
34944 ChPr ch=16 v=127
34992 ChPr ch=16 v=19
34992 ChPr ch=16 v=0
35029 Off ch=16 n=33 v=0
35088 On ch=16 n=33 v=114
35114 On ch=16 n=33 v=0
35136 On ch=16 n=33 v=111
35136 ChPr ch=16 v=15
35136 ChPr ch=16 v=34
35136 ChPr ch=16 v=9
35175 Off ch=16 n=33 v=0
35184 ChPr ch=16 v=0
35232 On ch=16 n=28 v=117
35232 ChPr ch=16 v=11
35232 ChPr ch=16 v=0
35278 Off ch=16 n=28 v=0
35328 On ch=16 n=35 v=117
35408 On ch=16 n=35 v=0
35472 On ch=16 n=35 v=111
35496 On ch=16 n=35 v=0
35520 On ch=16 n=35 v=111
35520 ChPr ch=16 v=26
35520 ChPr ch=16 v=127
35568 ChPr ch=16 v=0
35569 Off ch=16 n=35 v=0
35616 On ch=16 n=30 v=117
35665 On ch=16 n=30 v=0
35712 On ch=16 n=35 v=117
35712 ChPr ch=16 v=127
35760 ChPr ch=16 v=0
35806 Off ch=16 n=35 v=0
35856 On ch=16 n=35 v=111
35883 On ch=16 n=35 v=0
35904 On ch=16 n=35 v=114
35947 On ch=16 n=35 v=0
35952 ChPr ch=16 v=127
35952 ChPr ch=16 v=0
36000 On ch=16 n=30 v=114
36049 On ch=16 n=30 v=0
36096 On ch=16 n=31 v=123
36096 ChPr ch=16 v=40
36096 ChPr ch=16 v=31
36144 ChPr ch=16 v=0
36190 Off ch=16 n=31 v=0
36240 On ch=16 n=31 v=111
36269 On ch=16 n=31 v=0
36288 On ch=16 n=31 v=114
36288 ChPr ch=16 v=127
36288 ChPr ch=16 v=22
36336 ChPr ch=16 v=0
36337 Off ch=16 n=31 v=0
36384 On ch=16 n=26 v=114
36384 ChPr ch=16 v=3
36384 ChPr ch=16 v=21
36384 ChPr ch=16 v=3
36432 ChPr ch=16 v=0
36439 Off ch=16 n=26 v=0
36480 On ch=16 n=31 v=123
36480 ChPr ch=16 v=127
36528 ChPr ch=16 v=58
36528 ChPr ch=16 v=0
36567 Off ch=16 n=31 v=0
36624 On ch=16 n=31 v=114
36655 On ch=16 n=31 v=0
36672 On ch=16 n=31 v=111
36672 ChPr ch=16 v=127
36672 ChPr ch=16 v=0
36725 Off ch=16 n=31 v=0
36768 On ch=16 n=31 v=117
36768 ChPr ch=16 v=4
36768 ChPr ch=16 v=127
36768 ChPr ch=16 v=11
36816 ChPr ch=16 v=0
36823 Off ch=16 n=31 v=0
36864 On ch=16 n=26 v=114
36864 ChPr ch=16 v=127
36912 ChPr ch=16 v=13
36912 ChPr ch=16 v=0
36960 ChPr ch=16 v=32
36960 ChPr ch=16 v=55
36960 ChPr ch=16 v=127
36960 ChPr ch=16 v=88
37008 ChPr ch=16 v=0
37050 Off ch=16 n=26 v=0
37152 On ch=16 n=33 v=111
37152 ChPr ch=16 v=2
37152 ChPr ch=16 v=7
37152 ChPr ch=16 v=0
37236 Off ch=16 n=33 v=0
37248 On ch=16 n=26 v=114
37248 ChPr ch=16 v=127
37296 ChPr ch=16 v=52
37296 ChPr ch=16 v=0
37420 Off ch=16 n=26 v=0
37536 On ch=16 n=33 v=114
37618 On ch=16 n=33 v=0
37632 On ch=16 n=33 v=114
37856 On ch=16 n=33 v=0
37920 On ch=16 n=28 v=111
37997 On ch=16 n=28 v=0
38016 On ch=16 n=33 v=114
38016 ChPr ch=16 v=36
38016 ChPr ch=16 v=127
38064 ChPr ch=16 v=12
38064 ChPr ch=16 v=0
38237 Off ch=16 n=33 v=0
38304 On ch=16 n=28 v=114
38304 ChPr ch=16 v=19
38304 ChPr ch=16 v=17
38304 ChPr ch=16 v=4
38352 ChPr ch=16 v=0
38396 Off ch=16 n=28 v=0
38400 On ch=16 n=35 v=117
38599 On ch=16 n=35 v=0
38688 On ch=16 n=23 v=105
38768 On ch=16 n=23 v=0
38784 On ch=16 n=35 v=114
38784 ChPr ch=16 v=15
38784 ChPr ch=16 v=16
38832 ChPr ch=16 v=0
38999 Off ch=16 n=35 v=0
39072 On ch=16 n=26 v=111
39164 On ch=16 n=26 v=0
39168 On ch=16 n=31 v=114
39399 On ch=16 n=31 v=0
39456 On ch=16 n=26 v=111
39541 On ch=16 n=26 v=0
39552 On ch=16 n=31 v=117
39552 ChPr ch=16 v=127
39600 ChPr ch=16 v=12
39600 ChPr ch=16 v=0
39766 Off ch=16 n=31 v=0
39840 On ch=16 n=38 v=117
39840 ChPr ch=16 v=3
39888 ChPr ch=16 v=45
39888 ChPr ch=16 v=12
39888 ChPr ch=16 v=0
39901 Off ch=16 n=38 v=0
39936 On ch=16 n=26 v=114
39936 ChPr ch=16 v=127
39984 ChPr ch=16 v=13
39984 ChPr ch=16 v=0
40032 ChPr ch=16 v=32
40032 ChPr ch=16 v=55
40032 ChPr ch=16 v=127
40032 ChPr ch=16 v=88
40080 ChPr ch=16 v=0
40122 Off ch=16 n=26 v=0
40224 On ch=16 n=33 v=111
40224 ChPr ch=16 v=2
40224 ChPr ch=16 v=7
40224 ChPr ch=16 v=0
40308 Off ch=16 n=33 v=0
40320 On ch=16 n=26 v=114
40320 ChPr ch=16 v=127
40368 ChPr ch=16 v=52
40368 ChPr ch=16 v=0
40492 Off ch=16 n=26 v=0
40608 On ch=16 n=33 v=114
40690 On ch=16 n=33 v=0
40704 On ch=16 n=33 v=114
40928 On ch=16 n=33 v=0
40992 On ch=16 n=28 v=111
41069 On ch=16 n=28 v=0
41088 On ch=16 n=33 v=114
41088 ChPr ch=16 v=36
41088 ChPr ch=16 v=127
41136 ChPr ch=16 v=12
41136 ChPr ch=16 v=0
41309 Off ch=16 n=33 v=0
41376 On ch=16 n=28 v=114
41376 ChPr ch=16 v=19
41376 ChPr ch=16 v=17
41376 ChPr ch=16 v=4
41424 ChPr ch=16 v=0
41468 Off ch=16 n=28 v=0
41472 On ch=16 n=35 v=117
41671 On ch=16 n=35 v=0
41760 On ch=16 n=23 v=105
41840 On ch=16 n=23 v=0
41856 On ch=16 n=35 v=114
41856 ChPr ch=16 v=15
41856 ChPr ch=16 v=16
41904 ChPr ch=16 v=0
42071 Off ch=16 n=35 v=0
42144 On ch=16 n=26 v=111
42236 On ch=16 n=26 v=0
79851 Meta TrkEnd
TrkEnd
