MFile 1 3 120
MTrk
0 Meta SeqName "Sounds of Silence/"
0 Meta InstrName "piano"
0 KeySig 0 major
558 On ch=1 n=50 v=64
596 Par ch=1 c=64 v=127
619 On ch=1 n=57 v=49
652 On ch=1 n=50 v=0
670 On ch=1 n=57 v=0
687 On ch=1 n=52 v=34
741 On ch=1 n=52 v=0
741 On ch=1 n=57 v=58
787 On ch=1 n=57 v=0
802 On ch=1 n=53 v=41
854 On ch=1 n=53 v=0
862 On ch=1 n=57 v=45
899 On ch=1 n=57 v=0
1001 On ch=1 n=52 v=31
1041 On ch=1 n=52 v=0
1061 On ch=1 n=57 v=25
1073 On ch=1 n=57 v=0
1090 On ch=1 n=50 v=52
1153 On ch=1 n=57 v=35
1174 On ch=1 n=50 v=0
1192 On ch=1 n=57 v=0
1201 On ch=1 n=52 v=41
1263 On ch=1 n=52 v=0
1269 On ch=1 n=57 v=49
1309 On ch=1 n=57 v=0
1331 On ch=1 n=53 v=41
1388 On ch=1 n=53 v=0
1390 On ch=1 n=57 v=48
1437 On ch=1 n=57 v=0
1450 On ch=1 n=52 v=43
1506 On ch=1 n=52 v=0
1513 On ch=1 n=57 v=59
1571 On ch=1 n=57 v=0
1572 On ch=1 n=50 v=67
1594 Par ch=1 c=64 v=0
1636 On ch=1 n=57 v=49
1666 Par ch=1 c=64 v=127
1688 On ch=1 n=50 v=0
1693 On ch=1 n=57 v=0
1696 On ch=1 n=52 v=60
1752 On ch=1 n=52 v=0
1756 On ch=1 n=57 v=56
1802 On ch=1 n=57 v=0
1821 On ch=1 n=53 v=53
1877 On ch=1 n=57 v=57
1892 On ch=1 n=53 v=0
1932 On ch=1 n=57 v=0
1941 On ch=1 n=52 v=42
1998 On ch=1 n=52 v=0
2005 On ch=1 n=57 v=58
2061 On ch=1 n=57 v=0
2069 On ch=1 n=50 v=55
2095 Par ch=1 c=64 v=0
2111 Par ch=1 c=64 v=127
2129 On ch=1 n=57 v=47
2166 On ch=1 n=50 v=0
2184 On ch=1 n=57 v=0
2191 On ch=1 n=52 v=42
2245 On ch=1 n=52 v=0
2248 On ch=1 n=57 v=53
2298 On ch=1 n=57 v=0
2314 On ch=1 n=53 v=44
2374 On ch=1 n=57 v=41
2378 On ch=1 n=53 v=0
2428 On ch=1 n=57 v=0
2435 On ch=1 n=52 v=38
2489 On ch=1 n=52 v=0
2500 On ch=1 n=57 v=49
2553 On ch=1 n=57 v=0
2561 On ch=1 n=50 v=55
2621 On ch=1 n=57 v=58
2651 On ch=1 n=50 v=0
2672 On ch=1 n=57 v=0
2677 On ch=1 n=62 v=81
2681 On ch=1 n=52 v=52
2696 On ch=1 n=62 v=0
2727 On ch=1 n=52 v=0
2736 On ch=1 n=62 v=74
2737 On ch=1 n=57 v=63
2760 On ch=1 n=62 v=0
2778 On ch=1 n=57 v=0
2795 On ch=1 n=65 v=79
2797 On ch=1 n=53 v=49
2816 On ch=1 n=65 v=0
2850 On ch=1 n=57 v=39
2853 On ch=1 n=65 v=74
2856 On ch=1 n=53 v=0
2875 On ch=1 n=57 v=0
2891 On ch=1 n=65 v=0
2909 On ch=1 n=69 v=82
2914 On ch=1 n=50 v=59
2939 On ch=1 n=69 v=0
2963 On ch=1 n=50 v=0
2967 On ch=1 n=57 v=67
2971 On ch=1 n=69 v=87
3004 On ch=1 n=57 v=0
3008 On ch=1 n=69 v=0
3022 On ch=1 n=48 v=62
3031 On ch=1 n=67 v=85
3041 Par ch=1 c=64 v=0
3088 On ch=1 n=55 v=49
3125 On ch=1 n=48 v=0
3149 On ch=1 n=67 v=0
3155 On ch=1 n=50 v=55
3164 Par ch=1 c=64 v=127
3212 On ch=1 n=55 v=47
3229 On ch=1 n=55 v=0
3259 On ch=1 n=50 v=0
3272 On ch=1 n=52 v=52
3330 On ch=1 n=55 v=0
3391 On ch=1 n=50 v=51
3448 On ch=1 n=52 v=0
3454 On ch=1 n=55 v=36
3503 On ch=1 n=50 v=0
3514 On ch=1 n=48 v=44
3579 On ch=1 n=60 v=39
3581 On ch=1 n=55 v=32
3584 On ch=1 n=55 v=0
3589 On ch=1 n=48 v=0
3598 On ch=1 n=60 v=0
3627 On ch=1 n=55 v=0
3640 On ch=1 n=50 v=57
3643 On ch=1 n=60 v=43
3659 On ch=1 n=50 v=0
3696 On ch=1 n=60 v=0
3697 On ch=1 n=60 v=71
3703 On ch=1 n=55 v=44
3725 On ch=1 n=60 v=0
3742 On ch=1 n=55 v=0
3754 On ch=1 n=64 v=83
3756 On ch=1 n=48 v=53
3778 On ch=1 n=64 v=0
3814 On ch=1 n=55 v=39
3816 On ch=1 n=64 v=95
3836 On ch=1 n=48 v=0
3838 On ch=1 n=55 v=0
3861 On ch=1 n=64 v=0
3869 On ch=1 n=50 v=60
3874 On ch=1 n=67 v=88
3897 On ch=1 n=50 v=0
3926 On ch=1 n=67 v=0
3929 On ch=1 n=67 v=83
3931 On ch=1 n=55 v=50
3968 On ch=1 n=67 v=0
3969 On ch=1 n=55 v=0
3985 On ch=1 n=50 v=61
3988 On ch=1 n=65 v=77
3991 Par ch=1 c=64 v=0
4045 On ch=1 n=57 v=50
4099 On ch=1 n=50 v=0
4106 On ch=1 n=65 v=0
4106 On ch=1 n=52 v=54
4137 Par ch=1 c=64 v=127
4177 On ch=1 n=57 v=49
4200 On ch=1 n=57 v=0
4216 On ch=1 n=52 v=0
4238 On ch=1 n=53 v=42
4298 On ch=1 n=57 v=36
4318 Par ch=1 c=64 v=0
4328 On ch=1 n=57 v=0
4344 On ch=1 n=53 v=0
4358 On ch=1 n=52 v=40
4413 On ch=1 n=57 v=0
4422 On ch=1 n=57 v=40
4454 Par ch=1 c=64 v=127
4466 On ch=1 n=52 v=0
4488 On ch=1 n=50 v=52
4506 On ch=1 n=57 v=0
4540 On ch=1 n=65 v=72
4544 On ch=1 n=57 v=40
4556 On ch=1 n=50 v=0
4567 On ch=1 n=65 v=0
4579 On ch=1 n=57 v=0
4593 On ch=1 n=52 v=52
4601 On ch=1 n=65 v=66
4619 On ch=1 n=52 v=0
4657 On ch=1 n=65 v=73
4663 On ch=1 n=57 v=47
4682 On ch=1 n=65 v=0
4684 On ch=1 n=65 v=0
4692 On ch=1 n=57 v=0
4716 On ch=1 n=65 v=78
4717 On ch=1 n=69 v=82
4720 On ch=1 n=53 v=45
4736 On ch=1 n=65 v=0
4738 On ch=1 n=69 v=0
4775 On ch=1 n=65 v=70
4776 On ch=1 n=69 v=77
4781 On ch=1 n=57 v=57
4787 On ch=1 n=53 v=0
4794 On ch=1 n=65 v=0
4801 On ch=1 n=69 v=0
4821 On ch=1 n=57 v=0
4834 On ch=1 n=53 v=59
4835 On ch=1 n=65 v=88
4836 On ch=1 n=72 v=82
4853 On ch=1 n=53 v=0
4862 On ch=1 n=65 v=0
4885 On ch=1 n=72 v=0
4892 On ch=1 n=57 v=69
4895 On ch=1 n=65 v=82
4895 On ch=1 n=72 v=77
4914 On ch=1 n=57 v=0
4919 On ch=1 n=65 v=0
4932 On ch=1 n=72 v=0
4945 On ch=1 n=53 v=64
4951 On ch=1 n=65 v=86
4952 On ch=1 n=74 v=86
4953 On ch=1 n=70 v=76
4966 Par ch=1 c=64 v=0
5017 On ch=1 n=62 v=47
5031 Par ch=1 c=64 v=127
5049 On ch=1 n=53 v=0
5051 On ch=1 n=65 v=0
5062 On ch=1 n=74 v=0
5072 On ch=1 n=70 v=0
5077 On ch=1 n=70 v=61
5078 On ch=1 n=58 v=51
5079 On ch=1 n=65 v=38
5080 On ch=1 n=74 v=61
5102 On ch=1 n=62 v=0
5122 On ch=1 n=70 v=0
5124 On ch=1 n=58 v=0
5130 On ch=1 n=65 v=0
5136 On ch=1 n=62 v=52
5139 On ch=1 n=65 v=67
5141 On ch=1 n=72 v=62
5145 On ch=1 n=69 v=61
5159 On ch=1 n=74 v=0
5175 Par ch=1 c=64 v=0
5178 On ch=1 n=62 v=0
5202 On ch=1 n=53 v=60
5264 On ch=1 n=60 v=45
5267 Par ch=1 c=64 v=127
5306 On ch=1 n=65 v=0
5309 On ch=1 n=72 v=0
5324 On ch=1 n=55 v=48
5389 On ch=1 n=60 v=36
5393 On ch=1 n=69 v=0
5444 On ch=1 n=53 v=0
5451 On ch=1 n=57 v=57
5511 On ch=1 n=60 v=0
5512 On ch=1 n=60 v=37
5533 On ch=1 n=55 v=0
5553 On ch=1 n=60 v=0
5570 On ch=1 n=57 v=0
5571 On ch=1 n=53 v=42
5576 On ch=1 n=65 v=63
5588 On ch=1 n=60 v=0
5633 On ch=1 n=60 v=45
5636 On ch=1 n=65 v=67
5653 On ch=1 n=53 v=0
5692 On ch=1 n=69 v=72
5694 On ch=1 n=65 v=0
5700 On ch=1 n=57 v=61
5701 On ch=1 n=60 v=0
5701 On ch=1 n=65 v=0
5712 On ch=1 n=69 v=0
5749 On ch=1 n=65 v=30
5752 On ch=1 n=69 v=76
5759 On ch=1 n=60 v=49
5762 On ch=1 n=57 v=0
5763 On ch=1 n=65 v=0
5780 On ch=1 n=69 v=0
5807 On ch=1 n=60 v=0
5810 On ch=1 n=72 v=77
5811 On ch=1 n=65 v=75
5812 On ch=1 n=53 v=60
5830 On ch=1 n=72 v=0
5838 On ch=1 n=65 v=0
5867 On ch=1 n=60 v=53
5868 On ch=1 n=53 v=0
5871 On ch=1 n=72 v=74
5873 On ch=1 n=65 v=73
5904 On ch=1 n=60 v=0
5908 On ch=1 n=72 v=0
5927 Par ch=1 c=64 v=0
5929 On ch=1 n=53 v=63
5930 On ch=1 n=65 v=77
5932 On ch=1 n=74 v=82
5934 On ch=1 n=65 v=0
5934 On ch=1 n=70 v=74
5983 Par ch=1 c=64 v=127
5991 On ch=1 n=62 v=51
6010 On ch=1 n=53 v=0
6013 On ch=1 n=65 v=0
6016 On ch=1 n=74 v=0
6054 On ch=1 n=74 v=74
6055 On ch=1 n=70 v=62
6057 On ch=1 n=65 v=68
6058 On ch=1 n=58 v=60
6059 On ch=1 n=70 v=0
6075 On ch=1 n=62 v=0
6084 On ch=1 n=74 v=0
6097 On ch=1 n=70 v=0
6104 On ch=1 n=65 v=0
6118 On ch=1 n=62 v=50
6120 On ch=1 n=65 v=77
6122 On ch=1 n=69 v=73
6123 On ch=1 n=72 v=61
6145 Par ch=1 c=64 v=0
6158 On ch=1 n=58 v=0
6168 On ch=1 n=62 v=0
6176 On ch=1 n=53 v=59
6231 Par ch=1 c=64 v=127
6242 On ch=1 n=60 v=38
6279 On ch=1 n=65 v=0
6285 On ch=1 n=69 v=0
6307 On ch=1 n=55 v=34
6371 On ch=1 n=60 v=24
6373 On ch=1 n=72 v=0
6412 On ch=1 n=53 v=0
6435 On ch=1 n=57 v=43
6484 On ch=1 n=60 v=0
6488 On ch=1 n=55 v=0
6496 On ch=1 n=60 v=25
6529 On ch=1 n=60 v=0
6553 On ch=1 n=53 v=46
6561 On ch=1 n=65 v=42
6574 On ch=1 n=57 v=0
6611 On ch=1 n=60 v=0
6611 On ch=1 n=53 v=0
6614 On ch=1 n=65 v=60
6618 On ch=1 n=60 v=47
6637 On ch=1 n=65 v=0
6673 On ch=1 n=74 v=68
6673 Par ch=1 c=64 v=0
6676 On ch=1 n=70 v=61
6680 On ch=1 n=53 v=52
6681 On ch=1 n=65 v=0
6705 On ch=1 n=60 v=0
6710 On ch=1 n=74 v=0
6735 On ch=1 n=70 v=66
6735 On ch=1 n=74 v=75
6737 On ch=1 n=62 v=49
6766 Par ch=1 c=64 v=127
6794 On ch=1 n=70 v=0
6796 On ch=1 n=58 v=56
6807 On ch=1 n=53 v=0
6866 On ch=1 n=62 v=48
6893 On ch=1 n=70 v=0
6931 On ch=1 n=74 v=0
6936 On ch=1 n=53 v=46
6995 On ch=1 n=62 v=56
7002 On ch=1 n=62 v=0
7003 On ch=1 n=58 v=0
7004 On ch=1 n=62 v=0
7045 On ch=1 n=53 v=0
7049 On ch=1 n=74 v=71
7049 On ch=1 n=65 v=66
7050 On ch=1 n=58 v=54
7055 On ch=1 n=70 v=47
7058 On ch=1 n=62 v=0
7058 On ch=1 n=74 v=0
7064 On ch=1 n=65 v=0
7095 On ch=1 n=58 v=0
7106 On ch=1 n=62 v=51
7108 On ch=1 n=76 v=72
7113 On ch=1 n=72 v=43
7122 On ch=1 n=70 v=0
7122 On ch=1 n=62 v=0
7128 On ch=1 n=76 v=0
7142 On ch=1 n=72 v=0
7164 Par ch=1 c=64 v=0
7168 On ch=1 n=53 v=59
7171 On ch=1 n=77 v=62
7187 Par ch=1 c=64 v=127
7198 On ch=1 n=53 v=0
7230 On ch=1 n=62 v=37
7233 On ch=1 n=77 v=63
7233 On ch=1 n=70 v=71
7236 On ch=1 n=74 v=63
7254 On ch=1 n=77 v=0
7284 On ch=1 n=58 v=42
7293 On ch=1 n=62 v=0
7318 On ch=1 n=77 v=0
7324 On ch=1 n=70 v=0
7335 On ch=1 n=74 v=0
7359 On ch=1 n=62 v=46
7384 On ch=1 n=58 v=0
7401 On ch=1 n=62 v=0
7413 On ch=1 n=53 v=53
7415 On ch=1 n=76 v=61
7415 On ch=1 n=72 v=67
7448 On ch=1 n=53 v=0
7452 On ch=1 n=76 v=0
7473 On ch=1 n=70 v=75
7475 On ch=1 n=74 v=74
7480 On ch=1 n=62 v=30
7484 On ch=1 n=72 v=0
7490 On ch=1 n=70 v=0
7497 On ch=1 n=74 v=0
7530 On ch=1 n=58 v=42
7570 On ch=1 n=62 v=0
7592 On ch=1 n=69 v=78
7593 On ch=1 n=62 v=53
7594 On ch=1 n=72 v=69
7606 On ch=1 n=58 v=0
7623 On ch=1 n=69 v=0
7632 Par ch=1 c=64 v=0
7648 On ch=1 n=53 v=58
7712 On ch=1 n=60 v=38
7714 On ch=1 n=62 v=0
7717 Par ch=1 c=64 v=127
7757 On ch=1 n=72 v=0
7777 On ch=1 n=55 v=44
7837 On ch=1 n=60 v=42
7845 On ch=1 n=53 v=0
7889 On ch=1 n=60 v=0
7901 On ch=1 n=53 v=42
7961 On ch=1 n=60 v=44
7992 On ch=1 n=55 v=0
7996 On ch=1 n=60 v=0
8016 On ch=1 n=53 v=0
8017 On ch=1 n=74 v=75
8022 On ch=1 n=55 v=58
8029 On ch=1 n=60 v=0
8071 On ch=1 n=74 v=0
8076 On ch=1 n=72 v=66
8078 On ch=1 n=60 v=54
8080 On ch=1 n=55 v=0
8108 On ch=1 n=72 v=0
8132 Par ch=1 c=64 v=0
8133 On ch=1 n=68 v=82
8134 On ch=1 n=50 v=55
8135 On ch=1 n=60 v=0
8140 On ch=1 n=69 v=90
8141 On ch=1 n=68 v=0
8195 On ch=1 n=57 v=59
8202 On ch=1 n=50 v=0
8256 On ch=1 n=52 v=45
8265 Par ch=1 c=64 v=127
8268 On ch=1 n=69 v=0
8321 On ch=1 n=57 v=0
8327 On ch=1 n=57 v=47
8382 On ch=1 n=52 v=0
8389 On ch=1 n=50 v=59
8452 On ch=1 n=57 v=55
8489 On ch=1 n=57 v=0
8506 On ch=1 n=50 v=0
8512 On ch=1 n=52 v=56
8561 On ch=1 n=57 v=0
8568 On ch=1 n=57 v=73
8613 On ch=1 n=52 v=0
8626 On ch=1 n=53 v=73
8641 Par ch=1 c=64 v=0
8681 On ch=1 n=57 v=0
8683 On ch=1 n=60 v=60
8687 On ch=1 n=65 v=68
8697 Par ch=1 c=64 v=127
8702 On ch=1 n=53 v=0
8711 On ch=1 n=60 v=0
8724 On ch=1 n=65 v=0
8741 On ch=1 n=55 v=54
8745 On ch=1 n=65 v=57
8766 On ch=1 n=55 v=0
8800 On ch=1 n=65 v=0
8800 On ch=1 n=60 v=59
8801 On ch=1 n=65 v=72
8846 On ch=1 n=60 v=0
8849 On ch=1 n=65 v=0
8860 On ch=1 n=52 v=54
8860 On ch=1 n=72 v=61
8865 Par ch=1 c=64 v=0
8917 Par ch=1 c=64 v=127
8922 On ch=1 n=60 v=38
8925 On ch=1 n=52 v=0
8955 On ch=1 n=72 v=0
8980 On ch=1 n=50 v=65
9040 On ch=1 n=60 v=0
9043 On ch=1 n=60 v=52
9098 On ch=1 n=50 v=0
9102 On ch=1 n=52 v=54
9159 On ch=1 n=60 v=0
9161 On ch=1 n=60 v=50
9191 On ch=1 n=52 v=0
9199 On ch=1 n=60 v=0
9216 On ch=1 n=50 v=62
9258 On ch=1 n=50 v=0
9279 On ch=1 n=64 v=67
9281 On ch=1 n=57 v=58
9325 On ch=1 n=64 v=0
9328 On ch=1 n=57 v=0
9332 Par ch=1 c=64 v=0
9334 On ch=1 n=50 v=69
9339 On ch=1 n=65 v=71
9392 On ch=1 n=57 v=64
9403 On ch=1 n=50 v=0
9403 On ch=1 n=62 v=66
9430 On ch=1 n=65 v=0
9457 On ch=1 n=57 v=0
9463 On ch=1 n=52 v=48
9473 Par ch=1 c=64 v=127
9521 On ch=1 n=57 v=51
9544 On ch=1 n=62 v=0
9571 On ch=1 n=52 v=0
9589 On ch=1 n=53 v=40
9648 On ch=1 n=57 v=41
9674 On ch=1 n=57 v=0
9684 On ch=1 n=53 v=0
9711 On ch=1 n=52 v=47
9769 On ch=1 n=57 v=0
9770 On ch=1 n=57 v=55
9804 Par ch=1 c=64 v=0
9835 On ch=1 n=50 v=51
9839 On ch=1 n=52 v=0
9839 Par ch=1 c=64 v=127
9843 On ch=1 n=57 v=0
9900 On ch=1 n=62 v=61
9910 On ch=1 n=50 v=0
9952 On ch=1 n=62 v=60
9955 On ch=1 n=57 v=53
9969 On ch=1 n=62 v=0
10022 On ch=1 n=62 v=62
10053 On ch=1 n=62 v=0
10075 On ch=1 n=57 v=0
10080 On ch=1 n=65 v=67
10085 On ch=1 n=53 v=54
10087 On ch=1 n=62 v=0
10106 On ch=1 n=65 v=0
10140 On ch=1 n=65 v=69
10146 On ch=1 n=62 v=57
10155 On ch=1 n=53 v=0
10186 On ch=1 n=65 v=0
10190 On ch=1 n=50 v=1
10196 On ch=1 n=62 v=0
10199 On ch=1 n=69 v=75
10199 On ch=1 n=62 v=77
10202 On ch=1 n=57 v=59
10253 On ch=1 n=50 v=0
10262 On ch=1 n=69 v=0
10262 On ch=1 n=65 v=69
10265 On ch=1 n=53 v=56
10267 On ch=1 n=62 v=0
10269 On ch=1 n=57 v=0
10295 On ch=1 n=65 v=0
10299 On ch=1 n=53 v=0
10317 On ch=1 n=48 v=66
10317 On ch=1 n=64 v=71
10318 On ch=1 n=67 v=68
10318 On ch=1 n=60 v=68
10325 Par ch=1 c=64 v=0
10386 On ch=1 n=55 v=43
10427 Par ch=1 c=64 v=127
10433 On ch=1 n=48 v=0
10448 On ch=1 n=50 v=62
10450 On ch=1 n=64 v=0
10508 On ch=1 n=55 v=56
10530 On ch=1 n=67 v=0
10557 On ch=1 n=60 v=0
10560 On ch=1 n=52 v=56
10565 Par ch=1 c=64 v=0
10595 Par ch=1 c=64 v=127
10626 On ch=1 n=55 v=50
10656 On ch=1 n=55 v=0
10675 On ch=1 n=50 v=0
10689 On ch=1 n=50 v=42
10746 On ch=1 n=55 v=0
10754 On ch=1 n=55 v=43
10762 On ch=1 n=52 v=0
10808 Par ch=1 c=64 v=0
10816 On ch=1 n=48 v=67
10817 On ch=1 n=55 v=0
10836 On ch=1 n=50 v=0
10848 Par ch=1 c=64 v=127
10874 On ch=1 n=60 v=61
10876 On ch=1 n=55 v=0
10877 On ch=1 n=55 v=49
10882 On ch=1 n=48 v=0
10896 On ch=1 n=60 v=0
10910 On ch=1 n=55 v=0
10932 On ch=1 n=60 v=68
10933 On ch=1 n=50 v=55
10955 On ch=1 n=60 v=0
10996 On ch=1 n=60 v=72
10998 On ch=1 n=55 v=40
11013 On ch=1 n=50 v=0
11019 On ch=1 n=60 v=0
11019 On ch=1 n=55 v=0
11055 On ch=1 n=52 v=52
11056 On ch=1 n=60 v=61
11057 On ch=1 n=64 v=71
11069 On ch=1 n=52 v=0
11080 On ch=1 n=60 v=0
11117 On ch=1 n=64 v=70
11118 On ch=1 n=60 v=60
11119 On ch=1 n=55 v=54
11135 On ch=1 n=64 v=0
11137 On ch=1 n=64 v=0
11154 On ch=1 n=60 v=0
11157 On ch=1 n=55 v=0
11174 On ch=1 n=48 v=61
11177 On ch=1 n=67 v=78
11177 On ch=1 n=60 v=82
11234 On ch=1 n=48 v=0
11236 On ch=1 n=64 v=79
11237 On ch=1 n=67 v=0
11237 On ch=1 n=60 v=0
11238 On ch=1 n=52 v=49
11248 On ch=1 n=64 v=0
11278 On ch=1 n=52 v=0
11291 Par ch=1 c=64 v=0
11295 On ch=1 n=62 v=86
11296 On ch=1 n=50 v=64
11297 On ch=1 n=65 v=85
11360 On ch=1 n=57 v=60
11382 On ch=1 n=62 v=0
11408 On ch=1 n=50 v=0
11416 On ch=1 n=52 v=48
11446 Par ch=1 c=64 v=127
11478 On ch=1 n=57 v=50
11523 On ch=1 n=65 v=0
11526 On ch=1 n=57 v=0
11541 On ch=1 n=53 v=46
11558 Par ch=1 c=64 v=0
11605 On ch=1 n=57 v=42
11625 On ch=1 n=52 v=0
11648 On ch=1 n=57 v=0
11653 Par ch=1 c=64 v=127
11668 On ch=1 n=52 v=36
11725 On ch=1 n=53 v=0
11733 On ch=1 n=57 v=47
11778 On ch=1 n=57 v=0
11783 On ch=1 n=52 v=0
11794 On ch=1 n=57 v=0
11796 On ch=1 n=50 v=53
11855 On ch=1 n=65 v=69
11855 On ch=1 n=57 v=49
11876 On ch=1 n=50 v=0
11879 On ch=1 n=65 v=0
11879 On ch=1 n=57 v=0
11911 On ch=1 n=52 v=50
11914 On ch=1 n=65 v=81
11935 On ch=1 n=52 v=0
11973 On ch=1 n=57 v=46
11973 On ch=1 n=65 v=82
11992 On ch=1 n=65 v=0
11996 On ch=1 n=57 v=0
12001 On ch=1 n=65 v=0
12034 On ch=1 n=69 v=86
12034 On ch=1 n=65 v=81
12038 On ch=1 n=53 v=48
12056 On ch=1 n=69 v=0
12057 On ch=1 n=65 v=0
12091 On ch=1 n=69 v=82
12092 On ch=1 n=65 v=66
12102 On ch=1 n=53 v=0
12103 On ch=1 n=57 v=58
12109 On ch=1 n=69 v=0
12120 On ch=1 n=65 v=0
12134 On ch=1 n=57 v=0
12153 On ch=1 n=72 v=91
12154 On ch=1 n=65 v=88
12156 On ch=1 n=53 v=55
12173 On ch=1 n=72 v=0
12180 On ch=1 n=65 v=0
12186 On ch=1 n=53 v=0
12188 On ch=1 n=57 v=63
12196 On ch=1 n=57 v=0
12212 On ch=1 n=72 v=82
12215 On ch=1 n=65 v=78
12243 On ch=1 n=72 v=0
12252 On ch=1 n=65 v=0
12266 On ch=1 n=65 v=76
12268 On ch=1 n=53 v=67
12269 On ch=1 n=74 v=87
12270 On ch=1 n=70 v=84
12286 Par ch=1 c=64 v=0
12333 On ch=1 n=62 v=54
12339 Par ch=1 c=64 v=127
12358 On ch=1 n=65 v=0
12359 On ch=1 n=53 v=0
12370 On ch=1 n=74 v=0
12387 On ch=1 n=70 v=0
12392 On ch=1 n=70 v=74
12393 On ch=1 n=74 v=82
12393 On ch=1 n=65 v=77
12396 On ch=1 n=58 v=62
12421 On ch=1 n=62 v=0
12434 On ch=1 n=70 v=0
12435 On ch=1 n=74 v=0
12451 On ch=1 n=62 v=61
12452 On ch=1 n=65 v=82
12453 On ch=1 n=69 v=79
12453 On ch=1 n=72 v=79
12455 On ch=1 n=65 v=0
12483 Par ch=1 c=64 v=0
12495 On ch=1 n=58 v=0
12496 On ch=1 n=62 v=0
12517 On ch=1 n=53 v=54
12583 On ch=1 n=60 v=36
12619 On ch=1 n=65 v=0
12636 On ch=1 n=69 v=0
12643 On ch=1 n=55 v=50
12644 Par ch=1 c=64 v=127
12707 On ch=1 n=60 v=47
12744 On ch=1 n=72 v=0
12753 On ch=1 n=53 v=0
12770 On ch=1 n=57 v=68
12771 On ch=1 n=60 v=0
12772 On ch=1 n=55 v=0
12790 On ch=1 n=60 v=0
12831 On ch=1 n=57 v=0
12831 On ch=1 n=65 v=76
12833 On ch=1 n=60 v=47
12839 On ch=1 n=65 v=0
12871 On ch=1 n=60 v=0
12885 On ch=1 n=65 v=69
12889 On ch=1 n=53 v=51
12901 On ch=1 n=65 v=0
12940 On ch=1 n=60 v=47
12944 On ch=1 n=65 v=70
12950 On ch=1 n=53 v=0
12955 On ch=1 n=60 v=0
13001 On ch=1 n=65 v=0
13003 On ch=1 n=65 v=77
13005 On ch=1 n=69 v=76
13010 On ch=1 n=57 v=63
13027 On ch=1 n=65 v=0
13027 On ch=1 n=69 v=0
13063 On ch=1 n=69 v=67
13064 On ch=1 n=65 v=64
13074 On ch=1 n=57 v=0
13089 On ch=1 n=69 v=0
13124 On ch=1 n=65 v=0
13125 On ch=1 n=65 v=77
13125 On ch=1 n=72 v=74
13125 On ch=1 n=60 v=54
13145 On ch=1 n=65 v=0
13151 On ch=1 n=72 v=0
13165 On ch=1 n=60 v=0
13182 On ch=1 n=57 v=52
13183 On ch=1 n=72 v=74
13186 On ch=1 n=65 v=62
13202 On ch=1 n=60 v=43
13205 On ch=1 n=57 v=0
13216 On ch=1 n=72 v=0
13217 On ch=1 n=65 v=0
13242 Par ch=1 c=64 v=0
13243 On ch=1 n=74 v=80
13243 On ch=1 n=65 v=78
13245 On ch=1 n=60 v=0
13245 On ch=1 n=70 v=75
13247 On ch=1 n=53 v=60
13298 Par ch=1 c=64 v=127
13308 On ch=1 n=62 v=40
13325 On ch=1 n=74 v=0
13327 On ch=1 n=65 v=0
13337 On ch=1 n=70 v=0
13350 On ch=1 n=53 v=0
13366 On ch=1 n=58 v=63
13366 On ch=1 n=74 v=73
13369 On ch=1 n=70 v=66
13369 On ch=1 n=65 v=66
13400 On ch=1 n=62 v=0
13413 On ch=1 n=58 v=0
13415 On ch=1 n=74 v=0
13420 On ch=1 n=70 v=0
13423 On ch=1 n=62 v=57
13432 On ch=1 n=65 v=76
13434 On ch=1 n=72 v=66
13434 On ch=1 n=69 v=70
13463 Par ch=1 c=64 v=0
13471 On ch=1 n=65 v=0
13476 On ch=1 n=62 v=0
13487 On ch=1 n=53 v=55
13532 Par ch=1 c=64 v=127
13552 On ch=1 n=60 v=52
13573 On ch=1 n=65 v=0
13604 On ch=1 n=72 v=0
13614 On ch=1 n=55 v=49
13673 On ch=1 n=60 v=44
13690 On ch=1 n=69 v=0
13720 On ch=1 n=53 v=0
13737 On ch=1 n=57 v=57
13797 On ch=1 n=60 v=47
13811 On ch=1 n=60 v=0
13818 On ch=1 n=55 v=0
13843 On ch=1 n=60 v=0
13853 On ch=1 n=57 v=0
13858 On ch=1 n=65 v=69
13860 On ch=1 n=53 v=54
13880 On ch=1 n=60 v=0
13909 On ch=1 n=65 v=0
13914 On ch=1 n=65 v=77
13915 On ch=1 n=60 v=54
13917 On ch=1 n=53 v=0
13961 On ch=1 n=65 v=0
13972 On ch=1 n=53 v=56
13976 On ch=1 n=69 v=84
14016 On ch=1 n=60 v=0
14034 On ch=1 n=60 v=46
14043 On ch=1 n=53 v=0
14082 On ch=1 n=69 v=0
14088 On ch=1 n=60 v=0
14091 On ch=1 n=57 v=65
14092 On ch=1 n=72 v=85
14098 On ch=1 n=65 v=61
14107 On ch=1 n=57 v=0
14120 On ch=1 n=72 v=0
14151 On ch=1 n=72 v=83
14152 On ch=1 n=60 v=49
14155 On ch=1 n=65 v=74
14165 On ch=1 n=65 v=0
14171 On ch=1 n=72 v=0
14183 On ch=1 n=60 v=0
14198 On ch=1 n=65 v=0
14208 On ch=1 n=65 v=97
14209 On ch=1 n=74 v=95
14210 On ch=1 n=53 v=67
14210 On ch=1 n=70 v=90
14217 Par ch=1 c=64 v=0
14263 Par ch=1 c=64 v=127
14270 On ch=1 n=62 v=53
14288 On ch=1 n=65 v=0
14289 On ch=1 n=74 v=0
14299 On ch=1 n=53 v=0
14329 On ch=1 n=70 v=0
14332 On ch=1 n=74 v=86
14333 On ch=1 n=65 v=84
14334 On ch=1 n=70 v=79
14335 On ch=1 n=58 v=62
14352 On ch=1 n=62 v=0
14358 On ch=1 n=74 v=0
14362 On ch=1 n=65 v=0
14383 On ch=1 n=62 v=60
14391 On ch=1 n=74 v=82
14392 On ch=1 n=70 v=0
14393 On ch=1 n=65 v=82
14394 On ch=1 n=70 v=82
14411 On ch=1 n=58 v=0
14412 On ch=1 n=62 v=0
14418 On ch=1 n=74 v=0
14420 On ch=1 n=65 v=0
14425 On ch=1 n=70 v=0
14450 On ch=1 n=65 v=78
14451 On ch=1 n=70 v=77
14452 On ch=1 n=74 v=74
14455 On ch=1 n=53 v=59
14462 On ch=1 n=65 v=0
14470 On ch=1 n=70 v=0
14475 On ch=1 n=74 v=0
14508 On ch=1 n=74 v=77
14508 On ch=1 n=65 v=76
14511 On ch=1 n=62 v=55
14523 On ch=1 n=53 v=0
14528 On ch=1 n=74 v=0
14538 On ch=1 n=65 v=0
14570 On ch=1 n=76 v=83
14571 On ch=1 n=67 v=83
14572 On ch=1 n=72 v=77
14573 On ch=1 n=58 v=61
14579 On ch=1 n=62 v=0
14581 On ch=1 n=76 v=0
14588 On ch=1 n=67 v=0
14638 On ch=1 n=62 v=67
14647 On ch=1 n=72 v=0
14657 On ch=1 n=58 v=0
14670 On ch=1 n=62 v=0
14693 On ch=1 n=77 v=88
14694 On ch=1 n=69 v=95
14695 On ch=1 n=74 v=91
14698 On ch=1 n=53 v=69
14702 Par ch=1 c=64 v=0
14724 On ch=1 n=77 v=0
14730 On ch=1 n=69 v=0
14730 On ch=1 n=74 v=0
14735 Par ch=1 c=64 v=127
14750 On ch=1 n=62 v=62
14754 On ch=1 n=77 v=82
14755 On ch=1 n=74 v=80
14755 On ch=1 n=69 v=83
14774 On ch=1 n=53 v=0
14776 On ch=1 n=62 v=0
14780 On ch=1 n=77 v=0
14782 On ch=1 n=74 v=0
14809 On ch=1 n=58 v=68
14812 On ch=1 n=69 v=87
14813 On ch=1 n=77 v=82
14814 On ch=1 n=74 v=86
14831 On ch=1 n=69 v=0
14833 On ch=1 n=58 v=0
14837 On ch=1 n=69 v=0
14868 On ch=1 n=77 v=77
14869 On ch=1 n=74 v=81
14870 On ch=1 n=69 v=77
14870 On ch=1 n=62 v=59
14874 On ch=1 n=77 v=0
14884 On ch=1 n=74 v=0
14886 On ch=1 n=77 v=0
14888 On ch=1 n=74 v=0
14889 On ch=1 n=69 v=0
14899 On ch=1 n=62 v=0
14924 On ch=1 n=53 v=73
14926 On ch=1 n=76 v=82
14926 On ch=1 n=72 v=79
14928 On ch=1 n=67 v=81
14945 On ch=1 n=53 v=0
14957 On ch=1 n=76 v=0
14959 On ch=1 n=72 v=0
14986 On ch=1 n=74 v=86
14986 On ch=1 n=70 v=84
14987 On ch=1 n=67 v=74
15008 On ch=1 n=67 v=0
15018 On ch=1 n=74 v=0
15020 On ch=1 n=70 v=0
15047 On ch=1 n=58 v=72
15083 On ch=1 n=67 v=0
15108 On ch=1 n=62 v=46
15110 On ch=1 n=69 v=77
15111 On ch=1 n=72 v=73
15112 On ch=1 n=65 v=70
15138 Par ch=1 c=64 v=0
15145 On ch=1 n=58 v=0
15150 On ch=1 n=62 v=0
15174 On ch=1 n=53 v=62
15233 On ch=1 n=60 v=40
15255 Par ch=1 c=64 v=127
15281 On ch=1 n=69 v=0
15299 On ch=1 n=72 v=0
15303 On ch=1 n=55 v=51
15366 On ch=1 n=60 v=39
15375 On ch=1 n=65 v=0
15423 On ch=1 n=53 v=0
15429 On ch=1 n=53 v=44
15432 On ch=1 n=60 v=0
15486 On ch=1 n=55 v=0
15486 On ch=1 n=60 v=48
15487 On ch=1 n=69 v=86
15534 On ch=1 n=60 v=0
15534 On ch=1 n=53 v=0
15551 On ch=1 n=72 v=77
15554 On ch=1 n=55 v=51
15571 On ch=1 n=60 v=0
15578 On ch=1 n=74 v=70
15585 On ch=1 n=69 v=0
15586 On ch=1 n=72 v=0
15591 On ch=1 n=60 v=39
15598 On ch=1 n=72 v=68
15610 On ch=1 n=55 v=0
15613 On ch=1 n=74 v=0
15664 On ch=1 n=60 v=0
15664 Par ch=1 c=64 v=0
15665 On ch=1 n=69 v=81
15665 On ch=1 n=50 v=58
15731 On ch=1 n=57 v=52
15772 On ch=1 n=72 v=0
15774 On ch=1 n=69 v=0
15792 On ch=1 n=52 v=47
15846 Par ch=1 c=64 v=127
15849 On ch=1 n=50 v=0
15851 On ch=1 n=57 v=58
15898 On ch=1 n=57 v=0
15912 On ch=1 n=50 v=46
15976 On ch=1 n=57 v=52
16013 On ch=1 n=52 v=0
16016 On ch=1 n=57 v=0
16034 On ch=1 n=52 v=52
16093 On ch=1 n=50 v=0
16097 On ch=1 n=57 v=66
16136 On ch=1 n=57 v=0
16154 On ch=1 n=53 v=71
16176 Par ch=1 c=64 v=0
16181 On ch=1 n=52 v=0
16206 On ch=1 n=60 v=60
16214 On ch=1 n=65 v=69
16216 On ch=1 n=57 v=0
16227 Par ch=1 c=64 v=127
16237 On ch=1 n=53 v=0
16252 On ch=1 n=60 v=0
16270 On ch=1 n=65 v=0
16272 On ch=1 n=55 v=53
16276 On ch=1 n=65 v=71
16301 On ch=1 n=55 v=0
16335 On ch=1 n=65 v=75
16336 On ch=1 n=60 v=56
16341 On ch=1 n=65 v=0
16386 On ch=1 n=65 v=0
16389 Par ch=1 c=64 v=0
16391 On ch=1 n=72 v=69
16395 On ch=1 n=52 v=60
16405 On ch=1 n=60 v=0
16451 On ch=1 n=60 v=48
16453 Par ch=1 c=64 v=127
16458 On ch=1 n=72 v=0
16485 On ch=1 n=52 v=0
16509 On ch=1 n=50 v=60
16563 On ch=1 n=60 v=0
16570 On ch=1 n=60 v=48
16624 On ch=1 n=50 v=0
16636 On ch=1 n=52 v=46
16686 On ch=1 n=60 v=0
16688 On ch=1 n=60 v=46
16698 On ch=1 n=52 v=0
16723 On ch=1 n=60 v=0
16747 On ch=1 n=50 v=56
16786 On ch=1 n=50 v=0
16806 On ch=1 n=57 v=57
16812 On ch=1 n=64 v=67
16846 On ch=1 n=57 v=0
16846 On ch=1 n=64 v=0
16866 On ch=1 n=50 v=69
16869 On ch=1 n=65 v=67
16872 Par ch=1 c=64 v=0
16926 On ch=1 n=57 v=49
16929 On ch=1 n=50 v=0
16933 On ch=1 n=62 v=66
16947 On ch=1 n=65 v=0
16974 On ch=1 n=57 v=0
16987 On ch=1 n=52 v=46
17001 Par ch=1 c=64 v=127
17047 On ch=1 n=57 v=45
17051 On ch=1 n=62 v=0
17093 On ch=1 n=52 v=0
17115 On ch=1 n=53 v=46
17172 On ch=1 n=57 v=52
17197 On ch=1 n=57 v=0
17222 On ch=1 n=53 v=0
17239 On ch=1 n=52 v=38
17293 On ch=1 n=57 v=0
17297 On ch=1 n=57 v=60
17348 Par ch=1 c=64 v=0
17357 On ch=1 n=50 v=56
17361 Par ch=1 c=64 v=127
17370 On ch=1 n=52 v=0
17417 On ch=1 n=62 v=61
17443 On ch=1 n=57 v=0
17480 On ch=1 n=62 v=66
17504 On ch=1 n=50 v=0
17542 On ch=1 n=62 v=61
17602 On ch=1 n=65 v=70
17606 On ch=1 n=53 v=48
17625 On ch=1 n=62 v=0
17664 On ch=1 n=65 v=63
17670 On ch=1 n=62 v=0
17698 On ch=1 n=62 v=0
17709 On ch=1 n=65 v=0
17714 On ch=1 n=62 v=33
17721 On ch=1 n=69 v=70
17722 On ch=1 n=53 v=0
17724 On ch=1 n=57 v=67
17785 On ch=1 n=65 v=0
17786 On ch=1 n=53 v=46
17786 On ch=1 n=65 v=66
17792 On ch=1 n=62 v=0
17793 On ch=1 n=69 v=0
17796 On ch=1 n=57 v=0
17814 On ch=1 n=53 v=0
17825 On ch=1 n=65 v=0
17838 On ch=1 n=48 v=61
17842 On ch=1 n=60 v=57
17843 On ch=1 n=64 v=66
17846 On ch=1 n=67 v=57
17852 Par ch=1 c=64 v=0
17906 On ch=1 n=55 v=48
17940 On ch=1 n=48 v=0
17943 Par ch=1 c=64 v=127
17968 On ch=1 n=60 v=0
17968 On ch=1 n=50 v=53
18033 On ch=1 n=55 v=47
18049 On ch=1 n=64 v=0
18088 On ch=1 n=67 v=0
18090 On ch=1 n=52 v=51
18152 On ch=1 n=55 v=45
18170 On ch=1 n=55 v=0
18197 On ch=1 n=50 v=0
18214 On ch=1 n=50 v=53
18262 On ch=1 n=55 v=0
18271 On ch=1 n=55 v=49
18302 Par ch=1 c=64 v=0
18323 On ch=1 n=52 v=0
18329 On ch=1 n=48 v=54
18333 Par ch=1 c=64 v=127
18337 On ch=1 n=55 v=0
18396 On ch=1 n=55 v=39
18400 On ch=1 n=50 v=0
18404 On ch=1 n=55 v=0
18427 On ch=1 n=48 v=0
18454 On ch=1 n=50 v=52
18456 On ch=1 n=60 v=61
18469 On ch=1 n=55 v=0
18513 On ch=1 n=55 v=41
18516 On ch=1 n=60 v=69
18521 On ch=1 n=50 v=0
18538 On ch=1 n=60 v=0
18538 On ch=1 n=55 v=0
18572 On ch=1 n=64 v=80
18573 On ch=1 n=52 v=49
18586 On ch=1 n=60 v=0
18592 On ch=1 n=64 v=0
18630 On ch=1 n=55 v=53
18633 On ch=1 n=64 v=78
18652 On ch=1 n=52 v=0
18662 On ch=1 n=55 v=0
18666 On ch=1 n=64 v=0
18696 On ch=1 n=67 v=74
18697 On ch=1 n=48 v=59
18744 On ch=1 n=67 v=0
18747 On ch=1 n=55 v=54
18750 On ch=1 n=64 v=63
18754 On ch=1 n=48 v=0
18780 On ch=1 n=55 v=0
18784 On ch=1 n=64 v=0
18804 Par ch=1 c=64 v=0
18805 On ch=1 n=62 v=63
18806 On ch=1 n=50 v=60
18808 On ch=1 n=65 v=67
18870 On ch=1 n=57 v=49
18871 Par ch=1 c=64 v=127
18901 On ch=1 n=62 v=0
18917 On ch=1 n=50 v=0
18930 On ch=1 n=52 v=43
18978 On ch=1 n=65 v=0
18994 On ch=1 n=57 v=34
19023 On ch=1 n=57 v=0
19058 On ch=1 n=53 v=39
19114 On ch=1 n=57 v=48
19146 On ch=1 n=52 v=0
19176 On ch=1 n=57 v=0
19182 On ch=1 n=52 v=45
19238 On ch=1 n=53 v=0
19242 On ch=1 n=57 v=49
19307 On ch=1 n=57 v=0
19307 On ch=1 n=50 v=61
19329 On ch=1 n=52 v=0
19344 On ch=1 n=57 v=0
19364 On ch=1 n=57 v=51
19383 On ch=1 n=50 v=0
19400 On ch=1 n=57 v=0
19428 On ch=1 n=65 v=47
19428 On ch=1 n=52 v=39
19446 On ch=1 n=65 v=0
19487 On ch=1 n=65 v=67
19487 On ch=1 n=57 v=47
19502 On ch=1 n=52 v=0
19508 On ch=1 n=65 v=0
19511 On ch=1 n=57 v=0
19549 On ch=1 n=69 v=77
19554 On ch=1 n=53 v=38
19570 On ch=1 n=69 v=0
19608 On ch=1 n=69 v=76
19629 On ch=1 n=53 v=0
19663 On ch=1 n=69 v=0
19666 On ch=1 n=57 v=69
19666 On ch=1 n=72 v=82
19695 On ch=1 n=57 v=0
19704 On ch=1 n=72 v=0
19728 On ch=1 n=72 v=76
19732 On ch=1 n=57 v=55
19759 On ch=1 n=72 v=0
19760 On ch=1 n=57 v=0
19782 On ch=1 n=53 v=67
19784 On ch=1 n=65 v=79
19784 On ch=1 n=74 v=87
19786 On ch=1 n=70 v=80
19797 Par ch=1 c=64 v=0
19851 Par ch=1 c=64 v=127
19872 On ch=1 n=53 v=0
19873 On ch=1 n=65 v=0
19887 On ch=1 n=74 v=0
19911 On ch=1 n=58 v=63
19912 On ch=1 n=70 v=65
19913 On ch=1 n=74 v=74
19916 On ch=1 n=65 v=58
19932 On ch=1 n=70 v=0
19943 On ch=1 n=58 v=0
19948 On ch=1 n=70 v=0
19965 On ch=1 n=62 v=63
19970 On ch=1 n=74 v=0
19973 On ch=1 n=65 v=85
19973 On ch=1 n=72 v=82
19976 On ch=1 n=69 v=77
19992 Par ch=1 c=64 v=0
19994 On ch=1 n=65 v=0
20002 On ch=1 n=62 v=0
20032 On ch=1 n=53 v=51
20066 Par ch=1 c=64 v=127
20091 On ch=1 n=60 v=44
20127 On ch=1 n=65 v=0
20142 On ch=1 n=72 v=0
20156 On ch=1 n=55 v=49
20218 On ch=1 n=60 v=49
20244 On ch=1 n=69 v=0
20252 On ch=1 n=53 v=0
20280 On ch=1 n=57 v=64
20281 On ch=1 n=60 v=0
20338 On ch=1 n=65 v=58
20343 On ch=1 n=60 v=49
20350 On ch=1 n=55 v=0
20364 On ch=1 n=60 v=0
20382 On ch=1 n=57 v=0
20402 On ch=1 n=53 v=53
20405 On ch=1 n=65 v=59
20415 On ch=1 n=65 v=0
20458 On ch=1 n=60 v=50
20459 On ch=1 n=65 v=74
20460 On ch=1 n=60 v=0
20508 On ch=1 n=53 v=0
20520 On ch=1 n=69 v=81
20521 On ch=1 n=57 v=66
20539 On ch=1 n=65 v=0
20585 On ch=1 n=60 v=49
20586 On ch=1 n=69 v=78
20587 On ch=1 n=60 v=0
20587 On ch=1 n=65 v=0
20612 On ch=1 n=69 v=0
20612 On ch=1 n=57 v=0
20613 On ch=1 n=60 v=0
20627 On ch=1 n=65 v=8
20639 On ch=1 n=57 v=58
20642 On ch=1 n=72 v=77
20661 On ch=1 n=69 v=0
20665 On ch=1 n=65 v=0
20690 On ch=1 n=65 v=39
20701 On ch=1 n=72 v=71
20702 On ch=1 n=60 v=55
20707 On ch=1 n=57 v=0
20730 On ch=1 n=72 v=0
20734 On ch=1 n=65 v=0
20736 On ch=1 n=72 v=0
20751 On ch=1 n=60 v=0
20761 On ch=1 n=70 v=82
20762 On ch=1 n=74 v=85
20762 On ch=1 n=65 v=82
20764 On ch=1 n=53 v=61
20769 Par ch=1 c=64 v=0
20824 On ch=1 n=62 v=52
20828 Par ch=1 c=64 v=127
20848 On ch=1 n=70 v=0
20849 On ch=1 n=74 v=0
20867 On ch=1 n=65 v=0
20887 On ch=1 n=58 v=63
20887 On ch=1 n=70 v=67
20888 On ch=1 n=74 v=68
20889 On ch=1 n=65 v=61
20893 On ch=1 n=53 v=0
20908 On ch=1 n=62 v=0
20920 On ch=1 n=58 v=0
20925 On ch=1 n=70 v=0
20943 On ch=1 n=62 v=59
20947 On ch=1 n=65 v=76
20948 On ch=1 n=74 v=0
20948 On ch=1 n=72 v=73
20949 On ch=1 n=69 v=74
20954 Par ch=1 c=64 v=0
20988 On ch=1 n=65 v=0
20992 On ch=1 n=62 v=0
21008 On ch=1 n=53 v=54
21037 Par ch=1 c=64 v=127
21069 On ch=1 n=60 v=42
21099 On ch=1 n=65 v=0
21122 On ch=1 n=72 v=0
21132 On ch=1 n=55 v=50
21188 On ch=1 n=60 v=42
21213 On ch=1 n=69 v=0
21245 On ch=1 n=53 v=0
21257 On ch=1 n=57 v=53
21316 On ch=1 n=60 v=0
21317 On ch=1 n=60 v=43
21341 On ch=1 n=55 v=0
21360 On ch=1 n=60 v=0
21376 On ch=1 n=53 v=53
21378 On ch=1 n=65 v=60
21389 On ch=1 n=57 v=0
21435 On ch=1 n=60 v=45
21437 On ch=1 n=65 v=59
21443 On ch=1 n=60 v=0
21449 On ch=1 n=53 v=0
21467 On ch=1 n=65 v=0
21472 On ch=1 n=60 v=0
21473 On ch=1 n=65 v=0
21493 On ch=1 n=53 v=64
21495 On ch=1 n=74 v=82
21502 On ch=1 n=65 v=48
21557 On ch=1 n=62 v=55
21565 On ch=1 n=53 v=0
21565 On ch=1 n=74 v=0
21592 On ch=1 n=65 v=0
21614 On ch=1 n=74 v=72
21615 On ch=1 n=65 v=70
21616 On ch=1 n=58 v=62
21617 On ch=1 n=70 v=65
21625 On ch=1 n=62 v=0
21627 On ch=1 n=74 v=0
21635 On ch=1 n=65 v=0
21639 On ch=1 n=58 v=0
21664 Par ch=1 c=64 v=0
21678 On ch=1 n=70 v=92
21678 On ch=1 n=62 v=64
21680 On ch=1 n=74 v=95
21680 On ch=1 n=65 v=95
21719 On ch=1 n=70 v=0
21731 On ch=1 n=70 v=0
21745 On ch=1 n=53 v=64
21761 Par ch=1 c=64 v=127
21772 On ch=1 n=62 v=0
21773 On ch=1 n=74 v=0
21776 On ch=1 n=65 v=0
21807 On ch=1 n=62 v=50
21839 On ch=1 n=53 v=0
21861 On ch=1 n=70 v=76
21861 On ch=1 n=58 v=69
21863 On ch=1 n=62 v=0
21864 On ch=1 n=74 v=80
21870 On ch=1 n=65 v=34
21879 On ch=1 n=70 v=0
21893 On ch=1 n=58 v=0
21895 On ch=1 n=74 v=0
21918 On ch=1 n=62 v=61
21921 On ch=1 n=76 v=76
21924 On ch=1 n=72 v=71
21946 On ch=1 n=65 v=0
21948 On ch=1 n=62 v=0
21954 On ch=1 n=76 v=0
21959 On ch=1 n=72 v=0
21980 On ch=1 n=74 v=92
21982 On ch=1 n=77 v=82
21983 On ch=1 n=53 v=67
21998 Par ch=1 c=64 v=0
22045 On ch=1 n=62 v=54
22066 Par ch=1 c=64 v=127
22071 On ch=1 n=74 v=0
22078 On ch=1 n=77 v=0
22090 On ch=1 n=53 v=0
22111 On ch=1 n=58 v=53
22114 On ch=1 n=77 v=72
22115 On ch=1 n=74 v=75
22136 On ch=1 n=62 v=0
22138 On ch=1 n=58 v=0
22174 On ch=1 n=77 v=71
22175 On ch=1 n=62 v=52
22175 On ch=1 n=74 v=73
22179 On ch=1 n=77 v=0
22196 On ch=1 n=74 v=0
22200 On ch=1 n=77 v=0
22203 On ch=1 n=62 v=0
22213 On ch=1 n=74 v=0
22225 Par ch=1 c=64 v=0
22233 On ch=1 n=72 v=73
22235 On ch=1 n=76 v=66
22237 On ch=1 n=53 v=57
22250 Par ch=1 c=64 v=127
22265 On ch=1 n=72 v=0
22268 On ch=1 n=76 v=0
22294 On ch=1 n=62 v=49
22295 On ch=1 n=70 v=69
22296 On ch=1 n=74 v=69
22311 On ch=1 n=53 v=0
22315 On ch=1 n=62 v=0
22333 On ch=1 n=70 v=0
22357 On ch=1 n=58 v=54
22400 On ch=1 n=74 v=0
22413 On ch=1 n=62 v=51
22415 On ch=1 n=65 v=67
22417 On ch=1 n=72 v=60
22417 On ch=1 n=69 v=68
22426 Par ch=1 c=64 v=0
22446 On ch=1 n=58 v=0
22446 On ch=1 n=62 v=0
22478 On ch=1 n=53 v=42
22501 Par ch=1 c=64 v=127
22539 On ch=1 n=60 v=40
22567 On ch=1 n=65 v=0
22597 On ch=1 n=72 v=0
22605 On ch=1 n=55 v=47
22667 On ch=1 n=60 v=48
22673 On ch=1 n=69 v=0
22717 On ch=1 n=53 v=0
22733 On ch=1 n=53 v=52
22749 On ch=1 n=60 v=0
22793 On ch=1 n=72 v=70
22793 On ch=1 n=60 v=44
22805 On ch=1 n=55 v=0
22818 On ch=1 n=60 v=0
22827 On ch=1 n=53 v=0
22837 On ch=1 n=72 v=0
22852 On ch=1 n=55 v=59
22853 On ch=1 n=69 v=1
22857 On ch=1 n=74 v=77
22905 On ch=1 n=60 v=0
22911 On ch=1 n=55 v=0
22913 On ch=1 n=69 v=0
22913 On ch=1 n=72 v=71
22914 On ch=1 n=60 v=55
22946 On ch=1 n=74 v=0
22969 Par ch=1 c=64 v=0
22972 On ch=1 n=69 v=71
22976 On ch=1 n=72 v=0
22976 On ch=1 n=50 v=64
23041 On ch=1 n=57 v=49
23063 Par ch=1 c=64 v=127
23072 On ch=1 n=60 v=0
23086 On ch=1 n=69 v=0
23100 On ch=1 n=52 v=51
23154 On ch=1 n=50 v=0
23158 On ch=1 n=57 v=64
23212 On ch=1 n=57 v=0
23217 On ch=1 n=50 v=62
23283 On ch=1 n=57 v=47
23316 On ch=1 n=52 v=0
23326 On ch=1 n=57 v=0
23343 On ch=1 n=52 v=52
23399 On ch=1 n=50 v=0
23408 On ch=1 n=57 v=67
23444 On ch=1 n=57 v=0
23460 On ch=1 n=53 v=63
23477 Par ch=1 c=64 v=0
23484 On ch=1 n=52 v=0
23519 On ch=1 n=57 v=0
23525 On ch=1 n=65 v=57
23530 Par ch=1 c=64 v=127
23530 On ch=1 n=60 v=29
23543 On ch=1 n=53 v=0
23553 On ch=1 n=65 v=0
23571 On ch=1 n=60 v=0
23587 On ch=1 n=55 v=37
23589 On ch=1 n=65 v=63
23600 On ch=1 n=55 v=0
23645 On ch=1 n=65 v=0
23649 On ch=1 n=65 v=66
23651 On ch=1 n=60 v=48
23687 On ch=1 n=65 v=0
23706 On ch=1 n=60 v=0
23706 On ch=1 n=72 v=65
23710 On ch=1 n=52 v=54
23719 Par ch=1 c=64 v=0
23774 On ch=1 n=60 v=47
23785 On ch=1 n=72 v=0
23818 On ch=1 n=52 v=0
23840 On ch=1 n=50 v=58
23858 Par ch=1 c=64 v=127
23893 On ch=1 n=60 v=0
23902 On ch=1 n=60 v=43
23951 On ch=1 n=50 v=0
23965 On ch=1 n=52 v=53
24023 On ch=1 n=60 v=51
24026 On ch=1 n=60 v=0
24050 On ch=1 n=52 v=0
24065 On ch=1 n=60 v=0
24105 On ch=1 n=57 v=62
24158 On ch=1 n=64 v=62
24200 On ch=1 n=57 v=0
24204 On ch=1 n=64 v=0
24217 On ch=1 n=50 v=62
24221 On ch=1 n=65 v=66
24226 Par ch=1 c=64 v=0
24275 On ch=1 n=57 v=57
24280 On ch=1 n=50 v=0
24282 On ch=1 n=62 v=67
24299 On ch=1 n=65 v=0
24316 Par ch=1 c=64 v=127
24332 On ch=1 n=57 v=0
24340 On ch=1 n=52 v=50
24402 On ch=1 n=57 v=46
24414 On ch=1 n=62 v=0
24429 On ch=1 n=52 v=0
24475 On ch=1 n=53 v=38
24532 On ch=1 n=57 v=38
24581 On ch=1 n=57 v=0
24589 On ch=1 n=53 v=0
24590 On ch=1 n=52 v=56
24651 On ch=1 n=50 v=77
24652 On ch=1 n=57 v=71
24661 On ch=1 n=57 v=0
24665 On ch=1 n=52 v=0
24672 On ch=1 n=50 v=0
24717 On ch=1 n=50 v=107
24719 On ch=1 n=38 v=87
24727 Par ch=1 c=64 v=0
24740 On ch=1 n=57 v=0
24763 On ch=1 n=50 v=0
24780 On ch=1 n=62 v=80
24790 Par ch=1 c=64 v=127
24802 On ch=1 n=38 v=0
24842 On ch=1 n=62 v=97
24903 On ch=1 n=62 v=100
24939 On ch=1 n=62 v=0
24960 On ch=1 n=62 v=82
24961 On ch=1 n=65 v=91
24964 On ch=1 n=57 v=94
24984 On ch=1 n=62 v=0
24996 On ch=1 n=62 v=0
24998 On ch=1 n=62 v=0
25020 On ch=1 n=62 v=64
25020 On ch=1 n=65 v=74
25023 On ch=1 n=57 v=77
25041 On ch=1 n=65 v=0
25045 On ch=1 n=57 v=0
25059 On ch=1 n=62 v=0
25080 On ch=1 n=57 v=102
25081 On ch=1 n=62 v=95
25082 On ch=1 n=69 v=102
25106 On ch=1 n=65 v=0
25139 On ch=1 n=45 v=82
25142 On ch=1 n=57 v=0
25144 On ch=1 n=65 v=71
25148 On ch=1 n=57 v=0
25149 On ch=1 n=62 v=0
25150 On ch=1 n=69 v=0
25152 On ch=1 n=45 v=0
25160 On ch=1 n=65 v=0
25201 On ch=1 n=43 v=19
25201 On ch=1 n=63 v=7
25204 On ch=1 n=36 v=75
25204 On ch=1 n=55 v=93
25206 On ch=1 n=60 v=83
25206 On ch=1 n=67 v=82
25208 On ch=1 n=64 v=92
25215 Par ch=1 c=64 v=0
25220 On ch=1 n=43 v=0
25286 On ch=1 n=63 v=0
25288 Par ch=1 c=64 v=127
25322 On ch=1 n=55 v=66
25377 On ch=1 n=36 v=0
25390 On ch=1 n=48 v=82
25406 On ch=1 n=55 v=0
25451 On ch=1 n=48 v=82
25454 On ch=1 n=60 v=0
25475 On ch=1 n=67 v=0
25488 On ch=1 n=64 v=0
25516 On ch=1 n=55 v=61
25538 On ch=1 n=55 v=0
25572 On ch=1 n=48 v=0
25575 On ch=1 n=60 v=61
25576 On ch=1 n=64 v=66
25578 On ch=1 n=55 v=59
25634 On ch=1 n=48 v=72
25642 On ch=1 n=48 v=0
25689 On ch=1 n=55 v=0
25700 On ch=1 n=48 v=87
25722 On ch=1 n=60 v=0
25749 On ch=1 n=55 v=7
25755 On ch=1 n=60 v=72
25763 On ch=1 n=64 v=0
25788 On ch=1 n=55 v=0
25814 On ch=1 n=55 v=25
25821 On ch=1 n=48 v=0
25822 On ch=1 n=60 v=77
25831 On ch=1 n=48 v=0
25884 On ch=1 n=60 v=71
25892 On ch=1 n=55 v=0
25894 On ch=1 n=60 v=0
25904 On ch=1 n=55 v=0
25933 On ch=1 n=60 v=0
25938 On ch=1 n=48 v=74
25940 On ch=1 n=60 v=75
25940 On ch=1 n=64 v=79
25941 On ch=1 n=55 v=75
25960 On ch=1 n=60 v=0
25966 On ch=1 n=48 v=0
25972 On ch=1 n=60 v=0
26000 On ch=1 n=60 v=62
26001 On ch=1 n=64 v=70
26003 On ch=1 n=55 v=59
26013 On ch=1 n=64 v=0
26021 On ch=1 n=55 v=0
26036 On ch=1 n=60 v=0
26060 On ch=1 n=60 v=98
26061 On ch=1 n=55 v=94
26061 On ch=1 n=67 v=94
26091 On ch=1 n=64 v=0
26113 On ch=1 n=55 v=0
26119 On ch=1 n=60 v=0
26122 On ch=1 n=64 v=82
26132 On ch=1 n=55 v=0
26134 On ch=1 n=45 v=71
26136 On ch=1 n=67 v=0
26170 On ch=1 n=64 v=0
26181 Par ch=1 c=64 v=0
26186 On ch=1 n=45 v=0
26187 On ch=1 n=62 v=82
26188 On ch=1 n=65 v=86
26189 On ch=1 n=57 v=82
26192 On ch=1 n=38 v=66
26196 On ch=1 n=50 v=57
26243 Par ch=1 c=64 v=127
26263 On ch=1 n=62 v=0
26271 On ch=1 n=65 v=0
26316 On ch=1 n=53 v=55
26317 On ch=1 n=62 v=63
26319 On ch=1 n=57 v=54
26371 On ch=1 n=45 v=61
26373 On ch=1 n=57 v=0
26436 On ch=1 n=50 v=74
26445 On ch=1 n=38 v=0
26485 On ch=1 n=50 v=0
26490 On ch=1 n=53 v=0
26494 On ch=1 n=53 v=53
26516 On ch=1 n=62 v=0
26558 On ch=1 n=62 v=58
26562 On ch=1 n=57 v=62
26563 On ch=1 n=53 v=60
26577 On ch=1 n=57 v=0
26623 On ch=1 n=50 v=71
26635 On ch=1 n=45 v=0
26648 On ch=1 n=50 v=0
26667 On ch=1 n=53 v=0
26682 On ch=1 n=62 v=0
26685 On ch=1 n=38 v=74
26688 On ch=1 n=57 v=0
26690 On ch=1 n=53 v=0
26739 On ch=1 n=50 v=71
26806 On ch=1 n=65 v=84
26824 On ch=1 n=50 v=0
26830 On ch=1 n=38 v=0
26860 On ch=1 n=65 v=83
26868 On ch=1 n=50 v=68
26882 On ch=1 n=50 v=0
26889 On ch=1 n=65 v=0
26916 On ch=1 n=38 v=69
26918 On ch=1 n=69 v=88
26919 On ch=1 n=65 v=87
26949 On ch=1 n=65 v=0
26950 On ch=1 n=50 v=0
26977 On ch=1 n=69 v=75
26980 On ch=1 n=65 v=58
26992 On ch=1 n=38 v=0
27008 On ch=1 n=69 v=0
27013 On ch=1 n=65 v=0
27041 On ch=1 n=72 v=84
27042 On ch=1 n=65 v=82
27045 On ch=1 n=50 v=70
27055 On ch=1 n=69 v=0
27065 On ch=1 n=65 v=0
27070 On ch=1 n=72 v=0
27072 On ch=1 n=65 v=0
27086 On ch=1 n=50 v=0
27097 On ch=1 n=50 v=75
27100 On ch=1 n=72 v=74
27103 On ch=1 n=65 v=68
27123 On ch=1 n=48 v=74
27127 On ch=1 n=50 v=0
27134 On ch=1 n=72 v=0
27139 On ch=1 n=65 v=0
27144 On ch=1 n=48 v=0
27153 On ch=1 n=46 v=83
27161 On ch=1 n=65 v=94
27161 On ch=1 n=70 v=88
27162 On ch=1 n=74 v=93
27166 Par ch=1 c=64 v=0
27194 On ch=1 n=46 v=0
27219 On ch=1 n=65 v=69
27222 Par ch=1 c=64 v=127
27229 On ch=1 n=65 v=0
27233 On ch=1 n=70 v=0
27257 On ch=1 n=74 v=0
27282 On ch=1 n=65 v=84
27284 On ch=1 n=74 v=84
27284 On ch=1 n=70 v=83
27297 On ch=1 n=65 v=0
27300 On ch=1 n=65 v=0
27302 On ch=1 n=74 v=0
27342 On ch=1 n=69 v=75
27343 On ch=1 n=72 v=74
27343 On ch=1 n=65 v=78
27345 On ch=1 n=60 v=76
27370 Par ch=1 c=64 v=0
27408 On ch=1 n=41 v=60
27420 On ch=1 n=70 v=0
27424 Par ch=1 c=64 v=127
27436 On ch=1 n=69 v=0
27450 On ch=1 n=72 v=0
27461 On ch=1 n=65 v=0
27471 On ch=1 n=60 v=35
27484 On ch=1 n=60 v=0
27528 On ch=1 n=60 v=58
27531 On ch=1 n=65 v=60
27531 On ch=1 n=69 v=60
27585 On ch=1 n=48 v=69
27606 On ch=1 n=41 v=0
27632 On ch=1 n=60 v=0
27636 On ch=1 n=60 v=0
27644 On ch=1 n=65 v=0
27649 On ch=1 n=41 v=61
27653 On ch=1 n=69 v=0
27717 On ch=1 n=65 v=64
27732 On ch=1 n=48 v=0
27774 On ch=1 n=65 v=77
27789 On ch=1 n=41 v=0
27832 On ch=1 n=65 v=74
27840 On ch=1 n=65 v=0
27854 On ch=1 n=65 v=0
27886 On ch=1 n=41 v=59
27888 On ch=1 n=65 v=76
27890 On ch=1 n=69 v=77
27910 On ch=1 n=65 v=0
27913 On ch=1 n=41 v=0
27950 On ch=1 n=69 v=74
27952 On ch=1 n=65 v=63
27970 On ch=1 n=65 v=0
27982 On ch=1 n=69 v=0
28010 On ch=1 n=72 v=84
28010 On ch=1 n=65 v=85
28035 On ch=1 n=69 v=0
28036 On ch=1 n=65 v=0
28042 On ch=1 n=72 v=0
28044 On ch=1 n=65 v=0
28067 On ch=1 n=41 v=79
28069 On ch=1 n=72 v=78
28072 On ch=1 n=65 v=72
28091 On ch=1 n=41 v=0
28103 On ch=1 n=72 v=0
28110 On ch=1 n=65 v=0
28122 Par ch=1 c=64 v=0
28129 On ch=1 n=70 v=90
28130 On ch=1 n=65 v=94
28131 On ch=1 n=74 v=94
28131 On ch=1 n=46 v=81
28162 On ch=1 n=70 v=0
28179 Par ch=1 c=64 v=127
28193 On ch=1 n=65 v=70
28195 On ch=1 n=65 v=0
28196 On ch=1 n=74 v=0
28221 On ch=1 n=46 v=0
28255 On ch=1 n=74 v=84
28256 On ch=1 n=70 v=83
28258 On ch=1 n=65 v=81
28277 On ch=1 n=65 v=0
28284 On ch=1 n=74 v=0
28289 On ch=1 n=70 v=0
28312 On ch=1 n=72 v=86
28312 On ch=1 n=69 v=88
28313 On ch=1 n=65 v=78
28319 Par ch=1 c=64 v=0
28373 On ch=1 n=41 v=64
28386 Par ch=1 c=64 v=127
28398 On ch=1 n=65 v=0
28403 On ch=1 n=72 v=0
28410 On ch=1 n=69 v=0
28439 On ch=1 n=48 v=58
28494 On ch=1 n=69 v=59
28495 On ch=1 n=60 v=57
28496 On ch=1 n=65 v=51
28558 On ch=1 n=53 v=64
28574 On ch=1 n=65 v=0
28580 On ch=1 n=41 v=0
28620 On ch=1 n=48 v=68
28638 On ch=1 n=48 v=0
28662 On ch=1 n=69 v=0
28678 On ch=1 n=60 v=0
28679 On ch=1 n=60 v=58
28698 On ch=1 n=65 v=0
28739 On ch=1 n=65 v=75
28741 On ch=1 n=60 v=51
28742 On ch=1 n=53 v=55
28750 On ch=1 n=53 v=0
28758 On ch=1 n=48 v=0
28764 On ch=1 n=60 v=0
28795 On ch=1 n=65 v=73
28801 On ch=1 n=53 v=64
28814 On ch=1 n=65 v=0
28820 On ch=1 n=60 v=0
28823 On ch=1 n=53 v=0
28829 On ch=1 n=65 v=0
28849 On ch=1 n=53 v=0
28853 On ch=1 n=41 v=64
28853 On ch=1 n=65 v=84
28855 On ch=1 n=69 v=82
28856 On ch=1 n=60 v=76
28878 On ch=1 n=41 v=0
28892 On ch=1 n=65 v=0
28904 On ch=1 n=69 v=0
28913 On ch=1 n=53 v=69
28917 On ch=1 n=60 v=55
28938 On ch=1 n=60 v=0
28977 On ch=1 n=72 v=82
28979 On ch=1 n=60 v=77
28979 On ch=1 n=65 v=79
28982 On ch=1 n=69 v=71
28983 On ch=1 n=53 v=0
28997 On ch=1 n=60 v=0
29007 On ch=1 n=72 v=0
29008 On ch=1 n=60 v=0
29011 On ch=1 n=65 v=0
29035 On ch=1 n=53 v=72
29039 On ch=1 n=72 v=82
29041 On ch=1 n=65 v=62
29050 On ch=1 n=69 v=0
29059 On ch=1 n=53 v=0
29065 On ch=1 n=72 v=0
29082 On ch=1 n=65 v=0
29097 On ch=1 n=70 v=92
29098 On ch=1 n=74 v=93
29099 On ch=1 n=46 v=83
29100 On ch=1 n=65 v=91
29106 Par ch=1 c=64 v=0
29146 On ch=1 n=70 v=0
29161 Par ch=1 c=64 v=127
29166 On ch=1 n=74 v=0
29166 On ch=1 n=46 v=0
29168 On ch=1 n=65 v=70
29194 On ch=1 n=65 v=0
29226 On ch=1 n=65 v=92
29227 On ch=1 n=74 v=94
29229 On ch=1 n=70 v=86
29248 On ch=1 n=65 v=0
29254 On ch=1 n=65 v=0
29261 On ch=1 n=74 v=0
29286 On ch=1 n=74 v=92
29286 On ch=1 n=70 v=80
29287 On ch=1 n=65 v=90
29307 On ch=1 n=70 v=0
29311 On ch=1 n=74 v=0
29311 On ch=1 n=70 v=0
29320 On ch=1 n=65 v=0
29335 On ch=1 n=46 v=85
29342 On ch=1 n=65 v=85
29343 On ch=1 n=74 v=86
29343 On ch=1 n=70 v=76
29366 On ch=1 n=46 v=0
29370 On ch=1 n=65 v=0
29371 On ch=1 n=74 v=0
29378 On ch=1 n=70 v=0
29400 On ch=1 n=46 v=85
29402 On ch=1 n=74 v=83
29402 On ch=1 n=65 v=80
29420 On ch=1 n=46 v=0
29423 On ch=1 n=74 v=0
29465 On ch=1 n=67 v=93
29467 On ch=1 n=76 v=90
29468 On ch=1 n=72 v=79
29477 On ch=1 n=65 v=0
29481 On ch=1 n=67 v=0
29486 On ch=1 n=76 v=0
29491 On ch=1 n=72 v=0
29523 On ch=1 n=46 v=88
29569 On ch=1 n=46 v=0
29588 On ch=1 n=70 v=103
29588 On ch=1 n=77 v=85
29590 On ch=1 n=74 v=90
29590 On ch=1 n=46 v=85
29596 Par ch=1 c=64 v=0
29623 On ch=1 n=70 v=0
29623 On ch=1 n=77 v=0
29628 On ch=1 n=74 v=0
29642 Par ch=1 c=64 v=127
29648 On ch=1 n=70 v=84
29650 On ch=1 n=74 v=64
29651 On ch=1 n=77 v=67
29674 On ch=1 n=46 v=0
29674 On ch=1 n=70 v=0
29680 On ch=1 n=74 v=0
29708 On ch=1 n=70 v=91
29712 On ch=1 n=77 v=77
29716 On ch=1 n=74 v=74
29720 On ch=1 n=77 v=0
29724 On ch=1 n=70 v=0
29733 On ch=1 n=77 v=0
29763 On ch=1 n=70 v=90
29764 On ch=1 n=77 v=81
29773 On ch=1 n=74 v=50
29790 On ch=1 n=74 v=0
29790 On ch=1 n=70 v=0
29795 On ch=1 n=77 v=0
29803 On ch=1 n=74 v=0
29823 On ch=1 n=46 v=69
29823 On ch=1 n=72 v=77
29824 On ch=1 n=76 v=72
29858 On ch=1 n=46 v=0
29875 On ch=1 n=72 v=0
29889 On ch=1 n=74 v=74
29890 On ch=1 n=70 v=88
29903 On ch=1 n=76 v=0
29912 On ch=1 n=74 v=0
29921 On ch=1 n=70 v=0
29942 On ch=1 n=46 v=63
30004 On ch=1 n=65 v=79
30004 On ch=1 n=72 v=74
30005 On ch=1 n=69 v=78
30006 On ch=1 n=60 v=75
30012 Par ch=1 c=64 v=0
30064 On ch=1 n=41 v=64
30066 On ch=1 n=46 v=0
30085 Par ch=1 c=64 v=127
30131 On ch=1 n=48 v=64
30177 On ch=1 n=65 v=0
30197 On ch=1 n=53 v=60
30247 On ch=1 n=72 v=0
30257 On ch=1 n=60 v=68
30266 On ch=1 n=69 v=0
30275 On ch=1 n=60 v=0
30276 On ch=1 n=41 v=0
30288 On ch=1 n=48 v=0
30309 On ch=1 n=41 v=59
30368 On ch=1 n=65 v=71
30370 On ch=1 n=69 v=82
30396 On ch=1 n=53 v=0
30427 On ch=1 n=72 v=75
30430 On ch=1 n=53 v=51
30436 On ch=1 n=60 v=0
30438 On ch=1 n=41 v=0
30441 On ch=1 n=65 v=0
30450 On ch=1 n=69 v=0
30451 On ch=1 n=72 v=0
30459 On ch=1 n=74 v=66
30461 On ch=1 n=53 v=0
30486 On ch=1 n=72 v=68
30489 On ch=1 n=74 v=0
30506 On ch=1 n=72 v=0
30513 On ch=1 n=45 v=36
30551 On ch=1 n=45 v=0
30555 On ch=1 n=65 v=74
30557 On ch=1 n=38 v=51
30558 On ch=1 n=69 v=66
30570 Par ch=1 c=64 v=0
30617 On ch=1 n=45 v=55
30617 Par ch=1 c=64 v=127
30619 On ch=1 n=65 v=0
30681 On ch=1 n=50 v=60
30742 On ch=1 n=57 v=53
30812 On ch=1 n=62 v=48
30828 On ch=1 n=38 v=0
30840 On ch=1 n=69 v=0
30862 On ch=1 n=57 v=31
30927 On ch=1 n=45 v=0
30930 On ch=1 n=50 v=0
30944 On ch=1 n=50 v=29
30988 On ch=1 n=57 v=0
30990 On ch=1 n=62 v=0
30998 On ch=1 n=57 v=0
31000 On ch=1 n=64 v=64
31041 On ch=1 n=50 v=0
31048 On ch=1 n=64 v=0
31057 On ch=1 n=41 v=56
31059 On ch=1 n=65 v=68
31073 Par ch=1 c=64 v=0
31087 On ch=1 n=41 v=0
31119 On ch=1 n=65 v=62
31123 Par ch=1 c=64 v=127
31178 On ch=1 n=48 v=54
31226 On ch=1 n=65 v=0
31232 On ch=1 n=65 v=0
31251 On ch=1 n=53 v=28
31259 On ch=1 n=48 v=0
31309 On ch=1 n=53 v=0
31318 On ch=1 n=57 v=32
31361 On ch=1 n=57 v=0
31378 On ch=1 n=60 v=24
31416 On ch=1 n=60 v=0
31437 On ch=1 n=57 v=57
31456 On ch=1 n=57 v=0
31503 On ch=1 n=65 v=48
31512 On ch=1 n=65 v=0
31541 On ch=1 n=65 v=57
31567 On ch=1 n=65 v=0
31571 On ch=1 n=36 v=48
31576 On ch=1 n=72 v=56
31580 Par ch=1 c=64 v=0
31629 Par ch=1 c=64 v=127
31657 On ch=1 n=43 v=38
31673 On ch=1 n=36 v=0
31720 On ch=1 n=72 v=0
31727 On ch=1 n=48 v=48
31739 On ch=1 n=43 v=0
31813 On ch=1 n=52 v=25
31859 On ch=1 n=48 v=0
31943 On ch=1 n=60 v=47
32007 On ch=1 n=52 v=0
32029 On ch=1 n=64 v=40
32043 On ch=1 n=60 v=0
32101 On ch=1 n=64 v=49
32164 On ch=1 n=64 v=0
32168 On ch=1 n=50 v=58
32172 On ch=1 n=65 v=65
32196 Par ch=1 c=64 v=0
32239 On ch=1 n=57 v=54
32293 On ch=1 n=64 v=0
32296 Par ch=1 c=64 v=127
32302 On ch=1 n=50 v=0
32302 On ch=1 n=62 v=62
32304 On ch=1 n=65 v=0
32306 On ch=1 n=52 v=49
32331 On ch=1 n=57 v=0
32363 On ch=1 n=57 v=63
32388 On ch=1 n=62 v=0
32414 On ch=1 n=52 v=0
32428 On ch=1 n=53 v=63
32484 On ch=1 n=57 v=69
32490 On ch=1 n=57 v=0
32494 Par ch=1 c=64 v=0
32538 On ch=1 n=53 v=0
32542 On ch=1 n=55 v=67
32568 Par ch=1 c=64 v=127
32600 On ch=1 n=57 v=0
32602 On ch=1 n=57 v=59
32651 On ch=1 n=55 v=0
32657 On ch=1 n=53 v=50
32718 On ch=1 n=57 v=58
32747 On ch=1 n=57 v=0
32769 On ch=1 n=53 v=0
32782 On ch=1 n=52 v=49
32834 On ch=1 n=57 v=0
32840 On ch=1 n=57 v=57
32887 On ch=1 n=52 v=0
32893 Par ch=1 c=64 v=0
32895 On ch=1 n=53 v=56
32920 Par ch=1 c=64 v=127
32952 On ch=1 n=57 v=54
32974 On ch=1 n=57 v=0
32995 On ch=1 n=53 v=0
33016 On ch=1 n=52 v=35
33068 On ch=1 n=57 v=0
33075 On ch=1 n=57 v=45
33119 On ch=1 n=52 v=0
33147 On ch=1 n=50 v=24
33184 On ch=1 n=57 v=0
33194 On ch=1 n=57 v=60
33227 On ch=1 n=50 v=0
33256 On ch=1 n=48 v=48
33309 On ch=1 n=57 v=0
33315 On ch=1 n=57 v=62
33319 On ch=1 n=71 v=1
33344 On ch=1 n=48 v=0
33371 On ch=1 n=45 v=61
33416 On ch=1 n=57 v=0
33427 On ch=1 n=57 v=74
33467 On ch=1 n=71 v=0
33481 On ch=1 n=48 v=61
33535 On ch=1 n=45 v=0
33549 On ch=1 n=57 v=46
33596 On ch=1 n=50 v=71
33597 Par ch=1 c=64 v=0
33600 On ch=1 n=57 v=0
33645 Par ch=1 c=64 v=127
33663 On ch=1 n=57 v=62
33689 On ch=1 n=48 v=0
33716 On ch=1 n=52 v=61
33718 On ch=1 n=57 v=0
33772 On ch=1 n=57 v=57
33794 On ch=1 n=50 v=0
33828 On ch=1 n=57 v=0
33835 On ch=1 n=53 v=58
33893 On ch=1 n=57 v=58
33895 On ch=1 n=52 v=0
33948 On ch=1 n=57 v=0
33955 On ch=1 n=55 v=54
33967 Par ch=1 c=64 v=0
34016 On ch=1 n=57 v=55
34019 On ch=1 n=53 v=0
34020 Par ch=1 c=64 v=127
34065 On ch=1 n=57 v=0
34070 On ch=1 n=53 v=52
34127 On ch=1 n=57 v=54
34151 On ch=1 n=55 v=0
34184 On ch=1 n=57 v=0
34191 On ch=1 n=52 v=50
34248 On ch=1 n=53 v=0
34249 On ch=1 n=57 v=54
34296 Par ch=1 c=64 v=0
34306 On ch=1 n=57 v=0
34310 On ch=1 n=53 v=53
34356 Par ch=1 c=64 v=127
34366 On ch=1 n=57 v=50
34412 On ch=1 n=52 v=0
34422 On ch=1 n=57 v=0
34430 On ch=1 n=52 v=40
34481 On ch=1 n=53 v=0
34490 On ch=1 n=57 v=55
34540 On ch=1 n=57 v=0
34548 On ch=1 n=50 v=45
34597 On ch=1 n=52 v=0
34602 On ch=1 n=57 v=59
34632 Par ch=1 c=64 v=0
34655 On ch=1 n=57 v=0
34660 On ch=1 n=48 v=60
34698 Par ch=1 c=64 v=127
34719 On ch=1 n=50 v=0
34720 On ch=1 n=57 v=70
34759 On ch=1 n=57 v=0
34777 On ch=1 n=45 v=69
34830 On ch=1 n=48 v=0
34839 On ch=1 n=57 v=82
34852 On ch=1 n=57 v=0
34856 On ch=1 n=45 v=0
34881 On ch=1 n=57 v=0
34892 On ch=1 n=48 v=70
34951 On ch=1 n=57 v=68
34952 On ch=1 n=48 v=0
34995 Par ch=1 c=64 v=0
35009 On ch=1 n=57 v=0
35013 On ch=1 n=50 v=62
35014 On ch=1 n=62 v=84
35083 On ch=1 n=57 v=58
35093 Par ch=1 c=64 v=127
35126 On ch=1 n=50 v=0
35132 On ch=1 n=62 v=0
35148 On ch=1 n=52 v=49
35207 On ch=1 n=57 v=0
35209 On ch=1 n=52 v=0
35209 On ch=1 n=57 v=65
35249 On ch=1 n=57 v=0
35272 On ch=1 n=53 v=50
35327 On ch=1 n=62 v=84
35328 On ch=1 n=53 v=0
35332 On ch=1 n=57 v=71
35362 On ch=1 n=62 v=0
35377 On ch=1 n=57 v=0
35384 On ch=1 n=69 v=92
35384 On ch=1 n=65 v=92
35386 On ch=1 n=50 v=71
35389 Par ch=1 c=64 v=0
35435 Par ch=1 c=64 v=127
35443 On ch=1 n=57 v=66
35463 On ch=1 n=69 v=0
35476 On ch=1 n=65 v=0
35476 On ch=1 n=50 v=0
35495 On ch=1 n=57 v=0
35502 On ch=1 n=52 v=58
35507 On ch=1 n=69 v=91
35509 On ch=1 n=65 v=83
35524 Par ch=1 c=64 v=0
35578 On ch=1 n=57 v=36
35601 On ch=1 n=52 v=0
35608 On ch=1 n=69 v=0
35615 Par ch=1 c=64 v=127
35620 On ch=1 n=65 v=0
35627 On ch=1 n=57 v=0
35637 On ch=1 n=53 v=44
35689 On ch=1 n=53 v=0
35689 On ch=1 n=69 v=63
35695 On ch=1 n=57 v=61
35728 On ch=1 n=69 v=0
35731 On ch=1 n=57 v=0
35748 On ch=1 n=60 v=55
35748 On ch=1 n=64 v=64
35757 Par ch=1 c=64 v=0
35759 On ch=1 n=48 v=29
35806 On ch=1 n=55 v=53
35819 On ch=1 n=60 v=0
35857 Par ch=1 c=64 v=127
35861 On ch=1 n=64 v=0
35862 On ch=1 n=50 v=59
35915 On ch=1 n=48 v=0
35921 On ch=1 n=65 v=69
35924 On ch=1 n=55 v=0
35926 On ch=1 n=55 v=57
35950 On ch=1 n=50 v=0
35967 On ch=1 n=65 v=0
35975 On ch=1 n=55 v=0
35981 On ch=1 n=52 v=56
35986 On ch=1 n=64 v=71
36034 On ch=1 n=52 v=0
36039 On ch=1 n=55 v=66
36074 On ch=1 n=64 v=0
36085 On ch=1 n=55 v=0
36086 Par ch=1 c=64 v=0
36092 On ch=1 n=62 v=66
36094 On ch=1 n=50 v=54
36152 On ch=1 n=57 v=54
36181 On ch=1 n=62 v=0
36186 Par ch=1 c=64 v=127
36208 On ch=1 n=50 v=0
36213 On ch=1 n=52 v=48
36271 On ch=1 n=57 v=55
36283 On ch=1 n=57 v=0
36318 On ch=1 n=52 v=0
36329 On ch=1 n=53 v=46
36384 On ch=1 n=57 v=0
36386 On ch=1 n=57 v=57
36419 Par ch=1 c=64 v=0
36442 On ch=1 n=53 v=0
36448 On ch=1 n=55 v=51
36490 Par ch=1 c=64 v=127
36504 On ch=1 n=57 v=0
36505 On ch=1 n=57 v=60
36556 On ch=1 n=55 v=0
36562 On ch=1 n=53 v=47
36607 Par ch=1 c=64 v=0
36617 On ch=1 n=57 v=59
36645 On ch=1 n=57 v=0
36670 On ch=1 n=53 v=0
36678 On ch=1 n=52 v=46
36679 Par ch=1 c=64 v=127
36731 On ch=1 n=57 v=0
36741 On ch=1 n=57 v=53
36753 On ch=1 n=52 v=0
36776 Par ch=1 c=64 v=0
36795 On ch=1 n=53 v=68
36821 Par ch=1 c=64 v=127
36846 On ch=1 n=57 v=0
36853 On ch=1 n=60 v=48
36898 On ch=1 n=53 v=0
36901 On ch=1 n=60 v=0
36911 On ch=1 n=65 v=75
36911 On ch=1 n=55 v=59
36912 On ch=1 n=69 v=81
36965 On ch=1 n=60 v=56
36966 On ch=1 n=65 v=0
37005 On ch=1 n=55 v=0
37013 On ch=1 n=69 v=0
37020 On ch=1 n=60 v=0
37022 On ch=1 n=72 v=90
37023 On ch=1 n=65 v=91
37026 On ch=1 n=57 v=67
37085 On ch=1 n=60 v=59
37105 On ch=1 n=72 v=0
37112 On ch=1 n=65 v=0
37125 On ch=1 n=57 v=0
37126 On ch=1 n=60 v=0
37139 On ch=1 n=65 v=80
37140 On ch=1 n=69 v=82
37141 On ch=1 n=74 v=82
37146 Par ch=1 c=64 v=0
37148 On ch=1 n=53 v=54
37198 On ch=1 n=60 v=43
37216 Par ch=1 c=64 v=127
37235 On ch=1 n=65 v=0
37254 On ch=1 n=69 v=0
37262 On ch=1 n=57 v=52
37294 On ch=1 n=74 v=0
37305 On ch=1 n=53 v=0
37315 On ch=1 n=60 v=0
37319 On ch=1 n=60 v=56
37355 On ch=1 n=57 v=0
37358 On ch=1 n=60 v=0
37372 On ch=1 n=72 v=67
37379 On ch=1 n=57 v=61
37436 On ch=1 n=60 v=56
37448 On ch=1 n=72 v=0
37466 On ch=1 n=57 v=0
37481 On ch=1 n=60 v=0
37485 On ch=1 n=65 v=84
37486 On ch=1 n=69 v=80
37487 On ch=1 n=53 v=73
37492 Par ch=1 c=64 v=0
37525 Par ch=1 c=64 v=127
37547 On ch=1 n=60 v=67
37548 On ch=1 n=65 v=0
37550 On ch=1 n=69 v=0
37588 On ch=1 n=53 v=0
37590 On ch=1 n=60 v=0
37599 On ch=1 n=55 v=70
37602 On ch=1 n=71 v=82
37603 On ch=1 n=67 v=78
37621 Par ch=1 c=64 v=0
37658 On ch=1 n=62 v=62
37668 Par ch=1 c=64 v=127
37680 On ch=1 n=55 v=0
37691 On ch=1 n=71 v=0
37698 On ch=1 n=67 v=0
37707 On ch=1 n=57 v=68
37714 On ch=1 n=62 v=0
37718 On ch=1 n=67 v=71
37735 On ch=1 n=57 v=0
37777 On ch=1 n=67 v=0
37778 On ch=1 n=59 v=59
37786 On ch=1 n=59 v=0
37829 On ch=1 n=62 v=55
37832 On ch=1 n=69 v=65
37833 On ch=1 n=65 v=62
37835 On ch=1 n=50 v=58
37847 Par ch=1 c=64 v=0
37903 On ch=1 n=57 v=36
37910 Par ch=1 c=64 v=127
37925 On ch=1 n=62 v=0
37948 On ch=1 n=52 v=45
37951 On ch=1 n=69 v=0
38011 On ch=1 n=65 v=0
38016 On ch=1 n=57 v=49
38046 On ch=1 n=50 v=0
38073 On ch=1 n=53 v=46
38118 On ch=1 n=57 v=0
38129 On ch=1 n=57 v=45
38160 On ch=1 n=52 v=0
38189 Par ch=1 c=64 v=0
38191 On ch=1 n=55 v=54
38239 Par ch=1 c=64 v=127
38249 On ch=1 n=57 v=0
38253 On ch=1 n=57 v=57
38293 On ch=1 n=53 v=0
38303 On ch=1 n=57 v=0
38308 On ch=1 n=55 v=0
38312 On ch=1 n=57 v=0
38312 On ch=1 n=53 v=40
38372 On ch=1 n=57 v=34
38389 On ch=1 n=53 v=0
38412 On ch=1 n=57 v=0
38426 On ch=1 n=62 v=82
38426 On ch=1 n=74 v=83
38433 On ch=1 n=52 v=46
38449 On ch=1 n=62 v=0
38453 On ch=1 n=74 v=0
38479 On ch=1 n=52 v=0
38489 On ch=1 n=57 v=67
38531 On ch=1 n=57 v=0
38544 On ch=1 n=50 v=70
38545 On ch=1 n=74 v=84
38546 On ch=1 n=62 v=83
38556 Par ch=1 c=64 v=0
38605 Par ch=1 c=64 v=127
38612 On ch=1 n=57 v=57
38652 On ch=1 n=50 v=0
38671 On ch=1 n=52 v=58
38673 On ch=1 n=74 v=0
38739 On ch=1 n=62 v=0
38742 On ch=1 n=57 v=0
38755 On ch=1 n=52 v=0
38793 On ch=1 n=74 v=83
38793 On ch=1 n=53 v=68
38794 On ch=1 n=62 v=74
38836 On ch=1 n=74 v=0
38843 On ch=1 n=53 v=0
38854 On ch=1 n=57 v=52
38874 On ch=1 n=62 v=0
38907 On ch=1 n=57 v=0
38907 On ch=1 n=53 v=64
38908 On ch=1 n=72 v=68
38909 On ch=1 n=65 v=74
38911 On ch=1 n=69 v=70
38917 Par ch=1 c=64 v=0
38974 On ch=1 n=60 v=51
38986 Par ch=1 c=64 v=127
39014 On ch=1 n=53 v=0
39029 On ch=1 n=72 v=0
39036 On ch=1 n=55 v=56
39092 On ch=1 n=65 v=0
39099 On ch=1 n=69 v=0
39102 On ch=1 n=60 v=51
39149 On ch=1 n=60 v=0
39153 On ch=1 n=55 v=0
39156 On ch=1 n=57 v=67
39159 On ch=1 n=69 v=62
39173 On ch=1 n=60 v=0
39182 On ch=1 n=57 v=0
39216 On ch=1 n=69 v=0
39218 On ch=1 n=60 v=52
39219 On ch=1 n=69 v=68
39239 On ch=1 n=60 v=0
39254 On ch=1 n=69 v=0
39259 Par ch=1 c=64 v=0
39269 On ch=1 n=53 v=66
39271 On ch=1 n=65 v=77
39273 On ch=1 n=69 v=77
39312 On ch=1 n=53 v=0
39312 Par ch=1 c=64 v=127
39321 On ch=1 n=65 v=0
39330 On ch=1 n=60 v=60
39336 On ch=1 n=69 v=0
39377 On ch=1 n=60 v=0
39385 On ch=1 n=52 v=62
39388 On ch=1 n=64 v=79
39390 On ch=1 n=67 v=71
39410 Par ch=1 c=64 v=0
39449 Par ch=1 c=64 v=127
39450 On ch=1 n=60 v=55
39457 On ch=1 n=52 v=0
39486 On ch=1 n=64 v=0
39488 On ch=1 n=67 v=0
39495 On ch=1 n=60 v=0
39506 On ch=1 n=62 v=80
39506 On ch=1 n=50 v=59
39508 On ch=1 n=65 v=78
39523 Par ch=1 c=64 v=0
39566 On ch=1 n=60 v=57
39571 Par ch=1 c=64 v=127
39586 On ch=1 n=62 v=0
39589 On ch=1 n=50 v=0
39618 On ch=1 n=65 v=0
39626 Par ch=1 c=64 v=0
39627 On ch=1 n=60 v=0
39627 On ch=1 n=48 v=56
39630 On ch=1 n=64 v=81
39684 On ch=1 n=48 v=0
39685 On ch=1 n=55 v=52
39686 On ch=1 n=60 v=66
39735 On ch=1 n=64 v=0
39749 On ch=1 n=50 v=55
39750 On ch=1 n=55 v=0
39760 Par ch=1 c=64 v=127
39813 On ch=1 n=55 v=46
39816 On ch=1 n=60 v=0
39864 Par ch=1 c=64 v=0
39865 On ch=1 n=50 v=0
39869 On ch=1 n=52 v=53
39924 On ch=1 n=55 v=0
39927 On ch=1 n=55 v=52
39989 Par ch=1 c=64 v=127
39989 On ch=1 n=52 v=50
39991 On ch=1 n=52 v=0
40047 On ch=1 n=55 v=51
40063 On ch=1 n=55 v=0
40109 On ch=1 n=52 v=0
40111 On ch=1 n=50 v=46
40165 On ch=1 n=55 v=0
40172 On ch=1 n=55 v=41
40217 On ch=1 n=50 v=0
40231 On ch=1 n=48 v=44
40284 On ch=1 n=55 v=0
40295 On ch=1 n=55 v=51
40328 On ch=1 n=48 v=0
40348 On ch=1 n=55 v=0
40352 On ch=1 n=62 v=68
40352 On ch=1 n=50 v=49
40361 Par ch=1 c=64 v=0
40410 On ch=1 n=57 v=55
40427 Par ch=1 c=64 v=127
40444 On ch=1 n=62 v=0
40467 On ch=1 n=50 v=0
40473 On ch=1 n=52 v=44
40538 On ch=1 n=57 v=47
40557 On ch=1 n=57 v=0
40587 On ch=1 n=52 v=0
40592 On ch=1 n=57 v=0
40598 On ch=1 n=69 v=70
40599 On ch=1 n=65 v=67
40600 On ch=1 n=53 v=48
40656 On ch=1 n=69 v=0
40662 On ch=1 n=57 v=63
40691 On ch=1 n=65 v=0
40698 On ch=1 n=53 v=0
40707 On ch=1 n=57 v=0
40718 On ch=1 n=67 v=63
40718 On ch=1 n=64 v=67
40720 On ch=1 n=48 v=55
40723 Par ch=1 c=64 v=0
40784 Par ch=1 c=64 v=127
40785 On ch=1 n=55 v=41
40787 On ch=1 n=67 v=0
40844 On ch=1 n=64 v=0
40850 On ch=1 n=50 v=52
40914 On ch=1 n=55 v=43
40928 On ch=1 n=48 v=0
40929 On ch=1 n=55 v=0
40933 On ch=1 n=50 v=0
40957 On ch=1 n=55 v=0
40972 On ch=1 n=52 v=47
40974 On ch=1 n=62 v=61
40976 On ch=1 n=65 v=61
41036 On ch=1 n=52 v=0
41039 On ch=1 n=55 v=47
41081 On ch=1 n=62 v=0
41083 On ch=1 n=65 v=0
41090 Par ch=1 c=64 v=0
41093 On ch=1 n=55 v=0
41096 On ch=1 n=48 v=55
41099 On ch=1 n=60 v=60
41101 On ch=1 n=64 v=69
41153 On ch=1 n=55 v=49
41153 Par ch=1 c=64 v=127
41170 On ch=1 n=48 v=0
41206 On ch=1 n=60 v=0
41214 On ch=1 n=64 v=0
41218 On ch=1 n=55 v=0
41218 On ch=1 n=50 v=49
41220 On ch=1 n=62 v=71
41279 On ch=1 n=55 v=44
41298 On ch=1 n=50 v=0
41305 On ch=1 n=62 v=0
41323 On ch=1 n=55 v=0
41329 On ch=1 n=60 v=75
41333 On ch=1 n=52 v=46
41388 On ch=1 n=60 v=0
41396 On ch=1 n=55 v=53
41433 On ch=1 n=52 v=0
41444 Par ch=1 c=64 v=0
41447 On ch=1 n=50 v=60
41448 On ch=1 n=62 v=77
41451 On ch=1 n=55 v=0
41505 Par ch=1 c=64 v=127
41507 On ch=1 n=57 v=48
41524 On ch=1 n=50 v=0
41545 On ch=1 n=62 v=0
41562 On ch=1 n=52 v=39
41614 On ch=1 n=57 v=0
41625 On ch=1 n=57 v=37
41658 On ch=1 n=52 v=0
41683 On ch=1 n=53 v=43
41736 On ch=1 n=57 v=0
41745 On ch=1 n=57 v=40
41794 On ch=1 n=53 v=0
41804 On ch=1 n=55 v=50
41856 On ch=1 n=57 v=0
41863 On ch=1 n=57 v=47
41920 On ch=1 n=55 v=0
41926 On ch=1 n=53 v=39
41986 On ch=1 n=57 v=40
42018 On ch=1 n=57 v=0
42029 On ch=1 n=53 v=0
42047 On ch=1 n=52 v=41
42101 On ch=1 n=57 v=0
42104 On ch=1 n=57 v=49
42157 On ch=1 n=52 v=0
42160 On ch=1 n=53 v=51
42169 Par ch=1 c=64 v=0
42175 Par ch=1 c=64 v=127
42218 On ch=1 n=57 v=56
42226 On ch=1 n=57 v=0
42266 On ch=1 n=53 v=0
42279 On ch=1 n=52 v=48
42325 On ch=1 n=57 v=0
42337 On ch=1 n=57 v=53
42374 On ch=1 n=52 v=0
42395 On ch=1 n=50 v=59
42450 On ch=1 n=57 v=0
42458 On ch=1 n=57 v=37
42484 On ch=1 n=50 v=0
42519 On ch=1 n=48 v=51
42575 On ch=1 n=57 v=0
42581 On ch=1 n=57 v=68
42613 On ch=1 n=48 v=0
42635 On ch=1 n=45 v=63
42690 On ch=1 n=57 v=0
42699 On ch=1 n=57 v=75
42739 On ch=1 n=45 v=0
42755 On ch=1 n=48 v=61
42809 On ch=1 n=57 v=0
42811 On ch=1 n=48 v=0
42813 On ch=1 n=57 v=61
42863 On ch=1 n=57 v=0
42876 On ch=1 n=62 v=80
42876 On ch=1 n=50 v=57
42887 Par ch=1 c=64 v=0
42935 On ch=1 n=57 v=60
42941 Par ch=1 c=64 v=127
42956 On ch=1 n=62 v=0
42963 On ch=1 n=50 v=0
42977 On ch=1 n=57 v=0
42998 On ch=1 n=62 v=46
43000 On ch=1 n=52 v=50
43032 On ch=1 n=62 v=0
43063 On ch=1 n=57 v=37
43079 On ch=1 n=52 v=0
43103 On ch=1 n=57 v=0
43117 On ch=1 n=62 v=80
43120 On ch=1 n=53 v=50
43175 On ch=1 n=62 v=0
43177 On ch=1 n=57 v=62
43215 On ch=1 n=53 v=0
43220 On ch=1 n=57 v=0
43232 On ch=1 n=65 v=69
43235 On ch=1 n=69 v=70
43237 On ch=1 n=50 v=62
43246 Par ch=1 c=64 v=0
43296 On ch=1 n=57 v=57
43300 Par ch=1 c=64 v=127
43319 On ch=1 n=65 v=0
43323 On ch=1 n=69 v=0
43330 On ch=1 n=50 v=0
43345 On ch=1 n=57 v=0
43350 On ch=1 n=52 v=46
43357 On ch=1 n=69 v=66
43359 On ch=1 n=65 v=69
43409 On ch=1 n=52 v=0
43417 On ch=1 n=53 v=50
43479 On ch=1 n=57 v=54
43491 On ch=1 n=69 v=0
43508 On ch=1 n=65 v=0
43510 On ch=1 n=53 v=0
43530 On ch=1 n=69 v=63
43573 On ch=1 n=57 v=0
43574 On ch=1 n=69 v=0
43589 On ch=1 n=48 v=59
43593 On ch=1 n=60 v=63
43595 On ch=1 n=64 v=64
43609 Par ch=1 c=64 v=0
43656 On ch=1 n=55 v=50
43679 On ch=1 n=48 v=0
43682 Par ch=1 c=64 v=127
43713 On ch=1 n=60 v=0
43720 On ch=1 n=50 v=54
43723 On ch=1 n=64 v=0
43731 On ch=1 n=55 v=0
43773 On ch=1 n=62 v=70
43775 On ch=1 n=65 v=69
43783 On ch=1 n=55 v=52
43806 On ch=1 n=50 v=0
43809 On ch=1 n=62 v=0
43814 On ch=1 n=65 v=0
43818 On ch=1 n=55 v=0
43833 On ch=1 n=60 v=72
43835 On ch=1 n=64 v=74
43836 On ch=1 n=52 v=51
43886 On ch=1 n=60 v=0
43895 On ch=1 n=55 v=64
43925 On ch=1 n=64 v=0
43933 On ch=1 n=52 v=0
43937 On ch=1 n=55 v=0
43948 On ch=1 n=50 v=63
43949 On ch=1 n=62 v=82
43953 Par ch=1 c=64 v=0
44011 On ch=1 n=57 v=61
44040 On ch=1 n=50 v=0
44057 Par ch=1 c=64 v=127
44064 On ch=1 n=62 v=0
44070 On ch=1 n=52 v=44
44113 Par ch=1 c=64 v=0
44130 On ch=1 n=57 v=59
44135 On ch=1 n=57 v=0
44189 On ch=1 n=52 v=0
44193 On ch=1 n=53 v=54
44242 On ch=1 n=57 v=0
44247 On ch=1 n=57 v=59
44303 On ch=1 n=53 v=0
44311 On ch=1 n=55 v=47
44315 Par ch=1 c=64 v=127
44357 On ch=1 n=57 v=0
44367 On ch=1 n=57 v=51
44409 On ch=1 n=55 v=0
44424 On ch=1 n=53 v=45
44482 On ch=1 n=57 v=55
44502 On ch=1 n=57 v=0
44517 On ch=1 n=53 v=0
44539 On ch=1 n=52 v=45
44560 On ch=1 n=57 v=0
44598 On ch=1 n=52 v=0
44604 On ch=1 n=57 v=59
44622 On ch=1 n=57 v=0
44655 On ch=1 n=53 v=77
44683 Par ch=1 c=64 v=0
44718 On ch=1 n=60 v=45
44740 Par ch=1 c=64 v=127
44746 On ch=1 n=53 v=0
44762 On ch=1 n=60 v=0
44771 On ch=1 n=55 v=63
44776 On ch=1 n=65 v=84
44777 On ch=1 n=69 v=82
44821 On ch=1 n=55 v=0
44830 On ch=1 n=60 v=56
44864 On ch=1 n=65 v=0
44875 On ch=1 n=69 v=0
44878 On ch=1 n=60 v=0
44885 On ch=1 n=57 v=74
44887 On ch=1 n=69 v=95
44887 On ch=1 n=72 v=92
44945 On ch=1 n=57 v=0
44957 On ch=1 n=60 v=52
44966 On ch=1 n=69 v=0
44990 On ch=1 n=72 v=0
44994 On ch=1 n=60 v=0
45007 On ch=1 n=69 v=83
45009 On ch=1 n=74 v=81
45009 On ch=1 n=53 v=62
45011 On ch=1 n=65 v=73
45028 Par ch=1 c=64 v=0
45075 On ch=1 n=60 v=48
45097 On ch=1 n=69 v=0
45100 Par ch=1 c=64 v=127
45115 On ch=1 n=74 v=0
45129 On ch=1 n=55 v=50
45194 On ch=1 n=60 v=54
45230 On ch=1 n=53 v=0
45247 On ch=1 n=65 v=0
45248 On ch=1 n=60 v=0
45252 On ch=1 n=72 v=74
45255 On ch=1 n=57 v=60
45273 On ch=1 n=55 v=0
45285 On ch=1 n=60 v=0
45311 On ch=1 n=60 v=59
45335 On ch=1 n=72 v=0
45353 On ch=1 n=57 v=0
45366 On ch=1 n=60 v=0
45371 On ch=1 n=53 v=66
45372 On ch=1 n=69 v=77
45375 On ch=1 n=65 v=70
45380 Par ch=1 c=64 v=0
45422 Par ch=1 c=64 v=127
45433 On ch=1 n=60 v=60
45436 On ch=1 n=53 v=0
45442 On ch=1 n=69 v=0
45461 On ch=1 n=65 v=0
45477 On ch=1 n=60 v=0
45486 On ch=1 n=55 v=67
45487 On ch=1 n=67 v=74
45488 On ch=1 n=71 v=80
45497 Par ch=1 c=64 v=0
45543 On ch=1 n=62 v=60
45549 Par ch=1 c=64 v=127
45573 On ch=1 n=55 v=0
45577 On ch=1 n=67 v=0
45601 On ch=1 n=59 v=56
45604 On ch=1 n=71 v=0
45607 On ch=1 n=67 v=65
45623 On ch=1 n=62 v=0
45655 On ch=1 n=62 v=63
45668 On ch=1 n=59 v=0
45677 On ch=1 n=67 v=0
45679 On ch=1 n=62 v=0
45718 On ch=1 n=62 v=60
45719 On ch=1 n=69 v=67
45720 On ch=1 n=65 v=67
45723 On ch=1 n=50 v=71
45733 Par ch=1 c=64 v=0
45787 On ch=1 n=57 v=53
45824 On ch=1 n=62 v=0
45832 Par ch=1 c=64 v=127
45843 On ch=1 n=52 v=49
45846 On ch=1 n=69 v=0
45905 On ch=1 n=57 v=62
45947 On ch=1 n=65 v=0
45964 On ch=1 n=50 v=0
45966 On ch=1 n=53 v=57
46020 On ch=1 n=57 v=58
46036 On ch=1 n=57 v=0
46067 On ch=1 n=52 v=0
46075 On ch=1 n=55 v=66
46134 On ch=1 n=57 v=64
46150 On ch=1 n=57 v=0
46177 On ch=1 n=53 v=0
46189 On ch=1 n=53 v=63
46193 On ch=1 n=57 v=0
46200 On ch=1 n=55 v=0
46247 On ch=1 n=57 v=69
46248 On ch=1 n=57 v=0
46296 On ch=1 n=53 v=0
46300 On ch=1 n=57 v=0
46305 On ch=1 n=62 v=84
46306 On ch=1 n=74 v=82
46311 On ch=1 n=52 v=56
46330 On ch=1 n=62 v=0
46339 On ch=1 n=74 v=0
46363 On ch=1 n=52 v=0
46366 On ch=1 n=57 v=71
46407 On ch=1 n=57 v=0
46424 On ch=1 n=74 v=91
46425 On ch=1 n=62 v=91
46425 On ch=1 n=50 v=70
46430 Par ch=1 c=64 v=0
46474 Par ch=1 c=64 v=127
46489 On ch=1 n=57 v=66
46506 On ch=1 n=74 v=0
46511 On ch=1 n=62 v=0
46511 On ch=1 n=50 v=0
46521 On ch=1 n=57 v=0
46543 On ch=1 n=52 v=56
46545 On ch=1 n=62 v=84
46546 On ch=1 n=74 v=86
46567 On ch=1 n=52 v=0
46569 On ch=1 n=62 v=0
46606 On ch=1 n=57 v=60
46634 On ch=1 n=74 v=0
46639 On ch=1 n=57 v=0
46658 On ch=1 n=74 v=82
46659 On ch=1 n=62 v=79
46659 On ch=1 n=65 v=74
46660 On ch=1 n=69 v=75
46661 On ch=1 n=53 v=60
46689 On ch=1 n=74 v=0
46690 On ch=1 n=62 v=0
46696 On ch=1 n=65 v=0
46699 On ch=1 n=69 v=0
46714 On ch=1 n=53 v=0
46718 On ch=1 n=57 v=80
46731 On ch=1 n=57 v=0
46776 On ch=1 n=65 v=85
46777 On ch=1 n=72 v=71
46779 On ch=1 n=69 v=82
46781 On ch=1 n=53 v=54
46789 Par ch=1 c=64 v=0
46845 On ch=1 n=60 v=48
46848 Par ch=1 c=64 v=127
46865 On ch=1 n=65 v=0
46879 On ch=1 n=72 v=0
46896 On ch=1 n=55 v=53
46932 On ch=1 n=69 v=0
46934 On ch=1 n=53 v=0
46948 On ch=1 n=60 v=0
46955 On ch=1 n=60 v=56
46994 On ch=1 n=55 v=0
47013 On ch=1 n=60 v=0
47014 On ch=1 n=69 v=83
47015 On ch=1 n=65 v=85
47016 On ch=1 n=57 v=68
47027 On ch=1 n=69 v=0
47038 On ch=1 n=65 v=0
47071 On ch=1 n=65 v=88
47072 On ch=1 n=69 v=83
47072 On ch=1 n=60 v=54
47086 On ch=1 n=57 v=0
47091 On ch=1 n=65 v=0
47093 On ch=1 n=69 v=0
47102 On ch=1 n=60 v=0
47116 Par ch=1 c=64 v=0
47126 On ch=1 n=53 v=68
47128 On ch=1 n=65 v=95
47128 On ch=1 n=69 v=92
47164 Par ch=1 c=64 v=127
47168 On ch=1 n=53 v=0
47176 On ch=1 n=65 v=0
47182 On ch=1 n=60 v=62
47187 On ch=1 n=69 v=0
47237 On ch=1 n=60 v=0
47245 On ch=1 n=52 v=61
47246 On ch=1 n=67 v=79
47247 On ch=1 n=64 v=82
47252 Par ch=1 c=64 v=0
47290 Par ch=1 c=64 v=127
47309 On ch=1 n=60 v=58
47314 On ch=1 n=52 v=0
47339 On ch=1 n=67 v=0
47347 On ch=1 n=64 v=0
47357 On ch=1 n=60 v=0
47364 On ch=1 n=62 v=67
47364 On ch=1 n=65 v=74
47367 On ch=1 n=50 v=63
47369 Par ch=1 c=64 v=0
47407 Par ch=1 c=64 v=127
47424 On ch=1 n=60 v=59
47436 On ch=1 n=62 v=0
47448 On ch=1 n=65 v=0
47473 On ch=1 n=50 v=0
47481 On ch=1 n=60 v=0
47482 On ch=1 n=48 v=60
47484 On ch=1 n=64 v=74
47504 Par ch=1 c=64 v=0
47539 On ch=1 n=55 v=50
47541 On ch=1 n=48 v=0
47542 On ch=1 n=60 v=66
47568 On ch=1 n=64 v=0
47592 On ch=1 n=55 v=0
47598 On ch=1 n=50 v=62
47638 Par ch=1 c=64 v=127
47661 On ch=1 n=55 v=42
47680 On ch=1 n=60 v=0
47692 On ch=1 n=50 v=0
47722 On ch=1 n=52 v=35
47770 On ch=1 n=55 v=0
47780 On ch=1 n=55 v=44
47814 On ch=1 n=52 v=0
47833 On ch=1 n=52 v=53
47843 Par ch=1 c=64 v=0
47884 On ch=1 n=55 v=0
47891 On ch=1 n=55 v=49
47905 Par ch=1 c=64 v=127
47943 On ch=1 n=52 v=0
47960 On ch=1 n=50 v=49
48013 On ch=1 n=55 v=0
48020 On ch=1 n=55 v=43
48065 On ch=1 n=50 v=0
48082 On ch=1 n=48 v=43
48137 On ch=1 n=55 v=0
48147 On ch=1 n=55 v=51
48180 On ch=1 n=48 v=0
48195 Par ch=1 c=64 v=0
48198 On ch=1 n=62 v=67
48199 On ch=1 n=50 v=59
48209 On ch=1 n=55 v=0
48255 Par ch=1 c=64 v=127
48260 On ch=1 n=57 v=44
48288 On ch=1 n=62 v=0
48313 On ch=1 n=50 v=0
48323 On ch=1 n=52 v=51
48388 On ch=1 n=57 v=34
48411 On ch=1 n=57 v=0
48417 On ch=1 n=52 v=0
48453 On ch=1 n=53 v=40
48499 On ch=1 n=57 v=0
48505 On ch=1 n=69 v=59
48507 On ch=1 n=57 v=58
48546 On ch=1 n=53 v=0
48567 On ch=1 n=48 v=52
48572 On ch=1 n=69 v=0
48574 On ch=1 n=67 v=66
48580 Par ch=1 c=64 v=0
48606 On ch=1 n=57 v=0
48636 On ch=1 n=55 v=41
48651 Par ch=1 c=64 v=127
48659 On ch=1 n=48 v=0
48689 On ch=1 n=67 v=0
48698 On ch=1 n=50 v=53
48759 On ch=1 n=55 v=49
48779 On ch=1 n=55 v=0
48787 On ch=1 n=50 v=0
48790 On ch=1 n=55 v=0
48826 On ch=1 n=52 v=43
48827 On ch=1 n=65 v=59
48885 On ch=1 n=55 v=53
48893 On ch=1 n=52 v=0
48931 On ch=1 n=65 v=0
48932 On ch=1 n=55 v=0
48936 Par ch=1 c=64 v=0
48943 On ch=1 n=60 v=60
48944 On ch=1 n=48 v=56
48947 On ch=1 n=64 v=67
48994 Par ch=1 c=64 v=127
49008 On ch=1 n=55 v=49
49032 On ch=1 n=60 v=0
49044 On ch=1 n=48 v=0
49055 On ch=1 n=64 v=0
49058 On ch=1 n=55 v=0
49060 On ch=1 n=62 v=79
49062 On ch=1 n=50 v=66
49121 On ch=1 n=55 v=55
49158 On ch=1 n=62 v=0
49163 On ch=1 n=50 v=0
49171 On ch=1 n=60 v=86
49174 On ch=1 n=55 v=0
49176 On ch=1 n=52 v=56
49227 On ch=1 n=60 v=0
49237 On ch=1 n=55 v=62
49280 On ch=1 n=52 v=0
49289 On ch=1 n=62 v=79
49293 On ch=1 n=50 v=61
49294 On ch=1 n=55 v=0
49298 Par ch=1 c=64 v=0
49350 On ch=1 n=57 v=61
49381 On ch=1 n=62 v=0
49402 On ch=1 n=50 v=0
49404 On ch=1 n=52 v=47
49445 Par ch=1 c=64 v=127
49463 On ch=1 n=57 v=53
49488 On ch=1 n=57 v=0
49494 Par ch=1 c=64 v=0
49516 On ch=1 n=52 v=0
49523 On ch=1 n=53 v=46
49568 Par ch=1 c=64 v=127
49574 On ch=1 n=57 v=0
49578 On ch=1 n=57 v=53
49623 On ch=1 n=53 v=0
49628 On ch=1 n=57 v=0
49646 On ch=1 n=55 v=26
49688 On ch=1 n=55 v=0
49702 On ch=1 n=57 v=40
49731 On ch=1 n=57 v=0
49757 On ch=1 n=53 v=24
49805 On ch=1 n=57 v=52
49818 On ch=1 n=53 v=0
49852 On ch=1 n=57 v=0
49876 On ch=1 n=52 v=37
49927 On ch=1 n=52 v=0
49931 On ch=1 n=57 v=49
49976 On ch=1 n=57 v=0
49985 On ch=1 n=53 v=48
49991 Par ch=1 c=64 v=0
50006 Par ch=1 c=64 v=127
50043 On ch=1 n=57 v=55
50058 On ch=1 n=53 v=0
50086 On ch=1 n=57 v=0
50106 On ch=1 n=52 v=32
50151 On ch=1 n=52 v=0
50158 On ch=1 n=57 v=41
50208 On ch=1 n=57 v=0
50220 On ch=1 n=50 v=41
50268 On ch=1 n=50 v=0
50281 On ch=1 n=57 v=46
50311 On ch=1 n=57 v=0
50341 On ch=1 n=48 v=48
50392 On ch=1 n=48 v=0
50403 On ch=1 n=57 v=48
50427 On ch=1 n=57 v=0
50460 On ch=1 n=45 v=55
50511 On ch=1 n=45 v=0
50522 On ch=1 n=57 v=64
50560 On ch=1 n=57 v=0
50575 On ch=1 n=48 v=61
50636 On ch=1 n=48 v=0
50639 On ch=1 n=57 v=72
50680 On ch=1 n=57 v=0
50695 On ch=1 n=62 v=92
50696 On ch=1 n=50 v=67
50705 Par ch=1 c=64 v=0
50751 Par ch=1 c=64 v=127
50757 On ch=1 n=57 v=64
50780 On ch=1 n=62 v=0
50790 On ch=1 n=50 v=0
50815 On ch=1 n=57 v=0
50822 On ch=1 n=52 v=61
50822 On ch=1 n=62 v=87
50868 On ch=1 n=52 v=0
50894 On ch=1 n=57 v=30
50909 On ch=1 n=62 v=0
50909 On ch=1 n=57 v=0
50941 On ch=1 n=62 v=81
50948 On ch=1 n=53 v=56
50966 On ch=1 n=62 v=0
51000 On ch=1 n=53 v=0
51007 On ch=1 n=57 v=71
51048 On ch=1 n=57 v=0
51063 On ch=1 n=50 v=74
51064 On ch=1 n=76 v=70
51066 On ch=1 n=72 v=72
51079 Par ch=1 c=64 v=0
51115 Par ch=1 c=64 v=127
51149 On ch=1 n=50 v=0
51156 On ch=1 n=76 v=0
51157 On ch=1 n=72 v=0
51177 On ch=1 n=52 v=60
51178 On ch=1 n=74 v=70
51181 On ch=1 n=71 v=56
51249 On ch=1 n=57 v=44
51261 On ch=1 n=52 v=0
51263 On ch=1 n=74 v=0
51272 On ch=1 n=71 v=0
51286 On ch=1 n=57 v=0
51295 On ch=1 n=69 v=62
51296 On ch=1 n=72 v=65
51296 On ch=1 n=53 v=43
51307 On ch=1 n=69 v=0
51307 On ch=1 n=72 v=0
51354 On ch=1 n=53 v=0
51356 On ch=1 n=57 v=70
51386 On ch=1 n=57 v=0
51409 On ch=1 n=64 v=73
51410 On ch=1 n=48 v=63
51424 Par ch=1 c=64 v=0
51470 Par ch=1 c=64 v=127
51473 On ch=1 n=55 v=53
51481 On ch=1 n=64 v=0
51496 On ch=1 n=48 v=0
51511 On ch=1 n=55 v=0
51529 On ch=1 n=50 v=60
51529 On ch=1 n=65 v=69
51589 On ch=1 n=55 v=46
51622 On ch=1 n=50 v=0
51628 On ch=1 n=65 v=0
51641 On ch=1 n=55 v=0
51642 On ch=1 n=60 v=51
51645 On ch=1 n=64 v=60
51646 On ch=1 n=52 v=52
51686 On ch=1 n=60 v=0
51698 On ch=1 n=64 v=0
51702 On ch=1 n=52 v=0
51706 On ch=1 n=55 v=58
51740 On ch=1 n=55 v=0
51757 On ch=1 n=50 v=65
51758 On ch=1 n=62 v=50
51759 On ch=1 n=69 v=61
51760 On ch=1 n=65 v=60
51767 Par ch=1 c=64 v=0
51808 On ch=1 n=50 v=0
51809 Par ch=1 c=64 v=127
51816 On ch=1 n=62 v=0
51817 On ch=1 n=69 v=0
51823 On ch=1 n=57 v=54
51836 On ch=1 n=65 v=0
51842 On ch=1 n=57 v=0
51874 On ch=1 n=52 v=50
51876 On ch=1 n=72 v=46
51936 On ch=1 n=57 v=40
51952 On ch=1 n=52 v=0
51967 On ch=1 n=72 v=0
51989 On ch=1 n=57 v=0
51991 On ch=1 n=71 v=60
51999 On ch=1 n=53 v=29
52047 On ch=1 n=71 v=0
52054 On ch=1 n=57 v=49
52074 On ch=1 n=53 v=0
52108 On ch=1 n=57 v=0
52112 On ch=1 n=69 v=61
52113 On ch=1 n=50 v=56
52115 On ch=1 n=60 v=47
52118 On ch=1 n=65 v=47
52152 On ch=1 n=69 v=0
52156 On ch=1 n=50 v=0
52172 On ch=1 n=57 v=49
52182 On ch=1 n=60 v=0
52194 On ch=1 n=65 v=0
52203 On ch=1 n=57 v=0
52227 On ch=1 n=52 v=50
52230 On ch=1 n=67 v=54
52299 On ch=1 n=57 v=24
52310 On ch=1 n=52 v=0
52319 On ch=1 n=67 v=0
52336 On ch=1 n=57 v=0
52344 On ch=1 n=65 v=56
52345 On ch=1 n=60 v=45
52351 On ch=1 n=53 v=42
52388 On ch=1 n=65 v=0
52395 On ch=1 n=57 v=55
52405 On ch=1 n=60 v=0
52409 On ch=1 n=53 v=0
52425 On ch=1 n=57 v=0
52451 On ch=1 n=41 v=66
52454 Par ch=1 c=64 v=0
52461 On ch=1 n=65 v=74
52501 Par ch=1 c=64 v=127
52506 On ch=1 n=41 v=0
52519 On ch=1 n=48 v=77
52569 On ch=1 n=65 v=0
52573 On ch=1 n=69 v=88
52574 On ch=1 n=65 v=84
52576 On ch=1 n=53 v=80
52577 On ch=1 n=48 v=0
52589 On ch=1 n=69 v=0
52628 On ch=1 n=57 v=97
52646 On ch=1 n=65 v=0
52668 On ch=1 n=53 v=0
52690 On ch=1 n=72 v=95
52691 On ch=1 n=65 v=100
52692 On ch=1 n=57 v=0
52692 On ch=1 n=60 v=77
52726 On ch=1 n=72 v=0
52751 On ch=1 n=57 v=79
52779 On ch=1 n=65 v=0
52791 On ch=1 n=60 v=0
52792 On ch=1 n=57 v=0
52809 On ch=1 n=69 v=95
52809 On ch=1 n=74 v=95
52810 On ch=1 n=65 v=92
52812 On ch=1 n=53 v=77
52829 Par ch=1 c=64 v=0
52868 On ch=1 n=62 v=72
52878 Par ch=1 c=64 v=127
52899 On ch=1 n=69 v=0
52936 On ch=1 n=60 v=62
52990 On ch=1 n=74 v=0
52992 On ch=1 n=57 v=61
53014 On ch=1 n=65 v=0
53029 On ch=1 n=53 v=0
53036 On ch=1 n=62 v=0
53050 On ch=1 n=60 v=72
53051 On ch=1 n=65 v=84
53051 On ch=1 n=72 v=78
53064 On ch=1 n=60 v=0
53067 On ch=1 n=57 v=0
53076 On ch=1 n=60 v=0
53112 On ch=1 n=50 v=90
53139 On ch=1 n=65 v=0
53142 On ch=1 n=72 v=0
53161 On ch=1 n=50 v=0
53166 On ch=1 n=43 v=86
53166 On ch=1 n=69 v=93
53167 On ch=1 n=65 v=91
53178 Par ch=1 c=64 v=0
53225 On ch=1 n=50 v=85
53230 Par ch=1 c=64 v=127
53241 On ch=1 n=43 v=0
53264 On ch=1 n=69 v=0
53267 On ch=1 n=65 v=0
53272 On ch=1 n=50 v=0
53278 On ch=1 n=55 v=79
53281 On ch=1 n=67 v=80
53282 On ch=1 n=71 v=77
53287 On ch=1 n=55 v=0
53336 On ch=1 n=59 v=78
53351 On ch=1 n=67 v=0
53383 On ch=1 n=71 v=0
53383 On ch=1 n=62 v=64
53393 On ch=1 n=59 v=0
53395 On ch=1 n=67 v=85
53402 On ch=1 n=62 v=0
53428 On ch=1 n=67 v=0
53457 On ch=1 n=43 v=45
53458 On ch=1 n=45 v=39
53475 On ch=1 n=43 v=0
53481 On ch=1 n=45 v=0
53507 On ch=1 n=62 v=78
53507 On ch=1 n=69 v=81
53508 On ch=1 n=74 v=82
53509 On ch=1 n=38 v=64
53523 Par ch=1 c=64 v=0
53564 On ch=1 n=62 v=0
53567 Par ch=1 c=64 v=127
53570 On ch=1 n=50 v=69
53582 On ch=1 n=69 v=0
53635 On ch=1 n=50 v=77
53643 On ch=1 n=74 v=0
53649 On ch=1 n=38 v=0
53662 On ch=1 n=50 v=0
53692 On ch=1 n=53 v=51
53757 On ch=1 n=64 v=64
53759 On ch=1 n=76 v=58
53759 On ch=1 n=57 v=54
53765 On ch=1 n=50 v=0
53777 On ch=1 n=53 v=0
53822 On ch=1 n=62 v=50
53852 On ch=1 n=64 v=0
53880 On ch=1 n=81 v=71
53883 On ch=1 n=69 v=60
53895 On ch=1 n=76 v=0
53902 On ch=1 n=57 v=0
53943 On ch=1 n=62 v=42
53976 On ch=1 n=62 v=0
54004 On ch=1 n=79 v=66
54007 On ch=1 n=67 v=51
54013 On ch=1 n=81 v=0
54019 On ch=1 n=69 v=0
54058 On ch=1 n=62 v=43
54120 On ch=1 n=76 v=58
54124 On ch=1 n=64 v=38
54129 On ch=1 n=62 v=0
54132 On ch=1 n=79 v=0
54133 On ch=1 n=67 v=0
54145 On ch=1 n=62 v=0
54188 On ch=1 n=57 v=56
54217 On ch=1 n=76 v=0
54235 On ch=1 n=77 v=69
54243 On ch=1 n=65 v=52
54245 On ch=1 n=64 v=0
54252 On ch=1 n=57 v=0
54305 On ch=1 n=57 v=46
54340 On ch=1 n=77 v=0
54355 On ch=1 n=76 v=74
54359 On ch=1 n=64 v=69
54369 On ch=1 n=65 v=0
54375 On ch=1 n=57 v=0
54410 On ch=1 n=57 v=84
54418 On ch=1 n=76 v=0
54423 On ch=1 n=64 v=0
54430 On ch=1 n=57 v=0
54466 On ch=1 n=72 v=92
54466 On ch=1 n=60 v=91
54483 On ch=1 n=72 v=0
54489 On ch=1 n=60 v=0
54525 On ch=1 n=33 v=67
54564 On ch=1 n=33 v=0
54571 Par ch=1 c=64 v=0
54579 On ch=1 n=74 v=84
54580 On ch=1 n=65 v=80
54580 On ch=1 n=62 v=78
54582 On ch=1 n=26 v=86
54582 On ch=1 n=69 v=77
54611 On ch=1 n=74 v=0
54619 Par ch=1 c=64 v=127
54635 On ch=1 n=65 v=0
54656 On ch=1 n=62 v=0
54659 On ch=1 n=26 v=0
54660 On ch=1 n=62 v=57
54672 On ch=1 n=69 v=0
54680 On ch=1 n=62 v=0
54703 On ch=1 n=38 v=76
54703 On ch=1 n=62 v=77
54704 On ch=1 n=74 v=86
54705 On ch=1 n=65 v=81
54706 On ch=1 n=69 v=74
54765 On ch=1 n=45 v=81
54766 On ch=1 n=38 v=0
54769 On ch=1 n=62 v=0
54771 On ch=1 n=74 v=0
54775 On ch=1 n=65 v=0
54792 On ch=1 n=69 v=0
54807 On ch=1 n=45 v=0
54811 On ch=1 n=50 v=83
54818 On ch=1 n=74 v=85
54818 On ch=1 n=62 v=82
54819 On ch=1 n=69 v=76
54820 On ch=1 n=65 v=73
54828 On ch=1 n=50 v=0
54843 On ch=1 n=74 v=0
54845 On ch=1 n=62 v=0
54854 On ch=1 n=69 v=0
54856 On ch=1 n=65 v=0
54874 On ch=1 n=53 v=79
54897 On ch=1 n=53 v=0
54931 On ch=1 n=72 v=80
54931 On ch=1 n=69 v=83
54932 On ch=1 n=60 v=83
54933 On ch=1 n=65 v=82
54941 On ch=1 n=41 v=79
54958 Par ch=1 c=64 v=0
54997 On ch=1 n=48 v=77
55021 Par ch=1 c=64 v=127
55036 On ch=1 n=72 v=0
55048 On ch=1 n=69 v=0
55053 On ch=1 n=53 v=88
55071 On ch=1 n=60 v=0
55102 On ch=1 n=57 v=105
55107 On ch=1 n=65 v=0
55109 On ch=1 n=41 v=0
55109 On ch=1 n=48 v=0
55116 On ch=1 n=53 v=0
55129 On ch=1 n=57 v=0
55160 On ch=1 n=69 v=82
55163 On ch=1 n=60 v=70
55165 On ch=1 n=65 v=77
55175 On ch=1 n=69 v=0
55182 On ch=1 n=60 v=0
55189 On ch=1 n=65 v=0
55214 On ch=1 n=65 v=97
55219 On ch=1 n=69 v=58
55222 On ch=1 n=60 v=44
55228 On ch=1 n=65 v=0
55229 On ch=1 n=48 v=80
55231 On ch=1 n=69 v=0
55242 On ch=1 n=60 v=0
55249 On ch=1 n=48 v=0
55272 On ch=1 n=65 v=94
55272 On ch=1 n=60 v=97
55274 On ch=1 n=69 v=95
55274 On ch=1 n=41 v=77
55279 Par ch=1 c=64 v=0
55324 On ch=1 n=53 v=82
55327 Par ch=1 c=64 v=127
55341 On ch=1 n=65 v=0
55359 On ch=1 n=60 v=0
55362 On ch=1 n=69 v=0
55370 On ch=1 n=41 v=0
55371 On ch=1 n=53 v=0
55389 On ch=1 n=64 v=92
55389 On ch=1 n=67 v=90
55390 On ch=1 n=60 v=82
55393 On ch=1 n=40 v=81
55401 Par ch=1 c=64 v=0
55446 Par ch=1 c=64 v=127
55448 On ch=1 n=64 v=0
55449 On ch=1 n=67 v=0
55451 On ch=1 n=52 v=74
55459 On ch=1 n=60 v=0
55472 On ch=1 n=40 v=0
55477 On ch=1 n=52 v=0
55510 On ch=1 n=38 v=74
55511 On ch=1 n=65 v=83
55544 On ch=1 n=38 v=0
55571 On ch=1 n=50 v=53
55589 On ch=1 n=65 v=0
55590 On ch=1 n=50 v=0
55622 Par ch=1 c=64 v=0
55624 On ch=1 n=55 v=76
55625 On ch=1 n=60 v=71
55626 On ch=1 n=64 v=76
55631 On ch=1 n=36 v=67
55684 On ch=1 n=43 v=61
55700 On ch=1 n=55 v=0
55708 Par ch=1 c=64 v=127
55737 On ch=1 n=60 v=62
55794 On ch=1 n=60 v=0
55799 On ch=1 n=48 v=59
55800 On ch=1 n=64 v=0
55812 On ch=1 n=36 v=0
55853 On ch=1 n=43 v=0
55863 On ch=1 n=52 v=58
55923 On ch=1 n=55 v=54
55943 On ch=1 n=60 v=0
55956 On ch=1 n=48 v=0
55983 On ch=1 n=52 v=0
55989 On ch=1 n=55 v=57
56048 On ch=1 n=60 v=53
56112 On ch=1 n=36 v=51
56189 On ch=1 n=43 v=39
56192 On ch=1 n=55 v=0
56291 On ch=1 n=55 v=0
56297 On ch=1 n=48 v=52
56307 On ch=1 n=60 v=0
56347 On ch=1 n=36 v=0
56792 On ch=1 n=43 v=0
56888 On ch=1 n=38 v=49
56889 On ch=1 n=48 v=0
56892 On ch=1 n=62 v=62
56919 Par ch=1 c=64 v=0
56971 On ch=1 n=45 v=52
56973 Par ch=1 c=64 v=127
56982 On ch=1 n=38 v=0
57028 On ch=1 n=62 v=0
57034 On ch=1 n=45 v=0
57049 On ch=1 n=50 v=37
57060 On ch=1 n=50 v=0
57110 On ch=1 n=53 v=49
57175 On ch=1 n=69 v=61
57175 On ch=1 n=65 v=68
57179 On ch=1 n=57 v=46
57191 On ch=1 n=53 v=0
57194 On ch=1 n=69 v=0
57221 On ch=1 n=65 v=0
57284 On ch=1 n=57 v=0
57393 On ch=1 n=67 v=56
57394 On ch=1 n=55 v=52
57396 On ch=1 n=64 v=64
57398 On ch=1 n=52 v=62
57399 On ch=1 n=60 v=59
57403 Par ch=1 c=64 v=0
57548 Par ch=1 c=64 v=127
57762 On ch=1 n=67 v=0
57769 On ch=1 n=55 v=0
57776 On ch=1 n=64 v=0
57781 On ch=1 n=52 v=0
57840 On ch=1 n=60 v=0
57939 On ch=1 n=60 v=75
57941 On ch=1 n=65 v=80
57941 On ch=1 n=57 v=77
57944 On ch=1 n=53 v=85
57948 Par ch=1 c=64 v=0
57994 Par ch=1 c=64 v=127
58007 On ch=1 n=60 v=0
58010 On ch=1 n=65 v=0
58023 On ch=1 n=57 v=0
58040 On ch=1 n=53 v=0
58075 Par ch=1 c=64 v=0
58079 On ch=1 n=55 v=83
58079 On ch=1 n=52 v=80
58080 On ch=1 n=64 v=84
58080 On ch=1 n=60 v=77
58166 Par ch=1 c=64 v=127
58183 On ch=1 n=55 v=0
58186 On ch=1 n=52 v=0
58202 On ch=1 n=64 v=0
58240 On ch=1 n=60 v=0
58264 On ch=1 n=50 v=79
58264 On ch=1 n=53 v=72
58266 On ch=1 n=57 v=82
58266 On ch=1 n=62 v=65
58277 Par ch=1 c=64 v=0
58370 Par ch=1 c=64 v=127
58396 On ch=1 n=50 v=0
58397 On ch=1 n=53 v=0
58444 On ch=1 n=57 v=0
58452 On ch=1 n=62 v=0
58500 On ch=1 n=52 v=52
58503 On ch=1 n=60 v=55
58503 On ch=1 n=48 v=52
58505 On ch=1 n=55 v=60
58510 Par ch=1 c=64 v=0
58595 Par ch=1 c=64 v=127
58643 On ch=1 n=52 v=0
58685 On ch=1 n=60 v=0
58692 On ch=1 n=48 v=0
58737 On ch=1 n=55 v=0
58940 Par ch=1 c=64 v=0
58956 On ch=1 n=26 v=63
58957 On ch=1 n=38 v=56
58964 On ch=1 n=57 v=70
58965 On ch=1 n=62 v=63
58988 Par ch=1 c=64 v=127
59030 On ch=1 n=26 v=0
59051 On ch=1 n=38 v=0
59090 On ch=1 n=57 v=0
59174 On ch=1 n=52 v=49
59218 On ch=1 n=62 v=0
59227 On ch=1 n=57 v=45
59254 On ch=1 n=52 v=0
59286 On ch=1 n=53 v=51
59336 On ch=1 n=57 v=0
59345 On ch=1 n=57 v=55
59367 On ch=1 n=53 v=0
59409 On ch=1 n=55 v=46
59454 On ch=1 n=57 v=0
59464 On ch=1 n=57 v=33
59495 On ch=1 n=55 v=0
59528 On ch=1 n=53 v=28
59581 On ch=1 n=57 v=41
59591 On ch=1 n=57 v=0
59626 On ch=1 n=53 v=0
59644 On ch=1 n=52 v=34
59697 On ch=1 n=57 v=0
59707 On ch=1 n=57 v=40
59753 On ch=1 n=52 v=0
59764 On ch=1 n=53 v=43
59816 On ch=1 n=57 v=0
59823 On ch=1 n=57 v=52
59863 On ch=1 n=53 v=0
59886 On ch=1 n=52 v=40
59932 On ch=1 n=57 v=0
59948 On ch=1 n=57 v=45
59984 On ch=1 n=52 v=0
60006 On ch=1 n=50 v=44
60055 On ch=1 n=57 v=0
60066 On ch=1 n=57 v=47
60096 On ch=1 n=50 v=0
60134 On ch=1 n=48 v=46
60193 On ch=1 n=57 v=0
60201 On ch=1 n=57 v=66
60231 On ch=1 n=48 v=0
60272 On ch=1 n=45 v=60
60352 On ch=1 n=57 v=56
60387 On ch=1 n=57 v=0
60447 On ch=1 n=45 v=0
60452 On ch=1 n=48 v=69
60464 On ch=1 n=57 v=0
60772 On ch=1 n=50 v=70
60772 On ch=1 n=26 v=70
60888 On ch=1 n=48 v=0
62245 On ch=1 n=50 v=0
62245 On ch=1 n=26 v=0
62703 Par ch=1 c=64 v=0
62703 Meta TrkEnd
TrkEnd
MTrk
0 Meta TrkName "Scarborough Fair"
0 Tempo 500000
0 Meta TrkEnd
TrkEnd
MTrk
0 Meta TrkName "played by Bob Mace"
0 Meta TrkEnd
TrkEnd
