MFile 1 7 120
MTrk
0 SMPTE 96 0 3 0 0
0 TimeSig 4/4 24 8
0 KeySig 0 major
0 Tempo 319149
0 Meta TrkEnd
TrkEnd
MTrk
0 Meta 0x21 00
0 Par ch=2 c=0 v=0
0 Par ch=2 c=32 v=0
0 PrCh ch=2 p=35
0 Par ch=2 c=7 v=127
0 Par ch=2 c=10 v=64
106 Par ch=2 c=121 v=0
132 Par ch=2 c=11 v=127
132 Par ch=2 c=93 v=35
132 Par ch=2 c=91 v=0
480 On ch=2 n=42 v=97
643 On ch=2 n=42 v=0
720 On ch=2 n=42 v=102
780 On ch=2 n=42 v=0
780 On ch=2 n=40 v=97
853 On ch=2 n=40 v=0
900 On ch=2 n=42 v=97
1080 On ch=2 n=42 v=0
1200 On ch=2 n=37 v=101
1277 On ch=2 n=37 v=0
1320 On ch=2 n=39 v=99
1380 On ch=2 n=39 v=0
1440 On ch=2 n=42 v=99
1603 On ch=2 n=42 v=0
1680 On ch=2 n=42 v=105
1736 On ch=2 n=42 v=0
1740 On ch=2 n=40 v=89
1813 On ch=2 n=40 v=0
1860 On ch=2 n=42 v=102
2057 On ch=2 n=42 v=0
2160 On ch=2 n=37 v=109
2227 On ch=2 n=37 v=0
2280 On ch=2 n=39 v=105
2346 On ch=2 n=39 v=0
2400 On ch=2 n=42 v=102
2570 On ch=2 n=42 v=0
2640 On ch=2 n=42 v=99
2690 On ch=2 n=42 v=0
2700 On ch=2 n=40 v=91
2777 On ch=2 n=40 v=0
2820 On ch=2 n=42 v=99
3041 On ch=2 n=42 v=0
3120 On ch=2 n=37 v=106
3195 On ch=2 n=37 v=0
3240 On ch=2 n=39 v=105
3300 On ch=2 n=39 v=0
3360 On ch=2 n=42 v=99
3518 On ch=2 n=42 v=0
3600 On ch=2 n=42 v=99
3646 On ch=2 n=42 v=0
3660 On ch=2 n=40 v=91
3740 On ch=2 n=40 v=0
3780 On ch=2 n=42 v=99
3988 On ch=2 n=42 v=0
4080 On ch=2 n=37 v=101
4142 On ch=2 n=37 v=0
4200 On ch=2 n=39 v=97
4257 On ch=2 n=39 v=0
4320 On ch=2 n=42 v=97
4483 On ch=2 n=42 v=0
4560 On ch=2 n=42 v=102
4620 On ch=2 n=42 v=0
4620 On ch=2 n=40 v=97
4693 On ch=2 n=40 v=0
4740 On ch=2 n=42 v=97
4920 On ch=2 n=42 v=0
5040 On ch=2 n=37 v=101
5117 On ch=2 n=37 v=0
5160 On ch=2 n=39 v=99
5220 On ch=2 n=39 v=0
5280 On ch=2 n=42 v=99
5443 On ch=2 n=42 v=0
5520 On ch=2 n=42 v=105
5576 On ch=2 n=42 v=0
5580 On ch=2 n=40 v=89
5653 On ch=2 n=40 v=0
5700 On ch=2 n=42 v=102
5897 On ch=2 n=42 v=0
6000 On ch=2 n=37 v=109
6067 On ch=2 n=37 v=0
6120 On ch=2 n=39 v=105
6186 On ch=2 n=39 v=0
6240 On ch=2 n=42 v=102
6410 On ch=2 n=42 v=0
6420 On ch=2 n=42 v=89
6450 On ch=2 n=42 v=0
6480 On ch=2 n=35 v=107
6530 On ch=2 n=35 v=0
6540 On ch=2 n=37 v=95
6648 On ch=2 n=37 v=0
6720 On ch=2 n=35 v=107
6941 On ch=2 n=35 v=0
6960 On ch=2 n=30 v=110
7103 On ch=2 n=30 v=0
7140 On ch=2 n=30 v=113
7197 On ch=2 n=30 v=0
7200 On ch=2 n=35 v=107
7421 On ch=2 n=35 v=0
7440 On ch=2 n=30 v=110
7583 On ch=2 n=30 v=0
7620 On ch=2 n=30 v=113
7677 On ch=2 n=30 v=0
7680 On ch=2 n=35 v=107
7901 On ch=2 n=35 v=0
7920 On ch=2 n=30 v=110
8063 On ch=2 n=30 v=0
8100 On ch=2 n=30 v=113
8157 On ch=2 n=30 v=0
8160 On ch=2 n=35 v=107
8381 On ch=2 n=35 v=0
8400 On ch=2 n=30 v=110
8543 On ch=2 n=30 v=0
8580 On ch=2 n=30 v=113
8637 On ch=2 n=30 v=0
8640 On ch=2 n=28 v=117
8880 On ch=2 n=28 v=0
8880 On ch=2 n=30 v=108
8981 On ch=2 n=30 v=0
9000 On ch=2 n=32 v=111
9090 On ch=2 n=32 v=0
9120 On ch=2 n=33 v=107
9330 On ch=2 n=33 v=0
9360 On ch=2 n=35 v=111
9450 On ch=2 n=35 v=0
9480 On ch=2 n=37 v=104
9570 On ch=2 n=37 v=0
9600 On ch=2 n=38 v=103
9810 On ch=2 n=38 v=0
9840 On ch=2 n=37 v=107
9870 On ch=2 n=37 v=0
9900 On ch=2 n=37 v=107
10050 On ch=2 n=37 v=0
10080 On ch=2 n=35 v=105
10212 On ch=2 n=35 v=0
10260 On ch=2 n=35 v=110
10288 On ch=2 n=35 v=0
10320 On ch=2 n=30 v=113
10444 On ch=2 n=30 v=0
10500 On ch=2 n=30 v=99
10515 On ch=2 n=30 v=0
10560 On ch=2 n=35 v=116
10701 On ch=2 n=35 v=0
10740 On ch=2 n=35 v=91
10753 On ch=2 n=35 v=0
10800 On ch=2 n=35 v=116
10860 On ch=2 n=33 v=113
10865 On ch=2 n=35 v=0
10906 On ch=2 n=33 v=0
10920 On ch=2 n=30 v=116
10972 On ch=2 n=30 v=0
10980 On ch=2 n=28 v=107
11030 On ch=2 n=28 v=0
11040 On ch=2 n=30 v=110
11183 On ch=2 n=30 v=0
11220 On ch=2 n=30 v=102
11267 On ch=2 n=30 v=0
11280 On ch=2 n=37 v=109
11440 On ch=2 n=37 v=0
11460 On ch=2 n=37 v=101
11501 On ch=2 n=37 v=0
11520 On ch=2 n=30 v=107
11666 On ch=2 n=30 v=0
11700 On ch=2 n=30 v=97
11735 On ch=2 n=30 v=0
11760 On ch=2 n=37 v=109
11871 On ch=2 n=37 v=0
11880 On ch=2 n=30 v=107
11963 On ch=2 n=30 v=0
12000 On ch=2 n=28 v=113
12126 On ch=2 n=28 v=0
12180 On ch=2 n=28 v=110
12221 On ch=2 n=28 v=0
12240 On ch=2 n=28 v=105
12383 On ch=2 n=28 v=0
12420 On ch=2 n=40 v=97
12466 On ch=2 n=40 v=0
12480 On ch=2 n=28 v=119
12602 On ch=2 n=28 v=0
12660 On ch=2 n=28 v=116
12708 On ch=2 n=28 v=0
12720 On ch=2 n=30 v=107
12816 On ch=2 n=30 v=0
12840 On ch=2 n=32 v=116
12915 On ch=2 n=32 v=0
12960 On ch=2 n=33 v=119
13113 On ch=2 n=33 v=0
13140 On ch=2 n=33 v=101
13188 On ch=2 n=33 v=0
13200 On ch=2 n=28 v=111
13342 On ch=2 n=28 v=0
13380 On ch=2 n=28 v=111
13440 On ch=2 n=28 v=0
13440 On ch=2 n=30 v=114
13596 On ch=2 n=30 v=0
13620 On ch=2 n=25 v=114
13680 On ch=2 n=37 v=102
13681 On ch=2 n=25 v=0
13740 On ch=2 n=33 v=103
13744 On ch=2 n=37 v=0
13796 On ch=2 n=33 v=0
13800 On ch=2 n=35 v=109
13890 On ch=2 n=35 v=0
13920 On ch=2 n=33 v=103
14080 On ch=2 n=33 v=0
14100 On ch=2 n=33 v=111
14153 On ch=2 n=33 v=0
14160 On ch=2 n=28 v=101
14325 On ch=2 n=28 v=0
14340 On ch=2 n=28 v=114
14400 On ch=2 n=30 v=109
14403 On ch=2 n=28 v=0
14544 On ch=2 n=30 v=0
14580 On ch=2 n=25 v=111
14638 On ch=2 n=25 v=0
14640 On ch=2 n=37 v=99
14697 On ch=2 n=37 v=0
14700 On ch=2 n=33 v=111
14751 On ch=2 n=33 v=0
14760 On ch=2 n=35 v=111
14810 On ch=2 n=35 v=0
14820 On ch=2 n=37 v=110
14871 On ch=2 n=37 v=0
14880 On ch=2 n=38 v=111
15033 On ch=2 n=38 v=0
15060 On ch=2 n=38 v=106
15109 On ch=2 n=38 v=0
15120 On ch=2 n=37 v=110
15268 On ch=2 n=37 v=0
15300 On ch=2 n=37 v=107
15353 On ch=2 n=37 v=0
15360 On ch=2 n=35 v=114
15476 On ch=2 n=35 v=0
15540 On ch=2 n=35 v=114
15591 On ch=2 n=35 v=0
15600 On ch=2 n=33 v=114
15646 On ch=2 n=33 v=0
15660 On ch=2 n=37 v=107
15713 On ch=2 n=37 v=0
15720 On ch=2 n=38 v=91
15762 On ch=2 n=38 v=0
15780 On ch=2 n=39 v=93
15826 On ch=2 n=39 v=0
15840 On ch=2 n=40 v=109
15971 On ch=2 n=40 v=0
16020 On ch=2 n=40 v=101
16080 On ch=2 n=38 v=103
16085 On ch=2 n=40 v=0
16216 On ch=2 n=38 v=0
16260 On ch=2 n=38 v=103
16320 On ch=2 n=37 v=107
16322 On ch=2 n=38 v=0
16448 On ch=2 n=37 v=0
16500 On ch=2 n=37 v=107
16558 On ch=2 n=37 v=0
16560 On ch=2 n=35 v=109
16685 On ch=2 n=35 v=0
16740 On ch=2 n=35 v=114
16784 On ch=2 n=35 v=0
16800 On ch=2 n=33 v=119
16953 On ch=2 n=33 v=0
16980 On ch=2 n=33 v=101
17028 On ch=2 n=33 v=0
17040 On ch=2 n=28 v=111
17182 On ch=2 n=28 v=0
17220 On ch=2 n=28 v=111
17280 On ch=2 n=28 v=0
17280 On ch=2 n=30 v=114
17436 On ch=2 n=30 v=0
17460 On ch=2 n=25 v=114
17520 On ch=2 n=37 v=102
17521 On ch=2 n=25 v=0
17580 On ch=2 n=33 v=103
17584 On ch=2 n=37 v=0
17636 On ch=2 n=33 v=0
17640 On ch=2 n=35 v=109
17730 On ch=2 n=35 v=0
17760 On ch=2 n=33 v=103
17920 On ch=2 n=33 v=0
17940 On ch=2 n=33 v=111
17993 On ch=2 n=33 v=0
18000 On ch=2 n=28 v=101
18165 On ch=2 n=28 v=0
18180 On ch=2 n=28 v=114
18240 On ch=2 n=30 v=109
18243 On ch=2 n=28 v=0
18384 On ch=2 n=30 v=0
18420 On ch=2 n=25 v=111
18478 On ch=2 n=25 v=0
18480 On ch=2 n=37 v=99
18537 On ch=2 n=37 v=0
18540 On ch=2 n=33 v=111
18591 On ch=2 n=33 v=0
18600 On ch=2 n=35 v=111
18650 On ch=2 n=35 v=0
18660 On ch=2 n=37 v=110
18711 On ch=2 n=37 v=0
18720 On ch=2 n=38 v=111
18873 On ch=2 n=38 v=0
18900 On ch=2 n=38 v=106
18949 On ch=2 n=38 v=0
18960 On ch=2 n=37 v=110
19108 On ch=2 n=37 v=0
19140 On ch=2 n=37 v=107
19193 On ch=2 n=37 v=0
19200 On ch=2 n=35 v=114
19316 On ch=2 n=35 v=0
19380 On ch=2 n=35 v=114
19431 On ch=2 n=35 v=0
19440 On ch=2 n=33 v=114
19486 On ch=2 n=33 v=0
19500 On ch=2 n=32 v=111
19553 On ch=2 n=32 v=0
19560 On ch=2 n=33 v=99
19602 On ch=2 n=33 v=0
19620 On ch=2 n=34 v=101
19666 On ch=2 n=34 v=0
19680 On ch=2 n=35 v=117
19836 On ch=2 n=35 v=0
19860 On ch=2 n=35 v=102
19907 On ch=2 n=35 v=0
19920 On ch=2 n=30 v=107
20083 On ch=2 n=30 v=0
20100 On ch=2 n=30 v=102
20153 On ch=2 n=30 v=0
20160 On ch=2 n=35 v=105
20318 On ch=2 n=35 v=0
20340 On ch=2 n=35 v=107
20385 On ch=2 n=35 v=0
20400 On ch=2 n=30 v=110
20506 On ch=2 n=30 v=0
20520 On ch=2 n=35 v=110
20615 On ch=2 n=35 v=0
20640 On ch=2 n=42 v=102
20810 On ch=2 n=42 v=0
20880 On ch=2 n=42 v=99
20930 On ch=2 n=42 v=0
20940 On ch=2 n=40 v=91
21017 On ch=2 n=40 v=0
21060 On ch=2 n=42 v=99
21281 On ch=2 n=42 v=0
21360 On ch=2 n=37 v=106
21435 On ch=2 n=37 v=0
21480 On ch=2 n=39 v=105
21540 On ch=2 n=39 v=0
21600 On ch=2 n=42 v=99
21758 On ch=2 n=42 v=0
21840 On ch=2 n=42 v=99
21886 On ch=2 n=42 v=0
21900 On ch=2 n=40 v=91
21980 On ch=2 n=40 v=0
22020 On ch=2 n=42 v=99
22228 On ch=2 n=42 v=0
22320 On ch=2 n=37 v=101
22382 On ch=2 n=37 v=0
22440 On ch=2 n=39 v=97
22497 On ch=2 n=39 v=0
22560 On ch=2 n=42 v=97
22723 On ch=2 n=42 v=0
22800 On ch=2 n=42 v=102
22860 On ch=2 n=42 v=0
22860 On ch=2 n=40 v=97
22933 On ch=2 n=40 v=0
22980 On ch=2 n=42 v=97
23160 On ch=2 n=42 v=0
23280 On ch=2 n=37 v=101
23357 On ch=2 n=37 v=0
23400 On ch=2 n=39 v=99
23460 On ch=2 n=39 v=0
23520 On ch=2 n=42 v=99
23683 On ch=2 n=42 v=0
23760 On ch=2 n=42 v=105
23816 On ch=2 n=42 v=0
23820 On ch=2 n=40 v=89
23893 On ch=2 n=40 v=0
23940 On ch=2 n=42 v=102
24137 On ch=2 n=42 v=0
24240 On ch=2 n=37 v=109
24307 On ch=2 n=37 v=0
24360 On ch=2 n=39 v=105
24426 On ch=2 n=39 v=0
24480 On ch=2 n=42 v=102
24650 On ch=2 n=42 v=0
24660 On ch=2 n=42 v=89
24690 On ch=2 n=42 v=0
24720 On ch=2 n=35 v=107
24770 On ch=2 n=35 v=0
24780 On ch=2 n=37 v=95
24888 On ch=2 n=37 v=0
24960 On ch=2 n=35 v=107
25181 On ch=2 n=35 v=0
25200 On ch=2 n=30 v=110
25343 On ch=2 n=30 v=0
25380 On ch=2 n=30 v=113
25437 On ch=2 n=30 v=0
25440 On ch=2 n=35 v=107
25661 On ch=2 n=35 v=0
25680 On ch=2 n=30 v=110
25823 On ch=2 n=30 v=0
25860 On ch=2 n=30 v=113
25917 On ch=2 n=30 v=0
25920 On ch=2 n=35 v=107
26141 On ch=2 n=35 v=0
26160 On ch=2 n=30 v=110
26303 On ch=2 n=30 v=0
26340 On ch=2 n=30 v=113
26397 On ch=2 n=30 v=0
26400 On ch=2 n=35 v=107
26621 On ch=2 n=35 v=0
26640 On ch=2 n=30 v=110
26783 On ch=2 n=30 v=0
26820 On ch=2 n=30 v=113
26877 On ch=2 n=30 v=0
26880 On ch=2 n=28 v=117
27120 On ch=2 n=28 v=0
27120 On ch=2 n=30 v=108
27221 On ch=2 n=30 v=0
27240 On ch=2 n=32 v=111
27330 On ch=2 n=32 v=0
27360 On ch=2 n=33 v=107
27570 On ch=2 n=33 v=0
27600 On ch=2 n=35 v=111
27690 On ch=2 n=35 v=0
27720 On ch=2 n=37 v=104
27810 On ch=2 n=37 v=0
27840 On ch=2 n=38 v=103
28050 On ch=2 n=38 v=0
28080 On ch=2 n=37 v=107
28110 On ch=2 n=37 v=0
28140 On ch=2 n=37 v=107
28290 On ch=2 n=37 v=0
28320 On ch=2 n=35 v=105
28452 On ch=2 n=35 v=0
28500 On ch=2 n=35 v=110
28528 On ch=2 n=35 v=0
28560 On ch=2 n=30 v=113
28684 On ch=2 n=30 v=0
28740 On ch=2 n=30 v=99
28755 On ch=2 n=30 v=0
28800 On ch=2 n=35 v=116
28941 On ch=2 n=35 v=0
28980 On ch=2 n=35 v=91
28993 On ch=2 n=35 v=0
29040 On ch=2 n=35 v=116
29100 On ch=2 n=33 v=113
29105 On ch=2 n=35 v=0
29146 On ch=2 n=33 v=0
29160 On ch=2 n=30 v=116
29212 On ch=2 n=30 v=0
29220 On ch=2 n=28 v=107
29270 On ch=2 n=28 v=0
29280 On ch=2 n=30 v=110
29423 On ch=2 n=30 v=0
29460 On ch=2 n=30 v=102
29507 On ch=2 n=30 v=0
29520 On ch=2 n=37 v=109
29680 On ch=2 n=37 v=0
29700 On ch=2 n=37 v=101
29741 On ch=2 n=37 v=0
29760 On ch=2 n=30 v=107
29906 On ch=2 n=30 v=0
29940 On ch=2 n=30 v=97
29975 On ch=2 n=30 v=0
30000 On ch=2 n=37 v=109
30111 On ch=2 n=37 v=0
30120 On ch=2 n=30 v=107
30203 On ch=2 n=30 v=0
30240 On ch=2 n=28 v=113
30366 On ch=2 n=28 v=0
30420 On ch=2 n=28 v=110
30461 On ch=2 n=28 v=0
30480 On ch=2 n=28 v=105
30623 On ch=2 n=28 v=0
30660 On ch=2 n=40 v=97
30706 On ch=2 n=40 v=0
30720 On ch=2 n=28 v=119
30842 On ch=2 n=28 v=0
30900 On ch=2 n=28 v=116
30948 On ch=2 n=28 v=0
30960 On ch=2 n=30 v=107
31056 On ch=2 n=30 v=0
31080 On ch=2 n=32 v=116
31155 On ch=2 n=32 v=0
31200 On ch=2 n=33 v=119
31353 On ch=2 n=33 v=0
31380 On ch=2 n=33 v=101
31428 On ch=2 n=33 v=0
31440 On ch=2 n=28 v=111
31582 On ch=2 n=28 v=0
31620 On ch=2 n=28 v=111
31680 On ch=2 n=28 v=0
31680 On ch=2 n=30 v=114
31836 On ch=2 n=30 v=0
31860 On ch=2 n=25 v=114
31920 On ch=2 n=37 v=102
31921 On ch=2 n=25 v=0
31980 On ch=2 n=33 v=103
31984 On ch=2 n=37 v=0
32036 On ch=2 n=33 v=0
32040 On ch=2 n=35 v=109
32130 On ch=2 n=35 v=0
32160 On ch=2 n=33 v=103
32320 On ch=2 n=33 v=0
32340 On ch=2 n=33 v=111
32393 On ch=2 n=33 v=0
32400 On ch=2 n=28 v=101
32565 On ch=2 n=28 v=0
32580 On ch=2 n=28 v=114
32640 On ch=2 n=30 v=109
32643 On ch=2 n=28 v=0
32784 On ch=2 n=30 v=0
32820 On ch=2 n=25 v=111
32878 On ch=2 n=25 v=0
32880 On ch=2 n=37 v=99
32937 On ch=2 n=37 v=0
32940 On ch=2 n=33 v=111
32991 On ch=2 n=33 v=0
33000 On ch=2 n=35 v=111
33050 On ch=2 n=35 v=0
33060 On ch=2 n=37 v=110
33111 On ch=2 n=37 v=0
33120 On ch=2 n=38 v=111
33273 On ch=2 n=38 v=0
33300 On ch=2 n=38 v=106
33349 On ch=2 n=38 v=0
33360 On ch=2 n=37 v=110
33508 On ch=2 n=37 v=0
33540 On ch=2 n=37 v=107
33593 On ch=2 n=37 v=0
33600 On ch=2 n=35 v=114
33716 On ch=2 n=35 v=0
33780 On ch=2 n=35 v=114
33831 On ch=2 n=35 v=0
33840 On ch=2 n=33 v=114
33886 On ch=2 n=33 v=0
33900 On ch=2 n=37 v=107
33953 On ch=2 n=37 v=0
33960 On ch=2 n=38 v=91
34002 On ch=2 n=38 v=0
34020 On ch=2 n=39 v=93
34066 On ch=2 n=39 v=0
34080 On ch=2 n=40 v=109
34211 On ch=2 n=40 v=0
34260 On ch=2 n=40 v=101
34320 On ch=2 n=38 v=103
34325 On ch=2 n=40 v=0
34456 On ch=2 n=38 v=0
34500 On ch=2 n=38 v=103
34560 On ch=2 n=37 v=107
34562 On ch=2 n=38 v=0
34688 On ch=2 n=37 v=0
34740 On ch=2 n=37 v=107
34798 On ch=2 n=37 v=0
34800 On ch=2 n=35 v=109
34925 On ch=2 n=35 v=0
34980 On ch=2 n=35 v=114
35024 On ch=2 n=35 v=0
35040 On ch=2 n=33 v=119
35193 On ch=2 n=33 v=0
35220 On ch=2 n=33 v=101
35268 On ch=2 n=33 v=0
35280 On ch=2 n=28 v=111
35422 On ch=2 n=28 v=0
35460 On ch=2 n=28 v=111
35520 On ch=2 n=28 v=0
35520 On ch=2 n=30 v=114
35676 On ch=2 n=30 v=0
35700 On ch=2 n=25 v=114
35760 On ch=2 n=37 v=102
35761 On ch=2 n=25 v=0
35820 On ch=2 n=33 v=103
35824 On ch=2 n=37 v=0
35876 On ch=2 n=33 v=0
35880 On ch=2 n=35 v=109
35970 On ch=2 n=35 v=0
36000 On ch=2 n=33 v=103
36160 On ch=2 n=33 v=0
36180 On ch=2 n=33 v=111
36233 On ch=2 n=33 v=0
36240 On ch=2 n=28 v=101
36405 On ch=2 n=28 v=0
36420 On ch=2 n=28 v=114
36480 On ch=2 n=30 v=109
36483 On ch=2 n=28 v=0
36624 On ch=2 n=30 v=0
36660 On ch=2 n=25 v=111
36718 On ch=2 n=25 v=0
36720 On ch=2 n=37 v=99
36777 On ch=2 n=37 v=0
36780 On ch=2 n=33 v=111
36831 On ch=2 n=33 v=0
36840 On ch=2 n=35 v=111
36890 On ch=2 n=35 v=0
36900 On ch=2 n=37 v=110
36951 On ch=2 n=37 v=0
36960 On ch=2 n=38 v=111
37113 On ch=2 n=38 v=0
37140 On ch=2 n=38 v=106
37189 On ch=2 n=38 v=0
37200 On ch=2 n=37 v=110
37348 On ch=2 n=37 v=0
37380 On ch=2 n=37 v=107
37433 On ch=2 n=37 v=0
37440 On ch=2 n=35 v=114
37556 On ch=2 n=35 v=0
37620 On ch=2 n=35 v=114
37671 On ch=2 n=35 v=0
37680 On ch=2 n=33 v=114
37726 On ch=2 n=33 v=0
37740 On ch=2 n=32 v=111
37793 On ch=2 n=32 v=0
37800 On ch=2 n=33 v=99
37842 On ch=2 n=33 v=0
37860 On ch=2 n=34 v=101
37906 On ch=2 n=34 v=0
37920 On ch=2 n=35 v=117
38076 On ch=2 n=35 v=0
38100 On ch=2 n=35 v=102
38147 On ch=2 n=35 v=0
38160 On ch=2 n=30 v=107
38323 On ch=2 n=30 v=0
38340 On ch=2 n=30 v=102
38393 On ch=2 n=30 v=0
38400 On ch=2 n=35 v=105
38558 On ch=2 n=35 v=0
38580 On ch=2 n=35 v=107
38625 On ch=2 n=35 v=0
38640 On ch=2 n=30 v=110
38746 On ch=2 n=30 v=0
38760 On ch=2 n=35 v=110
38855 On ch=2 n=35 v=0
38880 On ch=2 n=42 v=102
39050 On ch=2 n=42 v=0
39120 On ch=2 n=42 v=99
39170 On ch=2 n=42 v=0
39180 On ch=2 n=40 v=91
39257 On ch=2 n=40 v=0
39300 On ch=2 n=42 v=99
39521 On ch=2 n=42 v=0
39600 On ch=2 n=37 v=106
39675 On ch=2 n=37 v=0
39720 On ch=2 n=39 v=105
39780 On ch=2 n=39 v=0
39840 On ch=2 n=42 v=99
39998 On ch=2 n=42 v=0
40080 On ch=2 n=42 v=99
40126 On ch=2 n=42 v=0
40140 On ch=2 n=40 v=91
40220 On ch=2 n=40 v=0
40260 On ch=2 n=42 v=99
40468 On ch=2 n=42 v=0
40560 On ch=2 n=37 v=101
40622 On ch=2 n=37 v=0
40680 On ch=2 n=39 v=97
40737 On ch=2 n=39 v=0
40800 On ch=2 n=42 v=97
40963 On ch=2 n=42 v=0
41040 On ch=2 n=42 v=102
41100 On ch=2 n=42 v=0
41100 On ch=2 n=40 v=97
41173 On ch=2 n=40 v=0
41220 On ch=2 n=42 v=97
41400 On ch=2 n=42 v=0
41520 On ch=2 n=37 v=101
41597 On ch=2 n=37 v=0
41640 On ch=2 n=39 v=99
41700 On ch=2 n=39 v=0
41760 On ch=2 n=42 v=99
41923 On ch=2 n=42 v=0
42000 On ch=2 n=42 v=105
42056 On ch=2 n=42 v=0
42060 On ch=2 n=40 v=89
42133 On ch=2 n=40 v=0
42180 On ch=2 n=42 v=102
42377 On ch=2 n=42 v=0
42480 On ch=2 n=37 v=109
42547 On ch=2 n=37 v=0
42600 On ch=2 n=39 v=105
42666 On ch=2 n=39 v=0
42720 On ch=2 n=42 v=102
42890 On ch=2 n=42 v=0
42900 On ch=2 n=42 v=89
42930 On ch=2 n=42 v=0
42960 On ch=2 n=35 v=107
43010 On ch=2 n=35 v=0
43020 On ch=2 n=37 v=95
43128 On ch=2 n=37 v=0
43200 On ch=2 n=35 v=107
43421 On ch=2 n=35 v=0
43440 On ch=2 n=30 v=110
43583 On ch=2 n=30 v=0
43620 On ch=2 n=30 v=113
43677 On ch=2 n=30 v=0
43680 On ch=2 n=35 v=107
43901 On ch=2 n=35 v=0
43920 On ch=2 n=30 v=110
44063 On ch=2 n=30 v=0
44100 On ch=2 n=30 v=113
44157 On ch=2 n=30 v=0
44160 On ch=2 n=35 v=107
44381 On ch=2 n=35 v=0
44400 On ch=2 n=30 v=110
44543 On ch=2 n=30 v=0
44580 On ch=2 n=30 v=113
44637 On ch=2 n=30 v=0
44640 On ch=2 n=35 v=107
44861 On ch=2 n=35 v=0
44880 On ch=2 n=30 v=110
45023 On ch=2 n=30 v=0
45060 On ch=2 n=30 v=113
45117 On ch=2 n=30 v=0
45120 On ch=2 n=28 v=117
45360 On ch=2 n=28 v=0
45360 On ch=2 n=30 v=108
45461 On ch=2 n=30 v=0
45480 On ch=2 n=32 v=111
45570 On ch=2 n=32 v=0
45600 On ch=2 n=33 v=107
45810 On ch=2 n=33 v=0
45840 On ch=2 n=35 v=111
45930 On ch=2 n=35 v=0
45960 On ch=2 n=37 v=104
46050 On ch=2 n=37 v=0
46080 On ch=2 n=38 v=103
46290 On ch=2 n=38 v=0
46320 On ch=2 n=37 v=107
46350 On ch=2 n=37 v=0
46380 On ch=2 n=37 v=107
46530 On ch=2 n=37 v=0
46560 On ch=2 n=35 v=105
46692 On ch=2 n=35 v=0
46740 On ch=2 n=35 v=110
46768 On ch=2 n=35 v=0
46800 On ch=2 n=30 v=113
46924 On ch=2 n=30 v=0
46980 On ch=2 n=30 v=99
46995 On ch=2 n=30 v=0
47040 On ch=2 n=35 v=116
47181 On ch=2 n=35 v=0
47220 On ch=2 n=35 v=91
47233 On ch=2 n=35 v=0
47280 On ch=2 n=35 v=116
47340 On ch=2 n=33 v=113
47345 On ch=2 n=35 v=0
47386 On ch=2 n=33 v=0
47400 On ch=2 n=30 v=116
47452 On ch=2 n=30 v=0
47460 On ch=2 n=28 v=107
47510 On ch=2 n=28 v=0
47520 On ch=2 n=30 v=110
47663 On ch=2 n=30 v=0
47700 On ch=2 n=30 v=102
47747 On ch=2 n=30 v=0
47760 On ch=2 n=37 v=109
47920 On ch=2 n=37 v=0
47940 On ch=2 n=37 v=101
47981 On ch=2 n=37 v=0
48000 On ch=2 n=30 v=107
48146 On ch=2 n=30 v=0
48180 On ch=2 n=30 v=97
48215 On ch=2 n=30 v=0
48240 On ch=2 n=37 v=109
48351 On ch=2 n=37 v=0
48360 On ch=2 n=30 v=107
48443 On ch=2 n=30 v=0
48480 On ch=2 n=28 v=113
48606 On ch=2 n=28 v=0
48660 On ch=2 n=28 v=110
48701 On ch=2 n=28 v=0
48720 On ch=2 n=28 v=105
48863 On ch=2 n=28 v=0
48900 On ch=2 n=40 v=97
48946 On ch=2 n=40 v=0
48960 On ch=2 n=28 v=119
49082 On ch=2 n=28 v=0
49140 On ch=2 n=28 v=116
49188 On ch=2 n=28 v=0
49200 On ch=2 n=30 v=107
49296 On ch=2 n=30 v=0
49320 On ch=2 n=32 v=116
49395 On ch=2 n=32 v=0
49440 On ch=2 n=33 v=119
49593 On ch=2 n=33 v=0
49620 On ch=2 n=33 v=101
49668 On ch=2 n=33 v=0
49680 On ch=2 n=28 v=111
49822 On ch=2 n=28 v=0
49860 On ch=2 n=28 v=111
49920 On ch=2 n=28 v=0
49920 On ch=2 n=30 v=114
50076 On ch=2 n=30 v=0
50100 On ch=2 n=25 v=114
50160 On ch=2 n=37 v=102
50161 On ch=2 n=25 v=0
50220 On ch=2 n=33 v=103
50224 On ch=2 n=37 v=0
50276 On ch=2 n=33 v=0
50280 On ch=2 n=35 v=109
50370 On ch=2 n=35 v=0
50400 On ch=2 n=33 v=103
50560 On ch=2 n=33 v=0
50580 On ch=2 n=33 v=111
50633 On ch=2 n=33 v=0
50640 On ch=2 n=28 v=101
50805 On ch=2 n=28 v=0
50820 On ch=2 n=28 v=114
50880 On ch=2 n=30 v=109
50883 On ch=2 n=28 v=0
51024 On ch=2 n=30 v=0
51060 On ch=2 n=25 v=111
51118 On ch=2 n=25 v=0
51120 On ch=2 n=37 v=99
51177 On ch=2 n=37 v=0
51180 On ch=2 n=33 v=111
51231 On ch=2 n=33 v=0
51240 On ch=2 n=35 v=111
51290 On ch=2 n=35 v=0
51300 On ch=2 n=37 v=110
51351 On ch=2 n=37 v=0
51360 On ch=2 n=38 v=111
51513 On ch=2 n=38 v=0
51540 On ch=2 n=38 v=106
51589 On ch=2 n=38 v=0
51600 On ch=2 n=37 v=110
51748 On ch=2 n=37 v=0
51780 On ch=2 n=37 v=107
51833 On ch=2 n=37 v=0
51840 On ch=2 n=35 v=114
51956 On ch=2 n=35 v=0
52020 On ch=2 n=35 v=114
52071 On ch=2 n=35 v=0
52080 On ch=2 n=33 v=114
52126 On ch=2 n=33 v=0
52140 On ch=2 n=37 v=107
52193 On ch=2 n=37 v=0
52200 On ch=2 n=38 v=91
52242 On ch=2 n=38 v=0
52260 On ch=2 n=39 v=93
52306 On ch=2 n=39 v=0
52320 On ch=2 n=40 v=109
52451 On ch=2 n=40 v=0
52500 On ch=2 n=40 v=101
52560 On ch=2 n=38 v=103
52565 On ch=2 n=40 v=0
52696 On ch=2 n=38 v=0
52740 On ch=2 n=38 v=103
52800 On ch=2 n=37 v=107
52802 On ch=2 n=38 v=0
52928 On ch=2 n=37 v=0
52980 On ch=2 n=37 v=107
53038 On ch=2 n=37 v=0
53040 On ch=2 n=35 v=109
53165 On ch=2 n=35 v=0
53220 On ch=2 n=35 v=114
53264 On ch=2 n=35 v=0
53280 On ch=2 n=33 v=119
53433 On ch=2 n=33 v=0
53460 On ch=2 n=33 v=101
53508 On ch=2 n=33 v=0
53520 On ch=2 n=28 v=111
53662 On ch=2 n=28 v=0
53700 On ch=2 n=28 v=111
53760 On ch=2 n=28 v=0
53760 On ch=2 n=30 v=114
53916 On ch=2 n=30 v=0
53940 On ch=2 n=25 v=114
54000 On ch=2 n=37 v=102
54001 On ch=2 n=25 v=0
54060 On ch=2 n=33 v=103
54064 On ch=2 n=37 v=0
54116 On ch=2 n=33 v=0
54120 On ch=2 n=35 v=109
54210 On ch=2 n=35 v=0
54240 On ch=2 n=33 v=103
54400 On ch=2 n=33 v=0
54420 On ch=2 n=33 v=111
54473 On ch=2 n=33 v=0
54480 On ch=2 n=28 v=101
54645 On ch=2 n=28 v=0
54660 On ch=2 n=28 v=114
54720 On ch=2 n=30 v=109
54723 On ch=2 n=28 v=0
54864 On ch=2 n=30 v=0
54900 On ch=2 n=25 v=111
54958 On ch=2 n=25 v=0
54960 On ch=2 n=37 v=99
55017 On ch=2 n=37 v=0
55020 On ch=2 n=33 v=111
55071 On ch=2 n=33 v=0
55080 On ch=2 n=35 v=111
55130 On ch=2 n=35 v=0
55140 On ch=2 n=37 v=110
55191 On ch=2 n=37 v=0
55200 On ch=2 n=38 v=111
55353 On ch=2 n=38 v=0
55380 On ch=2 n=38 v=106
55429 On ch=2 n=38 v=0
55440 On ch=2 n=37 v=110
55588 On ch=2 n=37 v=0
55620 On ch=2 n=37 v=107
55673 On ch=2 n=37 v=0
55680 On ch=2 n=35 v=114
55796 On ch=2 n=35 v=0
55860 On ch=2 n=35 v=114
55911 On ch=2 n=35 v=0
55920 On ch=2 n=33 v=114
55966 On ch=2 n=33 v=0
55980 On ch=2 n=32 v=111
56033 On ch=2 n=32 v=0
56040 On ch=2 n=33 v=99
56082 On ch=2 n=33 v=0
56100 On ch=2 n=34 v=101
56146 On ch=2 n=34 v=0
56160 On ch=2 n=35 v=117
56316 On ch=2 n=35 v=0
56340 On ch=2 n=35 v=102
56387 On ch=2 n=35 v=0
56400 On ch=2 n=30 v=107
56563 On ch=2 n=30 v=0
56580 On ch=2 n=30 v=102
56633 On ch=2 n=30 v=0
56640 On ch=2 n=35 v=105
56798 On ch=2 n=35 v=0
56820 On ch=2 n=35 v=107
56865 On ch=2 n=35 v=0
56880 On ch=2 n=30 v=110
56986 On ch=2 n=30 v=0
57000 On ch=2 n=35 v=110
57095 On ch=2 n=35 v=0
57120 On ch=2 n=42 v=102
57290 On ch=2 n=42 v=0
57360 On ch=2 n=42 v=99
57410 On ch=2 n=42 v=0
57420 On ch=2 n=40 v=91
57497 On ch=2 n=40 v=0
57540 On ch=2 n=42 v=99
57761 On ch=2 n=42 v=0
57840 On ch=2 n=37 v=106
57915 On ch=2 n=37 v=0
57960 On ch=2 n=39 v=105
58020 On ch=2 n=39 v=0
58080 On ch=2 n=42 v=99
58238 On ch=2 n=42 v=0
58320 On ch=2 n=42 v=99
58366 On ch=2 n=42 v=0
58380 On ch=2 n=40 v=91
58460 On ch=2 n=40 v=0
58500 On ch=2 n=42 v=99
58708 On ch=2 n=42 v=0
58800 On ch=2 n=37 v=101
58862 On ch=2 n=37 v=0
58920 On ch=2 n=39 v=97
58977 On ch=2 n=39 v=0
59040 On ch=2 n=42 v=97
59203 On ch=2 n=42 v=0
59280 On ch=2 n=42 v=102
59340 On ch=2 n=42 v=0
59340 On ch=2 n=40 v=97
59413 On ch=2 n=40 v=0
59460 On ch=2 n=42 v=97
59640 On ch=2 n=42 v=0
59760 On ch=2 n=37 v=101
59837 On ch=2 n=37 v=0
59880 On ch=2 n=39 v=99
59940 On ch=2 n=39 v=0
60000 On ch=2 n=42 v=99
60163 On ch=2 n=42 v=0
60240 On ch=2 n=42 v=105
60296 On ch=2 n=42 v=0
60300 On ch=2 n=40 v=89
60373 On ch=2 n=40 v=0
60420 On ch=2 n=42 v=102
60617 On ch=2 n=42 v=0
60720 On ch=2 n=37 v=109
60787 On ch=2 n=37 v=0
60840 On ch=2 n=39 v=105
60906 On ch=2 n=39 v=0
60960 On ch=2 n=42 v=102
61130 On ch=2 n=42 v=0
61140 On ch=2 n=42 v=89
61170 On ch=2 n=42 v=0
61200 On ch=2 n=35 v=107
61250 On ch=2 n=35 v=0
61260 On ch=2 n=37 v=95
61368 On ch=2 n=37 v=0
61440 On ch=2 n=35 v=107
61661 On ch=2 n=35 v=0
61680 On ch=2 n=30 v=110
61823 On ch=2 n=30 v=0
61860 On ch=2 n=30 v=113
61917 On ch=2 n=30 v=0
61920 On ch=2 n=35 v=107
62141 On ch=2 n=35 v=0
62160 On ch=2 n=30 v=110
62303 On ch=2 n=30 v=0
62340 On ch=2 n=30 v=113
62397 On ch=2 n=30 v=0
62400 On ch=2 n=35 v=107
62621 On ch=2 n=35 v=0
62640 On ch=2 n=30 v=110
62783 On ch=2 n=30 v=0
62820 On ch=2 n=30 v=113
62877 On ch=2 n=30 v=0
62880 On ch=2 n=35 v=107
63101 On ch=2 n=35 v=0
63120 On ch=2 n=30 v=110
63263 On ch=2 n=30 v=0
63300 On ch=2 n=30 v=113
63357 On ch=2 n=30 v=0
63360 On ch=2 n=28 v=117
63600 On ch=2 n=28 v=0
63600 On ch=2 n=30 v=108
63701 On ch=2 n=30 v=0
63720 On ch=2 n=32 v=111
63810 On ch=2 n=32 v=0
63840 On ch=2 n=33 v=107
64050 On ch=2 n=33 v=0
64080 On ch=2 n=35 v=111
64170 On ch=2 n=35 v=0
64200 On ch=2 n=37 v=104
64290 On ch=2 n=37 v=0
64320 On ch=2 n=38 v=103
64530 On ch=2 n=38 v=0
64560 On ch=2 n=37 v=107
64590 On ch=2 n=37 v=0
64620 On ch=2 n=37 v=107
64770 On ch=2 n=37 v=0
64800 On ch=2 n=35 v=105
64932 On ch=2 n=35 v=0
64980 On ch=2 n=35 v=110
65008 On ch=2 n=35 v=0
65040 On ch=2 n=30 v=113
65164 On ch=2 n=30 v=0
65220 On ch=2 n=30 v=99
65235 On ch=2 n=30 v=0
65280 On ch=2 n=35 v=116
65421 On ch=2 n=35 v=0
65460 On ch=2 n=35 v=91
65473 On ch=2 n=35 v=0
65520 On ch=2 n=35 v=116
65580 On ch=2 n=33 v=113
65585 On ch=2 n=35 v=0
65626 On ch=2 n=33 v=0
65640 On ch=2 n=30 v=116
65692 On ch=2 n=30 v=0
65700 On ch=2 n=28 v=107
65750 On ch=2 n=28 v=0
65760 On ch=2 n=30 v=110
65903 On ch=2 n=30 v=0
65940 On ch=2 n=30 v=102
65987 On ch=2 n=30 v=0
66000 On ch=2 n=37 v=109
66160 On ch=2 n=37 v=0
66180 On ch=2 n=37 v=101
66221 On ch=2 n=37 v=0
66240 On ch=2 n=30 v=107
66386 On ch=2 n=30 v=0
66420 On ch=2 n=30 v=97
66455 On ch=2 n=30 v=0
66480 On ch=2 n=37 v=109
66591 On ch=2 n=37 v=0
66600 On ch=2 n=30 v=107
66683 On ch=2 n=30 v=0
66720 On ch=2 n=28 v=113
66846 On ch=2 n=28 v=0
66900 On ch=2 n=28 v=110
66941 On ch=2 n=28 v=0
66960 On ch=2 n=28 v=105
67103 On ch=2 n=28 v=0
67140 On ch=2 n=40 v=97
67186 On ch=2 n=40 v=0
67200 On ch=2 n=28 v=119
67322 On ch=2 n=28 v=0
67380 On ch=2 n=28 v=116
67428 On ch=2 n=28 v=0
67440 On ch=2 n=30 v=107
67536 On ch=2 n=30 v=0
67560 On ch=2 n=32 v=116
67635 On ch=2 n=32 v=0
67680 On ch=2 n=33 v=119
67833 On ch=2 n=33 v=0
67860 On ch=2 n=33 v=101
67908 On ch=2 n=33 v=0
67920 On ch=2 n=28 v=111
68062 On ch=2 n=28 v=0
68100 On ch=2 n=28 v=111
68160 On ch=2 n=28 v=0
68160 On ch=2 n=30 v=114
68316 On ch=2 n=30 v=0
68340 On ch=2 n=25 v=114
68400 On ch=2 n=37 v=102
68401 On ch=2 n=25 v=0
68460 On ch=2 n=33 v=103
68464 On ch=2 n=37 v=0
68516 On ch=2 n=33 v=0
68520 On ch=2 n=35 v=109
68610 On ch=2 n=35 v=0
68640 On ch=2 n=33 v=103
68800 On ch=2 n=33 v=0
68820 On ch=2 n=33 v=111
68873 On ch=2 n=33 v=0
68880 On ch=2 n=28 v=101
69045 On ch=2 n=28 v=0
69060 On ch=2 n=28 v=114
69120 On ch=2 n=30 v=109
69123 On ch=2 n=28 v=0
69264 On ch=2 n=30 v=0
69300 On ch=2 n=25 v=111
69358 On ch=2 n=25 v=0
69360 On ch=2 n=37 v=99
69417 On ch=2 n=37 v=0
69420 On ch=2 n=33 v=111
69471 On ch=2 n=33 v=0
69480 On ch=2 n=35 v=111
69530 On ch=2 n=35 v=0
69540 On ch=2 n=37 v=110
69591 On ch=2 n=37 v=0
69600 On ch=2 n=38 v=111
69753 On ch=2 n=38 v=0
69780 On ch=2 n=38 v=106
69829 On ch=2 n=38 v=0
69840 On ch=2 n=37 v=110
69988 On ch=2 n=37 v=0
70020 On ch=2 n=37 v=107
70073 On ch=2 n=37 v=0
70080 On ch=2 n=35 v=114
70196 On ch=2 n=35 v=0
70260 On ch=2 n=35 v=114
70311 On ch=2 n=35 v=0
70320 On ch=2 n=33 v=114
70366 On ch=2 n=33 v=0
70380 On ch=2 n=37 v=107
70433 On ch=2 n=37 v=0
70440 On ch=2 n=38 v=91
70482 On ch=2 n=38 v=0
70500 On ch=2 n=39 v=93
70546 On ch=2 n=39 v=0
70560 On ch=2 n=40 v=109
70691 On ch=2 n=40 v=0
70740 On ch=2 n=40 v=101
70800 On ch=2 n=38 v=103
70805 On ch=2 n=40 v=0
70936 On ch=2 n=38 v=0
70980 On ch=2 n=38 v=103
71040 On ch=2 n=37 v=107
71042 On ch=2 n=38 v=0
71168 On ch=2 n=37 v=0
71220 On ch=2 n=37 v=107
71278 On ch=2 n=37 v=0
71280 On ch=2 n=35 v=109
71405 On ch=2 n=35 v=0
71460 On ch=2 n=35 v=114
71504 On ch=2 n=35 v=0
71520 On ch=2 n=33 v=119
71673 On ch=2 n=33 v=0
71700 On ch=2 n=33 v=101
71748 On ch=2 n=33 v=0
71760 On ch=2 n=28 v=111
71902 On ch=2 n=28 v=0
71940 On ch=2 n=28 v=111
72000 On ch=2 n=28 v=0
72000 On ch=2 n=30 v=114
72156 On ch=2 n=30 v=0
72180 On ch=2 n=25 v=114
72240 On ch=2 n=37 v=102
72241 On ch=2 n=25 v=0
72300 On ch=2 n=33 v=103
72304 On ch=2 n=37 v=0
72356 On ch=2 n=33 v=0
72360 On ch=2 n=35 v=109
72450 On ch=2 n=35 v=0
72480 On ch=2 n=33 v=103
72640 On ch=2 n=33 v=0
72660 On ch=2 n=33 v=111
72713 On ch=2 n=33 v=0
72720 On ch=2 n=28 v=101
72885 On ch=2 n=28 v=0
72900 On ch=2 n=28 v=114
72960 On ch=2 n=30 v=109
72963 On ch=2 n=28 v=0
73104 On ch=2 n=30 v=0
73140 On ch=2 n=25 v=111
73198 On ch=2 n=25 v=0
73200 On ch=2 n=37 v=99
73257 On ch=2 n=37 v=0
73260 On ch=2 n=33 v=111
73311 On ch=2 n=33 v=0
73320 On ch=2 n=35 v=111
73370 On ch=2 n=35 v=0
73380 On ch=2 n=37 v=110
73431 On ch=2 n=37 v=0
73440 On ch=2 n=38 v=111
73593 On ch=2 n=38 v=0
73620 On ch=2 n=38 v=106
73669 On ch=2 n=38 v=0
73680 On ch=2 n=37 v=110
73828 On ch=2 n=37 v=0
73860 On ch=2 n=37 v=107
73913 On ch=2 n=37 v=0
73920 On ch=2 n=35 v=114
74036 On ch=2 n=35 v=0
74100 On ch=2 n=35 v=114
74151 On ch=2 n=35 v=0
74160 On ch=2 n=33 v=114
74206 On ch=2 n=33 v=0
74220 On ch=2 n=32 v=111
74273 On ch=2 n=32 v=0
74280 On ch=2 n=33 v=99
74322 On ch=2 n=33 v=0
74340 On ch=2 n=34 v=101
74386 On ch=2 n=34 v=0
74400 On ch=2 n=35 v=117
74556 On ch=2 n=35 v=0
74580 On ch=2 n=35 v=102
74627 On ch=2 n=35 v=0
74640 On ch=2 n=30 v=107
74803 On ch=2 n=30 v=0
74820 On ch=2 n=30 v=102
74873 On ch=2 n=30 v=0
74880 On ch=2 n=35 v=105
75038 On ch=2 n=35 v=0
75060 On ch=2 n=35 v=107
75105 On ch=2 n=35 v=0
75120 On ch=2 n=30 v=110
75226 On ch=2 n=30 v=0
75240 On ch=2 n=35 v=110
75335 On ch=2 n=35 v=0
75360 On ch=2 n=42 v=97
75523 On ch=2 n=42 v=0
75600 On ch=2 n=42 v=102
75660 On ch=2 n=42 v=0
75660 On ch=2 n=40 v=97
75733 On ch=2 n=40 v=0
75780 On ch=2 n=42 v=97
75960 On ch=2 n=42 v=0
76080 On ch=2 n=37 v=101
76157 On ch=2 n=37 v=0
76200 On ch=2 n=39 v=99
76260 On ch=2 n=39 v=0
76320 On ch=2 n=42 v=99
76483 On ch=2 n=42 v=0
76560 On ch=2 n=42 v=105
76616 On ch=2 n=42 v=0
76620 On ch=2 n=40 v=89
76693 On ch=2 n=40 v=0
76740 On ch=2 n=42 v=102
76937 On ch=2 n=42 v=0
77040 On ch=2 n=37 v=109
77107 On ch=2 n=37 v=0
77160 On ch=2 n=39 v=105
77226 On ch=2 n=39 v=0
77280 On ch=2 n=30 v=110
77700 On ch=2 n=30 v=0
77700 On ch=2 n=42 v=99
77921 On ch=2 n=42 v=0
78000 On ch=2 n=37 v=106
78075 On ch=2 n=37 v=0
78120 On ch=2 n=39 v=105
78180 On ch=2 n=39 v=0
78240 On ch=2 n=30 v=121
78660 On ch=2 n=30 v=0
78660 On ch=2 n=42 v=99
78868 On ch=2 n=42 v=0
78960 On ch=2 n=37 v=101
79022 On ch=2 n=37 v=0
79080 On ch=2 n=39 v=97
79137 On ch=2 n=39 v=0
79200 On ch=2 n=30 v=119
80160 On ch=2 n=30 v=0
80160 Meta TrkEnd
TrkEnd
MTrk
0 Meta 0x21 00
0 Par ch=3 c=0 v=0
0 Par ch=3 c=32 v=0
0 PrCh ch=3 p=25
0 Par ch=3 c=7 v=75
0 Par ch=3 c=10 v=4
106 Par ch=3 c=121 v=0
138 Par ch=3 c=11 v=127
138 Par ch=3 c=93 v=127
138 Par ch=3 c=91 v=127
480 On ch=3 n=42 v=66
481 On ch=3 n=49 v=46
483 On ch=3 n=54 v=57
486 On ch=3 n=58 v=59
488 On ch=3 n=61 v=50
491 On ch=3 n=66 v=44
598 On ch=3 n=54 v=0
600 On ch=3 n=54 v=73
602 On ch=3 n=58 v=0
603 On ch=3 n=61 v=0
603 On ch=3 n=58 v=73
607 On ch=3 n=66 v=0
607 On ch=3 n=61 v=73
611 On ch=3 n=66 v=82
657 On ch=3 n=61 v=0
658 On ch=3 n=66 v=0
660 On ch=3 n=66 v=64
660 On ch=3 n=61 v=42
719 On ch=3 n=58 v=0
723 On ch=3 n=58 v=59
725 On ch=3 n=61 v=0
727 On ch=3 n=61 v=43
728 On ch=3 n=66 v=0
731 On ch=3 n=66 v=49
778 On ch=3 n=66 v=0
780 On ch=3 n=66 v=50
833 On ch=3 n=49 v=0
835 On ch=3 n=54 v=0
835 On ch=3 n=49 v=42
839 On ch=3 n=58 v=0
840 On ch=3 n=54 v=73
843 On ch=3 n=58 v=73
847 On ch=3 n=66 v=0
851 On ch=3 n=66 v=82
894 On ch=3 n=61 v=0
898 On ch=3 n=66 v=0
900 On ch=3 n=66 v=64
900 On ch=3 n=61 v=42
1012 On ch=3 n=66 v=0
1015 On ch=3 n=61 v=0
1015 On ch=3 n=66 v=54
1016 On ch=3 n=58 v=0
1017 On ch=3 n=61 v=52
1020 On ch=3 n=58 v=59
1077 On ch=3 n=42 v=0
1077 On ch=3 n=54 v=0
1078 On ch=3 n=58 v=0
1080 On ch=3 n=42 v=54
1081 On ch=3 n=54 v=73
1082 On ch=3 n=61 v=0
1083 On ch=3 n=66 v=0
1083 On ch=3 n=58 v=73
1085 On ch=3 n=61 v=73
1086 On ch=3 n=66 v=82
1137 On ch=3 n=66 v=0
1140 On ch=3 n=66 v=64
1198 On ch=3 n=49 v=0
1198 On ch=3 n=54 v=0
1199 On ch=3 n=58 v=0
1200 On ch=3 n=49 v=42
1201 On ch=3 n=54 v=66
1203 On ch=3 n=58 v=69
1320 On ch=3 n=58 v=0
1323 On ch=3 n=61 v=0
1323 On ch=3 n=58 v=73
1325 On ch=3 n=66 v=0
1327 On ch=3 n=61 v=73
1331 On ch=3 n=66 v=82
1377 On ch=3 n=61 v=0
1378 On ch=3 n=66 v=0
1380 On ch=3 n=66 v=64
1380 On ch=3 n=61 v=42
1435 On ch=3 n=49 v=0
1438 On ch=3 n=66 v=0
1438 On ch=3 n=54 v=0
1439 On ch=3 n=42 v=0
1439 On ch=3 n=58 v=0
1440 On ch=3 n=61 v=0
1440 On ch=3 n=42 v=66
1441 On ch=3 n=49 v=46
1443 On ch=3 n=54 v=57
1446 On ch=3 n=58 v=59
1448 On ch=3 n=61 v=50
1451 On ch=3 n=66 v=44
1558 On ch=3 n=54 v=0
1560 On ch=3 n=54 v=73
1562 On ch=3 n=58 v=0
1563 On ch=3 n=61 v=0
1563 On ch=3 n=58 v=73
1567 On ch=3 n=66 v=0
1567 On ch=3 n=61 v=73
1571 On ch=3 n=66 v=82
1617 On ch=3 n=61 v=0
1618 On ch=3 n=66 v=0
1620 On ch=3 n=66 v=64
1620 On ch=3 n=61 v=42
1679 On ch=3 n=58 v=0
1683 On ch=3 n=58 v=59
1685 On ch=3 n=61 v=0
1687 On ch=3 n=61 v=43
1688 On ch=3 n=66 v=0
1691 On ch=3 n=66 v=49
1738 On ch=3 n=66 v=0
1740 On ch=3 n=66 v=50
1793 On ch=3 n=49 v=0
1795 On ch=3 n=54 v=0
1795 On ch=3 n=49 v=42
1799 On ch=3 n=58 v=0
1800 On ch=3 n=54 v=73
1803 On ch=3 n=58 v=73
1807 On ch=3 n=66 v=0
1811 On ch=3 n=66 v=82
1854 On ch=3 n=61 v=0
1858 On ch=3 n=66 v=0
1860 On ch=3 n=66 v=64
1860 On ch=3 n=61 v=42
1972 On ch=3 n=66 v=0
1975 On ch=3 n=61 v=0
1975 On ch=3 n=66 v=54
1976 On ch=3 n=58 v=0
1977 On ch=3 n=61 v=52
1980 On ch=3 n=58 v=59
2037 On ch=3 n=42 v=0
2037 On ch=3 n=54 v=0
2038 On ch=3 n=58 v=0
2040 On ch=3 n=42 v=54
2041 On ch=3 n=54 v=73
2042 On ch=3 n=61 v=0
2043 On ch=3 n=66 v=0
2043 On ch=3 n=58 v=73
2045 On ch=3 n=61 v=73
2046 On ch=3 n=66 v=82
2097 On ch=3 n=66 v=0
2100 On ch=3 n=66 v=64
2158 On ch=3 n=49 v=0
2158 On ch=3 n=54 v=0
2159 On ch=3 n=58 v=0
2160 On ch=3 n=49 v=42
2161 On ch=3 n=54 v=66
2163 On ch=3 n=58 v=69
2280 On ch=3 n=58 v=0
2283 On ch=3 n=61 v=0
2283 On ch=3 n=58 v=73
2285 On ch=3 n=66 v=0
2287 On ch=3 n=61 v=73
2291 On ch=3 n=66 v=82
2337 On ch=3 n=61 v=0
2338 On ch=3 n=66 v=0
2340 On ch=3 n=66 v=64
2340 On ch=3 n=61 v=42
2395 On ch=3 n=49 v=0
2398 On ch=3 n=66 v=0
2398 On ch=3 n=54 v=0
2399 On ch=3 n=42 v=0
2399 On ch=3 n=58 v=0
2400 On ch=3 n=61 v=0
2400 On ch=3 n=42 v=66
2401 On ch=3 n=49 v=46
2403 On ch=3 n=54 v=57
2406 On ch=3 n=58 v=59
2408 On ch=3 n=61 v=50
2411 On ch=3 n=66 v=44
2518 On ch=3 n=54 v=0
2520 On ch=3 n=54 v=73
2522 On ch=3 n=58 v=0
2523 On ch=3 n=61 v=0
2523 On ch=3 n=58 v=73
2527 On ch=3 n=66 v=0
2527 On ch=3 n=61 v=73
2531 On ch=3 n=66 v=82
2577 On ch=3 n=61 v=0
2578 On ch=3 n=66 v=0
2580 On ch=3 n=66 v=64
2580 On ch=3 n=61 v=42
2639 On ch=3 n=58 v=0
2643 On ch=3 n=58 v=59
2645 On ch=3 n=61 v=0
2647 On ch=3 n=61 v=43
2648 On ch=3 n=66 v=0
2651 On ch=3 n=66 v=49
2698 On ch=3 n=66 v=0
2700 On ch=3 n=66 v=50
2753 On ch=3 n=49 v=0
2755 On ch=3 n=54 v=0
2755 On ch=3 n=49 v=42
2759 On ch=3 n=58 v=0
2760 On ch=3 n=54 v=73
2763 On ch=3 n=58 v=73
2767 On ch=3 n=66 v=0
2771 On ch=3 n=66 v=82
2814 On ch=3 n=61 v=0
2818 On ch=3 n=66 v=0
2820 On ch=3 n=66 v=64
2820 On ch=3 n=61 v=42
2932 On ch=3 n=66 v=0
2935 On ch=3 n=61 v=0
2935 On ch=3 n=66 v=54
2936 On ch=3 n=58 v=0
2937 On ch=3 n=61 v=52
2940 On ch=3 n=58 v=59
2997 On ch=3 n=42 v=0
2997 On ch=3 n=54 v=0
2998 On ch=3 n=58 v=0
3000 On ch=3 n=42 v=54
3001 On ch=3 n=54 v=73
3002 On ch=3 n=61 v=0
3003 On ch=3 n=66 v=0
3003 On ch=3 n=58 v=73
3005 On ch=3 n=61 v=73
3006 On ch=3 n=66 v=82
3057 On ch=3 n=66 v=0
3060 On ch=3 n=66 v=64
3118 On ch=3 n=49 v=0
3118 On ch=3 n=54 v=0
3119 On ch=3 n=58 v=0
3120 On ch=3 n=49 v=42
3121 On ch=3 n=54 v=66
3123 On ch=3 n=58 v=69
3240 On ch=3 n=58 v=0
3243 On ch=3 n=61 v=0
3243 On ch=3 n=58 v=73
3245 On ch=3 n=66 v=0
3247 On ch=3 n=61 v=73
3251 On ch=3 n=66 v=82
3297 On ch=3 n=61 v=0
3298 On ch=3 n=66 v=0
3300 On ch=3 n=66 v=64
3300 On ch=3 n=61 v=42
3355 On ch=3 n=49 v=0
3358 On ch=3 n=66 v=0
3358 On ch=3 n=54 v=0
3359 On ch=3 n=42 v=0
3359 On ch=3 n=58 v=0
3360 On ch=3 n=61 v=0
3360 On ch=3 n=42 v=66
3361 On ch=3 n=49 v=46
3363 On ch=3 n=54 v=57
3366 On ch=3 n=58 v=59
3368 On ch=3 n=61 v=50
3371 On ch=3 n=66 v=44
3478 On ch=3 n=54 v=0
3480 On ch=3 n=54 v=73
3482 On ch=3 n=58 v=0
3483 On ch=3 n=61 v=0
3483 On ch=3 n=58 v=73
3487 On ch=3 n=66 v=0
3487 On ch=3 n=61 v=73
3491 On ch=3 n=66 v=82
3537 On ch=3 n=61 v=0
3538 On ch=3 n=66 v=0
3540 On ch=3 n=66 v=64
3540 On ch=3 n=61 v=42
3599 On ch=3 n=58 v=0
3603 On ch=3 n=58 v=59
3605 On ch=3 n=61 v=0
3607 On ch=3 n=61 v=43
3608 On ch=3 n=66 v=0
3611 On ch=3 n=66 v=49
3658 On ch=3 n=66 v=0
3660 On ch=3 n=66 v=50
3713 On ch=3 n=49 v=0
3715 On ch=3 n=54 v=0
3715 On ch=3 n=49 v=42
3719 On ch=3 n=58 v=0
3720 On ch=3 n=54 v=73
3723 On ch=3 n=58 v=73
3727 On ch=3 n=66 v=0
3731 On ch=3 n=66 v=82
3774 On ch=3 n=61 v=0
3778 On ch=3 n=66 v=0
3780 On ch=3 n=66 v=64
3780 On ch=3 n=61 v=42
3892 On ch=3 n=66 v=0
3895 On ch=3 n=61 v=0
3895 On ch=3 n=66 v=54
3896 On ch=3 n=58 v=0
3897 On ch=3 n=61 v=52
3900 On ch=3 n=58 v=59
3957 On ch=3 n=42 v=0
3957 On ch=3 n=54 v=0
3958 On ch=3 n=58 v=0
3960 On ch=3 n=42 v=54
3961 On ch=3 n=54 v=73
3962 On ch=3 n=61 v=0
3963 On ch=3 n=66 v=0
3963 On ch=3 n=58 v=73
3965 On ch=3 n=61 v=73
3966 On ch=3 n=66 v=82
4017 On ch=3 n=66 v=0
4020 On ch=3 n=66 v=64
4078 On ch=3 n=49 v=0
4078 On ch=3 n=54 v=0
4079 On ch=3 n=58 v=0
4080 On ch=3 n=49 v=42
4081 On ch=3 n=54 v=66
4083 On ch=3 n=58 v=69
4200 On ch=3 n=58 v=0
4203 On ch=3 n=61 v=0
4203 On ch=3 n=58 v=73
4205 On ch=3 n=66 v=0
4207 On ch=3 n=61 v=73
4211 On ch=3 n=66 v=82
4257 On ch=3 n=61 v=0
4258 On ch=3 n=66 v=0
4260 On ch=3 n=66 v=64
4260 On ch=3 n=61 v=42
4315 On ch=3 n=49 v=0
4318 On ch=3 n=66 v=0
4318 On ch=3 n=54 v=0
4319 On ch=3 n=42 v=0
4319 On ch=3 n=58 v=0
4320 On ch=3 n=61 v=0
4320 On ch=3 n=42 v=66
4321 On ch=3 n=49 v=46
4323 On ch=3 n=54 v=57
4326 On ch=3 n=58 v=59
4328 On ch=3 n=61 v=50
4331 On ch=3 n=66 v=44
4438 On ch=3 n=54 v=0
4440 On ch=3 n=54 v=73
4442 On ch=3 n=58 v=0
4443 On ch=3 n=61 v=0
4443 On ch=3 n=58 v=73
4447 On ch=3 n=66 v=0
4447 On ch=3 n=61 v=73
4451 On ch=3 n=66 v=82
4497 On ch=3 n=61 v=0
4498 On ch=3 n=66 v=0
4500 On ch=3 n=66 v=64
4500 On ch=3 n=61 v=42
4559 On ch=3 n=58 v=0
4563 On ch=3 n=58 v=59
4565 On ch=3 n=61 v=0
4567 On ch=3 n=61 v=43
4568 On ch=3 n=66 v=0
4571 On ch=3 n=66 v=49
4618 On ch=3 n=66 v=0
4620 On ch=3 n=66 v=50
4673 On ch=3 n=49 v=0
4675 On ch=3 n=54 v=0
4675 On ch=3 n=49 v=42
4679 On ch=3 n=58 v=0
4680 On ch=3 n=54 v=73
4683 On ch=3 n=58 v=73
4687 On ch=3 n=66 v=0
4691 On ch=3 n=66 v=82
4734 On ch=3 n=61 v=0
4738 On ch=3 n=66 v=0
4740 On ch=3 n=66 v=64
4740 On ch=3 n=61 v=42
4852 On ch=3 n=66 v=0
4855 On ch=3 n=61 v=0
4855 On ch=3 n=66 v=54
4856 On ch=3 n=58 v=0
4857 On ch=3 n=61 v=52
4860 On ch=3 n=58 v=59
4917 On ch=3 n=42 v=0
4917 On ch=3 n=54 v=0
4918 On ch=3 n=58 v=0
4920 On ch=3 n=42 v=54
4921 On ch=3 n=54 v=73
4922 On ch=3 n=61 v=0
4923 On ch=3 n=66 v=0
4923 On ch=3 n=58 v=73
4925 On ch=3 n=61 v=73
4926 On ch=3 n=66 v=82
4977 On ch=3 n=66 v=0
4980 On ch=3 n=66 v=64
5038 On ch=3 n=49 v=0
5038 On ch=3 n=54 v=0
5039 On ch=3 n=58 v=0
5040 On ch=3 n=49 v=42
5041 On ch=3 n=54 v=66
5043 On ch=3 n=58 v=69
5160 On ch=3 n=58 v=0
5163 On ch=3 n=61 v=0
5163 On ch=3 n=58 v=73
5165 On ch=3 n=66 v=0
5167 On ch=3 n=61 v=73
5171 On ch=3 n=66 v=82
5217 On ch=3 n=61 v=0
5218 On ch=3 n=66 v=0
5220 On ch=3 n=66 v=64
5220 On ch=3 n=61 v=42
5275 On ch=3 n=49 v=0
5278 On ch=3 n=66 v=0
5278 On ch=3 n=54 v=0
5279 On ch=3 n=42 v=0
5279 On ch=3 n=58 v=0
5280 On ch=3 n=61 v=0
5280 On ch=3 n=42 v=66
5281 On ch=3 n=49 v=46
5283 On ch=3 n=54 v=57
5286 On ch=3 n=58 v=59
5288 On ch=3 n=61 v=50
5291 On ch=3 n=66 v=44
5398 On ch=3 n=54 v=0
5400 On ch=3 n=54 v=73
5402 On ch=3 n=58 v=0
5403 On ch=3 n=61 v=0
5403 On ch=3 n=58 v=73
5407 On ch=3 n=66 v=0
5407 On ch=3 n=61 v=73
5411 On ch=3 n=66 v=82
5457 On ch=3 n=61 v=0
5458 On ch=3 n=66 v=0
5460 On ch=3 n=66 v=64
5460 On ch=3 n=61 v=42
5519 On ch=3 n=58 v=0
5523 On ch=3 n=58 v=59
5525 On ch=3 n=61 v=0
5527 On ch=3 n=61 v=43
5528 On ch=3 n=66 v=0
5531 On ch=3 n=66 v=49
5578 On ch=3 n=66 v=0
5580 On ch=3 n=66 v=50
5633 On ch=3 n=49 v=0
5635 On ch=3 n=54 v=0
5635 On ch=3 n=49 v=42
5639 On ch=3 n=58 v=0
5640 On ch=3 n=54 v=73
5643 On ch=3 n=58 v=73
5647 On ch=3 n=66 v=0
5651 On ch=3 n=66 v=82
5694 On ch=3 n=61 v=0
5698 On ch=3 n=66 v=0
5700 On ch=3 n=66 v=64
5700 On ch=3 n=61 v=42
5812 On ch=3 n=66 v=0
5815 On ch=3 n=61 v=0
5815 On ch=3 n=66 v=54
5816 On ch=3 n=58 v=0
5817 On ch=3 n=61 v=52
5820 On ch=3 n=58 v=59
5877 On ch=3 n=42 v=0
5877 On ch=3 n=54 v=0
5878 On ch=3 n=58 v=0
5880 On ch=3 n=42 v=54
5881 On ch=3 n=54 v=73
5882 On ch=3 n=61 v=0
5883 On ch=3 n=66 v=0
5883 On ch=3 n=58 v=73
5885 On ch=3 n=61 v=73
5886 On ch=3 n=66 v=82
5937 On ch=3 n=66 v=0
5940 On ch=3 n=66 v=64
5998 On ch=3 n=49 v=0
5998 On ch=3 n=54 v=0
5999 On ch=3 n=58 v=0
6000 On ch=3 n=49 v=42
6001 On ch=3 n=54 v=66
6003 On ch=3 n=58 v=69
6120 On ch=3 n=58 v=0
6123 On ch=3 n=61 v=0
6123 On ch=3 n=58 v=73
6125 On ch=3 n=66 v=0
6127 On ch=3 n=61 v=73
6131 On ch=3 n=66 v=82
6177 On ch=3 n=61 v=0
6178 On ch=3 n=66 v=0
6180 On ch=3 n=66 v=64
6180 On ch=3 n=61 v=42
6235 On ch=3 n=49 v=0
6238 On ch=3 n=66 v=0
6238 On ch=3 n=54 v=0
6239 On ch=3 n=42 v=0
6239 On ch=3 n=58 v=0
6240 On ch=3 n=61 v=0
6240 On ch=3 n=42 v=66
6241 On ch=3 n=49 v=46
6243 On ch=3 n=54 v=57
6246 On ch=3 n=58 v=59
6248 On ch=3 n=61 v=50
6251 On ch=3 n=66 v=44
6358 On ch=3 n=54 v=0
6360 On ch=3 n=54 v=73
6362 On ch=3 n=58 v=0
6363 On ch=3 n=61 v=0
6363 On ch=3 n=58 v=73
6367 On ch=3 n=66 v=0
6367 On ch=3 n=61 v=73
6371 On ch=3 n=66 v=82
6417 On ch=3 n=61 v=0
6418 On ch=3 n=66 v=0
6420 On ch=3 n=66 v=64
6420 On ch=3 n=61 v=42
6479 On ch=3 n=58 v=0
6483 On ch=3 n=58 v=59
6485 On ch=3 n=61 v=0
6487 On ch=3 n=61 v=43
6488 On ch=3 n=66 v=0
6491 On ch=3 n=66 v=49
6538 On ch=3 n=66 v=0
6540 On ch=3 n=66 v=50
6593 On ch=3 n=49 v=0
6595 On ch=3 n=54 v=0
6595 On ch=3 n=49 v=42
6599 On ch=3 n=58 v=0
6600 On ch=3 n=54 v=73
6603 On ch=3 n=58 v=73
6607 On ch=3 n=66 v=0
6611 On ch=3 n=66 v=82
6654 On ch=3 n=61 v=0
6658 On ch=3 n=66 v=0
6660 On ch=3 n=66 v=64
6660 On ch=3 n=61 v=42
6689 On ch=3 n=58 v=0
6690 On ch=3 n=42 v=0
6690 On ch=3 n=54 v=0
6707 On ch=3 n=66 v=0
6720 On ch=3 n=61 v=0
6720 On ch=3 n=49 v=0
6720 On ch=3 n=63 v=63
6720 On ch=3 n=47 v=54
6720 On ch=3 n=59 v=63
6720 On ch=3 n=54 v=63
6725 On ch=3 n=66 v=62
6776 On ch=3 n=66 v=0
6778 On ch=3 n=66 v=64
6835 On ch=3 n=63 v=0
6836 On ch=3 n=59 v=0
6837 On ch=3 n=54 v=0
6841 On ch=3 n=63 v=73
6841 On ch=3 n=54 v=73
6843 On ch=3 n=59 v=73
6844 On ch=3 n=66 v=0
6846 On ch=3 n=66 v=82
6897 On ch=3 n=66 v=0
6900 On ch=3 n=66 v=64
6956 On ch=3 n=63 v=0
6958 On ch=3 n=54 v=0
6959 On ch=3 n=59 v=0
6960 On ch=3 n=59 v=69
6960 On ch=3 n=54 v=66
6962 On ch=3 n=63 v=69
6966 On ch=3 n=66 v=0
6968 On ch=3 n=66 v=61
7077 On ch=3 n=59 v=0
7080 On ch=3 n=63 v=0
7080 On ch=3 n=59 v=73
7083 On ch=3 n=63 v=73
7088 On ch=3 n=66 v=0
7091 On ch=3 n=66 v=82
7133 On ch=3 n=63 v=0
7136 On ch=3 n=63 v=42
7138 On ch=3 n=66 v=0
7140 On ch=3 n=66 v=64
7188 On ch=3 n=47 v=0
7196 On ch=3 n=63 v=0
7196 On ch=3 n=59 v=0
7197 On ch=3 n=54 v=0
7198 On ch=3 n=66 v=0
7200 On ch=3 n=47 v=66
7202 On ch=3 n=59 v=59
7203 On ch=3 n=54 v=57
7205 On ch=3 n=63 v=50
7211 On ch=3 n=66 v=44
7318 On ch=3 n=54 v=0
7318 On ch=3 n=59 v=0
7320 On ch=3 n=63 v=0
7320 On ch=3 n=59 v=73
7320 On ch=3 n=54 v=73
7323 On ch=3 n=63 v=73
7327 On ch=3 n=66 v=0
7331 On ch=3 n=66 v=82
7373 On ch=3 n=63 v=0
7376 On ch=3 n=63 v=42
7378 On ch=3 n=66 v=0
7380 On ch=3 n=66 v=64
7436 On ch=3 n=59 v=0
7440 On ch=3 n=59 v=59
7441 On ch=3 n=63 v=0
7443 On ch=3 n=63 v=43
7448 On ch=3 n=66 v=0
7451 On ch=3 n=66 v=49
7498 On ch=3 n=66 v=0
7500 On ch=3 n=66 v=50
7555 On ch=3 n=54 v=0
7556 On ch=3 n=59 v=0
7560 On ch=3 n=57 v=43
7560 On ch=3 n=54 v=73
7567 On ch=3 n=66 v=0
7571 On ch=3 n=66 v=82
7610 On ch=3 n=63 v=0
7616 On ch=3 n=63 v=42
7618 On ch=3 n=66 v=0
7620 On ch=3 n=66 v=64
7731 On ch=3 n=63 v=0
7732 On ch=3 n=66 v=0
7733 On ch=3 n=57 v=0
7733 On ch=3 n=63 v=52
7735 On ch=3 n=66 v=54
7736 On ch=3 n=57 v=59
7794 On ch=3 n=57 v=0
7797 On ch=3 n=47 v=0
7797 On ch=3 n=54 v=0
7798 On ch=3 n=63 v=0
7800 On ch=3 n=57 v=73
7800 On ch=3 n=47 v=54
7801 On ch=3 n=63 v=73
7801 On ch=3 n=54 v=73
7803 On ch=3 n=66 v=0
7806 On ch=3 n=66 v=82
7857 On ch=3 n=66 v=0
7860 On ch=3 n=66 v=64
7916 On ch=3 n=57 v=0
7916 On ch=3 n=63 v=0
7918 On ch=3 n=54 v=0
7920 On ch=3 n=57 v=69
7920 On ch=3 n=54 v=66
7922 On ch=3 n=63 v=69
7926 On ch=3 n=66 v=0
7928 On ch=3 n=66 v=61
8037 On ch=3 n=57 v=0
8040 On ch=3 n=63 v=0
8040 On ch=3 n=57 v=73
8043 On ch=3 n=63 v=73
8048 On ch=3 n=66 v=0
8051 On ch=3 n=66 v=82
8093 On ch=3 n=63 v=0
8098 On ch=3 n=66 v=0
8100 On ch=3 n=63 v=42
8103 On ch=3 n=66 v=64
8206 On ch=3 n=57 v=0
8210 On ch=3 n=47 v=0
8215 On ch=3 n=66 v=0
8215 On ch=3 n=63 v=0
8220 On ch=3 n=47 v=54
8220 On ch=3 n=63 v=52
8221 On ch=3 n=66 v=54
8222 On ch=3 n=57 v=59
8271 On ch=3 n=54 v=0
8280 On ch=3 n=57 v=0
8285 On ch=3 n=63 v=0
8286 On ch=3 n=57 v=73
8287 On ch=3 n=63 v=73
8287 On ch=3 n=54 v=73
8289 On ch=3 n=66 v=0
8292 On ch=3 n=66 v=82
8343 On ch=3 n=66 v=0
8346 On ch=3 n=66 v=64
8402 On ch=3 n=63 v=0
8402 On ch=3 n=57 v=0
8404 On ch=3 n=54 v=0
8406 On ch=3 n=57 v=69
8406 On ch=3 n=54 v=66
8408 On ch=3 n=63 v=69
8412 On ch=3 n=66 v=0
8415 On ch=3 n=66 v=61
8523 On ch=3 n=57 v=0
8526 On ch=3 n=63 v=0
8526 On ch=3 n=57 v=73
8530 On ch=3 n=63 v=73
8535 On ch=3 n=66 v=0
8537 On ch=3 n=66 v=82
8580 On ch=3 n=66 v=52
8581 On ch=3 n=66 v=0
8622 On ch=3 n=66 v=0
8630 On ch=3 n=63 v=0
8630 On ch=3 n=47 v=0
8639 On ch=3 n=54 v=0
8639 On ch=3 n=57 v=0
8640 On ch=3 n=47 v=74
8640 On ch=3 n=52 v=73
8642 On ch=3 n=56 v=63
8643 On ch=3 n=59 v=64
8698 On ch=3 n=64 v=74
8757 On ch=3 n=52 v=0
8758 On ch=3 n=59 v=0
8758 On ch=3 n=56 v=0
8761 On ch=3 n=59 v=83
8761 On ch=3 n=52 v=83
8763 On ch=3 n=56 v=83
8764 On ch=3 n=64 v=0
8766 On ch=3 n=64 v=92
8817 On ch=3 n=64 v=0
8820 On ch=3 n=64 v=74
8876 On ch=3 n=59 v=0
8878 On ch=3 n=52 v=0
8879 On ch=3 n=56 v=0
8880 On ch=3 n=56 v=79
8880 On ch=3 n=52 v=76
8882 On ch=3 n=59 v=79
8884 On ch=3 n=64 v=0
8888 On ch=3 n=64 v=71
8997 On ch=3 n=56 v=0
9000 On ch=3 n=59 v=0
9000 On ch=3 n=56 v=83
9003 On ch=3 n=59 v=83
9006 On ch=3 n=64 v=52
9008 On ch=3 n=64 v=0
9060 On ch=3 n=64 v=64
9108 On ch=3 n=47 v=0
9116 On ch=3 n=56 v=0
9117 On ch=3 n=52 v=0
9118 On ch=3 n=64 v=0
9120 On ch=3 n=57 v=71
9120 On ch=3 n=61 v=63
9120 On ch=3 n=45 v=83
9120 On ch=3 n=52 v=73
9121 On ch=3 n=59 v=0
9123 On ch=3 n=64 v=0
9125 On ch=3 n=64 v=62
9176 On ch=3 n=64 v=0
9178 On ch=3 n=64 v=74
9235 On ch=3 n=61 v=0
9236 On ch=3 n=57 v=0
9237 On ch=3 n=52 v=0
9241 On ch=3 n=61 v=83
9241 On ch=3 n=52 v=83
9243 On ch=3 n=57 v=83
9244 On ch=3 n=64 v=0
9246 On ch=3 n=64 v=92
9297 On ch=3 n=64 v=0
9300 On ch=3 n=64 v=74
9356 On ch=3 n=61 v=0
9358 On ch=3 n=52 v=0
9359 On ch=3 n=57 v=0
9360 On ch=3 n=64 v=71
9360 On ch=3 n=57 v=79
9360 On ch=3 n=52 v=76
9362 On ch=3 n=61 v=79
9366 On ch=3 n=64 v=0
9420 On ch=3 n=64 v=0
9477 On ch=3 n=57 v=0
9480 On ch=3 n=61 v=0
9480 On ch=3 n=57 v=83
9483 On ch=3 n=61 v=83
9491 On ch=3 n=64 v=92
9533 On ch=3 n=61 v=0
9536 On ch=3 n=61 v=52
9538 On ch=3 n=64 v=0
9540 On ch=3 n=64 v=74
9588 On ch=3 n=45 v=0
9596 On ch=3 n=61 v=0
9596 On ch=3 n=57 v=0
9597 On ch=3 n=52 v=0
9598 On ch=3 n=64 v=0
9598 On ch=3 n=50 v=93
9600 On ch=3 n=62 v=71
9600 On ch=3 n=54 v=63
9600 On ch=3 n=57 v=73
9605 On ch=3 n=69 v=62
9656 On ch=3 n=69 v=0
9658 On ch=3 n=69 v=74
9715 On ch=3 n=54 v=0
9716 On ch=3 n=62 v=0
9717 On ch=3 n=57 v=0
9721 On ch=3 n=54 v=83
9721 On ch=3 n=57 v=83
9723 On ch=3 n=62 v=83
9724 On ch=3 n=69 v=0
9726 On ch=3 n=69 v=92
9777 On ch=3 n=69 v=0
9780 On ch=3 n=69 v=74
9833 On ch=3 n=49 v=94
9836 On ch=3 n=54 v=0
9838 On ch=3 n=57 v=0
9838 On ch=3 n=50 v=0
9839 On ch=3 n=62 v=0
9840 On ch=3 n=69 v=71
9840 On ch=3 n=62 v=59
9840 On ch=3 n=57 v=66
9840 On ch=3 n=52 v=69
9846 On ch=3 n=69 v=0
9900 On ch=3 n=69 v=0
9957 On ch=3 n=62 v=0
9958 On ch=3 n=52 v=0
9960 On ch=3 n=52 v=83
9960 On ch=3 n=62 v=83
9971 On ch=3 n=69 v=92
10010 On ch=3 n=52 v=0
10012 On ch=3 n=52 v=52
10018 On ch=3 n=69 v=0
10020 On ch=3 n=69 v=74
10072 On ch=3 n=52 v=0
10073 On ch=3 n=49 v=0
10076 On ch=3 n=62 v=0
10077 On ch=3 n=57 v=0
10078 On ch=3 n=69 v=0
10080 On ch=3 n=59 v=53
10080 On ch=3 n=62 v=45
10080 On ch=3 n=47 v=65
10080 On ch=3 n=54 v=55
10085 On ch=3 n=66 v=44
10136 On ch=3 n=66 v=0
10138 On ch=3 n=66 v=56
10195 On ch=3 n=62 v=0
10196 On ch=3 n=59 v=0
10197 On ch=3 n=54 v=0
10201 On ch=3 n=62 v=65
10201 On ch=3 n=54 v=65
10203 On ch=3 n=59 v=65
10204 On ch=3 n=66 v=0
10206 On ch=3 n=66 v=74
10257 On ch=3 n=66 v=0
10260 On ch=3 n=66 v=56
10313 On ch=3 n=66 v=0
10316 On ch=3 n=62 v=0
10318 On ch=3 n=54 v=0
10319 On ch=3 n=59 v=0
10320 On ch=3 n=66 v=53
10320 On ch=3 n=59 v=61
10320 On ch=3 n=54 v=58
10322 On ch=3 n=62 v=61
10437 On ch=3 n=59 v=0
10440 On ch=3 n=62 v=0
10440 On ch=3 n=66 v=0
10440 On ch=3 n=59 v=65
10443 On ch=3 n=62 v=65
10451 On ch=3 n=66 v=74
10493 On ch=3 n=62 v=0
10496 On ch=3 n=62 v=44
10498 On ch=3 n=66 v=0
10500 On ch=3 n=66 v=57
10548 On ch=3 n=47 v=0
10556 On ch=3 n=59 v=0
10557 On ch=3 n=54 v=0
10560 On ch=3 n=59 v=53
10560 On ch=3 n=47 v=65
10560 On ch=3 n=54 v=55
10608 On ch=3 n=66 v=0
10618 On ch=3 n=66 v=56
10674 On ch=3 n=62 v=0
10676 On ch=3 n=59 v=0
10677 On ch=3 n=54 v=0
10681 On ch=3 n=62 v=65
10681 On ch=3 n=54 v=65
10683 On ch=3 n=59 v=65
10684 On ch=3 n=66 v=0
10686 On ch=3 n=66 v=74
10737 On ch=3 n=66 v=0
10740 On ch=3 n=66 v=56
10793 On ch=3 n=66 v=0
10796 On ch=3 n=62 v=0
10798 On ch=3 n=54 v=0
10799 On ch=3 n=59 v=0
10800 On ch=3 n=66 v=53
10800 On ch=3 n=59 v=61
10800 On ch=3 n=54 v=58
10802 On ch=3 n=62 v=61
10917 On ch=3 n=59 v=0
10920 On ch=3 n=62 v=0
10920 On ch=3 n=66 v=0
10920 On ch=3 n=59 v=65
10923 On ch=3 n=62 v=65
10931 On ch=3 n=66 v=74
10973 On ch=3 n=62 v=0
10976 On ch=3 n=62 v=34
10978 On ch=3 n=66 v=0
10980 On ch=3 n=66 v=56
11028 On ch=3 n=47 v=0
11036 On ch=3 n=62 v=0
11036 On ch=3 n=59 v=0
11037 On ch=3 n=54 v=0
11038 On ch=3 n=66 v=0
11040 On ch=3 n=42 v=76
11041 On ch=3 n=49 v=56
11043 On ch=3 n=54 v=67
11046 On ch=3 n=58 v=69
11048 On ch=3 n=61 v=60
11051 On ch=3 n=66 v=54
11158 On ch=3 n=54 v=0
11160 On ch=3 n=54 v=83
11162 On ch=3 n=58 v=0
11163 On ch=3 n=61 v=0
11163 On ch=3 n=58 v=83
11167 On ch=3 n=66 v=0
11167 On ch=3 n=61 v=83
11171 On ch=3 n=66 v=92
11217 On ch=3 n=61 v=0
11218 On ch=3 n=66 v=0
11220 On ch=3 n=66 v=74
11220 On ch=3 n=61 v=52
11279 On ch=3 n=58 v=0
11283 On ch=3 n=58 v=69
11285 On ch=3 n=61 v=0
11287 On ch=3 n=61 v=53
11288 On ch=3 n=66 v=0
11291 On ch=3 n=66 v=59
11338 On ch=3 n=66 v=0
11340 On ch=3 n=66 v=60
11393 On ch=3 n=49 v=0
11395 On ch=3 n=54 v=0
11395 On ch=3 n=49 v=52
11399 On ch=3 n=58 v=0
11400 On ch=3 n=54 v=83
11403 On ch=3 n=58 v=83
11407 On ch=3 n=66 v=0
11411 On ch=3 n=66 v=92
11454 On ch=3 n=61 v=0
11458 On ch=3 n=66 v=0
11460 On ch=3 n=66 v=74
11460 On ch=3 n=61 v=52
11572 On ch=3 n=66 v=0
11575 On ch=3 n=61 v=0
11575 On ch=3 n=66 v=64
11576 On ch=3 n=58 v=0
11577 On ch=3 n=61 v=62
11580 On ch=3 n=58 v=69
11637 On ch=3 n=42 v=0
11637 On ch=3 n=54 v=0
11638 On ch=3 n=58 v=0
11640 On ch=3 n=42 v=64
11641 On ch=3 n=54 v=83
11642 On ch=3 n=61 v=0
11643 On ch=3 n=66 v=0
11643 On ch=3 n=58 v=83
11645 On ch=3 n=61 v=83
11646 On ch=3 n=66 v=92
11697 On ch=3 n=66 v=0
11700 On ch=3 n=66 v=74
11758 On ch=3 n=49 v=0
11758 On ch=3 n=54 v=0
11759 On ch=3 n=58 v=0
11760 On ch=3 n=49 v=52
11761 On ch=3 n=54 v=76
11763 On ch=3 n=58 v=79
11880 On ch=3 n=58 v=0
11883 On ch=3 n=61 v=0
11883 On ch=3 n=58 v=83
11885 On ch=3 n=66 v=0
11887 On ch=3 n=61 v=83
11891 On ch=3 n=66 v=92
11937 On ch=3 n=61 v=0
11938 On ch=3 n=66 v=0
11940 On ch=3 n=66 v=74
11940 On ch=3 n=61 v=52
11995 On ch=3 n=49 v=0
11998 On ch=3 n=66 v=0
11998 On ch=3 n=54 v=0
11999 On ch=3 n=42 v=0
11999 On ch=3 n=58 v=0
12000 On ch=3 n=61 v=0
12000 On ch=3 n=40 v=76
12001 On ch=3 n=47 v=56
12003 On ch=3 n=52 v=67
12006 On ch=3 n=56 v=69
12008 On ch=3 n=59 v=60
12011 On ch=3 n=64 v=54
12118 On ch=3 n=52 v=0
12120 On ch=3 n=52 v=83
12122 On ch=3 n=56 v=0
12123 On ch=3 n=59 v=0
12123 On ch=3 n=56 v=83
12127 On ch=3 n=64 v=0
12127 On ch=3 n=59 v=83
12131 On ch=3 n=64 v=92
12177 On ch=3 n=59 v=0
12178 On ch=3 n=64 v=0
12180 On ch=3 n=64 v=74
12180 On ch=3 n=59 v=52
12239 On ch=3 n=56 v=0
12243 On ch=3 n=56 v=69
12245 On ch=3 n=59 v=0
12247 On ch=3 n=59 v=53
12248 On ch=3 n=64 v=0
12251 On ch=3 n=64 v=59
12298 On ch=3 n=64 v=0
12300 On ch=3 n=64 v=60
12353 On ch=3 n=47 v=0
12355 On ch=3 n=52 v=0
12355 On ch=3 n=47 v=52
12359 On ch=3 n=56 v=0
12360 On ch=3 n=52 v=83
12363 On ch=3 n=56 v=83
12367 On ch=3 n=64 v=0
12371 On ch=3 n=64 v=92
12414 On ch=3 n=59 v=0
12418 On ch=3 n=64 v=0
12420 On ch=3 n=64 v=74
12420 On ch=3 n=59 v=52
12532 On ch=3 n=64 v=0
12535 On ch=3 n=59 v=0
12535 On ch=3 n=64 v=64
12536 On ch=3 n=56 v=0
12537 On ch=3 n=59 v=62
12540 On ch=3 n=56 v=69
12597 On ch=3 n=40 v=0
12597 On ch=3 n=52 v=0
12598 On ch=3 n=56 v=0
12600 On ch=3 n=40 v=64
12601 On ch=3 n=52 v=83
12602 On ch=3 n=59 v=0
12603 On ch=3 n=64 v=0
12603 On ch=3 n=56 v=83
12605 On ch=3 n=59 v=83
12606 On ch=3 n=64 v=92
12657 On ch=3 n=64 v=0
12660 On ch=3 n=64 v=74
12718 On ch=3 n=47 v=0
12718 On ch=3 n=52 v=0
12719 On ch=3 n=56 v=0
12720 On ch=3 n=47 v=52
12721 On ch=3 n=52 v=76
12723 On ch=3 n=56 v=79
12840 On ch=3 n=56 v=0
12843 On ch=3 n=59 v=0
12843 On ch=3 n=56 v=83
12845 On ch=3 n=64 v=0
12847 On ch=3 n=59 v=83
12851 On ch=3 n=64 v=92
12897 On ch=3 n=59 v=0
12898 On ch=3 n=64 v=0
12900 On ch=3 n=64 v=74
12900 On ch=3 n=59 v=52
12955 On ch=3 n=47 v=0
12958 On ch=3 n=64 v=0
12958 On ch=3 n=52 v=0
12959 On ch=3 n=40 v=0
12959 On ch=3 n=56 v=0
12960 On ch=3 n=59 v=0
12960 On ch=3 n=45 v=86
12963 On ch=3 n=52 v=74
12966 On ch=3 n=57 v=76
12968 On ch=3 n=61 v=67
13078 On ch=3 n=52 v=0
13080 On ch=3 n=52 v=93
13082 On ch=3 n=57 v=0
13083 On ch=3 n=61 v=0
13083 On ch=3 n=57 v=94
13087 On ch=3 n=61 v=94
13091 On ch=3 n=64 v=99
13137 On ch=3 n=61 v=0
13138 On ch=3 n=64 v=0
13140 On ch=3 n=64 v=81
13140 On ch=3 n=61 v=59
13199 On ch=3 n=57 v=0
13203 On ch=3 n=57 v=76
13205 On ch=3 n=61 v=0
13207 On ch=3 n=61 v=60
13255 On ch=3 n=64 v=0
13260 On ch=3 n=64 v=67
13319 On ch=3 n=57 v=0
13319 On ch=3 n=61 v=0
13323 On ch=3 n=64 v=0
13323 On ch=3 n=61 v=81
13323 On ch=3 n=57 v=90
13326 On ch=3 n=64 v=99
13373 On ch=3 n=64 v=0
13380 On ch=3 n=64 v=81
13380 On ch=3 n=61 v=59
13383 On ch=3 n=61 v=0
13433 On ch=3 n=52 v=0
13435 On ch=3 n=61 v=0
13439 On ch=3 n=57 v=0
13440 On ch=3 n=64 v=0
13440 On ch=3 n=45 v=0
13440 On ch=3 n=42 v=93
13443 On ch=3 n=54 v=74
13446 On ch=3 n=57 v=76
13448 On ch=3 n=61 v=66
13558 On ch=3 n=54 v=0
13560 On ch=3 n=61 v=0
13561 On ch=3 n=54 v=90
13562 On ch=3 n=57 v=0
13562 On ch=3 n=57 v=91
13563 On ch=3 n=61 v=92
13565 On ch=3 n=66 v=99
13616 On ch=3 n=66 v=0
13618 On ch=3 n=61 v=0
13620 On ch=3 n=66 v=81
13620 On ch=3 n=61 v=59
13685 On ch=3 n=61 v=0
13687 On ch=3 n=61 v=60
13688 On ch=3 n=66 v=0
13691 On ch=3 n=66 v=66
13738 On ch=3 n=66 v=0
13740 On ch=3 n=66 v=65
13796 On ch=3 n=54 v=0
13797 On ch=3 n=57 v=0
13799 On ch=3 n=61 v=0
13800 On ch=3 n=54 v=85
13802 On ch=3 n=57 v=87
13803 On ch=3 n=66 v=0
13803 On ch=3 n=61 v=92
13805 On ch=3 n=66 v=87
13852 On ch=3 n=66 v=0
13859 On ch=3 n=61 v=0
13860 On ch=3 n=66 v=81
13860 On ch=3 n=61 v=59
13918 On ch=3 n=57 v=0
13920 On ch=3 n=66 v=0
13920 On ch=3 n=42 v=0
13920 On ch=3 n=54 v=0
13920 On ch=3 n=61 v=0
13920 On ch=3 n=45 v=86
13923 On ch=3 n=52 v=74
13926 On ch=3 n=57 v=76
13928 On ch=3 n=61 v=67
14038 On ch=3 n=52 v=0
14040 On ch=3 n=52 v=93
14042 On ch=3 n=57 v=0
14043 On ch=3 n=61 v=0
14043 On ch=3 n=57 v=94
14047 On ch=3 n=61 v=94
14051 On ch=3 n=64 v=99
14097 On ch=3 n=61 v=0
14098 On ch=3 n=64 v=0
14100 On ch=3 n=64 v=81
14100 On ch=3 n=61 v=59
14159 On ch=3 n=57 v=0
14163 On ch=3 n=57 v=76
14165 On ch=3 n=61 v=0
14167 On ch=3 n=61 v=60
14215 On ch=3 n=64 v=0
14220 On ch=3 n=64 v=67
14279 On ch=3 n=57 v=0
14282 On ch=3 n=64 v=0
14283 On ch=3 n=57 v=90
14285 On ch=3 n=64 v=99
14332 On ch=3 n=64 v=0
14334 On ch=3 n=61 v=0
14340 On ch=3 n=64 v=81
14340 On ch=3 n=61 v=59
14393 On ch=3 n=52 v=0
14399 On ch=3 n=57 v=0
14400 On ch=3 n=64 v=0
14400 On ch=3 n=45 v=0
14400 On ch=3 n=61 v=0
14400 On ch=3 n=42 v=93
14403 On ch=3 n=54 v=74
14406 On ch=3 n=57 v=76
14408 On ch=3 n=61 v=66
14518 On ch=3 n=54 v=0
14520 On ch=3 n=61 v=0
14521 On ch=3 n=54 v=90
14522 On ch=3 n=57 v=0
14522 On ch=3 n=57 v=91
14523 On ch=3 n=61 v=92
14525 On ch=3 n=66 v=99
14576 On ch=3 n=66 v=0
14578 On ch=3 n=61 v=0
14580 On ch=3 n=66 v=81
14580 On ch=3 n=61 v=59
14645 On ch=3 n=61 v=0
14647 On ch=3 n=61 v=60
14648 On ch=3 n=66 v=0
14651 On ch=3 n=66 v=66
14698 On ch=3 n=66 v=0
14700 On ch=3 n=66 v=65
14756 On ch=3 n=54 v=0
14757 On ch=3 n=57 v=0
14760 On ch=3 n=54 v=85
14763 On ch=3 n=66 v=0
14763 On ch=3 n=57 v=87
14765 On ch=3 n=66 v=86
14812 On ch=3 n=66 v=0
14814 On ch=3 n=61 v=0
14820 On ch=3 n=66 v=81
14820 On ch=3 n=61 v=59
14879 On ch=3 n=57 v=0
14880 On ch=3 n=66 v=0
14880 On ch=3 n=54 v=0
14880 On ch=3 n=42 v=0
14880 On ch=3 n=61 v=0
14880 On ch=3 n=50 v=86
14883 On ch=3 n=57 v=74
14886 On ch=3 n=62 v=76
14888 On ch=3 n=66 v=67
14998 On ch=3 n=57 v=0
15000 On ch=3 n=57 v=93
15002 On ch=3 n=62 v=0
15003 On ch=3 n=66 v=0
15003 On ch=3 n=62 v=94
15007 On ch=3 n=66 v=94
15057 On ch=3 n=66 v=0
15060 On ch=3 n=66 v=59
15118 On ch=3 n=50 v=0
15119 On ch=3 n=62 v=0
15120 On ch=3 n=49 v=81
15123 On ch=3 n=62 v=76
15125 On ch=3 n=66 v=0
15126 On ch=3 n=66 v=60
15179 On ch=3 n=66 v=0
15180 On ch=3 n=66 v=81
15239 On ch=3 n=62 v=0
15239 On ch=3 n=57 v=0
15240 On ch=3 n=66 v=0
15240 On ch=3 n=57 v=71
15241 On ch=3 n=62 v=90
15243 On ch=3 n=66 v=81
15299 On ch=3 n=66 v=0
15300 On ch=3 n=66 v=59
15357 On ch=3 n=62 v=0
15358 On ch=3 n=49 v=0
15359 On ch=3 n=57 v=0
15360 On ch=3 n=66 v=0
15360 On ch=3 n=47 v=86
15363 On ch=3 n=62 v=76
15363 On ch=3 n=57 v=74
15364 On ch=3 n=66 v=67
15478 On ch=3 n=57 v=0
15479 On ch=3 n=66 v=0
15479 On ch=3 n=62 v=0
15480 On ch=3 n=57 v=93
15483 On ch=3 n=62 v=94
15487 On ch=3 n=66 v=94
15537 On ch=3 n=66 v=0
15540 On ch=3 n=66 v=59
15599 On ch=3 n=62 v=0
15603 On ch=3 n=62 v=76
15605 On ch=3 n=66 v=0
15607 On ch=3 n=66 v=60
15719 On ch=3 n=66 v=0
15719 On ch=3 n=62 v=0
15721 On ch=3 n=62 v=90
15723 On ch=3 n=66 v=81
15779 On ch=3 n=66 v=0
15780 On ch=3 n=66 v=59
15833 On ch=3 n=57 v=0
15835 On ch=3 n=47 v=0
15837 On ch=3 n=62 v=0
15840 On ch=3 n=66 v=0
15841 On ch=3 n=47 v=63
15843 On ch=3 n=52 v=74
15843 On ch=3 n=56 v=76
15846 On ch=3 n=59 v=67
15848 On ch=3 n=64 v=61
15958 On ch=3 n=52 v=0
15959 On ch=3 n=56 v=0
15960 On ch=3 n=52 v=90
15961 On ch=3 n=59 v=0
15963 On ch=3 n=56 v=90
15964 On ch=3 n=64 v=0
15967 On ch=3 n=59 v=90
15971 On ch=3 n=64 v=99
16017 On ch=3 n=59 v=0
16018 On ch=3 n=64 v=0
16020 On ch=3 n=64 v=81
16020 On ch=3 n=59 v=59
16079 On ch=3 n=56 v=0
16083 On ch=3 n=56 v=76
16085 On ch=3 n=59 v=0
16087 On ch=3 n=59 v=60
16088 On ch=3 n=64 v=0
16091 On ch=3 n=64 v=66
16138 On ch=3 n=64 v=0
16140 On ch=3 n=64 v=67
16193 On ch=3 n=47 v=0
16195 On ch=3 n=52 v=0
16195 On ch=3 n=47 v=59
16199 On ch=3 n=56 v=0
16200 On ch=3 n=52 v=90
16203 On ch=3 n=56 v=90
16207 On ch=3 n=64 v=0
16211 On ch=3 n=64 v=99
16254 On ch=3 n=59 v=0
16258 On ch=3 n=64 v=0
16260 On ch=3 n=64 v=81
16260 On ch=3 n=59 v=59
16372 On ch=3 n=64 v=0
16375 On ch=3 n=59 v=0
16375 On ch=3 n=64 v=71
16376 On ch=3 n=56 v=0
16377 On ch=3 n=59 v=69
16380 On ch=3 n=56 v=76
16437 On ch=3 n=52 v=0
16438 On ch=3 n=56 v=0
16441 On ch=3 n=52 v=90
16442 On ch=3 n=59 v=0
16443 On ch=3 n=64 v=0
16443 On ch=3 n=56 v=90
16445 On ch=3 n=59 v=90
16446 On ch=3 n=64 v=99
16497 On ch=3 n=64 v=0
16500 On ch=3 n=64 v=81
16558 On ch=3 n=52 v=0
16558 On ch=3 n=47 v=0
16559 On ch=3 n=56 v=0
16560 On ch=3 n=47 v=59
16561 On ch=3 n=52 v=83
16563 On ch=3 n=56 v=86
16680 On ch=3 n=56 v=0
16683 On ch=3 n=59 v=0
16683 On ch=3 n=56 v=90
16685 On ch=3 n=64 v=0
16687 On ch=3 n=59 v=90
16691 On ch=3 n=64 v=99
16737 On ch=3 n=59 v=0
16738 On ch=3 n=64 v=0
16795 On ch=3 n=47 v=0
16798 On ch=3 n=52 v=0
16799 On ch=3 n=56 v=0
16800 On ch=3 n=45 v=86
16803 On ch=3 n=52 v=74
16806 On ch=3 n=57 v=76
16808 On ch=3 n=61 v=67
16918 On ch=3 n=52 v=0
16920 On ch=3 n=52 v=93
16922 On ch=3 n=57 v=0
16923 On ch=3 n=61 v=0
16923 On ch=3 n=57 v=94
16927 On ch=3 n=61 v=94
16931 On ch=3 n=64 v=99
16977 On ch=3 n=61 v=0
16978 On ch=3 n=64 v=0
16980 On ch=3 n=64 v=81
16980 On ch=3 n=61 v=59
17039 On ch=3 n=57 v=0
17043 On ch=3 n=57 v=76
17045 On ch=3 n=61 v=0
17047 On ch=3 n=61 v=60
17095 On ch=3 n=64 v=0
17100 On ch=3 n=64 v=67
17159 On ch=3 n=57 v=0
17159 On ch=3 n=61 v=0
17163 On ch=3 n=64 v=0
17163 On ch=3 n=61 v=81
17163 On ch=3 n=57 v=90
17166 On ch=3 n=64 v=99
17213 On ch=3 n=64 v=0
17220 On ch=3 n=64 v=81
17220 On ch=3 n=61 v=59
17223 On ch=3 n=61 v=0
17273 On ch=3 n=52 v=0
17275 On ch=3 n=61 v=0
17279 On ch=3 n=57 v=0
17280 On ch=3 n=64 v=0
17280 On ch=3 n=45 v=0
17280 On ch=3 n=42 v=93
17283 On ch=3 n=54 v=74
17286 On ch=3 n=57 v=76
17288 On ch=3 n=61 v=66
17398 On ch=3 n=54 v=0
17400 On ch=3 n=61 v=0
17401 On ch=3 n=54 v=90
17402 On ch=3 n=57 v=0
17402 On ch=3 n=57 v=91
17403 On ch=3 n=61 v=92
17405 On ch=3 n=66 v=99
17456 On ch=3 n=66 v=0
17458 On ch=3 n=61 v=0
17460 On ch=3 n=66 v=81
17460 On ch=3 n=61 v=59
17525 On ch=3 n=61 v=0
17527 On ch=3 n=61 v=60
17528 On ch=3 n=66 v=0
17531 On ch=3 n=66 v=66
17578 On ch=3 n=66 v=0
17580 On ch=3 n=66 v=65
17636 On ch=3 n=54 v=0
17637 On ch=3 n=57 v=0
17639 On ch=3 n=61 v=0
17640 On ch=3 n=54 v=85
17642 On ch=3 n=57 v=87
17643 On ch=3 n=66 v=0
17643 On ch=3 n=61 v=92
17645 On ch=3 n=66 v=87
17692 On ch=3 n=66 v=0
17699 On ch=3 n=61 v=0
17700 On ch=3 n=66 v=81
17700 On ch=3 n=61 v=59
17758 On ch=3 n=57 v=0
17760 On ch=3 n=66 v=0
17760 On ch=3 n=42 v=0
17760 On ch=3 n=54 v=0
17760 On ch=3 n=61 v=0
17760 On ch=3 n=45 v=86
17763 On ch=3 n=52 v=74
17766 On ch=3 n=57 v=76
17768 On ch=3 n=61 v=67
17878 On ch=3 n=52 v=0
17880 On ch=3 n=52 v=93
17882 On ch=3 n=57 v=0
17883 On ch=3 n=61 v=0
17883 On ch=3 n=57 v=94
17887 On ch=3 n=61 v=94
17891 On ch=3 n=64 v=99
17937 On ch=3 n=61 v=0
17938 On ch=3 n=64 v=0
17940 On ch=3 n=64 v=81
17940 On ch=3 n=61 v=59
17999 On ch=3 n=57 v=0
18003 On ch=3 n=57 v=76
18005 On ch=3 n=61 v=0
18007 On ch=3 n=61 v=60
18055 On ch=3 n=64 v=0
18060 On ch=3 n=64 v=67
18119 On ch=3 n=57 v=0
18122 On ch=3 n=64 v=0
18123 On ch=3 n=57 v=90
18125 On ch=3 n=64 v=99
18172 On ch=3 n=64 v=0
18174 On ch=3 n=61 v=0
18180 On ch=3 n=64 v=81
18180 On ch=3 n=61 v=59
18233 On ch=3 n=52 v=0
18239 On ch=3 n=57 v=0
18240 On ch=3 n=64 v=0
18240 On ch=3 n=45 v=0
18240 On ch=3 n=61 v=0
18240 On ch=3 n=42 v=93
18243 On ch=3 n=54 v=74
18246 On ch=3 n=57 v=76
18248 On ch=3 n=61 v=66
18358 On ch=3 n=54 v=0
18360 On ch=3 n=61 v=0
18361 On ch=3 n=54 v=90
18362 On ch=3 n=57 v=0
18362 On ch=3 n=57 v=91
18363 On ch=3 n=61 v=92
18365 On ch=3 n=66 v=99
18416 On ch=3 n=66 v=0
18418 On ch=3 n=61 v=0
18420 On ch=3 n=66 v=81
18420 On ch=3 n=61 v=59
18485 On ch=3 n=61 v=0
18487 On ch=3 n=61 v=60
18488 On ch=3 n=66 v=0
18491 On ch=3 n=66 v=66
18538 On ch=3 n=66 v=0
18540 On ch=3 n=66 v=65
18596 On ch=3 n=54 v=0
18597 On ch=3 n=57 v=0
18600 On ch=3 n=54 v=85
18603 On ch=3 n=66 v=0
18603 On ch=3 n=57 v=87
18605 On ch=3 n=66 v=86
18652 On ch=3 n=66 v=0
18654 On ch=3 n=61 v=0
18660 On ch=3 n=66 v=81
18660 On ch=3 n=61 v=59
18719 On ch=3 n=57 v=0
18720 On ch=3 n=66 v=0
18720 On ch=3 n=54 v=0
18720 On ch=3 n=42 v=0
18720 On ch=3 n=61 v=0
18720 On ch=3 n=50 v=86
18723 On ch=3 n=57 v=74
18726 On ch=3 n=62 v=76
18728 On ch=3 n=66 v=67
18838 On ch=3 n=57 v=0
18840 On ch=3 n=57 v=93
18842 On ch=3 n=62 v=0
18843 On ch=3 n=66 v=0
18843 On ch=3 n=62 v=94
18847 On ch=3 n=66 v=94
18897 On ch=3 n=66 v=0
18900 On ch=3 n=66 v=59
18958 On ch=3 n=50 v=0
18959 On ch=3 n=62 v=0
18960 On ch=3 n=49 v=81
18963 On ch=3 n=62 v=76
18965 On ch=3 n=66 v=0
18966 On ch=3 n=66 v=60
19019 On ch=3 n=66 v=0
19020 On ch=3 n=66 v=81
19079 On ch=3 n=62 v=0
19079 On ch=3 n=57 v=0
19080 On ch=3 n=66 v=0
19080 On ch=3 n=57 v=71
19081 On ch=3 n=62 v=90
19083 On ch=3 n=66 v=81
19139 On ch=3 n=66 v=0
19140 On ch=3 n=66 v=59
19197 On ch=3 n=62 v=0
19198 On ch=3 n=49 v=0
19199 On ch=3 n=57 v=0
19200 On ch=3 n=66 v=0
19200 On ch=3 n=50 v=86
19203 On ch=3 n=62 v=76
19203 On ch=3 n=57 v=74
19204 On ch=3 n=66 v=67
19318 On ch=3 n=57 v=0
19319 On ch=3 n=66 v=0
19319 On ch=3 n=62 v=0
19320 On ch=3 n=57 v=93
19323 On ch=3 n=62 v=94
19327 On ch=3 n=66 v=94
19377 On ch=3 n=66 v=0
19380 On ch=3 n=66 v=59
19439 On ch=3 n=62 v=0
19443 On ch=3 n=62 v=76
19445 On ch=3 n=66 v=0
19447 On ch=3 n=66 v=60
19559 On ch=3 n=66 v=0
19559 On ch=3 n=62 v=0
19561 On ch=3 n=62 v=90
19563 On ch=3 n=66 v=81
19619 On ch=3 n=66 v=0
19620 On ch=3 n=66 v=59
19673 On ch=3 n=57 v=0
19675 On ch=3 n=50 v=0
19677 On ch=3 n=62 v=0
19680 On ch=3 n=66 v=0
19681 On ch=3 n=47 v=56
19683 On ch=3 n=54 v=67
19683 On ch=3 n=59 v=69
19686 On ch=3 n=62 v=60
19688 On ch=3 n=66 v=54
19798 On ch=3 n=54 v=0
19799 On ch=3 n=59 v=0
19800 On ch=3 n=54 v=83
19801 On ch=3 n=62 v=0
19803 On ch=3 n=59 v=83
19804 On ch=3 n=66 v=0
19807 On ch=3 n=62 v=83
19811 On ch=3 n=66 v=92
19857 On ch=3 n=62 v=0
19858 On ch=3 n=66 v=0
19860 On ch=3 n=66 v=74
19860 On ch=3 n=62 v=52
19919 On ch=3 n=59 v=0
19923 On ch=3 n=59 v=69
19925 On ch=3 n=62 v=0
19927 On ch=3 n=62 v=53
19928 On ch=3 n=66 v=0
19931 On ch=3 n=66 v=59
19978 On ch=3 n=66 v=0
19980 On ch=3 n=66 v=60
20033 On ch=3 n=47 v=0
20035 On ch=3 n=54 v=0
20035 On ch=3 n=47 v=52
20039 On ch=3 n=59 v=0
20040 On ch=3 n=54 v=83
20043 On ch=3 n=59 v=83
20047 On ch=3 n=66 v=0
20051 On ch=3 n=66 v=92
20094 On ch=3 n=62 v=0
20098 On ch=3 n=66 v=0
20100 On ch=3 n=66 v=74
20100 On ch=3 n=62 v=52
20212 On ch=3 n=66 v=0
20215 On ch=3 n=62 v=0
20215 On ch=3 n=66 v=64
20216 On ch=3 n=59 v=0
20217 On ch=3 n=62 v=62
20220 On ch=3 n=59 v=69
20277 On ch=3 n=54 v=0
20278 On ch=3 n=59 v=0
20281 On ch=3 n=54 v=83
20282 On ch=3 n=62 v=0
20283 On ch=3 n=66 v=0
20283 On ch=3 n=59 v=83
20285 On ch=3 n=62 v=83
20286 On ch=3 n=66 v=92
20337 On ch=3 n=66 v=0
20340 On ch=3 n=66 v=74
20398 On ch=3 n=54 v=0
20398 On ch=3 n=47 v=0
20399 On ch=3 n=59 v=0
20400 On ch=3 n=47 v=52
20401 On ch=3 n=54 v=76
20403 On ch=3 n=59 v=79
20520 On ch=3 n=59 v=0
20523 On ch=3 n=62 v=0
20523 On ch=3 n=59 v=83
20525 On ch=3 n=66 v=0
20527 On ch=3 n=62 v=83
20531 On ch=3 n=66 v=92
20577 On ch=3 n=62 v=0
20578 On ch=3 n=66 v=0
20635 On ch=3 n=47 v=0
20638 On ch=3 n=54 v=0
20639 On ch=3 n=59 v=0
20640 On ch=3 n=42 v=61
20641 On ch=3 n=49 v=41
20643 On ch=3 n=54 v=52
20646 On ch=3 n=58 v=54
20648 On ch=3 n=61 v=45
20651 On ch=3 n=66 v=39
20758 On ch=3 n=54 v=0
20760 On ch=3 n=54 v=68
20762 On ch=3 n=58 v=0
20763 On ch=3 n=61 v=0
20763 On ch=3 n=58 v=68
20767 On ch=3 n=66 v=0
20767 On ch=3 n=61 v=68
20771 On ch=3 n=66 v=77
20817 On ch=3 n=61 v=0
20818 On ch=3 n=66 v=0
20820 On ch=3 n=66 v=59
20820 On ch=3 n=61 v=37
20879 On ch=3 n=58 v=0
20883 On ch=3 n=58 v=54
20885 On ch=3 n=61 v=0
20887 On ch=3 n=61 v=38
20888 On ch=3 n=66 v=0
20891 On ch=3 n=66 v=44
20938 On ch=3 n=66 v=0
20940 On ch=3 n=66 v=45
20993 On ch=3 n=49 v=0
20995 On ch=3 n=54 v=0
20995 On ch=3 n=49 v=37
20999 On ch=3 n=58 v=0
21000 On ch=3 n=54 v=68
21003 On ch=3 n=58 v=68
21007 On ch=3 n=66 v=0
21011 On ch=3 n=66 v=77
21054 On ch=3 n=61 v=0
21058 On ch=3 n=66 v=0
21060 On ch=3 n=66 v=59
21060 On ch=3 n=61 v=37
21172 On ch=3 n=66 v=0
21175 On ch=3 n=61 v=0
21175 On ch=3 n=66 v=49
21176 On ch=3 n=58 v=0
21177 On ch=3 n=61 v=47
21180 On ch=3 n=58 v=54
21237 On ch=3 n=42 v=0
21237 On ch=3 n=54 v=0
21238 On ch=3 n=58 v=0
21240 On ch=3 n=42 v=49
21241 On ch=3 n=54 v=68
21242 On ch=3 n=61 v=0
21243 On ch=3 n=66 v=0
21243 On ch=3 n=58 v=68
21245 On ch=3 n=61 v=68
21246 On ch=3 n=66 v=77
21297 On ch=3 n=66 v=0
21300 On ch=3 n=66 v=59
21358 On ch=3 n=49 v=0
21358 On ch=3 n=54 v=0
21359 On ch=3 n=58 v=0
21360 On ch=3 n=49 v=37
21361 On ch=3 n=54 v=61
21363 On ch=3 n=58 v=64
21480 On ch=3 n=58 v=0
21483 On ch=3 n=61 v=0
21483 On ch=3 n=58 v=68
21485 On ch=3 n=66 v=0
21487 On ch=3 n=61 v=68
21491 On ch=3 n=66 v=77
21537 On ch=3 n=61 v=0
21538 On ch=3 n=66 v=0
21540 On ch=3 n=66 v=59
21540 On ch=3 n=61 v=37
21595 On ch=3 n=49 v=0
21598 On ch=3 n=66 v=0
21598 On ch=3 n=54 v=0
21599 On ch=3 n=42 v=0
21599 On ch=3 n=58 v=0
21600 On ch=3 n=61 v=0
21600 On ch=3 n=42 v=61
21601 On ch=3 n=49 v=41
21603 On ch=3 n=54 v=52
21606 On ch=3 n=58 v=54
21608 On ch=3 n=61 v=45
21611 On ch=3 n=66 v=39
21718 On ch=3 n=54 v=0
21720 On ch=3 n=54 v=68
21722 On ch=3 n=58 v=0
21723 On ch=3 n=61 v=0
21723 On ch=3 n=58 v=68
21727 On ch=3 n=66 v=0
21727 On ch=3 n=61 v=68
21731 On ch=3 n=66 v=77
21777 On ch=3 n=61 v=0
21778 On ch=3 n=66 v=0
21780 On ch=3 n=66 v=59
21780 On ch=3 n=61 v=37
21839 On ch=3 n=58 v=0
21843 On ch=3 n=58 v=54
21845 On ch=3 n=61 v=0
21847 On ch=3 n=61 v=38
21848 On ch=3 n=66 v=0
21851 On ch=3 n=66 v=44
21898 On ch=3 n=66 v=0
21900 On ch=3 n=66 v=45
21953 On ch=3 n=49 v=0
21955 On ch=3 n=54 v=0
21955 On ch=3 n=49 v=37
21959 On ch=3 n=58 v=0
21960 On ch=3 n=54 v=68
21963 On ch=3 n=58 v=68
21967 On ch=3 n=66 v=0
21971 On ch=3 n=66 v=77
22014 On ch=3 n=61 v=0
22018 On ch=3 n=66 v=0
22020 On ch=3 n=66 v=59
22020 On ch=3 n=61 v=37
22132 On ch=3 n=66 v=0
22135 On ch=3 n=61 v=0
22135 On ch=3 n=66 v=49
22136 On ch=3 n=58 v=0
22137 On ch=3 n=61 v=47
22140 On ch=3 n=58 v=54
22197 On ch=3 n=42 v=0
22197 On ch=3 n=54 v=0
22198 On ch=3 n=58 v=0
22200 On ch=3 n=42 v=49
22201 On ch=3 n=54 v=68
22202 On ch=3 n=61 v=0
22203 On ch=3 n=66 v=0
22203 On ch=3 n=58 v=68
22205 On ch=3 n=61 v=68
22206 On ch=3 n=66 v=77
22257 On ch=3 n=66 v=0
22260 On ch=3 n=66 v=59
22318 On ch=3 n=49 v=0
22318 On ch=3 n=54 v=0
22319 On ch=3 n=58 v=0
22320 On ch=3 n=49 v=37
22321 On ch=3 n=54 v=61
22323 On ch=3 n=58 v=64
22440 On ch=3 n=58 v=0
22443 On ch=3 n=61 v=0
22443 On ch=3 n=58 v=68
22445 On ch=3 n=66 v=0
22447 On ch=3 n=61 v=68
22451 On ch=3 n=66 v=77
22497 On ch=3 n=61 v=0
22498 On ch=3 n=66 v=0
22500 On ch=3 n=66 v=59
22500 On ch=3 n=61 v=37
22555 On ch=3 n=49 v=0
22558 On ch=3 n=66 v=0
22558 On ch=3 n=54 v=0
22559 On ch=3 n=42 v=0
22559 On ch=3 n=58 v=0
22560 On ch=3 n=61 v=0
22560 On ch=3 n=42 v=61
22561 On ch=3 n=49 v=41
22563 On ch=3 n=54 v=52
22566 On ch=3 n=58 v=54
22568 On ch=3 n=61 v=45
22571 On ch=3 n=66 v=39
22678 On ch=3 n=54 v=0
22680 On ch=3 n=54 v=68
22682 On ch=3 n=58 v=0
22683 On ch=3 n=61 v=0
22683 On ch=3 n=58 v=68
22687 On ch=3 n=66 v=0
22687 On ch=3 n=61 v=68
22691 On ch=3 n=66 v=77
22737 On ch=3 n=61 v=0
22738 On ch=3 n=66 v=0
22740 On ch=3 n=66 v=59
22740 On ch=3 n=61 v=37
22799 On ch=3 n=58 v=0
22803 On ch=3 n=58 v=54
22805 On ch=3 n=61 v=0
22807 On ch=3 n=61 v=38
22808 On ch=3 n=66 v=0
22811 On ch=3 n=66 v=44
22858 On ch=3 n=66 v=0
22860 On ch=3 n=66 v=45
22913 On ch=3 n=49 v=0
22915 On ch=3 n=54 v=0
22915 On ch=3 n=49 v=37
22919 On ch=3 n=58 v=0
22920 On ch=3 n=54 v=68
22923 On ch=3 n=58 v=68
22927 On ch=3 n=66 v=0
22931 On ch=3 n=66 v=77
22974 On ch=3 n=61 v=0
22978 On ch=3 n=66 v=0
22980 On ch=3 n=66 v=59
22980 On ch=3 n=61 v=37
23092 On ch=3 n=66 v=0
23095 On ch=3 n=61 v=0
23095 On ch=3 n=66 v=49
23096 On ch=3 n=58 v=0
23097 On ch=3 n=61 v=47
23100 On ch=3 n=58 v=54
23157 On ch=3 n=42 v=0
23157 On ch=3 n=54 v=0
23158 On ch=3 n=58 v=0
23160 On ch=3 n=42 v=49
23161 On ch=3 n=54 v=68
23162 On ch=3 n=61 v=0
23163 On ch=3 n=66 v=0
23163 On ch=3 n=58 v=68
23165 On ch=3 n=61 v=68
23166 On ch=3 n=66 v=77
23217 On ch=3 n=66 v=0
23220 On ch=3 n=66 v=59
23278 On ch=3 n=49 v=0
23278 On ch=3 n=54 v=0
23279 On ch=3 n=58 v=0
23280 On ch=3 n=49 v=37
23281 On ch=3 n=54 v=61
23283 On ch=3 n=58 v=64
23400 On ch=3 n=58 v=0
23403 On ch=3 n=61 v=0
23403 On ch=3 n=58 v=68
23405 On ch=3 n=66 v=0
23407 On ch=3 n=61 v=68
23411 On ch=3 n=66 v=77
23457 On ch=3 n=61 v=0
23458 On ch=3 n=66 v=0
23460 On ch=3 n=66 v=59
23460 On ch=3 n=61 v=37
23515 On ch=3 n=49 v=0
23518 On ch=3 n=66 v=0
23518 On ch=3 n=54 v=0
23519 On ch=3 n=42 v=0
23519 On ch=3 n=58 v=0
23520 On ch=3 n=61 v=0
23520 On ch=3 n=42 v=61
23521 On ch=3 n=49 v=41
23523 On ch=3 n=54 v=52
23526 On ch=3 n=58 v=54
23528 On ch=3 n=61 v=45
23531 On ch=3 n=66 v=39
23638 On ch=3 n=54 v=0
23640 On ch=3 n=54 v=68
23642 On ch=3 n=58 v=0
23643 On ch=3 n=61 v=0
23643 On ch=3 n=58 v=68
23647 On ch=3 n=66 v=0
23647 On ch=3 n=61 v=68
23651 On ch=3 n=66 v=77
23697 On ch=3 n=61 v=0
23698 On ch=3 n=66 v=0
23700 On ch=3 n=66 v=59
23700 On ch=3 n=61 v=37
23759 On ch=3 n=58 v=0
23763 On ch=3 n=58 v=54
23765 On ch=3 n=61 v=0
23767 On ch=3 n=61 v=38
23768 On ch=3 n=66 v=0
23771 On ch=3 n=66 v=44
23818 On ch=3 n=66 v=0
23820 On ch=3 n=66 v=45
23873 On ch=3 n=49 v=0
23875 On ch=3 n=54 v=0
23875 On ch=3 n=49 v=37
23879 On ch=3 n=58 v=0
23880 On ch=3 n=54 v=68
23883 On ch=3 n=58 v=68
23887 On ch=3 n=66 v=0
23891 On ch=3 n=66 v=77
23934 On ch=3 n=61 v=0
23938 On ch=3 n=66 v=0
23940 On ch=3 n=66 v=59
23940 On ch=3 n=61 v=37
24052 On ch=3 n=66 v=0
24055 On ch=3 n=61 v=0
24055 On ch=3 n=66 v=49
24056 On ch=3 n=58 v=0
24057 On ch=3 n=61 v=47
24060 On ch=3 n=58 v=54
24117 On ch=3 n=42 v=0
24117 On ch=3 n=54 v=0
24118 On ch=3 n=58 v=0
24120 On ch=3 n=42 v=49
24121 On ch=3 n=54 v=68
24122 On ch=3 n=61 v=0
24123 On ch=3 n=66 v=0
24123 On ch=3 n=58 v=68
24125 On ch=3 n=61 v=68
24126 On ch=3 n=66 v=77
24177 On ch=3 n=66 v=0
24180 On ch=3 n=66 v=59
24238 On ch=3 n=49 v=0
24238 On ch=3 n=54 v=0
24239 On ch=3 n=58 v=0
24240 On ch=3 n=49 v=37
24241 On ch=3 n=54 v=61
24243 On ch=3 n=58 v=64
24360 On ch=3 n=58 v=0
24363 On ch=3 n=61 v=0
24363 On ch=3 n=58 v=68
24365 On ch=3 n=66 v=0
24367 On ch=3 n=61 v=68
24371 On ch=3 n=66 v=77
24417 On ch=3 n=61 v=0
24418 On ch=3 n=66 v=0
24420 On ch=3 n=66 v=59
24420 On ch=3 n=61 v=37
24475 On ch=3 n=49 v=0
24478 On ch=3 n=66 v=0
24478 On ch=3 n=54 v=0
24479 On ch=3 n=42 v=0
24479 On ch=3 n=58 v=0
24480 On ch=3 n=61 v=0
24480 On ch=3 n=42 v=61
24481 On ch=3 n=49 v=41
24483 On ch=3 n=54 v=52
24486 On ch=3 n=58 v=54
24488 On ch=3 n=61 v=45
24491 On ch=3 n=66 v=39
24598 On ch=3 n=54 v=0
24600 On ch=3 n=54 v=68
24602 On ch=3 n=58 v=0
24603 On ch=3 n=61 v=0
24603 On ch=3 n=58 v=68
24607 On ch=3 n=66 v=0
24607 On ch=3 n=61 v=68
24611 On ch=3 n=66 v=77
24657 On ch=3 n=61 v=0
24658 On ch=3 n=66 v=0
24660 On ch=3 n=66 v=59
24660 On ch=3 n=61 v=37
24719 On ch=3 n=58 v=0
24723 On ch=3 n=58 v=54
24725 On ch=3 n=61 v=0
24727 On ch=3 n=61 v=38
24728 On ch=3 n=66 v=0
24731 On ch=3 n=66 v=44
24778 On ch=3 n=66 v=0
24780 On ch=3 n=66 v=45
24833 On ch=3 n=49 v=0
24835 On ch=3 n=54 v=0
24835 On ch=3 n=49 v=37
24839 On ch=3 n=58 v=0
24840 On ch=3 n=54 v=68
24843 On ch=3 n=58 v=68
24847 On ch=3 n=66 v=0
24851 On ch=3 n=66 v=77
24894 On ch=3 n=61 v=0
24898 On ch=3 n=66 v=0
24900 On ch=3 n=66 v=59
24900 On ch=3 n=61 v=37
24929 On ch=3 n=58 v=0
24930 On ch=3 n=42 v=0
24930 On ch=3 n=54 v=0
24947 On ch=3 n=66 v=0
24960 On ch=3 n=61 v=0
24960 On ch=3 n=49 v=0
24960 On ch=3 n=63 v=63
24960 On ch=3 n=47 v=54
24960 On ch=3 n=59 v=63
24960 On ch=3 n=54 v=63
24965 On ch=3 n=66 v=62
25016 On ch=3 n=66 v=0
25018 On ch=3 n=66 v=64
25075 On ch=3 n=63 v=0
25076 On ch=3 n=59 v=0
25077 On ch=3 n=54 v=0
25081 On ch=3 n=63 v=73
25081 On ch=3 n=54 v=73
25083 On ch=3 n=59 v=73
25084 On ch=3 n=66 v=0
25086 On ch=3 n=66 v=82
25137 On ch=3 n=66 v=0
25140 On ch=3 n=66 v=64
25196 On ch=3 n=63 v=0
25198 On ch=3 n=54 v=0
25199 On ch=3 n=59 v=0
25200 On ch=3 n=59 v=69
25200 On ch=3 n=54 v=66
25202 On ch=3 n=63 v=69
25206 On ch=3 n=66 v=0
25208 On ch=3 n=66 v=61
25317 On ch=3 n=59 v=0
25320 On ch=3 n=63 v=0
25320 On ch=3 n=59 v=73
25323 On ch=3 n=63 v=73
25328 On ch=3 n=66 v=0
25331 On ch=3 n=66 v=82
25373 On ch=3 n=63 v=0
25376 On ch=3 n=63 v=42
25378 On ch=3 n=66 v=0
25380 On ch=3 n=66 v=64
25428 On ch=3 n=47 v=0
25436 On ch=3 n=63 v=0
25436 On ch=3 n=59 v=0
25437 On ch=3 n=54 v=0
25438 On ch=3 n=66 v=0
25440 On ch=3 n=47 v=66
25442 On ch=3 n=59 v=59
25443 On ch=3 n=54 v=57
25445 On ch=3 n=63 v=50
25451 On ch=3 n=66 v=44
25558 On ch=3 n=54 v=0
25558 On ch=3 n=59 v=0
25560 On ch=3 n=63 v=0
25560 On ch=3 n=59 v=73
25560 On ch=3 n=54 v=73
25563 On ch=3 n=63 v=73
25567 On ch=3 n=66 v=0
25571 On ch=3 n=66 v=82
25613 On ch=3 n=63 v=0
25616 On ch=3 n=63 v=42
25618 On ch=3 n=66 v=0
25620 On ch=3 n=66 v=64
25676 On ch=3 n=59 v=0
25680 On ch=3 n=59 v=59
25681 On ch=3 n=63 v=0
25683 On ch=3 n=63 v=43
25688 On ch=3 n=66 v=0
25691 On ch=3 n=66 v=49
25738 On ch=3 n=66 v=0
25740 On ch=3 n=66 v=50
25795 On ch=3 n=54 v=0
25796 On ch=3 n=59 v=0
25800 On ch=3 n=57 v=43
25800 On ch=3 n=54 v=73
25807 On ch=3 n=66 v=0
25811 On ch=3 n=66 v=82
25850 On ch=3 n=63 v=0
25856 On ch=3 n=63 v=42
25858 On ch=3 n=66 v=0
25860 On ch=3 n=66 v=64
25971 On ch=3 n=63 v=0
25972 On ch=3 n=66 v=0
25973 On ch=3 n=57 v=0
25973 On ch=3 n=63 v=52
25975 On ch=3 n=66 v=54
25976 On ch=3 n=57 v=59
26034 On ch=3 n=57 v=0
26037 On ch=3 n=47 v=0
26037 On ch=3 n=54 v=0
26038 On ch=3 n=63 v=0
26040 On ch=3 n=57 v=73
26040 On ch=3 n=47 v=54
26041 On ch=3 n=63 v=73
26041 On ch=3 n=54 v=73
26043 On ch=3 n=66 v=0
26046 On ch=3 n=66 v=82
26097 On ch=3 n=66 v=0
26100 On ch=3 n=66 v=64
26156 On ch=3 n=57 v=0
26156 On ch=3 n=63 v=0
26158 On ch=3 n=54 v=0
26160 On ch=3 n=57 v=69
26160 On ch=3 n=54 v=66
26162 On ch=3 n=63 v=69
26166 On ch=3 n=66 v=0
26168 On ch=3 n=66 v=61
26277 On ch=3 n=57 v=0
26280 On ch=3 n=63 v=0
26280 On ch=3 n=57 v=73
26283 On ch=3 n=63 v=73
26288 On ch=3 n=66 v=0
26291 On ch=3 n=66 v=82
26333 On ch=3 n=63 v=0
26338 On ch=3 n=66 v=0
26340 On ch=3 n=63 v=42
26343 On ch=3 n=66 v=64
26446 On ch=3 n=57 v=0
26450 On ch=3 n=47 v=0
26455 On ch=3 n=66 v=0
26455 On ch=3 n=63 v=0
26460 On ch=3 n=47 v=54
26460 On ch=3 n=63 v=52
26461 On ch=3 n=66 v=54
26462 On ch=3 n=57 v=59
26511 On ch=3 n=54 v=0
26520 On ch=3 n=57 v=0
26525 On ch=3 n=63 v=0
26526 On ch=3 n=57 v=73
26527 On ch=3 n=63 v=73
26527 On ch=3 n=54 v=73
26529 On ch=3 n=66 v=0
26532 On ch=3 n=66 v=82
26583 On ch=3 n=66 v=0
26586 On ch=3 n=66 v=64
26642 On ch=3 n=63 v=0
26642 On ch=3 n=57 v=0
26644 On ch=3 n=54 v=0
26646 On ch=3 n=57 v=69
26646 On ch=3 n=54 v=66
26648 On ch=3 n=63 v=69
26652 On ch=3 n=66 v=0
26655 On ch=3 n=66 v=61
26763 On ch=3 n=57 v=0
26766 On ch=3 n=63 v=0
26766 On ch=3 n=57 v=73
26770 On ch=3 n=63 v=73
26775 On ch=3 n=66 v=0
26777 On ch=3 n=66 v=82
26820 On ch=3 n=66 v=52
26821 On ch=3 n=66 v=0
26862 On ch=3 n=66 v=0
26870 On ch=3 n=63 v=0
26870 On ch=3 n=47 v=0
26879 On ch=3 n=54 v=0
26879 On ch=3 n=57 v=0
26880 On ch=3 n=47 v=74
26880 On ch=3 n=52 v=73
26882 On ch=3 n=56 v=63
26883 On ch=3 n=59 v=64
26938 On ch=3 n=64 v=74
26997 On ch=3 n=52 v=0
26998 On ch=3 n=59 v=0
26998 On ch=3 n=56 v=0
27001 On ch=3 n=59 v=83
27001 On ch=3 n=52 v=83
27003 On ch=3 n=56 v=83
27004 On ch=3 n=64 v=0
27006 On ch=3 n=64 v=92
27057 On ch=3 n=64 v=0
27060 On ch=3 n=64 v=74
27116 On ch=3 n=59 v=0
27118 On ch=3 n=52 v=0
27119 On ch=3 n=56 v=0
27120 On ch=3 n=56 v=79
27120 On ch=3 n=52 v=76
27122 On ch=3 n=59 v=79
27124 On ch=3 n=64 v=0
27128 On ch=3 n=64 v=71
27237 On ch=3 n=56 v=0
27240 On ch=3 n=59 v=0
27240 On ch=3 n=56 v=83
27243 On ch=3 n=59 v=83
27246 On ch=3 n=64 v=52
27248 On ch=3 n=64 v=0
27300 On ch=3 n=64 v=64
27348 On ch=3 n=47 v=0
27356 On ch=3 n=56 v=0
27357 On ch=3 n=52 v=0
27358 On ch=3 n=64 v=0
27360 On ch=3 n=57 v=71
27360 On ch=3 n=61 v=63
27360 On ch=3 n=45 v=83
27360 On ch=3 n=52 v=73
27361 On ch=3 n=59 v=0
27363 On ch=3 n=64 v=0
27365 On ch=3 n=64 v=62
27416 On ch=3 n=64 v=0
27418 On ch=3 n=64 v=74
27475 On ch=3 n=61 v=0
27476 On ch=3 n=57 v=0
27477 On ch=3 n=52 v=0
27481 On ch=3 n=61 v=83
27481 On ch=3 n=52 v=83
27483 On ch=3 n=57 v=83
27484 On ch=3 n=64 v=0
27486 On ch=3 n=64 v=92
27537 On ch=3 n=64 v=0
27540 On ch=3 n=64 v=74
27596 On ch=3 n=61 v=0
27598 On ch=3 n=52 v=0
27599 On ch=3 n=57 v=0
27600 On ch=3 n=64 v=71
27600 On ch=3 n=57 v=79
27600 On ch=3 n=52 v=76
27602 On ch=3 n=61 v=79
27606 On ch=3 n=64 v=0
27660 On ch=3 n=64 v=0
27717 On ch=3 n=57 v=0
27720 On ch=3 n=61 v=0
27720 On ch=3 n=57 v=83
27723 On ch=3 n=61 v=83
27731 On ch=3 n=64 v=92
27773 On ch=3 n=61 v=0
27776 On ch=3 n=61 v=52
27778 On ch=3 n=64 v=0
27780 On ch=3 n=64 v=74
27828 On ch=3 n=45 v=0
27836 On ch=3 n=61 v=0
27836 On ch=3 n=57 v=0
27837 On ch=3 n=52 v=0
27838 On ch=3 n=64 v=0
27838 On ch=3 n=50 v=93
27840 On ch=3 n=62 v=71
27840 On ch=3 n=54 v=63
27840 On ch=3 n=57 v=73
27845 On ch=3 n=69 v=62
27896 On ch=3 n=69 v=0
27898 On ch=3 n=69 v=74
27955 On ch=3 n=54 v=0
27956 On ch=3 n=62 v=0
27957 On ch=3 n=57 v=0
27961 On ch=3 n=54 v=83
27961 On ch=3 n=57 v=83
27963 On ch=3 n=62 v=83
27964 On ch=3 n=69 v=0
27966 On ch=3 n=69 v=92
28017 On ch=3 n=69 v=0
28020 On ch=3 n=69 v=74
28073 On ch=3 n=49 v=94
28076 On ch=3 n=54 v=0
28078 On ch=3 n=57 v=0
28078 On ch=3 n=50 v=0
28079 On ch=3 n=62 v=0
28080 On ch=3 n=69 v=71
28080 On ch=3 n=62 v=59
28080 On ch=3 n=57 v=66
28080 On ch=3 n=52 v=69
28086 On ch=3 n=69 v=0
28140 On ch=3 n=69 v=0
28197 On ch=3 n=62 v=0
28198 On ch=3 n=52 v=0
28200 On ch=3 n=52 v=83
28200 On ch=3 n=62 v=83
28211 On ch=3 n=69 v=92
28250 On ch=3 n=52 v=0
28252 On ch=3 n=52 v=52
28258 On ch=3 n=69 v=0
28260 On ch=3 n=69 v=74
28312 On ch=3 n=52 v=0
28313 On ch=3 n=49 v=0
28316 On ch=3 n=62 v=0
28317 On ch=3 n=57 v=0
28318 On ch=3 n=69 v=0
28320 On ch=3 n=59 v=53
28320 On ch=3 n=62 v=45
28320 On ch=3 n=47 v=65
28320 On ch=3 n=54 v=55
28325 On ch=3 n=66 v=44
28376 On ch=3 n=66 v=0
28378 On ch=3 n=66 v=56
28435 On ch=3 n=62 v=0
28436 On ch=3 n=59 v=0
28437 On ch=3 n=54 v=0
28441 On ch=3 n=62 v=65
28441 On ch=3 n=54 v=65
28443 On ch=3 n=59 v=65
28444 On ch=3 n=66 v=0
28446 On ch=3 n=66 v=74
28497 On ch=3 n=66 v=0
28500 On ch=3 n=66 v=56
28553 On ch=3 n=66 v=0
28556 On ch=3 n=62 v=0
28558 On ch=3 n=54 v=0
28559 On ch=3 n=59 v=0
28560 On ch=3 n=66 v=53
28560 On ch=3 n=59 v=61
28560 On ch=3 n=54 v=58
28562 On ch=3 n=62 v=61
28677 On ch=3 n=59 v=0
28680 On ch=3 n=62 v=0
28680 On ch=3 n=66 v=0
28680 On ch=3 n=59 v=65
28683 On ch=3 n=62 v=65
28691 On ch=3 n=66 v=74
28733 On ch=3 n=62 v=0
28736 On ch=3 n=62 v=44
28738 On ch=3 n=66 v=0
28740 On ch=3 n=66 v=57
28788 On ch=3 n=47 v=0
28796 On ch=3 n=59 v=0
28797 On ch=3 n=54 v=0
28800 On ch=3 n=59 v=53
28800 On ch=3 n=47 v=65
28800 On ch=3 n=54 v=55
28848 On ch=3 n=66 v=0
28858 On ch=3 n=66 v=56
28914 On ch=3 n=62 v=0
28916 On ch=3 n=59 v=0
28917 On ch=3 n=54 v=0
28921 On ch=3 n=62 v=65
28921 On ch=3 n=54 v=65
28923 On ch=3 n=59 v=65
28924 On ch=3 n=66 v=0
28926 On ch=3 n=66 v=74
28977 On ch=3 n=66 v=0
28980 On ch=3 n=66 v=56
29033 On ch=3 n=66 v=0
29036 On ch=3 n=62 v=0
29038 On ch=3 n=54 v=0
29039 On ch=3 n=59 v=0
29040 On ch=3 n=66 v=53
29040 On ch=3 n=59 v=61
29040 On ch=3 n=54 v=58
29042 On ch=3 n=62 v=61
29157 On ch=3 n=59 v=0
29160 On ch=3 n=62 v=0
29160 On ch=3 n=66 v=0
29160 On ch=3 n=59 v=65
29163 On ch=3 n=62 v=65
29171 On ch=3 n=66 v=74
29213 On ch=3 n=62 v=0
29216 On ch=3 n=62 v=34
29218 On ch=3 n=66 v=0
29220 On ch=3 n=66 v=56
29268 On ch=3 n=47 v=0
29276 On ch=3 n=62 v=0
29276 On ch=3 n=59 v=0
29277 On ch=3 n=54 v=0
29278 On ch=3 n=66 v=0
29280 On ch=3 n=42 v=76
29281 On ch=3 n=49 v=56
29283 On ch=3 n=54 v=67
29286 On ch=3 n=58 v=69
29288 On ch=3 n=61 v=60
29291 On ch=3 n=66 v=54
29398 On ch=3 n=54 v=0
29400 On ch=3 n=54 v=83
29402 On ch=3 n=58 v=0
29403 On ch=3 n=61 v=0
29403 On ch=3 n=58 v=83
29407 On ch=3 n=66 v=0
29407 On ch=3 n=61 v=83
29411 On ch=3 n=66 v=92
29457 On ch=3 n=61 v=0
29458 On ch=3 n=66 v=0
29460 On ch=3 n=66 v=74
29460 On ch=3 n=61 v=52
29519 On ch=3 n=58 v=0
29523 On ch=3 n=58 v=69
29525 On ch=3 n=61 v=0
29527 On ch=3 n=61 v=53
29528 On ch=3 n=66 v=0
29531 On ch=3 n=66 v=59
29578 On ch=3 n=66 v=0
29580 On ch=3 n=66 v=60
29633 On ch=3 n=49 v=0
29635 On ch=3 n=54 v=0
29635 On ch=3 n=49 v=52
29639 On ch=3 n=58 v=0
29640 On ch=3 n=54 v=83
29643 On ch=3 n=58 v=83
29647 On ch=3 n=66 v=0
29651 On ch=3 n=66 v=92
29694 On ch=3 n=61 v=0
29698 On ch=3 n=66 v=0
29700 On ch=3 n=66 v=74
29700 On ch=3 n=61 v=52
29812 On ch=3 n=66 v=0
29815 On ch=3 n=61 v=0
29815 On ch=3 n=66 v=64
29816 On ch=3 n=58 v=0
29817 On ch=3 n=61 v=62
29820 On ch=3 n=58 v=69
29877 On ch=3 n=42 v=0
29877 On ch=3 n=54 v=0
29878 On ch=3 n=58 v=0
29880 On ch=3 n=42 v=64
29881 On ch=3 n=54 v=83
29882 On ch=3 n=61 v=0
29883 On ch=3 n=66 v=0
29883 On ch=3 n=58 v=83
29885 On ch=3 n=61 v=83
29886 On ch=3 n=66 v=92
29937 On ch=3 n=66 v=0
29940 On ch=3 n=66 v=74
29998 On ch=3 n=49 v=0
29998 On ch=3 n=54 v=0
29999 On ch=3 n=58 v=0
30000 On ch=3 n=49 v=52
30001 On ch=3 n=54 v=76
30003 On ch=3 n=58 v=79
30120 On ch=3 n=58 v=0
30123 On ch=3 n=61 v=0
30123 On ch=3 n=58 v=83
30125 On ch=3 n=66 v=0
30127 On ch=3 n=61 v=83
30131 On ch=3 n=66 v=92
30177 On ch=3 n=61 v=0
30178 On ch=3 n=66 v=0
30180 On ch=3 n=66 v=74
30180 On ch=3 n=61 v=52
30235 On ch=3 n=49 v=0
30238 On ch=3 n=66 v=0
30238 On ch=3 n=54 v=0
30239 On ch=3 n=42 v=0
30239 On ch=3 n=58 v=0
30240 On ch=3 n=61 v=0
30240 On ch=3 n=40 v=76
30241 On ch=3 n=47 v=56
30243 On ch=3 n=52 v=67
30246 On ch=3 n=56 v=69
30248 On ch=3 n=59 v=60
30251 On ch=3 n=64 v=54
30358 On ch=3 n=52 v=0
30360 On ch=3 n=52 v=83
30362 On ch=3 n=56 v=0
30363 On ch=3 n=59 v=0
30363 On ch=3 n=56 v=83
30367 On ch=3 n=64 v=0
30367 On ch=3 n=59 v=83
30371 On ch=3 n=64 v=92
30417 On ch=3 n=59 v=0
30418 On ch=3 n=64 v=0
30420 On ch=3 n=64 v=74
30420 On ch=3 n=59 v=52
30479 On ch=3 n=56 v=0
30483 On ch=3 n=56 v=69
30485 On ch=3 n=59 v=0
30487 On ch=3 n=59 v=53
30488 On ch=3 n=64 v=0
30491 On ch=3 n=64 v=59
30538 On ch=3 n=64 v=0
30540 On ch=3 n=64 v=60
30593 On ch=3 n=47 v=0
30595 On ch=3 n=52 v=0
30595 On ch=3 n=47 v=52
30599 On ch=3 n=56 v=0
30600 On ch=3 n=52 v=83
30603 On ch=3 n=56 v=83
30607 On ch=3 n=64 v=0
30611 On ch=3 n=64 v=92
30654 On ch=3 n=59 v=0
30658 On ch=3 n=64 v=0
30660 On ch=3 n=64 v=74
30660 On ch=3 n=59 v=52
30772 On ch=3 n=64 v=0
30775 On ch=3 n=59 v=0
30775 On ch=3 n=64 v=64
30776 On ch=3 n=56 v=0
30777 On ch=3 n=59 v=62
30780 On ch=3 n=56 v=69
30837 On ch=3 n=40 v=0
30837 On ch=3 n=52 v=0
30838 On ch=3 n=56 v=0
30840 On ch=3 n=40 v=64
30841 On ch=3 n=52 v=83
30842 On ch=3 n=59 v=0
30843 On ch=3 n=64 v=0
30843 On ch=3 n=56 v=83
30845 On ch=3 n=59 v=83
30846 On ch=3 n=64 v=92
30897 On ch=3 n=64 v=0
30900 On ch=3 n=64 v=74
30958 On ch=3 n=47 v=0
30958 On ch=3 n=52 v=0
30959 On ch=3 n=56 v=0
30960 On ch=3 n=47 v=52
30961 On ch=3 n=52 v=76
30963 On ch=3 n=56 v=79
31080 On ch=3 n=56 v=0
31083 On ch=3 n=59 v=0
31083 On ch=3 n=56 v=83
31085 On ch=3 n=64 v=0
31087 On ch=3 n=59 v=83
31091 On ch=3 n=64 v=92
31137 On ch=3 n=59 v=0
31138 On ch=3 n=64 v=0
31140 On ch=3 n=64 v=74
31140 On ch=3 n=59 v=52
31195 On ch=3 n=47 v=0
31198 On ch=3 n=64 v=0
31198 On ch=3 n=52 v=0
31199 On ch=3 n=40 v=0
31199 On ch=3 n=56 v=0
31200 On ch=3 n=59 v=0
31200 On ch=3 n=45 v=86
31203 On ch=3 n=52 v=74
31206 On ch=3 n=57 v=76
31208 On ch=3 n=61 v=67
31318 On ch=3 n=52 v=0
31320 On ch=3 n=52 v=93
31322 On ch=3 n=57 v=0
31323 On ch=3 n=61 v=0
31323 On ch=3 n=57 v=94
31327 On ch=3 n=61 v=94
31331 On ch=3 n=64 v=99
31377 On ch=3 n=61 v=0
31378 On ch=3 n=64 v=0
31380 On ch=3 n=64 v=81
31380 On ch=3 n=61 v=59
31439 On ch=3 n=57 v=0
31443 On ch=3 n=57 v=76
31445 On ch=3 n=61 v=0
31447 On ch=3 n=61 v=60
31495 On ch=3 n=64 v=0
31500 On ch=3 n=64 v=67
31559 On ch=3 n=57 v=0
31559 On ch=3 n=61 v=0
31563 On ch=3 n=64 v=0
31563 On ch=3 n=61 v=81
31563 On ch=3 n=57 v=90
31566 On ch=3 n=64 v=99
31613 On ch=3 n=64 v=0
31620 On ch=3 n=64 v=81
31620 On ch=3 n=61 v=59
31623 On ch=3 n=61 v=0
31673 On ch=3 n=52 v=0
31675 On ch=3 n=61 v=0
31679 On ch=3 n=57 v=0
31680 On ch=3 n=64 v=0
31680 On ch=3 n=45 v=0
31680 On ch=3 n=42 v=93
31683 On ch=3 n=54 v=74
31686 On ch=3 n=57 v=76
31688 On ch=3 n=61 v=66
31798 On ch=3 n=54 v=0
31800 On ch=3 n=61 v=0
31801 On ch=3 n=54 v=90
31802 On ch=3 n=57 v=0
31802 On ch=3 n=57 v=91
31803 On ch=3 n=61 v=92
31805 On ch=3 n=66 v=99
31856 On ch=3 n=66 v=0
31858 On ch=3 n=61 v=0
31860 On ch=3 n=66 v=81
31860 On ch=3 n=61 v=59
31925 On ch=3 n=61 v=0
31927 On ch=3 n=61 v=60
31928 On ch=3 n=66 v=0
31931 On ch=3 n=66 v=66
31978 On ch=3 n=66 v=0
31980 On ch=3 n=66 v=65
32036 On ch=3 n=54 v=0
32037 On ch=3 n=57 v=0
32039 On ch=3 n=61 v=0
32040 On ch=3 n=54 v=85
32042 On ch=3 n=57 v=87
32043 On ch=3 n=66 v=0
32043 On ch=3 n=61 v=92
32045 On ch=3 n=66 v=87
32092 On ch=3 n=66 v=0
32099 On ch=3 n=61 v=0
32100 On ch=3 n=66 v=81
32100 On ch=3 n=61 v=59
32158 On ch=3 n=57 v=0
32160 On ch=3 n=66 v=0
32160 On ch=3 n=42 v=0
32160 On ch=3 n=54 v=0
32160 On ch=3 n=61 v=0
32160 On ch=3 n=45 v=86
32163 On ch=3 n=52 v=74
32166 On ch=3 n=57 v=76
32168 On ch=3 n=61 v=67
32278 On ch=3 n=52 v=0
32280 On ch=3 n=52 v=93
32282 On ch=3 n=57 v=0
32283 On ch=3 n=61 v=0
32283 On ch=3 n=57 v=94
32287 On ch=3 n=61 v=94
32291 On ch=3 n=64 v=99
32337 On ch=3 n=61 v=0
32338 On ch=3 n=64 v=0
32340 On ch=3 n=64 v=81
32340 On ch=3 n=61 v=59
32399 On ch=3 n=57 v=0
32403 On ch=3 n=57 v=76
32405 On ch=3 n=61 v=0
32407 On ch=3 n=61 v=60
32455 On ch=3 n=64 v=0
32460 On ch=3 n=64 v=67
32519 On ch=3 n=57 v=0
32522 On ch=3 n=64 v=0
32523 On ch=3 n=57 v=90
32525 On ch=3 n=64 v=99
32572 On ch=3 n=64 v=0
32574 On ch=3 n=61 v=0
32580 On ch=3 n=64 v=81
32580 On ch=3 n=61 v=59
32633 On ch=3 n=52 v=0
32639 On ch=3 n=57 v=0
32640 On ch=3 n=64 v=0
32640 On ch=3 n=45 v=0
32640 On ch=3 n=61 v=0
32640 On ch=3 n=42 v=93
32643 On ch=3 n=54 v=74
32646 On ch=3 n=57 v=76
32648 On ch=3 n=61 v=66
32758 On ch=3 n=54 v=0
32760 On ch=3 n=61 v=0
32761 On ch=3 n=54 v=90
32762 On ch=3 n=57 v=0
32762 On ch=3 n=57 v=91
32763 On ch=3 n=61 v=92
32765 On ch=3 n=66 v=99
32816 On ch=3 n=66 v=0
32818 On ch=3 n=61 v=0
32820 On ch=3 n=66 v=81
32820 On ch=3 n=61 v=59
32885 On ch=3 n=61 v=0
32887 On ch=3 n=61 v=60
32888 On ch=3 n=66 v=0
32891 On ch=3 n=66 v=66
32938 On ch=3 n=66 v=0
32940 On ch=3 n=66 v=65
32996 On ch=3 n=54 v=0
32997 On ch=3 n=57 v=0
33000 On ch=3 n=54 v=85
33003 On ch=3 n=66 v=0
33003 On ch=3 n=57 v=87
33005 On ch=3 n=66 v=86
33052 On ch=3 n=66 v=0
33054 On ch=3 n=61 v=0
33060 On ch=3 n=66 v=81
33060 On ch=3 n=61 v=59
33119 On ch=3 n=57 v=0
33120 On ch=3 n=66 v=0
33120 On ch=3 n=54 v=0
33120 On ch=3 n=42 v=0
33120 On ch=3 n=61 v=0
33120 On ch=3 n=50 v=86
33123 On ch=3 n=57 v=74
33126 On ch=3 n=62 v=76
33128 On ch=3 n=66 v=67
33238 On ch=3 n=57 v=0
33240 On ch=3 n=57 v=93
33242 On ch=3 n=62 v=0
33243 On ch=3 n=66 v=0
33243 On ch=3 n=62 v=94
33247 On ch=3 n=66 v=94
33297 On ch=3 n=66 v=0
33300 On ch=3 n=66 v=59
33358 On ch=3 n=50 v=0
33359 On ch=3 n=62 v=0
33360 On ch=3 n=49 v=81
33363 On ch=3 n=62 v=76
33365 On ch=3 n=66 v=0
33366 On ch=3 n=66 v=60
33419 On ch=3 n=66 v=0
33420 On ch=3 n=66 v=81
33479 On ch=3 n=62 v=0
33479 On ch=3 n=57 v=0
33480 On ch=3 n=66 v=0
33480 On ch=3 n=57 v=71
33481 On ch=3 n=62 v=90
33483 On ch=3 n=66 v=81
33539 On ch=3 n=66 v=0
33540 On ch=3 n=66 v=59
33597 On ch=3 n=62 v=0
33598 On ch=3 n=49 v=0
33599 On ch=3 n=57 v=0
33600 On ch=3 n=66 v=0
33600 On ch=3 n=47 v=86
33603 On ch=3 n=62 v=76
33603 On ch=3 n=57 v=74
33604 On ch=3 n=66 v=67
33718 On ch=3 n=57 v=0
33719 On ch=3 n=66 v=0
33719 On ch=3 n=62 v=0
33720 On ch=3 n=57 v=93
33723 On ch=3 n=62 v=94
33727 On ch=3 n=66 v=94
33777 On ch=3 n=66 v=0
33780 On ch=3 n=66 v=59
33839 On ch=3 n=62 v=0
33843 On ch=3 n=62 v=76
33845 On ch=3 n=66 v=0
33847 On ch=3 n=66 v=60
33959 On ch=3 n=66 v=0
33959 On ch=3 n=62 v=0
33961 On ch=3 n=62 v=90
33963 On ch=3 n=66 v=81
34019 On ch=3 n=66 v=0
34020 On ch=3 n=66 v=59
34073 On ch=3 n=57 v=0
34075 On ch=3 n=47 v=0
34077 On ch=3 n=62 v=0
34080 On ch=3 n=66 v=0
34081 On ch=3 n=47 v=63
34083 On ch=3 n=52 v=74
34083 On ch=3 n=56 v=76
34086 On ch=3 n=59 v=67
34088 On ch=3 n=64 v=61
34198 On ch=3 n=52 v=0
34199 On ch=3 n=56 v=0
34200 On ch=3 n=52 v=90
34201 On ch=3 n=59 v=0
34203 On ch=3 n=56 v=90
34204 On ch=3 n=64 v=0
34207 On ch=3 n=59 v=90
34211 On ch=3 n=64 v=99
34257 On ch=3 n=59 v=0
34258 On ch=3 n=64 v=0
34260 On ch=3 n=64 v=81
34260 On ch=3 n=59 v=59
34319 On ch=3 n=56 v=0
34323 On ch=3 n=56 v=76
34325 On ch=3 n=59 v=0
34327 On ch=3 n=59 v=60
34328 On ch=3 n=64 v=0
34331 On ch=3 n=64 v=66
34378 On ch=3 n=64 v=0
34380 On ch=3 n=64 v=67
34433 On ch=3 n=47 v=0
34435 On ch=3 n=52 v=0
34435 On ch=3 n=47 v=59
34439 On ch=3 n=56 v=0
34440 On ch=3 n=52 v=90
34443 On ch=3 n=56 v=90
34447 On ch=3 n=64 v=0
34451 On ch=3 n=64 v=99
34494 On ch=3 n=59 v=0
34498 On ch=3 n=64 v=0
34500 On ch=3 n=64 v=81
34500 On ch=3 n=59 v=59
34612 On ch=3 n=64 v=0
34615 On ch=3 n=59 v=0
34615 On ch=3 n=64 v=71
34616 On ch=3 n=56 v=0
34617 On ch=3 n=59 v=69
34620 On ch=3 n=56 v=76
34677 On ch=3 n=52 v=0
34678 On ch=3 n=56 v=0
34681 On ch=3 n=52 v=90
34682 On ch=3 n=59 v=0
34683 On ch=3 n=64 v=0
34683 On ch=3 n=56 v=90
34685 On ch=3 n=59 v=90
34686 On ch=3 n=64 v=99
34737 On ch=3 n=64 v=0
34740 On ch=3 n=64 v=81
34798 On ch=3 n=52 v=0
34798 On ch=3 n=47 v=0
34799 On ch=3 n=56 v=0
34800 On ch=3 n=47 v=59
34801 On ch=3 n=52 v=83
34803 On ch=3 n=56 v=86
34920 On ch=3 n=56 v=0
34923 On ch=3 n=59 v=0
34923 On ch=3 n=56 v=90
34925 On ch=3 n=64 v=0
34927 On ch=3 n=59 v=90
34931 On ch=3 n=64 v=99
34977 On ch=3 n=59 v=0
34978 On ch=3 n=64 v=0
35035 On ch=3 n=47 v=0
35038 On ch=3 n=52 v=0
35039 On ch=3 n=56 v=0
35040 On ch=3 n=45 v=86
35043 On ch=3 n=52 v=74
35046 On ch=3 n=57 v=76
35048 On ch=3 n=61 v=67
35158 On ch=3 n=52 v=0
35160 On ch=3 n=52 v=93
35162 On ch=3 n=57 v=0
35163 On ch=3 n=61 v=0
35163 On ch=3 n=57 v=94
35167 On ch=3 n=61 v=94
35171 On ch=3 n=64 v=99
35217 On ch=3 n=61 v=0
35218 On ch=3 n=64 v=0
35220 On ch=3 n=64 v=81
35220 On ch=3 n=61 v=59
35279 On ch=3 n=57 v=0
35283 On ch=3 n=57 v=76
35285 On ch=3 n=61 v=0
35287 On ch=3 n=61 v=60
35335 On ch=3 n=64 v=0
35340 On ch=3 n=64 v=67
35399 On ch=3 n=57 v=0
35399 On ch=3 n=61 v=0
35403 On ch=3 n=64 v=0
35403 On ch=3 n=61 v=81
35403 On ch=3 n=57 v=90
35406 On ch=3 n=64 v=99
35453 On ch=3 n=64 v=0
35460 On ch=3 n=64 v=81
35460 On ch=3 n=61 v=59
35463 On ch=3 n=61 v=0
35513 On ch=3 n=52 v=0
35515 On ch=3 n=61 v=0
35519 On ch=3 n=57 v=0
35520 On ch=3 n=64 v=0
35520 On ch=3 n=45 v=0
35520 On ch=3 n=42 v=93
35523 On ch=3 n=54 v=74
35526 On ch=3 n=57 v=76
35528 On ch=3 n=61 v=66
35638 On ch=3 n=54 v=0
35640 On ch=3 n=61 v=0
35641 On ch=3 n=54 v=90
35642 On ch=3 n=57 v=0
35642 On ch=3 n=57 v=91
35643 On ch=3 n=61 v=92
35645 On ch=3 n=66 v=99
35696 On ch=3 n=66 v=0
35698 On ch=3 n=61 v=0
35700 On ch=3 n=66 v=81
35700 On ch=3 n=61 v=59
35765 On ch=3 n=61 v=0
35767 On ch=3 n=61 v=60
35768 On ch=3 n=66 v=0
35771 On ch=3 n=66 v=66
35818 On ch=3 n=66 v=0
35820 On ch=3 n=66 v=65
35876 On ch=3 n=54 v=0
35877 On ch=3 n=57 v=0
35879 On ch=3 n=61 v=0
35880 On ch=3 n=54 v=85
35882 On ch=3 n=57 v=87
35883 On ch=3 n=66 v=0
35883 On ch=3 n=61 v=92
35885 On ch=3 n=66 v=87
35932 On ch=3 n=66 v=0
35939 On ch=3 n=61 v=0
35940 On ch=3 n=66 v=81
35940 On ch=3 n=61 v=59
35998 On ch=3 n=57 v=0
36000 On ch=3 n=66 v=0
36000 On ch=3 n=42 v=0
36000 On ch=3 n=54 v=0
36000 On ch=3 n=61 v=0
36000 On ch=3 n=45 v=86
36003 On ch=3 n=52 v=74
36006 On ch=3 n=57 v=76
36008 On ch=3 n=61 v=67
36118 On ch=3 n=52 v=0
36120 On ch=3 n=52 v=93
36122 On ch=3 n=57 v=0
36123 On ch=3 n=61 v=0
36123 On ch=3 n=57 v=94
36127 On ch=3 n=61 v=94
36131 On ch=3 n=64 v=99
36177 On ch=3 n=61 v=0
36178 On ch=3 n=64 v=0
36180 On ch=3 n=64 v=81
36180 On ch=3 n=61 v=59
36239 On ch=3 n=57 v=0
36243 On ch=3 n=57 v=76
36245 On ch=3 n=61 v=0
36247 On ch=3 n=61 v=60
36295 On ch=3 n=64 v=0
36300 On ch=3 n=64 v=67
36359 On ch=3 n=57 v=0
36362 On ch=3 n=64 v=0
36363 On ch=3 n=57 v=90
36365 On ch=3 n=64 v=99
36412 On ch=3 n=64 v=0
36414 On ch=3 n=61 v=0
36420 On ch=3 n=64 v=81
36420 On ch=3 n=61 v=59
36473 On ch=3 n=52 v=0
36479 On ch=3 n=57 v=0
36480 On ch=3 n=64 v=0
36480 On ch=3 n=45 v=0
36480 On ch=3 n=61 v=0
36480 On ch=3 n=42 v=93
36483 On ch=3 n=54 v=74
36486 On ch=3 n=57 v=76
36488 On ch=3 n=61 v=66
36598 On ch=3 n=54 v=0
36600 On ch=3 n=61 v=0
36601 On ch=3 n=54 v=90
36602 On ch=3 n=57 v=0
36602 On ch=3 n=57 v=91
36603 On ch=3 n=61 v=92
36605 On ch=3 n=66 v=99
36656 On ch=3 n=66 v=0
36658 On ch=3 n=61 v=0
36660 On ch=3 n=66 v=81
36660 On ch=3 n=61 v=59
36725 On ch=3 n=61 v=0
36727 On ch=3 n=61 v=60
36728 On ch=3 n=66 v=0
36731 On ch=3 n=66 v=66
36778 On ch=3 n=66 v=0
36780 On ch=3 n=66 v=65
36836 On ch=3 n=54 v=0
36837 On ch=3 n=57 v=0
36840 On ch=3 n=54 v=85
36843 On ch=3 n=66 v=0
36843 On ch=3 n=57 v=87
36845 On ch=3 n=66 v=86
36892 On ch=3 n=66 v=0
36894 On ch=3 n=61 v=0
36900 On ch=3 n=66 v=81
36900 On ch=3 n=61 v=59
36959 On ch=3 n=57 v=0
36960 On ch=3 n=66 v=0
36960 On ch=3 n=54 v=0
36960 On ch=3 n=42 v=0
36960 On ch=3 n=61 v=0
36960 On ch=3 n=50 v=86
36963 On ch=3 n=57 v=74
36966 On ch=3 n=62 v=76
36968 On ch=3 n=66 v=67
37078 On ch=3 n=57 v=0
37080 On ch=3 n=57 v=93
37082 On ch=3 n=62 v=0
37083 On ch=3 n=66 v=0
37083 On ch=3 n=62 v=94
37087 On ch=3 n=66 v=94
37137 On ch=3 n=66 v=0
37140 On ch=3 n=66 v=59
37198 On ch=3 n=50 v=0
37199 On ch=3 n=62 v=0
37200 On ch=3 n=49 v=81
37203 On ch=3 n=62 v=76
37205 On ch=3 n=66 v=0
37206 On ch=3 n=66 v=60
37259 On ch=3 n=66 v=0
37260 On ch=3 n=66 v=81
37319 On ch=3 n=62 v=0
37319 On ch=3 n=57 v=0
37320 On ch=3 n=66 v=0
37320 On ch=3 n=57 v=71
37321 On ch=3 n=62 v=90
37323 On ch=3 n=66 v=81
37379 On ch=3 n=66 v=0
37380 On ch=3 n=66 v=59
37437 On ch=3 n=62 v=0
37438 On ch=3 n=49 v=0
37439 On ch=3 n=57 v=0
37440 On ch=3 n=66 v=0
37440 On ch=3 n=50 v=86
37443 On ch=3 n=62 v=76
37443 On ch=3 n=57 v=74
37444 On ch=3 n=66 v=67
37558 On ch=3 n=57 v=0
37559 On ch=3 n=66 v=0
37559 On ch=3 n=62 v=0
37560 On ch=3 n=57 v=93
37563 On ch=3 n=62 v=94
37567 On ch=3 n=66 v=94
37617 On ch=3 n=66 v=0
37620 On ch=3 n=66 v=59
37679 On ch=3 n=62 v=0
37683 On ch=3 n=62 v=76
37685 On ch=3 n=66 v=0
37687 On ch=3 n=66 v=60
37799 On ch=3 n=66 v=0
37799 On ch=3 n=62 v=0
37801 On ch=3 n=62 v=90
37803 On ch=3 n=66 v=81
37859 On ch=3 n=66 v=0
37860 On ch=3 n=66 v=59
37913 On ch=3 n=57 v=0
37915 On ch=3 n=50 v=0
37917 On ch=3 n=62 v=0
37920 On ch=3 n=66 v=0
37921 On ch=3 n=47 v=63
37923 On ch=3 n=54 v=74
37923 On ch=3 n=59 v=76
37926 On ch=3 n=62 v=67
37928 On ch=3 n=66 v=61
38038 On ch=3 n=54 v=0
38039 On ch=3 n=59 v=0
38040 On ch=3 n=54 v=90
38041 On ch=3 n=62 v=0
38043 On ch=3 n=59 v=90
38044 On ch=3 n=66 v=0
38047 On ch=3 n=62 v=90
38051 On ch=3 n=66 v=99
38097 On ch=3 n=62 v=0
38098 On ch=3 n=66 v=0
38100 On ch=3 n=66 v=81
38100 On ch=3 n=62 v=59
38159 On ch=3 n=59 v=0
38163 On ch=3 n=59 v=76
38165 On ch=3 n=62 v=0
38167 On ch=3 n=62 v=60
38168 On ch=3 n=66 v=0
38171 On ch=3 n=66 v=66
38218 On ch=3 n=66 v=0
38220 On ch=3 n=66 v=67
38273 On ch=3 n=47 v=0
38275 On ch=3 n=54 v=0
38275 On ch=3 n=47 v=59
38279 On ch=3 n=59 v=0
38280 On ch=3 n=54 v=90
38283 On ch=3 n=59 v=90
38287 On ch=3 n=66 v=0
38291 On ch=3 n=66 v=99
38334 On ch=3 n=62 v=0
38338 On ch=3 n=66 v=0
38340 On ch=3 n=66 v=81
38340 On ch=3 n=62 v=59
38452 On ch=3 n=66 v=0
38455 On ch=3 n=62 v=0
38455 On ch=3 n=66 v=71
38456 On ch=3 n=59 v=0
38457 On ch=3 n=62 v=69
38460 On ch=3 n=59 v=76
38517 On ch=3 n=54 v=0
38518 On ch=3 n=59 v=0
38521 On ch=3 n=54 v=90
38522 On ch=3 n=62 v=0
38523 On ch=3 n=66 v=0
38523 On ch=3 n=59 v=90
38525 On ch=3 n=62 v=90
38526 On ch=3 n=66 v=99
38577 On ch=3 n=66 v=0
38580 On ch=3 n=66 v=81
38638 On ch=3 n=54 v=0
38638 On ch=3 n=47 v=0
38639 On ch=3 n=59 v=0
38640 On ch=3 n=47 v=59
38641 On ch=3 n=54 v=83
38643 On ch=3 n=59 v=86
38760 On ch=3 n=59 v=0
38763 On ch=3 n=62 v=0
38763 On ch=3 n=59 v=90
38765 On ch=3 n=66 v=0
38767 On ch=3 n=62 v=90
38771 On ch=3 n=66 v=99
38817 On ch=3 n=62 v=0
38818 On ch=3 n=66 v=0
38875 On ch=3 n=47 v=0
38878 On ch=3 n=54 v=0
38879 On ch=3 n=59 v=0
38880 On ch=3 n=42 v=61
38881 On ch=3 n=49 v=41
38883 On ch=3 n=54 v=52
38886 On ch=3 n=58 v=54
38888 On ch=3 n=61 v=45
38891 On ch=3 n=66 v=39
38998 On ch=3 n=54 v=0
39000 On ch=3 n=54 v=68
39002 On ch=3 n=58 v=0
39003 On ch=3 n=61 v=0
39003 On ch=3 n=58 v=68
39007 On ch=3 n=66 v=0
39007 On ch=3 n=61 v=68
39011 On ch=3 n=66 v=77
39057 On ch=3 n=61 v=0
39058 On ch=3 n=66 v=0
39060 On ch=3 n=66 v=59
39060 On ch=3 n=61 v=37
39119 On ch=3 n=58 v=0
39123 On ch=3 n=58 v=54
39125 On ch=3 n=61 v=0
39127 On ch=3 n=61 v=38
39128 On ch=3 n=66 v=0
39131 On ch=3 n=66 v=44
39178 On ch=3 n=66 v=0
39180 On ch=3 n=66 v=45
39233 On ch=3 n=49 v=0
39235 On ch=3 n=54 v=0
39235 On ch=3 n=49 v=37
39239 On ch=3 n=58 v=0
39240 On ch=3 n=54 v=68
39243 On ch=3 n=58 v=68
39247 On ch=3 n=66 v=0
39251 On ch=3 n=66 v=77
39294 On ch=3 n=61 v=0
39298 On ch=3 n=66 v=0
39300 On ch=3 n=66 v=59
39300 On ch=3 n=61 v=37
39412 On ch=3 n=66 v=0
39415 On ch=3 n=61 v=0
39415 On ch=3 n=66 v=49
39416 On ch=3 n=58 v=0
39417 On ch=3 n=61 v=47
39420 On ch=3 n=58 v=54
39477 On ch=3 n=42 v=0
39477 On ch=3 n=54 v=0
39478 On ch=3 n=58 v=0
39480 On ch=3 n=42 v=49
39481 On ch=3 n=54 v=68
39482 On ch=3 n=61 v=0
39483 On ch=3 n=66 v=0
39483 On ch=3 n=58 v=68
39485 On ch=3 n=61 v=68
39486 On ch=3 n=66 v=77
39537 On ch=3 n=66 v=0
39540 On ch=3 n=66 v=59
39598 On ch=3 n=49 v=0
39598 On ch=3 n=54 v=0
39599 On ch=3 n=58 v=0
39600 On ch=3 n=49 v=37
39601 On ch=3 n=54 v=61
39603 On ch=3 n=58 v=64
39720 On ch=3 n=58 v=0
39723 On ch=3 n=61 v=0
39723 On ch=3 n=58 v=68
39725 On ch=3 n=66 v=0
39727 On ch=3 n=61 v=68
39731 On ch=3 n=66 v=77
39777 On ch=3 n=61 v=0
39778 On ch=3 n=66 v=0
39780 On ch=3 n=66 v=59
39780 On ch=3 n=61 v=37
39835 On ch=3 n=49 v=0
39838 On ch=3 n=66 v=0
39838 On ch=3 n=54 v=0
39839 On ch=3 n=42 v=0
39839 On ch=3 n=58 v=0
39840 On ch=3 n=61 v=0
39840 On ch=3 n=42 v=61
39841 On ch=3 n=49 v=41
39843 On ch=3 n=54 v=52
39846 On ch=3 n=58 v=54
39848 On ch=3 n=61 v=45
39851 On ch=3 n=66 v=39
39958 On ch=3 n=54 v=0
39960 On ch=3 n=54 v=68
39962 On ch=3 n=58 v=0
39963 On ch=3 n=61 v=0
39963 On ch=3 n=58 v=68
39967 On ch=3 n=66 v=0
39967 On ch=3 n=61 v=68
39971 On ch=3 n=66 v=77
40017 On ch=3 n=61 v=0
40018 On ch=3 n=66 v=0
40020 On ch=3 n=66 v=59
40020 On ch=3 n=61 v=37
40079 On ch=3 n=58 v=0
40083 On ch=3 n=58 v=54
40085 On ch=3 n=61 v=0
40087 On ch=3 n=61 v=38
40088 On ch=3 n=66 v=0
40091 On ch=3 n=66 v=44
40138 On ch=3 n=66 v=0
40140 On ch=3 n=66 v=45
40193 On ch=3 n=49 v=0
40195 On ch=3 n=54 v=0
40195 On ch=3 n=49 v=37
40199 On ch=3 n=58 v=0
40200 On ch=3 n=54 v=68
40203 On ch=3 n=58 v=68
40207 On ch=3 n=66 v=0
40211 On ch=3 n=66 v=77
40254 On ch=3 n=61 v=0
40258 On ch=3 n=66 v=0
40260 On ch=3 n=66 v=59
40260 On ch=3 n=61 v=37
40372 On ch=3 n=66 v=0
40375 On ch=3 n=61 v=0
40375 On ch=3 n=66 v=49
40376 On ch=3 n=58 v=0
40377 On ch=3 n=61 v=47
40380 On ch=3 n=58 v=54
40437 On ch=3 n=42 v=0
40437 On ch=3 n=54 v=0
40438 On ch=3 n=58 v=0
40440 On ch=3 n=42 v=49
40441 On ch=3 n=54 v=68
40442 On ch=3 n=61 v=0
40443 On ch=3 n=66 v=0
40443 On ch=3 n=58 v=68
40445 On ch=3 n=61 v=68
40446 On ch=3 n=66 v=77
40497 On ch=3 n=66 v=0
40500 On ch=3 n=66 v=59
40558 On ch=3 n=49 v=0
40558 On ch=3 n=54 v=0
40559 On ch=3 n=58 v=0
40560 On ch=3 n=49 v=37
40561 On ch=3 n=54 v=61
40563 On ch=3 n=58 v=64
40680 On ch=3 n=58 v=0
40683 On ch=3 n=61 v=0
40683 On ch=3 n=58 v=68
40685 On ch=3 n=66 v=0
40687 On ch=3 n=61 v=68
40691 On ch=3 n=66 v=77
40737 On ch=3 n=61 v=0
40738 On ch=3 n=66 v=0
40740 On ch=3 n=66 v=59
40740 On ch=3 n=61 v=37
40795 On ch=3 n=49 v=0
40798 On ch=3 n=66 v=0
40798 On ch=3 n=54 v=0
40799 On ch=3 n=42 v=0
40799 On ch=3 n=58 v=0
40800 On ch=3 n=61 v=0
40800 On ch=3 n=42 v=61
40801 On ch=3 n=49 v=41
40803 On ch=3 n=54 v=52
40806 On ch=3 n=58 v=54
40808 On ch=3 n=61 v=45
40811 On ch=3 n=66 v=39
40918 On ch=3 n=54 v=0
40920 On ch=3 n=54 v=68
40922 On ch=3 n=58 v=0
40923 On ch=3 n=61 v=0
40923 On ch=3 n=58 v=68
40927 On ch=3 n=66 v=0
40927 On ch=3 n=61 v=68
40931 On ch=3 n=66 v=77
40977 On ch=3 n=61 v=0
40978 On ch=3 n=66 v=0
40980 On ch=3 n=66 v=59
40980 On ch=3 n=61 v=37
41039 On ch=3 n=58 v=0
41043 On ch=3 n=58 v=54
41045 On ch=3 n=61 v=0
41047 On ch=3 n=61 v=38
41048 On ch=3 n=66 v=0
41051 On ch=3 n=66 v=44
41098 On ch=3 n=66 v=0
41100 On ch=3 n=66 v=45
41153 On ch=3 n=49 v=0
41155 On ch=3 n=54 v=0
41155 On ch=3 n=49 v=37
41159 On ch=3 n=58 v=0
41160 On ch=3 n=54 v=68
41163 On ch=3 n=58 v=68
41167 On ch=3 n=66 v=0
41171 On ch=3 n=66 v=77
41214 On ch=3 n=61 v=0
41218 On ch=3 n=66 v=0
41220 On ch=3 n=66 v=59
41220 On ch=3 n=61 v=37
41332 On ch=3 n=66 v=0
41335 On ch=3 n=61 v=0
41335 On ch=3 n=66 v=49
41336 On ch=3 n=58 v=0
41337 On ch=3 n=61 v=47
41340 On ch=3 n=58 v=54
41397 On ch=3 n=42 v=0
41397 On ch=3 n=54 v=0
41398 On ch=3 n=58 v=0
41400 On ch=3 n=42 v=49
41401 On ch=3 n=54 v=68
41402 On ch=3 n=61 v=0
41403 On ch=3 n=66 v=0
41403 On ch=3 n=58 v=68
41405 On ch=3 n=61 v=68
41406 On ch=3 n=66 v=77
41457 On ch=3 n=66 v=0
41460 On ch=3 n=66 v=59
41518 On ch=3 n=49 v=0
41518 On ch=3 n=54 v=0
41519 On ch=3 n=58 v=0
41520 On ch=3 n=49 v=37
41521 On ch=3 n=54 v=61
41523 On ch=3 n=58 v=64
41640 On ch=3 n=58 v=0
41643 On ch=3 n=61 v=0
41643 On ch=3 n=58 v=68
41645 On ch=3 n=66 v=0
41647 On ch=3 n=61 v=68
41651 On ch=3 n=66 v=77
41697 On ch=3 n=61 v=0
41698 On ch=3 n=66 v=0
41700 On ch=3 n=66 v=59
41700 On ch=3 n=61 v=37
41755 On ch=3 n=49 v=0
41758 On ch=3 n=66 v=0
41758 On ch=3 n=54 v=0
41759 On ch=3 n=42 v=0
41759 On ch=3 n=58 v=0
41760 On ch=3 n=61 v=0
41760 On ch=3 n=42 v=61
41761 On ch=3 n=49 v=41
41763 On ch=3 n=54 v=52
41766 On ch=3 n=58 v=54
41768 On ch=3 n=61 v=45
41771 On ch=3 n=66 v=39
41878 On ch=3 n=54 v=0
41880 On ch=3 n=54 v=68
41882 On ch=3 n=58 v=0
41883 On ch=3 n=61 v=0
41883 On ch=3 n=58 v=68
41887 On ch=3 n=66 v=0
41887 On ch=3 n=61 v=68
41891 On ch=3 n=66 v=77
41937 On ch=3 n=61 v=0
41938 On ch=3 n=66 v=0
41940 On ch=3 n=66 v=59
41940 On ch=3 n=61 v=37
41999 On ch=3 n=58 v=0
42003 On ch=3 n=58 v=54
42005 On ch=3 n=61 v=0
42007 On ch=3 n=61 v=38
42008 On ch=3 n=66 v=0
42011 On ch=3 n=66 v=44
42058 On ch=3 n=66 v=0
42060 On ch=3 n=66 v=45
42113 On ch=3 n=49 v=0
42115 On ch=3 n=54 v=0
42115 On ch=3 n=49 v=37
42119 On ch=3 n=58 v=0
42120 On ch=3 n=54 v=68
42123 On ch=3 n=58 v=68
42127 On ch=3 n=66 v=0
42131 On ch=3 n=66 v=77
42174 On ch=3 n=61 v=0
42178 On ch=3 n=66 v=0
42180 On ch=3 n=66 v=59
42180 On ch=3 n=61 v=37
42292 On ch=3 n=66 v=0
42295 On ch=3 n=61 v=0
42295 On ch=3 n=66 v=49
42296 On ch=3 n=58 v=0
42297 On ch=3 n=61 v=47
42300 On ch=3 n=58 v=54
42357 On ch=3 n=42 v=0
42357 On ch=3 n=54 v=0
42358 On ch=3 n=58 v=0
42360 On ch=3 n=42 v=49
42361 On ch=3 n=54 v=68
42362 On ch=3 n=61 v=0
42363 On ch=3 n=66 v=0
42363 On ch=3 n=58 v=68
42365 On ch=3 n=61 v=68
42366 On ch=3 n=66 v=77
42417 On ch=3 n=66 v=0
42420 On ch=3 n=66 v=59
42478 On ch=3 n=49 v=0
42478 On ch=3 n=54 v=0
42479 On ch=3 n=58 v=0
42480 On ch=3 n=49 v=37
42481 On ch=3 n=54 v=61
42483 On ch=3 n=58 v=64
42600 On ch=3 n=58 v=0
42603 On ch=3 n=61 v=0
42603 On ch=3 n=58 v=68
42605 On ch=3 n=66 v=0
42607 On ch=3 n=61 v=68
42611 On ch=3 n=66 v=77
42657 On ch=3 n=61 v=0
42658 On ch=3 n=66 v=0
42660 On ch=3 n=66 v=59
42660 On ch=3 n=61 v=37
42715 On ch=3 n=49 v=0
42718 On ch=3 n=66 v=0
42718 On ch=3 n=54 v=0
42719 On ch=3 n=42 v=0
42719 On ch=3 n=58 v=0
42720 On ch=3 n=61 v=0
42720 On ch=3 n=42 v=61
42721 On ch=3 n=49 v=41
42723 On ch=3 n=54 v=52
42726 On ch=3 n=58 v=54
42728 On ch=3 n=61 v=45
42731 On ch=3 n=66 v=39
42838 On ch=3 n=54 v=0
42840 On ch=3 n=54 v=68
42842 On ch=3 n=58 v=0
42843 On ch=3 n=61 v=0
42843 On ch=3 n=58 v=68
42847 On ch=3 n=66 v=0
42847 On ch=3 n=61 v=68
42851 On ch=3 n=66 v=77
42897 On ch=3 n=61 v=0
42898 On ch=3 n=66 v=0
42900 On ch=3 n=66 v=59
42900 On ch=3 n=61 v=37
42959 On ch=3 n=58 v=0
42963 On ch=3 n=58 v=54
42965 On ch=3 n=61 v=0
42967 On ch=3 n=61 v=38
42968 On ch=3 n=66 v=0
42971 On ch=3 n=66 v=44
43018 On ch=3 n=66 v=0
43020 On ch=3 n=66 v=45
43073 On ch=3 n=49 v=0
43075 On ch=3 n=54 v=0
43075 On ch=3 n=49 v=37
43079 On ch=3 n=58 v=0
43080 On ch=3 n=54 v=68
43083 On ch=3 n=58 v=68
43087 On ch=3 n=66 v=0
43091 On ch=3 n=66 v=77
43134 On ch=3 n=61 v=0
43138 On ch=3 n=66 v=0
43140 On ch=3 n=66 v=59
43140 On ch=3 n=61 v=37
43169 On ch=3 n=58 v=0
43170 On ch=3 n=42 v=0
43170 On ch=3 n=54 v=0
43187 On ch=3 n=66 v=0
43200 On ch=3 n=61 v=0
43200 On ch=3 n=49 v=0
43200 On ch=3 n=63 v=63
43200 On ch=3 n=47 v=54
43200 On ch=3 n=59 v=63
43200 On ch=3 n=54 v=63
43205 On ch=3 n=66 v=62
43256 On ch=3 n=66 v=0
43258 On ch=3 n=66 v=64
43315 On ch=3 n=63 v=0
43316 On ch=3 n=59 v=0
43317 On ch=3 n=54 v=0
43321 On ch=3 n=63 v=73
43321 On ch=3 n=54 v=73
43323 On ch=3 n=59 v=73
43324 On ch=3 n=66 v=0
43326 On ch=3 n=66 v=82
43377 On ch=3 n=66 v=0
43380 On ch=3 n=66 v=64
43436 On ch=3 n=63 v=0
43438 On ch=3 n=54 v=0
43439 On ch=3 n=59 v=0
43440 On ch=3 n=59 v=69
43440 On ch=3 n=54 v=66
43442 On ch=3 n=63 v=69
43446 On ch=3 n=66 v=0
43448 On ch=3 n=66 v=61
43557 On ch=3 n=59 v=0
43560 On ch=3 n=63 v=0
43560 On ch=3 n=59 v=73
43563 On ch=3 n=63 v=73
43568 On ch=3 n=66 v=0
43571 On ch=3 n=66 v=82
43613 On ch=3 n=63 v=0
43616 On ch=3 n=63 v=42
43618 On ch=3 n=66 v=0
43620 On ch=3 n=66 v=64
43668 On ch=3 n=47 v=0
43676 On ch=3 n=63 v=0
43676 On ch=3 n=59 v=0
43677 On ch=3 n=54 v=0
43678 On ch=3 n=66 v=0
43680 On ch=3 n=47 v=66
43682 On ch=3 n=59 v=59
43683 On ch=3 n=54 v=57
43685 On ch=3 n=63 v=50
43691 On ch=3 n=66 v=44
43798 On ch=3 n=54 v=0
43798 On ch=3 n=59 v=0
43800 On ch=3 n=63 v=0
43800 On ch=3 n=59 v=73
43800 On ch=3 n=54 v=73
43803 On ch=3 n=63 v=73
43807 On ch=3 n=66 v=0
43811 On ch=3 n=66 v=82
43853 On ch=3 n=63 v=0
43856 On ch=3 n=63 v=42
43858 On ch=3 n=66 v=0
43860 On ch=3 n=66 v=64
43916 On ch=3 n=59 v=0
43920 On ch=3 n=59 v=59
43921 On ch=3 n=63 v=0
43923 On ch=3 n=63 v=43
43928 On ch=3 n=66 v=0
43931 On ch=3 n=66 v=49
43978 On ch=3 n=66 v=0
43980 On ch=3 n=66 v=50
44035 On ch=3 n=54 v=0
44036 On ch=3 n=59 v=0
44040 On ch=3 n=57 v=43
44040 On ch=3 n=54 v=73
44047 On ch=3 n=66 v=0
44051 On ch=3 n=66 v=82
44090 On ch=3 n=63 v=0
44096 On ch=3 n=63 v=42
44098 On ch=3 n=66 v=0
44100 On ch=3 n=66 v=64
44211 On ch=3 n=63 v=0
44212 On ch=3 n=66 v=0
44213 On ch=3 n=57 v=0
44213 On ch=3 n=63 v=52
44215 On ch=3 n=66 v=54
44216 On ch=3 n=57 v=59
44274 On ch=3 n=57 v=0
44277 On ch=3 n=47 v=0
44277 On ch=3 n=54 v=0
44278 On ch=3 n=63 v=0
44280 On ch=3 n=57 v=73
44280 On ch=3 n=47 v=54
44281 On ch=3 n=63 v=73
44281 On ch=3 n=54 v=73
44283 On ch=3 n=66 v=0
44286 On ch=3 n=66 v=82
44337 On ch=3 n=66 v=0
44340 On ch=3 n=66 v=64
44396 On ch=3 n=57 v=0
44396 On ch=3 n=63 v=0
44398 On ch=3 n=54 v=0
44400 On ch=3 n=57 v=69
44400 On ch=3 n=54 v=66
44402 On ch=3 n=63 v=69
44406 On ch=3 n=66 v=0
44408 On ch=3 n=66 v=61
44517 On ch=3 n=57 v=0
44520 On ch=3 n=63 v=0
44520 On ch=3 n=57 v=73
44523 On ch=3 n=63 v=73
44528 On ch=3 n=66 v=0
44531 On ch=3 n=66 v=82
44573 On ch=3 n=63 v=0
44578 On ch=3 n=66 v=0
44580 On ch=3 n=63 v=42
44583 On ch=3 n=66 v=64
44686 On ch=3 n=57 v=0
44690 On ch=3 n=47 v=0
44695 On ch=3 n=66 v=0
44695 On ch=3 n=63 v=0
44700 On ch=3 n=47 v=54
44700 On ch=3 n=63 v=52
44701 On ch=3 n=66 v=54
44702 On ch=3 n=57 v=59
44751 On ch=3 n=54 v=0
44760 On ch=3 n=57 v=0
44765 On ch=3 n=63 v=0
44766 On ch=3 n=57 v=73
44767 On ch=3 n=63 v=73
44767 On ch=3 n=54 v=73
44769 On ch=3 n=66 v=0
44772 On ch=3 n=66 v=82
44823 On ch=3 n=66 v=0
44826 On ch=3 n=66 v=64
44882 On ch=3 n=63 v=0
44882 On ch=3 n=57 v=0
44884 On ch=3 n=54 v=0
44886 On ch=3 n=57 v=69
44886 On ch=3 n=54 v=66
44888 On ch=3 n=63 v=69
44892 On ch=3 n=66 v=0
44895 On ch=3 n=66 v=61
45003 On ch=3 n=57 v=0
45006 On ch=3 n=63 v=0
45006 On ch=3 n=57 v=73
45010 On ch=3 n=63 v=73
45015 On ch=3 n=66 v=0
45017 On ch=3 n=66 v=82
45060 On ch=3 n=66 v=52
45061 On ch=3 n=66 v=0
45102 On ch=3 n=66 v=0
45110 On ch=3 n=63 v=0
45110 On ch=3 n=47 v=0
45119 On ch=3 n=54 v=0
45119 On ch=3 n=57 v=0
45120 On ch=3 n=47 v=74
45120 On ch=3 n=52 v=73
45122 On ch=3 n=56 v=63
45123 On ch=3 n=59 v=64
45178 On ch=3 n=64 v=74
45237 On ch=3 n=52 v=0
45238 On ch=3 n=59 v=0
45238 On ch=3 n=56 v=0
45241 On ch=3 n=59 v=83
45241 On ch=3 n=52 v=83
45243 On ch=3 n=56 v=83
45244 On ch=3 n=64 v=0
45246 On ch=3 n=64 v=92
45297 On ch=3 n=64 v=0
45300 On ch=3 n=64 v=74
45356 On ch=3 n=59 v=0
45358 On ch=3 n=52 v=0
45359 On ch=3 n=56 v=0
45360 On ch=3 n=56 v=79
45360 On ch=3 n=52 v=76
45362 On ch=3 n=59 v=79
45364 On ch=3 n=64 v=0
45368 On ch=3 n=64 v=71
45477 On ch=3 n=56 v=0
45480 On ch=3 n=59 v=0
45480 On ch=3 n=56 v=83
45483 On ch=3 n=59 v=83
45486 On ch=3 n=64 v=52
45488 On ch=3 n=64 v=0
45540 On ch=3 n=64 v=64
45588 On ch=3 n=47 v=0
45596 On ch=3 n=56 v=0
45597 On ch=3 n=52 v=0
45598 On ch=3 n=64 v=0
45600 On ch=3 n=57 v=71
45600 On ch=3 n=61 v=63
45600 On ch=3 n=45 v=83
45600 On ch=3 n=52 v=73
45601 On ch=3 n=59 v=0
45603 On ch=3 n=64 v=0
45605 On ch=3 n=64 v=62
45656 On ch=3 n=64 v=0
45658 On ch=3 n=64 v=74
45715 On ch=3 n=61 v=0
45716 On ch=3 n=57 v=0
45717 On ch=3 n=52 v=0
45721 On ch=3 n=61 v=83
45721 On ch=3 n=52 v=83
45723 On ch=3 n=57 v=83
45724 On ch=3 n=64 v=0
45726 On ch=3 n=64 v=92
45777 On ch=3 n=64 v=0
45780 On ch=3 n=64 v=74
45836 On ch=3 n=61 v=0
45838 On ch=3 n=52 v=0
45839 On ch=3 n=57 v=0
45840 On ch=3 n=64 v=71
45840 On ch=3 n=57 v=79
45840 On ch=3 n=52 v=76
45842 On ch=3 n=61 v=79
45846 On ch=3 n=64 v=0
45900 On ch=3 n=64 v=0
45957 On ch=3 n=57 v=0
45960 On ch=3 n=61 v=0
45960 On ch=3 n=57 v=83
45963 On ch=3 n=61 v=83
45971 On ch=3 n=64 v=92
46013 On ch=3 n=61 v=0
46016 On ch=3 n=61 v=52
46018 On ch=3 n=64 v=0
46020 On ch=3 n=64 v=74
46068 On ch=3 n=45 v=0
46076 On ch=3 n=61 v=0
46076 On ch=3 n=57 v=0
46077 On ch=3 n=52 v=0
46078 On ch=3 n=64 v=0
46078 On ch=3 n=50 v=93
46080 On ch=3 n=62 v=71
46080 On ch=3 n=54 v=63
46080 On ch=3 n=57 v=73
46085 On ch=3 n=69 v=62
46136 On ch=3 n=69 v=0
46138 On ch=3 n=69 v=74
46195 On ch=3 n=54 v=0
46196 On ch=3 n=62 v=0
46197 On ch=3 n=57 v=0
46201 On ch=3 n=54 v=83
46201 On ch=3 n=57 v=83
46203 On ch=3 n=62 v=83
46204 On ch=3 n=69 v=0
46206 On ch=3 n=69 v=92
46257 On ch=3 n=69 v=0
46260 On ch=3 n=69 v=74
46313 On ch=3 n=49 v=94
46316 On ch=3 n=54 v=0
46318 On ch=3 n=57 v=0
46318 On ch=3 n=50 v=0
46319 On ch=3 n=62 v=0
46320 On ch=3 n=69 v=71
46320 On ch=3 n=62 v=59
46320 On ch=3 n=57 v=66
46320 On ch=3 n=52 v=69
46326 On ch=3 n=69 v=0
46380 On ch=3 n=69 v=0
46437 On ch=3 n=62 v=0
46438 On ch=3 n=52 v=0
46440 On ch=3 n=52 v=83
46440 On ch=3 n=62 v=83
46451 On ch=3 n=69 v=92
46490 On ch=3 n=52 v=0
46492 On ch=3 n=52 v=52
46498 On ch=3 n=69 v=0
46500 On ch=3 n=69 v=74
46552 On ch=3 n=52 v=0
46553 On ch=3 n=49 v=0
46556 On ch=3 n=62 v=0
46557 On ch=3 n=57 v=0
46558 On ch=3 n=69 v=0
46560 On ch=3 n=59 v=53
46560 On ch=3 n=62 v=45
46560 On ch=3 n=47 v=65
46560 On ch=3 n=54 v=55
46565 On ch=3 n=66 v=44
46616 On ch=3 n=66 v=0
46618 On ch=3 n=66 v=56
46675 On ch=3 n=62 v=0
46676 On ch=3 n=59 v=0
46677 On ch=3 n=54 v=0
46681 On ch=3 n=62 v=65
46681 On ch=3 n=54 v=65
46683 On ch=3 n=59 v=65
46684 On ch=3 n=66 v=0
46686 On ch=3 n=66 v=74
46737 On ch=3 n=66 v=0
46740 On ch=3 n=66 v=56
46793 On ch=3 n=66 v=0
46796 On ch=3 n=62 v=0
46798 On ch=3 n=54 v=0
46799 On ch=3 n=59 v=0
46800 On ch=3 n=66 v=53
46800 On ch=3 n=59 v=61
46800 On ch=3 n=54 v=58
46802 On ch=3 n=62 v=61
46917 On ch=3 n=59 v=0
46920 On ch=3 n=62 v=0
46920 On ch=3 n=66 v=0
46920 On ch=3 n=59 v=65
46923 On ch=3 n=62 v=65
46931 On ch=3 n=66 v=74
46973 On ch=3 n=62 v=0
46976 On ch=3 n=62 v=44
46978 On ch=3 n=66 v=0
46980 On ch=3 n=66 v=57
47028 On ch=3 n=47 v=0
47036 On ch=3 n=59 v=0
47037 On ch=3 n=54 v=0
47040 On ch=3 n=59 v=53
47040 On ch=3 n=47 v=65
47040 On ch=3 n=54 v=55
47088 On ch=3 n=66 v=0
47098 On ch=3 n=66 v=56
47154 On ch=3 n=62 v=0
47156 On ch=3 n=59 v=0
47157 On ch=3 n=54 v=0
47161 On ch=3 n=62 v=65
47161 On ch=3 n=54 v=65
47163 On ch=3 n=59 v=65
47164 On ch=3 n=66 v=0
47166 On ch=3 n=66 v=74
47217 On ch=3 n=66 v=0
47220 On ch=3 n=66 v=56
47273 On ch=3 n=66 v=0
47276 On ch=3 n=62 v=0
47278 On ch=3 n=54 v=0
47279 On ch=3 n=59 v=0
47280 On ch=3 n=66 v=53
47280 On ch=3 n=59 v=61
47280 On ch=3 n=54 v=58
47282 On ch=3 n=62 v=61
47397 On ch=3 n=59 v=0
47400 On ch=3 n=62 v=0
47400 On ch=3 n=66 v=0
47400 On ch=3 n=59 v=65
47403 On ch=3 n=62 v=65
47411 On ch=3 n=66 v=74
47453 On ch=3 n=62 v=0
47456 On ch=3 n=62 v=34
47458 On ch=3 n=66 v=0
47460 On ch=3 n=66 v=56
47508 On ch=3 n=47 v=0
47516 On ch=3 n=62 v=0
47516 On ch=3 n=59 v=0
47517 On ch=3 n=54 v=0
47518 On ch=3 n=66 v=0
47520 On ch=3 n=42 v=76
47521 On ch=3 n=49 v=56
47523 On ch=3 n=54 v=67
47526 On ch=3 n=58 v=69
47528 On ch=3 n=61 v=60
47531 On ch=3 n=66 v=54
47638 On ch=3 n=54 v=0
47640 On ch=3 n=54 v=83
47642 On ch=3 n=58 v=0
47643 On ch=3 n=61 v=0
47643 On ch=3 n=58 v=83
47647 On ch=3 n=66 v=0
47647 On ch=3 n=61 v=83
47651 On ch=3 n=66 v=92
47697 On ch=3 n=61 v=0
47698 On ch=3 n=66 v=0
47700 On ch=3 n=66 v=74
47700 On ch=3 n=61 v=52
47759 On ch=3 n=58 v=0
47763 On ch=3 n=58 v=69
47765 On ch=3 n=61 v=0
47767 On ch=3 n=61 v=53
47768 On ch=3 n=66 v=0
47771 On ch=3 n=66 v=59
47818 On ch=3 n=66 v=0
47820 On ch=3 n=66 v=60
47873 On ch=3 n=49 v=0
47875 On ch=3 n=54 v=0
47875 On ch=3 n=49 v=52
47879 On ch=3 n=58 v=0
47880 On ch=3 n=54 v=83
47883 On ch=3 n=58 v=83
47887 On ch=3 n=66 v=0
47891 On ch=3 n=66 v=92
47934 On ch=3 n=61 v=0
47938 On ch=3 n=66 v=0
47940 On ch=3 n=66 v=74
47940 On ch=3 n=61 v=52
48052 On ch=3 n=66 v=0
48055 On ch=3 n=61 v=0
48055 On ch=3 n=66 v=64
48056 On ch=3 n=58 v=0
48057 On ch=3 n=61 v=62
48060 On ch=3 n=58 v=69
48117 On ch=3 n=42 v=0
48117 On ch=3 n=54 v=0
48118 On ch=3 n=58 v=0
48120 On ch=3 n=42 v=64
48121 On ch=3 n=54 v=83
48122 On ch=3 n=61 v=0
48123 On ch=3 n=66 v=0
48123 On ch=3 n=58 v=83
48125 On ch=3 n=61 v=83
48126 On ch=3 n=66 v=92
48177 On ch=3 n=66 v=0
48180 On ch=3 n=66 v=74
48238 On ch=3 n=49 v=0
48238 On ch=3 n=54 v=0
48239 On ch=3 n=58 v=0
48240 On ch=3 n=49 v=52
48241 On ch=3 n=54 v=76
48243 On ch=3 n=58 v=79
48360 On ch=3 n=58 v=0
48363 On ch=3 n=61 v=0
48363 On ch=3 n=58 v=83
48365 On ch=3 n=66 v=0
48367 On ch=3 n=61 v=83
48371 On ch=3 n=66 v=92
48417 On ch=3 n=61 v=0
48418 On ch=3 n=66 v=0
48420 On ch=3 n=66 v=74
48420 On ch=3 n=61 v=52
48475 On ch=3 n=49 v=0
48478 On ch=3 n=66 v=0
48478 On ch=3 n=54 v=0
48479 On ch=3 n=42 v=0
48479 On ch=3 n=58 v=0
48480 On ch=3 n=61 v=0
48480 On ch=3 n=40 v=76
48481 On ch=3 n=47 v=56
48483 On ch=3 n=52 v=67
48486 On ch=3 n=56 v=69
48488 On ch=3 n=59 v=60
48491 On ch=3 n=64 v=54
48598 On ch=3 n=52 v=0
48600 On ch=3 n=52 v=83
48602 On ch=3 n=56 v=0
48603 On ch=3 n=59 v=0
48603 On ch=3 n=56 v=83
48607 On ch=3 n=64 v=0
48607 On ch=3 n=59 v=83
48611 On ch=3 n=64 v=92
48657 On ch=3 n=59 v=0
48658 On ch=3 n=64 v=0
48660 On ch=3 n=64 v=74
48660 On ch=3 n=59 v=52
48719 On ch=3 n=56 v=0
48723 On ch=3 n=56 v=69
48725 On ch=3 n=59 v=0
48727 On ch=3 n=59 v=53
48728 On ch=3 n=64 v=0
48731 On ch=3 n=64 v=59
48778 On ch=3 n=64 v=0
48780 On ch=3 n=64 v=60
48833 On ch=3 n=47 v=0
48835 On ch=3 n=52 v=0
48835 On ch=3 n=47 v=52
48839 On ch=3 n=56 v=0
48840 On ch=3 n=52 v=83
48843 On ch=3 n=56 v=83
48847 On ch=3 n=64 v=0
48851 On ch=3 n=64 v=92
48894 On ch=3 n=59 v=0
48898 On ch=3 n=64 v=0
48900 On ch=3 n=64 v=74
48900 On ch=3 n=59 v=52
49012 On ch=3 n=64 v=0
49015 On ch=3 n=59 v=0
49015 On ch=3 n=64 v=64
49016 On ch=3 n=56 v=0
49017 On ch=3 n=59 v=62
49020 On ch=3 n=56 v=69
49077 On ch=3 n=40 v=0
49077 On ch=3 n=52 v=0
49078 On ch=3 n=56 v=0
49080 On ch=3 n=40 v=64
49081 On ch=3 n=52 v=83
49082 On ch=3 n=59 v=0
49083 On ch=3 n=64 v=0
49083 On ch=3 n=56 v=83
49085 On ch=3 n=59 v=83
49086 On ch=3 n=64 v=92
49137 On ch=3 n=64 v=0
49140 On ch=3 n=64 v=74
49198 On ch=3 n=47 v=0
49198 On ch=3 n=52 v=0
49199 On ch=3 n=56 v=0
49200 On ch=3 n=47 v=52
49201 On ch=3 n=52 v=76
49203 On ch=3 n=56 v=79
49320 On ch=3 n=56 v=0
49323 On ch=3 n=59 v=0
49323 On ch=3 n=56 v=83
49325 On ch=3 n=64 v=0
49327 On ch=3 n=59 v=83
49331 On ch=3 n=64 v=92
49377 On ch=3 n=59 v=0
49378 On ch=3 n=64 v=0
49380 On ch=3 n=64 v=74
49380 On ch=3 n=59 v=52
49435 On ch=3 n=47 v=0
49438 On ch=3 n=64 v=0
49438 On ch=3 n=52 v=0
49439 On ch=3 n=40 v=0
49439 On ch=3 n=56 v=0
49440 On ch=3 n=59 v=0
49440 On ch=3 n=45 v=86
49443 On ch=3 n=52 v=74
49446 On ch=3 n=57 v=76
49448 On ch=3 n=61 v=67
49558 On ch=3 n=52 v=0
49560 On ch=3 n=52 v=93
49562 On ch=3 n=57 v=0
49563 On ch=3 n=61 v=0
49563 On ch=3 n=57 v=94
49567 On ch=3 n=61 v=94
49571 On ch=3 n=64 v=99
49617 On ch=3 n=61 v=0
49618 On ch=3 n=64 v=0
49620 On ch=3 n=64 v=81
49620 On ch=3 n=61 v=59
49679 On ch=3 n=57 v=0
49683 On ch=3 n=57 v=76
49685 On ch=3 n=61 v=0
49687 On ch=3 n=61 v=60
49735 On ch=3 n=64 v=0
49740 On ch=3 n=64 v=67
49799 On ch=3 n=57 v=0
49799 On ch=3 n=61 v=0
49803 On ch=3 n=64 v=0
49803 On ch=3 n=61 v=81
49803 On ch=3 n=57 v=90
49806 On ch=3 n=64 v=99
49853 On ch=3 n=64 v=0
49860 On ch=3 n=64 v=81
49860 On ch=3 n=61 v=59
49863 On ch=3 n=61 v=0
49913 On ch=3 n=52 v=0
49915 On ch=3 n=61 v=0
49919 On ch=3 n=57 v=0
49920 On ch=3 n=64 v=0
49920 On ch=3 n=45 v=0
49920 On ch=3 n=42 v=93
49923 On ch=3 n=54 v=74
49926 On ch=3 n=57 v=76
49928 On ch=3 n=61 v=66
50038 On ch=3 n=54 v=0
50040 On ch=3 n=61 v=0
50041 On ch=3 n=54 v=90
50042 On ch=3 n=57 v=0
50042 On ch=3 n=57 v=91
50043 On ch=3 n=61 v=92
50045 On ch=3 n=66 v=99
50096 On ch=3 n=66 v=0
50098 On ch=3 n=61 v=0
50100 On ch=3 n=66 v=81
50100 On ch=3 n=61 v=59
50165 On ch=3 n=61 v=0
50167 On ch=3 n=61 v=60
50168 On ch=3 n=66 v=0
50171 On ch=3 n=66 v=66
50218 On ch=3 n=66 v=0
50220 On ch=3 n=66 v=65
50276 On ch=3 n=54 v=0
50277 On ch=3 n=57 v=0
50279 On ch=3 n=61 v=0
50280 On ch=3 n=54 v=85
50282 On ch=3 n=57 v=87
50283 On ch=3 n=66 v=0
50283 On ch=3 n=61 v=92
50285 On ch=3 n=66 v=87
50332 On ch=3 n=66 v=0
50339 On ch=3 n=61 v=0
50340 On ch=3 n=66 v=81
50340 On ch=3 n=61 v=59
50398 On ch=3 n=57 v=0
50400 On ch=3 n=66 v=0
50400 On ch=3 n=42 v=0
50400 On ch=3 n=54 v=0
50400 On ch=3 n=61 v=0
50400 On ch=3 n=45 v=86
50403 On ch=3 n=52 v=74
50406 On ch=3 n=57 v=76
50408 On ch=3 n=61 v=67
50518 On ch=3 n=52 v=0
50520 On ch=3 n=52 v=93
50522 On ch=3 n=57 v=0
50523 On ch=3 n=61 v=0
50523 On ch=3 n=57 v=94
50527 On ch=3 n=61 v=94
50531 On ch=3 n=64 v=99
50577 On ch=3 n=61 v=0
50578 On ch=3 n=64 v=0
50580 On ch=3 n=64 v=81
50580 On ch=3 n=61 v=59
50639 On ch=3 n=57 v=0
50643 On ch=3 n=57 v=76
50645 On ch=3 n=61 v=0
50647 On ch=3 n=61 v=60
50695 On ch=3 n=64 v=0
50700 On ch=3 n=64 v=67
50759 On ch=3 n=57 v=0
50762 On ch=3 n=64 v=0
50763 On ch=3 n=57 v=90
50765 On ch=3 n=64 v=99
50812 On ch=3 n=64 v=0
50814 On ch=3 n=61 v=0
50820 On ch=3 n=64 v=81
50820 On ch=3 n=61 v=59
50873 On ch=3 n=52 v=0
50879 On ch=3 n=57 v=0
50880 On ch=3 n=64 v=0
50880 On ch=3 n=45 v=0
50880 On ch=3 n=61 v=0
50880 On ch=3 n=42 v=93
50883 On ch=3 n=54 v=74
50886 On ch=3 n=57 v=76
50888 On ch=3 n=61 v=66
50998 On ch=3 n=54 v=0
51000 On ch=3 n=61 v=0
51001 On ch=3 n=54 v=90
51002 On ch=3 n=57 v=0
51002 On ch=3 n=57 v=91
51003 On ch=3 n=61 v=92
51005 On ch=3 n=66 v=99
51056 On ch=3 n=66 v=0
51058 On ch=3 n=61 v=0
51060 On ch=3 n=66 v=81
51060 On ch=3 n=61 v=59
51125 On ch=3 n=61 v=0
51127 On ch=3 n=61 v=60
51128 On ch=3 n=66 v=0
51131 On ch=3 n=66 v=66
51178 On ch=3 n=66 v=0
51180 On ch=3 n=66 v=65
51236 On ch=3 n=54 v=0
51237 On ch=3 n=57 v=0
51240 On ch=3 n=54 v=85
51243 On ch=3 n=66 v=0
51243 On ch=3 n=57 v=87
51245 On ch=3 n=66 v=86
51292 On ch=3 n=66 v=0
51294 On ch=3 n=61 v=0
51300 On ch=3 n=66 v=81
51300 On ch=3 n=61 v=59
51359 On ch=3 n=57 v=0
51360 On ch=3 n=66 v=0
51360 On ch=3 n=54 v=0
51360 On ch=3 n=42 v=0
51360 On ch=3 n=61 v=0
51360 On ch=3 n=50 v=86
51363 On ch=3 n=57 v=74
51366 On ch=3 n=62 v=76
51368 On ch=3 n=66 v=67
51478 On ch=3 n=57 v=0
51480 On ch=3 n=57 v=93
51482 On ch=3 n=62 v=0
51483 On ch=3 n=66 v=0
51483 On ch=3 n=62 v=94
51487 On ch=3 n=66 v=94
51537 On ch=3 n=66 v=0
51540 On ch=3 n=66 v=59
51598 On ch=3 n=50 v=0
51599 On ch=3 n=62 v=0
51600 On ch=3 n=49 v=81
51603 On ch=3 n=62 v=76
51605 On ch=3 n=66 v=0
51606 On ch=3 n=66 v=60
51659 On ch=3 n=66 v=0
51660 On ch=3 n=66 v=81
51719 On ch=3 n=62 v=0
51719 On ch=3 n=57 v=0
51720 On ch=3 n=66 v=0
51720 On ch=3 n=57 v=71
51721 On ch=3 n=62 v=90
51723 On ch=3 n=66 v=81
51779 On ch=3 n=66 v=0
51780 On ch=3 n=66 v=59
51837 On ch=3 n=62 v=0
51838 On ch=3 n=49 v=0
51839 On ch=3 n=57 v=0
51840 On ch=3 n=66 v=0
51840 On ch=3 n=47 v=86
51843 On ch=3 n=62 v=76
51843 On ch=3 n=57 v=74
51844 On ch=3 n=66 v=67
51958 On ch=3 n=57 v=0
51959 On ch=3 n=66 v=0
51959 On ch=3 n=62 v=0
51960 On ch=3 n=57 v=93
51963 On ch=3 n=62 v=94
51967 On ch=3 n=66 v=94
52017 On ch=3 n=66 v=0
52020 On ch=3 n=66 v=59
52079 On ch=3 n=62 v=0
52083 On ch=3 n=62 v=76
52085 On ch=3 n=66 v=0
52087 On ch=3 n=66 v=60
52199 On ch=3 n=66 v=0
52199 On ch=3 n=62 v=0
52201 On ch=3 n=62 v=90
52203 On ch=3 n=66 v=81
52259 On ch=3 n=66 v=0
52260 On ch=3 n=66 v=59
52313 On ch=3 n=57 v=0
52315 On ch=3 n=47 v=0
52317 On ch=3 n=62 v=0
52320 On ch=3 n=66 v=0
52321 On ch=3 n=47 v=63
52323 On ch=3 n=52 v=74
52323 On ch=3 n=56 v=76
52326 On ch=3 n=59 v=67
52328 On ch=3 n=64 v=61
52438 On ch=3 n=52 v=0
52439 On ch=3 n=56 v=0
52440 On ch=3 n=52 v=90
52441 On ch=3 n=59 v=0
52443 On ch=3 n=56 v=90
52444 On ch=3 n=64 v=0
52447 On ch=3 n=59 v=90
52451 On ch=3 n=64 v=99
52497 On ch=3 n=59 v=0
52498 On ch=3 n=64 v=0
52500 On ch=3 n=64 v=81
52500 On ch=3 n=59 v=59
52559 On ch=3 n=56 v=0
52563 On ch=3 n=56 v=76
52565 On ch=3 n=59 v=0
52567 On ch=3 n=59 v=60
52568 On ch=3 n=64 v=0
52571 On ch=3 n=64 v=66
52618 On ch=3 n=64 v=0
52620 On ch=3 n=64 v=67
52673 On ch=3 n=47 v=0
52675 On ch=3 n=52 v=0
52675 On ch=3 n=47 v=59
52679 On ch=3 n=56 v=0
52680 On ch=3 n=52 v=90
52683 On ch=3 n=56 v=90
52687 On ch=3 n=64 v=0
52691 On ch=3 n=64 v=99
52734 On ch=3 n=59 v=0
52738 On ch=3 n=64 v=0
52740 On ch=3 n=64 v=81
52740 On ch=3 n=59 v=59
52852 On ch=3 n=64 v=0
52855 On ch=3 n=59 v=0
52855 On ch=3 n=64 v=71
52856 On ch=3 n=56 v=0
52857 On ch=3 n=59 v=69
52860 On ch=3 n=56 v=76
52917 On ch=3 n=52 v=0
52918 On ch=3 n=56 v=0
52921 On ch=3 n=52 v=90
52922 On ch=3 n=59 v=0
52923 On ch=3 n=64 v=0
52923 On ch=3 n=56 v=90
52925 On ch=3 n=59 v=90
52926 On ch=3 n=64 v=99
52977 On ch=3 n=64 v=0
52980 On ch=3 n=64 v=81
53038 On ch=3 n=52 v=0
53038 On ch=3 n=47 v=0
53039 On ch=3 n=56 v=0
53040 On ch=3 n=47 v=59
53041 On ch=3 n=52 v=83
53043 On ch=3 n=56 v=86
53160 On ch=3 n=56 v=0
53163 On ch=3 n=59 v=0
53163 On ch=3 n=56 v=90
53165 On ch=3 n=64 v=0
53167 On ch=3 n=59 v=90
53171 On ch=3 n=64 v=99
53217 On ch=3 n=59 v=0
53218 On ch=3 n=64 v=0
53275 On ch=3 n=47 v=0
53278 On ch=3 n=52 v=0
53279 On ch=3 n=56 v=0
53280 On ch=3 n=45 v=86
53283 On ch=3 n=52 v=74
53286 On ch=3 n=57 v=76
53288 On ch=3 n=61 v=67
53398 On ch=3 n=52 v=0
53400 On ch=3 n=52 v=93
53402 On ch=3 n=57 v=0
53403 On ch=3 n=61 v=0
53403 On ch=3 n=57 v=94
53407 On ch=3 n=61 v=94
53411 On ch=3 n=64 v=99
53457 On ch=3 n=61 v=0
53458 On ch=3 n=64 v=0
53460 On ch=3 n=64 v=81
53460 On ch=3 n=61 v=59
53519 On ch=3 n=57 v=0
53523 On ch=3 n=57 v=76
53525 On ch=3 n=61 v=0
53527 On ch=3 n=61 v=60
53575 On ch=3 n=64 v=0
53580 On ch=3 n=64 v=67
53639 On ch=3 n=57 v=0
53639 On ch=3 n=61 v=0
53643 On ch=3 n=64 v=0
53643 On ch=3 n=61 v=81
53643 On ch=3 n=57 v=90
53646 On ch=3 n=64 v=99
53693 On ch=3 n=64 v=0
53700 On ch=3 n=64 v=81
53700 On ch=3 n=61 v=59
53703 On ch=3 n=61 v=0
53753 On ch=3 n=52 v=0
53755 On ch=3 n=61 v=0
53759 On ch=3 n=57 v=0
53760 On ch=3 n=64 v=0
53760 On ch=3 n=45 v=0
53760 On ch=3 n=42 v=93
53763 On ch=3 n=54 v=74
53766 On ch=3 n=57 v=76
53768 On ch=3 n=61 v=66
53878 On ch=3 n=54 v=0
53880 On ch=3 n=61 v=0
53881 On ch=3 n=54 v=90
53882 On ch=3 n=57 v=0
53882 On ch=3 n=57 v=91
53883 On ch=3 n=61 v=92
53885 On ch=3 n=66 v=99
53936 On ch=3 n=66 v=0
53938 On ch=3 n=61 v=0
53940 On ch=3 n=66 v=81
53940 On ch=3 n=61 v=59
54005 On ch=3 n=61 v=0
54007 On ch=3 n=61 v=60
54008 On ch=3 n=66 v=0
54011 On ch=3 n=66 v=66
54058 On ch=3 n=66 v=0
54060 On ch=3 n=66 v=65
54116 On ch=3 n=54 v=0
54117 On ch=3 n=57 v=0
54119 On ch=3 n=61 v=0
54120 On ch=3 n=54 v=85
54122 On ch=3 n=57 v=87
54123 On ch=3 n=66 v=0
54123 On ch=3 n=61 v=92
54125 On ch=3 n=66 v=87
54172 On ch=3 n=66 v=0
54179 On ch=3 n=61 v=0
54180 On ch=3 n=66 v=81
54180 On ch=3 n=61 v=59
54238 On ch=3 n=57 v=0
54240 On ch=3 n=66 v=0
54240 On ch=3 n=42 v=0
54240 On ch=3 n=54 v=0
54240 On ch=3 n=61 v=0
54240 On ch=3 n=45 v=86
54243 On ch=3 n=52 v=74
54246 On ch=3 n=57 v=76
54248 On ch=3 n=61 v=67
54358 On ch=3 n=52 v=0
54360 On ch=3 n=52 v=93
54362 On ch=3 n=57 v=0
54363 On ch=3 n=61 v=0
54363 On ch=3 n=57 v=94
54367 On ch=3 n=61 v=94
54371 On ch=3 n=64 v=99
54417 On ch=3 n=61 v=0
54418 On ch=3 n=64 v=0
54420 On ch=3 n=64 v=81
54420 On ch=3 n=61 v=59
54479 On ch=3 n=57 v=0
54483 On ch=3 n=57 v=76
54485 On ch=3 n=61 v=0
54487 On ch=3 n=61 v=60
54535 On ch=3 n=64 v=0
54540 On ch=3 n=64 v=67
54599 On ch=3 n=57 v=0
54602 On ch=3 n=64 v=0
54603 On ch=3 n=57 v=90
54605 On ch=3 n=64 v=99
54652 On ch=3 n=64 v=0
54654 On ch=3 n=61 v=0
54660 On ch=3 n=64 v=81
54660 On ch=3 n=61 v=59
54713 On ch=3 n=52 v=0
54719 On ch=3 n=57 v=0
54720 On ch=3 n=64 v=0
54720 On ch=3 n=45 v=0
54720 On ch=3 n=61 v=0
54720 On ch=3 n=42 v=93
54723 On ch=3 n=54 v=74
54726 On ch=3 n=57 v=76
54728 On ch=3 n=61 v=66
54838 On ch=3 n=54 v=0
54840 On ch=3 n=61 v=0
54841 On ch=3 n=54 v=90
54842 On ch=3 n=57 v=0
54842 On ch=3 n=57 v=91
54843 On ch=3 n=61 v=92
54845 On ch=3 n=66 v=99
54896 On ch=3 n=66 v=0
54898 On ch=3 n=61 v=0
54900 On ch=3 n=66 v=81
54900 On ch=3 n=61 v=59
54965 On ch=3 n=61 v=0
54967 On ch=3 n=61 v=60
54968 On ch=3 n=66 v=0
54971 On ch=3 n=66 v=66
55018 On ch=3 n=66 v=0
55020 On ch=3 n=66 v=65
55076 On ch=3 n=54 v=0
55077 On ch=3 n=57 v=0
55080 On ch=3 n=54 v=85
55083 On ch=3 n=66 v=0
55083 On ch=3 n=57 v=87
55085 On ch=3 n=66 v=86
55132 On ch=3 n=66 v=0
55134 On ch=3 n=61 v=0
55140 On ch=3 n=66 v=81
55140 On ch=3 n=61 v=59
55199 On ch=3 n=57 v=0
55200 On ch=3 n=66 v=0
55200 On ch=3 n=54 v=0
55200 On ch=3 n=42 v=0
55200 On ch=3 n=61 v=0
55200 On ch=3 n=50 v=86
55203 On ch=3 n=57 v=74
55206 On ch=3 n=62 v=76
55208 On ch=3 n=66 v=67
55318 On ch=3 n=57 v=0
55320 On ch=3 n=57 v=93
55322 On ch=3 n=62 v=0
55323 On ch=3 n=66 v=0
55323 On ch=3 n=62 v=94
55327 On ch=3 n=66 v=94
55377 On ch=3 n=66 v=0
55380 On ch=3 n=66 v=59
55438 On ch=3 n=50 v=0
55439 On ch=3 n=62 v=0
55440 On ch=3 n=49 v=81
55443 On ch=3 n=62 v=76
55445 On ch=3 n=66 v=0
55446 On ch=3 n=66 v=60
55499 On ch=3 n=66 v=0
55500 On ch=3 n=66 v=81
55559 On ch=3 n=62 v=0
55559 On ch=3 n=57 v=0
55560 On ch=3 n=66 v=0
55560 On ch=3 n=57 v=71
55561 On ch=3 n=62 v=90
55563 On ch=3 n=66 v=81
55619 On ch=3 n=66 v=0
55620 On ch=3 n=66 v=59
55677 On ch=3 n=62 v=0
55678 On ch=3 n=49 v=0
55679 On ch=3 n=57 v=0
55680 On ch=3 n=66 v=0
55680 On ch=3 n=50 v=86
55683 On ch=3 n=62 v=76
55683 On ch=3 n=57 v=74
55684 On ch=3 n=66 v=67
55798 On ch=3 n=57 v=0
55799 On ch=3 n=66 v=0
55799 On ch=3 n=62 v=0
55800 On ch=3 n=57 v=93
55803 On ch=3 n=62 v=94
55807 On ch=3 n=66 v=94
55857 On ch=3 n=66 v=0
55860 On ch=3 n=66 v=59
55919 On ch=3 n=62 v=0
55923 On ch=3 n=62 v=76
55925 On ch=3 n=66 v=0
55927 On ch=3 n=66 v=60
56039 On ch=3 n=66 v=0
56039 On ch=3 n=62 v=0
56041 On ch=3 n=62 v=90
56043 On ch=3 n=66 v=81
56099 On ch=3 n=66 v=0
56100 On ch=3 n=66 v=59
56153 On ch=3 n=57 v=0
56155 On ch=3 n=50 v=0
56157 On ch=3 n=62 v=0
56160 On ch=3 n=66 v=0
56161 On ch=3 n=47 v=63
56163 On ch=3 n=54 v=74
56163 On ch=3 n=59 v=76
56166 On ch=3 n=62 v=67
56168 On ch=3 n=66 v=61
56278 On ch=3 n=54 v=0
56279 On ch=3 n=59 v=0
56280 On ch=3 n=54 v=90
56281 On ch=3 n=62 v=0
56283 On ch=3 n=59 v=90
56284 On ch=3 n=66 v=0
56287 On ch=3 n=62 v=90
56291 On ch=3 n=66 v=99
56337 On ch=3 n=62 v=0
56338 On ch=3 n=66 v=0
56340 On ch=3 n=66 v=81
56340 On ch=3 n=62 v=59
56399 On ch=3 n=59 v=0
56403 On ch=3 n=59 v=76
56405 On ch=3 n=62 v=0
56407 On ch=3 n=62 v=60
56408 On ch=3 n=66 v=0
56411 On ch=3 n=66 v=66
56458 On ch=3 n=66 v=0
56460 On ch=3 n=66 v=67
56513 On ch=3 n=47 v=0
56515 On ch=3 n=54 v=0
56515 On ch=3 n=47 v=59
56519 On ch=3 n=59 v=0
56520 On ch=3 n=54 v=90
56523 On ch=3 n=59 v=90
56527 On ch=3 n=66 v=0
56531 On ch=3 n=66 v=99
56574 On ch=3 n=62 v=0
56578 On ch=3 n=66 v=0
56580 On ch=3 n=66 v=81
56580 On ch=3 n=62 v=59
56692 On ch=3 n=66 v=0
56695 On ch=3 n=62 v=0
56695 On ch=3 n=66 v=71
56696 On ch=3 n=59 v=0
56697 On ch=3 n=62 v=69
56700 On ch=3 n=59 v=76
56757 On ch=3 n=54 v=0
56758 On ch=3 n=59 v=0
56761 On ch=3 n=54 v=90
56762 On ch=3 n=62 v=0
56763 On ch=3 n=66 v=0
56763 On ch=3 n=59 v=90
56765 On ch=3 n=62 v=90
56766 On ch=3 n=66 v=99
56817 On ch=3 n=66 v=0
56820 On ch=3 n=66 v=81
56878 On ch=3 n=54 v=0
56878 On ch=3 n=47 v=0
56879 On ch=3 n=59 v=0
56880 On ch=3 n=47 v=59
56881 On ch=3 n=54 v=83
56883 On ch=3 n=59 v=86
57000 On ch=3 n=59 v=0
57003 On ch=3 n=62 v=0
57003 On ch=3 n=59 v=90
57005 On ch=3 n=66 v=0
57007 On ch=3 n=62 v=90
57011 On ch=3 n=66 v=99
57057 On ch=3 n=62 v=0
57058 On ch=3 n=66 v=0
57115 On ch=3 n=47 v=0
57118 On ch=3 n=54 v=0
57119 On ch=3 n=59 v=0
57120 On ch=3 n=42 v=61
57121 On ch=3 n=49 v=41
57123 On ch=3 n=54 v=52
57126 On ch=3 n=58 v=54
57128 On ch=3 n=61 v=45
57131 On ch=3 n=66 v=39
57238 On ch=3 n=54 v=0
57240 On ch=3 n=54 v=68
57242 On ch=3 n=58 v=0
57243 On ch=3 n=61 v=0
57243 On ch=3 n=58 v=68
57247 On ch=3 n=66 v=0
57247 On ch=3 n=61 v=68
57251 On ch=3 n=66 v=77
57297 On ch=3 n=61 v=0
57298 On ch=3 n=66 v=0
57300 On ch=3 n=66 v=59
57300 On ch=3 n=61 v=37
57359 On ch=3 n=58 v=0
57363 On ch=3 n=58 v=54
57365 On ch=3 n=61 v=0
57367 On ch=3 n=61 v=38
57368 On ch=3 n=66 v=0
57371 On ch=3 n=66 v=44
57418 On ch=3 n=66 v=0
57420 On ch=3 n=66 v=45
57473 On ch=3 n=49 v=0
57475 On ch=3 n=54 v=0
57475 On ch=3 n=49 v=37
57479 On ch=3 n=58 v=0
57480 On ch=3 n=54 v=68
57483 On ch=3 n=58 v=68
57487 On ch=3 n=66 v=0
57491 On ch=3 n=66 v=77
57534 On ch=3 n=61 v=0
57538 On ch=3 n=66 v=0
57540 On ch=3 n=66 v=59
57540 On ch=3 n=61 v=37
57652 On ch=3 n=66 v=0
57655 On ch=3 n=61 v=0
57655 On ch=3 n=66 v=49
57656 On ch=3 n=58 v=0
57657 On ch=3 n=61 v=47
57660 On ch=3 n=58 v=54
57717 On ch=3 n=42 v=0
57717 On ch=3 n=54 v=0
57718 On ch=3 n=58 v=0
57720 On ch=3 n=42 v=49
57721 On ch=3 n=54 v=68
57722 On ch=3 n=61 v=0
57723 On ch=3 n=66 v=0
57723 On ch=3 n=58 v=68
57725 On ch=3 n=61 v=68
57726 On ch=3 n=66 v=77
57777 On ch=3 n=66 v=0
57780 On ch=3 n=66 v=59
57838 On ch=3 n=49 v=0
57838 On ch=3 n=54 v=0
57839 On ch=3 n=58 v=0
57840 On ch=3 n=49 v=37
57841 On ch=3 n=54 v=61
57843 On ch=3 n=58 v=64
57960 On ch=3 n=58 v=0
57963 On ch=3 n=61 v=0
57963 On ch=3 n=58 v=68
57965 On ch=3 n=66 v=0
57967 On ch=3 n=61 v=68
57971 On ch=3 n=66 v=77
58017 On ch=3 n=61 v=0
58018 On ch=3 n=66 v=0
58020 On ch=3 n=66 v=59
58020 On ch=3 n=61 v=37
58075 On ch=3 n=49 v=0
58078 On ch=3 n=66 v=0
58078 On ch=3 n=54 v=0
58079 On ch=3 n=42 v=0
58079 On ch=3 n=58 v=0
58080 On ch=3 n=61 v=0
58080 On ch=3 n=42 v=61
58081 On ch=3 n=49 v=41
58083 On ch=3 n=54 v=52
58086 On ch=3 n=58 v=54
58088 On ch=3 n=61 v=45
58091 On ch=3 n=66 v=39
58198 On ch=3 n=54 v=0
58200 On ch=3 n=54 v=68
58202 On ch=3 n=58 v=0
58203 On ch=3 n=61 v=0
58203 On ch=3 n=58 v=68
58207 On ch=3 n=66 v=0
58207 On ch=3 n=61 v=68
58211 On ch=3 n=66 v=77
58257 On ch=3 n=61 v=0
58258 On ch=3 n=66 v=0
58260 On ch=3 n=66 v=59
58260 On ch=3 n=61 v=37
58319 On ch=3 n=58 v=0
58323 On ch=3 n=58 v=54
58325 On ch=3 n=61 v=0
58327 On ch=3 n=61 v=38
58328 On ch=3 n=66 v=0
58331 On ch=3 n=66 v=44
58378 On ch=3 n=66 v=0
58380 On ch=3 n=66 v=45
58433 On ch=3 n=49 v=0
58435 On ch=3 n=54 v=0
58435 On ch=3 n=49 v=37
58439 On ch=3 n=58 v=0
58440 On ch=3 n=54 v=68
58443 On ch=3 n=58 v=68
58447 On ch=3 n=66 v=0
58451 On ch=3 n=66 v=77
58494 On ch=3 n=61 v=0
58498 On ch=3 n=66 v=0
58500 On ch=3 n=66 v=59
58500 On ch=3 n=61 v=37
58612 On ch=3 n=66 v=0
58615 On ch=3 n=61 v=0
58615 On ch=3 n=66 v=49
58616 On ch=3 n=58 v=0
58617 On ch=3 n=61 v=47
58620 On ch=3 n=58 v=54
58677 On ch=3 n=42 v=0
58677 On ch=3 n=54 v=0
58678 On ch=3 n=58 v=0
58680 On ch=3 n=42 v=49
58681 On ch=3 n=54 v=68
58682 On ch=3 n=61 v=0
58683 On ch=3 n=66 v=0
58683 On ch=3 n=58 v=68
58685 On ch=3 n=61 v=68
58686 On ch=3 n=66 v=77
58737 On ch=3 n=66 v=0
58740 On ch=3 n=66 v=59
58798 On ch=3 n=49 v=0
58798 On ch=3 n=54 v=0
58799 On ch=3 n=58 v=0
58800 On ch=3 n=49 v=37
58801 On ch=3 n=54 v=61
58803 On ch=3 n=58 v=64
58920 On ch=3 n=58 v=0
58923 On ch=3 n=61 v=0
58923 On ch=3 n=58 v=68
58925 On ch=3 n=66 v=0
58927 On ch=3 n=61 v=68
58931 On ch=3 n=66 v=77
58977 On ch=3 n=61 v=0
58978 On ch=3 n=66 v=0
58980 On ch=3 n=66 v=59
58980 On ch=3 n=61 v=37
59035 On ch=3 n=49 v=0
59038 On ch=3 n=66 v=0
59038 On ch=3 n=54 v=0
59039 On ch=3 n=42 v=0
59039 On ch=3 n=58 v=0
59040 On ch=3 n=61 v=0
59040 On ch=3 n=42 v=61
59041 On ch=3 n=49 v=41
59043 On ch=3 n=54 v=52
59046 On ch=3 n=58 v=54
59048 On ch=3 n=61 v=45
59051 On ch=3 n=66 v=39
59158 On ch=3 n=54 v=0
59160 On ch=3 n=54 v=68
59162 On ch=3 n=58 v=0
59163 On ch=3 n=61 v=0
59163 On ch=3 n=58 v=68
59167 On ch=3 n=66 v=0
59167 On ch=3 n=61 v=68
59171 On ch=3 n=66 v=77
59217 On ch=3 n=61 v=0
59218 On ch=3 n=66 v=0
59220 On ch=3 n=66 v=59
59220 On ch=3 n=61 v=37
59279 On ch=3 n=58 v=0
59283 On ch=3 n=58 v=54
59285 On ch=3 n=61 v=0
59287 On ch=3 n=61 v=38
59288 On ch=3 n=66 v=0
59291 On ch=3 n=66 v=44
59338 On ch=3 n=66 v=0
59340 On ch=3 n=66 v=45
59393 On ch=3 n=49 v=0
59395 On ch=3 n=54 v=0
59395 On ch=3 n=49 v=37
59399 On ch=3 n=58 v=0
59400 On ch=3 n=54 v=68
59403 On ch=3 n=58 v=68
59407 On ch=3 n=66 v=0
59411 On ch=3 n=66 v=77
59454 On ch=3 n=61 v=0
59458 On ch=3 n=66 v=0
59460 On ch=3 n=66 v=59
59460 On ch=3 n=61 v=37
59572 On ch=3 n=66 v=0
59575 On ch=3 n=61 v=0
59575 On ch=3 n=66 v=49
59576 On ch=3 n=58 v=0
59577 On ch=3 n=61 v=47
59580 On ch=3 n=58 v=54
59637 On ch=3 n=42 v=0
59637 On ch=3 n=54 v=0
59638 On ch=3 n=58 v=0
59640 On ch=3 n=42 v=49
59641 On ch=3 n=54 v=68
59642 On ch=3 n=61 v=0
59643 On ch=3 n=66 v=0
59643 On ch=3 n=58 v=68
59645 On ch=3 n=61 v=68
59646 On ch=3 n=66 v=77
59697 On ch=3 n=66 v=0
59700 On ch=3 n=66 v=59
59758 On ch=3 n=49 v=0
59758 On ch=3 n=54 v=0
59759 On ch=3 n=58 v=0
59760 On ch=3 n=49 v=37
59761 On ch=3 n=54 v=61
59763 On ch=3 n=58 v=64
59880 On ch=3 n=58 v=0
59883 On ch=3 n=61 v=0
59883 On ch=3 n=58 v=68
59885 On ch=3 n=66 v=0
59887 On ch=3 n=61 v=68
59891 On ch=3 n=66 v=77
59937 On ch=3 n=61 v=0
59938 On ch=3 n=66 v=0
59940 On ch=3 n=66 v=59
59940 On ch=3 n=61 v=37
59995 On ch=3 n=49 v=0
59998 On ch=3 n=66 v=0
59998 On ch=3 n=54 v=0
59999 On ch=3 n=42 v=0
59999 On ch=3 n=58 v=0
60000 On ch=3 n=61 v=0
60000 On ch=3 n=42 v=61
60001 On ch=3 n=49 v=41
60003 On ch=3 n=54 v=52
60006 On ch=3 n=58 v=54
60008 On ch=3 n=61 v=45
60011 On ch=3 n=66 v=39
60118 On ch=3 n=54 v=0
60120 On ch=3 n=54 v=68
60122 On ch=3 n=58 v=0
60123 On ch=3 n=61 v=0
60123 On ch=3 n=58 v=68
60127 On ch=3 n=66 v=0
60127 On ch=3 n=61 v=68
60131 On ch=3 n=66 v=77
60177 On ch=3 n=61 v=0
60178 On ch=3 n=66 v=0
60180 On ch=3 n=66 v=59
60180 On ch=3 n=61 v=37
60239 On ch=3 n=58 v=0
60243 On ch=3 n=58 v=54
60245 On ch=3 n=61 v=0
60247 On ch=3 n=61 v=38
60248 On ch=3 n=66 v=0
60251 On ch=3 n=66 v=44
60298 On ch=3 n=66 v=0
60300 On ch=3 n=66 v=45
60353 On ch=3 n=49 v=0
60355 On ch=3 n=54 v=0
60355 On ch=3 n=49 v=37
60359 On ch=3 n=58 v=0
60360 On ch=3 n=54 v=68
60363 On ch=3 n=58 v=68
60367 On ch=3 n=66 v=0
60371 On ch=3 n=66 v=77
60414 On ch=3 n=61 v=0
60418 On ch=3 n=66 v=0
60420 On ch=3 n=66 v=59
60420 On ch=3 n=61 v=37
60532 On ch=3 n=66 v=0
60535 On ch=3 n=61 v=0
60535 On ch=3 n=66 v=49
60536 On ch=3 n=58 v=0
60537 On ch=3 n=61 v=47
60540 On ch=3 n=58 v=54
60597 On ch=3 n=42 v=0
60597 On ch=3 n=54 v=0
60598 On ch=3 n=58 v=0
60600 On ch=3 n=42 v=49
60601 On ch=3 n=54 v=68
60602 On ch=3 n=61 v=0
60603 On ch=3 n=66 v=0
60603 On ch=3 n=58 v=68
60605 On ch=3 n=61 v=68
60606 On ch=3 n=66 v=77
60657 On ch=3 n=66 v=0
60660 On ch=3 n=66 v=59
60718 On ch=3 n=49 v=0
60718 On ch=3 n=54 v=0
60719 On ch=3 n=58 v=0
60720 On ch=3 n=49 v=37
60721 On ch=3 n=54 v=61
60723 On ch=3 n=58 v=64
60840 On ch=3 n=58 v=0
60843 On ch=3 n=61 v=0
60843 On ch=3 n=58 v=68
60845 On ch=3 n=66 v=0
60847 On ch=3 n=61 v=68
60851 On ch=3 n=66 v=77
60897 On ch=3 n=61 v=0
60898 On ch=3 n=66 v=0
60900 On ch=3 n=66 v=59
60900 On ch=3 n=61 v=37
60955 On ch=3 n=49 v=0
60958 On ch=3 n=66 v=0
60958 On ch=3 n=54 v=0
60959 On ch=3 n=42 v=0
60959 On ch=3 n=58 v=0
60960 On ch=3 n=61 v=0
60960 On ch=3 n=42 v=61
60961 On ch=3 n=49 v=41
60963 On ch=3 n=54 v=52
60966 On ch=3 n=58 v=54
60968 On ch=3 n=61 v=45
60971 On ch=3 n=66 v=39
61078 On ch=3 n=54 v=0
61080 On ch=3 n=54 v=68
61082 On ch=3 n=58 v=0
61083 On ch=3 n=61 v=0
61083 On ch=3 n=58 v=68
61087 On ch=3 n=66 v=0
61087 On ch=3 n=61 v=68
61091 On ch=3 n=66 v=77
61137 On ch=3 n=61 v=0
61138 On ch=3 n=66 v=0
61140 On ch=3 n=66 v=59
61140 On ch=3 n=61 v=37
61199 On ch=3 n=58 v=0
61203 On ch=3 n=58 v=54
61205 On ch=3 n=61 v=0
61207 On ch=3 n=61 v=38
61208 On ch=3 n=66 v=0
61211 On ch=3 n=66 v=44
61258 On ch=3 n=66 v=0
61260 On ch=3 n=66 v=45
61313 On ch=3 n=49 v=0
61315 On ch=3 n=54 v=0
61315 On ch=3 n=49 v=37
61319 On ch=3 n=58 v=0
61320 On ch=3 n=54 v=68
61323 On ch=3 n=58 v=68
61327 On ch=3 n=66 v=0
61331 On ch=3 n=66 v=77
61374 On ch=3 n=61 v=0
61378 On ch=3 n=66 v=0
61380 On ch=3 n=66 v=59
61380 On ch=3 n=61 v=37
61409 On ch=3 n=58 v=0
61410 On ch=3 n=42 v=0
61410 On ch=3 n=54 v=0
61427 On ch=3 n=66 v=0
61440 On ch=3 n=61 v=0
61440 On ch=3 n=49 v=0
61440 On ch=3 n=63 v=63
61440 On ch=3 n=47 v=54
61440 On ch=3 n=59 v=63
61440 On ch=3 n=54 v=63
61445 On ch=3 n=66 v=62
61496 On ch=3 n=66 v=0
61498 On ch=3 n=66 v=64
61555 On ch=3 n=63 v=0
61556 On ch=3 n=59 v=0
61557 On ch=3 n=54 v=0
61561 On ch=3 n=63 v=73
61561 On ch=3 n=54 v=73
61563 On ch=3 n=59 v=73
61564 On ch=3 n=66 v=0
61566 On ch=3 n=66 v=82
61617 On ch=3 n=66 v=0
61620 On ch=3 n=66 v=64
61676 On ch=3 n=63 v=0
61678 On ch=3 n=54 v=0
61679 On ch=3 n=59 v=0
61680 On ch=3 n=59 v=69
61680 On ch=3 n=54 v=66
61682 On ch=3 n=63 v=69
61686 On ch=3 n=66 v=0
61688 On ch=3 n=66 v=61
61797 On ch=3 n=59 v=0
61800 On ch=3 n=63 v=0
61800 On ch=3 n=59 v=73
61803 On ch=3 n=63 v=73
61808 On ch=3 n=66 v=0
61811 On ch=3 n=66 v=82
61853 On ch=3 n=63 v=0
61856 On ch=3 n=63 v=42
61858 On ch=3 n=66 v=0
61860 On ch=3 n=66 v=64
61908 On ch=3 n=47 v=0
61916 On ch=3 n=63 v=0
61916 On ch=3 n=59 v=0
61917 On ch=3 n=54 v=0
61918 On ch=3 n=66 v=0
61920 On ch=3 n=47 v=66
61922 On ch=3 n=59 v=59
61923 On ch=3 n=54 v=57
61925 On ch=3 n=63 v=50
61931 On ch=3 n=66 v=44
62038 On ch=3 n=54 v=0
62038 On ch=3 n=59 v=0
62040 On ch=3 n=63 v=0
62040 On ch=3 n=59 v=73
62040 On ch=3 n=54 v=73
62043 On ch=3 n=63 v=73
62047 On ch=3 n=66 v=0
62051 On ch=3 n=66 v=82
62093 On ch=3 n=63 v=0
62096 On ch=3 n=63 v=42
62098 On ch=3 n=66 v=0
62100 On ch=3 n=66 v=64
62156 On ch=3 n=59 v=0
62160 On ch=3 n=59 v=59
62161 On ch=3 n=63 v=0
62163 On ch=3 n=63 v=43
62168 On ch=3 n=66 v=0
62171 On ch=3 n=66 v=49
62218 On ch=3 n=66 v=0
62220 On ch=3 n=66 v=50
62275 On ch=3 n=54 v=0
62276 On ch=3 n=59 v=0
62280 On ch=3 n=57 v=43
62280 On ch=3 n=54 v=73
62287 On ch=3 n=66 v=0
62291 On ch=3 n=66 v=82
62330 On ch=3 n=63 v=0
62336 On ch=3 n=63 v=42
62338 On ch=3 n=66 v=0
62340 On ch=3 n=66 v=64
62451 On ch=3 n=63 v=0
62452 On ch=3 n=66 v=0
62453 On ch=3 n=57 v=0
62453 On ch=3 n=63 v=52
62455 On ch=3 n=66 v=54
62456 On ch=3 n=57 v=59
62514 On ch=3 n=57 v=0
62517 On ch=3 n=47 v=0
62517 On ch=3 n=54 v=0
62518 On ch=3 n=63 v=0
62520 On ch=3 n=57 v=73
62520 On ch=3 n=47 v=54
62521 On ch=3 n=63 v=73
62521 On ch=3 n=54 v=73
62523 On ch=3 n=66 v=0
62526 On ch=3 n=66 v=82
62577 On ch=3 n=66 v=0
62580 On ch=3 n=66 v=64
62636 On ch=3 n=57 v=0
62636 On ch=3 n=63 v=0
62638 On ch=3 n=54 v=0
62640 On ch=3 n=57 v=69
62640 On ch=3 n=54 v=66
62642 On ch=3 n=63 v=69
62646 On ch=3 n=66 v=0
62648 On ch=3 n=66 v=61
62757 On ch=3 n=57 v=0
62760 On ch=3 n=63 v=0
62760 On ch=3 n=57 v=73
62763 On ch=3 n=63 v=73
62768 On ch=3 n=66 v=0
62771 On ch=3 n=66 v=82
62813 On ch=3 n=63 v=0
62818 On ch=3 n=66 v=0
62820 On ch=3 n=63 v=42
62823 On ch=3 n=66 v=64
62926 On ch=3 n=57 v=0
62930 On ch=3 n=47 v=0
62935 On ch=3 n=66 v=0
62935 On ch=3 n=63 v=0
62940 On ch=3 n=47 v=54
62940 On ch=3 n=63 v=52
62941 On ch=3 n=66 v=54
62942 On ch=3 n=57 v=59
62991 On ch=3 n=54 v=0
63000 On ch=3 n=57 v=0
63005 On ch=3 n=63 v=0
63006 On ch=3 n=57 v=73
63007 On ch=3 n=63 v=73
63007 On ch=3 n=54 v=73
63009 On ch=3 n=66 v=0
63012 On ch=3 n=66 v=82
63063 On ch=3 n=66 v=0
63066 On ch=3 n=66 v=64
63122 On ch=3 n=63 v=0
63122 On ch=3 n=57 v=0
63124 On ch=3 n=54 v=0
63126 On ch=3 n=57 v=69
63126 On ch=3 n=54 v=66
63128 On ch=3 n=63 v=69
63132 On ch=3 n=66 v=0
63135 On ch=3 n=66 v=61
63243 On ch=3 n=57 v=0
63246 On ch=3 n=63 v=0
63246 On ch=3 n=57 v=73
63250 On ch=3 n=63 v=73
63255 On ch=3 n=66 v=0
63257 On ch=3 n=66 v=82
63300 On ch=3 n=66 v=52
63301 On ch=3 n=66 v=0
63342 On ch=3 n=66 v=0
63350 On ch=3 n=63 v=0
63350 On ch=3 n=47 v=0
63359 On ch=3 n=54 v=0
63359 On ch=3 n=57 v=0
63360 On ch=3 n=47 v=74
63360 On ch=3 n=52 v=73
63362 On ch=3 n=56 v=63
63363 On ch=3 n=59 v=64
63418 On ch=3 n=64 v=74
63477 On ch=3 n=52 v=0
63478 On ch=3 n=59 v=0
63478 On ch=3 n=56 v=0
63481 On ch=3 n=59 v=83
63481 On ch=3 n=52 v=83
63483 On ch=3 n=56 v=83
63484 On ch=3 n=64 v=0
63486 On ch=3 n=64 v=92
63537 On ch=3 n=64 v=0
63540 On ch=3 n=64 v=74
63596 On ch=3 n=59 v=0
63598 On ch=3 n=52 v=0
63599 On ch=3 n=56 v=0
63600 On ch=3 n=56 v=79
63600 On ch=3 n=52 v=76
63602 On ch=3 n=59 v=79
63604 On ch=3 n=64 v=0
63608 On ch=3 n=64 v=71
63717 On ch=3 n=56 v=0
63720 On ch=3 n=59 v=0
63720 On ch=3 n=56 v=83
63723 On ch=3 n=59 v=83
63726 On ch=3 n=64 v=52
63728 On ch=3 n=64 v=0
63780 On ch=3 n=64 v=64
63828 On ch=3 n=47 v=0
63836 On ch=3 n=56 v=0
63837 On ch=3 n=52 v=0
63838 On ch=3 n=64 v=0
63840 On ch=3 n=57 v=71
63840 On ch=3 n=61 v=63
63840 On ch=3 n=45 v=83
63840 On ch=3 n=52 v=73
63841 On ch=3 n=59 v=0
63843 On ch=3 n=64 v=0
63845 On ch=3 n=64 v=62
63896 On ch=3 n=64 v=0
63898 On ch=3 n=64 v=74
63955 On ch=3 n=61 v=0
63956 On ch=3 n=57 v=0
63957 On ch=3 n=52 v=0
63961 On ch=3 n=61 v=83
63961 On ch=3 n=52 v=83
63963 On ch=3 n=57 v=83
63964 On ch=3 n=64 v=0
63966 On ch=3 n=64 v=92
64017 On ch=3 n=64 v=0
64020 On ch=3 n=64 v=74
64076 On ch=3 n=61 v=0
64078 On ch=3 n=52 v=0
64079 On ch=3 n=57 v=0
64080 On ch=3 n=64 v=71
64080 On ch=3 n=57 v=79
64080 On ch=3 n=52 v=76
64082 On ch=3 n=61 v=79
64086 On ch=3 n=64 v=0
64140 On ch=3 n=64 v=0
64197 On ch=3 n=57 v=0
64200 On ch=3 n=61 v=0
64200 On ch=3 n=57 v=83
64203 On ch=3 n=61 v=83
64211 On ch=3 n=64 v=92
64253 On ch=3 n=61 v=0
64256 On ch=3 n=61 v=52
64258 On ch=3 n=64 v=0
64260 On ch=3 n=64 v=74
64308 On ch=3 n=45 v=0
64316 On ch=3 n=61 v=0
64316 On ch=3 n=57 v=0
64317 On ch=3 n=52 v=0
64318 On ch=3 n=64 v=0
64318 On ch=3 n=50 v=93
64320 On ch=3 n=62 v=71
64320 On ch=3 n=54 v=63
64320 On ch=3 n=57 v=73
64325 On ch=3 n=69 v=62
64376 On ch=3 n=69 v=0
64378 On ch=3 n=69 v=74
64435 On ch=3 n=54 v=0
64436 On ch=3 n=62 v=0
64437 On ch=3 n=57 v=0
64441 On ch=3 n=54 v=83
64441 On ch=3 n=57 v=83
64443 On ch=3 n=62 v=83
64444 On ch=3 n=69 v=0
64446 On ch=3 n=69 v=92
64497 On ch=3 n=69 v=0
64500 On ch=3 n=69 v=74
64553 On ch=3 n=49 v=94
64556 On ch=3 n=54 v=0
64558 On ch=3 n=57 v=0
64558 On ch=3 n=50 v=0
64559 On ch=3 n=62 v=0
64560 On ch=3 n=69 v=71
64560 On ch=3 n=62 v=59
64560 On ch=3 n=57 v=66
64560 On ch=3 n=52 v=69
64566 On ch=3 n=69 v=0
64620 On ch=3 n=69 v=0
64677 On ch=3 n=62 v=0
64678 On ch=3 n=52 v=0
64680 On ch=3 n=52 v=83
64680 On ch=3 n=62 v=83
64691 On ch=3 n=69 v=92
64730 On ch=3 n=52 v=0
64732 On ch=3 n=52 v=52
64738 On ch=3 n=69 v=0
64740 On ch=3 n=69 v=74
64792 On ch=3 n=52 v=0
64793 On ch=3 n=49 v=0
64796 On ch=3 n=62 v=0
64797 On ch=3 n=57 v=0
64798 On ch=3 n=69 v=0
64800 On ch=3 n=59 v=53
64800 On ch=3 n=62 v=45
64800 On ch=3 n=47 v=65
64800 On ch=3 n=54 v=55
64805 On ch=3 n=66 v=44
64856 On ch=3 n=66 v=0
64858 On ch=3 n=66 v=56
64915 On ch=3 n=62 v=0
64916 On ch=3 n=59 v=0
64917 On ch=3 n=54 v=0
64921 On ch=3 n=62 v=65
64921 On ch=3 n=54 v=65
64923 On ch=3 n=59 v=65
64924 On ch=3 n=66 v=0
64926 On ch=3 n=66 v=74
64977 On ch=3 n=66 v=0
64980 On ch=3 n=66 v=56
65033 On ch=3 n=66 v=0
65036 On ch=3 n=62 v=0
65038 On ch=3 n=54 v=0
65039 On ch=3 n=59 v=0
65040 On ch=3 n=66 v=53
65040 On ch=3 n=59 v=61
65040 On ch=3 n=54 v=58
65042 On ch=3 n=62 v=61
65157 On ch=3 n=59 v=0
65160 On ch=3 n=62 v=0
65160 On ch=3 n=66 v=0
65160 On ch=3 n=59 v=65
65163 On ch=3 n=62 v=65
65171 On ch=3 n=66 v=74
65213 On ch=3 n=62 v=0
65216 On ch=3 n=62 v=44
65218 On ch=3 n=66 v=0
65220 On ch=3 n=66 v=57
65268 On ch=3 n=47 v=0
65276 On ch=3 n=59 v=0
65277 On ch=3 n=54 v=0
65280 On ch=3 n=59 v=53
65280 On ch=3 n=47 v=65
65280 On ch=3 n=54 v=55
65328 On ch=3 n=66 v=0
65338 On ch=3 n=66 v=56
65394 On ch=3 n=62 v=0
65396 On ch=3 n=59 v=0
65397 On ch=3 n=54 v=0
65401 On ch=3 n=62 v=65
65401 On ch=3 n=54 v=65
65403 On ch=3 n=59 v=65
65404 On ch=3 n=66 v=0
65406 On ch=3 n=66 v=74
65457 On ch=3 n=66 v=0
65460 On ch=3 n=66 v=56
65513 On ch=3 n=66 v=0
65516 On ch=3 n=62 v=0
65518 On ch=3 n=54 v=0
65519 On ch=3 n=59 v=0
65520 On ch=3 n=66 v=53
65520 On ch=3 n=59 v=61
65520 On ch=3 n=54 v=58
65522 On ch=3 n=62 v=61
65637 On ch=3 n=59 v=0
65640 On ch=3 n=62 v=0
65640 On ch=3 n=66 v=0
65640 On ch=3 n=59 v=65
65643 On ch=3 n=62 v=65
65651 On ch=3 n=66 v=74
65693 On ch=3 n=62 v=0
65696 On ch=3 n=62 v=34
65698 On ch=3 n=66 v=0
65700 On ch=3 n=66 v=56
65748 On ch=3 n=47 v=0
65756 On ch=3 n=62 v=0
65756 On ch=3 n=59 v=0
65757 On ch=3 n=54 v=0
65758 On ch=3 n=66 v=0
65760 On ch=3 n=42 v=76
65761 On ch=3 n=49 v=56
65763 On ch=3 n=54 v=67
65766 On ch=3 n=58 v=69
65768 On ch=3 n=61 v=60
65771 On ch=3 n=66 v=54
65878 On ch=3 n=54 v=0
65880 On ch=3 n=54 v=83
65882 On ch=3 n=58 v=0
65883 On ch=3 n=61 v=0
65883 On ch=3 n=58 v=83
65887 On ch=3 n=66 v=0
65887 On ch=3 n=61 v=83
65891 On ch=3 n=66 v=92
65937 On ch=3 n=61 v=0
65938 On ch=3 n=66 v=0
65940 On ch=3 n=66 v=74
65940 On ch=3 n=61 v=52
65999 On ch=3 n=58 v=0
66003 On ch=3 n=58 v=69
66005 On ch=3 n=61 v=0
66007 On ch=3 n=61 v=53
66008 On ch=3 n=66 v=0
66011 On ch=3 n=66 v=59
66058 On ch=3 n=66 v=0
66060 On ch=3 n=66 v=60
66113 On ch=3 n=49 v=0
66115 On ch=3 n=54 v=0
66115 On ch=3 n=49 v=52
66119 On ch=3 n=58 v=0
66120 On ch=3 n=54 v=83
66123 On ch=3 n=58 v=83
66127 On ch=3 n=66 v=0
66131 On ch=3 n=66 v=92
66174 On ch=3 n=61 v=0
66178 On ch=3 n=66 v=0
66180 On ch=3 n=66 v=74
66180 On ch=3 n=61 v=52
66292 On ch=3 n=66 v=0
66295 On ch=3 n=61 v=0
66295 On ch=3 n=66 v=64
66296 On ch=3 n=58 v=0
66297 On ch=3 n=61 v=62
66300 On ch=3 n=58 v=69
66357 On ch=3 n=42 v=0
66357 On ch=3 n=54 v=0
66358 On ch=3 n=58 v=0
66360 On ch=3 n=42 v=64
66361 On ch=3 n=54 v=83
66362 On ch=3 n=61 v=0
66363 On ch=3 n=66 v=0
66363 On ch=3 n=58 v=83
66365 On ch=3 n=61 v=83
66366 On ch=3 n=66 v=92
66417 On ch=3 n=66 v=0
66420 On ch=3 n=66 v=74
66478 On ch=3 n=49 v=0
66478 On ch=3 n=54 v=0
66479 On ch=3 n=58 v=0
66480 On ch=3 n=49 v=52
66481 On ch=3 n=54 v=76
66483 On ch=3 n=58 v=79
66600 On ch=3 n=58 v=0
66603 On ch=3 n=61 v=0
66603 On ch=3 n=58 v=83
66605 On ch=3 n=66 v=0
66607 On ch=3 n=61 v=83
66611 On ch=3 n=66 v=92
66657 On ch=3 n=61 v=0
66658 On ch=3 n=66 v=0
66660 On ch=3 n=66 v=74
66660 On ch=3 n=61 v=52
66715 On ch=3 n=49 v=0
66718 On ch=3 n=66 v=0
66718 On ch=3 n=54 v=0
66719 On ch=3 n=42 v=0
66719 On ch=3 n=58 v=0
66720 On ch=3 n=61 v=0
66720 On ch=3 n=40 v=76
66721 On ch=3 n=47 v=56
66723 On ch=3 n=52 v=67
66726 On ch=3 n=56 v=69
66728 On ch=3 n=59 v=60
66731 On ch=3 n=64 v=54
66838 On ch=3 n=52 v=0
66840 On ch=3 n=52 v=83
66842 On ch=3 n=56 v=0
66843 On ch=3 n=59 v=0
66843 On ch=3 n=56 v=83
66847 On ch=3 n=64 v=0
66847 On ch=3 n=59 v=83
66851 On ch=3 n=64 v=92
66897 On ch=3 n=59 v=0
66898 On ch=3 n=64 v=0
66900 On ch=3 n=64 v=74
66900 On ch=3 n=59 v=52
66959 On ch=3 n=56 v=0
66963 On ch=3 n=56 v=69
66965 On ch=3 n=59 v=0
66967 On ch=3 n=59 v=53
66968 On ch=3 n=64 v=0
66971 On ch=3 n=64 v=59
67018 On ch=3 n=64 v=0
67020 On ch=3 n=64 v=60
67073 On ch=3 n=47 v=0
67075 On ch=3 n=52 v=0
67075 On ch=3 n=47 v=52
67079 On ch=3 n=56 v=0
67080 On ch=3 n=52 v=83
67083 On ch=3 n=56 v=83
67087 On ch=3 n=64 v=0
67091 On ch=3 n=64 v=92
67134 On ch=3 n=59 v=0
67138 On ch=3 n=64 v=0
67140 On ch=3 n=64 v=74
67140 On ch=3 n=59 v=52
67252 On ch=3 n=64 v=0
67255 On ch=3 n=59 v=0
67255 On ch=3 n=64 v=64
67256 On ch=3 n=56 v=0
67257 On ch=3 n=59 v=62
67260 On ch=3 n=56 v=69
67317 On ch=3 n=40 v=0
67317 On ch=3 n=52 v=0
67318 On ch=3 n=56 v=0
67320 On ch=3 n=40 v=64
67321 On ch=3 n=52 v=83
67322 On ch=3 n=59 v=0
67323 On ch=3 n=64 v=0
67323 On ch=3 n=56 v=83
67325 On ch=3 n=59 v=83
67326 On ch=3 n=64 v=92
67377 On ch=3 n=64 v=0
67380 On ch=3 n=64 v=74
67438 On ch=3 n=47 v=0
67438 On ch=3 n=52 v=0
67439 On ch=3 n=56 v=0
67440 On ch=3 n=47 v=52
67441 On ch=3 n=52 v=76
67443 On ch=3 n=56 v=79
67560 On ch=3 n=56 v=0
67563 On ch=3 n=59 v=0
67563 On ch=3 n=56 v=83
67565 On ch=3 n=64 v=0
67567 On ch=3 n=59 v=83
67571 On ch=3 n=64 v=92
67617 On ch=3 n=59 v=0
67618 On ch=3 n=64 v=0
67620 On ch=3 n=64 v=74
67620 On ch=3 n=59 v=52
67675 On ch=3 n=47 v=0
67678 On ch=3 n=64 v=0
67678 On ch=3 n=52 v=0
67679 On ch=3 n=40 v=0
67679 On ch=3 n=56 v=0
67680 On ch=3 n=59 v=0
67680 On ch=3 n=45 v=86
67683 On ch=3 n=52 v=74
67686 On ch=3 n=57 v=76
67688 On ch=3 n=61 v=67
67798 On ch=3 n=52 v=0
67800 On ch=3 n=52 v=93
67802 On ch=3 n=57 v=0
67803 On ch=3 n=61 v=0
67803 On ch=3 n=57 v=94
67807 On ch=3 n=61 v=94
67811 On ch=3 n=64 v=99
67857 On ch=3 n=61 v=0
67858 On ch=3 n=64 v=0
67860 On ch=3 n=64 v=81
67860 On ch=3 n=61 v=59
67919 On ch=3 n=57 v=0
67923 On ch=3 n=57 v=76
67925 On ch=3 n=61 v=0
67927 On ch=3 n=61 v=60
67975 On ch=3 n=64 v=0
67980 On ch=3 n=64 v=67
68039 On ch=3 n=57 v=0
68039 On ch=3 n=61 v=0
68043 On ch=3 n=64 v=0
68043 On ch=3 n=61 v=81
68043 On ch=3 n=57 v=90
68046 On ch=3 n=64 v=99
68093 On ch=3 n=64 v=0
68100 On ch=3 n=64 v=81
68100 On ch=3 n=61 v=59
68103 On ch=3 n=61 v=0
68153 On ch=3 n=52 v=0
68155 On ch=3 n=61 v=0
68159 On ch=3 n=57 v=0
68160 On ch=3 n=64 v=0
68160 On ch=3 n=45 v=0
68160 On ch=3 n=42 v=93
68163 On ch=3 n=54 v=74
68166 On ch=3 n=57 v=76
68168 On ch=3 n=61 v=66
68278 On ch=3 n=54 v=0
68280 On ch=3 n=61 v=0
68281 On ch=3 n=54 v=90
68282 On ch=3 n=57 v=0
68282 On ch=3 n=57 v=91
68283 On ch=3 n=61 v=92
68285 On ch=3 n=66 v=99
68336 On ch=3 n=66 v=0
68338 On ch=3 n=61 v=0
68340 On ch=3 n=66 v=81
68340 On ch=3 n=61 v=59
68405 On ch=3 n=61 v=0
68407 On ch=3 n=61 v=60
68408 On ch=3 n=66 v=0
68411 On ch=3 n=66 v=66
68458 On ch=3 n=66 v=0
68460 On ch=3 n=66 v=65
68516 On ch=3 n=54 v=0
68517 On ch=3 n=57 v=0
68519 On ch=3 n=61 v=0
68520 On ch=3 n=54 v=85
68522 On ch=3 n=57 v=87
68523 On ch=3 n=66 v=0
68523 On ch=3 n=61 v=92
68525 On ch=3 n=66 v=87
68572 On ch=3 n=66 v=0
68579 On ch=3 n=61 v=0
68580 On ch=3 n=66 v=81
68580 On ch=3 n=61 v=59
68638 On ch=3 n=57 v=0
68640 On ch=3 n=66 v=0
68640 On ch=3 n=42 v=0
68640 On ch=3 n=54 v=0
68640 On ch=3 n=61 v=0
68640 On ch=3 n=45 v=86
68643 On ch=3 n=52 v=74
68646 On ch=3 n=57 v=76
68648 On ch=3 n=61 v=67
68758 On ch=3 n=52 v=0
68760 On ch=3 n=52 v=93
68762 On ch=3 n=57 v=0
68763 On ch=3 n=61 v=0
68763 On ch=3 n=57 v=94
68767 On ch=3 n=61 v=94
68771 On ch=3 n=64 v=99
68817 On ch=3 n=61 v=0
68818 On ch=3 n=64 v=0
68820 On ch=3 n=64 v=81
68820 On ch=3 n=61 v=59
68879 On ch=3 n=57 v=0
68883 On ch=3 n=57 v=76
68885 On ch=3 n=61 v=0
68887 On ch=3 n=61 v=60
68935 On ch=3 n=64 v=0
68940 On ch=3 n=64 v=67
68999 On ch=3 n=57 v=0
69002 On ch=3 n=64 v=0
69003 On ch=3 n=57 v=90
69005 On ch=3 n=64 v=99
69052 On ch=3 n=64 v=0
69054 On ch=3 n=61 v=0
69060 On ch=3 n=64 v=81
69060 On ch=3 n=61 v=59
69113 On ch=3 n=52 v=0
69119 On ch=3 n=57 v=0
69120 On ch=3 n=64 v=0
69120 On ch=3 n=45 v=0
69120 On ch=3 n=61 v=0
69120 On ch=3 n=42 v=93
69123 On ch=3 n=54 v=74
69126 On ch=3 n=57 v=76
69128 On ch=3 n=61 v=66
69238 On ch=3 n=54 v=0
69240 On ch=3 n=61 v=0
69241 On ch=3 n=54 v=90
69242 On ch=3 n=57 v=0
69242 On ch=3 n=57 v=91
69243 On ch=3 n=61 v=92
69245 On ch=3 n=66 v=99
69296 On ch=3 n=66 v=0
69298 On ch=3 n=61 v=0
69300 On ch=3 n=66 v=81
69300 On ch=3 n=61 v=59
69365 On ch=3 n=61 v=0
69367 On ch=3 n=61 v=60
69368 On ch=3 n=66 v=0
69371 On ch=3 n=66 v=66
69418 On ch=3 n=66 v=0
69420 On ch=3 n=66 v=65
69476 On ch=3 n=54 v=0
69477 On ch=3 n=57 v=0
69480 On ch=3 n=54 v=85
69483 On ch=3 n=66 v=0
69483 On ch=3 n=57 v=87
69485 On ch=3 n=66 v=86
69532 On ch=3 n=66 v=0
69534 On ch=3 n=61 v=0
69540 On ch=3 n=66 v=81
69540 On ch=3 n=61 v=59
69599 On ch=3 n=57 v=0
69600 On ch=3 n=66 v=0
69600 On ch=3 n=54 v=0
69600 On ch=3 n=42 v=0
69600 On ch=3 n=61 v=0
69600 On ch=3 n=50 v=86
69603 On ch=3 n=57 v=74
69606 On ch=3 n=62 v=76
69608 On ch=3 n=66 v=67
69718 On ch=3 n=57 v=0
69720 On ch=3 n=57 v=93
69722 On ch=3 n=62 v=0
69723 On ch=3 n=66 v=0
69723 On ch=3 n=62 v=94
69727 On ch=3 n=66 v=94
69777 On ch=3 n=66 v=0
69780 On ch=3 n=66 v=59
69838 On ch=3 n=50 v=0
69839 On ch=3 n=62 v=0
69840 On ch=3 n=49 v=81
69843 On ch=3 n=62 v=76
69845 On ch=3 n=66 v=0
69846 On ch=3 n=66 v=60
69899 On ch=3 n=66 v=0
69900 On ch=3 n=66 v=81
69959 On ch=3 n=62 v=0
69959 On ch=3 n=57 v=0
69960 On ch=3 n=66 v=0
69960 On ch=3 n=57 v=71
69961 On ch=3 n=62 v=90
69963 On ch=3 n=66 v=81
70019 On ch=3 n=66 v=0
70020 On ch=3 n=66 v=59
70077 On ch=3 n=62 v=0
70078 On ch=3 n=49 v=0
70079 On ch=3 n=57 v=0
70080 On ch=3 n=66 v=0
70080 On ch=3 n=47 v=86
70083 On ch=3 n=62 v=76
70083 On ch=3 n=57 v=74
70084 On ch=3 n=66 v=67
70198 On ch=3 n=57 v=0
70199 On ch=3 n=66 v=0
70199 On ch=3 n=62 v=0
70200 On ch=3 n=57 v=93
70203 On ch=3 n=62 v=94
70207 On ch=3 n=66 v=94
70257 On ch=3 n=66 v=0
70260 On ch=3 n=66 v=59
70319 On ch=3 n=62 v=0
70323 On ch=3 n=62 v=76
70325 On ch=3 n=66 v=0
70327 On ch=3 n=66 v=60
70439 On ch=3 n=66 v=0
70439 On ch=3 n=62 v=0
70441 On ch=3 n=62 v=90
70443 On ch=3 n=66 v=81
70499 On ch=3 n=66 v=0
70500 On ch=3 n=66 v=59
70553 On ch=3 n=57 v=0
70555 On ch=3 n=47 v=0
70557 On ch=3 n=62 v=0
70560 On ch=3 n=66 v=0
70561 On ch=3 n=47 v=63
70563 On ch=3 n=52 v=74
70563 On ch=3 n=56 v=76
70566 On ch=3 n=59 v=67
70568 On ch=3 n=64 v=61
70678 On ch=3 n=52 v=0
70679 On ch=3 n=56 v=0
70680 On ch=3 n=52 v=90
70681 On ch=3 n=59 v=0
70683 On ch=3 n=56 v=90
70684 On ch=3 n=64 v=0
70687 On ch=3 n=59 v=90
70691 On ch=3 n=64 v=99
70737 On ch=3 n=59 v=0
70738 On ch=3 n=64 v=0
70740 On ch=3 n=64 v=81
70740 On ch=3 n=59 v=59
70799 On ch=3 n=56 v=0
70803 On ch=3 n=56 v=76
70805 On ch=3 n=59 v=0
70807 On ch=3 n=59 v=60
70808 On ch=3 n=64 v=0
70811 On ch=3 n=64 v=66
70858 On ch=3 n=64 v=0
70860 On ch=3 n=64 v=67
70913 On ch=3 n=47 v=0
70915 On ch=3 n=52 v=0
70915 On ch=3 n=47 v=59
70919 On ch=3 n=56 v=0
70920 On ch=3 n=52 v=90
70923 On ch=3 n=56 v=90
70927 On ch=3 n=64 v=0
70931 On ch=3 n=64 v=99
70974 On ch=3 n=59 v=0
70978 On ch=3 n=64 v=0
70980 On ch=3 n=64 v=81
70980 On ch=3 n=59 v=59
71092 On ch=3 n=64 v=0
71095 On ch=3 n=59 v=0
71095 On ch=3 n=64 v=71
71096 On ch=3 n=56 v=0
71097 On ch=3 n=59 v=69
71100 On ch=3 n=56 v=76
71157 On ch=3 n=52 v=0
71158 On ch=3 n=56 v=0
71161 On ch=3 n=52 v=90
71162 On ch=3 n=59 v=0
71163 On ch=3 n=64 v=0
71163 On ch=3 n=56 v=90
71165 On ch=3 n=59 v=90
71166 On ch=3 n=64 v=99
71217 On ch=3 n=64 v=0
71220 On ch=3 n=64 v=81
71278 On ch=3 n=52 v=0
71278 On ch=3 n=47 v=0
71279 On ch=3 n=56 v=0
71280 On ch=3 n=47 v=59
71281 On ch=3 n=52 v=83
71283 On ch=3 n=56 v=86
71400 On ch=3 n=56 v=0
71403 On ch=3 n=59 v=0
71403 On ch=3 n=56 v=90
71405 On ch=3 n=64 v=0
71407 On ch=3 n=59 v=90
71411 On ch=3 n=64 v=99
71457 On ch=3 n=59 v=0
71458 On ch=3 n=64 v=0
71515 On ch=3 n=47 v=0
71518 On ch=3 n=52 v=0
71519 On ch=3 n=56 v=0
71520 On ch=3 n=45 v=86
71523 On ch=3 n=52 v=74
71526 On ch=3 n=57 v=76
71528 On ch=3 n=61 v=67
71638 On ch=3 n=52 v=0
71640 On ch=3 n=52 v=93
71642 On ch=3 n=57 v=0
71643 On ch=3 n=61 v=0
71643 On ch=3 n=57 v=94
71647 On ch=3 n=61 v=94
71651 On ch=3 n=64 v=99
71697 On ch=3 n=61 v=0
71698 On ch=3 n=64 v=0
71700 On ch=3 n=64 v=81
71700 On ch=3 n=61 v=59
71759 On ch=3 n=57 v=0
71763 On ch=3 n=57 v=76
71765 On ch=3 n=61 v=0
71767 On ch=3 n=61 v=60
71815 On ch=3 n=64 v=0
71820 On ch=3 n=64 v=67
71879 On ch=3 n=57 v=0
71879 On ch=3 n=61 v=0
71883 On ch=3 n=64 v=0
71883 On ch=3 n=61 v=81
71883 On ch=3 n=57 v=90
71886 On ch=3 n=64 v=99
71933 On ch=3 n=64 v=0
71940 On ch=3 n=64 v=81
71940 On ch=3 n=61 v=59
71943 On ch=3 n=61 v=0
71993 On ch=3 n=52 v=0
71995 On ch=3 n=61 v=0
71999 On ch=3 n=57 v=0
72000 On ch=3 n=64 v=0
72000 On ch=3 n=45 v=0
72000 On ch=3 n=42 v=93
72003 On ch=3 n=54 v=74
72006 On ch=3 n=57 v=76
72008 On ch=3 n=61 v=66
72118 On ch=3 n=54 v=0
72120 On ch=3 n=61 v=0
72121 On ch=3 n=54 v=90
72122 On ch=3 n=57 v=0
72122 On ch=3 n=57 v=91
72123 On ch=3 n=61 v=92
72125 On ch=3 n=66 v=99
72176 On ch=3 n=66 v=0
72178 On ch=3 n=61 v=0
72180 On ch=3 n=66 v=81
72180 On ch=3 n=61 v=59
72245 On ch=3 n=61 v=0
72247 On ch=3 n=61 v=60
72248 On ch=3 n=66 v=0
72251 On ch=3 n=66 v=66
72298 On ch=3 n=66 v=0
72300 On ch=3 n=66 v=65
72356 On ch=3 n=54 v=0
72357 On ch=3 n=57 v=0
72359 On ch=3 n=61 v=0
72360 On ch=3 n=54 v=85
72362 On ch=3 n=57 v=87
72363 On ch=3 n=66 v=0
72363 On ch=3 n=61 v=92
72365 On ch=3 n=66 v=87
72412 On ch=3 n=66 v=0
72419 On ch=3 n=61 v=0
72420 On ch=3 n=66 v=81
72420 On ch=3 n=61 v=59
72478 On ch=3 n=57 v=0
72480 On ch=3 n=66 v=0
72480 On ch=3 n=42 v=0
72480 On ch=3 n=54 v=0
72480 On ch=3 n=61 v=0
72480 On ch=3 n=45 v=86
72483 On ch=3 n=52 v=74
72486 On ch=3 n=57 v=76
72488 On ch=3 n=61 v=67
72598 On ch=3 n=52 v=0
72600 On ch=3 n=52 v=93
72602 On ch=3 n=57 v=0
72603 On ch=3 n=61 v=0
72603 On ch=3 n=57 v=94
72607 On ch=3 n=61 v=94
72611 On ch=3 n=64 v=99
72657 On ch=3 n=61 v=0
72658 On ch=3 n=64 v=0
72660 On ch=3 n=64 v=81
72660 On ch=3 n=61 v=59
72719 On ch=3 n=57 v=0
72723 On ch=3 n=57 v=76
72725 On ch=3 n=61 v=0
72727 On ch=3 n=61 v=60
72775 On ch=3 n=64 v=0
72780 On ch=3 n=64 v=67
72839 On ch=3 n=57 v=0
72842 On ch=3 n=64 v=0
72843 On ch=3 n=57 v=90
72845 On ch=3 n=64 v=99
72892 On ch=3 n=64 v=0
72894 On ch=3 n=61 v=0
72900 On ch=3 n=64 v=81
72900 On ch=3 n=61 v=59
72953 On ch=3 n=52 v=0
72959 On ch=3 n=57 v=0
72960 On ch=3 n=64 v=0
72960 On ch=3 n=45 v=0
72960 On ch=3 n=61 v=0
72960 On ch=3 n=42 v=93
72963 On ch=3 n=54 v=74
72966 On ch=3 n=57 v=76
72968 On ch=3 n=61 v=66
73078 On ch=3 n=54 v=0
73080 On ch=3 n=61 v=0
73081 On ch=3 n=54 v=90
73082 On ch=3 n=57 v=0
73082 On ch=3 n=57 v=91
73083 On ch=3 n=61 v=92
73085 On ch=3 n=66 v=99
73136 On ch=3 n=66 v=0
73138 On ch=3 n=61 v=0
73140 On ch=3 n=66 v=81
73140 On ch=3 n=61 v=59
73205 On ch=3 n=61 v=0
73207 On ch=3 n=61 v=60
73208 On ch=3 n=66 v=0
73211 On ch=3 n=66 v=66
73258 On ch=3 n=66 v=0
73260 On ch=3 n=66 v=65
73316 On ch=3 n=54 v=0
73317 On ch=3 n=57 v=0
73320 On ch=3 n=54 v=85
73323 On ch=3 n=66 v=0
73323 On ch=3 n=57 v=87
73325 On ch=3 n=66 v=86
73372 On ch=3 n=66 v=0
73374 On ch=3 n=61 v=0
73380 On ch=3 n=66 v=81
73380 On ch=3 n=61 v=59
73439 On ch=3 n=57 v=0
73440 On ch=3 n=66 v=0
73440 On ch=3 n=54 v=0
73440 On ch=3 n=42 v=0
73440 On ch=3 n=61 v=0
73440 On ch=3 n=50 v=86
73443 On ch=3 n=57 v=74
73446 On ch=3 n=62 v=76
73448 On ch=3 n=66 v=67
73558 On ch=3 n=57 v=0
73560 On ch=3 n=57 v=93
73562 On ch=3 n=62 v=0
73563 On ch=3 n=66 v=0
73563 On ch=3 n=62 v=94
73567 On ch=3 n=66 v=94
73617 On ch=3 n=66 v=0
73620 On ch=3 n=66 v=59
73678 On ch=3 n=50 v=0
73679 On ch=3 n=62 v=0
73680 On ch=3 n=49 v=81
73683 On ch=3 n=62 v=76
73685 On ch=3 n=66 v=0
73686 On ch=3 n=66 v=60
73739 On ch=3 n=66 v=0
73740 On ch=3 n=66 v=81
73799 On ch=3 n=62 v=0
73799 On ch=3 n=57 v=0
73800 On ch=3 n=66 v=0
73800 On ch=3 n=57 v=71
73801 On ch=3 n=62 v=90
73803 On ch=3 n=66 v=81
73859 On ch=3 n=66 v=0
73860 On ch=3 n=66 v=59
73917 On ch=3 n=62 v=0
73918 On ch=3 n=49 v=0
73919 On ch=3 n=57 v=0
73920 On ch=3 n=66 v=0
73920 On ch=3 n=50 v=86
73923 On ch=3 n=62 v=76
73923 On ch=3 n=57 v=74
73924 On ch=3 n=66 v=67
74038 On ch=3 n=57 v=0
74039 On ch=3 n=66 v=0
74039 On ch=3 n=62 v=0
74040 On ch=3 n=57 v=93
74043 On ch=3 n=62 v=94
74047 On ch=3 n=66 v=94
74097 On ch=3 n=66 v=0
74100 On ch=3 n=66 v=59
74159 On ch=3 n=62 v=0
74163 On ch=3 n=62 v=76
74165 On ch=3 n=66 v=0
74167 On ch=3 n=66 v=60
74279 On ch=3 n=66 v=0
74279 On ch=3 n=62 v=0
74281 On ch=3 n=62 v=90
74283 On ch=3 n=66 v=81
74339 On ch=3 n=66 v=0
74340 On ch=3 n=66 v=59
74393 On ch=3 n=57 v=0
74395 On ch=3 n=50 v=0
74397 On ch=3 n=62 v=0
74400 On ch=3 n=66 v=0
74401 On ch=3 n=47 v=63
74403 On ch=3 n=54 v=74
74403 On ch=3 n=59 v=76
74406 On ch=3 n=62 v=67
74408 On ch=3 n=66 v=61
74518 On ch=3 n=54 v=0
74519 On ch=3 n=59 v=0
74520 On ch=3 n=54 v=90
74521 On ch=3 n=62 v=0
74523 On ch=3 n=59 v=90
74524 On ch=3 n=66 v=0
74527 On ch=3 n=62 v=90
74531 On ch=3 n=66 v=99
74577 On ch=3 n=62 v=0
74578 On ch=3 n=66 v=0
74580 On ch=3 n=66 v=81
74580 On ch=3 n=62 v=59
74639 On ch=3 n=59 v=0
74643 On ch=3 n=59 v=76
74645 On ch=3 n=62 v=0
74647 On ch=3 n=62 v=60
74648 On ch=3 n=66 v=0
74651 On ch=3 n=66 v=66
74698 On ch=3 n=66 v=0
74700 On ch=3 n=66 v=67
74753 On ch=3 n=47 v=0
74755 On ch=3 n=54 v=0
74755 On ch=3 n=47 v=59
74759 On ch=3 n=59 v=0
74760 On ch=3 n=54 v=90
74763 On ch=3 n=59 v=90
74767 On ch=3 n=66 v=0
74771 On ch=3 n=66 v=99
74814 On ch=3 n=62 v=0
74818 On ch=3 n=66 v=0
74820 On ch=3 n=66 v=81
74820 On ch=3 n=62 v=59
74932 On ch=3 n=66 v=0
74935 On ch=3 n=62 v=0
74935 On ch=3 n=66 v=71
74936 On ch=3 n=59 v=0
74937 On ch=3 n=62 v=69
74940 On ch=3 n=59 v=76
74997 On ch=3 n=54 v=0
74998 On ch=3 n=59 v=0
75001 On ch=3 n=54 v=90
75002 On ch=3 n=62 v=0
75003 On ch=3 n=66 v=0
75003 On ch=3 n=59 v=90
75005 On ch=3 n=62 v=90
75006 On ch=3 n=66 v=99
75057 On ch=3 n=66 v=0
75060 On ch=3 n=66 v=81
75118 On ch=3 n=54 v=0
75118 On ch=3 n=47 v=0
75119 On ch=3 n=59 v=0
75120 On ch=3 n=47 v=59
75121 On ch=3 n=54 v=83
75123 On ch=3 n=59 v=86
75240 On ch=3 n=59 v=0
75243 On ch=3 n=62 v=0
75243 On ch=3 n=59 v=90
75245 On ch=3 n=66 v=0
75247 On ch=3 n=62 v=90
75251 On ch=3 n=66 v=99
75297 On ch=3 n=62 v=0
75298 On ch=3 n=66 v=0
75355 On ch=3 n=47 v=0
75358 On ch=3 n=54 v=0
75359 On ch=3 n=59 v=0
75360 On ch=3 n=42 v=66
75361 On ch=3 n=49 v=46
75363 On ch=3 n=54 v=57
75366 On ch=3 n=58 v=59
75368 On ch=3 n=61 v=50
75371 On ch=3 n=66 v=44
75478 On ch=3 n=54 v=0
75480 On ch=3 n=54 v=73
75482 On ch=3 n=58 v=0
75483 On ch=3 n=61 v=0
75483 On ch=3 n=58 v=73
75487 On ch=3 n=66 v=0
75487 On ch=3 n=61 v=73
75491 On ch=3 n=66 v=82
75537 On ch=3 n=61 v=0
75538 On ch=3 n=66 v=0
75540 On ch=3 n=66 v=64
75540 On ch=3 n=61 v=42
75599 On ch=3 n=58 v=0
75603 On ch=3 n=58 v=59
75605 On ch=3 n=61 v=0
75607 On ch=3 n=61 v=43
75608 On ch=3 n=66 v=0
75611 On ch=3 n=66 v=49
75658 On ch=3 n=66 v=0
75660 On ch=3 n=66 v=50
75713 On ch=3 n=49 v=0
75715 On ch=3 n=54 v=0
75715 On ch=3 n=49 v=42
75719 On ch=3 n=58 v=0
75720 On ch=3 n=54 v=73
75723 On ch=3 n=58 v=73
75727 On ch=3 n=66 v=0
75731 On ch=3 n=66 v=82
75774 On ch=3 n=61 v=0
75778 On ch=3 n=66 v=0
75780 On ch=3 n=66 v=64
75780 On ch=3 n=61 v=42
75892 On ch=3 n=66 v=0
75895 On ch=3 n=61 v=0
75895 On ch=3 n=66 v=54
75896 On ch=3 n=58 v=0
75897 On ch=3 n=61 v=52
75900 On ch=3 n=58 v=59
75957 On ch=3 n=42 v=0
75957 On ch=3 n=54 v=0
75958 On ch=3 n=58 v=0
75960 On ch=3 n=42 v=54
75961 On ch=3 n=54 v=73
75962 On ch=3 n=61 v=0
75963 On ch=3 n=66 v=0
75963 On ch=3 n=58 v=73
75965 On ch=3 n=61 v=73
75966 On ch=3 n=66 v=82
76017 On ch=3 n=66 v=0
76020 On ch=3 n=66 v=64
76078 On ch=3 n=49 v=0
76078 On ch=3 n=54 v=0
76079 On ch=3 n=58 v=0
76080 On ch=3 n=49 v=42
76081 On ch=3 n=54 v=66
76083 On ch=3 n=58 v=69
76200 On ch=3 n=58 v=0
76203 On ch=3 n=61 v=0
76203 On ch=3 n=58 v=73
76205 On ch=3 n=66 v=0
76207 On ch=3 n=61 v=73
76211 On ch=3 n=66 v=82
76257 On ch=3 n=61 v=0
76258 On ch=3 n=66 v=0
76260 On ch=3 n=66 v=64
76260 On ch=3 n=61 v=42
76315 On ch=3 n=49 v=0
76318 On ch=3 n=66 v=0
76318 On ch=3 n=54 v=0
76319 On ch=3 n=42 v=0
76319 On ch=3 n=58 v=0
76320 On ch=3 n=61 v=0
76320 On ch=3 n=42 v=66
76321 On ch=3 n=49 v=46
76323 On ch=3 n=54 v=57
76326 On ch=3 n=58 v=59
76328 On ch=3 n=61 v=50
76331 On ch=3 n=66 v=44
76438 On ch=3 n=54 v=0
76440 On ch=3 n=54 v=73
76442 On ch=3 n=58 v=0
76443 On ch=3 n=61 v=0
76443 On ch=3 n=58 v=73
76447 On ch=3 n=66 v=0
76447 On ch=3 n=61 v=73
76451 On ch=3 n=66 v=82
76497 On ch=3 n=61 v=0
76498 On ch=3 n=66 v=0
76500 On ch=3 n=66 v=64
76500 On ch=3 n=61 v=42
76559 On ch=3 n=58 v=0
76563 On ch=3 n=58 v=59
76565 On ch=3 n=61 v=0
76567 On ch=3 n=61 v=43
76568 On ch=3 n=66 v=0
76571 On ch=3 n=66 v=49
76618 On ch=3 n=66 v=0
76620 On ch=3 n=66 v=50
76673 On ch=3 n=49 v=0
76675 On ch=3 n=54 v=0
76675 On ch=3 n=49 v=42
76679 On ch=3 n=58 v=0
76680 On ch=3 n=54 v=73
76683 On ch=3 n=58 v=73
76687 On ch=3 n=66 v=0
76691 On ch=3 n=66 v=82
76734 On ch=3 n=61 v=0
76738 On ch=3 n=66 v=0
76740 On ch=3 n=66 v=64
76740 On ch=3 n=61 v=42
76852 On ch=3 n=66 v=0
76855 On ch=3 n=61 v=0
76855 On ch=3 n=66 v=54
76856 On ch=3 n=58 v=0
76857 On ch=3 n=61 v=52
76860 On ch=3 n=58 v=59
76917 On ch=3 n=42 v=0
76917 On ch=3 n=54 v=0
76918 On ch=3 n=58 v=0
76920 On ch=3 n=42 v=54
76921 On ch=3 n=54 v=73
76922 On ch=3 n=61 v=0
76923 On ch=3 n=66 v=0
76923 On ch=3 n=58 v=73
76925 On ch=3 n=61 v=73
76926 On ch=3 n=66 v=82
76977 On ch=3 n=66 v=0
76980 On ch=3 n=66 v=64
77038 On ch=3 n=49 v=0
77038 On ch=3 n=54 v=0
77039 On ch=3 n=58 v=0
77040 On ch=3 n=49 v=42
77041 On ch=3 n=54 v=66
77043 On ch=3 n=58 v=69
77160 On ch=3 n=58 v=0
77163 On ch=3 n=61 v=0
77163 On ch=3 n=58 v=73
77165 On ch=3 n=66 v=0
77167 On ch=3 n=61 v=73
77171 On ch=3 n=66 v=82
77217 On ch=3 n=61 v=0
77218 On ch=3 n=66 v=0
77220 On ch=3 n=66 v=64
77220 On ch=3 n=61 v=42
77275 On ch=3 n=49 v=0
77278 On ch=3 n=66 v=0
77278 On ch=3 n=54 v=0
77279 On ch=3 n=42 v=0
77279 On ch=3 n=58 v=0
77280 On ch=3 n=61 v=0
77280 On ch=3 n=42 v=66
77281 On ch=3 n=49 v=46
77283 On ch=3 n=54 v=57
77286 On ch=3 n=58 v=59
77288 On ch=3 n=61 v=50
77291 On ch=3 n=66 v=44
77398 On ch=3 n=54 v=0
77400 On ch=3 n=54 v=73
77402 On ch=3 n=58 v=0
77403 On ch=3 n=61 v=0
77403 On ch=3 n=58 v=73
77407 On ch=3 n=66 v=0
77407 On ch=3 n=61 v=73
77411 On ch=3 n=66 v=82
77457 On ch=3 n=61 v=0
77458 On ch=3 n=66 v=0
77460 On ch=3 n=66 v=64
77460 On ch=3 n=61 v=42
77519 On ch=3 n=58 v=0
77523 On ch=3 n=58 v=59
77525 On ch=3 n=61 v=0
77527 On ch=3 n=61 v=43
77528 On ch=3 n=66 v=0
77531 On ch=3 n=66 v=49
77578 On ch=3 n=66 v=0
77580 On ch=3 n=66 v=50
77633 On ch=3 n=49 v=0
77635 On ch=3 n=54 v=0
77635 On ch=3 n=49 v=42
77639 On ch=3 n=58 v=0
77640 On ch=3 n=54 v=73
77643 On ch=3 n=58 v=73
77647 On ch=3 n=66 v=0
77651 On ch=3 n=66 v=82
77694 On ch=3 n=61 v=0
77698 On ch=3 n=66 v=0
77700 On ch=3 n=66 v=64
77700 On ch=3 n=61 v=42
77812 On ch=3 n=66 v=0
77815 On ch=3 n=61 v=0
77815 On ch=3 n=66 v=54
77816 On ch=3 n=58 v=0
77817 On ch=3 n=61 v=52
77820 On ch=3 n=58 v=59
77877 On ch=3 n=42 v=0
77877 On ch=3 n=54 v=0
77878 On ch=3 n=58 v=0
77880 On ch=3 n=42 v=54
77881 On ch=3 n=54 v=73
77882 On ch=3 n=61 v=0
77883 On ch=3 n=66 v=0
77883 On ch=3 n=58 v=73
77885 On ch=3 n=61 v=73
77886 On ch=3 n=66 v=82
77937 On ch=3 n=66 v=0
77940 On ch=3 n=66 v=64
77998 On ch=3 n=49 v=0
77998 On ch=3 n=54 v=0
77999 On ch=3 n=58 v=0
78000 On ch=3 n=49 v=42
78001 On ch=3 n=54 v=66
78003 On ch=3 n=58 v=69
78120 On ch=3 n=58 v=0
78123 On ch=3 n=61 v=0
78123 On ch=3 n=58 v=73
78125 On ch=3 n=66 v=0
78127 On ch=3 n=61 v=73
78131 On ch=3 n=66 v=82
78177 On ch=3 n=61 v=0
78178 On ch=3 n=66 v=0
78180 On ch=3 n=66 v=64
78180 On ch=3 n=61 v=42
78235 On ch=3 n=49 v=0
78238 On ch=3 n=66 v=0
78238 On ch=3 n=54 v=0
78239 On ch=3 n=42 v=0
78239 On ch=3 n=58 v=0
78240 On ch=3 n=61 v=0
78240 On ch=3 n=42 v=66
78241 On ch=3 n=49 v=46
78243 On ch=3 n=54 v=57
78246 On ch=3 n=58 v=59
78248 On ch=3 n=61 v=50
78251 On ch=3 n=66 v=44
78358 On ch=3 n=54 v=0
78360 On ch=3 n=54 v=73
78362 On ch=3 n=58 v=0
78363 On ch=3 n=61 v=0
78363 On ch=3 n=58 v=73
78367 On ch=3 n=66 v=0
78367 On ch=3 n=61 v=73
78371 On ch=3 n=66 v=82
78417 On ch=3 n=61 v=0
78418 On ch=3 n=66 v=0
78420 On ch=3 n=66 v=64
78420 On ch=3 n=61 v=42
78479 On ch=3 n=58 v=0
78483 On ch=3 n=58 v=59
78485 On ch=3 n=61 v=0
78487 On ch=3 n=61 v=43
78488 On ch=3 n=66 v=0
78491 On ch=3 n=66 v=49
78538 On ch=3 n=66 v=0
78540 On ch=3 n=66 v=50
78593 On ch=3 n=49 v=0
78595 On ch=3 n=54 v=0
78595 On ch=3 n=49 v=42
78599 On ch=3 n=58 v=0
78600 On ch=3 n=54 v=73
78603 On ch=3 n=58 v=73
78607 On ch=3 n=66 v=0
78611 On ch=3 n=66 v=82
78654 On ch=3 n=61 v=0
78658 On ch=3 n=66 v=0
78660 On ch=3 n=66 v=64
78660 On ch=3 n=61 v=42
78772 On ch=3 n=66 v=0
78775 On ch=3 n=61 v=0
78775 On ch=3 n=66 v=54
78776 On ch=3 n=58 v=0
78777 On ch=3 n=61 v=52
78780 On ch=3 n=58 v=59
78837 On ch=3 n=42 v=0
78837 On ch=3 n=54 v=0
78838 On ch=3 n=58 v=0
78840 On ch=3 n=42 v=54
78841 On ch=3 n=54 v=73
78842 On ch=3 n=61 v=0
78843 On ch=3 n=66 v=0
78843 On ch=3 n=58 v=73
78845 On ch=3 n=61 v=73
78846 On ch=3 n=66 v=82
78897 On ch=3 n=66 v=0
78900 On ch=3 n=66 v=64
78958 On ch=3 n=49 v=0
78958 On ch=3 n=54 v=0
78959 On ch=3 n=58 v=0
78960 On ch=3 n=49 v=42
78961 On ch=3 n=54 v=66
78963 On ch=3 n=58 v=69
79080 On ch=3 n=58 v=0
79083 On ch=3 n=61 v=0
79083 On ch=3 n=58 v=73
79085 On ch=3 n=66 v=0
79087 On ch=3 n=61 v=73
79091 On ch=3 n=66 v=82
79137 On ch=3 n=61 v=0
79138 On ch=3 n=66 v=0
79140 On ch=3 n=42 v=0
79140 On ch=3 n=49 v=0
79140 On ch=3 n=66 v=64
79140 On ch=3 n=61 v=42
79193 On ch=3 n=42 v=76
79197 On ch=3 n=49 v=66
79198 On ch=3 n=66 v=0
79198 On ch=3 n=54 v=0
79199 On ch=3 n=58 v=0
79200 On ch=3 n=61 v=0
79202 On ch=3 n=54 v=67
79206 On ch=3 n=58 v=59
79208 On ch=3 n=61 v=50
79211 On ch=3 n=66 v=70
79266 On ch=3 n=42 v=0
79274 On ch=3 n=49 v=0
79284 On ch=3 n=54 v=0
80039 On ch=3 n=58 v=0
80099 On ch=3 n=61 v=0
80099 On ch=3 n=66 v=0
80099 Meta TrkEnd
TrkEnd
MTrk
0 Meta 0x21 00
0 Par ch=4 c=0 v=0
0 Par ch=4 c=32 v=0
0 PrCh ch=4 p=0
0 Par ch=4 c=7 v=110
0 Par ch=4 c=10 v=64
106 Par ch=4 c=121 v=0
145 Par ch=4 c=11 v=127
145 Par ch=4 c=93 v=60
145 Par ch=4 c=91 v=60
4323 On ch=4 n=76 v=98
4325 On ch=4 n=80 v=94
4433 On ch=4 n=80 v=0
4450 On ch=4 n=76 v=0
4500 On ch=4 n=76 v=86
4500 On ch=4 n=80 v=90
4538 On ch=4 n=76 v=0
4543 On ch=4 n=80 v=0
4559 On ch=4 n=75 v=90
4561 On ch=4 n=76 v=57
4562 On ch=4 n=78 v=86
4572 On ch=4 n=76 v=0
4589 On ch=4 n=75 v=0
4592 On ch=4 n=78 v=0
4620 On ch=4 n=78 v=90
4621 On ch=4 n=75 v=86
4687 On ch=4 n=75 v=0
4696 On ch=4 n=78 v=0
4737 On ch=4 n=76 v=86
4737 On ch=4 n=73 v=86
4888 On ch=4 n=73 v=0
4894 On ch=4 n=76 v=0
4973 On ch=4 n=73 v=72
4975 On ch=4 n=76 v=69
4996 On ch=4 n=76 v=0
4999 On ch=4 n=73 v=0
5038 On ch=4 n=75 v=90
5042 On ch=4 n=71 v=90
5066 On ch=4 n=71 v=0
5071 On ch=4 n=75 v=0
5091 On ch=4 n=71 v=90
5093 On ch=4 n=75 v=90
5159 On ch=4 n=75 v=0
5169 On ch=4 n=71 v=0
5220 On ch=4 n=70 v=78
5221 On ch=4 n=73 v=98
5359 On ch=4 n=70 v=0
5362 On ch=4 n=73 v=0
5463 On ch=4 n=70 v=102
5467 On ch=4 n=73 v=94
5491 On ch=4 n=70 v=0
5493 On ch=4 n=73 v=0
5526 On ch=4 n=71 v=82
5526 On ch=4 n=68 v=75
5548 On ch=4 n=68 v=0
5552 On ch=4 n=71 v=0
5574 On ch=4 n=71 v=78
5576 On ch=4 n=68 v=86
5654 On ch=4 n=68 v=0
5662 On ch=4 n=71 v=0
5702 On ch=4 n=66 v=72
5702 On ch=4 n=70 v=90
5878 On ch=4 n=70 v=0
5878 On ch=4 n=66 v=0
6720 On ch=4 n=75 v=107
6720 On ch=4 n=78 v=98
6821 On ch=4 n=78 v=0
6823 On ch=4 n=75 v=0
6900 On ch=4 n=78 v=78
6900 On ch=4 n=75 v=78
6937 On ch=4 n=75 v=0
6938 On ch=4 n=78 v=0
6960 On ch=4 n=73 v=86
6963 On ch=4 n=76 v=72
6988 On ch=4 n=73 v=0
6992 On ch=4 n=76 v=0
7021 On ch=4 n=73 v=90
7021 On ch=4 n=76 v=75
7094 On ch=4 n=73 v=0
7100 On ch=4 n=76 v=0
7141 On ch=4 n=75 v=102
7141 On ch=4 n=71 v=86
7230 On ch=4 n=75 v=0
7247 On ch=4 n=71 v=0
7435 On ch=4 n=71 v=102
7437 On ch=4 n=75 v=82
7459 On ch=4 n=71 v=0
7460 On ch=4 n=75 v=0
7496 On ch=4 n=75 v=82
7497 On ch=4 n=71 v=82
7571 On ch=4 n=75 v=0
7587 On ch=4 n=71 v=0
7623 On ch=4 n=73 v=94
7623 On ch=4 n=69 v=86
7786 On ch=4 n=73 v=0
7796 On ch=4 n=69 v=0
8757 On ch=4 n=80 v=94
8757 On ch=4 n=76 v=98
8782 On ch=4 n=76 v=0
8790 On ch=4 n=80 v=0
8816 On ch=4 n=76 v=69
8820 On ch=4 n=80 v=69
8875 On ch=4 n=80 v=0
8876 On ch=4 n=74 v=52
8877 On ch=4 n=78 v=75
8891 On ch=4 n=76 v=0
8904 On ch=4 n=74 v=0
8908 On ch=4 n=78 v=0
8938 On ch=4 n=78 v=78
8938 On ch=4 n=74 v=72
9003 On ch=4 n=78 v=0
9004 On ch=4 n=74 v=0
9061 On ch=4 n=73 v=86
9061 On ch=4 n=76 v=90
9106 On ch=4 n=73 v=0
9115 On ch=4 n=76 v=0
9182 On ch=4 n=73 v=75
9182 On ch=4 n=76 v=90
9297 On ch=4 n=76 v=0
9305 On ch=4 n=73 v=0
9363 On ch=4 n=71 v=90
9363 On ch=4 n=74 v=72
9401 On ch=4 n=74 v=0
9412 On ch=4 n=71 v=0
9480 On ch=4 n=73 v=63
9481 On ch=4 n=69 v=33
9517 On ch=4 n=69 v=0
9518 On ch=4 n=73 v=0
9600 On ch=4 n=74 v=90
9601 On ch=4 n=78 v=82
9628 On ch=4 n=78 v=0
9628 On ch=4 n=74 v=0
9660 On ch=4 n=78 v=78
9661 On ch=4 n=74 v=78
9735 On ch=4 n=78 v=0
9741 On ch=4 n=74 v=0
9780 On ch=4 n=76 v=86
9783 On ch=4 n=73 v=79
9837 On ch=4 n=73 v=0
9850 On ch=4 n=76 v=0
9900 On ch=4 n=76 v=75
9900 On ch=4 n=73 v=83
9960 On ch=4 n=73 v=0
9986 On ch=4 n=76 v=0
10020 On ch=4 n=71 v=52
10022 On ch=4 n=74 v=86
10283 On ch=4 n=71 v=0
10292 On ch=4 n=74 v=0
12600 On ch=4 n=68 v=117
12600 On ch=4 n=71 v=80
12670 On ch=4 n=68 v=0
12679 On ch=4 n=71 v=0
12720 On ch=4 n=69 v=88
12720 On ch=4 n=73 v=65
12803 On ch=4 n=73 v=0
12815 On ch=4 n=69 v=0
12840 On ch=4 n=71 v=101
12840 On ch=4 n=74 v=80
12909 On ch=4 n=71 v=0
12921 On ch=4 n=74 v=0
12960 On ch=4 n=73 v=108
12960 On ch=4 n=76 v=84
13111 On ch=4 n=76 v=0
13126 On ch=4 n=73 v=0
13200 On ch=4 n=73 v=117
13200 On ch=4 n=76 v=76
13240 On ch=4 n=76 v=0
13245 On ch=4 n=73 v=0
13260 On ch=4 n=74 v=108
13260 On ch=4 n=78 v=76
13333 On ch=4 n=74 v=0
13343 On ch=4 n=78 v=0
13380 On ch=4 n=73 v=112
13380 On ch=4 n=78 v=68
13439 On ch=4 n=73 v=0
13465 On ch=4 n=78 v=0
13500 On ch=4 n=71 v=104
13500 On ch=4 n=73 v=55
13552 On ch=4 n=71 v=0
13578 On ch=4 n=73 v=0
13620 On ch=4 n=69 v=104
13620 On ch=4 n=73 v=53
13705 On ch=4 n=73 v=0
13748 On ch=4 n=69 v=0
13920 On ch=4 n=76 v=112
13920 On ch=4 n=81 v=88
14056 On ch=4 n=81 v=0
14062 On ch=4 n=76 v=0
14100 On ch=4 n=73 v=108
14100 On ch=4 n=76 v=73
14115 On ch=4 n=76 v=0
14123 On ch=4 n=73 v=0
14160 On ch=4 n=73 v=100
14160 On ch=4 n=76 v=65
14199 On ch=4 n=76 v=0
14200 On ch=4 n=73 v=0
14220 On ch=4 n=74 v=108
14220 On ch=4 n=78 v=68
14290 On ch=4 n=74 v=0
14291 On ch=4 n=78 v=0
14340 On ch=4 n=73 v=100
14340 On ch=4 n=78 v=50
14405 On ch=4 n=73 v=0
14416 On ch=4 n=78 v=0
14460 On ch=4 n=71 v=108
14460 On ch=4 n=74 v=53
14541 On ch=4 n=74 v=0
14560 On ch=4 n=71 v=0
14580 On ch=4 n=69 v=104
14580 On ch=4 n=73 v=53
14662 On ch=4 n=73 v=0
14669 On ch=4 n=69 v=0
14700 On ch=4 n=71 v=104
14700 On ch=4 n=74 v=59
14772 On ch=4 n=71 v=0
14776 On ch=4 n=74 v=0
14820 On ch=4 n=69 v=100
14820 On ch=4 n=74 v=65
15186 On ch=4 n=74 v=0
15283 On ch=4 n=69 v=0
15600 On ch=4 n=74 v=104
15600 On ch=4 n=78 v=62
15630 On ch=4 n=78 v=0
15660 On ch=4 n=73 v=104
15660 On ch=4 n=76 v=59
15673 On ch=4 n=74 v=0
15735 On ch=4 n=73 v=0
15745 On ch=4 n=76 v=0
15780 On ch=4 n=71 v=108
15780 On ch=4 n=76 v=59
16063 On ch=4 n=76 v=0
16100 On ch=4 n=71 v=0
16440 On ch=4 n=68 v=117
16440 On ch=4 n=71 v=78
16510 On ch=4 n=68 v=0
16519 On ch=4 n=71 v=0
16560 On ch=4 n=69 v=88
16560 On ch=4 n=73 v=63
16643 On ch=4 n=73 v=0
16655 On ch=4 n=69 v=0
16680 On ch=4 n=71 v=121
16680 On ch=4 n=74 v=78
16749 On ch=4 n=71 v=0
16761 On ch=4 n=74 v=0
16800 On ch=4 n=73 v=108
16800 On ch=4 n=76 v=82
16951 On ch=4 n=76 v=0
16966 On ch=4 n=73 v=0
17040 On ch=4 n=73 v=117
17040 On ch=4 n=76 v=74
17080 On ch=4 n=76 v=0
17085 On ch=4 n=73 v=0
17100 On ch=4 n=74 v=108
17100 On ch=4 n=78 v=74
17173 On ch=4 n=74 v=0
17183 On ch=4 n=78 v=0
17220 On ch=4 n=73 v=112
17220 On ch=4 n=78 v=66
17279 On ch=4 n=73 v=0
17305 On ch=4 n=78 v=0
17340 On ch=4 n=71 v=104
17340 On ch=4 n=73 v=53
17392 On ch=4 n=71 v=0
17418 On ch=4 n=73 v=0
17460 On ch=4 n=69 v=104
17460 On ch=4 n=73 v=51
17545 On ch=4 n=73 v=0
17588 On ch=4 n=69 v=0
17760 On ch=4 n=76 v=112
17760 On ch=4 n=81 v=86
17896 On ch=4 n=81 v=0
17902 On ch=4 n=76 v=0
17940 On ch=4 n=73 v=108
17940 On ch=4 n=76 v=51
17955 On ch=4 n=76 v=0
17963 On ch=4 n=73 v=0
18000 On ch=4 n=73 v=100
18000 On ch=4 n=76 v=63
18039 On ch=4 n=76 v=0
18040 On ch=4 n=73 v=0
18060 On ch=4 n=74 v=108
18060 On ch=4 n=78 v=66
18130 On ch=4 n=74 v=0
18131 On ch=4 n=78 v=0
18180 On ch=4 n=73 v=100
18180 On ch=4 n=78 v=48
18245 On ch=4 n=73 v=0
18256 On ch=4 n=78 v=0
18300 On ch=4 n=71 v=108
18300 On ch=4 n=74 v=51
18381 On ch=4 n=74 v=0
18400 On ch=4 n=71 v=0
18420 On ch=4 n=69 v=104
18420 On ch=4 n=73 v=51
18502 On ch=4 n=73 v=0
18509 On ch=4 n=69 v=0
18540 On ch=4 n=71 v=104
18540 On ch=4 n=74 v=57
18612 On ch=4 n=71 v=0
18616 On ch=4 n=74 v=0
18660 On ch=4 n=69 v=100
18660 On ch=4 n=74 v=63
19026 On ch=4 n=74 v=0
19123 On ch=4 n=69 v=0
19380 On ch=4 n=74 v=104
19380 On ch=4 n=78 v=60
19438 On ch=4 n=74 v=0
19441 On ch=4 n=78 v=0
19500 On ch=4 n=73 v=104
19500 On ch=4 n=76 v=57
19575 On ch=4 n=73 v=0
19585 On ch=4 n=76 v=0
19620 On ch=4 n=71 v=108
19620 On ch=4 n=74 v=57
19903 On ch=4 n=74 v=0
19940 On ch=4 n=71 v=0
20341 On ch=4 n=71 v=96
20341 On ch=4 n=76 v=33
20419 On ch=4 n=76 v=0
20432 On ch=4 n=71 v=0
20461 On ch=4 n=74 v=43
20461 On ch=4 n=71 v=90
20537 On ch=4 n=74 v=0
20544 On ch=4 n=71 v=0
20581 On ch=4 n=73 v=57
20583 On ch=4 n=70 v=78
20771 On ch=4 n=73 v=0
20776 On ch=4 n=70 v=0
22438 On ch=4 n=76 v=80
22440 On ch=4 n=80 v=88
22483 On ch=4 n=76 v=0
22494 On ch=4 n=80 v=0
22560 On ch=4 n=76 v=84
22561 On ch=4 n=80 v=84
22616 On ch=4 n=76 v=0
22632 On ch=4 n=80 v=0
22680 On ch=4 n=76 v=68
22682 On ch=4 n=80 v=76
22741 On ch=4 n=75 v=62
22741 On ch=4 n=78 v=72
22743 On ch=4 n=76 v=0
22744 On ch=4 n=80 v=0
22796 On ch=4 n=75 v=0
22813 On ch=4 n=78 v=0
22861 On ch=4 n=75 v=68
22862 On ch=4 n=78 v=80
22928 On ch=4 n=75 v=0
22963 On ch=4 n=78 v=0
22980 On ch=4 n=73 v=72
22980 On ch=4 n=76 v=80
23028 On ch=4 n=76 v=0
23029 On ch=4 n=73 v=0
23100 On ch=4 n=73 v=62
23101 On ch=4 n=76 v=50
23139 On ch=4 n=73 v=0
23159 On ch=4 n=76 v=0
23217 On ch=4 n=73 v=53
23221 On ch=4 n=76 v=68
23273 On ch=4 n=73 v=0
23277 On ch=4 n=76 v=0
23281 On ch=4 n=71 v=80
23282 On ch=4 n=75 v=72
23332 On ch=4 n=75 v=0
23337 On ch=4 n=71 v=0
23401 On ch=4 n=71 v=84
23402 On ch=4 n=75 v=65
23459 On ch=4 n=71 v=0
23460 On ch=4 n=75 v=0
23520 On ch=4 n=73 v=80
23521 On ch=4 n=70 v=65
23578 On ch=4 n=70 v=0
23589 On ch=4 n=73 v=0
23639 On ch=4 n=71 v=80
23640 On ch=4 n=75 v=65
23700 On ch=4 n=70 v=72
23701 On ch=4 n=73 v=68
23703 On ch=4 n=71 v=0
23708 On ch=4 n=75 v=0
23753 On ch=4 n=70 v=0
23761 On ch=4 n=73 v=0
23819 On ch=4 n=68 v=68
23820 On ch=4 n=71 v=84
23864 On ch=4 n=68 v=0
23869 On ch=4 n=71 v=0
23938 On ch=4 n=66 v=65
23939 On ch=4 n=70 v=68
24430 On ch=4 n=70 v=0
24434 On ch=4 n=66 v=0
24841 On ch=4 n=75 v=80
24844 On ch=4 n=78 v=97
24877 On ch=4 n=75 v=0
24907 On ch=4 n=78 v=0
24963 On ch=4 n=75 v=84
24966 On ch=4 n=78 v=92
25016 On ch=4 n=75 v=0
25026 On ch=4 n=78 v=0
25083 On ch=4 n=75 v=72
25085 On ch=4 n=78 v=76
25141 On ch=4 n=75 v=0
25143 On ch=4 n=73 v=80
25148 On ch=4 n=76 v=84
25164 On ch=4 n=78 v=0
25201 On ch=4 n=73 v=0
25211 On ch=4 n=76 v=0
25263 On ch=4 n=73 v=72
25266 On ch=4 n=76 v=84
25323 On ch=4 n=73 v=0
25341 On ch=4 n=76 v=0
25383 On ch=4 n=75 v=76
25385 On ch=4 n=71 v=80
25439 On ch=4 n=71 v=0
25448 On ch=4 n=75 v=0
25506 On ch=4 n=71 v=68
25506 On ch=4 n=75 v=72
25594 On ch=4 n=71 v=0
25617 On ch=4 n=75 v=0
25678 On ch=4 n=71 v=72
25681 On ch=4 n=75 v=97
25877 On ch=4 n=71 v=0
25889 On ch=4 n=75 v=0
25905 On ch=4 n=69 v=84
25905 On ch=4 n=73 v=80
26572 On ch=4 n=73 v=0
26585 On ch=4 n=69 v=0
27000 On ch=4 n=76 v=88
27025 On ch=4 n=76 v=0
27059 On ch=4 n=76 v=88
27120 On ch=4 n=74 v=88
27127 On ch=4 n=76 v=0
27204 On ch=4 n=74 v=0
27240 On ch=4 n=74 v=80
27300 On ch=4 n=74 v=0
27300 On ch=4 n=73 v=62
27372 On ch=4 n=73 v=0
27421 On ch=4 n=73 v=88
27556 On ch=4 n=73 v=0
27601 On ch=4 n=71 v=76
27682 On ch=4 n=71 v=0
27721 On ch=4 n=69 v=84
27788 On ch=4 n=69 v=0
27841 On ch=4 n=74 v=84
27904 On ch=4 n=74 v=0
27960 On ch=4 n=74 v=80
28011 On ch=4 n=74 v=0
28021 On ch=4 n=73 v=92
28113 On ch=4 n=73 v=0
28143 On ch=4 n=69 v=76
28173 On ch=4 n=69 v=0
28200 On ch=4 n=71 v=62
28714 On ch=4 n=71 v=0
29398 On ch=4 n=73 v=84
29613 On ch=4 n=73 v=0
29642 On ch=4 n=71 v=65
29704 On ch=4 n=70 v=76
29714 On ch=4 n=71 v=0
29804 On ch=4 n=70 v=0
29872 On ch=4 n=66 v=84
29948 On ch=4 n=66 v=0
29996 On ch=4 n=68 v=80
30089 On ch=4 n=68 v=0
30121 On ch=4 n=70 v=72
30191 On ch=4 n=70 v=0
30241 On ch=4 n=71 v=84
30319 On ch=4 n=71 v=0
30361 On ch=4 n=70 v=76
30412 On ch=4 n=70 v=0
30424 On ch=4 n=68 v=88
30492 On ch=4 n=68 v=0
30543 On ch=4 n=66 v=80
30588 On ch=4 n=66 v=0
30600 On ch=4 n=68 v=88
30695 On ch=4 n=68 v=0
30840 On ch=4 n=68 v=117
30840 On ch=4 n=71 v=77
30910 On ch=4 n=68 v=0
30919 On ch=4 n=71 v=0
30960 On ch=4 n=69 v=88
30960 On ch=4 n=73 v=62
31043 On ch=4 n=73 v=0
31055 On ch=4 n=69 v=0
31080 On ch=4 n=71 v=121
31080 On ch=4 n=74 v=77
31149 On ch=4 n=71 v=0
31161 On ch=4 n=74 v=0
31200 On ch=4 n=73 v=108
31200 On ch=4 n=76 v=81
31351 On ch=4 n=76 v=0
31366 On ch=4 n=73 v=0
31440 On ch=4 n=73 v=117
31440 On ch=4 n=76 v=73
31480 On ch=4 n=76 v=0
31485 On ch=4 n=73 v=0
31500 On ch=4 n=74 v=108
31500 On ch=4 n=78 v=73
31573 On ch=4 n=74 v=0
31583 On ch=4 n=78 v=0
31620 On ch=4 n=73 v=112
31620 On ch=4 n=78 v=65
31679 On ch=4 n=73 v=0
31705 On ch=4 n=78 v=0
31740 On ch=4 n=71 v=104
31740 On ch=4 n=73 v=52
31792 On ch=4 n=71 v=0
31818 On ch=4 n=73 v=0
31860 On ch=4 n=69 v=104
31860 On ch=4 n=73 v=50
31945 On ch=4 n=73 v=0
31988 On ch=4 n=69 v=0
32160 On ch=4 n=76 v=112
32160 On ch=4 n=81 v=85
32296 On ch=4 n=81 v=0
32302 On ch=4 n=76 v=0
32340 On ch=4 n=73 v=108
32340 On ch=4 n=76 v=50
32355 On ch=4 n=76 v=0
32363 On ch=4 n=73 v=0
32400 On ch=4 n=73 v=100
32400 On ch=4 n=76 v=62
32439 On ch=4 n=76 v=0
32440 On ch=4 n=73 v=0
32460 On ch=4 n=74 v=108
32460 On ch=4 n=78 v=65
32530 On ch=4 n=74 v=0
32531 On ch=4 n=78 v=0
32580 On ch=4 n=73 v=100
32580 On ch=4 n=78 v=47
32645 On ch=4 n=73 v=0
32656 On ch=4 n=78 v=0
32700 On ch=4 n=71 v=108
32700 On ch=4 n=74 v=50
32781 On ch=4 n=74 v=0
32800 On ch=4 n=71 v=0
32820 On ch=4 n=69 v=104
32820 On ch=4 n=73 v=50
32902 On ch=4 n=73 v=0
32909 On ch=4 n=69 v=0
32940 On ch=4 n=71 v=104
32940 On ch=4 n=74 v=56
33012 On ch=4 n=71 v=0
33016 On ch=4 n=74 v=0
33060 On ch=4 n=69 v=100
33060 On ch=4 n=74 v=62
33426 On ch=4 n=74 v=0
33523 On ch=4 n=69 v=0
33840 On ch=4 n=74 v=104
33840 On ch=4 n=78 v=59
33870 On ch=4 n=78 v=0
33900 On ch=4 n=73 v=104
33900 On ch=4 n=76 v=56
33913 On ch=4 n=74 v=0
33975 On ch=4 n=73 v=0
33985 On ch=4 n=76 v=0
34020 On ch=4 n=71 v=108
34020 On ch=4 n=76 v=56
34303 On ch=4 n=76 v=0
34340 On ch=4 n=71 v=0
34680 On ch=4 n=68 v=117
34680 On ch=4 n=71 v=77
34750 On ch=4 n=68 v=0
34759 On ch=4 n=71 v=0
34800 On ch=4 n=69 v=88
34800 On ch=4 n=73 v=62
34883 On ch=4 n=73 v=0
34895 On ch=4 n=69 v=0
34920 On ch=4 n=71 v=121
34920 On ch=4 n=74 v=77
34989 On ch=4 n=71 v=0
35001 On ch=4 n=74 v=0
35040 On ch=4 n=73 v=108
35040 On ch=4 n=76 v=81
35191 On ch=4 n=76 v=0
35206 On ch=4 n=73 v=0
35280 On ch=4 n=73 v=117
35280 On ch=4 n=76 v=73
35320 On ch=4 n=76 v=0
35325 On ch=4 n=73 v=0
35340 On ch=4 n=74 v=108
35340 On ch=4 n=78 v=73
35413 On ch=4 n=74 v=0
35423 On ch=4 n=78 v=0
35460 On ch=4 n=73 v=112
35460 On ch=4 n=78 v=65
35519 On ch=4 n=73 v=0
35545 On ch=4 n=78 v=0
35580 On ch=4 n=71 v=104
35580 On ch=4 n=73 v=52
35632 On ch=4 n=71 v=0
35658 On ch=4 n=73 v=0
35700 On ch=4 n=69 v=104
35700 On ch=4 n=73 v=50
35785 On ch=4 n=73 v=0
35828 On ch=4 n=69 v=0
36000 On ch=4 n=76 v=112
36000 On ch=4 n=81 v=85
36136 On ch=4 n=81 v=0
36142 On ch=4 n=76 v=0
36180 On ch=4 n=73 v=108
36180 On ch=4 n=76 v=50
36195 On ch=4 n=76 v=0
36203 On ch=4 n=73 v=0
36240 On ch=4 n=73 v=100
36240 On ch=4 n=76 v=62
36279 On ch=4 n=76 v=0
36280 On ch=4 n=73 v=0
36300 On ch=4 n=74 v=108
36300 On ch=4 n=78 v=65
36370 On ch=4 n=74 v=0
36371 On ch=4 n=78 v=0
36420 On ch=4 n=73 v=100
36420 On ch=4 n=78 v=47
36485 On ch=4 n=73 v=0
36496 On ch=4 n=78 v=0
36540 On ch=4 n=71 v=108
36540 On ch=4 n=74 v=50
36621 On ch=4 n=74 v=0
36640 On ch=4 n=71 v=0
36660 On ch=4 n=69 v=104
36660 On ch=4 n=73 v=50
36742 On ch=4 n=73 v=0
36749 On ch=4 n=69 v=0
36780 On ch=4 n=71 v=104
36780 On ch=4 n=74 v=56
36852 On ch=4 n=71 v=0
36856 On ch=4 n=74 v=0
36900 On ch=4 n=69 v=100
36900 On ch=4 n=74 v=62
37266 On ch=4 n=74 v=0
37363 On ch=4 n=69 v=0
37620 On ch=4 n=74 v=104
37620 On ch=4 n=78 v=59
37678 On ch=4 n=74 v=0
37681 On ch=4 n=78 v=0
37740 On ch=4 n=73 v=104
37740 On ch=4 n=76 v=56
37815 On ch=4 n=73 v=0
37825 On ch=4 n=76 v=0
37860 On ch=4 n=71 v=108
37860 On ch=4 n=74 v=56
38143 On ch=4 n=74 v=0
38180 On ch=4 n=71 v=0
38581 On ch=4 n=71 v=98
38581 On ch=4 n=76 v=27
38659 On ch=4 n=76 v=0
38685 On ch=4 n=71 v=0
38701 On ch=4 n=74 v=33
38701 On ch=4 n=71 v=90
38777 On ch=4 n=74 v=0
38784 On ch=4 n=71 v=0
38821 On ch=4 n=73 v=57
38823 On ch=4 n=70 v=78
39011 On ch=4 n=73 v=0
39016 On ch=4 n=70 v=0
40923 On ch=4 n=80 v=76
40923 On ch=4 n=76 v=72
40939 On ch=4 n=76 v=0
40942 On ch=4 n=80 v=0
40981 On ch=4 n=80 v=84
40981 On ch=4 n=76 v=84
41020 On ch=4 n=76 v=0
41029 On ch=4 n=80 v=0
41040 On ch=4 n=75 v=68
41040 On ch=4 n=78 v=92
41097 On ch=4 n=75 v=0
41113 On ch=4 n=78 v=0
41159 On ch=4 n=75 v=80
41160 On ch=4 n=78 v=84
41213 On ch=4 n=75 v=0
41221 On ch=4 n=78 v=0
41222 On ch=4 n=76 v=84
41223 On ch=4 n=73 v=80
41273 On ch=4 n=76 v=0
41276 On ch=4 n=73 v=0
41343 On ch=4 n=76 v=72
41343 On ch=4 n=73 v=72
41393 On ch=4 n=73 v=0
41401 On ch=4 n=76 v=0
41459 On ch=4 n=73 v=62
41461 On ch=4 n=76 v=76
41510 On ch=4 n=73 v=0
41522 On ch=4 n=76 v=0
41522 On ch=4 n=75 v=65
41523 On ch=4 n=71 v=76
41573 On ch=4 n=71 v=0
41576 On ch=4 n=75 v=0
41639 On ch=4 n=71 v=80
41641 On ch=4 n=75 v=80
41707 On ch=4 n=71 v=0
41711 On ch=4 n=75 v=0
41761 On ch=4 n=70 v=76
41761 On ch=4 n=73 v=80
41824 On ch=4 n=70 v=0
41831 On ch=4 n=73 v=0
41878 On ch=4 n=71 v=80
41879 On ch=4 n=75 v=68
41937 On ch=4 n=71 v=0
41939 On ch=4 n=70 v=68
41941 On ch=4 n=73 v=72
41958 On ch=4 n=75 v=0
41998 On ch=4 n=70 v=0
42004 On ch=4 n=73 v=0
42059 On ch=4 n=71 v=84
42059 On ch=4 n=68 v=76
42106 On ch=4 n=68 v=0
42109 On ch=4 n=71 v=0
42178 On ch=4 n=66 v=72
42178 On ch=4 n=70 v=62
42550 On ch=4 n=66 v=0
42584 On ch=4 n=70 v=0
43324 On ch=4 n=59 v=72
43349 On ch=4 n=59 v=0
43383 On ch=4 n=59 v=68
43442 On ch=4 n=63 v=84
43453 On ch=4 n=59 v=0
43503 On ch=4 n=66 v=80
43520 On ch=4 n=63 v=0
43583 On ch=4 n=66 v=0
43619 On ch=4 n=71 v=88
43694 On ch=4 n=71 v=0
43743 On ch=4 n=63 v=92
43818 On ch=4 n=63 v=0
43864 On ch=4 n=63 v=76
43947 On ch=4 n=63 v=0
43985 On ch=4 n=66 v=80
44068 On ch=4 n=66 v=0
44153 On ch=4 n=71 v=88
44263 On ch=4 n=71 v=0
44333 On ch=4 n=69 v=80
44744 On ch=4 n=69 v=0
45240 On ch=4 n=76 v=88
45265 On ch=4 n=76 v=0
45299 On ch=4 n=76 v=88
45360 On ch=4 n=74 v=88
45367 On ch=4 n=76 v=0
45444 On ch=4 n=74 v=0
45480 On ch=4 n=74 v=80
45540 On ch=4 n=74 v=0
45540 On ch=4 n=73 v=62
45612 On ch=4 n=73 v=0
45661 On ch=4 n=73 v=88
45796 On ch=4 n=73 v=0
45841 On ch=4 n=71 v=76
45922 On ch=4 n=71 v=0
45961 On ch=4 n=69 v=84
46028 On ch=4 n=69 v=0
46081 On ch=4 n=74 v=84
46144 On ch=4 n=74 v=0
46200 On ch=4 n=74 v=80
46251 On ch=4 n=74 v=0
46261 On ch=4 n=73 v=92
46353 On ch=4 n=73 v=0
46383 On ch=4 n=69 v=76
46413 On ch=4 n=69 v=0
46440 On ch=4 n=71 v=62
46954 On ch=4 n=71 v=0
47638 On ch=4 n=73 v=84
47853 On ch=4 n=73 v=0
47882 On ch=4 n=71 v=65
47944 On ch=4 n=70 v=76
47954 On ch=4 n=71 v=0
48044 On ch=4 n=70 v=0
48112 On ch=4 n=66 v=84
48188 On ch=4 n=66 v=0
48236 On ch=4 n=68 v=80
48329 On ch=4 n=68 v=0
48361 On ch=4 n=70 v=72
48431 On ch=4 n=70 v=0
48481 On ch=4 n=71 v=84
48559 On ch=4 n=71 v=0
48601 On ch=4 n=70 v=76
48652 On ch=4 n=70 v=0
48664 On ch=4 n=68 v=88
48732 On ch=4 n=68 v=0
48783 On ch=4 n=66 v=80
48828 On ch=4 n=66 v=0
48840 On ch=4 n=68 v=88
48935 On ch=4 n=68 v=0
49080 On ch=4 n=68 v=117
49080 On ch=4 n=71 v=56
49150 On ch=4 n=68 v=0
49159 On ch=4 n=71 v=0
49200 On ch=4 n=69 v=88
49200 On ch=4 n=73 v=41
49283 On ch=4 n=73 v=0
49295 On ch=4 n=69 v=0
49320 On ch=4 n=71 v=121
49320 On ch=4 n=74 v=56
49389 On ch=4 n=71 v=0
49401 On ch=4 n=74 v=0
49440 On ch=4 n=73 v=108
49440 On ch=4 n=76 v=60
49591 On ch=4 n=76 v=0
49606 On ch=4 n=73 v=0
49680 On ch=4 n=73 v=117
49680 On ch=4 n=76 v=52
49720 On ch=4 n=76 v=0
49725 On ch=4 n=73 v=0
49740 On ch=4 n=74 v=108
49740 On ch=4 n=78 v=52
49813 On ch=4 n=74 v=0
49823 On ch=4 n=78 v=0
49860 On ch=4 n=73 v=112
49860 On ch=4 n=78 v=44
49919 On ch=4 n=73 v=0
49945 On ch=4 n=78 v=0
49980 On ch=4 n=71 v=104
49980 On ch=4 n=73 v=31
50032 On ch=4 n=71 v=0
50058 On ch=4 n=73 v=0
50100 On ch=4 n=69 v=104
50100 On ch=4 n=73 v=29
50185 On ch=4 n=73 v=0
50228 On ch=4 n=69 v=0
50400 On ch=4 n=76 v=112
50400 On ch=4 n=81 v=64
50536 On ch=4 n=81 v=0
50542 On ch=4 n=76 v=0
50580 On ch=4 n=73 v=108
50580 On ch=4 n=76 v=29
50595 On ch=4 n=76 v=0
50603 On ch=4 n=73 v=0
50640 On ch=4 n=73 v=100
50640 On ch=4 n=76 v=41
50679 On ch=4 n=76 v=0
50680 On ch=4 n=73 v=0
50700 On ch=4 n=74 v=108
50700 On ch=4 n=78 v=44
50770 On ch=4 n=74 v=0
50771 On ch=4 n=78 v=0
50820 On ch=4 n=73 v=100
50820 On ch=4 n=78 v=26
50885 On ch=4 n=73 v=0
50896 On ch=4 n=78 v=0
50940 On ch=4 n=71 v=108
50940 On ch=4 n=74 v=29
51021 On ch=4 n=74 v=0
51040 On ch=4 n=71 v=0
51060 On ch=4 n=69 v=104
51060 On ch=4 n=73 v=29
51142 On ch=4 n=73 v=0
51149 On ch=4 n=69 v=0
51180 On ch=4 n=71 v=104
51180 On ch=4 n=74 v=35
51252 On ch=4 n=71 v=0
51256 On ch=4 n=74 v=0
51300 On ch=4 n=69 v=100
51300 On ch=4 n=74 v=41
51666 On ch=4 n=74 v=0
51763 On ch=4 n=69 v=0
52080 On ch=4 n=74 v=104
52080 On ch=4 n=78 v=38
52110 On ch=4 n=78 v=0
52140 On ch=4 n=73 v=104
52140 On ch=4 n=76 v=35
52153 On ch=4 n=74 v=0
52215 On ch=4 n=73 v=0
52225 On ch=4 n=76 v=0
52260 On ch=4 n=71 v=108
52260 On ch=4 n=76 v=35
52543 On ch=4 n=76 v=0
52580 On ch=4 n=71 v=0
52920 On ch=4 n=68 v=117
52920 On ch=4 n=71 v=56
52990 On ch=4 n=68 v=0
52999 On ch=4 n=71 v=0
53040 On ch=4 n=69 v=88
53040 On ch=4 n=73 v=41
53123 On ch=4 n=73 v=0
53135 On ch=4 n=69 v=0
53160 On ch=4 n=71 v=121
53160 On ch=4 n=74 v=56
53229 On ch=4 n=71 v=0
53241 On ch=4 n=74 v=0
53280 On ch=4 n=73 v=108
53280 On ch=4 n=76 v=60
53431 On ch=4 n=76 v=0
53446 On ch=4 n=73 v=0
53520 On ch=4 n=73 v=117
53520 On ch=4 n=76 v=52
53560 On ch=4 n=76 v=0
53565 On ch=4 n=73 v=0
53580 On ch=4 n=74 v=108
53580 On ch=4 n=78 v=52
53653 On ch=4 n=74 v=0
53663 On ch=4 n=78 v=0
53700 On ch=4 n=73 v=112
53700 On ch=4 n=78 v=44
53759 On ch=4 n=73 v=0
53785 On ch=4 n=78 v=0
53820 On ch=4 n=71 v=104
53820 On ch=4 n=73 v=31
53872 On ch=4 n=71 v=0
53898 On ch=4 n=73 v=0
53940 On ch=4 n=69 v=104
53940 On ch=4 n=73 v=29
54025 On ch=4 n=73 v=0
54068 On ch=4 n=69 v=0
54240 On ch=4 n=76 v=112
54240 On ch=4 n=81 v=64
54376 On ch=4 n=81 v=0
54382 On ch=4 n=76 v=0
54420 On ch=4 n=73 v=108
54420 On ch=4 n=76 v=29
54435 On ch=4 n=76 v=0
54443 On ch=4 n=73 v=0
54480 On ch=4 n=73 v=100
54480 On ch=4 n=76 v=41
54519 On ch=4 n=76 v=0
54520 On ch=4 n=73 v=0
54540 On ch=4 n=74 v=108
54540 On ch=4 n=78 v=44
54610 On ch=4 n=74 v=0
54611 On ch=4 n=78 v=0
54660 On ch=4 n=73 v=100
54660 On ch=4 n=78 v=26
54725 On ch=4 n=73 v=0
54736 On ch=4 n=78 v=0
54780 On ch=4 n=71 v=108
54780 On ch=4 n=74 v=29
54861 On ch=4 n=74 v=0
54880 On ch=4 n=71 v=0
54900 On ch=4 n=69 v=104
54900 On ch=4 n=73 v=29
54982 On ch=4 n=73 v=0
54989 On ch=4 n=69 v=0
55020 On ch=4 n=71 v=104
55020 On ch=4 n=74 v=35
55092 On ch=4 n=71 v=0
55096 On ch=4 n=74 v=0
55140 On ch=4 n=69 v=100
55140 On ch=4 n=74 v=41
55506 On ch=4 n=74 v=0
55603 On ch=4 n=69 v=0
55860 On ch=4 n=74 v=104
55860 On ch=4 n=78 v=38
55918 On ch=4 n=74 v=0
55921 On ch=4 n=78 v=0
55980 On ch=4 n=73 v=104
55980 On ch=4 n=76 v=35
56055 On ch=4 n=73 v=0
56065 On ch=4 n=76 v=0
56100 On ch=4 n=71 v=108
56100 On ch=4 n=74 v=35
56383 On ch=4 n=74 v=0
56420 On ch=4 n=71 v=0
59163 On ch=4 n=80 v=78
59163 On ch=4 n=76 v=74
59179 On ch=4 n=76 v=0
59182 On ch=4 n=80 v=0
59221 On ch=4 n=80 v=86
59221 On ch=4 n=76 v=86
59260 On ch=4 n=76 v=0
59269 On ch=4 n=80 v=0
59280 On ch=4 n=75 v=70
59280 On ch=4 n=78 v=94
59337 On ch=4 n=75 v=0
59353 On ch=4 n=78 v=0
59399 On ch=4 n=75 v=82
59400 On ch=4 n=78 v=86
59453 On ch=4 n=75 v=0
59461 On ch=4 n=78 v=0
59462 On ch=4 n=76 v=86
59463 On ch=4 n=73 v=82
59513 On ch=4 n=76 v=0
59516 On ch=4 n=73 v=0
59583 On ch=4 n=76 v=74
59583 On ch=4 n=73 v=74
59633 On ch=4 n=73 v=0
59641 On ch=4 n=76 v=0
59699 On ch=4 n=73 v=64
59701 On ch=4 n=76 v=78
59750 On ch=4 n=73 v=0
59762 On ch=4 n=76 v=0
59762 On ch=4 n=75 v=67
59763 On ch=4 n=71 v=78
59813 On ch=4 n=71 v=0
59816 On ch=4 n=75 v=0
59879 On ch=4 n=71 v=82
59881 On ch=4 n=75 v=82
59947 On ch=4 n=71 v=0
59951 On ch=4 n=75 v=0
60001 On ch=4 n=70 v=78
60001 On ch=4 n=73 v=82
60064 On ch=4 n=70 v=0
60071 On ch=4 n=73 v=0
60118 On ch=4 n=71 v=82
60119 On ch=4 n=75 v=70
60177 On ch=4 n=71 v=0
60179 On ch=4 n=70 v=70
60181 On ch=4 n=73 v=74
60198 On ch=4 n=75 v=0
60238 On ch=4 n=70 v=0
60244 On ch=4 n=73 v=0
60299 On ch=4 n=71 v=86
60299 On ch=4 n=68 v=78
60346 On ch=4 n=68 v=0
60349 On ch=4 n=71 v=0
60418 On ch=4 n=66 v=74
60418 On ch=4 n=70 v=64
60790 On ch=4 n=66 v=0
60824 On ch=4 n=70 v=0
61564 On ch=4 n=59 v=74
61589 On ch=4 n=59 v=0
61623 On ch=4 n=59 v=70
61682 On ch=4 n=63 v=86
61693 On ch=4 n=59 v=0
61743 On ch=4 n=66 v=82
61760 On ch=4 n=63 v=0
61823 On ch=4 n=66 v=0
61859 On ch=4 n=71 v=90
61934 On ch=4 n=71 v=0
61983 On ch=4 n=63 v=94
62058 On ch=4 n=63 v=0
62104 On ch=4 n=63 v=78
62187 On ch=4 n=63 v=0
62225 On ch=4 n=66 v=82
62308 On ch=4 n=66 v=0
62393 On ch=4 n=71 v=90
62503 On ch=4 n=71 v=0
62573 On ch=4 n=69 v=82
62984 On ch=4 n=69 v=0
63480 On ch=4 n=76 v=90
63505 On ch=4 n=76 v=0
63539 On ch=4 n=76 v=90
63600 On ch=4 n=74 v=90
63607 On ch=4 n=76 v=0
63684 On ch=4 n=74 v=0
63720 On ch=4 n=74 v=82
63780 On ch=4 n=74 v=0
63780 On ch=4 n=73 v=64
63852 On ch=4 n=73 v=0
63901 On ch=4 n=73 v=90
64036 On ch=4 n=73 v=0
64081 On ch=4 n=71 v=78
64162 On ch=4 n=71 v=0
64201 On ch=4 n=69 v=86
64268 On ch=4 n=69 v=0
64321 On ch=4 n=74 v=86
64384 On ch=4 n=74 v=0
64440 On ch=4 n=74 v=82
64491 On ch=4 n=74 v=0
64501 On ch=4 n=73 v=94
64593 On ch=4 n=73 v=0
64623 On ch=4 n=69 v=78
64653 On ch=4 n=69 v=0
64680 On ch=4 n=71 v=64
65194 On ch=4 n=71 v=0
65878 On ch=4 n=73 v=86
66093 On ch=4 n=73 v=0
66122 On ch=4 n=71 v=67
66184 On ch=4 n=70 v=78
66194 On ch=4 n=71 v=0
66284 On ch=4 n=70 v=0
66352 On ch=4 n=66 v=86
66428 On ch=4 n=66 v=0
66476 On ch=4 n=68 v=82
66569 On ch=4 n=68 v=0
66601 On ch=4 n=70 v=74
66671 On ch=4 n=70 v=0
66721 On ch=4 n=71 v=86
66799 On ch=4 n=71 v=0
66841 On ch=4 n=70 v=78
66892 On ch=4 n=70 v=0
66904 On ch=4 n=68 v=90
66972 On ch=4 n=68 v=0
67023 On ch=4 n=66 v=82
67068 On ch=4 n=66 v=0
67080 On ch=4 n=68 v=90
67175 On ch=4 n=68 v=0
67320 On ch=4 n=68 v=117
67320 On ch=4 n=71 v=78
67390 On ch=4 n=68 v=0
67399 On ch=4 n=71 v=0
67440 On ch=4 n=69 v=88
67440 On ch=4 n=73 v=63
67523 On ch=4 n=73 v=0
67535 On ch=4 n=69 v=0
67560 On ch=4 n=71 v=121
67560 On ch=4 n=74 v=78
67629 On ch=4 n=71 v=0
67641 On ch=4 n=74 v=0
67680 On ch=4 n=73 v=108
67680 On ch=4 n=76 v=82
67831 On ch=4 n=76 v=0
67846 On ch=4 n=73 v=0
67920 On ch=4 n=73 v=117
67920 On ch=4 n=76 v=74
67960 On ch=4 n=76 v=0
67965 On ch=4 n=73 v=0
67980 On ch=4 n=74 v=108
67980 On ch=4 n=78 v=74
68053 On ch=4 n=74 v=0
68063 On ch=4 n=78 v=0
68100 On ch=4 n=73 v=112
68100 On ch=4 n=78 v=66
68159 On ch=4 n=73 v=0
68185 On ch=4 n=78 v=0
68220 On ch=4 n=71 v=104
68220 On ch=4 n=73 v=53
68272 On ch=4 n=71 v=0
68298 On ch=4 n=73 v=0
68340 On ch=4 n=69 v=104
68340 On ch=4 n=73 v=51
68425 On ch=4 n=73 v=0
68468 On ch=4 n=69 v=0
68640 On ch=4 n=76 v=112
68640 On ch=4 n=81 v=86
68776 On ch=4 n=81 v=0
68782 On ch=4 n=76 v=0
68820 On ch=4 n=73 v=108
68820 On ch=4 n=76 v=51
68835 On ch=4 n=76 v=0
68843 On ch=4 n=73 v=0
68880 On ch=4 n=73 v=100
68880 On ch=4 n=76 v=63
68919 On ch=4 n=76 v=0
68920 On ch=4 n=73 v=0
68940 On ch=4 n=74 v=108
68940 On ch=4 n=78 v=66
69010 On ch=4 n=74 v=0
69011 On ch=4 n=78 v=0
69060 On ch=4 n=73 v=100
69060 On ch=4 n=78 v=48
69125 On ch=4 n=73 v=0
69136 On ch=4 n=78 v=0
69180 On ch=4 n=71 v=108
69180 On ch=4 n=74 v=51
69261 On ch=4 n=74 v=0
69280 On ch=4 n=71 v=0
69300 On ch=4 n=69 v=104
69300 On ch=4 n=73 v=51
69382 On ch=4 n=73 v=0
69389 On ch=4 n=69 v=0
69420 On ch=4 n=71 v=104
69420 On ch=4 n=74 v=57
69492 On ch=4 n=71 v=0
69496 On ch=4 n=74 v=0
69540 On ch=4 n=69 v=100
69540 On ch=4 n=74 v=63
69906 On ch=4 n=74 v=0
70003 On ch=4 n=69 v=0
70320 On ch=4 n=74 v=104
70320 On ch=4 n=78 v=60
70350 On ch=4 n=78 v=0
70380 On ch=4 n=73 v=104
70380 On ch=4 n=76 v=57
70393 On ch=4 n=74 v=0
70455 On ch=4 n=73 v=0
70465 On ch=4 n=76 v=0
70500 On ch=4 n=71 v=108
70500 On ch=4 n=76 v=57
70783 On ch=4 n=76 v=0
70820 On ch=4 n=71 v=0
71160 On ch=4 n=68 v=117
71160 On ch=4 n=71 v=78
71230 On ch=4 n=68 v=0
71239 On ch=4 n=71 v=0
71280 On ch=4 n=69 v=88
71280 On ch=4 n=73 v=63
71363 On ch=4 n=73 v=0
71375 On ch=4 n=69 v=0
71400 On ch=4 n=71 v=121
71400 On ch=4 n=74 v=78
71469 On ch=4 n=71 v=0
71481 On ch=4 n=74 v=0
71520 On ch=4 n=73 v=108
71520 On ch=4 n=76 v=82
71671 On ch=4 n=76 v=0
71686 On ch=4 n=73 v=0
71760 On ch=4 n=73 v=117
71760 On ch=4 n=76 v=74
71800 On ch=4 n=76 v=0
71805 On ch=4 n=73 v=0
71820 On ch=4 n=74 v=108
71820 On ch=4 n=78 v=74
71893 On ch=4 n=74 v=0
71903 On ch=4 n=78 v=0
71940 On ch=4 n=73 v=112
71940 On ch=4 n=78 v=66
71999 On ch=4 n=73 v=0
72025 On ch=4 n=78 v=0
72060 On ch=4 n=71 v=104
72060 On ch=4 n=73 v=53
72112 On ch=4 n=71 v=0
72138 On ch=4 n=73 v=0
72180 On ch=4 n=69 v=104
72180 On ch=4 n=73 v=51
72265 On ch=4 n=73 v=0
72308 On ch=4 n=69 v=0
72480 On ch=4 n=76 v=112
72480 On ch=4 n=81 v=86
72616 On ch=4 n=81 v=0
72622 On ch=4 n=76 v=0
72660 On ch=4 n=73 v=108
72660 On ch=4 n=76 v=51
72675 On ch=4 n=76 v=0
72683 On ch=4 n=73 v=0
72720 On ch=4 n=73 v=100
72720 On ch=4 n=76 v=63
72759 On ch=4 n=76 v=0
72760 On ch=4 n=73 v=0
72780 On ch=4 n=74 v=108
72780 On ch=4 n=78 v=66
72850 On ch=4 n=74 v=0
72851 On ch=4 n=78 v=0
72900 On ch=4 n=73 v=100
72900 On ch=4 n=78 v=48
72965 On ch=4 n=73 v=0
72976 On ch=4 n=78 v=0
73020 On ch=4 n=71 v=108
73020 On ch=4 n=74 v=51
73101 On ch=4 n=74 v=0
73120 On ch=4 n=71 v=0
73140 On ch=4 n=69 v=104
73140 On ch=4 n=73 v=51
73222 On ch=4 n=73 v=0
73229 On ch=4 n=69 v=0
73260 On ch=4 n=71 v=104
73260 On ch=4 n=74 v=57
73332 On ch=4 n=71 v=0
73336 On ch=4 n=74 v=0
73380 On ch=4 n=69 v=100
73380 On ch=4 n=74 v=63
73746 On ch=4 n=74 v=0
73843 On ch=4 n=69 v=0
74100 On ch=4 n=74 v=104
74100 On ch=4 n=78 v=60
74158 On ch=4 n=74 v=0
74161 On ch=4 n=78 v=0
74220 On ch=4 n=73 v=104
74220 On ch=4 n=76 v=57
74295 On ch=4 n=73 v=0
74305 On ch=4 n=76 v=0
74340 On ch=4 n=71 v=108
74340 On ch=4 n=74 v=57
74623 On ch=4 n=74 v=0
74660 On ch=4 n=71 v=0
75061 On ch=4 n=71 v=98
75061 On ch=4 n=76 v=27
75139 On ch=4 n=76 v=0
75165 On ch=4 n=71 v=0
75181 On ch=4 n=74 v=33
75181 On ch=4 n=71 v=90
75257 On ch=4 n=74 v=0
75264 On ch=4 n=71 v=0
75301 On ch=4 n=73 v=57
75303 On ch=4 n=70 v=78
75491 On ch=4 n=73 v=0
75496 On ch=4 n=70 v=0
75496 Meta TrkEnd
TrkEnd
MTrk
0 Meta 0x21 00
0 Par ch=6 c=0 v=0
0 Par ch=6 c=32 v=0
0 PrCh ch=6 p=100
0 Par ch=6 c=7 v=110
0 Par ch=6 c=10 v=64
106 Par ch=6 c=121 v=0
145 Par ch=6 c=11 v=127
145 Par ch=6 c=93 v=60
145 Par ch=6 c=91 v=60
4323 On ch=6 n=76 v=43
4325 On ch=6 n=80 v=41
4433 On ch=6 n=80 v=0
4450 On ch=6 n=76 v=0
4500 On ch=6 n=76 v=38
4500 On ch=6 n=80 v=40
4538 On ch=6 n=76 v=0
4543 On ch=6 n=80 v=0
4559 On ch=6 n=75 v=40
4561 On ch=6 n=76 v=25
4562 On ch=6 n=78 v=38
4572 On ch=6 n=76 v=0
4589 On ch=6 n=75 v=0
4592 On ch=6 n=78 v=0
4620 On ch=6 n=78 v=40
4621 On ch=6 n=75 v=38
4687 On ch=6 n=75 v=0
4696 On ch=6 n=78 v=0
4737 On ch=6 n=76 v=38
4737 On ch=6 n=73 v=38
4888 On ch=6 n=73 v=0
4894 On ch=6 n=76 v=0
4973 On ch=6 n=73 v=32
4975 On ch=6 n=76 v=30
4996 On ch=6 n=76 v=0
4999 On ch=6 n=73 v=0
5038 On ch=6 n=75 v=40
5042 On ch=6 n=71 v=40
5066 On ch=6 n=71 v=0
5071 On ch=6 n=75 v=0
5091 On ch=6 n=71 v=40
5093 On ch=6 n=75 v=40
5159 On ch=6 n=75 v=0
5169 On ch=6 n=71 v=0
5220 On ch=6 n=70 v=34
5221 On ch=6 n=73 v=43
5359 On ch=6 n=70 v=0
5362 On ch=6 n=73 v=0
5463 On ch=6 n=70 v=45
5467 On ch=6 n=73 v=41
5491 On ch=6 n=70 v=0
5493 On ch=6 n=73 v=0
5526 On ch=6 n=71 v=36
5526 On ch=6 n=68 v=33
5548 On ch=6 n=68 v=0
5552 On ch=6 n=71 v=0
5574 On ch=6 n=71 v=34
5576 On ch=6 n=68 v=38
5654 On ch=6 n=68 v=0
5662 On ch=6 n=71 v=0
5702 On ch=6 n=66 v=32
5702 On ch=6 n=70 v=40
5878 On ch=6 n=70 v=0
5878 On ch=6 n=66 v=0
6720 On ch=6 n=75 v=47
6720 On ch=6 n=78 v=43
6821 On ch=6 n=78 v=0
6823 On ch=6 n=75 v=0
6900 On ch=6 n=78 v=34
6900 On ch=6 n=75 v=34
6937 On ch=6 n=75 v=0
6938 On ch=6 n=78 v=0
6960 On ch=6 n=73 v=38
6963 On ch=6 n=76 v=32
6988 On ch=6 n=73 v=0
6992 On ch=6 n=76 v=0
7021 On ch=6 n=73 v=40
7021 On ch=6 n=76 v=33
7094 On ch=6 n=73 v=0
7100 On ch=6 n=76 v=0
7141 On ch=6 n=75 v=45
7141 On ch=6 n=71 v=38
7230 On ch=6 n=75 v=0
7247 On ch=6 n=71 v=0
7435 On ch=6 n=71 v=45
7437 On ch=6 n=75 v=36
7459 On ch=6 n=71 v=0
7460 On ch=6 n=75 v=0
7496 On ch=6 n=75 v=36
7497 On ch=6 n=71 v=36
7571 On ch=6 n=75 v=0
7587 On ch=6 n=71 v=0
7623 On ch=6 n=73 v=41
7623 On ch=6 n=69 v=38
7786 On ch=6 n=73 v=0
7796 On ch=6 n=69 v=0
8757 On ch=6 n=80 v=41
8757 On ch=6 n=76 v=43
8782 On ch=6 n=76 v=0
8790 On ch=6 n=80 v=0
8816 On ch=6 n=76 v=30
8820 On ch=6 n=80 v=30
8875 On ch=6 n=80 v=0
8876 On ch=6 n=74 v=22
8877 On ch=6 n=78 v=33
8891 On ch=6 n=76 v=0
8904 On ch=6 n=74 v=0
8908 On ch=6 n=78 v=0
8938 On ch=6 n=78 v=34
8938 On ch=6 n=74 v=32
9003 On ch=6 n=78 v=0
9004 On ch=6 n=74 v=0
9061 On ch=6 n=73 v=38
9061 On ch=6 n=76 v=40
9106 On ch=6 n=73 v=0
9115 On ch=6 n=76 v=0
9182 On ch=6 n=73 v=33
9182 On ch=6 n=76 v=40
9297 On ch=6 n=76 v=0
9305 On ch=6 n=73 v=0
9363 On ch=6 n=71 v=40
9363 On ch=6 n=74 v=32
9401 On ch=6 n=74 v=0
9412 On ch=6 n=71 v=0
9480 On ch=6 n=73 v=28
9481 On ch=6 n=69 v=14
9517 On ch=6 n=69 v=0
9518 On ch=6 n=73 v=0
9600 On ch=6 n=74 v=40
9601 On ch=6 n=78 v=36
9628 On ch=6 n=78 v=0
9628 On ch=6 n=74 v=0
9660 On ch=6 n=78 v=34
9661 On ch=6 n=74 v=34
9735 On ch=6 n=78 v=0
9741 On ch=6 n=74 v=0
9780 On ch=6 n=76 v=38
9783 On ch=6 n=73 v=34
9837 On ch=6 n=73 v=0
9850 On ch=6 n=76 v=0
9900 On ch=6 n=76 v=33
9900 On ch=6 n=73 v=36
9960 On ch=6 n=73 v=0
9986 On ch=6 n=76 v=0
10020 On ch=6 n=71 v=22
10022 On ch=6 n=74 v=38
10283 On ch=6 n=71 v=0
10292 On ch=6 n=74 v=0
12600 On ch=6 n=68 v=52
12600 On ch=6 n=71 v=35
12670 On ch=6 n=68 v=0
12679 On ch=6 n=71 v=0
12720 On ch=6 n=69 v=38
12720 On ch=6 n=73 v=28
12803 On ch=6 n=73 v=0
12815 On ch=6 n=69 v=0
12840 On ch=6 n=71 v=44
12840 On ch=6 n=74 v=35
12909 On ch=6 n=71 v=0
12921 On ch=6 n=74 v=0
12960 On ch=6 n=73 v=48
12960 On ch=6 n=76 v=37
13111 On ch=6 n=76 v=0
13126 On ch=6 n=73 v=0
13200 On ch=6 n=73 v=52
13200 On ch=6 n=76 v=33
13240 On ch=6 n=76 v=0
13245 On ch=6 n=73 v=0
13260 On ch=6 n=74 v=48
13260 On ch=6 n=78 v=33
13333 On ch=6 n=74 v=0
13343 On ch=6 n=78 v=0
13380 On ch=6 n=73 v=49
13380 On ch=6 n=78 v=30
13439 On ch=6 n=73 v=0
13465 On ch=6 n=78 v=0
13500 On ch=6 n=71 v=46
13500 On ch=6 n=73 v=24
13552 On ch=6 n=71 v=0
13578 On ch=6 n=73 v=0
13620 On ch=6 n=69 v=46
13620 On ch=6 n=73 v=23
13705 On ch=6 n=73 v=0
13748 On ch=6 n=69 v=0
13920 On ch=6 n=76 v=49
13920 On ch=6 n=81 v=38
14056 On ch=6 n=81 v=0
14062 On ch=6 n=76 v=0
14100 On ch=6 n=73 v=48
14100 On ch=6 n=76 v=32
14115 On ch=6 n=76 v=0
14123 On ch=6 n=73 v=0
14160 On ch=6 n=73 v=44
14160 On ch=6 n=76 v=28
14199 On ch=6 n=76 v=0
14200 On ch=6 n=73 v=0
14220 On ch=6 n=74 v=48
14220 On ch=6 n=78 v=30
14290 On ch=6 n=74 v=0
14291 On ch=6 n=78 v=0
14340 On ch=6 n=73 v=44
14340 On ch=6 n=78 v=22
14405 On ch=6 n=73 v=0
14416 On ch=6 n=78 v=0
14460 On ch=6 n=71 v=48
14460 On ch=6 n=74 v=23
14541 On ch=6 n=74 v=0
14560 On ch=6 n=71 v=0
14580 On ch=6 n=69 v=46
14580 On ch=6 n=73 v=23
14662 On ch=6 n=73 v=0
14669 On ch=6 n=69 v=0
14700 On ch=6 n=71 v=46
14700 On ch=6 n=74 v=26
14772 On ch=6 n=71 v=0
14776 On ch=6 n=74 v=0
14820 On ch=6 n=69 v=44
14820 On ch=6 n=74 v=28
15186 On ch=6 n=74 v=0
15283 On ch=6 n=69 v=0
15600 On ch=6 n=74 v=46
15600 On ch=6 n=78 v=27
15630 On ch=6 n=78 v=0
15660 On ch=6 n=73 v=46
15660 On ch=6 n=76 v=26
15673 On ch=6 n=74 v=0
15735 On ch=6 n=73 v=0
15745 On ch=6 n=76 v=0
15780 On ch=6 n=71 v=48
15780 On ch=6 n=76 v=26
16063 On ch=6 n=76 v=0
16100 On ch=6 n=71 v=0
16440 On ch=6 n=68 v=52
16440 On ch=6 n=71 v=34
16510 On ch=6 n=68 v=0
16519 On ch=6 n=71 v=0
16560 On ch=6 n=69 v=38
16560 On ch=6 n=73 v=28
16643 On ch=6 n=73 v=0
16655 On ch=6 n=69 v=0
16680 On ch=6 n=71 v=53
16680 On ch=6 n=74 v=34
16749 On ch=6 n=71 v=0
16761 On ch=6 n=74 v=0
16800 On ch=6 n=73 v=48
16800 On ch=6 n=76 v=36
16951 On ch=6 n=76 v=0
16966 On ch=6 n=73 v=0
17040 On ch=6 n=73 v=52
17040 On ch=6 n=76 v=32
17080 On ch=6 n=76 v=0
17085 On ch=6 n=73 v=0
17100 On ch=6 n=74 v=48
17100 On ch=6 n=78 v=32
17173 On ch=6 n=74 v=0
17183 On ch=6 n=78 v=0
17220 On ch=6 n=73 v=49
17220 On ch=6 n=78 v=29
17279 On ch=6 n=73 v=0
17305 On ch=6 n=78 v=0
17340 On ch=6 n=71 v=46
17340 On ch=6 n=73 v=23
17392 On ch=6 n=71 v=0
17418 On ch=6 n=73 v=0
17460 On ch=6 n=69 v=46
17460 On ch=6 n=73 v=22
17545 On ch=6 n=73 v=0
17588 On ch=6 n=69 v=0
17760 On ch=6 n=76 v=49
17760 On ch=6 n=81 v=38
17896 On ch=6 n=81 v=0
17902 On ch=6 n=76 v=0
17940 On ch=6 n=73 v=48
17940 On ch=6 n=76 v=22
17955 On ch=6 n=76 v=0
17963 On ch=6 n=73 v=0
18000 On ch=6 n=73 v=44
18000 On ch=6 n=76 v=28
18039 On ch=6 n=76 v=0
18040 On ch=6 n=73 v=0
18060 On ch=6 n=74 v=48
18060 On ch=6 n=78 v=29
18130 On ch=6 n=74 v=0
18131 On ch=6 n=78 v=0
18180 On ch=6 n=73 v=44
18180 On ch=6 n=78 v=21
18245 On ch=6 n=73 v=0
18256 On ch=6 n=78 v=0
18300 On ch=6 n=71 v=48
18300 On ch=6 n=74 v=22
18381 On ch=6 n=74 v=0
18400 On ch=6 n=71 v=0
18420 On ch=6 n=69 v=46
18420 On ch=6 n=73 v=22
18502 On ch=6 n=73 v=0
18509 On ch=6 n=69 v=0
18540 On ch=6 n=71 v=46
18540 On ch=6 n=74 v=25
18612 On ch=6 n=71 v=0
18616 On ch=6 n=74 v=0
18660 On ch=6 n=69 v=44
18660 On ch=6 n=74 v=28
19026 On ch=6 n=74 v=0
19123 On ch=6 n=69 v=0
19380 On ch=6 n=74 v=46
19380 On ch=6 n=78 v=26
19438 On ch=6 n=74 v=0
19441 On ch=6 n=78 v=0
19500 On ch=6 n=73 v=46
19500 On ch=6 n=76 v=25
19575 On ch=6 n=73 v=0
19585 On ch=6 n=76 v=0
19620 On ch=6 n=71 v=48
19620 On ch=6 n=74 v=25
19903 On ch=6 n=74 v=0
19940 On ch=6 n=71 v=0
20341 On ch=6 n=71 v=42
20341 On ch=6 n=76 v=14
20419 On ch=6 n=76 v=0
20432 On ch=6 n=71 v=0
20461 On ch=6 n=74 v=18
20461 On ch=6 n=71 v=40
20537 On ch=6 n=74 v=0
20544 On ch=6 n=71 v=0
20581 On ch=6 n=73 v=25
20583 On ch=6 n=70 v=34
20771 On ch=6 n=73 v=0
20776 On ch=6 n=70 v=0
22438 On ch=6 n=76 v=35
22440 On ch=6 n=80 v=38
22483 On ch=6 n=76 v=0
22494 On ch=6 n=80 v=0
22560 On ch=6 n=76 v=37
22561 On ch=6 n=80 v=37
22616 On ch=6 n=76 v=0
22632 On ch=6 n=80 v=0
22680 On ch=6 n=76 v=30
22682 On ch=6 n=80 v=33
22741 On ch=6 n=75 v=27
22741 On ch=6 n=78 v=32
22743 On ch=6 n=76 v=0
22744 On ch=6 n=80 v=0
22796 On ch=6 n=75 v=0
22813 On ch=6 n=78 v=0
22861 On ch=6 n=75 v=30
22862 On ch=6 n=78 v=35
22928 On ch=6 n=75 v=0
22963 On ch=6 n=78 v=0
22980 On ch=6 n=73 v=32
22980 On ch=6 n=76 v=35
23028 On ch=6 n=76 v=0
23029 On ch=6 n=73 v=0
23100 On ch=6 n=73 v=27
23101 On ch=6 n=76 v=22
23139 On ch=6 n=73 v=0
23159 On ch=6 n=76 v=0
23217 On ch=6 n=73 v=23
23221 On ch=6 n=76 v=30
23273 On ch=6 n=73 v=0
23277 On ch=6 n=76 v=0
23281 On ch=6 n=71 v=35
23282 On ch=6 n=75 v=32
23332 On ch=6 n=75 v=0
23337 On ch=6 n=71 v=0
23401 On ch=6 n=71 v=37
23402 On ch=6 n=75 v=28
23459 On ch=6 n=71 v=0
23460 On ch=6 n=75 v=0
23520 On ch=6 n=73 v=35
23521 On ch=6 n=70 v=28
23578 On ch=6 n=70 v=0
23589 On ch=6 n=73 v=0
23639 On ch=6 n=71 v=35
23640 On ch=6 n=75 v=28
23700 On ch=6 n=70 v=32
23701 On ch=6 n=73 v=30
23703 On ch=6 n=71 v=0
23708 On ch=6 n=75 v=0
23753 On ch=6 n=70 v=0
23761 On ch=6 n=73 v=0
23819 On ch=6 n=68 v=30
23820 On ch=6 n=71 v=37
23864 On ch=6 n=68 v=0
23869 On ch=6 n=71 v=0
23938 On ch=6 n=66 v=28
23939 On ch=6 n=70 v=30
24430 On ch=6 n=70 v=0
24434 On ch=6 n=66 v=0
24841 On ch=6 n=75 v=35
24844 On ch=6 n=78 v=42
24877 On ch=6 n=75 v=0
24907 On ch=6 n=78 v=0
24963 On ch=6 n=75 v=37
24966 On ch=6 n=78 v=40
25016 On ch=6 n=75 v=0
25026 On ch=6 n=78 v=0
25083 On ch=6 n=75 v=32
25085 On ch=6 n=78 v=33
25141 On ch=6 n=75 v=0
25143 On ch=6 n=73 v=35
25148 On ch=6 n=76 v=37
25164 On ch=6 n=78 v=0
25201 On ch=6 n=73 v=0
25211 On ch=6 n=76 v=0
25263 On ch=6 n=73 v=32
25266 On ch=6 n=76 v=37
25323 On ch=6 n=73 v=0
25341 On ch=6 n=76 v=0
25383 On ch=6 n=75 v=33
25385 On ch=6 n=71 v=35
25439 On ch=6 n=71 v=0
25448 On ch=6 n=75 v=0
25506 On ch=6 n=71 v=30
25506 On ch=6 n=75 v=32
25594 On ch=6 n=71 v=0
25617 On ch=6 n=75 v=0
25678 On ch=6 n=71 v=32
25681 On ch=6 n=75 v=42
25877 On ch=6 n=71 v=0
25889 On ch=6 n=75 v=0
25905 On ch=6 n=69 v=37
25905 On ch=6 n=73 v=35
26572 On ch=6 n=73 v=0
26585 On ch=6 n=69 v=0
27000 On ch=6 n=76 v=38
27025 On ch=6 n=76 v=0
27059 On ch=6 n=76 v=38
27120 On ch=6 n=74 v=38
27127 On ch=6 n=76 v=0
27204 On ch=6 n=74 v=0
27240 On ch=6 n=74 v=35
27300 On ch=6 n=74 v=0
27300 On ch=6 n=73 v=27
27372 On ch=6 n=73 v=0
27421 On ch=6 n=73 v=38
27556 On ch=6 n=73 v=0
27601 On ch=6 n=71 v=33
27682 On ch=6 n=71 v=0
27721 On ch=6 n=69 v=37
27788 On ch=6 n=69 v=0
27841 On ch=6 n=74 v=37
27904 On ch=6 n=74 v=0
27960 On ch=6 n=74 v=35
28011 On ch=6 n=74 v=0
28021 On ch=6 n=73 v=40
28113 On ch=6 n=73 v=0
28143 On ch=6 n=69 v=33
28173 On ch=6 n=69 v=0
28200 On ch=6 n=71 v=27
28714 On ch=6 n=71 v=0
29398 On ch=6 n=73 v=37
29613 On ch=6 n=73 v=0
29642 On ch=6 n=71 v=28
29704 On ch=6 n=70 v=33
29714 On ch=6 n=71 v=0
29804 On ch=6 n=70 v=0
29872 On ch=6 n=66 v=37
29948 On ch=6 n=66 v=0
29996 On ch=6 n=68 v=35
30089 On ch=6 n=68 v=0
30121 On ch=6 n=70 v=32
30191 On ch=6 n=70 v=0
30241 On ch=6 n=71 v=37
30319 On ch=6 n=71 v=0
30361 On ch=6 n=70 v=33
30412 On ch=6 n=70 v=0
30424 On ch=6 n=68 v=38
30492 On ch=6 n=68 v=0
30543 On ch=6 n=66 v=35
30588 On ch=6 n=66 v=0
30600 On ch=6 n=68 v=38
30695 On ch=6 n=68 v=0
30840 On ch=6 n=68 v=52
30840 On ch=6 n=71 v=34
30910 On ch=6 n=68 v=0
30919 On ch=6 n=71 v=0
30960 On ch=6 n=69 v=38
30960 On ch=6 n=73 v=27
31043 On ch=6 n=73 v=0
31055 On ch=6 n=69 v=0
31080 On ch=6 n=71 v=53
31080 On ch=6 n=74 v=34
31149 On ch=6 n=71 v=0
31161 On ch=6 n=74 v=0
31200 On ch=6 n=73 v=48
31200 On ch=6 n=76 v=36
31351 On ch=6 n=76 v=0
31366 On ch=6 n=73 v=0
31440 On ch=6 n=73 v=52
31440 On ch=6 n=76 v=32
31480 On ch=6 n=76 v=0
31485 On ch=6 n=73 v=0
31500 On ch=6 n=74 v=48
31500 On ch=6 n=78 v=32
31573 On ch=6 n=74 v=0
31583 On ch=6 n=78 v=0
31620 On ch=6 n=73 v=49
31620 On ch=6 n=78 v=28
31679 On ch=6 n=73 v=0
31705 On ch=6 n=78 v=0
31740 On ch=6 n=71 v=46
31740 On ch=6 n=73 v=22
31792 On ch=6 n=71 v=0
31818 On ch=6 n=73 v=0
31860 On ch=6 n=69 v=46
31860 On ch=6 n=73 v=22
31945 On ch=6 n=73 v=0
31988 On ch=6 n=69 v=0
32160 On ch=6 n=76 v=49
32160 On ch=6 n=81 v=37
32296 On ch=6 n=81 v=0
32302 On ch=6 n=76 v=0
32340 On ch=6 n=73 v=48
32340 On ch=6 n=76 v=22
32355 On ch=6 n=76 v=0
32363 On ch=6 n=73 v=0
32400 On ch=6 n=73 v=44
32400 On ch=6 n=76 v=27
32439 On ch=6 n=76 v=0
32440 On ch=6 n=73 v=0
32460 On ch=6 n=74 v=48
32460 On ch=6 n=78 v=28
32530 On ch=6 n=74 v=0
32531 On ch=6 n=78 v=0
32580 On ch=6 n=73 v=44
32580 On ch=6 n=78 v=20
32645 On ch=6 n=73 v=0
32656 On ch=6 n=78 v=0
32700 On ch=6 n=71 v=48
32700 On ch=6 n=74 v=22
32781 On ch=6 n=74 v=0
32800 On ch=6 n=71 v=0
32820 On ch=6 n=69 v=46
32820 On ch=6 n=73 v=22
32902 On ch=6 n=73 v=0
32909 On ch=6 n=69 v=0
32940 On ch=6 n=71 v=46
32940 On ch=6 n=74 v=24
33012 On ch=6 n=71 v=0
33016 On ch=6 n=74 v=0
33060 On ch=6 n=69 v=44
33060 On ch=6 n=74 v=27
33426 On ch=6 n=74 v=0
33523 On ch=6 n=69 v=0
33840 On ch=6 n=74 v=46
33840 On ch=6 n=78 v=26
33870 On ch=6 n=78 v=0
33900 On ch=6 n=73 v=46
33900 On ch=6 n=76 v=24
33913 On ch=6 n=74 v=0
33975 On ch=6 n=73 v=0
33985 On ch=6 n=76 v=0
34020 On ch=6 n=71 v=48
34020 On ch=6 n=76 v=24
34303 On ch=6 n=76 v=0
34340 On ch=6 n=71 v=0
34680 On ch=6 n=68 v=52
34680 On ch=6 n=71 v=34
34750 On ch=6 n=68 v=0
34759 On ch=6 n=71 v=0
34800 On ch=6 n=69 v=38
34800 On ch=6 n=73 v=27
34883 On ch=6 n=73 v=0
34895 On ch=6 n=69 v=0
34920 On ch=6 n=71 v=53
34920 On ch=6 n=74 v=34
34989 On ch=6 n=71 v=0
35001 On ch=6 n=74 v=0
35040 On ch=6 n=73 v=48
35040 On ch=6 n=76 v=36
35191 On ch=6 n=76 v=0
35206 On ch=6 n=73 v=0
35280 On ch=6 n=73 v=52
35280 On ch=6 n=76 v=32
35320 On ch=6 n=76 v=0
35325 On ch=6 n=73 v=0
35340 On ch=6 n=74 v=48
35340 On ch=6 n=78 v=32
35413 On ch=6 n=74 v=0
35423 On ch=6 n=78 v=0
35460 On ch=6 n=73 v=49
35460 On ch=6 n=78 v=28
35519 On ch=6 n=73 v=0
35545 On ch=6 n=78 v=0
35580 On ch=6 n=71 v=46
35580 On ch=6 n=73 v=22
35632 On ch=6 n=71 v=0
35658 On ch=6 n=73 v=0
35700 On ch=6 n=69 v=46
35700 On ch=6 n=73 v=22
35785 On ch=6 n=73 v=0
35828 On ch=6 n=69 v=0
36000 On ch=6 n=76 v=49
36000 On ch=6 n=81 v=37
36136 On ch=6 n=81 v=0
36142 On ch=6 n=76 v=0
36180 On ch=6 n=73 v=48
36180 On ch=6 n=76 v=22
36195 On ch=6 n=76 v=0
36203 On ch=6 n=73 v=0
36240 On ch=6 n=73 v=44
36240 On ch=6 n=76 v=27
36279 On ch=6 n=76 v=0
36280 On ch=6 n=73 v=0
36300 On ch=6 n=74 v=48
36300 On ch=6 n=78 v=28
36370 On ch=6 n=74 v=0
36371 On ch=6 n=78 v=0
36420 On ch=6 n=73 v=44
36420 On ch=6 n=78 v=20
36485 On ch=6 n=73 v=0
36496 On ch=6 n=78 v=0
36540 On ch=6 n=71 v=48
36540 On ch=6 n=74 v=22
36621 On ch=6 n=74 v=0
36640 On ch=6 n=71 v=0
36660 On ch=6 n=69 v=46
36660 On ch=6 n=73 v=22
36742 On ch=6 n=73 v=0
36749 On ch=6 n=69 v=0
36780 On ch=6 n=71 v=46
36780 On ch=6 n=74 v=24
36852 On ch=6 n=71 v=0
36856 On ch=6 n=74 v=0
36900 On ch=6 n=69 v=44
36900 On ch=6 n=74 v=27
37266 On ch=6 n=74 v=0
37363 On ch=6 n=69 v=0
37620 On ch=6 n=74 v=46
37620 On ch=6 n=78 v=26
37678 On ch=6 n=74 v=0
37681 On ch=6 n=78 v=0
37740 On ch=6 n=73 v=46
37740 On ch=6 n=76 v=24
37815 On ch=6 n=73 v=0
37825 On ch=6 n=76 v=0
37860 On ch=6 n=71 v=48
37860 On ch=6 n=74 v=24
38143 On ch=6 n=74 v=0
38180 On ch=6 n=71 v=0
38581 On ch=6 n=71 v=43
38581 On ch=6 n=76 v=12
38659 On ch=6 n=76 v=0
38685 On ch=6 n=71 v=0
38701 On ch=6 n=74 v=14
38701 On ch=6 n=71 v=40
38777 On ch=6 n=74 v=0
38784 On ch=6 n=71 v=0
38821 On ch=6 n=73 v=25
38823 On ch=6 n=70 v=34
39011 On ch=6 n=73 v=0
39016 On ch=6 n=70 v=0
40923 On ch=6 n=80 v=33
40923 On ch=6 n=76 v=32
40939 On ch=6 n=76 v=0
40942 On ch=6 n=80 v=0
40981 On ch=6 n=80 v=37
40981 On ch=6 n=76 v=37
41020 On ch=6 n=76 v=0
41029 On ch=6 n=80 v=0
41040 On ch=6 n=75 v=30
41040 On ch=6 n=78 v=40
41097 On ch=6 n=75 v=0
41113 On ch=6 n=78 v=0
41159 On ch=6 n=75 v=35
41160 On ch=6 n=78 v=37
41213 On ch=6 n=75 v=0
41221 On ch=6 n=78 v=0
41222 On ch=6 n=76 v=37
41223 On ch=6 n=73 v=35
41273 On ch=6 n=76 v=0
41276 On ch=6 n=73 v=0
41343 On ch=6 n=76 v=32
41343 On ch=6 n=73 v=32
41393 On ch=6 n=73 v=0
41401 On ch=6 n=76 v=0
41459 On ch=6 n=73 v=27
41461 On ch=6 n=76 v=33
41510 On ch=6 n=73 v=0
41522 On ch=6 n=76 v=0
41522 On ch=6 n=75 v=28
41523 On ch=6 n=71 v=33
41573 On ch=6 n=71 v=0
41576 On ch=6 n=75 v=0
41639 On ch=6 n=71 v=35
41641 On ch=6 n=75 v=35
41707 On ch=6 n=71 v=0
41711 On ch=6 n=75 v=0
41761 On ch=6 n=70 v=33
41761 On ch=6 n=73 v=35
41824 On ch=6 n=70 v=0
41831 On ch=6 n=73 v=0
41878 On ch=6 n=71 v=35
41879 On ch=6 n=75 v=30
41937 On ch=6 n=71 v=0
41939 On ch=6 n=70 v=30
41941 On ch=6 n=73 v=32
41958 On ch=6 n=75 v=0
41998 On ch=6 n=70 v=0
42004 On ch=6 n=73 v=0
42059 On ch=6 n=71 v=37
42059 On ch=6 n=68 v=33
42106 On ch=6 n=68 v=0
42109 On ch=6 n=71 v=0
42178 On ch=6 n=66 v=32
42178 On ch=6 n=70 v=27
42550 On ch=6 n=66 v=0
42584 On ch=6 n=70 v=0
43324 On ch=6 n=59 v=32
43349 On ch=6 n=59 v=0
43383 On ch=6 n=59 v=30
43442 On ch=6 n=63 v=37
43453 On ch=6 n=59 v=0
43503 On ch=6 n=66 v=35
43520 On ch=6 n=63 v=0
43583 On ch=6 n=66 v=0
43619 On ch=6 n=71 v=38
43694 On ch=6 n=71 v=0
43743 On ch=6 n=63 v=40
43818 On ch=6 n=63 v=0
43864 On ch=6 n=63 v=33
43947 On ch=6 n=63 v=0
43985 On ch=6 n=66 v=35
44068 On ch=6 n=66 v=0
44153 On ch=6 n=71 v=38
44263 On ch=6 n=71 v=0
44333 On ch=6 n=69 v=35
44744 On ch=6 n=69 v=0
45240 On ch=6 n=76 v=38
45265 On ch=6 n=76 v=0
45299 On ch=6 n=76 v=38
45360 On ch=6 n=74 v=38
45367 On ch=6 n=76 v=0
45444 On ch=6 n=74 v=0
45480 On ch=6 n=74 v=35
45540 On ch=6 n=74 v=0
45540 On ch=6 n=73 v=27
45612 On ch=6 n=73 v=0
45661 On ch=6 n=73 v=38
45796 On ch=6 n=73 v=0
45841 On ch=6 n=71 v=33
45922 On ch=6 n=71 v=0
45961 On ch=6 n=69 v=37
46028 On ch=6 n=69 v=0
46081 On ch=6 n=74 v=37
46144 On ch=6 n=74 v=0
46200 On ch=6 n=74 v=35
46251 On ch=6 n=74 v=0
46261 On ch=6 n=73 v=40
46353 On ch=6 n=73 v=0
46383 On ch=6 n=69 v=33
46413 On ch=6 n=69 v=0
46440 On ch=6 n=71 v=27
46954 On ch=6 n=71 v=0
47638 On ch=6 n=73 v=37
47853 On ch=6 n=73 v=0
47882 On ch=6 n=71 v=28
47944 On ch=6 n=70 v=33
47954 On ch=6 n=71 v=0
48044 On ch=6 n=70 v=0
48112 On ch=6 n=66 v=37
48188 On ch=6 n=66 v=0
48236 On ch=6 n=68 v=35
48329 On ch=6 n=68 v=0
48361 On ch=6 n=70 v=32
48431 On ch=6 n=70 v=0
48481 On ch=6 n=71 v=37
48559 On ch=6 n=71 v=0
48601 On ch=6 n=70 v=33
48652 On ch=6 n=70 v=0
48664 On ch=6 n=68 v=38
48732 On ch=6 n=68 v=0
48783 On ch=6 n=66 v=35
48828 On ch=6 n=66 v=0
48840 On ch=6 n=68 v=38
48935 On ch=6 n=68 v=0
49080 On ch=6 n=68 v=52
49080 On ch=6 n=71 v=24
49150 On ch=6 n=68 v=0
49159 On ch=6 n=71 v=0
49200 On ch=6 n=69 v=38
49200 On ch=6 n=73 v=18
49283 On ch=6 n=73 v=0
49295 On ch=6 n=69 v=0
49320 On ch=6 n=71 v=53
49320 On ch=6 n=74 v=24
49389 On ch=6 n=71 v=0
49401 On ch=6 n=74 v=0
49440 On ch=6 n=73 v=48
49440 On ch=6 n=76 v=26
49591 On ch=6 n=76 v=0
49606 On ch=6 n=73 v=0
49680 On ch=6 n=73 v=52
49680 On ch=6 n=76 v=22
49720 On ch=6 n=76 v=0
49725 On ch=6 n=73 v=0
49740 On ch=6 n=74 v=48
49740 On ch=6 n=78 v=22
49813 On ch=6 n=74 v=0
49823 On ch=6 n=78 v=0
49860 On ch=6 n=73 v=49
49860 On ch=6 n=78 v=19
49919 On ch=6 n=73 v=0
49945 On ch=6 n=78 v=0
49980 On ch=6 n=71 v=46
49980 On ch=6 n=73 v=13
50032 On ch=6 n=71 v=0
50058 On ch=6 n=73 v=0
50100 On ch=6 n=69 v=46
50100 On ch=6 n=73 v=12
50185 On ch=6 n=73 v=0
50228 On ch=6 n=69 v=0
50400 On ch=6 n=76 v=49
50400 On ch=6 n=81 v=28
50536 On ch=6 n=81 v=0
50542 On ch=6 n=76 v=0
50580 On ch=6 n=73 v=48
50580 On ch=6 n=76 v=12
50595 On ch=6 n=76 v=0
50603 On ch=6 n=73 v=0
50640 On ch=6 n=73 v=44
50640 On ch=6 n=76 v=18
50679 On ch=6 n=76 v=0
50680 On ch=6 n=73 v=0
50700 On ch=6 n=74 v=48
50700 On ch=6 n=78 v=19
50770 On ch=6 n=74 v=0
50771 On ch=6 n=78 v=0
50820 On ch=6 n=73 v=44
50820 On ch=6 n=78 v=11
50885 On ch=6 n=73 v=0
50896 On ch=6 n=78 v=0
50940 On ch=6 n=71 v=48
50940 On ch=6 n=74 v=12
51021 On ch=6 n=74 v=0
51040 On ch=6 n=71 v=0
51060 On ch=6 n=69 v=46
51060 On ch=6 n=73 v=12
51142 On ch=6 n=73 v=0
51149 On ch=6 n=69 v=0
51180 On ch=6 n=71 v=46
51180 On ch=6 n=74 v=15
51252 On ch=6 n=71 v=0
51256 On ch=6 n=74 v=0
51300 On ch=6 n=69 v=44
51300 On ch=6 n=74 v=18
51666 On ch=6 n=74 v=0
51763 On ch=6 n=69 v=0
52080 On ch=6 n=74 v=46
52080 On ch=6 n=78 v=16
52110 On ch=6 n=78 v=0
52140 On ch=6 n=73 v=46
52140 On ch=6 n=76 v=15
52153 On ch=6 n=74 v=0
52215 On ch=6 n=73 v=0
52225 On ch=6 n=76 v=0
52260 On ch=6 n=71 v=48
52260 On ch=6 n=76 v=15
52543 On ch=6 n=76 v=0
52580 On ch=6 n=71 v=0
52920 On ch=6 n=68 v=52
52920 On ch=6 n=71 v=24
52990 On ch=6 n=68 v=0
52999 On ch=6 n=71 v=0
53040 On ch=6 n=69 v=38
53040 On ch=6 n=73 v=18
53123 On ch=6 n=73 v=0
53135 On ch=6 n=69 v=0
53160 On ch=6 n=71 v=53
53160 On ch=6 n=74 v=24
53229 On ch=6 n=71 v=0
53241 On ch=6 n=74 v=0
53280 On ch=6 n=73 v=48
53280 On ch=6 n=76 v=26
53431 On ch=6 n=76 v=0
53446 On ch=6 n=73 v=0
53520 On ch=6 n=73 v=52
53520 On ch=6 n=76 v=22
53560 On ch=6 n=76 v=0
53565 On ch=6 n=73 v=0
53580 On ch=6 n=74 v=48
53580 On ch=6 n=78 v=22
53653 On ch=6 n=74 v=0
53663 On ch=6 n=78 v=0
53700 On ch=6 n=73 v=49
53700 On ch=6 n=78 v=19
53759 On ch=6 n=73 v=0
53785 On ch=6 n=78 v=0
53820 On ch=6 n=71 v=46
53820 On ch=6 n=73 v=13
53872 On ch=6 n=71 v=0
53898 On ch=6 n=73 v=0
53940 On ch=6 n=69 v=46
53940 On ch=6 n=73 v=12
54025 On ch=6 n=73 v=0
54068 On ch=6 n=69 v=0
54240 On ch=6 n=76 v=49
54240 On ch=6 n=81 v=28
54376 On ch=6 n=81 v=0
54382 On ch=6 n=76 v=0
54420 On ch=6 n=73 v=48
54420 On ch=6 n=76 v=12
54435 On ch=6 n=76 v=0
54443 On ch=6 n=73 v=0
54480 On ch=6 n=73 v=44
54480 On ch=6 n=76 v=18
54519 On ch=6 n=76 v=0
54520 On ch=6 n=73 v=0
54540 On ch=6 n=74 v=48
54540 On ch=6 n=78 v=19
54610 On ch=6 n=74 v=0
54611 On ch=6 n=78 v=0
54660 On ch=6 n=73 v=44
54660 On ch=6 n=78 v=11
54725 On ch=6 n=73 v=0
54736 On ch=6 n=78 v=0
54780 On ch=6 n=71 v=48
54780 On ch=6 n=74 v=12
54861 On ch=6 n=74 v=0
54880 On ch=6 n=71 v=0
54900 On ch=6 n=69 v=46
54900 On ch=6 n=73 v=12
54982 On ch=6 n=73 v=0
54989 On ch=6 n=69 v=0
55020 On ch=6 n=71 v=46
55020 On ch=6 n=74 v=15
55092 On ch=6 n=71 v=0
55096 On ch=6 n=74 v=0
55140 On ch=6 n=69 v=44
55140 On ch=6 n=74 v=18
55506 On ch=6 n=74 v=0
55603 On ch=6 n=69 v=0
55860 On ch=6 n=74 v=46
55860 On ch=6 n=78 v=16
55918 On ch=6 n=74 v=0
55921 On ch=6 n=78 v=0
55980 On ch=6 n=73 v=46
55980 On ch=6 n=76 v=15
56055 On ch=6 n=73 v=0
56065 On ch=6 n=76 v=0
56100 On ch=6 n=71 v=48
56100 On ch=6 n=74 v=15
56383 On ch=6 n=74 v=0
56420 On ch=6 n=71 v=0
59163 On ch=6 n=80 v=34
59163 On ch=6 n=76 v=32
59179 On ch=6 n=76 v=0
59182 On ch=6 n=80 v=0
59221 On ch=6 n=80 v=38
59221 On ch=6 n=76 v=38
59260 On ch=6 n=76 v=0
59269 On ch=6 n=80 v=0
59280 On ch=6 n=75 v=30
59280 On ch=6 n=78 v=41
59337 On ch=6 n=75 v=0
59353 On ch=6 n=78 v=0
59399 On ch=6 n=75 v=36
59400 On ch=6 n=78 v=38
59453 On ch=6 n=75 v=0
59461 On ch=6 n=78 v=0
59462 On ch=6 n=76 v=38
59463 On ch=6 n=73 v=36
59513 On ch=6 n=76 v=0
59516 On ch=6 n=73 v=0
59583 On ch=6 n=76 v=32
59583 On ch=6 n=73 v=32
59633 On ch=6 n=73 v=0
59641 On ch=6 n=76 v=0
59699 On ch=6 n=73 v=28
59701 On ch=6 n=76 v=34
59750 On ch=6 n=73 v=0
59762 On ch=6 n=76 v=0
59762 On ch=6 n=75 v=29
59763 On ch=6 n=71 v=34
59813 On ch=6 n=71 v=0
59816 On ch=6 n=75 v=0
59879 On ch=6 n=71 v=36
59881 On ch=6 n=75 v=36
59947 On ch=6 n=71 v=0
59951 On ch=6 n=75 v=0
60001 On ch=6 n=70 v=34
60001 On ch=6 n=73 v=36
60064 On ch=6 n=70 v=0
60071 On ch=6 n=73 v=0
60118 On ch=6 n=71 v=36
60119 On ch=6 n=75 v=30
60177 On ch=6 n=71 v=0
60179 On ch=6 n=70 v=30
60181 On ch=6 n=73 v=32
60198 On ch=6 n=75 v=0
60238 On ch=6 n=70 v=0
60244 On ch=6 n=73 v=0
60299 On ch=6 n=71 v=38
60299 On ch=6 n=68 v=34
60346 On ch=6 n=68 v=0
60349 On ch=6 n=71 v=0
60418 On ch=6 n=66 v=32
60418 On ch=6 n=70 v=28
60790 On ch=6 n=66 v=0
60824 On ch=6 n=70 v=0
61564 On ch=6 n=59 v=32
61589 On ch=6 n=59 v=0
61623 On ch=6 n=59 v=30
61682 On ch=6 n=63 v=38
61693 On ch=6 n=59 v=0
61743 On ch=6 n=66 v=36
61760 On ch=6 n=63 v=0
61823 On ch=6 n=66 v=0
61859 On ch=6 n=71 v=40
61934 On ch=6 n=71 v=0
61983 On ch=6 n=63 v=41
62058 On ch=6 n=63 v=0
62104 On ch=6 n=63 v=34
62187 On ch=6 n=63 v=0
62225 On ch=6 n=66 v=36
62308 On ch=6 n=66 v=0
62393 On ch=6 n=71 v=40
62503 On ch=6 n=71 v=0
62573 On ch=6 n=69 v=36
62984 On ch=6 n=69 v=0
63480 On ch=6 n=76 v=40
63505 On ch=6 n=76 v=0
63539 On ch=6 n=76 v=40
63600 On ch=6 n=74 v=40
63607 On ch=6 n=76 v=0
63684 On ch=6 n=74 v=0
63720 On ch=6 n=74 v=36
63780 On ch=6 n=74 v=0
63780 On ch=6 n=73 v=28
63852 On ch=6 n=73 v=0
63901 On ch=6 n=73 v=40
64036 On ch=6 n=73 v=0
64081 On ch=6 n=71 v=34
64162 On ch=6 n=71 v=0
64201 On ch=6 n=69 v=38
64268 On ch=6 n=69 v=0
64321 On ch=6 n=74 v=38
64384 On ch=6 n=74 v=0
64440 On ch=6 n=74 v=36
64491 On ch=6 n=74 v=0
64501 On ch=6 n=73 v=41
64593 On ch=6 n=73 v=0
64623 On ch=6 n=69 v=34
64653 On ch=6 n=69 v=0
64680 On ch=6 n=71 v=28
65194 On ch=6 n=71 v=0
65878 On ch=6 n=73 v=38
66093 On ch=6 n=73 v=0
66122 On ch=6 n=71 v=29
66184 On ch=6 n=70 v=34
66194 On ch=6 n=71 v=0
66284 On ch=6 n=70 v=0
66352 On ch=6 n=66 v=38
66428 On ch=6 n=66 v=0
66476 On ch=6 n=68 v=36
66569 On ch=6 n=68 v=0
66601 On ch=6 n=70 v=32
66671 On ch=6 n=70 v=0
66721 On ch=6 n=71 v=38
66799 On ch=6 n=71 v=0
66841 On ch=6 n=70 v=34
66892 On ch=6 n=70 v=0
66904 On ch=6 n=68 v=40
66972 On ch=6 n=68 v=0
67023 On ch=6 n=66 v=36
67068 On ch=6 n=66 v=0
67080 On ch=6 n=68 v=40
67175 On ch=6 n=68 v=0
67320 On ch=6 n=68 v=52
67320 On ch=6 n=71 v=34
67390 On ch=6 n=68 v=0
67399 On ch=6 n=71 v=0
67440 On ch=6 n=69 v=38
67440 On ch=6 n=73 v=28
67523 On ch=6 n=73 v=0
67535 On ch=6 n=69 v=0
67560 On ch=6 n=71 v=53
67560 On ch=6 n=74 v=34
67629 On ch=6 n=71 v=0
67641 On ch=6 n=74 v=0
67680 On ch=6 n=73 v=48
67680 On ch=6 n=76 v=36
67831 On ch=6 n=76 v=0
67846 On ch=6 n=73 v=0
67920 On ch=6 n=73 v=52
67920 On ch=6 n=76 v=32
67960 On ch=6 n=76 v=0
67965 On ch=6 n=73 v=0
67980 On ch=6 n=74 v=48
67980 On ch=6 n=78 v=32
68053 On ch=6 n=74 v=0
68063 On ch=6 n=78 v=0
68100 On ch=6 n=73 v=49
68100 On ch=6 n=78 v=29
68159 On ch=6 n=73 v=0
68185 On ch=6 n=78 v=0
68220 On ch=6 n=71 v=46
68220 On ch=6 n=73 v=23
68272 On ch=6 n=71 v=0
68298 On ch=6 n=73 v=0
68340 On ch=6 n=69 v=46
68340 On ch=6 n=73 v=22
68425 On ch=6 n=73 v=0
68468 On ch=6 n=69 v=0
68640 On ch=6 n=76 v=49
68640 On ch=6 n=81 v=38
68776 On ch=6 n=81 v=0
68782 On ch=6 n=76 v=0
68820 On ch=6 n=73 v=48
68820 On ch=6 n=76 v=22
68835 On ch=6 n=76 v=0
68843 On ch=6 n=73 v=0
68880 On ch=6 n=73 v=44
68880 On ch=6 n=76 v=28
68919 On ch=6 n=76 v=0
68920 On ch=6 n=73 v=0
68940 On ch=6 n=74 v=48
68940 On ch=6 n=78 v=29
69010 On ch=6 n=74 v=0
69011 On ch=6 n=78 v=0
69060 On ch=6 n=73 v=44
69060 On ch=6 n=78 v=21
69125 On ch=6 n=73 v=0
69136 On ch=6 n=78 v=0
69180 On ch=6 n=71 v=48
69180 On ch=6 n=74 v=22
69261 On ch=6 n=74 v=0
69280 On ch=6 n=71 v=0
69300 On ch=6 n=69 v=46
69300 On ch=6 n=73 v=22
69382 On ch=6 n=73 v=0
69389 On ch=6 n=69 v=0
69420 On ch=6 n=71 v=46
69420 On ch=6 n=74 v=25
69492 On ch=6 n=71 v=0
69496 On ch=6 n=74 v=0
69540 On ch=6 n=69 v=44
69540 On ch=6 n=74 v=28
69906 On ch=6 n=74 v=0
70003 On ch=6 n=69 v=0
70320 On ch=6 n=74 v=46
70320 On ch=6 n=78 v=26
70350 On ch=6 n=78 v=0
70380 On ch=6 n=73 v=46
70380 On ch=6 n=76 v=25
70393 On ch=6 n=74 v=0
70455 On ch=6 n=73 v=0
70465 On ch=6 n=76 v=0
70500 On ch=6 n=71 v=48
70500 On ch=6 n=76 v=25
70783 On ch=6 n=76 v=0
70820 On ch=6 n=71 v=0
71160 On ch=6 n=68 v=52
71160 On ch=6 n=71 v=34
71230 On ch=6 n=68 v=0
71239 On ch=6 n=71 v=0
71280 On ch=6 n=69 v=38
71280 On ch=6 n=73 v=28
71363 On ch=6 n=73 v=0
71375 On ch=6 n=69 v=0
71400 On ch=6 n=71 v=53
71400 On ch=6 n=74 v=34
71469 On ch=6 n=71 v=0
71481 On ch=6 n=74 v=0
71520 On ch=6 n=73 v=48
71520 On ch=6 n=76 v=36
71671 On ch=6 n=76 v=0
71686 On ch=6 n=73 v=0
71760 On ch=6 n=73 v=52
71760 On ch=6 n=76 v=32
71800 On ch=6 n=76 v=0
71805 On ch=6 n=73 v=0
71820 On ch=6 n=74 v=48
71820 On ch=6 n=78 v=32
71893 On ch=6 n=74 v=0
71903 On ch=6 n=78 v=0
71940 On ch=6 n=73 v=49
71940 On ch=6 n=78 v=29
71999 On ch=6 n=73 v=0
72025 On ch=6 n=78 v=0
72060 On ch=6 n=71 v=46
72060 On ch=6 n=73 v=23
72112 On ch=6 n=71 v=0
72138 On ch=6 n=73 v=0
72180 On ch=6 n=69 v=46
72180 On ch=6 n=73 v=22
72265 On ch=6 n=73 v=0
72308 On ch=6 n=69 v=0
72480 On ch=6 n=76 v=49
72480 On ch=6 n=81 v=38
72616 On ch=6 n=81 v=0
72622 On ch=6 n=76 v=0
72660 On ch=6 n=73 v=48
72660 On ch=6 n=76 v=22
72675 On ch=6 n=76 v=0
72683 On ch=6 n=73 v=0
72720 On ch=6 n=73 v=44
72720 On ch=6 n=76 v=28
72759 On ch=6 n=76 v=0
72760 On ch=6 n=73 v=0
72780 On ch=6 n=74 v=48
72780 On ch=6 n=78 v=29
72850 On ch=6 n=74 v=0
72851 On ch=6 n=78 v=0
72900 On ch=6 n=73 v=44
72900 On ch=6 n=78 v=21
72965 On ch=6 n=73 v=0
72976 On ch=6 n=78 v=0
73020 On ch=6 n=71 v=48
73020 On ch=6 n=74 v=22
73101 On ch=6 n=74 v=0
73120 On ch=6 n=71 v=0
73140 On ch=6 n=69 v=46
73140 On ch=6 n=73 v=22
73222 On ch=6 n=73 v=0
73229 On ch=6 n=69 v=0
73260 On ch=6 n=71 v=46
73260 On ch=6 n=74 v=25
73332 On ch=6 n=71 v=0
73336 On ch=6 n=74 v=0
73380 On ch=6 n=69 v=44
73380 On ch=6 n=74 v=28
73746 On ch=6 n=74 v=0
73843 On ch=6 n=69 v=0
74100 On ch=6 n=74 v=46
74100 On ch=6 n=78 v=26
74158 On ch=6 n=74 v=0
74161 On ch=6 n=78 v=0
74220 On ch=6 n=73 v=46
74220 On ch=6 n=76 v=25
74295 On ch=6 n=73 v=0
74305 On ch=6 n=76 v=0
74340 On ch=6 n=71 v=48
74340 On ch=6 n=74 v=25
74623 On ch=6 n=74 v=0
74660 On ch=6 n=71 v=0
75061 On ch=6 n=71 v=43
75061 On ch=6 n=76 v=12
75139 On ch=6 n=76 v=0
75165 On ch=6 n=71 v=0
75181 On ch=6 n=74 v=14
75181 On ch=6 n=71 v=40
75257 On ch=6 n=74 v=0
75264 On ch=6 n=71 v=0
75301 On ch=6 n=73 v=25
75303 On ch=6 n=70 v=34
75491 On ch=6 n=73 v=0
75496 On ch=6 n=70 v=0
75496 Meta TrkEnd
TrkEnd
MTrk
0 Meta 0x21 00
0 Par ch=5 c=0 v=0
0 Par ch=5 c=32 v=0
0 PrCh ch=5 p=26
0 Par ch=5 c=7 v=120
0 Par ch=5 c=10 v=104
106 Par ch=5 c=121 v=0
151 Par ch=5 c=11 v=127
151 Par ch=5 c=93 v=90
151 Par ch=5 c=91 v=80
540 On ch=5 n=42 v=113
593 On ch=5 n=42 v=0
600 On ch=5 n=47 v=75
656 On ch=5 n=47 v=0
660 On ch=5 n=49 v=78
713 On ch=5 n=49 v=0
720 On ch=5 n=54 v=92
780 On ch=5 n=52 v=75
791 On ch=5 n=54 v=0
900 On ch=5 n=54 v=68
903 On ch=5 n=52 v=0
1416 On ch=5 n=54 v=0
1500 On ch=5 n=42 v=109
1560 On ch=5 n=47 v=75
1573 On ch=5 n=42 v=0
1607 On ch=5 n=47 v=0
1620 On ch=5 n=49 v=82
1672 On ch=5 n=49 v=0
1680 On ch=5 n=54 v=92
1740 On ch=5 n=52 v=75
1753 On ch=5 n=54 v=0
1860 On ch=5 n=52 v=0
1860 On ch=5 n=54 v=73
2415 On ch=5 n=54 v=0
2460 On ch=5 n=42 v=111
2520 On ch=5 n=42 v=0
2520 On ch=5 n=47 v=87
2565 On ch=5 n=47 v=0
2580 On ch=5 n=49 v=92
2627 On ch=5 n=49 v=0
2640 On ch=5 n=54 v=92
2700 On ch=5 n=52 v=78
2701 On ch=5 n=54 v=0
2820 On ch=5 n=52 v=0
2820 On ch=5 n=54 v=73
3350 On ch=5 n=54 v=0
3420 On ch=5 n=42 v=106
3480 On ch=5 n=47 v=79
3481 On ch=5 n=42 v=0
3522 On ch=5 n=47 v=0
3540 On ch=5 n=49 v=83
3585 On ch=5 n=49 v=0
3600 On ch=5 n=54 v=97
3660 On ch=5 n=52 v=80
3662 On ch=5 n=54 v=0
3780 On ch=5 n=52 v=0
3780 On ch=5 n=54 v=71
4248 On ch=5 n=54 v=0
4380 On ch=5 n=42 v=113
4433 On ch=5 n=42 v=0
4440 On ch=5 n=47 v=75
4496 On ch=5 n=47 v=0
4500 On ch=5 n=49 v=78
4553 On ch=5 n=49 v=0
4560 On ch=5 n=54 v=92
4620 On ch=5 n=52 v=75
4631 On ch=5 n=54 v=0
4740 On ch=5 n=54 v=68
4743 On ch=5 n=52 v=0
5256 On ch=5 n=54 v=0
5280 On ch=5 n=66 v=54
5459 On ch=5 n=66 v=0
5460 On ch=5 n=69 v=72
5520 On ch=5 n=68 v=54
5527 On ch=5 n=69 v=0
5580 On ch=5 n=68 v=0
5580 On ch=5 n=66 v=77
5690 On ch=5 n=66 v=0
5700 On ch=5 n=66 v=41
6255 On ch=5 n=66 v=0
6300 On ch=5 n=69 v=79
6319 On ch=5 n=69 v=0
6420 On ch=5 n=66 v=52
6433 On ch=5 n=66 v=0
6480 On ch=5 n=69 v=71
6600 On ch=5 n=69 v=0
6600 On ch=5 n=66 v=43
6690 On ch=5 n=66 v=0
8280 On ch=5 n=47 v=92
8338 On ch=5 n=49 v=75
8340 On ch=5 n=47 v=0
8381 On ch=5 n=49 v=0
8401 On ch=5 n=52 v=57
8456 On ch=5 n=52 v=0
8460 On ch=5 n=54 v=79
8515 On ch=5 n=54 v=0
8518 On ch=5 n=57 v=71
8573 On ch=5 n=57 v=0
8579 On ch=5 n=59 v=75
9061 On ch=5 n=59 v=0
20700 On ch=5 n=42 v=111
20760 On ch=5 n=42 v=0
20760 On ch=5 n=47 v=87
20805 On ch=5 n=47 v=0
20820 On ch=5 n=49 v=92
20867 On ch=5 n=49 v=0
20880 On ch=5 n=54 v=92
20940 On ch=5 n=52 v=78
20941 On ch=5 n=54 v=0
21060 On ch=5 n=52 v=0
21060 On ch=5 n=54 v=73
21590 On ch=5 n=54 v=0
21660 On ch=5 n=42 v=106
21720 On ch=5 n=47 v=79
21721 On ch=5 n=42 v=0
21762 On ch=5 n=47 v=0
21780 On ch=5 n=49 v=83
21825 On ch=5 n=49 v=0
21840 On ch=5 n=54 v=97
21900 On ch=5 n=52 v=80
21902 On ch=5 n=54 v=0
22020 On ch=5 n=52 v=0
22020 On ch=5 n=54 v=71
22488 On ch=5 n=54 v=0
22620 On ch=5 n=42 v=83
22673 On ch=5 n=42 v=0
22680 On ch=5 n=47 v=75
22736 On ch=5 n=47 v=0
22740 On ch=5 n=49 v=78
22793 On ch=5 n=49 v=0
22800 On ch=5 n=54 v=92
22860 On ch=5 n=52 v=75
22871 On ch=5 n=54 v=0
22980 On ch=5 n=54 v=68
22983 On ch=5 n=52 v=0
23496 On ch=5 n=54 v=0
23520 On ch=5 n=66 v=54
23699 On ch=5 n=66 v=0
23700 On ch=5 n=69 v=72
23760 On ch=5 n=68 v=54
23767 On ch=5 n=69 v=0
23820 On ch=5 n=68 v=0
23820 On ch=5 n=66 v=77
23930 On ch=5 n=66 v=0
23940 On ch=5 n=66 v=41
24495 On ch=5 n=66 v=0
26520 On ch=5 n=47 v=92
26578 On ch=5 n=49 v=75
26580 On ch=5 n=47 v=0
26621 On ch=5 n=49 v=0
26641 On ch=5 n=52 v=57
26696 On ch=5 n=52 v=0
26700 On ch=5 n=54 v=79
26755 On ch=5 n=54 v=0
26758 On ch=5 n=57 v=71
26813 On ch=5 n=57 v=0
26819 On ch=5 n=59 v=75
27301 On ch=5 n=59 v=0
38940 On ch=5 n=42 v=111
39000 On ch=5 n=42 v=0
39000 On ch=5 n=47 v=87
39045 On ch=5 n=47 v=0
39060 On ch=5 n=49 v=92
39107 On ch=5 n=49 v=0
39120 On ch=5 n=54 v=92
39180 On ch=5 n=52 v=78
39181 On ch=5 n=54 v=0
39300 On ch=5 n=52 v=0
39300 On ch=5 n=54 v=73
39830 On ch=5 n=54 v=0
39900 On ch=5 n=42 v=106
39960 On ch=5 n=47 v=79
39961 On ch=5 n=42 v=0
40002 On ch=5 n=47 v=0
40020 On ch=5 n=49 v=83
40065 On ch=5 n=49 v=0
40080 On ch=5 n=54 v=97
40140 On ch=5 n=52 v=80
40142 On ch=5 n=54 v=0
40260 On ch=5 n=52 v=0
40260 On ch=5 n=54 v=71
40728 On ch=5 n=54 v=0
40860 On ch=5 n=42 v=83
40913 On ch=5 n=42 v=0
40920 On ch=5 n=47 v=75
40976 On ch=5 n=47 v=0
40980 On ch=5 n=49 v=78
41033 On ch=5 n=49 v=0
41040 On ch=5 n=54 v=92
41100 On ch=5 n=52 v=75
41111 On ch=5 n=54 v=0
41220 On ch=5 n=54 v=68
41223 On ch=5 n=52 v=0
41736 On ch=5 n=54 v=0
41760 On ch=5 n=66 v=54
41939 On ch=5 n=66 v=0
41940 On ch=5 n=69 v=72
42000 On ch=5 n=68 v=54
42007 On ch=5 n=69 v=0
42060 On ch=5 n=68 v=0
42060 On ch=5 n=66 v=77
42170 On ch=5 n=66 v=0
42180 On ch=5 n=66 v=41
42735 On ch=5 n=66 v=0
44760 On ch=5 n=47 v=92
44818 On ch=5 n=49 v=75
44820 On ch=5 n=47 v=0
44861 On ch=5 n=49 v=0
44881 On ch=5 n=52 v=57
44936 On ch=5 n=52 v=0
44940 On ch=5 n=54 v=79
44995 On ch=5 n=54 v=0
44998 On ch=5 n=57 v=71
45053 On ch=5 n=57 v=0
45059 On ch=5 n=59 v=75
45541 On ch=5 n=59 v=0
57180 On ch=5 n=42 v=111
57240 On ch=5 n=42 v=0
57240 On ch=5 n=47 v=87
57285 On ch=5 n=47 v=0
57300 On ch=5 n=49 v=92
57347 On ch=5 n=49 v=0
57360 On ch=5 n=54 v=92
57420 On ch=5 n=52 v=78
57421 On ch=5 n=54 v=0
57540 On ch=5 n=52 v=0
57540 On ch=5 n=54 v=73
58070 On ch=5 n=54 v=0
58140 On ch=5 n=42 v=106
58200 On ch=5 n=47 v=79
58201 On ch=5 n=42 v=0
58242 On ch=5 n=47 v=0
58260 On ch=5 n=49 v=83
58305 On ch=5 n=49 v=0
58320 On ch=5 n=54 v=97
58380 On ch=5 n=52 v=80
58382 On ch=5 n=54 v=0
58500 On ch=5 n=52 v=0
58500 On ch=5 n=54 v=71
58968 On ch=5 n=54 v=0
59100 On ch=5 n=42 v=83
59153 On ch=5 n=42 v=0
59160 On ch=5 n=47 v=75
59216 On ch=5 n=47 v=0
59220 On ch=5 n=49 v=78
59273 On ch=5 n=49 v=0
59280 On ch=5 n=54 v=92
59340 On ch=5 n=52 v=75
59351 On ch=5 n=54 v=0
59460 On ch=5 n=54 v=68
59463 On ch=5 n=52 v=0
59976 On ch=5 n=54 v=0
60000 On ch=5 n=66 v=54
60179 On ch=5 n=66 v=0
60180 On ch=5 n=69 v=72
60240 On ch=5 n=68 v=54
60247 On ch=5 n=69 v=0
60300 On ch=5 n=68 v=0
60300 On ch=5 n=66 v=77
60410 On ch=5 n=66 v=0
60420 On ch=5 n=66 v=41
60975 On ch=5 n=66 v=0
63000 On ch=5 n=47 v=92
63058 On ch=5 n=49 v=75
63060 On ch=5 n=47 v=0
63101 On ch=5 n=49 v=0
63121 On ch=5 n=52 v=57
63176 On ch=5 n=52 v=0
63180 On ch=5 n=54 v=79
63235 On ch=5 n=54 v=0
63238 On ch=5 n=57 v=71
63293 On ch=5 n=57 v=0
63299 On ch=5 n=59 v=75
63781 On ch=5 n=59 v=0
75420 On ch=5 n=42 v=113
75473 On ch=5 n=42 v=0
75480 On ch=5 n=47 v=75
75536 On ch=5 n=47 v=0
75540 On ch=5 n=49 v=78
75593 On ch=5 n=49 v=0
75600 On ch=5 n=54 v=92
75660 On ch=5 n=52 v=75
75671 On ch=5 n=54 v=0
75780 On ch=5 n=54 v=68
75783 On ch=5 n=52 v=0
76296 On ch=5 n=54 v=0
76380 On ch=5 n=42 v=109
76440 On ch=5 n=47 v=75
76453 On ch=5 n=42 v=0
76487 On ch=5 n=47 v=0
76500 On ch=5 n=49 v=82
76552 On ch=5 n=49 v=0
76560 On ch=5 n=54 v=92
76620 On ch=5 n=52 v=75
76633 On ch=5 n=54 v=0
76740 On ch=5 n=52 v=0
76740 On ch=5 n=54 v=73
77295 On ch=5 n=54 v=0
77340 On ch=5 n=42 v=111
77400 On ch=5 n=42 v=0
77400 On ch=5 n=47 v=87
77445 On ch=5 n=47 v=0
77460 On ch=5 n=49 v=92
77507 On ch=5 n=49 v=0
77520 On ch=5 n=54 v=92
77580 On ch=5 n=52 v=78
77581 On ch=5 n=54 v=0
77700 On ch=5 n=52 v=0
77700 On ch=5 n=54 v=73
78230 On ch=5 n=54 v=0
78300 On ch=5 n=42 v=106
78360 On ch=5 n=47 v=79
78361 On ch=5 n=42 v=0
78402 On ch=5 n=47 v=0
78420 On ch=5 n=49 v=83
78465 On ch=5 n=49 v=0
78480 On ch=5 n=54 v=97
78540 On ch=5 n=52 v=80
78542 On ch=5 n=54 v=0
78660 On ch=5 n=52 v=0
78660 On ch=5 n=54 v=71
79128 On ch=5 n=54 v=0
79128 Meta TrkEnd
TrkEnd
MTrk
0 Meta 0x21 00
0 Par ch=10 c=0 v=0
0 Par ch=10 c=32 v=0
0 PrCh ch=10 p=0
0 Par ch=10 c=7 v=127
0 Par ch=10 c=10 v=64
106 Par ch=10 c=121 v=0
182 Par ch=10 c=11 v=127
182 Par ch=10 c=93 v=0
182 Par ch=10 c=91 v=70
480 On ch=10 n=64 v=92
480 On ch=10 n=70 v=59
481 On ch=10 n=70 v=0
481 On ch=10 n=64 v=0
540 On ch=10 n=70 v=34
541 On ch=10 n=70 v=0
600 On ch=10 n=62 v=99
600 On ch=10 n=70 v=82
601 On ch=10 n=70 v=0
601 On ch=10 n=62 v=0
660 On ch=10 n=70 v=34
661 On ch=10 n=70 v=0
720 On ch=10 n=70 v=53
721 On ch=10 n=70 v=0
780 On ch=10 n=63 v=87
780 On ch=10 n=70 v=47
781 On ch=10 n=70 v=0
781 On ch=10 n=63 v=0
840 On ch=10 n=63 v=59
840 On ch=10 n=70 v=86
841 On ch=10 n=70 v=0
841 On ch=10 n=63 v=0
900 On ch=10 n=64 v=90
900 On ch=10 n=70 v=38
901 On ch=10 n=70 v=0
901 On ch=10 n=64 v=0
960 On ch=10 n=70 v=55
961 On ch=10 n=70 v=0
1020 On ch=10 n=64 v=64
1020 On ch=10 n=70 v=41
1021 On ch=10 n=70 v=0
1021 On ch=10 n=64 v=0
1080 On ch=10 n=63 v=79
1080 On ch=10 n=70 v=82
1081 On ch=10 n=70 v=0
1081 On ch=10 n=63 v=0
1140 On ch=10 n=63 v=94
1140 On ch=10 n=70 v=34
1141 On ch=10 n=70 v=0
1141 On ch=10 n=63 v=0
1200 On ch=10 n=62 v=106
1200 On ch=10 n=70 v=59
1201 On ch=10 n=70 v=0
1201 On ch=10 n=62 v=0
1260 On ch=10 n=70 v=38
1261 On ch=10 n=70 v=0
1320 On ch=10 n=63 v=96
1320 On ch=10 n=70 v=77
1321 On ch=10 n=70 v=0
1321 On ch=10 n=63 v=0
1380 On ch=10 n=63 v=59
1380 On ch=10 n=70 v=34
1381 On ch=10 n=70 v=0
1381 On ch=10 n=63 v=0
1440 On ch=10 n=64 v=92
1440 On ch=10 n=70 v=59
1441 On ch=10 n=70 v=0
1441 On ch=10 n=64 v=0
1500 On ch=10 n=70 v=34
1501 On ch=10 n=70 v=0
1560 On ch=10 n=62 v=99
1560 On ch=10 n=70 v=82
1561 On ch=10 n=70 v=0
1561 On ch=10 n=62 v=0
1620 On ch=10 n=61 v=47
1620 On ch=10 n=70 v=34
1621 On ch=10 n=70 v=0
1621 On ch=10 n=61 v=0
1680 On ch=10 n=64 v=32
1680 On ch=10 n=70 v=53
1681 On ch=10 n=70 v=0
1681 On ch=10 n=64 v=0
1740 On ch=10 n=63 v=87
1740 On ch=10 n=70 v=47
1741 On ch=10 n=70 v=0
1741 On ch=10 n=63 v=0
1800 On ch=10 n=63 v=59
1800 On ch=10 n=70 v=86
1801 On ch=10 n=70 v=0
1801 On ch=10 n=63 v=0
1860 On ch=10 n=64 v=90
1860 On ch=10 n=70 v=38
1861 On ch=10 n=70 v=0
1861 On ch=10 n=64 v=0
1920 On ch=10 n=70 v=55
1921 On ch=10 n=70 v=0
1980 On ch=10 n=64 v=64
1980 On ch=10 n=70 v=41
1981 On ch=10 n=70 v=0
1981 On ch=10 n=64 v=0
2040 On ch=10 n=63 v=71
2040 On ch=10 n=70 v=82
2041 On ch=10 n=70 v=0
2041 On ch=10 n=63 v=0
2100 On ch=10 n=63 v=94
2100 On ch=10 n=70 v=34
2101 On ch=10 n=70 v=0
2101 On ch=10 n=63 v=0
2160 On ch=10 n=62 v=106
2160 On ch=10 n=70 v=59
2161 On ch=10 n=70 v=0
2161 On ch=10 n=62 v=0
2220 On ch=10 n=63 v=32
2220 On ch=10 n=70 v=38
2221 On ch=10 n=70 v=0
2221 On ch=10 n=63 v=0
2280 On ch=10 n=63 v=96
2280 On ch=10 n=70 v=77
2281 On ch=10 n=70 v=0
2281 On ch=10 n=63 v=0
2340 On ch=10 n=62 v=52
2340 On ch=10 n=70 v=34
2341 On ch=10 n=70 v=0
2341 On ch=10 n=62 v=0
2400 On ch=10 n=64 v=92
2400 On ch=10 n=70 v=59
2401 On ch=10 n=70 v=0
2401 On ch=10 n=64 v=0
2460 On ch=10 n=70 v=34
2461 On ch=10 n=70 v=0
2520 On ch=10 n=62 v=99
2520 On ch=10 n=70 v=82
2521 On ch=10 n=70 v=0
2521 On ch=10 n=62 v=0
2580 On ch=10 n=70 v=34
2581 On ch=10 n=70 v=0
2640 On ch=10 n=70 v=53
2641 On ch=10 n=70 v=0
2700 On ch=10 n=63 v=87
2700 On ch=10 n=70 v=47
2701 On ch=10 n=70 v=0
2701 On ch=10 n=63 v=0
2760 On ch=10 n=63 v=59
2760 On ch=10 n=70 v=86
2761 On ch=10 n=70 v=0
2761 On ch=10 n=63 v=0
2820 On ch=10 n=64 v=90
2820 On ch=10 n=70 v=38
2821 On ch=10 n=70 v=0
2821 On ch=10 n=64 v=0
2880 On ch=10 n=70 v=55
2881 On ch=10 n=70 v=0
2940 On ch=10 n=64 v=64
2940 On ch=10 n=70 v=41
2941 On ch=10 n=70 v=0
2941 On ch=10 n=64 v=0
3000 On ch=10 n=63 v=79
3000 On ch=10 n=70 v=82
3001 On ch=10 n=70 v=0
3001 On ch=10 n=63 v=0
3060 On ch=10 n=63 v=94
3060 On ch=10 n=70 v=34
3061 On ch=10 n=70 v=0
3061 On ch=10 n=63 v=0
3120 On ch=10 n=62 v=106
3120 On ch=10 n=70 v=59
3121 On ch=10 n=70 v=0
3121 On ch=10 n=62 v=0
3180 On ch=10 n=70 v=38
3181 On ch=10 n=70 v=0
3240 On ch=10 n=63 v=96
3240 On ch=10 n=70 v=77
3241 On ch=10 n=70 v=0
3241 On ch=10 n=63 v=0
3300 On ch=10 n=63 v=59
3300 On ch=10 n=70 v=34
3301 On ch=10 n=70 v=0
3301 On ch=10 n=63 v=0
3360 On ch=10 n=64 v=92
3360 On ch=10 n=70 v=59
3361 On ch=10 n=70 v=0
3361 On ch=10 n=64 v=0
3420 On ch=10 n=70 v=34
3421 On ch=10 n=70 v=0
3480 On ch=10 n=62 v=99
3480 On ch=10 n=70 v=82
3481 On ch=10 n=70 v=0
3481 On ch=10 n=62 v=0
3540 On ch=10 n=61 v=47
3540 On ch=10 n=70 v=34
3541 On ch=10 n=70 v=0
3541 On ch=10 n=61 v=0
3600 On ch=10 n=64 v=32
3600 On ch=10 n=70 v=53
3601 On ch=10 n=70 v=0
3601 On ch=10 n=64 v=0
3660 On ch=10 n=63 v=87
3660 On ch=10 n=70 v=47
3661 On ch=10 n=70 v=0
3661 On ch=10 n=63 v=0
3720 On ch=10 n=63 v=59
3720 On ch=10 n=70 v=86
3721 On ch=10 n=70 v=0
3721 On ch=10 n=63 v=0
3780 On ch=10 n=64 v=90
3780 On ch=10 n=70 v=38
3781 On ch=10 n=70 v=0
3781 On ch=10 n=64 v=0
3840 On ch=10 n=70 v=55
3841 On ch=10 n=70 v=0
3900 On ch=10 n=64 v=64
3900 On ch=10 n=70 v=41
3901 On ch=10 n=70 v=0
3901 On ch=10 n=64 v=0
3960 On ch=10 n=63 v=71
3960 On ch=10 n=70 v=82
3961 On ch=10 n=70 v=0
3961 On ch=10 n=63 v=0
4020 On ch=10 n=63 v=94
4020 On ch=10 n=70 v=34
4021 On ch=10 n=70 v=0
4021 On ch=10 n=63 v=0
4080 On ch=10 n=62 v=106
4080 On ch=10 n=70 v=59
4081 On ch=10 n=70 v=0
4081 On ch=10 n=62 v=0
4140 On ch=10 n=63 v=32
4140 On ch=10 n=70 v=38
4141 On ch=10 n=70 v=0
4141 On ch=10 n=63 v=0
4200 On ch=10 n=63 v=96
4200 On ch=10 n=70 v=77
4201 On ch=10 n=70 v=0
4201 On ch=10 n=63 v=0
4260 On ch=10 n=62 v=52
4260 On ch=10 n=70 v=34
4261 On ch=10 n=70 v=0
4261 On ch=10 n=62 v=0
4320 On ch=10 n=64 v=92
4320 On ch=10 n=70 v=59
4321 On ch=10 n=70 v=0
4321 On ch=10 n=64 v=0
4380 On ch=10 n=70 v=34
4381 On ch=10 n=70 v=0
4440 On ch=10 n=62 v=99
4440 On ch=10 n=70 v=82
4441 On ch=10 n=70 v=0
4441 On ch=10 n=62 v=0
4500 On ch=10 n=70 v=34
4501 On ch=10 n=70 v=0
4560 On ch=10 n=70 v=53
4561 On ch=10 n=70 v=0
4620 On ch=10 n=63 v=87
4620 On ch=10 n=70 v=47
4621 On ch=10 n=70 v=0
4621 On ch=10 n=63 v=0
4680 On ch=10 n=63 v=59
4680 On ch=10 n=70 v=86
4681 On ch=10 n=70 v=0
4681 On ch=10 n=63 v=0
4740 On ch=10 n=64 v=90
4740 On ch=10 n=70 v=38
4741 On ch=10 n=70 v=0
4741 On ch=10 n=64 v=0
4800 On ch=10 n=70 v=55
4801 On ch=10 n=70 v=0
4860 On ch=10 n=64 v=64
4860 On ch=10 n=70 v=41
4861 On ch=10 n=70 v=0
4861 On ch=10 n=64 v=0
4920 On ch=10 n=63 v=79
4920 On ch=10 n=70 v=82
4921 On ch=10 n=70 v=0
4921 On ch=10 n=63 v=0
4980 On ch=10 n=63 v=94
4980 On ch=10 n=70 v=34
4981 On ch=10 n=70 v=0
4981 On ch=10 n=63 v=0
5040 On ch=10 n=62 v=106
5040 On ch=10 n=70 v=59
5041 On ch=10 n=70 v=0
5041 On ch=10 n=62 v=0
5100 On ch=10 n=70 v=38
5101 On ch=10 n=70 v=0
5160 On ch=10 n=63 v=96
5160 On ch=10 n=70 v=77
5161 On ch=10 n=70 v=0
5161 On ch=10 n=63 v=0
5220 On ch=10 n=63 v=59
5220 On ch=10 n=70 v=34
5221 On ch=10 n=70 v=0
5221 On ch=10 n=63 v=0
5280 On ch=10 n=64 v=92
5280 On ch=10 n=70 v=59
5281 On ch=10 n=70 v=0
5281 On ch=10 n=64 v=0
5340 On ch=10 n=70 v=34
5341 On ch=10 n=70 v=0
5400 On ch=10 n=62 v=99
5400 On ch=10 n=70 v=82
5401 On ch=10 n=70 v=0
5401 On ch=10 n=62 v=0
5460 On ch=10 n=61 v=47
5460 On ch=10 n=70 v=34
5461 On ch=10 n=70 v=0
5461 On ch=10 n=61 v=0
5520 On ch=10 n=64 v=32
5520 On ch=10 n=70 v=53
5521 On ch=10 n=70 v=0
5521 On ch=10 n=64 v=0
5580 On ch=10 n=63 v=87
5580 On ch=10 n=70 v=47
5581 On ch=10 n=70 v=0
5581 On ch=10 n=63 v=0
5640 On ch=10 n=63 v=59
5640 On ch=10 n=70 v=86
5641 On ch=10 n=70 v=0
5641 On ch=10 n=63 v=0
5700 On ch=10 n=64 v=90
5700 On ch=10 n=70 v=38
5701 On ch=10 n=70 v=0
5701 On ch=10 n=64 v=0
5760 On ch=10 n=70 v=55
5761 On ch=10 n=70 v=0
5820 On ch=10 n=64 v=64
5820 On ch=10 n=70 v=41
5821 On ch=10 n=70 v=0
5821 On ch=10 n=64 v=0
5880 On ch=10 n=63 v=71
5880 On ch=10 n=70 v=82
5881 On ch=10 n=70 v=0
5881 On ch=10 n=63 v=0
5940 On ch=10 n=63 v=94
5940 On ch=10 n=70 v=34
5941 On ch=10 n=70 v=0
5941 On ch=10 n=63 v=0
6000 On ch=10 n=62 v=106
6000 On ch=10 n=70 v=59
6001 On ch=10 n=70 v=0
6001 On ch=10 n=62 v=0
6060 On ch=10 n=63 v=32
6060 On ch=10 n=70 v=38
6061 On ch=10 n=70 v=0
6061 On ch=10 n=63 v=0
6120 On ch=10 n=63 v=96
6120 On ch=10 n=70 v=77
6121 On ch=10 n=70 v=0
6121 On ch=10 n=63 v=0
6180 On ch=10 n=62 v=52
6180 On ch=10 n=70 v=34
6181 On ch=10 n=70 v=0
6181 On ch=10 n=62 v=0
6240 On ch=10 n=64 v=92
6240 On ch=10 n=70 v=59
6241 On ch=10 n=70 v=0
6241 On ch=10 n=64 v=0
6300 On ch=10 n=70 v=34
6301 On ch=10 n=70 v=0
6360 On ch=10 n=62 v=99
6360 On ch=10 n=70 v=82
6361 On ch=10 n=70 v=0
6361 On ch=10 n=62 v=0
6420 On ch=10 n=70 v=34
6421 On ch=10 n=70 v=0
6480 On ch=10 n=70 v=53
6481 On ch=10 n=70 v=0
6540 On ch=10 n=63 v=87
6540 On ch=10 n=70 v=47
6541 On ch=10 n=70 v=0
6541 On ch=10 n=63 v=0
6600 On ch=10 n=63 v=59
6600 On ch=10 n=70 v=86
6601 On ch=10 n=70 v=0
6601 On ch=10 n=63 v=0
6660 On ch=10 n=64 v=90
6660 On ch=10 n=70 v=38
6661 On ch=10 n=70 v=0
6661 On ch=10 n=64 v=0
6720 On ch=10 n=64 v=92
6720 On ch=10 n=70 v=55
6721 On ch=10 n=70 v=0
6721 On ch=10 n=64 v=0
6780 On ch=10 n=70 v=41
6781 On ch=10 n=70 v=0
6840 On ch=10 n=62 v=99
6840 On ch=10 n=70 v=82
6841 On ch=10 n=70 v=0
6841 On ch=10 n=62 v=0
6900 On ch=10 n=70 v=34
6901 On ch=10 n=70 v=0
6960 On ch=10 n=70 v=59
6961 On ch=10 n=70 v=0
7020 On ch=10 n=63 v=87
7020 On ch=10 n=70 v=38
7021 On ch=10 n=70 v=0
7021 On ch=10 n=63 v=0
7080 On ch=10 n=63 v=59
7080 On ch=10 n=70 v=77
7081 On ch=10 n=70 v=0
7081 On ch=10 n=63 v=0
7140 On ch=10 n=64 v=90
7140 On ch=10 n=70 v=34
7141 On ch=10 n=70 v=0
7141 On ch=10 n=64 v=0
7200 On ch=10 n=70 v=59
7201 On ch=10 n=70 v=0
7260 On ch=10 n=64 v=64
7260 On ch=10 n=70 v=34
7261 On ch=10 n=70 v=0
7261 On ch=10 n=64 v=0
7320 On ch=10 n=63 v=79
7320 On ch=10 n=70 v=82
7321 On ch=10 n=70 v=0
7321 On ch=10 n=63 v=0
7380 On ch=10 n=63 v=94
7380 On ch=10 n=70 v=34
7381 On ch=10 n=70 v=0
7381 On ch=10 n=63 v=0
7440 On ch=10 n=62 v=106
7440 On ch=10 n=70 v=53
7441 On ch=10 n=70 v=0
7441 On ch=10 n=62 v=0
7500 On ch=10 n=70 v=47
7501 On ch=10 n=70 v=0
7560 On ch=10 n=63 v=96
7560 On ch=10 n=70 v=86
7561 On ch=10 n=70 v=0
7561 On ch=10 n=63 v=0
7620 On ch=10 n=63 v=59
7620 On ch=10 n=70 v=38
7621 On ch=10 n=70 v=0
7621 On ch=10 n=63 v=0
7680 On ch=10 n=64 v=92
7680 On ch=10 n=70 v=55
7681 On ch=10 n=70 v=0
7681 On ch=10 n=64 v=0
7740 On ch=10 n=70 v=41
7741 On ch=10 n=70 v=0
7800 On ch=10 n=62 v=99
7800 On ch=10 n=70 v=82
7801 On ch=10 n=70 v=0
7801 On ch=10 n=62 v=0
7860 On ch=10 n=61 v=47
7860 On ch=10 n=70 v=34
7861 On ch=10 n=70 v=0
7861 On ch=10 n=61 v=0
7920 On ch=10 n=64 v=32
7920 On ch=10 n=70 v=59
7921 On ch=10 n=70 v=0
7921 On ch=10 n=64 v=0
7980 On ch=10 n=63 v=87
7980 On ch=10 n=70 v=38
7981 On ch=10 n=70 v=0
7981 On ch=10 n=63 v=0
8040 On ch=10 n=63 v=59
8040 On ch=10 n=70 v=77
8041 On ch=10 n=70 v=0
8041 On ch=10 n=63 v=0
8100 On ch=10 n=64 v=90
8100 On ch=10 n=70 v=34
8101 On ch=10 n=70 v=0
8101 On ch=10 n=64 v=0
8160 On ch=10 n=70 v=59
8161 On ch=10 n=70 v=0
8220 On ch=10 n=64 v=64
8220 On ch=10 n=70 v=34
8221 On ch=10 n=70 v=0
8221 On ch=10 n=64 v=0
8280 On ch=10 n=63 v=71
8280 On ch=10 n=70 v=82
8281 On ch=10 n=70 v=0
8281 On ch=10 n=63 v=0
8340 On ch=10 n=63 v=94
8340 On ch=10 n=70 v=34
8341 On ch=10 n=70 v=0
8341 On ch=10 n=63 v=0
8400 On ch=10 n=62 v=106
8400 On ch=10 n=70 v=53
8401 On ch=10 n=70 v=0
8401 On ch=10 n=62 v=0
8460 On ch=10 n=63 v=32
8460 On ch=10 n=70 v=47
8461 On ch=10 n=70 v=0
8461 On ch=10 n=63 v=0
8520 On ch=10 n=63 v=96
8520 On ch=10 n=70 v=86
8521 On ch=10 n=70 v=0
8521 On ch=10 n=63 v=0
8580 On ch=10 n=62 v=52
8580 On ch=10 n=70 v=38
8581 On ch=10 n=70 v=0
8581 On ch=10 n=62 v=0
8640 On ch=10 n=64 v=92
8640 On ch=10 n=70 v=55
8641 On ch=10 n=70 v=0
8641 On ch=10 n=64 v=0
8700 On ch=10 n=70 v=41
8701 On ch=10 n=70 v=0
8760 On ch=10 n=62 v=99
8760 On ch=10 n=70 v=82
8761 On ch=10 n=70 v=0
8761 On ch=10 n=62 v=0
8820 On ch=10 n=70 v=34
8821 On ch=10 n=70 v=0
8880 On ch=10 n=70 v=59
8881 On ch=10 n=70 v=0
8940 On ch=10 n=63 v=87
8940 On ch=10 n=70 v=38
8941 On ch=10 n=70 v=0
8941 On ch=10 n=63 v=0
9000 On ch=10 n=63 v=59
9000 On ch=10 n=70 v=77
9001 On ch=10 n=70 v=0
9001 On ch=10 n=63 v=0
9060 On ch=10 n=64 v=90
9060 On ch=10 n=70 v=34
9061 On ch=10 n=70 v=0
9061 On ch=10 n=64 v=0
9120 On ch=10 n=64 v=92
9120 On ch=10 n=70 v=59
9121 On ch=10 n=70 v=0
9121 On ch=10 n=64 v=0
9180 On ch=10 n=70 v=34
9181 On ch=10 n=70 v=0
9240 On ch=10 n=62 v=99
9240 On ch=10 n=70 v=82
9241 On ch=10 n=70 v=0
9241 On ch=10 n=62 v=0
9300 On ch=10 n=70 v=34
9301 On ch=10 n=70 v=0
9360 On ch=10 n=70 v=53
9361 On ch=10 n=70 v=0
9420 On ch=10 n=63 v=87
9420 On ch=10 n=70 v=47
9421 On ch=10 n=70 v=0
9421 On ch=10 n=63 v=0
9480 On ch=10 n=63 v=59
9480 On ch=10 n=70 v=86
9481 On ch=10 n=70 v=0
9481 On ch=10 n=63 v=0
9540 On ch=10 n=64 v=90
9540 On ch=10 n=70 v=38
9541 On ch=10 n=70 v=0
9541 On ch=10 n=64 v=0
9600 On ch=10 n=70 v=55
9601 On ch=10 n=70 v=0
9660 On ch=10 n=64 v=64
9660 On ch=10 n=70 v=41
9661 On ch=10 n=70 v=0
9661 On ch=10 n=64 v=0
9720 On ch=10 n=63 v=79
9720 On ch=10 n=70 v=82
9721 On ch=10 n=70 v=0
9721 On ch=10 n=63 v=0
9780 On ch=10 n=63 v=94
9780 On ch=10 n=70 v=34
9781 On ch=10 n=70 v=0
9781 On ch=10 n=63 v=0
9840 On ch=10 n=62 v=106
9840 On ch=10 n=70 v=59
9841 On ch=10 n=70 v=0
9841 On ch=10 n=62 v=0
9900 On ch=10 n=70 v=38
9901 On ch=10 n=70 v=0
9960 On ch=10 n=63 v=96
9960 On ch=10 n=70 v=77
9961 On ch=10 n=70 v=0
9961 On ch=10 n=63 v=0
10020 On ch=10 n=63 v=59
10020 On ch=10 n=70 v=34
10021 On ch=10 n=70 v=0
10021 On ch=10 n=63 v=0
10080 On ch=10 n=64 v=92
10080 On ch=10 n=70 v=59
10081 On ch=10 n=70 v=0
10081 On ch=10 n=64 v=0
10140 On ch=10 n=70 v=34
10141 On ch=10 n=70 v=0
10200 On ch=10 n=62 v=99
10200 On ch=10 n=70 v=82
10201 On ch=10 n=70 v=0
10201 On ch=10 n=62 v=0
10260 On ch=10 n=61 v=47
10260 On ch=10 n=70 v=34
10261 On ch=10 n=70 v=0
10261 On ch=10 n=61 v=0
10320 On ch=10 n=64 v=32
10320 On ch=10 n=70 v=53
10321 On ch=10 n=70 v=0
10321 On ch=10 n=64 v=0
10380 On ch=10 n=63 v=87
10380 On ch=10 n=70 v=47
10381 On ch=10 n=70 v=0
10381 On ch=10 n=63 v=0
10440 On ch=10 n=63 v=59
10440 On ch=10 n=70 v=86
10441 On ch=10 n=70 v=0
10441 On ch=10 n=63 v=0
10500 On ch=10 n=64 v=90
10500 On ch=10 n=70 v=38
10501 On ch=10 n=70 v=0
10501 On ch=10 n=64 v=0
10560 On ch=10 n=70 v=55
10561 On ch=10 n=70 v=0
10620 On ch=10 n=64 v=64
10620 On ch=10 n=70 v=41
10621 On ch=10 n=70 v=0
10621 On ch=10 n=64 v=0
10680 On ch=10 n=63 v=71
10680 On ch=10 n=70 v=82
10681 On ch=10 n=70 v=0
10681 On ch=10 n=63 v=0
10740 On ch=10 n=63 v=94
10740 On ch=10 n=70 v=34
10741 On ch=10 n=70 v=0
10741 On ch=10 n=63 v=0
10800 On ch=10 n=62 v=106
10800 On ch=10 n=70 v=59
10801 On ch=10 n=70 v=0
10801 On ch=10 n=62 v=0
10860 On ch=10 n=63 v=32
10860 On ch=10 n=70 v=38
10861 On ch=10 n=70 v=0
10861 On ch=10 n=63 v=0
10920 On ch=10 n=63 v=96
10920 On ch=10 n=70 v=77
10921 On ch=10 n=70 v=0
10921 On ch=10 n=63 v=0
10980 On ch=10 n=62 v=52
10980 On ch=10 n=70 v=34
10981 On ch=10 n=70 v=0
10981 On ch=10 n=62 v=0
11040 On ch=10 n=64 v=92
11040 On ch=10 n=70 v=59
11041 On ch=10 n=70 v=0
11041 On ch=10 n=64 v=0
11100 On ch=10 n=70 v=34
11101 On ch=10 n=70 v=0
11160 On ch=10 n=62 v=99
11160 On ch=10 n=70 v=82
11161 On ch=10 n=70 v=0
11161 On ch=10 n=62 v=0
11220 On ch=10 n=70 v=34
11221 On ch=10 n=70 v=0
11280 On ch=10 n=70 v=53
11281 On ch=10 n=70 v=0
11340 On ch=10 n=63 v=87
11340 On ch=10 n=70 v=47
11341 On ch=10 n=70 v=0
11341 On ch=10 n=63 v=0
11400 On ch=10 n=63 v=59
11400 On ch=10 n=70 v=86
11401 On ch=10 n=70 v=0
11401 On ch=10 n=63 v=0
11460 On ch=10 n=64 v=90
11460 On ch=10 n=70 v=38
11461 On ch=10 n=70 v=0
11461 On ch=10 n=64 v=0
11520 On ch=10 n=64 v=92
11520 On ch=10 n=70 v=55
11521 On ch=10 n=70 v=0
11521 On ch=10 n=64 v=0
11580 On ch=10 n=70 v=41
11581 On ch=10 n=70 v=0
11640 On ch=10 n=62 v=99
11640 On ch=10 n=70 v=82
11641 On ch=10 n=70 v=0
11641 On ch=10 n=62 v=0
11700 On ch=10 n=70 v=34
11701 On ch=10 n=70 v=0
11760 On ch=10 n=70 v=59
11761 On ch=10 n=70 v=0
11820 On ch=10 n=63 v=87
11820 On ch=10 n=70 v=38
11821 On ch=10 n=70 v=0
11821 On ch=10 n=63 v=0
11880 On ch=10 n=63 v=59
11880 On ch=10 n=70 v=77
11881 On ch=10 n=70 v=0
11881 On ch=10 n=63 v=0
11940 On ch=10 n=64 v=90
11940 On ch=10 n=70 v=34
11941 On ch=10 n=70 v=0
11941 On ch=10 n=64 v=0
12000 On ch=10 n=70 v=59
12001 On ch=10 n=70 v=0
12060 On ch=10 n=64 v=64
12060 On ch=10 n=70 v=34
12061 On ch=10 n=70 v=0
12061 On ch=10 n=64 v=0
12120 On ch=10 n=63 v=79
12120 On ch=10 n=70 v=82
12121 On ch=10 n=70 v=0
12121 On ch=10 n=63 v=0
12180 On ch=10 n=63 v=94
12180 On ch=10 n=70 v=34
12181 On ch=10 n=70 v=0
12181 On ch=10 n=63 v=0
12240 On ch=10 n=62 v=106
12240 On ch=10 n=70 v=53
12241 On ch=10 n=70 v=0
12241 On ch=10 n=62 v=0
12300 On ch=10 n=70 v=47
12301 On ch=10 n=70 v=0
12360 On ch=10 n=63 v=96
12360 On ch=10 n=70 v=86
12361 On ch=10 n=70 v=0
12361 On ch=10 n=63 v=0
12420 On ch=10 n=63 v=59
12420 On ch=10 n=70 v=38
12421 On ch=10 n=70 v=0
12421 On ch=10 n=63 v=0
12480 On ch=10 n=64 v=92
12480 On ch=10 n=70 v=62
12481 On ch=10 n=70 v=0
12481 On ch=10 n=64 v=0
12540 On ch=10 n=70 v=48
12541 On ch=10 n=70 v=0
12600 On ch=10 n=62 v=99
12600 On ch=10 n=70 v=89
12601 On ch=10 n=70 v=0
12601 On ch=10 n=62 v=0
12660 On ch=10 n=61 v=47
12660 On ch=10 n=70 v=41
12661 On ch=10 n=70 v=0
12661 On ch=10 n=61 v=0
12720 On ch=10 n=64 v=32
12720 On ch=10 n=70 v=66
12721 On ch=10 n=70 v=0
12721 On ch=10 n=64 v=0
12780 On ch=10 n=63 v=87
12780 On ch=10 n=70 v=45
12781 On ch=10 n=70 v=0
12781 On ch=10 n=63 v=0
12840 On ch=10 n=63 v=59
12840 On ch=10 n=70 v=84
12841 On ch=10 n=70 v=0
12841 On ch=10 n=63 v=0
12900 On ch=10 n=64 v=90
12900 On ch=10 n=70 v=41
12901 On ch=10 n=70 v=0
12901 On ch=10 n=64 v=0
12960 On ch=10 n=64 v=92
12960 On ch=10 n=70 v=66
12961 On ch=10 n=70 v=0
12961 On ch=10 n=64 v=0
13020 On ch=10 n=70 v=41
13021 On ch=10 n=70 v=0
13080 On ch=10 n=62 v=99
13080 On ch=10 n=54 v=100
13080 On ch=10 n=70 v=89
13081 On ch=10 n=70 v=0
13081 On ch=10 n=54 v=0
13081 On ch=10 n=62 v=0
13140 On ch=10 n=70 v=41
13141 On ch=10 n=70 v=0
13200 On ch=10 n=70 v=60
13201 On ch=10 n=70 v=0
13260 On ch=10 n=63 v=87
13260 On ch=10 n=70 v=54
13261 On ch=10 n=70 v=0
13261 On ch=10 n=63 v=0
13320 On ch=10 n=63 v=59
13320 On ch=10 n=54 v=99
13320 On ch=10 n=70 v=93
13321 On ch=10 n=70 v=0
13321 On ch=10 n=54 v=0
13321 On ch=10 n=63 v=0
13380 On ch=10 n=64 v=90
13380 On ch=10 n=70 v=45
13381 On ch=10 n=70 v=0
13381 On ch=10 n=64 v=0
13440 On ch=10 n=70 v=62
13441 On ch=10 n=70 v=0
13500 On ch=10 n=64 v=64
13500 On ch=10 n=70 v=48
13501 On ch=10 n=70 v=0
13501 On ch=10 n=64 v=0
13560 On ch=10 n=63 v=79
13560 On ch=10 n=54 v=99
13560 On ch=10 n=70 v=89
13561 On ch=10 n=70 v=0
13561 On ch=10 n=54 v=0
13561 On ch=10 n=63 v=0
13620 On ch=10 n=63 v=94
13620 On ch=10 n=70 v=41
13621 On ch=10 n=70 v=0
13621 On ch=10 n=63 v=0
13680 On ch=10 n=62 v=106
13680 On ch=10 n=70 v=66
13681 On ch=10 n=70 v=0
13681 On ch=10 n=62 v=0
13740 On ch=10 n=70 v=45
13741 On ch=10 n=70 v=0
13800 On ch=10 n=63 v=96
13800 On ch=10 n=54 v=98
13800 On ch=10 n=70 v=84
13801 On ch=10 n=70 v=0
13801 On ch=10 n=54 v=0
13801 On ch=10 n=63 v=0
13860 On ch=10 n=63 v=59
13860 On ch=10 n=70 v=41
13861 On ch=10 n=70 v=0
13861 On ch=10 n=63 v=0
13920 On ch=10 n=64 v=92
13920 On ch=10 n=70 v=66
13921 On ch=10 n=70 v=0
13921 On ch=10 n=64 v=0
13980 On ch=10 n=70 v=41
13981 On ch=10 n=70 v=0
14040 On ch=10 n=62 v=99
14040 On ch=10 n=54 v=98
14040 On ch=10 n=70 v=89
14041 On ch=10 n=70 v=0
14041 On ch=10 n=54 v=0
14041 On ch=10 n=62 v=0
14100 On ch=10 n=61 v=47
14100 On ch=10 n=70 v=41
14101 On ch=10 n=70 v=0
14101 On ch=10 n=61 v=0
14160 On ch=10 n=64 v=32
14160 On ch=10 n=70 v=60
14161 On ch=10 n=70 v=0
14161 On ch=10 n=64 v=0
14220 On ch=10 n=63 v=87
14220 On ch=10 n=70 v=54
14221 On ch=10 n=70 v=0
14221 On ch=10 n=63 v=0
14280 On ch=10 n=63 v=59
14280 On ch=10 n=54 v=97
14280 On ch=10 n=70 v=93
14281 On ch=10 n=70 v=0
14281 On ch=10 n=54 v=0
14281 On ch=10 n=63 v=0
14340 On ch=10 n=64 v=90
14340 On ch=10 n=70 v=45
14341 On ch=10 n=70 v=0
14341 On ch=10 n=64 v=0
14400 On ch=10 n=70 v=62
14401 On ch=10 n=70 v=0
14460 On ch=10 n=64 v=64
14460 On ch=10 n=70 v=48
14461 On ch=10 n=70 v=0
14461 On ch=10 n=64 v=0
14520 On ch=10 n=63 v=71
14520 On ch=10 n=54 v=97
14520 On ch=10 n=70 v=89
14521 On ch=10 n=70 v=0
14521 On ch=10 n=54 v=0
14521 On ch=10 n=63 v=0
14580 On ch=10 n=63 v=94
14580 On ch=10 n=70 v=41
14581 On ch=10 n=70 v=0
14581 On ch=10 n=63 v=0
14640 On ch=10 n=62 v=106
14640 On ch=10 n=70 v=66
14641 On ch=10 n=70 v=0
14641 On ch=10 n=62 v=0
14700 On ch=10 n=63 v=32
14700 On ch=10 n=70 v=45
14701 On ch=10 n=70 v=0
14701 On ch=10 n=63 v=0
14760 On ch=10 n=63 v=96
14760 On ch=10 n=54 v=96
14760 On ch=10 n=70 v=84
14761 On ch=10 n=70 v=0
14761 On ch=10 n=54 v=0
14761 On ch=10 n=63 v=0
14820 On ch=10 n=62 v=52
14820 On ch=10 n=70 v=41
14821 On ch=10 n=70 v=0
14821 On ch=10 n=62 v=0
14880 On ch=10 n=64 v=92
14880 On ch=10 n=70 v=66
14881 On ch=10 n=70 v=0
14881 On ch=10 n=64 v=0
14940 On ch=10 n=70 v=41
14941 On ch=10 n=70 v=0
15000 On ch=10 n=62 v=99
15000 On ch=10 n=54 v=100
15000 On ch=10 n=70 v=89
15001 On ch=10 n=70 v=0
15001 On ch=10 n=54 v=0
15001 On ch=10 n=62 v=0
15060 On ch=10 n=70 v=41
15061 On ch=10 n=70 v=0
15120 On ch=10 n=70 v=60
15121 On ch=10 n=70 v=0
15180 On ch=10 n=63 v=87
15180 On ch=10 n=70 v=54
15181 On ch=10 n=70 v=0
15181 On ch=10 n=63 v=0
15240 On ch=10 n=63 v=59
15240 On ch=10 n=54 v=99
15240 On ch=10 n=70 v=93
15241 On ch=10 n=70 v=0
15241 On ch=10 n=54 v=0
15241 On ch=10 n=63 v=0
15300 On ch=10 n=64 v=90
15300 On ch=10 n=70 v=45
15301 On ch=10 n=70 v=0
15301 On ch=10 n=64 v=0
15360 On ch=10 n=70 v=62
15361 On ch=10 n=70 v=0
15420 On ch=10 n=64 v=64
15420 On ch=10 n=70 v=48
15421 On ch=10 n=70 v=0
15421 On ch=10 n=64 v=0
15480 On ch=10 n=63 v=79
15480 On ch=10 n=54 v=99
15480 On ch=10 n=70 v=89
15481 On ch=10 n=70 v=0
15481 On ch=10 n=54 v=0
15481 On ch=10 n=63 v=0
15540 On ch=10 n=63 v=94
15540 On ch=10 n=70 v=41
15541 On ch=10 n=70 v=0
15541 On ch=10 n=63 v=0
15600 On ch=10 n=62 v=106
15600 On ch=10 n=70 v=66
15601 On ch=10 n=70 v=0
15601 On ch=10 n=62 v=0
15660 On ch=10 n=70 v=45
15661 On ch=10 n=70 v=0
15720 On ch=10 n=63 v=96
15720 On ch=10 n=54 v=98
15720 On ch=10 n=70 v=84
15721 On ch=10 n=70 v=0
15721 On ch=10 n=54 v=0
15721 On ch=10 n=63 v=0
15780 On ch=10 n=63 v=59
15780 On ch=10 n=70 v=41
15781 On ch=10 n=70 v=0
15781 On ch=10 n=63 v=0
15840 On ch=10 n=64 v=92
15840 On ch=10 n=70 v=66
15841 On ch=10 n=70 v=0
15841 On ch=10 n=64 v=0
15900 On ch=10 n=70 v=41
15901 On ch=10 n=70 v=0
15960 On ch=10 n=62 v=99
15960 On ch=10 n=54 v=98
15960 On ch=10 n=70 v=89
15961 On ch=10 n=70 v=0
15961 On ch=10 n=54 v=0
15961 On ch=10 n=62 v=0
16020 On ch=10 n=61 v=47
16020 On ch=10 n=70 v=41
16021 On ch=10 n=70 v=0
16021 On ch=10 n=61 v=0
16080 On ch=10 n=64 v=32
16080 On ch=10 n=70 v=60
16081 On ch=10 n=70 v=0
16081 On ch=10 n=64 v=0
16140 On ch=10 n=63 v=87
16140 On ch=10 n=70 v=54
16141 On ch=10 n=70 v=0
16141 On ch=10 n=63 v=0
16200 On ch=10 n=63 v=59
16200 On ch=10 n=54 v=97
16200 On ch=10 n=70 v=93
16201 On ch=10 n=70 v=0
16201 On ch=10 n=54 v=0
16201 On ch=10 n=63 v=0
16260 On ch=10 n=64 v=90
16260 On ch=10 n=70 v=45
16261 On ch=10 n=70 v=0
16261 On ch=10 n=64 v=0
16320 On ch=10 n=70 v=62
16321 On ch=10 n=70 v=0
16380 On ch=10 n=64 v=64
16380 On ch=10 n=70 v=48
16381 On ch=10 n=70 v=0
16381 On ch=10 n=64 v=0
16440 On ch=10 n=63 v=71
16440 On ch=10 n=54 v=97
16440 On ch=10 n=70 v=89
16441 On ch=10 n=70 v=0
16441 On ch=10 n=54 v=0
16441 On ch=10 n=63 v=0
16500 On ch=10 n=63 v=94
16500 On ch=10 n=70 v=41
16501 On ch=10 n=70 v=0
16501 On ch=10 n=63 v=0
16560 On ch=10 n=62 v=106
16560 On ch=10 n=70 v=66
16561 On ch=10 n=70 v=0
16561 On ch=10 n=62 v=0
16620 On ch=10 n=63 v=32
16620 On ch=10 n=70 v=45
16621 On ch=10 n=70 v=0
16621 On ch=10 n=63 v=0
16680 On ch=10 n=63 v=96
16680 On ch=10 n=54 v=96
16680 On ch=10 n=70 v=84
16681 On ch=10 n=70 v=0
16681 On ch=10 n=54 v=0
16681 On ch=10 n=63 v=0
16740 On ch=10 n=62 v=52
16740 On ch=10 n=70 v=41
16741 On ch=10 n=70 v=0
16741 On ch=10 n=62 v=0
16800 On ch=10 n=64 v=92
16800 On ch=10 n=70 v=66
16801 On ch=10 n=70 v=0
16801 On ch=10 n=64 v=0
16860 On ch=10 n=70 v=41
16861 On ch=10 n=70 v=0
16920 On ch=10 n=62 v=99
16920 On ch=10 n=54 v=100
16920 On ch=10 n=70 v=89
16921 On ch=10 n=70 v=0
16921 On ch=10 n=54 v=0
16921 On ch=10 n=62 v=0
16980 On ch=10 n=70 v=41
16981 On ch=10 n=70 v=0
17040 On ch=10 n=70 v=60
17041 On ch=10 n=70 v=0
17100 On ch=10 n=63 v=87
17100 On ch=10 n=70 v=54
17101 On ch=10 n=70 v=0
17101 On ch=10 n=63 v=0
17160 On ch=10 n=63 v=59
17160 On ch=10 n=54 v=99
17160 On ch=10 n=70 v=93
17161 On ch=10 n=70 v=0
17161 On ch=10 n=54 v=0
17161 On ch=10 n=63 v=0
17220 On ch=10 n=64 v=90
17220 On ch=10 n=70 v=45
17221 On ch=10 n=70 v=0
17221 On ch=10 n=64 v=0
17280 On ch=10 n=70 v=62
17281 On ch=10 n=70 v=0
17340 On ch=10 n=64 v=64
17340 On ch=10 n=70 v=48
17341 On ch=10 n=70 v=0
17341 On ch=10 n=64 v=0
17400 On ch=10 n=63 v=79
17400 On ch=10 n=54 v=99
17400 On ch=10 n=70 v=89
17401 On ch=10 n=70 v=0
17401 On ch=10 n=54 v=0
17401 On ch=10 n=63 v=0
17460 On ch=10 n=63 v=94
17460 On ch=10 n=70 v=41
17461 On ch=10 n=70 v=0
17461 On ch=10 n=63 v=0
17520 On ch=10 n=62 v=106
17520 On ch=10 n=70 v=66
17521 On ch=10 n=70 v=0
17521 On ch=10 n=62 v=0
17580 On ch=10 n=70 v=45
17581 On ch=10 n=70 v=0
17640 On ch=10 n=63 v=96
17640 On ch=10 n=54 v=98
17640 On ch=10 n=70 v=84
17641 On ch=10 n=70 v=0
17641 On ch=10 n=54 v=0
17641 On ch=10 n=63 v=0
17700 On ch=10 n=63 v=59
17700 On ch=10 n=70 v=41
17701 On ch=10 n=70 v=0
17701 On ch=10 n=63 v=0
17760 On ch=10 n=64 v=92
17760 On ch=10 n=70 v=66
17761 On ch=10 n=70 v=0
17761 On ch=10 n=64 v=0
17820 On ch=10 n=70 v=41
17821 On ch=10 n=70 v=0
17880 On ch=10 n=62 v=99
17880 On ch=10 n=54 v=98
17880 On ch=10 n=70 v=89
17881 On ch=10 n=70 v=0
17881 On ch=10 n=54 v=0
17881 On ch=10 n=62 v=0
17940 On ch=10 n=61 v=47
17940 On ch=10 n=70 v=41
17941 On ch=10 n=70 v=0
17941 On ch=10 n=61 v=0
18000 On ch=10 n=64 v=32
18000 On ch=10 n=70 v=60
18001 On ch=10 n=70 v=0
18001 On ch=10 n=64 v=0
18060 On ch=10 n=63 v=87
18060 On ch=10 n=70 v=54
18061 On ch=10 n=70 v=0
18061 On ch=10 n=63 v=0
18120 On ch=10 n=63 v=59
18120 On ch=10 n=54 v=97
18120 On ch=10 n=70 v=93
18121 On ch=10 n=70 v=0
18121 On ch=10 n=54 v=0
18121 On ch=10 n=63 v=0
18180 On ch=10 n=64 v=90
18180 On ch=10 n=70 v=45
18181 On ch=10 n=70 v=0
18181 On ch=10 n=64 v=0
18240 On ch=10 n=70 v=62
18241 On ch=10 n=70 v=0
18300 On ch=10 n=64 v=64
18300 On ch=10 n=70 v=48
18301 On ch=10 n=70 v=0
18301 On ch=10 n=64 v=0
18360 On ch=10 n=63 v=71
18360 On ch=10 n=54 v=97
18360 On ch=10 n=70 v=89
18361 On ch=10 n=70 v=0
18361 On ch=10 n=54 v=0
18361 On ch=10 n=63 v=0
18420 On ch=10 n=63 v=94
18420 On ch=10 n=70 v=41
18421 On ch=10 n=70 v=0
18421 On ch=10 n=63 v=0
18480 On ch=10 n=62 v=106
18480 On ch=10 n=70 v=66
18481 On ch=10 n=70 v=0
18481 On ch=10 n=62 v=0
18540 On ch=10 n=63 v=32
18540 On ch=10 n=70 v=45
18541 On ch=10 n=70 v=0
18541 On ch=10 n=63 v=0
18600 On ch=10 n=63 v=96
18600 On ch=10 n=54 v=96
18600 On ch=10 n=70 v=84
18601 On ch=10 n=70 v=0
18601 On ch=10 n=54 v=0
18601 On ch=10 n=63 v=0
18660 On ch=10 n=62 v=52
18660 On ch=10 n=70 v=41
18661 On ch=10 n=70 v=0
18661 On ch=10 n=62 v=0
18720 On ch=10 n=64 v=92
18720 On ch=10 n=70 v=66
18721 On ch=10 n=70 v=0
18721 On ch=10 n=64 v=0
18780 On ch=10 n=70 v=41
18781 On ch=10 n=70 v=0
18840 On ch=10 n=62 v=99
18840 On ch=10 n=54 v=100
18840 On ch=10 n=70 v=89
18841 On ch=10 n=70 v=0
18841 On ch=10 n=54 v=0
18841 On ch=10 n=62 v=0
18900 On ch=10 n=70 v=41
18901 On ch=10 n=70 v=0
18960 On ch=10 n=70 v=60
18961 On ch=10 n=70 v=0
19020 On ch=10 n=63 v=87
19020 On ch=10 n=70 v=54
19021 On ch=10 n=70 v=0
19021 On ch=10 n=63 v=0
19080 On ch=10 n=63 v=59
19080 On ch=10 n=54 v=99
19080 On ch=10 n=70 v=93
19081 On ch=10 n=70 v=0
19081 On ch=10 n=54 v=0
19081 On ch=10 n=63 v=0
19140 On ch=10 n=64 v=90
19140 On ch=10 n=70 v=45
19141 On ch=10 n=70 v=0
19141 On ch=10 n=64 v=0
19200 On ch=10 n=64 v=92
19200 On ch=10 n=70 v=62
19201 On ch=10 n=70 v=0
19201 On ch=10 n=64 v=0
19260 On ch=10 n=70 v=48
19261 On ch=10 n=70 v=0
19320 On ch=10 n=62 v=99
19320 On ch=10 n=54 v=99
19320 On ch=10 n=70 v=89
19321 On ch=10 n=70 v=0
19321 On ch=10 n=54 v=0
19321 On ch=10 n=62 v=0
19380 On ch=10 n=70 v=41
19381 On ch=10 n=70 v=0
19440 On ch=10 n=70 v=66
19441 On ch=10 n=70 v=0
19500 On ch=10 n=63 v=87
19500 On ch=10 n=70 v=45
19501 On ch=10 n=70 v=0
19501 On ch=10 n=63 v=0
19560 On ch=10 n=63 v=59
19560 On ch=10 n=54 v=98
19560 On ch=10 n=70 v=84
19561 On ch=10 n=70 v=0
19561 On ch=10 n=54 v=0
19561 On ch=10 n=63 v=0
19620 On ch=10 n=64 v=90
19620 On ch=10 n=70 v=41
19621 On ch=10 n=70 v=0
19621 On ch=10 n=64 v=0
19680 On ch=10 n=70 v=66
19681 On ch=10 n=70 v=0
19740 On ch=10 n=64 v=64
19740 On ch=10 n=70 v=41
19741 On ch=10 n=70 v=0
19741 On ch=10 n=64 v=0
19800 On ch=10 n=63 v=79
19800 On ch=10 n=54 v=98
19800 On ch=10 n=70 v=89
19801 On ch=10 n=70 v=0
19801 On ch=10 n=54 v=0
19801 On ch=10 n=63 v=0
19860 On ch=10 n=63 v=94
19860 On ch=10 n=70 v=41
19861 On ch=10 n=70 v=0
19861 On ch=10 n=63 v=0
19920 On ch=10 n=62 v=106
19920 On ch=10 n=70 v=60
19921 On ch=10 n=70 v=0
19921 On ch=10 n=62 v=0
19980 On ch=10 n=70 v=54
19981 On ch=10 n=70 v=0
20040 On ch=10 n=63 v=96
20040 On ch=10 n=54 v=97
20040 On ch=10 n=70 v=93
20041 On ch=10 n=70 v=0
20041 On ch=10 n=54 v=0
20041 On ch=10 n=63 v=0
20100 On ch=10 n=63 v=59
20100 On ch=10 n=70 v=45
20101 On ch=10 n=70 v=0
20101 On ch=10 n=63 v=0
20160 On ch=10 n=64 v=92
20160 On ch=10 n=70 v=62
20161 On ch=10 n=70 v=0
20161 On ch=10 n=64 v=0
20220 On ch=10 n=70 v=48
20221 On ch=10 n=70 v=0
20280 On ch=10 n=62 v=99
20280 On ch=10 n=54 v=97
20280 On ch=10 n=70 v=89
20281 On ch=10 n=70 v=0
20281 On ch=10 n=54 v=0
20281 On ch=10 n=62 v=0
20340 On ch=10 n=61 v=47
20340 On ch=10 n=70 v=41
20341 On ch=10 n=70 v=0
20341 On ch=10 n=61 v=0
20400 On ch=10 n=64 v=32
20400 On ch=10 n=70 v=66
20401 On ch=10 n=70 v=0
20401 On ch=10 n=64 v=0
20460 On ch=10 n=63 v=87
20460 On ch=10 n=70 v=45
20461 On ch=10 n=70 v=0
20461 On ch=10 n=63 v=0
20520 On ch=10 n=63 v=59
20520 On ch=10 n=54 v=96
20520 On ch=10 n=70 v=84
20521 On ch=10 n=70 v=0
20521 On ch=10 n=54 v=0
20521 On ch=10 n=63 v=0
20580 On ch=10 n=64 v=90
20580 On ch=10 n=70 v=41
20581 On ch=10 n=70 v=0
20581 On ch=10 n=64 v=0
20640 On ch=10 n=64 v=92
20640 On ch=10 n=70 v=59
20641 On ch=10 n=70 v=0
20641 On ch=10 n=64 v=0
20700 On ch=10 n=70 v=34
20701 On ch=10 n=70 v=0
20760 On ch=10 n=62 v=99
20760 On ch=10 n=70 v=82
20761 On ch=10 n=70 v=0
20761 On ch=10 n=62 v=0
20820 On ch=10 n=70 v=34
20821 On ch=10 n=70 v=0
20880 On ch=10 n=70 v=53
20881 On ch=10 n=70 v=0
20940 On ch=10 n=63 v=87
20940 On ch=10 n=70 v=47
20941 On ch=10 n=70 v=0
20941 On ch=10 n=63 v=0
21000 On ch=10 n=63 v=59
21000 On ch=10 n=70 v=86
21001 On ch=10 n=70 v=0
21001 On ch=10 n=63 v=0
21060 On ch=10 n=64 v=90
21060 On ch=10 n=70 v=38
21061 On ch=10 n=70 v=0
21061 On ch=10 n=64 v=0
21120 On ch=10 n=70 v=55
21121 On ch=10 n=70 v=0
21180 On ch=10 n=64 v=64
21180 On ch=10 n=70 v=41
21181 On ch=10 n=70 v=0
21181 On ch=10 n=64 v=0
21240 On ch=10 n=63 v=79
21240 On ch=10 n=70 v=82
21241 On ch=10 n=70 v=0
21241 On ch=10 n=63 v=0
21300 On ch=10 n=63 v=94
21300 On ch=10 n=70 v=34
21301 On ch=10 n=70 v=0
21301 On ch=10 n=63 v=0
21360 On ch=10 n=62 v=106
21360 On ch=10 n=70 v=59
21361 On ch=10 n=70 v=0
21361 On ch=10 n=62 v=0
21420 On ch=10 n=70 v=38
21421 On ch=10 n=70 v=0
21480 On ch=10 n=63 v=96
21480 On ch=10 n=70 v=77
21481 On ch=10 n=70 v=0
21481 On ch=10 n=63 v=0
21540 On ch=10 n=63 v=59
21540 On ch=10 n=70 v=34
21541 On ch=10 n=70 v=0
21541 On ch=10 n=63 v=0
21600 On ch=10 n=64 v=92
21600 On ch=10 n=70 v=59
21601 On ch=10 n=70 v=0
21601 On ch=10 n=64 v=0
21660 On ch=10 n=70 v=34
21661 On ch=10 n=70 v=0
21720 On ch=10 n=62 v=99
21720 On ch=10 n=70 v=82
21721 On ch=10 n=70 v=0
21721 On ch=10 n=62 v=0
21780 On ch=10 n=61 v=47
21780 On ch=10 n=70 v=34
21781 On ch=10 n=70 v=0
21781 On ch=10 n=61 v=0
21840 On ch=10 n=64 v=32
21840 On ch=10 n=70 v=53
21841 On ch=10 n=70 v=0
21841 On ch=10 n=64 v=0
21900 On ch=10 n=63 v=87
21900 On ch=10 n=70 v=47
21901 On ch=10 n=70 v=0
21901 On ch=10 n=63 v=0
21960 On ch=10 n=63 v=59
21960 On ch=10 n=70 v=86
21961 On ch=10 n=70 v=0
21961 On ch=10 n=63 v=0
22020 On ch=10 n=64 v=90
22020 On ch=10 n=70 v=38
22021 On ch=10 n=70 v=0
22021 On ch=10 n=64 v=0
22080 On ch=10 n=70 v=55
22081 On ch=10 n=70 v=0
22140 On ch=10 n=64 v=64
22140 On ch=10 n=70 v=41
22141 On ch=10 n=70 v=0
22141 On ch=10 n=64 v=0
22200 On ch=10 n=63 v=71
22200 On ch=10 n=70 v=82
22201 On ch=10 n=70 v=0
22201 On ch=10 n=63 v=0
22260 On ch=10 n=63 v=94
22260 On ch=10 n=70 v=34
22261 On ch=10 n=70 v=0
22261 On ch=10 n=63 v=0
22320 On ch=10 n=62 v=106
22320 On ch=10 n=70 v=59
22321 On ch=10 n=70 v=0
22321 On ch=10 n=62 v=0
22380 On ch=10 n=63 v=32
22380 On ch=10 n=70 v=38
22381 On ch=10 n=70 v=0
22381 On ch=10 n=63 v=0
22440 On ch=10 n=63 v=96
22440 On ch=10 n=70 v=77
22441 On ch=10 n=70 v=0
22441 On ch=10 n=63 v=0
22500 On ch=10 n=62 v=52
22500 On ch=10 n=70 v=34
22501 On ch=10 n=70 v=0
22501 On ch=10 n=62 v=0
22560 On ch=10 n=64 v=92
22560 On ch=10 n=70 v=59
22561 On ch=10 n=70 v=0
22561 On ch=10 n=64 v=0
22620 On ch=10 n=70 v=34
22621 On ch=10 n=70 v=0
22680 On ch=10 n=62 v=99
22680 On ch=10 n=70 v=82
22681 On ch=10 n=70 v=0
22681 On ch=10 n=62 v=0
22740 On ch=10 n=70 v=34
22741 On ch=10 n=70 v=0
22800 On ch=10 n=70 v=53
22801 On ch=10 n=70 v=0
22860 On ch=10 n=63 v=87
22860 On ch=10 n=70 v=47
22861 On ch=10 n=70 v=0
22861 On ch=10 n=63 v=0
22920 On ch=10 n=63 v=59
22920 On ch=10 n=70 v=86
22921 On ch=10 n=70 v=0
22921 On ch=10 n=63 v=0
22980 On ch=10 n=64 v=90
22980 On ch=10 n=70 v=38
22981 On ch=10 n=70 v=0
22981 On ch=10 n=64 v=0
23040 On ch=10 n=70 v=55
23041 On ch=10 n=70 v=0
23100 On ch=10 n=64 v=64
23100 On ch=10 n=70 v=41
23101 On ch=10 n=70 v=0
23101 On ch=10 n=64 v=0
23160 On ch=10 n=63 v=79
23160 On ch=10 n=70 v=82
23161 On ch=10 n=70 v=0
23161 On ch=10 n=63 v=0
23220 On ch=10 n=63 v=94
23220 On ch=10 n=70 v=34
23221 On ch=10 n=70 v=0
23221 On ch=10 n=63 v=0
23280 On ch=10 n=62 v=106
23280 On ch=10 n=70 v=59
23281 On ch=10 n=70 v=0
23281 On ch=10 n=62 v=0
23340 On ch=10 n=70 v=38
23341 On ch=10 n=70 v=0
23400 On ch=10 n=63 v=96
23400 On ch=10 n=70 v=77
23401 On ch=10 n=70 v=0
23401 On ch=10 n=63 v=0
23460 On ch=10 n=63 v=59
23460 On ch=10 n=70 v=34
23461 On ch=10 n=70 v=0
23461 On ch=10 n=63 v=0
23520 On ch=10 n=64 v=92
23520 On ch=10 n=70 v=59
23521 On ch=10 n=70 v=0
23521 On ch=10 n=64 v=0
23580 On ch=10 n=70 v=34
23581 On ch=10 n=70 v=0
23640 On ch=10 n=62 v=99
23640 On ch=10 n=70 v=82
23641 On ch=10 n=70 v=0
23641 On ch=10 n=62 v=0
23700 On ch=10 n=61 v=47
23700 On ch=10 n=70 v=34
23701 On ch=10 n=70 v=0
23701 On ch=10 n=61 v=0
23760 On ch=10 n=64 v=32
23760 On ch=10 n=70 v=53
23761 On ch=10 n=70 v=0
23761 On ch=10 n=64 v=0
23820 On ch=10 n=63 v=87
23820 On ch=10 n=70 v=47
23821 On ch=10 n=70 v=0
23821 On ch=10 n=63 v=0
23880 On ch=10 n=63 v=59
23880 On ch=10 n=70 v=86
23881 On ch=10 n=70 v=0
23881 On ch=10 n=63 v=0
23940 On ch=10 n=64 v=90
23940 On ch=10 n=70 v=38
23941 On ch=10 n=70 v=0
23941 On ch=10 n=64 v=0
24000 On ch=10 n=70 v=55
24001 On ch=10 n=70 v=0
24060 On ch=10 n=64 v=64
24060 On ch=10 n=70 v=41
24061 On ch=10 n=70 v=0
24061 On ch=10 n=64 v=0
24120 On ch=10 n=63 v=71
24120 On ch=10 n=70 v=82
24121 On ch=10 n=70 v=0
24121 On ch=10 n=63 v=0
24180 On ch=10 n=63 v=94
24180 On ch=10 n=70 v=34
24181 On ch=10 n=70 v=0
24181 On ch=10 n=63 v=0
24240 On ch=10 n=62 v=106
24240 On ch=10 n=70 v=59
24241 On ch=10 n=70 v=0
24241 On ch=10 n=62 v=0
24300 On ch=10 n=63 v=32
24300 On ch=10 n=70 v=38
24301 On ch=10 n=70 v=0
24301 On ch=10 n=63 v=0
24360 On ch=10 n=63 v=96
24360 On ch=10 n=70 v=77
24361 On ch=10 n=70 v=0
24361 On ch=10 n=63 v=0
24420 On ch=10 n=62 v=52
24420 On ch=10 n=70 v=34
24421 On ch=10 n=70 v=0
24421 On ch=10 n=62 v=0
24480 On ch=10 n=64 v=92
24480 On ch=10 n=70 v=59
24481 On ch=10 n=70 v=0
24481 On ch=10 n=64 v=0
24540 On ch=10 n=70 v=34
24541 On ch=10 n=70 v=0
24600 On ch=10 n=62 v=99
24600 On ch=10 n=70 v=82
24601 On ch=10 n=70 v=0
24601 On ch=10 n=62 v=0
24660 On ch=10 n=70 v=34
24661 On ch=10 n=70 v=0
24720 On ch=10 n=70 v=53
24721 On ch=10 n=70 v=0
24780 On ch=10 n=63 v=87
24780 On ch=10 n=70 v=47
24781 On ch=10 n=70 v=0
24781 On ch=10 n=63 v=0
24840 On ch=10 n=63 v=59
24840 On ch=10 n=70 v=86
24841 On ch=10 n=70 v=0
24841 On ch=10 n=63 v=0
24900 On ch=10 n=64 v=90
24900 On ch=10 n=70 v=38
24901 On ch=10 n=70 v=0
24901 On ch=10 n=64 v=0
24960 On ch=10 n=64 v=92
24960 On ch=10 n=70 v=55
24961 On ch=10 n=70 v=0
24961 On ch=10 n=64 v=0
25020 On ch=10 n=70 v=41
25021 On ch=10 n=70 v=0
25080 On ch=10 n=62 v=99
25080 On ch=10 n=70 v=82
25081 On ch=10 n=70 v=0
25081 On ch=10 n=62 v=0
25140 On ch=10 n=70 v=34
25141 On ch=10 n=70 v=0
25200 On ch=10 n=70 v=59
25201 On ch=10 n=70 v=0
25260 On ch=10 n=63 v=87
25260 On ch=10 n=70 v=38
25261 On ch=10 n=70 v=0
25261 On ch=10 n=63 v=0
25320 On ch=10 n=63 v=59
25320 On ch=10 n=70 v=77
25321 On ch=10 n=70 v=0
25321 On ch=10 n=63 v=0
25380 On ch=10 n=64 v=90
25380 On ch=10 n=70 v=34
25381 On ch=10 n=70 v=0
25381 On ch=10 n=64 v=0
25440 On ch=10 n=70 v=59
25441 On ch=10 n=70 v=0
25500 On ch=10 n=64 v=64
25500 On ch=10 n=70 v=34
25501 On ch=10 n=70 v=0
25501 On ch=10 n=64 v=0
25560 On ch=10 n=63 v=79
25560 On ch=10 n=70 v=82
25561 On ch=10 n=70 v=0
25561 On ch=10 n=63 v=0
25620 On ch=10 n=63 v=94
25620 On ch=10 n=70 v=34
25621 On ch=10 n=70 v=0
25621 On ch=10 n=63 v=0
25680 On ch=10 n=62 v=106
25680 On ch=10 n=70 v=53
25681 On ch=10 n=70 v=0
25681 On ch=10 n=62 v=0
25740 On ch=10 n=70 v=47
25741 On ch=10 n=70 v=0
25800 On ch=10 n=63 v=96
25800 On ch=10 n=70 v=86
25801 On ch=10 n=70 v=0
25801 On ch=10 n=63 v=0
25860 On ch=10 n=63 v=59
25860 On ch=10 n=70 v=38
25861 On ch=10 n=70 v=0
25861 On ch=10 n=63 v=0
25920 On ch=10 n=64 v=92
25920 On ch=10 n=70 v=55
25921 On ch=10 n=70 v=0
25921 On ch=10 n=64 v=0
25980 On ch=10 n=70 v=41
25981 On ch=10 n=70 v=0
26040 On ch=10 n=62 v=99
26040 On ch=10 n=70 v=82
26041 On ch=10 n=70 v=0
26041 On ch=10 n=62 v=0
26100 On ch=10 n=61 v=47
26100 On ch=10 n=70 v=34
26101 On ch=10 n=70 v=0
26101 On ch=10 n=61 v=0
26160 On ch=10 n=64 v=32
26160 On ch=10 n=70 v=59
26161 On ch=10 n=70 v=0
26161 On ch=10 n=64 v=0
26220 On ch=10 n=63 v=87
26220 On ch=10 n=70 v=38
26221 On ch=10 n=70 v=0
26221 On ch=10 n=63 v=0
26280 On ch=10 n=63 v=59
26280 On ch=10 n=70 v=77
26281 On ch=10 n=70 v=0
26281 On ch=10 n=63 v=0
26340 On ch=10 n=64 v=90
26340 On ch=10 n=70 v=34
26341 On ch=10 n=70 v=0
26341 On ch=10 n=64 v=0
26400 On ch=10 n=70 v=59
26401 On ch=10 n=70 v=0
26460 On ch=10 n=64 v=64
26460 On ch=10 n=70 v=34
26461 On ch=10 n=70 v=0
26461 On ch=10 n=64 v=0
26520 On ch=10 n=63 v=71
26520 On ch=10 n=70 v=82
26521 On ch=10 n=70 v=0
26521 On ch=10 n=63 v=0
26580 On ch=10 n=63 v=94
26580 On ch=10 n=70 v=34
26581 On ch=10 n=70 v=0
26581 On ch=10 n=63 v=0
26640 On ch=10 n=62 v=106
26640 On ch=10 n=70 v=53
26641 On ch=10 n=70 v=0
26641 On ch=10 n=62 v=0
26700 On ch=10 n=63 v=32
26700 On ch=10 n=70 v=47
26701 On ch=10 n=70 v=0
26701 On ch=10 n=63 v=0
26760 On ch=10 n=63 v=96
26760 On ch=10 n=70 v=86
26761 On ch=10 n=70 v=0
26761 On ch=10 n=63 v=0
26820 On ch=10 n=62 v=52
26820 On ch=10 n=70 v=38
26821 On ch=10 n=70 v=0
26821 On ch=10 n=62 v=0
26880 On ch=10 n=64 v=92
26880 On ch=10 n=70 v=55
26881 On ch=10 n=70 v=0
26881 On ch=10 n=64 v=0
26940 On ch=10 n=70 v=41
26941 On ch=10 n=70 v=0
27000 On ch=10 n=62 v=99
27000 On ch=10 n=70 v=82
27001 On ch=10 n=70 v=0
27001 On ch=10 n=62 v=0
27060 On ch=10 n=70 v=34
27061 On ch=10 n=70 v=0
27120 On ch=10 n=70 v=59
27121 On ch=10 n=70 v=0
27180 On ch=10 n=63 v=87
27180 On ch=10 n=70 v=38
27181 On ch=10 n=70 v=0
27181 On ch=10 n=63 v=0
27240 On ch=10 n=63 v=59
27240 On ch=10 n=70 v=77
27241 On ch=10 n=70 v=0
27241 On ch=10 n=63 v=0
27300 On ch=10 n=64 v=90
27300 On ch=10 n=70 v=34
27301 On ch=10 n=70 v=0
27301 On ch=10 n=64 v=0
27360 On ch=10 n=64 v=92
27360 On ch=10 n=70 v=59
27361 On ch=10 n=70 v=0
27361 On ch=10 n=64 v=0
27420 On ch=10 n=70 v=34
27421 On ch=10 n=70 v=0
27480 On ch=10 n=62 v=99
27480 On ch=10 n=70 v=82
27481 On ch=10 n=70 v=0
27481 On ch=10 n=62 v=0
27540 On ch=10 n=70 v=34
27541 On ch=10 n=70 v=0
27600 On ch=10 n=70 v=53
27601 On ch=10 n=70 v=0
27660 On ch=10 n=63 v=87
27660 On ch=10 n=70 v=47
27661 On ch=10 n=70 v=0
27661 On ch=10 n=63 v=0
27720 On ch=10 n=63 v=59
27720 On ch=10 n=70 v=86
27721 On ch=10 n=70 v=0
27721 On ch=10 n=63 v=0
27780 On ch=10 n=64 v=90
27780 On ch=10 n=70 v=38
27781 On ch=10 n=70 v=0
27781 On ch=10 n=64 v=0
27840 On ch=10 n=70 v=55
27841 On ch=10 n=70 v=0
27900 On ch=10 n=64 v=64
27900 On ch=10 n=70 v=41
27901 On ch=10 n=70 v=0
27901 On ch=10 n=64 v=0
27960 On ch=10 n=63 v=79
27960 On ch=10 n=70 v=82
27961 On ch=10 n=70 v=0
27961 On ch=10 n=63 v=0
28020 On ch=10 n=63 v=94
28020 On ch=10 n=70 v=34
28021 On ch=10 n=70 v=0
28021 On ch=10 n=63 v=0
28080 On ch=10 n=62 v=106
28080 On ch=10 n=70 v=59
28081 On ch=10 n=70 v=0
28081 On ch=10 n=62 v=0
28140 On ch=10 n=70 v=38
28141 On ch=10 n=70 v=0
28200 On ch=10 n=63 v=96
28200 On ch=10 n=70 v=77
28201 On ch=10 n=70 v=0
28201 On ch=10 n=63 v=0
28260 On ch=10 n=63 v=59
28260 On ch=10 n=70 v=34
28261 On ch=10 n=70 v=0
28261 On ch=10 n=63 v=0
28320 On ch=10 n=64 v=92
28320 On ch=10 n=70 v=59
28321 On ch=10 n=70 v=0
28321 On ch=10 n=64 v=0
28380 On ch=10 n=70 v=34
28381 On ch=10 n=70 v=0
28440 On ch=10 n=62 v=99
28440 On ch=10 n=70 v=82
28441 On ch=10 n=70 v=0
28441 On ch=10 n=62 v=0
28500 On ch=10 n=61 v=47
28500 On ch=10 n=70 v=34
28501 On ch=10 n=70 v=0
28501 On ch=10 n=61 v=0
28560 On ch=10 n=64 v=32
28560 On ch=10 n=70 v=53
28561 On ch=10 n=70 v=0
28561 On ch=10 n=64 v=0
28620 On ch=10 n=63 v=87
28620 On ch=10 n=70 v=47
28621 On ch=10 n=70 v=0
28621 On ch=10 n=63 v=0
28680 On ch=10 n=63 v=59
28680 On ch=10 n=70 v=86
28681 On ch=10 n=70 v=0
28681 On ch=10 n=63 v=0
28740 On ch=10 n=64 v=90
28740 On ch=10 n=70 v=38
28741 On ch=10 n=70 v=0
28741 On ch=10 n=64 v=0
28800 On ch=10 n=70 v=55
28801 On ch=10 n=70 v=0
28860 On ch=10 n=64 v=64
28860 On ch=10 n=70 v=41
28861 On ch=10 n=70 v=0
28861 On ch=10 n=64 v=0
28920 On ch=10 n=63 v=71
28920 On ch=10 n=70 v=82
28921 On ch=10 n=70 v=0
28921 On ch=10 n=63 v=0
28980 On ch=10 n=63 v=94
28980 On ch=10 n=70 v=34
28981 On ch=10 n=70 v=0
28981 On ch=10 n=63 v=0
29040 On ch=10 n=62 v=106
29040 On ch=10 n=70 v=59
29041 On ch=10 n=70 v=0
29041 On ch=10 n=62 v=0
29100 On ch=10 n=63 v=32
29100 On ch=10 n=70 v=38
29101 On ch=10 n=70 v=0
29101 On ch=10 n=63 v=0
29160 On ch=10 n=63 v=96
29160 On ch=10 n=70 v=77
29161 On ch=10 n=70 v=0
29161 On ch=10 n=63 v=0
29220 On ch=10 n=62 v=52
29220 On ch=10 n=70 v=34
29221 On ch=10 n=70 v=0
29221 On ch=10 n=62 v=0
29280 On ch=10 n=64 v=92
29280 On ch=10 n=70 v=59
29281 On ch=10 n=70 v=0
29281 On ch=10 n=64 v=0
29340 On ch=10 n=70 v=34
29341 On ch=10 n=70 v=0
29400 On ch=10 n=62 v=99
29400 On ch=10 n=70 v=82
29401 On ch=10 n=70 v=0
29401 On ch=10 n=62 v=0
29460 On ch=10 n=70 v=34
29461 On ch=10 n=70 v=0
29520 On ch=10 n=70 v=53
29521 On ch=10 n=70 v=0
29580 On ch=10 n=63 v=87
29580 On ch=10 n=70 v=47
29581 On ch=10 n=70 v=0
29581 On ch=10 n=63 v=0
29640 On ch=10 n=63 v=59
29640 On ch=10 n=70 v=86
29641 On ch=10 n=70 v=0
29641 On ch=10 n=63 v=0
29700 On ch=10 n=64 v=90
29700 On ch=10 n=70 v=38
29701 On ch=10 n=70 v=0
29701 On ch=10 n=64 v=0
29760 On ch=10 n=64 v=92
29760 On ch=10 n=70 v=55
29761 On ch=10 n=70 v=0
29761 On ch=10 n=64 v=0
29820 On ch=10 n=70 v=41
29821 On ch=10 n=70 v=0
29880 On ch=10 n=62 v=99
29880 On ch=10 n=70 v=82
29881 On ch=10 n=70 v=0
29881 On ch=10 n=62 v=0
29940 On ch=10 n=70 v=34
29941 On ch=10 n=70 v=0
30000 On ch=10 n=70 v=59
30001 On ch=10 n=70 v=0
30060 On ch=10 n=63 v=87
30060 On ch=10 n=70 v=38
30061 On ch=10 n=70 v=0
30061 On ch=10 n=63 v=0
30120 On ch=10 n=63 v=59
30120 On ch=10 n=70 v=77
30121 On ch=10 n=70 v=0
30121 On ch=10 n=63 v=0
30180 On ch=10 n=64 v=90
30180 On ch=10 n=70 v=34
30181 On ch=10 n=70 v=0
30181 On ch=10 n=64 v=0
30240 On ch=10 n=70 v=59
30241 On ch=10 n=70 v=0
30300 On ch=10 n=64 v=64
30300 On ch=10 n=70 v=34
30301 On ch=10 n=70 v=0
30301 On ch=10 n=64 v=0
30360 On ch=10 n=63 v=79
30360 On ch=10 n=70 v=82
30361 On ch=10 n=70 v=0
30361 On ch=10 n=63 v=0
30420 On ch=10 n=63 v=94
30420 On ch=10 n=70 v=34
30421 On ch=10 n=70 v=0
30421 On ch=10 n=63 v=0
30480 On ch=10 n=62 v=106
30480 On ch=10 n=70 v=53
30481 On ch=10 n=70 v=0
30481 On ch=10 n=62 v=0
30540 On ch=10 n=70 v=47
30541 On ch=10 n=70 v=0
30600 On ch=10 n=63 v=96
30600 On ch=10 n=70 v=86
30601 On ch=10 n=70 v=0
30601 On ch=10 n=63 v=0
30660 On ch=10 n=63 v=59
30660 On ch=10 n=70 v=38
30661 On ch=10 n=70 v=0
30661 On ch=10 n=63 v=0
30720 On ch=10 n=64 v=92
30720 On ch=10 n=70 v=55
30721 On ch=10 n=70 v=0
30721 On ch=10 n=64 v=0
30780 On ch=10 n=70 v=41
30781 On ch=10 n=70 v=0
30840 On ch=10 n=62 v=99
30840 On ch=10 n=70 v=82
30841 On ch=10 n=70 v=0
30841 On ch=10 n=62 v=0
30900 On ch=10 n=61 v=47
30900 On ch=10 n=70 v=34
30901 On ch=10 n=70 v=0
30901 On ch=10 n=61 v=0
30960 On ch=10 n=64 v=32
30960 On ch=10 n=70 v=59
30961 On ch=10 n=70 v=0
30961 On ch=10 n=64 v=0
31020 On ch=10 n=63 v=87
31020 On ch=10 n=70 v=38
31021 On ch=10 n=70 v=0
31021 On ch=10 n=63 v=0
31080 On ch=10 n=63 v=59
31080 On ch=10 n=70 v=77
31081 On ch=10 n=70 v=0
31081 On ch=10 n=63 v=0
31140 On ch=10 n=64 v=90
31140 On ch=10 n=70 v=34
31141 On ch=10 n=70 v=0
31141 On ch=10 n=64 v=0
31200 On ch=10 n=64 v=92
31200 On ch=10 n=70 v=64
31201 On ch=10 n=70 v=0
31201 On ch=10 n=64 v=0
31260 On ch=10 n=70 v=39
31261 On ch=10 n=70 v=0
31320 On ch=10 n=62 v=99
31320 On ch=10 n=54 v=100
31320 On ch=10 n=70 v=87
31321 On ch=10 n=70 v=0
31321 On ch=10 n=54 v=0
31321 On ch=10 n=62 v=0
31380 On ch=10 n=70 v=39
31381 On ch=10 n=70 v=0
31440 On ch=10 n=70 v=58
31441 On ch=10 n=70 v=0
31500 On ch=10 n=63 v=87
31500 On ch=10 n=70 v=52
31501 On ch=10 n=70 v=0
31501 On ch=10 n=63 v=0
31560 On ch=10 n=63 v=59
31560 On ch=10 n=54 v=99
31560 On ch=10 n=70 v=91
31561 On ch=10 n=70 v=0
31561 On ch=10 n=54 v=0
31561 On ch=10 n=63 v=0
31620 On ch=10 n=64 v=90
31620 On ch=10 n=70 v=43
31621 On ch=10 n=70 v=0
31621 On ch=10 n=64 v=0
31680 On ch=10 n=70 v=60
31681 On ch=10 n=70 v=0
31740 On ch=10 n=64 v=64
31740 On ch=10 n=70 v=46
31741 On ch=10 n=70 v=0
31741 On ch=10 n=64 v=0
31800 On ch=10 n=63 v=79
31800 On ch=10 n=54 v=99
31800 On ch=10 n=70 v=87
31801 On ch=10 n=70 v=0
31801 On ch=10 n=54 v=0
31801 On ch=10 n=63 v=0
31860 On ch=10 n=63 v=94
31860 On ch=10 n=70 v=39
31861 On ch=10 n=70 v=0
31861 On ch=10 n=63 v=0
31920 On ch=10 n=62 v=106
31920 On ch=10 n=70 v=64
31921 On ch=10 n=70 v=0
31921 On ch=10 n=62 v=0
31980 On ch=10 n=70 v=43
31981 On ch=10 n=70 v=0
32040 On ch=10 n=63 v=96
32040 On ch=10 n=54 v=98
32040 On ch=10 n=70 v=82
32041 On ch=10 n=70 v=0
32041 On ch=10 n=54 v=0
32041 On ch=10 n=63 v=0
32100 On ch=10 n=63 v=59
32100 On ch=10 n=70 v=39
32101 On ch=10 n=70 v=0
32101 On ch=10 n=63 v=0
32160 On ch=10 n=64 v=92
32160 On ch=10 n=70 v=64
32161 On ch=10 n=70 v=0
32161 On ch=10 n=64 v=0
32220 On ch=10 n=70 v=39
32221 On ch=10 n=70 v=0
32280 On ch=10 n=62 v=99
32280 On ch=10 n=54 v=98
32280 On ch=10 n=70 v=87
32281 On ch=10 n=70 v=0
32281 On ch=10 n=54 v=0
32281 On ch=10 n=62 v=0
32340 On ch=10 n=61 v=47
32340 On ch=10 n=70 v=39
32341 On ch=10 n=70 v=0
32341 On ch=10 n=61 v=0
32400 On ch=10 n=64 v=32
32400 On ch=10 n=70 v=58
32401 On ch=10 n=70 v=0
32401 On ch=10 n=64 v=0
32460 On ch=10 n=63 v=87
32460 On ch=10 n=70 v=52
32461 On ch=10 n=70 v=0
32461 On ch=10 n=63 v=0
32520 On ch=10 n=63 v=59
32520 On ch=10 n=54 v=97
32520 On ch=10 n=70 v=91
32521 On ch=10 n=70 v=0
32521 On ch=10 n=54 v=0
32521 On ch=10 n=63 v=0
32580 On ch=10 n=64 v=90
32580 On ch=10 n=70 v=43
32581 On ch=10 n=70 v=0
32581 On ch=10 n=64 v=0
32640 On ch=10 n=70 v=60
32641 On ch=10 n=70 v=0
32700 On ch=10 n=64 v=64
32700 On ch=10 n=70 v=46
32701 On ch=10 n=70 v=0
32701 On ch=10 n=64 v=0
32760 On ch=10 n=63 v=71
32760 On ch=10 n=54 v=97
32760 On ch=10 n=70 v=87
32761 On ch=10 n=70 v=0
32761 On ch=10 n=54 v=0
32761 On ch=10 n=63 v=0
32820 On ch=10 n=63 v=94
32820 On ch=10 n=70 v=39
32821 On ch=10 n=70 v=0
32821 On ch=10 n=63 v=0
32880 On ch=10 n=62 v=106
32880 On ch=10 n=70 v=64
32881 On ch=10 n=70 v=0
32881 On ch=10 n=62 v=0
32940 On ch=10 n=63 v=32
32940 On ch=10 n=70 v=43
32941 On ch=10 n=70 v=0
32941 On ch=10 n=63 v=0
33000 On ch=10 n=63 v=96
33000 On ch=10 n=54 v=96
33000 On ch=10 n=70 v=82
33001 On ch=10 n=70 v=0
33001 On ch=10 n=54 v=0
33001 On ch=10 n=63 v=0
33060 On ch=10 n=62 v=52
33060 On ch=10 n=70 v=39
33061 On ch=10 n=70 v=0
33061 On ch=10 n=62 v=0
33120 On ch=10 n=64 v=92
33120 On ch=10 n=70 v=64
33121 On ch=10 n=70 v=0
33121 On ch=10 n=64 v=0
33180 On ch=10 n=70 v=39
33181 On ch=10 n=70 v=0
33240 On ch=10 n=62 v=99
33240 On ch=10 n=54 v=100
33240 On ch=10 n=70 v=87
33241 On ch=10 n=70 v=0
33241 On ch=10 n=54 v=0
33241 On ch=10 n=62 v=0
33300 On ch=10 n=70 v=39
33301 On ch=10 n=70 v=0
33360 On ch=10 n=70 v=58
33361 On ch=10 n=70 v=0
33420 On ch=10 n=63 v=87
33420 On ch=10 n=70 v=52
33421 On ch=10 n=70 v=0
33421 On ch=10 n=63 v=0
33480 On ch=10 n=63 v=59
33480 On ch=10 n=54 v=99
33480 On ch=10 n=70 v=91
33481 On ch=10 n=70 v=0
33481 On ch=10 n=54 v=0
33481 On ch=10 n=63 v=0
33540 On ch=10 n=64 v=90
33540 On ch=10 n=70 v=43
33541 On ch=10 n=70 v=0
33541 On ch=10 n=64 v=0
33600 On ch=10 n=70 v=60
33601 On ch=10 n=70 v=0
33660 On ch=10 n=64 v=64
33660 On ch=10 n=70 v=46
33661 On ch=10 n=70 v=0
33661 On ch=10 n=64 v=0
33720 On ch=10 n=63 v=79
33720 On ch=10 n=54 v=99
33720 On ch=10 n=70 v=87
33721 On ch=10 n=70 v=0
33721 On ch=10 n=54 v=0
33721 On ch=10 n=63 v=0
33780 On ch=10 n=63 v=94
33780 On ch=10 n=70 v=39
33781 On ch=10 n=70 v=0
33781 On ch=10 n=63 v=0
33840 On ch=10 n=62 v=106
33840 On ch=10 n=70 v=64
33841 On ch=10 n=70 v=0
33841 On ch=10 n=62 v=0
33900 On ch=10 n=70 v=43
33901 On ch=10 n=70 v=0
33960 On ch=10 n=63 v=96
33960 On ch=10 n=54 v=98
33960 On ch=10 n=70 v=82
33961 On ch=10 n=70 v=0
33961 On ch=10 n=54 v=0
33961 On ch=10 n=63 v=0
34020 On ch=10 n=63 v=59
34020 On ch=10 n=70 v=39
34021 On ch=10 n=70 v=0
34021 On ch=10 n=63 v=0
34080 On ch=10 n=64 v=92
34080 On ch=10 n=70 v=64
34081 On ch=10 n=70 v=0
34081 On ch=10 n=64 v=0
34140 On ch=10 n=70 v=39
34141 On ch=10 n=70 v=0
34200 On ch=10 n=62 v=99
34200 On ch=10 n=54 v=98
34200 On ch=10 n=70 v=87
34201 On ch=10 n=70 v=0
34201 On ch=10 n=54 v=0
34201 On ch=10 n=62 v=0
34260 On ch=10 n=61 v=47
34260 On ch=10 n=70 v=39
34261 On ch=10 n=70 v=0
34261 On ch=10 n=61 v=0
34320 On ch=10 n=64 v=32
34320 On ch=10 n=70 v=58
34321 On ch=10 n=70 v=0
34321 On ch=10 n=64 v=0
34380 On ch=10 n=63 v=87
34380 On ch=10 n=70 v=52
34381 On ch=10 n=70 v=0
34381 On ch=10 n=63 v=0
34440 On ch=10 n=63 v=59
34440 On ch=10 n=54 v=97
34440 On ch=10 n=70 v=91
34441 On ch=10 n=70 v=0
34441 On ch=10 n=54 v=0
34441 On ch=10 n=63 v=0
34500 On ch=10 n=64 v=90
34500 On ch=10 n=70 v=43
34501 On ch=10 n=70 v=0
34501 On ch=10 n=64 v=0
34560 On ch=10 n=70 v=60
34561 On ch=10 n=70 v=0
34620 On ch=10 n=64 v=64
34620 On ch=10 n=70 v=46
34621 On ch=10 n=70 v=0
34621 On ch=10 n=64 v=0
34680 On ch=10 n=63 v=71
34680 On ch=10 n=54 v=97
34680 On ch=10 n=70 v=87
34681 On ch=10 n=70 v=0
34681 On ch=10 n=54 v=0
34681 On ch=10 n=63 v=0
34740 On ch=10 n=63 v=94
34740 On ch=10 n=70 v=39
34741 On ch=10 n=70 v=0
34741 On ch=10 n=63 v=0
34800 On ch=10 n=62 v=106
34800 On ch=10 n=70 v=64
34801 On ch=10 n=70 v=0
34801 On ch=10 n=62 v=0
34860 On ch=10 n=63 v=32
34860 On ch=10 n=70 v=43
34861 On ch=10 n=70 v=0
34861 On ch=10 n=63 v=0
34920 On ch=10 n=63 v=96
34920 On ch=10 n=54 v=96
34920 On ch=10 n=70 v=82
34921 On ch=10 n=70 v=0
34921 On ch=10 n=54 v=0
34921 On ch=10 n=63 v=0
34980 On ch=10 n=62 v=52
34980 On ch=10 n=70 v=39
34981 On ch=10 n=70 v=0
34981 On ch=10 n=62 v=0
35040 On ch=10 n=64 v=92
35040 On ch=10 n=70 v=64
35041 On ch=10 n=70 v=0
35041 On ch=10 n=64 v=0
35100 On ch=10 n=70 v=39
35101 On ch=10 n=70 v=0
35160 On ch=10 n=62 v=99
35160 On ch=10 n=54 v=100
35160 On ch=10 n=70 v=87
35161 On ch=10 n=70 v=0
35161 On ch=10 n=54 v=0
35161 On ch=10 n=62 v=0
35220 On ch=10 n=70 v=39
35221 On ch=10 n=70 v=0
35280 On ch=10 n=70 v=58
35281 On ch=10 n=70 v=0
35340 On ch=10 n=63 v=87
35340 On ch=10 n=70 v=52
35341 On ch=10 n=70 v=0
35341 On ch=10 n=63 v=0
35400 On ch=10 n=63 v=59
35400 On ch=10 n=54 v=99
35400 On ch=10 n=70 v=91
35401 On ch=10 n=70 v=0
35401 On ch=10 n=54 v=0
35401 On ch=10 n=63 v=0
35460 On ch=10 n=64 v=90
35460 On ch=10 n=70 v=43
35461 On ch=10 n=70 v=0
35461 On ch=10 n=64 v=0
35520 On ch=10 n=70 v=60
35521 On ch=10 n=70 v=0
35580 On ch=10 n=64 v=64
35580 On ch=10 n=70 v=46
35581 On ch=10 n=70 v=0
35581 On ch=10 n=64 v=0
35640 On ch=10 n=63 v=79
35640 On ch=10 n=54 v=99
35640 On ch=10 n=70 v=87
35641 On ch=10 n=70 v=0
35641 On ch=10 n=54 v=0
35641 On ch=10 n=63 v=0
35700 On ch=10 n=63 v=94
35700 On ch=10 n=70 v=39
35701 On ch=10 n=70 v=0
35701 On ch=10 n=63 v=0
35760 On ch=10 n=62 v=106
35760 On ch=10 n=70 v=64
35761 On ch=10 n=70 v=0
35761 On ch=10 n=62 v=0
35820 On ch=10 n=70 v=43
35821 On ch=10 n=70 v=0
35880 On ch=10 n=63 v=96
35880 On ch=10 n=54 v=98
35880 On ch=10 n=70 v=82
35881 On ch=10 n=70 v=0
35881 On ch=10 n=54 v=0
35881 On ch=10 n=63 v=0
35940 On ch=10 n=63 v=59
35940 On ch=10 n=70 v=39
35941 On ch=10 n=70 v=0
35941 On ch=10 n=63 v=0
36000 On ch=10 n=64 v=92
36000 On ch=10 n=70 v=64
36001 On ch=10 n=70 v=0
36001 On ch=10 n=64 v=0
36060 On ch=10 n=70 v=39
36061 On ch=10 n=70 v=0
36120 On ch=10 n=62 v=99
36120 On ch=10 n=54 v=98
36120 On ch=10 n=70 v=87
36121 On ch=10 n=70 v=0
36121 On ch=10 n=54 v=0
36121 On ch=10 n=62 v=0
36180 On ch=10 n=61 v=47
36180 On ch=10 n=70 v=39
36181 On ch=10 n=70 v=0
36181 On ch=10 n=61 v=0
36240 On ch=10 n=64 v=32
36240 On ch=10 n=70 v=58
36241 On ch=10 n=70 v=0
36241 On ch=10 n=64 v=0
36300 On ch=10 n=63 v=87
36300 On ch=10 n=70 v=52
36301 On ch=10 n=70 v=0
36301 On ch=10 n=63 v=0
36360 On ch=10 n=63 v=59
36360 On ch=10 n=54 v=97
36360 On ch=10 n=70 v=91
36361 On ch=10 n=70 v=0
36361 On ch=10 n=54 v=0
36361 On ch=10 n=63 v=0
36420 On ch=10 n=64 v=90
36420 On ch=10 n=70 v=43
36421 On ch=10 n=70 v=0
36421 On ch=10 n=64 v=0
36480 On ch=10 n=70 v=60
36481 On ch=10 n=70 v=0
36540 On ch=10 n=64 v=64
36540 On ch=10 n=70 v=46
36541 On ch=10 n=70 v=0
36541 On ch=10 n=64 v=0
36600 On ch=10 n=63 v=71
36600 On ch=10 n=54 v=97
36600 On ch=10 n=70 v=87
36601 On ch=10 n=70 v=0
36601 On ch=10 n=54 v=0
36601 On ch=10 n=63 v=0
36660 On ch=10 n=63 v=94
36660 On ch=10 n=70 v=39
36661 On ch=10 n=70 v=0
36661 On ch=10 n=63 v=0
36720 On ch=10 n=62 v=106
36720 On ch=10 n=70 v=64
36721 On ch=10 n=70 v=0
36721 On ch=10 n=62 v=0
36780 On ch=10 n=63 v=32
36780 On ch=10 n=70 v=43
36781 On ch=10 n=70 v=0
36781 On ch=10 n=63 v=0
36840 On ch=10 n=63 v=96
36840 On ch=10 n=54 v=96
36840 On ch=10 n=70 v=82
36841 On ch=10 n=70 v=0
36841 On ch=10 n=54 v=0
36841 On ch=10 n=63 v=0
36900 On ch=10 n=62 v=52
36900 On ch=10 n=70 v=39
36901 On ch=10 n=70 v=0
36901 On ch=10 n=62 v=0
36960 On ch=10 n=64 v=92
36960 On ch=10 n=70 v=64
36961 On ch=10 n=70 v=0
36961 On ch=10 n=64 v=0
37020 On ch=10 n=70 v=39
37021 On ch=10 n=70 v=0
37080 On ch=10 n=62 v=99
37080 On ch=10 n=54 v=100
37080 On ch=10 n=70 v=87
37081 On ch=10 n=70 v=0
37081 On ch=10 n=54 v=0
37081 On ch=10 n=62 v=0
37140 On ch=10 n=70 v=39
37141 On ch=10 n=70 v=0
37200 On ch=10 n=70 v=58
37201 On ch=10 n=70 v=0
37260 On ch=10 n=63 v=87
37260 On ch=10 n=70 v=52
37261 On ch=10 n=70 v=0
37261 On ch=10 n=63 v=0
37320 On ch=10 n=63 v=59
37320 On ch=10 n=54 v=99
37320 On ch=10 n=70 v=91
37321 On ch=10 n=70 v=0
37321 On ch=10 n=54 v=0
37321 On ch=10 n=63 v=0
37380 On ch=10 n=64 v=90
37380 On ch=10 n=70 v=43
37381 On ch=10 n=70 v=0
37381 On ch=10 n=64 v=0
37440 On ch=10 n=64 v=92
37440 On ch=10 n=70 v=60
37441 On ch=10 n=70 v=0
37441 On ch=10 n=64 v=0
37500 On ch=10 n=70 v=46
37501 On ch=10 n=70 v=0
37560 On ch=10 n=62 v=99
37560 On ch=10 n=54 v=99
37560 On ch=10 n=70 v=87
37561 On ch=10 n=70 v=0
37561 On ch=10 n=54 v=0
37561 On ch=10 n=62 v=0
37620 On ch=10 n=70 v=39
37621 On ch=10 n=70 v=0
37680 On ch=10 n=70 v=64
37681 On ch=10 n=70 v=0
37740 On ch=10 n=63 v=87
37740 On ch=10 n=70 v=43
37741 On ch=10 n=70 v=0
37741 On ch=10 n=63 v=0
37800 On ch=10 n=63 v=59
37800 On ch=10 n=54 v=98
37800 On ch=10 n=70 v=82
37801 On ch=10 n=70 v=0
37801 On ch=10 n=54 v=0
37801 On ch=10 n=63 v=0
37860 On ch=10 n=64 v=90
37860 On ch=10 n=70 v=39
37861 On ch=10 n=70 v=0
37861 On ch=10 n=64 v=0
37920 On ch=10 n=70 v=64
37921 On ch=10 n=70 v=0
37980 On ch=10 n=64 v=64
37980 On ch=10 n=70 v=39
37981 On ch=10 n=70 v=0
37981 On ch=10 n=64 v=0
38040 On ch=10 n=63 v=79
38040 On ch=10 n=54 v=98
38040 On ch=10 n=70 v=87
38041 On ch=10 n=70 v=0
38041 On ch=10 n=54 v=0
38041 On ch=10 n=63 v=0
38100 On ch=10 n=63 v=94
38100 On ch=10 n=70 v=39
38101 On ch=10 n=70 v=0
38101 On ch=10 n=63 v=0
38160 On ch=10 n=62 v=106
38160 On ch=10 n=70 v=58
38161 On ch=10 n=70 v=0
38161 On ch=10 n=62 v=0
38220 On ch=10 n=70 v=52
38221 On ch=10 n=70 v=0
38280 On ch=10 n=63 v=96
38280 On ch=10 n=54 v=97
38280 On ch=10 n=70 v=91
38281 On ch=10 n=70 v=0
38281 On ch=10 n=54 v=0
38281 On ch=10 n=63 v=0
38340 On ch=10 n=63 v=59
38340 On ch=10 n=70 v=43
38341 On ch=10 n=70 v=0
38341 On ch=10 n=63 v=0
38400 On ch=10 n=64 v=92
38400 On ch=10 n=70 v=60
38401 On ch=10 n=70 v=0
38401 On ch=10 n=64 v=0
38460 On ch=10 n=70 v=46
38461 On ch=10 n=70 v=0
38520 On ch=10 n=62 v=99
38520 On ch=10 n=54 v=97
38520 On ch=10 n=70 v=87
38521 On ch=10 n=70 v=0
38521 On ch=10 n=54 v=0
38521 On ch=10 n=62 v=0
38580 On ch=10 n=61 v=47
38580 On ch=10 n=70 v=39
38581 On ch=10 n=70 v=0
38581 On ch=10 n=61 v=0
38640 On ch=10 n=64 v=32
38640 On ch=10 n=70 v=64
38641 On ch=10 n=70 v=0
38641 On ch=10 n=64 v=0
38700 On ch=10 n=63 v=87
38700 On ch=10 n=70 v=43
38701 On ch=10 n=70 v=0
38701 On ch=10 n=63 v=0
38760 On ch=10 n=63 v=59
38760 On ch=10 n=54 v=96
38760 On ch=10 n=70 v=82
38761 On ch=10 n=70 v=0
38761 On ch=10 n=54 v=0
38761 On ch=10 n=63 v=0
38820 On ch=10 n=64 v=90
38820 On ch=10 n=70 v=39
38821 On ch=10 n=70 v=0
38821 On ch=10 n=64 v=0
38880 On ch=10 n=64 v=92
38880 On ch=10 n=70 v=59
38881 On ch=10 n=70 v=0
38881 On ch=10 n=64 v=0
38940 On ch=10 n=70 v=34
38941 On ch=10 n=70 v=0
39000 On ch=10 n=62 v=99
39000 On ch=10 n=70 v=82
39001 On ch=10 n=70 v=0
39001 On ch=10 n=62 v=0
39060 On ch=10 n=70 v=34
39061 On ch=10 n=70 v=0
39120 On ch=10 n=70 v=53
39121 On ch=10 n=70 v=0
39180 On ch=10 n=63 v=87
39180 On ch=10 n=70 v=47
39181 On ch=10 n=70 v=0
39181 On ch=10 n=63 v=0
39240 On ch=10 n=63 v=59
39240 On ch=10 n=70 v=86
39241 On ch=10 n=70 v=0
39241 On ch=10 n=63 v=0
39300 On ch=10 n=64 v=90
39300 On ch=10 n=70 v=38
39301 On ch=10 n=70 v=0
39301 On ch=10 n=64 v=0
39360 On ch=10 n=70 v=55
39361 On ch=10 n=70 v=0
39420 On ch=10 n=64 v=64
39420 On ch=10 n=70 v=41
39421 On ch=10 n=70 v=0
39421 On ch=10 n=64 v=0
39480 On ch=10 n=63 v=79
39480 On ch=10 n=70 v=82
39481 On ch=10 n=70 v=0
39481 On ch=10 n=63 v=0
39540 On ch=10 n=63 v=94
39540 On ch=10 n=70 v=34
39541 On ch=10 n=70 v=0
39541 On ch=10 n=63 v=0
39600 On ch=10 n=62 v=106
39600 On ch=10 n=70 v=59
39601 On ch=10 n=70 v=0
39601 On ch=10 n=62 v=0
39660 On ch=10 n=70 v=38
39661 On ch=10 n=70 v=0
39720 On ch=10 n=63 v=96
39720 On ch=10 n=70 v=77
39721 On ch=10 n=70 v=0
39721 On ch=10 n=63 v=0
39780 On ch=10 n=63 v=59
39780 On ch=10 n=70 v=34
39781 On ch=10 n=70 v=0
39781 On ch=10 n=63 v=0
39840 On ch=10 n=64 v=92
39840 On ch=10 n=70 v=59
39841 On ch=10 n=70 v=0
39841 On ch=10 n=64 v=0
39900 On ch=10 n=70 v=34
39901 On ch=10 n=70 v=0
39960 On ch=10 n=62 v=99
39960 On ch=10 n=70 v=82
39961 On ch=10 n=70 v=0
39961 On ch=10 n=62 v=0
40020 On ch=10 n=61 v=47
40020 On ch=10 n=70 v=34
40021 On ch=10 n=70 v=0
40021 On ch=10 n=61 v=0
40080 On ch=10 n=64 v=32
40080 On ch=10 n=70 v=53
40081 On ch=10 n=70 v=0
40081 On ch=10 n=64 v=0
40140 On ch=10 n=63 v=87
40140 On ch=10 n=70 v=47
40141 On ch=10 n=70 v=0
40141 On ch=10 n=63 v=0
40200 On ch=10 n=63 v=59
40200 On ch=10 n=70 v=86
40201 On ch=10 n=70 v=0
40201 On ch=10 n=63 v=0
40260 On ch=10 n=64 v=90
40260 On ch=10 n=70 v=38
40261 On ch=10 n=70 v=0
40261 On ch=10 n=64 v=0
40320 On ch=10 n=70 v=55
40321 On ch=10 n=70 v=0
40380 On ch=10 n=64 v=64
40380 On ch=10 n=70 v=41
40381 On ch=10 n=70 v=0
40381 On ch=10 n=64 v=0
40440 On ch=10 n=63 v=71
40440 On ch=10 n=70 v=82
40441 On ch=10 n=70 v=0
40441 On ch=10 n=63 v=0
40500 On ch=10 n=63 v=94
40500 On ch=10 n=70 v=34
40501 On ch=10 n=70 v=0
40501 On ch=10 n=63 v=0
40560 On ch=10 n=62 v=106
40560 On ch=10 n=70 v=59
40561 On ch=10 n=70 v=0
40561 On ch=10 n=62 v=0
40620 On ch=10 n=63 v=32
40620 On ch=10 n=70 v=38
40621 On ch=10 n=70 v=0
40621 On ch=10 n=63 v=0
40680 On ch=10 n=63 v=96
40680 On ch=10 n=70 v=77
40681 On ch=10 n=70 v=0
40681 On ch=10 n=63 v=0
40740 On ch=10 n=62 v=52
40740 On ch=10 n=70 v=34
40741 On ch=10 n=70 v=0
40741 On ch=10 n=62 v=0
40800 On ch=10 n=64 v=92
40800 On ch=10 n=70 v=59
40801 On ch=10 n=70 v=0
40801 On ch=10 n=64 v=0
40860 On ch=10 n=70 v=34
40861 On ch=10 n=70 v=0
40920 On ch=10 n=62 v=99
40920 On ch=10 n=70 v=82
40921 On ch=10 n=70 v=0
40921 On ch=10 n=62 v=0
40980 On ch=10 n=70 v=34
40981 On ch=10 n=70 v=0
41040 On ch=10 n=70 v=53
41041 On ch=10 n=70 v=0
41100 On ch=10 n=63 v=87
41100 On ch=10 n=70 v=47
41101 On ch=10 n=70 v=0
41101 On ch=10 n=63 v=0
41160 On ch=10 n=63 v=59
41160 On ch=10 n=70 v=86
41161 On ch=10 n=70 v=0
41161 On ch=10 n=63 v=0
41220 On ch=10 n=64 v=90
41220 On ch=10 n=70 v=38
41221 On ch=10 n=70 v=0
41221 On ch=10 n=64 v=0
41280 On ch=10 n=70 v=55
41281 On ch=10 n=70 v=0
41340 On ch=10 n=64 v=64
41340 On ch=10 n=70 v=41
41341 On ch=10 n=70 v=0
41341 On ch=10 n=64 v=0
41400 On ch=10 n=63 v=79
41400 On ch=10 n=70 v=82
41401 On ch=10 n=70 v=0
41401 On ch=10 n=63 v=0
41460 On ch=10 n=63 v=94
41460 On ch=10 n=70 v=34
41461 On ch=10 n=70 v=0
41461 On ch=10 n=63 v=0
41520 On ch=10 n=62 v=106
41520 On ch=10 n=70 v=59
41521 On ch=10 n=70 v=0
41521 On ch=10 n=62 v=0
41580 On ch=10 n=70 v=38
41581 On ch=10 n=70 v=0
41640 On ch=10 n=63 v=96
41640 On ch=10 n=70 v=77
41641 On ch=10 n=70 v=0
41641 On ch=10 n=63 v=0
41700 On ch=10 n=63 v=59
41700 On ch=10 n=70 v=34
41701 On ch=10 n=70 v=0
41701 On ch=10 n=63 v=0
41760 On ch=10 n=64 v=92
41760 On ch=10 n=70 v=59
41761 On ch=10 n=70 v=0
41761 On ch=10 n=64 v=0
41820 On ch=10 n=70 v=34
41821 On ch=10 n=70 v=0
41880 On ch=10 n=62 v=99
41880 On ch=10 n=70 v=82
41881 On ch=10 n=70 v=0
41881 On ch=10 n=62 v=0
41940 On ch=10 n=61 v=47
41940 On ch=10 n=70 v=34
41941 On ch=10 n=70 v=0
41941 On ch=10 n=61 v=0
42000 On ch=10 n=64 v=32
42000 On ch=10 n=70 v=53
42001 On ch=10 n=70 v=0
42001 On ch=10 n=64 v=0
42060 On ch=10 n=63 v=87
42060 On ch=10 n=70 v=47
42061 On ch=10 n=70 v=0
42061 On ch=10 n=63 v=0
42120 On ch=10 n=63 v=59
42120 On ch=10 n=70 v=86
42121 On ch=10 n=70 v=0
42121 On ch=10 n=63 v=0
42180 On ch=10 n=64 v=90
42180 On ch=10 n=70 v=38
42181 On ch=10 n=70 v=0
42181 On ch=10 n=64 v=0
42240 On ch=10 n=70 v=55
42241 On ch=10 n=70 v=0
42300 On ch=10 n=64 v=64
42300 On ch=10 n=70 v=41
42301 On ch=10 n=70 v=0
42301 On ch=10 n=64 v=0
42360 On ch=10 n=63 v=71
42360 On ch=10 n=70 v=82
42361 On ch=10 n=70 v=0
42361 On ch=10 n=63 v=0
42420 On ch=10 n=63 v=94
42420 On ch=10 n=70 v=34
42421 On ch=10 n=70 v=0
42421 On ch=10 n=63 v=0
42480 On ch=10 n=62 v=106
42480 On ch=10 n=70 v=59
42481 On ch=10 n=70 v=0
42481 On ch=10 n=62 v=0
42540 On ch=10 n=63 v=32
42540 On ch=10 n=70 v=38
42541 On ch=10 n=70 v=0
42541 On ch=10 n=63 v=0
42600 On ch=10 n=63 v=96
42600 On ch=10 n=70 v=77
42601 On ch=10 n=70 v=0
42601 On ch=10 n=63 v=0
42660 On ch=10 n=62 v=52
42660 On ch=10 n=70 v=34
42661 On ch=10 n=70 v=0
42661 On ch=10 n=62 v=0
42720 On ch=10 n=64 v=92
42720 On ch=10 n=70 v=59
42721 On ch=10 n=70 v=0
42721 On ch=10 n=64 v=0
42780 On ch=10 n=70 v=34
42781 On ch=10 n=70 v=0
42840 On ch=10 n=62 v=99
42840 On ch=10 n=70 v=82
42841 On ch=10 n=70 v=0
42841 On ch=10 n=62 v=0
42900 On ch=10 n=70 v=34
42901 On ch=10 n=70 v=0
42960 On ch=10 n=70 v=53
42961 On ch=10 n=70 v=0
43020 On ch=10 n=63 v=87
43020 On ch=10 n=70 v=47
43021 On ch=10 n=70 v=0
43021 On ch=10 n=63 v=0
43080 On ch=10 n=63 v=59
43080 On ch=10 n=70 v=86
43081 On ch=10 n=70 v=0
43081 On ch=10 n=63 v=0
43140 On ch=10 n=64 v=90
43140 On ch=10 n=70 v=38
43141 On ch=10 n=70 v=0
43141 On ch=10 n=64 v=0
43200 On ch=10 n=64 v=92
43200 On ch=10 n=70 v=55
43201 On ch=10 n=70 v=0
43201 On ch=10 n=64 v=0
43260 On ch=10 n=70 v=41
43261 On ch=10 n=70 v=0
43320 On ch=10 n=62 v=99
43320 On ch=10 n=70 v=82
43321 On ch=10 n=70 v=0
43321 On ch=10 n=62 v=0
43380 On ch=10 n=70 v=34
43381 On ch=10 n=70 v=0
43440 On ch=10 n=70 v=59
43441 On ch=10 n=70 v=0
43500 On ch=10 n=63 v=87
43500 On ch=10 n=70 v=38
43501 On ch=10 n=70 v=0
43501 On ch=10 n=63 v=0
43560 On ch=10 n=63 v=59
43560 On ch=10 n=70 v=77
43561 On ch=10 n=70 v=0
43561 On ch=10 n=63 v=0
43620 On ch=10 n=64 v=90
43620 On ch=10 n=70 v=34
43621 On ch=10 n=70 v=0
43621 On ch=10 n=64 v=0
43680 On ch=10 n=70 v=59
43681 On ch=10 n=70 v=0
43740 On ch=10 n=64 v=64
43740 On ch=10 n=70 v=34
43741 On ch=10 n=70 v=0
43741 On ch=10 n=64 v=0
43800 On ch=10 n=63 v=79
43800 On ch=10 n=70 v=82
43801 On ch=10 n=70 v=0
43801 On ch=10 n=63 v=0
43860 On ch=10 n=63 v=94
43860 On ch=10 n=70 v=34
43861 On ch=10 n=70 v=0
43861 On ch=10 n=63 v=0
43920 On ch=10 n=62 v=106
43920 On ch=10 n=70 v=53
43921 On ch=10 n=70 v=0
43921 On ch=10 n=62 v=0
43980 On ch=10 n=70 v=47
43981 On ch=10 n=70 v=0
44040 On ch=10 n=63 v=96
44040 On ch=10 n=70 v=86
44041 On ch=10 n=70 v=0
44041 On ch=10 n=63 v=0
44100 On ch=10 n=63 v=59
44100 On ch=10 n=70 v=38
44101 On ch=10 n=70 v=0
44101 On ch=10 n=63 v=0
44160 On ch=10 n=64 v=92
44160 On ch=10 n=70 v=55
44161 On ch=10 n=70 v=0
44161 On ch=10 n=64 v=0
44220 On ch=10 n=70 v=41
44221 On ch=10 n=70 v=0
44280 On ch=10 n=62 v=99
44280 On ch=10 n=70 v=82
44281 On ch=10 n=70 v=0
44281 On ch=10 n=62 v=0
44340 On ch=10 n=61 v=47
44340 On ch=10 n=70 v=34
44341 On ch=10 n=70 v=0
44341 On ch=10 n=61 v=0
44400 On ch=10 n=64 v=32
44400 On ch=10 n=70 v=59
44401 On ch=10 n=70 v=0
44401 On ch=10 n=64 v=0
44460 On ch=10 n=63 v=87
44460 On ch=10 n=70 v=38
44461 On ch=10 n=70 v=0
44461 On ch=10 n=63 v=0
44520 On ch=10 n=63 v=59
44520 On ch=10 n=70 v=77
44521 On ch=10 n=70 v=0
44521 On ch=10 n=63 v=0
44580 On ch=10 n=64 v=90
44580 On ch=10 n=70 v=34
44581 On ch=10 n=70 v=0
44581 On ch=10 n=64 v=0
44640 On ch=10 n=70 v=59
44641 On ch=10 n=70 v=0
44700 On ch=10 n=64 v=64
44700 On ch=10 n=70 v=34
44701 On ch=10 n=70 v=0
44701 On ch=10 n=64 v=0
44760 On ch=10 n=63 v=71
44760 On ch=10 n=70 v=82
44761 On ch=10 n=70 v=0
44761 On ch=10 n=63 v=0
44820 On ch=10 n=63 v=94
44820 On ch=10 n=70 v=34
44821 On ch=10 n=70 v=0
44821 On ch=10 n=63 v=0
44880 On ch=10 n=62 v=106
44880 On ch=10 n=70 v=53
44881 On ch=10 n=70 v=0
44881 On ch=10 n=62 v=0
44940 On ch=10 n=63 v=32
44940 On ch=10 n=70 v=47
44941 On ch=10 n=70 v=0
44941 On ch=10 n=63 v=0
45000 On ch=10 n=63 v=96
45000 On ch=10 n=70 v=86
45001 On ch=10 n=70 v=0
45001 On ch=10 n=63 v=0
45060 On ch=10 n=62 v=52
45060 On ch=10 n=70 v=38
45061 On ch=10 n=70 v=0
45061 On ch=10 n=62 v=0
45120 On ch=10 n=64 v=92
45120 On ch=10 n=70 v=55
45121 On ch=10 n=70 v=0
45121 On ch=10 n=64 v=0
45180 On ch=10 n=70 v=41
45181 On ch=10 n=70 v=0
45240 On ch=10 n=62 v=99
45240 On ch=10 n=70 v=82
45241 On ch=10 n=70 v=0
45241 On ch=10 n=62 v=0
45300 On ch=10 n=70 v=34
45301 On ch=10 n=70 v=0
45360 On ch=10 n=70 v=59
45361 On ch=10 n=70 v=0
45420 On ch=10 n=63 v=87
45420 On ch=10 n=70 v=38
45421 On ch=10 n=70 v=0
45421 On ch=10 n=63 v=0
45480 On ch=10 n=63 v=59
45480 On ch=10 n=70 v=77
45481 On ch=10 n=70 v=0
45481 On ch=10 n=63 v=0
45540 On ch=10 n=64 v=90
45540 On ch=10 n=70 v=34
45541 On ch=10 n=70 v=0
45541 On ch=10 n=64 v=0
45600 On ch=10 n=64 v=92
45600 On ch=10 n=70 v=59
45601 On ch=10 n=70 v=0
45601 On ch=10 n=64 v=0
45660 On ch=10 n=70 v=34
45661 On ch=10 n=70 v=0
45720 On ch=10 n=62 v=99
45720 On ch=10 n=70 v=82
45721 On ch=10 n=70 v=0
45721 On ch=10 n=62 v=0
45780 On ch=10 n=70 v=34
45781 On ch=10 n=70 v=0
45840 On ch=10 n=70 v=53
45841 On ch=10 n=70 v=0
45900 On ch=10 n=63 v=87
45900 On ch=10 n=70 v=47
45901 On ch=10 n=70 v=0
45901 On ch=10 n=63 v=0
45960 On ch=10 n=63 v=59
45960 On ch=10 n=70 v=86
45961 On ch=10 n=70 v=0
45961 On ch=10 n=63 v=0
46020 On ch=10 n=64 v=90
46020 On ch=10 n=70 v=38
46021 On ch=10 n=70 v=0
46021 On ch=10 n=64 v=0
46080 On ch=10 n=70 v=55
46081 On ch=10 n=70 v=0
46140 On ch=10 n=64 v=64
46140 On ch=10 n=70 v=41
46141 On ch=10 n=70 v=0
46141 On ch=10 n=64 v=0
46200 On ch=10 n=63 v=79
46200 On ch=10 n=70 v=82
46201 On ch=10 n=70 v=0
46201 On ch=10 n=63 v=0
46260 On ch=10 n=63 v=94
46260 On ch=10 n=70 v=34
46261 On ch=10 n=70 v=0
46261 On ch=10 n=63 v=0
46320 On ch=10 n=62 v=106
46320 On ch=10 n=70 v=59
46321 On ch=10 n=70 v=0
46321 On ch=10 n=62 v=0
46380 On ch=10 n=70 v=38
46381 On ch=10 n=70 v=0
46440 On ch=10 n=63 v=96
46440 On ch=10 n=70 v=77
46441 On ch=10 n=70 v=0
46441 On ch=10 n=63 v=0
46500 On ch=10 n=63 v=59
46500 On ch=10 n=70 v=34
46501 On ch=10 n=70 v=0
46501 On ch=10 n=63 v=0
46560 On ch=10 n=64 v=92
46560 On ch=10 n=70 v=59
46561 On ch=10 n=70 v=0
46561 On ch=10 n=64 v=0
46620 On ch=10 n=70 v=34
46621 On ch=10 n=70 v=0
46680 On ch=10 n=62 v=99
46680 On ch=10 n=70 v=82
46681 On ch=10 n=70 v=0
46681 On ch=10 n=62 v=0
46740 On ch=10 n=61 v=47
46740 On ch=10 n=70 v=34
46741 On ch=10 n=70 v=0
46741 On ch=10 n=61 v=0
46800 On ch=10 n=64 v=32
46800 On ch=10 n=70 v=53
46801 On ch=10 n=70 v=0
46801 On ch=10 n=64 v=0
46860 On ch=10 n=63 v=87
46860 On ch=10 n=70 v=47
46861 On ch=10 n=70 v=0
46861 On ch=10 n=63 v=0
46920 On ch=10 n=63 v=59
46920 On ch=10 n=70 v=86
46921 On ch=10 n=70 v=0
46921 On ch=10 n=63 v=0
46980 On ch=10 n=64 v=90
46980 On ch=10 n=70 v=38
46981 On ch=10 n=70 v=0
46981 On ch=10 n=64 v=0
47040 On ch=10 n=70 v=55
47041 On ch=10 n=70 v=0
47100 On ch=10 n=64 v=64
47100 On ch=10 n=70 v=41
47101 On ch=10 n=70 v=0
47101 On ch=10 n=64 v=0
47160 On ch=10 n=63 v=71
47160 On ch=10 n=70 v=82
47161 On ch=10 n=70 v=0
47161 On ch=10 n=63 v=0
47220 On ch=10 n=63 v=94
47220 On ch=10 n=70 v=34
47221 On ch=10 n=70 v=0
47221 On ch=10 n=63 v=0
47280 On ch=10 n=62 v=106
47280 On ch=10 n=70 v=59
47281 On ch=10 n=70 v=0
47281 On ch=10 n=62 v=0
47340 On ch=10 n=63 v=32
47340 On ch=10 n=70 v=38
47341 On ch=10 n=70 v=0
47341 On ch=10 n=63 v=0
47400 On ch=10 n=63 v=96
47400 On ch=10 n=70 v=77
47401 On ch=10 n=70 v=0
47401 On ch=10 n=63 v=0
47460 On ch=10 n=62 v=52
47460 On ch=10 n=70 v=34
47461 On ch=10 n=70 v=0
47461 On ch=10 n=62 v=0
47520 On ch=10 n=64 v=92
47520 On ch=10 n=70 v=59
47521 On ch=10 n=70 v=0
47521 On ch=10 n=64 v=0
47580 On ch=10 n=70 v=34
47581 On ch=10 n=70 v=0
47640 On ch=10 n=62 v=99
47640 On ch=10 n=70 v=82
47641 On ch=10 n=70 v=0
47641 On ch=10 n=62 v=0
47700 On ch=10 n=70 v=34
47701 On ch=10 n=70 v=0
47760 On ch=10 n=70 v=53
47761 On ch=10 n=70 v=0
47820 On ch=10 n=63 v=87
47820 On ch=10 n=70 v=47
47821 On ch=10 n=70 v=0
47821 On ch=10 n=63 v=0
47880 On ch=10 n=63 v=59
47880 On ch=10 n=70 v=86
47881 On ch=10 n=70 v=0
47881 On ch=10 n=63 v=0
47940 On ch=10 n=64 v=90
47940 On ch=10 n=70 v=38
47941 On ch=10 n=70 v=0
47941 On ch=10 n=64 v=0
48000 On ch=10 n=64 v=92
48000 On ch=10 n=70 v=55
48001 On ch=10 n=70 v=0
48001 On ch=10 n=64 v=0
48060 On ch=10 n=70 v=41
48061 On ch=10 n=70 v=0
48120 On ch=10 n=62 v=99
48120 On ch=10 n=70 v=82
48121 On ch=10 n=70 v=0
48121 On ch=10 n=62 v=0
48180 On ch=10 n=70 v=34
48181 On ch=10 n=70 v=0
48240 On ch=10 n=70 v=59
48241 On ch=10 n=70 v=0
48300 On ch=10 n=63 v=87
48300 On ch=10 n=70 v=38
48301 On ch=10 n=70 v=0
48301 On ch=10 n=63 v=0
48360 On ch=10 n=63 v=59
48360 On ch=10 n=70 v=77
48361 On ch=10 n=70 v=0
48361 On ch=10 n=63 v=0
48420 On ch=10 n=64 v=90
48420 On ch=10 n=70 v=34
48421 On ch=10 n=70 v=0
48421 On ch=10 n=64 v=0
48480 On ch=10 n=70 v=59
48481 On ch=10 n=70 v=0
48540 On ch=10 n=64 v=64
48540 On ch=10 n=70 v=34
48541 On ch=10 n=70 v=0
48541 On ch=10 n=64 v=0
48600 On ch=10 n=63 v=79
48600 On ch=10 n=70 v=82
48601 On ch=10 n=70 v=0
48601 On ch=10 n=63 v=0
48660 On ch=10 n=63 v=94
48660 On ch=10 n=70 v=34
48661 On ch=10 n=70 v=0
48661 On ch=10 n=63 v=0
48720 On ch=10 n=62 v=106
48720 On ch=10 n=70 v=53
48721 On ch=10 n=70 v=0
48721 On ch=10 n=62 v=0
48780 On ch=10 n=70 v=47
48781 On ch=10 n=70 v=0
48840 On ch=10 n=63 v=96
48840 On ch=10 n=70 v=86
48841 On ch=10 n=70 v=0
48841 On ch=10 n=63 v=0
48900 On ch=10 n=63 v=59
48900 On ch=10 n=70 v=38
48901 On ch=10 n=70 v=0
48901 On ch=10 n=63 v=0
48960 On ch=10 n=64 v=92
48960 On ch=10 n=70 v=55
48961 On ch=10 n=70 v=0
48961 On ch=10 n=64 v=0
49020 On ch=10 n=70 v=41
49021 On ch=10 n=70 v=0
49080 On ch=10 n=62 v=99
49080 On ch=10 n=70 v=82
49081 On ch=10 n=70 v=0
49081 On ch=10 n=62 v=0
49140 On ch=10 n=61 v=47
49140 On ch=10 n=70 v=34
49141 On ch=10 n=70 v=0
49141 On ch=10 n=61 v=0
49200 On ch=10 n=64 v=32
49200 On ch=10 n=70 v=59
49201 On ch=10 n=70 v=0
49201 On ch=10 n=64 v=0
49260 On ch=10 n=63 v=87
49260 On ch=10 n=70 v=38
49261 On ch=10 n=70 v=0
49261 On ch=10 n=63 v=0
49320 On ch=10 n=63 v=59
49320 On ch=10 n=70 v=77
49321 On ch=10 n=70 v=0
49321 On ch=10 n=63 v=0
49380 On ch=10 n=64 v=90
49380 On ch=10 n=70 v=34
49381 On ch=10 n=70 v=0
49381 On ch=10 n=64 v=0
49440 On ch=10 n=64 v=92
49440 On ch=10 n=70 v=64
49441 On ch=10 n=70 v=0
49441 On ch=10 n=64 v=0
49500 On ch=10 n=70 v=39
49501 On ch=10 n=70 v=0
49560 On ch=10 n=62 v=99
49560 On ch=10 n=54 v=100
49560 On ch=10 n=70 v=87
49561 On ch=10 n=70 v=0
49561 On ch=10 n=54 v=0
49561 On ch=10 n=62 v=0
49620 On ch=10 n=70 v=39
49621 On ch=10 n=70 v=0
49680 On ch=10 n=70 v=58
49681 On ch=10 n=70 v=0
49740 On ch=10 n=63 v=87
49740 On ch=10 n=70 v=52
49741 On ch=10 n=70 v=0
49741 On ch=10 n=63 v=0
49800 On ch=10 n=63 v=59
49800 On ch=10 n=54 v=99
49800 On ch=10 n=70 v=91
49801 On ch=10 n=70 v=0
49801 On ch=10 n=54 v=0
49801 On ch=10 n=63 v=0
49860 On ch=10 n=64 v=90
49860 On ch=10 n=70 v=43
49861 On ch=10 n=70 v=0
49861 On ch=10 n=64 v=0
49920 On ch=10 n=70 v=60
49921 On ch=10 n=70 v=0
49980 On ch=10 n=64 v=64
49980 On ch=10 n=70 v=46
49981 On ch=10 n=70 v=0
49981 On ch=10 n=64 v=0
50040 On ch=10 n=63 v=79
50040 On ch=10 n=54 v=99
50040 On ch=10 n=70 v=87
50041 On ch=10 n=70 v=0
50041 On ch=10 n=54 v=0
50041 On ch=10 n=63 v=0
50100 On ch=10 n=63 v=94
50100 On ch=10 n=70 v=39
50101 On ch=10 n=70 v=0
50101 On ch=10 n=63 v=0
50160 On ch=10 n=62 v=106
50160 On ch=10 n=70 v=64
50161 On ch=10 n=70 v=0
50161 On ch=10 n=62 v=0
50220 On ch=10 n=70 v=43
50221 On ch=10 n=70 v=0
50280 On ch=10 n=63 v=96
50280 On ch=10 n=54 v=98
50280 On ch=10 n=70 v=82
50281 On ch=10 n=70 v=0
50281 On ch=10 n=54 v=0
50281 On ch=10 n=63 v=0
50340 On ch=10 n=63 v=59
50340 On ch=10 n=70 v=39
50341 On ch=10 n=70 v=0
50341 On ch=10 n=63 v=0
50400 On ch=10 n=64 v=92
50400 On ch=10 n=70 v=64
50401 On ch=10 n=70 v=0
50401 On ch=10 n=64 v=0
50460 On ch=10 n=70 v=39
50461 On ch=10 n=70 v=0
50520 On ch=10 n=62 v=99
50520 On ch=10 n=54 v=98
50520 On ch=10 n=70 v=87
50521 On ch=10 n=70 v=0
50521 On ch=10 n=54 v=0
50521 On ch=10 n=62 v=0
50580 On ch=10 n=61 v=47
50580 On ch=10 n=70 v=39
50581 On ch=10 n=70 v=0
50581 On ch=10 n=61 v=0
50640 On ch=10 n=64 v=32
50640 On ch=10 n=70 v=58
50641 On ch=10 n=70 v=0
50641 On ch=10 n=64 v=0
50700 On ch=10 n=63 v=87
50700 On ch=10 n=70 v=52
50701 On ch=10 n=70 v=0
50701 On ch=10 n=63 v=0
50760 On ch=10 n=63 v=59
50760 On ch=10 n=54 v=97
50760 On ch=10 n=70 v=91
50761 On ch=10 n=70 v=0
50761 On ch=10 n=54 v=0
50761 On ch=10 n=63 v=0
50820 On ch=10 n=64 v=90
50820 On ch=10 n=70 v=43
50821 On ch=10 n=70 v=0
50821 On ch=10 n=64 v=0
50880 On ch=10 n=70 v=60
50881 On ch=10 n=70 v=0
50940 On ch=10 n=64 v=64
50940 On ch=10 n=70 v=46
50941 On ch=10 n=70 v=0
50941 On ch=10 n=64 v=0
51000 On ch=10 n=63 v=71
51000 On ch=10 n=54 v=97
51000 On ch=10 n=70 v=87
51001 On ch=10 n=70 v=0
51001 On ch=10 n=54 v=0
51001 On ch=10 n=63 v=0
51060 On ch=10 n=63 v=94
51060 On ch=10 n=70 v=39
51061 On ch=10 n=70 v=0
51061 On ch=10 n=63 v=0
51120 On ch=10 n=62 v=106
51120 On ch=10 n=70 v=64
51121 On ch=10 n=70 v=0
51121 On ch=10 n=62 v=0
51180 On ch=10 n=63 v=32
51180 On ch=10 n=70 v=43
51181 On ch=10 n=70 v=0
51181 On ch=10 n=63 v=0
51240 On ch=10 n=63 v=96
51240 On ch=10 n=54 v=96
51240 On ch=10 n=70 v=82
51241 On ch=10 n=70 v=0
51241 On ch=10 n=54 v=0
51241 On ch=10 n=63 v=0
51300 On ch=10 n=62 v=52
51300 On ch=10 n=70 v=39
51301 On ch=10 n=70 v=0
51301 On ch=10 n=62 v=0
51360 On ch=10 n=64 v=92
51360 On ch=10 n=70 v=64
51361 On ch=10 n=70 v=0
51361 On ch=10 n=64 v=0
51420 On ch=10 n=70 v=39
51421 On ch=10 n=70 v=0
51480 On ch=10 n=62 v=99
51480 On ch=10 n=54 v=100
51480 On ch=10 n=70 v=87
51481 On ch=10 n=70 v=0
51481 On ch=10 n=54 v=0
51481 On ch=10 n=62 v=0
51540 On ch=10 n=70 v=39
51541 On ch=10 n=70 v=0
51600 On ch=10 n=70 v=58
51601 On ch=10 n=70 v=0
51660 On ch=10 n=63 v=87
51660 On ch=10 n=70 v=52
51661 On ch=10 n=70 v=0
51661 On ch=10 n=63 v=0
51720 On ch=10 n=63 v=59
51720 On ch=10 n=54 v=99
51720 On ch=10 n=70 v=91
51721 On ch=10 n=70 v=0
51721 On ch=10 n=54 v=0
51721 On ch=10 n=63 v=0
51780 On ch=10 n=64 v=90
51780 On ch=10 n=70 v=43
51781 On ch=10 n=70 v=0
51781 On ch=10 n=64 v=0
51840 On ch=10 n=70 v=60
51841 On ch=10 n=70 v=0
51900 On ch=10 n=64 v=64
51900 On ch=10 n=70 v=46
51901 On ch=10 n=70 v=0
51901 On ch=10 n=64 v=0
51960 On ch=10 n=63 v=79
51960 On ch=10 n=54 v=99
51960 On ch=10 n=70 v=87
51961 On ch=10 n=70 v=0
51961 On ch=10 n=54 v=0
51961 On ch=10 n=63 v=0
52020 On ch=10 n=63 v=94
52020 On ch=10 n=70 v=39
52021 On ch=10 n=70 v=0
52021 On ch=10 n=63 v=0
52080 On ch=10 n=62 v=106
52080 On ch=10 n=70 v=64
52081 On ch=10 n=70 v=0
52081 On ch=10 n=62 v=0
52140 On ch=10 n=70 v=43
52141 On ch=10 n=70 v=0
52200 On ch=10 n=63 v=96
52200 On ch=10 n=54 v=98
52200 On ch=10 n=70 v=82
52201 On ch=10 n=70 v=0
52201 On ch=10 n=54 v=0
52201 On ch=10 n=63 v=0
52260 On ch=10 n=63 v=59
52260 On ch=10 n=70 v=39
52261 On ch=10 n=70 v=0
52261 On ch=10 n=63 v=0
52320 On ch=10 n=64 v=92
52320 On ch=10 n=70 v=64
52321 On ch=10 n=70 v=0
52321 On ch=10 n=64 v=0
52380 On ch=10 n=70 v=39
52381 On ch=10 n=70 v=0
52440 On ch=10 n=62 v=99
52440 On ch=10 n=54 v=98
52440 On ch=10 n=70 v=87
52441 On ch=10 n=70 v=0
52441 On ch=10 n=54 v=0
52441 On ch=10 n=62 v=0
52500 On ch=10 n=61 v=47
52500 On ch=10 n=70 v=39
52501 On ch=10 n=70 v=0
52501 On ch=10 n=61 v=0
52560 On ch=10 n=64 v=32
52560 On ch=10 n=70 v=58
52561 On ch=10 n=70 v=0
52561 On ch=10 n=64 v=0
52620 On ch=10 n=63 v=87
52620 On ch=10 n=70 v=52
52621 On ch=10 n=70 v=0
52621 On ch=10 n=63 v=0
52680 On ch=10 n=63 v=59
52680 On ch=10 n=54 v=97
52680 On ch=10 n=70 v=91
52681 On ch=10 n=70 v=0
52681 On ch=10 n=54 v=0
52681 On ch=10 n=63 v=0
52740 On ch=10 n=64 v=90
52740 On ch=10 n=70 v=43
52741 On ch=10 n=70 v=0
52741 On ch=10 n=64 v=0
52800 On ch=10 n=70 v=60
52801 On ch=10 n=70 v=0
52860 On ch=10 n=64 v=64
52860 On ch=10 n=70 v=46
52861 On ch=10 n=70 v=0
52861 On ch=10 n=64 v=0
52920 On ch=10 n=63 v=71
52920 On ch=10 n=54 v=97
52920 On ch=10 n=70 v=87
52921 On ch=10 n=70 v=0
52921 On ch=10 n=54 v=0
52921 On ch=10 n=63 v=0
52980 On ch=10 n=63 v=94
52980 On ch=10 n=70 v=39
52981 On ch=10 n=70 v=0
52981 On ch=10 n=63 v=0
53040 On ch=10 n=62 v=106
53040 On ch=10 n=70 v=64
53041 On ch=10 n=70 v=0
53041 On ch=10 n=62 v=0
53100 On ch=10 n=63 v=32
53100 On ch=10 n=70 v=43
53101 On ch=10 n=70 v=0
53101 On ch=10 n=63 v=0
53160 On ch=10 n=63 v=96
53160 On ch=10 n=54 v=96
53160 On ch=10 n=70 v=82
53161 On ch=10 n=70 v=0
53161 On ch=10 n=54 v=0
53161 On ch=10 n=63 v=0
53220 On ch=10 n=62 v=52
53220 On ch=10 n=70 v=39
53221 On ch=10 n=70 v=0
53221 On ch=10 n=62 v=0
53280 On ch=10 n=64 v=92
53280 On ch=10 n=70 v=64
53281 On ch=10 n=70 v=0
53281 On ch=10 n=64 v=0
53340 On ch=10 n=70 v=39
53341 On ch=10 n=70 v=0
53400 On ch=10 n=62 v=99
53400 On ch=10 n=54 v=100
53400 On ch=10 n=70 v=87
53401 On ch=10 n=70 v=0
53401 On ch=10 n=54 v=0
53401 On ch=10 n=62 v=0
53460 On ch=10 n=70 v=39
53461 On ch=10 n=70 v=0
53520 On ch=10 n=70 v=58
53521 On ch=10 n=70 v=0
53580 On ch=10 n=63 v=87
53580 On ch=10 n=70 v=52
53581 On ch=10 n=70 v=0
53581 On ch=10 n=63 v=0
53640 On ch=10 n=63 v=59
53640 On ch=10 n=54 v=99
53640 On ch=10 n=70 v=91
53641 On ch=10 n=70 v=0
53641 On ch=10 n=54 v=0
53641 On ch=10 n=63 v=0
53700 On ch=10 n=64 v=90
53700 On ch=10 n=70 v=43
53701 On ch=10 n=70 v=0
53701 On ch=10 n=64 v=0
53760 On ch=10 n=70 v=60
53761 On ch=10 n=70 v=0
53820 On ch=10 n=64 v=64
53820 On ch=10 n=70 v=46
53821 On ch=10 n=70 v=0
53821 On ch=10 n=64 v=0
53880 On ch=10 n=63 v=79
53880 On ch=10 n=54 v=99
53880 On ch=10 n=70 v=87
53881 On ch=10 n=70 v=0
53881 On ch=10 n=54 v=0
53881 On ch=10 n=63 v=0
53940 On ch=10 n=63 v=94
53940 On ch=10 n=70 v=39
53941 On ch=10 n=70 v=0
53941 On ch=10 n=63 v=0
54000 On ch=10 n=62 v=106
54000 On ch=10 n=70 v=64
54001 On ch=10 n=70 v=0
54001 On ch=10 n=62 v=0
54060 On ch=10 n=70 v=43
54061 On ch=10 n=70 v=0
54120 On ch=10 n=63 v=96
54120 On ch=10 n=54 v=98
54120 On ch=10 n=70 v=82
54121 On ch=10 n=70 v=0
54121 On ch=10 n=54 v=0
54121 On ch=10 n=63 v=0
54180 On ch=10 n=63 v=59
54180 On ch=10 n=70 v=39
54181 On ch=10 n=70 v=0
54181 On ch=10 n=63 v=0
54240 On ch=10 n=64 v=92
54240 On ch=10 n=70 v=64
54241 On ch=10 n=70 v=0
54241 On ch=10 n=64 v=0
54300 On ch=10 n=70 v=39
54301 On ch=10 n=70 v=0
54360 On ch=10 n=62 v=99
54360 On ch=10 n=54 v=98
54360 On ch=10 n=70 v=87
54361 On ch=10 n=70 v=0
54361 On ch=10 n=54 v=0
54361 On ch=10 n=62 v=0
54420 On ch=10 n=61 v=47
54420 On ch=10 n=70 v=39
54421 On ch=10 n=70 v=0
54421 On ch=10 n=61 v=0
54480 On ch=10 n=64 v=32
54480 On ch=10 n=70 v=58
54481 On ch=10 n=70 v=0
54481 On ch=10 n=64 v=0
54540 On ch=10 n=63 v=87
54540 On ch=10 n=70 v=52
54541 On ch=10 n=70 v=0
54541 On ch=10 n=63 v=0
54600 On ch=10 n=63 v=59
54600 On ch=10 n=54 v=97
54600 On ch=10 n=70 v=91
54601 On ch=10 n=70 v=0
54601 On ch=10 n=54 v=0
54601 On ch=10 n=63 v=0
54660 On ch=10 n=64 v=90
54660 On ch=10 n=70 v=43
54661 On ch=10 n=70 v=0
54661 On ch=10 n=64 v=0
54720 On ch=10 n=70 v=60
54721 On ch=10 n=70 v=0
54780 On ch=10 n=64 v=64
54780 On ch=10 n=70 v=46
54781 On ch=10 n=70 v=0
54781 On ch=10 n=64 v=0
54840 On ch=10 n=63 v=71
54840 On ch=10 n=54 v=97
54840 On ch=10 n=70 v=87
54841 On ch=10 n=70 v=0
54841 On ch=10 n=54 v=0
54841 On ch=10 n=63 v=0
54900 On ch=10 n=63 v=94
54900 On ch=10 n=70 v=39
54901 On ch=10 n=70 v=0
54901 On ch=10 n=63 v=0
54960 On ch=10 n=62 v=106
54960 On ch=10 n=70 v=64
54961 On ch=10 n=70 v=0
54961 On ch=10 n=62 v=0
55020 On ch=10 n=63 v=32
55020 On ch=10 n=70 v=43
55021 On ch=10 n=70 v=0
55021 On ch=10 n=63 v=0
55080 On ch=10 n=63 v=96
55080 On ch=10 n=54 v=96
55080 On ch=10 n=70 v=82
55081 On ch=10 n=70 v=0
55081 On ch=10 n=54 v=0
55081 On ch=10 n=63 v=0
55140 On ch=10 n=62 v=52
55140 On ch=10 n=70 v=39
55141 On ch=10 n=70 v=0
55141 On ch=10 n=62 v=0
55200 On ch=10 n=64 v=92
55200 On ch=10 n=70 v=64
55201 On ch=10 n=70 v=0
55201 On ch=10 n=64 v=0
55260 On ch=10 n=70 v=39
55261 On ch=10 n=70 v=0
55320 On ch=10 n=62 v=99
55320 On ch=10 n=54 v=100
55320 On ch=10 n=70 v=87
55321 On ch=10 n=70 v=0
55321 On ch=10 n=54 v=0
55321 On ch=10 n=62 v=0
55380 On ch=10 n=70 v=39
55381 On ch=10 n=70 v=0
55440 On ch=10 n=70 v=58
55441 On ch=10 n=70 v=0
55500 On ch=10 n=63 v=87
55500 On ch=10 n=70 v=52
55501 On ch=10 n=70 v=0
55501 On ch=10 n=63 v=0
55560 On ch=10 n=63 v=59
55560 On ch=10 n=54 v=99
55560 On ch=10 n=70 v=91
55561 On ch=10 n=70 v=0
55561 On ch=10 n=54 v=0
55561 On ch=10 n=63 v=0
55620 On ch=10 n=64 v=90
55620 On ch=10 n=70 v=43
55621 On ch=10 n=70 v=0
55621 On ch=10 n=64 v=0
55680 On ch=10 n=64 v=92
55680 On ch=10 n=70 v=60
55681 On ch=10 n=70 v=0
55681 On ch=10 n=64 v=0
55740 On ch=10 n=70 v=46
55741 On ch=10 n=70 v=0
55800 On ch=10 n=62 v=99
55800 On ch=10 n=54 v=99
55800 On ch=10 n=70 v=87
55801 On ch=10 n=70 v=0
55801 On ch=10 n=54 v=0
55801 On ch=10 n=62 v=0
55860 On ch=10 n=70 v=39
55861 On ch=10 n=70 v=0
55920 On ch=10 n=70 v=64
55921 On ch=10 n=70 v=0
55980 On ch=10 n=63 v=87
55980 On ch=10 n=70 v=43
55981 On ch=10 n=70 v=0
55981 On ch=10 n=63 v=0
56040 On ch=10 n=63 v=59
56040 On ch=10 n=54 v=98
56040 On ch=10 n=70 v=82
56041 On ch=10 n=70 v=0
56041 On ch=10 n=54 v=0
56041 On ch=10 n=63 v=0
56100 On ch=10 n=64 v=90
56100 On ch=10 n=70 v=39
56101 On ch=10 n=70 v=0
56101 On ch=10 n=64 v=0
56160 On ch=10 n=70 v=64
56161 On ch=10 n=70 v=0
56220 On ch=10 n=64 v=64
56220 On ch=10 n=70 v=39
56221 On ch=10 n=70 v=0
56221 On ch=10 n=64 v=0
56280 On ch=10 n=63 v=79
56280 On ch=10 n=54 v=98
56280 On ch=10 n=70 v=87
56281 On ch=10 n=70 v=0
56281 On ch=10 n=54 v=0
56281 On ch=10 n=63 v=0
56340 On ch=10 n=63 v=94
56340 On ch=10 n=70 v=39
56341 On ch=10 n=70 v=0
56341 On ch=10 n=63 v=0
56400 On ch=10 n=62 v=106
56400 On ch=10 n=70 v=58
56401 On ch=10 n=70 v=0
56401 On ch=10 n=62 v=0
56460 On ch=10 n=70 v=52
56461 On ch=10 n=70 v=0
56520 On ch=10 n=63 v=96
56520 On ch=10 n=54 v=97
56520 On ch=10 n=70 v=91
56521 On ch=10 n=70 v=0
56521 On ch=10 n=54 v=0
56521 On ch=10 n=63 v=0
56580 On ch=10 n=63 v=59
56580 On ch=10 n=70 v=43
56581 On ch=10 n=70 v=0
56581 On ch=10 n=63 v=0
56640 On ch=10 n=64 v=92
56640 On ch=10 n=70 v=60
56641 On ch=10 n=70 v=0
56641 On ch=10 n=64 v=0
56700 On ch=10 n=70 v=46
56701 On ch=10 n=70 v=0
56760 On ch=10 n=62 v=99
56760 On ch=10 n=54 v=97
56760 On ch=10 n=70 v=87
56761 On ch=10 n=70 v=0
56761 On ch=10 n=54 v=0
56761 On ch=10 n=62 v=0
56820 On ch=10 n=61 v=47
56820 On ch=10 n=70 v=39
56821 On ch=10 n=70 v=0
56821 On ch=10 n=61 v=0
56880 On ch=10 n=64 v=32
56880 On ch=10 n=70 v=64
56881 On ch=10 n=70 v=0
56881 On ch=10 n=64 v=0
56940 On ch=10 n=63 v=87
56940 On ch=10 n=70 v=43
56941 On ch=10 n=70 v=0
56941 On ch=10 n=63 v=0
57000 On ch=10 n=63 v=59
57000 On ch=10 n=54 v=96
57000 On ch=10 n=70 v=82
57001 On ch=10 n=70 v=0
57001 On ch=10 n=54 v=0
57001 On ch=10 n=63 v=0
57060 On ch=10 n=64 v=90
57060 On ch=10 n=70 v=39
57061 On ch=10 n=70 v=0
57061 On ch=10 n=64 v=0
57120 On ch=10 n=64 v=92
57120 On ch=10 n=70 v=59
57121 On ch=10 n=70 v=0
57121 On ch=10 n=64 v=0
57180 On ch=10 n=70 v=34
57181 On ch=10 n=70 v=0
57240 On ch=10 n=62 v=99
57240 On ch=10 n=70 v=82
57241 On ch=10 n=70 v=0
57241 On ch=10 n=62 v=0
57300 On ch=10 n=70 v=34
57301 On ch=10 n=70 v=0
57360 On ch=10 n=70 v=53
57361 On ch=10 n=70 v=0
57420 On ch=10 n=63 v=87
57420 On ch=10 n=70 v=47
57421 On ch=10 n=70 v=0
57421 On ch=10 n=63 v=0
57480 On ch=10 n=63 v=59
57480 On ch=10 n=70 v=86
57481 On ch=10 n=70 v=0
57481 On ch=10 n=63 v=0
57540 On ch=10 n=64 v=90
57540 On ch=10 n=70 v=38
57541 On ch=10 n=70 v=0
57541 On ch=10 n=64 v=0
57600 On ch=10 n=70 v=55
57601 On ch=10 n=70 v=0
57660 On ch=10 n=64 v=64
57660 On ch=10 n=70 v=41
57661 On ch=10 n=70 v=0
57661 On ch=10 n=64 v=0
57720 On ch=10 n=63 v=79
57720 On ch=10 n=70 v=82
57721 On ch=10 n=70 v=0
57721 On ch=10 n=63 v=0
57780 On ch=10 n=63 v=94
57780 On ch=10 n=70 v=34
57781 On ch=10 n=70 v=0
57781 On ch=10 n=63 v=0
57840 On ch=10 n=62 v=106
57840 On ch=10 n=70 v=59
57841 On ch=10 n=70 v=0
57841 On ch=10 n=62 v=0
57900 On ch=10 n=70 v=38
57901 On ch=10 n=70 v=0
57960 On ch=10 n=63 v=96
57960 On ch=10 n=70 v=77
57961 On ch=10 n=70 v=0
57961 On ch=10 n=63 v=0
58020 On ch=10 n=63 v=59
58020 On ch=10 n=70 v=34
58021 On ch=10 n=70 v=0
58021 On ch=10 n=63 v=0
58080 On ch=10 n=64 v=92
58080 On ch=10 n=70 v=59
58081 On ch=10 n=70 v=0
58081 On ch=10 n=64 v=0
58140 On ch=10 n=70 v=34
58141 On ch=10 n=70 v=0
58200 On ch=10 n=62 v=99
58200 On ch=10 n=70 v=82
58201 On ch=10 n=70 v=0
58201 On ch=10 n=62 v=0
58260 On ch=10 n=61 v=47
58260 On ch=10 n=70 v=34
58261 On ch=10 n=70 v=0
58261 On ch=10 n=61 v=0
58320 On ch=10 n=64 v=32
58320 On ch=10 n=70 v=53
58321 On ch=10 n=70 v=0
58321 On ch=10 n=64 v=0
58380 On ch=10 n=63 v=87
58380 On ch=10 n=70 v=47
58381 On ch=10 n=70 v=0
58381 On ch=10 n=63 v=0
58440 On ch=10 n=63 v=59
58440 On ch=10 n=70 v=86
58441 On ch=10 n=70 v=0
58441 On ch=10 n=63 v=0
58500 On ch=10 n=64 v=90
58500 On ch=10 n=70 v=38
58501 On ch=10 n=70 v=0
58501 On ch=10 n=64 v=0
58560 On ch=10 n=70 v=55
58561 On ch=10 n=70 v=0
58620 On ch=10 n=64 v=64
58620 On ch=10 n=70 v=41
58621 On ch=10 n=70 v=0
58621 On ch=10 n=64 v=0
58680 On ch=10 n=63 v=71
58680 On ch=10 n=70 v=82
58681 On ch=10 n=70 v=0
58681 On ch=10 n=63 v=0
58740 On ch=10 n=63 v=94
58740 On ch=10 n=70 v=34
58741 On ch=10 n=70 v=0
58741 On ch=10 n=63 v=0
58800 On ch=10 n=62 v=106
58800 On ch=10 n=70 v=59
58801 On ch=10 n=70 v=0
58801 On ch=10 n=62 v=0
58860 On ch=10 n=63 v=32
58860 On ch=10 n=70 v=38
58861 On ch=10 n=70 v=0
58861 On ch=10 n=63 v=0
58920 On ch=10 n=63 v=96
58920 On ch=10 n=70 v=77
58921 On ch=10 n=70 v=0
58921 On ch=10 n=63 v=0
58980 On ch=10 n=62 v=52
58980 On ch=10 n=70 v=34
58981 On ch=10 n=70 v=0
58981 On ch=10 n=62 v=0
59040 On ch=10 n=64 v=92
59040 On ch=10 n=70 v=59
59041 On ch=10 n=70 v=0
59041 On ch=10 n=64 v=0
59100 On ch=10 n=70 v=34
59101 On ch=10 n=70 v=0
59160 On ch=10 n=62 v=99
59160 On ch=10 n=70 v=82
59161 On ch=10 n=70 v=0
59161 On ch=10 n=62 v=0
59220 On ch=10 n=70 v=34
59221 On ch=10 n=70 v=0
59280 On ch=10 n=70 v=53
59281 On ch=10 n=70 v=0
59340 On ch=10 n=63 v=87
59340 On ch=10 n=70 v=47
59341 On ch=10 n=70 v=0
59341 On ch=10 n=63 v=0
59400 On ch=10 n=63 v=59
59400 On ch=10 n=70 v=86
59401 On ch=10 n=70 v=0
59401 On ch=10 n=63 v=0
59460 On ch=10 n=64 v=90
59460 On ch=10 n=70 v=38
59461 On ch=10 n=70 v=0
59461 On ch=10 n=64 v=0
59520 On ch=10 n=70 v=55
59521 On ch=10 n=70 v=0
59580 On ch=10 n=64 v=64
59580 On ch=10 n=70 v=41
59581 On ch=10 n=70 v=0
59581 On ch=10 n=64 v=0
59640 On ch=10 n=63 v=79
59640 On ch=10 n=70 v=82
59641 On ch=10 n=70 v=0
59641 On ch=10 n=63 v=0
59700 On ch=10 n=63 v=94
59700 On ch=10 n=70 v=34
59701 On ch=10 n=70 v=0
59701 On ch=10 n=63 v=0
59760 On ch=10 n=62 v=106
59760 On ch=10 n=70 v=59
59761 On ch=10 n=70 v=0
59761 On ch=10 n=62 v=0
59820 On ch=10 n=70 v=38
59821 On ch=10 n=70 v=0
59880 On ch=10 n=63 v=96
59880 On ch=10 n=70 v=77
59881 On ch=10 n=70 v=0
59881 On ch=10 n=63 v=0
59940 On ch=10 n=63 v=59
59940 On ch=10 n=70 v=34
59941 On ch=10 n=70 v=0
59941 On ch=10 n=63 v=0
60000 On ch=10 n=64 v=92
60000 On ch=10 n=70 v=59
60001 On ch=10 n=70 v=0
60001 On ch=10 n=64 v=0
60060 On ch=10 n=70 v=34
60061 On ch=10 n=70 v=0
60120 On ch=10 n=62 v=99
60120 On ch=10 n=70 v=82
60121 On ch=10 n=70 v=0
60121 On ch=10 n=62 v=0
60180 On ch=10 n=61 v=47
60180 On ch=10 n=70 v=34
60181 On ch=10 n=70 v=0
60181 On ch=10 n=61 v=0
60240 On ch=10 n=64 v=32
60240 On ch=10 n=70 v=53
60241 On ch=10 n=70 v=0
60241 On ch=10 n=64 v=0
60300 On ch=10 n=63 v=87
60300 On ch=10 n=70 v=47
60301 On ch=10 n=70 v=0
60301 On ch=10 n=63 v=0
60360 On ch=10 n=63 v=59
60360 On ch=10 n=70 v=86
60361 On ch=10 n=70 v=0
60361 On ch=10 n=63 v=0
60420 On ch=10 n=64 v=90
60420 On ch=10 n=70 v=38
60421 On ch=10 n=70 v=0
60421 On ch=10 n=64 v=0
60480 On ch=10 n=70 v=55
60481 On ch=10 n=70 v=0
60540 On ch=10 n=64 v=64
60540 On ch=10 n=70 v=41
60541 On ch=10 n=70 v=0
60541 On ch=10 n=64 v=0
60600 On ch=10 n=63 v=71
60600 On ch=10 n=70 v=82
60601 On ch=10 n=70 v=0
60601 On ch=10 n=63 v=0
60660 On ch=10 n=63 v=94
60660 On ch=10 n=70 v=34
60661 On ch=10 n=70 v=0
60661 On ch=10 n=63 v=0
60720 On ch=10 n=62 v=106
60720 On ch=10 n=70 v=59
60721 On ch=10 n=70 v=0
60721 On ch=10 n=62 v=0
60780 On ch=10 n=63 v=32
60780 On ch=10 n=70 v=38
60781 On ch=10 n=70 v=0
60781 On ch=10 n=63 v=0
60840 On ch=10 n=63 v=96
60840 On ch=10 n=70 v=77
60841 On ch=10 n=70 v=0
60841 On ch=10 n=63 v=0
60900 On ch=10 n=62 v=52
60900 On ch=10 n=70 v=34
60901 On ch=10 n=70 v=0
60901 On ch=10 n=62 v=0
60960 On ch=10 n=64 v=92
60960 On ch=10 n=70 v=59
60961 On ch=10 n=70 v=0
60961 On ch=10 n=64 v=0
61020 On ch=10 n=70 v=34
61021 On ch=10 n=70 v=0
61080 On ch=10 n=62 v=99
61080 On ch=10 n=70 v=82
61081 On ch=10 n=70 v=0
61081 On ch=10 n=62 v=0
61140 On ch=10 n=70 v=34
61141 On ch=10 n=70 v=0
61200 On ch=10 n=70 v=53
61201 On ch=10 n=70 v=0
61260 On ch=10 n=63 v=87
61260 On ch=10 n=70 v=47
61261 On ch=10 n=70 v=0
61261 On ch=10 n=63 v=0
61320 On ch=10 n=63 v=59
61320 On ch=10 n=70 v=86
61321 On ch=10 n=70 v=0
61321 On ch=10 n=63 v=0
61380 On ch=10 n=64 v=90
61380 On ch=10 n=70 v=38
61381 On ch=10 n=70 v=0
61381 On ch=10 n=64 v=0
61440 On ch=10 n=64 v=92
61440 On ch=10 n=70 v=55
61441 On ch=10 n=70 v=0
61441 On ch=10 n=64 v=0
61500 On ch=10 n=70 v=41
61501 On ch=10 n=70 v=0
61560 On ch=10 n=62 v=99
61560 On ch=10 n=70 v=82
61561 On ch=10 n=70 v=0
61561 On ch=10 n=62 v=0
61620 On ch=10 n=70 v=34
61621 On ch=10 n=70 v=0
61680 On ch=10 n=70 v=59
61681 On ch=10 n=70 v=0
61740 On ch=10 n=63 v=87
61740 On ch=10 n=70 v=38
61741 On ch=10 n=70 v=0
61741 On ch=10 n=63 v=0
61800 On ch=10 n=63 v=59
61800 On ch=10 n=70 v=77
61801 On ch=10 n=70 v=0
61801 On ch=10 n=63 v=0
61860 On ch=10 n=64 v=90
61860 On ch=10 n=70 v=34
61861 On ch=10 n=70 v=0
61861 On ch=10 n=64 v=0
61920 On ch=10 n=70 v=59
61921 On ch=10 n=70 v=0
61980 On ch=10 n=64 v=64
61980 On ch=10 n=70 v=34
61981 On ch=10 n=70 v=0
61981 On ch=10 n=64 v=0
62040 On ch=10 n=63 v=79
62040 On ch=10 n=70 v=82
62041 On ch=10 n=70 v=0
62041 On ch=10 n=63 v=0
62100 On ch=10 n=63 v=94
62100 On ch=10 n=70 v=34
62101 On ch=10 n=70 v=0
62101 On ch=10 n=63 v=0
62160 On ch=10 n=62 v=106
62160 On ch=10 n=70 v=53
62161 On ch=10 n=70 v=0
62161 On ch=10 n=62 v=0
62220 On ch=10 n=70 v=47
62221 On ch=10 n=70 v=0
62280 On ch=10 n=63 v=96
62280 On ch=10 n=70 v=86
62281 On ch=10 n=70 v=0
62281 On ch=10 n=63 v=0
62340 On ch=10 n=63 v=59
62340 On ch=10 n=70 v=38
62341 On ch=10 n=70 v=0
62341 On ch=10 n=63 v=0
62400 On ch=10 n=64 v=92
62400 On ch=10 n=70 v=55
62401 On ch=10 n=70 v=0
62401 On ch=10 n=64 v=0
62460 On ch=10 n=70 v=41
62461 On ch=10 n=70 v=0
62520 On ch=10 n=62 v=99
62520 On ch=10 n=70 v=82
62521 On ch=10 n=70 v=0
62521 On ch=10 n=62 v=0
62580 On ch=10 n=61 v=47
62580 On ch=10 n=70 v=34
62581 On ch=10 n=70 v=0
62581 On ch=10 n=61 v=0
62640 On ch=10 n=64 v=32
62640 On ch=10 n=70 v=59
62641 On ch=10 n=70 v=0
62641 On ch=10 n=64 v=0
62700 On ch=10 n=63 v=87
62700 On ch=10 n=70 v=38
62701 On ch=10 n=70 v=0
62701 On ch=10 n=63 v=0
62760 On ch=10 n=63 v=59
62760 On ch=10 n=70 v=77
62761 On ch=10 n=70 v=0
62761 On ch=10 n=63 v=0
62820 On ch=10 n=64 v=90
62820 On ch=10 n=70 v=34
62821 On ch=10 n=70 v=0
62821 On ch=10 n=64 v=0
62880 On ch=10 n=70 v=59
62881 On ch=10 n=70 v=0
62940 On ch=10 n=64 v=64
62940 On ch=10 n=70 v=34
62941 On ch=10 n=70 v=0
62941 On ch=10 n=64 v=0
63000 On ch=10 n=63 v=71
63000 On ch=10 n=70 v=82
63001 On ch=10 n=70 v=0
63001 On ch=10 n=63 v=0
63060 On ch=10 n=63 v=94
63060 On ch=10 n=70 v=34
63061 On ch=10 n=70 v=0
63061 On ch=10 n=63 v=0
63120 On ch=10 n=62 v=106
63120 On ch=10 n=70 v=53
63121 On ch=10 n=70 v=0
63121 On ch=10 n=62 v=0
63180 On ch=10 n=63 v=32
63180 On ch=10 n=70 v=47
63181 On ch=10 n=70 v=0
63181 On ch=10 n=63 v=0
63240 On ch=10 n=63 v=96
63240 On ch=10 n=70 v=86
63241 On ch=10 n=70 v=0
63241 On ch=10 n=63 v=0
63300 On ch=10 n=62 v=52
63300 On ch=10 n=70 v=38
63301 On ch=10 n=70 v=0
63301 On ch=10 n=62 v=0
63360 On ch=10 n=64 v=92
63360 On ch=10 n=70 v=55
63361 On ch=10 n=70 v=0
63361 On ch=10 n=64 v=0
63420 On ch=10 n=70 v=41
63421 On ch=10 n=70 v=0
63480 On ch=10 n=62 v=99
63480 On ch=10 n=70 v=82
63481 On ch=10 n=70 v=0
63481 On ch=10 n=62 v=0
63540 On ch=10 n=70 v=34
63541 On ch=10 n=70 v=0
63600 On ch=10 n=70 v=59
63601 On ch=10 n=70 v=0
63660 On ch=10 n=63 v=87
63660 On ch=10 n=70 v=38
63661 On ch=10 n=70 v=0
63661 On ch=10 n=63 v=0
63720 On ch=10 n=63 v=59
63720 On ch=10 n=70 v=77
63721 On ch=10 n=70 v=0
63721 On ch=10 n=63 v=0
63780 On ch=10 n=64 v=90
63780 On ch=10 n=70 v=34
63781 On ch=10 n=70 v=0
63781 On ch=10 n=64 v=0
63840 On ch=10 n=64 v=92
63840 On ch=10 n=70 v=59
63841 On ch=10 n=70 v=0
63841 On ch=10 n=64 v=0
63900 On ch=10 n=70 v=34
63901 On ch=10 n=70 v=0
63960 On ch=10 n=62 v=99
63960 On ch=10 n=70 v=82
63961 On ch=10 n=70 v=0
63961 On ch=10 n=62 v=0
64020 On ch=10 n=70 v=34
64021 On ch=10 n=70 v=0
64080 On ch=10 n=70 v=53
64081 On ch=10 n=70 v=0
64140 On ch=10 n=63 v=87
64140 On ch=10 n=70 v=47
64141 On ch=10 n=70 v=0
64141 On ch=10 n=63 v=0
64200 On ch=10 n=63 v=59
64200 On ch=10 n=70 v=86
64201 On ch=10 n=70 v=0
64201 On ch=10 n=63 v=0
64260 On ch=10 n=64 v=90
64260 On ch=10 n=70 v=38
64261 On ch=10 n=70 v=0
64261 On ch=10 n=64 v=0
64320 On ch=10 n=70 v=55
64321 On ch=10 n=70 v=0
64380 On ch=10 n=64 v=64
64380 On ch=10 n=70 v=41
64381 On ch=10 n=70 v=0
64381 On ch=10 n=64 v=0
64440 On ch=10 n=63 v=79
64440 On ch=10 n=70 v=82
64441 On ch=10 n=70 v=0
64441 On ch=10 n=63 v=0
64500 On ch=10 n=63 v=94
64500 On ch=10 n=70 v=34
64501 On ch=10 n=70 v=0
64501 On ch=10 n=63 v=0
64560 On ch=10 n=62 v=106
64560 On ch=10 n=70 v=59
64561 On ch=10 n=70 v=0
64561 On ch=10 n=62 v=0
64620 On ch=10 n=70 v=38
64621 On ch=10 n=70 v=0
64680 On ch=10 n=63 v=96
64680 On ch=10 n=70 v=77
64681 On ch=10 n=70 v=0
64681 On ch=10 n=63 v=0
64740 On ch=10 n=63 v=59
64740 On ch=10 n=70 v=34
64741 On ch=10 n=70 v=0
64741 On ch=10 n=63 v=0
64800 On ch=10 n=64 v=92
64800 On ch=10 n=70 v=59
64801 On ch=10 n=70 v=0
64801 On ch=10 n=64 v=0
64860 On ch=10 n=70 v=34
64861 On ch=10 n=70 v=0
64920 On ch=10 n=62 v=99
64920 On ch=10 n=70 v=82
64921 On ch=10 n=70 v=0
64921 On ch=10 n=62 v=0
64980 On ch=10 n=61 v=47
64980 On ch=10 n=70 v=34
64981 On ch=10 n=70 v=0
64981 On ch=10 n=61 v=0
65040 On ch=10 n=64 v=32
65040 On ch=10 n=70 v=53
65041 On ch=10 n=70 v=0
65041 On ch=10 n=64 v=0
65100 On ch=10 n=63 v=87
65100 On ch=10 n=70 v=47
65101 On ch=10 n=70 v=0
65101 On ch=10 n=63 v=0
65160 On ch=10 n=63 v=59
65160 On ch=10 n=70 v=86
65161 On ch=10 n=70 v=0
65161 On ch=10 n=63 v=0
65220 On ch=10 n=64 v=90
65220 On ch=10 n=70 v=38
65221 On ch=10 n=70 v=0
65221 On ch=10 n=64 v=0
65280 On ch=10 n=70 v=55
65281 On ch=10 n=70 v=0
65340 On ch=10 n=64 v=64
65340 On ch=10 n=70 v=41
65341 On ch=10 n=70 v=0
65341 On ch=10 n=64 v=0
65400 On ch=10 n=63 v=71
65400 On ch=10 n=70 v=82
65401 On ch=10 n=70 v=0
65401 On ch=10 n=63 v=0
65460 On ch=10 n=63 v=94
65460 On ch=10 n=70 v=34
65461 On ch=10 n=70 v=0
65461 On ch=10 n=63 v=0
65520 On ch=10 n=62 v=106
65520 On ch=10 n=70 v=59
65521 On ch=10 n=70 v=0
65521 On ch=10 n=62 v=0
65580 On ch=10 n=63 v=32
65580 On ch=10 n=70 v=38
65581 On ch=10 n=70 v=0
65581 On ch=10 n=63 v=0
65640 On ch=10 n=63 v=96
65640 On ch=10 n=70 v=77
65641 On ch=10 n=70 v=0
65641 On ch=10 n=63 v=0
65700 On ch=10 n=62 v=52
65700 On ch=10 n=70 v=34
65701 On ch=10 n=70 v=0
65701 On ch=10 n=62 v=0
65760 On ch=10 n=64 v=92
65760 On ch=10 n=70 v=59
65761 On ch=10 n=70 v=0
65761 On ch=10 n=64 v=0
65820 On ch=10 n=70 v=34
65821 On ch=10 n=70 v=0
65880 On ch=10 n=62 v=99
65880 On ch=10 n=70 v=82
65881 On ch=10 n=70 v=0
65881 On ch=10 n=62 v=0
65940 On ch=10 n=70 v=34
65941 On ch=10 n=70 v=0
66000 On ch=10 n=70 v=53
66001 On ch=10 n=70 v=0
66060 On ch=10 n=63 v=87
66060 On ch=10 n=70 v=47
66061 On ch=10 n=70 v=0
66061 On ch=10 n=63 v=0
66120 On ch=10 n=63 v=59
66120 On ch=10 n=70 v=86
66121 On ch=10 n=70 v=0
66121 On ch=10 n=63 v=0
66180 On ch=10 n=64 v=90
66180 On ch=10 n=70 v=38
66181 On ch=10 n=70 v=0
66181 On ch=10 n=64 v=0
66240 On ch=10 n=64 v=92
66240 On ch=10 n=70 v=55
66241 On ch=10 n=70 v=0
66241 On ch=10 n=64 v=0
66300 On ch=10 n=70 v=41
66301 On ch=10 n=70 v=0
66360 On ch=10 n=62 v=99
66360 On ch=10 n=70 v=82
66361 On ch=10 n=70 v=0
66361 On ch=10 n=62 v=0
66420 On ch=10 n=70 v=34
66421 On ch=10 n=70 v=0
66480 On ch=10 n=70 v=59
66481 On ch=10 n=70 v=0
66540 On ch=10 n=63 v=87
66540 On ch=10 n=70 v=38
66541 On ch=10 n=70 v=0
66541 On ch=10 n=63 v=0
66600 On ch=10 n=63 v=59
66600 On ch=10 n=70 v=77
66601 On ch=10 n=70 v=0
66601 On ch=10 n=63 v=0
66660 On ch=10 n=64 v=90
66660 On ch=10 n=70 v=34
66661 On ch=10 n=70 v=0
66661 On ch=10 n=64 v=0
66720 On ch=10 n=70 v=59
66721 On ch=10 n=70 v=0
66780 On ch=10 n=64 v=64
66780 On ch=10 n=70 v=34
66781 On ch=10 n=70 v=0
66781 On ch=10 n=64 v=0
66840 On ch=10 n=63 v=79
66840 On ch=10 n=70 v=82
66841 On ch=10 n=70 v=0
66841 On ch=10 n=63 v=0
66900 On ch=10 n=63 v=94
66900 On ch=10 n=70 v=34
66901 On ch=10 n=70 v=0
66901 On ch=10 n=63 v=0
66960 On ch=10 n=62 v=106
66960 On ch=10 n=70 v=53
66961 On ch=10 n=70 v=0
66961 On ch=10 n=62 v=0
67020 On ch=10 n=70 v=47
67021 On ch=10 n=70 v=0
67080 On ch=10 n=63 v=96
67080 On ch=10 n=70 v=86
67081 On ch=10 n=70 v=0
67081 On ch=10 n=63 v=0
67140 On ch=10 n=63 v=59
67140 On ch=10 n=70 v=38
67141 On ch=10 n=70 v=0
67141 On ch=10 n=63 v=0
67200 On ch=10 n=64 v=92
67200 On ch=10 n=70 v=55
67201 On ch=10 n=70 v=0
67201 On ch=10 n=64 v=0
67260 On ch=10 n=70 v=41
67261 On ch=10 n=70 v=0
67320 On ch=10 n=62 v=99
67320 On ch=10 n=70 v=82
67321 On ch=10 n=70 v=0
67321 On ch=10 n=62 v=0
67380 On ch=10 n=61 v=47
67380 On ch=10 n=70 v=34
67381 On ch=10 n=70 v=0
67381 On ch=10 n=61 v=0
67440 On ch=10 n=64 v=32
67440 On ch=10 n=70 v=59
67441 On ch=10 n=70 v=0
67441 On ch=10 n=64 v=0
67500 On ch=10 n=63 v=87
67500 On ch=10 n=70 v=38
67501 On ch=10 n=70 v=0
67501 On ch=10 n=63 v=0
67560 On ch=10 n=63 v=59
67560 On ch=10 n=70 v=77
67561 On ch=10 n=70 v=0
67561 On ch=10 n=63 v=0
67620 On ch=10 n=64 v=90
67620 On ch=10 n=70 v=34
67621 On ch=10 n=70 v=0
67621 On ch=10 n=64 v=0
67680 On ch=10 n=64 v=92
67680 On ch=10 n=70 v=64
67681 On ch=10 n=70 v=0
67681 On ch=10 n=64 v=0
67740 On ch=10 n=70 v=39
67741 On ch=10 n=70 v=0
67800 On ch=10 n=62 v=99
67800 On ch=10 n=54 v=100
67800 On ch=10 n=70 v=87
67801 On ch=10 n=70 v=0
67801 On ch=10 n=54 v=0
67801 On ch=10 n=62 v=0
67860 On ch=10 n=70 v=39
67861 On ch=10 n=70 v=0
67920 On ch=10 n=70 v=58
67921 On ch=10 n=70 v=0
67980 On ch=10 n=63 v=87
67980 On ch=10 n=70 v=52
67981 On ch=10 n=70 v=0
67981 On ch=10 n=63 v=0
68040 On ch=10 n=63 v=59
68040 On ch=10 n=54 v=99
68040 On ch=10 n=70 v=91
68041 On ch=10 n=70 v=0
68041 On ch=10 n=54 v=0
68041 On ch=10 n=63 v=0
68100 On ch=10 n=64 v=90
68100 On ch=10 n=70 v=43
68101 On ch=10 n=70 v=0
68101 On ch=10 n=64 v=0
68160 On ch=10 n=70 v=60
68161 On ch=10 n=70 v=0
68220 On ch=10 n=64 v=64
68220 On ch=10 n=70 v=46
68221 On ch=10 n=70 v=0
68221 On ch=10 n=64 v=0
68280 On ch=10 n=63 v=79
68280 On ch=10 n=54 v=99
68280 On ch=10 n=70 v=87
68281 On ch=10 n=70 v=0
68281 On ch=10 n=54 v=0
68281 On ch=10 n=63 v=0
68340 On ch=10 n=63 v=94
68340 On ch=10 n=70 v=39
68341 On ch=10 n=70 v=0
68341 On ch=10 n=63 v=0
68400 On ch=10 n=62 v=106
68400 On ch=10 n=70 v=64
68401 On ch=10 n=70 v=0
68401 On ch=10 n=62 v=0
68460 On ch=10 n=70 v=43
68461 On ch=10 n=70 v=0
68520 On ch=10 n=63 v=96
68520 On ch=10 n=54 v=98
68520 On ch=10 n=70 v=82
68521 On ch=10 n=70 v=0
68521 On ch=10 n=54 v=0
68521 On ch=10 n=63 v=0
68580 On ch=10 n=63 v=59
68580 On ch=10 n=70 v=39
68581 On ch=10 n=70 v=0
68581 On ch=10 n=63 v=0
68640 On ch=10 n=64 v=92
68640 On ch=10 n=70 v=64
68641 On ch=10 n=70 v=0
68641 On ch=10 n=64 v=0
68700 On ch=10 n=70 v=39
68701 On ch=10 n=70 v=0
68760 On ch=10 n=62 v=99
68760 On ch=10 n=54 v=98
68760 On ch=10 n=70 v=87
68761 On ch=10 n=70 v=0
68761 On ch=10 n=54 v=0
68761 On ch=10 n=62 v=0
68820 On ch=10 n=61 v=47
68820 On ch=10 n=70 v=39
68821 On ch=10 n=70 v=0
68821 On ch=10 n=61 v=0
68880 On ch=10 n=64 v=32
68880 On ch=10 n=70 v=58
68881 On ch=10 n=70 v=0
68881 On ch=10 n=64 v=0
68940 On ch=10 n=63 v=87
68940 On ch=10 n=70 v=52
68941 On ch=10 n=70 v=0
68941 On ch=10 n=63 v=0
69000 On ch=10 n=63 v=59
69000 On ch=10 n=54 v=97
69000 On ch=10 n=70 v=91
69001 On ch=10 n=70 v=0
69001 On ch=10 n=54 v=0
69001 On ch=10 n=63 v=0
69060 On ch=10 n=64 v=90
69060 On ch=10 n=70 v=43
69061 On ch=10 n=70 v=0
69061 On ch=10 n=64 v=0
69120 On ch=10 n=70 v=60
69121 On ch=10 n=70 v=0
69180 On ch=10 n=64 v=64
69180 On ch=10 n=70 v=46
69181 On ch=10 n=70 v=0
69181 On ch=10 n=64 v=0
69240 On ch=10 n=63 v=71
69240 On ch=10 n=54 v=97
69240 On ch=10 n=70 v=87
69241 On ch=10 n=70 v=0
69241 On ch=10 n=54 v=0
69241 On ch=10 n=63 v=0
69300 On ch=10 n=63 v=94
69300 On ch=10 n=70 v=39
69301 On ch=10 n=70 v=0
69301 On ch=10 n=63 v=0
69360 On ch=10 n=62 v=106
69360 On ch=10 n=70 v=64
69361 On ch=10 n=70 v=0
69361 On ch=10 n=62 v=0
69420 On ch=10 n=63 v=32
69420 On ch=10 n=70 v=43
69421 On ch=10 n=70 v=0
69421 On ch=10 n=63 v=0
69480 On ch=10 n=63 v=96
69480 On ch=10 n=54 v=96
69480 On ch=10 n=70 v=82
69481 On ch=10 n=70 v=0
69481 On ch=10 n=54 v=0
69481 On ch=10 n=63 v=0
69540 On ch=10 n=62 v=52
69540 On ch=10 n=70 v=39
69541 On ch=10 n=70 v=0
69541 On ch=10 n=62 v=0
69600 On ch=10 n=64 v=92
69600 On ch=10 n=70 v=64
69601 On ch=10 n=70 v=0
69601 On ch=10 n=64 v=0
69660 On ch=10 n=70 v=39
69661 On ch=10 n=70 v=0
69720 On ch=10 n=62 v=99
69720 On ch=10 n=54 v=100
69720 On ch=10 n=70 v=87
69721 On ch=10 n=70 v=0
69721 On ch=10 n=54 v=0
69721 On ch=10 n=62 v=0
69780 On ch=10 n=70 v=39
69781 On ch=10 n=70 v=0
69840 On ch=10 n=70 v=58
69841 On ch=10 n=70 v=0
69900 On ch=10 n=63 v=87
69900 On ch=10 n=70 v=52
69901 On ch=10 n=70 v=0
69901 On ch=10 n=63 v=0
69960 On ch=10 n=63 v=59
69960 On ch=10 n=54 v=99
69960 On ch=10 n=70 v=91
69961 On ch=10 n=70 v=0
69961 On ch=10 n=54 v=0
69961 On ch=10 n=63 v=0
70020 On ch=10 n=64 v=90
70020 On ch=10 n=70 v=43
70021 On ch=10 n=70 v=0
70021 On ch=10 n=64 v=0
70080 On ch=10 n=70 v=60
70081 On ch=10 n=70 v=0
70140 On ch=10 n=64 v=64
70140 On ch=10 n=70 v=46
70141 On ch=10 n=70 v=0
70141 On ch=10 n=64 v=0
70200 On ch=10 n=63 v=79
70200 On ch=10 n=54 v=99
70200 On ch=10 n=70 v=87
70201 On ch=10 n=70 v=0
70201 On ch=10 n=54 v=0
70201 On ch=10 n=63 v=0
70260 On ch=10 n=63 v=94
70260 On ch=10 n=70 v=39
70261 On ch=10 n=70 v=0
70261 On ch=10 n=63 v=0
70320 On ch=10 n=62 v=106
70320 On ch=10 n=70 v=64
70321 On ch=10 n=70 v=0
70321 On ch=10 n=62 v=0
70380 On ch=10 n=70 v=43
70381 On ch=10 n=70 v=0
70440 On ch=10 n=63 v=96
70440 On ch=10 n=54 v=98
70440 On ch=10 n=70 v=82
70441 On ch=10 n=70 v=0
70441 On ch=10 n=54 v=0
70441 On ch=10 n=63 v=0
70500 On ch=10 n=63 v=59
70500 On ch=10 n=70 v=39
70501 On ch=10 n=70 v=0
70501 On ch=10 n=63 v=0
70560 On ch=10 n=64 v=92
70560 On ch=10 n=70 v=64
70561 On ch=10 n=70 v=0
70561 On ch=10 n=64 v=0
70620 On ch=10 n=70 v=39
70621 On ch=10 n=70 v=0
70680 On ch=10 n=62 v=99
70680 On ch=10 n=54 v=98
70680 On ch=10 n=70 v=87
70681 On ch=10 n=70 v=0
70681 On ch=10 n=54 v=0
70681 On ch=10 n=62 v=0
70740 On ch=10 n=61 v=47
70740 On ch=10 n=70 v=39
70741 On ch=10 n=70 v=0
70741 On ch=10 n=61 v=0
70800 On ch=10 n=64 v=32
70800 On ch=10 n=70 v=58
70801 On ch=10 n=70 v=0
70801 On ch=10 n=64 v=0
70860 On ch=10 n=63 v=87
70860 On ch=10 n=70 v=52
70861 On ch=10 n=70 v=0
70861 On ch=10 n=63 v=0
70920 On ch=10 n=63 v=59
70920 On ch=10 n=54 v=97
70920 On ch=10 n=70 v=91
70921 On ch=10 n=70 v=0
70921 On ch=10 n=54 v=0
70921 On ch=10 n=63 v=0
70980 On ch=10 n=64 v=90
70980 On ch=10 n=70 v=43
70981 On ch=10 n=70 v=0
70981 On ch=10 n=64 v=0
71040 On ch=10 n=70 v=60
71041 On ch=10 n=70 v=0
71100 On ch=10 n=64 v=64
71100 On ch=10 n=70 v=46
71101 On ch=10 n=70 v=0
71101 On ch=10 n=64 v=0
71160 On ch=10 n=63 v=71
71160 On ch=10 n=54 v=97
71160 On ch=10 n=70 v=87
71161 On ch=10 n=70 v=0
71161 On ch=10 n=54 v=0
71161 On ch=10 n=63 v=0
71220 On ch=10 n=63 v=94
71220 On ch=10 n=70 v=39
71221 On ch=10 n=70 v=0
71221 On ch=10 n=63 v=0
71280 On ch=10 n=62 v=106
71280 On ch=10 n=70 v=64
71281 On ch=10 n=70 v=0
71281 On ch=10 n=62 v=0
71340 On ch=10 n=63 v=32
71340 On ch=10 n=70 v=43
71341 On ch=10 n=70 v=0
71341 On ch=10 n=63 v=0
71400 On ch=10 n=63 v=96
71400 On ch=10 n=54 v=96
71400 On ch=10 n=70 v=82
71401 On ch=10 n=70 v=0
71401 On ch=10 n=54 v=0
71401 On ch=10 n=63 v=0
71460 On ch=10 n=62 v=52
71460 On ch=10 n=70 v=39
71461 On ch=10 n=70 v=0
71461 On ch=10 n=62 v=0
71520 On ch=10 n=64 v=92
71520 On ch=10 n=70 v=64
71521 On ch=10 n=70 v=0
71521 On ch=10 n=64 v=0
71580 On ch=10 n=70 v=39
71581 On ch=10 n=70 v=0
71640 On ch=10 n=62 v=99
71640 On ch=10 n=54 v=100
71640 On ch=10 n=70 v=87
71641 On ch=10 n=70 v=0
71641 On ch=10 n=54 v=0
71641 On ch=10 n=62 v=0
71700 On ch=10 n=70 v=39
71701 On ch=10 n=70 v=0
71760 On ch=10 n=70 v=58
71761 On ch=10 n=70 v=0
71820 On ch=10 n=63 v=87
71820 On ch=10 n=70 v=52
71821 On ch=10 n=70 v=0
71821 On ch=10 n=63 v=0
71880 On ch=10 n=63 v=59
71880 On ch=10 n=54 v=99
71880 On ch=10 n=70 v=91
71881 On ch=10 n=70 v=0
71881 On ch=10 n=54 v=0
71881 On ch=10 n=63 v=0
71940 On ch=10 n=64 v=90
71940 On ch=10 n=70 v=43
71941 On ch=10 n=70 v=0
71941 On ch=10 n=64 v=0
72000 On ch=10 n=70 v=60
72001 On ch=10 n=70 v=0
72060 On ch=10 n=64 v=64
72060 On ch=10 n=70 v=46
72061 On ch=10 n=70 v=0
72061 On ch=10 n=64 v=0
72120 On ch=10 n=63 v=79
72120 On ch=10 n=54 v=99
72120 On ch=10 n=70 v=87
72121 On ch=10 n=70 v=0
72121 On ch=10 n=54 v=0
72121 On ch=10 n=63 v=0
72180 On ch=10 n=63 v=94
72180 On ch=10 n=70 v=39
72181 On ch=10 n=70 v=0
72181 On ch=10 n=63 v=0
72240 On ch=10 n=62 v=106
72240 On ch=10 n=70 v=64
72241 On ch=10 n=70 v=0
72241 On ch=10 n=62 v=0
72300 On ch=10 n=70 v=43
72301 On ch=10 n=70 v=0
72360 On ch=10 n=63 v=96
72360 On ch=10 n=54 v=98
72360 On ch=10 n=70 v=82
72361 On ch=10 n=70 v=0
72361 On ch=10 n=54 v=0
72361 On ch=10 n=63 v=0
72420 On ch=10 n=63 v=59
72420 On ch=10 n=70 v=39
72421 On ch=10 n=70 v=0
72421 On ch=10 n=63 v=0
72480 On ch=10 n=64 v=92
72480 On ch=10 n=70 v=64
72481 On ch=10 n=70 v=0
72481 On ch=10 n=64 v=0
72540 On ch=10 n=70 v=39
72541 On ch=10 n=70 v=0
72600 On ch=10 n=62 v=99
72600 On ch=10 n=54 v=98
72600 On ch=10 n=70 v=87
72601 On ch=10 n=70 v=0
72601 On ch=10 n=54 v=0
72601 On ch=10 n=62 v=0
72660 On ch=10 n=61 v=47
72660 On ch=10 n=70 v=39
72661 On ch=10 n=70 v=0
72661 On ch=10 n=61 v=0
72720 On ch=10 n=64 v=32
72720 On ch=10 n=70 v=58
72721 On ch=10 n=70 v=0
72721 On ch=10 n=64 v=0
72780 On ch=10 n=63 v=87
72780 On ch=10 n=70 v=52
72781 On ch=10 n=70 v=0
72781 On ch=10 n=63 v=0
72840 On ch=10 n=63 v=59
72840 On ch=10 n=54 v=97
72840 On ch=10 n=70 v=91
72841 On ch=10 n=70 v=0
72841 On ch=10 n=54 v=0
72841 On ch=10 n=63 v=0
72900 On ch=10 n=64 v=90
72900 On ch=10 n=70 v=43
72901 On ch=10 n=70 v=0
72901 On ch=10 n=64 v=0
72960 On ch=10 n=70 v=60
72961 On ch=10 n=70 v=0
73020 On ch=10 n=64 v=64
73020 On ch=10 n=70 v=46
73021 On ch=10 n=70 v=0
73021 On ch=10 n=64 v=0
73080 On ch=10 n=63 v=71
73080 On ch=10 n=54 v=97
73080 On ch=10 n=70 v=87
73081 On ch=10 n=70 v=0
73081 On ch=10 n=54 v=0
73081 On ch=10 n=63 v=0
73140 On ch=10 n=63 v=94
73140 On ch=10 n=70 v=39
73141 On ch=10 n=70 v=0
73141 On ch=10 n=63 v=0
73200 On ch=10 n=62 v=106
73200 On ch=10 n=70 v=64
73201 On ch=10 n=70 v=0
73201 On ch=10 n=62 v=0
73260 On ch=10 n=63 v=32
73260 On ch=10 n=70 v=43
73261 On ch=10 n=70 v=0
73261 On ch=10 n=63 v=0
73320 On ch=10 n=63 v=96
73320 On ch=10 n=54 v=96
73320 On ch=10 n=70 v=82
73321 On ch=10 n=70 v=0
73321 On ch=10 n=54 v=0
73321 On ch=10 n=63 v=0
73380 On ch=10 n=62 v=52
73380 On ch=10 n=70 v=39
73381 On ch=10 n=70 v=0
73381 On ch=10 n=62 v=0
73440 On ch=10 n=64 v=92
73440 On ch=10 n=70 v=64
73441 On ch=10 n=70 v=0
73441 On ch=10 n=64 v=0
73500 On ch=10 n=70 v=39
73501 On ch=10 n=70 v=0
73560 On ch=10 n=62 v=99
73560 On ch=10 n=54 v=100
73560 On ch=10 n=70 v=87
73561 On ch=10 n=70 v=0
73561 On ch=10 n=54 v=0
73561 On ch=10 n=62 v=0
73620 On ch=10 n=70 v=39
73621 On ch=10 n=70 v=0
73680 On ch=10 n=70 v=58
73681 On ch=10 n=70 v=0
73740 On ch=10 n=63 v=87
73740 On ch=10 n=70 v=52
73741 On ch=10 n=70 v=0
73741 On ch=10 n=63 v=0
73800 On ch=10 n=63 v=59
73800 On ch=10 n=54 v=99
73800 On ch=10 n=70 v=91
73801 On ch=10 n=70 v=0
73801 On ch=10 n=54 v=0
73801 On ch=10 n=63 v=0
73860 On ch=10 n=64 v=90
73860 On ch=10 n=70 v=43
73861 On ch=10 n=70 v=0
73861 On ch=10 n=64 v=0
73920 On ch=10 n=64 v=92
73920 On ch=10 n=70 v=60
73921 On ch=10 n=70 v=0
73921 On ch=10 n=64 v=0
73980 On ch=10 n=70 v=46
73981 On ch=10 n=70 v=0
74040 On ch=10 n=62 v=99
74040 On ch=10 n=54 v=99
74040 On ch=10 n=70 v=87
74041 On ch=10 n=70 v=0
74041 On ch=10 n=54 v=0
74041 On ch=10 n=62 v=0
74100 On ch=10 n=70 v=39
74101 On ch=10 n=70 v=0
74160 On ch=10 n=70 v=64
74161 On ch=10 n=70 v=0
74220 On ch=10 n=63 v=87
74220 On ch=10 n=70 v=43
74221 On ch=10 n=70 v=0
74221 On ch=10 n=63 v=0
74280 On ch=10 n=63 v=59
74280 On ch=10 n=54 v=98
74280 On ch=10 n=70 v=82
74281 On ch=10 n=70 v=0
74281 On ch=10 n=54 v=0
74281 On ch=10 n=63 v=0
74340 On ch=10 n=64 v=90
74340 On ch=10 n=70 v=39
74341 On ch=10 n=70 v=0
74341 On ch=10 n=64 v=0
74400 On ch=10 n=70 v=64
74401 On ch=10 n=70 v=0
74460 On ch=10 n=64 v=64
74460 On ch=10 n=70 v=39
74461 On ch=10 n=70 v=0
74461 On ch=10 n=64 v=0
74520 On ch=10 n=63 v=79
74520 On ch=10 n=54 v=98
74520 On ch=10 n=70 v=87
74521 On ch=10 n=70 v=0
74521 On ch=10 n=54 v=0
74521 On ch=10 n=63 v=0
74580 On ch=10 n=63 v=94
74580 On ch=10 n=70 v=39
74581 On ch=10 n=70 v=0
74581 On ch=10 n=63 v=0
74640 On ch=10 n=62 v=106
74640 On ch=10 n=70 v=58
74641 On ch=10 n=70 v=0
74641 On ch=10 n=62 v=0
74700 On ch=10 n=70 v=52
74701 On ch=10 n=70 v=0
74760 On ch=10 n=63 v=96
74760 On ch=10 n=54 v=97
74760 On ch=10 n=70 v=91
74761 On ch=10 n=70 v=0
74761 On ch=10 n=54 v=0
74761 On ch=10 n=63 v=0
74820 On ch=10 n=63 v=59
74820 On ch=10 n=70 v=43
74821 On ch=10 n=70 v=0
74821 On ch=10 n=63 v=0
74880 On ch=10 n=64 v=92
74880 On ch=10 n=70 v=60
74881 On ch=10 n=70 v=0
74881 On ch=10 n=64 v=0
74940 On ch=10 n=70 v=46
74941 On ch=10 n=70 v=0
75000 On ch=10 n=62 v=99
75000 On ch=10 n=54 v=97
75000 On ch=10 n=70 v=87
75001 On ch=10 n=70 v=0
75001 On ch=10 n=54 v=0
75001 On ch=10 n=62 v=0
75060 On ch=10 n=61 v=47
75060 On ch=10 n=70 v=39
75061 On ch=10 n=70 v=0
75061 On ch=10 n=61 v=0
75120 On ch=10 n=64 v=32
75120 On ch=10 n=70 v=64
75121 On ch=10 n=70 v=0
75121 On ch=10 n=64 v=0
75180 On ch=10 n=63 v=87
75180 On ch=10 n=70 v=43
75181 On ch=10 n=70 v=0
75181 On ch=10 n=63 v=0
75240 On ch=10 n=63 v=59
75240 On ch=10 n=54 v=96
75240 On ch=10 n=70 v=82
75241 On ch=10 n=70 v=0
75241 On ch=10 n=54 v=0
75241 On ch=10 n=63 v=0
75300 On ch=10 n=64 v=90
75300 On ch=10 n=70 v=39
75301 On ch=10 n=70 v=0
75301 On ch=10 n=64 v=0
75360 On ch=10 n=64 v=92
75360 On ch=10 n=70 v=59
75361 On ch=10 n=70 v=0
75361 On ch=10 n=64 v=0
75420 On ch=10 n=70 v=34
75421 On ch=10 n=70 v=0
75480 On ch=10 n=62 v=99
75480 On ch=10 n=70 v=82
75481 On ch=10 n=70 v=0
75481 On ch=10 n=62 v=0
75540 On ch=10 n=70 v=34
75541 On ch=10 n=70 v=0
75600 On ch=10 n=70 v=53
75601 On ch=10 n=70 v=0
75660 On ch=10 n=63 v=87
75660 On ch=10 n=70 v=47
75661 On ch=10 n=70 v=0
75661 On ch=10 n=63 v=0
75720 On ch=10 n=63 v=59
75720 On ch=10 n=70 v=86
75721 On ch=10 n=70 v=0
75721 On ch=10 n=63 v=0
75780 On ch=10 n=64 v=90
75780 On ch=10 n=70 v=38
75781 On ch=10 n=70 v=0
75781 On ch=10 n=64 v=0
75840 On ch=10 n=70 v=55
75841 On ch=10 n=70 v=0
75900 On ch=10 n=64 v=64
75900 On ch=10 n=70 v=41
75901 On ch=10 n=70 v=0
75901 On ch=10 n=64 v=0
75960 On ch=10 n=63 v=79
75960 On ch=10 n=70 v=82
75961 On ch=10 n=70 v=0
75961 On ch=10 n=63 v=0
76020 On ch=10 n=63 v=94
76020 On ch=10 n=70 v=34
76021 On ch=10 n=70 v=0
76021 On ch=10 n=63 v=0
76080 On ch=10 n=62 v=106
76080 On ch=10 n=70 v=59
76081 On ch=10 n=70 v=0
76081 On ch=10 n=62 v=0
76140 On ch=10 n=70 v=38
76141 On ch=10 n=70 v=0
76200 On ch=10 n=63 v=96
76200 On ch=10 n=70 v=77
76201 On ch=10 n=70 v=0
76201 On ch=10 n=63 v=0
76260 On ch=10 n=63 v=59
76260 On ch=10 n=70 v=34
76261 On ch=10 n=70 v=0
76261 On ch=10 n=63 v=0
76320 On ch=10 n=64 v=92
76320 On ch=10 n=70 v=59
76321 On ch=10 n=70 v=0
76321 On ch=10 n=64 v=0
76380 On ch=10 n=70 v=34
76381 On ch=10 n=70 v=0
76440 On ch=10 n=62 v=99
76440 On ch=10 n=70 v=82
76441 On ch=10 n=70 v=0
76441 On ch=10 n=62 v=0
76500 On ch=10 n=61 v=47
76500 On ch=10 n=70 v=34
76501 On ch=10 n=70 v=0
76501 On ch=10 n=61 v=0
76560 On ch=10 n=64 v=32
76560 On ch=10 n=70 v=53
76561 On ch=10 n=70 v=0
76561 On ch=10 n=64 v=0
76620 On ch=10 n=63 v=87
76620 On ch=10 n=70 v=47
76621 On ch=10 n=70 v=0
76621 On ch=10 n=63 v=0
76680 On ch=10 n=63 v=59
76680 On ch=10 n=70 v=86
76681 On ch=10 n=70 v=0
76681 On ch=10 n=63 v=0
76740 On ch=10 n=64 v=90
76740 On ch=10 n=70 v=38
76741 On ch=10 n=70 v=0
76741 On ch=10 n=64 v=0
76800 On ch=10 n=70 v=55
76801 On ch=10 n=70 v=0
76860 On ch=10 n=64 v=64
76860 On ch=10 n=70 v=41
76861 On ch=10 n=70 v=0
76861 On ch=10 n=64 v=0
76920 On ch=10 n=63 v=71
76920 On ch=10 n=70 v=82
76921 On ch=10 n=70 v=0
76921 On ch=10 n=63 v=0
76980 On ch=10 n=63 v=94
76980 On ch=10 n=70 v=34
76981 On ch=10 n=70 v=0
76981 On ch=10 n=63 v=0
77040 On ch=10 n=62 v=106
77040 On ch=10 n=70 v=59
77041 On ch=10 n=70 v=0
77041 On ch=10 n=62 v=0
77100 On ch=10 n=63 v=32
77100 On ch=10 n=70 v=38
77101 On ch=10 n=70 v=0
77101 On ch=10 n=63 v=0
77160 On ch=10 n=63 v=96
77160 On ch=10 n=70 v=77
77161 On ch=10 n=70 v=0
77161 On ch=10 n=63 v=0
77220 On ch=10 n=62 v=52
77220 On ch=10 n=70 v=34
77221 On ch=10 n=70 v=0
77221 On ch=10 n=62 v=0
77280 On ch=10 n=64 v=92
77280 On ch=10 n=70 v=59
77281 On ch=10 n=70 v=0
77281 On ch=10 n=64 v=0
77340 On ch=10 n=70 v=34
77341 On ch=10 n=70 v=0
77400 On ch=10 n=62 v=99
77400 On ch=10 n=70 v=82
77401 On ch=10 n=70 v=0
77401 On ch=10 n=62 v=0
77460 On ch=10 n=70 v=34
77461 On ch=10 n=70 v=0
77520 On ch=10 n=70 v=53
77521 On ch=10 n=70 v=0
77580 On ch=10 n=63 v=87
77580 On ch=10 n=70 v=47
77581 On ch=10 n=70 v=0
77581 On ch=10 n=63 v=0
77640 On ch=10 n=63 v=59
77640 On ch=10 n=70 v=86
77641 On ch=10 n=70 v=0
77641 On ch=10 n=63 v=0
77700 On ch=10 n=64 v=90
77700 On ch=10 n=70 v=38
77701 On ch=10 n=70 v=0
77701 On ch=10 n=64 v=0
77760 On ch=10 n=70 v=55
77761 On ch=10 n=70 v=0
77820 On ch=10 n=64 v=64
77820 On ch=10 n=70 v=41
77821 On ch=10 n=70 v=0
77821 On ch=10 n=64 v=0
77880 On ch=10 n=63 v=79
77880 On ch=10 n=70 v=82
77881 On ch=10 n=70 v=0
77881 On ch=10 n=63 v=0
77940 On ch=10 n=63 v=94
77940 On ch=10 n=70 v=34
77941 On ch=10 n=70 v=0
77941 On ch=10 n=63 v=0
78000 On ch=10 n=62 v=106
78000 On ch=10 n=70 v=59
78001 On ch=10 n=70 v=0
78001 On ch=10 n=62 v=0
78060 On ch=10 n=70 v=38
78061 On ch=10 n=70 v=0
78120 On ch=10 n=63 v=96
78120 On ch=10 n=70 v=77
78121 On ch=10 n=70 v=0
78121 On ch=10 n=63 v=0
78180 On ch=10 n=63 v=59
78180 On ch=10 n=70 v=34
78181 On ch=10 n=70 v=0
78181 On ch=10 n=63 v=0
78240 On ch=10 n=64 v=92
78240 On ch=10 n=70 v=59
78241 On ch=10 n=70 v=0
78241 On ch=10 n=64 v=0
78300 On ch=10 n=70 v=34
78301 On ch=10 n=70 v=0
78360 On ch=10 n=62 v=99
78360 On ch=10 n=70 v=82
78361 On ch=10 n=70 v=0
78361 On ch=10 n=62 v=0
78420 On ch=10 n=61 v=47
78420 On ch=10 n=70 v=34
78421 On ch=10 n=70 v=0
78421 On ch=10 n=61 v=0
78480 On ch=10 n=64 v=32
78480 On ch=10 n=70 v=53
78481 On ch=10 n=70 v=0
78481 On ch=10 n=64 v=0
78540 On ch=10 n=63 v=87
78540 On ch=10 n=70 v=47
78541 On ch=10 n=70 v=0
78541 On ch=10 n=63 v=0
78600 On ch=10 n=63 v=59
78600 On ch=10 n=70 v=86
78601 On ch=10 n=70 v=0
78601 On ch=10 n=63 v=0
78660 On ch=10 n=64 v=90
78660 On ch=10 n=70 v=38
78661 On ch=10 n=70 v=0
78661 On ch=10 n=64 v=0
78720 On ch=10 n=70 v=55
78721 On ch=10 n=70 v=0
78780 On ch=10 n=64 v=64
78780 On ch=10 n=70 v=41
78781 On ch=10 n=70 v=0
78781 On ch=10 n=64 v=0
78840 On ch=10 n=63 v=71
78840 On ch=10 n=70 v=82
78841 On ch=10 n=70 v=0
78841 On ch=10 n=63 v=0
78900 On ch=10 n=63 v=94
78900 On ch=10 n=70 v=34
78901 On ch=10 n=70 v=0
78901 On ch=10 n=63 v=0
78960 On ch=10 n=62 v=106
78960 On ch=10 n=70 v=59
78961 On ch=10 n=70 v=0
78961 On ch=10 n=62 v=0
79020 On ch=10 n=63 v=32
79020 On ch=10 n=70 v=38
79021 On ch=10 n=70 v=0
79021 On ch=10 n=63 v=0
79080 On ch=10 n=63 v=96
79080 On ch=10 n=70 v=77
79081 On ch=10 n=70 v=0
79081 On ch=10 n=63 v=0
79140 On ch=10 n=62 v=52
79140 On ch=10 n=70 v=34
79141 On ch=10 n=70 v=0
79141 On ch=10 n=62 v=0
79200 On ch=10 n=63 v=79
79200 On ch=10 n=70 v=86
79201 On ch=10 n=70 v=0
79201 On ch=10 n=63 v=0
79230 On ch=10 n=63 v=48
79231 On ch=10 n=63 v=0
79260 On ch=10 n=63 v=44
79261 On ch=10 n=63 v=0
79290 On ch=10 n=63 v=48
79291 On ch=10 n=63 v=0
79320 On ch=10 n=63 v=58
79321 On ch=10 n=63 v=0
79350 On ch=10 n=63 v=38
79351 On ch=10 n=63 v=0
79380 On ch=10 n=63 v=38
79381 On ch=10 n=63 v=0
79410 On ch=10 n=63 v=31
79411 On ch=10 n=63 v=0
79440 On ch=10 n=62 v=32
79441 On ch=10 n=62 v=0
79470 On ch=10 n=63 v=31
79471 On ch=10 n=63 v=0
79500 On ch=10 n=63 v=31
79501 On ch=10 n=63 v=0
79530 On ch=10 n=63 v=27
79531 On ch=10 n=63 v=0
79560 On ch=10 n=63 v=27
79561 On ch=10 n=63 v=0
79590 On ch=10 n=63 v=24
79700 On ch=10 n=63 v=0
79700 Meta TrkEnd
TrkEnd
