MFile 1 14 480
MTrk
0 TimeSig 4/4 24 8
0 KeySig 0 major
0 Tempo 638298
0 Meta TrkEnd
TrkEnd
MTrk
0 Meta 0x21 00
0 Meta TrkName "Pad 1 (new age)"
0 PrCh ch=1 p=88
0 Par ch=1 c=7 v=127
960 Par ch=1 c=93 v=64
960 On ch=1 n=68 v=102
1412 On ch=1 n=72 v=100
1444 On ch=1 n=68 v=0
1880 On ch=1 n=72 v=0
1880 On ch=1 n=73 v=95
2860 On ch=1 n=73 v=0
2864 On ch=1 n=70 v=89
3720 On ch=1 n=70 v=0
4808 On ch=1 n=75 v=110
5152 On ch=1 n=77 v=102
5168 On ch=1 n=75 v=0
5484 On ch=1 n=77 v=0
5484 On ch=1 n=78 v=98
5748 On ch=1 n=77 v=105
5780 On ch=1 n=78 v=0
6140 On ch=1 n=77 v=0
6140 On ch=1 n=73 v=100
6516 On ch=1 n=73 v=0
6520 On ch=1 n=70 v=98
7476 On ch=1 n=70 v=0
8656 On ch=1 n=75 v=116
8980 On ch=1 n=77 v=105
8988 On ch=1 n=75 v=0
9320 On ch=1 n=78 v=102
9324 On ch=1 n=77 v=0
9588 On ch=1 n=77 v=102
9620 On ch=1 n=78 v=0
9960 On ch=1 n=77 v=0
9960 On ch=1 n=73 v=93
10220 On ch=1 n=73 v=0
10292 On ch=1 n=73 v=85
10824 On ch=1 n=73 v=0
12488 On ch=1 n=70 v=110
12820 On ch=1 n=70 v=0
12828 On ch=1 n=68 v=102
13172 On ch=1 n=68 v=0
13184 On ch=1 n=66 v=102
13432 On ch=1 n=68 v=102
13460 On ch=1 n=66 v=0
13780 On ch=1 n=70 v=87
13788 On ch=1 n=68 v=0
13908 On ch=1 n=68 v=89
13932 On ch=1 n=70 v=0
14960 On ch=1 n=68 v=0
16336 On ch=1 n=72 v=105
16336 On ch=1 n=68 v=89
16780 On ch=1 n=72 v=0
16784 On ch=1 n=68 v=0
16824 On ch=1 n=75 v=100
16824 On ch=1 n=72 v=68
17220 On ch=1 n=75 v=0
17224 On ch=1 n=72 v=0
17244 On ch=1 n=68 v=93
17244 On ch=1 n=73 v=100
18204 On ch=1 n=73 v=0
18204 On ch=1 n=70 v=82
18208 On ch=1 n=68 v=0
18208 On ch=1 n=66 v=82
19004 On ch=1 n=66 v=0
19032 On ch=1 n=70 v=0
20160 On ch=1 n=72 v=89
20160 On ch=1 n=75 v=116
20500 On ch=1 n=72 v=0
20500 On ch=1 n=73 v=95
20504 On ch=1 n=77 v=105
20512 On ch=1 n=75 v=0
20800 On ch=1 n=73 v=0
20808 On ch=1 n=77 v=0
20812 On ch=1 n=75 v=93
20820 On ch=1 n=78 v=89
21080 On ch=1 n=78 v=0
21088 On ch=1 n=77 v=105
21100 On ch=1 n=73 v=89
21120 On ch=1 n=75 v=0
21412 On ch=1 n=73 v=0
21420 On ch=1 n=77 v=0
21432 On ch=1 n=72 v=80
21432 On ch=1 n=75 v=100
21752 On ch=1 n=75 v=0
21760 On ch=1 n=68 v=89
21764 On ch=1 n=72 v=0
21764 On ch=1 n=73 v=105
22000 On ch=1 n=68 v=0
22008 On ch=1 n=73 v=0
22024 On ch=1 n=70 v=91
22028 On ch=1 n=66 v=72
22860 On ch=1 n=66 v=0
22864 On ch=1 n=70 v=0
24004 On ch=1 n=72 v=98
24008 On ch=1 n=75 v=116
24320 On ch=1 n=77 v=105
24324 On ch=1 n=73 v=93
24332 On ch=1 n=72 v=0
24340 On ch=1 n=75 v=0
24632 On ch=1 n=73 v=0
24640 On ch=1 n=77 v=0
24648 On ch=1 n=78 v=102
24652 On ch=1 n=75 v=89
24920 On ch=1 n=77 v=100
24924 On ch=1 n=78 v=0
24928 On ch=1 n=73 v=85
24944 On ch=1 n=75 v=0
25224 On ch=1 n=77 v=0
25228 On ch=1 n=73 v=0
25264 On ch=1 n=68 v=80
25264 On ch=1 n=73 v=98
25532 On ch=1 n=73 v=0
25532 On ch=1 n=68 v=0
25604 On ch=1 n=73 v=95
25604 On ch=1 n=68 v=80
25928 On ch=1 n=68 v=0
25940 On ch=1 n=73 v=0
27848 On ch=1 n=70 v=107
27852 On ch=1 n=66 v=95
28164 On ch=1 n=66 v=0
28180 On ch=1 n=70 v=0
28180 On ch=1 n=65 v=85
28184 On ch=1 n=68 v=100
28512 On ch=1 n=65 v=0
28520 On ch=1 n=68 v=0
28528 On ch=1 n=63 v=85
28532 On ch=1 n=66 v=105
28752 On ch=1 n=63 v=0
28772 On ch=1 n=65 v=87
28780 On ch=1 n=68 v=89
28804 On ch=1 n=66 v=0
29128 On ch=1 n=68 v=0
29140 On ch=1 n=70 v=100
29144 On ch=1 n=65 v=0
29144 On ch=1 n=66 v=91
29232 On ch=1 n=66 v=0
29252 On ch=1 n=70 v=0
29260 On ch=1 n=68 v=91
29264 On ch=1 n=65 v=85
29904 On ch=1 n=68 v=0
29908 On ch=1 n=65 v=0
31192 On ch=1 n=66 v=105
31664 On ch=1 n=66 v=0
31672 On ch=1 n=65 v=100
32020 On ch=1 n=61 v=95
32044 On ch=1 n=65 v=0
32352 On ch=1 n=61 v=0
32380 On ch=1 n=63 v=98
32612 On ch=1 n=63 v=0
32620 On ch=1 n=61 v=98
33452 On ch=1 n=61 v=0
35984 On ch=1 n=68 v=102
36220 On ch=1 n=73 v=105
36288 On ch=1 n=68 v=0
36452 On ch=1 n=73 v=0
36480 On ch=1 n=72 v=100
37376 On ch=1 n=72 v=0
37920 On ch=1 n=68 v=107
38140 On ch=1 n=75 v=95
38152 On ch=1 n=68 v=0
38392 On ch=1 n=73 v=91
38408 On ch=1 n=75 v=0
38852 On ch=1 n=68 v=100
38872 On ch=1 n=73 v=0
39784 On ch=1 n=68 v=0
40312 On ch=1 n=78 v=116
40680 On ch=1 n=78 v=0
40692 On ch=1 n=77 v=102
41000 On ch=1 n=77 v=0
41020 On ch=1 n=73 v=102
41424 On ch=1 n=73 v=0
41440 On ch=1 n=70 v=102
41720 On ch=1 n=65 v=100
41752 On ch=1 n=70 v=0
41964 On ch=1 n=70 v=105
42028 On ch=1 n=65 v=0
42204 On ch=1 n=68 v=85
42208 On ch=1 n=70 v=0
43024 On ch=1 n=68 v=0
43680 On ch=1 n=68 v=107
43908 On ch=1 n=73 v=110
43948 On ch=1 n=68 v=0
44124 On ch=1 n=73 v=0
44144 On ch=1 n=72 v=98
44512 On ch=1 n=72 v=0
44516 On ch=1 n=70 v=95
44628 On ch=1 n=70 v=0
44652 On ch=1 n=72 v=102
44740 On ch=1 n=70 v=85
44772 On ch=1 n=72 v=0
44864 On ch=1 n=70 v=0
44864 On ch=1 n=68 v=89
45248 On ch=1 n=68 v=0
45624 On ch=1 n=68 v=107
45824 On ch=1 n=75 v=107
45868 On ch=1 n=68 v=0
46064 On ch=1 n=75 v=0
46064 On ch=1 n=73 v=98
46708 On ch=1 n=73 v=0
47988 On ch=1 n=78 v=119
48408 On ch=1 n=78 v=0
48420 On ch=1 n=77 v=100
48748 On ch=1 n=73 v=110
48752 On ch=1 n=77 v=0
49184 On ch=1 n=77 v=113
49192 On ch=1 n=73 v=0
49660 On ch=1 n=75 v=102
49708 On ch=1 n=77 v=0
49844 On ch=1 n=75 v=0
49908 On ch=1 n=75 v=105
50608 On ch=1 n=75 v=0
50844 On ch=1 n=73 v=105
50848 On ch=1 n=68 v=98
51192 On ch=1 n=68 v=0
51212 On ch=1 n=73 v=0
51340 On ch=1 n=68 v=91
51344 On ch=1 n=73 v=105
51684 On ch=1 n=68 v=0
51692 On ch=1 n=73 v=0
51820 On ch=1 n=68 v=93
51820 On ch=1 n=73 v=100
52764 On ch=1 n=70 v=82
52768 On ch=1 n=66 v=82
52780 On ch=1 n=73 v=0
52784 On ch=1 n=68 v=0
53564 On ch=1 n=66 v=0
53592 On ch=1 n=70 v=0
54720 On ch=1 n=72 v=89
54720 On ch=1 n=75 v=116
55060 On ch=1 n=72 v=0
55060 On ch=1 n=73 v=95
55064 On ch=1 n=77 v=105
55072 On ch=1 n=75 v=0
55360 On ch=1 n=73 v=0
55368 On ch=1 n=77 v=0
55372 On ch=1 n=75 v=93
55380 On ch=1 n=78 v=89
55640 On ch=1 n=78 v=0
55648 On ch=1 n=77 v=105
55660 On ch=1 n=73 v=89
55680 On ch=1 n=75 v=0
55972 On ch=1 n=73 v=0
55980 On ch=1 n=77 v=0
55992 On ch=1 n=72 v=80
55996 On ch=1 n=75 v=100
56312 On ch=1 n=75 v=0
56320 On ch=1 n=68 v=89
56324 On ch=1 n=72 v=0
56324 On ch=1 n=73 v=105
56560 On ch=1 n=68 v=0
56568 On ch=1 n=73 v=0
56584 On ch=1 n=70 v=91
56588 On ch=1 n=66 v=72
57420 On ch=1 n=66 v=0
57424 On ch=1 n=70 v=0
58564 On ch=1 n=72 v=98
58568 On ch=1 n=75 v=116
58880 On ch=1 n=77 v=105
58884 On ch=1 n=73 v=93
58892 On ch=1 n=72 v=0
58900 On ch=1 n=75 v=0
59192 On ch=1 n=73 v=0
59200 On ch=1 n=77 v=0
59208 On ch=1 n=78 v=102
59212 On ch=1 n=75 v=89
59480 On ch=1 n=77 v=100
59484 On ch=1 n=78 v=0
59488 On ch=1 n=73 v=85
59504 On ch=1 n=75 v=0
59784 On ch=1 n=77 v=0
59788 On ch=1 n=73 v=0
59824 On ch=1 n=68 v=80
59824 On ch=1 n=73 v=98
60092 On ch=1 n=73 v=0
60092 On ch=1 n=68 v=0
60164 On ch=1 n=73 v=95
60164 On ch=1 n=68 v=80
60488 On ch=1 n=68 v=0
60500 On ch=1 n=73 v=0
62408 On ch=1 n=70 v=107
62408 On ch=1 n=66 v=95
62724 On ch=1 n=66 v=0
62740 On ch=1 n=70 v=0
62740 On ch=1 n=65 v=85
62744 On ch=1 n=68 v=100
63072 On ch=1 n=65 v=0
63080 On ch=1 n=68 v=0
63088 On ch=1 n=63 v=85
63092 On ch=1 n=66 v=105
63312 On ch=1 n=63 v=0
63332 On ch=1 n=65 v=87
63340 On ch=1 n=68 v=89
63364 On ch=1 n=66 v=0
63688 On ch=1 n=68 v=0
63700 On ch=1 n=70 v=100
63704 On ch=1 n=65 v=0
63704 On ch=1 n=66 v=91
63792 On ch=1 n=66 v=0
63812 On ch=1 n=70 v=0
63820 On ch=1 n=68 v=91
63824 On ch=1 n=65 v=85
64464 On ch=1 n=68 v=0
64468 On ch=1 n=65 v=0
65752 On ch=1 n=66 v=105
66224 On ch=1 n=66 v=0
66232 On ch=1 n=65 v=100
66580 On ch=1 n=61 v=95
66604 On ch=1 n=65 v=0
66912 On ch=1 n=61 v=0
66940 On ch=1 n=63 v=98
67172 On ch=1 n=63 v=0
67180 On ch=1 n=61 v=98
68012 On ch=1 n=61 v=0
74384 On ch=1 n=68 v=102
74620 On ch=1 n=73 v=105
74688 On ch=1 n=68 v=0
74852 On ch=1 n=73 v=0
74880 On ch=1 n=72 v=100
75776 On ch=1 n=72 v=0
76320 On ch=1 n=68 v=107
76540 On ch=1 n=75 v=95
76552 On ch=1 n=68 v=0
76792 On ch=1 n=73 v=91
76812 On ch=1 n=75 v=0
77252 On ch=1 n=68 v=100
77272 On ch=1 n=73 v=0
78180 On ch=1 n=68 v=0
78712 On ch=1 n=78 v=116
79080 On ch=1 n=78 v=0
79092 On ch=1 n=77 v=102
79400 On ch=1 n=77 v=0
79420 On ch=1 n=73 v=102
79820 On ch=1 n=73 v=0
79840 On ch=1 n=70 v=102
80120 On ch=1 n=65 v=100
80152 On ch=1 n=70 v=0
80364 On ch=1 n=70 v=105
80428 On ch=1 n=65 v=0
80604 On ch=1 n=68 v=85
80608 On ch=1 n=70 v=0
81424 On ch=1 n=68 v=0
82080 On ch=1 n=68 v=107
82308 On ch=1 n=73 v=110
82348 On ch=1 n=68 v=0
82524 On ch=1 n=73 v=0
82544 On ch=1 n=72 v=98
82912 On ch=1 n=72 v=0
82916 On ch=1 n=70 v=95
83028 On ch=1 n=70 v=0
83052 On ch=1 n=72 v=102
83140 On ch=1 n=70 v=85
83172 On ch=1 n=72 v=0
83264 On ch=1 n=70 v=0
83264 On ch=1 n=68 v=89
83648 On ch=1 n=68 v=0
84024 On ch=1 n=68 v=107
84224 On ch=1 n=75 v=107
84268 On ch=1 n=68 v=0
84464 On ch=1 n=75 v=0
84464 On ch=1 n=73 v=98
85108 On ch=1 n=73 v=0
86388 On ch=1 n=78 v=119
86808 On ch=1 n=78 v=0
86820 On ch=1 n=77 v=100
87148 On ch=1 n=73 v=110
87152 On ch=1 n=77 v=0
87584 On ch=1 n=77 v=113
87592 On ch=1 n=73 v=0
88060 On ch=1 n=75 v=102
88108 On ch=1 n=77 v=0
88244 On ch=1 n=75 v=0
88308 On ch=1 n=75 v=105
89008 On ch=1 n=75 v=0
89244 On ch=1 n=73 v=105
89248 On ch=1 n=68 v=98
89592 On ch=1 n=68 v=0
89612 On ch=1 n=73 v=0
89740 On ch=1 n=68 v=91
89744 On ch=1 n=73 v=105
90084 On ch=1 n=68 v=0
90092 On ch=1 n=73 v=0
90220 On ch=1 n=68 v=93
90220 On ch=1 n=73 v=100
91164 On ch=1 n=70 v=82
91168 On ch=1 n=66 v=82
91180 On ch=1 n=73 v=0
91184 On ch=1 n=68 v=0
91964 On ch=1 n=66 v=0
91992 On ch=1 n=70 v=0
93120 On ch=1 n=72 v=89
93120 On ch=1 n=75 v=116
93460 On ch=1 n=72 v=0
93460 On ch=1 n=73 v=95
93464 On ch=1 n=77 v=105
93472 On ch=1 n=75 v=0
93760 On ch=1 n=73 v=0
93768 On ch=1 n=77 v=0
93772 On ch=1 n=75 v=93
93780 On ch=1 n=78 v=89
94040 On ch=1 n=78 v=0
94048 On ch=1 n=77 v=105
94060 On ch=1 n=73 v=89
94080 On ch=1 n=75 v=0
94372 On ch=1 n=73 v=0
94380 On ch=1 n=77 v=0
94392 On ch=1 n=72 v=80
94396 On ch=1 n=75 v=100
94712 On ch=1 n=75 v=0
94720 On ch=1 n=68 v=89
94724 On ch=1 n=72 v=0
94724 On ch=1 n=73 v=105
94960 On ch=1 n=68 v=0
94968 On ch=1 n=73 v=0
94984 On ch=1 n=70 v=91
94988 On ch=1 n=66 v=72
95820 On ch=1 n=66 v=0
95824 On ch=1 n=70 v=0
96964 On ch=1 n=72 v=98
96968 On ch=1 n=75 v=116
97280 On ch=1 n=77 v=105
97284 On ch=1 n=73 v=93
97292 On ch=1 n=72 v=0
97300 On ch=1 n=75 v=0
97592 On ch=1 n=73 v=0
97600 On ch=1 n=77 v=0
97608 On ch=1 n=78 v=102
97612 On ch=1 n=75 v=89
97880 On ch=1 n=77 v=100
97884 On ch=1 n=78 v=0
97888 On ch=1 n=73 v=85
97904 On ch=1 n=75 v=0
98184 On ch=1 n=77 v=0
98192 On ch=1 n=73 v=0
98224 On ch=1 n=68 v=80
98224 On ch=1 n=73 v=98
98492 On ch=1 n=73 v=0
98492 On ch=1 n=68 v=0
98564 On ch=1 n=73 v=95
98564 On ch=1 n=68 v=80
98888 On ch=1 n=68 v=0
98900 On ch=1 n=73 v=0
100808 On ch=1 n=70 v=107
100812 On ch=1 n=66 v=95
101124 On ch=1 n=66 v=0
101140 On ch=1 n=70 v=0
101140 On ch=1 n=65 v=85
101144 On ch=1 n=68 v=100
101472 On ch=1 n=65 v=0
101480 On ch=1 n=68 v=0
101488 On ch=1 n=63 v=85
101492 On ch=1 n=66 v=105
101712 On ch=1 n=63 v=0
101732 On ch=1 n=65 v=87
101740 On ch=1 n=68 v=89
101764 On ch=1 n=66 v=0
102088 On ch=1 n=68 v=0
102100 On ch=1 n=70 v=100
102104 On ch=1 n=65 v=0
102104 On ch=1 n=66 v=91
102192 On ch=1 n=66 v=0
102212 On ch=1 n=70 v=0
102220 On ch=1 n=68 v=91
102224 On ch=1 n=65 v=85
102864 On ch=1 n=68 v=0
102868 On ch=1 n=65 v=0
104152 On ch=1 n=66 v=105
104624 On ch=1 n=66 v=0
104632 On ch=1 n=65 v=100
104980 On ch=1 n=61 v=95
105004 On ch=1 n=65 v=0
105312 On ch=1 n=61 v=0
105340 On ch=1 n=63 v=98
105572 On ch=1 n=63 v=0
105580 On ch=1 n=61 v=98
106412 On ch=1 n=61 v=0
120012 On ch=1 n=72 v=105
120016 On ch=1 n=68 v=89
120460 On ch=1 n=72 v=0
120464 On ch=1 n=68 v=0
120504 On ch=1 n=75 v=100
120504 On ch=1 n=72 v=68
120900 On ch=1 n=75 v=0
120904 On ch=1 n=72 v=0
120924 On ch=1 n=68 v=93
120924 On ch=1 n=73 v=100
121884 On ch=1 n=73 v=0
121884 On ch=1 n=70 v=82
121888 On ch=1 n=68 v=0
121888 On ch=1 n=66 v=82
122684 On ch=1 n=66 v=0
122712 On ch=1 n=70 v=0
123840 On ch=1 n=72 v=89
123840 On ch=1 n=75 v=116
124180 On ch=1 n=72 v=0
124180 On ch=1 n=73 v=95
124184 On ch=1 n=77 v=105
124192 On ch=1 n=75 v=0
124480 On ch=1 n=73 v=0
124488 On ch=1 n=77 v=0
124492 On ch=1 n=75 v=93
124500 On ch=1 n=78 v=89
124760 On ch=1 n=78 v=0
124768 On ch=1 n=77 v=105
124780 On ch=1 n=73 v=89
124800 On ch=1 n=75 v=0
125092 On ch=1 n=73 v=0
125100 On ch=1 n=77 v=0
125112 On ch=1 n=72 v=80
125116 On ch=1 n=75 v=100
125432 On ch=1 n=75 v=0
125440 On ch=1 n=68 v=89
125444 On ch=1 n=72 v=0
125444 On ch=1 n=73 v=105
125680 On ch=1 n=68 v=0
125688 On ch=1 n=73 v=0
125704 On ch=1 n=70 v=91
125708 On ch=1 n=66 v=72
126540 On ch=1 n=66 v=0
126544 On ch=1 n=70 v=0
127684 On ch=1 n=72 v=98
127688 On ch=1 n=75 v=116
128000 On ch=1 n=77 v=105
128004 On ch=1 n=73 v=93
128012 On ch=1 n=72 v=0
128020 On ch=1 n=75 v=0
128312 On ch=1 n=73 v=0
128320 On ch=1 n=77 v=0
128328 On ch=1 n=78 v=102
128332 On ch=1 n=75 v=89
128600 On ch=1 n=77 v=100
128604 On ch=1 n=78 v=0
128608 On ch=1 n=73 v=85
128624 On ch=1 n=75 v=0
128904 On ch=1 n=77 v=0
128908 On ch=1 n=73 v=0
128944 On ch=1 n=68 v=80
128944 On ch=1 n=73 v=98
129212 On ch=1 n=73 v=0
129212 On ch=1 n=68 v=0
129284 On ch=1 n=73 v=95
129284 On ch=1 n=68 v=80
129608 On ch=1 n=68 v=0
129620 On ch=1 n=73 v=0
131528 On ch=1 n=70 v=107
131532 On ch=1 n=66 v=95
131844 On ch=1 n=66 v=0
131860 On ch=1 n=70 v=0
131860 On ch=1 n=65 v=85
131864 On ch=1 n=68 v=100
132192 On ch=1 n=65 v=0
132200 On ch=1 n=68 v=0
132208 On ch=1 n=63 v=85
132212 On ch=1 n=66 v=105
132432 On ch=1 n=63 v=0
132452 On ch=1 n=65 v=87
132460 On ch=1 n=68 v=89
132484 On ch=1 n=66 v=0
132808 On ch=1 n=68 v=0
132820 On ch=1 n=70 v=100
132824 On ch=1 n=65 v=0
132824 On ch=1 n=66 v=91
132912 On ch=1 n=66 v=0
132932 On ch=1 n=70 v=0
132940 On ch=1 n=68 v=91
132944 On ch=1 n=65 v=85
133584 On ch=1 n=68 v=0
133588 On ch=1 n=65 v=0
134872 On ch=1 n=66 v=105
135344 On ch=1 n=66 v=0
135352 On ch=1 n=65 v=100
135700 On ch=1 n=61 v=95
135724 On ch=1 n=65 v=0
136032 On ch=1 n=61 v=0
136060 On ch=1 n=63 v=98
136292 On ch=1 n=63 v=0
136300 On ch=1 n=61 v=98
137132 On ch=1 n=61 v=0
137132 Meta TrkEnd
TrkEnd
MTrk
0 Meta 0x21 00
0 Meta TrkName "Acoustic Bass"
0 PrCh ch=2 p=32
0 Par ch=2 c=7 v=127
1920 On ch=2 n=49 v=63
2192 On ch=2 n=49 v=0
2280 On ch=2 n=61 v=47
2344 On ch=2 n=61 v=0
2400 On ch=2 n=49 v=35
2544 On ch=2 n=49 v=0
2640 On ch=2 n=61 v=63
2740 On ch=2 n=61 v=0
2880 On ch=2 n=42 v=68
3180 On ch=2 n=42 v=0
3240 On ch=2 n=54 v=78
3308 On ch=2 n=54 v=0
3360 On ch=2 n=42 v=60
3520 On ch=2 n=42 v=0
3600 On ch=2 n=54 v=68
3700 On ch=2 n=54 v=0
3840 On ch=2 n=51 v=68
4144 On ch=2 n=51 v=0
4200 On ch=2 n=63 v=59
4260 On ch=2 n=63 v=0
4320 On ch=2 n=51 v=78
4508 On ch=2 n=51 v=0
4560 On ch=2 n=63 v=64
4652 On ch=2 n=63 v=0
4800 On ch=2 n=44 v=82
5092 On ch=2 n=44 v=0
5160 On ch=2 n=56 v=68
5248 On ch=2 n=56 v=0
5280 On ch=2 n=44 v=62
5444 On ch=2 n=44 v=0
5520 On ch=2 n=56 v=87
5644 On ch=2 n=56 v=0
5760 On ch=2 n=49 v=68
6068 On ch=2 n=49 v=0
6120 On ch=2 n=61 v=70
6184 On ch=2 n=61 v=0
6240 On ch=2 n=49 v=57
6480 On ch=2 n=61 v=76
6516 On ch=2 n=49 v=0
6592 On ch=2 n=61 v=0
6720 On ch=2 n=42 v=76
7024 On ch=2 n=42 v=0
7080 On ch=2 n=54 v=80
7164 On ch=2 n=54 v=0
7200 On ch=2 n=42 v=53
7420 On ch=2 n=42 v=0
7440 On ch=2 n=54 v=61
7572 On ch=2 n=54 v=0
7680 On ch=2 n=51 v=85
8040 On ch=2 n=63 v=64
8044 On ch=2 n=51 v=0
8128 On ch=2 n=63 v=0
8160 On ch=2 n=51 v=59
8400 On ch=2 n=63 v=64
8432 On ch=2 n=51 v=0
8532 On ch=2 n=63 v=0
8640 On ch=2 n=44 v=72
8972 On ch=2 n=44 v=0
9000 On ch=2 n=56 v=87
9120 On ch=2 n=54 v=68
9144 On ch=2 n=56 v=0
9280 On ch=2 n=54 v=0
9360 On ch=2 n=51 v=66
9524 On ch=2 n=51 v=0
9600 On ch=2 n=49 v=68
9900 On ch=2 n=49 v=0
9960 On ch=2 n=61 v=68
10048 On ch=2 n=61 v=0
10080 On ch=2 n=49 v=61
10320 On ch=2 n=61 v=76
10332 On ch=2 n=49 v=0
10460 On ch=2 n=61 v=0
10560 On ch=2 n=42 v=60
10900 On ch=2 n=42 v=0
10920 On ch=2 n=54 v=70
11000 On ch=2 n=54 v=0
11040 On ch=2 n=42 v=70
11240 On ch=2 n=42 v=0
11280 On ch=2 n=54 v=74
11428 On ch=2 n=54 v=0
11520 On ch=2 n=51 v=64
11880 On ch=2 n=63 v=80
11900 On ch=2 n=51 v=0
11960 On ch=2 n=63 v=0
12000 On ch=2 n=51 v=68
12240 On ch=2 n=63 v=76
12316 On ch=2 n=51 v=0
12340 On ch=2 n=63 v=0
12480 On ch=2 n=44 v=61
12840 On ch=2 n=44 v=0
12840 On ch=2 n=56 v=72
12924 On ch=2 n=56 v=0
12960 On ch=2 n=44 v=59
13180 On ch=2 n=44 v=0
13200 On ch=2 n=56 v=66
13352 On ch=2 n=56 v=0
13440 On ch=2 n=44 v=63
13800 On ch=2 n=56 v=70
13812 On ch=2 n=44 v=0
13884 On ch=2 n=56 v=0
13920 On ch=2 n=44 v=66
14160 On ch=2 n=44 v=0
14160 On ch=2 n=56 v=70
14288 On ch=2 n=56 v=0
14400 On ch=2 n=44 v=63
14760 On ch=2 n=56 v=74
14792 On ch=2 n=44 v=0
14872 On ch=2 n=56 v=0
14880 On ch=2 n=54 v=62
15068 On ch=2 n=54 v=0
15120 On ch=2 n=51 v=70
15312 On ch=2 n=51 v=0
15360 On ch=2 n=42 v=80
15688 On ch=2 n=42 v=0
15720 On ch=2 n=54 v=72
15828 On ch=2 n=54 v=0
15840 On ch=2 n=52 v=76
15992 On ch=2 n=52 v=0
16080 On ch=2 n=54 v=61
16304 On ch=2 n=54 v=0
16320 On ch=2 n=44 v=68
16680 On ch=2 n=56 v=68
16744 On ch=2 n=44 v=0
16784 On ch=2 n=56 v=0
16800 On ch=2 n=54 v=63
17000 On ch=2 n=54 v=0
17040 On ch=2 n=51 v=66
17268 On ch=2 n=51 v=0
17280 On ch=2 n=49 v=63
17556 On ch=2 n=49 v=0
17640 On ch=2 n=61 v=47
17704 On ch=2 n=61 v=0
17760 On ch=2 n=49 v=35
17904 On ch=2 n=49 v=0
18000 On ch=2 n=61 v=63
18100 On ch=2 n=61 v=0
18240 On ch=2 n=42 v=68
18540 On ch=2 n=42 v=0
18600 On ch=2 n=54 v=78
18668 On ch=2 n=54 v=0
18720 On ch=2 n=42 v=60
18880 On ch=2 n=42 v=0
18960 On ch=2 n=54 v=68
19060 On ch=2 n=54 v=0
19200 On ch=2 n=51 v=68
19504 On ch=2 n=51 v=0
19560 On ch=2 n=63 v=59
19620 On ch=2 n=63 v=0
19680 On ch=2 n=51 v=78
19868 On ch=2 n=51 v=0
19920 On ch=2 n=63 v=64
20012 On ch=2 n=63 v=0
20160 On ch=2 n=44 v=82
20452 On ch=2 n=44 v=0
20520 On ch=2 n=56 v=68
20608 On ch=2 n=56 v=0
20640 On ch=2 n=44 v=62
20804 On ch=2 n=44 v=0
20880 On ch=2 n=56 v=87
21004 On ch=2 n=56 v=0
21120 On ch=2 n=49 v=68
21428 On ch=2 n=49 v=0
21480 On ch=2 n=61 v=70
21544 On ch=2 n=61 v=0
21600 On ch=2 n=49 v=57
21840 On ch=2 n=61 v=76
21872 On ch=2 n=49 v=0
21952 On ch=2 n=61 v=0
22080 On ch=2 n=42 v=76
22384 On ch=2 n=42 v=0
22440 On ch=2 n=54 v=80
22524 On ch=2 n=54 v=0
22560 On ch=2 n=42 v=53
22780 On ch=2 n=42 v=0
22800 On ch=2 n=54 v=61
22932 On ch=2 n=54 v=0
23040 On ch=2 n=51 v=85
23400 On ch=2 n=63 v=64
23404 On ch=2 n=51 v=0
23488 On ch=2 n=63 v=0
23520 On ch=2 n=51 v=59
23760 On ch=2 n=63 v=64
23792 On ch=2 n=51 v=0
23892 On ch=2 n=63 v=0
24000 On ch=2 n=44 v=72
24336 On ch=2 n=44 v=0
24360 On ch=2 n=56 v=87
24480 On ch=2 n=54 v=68
24504 On ch=2 n=56 v=0
24640 On ch=2 n=54 v=0
24720 On ch=2 n=51 v=66
24884 On ch=2 n=51 v=0
24960 On ch=2 n=49 v=68
25260 On ch=2 n=49 v=0
25320 On ch=2 n=61 v=68
25408 On ch=2 n=61 v=0
25440 On ch=2 n=49 v=61
25680 On ch=2 n=61 v=76
25692 On ch=2 n=49 v=0
25820 On ch=2 n=61 v=0
25920 On ch=2 n=42 v=60
26260 On ch=2 n=42 v=0
26280 On ch=2 n=54 v=70
26360 On ch=2 n=54 v=0
26400 On ch=2 n=42 v=70
26600 On ch=2 n=42 v=0
26640 On ch=2 n=54 v=74
26788 On ch=2 n=54 v=0
26880 On ch=2 n=51 v=64
27240 On ch=2 n=63 v=80
27260 On ch=2 n=51 v=0
27320 On ch=2 n=63 v=0
27360 On ch=2 n=51 v=68
27600 On ch=2 n=63 v=76
27672 On ch=2 n=51 v=0
27700 On ch=2 n=63 v=0
27840 On ch=2 n=44 v=61
28200 On ch=2 n=44 v=0
28200 On ch=2 n=56 v=72
28284 On ch=2 n=56 v=0
28320 On ch=2 n=44 v=59
28540 On ch=2 n=44 v=0
28560 On ch=2 n=56 v=66
28712 On ch=2 n=56 v=0
28800 On ch=2 n=44 v=63
29160 On ch=2 n=56 v=70
29172 On ch=2 n=44 v=0
29244 On ch=2 n=56 v=0
29280 On ch=2 n=44 v=66
29520 On ch=2 n=44 v=0
29520 On ch=2 n=56 v=70
29648 On ch=2 n=56 v=0
29760 On ch=2 n=44 v=63
30120 On ch=2 n=56 v=74
30152 On ch=2 n=44 v=0
30232 On ch=2 n=56 v=0
30240 On ch=2 n=54 v=62
30428 On ch=2 n=54 v=0
30480 On ch=2 n=51 v=70
30672 On ch=2 n=51 v=0
30720 On ch=2 n=42 v=80
31048 On ch=2 n=42 v=0
31080 On ch=2 n=54 v=72
31188 On ch=2 n=54 v=0
31200 On ch=2 n=52 v=76
31352 On ch=2 n=52 v=0
31440 On ch=2 n=54 v=61
31664 On ch=2 n=54 v=0
31680 On ch=2 n=44 v=68
32040 On ch=2 n=56 v=68
32104 On ch=2 n=44 v=0
32144 On ch=2 n=56 v=0
32160 On ch=2 n=54 v=63
32360 On ch=2 n=54 v=0
32400 On ch=2 n=51 v=66
32628 On ch=2 n=51 v=0
32632 On ch=2 n=49 v=63
32908 On ch=2 n=49 v=0
33000 On ch=2 n=61 v=47
33064 On ch=2 n=61 v=0
33120 On ch=2 n=49 v=35
33264 On ch=2 n=49 v=0
33360 On ch=2 n=61 v=63
33460 On ch=2 n=61 v=0
33600 On ch=2 n=42 v=68
33900 On ch=2 n=42 v=0
33960 On ch=2 n=54 v=78
34028 On ch=2 n=54 v=0
34080 On ch=2 n=42 v=60
34240 On ch=2 n=42 v=0
34320 On ch=2 n=54 v=68
34420 On ch=2 n=54 v=0
34560 On ch=2 n=51 v=68
34864 On ch=2 n=51 v=0
34920 On ch=2 n=63 v=59
34980 On ch=2 n=63 v=0
35040 On ch=2 n=51 v=78
35228 On ch=2 n=51 v=0
35280 On ch=2 n=63 v=64
35372 On ch=2 n=63 v=0
35520 On ch=2 n=44 v=82
35812 On ch=2 n=44 v=0
35880 On ch=2 n=56 v=68
35968 On ch=2 n=56 v=0
36000 On ch=2 n=44 v=62
36164 On ch=2 n=44 v=0
36240 On ch=2 n=56 v=87
36364 On ch=2 n=56 v=0
36480 On ch=2 n=44 v=89
36840 On ch=2 n=56 v=95
36844 On ch=2 n=44 v=0
36960 On ch=2 n=54 v=82
36984 On ch=2 n=56 v=0
37108 On ch=2 n=54 v=0
37200 On ch=2 n=51 v=70
37372 On ch=2 n=51 v=0
37440 On ch=2 n=44 v=85
37764 On ch=2 n=44 v=0
37800 On ch=2 n=56 v=85
37888 On ch=2 n=56 v=0
37920 On ch=2 n=44 v=80
38100 On ch=2 n=44 v=0
38160 On ch=2 n=56 v=89
38292 On ch=2 n=56 v=0
38400 On ch=2 n=49 v=82
38760 On ch=2 n=61 v=80
38812 On ch=2 n=49 v=0
38880 On ch=2 n=59 v=85
38892 On ch=2 n=61 v=0
39048 On ch=2 n=59 v=0
39120 On ch=2 n=56 v=66
39308 On ch=2 n=56 v=0
39360 On ch=2 n=49 v=78
39692 On ch=2 n=49 v=0
39720 On ch=2 n=61 v=78
39792 On ch=2 n=61 v=0
39840 On ch=2 n=49 v=68
40080 On ch=2 n=61 v=80
40188 On ch=2 n=49 v=0
40220 On ch=2 n=61 v=0
40320 On ch=2 n=42 v=82
40628 On ch=2 n=42 v=0
40680 On ch=2 n=54 v=102
40752 On ch=2 n=54 v=0
40800 On ch=2 n=42 v=70
41004 On ch=2 n=42 v=0
41040 On ch=2 n=54 v=102
41164 On ch=2 n=54 v=0
41280 On ch=2 n=42 v=58
41584 On ch=2 n=42 v=0
41640 On ch=2 n=54 v=102
41688 On ch=2 n=54 v=0
41760 On ch=2 n=42 v=64
41968 On ch=2 n=42 v=0
42000 On ch=2 n=54 v=89
42188 On ch=2 n=54 v=0
42240 On ch=2 n=49 v=78
42544 On ch=2 n=49 v=0
42600 On ch=2 n=61 v=107
42664 On ch=2 n=61 v=0
42720 On ch=2 n=49 v=66
42920 On ch=2 n=49 v=0
42960 On ch=2 n=61 v=82
43080 On ch=2 n=61 v=0
43200 On ch=2 n=49 v=74
43560 On ch=2 n=61 v=91
43644 On ch=2 n=49 v=0
43680 On ch=2 n=59 v=72
43704 On ch=2 n=61 v=0
43832 On ch=2 n=59 v=0
43920 On ch=2 n=56 v=87
44068 On ch=2 n=56 v=0
44160 On ch=2 n=44 v=70
44488 On ch=2 n=44 v=0
44520 On ch=2 n=56 v=93
44604 On ch=2 n=56 v=0
44640 On ch=2 n=44 v=74
44808 On ch=2 n=44 v=0
44880 On ch=2 n=56 v=62
44992 On ch=2 n=56 v=0
45120 On ch=2 n=44 v=60
45428 On ch=2 n=44 v=0
45480 On ch=2 n=56 v=89
45552 On ch=2 n=56 v=0
45600 On ch=2 n=44 v=66
45800 On ch=2 n=44 v=0
45840 On ch=2 n=56 v=70
45988 On ch=2 n=56 v=0
46080 On ch=2 n=49 v=82
46404 On ch=2 n=49 v=0
46440 On ch=2 n=61 v=98
46500 On ch=2 n=61 v=0
46560 On ch=2 n=49 v=74
46752 On ch=2 n=49 v=0
46800 On ch=2 n=61 v=102
46848 On ch=2 n=61 v=0
46920 On ch=2 n=61 v=62
47000 On ch=2 n=61 v=0
47040 On ch=2 n=49 v=82
47228 On ch=2 n=49 v=0
47280 On ch=2 n=61 v=98
47344 On ch=2 n=61 v=0
47400 On ch=2 n=61 v=72
47472 On ch=2 n=61 v=0
47520 On ch=2 n=49 v=72
47728 On ch=2 n=49 v=0
47760 On ch=2 n=61 v=100
47860 On ch=2 n=61 v=0
48000 On ch=2 n=42 v=98
48332 On ch=2 n=42 v=0
48360 On ch=2 n=54 v=105
48404 On ch=2 n=54 v=0
48480 On ch=2 n=42 v=74
48652 On ch=2 n=42 v=0
48720 On ch=2 n=54 v=100
48844 On ch=2 n=54 v=0
48960 On ch=2 n=42 v=64
49268 On ch=2 n=42 v=0
49320 On ch=2 n=54 v=102
49400 On ch=2 n=54 v=0
49440 On ch=2 n=42 v=74
49660 On ch=2 n=42 v=0
49680 On ch=2 n=54 v=95
49852 On ch=2 n=54 v=0
49920 On ch=2 n=44 v=76
50268 On ch=2 n=44 v=0
50280 On ch=2 n=56 v=91
50380 On ch=2 n=56 v=0
50400 On ch=2 n=54 v=80
50512 On ch=2 n=54 v=0
50640 On ch=2 n=51 v=89
50820 On ch=2 n=51 v=0
50880 On ch=2 n=44 v=91
51208 On ch=2 n=44 v=0
51240 On ch=2 n=56 v=100
51304 On ch=2 n=56 v=0
51360 On ch=2 n=56 v=107
51360 Pb ch=2 v=9598
51480 Pb ch=2 v=16051
51600 Pb ch=2 v=8192
51760 On ch=2 n=56 v=0
51832 On ch=2 n=49 v=63
52108 On ch=2 n=49 v=0
52200 On ch=2 n=61 v=47
52264 On ch=2 n=61 v=0
52320 On ch=2 n=49 v=35
52464 On ch=2 n=49 v=0
52560 On ch=2 n=61 v=63
52660 On ch=2 n=61 v=0
52800 On ch=2 n=42 v=68
53100 On ch=2 n=42 v=0
53160 On ch=2 n=54 v=78
53228 On ch=2 n=54 v=0
53280 On ch=2 n=42 v=60
53440 On ch=2 n=42 v=0
53520 On ch=2 n=54 v=68
53620 On ch=2 n=54 v=0
53760 On ch=2 n=51 v=68
54064 On ch=2 n=51 v=0
54120 On ch=2 n=63 v=59
54180 On ch=2 n=63 v=0
54240 On ch=2 n=51 v=78
54428 On ch=2 n=51 v=0
54480 On ch=2 n=63 v=64
54572 On ch=2 n=63 v=0
54720 On ch=2 n=44 v=82
55012 On ch=2 n=44 v=0
55080 On ch=2 n=56 v=68
55168 On ch=2 n=56 v=0
55200 On ch=2 n=44 v=62
55364 On ch=2 n=44 v=0
55440 On ch=2 n=56 v=87
55564 On ch=2 n=56 v=0
55680 On ch=2 n=49 v=68
55988 On ch=2 n=49 v=0
56040 On ch=2 n=61 v=70
56104 On ch=2 n=61 v=0
56160 On ch=2 n=49 v=57
56400 On ch=2 n=61 v=76
56436 On ch=2 n=49 v=0
56512 On ch=2 n=61 v=0
56640 On ch=2 n=42 v=76
56944 On ch=2 n=42 v=0
57000 On ch=2 n=54 v=80
57084 On ch=2 n=54 v=0
57120 On ch=2 n=42 v=53
57340 On ch=2 n=42 v=0
57360 On ch=2 n=54 v=61
57492 On ch=2 n=54 v=0
57600 On ch=2 n=51 v=85
57960 On ch=2 n=63 v=64
57964 On ch=2 n=51 v=0
58048 On ch=2 n=63 v=0
58080 On ch=2 n=51 v=59
58320 On ch=2 n=63 v=64
58352 On ch=2 n=51 v=0
58452 On ch=2 n=63 v=0
58560 On ch=2 n=44 v=72
58892 On ch=2 n=44 v=0
58920 On ch=2 n=56 v=87
59040 On ch=2 n=54 v=68
59064 On ch=2 n=56 v=0
59200 On ch=2 n=54 v=0
59280 On ch=2 n=51 v=66
59444 On ch=2 n=51 v=0
59520 On ch=2 n=49 v=68
59820 On ch=2 n=49 v=0
59880 On ch=2 n=61 v=68
59968 On ch=2 n=61 v=0
60000 On ch=2 n=49 v=61
60240 On ch=2 n=61 v=76
60252 On ch=2 n=49 v=0
60380 On ch=2 n=61 v=0
60480 On ch=2 n=42 v=60
60820 On ch=2 n=42 v=0
60840 On ch=2 n=54 v=70
60920 On ch=2 n=54 v=0
60960 On ch=2 n=42 v=70
61160 On ch=2 n=42 v=0
61200 On ch=2 n=54 v=74
61348 On ch=2 n=54 v=0
61440 On ch=2 n=51 v=64
61800 On ch=2 n=63 v=80
61820 On ch=2 n=51 v=0
61880 On ch=2 n=63 v=0
61920 On ch=2 n=51 v=68
62160 On ch=2 n=63 v=76
62236 On ch=2 n=51 v=0
62260 On ch=2 n=63 v=0
62400 On ch=2 n=44 v=61
62760 On ch=2 n=44 v=0
62760 On ch=2 n=56 v=72
62844 On ch=2 n=56 v=0
62880 On ch=2 n=44 v=59
63100 On ch=2 n=44 v=0
63120 On ch=2 n=56 v=66
63272 On ch=2 n=56 v=0
63360 On ch=2 n=44 v=63
63720 On ch=2 n=56 v=70
63732 On ch=2 n=44 v=0
63804 On ch=2 n=56 v=0
63840 On ch=2 n=44 v=66
64080 On ch=2 n=44 v=0
64080 On ch=2 n=56 v=70
64208 On ch=2 n=56 v=0
64320 On ch=2 n=44 v=63
64680 On ch=2 n=56 v=74
64712 On ch=2 n=44 v=0
64792 On ch=2 n=56 v=0
64800 On ch=2 n=54 v=62
64988 On ch=2 n=54 v=0
65040 On ch=2 n=51 v=70
65232 On ch=2 n=51 v=0
65280 On ch=2 n=42 v=80
65608 On ch=2 n=42 v=0
65640 On ch=2 n=54 v=72
65748 On ch=2 n=54 v=0
65760 On ch=2 n=52 v=76
65912 On ch=2 n=52 v=0
66000 On ch=2 n=54 v=61
66224 On ch=2 n=54 v=0
66240 On ch=2 n=44 v=68
66600 On ch=2 n=56 v=68
66664 On ch=2 n=44 v=0
66704 On ch=2 n=56 v=0
66720 On ch=2 n=54 v=63
66920 On ch=2 n=54 v=0
66960 On ch=2 n=51 v=66
67188 On ch=2 n=51 v=0
67192 On ch=2 n=49 v=63
67196 On ch=2 n=49 v=0
67196 On ch=2 n=49 v=63
67468 On ch=2 n=49 v=0
67560 On ch=2 n=61 v=47
67624 On ch=2 n=61 v=0
67680 On ch=2 n=49 v=35
67824 On ch=2 n=49 v=0
67920 On ch=2 n=61 v=63
68020 On ch=2 n=61 v=0
68160 On ch=2 n=42 v=68
68460 On ch=2 n=42 v=0
68520 On ch=2 n=54 v=78
68588 On ch=2 n=54 v=0
68640 On ch=2 n=42 v=60
68800 On ch=2 n=42 v=0
68880 On ch=2 n=54 v=68
68980 On ch=2 n=54 v=0
69120 On ch=2 n=51 v=68
69424 On ch=2 n=51 v=0
69480 On ch=2 n=63 v=59
69540 On ch=2 n=63 v=0
69600 On ch=2 n=51 v=78
69788 On ch=2 n=51 v=0
69840 On ch=2 n=63 v=64
69932 On ch=2 n=63 v=0
70080 On ch=2 n=44 v=82
70372 On ch=2 n=44 v=0
70440 On ch=2 n=56 v=68
70528 On ch=2 n=56 v=0
70560 On ch=2 n=44 v=62
70724 On ch=2 n=44 v=0
70800 On ch=2 n=56 v=87
70924 On ch=2 n=56 v=0
71040 On ch=2 n=49 v=63
71312 On ch=2 n=49 v=0
71400 On ch=2 n=61 v=47
71464 On ch=2 n=61 v=0
71520 On ch=2 n=49 v=35
71664 On ch=2 n=49 v=0
71760 On ch=2 n=61 v=63
71860 On ch=2 n=61 v=0
72000 On ch=2 n=42 v=68
72300 On ch=2 n=42 v=0
72360 On ch=2 n=54 v=78
72428 On ch=2 n=54 v=0
72480 On ch=2 n=42 v=60
72640 On ch=2 n=42 v=0
72720 On ch=2 n=54 v=68
72820 On ch=2 n=54 v=0
72960 On ch=2 n=51 v=68
73264 On ch=2 n=51 v=0
73320 On ch=2 n=63 v=59
73380 On ch=2 n=63 v=0
73440 On ch=2 n=51 v=78
73628 On ch=2 n=51 v=0
73680 On ch=2 n=63 v=64
73772 On ch=2 n=63 v=0
73920 On ch=2 n=44 v=82
74212 On ch=2 n=44 v=0
74280 On ch=2 n=56 v=68
74368 On ch=2 n=56 v=0
74400 On ch=2 n=44 v=62
74564 On ch=2 n=44 v=0
74640 On ch=2 n=56 v=87
74764 On ch=2 n=56 v=0
74880 On ch=2 n=44 v=89
75240 On ch=2 n=56 v=95
75244 On ch=2 n=44 v=0
75360 On ch=2 n=54 v=82
75384 On ch=2 n=56 v=0
75508 On ch=2 n=54 v=0
75600 On ch=2 n=51 v=70
75772 On ch=2 n=51 v=0
75840 On ch=2 n=44 v=85
76180 On ch=2 n=44 v=0
76200 On ch=2 n=56 v=85
76284 On ch=2 n=56 v=0
76320 On ch=2 n=44 v=80
76500 On ch=2 n=44 v=0
76560 On ch=2 n=56 v=89
76692 On ch=2 n=56 v=0
76800 On ch=2 n=49 v=82
77160 On ch=2 n=61 v=80
77212 On ch=2 n=49 v=0
77280 On ch=2 n=59 v=85
77292 On ch=2 n=61 v=0
77444 On ch=2 n=59 v=0
77520 On ch=2 n=56 v=66
77704 On ch=2 n=56 v=0
77760 On ch=2 n=49 v=78
78092 On ch=2 n=49 v=0
78120 On ch=2 n=61 v=78
78192 On ch=2 n=61 v=0
78240 On ch=2 n=49 v=68
78480 On ch=2 n=61 v=80
78588 On ch=2 n=49 v=0
78620 On ch=2 n=61 v=0
78720 On ch=2 n=42 v=82
79028 On ch=2 n=42 v=0
79080 On ch=2 n=54 v=102
79152 On ch=2 n=54 v=0
79200 On ch=2 n=42 v=70
79404 On ch=2 n=42 v=0
79440 On ch=2 n=54 v=102
79564 On ch=2 n=54 v=0
79680 On ch=2 n=42 v=58
79984 On ch=2 n=42 v=0
80040 On ch=2 n=54 v=102
80088 On ch=2 n=54 v=0
80160 On ch=2 n=42 v=64
80368 On ch=2 n=42 v=0
80400 On ch=2 n=54 v=89
80588 On ch=2 n=54 v=0
80640 On ch=2 n=49 v=78
80944 On ch=2 n=49 v=0
81000 On ch=2 n=61 v=107
81064 On ch=2 n=61 v=0
81120 On ch=2 n=49 v=66
81320 On ch=2 n=49 v=0
81360 On ch=2 n=61 v=82
81480 On ch=2 n=61 v=0
81600 On ch=2 n=49 v=74
81960 On ch=2 n=61 v=91
82044 On ch=2 n=49 v=0
82080 On ch=2 n=59 v=72
82104 On ch=2 n=61 v=0
82232 On ch=2 n=59 v=0
82320 On ch=2 n=56 v=87
82468 On ch=2 n=56 v=0
82560 On ch=2 n=44 v=70
82888 On ch=2 n=44 v=0
82920 On ch=2 n=56 v=93
83004 On ch=2 n=56 v=0
83040 On ch=2 n=44 v=74
83208 On ch=2 n=44 v=0
83280 On ch=2 n=56 v=62
83392 On ch=2 n=56 v=0
83520 On ch=2 n=44 v=60
83828 On ch=2 n=44 v=0
83880 On ch=2 n=56 v=89
83952 On ch=2 n=56 v=0
84000 On ch=2 n=44 v=66
84200 On ch=2 n=44 v=0
84240 On ch=2 n=56 v=70
84388 On ch=2 n=56 v=0
84480 On ch=2 n=49 v=82
84804 On ch=2 n=49 v=0
84840 On ch=2 n=61 v=98
84900 On ch=2 n=61 v=0
84960 On ch=2 n=49 v=74
85152 On ch=2 n=49 v=0
85200 On ch=2 n=61 v=102
85248 On ch=2 n=61 v=0
85320 On ch=2 n=61 v=62
85400 On ch=2 n=61 v=0
85440 On ch=2 n=49 v=82
85628 On ch=2 n=49 v=0
85680 On ch=2 n=61 v=98
85744 On ch=2 n=61 v=0
85800 On ch=2 n=61 v=72
85872 On ch=2 n=61 v=0
85920 On ch=2 n=49 v=72
86128 On ch=2 n=49 v=0
86160 On ch=2 n=61 v=100
86260 On ch=2 n=61 v=0
86400 On ch=2 n=42 v=98
86732 On ch=2 n=42 v=0
86760 On ch=2 n=54 v=105
86804 On ch=2 n=54 v=0
86880 On ch=2 n=42 v=74
87052 On ch=2 n=42 v=0
87120 On ch=2 n=54 v=100
87244 On ch=2 n=54 v=0
87360 On ch=2 n=42 v=64
87668 On ch=2 n=42 v=0
87720 On ch=2 n=54 v=102
87800 On ch=2 n=54 v=0
87840 On ch=2 n=42 v=74
88060 On ch=2 n=42 v=0
88080 On ch=2 n=54 v=95
88252 On ch=2 n=54 v=0
88320 On ch=2 n=44 v=76
88668 On ch=2 n=44 v=0
88680 On ch=2 n=56 v=91
88780 On ch=2 n=56 v=0
88800 On ch=2 n=54 v=80
88912 On ch=2 n=54 v=0
89040 On ch=2 n=51 v=89
89220 On ch=2 n=51 v=0
89280 On ch=2 n=44 v=91
89608 On ch=2 n=44 v=0
89640 On ch=2 n=56 v=100
89704 On ch=2 n=56 v=0
89760 On ch=2 n=56 v=107
89760 Pb ch=2 v=9598
89880 Pb ch=2 v=16051
90000 Pb ch=2 v=8192
90160 On ch=2 n=56 v=0
90232 On ch=2 n=49 v=63
90508 On ch=2 n=49 v=0
90600 On ch=2 n=61 v=47
90664 On ch=2 n=61 v=0
90720 On ch=2 n=49 v=35
90864 On ch=2 n=49 v=0
90960 On ch=2 n=61 v=63
91060 On ch=2 n=61 v=0
91200 On ch=2 n=42 v=68
91500 On ch=2 n=42 v=0
91560 On ch=2 n=54 v=78
91628 On ch=2 n=54 v=0
91680 On ch=2 n=42 v=60
91840 On ch=2 n=42 v=0
91920 On ch=2 n=54 v=68
92020 On ch=2 n=54 v=0
92160 On ch=2 n=51 v=68
92464 On ch=2 n=51 v=0
92520 On ch=2 n=63 v=59
92580 On ch=2 n=63 v=0
92640 On ch=2 n=51 v=78
92828 On ch=2 n=51 v=0
92880 On ch=2 n=63 v=64
92972 On ch=2 n=63 v=0
93120 On ch=2 n=44 v=82
93412 On ch=2 n=44 v=0
93480 On ch=2 n=56 v=68
93568 On ch=2 n=56 v=0
93600 On ch=2 n=44 v=62
93764 On ch=2 n=44 v=0
93840 On ch=2 n=56 v=87
93964 On ch=2 n=56 v=0
94080 On ch=2 n=49 v=68
94388 On ch=2 n=49 v=0
94440 On ch=2 n=61 v=70
94504 On ch=2 n=61 v=0
94560 On ch=2 n=49 v=57
94800 On ch=2 n=61 v=76
94832 On ch=2 n=49 v=0
94912 On ch=2 n=61 v=0
95040 On ch=2 n=42 v=76
95344 On ch=2 n=42 v=0
95400 On ch=2 n=54 v=80
95484 On ch=2 n=54 v=0
95520 On ch=2 n=42 v=53
95740 On ch=2 n=42 v=0
95760 On ch=2 n=54 v=61
95892 On ch=2 n=54 v=0
96000 On ch=2 n=51 v=85
96360 On ch=2 n=63 v=64
96364 On ch=2 n=51 v=0
96448 On ch=2 n=63 v=0
96480 On ch=2 n=51 v=59
96720 On ch=2 n=63 v=64
96752 On ch=2 n=51 v=0
96852 On ch=2 n=63 v=0
96960 On ch=2 n=44 v=72
97296 On ch=2 n=44 v=0
97320 On ch=2 n=56 v=87
97440 On ch=2 n=54 v=68
97464 On ch=2 n=56 v=0
97600 On ch=2 n=54 v=0
97680 On ch=2 n=51 v=66
97844 On ch=2 n=51 v=0
97920 On ch=2 n=49 v=68
98220 On ch=2 n=49 v=0
98280 On ch=2 n=61 v=68
98368 On ch=2 n=61 v=0
98400 On ch=2 n=49 v=61
98640 On ch=2 n=61 v=76
98652 On ch=2 n=49 v=0
98780 On ch=2 n=61 v=0
98880 On ch=2 n=42 v=60
99220 On ch=2 n=42 v=0
99240 On ch=2 n=54 v=70
99320 On ch=2 n=54 v=0
99360 On ch=2 n=42 v=70
99560 On ch=2 n=42 v=0
99600 On ch=2 n=54 v=74
99748 On ch=2 n=54 v=0
99840 On ch=2 n=51 v=64
100200 On ch=2 n=63 v=80
100220 On ch=2 n=51 v=0
100280 On ch=2 n=63 v=0
100320 On ch=2 n=51 v=68
100560 On ch=2 n=63 v=76
100636 On ch=2 n=51 v=0
100660 On ch=2 n=63 v=0
100800 On ch=2 n=44 v=61
101160 On ch=2 n=44 v=0
101160 On ch=2 n=56 v=72
101244 On ch=2 n=56 v=0
101280 On ch=2 n=44 v=59
101500 On ch=2 n=44 v=0
101520 On ch=2 n=56 v=66
101672 On ch=2 n=56 v=0
101760 On ch=2 n=44 v=63
102120 On ch=2 n=56 v=70
102132 On ch=2 n=44 v=0
102204 On ch=2 n=56 v=0
102240 On ch=2 n=44 v=66
102480 On ch=2 n=44 v=0
102480 On ch=2 n=56 v=70
102608 On ch=2 n=56 v=0
102720 On ch=2 n=44 v=63
103080 On ch=2 n=56 v=74
103112 On ch=2 n=44 v=0
103192 On ch=2 n=56 v=0
103200 On ch=2 n=54 v=62
103388 On ch=2 n=54 v=0
103440 On ch=2 n=51 v=70
103632 On ch=2 n=51 v=0
103680 On ch=2 n=42 v=80
104008 On ch=2 n=42 v=0
104040 On ch=2 n=54 v=72
104148 On ch=2 n=54 v=0
104160 On ch=2 n=52 v=76
104312 On ch=2 n=52 v=0
104400 On ch=2 n=54 v=61
104624 On ch=2 n=54 v=0
104640 On ch=2 n=44 v=68
105000 On ch=2 n=56 v=68
105064 On ch=2 n=44 v=0
105104 On ch=2 n=56 v=0
105120 On ch=2 n=54 v=63
105320 On ch=2 n=54 v=0
105360 On ch=2 n=51 v=66
105588 On ch=2 n=51 v=0
105592 On ch=2 n=49 v=63
105596 On ch=2 n=49 v=0
105596 On ch=2 n=49 v=63
105868 On ch=2 n=49 v=0
105960 On ch=2 n=61 v=47
106024 On ch=2 n=61 v=0
106080 On ch=2 n=49 v=35
106224 On ch=2 n=49 v=0
106320 On ch=2 n=61 v=63
106420 On ch=2 n=61 v=0
106560 On ch=2 n=42 v=68
106860 On ch=2 n=42 v=0
106920 On ch=2 n=54 v=78
106988 On ch=2 n=54 v=0
107040 On ch=2 n=42 v=60
107200 On ch=2 n=42 v=0
107280 On ch=2 n=54 v=68
107380 On ch=2 n=54 v=0
107520 On ch=2 n=51 v=68
107824 On ch=2 n=51 v=0
107880 On ch=2 n=63 v=59
107940 On ch=2 n=63 v=0
108000 On ch=2 n=51 v=78
108188 On ch=2 n=51 v=0
108240 On ch=2 n=63 v=64
108332 On ch=2 n=63 v=0
108480 On ch=2 n=44 v=82
108772 On ch=2 n=44 v=0
108840 On ch=2 n=56 v=68
108928 On ch=2 n=56 v=0
108960 On ch=2 n=44 v=62
109124 On ch=2 n=44 v=0
109200 On ch=2 n=56 v=87
109324 On ch=2 n=56 v=0
109440 On ch=2 n=49 v=68
109748 On ch=2 n=49 v=0
109800 On ch=2 n=61 v=70
109864 On ch=2 n=61 v=0
109920 On ch=2 n=49 v=57
110160 On ch=2 n=61 v=76
110196 On ch=2 n=49 v=0
110272 On ch=2 n=61 v=0
110400 On ch=2 n=42 v=76
110704 On ch=2 n=42 v=0
110760 On ch=2 n=54 v=80
110844 On ch=2 n=54 v=0
110880 On ch=2 n=42 v=53
111100 On ch=2 n=42 v=0
111120 On ch=2 n=54 v=61
111252 On ch=2 n=54 v=0
111360 On ch=2 n=51 v=85
111720 On ch=2 n=63 v=64
111724 On ch=2 n=51 v=0
111808 On ch=2 n=63 v=0
111840 On ch=2 n=51 v=59
112080 On ch=2 n=63 v=64
112112 On ch=2 n=51 v=0
112212 On ch=2 n=63 v=0
112320 On ch=2 n=44 v=72
112652 On ch=2 n=44 v=0
112680 On ch=2 n=56 v=87
112800 On ch=2 n=54 v=68
112824 On ch=2 n=56 v=0
112960 On ch=2 n=54 v=0
113040 On ch=2 n=51 v=66
113204 On ch=2 n=51 v=0
113280 On ch=2 n=49 v=68
113580 On ch=2 n=49 v=0
113640 On ch=2 n=61 v=68
113728 On ch=2 n=61 v=0
113760 On ch=2 n=49 v=61
114000 On ch=2 n=61 v=76
114012 On ch=2 n=49 v=0
114140 On ch=2 n=61 v=0
114240 On ch=2 n=42 v=60
114580 On ch=2 n=42 v=0
114600 On ch=2 n=54 v=70
114680 On ch=2 n=54 v=0
114720 On ch=2 n=42 v=70
114920 On ch=2 n=42 v=0
114960 On ch=2 n=54 v=74
115108 On ch=2 n=54 v=0
115200 On ch=2 n=51 v=64
115560 On ch=2 n=63 v=80
115580 On ch=2 n=51 v=0
115640 On ch=2 n=63 v=0
115680 On ch=2 n=51 v=68
115920 On ch=2 n=63 v=76
115996 On ch=2 n=51 v=0
116020 On ch=2 n=63 v=0
116160 On ch=2 n=44 v=61
116520 On ch=2 n=44 v=0
116520 On ch=2 n=56 v=72
116604 On ch=2 n=56 v=0
116640 On ch=2 n=44 v=59
116860 On ch=2 n=44 v=0
116880 On ch=2 n=56 v=66
117032 On ch=2 n=56 v=0
117120 On ch=2 n=44 v=63
117480 On ch=2 n=56 v=70
117492 On ch=2 n=44 v=0
117564 On ch=2 n=56 v=0
117600 On ch=2 n=44 v=66
117840 On ch=2 n=44 v=0
117840 On ch=2 n=56 v=70
117968 On ch=2 n=56 v=0
118080 On ch=2 n=44 v=63
118440 On ch=2 n=56 v=74
118472 On ch=2 n=44 v=0
118552 On ch=2 n=56 v=0
118560 On ch=2 n=54 v=62
118748 On ch=2 n=54 v=0
118800 On ch=2 n=51 v=70
118992 On ch=2 n=51 v=0
119040 On ch=2 n=42 v=80
119368 On ch=2 n=42 v=0
119400 On ch=2 n=54 v=72
119508 On ch=2 n=54 v=0
119520 On ch=2 n=52 v=76
119672 On ch=2 n=52 v=0
119760 On ch=2 n=54 v=61
119984 On ch=2 n=54 v=0
120000 On ch=2 n=44 v=68
120360 On ch=2 n=56 v=68
120424 On ch=2 n=44 v=0
120464 On ch=2 n=56 v=0
120480 On ch=2 n=54 v=63
120680 On ch=2 n=54 v=0
120720 On ch=2 n=51 v=66
120948 On ch=2 n=51 v=0
120952 On ch=2 n=49 v=63
121228 On ch=2 n=49 v=0
121320 On ch=2 n=61 v=47
121384 On ch=2 n=61 v=0
121440 On ch=2 n=49 v=35
121584 On ch=2 n=49 v=0
121680 On ch=2 n=61 v=63
121780 On ch=2 n=61 v=0
121920 On ch=2 n=42 v=68
122220 On ch=2 n=42 v=0
122280 On ch=2 n=54 v=78
122348 On ch=2 n=54 v=0
122400 On ch=2 n=42 v=60
122560 On ch=2 n=42 v=0
122640 On ch=2 n=54 v=68
122740 On ch=2 n=54 v=0
122880 On ch=2 n=51 v=68
123184 On ch=2 n=51 v=0
123240 On ch=2 n=63 v=59
123300 On ch=2 n=63 v=0
123360 On ch=2 n=51 v=78
123548 On ch=2 n=51 v=0
123600 On ch=2 n=63 v=64
123692 On ch=2 n=63 v=0
123840 On ch=2 n=44 v=82
124132 On ch=2 n=44 v=0
124200 On ch=2 n=56 v=68
124288 On ch=2 n=56 v=0
124320 On ch=2 n=44 v=62
124484 On ch=2 n=44 v=0
124560 On ch=2 n=56 v=87
124684 On ch=2 n=56 v=0
124800 On ch=2 n=49 v=68
125108 On ch=2 n=49 v=0
125160 On ch=2 n=61 v=70
125224 On ch=2 n=61 v=0
125280 On ch=2 n=49 v=57
125520 On ch=2 n=61 v=76
125556 On ch=2 n=49 v=0
125632 On ch=2 n=61 v=0
125760 On ch=2 n=42 v=76
126064 On ch=2 n=42 v=0
126120 On ch=2 n=54 v=80
126204 On ch=2 n=54 v=0
126240 On ch=2 n=42 v=53
126460 On ch=2 n=42 v=0
126480 On ch=2 n=54 v=61
126612 On ch=2 n=54 v=0
126720 On ch=2 n=51 v=85
127080 On ch=2 n=63 v=64
127084 On ch=2 n=51 v=0
127168 On ch=2 n=63 v=0
127200 On ch=2 n=51 v=59
127440 On ch=2 n=63 v=64
127472 On ch=2 n=51 v=0
127572 On ch=2 n=63 v=0
127680 On ch=2 n=44 v=72
128012 On ch=2 n=44 v=0
128040 On ch=2 n=56 v=87
128160 On ch=2 n=54 v=68
128184 On ch=2 n=56 v=0
128320 On ch=2 n=54 v=0
128400 On ch=2 n=51 v=66
128564 On ch=2 n=51 v=0
128640 On ch=2 n=49 v=68
128940 On ch=2 n=49 v=0
129000 On ch=2 n=61 v=68
129088 On ch=2 n=61 v=0
129120 On ch=2 n=49 v=61
129360 On ch=2 n=61 v=76
129372 On ch=2 n=49 v=0
129500 On ch=2 n=61 v=0
129600 On ch=2 n=42 v=60
129940 On ch=2 n=42 v=0
129960 On ch=2 n=54 v=70
130040 On ch=2 n=54 v=0
130080 On ch=2 n=42 v=70
130280 On ch=2 n=42 v=0
130320 On ch=2 n=54 v=74
130468 On ch=2 n=54 v=0
130560 On ch=2 n=51 v=64
130920 On ch=2 n=63 v=80
130940 On ch=2 n=51 v=0
131000 On ch=2 n=63 v=0
131040 On ch=2 n=51 v=68
131280 On ch=2 n=63 v=76
131356 On ch=2 n=51 v=0
131380 On ch=2 n=63 v=0
131520 On ch=2 n=44 v=61
131880 On ch=2 n=44 v=0
131880 On ch=2 n=56 v=72
131964 On ch=2 n=56 v=0
132000 On ch=2 n=44 v=59
132220 On ch=2 n=44 v=0
132240 On ch=2 n=56 v=66
132392 On ch=2 n=56 v=0
132480 On ch=2 n=44 v=63
132840 On ch=2 n=56 v=70
132852 On ch=2 n=44 v=0
132924 On ch=2 n=56 v=0
132960 On ch=2 n=44 v=66
133200 On ch=2 n=44 v=0
133200 On ch=2 n=56 v=70
133328 On ch=2 n=56 v=0
133440 On ch=2 n=44 v=63
133800 On ch=2 n=56 v=74
133832 On ch=2 n=44 v=0
133912 On ch=2 n=56 v=0
133920 On ch=2 n=54 v=62
134108 On ch=2 n=54 v=0
134160 On ch=2 n=51 v=70
134352 On ch=2 n=51 v=0
134400 On ch=2 n=42 v=80
134728 On ch=2 n=42 v=0
134760 On ch=2 n=54 v=72
134868 On ch=2 n=54 v=0
134880 On ch=2 n=52 v=76
135032 On ch=2 n=52 v=0
135120 On ch=2 n=54 v=61
135344 On ch=2 n=54 v=0
135360 On ch=2 n=44 v=68
135720 On ch=2 n=56 v=68
135784 On ch=2 n=44 v=0
135824 On ch=2 n=56 v=0
135840 On ch=2 n=54 v=63
136040 On ch=2 n=54 v=0
136080 On ch=2 n=51 v=66
136308 On ch=2 n=51 v=0
136312 On ch=2 n=49 v=63
136588 On ch=2 n=49 v=0
136680 On ch=2 n=61 v=47
136744 On ch=2 n=61 v=0
136800 On ch=2 n=49 v=35
136944 On ch=2 n=49 v=0
137040 On ch=2 n=61 v=63
137140 On ch=2 n=61 v=0
137280 On ch=2 n=42 v=68
137580 On ch=2 n=42 v=0
137640 On ch=2 n=54 v=78
137708 On ch=2 n=54 v=0
137760 On ch=2 n=42 v=60
137920 On ch=2 n=42 v=0
138000 On ch=2 n=54 v=68
138100 On ch=2 n=54 v=0
138240 On ch=2 n=51 v=68
138544 On ch=2 n=51 v=0
138600 On ch=2 n=63 v=59
138660 On ch=2 n=63 v=0
138720 On ch=2 n=51 v=78
138908 On ch=2 n=51 v=0
138960 On ch=2 n=63 v=64
139052 On ch=2 n=63 v=0
139200 On ch=2 n=44 v=82
139492 On ch=2 n=44 v=0
139560 On ch=2 n=56 v=68
139648 On ch=2 n=56 v=0
139680 On ch=2 n=44 v=62
139844 On ch=2 n=44 v=0
139920 On ch=2 n=56 v=87
140044 On ch=2 n=56 v=0
140160 On ch=2 n=49 v=68
140468 On ch=2 n=49 v=0
140520 On ch=2 n=61 v=70
140584 On ch=2 n=61 v=0
140640 On ch=2 n=49 v=57
140880 On ch=2 n=61 v=76
140912 On ch=2 n=49 v=0
140992 On ch=2 n=61 v=0
141120 On ch=2 n=42 v=76
141424 On ch=2 n=42 v=0
141480 On ch=2 n=54 v=80
141564 On ch=2 n=54 v=0
141600 On ch=2 n=42 v=53
141820 On ch=2 n=42 v=0
141840 On ch=2 n=54 v=61
141972 On ch=2 n=54 v=0
142080 On ch=2 n=51 v=85
142440 On ch=2 n=63 v=64
142444 On ch=2 n=51 v=0
142528 On ch=2 n=63 v=0
142560 On ch=2 n=51 v=59
142800 On ch=2 n=63 v=64
142832 On ch=2 n=51 v=0
142932 On ch=2 n=63 v=0
143040 On ch=2 n=44 v=72
143372 On ch=2 n=44 v=0
143400 On ch=2 n=56 v=87
143520 On ch=2 n=54 v=68
143544 On ch=2 n=56 v=0
143680 On ch=2 n=54 v=0
143760 On ch=2 n=51 v=66
143924 On ch=2 n=51 v=0
144000 On ch=2 n=49 v=68
144300 On ch=2 n=49 v=0
144360 On ch=2 n=61 v=68
144448 On ch=2 n=61 v=0
144480 On ch=2 n=49 v=61
144720 On ch=2 n=61 v=76
144732 On ch=2 n=49 v=0
144860 On ch=2 n=61 v=0
144960 On ch=2 n=42 v=60
145300 On ch=2 n=42 v=0
145320 On ch=2 n=54 v=70
145400 On ch=2 n=54 v=0
145440 On ch=2 n=42 v=70
145640 On ch=2 n=42 v=0
145680 On ch=2 n=54 v=74
145828 On ch=2 n=54 v=0
145920 On ch=2 n=51 v=64
146280 On ch=2 n=63 v=80
146300 On ch=2 n=51 v=0
146360 On ch=2 n=63 v=0
146400 On ch=2 n=51 v=68
146640 On ch=2 n=63 v=76
146716 On ch=2 n=51 v=0
146740 On ch=2 n=63 v=0
146880 On ch=2 n=44 v=61
147240 On ch=2 n=44 v=0
147240 On ch=2 n=56 v=72
147324 On ch=2 n=56 v=0
147360 On ch=2 n=44 v=59
147580 On ch=2 n=44 v=0
147600 On ch=2 n=56 v=66
147752 On ch=2 n=56 v=0
147840 On ch=2 n=44 v=63
148200 On ch=2 n=56 v=70
148212 On ch=2 n=44 v=0
148284 On ch=2 n=56 v=0
148320 On ch=2 n=44 v=66
148560 On ch=2 n=44 v=0
148560 On ch=2 n=56 v=70
148688 On ch=2 n=56 v=0
148800 On ch=2 n=44 v=63
149160 On ch=2 n=56 v=74
149192 On ch=2 n=44 v=0
149272 On ch=2 n=56 v=0
149280 On ch=2 n=54 v=62
149468 On ch=2 n=54 v=0
149520 On ch=2 n=51 v=70
149712 On ch=2 n=51 v=0
149760 On ch=2 n=42 v=80
150088 On ch=2 n=42 v=0
150120 On ch=2 n=54 v=72
150228 On ch=2 n=54 v=0
150240 On ch=2 n=52 v=76
150392 On ch=2 n=52 v=0
150480 On ch=2 n=54 v=61
150704 On ch=2 n=54 v=0
150720 On ch=2 n=44 v=68
151080 On ch=2 n=56 v=68
151144 On ch=2 n=44 v=0
151184 On ch=2 n=56 v=0
151200 On ch=2 n=54 v=63
151400 On ch=2 n=54 v=0
151440 On ch=2 n=51 v=66
151668 On ch=2 n=51 v=0
151672 On ch=2 n=49 v=110
152660 On ch=2 n=49 v=0
152660 Meta TrkEnd
TrkEnd
MTrk
0 Meta 0x21 00
0 Meta TrkName "Acoustic Grand Piano"
0 PrCh ch=3 p=0
0 Par ch=3 c=7 v=107
2160 On ch=3 n=77 v=98
2160 On ch=3 n=80 v=91
2160 On ch=3 n=73 v=93
2220 On ch=3 n=73 v=0
2228 On ch=3 n=80 v=0
2228 On ch=3 n=77 v=0
2640 On ch=3 n=77 v=100
2640 On ch=3 n=80 v=93
2640 On ch=3 n=73 v=98
2688 On ch=3 n=73 v=0
2700 On ch=3 n=77 v=0
2708 On ch=3 n=80 v=0
3120 On ch=3 n=78 v=95
3120 On ch=3 n=82 v=91
3120 On ch=3 n=73 v=102
3184 On ch=3 n=73 v=0
3192 On ch=3 n=82 v=0
3192 On ch=3 n=78 v=0
3600 On ch=3 n=78 v=102
3600 On ch=3 n=73 v=102
3600 On ch=3 n=82 v=102
3664 On ch=3 n=73 v=0
3672 On ch=3 n=78 v=0
3680 On ch=3 n=82 v=0
4080 On ch=3 n=80 v=98
4080 On ch=3 n=84 v=102
4080 On ch=3 n=75 v=98
4140 On ch=3 n=75 v=0
4140 On ch=3 n=80 v=0
4152 On ch=3 n=84 v=0
4560 On ch=3 n=80 v=100
4560 On ch=3 n=75 v=98
4560 On ch=3 n=84 v=102
4620 On ch=3 n=75 v=0
4620 On ch=3 n=80 v=0
4624 On ch=3 n=84 v=0
5040 On ch=3 n=78 v=100
5040 On ch=3 n=82 v=95
5040 On ch=3 n=73 v=100
5104 On ch=3 n=73 v=0
5104 On ch=3 n=78 v=0
5112 On ch=3 n=82 v=0
5520 On ch=3 n=78 v=100
5520 On ch=3 n=82 v=100
5520 On ch=3 n=73 v=100
5580 On ch=3 n=73 v=0
5580 On ch=3 n=78 v=0
5592 On ch=3 n=82 v=0
6000 On ch=3 n=77 v=105
6000 On ch=3 n=73 v=95
6000 On ch=3 n=80 v=102
6064 On ch=3 n=73 v=0
6064 On ch=3 n=77 v=0
6072 On ch=3 n=80 v=0
6480 On ch=3 n=77 v=110
6480 On ch=3 n=80 v=105
6480 On ch=3 n=73 v=98
6524 On ch=3 n=73 v=0
6528 On ch=3 n=77 v=0
6540 On ch=3 n=80 v=0
6960 On ch=3 n=78 v=100
6960 On ch=3 n=82 v=100
6960 On ch=3 n=73 v=100
7012 On ch=3 n=73 v=0
7012 On ch=3 n=78 v=0
7032 On ch=3 n=82 v=0
7440 On ch=3 n=78 v=105
7440 On ch=3 n=73 v=102
7440 On ch=3 n=82 v=100
7484 On ch=3 n=78 v=0
7492 On ch=3 n=82 v=0
7492 On ch=3 n=73 v=0
7920 On ch=3 n=80 v=91
7920 On ch=3 n=75 v=100
7920 On ch=3 n=84 v=98
7968 On ch=3 n=80 v=0
7980 On ch=3 n=75 v=0
7984 On ch=3 n=84 v=0
8400 On ch=3 n=80 v=98
8400 On ch=3 n=75 v=98
8400 On ch=3 n=84 v=100
8452 On ch=3 n=80 v=0
8464 On ch=3 n=84 v=0
8464 On ch=3 n=75 v=0
8880 On ch=3 n=78 v=95
8880 On ch=3 n=82 v=93
8880 On ch=3 n=73 v=98
8932 On ch=3 n=78 v=0
8940 On ch=3 n=73 v=0
8948 On ch=3 n=82 v=0
9360 On ch=3 n=78 v=100
9360 On ch=3 n=82 v=100
9360 On ch=3 n=73 v=100
9412 On ch=3 n=73 v=0
9412 On ch=3 n=78 v=0
9428 On ch=3 n=82 v=0
9840 On ch=3 n=77 v=105
9840 On ch=3 n=80 v=102
9840 On ch=3 n=73 v=89
9884 On ch=3 n=73 v=0
9904 On ch=3 n=77 v=0
9912 On ch=3 n=80 v=0
10320 On ch=3 n=77 v=107
10320 On ch=3 n=73 v=102
10320 On ch=3 n=80 v=105
10372 On ch=3 n=80 v=0
10372 On ch=3 n=77 v=0
10380 On ch=3 n=73 v=0
10800 On ch=3 n=78 v=98
10800 On ch=3 n=73 v=102
10800 On ch=3 n=82 v=98
10864 On ch=3 n=73 v=0
10864 On ch=3 n=78 v=0
10868 On ch=3 n=82 v=0
11280 On ch=3 n=78 v=98
11280 On ch=3 n=82 v=102
11280 On ch=3 n=73 v=100
11340 On ch=3 n=73 v=0
11344 On ch=3 n=78 v=0
11352 On ch=3 n=82 v=0
11760 On ch=3 n=80 v=100
11760 On ch=3 n=84 v=107
11760 On ch=3 n=75 v=100
11812 On ch=3 n=80 v=0
11820 On ch=3 n=75 v=0
11832 On ch=3 n=84 v=0
12240 On ch=3 n=80 v=102
12240 On ch=3 n=75 v=100
12240 On ch=3 n=84 v=100
12304 On ch=3 n=75 v=0
12304 On ch=3 n=80 v=0
12308 On ch=3 n=84 v=0
12720 On ch=3 n=82 v=100
12720 On ch=3 n=78 v=93
12720 On ch=3 n=73 v=98
12772 On ch=3 n=78 v=0
12784 On ch=3 n=73 v=0
12792 On ch=3 n=82 v=0
13200 On ch=3 n=82 v=102
13200 On ch=3 n=78 v=100
13200 On ch=3 n=73 v=100
13252 On ch=3 n=78 v=0
13260 On ch=3 n=73 v=0
13272 On ch=3 n=82 v=0
13680 On ch=3 n=75 v=100
13680 On ch=3 n=80 v=95
13680 On ch=3 n=84 v=98
13732 On ch=3 n=80 v=0
13740 On ch=3 n=75 v=0
13760 On ch=3 n=84 v=0
14160 On ch=3 n=80 v=95
14164 On ch=3 n=84 v=98
14164 On ch=3 n=75 v=95
14212 On ch=3 n=75 v=0
14212 On ch=3 n=80 v=0
14228 On ch=3 n=84 v=0
14640 On ch=3 n=80 v=98
14640 On ch=3 n=84 v=102
14640 On ch=3 n=75 v=91
14688 On ch=3 n=75 v=0
14688 On ch=3 n=80 v=0
14720 On ch=3 n=84 v=0
15120 On ch=3 n=80 v=100
15120 On ch=3 n=84 v=102
15120 On ch=3 n=75 v=46
15144 On ch=3 n=75 v=0
15164 On ch=3 n=80 v=0
15180 On ch=3 n=84 v=0
15360 On ch=3 n=90 v=102
15360 On ch=3 n=85 v=100
15364 On ch=3 n=82 v=102
15364 On ch=3 n=78 v=78
15548 On ch=3 n=82 v=0
15572 On ch=3 n=85 v=0
15580 On ch=3 n=78 v=0
15600 On ch=3 n=90 v=0
15600 On ch=3 n=85 v=82
15600 On ch=3 n=82 v=64
15652 On ch=3 n=82 v=0
15660 On ch=3 n=85 v=0
16080 On ch=3 n=85 v=93
16080 On ch=3 n=82 v=102
16080 On ch=3 n=78 v=98
16144 On ch=3 n=78 v=0
16144 On ch=3 n=85 v=0
16148 On ch=3 n=82 v=0
16320 On ch=3 n=75 v=74
16320 On ch=3 n=80 v=82
16324 On ch=3 n=84 v=102
16728 On ch=3 n=84 v=0
16744 On ch=3 n=80 v=0
16768 On ch=3 n=75 v=0
16800 On ch=3 n=84 v=95
16800 On ch=3 n=80 v=80
16804 On ch=3 n=87 v=82
17208 On ch=3 n=80 v=0
17232 On ch=3 n=87 v=0
17236 On ch=3 n=84 v=0
17520 On ch=3 n=77 v=98
17520 On ch=3 n=73 v=85
17520 On ch=3 n=80 v=87
17628 On ch=3 n=80 v=0
17632 On ch=3 n=77 v=0
17652 On ch=3 n=73 v=0
18000 On ch=3 n=73 v=76
18000 On ch=3 n=77 v=89
18000 On ch=3 n=80 v=82
18100 On ch=3 n=77 v=0
18108 On ch=3 n=80 v=0
18120 On ch=3 n=73 v=0
18480 On ch=3 n=82 v=89
18480 On ch=3 n=78 v=89
18480 On ch=3 n=73 v=98
18584 On ch=3 n=73 v=0
18588 On ch=3 n=78 v=0
18608 On ch=3 n=82 v=0
18960 On ch=3 n=78 v=100
18960 On ch=3 n=73 v=100
18960 On ch=3 n=82 v=95
19044 On ch=3 n=78 v=0
19052 On ch=3 n=73 v=0
19072 On ch=3 n=82 v=0
19440 On ch=3 n=75 v=95
19440 On ch=3 n=80 v=100
19440 On ch=3 n=84 v=98
19532 On ch=3 n=80 v=0
19544 On ch=3 n=75 v=0
19568 On ch=3 n=84 v=0
19920 On ch=3 n=80 v=98
19920 On ch=3 n=75 v=89
19920 On ch=3 n=84 v=98
19992 On ch=3 n=80 v=0
20000 On ch=3 n=75 v=0
20020 On ch=3 n=84 v=0
20400 On ch=3 n=82 v=85
20400 On ch=3 n=78 v=87
20400 On ch=3 n=73 v=98
20492 On ch=3 n=78 v=0
20504 On ch=3 n=73 v=0
20524 On ch=3 n=82 v=0
20880 On ch=3 n=78 v=95
20880 On ch=3 n=73 v=100
20880 On ch=3 n=82 v=89
21000 On ch=3 n=78 v=0
21008 On ch=3 n=82 v=0
21008 On ch=3 n=73 v=0
21360 On ch=3 n=73 v=76
21360 On ch=3 n=77 v=93
21360 On ch=3 n=80 v=85
21488 On ch=3 n=77 v=0
21492 On ch=3 n=80 v=0
21512 On ch=3 n=73 v=0
21840 On ch=3 n=73 v=78
21840 On ch=3 n=77 v=95
21840 On ch=3 n=80 v=80
21960 On ch=3 n=77 v=0
21984 On ch=3 n=80 v=0
21984 On ch=3 n=73 v=0
22320 On ch=3 n=82 v=87
22320 On ch=3 n=78 v=76
22320 On ch=3 n=73 v=89
22428 On ch=3 n=73 v=0
22432 On ch=3 n=78 v=0
22448 On ch=3 n=82 v=0
22800 On ch=3 n=78 v=85
22800 On ch=3 n=73 v=95
22800 On ch=3 n=82 v=91
22892 On ch=3 n=78 v=0
22912 On ch=3 n=73 v=0
22924 On ch=3 n=82 v=0
23280 On ch=3 n=80 v=98
23280 On ch=3 n=75 v=95
23280 On ch=3 n=84 v=100
23400 On ch=3 n=75 v=0
23400 On ch=3 n=80 v=0
23412 On ch=3 n=84 v=0
23760 On ch=3 n=80 v=95
23760 On ch=3 n=75 v=95
23760 On ch=3 n=84 v=95
23892 On ch=3 n=80 v=0
23900 On ch=3 n=84 v=0
23904 On ch=3 n=75 v=0
24240 On ch=3 n=82 v=87
24240 On ch=3 n=73 v=98
24240 On ch=3 n=78 v=89
24332 On ch=3 n=78 v=0
24348 On ch=3 n=73 v=0
24380 On ch=3 n=82 v=0
24720 On ch=3 n=78 v=87
24720 On ch=3 n=73 v=95
24720 On ch=3 n=82 v=93
24828 On ch=3 n=78 v=0
24860 On ch=3 n=82 v=0
24872 On ch=3 n=73 v=0
25200 On ch=3 n=77 v=95
25200 On ch=3 n=73 v=78
25200 On ch=3 n=80 v=85
25312 On ch=3 n=80 v=0
25324 On ch=3 n=77 v=0
25328 On ch=3 n=73 v=0
25680 On ch=3 n=73 v=87
25680 On ch=3 n=77 v=98
25680 On ch=3 n=80 v=87
25808 On ch=3 n=77 v=0
25820 On ch=3 n=80 v=0
25828 On ch=3 n=73 v=0
26160 On ch=3 n=78 v=87
26160 On ch=3 n=73 v=100
26160 On ch=3 n=82 v=87
26244 On ch=3 n=73 v=0
26264 On ch=3 n=78 v=0
26284 On ch=3 n=82 v=0
26640 On ch=3 n=78 v=93
26640 On ch=3 n=82 v=93
26640 On ch=3 n=73 v=95
26732 On ch=3 n=73 v=0
26732 On ch=3 n=78 v=0
26760 On ch=3 n=82 v=0
27120 On ch=3 n=75 v=95
27120 On ch=3 n=84 v=98
27120 On ch=3 n=80 v=93
27192 On ch=3 n=80 v=0
27224 On ch=3 n=75 v=0
27240 On ch=3 n=84 v=0
27600 On ch=3 n=75 v=98
27600 On ch=3 n=80 v=95
27600 On ch=3 n=84 v=95
27688 On ch=3 n=80 v=0
27700 On ch=3 n=75 v=0
27708 On ch=3 n=84 v=0
28080 On ch=3 n=73 v=98
28080 On ch=3 n=82 v=93
28080 On ch=3 n=78 v=85
28172 On ch=3 n=78 v=0
28188 On ch=3 n=73 v=0
28208 On ch=3 n=82 v=0
28560 On ch=3 n=82 v=95
28560 On ch=3 n=73 v=91
28560 On ch=3 n=78 v=85
28628 On ch=3 n=78 v=0
28652 On ch=3 n=73 v=0
28668 On ch=3 n=82 v=0
29040 On ch=3 n=75 v=89
29040 On ch=3 n=80 v=89
29040 On ch=3 n=84 v=98
29124 On ch=3 n=80 v=0
29140 On ch=3 n=75 v=0
29160 On ch=3 n=84 v=0
29520 On ch=3 n=75 v=87
29520 On ch=3 n=80 v=87
29524 On ch=3 n=84 v=91
29624 On ch=3 n=80 v=0
29632 On ch=3 n=75 v=0
29644 On ch=3 n=84 v=0
30000 On ch=3 n=80 v=85
30000 On ch=3 n=75 v=87
30000 On ch=3 n=84 v=98
30092 On ch=3 n=80 v=0
30104 On ch=3 n=75 v=0
30140 On ch=3 n=84 v=0
30480 On ch=3 n=75 v=95
30480 On ch=3 n=80 v=93
30480 On ch=3 n=84 v=98
30568 On ch=3 n=80 v=0
30580 On ch=3 n=75 v=0
30608 On ch=3 n=84 v=0
30960 On ch=3 n=78 v=87
30960 On ch=3 n=82 v=85
30960 On ch=3 n=73 v=91
31052 On ch=3 n=73 v=0
31056 On ch=3 n=78 v=0
31068 On ch=3 n=82 v=0
31440 On ch=3 n=78 v=95
31440 On ch=3 n=82 v=98
31440 On ch=3 n=73 v=98
31540 On ch=3 n=78 v=0
31544 On ch=3 n=73 v=0
31588 On ch=3 n=82 v=0
31920 On ch=3 n=80 v=89
31920 On ch=3 n=75 v=87
31920 On ch=3 n=84 v=95
32024 On ch=3 n=75 v=0
32024 On ch=3 n=80 v=0
32052 On ch=3 n=84 v=0
32400 On ch=3 n=84 v=100
32400 On ch=3 n=80 v=98
32400 On ch=3 n=75 v=98
32512 On ch=3 n=80 v=0
32532 On ch=3 n=75 v=0
32540 On ch=3 n=84 v=0
32880 On ch=3 n=77 v=98
32880 On ch=3 n=80 v=91
32880 On ch=3 n=73 v=93
32940 On ch=3 n=73 v=0
32948 On ch=3 n=80 v=0
32948 On ch=3 n=77 v=0
33360 On ch=3 n=77 v=100
33360 On ch=3 n=80 v=93
33360 On ch=3 n=73 v=98
33408 On ch=3 n=73 v=0
33420 On ch=3 n=77 v=0
33428 On ch=3 n=80 v=0
33840 On ch=3 n=78 v=95
33840 On ch=3 n=82 v=91
33840 On ch=3 n=73 v=102
33904 On ch=3 n=73 v=0
33912 On ch=3 n=82 v=0
33912 On ch=3 n=78 v=0
34320 On ch=3 n=78 v=102
34320 On ch=3 n=73 v=102
34320 On ch=3 n=82 v=102
34384 On ch=3 n=73 v=0
34392 On ch=3 n=78 v=0
34400 On ch=3 n=82 v=0
34800 On ch=3 n=80 v=98
34800 On ch=3 n=84 v=102
34800 On ch=3 n=75 v=98
34860 On ch=3 n=75 v=0
34860 On ch=3 n=80 v=0
34872 On ch=3 n=84 v=0
35280 On ch=3 n=80 v=100
35280 On ch=3 n=75 v=98
35280 On ch=3 n=84 v=102
35340 On ch=3 n=75 v=0
35340 On ch=3 n=80 v=0
35344 On ch=3 n=84 v=0
35760 On ch=3 n=78 v=100
35760 On ch=3 n=82 v=95
35760 On ch=3 n=73 v=100
35824 On ch=3 n=73 v=0
35824 On ch=3 n=78 v=0
35832 On ch=3 n=82 v=0
36240 On ch=3 n=78 v=100
36240 On ch=3 n=82 v=100
36240 On ch=3 n=73 v=100
36300 On ch=3 n=73 v=0
36300 On ch=3 n=78 v=0
36312 On ch=3 n=82 v=0
36720 On ch=3 n=68 v=89
36720 On ch=3 n=63 v=85
36720 On ch=3 n=72 v=87
36792 On ch=3 n=63 v=0
36800 On ch=3 n=68 v=0
36812 On ch=3 n=72 v=0
37200 On ch=3 n=68 v=89
37200 On ch=3 n=63 v=80
37200 On ch=3 n=72 v=76
37252 On ch=3 n=63 v=0
37272 On ch=3 n=68 v=0
37288 On ch=3 n=72 v=0
37680 On ch=3 n=68 v=87
37680 On ch=3 n=63 v=89
37680 On ch=3 n=72 v=82
37764 On ch=3 n=63 v=0
37768 On ch=3 n=68 v=0
37788 On ch=3 n=72 v=0
38160 On ch=3 n=68 v=93
38160 On ch=3 n=63 v=95
38160 On ch=3 n=72 v=89
38232 On ch=3 n=63 v=0
38232 On ch=3 n=68 v=0
38252 On ch=3 n=72 v=0
38640 On ch=3 n=68 v=98
38640 On ch=3 n=73 v=76
38640 On ch=3 n=65 v=78
38712 On ch=3 n=65 v=0
38712 On ch=3 n=68 v=0
38744 On ch=3 n=73 v=0
39120 On ch=3 n=68 v=87
39124 On ch=3 n=65 v=87
39124 On ch=3 n=73 v=72
39188 On ch=3 n=68 v=0
39192 On ch=3 n=65 v=0
39204 On ch=3 n=73 v=0
39600 On ch=3 n=68 v=93
39600 On ch=3 n=65 v=80
39600 On ch=3 n=73 v=66
39680 On ch=3 n=65 v=0
39680 On ch=3 n=68 v=0
39688 On ch=3 n=73 v=0
40080 On ch=3 n=68 v=102
40080 On ch=3 n=65 v=87
40080 On ch=3 n=73 v=82
40168 On ch=3 n=65 v=0
40172 On ch=3 n=73 v=0
40172 On ch=3 n=68 v=0
40560 On ch=3 n=66 v=93
40560 On ch=3 n=61 v=85
40560 On ch=3 n=70 v=82
40632 On ch=3 n=61 v=0
40640 On ch=3 n=66 v=0
40648 On ch=3 n=70 v=0
41040 On ch=3 n=66 v=89
41040 On ch=3 n=61 v=91
41040 On ch=3 n=70 v=87
41112 On ch=3 n=61 v=0
41124 On ch=3 n=66 v=0
41132 On ch=3 n=70 v=0
41520 On ch=3 n=61 v=93
41520 On ch=3 n=66 v=85
41520 On ch=3 n=70 v=87
41608 On ch=3 n=66 v=0
41620 On ch=3 n=61 v=0
41628 On ch=3 n=70 v=0
42000 On ch=3 n=61 v=95
42000 On ch=3 n=66 v=87
42000 On ch=3 n=70 v=89
42084 On ch=3 n=61 v=0
42092 On ch=3 n=66 v=0
42108 On ch=3 n=70 v=0
42480 On ch=3 n=68 v=91
42480 On ch=3 n=65 v=78
42480 On ch=3 n=73 v=68
42572 On ch=3 n=68 v=0
42584 On ch=3 n=73 v=0
42584 On ch=3 n=65 v=0
42960 On ch=3 n=65 v=89
42960 On ch=3 n=68 v=91
42960 On ch=3 n=73 v=76
43040 On ch=3 n=68 v=0
43052 On ch=3 n=73 v=0
43052 On ch=3 n=65 v=0
43440 On ch=3 n=68 v=95
43440 On ch=3 n=65 v=87
43440 On ch=3 n=73 v=80
43508 On ch=3 n=68 v=0
43528 On ch=3 n=73 v=0
43532 On ch=3 n=65 v=0
43920 On ch=3 n=65 v=89
43920 On ch=3 n=68 v=100
43920 On ch=3 n=73 v=80
44004 On ch=3 n=68 v=0
44012 On ch=3 n=73 v=0
44024 On ch=3 n=65 v=0
44400 On ch=3 n=68 v=93
44400 On ch=3 n=63 v=93
44400 On ch=3 n=72 v=80
44480 On ch=3 n=68 v=0
44484 On ch=3 n=63 v=0
44504 On ch=3 n=72 v=0
44880 On ch=3 n=63 v=95
44880 On ch=3 n=68 v=91
44880 On ch=3 n=72 v=87
44948 On ch=3 n=68 v=0
44952 On ch=3 n=63 v=0
44972 On ch=3 n=72 v=0
45360 On ch=3 n=68 v=89
45360 On ch=3 n=63 v=93
45360 On ch=3 n=72 v=85
45428 On ch=3 n=63 v=0
45432 On ch=3 n=68 v=0
45460 On ch=3 n=72 v=0
45840 On ch=3 n=68 v=93
45840 On ch=3 n=63 v=100
45840 On ch=3 n=72 v=91
45920 On ch=3 n=63 v=0
45920 On ch=3 n=68 v=0
45948 On ch=3 n=72 v=0
46320 On ch=3 n=68 v=100
46320 On ch=3 n=65 v=87
46320 On ch=3 n=73 v=76
46404 On ch=3 n=65 v=0
46404 On ch=3 n=68 v=0
46424 On ch=3 n=73 v=0
46800 On ch=3 n=68 v=98
46800 On ch=3 n=65 v=87
46800 On ch=3 n=73 v=82
46872 On ch=3 n=68 v=0
46880 On ch=3 n=65 v=0
46900 On ch=3 n=73 v=0
47280 On ch=3 n=65 v=87
47280 On ch=3 n=68 v=93
47280 On ch=3 n=73 v=74
47368 On ch=3 n=68 v=0
47388 On ch=3 n=65 v=0
47392 On ch=3 n=73 v=0
47760 On ch=3 n=68 v=91
47760 On ch=3 n=65 v=87
47760 On ch=3 n=73 v=82
47844 On ch=3 n=68 v=0
47848 On ch=3 n=65 v=0
47852 On ch=3 n=73 v=0
48240 On ch=3 n=70 v=98
48240 On ch=3 n=66 v=87
48240 On ch=3 n=61 v=102
48324 On ch=3 n=66 v=0
48332 On ch=3 n=61 v=0
48360 On ch=3 n=70 v=0
48720 On ch=3 n=66 v=82
48720 On ch=3 n=61 v=95
48720 On ch=3 n=70 v=93
48804 On ch=3 n=66 v=0
48812 On ch=3 n=61 v=0
48824 On ch=3 n=70 v=0
49200 On ch=3 n=66 v=87
49200 On ch=3 n=70 v=93
49200 On ch=3 n=61 v=95
49280 On ch=3 n=66 v=0
49300 On ch=3 n=61 v=0
49304 On ch=3 n=70 v=0
49680 On ch=3 n=70 v=89
49680 On ch=3 n=66 v=85
49680 On ch=3 n=61 v=93
49784 On ch=3 n=61 v=0
49784 On ch=3 n=66 v=0
49820 On ch=3 n=70 v=0
50160 On ch=3 n=68 v=87
50160 On ch=3 n=63 v=91
50160 On ch=3 n=72 v=91
50244 On ch=3 n=68 v=0
50252 On ch=3 n=63 v=0
50280 On ch=3 n=72 v=0
50640 On ch=3 n=68 v=89
50640 On ch=3 n=63 v=87
50640 On ch=3 n=72 v=87
50720 On ch=3 n=68 v=0
50732 On ch=3 n=63 v=0
50748 On ch=3 n=72 v=0
51120 On ch=3 n=63 v=98
51120 On ch=3 n=68 v=91
51120 On ch=3 n=72 v=93
51204 On ch=3 n=68 v=0
51208 On ch=3 n=63 v=0
51224 On ch=3 n=72 v=0
51604 On ch=3 n=68 v=98
51604 On ch=3 n=63 v=95
51604 On ch=3 n=72 v=93
51688 On ch=3 n=63 v=0
51688 On ch=3 n=68 v=0
51712 On ch=3 n=72 v=0
52080 On ch=3 n=77 v=98
52080 On ch=3 n=80 v=91
52080 On ch=3 n=73 v=93
52140 On ch=3 n=73 v=0
52148 On ch=3 n=80 v=0
52148 On ch=3 n=77 v=0
52560 On ch=3 n=77 v=100
52560 On ch=3 n=80 v=93
52560 On ch=3 n=73 v=98
52608 On ch=3 n=73 v=0
52620 On ch=3 n=77 v=0
52628 On ch=3 n=80 v=0
53040 On ch=3 n=78 v=95
53040 On ch=3 n=82 v=91
53040 On ch=3 n=73 v=102
53104 On ch=3 n=73 v=0
53112 On ch=3 n=82 v=0
53112 On ch=3 n=78 v=0
53520 On ch=3 n=78 v=102
53520 On ch=3 n=73 v=102
53520 On ch=3 n=82 v=102
53584 On ch=3 n=73 v=0
53592 On ch=3 n=78 v=0
53600 On ch=3 n=82 v=0
54000 On ch=3 n=80 v=98
54000 On ch=3 n=84 v=102
54000 On ch=3 n=75 v=98
54060 On ch=3 n=75 v=0
54060 On ch=3 n=80 v=0
54072 On ch=3 n=84 v=0
54480 On ch=3 n=80 v=100
54480 On ch=3 n=75 v=98
54480 On ch=3 n=84 v=102
54540 On ch=3 n=75 v=0
54540 On ch=3 n=80 v=0
54544 On ch=3 n=84 v=0
54960 On ch=3 n=78 v=100
54960 On ch=3 n=82 v=95
54960 On ch=3 n=73 v=100
55024 On ch=3 n=73 v=0
55024 On ch=3 n=78 v=0
55032 On ch=3 n=82 v=0
55440 On ch=3 n=78 v=100
55440 On ch=3 n=82 v=100
55440 On ch=3 n=73 v=100
55500 On ch=3 n=73 v=0
55500 On ch=3 n=78 v=0
55512 On ch=3 n=82 v=0
55920 On ch=3 n=77 v=105
55920 On ch=3 n=73 v=95
55920 On ch=3 n=80 v=102
55984 On ch=3 n=73 v=0
55984 On ch=3 n=77 v=0
55992 On ch=3 n=80 v=0
56400 On ch=3 n=77 v=110
56400 On ch=3 n=80 v=105
56400 On ch=3 n=73 v=98
56444 On ch=3 n=73 v=0
56448 On ch=3 n=77 v=0
56460 On ch=3 n=80 v=0
56880 On ch=3 n=78 v=100
56880 On ch=3 n=82 v=100
56880 On ch=3 n=73 v=100
56932 On ch=3 n=73 v=0
56932 On ch=3 n=78 v=0
56952 On ch=3 n=82 v=0
57360 On ch=3 n=78 v=105
57360 On ch=3 n=73 v=102
57360 On ch=3 n=82 v=100
57404 On ch=3 n=78 v=0
57412 On ch=3 n=82 v=0
57412 On ch=3 n=73 v=0
57840 On ch=3 n=80 v=91
57840 On ch=3 n=75 v=100
57840 On ch=3 n=84 v=98
57888 On ch=3 n=80 v=0
57900 On ch=3 n=75 v=0
57904 On ch=3 n=84 v=0
58320 On ch=3 n=80 v=98
58320 On ch=3 n=75 v=98
58320 On ch=3 n=84 v=100
58372 On ch=3 n=80 v=0
58384 On ch=3 n=84 v=0
58384 On ch=3 n=75 v=0
58800 On ch=3 n=78 v=95
58800 On ch=3 n=82 v=93
58800 On ch=3 n=73 v=98
58852 On ch=3 n=78 v=0
58860 On ch=3 n=73 v=0
58868 On ch=3 n=82 v=0
59280 On ch=3 n=78 v=100
59280 On ch=3 n=82 v=100
59280 On ch=3 n=73 v=100
59332 On ch=3 n=73 v=0
59332 On ch=3 n=78 v=0
59348 On ch=3 n=82 v=0
59760 On ch=3 n=77 v=105
59760 On ch=3 n=80 v=102
59760 On ch=3 n=73 v=89
59804 On ch=3 n=73 v=0
59824 On ch=3 n=77 v=0
59832 On ch=3 n=80 v=0
60240 On ch=3 n=77 v=107
60240 On ch=3 n=73 v=102
60240 On ch=3 n=80 v=105
60292 On ch=3 n=80 v=0
60292 On ch=3 n=77 v=0
60300 On ch=3 n=73 v=0
60720 On ch=3 n=78 v=98
60720 On ch=3 n=73 v=102
60720 On ch=3 n=82 v=98
60784 On ch=3 n=73 v=0
60784 On ch=3 n=78 v=0
60788 On ch=3 n=82 v=0
61200 On ch=3 n=78 v=98
61200 On ch=3 n=82 v=102
61200 On ch=3 n=73 v=100
61260 On ch=3 n=73 v=0
61264 On ch=3 n=78 v=0
61272 On ch=3 n=82 v=0
61680 On ch=3 n=80 v=100
61680 On ch=3 n=84 v=107
61680 On ch=3 n=75 v=100
61732 On ch=3 n=80 v=0
61740 On ch=3 n=75 v=0
61752 On ch=3 n=84 v=0
62160 On ch=3 n=80 v=102
62160 On ch=3 n=75 v=100
62160 On ch=3 n=84 v=100
62224 On ch=3 n=75 v=0
62224 On ch=3 n=80 v=0
62228 On ch=3 n=84 v=0
62640 On ch=3 n=82 v=100
62640 On ch=3 n=78 v=93
62640 On ch=3 n=73 v=98
62692 On ch=3 n=78 v=0
62704 On ch=3 n=73 v=0
62712 On ch=3 n=82 v=0
63120 On ch=3 n=82 v=102
63120 On ch=3 n=78 v=100
63120 On ch=3 n=73 v=100
63172 On ch=3 n=78 v=0
63180 On ch=3 n=73 v=0
63192 On ch=3 n=82 v=0
63600 On ch=3 n=75 v=100
63600 On ch=3 n=80 v=95
63600 On ch=3 n=84 v=98
63652 On ch=3 n=80 v=0
63660 On ch=3 n=75 v=0
63680 On ch=3 n=84 v=0
64080 On ch=3 n=80 v=95
64080 On ch=3 n=84 v=98
64084 On ch=3 n=75 v=95
64132 On ch=3 n=75 v=0
64132 On ch=3 n=80 v=0
64148 On ch=3 n=84 v=0
64560 On ch=3 n=80 v=98
64560 On ch=3 n=84 v=102
64560 On ch=3 n=75 v=91
64608 On ch=3 n=75 v=0
64608 On ch=3 n=80 v=0
64640 On ch=3 n=84 v=0
65040 On ch=3 n=80 v=100
65040 On ch=3 n=84 v=102
65040 On ch=3 n=75 v=46
65064 On ch=3 n=75 v=0
65084 On ch=3 n=80 v=0
65100 On ch=3 n=84 v=0
65280 On ch=3 n=90 v=102
65280 On ch=3 n=85 v=100
65284 On ch=3 n=82 v=102
65284 On ch=3 n=78 v=78
65468 On ch=3 n=82 v=0
65492 On ch=3 n=85 v=0
65500 On ch=3 n=78 v=0
65520 On ch=3 n=90 v=0
65520 On ch=3 n=85 v=82
65520 On ch=3 n=82 v=64
65572 On ch=3 n=82 v=0
65580 On ch=3 n=85 v=0
66000 On ch=3 n=85 v=93
66000 On ch=3 n=82 v=102
66000 On ch=3 n=78 v=98
66064 On ch=3 n=78 v=0
66064 On ch=3 n=85 v=0
66068 On ch=3 n=82 v=0
66240 On ch=3 n=75 v=74
66240 On ch=3 n=80 v=82
66244 On ch=3 n=84 v=102
66648 On ch=3 n=84 v=0
66664 On ch=3 n=80 v=0
66688 On ch=3 n=75 v=0
66720 On ch=3 n=84 v=95
66720 On ch=3 n=80 v=80
66724 On ch=3 n=87 v=82
67128 On ch=3 n=80 v=0
67152 On ch=3 n=87 v=0
67152 On ch=3 n=84 v=0
67440 On ch=3 n=68 v=95
67440 On ch=3 n=65 v=80
67440 On ch=3 n=73 v=87
67572 On ch=3 n=73 v=0
67572 On ch=3 n=68 v=0
67584 On ch=3 n=65 v=0
67920 On ch=3 n=68 v=89
67920 On ch=3 n=65 v=87
67920 On ch=3 n=73 v=89
68060 On ch=3 n=73 v=0
68060 On ch=3 n=68 v=0
68088 On ch=3 n=65 v=0
68400 On ch=3 n=70 v=93
68400 On ch=3 n=61 v=93
68400 On ch=3 n=66 v=78
68524 On ch=3 n=70 v=0
68528 On ch=3 n=66 v=0
68528 On ch=3 n=61 v=0
68880 On ch=3 n=66 v=85
68880 On ch=3 n=61 v=100
68880 On ch=3 n=70 v=98
69012 On ch=3 n=61 v=0
69020 On ch=3 n=66 v=0
69024 On ch=3 n=70 v=0
69360 On ch=3 n=68 v=89
69360 On ch=3 n=63 v=93
69360 On ch=3 n=73 v=89
69484 On ch=3 n=68 v=0
69492 On ch=3 n=63 v=0
69504 On ch=3 n=73 v=0
69840 On ch=3 n=68 v=87
69840 On ch=3 n=63 v=98
69840 On ch=3 n=73 v=89
69964 On ch=3 n=68 v=0
69980 On ch=3 n=73 v=0
70008 On ch=3 n=63 v=0
70320 On ch=3 n=68 v=87
70320 On ch=3 n=63 v=87
70320 On ch=3 n=72 v=95
70468 On ch=3 n=63 v=0
70468 On ch=3 n=68 v=0
70472 On ch=3 n=72 v=0
70800 On ch=3 n=72 v=91
70800 On ch=3 n=68 v=82
70800 On ch=3 n=63 v=89
70904 On ch=3 n=63 v=0
70920 On ch=3 n=68 v=0
70932 On ch=3 n=72 v=0
71280 On ch=3 n=73 v=93
71280 On ch=3 n=65 v=91
71280 On ch=3 n=68 v=87
71412 On ch=3 n=68 v=0
71428 On ch=3 n=65 v=0
71432 On ch=3 n=73 v=0
71760 On ch=3 n=68 v=91
71760 On ch=3 n=65 v=85
71760 On ch=3 n=73 v=95
71888 On ch=3 n=73 v=0
71892 On ch=3 n=68 v=0
71908 On ch=3 n=65 v=0
72240 On ch=3 n=61 v=93
72240 On ch=3 n=66 v=87
72240 On ch=3 n=70 v=91
72380 On ch=3 n=70 v=0
72380 On ch=3 n=66 v=0
72384 On ch=3 n=61 v=0
72720 On ch=3 n=61 v=95
72720 On ch=3 n=66 v=80
72720 On ch=3 n=70 v=93
72848 On ch=3 n=66 v=0
72852 On ch=3 n=61 v=0
72864 On ch=3 n=70 v=0
73200 On ch=3 n=63 v=87
73200 On ch=3 n=68 v=78
73200 On ch=3 n=73 v=89
73324 On ch=3 n=68 v=0
73332 On ch=3 n=63 v=0
73344 On ch=3 n=73 v=0
73680 On ch=3 n=63 v=93
73680 On ch=3 n=68 v=87
73680 On ch=3 n=73 v=89
73828 On ch=3 n=68 v=0
73840 On ch=3 n=73 v=0
73848 On ch=3 n=63 v=0
74160 On ch=3 n=68 v=82
74160 On ch=3 n=72 v=95
74160 On ch=3 n=63 v=82
74312 On ch=3 n=63 v=0
74312 On ch=3 n=72 v=0
74312 On ch=3 n=68 v=0
74640 On ch=3 n=68 v=85
74640 On ch=3 n=63 v=80
74640 On ch=3 n=72 v=91
74752 On ch=3 n=63 v=0
74764 On ch=3 n=72 v=0
74764 On ch=3 n=68 v=0
75120 On ch=3 n=68 v=89
75120 On ch=3 n=63 v=85
75120 On ch=3 n=72 v=87
75192 On ch=3 n=63 v=0
75200 On ch=3 n=68 v=0
75212 On ch=3 n=72 v=0
75600 On ch=3 n=68 v=89
75600 On ch=3 n=63 v=80
75600 On ch=3 n=72 v=76
75652 On ch=3 n=63 v=0
75672 On ch=3 n=68 v=0
75688 On ch=3 n=72 v=0
76080 On ch=3 n=68 v=87
76080 On ch=3 n=63 v=89
76080 On ch=3 n=72 v=82
76180 On ch=3 n=63 v=0
76180 On ch=3 n=68 v=0
76196 On ch=3 n=72 v=0
76560 On ch=3 n=68 v=93
76560 On ch=3 n=63 v=95
76560 On ch=3 n=72 v=89
76632 On ch=3 n=63 v=0
76632 On ch=3 n=68 v=0
76652 On ch=3 n=72 v=0
77040 On ch=3 n=68 v=98
77040 On ch=3 n=73 v=76
77040 On ch=3 n=65 v=78
77112 On ch=3 n=65 v=0
77112 On ch=3 n=68 v=0
77140 On ch=3 n=73 v=0
77520 On ch=3 n=68 v=87
77520 On ch=3 n=65 v=87
77524 On ch=3 n=73 v=72
77584 On ch=3 n=68 v=0
77592 On ch=3 n=65 v=0
77600 On ch=3 n=73 v=0
78000 On ch=3 n=68 v=93
78000 On ch=3 n=65 v=80
78000 On ch=3 n=73 v=66
78080 On ch=3 n=65 v=0
78080 On ch=3 n=68 v=0
78084 On ch=3 n=73 v=0
78480 On ch=3 n=68 v=102
78480 On ch=3 n=65 v=87
78480 On ch=3 n=73 v=82
78568 On ch=3 n=65 v=0
78572 On ch=3 n=73 v=0
78572 On ch=3 n=68 v=0
78960 On ch=3 n=66 v=93
78960 On ch=3 n=61 v=85
78960 On ch=3 n=70 v=82
79032 On ch=3 n=61 v=0
79040 On ch=3 n=66 v=0
79048 On ch=3 n=70 v=0
79440 On ch=3 n=66 v=89
79440 On ch=3 n=61 v=91
79440 On ch=3 n=70 v=87
79512 On ch=3 n=61 v=0
79524 On ch=3 n=66 v=0
79532 On ch=3 n=70 v=0
79920 On ch=3 n=61 v=93
79920 On ch=3 n=66 v=85
79920 On ch=3 n=70 v=87
80004 On ch=3 n=66 v=0
80020 On ch=3 n=61 v=0
80024 On ch=3 n=70 v=0
80400 On ch=3 n=61 v=95
80400 On ch=3 n=66 v=87
80400 On ch=3 n=70 v=89
80484 On ch=3 n=61 v=0
80492 On ch=3 n=66 v=0
80508 On ch=3 n=70 v=0
80880 On ch=3 n=68 v=91
80880 On ch=3 n=65 v=78
80880 On ch=3 n=73 v=68
80972 On ch=3 n=68 v=0
80984 On ch=3 n=73 v=0
80984 On ch=3 n=65 v=0
81360 On ch=3 n=65 v=89
81360 On ch=3 n=68 v=91
81360 On ch=3 n=73 v=76
81440 On ch=3 n=68 v=0
81452 On ch=3 n=73 v=0
81452 On ch=3 n=65 v=0
81840 On ch=3 n=68 v=95
81840 On ch=3 n=65 v=87
81840 On ch=3 n=73 v=80
81908 On ch=3 n=68 v=0
81928 On ch=3 n=73 v=0
81932 On ch=3 n=65 v=0
82320 On ch=3 n=65 v=89
82320 On ch=3 n=68 v=100
82320 On ch=3 n=73 v=80
82404 On ch=3 n=68 v=0
82412 On ch=3 n=73 v=0
82424 On ch=3 n=65 v=0
82800 On ch=3 n=68 v=93
82800 On ch=3 n=63 v=93
82800 On ch=3 n=72 v=80
82880 On ch=3 n=68 v=0
82884 On ch=3 n=63 v=0
82904 On ch=3 n=72 v=0
83280 On ch=3 n=63 v=95
83280 On ch=3 n=68 v=91
83280 On ch=3 n=72 v=87
83348 On ch=3 n=68 v=0
83352 On ch=3 n=63 v=0
83372 On ch=3 n=72 v=0
83760 On ch=3 n=68 v=89
83760 On ch=3 n=63 v=93
83760 On ch=3 n=72 v=85
83828 On ch=3 n=63 v=0
83832 On ch=3 n=68 v=0
83860 On ch=3 n=72 v=0
84240 On ch=3 n=68 v=93
84240 On ch=3 n=63 v=100
84240 On ch=3 n=72 v=91
84320 On ch=3 n=63 v=0
84320 On ch=3 n=68 v=0
84348 On ch=3 n=72 v=0
84720 On ch=3 n=68 v=100
84720 On ch=3 n=65 v=87
84720 On ch=3 n=73 v=76
84804 On ch=3 n=65 v=0
84804 On ch=3 n=68 v=0
84824 On ch=3 n=73 v=0
85200 On ch=3 n=68 v=98
85200 On ch=3 n=65 v=87
85200 On ch=3 n=73 v=82
85272 On ch=3 n=68 v=0
85280 On ch=3 n=65 v=0
85300 On ch=3 n=73 v=0
85680 On ch=3 n=65 v=87
85680 On ch=3 n=68 v=93
85680 On ch=3 n=73 v=74
85768 On ch=3 n=68 v=0
85788 On ch=3 n=65 v=0
85792 On ch=3 n=73 v=0
86160 On ch=3 n=68 v=91
86160 On ch=3 n=65 v=87
86160 On ch=3 n=73 v=82
86244 On ch=3 n=68 v=0
86248 On ch=3 n=65 v=0
86252 On ch=3 n=73 v=0
86640 On ch=3 n=70 v=98
86640 On ch=3 n=66 v=87
86640 On ch=3 n=61 v=102
86724 On ch=3 n=66 v=0
86732 On ch=3 n=61 v=0
86760 On ch=3 n=70 v=0
87120 On ch=3 n=66 v=82
87120 On ch=3 n=61 v=95
87120 On ch=3 n=70 v=93
87204 On ch=3 n=66 v=0
87212 On ch=3 n=61 v=0
87224 On ch=3 n=70 v=0
87600 On ch=3 n=66 v=87
87600 On ch=3 n=70 v=93
87600 On ch=3 n=61 v=95
87680 On ch=3 n=66 v=0
87700 On ch=3 n=61 v=0
87704 On ch=3 n=70 v=0
88080 On ch=3 n=70 v=89
88080 On ch=3 n=66 v=85
88080 On ch=3 n=61 v=93
88184 On ch=3 n=61 v=0
88184 On ch=3 n=66 v=0
88220 On ch=3 n=70 v=0
88560 On ch=3 n=68 v=87
88560 On ch=3 n=63 v=91
88560 On ch=3 n=72 v=91
88644 On ch=3 n=68 v=0
88652 On ch=3 n=63 v=0
88680 On ch=3 n=72 v=0
89040 On ch=3 n=68 v=89
89040 On ch=3 n=63 v=87
89040 On ch=3 n=72 v=87
89120 On ch=3 n=68 v=0
89132 On ch=3 n=63 v=0
89148 On ch=3 n=72 v=0
89520 On ch=3 n=63 v=98
89520 On ch=3 n=68 v=91
89520 On ch=3 n=72 v=93
89604 On ch=3 n=68 v=0
89608 On ch=3 n=63 v=0
89624 On ch=3 n=72 v=0
90000 On ch=3 n=68 v=98
90004 On ch=3 n=63 v=95
90004 On ch=3 n=72 v=93
90088 On ch=3 n=63 v=0
90088 On ch=3 n=68 v=0
90112 On ch=3 n=72 v=0
90480 On ch=3 n=77 v=98
90480 On ch=3 n=80 v=91
90480 On ch=3 n=73 v=93
90540 On ch=3 n=73 v=0
90548 On ch=3 n=80 v=0
90548 On ch=3 n=77 v=0
90960 On ch=3 n=77 v=100
90960 On ch=3 n=80 v=93
90960 On ch=3 n=73 v=98
91008 On ch=3 n=73 v=0
91020 On ch=3 n=77 v=0
91028 On ch=3 n=80 v=0
91440 On ch=3 n=78 v=95
91440 On ch=3 n=82 v=91
91440 On ch=3 n=73 v=102
91504 On ch=3 n=73 v=0
91512 On ch=3 n=82 v=0
91512 On ch=3 n=78 v=0
91920 On ch=3 n=78 v=102
91920 On ch=3 n=73 v=102
91920 On ch=3 n=82 v=102
91984 On ch=3 n=73 v=0
91992 On ch=3 n=78 v=0
92000 On ch=3 n=82 v=0
92400 On ch=3 n=80 v=98
92400 On ch=3 n=84 v=102
92400 On ch=3 n=75 v=98
92460 On ch=3 n=75 v=0
92460 On ch=3 n=80 v=0
92472 On ch=3 n=84 v=0
92880 On ch=3 n=80 v=100
92880 On ch=3 n=75 v=98
92880 On ch=3 n=84 v=102
92940 On ch=3 n=75 v=0
92940 On ch=3 n=80 v=0
92944 On ch=3 n=84 v=0
93360 On ch=3 n=78 v=100
93360 On ch=3 n=82 v=95
93360 On ch=3 n=73 v=100
93424 On ch=3 n=73 v=0
93424 On ch=3 n=78 v=0
93432 On ch=3 n=82 v=0
93840 On ch=3 n=78 v=100
93840 On ch=3 n=82 v=100
93840 On ch=3 n=73 v=100
93900 On ch=3 n=73 v=0
93900 On ch=3 n=78 v=0
93912 On ch=3 n=82 v=0
94320 On ch=3 n=77 v=105
94320 On ch=3 n=73 v=95
94320 On ch=3 n=80 v=102
94384 On ch=3 n=73 v=0
94384 On ch=3 n=77 v=0
94392 On ch=3 n=80 v=0
94800 On ch=3 n=77 v=110
94800 On ch=3 n=80 v=105
94800 On ch=3 n=73 v=98
94844 On ch=3 n=73 v=0
94848 On ch=3 n=77 v=0
94860 On ch=3 n=80 v=0
95280 On ch=3 n=78 v=100
95280 On ch=3 n=82 v=100
95280 On ch=3 n=73 v=100
95332 On ch=3 n=73 v=0
95332 On ch=3 n=78 v=0
95352 On ch=3 n=82 v=0
95760 On ch=3 n=78 v=105
95760 On ch=3 n=73 v=102
95760 On ch=3 n=82 v=100
95804 On ch=3 n=78 v=0
95812 On ch=3 n=82 v=0
95812 On ch=3 n=73 v=0
96240 On ch=3 n=80 v=91
96240 On ch=3 n=75 v=100
96240 On ch=3 n=84 v=98
96288 On ch=3 n=80 v=0
96300 On ch=3 n=75 v=0
96304 On ch=3 n=84 v=0
96720 On ch=3 n=80 v=98
96720 On ch=3 n=75 v=98
96720 On ch=3 n=84 v=100
96772 On ch=3 n=80 v=0
96784 On ch=3 n=84 v=0
96784 On ch=3 n=75 v=0
97200 On ch=3 n=78 v=95
97200 On ch=3 n=82 v=93
97200 On ch=3 n=73 v=98
97252 On ch=3 n=78 v=0
97260 On ch=3 n=73 v=0
97268 On ch=3 n=82 v=0
97680 On ch=3 n=78 v=100
97680 On ch=3 n=82 v=100
97680 On ch=3 n=73 v=100
97732 On ch=3 n=73 v=0
97732 On ch=3 n=78 v=0
97748 On ch=3 n=82 v=0
98160 On ch=3 n=77 v=105
98160 On ch=3 n=80 v=102
98160 On ch=3 n=73 v=89
98204 On ch=3 n=73 v=0
98224 On ch=3 n=77 v=0
98232 On ch=3 n=80 v=0
98640 On ch=3 n=77 v=107
98640 On ch=3 n=73 v=102
98640 On ch=3 n=80 v=105
98692 On ch=3 n=80 v=0
98692 On ch=3 n=77 v=0
98700 On ch=3 n=73 v=0
99120 On ch=3 n=78 v=98
99120 On ch=3 n=73 v=102
99120 On ch=3 n=82 v=98
99184 On ch=3 n=73 v=0
99184 On ch=3 n=78 v=0
99188 On ch=3 n=82 v=0
99600 On ch=3 n=78 v=98
99600 On ch=3 n=82 v=102
99600 On ch=3 n=73 v=100
99660 On ch=3 n=73 v=0
99664 On ch=3 n=78 v=0
99672 On ch=3 n=82 v=0
100080 On ch=3 n=80 v=100
100080 On ch=3 n=84 v=107
100080 On ch=3 n=75 v=100
100132 On ch=3 n=80 v=0
100140 On ch=3 n=75 v=0
100152 On ch=3 n=84 v=0
100560 On ch=3 n=80 v=102
100560 On ch=3 n=75 v=100
100560 On ch=3 n=84 v=100
100624 On ch=3 n=75 v=0
100624 On ch=3 n=80 v=0
100628 On ch=3 n=84 v=0
101040 On ch=3 n=82 v=100
101040 On ch=3 n=78 v=93
101040 On ch=3 n=73 v=98
101092 On ch=3 n=78 v=0
101104 On ch=3 n=73 v=0
101112 On ch=3 n=82 v=0
101520 On ch=3 n=82 v=102
101520 On ch=3 n=78 v=100
101520 On ch=3 n=73 v=100
101572 On ch=3 n=78 v=0
101580 On ch=3 n=73 v=0
101592 On ch=3 n=82 v=0
102000 On ch=3 n=75 v=100
102000 On ch=3 n=80 v=95
102000 On ch=3 n=84 v=98
102052 On ch=3 n=80 v=0
102060 On ch=3 n=75 v=0
102080 On ch=3 n=84 v=0
102480 On ch=3 n=80 v=95
102480 On ch=3 n=84 v=98
102484 On ch=3 n=75 v=95
102532 On ch=3 n=75 v=0
102532 On ch=3 n=80 v=0
102548 On ch=3 n=84 v=0
102960 On ch=3 n=80 v=98
102960 On ch=3 n=84 v=102
102960 On ch=3 n=75 v=91
103008 On ch=3 n=75 v=0
103008 On ch=3 n=80 v=0
103040 On ch=3 n=84 v=0
103440 On ch=3 n=80 v=100
103440 On ch=3 n=84 v=102
103440 On ch=3 n=75 v=46
103464 On ch=3 n=75 v=0
103484 On ch=3 n=80 v=0
103500 On ch=3 n=84 v=0
103680 On ch=3 n=90 v=102
103680 On ch=3 n=85 v=100
103684 On ch=3 n=82 v=102
103684 On ch=3 n=78 v=78
103868 On ch=3 n=82 v=0
103892 On ch=3 n=85 v=0
103900 On ch=3 n=78 v=0
103920 On ch=3 n=90 v=0
103920 On ch=3 n=85 v=82
103920 On ch=3 n=82 v=64
103972 On ch=3 n=82 v=0
103980 On ch=3 n=85 v=0
104400 On ch=3 n=85 v=93
104400 On ch=3 n=82 v=102
104400 On ch=3 n=78 v=98
104464 On ch=3 n=78 v=0
104464 On ch=3 n=85 v=0
104468 On ch=3 n=82 v=0
104640 On ch=3 n=75 v=74
104640 On ch=3 n=80 v=82
104644 On ch=3 n=84 v=102
105048 On ch=3 n=84 v=0
105064 On ch=3 n=80 v=0
105088 On ch=3 n=75 v=0
105120 On ch=3 n=84 v=95
105120 On ch=3 n=80 v=80
105124 On ch=3 n=87 v=82
105528 On ch=3 n=80 v=0
105552 On ch=3 n=87 v=0
105552 On ch=3 n=84 v=0
105840 On ch=3 n=77 v=98
105840 On ch=3 n=80 v=91
105840 On ch=3 n=73 v=93
105900 On ch=3 n=73 v=0
105908 On ch=3 n=80 v=0
105908 On ch=3 n=77 v=0
106320 On ch=3 n=77 v=100
106320 On ch=3 n=80 v=93
106320 On ch=3 n=73 v=98
106368 On ch=3 n=73 v=0
106380 On ch=3 n=77 v=0
106388 On ch=3 n=80 v=0
106800 On ch=3 n=78 v=95
106800 On ch=3 n=82 v=91
106800 On ch=3 n=73 v=102
106864 On ch=3 n=73 v=0
106872 On ch=3 n=82 v=0
106872 On ch=3 n=78 v=0
107280 On ch=3 n=78 v=102
107280 On ch=3 n=73 v=102
107280 On ch=3 n=82 v=102
107344 On ch=3 n=73 v=0
107352 On ch=3 n=78 v=0
107360 On ch=3 n=82 v=0
107760 On ch=3 n=80 v=98
107760 On ch=3 n=84 v=102
107760 On ch=3 n=75 v=98
107820 On ch=3 n=75 v=0
107820 On ch=3 n=80 v=0
107832 On ch=3 n=84 v=0
108240 On ch=3 n=80 v=100
108240 On ch=3 n=75 v=98
108240 On ch=3 n=84 v=102
108300 On ch=3 n=75 v=0
108300 On ch=3 n=80 v=0
108304 On ch=3 n=84 v=0
108720 On ch=3 n=78 v=100
108720 On ch=3 n=82 v=95
108720 On ch=3 n=73 v=100
108784 On ch=3 n=73 v=0
108784 On ch=3 n=78 v=0
108792 On ch=3 n=82 v=0
109200 On ch=3 n=78 v=100
109200 On ch=3 n=82 v=100
109200 On ch=3 n=73 v=100
109260 On ch=3 n=73 v=0
109260 On ch=3 n=78 v=0
109272 On ch=3 n=82 v=0
109680 On ch=3 n=77 v=105
109680 On ch=3 n=73 v=95
109680 On ch=3 n=80 v=102
109744 On ch=3 n=73 v=0
109744 On ch=3 n=77 v=0
109752 On ch=3 n=80 v=0
110160 On ch=3 n=77 v=110
110160 On ch=3 n=80 v=105
110160 On ch=3 n=73 v=98
110204 On ch=3 n=73 v=0
110208 On ch=3 n=77 v=0
110220 On ch=3 n=80 v=0
110640 On ch=3 n=78 v=100
110640 On ch=3 n=82 v=100
110640 On ch=3 n=73 v=100
110692 On ch=3 n=73 v=0
110692 On ch=3 n=78 v=0
110712 On ch=3 n=82 v=0
111120 On ch=3 n=78 v=105
111120 On ch=3 n=73 v=102
111120 On ch=3 n=82 v=100
111164 On ch=3 n=78 v=0
111172 On ch=3 n=82 v=0
111172 On ch=3 n=73 v=0
111600 On ch=3 n=80 v=91
111600 On ch=3 n=75 v=100
111600 On ch=3 n=84 v=98
111648 On ch=3 n=80 v=0
111660 On ch=3 n=75 v=0
111664 On ch=3 n=84 v=0
112080 On ch=3 n=80 v=98
112080 On ch=3 n=75 v=98
112080 On ch=3 n=84 v=100
112132 On ch=3 n=80 v=0
112144 On ch=3 n=84 v=0
112144 On ch=3 n=75 v=0
112560 On ch=3 n=78 v=95
112560 On ch=3 n=82 v=93
112560 On ch=3 n=73 v=98
112612 On ch=3 n=78 v=0
112620 On ch=3 n=73 v=0
112628 On ch=3 n=82 v=0
113040 On ch=3 n=78 v=100
113040 On ch=3 n=82 v=100
113040 On ch=3 n=73 v=100
113092 On ch=3 n=73 v=0
113092 On ch=3 n=78 v=0
113108 On ch=3 n=82 v=0
113520 On ch=3 n=77 v=105
113520 On ch=3 n=80 v=102
113520 On ch=3 n=73 v=89
113564 On ch=3 n=73 v=0
113584 On ch=3 n=77 v=0
113592 On ch=3 n=80 v=0
114000 On ch=3 n=77 v=107
114000 On ch=3 n=73 v=102
114000 On ch=3 n=80 v=105
114052 On ch=3 n=80 v=0
114052 On ch=3 n=77 v=0
114060 On ch=3 n=73 v=0
114480 On ch=3 n=78 v=98
114480 On ch=3 n=73 v=102
114480 On ch=3 n=82 v=98
114544 On ch=3 n=73 v=0
114544 On ch=3 n=78 v=0
114548 On ch=3 n=82 v=0
114960 On ch=3 n=78 v=98
114960 On ch=3 n=82 v=102
114960 On ch=3 n=73 v=100
115020 On ch=3 n=73 v=0
115024 On ch=3 n=78 v=0
115032 On ch=3 n=82 v=0
115440 On ch=3 n=80 v=100
115440 On ch=3 n=84 v=107
115440 On ch=3 n=75 v=100
115492 On ch=3 n=80 v=0
115500 On ch=3 n=75 v=0
115512 On ch=3 n=84 v=0
115920 On ch=3 n=80 v=102
115920 On ch=3 n=75 v=100
115920 On ch=3 n=84 v=100
115984 On ch=3 n=75 v=0
115984 On ch=3 n=80 v=0
115988 On ch=3 n=84 v=0
116400 On ch=3 n=82 v=100
116400 On ch=3 n=78 v=93
116400 On ch=3 n=73 v=98
116452 On ch=3 n=78 v=0
116464 On ch=3 n=73 v=0
116472 On ch=3 n=82 v=0
116880 On ch=3 n=82 v=102
116880 On ch=3 n=78 v=100
116880 On ch=3 n=73 v=100
116932 On ch=3 n=78 v=0
116940 On ch=3 n=73 v=0
116952 On ch=3 n=82 v=0
117360 On ch=3 n=75 v=100
117360 On ch=3 n=80 v=95
117360 On ch=3 n=84 v=98
117412 On ch=3 n=80 v=0
117420 On ch=3 n=75 v=0
117440 On ch=3 n=84 v=0
117840 On ch=3 n=80 v=95
117840 On ch=3 n=84 v=98
117844 On ch=3 n=75 v=95
117892 On ch=3 n=75 v=0
117892 On ch=3 n=80 v=0
117908 On ch=3 n=84 v=0
118320 On ch=3 n=80 v=98
118320 On ch=3 n=84 v=102
118320 On ch=3 n=75 v=91
118368 On ch=3 n=75 v=0
118368 On ch=3 n=80 v=0
118400 On ch=3 n=84 v=0
118800 On ch=3 n=80 v=100
118800 On ch=3 n=84 v=102
118800 On ch=3 n=75 v=46
118824 On ch=3 n=75 v=0
118844 On ch=3 n=80 v=0
118860 On ch=3 n=84 v=0
119040 On ch=3 n=90 v=102
119040 On ch=3 n=85 v=100
119044 On ch=3 n=82 v=102
119044 On ch=3 n=78 v=78
119228 On ch=3 n=82 v=0
119252 On ch=3 n=85 v=0
119260 On ch=3 n=78 v=0
119280 On ch=3 n=90 v=0
119280 On ch=3 n=85 v=82
119280 On ch=3 n=82 v=64
119332 On ch=3 n=82 v=0
119340 On ch=3 n=85 v=0
119760 On ch=3 n=85 v=93
119760 On ch=3 n=82 v=102
119760 On ch=3 n=78 v=98
119824 On ch=3 n=78 v=0
119824 On ch=3 n=85 v=0
119828 On ch=3 n=82 v=0
120000 On ch=3 n=75 v=74
120000 On ch=3 n=80 v=82
120004 On ch=3 n=84 v=102
120408 On ch=3 n=84 v=0
120424 On ch=3 n=80 v=0
120448 On ch=3 n=75 v=0
120480 On ch=3 n=84 v=95
120480 On ch=3 n=80 v=80
120484 On ch=3 n=87 v=82
120888 On ch=3 n=80 v=0
120912 On ch=3 n=87 v=0
120912 On ch=3 n=84 v=0
121200 On ch=3 n=77 v=98
121200 On ch=3 n=80 v=91
121200 On ch=3 n=73 v=93
121260 On ch=3 n=73 v=0
121268 On ch=3 n=80 v=0
121268 On ch=3 n=77 v=0
121680 On ch=3 n=77 v=100
121680 On ch=3 n=80 v=93
121680 On ch=3 n=73 v=98
121728 On ch=3 n=73 v=0
121740 On ch=3 n=77 v=0
121748 On ch=3 n=80 v=0
122160 On ch=3 n=78 v=95
122160 On ch=3 n=82 v=91
122160 On ch=3 n=73 v=102
122224 On ch=3 n=73 v=0
122232 On ch=3 n=82 v=0
122232 On ch=3 n=78 v=0
122640 On ch=3 n=78 v=102
122640 On ch=3 n=73 v=102
122640 On ch=3 n=82 v=102
122704 On ch=3 n=73 v=0
122712 On ch=3 n=78 v=0
122720 On ch=3 n=82 v=0
123120 On ch=3 n=80 v=98
123120 On ch=3 n=84 v=102
123120 On ch=3 n=75 v=98
123180 On ch=3 n=75 v=0
123180 On ch=3 n=80 v=0
123192 On ch=3 n=84 v=0
123600 On ch=3 n=80 v=100
123600 On ch=3 n=75 v=98
123600 On ch=3 n=84 v=102
123660 On ch=3 n=75 v=0
123660 On ch=3 n=80 v=0
123664 On ch=3 n=84 v=0
124080 On ch=3 n=78 v=100
124080 On ch=3 n=82 v=95
124080 On ch=3 n=73 v=100
124144 On ch=3 n=73 v=0
124144 On ch=3 n=78 v=0
124152 On ch=3 n=82 v=0
124560 On ch=3 n=78 v=100
124560 On ch=3 n=82 v=100
124560 On ch=3 n=73 v=100
124620 On ch=3 n=73 v=0
124620 On ch=3 n=78 v=0
124632 On ch=3 n=82 v=0
125040 On ch=3 n=77 v=105
125040 On ch=3 n=73 v=95
125040 On ch=3 n=80 v=102
125104 On ch=3 n=73 v=0
125104 On ch=3 n=77 v=0
125112 On ch=3 n=80 v=0
125520 On ch=3 n=77 v=110
125520 On ch=3 n=80 v=105
125520 On ch=3 n=73 v=98
125564 On ch=3 n=73 v=0
125568 On ch=3 n=77 v=0
125580 On ch=3 n=80 v=0
126000 On ch=3 n=78 v=100
126000 On ch=3 n=82 v=100
126000 On ch=3 n=73 v=100
126052 On ch=3 n=73 v=0
126052 On ch=3 n=78 v=0
126072 On ch=3 n=82 v=0
126480 On ch=3 n=78 v=105
126480 On ch=3 n=73 v=102
126480 On ch=3 n=82 v=100
126524 On ch=3 n=78 v=0
126532 On ch=3 n=82 v=0
126532 On ch=3 n=73 v=0
126960 On ch=3 n=80 v=91
126960 On ch=3 n=75 v=100
126960 On ch=3 n=84 v=98
127008 On ch=3 n=80 v=0
127020 On ch=3 n=75 v=0
127024 On ch=3 n=84 v=0
127440 On ch=3 n=80 v=98
127440 On ch=3 n=75 v=98
127440 On ch=3 n=84 v=100
127492 On ch=3 n=80 v=0
127504 On ch=3 n=84 v=0
127504 On ch=3 n=75 v=0
127920 On ch=3 n=78 v=95
127920 On ch=3 n=82 v=93
127920 On ch=3 n=73 v=98
127972 On ch=3 n=78 v=0
127980 On ch=3 n=73 v=0
127988 On ch=3 n=82 v=0
128400 On ch=3 n=78 v=100
128400 On ch=3 n=82 v=100
128400 On ch=3 n=73 v=100
128452 On ch=3 n=73 v=0
128452 On ch=3 n=78 v=0
128468 On ch=3 n=82 v=0
128880 On ch=3 n=77 v=105
128880 On ch=3 n=80 v=102
128880 On ch=3 n=73 v=89
128924 On ch=3 n=73 v=0
128944 On ch=3 n=77 v=0
128952 On ch=3 n=80 v=0
129360 On ch=3 n=77 v=107
129360 On ch=3 n=73 v=102
129360 On ch=3 n=80 v=105
129412 On ch=3 n=80 v=0
129412 On ch=3 n=77 v=0
129420 On ch=3 n=73 v=0
129840 On ch=3 n=78 v=98
129840 On ch=3 n=73 v=102
129840 On ch=3 n=82 v=98
129904 On ch=3 n=73 v=0
129904 On ch=3 n=78 v=0
129908 On ch=3 n=82 v=0
130320 On ch=3 n=78 v=98
130320 On ch=3 n=82 v=102
130320 On ch=3 n=73 v=100
130380 On ch=3 n=73 v=0
130384 On ch=3 n=78 v=0
130392 On ch=3 n=82 v=0
130800 On ch=3 n=80 v=100
130800 On ch=3 n=84 v=107
130800 On ch=3 n=75 v=100
130852 On ch=3 n=80 v=0
130860 On ch=3 n=75 v=0
130872 On ch=3 n=84 v=0
131280 On ch=3 n=80 v=102
131280 On ch=3 n=75 v=100
131280 On ch=3 n=84 v=100
131344 On ch=3 n=75 v=0
131344 On ch=3 n=80 v=0
131348 On ch=3 n=84 v=0
131760 On ch=3 n=82 v=100
131760 On ch=3 n=78 v=93
131760 On ch=3 n=73 v=98
131812 On ch=3 n=78 v=0
131824 On ch=3 n=73 v=0
131832 On ch=3 n=82 v=0
132240 On ch=3 n=82 v=102
132240 On ch=3 n=78 v=100
132240 On ch=3 n=73 v=100
132292 On ch=3 n=78 v=0
132300 On ch=3 n=73 v=0
132312 On ch=3 n=82 v=0
132720 On ch=3 n=75 v=100
132720 On ch=3 n=80 v=95
132720 On ch=3 n=84 v=98
132772 On ch=3 n=80 v=0
132780 On ch=3 n=75 v=0
132800 On ch=3 n=84 v=0
133200 On ch=3 n=80 v=95
133204 On ch=3 n=84 v=98
133204 On ch=3 n=75 v=95
133252 On ch=3 n=75 v=0
133252 On ch=3 n=80 v=0
133268 On ch=3 n=84 v=0
133680 On ch=3 n=80 v=98
133680 On ch=3 n=84 v=102
133680 On ch=3 n=75 v=91
133728 On ch=3 n=75 v=0
133728 On ch=3 n=80 v=0
133760 On ch=3 n=84 v=0
134160 On ch=3 n=80 v=100
134160 On ch=3 n=84 v=102
134160 On ch=3 n=75 v=46
134184 On ch=3 n=75 v=0
134204 On ch=3 n=80 v=0
134220 On ch=3 n=84 v=0
134400 On ch=3 n=90 v=102
134400 On ch=3 n=85 v=100
134404 On ch=3 n=82 v=102
134404 On ch=3 n=78 v=78
134588 On ch=3 n=82 v=0
134612 On ch=3 n=85 v=0
134620 On ch=3 n=78 v=0
134640 On ch=3 n=90 v=0
134640 On ch=3 n=85 v=82
134640 On ch=3 n=82 v=64
134692 On ch=3 n=82 v=0
134700 On ch=3 n=85 v=0
135120 On ch=3 n=85 v=93
135120 On ch=3 n=82 v=102
135120 On ch=3 n=78 v=98
135184 On ch=3 n=78 v=0
135184 On ch=3 n=85 v=0
135188 On ch=3 n=82 v=0
135360 On ch=3 n=75 v=74
135360 On ch=3 n=80 v=82
135364 On ch=3 n=84 v=102
135768 On ch=3 n=84 v=0
135784 On ch=3 n=80 v=0
135808 On ch=3 n=75 v=0
135840 On ch=3 n=84 v=95
135840 On ch=3 n=80 v=80
135844 On ch=3 n=87 v=82
136248 On ch=3 n=80 v=0
136272 On ch=3 n=87 v=0
136272 On ch=3 n=84 v=0
136560 On ch=3 n=77 v=98
136560 On ch=3 n=80 v=91
136560 On ch=3 n=73 v=93
136620 On ch=3 n=73 v=0
136628 On ch=3 n=80 v=0
136628 On ch=3 n=77 v=0
137040 On ch=3 n=77 v=100
137040 On ch=3 n=80 v=93
137040 On ch=3 n=73 v=98
137088 On ch=3 n=73 v=0
137100 On ch=3 n=77 v=0
137108 On ch=3 n=80 v=0
137520 On ch=3 n=78 v=95
137520 On ch=3 n=82 v=91
137520 On ch=3 n=73 v=102
137584 On ch=3 n=73 v=0
137592 On ch=3 n=82 v=0
137592 On ch=3 n=78 v=0
138000 On ch=3 n=78 v=102
138000 On ch=3 n=73 v=102
138000 On ch=3 n=82 v=102
138064 On ch=3 n=73 v=0
138072 On ch=3 n=78 v=0
138080 On ch=3 n=82 v=0
138480 On ch=3 n=80 v=98
138480 On ch=3 n=84 v=102
138480 On ch=3 n=75 v=98
138540 On ch=3 n=75 v=0
138540 On ch=3 n=80 v=0
138552 On ch=3 n=84 v=0
138960 On ch=3 n=80 v=100
138960 On ch=3 n=75 v=98
138960 On ch=3 n=84 v=102
139020 On ch=3 n=75 v=0
139020 On ch=3 n=80 v=0
139024 On ch=3 n=84 v=0
139440 On ch=3 n=78 v=100
139440 On ch=3 n=82 v=95
139440 On ch=3 n=73 v=100
139504 On ch=3 n=73 v=0
139504 On ch=3 n=78 v=0
139512 On ch=3 n=82 v=0
139920 On ch=3 n=78 v=100
139920 On ch=3 n=82 v=100
139920 On ch=3 n=73 v=100
139980 On ch=3 n=73 v=0
139980 On ch=3 n=78 v=0
139992 On ch=3 n=82 v=0
140400 On ch=3 n=77 v=105
140400 On ch=3 n=73 v=95
140400 On ch=3 n=80 v=102
140464 On ch=3 n=73 v=0
140464 On ch=3 n=77 v=0
140472 On ch=3 n=80 v=0
140880 On ch=3 n=77 v=110
140880 On ch=3 n=80 v=105
140880 On ch=3 n=73 v=98
140924 On ch=3 n=73 v=0
140928 On ch=3 n=77 v=0
140940 On ch=3 n=80 v=0
141360 On ch=3 n=78 v=100
141360 On ch=3 n=82 v=100
141360 On ch=3 n=73 v=100
141412 On ch=3 n=73 v=0
141412 On ch=3 n=78 v=0
141432 On ch=3 n=82 v=0
141840 On ch=3 n=78 v=105
141840 On ch=3 n=73 v=102
141840 On ch=3 n=82 v=100
141884 On ch=3 n=78 v=0
141892 On ch=3 n=82 v=0
141892 On ch=3 n=73 v=0
142320 On ch=3 n=80 v=91
142320 On ch=3 n=75 v=100
142320 On ch=3 n=84 v=98
142368 On ch=3 n=80 v=0
142380 On ch=3 n=75 v=0
142384 On ch=3 n=84 v=0
142800 On ch=3 n=80 v=98
142800 On ch=3 n=75 v=98
142800 On ch=3 n=84 v=100
142852 On ch=3 n=80 v=0
142864 On ch=3 n=84 v=0
142864 On ch=3 n=75 v=0
143280 On ch=3 n=78 v=95
143280 On ch=3 n=82 v=93
143280 On ch=3 n=73 v=98
143332 On ch=3 n=78 v=0
143340 On ch=3 n=73 v=0
143348 On ch=3 n=82 v=0
143760 On ch=3 n=78 v=100
143760 On ch=3 n=82 v=100
143760 On ch=3 n=73 v=100
143812 On ch=3 n=73 v=0
143812 On ch=3 n=78 v=0
143828 On ch=3 n=82 v=0
144240 On ch=3 n=77 v=105
144240 On ch=3 n=80 v=102
144240 On ch=3 n=73 v=89
144284 On ch=3 n=73 v=0
144304 On ch=3 n=77 v=0
144312 On ch=3 n=80 v=0
144720 On ch=3 n=77 v=107
144720 On ch=3 n=73 v=102
144720 On ch=3 n=80 v=105
144772 On ch=3 n=80 v=0
144772 On ch=3 n=77 v=0
144780 On ch=3 n=73 v=0
145200 On ch=3 n=78 v=98
145200 On ch=3 n=73 v=102
145200 On ch=3 n=82 v=98
145264 On ch=3 n=73 v=0
145264 On ch=3 n=78 v=0
145268 On ch=3 n=82 v=0
145680 On ch=3 n=78 v=98
145680 On ch=3 n=82 v=102
145680 On ch=3 n=73 v=100
145740 On ch=3 n=73 v=0
145744 On ch=3 n=78 v=0
145752 On ch=3 n=82 v=0
146160 On ch=3 n=80 v=100
146160 On ch=3 n=84 v=107
146160 On ch=3 n=75 v=100
146212 On ch=3 n=80 v=0
146220 On ch=3 n=75 v=0
146232 On ch=3 n=84 v=0
146640 On ch=3 n=80 v=102
146640 On ch=3 n=75 v=100
146640 On ch=3 n=84 v=100
146704 On ch=3 n=75 v=0
146704 On ch=3 n=80 v=0
146708 On ch=3 n=84 v=0
147120 On ch=3 n=82 v=100
147120 On ch=3 n=78 v=93
147120 On ch=3 n=73 v=98
147172 On ch=3 n=78 v=0
147184 On ch=3 n=73 v=0
147192 On ch=3 n=82 v=0
147600 On ch=3 n=82 v=102
147600 On ch=3 n=78 v=100
147600 On ch=3 n=73 v=100
147652 On ch=3 n=78 v=0
147660 On ch=3 n=73 v=0
147672 On ch=3 n=82 v=0
148080 On ch=3 n=75 v=100
148080 On ch=3 n=80 v=95
148080 On ch=3 n=84 v=98
148132 On ch=3 n=80 v=0
148140 On ch=3 n=75 v=0
148160 On ch=3 n=84 v=0
148560 On ch=3 n=80 v=95
148564 On ch=3 n=84 v=98
148564 On ch=3 n=75 v=95
148612 On ch=3 n=75 v=0
148612 On ch=3 n=80 v=0
148628 On ch=3 n=84 v=0
149040 On ch=3 n=80 v=98
149040 On ch=3 n=84 v=102
149040 On ch=3 n=75 v=91
149088 On ch=3 n=75 v=0
149088 On ch=3 n=80 v=0
149120 On ch=3 n=84 v=0
149520 On ch=3 n=80 v=100
149520 On ch=3 n=84 v=102
149520 On ch=3 n=75 v=46
149544 On ch=3 n=75 v=0
149564 On ch=3 n=80 v=0
149580 On ch=3 n=84 v=0
149760 On ch=3 n=90 v=102
149760 On ch=3 n=85 v=100
149764 On ch=3 n=82 v=102
149764 On ch=3 n=78 v=78
149948 On ch=3 n=82 v=0
149972 On ch=3 n=85 v=0
149980 On ch=3 n=78 v=0
150000 On ch=3 n=90 v=0
150000 On ch=3 n=85 v=82
150000 On ch=3 n=82 v=64
150052 On ch=3 n=82 v=0
150060 On ch=3 n=85 v=0
150480 On ch=3 n=85 v=93
150480 On ch=3 n=82 v=102
150480 On ch=3 n=78 v=98
150544 On ch=3 n=78 v=0
150544 On ch=3 n=85 v=0
150548 On ch=3 n=82 v=0
150720 On ch=3 n=75 v=74
150720 On ch=3 n=80 v=82
150724 On ch=3 n=84 v=102
151128 On ch=3 n=84 v=0
151144 On ch=3 n=80 v=0
151168 On ch=3 n=75 v=0
151200 On ch=3 n=84 v=95
151200 On ch=3 n=80 v=80
151204 On ch=3 n=87 v=82
151608 On ch=3 n=80 v=0
151632 On ch=3 n=87 v=0
151632 On ch=3 n=84 v=0
151672 On ch=3 n=73 v=82
151676 On ch=3 n=65 v=66
151676 On ch=3 n=68 v=82
152972 On ch=3 n=73 v=0
152980 On ch=3 n=68 v=0
152980 On ch=3 n=65 v=0
152980 Meta TrkEnd
TrkEnd
MTrk
0 Meta 0x21 00
0 Meta TrkName "Bright Acoustic Piano"
0 PrCh ch=4 p=1
0 Par ch=4 c=7 v=127
2160 On ch=4 n=65 v=100
2160 On ch=4 n=61 v=102
2164 On ch=4 n=68 v=89
2192 On ch=4 n=68 v=0
2192 On ch=4 n=61 v=0
2212 On ch=4 n=65 v=0
2640 On ch=4 n=65 v=102
2644 On ch=4 n=61 v=100
2644 On ch=4 n=68 v=91
2664 On ch=4 n=68 v=0
2664 On ch=4 n=61 v=0
2684 On ch=4 n=65 v=0
3120 On ch=4 n=66 v=98
3120 On ch=4 n=70 v=87
3124 On ch=4 n=61 v=82
3160 On ch=4 n=61 v=0
3164 On ch=4 n=70 v=0
3172 On ch=4 n=66 v=0
3600 On ch=4 n=66 v=102
3604 On ch=4 n=70 v=82
3604 On ch=4 n=61 v=98
3624 On ch=4 n=61 v=0
3624 On ch=4 n=70 v=0
3632 On ch=4 n=66 v=0
4080 On ch=4 n=63 v=98
4080 On ch=4 n=68 v=98
4084 On ch=4 n=72 v=95
4108 On ch=4 n=63 v=0
4124 On ch=4 n=72 v=0
4124 On ch=4 n=68 v=0
4560 On ch=4 n=68 v=87
4564 On ch=4 n=63 v=100
4564 On ch=4 n=72 v=91
4584 On ch=4 n=72 v=0
4584 On ch=4 n=63 v=0
4584 On ch=4 n=68 v=0
5040 On ch=4 n=70 v=80
5040 On ch=4 n=66 v=85
5040 On ch=4 n=61 v=87
5072 On ch=4 n=61 v=0
5072 On ch=4 n=66 v=0
5080 On ch=4 n=70 v=0
5520 On ch=4 n=66 v=102
5524 On ch=4 n=70 v=87
5524 On ch=4 n=61 v=85
5560 On ch=4 n=70 v=0
5564 On ch=4 n=61 v=0
5564 On ch=4 n=66 v=0
6000 On ch=4 n=65 v=87
6000 On ch=4 n=68 v=72
6000 On ch=4 n=61 v=87
6020 On ch=4 n=61 v=0
6028 On ch=4 n=68 v=0
6048 On ch=4 n=65 v=0
6480 On ch=4 n=68 v=87
6484 On ch=4 n=65 v=87
6484 On ch=4 n=61 v=91
6504 On ch=4 n=61 v=0
6504 On ch=4 n=68 v=0
6512 On ch=4 n=65 v=0
6960 On ch=4 n=70 v=82
6960 On ch=4 n=66 v=78
6960 On ch=4 n=61 v=80
6992 On ch=4 n=61 v=0
6992 On ch=4 n=66 v=0
7000 On ch=4 n=70 v=0
7440 On ch=4 n=66 v=100
7444 On ch=4 n=70 v=82
7444 On ch=4 n=61 v=91
7472 On ch=4 n=61 v=0
7472 On ch=4 n=70 v=0
7484 On ch=4 n=66 v=0
7920 On ch=4 n=68 v=87
7920 On ch=4 n=72 v=87
7920 On ch=4 n=63 v=80
7952 On ch=4 n=63 v=0
7968 On ch=4 n=68 v=0
7972 On ch=4 n=72 v=0
8400 On ch=4 n=72 v=98
8404 On ch=4 n=68 v=82
8404 On ch=4 n=63 v=82
8440 On ch=4 n=63 v=0
8444 On ch=4 n=68 v=0
8448 On ch=4 n=72 v=0
8880 On ch=4 n=61 v=85
8880 On ch=4 n=70 v=78
8880 On ch=4 n=66 v=80
8924 On ch=4 n=66 v=0
8924 On ch=4 n=70 v=0
8924 On ch=4 n=61 v=0
9360 On ch=4 n=70 v=82
9364 On ch=4 n=66 v=98
9364 On ch=4 n=61 v=85
9400 On ch=4 n=61 v=0
9404 On ch=4 n=70 v=0
9408 On ch=4 n=66 v=0
9840 On ch=4 n=68 v=89
9840 On ch=4 n=65 v=87
9840 On ch=4 n=61 v=78
9868 On ch=4 n=61 v=0
9880 On ch=4 n=65 v=0
9880 On ch=4 n=68 v=0
10320 On ch=4 n=61 v=102
10320 On ch=4 n=68 v=87
10324 On ch=4 n=65 v=70
10360 On ch=4 n=68 v=0
10364 On ch=4 n=65 v=0
10364 On ch=4 n=61 v=0
10800 On ch=4 n=66 v=95
10800 On ch=4 n=70 v=82
10800 On ch=4 n=61 v=87
10824 On ch=4 n=61 v=0
10832 On ch=4 n=70 v=0
10844 On ch=4 n=66 v=0
11280 On ch=4 n=66 v=91
11284 On ch=4 n=70 v=66
11284 On ch=4 n=61 v=87
11312 On ch=4 n=61 v=0
11312 On ch=4 n=70 v=0
11324 On ch=4 n=66 v=0
11760 On ch=4 n=68 v=85
11760 On ch=4 n=72 v=100
11764 On ch=4 n=63 v=91
11788 On ch=4 n=63 v=0
11800 On ch=4 n=68 v=0
11808 On ch=4 n=72 v=0
12240 On ch=4 n=68 v=85
12244 On ch=4 n=72 v=87
12244 On ch=4 n=63 v=85
12268 On ch=4 n=63 v=0
12300 On ch=4 n=68 v=0
12312 On ch=4 n=72 v=0
12720 On ch=4 n=61 v=89
12720 On ch=4 n=70 v=87
12724 On ch=4 n=66 v=82
12760 On ch=4 n=66 v=0
12760 On ch=4 n=61 v=0
12764 On ch=4 n=70 v=0
13200 On ch=4 n=70 v=82
13204 On ch=4 n=66 v=91
13204 On ch=4 n=61 v=80
13224 On ch=4 n=61 v=0
13248 On ch=4 n=66 v=0
13268 On ch=4 n=70 v=0
13680 On ch=4 n=63 v=85
13680 On ch=4 n=72 v=95
13684 On ch=4 n=68 v=61
13704 On ch=4 n=68 v=0
13704 On ch=4 n=63 v=0
13728 On ch=4 n=72 v=0
14164 On ch=4 n=68 v=85
14164 On ch=4 n=63 v=82
14164 On ch=4 n=72 v=91
14184 On ch=4 n=63 v=0
14200 On ch=4 n=68 v=0
14208 On ch=4 n=72 v=0
14640 On ch=4 n=63 v=95
14640 On ch=4 n=68 v=85
14644 On ch=4 n=72 v=87
14672 On ch=4 n=72 v=0
14672 On ch=4 n=68 v=0
14676 On ch=4 n=63 v=0
15120 On ch=4 n=63 v=100
15124 On ch=4 n=68 v=89
15124 On ch=4 n=72 v=95
15168 On ch=4 n=63 v=0
15172 On ch=4 n=72 v=0
15184 On ch=4 n=68 v=0
15600 On ch=4 n=66 v=91
15604 On ch=4 n=70 v=80
15604 On ch=4 n=61 v=80
15620 On ch=4 n=61 v=0
15640 On ch=4 n=70 v=0
15644 On ch=4 n=66 v=0
16080 On ch=4 n=61 v=107
16084 On ch=4 n=70 v=98
16084 On ch=4 n=66 v=100
16120 On ch=4 n=61 v=0
16128 On ch=4 n=66 v=0
16128 On ch=4 n=70 v=0
16560 On ch=4 n=72 v=100
16560 On ch=4 n=68 v=85
16560 On ch=4 n=63 v=98
16588 On ch=4 n=63 v=0
16592 On ch=4 n=68 v=0
16612 On ch=4 n=72 v=0
17040 On ch=4 n=68 v=95
17040 On ch=4 n=72 v=98
17040 On ch=4 n=63 v=98
17068 On ch=4 n=63 v=0
17072 On ch=4 n=68 v=0
17092 On ch=4 n=72 v=0
17520 On ch=4 n=65 v=100
17520 On ch=4 n=68 v=93
17520 On ch=4 n=61 v=95
17552 On ch=4 n=61 v=0
17564 On ch=4 n=68 v=0
17584 On ch=4 n=65 v=0
18000 On ch=4 n=61 v=95
18004 On ch=4 n=68 v=89
18004 On ch=4 n=65 v=87
18040 On ch=4 n=61 v=0
18044 On ch=4 n=65 v=0
18044 On ch=4 n=68 v=0
18480 On ch=4 n=66 v=91
18480 On ch=4 n=70 v=82
18480 On ch=4 n=61 v=82
18512 On ch=4 n=61 v=0
18520 On ch=4 n=70 v=0
18524 On ch=4 n=66 v=0
18960 On ch=4 n=66 v=105
18964 On ch=4 n=61 v=91
18964 On ch=4 n=70 v=89
18972 On ch=4 n=70 v=0
18984 On ch=4 n=61 v=0
18988 On ch=4 n=66 v=0
19440 On ch=4 n=68 v=100
19440 On ch=4 n=72 v=105
19440 On ch=4 n=63 v=87
19468 On ch=4 n=63 v=0
19484 On ch=4 n=68 v=0
19488 On ch=4 n=72 v=0
19920 On ch=4 n=68 v=102
19924 On ch=4 n=63 v=98
19924 On ch=4 n=72 v=98
19924 On ch=4 n=70 v=57
19932 On ch=4 n=70 v=0
19944 On ch=4 n=72 v=0
19952 On ch=4 n=63 v=0
19964 On ch=4 n=68 v=0
20400 On ch=4 n=70 v=93
20400 On ch=4 n=66 v=102
20400 On ch=4 n=61 v=87
20424 On ch=4 n=61 v=0
20440 On ch=4 n=66 v=0
20440 On ch=4 n=70 v=0
20880 On ch=4 n=66 v=107
20884 On ch=4 n=70 v=93
20884 On ch=4 n=61 v=93
20904 On ch=4 n=61 v=0
20904 On ch=4 n=70 v=0
20904 On ch=4 n=66 v=0
21360 On ch=4 n=65 v=100
21360 On ch=4 n=68 v=93
21360 On ch=4 n=61 v=93
21392 On ch=4 n=61 v=0
21392 On ch=4 n=68 v=0
21408 On ch=4 n=65 v=0
21840 On ch=4 n=65 v=100
21844 On ch=4 n=68 v=98
21844 On ch=4 n=61 v=95
21872 On ch=4 n=61 v=0
21880 On ch=4 n=68 v=0
21892 On ch=4 n=65 v=0
22320 On ch=4 n=66 v=105
22320 On ch=4 n=70 v=95
22320 On ch=4 n=61 v=95
22352 On ch=4 n=61 v=0
22360 On ch=4 n=70 v=0
22364 On ch=4 n=66 v=0
22800 On ch=4 n=66 v=105
22804 On ch=4 n=70 v=85
22804 On ch=4 n=61 v=95
22824 On ch=4 n=61 v=0
22824 On ch=4 n=70 v=0
22824 On ch=4 n=66 v=0
23280 On ch=4 n=63 v=98
23280 On ch=4 n=68 v=100
23280 On ch=4 n=72 v=102
23284 On ch=4 n=70 v=52
23288 On ch=4 n=70 v=0
23312 On ch=4 n=68 v=0
23320 On ch=4 n=72 v=0
23320 On ch=4 n=63 v=0
23760 On ch=4 n=68 v=102
23760 On ch=4 n=72 v=100
23764 On ch=4 n=63 v=93
23788 On ch=4 n=63 v=0
23792 On ch=4 n=68 v=0
23800 On ch=4 n=72 v=0
24240 On ch=4 n=70 v=100
24240 On ch=4 n=66 v=100
24240 On ch=4 n=61 v=100
24280 On ch=4 n=61 v=0
24280 On ch=4 n=66 v=0
24280 On ch=4 n=70 v=0
24724 On ch=4 n=70 v=93
24724 On ch=4 n=66 v=102
24724 On ch=4 n=61 v=100
24752 On ch=4 n=61 v=0
24760 On ch=4 n=70 v=0
24768 On ch=4 n=66 v=0
25200 On ch=4 n=65 v=100
25200 On ch=4 n=68 v=98
25204 On ch=4 n=61 v=102
25244 On ch=4 n=68 v=0
25248 On ch=4 n=61 v=0
25260 On ch=4 n=65 v=0
25680 On ch=4 n=68 v=98
25684 On ch=4 n=65 v=100
25684 On ch=4 n=61 v=100
25720 On ch=4 n=61 v=0
25732 On ch=4 n=68 v=0
25740 On ch=4 n=65 v=0
26160 On ch=4 n=70 v=102
26160 On ch=4 n=66 v=105
26164 On ch=4 n=61 v=102
26212 On ch=4 n=66 v=0
26220 On ch=4 n=61 v=0
26220 On ch=4 n=70 v=0
26644 On ch=4 n=70 v=98
26644 On ch=4 n=61 v=105
26644 On ch=4 n=66 v=107
26680 On ch=4 n=70 v=0
26684 On ch=4 n=61 v=0
26692 On ch=4 n=66 v=0
27120 On ch=4 n=72 v=102
27120 On ch=4 n=63 v=98
27124 On ch=4 n=68 v=93
27148 On ch=4 n=68 v=0
27148 On ch=4 n=63 v=0
27180 On ch=4 n=72 v=0
27604 On ch=4 n=68 v=100
27604 On ch=4 n=72 v=102
27604 On ch=4 n=63 v=95
27644 On ch=4 n=63 v=0
27664 On ch=4 n=72 v=0
27664 On ch=4 n=68 v=0
28080 On ch=4 n=70 v=93
28080 On ch=4 n=66 v=105
28084 On ch=4 n=61 v=98
28108 On ch=4 n=61 v=0
28108 On ch=4 n=70 v=0
28120 On ch=4 n=66 v=0
28560 On ch=4 n=61 v=87
28564 On ch=4 n=70 v=95
28564 On ch=4 n=66 v=102
28584 On ch=4 n=66 v=0
28584 On ch=4 n=70 v=0
28608 On ch=4 n=61 v=0
29040 On ch=4 n=68 v=100
29040 On ch=4 n=63 v=98
29044 On ch=4 n=72 v=100
29084 On ch=4 n=63 v=0
29092 On ch=4 n=68 v=0
29104 On ch=4 n=72 v=0
29524 On ch=4 n=72 v=100
29524 On ch=4 n=68 v=102
29524 On ch=4 n=63 v=93
29552 On ch=4 n=68 v=0
29560 On ch=4 n=63 v=0
29580 On ch=4 n=72 v=0
30000 On ch=4 n=63 v=100
30000 On ch=4 n=68 v=107
30004 On ch=4 n=72 v=102
30004 On ch=4 n=70 v=66
30012 On ch=4 n=70 v=0
30052 On ch=4 n=72 v=0
30052 On ch=4 n=68 v=0
30056 On ch=4 n=63 v=0
30480 On ch=4 n=68 v=98
30484 On ch=4 n=72 v=98
30484 On ch=4 n=63 v=93
30524 On ch=4 n=63 v=0
30524 On ch=4 n=68 v=0
30532 On ch=4 n=72 v=0
30960 On ch=4 n=70 v=89
30960 On ch=4 n=66 v=93
30964 On ch=4 n=61 v=85
31000 On ch=4 n=61 v=0
31000 On ch=4 n=70 v=0
31004 On ch=4 n=66 v=0
31440 On ch=4 n=70 v=100
31444 On ch=4 n=66 v=105
31444 On ch=4 n=61 v=95
31484 On ch=4 n=61 v=0
31484 On ch=4 n=66 v=0
31484 On ch=4 n=70 v=0
31920 On ch=4 n=72 v=102
31920 On ch=4 n=68 v=100
31920 On ch=4 n=63 v=89
31952 On ch=4 n=63 v=0
31960 On ch=4 n=68 v=0
31984 On ch=4 n=72 v=0
32400 On ch=4 n=68 v=105
32404 On ch=4 n=72 v=102
32404 On ch=4 n=63 v=102
32404 On ch=4 n=70 v=58
32412 On ch=4 n=70 v=0
32448 On ch=4 n=63 v=0
32460 On ch=4 n=68 v=0
32464 On ch=4 n=72 v=0
32880 On ch=4 n=65 v=100
32880 On ch=4 n=61 v=102
32880 On ch=4 n=68 v=89
32912 On ch=4 n=68 v=0
32912 On ch=4 n=61 v=0
32932 On ch=4 n=65 v=0
33360 On ch=4 n=65 v=102
33364 On ch=4 n=61 v=100
33364 On ch=4 n=68 v=91
33384 On ch=4 n=68 v=0
33384 On ch=4 n=61 v=0
33404 On ch=4 n=65 v=0
33840 On ch=4 n=66 v=98
33840 On ch=4 n=70 v=87
33840 On ch=4 n=61 v=82
33880 On ch=4 n=61 v=0
33884 On ch=4 n=70 v=0
33892 On ch=4 n=66 v=0
34320 On ch=4 n=66 v=102
34324 On ch=4 n=70 v=82
34324 On ch=4 n=61 v=98
34344 On ch=4 n=61 v=0
34344 On ch=4 n=70 v=0
34352 On ch=4 n=66 v=0
34800 On ch=4 n=63 v=98
34800 On ch=4 n=68 v=98
34800 On ch=4 n=72 v=95
34828 On ch=4 n=63 v=0
34844 On ch=4 n=72 v=0
34844 On ch=4 n=68 v=0
35280 On ch=4 n=68 v=87
35284 On ch=4 n=63 v=100
35284 On ch=4 n=72 v=91
35304 On ch=4 n=72 v=0
35304 On ch=4 n=63 v=0
35304 On ch=4 n=68 v=0
35760 On ch=4 n=70 v=80
35760 On ch=4 n=66 v=85
35760 On ch=4 n=61 v=87
35792 On ch=4 n=61 v=0
35792 On ch=4 n=66 v=0
35800 On ch=4 n=70 v=0
36240 On ch=4 n=66 v=102
36244 On ch=4 n=70 v=87
36244 On ch=4 n=61 v=85
36280 On ch=4 n=70 v=0
36284 On ch=4 n=61 v=0
36284 On ch=4 n=66 v=0
36720 On ch=4 n=63 v=100
36720 On ch=4 n=60 v=105
36720 On ch=4 n=56 v=100
36768 On ch=4 n=56 v=0
36772 On ch=4 n=63 v=0
36788 On ch=4 n=60 v=0
37200 On ch=4 n=63 v=98
37200 On ch=4 n=60 v=102
37204 On ch=4 n=56 v=87
37240 On ch=4 n=56 v=0
37252 On ch=4 n=63 v=0
37264 On ch=4 n=60 v=0
37680 On ch=4 n=63 v=100
37680 On ch=4 n=60 v=105
37680 On ch=4 n=56 v=95
37724 On ch=4 n=56 v=0
37740 On ch=4 n=63 v=0
37752 On ch=4 n=60 v=0
38164 On ch=4 n=63 v=102
38164 On ch=4 n=60 v=105
38164 On ch=4 n=56 v=89
38200 On ch=4 n=56 v=0
38224 On ch=4 n=63 v=0
38228 On ch=4 n=60 v=0
38640 On ch=4 n=61 v=102
38640 On ch=4 n=65 v=100
38644 On ch=4 n=56 v=95
38688 On ch=4 n=56 v=0
38700 On ch=4 n=61 v=0
38704 On ch=4 n=65 v=0
39124 On ch=4 n=61 v=102
39124 On ch=4 n=65 v=100
39124 On ch=4 n=56 v=95
39164 On ch=4 n=56 v=0
39168 On ch=4 n=61 v=0
39180 On ch=4 n=65 v=0
39600 On ch=4 n=61 v=107
39600 On ch=4 n=65 v=102
39604 On ch=4 n=56 v=93
39648 On ch=4 n=56 v=0
39664 On ch=4 n=61 v=0
39672 On ch=4 n=65 v=0
40084 On ch=4 n=61 v=110
40084 On ch=4 n=56 v=95
40084 On ch=4 n=65 v=98
40132 On ch=4 n=56 v=0
40148 On ch=4 n=65 v=0
40148 On ch=4 n=61 v=0
40560 On ch=4 n=58 v=107
40560 On ch=4 n=61 v=102
40564 On ch=4 n=54 v=89
40600 On ch=4 n=54 v=0
40612 On ch=4 n=58 v=0
40620 On ch=4 n=61 v=0
41040 On ch=4 n=54 v=98
41044 On ch=4 n=58 v=110
41044 On ch=4 n=61 v=100
41088 On ch=4 n=54 v=0
41092 On ch=4 n=58 v=0
41100 On ch=4 n=61 v=0
41520 On ch=4 n=54 v=98
41520 On ch=4 n=61 v=102
41524 On ch=4 n=58 v=110
41564 On ch=4 n=54 v=0
41568 On ch=4 n=58 v=0
41584 On ch=4 n=61 v=0
42000 On ch=4 n=61 v=100
42004 On ch=4 n=58 v=107
42004 On ch=4 n=54 v=91
42052 On ch=4 n=54 v=0
42060 On ch=4 n=58 v=0
42080 On ch=4 n=61 v=0
42480 On ch=4 n=61 v=107
42480 On ch=4 n=65 v=98
42484 On ch=4 n=56 v=95
42528 On ch=4 n=56 v=0
42544 On ch=4 n=61 v=0
42560 On ch=4 n=65 v=0
42960 On ch=4 n=61 v=107
42964 On ch=4 n=65 v=87
42964 On ch=4 n=56 v=87
43004 On ch=4 n=56 v=0
43012 On ch=4 n=61 v=0
43024 On ch=4 n=65 v=0
43440 On ch=4 n=61 v=105
43440 On ch=4 n=56 v=93
43440 On ch=4 n=65 v=100
43488 On ch=4 n=56 v=0
43500 On ch=4 n=61 v=0
43504 On ch=4 n=65 v=0
43920 On ch=4 n=61 v=107
43924 On ch=4 n=65 v=95
43924 On ch=4 n=56 v=89
43972 On ch=4 n=56 v=0
43988 On ch=4 n=61 v=0
44000 On ch=4 n=65 v=0
44400 On ch=4 n=60 v=98
44400 On ch=4 n=63 v=82
44400 On ch=4 n=56 v=87
44448 On ch=4 n=63 v=0
44460 On ch=4 n=56 v=0
44464 On ch=4 n=60 v=0
44880 On ch=4 n=63 v=93
44884 On ch=4 n=60 v=100
44884 On ch=4 n=56 v=87
44928 On ch=4 n=56 v=0
44940 On ch=4 n=63 v=0
44944 On ch=4 n=60 v=0
45360 On ch=4 n=63 v=100
45360 On ch=4 n=60 v=105
45364 On ch=4 n=56 v=85
45408 On ch=4 n=56 v=0
45424 On ch=4 n=60 v=0
45424 On ch=4 n=63 v=0
45840 On ch=4 n=63 v=98
45844 On ch=4 n=60 v=102
45844 On ch=4 n=56 v=91
45888 On ch=4 n=56 v=0
45892 On ch=4 n=63 v=0
45900 On ch=4 n=60 v=0
46320 On ch=4 n=61 v=105
46320 On ch=4 n=65 v=100
46320 On ch=4 n=56 v=85
46364 On ch=4 n=56 v=0
46384 On ch=4 n=61 v=0
46392 On ch=4 n=65 v=0
46800 On ch=4 n=61 v=105
46804 On ch=4 n=65 v=100
46804 On ch=4 n=56 v=98
46840 On ch=4 n=56 v=0
46852 On ch=4 n=65 v=0
46852 On ch=4 n=61 v=0
47280 On ch=4 n=61 v=102
47284 On ch=4 n=65 v=91
47284 On ch=4 n=56 v=89
47324 On ch=4 n=56 v=0
47340 On ch=4 n=65 v=0
47344 On ch=4 n=61 v=0
47760 On ch=4 n=61 v=105
47764 On ch=4 n=65 v=98
47764 On ch=4 n=56 v=89
47812 On ch=4 n=56 v=0
47824 On ch=4 n=65 v=0
47824 On ch=4 n=61 v=0
48240 On ch=4 n=58 v=107
48240 On ch=4 n=61 v=89
48240 On ch=4 n=54 v=91
48280 On ch=4 n=61 v=0
48284 On ch=4 n=54 v=0
48292 On ch=4 n=58 v=0
48720 On ch=4 n=54 v=91
48724 On ch=4 n=58 v=107
48724 On ch=4 n=61 v=95
48752 On ch=4 n=61 v=0
48764 On ch=4 n=58 v=0
48768 On ch=4 n=54 v=0
49200 On ch=4 n=58 v=107
49200 On ch=4 n=61 v=98
49200 On ch=4 n=54 v=89
49248 On ch=4 n=54 v=0
49264 On ch=4 n=61 v=0
49264 On ch=4 n=58 v=0
49680 On ch=4 n=58 v=107
49680 On ch=4 n=61 v=98
49684 On ch=4 n=54 v=91
49740 On ch=4 n=54 v=0
49748 On ch=4 n=61 v=0
49748 On ch=4 n=58 v=0
50160 On ch=4 n=63 v=100
50160 On ch=4 n=60 v=100
50160 On ch=4 n=56 v=93
50208 On ch=4 n=56 v=0
50220 On ch=4 n=60 v=0
50232 On ch=4 n=63 v=0
50640 On ch=4 n=60 v=113
50644 On ch=4 n=63 v=105
50644 On ch=4 n=56 v=93
50700 On ch=4 n=56 v=0
50704 On ch=4 n=63 v=0
50708 On ch=4 n=60 v=0
51120 On ch=4 n=60 v=105
51120 On ch=4 n=63 v=100
51120 On ch=4 n=56 v=98
51184 On ch=4 n=56 v=0
51188 On ch=4 n=63 v=0
51188 On ch=4 n=60 v=0
51604 On ch=4 n=60 v=110
51604 On ch=4 n=63 v=100
51604 On ch=4 n=56 v=100
51660 On ch=4 n=56 v=0
51672 On ch=4 n=60 v=0
51680 On ch=4 n=63 v=0
52080 On ch=4 n=65 v=100
52080 On ch=4 n=61 v=102
52084 On ch=4 n=68 v=89
52112 On ch=4 n=68 v=0
52112 On ch=4 n=61 v=0
52132 On ch=4 n=65 v=0
52560 On ch=4 n=65 v=102
52564 On ch=4 n=61 v=100
52564 On ch=4 n=68 v=91
52584 On ch=4 n=68 v=0
52584 On ch=4 n=61 v=0
52604 On ch=4 n=65 v=0
53040 On ch=4 n=66 v=98
53040 On ch=4 n=70 v=87
53044 On ch=4 n=61 v=82
53080 On ch=4 n=61 v=0
53084 On ch=4 n=70 v=0
53092 On ch=4 n=66 v=0
53520 On ch=4 n=66 v=102
53524 On ch=4 n=70 v=82
53524 On ch=4 n=61 v=98
53544 On ch=4 n=61 v=0
53544 On ch=4 n=70 v=0
53552 On ch=4 n=66 v=0
54000 On ch=4 n=63 v=98
54000 On ch=4 n=68 v=98
54004 On ch=4 n=72 v=95
54028 On ch=4 n=63 v=0
54044 On ch=4 n=72 v=0
54044 On ch=4 n=68 v=0
54480 On ch=4 n=68 v=87
54484 On ch=4 n=63 v=100
54484 On ch=4 n=72 v=91
54504 On ch=4 n=72 v=0
54504 On ch=4 n=63 v=0
54504 On ch=4 n=68 v=0
54960 On ch=4 n=70 v=80
54960 On ch=4 n=66 v=85
54964 On ch=4 n=61 v=87
54992 On ch=4 n=61 v=0
54992 On ch=4 n=66 v=0
55000 On ch=4 n=70 v=0
55440 On ch=4 n=66 v=102
55444 On ch=4 n=70 v=87
55444 On ch=4 n=61 v=85
55480 On ch=4 n=70 v=0
55484 On ch=4 n=61 v=0
55484 On ch=4 n=66 v=0
55920 On ch=4 n=65 v=87
55920 On ch=4 n=68 v=72
55924 On ch=4 n=61 v=87
55940 On ch=4 n=61 v=0
55948 On ch=4 n=68 v=0
55968 On ch=4 n=65 v=0
56400 On ch=4 n=68 v=87
56404 On ch=4 n=65 v=87
56404 On ch=4 n=61 v=91
56424 On ch=4 n=61 v=0
56424 On ch=4 n=68 v=0
56432 On ch=4 n=65 v=0
56880 On ch=4 n=70 v=82
56880 On ch=4 n=66 v=78
56884 On ch=4 n=61 v=80
56912 On ch=4 n=61 v=0
56912 On ch=4 n=66 v=0
56920 On ch=4 n=70 v=0
57360 On ch=4 n=66 v=100
57364 On ch=4 n=70 v=82
57364 On ch=4 n=61 v=91
57392 On ch=4 n=61 v=0
57392 On ch=4 n=70 v=0
57404 On ch=4 n=66 v=0
57840 On ch=4 n=68 v=87
57840 On ch=4 n=72 v=87
57840 On ch=4 n=63 v=80
57872 On ch=4 n=63 v=0
57888 On ch=4 n=68 v=0
57892 On ch=4 n=72 v=0
58320 On ch=4 n=72 v=98
58324 On ch=4 n=68 v=82
58324 On ch=4 n=63 v=82
58360 On ch=4 n=63 v=0
58364 On ch=4 n=68 v=0
58368 On ch=4 n=72 v=0
58800 On ch=4 n=61 v=85
58800 On ch=4 n=70 v=78
58800 On ch=4 n=66 v=80
58844 On ch=4 n=66 v=0
58844 On ch=4 n=70 v=0
58844 On ch=4 n=61 v=0
59280 On ch=4 n=70 v=82
59284 On ch=4 n=66 v=98
59284 On ch=4 n=61 v=85
59320 On ch=4 n=61 v=0
59324 On ch=4 n=70 v=0
59328 On ch=4 n=66 v=0
59760 On ch=4 n=68 v=89
59760 On ch=4 n=65 v=87
59760 On ch=4 n=61 v=78
59788 On ch=4 n=61 v=0
59800 On ch=4 n=65 v=0
59800 On ch=4 n=68 v=0
60240 On ch=4 n=61 v=102
60244 On ch=4 n=68 v=87
60244 On ch=4 n=65 v=70
60280 On ch=4 n=68 v=0
60284 On ch=4 n=65 v=0
60284 On ch=4 n=61 v=0
60720 On ch=4 n=66 v=95
60720 On ch=4 n=70 v=82
60720 On ch=4 n=61 v=87
60744 On ch=4 n=61 v=0
60752 On ch=4 n=70 v=0
60764 On ch=4 n=66 v=0
61200 On ch=4 n=66 v=91
61204 On ch=4 n=70 v=66
61204 On ch=4 n=61 v=87
61232 On ch=4 n=61 v=0
61232 On ch=4 n=70 v=0
61244 On ch=4 n=66 v=0
61680 On ch=4 n=68 v=85
61680 On ch=4 n=72 v=100
61680 On ch=4 n=63 v=91
61708 On ch=4 n=63 v=0
61720 On ch=4 n=68 v=0
61728 On ch=4 n=72 v=0
62160 On ch=4 n=68 v=85
62164 On ch=4 n=72 v=87
62164 On ch=4 n=63 v=85
62188 On ch=4 n=63 v=0
62220 On ch=4 n=68 v=0
62232 On ch=4 n=72 v=0
62640 On ch=4 n=61 v=89
62640 On ch=4 n=70 v=87
62640 On ch=4 n=66 v=82
62680 On ch=4 n=66 v=0
62680 On ch=4 n=61 v=0
62684 On ch=4 n=70 v=0
63120 On ch=4 n=70 v=82
63124 On ch=4 n=66 v=91
63124 On ch=4 n=61 v=80
63144 On ch=4 n=61 v=0
63168 On ch=4 n=66 v=0
63188 On ch=4 n=70 v=0
63600 On ch=4 n=63 v=85
63600 On ch=4 n=72 v=95
63600 On ch=4 n=68 v=61
63624 On ch=4 n=68 v=0
63624 On ch=4 n=63 v=0
63648 On ch=4 n=72 v=0
64084 On ch=4 n=68 v=85
64084 On ch=4 n=63 v=82
64084 On ch=4 n=72 v=91
64104 On ch=4 n=63 v=0
64120 On ch=4 n=68 v=0
64128 On ch=4 n=72 v=0
64560 On ch=4 n=63 v=95
64560 On ch=4 n=68 v=85
64560 On ch=4 n=72 v=87
64592 On ch=4 n=72 v=0
64592 On ch=4 n=68 v=0
64592 On ch=4 n=63 v=0
65040 On ch=4 n=63 v=100
65044 On ch=4 n=68 v=89
65044 On ch=4 n=72 v=95
65088 On ch=4 n=63 v=0
65092 On ch=4 n=72 v=0
65104 On ch=4 n=68 v=0
65520 On ch=4 n=66 v=91
65524 On ch=4 n=70 v=80
65524 On ch=4 n=61 v=80
65540 On ch=4 n=61 v=0
65560 On ch=4 n=70 v=0
65564 On ch=4 n=66 v=0
66004 On ch=4 n=61 v=107
66004 On ch=4 n=70 v=98
66004 On ch=4 n=66 v=100
66040 On ch=4 n=61 v=0
66048 On ch=4 n=66 v=0
66048 On ch=4 n=70 v=0
66480 On ch=4 n=72 v=100
66480 On ch=4 n=68 v=85
66480 On ch=4 n=63 v=98
66508 On ch=4 n=63 v=0
66512 On ch=4 n=68 v=0
66532 On ch=4 n=72 v=0
66960 On ch=4 n=68 v=95
66960 On ch=4 n=72 v=98
66960 On ch=4 n=63 v=98
66988 On ch=4 n=63 v=0
66992 On ch=4 n=68 v=0
67012 On ch=4 n=72 v=0
67440 On ch=4 n=61 v=89
67440 On ch=4 n=56 v=95
67444 On ch=4 n=65 v=87
67500 On ch=4 n=56 v=0
67512 On ch=4 n=65 v=0
67512 On ch=4 n=61 v=0
67920 On ch=4 n=61 v=95
67924 On ch=4 n=56 v=102
67924 On ch=4 n=65 v=95
67984 On ch=4 n=56 v=0
67988 On ch=4 n=65 v=0
67988 On ch=4 n=61 v=0
68400 On ch=4 n=58 v=95
68400 On ch=4 n=54 v=100
68404 On ch=4 n=61 v=87
68468 On ch=4 n=54 v=0
68480 On ch=4 n=58 v=0
68484 On ch=4 n=61 v=0
68880 On ch=4 n=58 v=95
68884 On ch=4 n=54 v=102
68884 On ch=4 n=61 v=89
68960 On ch=4 n=54 v=0
68964 On ch=4 n=61 v=0
68968 On ch=4 n=58 v=0
69360 On ch=4 n=61 v=100
69360 On ch=4 n=63 v=102
69364 On ch=4 n=56 v=98
69440 On ch=4 n=56 v=0
69448 On ch=4 n=61 v=0
69464 On ch=4 n=63 v=0
69840 On ch=4 n=61 v=100
69844 On ch=4 n=56 v=100
69844 On ch=4 n=63 v=98
69908 On ch=4 n=56 v=0
69924 On ch=4 n=63 v=0
69924 On ch=4 n=61 v=0
70320 On ch=4 n=60 v=105
70320 On ch=4 n=56 v=93
70324 On ch=4 n=63 v=89
70412 On ch=4 n=63 v=0
70412 On ch=4 n=56 v=0
70416 On ch=4 n=60 v=0
70800 On ch=4 n=56 v=100
70804 On ch=4 n=60 v=102
70804 On ch=4 n=63 v=85
70872 On ch=4 n=60 v=0
70892 On ch=4 n=63 v=0
70900 On ch=4 n=56 v=0
71280 On ch=4 n=61 v=105
71280 On ch=4 n=56 v=105
71280 On ch=4 n=65 v=102
71348 On ch=4 n=56 v=0
71372 On ch=4 n=65 v=0
71372 On ch=4 n=61 v=0
71760 On ch=4 n=61 v=102
71764 On ch=4 n=56 v=107
71764 On ch=4 n=65 v=102
71848 On ch=4 n=56 v=0
71852 On ch=4 n=65 v=0
71868 On ch=4 n=61 v=0
72240 On ch=4 n=58 v=100
72240 On ch=4 n=54 v=102
72240 On ch=4 n=61 v=105
72320 On ch=4 n=61 v=0
72320 On ch=4 n=54 v=0
72324 On ch=4 n=58 v=0
72720 On ch=4 n=58 v=105
72724 On ch=4 n=54 v=105
72724 On ch=4 n=61 v=102
72808 On ch=4 n=61 v=0
72808 On ch=4 n=54 v=0
72820 On ch=4 n=58 v=0
73200 On ch=4 n=61 v=100
73200 On ch=4 n=56 v=105
73200 On ch=4 n=63 v=102
73284 On ch=4 n=56 v=0
73288 On ch=4 n=63 v=0
73292 On ch=4 n=61 v=0
73680 On ch=4 n=56 v=100
73684 On ch=4 n=61 v=100
73684 On ch=4 n=63 v=95
73764 On ch=4 n=63 v=0
73764 On ch=4 n=61 v=0
73764 On ch=4 n=56 v=0
74160 On ch=4 n=60 v=105
74160 On ch=4 n=56 v=98
74160 On ch=4 n=63 v=89
74228 On ch=4 n=56 v=0
74232 On ch=4 n=60 v=0
74240 On ch=4 n=63 v=0
74640 On ch=4 n=56 v=102
74644 On ch=4 n=60 v=105
74644 On ch=4 n=63 v=93
74700 On ch=4 n=60 v=0
74708 On ch=4 n=63 v=0
74712 On ch=4 n=56 v=0
75120 On ch=4 n=63 v=100
75120 On ch=4 n=60 v=105
75120 On ch=4 n=56 v=100
75168 On ch=4 n=56 v=0
75172 On ch=4 n=63 v=0
75188 On ch=4 n=60 v=0
75600 On ch=4 n=63 v=98
75600 On ch=4 n=60 v=102
75604 On ch=4 n=56 v=87
75640 On ch=4 n=56 v=0
75652 On ch=4 n=63 v=0
75664 On ch=4 n=60 v=0
76080 On ch=4 n=63 v=100
76084 On ch=4 n=60 v=105
76084 On ch=4 n=56 v=95
76140 On ch=4 n=56 v=0
76140 On ch=4 n=63 v=0
76160 On ch=4 n=60 v=0
76560 On ch=4 n=63 v=102
76564 On ch=4 n=60 v=105
76564 On ch=4 n=56 v=89
76600 On ch=4 n=56 v=0
76620 On ch=4 n=63 v=0
76624 On ch=4 n=60 v=0
77040 On ch=4 n=61 v=102
77040 On ch=4 n=65 v=100
77040 On ch=4 n=56 v=95
77084 On ch=4 n=56 v=0
77100 On ch=4 n=65 v=0
77100 On ch=4 n=61 v=0
77524 On ch=4 n=61 v=102
77524 On ch=4 n=65 v=100
77524 On ch=4 n=56 v=95
77560 On ch=4 n=56 v=0
77564 On ch=4 n=61 v=0
77580 On ch=4 n=65 v=0
78000 On ch=4 n=61 v=107
78000 On ch=4 n=65 v=102
78000 On ch=4 n=56 v=93
78044 On ch=4 n=56 v=0
78060 On ch=4 n=61 v=0
78072 On ch=4 n=65 v=0
78484 On ch=4 n=61 v=110
78484 On ch=4 n=56 v=95
78484 On ch=4 n=65 v=98
78532 On ch=4 n=56 v=0
78544 On ch=4 n=65 v=0
78548 On ch=4 n=61 v=0
78960 On ch=4 n=58 v=107
78960 On ch=4 n=61 v=102
78964 On ch=4 n=54 v=89
79000 On ch=4 n=54 v=0
79012 On ch=4 n=58 v=0
79020 On ch=4 n=61 v=0
79440 On ch=4 n=54 v=98
79444 On ch=4 n=58 v=110
79444 On ch=4 n=61 v=100
79488 On ch=4 n=54 v=0
79492 On ch=4 n=58 v=0
79500 On ch=4 n=61 v=0
79920 On ch=4 n=54 v=98
79920 On ch=4 n=61 v=102
79924 On ch=4 n=58 v=110
79960 On ch=4 n=54 v=0
79964 On ch=4 n=58 v=0
79980 On ch=4 n=61 v=0
80404 On ch=4 n=61 v=100
80404 On ch=4 n=58 v=107
80404 On ch=4 n=54 v=91
80452 On ch=4 n=54 v=0
80460 On ch=4 n=58 v=0
80480 On ch=4 n=61 v=0
80880 On ch=4 n=61 v=107
80880 On ch=4 n=65 v=98
80884 On ch=4 n=56 v=95
80928 On ch=4 n=56 v=0
80944 On ch=4 n=61 v=0
80960 On ch=4 n=65 v=0
81360 On ch=4 n=61 v=107
81364 On ch=4 n=65 v=87
81364 On ch=4 n=56 v=87
81404 On ch=4 n=56 v=0
81412 On ch=4 n=61 v=0
81424 On ch=4 n=65 v=0
81840 On ch=4 n=61 v=105
81840 On ch=4 n=56 v=93
81844 On ch=4 n=65 v=100
81888 On ch=4 n=56 v=0
81900 On ch=4 n=61 v=0
81904 On ch=4 n=65 v=0
82320 On ch=4 n=61 v=107
82324 On ch=4 n=65 v=95
82324 On ch=4 n=56 v=89
82372 On ch=4 n=56 v=0
82388 On ch=4 n=61 v=0
82400 On ch=4 n=65 v=0
82800 On ch=4 n=60 v=98
82800 On ch=4 n=63 v=82
82804 On ch=4 n=56 v=87
82848 On ch=4 n=63 v=0
82860 On ch=4 n=56 v=0
82864 On ch=4 n=60 v=0
83280 On ch=4 n=63 v=93
83284 On ch=4 n=60 v=100
83284 On ch=4 n=56 v=87
83328 On ch=4 n=56 v=0
83340 On ch=4 n=63 v=0
83344 On ch=4 n=60 v=0
83760 On ch=4 n=63 v=100
83760 On ch=4 n=60 v=105
83764 On ch=4 n=56 v=85
83808 On ch=4 n=56 v=0
83824 On ch=4 n=60 v=0
83824 On ch=4 n=63 v=0
84240 On ch=4 n=63 v=98
84244 On ch=4 n=60 v=102
84244 On ch=4 n=56 v=91
84288 On ch=4 n=56 v=0
84292 On ch=4 n=63 v=0
84300 On ch=4 n=60 v=0
84720 On ch=4 n=61 v=105
84720 On ch=4 n=65 v=100
84720 On ch=4 n=56 v=85
84764 On ch=4 n=56 v=0
84784 On ch=4 n=61 v=0
84792 On ch=4 n=65 v=0
85200 On ch=4 n=61 v=105
85204 On ch=4 n=65 v=100
85204 On ch=4 n=56 v=98
85240 On ch=4 n=56 v=0
85252 On ch=4 n=65 v=0
85252 On ch=4 n=61 v=0
85680 On ch=4 n=61 v=102
85684 On ch=4 n=65 v=91
85684 On ch=4 n=56 v=89
85724 On ch=4 n=56 v=0
85740 On ch=4 n=65 v=0
85744 On ch=4 n=61 v=0
86160 On ch=4 n=61 v=105
86164 On ch=4 n=65 v=98
86164 On ch=4 n=56 v=89
86212 On ch=4 n=56 v=0
86224 On ch=4 n=65 v=0
86224 On ch=4 n=61 v=0
86640 On ch=4 n=58 v=107
86640 On ch=4 n=61 v=89
86644 On ch=4 n=54 v=91
86680 On ch=4 n=61 v=0
86684 On ch=4 n=54 v=0
86692 On ch=4 n=58 v=0
87120 On ch=4 n=54 v=91
87124 On ch=4 n=58 v=107
87124 On ch=4 n=61 v=95
87152 On ch=4 n=61 v=0
87164 On ch=4 n=58 v=0
87168 On ch=4 n=54 v=0
87600 On ch=4 n=58 v=107
87600 On ch=4 n=61 v=98
87600 On ch=4 n=54 v=89
87648 On ch=4 n=54 v=0
87664 On ch=4 n=61 v=0
87664 On ch=4 n=58 v=0
88080 On ch=4 n=58 v=107
88084 On ch=4 n=61 v=98
88084 On ch=4 n=54 v=91
88140 On ch=4 n=54 v=0
88148 On ch=4 n=61 v=0
88148 On ch=4 n=58 v=0
88560 On ch=4 n=63 v=100
88560 On ch=4 n=60 v=100
88560 On ch=4 n=56 v=93
88608 On ch=4 n=56 v=0
88620 On ch=4 n=60 v=0
88632 On ch=4 n=63 v=0
89040 On ch=4 n=60 v=113
89044 On ch=4 n=63 v=105
89044 On ch=4 n=56 v=93
89100 On ch=4 n=56 v=0
89104 On ch=4 n=63 v=0
89108 On ch=4 n=60 v=0
89520 On ch=4 n=60 v=105
89520 On ch=4 n=63 v=100
89520 On ch=4 n=56 v=98
89584 On ch=4 n=56 v=0
89588 On ch=4 n=63 v=0
89588 On ch=4 n=60 v=0
90004 On ch=4 n=60 v=110
90004 On ch=4 n=63 v=100
90004 On ch=4 n=56 v=100
90060 On ch=4 n=56 v=0
90072 On ch=4 n=60 v=0
90080 On ch=4 n=63 v=0
90480 On ch=4 n=65 v=100
90480 On ch=4 n=61 v=102
90480 On ch=4 n=68 v=89
90512 On ch=4 n=68 v=0
90512 On ch=4 n=61 v=0
90532 On ch=4 n=65 v=0
90960 On ch=4 n=65 v=102
90960 On ch=4 n=61 v=100
90964 On ch=4 n=68 v=91
90984 On ch=4 n=68 v=0
90984 On ch=4 n=61 v=0
91004 On ch=4 n=65 v=0
91440 On ch=4 n=66 v=98
91440 On ch=4 n=70 v=87
91440 On ch=4 n=61 v=82
91480 On ch=4 n=61 v=0
91484 On ch=4 n=70 v=0
91492 On ch=4 n=66 v=0
91924 On ch=4 n=66 v=102
91924 On ch=4 n=70 v=82
91924 On ch=4 n=61 v=98
91944 On ch=4 n=61 v=0
91944 On ch=4 n=70 v=0
91952 On ch=4 n=66 v=0
92400 On ch=4 n=63 v=98
92400 On ch=4 n=68 v=98
92404 On ch=4 n=72 v=95
92428 On ch=4 n=63 v=0
92444 On ch=4 n=72 v=0
92444 On ch=4 n=68 v=0
92884 On ch=4 n=68 v=87
92884 On ch=4 n=63 v=100
92884 On ch=4 n=72 v=91
92904 On ch=4 n=72 v=0
92904 On ch=4 n=63 v=0
92904 On ch=4 n=68 v=0
93360 On ch=4 n=70 v=80
93360 On ch=4 n=66 v=85
93364 On ch=4 n=61 v=87
93392 On ch=4 n=61 v=0
93392 On ch=4 n=66 v=0
93400 On ch=4 n=70 v=0
93840 On ch=4 n=66 v=102
93844 On ch=4 n=70 v=87
93844 On ch=4 n=61 v=85
93880 On ch=4 n=70 v=0
93884 On ch=4 n=61 v=0
93884 On ch=4 n=66 v=0
94320 On ch=4 n=65 v=87
94320 On ch=4 n=68 v=72
94324 On ch=4 n=61 v=87
94340 On ch=4 n=61 v=0
94348 On ch=4 n=68 v=0
94368 On ch=4 n=65 v=0
94800 On ch=4 n=68 v=87
94804 On ch=4 n=65 v=87
94804 On ch=4 n=61 v=91
94824 On ch=4 n=61 v=0
94824 On ch=4 n=68 v=0
94832 On ch=4 n=65 v=0
95280 On ch=4 n=70 v=82
95280 On ch=4 n=66 v=78
95284 On ch=4 n=61 v=80
95312 On ch=4 n=61 v=0
95312 On ch=4 n=66 v=0
95320 On ch=4 n=70 v=0
95760 On ch=4 n=66 v=100
95764 On ch=4 n=70 v=82
95764 On ch=4 n=61 v=91
95792 On ch=4 n=61 v=0
95792 On ch=4 n=70 v=0
95804 On ch=4 n=66 v=0
96240 On ch=4 n=68 v=87
96240 On ch=4 n=72 v=87
96244 On ch=4 n=63 v=80
96272 On ch=4 n=63 v=0
96288 On ch=4 n=68 v=0
96292 On ch=4 n=72 v=0
96720 On ch=4 n=72 v=98
96724 On ch=4 n=68 v=82
96724 On ch=4 n=63 v=82
96760 On ch=4 n=63 v=0
96764 On ch=4 n=68 v=0
96768 On ch=4 n=72 v=0
97200 On ch=4 n=61 v=85
97200 On ch=4 n=70 v=78
97200 On ch=4 n=66 v=80
97244 On ch=4 n=66 v=0
97244 On ch=4 n=70 v=0
97244 On ch=4 n=61 v=0
97680 On ch=4 n=70 v=82
97684 On ch=4 n=66 v=98
97684 On ch=4 n=61 v=85
97720 On ch=4 n=61 v=0
97724 On ch=4 n=70 v=0
97728 On ch=4 n=66 v=0
98160 On ch=4 n=68 v=89
98160 On ch=4 n=65 v=87
98164 On ch=4 n=61 v=78
98188 On ch=4 n=61 v=0
98200 On ch=4 n=65 v=0
98200 On ch=4 n=68 v=0
98640 On ch=4 n=61 v=102
98644 On ch=4 n=68 v=87
98644 On ch=4 n=65 v=70
98680 On ch=4 n=68 v=0
98684 On ch=4 n=65 v=0
98684 On ch=4 n=61 v=0
99120 On ch=4 n=66 v=95
99120 On ch=4 n=70 v=82
99120 On ch=4 n=61 v=87
99144 On ch=4 n=61 v=0
99152 On ch=4 n=70 v=0
99164 On ch=4 n=66 v=0
99600 On ch=4 n=66 v=91
99604 On ch=4 n=70 v=66
99604 On ch=4 n=61 v=87
99632 On ch=4 n=61 v=0
99632 On ch=4 n=70 v=0
99644 On ch=4 n=66 v=0
100080 On ch=4 n=68 v=85
100080 On ch=4 n=72 v=100
100080 On ch=4 n=63 v=91
100108 On ch=4 n=63 v=0
100120 On ch=4 n=68 v=0
100128 On ch=4 n=72 v=0
100560 On ch=4 n=68 v=85
100564 On ch=4 n=72 v=87
100564 On ch=4 n=63 v=85
100588 On ch=4 n=63 v=0
100620 On ch=4 n=68 v=0
100632 On ch=4 n=72 v=0
101040 On ch=4 n=61 v=89
101040 On ch=4 n=70 v=87
101040 On ch=4 n=66 v=82
101080 On ch=4 n=66 v=0
101080 On ch=4 n=61 v=0
101084 On ch=4 n=70 v=0
101520 On ch=4 n=70 v=82
101524 On ch=4 n=66 v=91
101524 On ch=4 n=61 v=80
101544 On ch=4 n=61 v=0
101568 On ch=4 n=66 v=0
101588 On ch=4 n=70 v=0
102000 On ch=4 n=63 v=85
102000 On ch=4 n=72 v=95
102000 On ch=4 n=68 v=61
102024 On ch=4 n=68 v=0
102024 On ch=4 n=63 v=0
102048 On ch=4 n=72 v=0
102484 On ch=4 n=68 v=85
102484 On ch=4 n=63 v=82
102484 On ch=4 n=72 v=91
102504 On ch=4 n=63 v=0
102520 On ch=4 n=68 v=0
102528 On ch=4 n=72 v=0
102960 On ch=4 n=63 v=95
102960 On ch=4 n=68 v=85
102960 On ch=4 n=72 v=87
102992 On ch=4 n=72 v=0
102992 On ch=4 n=68 v=0
102992 On ch=4 n=63 v=0
103440 On ch=4 n=63 v=100
103444 On ch=4 n=68 v=89
103444 On ch=4 n=72 v=95
103488 On ch=4 n=63 v=0
103492 On ch=4 n=72 v=0
103504 On ch=4 n=68 v=0
103920 On ch=4 n=66 v=91
103920 On ch=4 n=70 v=80
103924 On ch=4 n=61 v=80
103940 On ch=4 n=61 v=0
103960 On ch=4 n=70 v=0
103964 On ch=4 n=66 v=0
104400 On ch=4 n=61 v=107
104400 On ch=4 n=70 v=98
104404 On ch=4 n=66 v=100
104440 On ch=4 n=61 v=0
104448 On ch=4 n=66 v=0
104448 On ch=4 n=70 v=0
104880 On ch=4 n=72 v=100
104880 On ch=4 n=68 v=85
104880 On ch=4 n=63 v=98
104908 On ch=4 n=63 v=0
104912 On ch=4 n=68 v=0
104932 On ch=4 n=72 v=0
105360 On ch=4 n=68 v=95
105360 On ch=4 n=72 v=98
105360 On ch=4 n=63 v=98
105388 On ch=4 n=63 v=0
105392 On ch=4 n=68 v=0
105412 On ch=4 n=72 v=0
105840 On ch=4 n=65 v=100
105840 On ch=4 n=61 v=102
105844 On ch=4 n=68 v=89
105872 On ch=4 n=68 v=0
105872 On ch=4 n=61 v=0
105892 On ch=4 n=65 v=0
106320 On ch=4 n=65 v=102
106324 On ch=4 n=61 v=100
106324 On ch=4 n=68 v=91
106344 On ch=4 n=68 v=0
106344 On ch=4 n=61 v=0
106364 On ch=4 n=65 v=0
106800 On ch=4 n=66 v=98
106800 On ch=4 n=70 v=87
106804 On ch=4 n=61 v=82
106840 On ch=4 n=61 v=0
106844 On ch=4 n=70 v=0
106852 On ch=4 n=66 v=0
107284 On ch=4 n=66 v=102
107284 On ch=4 n=70 v=82
107284 On ch=4 n=61 v=98
107304 On ch=4 n=61 v=0
107304 On ch=4 n=70 v=0
107312 On ch=4 n=66 v=0
107760 On ch=4 n=63 v=98
107760 On ch=4 n=68 v=98
107764 On ch=4 n=72 v=95
107788 On ch=4 n=63 v=0
107804 On ch=4 n=72 v=0
107804 On ch=4 n=68 v=0
108240 On ch=4 n=68 v=87
108244 On ch=4 n=63 v=100
108244 On ch=4 n=72 v=91
108264 On ch=4 n=72 v=0
108264 On ch=4 n=63 v=0
108264 On ch=4 n=68 v=0
108720 On ch=4 n=70 v=80
108720 On ch=4 n=66 v=85
108724 On ch=4 n=61 v=87
108752 On ch=4 n=61 v=0
108752 On ch=4 n=66 v=0
108760 On ch=4 n=70 v=0
109200 On ch=4 n=66 v=102
109204 On ch=4 n=70 v=87
109204 On ch=4 n=61 v=85
109240 On ch=4 n=70 v=0
109244 On ch=4 n=61 v=0
109244 On ch=4 n=66 v=0
109680 On ch=4 n=65 v=87
109680 On ch=4 n=68 v=72
109684 On ch=4 n=61 v=87
109700 On ch=4 n=61 v=0
109708 On ch=4 n=68 v=0
109728 On ch=4 n=65 v=0
110160 On ch=4 n=68 v=87
110164 On ch=4 n=65 v=87
110164 On ch=4 n=61 v=91
110184 On ch=4 n=61 v=0
110184 On ch=4 n=68 v=0
110192 On ch=4 n=65 v=0
110640 On ch=4 n=70 v=82
110640 On ch=4 n=66 v=78
110644 On ch=4 n=61 v=80
110672 On ch=4 n=61 v=0
110672 On ch=4 n=66 v=0
110680 On ch=4 n=70 v=0
111120 On ch=4 n=66 v=100
111124 On ch=4 n=70 v=82
111124 On ch=4 n=61 v=91
111152 On ch=4 n=61 v=0
111152 On ch=4 n=70 v=0
111164 On ch=4 n=66 v=0
111600 On ch=4 n=68 v=87
111600 On ch=4 n=72 v=87
111600 On ch=4 n=63 v=80
111632 On ch=4 n=63 v=0
111648 On ch=4 n=68 v=0
111652 On ch=4 n=72 v=0
112080 On ch=4 n=72 v=98
112084 On ch=4 n=68 v=82
112084 On ch=4 n=63 v=82
112120 On ch=4 n=63 v=0
112124 On ch=4 n=68 v=0
112128 On ch=4 n=72 v=0
112560 On ch=4 n=61 v=85
112560 On ch=4 n=70 v=78
112564 On ch=4 n=66 v=80
112604 On ch=4 n=66 v=0
112604 On ch=4 n=70 v=0
112604 On ch=4 n=61 v=0
113040 On ch=4 n=70 v=82
113044 On ch=4 n=66 v=98
113044 On ch=4 n=61 v=85
113080 On ch=4 n=61 v=0
113084 On ch=4 n=70 v=0
113088 On ch=4 n=66 v=0
113520 On ch=4 n=68 v=89
113520 On ch=4 n=65 v=87
113520 On ch=4 n=61 v=78
113548 On ch=4 n=61 v=0
113560 On ch=4 n=65 v=0
113560 On ch=4 n=68 v=0
114000 On ch=4 n=61 v=102
114004 On ch=4 n=68 v=87
114004 On ch=4 n=65 v=70
114040 On ch=4 n=68 v=0
114044 On ch=4 n=65 v=0
114044 On ch=4 n=61 v=0
114480 On ch=4 n=66 v=95
114480 On ch=4 n=70 v=82
114480 On ch=4 n=61 v=87
114504 On ch=4 n=61 v=0
114512 On ch=4 n=70 v=0
114524 On ch=4 n=66 v=0
114960 On ch=4 n=66 v=91
114964 On ch=4 n=70 v=66
114964 On ch=4 n=61 v=87
114992 On ch=4 n=61 v=0
114992 On ch=4 n=70 v=0
115004 On ch=4 n=66 v=0
115440 On ch=4 n=68 v=85
115440 On ch=4 n=72 v=100
115440 On ch=4 n=63 v=91
115468 On ch=4 n=63 v=0
115480 On ch=4 n=68 v=0
115488 On ch=4 n=72 v=0
115920 On ch=4 n=68 v=85
115924 On ch=4 n=72 v=87
115924 On ch=4 n=63 v=85
115948 On ch=4 n=63 v=0
115980 On ch=4 n=68 v=0
115992 On ch=4 n=72 v=0
116400 On ch=4 n=61 v=89
116400 On ch=4 n=70 v=87
116400 On ch=4 n=66 v=82
116440 On ch=4 n=66 v=0
116440 On ch=4 n=61 v=0
116444 On ch=4 n=70 v=0
116880 On ch=4 n=70 v=82
116884 On ch=4 n=66 v=91
116884 On ch=4 n=61 v=80
116904 On ch=4 n=61 v=0
116928 On ch=4 n=66 v=0
116948 On ch=4 n=70 v=0
117360 On ch=4 n=63 v=85
117360 On ch=4 n=72 v=95
117360 On ch=4 n=68 v=61
117384 On ch=4 n=68 v=0
117384 On ch=4 n=63 v=0
117408 On ch=4 n=72 v=0
117844 On ch=4 n=68 v=85
117844 On ch=4 n=63 v=82
117844 On ch=4 n=72 v=91
117864 On ch=4 n=63 v=0
117880 On ch=4 n=68 v=0
117888 On ch=4 n=72 v=0
118320 On ch=4 n=63 v=95
118320 On ch=4 n=68 v=85
118320 On ch=4 n=72 v=87
118352 On ch=4 n=72 v=0
118352 On ch=4 n=68 v=0
118352 On ch=4 n=63 v=0
118804 On ch=4 n=63 v=100
118804 On ch=4 n=68 v=89
118804 On ch=4 n=72 v=95
118848 On ch=4 n=63 v=0
118852 On ch=4 n=72 v=0
118864 On ch=4 n=68 v=0
119280 On ch=4 n=66 v=91
119284 On ch=4 n=70 v=80
119284 On ch=4 n=61 v=80
119300 On ch=4 n=61 v=0
119320 On ch=4 n=70 v=0
119324 On ch=4 n=66 v=0
119760 On ch=4 n=61 v=107
119764 On ch=4 n=70 v=98
119764 On ch=4 n=66 v=100
119800 On ch=4 n=61 v=0
119808 On ch=4 n=66 v=0
119808 On ch=4 n=70 v=0
120240 On ch=4 n=72 v=100
120240 On ch=4 n=68 v=85
120240 On ch=4 n=63 v=98
120268 On ch=4 n=63 v=0
120272 On ch=4 n=68 v=0
120292 On ch=4 n=72 v=0
120720 On ch=4 n=68 v=95
120720 On ch=4 n=72 v=98
120720 On ch=4 n=63 v=98
120748 On ch=4 n=63 v=0
120752 On ch=4 n=68 v=0
120772 On ch=4 n=72 v=0
121200 On ch=4 n=65 v=100
121200 On ch=4 n=61 v=102
121204 On ch=4 n=68 v=89
121232 On ch=4 n=68 v=0
121232 On ch=4 n=61 v=0
121252 On ch=4 n=65 v=0
121680 On ch=4 n=65 v=102
121684 On ch=4 n=61 v=100
121684 On ch=4 n=68 v=91
121704 On ch=4 n=68 v=0
121704 On ch=4 n=61 v=0
121724 On ch=4 n=65 v=0
122160 On ch=4 n=66 v=98
122160 On ch=4 n=70 v=87
122164 On ch=4 n=61 v=82
122200 On ch=4 n=61 v=0
122204 On ch=4 n=70 v=0
122212 On ch=4 n=66 v=0
122640 On ch=4 n=66 v=102
122644 On ch=4 n=70 v=82
122644 On ch=4 n=61 v=98
122664 On ch=4 n=61 v=0
122664 On ch=4 n=70 v=0
122672 On ch=4 n=66 v=0
123120 On ch=4 n=63 v=98
123120 On ch=4 n=68 v=98
123124 On ch=4 n=72 v=95
123148 On ch=4 n=63 v=0
123164 On ch=4 n=72 v=0
123164 On ch=4 n=68 v=0
123600 On ch=4 n=68 v=87
123604 On ch=4 n=63 v=100
123604 On ch=4 n=72 v=91
123624 On ch=4 n=72 v=0
123624 On ch=4 n=63 v=0
123624 On ch=4 n=68 v=0
124080 On ch=4 n=70 v=80
124080 On ch=4 n=66 v=85
124084 On ch=4 n=61 v=87
124112 On ch=4 n=61 v=0
124112 On ch=4 n=66 v=0
124120 On ch=4 n=70 v=0
124560 On ch=4 n=66 v=102
124564 On ch=4 n=70 v=87
124564 On ch=4 n=61 v=85
124600 On ch=4 n=70 v=0
124604 On ch=4 n=61 v=0
124604 On ch=4 n=66 v=0
125040 On ch=4 n=65 v=87
125040 On ch=4 n=68 v=72
125040 On ch=4 n=61 v=87
125060 On ch=4 n=61 v=0
125068 On ch=4 n=68 v=0
125088 On ch=4 n=65 v=0
125520 On ch=4 n=68 v=87
125524 On ch=4 n=65 v=87
125524 On ch=4 n=61 v=91
125544 On ch=4 n=61 v=0
125544 On ch=4 n=68 v=0
125552 On ch=4 n=65 v=0
126000 On ch=4 n=70 v=82
126000 On ch=4 n=66 v=78
126000 On ch=4 n=61 v=80
126032 On ch=4 n=61 v=0
126032 On ch=4 n=66 v=0
126040 On ch=4 n=70 v=0
126480 On ch=4 n=66 v=100
126484 On ch=4 n=70 v=82
126484 On ch=4 n=61 v=91
126512 On ch=4 n=61 v=0
126512 On ch=4 n=70 v=0
126524 On ch=4 n=66 v=0
126960 On ch=4 n=68 v=87
126960 On ch=4 n=72 v=87
126960 On ch=4 n=63 v=80
126992 On ch=4 n=63 v=0
127008 On ch=4 n=68 v=0
127012 On ch=4 n=72 v=0
127440 On ch=4 n=72 v=98
127444 On ch=4 n=68 v=82
127444 On ch=4 n=63 v=82
127480 On ch=4 n=63 v=0
127484 On ch=4 n=68 v=0
127488 On ch=4 n=72 v=0
127920 On ch=4 n=61 v=85
127920 On ch=4 n=70 v=78
127920 On ch=4 n=66 v=80
127964 On ch=4 n=66 v=0
127964 On ch=4 n=70 v=0
127964 On ch=4 n=61 v=0
128400 On ch=4 n=70 v=82
128404 On ch=4 n=66 v=98
128404 On ch=4 n=61 v=85
128440 On ch=4 n=61 v=0
128444 On ch=4 n=70 v=0
128448 On ch=4 n=66 v=0
128880 On ch=4 n=68 v=89
128880 On ch=4 n=65 v=87
128880 On ch=4 n=61 v=78
128908 On ch=4 n=61 v=0
128920 On ch=4 n=65 v=0
128920 On ch=4 n=68 v=0
129360 On ch=4 n=61 v=102
129364 On ch=4 n=68 v=87
129364 On ch=4 n=65 v=70
129400 On ch=4 n=68 v=0
129404 On ch=4 n=65 v=0
129404 On ch=4 n=61 v=0
129840 On ch=4 n=66 v=95
129840 On ch=4 n=70 v=82
129840 On ch=4 n=61 v=87
129864 On ch=4 n=61 v=0
129872 On ch=4 n=70 v=0
129884 On ch=4 n=66 v=0
130320 On ch=4 n=66 v=91
130324 On ch=4 n=70 v=66
130324 On ch=4 n=61 v=87
130352 On ch=4 n=61 v=0
130352 On ch=4 n=70 v=0
130364 On ch=4 n=66 v=0
130800 On ch=4 n=68 v=85
130800 On ch=4 n=72 v=100
130800 On ch=4 n=63 v=91
130828 On ch=4 n=63 v=0
130840 On ch=4 n=68 v=0
130848 On ch=4 n=72 v=0
131280 On ch=4 n=68 v=85
131280 On ch=4 n=72 v=87
131284 On ch=4 n=63 v=85
131308 On ch=4 n=63 v=0
131340 On ch=4 n=68 v=0
131352 On ch=4 n=72 v=0
131760 On ch=4 n=61 v=89
131760 On ch=4 n=70 v=87
131760 On ch=4 n=66 v=82
131800 On ch=4 n=66 v=0
131800 On ch=4 n=61 v=0
131804 On ch=4 n=70 v=0
132244 On ch=4 n=70 v=82
132244 On ch=4 n=66 v=91
132244 On ch=4 n=61 v=80
132264 On ch=4 n=61 v=0
132288 On ch=4 n=66 v=0
132308 On ch=4 n=70 v=0
132720 On ch=4 n=63 v=85
132720 On ch=4 n=72 v=95
132724 On ch=4 n=68 v=61
132744 On ch=4 n=68 v=0
132744 On ch=4 n=63 v=0
132768 On ch=4 n=72 v=0
133204 On ch=4 n=68 v=85
133204 On ch=4 n=63 v=82
133204 On ch=4 n=72 v=91
133224 On ch=4 n=63 v=0
133240 On ch=4 n=68 v=0
133248 On ch=4 n=72 v=0
133680 On ch=4 n=63 v=95
133680 On ch=4 n=68 v=85
133684 On ch=4 n=72 v=87
133712 On ch=4 n=72 v=0
133712 On ch=4 n=68 v=0
133716 On ch=4 n=63 v=0
134160 On ch=4 n=63 v=100
134164 On ch=4 n=68 v=89
134164 On ch=4 n=72 v=95
134208 On ch=4 n=63 v=0
134212 On ch=4 n=72 v=0
134224 On ch=4 n=68 v=0
134640 On ch=4 n=66 v=91
134644 On ch=4 n=70 v=80
134644 On ch=4 n=61 v=80
134660 On ch=4 n=61 v=0
134680 On ch=4 n=70 v=0
134684 On ch=4 n=66 v=0
135120 On ch=4 n=61 v=107
135124 On ch=4 n=70 v=98
135124 On ch=4 n=66 v=100
135160 On ch=4 n=61 v=0
135168 On ch=4 n=66 v=0
135168 On ch=4 n=70 v=0
135600 On ch=4 n=72 v=100
135600 On ch=4 n=68 v=85
135600 On ch=4 n=63 v=98
135628 On ch=4 n=63 v=0
135632 On ch=4 n=68 v=0
135652 On ch=4 n=72 v=0
136080 On ch=4 n=68 v=95
136080 On ch=4 n=72 v=98
136080 On ch=4 n=63 v=98
136108 On ch=4 n=63 v=0
136112 On ch=4 n=68 v=0
136132 On ch=4 n=72 v=0
136560 On ch=4 n=65 v=100
136560 On ch=4 n=61 v=102
136564 On ch=4 n=68 v=89
136592 On ch=4 n=68 v=0
136592 On ch=4 n=61 v=0
136612 On ch=4 n=65 v=0
137040 On ch=4 n=65 v=102
137044 On ch=4 n=61 v=100
137044 On ch=4 n=68 v=91
137064 On ch=4 n=68 v=0
137064 On ch=4 n=61 v=0
137084 On ch=4 n=65 v=0
137520 On ch=4 n=66 v=98
137520 On ch=4 n=70 v=87
137524 On ch=4 n=61 v=82
137560 On ch=4 n=61 v=0
137564 On ch=4 n=70 v=0
137572 On ch=4 n=66 v=0
138000 On ch=4 n=66 v=102
138004 On ch=4 n=70 v=82
138004 On ch=4 n=61 v=98
138024 On ch=4 n=61 v=0
138024 On ch=4 n=70 v=0
138032 On ch=4 n=66 v=0
138480 On ch=4 n=63 v=98
138480 On ch=4 n=68 v=98
138480 On ch=4 n=72 v=95
138508 On ch=4 n=63 v=0
138524 On ch=4 n=72 v=0
138524 On ch=4 n=68 v=0
138960 On ch=4 n=68 v=87
138964 On ch=4 n=63 v=100
138964 On ch=4 n=72 v=91
138984 On ch=4 n=72 v=0
138984 On ch=4 n=63 v=0
138984 On ch=4 n=68 v=0
139440 On ch=4 n=70 v=80
139440 On ch=4 n=66 v=85
139444 On ch=4 n=61 v=87
139472 On ch=4 n=61 v=0
139472 On ch=4 n=66 v=0
139480 On ch=4 n=70 v=0
139920 On ch=4 n=66 v=102
139924 On ch=4 n=70 v=87
139924 On ch=4 n=61 v=85
139960 On ch=4 n=70 v=0
139964 On ch=4 n=61 v=0
139964 On ch=4 n=66 v=0
140400 On ch=4 n=65 v=87
140400 On ch=4 n=68 v=72
140400 On ch=4 n=61 v=87
140420 On ch=4 n=61 v=0
140428 On ch=4 n=68 v=0
140448 On ch=4 n=65 v=0
140880 On ch=4 n=68 v=87
140884 On ch=4 n=65 v=87
140884 On ch=4 n=61 v=91
140904 On ch=4 n=61 v=0
140904 On ch=4 n=68 v=0
140912 On ch=4 n=65 v=0
141360 On ch=4 n=70 v=82
141360 On ch=4 n=66 v=78
141360 On ch=4 n=61 v=80
141392 On ch=4 n=61 v=0
141392 On ch=4 n=66 v=0
141400 On ch=4 n=70 v=0
141840 On ch=4 n=66 v=100
141844 On ch=4 n=70 v=82
141844 On ch=4 n=61 v=91
141872 On ch=4 n=61 v=0
141872 On ch=4 n=70 v=0
141884 On ch=4 n=66 v=0
142320 On ch=4 n=68 v=87
142320 On ch=4 n=72 v=87
142320 On ch=4 n=63 v=80
142352 On ch=4 n=63 v=0
142368 On ch=4 n=68 v=0
142372 On ch=4 n=72 v=0
142800 On ch=4 n=72 v=98
142800 On ch=4 n=68 v=82
142804 On ch=4 n=63 v=82
142840 On ch=4 n=63 v=0
142844 On ch=4 n=68 v=0
142848 On ch=4 n=72 v=0
143280 On ch=4 n=61 v=85
143280 On ch=4 n=70 v=78
143280 On ch=4 n=66 v=80
143324 On ch=4 n=66 v=0
143324 On ch=4 n=70 v=0
143324 On ch=4 n=61 v=0
143760 On ch=4 n=70 v=82
143760 On ch=4 n=66 v=98
143764 On ch=4 n=61 v=85
143800 On ch=4 n=61 v=0
143804 On ch=4 n=70 v=0
143808 On ch=4 n=66 v=0
144240 On ch=4 n=68 v=89
144240 On ch=4 n=65 v=87
144240 On ch=4 n=61 v=78
144268 On ch=4 n=61 v=0
144280 On ch=4 n=65 v=0
144280 On ch=4 n=68 v=0
144720 On ch=4 n=61 v=102
144724 On ch=4 n=68 v=87
144724 On ch=4 n=65 v=70
144760 On ch=4 n=68 v=0
144764 On ch=4 n=65 v=0
144764 On ch=4 n=61 v=0
145200 On ch=4 n=66 v=95
145200 On ch=4 n=70 v=82
145200 On ch=4 n=61 v=87
145224 On ch=4 n=61 v=0
145232 On ch=4 n=70 v=0
145244 On ch=4 n=66 v=0
145680 On ch=4 n=66 v=91
145684 On ch=4 n=70 v=66
145684 On ch=4 n=61 v=87
145712 On ch=4 n=61 v=0
145712 On ch=4 n=70 v=0
145724 On ch=4 n=66 v=0
146160 On ch=4 n=68 v=85
146160 On ch=4 n=72 v=100
146164 On ch=4 n=63 v=91
146188 On ch=4 n=63 v=0
146200 On ch=4 n=68 v=0
146208 On ch=4 n=72 v=0
146640 On ch=4 n=68 v=85
146644 On ch=4 n=72 v=87
146644 On ch=4 n=63 v=85
146668 On ch=4 n=63 v=0
146700 On ch=4 n=68 v=0
146712 On ch=4 n=72 v=0
147120 On ch=4 n=61 v=89
147120 On ch=4 n=70 v=87
147124 On ch=4 n=66 v=82
147160 On ch=4 n=66 v=0
147160 On ch=4 n=61 v=0
147164 On ch=4 n=70 v=0
147600 On ch=4 n=70 v=82
147604 On ch=4 n=66 v=91
147604 On ch=4 n=61 v=80
147624 On ch=4 n=61 v=0
147648 On ch=4 n=66 v=0
147668 On ch=4 n=70 v=0
148080 On ch=4 n=63 v=85
148080 On ch=4 n=72 v=95
148080 On ch=4 n=68 v=61
148104 On ch=4 n=68 v=0
148104 On ch=4 n=63 v=0
148128 On ch=4 n=72 v=0
148564 On ch=4 n=68 v=85
148564 On ch=4 n=63 v=82
148564 On ch=4 n=72 v=91
148584 On ch=4 n=63 v=0
148600 On ch=4 n=68 v=0
148608 On ch=4 n=72 v=0
149040 On ch=4 n=63 v=95
149040 On ch=4 n=68 v=85
149044 On ch=4 n=72 v=87
149072 On ch=4 n=72 v=0
149072 On ch=4 n=68 v=0
149072 On ch=4 n=63 v=0
149520 On ch=4 n=63 v=100
149524 On ch=4 n=68 v=89
149524 On ch=4 n=72 v=95
149568 On ch=4 n=63 v=0
149572 On ch=4 n=72 v=0
149584 On ch=4 n=68 v=0
150000 On ch=4 n=66 v=91
150004 On ch=4 n=70 v=80
150004 On ch=4 n=61 v=80
150020 On ch=4 n=61 v=0
150040 On ch=4 n=70 v=0
150044 On ch=4 n=66 v=0
150480 On ch=4 n=61 v=107
150484 On ch=4 n=70 v=98
150484 On ch=4 n=66 v=100
150520 On ch=4 n=61 v=0
150528 On ch=4 n=66 v=0
150528 On ch=4 n=70 v=0
150960 On ch=4 n=72 v=100
150960 On ch=4 n=68 v=85
150960 On ch=4 n=63 v=98
150988 On ch=4 n=63 v=0
150992 On ch=4 n=68 v=0
151012 On ch=4 n=72 v=0
151440 On ch=4 n=68 v=95
151440 On ch=4 n=72 v=98
151440 On ch=4 n=63 v=98
151468 On ch=4 n=63 v=0
151472 On ch=4 n=68 v=0
151492 On ch=4 n=72 v=0
151492 Meta TrkEnd
TrkEnd
MTrk
0 Meta 0x21 00
0 Meta TrkName "Harmonica"
0 PrCh ch=5 p=22
0 Par ch=5 c=7 v=127
67408 On ch=5 n=65 v=59
67408 On ch=5 n=68 v=56
67412 On ch=5 n=73 v=57
68092 On ch=5 n=65 v=0
68120 On ch=5 n=73 v=0
68132 On ch=5 n=68 v=0
68148 On ch=5 n=66 v=63
68152 On ch=5 n=70 v=64
68160 On ch=5 n=61 v=60
68584 ChPr ch=5 v=1
68640 ChPr ch=5 v=0
69060 On ch=5 n=66 v=0
69108 On ch=5 n=61 v=0
69108 On ch=5 n=70 v=0
69400 On ch=5 n=68 v=78
69404 On ch=5 n=63 v=59
69404 On ch=5 n=73 v=70
70012 On ch=5 n=63 v=0
70012 On ch=5 n=68 v=0
70020 On ch=5 n=73 v=0
70052 On ch=5 n=72 v=80
70060 On ch=5 n=68 v=78
70064 On ch=5 n=63 v=53
70940 On ch=5 n=63 v=0
70944 On ch=5 n=72 v=0
70952 On ch=5 n=68 v=0
71208 On ch=5 n=65 v=57
71212 On ch=5 n=68 v=63
71212 On ch=5 n=73 v=64
71940 On ch=5 n=65 v=0
71948 On ch=5 n=73 v=0
71952 On ch=5 n=68 v=0
71984 On ch=5 n=70 v=66
71992 On ch=5 n=66 v=72
71992 On ch=5 n=61 v=64
72804 On ch=5 n=66 v=0
72824 On ch=5 n=70 v=0
72832 On ch=5 n=61 v=0
73128 On ch=5 n=73 v=78
73128 On ch=5 n=63 v=57
73132 On ch=5 n=68 v=80
73840 On ch=5 n=68 v=0
73844 On ch=5 n=73 v=0
73852 On ch=5 n=63 v=0
73884 On ch=5 n=68 v=80
73884 On ch=5 n=72 v=95
73888 On ch=5 n=63 v=64
75132 On ch=5 n=72 v=0
75132 On ch=5 n=68 v=0
75140 On ch=5 n=63 v=0
75140 Meta TrkEnd
TrkEnd
MTrk
0 Meta 0x21 00
0 Meta TrkName "Voice Oohs"
0 PrCh ch=7 p=26
0 Par ch=7 c=7 v=127
38400 On ch=7 n=73 v=98
38660 On ch=7 n=73 v=0
38864 On ch=7 n=68 v=91
39120 On ch=7 n=68 v=0
39364 On ch=7 n=66 v=98
39620 On ch=7 n=66 v=0
39840 On ch=7 n=65 v=98
40108 On ch=7 n=65 v=0
40304 On ch=7 n=61 v=100
41184 On ch=7 n=61 v=0
46088 On ch=7 n=61 v=105
46248 On ch=7 n=61 v=0
46572 On ch=7 n=65 v=100
46732 On ch=7 n=65 v=0
47028 On ch=7 n=66 v=105
47200 On ch=7 n=66 v=0
47508 On ch=7 n=68 v=98
47648 On ch=7 n=68 v=0
47984 On ch=7 n=73 v=110
48140 On ch=7 n=73 v=0
49904 On ch=7 n=75 v=110
50080 On ch=7 n=75 v=0
50896 On ch=7 n=87 v=105
51324 On ch=7 n=87 v=0
52308 On ch=7 n=68 v=87
52792 On ch=7 n=68 v=0
52796 On ch=7 n=66 v=87
53272 On ch=7 n=66 v=0
53288 On ch=7 n=65 v=85
53748 On ch=7 n=65 v=0
53752 On ch=7 n=63 v=82
54640 On ch=7 n=63 v=0
76800 On ch=7 n=73 v=98
77060 On ch=7 n=73 v=0
77260 On ch=7 n=68 v=91
77520 On ch=7 n=68 v=0
77760 On ch=7 n=66 v=98
78020 On ch=7 n=66 v=0
78240 On ch=7 n=65 v=98
78508 On ch=7 n=65 v=0
78704 On ch=7 n=61 v=100
79584 On ch=7 n=61 v=0
84488 On ch=7 n=61 v=105
84648 On ch=7 n=61 v=0
84972 On ch=7 n=65 v=100
85132 On ch=7 n=65 v=0
85428 On ch=7 n=66 v=105
85600 On ch=7 n=66 v=0
85908 On ch=7 n=68 v=98
86048 On ch=7 n=68 v=0
86384 On ch=7 n=73 v=110
86540 On ch=7 n=73 v=0
88304 On ch=7 n=75 v=110
88480 On ch=7 n=75 v=0
89296 On ch=7 n=87 v=105
89724 On ch=7 n=87 v=0
90708 On ch=7 n=68 v=87
91192 On ch=7 n=68 v=0
91196 On ch=7 n=66 v=87
91672 On ch=7 n=66 v=0
91688 On ch=7 n=65 v=85
92148 On ch=7 n=65 v=0
92152 On ch=7 n=63 v=82
93040 On ch=7 n=63 v=0
93040 Meta TrkEnd
TrkEnd
MTrk
0 Meta 0x21 00
0 Meta TrkName "Percussion (drums)"
0 PrCh ch=10 p=0
0 Par ch=10 c=7 v=127
20 Par ch=10 c=7 v=127
20 Par ch=10 c=91 v=90
20 Par ch=10 c=93 v=60
20 On ch=10 n=42 v=116
24 On ch=10 n=42 v=0
500 On ch=10 n=42 v=116
504 On ch=10 n=42 v=0
980 On ch=10 n=36 v=100
980 On ch=10 n=46 v=100
984 On ch=10 n=46 v=0
984 On ch=10 n=36 v=0
1340 On ch=10 n=65 v=127
1344 On ch=10 n=65 v=0
1460 On ch=10 n=65 v=127
1464 On ch=10 n=65 v=0
1700 On ch=10 n=41 v=100
1704 On ch=10 n=41 v=0
1940 On ch=10 n=36 v=116
1944 On ch=10 n=36 v=0
2180 On ch=10 n=42 v=100
2180 On ch=10 n=69 v=84
2184 On ch=10 n=69 v=0
2184 On ch=10 n=42 v=0
2420 On ch=10 n=38 v=127
2420 On ch=10 n=42 v=100
2420 On ch=10 n=37 v=116
2424 On ch=10 n=37 v=0
2424 On ch=10 n=42 v=0
2424 On ch=10 n=38 v=0
2540 On ch=10 n=38 v=68
2540 On ch=10 n=37 v=68
2544 On ch=10 n=37 v=0
2544 On ch=10 n=38 v=0
2660 On ch=10 n=38 v=52
2660 On ch=10 n=42 v=100
2660 On ch=10 n=37 v=52
2660 On ch=10 n=69 v=84
2664 On ch=10 n=69 v=0
2664 On ch=10 n=38 v=0
2664 On ch=10 n=42 v=0
2664 On ch=10 n=37 v=0
2900 On ch=10 n=36 v=116
2900 On ch=10 n=42 v=100
2904 On ch=10 n=42 v=0
2904 On ch=10 n=36 v=0
3020 On ch=10 n=42 v=68
3024 On ch=10 n=42 v=0
3140 On ch=10 n=42 v=100
3140 On ch=10 n=69 v=84
3144 On ch=10 n=69 v=0
3144 On ch=10 n=42 v=0
3380 On ch=10 n=38 v=127
3380 On ch=10 n=42 v=100
3380 On ch=10 n=37 v=116
3384 On ch=10 n=37 v=0
3384 On ch=10 n=42 v=0
3384 On ch=10 n=38 v=0
3500 On ch=10 n=38 v=68
3500 On ch=10 n=37 v=68
3504 On ch=10 n=37 v=0
3504 On ch=10 n=38 v=0
3620 On ch=10 n=38 v=52
3620 On ch=10 n=42 v=100
3620 On ch=10 n=37 v=52
3624 On ch=10 n=37 v=0
3624 On ch=10 n=42 v=0
3624 On ch=10 n=38 v=0
3624 On ch=10 n=69 v=84
3628 On ch=10 n=69 v=0
3860 On ch=10 n=36 v=116
3860 On ch=10 n=42 v=100
3864 On ch=10 n=42 v=0
3864 On ch=10 n=36 v=0
3980 On ch=10 n=42 v=100
3984 On ch=10 n=42 v=0
4100 On ch=10 n=42 v=100
4100 On ch=10 n=69 v=84
4104 On ch=10 n=69 v=0
4104 On ch=10 n=42 v=0
4340 On ch=10 n=38 v=127
4340 On ch=10 n=42 v=100
4340 On ch=10 n=37 v=116
4344 On ch=10 n=37 v=0
4344 On ch=10 n=42 v=0
4344 On ch=10 n=38 v=0
4460 On ch=10 n=38 v=68
4460 On ch=10 n=37 v=68
4464 On ch=10 n=37 v=0
4464 On ch=10 n=38 v=0
4580 On ch=10 n=38 v=52
4580 On ch=10 n=42 v=100
4580 On ch=10 n=37 v=52
4584 On ch=10 n=37 v=0
4584 On ch=10 n=42 v=0
4584 On ch=10 n=38 v=0
4584 On ch=10 n=69 v=84
4588 On ch=10 n=69 v=0
4820 On ch=10 n=36 v=116
4820 On ch=10 n=42 v=100
4824 On ch=10 n=42 v=0
4824 On ch=10 n=36 v=0
5060 On ch=10 n=42 v=100
5060 On ch=10 n=69 v=84
5064 On ch=10 n=69 v=0
5064 On ch=10 n=42 v=0
5300 On ch=10 n=38 v=127
5300 On ch=10 n=42 v=100
5300 On ch=10 n=37 v=116
5304 On ch=10 n=37 v=0
5304 On ch=10 n=42 v=0
5304 On ch=10 n=38 v=0
5420 On ch=10 n=38 v=68
5420 On ch=10 n=37 v=68
5424 On ch=10 n=37 v=0
5424 On ch=10 n=38 v=0
5540 On ch=10 n=38 v=52
5540 On ch=10 n=42 v=100
5540 On ch=10 n=37 v=52
5540 On ch=10 n=69 v=84
5544 On ch=10 n=69 v=0
5544 On ch=10 n=38 v=0
5544 On ch=10 n=42 v=0
5544 On ch=10 n=37 v=0
5780 On ch=10 n=36 v=116
5784 On ch=10 n=36 v=0
6020 On ch=10 n=42 v=100
6020 On ch=10 n=69 v=84
6024 On ch=10 n=69 v=0
6024 On ch=10 n=42 v=0
6260 On ch=10 n=38 v=127
6260 On ch=10 n=42 v=100
6260 On ch=10 n=37 v=116
6264 On ch=10 n=37 v=0
6264 On ch=10 n=42 v=0
6264 On ch=10 n=38 v=0
6380 On ch=10 n=38 v=68
6380 On ch=10 n=37 v=68
6384 On ch=10 n=37 v=0
6384 On ch=10 n=38 v=0
6500 On ch=10 n=38 v=52
6500 On ch=10 n=42 v=100
6500 On ch=10 n=37 v=52
6500 On ch=10 n=69 v=84
6504 On ch=10 n=69 v=0
6504 On ch=10 n=38 v=0
6504 On ch=10 n=42 v=0
6504 On ch=10 n=37 v=0
6740 On ch=10 n=36 v=116
6740 On ch=10 n=42 v=100
6744 On ch=10 n=42 v=0
6744 On ch=10 n=36 v=0
6860 On ch=10 n=42 v=68
6864 On ch=10 n=42 v=0
6980 On ch=10 n=42 v=100
6980 On ch=10 n=69 v=84
6984 On ch=10 n=69 v=0
6984 On ch=10 n=42 v=0
7220 On ch=10 n=38 v=127
7220 On ch=10 n=42 v=100
7220 On ch=10 n=37 v=116
7224 On ch=10 n=37 v=0
7224 On ch=10 n=42 v=0
7224 On ch=10 n=38 v=0
7340 On ch=10 n=38 v=68
7340 On ch=10 n=37 v=68
7344 On ch=10 n=37 v=0
7344 On ch=10 n=38 v=0
7460 On ch=10 n=38 v=52
7460 On ch=10 n=42 v=100
7460 On ch=10 n=37 v=52
7460 On ch=10 n=69 v=84
7464 On ch=10 n=69 v=0
7464 On ch=10 n=38 v=0
7464 On ch=10 n=42 v=0
7464 On ch=10 n=37 v=0
7700 On ch=10 n=36 v=116
7700 On ch=10 n=42 v=100
7704 On ch=10 n=42 v=0
7704 On ch=10 n=36 v=0
7820 On ch=10 n=42 v=100
7824 On ch=10 n=42 v=0
7940 On ch=10 n=42 v=100
7940 On ch=10 n=69 v=84
7944 On ch=10 n=69 v=0
7944 On ch=10 n=42 v=0
8180 On ch=10 n=38 v=127
8180 On ch=10 n=42 v=100
8180 On ch=10 n=37 v=116
8184 On ch=10 n=37 v=0
8184 On ch=10 n=42 v=0
8184 On ch=10 n=38 v=0
8300 On ch=10 n=38 v=68
8300 On ch=10 n=37 v=68
8304 On ch=10 n=37 v=0
8304 On ch=10 n=38 v=0
8420 On ch=10 n=38 v=52
8420 On ch=10 n=42 v=100
8420 On ch=10 n=37 v=52
8424 On ch=10 n=37 v=0
8424 On ch=10 n=42 v=0
8424 On ch=10 n=38 v=0
8424 On ch=10 n=69 v=84
8428 On ch=10 n=69 v=0
8660 On ch=10 n=36 v=116
8660 On ch=10 n=42 v=100
8664 On ch=10 n=42 v=0
8664 On ch=10 n=36 v=0
8900 On ch=10 n=42 v=100
8900 On ch=10 n=69 v=84
8904 On ch=10 n=69 v=0
8904 On ch=10 n=42 v=0
9140 On ch=10 n=38 v=127
9140 On ch=10 n=42 v=100
9140 On ch=10 n=37 v=116
9144 On ch=10 n=37 v=0
9144 On ch=10 n=42 v=0
9144 On ch=10 n=38 v=0
9260 On ch=10 n=38 v=68
9260 On ch=10 n=37 v=68
9264 On ch=10 n=37 v=0
9264 On ch=10 n=38 v=0
9380 On ch=10 n=38 v=52
9380 On ch=10 n=42 v=100
9380 On ch=10 n=37 v=52
9384 On ch=10 n=37 v=0
9384 On ch=10 n=42 v=0
9384 On ch=10 n=38 v=0
9384 On ch=10 n=69 v=84
9388 On ch=10 n=69 v=0
9620 On ch=10 n=36 v=116
9624 On ch=10 n=36 v=0
9860 On ch=10 n=42 v=100
9860 On ch=10 n=69 v=84
9864 On ch=10 n=69 v=0
9864 On ch=10 n=42 v=0
10100 On ch=10 n=38 v=127
10100 On ch=10 n=42 v=100
10100 On ch=10 n=37 v=116
10104 On ch=10 n=37 v=0
10104 On ch=10 n=42 v=0
10104 On ch=10 n=38 v=0
10220 On ch=10 n=38 v=68
10220 On ch=10 n=37 v=68
10224 On ch=10 n=37 v=0
10224 On ch=10 n=38 v=0
10340 On ch=10 n=38 v=52
10340 On ch=10 n=42 v=100
10340 On ch=10 n=37 v=52
10344 On ch=10 n=37 v=0
10344 On ch=10 n=42 v=0
10344 On ch=10 n=38 v=0
10344 On ch=10 n=69 v=84
10348 On ch=10 n=69 v=0
10580 On ch=10 n=36 v=116
10580 On ch=10 n=42 v=100
10584 On ch=10 n=42 v=0
10584 On ch=10 n=36 v=0
10700 On ch=10 n=42 v=68
10704 On ch=10 n=42 v=0
10820 On ch=10 n=42 v=100
10820 On ch=10 n=69 v=84
10824 On ch=10 n=69 v=0
10824 On ch=10 n=42 v=0
11060 On ch=10 n=38 v=127
11060 On ch=10 n=42 v=100
11060 On ch=10 n=37 v=116
11064 On ch=10 n=37 v=0
11064 On ch=10 n=42 v=0
11064 On ch=10 n=38 v=0
11180 On ch=10 n=38 v=68
11180 On ch=10 n=37 v=68
11184 On ch=10 n=37 v=0
11184 On ch=10 n=38 v=0
11300 On ch=10 n=38 v=52
11300 On ch=10 n=42 v=100
11300 On ch=10 n=37 v=52
11304 On ch=10 n=37 v=0
11304 On ch=10 n=42 v=0
11304 On ch=10 n=38 v=0
11304 On ch=10 n=69 v=84
11308 On ch=10 n=69 v=0
11540 On ch=10 n=36 v=116
11540 On ch=10 n=42 v=100
11544 On ch=10 n=42 v=0
11544 On ch=10 n=36 v=0
11660 On ch=10 n=42 v=100
11664 On ch=10 n=42 v=0
11780 On ch=10 n=42 v=100
11780 On ch=10 n=69 v=84
11784 On ch=10 n=69 v=0
11784 On ch=10 n=42 v=0
12020 On ch=10 n=38 v=127
12020 On ch=10 n=42 v=100
12020 On ch=10 n=37 v=116
12024 On ch=10 n=37 v=0
12024 On ch=10 n=42 v=0
12024 On ch=10 n=38 v=0
12140 On ch=10 n=38 v=68
12140 On ch=10 n=37 v=68
12144 On ch=10 n=37 v=0
12144 On ch=10 n=38 v=0
12260 On ch=10 n=38 v=52
12260 On ch=10 n=42 v=100
12260 On ch=10 n=37 v=52
12264 On ch=10 n=37 v=0
12264 On ch=10 n=42 v=0
12264 On ch=10 n=38 v=0
12264 On ch=10 n=69 v=84
12268 On ch=10 n=69 v=0
12500 On ch=10 n=36 v=116
12500 On ch=10 n=42 v=100
12504 On ch=10 n=42 v=0
12504 On ch=10 n=36 v=0
12740 On ch=10 n=42 v=100
12740 On ch=10 n=69 v=84
12744 On ch=10 n=69 v=0
12744 On ch=10 n=42 v=0
12980 On ch=10 n=38 v=127
12980 On ch=10 n=42 v=100
12980 On ch=10 n=37 v=116
12984 On ch=10 n=37 v=0
12984 On ch=10 n=42 v=0
12984 On ch=10 n=38 v=0
13100 On ch=10 n=38 v=68
13100 On ch=10 n=37 v=68
13104 On ch=10 n=37 v=0
13104 On ch=10 n=38 v=0
13220 On ch=10 n=38 v=52
13220 On ch=10 n=42 v=100
13220 On ch=10 n=37 v=52
13224 On ch=10 n=37 v=0
13224 On ch=10 n=42 v=0
13224 On ch=10 n=38 v=0
13224 On ch=10 n=69 v=84
13228 On ch=10 n=69 v=0
13460 On ch=10 n=36 v=116
13460 On ch=10 n=42 v=100
13464 On ch=10 n=42 v=0
13464 On ch=10 n=36 v=0
13580 On ch=10 n=42 v=100
13584 On ch=10 n=42 v=0
13700 On ch=10 n=42 v=100
13704 On ch=10 n=42 v=0
13820 On ch=10 n=69 v=84
13824 On ch=10 n=69 v=0
13940 On ch=10 n=38 v=127
13940 On ch=10 n=42 v=100
13940 On ch=10 n=37 v=116
13940 On ch=10 n=69 v=127
13944 On ch=10 n=69 v=0
13944 On ch=10 n=38 v=0
13944 On ch=10 n=42 v=0
13944 On ch=10 n=37 v=0
14060 On ch=10 n=38 v=68
14060 On ch=10 n=37 v=68
14060 On ch=10 n=69 v=84
14064 On ch=10 n=69 v=0
14064 On ch=10 n=37 v=0
14064 On ch=10 n=38 v=0
14180 On ch=10 n=38 v=52
14180 On ch=10 n=42 v=100
14180 On ch=10 n=37 v=52
14184 On ch=10 n=37 v=0
14184 On ch=10 n=42 v=0
14184 On ch=10 n=38 v=0
14300 On ch=10 n=69 v=100
14304 On ch=10 n=69 v=0
14420 On ch=10 n=36 v=116
14420 On ch=10 n=42 v=100
14424 On ch=10 n=42 v=0
14424 On ch=10 n=36 v=0
14540 On ch=10 n=69 v=100
14544 On ch=10 n=69 v=0
14660 On ch=10 n=42 v=100
14664 On ch=10 n=42 v=0
14780 On ch=10 n=69 v=84
14784 On ch=10 n=69 v=0
14900 On ch=10 n=38 v=127
14900 On ch=10 n=42 v=100
14900 On ch=10 n=37 v=116
14900 On ch=10 n=69 v=127
14904 On ch=10 n=69 v=0
14904 On ch=10 n=38 v=0
14904 On ch=10 n=42 v=0
14904 On ch=10 n=37 v=0
15020 On ch=10 n=38 v=68
15020 On ch=10 n=37 v=68
15020 On ch=10 n=69 v=84
15024 On ch=10 n=69 v=0
15024 On ch=10 n=37 v=0
15024 On ch=10 n=38 v=0
15140 On ch=10 n=38 v=52
15140 On ch=10 n=42 v=100
15140 On ch=10 n=37 v=52
15144 On ch=10 n=37 v=0
15144 On ch=10 n=42 v=0
15144 On ch=10 n=38 v=0
15380 On ch=10 n=36 v=116
15380 On ch=10 n=42 v=100
15384 On ch=10 n=42 v=0
15384 On ch=10 n=36 v=0
15500 On ch=10 n=42 v=100
15504 On ch=10 n=42 v=0
15620 On ch=10 n=42 v=100
15624 On ch=10 n=42 v=0
15740 On ch=10 n=69 v=84
15744 On ch=10 n=69 v=0
15860 On ch=10 n=38 v=127
15860 On ch=10 n=42 v=100
15860 On ch=10 n=37 v=116
15864 On ch=10 n=37 v=0
15864 On ch=10 n=42 v=0
15864 On ch=10 n=38 v=0
15864 On ch=10 n=69 v=127
15868 On ch=10 n=69 v=0
15980 On ch=10 n=38 v=68
15980 On ch=10 n=37 v=68
15980 On ch=10 n=69 v=84
15984 On ch=10 n=69 v=0
15984 On ch=10 n=37 v=0
15984 On ch=10 n=38 v=0
16100 On ch=10 n=38 v=52
16100 On ch=10 n=42 v=100
16100 On ch=10 n=37 v=52
16104 On ch=10 n=37 v=0
16104 On ch=10 n=42 v=0
16104 On ch=10 n=38 v=0
16220 On ch=10 n=69 v=100
16224 On ch=10 n=69 v=0
16340 On ch=10 n=36 v=116
16340 On ch=10 n=42 v=100
16344 On ch=10 n=42 v=0
16344 On ch=10 n=36 v=0
16460 On ch=10 n=69 v=100
16464 On ch=10 n=69 v=0
16580 On ch=10 n=42 v=100
16584 On ch=10 n=42 v=0
16700 On ch=10 n=36 v=116
16700 On ch=10 n=69 v=84
16704 On ch=10 n=69 v=0
16704 On ch=10 n=36 v=0
16820 On ch=10 n=38 v=127
16820 On ch=10 n=42 v=100
16820 On ch=10 n=37 v=116
16824 On ch=10 n=37 v=0
16824 On ch=10 n=42 v=0
16824 On ch=10 n=38 v=0
16824 On ch=10 n=69 v=127
16828 On ch=10 n=69 v=0
16940 On ch=10 n=38 v=68
16940 On ch=10 n=37 v=68
16940 On ch=10 n=69 v=84
16944 On ch=10 n=69 v=0
16944 On ch=10 n=37 v=0
16944 On ch=10 n=38 v=0
17060 On ch=10 n=38 v=52
17060 On ch=10 n=42 v=100
17060 On ch=10 n=37 v=52
17064 On ch=10 n=37 v=0
17064 On ch=10 n=42 v=0
17064 On ch=10 n=38 v=0
17300 On ch=10 n=36 v=116
17304 On ch=10 n=36 v=0
17540 On ch=10 n=42 v=100
17540 On ch=10 n=69 v=84
17544 On ch=10 n=69 v=0
17544 On ch=10 n=42 v=0
17780 On ch=10 n=38 v=127
17780 On ch=10 n=42 v=100
17780 On ch=10 n=37 v=116
17784 On ch=10 n=37 v=0
17784 On ch=10 n=42 v=0
17784 On ch=10 n=38 v=0
17900 On ch=10 n=38 v=68
17900 On ch=10 n=37 v=68
17904 On ch=10 n=37 v=0
17904 On ch=10 n=38 v=0
18020 On ch=10 n=38 v=52
18020 On ch=10 n=42 v=100
18020 On ch=10 n=37 v=52
18020 On ch=10 n=69 v=84
18024 On ch=10 n=69 v=0
18024 On ch=10 n=38 v=0
18024 On ch=10 n=42 v=0
18024 On ch=10 n=37 v=0
18260 On ch=10 n=36 v=116
18260 On ch=10 n=42 v=100
18264 On ch=10 n=42 v=0
18264 On ch=10 n=36 v=0
18380 On ch=10 n=42 v=68
18384 On ch=10 n=42 v=0
18500 On ch=10 n=42 v=100
18500 On ch=10 n=69 v=84
18504 On ch=10 n=69 v=0
18504 On ch=10 n=42 v=0
18740 On ch=10 n=38 v=127
18740 On ch=10 n=42 v=100
18740 On ch=10 n=37 v=116
18744 On ch=10 n=37 v=0
18744 On ch=10 n=42 v=0
18744 On ch=10 n=38 v=0
18860 On ch=10 n=38 v=68
18860 On ch=10 n=37 v=68
18864 On ch=10 n=37 v=0
18864 On ch=10 n=38 v=0
18980 On ch=10 n=38 v=52
18980 On ch=10 n=42 v=100
18980 On ch=10 n=37 v=52
18980 On ch=10 n=69 v=84
18984 On ch=10 n=69 v=0
18984 On ch=10 n=38 v=0
18984 On ch=10 n=42 v=0
18984 On ch=10 n=37 v=0
19220 On ch=10 n=36 v=116
19220 On ch=10 n=42 v=100
19224 On ch=10 n=42 v=0
19224 On ch=10 n=36 v=0
19340 On ch=10 n=42 v=100
19344 On ch=10 n=42 v=0
19460 On ch=10 n=42 v=100
19460 On ch=10 n=69 v=84
19464 On ch=10 n=69 v=0
19464 On ch=10 n=42 v=0
19700 On ch=10 n=38 v=127
19700 On ch=10 n=42 v=100
19700 On ch=10 n=37 v=116
19704 On ch=10 n=37 v=0
19704 On ch=10 n=42 v=0
19704 On ch=10 n=38 v=0
19820 On ch=10 n=38 v=68
19820 On ch=10 n=37 v=68
19824 On ch=10 n=37 v=0
19824 On ch=10 n=38 v=0
19940 On ch=10 n=38 v=52
19940 On ch=10 n=42 v=100
19940 On ch=10 n=37 v=52
19940 On ch=10 n=69 v=84
19944 On ch=10 n=69 v=0
19944 On ch=10 n=38 v=0
19944 On ch=10 n=42 v=0
19944 On ch=10 n=37 v=0
20180 On ch=10 n=36 v=116
20180 On ch=10 n=42 v=100
20184 On ch=10 n=42 v=0
20184 On ch=10 n=36 v=0
20420 On ch=10 n=42 v=100
20420 On ch=10 n=69 v=84
20424 On ch=10 n=69 v=0
20424 On ch=10 n=42 v=0
20660 On ch=10 n=38 v=127
20660 On ch=10 n=42 v=100
20660 On ch=10 n=37 v=116
20664 On ch=10 n=37 v=0
20664 On ch=10 n=42 v=0
20664 On ch=10 n=38 v=0
20780 On ch=10 n=38 v=68
20780 On ch=10 n=37 v=68
20784 On ch=10 n=37 v=0
20784 On ch=10 n=38 v=0
20900 On ch=10 n=38 v=52
20900 On ch=10 n=42 v=100
20900 On ch=10 n=37 v=52
20900 On ch=10 n=69 v=84
20904 On ch=10 n=69 v=0
20904 On ch=10 n=38 v=0
20904 On ch=10 n=42 v=0
20904 On ch=10 n=37 v=0
21140 On ch=10 n=36 v=116
21144 On ch=10 n=36 v=0
21380 On ch=10 n=42 v=100
21380 On ch=10 n=69 v=84
21384 On ch=10 n=69 v=0
21384 On ch=10 n=42 v=0
21620 On ch=10 n=38 v=127
21620 On ch=10 n=42 v=100
21620 On ch=10 n=37 v=116
21624 On ch=10 n=37 v=0
21624 On ch=10 n=42 v=0
21624 On ch=10 n=38 v=0
21740 On ch=10 n=38 v=68
21740 On ch=10 n=37 v=68
21744 On ch=10 n=37 v=0
21744 On ch=10 n=38 v=0
21860 On ch=10 n=38 v=52
21860 On ch=10 n=42 v=100
21860 On ch=10 n=37 v=52
21864 On ch=10 n=37 v=0
21864 On ch=10 n=42 v=0
21864 On ch=10 n=38 v=0
21864 On ch=10 n=69 v=84
21868 On ch=10 n=69 v=0
22100 On ch=10 n=36 v=116
22100 On ch=10 n=42 v=100
22104 On ch=10 n=42 v=0
22104 On ch=10 n=36 v=0
22220 On ch=10 n=42 v=68
22224 On ch=10 n=42 v=0
22340 On ch=10 n=42 v=100
22340 On ch=10 n=69 v=84
22344 On ch=10 n=69 v=0
22344 On ch=10 n=42 v=0
22580 On ch=10 n=38 v=127
22580 On ch=10 n=42 v=100
22580 On ch=10 n=37 v=116
22584 On ch=10 n=37 v=0
22584 On ch=10 n=42 v=0
22584 On ch=10 n=38 v=0
22700 On ch=10 n=38 v=68
22700 On ch=10 n=37 v=68
22704 On ch=10 n=37 v=0
22704 On ch=10 n=38 v=0
22820 On ch=10 n=38 v=52
22820 On ch=10 n=42 v=100
22820 On ch=10 n=37 v=52
22824 On ch=10 n=37 v=0
22824 On ch=10 n=42 v=0
22824 On ch=10 n=38 v=0
22824 On ch=10 n=69 v=84
22828 On ch=10 n=69 v=0
23060 On ch=10 n=36 v=116
23060 On ch=10 n=42 v=100
23064 On ch=10 n=42 v=0
23064 On ch=10 n=36 v=0
23180 On ch=10 n=42 v=100
23184 On ch=10 n=42 v=0
23300 On ch=10 n=42 v=100
23300 On ch=10 n=69 v=84
23304 On ch=10 n=69 v=0
23304 On ch=10 n=42 v=0
23540 On ch=10 n=38 v=127
23540 On ch=10 n=42 v=100
23540 On ch=10 n=37 v=116
23544 On ch=10 n=37 v=0
23544 On ch=10 n=42 v=0
23544 On ch=10 n=38 v=0
23660 On ch=10 n=38 v=68
23660 On ch=10 n=37 v=68
23664 On ch=10 n=37 v=0
23664 On ch=10 n=38 v=0
23780 On ch=10 n=38 v=52
23780 On ch=10 n=42 v=100
23780 On ch=10 n=37 v=52
23784 On ch=10 n=37 v=0
23784 On ch=10 n=42 v=0
23784 On ch=10 n=38 v=0
23784 On ch=10 n=69 v=84
23788 On ch=10 n=69 v=0
24020 On ch=10 n=36 v=116
24020 On ch=10 n=42 v=100
24024 On ch=10 n=42 v=0
24024 On ch=10 n=36 v=0
24260 On ch=10 n=42 v=100
24260 On ch=10 n=69 v=84
24264 On ch=10 n=69 v=0
24264 On ch=10 n=42 v=0
24500 On ch=10 n=38 v=127
24500 On ch=10 n=42 v=100
24500 On ch=10 n=37 v=116
24504 On ch=10 n=37 v=0
24504 On ch=10 n=42 v=0
24504 On ch=10 n=38 v=0
24620 On ch=10 n=38 v=68
24620 On ch=10 n=37 v=68
24624 On ch=10 n=37 v=0
24624 On ch=10 n=38 v=0
24740 On ch=10 n=38 v=52
24740 On ch=10 n=42 v=100
24740 On ch=10 n=37 v=52
24744 On ch=10 n=37 v=0
24744 On ch=10 n=42 v=0
24744 On ch=10 n=38 v=0
24744 On ch=10 n=69 v=84
24748 On ch=10 n=69 v=0
24980 On ch=10 n=36 v=116
24984 On ch=10 n=36 v=0
25220 On ch=10 n=42 v=100
25220 On ch=10 n=69 v=84
25224 On ch=10 n=69 v=0
25224 On ch=10 n=42 v=0
25460 On ch=10 n=38 v=127
25460 On ch=10 n=42 v=100
25460 On ch=10 n=37 v=116
25464 On ch=10 n=37 v=0
25464 On ch=10 n=42 v=0
25464 On ch=10 n=38 v=0
25580 On ch=10 n=38 v=68
25580 On ch=10 n=37 v=68
25584 On ch=10 n=37 v=0
25584 On ch=10 n=38 v=0
25700 On ch=10 n=38 v=52
25700 On ch=10 n=42 v=100
25700 On ch=10 n=37 v=52
25704 On ch=10 n=37 v=0
25704 On ch=10 n=42 v=0
25704 On ch=10 n=38 v=0
25704 On ch=10 n=69 v=84
25708 On ch=10 n=69 v=0
25940 On ch=10 n=36 v=116
25940 On ch=10 n=42 v=100
25944 On ch=10 n=42 v=0
25944 On ch=10 n=36 v=0
26060 On ch=10 n=42 v=68
26064 On ch=10 n=42 v=0
26180 On ch=10 n=42 v=100
26180 On ch=10 n=69 v=84
26184 On ch=10 n=69 v=0
26184 On ch=10 n=42 v=0
26420 On ch=10 n=38 v=127
26420 On ch=10 n=42 v=100
26420 On ch=10 n=37 v=116
26424 On ch=10 n=37 v=0
26424 On ch=10 n=42 v=0
26424 On ch=10 n=38 v=0
26540 On ch=10 n=38 v=68
26540 On ch=10 n=37 v=68
26544 On ch=10 n=37 v=0
26544 On ch=10 n=38 v=0
26660 On ch=10 n=38 v=52
26660 On ch=10 n=42 v=100
26660 On ch=10 n=37 v=52
26664 On ch=10 n=37 v=0
26664 On ch=10 n=42 v=0
26664 On ch=10 n=38 v=0
26664 On ch=10 n=69 v=84
26668 On ch=10 n=69 v=0
26900 On ch=10 n=36 v=116
26900 On ch=10 n=42 v=100
26904 On ch=10 n=42 v=0
26904 On ch=10 n=36 v=0
27020 On ch=10 n=42 v=100
27024 On ch=10 n=42 v=0
27140 On ch=10 n=42 v=100
27140 On ch=10 n=69 v=84
27144 On ch=10 n=69 v=0
27144 On ch=10 n=42 v=0
27380 On ch=10 n=38 v=127
27380 On ch=10 n=42 v=100
27380 On ch=10 n=37 v=116
27384 On ch=10 n=37 v=0
27384 On ch=10 n=42 v=0
27384 On ch=10 n=38 v=0
27500 On ch=10 n=38 v=68
27500 On ch=10 n=37 v=68
27504 On ch=10 n=37 v=0
27504 On ch=10 n=38 v=0
27620 On ch=10 n=38 v=52
27620 On ch=10 n=42 v=100
27620 On ch=10 n=37 v=52
27624 On ch=10 n=37 v=0
27624 On ch=10 n=42 v=0
27624 On ch=10 n=38 v=0
27624 On ch=10 n=69 v=84
27628 On ch=10 n=69 v=0
27860 On ch=10 n=36 v=116
27860 On ch=10 n=42 v=100
27864 On ch=10 n=42 v=0
27864 On ch=10 n=36 v=0
28100 On ch=10 n=42 v=100
28100 On ch=10 n=69 v=84
28104 On ch=10 n=69 v=0
28104 On ch=10 n=42 v=0
28340 On ch=10 n=38 v=127
28340 On ch=10 n=42 v=100
28340 On ch=10 n=37 v=116
28344 On ch=10 n=37 v=0
28344 On ch=10 n=42 v=0
28344 On ch=10 n=38 v=0
28460 On ch=10 n=38 v=68
28460 On ch=10 n=37 v=68
28464 On ch=10 n=37 v=0
28464 On ch=10 n=38 v=0
28580 On ch=10 n=38 v=52
28580 On ch=10 n=42 v=100
28580 On ch=10 n=37 v=52
28580 On ch=10 n=69 v=84
28584 On ch=10 n=69 v=0
28584 On ch=10 n=38 v=0
28584 On ch=10 n=42 v=0
28584 On ch=10 n=37 v=0
28820 On ch=10 n=36 v=116
28824 On ch=10 n=36 v=0
29060 On ch=10 n=42 v=100
29060 On ch=10 n=69 v=84
29064 On ch=10 n=69 v=0
29064 On ch=10 n=42 v=0
29300 On ch=10 n=38 v=127
29300 On ch=10 n=42 v=100
29300 On ch=10 n=37 v=116
29304 On ch=10 n=37 v=0
29304 On ch=10 n=42 v=0
29304 On ch=10 n=38 v=0
29420 On ch=10 n=38 v=68
29420 On ch=10 n=37 v=68
29424 On ch=10 n=37 v=0
29424 On ch=10 n=38 v=0
29540 On ch=10 n=38 v=52
29540 On ch=10 n=42 v=100
29540 On ch=10 n=37 v=52
29540 On ch=10 n=69 v=84
29544 On ch=10 n=69 v=0
29544 On ch=10 n=38 v=0
29544 On ch=10 n=42 v=0
29544 On ch=10 n=37 v=0
29780 On ch=10 n=36 v=116
29780 On ch=10 n=42 v=100
29784 On ch=10 n=42 v=0
29784 On ch=10 n=36 v=0
29900 On ch=10 n=42 v=68
29904 On ch=10 n=42 v=0
30020 On ch=10 n=42 v=100
30020 On ch=10 n=69 v=84
30024 On ch=10 n=69 v=0
30024 On ch=10 n=42 v=0
30260 On ch=10 n=38 v=127
30260 On ch=10 n=42 v=100
30260 On ch=10 n=37 v=116
30264 On ch=10 n=37 v=0
30264 On ch=10 n=42 v=0
30264 On ch=10 n=38 v=0
30380 On ch=10 n=38 v=68
30380 On ch=10 n=37 v=68
30384 On ch=10 n=37 v=0
30384 On ch=10 n=38 v=0
30500 On ch=10 n=38 v=52
30500 On ch=10 n=42 v=100
30500 On ch=10 n=37 v=52
30500 On ch=10 n=69 v=84
30504 On ch=10 n=69 v=0
30504 On ch=10 n=38 v=0
30504 On ch=10 n=42 v=0
30504 On ch=10 n=37 v=0
30740 On ch=10 n=36 v=116
30740 On ch=10 n=42 v=100
30744 On ch=10 n=42 v=0
30744 On ch=10 n=36 v=0
30860 On ch=10 n=42 v=100
30864 On ch=10 n=42 v=0
30980 On ch=10 n=42 v=100
30984 On ch=10 n=42 v=0
31100 On ch=10 n=69 v=84
31104 On ch=10 n=69 v=0
31220 On ch=10 n=38 v=127
31220 On ch=10 n=42 v=100
31220 On ch=10 n=37 v=116
31224 On ch=10 n=37 v=0
31224 On ch=10 n=42 v=0
31224 On ch=10 n=38 v=0
31224 On ch=10 n=69 v=127
31228 On ch=10 n=69 v=0
31340 On ch=10 n=38 v=68
31340 On ch=10 n=37 v=68
31340 On ch=10 n=69 v=84
31344 On ch=10 n=69 v=0
31344 On ch=10 n=37 v=0
31344 On ch=10 n=38 v=0
31460 On ch=10 n=38 v=52
31460 On ch=10 n=42 v=100
31460 On ch=10 n=37 v=52
31464 On ch=10 n=37 v=0
31464 On ch=10 n=42 v=0
31464 On ch=10 n=38 v=0
31580 On ch=10 n=69 v=100
31584 On ch=10 n=69 v=0
31700 On ch=10 n=36 v=116
31700 On ch=10 n=42 v=100
31704 On ch=10 n=42 v=0
31704 On ch=10 n=36 v=0
31820 On ch=10 n=69 v=100
31824 On ch=10 n=69 v=0
31940 On ch=10 n=42 v=100
31944 On ch=10 n=42 v=0
32060 On ch=10 n=36 v=116
32060 On ch=10 n=69 v=84
32064 On ch=10 n=69 v=0
32064 On ch=10 n=36 v=0
32180 On ch=10 n=38 v=127
32180 On ch=10 n=42 v=100
32180 On ch=10 n=37 v=116
32184 On ch=10 n=37 v=0
32184 On ch=10 n=42 v=0
32184 On ch=10 n=38 v=0
32184 On ch=10 n=69 v=127
32188 On ch=10 n=69 v=0
32300 On ch=10 n=38 v=68
32300 On ch=10 n=37 v=68
32300 On ch=10 n=69 v=84
32304 On ch=10 n=69 v=0
32304 On ch=10 n=37 v=0
32304 On ch=10 n=38 v=0
32420 On ch=10 n=38 v=52
32420 On ch=10 n=42 v=100
32420 On ch=10 n=37 v=52
32424 On ch=10 n=37 v=0
32424 On ch=10 n=42 v=0
32424 On ch=10 n=38 v=0
32660 On ch=10 n=36 v=116
32664 On ch=10 n=36 v=0
32900 On ch=10 n=42 v=100
32900 On ch=10 n=69 v=84
32904 On ch=10 n=69 v=0
32904 On ch=10 n=42 v=0
33140 On ch=10 n=38 v=127
33140 On ch=10 n=42 v=100
33140 On ch=10 n=37 v=116
33144 On ch=10 n=37 v=0
33144 On ch=10 n=42 v=0
33144 On ch=10 n=38 v=0
33260 On ch=10 n=38 v=68
33260 On ch=10 n=37 v=68
33264 On ch=10 n=37 v=0
33264 On ch=10 n=38 v=0
33380 On ch=10 n=38 v=52
33380 On ch=10 n=42 v=100
33380 On ch=10 n=37 v=52
33380 On ch=10 n=69 v=84
33384 On ch=10 n=69 v=0
33384 On ch=10 n=38 v=0
33384 On ch=10 n=42 v=0
33384 On ch=10 n=37 v=0
33620 On ch=10 n=36 v=116
33620 On ch=10 n=42 v=100
33624 On ch=10 n=42 v=0
33624 On ch=10 n=36 v=0
33740 On ch=10 n=42 v=68
33744 On ch=10 n=42 v=0
33860 On ch=10 n=42 v=100
33860 On ch=10 n=69 v=84
33864 On ch=10 n=69 v=0
33864 On ch=10 n=42 v=0
34100 On ch=10 n=38 v=127
34100 On ch=10 n=42 v=100
34100 On ch=10 n=37 v=116
34104 On ch=10 n=37 v=0
34104 On ch=10 n=42 v=0
34104 On ch=10 n=38 v=0
34220 On ch=10 n=38 v=68
34220 On ch=10 n=37 v=68
34224 On ch=10 n=37 v=0
34224 On ch=10 n=38 v=0
34340 On ch=10 n=38 v=52
34340 On ch=10 n=42 v=100
34340 On ch=10 n=37 v=52
34340 On ch=10 n=69 v=84
34344 On ch=10 n=69 v=0
34344 On ch=10 n=38 v=0
34344 On ch=10 n=42 v=0
34344 On ch=10 n=37 v=0
34580 On ch=10 n=36 v=116
34580 On ch=10 n=42 v=100
34584 On ch=10 n=42 v=0
34584 On ch=10 n=36 v=0
34700 On ch=10 n=42 v=100
34704 On ch=10 n=42 v=0
34820 On ch=10 n=42 v=100
34820 On ch=10 n=69 v=84
34824 On ch=10 n=69 v=0
34824 On ch=10 n=42 v=0
35060 On ch=10 n=38 v=127
35060 On ch=10 n=42 v=100
35060 On ch=10 n=37 v=116
35064 On ch=10 n=37 v=0
35064 On ch=10 n=42 v=0
35064 On ch=10 n=38 v=0
35180 On ch=10 n=38 v=68
35180 On ch=10 n=37 v=68
35184 On ch=10 n=37 v=0
35184 On ch=10 n=38 v=0
35300 On ch=10 n=38 v=52
35300 On ch=10 n=42 v=100
35300 On ch=10 n=37 v=52
35304 On ch=10 n=37 v=0
35304 On ch=10 n=42 v=0
35304 On ch=10 n=38 v=0
35304 On ch=10 n=69 v=84
35308 On ch=10 n=69 v=0
35540 On ch=10 n=36 v=116
35540 On ch=10 n=42 v=100
35544 On ch=10 n=42 v=0
35544 On ch=10 n=36 v=0
35780 On ch=10 n=42 v=100
35780 On ch=10 n=69 v=84
35784 On ch=10 n=69 v=0
35784 On ch=10 n=42 v=0
36020 On ch=10 n=38 v=127
36020 On ch=10 n=42 v=100
36020 On ch=10 n=37 v=116
36024 On ch=10 n=37 v=0
36024 On ch=10 n=42 v=0
36024 On ch=10 n=38 v=0
36140 On ch=10 n=38 v=68
36140 On ch=10 n=37 v=68
36144 On ch=10 n=37 v=0
36144 On ch=10 n=38 v=0
36260 On ch=10 n=38 v=52
36260 On ch=10 n=42 v=100
36260 On ch=10 n=37 v=52
36264 On ch=10 n=37 v=0
36264 On ch=10 n=42 v=0
36264 On ch=10 n=38 v=0
36264 On ch=10 n=69 v=84
36268 On ch=10 n=69 v=0
36380 On ch=10 n=38 v=127
36384 On ch=10 n=38 v=0
36500 On ch=10 n=36 v=116
36500 On ch=10 n=42 v=100
36504 On ch=10 n=42 v=0
36504 On ch=10 n=36 v=0
36620 On ch=10 n=42 v=100
36624 On ch=10 n=42 v=0
36740 On ch=10 n=42 v=100
36744 On ch=10 n=42 v=0
36860 On ch=10 n=69 v=84
36864 On ch=10 n=69 v=0
36980 On ch=10 n=38 v=127
36980 On ch=10 n=42 v=100
36980 On ch=10 n=37 v=116
36984 On ch=10 n=37 v=0
36984 On ch=10 n=42 v=0
36984 On ch=10 n=38 v=0
36984 On ch=10 n=69 v=127
36988 On ch=10 n=69 v=0
37100 On ch=10 n=38 v=68
37100 On ch=10 n=37 v=68
37100 On ch=10 n=69 v=84
37104 On ch=10 n=69 v=0
37104 On ch=10 n=37 v=0
37104 On ch=10 n=38 v=0
37220 On ch=10 n=38 v=52
37220 On ch=10 n=42 v=100
37220 On ch=10 n=37 v=52
37224 On ch=10 n=37 v=0
37224 On ch=10 n=42 v=0
37224 On ch=10 n=38 v=0
37340 On ch=10 n=69 v=52
37344 On ch=10 n=69 v=0
37460 On ch=10 n=36 v=116
37460 On ch=10 n=42 v=100
37464 On ch=10 n=42 v=0
37464 On ch=10 n=36 v=0
37580 On ch=10 n=69 v=52
37584 On ch=10 n=69 v=0
37700 On ch=10 n=42 v=100
37704 On ch=10 n=42 v=0
37820 On ch=10 n=36 v=116
37820 On ch=10 n=69 v=84
37824 On ch=10 n=69 v=0
37824 On ch=10 n=36 v=0
37940 On ch=10 n=38 v=127
37940 On ch=10 n=42 v=100
37940 On ch=10 n=37 v=116
37940 On ch=10 n=69 v=127
37944 On ch=10 n=69 v=0
37944 On ch=10 n=38 v=0
37944 On ch=10 n=42 v=0
37944 On ch=10 n=37 v=0
38060 On ch=10 n=38 v=68
38060 On ch=10 n=37 v=68
38060 On ch=10 n=69 v=84
38064 On ch=10 n=69 v=0
38064 On ch=10 n=37 v=0
38064 On ch=10 n=38 v=0
38180 On ch=10 n=38 v=52
38180 On ch=10 n=42 v=100
38180 On ch=10 n=37 v=52
38184 On ch=10 n=37 v=0
38184 On ch=10 n=42 v=0
38184 On ch=10 n=38 v=0
38420 On ch=10 n=36 v=116
38420 On ch=10 n=42 v=100
38424 On ch=10 n=42 v=0
38424 On ch=10 n=36 v=0
38540 On ch=10 n=42 v=100
38544 On ch=10 n=42 v=0
38660 On ch=10 n=42 v=100
38664 On ch=10 n=42 v=0
38780 On ch=10 n=69 v=84
38784 On ch=10 n=69 v=0
38900 On ch=10 n=38 v=127
38900 On ch=10 n=42 v=100
38900 On ch=10 n=37 v=116
38900 On ch=10 n=69 v=127
38904 On ch=10 n=69 v=0
38904 On ch=10 n=38 v=0
38904 On ch=10 n=42 v=0
38904 On ch=10 n=37 v=0
39020 On ch=10 n=38 v=68
39020 On ch=10 n=37 v=68
39020 On ch=10 n=69 v=84
39024 On ch=10 n=69 v=0
39024 On ch=10 n=37 v=0
39024 On ch=10 n=38 v=0
39140 On ch=10 n=38 v=52
39140 On ch=10 n=42 v=100
39140 On ch=10 n=37 v=52
39144 On ch=10 n=37 v=0
39144 On ch=10 n=42 v=0
39144 On ch=10 n=38 v=0
39260 On ch=10 n=69 v=52
39264 On ch=10 n=69 v=0
39380 On ch=10 n=36 v=116
39380 On ch=10 n=42 v=100
39384 On ch=10 n=42 v=0
39384 On ch=10 n=36 v=0
39500 On ch=10 n=69 v=52
39504 On ch=10 n=69 v=0
39620 On ch=10 n=42 v=100
39624 On ch=10 n=42 v=0
39740 On ch=10 n=36 v=116
39740 On ch=10 n=69 v=84
39744 On ch=10 n=69 v=0
39744 On ch=10 n=36 v=0
39860 On ch=10 n=38 v=127
39860 On ch=10 n=42 v=100
39860 On ch=10 n=37 v=116
39860 On ch=10 n=69 v=127
39864 On ch=10 n=69 v=0
39864 On ch=10 n=38 v=0
39864 On ch=10 n=42 v=0
39864 On ch=10 n=37 v=0
39980 On ch=10 n=38 v=68
39980 On ch=10 n=37 v=68
39980 On ch=10 n=69 v=84
39984 On ch=10 n=69 v=0
39984 On ch=10 n=37 v=0
39984 On ch=10 n=38 v=0
40100 On ch=10 n=38 v=52
40100 On ch=10 n=42 v=100
40100 On ch=10 n=37 v=52
40104 On ch=10 n=37 v=0
40104 On ch=10 n=42 v=0
40104 On ch=10 n=38 v=0
40340 On ch=10 n=36 v=116
40340 On ch=10 n=42 v=100
40344 On ch=10 n=42 v=0
40344 On ch=10 n=36 v=0
40460 On ch=10 n=42 v=100
40464 On ch=10 n=42 v=0
40580 On ch=10 n=42 v=100
40584 On ch=10 n=42 v=0
40700 On ch=10 n=69 v=84
40704 On ch=10 n=69 v=0
40820 On ch=10 n=38 v=127
40820 On ch=10 n=42 v=100
40820 On ch=10 n=37 v=116
40820 On ch=10 n=69 v=127
40824 On ch=10 n=69 v=0
40824 On ch=10 n=38 v=0
40824 On ch=10 n=42 v=0
40824 On ch=10 n=37 v=0
40940 On ch=10 n=38 v=68
40940 On ch=10 n=37 v=68
40940 On ch=10 n=69 v=84
40944 On ch=10 n=69 v=0
40944 On ch=10 n=37 v=0
40944 On ch=10 n=38 v=0
41060 On ch=10 n=38 v=52
41060 On ch=10 n=42 v=100
41060 On ch=10 n=37 v=52
41064 On ch=10 n=37 v=0
41064 On ch=10 n=42 v=0
41064 On ch=10 n=38 v=0
41180 On ch=10 n=69 v=52
41184 On ch=10 n=69 v=0
41300 On ch=10 n=36 v=116
41300 On ch=10 n=42 v=100
41304 On ch=10 n=42 v=0
41304 On ch=10 n=36 v=0
41420 On ch=10 n=69 v=52
41424 On ch=10 n=69 v=0
41540 On ch=10 n=42 v=100
41544 On ch=10 n=42 v=0
41660 On ch=10 n=36 v=116
41660 On ch=10 n=69 v=84
41664 On ch=10 n=69 v=0
41664 On ch=10 n=36 v=0
41780 On ch=10 n=38 v=127
41780 On ch=10 n=42 v=100
41780 On ch=10 n=37 v=116
41780 On ch=10 n=69 v=127
41784 On ch=10 n=69 v=0
41784 On ch=10 n=38 v=0
41784 On ch=10 n=42 v=0
41784 On ch=10 n=37 v=0
41900 On ch=10 n=38 v=68
41900 On ch=10 n=37 v=68
41900 On ch=10 n=69 v=84
41904 On ch=10 n=69 v=0
41904 On ch=10 n=37 v=0
41904 On ch=10 n=38 v=0
42020 On ch=10 n=38 v=52
42020 On ch=10 n=42 v=100
42020 On ch=10 n=37 v=52
42024 On ch=10 n=37 v=0
42024 On ch=10 n=42 v=0
42024 On ch=10 n=38 v=0
42260 On ch=10 n=36 v=116
42260 On ch=10 n=42 v=100
42264 On ch=10 n=42 v=0
42264 On ch=10 n=36 v=0
42380 On ch=10 n=42 v=100
42384 On ch=10 n=42 v=0
42500 On ch=10 n=42 v=100
42504 On ch=10 n=42 v=0
42620 On ch=10 n=69 v=84
42624 On ch=10 n=69 v=0
42740 On ch=10 n=38 v=127
42740 On ch=10 n=42 v=100
42740 On ch=10 n=37 v=116
42744 On ch=10 n=37 v=0
42744 On ch=10 n=42 v=0
42744 On ch=10 n=38 v=0
42744 On ch=10 n=69 v=127
42748 On ch=10 n=69 v=0
42860 On ch=10 n=38 v=68
42860 On ch=10 n=37 v=68
42860 On ch=10 n=69 v=84
42864 On ch=10 n=69 v=0
42864 On ch=10 n=37 v=0
42864 On ch=10 n=38 v=0
42980 On ch=10 n=38 v=52
42980 On ch=10 n=42 v=100
42980 On ch=10 n=37 v=52
42984 On ch=10 n=37 v=0
42984 On ch=10 n=42 v=0
42984 On ch=10 n=38 v=0
43100 On ch=10 n=69 v=52
43104 On ch=10 n=69 v=0
43220 On ch=10 n=36 v=116
43220 On ch=10 n=42 v=100
43224 On ch=10 n=42 v=0
43224 On ch=10 n=36 v=0
43340 On ch=10 n=69 v=52
43344 On ch=10 n=69 v=0
43460 On ch=10 n=42 v=100
43464 On ch=10 n=42 v=0
43580 On ch=10 n=36 v=116
43580 On ch=10 n=69 v=84
43584 On ch=10 n=69 v=0
43584 On ch=10 n=36 v=0
43700 On ch=10 n=38 v=127
43700 On ch=10 n=42 v=100
43700 On ch=10 n=37 v=116
43704 On ch=10 n=37 v=0
43704 On ch=10 n=42 v=0
43704 On ch=10 n=38 v=0
43704 On ch=10 n=69 v=127
43708 On ch=10 n=69 v=0
43820 On ch=10 n=38 v=68
43820 On ch=10 n=37 v=68
43820 On ch=10 n=69 v=84
43824 On ch=10 n=69 v=0
43824 On ch=10 n=37 v=0
43824 On ch=10 n=38 v=0
43940 On ch=10 n=38 v=52
43940 On ch=10 n=42 v=100
43940 On ch=10 n=37 v=52
43944 On ch=10 n=37 v=0
43944 On ch=10 n=42 v=0
43944 On ch=10 n=38 v=0
44180 On ch=10 n=36 v=116
44180 On ch=10 n=42 v=100
44184 On ch=10 n=42 v=0
44184 On ch=10 n=36 v=0
44300 On ch=10 n=42 v=100
44304 On ch=10 n=42 v=0
44420 On ch=10 n=42 v=100
44424 On ch=10 n=42 v=0
44540 On ch=10 n=69 v=84
44544 On ch=10 n=69 v=0
44660 On ch=10 n=38 v=127
44660 On ch=10 n=42 v=100
44660 On ch=10 n=37 v=116
44664 On ch=10 n=37 v=0
44664 On ch=10 n=42 v=0
44664 On ch=10 n=38 v=0
44664 On ch=10 n=69 v=127
44668 On ch=10 n=69 v=0
44780 On ch=10 n=38 v=68
44780 On ch=10 n=37 v=68
44780 On ch=10 n=69 v=84
44784 On ch=10 n=69 v=0
44784 On ch=10 n=37 v=0
44784 On ch=10 n=38 v=0
44900 On ch=10 n=38 v=52
44900 On ch=10 n=42 v=100
44900 On ch=10 n=37 v=52
44904 On ch=10 n=37 v=0
44904 On ch=10 n=42 v=0
44904 On ch=10 n=38 v=0
45020 On ch=10 n=69 v=52
45024 On ch=10 n=69 v=0
45140 On ch=10 n=36 v=116
45140 On ch=10 n=42 v=100
45144 On ch=10 n=42 v=0
45144 On ch=10 n=36 v=0
45260 On ch=10 n=69 v=52
45264 On ch=10 n=69 v=0
45380 On ch=10 n=42 v=100
45384 On ch=10 n=42 v=0
45500 On ch=10 n=36 v=116
45500 On ch=10 n=69 v=84
45504 On ch=10 n=69 v=0
45504 On ch=10 n=36 v=0
45620 On ch=10 n=38 v=127
45620 On ch=10 n=42 v=100
45620 On ch=10 n=37 v=116
45624 On ch=10 n=37 v=0
45624 On ch=10 n=42 v=0
45624 On ch=10 n=38 v=0
45624 On ch=10 n=69 v=127
45628 On ch=10 n=69 v=0
45740 On ch=10 n=38 v=68
45740 On ch=10 n=37 v=68
45740 On ch=10 n=69 v=84
45744 On ch=10 n=69 v=0
45744 On ch=10 n=37 v=0
45744 On ch=10 n=38 v=0
45860 On ch=10 n=38 v=52
45860 On ch=10 n=42 v=100
45860 On ch=10 n=37 v=52
45864 On ch=10 n=37 v=0
45864 On ch=10 n=42 v=0
45864 On ch=10 n=38 v=0
46100 On ch=10 n=36 v=116
46100 On ch=10 n=42 v=100
46104 On ch=10 n=42 v=0
46104 On ch=10 n=36 v=0
46220 On ch=10 n=42 v=100
46224 On ch=10 n=42 v=0
46340 On ch=10 n=42 v=100
46344 On ch=10 n=42 v=0
46460 On ch=10 n=69 v=84
46464 On ch=10 n=69 v=0
46580 On ch=10 n=38 v=127
46580 On ch=10 n=42 v=100
46580 On ch=10 n=37 v=116
46584 On ch=10 n=37 v=0
46584 On ch=10 n=42 v=0
46584 On ch=10 n=38 v=0
46584 On ch=10 n=69 v=127
46588 On ch=10 n=69 v=0
46700 On ch=10 n=38 v=68
46700 On ch=10 n=37 v=68
46700 On ch=10 n=69 v=84
46704 On ch=10 n=69 v=0
46704 On ch=10 n=37 v=0
46704 On ch=10 n=38 v=0
46820 On ch=10 n=38 v=52
46820 On ch=10 n=42 v=100
46820 On ch=10 n=37 v=52
46824 On ch=10 n=37 v=0
46824 On ch=10 n=42 v=0
46824 On ch=10 n=38 v=0
46940 On ch=10 n=69 v=52
46944 On ch=10 n=69 v=0
47060 On ch=10 n=36 v=116
47060 On ch=10 n=42 v=100
47064 On ch=10 n=42 v=0
47064 On ch=10 n=36 v=0
47180 On ch=10 n=69 v=52
47184 On ch=10 n=69 v=0
47300 On ch=10 n=42 v=100
47304 On ch=10 n=42 v=0
47420 On ch=10 n=36 v=116
47420 On ch=10 n=69 v=84
47424 On ch=10 n=69 v=0
47424 On ch=10 n=36 v=0
47540 On ch=10 n=38 v=127
47540 On ch=10 n=42 v=100
47540 On ch=10 n=37 v=116
47544 On ch=10 n=37 v=0
47544 On ch=10 n=42 v=0
47544 On ch=10 n=38 v=0
47544 On ch=10 n=69 v=127
47548 On ch=10 n=69 v=0
47660 On ch=10 n=38 v=68
47660 On ch=10 n=37 v=68
47660 On ch=10 n=69 v=84
47664 On ch=10 n=69 v=0
47664 On ch=10 n=37 v=0
47664 On ch=10 n=38 v=0
47780 On ch=10 n=38 v=52
47780 On ch=10 n=42 v=100
47780 On ch=10 n=37 v=52
47784 On ch=10 n=37 v=0
47784 On ch=10 n=42 v=0
47784 On ch=10 n=38 v=0
48020 On ch=10 n=36 v=116
48020 On ch=10 n=42 v=100
48024 On ch=10 n=42 v=0
48024 On ch=10 n=36 v=0
48140 On ch=10 n=42 v=100
48144 On ch=10 n=42 v=0
48260 On ch=10 n=42 v=100
48264 On ch=10 n=42 v=0
48380 On ch=10 n=69 v=84
48384 On ch=10 n=69 v=0
48500 On ch=10 n=38 v=127
48500 On ch=10 n=42 v=100
48500 On ch=10 n=37 v=116
48500 On ch=10 n=69 v=127
48504 On ch=10 n=69 v=0
48504 On ch=10 n=38 v=0
48504 On ch=10 n=42 v=0
48504 On ch=10 n=37 v=0
48620 On ch=10 n=38 v=68
48620 On ch=10 n=37 v=68
48620 On ch=10 n=69 v=84
48624 On ch=10 n=69 v=0
48624 On ch=10 n=37 v=0
48624 On ch=10 n=38 v=0
48740 On ch=10 n=38 v=52
48740 On ch=10 n=42 v=100
48740 On ch=10 n=37 v=52
48744 On ch=10 n=37 v=0
48744 On ch=10 n=42 v=0
48744 On ch=10 n=38 v=0
48860 On ch=10 n=69 v=52
48864 On ch=10 n=69 v=0
48980 On ch=10 n=36 v=116
48980 On ch=10 n=42 v=100
48984 On ch=10 n=42 v=0
48984 On ch=10 n=36 v=0
49100 On ch=10 n=69 v=52
49104 On ch=10 n=69 v=0
49220 On ch=10 n=42 v=100
49224 On ch=10 n=42 v=0
49340 On ch=10 n=36 v=116
49340 On ch=10 n=69 v=84
49344 On ch=10 n=69 v=0
49344 On ch=10 n=36 v=0
49460 On ch=10 n=38 v=127
49460 On ch=10 n=42 v=100
49460 On ch=10 n=37 v=116
49460 On ch=10 n=69 v=127
49464 On ch=10 n=69 v=0
49464 On ch=10 n=38 v=0
49464 On ch=10 n=42 v=0
49464 On ch=10 n=37 v=0
49580 On ch=10 n=38 v=68
49580 On ch=10 n=37 v=68
49580 On ch=10 n=69 v=84
49584 On ch=10 n=69 v=0
49584 On ch=10 n=37 v=0
49584 On ch=10 n=38 v=0
49700 On ch=10 n=38 v=52
49700 On ch=10 n=42 v=100
49700 On ch=10 n=37 v=52
49704 On ch=10 n=37 v=0
49704 On ch=10 n=42 v=0
49704 On ch=10 n=38 v=0
49760 On ch=10 n=48 v=52
49764 On ch=10 n=48 v=0
49820 On ch=10 n=48 v=116
49824 On ch=10 n=48 v=0
49940 On ch=10 n=36 v=116
49940 On ch=10 n=42 v=100
49944 On ch=10 n=42 v=0
49944 On ch=10 n=36 v=0
50060 On ch=10 n=42 v=100
50060 On ch=10 n=41 v=116
50064 On ch=10 n=41 v=0
50064 On ch=10 n=42 v=0
50180 On ch=10 n=42 v=100
50180 On ch=10 n=41 v=116
50184 On ch=10 n=41 v=0
50184 On ch=10 n=42 v=0
50300 On ch=10 n=41 v=116
50300 On ch=10 n=69 v=84
50304 On ch=10 n=69 v=0
50304 On ch=10 n=41 v=0
50420 On ch=10 n=38 v=127
50420 On ch=10 n=42 v=100
50420 On ch=10 n=41 v=116
50420 On ch=10 n=37 v=116
50424 On ch=10 n=37 v=0
50424 On ch=10 n=38 v=0
50424 On ch=10 n=42 v=0
50424 On ch=10 n=41 v=0
50424 On ch=10 n=69 v=127
50428 On ch=10 n=69 v=0
50540 On ch=10 n=38 v=68
50540 On ch=10 n=37 v=68
50540 On ch=10 n=69 v=84
50544 On ch=10 n=69 v=0
50544 On ch=10 n=37 v=0
50544 On ch=10 n=38 v=0
50660 On ch=10 n=38 v=52
50660 On ch=10 n=42 v=100
50660 On ch=10 n=37 v=52
50664 On ch=10 n=37 v=0
50664 On ch=10 n=42 v=0
50664 On ch=10 n=38 v=0
50720 On ch=10 n=48 v=68
50724 On ch=10 n=48 v=0
50780 On ch=10 n=48 v=100
50780 On ch=10 n=69 v=52
50784 On ch=10 n=69 v=0
50784 On ch=10 n=48 v=0
50900 On ch=10 n=36 v=116
50900 On ch=10 n=42 v=100
50900 On ch=10 n=45 v=100
50904 On ch=10 n=45 v=0
50904 On ch=10 n=42 v=0
50904 On ch=10 n=36 v=0
51020 On ch=10 n=45 v=100
51020 On ch=10 n=69 v=52
51024 On ch=10 n=69 v=0
51024 On ch=10 n=45 v=0
51140 On ch=10 n=42 v=100
51140 On ch=10 n=45 v=100
51144 On ch=10 n=45 v=0
51144 On ch=10 n=42 v=0
51260 On ch=10 n=36 v=116
51260 On ch=10 n=41 v=116
51260 On ch=10 n=69 v=84
51264 On ch=10 n=69 v=0
51264 On ch=10 n=41 v=0
51264 On ch=10 n=36 v=0
51380 On ch=10 n=38 v=127
51380 On ch=10 n=42 v=100
51380 On ch=10 n=41 v=116
51384 On ch=10 n=41 v=0
51384 On ch=10 n=42 v=0
51384 On ch=10 n=38 v=0
51384 On ch=10 n=37 v=116
51384 On ch=10 n=69 v=127
51388 On ch=10 n=69 v=0
51388 On ch=10 n=37 v=0
51500 On ch=10 n=38 v=68
51500 On ch=10 n=41 v=116
51500 On ch=10 n=37 v=68
51500 On ch=10 n=69 v=84
51504 On ch=10 n=69 v=0
51504 On ch=10 n=38 v=0
51504 On ch=10 n=41 v=0
51504 On ch=10 n=37 v=0
51620 On ch=10 n=38 v=52
51620 On ch=10 n=42 v=100
51620 On ch=10 n=41 v=116
51624 On ch=10 n=41 v=0
51624 On ch=10 n=42 v=0
51624 On ch=10 n=38 v=0
51624 On ch=10 n=37 v=52
51628 On ch=10 n=37 v=0
51860 On ch=10 n=36 v=116
51864 On ch=10 n=36 v=0
52100 On ch=10 n=42 v=100
52100 On ch=10 n=69 v=84
52104 On ch=10 n=69 v=0
52104 On ch=10 n=42 v=0
52340 On ch=10 n=38 v=127
52340 On ch=10 n=42 v=100
52340 On ch=10 n=37 v=116
52344 On ch=10 n=37 v=0
52344 On ch=10 n=42 v=0
52344 On ch=10 n=38 v=0
52460 On ch=10 n=38 v=68
52460 On ch=10 n=37 v=68
52464 On ch=10 n=37 v=0
52464 On ch=10 n=38 v=0
52580 On ch=10 n=38 v=52
52580 On ch=10 n=42 v=100
52580 On ch=10 n=37 v=52
52584 On ch=10 n=37 v=0
52584 On ch=10 n=42 v=0
52584 On ch=10 n=38 v=0
52584 On ch=10 n=69 v=84
52588 On ch=10 n=69 v=0
52820 On ch=10 n=36 v=116
52820 On ch=10 n=42 v=100
52824 On ch=10 n=42 v=0
52824 On ch=10 n=36 v=0
52940 On ch=10 n=42 v=68
52944 On ch=10 n=42 v=0
53060 On ch=10 n=42 v=100
53060 On ch=10 n=69 v=84
53064 On ch=10 n=69 v=0
53064 On ch=10 n=42 v=0
53300 On ch=10 n=38 v=127
53300 On ch=10 n=42 v=100
53300 On ch=10 n=37 v=116
53304 On ch=10 n=37 v=0
53304 On ch=10 n=42 v=0
53304 On ch=10 n=38 v=0
53420 On ch=10 n=38 v=68
53420 On ch=10 n=37 v=68
53424 On ch=10 n=37 v=0
53424 On ch=10 n=38 v=0
53540 On ch=10 n=38 v=52
53540 On ch=10 n=42 v=100
53540 On ch=10 n=37 v=52
53544 On ch=10 n=37 v=0
53544 On ch=10 n=42 v=0
53544 On ch=10 n=38 v=0
53544 On ch=10 n=69 v=84
53548 On ch=10 n=69 v=0
53780 On ch=10 n=36 v=116
53780 On ch=10 n=42 v=100
53784 On ch=10 n=42 v=0
53784 On ch=10 n=36 v=0
53900 On ch=10 n=42 v=100
53904 On ch=10 n=42 v=0
54020 On ch=10 n=42 v=100
54020 On ch=10 n=69 v=84
54024 On ch=10 n=69 v=0
54024 On ch=10 n=42 v=0
54260 On ch=10 n=38 v=127
54260 On ch=10 n=42 v=100
54260 On ch=10 n=37 v=116
54264 On ch=10 n=37 v=0
54264 On ch=10 n=42 v=0
54264 On ch=10 n=38 v=0
54380 On ch=10 n=38 v=68
54380 On ch=10 n=37 v=68
54384 On ch=10 n=37 v=0
54384 On ch=10 n=38 v=0
54500 On ch=10 n=38 v=52
54500 On ch=10 n=42 v=100
54500 On ch=10 n=37 v=52
54504 On ch=10 n=37 v=0
54504 On ch=10 n=42 v=0
54504 On ch=10 n=38 v=0
54504 On ch=10 n=69 v=84
54508 On ch=10 n=69 v=0
54740 On ch=10 n=36 v=116
54740 On ch=10 n=42 v=100
54744 On ch=10 n=42 v=0
54744 On ch=10 n=36 v=0
54980 On ch=10 n=42 v=100
54980 On ch=10 n=69 v=84
54984 On ch=10 n=69 v=0
54984 On ch=10 n=42 v=0
55220 On ch=10 n=38 v=127
55220 On ch=10 n=42 v=100
55220 On ch=10 n=37 v=116
55224 On ch=10 n=37 v=0
55224 On ch=10 n=42 v=0
55224 On ch=10 n=38 v=0
55340 On ch=10 n=38 v=68
55340 On ch=10 n=37 v=68
55344 On ch=10 n=37 v=0
55344 On ch=10 n=38 v=0
55460 On ch=10 n=38 v=52
55460 On ch=10 n=42 v=100
55460 On ch=10 n=37 v=52
55464 On ch=10 n=37 v=0
55464 On ch=10 n=42 v=0
55464 On ch=10 n=38 v=0
55464 On ch=10 n=69 v=84
55468 On ch=10 n=69 v=0
55700 On ch=10 n=36 v=116
55704 On ch=10 n=36 v=0
55940 On ch=10 n=42 v=100
55940 On ch=10 n=69 v=84
55944 On ch=10 n=69 v=0
55944 On ch=10 n=42 v=0
56180 On ch=10 n=38 v=127
56180 On ch=10 n=42 v=100
56180 On ch=10 n=37 v=116
56184 On ch=10 n=37 v=0
56184 On ch=10 n=42 v=0
56184 On ch=10 n=38 v=0
56300 On ch=10 n=38 v=68
56300 On ch=10 n=37 v=68
56304 On ch=10 n=37 v=0
56304 On ch=10 n=38 v=0
56420 On ch=10 n=38 v=52
56420 On ch=10 n=42 v=100
56420 On ch=10 n=37 v=52
56424 On ch=10 n=37 v=0
56424 On ch=10 n=42 v=0
56424 On ch=10 n=38 v=0
56424 On ch=10 n=69 v=84
56428 On ch=10 n=69 v=0
56660 On ch=10 n=36 v=116
56660 On ch=10 n=42 v=100
56664 On ch=10 n=42 v=0
56664 On ch=10 n=36 v=0
56780 On ch=10 n=42 v=68
56784 On ch=10 n=42 v=0
56900 On ch=10 n=42 v=100
56900 On ch=10 n=69 v=84
56904 On ch=10 n=69 v=0
56904 On ch=10 n=42 v=0
57140 On ch=10 n=38 v=127
57140 On ch=10 n=42 v=100
57140 On ch=10 n=37 v=116
57144 On ch=10 n=37 v=0
57144 On ch=10 n=42 v=0
57144 On ch=10 n=38 v=0
57260 On ch=10 n=38 v=68
57260 On ch=10 n=37 v=68
57264 On ch=10 n=37 v=0
57264 On ch=10 n=38 v=0
57380 On ch=10 n=38 v=52
57380 On ch=10 n=42 v=100
57380 On ch=10 n=37 v=52
57380 On ch=10 n=69 v=84
57384 On ch=10 n=69 v=0
57384 On ch=10 n=38 v=0
57384 On ch=10 n=42 v=0
57384 On ch=10 n=37 v=0
57620 On ch=10 n=36 v=116
57620 On ch=10 n=42 v=100
57624 On ch=10 n=42 v=0
57624 On ch=10 n=36 v=0
57740 On ch=10 n=42 v=100
57744 On ch=10 n=42 v=0
57860 On ch=10 n=42 v=100
57860 On ch=10 n=69 v=84
57864 On ch=10 n=69 v=0
57864 On ch=10 n=42 v=0
58100 On ch=10 n=38 v=127
58100 On ch=10 n=42 v=100
58100 On ch=10 n=37 v=116
58104 On ch=10 n=37 v=0
58104 On ch=10 n=42 v=0
58104 On ch=10 n=38 v=0
58220 On ch=10 n=38 v=68
58220 On ch=10 n=37 v=68
58224 On ch=10 n=37 v=0
58224 On ch=10 n=38 v=0
58340 On ch=10 n=38 v=52
58340 On ch=10 n=42 v=100
58340 On ch=10 n=37 v=52
58340 On ch=10 n=69 v=84
58344 On ch=10 n=69 v=0
58344 On ch=10 n=38 v=0
58344 On ch=10 n=42 v=0
58344 On ch=10 n=37 v=0
58580 On ch=10 n=36 v=116
58580 On ch=10 n=42 v=100
58584 On ch=10 n=42 v=0
58584 On ch=10 n=36 v=0
58820 On ch=10 n=42 v=100
58820 On ch=10 n=69 v=84
58824 On ch=10 n=69 v=0
58824 On ch=10 n=42 v=0
59060 On ch=10 n=38 v=127
59060 On ch=10 n=42 v=100
59060 On ch=10 n=37 v=116
59064 On ch=10 n=37 v=0
59064 On ch=10 n=42 v=0
59064 On ch=10 n=38 v=0
59180 On ch=10 n=38 v=68
59180 On ch=10 n=37 v=68
59184 On ch=10 n=37 v=0
59184 On ch=10 n=38 v=0
59300 On ch=10 n=38 v=52
59300 On ch=10 n=42 v=100
59300 On ch=10 n=37 v=52
59300 On ch=10 n=69 v=84
59304 On ch=10 n=69 v=0
59304 On ch=10 n=38 v=0
59304 On ch=10 n=42 v=0
59304 On ch=10 n=37 v=0
59540 On ch=10 n=36 v=116
59544 On ch=10 n=36 v=0
59780 On ch=10 n=42 v=100
59780 On ch=10 n=69 v=84
59784 On ch=10 n=69 v=0
59784 On ch=10 n=42 v=0
60020 On ch=10 n=38 v=127
60020 On ch=10 n=42 v=100
60020 On ch=10 n=37 v=116
60024 On ch=10 n=37 v=0
60024 On ch=10 n=42 v=0
60024 On ch=10 n=38 v=0
60140 On ch=10 n=38 v=68
60140 On ch=10 n=37 v=68
60144 On ch=10 n=37 v=0
60144 On ch=10 n=38 v=0
60260 On ch=10 n=38 v=52
60260 On ch=10 n=42 v=100
60260 On ch=10 n=37 v=52
60260 On ch=10 n=69 v=84
60264 On ch=10 n=69 v=0
60264 On ch=10 n=38 v=0
60264 On ch=10 n=42 v=0
60264 On ch=10 n=37 v=0
60500 On ch=10 n=36 v=116
60500 On ch=10 n=42 v=100
60504 On ch=10 n=42 v=0
60504 On ch=10 n=36 v=0
60620 On ch=10 n=42 v=68
60624 On ch=10 n=42 v=0
60740 On ch=10 n=42 v=100
60740 On ch=10 n=69 v=84
60744 On ch=10 n=69 v=0
60744 On ch=10 n=42 v=0
60980 On ch=10 n=38 v=127
60980 On ch=10 n=42 v=100
60980 On ch=10 n=37 v=116
60984 On ch=10 n=37 v=0
60984 On ch=10 n=42 v=0
60984 On ch=10 n=38 v=0
61100 On ch=10 n=38 v=68
61100 On ch=10 n=37 v=68
61104 On ch=10 n=37 v=0
61104 On ch=10 n=38 v=0
61220 On ch=10 n=38 v=52
61220 On ch=10 n=42 v=100
61220 On ch=10 n=37 v=52
61220 On ch=10 n=69 v=84
61224 On ch=10 n=69 v=0
61224 On ch=10 n=38 v=0
61224 On ch=10 n=42 v=0
61224 On ch=10 n=37 v=0
61460 On ch=10 n=36 v=116
61460 On ch=10 n=42 v=100
61464 On ch=10 n=42 v=0
61464 On ch=10 n=36 v=0
61580 On ch=10 n=42 v=100
61584 On ch=10 n=42 v=0
61700 On ch=10 n=42 v=100
61700 On ch=10 n=69 v=84
61704 On ch=10 n=69 v=0
61704 On ch=10 n=42 v=0
61940 On ch=10 n=38 v=127
61940 On ch=10 n=42 v=100
61940 On ch=10 n=37 v=116
61944 On ch=10 n=37 v=0
61944 On ch=10 n=42 v=0
61944 On ch=10 n=38 v=0
62060 On ch=10 n=38 v=68
62060 On ch=10 n=37 v=68
62064 On ch=10 n=37 v=0
62064 On ch=10 n=38 v=0
62180 On ch=10 n=38 v=52
62180 On ch=10 n=42 v=100
62180 On ch=10 n=37 v=52
62184 On ch=10 n=37 v=0
62184 On ch=10 n=42 v=0
62184 On ch=10 n=38 v=0
62184 On ch=10 n=69 v=84
62188 On ch=10 n=69 v=0
62420 On ch=10 n=36 v=116
62420 On ch=10 n=42 v=100
62424 On ch=10 n=42 v=0
62424 On ch=10 n=36 v=0
62660 On ch=10 n=42 v=100
62660 On ch=10 n=69 v=84
62664 On ch=10 n=69 v=0
62664 On ch=10 n=42 v=0
62900 On ch=10 n=38 v=127
62900 On ch=10 n=42 v=100
62900 On ch=10 n=37 v=116
62904 On ch=10 n=37 v=0
62904 On ch=10 n=42 v=0
62904 On ch=10 n=38 v=0
63020 On ch=10 n=38 v=68
63020 On ch=10 n=37 v=68
63024 On ch=10 n=37 v=0
63024 On ch=10 n=38 v=0
63140 On ch=10 n=38 v=52
63140 On ch=10 n=42 v=100
63140 On ch=10 n=37 v=52
63144 On ch=10 n=37 v=0
63144 On ch=10 n=42 v=0
63144 On ch=10 n=38 v=0
63144 On ch=10 n=69 v=84
63148 On ch=10 n=69 v=0
63380 On ch=10 n=36 v=116
63380 On ch=10 n=42 v=100
63384 On ch=10 n=42 v=0
63384 On ch=10 n=36 v=0
63500 On ch=10 n=42 v=100
63504 On ch=10 n=42 v=0
63620 On ch=10 n=42 v=100
63624 On ch=10 n=42 v=0
63740 On ch=10 n=69 v=84
63744 On ch=10 n=69 v=0
63860 On ch=10 n=38 v=127
63860 On ch=10 n=42 v=100
63860 On ch=10 n=37 v=116
63860 On ch=10 n=69 v=127
63864 On ch=10 n=69 v=0
63864 On ch=10 n=38 v=0
63864 On ch=10 n=42 v=0
63864 On ch=10 n=37 v=0
63980 On ch=10 n=38 v=68
63980 On ch=10 n=37 v=68
63980 On ch=10 n=69 v=84
63984 On ch=10 n=69 v=0
63984 On ch=10 n=37 v=0
63984 On ch=10 n=38 v=0
64100 On ch=10 n=38 v=52
64100 On ch=10 n=42 v=100
64100 On ch=10 n=37 v=52
64104 On ch=10 n=37 v=0
64104 On ch=10 n=42 v=0
64104 On ch=10 n=38 v=0
64220 On ch=10 n=69 v=100
64224 On ch=10 n=69 v=0
64340 On ch=10 n=36 v=116
64340 On ch=10 n=42 v=100
64344 On ch=10 n=42 v=0
64344 On ch=10 n=36 v=0
64460 On ch=10 n=69 v=100
64464 On ch=10 n=69 v=0
64580 On ch=10 n=42 v=100
64584 On ch=10 n=42 v=0
64700 On ch=10 n=69 v=84
64704 On ch=10 n=69 v=0
64820 On ch=10 n=38 v=127
64820 On ch=10 n=42 v=100
64820 On ch=10 n=37 v=116
64820 On ch=10 n=69 v=127
64824 On ch=10 n=69 v=0
64824 On ch=10 n=38 v=0
64824 On ch=10 n=42 v=0
64824 On ch=10 n=37 v=0
64940 On ch=10 n=38 v=68
64940 On ch=10 n=37 v=68
64940 On ch=10 n=69 v=84
64944 On ch=10 n=69 v=0
64944 On ch=10 n=37 v=0
64944 On ch=10 n=38 v=0
65060 On ch=10 n=38 v=52
65060 On ch=10 n=42 v=100
65060 On ch=10 n=37 v=52
65064 On ch=10 n=37 v=0
65064 On ch=10 n=42 v=0
65064 On ch=10 n=38 v=0
65300 On ch=10 n=36 v=116
65300 On ch=10 n=42 v=100
65304 On ch=10 n=42 v=0
65304 On ch=10 n=36 v=0
65420 On ch=10 n=42 v=100
65424 On ch=10 n=42 v=0
65540 On ch=10 n=42 v=100
65544 On ch=10 n=42 v=0
65660 On ch=10 n=69 v=84
65664 On ch=10 n=69 v=0
65780 On ch=10 n=38 v=127
65780 On ch=10 n=42 v=100
65780 On ch=10 n=37 v=116
65780 On ch=10 n=69 v=127
65784 On ch=10 n=69 v=0
65784 On ch=10 n=38 v=0
65784 On ch=10 n=42 v=0
65784 On ch=10 n=37 v=0
65900 On ch=10 n=38 v=68
65900 On ch=10 n=37 v=68
65900 On ch=10 n=69 v=84
65904 On ch=10 n=69 v=0
65904 On ch=10 n=37 v=0
65904 On ch=10 n=38 v=0
66020 On ch=10 n=38 v=52
66020 On ch=10 n=42 v=100
66020 On ch=10 n=37 v=52
66024 On ch=10 n=37 v=0
66024 On ch=10 n=42 v=0
66024 On ch=10 n=38 v=0
66140 On ch=10 n=69 v=100
66144 On ch=10 n=69 v=0
66260 On ch=10 n=36 v=116
66260 On ch=10 n=42 v=100
66264 On ch=10 n=42 v=0
66264 On ch=10 n=36 v=0
66380 On ch=10 n=69 v=100
66384 On ch=10 n=69 v=0
66500 On ch=10 n=42 v=100
66504 On ch=10 n=42 v=0
66620 On ch=10 n=36 v=116
66620 On ch=10 n=69 v=84
66624 On ch=10 n=69 v=0
66624 On ch=10 n=36 v=0
66740 On ch=10 n=38 v=127
66740 On ch=10 n=42 v=100
66740 On ch=10 n=37 v=116
66740 On ch=10 n=69 v=127
66744 On ch=10 n=69 v=0
66744 On ch=10 n=38 v=0
66744 On ch=10 n=42 v=0
66744 On ch=10 n=37 v=0
66860 On ch=10 n=38 v=68
66860 On ch=10 n=37 v=68
66860 On ch=10 n=69 v=84
66864 On ch=10 n=69 v=0
66864 On ch=10 n=37 v=0
66864 On ch=10 n=38 v=0
66980 On ch=10 n=38 v=52
66980 On ch=10 n=42 v=100
66980 On ch=10 n=37 v=52
66984 On ch=10 n=37 v=0
66984 On ch=10 n=42 v=0
66984 On ch=10 n=38 v=0
67220 On ch=10 n=36 v=116
67224 On ch=10 n=36 v=0
67460 On ch=10 n=42 v=100
67460 On ch=10 n=69 v=84
67464 On ch=10 n=69 v=0
67464 On ch=10 n=42 v=0
67700 On ch=10 n=38 v=127
67700 On ch=10 n=42 v=100
67700 On ch=10 n=37 v=116
67704 On ch=10 n=37 v=0
67704 On ch=10 n=42 v=0
67704 On ch=10 n=38 v=0
67820 On ch=10 n=38 v=68
67820 On ch=10 n=37 v=68
67824 On ch=10 n=37 v=0
67824 On ch=10 n=38 v=0
67940 On ch=10 n=38 v=52
67940 On ch=10 n=42 v=100
67940 On ch=10 n=37 v=52
67944 On ch=10 n=37 v=0
67944 On ch=10 n=42 v=0
67944 On ch=10 n=38 v=0
67944 On ch=10 n=69 v=84
67948 On ch=10 n=69 v=0
68180 On ch=10 n=36 v=116
68180 On ch=10 n=42 v=100
68184 On ch=10 n=42 v=0
68184 On ch=10 n=36 v=0
68300 On ch=10 n=42 v=68
68304 On ch=10 n=42 v=0
68420 On ch=10 n=42 v=100
68420 On ch=10 n=69 v=84
68424 On ch=10 n=69 v=0
68424 On ch=10 n=42 v=0
68660 On ch=10 n=38 v=127
68660 On ch=10 n=42 v=100
68660 On ch=10 n=37 v=116
68664 On ch=10 n=37 v=0
68664 On ch=10 n=42 v=0
68664 On ch=10 n=38 v=0
68780 On ch=10 n=38 v=68
68780 On ch=10 n=37 v=68
68784 On ch=10 n=37 v=0
68784 On ch=10 n=38 v=0
68900 On ch=10 n=38 v=52
68900 On ch=10 n=42 v=100
68900 On ch=10 n=37 v=52
68900 On ch=10 n=69 v=84
68904 On ch=10 n=69 v=0
68904 On ch=10 n=38 v=0
68904 On ch=10 n=42 v=0
68904 On ch=10 n=37 v=0
69140 On ch=10 n=36 v=116
69140 On ch=10 n=42 v=100
69144 On ch=10 n=42 v=0
69144 On ch=10 n=36 v=0
69260 On ch=10 n=42 v=100
69264 On ch=10 n=42 v=0
69380 On ch=10 n=42 v=100
69380 On ch=10 n=69 v=84
69384 On ch=10 n=69 v=0
69384 On ch=10 n=42 v=0
69620 On ch=10 n=38 v=127
69620 On ch=10 n=42 v=100
69620 On ch=10 n=37 v=116
69624 On ch=10 n=37 v=0
69624 On ch=10 n=42 v=0
69624 On ch=10 n=38 v=0
69740 On ch=10 n=38 v=68
69740 On ch=10 n=37 v=68
69744 On ch=10 n=37 v=0
69744 On ch=10 n=38 v=0
69860 On ch=10 n=38 v=52
69860 On ch=10 n=42 v=100
69860 On ch=10 n=37 v=52
69860 On ch=10 n=69 v=84
69864 On ch=10 n=69 v=0
69864 On ch=10 n=38 v=0
69864 On ch=10 n=42 v=0
69864 On ch=10 n=37 v=0
70100 On ch=10 n=36 v=116
70100 On ch=10 n=42 v=100
70104 On ch=10 n=42 v=0
70104 On ch=10 n=36 v=0
70340 On ch=10 n=42 v=100
70340 On ch=10 n=69 v=84
70344 On ch=10 n=69 v=0
70344 On ch=10 n=42 v=0
70580 On ch=10 n=38 v=127
70580 On ch=10 n=42 v=100
70580 On ch=10 n=37 v=116
70584 On ch=10 n=37 v=0
70584 On ch=10 n=42 v=0
70584 On ch=10 n=38 v=0
70700 On ch=10 n=38 v=68
70700 On ch=10 n=37 v=68
70704 On ch=10 n=37 v=0
70704 On ch=10 n=38 v=0
70820 On ch=10 n=38 v=52
70820 On ch=10 n=42 v=100
70820 On ch=10 n=37 v=52
70824 On ch=10 n=37 v=0
70824 On ch=10 n=42 v=0
70824 On ch=10 n=38 v=0
70824 On ch=10 n=69 v=84
70828 On ch=10 n=69 v=0
70940 On ch=10 n=38 v=127
70944 On ch=10 n=38 v=0
71060 On ch=10 n=36 v=116
71064 On ch=10 n=36 v=0
71300 On ch=10 n=42 v=100
71300 On ch=10 n=69 v=84
71304 On ch=10 n=69 v=0
71304 On ch=10 n=42 v=0
71540 On ch=10 n=38 v=127
71540 On ch=10 n=42 v=100
71540 On ch=10 n=37 v=116
71544 On ch=10 n=37 v=0
71544 On ch=10 n=42 v=0
71544 On ch=10 n=38 v=0
71660 On ch=10 n=38 v=68
71660 On ch=10 n=37 v=68
71664 On ch=10 n=37 v=0
71664 On ch=10 n=38 v=0
71780 On ch=10 n=38 v=52
71780 On ch=10 n=42 v=100
71780 On ch=10 n=37 v=52
71780 On ch=10 n=69 v=84
71784 On ch=10 n=69 v=0
71784 On ch=10 n=38 v=0
71784 On ch=10 n=42 v=0
71784 On ch=10 n=37 v=0
72020 On ch=10 n=36 v=116
72020 On ch=10 n=42 v=100
72024 On ch=10 n=42 v=0
72024 On ch=10 n=36 v=0
72140 On ch=10 n=42 v=68
72144 On ch=10 n=42 v=0
72260 On ch=10 n=42 v=100
72260 On ch=10 n=69 v=84
72264 On ch=10 n=69 v=0
72264 On ch=10 n=42 v=0
72500 On ch=10 n=38 v=127
72500 On ch=10 n=42 v=100
72500 On ch=10 n=37 v=116
72504 On ch=10 n=37 v=0
72504 On ch=10 n=42 v=0
72504 On ch=10 n=38 v=0
72620 On ch=10 n=38 v=68
72620 On ch=10 n=37 v=68
72624 On ch=10 n=37 v=0
72624 On ch=10 n=38 v=0
72740 On ch=10 n=38 v=52
72740 On ch=10 n=42 v=100
72740 On ch=10 n=37 v=52
72740 On ch=10 n=69 v=84
72744 On ch=10 n=69 v=0
72744 On ch=10 n=38 v=0
72744 On ch=10 n=42 v=0
72744 On ch=10 n=37 v=0
72980 On ch=10 n=36 v=116
72980 On ch=10 n=42 v=100
72984 On ch=10 n=42 v=0
72984 On ch=10 n=36 v=0
73100 On ch=10 n=42 v=100
73104 On ch=10 n=42 v=0
73220 On ch=10 n=42 v=100
73220 On ch=10 n=69 v=84
73224 On ch=10 n=69 v=0
73224 On ch=10 n=42 v=0
73460 On ch=10 n=38 v=127
73460 On ch=10 n=42 v=100
73460 On ch=10 n=37 v=116
73464 On ch=10 n=37 v=0
73464 On ch=10 n=42 v=0
73464 On ch=10 n=38 v=0
73580 On ch=10 n=38 v=68
73580 On ch=10 n=37 v=68
73584 On ch=10 n=37 v=0
73584 On ch=10 n=38 v=0
73700 On ch=10 n=38 v=52
73700 On ch=10 n=42 v=100
73700 On ch=10 n=37 v=52
73700 On ch=10 n=69 v=84
73704 On ch=10 n=69 v=0
73704 On ch=10 n=38 v=0
73704 On ch=10 n=42 v=0
73704 On ch=10 n=37 v=0
73940 On ch=10 n=36 v=116
73940 On ch=10 n=42 v=100
73944 On ch=10 n=42 v=0
73944 On ch=10 n=36 v=0
74180 On ch=10 n=42 v=100
74180 On ch=10 n=69 v=84
74184 On ch=10 n=69 v=0
74184 On ch=10 n=42 v=0
74420 On ch=10 n=38 v=127
74420 On ch=10 n=42 v=100
74420 On ch=10 n=37 v=116
74424 On ch=10 n=37 v=0
74424 On ch=10 n=42 v=0
74424 On ch=10 n=38 v=0
74540 On ch=10 n=38 v=68
74540 On ch=10 n=37 v=68
74544 On ch=10 n=37 v=0
74544 On ch=10 n=38 v=0
74660 On ch=10 n=38 v=52
74660 On ch=10 n=42 v=100
74660 On ch=10 n=37 v=52
74660 On ch=10 n=69 v=84
74664 On ch=10 n=69 v=0
74664 On ch=10 n=38 v=0
74664 On ch=10 n=42 v=0
74664 On ch=10 n=37 v=0
74780 On ch=10 n=38 v=127
74784 On ch=10 n=38 v=0
74900 On ch=10 n=36 v=116
74900 On ch=10 n=42 v=100
74904 On ch=10 n=42 v=0
74904 On ch=10 n=36 v=0
75020 On ch=10 n=42 v=100
75024 On ch=10 n=42 v=0
75140 On ch=10 n=42 v=100
75144 On ch=10 n=42 v=0
75260 On ch=10 n=69 v=84
75264 On ch=10 n=69 v=0
75380 On ch=10 n=38 v=127
75380 On ch=10 n=42 v=100
75380 On ch=10 n=37 v=116
75380 On ch=10 n=69 v=127
75384 On ch=10 n=69 v=0
75384 On ch=10 n=38 v=0
75384 On ch=10 n=42 v=0
75384 On ch=10 n=37 v=0
75500 On ch=10 n=38 v=68
75500 On ch=10 n=37 v=68
75500 On ch=10 n=69 v=84
75504 On ch=10 n=69 v=0
75504 On ch=10 n=37 v=0
75504 On ch=10 n=38 v=0
75620 On ch=10 n=38 v=52
75620 On ch=10 n=42 v=100
75620 On ch=10 n=37 v=52
75624 On ch=10 n=37 v=0
75624 On ch=10 n=42 v=0
75624 On ch=10 n=38 v=0
75740 On ch=10 n=69 v=52
75744 On ch=10 n=69 v=0
75860 On ch=10 n=36 v=116
75860 On ch=10 n=42 v=100
75864 On ch=10 n=42 v=0
75864 On ch=10 n=36 v=0
75980 On ch=10 n=69 v=52
75984 On ch=10 n=69 v=0
76100 On ch=10 n=42 v=100
76104 On ch=10 n=42 v=0
76220 On ch=10 n=36 v=116
76220 On ch=10 n=69 v=84
76224 On ch=10 n=69 v=0
76224 On ch=10 n=36 v=0
76340 On ch=10 n=38 v=127
76340 On ch=10 n=42 v=100
76340 On ch=10 n=37 v=116
76340 On ch=10 n=69 v=127
76344 On ch=10 n=69 v=0
76344 On ch=10 n=38 v=0
76344 On ch=10 n=42 v=0
76344 On ch=10 n=37 v=0
76460 On ch=10 n=38 v=68
76460 On ch=10 n=37 v=68
76460 On ch=10 n=69 v=84
76464 On ch=10 n=69 v=0
76464 On ch=10 n=37 v=0
76464 On ch=10 n=38 v=0
76580 On ch=10 n=38 v=52
76580 On ch=10 n=42 v=100
76580 On ch=10 n=37 v=52
76584 On ch=10 n=37 v=0
76584 On ch=10 n=42 v=0
76584 On ch=10 n=38 v=0
76820 On ch=10 n=36 v=116
76820 On ch=10 n=42 v=100
76824 On ch=10 n=42 v=0
76824 On ch=10 n=36 v=0
76940 On ch=10 n=42 v=100
76944 On ch=10 n=42 v=0
77060 On ch=10 n=42 v=100
77064 On ch=10 n=42 v=0
77180 On ch=10 n=69 v=84
77184 On ch=10 n=69 v=0
77300 On ch=10 n=38 v=127
77300 On ch=10 n=42 v=100
77300 On ch=10 n=37 v=116
77300 On ch=10 n=69 v=127
77304 On ch=10 n=69 v=0
77304 On ch=10 n=38 v=0
77304 On ch=10 n=42 v=0
77304 On ch=10 n=37 v=0
77420 On ch=10 n=38 v=68
77420 On ch=10 n=37 v=68
77420 On ch=10 n=69 v=84
77424 On ch=10 n=69 v=0
77424 On ch=10 n=37 v=0
77424 On ch=10 n=38 v=0
77540 On ch=10 n=38 v=52
77540 On ch=10 n=42 v=100
77540 On ch=10 n=37 v=52
77544 On ch=10 n=37 v=0
77544 On ch=10 n=42 v=0
77544 On ch=10 n=38 v=0
77660 On ch=10 n=69 v=52
77664 On ch=10 n=69 v=0
77780 On ch=10 n=36 v=116
77780 On ch=10 n=42 v=100
77784 On ch=10 n=42 v=0
77784 On ch=10 n=36 v=0
77900 On ch=10 n=69 v=52
77904 On ch=10 n=69 v=0
78020 On ch=10 n=42 v=100
78024 On ch=10 n=42 v=0
78140 On ch=10 n=36 v=116
78140 On ch=10 n=69 v=84
78144 On ch=10 n=69 v=0
78144 On ch=10 n=36 v=0
78260 On ch=10 n=38 v=127
78260 On ch=10 n=42 v=100
78260 On ch=10 n=37 v=116
78260 On ch=10 n=69 v=127
78264 On ch=10 n=69 v=0
78264 On ch=10 n=38 v=0
78264 On ch=10 n=42 v=0
78264 On ch=10 n=37 v=0
78380 On ch=10 n=38 v=68
78380 On ch=10 n=37 v=68
78380 On ch=10 n=69 v=84
78384 On ch=10 n=69 v=0
78384 On ch=10 n=37 v=0
78384 On ch=10 n=38 v=0
78500 On ch=10 n=38 v=52
78500 On ch=10 n=42 v=100
78500 On ch=10 n=37 v=52
78504 On ch=10 n=37 v=0
78504 On ch=10 n=42 v=0
78504 On ch=10 n=38 v=0
78740 On ch=10 n=36 v=116
78740 On ch=10 n=42 v=100
78744 On ch=10 n=42 v=0
78744 On ch=10 n=36 v=0
78860 On ch=10 n=42 v=100
78864 On ch=10 n=42 v=0
78980 On ch=10 n=42 v=100
78984 On ch=10 n=42 v=0
79100 On ch=10 n=69 v=84
79104 On ch=10 n=69 v=0
79220 On ch=10 n=38 v=127
79220 On ch=10 n=42 v=100
79220 On ch=10 n=37 v=116
79220 On ch=10 n=69 v=127
79224 On ch=10 n=69 v=0
79224 On ch=10 n=38 v=0
79224 On ch=10 n=42 v=0
79224 On ch=10 n=37 v=0
79340 On ch=10 n=38 v=68
79340 On ch=10 n=37 v=68
79340 On ch=10 n=69 v=84
79344 On ch=10 n=69 v=0
79344 On ch=10 n=37 v=0
79344 On ch=10 n=38 v=0
79460 On ch=10 n=38 v=52
79460 On ch=10 n=42 v=100
79460 On ch=10 n=37 v=52
79464 On ch=10 n=37 v=0
79464 On ch=10 n=42 v=0
79464 On ch=10 n=38 v=0
79580 On ch=10 n=69 v=52
79584 On ch=10 n=69 v=0
79700 On ch=10 n=36 v=116
79700 On ch=10 n=42 v=100
79704 On ch=10 n=42 v=0
79704 On ch=10 n=36 v=0
79820 On ch=10 n=69 v=52
79824 On ch=10 n=69 v=0
79940 On ch=10 n=42 v=100
79944 On ch=10 n=42 v=0
80060 On ch=10 n=36 v=116
80060 On ch=10 n=69 v=84
80064 On ch=10 n=69 v=0
80064 On ch=10 n=36 v=0
80180 On ch=10 n=38 v=127
80180 On ch=10 n=42 v=100
80180 On ch=10 n=37 v=116
80180 On ch=10 n=69 v=127
80184 On ch=10 n=69 v=0
80184 On ch=10 n=38 v=0
80184 On ch=10 n=42 v=0
80184 On ch=10 n=37 v=0
80300 On ch=10 n=38 v=68
80300 On ch=10 n=37 v=68
80300 On ch=10 n=69 v=84
80304 On ch=10 n=69 v=0
80304 On ch=10 n=37 v=0
80304 On ch=10 n=38 v=0
80420 On ch=10 n=38 v=52
80420 On ch=10 n=42 v=100
80420 On ch=10 n=37 v=52
80424 On ch=10 n=37 v=0
80424 On ch=10 n=42 v=0
80424 On ch=10 n=38 v=0
80660 On ch=10 n=36 v=116
80660 On ch=10 n=42 v=100
80664 On ch=10 n=42 v=0
80664 On ch=10 n=36 v=0
80780 On ch=10 n=42 v=100
80784 On ch=10 n=42 v=0
80900 On ch=10 n=42 v=100
80904 On ch=10 n=42 v=0
81020 On ch=10 n=69 v=84
81024 On ch=10 n=69 v=0
81140 On ch=10 n=38 v=127
81140 On ch=10 n=42 v=100
81140 On ch=10 n=37 v=116
81140 On ch=10 n=69 v=127
81144 On ch=10 n=69 v=0
81144 On ch=10 n=38 v=0
81144 On ch=10 n=42 v=0
81144 On ch=10 n=37 v=0
81260 On ch=10 n=38 v=68
81260 On ch=10 n=37 v=68
81260 On ch=10 n=69 v=84
81264 On ch=10 n=69 v=0
81264 On ch=10 n=37 v=0
81264 On ch=10 n=38 v=0
81380 On ch=10 n=38 v=52
81380 On ch=10 n=42 v=100
81380 On ch=10 n=37 v=52
81384 On ch=10 n=37 v=0
81384 On ch=10 n=42 v=0
81384 On ch=10 n=38 v=0
81500 On ch=10 n=69 v=52
81504 On ch=10 n=69 v=0
81620 On ch=10 n=36 v=116
81620 On ch=10 n=42 v=100
81624 On ch=10 n=42 v=0
81624 On ch=10 n=36 v=0
81740 On ch=10 n=69 v=52
81744 On ch=10 n=69 v=0
81860 On ch=10 n=42 v=100
81864 On ch=10 n=42 v=0
81980 On ch=10 n=36 v=116
81980 On ch=10 n=69 v=84
81984 On ch=10 n=69 v=0
81984 On ch=10 n=36 v=0
82100 On ch=10 n=38 v=127
82100 On ch=10 n=42 v=100
82100 On ch=10 n=37 v=116
82100 On ch=10 n=69 v=127
82104 On ch=10 n=69 v=0
82104 On ch=10 n=38 v=0
82104 On ch=10 n=42 v=0
82104 On ch=10 n=37 v=0
82220 On ch=10 n=38 v=68
82220 On ch=10 n=37 v=68
82220 On ch=10 n=69 v=84
82224 On ch=10 n=69 v=0
82224 On ch=10 n=37 v=0
82224 On ch=10 n=38 v=0
82340 On ch=10 n=38 v=52
82340 On ch=10 n=42 v=100
82340 On ch=10 n=37 v=52
82344 On ch=10 n=37 v=0
82344 On ch=10 n=42 v=0
82344 On ch=10 n=38 v=0
82580 On ch=10 n=36 v=116
82580 On ch=10 n=42 v=100
82584 On ch=10 n=42 v=0
82584 On ch=10 n=36 v=0
82700 On ch=10 n=42 v=100
82704 On ch=10 n=42 v=0
82820 On ch=10 n=42 v=100
82824 On ch=10 n=42 v=0
82940 On ch=10 n=69 v=84
82944 On ch=10 n=69 v=0
83060 On ch=10 n=38 v=127
83060 On ch=10 n=42 v=100
83060 On ch=10 n=37 v=116
83064 On ch=10 n=37 v=0
83064 On ch=10 n=42 v=0
83064 On ch=10 n=38 v=0
83064 On ch=10 n=69 v=127
83068 On ch=10 n=69 v=0
83180 On ch=10 n=38 v=68
83180 On ch=10 n=37 v=68
83180 On ch=10 n=69 v=84
83184 On ch=10 n=69 v=0
83184 On ch=10 n=37 v=0
83184 On ch=10 n=38 v=0
83300 On ch=10 n=38 v=52
83300 On ch=10 n=42 v=100
83300 On ch=10 n=37 v=52
83304 On ch=10 n=37 v=0
83304 On ch=10 n=42 v=0
83304 On ch=10 n=38 v=0
83420 On ch=10 n=69 v=52
83424 On ch=10 n=69 v=0
83540 On ch=10 n=36 v=116
83540 On ch=10 n=42 v=100
83544 On ch=10 n=42 v=0
83544 On ch=10 n=36 v=0
83660 On ch=10 n=69 v=52
83664 On ch=10 n=69 v=0
83780 On ch=10 n=42 v=100
83784 On ch=10 n=42 v=0
83900 On ch=10 n=36 v=116
83900 On ch=10 n=69 v=84
83904 On ch=10 n=69 v=0
83904 On ch=10 n=36 v=0
84020 On ch=10 n=38 v=127
84020 On ch=10 n=42 v=100
84020 On ch=10 n=37 v=116
84024 On ch=10 n=37 v=0
84024 On ch=10 n=42 v=0
84024 On ch=10 n=38 v=0
84024 On ch=10 n=69 v=127
84028 On ch=10 n=69 v=0
84140 On ch=10 n=38 v=68
84140 On ch=10 n=37 v=68
84140 On ch=10 n=69 v=84
84144 On ch=10 n=69 v=0
84144 On ch=10 n=37 v=0
84144 On ch=10 n=38 v=0
84260 On ch=10 n=38 v=52
84260 On ch=10 n=42 v=100
84260 On ch=10 n=37 v=52
84264 On ch=10 n=37 v=0
84264 On ch=10 n=42 v=0
84264 On ch=10 n=38 v=0
84500 On ch=10 n=36 v=116
84500 On ch=10 n=42 v=100
84504 On ch=10 n=42 v=0
84504 On ch=10 n=36 v=0
84620 On ch=10 n=42 v=100
84624 On ch=10 n=42 v=0
84740 On ch=10 n=42 v=100
84744 On ch=10 n=42 v=0
84860 On ch=10 n=69 v=84
84864 On ch=10 n=69 v=0
84980 On ch=10 n=38 v=127
84980 On ch=10 n=42 v=100
84980 On ch=10 n=37 v=116
84984 On ch=10 n=37 v=0
84984 On ch=10 n=42 v=0
84984 On ch=10 n=38 v=0
84984 On ch=10 n=69 v=127
84988 On ch=10 n=69 v=0
85100 On ch=10 n=38 v=68
85100 On ch=10 n=37 v=68
85100 On ch=10 n=69 v=84
85104 On ch=10 n=69 v=0
85104 On ch=10 n=37 v=0
85104 On ch=10 n=38 v=0
85220 On ch=10 n=38 v=52
85220 On ch=10 n=42 v=100
85220 On ch=10 n=37 v=52
85224 On ch=10 n=37 v=0
85224 On ch=10 n=42 v=0
85224 On ch=10 n=38 v=0
85340 On ch=10 n=69 v=52
85344 On ch=10 n=69 v=0
85460 On ch=10 n=36 v=116
85460 On ch=10 n=42 v=100
85464 On ch=10 n=42 v=0
85464 On ch=10 n=36 v=0
85580 On ch=10 n=69 v=52
85584 On ch=10 n=69 v=0
85700 On ch=10 n=42 v=100
85704 On ch=10 n=42 v=0
85820 On ch=10 n=36 v=116
85820 On ch=10 n=69 v=84
85824 On ch=10 n=69 v=0
85824 On ch=10 n=36 v=0
85940 On ch=10 n=38 v=127
85940 On ch=10 n=42 v=100
85940 On ch=10 n=37 v=116
85944 On ch=10 n=37 v=0
85944 On ch=10 n=42 v=0
85944 On ch=10 n=38 v=0
85944 On ch=10 n=69 v=127
85948 On ch=10 n=69 v=0
86060 On ch=10 n=38 v=68
86060 On ch=10 n=37 v=68
86060 On ch=10 n=69 v=84
86064 On ch=10 n=69 v=0
86064 On ch=10 n=37 v=0
86064 On ch=10 n=38 v=0
86180 On ch=10 n=38 v=52
86180 On ch=10 n=42 v=100
86180 On ch=10 n=37 v=52
86184 On ch=10 n=37 v=0
86184 On ch=10 n=42 v=0
86184 On ch=10 n=38 v=0
86420 On ch=10 n=36 v=116
86420 On ch=10 n=42 v=100
86424 On ch=10 n=42 v=0
86424 On ch=10 n=36 v=0
86540 On ch=10 n=42 v=100
86544 On ch=10 n=42 v=0
86660 On ch=10 n=42 v=100
86664 On ch=10 n=42 v=0
86780 On ch=10 n=69 v=84
86784 On ch=10 n=69 v=0
86900 On ch=10 n=38 v=127
86900 On ch=10 n=42 v=100
86900 On ch=10 n=37 v=116
86904 On ch=10 n=37 v=0
86904 On ch=10 n=42 v=0
86904 On ch=10 n=38 v=0
86904 On ch=10 n=69 v=127
86908 On ch=10 n=69 v=0
87020 On ch=10 n=38 v=68
87020 On ch=10 n=37 v=68
87020 On ch=10 n=69 v=84
87024 On ch=10 n=69 v=0
87024 On ch=10 n=37 v=0
87024 On ch=10 n=38 v=0
87140 On ch=10 n=38 v=52
87140 On ch=10 n=42 v=100
87140 On ch=10 n=37 v=52
87144 On ch=10 n=37 v=0
87144 On ch=10 n=42 v=0
87144 On ch=10 n=38 v=0
87260 On ch=10 n=69 v=52
87264 On ch=10 n=69 v=0
87380 On ch=10 n=36 v=116
87380 On ch=10 n=42 v=100
87384 On ch=10 n=42 v=0
87384 On ch=10 n=36 v=0
87500 On ch=10 n=69 v=52
87504 On ch=10 n=69 v=0
87620 On ch=10 n=42 v=100
87624 On ch=10 n=42 v=0
87740 On ch=10 n=36 v=116
87740 On ch=10 n=69 v=84
87744 On ch=10 n=69 v=0
87744 On ch=10 n=36 v=0
87860 On ch=10 n=38 v=127
87860 On ch=10 n=42 v=100
87860 On ch=10 n=37 v=116
87864 On ch=10 n=37 v=0
87864 On ch=10 n=42 v=0
87864 On ch=10 n=38 v=0
87864 On ch=10 n=69 v=127
87868 On ch=10 n=69 v=0
87980 On ch=10 n=38 v=68
87980 On ch=10 n=37 v=68
87980 On ch=10 n=69 v=84
87984 On ch=10 n=69 v=0
87984 On ch=10 n=37 v=0
87984 On ch=10 n=38 v=0
88100 On ch=10 n=38 v=52
88100 On ch=10 n=42 v=100
88100 On ch=10 n=37 v=52
88104 On ch=10 n=37 v=0
88104 On ch=10 n=42 v=0
88104 On ch=10 n=38 v=0
88160 On ch=10 n=48 v=52
88164 On ch=10 n=48 v=0
88220 On ch=10 n=48 v=116
88224 On ch=10 n=48 v=0
88340 On ch=10 n=36 v=116
88340 On ch=10 n=42 v=100
88344 On ch=10 n=42 v=0
88344 On ch=10 n=36 v=0
88460 On ch=10 n=42 v=100
88460 On ch=10 n=41 v=116
88464 On ch=10 n=41 v=0
88464 On ch=10 n=42 v=0
88580 On ch=10 n=42 v=100
88580 On ch=10 n=41 v=116
88584 On ch=10 n=41 v=0
88584 On ch=10 n=42 v=0
88700 On ch=10 n=41 v=116
88700 On ch=10 n=69 v=84
88704 On ch=10 n=69 v=0
88704 On ch=10 n=41 v=0
88820 On ch=10 n=38 v=127
88820 On ch=10 n=42 v=100
88820 On ch=10 n=41 v=116
88824 On ch=10 n=41 v=0
88824 On ch=10 n=42 v=0
88824 On ch=10 n=38 v=0
88824 On ch=10 n=37 v=116
88824 On ch=10 n=69 v=127
88828 On ch=10 n=69 v=0
88828 On ch=10 n=37 v=0
88940 On ch=10 n=38 v=68
88940 On ch=10 n=37 v=68
88940 On ch=10 n=69 v=84
88944 On ch=10 n=69 v=0
88944 On ch=10 n=37 v=0
88944 On ch=10 n=38 v=0
89060 On ch=10 n=38 v=52
89060 On ch=10 n=42 v=100
89060 On ch=10 n=37 v=52
89064 On ch=10 n=37 v=0
89064 On ch=10 n=42 v=0
89064 On ch=10 n=38 v=0
89120 On ch=10 n=48 v=68
89124 On ch=10 n=48 v=0
89180 On ch=10 n=48 v=100
89180 On ch=10 n=69 v=52
89184 On ch=10 n=69 v=0
89184 On ch=10 n=48 v=0
89300 On ch=10 n=36 v=116
89300 On ch=10 n=42 v=100
89300 On ch=10 n=45 v=100
89304 On ch=10 n=45 v=0
89304 On ch=10 n=42 v=0
89304 On ch=10 n=36 v=0
89420 On ch=10 n=45 v=100
89420 On ch=10 n=69 v=52
89424 On ch=10 n=69 v=0
89424 On ch=10 n=45 v=0
89540 On ch=10 n=42 v=100
89540 On ch=10 n=45 v=100
89544 On ch=10 n=45 v=0
89544 On ch=10 n=42 v=0
89660 On ch=10 n=36 v=116
89660 On ch=10 n=41 v=116
89660 On ch=10 n=69 v=84
89664 On ch=10 n=69 v=0
89664 On ch=10 n=41 v=0
89664 On ch=10 n=36 v=0
89780 On ch=10 n=38 v=127
89780 On ch=10 n=42 v=100
89780 On ch=10 n=41 v=116
89780 On ch=10 n=37 v=116
89784 On ch=10 n=37 v=0
89784 On ch=10 n=38 v=0
89784 On ch=10 n=42 v=0
89784 On ch=10 n=41 v=0
89784 On ch=10 n=69 v=127
89788 On ch=10 n=69 v=0
89900 On ch=10 n=38 v=68
89900 On ch=10 n=41 v=116
89900 On ch=10 n=37 v=68
89900 On ch=10 n=69 v=84
89904 On ch=10 n=69 v=0
89904 On ch=10 n=38 v=0
89904 On ch=10 n=41 v=0
89904 On ch=10 n=37 v=0
90020 On ch=10 n=38 v=52
90020 On ch=10 n=42 v=100
90020 On ch=10 n=41 v=116
90024 On ch=10 n=41 v=0
90024 On ch=10 n=42 v=0
90024 On ch=10 n=38 v=0
90024 On ch=10 n=37 v=52
90028 On ch=10 n=37 v=0
90260 On ch=10 n=36 v=116
90264 On ch=10 n=36 v=0
90500 On ch=10 n=42 v=100
90500 On ch=10 n=69 v=84
90504 On ch=10 n=69 v=0
90504 On ch=10 n=42 v=0
90740 On ch=10 n=38 v=127
90740 On ch=10 n=42 v=100
90740 On ch=10 n=37 v=116
90744 On ch=10 n=37 v=0
90744 On ch=10 n=42 v=0
90744 On ch=10 n=38 v=0
90860 On ch=10 n=38 v=68
90860 On ch=10 n=37 v=68
90864 On ch=10 n=37 v=0
90864 On ch=10 n=38 v=0
90980 On ch=10 n=38 v=52
90980 On ch=10 n=42 v=100
90980 On ch=10 n=37 v=52
90984 On ch=10 n=37 v=0
90984 On ch=10 n=42 v=0
90984 On ch=10 n=38 v=0
90984 On ch=10 n=69 v=84
90988 On ch=10 n=69 v=0
91220 On ch=10 n=36 v=116
91220 On ch=10 n=42 v=100
91224 On ch=10 n=42 v=0
91224 On ch=10 n=36 v=0
91340 On ch=10 n=42 v=68
91344 On ch=10 n=42 v=0
91460 On ch=10 n=42 v=100
91460 On ch=10 n=69 v=84
91464 On ch=10 n=69 v=0
91464 On ch=10 n=42 v=0
91700 On ch=10 n=38 v=127
91700 On ch=10 n=42 v=100
91700 On ch=10 n=37 v=116
91704 On ch=10 n=37 v=0
91704 On ch=10 n=42 v=0
91704 On ch=10 n=38 v=0
91820 On ch=10 n=38 v=68
91820 On ch=10 n=37 v=68
91824 On ch=10 n=37 v=0
91824 On ch=10 n=38 v=0
91940 On ch=10 n=38 v=52
91940 On ch=10 n=42 v=100
91940 On ch=10 n=37 v=52
91944 On ch=10 n=37 v=0
91944 On ch=10 n=42 v=0
91944 On ch=10 n=38 v=0
91944 On ch=10 n=69 v=84
91948 On ch=10 n=69 v=0
92180 On ch=10 n=36 v=116
92180 On ch=10 n=42 v=100
92184 On ch=10 n=42 v=0
92184 On ch=10 n=36 v=0
92300 On ch=10 n=42 v=100
92304 On ch=10 n=42 v=0
92420 On ch=10 n=42 v=100
92420 On ch=10 n=69 v=84
92424 On ch=10 n=69 v=0
92424 On ch=10 n=42 v=0
92660 On ch=10 n=38 v=127
92660 On ch=10 n=42 v=100
92660 On ch=10 n=37 v=116
92664 On ch=10 n=37 v=0
92664 On ch=10 n=42 v=0
92664 On ch=10 n=38 v=0
92780 On ch=10 n=38 v=68
92780 On ch=10 n=37 v=68
92784 On ch=10 n=37 v=0
92784 On ch=10 n=38 v=0
92900 On ch=10 n=38 v=52
92900 On ch=10 n=42 v=100
92900 On ch=10 n=37 v=52
92904 On ch=10 n=37 v=0
92904 On ch=10 n=42 v=0
92904 On ch=10 n=38 v=0
92904 On ch=10 n=69 v=84
92908 On ch=10 n=69 v=0
93140 On ch=10 n=36 v=116
93140 On ch=10 n=42 v=100
93144 On ch=10 n=42 v=0
93144 On ch=10 n=36 v=0
93380 On ch=10 n=42 v=100
93380 On ch=10 n=69 v=84
93384 On ch=10 n=69 v=0
93384 On ch=10 n=42 v=0
93620 On ch=10 n=38 v=127
93620 On ch=10 n=42 v=100
93620 On ch=10 n=37 v=116
93624 On ch=10 n=37 v=0
93624 On ch=10 n=42 v=0
93624 On ch=10 n=38 v=0
93740 On ch=10 n=38 v=68
93740 On ch=10 n=37 v=68
93744 On ch=10 n=37 v=0
93744 On ch=10 n=38 v=0
93860 On ch=10 n=38 v=52
93860 On ch=10 n=42 v=100
93860 On ch=10 n=37 v=52
93864 On ch=10 n=37 v=0
93864 On ch=10 n=42 v=0
93864 On ch=10 n=38 v=0
93864 On ch=10 n=69 v=84
93868 On ch=10 n=69 v=0
94100 On ch=10 n=36 v=116
94104 On ch=10 n=36 v=0
94340 On ch=10 n=42 v=100
94340 On ch=10 n=69 v=84
94344 On ch=10 n=69 v=0
94344 On ch=10 n=42 v=0
94580 On ch=10 n=38 v=127
94580 On ch=10 n=42 v=100
94580 On ch=10 n=37 v=116
94584 On ch=10 n=37 v=0
94584 On ch=10 n=42 v=0
94584 On ch=10 n=38 v=0
94700 On ch=10 n=38 v=68
94700 On ch=10 n=37 v=68
94704 On ch=10 n=37 v=0
94704 On ch=10 n=38 v=0
94820 On ch=10 n=38 v=52
94820 On ch=10 n=42 v=100
94820 On ch=10 n=37 v=52
94824 On ch=10 n=37 v=0
94824 On ch=10 n=42 v=0
94824 On ch=10 n=38 v=0
94824 On ch=10 n=69 v=84
94828 On ch=10 n=69 v=0
95060 On ch=10 n=36 v=116
95060 On ch=10 n=42 v=100
95064 On ch=10 n=42 v=0
95064 On ch=10 n=36 v=0
95180 On ch=10 n=42 v=68
95184 On ch=10 n=42 v=0
95300 On ch=10 n=42 v=100
95300 On ch=10 n=69 v=84
95304 On ch=10 n=69 v=0
95304 On ch=10 n=42 v=0
95540 On ch=10 n=38 v=127
95540 On ch=10 n=42 v=100
95540 On ch=10 n=37 v=116
95544 On ch=10 n=37 v=0
95544 On ch=10 n=42 v=0
95544 On ch=10 n=38 v=0
95660 On ch=10 n=38 v=68
95660 On ch=10 n=37 v=68
95664 On ch=10 n=37 v=0
95664 On ch=10 n=38 v=0
95780 On ch=10 n=38 v=52
95780 On ch=10 n=42 v=100
95780 On ch=10 n=37 v=52
95780 On ch=10 n=69 v=84
95784 On ch=10 n=69 v=0
95784 On ch=10 n=38 v=0
95784 On ch=10 n=42 v=0
95784 On ch=10 n=37 v=0
96020 On ch=10 n=36 v=116
96020 On ch=10 n=42 v=100
96024 On ch=10 n=42 v=0
96024 On ch=10 n=36 v=0
96140 On ch=10 n=42 v=100
96144 On ch=10 n=42 v=0
96260 On ch=10 n=42 v=100
96260 On ch=10 n=69 v=84
96264 On ch=10 n=69 v=0
96264 On ch=10 n=42 v=0
96500 On ch=10 n=38 v=127
96500 On ch=10 n=42 v=100
96500 On ch=10 n=37 v=116
96504 On ch=10 n=37 v=0
96504 On ch=10 n=42 v=0
96504 On ch=10 n=38 v=0
96620 On ch=10 n=38 v=68
96620 On ch=10 n=37 v=68
96624 On ch=10 n=37 v=0
96624 On ch=10 n=38 v=0
96740 On ch=10 n=38 v=52
96740 On ch=10 n=42 v=100
96740 On ch=10 n=37 v=52
96744 On ch=10 n=37 v=0
96744 On ch=10 n=42 v=0
96744 On ch=10 n=38 v=0
96744 On ch=10 n=69 v=84
96748 On ch=10 n=69 v=0
96980 On ch=10 n=36 v=116
96980 On ch=10 n=42 v=100
96984 On ch=10 n=42 v=0
96984 On ch=10 n=36 v=0
97220 On ch=10 n=42 v=100
97220 On ch=10 n=69 v=84
97224 On ch=10 n=69 v=0
97224 On ch=10 n=42 v=0
97460 On ch=10 n=38 v=127
97460 On ch=10 n=42 v=100
97460 On ch=10 n=37 v=116
97464 On ch=10 n=37 v=0
97464 On ch=10 n=42 v=0
97464 On ch=10 n=38 v=0
97580 On ch=10 n=38 v=68
97580 On ch=10 n=37 v=68
97584 On ch=10 n=37 v=0
97584 On ch=10 n=38 v=0
97700 On ch=10 n=38 v=52
97700 On ch=10 n=42 v=100
97700 On ch=10 n=37 v=52
97704 On ch=10 n=37 v=0
97704 On ch=10 n=42 v=0
97704 On ch=10 n=38 v=0
97704 On ch=10 n=69 v=84
97708 On ch=10 n=69 v=0
97940 On ch=10 n=36 v=116
97944 On ch=10 n=36 v=0
98180 On ch=10 n=42 v=100
98180 On ch=10 n=69 v=84
98184 On ch=10 n=69 v=0
98184 On ch=10 n=42 v=0
98420 On ch=10 n=38 v=127
98420 On ch=10 n=42 v=100
98420 On ch=10 n=37 v=116
98424 On ch=10 n=37 v=0
98424 On ch=10 n=42 v=0
98424 On ch=10 n=38 v=0
98540 On ch=10 n=38 v=68
98540 On ch=10 n=37 v=68
98544 On ch=10 n=37 v=0
98544 On ch=10 n=38 v=0
98660 On ch=10 n=38 v=52
98660 On ch=10 n=42 v=100
98660 On ch=10 n=37 v=52
98660 On ch=10 n=69 v=84
98664 On ch=10 n=69 v=0
98664 On ch=10 n=38 v=0
98664 On ch=10 n=42 v=0
98664 On ch=10 n=37 v=0
98900 On ch=10 n=36 v=116
98900 On ch=10 n=42 v=100
98904 On ch=10 n=42 v=0
98904 On ch=10 n=36 v=0
99020 On ch=10 n=42 v=68
99024 On ch=10 n=42 v=0
99140 On ch=10 n=42 v=100
99140 On ch=10 n=69 v=84
99144 On ch=10 n=69 v=0
99144 On ch=10 n=42 v=0
99380 On ch=10 n=38 v=127
99380 On ch=10 n=42 v=100
99380 On ch=10 n=37 v=116
99384 On ch=10 n=37 v=0
99384 On ch=10 n=42 v=0
99384 On ch=10 n=38 v=0
99500 On ch=10 n=38 v=68
99500 On ch=10 n=37 v=68
99504 On ch=10 n=37 v=0
99504 On ch=10 n=38 v=0
99620 On ch=10 n=38 v=52
99620 On ch=10 n=42 v=100
99620 On ch=10 n=37 v=52
99620 On ch=10 n=69 v=84
99624 On ch=10 n=69 v=0
99624 On ch=10 n=38 v=0
99624 On ch=10 n=42 v=0
99624 On ch=10 n=37 v=0
99860 On ch=10 n=36 v=116
99860 On ch=10 n=42 v=100
99864 On ch=10 n=42 v=0
99864 On ch=10 n=36 v=0
99980 On ch=10 n=42 v=100
99984 On ch=10 n=42 v=0
100100 On ch=10 n=42 v=100
100100 On ch=10 n=69 v=84
100104 On ch=10 n=69 v=0
100104 On ch=10 n=42 v=0
100340 On ch=10 n=38 v=127
100340 On ch=10 n=42 v=100
100340 On ch=10 n=37 v=116
100344 On ch=10 n=37 v=0
100344 On ch=10 n=42 v=0
100344 On ch=10 n=38 v=0
100460 On ch=10 n=38 v=68
100460 On ch=10 n=37 v=68
100464 On ch=10 n=37 v=0
100464 On ch=10 n=38 v=0
100580 On ch=10 n=38 v=52
100580 On ch=10 n=42 v=100
100580 On ch=10 n=37 v=52
100580 On ch=10 n=69 v=84
100584 On ch=10 n=69 v=0
100584 On ch=10 n=38 v=0
100584 On ch=10 n=42 v=0
100584 On ch=10 n=37 v=0
100820 On ch=10 n=36 v=116
100820 On ch=10 n=42 v=100
100824 On ch=10 n=42 v=0
100824 On ch=10 n=36 v=0
101060 On ch=10 n=42 v=100
101060 On ch=10 n=69 v=84
101064 On ch=10 n=69 v=0
101064 On ch=10 n=42 v=0
101300 On ch=10 n=38 v=127
101300 On ch=10 n=42 v=100
101300 On ch=10 n=37 v=116
101304 On ch=10 n=37 v=0
101304 On ch=10 n=42 v=0
101304 On ch=10 n=38 v=0
101420 On ch=10 n=38 v=68
101420 On ch=10 n=37 v=68
101424 On ch=10 n=37 v=0
101424 On ch=10 n=38 v=0
101540 On ch=10 n=38 v=52
101540 On ch=10 n=42 v=100
101540 On ch=10 n=37 v=52
101540 On ch=10 n=69 v=84
101544 On ch=10 n=69 v=0
101544 On ch=10 n=38 v=0
101544 On ch=10 n=42 v=0
101544 On ch=10 n=37 v=0
101780 On ch=10 n=36 v=116
101780 On ch=10 n=42 v=100
101784 On ch=10 n=42 v=0
101784 On ch=10 n=36 v=0
101900 On ch=10 n=42 v=100
101904 On ch=10 n=42 v=0
102020 On ch=10 n=42 v=100
102024 On ch=10 n=42 v=0
102140 On ch=10 n=69 v=84
102144 On ch=10 n=69 v=0
102260 On ch=10 n=38 v=127
102260 On ch=10 n=42 v=100
102260 On ch=10 n=37 v=116
102260 On ch=10 n=69 v=127
102264 On ch=10 n=69 v=0
102264 On ch=10 n=38 v=0
102264 On ch=10 n=42 v=0
102264 On ch=10 n=37 v=0
102380 On ch=10 n=38 v=68
102380 On ch=10 n=37 v=68
102380 On ch=10 n=69 v=84
102384 On ch=10 n=69 v=0
102384 On ch=10 n=37 v=0
102384 On ch=10 n=38 v=0
102500 On ch=10 n=38 v=52
102500 On ch=10 n=42 v=100
102500 On ch=10 n=37 v=52
102504 On ch=10 n=37 v=0
102504 On ch=10 n=42 v=0
102504 On ch=10 n=38 v=0
102620 On ch=10 n=69 v=100
102624 On ch=10 n=69 v=0
102740 On ch=10 n=36 v=116
102740 On ch=10 n=42 v=100
102744 On ch=10 n=42 v=0
102744 On ch=10 n=36 v=0
102860 On ch=10 n=69 v=100
102864 On ch=10 n=69 v=0
102980 On ch=10 n=42 v=100
102984 On ch=10 n=42 v=0
103100 On ch=10 n=69 v=84
103104 On ch=10 n=69 v=0
103220 On ch=10 n=38 v=127
103220 On ch=10 n=42 v=100
103220 On ch=10 n=37 v=116
103220 On ch=10 n=69 v=127
103224 On ch=10 n=69 v=0
103224 On ch=10 n=38 v=0
103224 On ch=10 n=42 v=0
103224 On ch=10 n=37 v=0
103340 On ch=10 n=38 v=68
103340 On ch=10 n=37 v=68
103340 On ch=10 n=69 v=84
103344 On ch=10 n=69 v=0
103344 On ch=10 n=37 v=0
103344 On ch=10 n=38 v=0
103460 On ch=10 n=38 v=52
103460 On ch=10 n=42 v=100
103460 On ch=10 n=37 v=52
103464 On ch=10 n=37 v=0
103464 On ch=10 n=42 v=0
103464 On ch=10 n=38 v=0
103700 On ch=10 n=36 v=116
103700 On ch=10 n=42 v=100
103704 On ch=10 n=42 v=0
103704 On ch=10 n=36 v=0
103820 On ch=10 n=42 v=100
103824 On ch=10 n=42 v=0
103940 On ch=10 n=42 v=100
103944 On ch=10 n=42 v=0
104060 On ch=10 n=69 v=84
104064 On ch=10 n=69 v=0
104180 On ch=10 n=38 v=127
104180 On ch=10 n=42 v=100
104180 On ch=10 n=37 v=116
104180 On ch=10 n=69 v=127
104184 On ch=10 n=69 v=0
104184 On ch=10 n=38 v=0
104184 On ch=10 n=42 v=0
104184 On ch=10 n=37 v=0
104300 On ch=10 n=38 v=68
104300 On ch=10 n=37 v=68
104300 On ch=10 n=69 v=84
104304 On ch=10 n=69 v=0
104304 On ch=10 n=37 v=0
104304 On ch=10 n=38 v=0
104420 On ch=10 n=38 v=52
104420 On ch=10 n=42 v=100
104420 On ch=10 n=37 v=52
104424 On ch=10 n=37 v=0
104424 On ch=10 n=42 v=0
104424 On ch=10 n=38 v=0
104540 On ch=10 n=69 v=100
104544 On ch=10 n=69 v=0
104660 On ch=10 n=36 v=116
104660 On ch=10 n=42 v=100
104660 On ch=10 n=46 v=127
104664 On ch=10 n=46 v=0
104664 On ch=10 n=42 v=0
104664 On ch=10 n=36 v=0
104780 On ch=10 n=69 v=100
104784 On ch=10 n=69 v=0
104900 On ch=10 n=42 v=100
104904 On ch=10 n=42 v=0
105020 On ch=10 n=65 v=127
105020 On ch=10 n=69 v=84
105024 On ch=10 n=69 v=0
105024 On ch=10 n=65 v=0
105140 On ch=10 n=42 v=100
105140 On ch=10 n=65 v=127
105140 On ch=10 n=69 v=127
105144 On ch=10 n=69 v=0
105144 On ch=10 n=65 v=0
105144 On ch=10 n=42 v=0
105260 On ch=10 n=69 v=84
105264 On ch=10 n=69 v=0
105380 On ch=10 n=36 v=116
105380 On ch=10 n=42 v=100
105380 On ch=10 n=41 v=100
105384 On ch=10 n=41 v=0
105384 On ch=10 n=42 v=0
105384 On ch=10 n=36 v=0
105620 On ch=10 n=36 v=116
105624 On ch=10 n=36 v=0
105860 On ch=10 n=42 v=100
105860 On ch=10 n=69 v=84
105864 On ch=10 n=69 v=0
105864 On ch=10 n=42 v=0
106100 On ch=10 n=38 v=127
106100 On ch=10 n=42 v=100
106100 On ch=10 n=37 v=116
106104 On ch=10 n=37 v=0
106104 On ch=10 n=42 v=0
106104 On ch=10 n=38 v=0
106220 On ch=10 n=38 v=68
106220 On ch=10 n=37 v=68
106224 On ch=10 n=37 v=0
106224 On ch=10 n=38 v=0
106340 On ch=10 n=38 v=52
106340 On ch=10 n=42 v=100
106340 On ch=10 n=37 v=52
106344 On ch=10 n=37 v=0
106344 On ch=10 n=42 v=0
106344 On ch=10 n=38 v=0
106344 On ch=10 n=69 v=84
106348 On ch=10 n=69 v=0
106580 On ch=10 n=36 v=116
106580 On ch=10 n=42 v=100
106584 On ch=10 n=42 v=0
106584 On ch=10 n=36 v=0
106700 On ch=10 n=42 v=68
106704 On ch=10 n=42 v=0
106820 On ch=10 n=42 v=100
106820 On ch=10 n=69 v=84
106824 On ch=10 n=69 v=0
106824 On ch=10 n=42 v=0
107060 On ch=10 n=38 v=127
107060 On ch=10 n=42 v=100
107060 On ch=10 n=37 v=116
107064 On ch=10 n=37 v=0
107064 On ch=10 n=42 v=0
107064 On ch=10 n=38 v=0
107180 On ch=10 n=38 v=68
107180 On ch=10 n=37 v=68
107184 On ch=10 n=37 v=0
107184 On ch=10 n=38 v=0
107300 On ch=10 n=38 v=52
107300 On ch=10 n=42 v=100
107300 On ch=10 n=37 v=52
107304 On ch=10 n=37 v=0
107304 On ch=10 n=42 v=0
107304 On ch=10 n=38 v=0
107304 On ch=10 n=69 v=84
107308 On ch=10 n=69 v=0
107540 On ch=10 n=36 v=116
107540 On ch=10 n=42 v=100
107544 On ch=10 n=42 v=0
107544 On ch=10 n=36 v=0
107660 On ch=10 n=42 v=100
107664 On ch=10 n=42 v=0
107780 On ch=10 n=42 v=100
107780 On ch=10 n=69 v=84
107784 On ch=10 n=69 v=0
107784 On ch=10 n=42 v=0
108020 On ch=10 n=38 v=127
108020 On ch=10 n=42 v=100
108020 On ch=10 n=37 v=116
108024 On ch=10 n=37 v=0
108024 On ch=10 n=42 v=0
108024 On ch=10 n=38 v=0
108140 On ch=10 n=38 v=68
108140 On ch=10 n=37 v=68
108144 On ch=10 n=37 v=0
108144 On ch=10 n=38 v=0
108260 On ch=10 n=38 v=52
108260 On ch=10 n=42 v=100
108260 On ch=10 n=37 v=52
108264 On ch=10 n=37 v=0
108264 On ch=10 n=42 v=0
108264 On ch=10 n=38 v=0
108264 On ch=10 n=69 v=84
108268 On ch=10 n=69 v=0
108500 On ch=10 n=36 v=116
108500 On ch=10 n=42 v=100
108504 On ch=10 n=42 v=0
108504 On ch=10 n=36 v=0
108740 On ch=10 n=42 v=100
108740 On ch=10 n=69 v=84
108744 On ch=10 n=69 v=0
108744 On ch=10 n=42 v=0
108980 On ch=10 n=38 v=127
108980 On ch=10 n=42 v=100
108980 On ch=10 n=37 v=116
108984 On ch=10 n=37 v=0
108984 On ch=10 n=42 v=0
108984 On ch=10 n=38 v=0
109100 On ch=10 n=38 v=68
109100 On ch=10 n=37 v=68
109104 On ch=10 n=37 v=0
109104 On ch=10 n=38 v=0
109220 On ch=10 n=38 v=52
109220 On ch=10 n=42 v=100
109220 On ch=10 n=37 v=52
109224 On ch=10 n=37 v=0
109224 On ch=10 n=42 v=0
109224 On ch=10 n=38 v=0
109224 On ch=10 n=69 v=84
109228 On ch=10 n=69 v=0
109460 On ch=10 n=36 v=116
109464 On ch=10 n=36 v=0
109700 On ch=10 n=42 v=100
109700 On ch=10 n=69 v=84
109704 On ch=10 n=69 v=0
109704 On ch=10 n=42 v=0
109940 On ch=10 n=38 v=127
109940 On ch=10 n=42 v=100
109940 On ch=10 n=37 v=116
109944 On ch=10 n=37 v=0
109944 On ch=10 n=42 v=0
109944 On ch=10 n=38 v=0
110060 On ch=10 n=38 v=68
110060 On ch=10 n=37 v=68
110064 On ch=10 n=37 v=0
110064 On ch=10 n=38 v=0
110180 On ch=10 n=38 v=52
110180 On ch=10 n=42 v=100
110180 On ch=10 n=37 v=52
110180 On ch=10 n=69 v=84
110184 On ch=10 n=69 v=0
110184 On ch=10 n=38 v=0
110184 On ch=10 n=42 v=0
110184 On ch=10 n=37 v=0
110420 On ch=10 n=36 v=116
110420 On ch=10 n=42 v=100
110424 On ch=10 n=42 v=0
110424 On ch=10 n=36 v=0
110540 On ch=10 n=42 v=68
110544 On ch=10 n=42 v=0
110660 On ch=10 n=42 v=100
110660 On ch=10 n=69 v=84
110664 On ch=10 n=69 v=0
110664 On ch=10 n=42 v=0
110900 On ch=10 n=38 v=127
110900 On ch=10 n=42 v=100
110900 On ch=10 n=37 v=116
110904 On ch=10 n=37 v=0
110904 On ch=10 n=42 v=0
110904 On ch=10 n=38 v=0
111020 On ch=10 n=38 v=68
111020 On ch=10 n=37 v=68
111024 On ch=10 n=37 v=0
111024 On ch=10 n=38 v=0
111140 On ch=10 n=38 v=52
111140 On ch=10 n=42 v=100
111140 On ch=10 n=37 v=52
111140 On ch=10 n=69 v=84
111144 On ch=10 n=69 v=0
111144 On ch=10 n=38 v=0
111144 On ch=10 n=42 v=0
111144 On ch=10 n=37 v=0
111380 On ch=10 n=36 v=116
111380 On ch=10 n=42 v=100
111384 On ch=10 n=42 v=0
111384 On ch=10 n=36 v=0
111500 On ch=10 n=42 v=100
111504 On ch=10 n=42 v=0
111620 On ch=10 n=42 v=100
111620 On ch=10 n=69 v=84
111624 On ch=10 n=69 v=0
111624 On ch=10 n=42 v=0
111860 On ch=10 n=38 v=127
111860 On ch=10 n=42 v=100
111860 On ch=10 n=37 v=116
111864 On ch=10 n=37 v=0
111864 On ch=10 n=42 v=0
111864 On ch=10 n=38 v=0
111980 On ch=10 n=38 v=68
111980 On ch=10 n=37 v=68
111984 On ch=10 n=37 v=0
111984 On ch=10 n=38 v=0
112100 On ch=10 n=38 v=52
112100 On ch=10 n=42 v=100
112100 On ch=10 n=37 v=52
112104 On ch=10 n=37 v=0
112104 On ch=10 n=42 v=0
112104 On ch=10 n=38 v=0
112104 On ch=10 n=69 v=84
112108 On ch=10 n=69 v=0
112340 On ch=10 n=36 v=116
112340 On ch=10 n=42 v=100
112344 On ch=10 n=42 v=0
112344 On ch=10 n=36 v=0
112580 On ch=10 n=42 v=100
112580 On ch=10 n=69 v=84
112584 On ch=10 n=69 v=0
112584 On ch=10 n=42 v=0
112820 On ch=10 n=38 v=127
112820 On ch=10 n=42 v=100
112820 On ch=10 n=37 v=116
112824 On ch=10 n=37 v=0
112824 On ch=10 n=42 v=0
112824 On ch=10 n=38 v=0
112940 On ch=10 n=38 v=68
112940 On ch=10 n=37 v=68
112944 On ch=10 n=37 v=0
112944 On ch=10 n=38 v=0
113060 On ch=10 n=38 v=52
113060 On ch=10 n=42 v=100
113060 On ch=10 n=37 v=52
113060 On ch=10 n=69 v=84
113064 On ch=10 n=69 v=0
113064 On ch=10 n=38 v=0
113064 On ch=10 n=42 v=0
113064 On ch=10 n=37 v=0
113300 On ch=10 n=36 v=116
113304 On ch=10 n=36 v=0
113540 On ch=10 n=42 v=100
113540 On ch=10 n=69 v=84
113544 On ch=10 n=69 v=0
113544 On ch=10 n=42 v=0
113780 On ch=10 n=38 v=127
113780 On ch=10 n=42 v=100
113780 On ch=10 n=37 v=116
113784 On ch=10 n=37 v=0
113784 On ch=10 n=42 v=0
113784 On ch=10 n=38 v=0
113900 On ch=10 n=38 v=68
113900 On ch=10 n=37 v=68
113904 On ch=10 n=37 v=0
113904 On ch=10 n=38 v=0
114020 On ch=10 n=38 v=52
114020 On ch=10 n=42 v=100
114020 On ch=10 n=37 v=52
114020 On ch=10 n=69 v=84
114024 On ch=10 n=69 v=0
114024 On ch=10 n=38 v=0
114024 On ch=10 n=42 v=0
114024 On ch=10 n=37 v=0
114260 On ch=10 n=36 v=116
114260 On ch=10 n=42 v=100
114264 On ch=10 n=42 v=0
114264 On ch=10 n=36 v=0
114380 On ch=10 n=42 v=68
114384 On ch=10 n=42 v=0
114500 On ch=10 n=42 v=100
114500 On ch=10 n=69 v=84
114504 On ch=10 n=69 v=0
114504 On ch=10 n=42 v=0
114740 On ch=10 n=38 v=127
114740 On ch=10 n=42 v=100
114740 On ch=10 n=37 v=116
114744 On ch=10 n=37 v=0
114744 On ch=10 n=42 v=0
114744 On ch=10 n=38 v=0
114860 On ch=10 n=38 v=68
114860 On ch=10 n=37 v=68
114864 On ch=10 n=37 v=0
114864 On ch=10 n=38 v=0
114980 On ch=10 n=38 v=52
114980 On ch=10 n=42 v=100
114980 On ch=10 n=37 v=52
114980 On ch=10 n=69 v=84
114984 On ch=10 n=69 v=0
114984 On ch=10 n=38 v=0
114984 On ch=10 n=42 v=0
114984 On ch=10 n=37 v=0
115220 On ch=10 n=36 v=116
115220 On ch=10 n=42 v=100
115224 On ch=10 n=42 v=0
115224 On ch=10 n=36 v=0
115340 On ch=10 n=42 v=100
115344 On ch=10 n=42 v=0
115460 On ch=10 n=42 v=100
115460 On ch=10 n=69 v=84
115464 On ch=10 n=69 v=0
115464 On ch=10 n=42 v=0
115700 On ch=10 n=38 v=127
115700 On ch=10 n=42 v=100
115700 On ch=10 n=37 v=116
115704 On ch=10 n=37 v=0
115704 On ch=10 n=42 v=0
115704 On ch=10 n=38 v=0
115820 On ch=10 n=38 v=68
115820 On ch=10 n=37 v=68
115824 On ch=10 n=37 v=0
115824 On ch=10 n=38 v=0
115940 On ch=10 n=38 v=52
115940 On ch=10 n=42 v=100
115940 On ch=10 n=37 v=52
115944 On ch=10 n=37 v=0
115944 On ch=10 n=42 v=0
115944 On ch=10 n=38 v=0
115944 On ch=10 n=69 v=84
115948 On ch=10 n=69 v=0
116180 On ch=10 n=36 v=116
116180 On ch=10 n=42 v=100
116184 On ch=10 n=42 v=0
116184 On ch=10 n=36 v=0
116420 On ch=10 n=42 v=100
116420 On ch=10 n=69 v=84
116424 On ch=10 n=69 v=0
116424 On ch=10 n=42 v=0
116660 On ch=10 n=38 v=127
116660 On ch=10 n=42 v=100
116660 On ch=10 n=37 v=116
116664 On ch=10 n=37 v=0
116664 On ch=10 n=42 v=0
116664 On ch=10 n=38 v=0
116780 On ch=10 n=38 v=68
116780 On ch=10 n=37 v=68
116784 On ch=10 n=37 v=0
116784 On ch=10 n=38 v=0
116900 On ch=10 n=38 v=52
116900 On ch=10 n=42 v=100
116900 On ch=10 n=37 v=52
116904 On ch=10 n=37 v=0
116904 On ch=10 n=42 v=0
116904 On ch=10 n=38 v=0
116904 On ch=10 n=69 v=84
116908 On ch=10 n=69 v=0
117140 On ch=10 n=36 v=116
117140 On ch=10 n=42 v=100
117144 On ch=10 n=42 v=0
117144 On ch=10 n=36 v=0
117260 On ch=10 n=42 v=100
117264 On ch=10 n=42 v=0
117380 On ch=10 n=42 v=100
117384 On ch=10 n=42 v=0
117500 On ch=10 n=69 v=84
117504 On ch=10 n=69 v=0
117620 On ch=10 n=38 v=127
117620 On ch=10 n=42 v=100
117620 On ch=10 n=37 v=116
117620 On ch=10 n=69 v=127
117624 On ch=10 n=69 v=0
117624 On ch=10 n=38 v=0
117624 On ch=10 n=42 v=0
117624 On ch=10 n=37 v=0
117740 On ch=10 n=38 v=68
117740 On ch=10 n=37 v=68
117740 On ch=10 n=69 v=84
117744 On ch=10 n=69 v=0
117744 On ch=10 n=37 v=0
117744 On ch=10 n=38 v=0
117860 On ch=10 n=38 v=52
117860 On ch=10 n=42 v=100
117860 On ch=10 n=37 v=52
117864 On ch=10 n=37 v=0
117864 On ch=10 n=42 v=0
117864 On ch=10 n=38 v=0
117980 On ch=10 n=69 v=100
117984 On ch=10 n=69 v=0
118100 On ch=10 n=36 v=116
118100 On ch=10 n=42 v=100
118104 On ch=10 n=42 v=0
118104 On ch=10 n=36 v=0
118220 On ch=10 n=69 v=100
118224 On ch=10 n=69 v=0
118340 On ch=10 n=42 v=100
118344 On ch=10 n=42 v=0
118460 On ch=10 n=69 v=84
118464 On ch=10 n=69 v=0
118580 On ch=10 n=38 v=127
118580 On ch=10 n=42 v=100
118580 On ch=10 n=37 v=116
118580 On ch=10 n=69 v=127
118584 On ch=10 n=69 v=0
118584 On ch=10 n=38 v=0
118584 On ch=10 n=42 v=0
118584 On ch=10 n=37 v=0
118700 On ch=10 n=38 v=68
118700 On ch=10 n=37 v=68
118700 On ch=10 n=69 v=84
118704 On ch=10 n=69 v=0
118704 On ch=10 n=37 v=0
118704 On ch=10 n=38 v=0
118820 On ch=10 n=38 v=52
118820 On ch=10 n=42 v=100
118820 On ch=10 n=37 v=52
118824 On ch=10 n=37 v=0
118824 On ch=10 n=42 v=0
118824 On ch=10 n=38 v=0
119060 On ch=10 n=36 v=116
119060 On ch=10 n=42 v=100
119064 On ch=10 n=42 v=0
119064 On ch=10 n=36 v=0
119180 On ch=10 n=42 v=100
119184 On ch=10 n=42 v=0
119300 On ch=10 n=42 v=100
119304 On ch=10 n=42 v=0
119420 On ch=10 n=69 v=84
119424 On ch=10 n=69 v=0
119540 On ch=10 n=38 v=127
119540 On ch=10 n=42 v=100
119540 On ch=10 n=37 v=116
119540 On ch=10 n=69 v=127
119544 On ch=10 n=69 v=0
119544 On ch=10 n=38 v=0
119544 On ch=10 n=42 v=0
119544 On ch=10 n=37 v=0
119660 On ch=10 n=38 v=68
119660 On ch=10 n=37 v=68
119660 On ch=10 n=69 v=84
119664 On ch=10 n=69 v=0
119664 On ch=10 n=37 v=0
119664 On ch=10 n=38 v=0
119780 On ch=10 n=38 v=52
119780 On ch=10 n=42 v=100
119780 On ch=10 n=37 v=52
119784 On ch=10 n=37 v=0
119784 On ch=10 n=42 v=0
119784 On ch=10 n=38 v=0
119900 On ch=10 n=69 v=100
119904 On ch=10 n=69 v=0
120020 On ch=10 n=36 v=116
120020 On ch=10 n=42 v=100
120024 On ch=10 n=42 v=0
120024 On ch=10 n=36 v=0
120140 On ch=10 n=69 v=100
120144 On ch=10 n=69 v=0
120260 On ch=10 n=42 v=100
120264 On ch=10 n=42 v=0
120380 On ch=10 n=36 v=116
120380 On ch=10 n=69 v=84
120384 On ch=10 n=69 v=0
120384 On ch=10 n=36 v=0
120500 On ch=10 n=38 v=127
120500 On ch=10 n=42 v=100
120500 On ch=10 n=37 v=116
120500 On ch=10 n=69 v=127
120504 On ch=10 n=69 v=0
120504 On ch=10 n=38 v=0
120504 On ch=10 n=42 v=0
120504 On ch=10 n=37 v=0
120620 On ch=10 n=38 v=68
120620 On ch=10 n=37 v=68
120620 On ch=10 n=69 v=84
120624 On ch=10 n=69 v=0
120624 On ch=10 n=37 v=0
120624 On ch=10 n=38 v=0
120740 On ch=10 n=38 v=52
120740 On ch=10 n=42 v=100
120740 On ch=10 n=37 v=52
120744 On ch=10 n=37 v=0
120744 On ch=10 n=42 v=0
120744 On ch=10 n=38 v=0
120980 On ch=10 n=36 v=116
120984 On ch=10 n=36 v=0
121220 On ch=10 n=42 v=100
121220 On ch=10 n=69 v=84
121224 On ch=10 n=69 v=0
121224 On ch=10 n=42 v=0
121460 On ch=10 n=38 v=127
121460 On ch=10 n=42 v=100
121460 On ch=10 n=37 v=116
121464 On ch=10 n=37 v=0
121464 On ch=10 n=42 v=0
121464 On ch=10 n=38 v=0
121580 On ch=10 n=38 v=68
121580 On ch=10 n=37 v=68
121584 On ch=10 n=37 v=0
121584 On ch=10 n=38 v=0
121700 On ch=10 n=38 v=52
121700 On ch=10 n=42 v=100
121700 On ch=10 n=37 v=52
121704 On ch=10 n=37 v=0
121704 On ch=10 n=42 v=0
121704 On ch=10 n=38 v=0
121704 On ch=10 n=69 v=84
121708 On ch=10 n=69 v=0
121940 On ch=10 n=36 v=116
121940 On ch=10 n=42 v=100
121944 On ch=10 n=42 v=0
121944 On ch=10 n=36 v=0
122060 On ch=10 n=42 v=68
122064 On ch=10 n=42 v=0
122180 On ch=10 n=42 v=100
122180 On ch=10 n=69 v=84
122184 On ch=10 n=69 v=0
122184 On ch=10 n=42 v=0
122420 On ch=10 n=38 v=127
122420 On ch=10 n=42 v=100
122420 On ch=10 n=37 v=116
122424 On ch=10 n=37 v=0
122424 On ch=10 n=42 v=0
122424 On ch=10 n=38 v=0
122540 On ch=10 n=38 v=68
122540 On ch=10 n=37 v=68
122544 On ch=10 n=37 v=0
122544 On ch=10 n=38 v=0
122660 On ch=10 n=38 v=52
122660 On ch=10 n=42 v=100
122660 On ch=10 n=37 v=52
122664 On ch=10 n=37 v=0
122664 On ch=10 n=42 v=0
122664 On ch=10 n=38 v=0
122664 On ch=10 n=69 v=84
122668 On ch=10 n=69 v=0
122900 On ch=10 n=36 v=116
122900 On ch=10 n=42 v=100
122904 On ch=10 n=42 v=0
122904 On ch=10 n=36 v=0
123020 On ch=10 n=42 v=100
123024 On ch=10 n=42 v=0
123140 On ch=10 n=42 v=100
123140 On ch=10 n=69 v=84
123144 On ch=10 n=69 v=0
123144 On ch=10 n=42 v=0
123380 On ch=10 n=38 v=127
123380 On ch=10 n=42 v=100
123380 On ch=10 n=37 v=116
123384 On ch=10 n=37 v=0
123384 On ch=10 n=42 v=0
123384 On ch=10 n=38 v=0
123500 On ch=10 n=38 v=68
123500 On ch=10 n=37 v=68
123504 On ch=10 n=37 v=0
123504 On ch=10 n=38 v=0
123620 On ch=10 n=38 v=52
123620 On ch=10 n=42 v=100
123620 On ch=10 n=37 v=52
123620 On ch=10 n=69 v=84
123624 On ch=10 n=69 v=0
123624 On ch=10 n=38 v=0
123624 On ch=10 n=42 v=0
123624 On ch=10 n=37 v=0
123860 On ch=10 n=36 v=116
123860 On ch=10 n=42 v=100
123864 On ch=10 n=42 v=0
123864 On ch=10 n=36 v=0
124100 On ch=10 n=42 v=100
124100 On ch=10 n=69 v=84
124104 On ch=10 n=69 v=0
124104 On ch=10 n=42 v=0
124340 On ch=10 n=38 v=127
124340 On ch=10 n=42 v=100
124340 On ch=10 n=37 v=116
124344 On ch=10 n=37 v=0
124344 On ch=10 n=42 v=0
124344 On ch=10 n=38 v=0
124460 On ch=10 n=38 v=68
124460 On ch=10 n=37 v=68
124464 On ch=10 n=37 v=0
124464 On ch=10 n=38 v=0
124580 On ch=10 n=38 v=52
124580 On ch=10 n=42 v=100
124580 On ch=10 n=37 v=52
124584 On ch=10 n=37 v=0
124584 On ch=10 n=42 v=0
124584 On ch=10 n=38 v=0
124584 On ch=10 n=69 v=84
124588 On ch=10 n=69 v=0
124820 On ch=10 n=36 v=116
124824 On ch=10 n=36 v=0
125060 On ch=10 n=42 v=100
125060 On ch=10 n=69 v=84
125064 On ch=10 n=69 v=0
125064 On ch=10 n=42 v=0
125300 On ch=10 n=38 v=127
125300 On ch=10 n=42 v=100
125300 On ch=10 n=37 v=116
125304 On ch=10 n=37 v=0
125304 On ch=10 n=42 v=0
125304 On ch=10 n=38 v=0
125420 On ch=10 n=38 v=68
125420 On ch=10 n=37 v=68
125424 On ch=10 n=37 v=0
125424 On ch=10 n=38 v=0
125540 On ch=10 n=38 v=52
125540 On ch=10 n=42 v=100
125540 On ch=10 n=37 v=52
125540 On ch=10 n=69 v=84
125544 On ch=10 n=69 v=0
125544 On ch=10 n=38 v=0
125544 On ch=10 n=42 v=0
125544 On ch=10 n=37 v=0
125780 On ch=10 n=36 v=116
125780 On ch=10 n=42 v=100
125784 On ch=10 n=42 v=0
125784 On ch=10 n=36 v=0
125900 On ch=10 n=42 v=68
125904 On ch=10 n=42 v=0
126020 On ch=10 n=42 v=100
126020 On ch=10 n=69 v=84
126024 On ch=10 n=69 v=0
126024 On ch=10 n=42 v=0
126260 On ch=10 n=38 v=127
126260 On ch=10 n=42 v=100
126260 On ch=10 n=37 v=116
126264 On ch=10 n=37 v=0
126264 On ch=10 n=42 v=0
126264 On ch=10 n=38 v=0
126380 On ch=10 n=38 v=68
126380 On ch=10 n=37 v=68
126384 On ch=10 n=37 v=0
126384 On ch=10 n=38 v=0
126500 On ch=10 n=38 v=52
126500 On ch=10 n=42 v=100
126500 On ch=10 n=37 v=52
126500 On ch=10 n=69 v=84
126504 On ch=10 n=69 v=0
126504 On ch=10 n=38 v=0
126504 On ch=10 n=42 v=0
126504 On ch=10 n=37 v=0
126740 On ch=10 n=36 v=116
126740 On ch=10 n=42 v=100
126744 On ch=10 n=42 v=0
126744 On ch=10 n=36 v=0
126860 On ch=10 n=42 v=100
126864 On ch=10 n=42 v=0
126980 On ch=10 n=42 v=100
126980 On ch=10 n=69 v=84
126984 On ch=10 n=69 v=0
126984 On ch=10 n=42 v=0
127220 On ch=10 n=38 v=127
127220 On ch=10 n=42 v=100
127220 On ch=10 n=37 v=116
127224 On ch=10 n=37 v=0
127224 On ch=10 n=42 v=0
127224 On ch=10 n=38 v=0
127340 On ch=10 n=38 v=68
127340 On ch=10 n=37 v=68
127344 On ch=10 n=37 v=0
127344 On ch=10 n=38 v=0
127460 On ch=10 n=38 v=52
127460 On ch=10 n=42 v=100
127460 On ch=10 n=37 v=52
127460 On ch=10 n=69 v=84
127464 On ch=10 n=69 v=0
127464 On ch=10 n=38 v=0
127464 On ch=10 n=42 v=0
127464 On ch=10 n=37 v=0
127700 On ch=10 n=36 v=116
127700 On ch=10 n=42 v=100
127704 On ch=10 n=42 v=0
127704 On ch=10 n=36 v=0
127940 On ch=10 n=42 v=100
127940 On ch=10 n=69 v=84
127944 On ch=10 n=69 v=0
127944 On ch=10 n=42 v=0
128180 On ch=10 n=38 v=127
128180 On ch=10 n=42 v=100
128180 On ch=10 n=37 v=116
128184 On ch=10 n=37 v=0
128184 On ch=10 n=42 v=0
128184 On ch=10 n=38 v=0
128300 On ch=10 n=38 v=68
128300 On ch=10 n=37 v=68
128304 On ch=10 n=37 v=0
128304 On ch=10 n=38 v=0
128420 On ch=10 n=38 v=52
128420 On ch=10 n=42 v=100
128420 On ch=10 n=37 v=52
128420 On ch=10 n=69 v=84
128424 On ch=10 n=69 v=0
128424 On ch=10 n=38 v=0
128424 On ch=10 n=42 v=0
128424 On ch=10 n=37 v=0
128660 On ch=10 n=36 v=116
128664 On ch=10 n=36 v=0
128900 On ch=10 n=42 v=100
128900 On ch=10 n=69 v=84
128904 On ch=10 n=69 v=0
128904 On ch=10 n=42 v=0
129140 On ch=10 n=38 v=127
129140 On ch=10 n=42 v=100
129140 On ch=10 n=37 v=116
129144 On ch=10 n=37 v=0
129144 On ch=10 n=42 v=0
129144 On ch=10 n=38 v=0
129260 On ch=10 n=38 v=68
129260 On ch=10 n=37 v=68
129264 On ch=10 n=37 v=0
129264 On ch=10 n=38 v=0
129380 On ch=10 n=38 v=52
129380 On ch=10 n=42 v=100
129380 On ch=10 n=37 v=52
129384 On ch=10 n=37 v=0
129384 On ch=10 n=42 v=0
129384 On ch=10 n=38 v=0
129384 On ch=10 n=69 v=84
129388 On ch=10 n=69 v=0
129620 On ch=10 n=36 v=116
129620 On ch=10 n=42 v=100
129624 On ch=10 n=42 v=0
129624 On ch=10 n=36 v=0
129740 On ch=10 n=42 v=68
129744 On ch=10 n=42 v=0
129860 On ch=10 n=42 v=100
129860 On ch=10 n=69 v=84
129864 On ch=10 n=69 v=0
129864 On ch=10 n=42 v=0
130100 On ch=10 n=38 v=127
130100 On ch=10 n=42 v=100
130100 On ch=10 n=37 v=116
130104 On ch=10 n=37 v=0
130104 On ch=10 n=42 v=0
130104 On ch=10 n=38 v=0
130220 On ch=10 n=38 v=68
130220 On ch=10 n=37 v=68
130224 On ch=10 n=37 v=0
130224 On ch=10 n=38 v=0
130340 On ch=10 n=38 v=52
130340 On ch=10 n=42 v=100
130340 On ch=10 n=37 v=52
130344 On ch=10 n=37 v=0
130344 On ch=10 n=42 v=0
130344 On ch=10 n=38 v=0
130344 On ch=10 n=69 v=84
130348 On ch=10 n=69 v=0
130580 On ch=10 n=36 v=116
130580 On ch=10 n=42 v=100
130584 On ch=10 n=42 v=0
130584 On ch=10 n=36 v=0
130700 On ch=10 n=42 v=100
130704 On ch=10 n=42 v=0
130820 On ch=10 n=42 v=100
130820 On ch=10 n=69 v=84
130824 On ch=10 n=69 v=0
130824 On ch=10 n=42 v=0
131060 On ch=10 n=38 v=127
131060 On ch=10 n=42 v=100
131060 On ch=10 n=37 v=116
131064 On ch=10 n=37 v=0
131064 On ch=10 n=42 v=0
131064 On ch=10 n=38 v=0
131180 On ch=10 n=38 v=68
131180 On ch=10 n=37 v=68
131184 On ch=10 n=37 v=0
131184 On ch=10 n=38 v=0
131300 On ch=10 n=38 v=52
131300 On ch=10 n=42 v=100
131300 On ch=10 n=37 v=52
131304 On ch=10 n=37 v=0
131304 On ch=10 n=42 v=0
131304 On ch=10 n=38 v=0
131304 On ch=10 n=69 v=84
131308 On ch=10 n=69 v=0
131540 On ch=10 n=36 v=116
131540 On ch=10 n=42 v=100
131544 On ch=10 n=42 v=0
131544 On ch=10 n=36 v=0
131780 On ch=10 n=42 v=100
131780 On ch=10 n=69 v=84
131784 On ch=10 n=69 v=0
131784 On ch=10 n=42 v=0
132020 On ch=10 n=38 v=127
132020 On ch=10 n=42 v=100
132020 On ch=10 n=37 v=116
132024 On ch=10 n=37 v=0
132024 On ch=10 n=42 v=0
132024 On ch=10 n=38 v=0
132140 On ch=10 n=38 v=68
132140 On ch=10 n=37 v=68
132144 On ch=10 n=37 v=0
132144 On ch=10 n=38 v=0
132260 On ch=10 n=38 v=52
132260 On ch=10 n=42 v=100
132260 On ch=10 n=37 v=52
132264 On ch=10 n=37 v=0
132264 On ch=10 n=42 v=0
132264 On ch=10 n=38 v=0
132264 On ch=10 n=69 v=84
132268 On ch=10 n=69 v=0
132500 On ch=10 n=36 v=116
132500 On ch=10 n=42 v=100
132504 On ch=10 n=42 v=0
132504 On ch=10 n=36 v=0
132620 On ch=10 n=42 v=100
132624 On ch=10 n=42 v=0
132740 On ch=10 n=42 v=100
132744 On ch=10 n=42 v=0
132860 On ch=10 n=69 v=84
132864 On ch=10 n=69 v=0
132980 On ch=10 n=38 v=127
132980 On ch=10 n=42 v=100
132980 On ch=10 n=37 v=116
132980 On ch=10 n=69 v=127
132984 On ch=10 n=69 v=0
132984 On ch=10 n=38 v=0
132984 On ch=10 n=42 v=0
132984 On ch=10 n=37 v=0
133100 On ch=10 n=38 v=68
133100 On ch=10 n=37 v=68
133100 On ch=10 n=69 v=84
133104 On ch=10 n=69 v=0
133104 On ch=10 n=37 v=0
133104 On ch=10 n=38 v=0
133220 On ch=10 n=38 v=52
133220 On ch=10 n=42 v=100
133220 On ch=10 n=37 v=52
133224 On ch=10 n=37 v=0
133224 On ch=10 n=42 v=0
133224 On ch=10 n=38 v=0
133340 On ch=10 n=69 v=100
133344 On ch=10 n=69 v=0
133460 On ch=10 n=36 v=116
133460 On ch=10 n=42 v=100
133464 On ch=10 n=42 v=0
133464 On ch=10 n=36 v=0
133580 On ch=10 n=69 v=100
133584 On ch=10 n=69 v=0
133700 On ch=10 n=42 v=100
133704 On ch=10 n=42 v=0
133820 On ch=10 n=69 v=84
133824 On ch=10 n=69 v=0
133940 On ch=10 n=38 v=127
133940 On ch=10 n=42 v=100
133940 On ch=10 n=37 v=116
133940 On ch=10 n=69 v=127
133944 On ch=10 n=69 v=0
133944 On ch=10 n=38 v=0
133944 On ch=10 n=42 v=0
133944 On ch=10 n=37 v=0
134060 On ch=10 n=38 v=68
134060 On ch=10 n=37 v=68
134060 On ch=10 n=69 v=84
134064 On ch=10 n=69 v=0
134064 On ch=10 n=37 v=0
134064 On ch=10 n=38 v=0
134180 On ch=10 n=38 v=52
134180 On ch=10 n=42 v=100
134180 On ch=10 n=37 v=52
134184 On ch=10 n=37 v=0
134184 On ch=10 n=42 v=0
134184 On ch=10 n=38 v=0
134420 On ch=10 n=36 v=116
134420 On ch=10 n=42 v=100
134424 On ch=10 n=42 v=0
134424 On ch=10 n=36 v=0
134540 On ch=10 n=42 v=100
134544 On ch=10 n=42 v=0
134660 On ch=10 n=42 v=100
134664 On ch=10 n=42 v=0
134780 On ch=10 n=69 v=84
134784 On ch=10 n=69 v=0
134900 On ch=10 n=38 v=127
134900 On ch=10 n=42 v=100
134900 On ch=10 n=37 v=116
134900 On ch=10 n=69 v=127
134904 On ch=10 n=69 v=0
134904 On ch=10 n=38 v=0
134904 On ch=10 n=42 v=0
134904 On ch=10 n=37 v=0
135020 On ch=10 n=38 v=68
135020 On ch=10 n=37 v=68
135020 On ch=10 n=69 v=84
135024 On ch=10 n=69 v=0
135024 On ch=10 n=37 v=0
135024 On ch=10 n=38 v=0
135140 On ch=10 n=38 v=52
135140 On ch=10 n=42 v=100
135140 On ch=10 n=37 v=52
135144 On ch=10 n=37 v=0
135144 On ch=10 n=42 v=0
135144 On ch=10 n=38 v=0
135260 On ch=10 n=69 v=100
135264 On ch=10 n=69 v=0
135380 On ch=10 n=36 v=116
135380 On ch=10 n=42 v=100
135384 On ch=10 n=42 v=0
135384 On ch=10 n=36 v=0
135500 On ch=10 n=69 v=100
135504 On ch=10 n=69 v=0
135620 On ch=10 n=42 v=100
135624 On ch=10 n=42 v=0
135740 On ch=10 n=36 v=116
135740 On ch=10 n=69 v=84
135744 On ch=10 n=69 v=0
135744 On ch=10 n=36 v=0
135860 On ch=10 n=38 v=127
135860 On ch=10 n=42 v=100
135860 On ch=10 n=37 v=116
135864 On ch=10 n=37 v=0
135864 On ch=10 n=42 v=0
135864 On ch=10 n=38 v=0
135864 On ch=10 n=69 v=127
135868 On ch=10 n=69 v=0
135980 On ch=10 n=38 v=68
135980 On ch=10 n=37 v=68
135980 On ch=10 n=69 v=84
135984 On ch=10 n=69 v=0
135984 On ch=10 n=37 v=0
135984 On ch=10 n=38 v=0
136100 On ch=10 n=38 v=52
136100 On ch=10 n=42 v=100
136100 On ch=10 n=37 v=52
136104 On ch=10 n=37 v=0
136104 On ch=10 n=42 v=0
136104 On ch=10 n=38 v=0
136340 On ch=10 n=36 v=116
136344 On ch=10 n=36 v=0
136580 On ch=10 n=42 v=100
136580 On ch=10 n=69 v=84
136584 On ch=10 n=69 v=0
136584 On ch=10 n=42 v=0
136820 On ch=10 n=38 v=127
136820 On ch=10 n=42 v=100
136820 On ch=10 n=37 v=116
136824 On ch=10 n=37 v=0
136824 On ch=10 n=42 v=0
136824 On ch=10 n=38 v=0
136940 On ch=10 n=38 v=68
136940 On ch=10 n=37 v=68
136944 On ch=10 n=37 v=0
136944 On ch=10 n=38 v=0
137060 On ch=10 n=38 v=52
137060 On ch=10 n=42 v=100
137060 On ch=10 n=37 v=52
137064 On ch=10 n=37 v=0
137064 On ch=10 n=42 v=0
137064 On ch=10 n=38 v=0
137064 On ch=10 n=69 v=84
137068 On ch=10 n=69 v=0
137300 On ch=10 n=36 v=116
137300 On ch=10 n=42 v=100
137304 On ch=10 n=42 v=0
137304 On ch=10 n=36 v=0
137420 On ch=10 n=42 v=68
137424 On ch=10 n=42 v=0
137540 On ch=10 n=42 v=100
137540 On ch=10 n=69 v=84
137544 On ch=10 n=69 v=0
137544 On ch=10 n=42 v=0
137780 On ch=10 n=38 v=127
137780 On ch=10 n=42 v=100
137780 On ch=10 n=37 v=116
137784 On ch=10 n=37 v=0
137784 On ch=10 n=42 v=0
137784 On ch=10 n=38 v=0
137900 On ch=10 n=38 v=68
137900 On ch=10 n=37 v=68
137904 On ch=10 n=37 v=0
137904 On ch=10 n=38 v=0
138020 On ch=10 n=38 v=52
138020 On ch=10 n=42 v=100
138020 On ch=10 n=37 v=52
138020 On ch=10 n=69 v=84
138024 On ch=10 n=69 v=0
138024 On ch=10 n=38 v=0
138024 On ch=10 n=42 v=0
138024 On ch=10 n=37 v=0
138260 On ch=10 n=36 v=116
138260 On ch=10 n=42 v=100
138264 On ch=10 n=42 v=0
138264 On ch=10 n=36 v=0
138380 On ch=10 n=42 v=100
138384 On ch=10 n=42 v=0
138500 On ch=10 n=42 v=100
138500 On ch=10 n=69 v=84
138504 On ch=10 n=69 v=0
138504 On ch=10 n=42 v=0
138740 On ch=10 n=38 v=127
138740 On ch=10 n=42 v=100
138740 On ch=10 n=37 v=116
138744 On ch=10 n=37 v=0
138744 On ch=10 n=42 v=0
138744 On ch=10 n=38 v=0
138860 On ch=10 n=38 v=68
138860 On ch=10 n=37 v=68
138864 On ch=10 n=37 v=0
138864 On ch=10 n=38 v=0
138980 On ch=10 n=38 v=52
138980 On ch=10 n=42 v=100
138980 On ch=10 n=37 v=52
138980 On ch=10 n=69 v=84
138984 On ch=10 n=69 v=0
138984 On ch=10 n=38 v=0
138984 On ch=10 n=42 v=0
138984 On ch=10 n=37 v=0
139220 On ch=10 n=36 v=116
139220 On ch=10 n=42 v=100
139224 On ch=10 n=42 v=0
139224 On ch=10 n=36 v=0
139460 On ch=10 n=42 v=100
139460 On ch=10 n=69 v=84
139464 On ch=10 n=69 v=0
139464 On ch=10 n=42 v=0
139700 On ch=10 n=38 v=127
139700 On ch=10 n=42 v=100
139700 On ch=10 n=37 v=116
139704 On ch=10 n=37 v=0
139704 On ch=10 n=42 v=0
139704 On ch=10 n=38 v=0
139820 On ch=10 n=38 v=68
139820 On ch=10 n=37 v=68
139824 On ch=10 n=37 v=0
139824 On ch=10 n=38 v=0
139940 On ch=10 n=38 v=52
139940 On ch=10 n=42 v=100
139940 On ch=10 n=37 v=52
139940 On ch=10 n=69 v=84
139944 On ch=10 n=69 v=0
139944 On ch=10 n=38 v=0
139944 On ch=10 n=42 v=0
139944 On ch=10 n=37 v=0
140180 On ch=10 n=36 v=116
140184 On ch=10 n=36 v=0
140420 On ch=10 n=42 v=100
140420 On ch=10 n=69 v=84
140424 On ch=10 n=69 v=0
140424 On ch=10 n=42 v=0
140660 On ch=10 n=38 v=127
140660 On ch=10 n=42 v=100
140660 On ch=10 n=37 v=116
140664 On ch=10 n=37 v=0
140664 On ch=10 n=42 v=0
140664 On ch=10 n=38 v=0
140780 On ch=10 n=38 v=68
140780 On ch=10 n=37 v=68
140784 On ch=10 n=37 v=0
140784 On ch=10 n=38 v=0
140900 On ch=10 n=38 v=52
140900 On ch=10 n=42 v=100
140900 On ch=10 n=37 v=52
140900 On ch=10 n=69 v=84
140904 On ch=10 n=69 v=0
140904 On ch=10 n=38 v=0
140904 On ch=10 n=42 v=0
140904 On ch=10 n=37 v=0
141140 On ch=10 n=36 v=116
141140 On ch=10 n=42 v=100
141144 On ch=10 n=42 v=0
141144 On ch=10 n=36 v=0
141260 On ch=10 n=42 v=68
141264 On ch=10 n=42 v=0
141380 On ch=10 n=42 v=100
141380 On ch=10 n=69 v=84
141384 On ch=10 n=69 v=0
141384 On ch=10 n=42 v=0
141620 On ch=10 n=38 v=127
141620 On ch=10 n=42 v=100
141620 On ch=10 n=37 v=116
141624 On ch=10 n=37 v=0
141624 On ch=10 n=42 v=0
141624 On ch=10 n=38 v=0
141740 On ch=10 n=38 v=68
141740 On ch=10 n=37 v=68
141744 On ch=10 n=37 v=0
141744 On ch=10 n=38 v=0
141860 On ch=10 n=38 v=52
141860 On ch=10 n=42 v=100
141860 On ch=10 n=37 v=52
141860 On ch=10 n=69 v=84
141864 On ch=10 n=69 v=0
141864 On ch=10 n=38 v=0
141864 On ch=10 n=42 v=0
141864 On ch=10 n=37 v=0
142100 On ch=10 n=36 v=116
142100 On ch=10 n=42 v=100
142104 On ch=10 n=42 v=0
142104 On ch=10 n=36 v=0
142220 On ch=10 n=42 v=100
142224 On ch=10 n=42 v=0
142340 On ch=10 n=42 v=100
142340 On ch=10 n=69 v=84
142344 On ch=10 n=69 v=0
142344 On ch=10 n=42 v=0
142580 On ch=10 n=38 v=127
142580 On ch=10 n=42 v=100
142580 On ch=10 n=37 v=116
142584 On ch=10 n=37 v=0
142584 On ch=10 n=42 v=0
142584 On ch=10 n=38 v=0
142700 On ch=10 n=38 v=68
142700 On ch=10 n=37 v=68
142704 On ch=10 n=37 v=0
142704 On ch=10 n=38 v=0
142820 On ch=10 n=38 v=52
142820 On ch=10 n=42 v=100
142820 On ch=10 n=37 v=52
142824 On ch=10 n=37 v=0
142824 On ch=10 n=42 v=0
142824 On ch=10 n=38 v=0
142824 On ch=10 n=69 v=84
142828 On ch=10 n=69 v=0
143060 On ch=10 n=36 v=116
143060 On ch=10 n=42 v=100
143064 On ch=10 n=42 v=0
143064 On ch=10 n=36 v=0
143300 On ch=10 n=42 v=100
143300 On ch=10 n=69 v=84
143304 On ch=10 n=69 v=0
143304 On ch=10 n=42 v=0
143540 On ch=10 n=38 v=127
143540 On ch=10 n=42 v=100
143540 On ch=10 n=37 v=116
143544 On ch=10 n=37 v=0
143544 On ch=10 n=42 v=0
143544 On ch=10 n=38 v=0
143660 On ch=10 n=38 v=68
143660 On ch=10 n=37 v=68
143664 On ch=10 n=37 v=0
143664 On ch=10 n=38 v=0
143780 On ch=10 n=38 v=52
143780 On ch=10 n=42 v=100
143780 On ch=10 n=37 v=52
143784 On ch=10 n=37 v=0
143784 On ch=10 n=42 v=0
143784 On ch=10 n=38 v=0
143784 On ch=10 n=69 v=84
143788 On ch=10 n=69 v=0
144020 On ch=10 n=36 v=116
144024 On ch=10 n=36 v=0
144260 On ch=10 n=42 v=100
144260 On ch=10 n=69 v=84
144264 On ch=10 n=69 v=0
144264 On ch=10 n=42 v=0
144500 On ch=10 n=38 v=127
144500 On ch=10 n=42 v=100
144500 On ch=10 n=37 v=116
144504 On ch=10 n=37 v=0
144504 On ch=10 n=42 v=0
144504 On ch=10 n=38 v=0
144620 On ch=10 n=38 v=68
144620 On ch=10 n=37 v=68
144624 On ch=10 n=37 v=0
144624 On ch=10 n=38 v=0
144740 On ch=10 n=38 v=52
144740 On ch=10 n=42 v=100
144740 On ch=10 n=37 v=52
144744 On ch=10 n=37 v=0
144744 On ch=10 n=42 v=0
144744 On ch=10 n=38 v=0
144744 On ch=10 n=69 v=84
144748 On ch=10 n=69 v=0
144980 On ch=10 n=36 v=116
144980 On ch=10 n=42 v=100
144984 On ch=10 n=42 v=0
144984 On ch=10 n=36 v=0
145100 On ch=10 n=42 v=68
145104 On ch=10 n=42 v=0
145220 On ch=10 n=42 v=100
145220 On ch=10 n=69 v=84
145224 On ch=10 n=69 v=0
145224 On ch=10 n=42 v=0
145460 On ch=10 n=38 v=127
145460 On ch=10 n=42 v=100
145460 On ch=10 n=37 v=116
145464 On ch=10 n=37 v=0
145464 On ch=10 n=42 v=0
145464 On ch=10 n=38 v=0
145580 On ch=10 n=38 v=68
145580 On ch=10 n=37 v=68
145584 On ch=10 n=37 v=0
145584 On ch=10 n=38 v=0
145700 On ch=10 n=38 v=52
145700 On ch=10 n=42 v=100
145700 On ch=10 n=37 v=52
145704 On ch=10 n=37 v=0
145704 On ch=10 n=42 v=0
145704 On ch=10 n=38 v=0
145704 On ch=10 n=69 v=84
145708 On ch=10 n=69 v=0
145940 On ch=10 n=36 v=116
145940 On ch=10 n=42 v=100
145944 On ch=10 n=42 v=0
145944 On ch=10 n=36 v=0
146060 On ch=10 n=42 v=100
146064 On ch=10 n=42 v=0
146180 On ch=10 n=42 v=100
146180 On ch=10 n=69 v=84
146184 On ch=10 n=69 v=0
146184 On ch=10 n=42 v=0
146420 On ch=10 n=38 v=127
146420 On ch=10 n=42 v=100
146420 On ch=10 n=37 v=116
146424 On ch=10 n=37 v=0
146424 On ch=10 n=42 v=0
146424 On ch=10 n=38 v=0
146540 On ch=10 n=38 v=68
146540 On ch=10 n=37 v=68
146544 On ch=10 n=37 v=0
146544 On ch=10 n=38 v=0
146660 On ch=10 n=38 v=52
146660 On ch=10 n=42 v=100
146660 On ch=10 n=37 v=52
146664 On ch=10 n=37 v=0
146664 On ch=10 n=42 v=0
146664 On ch=10 n=38 v=0
146664 On ch=10 n=69 v=84
146668 On ch=10 n=69 v=0
146900 On ch=10 n=36 v=116
146900 On ch=10 n=42 v=100
146904 On ch=10 n=42 v=0
146904 On ch=10 n=36 v=0
147140 On ch=10 n=42 v=100
147140 On ch=10 n=69 v=84
147144 On ch=10 n=69 v=0
147144 On ch=10 n=42 v=0
147380 On ch=10 n=38 v=127
147380 On ch=10 n=42 v=100
147380 On ch=10 n=37 v=116
147384 On ch=10 n=37 v=0
147384 On ch=10 n=42 v=0
147384 On ch=10 n=38 v=0
147500 On ch=10 n=38 v=68
147500 On ch=10 n=37 v=68
147504 On ch=10 n=37 v=0
147504 On ch=10 n=38 v=0
147620 On ch=10 n=38 v=52
147620 On ch=10 n=42 v=100
147620 On ch=10 n=37 v=52
147624 On ch=10 n=37 v=0
147624 On ch=10 n=42 v=0
147624 On ch=10 n=38 v=0
147624 On ch=10 n=69 v=84
147628 On ch=10 n=69 v=0
147860 On ch=10 n=36 v=116
147860 On ch=10 n=42 v=100
147864 On ch=10 n=42 v=0
147864 On ch=10 n=36 v=0
147980 On ch=10 n=42 v=100
147984 On ch=10 n=42 v=0
148100 On ch=10 n=42 v=100
148104 On ch=10 n=42 v=0
148220 On ch=10 n=69 v=84
148224 On ch=10 n=69 v=0
148340 On ch=10 n=38 v=127
148340 On ch=10 n=42 v=100
148340 On ch=10 n=37 v=116
148340 On ch=10 n=69 v=127
148344 On ch=10 n=69 v=0
148344 On ch=10 n=38 v=0
148344 On ch=10 n=42 v=0
148344 On ch=10 n=37 v=0
148460 On ch=10 n=38 v=68
148460 On ch=10 n=37 v=68
148460 On ch=10 n=69 v=84
148464 On ch=10 n=69 v=0
148464 On ch=10 n=37 v=0
148464 On ch=10 n=38 v=0
148580 On ch=10 n=38 v=52
148580 On ch=10 n=42 v=100
148580 On ch=10 n=37 v=52
148584 On ch=10 n=37 v=0
148584 On ch=10 n=42 v=0
148584 On ch=10 n=38 v=0
148700 On ch=10 n=69 v=100
148704 On ch=10 n=69 v=0
148820 On ch=10 n=36 v=116
148820 On ch=10 n=42 v=100
148824 On ch=10 n=42 v=0
148824 On ch=10 n=36 v=0
148940 On ch=10 n=69 v=100
148944 On ch=10 n=69 v=0
149060 On ch=10 n=42 v=100
149064 On ch=10 n=42 v=0
149180 On ch=10 n=69 v=84
149184 On ch=10 n=69 v=0
149300 On ch=10 n=38 v=127
149300 On ch=10 n=42 v=100
149300 On ch=10 n=37 v=116
149304 On ch=10 n=37 v=0
149304 On ch=10 n=42 v=0
149304 On ch=10 n=38 v=0
149304 On ch=10 n=69 v=127
149308 On ch=10 n=69 v=0
149420 On ch=10 n=38 v=68
149420 On ch=10 n=37 v=68
149420 On ch=10 n=69 v=84
149424 On ch=10 n=69 v=0
149424 On ch=10 n=37 v=0
149424 On ch=10 n=38 v=0
149540 On ch=10 n=38 v=52
149540 On ch=10 n=42 v=100
149540 On ch=10 n=37 v=52
149544 On ch=10 n=37 v=0
149544 On ch=10 n=42 v=0
149544 On ch=10 n=38 v=0
149780 On ch=10 n=36 v=116
149780 On ch=10 n=42 v=100
149784 On ch=10 n=42 v=0
149784 On ch=10 n=36 v=0
149900 On ch=10 n=42 v=100
149904 On ch=10 n=42 v=0
150020 On ch=10 n=42 v=100
150024 On ch=10 n=42 v=0
150140 On ch=10 n=69 v=84
150144 On ch=10 n=69 v=0
150260 On ch=10 n=38 v=127
150260 On ch=10 n=42 v=100
150260 On ch=10 n=37 v=116
150264 On ch=10 n=37 v=0
150264 On ch=10 n=42 v=0
150264 On ch=10 n=38 v=0
150264 On ch=10 n=69 v=127
150268 On ch=10 n=69 v=0
150380 On ch=10 n=38 v=68
150380 On ch=10 n=37 v=68
150380 On ch=10 n=69 v=84
150384 On ch=10 n=69 v=0
150384 On ch=10 n=37 v=0
150384 On ch=10 n=38 v=0
150500 On ch=10 n=38 v=52
150500 On ch=10 n=42 v=100
150500 On ch=10 n=37 v=52
150504 On ch=10 n=37 v=0
150504 On ch=10 n=42 v=0
150504 On ch=10 n=38 v=0
150620 On ch=10 n=69 v=100
150624 On ch=10 n=69 v=0
150740 On ch=10 n=36 v=116
150740 On ch=10 n=42 v=100
150744 On ch=10 n=42 v=0
150744 On ch=10 n=36 v=0
150860 On ch=10 n=69 v=100
150864 On ch=10 n=69 v=0
150980 On ch=10 n=42 v=100
150984 On ch=10 n=42 v=0
151100 On ch=10 n=36 v=116
151100 On ch=10 n=69 v=84
151104 On ch=10 n=69 v=0
151104 On ch=10 n=36 v=0
151220 On ch=10 n=38 v=127
151220 On ch=10 n=42 v=100
151220 On ch=10 n=37 v=116
151224 On ch=10 n=37 v=0
151224 On ch=10 n=42 v=0
151224 On ch=10 n=38 v=0
151224 On ch=10 n=69 v=127
151228 On ch=10 n=69 v=0
151340 On ch=10 n=38 v=68
151340 On ch=10 n=37 v=68
151340 On ch=10 n=69 v=84
151344 On ch=10 n=69 v=0
151344 On ch=10 n=37 v=0
151344 On ch=10 n=38 v=0
151460 On ch=10 n=38 v=52
151460 On ch=10 n=42 v=100
151460 On ch=10 n=37 v=52
151464 On ch=10 n=37 v=0
151464 On ch=10 n=42 v=0
151464 On ch=10 n=38 v=0
151700 On ch=10 n=36 v=116
151700 On ch=10 n=46 v=100
151704 On ch=10 n=46 v=0
151704 On ch=10 n=36 v=0
151704 Meta TrkEnd
TrkEnd
MTrk
0 Meta 0x21 00
0 Meta TrkName "******************************"
0 Meta TrkEnd
TrkEnd
MTrk
0 Meta 0x21 00
0 Meta TrkName "Red Red Wine MIDI"
0 Meta TrkEnd
TrkEnd
MTrk
0 Meta 0x21 00
0 Meta TrkName "Artist: Ub-40"
0 Meta TrkEnd
TrkEnd
MTrk
0 Meta 0x21 00
0 Meta TrkName "Sequenced by: Jodi S.A.K."
0 Meta TrkEnd
TrkEnd
MTrk
0 Meta 0x21 00
0 Meta TrkName "Holland 1995"
0 Meta TrkEnd
TrkEnd
MTrk
0 Meta 0x21 00
0 Meta TrkName "******************************"
0 Meta TrkEnd
TrkEnd
