MFile 1 11 384
MTrk
0 TimeSig 4/4 24 8
0 KeySig -1 major
0 Tempo 810810
102912 Tempo 800000
103296 Tempo 789473
103680 Tempo 779220
104064 Tempo 769230
104448 Tempo 759493
104832 Tempo 750000
105216 Tempo 740740
105600 Tempo 731707
105984 Tempo 722891
106368 Tempo 714285
106752 Tempo 705882
106752 Meta TrkEnd
TrkEnd
MTrk
0 Meta TrkName "Soft karaoke"
0 Meta Text "@KMIDI KARAOKE FILE"
0 Meta TrkEnd
TrkEnd
MTrk
0 Meta TrkName "Words"
0 Meta Text "@LENGL"
0 Meta Text "@TUnforgettable (Nat King Cole)"
8192 Meta Text "\\Un"
8320 Meta Text "for"
8448 Meta Text "get"
8576 Meta Text "ta"
8704 Meta Text "ble"
10240 Meta Text " that's"
10496 Meta Text " what"
10624 Meta Text " you"
10752 Meta Text " are"
13568 Meta Text "/Un"
13696 Meta Text "for"
13824 Meta Text "get"
14080 Meta Text "ta"
14336 Meta Text "ble"
16128 Meta Text " though"
16384 Meta Text " near"
16640 Meta Text " or"
16896 Meta Text " far"
20352 Meta Text "\\Like"
20608 Meta Text " a"
20736 Meta Text " song"
22016 Meta Text " of love"
22144 Meta Text " that"
22272 Meta Text " clings"
22400 Meta Text " to"
22528 Meta Text " me"
23552 Meta Text "/How"
23680 Meta Text " the"
23808 Meta Text " thought"
23936 Meta Text " of"
24064 Meta Text " you"
25216 Meta Text " does"
25344 Meta Text " things"
25600 Meta Text " to"
25856 Meta Text " me"
26752 Meta Text "/Ne"
26880 Meta Text "ver"
27136 Meta Text " be"
27392 Meta Text "fo"
27648 Meta Text "re"
29824 Meta Text " some"
29952 Meta Text "one"
30208 Meta Text " has"
30464 Meta Text " been"
30720 Meta Text " more"
32768 Meta Text "\\Un"
32896 Meta Text "for"
33024 Meta Text "get"
33152 Meta Text "ta"
33280 Meta Text "ble"
34816 Meta Text " in"
35072 Meta Text " eve"
35200 Meta Text "ry"
35328 Meta Text " way"
38144 Meta Text "/And"
38272 Meta Text " fo"
38400 Meta Text "re"
38656 Meta Text "ver"
38912 Meta Text " more"
40704 Meta Text " that's"
40960 Meta Text " how"
41216 Meta Text " you'll"
41472 Meta Text " stay"
44928 Meta Text "\\That's"
45184 Meta Text " why"
45312 Meta Text " darling"
46592 Meta Text " it's"
46720 Meta Text " in"
46848 Meta Text "cre"
46976 Meta Text "di"
47104 Meta Text "ble"
48128 Meta Text "/That"
48256 Meta Text " some"
48384 Meta Text "one"
48512 Meta Text " so"
49792 Meta Text " unfor"
49920 Meta Text "get"
50176 Meta Text "ta"
50432 Meta Text "ble"
51200 Meta Text "/Thinks"
51328 Meta Text " that"
51456 Meta Text " I"
51712 Meta Text " am"
52736 Meta Text " un"
52864 Meta Text "for"
52992 Meta Text "get"
53120 Meta Text "ta"
53248 Meta Text "ble"
53760 Meta Text " too"
81920 Meta Text "\\Un"
82048 Meta Text "for"
82176 Meta Text "get"
82304 Meta Text "ta"
82432 Meta Text "ble"
83968 Meta Text " in"
84224 Meta Text " eve"
84352 Meta Text "ry"
84480 Meta Text " way"
87296 Meta Text "/And"
87424 Meta Text " fo"
87552 Meta Text "re"
87808 Meta Text "ver"
88064 Meta Text " more"
89856 Meta Text " that's"
90112 Meta Text " how"
90368 Meta Text " you'll"
90624 Meta Text " stay"
94080 Meta Text "\\That's"
94336 Meta Text " why"
94464 Meta Text " darling"
95744 Meta Text " it's"
95872 Meta Text " in"
96000 Meta Text "cre"
96128 Meta Text "di"
96256 Meta Text "ble"
97280 Meta Text "/That"
97408 Meta Text " some"
97536 Meta Text "one"
97664 Meta Text " so"
98944 Meta Text " unfor"
99072 Meta Text "get"
99328 Meta Text "ta"
99584 Meta Text "ble"
100352 Meta Text "/Thinks"
100480 Meta Text " that"
100608 Meta Text " I"
100864 Meta Text " am"
101920 Meta Text " un"
102156 Meta Text "for"
102402 Meta Text "get"
102672 Meta Text "ta"
102972 Meta Text "ble"
104448 Meta Text " to"
104832 Meta Text "o"
104832 Meta TrkEnd
TrkEnd
MTrk
0 Meta 0x21 00
0 Meta TrkName "Melody  "
0 PrCh ch=1 p=64
0 Par ch=1 c=7 v=127
0 Par ch=1 c=10 v=64
96 Par ch=1 c=121 v=0
240 Par ch=1 c=91 v=50
264 Par ch=1 c=93 v=0
8192 On ch=1 n=60 v=117
8316 On ch=1 n=60 v=0
8320 On ch=1 n=62 v=117
8376 Par ch=1 c=64 v=127
8404 On ch=1 n=62 v=0
8448 On ch=1 n=62 v=117
8502 Par ch=1 c=64 v=0
8548 On ch=1 n=62 v=0
8576 On ch=1 n=64 v=117
8656 On ch=1 n=64 v=0
8704 On ch=1 n=64 v=117
10146 On ch=1 n=64 v=0
10240 On ch=1 n=60 v=117
10496 On ch=1 n=60 v=0
10496 On ch=1 n=62 v=117
10580 On ch=1 n=62 v=0
10624 On ch=1 n=65 v=117
10740 On ch=1 n=65 v=0
10752 On ch=1 n=64 v=117
12178 On ch=1 n=64 v=0
13568 On ch=1 n=76 v=117
13688 On ch=1 n=76 v=0
13696 On ch=1 n=77 v=117
13784 On ch=1 n=77 v=0
13824 On ch=1 n=79 v=117
14040 On ch=1 n=79 v=0
14080 On ch=1 n=81 v=117
14280 On ch=1 n=81 v=0
14336 On ch=1 n=81 v=117
15958 On ch=1 n=81 v=0
16128 On ch=1 n=74 v=117
16350 On ch=1 n=74 v=0
16384 On ch=1 n=77 v=117
16578 On ch=1 n=77 v=0
16640 On ch=1 n=79 v=117
16858 On ch=1 n=79 v=0
16896 On ch=1 n=81 v=117
18858 On ch=1 n=81 v=0
20352 On ch=1 n=70 v=117
20546 On ch=1 n=70 v=0
20608 On ch=1 n=72 v=117
20668 Par ch=1 c=64 v=127
20736 On ch=1 n=72 v=0
20736 On ch=1 n=72 v=117
20748 On ch=1 n=72 v=0
20798 Par ch=1 c=64 v=0
22016 On ch=1 n=70 v=117
22092 Par ch=1 c=64 v=127
22122 On ch=1 n=70 v=0
22144 On ch=1 n=72 v=117
22246 Par ch=1 c=64 v=0
22256 On ch=1 n=72 v=0
22272 On ch=1 n=73 v=117
22400 On ch=1 n=72 v=117
22432 On ch=1 n=73 v=0
22528 On ch=1 n=70 v=117
22544 On ch=1 n=72 v=0
23012 On ch=1 n=70 v=0
23552 On ch=1 n=65 v=117
23624 On ch=1 n=65 v=0
23680 On ch=1 n=65 v=117
23800 On ch=1 n=65 v=0
23808 On ch=1 n=67 v=117
23936 On ch=1 n=62 v=117
23942 On ch=1 n=67 v=0
24050 On ch=1 n=62 v=0
24064 On ch=1 n=65 v=117
25204 On ch=1 n=65 v=0
25216 On ch=1 n=67 v=117
25344 On ch=1 n=69 v=117
25356 On ch=1 n=67 v=0
25592 On ch=1 n=69 v=0
25600 On ch=1 n=67 v=117
25834 On ch=1 n=67 v=0
25856 On ch=1 n=65 v=117
26082 On ch=1 n=65 v=0
26752 On ch=1 n=55 v=117
26880 On ch=1 n=55 v=0
26880 On ch=1 n=62 v=117
27044 On ch=1 n=62 v=0
27136 On ch=1 n=62 v=117
27372 On ch=1 n=62 v=0
27392 On ch=1 n=67 v=117
27638 On ch=1 n=67 v=0
27648 On ch=1 n=62 v=117
28826 On ch=1 n=62 v=0
29824 On ch=1 n=55 v=117
29952 On ch=1 n=64 v=117
29984 On ch=1 n=55 v=0
30144 On ch=1 n=64 v=0
30208 On ch=1 n=64 v=117
30444 On ch=1 n=64 v=0
30464 On ch=1 n=70 v=117
30678 On ch=1 n=70 v=0
30720 On ch=1 n=65 v=117
31780 On ch=1 n=65 v=0
32768 On ch=1 n=72 v=117
32892 On ch=1 n=72 v=0
32896 On ch=1 n=74 v=117
32952 Par ch=1 c=64 v=127
32980 On ch=1 n=74 v=0
33024 On ch=1 n=74 v=117
33078 Par ch=1 c=64 v=0
33124 On ch=1 n=74 v=0
33152 On ch=1 n=76 v=117
33232 On ch=1 n=76 v=0
33280 On ch=1 n=76 v=117
34722 On ch=1 n=76 v=0
34816 On ch=1 n=72 v=117
35072 On ch=1 n=72 v=0
35072 On ch=1 n=74 v=117
35156 On ch=1 n=74 v=0
35200 On ch=1 n=77 v=117
35316 On ch=1 n=77 v=0
35328 On ch=1 n=76 v=117
36754 On ch=1 n=76 v=0
38144 On ch=1 n=64 v=117
38264 On ch=1 n=64 v=0
38272 On ch=1 n=65 v=117
38360 On ch=1 n=65 v=0
38400 On ch=1 n=67 v=117
38616 On ch=1 n=67 v=0
38656 On ch=1 n=69 v=117
38856 On ch=1 n=69 v=0
38912 On ch=1 n=69 v=117
40534 On ch=1 n=69 v=0
40704 On ch=1 n=62 v=117
40926 On ch=1 n=62 v=0
40960 On ch=1 n=65 v=117
41154 On ch=1 n=65 v=0
41216 On ch=1 n=67 v=117
41434 On ch=1 n=67 v=0
41472 On ch=1 n=69 v=117
43434 On ch=1 n=69 v=0
44928 On ch=1 n=70 v=117
45122 On ch=1 n=70 v=0
45184 On ch=1 n=72 v=117
45244 Par ch=1 c=64 v=127
45312 On ch=1 n=72 v=0
45312 On ch=1 n=72 v=117
45324 On ch=1 n=72 v=0
45374 Par ch=1 c=64 v=0
46592 On ch=1 n=70 v=117
46668 Par ch=1 c=64 v=127
46698 On ch=1 n=70 v=0
46720 On ch=1 n=72 v=117
46822 Par ch=1 c=64 v=0
46832 On ch=1 n=72 v=0
46848 On ch=1 n=73 v=117
46976 On ch=1 n=72 v=117
47008 On ch=1 n=73 v=0
47104 On ch=1 n=70 v=117
47120 On ch=1 n=72 v=0
47588 On ch=1 n=70 v=0
48128 On ch=1 n=65 v=117
48200 On ch=1 n=65 v=0
48256 On ch=1 n=65 v=117
48376 On ch=1 n=65 v=0
48384 On ch=1 n=67 v=117
48512 On ch=1 n=62 v=117
48518 On ch=1 n=67 v=0
48626 On ch=1 n=62 v=0
48640 On ch=1 n=65 v=117
49780 On ch=1 n=65 v=0
49792 On ch=1 n=67 v=117
49920 On ch=1 n=69 v=117
49932 On ch=1 n=67 v=0
50168 On ch=1 n=69 v=0
50176 On ch=1 n=67 v=117
50410 On ch=1 n=67 v=0
50432 On ch=1 n=65 v=117
50658 On ch=1 n=65 v=0
51200 On ch=1 n=72 v=117
51278 On ch=1 n=72 v=0
51328 On ch=1 n=74 v=117
51416 On ch=1 n=74 v=0
51456 On ch=1 n=74 v=117
51664 On ch=1 n=74 v=0
51712 On ch=1 n=72 v=117
52270 On ch=1 n=72 v=0
52736 On ch=1 n=72 v=117
52844 On ch=1 n=72 v=0
52864 On ch=1 n=74 v=117
52978 On ch=1 n=74 v=0
52992 On ch=1 n=77 v=117
53090 On ch=1 n=77 v=0
53120 On ch=1 n=74 v=117
53248 On ch=1 n=72 v=117
53272 On ch=1 n=74 v=0
53760 On ch=1 n=70 v=117
53766 On ch=1 n=72 v=0
55228 On ch=1 n=70 v=0
81920 On ch=1 n=72 v=117
82044 On ch=1 n=72 v=0
82048 On ch=1 n=74 v=117
82104 Par ch=1 c=64 v=127
82132 On ch=1 n=74 v=0
82176 On ch=1 n=74 v=117
82230 Par ch=1 c=64 v=0
82276 On ch=1 n=74 v=0
82304 On ch=1 n=76 v=117
82384 On ch=1 n=76 v=0
82432 On ch=1 n=76 v=117
83874 On ch=1 n=76 v=0
83968 On ch=1 n=72 v=117
84224 On ch=1 n=72 v=0
84224 On ch=1 n=74 v=117
84308 On ch=1 n=74 v=0
84352 On ch=1 n=77 v=117
84468 On ch=1 n=77 v=0
84480 On ch=1 n=76 v=117
85906 On ch=1 n=76 v=0
87296 On ch=1 n=64 v=117
87416 On ch=1 n=64 v=0
87424 On ch=1 n=65 v=117
87512 On ch=1 n=65 v=0
87552 On ch=1 n=67 v=117
87768 On ch=1 n=67 v=0
87808 On ch=1 n=69 v=117
88008 On ch=1 n=69 v=0
88064 On ch=1 n=69 v=117
89686 On ch=1 n=69 v=0
89856 On ch=1 n=62 v=117
90078 On ch=1 n=62 v=0
90112 On ch=1 n=65 v=117
90306 On ch=1 n=65 v=0
90368 On ch=1 n=67 v=117
90586 On ch=1 n=67 v=0
90624 On ch=1 n=69 v=117
92586 On ch=1 n=69 v=0
94080 On ch=1 n=70 v=117
94274 On ch=1 n=70 v=0
94336 On ch=1 n=72 v=117
94396 Par ch=1 c=64 v=127
94464 On ch=1 n=72 v=0
94464 On ch=1 n=72 v=117
94476 On ch=1 n=72 v=0
94526 Par ch=1 c=64 v=0
95744 On ch=1 n=70 v=117
95820 Par ch=1 c=64 v=127
95850 On ch=1 n=70 v=0
95872 On ch=1 n=72 v=117
95974 Par ch=1 c=64 v=0
95984 On ch=1 n=72 v=0
96000 On ch=1 n=73 v=117
96128 On ch=1 n=72 v=117
96160 On ch=1 n=73 v=0
96256 On ch=1 n=70 v=117
96272 On ch=1 n=72 v=0
96740 On ch=1 n=70 v=0
97280 On ch=1 n=65 v=117
97352 On ch=1 n=65 v=0
97408 On ch=1 n=65 v=117
97528 On ch=1 n=65 v=0
97536 On ch=1 n=67 v=117
97664 On ch=1 n=62 v=117
97670 On ch=1 n=67 v=0
97778 On ch=1 n=62 v=0
97792 On ch=1 n=65 v=117
98932 On ch=1 n=65 v=0
98944 On ch=1 n=67 v=117
99072 On ch=1 n=69 v=117
99084 On ch=1 n=67 v=0
99320 On ch=1 n=69 v=0
99328 On ch=1 n=67 v=117
99562 On ch=1 n=67 v=0
99584 On ch=1 n=65 v=117
99810 On ch=1 n=65 v=0
100352 On ch=1 n=72 v=117
100430 On ch=1 n=72 v=0
100480 On ch=1 n=74 v=117
100568 On ch=1 n=74 v=0
100608 On ch=1 n=74 v=117
100816 On ch=1 n=74 v=0
100864 On ch=1 n=72 v=117
101376 On ch=1 n=72 v=0
101920 On ch=1 n=72 v=117
102156 On ch=1 n=74 v=117
102168 On ch=1 n=72 v=0
102384 On ch=1 n=74 v=0
102402 On ch=1 n=77 v=117
102672 On ch=1 n=74 v=117
102690 On ch=1 n=77 v=0
102972 On ch=1 n=72 v=117
102976 On ch=1 n=74 v=0
104126 On ch=1 n=72 v=0
104448 On ch=1 n=72 v=117
104766 On ch=1 n=72 v=0
104832 On ch=1 n=70 v=117
106616 On ch=1 n=70 v=0
106616 Meta TrkEnd
TrkEnd
MTrk
0 Meta 0x21 00
0 Meta TrkName "Bass    "
0 PrCh ch=2 p=32
0 Par ch=2 c=7 v=115
0 Par ch=2 c=10 v=64
96 Par ch=2 c=121 v=0
240 Par ch=2 c=91 v=40
264 Par ch=2 c=93 v=38
1536 On ch=2 n=41 v=90
2472 On ch=2 n=41 v=0
2560 On ch=2 n=36 v=115
2688 On ch=2 n=48 v=115
2756 On ch=2 n=36 v=0
3982 On ch=2 n=48 v=0
4096 On ch=2 n=48 v=112
4224 On ch=2 n=36 v=105
4242 On ch=2 n=36 v=0
4598 On ch=2 n=48 v=0
4608 On ch=2 n=48 v=103
5244 On ch=2 n=48 v=0
5376 On ch=2 n=47 v=95
5888 On ch=2 n=47 v=0
6016 On ch=2 n=47 v=97
6144 On ch=2 n=46 v=101
6162 On ch=2 n=47 v=0
6664 On ch=2 n=46 v=0
6784 On ch=2 n=46 v=110
6912 On ch=2 n=46 v=0
6912 On ch=2 n=48 v=112
7140 On ch=2 n=48 v=0
7168 On ch=2 n=43 v=110
7296 On ch=2 n=36 v=101
7306 On ch=2 n=43 v=0
7594 On ch=2 n=36 v=0
7680 On ch=2 n=29 v=112
8440 On ch=2 n=29 v=0
8448 On ch=2 n=36 v=97
9196 On ch=2 n=36 v=0
9216 On ch=2 n=41 v=92
9982 On ch=2 n=41 v=0
9984 On ch=2 n=29 v=97
10634 On ch=2 n=29 v=0
10752 On ch=2 n=32 v=103
11520 On ch=2 n=44 v=82
11536 On ch=2 n=32 v=0
12264 On ch=2 n=44 v=0
12288 On ch=2 n=32 v=92
13056 On ch=2 n=32 v=0
13056 On ch=2 n=44 v=82
13824 On ch=2 n=31 v=101
13832 On ch=2 n=44 v=0
14572 On ch=2 n=31 v=0
14592 On ch=2 n=43 v=99
15052 On ch=2 n=43 v=0
15104 On ch=2 n=43 v=95
15218 On ch=2 n=43 v=0
15232 On ch=2 n=38 v=84
15360 On ch=2 n=31 v=88
15370 On ch=2 n=38 v=0
16120 On ch=2 n=31 v=0
16128 On ch=2 n=43 v=92
16694 On ch=2 n=43 v=0
16896 On ch=2 n=31 v=108
17656 On ch=2 n=31 v=0
17664 On ch=2 n=38 v=110
18388 On ch=2 n=38 v=0
18432 On ch=2 n=43 v=82
19064 On ch=2 n=43 v=0
19072 On ch=2 n=38 v=97
19200 On ch=2 n=31 v=90
19218 On ch=2 n=38 v=0
19584 On ch=2 n=43 v=97
19590 On ch=2 n=31 v=0
19774 On ch=2 n=43 v=0
19968 On ch=2 n=36 v=92
20654 On ch=2 n=36 v=0
20736 On ch=2 n=36 v=88
21472 On ch=2 n=36 v=0
21504 On ch=2 n=39 v=82
22216 On ch=2 n=39 v=0
22272 On ch=2 n=39 v=82
22868 On ch=2 n=39 v=0
23040 On ch=2 n=34 v=92
23780 On ch=2 n=34 v=0
23808 On ch=2 n=38 v=99
24576 On ch=2 n=31 v=95
24582 On ch=2 n=38 v=0
25344 On ch=2 n=43 v=97
25364 On ch=2 n=31 v=0
25900 On ch=2 n=43 v=0
26112 On ch=2 n=36 v=108
26808 On ch=2 n=36 v=0
26880 On ch=2 n=36 v=99
27554 On ch=2 n=36 v=0
27648 On ch=2 n=36 v=97
28370 On ch=2 n=36 v=0
28416 On ch=2 n=36 v=101
28784 On ch=2 n=36 v=0
28800 On ch=2 n=43 v=101
29184 On ch=2 n=36 v=108
29198 On ch=2 n=43 v=0
29872 On ch=2 n=36 v=0
29952 On ch=2 n=36 v=92
30698 On ch=2 n=36 v=0
30720 On ch=2 n=37 v=99
32128 On ch=2 n=37 v=0
32256 On ch=2 n=29 v=112
33016 On ch=2 n=29 v=0
33024 On ch=2 n=36 v=97
33772 On ch=2 n=36 v=0
33792 On ch=2 n=41 v=92
34558 On ch=2 n=41 v=0
34560 On ch=2 n=29 v=97
35210 On ch=2 n=29 v=0
35328 On ch=2 n=32 v=103
36096 On ch=2 n=44 v=82
36112 On ch=2 n=32 v=0
36840 On ch=2 n=44 v=0
36864 On ch=2 n=32 v=92
37632 On ch=2 n=32 v=0
37632 On ch=2 n=44 v=82
38400 On ch=2 n=31 v=101
38408 On ch=2 n=44 v=0
39148 On ch=2 n=31 v=0
39168 On ch=2 n=43 v=99
39628 On ch=2 n=43 v=0
39680 On ch=2 n=43 v=95
39794 On ch=2 n=43 v=0
39808 On ch=2 n=38 v=84
39936 On ch=2 n=31 v=88
39946 On ch=2 n=38 v=0
40696 On ch=2 n=31 v=0
40704 On ch=2 n=43 v=92
41270 On ch=2 n=43 v=0
41472 On ch=2 n=31 v=108
42232 On ch=2 n=31 v=0
42240 On ch=2 n=38 v=110
42964 On ch=2 n=38 v=0
43008 On ch=2 n=43 v=82
43640 On ch=2 n=43 v=0
43648 On ch=2 n=38 v=97
43776 On ch=2 n=31 v=90
43794 On ch=2 n=38 v=0
44160 On ch=2 n=43 v=97
44166 On ch=2 n=31 v=0
44350 On ch=2 n=43 v=0
44544 On ch=2 n=36 v=92
45230 On ch=2 n=36 v=0
45312 On ch=2 n=36 v=88
46048 On ch=2 n=36 v=0
46080 On ch=2 n=39 v=82
46792 On ch=2 n=39 v=0
46848 On ch=2 n=39 v=82
47444 On ch=2 n=39 v=0
47616 On ch=2 n=34 v=92
48356 On ch=2 n=34 v=0
48384 On ch=2 n=38 v=99
49152 On ch=2 n=31 v=95
49158 On ch=2 n=38 v=0
49920 On ch=2 n=43 v=97
49940 On ch=2 n=31 v=0
50476 On ch=2 n=43 v=0
50688 On ch=2 n=36 v=90
51400 On ch=2 n=36 v=0
51456 On ch=2 n=36 v=101
52166 On ch=2 n=36 v=0
52224 On ch=2 n=41 v=95
52992 On ch=2 n=29 v=101
53688 On ch=2 n=29 v=0
53736 On ch=2 n=41 v=0
53760 On ch=2 n=34 v=90
54358 On ch=2 n=34 v=0
54528 On ch=2 n=31 v=97
55270 On ch=2 n=31 v=0
55296 On ch=2 n=39 v=84
56058 On ch=2 n=39 v=0
56064 On ch=2 n=32 v=105
56724 On ch=2 n=32 v=0
56832 On ch=2 n=37 v=112
57592 On ch=2 n=37 v=0
57600 On ch=2 n=44 v=97
58348 On ch=2 n=44 v=0
58368 On ch=2 n=49 v=92
59134 On ch=2 n=49 v=0
59136 On ch=2 n=37 v=97
59786 On ch=2 n=37 v=0
59904 On ch=2 n=40 v=103
60672 On ch=2 n=52 v=82
60688 On ch=2 n=40 v=0
61416 On ch=2 n=52 v=0
61440 On ch=2 n=40 v=92
62208 On ch=2 n=40 v=0
62208 On ch=2 n=52 v=82
62976 On ch=2 n=39 v=101
62984 On ch=2 n=52 v=0
63724 On ch=2 n=39 v=0
63744 On ch=2 n=51 v=99
64204 On ch=2 n=51 v=0
64256 On ch=2 n=51 v=95
64370 On ch=2 n=51 v=0
64384 On ch=2 n=46 v=84
64512 On ch=2 n=39 v=88
64522 On ch=2 n=46 v=0
65272 On ch=2 n=39 v=0
65280 On ch=2 n=51 v=92
65846 On ch=2 n=51 v=0
66048 On ch=2 n=39 v=108
66808 On ch=2 n=39 v=0
66816 On ch=2 n=46 v=110
67540 On ch=2 n=46 v=0
67584 On ch=2 n=51 v=82
68216 On ch=2 n=51 v=0
68224 On ch=2 n=46 v=97
68352 On ch=2 n=39 v=90
68370 On ch=2 n=46 v=0
68736 On ch=2 n=51 v=97
68742 On ch=2 n=39 v=0
68926 On ch=2 n=51 v=0
69120 On ch=2 n=44 v=92
69806 On ch=2 n=44 v=0
69888 On ch=2 n=44 v=88
70624 On ch=2 n=44 v=0
70656 On ch=2 n=47 v=82
71368 On ch=2 n=47 v=0
71424 On ch=2 n=47 v=82
72020 On ch=2 n=47 v=0
72192 On ch=2 n=42 v=92
72932 On ch=2 n=42 v=0
72960 On ch=2 n=46 v=99
73728 On ch=2 n=39 v=95
73734 On ch=2 n=46 v=0
74496 On ch=2 n=51 v=97
74516 On ch=2 n=39 v=0
75052 On ch=2 n=51 v=0
75264 On ch=2 n=44 v=108
75960 On ch=2 n=44 v=0
76032 On ch=2 n=44 v=99
76706 On ch=2 n=44 v=0
76800 On ch=2 n=44 v=97
77522 On ch=2 n=44 v=0
77568 On ch=2 n=44 v=101
77936 On ch=2 n=44 v=0
77952 On ch=2 n=51 v=101
78336 On ch=2 n=51 v=0
78336 On ch=2 n=37 v=108
78834 On ch=2 n=37 v=0
78848 On ch=2 n=49 v=92
78976 On ch=2 n=44 v=95
78992 On ch=2 n=49 v=0
79090 On ch=2 n=44 v=0
79104 On ch=2 n=37 v=95
79638 On ch=2 n=37 v=0
79744 On ch=2 n=37 v=97
79864 On ch=2 n=37 v=0
79872 On ch=2 n=48 v=92
80320 On ch=2 n=48 v=0
80384 On ch=2 n=48 v=97
80512 On ch=2 n=43 v=92
80538 On ch=2 n=48 v=0
80608 On ch=2 n=43 v=0
80640 On ch=2 n=36 v=97
81004 On ch=2 n=36 v=0
81024 On ch=2 n=48 v=99
81264 On ch=2 n=48 v=0
81280 On ch=2 n=36 v=105
81380 On ch=2 n=36 v=0
81408 On ch=2 n=29 v=112
82168 On ch=2 n=29 v=0
82176 On ch=2 n=36 v=97
82924 On ch=2 n=36 v=0
82944 On ch=2 n=41 v=92
83710 On ch=2 n=41 v=0
83712 On ch=2 n=29 v=97
84362 On ch=2 n=29 v=0
84480 On ch=2 n=32 v=103
85248 On ch=2 n=44 v=82
85264 On ch=2 n=32 v=0
85992 On ch=2 n=44 v=0
86016 On ch=2 n=32 v=92
86784 On ch=2 n=32 v=0
86784 On ch=2 n=44 v=82
87552 On ch=2 n=31 v=101
87560 On ch=2 n=44 v=0
88300 On ch=2 n=31 v=0
88320 On ch=2 n=43 v=99
88780 On ch=2 n=43 v=0
88832 On ch=2 n=43 v=95
88946 On ch=2 n=43 v=0
88960 On ch=2 n=38 v=84
89088 On ch=2 n=31 v=88
89098 On ch=2 n=38 v=0
89848 On ch=2 n=31 v=0
89856 On ch=2 n=43 v=92
90422 On ch=2 n=43 v=0
90624 On ch=2 n=31 v=108
91384 On ch=2 n=31 v=0
91392 On ch=2 n=38 v=110
92116 On ch=2 n=38 v=0
92160 On ch=2 n=43 v=82
92792 On ch=2 n=43 v=0
92800 On ch=2 n=38 v=97
92928 On ch=2 n=31 v=90
92946 On ch=2 n=38 v=0
93312 On ch=2 n=43 v=97
93318 On ch=2 n=31 v=0
93502 On ch=2 n=43 v=0
93696 On ch=2 n=36 v=92
94382 On ch=2 n=36 v=0
94464 On ch=2 n=36 v=88
95200 On ch=2 n=36 v=0
95232 On ch=2 n=39 v=82
95944 On ch=2 n=39 v=0
96000 On ch=2 n=39 v=82
96596 On ch=2 n=39 v=0
96768 On ch=2 n=34 v=92
97508 On ch=2 n=34 v=0
97536 On ch=2 n=38 v=99
98304 On ch=2 n=31 v=95
98310 On ch=2 n=38 v=0
99072 On ch=2 n=43 v=97
99092 On ch=2 n=31 v=0
99628 On ch=2 n=43 v=0
99840 On ch=2 n=36 v=90
100552 On ch=2 n=36 v=0
100608 On ch=2 n=36 v=101
101318 On ch=2 n=36 v=0
101376 On ch=2 n=41 v=97
102912 On ch=2 n=29 v=70
102934 On ch=2 n=29 v=0
104152 On ch=2 n=41 v=0
104470 On ch=2 n=34 v=101
105176 On ch=2 n=34 v=0
105204 On ch=2 n=30 v=90
105992 On ch=2 n=30 v=0
105996 On ch=2 n=40 v=86
106628 On ch=2 n=40 v=0
106744 On ch=2 n=32 v=90
108294 On ch=2 n=32 v=0
108300 On ch=2 n=34 v=95
111342 On ch=2 n=34 v=0
111342 Meta TrkEnd
TrkEnd
MTrk
0 Meta 0x21 00
0 Meta TrkName "Strings "
0 PrCh ch=3 p=49
0 Par ch=3 c=7 v=90
0 Par ch=3 c=10 v=49
76 Par ch=3 c=121 v=0
220 Par ch=3 c=91 v=80
244 Par ch=3 c=93 v=90
8812 On ch=3 n=60 v=78
8812 On ch=3 n=65 v=78
9196 On ch=3 n=69 v=78
9196 On ch=3 n=72 v=78
9212 On ch=3 n=65 v=0
9216 On ch=3 n=60 v=0
9708 On ch=3 n=69 v=0
9708 On ch=3 n=65 v=78
9708 On ch=3 n=69 v=78
9726 On ch=3 n=72 v=0
9836 On ch=3 n=65 v=0
9836 On ch=3 n=62 v=78
9836 On ch=3 n=65 v=78
9878 On ch=3 n=65 v=0
9878 On ch=3 n=69 v=0
9964 On ch=3 n=60 v=78
9964 On ch=3 n=64 v=78
9996 On ch=3 n=62 v=0
10638 On ch=3 n=60 v=0
10664 On ch=3 n=64 v=0
10732 On ch=3 n=56 v=78
10732 On ch=3 n=59 v=78
10732 On ch=3 n=64 v=78
11180 On ch=3 n=76 v=78
11308 On ch=3 n=77 v=78
11384 On ch=3 n=76 v=0
11500 On ch=3 n=86 v=78
11520 On ch=3 n=77 v=0
11692 On ch=3 n=85 v=78
11744 On ch=3 n=86 v=0
11878 On ch=3 n=85 v=0
11884 On ch=3 n=73 v=78
12076 On ch=3 n=74 v=78
12108 On ch=3 n=73 v=0
12268 On ch=3 n=82 v=78
12296 On ch=3 n=74 v=0
12892 On ch=3 n=82 v=0
12908 On ch=3 n=85 v=78
13036 On ch=3 n=83 v=78
13112 On ch=3 n=85 v=0
13640 On ch=3 n=83 v=0
13736 On ch=3 n=56 v=0
13736 On ch=3 n=59 v=0
13736 On ch=3 n=64 v=0
13812 On ch=3 n=55 v=78
13820 On ch=3 n=58 v=78
13826 On ch=3 n=62 v=78
14962 On ch=3 n=81 v=78
15184 On ch=3 n=77 v=78
15212 On ch=3 n=81 v=0
15332 On ch=3 n=74 v=78
15358 On ch=3 n=77 v=0
15870 On ch=3 n=70 v=78
15894 On ch=3 n=74 v=0
16006 On ch=3 n=67 v=78
16024 On ch=3 n=70 v=0
16668 On ch=3 n=67 v=0
16852 On ch=3 n=62 v=0
16854 On ch=3 n=58 v=0
16856 On ch=3 n=55 v=0
16876 On ch=3 n=55 v=78
16876 On ch=3 n=64 v=78
17388 On ch=3 n=83 v=78
17388 On ch=3 n=88 v=78
17516 On ch=3 n=81 v=78
17516 On ch=3 n=86 v=78
17552 On ch=3 n=83 v=0
17558 On ch=3 n=88 v=0
17644 On ch=3 n=83 v=78
17644 On ch=3 n=88 v=78
17666 On ch=3 n=81 v=0
17678 On ch=3 n=86 v=0
18048 On ch=3 n=83 v=0
18156 On ch=3 n=88 v=0
18156 On ch=3 n=81 v=78
18284 On ch=3 n=79 v=78
18298 On ch=3 n=81 v=0
18412 On ch=3 n=57 v=78
18412 On ch=3 n=81 v=78
18434 On ch=3 n=55 v=0
18458 On ch=3 n=79 v=0
19070 On ch=3 n=81 v=0
19180 On ch=3 n=55 v=78
19216 On ch=3 n=57 v=0
19716 On ch=3 n=64 v=0
19824 On ch=3 n=55 v=0
19948 On ch=3 n=58 v=78
19948 On ch=3 n=60 v=78
19948 On ch=3 n=63 v=78
19948 On ch=3 n=67 v=78
19948 On ch=3 n=72 v=78
21456 On ch=3 n=60 v=0
21472 On ch=3 n=67 v=0
21472 On ch=3 n=58 v=0
21478 On ch=3 n=63 v=0
21484 On ch=3 n=73 v=78
21484 On ch=3 n=77 v=78
21484 On ch=3 n=82 v=78
21496 On ch=3 n=72 v=0
22252 On ch=3 n=78 v=78
22278 On ch=3 n=77 v=0
22978 On ch=3 n=82 v=0
22978 On ch=3 n=73 v=0
22992 On ch=3 n=78 v=0
23020 On ch=3 n=58 v=78
23020 On ch=3 n=65 v=78
23020 On ch=3 n=69 v=78
23020 On ch=3 n=74 v=78
23746 On ch=3 n=58 v=0
23752 On ch=3 n=69 v=0
23756 On ch=3 n=65 v=0
23758 On ch=3 n=74 v=0
23788 On ch=3 n=63 v=78
23788 On ch=3 n=65 v=78
23788 On ch=3 n=68 v=78
23788 On ch=3 n=72 v=78
24488 On ch=3 n=68 v=0
24494 On ch=3 n=63 v=0
24506 On ch=3 n=65 v=0
24520 On ch=3 n=72 v=0
24556 On ch=3 n=59 v=78
24556 On ch=3 n=64 v=78
24556 On ch=3 n=71 v=78
26044 On ch=3 n=71 v=0
26044 On ch=3 n=64 v=0
26046 On ch=3 n=59 v=0
26092 On ch=3 n=55 v=78
26092 On ch=3 n=58 v=78
26092 On ch=3 n=62 v=78
26476 On ch=3 n=86 v=78
26476 On ch=3 n=90 v=78
26668 On ch=3 n=84 v=78
26668 On ch=3 n=88 v=78
26692 On ch=3 n=86 v=0
26702 On ch=3 n=90 v=0
26860 On ch=3 n=69 v=78
26860 On ch=3 n=78 v=78
26870 On ch=3 n=88 v=0
26896 On ch=3 n=84 v=0
27232 On ch=3 n=78 v=0
27244 On ch=3 n=70 v=78
27244 On ch=3 n=79 v=78
27254 On ch=3 n=69 v=0
27616 On ch=3 n=79 v=0
27628 On ch=3 n=74 v=78
27628 On ch=3 n=79 v=78
27628 On ch=3 n=82 v=78
27672 On ch=3 n=70 v=0
28190 On ch=3 n=79 v=0
28204 On ch=3 n=76 v=78
28204 On ch=3 n=81 v=78
28204 On ch=3 n=84 v=78
28232 On ch=3 n=74 v=0
28274 On ch=3 n=82 v=0
28376 On ch=3 n=84 v=0
28396 On ch=3 n=74 v=78
28396 On ch=3 n=79 v=78
28396 On ch=3 n=82 v=78
28400 On ch=3 n=81 v=0
28408 On ch=3 n=76 v=0
28710 On ch=3 n=62 v=0
28726 On ch=3 n=55 v=0
28736 On ch=3 n=58 v=0
28780 On ch=3 n=59 v=78
28780 On ch=3 n=63 v=78
29060 On ch=3 n=59 v=0
29066 On ch=3 n=63 v=0
29068 On ch=3 n=74 v=0
29096 On ch=3 n=79 v=0
29116 On ch=3 n=82 v=0
29164 On ch=3 n=55 v=78
29164 On ch=3 n=58 v=78
29164 On ch=3 n=60 v=78
29164 On ch=3 n=64 v=78
30674 On ch=3 n=60 v=0
30680 On ch=3 n=58 v=0
30688 On ch=3 n=64 v=0
30692 On ch=3 n=55 v=0
30700 On ch=3 n=59 v=78
30700 On ch=3 n=64 v=78
31456 On ch=3 n=64 v=0
31464 On ch=3 n=59 v=0
31468 On ch=3 n=58 v=78
31660 On ch=3 n=59 v=78
31700 On ch=3 n=58 v=0
31852 On ch=3 n=58 v=78
31852 On ch=3 n=62 v=78
31868 On ch=3 n=59 v=0
31980 On ch=3 n=62 v=0
31980 On ch=3 n=60 v=78
31980 On ch=3 n=64 v=78
32000 On ch=3 n=58 v=0
32090 On ch=3 n=60 v=0
32108 On ch=3 n=62 v=78
32108 On ch=3 n=65 v=78
32112 On ch=3 n=64 v=0
32220 On ch=3 n=65 v=0
32236 On ch=3 n=41 v=78
32236 On ch=3 n=53 v=78
32236 On ch=3 n=57 v=78
32236 On ch=3 n=60 v=78
32236 On ch=3 n=64 v=78
32236 On ch=3 n=67 v=78
32240 On ch=3 n=62 v=0
33430 On ch=3 n=53 v=0
33448 On ch=3 n=57 v=0
33470 On ch=3 n=60 v=0
33474 On ch=3 n=64 v=0
33662 On ch=3 n=41 v=0
33694 On ch=3 n=67 v=0
35756 On ch=3 n=76 v=78
35884 On ch=3 n=77 v=78
35960 On ch=3 n=76 v=0
36076 On ch=3 n=86 v=78
36096 On ch=3 n=77 v=0
36268 On ch=3 n=85 v=78
36320 On ch=3 n=86 v=0
36454 On ch=3 n=85 v=0
36460 On ch=3 n=73 v=78
36652 On ch=3 n=74 v=78
36684 On ch=3 n=73 v=0
36844 On ch=3 n=82 v=78
36872 On ch=3 n=74 v=0
37468 On ch=3 n=82 v=0
37484 On ch=3 n=85 v=78
37612 On ch=3 n=83 v=78
37688 On ch=3 n=85 v=0
38216 On ch=3 n=83 v=0
38388 On ch=3 n=55 v=78
38396 On ch=3 n=58 v=78
38402 On ch=3 n=62 v=78
39538 On ch=3 n=81 v=78
39760 On ch=3 n=77 v=78
39788 On ch=3 n=81 v=0
39908 On ch=3 n=74 v=78
39934 On ch=3 n=77 v=0
40446 On ch=3 n=70 v=78
40470 On ch=3 n=74 v=0
40582 On ch=3 n=67 v=78
40600 On ch=3 n=70 v=0
41244 On ch=3 n=67 v=0
41428 On ch=3 n=62 v=0
41430 On ch=3 n=58 v=0
41432 On ch=3 n=55 v=0
41452 On ch=3 n=55 v=78
41452 On ch=3 n=64 v=78
41836 On ch=3 n=79 v=78
42028 On ch=3 n=81 v=78
42048 On ch=3 n=79 v=0
42220 On ch=3 n=89 v=78
42270 On ch=3 n=81 v=0
42412 On ch=3 n=88 v=78
42440 On ch=3 n=89 v=0
42796 On ch=3 n=79 v=78
42808 On ch=3 n=88 v=0
42976 On ch=3 n=79 v=0
42988 On ch=3 n=57 v=78
42988 On ch=3 n=85 v=78
43010 On ch=3 n=55 v=0
43564 On ch=3 n=88 v=78
43582 On ch=3 n=85 v=0
43756 On ch=3 n=55 v=78
43756 On ch=3 n=86 v=78
43780 On ch=3 n=88 v=0
43792 On ch=3 n=57 v=0
44292 On ch=3 n=64 v=0
44400 On ch=3 n=55 v=0
44412 On ch=3 n=86 v=0
44524 On ch=3 n=58 v=78
44524 On ch=3 n=60 v=78
44524 On ch=3 n=63 v=78
44524 On ch=3 n=67 v=78
44524 On ch=3 n=72 v=78
44524 On ch=3 n=91 v=78
46032 On ch=3 n=60 v=0
46048 On ch=3 n=67 v=0
46048 On ch=3 n=58 v=0
46054 On ch=3 n=63 v=0
46060 On ch=3 n=73 v=78
46060 On ch=3 n=77 v=78
46060 On ch=3 n=82 v=78
46060 On ch=3 n=90 v=78
46072 On ch=3 n=72 v=0
46104 On ch=3 n=91 v=0
46828 On ch=3 n=78 v=78
46854 On ch=3 n=77 v=0
47554 On ch=3 n=82 v=0
47554 On ch=3 n=73 v=0
47568 On ch=3 n=78 v=0
47596 On ch=3 n=58 v=78
47596 On ch=3 n=65 v=78
47596 On ch=3 n=69 v=78
47596 On ch=3 n=74 v=78
47596 On ch=3 n=89 v=78
47630 On ch=3 n=90 v=0
48322 On ch=3 n=58 v=0
48328 On ch=3 n=69 v=0
48332 On ch=3 n=65 v=0
48334 On ch=3 n=74 v=0
48364 On ch=3 n=63 v=78
48364 On ch=3 n=65 v=78
48364 On ch=3 n=68 v=78
48364 On ch=3 n=72 v=78
49064 On ch=3 n=68 v=0
49070 On ch=3 n=63 v=0
49082 On ch=3 n=65 v=0
49096 On ch=3 n=72 v=0
49132 On ch=3 n=59 v=78
49132 On ch=3 n=64 v=78
49132 On ch=3 n=71 v=78
49132 On ch=3 n=83 v=78
49196 On ch=3 n=89 v=0
50578 On ch=3 n=83 v=0
50620 On ch=3 n=71 v=0
50620 On ch=3 n=64 v=0
50622 On ch=3 n=59 v=0
50668 On ch=3 n=74 v=78
50668 On ch=3 n=79 v=78
50668 On ch=3 n=82 v=78
51436 On ch=3 n=52 v=78
51436 On ch=3 n=55 v=78
51436 On ch=3 n=58 v=78
51436 On ch=3 n=62 v=78
51436 On ch=3 n=81 v=78
51468 On ch=3 n=79 v=0
51480 On ch=3 n=74 v=0
51482 On ch=3 n=82 v=0
52126 On ch=3 n=52 v=0
52130 On ch=3 n=58 v=0
52136 On ch=3 n=62 v=0
52136 On ch=3 n=55 v=0
52138 On ch=3 n=81 v=0
52204 On ch=3 n=70 v=78
52204 On ch=3 n=72 v=78
52204 On ch=3 n=75 v=78
52204 On ch=3 n=79 v=78
52928 On ch=3 n=79 v=0
52928 On ch=3 n=70 v=0
52972 On ch=3 n=63 v=78
52972 On ch=3 n=67 v=78
52972 On ch=3 n=70 v=78
52972 On ch=3 n=77 v=78
52992 On ch=3 n=75 v=0
52992 On ch=3 n=72 v=0
53630 On ch=3 n=77 v=0
53684 On ch=3 n=70 v=0
53686 On ch=3 n=67 v=0
53692 On ch=3 n=63 v=0
53740 On ch=3 n=65 v=78
54124 On ch=3 n=74 v=78
54188 On ch=3 n=65 v=0
54316 On ch=3 n=77 v=78
54340 On ch=3 n=74 v=0
54488 On ch=3 n=77 v=0
54508 On ch=3 n=81 v=78
54636 On ch=3 n=82 v=78
54638 On ch=3 n=81 v=0
54746 On ch=3 n=82 v=0
54764 On ch=3 n=79 v=78
54888 On ch=3 n=79 v=0
54892 On ch=3 n=81 v=78
55020 On ch=3 n=82 v=78
55050 On ch=3 n=81 v=0
55136 On ch=3 n=82 v=0
55148 On ch=3 n=84 v=78
55276 On ch=3 n=85 v=78
55282 On ch=3 n=84 v=0
55660 On ch=3 n=89 v=78
55674 On ch=3 n=85 v=0
55852 On ch=3 n=87 v=78
55870 On ch=3 n=89 v=0
56044 On ch=3 n=80 v=78
56062 On ch=3 n=87 v=0
56712 On ch=3 n=80 v=0
56812 On ch=3 n=49 v=78
56812 On ch=3 n=56 v=78
56812 On ch=3 n=65 v=78
56812 On ch=3 n=72 v=78
59804 On ch=3 n=65 v=0
59808 On ch=3 n=56 v=0
59816 On ch=3 n=49 v=0
59820 On ch=3 n=72 v=0
59884 On ch=3 n=64 v=78
59884 On ch=3 n=67 v=78
59884 On ch=3 n=72 v=78
62850 On ch=3 n=72 v=0
62864 On ch=3 n=67 v=0
62876 On ch=3 n=64 v=0
62956 On ch=3 n=65 v=78
62956 On ch=3 n=70 v=78
62956 On ch=3 n=73 v=78
63088 Par ch=3 c=64 v=127
63256 On ch=3 n=70 v=0
63280 On ch=3 n=65 v=0
63286 On ch=3 n=73 v=0
63300 Par ch=3 c=64 v=0
63340 On ch=3 n=72 v=78
63340 On ch=3 n=75 v=78
63450 Par ch=3 c=64 v=127
63630 On ch=3 n=75 v=0
63632 On ch=3 n=72 v=0
63682 Par ch=3 c=64 v=0
63724 On ch=3 n=66 v=78
63724 On ch=3 n=70 v=78
63724 On ch=3 n=73 v=78
63724 On ch=3 n=77 v=78
65982 On ch=3 n=73 v=0
65992 On ch=3 n=66 v=0
65992 On ch=3 n=70 v=0
65996 On ch=3 n=77 v=0
66028 On ch=3 n=65 v=78
66028 On ch=3 n=69 v=78
66028 On ch=3 n=72 v=78
68936 On ch=3 n=69 v=0
68942 On ch=3 n=72 v=0
68942 On ch=3 n=65 v=0
69100 On ch=3 n=56 v=78
69100 On ch=3 n=59 v=78
69100 On ch=3 n=63 v=78
69100 On ch=3 n=66 v=78
69100 On ch=3 n=70 v=78
69868 On ch=3 n=87 v=78
70598 On ch=3 n=66 v=0
70600 On ch=3 n=56 v=0
70604 On ch=3 n=59 v=0
70604 On ch=3 n=63 v=0
70622 On ch=3 n=70 v=0
70636 On ch=3 n=59 v=78
70636 On ch=3 n=62 v=78
70636 On ch=3 n=66 v=78
70636 On ch=3 n=74 v=78
70636 On ch=3 n=86 v=78
70648 On ch=3 n=87 v=0
71404 On ch=3 n=93 v=78
71446 On ch=3 n=86 v=0
72096 On ch=3 n=62 v=0
72106 On ch=3 n=59 v=0
72118 On ch=3 n=66 v=0
72132 On ch=3 n=74 v=0
72172 On ch=3 n=70 v=78
72172 On ch=3 n=73 v=78
72172 On ch=3 n=77 v=78
72172 On ch=3 n=92 v=78
72184 On ch=3 n=93 v=0
73656 On ch=3 n=77 v=0
73658 On ch=3 n=70 v=0
73664 On ch=3 n=73 v=0
73708 On ch=3 n=63 v=78
73708 On ch=3 n=67 v=78
73708 On ch=3 n=73 v=78
73708 On ch=3 n=75 v=78
73708 On ch=3 n=79 v=78
73708 On ch=3 n=91 v=78
73774 On ch=3 n=92 v=0
75048 On ch=3 n=91 v=0
75102 On ch=3 n=63 v=0
75104 On ch=3 n=67 v=0
75112 On ch=3 n=75 v=0
75116 On ch=3 n=79 v=0
75116 On ch=3 n=73 v=0
75244 On ch=3 n=90 v=78
76396 On ch=3 n=86 v=78
76412 On ch=3 n=90 v=0
76780 On ch=3 n=89 v=78
76784 On ch=3 n=86 v=0
77536 On ch=3 n=89 v=0
77548 On ch=3 n=87 v=78
77874 On ch=3 n=87 v=0
77932 On ch=3 n=92 v=78
78286 On ch=3 n=92 v=0
78316 On ch=3 n=94 v=78
79852 On ch=3 n=81 v=78
79852 On ch=3 n=93 v=78
79858 On ch=3 n=94 v=0
81004 On ch=3 n=80 v=78
81004 On ch=3 n=92 v=78
81014 On ch=3 n=81 v=0
81030 On ch=3 n=93 v=0
81340 On ch=3 n=92 v=0
81344 On ch=3 n=80 v=0
81388 On ch=3 n=41 v=78
81388 On ch=3 n=53 v=78
81388 On ch=3 n=57 v=78
81388 On ch=3 n=60 v=78
81388 On ch=3 n=64 v=78
81388 On ch=3 n=67 v=78
81388 On ch=3 n=91 v=78
82520 On ch=3 n=91 v=0
82540 On ch=3 n=96 v=78
82582 On ch=3 n=53 v=0
82600 On ch=3 n=57 v=0
82622 On ch=3 n=60 v=0
82626 On ch=3 n=64 v=0
82814 On ch=3 n=41 v=0
82846 On ch=3 n=67 v=0
82924 On ch=3 n=84 v=78
82966 On ch=3 n=96 v=0
84224 On ch=3 n=84 v=0
84860 On ch=3 n=76 v=78
85020 On ch=3 n=79 v=78
85056 On ch=3 n=76 v=0
85208 On ch=3 n=86 v=78
85250 On ch=3 n=79 v=0
85400 On ch=3 n=86 v=0
85454 On ch=3 n=79 v=78
85708 On ch=3 n=80 v=78
85732 On ch=3 n=79 v=0
85952 On ch=3 n=88 v=78
85968 On ch=3 n=80 v=0
86236 On ch=3 n=82 v=78
86248 On ch=3 n=88 v=0
86494 On ch=3 n=83 v=78
86510 On ch=3 n=82 v=0
86758 On ch=3 n=91 v=78
86784 On ch=3 n=83 v=0
87146 On ch=3 n=90 v=78
87180 On ch=3 n=91 v=0
87534 On ch=3 n=89 v=78
87540 On ch=3 n=55 v=78
87548 On ch=3 n=58 v=78
87554 On ch=3 n=62 v=78
87560 On ch=3 n=90 v=0
88690 On ch=3 n=81 v=78
88912 On ch=3 n=77 v=78
88940 On ch=3 n=81 v=0
88962 On ch=3 n=89 v=0
89060 On ch=3 n=74 v=78
89086 On ch=3 n=77 v=0
89598 On ch=3 n=70 v=78
89622 On ch=3 n=74 v=0
89734 On ch=3 n=67 v=78
89752 On ch=3 n=70 v=0
90396 On ch=3 n=67 v=0
90580 On ch=3 n=62 v=0
90582 On ch=3 n=58 v=0
90584 On ch=3 n=55 v=0
90604 On ch=3 n=55 v=78
90604 On ch=3 n=64 v=78
90988 On ch=3 n=79 v=78
91180 On ch=3 n=81 v=78
91200 On ch=3 n=79 v=0
91372 On ch=3 n=89 v=78
91422 On ch=3 n=81 v=0
91564 On ch=3 n=88 v=78
91592 On ch=3 n=89 v=0
91948 On ch=3 n=79 v=78
91960 On ch=3 n=88 v=0
92128 On ch=3 n=79 v=0
92140 On ch=3 n=57 v=78
92140 On ch=3 n=85 v=78
92162 On ch=3 n=55 v=0
92716 On ch=3 n=88 v=78
92734 On ch=3 n=85 v=0
92908 On ch=3 n=55 v=78
92908 On ch=3 n=86 v=78
92932 On ch=3 n=88 v=0
92944 On ch=3 n=57 v=0
93444 On ch=3 n=64 v=0
93552 On ch=3 n=55 v=0
93564 On ch=3 n=86 v=0
93676 On ch=3 n=58 v=78
93676 On ch=3 n=60 v=78
93676 On ch=3 n=63 v=78
93676 On ch=3 n=67 v=78
93676 On ch=3 n=72 v=78
93676 On ch=3 n=91 v=78
95184 On ch=3 n=60 v=0
95200 On ch=3 n=67 v=0
95200 On ch=3 n=58 v=0
95206 On ch=3 n=63 v=0
95212 On ch=3 n=73 v=78
95212 On ch=3 n=77 v=78
95212 On ch=3 n=82 v=78
95212 On ch=3 n=90 v=78
95224 On ch=3 n=72 v=0
95256 On ch=3 n=91 v=0
95980 On ch=3 n=78 v=78
96006 On ch=3 n=77 v=0
96706 On ch=3 n=82 v=0
96706 On ch=3 n=73 v=0
96720 On ch=3 n=78 v=0
96748 On ch=3 n=58 v=78
96748 On ch=3 n=65 v=78
96748 On ch=3 n=69 v=78
96748 On ch=3 n=74 v=78
96748 On ch=3 n=89 v=78
96782 On ch=3 n=90 v=0
97474 On ch=3 n=58 v=0
97480 On ch=3 n=69 v=0
97484 On ch=3 n=65 v=0
97486 On ch=3 n=74 v=0
97516 On ch=3 n=63 v=78
97516 On ch=3 n=65 v=78
97516 On ch=3 n=68 v=78
97516 On ch=3 n=72 v=78
98216 On ch=3 n=68 v=0
98222 On ch=3 n=63 v=0
98234 On ch=3 n=65 v=0
98248 On ch=3 n=72 v=0
98284 On ch=3 n=59 v=78
98284 On ch=3 n=64 v=78
98284 On ch=3 n=71 v=78
98284 On ch=3 n=83 v=78
98348 On ch=3 n=89 v=0
99730 On ch=3 n=83 v=0
99772 On ch=3 n=71 v=0
99772 On ch=3 n=64 v=0
99774 On ch=3 n=59 v=0
99820 On ch=3 n=74 v=78
99820 On ch=3 n=79 v=78
99820 On ch=3 n=82 v=78
100588 On ch=3 n=52 v=78
100588 On ch=3 n=55 v=78
100588 On ch=3 n=58 v=78
100588 On ch=3 n=62 v=78
100588 On ch=3 n=81 v=78
100620 On ch=3 n=79 v=0
100632 On ch=3 n=74 v=0
100634 On ch=3 n=82 v=0
101278 On ch=3 n=52 v=0
101282 On ch=3 n=58 v=0
101288 On ch=3 n=62 v=0
101288 On ch=3 n=55 v=0
101290 On ch=3 n=81 v=0
101356 On ch=3 n=72 v=78
101356 On ch=3 n=75 v=78
101356 On ch=3 n=79 v=78
102690 On ch=3 n=72 v=0
102736 On ch=3 n=75 v=0
102790 On ch=3 n=79 v=0
102892 On ch=3 n=53 v=78
102892 On ch=3 n=60 v=78
102892 On ch=3 n=65 v=78
102892 On ch=3 n=69 v=78
102892 On ch=3 n=74 v=78
104176 On ch=3 n=60 v=0
104180 On ch=3 n=53 v=0
104184 On ch=3 n=65 v=0
104198 On ch=3 n=69 v=0
104224 On ch=3 n=74 v=0
104428 On ch=3 n=46 v=78
104428 On ch=3 n=58 v=78
104428 On ch=3 n=65 v=78
104428 On ch=3 n=70 v=78
104428 On ch=3 n=74 v=78
105158 On ch=3 n=58 v=0
105164 On ch=3 n=70 v=0
105164 On ch=3 n=65 v=0
105174 On ch=3 n=74 v=0
105196 On ch=3 n=42 v=78
105196 On ch=3 n=61 v=78
105196 On ch=3 n=65 v=78
105196 On ch=3 n=68 v=78
105232 On ch=3 n=46 v=0
105900 On ch=3 n=65 v=0
105904 On ch=3 n=61 v=0
105912 On ch=3 n=68 v=0
105964 On ch=3 n=40 v=78
105964 On ch=3 n=71 v=78
105964 On ch=3 n=76 v=78
105964 On ch=3 n=80 v=78
105976 On ch=3 n=42 v=0
106694 On ch=3 n=71 v=0
106700 On ch=3 n=76 v=0
106718 On ch=3 n=80 v=0
106732 On ch=3 n=44 v=78
106732 On ch=3 n=75 v=78
106732 On ch=3 n=80 v=78
106732 On ch=3 n=84 v=78
106768 On ch=3 n=40 v=0
107442 On ch=3 n=75 v=0
107448 On ch=3 n=80 v=0
107458 On ch=3 n=84 v=0
107956 On ch=3 n=44 v=0
108268 On ch=3 n=46 v=78
108268 On ch=3 n=60 v=78
108268 On ch=3 n=62 v=78
108268 On ch=3 n=65 v=78
108268 On ch=3 n=84 v=78
108268 On ch=3 n=89 v=78
111752 On ch=3 n=84 v=0
111768 On ch=3 n=89 v=0
111778 On ch=3 n=65 v=0
111780 On ch=3 n=60 v=0
111790 On ch=3 n=46 v=0
111792 On ch=3 n=62 v=0
111792 Meta TrkEnd
TrkEnd
MTrk
0 Meta 0x21 00
0 Meta TrkName "Sax     "
0 PrCh ch=4 p=66
0 Par ch=4 c=7 v=127
0 Par ch=4 c=10 v=79
96 Par ch=4 c=121 v=0
240 Par ch=4 c=91 v=100
264 Par ch=4 c=93 v=10
57570 Pb ch=4 v=7854
57578 Pb ch=4 v=7010
57586 Pb ch=4 v=6588
57592 Pb ch=4 v=5997
57600 On ch=4 n=56 v=112
57600 Pb ch=4 v=5659
57616 Pb ch=4 v=5237
57624 Pb ch=4 v=4899
57670 Pb ch=4 v=5321
57678 Pb ch=4 v=5912
57684 Pb ch=4 v=6503
57692 Pb ch=4 v=6925
57700 Pb ch=4 v=7348
57708 Pb ch=4 v=7770
57716 Pb ch=4 v=8192
57792 On ch=4 n=56 v=0
57856 On ch=4 n=58 v=112
58112 On ch=4 n=56 v=112
58128 On ch=4 n=58 v=0
58216 On ch=4 n=56 v=0
58240 On ch=4 n=58 v=112
58352 On ch=4 n=58 v=0
58368 On ch=4 n=60 v=112
59116 On ch=4 n=60 v=0
60358 Pb ch=4 v=7179
60364 Pb ch=4 v=6165
60372 Pb ch=4 v=5321
60380 Pb ch=4 v=3886
60388 Pb ch=4 v=2957
60396 Pb ch=4 v=2619
60416 On ch=4 n=57 v=112
60452 Pb ch=4 v=3041
60460 Pb ch=4 v=4392
60468 Pb ch=4 v=5997
60476 Pb ch=4 v=8192
60528 On ch=4 n=57 v=0
60544 On ch=4 n=58 v=112
60656 On ch=4 n=58 v=0
60672 On ch=4 n=63 v=112
61144 On ch=4 n=63 v=0
61184 On ch=4 n=62 v=112
61288 On ch=4 n=62 v=0
61312 On ch=4 n=61 v=112
61438 On ch=4 n=61 v=0
61440 On ch=4 n=60 v=112
62574 On ch=4 n=60 v=0
63744 On ch=4 n=61 v=112
63952 On ch=4 n=61 v=0
64000 On ch=4 n=63 v=112
64200 On ch=4 n=63 v=0
64256 On ch=4 n=63 v=112
64358 On ch=4 n=63 v=0
64384 On ch=4 n=68 v=112
64496 On ch=4 n=68 v=0
64512 On ch=4 n=65 v=112
65402 On ch=4 n=65 v=0
65408 On ch=4 n=63 v=112
65536 On ch=4 n=63 v=0
65536 On ch=4 n=61 v=112
65664 On ch=4 n=63 v=112
65680 On ch=4 n=61 v=0
65904 On ch=4 n=63 v=0
65920 On ch=4 n=61 v=112
66016 On ch=4 n=61 v=0
66498 Pb ch=4 v=7770
66506 Pb ch=4 v=6672
66514 Pb ch=4 v=5743
66520 Pb ch=4 v=5068
66528 Pb ch=4 v=4561
66536 Pb ch=4 v=4055
66560 On ch=4 n=72 v=112
66570 Pb ch=4 v=4477
66578 Pb ch=4 v=5743
66586 Pb ch=4 v=7770
66594 Pb ch=4 v=8192
66688 On ch=4 n=71 v=112
66704 On ch=4 n=72 v=0
66798 On ch=4 n=71 v=0
66816 On ch=4 n=70 v=112
67048 On ch=4 n=70 v=0
67072 On ch=4 n=68 v=112
67206 On ch=4 n=68 v=0
67328 On ch=4 n=65 v=112
67446 On ch=4 n=65 v=0
67456 On ch=4 n=63 v=112
67566 On ch=4 n=63 v=0
67584 On ch=4 n=60 v=112
67688 On ch=4 n=60 v=0
67712 On ch=4 n=59 v=112
67830 On ch=4 n=59 v=0
67840 On ch=4 n=58 v=112
68928 On ch=4 n=58 v=0
69120 On ch=4 n=70 v=112
69722 Par ch=4 c=1 v=2
69746 Par ch=4 c=1 v=4
69840 Par ch=4 c=1 v=6
69856 Par ch=4 c=1 v=8
69878 Par ch=4 c=1 v=10
69886 Par ch=4 c=1 v=12
69932 Par ch=4 c=1 v=15
70032 Par ch=4 c=1 v=17
70056 Par ch=4 c=1 v=19
70088 Par ch=4 c=1 v=22
70126 Par ch=4 c=1 v=24
70134 Par ch=4 c=1 v=28
70148 Par ch=4 c=1 v=30
70164 Par ch=4 c=1 v=32
70264 Par ch=4 c=1 v=25
70272 Par ch=4 c=1 v=10
70280 Par ch=4 c=1 v=2
70288 Par ch=4 c=1 v=0
70400 On ch=4 n=68 v=112
70450 On ch=4 n=70 v=0
70522 On ch=4 n=68 v=0
70528 On ch=4 n=66 v=112
70652 On ch=4 n=66 v=0
70656 On ch=4 n=62 v=112
70696 Pb ch=4 v=7854
70704 Pb ch=4 v=7263
70712 Pb ch=4 v=7010
70734 Pb ch=4 v=7094
70742 Pb ch=4 v=7348
70750 Pb ch=4 v=8108
70758 Pb ch=4 v=8192
70768 On ch=4 n=62 v=0
70784 On ch=4 n=61 v=112
70912 On ch=4 n=61 v=0
70912 On ch=4 n=59 v=112
71944 On ch=4 n=59 v=0
72448 On ch=4 n=68 v=112
72630 On ch=4 n=68 v=0
72704 On ch=4 n=68 v=112
72876 On ch=4 n=68 v=0
72960 On ch=4 n=68 v=112
73308 On ch=4 n=68 v=0
73344 On ch=4 n=66 v=112
73464 On ch=4 n=66 v=0
73472 On ch=4 n=61 v=112
73576 On ch=4 n=61 v=0
73600 On ch=4 n=58 v=112
73716 On ch=4 n=58 v=0
73728 On ch=4 n=55 v=112
74376 On ch=4 n=55 v=0
75904 On ch=4 n=58 v=112
76032 On ch=4 n=63 v=112
76038 On ch=4 n=58 v=0
76162 On ch=4 n=63 v=0
76288 On ch=4 n=63 v=112
76506 On ch=4 n=63 v=0
76544 On ch=4 n=65 v=112
76650 On ch=4 n=65 v=0
76672 On ch=4 n=68 v=112
76792 On ch=4 n=68 v=0
76800 On ch=4 n=65 v=112
77232 On ch=4 n=65 v=0
77312 On ch=4 n=65 v=112
77426 On ch=4 n=65 v=0
77440 On ch=4 n=64 v=112
77568 On ch=4 n=63 v=112
77582 On ch=4 n=64 v=0
77952 On ch=4 n=63 v=0
78080 On ch=4 n=65 v=112
78184 On ch=4 n=65 v=0
78208 On ch=4 n=68 v=112
78318 On ch=4 n=68 v=0
78336 On ch=4 n=70 v=112
78504 On ch=4 n=70 v=0
78592 On ch=4 n=70 v=112
78762 On ch=4 n=70 v=0
78848 On ch=4 n=70 v=112
78962 On ch=4 n=70 v=0
78976 On ch=4 n=73 v=112
79104 On ch=4 n=73 v=0
79104 On ch=4 n=70 v=112
79586 On ch=4 n=70 v=0
79616 On ch=4 n=70 v=112
79712 On ch=4 n=70 v=0
79744 On ch=4 n=73 v=112
79844 On ch=4 n=73 v=0
79872 On ch=4 n=72 v=112
80062 On ch=4 n=72 v=0
80128 On ch=4 n=71 v=112
80336 On ch=4 n=71 v=0
80384 On ch=4 n=70 v=112
80506 On ch=4 n=70 v=0
80512 On ch=4 n=62 v=112
80630 On ch=4 n=62 v=0
80640 On ch=4 n=69 v=112
81024 On ch=4 n=68 v=112
81044 On ch=4 n=69 v=0
81292 On ch=4 n=68 v=0
108316 On ch=4 n=46 v=43
109610 On ch=4 n=48 v=53
109620 On ch=4 n=46 v=0
109880 On ch=4 n=50 v=59
109886 On ch=4 n=48 v=0
111696 On ch=4 n=50 v=0
111696 Meta TrkEnd
TrkEnd
MTrk
0 Meta 0x21 00
0 Meta TrkName "Piano   "
0 PrCh ch=5 p=0
0 Par ch=5 c=7 v=115
0 Par ch=5 c=10 v=84
96 Par ch=5 c=121 v=0
240 Par ch=5 c=91 v=90
264 Par ch=5 c=93 v=10
1536 On ch=5 n=53 v=110
1536 On ch=5 n=57 v=117
1536 On ch=5 n=60 v=121
1536 On ch=5 n=64 v=117
1536 On ch=5 n=69 v=117
1600 Par ch=5 c=64 v=127
1666 On ch=5 n=57 v=0
1672 On ch=5 n=60 v=0
1684 On ch=5 n=64 v=0
1688 On ch=5 n=53 v=0
1694 Par ch=5 c=64 v=127
1792 On ch=5 n=69 v=0
1792 On ch=5 n=53 v=93
1792 On ch=5 n=57 v=89
1792 On ch=5 n=60 v=97
1792 On ch=5 n=64 v=112
1792 On ch=5 n=67 v=104
1792 On ch=5 n=70 v=101
1854 Par ch=5 c=64 v=0
1860 On ch=5 n=60 v=0
1864 On ch=5 n=67 v=0
1866 On ch=5 n=64 v=0
1882 On ch=5 n=57 v=0
1884 On ch=5 n=53 v=0
1886 On ch=5 n=70 v=0
1920 On ch=5 n=53 v=108
1920 On ch=5 n=57 v=99
1920 On ch=5 n=60 v=104
1920 On ch=5 n=64 v=110
1920 On ch=5 n=67 v=108
1920 On ch=5 n=70 v=108
2000 Par ch=5 c=64 v=127
2076 On ch=5 n=57 v=0
2080 On ch=5 n=53 v=0
2092 On ch=5 n=60 v=0
2102 On ch=5 n=67 v=0
2106 On ch=5 n=64 v=0
2106 Par ch=5 c=64 v=0
2136 On ch=5 n=70 v=0
2166 Par ch=5 c=64 v=127
2176 On ch=5 n=53 v=97
2176 On ch=5 n=57 v=101
2176 On ch=5 n=60 v=93
2176 On ch=5 n=64 v=108
2176 On ch=5 n=69 v=110
2176 On ch=5 n=72 v=106
2244 Par ch=5 c=64 v=0
2248 On ch=5 n=60 v=0
2256 On ch=5 n=69 v=0
2262 On ch=5 n=57 v=0
2264 On ch=5 n=53 v=0
2264 On ch=5 n=64 v=0
2272 On ch=5 n=72 v=0
2304 On ch=5 n=53 v=110
2304 On ch=5 n=57 v=110
2304 On ch=5 n=60 v=112
2304 On ch=5 n=64 v=119
2304 On ch=5 n=69 v=121
2304 On ch=5 n=72 v=124
2884 Par ch=5 c=64 v=0
2888 On ch=5 n=72 v=0
2888 On ch=5 n=57 v=0
2900 On ch=5 n=53 v=0
2904 On ch=5 n=60 v=0
2910 On ch=5 n=64 v=0
2918 On ch=5 n=69 v=0
3022 Par ch=5 c=64 v=127
3072 On ch=5 n=58 v=119
3072 On ch=5 n=62 v=114
3072 On ch=5 n=65 v=121
3072 On ch=5 n=67 v=117
3072 On ch=5 n=70 v=106
3242 Par ch=5 c=64 v=0
3296 Par ch=5 c=64 v=127
3316 On ch=5 n=65 v=0
3318 On ch=5 n=62 v=0
3322 On ch=5 n=58 v=0
3322 On ch=5 n=67 v=0
3322 On ch=5 n=70 v=0
3328 On ch=5 n=65 v=106
3328 On ch=5 n=67 v=87
3328 On ch=5 n=69 v=91
3328 On ch=5 n=72 v=104
3328 On ch=5 n=76 v=87
3360 Par ch=5 c=64 v=127
3384 On ch=5 n=65 v=0
3390 On ch=5 n=76 v=0
3392 On ch=5 n=67 v=0
3394 On ch=5 n=69 v=0
3398 On ch=5 n=72 v=0
3456 On ch=5 n=65 v=117
3456 On ch=5 n=67 v=106
3456 On ch=5 n=69 v=112
3456 On ch=5 n=72 v=119
3456 On ch=5 n=76 v=108
3576 On ch=5 n=76 v=0
3576 On ch=5 n=67 v=0
3582 On ch=5 n=69 v=0
3584 On ch=5 n=72 v=0
3594 On ch=5 n=65 v=0
3608 Par ch=5 c=64 v=0
3680 Par ch=5 c=64 v=0
3684 Par ch=5 c=64 v=127
3712 On ch=5 n=65 v=95
3712 On ch=5 n=67 v=91
3712 On ch=5 n=70 v=87
3712 On ch=5 n=74 v=104
3718 Par ch=5 c=64 v=127
3784 On ch=5 n=67 v=0
3792 On ch=5 n=65 v=0
3792 On ch=5 n=74 v=0
3804 On ch=5 n=70 v=0
3840 On ch=5 n=65 v=87
3840 On ch=5 n=67 v=95
3840 On ch=5 n=70 v=91
3840 On ch=5 n=74 v=104
4026 On ch=5 n=74 v=0
4026 On ch=5 n=67 v=0
4028 On ch=5 n=70 v=0
4030 On ch=5 n=65 v=0
4436 Par ch=5 c=64 v=0
4462 Par ch=5 c=64 v=0
4536 Par ch=5 c=64 v=127
4608 On ch=5 n=65 v=108
4608 On ch=5 n=69 v=119
4608 On ch=5 n=72 v=114
4608 On ch=5 n=76 v=127
4816 On ch=5 n=69 v=0
4824 On ch=5 n=65 v=0
4824 Par ch=5 c=64 v=0
4826 On ch=5 n=72 v=0
4826 On ch=5 n=76 v=0
4864 On ch=5 n=65 v=70
4864 On ch=5 n=67 v=70
4864 On ch=5 n=70 v=97
4864 On ch=5 n=74 v=106
4864 On ch=5 n=77 v=114
4866 Par ch=5 c=64 v=127
4912 On ch=5 n=67 v=0
4912 On ch=5 n=65 v=0
4926 On ch=5 n=70 v=0
4928 On ch=5 n=74 v=0
4940 On ch=5 n=77 v=0
4944 Par ch=5 c=64 v=127
4992 On ch=5 n=65 v=101
4992 On ch=5 n=67 v=106
4992 On ch=5 n=70 v=106
4992 On ch=5 n=74 v=119
4992 On ch=5 n=77 v=123
5014 On ch=5 n=67 v=0
5062 On ch=5 n=70 v=0
5070 On ch=5 n=65 v=0
5072 On ch=5 n=74 v=0
5152 Par ch=5 c=64 v=0
5188 On ch=5 n=77 v=0
5200 Par ch=5 c=64 v=0
5200 Par ch=5 c=64 v=127
5222 Par ch=5 c=64 v=127
5248 On ch=5 n=69 v=114
5248 On ch=5 n=72 v=104
5248 On ch=5 n=76 v=114
5248 On ch=5 n=79 v=118
5316 On ch=5 n=79 v=0
5320 Par ch=5 c=64 v=0
5360 On ch=5 n=69 v=0
5364 On ch=5 n=76 v=0
5366 On ch=5 n=72 v=0
5376 On ch=5 n=59 v=104
5376 On ch=5 n=62 v=106
5376 On ch=5 n=65 v=101
5376 On ch=5 n=68 v=97
5376 On ch=5 n=71 v=106
5376 On ch=5 n=74 v=123
5438 Par ch=5 c=64 v=0
5550 Par ch=5 c=64 v=127
5570 On ch=5 n=74 v=0
5572 On ch=5 n=62 v=0
5574 On ch=5 n=59 v=0
5580 On ch=5 n=71 v=0
5584 On ch=5 n=65 v=0
5584 On ch=5 n=68 v=0
5584 Par ch=5 c=64 v=127
5632 On ch=5 n=59 v=89
5632 On ch=5 n=62 v=95
5632 On ch=5 n=65 v=83
5632 On ch=5 n=68 v=87
5632 On ch=5 n=71 v=93
5632 On ch=5 n=76 v=114
5654 Par ch=5 c=64 v=0
5694 On ch=5 n=62 v=0
5694 On ch=5 n=59 v=0
5704 On ch=5 n=76 v=0
5718 On ch=5 n=71 v=0
5720 On ch=5 n=65 v=0
5720 On ch=5 n=68 v=0
5760 On ch=5 n=59 v=89
5760 On ch=5 n=62 v=89
5760 On ch=5 n=65 v=80
5760 On ch=5 n=68 v=87
5760 On ch=5 n=71 v=99
5760 On ch=5 n=76 v=123
5938 On ch=5 n=62 v=0
5938 On ch=5 n=59 v=0
5938 Par ch=5 c=64 v=0
5944 On ch=5 n=71 v=0
5946 On ch=5 n=68 v=0
5948 On ch=5 n=76 v=0
5948 On ch=5 n=65 v=0
5992 Par ch=5 c=64 v=127
6016 On ch=5 n=59 v=110
6016 On ch=5 n=62 v=106
6016 Par ch=5 c=64 v=127
6016 On ch=5 n=65 v=101
6016 On ch=5 n=68 v=106
6016 On ch=5 n=71 v=117
6016 On ch=5 n=77 v=116
6072 On ch=5 n=77 v=0
6112 On ch=5 n=62 v=0
6112 Par ch=5 c=64 v=0
6114 On ch=5 n=59 v=0
6116 On ch=5 n=68 v=0
6118 On ch=5 n=65 v=0
6124 On ch=5 n=71 v=0
6144 On ch=5 n=55 v=106
6144 On ch=5 n=58 v=93
6144 On ch=5 n=62 v=99
6144 On ch=5 n=65 v=108
6144 On ch=5 n=67 v=119
6144 On ch=5 n=70 v=116
6206 Par ch=5 c=64 v=0
6290 On ch=5 n=70 v=0
6296 Par ch=5 c=64 v=127
6318 On ch=5 n=65 v=0
6324 On ch=5 n=55 v=0
6324 Par ch=5 c=64 v=127
6340 On ch=5 n=62 v=0
6342 On ch=5 n=58 v=0
6342 On ch=5 n=67 v=0
6394 Par ch=5 c=64 v=0
6400 On ch=5 n=55 v=93
6400 On ch=5 n=58 v=87
6400 On ch=5 n=62 v=87
6400 On ch=5 n=65 v=85
6400 On ch=5 n=70 v=97
6400 On ch=5 n=72 v=116
6470 On ch=5 n=72 v=0
6482 On ch=5 n=65 v=0
6486 On ch=5 n=55 v=0
6488 On ch=5 n=58 v=0
6496 On ch=5 n=62 v=0
6496 On ch=5 n=70 v=0
6528 On ch=5 n=55 v=99
6528 On ch=5 n=58 v=89
6528 On ch=5 n=62 v=82
6528 On ch=5 n=65 v=104
6528 On ch=5 n=70 v=106
6528 On ch=5 n=72 v=127
6572 Par ch=5 c=64 v=127
6694 On ch=5 n=55 v=0
6696 On ch=5 n=62 v=0
6696 On ch=5 n=72 v=0
6698 On ch=5 n=58 v=0
6712 On ch=5 n=65 v=0
6718 On ch=5 n=70 v=0
6728 Par ch=5 c=64 v=0
6784 On ch=5 n=55 v=104
6784 On ch=5 n=58 v=91
6784 On ch=5 n=62 v=104
6784 On ch=5 n=65 v=101
6784 On ch=5 n=70 v=108
6784 On ch=5 n=74 v=127
6800 Par ch=5 c=64 v=0
6844 On ch=5 n=74 v=0
6844 Par ch=5 c=64 v=127
6874 On ch=5 n=70 v=0
6876 On ch=5 n=65 v=0
6880 On ch=5 n=58 v=0
6884 On ch=5 n=55 v=0
6888 On ch=5 n=62 v=0
6900 Par ch=5 c=64 v=127
6908 Par ch=5 c=64 v=0
6912 On ch=5 n=58 v=106
6912 On ch=5 n=60 v=117
6912 On ch=5 n=65 v=108
6912 On ch=5 n=67 v=127
6912 On ch=5 n=74 v=119
7032 Par ch=5 c=64 v=127
7076 On ch=5 n=67 v=0
7104 On ch=5 n=60 v=0
7112 On ch=5 n=58 v=0
7120 On ch=5 n=65 v=0
7120 On ch=5 n=74 v=0
7148 Par ch=5 c=64 v=0
7168 On ch=5 n=58 v=76
7168 On ch=5 n=60 v=93
7168 On ch=5 n=65 v=85
7168 On ch=5 n=69 v=118
7168 On ch=5 n=74 v=106
7176 Par ch=5 c=64 v=0
7236 On ch=5 n=69 v=0
7236 On ch=5 n=60 v=0
7240 On ch=5 n=65 v=0
7242 On ch=5 n=58 v=0
7256 On ch=5 n=74 v=0
7264 Par ch=5 c=64 v=127
7296 On ch=5 n=58 v=80
7296 On ch=5 n=60 v=101
7296 On ch=5 n=65 v=91
7296 On ch=5 n=69 v=127
7296 On ch=5 n=74 v=108
7312 Par ch=5 c=64 v=127
7468 On ch=5 n=60 v=0
7472 On ch=5 n=58 v=0
7478 On ch=5 n=69 v=0
7482 On ch=5 n=74 v=0
7488 On ch=5 n=65 v=0
7500 Par ch=5 c=64 v=0
7552 On ch=5 n=58 v=83
7552 On ch=5 n=60 v=106
7552 On ch=5 n=65 v=101
7552 On ch=5 n=70 v=114
7552 On ch=5 n=74 v=119
7632 On ch=5 n=74 v=0
7632 On ch=5 n=65 v=0
7644 On ch=5 n=60 v=0
7648 On ch=5 n=58 v=0
7656 Par ch=5 c=64 v=0
7658 On ch=5 n=70 v=0
7680 On ch=5 n=53 v=104
7680 On ch=5 n=57 v=91
7680 On ch=5 n=60 v=87
7680 On ch=5 n=64 v=104
7680 On ch=5 n=67 v=108
7680 On ch=5 n=69 v=101
7680 On ch=5 n=72 v=108
8832 On ch=5 n=88 v=126
8936 On ch=5 n=89 v=85
8946 On ch=5 n=88 v=0
9032 On ch=5 n=88 v=77
9070 On ch=5 n=89 v=0
9114 On ch=5 n=88 v=0
9130 On ch=5 n=81 v=104
9224 On ch=5 n=81 v=0
9230 On ch=5 n=84 v=83
10338 On ch=5 n=84 v=0
10380 On ch=5 n=60 v=0
10386 On ch=5 n=64 v=0
10396 On ch=5 n=67 v=0
10396 On ch=5 n=69 v=0
10398 On ch=5 n=57 v=0
10406 On ch=5 n=72 v=0
10406 On ch=5 n=53 v=0
10752 On ch=5 n=44 v=87
10752 On ch=5 n=56 v=95
10752 On ch=5 n=59 v=108
10752 On ch=5 n=64 v=106
13082 On ch=5 n=88 v=119
13192 On ch=5 n=89 v=82
13208 On ch=5 n=88 v=0
13296 On ch=5 n=85 v=87
13302 On ch=5 n=89 v=0
13406 On ch=5 n=85 v=0
13408 On ch=5 n=88 v=89
13564 On ch=5 n=44 v=0
13570 On ch=5 n=56 v=0
13582 On ch=5 n=59 v=0
13592 On ch=5 n=64 v=0
13688 On ch=5 n=88 v=0
13824 On ch=5 n=43 v=99
13824 On ch=5 n=55 v=93
13824 On ch=5 n=58 v=83
13824 On ch=5 n=62 v=99
13824 On ch=5 n=65 v=91
13824 On ch=5 n=69 v=101
14822 On ch=5 n=74 v=121
15120 On ch=5 n=77 v=99
15130 On ch=5 n=74 v=0
15200 On ch=5 n=74 v=104
15204 On ch=5 n=77 v=0
15264 On ch=5 n=74 v=0
15276 On ch=5 n=70 v=79
15328 On ch=5 n=67 v=104
15334 On ch=5 n=70 v=0
16044 On ch=5 n=67 v=0
16638 On ch=5 n=65 v=0
16646 On ch=5 n=55 v=0
16652 On ch=5 n=43 v=0
16662 On ch=5 n=62 v=0
16668 On ch=5 n=58 v=0
16676 On ch=5 n=69 v=0
16888 On ch=5 n=59 v=106
16890 On ch=5 n=64 v=110
16896 On ch=5 n=57 v=104
16898 On ch=5 n=53 v=83
18198 On ch=5 n=57 v=0
18274 On ch=5 n=59 v=0
18280 On ch=5 n=53 v=0
18286 On ch=5 n=64 v=0
18832 On ch=5 n=88 v=104
18920 On ch=5 n=91 v=68
18924 On ch=5 n=88 v=0
18980 On ch=5 n=90 v=69
19028 On ch=5 n=91 v=0
19092 On ch=5 n=89 v=88
19102 On ch=5 n=90 v=0
19208 On ch=5 n=88 v=91
19226 On ch=5 n=89 v=0
19392 On ch=5 n=88 v=0
19392 On ch=5 n=86 v=91
19706 On ch=5 n=84 v=78
19712 On ch=5 n=86 v=0
19840 On ch=5 n=83 v=76
19846 On ch=5 n=84 v=0
19906 On ch=5 n=83 v=0
19968 On ch=5 n=48 v=93
19968 On ch=5 n=58 v=82
19968 On ch=5 n=63 v=87
19968 On ch=5 n=67 v=99
19968 On ch=5 n=84 v=108
20108 Par ch=5 c=64 v=127
20386 On ch=5 n=58 v=0
20458 On ch=5 n=63 v=0
20480 On ch=5 n=58 v=104
20526 On ch=5 n=67 v=0
20588 On ch=5 n=58 v=0
20608 On ch=5 n=63 v=104
20700 On ch=5 n=63 v=0
20736 On ch=5 n=67 v=110
20812 On ch=5 n=67 v=0
20912 On ch=5 n=84 v=0
21120 On ch=5 n=72 v=121
21134 On ch=5 n=48 v=0
21174 On ch=5 n=72 v=0
21446 Par ch=5 c=64 v=0
21504 On ch=5 n=39 v=85
21504 On ch=5 n=58 v=99
21504 On ch=5 n=63 v=72
21504 On ch=5 n=66 v=77
21504 On ch=5 n=70 v=91
22060 Par ch=5 c=64 v=127
22154 On ch=5 n=63 v=0
22162 On ch=5 n=58 v=0
22164 On ch=5 n=70 v=0
22176 On ch=5 n=66 v=0
22272 On ch=5 n=70 v=104
22350 On ch=5 n=70 v=0
22528 On ch=5 n=75 v=114
22584 On ch=5 n=75 v=0
22784 On ch=5 n=82 v=104
22824 On ch=5 n=82 v=0
22888 On ch=5 n=39 v=0
22980 Par ch=5 c=64 v=0
23040 On ch=5 n=58 v=85
23040 On ch=5 n=65 v=82
23040 On ch=5 n=70 v=79
23040 On ch=5 n=74 v=106
23658 On ch=5 n=70 v=0
23666 On ch=5 n=65 v=0
23678 On ch=5 n=58 v=0
23680 On ch=5 n=74 v=0
23824 On ch=5 n=72 v=108
23994 On ch=5 n=72 v=0
23996 On ch=5 n=65 v=104
24192 On ch=5 n=56 v=87
24196 On ch=5 n=65 v=0
24382 On ch=5 n=60 v=93
24544 On ch=5 n=60 v=0
24552 On ch=5 n=56 v=0
24576 On ch=5 n=55 v=61
24576 On ch=5 n=62 v=65
24576 On ch=5 n=65 v=77
24576 On ch=5 n=67 v=76
24576 On ch=5 n=71 v=82
25244 On ch=5 n=62 v=0
25282 On ch=5 n=55 v=0
25366 Par ch=5 c=64 v=127
25472 On ch=5 n=55 v=85
25540 On ch=5 n=65 v=0
25568 On ch=5 n=71 v=0
25580 On ch=5 n=67 v=0
25600 On ch=5 n=62 v=95
25728 On ch=5 n=65 v=95
25840 On ch=5 n=62 v=0
25842 On ch=5 n=55 v=0
25860 On ch=5 n=65 v=0
26016 Par ch=5 c=64 v=0
26112 On ch=5 n=48 v=66
26112 On ch=5 n=58 v=81
26112 On ch=5 n=60 v=72
26112 On ch=5 n=64 v=75
26112 On ch=5 n=67 v=77
26112 On ch=5 n=86 v=106
26240 On ch=5 n=88 v=85
26260 On ch=5 n=86 v=0
26358 On ch=5 n=88 v=0
26368 On ch=5 n=84 v=93
27272 On ch=5 n=84 v=0
28312 On ch=5 n=48 v=0
28320 On ch=5 n=58 v=0
28328 On ch=5 n=64 v=0
28334 On ch=5 n=60 v=0
28344 On ch=5 n=67 v=0
28800 On ch=5 n=55 v=83
28800 On ch=5 n=67 v=89
28800 On ch=5 n=71 v=104
28800 On ch=5 n=75 v=104
29136 On ch=5 n=55 v=0
29144 On ch=5 n=67 v=0
29152 On ch=5 n=71 v=0
29160 On ch=5 n=75 v=0
29184 On ch=5 n=58 v=80
29184 On ch=5 n=60 v=76
29184 On ch=5 n=67 v=81
29184 On ch=5 n=70 v=79
29184 On ch=5 n=72 v=87
29184 On ch=5 n=76 v=83
30544 On ch=5 n=70 v=0
30552 On ch=5 n=60 v=0
30554 On ch=5 n=72 v=0
30558 On ch=5 n=58 v=0
30562 On ch=5 n=67 v=0
30568 On ch=5 n=76 v=0
30720 On ch=5 n=53 v=71
30720 On ch=5 n=56 v=71
30720 On ch=5 n=61 v=61
30720 On ch=5 n=65 v=76
30720 On ch=5 n=68 v=79
30720 On ch=5 n=71 v=78
32030 On ch=5 n=61 v=0
32032 On ch=5 n=56 v=0
32036 On ch=5 n=68 v=0
32038 On ch=5 n=65 v=0
32056 On ch=5 n=71 v=0
32058 On ch=5 n=53 v=0
32256 On ch=5 n=53 v=104
32256 On ch=5 n=57 v=91
32256 On ch=5 n=60 v=87
32256 On ch=5 n=64 v=104
32256 On ch=5 n=67 v=108
32256 On ch=5 n=69 v=101
32256 On ch=5 n=72 v=108
33408 On ch=5 n=88 v=126
33512 On ch=5 n=89 v=85
33522 On ch=5 n=88 v=0
33608 On ch=5 n=88 v=77
33646 On ch=5 n=89 v=0
33690 On ch=5 n=88 v=0
33706 On ch=5 n=81 v=104
33800 On ch=5 n=81 v=0
33806 On ch=5 n=84 v=83
34560 On ch=5 n=84 v=0
34560 On ch=5 n=84 v=91
34816 On ch=5 n=84 v=0
34816 On ch=5 n=81 v=83
34956 On ch=5 n=60 v=0
34962 On ch=5 n=64 v=0
34972 On ch=5 n=67 v=0
34972 On ch=5 n=69 v=0
34974 On ch=5 n=57 v=0
34982 On ch=5 n=53 v=0
34982 On ch=5 n=72 v=0
35056 On ch=5 n=81 v=0
35072 On ch=5 n=79 v=87
35250 On ch=5 n=79 v=0
35328 On ch=5 n=44 v=87
35328 On ch=5 n=56 v=95
35328 On ch=5 n=59 v=108
35328 On ch=5 n=64 v=106
37658 On ch=5 n=88 v=119
37768 On ch=5 n=89 v=82
37784 On ch=5 n=88 v=0
37872 On ch=5 n=85 v=87
37878 On ch=5 n=89 v=0
37982 On ch=5 n=85 v=0
37984 On ch=5 n=88 v=89
38140 On ch=5 n=44 v=0
38146 On ch=5 n=56 v=0
38158 On ch=5 n=59 v=0
38168 On ch=5 n=64 v=0
38264 On ch=5 n=88 v=0
38400 On ch=5 n=43 v=99
38400 On ch=5 n=55 v=93
38400 On ch=5 n=58 v=83
38400 On ch=5 n=62 v=99
38400 On ch=5 n=65 v=91
38400 On ch=5 n=69 v=101
39398 On ch=5 n=74 v=121
39696 On ch=5 n=77 v=99
39706 On ch=5 n=74 v=0
39776 On ch=5 n=74 v=104
39780 On ch=5 n=77 v=0
39840 On ch=5 n=74 v=0
39852 On ch=5 n=70 v=79
39904 On ch=5 n=67 v=104
39910 On ch=5 n=70 v=0
40620 On ch=5 n=67 v=0
41214 On ch=5 n=65 v=0
41222 On ch=5 n=55 v=0
41228 On ch=5 n=43 v=0
41238 On ch=5 n=62 v=0
41244 On ch=5 n=58 v=0
41252 On ch=5 n=69 v=0
41464 On ch=5 n=59 v=106
41466 On ch=5 n=64 v=110
41472 On ch=5 n=57 v=104
41474 On ch=5 n=53 v=83
42774 On ch=5 n=57 v=0
42850 On ch=5 n=59 v=0
42856 On ch=5 n=53 v=0
42862 On ch=5 n=64 v=0
43408 On ch=5 n=88 v=104
43496 On ch=5 n=91 v=68
43500 On ch=5 n=88 v=0
43556 On ch=5 n=90 v=69
43604 On ch=5 n=91 v=0
43668 On ch=5 n=89 v=88
43678 On ch=5 n=90 v=0
43784 On ch=5 n=88 v=91
43802 On ch=5 n=89 v=0
43968 On ch=5 n=88 v=0
43968 On ch=5 n=86 v=91
44282 On ch=5 n=84 v=78
44288 On ch=5 n=86 v=0
44416 On ch=5 n=83 v=76
44422 On ch=5 n=84 v=0
44482 On ch=5 n=83 v=0
44544 On ch=5 n=48 v=93
44544 On ch=5 n=58 v=82
44544 On ch=5 n=63 v=87
44544 On ch=5 n=67 v=99
44544 On ch=5 n=84 v=108
44684 Par ch=5 c=64 v=127
44962 On ch=5 n=58 v=0
45034 On ch=5 n=63 v=0
45056 On ch=5 n=58 v=104
45102 On ch=5 n=67 v=0
45164 On ch=5 n=58 v=0
45184 On ch=5 n=63 v=104
45276 On ch=5 n=63 v=0
45312 On ch=5 n=67 v=110
45388 On ch=5 n=67 v=0
45488 On ch=5 n=84 v=0
45696 On ch=5 n=72 v=121
45710 On ch=5 n=48 v=0
45750 On ch=5 n=72 v=0
46022 Par ch=5 c=64 v=0
46080 On ch=5 n=39 v=85
46080 On ch=5 n=58 v=99
46080 On ch=5 n=63 v=72
46080 On ch=5 n=66 v=77
46080 On ch=5 n=70 v=91
46636 Par ch=5 c=64 v=127
46730 On ch=5 n=63 v=0
46738 On ch=5 n=58 v=0
46740 On ch=5 n=70 v=0
46752 On ch=5 n=66 v=0
46848 On ch=5 n=70 v=104
46926 On ch=5 n=70 v=0
47104 On ch=5 n=75 v=114
47160 On ch=5 n=75 v=0
47360 On ch=5 n=82 v=104
47400 On ch=5 n=82 v=0
47464 On ch=5 n=39 v=0
47556 Par ch=5 c=64 v=0
47616 On ch=5 n=58 v=85
47616 On ch=5 n=65 v=82
47616 On ch=5 n=70 v=79
47616 On ch=5 n=74 v=106
48234 On ch=5 n=70 v=0
48242 On ch=5 n=65 v=0
48254 On ch=5 n=58 v=0
48256 On ch=5 n=74 v=0
48400 On ch=5 n=72 v=108
48570 On ch=5 n=72 v=0
48572 On ch=5 n=65 v=104
48768 On ch=5 n=56 v=87
48772 On ch=5 n=65 v=0
48958 On ch=5 n=60 v=93
49120 On ch=5 n=60 v=0
49128 On ch=5 n=56 v=0
49152 On ch=5 n=55 v=61
49152 On ch=5 n=62 v=65
49152 On ch=5 n=65 v=77
49152 On ch=5 n=67 v=76
49152 On ch=5 n=71 v=82
49820 On ch=5 n=62 v=0
49858 On ch=5 n=55 v=0
49942 Par ch=5 c=64 v=127
50048 On ch=5 n=55 v=85
50116 On ch=5 n=65 v=0
50144 On ch=5 n=71 v=0
50156 On ch=5 n=67 v=0
50176 On ch=5 n=62 v=95
50304 On ch=5 n=65 v=95
50416 On ch=5 n=62 v=0
50418 On ch=5 n=55 v=0
50436 On ch=5 n=65 v=0
50592 Par ch=5 c=64 v=0
50688 On ch=5 n=48 v=68
50688 On ch=5 n=58 v=63
50688 On ch=5 n=60 v=64
50688 On ch=5 n=63 v=101
50688 On ch=5 n=67 v=93
50688 On ch=5 n=70 v=82
50688 On ch=5 n=74 v=106
51456 On ch=5 n=58 v=0
51456 On ch=5 n=52 v=76
51456 On ch=5 n=55 v=85
51456 On ch=5 n=58 v=83
51456 On ch=5 n=62 v=93
51584 On ch=5 n=71 v=108
51704 On ch=5 n=71 v=0
51712 On ch=5 n=72 v=91
51800 On ch=5 n=72 v=0
51840 On ch=5 n=74 v=0
51840 On ch=5 n=74 v=78
51966 On ch=5 n=74 v=0
51968 On ch=5 n=77 v=106
52058 On ch=5 n=58 v=0
52058 On ch=5 n=55 v=0
52064 On ch=5 n=52 v=0
52074 On ch=5 n=67 v=0
52076 On ch=5 n=60 v=0
52080 On ch=5 n=48 v=0
52082 On ch=5 n=62 v=0
52094 On ch=5 n=70 v=0
52096 On ch=5 n=63 v=0
52096 On ch=5 n=65 v=101
52110 On ch=5 n=77 v=0
52224 On ch=5 n=41 v=70
52224 On ch=5 n=53 v=66
52224 On ch=5 n=60 v=75
52224 On ch=5 n=63 v=77
52224 On ch=5 n=67 v=85
52224 On ch=5 n=70 v=93
52888 On ch=5 n=53 v=0
52890 On ch=5 n=67 v=0
52900 On ch=5 n=63 v=0
52904 On ch=5 n=60 v=0
52912 On ch=5 n=41 v=0
52916 On ch=5 n=70 v=0
53342 On ch=5 n=65 v=0
53760 On ch=5 n=46 v=85
53760 On ch=5 n=53 v=77
53760 On ch=5 n=57 v=83
53760 On ch=5 n=60 v=78
53760 On ch=5 n=62 v=79
53760 On ch=5 n=65 v=101
54356 On ch=5 n=62 v=0
54358 On ch=5 n=60 v=0
54368 On ch=5 n=53 v=0
54380 On ch=5 n=57 v=0
54384 On ch=5 n=65 v=0
54392 On ch=5 n=46 v=0
54528 On ch=5 n=43 v=89
54528 On ch=5 n=55 v=79
54528 On ch=5 n=58 v=87
54528 On ch=5 n=62 v=99
54528 On ch=5 n=65 v=89
54528 On ch=5 n=69 v=97
54796 Par ch=5 c=64 v=127
55056 On ch=5 n=55 v=0
55072 On ch=5 n=62 v=0
55072 On ch=5 n=43 v=0
55072 On ch=5 n=58 v=0
55074 On ch=5 n=65 v=0
55096 On ch=5 n=69 v=0
55186 Par ch=5 c=64 v=0
55296 On ch=5 n=39 v=89
55296 On ch=5 n=54 v=87
55296 On ch=5 n=58 v=91
55296 On ch=5 n=61 v=99
55438 Par ch=5 c=64 v=127
55528 On ch=5 n=54 v=0
55608 On ch=5 n=58 v=0
55630 On ch=5 n=61 v=0
55680 On ch=5 n=65 v=119
55840 On ch=5 n=65 v=0
55870 On ch=5 n=39 v=0
55872 On ch=5 n=63 v=84
55996 Par ch=5 c=64 v=0
56048 On ch=5 n=63 v=0
56192 On ch=5 n=51 v=103
56192 On ch=5 n=63 v=103
56312 On ch=5 n=63 v=0
56312 On ch=5 n=51 v=0
56320 On ch=5 n=52 v=103
56320 On ch=5 n=64 v=103
56436 On ch=5 n=64 v=0
56436 On ch=5 n=52 v=0
56448 On ch=5 n=53 v=93
56448 On ch=5 n=65 v=93
56576 On ch=5 n=54 v=103
56576 On ch=5 n=66 v=103
56590 On ch=5 n=65 v=0
56590 On ch=5 n=53 v=0
56690 On ch=5 n=54 v=0
56690 On ch=5 n=66 v=0
56704 On ch=5 n=55 v=87
56704 On ch=5 n=67 v=87
56808 On ch=5 n=67 v=0
56808 On ch=5 n=55 v=0
56832 On ch=5 n=49 v=104
56832 On ch=5 n=53 v=91
56832 On ch=5 n=56 v=87
56832 On ch=5 n=60 v=104
56832 On ch=5 n=63 v=108
56832 On ch=5 n=65 v=101
56832 On ch=5 n=68 v=108
57088 On ch=5 n=65 v=0
57088 On ch=5 n=61 v=104
57088 On ch=5 n=65 v=101
57088 On ch=5 n=70 v=101
57174 On ch=5 n=61 v=0
57176 On ch=5 n=70 v=0
57182 On ch=5 n=65 v=0
57216 On ch=5 n=61 v=93
57216 On ch=5 n=65 v=101
57216 On ch=5 n=70 v=112
57398 On ch=5 n=65 v=0
57398 On ch=5 n=61 v=0
57408 On ch=5 n=70 v=0
57472 On ch=5 n=63 v=0
57472 On ch=5 n=68 v=0
57472 On ch=5 n=63 v=95
57472 On ch=5 n=65 v=104
57472 On ch=5 n=68 v=106
57472 On ch=5 n=72 v=95
57526 Par ch=5 c=64 v=127
57548 On ch=5 n=65 v=0
57548 On ch=5 n=63 v=0
57550 On ch=5 n=72 v=0
57560 On ch=5 n=68 v=0
57600 On ch=5 n=63 v=104
57600 On ch=5 n=65 v=97
57600 On ch=5 n=68 v=108
57600 On ch=5 n=72 v=110
57672 On ch=5 n=65 v=0
57680 On ch=5 n=63 v=0
57684 On ch=5 n=68 v=0
57686 On ch=5 n=72 v=0
57984 On ch=5 n=84 v=126
58088 On ch=5 n=85 v=85
58098 On ch=5 n=84 v=0
58184 On ch=5 n=84 v=77
58222 On ch=5 n=85 v=0
58266 On ch=5 n=84 v=0
58282 On ch=5 n=77 v=104
58376 On ch=5 n=77 v=0
58382 On ch=5 n=80 v=83
58476 Par ch=5 c=64 v=0
59490 On ch=5 n=80 v=0
59532 On ch=5 n=56 v=0
59538 On ch=5 n=60 v=0
59550 On ch=5 n=53 v=0
59558 On ch=5 n=49 v=0
59904 On ch=5 n=40 v=87
59904 On ch=5 n=52 v=95
59904 On ch=5 n=55 v=108
59904 On ch=5 n=60 v=106
59904 On ch=5 n=64 v=87
59904 On ch=5 n=67 v=87
59904 On ch=5 n=72 v=121
61082 On ch=5 n=64 v=0
61090 On ch=5 n=67 v=0
61100 On ch=5 n=72 v=0
62234 On ch=5 n=84 v=119
62344 On ch=5 n=85 v=82
62360 On ch=5 n=84 v=0
62448 On ch=5 n=81 v=87
62454 On ch=5 n=85 v=0
62558 On ch=5 n=81 v=0
62560 On ch=5 n=84 v=89
62716 On ch=5 n=40 v=0
62722 On ch=5 n=52 v=0
62734 On ch=5 n=55 v=0
62744 On ch=5 n=60 v=0
62840 On ch=5 n=84 v=0
62976 On ch=5 n=39 v=99
62976 On ch=5 n=51 v=93
62976 On ch=5 n=54 v=83
62976 On ch=5 n=58 v=99
62976 On ch=5 n=61 v=91
62976 On ch=5 n=65 v=101
63974 On ch=5 n=70 v=121
64272 On ch=5 n=73 v=99
64282 On ch=5 n=70 v=0
64352 On ch=5 n=70 v=104
64356 On ch=5 n=73 v=0
64416 On ch=5 n=70 v=0
64428 On ch=5 n=66 v=79
64480 On ch=5 n=63 v=104
64486 On ch=5 n=66 v=0
65196 On ch=5 n=63 v=0
65790 On ch=5 n=61 v=0
65798 On ch=5 n=51 v=0
65804 On ch=5 n=39 v=0
65814 On ch=5 n=58 v=0
65820 On ch=5 n=54 v=0
65828 On ch=5 n=65 v=0
66040 On ch=5 n=55 v=106
66042 On ch=5 n=60 v=110
66048 On ch=5 n=53 v=104
66050 On ch=5 n=49 v=83
67350 On ch=5 n=53 v=0
67426 On ch=5 n=55 v=0
67432 On ch=5 n=49 v=0
67438 On ch=5 n=60 v=0
67984 On ch=5 n=84 v=104
68072 On ch=5 n=87 v=68
68076 On ch=5 n=84 v=0
68132 On ch=5 n=86 v=69
68180 On ch=5 n=87 v=0
68244 On ch=5 n=85 v=88
68254 On ch=5 n=86 v=0
68360 On ch=5 n=84 v=91
68378 On ch=5 n=85 v=0
68544 On ch=5 n=84 v=0
68544 On ch=5 n=82 v=91
68858 On ch=5 n=80 v=78
68864 On ch=5 n=82 v=0
68992 On ch=5 n=79 v=76
68998 On ch=5 n=80 v=0
69058 On ch=5 n=79 v=0
69120 On ch=5 n=44 v=93
69120 On ch=5 n=54 v=82
69120 On ch=5 n=59 v=87
69120 On ch=5 n=63 v=99
69120 On ch=5 n=80 v=108
69260 Par ch=5 c=64 v=127
69538 On ch=5 n=54 v=0
69610 On ch=5 n=59 v=0
69632 On ch=5 n=54 v=104
69678 On ch=5 n=63 v=0
69740 On ch=5 n=54 v=0
69760 On ch=5 n=59 v=104
69852 On ch=5 n=59 v=0
69888 On ch=5 n=63 v=110
69964 On ch=5 n=63 v=0
70064 On ch=5 n=80 v=0
70272 On ch=5 n=68 v=121
70286 On ch=5 n=44 v=0
70326 On ch=5 n=68 v=0
70598 Par ch=5 c=64 v=0
70656 On ch=5 n=35 v=85
70656 On ch=5 n=54 v=99
70656 On ch=5 n=59 v=72
70656 On ch=5 n=62 v=77
70656 On ch=5 n=66 v=91
71212 Par ch=5 c=64 v=127
71306 On ch=5 n=59 v=0
71314 On ch=5 n=54 v=0
71316 On ch=5 n=66 v=0
71328 On ch=5 n=62 v=0
71424 On ch=5 n=66 v=104
71502 On ch=5 n=66 v=0
71680 On ch=5 n=71 v=114
71736 On ch=5 n=71 v=0
71936 On ch=5 n=78 v=104
71976 On ch=5 n=78 v=0
72040 On ch=5 n=35 v=0
72132 Par ch=5 c=64 v=0
72192 On ch=5 n=54 v=85
72192 On ch=5 n=61 v=82
72192 On ch=5 n=66 v=79
72192 On ch=5 n=70 v=106
72810 On ch=5 n=66 v=0
72818 On ch=5 n=61 v=0
72830 On ch=5 n=54 v=0
72832 On ch=5 n=70 v=0
72976 On ch=5 n=68 v=108
73146 On ch=5 n=68 v=0
73148 On ch=5 n=61 v=104
73344 On ch=5 n=52 v=87
73348 On ch=5 n=61 v=0
73534 On ch=5 n=56 v=93
73696 On ch=5 n=56 v=0
73704 On ch=5 n=52 v=0
73728 On ch=5 n=51 v=61
73728 On ch=5 n=58 v=65
73728 On ch=5 n=61 v=77
73728 On ch=5 n=63 v=76
73728 On ch=5 n=67 v=82
74396 On ch=5 n=58 v=0
74434 On ch=5 n=51 v=0
74518 Par ch=5 c=64 v=127
74624 On ch=5 n=51 v=85
74692 On ch=5 n=61 v=0
74720 On ch=5 n=67 v=0
74732 On ch=5 n=63 v=0
74752 On ch=5 n=58 v=95
74880 On ch=5 n=61 v=95
74992 On ch=5 n=58 v=0
74994 On ch=5 n=51 v=0
75012 On ch=5 n=61 v=0
75168 Par ch=5 c=64 v=0
75264 On ch=5 n=44 v=66
75264 On ch=5 n=54 v=81
75264 On ch=5 n=56 v=72
75264 On ch=5 n=60 v=75
75264 On ch=5 n=63 v=77
75264 On ch=5 n=82 v=106
75392 On ch=5 n=84 v=85
75412 On ch=5 n=82 v=0
75510 On ch=5 n=84 v=0
75520 On ch=5 n=80 v=93
76424 On ch=5 n=80 v=0
77464 On ch=5 n=44 v=0
77472 On ch=5 n=54 v=0
77480 On ch=5 n=60 v=0
77486 On ch=5 n=56 v=0
77496 On ch=5 n=63 v=0
77952 On ch=5 n=51 v=83
77952 On ch=5 n=63 v=89
77952 On ch=5 n=67 v=104
77952 On ch=5 n=71 v=104
78288 On ch=5 n=51 v=0
78296 On ch=5 n=63 v=0
78304 On ch=5 n=67 v=0
78312 On ch=5 n=71 v=0
78336 On ch=5 n=49 v=108
78336 On ch=5 n=61 v=101
78336 On ch=5 n=66 v=117
78336 On ch=5 n=68 v=114
78336 On ch=5 n=71 v=106
78336 On ch=5 n=75 v=119
78502 Par ch=5 c=64 v=127
78542 On ch=5 n=75 v=0
78542 On ch=5 n=68 v=0
78550 On ch=5 n=66 v=0
78556 On ch=5 n=71 v=0
78592 On ch=5 n=66 v=112
78592 On ch=5 n=68 v=117
78592 On ch=5 n=71 v=104
78592 On ch=5 n=75 v=121
78764 On ch=5 n=71 v=0
78764 On ch=5 n=66 v=0
78768 On ch=5 n=68 v=0
78780 On ch=5 n=75 v=0
78786 On ch=5 n=61 v=0
78792 On ch=5 n=49 v=0
78840 Par ch=5 c=64 v=0
79872 On ch=5 n=58 v=95
79872 On ch=5 n=62 v=99
79872 On ch=5 n=65 v=101
79872 On ch=5 n=69 v=117
79996 Par ch=5 c=64 v=127
80020 On ch=5 n=65 v=0
80024 On ch=5 n=58 v=0
80028 On ch=5 n=62 v=0
80040 On ch=5 n=69 v=0
80128 On ch=5 n=58 v=104
80128 On ch=5 n=62 v=104
80128 On ch=5 n=65 v=99
80128 On ch=5 n=69 v=112
80254 On ch=5 n=58 v=0
80258 On ch=5 n=65 v=0
80264 On ch=5 n=62 v=0
80290 On ch=5 n=69 v=0
80384 On ch=5 n=58 v=110
80384 On ch=5 n=62 v=112
80384 On ch=5 n=65 v=106
80384 On ch=5 n=67 v=124
80402 Par ch=5 c=64 v=0
80528 Par ch=5 c=64 v=127
80536 On ch=5 n=58 v=0
80540 On ch=5 n=65 v=0
80544 On ch=5 n=62 v=0
80570 On ch=5 n=67 v=0
80600 Par ch=5 c=64 v=0
80640 On ch=5 n=58 v=106
80640 On ch=5 n=62 v=99
80640 On ch=5 n=65 v=106
80640 On ch=5 n=69 v=124
80718 Par ch=5 c=64 v=127
80812 On ch=5 n=65 v=0
80844 On ch=5 n=58 v=0
80850 On ch=5 n=69 v=0
80852 On ch=5 n=62 v=0
81024 On ch=5 n=58 v=95
81024 On ch=5 n=64 v=87
81024 On ch=5 n=68 v=119
81040 Par ch=5 c=64 v=0
81232 On ch=5 n=68 v=0
81234 On ch=5 n=64 v=0
81244 On ch=5 n=58 v=0
81408 On ch=5 n=53 v=104
81408 On ch=5 n=57 v=91
81408 On ch=5 n=60 v=87
81408 On ch=5 n=64 v=104
81408 On ch=5 n=67 v=108
81408 On ch=5 n=69 v=101
81408 On ch=5 n=72 v=108
82560 On ch=5 n=88 v=126
82664 On ch=5 n=89 v=85
82674 On ch=5 n=88 v=0
82760 On ch=5 n=88 v=77
82798 On ch=5 n=89 v=0
82842 On ch=5 n=88 v=0
82858 On ch=5 n=81 v=104
82952 On ch=5 n=81 v=0
82958 On ch=5 n=84 v=83
83712 On ch=5 n=84 v=0
83712 On ch=5 n=84 v=91
83968 On ch=5 n=84 v=0
83968 On ch=5 n=81 v=83
84108 On ch=5 n=60 v=0
84114 On ch=5 n=64 v=0
84124 On ch=5 n=67 v=0
84124 On ch=5 n=69 v=0
84126 On ch=5 n=57 v=0
84134 On ch=5 n=53 v=0
84134 On ch=5 n=72 v=0
84208 On ch=5 n=81 v=0
84224 On ch=5 n=79 v=87
84402 On ch=5 n=79 v=0
84480 On ch=5 n=44 v=87
84480 On ch=5 n=56 v=95
84480 On ch=5 n=59 v=108
84480 On ch=5 n=64 v=106
86810 On ch=5 n=88 v=119
86920 On ch=5 n=89 v=82
86936 On ch=5 n=88 v=0
87024 On ch=5 n=85 v=87
87030 On ch=5 n=89 v=0
87134 On ch=5 n=85 v=0
87136 On ch=5 n=88 v=89
87292 On ch=5 n=44 v=0
87298 On ch=5 n=56 v=0
87310 On ch=5 n=59 v=0
87320 On ch=5 n=64 v=0
87416 On ch=5 n=88 v=0
87552 On ch=5 n=43 v=99
87552 On ch=5 n=55 v=93
87552 On ch=5 n=58 v=83
87552 On ch=5 n=62 v=99
87552 On ch=5 n=65 v=91
87552 On ch=5 n=69 v=101
88550 On ch=5 n=74 v=121
88848 On ch=5 n=77 v=99
88858 On ch=5 n=74 v=0
88928 On ch=5 n=74 v=104
88932 On ch=5 n=77 v=0
88992 On ch=5 n=74 v=0
89004 On ch=5 n=70 v=79
89056 On ch=5 n=67 v=104
89062 On ch=5 n=70 v=0
89772 On ch=5 n=67 v=0
90366 On ch=5 n=65 v=0
90374 On ch=5 n=55 v=0
90380 On ch=5 n=43 v=0
90390 On ch=5 n=62 v=0
90396 On ch=5 n=58 v=0
90404 On ch=5 n=69 v=0
90616 On ch=5 n=59 v=106
90618 On ch=5 n=64 v=110
90624 On ch=5 n=57 v=104
90626 On ch=5 n=53 v=83
91926 On ch=5 n=57 v=0
92002 On ch=5 n=59 v=0
92008 On ch=5 n=53 v=0
92014 On ch=5 n=64 v=0
92560 On ch=5 n=88 v=104
92648 On ch=5 n=91 v=68
92652 On ch=5 n=88 v=0
92708 On ch=5 n=90 v=69
92756 On ch=5 n=91 v=0
92820 On ch=5 n=89 v=88
92830 On ch=5 n=90 v=0
92936 On ch=5 n=88 v=91
92954 On ch=5 n=89 v=0
93120 On ch=5 n=88 v=0
93120 On ch=5 n=86 v=91
93434 On ch=5 n=84 v=78
93440 On ch=5 n=86 v=0
93568 On ch=5 n=83 v=76
93574 On ch=5 n=84 v=0
93634 On ch=5 n=83 v=0
93696 On ch=5 n=48 v=93
93696 On ch=5 n=58 v=82
93696 On ch=5 n=63 v=87
93696 On ch=5 n=67 v=99
93696 On ch=5 n=84 v=108
93836 Par ch=5 c=64 v=127
94114 On ch=5 n=58 v=0
94186 On ch=5 n=63 v=0
94208 On ch=5 n=58 v=104
94254 On ch=5 n=67 v=0
94316 On ch=5 n=58 v=0
94336 On ch=5 n=63 v=104
94428 On ch=5 n=63 v=0
94464 On ch=5 n=67 v=110
94540 On ch=5 n=67 v=0
94640 On ch=5 n=84 v=0
94848 On ch=5 n=72 v=121
94862 On ch=5 n=48 v=0
94902 On ch=5 n=72 v=0
95174 Par ch=5 c=64 v=0
95232 On ch=5 n=39 v=85
95232 On ch=5 n=58 v=99
95232 On ch=5 n=63 v=72
95232 On ch=5 n=66 v=77
95232 On ch=5 n=70 v=91
95788 Par ch=5 c=64 v=127
95882 On ch=5 n=63 v=0
95890 On ch=5 n=58 v=0
95892 On ch=5 n=70 v=0
95904 On ch=5 n=66 v=0
96000 On ch=5 n=70 v=104
96078 On ch=5 n=70 v=0
96256 On ch=5 n=75 v=114
96312 On ch=5 n=75 v=0
96512 On ch=5 n=82 v=104
96552 On ch=5 n=82 v=0
96616 On ch=5 n=39 v=0
96708 Par ch=5 c=64 v=0
96768 On ch=5 n=58 v=85
96768 On ch=5 n=65 v=82
96768 On ch=5 n=70 v=79
96768 On ch=5 n=74 v=106
97386 On ch=5 n=70 v=0
97394 On ch=5 n=65 v=0
97406 On ch=5 n=58 v=0
97408 On ch=5 n=74 v=0
97552 On ch=5 n=72 v=108
97722 On ch=5 n=72 v=0
97724 On ch=5 n=65 v=104
97920 On ch=5 n=56 v=87
97924 On ch=5 n=65 v=0
98110 On ch=5 n=60 v=93
98272 On ch=5 n=60 v=0
98280 On ch=5 n=56 v=0
98304 On ch=5 n=55 v=61
98304 On ch=5 n=62 v=65
98304 On ch=5 n=65 v=77
98304 On ch=5 n=67 v=76
98304 On ch=5 n=71 v=82
98972 On ch=5 n=62 v=0
99010 On ch=5 n=55 v=0
99094 Par ch=5 c=64 v=127
99200 On ch=5 n=55 v=85
99268 On ch=5 n=65 v=0
99296 On ch=5 n=71 v=0
99308 On ch=5 n=67 v=0
99328 On ch=5 n=62 v=95
99456 On ch=5 n=65 v=95
99568 On ch=5 n=62 v=0
99570 On ch=5 n=55 v=0
99588 On ch=5 n=65 v=0
99744 Par ch=5 c=64 v=0
99840 On ch=5 n=48 v=68
99840 On ch=5 n=58 v=63
99840 On ch=5 n=60 v=64
99840 On ch=5 n=63 v=101
99840 On ch=5 n=67 v=93
99840 On ch=5 n=70 v=82
99840 On ch=5 n=74 v=106
100608 On ch=5 n=58 v=0
100608 On ch=5 n=52 v=76
100608 On ch=5 n=55 v=85
100608 On ch=5 n=58 v=83
100608 On ch=5 n=62 v=93
100736 On ch=5 n=71 v=108
100856 On ch=5 n=71 v=0
100864 On ch=5 n=72 v=91
100952 On ch=5 n=72 v=0
100992 On ch=5 n=74 v=0
100992 On ch=5 n=74 v=78
101118 On ch=5 n=74 v=0
101120 On ch=5 n=77 v=106
101210 On ch=5 n=58 v=0
101210 On ch=5 n=55 v=0
101216 On ch=5 n=52 v=0
101226 On ch=5 n=67 v=0
101228 On ch=5 n=60 v=0
101232 On ch=5 n=48 v=0
101234 On ch=5 n=62 v=0
101246 On ch=5 n=70 v=0
101248 On ch=5 n=63 v=0
101248 On ch=5 n=65 v=101
101262 On ch=5 n=77 v=0
101376 On ch=5 n=65 v=0
101376 On ch=5 n=41 v=104
101376 On ch=5 n=53 v=99
101376 On ch=5 n=60 v=108
101376 On ch=5 n=63 v=106
101376 On ch=5 n=67 v=95
101376 On ch=5 n=70 v=110
103096 On ch=5 n=53 v=0
103148 On ch=5 n=63 v=0
103176 On ch=5 n=60 v=0
103222 On ch=5 n=67 v=0
103332 On ch=5 n=70 v=0
103360 On ch=5 n=41 v=0
104448 On ch=5 n=70 v=108
104448 On ch=5 n=74 v=108
104578 Par ch=5 c=64 v=127
104596 On ch=5 n=70 v=0
104638 On ch=5 n=74 v=0
104640 On ch=5 n=65 v=99
104772 On ch=5 n=65 v=0
104832 On ch=5 n=70 v=106
104832 On ch=5 n=74 v=106
104962 On ch=5 n=70 v=0
105012 On ch=5 n=74 v=0
105024 On ch=5 n=65 v=104
105088 On ch=5 n=65 v=0
105184 Par ch=5 c=64 v=0
105216 On ch=5 n=73 v=104
105216 On ch=5 n=77 v=106
105346 Par ch=5 c=64 v=127
105394 On ch=5 n=77 v=0
105394 On ch=5 n=73 v=0
105408 On ch=5 n=68 v=87
105552 On ch=5 n=68 v=0
105600 On ch=5 n=73 v=106
105600 On ch=5 n=77 v=104
105792 On ch=5 n=68 v=108
105802 On ch=5 n=73 v=0
105832 On ch=5 n=77 v=0
105872 On ch=5 n=68 v=0
105908 Par ch=5 c=64 v=0
105984 On ch=5 n=76 v=78
105984 On ch=5 n=80 v=101
105984 On ch=5 n=83 v=97
106072 On ch=5 n=76 v=0
106078 Par ch=5 c=64 v=127
106148 On ch=5 n=83 v=0
106152 On ch=5 n=80 v=0
106176 On ch=5 n=76 v=87
106296 On ch=5 n=76 v=0
106368 On ch=5 n=80 v=106
106368 On ch=5 n=83 v=87
106508 On ch=5 n=83 v=0
106508 On ch=5 n=80 v=0
106560 On ch=5 n=76 v=104
106640 On ch=5 n=76 v=0
106740 Par ch=5 c=64 v=0
106752 On ch=5 n=77 v=91
106752 On ch=5 n=80 v=108
106752 On ch=5 n=84 v=106
106794 Par ch=5 c=64 v=127
106856 On ch=5 n=80 v=0
106862 On ch=5 n=77 v=0
106876 On ch=5 n=84 v=0
106944 On ch=5 n=80 v=110
107036 On ch=5 n=80 v=0
107126 Par ch=5 c=64 v=0
107136 On ch=5 n=77 v=101
107136 On ch=5 n=80 v=101
107136 On ch=5 n=84 v=104
107238 On ch=5 n=80 v=0
107244 Par ch=5 c=64 v=127
107256 On ch=5 n=77 v=0
107288 On ch=5 n=84 v=0
107328 On ch=5 n=80 v=87
107422 On ch=5 n=80 v=0
108132 Par ch=5 c=64 v=0
108322 On ch=5 n=58 v=85
108326 On ch=5 n=62 v=68
108328 On ch=5 n=77 v=87
108330 On ch=5 n=74 v=67
108334 On ch=5 n=65 v=73
108336 On ch=5 n=72 v=72
108340 On ch=5 n=70 v=71
108406 Par ch=5 c=64 v=127
108498 On ch=5 n=72 v=0
108518 On ch=5 n=70 v=0
108522 On ch=5 n=77 v=0
108528 On ch=5 n=74 v=0
108702 On ch=5 n=77 v=81
108704 On ch=5 n=72 v=76
108708 On ch=5 n=70 v=67
108834 On ch=5 n=70 v=0
108838 On ch=5 n=72 v=0
108848 On ch=5 n=77 v=0
109150 On ch=5 n=72 v=72
109152 On ch=5 n=77 v=76
109154 On ch=5 n=70 v=66
109232 On ch=5 n=72 v=0
109240 On ch=5 n=70 v=0
109248 On ch=5 n=77 v=0
109634 On ch=5 n=72 v=45
109638 On ch=5 n=70 v=61
109648 On ch=5 n=77 v=41
109736 On ch=5 n=70 v=0
109742 On ch=5 n=77 v=0
109746 On ch=5 n=72 v=0
109864 On ch=5 n=65 v=0
109882 On ch=5 n=58 v=0
109886 On ch=5 n=62 v=0
110146 On ch=5 n=77 v=65
110150 On ch=5 n=58 v=53
110152 On ch=5 n=74 v=69
110154 On ch=5 n=70 v=58
110158 On ch=5 n=62 v=47
110160 On ch=5 n=65 v=47
110162 On ch=5 n=72 v=72
110388 On ch=5 n=62 v=0
110390 On ch=5 n=70 v=0
110392 On ch=5 n=58 v=0
110392 On ch=5 n=74 v=0
110392 On ch=5 n=72 v=0
110394 On ch=5 n=65 v=0
110398 On ch=5 n=77 v=0
110398 Meta TrkEnd
TrkEnd
MTrk
0 Meta 0x21 00
0 Meta TrkName "Vibes   "
0 PrCh ch=6 p=11
0 Par ch=6 c=7 v=110
0 Par ch=6 c=10 v=41
96 Par ch=6 c=121 v=0
240 Par ch=6 c=91 v=90
264 Par ch=6 c=93 v=50
1536 On ch=6 n=72 v=127
1734 On ch=6 n=72 v=0
1792 On ch=6 n=74 v=127
1842 On ch=6 n=74 v=0
1920 On ch=6 n=74 v=127
2114 On ch=6 n=74 v=0
2176 On ch=6 n=76 v=113
2256 On ch=6 n=76 v=0
2304 On ch=6 n=76 v=127
3008 On ch=6 n=76 v=0
3072 On ch=6 n=74 v=127
3280 On ch=6 n=74 v=0
3328 On ch=6 n=76 v=107
3404 On ch=6 n=76 v=0
3456 On ch=6 n=76 v=126
3656 On ch=6 n=76 v=0
3712 On ch=6 n=77 v=122
3786 On ch=6 n=77 v=0
3840 On ch=6 n=77 v=127
4498 On ch=6 n=77 v=0
4608 On ch=6 n=76 v=127
4792 On ch=6 n=76 v=0
4864 On ch=6 n=77 v=126
4940 On ch=6 n=77 v=0
4992 On ch=6 n=77 v=127
5160 On ch=6 n=77 v=0
5248 On ch=6 n=79 v=127
5342 On ch=6 n=79 v=0
5376 On ch=6 n=74 v=127
5576 On ch=6 n=74 v=0
5632 On ch=6 n=76 v=122
5704 On ch=6 n=76 v=0
5760 On ch=6 n=76 v=122
5952 On ch=6 n=76 v=0
6016 On ch=6 n=77 v=124
6104 On ch=6 n=77 v=0
6144 On ch=6 n=70 v=122
6356 On ch=6 n=70 v=0
6400 On ch=6 n=72 v=118
6480 On ch=6 n=72 v=0
6528 On ch=6 n=72 v=118
6704 On ch=6 n=72 v=0
6784 On ch=6 n=74 v=127
6856 On ch=6 n=74 v=0
6912 On ch=6 n=67 v=127
7104 On ch=6 n=67 v=0
7168 On ch=6 n=69 v=126
7238 On ch=6 n=69 v=0
7296 On ch=6 n=69 v=127
7496 On ch=6 n=69 v=0
7552 On ch=6 n=70 v=120
7652 On ch=6 n=70 v=0
16896 On ch=6 n=64 v=83
16896 On ch=6 n=67 v=92
16896 On ch=6 n=71 v=93
17528 On ch=6 n=64 v=0
17536 On ch=6 n=67 v=0
17538 On ch=6 n=71 v=0
17664 On ch=6 n=64 v=75
17664 On ch=6 n=69 v=91
17664 On ch=6 n=72 v=101
18352 On ch=6 n=72 v=0
18368 On ch=6 n=69 v=0
18370 On ch=6 n=64 v=0
18446 On ch=6 n=67 v=96
18448 On ch=6 n=62 v=96
18548 On ch=6 n=62 v=0
18626 On ch=6 n=61 v=92
18808 On ch=6 n=61 v=0
18824 On ch=6 n=60 v=75
19000 On ch=6 n=60 v=0
19006 On ch=6 n=59 v=85
19200 On ch=6 n=67 v=0
19200 On ch=6 n=62 v=87
19200 On ch=6 n=67 v=93
19200 On ch=6 n=71 v=90
19514 On ch=6 n=59 v=0
19520 On ch=6 n=67 v=0
19814 On ch=6 n=62 v=0
19832 On ch=6 n=71 v=0
32256 On ch=6 n=65 v=105
32256 On ch=6 n=69 v=101
32864 On ch=6 n=65 v=0
32874 On ch=6 n=69 v=0
33024 On ch=6 n=69 v=90
33384 On ch=6 n=69 v=0
33408 On ch=6 n=72 v=111
33654 On ch=6 n=72 v=0
33664 On ch=6 n=74 v=95
33778 On ch=6 n=74 v=0
33792 On ch=6 n=76 v=103
35082 On ch=6 n=76 v=0
41472 On ch=6 n=64 v=83
41472 On ch=6 n=67 v=92
41472 On ch=6 n=71 v=93
42104 On ch=6 n=64 v=0
42112 On ch=6 n=67 v=0
42114 On ch=6 n=71 v=0
42240 On ch=6 n=64 v=75
42240 On ch=6 n=69 v=91
42240 On ch=6 n=72 v=101
42928 On ch=6 n=72 v=0
42944 On ch=6 n=69 v=0
42946 On ch=6 n=64 v=0
43022 On ch=6 n=67 v=96
43024 On ch=6 n=62 v=96
43124 On ch=6 n=62 v=0
43202 On ch=6 n=61 v=92
43384 On ch=6 n=61 v=0
43400 On ch=6 n=60 v=75
43576 On ch=6 n=60 v=0
43582 On ch=6 n=59 v=85
43776 On ch=6 n=67 v=0
43776 On ch=6 n=62 v=87
43776 On ch=6 n=67 v=93
43776 On ch=6 n=71 v=90
44090 On ch=6 n=59 v=0
44096 On ch=6 n=67 v=0
44390 On ch=6 n=62 v=0
44408 On ch=6 n=71 v=0
54528 On ch=6 n=69 v=117
54638 On ch=6 n=69 v=0
54656 On ch=6 n=70 v=113
54746 On ch=6 n=70 v=0
54784 On ch=6 n=67 v=107
54888 On ch=6 n=67 v=0
54912 On ch=6 n=69 v=104
55040 On ch=6 n=70 v=98
55050 On ch=6 n=69 v=0
55136 On ch=6 n=70 v=0
55168 On ch=6 n=72 v=109
55282 On ch=6 n=72 v=0
55296 On ch=6 n=73 v=109
55674 On ch=6 n=73 v=0
55680 On ch=6 n=77 v=101
55870 On ch=6 n=77 v=0
55872 On ch=6 n=75 v=85
56062 On ch=6 n=75 v=0
56064 On ch=6 n=68 v=83
56712 On ch=6 n=68 v=0
56832 On ch=6 n=68 v=127
57070 On ch=6 n=68 v=0
57088 On ch=6 n=70 v=122
57174 On ch=6 n=70 v=0
57216 On ch=6 n=70 v=127
57400 On ch=6 n=70 v=0
57472 On ch=6 n=72 v=126
57566 On ch=6 n=72 v=0
57600 On ch=6 n=72 v=127
58704 On ch=6 n=72 v=0
58752 On ch=6 n=70 v=127
59098 On ch=6 n=70 v=0
59136 On ch=6 n=72 v=127
59472 On ch=6 n=72 v=0
59520 On ch=6 n=73 v=127
59904 On ch=6 n=72 v=127
59908 On ch=6 n=73 v=0
61616 On ch=6 n=72 v=0
62976 On ch=6 n=70 v=124
62976 On ch=6 n=73 v=122
63098 On ch=6 n=70 v=0
63112 On ch=6 n=73 v=0
63130 Par ch=6 c=64 v=127
63232 On ch=6 n=72 v=99
63232 On ch=6 n=75 v=120
63280 On ch=6 n=75 v=0
63282 On ch=6 n=72 v=0
63360 On ch=6 n=72 v=118
63360 On ch=6 n=75 v=126
63374 Par ch=6 c=64 v=0
63516 On ch=6 n=75 v=0
63520 On ch=6 n=72 v=0
63520 Par ch=6 c=64 v=127
63616 On ch=6 n=73 v=120
63616 On ch=6 n=77 v=105
63680 On ch=6 n=77 v=0
63684 On ch=6 n=73 v=0
63736 Par ch=6 c=64 v=0
63744 On ch=6 n=73 v=126
63744 On ch=6 n=77 v=120
64832 On ch=6 n=73 v=0
64846 On ch=6 n=77 v=0
64896 On ch=6 n=73 v=127
65256 On ch=6 n=73 v=0
65280 On ch=6 n=75 v=120
65656 On ch=6 n=75 v=0
65664 On ch=6 n=80 v=107
66040 On ch=6 n=80 v=0
66048 On ch=6 n=77 v=115
67194 On ch=6 n=77 v=0
68096 On ch=6 n=55 v=85
68096 On ch=6 n=56 v=75
68096 On ch=6 n=63 v=96
68176 On ch=6 n=56 v=0
68352 On ch=6 n=63 v=0
68352 On ch=6 n=58 v=87
68352 On ch=6 n=63 v=93
68352 On ch=6 n=67 v=90
68604 On ch=6 n=55 v=0
68696 On ch=6 n=63 v=0
68966 On ch=6 n=58 v=0
68984 On ch=6 n=67 v=0
69120 On ch=6 n=66 v=127
69424 On ch=6 n=66 v=0
69504 On ch=6 n=68 v=118
69744 On ch=6 n=68 v=0
69888 On ch=6 n=68 v=126
70208 On ch=6 n=68 v=0
70272 On ch=6 n=66 v=126
70530 On ch=6 n=66 v=0
70656 On ch=6 n=66 v=127
70920 On ch=6 n=66 v=0
71040 On ch=6 n=68 v=127
71178 On ch=6 n=68 v=0
71296 On ch=6 n=69 v=127
71568 On ch=6 n=69 v=0
71680 On ch=6 n=68 v=126
71792 On ch=6 n=68 v=0
71808 On ch=6 n=66 v=118
72030 On ch=6 n=66 v=0
72192 On ch=6 n=61 v=122
72500 On ch=6 n=61 v=0
72576 On ch=6 n=63 v=118
72832 On ch=6 n=63 v=0
72960 On ch=6 n=63 v=122
73266 On ch=6 n=63 v=0
73344 On ch=6 n=61 v=124
73624 On ch=6 n=61 v=0
73728 On ch=6 n=61 v=124
74020 On ch=6 n=61 v=0
74112 On ch=6 n=63 v=118
74248 On ch=6 n=63 v=0
74368 On ch=6 n=65 v=122
74658 On ch=6 n=65 v=0
74752 On ch=6 n=63 v=118
74860 On ch=6 n=63 v=0
74880 On ch=6 n=61 v=122
75088 On ch=6 n=61 v=0
75264 On ch=6 n=70 v=126
75584 On ch=6 n=70 v=0
75648 On ch=6 n=75 v=127
75958 On ch=6 n=75 v=0
76032 On ch=6 n=70 v=120
76606 On ch=6 n=70 v=0
76672 On ch=6 n=68 v=126
76798 On ch=6 n=68 v=0
76800 On ch=6 n=70 v=111
77086 On ch=6 n=70 v=0
77184 On ch=6 n=75 v=107
77326 On ch=6 n=75 v=0
77440 On ch=6 n=70 v=103
78032 On ch=6 n=70 v=0
79872 On ch=6 n=58 v=107
79872 On ch=6 n=62 v=88
79872 On ch=6 n=65 v=93
79872 On ch=6 n=69 v=115
80562 On ch=6 n=65 v=0
80562 On ch=6 n=62 v=0
80568 On ch=6 n=58 v=0
80592 On ch=6 n=69 v=0
81024 On ch=6 n=58 v=111
81024 On ch=6 n=64 v=101
81024 On ch=6 n=68 v=124
81222 On ch=6 n=64 v=0
81232 On ch=6 n=68 v=0
81236 On ch=6 n=58 v=0
81408 On ch=6 n=65 v=105
81408 On ch=6 n=69 v=101
82016 On ch=6 n=65 v=0
82026 On ch=6 n=69 v=0
82176 On ch=6 n=69 v=90
82536 On ch=6 n=69 v=0
82560 On ch=6 n=72 v=111
82806 On ch=6 n=72 v=0
82816 On ch=6 n=74 v=95
82930 On ch=6 n=74 v=0
82944 On ch=6 n=76 v=103
84234 On ch=6 n=76 v=0
90624 On ch=6 n=64 v=83
90624 On ch=6 n=67 v=92
90624 On ch=6 n=71 v=93
91256 On ch=6 n=64 v=0
91264 On ch=6 n=67 v=0
91266 On ch=6 n=71 v=0
91392 On ch=6 n=64 v=75
91392 On ch=6 n=69 v=91
91392 On ch=6 n=72 v=101
92080 On ch=6 n=72 v=0
92096 On ch=6 n=69 v=0
92098 On ch=6 n=64 v=0
92174 On ch=6 n=67 v=96
92176 On ch=6 n=62 v=96
92276 On ch=6 n=62 v=0
92354 On ch=6 n=61 v=92
92536 On ch=6 n=61 v=0
92552 On ch=6 n=60 v=75
92728 On ch=6 n=60 v=0
92734 On ch=6 n=59 v=85
92928 On ch=6 n=67 v=0
92928 On ch=6 n=62 v=87
92928 On ch=6 n=67 v=93
92928 On ch=6 n=71 v=90
93242 On ch=6 n=59 v=0
93248 On ch=6 n=67 v=0
93542 On ch=6 n=62 v=0
93560 On ch=6 n=71 v=0
104448 On ch=6 n=74 v=92
104640 On ch=6 n=70 v=92
104648 On ch=6 n=74 v=0
104816 On ch=6 n=70 v=0
104832 On ch=6 n=74 v=97
105014 On ch=6 n=74 v=0
105024 On ch=6 n=70 v=107
105202 On ch=6 n=70 v=0
105216 On ch=6 n=77 v=120
105404 On ch=6 n=77 v=0
105408 On ch=6 n=73 v=93
105568 On ch=6 n=73 v=0
105600 On ch=6 n=77 v=99
105780 On ch=6 n=77 v=0
105792 On ch=6 n=73 v=105
105898 On ch=6 n=73 v=0
105984 On ch=6 n=76 v=97
105984 On ch=6 n=80 v=111
106156 On ch=6 n=76 v=0
106168 On ch=6 n=80 v=0
106176 On ch=6 n=71 v=96
106176 On ch=6 n=76 v=91
106350 On ch=6 n=71 v=0
106354 On ch=6 n=76 v=0
106368 On ch=6 n=76 v=95
106368 On ch=6 n=80 v=105
106524 On ch=6 n=76 v=0
106536 On ch=6 n=80 v=0
106560 On ch=6 n=71 v=109
106560 On ch=6 n=76 v=93
106658 On ch=6 n=71 v=0
106692 On ch=6 n=76 v=0
106752 On ch=6 n=80 v=101
106752 On ch=6 n=84 v=105
106942 On ch=6 n=80 v=0
106944 On ch=6 n=77 v=101
106944 On ch=6 n=80 v=99
106964 On ch=6 n=84 v=0
107122 On ch=6 n=77 v=0
107136 On ch=6 n=80 v=0
107136 On ch=6 n=80 v=94
107136 On ch=6 n=84 v=95
107140 On ch=6 n=80 v=0
107316 On ch=6 n=84 v=0
107328 On ch=6 n=77 v=101
107328 On ch=6 n=80 v=101
108032 On ch=6 n=80 v=0
108102 On ch=6 n=77 v=0
108288 On ch=6 n=82 v=109
109662 On ch=6 n=82 v=0
110544 On ch=6 n=84 v=87
110910 On ch=6 n=84 v=0
110944 On ch=6 n=89 v=97
111330 On ch=6 n=89 v=0
111346 On ch=6 n=86 v=84
111816 On ch=6 n=86 v=0
111816 Meta TrkEnd
TrkEnd
MTrk
0 Meta 0x21 00
0 Meta TrkName "Drums   "
0 PrCh ch=10 p=32
0 Par ch=10 c=7 v=127
0 Par ch=10 c=10 v=64
0 Par ch=10 c=121 v=0
240 Par ch=10 c=91 v=80
264 Par ch=10 c=93 v=0
1538 On ch=10 n=36 v=98
1538 On ch=10 n=51 v=121
1552 On ch=10 n=51 v=0
1552 On ch=10 n=36 v=0
1922 On ch=10 n=42 v=89
1936 On ch=10 n=42 v=0
2562 On ch=10 n=36 v=98
2562 On ch=10 n=51 v=121
2576 On ch=10 n=51 v=0
2576 On ch=10 n=36 v=0
2690 On ch=10 n=42 v=89
2690 On ch=10 n=36 v=98
2690 On ch=10 n=51 v=121
2704 On ch=10 n=36 v=0
2704 On ch=10 n=42 v=0
2706 On ch=10 n=51 v=0
3458 On ch=10 n=42 v=89
3472 On ch=10 n=42 v=0
4098 On ch=10 n=36 v=98
4098 On ch=10 n=51 v=121
4112 On ch=10 n=51 v=0
4112 On ch=10 n=36 v=0
4226 On ch=10 n=42 v=89
4226 On ch=10 n=36 v=98
4226 On ch=10 n=51 v=121
4240 On ch=10 n=36 v=0
4240 On ch=10 n=42 v=0
4242 On ch=10 n=51 v=0
4610 On ch=10 n=36 v=98
4610 On ch=10 n=51 v=121
4624 On ch=10 n=51 v=0
4624 On ch=10 n=36 v=0
4994 On ch=10 n=42 v=89
5008 On ch=10 n=42 v=0
5250 On ch=10 n=36 v=98
5250 On ch=10 n=51 v=121
5264 On ch=10 n=51 v=0
5264 On ch=10 n=36 v=0
5378 On ch=10 n=36 v=98
5378 On ch=10 n=51 v=121
5392 On ch=10 n=51 v=0
5392 On ch=10 n=36 v=0
5762 On ch=10 n=42 v=89
5776 On ch=10 n=42 v=0
6018 On ch=10 n=36 v=98
6018 On ch=10 n=51 v=121
6032 On ch=10 n=51 v=0
6032 On ch=10 n=36 v=0
6146 On ch=10 n=36 v=98
6146 On ch=10 n=51 v=121
6160 On ch=10 n=51 v=0
6160 On ch=10 n=36 v=0
6530 On ch=10 n=42 v=89
6544 On ch=10 n=42 v=0
6786 On ch=10 n=36 v=98
6786 On ch=10 n=51 v=121
6800 On ch=10 n=51 v=0
6800 On ch=10 n=36 v=0
6914 On ch=10 n=36 v=98
6914 On ch=10 n=51 v=121
6928 On ch=10 n=51 v=0
6928 On ch=10 n=36 v=0
7170 On ch=10 n=42 v=89
7184 On ch=10 n=42 v=0
7298 On ch=10 n=42 v=47
7312 On ch=10 n=42 v=0
7426 On ch=10 n=42 v=89
7440 On ch=10 n=42 v=0
7554 On ch=10 n=46 v=94
7568 On ch=10 n=46 v=0
7682 On ch=10 n=42 v=89
7682 On ch=10 n=36 v=98
7696 On ch=10 n=36 v=0
7696 On ch=10 n=42 v=0
7938 On ch=10 n=42 v=47
7952 On ch=10 n=42 v=0
8066 On ch=10 n=42 v=47
8066 On ch=10 n=37 v=121
8080 On ch=10 n=37 v=0
8080 On ch=10 n=42 v=0
8322 On ch=10 n=42 v=47
8336 On ch=10 n=42 v=0
8450 On ch=10 n=42 v=89
8450 On ch=10 n=36 v=98
8464 On ch=10 n=36 v=0
8464 On ch=10 n=42 v=0
8706 On ch=10 n=42 v=47
8720 On ch=10 n=42 v=0
8834 On ch=10 n=42 v=47
8834 On ch=10 n=37 v=121
8848 On ch=10 n=37 v=0
8848 On ch=10 n=42 v=0
9090 On ch=10 n=42 v=47
9104 On ch=10 n=42 v=0
9218 On ch=10 n=42 v=89
9218 On ch=10 n=36 v=98
9232 On ch=10 n=36 v=0
9232 On ch=10 n=42 v=0
9474 On ch=10 n=42 v=47
9488 On ch=10 n=42 v=0
9602 On ch=10 n=42 v=47
9602 On ch=10 n=37 v=121
9616 On ch=10 n=37 v=0
9616 On ch=10 n=42 v=0
9858 On ch=10 n=42 v=47
9872 On ch=10 n=42 v=0
9986 On ch=10 n=42 v=89
9986 On ch=10 n=36 v=98
10000 On ch=10 n=36 v=0
10000 On ch=10 n=42 v=0
10242 On ch=10 n=42 v=47
10256 On ch=10 n=42 v=0
10370 On ch=10 n=42 v=47
10370 On ch=10 n=37 v=121
10384 On ch=10 n=37 v=0
10384 On ch=10 n=42 v=0
10626 On ch=10 n=42 v=47
10626 On ch=10 n=36 v=98
10640 On ch=10 n=36 v=0
10640 On ch=10 n=42 v=0
10754 On ch=10 n=42 v=89
10754 On ch=10 n=36 v=98
10768 On ch=10 n=36 v=0
10768 On ch=10 n=42 v=0
11010 On ch=10 n=42 v=47
11024 On ch=10 n=42 v=0
11138 On ch=10 n=42 v=47
11138 On ch=10 n=37 v=121
11152 On ch=10 n=37 v=0
11152 On ch=10 n=42 v=0
11394 On ch=10 n=42 v=47
11408 On ch=10 n=42 v=0
11522 On ch=10 n=42 v=89
11522 On ch=10 n=36 v=98
11536 On ch=10 n=36 v=0
11536 On ch=10 n=42 v=0
11778 On ch=10 n=42 v=47
11792 On ch=10 n=42 v=0
11906 On ch=10 n=42 v=47
11906 On ch=10 n=37 v=121
11920 On ch=10 n=37 v=0
11920 On ch=10 n=42 v=0
12162 On ch=10 n=42 v=47
12176 On ch=10 n=42 v=0
12290 On ch=10 n=42 v=89
12290 On ch=10 n=36 v=98
12304 On ch=10 n=36 v=0
12304 On ch=10 n=42 v=0
12546 On ch=10 n=42 v=47
12560 On ch=10 n=42 v=0
12674 On ch=10 n=42 v=47
12674 On ch=10 n=37 v=121
12688 On ch=10 n=37 v=0
12688 On ch=10 n=42 v=0
12930 On ch=10 n=42 v=47
12944 On ch=10 n=42 v=0
13058 On ch=10 n=42 v=89
13058 On ch=10 n=36 v=98
13072 On ch=10 n=36 v=0
13072 On ch=10 n=42 v=0
13314 On ch=10 n=42 v=47
13328 On ch=10 n=42 v=0
13442 On ch=10 n=42 v=47
13442 On ch=10 n=37 v=121
13456 On ch=10 n=37 v=0
13456 On ch=10 n=42 v=0
13698 On ch=10 n=42 v=47
13698 On ch=10 n=36 v=98
13712 On ch=10 n=36 v=0
13712 On ch=10 n=42 v=0
13826 On ch=10 n=42 v=89
13826 On ch=10 n=36 v=98
13840 On ch=10 n=36 v=0
13840 On ch=10 n=42 v=0
14082 On ch=10 n=42 v=47
14096 On ch=10 n=42 v=0
14210 On ch=10 n=42 v=47
14210 On ch=10 n=37 v=121
14224 On ch=10 n=37 v=0
14224 On ch=10 n=42 v=0
14466 On ch=10 n=42 v=47
14480 On ch=10 n=42 v=0
14594 On ch=10 n=42 v=89
14594 On ch=10 n=36 v=98
14608 On ch=10 n=36 v=0
14608 On ch=10 n=42 v=0
14850 On ch=10 n=42 v=47
14864 On ch=10 n=42 v=0
14978 On ch=10 n=42 v=47
14978 On ch=10 n=37 v=121
14992 On ch=10 n=37 v=0
14992 On ch=10 n=42 v=0
15234 On ch=10 n=42 v=47
15248 On ch=10 n=42 v=0
15362 On ch=10 n=42 v=89
15362 On ch=10 n=36 v=98
15376 On ch=10 n=36 v=0
15376 On ch=10 n=42 v=0
15618 On ch=10 n=42 v=47
15632 On ch=10 n=42 v=0
15746 On ch=10 n=42 v=47
15746 On ch=10 n=37 v=121
15760 On ch=10 n=37 v=0
15760 On ch=10 n=42 v=0
16002 On ch=10 n=42 v=47
16016 On ch=10 n=42 v=0
16130 On ch=10 n=42 v=89
16130 On ch=10 n=36 v=98
16144 On ch=10 n=36 v=0
16144 On ch=10 n=42 v=0
16386 On ch=10 n=42 v=47
16400 On ch=10 n=42 v=0
16514 On ch=10 n=42 v=47
16514 On ch=10 n=37 v=121
16528 On ch=10 n=37 v=0
16528 On ch=10 n=42 v=0
16770 On ch=10 n=42 v=47
16770 On ch=10 n=36 v=98
16784 On ch=10 n=36 v=0
16784 On ch=10 n=42 v=0
16898 On ch=10 n=42 v=89
16898 On ch=10 n=36 v=98
16912 On ch=10 n=36 v=0
16912 On ch=10 n=42 v=0
17154 On ch=10 n=42 v=47
17168 On ch=10 n=42 v=0
17282 On ch=10 n=42 v=47
17282 On ch=10 n=37 v=121
17296 On ch=10 n=37 v=0
17296 On ch=10 n=42 v=0
17538 On ch=10 n=42 v=47
17552 On ch=10 n=42 v=0
17666 On ch=10 n=42 v=89
17666 On ch=10 n=36 v=98
17680 On ch=10 n=36 v=0
17680 On ch=10 n=42 v=0
17922 On ch=10 n=42 v=47
17936 On ch=10 n=42 v=0
18050 On ch=10 n=42 v=47
18050 On ch=10 n=37 v=121
18064 On ch=10 n=37 v=0
18064 On ch=10 n=42 v=0
18306 On ch=10 n=42 v=47
18320 On ch=10 n=42 v=0
18434 On ch=10 n=42 v=89
18434 On ch=10 n=36 v=98
18448 On ch=10 n=36 v=0
18448 On ch=10 n=42 v=0
18690 On ch=10 n=42 v=47
18704 On ch=10 n=42 v=0
18818 On ch=10 n=42 v=47
18818 On ch=10 n=37 v=121
18832 On ch=10 n=37 v=0
18832 On ch=10 n=42 v=0
19074 On ch=10 n=42 v=47
19088 On ch=10 n=42 v=0
19202 On ch=10 n=42 v=89
19202 On ch=10 n=36 v=98
19216 On ch=10 n=36 v=0
19216 On ch=10 n=42 v=0
19458 On ch=10 n=42 v=47
19472 On ch=10 n=42 v=0
19586 On ch=10 n=42 v=47
19586 On ch=10 n=37 v=121
19600 On ch=10 n=37 v=0
19600 On ch=10 n=42 v=0
19842 On ch=10 n=42 v=47
19842 On ch=10 n=36 v=98
19856 On ch=10 n=36 v=0
19856 On ch=10 n=42 v=0
19970 On ch=10 n=42 v=89
19970 On ch=10 n=36 v=98
19984 On ch=10 n=36 v=0
19984 On ch=10 n=42 v=0
20226 On ch=10 n=42 v=47
20240 On ch=10 n=42 v=0
20354 On ch=10 n=42 v=47
20354 On ch=10 n=37 v=121
20368 On ch=10 n=37 v=0
20368 On ch=10 n=42 v=0
20610 On ch=10 n=42 v=47
20624 On ch=10 n=42 v=0
20738 On ch=10 n=42 v=89
20738 On ch=10 n=36 v=98
20752 On ch=10 n=36 v=0
20752 On ch=10 n=42 v=0
20994 On ch=10 n=42 v=47
21008 On ch=10 n=42 v=0
21122 On ch=10 n=42 v=47
21122 On ch=10 n=37 v=121
21136 On ch=10 n=37 v=0
21136 On ch=10 n=42 v=0
21378 On ch=10 n=42 v=47
21392 On ch=10 n=42 v=0
21506 On ch=10 n=42 v=89
21506 On ch=10 n=36 v=98
21520 On ch=10 n=36 v=0
21520 On ch=10 n=42 v=0
21762 On ch=10 n=42 v=47
21776 On ch=10 n=42 v=0
21890 On ch=10 n=42 v=47
21890 On ch=10 n=37 v=121
21904 On ch=10 n=37 v=0
21904 On ch=10 n=42 v=0
22146 On ch=10 n=42 v=47
22160 On ch=10 n=42 v=0
22274 On ch=10 n=42 v=89
22274 On ch=10 n=36 v=98
22288 On ch=10 n=36 v=0
22288 On ch=10 n=42 v=0
22530 On ch=10 n=42 v=47
22544 On ch=10 n=42 v=0
22658 On ch=10 n=42 v=47
22658 On ch=10 n=37 v=121
22672 On ch=10 n=37 v=0
22672 On ch=10 n=42 v=0
22914 On ch=10 n=42 v=47
22914 On ch=10 n=36 v=98
22928 On ch=10 n=36 v=0
22928 On ch=10 n=42 v=0
23042 On ch=10 n=42 v=89
23042 On ch=10 n=36 v=98
23056 On ch=10 n=36 v=0
23056 On ch=10 n=42 v=0
23298 On ch=10 n=42 v=47
23312 On ch=10 n=42 v=0
23426 On ch=10 n=42 v=47
23426 On ch=10 n=37 v=121
23440 On ch=10 n=37 v=0
23440 On ch=10 n=42 v=0
23682 On ch=10 n=42 v=47
23696 On ch=10 n=42 v=0
23810 On ch=10 n=42 v=89
23810 On ch=10 n=36 v=98
23824 On ch=10 n=36 v=0
23824 On ch=10 n=42 v=0
24066 On ch=10 n=42 v=47
24080 On ch=10 n=42 v=0
24194 On ch=10 n=42 v=47
24194 On ch=10 n=37 v=121
24208 On ch=10 n=37 v=0
24208 On ch=10 n=42 v=0
24450 On ch=10 n=42 v=47
24464 On ch=10 n=42 v=0
24578 On ch=10 n=42 v=89
24578 On ch=10 n=36 v=98
24592 On ch=10 n=36 v=0
24592 On ch=10 n=42 v=0
24834 On ch=10 n=42 v=47
24848 On ch=10 n=42 v=0
24962 On ch=10 n=42 v=47
24962 On ch=10 n=37 v=121
24976 On ch=10 n=37 v=0
24976 On ch=10 n=42 v=0
25218 On ch=10 n=42 v=47
25232 On ch=10 n=42 v=0
25346 On ch=10 n=42 v=89
25346 On ch=10 n=36 v=98
25360 On ch=10 n=36 v=0
25360 On ch=10 n=42 v=0
25602 On ch=10 n=42 v=47
25616 On ch=10 n=42 v=0
25730 On ch=10 n=42 v=47
25730 On ch=10 n=37 v=121
25744 On ch=10 n=37 v=0
25744 On ch=10 n=42 v=0
25986 On ch=10 n=42 v=47
25986 On ch=10 n=36 v=98
26000 On ch=10 n=36 v=0
26000 On ch=10 n=42 v=0
26114 On ch=10 n=42 v=89
26114 On ch=10 n=36 v=98
26128 On ch=10 n=36 v=0
26128 On ch=10 n=42 v=0
26370 On ch=10 n=42 v=47
26384 On ch=10 n=42 v=0
26498 On ch=10 n=42 v=47
26498 On ch=10 n=37 v=121
26512 On ch=10 n=37 v=0
26512 On ch=10 n=42 v=0
26754 On ch=10 n=42 v=47
26768 On ch=10 n=42 v=0
26882 On ch=10 n=42 v=89
26882 On ch=10 n=36 v=98
26896 On ch=10 n=36 v=0
26896 On ch=10 n=42 v=0
27138 On ch=10 n=42 v=47
27152 On ch=10 n=42 v=0
27266 On ch=10 n=42 v=47
27266 On ch=10 n=37 v=121
27280 On ch=10 n=37 v=0
27280 On ch=10 n=42 v=0
27522 On ch=10 n=42 v=47
27536 On ch=10 n=42 v=0
27650 On ch=10 n=42 v=89
27650 On ch=10 n=36 v=98
27664 On ch=10 n=36 v=0
27664 On ch=10 n=42 v=0
27906 On ch=10 n=42 v=47
27920 On ch=10 n=42 v=0
28034 On ch=10 n=42 v=47
28034 On ch=10 n=37 v=121
28048 On ch=10 n=37 v=0
28048 On ch=10 n=42 v=0
28290 On ch=10 n=42 v=47
28304 On ch=10 n=42 v=0
28418 On ch=10 n=42 v=89
28418 On ch=10 n=36 v=98
28432 On ch=10 n=36 v=0
28432 On ch=10 n=42 v=0
28674 On ch=10 n=42 v=47
28688 On ch=10 n=42 v=0
28800 On ch=10 n=51 v=87
28802 On ch=10 n=42 v=47
28802 On ch=10 n=37 v=121
28816 On ch=10 n=37 v=0
28816 On ch=10 n=42 v=0
28838 On ch=10 n=51 v=0
29058 On ch=10 n=42 v=47
29058 On ch=10 n=36 v=98
29072 On ch=10 n=36 v=0
29072 On ch=10 n=42 v=0
29184 On ch=10 n=51 v=87
29186 On ch=10 n=42 v=89
29186 On ch=10 n=36 v=98
29200 On ch=10 n=36 v=0
29200 On ch=10 n=42 v=0
29216 On ch=10 n=51 v=0
29442 On ch=10 n=42 v=47
29456 On ch=10 n=42 v=0
29570 On ch=10 n=42 v=47
29570 On ch=10 n=37 v=121
29584 On ch=10 n=37 v=0
29584 On ch=10 n=42 v=0
29826 On ch=10 n=42 v=47
29840 On ch=10 n=42 v=0
29954 On ch=10 n=42 v=89
29954 On ch=10 n=36 v=98
29968 On ch=10 n=36 v=0
29968 On ch=10 n=42 v=0
30210 On ch=10 n=42 v=47
30224 On ch=10 n=42 v=0
30338 On ch=10 n=42 v=47
30338 On ch=10 n=37 v=121
30352 On ch=10 n=37 v=0
30352 On ch=10 n=42 v=0
30594 On ch=10 n=42 v=47
30608 On ch=10 n=42 v=0
30720 On ch=10 n=46 v=45
30720 On ch=10 n=51 v=81
30722 On ch=10 n=36 v=98
30734 On ch=10 n=51 v=0
30734 On ch=10 n=46 v=0
30736 On ch=10 n=36 v=0
31104 On ch=10 n=42 v=72
31118 On ch=10 n=42 v=0
31360 On ch=10 n=51 v=96
31374 On ch=10 n=51 v=0
31744 On ch=10 n=51 v=81
31758 On ch=10 n=51 v=0
31872 On ch=10 n=42 v=79
31886 On ch=10 n=42 v=0
32130 On ch=10 n=36 v=98
32144 On ch=10 n=36 v=0
32258 On ch=10 n=42 v=89
32258 On ch=10 n=36 v=98
32272 On ch=10 n=36 v=0
32272 On ch=10 n=42 v=0
32514 On ch=10 n=42 v=47
32528 On ch=10 n=42 v=0
32642 On ch=10 n=42 v=47
32642 On ch=10 n=37 v=121
32656 On ch=10 n=37 v=0
32656 On ch=10 n=42 v=0
32898 On ch=10 n=42 v=47
32912 On ch=10 n=42 v=0
33026 On ch=10 n=42 v=89
33026 On ch=10 n=36 v=98
33040 On ch=10 n=36 v=0
33040 On ch=10 n=42 v=0
33282 On ch=10 n=42 v=47
33296 On ch=10 n=42 v=0
33410 On ch=10 n=42 v=47
33410 On ch=10 n=37 v=121
33424 On ch=10 n=37 v=0
33424 On ch=10 n=42 v=0
33666 On ch=10 n=42 v=47
33680 On ch=10 n=42 v=0
33794 On ch=10 n=42 v=89
33794 On ch=10 n=36 v=98
33808 On ch=10 n=36 v=0
33808 On ch=10 n=42 v=0
34050 On ch=10 n=42 v=47
34064 On ch=10 n=42 v=0
34178 On ch=10 n=42 v=47
34178 On ch=10 n=37 v=121
34192 On ch=10 n=37 v=0
34192 On ch=10 n=42 v=0
34434 On ch=10 n=42 v=47
34448 On ch=10 n=42 v=0
34562 On ch=10 n=42 v=89
34562 On ch=10 n=36 v=98
34576 On ch=10 n=36 v=0
34576 On ch=10 n=42 v=0
34818 On ch=10 n=42 v=47
34832 On ch=10 n=42 v=0
34946 On ch=10 n=42 v=47
34946 On ch=10 n=37 v=121
34960 On ch=10 n=37 v=0
34960 On ch=10 n=42 v=0
35202 On ch=10 n=42 v=47
35202 On ch=10 n=36 v=98
35216 On ch=10 n=36 v=0
35216 On ch=10 n=42 v=0
35330 On ch=10 n=42 v=89
35330 On ch=10 n=36 v=98
35344 On ch=10 n=36 v=0
35344 On ch=10 n=42 v=0
35586 On ch=10 n=42 v=47
35600 On ch=10 n=42 v=0
35714 On ch=10 n=42 v=47
35714 On ch=10 n=37 v=121
35728 On ch=10 n=37 v=0
35728 On ch=10 n=42 v=0
35970 On ch=10 n=42 v=47
35984 On ch=10 n=42 v=0
36098 On ch=10 n=42 v=89
36098 On ch=10 n=36 v=98
36112 On ch=10 n=36 v=0
36112 On ch=10 n=42 v=0
36354 On ch=10 n=42 v=47
36368 On ch=10 n=42 v=0
36482 On ch=10 n=42 v=47
36482 On ch=10 n=37 v=121
36496 On ch=10 n=37 v=0
36496 On ch=10 n=42 v=0
36738 On ch=10 n=42 v=47
36752 On ch=10 n=42 v=0
36866 On ch=10 n=42 v=89
36866 On ch=10 n=36 v=98
36880 On ch=10 n=36 v=0
36880 On ch=10 n=42 v=0
37122 On ch=10 n=42 v=47
37136 On ch=10 n=42 v=0
37250 On ch=10 n=42 v=47
37250 On ch=10 n=37 v=121
37264 On ch=10 n=37 v=0
37264 On ch=10 n=42 v=0
37506 On ch=10 n=42 v=47
37520 On ch=10 n=42 v=0
37634 On ch=10 n=42 v=89
37634 On ch=10 n=36 v=98
37648 On ch=10 n=36 v=0
37648 On ch=10 n=42 v=0
37890 On ch=10 n=42 v=47
37904 On ch=10 n=42 v=0
38018 On ch=10 n=42 v=47
38018 On ch=10 n=37 v=121
38032 On ch=10 n=37 v=0
38032 On ch=10 n=42 v=0
38274 On ch=10 n=42 v=47
38274 On ch=10 n=36 v=98
38288 On ch=10 n=36 v=0
38288 On ch=10 n=42 v=0
38402 On ch=10 n=42 v=89
38402 On ch=10 n=36 v=98
38416 On ch=10 n=36 v=0
38416 On ch=10 n=42 v=0
38658 On ch=10 n=42 v=47
38672 On ch=10 n=42 v=0
38786 On ch=10 n=42 v=47
38786 On ch=10 n=37 v=121
38800 On ch=10 n=37 v=0
38800 On ch=10 n=42 v=0
39042 On ch=10 n=42 v=47
39056 On ch=10 n=42 v=0
39170 On ch=10 n=42 v=89
39170 On ch=10 n=36 v=98
39184 On ch=10 n=36 v=0
39184 On ch=10 n=42 v=0
39426 On ch=10 n=42 v=47
39440 On ch=10 n=42 v=0
39554 On ch=10 n=42 v=47
39554 On ch=10 n=37 v=121
39568 On ch=10 n=37 v=0
39568 On ch=10 n=42 v=0
39810 On ch=10 n=42 v=47
39824 On ch=10 n=42 v=0
39938 On ch=10 n=42 v=89
39938 On ch=10 n=36 v=98
39952 On ch=10 n=36 v=0
39952 On ch=10 n=42 v=0
40194 On ch=10 n=42 v=47
40208 On ch=10 n=42 v=0
40322 On ch=10 n=42 v=47
40322 On ch=10 n=37 v=121
40336 On ch=10 n=37 v=0
40336 On ch=10 n=42 v=0
40578 On ch=10 n=42 v=47
40592 On ch=10 n=42 v=0
40706 On ch=10 n=42 v=89
40706 On ch=10 n=36 v=98
40720 On ch=10 n=36 v=0
40720 On ch=10 n=42 v=0
40962 On ch=10 n=42 v=47
40976 On ch=10 n=42 v=0
41090 On ch=10 n=42 v=47
41090 On ch=10 n=37 v=121
41104 On ch=10 n=37 v=0
41104 On ch=10 n=42 v=0
41346 On ch=10 n=42 v=47
41346 On ch=10 n=36 v=98
41360 On ch=10 n=36 v=0
41360 On ch=10 n=42 v=0
41474 On ch=10 n=42 v=89
41474 On ch=10 n=36 v=98
41488 On ch=10 n=36 v=0
41488 On ch=10 n=42 v=0
41730 On ch=10 n=42 v=47
41744 On ch=10 n=42 v=0
41858 On ch=10 n=42 v=47
41858 On ch=10 n=37 v=121
41872 On ch=10 n=37 v=0
41872 On ch=10 n=42 v=0
42114 On ch=10 n=42 v=47
42128 On ch=10 n=42 v=0
42242 On ch=10 n=42 v=89
42242 On ch=10 n=36 v=98
42256 On ch=10 n=36 v=0
42256 On ch=10 n=42 v=0
42498 On ch=10 n=42 v=47
42512 On ch=10 n=42 v=0
42626 On ch=10 n=42 v=47
42626 On ch=10 n=37 v=121
42640 On ch=10 n=37 v=0
42640 On ch=10 n=42 v=0
42882 On ch=10 n=42 v=47
42896 On ch=10 n=42 v=0
43010 On ch=10 n=42 v=89
43010 On ch=10 n=36 v=98
43024 On ch=10 n=36 v=0
43024 On ch=10 n=42 v=0
43266 On ch=10 n=42 v=47
43280 On ch=10 n=42 v=0
43394 On ch=10 n=42 v=47
43394 On ch=10 n=37 v=121
43408 On ch=10 n=37 v=0
43408 On ch=10 n=42 v=0
43650 On ch=10 n=42 v=47
43664 On ch=10 n=42 v=0
43778 On ch=10 n=42 v=89
43778 On ch=10 n=36 v=98
43792 On ch=10 n=36 v=0
43792 On ch=10 n=42 v=0
44034 On ch=10 n=42 v=47
44048 On ch=10 n=42 v=0
44162 On ch=10 n=42 v=47
44162 On ch=10 n=37 v=121
44176 On ch=10 n=37 v=0
44176 On ch=10 n=42 v=0
44418 On ch=10 n=42 v=47
44418 On ch=10 n=36 v=98
44432 On ch=10 n=36 v=0
44432 On ch=10 n=42 v=0
44546 On ch=10 n=42 v=89
44546 On ch=10 n=36 v=98
44560 On ch=10 n=36 v=0
44560 On ch=10 n=42 v=0
44802 On ch=10 n=42 v=47
44816 On ch=10 n=42 v=0
44930 On ch=10 n=42 v=47
44930 On ch=10 n=37 v=121
44944 On ch=10 n=37 v=0
44944 On ch=10 n=42 v=0
45186 On ch=10 n=42 v=47
45200 On ch=10 n=42 v=0
45314 On ch=10 n=42 v=89
45314 On ch=10 n=36 v=98
45328 On ch=10 n=36 v=0
45328 On ch=10 n=42 v=0
45570 On ch=10 n=42 v=47
45584 On ch=10 n=42 v=0
45698 On ch=10 n=42 v=47
45698 On ch=10 n=37 v=121
45712 On ch=10 n=37 v=0
45712 On ch=10 n=42 v=0
45954 On ch=10 n=42 v=47
45968 On ch=10 n=42 v=0
46082 On ch=10 n=42 v=89
46082 On ch=10 n=36 v=98
46096 On ch=10 n=36 v=0
46096 On ch=10 n=42 v=0
46338 On ch=10 n=42 v=47
46352 On ch=10 n=42 v=0
46466 On ch=10 n=42 v=47
46466 On ch=10 n=37 v=121
46480 On ch=10 n=37 v=0
46480 On ch=10 n=42 v=0
46722 On ch=10 n=42 v=47
46736 On ch=10 n=42 v=0
46850 On ch=10 n=42 v=89
46850 On ch=10 n=36 v=98
46864 On ch=10 n=36 v=0
46864 On ch=10 n=42 v=0
47106 On ch=10 n=42 v=47
47120 On ch=10 n=42 v=0
47234 On ch=10 n=42 v=47
47234 On ch=10 n=37 v=121
47248 On ch=10 n=37 v=0
47248 On ch=10 n=42 v=0
47490 On ch=10 n=42 v=47
47490 On ch=10 n=36 v=98
47504 On ch=10 n=36 v=0
47504 On ch=10 n=42 v=0
47618 On ch=10 n=42 v=89
47618 On ch=10 n=36 v=98
47632 On ch=10 n=36 v=0
47632 On ch=10 n=42 v=0
47874 On ch=10 n=42 v=47
47888 On ch=10 n=42 v=0
48002 On ch=10 n=42 v=47
48002 On ch=10 n=37 v=121
48016 On ch=10 n=37 v=0
48016 On ch=10 n=42 v=0
48258 On ch=10 n=42 v=47
48272 On ch=10 n=42 v=0
48386 On ch=10 n=42 v=89
48386 On ch=10 n=36 v=98
48400 On ch=10 n=36 v=0
48400 On ch=10 n=42 v=0
48642 On ch=10 n=42 v=47
48656 On ch=10 n=42 v=0
48770 On ch=10 n=42 v=47
48770 On ch=10 n=37 v=121
48784 On ch=10 n=37 v=0
48784 On ch=10 n=42 v=0
49026 On ch=10 n=42 v=47
49040 On ch=10 n=42 v=0
49154 On ch=10 n=42 v=89
49154 On ch=10 n=36 v=98
49168 On ch=10 n=36 v=0
49168 On ch=10 n=42 v=0
49410 On ch=10 n=42 v=47
49424 On ch=10 n=42 v=0
49538 On ch=10 n=42 v=47
49538 On ch=10 n=37 v=121
49552 On ch=10 n=37 v=0
49552 On ch=10 n=42 v=0
49794 On ch=10 n=42 v=47
49808 On ch=10 n=42 v=0
49922 On ch=10 n=42 v=89
49922 On ch=10 n=36 v=98
49936 On ch=10 n=36 v=0
49936 On ch=10 n=42 v=0
50178 On ch=10 n=42 v=47
50192 On ch=10 n=42 v=0
50306 On ch=10 n=42 v=47
50306 On ch=10 n=37 v=121
50320 On ch=10 n=37 v=0
50320 On ch=10 n=42 v=0
50562 On ch=10 n=42 v=47
50562 On ch=10 n=36 v=98
50576 On ch=10 n=36 v=0
50576 On ch=10 n=42 v=0
50690 On ch=10 n=42 v=89
50690 On ch=10 n=36 v=98
50704 On ch=10 n=36 v=0
50704 On ch=10 n=42 v=0
50946 On ch=10 n=42 v=47
50960 On ch=10 n=42 v=0
51074 On ch=10 n=42 v=47
51074 On ch=10 n=37 v=121
51088 On ch=10 n=37 v=0
51088 On ch=10 n=42 v=0
51330 On ch=10 n=42 v=47
51344 On ch=10 n=42 v=0
51458 On ch=10 n=42 v=89
51458 On ch=10 n=36 v=98
51472 On ch=10 n=36 v=0
51472 On ch=10 n=42 v=0
51714 On ch=10 n=42 v=47
51728 On ch=10 n=42 v=0
51842 On ch=10 n=42 v=47
51842 On ch=10 n=37 v=121
51856 On ch=10 n=37 v=0
51856 On ch=10 n=42 v=0
52098 On ch=10 n=42 v=47
52112 On ch=10 n=42 v=0
52226 On ch=10 n=42 v=89
52226 On ch=10 n=36 v=98
52240 On ch=10 n=36 v=0
52240 On ch=10 n=42 v=0
52482 On ch=10 n=42 v=47
52496 On ch=10 n=42 v=0
52610 On ch=10 n=42 v=47
52610 On ch=10 n=37 v=121
52624 On ch=10 n=37 v=0
52624 On ch=10 n=42 v=0
52866 On ch=10 n=42 v=47
52880 On ch=10 n=42 v=0
52994 On ch=10 n=42 v=89
52994 On ch=10 n=36 v=98
53008 On ch=10 n=36 v=0
53008 On ch=10 n=42 v=0
53250 On ch=10 n=42 v=47
53264 On ch=10 n=42 v=0
53378 On ch=10 n=42 v=47
53378 On ch=10 n=37 v=121
53392 On ch=10 n=37 v=0
53392 On ch=10 n=42 v=0
53634 On ch=10 n=42 v=47
53634 On ch=10 n=36 v=98
53648 On ch=10 n=36 v=0
53648 On ch=10 n=42 v=0
53762 On ch=10 n=42 v=89
53762 On ch=10 n=36 v=98
53776 On ch=10 n=36 v=0
53776 On ch=10 n=42 v=0
54018 On ch=10 n=42 v=47
54032 On ch=10 n=42 v=0
54146 On ch=10 n=42 v=47
54146 On ch=10 n=37 v=121
54160 On ch=10 n=37 v=0
54160 On ch=10 n=42 v=0
54402 On ch=10 n=42 v=47
54416 On ch=10 n=42 v=0
54530 On ch=10 n=42 v=89
54530 On ch=10 n=36 v=98
54544 On ch=10 n=36 v=0
54544 On ch=10 n=42 v=0
54786 On ch=10 n=42 v=47
54800 On ch=10 n=42 v=0
54914 On ch=10 n=42 v=47
54914 On ch=10 n=37 v=121
54928 On ch=10 n=37 v=0
54928 On ch=10 n=42 v=0
55170 On ch=10 n=42 v=47
55184 On ch=10 n=42 v=0
55298 On ch=10 n=42 v=89
55298 On ch=10 n=36 v=98
55312 On ch=10 n=36 v=0
55312 On ch=10 n=42 v=0
55554 On ch=10 n=42 v=47
55568 On ch=10 n=42 v=0
55682 On ch=10 n=42 v=47
55682 On ch=10 n=37 v=121
55696 On ch=10 n=37 v=0
55696 On ch=10 n=42 v=0
55938 On ch=10 n=42 v=47
55952 On ch=10 n=42 v=0
56066 On ch=10 n=42 v=89
56066 On ch=10 n=36 v=98
56080 On ch=10 n=36 v=0
56080 On ch=10 n=42 v=0
56322 On ch=10 n=42 v=47
56336 On ch=10 n=42 v=0
56450 On ch=10 n=42 v=47
56450 On ch=10 n=37 v=121
56464 On ch=10 n=37 v=0
56464 On ch=10 n=42 v=0
56706 On ch=10 n=42 v=47
56706 On ch=10 n=36 v=98
56720 On ch=10 n=36 v=0
56720 On ch=10 n=42 v=0
56834 On ch=10 n=42 v=89
56834 On ch=10 n=36 v=98
56848 On ch=10 n=36 v=0
56848 On ch=10 n=42 v=0
57090 On ch=10 n=42 v=47
57104 On ch=10 n=42 v=0
57218 On ch=10 n=42 v=47
57218 On ch=10 n=37 v=121
57232 On ch=10 n=37 v=0
57232 On ch=10 n=42 v=0
57474 On ch=10 n=42 v=47
57488 On ch=10 n=42 v=0
57602 On ch=10 n=42 v=89
57602 On ch=10 n=36 v=98
57616 On ch=10 n=36 v=0
57616 On ch=10 n=42 v=0
57858 On ch=10 n=42 v=47
57872 On ch=10 n=42 v=0
57986 On ch=10 n=42 v=47
57986 On ch=10 n=37 v=121
58000 On ch=10 n=37 v=0
58000 On ch=10 n=42 v=0
58242 On ch=10 n=42 v=47
58256 On ch=10 n=42 v=0
58370 On ch=10 n=42 v=89
58370 On ch=10 n=36 v=98
58384 On ch=10 n=36 v=0
58384 On ch=10 n=42 v=0
58626 On ch=10 n=42 v=47
58640 On ch=10 n=42 v=0
58754 On ch=10 n=42 v=47
58754 On ch=10 n=37 v=121
58768 On ch=10 n=37 v=0
58768 On ch=10 n=42 v=0
59010 On ch=10 n=42 v=47
59024 On ch=10 n=42 v=0
59138 On ch=10 n=42 v=89
59138 On ch=10 n=36 v=98
59152 On ch=10 n=36 v=0
59152 On ch=10 n=42 v=0
59394 On ch=10 n=42 v=47
59408 On ch=10 n=42 v=0
59522 On ch=10 n=42 v=47
59522 On ch=10 n=37 v=121
59536 On ch=10 n=37 v=0
59536 On ch=10 n=42 v=0
59778 On ch=10 n=42 v=47
59778 On ch=10 n=36 v=98
59792 On ch=10 n=36 v=0
59792 On ch=10 n=42 v=0
59906 On ch=10 n=42 v=89
59906 On ch=10 n=36 v=98
59920 On ch=10 n=36 v=0
59920 On ch=10 n=42 v=0
60162 On ch=10 n=42 v=47
60176 On ch=10 n=42 v=0
60290 On ch=10 n=42 v=47
60290 On ch=10 n=37 v=121
60304 On ch=10 n=37 v=0
60304 On ch=10 n=42 v=0
60546 On ch=10 n=42 v=47
60560 On ch=10 n=42 v=0
60674 On ch=10 n=42 v=89
60674 On ch=10 n=36 v=98
60688 On ch=10 n=36 v=0
60688 On ch=10 n=42 v=0
60930 On ch=10 n=42 v=47
60944 On ch=10 n=42 v=0
61058 On ch=10 n=42 v=47
61058 On ch=10 n=37 v=121
61072 On ch=10 n=37 v=0
61072 On ch=10 n=42 v=0
61314 On ch=10 n=42 v=47
61328 On ch=10 n=42 v=0
61442 On ch=10 n=42 v=89
61442 On ch=10 n=36 v=98
61456 On ch=10 n=36 v=0
61456 On ch=10 n=42 v=0
61698 On ch=10 n=42 v=47
61712 On ch=10 n=42 v=0
61826 On ch=10 n=42 v=47
61826 On ch=10 n=37 v=121
61840 On ch=10 n=37 v=0
61840 On ch=10 n=42 v=0
62082 On ch=10 n=42 v=47
62096 On ch=10 n=42 v=0
62210 On ch=10 n=42 v=89
62210 On ch=10 n=36 v=98
62224 On ch=10 n=36 v=0
62224 On ch=10 n=42 v=0
62466 On ch=10 n=42 v=47
62480 On ch=10 n=42 v=0
62594 On ch=10 n=42 v=47
62594 On ch=10 n=37 v=121
62608 On ch=10 n=37 v=0
62608 On ch=10 n=42 v=0
62850 On ch=10 n=42 v=47
62850 On ch=10 n=36 v=98
62864 On ch=10 n=36 v=0
62864 On ch=10 n=42 v=0
62978 On ch=10 n=42 v=89
62978 On ch=10 n=36 v=98
62992 On ch=10 n=36 v=0
62992 On ch=10 n=42 v=0
63234 On ch=10 n=42 v=47
63248 On ch=10 n=42 v=0
63362 On ch=10 n=42 v=47
63362 On ch=10 n=37 v=121
63376 On ch=10 n=37 v=0
63376 On ch=10 n=42 v=0
63618 On ch=10 n=42 v=47
63632 On ch=10 n=42 v=0
63746 On ch=10 n=42 v=89
63746 On ch=10 n=36 v=98
63760 On ch=10 n=36 v=0
63760 On ch=10 n=42 v=0
64002 On ch=10 n=42 v=47
64016 On ch=10 n=42 v=0
64130 On ch=10 n=42 v=47
64130 On ch=10 n=37 v=121
64144 On ch=10 n=37 v=0
64144 On ch=10 n=42 v=0
64386 On ch=10 n=42 v=47
64400 On ch=10 n=42 v=0
64514 On ch=10 n=42 v=89
64514 On ch=10 n=36 v=98
64528 On ch=10 n=36 v=0
64528 On ch=10 n=42 v=0
64770 On ch=10 n=42 v=47
64784 On ch=10 n=42 v=0
64898 On ch=10 n=42 v=47
64898 On ch=10 n=37 v=121
64912 On ch=10 n=37 v=0
64912 On ch=10 n=42 v=0
65154 On ch=10 n=42 v=47
65168 On ch=10 n=42 v=0
65282 On ch=10 n=42 v=89
65282 On ch=10 n=36 v=98
65296 On ch=10 n=36 v=0
65296 On ch=10 n=42 v=0
65538 On ch=10 n=42 v=47
65552 On ch=10 n=42 v=0
65666 On ch=10 n=42 v=47
65666 On ch=10 n=37 v=121
65680 On ch=10 n=37 v=0
65680 On ch=10 n=42 v=0
65922 On ch=10 n=42 v=47
65922 On ch=10 n=36 v=98
65936 On ch=10 n=36 v=0
65936 On ch=10 n=42 v=0
66050 On ch=10 n=42 v=89
66050 On ch=10 n=36 v=98
66064 On ch=10 n=36 v=0
66064 On ch=10 n=42 v=0
66306 On ch=10 n=42 v=47
66320 On ch=10 n=42 v=0
66434 On ch=10 n=42 v=47
66434 On ch=10 n=37 v=121
66448 On ch=10 n=37 v=0
66448 On ch=10 n=42 v=0
66690 On ch=10 n=42 v=47
66704 On ch=10 n=42 v=0
66818 On ch=10 n=42 v=89
66818 On ch=10 n=36 v=98
66832 On ch=10 n=36 v=0
66832 On ch=10 n=42 v=0
67074 On ch=10 n=42 v=47
67088 On ch=10 n=42 v=0
67202 On ch=10 n=42 v=47
67202 On ch=10 n=37 v=121
67216 On ch=10 n=37 v=0
67216 On ch=10 n=42 v=0
67458 On ch=10 n=42 v=47
67472 On ch=10 n=42 v=0
67586 On ch=10 n=42 v=89
67586 On ch=10 n=36 v=98
67600 On ch=10 n=36 v=0
67600 On ch=10 n=42 v=0
67842 On ch=10 n=42 v=47
67856 On ch=10 n=42 v=0
67970 On ch=10 n=42 v=47
67970 On ch=10 n=37 v=121
67984 On ch=10 n=37 v=0
67984 On ch=10 n=42 v=0
68226 On ch=10 n=42 v=47
68240 On ch=10 n=42 v=0
68354 On ch=10 n=42 v=89
68354 On ch=10 n=36 v=98
68368 On ch=10 n=36 v=0
68368 On ch=10 n=42 v=0
68610 On ch=10 n=42 v=47
68624 On ch=10 n=42 v=0
68738 On ch=10 n=42 v=47
68738 On ch=10 n=37 v=121
68752 On ch=10 n=37 v=0
68752 On ch=10 n=42 v=0
68994 On ch=10 n=42 v=47
68994 On ch=10 n=36 v=98
69008 On ch=10 n=36 v=0
69008 On ch=10 n=42 v=0
69122 On ch=10 n=42 v=89
69122 On ch=10 n=36 v=98
69136 On ch=10 n=36 v=0
69136 On ch=10 n=42 v=0
69378 On ch=10 n=42 v=47
69392 On ch=10 n=42 v=0
69506 On ch=10 n=42 v=47
69506 On ch=10 n=37 v=121
69520 On ch=10 n=37 v=0
69520 On ch=10 n=42 v=0
69762 On ch=10 n=42 v=47
69776 On ch=10 n=42 v=0
69890 On ch=10 n=42 v=89
69890 On ch=10 n=36 v=98
69904 On ch=10 n=36 v=0
69904 On ch=10 n=42 v=0
70146 On ch=10 n=42 v=47
70160 On ch=10 n=42 v=0
70274 On ch=10 n=42 v=47
70274 On ch=10 n=37 v=121
70288 On ch=10 n=37 v=0
70288 On ch=10 n=42 v=0
70530 On ch=10 n=42 v=47
70544 On ch=10 n=42 v=0
70658 On ch=10 n=42 v=89
70658 On ch=10 n=36 v=98
70672 On ch=10 n=36 v=0
70672 On ch=10 n=42 v=0
70914 On ch=10 n=42 v=47
70928 On ch=10 n=42 v=0
71042 On ch=10 n=42 v=47
71042 On ch=10 n=37 v=121
71056 On ch=10 n=37 v=0
71056 On ch=10 n=42 v=0
71298 On ch=10 n=42 v=47
71312 On ch=10 n=42 v=0
71426 On ch=10 n=42 v=89
71426 On ch=10 n=36 v=98
71440 On ch=10 n=36 v=0
71440 On ch=10 n=42 v=0
71682 On ch=10 n=42 v=47
71696 On ch=10 n=42 v=0
71810 On ch=10 n=42 v=47
71810 On ch=10 n=37 v=121
71824 On ch=10 n=37 v=0
71824 On ch=10 n=42 v=0
72066 On ch=10 n=42 v=47
72066 On ch=10 n=36 v=98
72080 On ch=10 n=36 v=0
72080 On ch=10 n=42 v=0
72194 On ch=10 n=42 v=89
72194 On ch=10 n=36 v=98
72208 On ch=10 n=36 v=0
72208 On ch=10 n=42 v=0
72450 On ch=10 n=42 v=47
72464 On ch=10 n=42 v=0
72578 On ch=10 n=42 v=47
72578 On ch=10 n=37 v=121
72592 On ch=10 n=37 v=0
72592 On ch=10 n=42 v=0
72834 On ch=10 n=42 v=47
72848 On ch=10 n=42 v=0
72962 On ch=10 n=42 v=89
72962 On ch=10 n=36 v=98
72976 On ch=10 n=36 v=0
72976 On ch=10 n=42 v=0
73218 On ch=10 n=42 v=47
73232 On ch=10 n=42 v=0
73346 On ch=10 n=42 v=47
73346 On ch=10 n=37 v=121
73360 On ch=10 n=37 v=0
73360 On ch=10 n=42 v=0
73602 On ch=10 n=42 v=47
73616 On ch=10 n=42 v=0
73730 On ch=10 n=42 v=89
73730 On ch=10 n=36 v=98
73744 On ch=10 n=36 v=0
73744 On ch=10 n=42 v=0
73986 On ch=10 n=42 v=47
74000 On ch=10 n=42 v=0
74114 On ch=10 n=42 v=47
74114 On ch=10 n=37 v=121
74128 On ch=10 n=37 v=0
74128 On ch=10 n=42 v=0
74370 On ch=10 n=42 v=47
74384 On ch=10 n=42 v=0
74498 On ch=10 n=42 v=89
74498 On ch=10 n=36 v=98
74512 On ch=10 n=36 v=0
74512 On ch=10 n=42 v=0
74754 On ch=10 n=42 v=47
74768 On ch=10 n=42 v=0
74882 On ch=10 n=42 v=47
74882 On ch=10 n=37 v=121
74896 On ch=10 n=37 v=0
74896 On ch=10 n=42 v=0
75138 On ch=10 n=42 v=47
75138 On ch=10 n=36 v=98
75152 On ch=10 n=36 v=0
75152 On ch=10 n=42 v=0
75266 On ch=10 n=42 v=89
75266 On ch=10 n=36 v=98
75280 On ch=10 n=36 v=0
75280 On ch=10 n=42 v=0
75522 On ch=10 n=42 v=47
75536 On ch=10 n=42 v=0
75650 On ch=10 n=42 v=47
75650 On ch=10 n=37 v=121
75664 On ch=10 n=37 v=0
75664 On ch=10 n=42 v=0
75906 On ch=10 n=42 v=47
75920 On ch=10 n=42 v=0
76034 On ch=10 n=42 v=89
76034 On ch=10 n=36 v=98
76048 On ch=10 n=36 v=0
76048 On ch=10 n=42 v=0
76290 On ch=10 n=42 v=47
76304 On ch=10 n=42 v=0
76418 On ch=10 n=42 v=47
76418 On ch=10 n=37 v=121
76432 On ch=10 n=37 v=0
76432 On ch=10 n=42 v=0
76674 On ch=10 n=42 v=47
76688 On ch=10 n=42 v=0
76802 On ch=10 n=42 v=89
76802 On ch=10 n=36 v=98
76816 On ch=10 n=36 v=0
76816 On ch=10 n=42 v=0
77058 On ch=10 n=42 v=47
77072 On ch=10 n=42 v=0
77186 On ch=10 n=42 v=47
77186 On ch=10 n=37 v=121
77200 On ch=10 n=37 v=0
77200 On ch=10 n=42 v=0
77442 On ch=10 n=42 v=47
77456 On ch=10 n=42 v=0
77570 On ch=10 n=42 v=89
77570 On ch=10 n=36 v=98
77584 On ch=10 n=36 v=0
77584 On ch=10 n=42 v=0
77826 On ch=10 n=42 v=47
77840 On ch=10 n=42 v=0
77954 On ch=10 n=42 v=47
77954 On ch=10 n=37 v=121
77968 On ch=10 n=37 v=0
77968 On ch=10 n=42 v=0
78210 On ch=10 n=42 v=47
78210 On ch=10 n=36 v=98
78224 On ch=10 n=36 v=0
78224 On ch=10 n=42 v=0
78338 On ch=10 n=42 v=89
78338 On ch=10 n=36 v=98
78352 On ch=10 n=36 v=0
78352 On ch=10 n=42 v=0
78594 On ch=10 n=42 v=47
78608 On ch=10 n=42 v=0
78722 On ch=10 n=42 v=47
78722 On ch=10 n=37 v=121
78736 On ch=10 n=37 v=0
78736 On ch=10 n=42 v=0
78978 On ch=10 n=42 v=47
78992 On ch=10 n=42 v=0
79106 On ch=10 n=42 v=89
79106 On ch=10 n=36 v=98
79120 On ch=10 n=36 v=0
79120 On ch=10 n=42 v=0
79362 On ch=10 n=42 v=47
79376 On ch=10 n=42 v=0
79490 On ch=10 n=42 v=47
79490 On ch=10 n=37 v=121
79504 On ch=10 n=37 v=0
79504 On ch=10 n=42 v=0
79746 On ch=10 n=42 v=47
79760 On ch=10 n=42 v=0
79874 On ch=10 n=42 v=89
79874 On ch=10 n=36 v=98
79888 On ch=10 n=36 v=0
79888 On ch=10 n=42 v=0
80130 On ch=10 n=42 v=47
80144 On ch=10 n=42 v=0
80258 On ch=10 n=42 v=47
80258 On ch=10 n=37 v=121
80272 On ch=10 n=37 v=0
80272 On ch=10 n=42 v=0
80514 On ch=10 n=42 v=47
80528 On ch=10 n=42 v=0
80642 On ch=10 n=42 v=89
80642 On ch=10 n=36 v=98
80656 On ch=10 n=36 v=0
80656 On ch=10 n=42 v=0
80898 On ch=10 n=42 v=47
80912 On ch=10 n=42 v=0
81026 On ch=10 n=42 v=47
81026 On ch=10 n=37 v=121
81040 On ch=10 n=37 v=0
81040 On ch=10 n=42 v=0
81282 On ch=10 n=42 v=47
81282 On ch=10 n=36 v=98
81296 On ch=10 n=36 v=0
81296 On ch=10 n=42 v=0
81410 On ch=10 n=42 v=89
81410 On ch=10 n=36 v=98
81424 On ch=10 n=36 v=0
81424 On ch=10 n=42 v=0
81666 On ch=10 n=42 v=47
81680 On ch=10 n=42 v=0
81794 On ch=10 n=42 v=47
81794 On ch=10 n=37 v=121
81808 On ch=10 n=37 v=0
81808 On ch=10 n=42 v=0
82050 On ch=10 n=42 v=47
82064 On ch=10 n=42 v=0
82178 On ch=10 n=42 v=89
82178 On ch=10 n=36 v=98
82192 On ch=10 n=36 v=0
82192 On ch=10 n=42 v=0
82434 On ch=10 n=42 v=47
82448 On ch=10 n=42 v=0
82562 On ch=10 n=42 v=47
82562 On ch=10 n=37 v=121
82576 On ch=10 n=37 v=0
82576 On ch=10 n=42 v=0
82818 On ch=10 n=42 v=47
82832 On ch=10 n=42 v=0
82946 On ch=10 n=42 v=89
82946 On ch=10 n=36 v=98
82960 On ch=10 n=36 v=0
82960 On ch=10 n=42 v=0
83202 On ch=10 n=42 v=47
83216 On ch=10 n=42 v=0
83330 On ch=10 n=42 v=47
83330 On ch=10 n=37 v=121
83344 On ch=10 n=37 v=0
83344 On ch=10 n=42 v=0
83586 On ch=10 n=42 v=47
83600 On ch=10 n=42 v=0
83714 On ch=10 n=42 v=89
83714 On ch=10 n=36 v=98
83728 On ch=10 n=36 v=0
83728 On ch=10 n=42 v=0
83970 On ch=10 n=42 v=47
83984 On ch=10 n=42 v=0
84098 On ch=10 n=42 v=47
84098 On ch=10 n=37 v=121
84112 On ch=10 n=37 v=0
84112 On ch=10 n=42 v=0
84354 On ch=10 n=42 v=47
84354 On ch=10 n=36 v=98
84368 On ch=10 n=36 v=0
84368 On ch=10 n=42 v=0
84482 On ch=10 n=42 v=89
84482 On ch=10 n=36 v=98
84496 On ch=10 n=36 v=0
84496 On ch=10 n=42 v=0
84738 On ch=10 n=42 v=47
84752 On ch=10 n=42 v=0
84866 On ch=10 n=42 v=47
84866 On ch=10 n=37 v=121
84880 On ch=10 n=37 v=0
84880 On ch=10 n=42 v=0
85122 On ch=10 n=42 v=47
85136 On ch=10 n=42 v=0
85250 On ch=10 n=42 v=89
85250 On ch=10 n=36 v=98
85264 On ch=10 n=36 v=0
85264 On ch=10 n=42 v=0
85506 On ch=10 n=42 v=47
85520 On ch=10 n=42 v=0
85634 On ch=10 n=42 v=47
85634 On ch=10 n=37 v=121
85648 On ch=10 n=37 v=0
85648 On ch=10 n=42 v=0
85890 On ch=10 n=42 v=47
85904 On ch=10 n=42 v=0
86018 On ch=10 n=42 v=89
86018 On ch=10 n=36 v=98
86032 On ch=10 n=36 v=0
86032 On ch=10 n=42 v=0
86274 On ch=10 n=42 v=47
86288 On ch=10 n=42 v=0
86402 On ch=10 n=42 v=47
86402 On ch=10 n=37 v=121
86416 On ch=10 n=37 v=0
86416 On ch=10 n=42 v=0
86658 On ch=10 n=42 v=47
86672 On ch=10 n=42 v=0
86786 On ch=10 n=42 v=89
86786 On ch=10 n=36 v=98
86800 On ch=10 n=36 v=0
86800 On ch=10 n=42 v=0
87042 On ch=10 n=42 v=47
87056 On ch=10 n=42 v=0
87170 On ch=10 n=42 v=47
87170 On ch=10 n=37 v=121
87184 On ch=10 n=37 v=0
87184 On ch=10 n=42 v=0
87426 On ch=10 n=42 v=47
87426 On ch=10 n=36 v=98
87440 On ch=10 n=36 v=0
87440 On ch=10 n=42 v=0
87554 On ch=10 n=42 v=89
87554 On ch=10 n=36 v=98
87568 On ch=10 n=36 v=0
87568 On ch=10 n=42 v=0
87810 On ch=10 n=42 v=47
87824 On ch=10 n=42 v=0
87938 On ch=10 n=42 v=47
87938 On ch=10 n=37 v=121
87952 On ch=10 n=37 v=0
87952 On ch=10 n=42 v=0
88194 On ch=10 n=42 v=47
88208 On ch=10 n=42 v=0
88322 On ch=10 n=42 v=89
88322 On ch=10 n=36 v=98
88336 On ch=10 n=36 v=0
88336 On ch=10 n=42 v=0
88578 On ch=10 n=42 v=47
88592 On ch=10 n=42 v=0
88706 On ch=10 n=42 v=47
88706 On ch=10 n=37 v=121
88720 On ch=10 n=37 v=0
88720 On ch=10 n=42 v=0
88962 On ch=10 n=42 v=47
88976 On ch=10 n=42 v=0
89090 On ch=10 n=42 v=89
89090 On ch=10 n=36 v=98
89104 On ch=10 n=36 v=0
89104 On ch=10 n=42 v=0
89346 On ch=10 n=42 v=47
89360 On ch=10 n=42 v=0
89474 On ch=10 n=42 v=47
89474 On ch=10 n=37 v=121
89488 On ch=10 n=37 v=0
89488 On ch=10 n=42 v=0
89730 On ch=10 n=42 v=47
89744 On ch=10 n=42 v=0
89858 On ch=10 n=42 v=89
89858 On ch=10 n=36 v=98
89872 On ch=10 n=36 v=0
89872 On ch=10 n=42 v=0
90114 On ch=10 n=42 v=47
90128 On ch=10 n=42 v=0
90242 On ch=10 n=42 v=47
90242 On ch=10 n=37 v=121
90256 On ch=10 n=37 v=0
90256 On ch=10 n=42 v=0
90498 On ch=10 n=42 v=47
90498 On ch=10 n=36 v=98
90512 On ch=10 n=36 v=0
90512 On ch=10 n=42 v=0
90626 On ch=10 n=42 v=89
90626 On ch=10 n=36 v=98
90640 On ch=10 n=36 v=0
90640 On ch=10 n=42 v=0
90882 On ch=10 n=42 v=47
90896 On ch=10 n=42 v=0
91010 On ch=10 n=42 v=47
91010 On ch=10 n=37 v=121
91024 On ch=10 n=37 v=0
91024 On ch=10 n=42 v=0
91266 On ch=10 n=42 v=47
91280 On ch=10 n=42 v=0
91394 On ch=10 n=42 v=89
91394 On ch=10 n=36 v=98
91408 On ch=10 n=36 v=0
91408 On ch=10 n=42 v=0
91650 On ch=10 n=42 v=47
91664 On ch=10 n=42 v=0
91778 On ch=10 n=42 v=47
91778 On ch=10 n=37 v=121
91792 On ch=10 n=37 v=0
91792 On ch=10 n=42 v=0
92034 On ch=10 n=42 v=47
92048 On ch=10 n=42 v=0
92162 On ch=10 n=42 v=89
92162 On ch=10 n=36 v=98
92176 On ch=10 n=36 v=0
92176 On ch=10 n=42 v=0
92418 On ch=10 n=42 v=47
92432 On ch=10 n=42 v=0
92546 On ch=10 n=42 v=47
92546 On ch=10 n=37 v=121
92560 On ch=10 n=37 v=0
92560 On ch=10 n=42 v=0
92802 On ch=10 n=42 v=47
92816 On ch=10 n=42 v=0
92930 On ch=10 n=42 v=89
92930 On ch=10 n=36 v=98
92944 On ch=10 n=36 v=0
92944 On ch=10 n=42 v=0
93186 On ch=10 n=42 v=47
93200 On ch=10 n=42 v=0
93314 On ch=10 n=42 v=47
93314 On ch=10 n=37 v=121
93328 On ch=10 n=37 v=0
93328 On ch=10 n=42 v=0
93570 On ch=10 n=42 v=47
93570 On ch=10 n=36 v=98
93584 On ch=10 n=36 v=0
93584 On ch=10 n=42 v=0
93698 On ch=10 n=42 v=89
93698 On ch=10 n=36 v=98
93712 On ch=10 n=36 v=0
93712 On ch=10 n=42 v=0
93954 On ch=10 n=42 v=47
93968 On ch=10 n=42 v=0
94082 On ch=10 n=42 v=47
94082 On ch=10 n=37 v=121
94096 On ch=10 n=37 v=0
94096 On ch=10 n=42 v=0
94338 On ch=10 n=42 v=47
94352 On ch=10 n=42 v=0
94466 On ch=10 n=42 v=89
94466 On ch=10 n=36 v=98
94480 On ch=10 n=36 v=0
94480 On ch=10 n=42 v=0
94722 On ch=10 n=42 v=47
94736 On ch=10 n=42 v=0
94850 On ch=10 n=42 v=47
94850 On ch=10 n=37 v=121
94864 On ch=10 n=37 v=0
94864 On ch=10 n=42 v=0
95106 On ch=10 n=42 v=47
95120 On ch=10 n=42 v=0
95234 On ch=10 n=42 v=89
95234 On ch=10 n=36 v=98
95248 On ch=10 n=36 v=0
95248 On ch=10 n=42 v=0
95490 On ch=10 n=42 v=47
95504 On ch=10 n=42 v=0
95618 On ch=10 n=42 v=47
95618 On ch=10 n=37 v=121
95632 On ch=10 n=37 v=0
95632 On ch=10 n=42 v=0
95874 On ch=10 n=42 v=47
95888 On ch=10 n=42 v=0
96002 On ch=10 n=42 v=89
96002 On ch=10 n=36 v=98
96016 On ch=10 n=36 v=0
96016 On ch=10 n=42 v=0
96258 On ch=10 n=42 v=47
96272 On ch=10 n=42 v=0
96386 On ch=10 n=42 v=47
96386 On ch=10 n=37 v=121
96400 On ch=10 n=37 v=0
96400 On ch=10 n=42 v=0
96642 On ch=10 n=42 v=47
96642 On ch=10 n=36 v=98
96656 On ch=10 n=36 v=0
96656 On ch=10 n=42 v=0
96770 On ch=10 n=42 v=89
96770 On ch=10 n=36 v=98
96784 On ch=10 n=36 v=0
96784 On ch=10 n=42 v=0
97026 On ch=10 n=42 v=47
97040 On ch=10 n=42 v=0
97154 On ch=10 n=42 v=47
97154 On ch=10 n=37 v=121
97168 On ch=10 n=37 v=0
97168 On ch=10 n=42 v=0
97410 On ch=10 n=42 v=47
97424 On ch=10 n=42 v=0
97538 On ch=10 n=42 v=89
97538 On ch=10 n=36 v=98
97552 On ch=10 n=36 v=0
97552 On ch=10 n=42 v=0
97794 On ch=10 n=42 v=47
97808 On ch=10 n=42 v=0
97922 On ch=10 n=42 v=47
97922 On ch=10 n=37 v=121
97936 On ch=10 n=37 v=0
97936 On ch=10 n=42 v=0
98178 On ch=10 n=42 v=47
98192 On ch=10 n=42 v=0
98306 On ch=10 n=42 v=89
98306 On ch=10 n=36 v=98
98320 On ch=10 n=36 v=0
98320 On ch=10 n=42 v=0
98562 On ch=10 n=42 v=47
98576 On ch=10 n=42 v=0
98690 On ch=10 n=42 v=47
98690 On ch=10 n=37 v=121
98704 On ch=10 n=37 v=0
98704 On ch=10 n=42 v=0
98946 On ch=10 n=42 v=47
98960 On ch=10 n=42 v=0
99074 On ch=10 n=42 v=89
99074 On ch=10 n=36 v=98
99088 On ch=10 n=36 v=0
99088 On ch=10 n=42 v=0
99330 On ch=10 n=42 v=47
99344 On ch=10 n=42 v=0
99458 On ch=10 n=42 v=47
99458 On ch=10 n=37 v=121
99472 On ch=10 n=37 v=0
99472 On ch=10 n=42 v=0
99714 On ch=10 n=42 v=47
99714 On ch=10 n=36 v=98
99728 On ch=10 n=36 v=0
99728 On ch=10 n=42 v=0
99842 On ch=10 n=42 v=89
99842 On ch=10 n=36 v=98
99856 On ch=10 n=36 v=0
99856 On ch=10 n=42 v=0
100098 On ch=10 n=42 v=47
100112 On ch=10 n=42 v=0
100226 On ch=10 n=42 v=47
100226 On ch=10 n=37 v=121
100240 On ch=10 n=37 v=0
100240 On ch=10 n=42 v=0
100482 On ch=10 n=42 v=47
100496 On ch=10 n=42 v=0
100610 On ch=10 n=42 v=89
100610 On ch=10 n=36 v=98
100624 On ch=10 n=36 v=0
100624 On ch=10 n=42 v=0
100866 On ch=10 n=42 v=89
100880 On ch=10 n=42 v=0
100994 On ch=10 n=42 v=47
100994 On ch=10 n=37 v=121
101008 On ch=10 n=37 v=0
101008 On ch=10 n=42 v=0
101122 On ch=10 n=42 v=89
101136 On ch=10 n=42 v=0
101250 On ch=10 n=46 v=94
101264 On ch=10 n=46 v=0
101378 On ch=10 n=46 v=94
101378 On ch=10 n=36 v=98
101378 On ch=10 n=51 v=121
101392 On ch=10 n=36 v=0
101392 On ch=10 n=46 v=0
101394 On ch=10 n=51 v=0
101762 On ch=10 n=42 v=89
101776 On ch=10 n=42 v=0
101776 Meta TrkEnd
TrkEnd
MTrk
0 Meta 0x21 00
0 Meta TrkName "Edizioni "
0 Meta TrkEnd
TrkEnd
