MFile 1 22 480
MTrk
0 SysEx f0 41 10 42 12 40 00 7f 00 41 f7
0 SysEx f0 41 10 42 12 40 01 30 03 0c f7
0 SysEx f0 41 10 42 12 40 00 7f 00 41 f7
0 Tempo 322581
0 TimeSig 3/4 24 8
0 KeySig 0 major
136800 Tempo 333333
137280 Tempo 355030
137760 Tempo 372671
138240 Tempo 375000
138720 Tempo 384615
139200 Tempo 400000
139680 Tempo 322581
160320 Tempo 326069
160800 Tempo 331492
161280 Tempo 352941
161760 Tempo 375000
162240 Tempo 400000
162720 Tempo 322581
205920 Tempo 327869
206400 Tempo 331492
206880 Tempo 340909
207360 Tempo 368098
207840 Tempo 377358
208320 Tempo 394737
208800 Tempo 410959
210240 Tempo 322581
264960 Tempo 326069
265440 Tempo 329670
265920 Tempo 337079
266400 Tempo 428571
266880 Tempo 444444
267360 Tempo 461538
267840 Tempo 338983
268800 Tempo 337079
269760 Tempo 335196
270720 Tempo 333333
271680 Tempo 331492
272640 Tempo 329670
273600 Tempo 310881
274560 Tempo 326069
275520 Tempo 324324
276480 Tempo 322581
276480 Meta TrkEnd
TrkEnd
MTrk
0 Meta TrkName "#Count-In "
0 Meta 0x21 00
0 Meta 0x20 09
0 Par ch=10 c=10 v=64
2880 On ch=10 n=28 v=100
2900 Off ch=10 n=28 v=64
3360 On ch=10 n=28 v=85
3380 Off ch=10 n=28 v=64
3840 On ch=10 n=28 v=85
3860 Off ch=10 n=28 v=64
3860 Meta TrkEnd
TrkEnd
MTrk
0 Meta TrkName "#Bassdrum "
0 Meta 0x21 00
0 Meta 0x20 09
0 Par ch=10 c=10 v=64
185760 On ch=10 n=36 v=110
185877 Off ch=10 n=36 v=64
317737 On ch=10 n=36 v=82
317815 Off ch=10 n=36 v=64
318242 On ch=10 n=36 v=120
318315 Off ch=10 n=36 v=64
318315 Meta TrkEnd
TrkEnd
MTrk
0 Meta TrkName "#Snare    "
0 Meta 0x21 00
0 Meta 0x20 09
0 Par ch=10 c=10 v=64
4772 On ch=10 n=38 v=39
4837 Off ch=10 n=38 v=64
5282 On ch=10 n=38 v=41
5350 Off ch=10 n=38 v=64
6212 On ch=10 n=38 v=44
6277 Off ch=10 n=38 v=64
6295 On ch=10 n=40 v=42
6355 Off ch=10 n=40 v=64
6360 On ch=10 n=38 v=42
6420 Off ch=10 n=38 v=64
6425 On ch=10 n=40 v=34
6485 Off ch=10 n=40 v=64
6497 On ch=10 n=38 v=31
6557 Off ch=10 n=38 v=64
6560 On ch=10 n=40 v=31
6620 Off ch=10 n=40 v=64
6637 On ch=10 n=38 v=33
6697 Off ch=10 n=38 v=64
6722 On ch=10 n=40 v=41
6790 Off ch=10 n=40 v=64
7652 On ch=10 n=38 v=34
7717 Off ch=10 n=38 v=64
8162 On ch=10 n=38 v=25
8230 Off ch=10 n=38 v=64
9092 On ch=10 n=38 v=34
9157 Off ch=10 n=38 v=64
9175 On ch=10 n=40 v=26
9235 Off ch=10 n=40 v=64
9237 On ch=10 n=38 v=26
9297 Off ch=10 n=38 v=64
9302 On ch=10 n=40 v=25
9362 Off ch=10 n=40 v=64
9377 On ch=10 n=38 v=23
9437 Off ch=10 n=38 v=64
9440 On ch=10 n=40 v=23
9500 Off ch=10 n=40 v=64
9517 On ch=10 n=38 v=17
9577 Off ch=10 n=38 v=64
9602 On ch=10 n=40 v=25
9670 Off ch=10 n=40 v=64
10532 On ch=10 n=38 v=29
10597 Off ch=10 n=38 v=64
11042 On ch=10 n=38 v=31
11110 Off ch=10 n=38 v=64
11972 On ch=10 n=38 v=29
12037 Off ch=10 n=38 v=64
12482 On ch=10 n=38 v=31
12550 Off ch=10 n=38 v=64
13412 On ch=10 n=38 v=29
13477 Off ch=10 n=38 v=64
13922 On ch=10 n=38 v=31
13990 Off ch=10 n=38 v=64
14852 On ch=10 n=38 v=29
14917 Off ch=10 n=38 v=64
15362 On ch=10 n=38 v=31
15430 Off ch=10 n=38 v=64
16292 On ch=10 n=38 v=29
16357 Off ch=10 n=38 v=64
16802 On ch=10 n=38 v=31
16870 Off ch=10 n=38 v=64
17732 On ch=10 n=38 v=29
17797 Off ch=10 n=38 v=64
18242 On ch=10 n=38 v=31
18310 Off ch=10 n=38 v=64
19172 On ch=10 n=38 v=29
19237 Off ch=10 n=38 v=64
19682 On ch=10 n=38 v=31
19750 Off ch=10 n=38 v=64
20612 On ch=10 n=38 v=29
20677 Off ch=10 n=38 v=64
21122 On ch=10 n=38 v=31
21190 Off ch=10 n=38 v=64
22052 On ch=10 n=38 v=29
22117 Off ch=10 n=38 v=64
22562 On ch=10 n=38 v=31
22630 Off ch=10 n=38 v=64
23492 On ch=10 n=38 v=29
23557 Off ch=10 n=38 v=64
24002 On ch=10 n=38 v=31
24070 Off ch=10 n=38 v=64
24932 On ch=10 n=38 v=29
24997 Off ch=10 n=38 v=64
25442 On ch=10 n=38 v=31
25510 Off ch=10 n=38 v=64
26372 On ch=10 n=38 v=29
26437 Off ch=10 n=38 v=64
26882 On ch=10 n=38 v=31
26950 Off ch=10 n=38 v=64
27812 On ch=10 n=38 v=29
27877 Off ch=10 n=38 v=64
28322 On ch=10 n=38 v=31
28390 Off ch=10 n=38 v=64
29252 On ch=10 n=38 v=29
29317 Off ch=10 n=38 v=64
29762 On ch=10 n=38 v=31
29830 Off ch=10 n=38 v=64
30692 On ch=10 n=38 v=29
30757 Off ch=10 n=38 v=64
31202 On ch=10 n=38 v=31
31270 Off ch=10 n=38 v=64
32132 On ch=10 n=38 v=29
32197 Off ch=10 n=38 v=64
32642 On ch=10 n=38 v=31
32710 Off ch=10 n=38 v=64
33572 On ch=10 n=38 v=29
33637 Off ch=10 n=38 v=64
34082 On ch=10 n=38 v=31
34150 Off ch=10 n=38 v=64
35012 On ch=10 n=38 v=29
35077 Off ch=10 n=38 v=64
35522 On ch=10 n=38 v=31
35590 Off ch=10 n=38 v=64
36452 On ch=10 n=38 v=29
36517 Off ch=10 n=38 v=64
36962 On ch=10 n=38 v=31
37030 Off ch=10 n=38 v=64
37892 On ch=10 n=38 v=29
37957 Off ch=10 n=38 v=64
38402 On ch=10 n=38 v=31
38470 Off ch=10 n=38 v=64
39332 On ch=10 n=38 v=29
39397 Off ch=10 n=38 v=64
39842 On ch=10 n=38 v=31
39910 Off ch=10 n=38 v=64
40772 On ch=10 n=38 v=29
40837 Off ch=10 n=38 v=64
41282 On ch=10 n=38 v=31
41350 Off ch=10 n=38 v=64
42212 On ch=10 n=38 v=29
42277 Off ch=10 n=38 v=64
42722 On ch=10 n=38 v=31
42790 Off ch=10 n=38 v=64
43652 On ch=10 n=38 v=36
43717 Off ch=10 n=38 v=64
44162 On ch=10 n=38 v=47
44230 Off ch=10 n=38 v=64
45120 On ch=10 n=38 v=26
45255 Off ch=10 n=38 v=64
45365 On ch=10 n=40 v=40
45545 Off ch=10 n=40 v=64
45590 On ch=10 n=38 v=52
45752 Off ch=10 n=38 v=64
45830 On ch=10 n=40 v=46
45957 Off ch=10 n=40 v=64
46560 On ch=10 n=38 v=31
46695 Off ch=10 n=38 v=64
46802 On ch=10 n=40 v=43
46982 Off ch=10 n=40 v=64
47032 On ch=10 n=38 v=49
47195 Off ch=10 n=38 v=64
47275 On ch=10 n=40 v=53
47402 Off ch=10 n=40 v=64
47497 On ch=10 n=38 v=64
47582 Off ch=10 n=38 v=64
48467 On ch=10 n=38 v=50
48630 Off ch=10 n=38 v=64
49412 On ch=10 n=38 v=36
49477 Off ch=10 n=38 v=64
49922 On ch=10 n=38 v=47
49990 Off ch=10 n=38 v=64
50880 On ch=10 n=38 v=26
51015 Off ch=10 n=38 v=64
51125 On ch=10 n=40 v=40
51305 Off ch=10 n=40 v=64
51350 On ch=10 n=38 v=52
51512 Off ch=10 n=38 v=64
51590 On ch=10 n=40 v=46
51717 Off ch=10 n=40 v=64
52320 On ch=10 n=38 v=31
52455 Off ch=10 n=38 v=64
52562 On ch=10 n=40 v=43
52742 Off ch=10 n=40 v=64
52792 On ch=10 n=38 v=49
52955 Off ch=10 n=38 v=64
53035 On ch=10 n=40 v=53
53162 Off ch=10 n=40 v=64
53257 On ch=10 n=38 v=64
53342 Off ch=10 n=38 v=64
54227 On ch=10 n=38 v=50
54390 Off ch=10 n=38 v=64
55172 On ch=10 n=38 v=36
55237 Off ch=10 n=38 v=64
55682 On ch=10 n=38 v=43
55750 Off ch=10 n=38 v=64
56640 On ch=10 n=38 v=33
56775 Off ch=10 n=38 v=64
56877 On ch=10 n=40 v=40
57057 Off ch=10 n=40 v=64
57110 On ch=10 n=38 v=47
57272 Off ch=10 n=38 v=64
57352 On ch=10 n=40 v=50
57480 Off ch=10 n=40 v=64
58080 On ch=10 n=38 v=33
58215 Off ch=10 n=38 v=64
58317 On ch=10 n=40 v=37
58497 Off ch=10 n=40 v=64
58550 On ch=10 n=38 v=47
58712 Off ch=10 n=38 v=64
58797 On ch=10 n=40 v=52
58925 Off ch=10 n=40 v=64
59020 On ch=10 n=38 v=69
59105 Off ch=10 n=38 v=64
59492 On ch=10 n=38 v=39
59557 Off ch=10 n=38 v=64
60002 On ch=10 n=38 v=41
60070 Off ch=10 n=38 v=64
60932 On ch=10 n=38 v=44
60997 Off ch=10 n=38 v=64
61015 On ch=10 n=40 v=42
61075 Off ch=10 n=40 v=64
61080 On ch=10 n=38 v=42
61140 Off ch=10 n=38 v=64
61145 On ch=10 n=40 v=34
61205 Off ch=10 n=40 v=64
61217 On ch=10 n=38 v=31
61277 Off ch=10 n=38 v=64
61280 On ch=10 n=40 v=31
61340 Off ch=10 n=40 v=64
61357 On ch=10 n=38 v=33
61417 Off ch=10 n=38 v=64
61442 On ch=10 n=40 v=31
61510 Off ch=10 n=40 v=64
61520 On ch=10 n=38 v=31
61580 Off ch=10 n=38 v=64
61585 On ch=10 n=40 v=29
61645 Off ch=10 n=40 v=64
61660 On ch=10 n=38 v=26
61720 Off ch=10 n=38 v=64
61725 On ch=10 n=40 v=26
61785 Off ch=10 n=40 v=64
61802 On ch=10 n=38 v=26
61862 Off ch=10 n=38 v=64
61882 On ch=10 n=40 v=17
61950 Off ch=10 n=40 v=64
62372 On ch=10 n=38 v=37
62437 Off ch=10 n=38 v=64
62882 On ch=10 n=38 v=31
62950 Off ch=10 n=38 v=64
63812 On ch=10 n=38 v=44
63877 Off ch=10 n=38 v=64
63895 On ch=10 n=40 v=42
63955 Off ch=10 n=40 v=64
63960 On ch=10 n=38 v=42
64020 Off ch=10 n=38 v=64
64025 On ch=10 n=40 v=34
64085 Off ch=10 n=40 v=64
64097 On ch=10 n=38 v=31
64157 Off ch=10 n=38 v=64
64160 On ch=10 n=40 v=31
64220 Off ch=10 n=40 v=64
64237 On ch=10 n=38 v=33
64297 Off ch=10 n=38 v=64
64322 On ch=10 n=40 v=31
64390 Off ch=10 n=40 v=64
64400 On ch=10 n=38 v=31
64460 Off ch=10 n=38 v=64
64465 On ch=10 n=40 v=29
64525 Off ch=10 n=40 v=64
64540 On ch=10 n=38 v=26
64600 Off ch=10 n=38 v=64
64605 On ch=10 n=40 v=26
64665 Off ch=10 n=40 v=64
64682 On ch=10 n=38 v=26
64742 Off ch=10 n=38 v=64
64762 On ch=10 n=40 v=17
64830 Off ch=10 n=40 v=64
65252 On ch=10 n=38 v=39
65317 Off ch=10 n=38 v=64
65762 On ch=10 n=38 v=41
65830 Off ch=10 n=38 v=64
66692 On ch=10 n=38 v=39
66757 Off ch=10 n=38 v=64
67202 On ch=10 n=38 v=41
67270 Off ch=10 n=38 v=64
68132 On ch=10 n=38 v=39
68197 Off ch=10 n=38 v=64
68642 On ch=10 n=38 v=41
68710 Off ch=10 n=38 v=64
69572 On ch=10 n=38 v=39
69637 Off ch=10 n=38 v=64
70082 On ch=10 n=38 v=41
70150 Off ch=10 n=38 v=64
71012 On ch=10 n=38 v=39
71077 Off ch=10 n=38 v=64
71522 On ch=10 n=38 v=41
71590 Off ch=10 n=38 v=64
72452 On ch=10 n=38 v=39
72517 Off ch=10 n=38 v=64
72962 On ch=10 n=38 v=41
73030 Off ch=10 n=38 v=64
73892 On ch=10 n=38 v=39
73957 Off ch=10 n=38 v=64
74402 On ch=10 n=38 v=41
74470 Off ch=10 n=38 v=64
75332 On ch=10 n=38 v=39
75397 Off ch=10 n=38 v=64
75842 On ch=10 n=38 v=41
75910 Off ch=10 n=38 v=64
76772 On ch=10 n=38 v=39
76837 Off ch=10 n=38 v=64
77282 On ch=10 n=38 v=41
77350 Off ch=10 n=38 v=64
78212 On ch=10 n=38 v=39
78277 Off ch=10 n=38 v=64
78722 On ch=10 n=38 v=41
78790 Off ch=10 n=38 v=64
79652 On ch=10 n=38 v=39
79717 Off ch=10 n=38 v=64
80162 On ch=10 n=38 v=41
80230 Off ch=10 n=38 v=64
81092 On ch=10 n=38 v=39
81157 Off ch=10 n=38 v=64
81602 On ch=10 n=38 v=41
81670 Off ch=10 n=38 v=64
82532 On ch=10 n=38 v=39
82597 Off ch=10 n=38 v=64
83042 On ch=10 n=38 v=41
83110 Off ch=10 n=38 v=64
83972 On ch=10 n=38 v=39
84037 Off ch=10 n=38 v=64
84482 On ch=10 n=38 v=41
84550 Off ch=10 n=38 v=64
85412 On ch=10 n=38 v=39
85477 Off ch=10 n=38 v=64
85922 On ch=10 n=38 v=41
85990 Off ch=10 n=38 v=64
86852 On ch=10 n=38 v=39
86917 Off ch=10 n=38 v=64
87362 On ch=10 n=38 v=41
87430 Off ch=10 n=38 v=64
88292 On ch=10 n=38 v=39
88357 Off ch=10 n=38 v=64
88802 On ch=10 n=38 v=41
88870 Off ch=10 n=38 v=64
89732 On ch=10 n=38 v=39
89797 Off ch=10 n=38 v=64
90242 On ch=10 n=38 v=41
90310 Off ch=10 n=38 v=64
91172 On ch=10 n=38 v=39
91237 Off ch=10 n=38 v=64
91682 On ch=10 n=38 v=41
91750 Off ch=10 n=38 v=64
92612 On ch=10 n=38 v=39
92677 Off ch=10 n=38 v=64
93122 On ch=10 n=38 v=41
93190 Off ch=10 n=38 v=64
94052 On ch=10 n=38 v=39
94117 Off ch=10 n=38 v=64
94562 On ch=10 n=38 v=41
94630 Off ch=10 n=38 v=64
95492 On ch=10 n=38 v=39
95557 Off ch=10 n=38 v=64
96002 On ch=10 n=38 v=41
96070 Off ch=10 n=38 v=64
96932 On ch=10 n=38 v=39
96997 Off ch=10 n=38 v=64
97442 On ch=10 n=38 v=41
97510 Off ch=10 n=38 v=64
98372 On ch=10 n=38 v=46
98437 Off ch=10 n=38 v=64
98882 On ch=10 n=38 v=47
98950 Off ch=10 n=38 v=64
99840 On ch=10 n=38 v=26
99975 Off ch=10 n=38 v=64
100085 On ch=10 n=40 v=40
100265 Off ch=10 n=40 v=64
100310 On ch=10 n=38 v=52
100472 Off ch=10 n=38 v=64
100550 On ch=10 n=40 v=46
100677 Off ch=10 n=40 v=64
101280 On ch=10 n=38 v=31
101415 Off ch=10 n=38 v=64
101522 On ch=10 n=40 v=43
101702 Off ch=10 n=40 v=64
101752 On ch=10 n=38 v=49
101915 Off ch=10 n=38 v=64
101995 On ch=10 n=40 v=53
102122 Off ch=10 n=40 v=64
102217 On ch=10 n=38 v=64
102302 Off ch=10 n=38 v=64
103187 On ch=10 n=38 v=50
103350 Off ch=10 n=38 v=64
104132 On ch=10 n=38 v=36
104197 Off ch=10 n=38 v=64
104642 On ch=10 n=38 v=47
104710 Off ch=10 n=38 v=64
105600 On ch=10 n=38 v=26
105735 Off ch=10 n=38 v=64
105845 On ch=10 n=40 v=40
106025 Off ch=10 n=40 v=64
106070 On ch=10 n=38 v=52
106232 Off ch=10 n=38 v=64
106310 On ch=10 n=40 v=46
106437 Off ch=10 n=40 v=64
107040 On ch=10 n=38 v=31
107175 Off ch=10 n=38 v=64
107282 On ch=10 n=40 v=43
107462 Off ch=10 n=40 v=64
107512 On ch=10 n=38 v=49
107675 Off ch=10 n=38 v=64
107755 On ch=10 n=40 v=53
107882 Off ch=10 n=40 v=64
107977 On ch=10 n=38 v=64
108062 Off ch=10 n=38 v=64
108947 On ch=10 n=38 v=50
109110 Off ch=10 n=38 v=64
109892 On ch=10 n=38 v=36
109957 Off ch=10 n=38 v=64
110402 On ch=10 n=38 v=43
110470 Off ch=10 n=38 v=64
111360 On ch=10 n=38 v=33
111495 Off ch=10 n=38 v=64
111597 On ch=10 n=40 v=40
111777 Off ch=10 n=40 v=64
111830 On ch=10 n=38 v=47
111992 Off ch=10 n=38 v=64
112072 On ch=10 n=40 v=50
112200 Off ch=10 n=40 v=64
112800 On ch=10 n=38 v=33
112935 Off ch=10 n=38 v=64
113037 On ch=10 n=40 v=37
113217 Off ch=10 n=40 v=64
113270 On ch=10 n=38 v=47
113432 Off ch=10 n=38 v=64
113517 On ch=10 n=40 v=52
113645 Off ch=10 n=40 v=64
113740 On ch=10 n=38 v=69
113825 Off ch=10 n=38 v=64
114212 On ch=10 n=38 v=52
114277 Off ch=10 n=38 v=64
114722 On ch=10 n=38 v=49
114790 Off ch=10 n=38 v=64
115200 On ch=10 n=38 v=23
115260 Off ch=10 n=38 v=64
115260 On ch=10 n=40 v=26
115320 Off ch=10 n=40 v=64
115320 On ch=10 n=38 v=26
115380 Off ch=10 n=38 v=64
115380 On ch=10 n=40 v=31
115440 Off ch=10 n=40 v=64
115440 On ch=10 n=38 v=31
115500 Off ch=10 n=38 v=64
115500 On ch=10 n=40 v=31
115560 Off ch=10 n=40 v=64
115560 On ch=10 n=38 v=37
115620 Off ch=10 n=38 v=64
115620 On ch=10 n=40 v=40
115680 Off ch=10 n=40 v=64
115680 On ch=10 n=38 v=40
115740 Off ch=10 n=38 v=64
115752 On ch=10 n=40 v=43
115812 Off ch=10 n=40 v=64
115825 On ch=10 n=38 v=46
115885 Off ch=10 n=38 v=64
115895 On ch=10 n=40 v=49
115955 Off ch=10 n=40 v=64
115967 On ch=10 n=38 v=49
116027 Off ch=10 n=38 v=64
116030 On ch=10 n=40 v=55
116090 Off ch=10 n=40 v=64
116102 On ch=10 n=38 v=55
116162 Off ch=10 n=38 v=64
116170 On ch=10 n=40 v=49
116230 Off ch=10 n=40 v=64
116235 On ch=10 n=38 v=55
116295 Off ch=10 n=38 v=64
116305 On ch=10 n=40 v=58
116365 Off ch=10 n=40 v=64
116372 On ch=10 n=38 v=61
116432 Off ch=10 n=38 v=64
116445 On ch=10 n=40 v=66
116505 Off ch=10 n=40 v=64
116512 On ch=10 n=38 v=75
116572 Off ch=10 n=38 v=64
116577 On ch=10 n=40 v=75
116637 Off ch=10 n=40 v=64
116640 On ch=10 n=38 v=93
116700 Off ch=10 n=38 v=64
117092 On ch=10 n=38 v=47
117142 On ch=10 n=40 v=56
117157 Off ch=10 n=38 v=64
117232 Off ch=10 n=40 v=64
117565 On ch=10 n=40 v=44
117602 On ch=10 n=38 v=55
117670 Off ch=10 n=38 v=64
117677 Off ch=10 n=40 v=64
118532 On ch=10 n=38 v=47
118582 On ch=10 n=40 v=55
118597 Off ch=10 n=38 v=64
118672 Off ch=10 n=40 v=64
119005 On ch=10 n=40 v=44
119042 On ch=10 n=38 v=55
119110 Off ch=10 n=38 v=64
119117 Off ch=10 n=40 v=64
119972 On ch=10 n=38 v=47
120022 On ch=10 n=40 v=52
120037 Off ch=10 n=38 v=64
120112 Off ch=10 n=40 v=64
120445 On ch=10 n=40 v=44
120482 On ch=10 n=38 v=55
120550 Off ch=10 n=38 v=64
120557 Off ch=10 n=40 v=64
121412 On ch=10 n=38 v=47
121455 On ch=10 n=40 v=52
121477 Off ch=10 n=38 v=64
121545 Off ch=10 n=40 v=64
121885 On ch=10 n=40 v=44
121922 On ch=10 n=38 v=55
121990 Off ch=10 n=38 v=64
121997 Off ch=10 n=40 v=64
122852 On ch=10 n=38 v=47
122902 On ch=10 n=40 v=56
122917 Off ch=10 n=38 v=64
122992 Off ch=10 n=40 v=64
123325 On ch=10 n=40 v=44
123362 On ch=10 n=38 v=55
123430 Off ch=10 n=38 v=64
123437 Off ch=10 n=40 v=64
124292 On ch=10 n=38 v=47
124342 On ch=10 n=40 v=55
124357 Off ch=10 n=38 v=64
124432 Off ch=10 n=40 v=64
124765 On ch=10 n=40 v=44
124802 On ch=10 n=38 v=55
124870 Off ch=10 n=38 v=64
124877 Off ch=10 n=40 v=64
125732 On ch=10 n=38 v=47
125782 On ch=10 n=40 v=52
125797 Off ch=10 n=38 v=64
125872 Off ch=10 n=40 v=64
126205 On ch=10 n=40 v=44
126242 On ch=10 n=38 v=55
126310 Off ch=10 n=38 v=64
126317 Off ch=10 n=40 v=64
127172 On ch=10 n=38 v=47
127215 On ch=10 n=40 v=52
127237 Off ch=10 n=38 v=64
127305 Off ch=10 n=40 v=64
127645 On ch=10 n=40 v=44
127682 On ch=10 n=38 v=55
127750 Off ch=10 n=38 v=64
127757 Off ch=10 n=40 v=64
128612 On ch=10 n=38 v=47
128662 On ch=10 n=40 v=56
128677 Off ch=10 n=38 v=64
128752 Off ch=10 n=40 v=64
129085 On ch=10 n=40 v=44
129122 On ch=10 n=38 v=55
129190 Off ch=10 n=38 v=64
129197 Off ch=10 n=40 v=64
130052 On ch=10 n=38 v=47
130102 On ch=10 n=40 v=55
130117 Off ch=10 n=38 v=64
130192 Off ch=10 n=40 v=64
130525 On ch=10 n=40 v=44
130562 On ch=10 n=38 v=55
130630 Off ch=10 n=38 v=64
130637 Off ch=10 n=40 v=64
131492 On ch=10 n=38 v=47
131542 On ch=10 n=40 v=52
131557 Off ch=10 n=38 v=64
131632 Off ch=10 n=40 v=64
131965 On ch=10 n=40 v=44
132002 On ch=10 n=38 v=55
132070 Off ch=10 n=38 v=64
132077 Off ch=10 n=40 v=64
132932 On ch=10 n=38 v=47
132975 On ch=10 n=40 v=52
132997 Off ch=10 n=38 v=64
133065 Off ch=10 n=40 v=64
133405 On ch=10 n=40 v=44
133442 On ch=10 n=38 v=55
133510 Off ch=10 n=38 v=64
133517 Off ch=10 n=40 v=64
134372 On ch=10 n=38 v=47
134422 On ch=10 n=40 v=56
134437 Off ch=10 n=38 v=64
134512 Off ch=10 n=40 v=64
134845 On ch=10 n=40 v=44
134882 On ch=10 n=38 v=55
134950 Off ch=10 n=38 v=64
134957 Off ch=10 n=40 v=64
135812 On ch=10 n=38 v=47
135862 On ch=10 n=40 v=55
135877 Off ch=10 n=38 v=64
135952 Off ch=10 n=40 v=64
136285 On ch=10 n=40 v=44
136322 On ch=10 n=38 v=55
136390 Off ch=10 n=38 v=64
136397 Off ch=10 n=40 v=64
137252 On ch=10 n=38 v=47
137302 On ch=10 n=40 v=52
137317 Off ch=10 n=38 v=64
137392 Off ch=10 n=40 v=64
137725 On ch=10 n=40 v=44
137762 On ch=10 n=38 v=55
137830 Off ch=10 n=38 v=64
137837 Off ch=10 n=40 v=64
138240 On ch=10 n=38 v=23
138300 Off ch=10 n=38 v=64
138300 On ch=10 n=40 v=26
138360 Off ch=10 n=40 v=64
138360 On ch=10 n=38 v=26
138420 Off ch=10 n=38 v=64
138420 On ch=10 n=40 v=31
138480 Off ch=10 n=40 v=64
138480 On ch=10 n=38 v=31
138540 Off ch=10 n=38 v=64
138540 On ch=10 n=40 v=31
138600 Off ch=10 n=40 v=64
138600 On ch=10 n=38 v=31
138660 Off ch=10 n=38 v=64
138660 On ch=10 n=40 v=34
138720 Off ch=10 n=40 v=64
138720 On ch=10 n=38 v=37
138780 Off ch=10 n=38 v=64
138792 On ch=10 n=40 v=37
138852 Off ch=10 n=40 v=64
138865 On ch=10 n=38 v=37
138925 Off ch=10 n=38 v=64
138935 On ch=10 n=40 v=40
138995 Off ch=10 n=40 v=64
139007 On ch=10 n=38 v=43
139067 Off ch=10 n=38 v=64
139070 On ch=10 n=40 v=46
139130 Off ch=10 n=40 v=64
139142 On ch=10 n=38 v=49
139202 Off ch=10 n=38 v=64
139210 On ch=10 n=40 v=55
139270 Off ch=10 n=40 v=64
139275 On ch=10 n=38 v=58
139335 Off ch=10 n=38 v=64
139345 On ch=10 n=40 v=61
139405 Off ch=10 n=40 v=64
139412 On ch=10 n=38 v=69
139472 Off ch=10 n=38 v=64
139485 On ch=10 n=40 v=69
139545 Off ch=10 n=40 v=64
139552 On ch=10 n=38 v=61
139612 Off ch=10 n=38 v=64
139617 On ch=10 n=40 v=61
139677 Off ch=10 n=40 v=64
139680 On ch=10 n=38 v=52
139740 Off ch=10 n=38 v=64
140132 On ch=10 n=38 v=47
140182 On ch=10 n=40 v=56
140197 Off ch=10 n=38 v=64
140272 Off ch=10 n=40 v=64
140605 On ch=10 n=40 v=44
140642 On ch=10 n=38 v=55
140710 Off ch=10 n=38 v=64
140717 Off ch=10 n=40 v=64
141572 On ch=10 n=38 v=47
141622 On ch=10 n=40 v=55
141637 Off ch=10 n=38 v=64
141712 Off ch=10 n=40 v=64
142045 On ch=10 n=40 v=44
142082 On ch=10 n=38 v=55
142150 Off ch=10 n=38 v=64
142157 Off ch=10 n=40 v=64
143012 On ch=10 n=38 v=47
143062 On ch=10 n=40 v=52
143077 Off ch=10 n=38 v=64
143152 Off ch=10 n=40 v=64
143485 On ch=10 n=40 v=44
143522 On ch=10 n=38 v=55
143590 Off ch=10 n=38 v=64
143597 Off ch=10 n=40 v=64
144452 On ch=10 n=38 v=47
144495 On ch=10 n=40 v=52
144517 Off ch=10 n=38 v=64
144585 Off ch=10 n=40 v=64
144925 On ch=10 n=40 v=44
144962 On ch=10 n=38 v=55
145030 Off ch=10 n=38 v=64
145037 Off ch=10 n=40 v=64
145892 On ch=10 n=38 v=47
145942 On ch=10 n=40 v=56
145957 Off ch=10 n=38 v=64
146032 Off ch=10 n=40 v=64
146365 On ch=10 n=40 v=44
146402 On ch=10 n=38 v=55
146470 Off ch=10 n=38 v=64
146477 Off ch=10 n=40 v=64
147332 On ch=10 n=38 v=47
147382 On ch=10 n=40 v=55
147397 Off ch=10 n=38 v=64
147472 Off ch=10 n=40 v=64
147805 On ch=10 n=40 v=44
147842 On ch=10 n=38 v=55
147910 Off ch=10 n=38 v=64
147917 Off ch=10 n=40 v=64
148772 On ch=10 n=38 v=47
148822 On ch=10 n=40 v=52
148837 Off ch=10 n=38 v=64
148912 Off ch=10 n=40 v=64
149245 On ch=10 n=40 v=44
149282 On ch=10 n=38 v=55
149350 Off ch=10 n=38 v=64
149357 Off ch=10 n=40 v=64
150212 On ch=10 n=38 v=47
150255 On ch=10 n=40 v=52
150277 Off ch=10 n=38 v=64
150345 Off ch=10 n=40 v=64
150685 On ch=10 n=40 v=44
150722 On ch=10 n=38 v=55
150790 Off ch=10 n=38 v=64
150797 Off ch=10 n=40 v=64
151652 On ch=10 n=38 v=47
151702 On ch=10 n=40 v=56
151717 Off ch=10 n=38 v=64
151792 Off ch=10 n=40 v=64
152125 On ch=10 n=40 v=44
152162 On ch=10 n=38 v=55
152230 Off ch=10 n=38 v=64
152237 Off ch=10 n=40 v=64
153092 On ch=10 n=38 v=47
153142 On ch=10 n=40 v=55
153157 Off ch=10 n=38 v=64
153232 Off ch=10 n=40 v=64
153565 On ch=10 n=40 v=44
153602 On ch=10 n=38 v=55
153670 Off ch=10 n=38 v=64
153677 Off ch=10 n=40 v=64
154532 On ch=10 n=38 v=47
154582 On ch=10 n=40 v=52
154597 Off ch=10 n=38 v=64
154672 Off ch=10 n=40 v=64
155005 On ch=10 n=40 v=44
155042 On ch=10 n=38 v=55
155110 Off ch=10 n=38 v=64
155117 Off ch=10 n=40 v=64
155972 On ch=10 n=38 v=47
156015 On ch=10 n=40 v=52
156037 Off ch=10 n=38 v=64
156105 Off ch=10 n=40 v=64
156445 On ch=10 n=40 v=44
156482 On ch=10 n=38 v=55
156550 Off ch=10 n=38 v=64
156557 Off ch=10 n=40 v=64
157412 On ch=10 n=38 v=47
157462 On ch=10 n=40 v=56
157477 Off ch=10 n=38 v=64
157552 Off ch=10 n=40 v=64
157885 On ch=10 n=40 v=44
157922 On ch=10 n=38 v=55
157990 Off ch=10 n=38 v=64
157997 Off ch=10 n=40 v=64
158852 On ch=10 n=38 v=47
158902 On ch=10 n=40 v=55
158917 Off ch=10 n=38 v=64
158992 Off ch=10 n=40 v=64
159325 On ch=10 n=40 v=44
159362 On ch=10 n=38 v=55
159430 Off ch=10 n=38 v=64
159437 Off ch=10 n=40 v=64
159822 On ch=10 n=38 v=56
159865 On ch=10 n=40 v=66
159887 Off ch=10 n=38 v=64
159955 Off ch=10 n=40 v=64
163172 On ch=10 n=38 v=47
163222 On ch=10 n=40 v=56
163237 Off ch=10 n=38 v=64
163312 Off ch=10 n=40 v=64
163645 On ch=10 n=40 v=44
163682 On ch=10 n=38 v=55
163750 Off ch=10 n=38 v=64
163757 Off ch=10 n=40 v=64
164612 On ch=10 n=38 v=47
164662 On ch=10 n=40 v=55
164677 Off ch=10 n=38 v=64
164752 Off ch=10 n=40 v=64
165085 On ch=10 n=40 v=44
165122 On ch=10 n=38 v=55
165190 Off ch=10 n=38 v=64
165197 Off ch=10 n=40 v=64
166052 On ch=10 n=38 v=47
166102 On ch=10 n=40 v=52
166117 Off ch=10 n=38 v=64
166192 Off ch=10 n=40 v=64
166525 On ch=10 n=40 v=44
166562 On ch=10 n=38 v=55
166630 Off ch=10 n=38 v=64
166637 Off ch=10 n=40 v=64
167492 On ch=10 n=38 v=47
167535 On ch=10 n=40 v=52
167557 Off ch=10 n=38 v=64
167625 Off ch=10 n=40 v=64
167965 On ch=10 n=40 v=44
168002 On ch=10 n=38 v=55
168070 Off ch=10 n=38 v=64
168077 Off ch=10 n=40 v=64
168932 On ch=10 n=38 v=47
168982 On ch=10 n=40 v=56
168997 Off ch=10 n=38 v=64
169072 Off ch=10 n=40 v=64
169405 On ch=10 n=40 v=44
169442 On ch=10 n=38 v=55
169510 Off ch=10 n=38 v=64
169517 Off ch=10 n=40 v=64
170372 On ch=10 n=38 v=47
170422 On ch=10 n=40 v=55
170437 Off ch=10 n=38 v=64
170512 Off ch=10 n=40 v=64
170845 On ch=10 n=40 v=44
170882 On ch=10 n=38 v=55
170950 Off ch=10 n=38 v=64
170957 Off ch=10 n=40 v=64
171812 On ch=10 n=38 v=47
171862 On ch=10 n=40 v=52
171877 Off ch=10 n=38 v=64
171952 Off ch=10 n=40 v=64
172285 On ch=10 n=40 v=44
172322 On ch=10 n=38 v=55
172390 Off ch=10 n=38 v=64
172397 Off ch=10 n=40 v=64
173252 On ch=10 n=38 v=47
173295 On ch=10 n=40 v=52
173317 Off ch=10 n=38 v=64
173385 Off ch=10 n=40 v=64
173725 On ch=10 n=40 v=44
173762 On ch=10 n=38 v=55
173830 Off ch=10 n=38 v=64
173837 Off ch=10 n=40 v=64
174692 On ch=10 n=38 v=47
174742 On ch=10 n=40 v=56
174757 Off ch=10 n=38 v=64
174832 Off ch=10 n=40 v=64
175165 On ch=10 n=40 v=44
175202 On ch=10 n=38 v=55
175270 Off ch=10 n=38 v=64
175277 Off ch=10 n=40 v=64
176132 On ch=10 n=38 v=47
176182 On ch=10 n=40 v=55
176197 Off ch=10 n=38 v=64
176272 Off ch=10 n=40 v=64
176605 On ch=10 n=40 v=44
176642 On ch=10 n=38 v=55
176710 Off ch=10 n=38 v=64
176717 Off ch=10 n=40 v=64
177572 On ch=10 n=38 v=47
177622 On ch=10 n=40 v=52
177637 Off ch=10 n=38 v=64
177712 Off ch=10 n=40 v=64
178045 On ch=10 n=40 v=44
178082 On ch=10 n=38 v=55
178150 Off ch=10 n=38 v=64
178157 Off ch=10 n=40 v=64
179012 On ch=10 n=38 v=47
179055 On ch=10 n=40 v=52
179077 Off ch=10 n=38 v=64
179145 Off ch=10 n=40 v=64
179485 On ch=10 n=40 v=44
179522 On ch=10 n=38 v=55
179590 Off ch=10 n=38 v=64
179597 Off ch=10 n=40 v=64
180452 On ch=10 n=38 v=47
180502 On ch=10 n=40 v=56
180517 Off ch=10 n=38 v=64
180592 Off ch=10 n=40 v=64
180925 On ch=10 n=40 v=44
180962 On ch=10 n=38 v=55
181030 Off ch=10 n=38 v=64
181037 Off ch=10 n=40 v=64
181892 On ch=10 n=38 v=47
181942 On ch=10 n=40 v=55
181957 Off ch=10 n=38 v=64
182032 Off ch=10 n=40 v=64
182365 On ch=10 n=40 v=44
182402 On ch=10 n=38 v=55
182470 Off ch=10 n=38 v=64
182477 Off ch=10 n=40 v=64
183332 On ch=10 n=38 v=47
183382 On ch=10 n=40 v=52
183397 Off ch=10 n=38 v=64
183472 Off ch=10 n=40 v=64
183805 On ch=10 n=40 v=44
183842 On ch=10 n=38 v=55
183910 Off ch=10 n=38 v=64
183917 Off ch=10 n=40 v=64
184772 On ch=10 n=38 v=47
184815 On ch=10 n=40 v=52
184837 Off ch=10 n=38 v=64
184905 Off ch=10 n=40 v=64
185245 On ch=10 n=40 v=44
185282 On ch=10 n=38 v=55
185350 Off ch=10 n=38 v=64
185357 Off ch=10 n=40 v=64
186212 On ch=10 n=38 v=47
186262 On ch=10 n=40 v=56
186277 Off ch=10 n=38 v=64
186352 Off ch=10 n=40 v=64
186685 On ch=10 n=40 v=44
186722 On ch=10 n=38 v=55
186790 Off ch=10 n=38 v=64
186797 Off ch=10 n=40 v=64
187652 On ch=10 n=38 v=47
187702 On ch=10 n=40 v=55
187717 Off ch=10 n=38 v=64
187792 Off ch=10 n=40 v=64
188125 On ch=10 n=40 v=44
188162 On ch=10 n=38 v=55
188230 Off ch=10 n=38 v=64
188237 Off ch=10 n=40 v=64
189092 On ch=10 n=38 v=47
189142 On ch=10 n=40 v=52
189157 Off ch=10 n=38 v=64
189232 Off ch=10 n=40 v=64
189565 On ch=10 n=40 v=44
189602 On ch=10 n=38 v=55
189670 Off ch=10 n=38 v=64
189677 Off ch=10 n=40 v=64
190532 On ch=10 n=38 v=47
190575 On ch=10 n=40 v=52
190597 Off ch=10 n=38 v=64
190665 Off ch=10 n=40 v=64
191005 On ch=10 n=40 v=44
191042 On ch=10 n=38 v=55
191110 Off ch=10 n=38 v=64
191117 Off ch=10 n=40 v=64
191972 On ch=10 n=38 v=47
192022 On ch=10 n=40 v=56
192037 Off ch=10 n=38 v=64
192112 Off ch=10 n=40 v=64
192445 On ch=10 n=40 v=44
192482 On ch=10 n=38 v=55
192550 Off ch=10 n=38 v=64
192557 Off ch=10 n=40 v=64
193412 On ch=10 n=38 v=47
193462 On ch=10 n=40 v=55
193477 Off ch=10 n=38 v=64
193552 Off ch=10 n=40 v=64
193885 On ch=10 n=40 v=44
193922 On ch=10 n=38 v=55
193990 Off ch=10 n=38 v=64
193997 Off ch=10 n=40 v=64
194852 On ch=10 n=38 v=47
194902 On ch=10 n=40 v=52
194917 Off ch=10 n=38 v=64
194992 Off ch=10 n=40 v=64
195325 On ch=10 n=40 v=44
195362 On ch=10 n=38 v=55
195430 Off ch=10 n=38 v=64
195437 Off ch=10 n=40 v=64
196292 On ch=10 n=38 v=47
196335 On ch=10 n=40 v=52
196357 Off ch=10 n=38 v=64
196425 Off ch=10 n=40 v=64
196765 On ch=10 n=40 v=44
196802 On ch=10 n=38 v=55
196870 Off ch=10 n=38 v=64
196877 Off ch=10 n=40 v=64
197732 On ch=10 n=38 v=47
197782 On ch=10 n=40 v=56
197797 Off ch=10 n=38 v=64
197872 Off ch=10 n=40 v=64
198205 On ch=10 n=40 v=44
198242 On ch=10 n=38 v=55
198310 Off ch=10 n=38 v=64
198317 Off ch=10 n=40 v=64
199172 On ch=10 n=38 v=47
199222 On ch=10 n=40 v=55
199237 Off ch=10 n=38 v=64
199312 Off ch=10 n=40 v=64
199645 On ch=10 n=40 v=44
199682 On ch=10 n=38 v=55
199750 Off ch=10 n=38 v=64
199757 Off ch=10 n=40 v=64
200612 On ch=10 n=38 v=47
200662 On ch=10 n=40 v=52
200677 Off ch=10 n=38 v=64
200752 Off ch=10 n=40 v=64
201085 On ch=10 n=40 v=44
201122 On ch=10 n=38 v=55
201190 Off ch=10 n=38 v=64
201197 Off ch=10 n=40 v=64
202052 On ch=10 n=38 v=47
202095 On ch=10 n=40 v=52
202117 Off ch=10 n=38 v=64
202185 Off ch=10 n=40 v=64
202525 On ch=10 n=40 v=44
202562 On ch=10 n=38 v=55
202630 Off ch=10 n=38 v=64
202637 Off ch=10 n=40 v=64
203492 On ch=10 n=38 v=47
203542 On ch=10 n=40 v=56
203557 Off ch=10 n=38 v=64
203632 Off ch=10 n=40 v=64
203965 On ch=10 n=40 v=44
204002 On ch=10 n=38 v=55
204070 Off ch=10 n=38 v=64
204077 Off ch=10 n=40 v=64
204932 On ch=10 n=38 v=47
204982 On ch=10 n=40 v=55
204997 Off ch=10 n=38 v=64
205072 Off ch=10 n=40 v=64
205405 On ch=10 n=40 v=44
205442 On ch=10 n=38 v=55
205510 Off ch=10 n=38 v=64
205517 Off ch=10 n=40 v=64
206372 On ch=10 n=38 v=47
206422 On ch=10 n=40 v=52
206437 Off ch=10 n=38 v=64
206512 Off ch=10 n=40 v=64
206845 On ch=10 n=40 v=44
206882 On ch=10 n=38 v=55
206950 Off ch=10 n=38 v=64
206957 Off ch=10 n=40 v=64
207812 On ch=10 n=38 v=47
207855 On ch=10 n=40 v=52
207877 Off ch=10 n=38 v=64
207945 Off ch=10 n=40 v=64
208285 On ch=10 n=40 v=44
208322 On ch=10 n=38 v=55
208390 Off ch=10 n=38 v=64
208397 Off ch=10 n=40 v=64
208800 On ch=10 n=38 v=23
208860 Off ch=10 n=38 v=64
208860 On ch=10 n=40 v=26
208920 Off ch=10 n=40 v=64
208920 On ch=10 n=38 v=26
208980 Off ch=10 n=38 v=64
208980 On ch=10 n=40 v=31
209040 Off ch=10 n=40 v=64
209040 On ch=10 n=38 v=31
209100 Off ch=10 n=38 v=64
209100 On ch=10 n=40 v=31
209160 Off ch=10 n=40 v=64
209160 On ch=10 n=38 v=31
209220 Off ch=10 n=38 v=64
209220 On ch=10 n=40 v=34
209280 Off ch=10 n=40 v=64
209280 On ch=10 n=38 v=37
209340 Off ch=10 n=38 v=64
209352 On ch=10 n=40 v=37
209412 Off ch=10 n=40 v=64
209425 On ch=10 n=38 v=37
209485 Off ch=10 n=38 v=64
209495 On ch=10 n=40 v=40
209555 Off ch=10 n=40 v=64
209567 On ch=10 n=38 v=43
209627 Off ch=10 n=38 v=64
209630 On ch=10 n=40 v=46
209690 Off ch=10 n=40 v=64
209690 On ch=10 n=38 v=49
209750 Off ch=10 n=38 v=64
209757 On ch=10 n=40 v=49
209817 Off ch=10 n=40 v=64
209817 On ch=10 n=38 v=49
209877 Off ch=10 n=38 v=64
209887 On ch=10 n=40 v=55
209942 On ch=10 n=38 v=55
209947 Off ch=10 n=40 v=64
210000 On ch=10 n=40 v=61
210002 Off ch=10 n=38 v=64
210060 Off ch=10 n=40 v=64
210692 On ch=10 n=38 v=46
210757 Off ch=10 n=38 v=64
211202 On ch=10 n=38 v=48
211270 Off ch=10 n=38 v=64
212132 On ch=10 n=38 v=51
212197 Off ch=10 n=38 v=64
212215 On ch=10 n=40 v=49
212275 Off ch=10 n=40 v=64
212280 On ch=10 n=38 v=49
212340 Off ch=10 n=38 v=64
212345 On ch=10 n=40 v=41
212405 Off ch=10 n=40 v=64
212417 On ch=10 n=38 v=38
212477 Off ch=10 n=38 v=64
212480 On ch=10 n=40 v=38
212540 Off ch=10 n=40 v=64
212557 On ch=10 n=38 v=40
212617 Off ch=10 n=38 v=64
212640 On ch=10 n=40 v=38
212707 Off ch=10 n=40 v=64
212717 On ch=10 n=38 v=38
212777 Off ch=10 n=38 v=64
212790 On ch=10 n=40 v=31
212850 Off ch=10 n=40 v=64
212860 On ch=10 n=38 v=26
212930 Off ch=10 n=38 v=64
212935 On ch=10 n=40 v=23
213007 Off ch=10 n=40 v=64
213007 On ch=10 n=38 v=23
213067 Off ch=10 n=38 v=64
213072 On ch=10 n=40 v=20
213132 Off ch=10 n=40 v=64
213572 On ch=10 n=38 v=34
213637 Off ch=10 n=38 v=64
214082 On ch=10 n=38 v=25
214150 Off ch=10 n=38 v=64
215012 On ch=10 n=38 v=29
215077 Off ch=10 n=38 v=64
215095 On ch=10 n=40 v=31
215155 Off ch=10 n=40 v=64
215160 On ch=10 n=38 v=31
215220 Off ch=10 n=38 v=64
215225 On ch=10 n=40 v=31
215285 Off ch=10 n=40 v=64
215297 On ch=10 n=38 v=31
215357 Off ch=10 n=38 v=64
215360 On ch=10 n=40 v=31
215420 Off ch=10 n=40 v=64
215437 On ch=10 n=38 v=26
215497 Off ch=10 n=38 v=64
215520 On ch=10 n=40 v=26
215587 Off ch=10 n=40 v=64
215597 On ch=10 n=38 v=26
215657 Off ch=10 n=38 v=64
215670 On ch=10 n=40 v=20
215730 Off ch=10 n=40 v=64
215740 On ch=10 n=38 v=20
215810 Off ch=10 n=38 v=64
215815 On ch=10 n=40 v=17
215887 Off ch=10 n=40 v=64
215887 On ch=10 n=38 v=17
215947 Off ch=10 n=38 v=64
215952 On ch=10 n=40 v=17
216012 Off ch=10 n=40 v=64
265412 On ch=10 n=38 v=40
265477 Off ch=10 n=38 v=64
265922 On ch=10 n=38 v=46
265990 Off ch=10 n=38 v=64
266880 On ch=10 n=38 v=23
266922 On ch=10 n=40 v=26
266940 Off ch=10 n=38 v=64
266970 On ch=10 n=38 v=26
266982 Off ch=10 n=40 v=64
267015 On ch=10 n=40 v=31
267030 Off ch=10 n=38 v=64
267067 On ch=10 n=38 v=37
267075 Off ch=10 n=40 v=64
267112 On ch=10 n=40 v=34
267127 Off ch=10 n=38 v=64
267160 On ch=10 n=38 v=40
267172 Off ch=10 n=40 v=64
267210 On ch=10 n=40 v=40
267220 Off ch=10 n=38 v=64
267257 On ch=10 n=38 v=40
267270 Off ch=10 n=40 v=64
267302 On ch=10 n=40 v=43
267317 Off ch=10 n=38 v=64
267355 On ch=10 n=38 v=49
267362 Off ch=10 n=40 v=64
267400 On ch=10 n=40 v=55
267415 Off ch=10 n=38 v=64
267447 On ch=10 n=38 v=52
267460 Off ch=10 n=40 v=64
267495 On ch=10 n=40 v=55
267507 Off ch=10 n=38 v=64
267542 On ch=10 n=38 v=46
267555 Off ch=10 n=40 v=64
267587 On ch=10 n=40 v=49
267602 Off ch=10 n=38 v=64
267632 On ch=10 n=38 v=55
267647 Off ch=10 n=40 v=64
267677 On ch=10 n=40 v=58
267692 Off ch=10 n=38 v=64
267725 On ch=10 n=38 v=64
267737 Off ch=10 n=40 v=64
267770 On ch=10 n=40 v=72
267785 Off ch=10 n=38 v=64
267817 On ch=10 n=38 v=84
267830 Off ch=10 n=40 v=64
267877 Off ch=10 n=38 v=64
268292 On ch=10 n=38 v=47
268342 On ch=10 n=40 v=56
268357 Off ch=10 n=38 v=64
268432 Off ch=10 n=40 v=64
268765 On ch=10 n=40 v=44
268802 On ch=10 n=38 v=55
268870 Off ch=10 n=38 v=64
268877 Off ch=10 n=40 v=64
269732 On ch=10 n=38 v=47
269782 On ch=10 n=40 v=55
269797 Off ch=10 n=38 v=64
269872 Off ch=10 n=40 v=64
270205 On ch=10 n=40 v=44
270242 On ch=10 n=38 v=55
270310 Off ch=10 n=38 v=64
270317 Off ch=10 n=40 v=64
271172 On ch=10 n=38 v=47
271222 On ch=10 n=40 v=52
271237 Off ch=10 n=38 v=64
271312 Off ch=10 n=40 v=64
271645 On ch=10 n=40 v=44
271682 On ch=10 n=38 v=55
271750 Off ch=10 n=38 v=64
271757 Off ch=10 n=40 v=64
272612 On ch=10 n=38 v=47
272655 On ch=10 n=40 v=52
272677 Off ch=10 n=38 v=64
272745 Off ch=10 n=40 v=64
273085 On ch=10 n=40 v=44
273122 On ch=10 n=38 v=55
273190 Off ch=10 n=38 v=64
273197 Off ch=10 n=40 v=64
274052 On ch=10 n=38 v=47
274102 On ch=10 n=40 v=56
274117 Off ch=10 n=38 v=64
274192 Off ch=10 n=40 v=64
274525 On ch=10 n=40 v=44
274562 On ch=10 n=38 v=55
274630 Off ch=10 n=38 v=64
274637 Off ch=10 n=40 v=64
275492 On ch=10 n=38 v=47
275542 On ch=10 n=40 v=55
275557 Off ch=10 n=38 v=64
275632 Off ch=10 n=40 v=64
275965 On ch=10 n=40 v=44
276002 On ch=10 n=38 v=55
276070 Off ch=10 n=38 v=64
276077 Off ch=10 n=40 v=64
276932 On ch=10 n=38 v=47
276982 On ch=10 n=40 v=52
276997 Off ch=10 n=38 v=64
277072 Off ch=10 n=40 v=64
277405 On ch=10 n=40 v=44
277442 On ch=10 n=38 v=55
277510 Off ch=10 n=38 v=64
277517 Off ch=10 n=40 v=64
278372 On ch=10 n=38 v=47
278415 On ch=10 n=40 v=52
278437 Off ch=10 n=38 v=64
278505 Off ch=10 n=40 v=64
278845 On ch=10 n=40 v=44
278882 On ch=10 n=38 v=55
278950 Off ch=10 n=38 v=64
278957 Off ch=10 n=40 v=64
279812 On ch=10 n=38 v=47
279862 On ch=10 n=40 v=56
279877 Off ch=10 n=38 v=64
279952 Off ch=10 n=40 v=64
280285 On ch=10 n=40 v=44
280322 On ch=10 n=38 v=55
280390 Off ch=10 n=38 v=64
280397 Off ch=10 n=40 v=64
281252 On ch=10 n=38 v=47
281302 On ch=10 n=40 v=55
281317 Off ch=10 n=38 v=64
281392 Off ch=10 n=40 v=64
281725 On ch=10 n=40 v=44
281762 On ch=10 n=38 v=55
281830 Off ch=10 n=38 v=64
281837 Off ch=10 n=40 v=64
282692 On ch=10 n=38 v=47
282742 On ch=10 n=40 v=52
282757 Off ch=10 n=38 v=64
282832 Off ch=10 n=40 v=64
283165 On ch=10 n=40 v=44
283202 On ch=10 n=38 v=55
283270 Off ch=10 n=38 v=64
283277 Off ch=10 n=40 v=64
284132 On ch=10 n=38 v=47
284175 On ch=10 n=40 v=52
284197 Off ch=10 n=38 v=64
284265 Off ch=10 n=40 v=64
284605 On ch=10 n=40 v=44
284642 On ch=10 n=38 v=55
284710 Off ch=10 n=38 v=64
284717 Off ch=10 n=40 v=64
285572 On ch=10 n=38 v=47
285622 On ch=10 n=40 v=56
285637 Off ch=10 n=38 v=64
285712 Off ch=10 n=40 v=64
286045 On ch=10 n=40 v=44
286082 On ch=10 n=38 v=55
286150 Off ch=10 n=38 v=64
286157 Off ch=10 n=40 v=64
287012 On ch=10 n=38 v=47
287062 On ch=10 n=40 v=55
287077 Off ch=10 n=38 v=64
287152 Off ch=10 n=40 v=64
287485 On ch=10 n=40 v=44
287522 On ch=10 n=38 v=55
287590 Off ch=10 n=38 v=64
287597 Off ch=10 n=40 v=64
288452 On ch=10 n=38 v=47
288502 On ch=10 n=40 v=52
288517 Off ch=10 n=38 v=64
288592 Off ch=10 n=40 v=64
288925 On ch=10 n=40 v=44
288962 On ch=10 n=38 v=55
289030 Off ch=10 n=38 v=64
289037 Off ch=10 n=40 v=64
289892 On ch=10 n=38 v=47
289935 On ch=10 n=40 v=52
289957 Off ch=10 n=38 v=64
290025 Off ch=10 n=40 v=64
290365 On ch=10 n=40 v=44
290402 On ch=10 n=38 v=55
290470 Off ch=10 n=38 v=64
290477 Off ch=10 n=40 v=64
291332 On ch=10 n=38 v=47
291382 On ch=10 n=40 v=56
291397 Off ch=10 n=38 v=64
291472 Off ch=10 n=40 v=64
291805 On ch=10 n=40 v=44
291842 On ch=10 n=38 v=55
291910 Off ch=10 n=38 v=64
291917 Off ch=10 n=40 v=64
292772 On ch=10 n=38 v=47
292822 On ch=10 n=40 v=55
292837 Off ch=10 n=38 v=64
292912 Off ch=10 n=40 v=64
293245 On ch=10 n=40 v=44
293282 On ch=10 n=38 v=55
293350 Off ch=10 n=38 v=64
293357 Off ch=10 n=40 v=64
294212 On ch=10 n=38 v=47
294262 On ch=10 n=40 v=52
294277 Off ch=10 n=38 v=64
294352 Off ch=10 n=40 v=64
294685 On ch=10 n=40 v=44
294722 On ch=10 n=38 v=55
294790 Off ch=10 n=38 v=64
294797 Off ch=10 n=40 v=64
295652 On ch=10 n=38 v=47
295695 On ch=10 n=40 v=52
295717 Off ch=10 n=38 v=64
295785 Off ch=10 n=40 v=64
296125 On ch=10 n=40 v=44
296162 On ch=10 n=38 v=55
296230 Off ch=10 n=38 v=64
296237 Off ch=10 n=40 v=64
297092 On ch=10 n=38 v=47
297142 On ch=10 n=40 v=56
297157 Off ch=10 n=38 v=64
297232 Off ch=10 n=40 v=64
297565 On ch=10 n=40 v=44
297602 On ch=10 n=38 v=55
297670 Off ch=10 n=38 v=64
297677 Off ch=10 n=40 v=64
298532 On ch=10 n=38 v=47
298582 On ch=10 n=40 v=55
298597 Off ch=10 n=38 v=64
298672 Off ch=10 n=40 v=64
299005 On ch=10 n=40 v=44
299042 On ch=10 n=38 v=55
299110 Off ch=10 n=38 v=64
299117 Off ch=10 n=40 v=64
299972 On ch=10 n=38 v=47
300022 On ch=10 n=40 v=52
300037 Off ch=10 n=38 v=64
300112 Off ch=10 n=40 v=64
300445 On ch=10 n=40 v=44
300482 On ch=10 n=38 v=55
300550 Off ch=10 n=38 v=64
300557 Off ch=10 n=40 v=64
301412 On ch=10 n=38 v=46
301477 Off ch=10 n=38 v=64
301922 On ch=10 n=38 v=47
301990 Off ch=10 n=38 v=64
302880 On ch=10 n=38 v=26
303015 Off ch=10 n=38 v=64
303125 On ch=10 n=40 v=40
303305 Off ch=10 n=40 v=64
303350 On ch=10 n=38 v=52
303512 Off ch=10 n=38 v=64
303590 On ch=10 n=40 v=46
303717 Off ch=10 n=40 v=64
304320 On ch=10 n=38 v=31
304455 Off ch=10 n=38 v=64
304562 On ch=10 n=40 v=43
304742 Off ch=10 n=40 v=64
304792 On ch=10 n=38 v=49
304955 Off ch=10 n=38 v=64
305035 On ch=10 n=40 v=53
305162 Off ch=10 n=40 v=64
305257 On ch=10 n=38 v=64
305342 Off ch=10 n=38 v=64
306227 On ch=10 n=38 v=50
306390 Off ch=10 n=38 v=64
307172 On ch=10 n=38 v=36
307237 Off ch=10 n=38 v=64
307682 On ch=10 n=38 v=47
307750 Off ch=10 n=38 v=64
308640 On ch=10 n=38 v=26
308775 Off ch=10 n=38 v=64
308885 On ch=10 n=40 v=40
309065 Off ch=10 n=40 v=64
309110 On ch=10 n=38 v=52
309272 Off ch=10 n=38 v=64
309350 On ch=10 n=40 v=46
309477 Off ch=10 n=40 v=64
310080 On ch=10 n=38 v=31
310215 Off ch=10 n=38 v=64
310322 On ch=10 n=40 v=43
310502 Off ch=10 n=40 v=64
310552 On ch=10 n=38 v=49
310715 Off ch=10 n=38 v=64
310795 On ch=10 n=40 v=53
310922 Off ch=10 n=40 v=64
311017 On ch=10 n=38 v=64
311102 Off ch=10 n=38 v=64
311987 On ch=10 n=38 v=50
312150 Off ch=10 n=38 v=64
312932 On ch=10 n=38 v=36
312997 Off ch=10 n=38 v=64
313442 On ch=10 n=38 v=43
313510 Off ch=10 n=38 v=64
314400 On ch=10 n=38 v=33
314535 Off ch=10 n=38 v=64
314637 On ch=10 n=40 v=40
314817 Off ch=10 n=40 v=64
314870 On ch=10 n=38 v=47
315032 Off ch=10 n=38 v=64
315112 On ch=10 n=40 v=50
315240 Off ch=10 n=40 v=64
315840 On ch=10 n=38 v=33
315975 Off ch=10 n=38 v=64
316077 On ch=10 n=40 v=37
316257 Off ch=10 n=40 v=64
316310 On ch=10 n=38 v=47
316472 Off ch=10 n=38 v=64
316557 On ch=10 n=40 v=52
316685 Off ch=10 n=40 v=64
316780 On ch=10 n=38 v=90
316865 Off ch=10 n=38 v=64
317752 On ch=10 n=40 v=82
317885 Off ch=10 n=40 v=64
318007 On ch=10 n=40 v=60
318155 Off ch=10 n=40 v=64
318240 On ch=10 n=40 v=100
318422 Off ch=10 n=40 v=64
318422 Meta TrkEnd
TrkEnd
MTrk
0 Meta TrkName "#Timpani  "
0 Meta 0x21 00
0 Meta 0x20 09
0 Par ch=10 c=10 v=64
4320 On ch=10 n=48 v=50
4370 Off ch=10 n=48 v=64
5760 On ch=10 n=43 v=50
5810 Off ch=10 n=43 v=64
7200 On ch=10 n=48 v=40
7250 Off ch=10 n=48 v=64
8640 On ch=10 n=43 v=34
8690 Off ch=10 n=43 v=64
59040 On ch=10 n=48 v=50
59090 Off ch=10 n=48 v=64
60480 On ch=10 n=43 v=50
60530 Off ch=10 n=43 v=64
61920 On ch=10 n=48 v=50
61970 Off ch=10 n=48 v=64
63360 On ch=10 n=43 v=50
63410 Off ch=10 n=43 v=64
64800 On ch=10 n=48 v=50
64850 Off ch=10 n=48 v=64
66240 On ch=10 n=43 v=50
66290 Off ch=10 n=43 v=64
67680 On ch=10 n=48 v=50
67730 Off ch=10 n=48 v=64
69120 On ch=10 n=43 v=50
69170 Off ch=10 n=43 v=64
70560 On ch=10 n=48 v=50
70610 Off ch=10 n=48 v=64
72000 On ch=10 n=43 v=50
72050 Off ch=10 n=43 v=64
73440 On ch=10 n=50 v=43
73490 Off ch=10 n=50 v=64
74880 On ch=10 n=43 v=34
74930 Off ch=10 n=43 v=64
116160 On ch=10 n=46 v=60
116210 Off ch=10 n=46 v=64
116640 On ch=10 n=51 v=80
116690 Off ch=10 n=51 v=64
208800 On ch=10 n=43 v=26
208860 Off ch=10 n=43 v=64
208860 On ch=10 n=43 v=26
208920 Off ch=10 n=43 v=64
208920 On ch=10 n=43 v=26
208980 Off ch=10 n=43 v=64
208980 On ch=10 n=43 v=29
209040 Off ch=10 n=43 v=64
209040 On ch=10 n=43 v=29
209100 Off ch=10 n=43 v=64
209100 On ch=10 n=43 v=31
209160 Off ch=10 n=43 v=64
209160 On ch=10 n=43 v=34
209220 Off ch=10 n=43 v=64
209220 On ch=10 n=43 v=40
209280 Off ch=10 n=43 v=64
209280 On ch=10 n=43 v=43
209340 Off ch=10 n=43 v=64
209340 On ch=10 n=43 v=49
209400 Off ch=10 n=43 v=64
209400 On ch=10 n=43 v=52
209460 Off ch=10 n=43 v=64
209460 On ch=10 n=43 v=55
209520 Off ch=10 n=43 v=64
209520 On ch=10 n=43 v=58
209580 Off ch=10 n=43 v=64
209580 On ch=10 n=43 v=64
209640 Off ch=10 n=43 v=64
209640 On ch=10 n=43 v=72
209700 Off ch=10 n=43 v=64
209700 On ch=10 n=43 v=75
209760 Off ch=10 n=43 v=64
209760 On ch=10 n=43 v=78
209820 Off ch=10 n=43 v=64
209820 On ch=10 n=43 v=61
209880 Off ch=10 n=43 v=64
209880 On ch=10 n=43 v=46
209940 Off ch=10 n=43 v=64
209940 On ch=10 n=43 v=43
210000 Off ch=10 n=43 v=64
210000 On ch=10 n=43 v=40
210060 Off ch=10 n=43 v=64
210240 On ch=10 n=48 v=73
210290 Off ch=10 n=48 v=64
211680 On ch=10 n=43 v=60
211730 Off ch=10 n=43 v=64
213120 On ch=10 n=48 v=52
213170 Off ch=10 n=48 v=64
214560 On ch=10 n=43 v=43
214610 Off ch=10 n=43 v=64
216000 On ch=10 n=48 v=50
216050 Off ch=10 n=48 v=64
217440 On ch=10 n=43 v=50
217490 Off ch=10 n=43 v=64
218880 On ch=10 n=48 v=50
218930 Off ch=10 n=48 v=64
220320 On ch=10 n=43 v=50
220370 Off ch=10 n=43 v=64
221760 On ch=10 n=48 v=50
221810 Off ch=10 n=48 v=64
223200 On ch=10 n=43 v=50
223250 Off ch=10 n=43 v=64
224640 On ch=10 n=50 v=50
224690 Off ch=10 n=50 v=64
226080 On ch=10 n=43 v=50
226130 Off ch=10 n=43 v=64
227520 On ch=10 n=50 v=50
227570 Off ch=10 n=50 v=64
228960 On ch=10 n=43 v=50
229010 Off ch=10 n=43 v=64
230400 On ch=10 n=50 v=50
230450 Off ch=10 n=50 v=64
231840 On ch=10 n=43 v=50
231890 Off ch=10 n=43 v=64
233280 On ch=10 n=50 v=50
233330 Off ch=10 n=50 v=64
234720 On ch=10 n=43 v=50
234770 Off ch=10 n=43 v=64
236160 On ch=10 n=48 v=50
236210 Off ch=10 n=48 v=64
237600 On ch=10 n=43 v=50
237650 Off ch=10 n=43 v=64
239040 On ch=10 n=48 v=50
239090 Off ch=10 n=48 v=64
240480 On ch=10 n=48 v=50
240530 Off ch=10 n=48 v=64
241920 On ch=10 n=50 v=50
241970 Off ch=10 n=50 v=64
243360 On ch=10 n=50 v=50
243410 Off ch=10 n=50 v=64
264960 On ch=10 n=48 v=60
265010 Off ch=10 n=48 v=64
266400 On ch=10 n=43 v=64
266460 Off ch=10 n=43 v=64
266460 On ch=10 n=43 v=43
266520 Off ch=10 n=43 v=64
266520 On ch=10 n=43 v=37
266580 Off ch=10 n=43 v=64
266580 On ch=10 n=43 v=37
266640 Off ch=10 n=43 v=64
266640 On ch=10 n=43 v=37
266700 Off ch=10 n=43 v=64
266700 On ch=10 n=43 v=37
266760 Off ch=10 n=43 v=64
266760 On ch=10 n=43 v=37
266820 Off ch=10 n=43 v=64
266820 On ch=10 n=43 v=37
266880 Off ch=10 n=43 v=64
266880 On ch=10 n=43 v=46
266940 Off ch=10 n=43 v=64
266940 On ch=10 n=43 v=49
267000 Off ch=10 n=43 v=64
267000 On ch=10 n=43 v=52
267060 Off ch=10 n=43 v=64
267060 On ch=10 n=43 v=52
267120 Off ch=10 n=43 v=64
267120 On ch=10 n=43 v=58
267180 Off ch=10 n=43 v=64
267180 On ch=10 n=43 v=58
267240 Off ch=10 n=43 v=64
267240 On ch=10 n=43 v=66
267300 Off ch=10 n=43 v=64
267300 On ch=10 n=43 v=69
267360 Off ch=10 n=43 v=64
267360 On ch=10 n=43 v=78
267420 Off ch=10 n=43 v=64
267420 On ch=10 n=43 v=81
267480 Off ch=10 n=43 v=64
267480 On ch=10 n=43 v=81
267540 Off ch=10 n=43 v=64
267540 On ch=10 n=43 v=72
267600 Off ch=10 n=43 v=64
267600 On ch=10 n=43 v=66
267660 Off ch=10 n=43 v=64
267840 On ch=10 n=48 v=84
267890 Off ch=10 n=48 v=64
269280 On ch=10 n=43 v=74
269330 Off ch=10 n=43 v=64
270720 On ch=10 n=48 v=74
270770 Off ch=10 n=48 v=64
272160 On ch=10 n=43 v=74
272210 Off ch=10 n=43 v=64
273600 On ch=10 n=48 v=74
273650 Off ch=10 n=48 v=64
275040 On ch=10 n=43 v=74
275090 Off ch=10 n=43 v=64
276480 On ch=10 n=50 v=69
276530 Off ch=10 n=50 v=64
277920 On ch=10 n=43 v=66
277970 Off ch=10 n=43 v=64
279360 On ch=10 n=50 v=64
279410 Off ch=10 n=50 v=64
280800 On ch=10 n=43 v=66
280850 Off ch=10 n=43 v=64
282240 On ch=10 n=50 v=66
282290 Off ch=10 n=50 v=64
283680 On ch=10 n=43 v=66
283730 Off ch=10 n=43 v=64
285120 On ch=10 n=50 v=64
285170 Off ch=10 n=50 v=64
286560 On ch=10 n=43 v=66
286610 Off ch=10 n=43 v=64
288000 On ch=10 n=48 v=55
288050 Off ch=10 n=48 v=64
289440 On ch=10 n=43 v=49
289490 Off ch=10 n=43 v=64
316800 On ch=10 n=48 v=75
316850 Off ch=10 n=48 v=64
317760 On ch=10 n=43 v=93
317810 Off ch=10 n=43 v=64
317820 On ch=10 n=43 v=34
317880 Off ch=10 n=43 v=64
317880 On ch=10 n=43 v=29
317940 Off ch=10 n=43 v=64
317940 On ch=10 n=43 v=37
318000 Off ch=10 n=43 v=64
318000 On ch=10 n=43 v=55
318060 Off ch=10 n=43 v=64
318060 On ch=10 n=43 v=61
318120 Off ch=10 n=43 v=64
318120 On ch=10 n=43 v=66
318180 Off ch=10 n=43 v=64
318180 On ch=10 n=43 v=72
318240 Off ch=10 n=43 v=64
318240 On ch=10 n=48 v=101
318290 Off ch=10 n=48 v=64
318290 Meta TrkEnd
TrkEnd
MTrk
0 Meta TrkName "#Cymbals  "
0 Meta 0x21 00
0 Meta 0x20 09
0 Par ch=10 c=10 v=64
116650 On ch=10 n=59 v=91
116732 Off ch=10 n=59 v=64
185760 On ch=10 n=59 v=73
185852 Off ch=10 n=59 v=64
318247 On ch=10 n=59 v=95
318330 Off ch=10 n=59 v=64
318330 Meta TrkEnd
TrkEnd
MTrk
0 Meta TrkName "#Triangle "
0 Meta 0x21 00
0 Meta 0x20 09
0 Par ch=10 c=10 v=64
43660 On ch=10 n=81 v=52
43760 Off ch=10 n=81 v=64
44157 On ch=10 n=81 v=48
44212 Off ch=10 n=81 v=64
44635 On ch=10 n=81 v=56
44720 Off ch=10 n=81 v=64
46065 On ch=10 n=81 v=58
46150 Off ch=10 n=81 v=64
47505 On ch=10 n=81 v=56
47587 Off ch=10 n=81 v=64
48465 On ch=10 n=81 v=58
48515 Off ch=10 n=81 v=64
49420 On ch=10 n=81 v=52
49520 Off ch=10 n=81 v=64
49917 On ch=10 n=81 v=48
49972 Off ch=10 n=81 v=64
50395 On ch=10 n=81 v=56
50480 Off ch=10 n=81 v=64
51825 On ch=10 n=81 v=58
51910 Off ch=10 n=81 v=64
53265 On ch=10 n=81 v=56
53347 Off ch=10 n=81 v=64
54225 On ch=10 n=81 v=58
54275 Off ch=10 n=81 v=64
55180 On ch=10 n=81 v=52
55280 Off ch=10 n=81 v=64
55677 On ch=10 n=81 v=48
55732 Off ch=10 n=81 v=64
56155 On ch=10 n=81 v=56
56240 Off ch=10 n=81 v=64
57085 On ch=10 n=81 v=56
57177 Off ch=10 n=81 v=64
57585 On ch=10 n=81 v=58
57670 Off ch=10 n=81 v=64
58542 On ch=10 n=81 v=51
58655 Off ch=10 n=81 v=64
59025 On ch=10 n=81 v=56
59107 Off ch=10 n=81 v=64
98380 On ch=10 n=81 v=52
98480 Off ch=10 n=81 v=64
99355 On ch=10 n=81 v=56
99440 Off ch=10 n=81 v=64
100785 On ch=10 n=81 v=58
100870 Off ch=10 n=81 v=64
102225 On ch=10 n=81 v=56
102307 Off ch=10 n=81 v=64
104140 On ch=10 n=81 v=52
104240 Off ch=10 n=81 v=64
105115 On ch=10 n=81 v=56
105200 Off ch=10 n=81 v=64
106545 On ch=10 n=81 v=58
106630 Off ch=10 n=81 v=64
107985 On ch=10 n=81 v=56
108067 Off ch=10 n=81 v=64
109900 On ch=10 n=81 v=52
110000 Off ch=10 n=81 v=64
110875 On ch=10 n=81 v=56
110960 Off ch=10 n=81 v=64
112305 On ch=10 n=81 v=58
112390 Off ch=10 n=81 v=64
113745 On ch=10 n=81 v=56
113827 Off ch=10 n=81 v=64
250555 On ch=10 n=81 v=56
250640 Off ch=10 n=81 v=64
251985 On ch=10 n=81 v=58
252070 Off ch=10 n=81 v=64
253425 On ch=10 n=81 v=56
253507 Off ch=10 n=81 v=64
256315 On ch=10 n=81 v=56
256400 Off ch=10 n=81 v=64
257745 On ch=10 n=81 v=58
257830 Off ch=10 n=81 v=64
259185 On ch=10 n=81 v=56
259267 Off ch=10 n=81 v=64
262075 On ch=10 n=81 v=56
262160 Off ch=10 n=81 v=64
263505 On ch=10 n=81 v=58
263590 Off ch=10 n=81 v=64
264945 On ch=10 n=81 v=56
265027 Off ch=10 n=81 v=64
302395 On ch=10 n=81 v=56
302480 Off ch=10 n=81 v=64
303825 On ch=10 n=81 v=58
303910 Off ch=10 n=81 v=64
305265 On ch=10 n=81 v=56
305347 Off ch=10 n=81 v=64
308155 On ch=10 n=81 v=56
308240 Off ch=10 n=81 v=64
309585 On ch=10 n=81 v=58
309670 Off ch=10 n=81 v=64
311025 On ch=10 n=81 v=56
311107 Off ch=10 n=81 v=64
313915 On ch=10 n=81 v=56
314000 Off ch=10 n=81 v=64
315345 On ch=10 n=81 v=58
315430 Off ch=10 n=81 v=64
316785 On ch=10 n=81 v=56
316867 Off ch=10 n=81 v=64
316867 Meta TrkEnd
TrkEnd
MTrk
0 Meta TrkName "A.Piano   "
0 Meta 0x21 00
0 Meta 0x20 00
0 Par ch=1 c=10 v=64
59040 On ch=1 n=36 v=53
59040 On ch=1 n=48 v=36
59505 On ch=1 n=63 v=56
59505 On ch=1 n=60 v=56
59507 On ch=1 n=55 v=48
59525 Off ch=1 n=48 v=64
59525 Off ch=1 n=36 v=64
59600 Off ch=1 n=55 v=64
59622 Off ch=1 n=63 v=64
59632 Off ch=1 n=60 v=64
59982 On ch=1 n=63 v=60
59985 On ch=1 n=55 v=48
59985 On ch=1 n=60 v=56
60045 Off ch=1 n=60 v=64
60065 Off ch=1 n=63 v=64
60077 Off ch=1 n=55 v=64
60480 On ch=1 n=31 v=48
60480 On ch=1 n=43 v=40
60952 On ch=1 n=60 v=56
60955 On ch=1 n=63 v=56
60955 On ch=1 n=55 v=56
60962 Off ch=1 n=43 v=64
60962 Off ch=1 n=31 v=64
61027 Off ch=1 n=55 v=64
61047 Off ch=1 n=63 v=64
61062 Off ch=1 n=60 v=64
61437 On ch=1 n=63 v=56
61442 On ch=1 n=55 v=56
61442 On ch=1 n=60 v=60
61512 Off ch=1 n=55 v=64
61525 Off ch=1 n=63 v=64
61530 Off ch=1 n=60 v=64
61920 On ch=1 n=36 v=50
61920 On ch=1 n=48 v=40
62397 On ch=1 n=60 v=52
62397 On ch=1 n=55 v=52
62400 Off ch=1 n=48 v=64
62400 Off ch=1 n=36 v=64
62400 On ch=1 n=63 v=59
62482 Off ch=1 n=63 v=64
62490 Off ch=1 n=55 v=64
62497 Off ch=1 n=60 v=64
62885 On ch=1 n=55 v=56
62885 On ch=1 n=60 v=64
62885 On ch=1 n=63 v=60
62955 Off ch=1 n=63 v=64
62965 Off ch=1 n=60 v=64
62980 Off ch=1 n=55 v=64
63360 On ch=1 n=31 v=50
63360 On ch=1 n=43 v=48
63810 Off ch=1 n=43 v=64
63810 Off ch=1 n=31 v=64
63837 On ch=1 n=63 v=56
63837 On ch=1 n=55 v=52
63837 On ch=1 n=60 v=56
63920 Off ch=1 n=60 v=64
63920 Off ch=1 n=55 v=64
63920 Off ch=1 n=63 v=64
64317 On ch=1 n=55 v=56
64322 On ch=1 n=60 v=56
64322 On ch=1 n=63 v=60
64385 Off ch=1 n=60 v=64
64392 Off ch=1 n=63 v=64
64397 Off ch=1 n=55 v=64
64800 On ch=1 n=36 v=50
64800 On ch=1 n=48 v=40
65277 On ch=1 n=60 v=52
65277 On ch=1 n=55 v=52
65280 Off ch=1 n=48 v=64
65280 Off ch=1 n=36 v=64
65280 On ch=1 n=63 v=59
65362 Off ch=1 n=63 v=64
65370 Off ch=1 n=55 v=64
65377 Off ch=1 n=60 v=64
65765 On ch=1 n=55 v=56
65765 On ch=1 n=60 v=64
65765 On ch=1 n=63 v=60
65835 Off ch=1 n=63 v=64
65845 Off ch=1 n=60 v=64
65860 Off ch=1 n=55 v=64
66240 On ch=1 n=31 v=50
66240 On ch=1 n=43 v=48
66690 Off ch=1 n=43 v=64
66690 Off ch=1 n=31 v=64
66717 On ch=1 n=63 v=56
66717 On ch=1 n=55 v=52
66717 On ch=1 n=60 v=56
66800 Off ch=1 n=60 v=64
66800 Off ch=1 n=55 v=64
66800 Off ch=1 n=63 v=64
67197 On ch=1 n=55 v=56
67202 On ch=1 n=60 v=56
67202 On ch=1 n=63 v=60
67265 Off ch=1 n=60 v=64
67272 Off ch=1 n=63 v=64
67277 Off ch=1 n=55 v=64
67680 On ch=1 n=36 v=50
67680 On ch=1 n=48 v=40
68157 On ch=1 n=60 v=52
68157 On ch=1 n=55 v=52
68160 Off ch=1 n=48 v=64
68160 Off ch=1 n=36 v=64
68160 On ch=1 n=63 v=59
68242 Off ch=1 n=63 v=64
68250 Off ch=1 n=55 v=64
68257 Off ch=1 n=60 v=64
68645 On ch=1 n=55 v=56
68645 On ch=1 n=60 v=64
68645 On ch=1 n=63 v=60
68715 Off ch=1 n=63 v=64
68725 Off ch=1 n=60 v=64
68740 Off ch=1 n=55 v=64
69120 On ch=1 n=31 v=50
69120 On ch=1 n=43 v=48
69570 Off ch=1 n=43 v=64
69570 Off ch=1 n=31 v=64
69597 On ch=1 n=63 v=56
69597 On ch=1 n=55 v=52
69597 On ch=1 n=60 v=56
69680 Off ch=1 n=60 v=64
69680 Off ch=1 n=55 v=64
69680 Off ch=1 n=63 v=64
70077 On ch=1 n=55 v=56
70082 On ch=1 n=60 v=56
70082 On ch=1 n=63 v=60
70145 Off ch=1 n=60 v=64
70152 Off ch=1 n=63 v=64
70157 Off ch=1 n=55 v=64
70560 On ch=1 n=36 v=50
70560 On ch=1 n=48 v=40
71037 On ch=1 n=60 v=52
71037 On ch=1 n=55 v=52
71040 Off ch=1 n=48 v=64
71040 Off ch=1 n=36 v=64
71040 On ch=1 n=63 v=59
71122 Off ch=1 n=63 v=64
71130 Off ch=1 n=55 v=64
71137 Off ch=1 n=60 v=64
71525 On ch=1 n=55 v=56
71525 On ch=1 n=60 v=64
71525 On ch=1 n=63 v=60
71595 Off ch=1 n=63 v=64
71605 Off ch=1 n=60 v=64
71620 Off ch=1 n=55 v=64
72000 On ch=1 n=31 v=50
72000 On ch=1 n=43 v=48
72450 Off ch=1 n=43 v=64
72450 Off ch=1 n=31 v=64
72477 On ch=1 n=63 v=56
72477 On ch=1 n=55 v=52
72477 On ch=1 n=60 v=56
72560 Off ch=1 n=60 v=64
72560 Off ch=1 n=55 v=64
72560 Off ch=1 n=63 v=64
72957 On ch=1 n=55 v=56
72962 On ch=1 n=60 v=56
72962 On ch=1 n=63 v=60
73025 Off ch=1 n=60 v=64
73032 Off ch=1 n=63 v=64
73037 Off ch=1 n=55 v=64
73440 On ch=1 n=38 v=50
73440 On ch=1 n=50 v=40
73917 On ch=1 n=60 v=52
73917 On ch=1 n=56 v=52
73920 Off ch=1 n=50 v=64
73920 Off ch=1 n=38 v=64
73920 On ch=1 n=65 v=59
74002 Off ch=1 n=65 v=64
74010 Off ch=1 n=56 v=64
74017 Off ch=1 n=60 v=64
74405 On ch=1 n=56 v=56
74405 On ch=1 n=60 v=64
74405 On ch=1 n=65 v=60
74475 Off ch=1 n=65 v=64
74485 Off ch=1 n=60 v=64
74500 Off ch=1 n=56 v=64
74880 On ch=1 n=31 v=50
74880 On ch=1 n=43 v=48
75330 Off ch=1 n=43 v=64
75330 Off ch=1 n=31 v=64
75357 On ch=1 n=65 v=56
75357 On ch=1 n=56 v=52
75357 On ch=1 n=60 v=56
75440 Off ch=1 n=60 v=64
75440 Off ch=1 n=56 v=64
75440 Off ch=1 n=65 v=64
75837 On ch=1 n=56 v=56
75842 On ch=1 n=60 v=56
75842 On ch=1 n=65 v=60
75905 Off ch=1 n=60 v=64
75912 Off ch=1 n=65 v=64
75917 Off ch=1 n=56 v=64
76320 On ch=1 n=38 v=50
76320 On ch=1 n=50 v=40
76797 On ch=1 n=60 v=52
76797 On ch=1 n=56 v=52
76800 Off ch=1 n=50 v=64
76800 Off ch=1 n=38 v=64
76800 On ch=1 n=65 v=59
76882 Off ch=1 n=65 v=64
76890 Off ch=1 n=56 v=64
76897 Off ch=1 n=60 v=64
77285 On ch=1 n=56 v=56
77285 On ch=1 n=60 v=64
77285 On ch=1 n=65 v=60
77355 Off ch=1 n=65 v=64
77365 Off ch=1 n=60 v=64
77380 Off ch=1 n=56 v=64
77760 On ch=1 n=31 v=50
77760 On ch=1 n=43 v=48
78210 Off ch=1 n=43 v=64
78210 Off ch=1 n=31 v=64
78237 On ch=1 n=65 v=56
78237 On ch=1 n=56 v=52
78237 On ch=1 n=60 v=56
78320 Off ch=1 n=60 v=64
78320 Off ch=1 n=56 v=64
78320 Off ch=1 n=65 v=64
78717 On ch=1 n=56 v=56
78722 On ch=1 n=60 v=56
78722 On ch=1 n=65 v=60
78785 Off ch=1 n=60 v=64
78792 Off ch=1 n=65 v=64
78797 Off ch=1 n=56 v=64
79200 On ch=1 n=38 v=50
79200 On ch=1 n=50 v=40
79677 On ch=1 n=59 v=52
79677 On ch=1 n=55 v=52
79680 Off ch=1 n=50 v=64
79680 Off ch=1 n=38 v=64
79680 On ch=1 n=65 v=59
79762 Off ch=1 n=65 v=64
79770 Off ch=1 n=55 v=64
79777 Off ch=1 n=59 v=64
80165 On ch=1 n=55 v=56
80165 On ch=1 n=59 v=64
80165 On ch=1 n=65 v=60
80235 Off ch=1 n=65 v=64
80245 Off ch=1 n=59 v=64
80260 Off ch=1 n=55 v=64
80640 On ch=1 n=31 v=50
80640 On ch=1 n=43 v=48
81090 Off ch=1 n=43 v=64
81090 Off ch=1 n=31 v=64
81117 On ch=1 n=65 v=56
81117 On ch=1 n=55 v=52
81117 On ch=1 n=59 v=56
81200 Off ch=1 n=59 v=64
81200 Off ch=1 n=55 v=64
81200 Off ch=1 n=65 v=64
81597 On ch=1 n=55 v=56
81602 On ch=1 n=59 v=56
81602 On ch=1 n=65 v=60
81665 Off ch=1 n=59 v=64
81672 Off ch=1 n=65 v=64
81677 Off ch=1 n=55 v=64
82080 On ch=1 n=38 v=50
82080 On ch=1 n=50 v=40
82557 On ch=1 n=59 v=52
82557 On ch=1 n=55 v=52
82560 Off ch=1 n=50 v=64
82560 Off ch=1 n=38 v=64
82560 On ch=1 n=65 v=59
82642 Off ch=1 n=65 v=64
82650 Off ch=1 n=55 v=64
82657 Off ch=1 n=59 v=64
83045 On ch=1 n=55 v=56
83045 On ch=1 n=59 v=64
83045 On ch=1 n=65 v=60
83115 Off ch=1 n=65 v=64
83125 Off ch=1 n=59 v=64
83140 Off ch=1 n=55 v=64
83520 On ch=1 n=31 v=50
83520 On ch=1 n=43 v=48
83970 Off ch=1 n=43 v=64
83970 Off ch=1 n=31 v=64
83997 On ch=1 n=65 v=56
83997 On ch=1 n=55 v=52
83997 On ch=1 n=59 v=56
84080 Off ch=1 n=59 v=64
84080 Off ch=1 n=55 v=64
84080 Off ch=1 n=65 v=64
84477 On ch=1 n=55 v=56
84482 On ch=1 n=59 v=56
84482 On ch=1 n=65 v=60
84545 Off ch=1 n=59 v=64
84552 Off ch=1 n=65 v=64
84557 Off ch=1 n=55 v=64
84960 On ch=1 n=36 v=50
84960 On ch=1 n=48 v=40
85437 On ch=1 n=60 v=52
85437 On ch=1 n=55 v=52
85440 Off ch=1 n=48 v=64
85440 Off ch=1 n=36 v=64
85440 On ch=1 n=63 v=59
85522 Off ch=1 n=63 v=64
85530 Off ch=1 n=55 v=64
85537 Off ch=1 n=60 v=64
85925 On ch=1 n=55 v=56
85925 On ch=1 n=60 v=64
85925 On ch=1 n=63 v=60
85995 Off ch=1 n=63 v=64
86005 Off ch=1 n=60 v=64
86020 Off ch=1 n=55 v=64
86400 On ch=1 n=31 v=50
86400 On ch=1 n=43 v=48
86850 Off ch=1 n=43 v=64
86850 Off ch=1 n=31 v=64
86877 On ch=1 n=63 v=56
86877 On ch=1 n=55 v=52
86877 On ch=1 n=60 v=56
86960 Off ch=1 n=60 v=64
86960 Off ch=1 n=55 v=64
86960 Off ch=1 n=63 v=64
87357 On ch=1 n=55 v=56
87362 On ch=1 n=60 v=56
87362 On ch=1 n=63 v=60
87425 Off ch=1 n=60 v=64
87432 Off ch=1 n=63 v=64
87437 Off ch=1 n=55 v=64
87840 On ch=1 n=36 v=50
87840 On ch=1 n=48 v=40
88317 On ch=1 n=60 v=52
88317 On ch=1 n=55 v=52
88320 Off ch=1 n=48 v=64
88320 Off ch=1 n=36 v=64
88320 On ch=1 n=63 v=59
88402 Off ch=1 n=63 v=64
88410 Off ch=1 n=55 v=64
88417 Off ch=1 n=60 v=64
88805 On ch=1 n=55 v=56
88805 On ch=1 n=60 v=64
88805 On ch=1 n=63 v=60
88875 Off ch=1 n=63 v=64
88885 Off ch=1 n=60 v=64
88900 Off ch=1 n=55 v=64
89280 On ch=1 n=31 v=50
89280 On ch=1 n=43 v=48
89730 Off ch=1 n=43 v=64
89730 Off ch=1 n=31 v=64
89757 On ch=1 n=63 v=56
89757 On ch=1 n=55 v=52
89757 On ch=1 n=60 v=56
89840 Off ch=1 n=60 v=64
89840 Off ch=1 n=55 v=64
89840 Off ch=1 n=63 v=64
90237 On ch=1 n=55 v=56
90242 On ch=1 n=60 v=56
90242 On ch=1 n=63 v=60
90305 Off ch=1 n=60 v=64
90312 Off ch=1 n=63 v=64
90317 Off ch=1 n=55 v=64
90720 On ch=1 n=41 v=50
90720 On ch=1 n=53 v=40
91197 On ch=1 n=60 v=52
91197 On ch=1 n=56 v=52
91200 Off ch=1 n=53 v=64
91200 Off ch=1 n=41 v=64
91200 On ch=1 n=65 v=59
91282 Off ch=1 n=65 v=64
91290 Off ch=1 n=56 v=64
91297 Off ch=1 n=60 v=64
91685 On ch=1 n=56 v=56
91685 On ch=1 n=60 v=64
91685 On ch=1 n=65 v=60
91755 Off ch=1 n=65 v=64
91765 Off ch=1 n=60 v=64
91780 Off ch=1 n=56 v=64
92160 On ch=1 n=41 v=50
92160 On ch=1 n=53 v=48
92610 Off ch=1 n=53 v=64
92610 Off ch=1 n=41 v=64
92637 On ch=1 n=65 v=56
92637 On ch=1 n=56 v=52
92637 On ch=1 n=60 v=56
92720 Off ch=1 n=60 v=64
92720 Off ch=1 n=56 v=64
92720 Off ch=1 n=65 v=64
93117 On ch=1 n=56 v=56
93122 On ch=1 n=60 v=56
93122 On ch=1 n=65 v=60
93185 Off ch=1 n=60 v=64
93192 Off ch=1 n=65 v=64
93197 Off ch=1 n=56 v=64
93600 On ch=1 n=34 v=50
93600 On ch=1 n=46 v=40
94077 On ch=1 n=62 v=52
94077 On ch=1 n=56 v=52
94080 Off ch=1 n=46 v=64
94080 Off ch=1 n=34 v=64
94080 On ch=1 n=65 v=59
94162 Off ch=1 n=65 v=64
94170 Off ch=1 n=56 v=64
94177 Off ch=1 n=62 v=64
94565 On ch=1 n=56 v=56
94565 On ch=1 n=62 v=64
94565 On ch=1 n=65 v=60
94635 Off ch=1 n=65 v=64
94645 Off ch=1 n=62 v=64
94660 Off ch=1 n=56 v=64
95040 On ch=1 n=34 v=50
95040 On ch=1 n=46 v=48
95490 Off ch=1 n=46 v=64
95490 Off ch=1 n=34 v=64
95517 On ch=1 n=65 v=56
95517 On ch=1 n=56 v=52
95517 On ch=1 n=62 v=56
95600 Off ch=1 n=62 v=64
95600 Off ch=1 n=56 v=64
95600 Off ch=1 n=65 v=64
95997 On ch=1 n=56 v=56
96002 On ch=1 n=62 v=56
96002 On ch=1 n=65 v=60
96065 Off ch=1 n=62 v=64
96072 Off ch=1 n=65 v=64
96077 Off ch=1 n=56 v=64
96480 On ch=1 n=39 v=50
96480 On ch=1 n=51 v=40
96957 On ch=1 n=58 v=52
96957 On ch=1 n=55 v=52
96960 Off ch=1 n=51 v=64
96960 Off ch=1 n=39 v=64
96960 On ch=1 n=63 v=59
97042 Off ch=1 n=63 v=64
97050 Off ch=1 n=55 v=64
97057 Off ch=1 n=58 v=64
97445 On ch=1 n=55 v=56
97445 On ch=1 n=58 v=64
97445 On ch=1 n=63 v=60
97515 Off ch=1 n=63 v=64
97525 Off ch=1 n=58 v=64
97540 Off ch=1 n=55 v=64
97920 On ch=1 n=44 v=39
98370 Off ch=1 n=44 v=64
98397 On ch=1 n=63 v=47
98397 On ch=1 n=60 v=43
98480 Off ch=1 n=60 v=64
98480 Off ch=1 n=63 v=64
98877 On ch=1 n=60 v=47
98882 On ch=1 n=62 v=47
98882 On ch=1 n=65 v=51
98945 Off ch=1 n=62 v=64
98952 Off ch=1 n=65 v=64
98957 Off ch=1 n=60 v=64
99360 On ch=1 n=43 v=31
99837 On ch=1 n=63 v=43
99837 On ch=1 n=60 v=43
99840 Off ch=1 n=43 v=64
99840 On ch=1 n=67 v=50
99922 Off ch=1 n=67 v=64
99930 Off ch=1 n=60 v=64
99937 Off ch=1 n=63 v=64
100325 On ch=1 n=60 v=47
100325 On ch=1 n=63 v=55
100325 On ch=1 n=67 v=51
100395 Off ch=1 n=67 v=64
100405 Off ch=1 n=63 v=64
100420 Off ch=1 n=60 v=64
100800 On ch=1 n=44 v=39
101250 Off ch=1 n=44 v=64
101277 On ch=1 n=65 v=47
101277 On ch=1 n=60 v=43
101277 On ch=1 n=62 v=47
101360 Off ch=1 n=62 v=64
101360 Off ch=1 n=60 v=64
101360 Off ch=1 n=65 v=64
101757 On ch=1 n=60 v=47
101762 On ch=1 n=62 v=47
101762 On ch=1 n=65 v=51
101825 Off ch=1 n=62 v=64
101832 Off ch=1 n=65 v=64
101837 Off ch=1 n=60 v=64
102240 On ch=1 n=43 v=31
102717 On ch=1 n=63 v=43
102717 On ch=1 n=60 v=43
102720 Off ch=1 n=43 v=64
102720 On ch=1 n=67 v=50
102802 Off ch=1 n=67 v=64
102810 Off ch=1 n=60 v=64
102817 Off ch=1 n=63 v=64
103205 On ch=1 n=60 v=47
103205 On ch=1 n=63 v=55
103205 On ch=1 n=67 v=51
103275 Off ch=1 n=67 v=64
103285 Off ch=1 n=63 v=64
103300 Off ch=1 n=60 v=64
103680 On ch=1 n=44 v=39
104130 Off ch=1 n=44 v=64
104157 On ch=1 n=63 v=47
104157 On ch=1 n=60 v=43
104240 Off ch=1 n=60 v=64
104240 Off ch=1 n=63 v=64
104637 On ch=1 n=60 v=47
104642 On ch=1 n=62 v=47
104642 On ch=1 n=65 v=51
104705 Off ch=1 n=62 v=64
104712 Off ch=1 n=65 v=64
104717 Off ch=1 n=60 v=64
105120 On ch=1 n=43 v=31
105597 On ch=1 n=63 v=43
105597 On ch=1 n=60 v=43
105600 Off ch=1 n=43 v=64
105600 On ch=1 n=67 v=50
105682 Off ch=1 n=67 v=64
105690 Off ch=1 n=60 v=64
105697 Off ch=1 n=63 v=64
106085 On ch=1 n=60 v=47
106085 On ch=1 n=63 v=55
106085 On ch=1 n=67 v=51
106155 Off ch=1 n=67 v=64
106165 Off ch=1 n=63 v=64
106180 Off ch=1 n=60 v=64
106560 On ch=1 n=44 v=39
107010 Off ch=1 n=44 v=64
107037 On ch=1 n=65 v=47
107037 On ch=1 n=60 v=43
107037 On ch=1 n=62 v=47
107120 Off ch=1 n=62 v=64
107120 Off ch=1 n=60 v=64
107120 Off ch=1 n=65 v=64
107517 On ch=1 n=60 v=47
107522 On ch=1 n=62 v=47
107522 On ch=1 n=65 v=51
107585 Off ch=1 n=62 v=64
107592 Off ch=1 n=65 v=64
107597 Off ch=1 n=60 v=64
108000 On ch=1 n=43 v=31
108477 On ch=1 n=63 v=43
108477 On ch=1 n=60 v=43
108480 Off ch=1 n=43 v=64
108480 On ch=1 n=67 v=50
108562 Off ch=1 n=67 v=64
108570 Off ch=1 n=60 v=64
108577 Off ch=1 n=63 v=64
108965 On ch=1 n=60 v=47
108965 On ch=1 n=63 v=55
108965 On ch=1 n=67 v=51
109035 Off ch=1 n=67 v=64
109045 Off ch=1 n=63 v=64
109060 Off ch=1 n=60 v=64
109440 On ch=1 n=44 v=39
109890 Off ch=1 n=44 v=64
109917 On ch=1 n=63 v=47
109917 On ch=1 n=60 v=43
110000 Off ch=1 n=60 v=64
110000 Off ch=1 n=63 v=64
110397 On ch=1 n=60 v=47
110402 On ch=1 n=62 v=47
110402 On ch=1 n=65 v=51
110465 Off ch=1 n=62 v=64
110472 Off ch=1 n=65 v=64
110477 Off ch=1 n=60 v=64
110880 On ch=1 n=31 v=31
111357 On ch=1 n=63 v=43
111357 On ch=1 n=60 v=43
111360 Off ch=1 n=31 v=64
111360 On ch=1 n=67 v=50
111442 Off ch=1 n=67 v=64
111450 Off ch=1 n=60 v=64
111457 Off ch=1 n=63 v=64
111845 On ch=1 n=60 v=47
111845 On ch=1 n=63 v=55
111845 On ch=1 n=67 v=51
111915 Off ch=1 n=67 v=64
111925 Off ch=1 n=63 v=64
111940 Off ch=1 n=60 v=64
112320 On ch=1 n=43 v=39
112770 Off ch=1 n=43 v=64
112797 On ch=1 n=65 v=47
112797 On ch=1 n=59 v=43
112797 On ch=1 n=62 v=47
112880 Off ch=1 n=62 v=64
112880 Off ch=1 n=59 v=64
112880 Off ch=1 n=65 v=64
113277 On ch=1 n=59 v=47
113282 On ch=1 n=62 v=47
113282 On ch=1 n=65 v=51
113345 Off ch=1 n=62 v=64
113352 Off ch=1 n=65 v=64
113357 Off ch=1 n=59 v=64
113760 On ch=1 n=43 v=31
114237 On ch=1 n=63 v=43
114237 On ch=1 n=60 v=43
114240 Off ch=1 n=43 v=64
114240 On ch=1 n=67 v=50
114322 Off ch=1 n=67 v=64
114330 Off ch=1 n=60 v=64
114337 Off ch=1 n=63 v=64
114725 On ch=1 n=60 v=47
114725 On ch=1 n=63 v=55
114725 On ch=1 n=67 v=51
114795 Off ch=1 n=67 v=64
114805 Off ch=1 n=63 v=64
114820 Off ch=1 n=60 v=64
115205 On ch=1 n=60 v=47
115205 On ch=1 n=63 v=55
115205 On ch=1 n=67 v=54
115275 Off ch=1 n=67 v=64
115285 Off ch=1 n=63 v=64
115300 Off ch=1 n=60 v=64
116640 On ch=1 n=39 v=59
116640 On ch=1 n=51 v=49
117117 On ch=1 n=58 v=61
117117 On ch=1 n=55 v=61
117120 Off ch=1 n=51 v=64
117120 Off ch=1 n=39 v=64
117120 On ch=1 n=63 v=68
117202 Off ch=1 n=63 v=64
117210 Off ch=1 n=55 v=64
117217 Off ch=1 n=58 v=64
117605 On ch=1 n=55 v=65
117605 On ch=1 n=58 v=73
117605 On ch=1 n=63 v=69
117675 Off ch=1 n=63 v=64
117685 Off ch=1 n=58 v=64
117700 Off ch=1 n=55 v=64
118080 On ch=1 n=34 v=59
118080 On ch=1 n=46 v=57
118530 Off ch=1 n=46 v=64
118530 Off ch=1 n=34 v=64
118557 On ch=1 n=63 v=65
118557 On ch=1 n=55 v=61
118557 On ch=1 n=58 v=65
118640 Off ch=1 n=58 v=64
118640 Off ch=1 n=55 v=64
118640 Off ch=1 n=63 v=64
119037 On ch=1 n=55 v=65
119042 On ch=1 n=58 v=65
119042 On ch=1 n=63 v=69
119105 Off ch=1 n=58 v=64
119112 Off ch=1 n=63 v=64
119117 Off ch=1 n=55 v=64
119520 On ch=1 n=39 v=59
119520 On ch=1 n=51 v=49
119997 On ch=1 n=58 v=61
119997 On ch=1 n=55 v=61
120000 Off ch=1 n=51 v=64
120000 Off ch=1 n=39 v=64
120000 On ch=1 n=63 v=68
120082 Off ch=1 n=63 v=64
120090 Off ch=1 n=55 v=64
120097 Off ch=1 n=58 v=64
120485 On ch=1 n=55 v=65
120485 On ch=1 n=58 v=73
120485 On ch=1 n=63 v=69
120555 Off ch=1 n=63 v=64
120565 Off ch=1 n=58 v=64
120580 Off ch=1 n=55 v=64
120960 On ch=1 n=34 v=59
120960 On ch=1 n=46 v=57
121410 Off ch=1 n=46 v=64
121410 Off ch=1 n=34 v=64
121437 On ch=1 n=63 v=65
121437 On ch=1 n=55 v=61
121437 On ch=1 n=58 v=65
121520 Off ch=1 n=58 v=64
121520 Off ch=1 n=55 v=64
121520 Off ch=1 n=63 v=64
121917 On ch=1 n=55 v=65
121922 On ch=1 n=58 v=65
121922 On ch=1 n=63 v=69
121985 Off ch=1 n=58 v=64
121992 Off ch=1 n=63 v=64
121997 Off ch=1 n=55 v=64
122400 On ch=1 n=41 v=59
122400 On ch=1 n=53 v=49
122877 On ch=1 n=62 v=61
122877 On ch=1 n=56 v=61
122880 Off ch=1 n=53 v=64
122880 Off ch=1 n=41 v=64
122880 On ch=1 n=65 v=68
122962 Off ch=1 n=65 v=64
122970 Off ch=1 n=56 v=64
122977 Off ch=1 n=62 v=64
123365 On ch=1 n=56 v=65
123365 On ch=1 n=62 v=73
123365 On ch=1 n=65 v=69
123435 Off ch=1 n=65 v=64
123445 Off ch=1 n=62 v=64
123460 Off ch=1 n=56 v=64
123840 On ch=1 n=34 v=59
123840 On ch=1 n=46 v=57
124290 Off ch=1 n=46 v=64
124290 Off ch=1 n=34 v=64
124317 On ch=1 n=65 v=65
124317 On ch=1 n=56 v=61
124317 On ch=1 n=62 v=65
124400 Off ch=1 n=62 v=64
124400 Off ch=1 n=56 v=64
124400 Off ch=1 n=65 v=64
124797 On ch=1 n=56 v=65
124802 On ch=1 n=62 v=65
124802 On ch=1 n=65 v=69
124865 Off ch=1 n=62 v=64
124872 Off ch=1 n=65 v=64
124877 Off ch=1 n=56 v=64
125280 On ch=1 n=39 v=59
125280 On ch=1 n=51 v=49
125757 On ch=1 n=58 v=61
125757 On ch=1 n=55 v=61
125760 Off ch=1 n=51 v=64
125760 Off ch=1 n=39 v=64
125760 On ch=1 n=63 v=68
125842 Off ch=1 n=63 v=64
125850 Off ch=1 n=55 v=64
125857 Off ch=1 n=58 v=64
126245 On ch=1 n=55 v=65
126245 On ch=1 n=58 v=73
126245 On ch=1 n=63 v=69
126315 Off ch=1 n=63 v=64
126325 Off ch=1 n=58 v=64
126340 Off ch=1 n=55 v=64
126720 On ch=1 n=34 v=59
126720 On ch=1 n=46 v=57
127170 Off ch=1 n=46 v=64
127170 Off ch=1 n=34 v=64
127197 On ch=1 n=63 v=65
127197 On ch=1 n=55 v=61
127197 On ch=1 n=58 v=65
127280 Off ch=1 n=58 v=64
127280 Off ch=1 n=55 v=64
127280 Off ch=1 n=63 v=64
127677 On ch=1 n=55 v=65
127682 On ch=1 n=58 v=65
127682 On ch=1 n=63 v=69
127745 Off ch=1 n=58 v=64
127752 Off ch=1 n=63 v=64
127757 Off ch=1 n=55 v=64
128160 On ch=1 n=36 v=59
128160 On ch=1 n=48 v=49
128637 On ch=1 n=58 v=61
128637 On ch=1 n=55 v=61
128640 Off ch=1 n=48 v=64
128640 Off ch=1 n=36 v=64
128640 On ch=1 n=64 v=68
128722 Off ch=1 n=64 v=64
128730 Off ch=1 n=55 v=64
128737 Off ch=1 n=58 v=64
129125 On ch=1 n=55 v=65
129125 On ch=1 n=58 v=73
129125 On ch=1 n=64 v=69
129195 Off ch=1 n=64 v=64
129205 Off ch=1 n=58 v=64
129220 Off ch=1 n=55 v=64
129600 On ch=1 n=36 v=59
129600 On ch=1 n=48 v=57
130050 Off ch=1 n=48 v=64
130050 Off ch=1 n=36 v=64
130077 On ch=1 n=64 v=65
130077 On ch=1 n=55 v=61
130077 On ch=1 n=58 v=65
130160 Off ch=1 n=58 v=64
130160 Off ch=1 n=55 v=64
130160 Off ch=1 n=64 v=64
130557 On ch=1 n=55 v=65
130562 On ch=1 n=58 v=65
130562 On ch=1 n=64 v=69
130625 Off ch=1 n=58 v=64
130632 Off ch=1 n=64 v=64
130637 Off ch=1 n=55 v=64
131040 On ch=1 n=41 v=59
131040 On ch=1 n=53 v=49
131517 On ch=1 n=60 v=61
131517 On ch=1 n=56 v=61
131520 Off ch=1 n=53 v=64
131520 Off ch=1 n=41 v=64
131520 On ch=1 n=65 v=68
131602 Off ch=1 n=65 v=64
131610 Off ch=1 n=56 v=64
131617 Off ch=1 n=60 v=64
132005 On ch=1 n=56 v=65
132005 On ch=1 n=59 v=73
132005 On ch=1 n=65 v=69
132075 Off ch=1 n=65 v=64
132085 Off ch=1 n=59 v=64
132100 Off ch=1 n=56 v=64
132480 On ch=1 n=32 v=59
132480 On ch=1 n=44 v=57
132930 Off ch=1 n=44 v=64
132930 Off ch=1 n=32 v=64
132957 On ch=1 n=63 v=65
132957 On ch=1 n=56 v=61
132957 On ch=1 n=59 v=65
133040 Off ch=1 n=59 v=64
133040 Off ch=1 n=56 v=64
133040 Off ch=1 n=63 v=64
133437 On ch=1 n=56 v=65
133442 On ch=1 n=59 v=65
133442 On ch=1 n=65 v=69
133505 Off ch=1 n=59 v=64
133512 Off ch=1 n=65 v=64
133517 Off ch=1 n=56 v=64
133920 On ch=1 n=39 v=59
133920 On ch=1 n=51 v=49
134397 On ch=1 n=58 v=61
134397 On ch=1 n=55 v=61
134400 Off ch=1 n=51 v=64
134400 Off ch=1 n=39 v=64
134400 On ch=1 n=63 v=68
134482 Off ch=1 n=63 v=64
134490 Off ch=1 n=55 v=64
134497 Off ch=1 n=58 v=64
134885 On ch=1 n=55 v=65
134885 On ch=1 n=58 v=73
134885 On ch=1 n=63 v=69
134955 Off ch=1 n=63 v=64
134965 Off ch=1 n=58 v=64
134980 Off ch=1 n=55 v=64
135360 On ch=1 n=34 v=59
135360 On ch=1 n=46 v=57
135810 Off ch=1 n=46 v=64
135810 Off ch=1 n=34 v=64
135837 On ch=1 n=65 v=65
135837 On ch=1 n=56 v=61
135837 On ch=1 n=62 v=65
135920 Off ch=1 n=62 v=64
135920 Off ch=1 n=56 v=64
135920 Off ch=1 n=65 v=64
136317 On ch=1 n=56 v=65
136322 On ch=1 n=62 v=65
136322 On ch=1 n=65 v=69
136385 Off ch=1 n=62 v=64
136392 Off ch=1 n=65 v=64
136397 Off ch=1 n=56 v=64
136800 On ch=1 n=39 v=59
136800 On ch=1 n=51 v=49
137277 On ch=1 n=58 v=61
137277 On ch=1 n=55 v=61
137280 Off ch=1 n=51 v=64
137280 Off ch=1 n=39 v=64
137280 On ch=1 n=63 v=68
137362 Off ch=1 n=63 v=64
137370 Off ch=1 n=55 v=64
137377 Off ch=1 n=58 v=64
137765 On ch=1 n=55 v=65
137765 On ch=1 n=58 v=73
137765 On ch=1 n=63 v=69
137835 Off ch=1 n=63 v=64
137845 Off ch=1 n=58 v=64
137860 Off ch=1 n=55 v=64
138240 On ch=1 n=34 v=59
138240 On ch=1 n=46 v=57
138717 On ch=1 n=63 v=65
138717 On ch=1 n=55 v=61
138717 On ch=1 n=58 v=65
138800 Off ch=1 n=58 v=64
138800 Off ch=1 n=55 v=64
138800 Off ch=1 n=63 v=64
139197 On ch=1 n=55 v=65
139202 On ch=1 n=58 v=65
139202 On ch=1 n=63 v=69
139490 Off ch=1 n=46 v=64
139490 Off ch=1 n=34 v=64
139627 Off ch=1 n=55 v=64
139640 Off ch=1 n=58 v=64
139647 Off ch=1 n=63 v=64
139680 On ch=1 n=39 v=59
139680 On ch=1 n=51 v=49
140157 On ch=1 n=58 v=61
140157 On ch=1 n=55 v=61
140160 Off ch=1 n=51 v=64
140160 Off ch=1 n=39 v=64
140160 On ch=1 n=63 v=68
140242 Off ch=1 n=63 v=64
140250 Off ch=1 n=55 v=64
140257 Off ch=1 n=58 v=64
140645 On ch=1 n=55 v=65
140645 On ch=1 n=58 v=73
140645 On ch=1 n=63 v=69
140715 Off ch=1 n=63 v=64
140725 Off ch=1 n=58 v=64
140740 Off ch=1 n=55 v=64
141120 On ch=1 n=34 v=59
141120 On ch=1 n=46 v=57
141570 Off ch=1 n=46 v=64
141570 Off ch=1 n=34 v=64
141597 On ch=1 n=63 v=65
141597 On ch=1 n=55 v=61
141597 On ch=1 n=58 v=65
141680 Off ch=1 n=58 v=64
141680 Off ch=1 n=55 v=64
141680 Off ch=1 n=63 v=64
142077 On ch=1 n=55 v=65
142082 On ch=1 n=58 v=65
142082 On ch=1 n=63 v=69
142145 Off ch=1 n=58 v=64
142152 Off ch=1 n=63 v=64
142157 Off ch=1 n=55 v=64
142560 On ch=1 n=39 v=59
142560 On ch=1 n=51 v=49
143037 On ch=1 n=58 v=61
143037 On ch=1 n=55 v=61
143040 Off ch=1 n=51 v=64
143040 Off ch=1 n=39 v=64
143040 On ch=1 n=63 v=68
143122 Off ch=1 n=63 v=64
143130 Off ch=1 n=55 v=64
143137 Off ch=1 n=58 v=64
143525 On ch=1 n=55 v=65
143525 On ch=1 n=58 v=73
143525 On ch=1 n=63 v=69
143595 Off ch=1 n=63 v=64
143605 Off ch=1 n=58 v=64
143620 Off ch=1 n=55 v=64
144000 On ch=1 n=34 v=59
144000 On ch=1 n=46 v=57
144450 Off ch=1 n=46 v=64
144450 Off ch=1 n=34 v=64
144477 On ch=1 n=63 v=65
144477 On ch=1 n=55 v=61
144477 On ch=1 n=58 v=65
144560 Off ch=1 n=58 v=64
144560 Off ch=1 n=55 v=64
144560 Off ch=1 n=63 v=64
144957 On ch=1 n=55 v=65
144962 On ch=1 n=58 v=65
144962 On ch=1 n=63 v=69
145025 Off ch=1 n=58 v=64
145032 Off ch=1 n=63 v=64
145037 Off ch=1 n=55 v=64
145440 On ch=1 n=41 v=59
145440 On ch=1 n=53 v=49
145917 On ch=1 n=62 v=61
145917 On ch=1 n=56 v=61
145920 Off ch=1 n=53 v=64
145920 Off ch=1 n=41 v=64
145920 On ch=1 n=65 v=68
146002 Off ch=1 n=65 v=64
146010 Off ch=1 n=56 v=64
146017 Off ch=1 n=62 v=64
146405 On ch=1 n=56 v=65
146405 On ch=1 n=62 v=73
146405 On ch=1 n=65 v=69
146475 Off ch=1 n=65 v=64
146485 Off ch=1 n=62 v=64
146500 Off ch=1 n=56 v=64
146880 On ch=1 n=34 v=59
146880 On ch=1 n=46 v=57
147330 Off ch=1 n=46 v=64
147330 Off ch=1 n=34 v=64
147357 On ch=1 n=65 v=65
147357 On ch=1 n=56 v=61
147357 On ch=1 n=62 v=65
147440 Off ch=1 n=62 v=64
147440 Off ch=1 n=56 v=64
147440 Off ch=1 n=65 v=64
147837 On ch=1 n=56 v=65
147842 On ch=1 n=62 v=65
147842 On ch=1 n=65 v=69
147905 Off ch=1 n=62 v=64
147912 Off ch=1 n=65 v=64
147917 Off ch=1 n=56 v=64
148320 On ch=1 n=39 v=59
148320 On ch=1 n=51 v=49
148797 On ch=1 n=58 v=61
148797 On ch=1 n=55 v=61
148800 Off ch=1 n=51 v=64
148800 Off ch=1 n=39 v=64
148800 On ch=1 n=63 v=68
148882 Off ch=1 n=63 v=64
148890 Off ch=1 n=55 v=64
148897 Off ch=1 n=58 v=64
149285 On ch=1 n=55 v=65
149285 On ch=1 n=58 v=73
149285 On ch=1 n=63 v=69
149355 Off ch=1 n=63 v=64
149365 Off ch=1 n=58 v=64
149380 Off ch=1 n=55 v=64
149760 On ch=1 n=34 v=59
149760 On ch=1 n=46 v=57
150210 Off ch=1 n=46 v=64
150210 Off ch=1 n=34 v=64
150237 On ch=1 n=63 v=65
150237 On ch=1 n=55 v=61
150237 On ch=1 n=58 v=65
150320 Off ch=1 n=58 v=64
150320 Off ch=1 n=55 v=64
150320 Off ch=1 n=63 v=64
150717 On ch=1 n=55 v=65
150722 On ch=1 n=58 v=65
150722 On ch=1 n=63 v=69
150785 Off ch=1 n=58 v=64
150792 Off ch=1 n=63 v=64
150797 Off ch=1 n=55 v=64
151200 On ch=1 n=39 v=59
151200 On ch=1 n=51 v=49
151677 On ch=1 n=58 v=61
151677 On ch=1 n=55 v=61
151680 Off ch=1 n=51 v=64
151680 Off ch=1 n=39 v=64
151680 On ch=1 n=63 v=68
151762 Off ch=1 n=63 v=64
151770 Off ch=1 n=55 v=64
151777 Off ch=1 n=58 v=64
152165 On ch=1 n=55 v=65
152165 On ch=1 n=58 v=73
152165 On ch=1 n=63 v=69
152235 Off ch=1 n=63 v=64
152245 Off ch=1 n=58 v=64
152260 Off ch=1 n=55 v=64
152640 On ch=1 n=37 v=59
152640 On ch=1 n=49 v=57
153090 Off ch=1 n=49 v=64
153090 Off ch=1 n=37 v=64
153117 On ch=1 n=63 v=65
153117 On ch=1 n=61 v=65
153117 On ch=1 n=55 v=61
153117 On ch=1 n=58 v=65
153200 Off ch=1 n=58 v=64
153200 Off ch=1 n=55 v=64
153200 Off ch=1 n=61 v=64
153200 Off ch=1 n=63 v=64
153597 On ch=1 n=55 v=65
153602 On ch=1 n=63 v=69
153602 On ch=1 n=58 v=65
153602 On ch=1 n=61 v=69
153665 Off ch=1 n=58 v=64
153672 Off ch=1 n=63 v=64
153672 Off ch=1 n=61 v=64
153677 Off ch=1 n=55 v=64
154080 On ch=1 n=36 v=59
154080 On ch=1 n=48 v=49
154557 On ch=1 n=60 v=61
154557 On ch=1 n=56 v=61
154560 Off ch=1 n=48 v=64
154560 Off ch=1 n=36 v=64
154560 On ch=1 n=63 v=68
154642 Off ch=1 n=63 v=64
154650 Off ch=1 n=56 v=64
154657 Off ch=1 n=60 v=64
155045 On ch=1 n=56 v=65
155045 On ch=1 n=59 v=73
155045 On ch=1 n=63 v=69
155115 Off ch=1 n=63 v=64
155125 Off ch=1 n=59 v=64
155140 Off ch=1 n=56 v=64
155520 On ch=1 n=35 v=59
155520 On ch=1 n=47 v=57
155970 Off ch=1 n=47 v=64
155970 Off ch=1 n=35 v=64
155997 On ch=1 n=63 v=65
155997 On ch=1 n=59 v=61
155997 On ch=1 n=56 v=65
156080 Off ch=1 n=56 v=64
156080 Off ch=1 n=59 v=64
156080 Off ch=1 n=63 v=64
156477 On ch=1 n=59 v=65
156482 On ch=1 n=56 v=65
156482 On ch=1 n=65 v=69
156545 Off ch=1 n=56 v=64
156552 Off ch=1 n=65 v=64
156557 Off ch=1 n=59 v=64
156960 On ch=1 n=34 v=59
156960 On ch=1 n=46 v=49
157437 On ch=1 n=58 v=61
157437 On ch=1 n=55 v=61
157440 Off ch=1 n=46 v=64
157440 Off ch=1 n=34 v=64
157440 On ch=1 n=63 v=68
157522 Off ch=1 n=63 v=64
157530 Off ch=1 n=55 v=64
157537 Off ch=1 n=58 v=64
157925 On ch=1 n=55 v=65
157925 On ch=1 n=58 v=73
157925 On ch=1 n=63 v=69
157995 Off ch=1 n=63 v=64
158005 Off ch=1 n=58 v=64
158020 Off ch=1 n=55 v=64
158400 On ch=1 n=34 v=59
158400 On ch=1 n=46 v=57
158850 Off ch=1 n=46 v=64
158850 Off ch=1 n=34 v=64
158877 On ch=1 n=65 v=65
158877 On ch=1 n=56 v=61
158877 On ch=1 n=62 v=65
158960 Off ch=1 n=62 v=64
158960 Off ch=1 n=56 v=64
158960 Off ch=1 n=65 v=64
159357 On ch=1 n=56 v=65
159362 On ch=1 n=62 v=65
159362 On ch=1 n=65 v=69
159425 Off ch=1 n=62 v=64
159432 Off ch=1 n=65 v=64
159437 Off ch=1 n=56 v=64
159840 On ch=1 n=39 v=59
159840 On ch=1 n=51 v=49
160317 On ch=1 n=58 v=61
160317 On ch=1 n=55 v=61
160320 On ch=1 n=63 v=68
160402 Off ch=1 n=63 v=64
160410 Off ch=1 n=55 v=64
160417 Off ch=1 n=58 v=64
160745 Off ch=1 n=39 v=64
160795 Off ch=1 n=51 v=64
160805 On ch=1 n=55 v=65
160805 On ch=1 n=58 v=73
160805 On ch=1 n=63 v=69
160875 Off ch=1 n=63 v=64
160885 Off ch=1 n=58 v=64
160900 Off ch=1 n=55 v=64
161277 On ch=1 n=58 v=61
161277 On ch=1 n=55 v=61
161280 On ch=1 n=61 v=68
161280 On ch=1 n=63 v=68
161280 On ch=1 n=39 v=59
161280 On ch=1 n=51 v=57
162530 Off ch=1 n=51 v=64
162530 Off ch=1 n=39 v=64
162652 Off ch=1 n=55 v=64
162652 Off ch=1 n=58 v=64
162655 Off ch=1 n=61 v=64
162655 Off ch=1 n=63 v=64
162720 On ch=1 n=44 v=49
162720 On ch=1 n=32 v=59
163197 On ch=1 n=63 v=61
163197 On ch=1 n=60 v=61
163200 Off ch=1 n=32 v=64
163200 Off ch=1 n=44 v=64
163200 On ch=1 n=68 v=68
163282 Off ch=1 n=68 v=64
163290 Off ch=1 n=60 v=64
163297 Off ch=1 n=63 v=64
163685 On ch=1 n=60 v=65
163685 On ch=1 n=63 v=73
163685 On ch=1 n=68 v=69
163755 Off ch=1 n=68 v=64
163765 Off ch=1 n=63 v=64
163780 Off ch=1 n=60 v=64
164160 On ch=1 n=51 v=57
164160 On ch=1 n=39 v=59
164610 Off ch=1 n=39 v=64
164610 Off ch=1 n=51 v=64
164637 On ch=1 n=68 v=65
164637 On ch=1 n=60 v=61
164637 On ch=1 n=63 v=65
164720 Off ch=1 n=63 v=64
164720 Off ch=1 n=60 v=64
164720 Off ch=1 n=68 v=64
165117 On ch=1 n=60 v=65
165122 On ch=1 n=63 v=65
165122 On ch=1 n=68 v=69
165185 Off ch=1 n=63 v=64
165192 Off ch=1 n=68 v=64
165197 Off ch=1 n=60 v=64
165600 On ch=1 n=44 v=49
165600 On ch=1 n=32 v=59
166077 On ch=1 n=63 v=61
166077 On ch=1 n=60 v=61
166080 Off ch=1 n=32 v=64
166080 Off ch=1 n=44 v=64
166080 On ch=1 n=68 v=68
166162 Off ch=1 n=68 v=64
166170 Off ch=1 n=60 v=64
166177 Off ch=1 n=63 v=64
166565 On ch=1 n=60 v=65
166565 On ch=1 n=63 v=73
166565 On ch=1 n=68 v=69
166635 Off ch=1 n=68 v=64
166645 Off ch=1 n=63 v=64
166660 Off ch=1 n=60 v=64
167040 On ch=1 n=51 v=57
167040 On ch=1 n=39 v=59
167490 Off ch=1 n=39 v=64
167490 Off ch=1 n=51 v=64
167517 On ch=1 n=68 v=65
167517 On ch=1 n=60 v=61
167517 On ch=1 n=63 v=65
167600 Off ch=1 n=63 v=64
167600 Off ch=1 n=60 v=64
167600 Off ch=1 n=68 v=64
167997 On ch=1 n=60 v=65
168002 On ch=1 n=63 v=65
168002 On ch=1 n=68 v=69
168065 Off ch=1 n=63 v=64
168072 Off ch=1 n=68 v=64
168077 Off ch=1 n=60 v=64
168480 On ch=1 n=46 v=49
168480 On ch=1 n=34 v=59
168957 On ch=1 n=61 v=61
168957 On ch=1 n=58 v=61
168960 Off ch=1 n=34 v=64
168960 Off ch=1 n=46 v=64
168960 On ch=1 n=67 v=68
169042 Off ch=1 n=67 v=64
169050 Off ch=1 n=58 v=64
169057 Off ch=1 n=61 v=64
169445 On ch=1 n=58 v=65
169445 On ch=1 n=61 v=73
169445 On ch=1 n=67 v=69
169515 Off ch=1 n=67 v=64
169525 Off ch=1 n=61 v=64
169540 Off ch=1 n=58 v=64
169920 On ch=1 n=51 v=57
169920 On ch=1 n=39 v=59
170370 Off ch=1 n=39 v=64
170370 Off ch=1 n=51 v=64
170397 On ch=1 n=67 v=65
170397 On ch=1 n=58 v=61
170397 On ch=1 n=61 v=65
170480 Off ch=1 n=61 v=64
170480 Off ch=1 n=58 v=64
170480 Off ch=1 n=67 v=64
170877 On ch=1 n=58 v=65
170882 On ch=1 n=61 v=65
170882 On ch=1 n=67 v=69
170945 Off ch=1 n=61 v=64
170952 Off ch=1 n=67 v=64
170957 Off ch=1 n=58 v=64
171360 On ch=1 n=46 v=49
171360 On ch=1 n=34 v=59
171837 On ch=1 n=61 v=61
171837 On ch=1 n=58 v=61
171840 Off ch=1 n=34 v=64
171840 Off ch=1 n=46 v=64
171840 On ch=1 n=67 v=68
171922 Off ch=1 n=67 v=64
171930 Off ch=1 n=58 v=64
171937 Off ch=1 n=61 v=64
172325 On ch=1 n=58 v=65
172325 On ch=1 n=61 v=73
172325 On ch=1 n=67 v=69
172395 Off ch=1 n=67 v=64
172405 Off ch=1 n=61 v=64
172420 Off ch=1 n=58 v=64
172800 On ch=1 n=51 v=57
172800 On ch=1 n=39 v=59
173250 Off ch=1 n=39 v=64
173250 Off ch=1 n=51 v=64
173277 On ch=1 n=67 v=65
173277 On ch=1 n=58 v=61
173277 On ch=1 n=61 v=65
173360 Off ch=1 n=61 v=64
173360 Off ch=1 n=58 v=64
173360 Off ch=1 n=67 v=64
173757 On ch=1 n=58 v=65
173762 On ch=1 n=61 v=65
173762 On ch=1 n=67 v=69
173825 Off ch=1 n=61 v=64
173832 Off ch=1 n=67 v=64
173837 Off ch=1 n=58 v=64
174240 On ch=1 n=44 v=49
174240 On ch=1 n=32 v=59
174717 On ch=1 n=63 v=61
174717 On ch=1 n=60 v=61
174720 Off ch=1 n=32 v=64
174720 Off ch=1 n=44 v=64
174720 On ch=1 n=68 v=68
174802 Off ch=1 n=68 v=64
174810 Off ch=1 n=60 v=64
174817 Off ch=1 n=63 v=64
175205 On ch=1 n=60 v=65
175205 On ch=1 n=63 v=73
175205 On ch=1 n=68 v=69
175275 Off ch=1 n=68 v=64
175285 Off ch=1 n=63 v=64
175300 Off ch=1 n=60 v=64
175680 On ch=1 n=51 v=57
175680 On ch=1 n=39 v=59
176130 Off ch=1 n=39 v=64
176130 Off ch=1 n=51 v=64
176157 On ch=1 n=68 v=65
176157 On ch=1 n=60 v=61
176157 On ch=1 n=63 v=65
176240 Off ch=1 n=63 v=64
176240 Off ch=1 n=60 v=64
176240 Off ch=1 n=68 v=64
176637 On ch=1 n=60 v=65
176642 On ch=1 n=63 v=65
176642 On ch=1 n=68 v=69
176705 Off ch=1 n=63 v=64
176712 Off ch=1 n=68 v=64
176717 Off ch=1 n=60 v=64
177120 On ch=1 n=44 v=49
177120 On ch=1 n=32 v=59
177597 On ch=1 n=63 v=61
177597 On ch=1 n=60 v=61
177600 Off ch=1 n=32 v=64
177600 Off ch=1 n=44 v=64
177600 On ch=1 n=68 v=68
177682 Off ch=1 n=68 v=64
177690 Off ch=1 n=60 v=64
177697 Off ch=1 n=63 v=64
178085 On ch=1 n=60 v=65
178085 On ch=1 n=63 v=73
178085 On ch=1 n=68 v=69
178155 Off ch=1 n=68 v=64
178165 Off ch=1 n=63 v=64
178180 Off ch=1 n=60 v=64
178560 On ch=1 n=51 v=57
178560 On ch=1 n=39 v=59
179010 Off ch=1 n=39 v=64
179010 Off ch=1 n=51 v=64
179037 On ch=1 n=68 v=65
179037 On ch=1 n=60 v=61
179037 On ch=1 n=63 v=65
179120 Off ch=1 n=63 v=64
179120 Off ch=1 n=60 v=64
179120 Off ch=1 n=68 v=64
179517 On ch=1 n=60 v=65
179522 On ch=1 n=63 v=65
179522 On ch=1 n=68 v=69
179585 Off ch=1 n=63 v=64
179592 Off ch=1 n=68 v=64
179597 Off ch=1 n=60 v=64
180000 On ch=1 n=37 v=59
180000 On ch=1 n=49 v=49
180477 On ch=1 n=63 v=61
180477 On ch=1 n=61 v=61
180477 On ch=1 n=56 v=61
180480 Off ch=1 n=49 v=64
180480 Off ch=1 n=37 v=64
180480 On ch=1 n=65 v=68
180562 Off ch=1 n=65 v=64
180570 Off ch=1 n=56 v=64
180577 Off ch=1 n=63 v=64
180577 Off ch=1 n=61 v=64
180965 On ch=1 n=63 v=73
180965 On ch=1 n=56 v=65
180965 On ch=1 n=61 v=73
180965 On ch=1 n=65 v=69
181035 Off ch=1 n=65 v=64
181045 Off ch=1 n=61 v=64
181045 Off ch=1 n=63 v=64
181060 Off ch=1 n=56 v=64
181440 On ch=1 n=48 v=57
181440 On ch=1 n=36 v=59
181890 Off ch=1 n=36 v=64
181890 Off ch=1 n=48 v=64
181917 On ch=1 n=60 v=65
181917 On ch=1 n=65 v=65
181917 On ch=1 n=56 v=61
181917 On ch=1 n=63 v=65
182000 Off ch=1 n=63 v=64
182000 Off ch=1 n=56 v=64
182000 Off ch=1 n=65 v=64
182000 Off ch=1 n=60 v=64
182397 On ch=1 n=56 v=65
182402 On ch=1 n=60 v=65
182402 On ch=1 n=63 v=65
182402 On ch=1 n=65 v=69
182465 Off ch=1 n=63 v=64
182465 Off ch=1 n=60 v=64
182472 Off ch=1 n=65 v=64
182477 Off ch=1 n=56 v=64
182880 On ch=1 n=46 v=49
182880 On ch=1 n=34 v=59
183357 On ch=1 n=62 v=61
183357 On ch=1 n=56 v=61
183360 Off ch=1 n=34 v=64
183360 Off ch=1 n=46 v=64
183360 On ch=1 n=65 v=68
183442 Off ch=1 n=65 v=64
183450 Off ch=1 n=56 v=64
183457 Off ch=1 n=62 v=64
183845 On ch=1 n=56 v=65
183845 On ch=1 n=62 v=73
183845 On ch=1 n=65 v=69
183915 Off ch=1 n=65 v=64
183925 Off ch=1 n=62 v=64
183940 Off ch=1 n=56 v=64
184320 On ch=1 n=51 v=57
184320 On ch=1 n=39 v=59
184770 Off ch=1 n=39 v=64
184770 Off ch=1 n=51 v=64
184797 On ch=1 n=67 v=65
184797 On ch=1 n=58 v=61
184797 On ch=1 n=63 v=65
184880 Off ch=1 n=63 v=64
184880 Off ch=1 n=58 v=64
184880 Off ch=1 n=67 v=64
185277 On ch=1 n=58 v=65
185282 On ch=1 n=61 v=65
185282 On ch=1 n=67 v=69
185707 Off ch=1 n=58 v=64
185720 Off ch=1 n=61 v=64
185727 Off ch=1 n=67 v=64
185760 On ch=1 n=44 v=49
185760 On ch=1 n=32 v=59
186237 On ch=1 n=63 v=61
186237 On ch=1 n=60 v=61
186240 Off ch=1 n=32 v=64
186240 Off ch=1 n=44 v=64
186240 On ch=1 n=68 v=68
186322 Off ch=1 n=68 v=64
186330 Off ch=1 n=60 v=64
186337 Off ch=1 n=63 v=64
186725 On ch=1 n=60 v=65
186725 On ch=1 n=63 v=73
186725 On ch=1 n=68 v=69
186795 Off ch=1 n=68 v=64
186805 Off ch=1 n=63 v=64
186820 Off ch=1 n=60 v=64
187200 On ch=1 n=51 v=57
187200 On ch=1 n=39 v=59
187650 Off ch=1 n=39 v=64
187650 Off ch=1 n=51 v=64
187677 On ch=1 n=68 v=65
187677 On ch=1 n=60 v=61
187677 On ch=1 n=63 v=65
187760 Off ch=1 n=63 v=64
187760 Off ch=1 n=60 v=64
187760 Off ch=1 n=68 v=64
188157 On ch=1 n=60 v=65
188162 On ch=1 n=63 v=65
188162 On ch=1 n=68 v=69
188225 Off ch=1 n=63 v=64
188232 Off ch=1 n=68 v=64
188237 Off ch=1 n=60 v=64
188640 On ch=1 n=44 v=49
188640 On ch=1 n=32 v=59
189117 On ch=1 n=63 v=61
189117 On ch=1 n=60 v=61
189120 Off ch=1 n=32 v=64
189120 Off ch=1 n=44 v=64
189120 On ch=1 n=68 v=68
189202 Off ch=1 n=68 v=64
189210 Off ch=1 n=60 v=64
189217 Off ch=1 n=63 v=64
189605 On ch=1 n=60 v=65
189605 On ch=1 n=63 v=73
189605 On ch=1 n=68 v=69
189675 Off ch=1 n=68 v=64
189685 Off ch=1 n=63 v=64
189700 Off ch=1 n=60 v=64
190080 On ch=1 n=51 v=57
190080 On ch=1 n=39 v=59
190530 Off ch=1 n=39 v=64
190530 Off ch=1 n=51 v=64
190557 On ch=1 n=68 v=65
190557 On ch=1 n=60 v=61
190557 On ch=1 n=63 v=65
190640 Off ch=1 n=63 v=64
190640 Off ch=1 n=60 v=64
190640 Off ch=1 n=68 v=64
191037 On ch=1 n=60 v=65
191042 On ch=1 n=63 v=65
191042 On ch=1 n=68 v=69
191105 Off ch=1 n=63 v=64
191112 Off ch=1 n=68 v=64
191117 Off ch=1 n=60 v=64
191520 On ch=1 n=46 v=49
191520 On ch=1 n=34 v=59
191997 On ch=1 n=61 v=61
191997 On ch=1 n=58 v=61
192000 Off ch=1 n=34 v=64
192000 Off ch=1 n=46 v=64
192000 On ch=1 n=67 v=68
192082 Off ch=1 n=67 v=64
192090 Off ch=1 n=58 v=64
192097 Off ch=1 n=61 v=64
192485 On ch=1 n=58 v=65
192485 On ch=1 n=61 v=73
192485 On ch=1 n=67 v=69
192555 Off ch=1 n=67 v=64
192565 Off ch=1 n=61 v=64
192580 Off ch=1 n=58 v=64
192960 On ch=1 n=51 v=57
192960 On ch=1 n=39 v=59
193410 Off ch=1 n=39 v=64
193410 Off ch=1 n=51 v=64
193437 On ch=1 n=67 v=65
193437 On ch=1 n=58 v=61
193437 On ch=1 n=61 v=65
193520 Off ch=1 n=61 v=64
193520 Off ch=1 n=58 v=64
193520 Off ch=1 n=67 v=64
193917 On ch=1 n=58 v=65
193922 On ch=1 n=61 v=65
193922 On ch=1 n=67 v=69
193985 Off ch=1 n=61 v=64
193992 Off ch=1 n=67 v=64
193997 Off ch=1 n=58 v=64
194400 On ch=1 n=46 v=49
194400 On ch=1 n=34 v=59
194877 On ch=1 n=61 v=61
194877 On ch=1 n=58 v=61
194880 Off ch=1 n=34 v=64
194880 Off ch=1 n=46 v=64
194880 On ch=1 n=67 v=68
194962 Off ch=1 n=67 v=64
194970 Off ch=1 n=58 v=64
194977 Off ch=1 n=61 v=64
195365 On ch=1 n=58 v=65
195365 On ch=1 n=61 v=73
195365 On ch=1 n=67 v=69
195435 Off ch=1 n=67 v=64
195445 Off ch=1 n=61 v=64
195460 Off ch=1 n=58 v=64
195840 On ch=1 n=51 v=57
195840 On ch=1 n=39 v=59
196290 Off ch=1 n=39 v=64
196290 Off ch=1 n=51 v=64
196317 On ch=1 n=67 v=65
196317 On ch=1 n=58 v=61
196317 On ch=1 n=61 v=65
196400 Off ch=1 n=61 v=64
196400 Off ch=1 n=58 v=64
196400 Off ch=1 n=67 v=64
196797 On ch=1 n=58 v=65
196802 On ch=1 n=61 v=65
196802 On ch=1 n=67 v=69
196865 Off ch=1 n=61 v=64
196872 Off ch=1 n=67 v=64
196877 Off ch=1 n=58 v=64
197280 On ch=1 n=44 v=49
197280 On ch=1 n=32 v=59
197757 On ch=1 n=63 v=61
197757 On ch=1 n=60 v=61
197760 Off ch=1 n=32 v=64
197760 Off ch=1 n=44 v=64
197760 On ch=1 n=68 v=68
197842 Off ch=1 n=68 v=64
197850 Off ch=1 n=60 v=64
197857 Off ch=1 n=63 v=64
198245 On ch=1 n=60 v=65
198245 On ch=1 n=63 v=73
198245 On ch=1 n=68 v=69
198315 Off ch=1 n=68 v=64
198325 Off ch=1 n=63 v=64
198340 Off ch=1 n=60 v=64
198720 On ch=1 n=51 v=57
198720 On ch=1 n=39 v=59
199170 Off ch=1 n=39 v=64
199170 Off ch=1 n=51 v=64
199197 On ch=1 n=68 v=65
199197 On ch=1 n=60 v=61
199197 On ch=1 n=63 v=65
199280 Off ch=1 n=63 v=64
199280 Off ch=1 n=60 v=64
199280 Off ch=1 n=68 v=64
199677 On ch=1 n=60 v=65
199682 On ch=1 n=63 v=65
199682 On ch=1 n=68 v=69
199745 Off ch=1 n=63 v=64
199752 Off ch=1 n=68 v=64
199757 Off ch=1 n=60 v=64
200160 On ch=1 n=44 v=49
200160 On ch=1 n=32 v=59
200637 On ch=1 n=63 v=61
200637 On ch=1 n=60 v=61
200640 Off ch=1 n=32 v=64
200640 Off ch=1 n=44 v=64
200640 On ch=1 n=68 v=68
200722 Off ch=1 n=68 v=64
200730 Off ch=1 n=60 v=64
200737 Off ch=1 n=63 v=64
201125 On ch=1 n=60 v=65
201125 On ch=1 n=63 v=73
201125 On ch=1 n=68 v=69
201195 Off ch=1 n=68 v=64
201205 Off ch=1 n=63 v=64
201220 Off ch=1 n=60 v=64
201600 On ch=1 n=51 v=57
201600 On ch=1 n=39 v=59
202050 Off ch=1 n=39 v=64
202050 Off ch=1 n=51 v=64
202077 On ch=1 n=68 v=65
202077 On ch=1 n=60 v=61
202077 On ch=1 n=63 v=65
202160 Off ch=1 n=63 v=64
202160 Off ch=1 n=60 v=64
202160 Off ch=1 n=68 v=64
202557 On ch=1 n=60 v=65
202562 On ch=1 n=63 v=65
202562 On ch=1 n=68 v=69
202625 Off ch=1 n=63 v=64
202632 Off ch=1 n=68 v=64
202637 Off ch=1 n=60 v=64
203040 On ch=1 n=37 v=59
203040 On ch=1 n=49 v=49
203517 On ch=1 n=63 v=61
203517 On ch=1 n=61 v=61
203517 On ch=1 n=56 v=61
203520 Off ch=1 n=49 v=64
203520 Off ch=1 n=37 v=64
203520 On ch=1 n=65 v=68
203602 Off ch=1 n=65 v=64
203610 Off ch=1 n=56 v=64
203617 Off ch=1 n=63 v=64
203617 Off ch=1 n=61 v=64
204005 On ch=1 n=63 v=73
204005 On ch=1 n=56 v=65
204005 On ch=1 n=61 v=73
204005 On ch=1 n=65 v=69
204075 Off ch=1 n=65 v=64
204085 Off ch=1 n=61 v=64
204085 Off ch=1 n=63 v=64
204100 Off ch=1 n=56 v=64
204480 On ch=1 n=48 v=57
204480 On ch=1 n=36 v=59
204930 Off ch=1 n=36 v=64
204930 Off ch=1 n=48 v=64
204957 On ch=1 n=60 v=65
204957 On ch=1 n=65 v=65
204957 On ch=1 n=56 v=61
204957 On ch=1 n=63 v=65
205040 Off ch=1 n=63 v=64
205040 Off ch=1 n=56 v=64
205040 Off ch=1 n=65 v=64
205040 Off ch=1 n=60 v=64
205437 On ch=1 n=56 v=65
205442 On ch=1 n=60 v=65
205442 On ch=1 n=63 v=65
205442 On ch=1 n=65 v=69
205505 Off ch=1 n=63 v=64
205505 Off ch=1 n=60 v=64
205512 Off ch=1 n=65 v=64
205517 Off ch=1 n=56 v=64
205920 On ch=1 n=46 v=49
205920 On ch=1 n=34 v=59
206397 On ch=1 n=62 v=61
206397 On ch=1 n=56 v=61
206400 Off ch=1 n=34 v=64
206400 Off ch=1 n=46 v=64
206400 On ch=1 n=65 v=68
206482 Off ch=1 n=65 v=64
206490 Off ch=1 n=56 v=64
206497 Off ch=1 n=62 v=64
206885 On ch=1 n=56 v=65
206885 On ch=1 n=62 v=73
206885 On ch=1 n=65 v=69
206955 Off ch=1 n=65 v=64
206965 Off ch=1 n=62 v=64
206980 Off ch=1 n=56 v=64
207360 On ch=1 n=51 v=57
207360 On ch=1 n=39 v=59
207810 Off ch=1 n=39 v=64
207810 Off ch=1 n=51 v=64
207837 On ch=1 n=67 v=65
207837 On ch=1 n=58 v=61
207837 On ch=1 n=63 v=65
207920 Off ch=1 n=63 v=64
207920 Off ch=1 n=58 v=64
207920 Off ch=1 n=67 v=64
208325 On ch=1 n=58 v=65
208325 On ch=1 n=63 v=73
208325 On ch=1 n=67 v=69
208395 Off ch=1 n=67 v=64
208405 Off ch=1 n=63 v=64
208420 Off ch=1 n=58 v=64
208800 On ch=1 n=43 v=57
208800 On ch=1 n=31 v=59
208805 On ch=1 n=59 v=65
208805 On ch=1 n=63 v=73
208805 On ch=1 n=67 v=69
210175 Off ch=1 n=31 v=64
210175 Off ch=1 n=43 v=64
210180 Off ch=1 n=59 v=64
210180 Off ch=1 n=63 v=64
210180 Off ch=1 n=67 v=64
267840 On ch=1 n=36 v=50
267840 On ch=1 n=48 v=40
268317 On ch=1 n=60 v=52
268317 On ch=1 n=55 v=52
268320 Off ch=1 n=48 v=64
268320 Off ch=1 n=36 v=64
268320 On ch=1 n=63 v=59
268402 Off ch=1 n=63 v=64
268410 Off ch=1 n=55 v=64
268417 Off ch=1 n=60 v=64
268805 On ch=1 n=55 v=56
268805 On ch=1 n=60 v=64
268805 On ch=1 n=63 v=60
268875 Off ch=1 n=63 v=64
268885 Off ch=1 n=60 v=64
268900 Off ch=1 n=55 v=64
269280 On ch=1 n=31 v=50
269280 On ch=1 n=43 v=48
269730 Off ch=1 n=43 v=64
269730 Off ch=1 n=31 v=64
269757 On ch=1 n=63 v=56
269757 On ch=1 n=55 v=52
269757 On ch=1 n=60 v=56
269840 Off ch=1 n=60 v=64
269840 Off ch=1 n=55 v=64
269840 Off ch=1 n=63 v=64
270237 On ch=1 n=55 v=56
270242 On ch=1 n=60 v=56
270242 On ch=1 n=63 v=60
270305 Off ch=1 n=60 v=64
270312 Off ch=1 n=63 v=64
270317 Off ch=1 n=55 v=64
270720 On ch=1 n=36 v=50
270720 On ch=1 n=48 v=40
271197 On ch=1 n=60 v=52
271197 On ch=1 n=55 v=52
271200 Off ch=1 n=48 v=64
271200 Off ch=1 n=36 v=64
271200 On ch=1 n=63 v=59
271282 Off ch=1 n=63 v=64
271290 Off ch=1 n=55 v=64
271297 Off ch=1 n=60 v=64
271685 On ch=1 n=55 v=56
271685 On ch=1 n=60 v=64
271685 On ch=1 n=63 v=60
271755 Off ch=1 n=63 v=64
271765 Off ch=1 n=60 v=64
271780 Off ch=1 n=55 v=64
272160 On ch=1 n=31 v=50
272160 On ch=1 n=43 v=48
272610 Off ch=1 n=43 v=64
272610 Off ch=1 n=31 v=64
272637 On ch=1 n=63 v=56
272637 On ch=1 n=55 v=52
272637 On ch=1 n=60 v=56
272720 Off ch=1 n=60 v=64
272720 Off ch=1 n=55 v=64
272720 Off ch=1 n=63 v=64
273117 On ch=1 n=55 v=56
273122 On ch=1 n=60 v=56
273122 On ch=1 n=63 v=60
273185 Off ch=1 n=60 v=64
273192 Off ch=1 n=63 v=64
273197 Off ch=1 n=55 v=64
273600 On ch=1 n=36 v=50
273600 On ch=1 n=48 v=40
274077 On ch=1 n=60 v=52
274077 On ch=1 n=55 v=52
274080 Off ch=1 n=48 v=64
274080 Off ch=1 n=36 v=64
274080 On ch=1 n=63 v=59
274162 Off ch=1 n=63 v=64
274170 Off ch=1 n=55 v=64
274177 Off ch=1 n=60 v=64
274565 On ch=1 n=55 v=56
274565 On ch=1 n=60 v=64
274565 On ch=1 n=63 v=60
274635 Off ch=1 n=63 v=64
274645 Off ch=1 n=60 v=64
274660 Off ch=1 n=55 v=64
275040 On ch=1 n=31 v=50
275040 On ch=1 n=43 v=48
275490 Off ch=1 n=43 v=64
275490 Off ch=1 n=31 v=64
275517 On ch=1 n=63 v=56
275517 On ch=1 n=55 v=52
275517 On ch=1 n=60 v=56
275600 Off ch=1 n=60 v=64
275600 Off ch=1 n=55 v=64
275600 Off ch=1 n=63 v=64
275997 On ch=1 n=55 v=56
276002 On ch=1 n=60 v=56
276002 On ch=1 n=63 v=60
276065 Off ch=1 n=60 v=64
276072 Off ch=1 n=63 v=64
276077 Off ch=1 n=55 v=64
276480 On ch=1 n=38 v=50
276480 On ch=1 n=50 v=40
276957 On ch=1 n=60 v=52
276957 On ch=1 n=56 v=52
276960 Off ch=1 n=50 v=64
276960 Off ch=1 n=38 v=64
276960 On ch=1 n=65 v=59
277042 Off ch=1 n=65 v=64
277050 Off ch=1 n=56 v=64
277057 Off ch=1 n=60 v=64
277445 On ch=1 n=56 v=56
277445 On ch=1 n=60 v=64
277445 On ch=1 n=65 v=60
277515 Off ch=1 n=65 v=64
277525 Off ch=1 n=60 v=64
277540 Off ch=1 n=56 v=64
277920 On ch=1 n=31 v=50
277920 On ch=1 n=43 v=48
278370 Off ch=1 n=43 v=64
278370 Off ch=1 n=31 v=64
278397 On ch=1 n=65 v=56
278397 On ch=1 n=56 v=52
278397 On ch=1 n=60 v=56
278480 Off ch=1 n=60 v=64
278480 Off ch=1 n=56 v=64
278480 Off ch=1 n=65 v=64
278877 On ch=1 n=56 v=56
278882 On ch=1 n=60 v=56
278882 On ch=1 n=65 v=60
278945 Off ch=1 n=60 v=64
278952 Off ch=1 n=65 v=64
278957 Off ch=1 n=56 v=64
279360 On ch=1 n=38 v=50
279360 On ch=1 n=50 v=40
279837 On ch=1 n=60 v=52
279837 On ch=1 n=56 v=52
279840 Off ch=1 n=50 v=64
279840 Off ch=1 n=38 v=64
279840 On ch=1 n=65 v=59
279922 Off ch=1 n=65 v=64
279930 Off ch=1 n=56 v=64
279937 Off ch=1 n=60 v=64
280325 On ch=1 n=56 v=56
280325 On ch=1 n=60 v=64
280325 On ch=1 n=65 v=60
280395 Off ch=1 n=65 v=64
280405 Off ch=1 n=60 v=64
280420 Off ch=1 n=56 v=64
280800 On ch=1 n=31 v=50
280800 On ch=1 n=43 v=48
281250 Off ch=1 n=43 v=64
281250 Off ch=1 n=31 v=64
281277 On ch=1 n=65 v=56
281277 On ch=1 n=56 v=52
281277 On ch=1 n=60 v=56
281360 Off ch=1 n=60 v=64
281360 Off ch=1 n=56 v=64
281360 Off ch=1 n=65 v=64
281757 On ch=1 n=56 v=56
281762 On ch=1 n=60 v=56
281762 On ch=1 n=65 v=60
281825 Off ch=1 n=60 v=64
281832 Off ch=1 n=65 v=64
281837 Off ch=1 n=56 v=64
282240 On ch=1 n=38 v=50
282240 On ch=1 n=50 v=40
282717 On ch=1 n=59 v=52
282717 On ch=1 n=55 v=52
282720 Off ch=1 n=50 v=64
282720 Off ch=1 n=38 v=64
282720 On ch=1 n=65 v=59
282802 Off ch=1 n=65 v=64
282810 Off ch=1 n=55 v=64
282817 Off ch=1 n=59 v=64
283205 On ch=1 n=55 v=56
283205 On ch=1 n=59 v=64
283205 On ch=1 n=65 v=60
283275 Off ch=1 n=65 v=64
283285 Off ch=1 n=59 v=64
283300 Off ch=1 n=55 v=64
283680 On ch=1 n=31 v=50
283680 On ch=1 n=43 v=48
284130 Off ch=1 n=43 v=64
284130 Off ch=1 n=31 v=64
284157 On ch=1 n=65 v=56
284157 On ch=1 n=55 v=52
284157 On ch=1 n=59 v=56
284240 Off ch=1 n=59 v=64
284240 Off ch=1 n=55 v=64
284240 Off ch=1 n=65 v=64
284637 On ch=1 n=55 v=56
284642 On ch=1 n=59 v=56
284642 On ch=1 n=65 v=60
284705 Off ch=1 n=59 v=64
284712 Off ch=1 n=65 v=64
284717 Off ch=1 n=55 v=64
285120 On ch=1 n=38 v=50
285120 On ch=1 n=50 v=40
285597 On ch=1 n=59 v=52
285597 On ch=1 n=55 v=52
285600 Off ch=1 n=50 v=64
285600 Off ch=1 n=38 v=64
285600 On ch=1 n=65 v=59
285682 Off ch=1 n=65 v=64
285690 Off ch=1 n=55 v=64
285697 Off ch=1 n=59 v=64
286085 On ch=1 n=55 v=56
286085 On ch=1 n=59 v=64
286085 On ch=1 n=65 v=60
286155 Off ch=1 n=65 v=64
286165 Off ch=1 n=59 v=64
286180 Off ch=1 n=55 v=64
286560 On ch=1 n=31 v=50
286560 On ch=1 n=43 v=48
287010 Off ch=1 n=43 v=64
287010 Off ch=1 n=31 v=64
287037 On ch=1 n=65 v=56
287037 On ch=1 n=55 v=52
287037 On ch=1 n=59 v=56
287120 Off ch=1 n=59 v=64
287120 Off ch=1 n=55 v=64
287120 Off ch=1 n=65 v=64
287517 On ch=1 n=55 v=56
287522 On ch=1 n=59 v=56
287522 On ch=1 n=65 v=60
287585 Off ch=1 n=59 v=64
287592 Off ch=1 n=65 v=64
287597 Off ch=1 n=55 v=64
288000 On ch=1 n=36 v=50
288000 On ch=1 n=48 v=40
288477 On ch=1 n=60 v=52
288477 On ch=1 n=55 v=52
288480 Off ch=1 n=48 v=64
288480 Off ch=1 n=36 v=64
288480 On ch=1 n=63 v=59
288562 Off ch=1 n=63 v=64
288570 Off ch=1 n=55 v=64
288577 Off ch=1 n=60 v=64
288965 On ch=1 n=55 v=56
288965 On ch=1 n=60 v=64
288965 On ch=1 n=63 v=60
289035 Off ch=1 n=63 v=64
289045 Off ch=1 n=60 v=64
289060 Off ch=1 n=55 v=64
289440 On ch=1 n=31 v=50
289440 On ch=1 n=43 v=48
289890 Off ch=1 n=43 v=64
289890 Off ch=1 n=31 v=64
289917 On ch=1 n=63 v=56
289917 On ch=1 n=55 v=52
289917 On ch=1 n=60 v=56
290000 Off ch=1 n=60 v=64
290000 Off ch=1 n=55 v=64
290000 Off ch=1 n=63 v=64
290397 On ch=1 n=55 v=56
290402 On ch=1 n=60 v=56
290402 On ch=1 n=63 v=60
290465 Off ch=1 n=60 v=64
290472 Off ch=1 n=63 v=64
290477 Off ch=1 n=55 v=64
290880 On ch=1 n=36 v=50
290880 On ch=1 n=48 v=40
291357 On ch=1 n=60 v=52
291357 On ch=1 n=55 v=52
291360 Off ch=1 n=48 v=64
291360 Off ch=1 n=36 v=64
291360 On ch=1 n=63 v=59
291442 Off ch=1 n=63 v=64
291450 Off ch=1 n=55 v=64
291457 Off ch=1 n=60 v=64
291845 On ch=1 n=55 v=56
291845 On ch=1 n=60 v=64
291845 On ch=1 n=63 v=60
291915 Off ch=1 n=63 v=64
291925 Off ch=1 n=60 v=64
291940 Off ch=1 n=55 v=64
292320 On ch=1 n=31 v=50
292320 On ch=1 n=43 v=48
292770 Off ch=1 n=43 v=64
292770 Off ch=1 n=31 v=64
292797 On ch=1 n=63 v=56
292797 On ch=1 n=55 v=52
292797 On ch=1 n=60 v=56
292880 Off ch=1 n=60 v=64
292880 Off ch=1 n=55 v=64
292880 Off ch=1 n=63 v=64
293277 On ch=1 n=55 v=56
293282 On ch=1 n=60 v=56
293282 On ch=1 n=63 v=60
293345 Off ch=1 n=60 v=64
293352 Off ch=1 n=63 v=64
293357 Off ch=1 n=55 v=64
293760 On ch=1 n=41 v=50
293760 On ch=1 n=53 v=40
294237 On ch=1 n=60 v=52
294237 On ch=1 n=56 v=52
294240 Off ch=1 n=53 v=64
294240 Off ch=1 n=41 v=64
294240 On ch=1 n=65 v=59
294322 Off ch=1 n=65 v=64
294330 Off ch=1 n=56 v=64
294337 Off ch=1 n=60 v=64
294725 On ch=1 n=56 v=56
294725 On ch=1 n=60 v=64
294725 On ch=1 n=65 v=60
294795 Off ch=1 n=65 v=64
294805 Off ch=1 n=60 v=64
294820 Off ch=1 n=56 v=64
295200 On ch=1 n=41 v=50
295200 On ch=1 n=53 v=48
295650 Off ch=1 n=53 v=64
295650 Off ch=1 n=41 v=64
295677 On ch=1 n=65 v=56
295677 On ch=1 n=56 v=52
295677 On ch=1 n=60 v=56
295760 Off ch=1 n=60 v=64
295760 Off ch=1 n=56 v=64
295760 Off ch=1 n=65 v=64
296157 On ch=1 n=56 v=56
296162 On ch=1 n=60 v=56
296162 On ch=1 n=65 v=60
296225 Off ch=1 n=60 v=64
296232 Off ch=1 n=65 v=64
296237 Off ch=1 n=56 v=64
296640 On ch=1 n=34 v=50
296640 On ch=1 n=46 v=40
297117 On ch=1 n=62 v=52
297117 On ch=1 n=56 v=52
297120 Off ch=1 n=46 v=64
297120 Off ch=1 n=34 v=64
297120 On ch=1 n=65 v=59
297202 Off ch=1 n=65 v=64
297210 Off ch=1 n=56 v=64
297217 Off ch=1 n=62 v=64
297605 On ch=1 n=56 v=56
297605 On ch=1 n=62 v=64
297605 On ch=1 n=65 v=60
297675 Off ch=1 n=65 v=64
297685 Off ch=1 n=62 v=64
297700 Off ch=1 n=56 v=64
298080 On ch=1 n=34 v=50
298080 On ch=1 n=46 v=48
298530 Off ch=1 n=46 v=64
298530 Off ch=1 n=34 v=64
298557 On ch=1 n=65 v=56
298557 On ch=1 n=56 v=52
298557 On ch=1 n=62 v=56
298640 Off ch=1 n=62 v=64
298640 Off ch=1 n=56 v=64
298640 Off ch=1 n=65 v=64
299037 On ch=1 n=56 v=56
299042 On ch=1 n=62 v=56
299042 On ch=1 n=65 v=60
299105 Off ch=1 n=62 v=64
299112 Off ch=1 n=65 v=64
299117 Off ch=1 n=56 v=64
299520 On ch=1 n=39 v=50
299520 On ch=1 n=51 v=40
299997 On ch=1 n=58 v=52
299997 On ch=1 n=55 v=52
300000 Off ch=1 n=51 v=64
300000 Off ch=1 n=39 v=64
300000 On ch=1 n=63 v=59
300082 Off ch=1 n=63 v=64
300090 Off ch=1 n=55 v=64
300097 Off ch=1 n=58 v=64
300485 On ch=1 n=55 v=56
300485 On ch=1 n=58 v=64
300485 On ch=1 n=63 v=60
300555 Off ch=1 n=63 v=64
300565 Off ch=1 n=58 v=64
300580 Off ch=1 n=55 v=64
300960 On ch=1 n=44 v=39
301410 Off ch=1 n=44 v=64
301437 On ch=1 n=63 v=47
301437 On ch=1 n=60 v=43
301520 Off ch=1 n=60 v=64
301520 Off ch=1 n=63 v=64
301917 On ch=1 n=60 v=47
301922 On ch=1 n=62 v=47
301922 On ch=1 n=65 v=51
301985 Off ch=1 n=62 v=64
301992 Off ch=1 n=65 v=64
301997 Off ch=1 n=60 v=64
302400 On ch=1 n=43 v=31
302877 On ch=1 n=63 v=43
302877 On ch=1 n=60 v=43
302880 Off ch=1 n=43 v=64
302880 On ch=1 n=67 v=50
302962 Off ch=1 n=67 v=64
302970 Off ch=1 n=60 v=64
302977 Off ch=1 n=63 v=64
303365 On ch=1 n=60 v=47
303365 On ch=1 n=63 v=55
303365 On ch=1 n=67 v=51
303435 Off ch=1 n=67 v=64
303445 Off ch=1 n=63 v=64
303460 Off ch=1 n=60 v=64
303840 On ch=1 n=44 v=39
304290 Off ch=1 n=44 v=64
304317 On ch=1 n=65 v=47
304317 On ch=1 n=60 v=43
304317 On ch=1 n=62 v=47
304400 Off ch=1 n=62 v=64
304400 Off ch=1 n=60 v=64
304400 Off ch=1 n=65 v=64
304797 On ch=1 n=60 v=47
304802 On ch=1 n=62 v=47
304802 On ch=1 n=65 v=51
304865 Off ch=1 n=62 v=64
304872 Off ch=1 n=65 v=64
304877 Off ch=1 n=60 v=64
305280 On ch=1 n=43 v=31
305757 On ch=1 n=63 v=43
305757 On ch=1 n=60 v=43
305760 Off ch=1 n=43 v=64
305760 On ch=1 n=67 v=50
305842 Off ch=1 n=67 v=64
305850 Off ch=1 n=60 v=64
305857 Off ch=1 n=63 v=64
306245 On ch=1 n=60 v=47
306245 On ch=1 n=63 v=55
306245 On ch=1 n=67 v=51
306315 Off ch=1 n=67 v=64
306325 Off ch=1 n=63 v=64
306340 Off ch=1 n=60 v=64
306720 On ch=1 n=44 v=39
307170 Off ch=1 n=44 v=64
307197 On ch=1 n=63 v=47
307197 On ch=1 n=60 v=43
307280 Off ch=1 n=60 v=64
307280 Off ch=1 n=63 v=64
307677 On ch=1 n=60 v=47
307682 On ch=1 n=62 v=47
307682 On ch=1 n=65 v=51
307745 Off ch=1 n=62 v=64
307752 Off ch=1 n=65 v=64
307757 Off ch=1 n=60 v=64
308160 On ch=1 n=43 v=31
308637 On ch=1 n=63 v=43
308637 On ch=1 n=60 v=43
308640 Off ch=1 n=43 v=64
308640 On ch=1 n=67 v=50
308722 Off ch=1 n=67 v=64
308730 Off ch=1 n=60 v=64
308737 Off ch=1 n=63 v=64
309125 On ch=1 n=60 v=47
309125 On ch=1 n=63 v=55
309125 On ch=1 n=67 v=51
309195 Off ch=1 n=67 v=64
309205 Off ch=1 n=63 v=64
309220 Off ch=1 n=60 v=64
309600 On ch=1 n=44 v=39
310050 Off ch=1 n=44 v=64
310077 On ch=1 n=65 v=47
310077 On ch=1 n=60 v=43
310077 On ch=1 n=62 v=47
310160 Off ch=1 n=62 v=64
310160 Off ch=1 n=60 v=64
310160 Off ch=1 n=65 v=64
310557 On ch=1 n=60 v=47
310562 On ch=1 n=62 v=47
310562 On ch=1 n=65 v=51
310625 Off ch=1 n=62 v=64
310632 Off ch=1 n=65 v=64
310637 Off ch=1 n=60 v=64
311040 On ch=1 n=43 v=31
311517 On ch=1 n=63 v=43
311517 On ch=1 n=60 v=43
311520 Off ch=1 n=43 v=64
311520 On ch=1 n=67 v=50
311602 Off ch=1 n=67 v=64
311610 Off ch=1 n=60 v=64
311617 Off ch=1 n=63 v=64
312005 On ch=1 n=60 v=47
312005 On ch=1 n=63 v=55
312005 On ch=1 n=67 v=51
312075 Off ch=1 n=67 v=64
312085 Off ch=1 n=63 v=64
312100 Off ch=1 n=60 v=64
312480 On ch=1 n=44 v=39
312930 Off ch=1 n=44 v=64
312957 On ch=1 n=63 v=47
312957 On ch=1 n=60 v=43
313040 Off ch=1 n=60 v=64
313040 Off ch=1 n=63 v=64
313437 On ch=1 n=60 v=47
313442 On ch=1 n=62 v=47
313442 On ch=1 n=65 v=51
313505 Off ch=1 n=62 v=64
313512 Off ch=1 n=65 v=64
313517 Off ch=1 n=60 v=64
313920 On ch=1 n=31 v=31
314397 On ch=1 n=63 v=43
314397 On ch=1 n=60 v=43
314400 Off ch=1 n=31 v=64
314400 On ch=1 n=67 v=50
314482 Off ch=1 n=67 v=64
314490 Off ch=1 n=60 v=64
314497 Off ch=1 n=63 v=64
314885 On ch=1 n=60 v=47
314885 On ch=1 n=63 v=55
314885 On ch=1 n=67 v=51
314955 Off ch=1 n=67 v=64
314965 Off ch=1 n=63 v=64
314980 Off ch=1 n=60 v=64
315360 On ch=1 n=43 v=39
315810 Off ch=1 n=43 v=64
315837 On ch=1 n=65 v=47
315837 On ch=1 n=59 v=43
315837 On ch=1 n=62 v=47
315920 Off ch=1 n=62 v=64
315920 Off ch=1 n=59 v=64
315920 Off ch=1 n=65 v=64
316317 On ch=1 n=59 v=47
316322 On ch=1 n=62 v=47
316322 On ch=1 n=65 v=51
316385 Off ch=1 n=62 v=64
316392 Off ch=1 n=65 v=64
316397 Off ch=1 n=59 v=64
316800 On ch=1 n=48 v=65
316800 On ch=1 n=36 v=74
316800 On ch=1 n=63 v=60
316800 On ch=1 n=55 v=69
316800 On ch=1 n=60 v=69
316970 Off ch=1 n=55 v=64
316977 Off ch=1 n=63 v=64
316995 Off ch=1 n=60 v=64
317130 Off ch=1 n=48 v=64
317142 Off ch=1 n=36 v=64
317760 On ch=1 n=31 v=73
317760 On ch=1 n=43 v=73
317760 On ch=1 n=62 v=69
317760 On ch=1 n=65 v=78
317760 On ch=1 n=59 v=60
317922 Off ch=1 n=59 v=64
317930 Off ch=1 n=65 v=64
317930 Off ch=1 n=62 v=64
317942 Off ch=1 n=43 v=64
317942 Off ch=1 n=31 v=64
318240 On ch=1 n=48 v=65
318240 On ch=1 n=36 v=74
318240 On ch=1 n=63 v=87
318240 On ch=1 n=60 v=69
318240 On ch=1 n=55 v=69
318417 Off ch=1 n=63 v=64
318427 Off ch=1 n=60 v=64
318427 Off ch=1 n=55 v=64
318545 Off ch=1 n=48 v=64
318555 Off ch=1 n=36 v=64
318555 Meta TrkEnd
TrkEnd
MTrk
0 Meta TrkName "Flute     "
0 Meta 0x21 00
0 Meta 0x20 01
0 Par ch=2 c=10 v=64
43627 On ch=2 n=72 v=63
43762 Off ch=2 n=72 v=64
44115 On ch=2 n=74 v=65
44242 Off ch=2 n=74 v=64
44595 On ch=2 n=75 v=74
44732 Off ch=2 n=75 v=64
45077 On ch=2 n=75 v=68
45290 On ch=2 n=74 v=51
45355 Off ch=2 n=75 v=64
45437 Off ch=2 n=74 v=64
45520 On ch=2 n=75 v=68
45747 On ch=2 n=77 v=54
45780 Off ch=2 n=75 v=64
45922 Off ch=2 n=77 v=64
45995 On ch=2 n=74 v=72
46130 Off ch=2 n=74 v=64
46495 On ch=2 n=74 v=72
46702 On ch=2 n=72 v=54
46740 Off ch=2 n=74 v=64
46867 Off ch=2 n=72 v=64
46957 On ch=2 n=74 v=72
47175 On ch=2 n=75 v=63
47225 Off ch=2 n=74 v=64
47355 Off ch=2 n=75 v=64
47417 On ch=2 n=72 v=74
47552 Off ch=2 n=72 v=64
48457 On ch=2 n=75 v=72
48595 Off ch=2 n=75 v=64
49380 On ch=2 n=72 v=63
49510 Off ch=2 n=72 v=64
49872 On ch=2 n=74 v=63
49997 Off ch=2 n=74 v=64
50360 On ch=2 n=75 v=72
50487 Off ch=2 n=75 v=64
50835 On ch=2 n=75 v=72
51065 On ch=2 n=74 v=50
51087 Off ch=2 n=75 v=64
51205 Off ch=2 n=74 v=64
51287 On ch=2 n=75 v=71
51527 On ch=2 n=77 v=54
51552 Off ch=2 n=75 v=64
51697 Off ch=2 n=77 v=64
51762 On ch=2 n=74 v=74
51882 Off ch=2 n=74 v=64
52257 On ch=2 n=74 v=81
52495 On ch=2 n=72 v=54
52527 Off ch=2 n=74 v=64
52670 Off ch=2 n=72 v=64
52725 On ch=2 n=74 v=72
52965 On ch=2 n=75 v=54
52985 Off ch=2 n=74 v=64
53112 Off ch=2 n=75 v=64
53195 On ch=2 n=72 v=74
53350 Off ch=2 n=72 v=64
54217 On ch=2 n=75 v=81
54365 Off ch=2 n=75 v=64
55122 On ch=2 n=84 v=64
55160 On ch=2 n=75 v=64
55280 Off ch=2 n=75 v=64
55280 Off ch=2 n=84 v=64
55592 On ch=2 n=86 v=82
55635 On ch=2 n=77 v=73
55747 Off ch=2 n=86 v=64
55760 Off ch=2 n=77 v=64
56105 On ch=2 n=87 v=84
56110 On ch=2 n=79 v=82
56240 Off ch=2 n=79 v=64
56267 Off ch=2 n=87 v=64
56595 On ch=2 n=87 v=73
56612 On ch=2 n=79 v=81
56820 On ch=2 n=77 v=60
56832 On ch=2 n=86 v=55
56855 Off ch=2 n=79 v=64
56855 Off ch=2 n=87 v=64
56962 Off ch=2 n=77 v=64
56987 Off ch=2 n=86 v=64
57030 On ch=2 n=87 v=64
57037 On ch=2 n=79 v=75
57252 On ch=2 n=89 v=73
57252 On ch=2 n=80 v=60
57287 Off ch=2 n=79 v=64
57287 Off ch=2 n=87 v=64
57425 Off ch=2 n=80 v=64
57487 On ch=2 n=86 v=73
57512 Off ch=2 n=89 v=64
57512 On ch=2 n=77 v=75
57632 Off ch=2 n=77 v=64
57645 Off ch=2 n=86 v=64
57992 On ch=2 n=86 v=91
58005 On ch=2 n=77 v=77
58232 On ch=2 n=84 v=55
58247 On ch=2 n=75 v=60
58252 Off ch=2 n=86 v=64
58270 Off ch=2 n=77 v=64
58392 Off ch=2 n=84 v=64
58397 Off ch=2 n=75 v=64
58462 On ch=2 n=86 v=82
58467 On ch=2 n=77 v=77
58690 On ch=2 n=87 v=64
58697 On ch=2 n=79 v=55
58715 Off ch=2 n=86 v=64
58740 Off ch=2 n=77 v=64
58880 Off ch=2 n=79 v=64
58935 On ch=2 n=84 v=85
58940 Off ch=2 n=87 v=64
58942 On ch=2 n=75 v=80
59082 Off ch=2 n=84 v=64
59087 Off ch=2 n=75 v=64
65235 On ch=2 n=87 v=51
65255 On ch=2 n=84 v=53
65335 Off ch=2 n=87 v=64
65340 Off ch=2 n=84 v=64
65712 On ch=2 n=84 v=46
65717 On ch=2 n=87 v=40
65822 Off ch=2 n=87 v=64
65825 Off ch=2 n=84 v=64
66662 On ch=2 n=87 v=50
66680 On ch=2 n=84 v=46
66777 Off ch=2 n=84 v=64
66790 Off ch=2 n=87 v=64
67150 On ch=2 n=87 v=46
67150 On ch=2 n=84 v=44
67272 Off ch=2 n=84 v=64
67280 Off ch=2 n=87 v=64
68135 On ch=2 n=84 v=53
68142 On ch=2 n=87 v=53
68242 Off ch=2 n=87 v=64
68245 Off ch=2 n=84 v=64
68630 On ch=2 n=84 v=46
68637 On ch=2 n=87 v=44
68735 Off ch=2 n=84 v=64
68747 Off ch=2 n=87 v=64
69557 On ch=2 n=87 v=53
69562 On ch=2 n=84 v=46
69662 Off ch=2 n=87 v=64
69670 Off ch=2 n=84 v=64
70057 On ch=2 n=87 v=44
70062 On ch=2 n=84 v=40
70160 Off ch=2 n=84 v=64
70172 Off ch=2 n=87 v=64
70995 On ch=2 n=87 v=51
71015 On ch=2 n=84 v=53
71095 Off ch=2 n=87 v=64
71100 Off ch=2 n=84 v=64
71472 On ch=2 n=84 v=46
71477 On ch=2 n=87 v=40
71582 Off ch=2 n=87 v=64
71585 Off ch=2 n=84 v=64
72422 On ch=2 n=87 v=50
72440 On ch=2 n=84 v=46
72537 Off ch=2 n=84 v=64
72550 Off ch=2 n=87 v=64
72910 On ch=2 n=87 v=46
72910 On ch=2 n=84 v=44
73032 Off ch=2 n=84 v=64
73040 Off ch=2 n=87 v=64
73895 On ch=2 n=84 v=53
73902 On ch=2 n=89 v=53
74002 Off ch=2 n=89 v=64
74005 Off ch=2 n=84 v=64
74390 On ch=2 n=84 v=46
74397 On ch=2 n=89 v=44
74495 Off ch=2 n=84 v=64
74507 Off ch=2 n=89 v=64
75317 On ch=2 n=89 v=53
75322 On ch=2 n=84 v=46
75422 Off ch=2 n=89 v=64
75430 Off ch=2 n=84 v=64
75817 On ch=2 n=89 v=44
75822 On ch=2 n=84 v=40
75920 Off ch=2 n=84 v=64
75932 Off ch=2 n=89 v=64
76755 On ch=2 n=89 v=51
76775 On ch=2 n=84 v=53
76855 Off ch=2 n=89 v=64
76860 Off ch=2 n=84 v=64
77232 On ch=2 n=84 v=46
77237 On ch=2 n=89 v=40
77342 Off ch=2 n=89 v=64
77345 Off ch=2 n=84 v=64
78182 On ch=2 n=89 v=50
78200 On ch=2 n=84 v=46
78297 Off ch=2 n=84 v=64
78310 Off ch=2 n=89 v=64
78670 On ch=2 n=89 v=46
78670 On ch=2 n=84 v=44
78792 Off ch=2 n=84 v=64
78800 Off ch=2 n=89 v=64
79655 On ch=2 n=83 v=53
79662 On ch=2 n=89 v=53
79762 Off ch=2 n=89 v=64
79765 Off ch=2 n=83 v=64
80150 On ch=2 n=83 v=46
80157 On ch=2 n=89 v=44
80255 Off ch=2 n=83 v=64
80267 Off ch=2 n=89 v=64
81077 On ch=2 n=89 v=53
81082 On ch=2 n=83 v=46
81182 Off ch=2 n=89 v=64
81190 Off ch=2 n=83 v=64
81577 On ch=2 n=89 v=44
81582 On ch=2 n=83 v=40
81680 Off ch=2 n=83 v=64
81692 Off ch=2 n=89 v=64
82515 On ch=2 n=89 v=51
82535 On ch=2 n=83 v=53
82615 Off ch=2 n=89 v=64
82620 Off ch=2 n=83 v=64
82992 On ch=2 n=83 v=46
82997 On ch=2 n=89 v=40
83102 Off ch=2 n=89 v=64
83105 Off ch=2 n=83 v=64
83942 On ch=2 n=89 v=50
83960 On ch=2 n=83 v=46
84057 Off ch=2 n=83 v=64
84070 Off ch=2 n=89 v=64
84430 On ch=2 n=89 v=46
84430 On ch=2 n=83 v=44
84552 Off ch=2 n=83 v=64
84560 Off ch=2 n=89 v=64
85415 On ch=2 n=84 v=53
85422 On ch=2 n=87 v=53
85522 Off ch=2 n=87 v=64
85525 Off ch=2 n=84 v=64
85910 On ch=2 n=84 v=46
85917 On ch=2 n=87 v=44
86015 Off ch=2 n=84 v=64
86027 Off ch=2 n=87 v=64
86837 On ch=2 n=87 v=53
86842 On ch=2 n=84 v=46
86942 Off ch=2 n=87 v=64
86950 Off ch=2 n=84 v=64
87337 On ch=2 n=87 v=44
87342 On ch=2 n=84 v=40
87440 Off ch=2 n=84 v=64
87452 Off ch=2 n=87 v=64
88275 On ch=2 n=87 v=51
88295 On ch=2 n=84 v=53
88375 Off ch=2 n=87 v=64
88380 Off ch=2 n=84 v=64
88752 On ch=2 n=84 v=46
88757 On ch=2 n=87 v=40
88862 Off ch=2 n=87 v=64
88865 Off ch=2 n=84 v=64
89702 On ch=2 n=87 v=50
89720 On ch=2 n=84 v=46
89817 Off ch=2 n=84 v=64
89830 Off ch=2 n=87 v=64
90190 On ch=2 n=87 v=46
90190 On ch=2 n=84 v=44
90312 Off ch=2 n=84 v=64
90320 Off ch=2 n=87 v=64
91175 On ch=2 n=84 v=53
91182 On ch=2 n=89 v=53
91282 Off ch=2 n=89 v=64
91285 Off ch=2 n=84 v=64
91670 On ch=2 n=84 v=46
91677 On ch=2 n=89 v=44
91775 Off ch=2 n=84 v=64
91787 Off ch=2 n=89 v=64
92597 On ch=2 n=89 v=53
92602 On ch=2 n=84 v=46
92702 Off ch=2 n=89 v=64
92710 Off ch=2 n=84 v=64
93097 On ch=2 n=89 v=44
93102 On ch=2 n=84 v=40
93200 Off ch=2 n=84 v=64
93212 Off ch=2 n=89 v=64
94035 On ch=2 n=89 v=51
94055 On ch=2 n=82 v=53
94135 Off ch=2 n=89 v=64
94157 Off ch=2 n=82 v=64
94512 On ch=2 n=82 v=46
94517 On ch=2 n=89 v=40
94622 Off ch=2 n=89 v=64
94625 Off ch=2 n=82 v=64
95462 On ch=2 n=89 v=50
95480 On ch=2 n=82 v=46
95577 Off ch=2 n=82 v=64
95590 Off ch=2 n=89 v=64
95950 On ch=2 n=89 v=46
95950 On ch=2 n=82 v=44
96072 Off ch=2 n=82 v=64
96080 Off ch=2 n=89 v=64
96935 On ch=2 n=79 v=53
96942 On ch=2 n=87 v=55
97042 Off ch=2 n=87 v=64
97045 Off ch=2 n=79 v=64
97430 On ch=2 n=79 v=46
97437 On ch=2 n=87 v=50
97535 Off ch=2 n=79 v=64
97547 Off ch=2 n=87 v=64
98347 On ch=2 n=72 v=63
98482 Off ch=2 n=72 v=64
98835 On ch=2 n=74 v=65
98962 Off ch=2 n=74 v=64
99315 On ch=2 n=75 v=74
99452 Off ch=2 n=75 v=64
99797 On ch=2 n=75 v=68
100010 On ch=2 n=74 v=51
100075 Off ch=2 n=75 v=64
100157 Off ch=2 n=74 v=64
100240 On ch=2 n=75 v=68
100467 On ch=2 n=77 v=54
100500 Off ch=2 n=75 v=64
100642 Off ch=2 n=77 v=64
100715 On ch=2 n=74 v=72
100850 Off ch=2 n=74 v=64
101215 On ch=2 n=74 v=72
101422 On ch=2 n=72 v=54
101460 Off ch=2 n=74 v=64
101587 Off ch=2 n=72 v=64
101677 On ch=2 n=74 v=72
101895 On ch=2 n=75 v=63
101945 Off ch=2 n=74 v=64
102075 Off ch=2 n=75 v=64
102137 On ch=2 n=72 v=74
102272 Off ch=2 n=72 v=64
103177 On ch=2 n=75 v=72
103315 Off ch=2 n=75 v=64
104100 On ch=2 n=72 v=63
104230 Off ch=2 n=72 v=64
104592 On ch=2 n=74 v=63
104717 Off ch=2 n=74 v=64
105080 On ch=2 n=75 v=72
105207 Off ch=2 n=75 v=64
105555 On ch=2 n=75 v=72
105785 On ch=2 n=74 v=50
105807 Off ch=2 n=75 v=64
105925 Off ch=2 n=74 v=64
106007 On ch=2 n=75 v=71
106247 On ch=2 n=77 v=54
106272 Off ch=2 n=75 v=64
106417 Off ch=2 n=77 v=64
106482 On ch=2 n=74 v=74
106602 Off ch=2 n=74 v=64
106977 On ch=2 n=74 v=81
107215 On ch=2 n=72 v=54
107247 Off ch=2 n=74 v=64
107390 Off ch=2 n=72 v=64
107445 On ch=2 n=74 v=72
107685 On ch=2 n=75 v=54
107705 Off ch=2 n=74 v=64
107832 Off ch=2 n=75 v=64
107915 On ch=2 n=72 v=74
108070 Off ch=2 n=72 v=64
108937 On ch=2 n=75 v=81
109085 Off ch=2 n=75 v=64
109875 On ch=2 n=96 v=47
109880 On ch=2 n=87 v=55
109982 Off ch=2 n=96 v=64
110000 Off ch=2 n=87 v=64
110337 On ch=2 n=98 v=65
110355 On ch=2 n=89 v=64
110467 Off ch=2 n=98 v=64
110480 Off ch=2 n=89 v=64
110825 On ch=2 n=99 v=67
110830 On ch=2 n=91 v=73
110960 Off ch=2 n=91 v=64
110962 Off ch=2 n=99 v=64
111315 On ch=2 n=99 v=62
111332 On ch=2 n=91 v=72
111540 On ch=2 n=89 v=51
111552 On ch=2 n=98 v=38
111575 Off ch=2 n=91 v=64
111575 Off ch=2 n=99 v=64
111682 Off ch=2 n=89 v=64
111707 Off ch=2 n=98 v=64
111750 On ch=2 n=99 v=47
111757 On ch=2 n=91 v=66
111972 On ch=2 n=101 v=56
111972 On ch=2 n=92 v=51
112007 Off ch=2 n=91 v=64
112007 Off ch=2 n=99 v=64
112145 Off ch=2 n=92 v=64
112207 On ch=2 n=98 v=56
112232 Off ch=2 n=101 v=64
112232 On ch=2 n=89 v=66
112352 Off ch=2 n=89 v=64
112365 Off ch=2 n=98 v=64
112712 On ch=2 n=98 v=64
112725 On ch=2 n=89 v=68
112952 On ch=2 n=96 v=38
112967 On ch=2 n=87 v=51
112972 Off ch=2 n=98 v=64
112990 Off ch=2 n=89 v=64
113080 Off ch=2 n=96 v=64
113092 Off ch=2 n=87 v=64
113182 On ch=2 n=98 v=65
113187 On ch=2 n=89 v=68
113410 On ch=2 n=99 v=47
113417 On ch=2 n=91 v=46
113435 Off ch=2 n=98 v=64
113460 Off ch=2 n=89 v=64
113600 Off ch=2 n=91 v=64
113660 Off ch=2 n=99 v=64
113662 On ch=2 n=96 v=68
113662 On ch=2 n=87 v=71
113807 Off ch=2 n=87 v=64
113810 Off ch=2 n=96 v=64
116162 On ch=2 n=82 v=52
116645 On ch=2 n=87 v=60
116655 Off ch=2 n=82 v=64
117832 Off ch=2 n=87 v=64
118042 On ch=2 n=87 v=56
119187 Off ch=2 n=87 v=64
119475 On ch=2 n=87 v=60
119975 On ch=2 n=86 v=56
119997 Off ch=2 n=87 v=64
120427 Off ch=2 n=86 v=64
120430 On ch=2 n=84 v=48
120927 On ch=2 n=82 v=56
120962 Off ch=2 n=84 v=64
121432 On ch=2 n=79 v=56
121455 Off ch=2 n=82 v=64
121872 Off ch=2 n=79 v=64
121892 On ch=2 n=82 v=56
122370 Off ch=2 n=82 v=64
122372 On ch=2 n=86 v=64
123580 Off ch=2 n=86 v=64
123812 On ch=2 n=86 v=66
124962 Off ch=2 n=86 v=64
125235 On ch=2 n=84 v=64
125715 On ch=2 n=82 v=60
125735 Off ch=2 n=84 v=64
126202 On ch=2 n=79 v=56
126207 Off ch=2 n=82 v=64
126685 On ch=2 n=75 v=60
126690 Off ch=2 n=79 v=64
127157 Off ch=2 n=75 v=64
127165 On ch=2 n=77 v=52
127622 Off ch=2 n=77 v=64
127627 On ch=2 n=79 v=56
128115 Off ch=2 n=79 v=64
128152 On ch=2 n=84 v=61
129305 Off ch=2 n=84 v=64
129590 On ch=2 n=82 v=61
130520 Off ch=2 n=82 v=64
131002 On ch=2 n=82 v=60
131477 Off ch=2 n=82 v=64
131485 On ch=2 n=80 v=60
131975 On ch=2 n=79 v=52
131987 Off ch=2 n=80 v=64
132447 On ch=2 n=77 v=56
132465 Off ch=2 n=79 v=64
132965 On ch=2 n=75 v=56
132985 Off ch=2 n=77 v=64
133415 On ch=2 n=77 v=52
133442 Off ch=2 n=75 v=64
133902 On ch=2 n=79 v=60
133917 Off ch=2 n=77 v=64
134882 On ch=2 n=82 v=56
134892 Off ch=2 n=79 v=64
135362 On ch=2 n=77 v=52
135390 Off ch=2 n=82 v=64
136332 Off ch=2 n=77 v=64
136332 On ch=2 n=82 v=52
136815 Off ch=2 n=82 v=64
136817 On ch=2 n=79 v=52
137657 Off ch=2 n=79 v=64
137730 On ch=2 n=82 v=44
138192 Off ch=2 n=82 v=64
138205 On ch=2 n=87 v=52
139182 Off ch=2 n=87 v=64
139187 On ch=2 n=89 v=48
139667 Off ch=2 n=89 v=64
139685 On ch=2 n=91 v=60
140872 Off ch=2 n=91 v=64
141082 On ch=2 n=91 v=56
142227 Off ch=2 n=91 v=64
142515 On ch=2 n=91 v=60
143015 On ch=2 n=89 v=56
143037 Off ch=2 n=91 v=64
143467 Off ch=2 n=89 v=64
143470 On ch=2 n=87 v=48
143967 On ch=2 n=86 v=56
144002 Off ch=2 n=87 v=64
144472 On ch=2 n=82 v=56
144495 Off ch=2 n=86 v=64
144912 Off ch=2 n=82 v=64
144932 On ch=2 n=86 v=56
145410 Off ch=2 n=86 v=64
145412 On ch=2 n=89 v=64
146620 Off ch=2 n=89 v=64
146852 On ch=2 n=89 v=66
148002 Off ch=2 n=89 v=64
148275 On ch=2 n=89 v=64
148755 On ch=2 n=87 v=60
148775 Off ch=2 n=89 v=64
149242 On ch=2 n=86 v=56
149247 Off ch=2 n=87 v=64
149725 On ch=2 n=84 v=60
149730 Off ch=2 n=86 v=64
150197 Off ch=2 n=84 v=64
150205 On ch=2 n=79 v=52
150662 Off ch=2 n=79 v=64
150667 On ch=2 n=82 v=56
151155 Off ch=2 n=82 v=64
151192 On ch=2 n=87 v=61
152345 Off ch=2 n=87 v=64
152630 On ch=2 n=87 v=61
153810 Off ch=2 n=87 v=64
154042 On ch=2 n=87 v=60
155242 Off ch=2 n=87 v=64
155487 On ch=2 n=89 v=56
156005 On ch=2 n=87 v=56
156025 Off ch=2 n=89 v=64
156455 On ch=2 n=89 v=52
156482 Off ch=2 n=87 v=64
156942 On ch=2 n=91 v=60
156957 Off ch=2 n=89 v=64
157922 On ch=2 n=87 v=56
157932 Off ch=2 n=91 v=64
158372 On ch=2 n=82 v=48
158430 Off ch=2 n=87 v=64
158840 On ch=2 n=84 v=56
158857 Off ch=2 n=82 v=64
159320 On ch=2 n=86 v=56
159335 Off ch=2 n=84 v=64
159797 On ch=2 n=87 v=64
159855 Off ch=2 n=86 v=64
159950 Off ch=2 n=87 v=64
185702 On ch=2 n=84 v=73
185702 On ch=2 n=96 v=73
185835 Off ch=2 n=96 v=64
185835 Off ch=2 n=84 v=64
185942 On ch=2 n=83 v=47
185942 On ch=2 n=95 v=47
186080 Off ch=2 n=95 v=64
186080 Off ch=2 n=83 v=64
186180 On ch=2 n=84 v=73
186180 On ch=2 n=96 v=73
186322 Off ch=2 n=96 v=64
186322 Off ch=2 n=84 v=64
186420 On ch=2 n=80 v=55
186420 On ch=2 n=92 v=55
186552 Off ch=2 n=92 v=64
186552 Off ch=2 n=80 v=64
186660 On ch=2 n=75 v=73
186660 On ch=2 n=87 v=73
186787 Off ch=2 n=87 v=64
186787 Off ch=2 n=75 v=64
186897 On ch=2 n=74 v=55
186897 On ch=2 n=86 v=55
187037 Off ch=2 n=86 v=64
187037 Off ch=2 n=74 v=64
187137 On ch=2 n=75 v=73
187137 On ch=2 n=87 v=73
187290 Off ch=2 n=87 v=64
187290 Off ch=2 n=75 v=64
187377 On ch=2 n=72 v=37
187377 On ch=2 n=84 v=37
187517 Off ch=2 n=84 v=64
187517 Off ch=2 n=72 v=64
187625 On ch=2 n=68 v=64
187625 On ch=2 n=80 v=64
187762 Off ch=2 n=80 v=64
187762 Off ch=2 n=68 v=64
187862 On ch=2 n=74 v=51
187862 On ch=2 n=86 v=51
187997 Off ch=2 n=86 v=64
187997 Off ch=2 n=74 v=64
188102 On ch=2 n=75 v=69
188102 On ch=2 n=87 v=69
188250 Off ch=2 n=87 v=64
188250 Off ch=2 n=75 v=64
188342 On ch=2 n=80 v=57
188342 On ch=2 n=92 v=57
188455 Off ch=2 n=92 v=64
188455 Off ch=2 n=80 v=64
188582 On ch=2 n=84 v=73
188582 On ch=2 n=96 v=73
188715 Off ch=2 n=96 v=64
188715 Off ch=2 n=84 v=64
188827 On ch=2 n=83 v=47
188827 On ch=2 n=95 v=47
188965 Off ch=2 n=95 v=64
188965 Off ch=2 n=83 v=64
189060 On ch=2 n=84 v=73
189060 On ch=2 n=96 v=73
189202 Off ch=2 n=96 v=64
189202 Off ch=2 n=84 v=64
189305 On ch=2 n=89 v=55
189305 On ch=2 n=101 v=55
189437 Off ch=2 n=101 v=64
189437 Off ch=2 n=89 v=64
189540 On ch=2 n=87 v=73
189540 On ch=2 n=99 v=73
189685 Off ch=2 n=99 v=64
189685 Off ch=2 n=87 v=64
189780 On ch=2 n=84 v=52
189780 On ch=2 n=96 v=52
189920 Off ch=2 n=96 v=64
189920 Off ch=2 n=84 v=64
190017 On ch=2 n=80 v=73
190017 On ch=2 n=92 v=73
190170 Off ch=2 n=92 v=64
190170 Off ch=2 n=80 v=64
190265 On ch=2 n=79 v=47
190265 On ch=2 n=91 v=47
190402 Off ch=2 n=91 v=64
190402 Off ch=2 n=79 v=64
190502 On ch=2 n=80 v=64
190502 On ch=2 n=92 v=64
190640 Off ch=2 n=92 v=64
190640 Off ch=2 n=80 v=64
190740 On ch=2 n=85 v=51
190740 On ch=2 n=97 v=51
190875 Off ch=2 n=97 v=64
190875 Off ch=2 n=85 v=64
190977 On ch=2 n=84 v=69
190977 On ch=2 n=96 v=69
191125 Off ch=2 n=96 v=64
191125 Off ch=2 n=84 v=64
191217 On ch=2 n=80 v=46
191217 On ch=2 n=92 v=46
191330 Off ch=2 n=92 v=64
191330 Off ch=2 n=80 v=64
191462 On ch=2 n=75 v=73
191462 On ch=2 n=87 v=73
191595 Off ch=2 n=87 v=64
191595 Off ch=2 n=75 v=64
191702 On ch=2 n=74 v=47
191702 On ch=2 n=86 v=47
191840 Off ch=2 n=86 v=64
191840 Off ch=2 n=74 v=64
191940 On ch=2 n=75 v=73
191940 On ch=2 n=87 v=73
192082 Off ch=2 n=87 v=64
192082 Off ch=2 n=75 v=64
192180 On ch=2 n=81 v=48
192180 On ch=2 n=93 v=48
192312 Off ch=2 n=93 v=64
192312 Off ch=2 n=81 v=64
192420 On ch=2 n=82 v=73
192420 On ch=2 n=94 v=73
192572 Off ch=2 n=94 v=64
192572 Off ch=2 n=82 v=64
192657 On ch=2 n=79 v=55
192657 On ch=2 n=91 v=55
192797 Off ch=2 n=91 v=64
192797 Off ch=2 n=79 v=64
192897 On ch=2 n=67 v=73
192897 On ch=2 n=79 v=73
193050 Off ch=2 n=79 v=64
193050 Off ch=2 n=67 v=64
193137 On ch=2 n=69 v=37
193137 On ch=2 n=81 v=37
193277 Off ch=2 n=81 v=64
193277 Off ch=2 n=69 v=64
193385 On ch=2 n=70 v=64
193385 On ch=2 n=82 v=64
193522 Off ch=2 n=82 v=64
193522 Off ch=2 n=70 v=64
193622 On ch=2 n=73 v=51
193622 On ch=2 n=85 v=51
193757 Off ch=2 n=85 v=64
193757 Off ch=2 n=73 v=64
193862 On ch=2 n=77 v=69
193862 On ch=2 n=89 v=69
194010 Off ch=2 n=89 v=64
194010 Off ch=2 n=77 v=64
194102 On ch=2 n=82 v=57
194102 On ch=2 n=94 v=57
194215 Off ch=2 n=94 v=64
194215 Off ch=2 n=82 v=64
194342 On ch=2 n=77 v=73
194342 On ch=2 n=89 v=73
194475 Off ch=2 n=89 v=64
194475 Off ch=2 n=77 v=64
194587 On ch=2 n=80 v=47
194587 On ch=2 n=92 v=47
194725 Off ch=2 n=92 v=64
194725 Off ch=2 n=80 v=64
194820 On ch=2 n=79 v=73
194820 On ch=2 n=91 v=73
194962 Off ch=2 n=91 v=64
194962 Off ch=2 n=79 v=64
195065 On ch=2 n=85 v=55
195065 On ch=2 n=97 v=55
195197 Off ch=2 n=97 v=64
195197 Off ch=2 n=85 v=64
195300 On ch=2 n=89 v=73
195300 On ch=2 n=101 v=73
195427 Off ch=2 n=101 v=64
195427 Off ch=2 n=89 v=64
195540 On ch=2 n=87 v=52
195540 On ch=2 n=99 v=52
195680 Off ch=2 n=99 v=64
195680 Off ch=2 n=87 v=64
195777 On ch=2 n=85 v=73
195777 On ch=2 n=97 v=73
195930 Off ch=2 n=97 v=64
195930 Off ch=2 n=85 v=64
196025 On ch=2 n=85 v=47
196025 On ch=2 n=97 v=47
196162 Off ch=2 n=97 v=64
196162 Off ch=2 n=85 v=64
196262 On ch=2 n=84 v=64
196262 On ch=2 n=96 v=64
196400 Off ch=2 n=96 v=64
196400 Off ch=2 n=84 v=64
196500 On ch=2 n=84 v=51
196500 On ch=2 n=96 v=51
196635 Off ch=2 n=96 v=64
196635 Off ch=2 n=84 v=64
196737 On ch=2 n=83 v=69
196737 On ch=2 n=95 v=69
196885 Off ch=2 n=95 v=64
196885 Off ch=2 n=83 v=64
196977 On ch=2 n=83 v=46
196977 On ch=2 n=95 v=46
197090 Off ch=2 n=95 v=64
197090 Off ch=2 n=83 v=64
197222 On ch=2 n=84 v=73
197222 On ch=2 n=96 v=73
197355 Off ch=2 n=96 v=64
197355 Off ch=2 n=84 v=64
197462 On ch=2 n=83 v=47
197462 On ch=2 n=95 v=47
197600 Off ch=2 n=95 v=64
197600 Off ch=2 n=83 v=64
197700 On ch=2 n=84 v=73
197700 On ch=2 n=96 v=73
197842 Off ch=2 n=96 v=64
197842 Off ch=2 n=84 v=64
197940 On ch=2 n=80 v=55
197940 On ch=2 n=92 v=55
198072 Off ch=2 n=92 v=64
198072 Off ch=2 n=80 v=64
198180 On ch=2 n=75 v=73
198180 On ch=2 n=87 v=73
198307 Off ch=2 n=87 v=64
198307 Off ch=2 n=75 v=64
198417 On ch=2 n=74 v=55
198417 On ch=2 n=86 v=55
198557 Off ch=2 n=86 v=64
198557 Off ch=2 n=74 v=64
198657 On ch=2 n=75 v=73
198657 On ch=2 n=87 v=73
198810 Off ch=2 n=87 v=64
198810 Off ch=2 n=75 v=64
198897 On ch=2 n=72 v=37
198897 On ch=2 n=84 v=37
199037 Off ch=2 n=84 v=64
199037 Off ch=2 n=72 v=64
199145 On ch=2 n=68 v=64
199145 On ch=2 n=80 v=64
199282 Off ch=2 n=80 v=64
199282 Off ch=2 n=68 v=64
199382 On ch=2 n=74 v=51
199382 On ch=2 n=86 v=51
199517 Off ch=2 n=86 v=64
199517 Off ch=2 n=74 v=64
199622 On ch=2 n=75 v=69
199622 On ch=2 n=87 v=69
199770 Off ch=2 n=87 v=64
199770 Off ch=2 n=75 v=64
199862 On ch=2 n=80 v=57
199862 On ch=2 n=92 v=57
199975 Off ch=2 n=92 v=64
199975 Off ch=2 n=80 v=64
200102 On ch=2 n=84 v=73
200102 On ch=2 n=96 v=73
200235 Off ch=2 n=96 v=64
200235 Off ch=2 n=84 v=64
200347 On ch=2 n=83 v=47
200347 On ch=2 n=95 v=47
200485 Off ch=2 n=95 v=64
200485 Off ch=2 n=83 v=64
200580 On ch=2 n=84 v=73
200580 On ch=2 n=96 v=73
200722 Off ch=2 n=96 v=64
200722 Off ch=2 n=84 v=64
200825 On ch=2 n=89 v=55
200825 On ch=2 n=101 v=55
200957 Off ch=2 n=101 v=64
200957 Off ch=2 n=89 v=64
201060 On ch=2 n=87 v=73
201060 On ch=2 n=99 v=73
201205 Off ch=2 n=99 v=64
201205 Off ch=2 n=87 v=64
201300 On ch=2 n=84 v=52
201300 On ch=2 n=96 v=52
201440 Off ch=2 n=96 v=64
201440 Off ch=2 n=84 v=64
201537 On ch=2 n=80 v=73
201537 On ch=2 n=92 v=73
201690 Off ch=2 n=92 v=64
201690 Off ch=2 n=80 v=64
201785 On ch=2 n=79 v=47
201785 On ch=2 n=91 v=47
201922 Off ch=2 n=91 v=64
201922 Off ch=2 n=79 v=64
202022 On ch=2 n=80 v=64
202022 On ch=2 n=92 v=64
202160 Off ch=2 n=92 v=64
202160 Off ch=2 n=80 v=64
202260 On ch=2 n=85 v=51
202260 On ch=2 n=97 v=51
202395 Off ch=2 n=97 v=64
202395 Off ch=2 n=85 v=64
202497 On ch=2 n=84 v=69
202497 On ch=2 n=96 v=69
202645 Off ch=2 n=96 v=64
202645 Off ch=2 n=84 v=64
202737 On ch=2 n=80 v=46
202737 On ch=2 n=92 v=46
202850 Off ch=2 n=92 v=64
202850 Off ch=2 n=80 v=64
202982 On ch=2 n=68 v=73
202982 On ch=2 n=80 v=73
203115 Off ch=2 n=80 v=64
203115 Off ch=2 n=68 v=64
203222 On ch=2 n=75 v=47
203222 On ch=2 n=87 v=47
203360 Off ch=2 n=87 v=64
203360 Off ch=2 n=75 v=64
203460 On ch=2 n=77 v=73
203460 On ch=2 n=89 v=73
203602 Off ch=2 n=89 v=64
203602 Off ch=2 n=77 v=64
203700 On ch=2 n=85 v=48
203700 On ch=2 n=97 v=48
203832 Off ch=2 n=97 v=64
203832 Off ch=2 n=85 v=64
203940 On ch=2 n=77 v=73
203940 On ch=2 n=89 v=73
204092 Off ch=2 n=89 v=64
204092 Off ch=2 n=77 v=64
204177 On ch=2 n=75 v=48
204177 On ch=2 n=87 v=48
204317 Off ch=2 n=87 v=64
204317 Off ch=2 n=75 v=64
204417 On ch=2 n=77 v=73
204417 On ch=2 n=89 v=73
204570 Off ch=2 n=89 v=64
204570 Off ch=2 n=77 v=64
204657 On ch=2 n=76 v=37
204657 On ch=2 n=88 v=37
204797 Off ch=2 n=88 v=64
204797 Off ch=2 n=76 v=64
204905 On ch=2 n=77 v=64
204905 On ch=2 n=89 v=64
205042 Off ch=2 n=89 v=64
205042 Off ch=2 n=77 v=64
205142 On ch=2 n=84 v=51
205142 On ch=2 n=96 v=51
205277 Off ch=2 n=96 v=64
205277 Off ch=2 n=84 v=64
205382 On ch=2 n=77 v=69
205382 On ch=2 n=89 v=69
205530 Off ch=2 n=89 v=64
205530 Off ch=2 n=77 v=64
205622 On ch=2 n=84 v=57
205622 On ch=2 n=96 v=57
205735 Off ch=2 n=96 v=64
205735 Off ch=2 n=84 v=64
205862 On ch=2 n=74 v=73
205862 On ch=2 n=86 v=73
205995 Off ch=2 n=86 v=64
205995 Off ch=2 n=74 v=64
206107 On ch=2 n=77 v=47
206107 On ch=2 n=89 v=47
206245 Off ch=2 n=89 v=64
206245 Off ch=2 n=77 v=64
206340 On ch=2 n=80 v=73
206340 On ch=2 n=92 v=73
206482 Off ch=2 n=92 v=64
206482 Off ch=2 n=80 v=64
206585 On ch=2 n=82 v=55
206585 On ch=2 n=94 v=55
206717 Off ch=2 n=94 v=64
206717 Off ch=2 n=82 v=64
206820 On ch=2 n=86 v=73
206820 On ch=2 n=98 v=73
206947 Off ch=2 n=98 v=64
206947 Off ch=2 n=86 v=64
207060 On ch=2 n=82 v=52
207060 On ch=2 n=94 v=52
207200 Off ch=2 n=94 v=64
207200 Off ch=2 n=82 v=64
207342 On ch=2 n=75 v=73
207345 On ch=2 n=87 v=73
207507 Off ch=2 n=87 v=64
207545 Off ch=2 n=75 v=64
207580 On ch=2 n=77 v=64
207585 On ch=2 n=89 v=64
207715 Off ch=2 n=89 v=64
207740 Off ch=2 n=77 v=64
207807 On ch=2 n=75 v=64
207810 On ch=2 n=87 v=73
207935 Off ch=2 n=87 v=64
207950 Off ch=2 n=75 v=64
208035 On ch=2 n=86 v=64
208045 On ch=2 n=74 v=64
208197 Off ch=2 n=74 v=64
208197 Off ch=2 n=86 v=64
208267 On ch=2 n=87 v=73
208297 On ch=2 n=75 v=64
208407 Off ch=2 n=87 v=64
208455 Off ch=2 n=75 v=64
208512 On ch=2 n=89 v=69
208552 On ch=2 n=77 v=64
208675 Off ch=2 n=89 v=64
208700 Off ch=2 n=77 v=64
208735 On ch=2 n=91 v=64
208775 On ch=2 n=79 v=66
210060 Off ch=2 n=91 v=64
210072 Off ch=2 n=79 v=64
249547 On ch=2 n=72 v=63
249682 Off ch=2 n=72 v=64
250035 On ch=2 n=74 v=65
250162 Off ch=2 n=74 v=64
250515 On ch=2 n=75 v=74
250652 Off ch=2 n=75 v=64
250997 On ch=2 n=75 v=68
251210 On ch=2 n=74 v=51
251275 Off ch=2 n=75 v=64
251357 Off ch=2 n=74 v=64
251440 On ch=2 n=75 v=68
251667 On ch=2 n=77 v=54
251700 Off ch=2 n=75 v=64
251842 Off ch=2 n=77 v=64
251915 On ch=2 n=74 v=72
252050 Off ch=2 n=74 v=64
252415 On ch=2 n=74 v=72
252622 On ch=2 n=72 v=54
252660 Off ch=2 n=74 v=64
252787 Off ch=2 n=72 v=64
252877 On ch=2 n=74 v=72
253095 On ch=2 n=75 v=63
253145 Off ch=2 n=74 v=64
253275 Off ch=2 n=75 v=64
253337 On ch=2 n=72 v=74
253472 Off ch=2 n=72 v=64
254377 On ch=2 n=75 v=72
254515 Off ch=2 n=75 v=64
255300 On ch=2 n=72 v=63
255430 Off ch=2 n=72 v=64
255792 On ch=2 n=74 v=63
255917 Off ch=2 n=74 v=64
256280 On ch=2 n=75 v=72
256407 Off ch=2 n=75 v=64
256755 On ch=2 n=75 v=72
256985 On ch=2 n=74 v=50
257007 Off ch=2 n=75 v=64
257125 Off ch=2 n=74 v=64
257207 On ch=2 n=75 v=71
257447 On ch=2 n=77 v=54
257472 Off ch=2 n=75 v=64
257617 Off ch=2 n=77 v=64
257682 On ch=2 n=74 v=74
257802 Off ch=2 n=74 v=64
258177 On ch=2 n=74 v=81
258415 On ch=2 n=72 v=54
258447 Off ch=2 n=74 v=64
258590 Off ch=2 n=72 v=64
258645 On ch=2 n=74 v=72
258885 On ch=2 n=75 v=54
258905 Off ch=2 n=74 v=64
259032 Off ch=2 n=75 v=64
259115 On ch=2 n=72 v=74
259270 Off ch=2 n=72 v=64
260137 On ch=2 n=75 v=81
260285 Off ch=2 n=75 v=64
261042 On ch=2 n=84 v=64
261080 On ch=2 n=75 v=64
261200 Off ch=2 n=75 v=64
261200 Off ch=2 n=84 v=64
261512 On ch=2 n=86 v=82
261555 On ch=2 n=77 v=73
261667 Off ch=2 n=86 v=64
261680 Off ch=2 n=77 v=64
262025 On ch=2 n=87 v=84
262030 On ch=2 n=79 v=82
262160 Off ch=2 n=79 v=64
262187 Off ch=2 n=87 v=64
262515 On ch=2 n=87 v=73
262532 On ch=2 n=79 v=81
262740 On ch=2 n=77 v=60
262752 On ch=2 n=86 v=55
262775 Off ch=2 n=79 v=64
262775 Off ch=2 n=87 v=64
262882 Off ch=2 n=77 v=64
262907 Off ch=2 n=86 v=64
262950 On ch=2 n=87 v=64
262957 On ch=2 n=79 v=75
263172 On ch=2 n=89 v=73
263172 On ch=2 n=80 v=60
263207 Off ch=2 n=79 v=64
263207 Off ch=2 n=87 v=64
263345 Off ch=2 n=80 v=64
263407 On ch=2 n=86 v=73
263432 Off ch=2 n=89 v=64
263432 On ch=2 n=77 v=75
263552 Off ch=2 n=77 v=64
263565 Off ch=2 n=86 v=64
263912 On ch=2 n=86 v=91
263925 On ch=2 n=77 v=77
264152 On ch=2 n=84 v=55
264167 On ch=2 n=75 v=60
264172 Off ch=2 n=86 v=64
264190 Off ch=2 n=77 v=64
264312 Off ch=2 n=84 v=64
264317 Off ch=2 n=75 v=64
264382 On ch=2 n=86 v=82
264387 On ch=2 n=77 v=77
264610 On ch=2 n=87 v=64
264617 On ch=2 n=79 v=55
264635 Off ch=2 n=86 v=64
264660 Off ch=2 n=77 v=64
264800 Off ch=2 n=79 v=64
264855 On ch=2 n=84 v=85
264860 Off ch=2 n=87 v=64
264862 On ch=2 n=75 v=80
265002 Off ch=2 n=84 v=64
265007 Off ch=2 n=75 v=64
268275 On ch=2 n=87 v=51
268295 On ch=2 n=84 v=53
268375 Off ch=2 n=87 v=64
268380 Off ch=2 n=84 v=64
268752 On ch=2 n=84 v=46
268757 On ch=2 n=87 v=40
268862 Off ch=2 n=87 v=64
268865 Off ch=2 n=84 v=64
269702 On ch=2 n=87 v=50
269720 On ch=2 n=84 v=46
269817 Off ch=2 n=84 v=64
269830 Off ch=2 n=87 v=64
270190 On ch=2 n=87 v=46
270190 On ch=2 n=84 v=44
270312 Off ch=2 n=84 v=64
270320 Off ch=2 n=87 v=64
271175 On ch=2 n=84 v=53
271182 On ch=2 n=87 v=53
271282 Off ch=2 n=87 v=64
271285 Off ch=2 n=84 v=64
271670 On ch=2 n=84 v=46
271677 On ch=2 n=87 v=44
271775 Off ch=2 n=84 v=64
271787 Off ch=2 n=87 v=64
272597 On ch=2 n=87 v=53
272602 On ch=2 n=84 v=46
272702 Off ch=2 n=87 v=64
272710 Off ch=2 n=84 v=64
273097 On ch=2 n=87 v=44
273102 On ch=2 n=84 v=40
273200 Off ch=2 n=84 v=64
273212 Off ch=2 n=87 v=64
274035 On ch=2 n=87 v=51
274055 On ch=2 n=84 v=53
274135 Off ch=2 n=87 v=64
274140 Off ch=2 n=84 v=64
274512 On ch=2 n=84 v=46
274517 On ch=2 n=87 v=40
274622 Off ch=2 n=87 v=64
274625 Off ch=2 n=84 v=64
275462 On ch=2 n=87 v=50
275480 On ch=2 n=84 v=46
275577 Off ch=2 n=84 v=64
275590 Off ch=2 n=87 v=64
275950 On ch=2 n=87 v=46
275950 On ch=2 n=84 v=44
276072 Off ch=2 n=84 v=64
276080 Off ch=2 n=87 v=64
276935 On ch=2 n=84 v=53
276942 On ch=2 n=89 v=53
277042 Off ch=2 n=89 v=64
277045 Off ch=2 n=84 v=64
277430 On ch=2 n=84 v=46
277437 On ch=2 n=89 v=44
277535 Off ch=2 n=84 v=64
277547 Off ch=2 n=89 v=64
278357 On ch=2 n=89 v=53
278362 On ch=2 n=84 v=46
278462 Off ch=2 n=89 v=64
278470 Off ch=2 n=84 v=64
278857 On ch=2 n=89 v=44
278862 On ch=2 n=84 v=40
278960 Off ch=2 n=84 v=64
278972 Off ch=2 n=89 v=64
279795 On ch=2 n=89 v=51
279815 On ch=2 n=84 v=53
279895 Off ch=2 n=89 v=64
279900 Off ch=2 n=84 v=64
280272 On ch=2 n=84 v=46
280277 On ch=2 n=89 v=40
280382 Off ch=2 n=89 v=64
280385 Off ch=2 n=84 v=64
281222 On ch=2 n=89 v=50
281240 On ch=2 n=84 v=46
281337 Off ch=2 n=84 v=64
281350 Off ch=2 n=89 v=64
281710 On ch=2 n=89 v=46
281710 On ch=2 n=84 v=44
281832 Off ch=2 n=84 v=64
281840 Off ch=2 n=89 v=64
282695 On ch=2 n=83 v=53
282702 On ch=2 n=89 v=53
282802 Off ch=2 n=89 v=64
282805 Off ch=2 n=83 v=64
283190 On ch=2 n=83 v=46
283197 On ch=2 n=89 v=44
283295 Off ch=2 n=83 v=64
283307 Off ch=2 n=89 v=64
284117 On ch=2 n=89 v=53
284122 On ch=2 n=83 v=46
284222 Off ch=2 n=89 v=64
284230 Off ch=2 n=83 v=64
284617 On ch=2 n=89 v=44
284622 On ch=2 n=83 v=40
284720 Off ch=2 n=83 v=64
284732 Off ch=2 n=89 v=64
285555 On ch=2 n=89 v=51
285575 On ch=2 n=83 v=53
285655 Off ch=2 n=89 v=64
285660 Off ch=2 n=83 v=64
286032 On ch=2 n=83 v=46
286037 On ch=2 n=89 v=40
286142 Off ch=2 n=89 v=64
286145 Off ch=2 n=83 v=64
286982 On ch=2 n=89 v=50
287000 On ch=2 n=83 v=46
287097 Off ch=2 n=83 v=64
287110 Off ch=2 n=89 v=64
287470 On ch=2 n=89 v=46
287470 On ch=2 n=83 v=44
287592 Off ch=2 n=83 v=64
287600 Off ch=2 n=89 v=64
288455 On ch=2 n=84 v=53
288462 On ch=2 n=87 v=53
288562 Off ch=2 n=87 v=64
288565 Off ch=2 n=84 v=64
288950 On ch=2 n=84 v=46
288957 On ch=2 n=87 v=44
289055 Off ch=2 n=84 v=64
289067 Off ch=2 n=87 v=64
289877 On ch=2 n=87 v=53
289882 On ch=2 n=84 v=46
289982 Off ch=2 n=87 v=64
289990 Off ch=2 n=84 v=64
290377 On ch=2 n=87 v=44
290382 On ch=2 n=84 v=40
290480 Off ch=2 n=84 v=64
290492 Off ch=2 n=87 v=64
291315 On ch=2 n=87 v=51
291335 On ch=2 n=84 v=53
291415 Off ch=2 n=87 v=64
291420 Off ch=2 n=84 v=64
291792 On ch=2 n=84 v=46
291797 On ch=2 n=87 v=40
291902 Off ch=2 n=87 v=64
291905 Off ch=2 n=84 v=64
292742 On ch=2 n=87 v=50
292760 On ch=2 n=84 v=46
292857 Off ch=2 n=84 v=64
292870 Off ch=2 n=87 v=64
293230 On ch=2 n=87 v=46
293230 On ch=2 n=84 v=44
293352 Off ch=2 n=84 v=64
293360 Off ch=2 n=87 v=64
294215 On ch=2 n=84 v=53
294222 On ch=2 n=89 v=53
294322 Off ch=2 n=89 v=64
294325 Off ch=2 n=84 v=64
294710 On ch=2 n=84 v=46
294717 On ch=2 n=89 v=44
294815 Off ch=2 n=84 v=64
294827 Off ch=2 n=89 v=64
295637 On ch=2 n=89 v=53
295642 On ch=2 n=84 v=46
295742 Off ch=2 n=89 v=64
295750 Off ch=2 n=84 v=64
296137 On ch=2 n=89 v=44
296142 On ch=2 n=84 v=40
296240 Off ch=2 n=84 v=64
296252 Off ch=2 n=89 v=64
297075 On ch=2 n=89 v=51
297095 On ch=2 n=82 v=53
297175 Off ch=2 n=89 v=64
297197 Off ch=2 n=82 v=64
297552 On ch=2 n=82 v=46
297557 On ch=2 n=89 v=40
297662 Off ch=2 n=89 v=64
297665 Off ch=2 n=82 v=64
298502 On ch=2 n=89 v=50
298520 On ch=2 n=82 v=46
298617 Off ch=2 n=82 v=64
298630 Off ch=2 n=89 v=64
298990 On ch=2 n=89 v=46
298990 On ch=2 n=82 v=44
299112 Off ch=2 n=82 v=64
299120 Off ch=2 n=89 v=64
299975 On ch=2 n=79 v=53
299982 On ch=2 n=87 v=55
300082 Off ch=2 n=87 v=64
300085 Off ch=2 n=79 v=64
300470 On ch=2 n=79 v=46
300477 On ch=2 n=87 v=50
300575 Off ch=2 n=79 v=64
300587 Off ch=2 n=87 v=64
301387 On ch=2 n=72 v=63
301522 Off ch=2 n=72 v=64
301875 On ch=2 n=74 v=65
302002 Off ch=2 n=74 v=64
302355 On ch=2 n=75 v=74
302492 Off ch=2 n=75 v=64
302837 On ch=2 n=75 v=68
303050 On ch=2 n=74 v=51
303115 Off ch=2 n=75 v=64
303197 Off ch=2 n=74 v=64
303280 On ch=2 n=75 v=68
303507 On ch=2 n=77 v=54
303540 Off ch=2 n=75 v=64
303682 Off ch=2 n=77 v=64
303755 On ch=2 n=74 v=72
303890 Off ch=2 n=74 v=64
304255 On ch=2 n=74 v=72
304462 On ch=2 n=72 v=54
304500 Off ch=2 n=74 v=64
304627 Off ch=2 n=72 v=64
304717 On ch=2 n=74 v=72
304935 On ch=2 n=75 v=63
304985 Off ch=2 n=74 v=64
305115 Off ch=2 n=75 v=64
305177 On ch=2 n=72 v=74
305312 Off ch=2 n=72 v=64
306217 On ch=2 n=75 v=72
306355 Off ch=2 n=75 v=64
307140 On ch=2 n=72 v=63
307270 Off ch=2 n=72 v=64
307632 On ch=2 n=74 v=63
307757 Off ch=2 n=74 v=64
308120 On ch=2 n=75 v=72
308247 Off ch=2 n=75 v=64
308595 On ch=2 n=75 v=72
308825 On ch=2 n=74 v=50
308847 Off ch=2 n=75 v=64
308965 Off ch=2 n=74 v=64
309047 On ch=2 n=75 v=71
309287 On ch=2 n=77 v=54
309312 Off ch=2 n=75 v=64
309457 Off ch=2 n=77 v=64
309522 On ch=2 n=74 v=74
309642 Off ch=2 n=74 v=64
310017 On ch=2 n=74 v=81
310255 On ch=2 n=72 v=54
310287 Off ch=2 n=74 v=64
310430 Off ch=2 n=72 v=64
310485 On ch=2 n=74 v=72
310725 On ch=2 n=75 v=54
310745 Off ch=2 n=74 v=64
310872 Off ch=2 n=75 v=64
310955 On ch=2 n=72 v=74
311110 Off ch=2 n=72 v=64
311977 On ch=2 n=75 v=81
312125 Off ch=2 n=75 v=64
312915 On ch=2 n=96 v=47
312920 On ch=2 n=87 v=55
313022 Off ch=2 n=96 v=64
313040 Off ch=2 n=87 v=64
313377 On ch=2 n=98 v=65
313395 On ch=2 n=89 v=64
313507 Off ch=2 n=98 v=64
313520 Off ch=2 n=89 v=64
313865 On ch=2 n=99 v=67
313870 On ch=2 n=91 v=73
314000 Off ch=2 n=91 v=64
314002 Off ch=2 n=99 v=64
314355 On ch=2 n=99 v=62
314372 On ch=2 n=91 v=72
314580 On ch=2 n=89 v=51
314592 On ch=2 n=98 v=38
314615 Off ch=2 n=91 v=64
314615 Off ch=2 n=99 v=64
314722 Off ch=2 n=89 v=64
314747 Off ch=2 n=98 v=64
314790 On ch=2 n=99 v=47
314797 On ch=2 n=91 v=66
315012 On ch=2 n=101 v=56
315012 On ch=2 n=92 v=51
315047 Off ch=2 n=91 v=64
315047 Off ch=2 n=99 v=64
315185 Off ch=2 n=92 v=64
315247 On ch=2 n=98 v=56
315272 Off ch=2 n=101 v=64
315272 On ch=2 n=89 v=66
315392 Off ch=2 n=89 v=64
315405 Off ch=2 n=98 v=64
315752 On ch=2 n=98 v=64
315765 On ch=2 n=89 v=68
315992 On ch=2 n=96 v=38
316007 On ch=2 n=87 v=51
316012 Off ch=2 n=98 v=64
316030 Off ch=2 n=89 v=64
316120 Off ch=2 n=96 v=64
316132 Off ch=2 n=87 v=64
316222 On ch=2 n=98 v=65
316227 On ch=2 n=89 v=68
316450 On ch=2 n=99 v=47
316457 On ch=2 n=91 v=46
316475 Off ch=2 n=98 v=64
316500 Off ch=2 n=89 v=64
316640 Off ch=2 n=91 v=64
316700 Off ch=2 n=99 v=64
316702 On ch=2 n=96 v=68
316702 On ch=2 n=87 v=71
316847 Off ch=2 n=87 v=64
316850 Off ch=2 n=96 v=64
317712 On ch=2 n=89 v=91
317720 On ch=2 n=83 v=82
317835 Off ch=2 n=83 v=64
317842 Off ch=2 n=89 v=64
318215 On ch=2 n=84 v=82
318215 On ch=2 n=87 v=91
318405 Off ch=2 n=84 v=64
318422 Off ch=2 n=87 v=64
318422 Meta TrkEnd
TrkEnd
MTrk
0 Meta TrkName "Oboe      "
0 Meta 0x21 00
0 Meta 0x20 02
0 Par ch=3 c=10 v=64
43665 On ch=3 n=75 v=59
43800 Off ch=3 n=75 v=64
44140 On ch=3 n=77 v=59
44280 Off ch=3 n=77 v=64
44597 On ch=3 n=79 v=63
44722 Off ch=3 n=79 v=64
45092 On ch=3 n=79 v=71
45302 On ch=3 n=77 v=51
45327 Off ch=3 n=79 v=64
45450 Off ch=3 n=77 v=64
45520 On ch=3 n=79 v=63
45732 On ch=3 n=80 v=45
45780 Off ch=3 n=79 v=64
45995 Off ch=3 n=80 v=64
46000 On ch=3 n=77 v=63
46120 Off ch=3 n=77 v=64
46532 On ch=3 n=77 v=68
46742 On ch=3 n=75 v=51
46767 Off ch=3 n=77 v=64
46890 Off ch=3 n=75 v=64
46960 On ch=3 n=77 v=63
47172 On ch=3 n=79 v=42
47220 Off ch=3 n=77 v=64
47435 Off ch=3 n=79 v=64
47440 On ch=3 n=75 v=63
47557 Off ch=3 n=75 v=64
48432 On ch=3 n=79 v=59
48527 Off ch=3 n=79 v=64
49425 On ch=3 n=75 v=59
49560 Off ch=3 n=75 v=64
49900 On ch=3 n=77 v=59
50040 Off ch=3 n=77 v=64
50357 On ch=3 n=79 v=63
50482 Off ch=3 n=79 v=64
50852 On ch=3 n=79 v=71
51062 On ch=3 n=77 v=51
51087 Off ch=3 n=79 v=64
51210 Off ch=3 n=77 v=64
51280 On ch=3 n=79 v=63
51492 On ch=3 n=80 v=45
51540 Off ch=3 n=79 v=64
51755 Off ch=3 n=80 v=64
51760 On ch=3 n=77 v=63
51880 Off ch=3 n=77 v=64
52292 On ch=3 n=77 v=68
52502 On ch=3 n=75 v=51
52527 Off ch=3 n=77 v=64
52650 Off ch=3 n=75 v=64
52720 On ch=3 n=77 v=63
52932 On ch=3 n=79 v=42
52980 Off ch=3 n=77 v=64
53195 Off ch=3 n=79 v=64
53200 On ch=3 n=75 v=63
53317 Off ch=3 n=75 v=64
54192 On ch=3 n=79 v=59
54287 Off ch=3 n=79 v=64
55175 On ch=3 n=84 v=47
55185 On ch=3 n=75 v=51
55295 Off ch=3 n=84 v=64
55320 Off ch=3 n=75 v=64
55650 On ch=3 n=86 v=51
55660 On ch=3 n=77 v=51
55762 Off ch=3 n=86 v=64
55800 Off ch=3 n=77 v=64
56117 On ch=3 n=79 v=55
56117 On ch=3 n=87 v=51
56232 Off ch=3 n=87 v=64
56242 Off ch=3 n=79 v=64
56600 On ch=3 n=87 v=51
56612 On ch=3 n=79 v=63
56822 On ch=3 n=77 v=43
56827 On ch=3 n=86 v=39
56847 Off ch=3 n=79 v=64
56850 Off ch=3 n=87 v=64
56970 Off ch=3 n=77 v=64
57020 Off ch=3 n=86 v=64
57030 On ch=3 n=87 v=47
57040 On ch=3 n=79 v=55
57247 On ch=3 n=89 v=31
57252 On ch=3 n=80 v=37
57290 Off ch=3 n=87 v=64
57300 Off ch=3 n=79 v=64
57485 On ch=3 n=86 v=55
57507 Off ch=3 n=89 v=64
57515 Off ch=3 n=80 v=64
57520 On ch=3 n=77 v=55
57612 Off ch=3 n=86 v=64
57640 Off ch=3 n=77 v=64
58040 On ch=3 n=86 v=64
58052 On ch=3 n=77 v=60
58255 On ch=3 n=84 v=43
58262 On ch=3 n=75 v=43
58287 Off ch=3 n=77 v=64
58305 Off ch=3 n=86 v=64
58410 Off ch=3 n=75 v=64
58467 On ch=3 n=86 v=51
58470 Off ch=3 n=84 v=64
58480 On ch=3 n=77 v=55
58692 On ch=3 n=87 v=37
58692 On ch=3 n=79 v=34
58737 Off ch=3 n=86 v=64
58740 Off ch=3 n=77 v=64
58912 Off ch=3 n=87 v=64
58950 On ch=3 n=84 v=54
58955 Off ch=3 n=79 v=64
58960 On ch=3 n=75 v=58
59097 Off ch=3 n=75 v=64
59102 Off ch=3 n=84 v=64
65227 On ch=3 n=79 v=35
65232 On ch=3 n=86 v=35
65305 Off ch=3 n=86 v=64
65312 Off ch=3 n=79 v=64
65717 On ch=3 n=86 v=35
65730 On ch=3 n=79 v=35
65800 Off ch=3 n=86 v=64
65840 Off ch=3 n=79 v=64
66660 On ch=3 n=86 v=39
66667 On ch=3 n=79 v=35
66752 Off ch=3 n=86 v=64
66760 Off ch=3 n=79 v=64
67167 On ch=3 n=86 v=43
67175 On ch=3 n=79 v=39
67282 Off ch=3 n=86 v=64
67287 Off ch=3 n=79 v=64
68120 On ch=3 n=86 v=35
68120 On ch=3 n=79 v=35
68217 Off ch=3 n=86 v=64
68235 Off ch=3 n=79 v=64
68637 On ch=3 n=86 v=27
68647 On ch=3 n=79 v=31
68742 Off ch=3 n=86 v=64
68752 Off ch=3 n=79 v=64
69565 On ch=3 n=79 v=31
69565 On ch=3 n=86 v=35
69680 Off ch=3 n=86 v=64
69680 Off ch=3 n=79 v=64
70060 On ch=3 n=86 v=39
70070 On ch=3 n=79 v=35
70170 Off ch=3 n=86 v=64
70180 Off ch=3 n=79 v=64
70987 On ch=3 n=79 v=35
70992 On ch=3 n=86 v=35
71065 Off ch=3 n=86 v=64
71072 Off ch=3 n=79 v=64
71477 On ch=3 n=86 v=35
71490 On ch=3 n=79 v=35
71560 Off ch=3 n=86 v=64
71600 Off ch=3 n=79 v=64
72420 On ch=3 n=86 v=39
72427 On ch=3 n=79 v=35
72512 Off ch=3 n=86 v=64
72520 Off ch=3 n=79 v=64
72927 On ch=3 n=86 v=43
72935 On ch=3 n=79 v=39
73042 Off ch=3 n=86 v=64
73047 Off ch=3 n=79 v=64
73880 On ch=3 n=86 v=35
73880 On ch=3 n=80 v=35
73977 Off ch=3 n=86 v=64
73995 Off ch=3 n=80 v=64
74397 On ch=3 n=86 v=27
74407 On ch=3 n=80 v=31
74502 Off ch=3 n=86 v=64
74512 Off ch=3 n=80 v=64
75325 On ch=3 n=80 v=31
75325 On ch=3 n=86 v=35
75440 Off ch=3 n=86 v=64
75440 Off ch=3 n=80 v=64
75820 On ch=3 n=86 v=39
75830 On ch=3 n=80 v=35
75930 Off ch=3 n=86 v=64
75940 Off ch=3 n=80 v=64
76747 On ch=3 n=80 v=35
76752 On ch=3 n=86 v=35
76825 Off ch=3 n=86 v=64
76832 Off ch=3 n=80 v=64
77237 On ch=3 n=86 v=35
77250 On ch=3 n=80 v=35
77320 Off ch=3 n=86 v=64
77360 Off ch=3 n=80 v=64
78180 On ch=3 n=86 v=39
78187 On ch=3 n=80 v=35
78272 Off ch=3 n=86 v=64
78280 Off ch=3 n=80 v=64
78687 On ch=3 n=86 v=43
78695 On ch=3 n=80 v=39
78802 Off ch=3 n=86 v=64
78807 Off ch=3 n=80 v=64
79640 On ch=3 n=86 v=35
79640 On ch=3 n=79 v=35
79737 Off ch=3 n=86 v=64
79755 Off ch=3 n=79 v=64
80157 On ch=3 n=86 v=27
80167 On ch=3 n=79 v=31
80262 Off ch=3 n=86 v=64
80272 Off ch=3 n=79 v=64
81085 On ch=3 n=79 v=31
81085 On ch=3 n=86 v=35
81200 Off ch=3 n=86 v=64
81200 Off ch=3 n=79 v=64
81580 On ch=3 n=86 v=39
81590 On ch=3 n=79 v=35
81690 Off ch=3 n=86 v=64
81700 Off ch=3 n=79 v=64
82507 On ch=3 n=79 v=35
82512 On ch=3 n=86 v=35
82585 Off ch=3 n=86 v=64
82592 Off ch=3 n=79 v=64
82997 On ch=3 n=86 v=35
83010 On ch=3 n=79 v=35
83080 Off ch=3 n=86 v=64
83120 Off ch=3 n=79 v=64
83940 On ch=3 n=86 v=39
83947 On ch=3 n=79 v=35
84032 Off ch=3 n=86 v=64
84040 Off ch=3 n=79 v=64
84447 On ch=3 n=86 v=43
84455 On ch=3 n=79 v=39
84562 Off ch=3 n=86 v=64
84567 Off ch=3 n=79 v=64
85400 On ch=3 n=86 v=35
85400 On ch=3 n=79 v=35
85497 Off ch=3 n=86 v=64
85515 Off ch=3 n=79 v=64
85917 On ch=3 n=86 v=27
85927 On ch=3 n=79 v=31
86022 Off ch=3 n=86 v=64
86032 Off ch=3 n=79 v=64
86845 On ch=3 n=79 v=31
86845 On ch=3 n=86 v=35
86960 Off ch=3 n=86 v=64
86960 Off ch=3 n=79 v=64
87340 On ch=3 n=86 v=39
87350 On ch=3 n=79 v=35
87450 Off ch=3 n=86 v=64
87460 Off ch=3 n=79 v=64
88267 On ch=3 n=79 v=35
88272 On ch=3 n=86 v=35
88345 Off ch=3 n=86 v=64
88352 Off ch=3 n=79 v=64
88757 On ch=3 n=86 v=35
88770 On ch=3 n=79 v=35
88840 Off ch=3 n=86 v=64
88880 Off ch=3 n=79 v=64
89700 On ch=3 n=86 v=39
89707 On ch=3 n=79 v=35
89792 Off ch=3 n=86 v=64
89800 Off ch=3 n=79 v=64
90207 On ch=3 n=86 v=43
90215 On ch=3 n=79 v=39
90322 Off ch=3 n=86 v=64
90327 Off ch=3 n=79 v=64
91160 On ch=3 n=86 v=35
91160 On ch=3 n=80 v=35
91257 Off ch=3 n=86 v=64
91275 Off ch=3 n=80 v=64
91677 On ch=3 n=86 v=27
91687 On ch=3 n=80 v=31
91782 Off ch=3 n=86 v=64
91792 Off ch=3 n=80 v=64
92605 On ch=3 n=80 v=31
92605 On ch=3 n=86 v=35
92720 Off ch=3 n=86 v=64
92720 Off ch=3 n=80 v=64
93100 On ch=3 n=86 v=39
93110 On ch=3 n=80 v=35
93210 Off ch=3 n=86 v=64
93220 Off ch=3 n=80 v=64
94027 On ch=3 n=80 v=35
94032 On ch=3 n=86 v=35
94105 Off ch=3 n=86 v=64
94112 Off ch=3 n=80 v=64
94517 On ch=3 n=86 v=35
94530 On ch=3 n=80 v=35
94600 Off ch=3 n=86 v=64
94640 Off ch=3 n=80 v=64
95460 On ch=3 n=86 v=39
95467 On ch=3 n=80 v=35
95552 Off ch=3 n=86 v=64
95560 Off ch=3 n=80 v=64
95967 On ch=3 n=86 v=43
95975 On ch=3 n=80 v=39
96082 Off ch=3 n=86 v=64
96087 Off ch=3 n=80 v=64
96920 On ch=3 n=82 v=35
96920 On ch=3 n=77 v=32
97017 Off ch=3 n=82 v=64
97035 Off ch=3 n=77 v=64
97437 On ch=3 n=82 v=27
97447 On ch=3 n=77 v=30
97542 Off ch=3 n=82 v=64
97552 Off ch=3 n=77 v=64
98385 On ch=3 n=75 v=59
98520 Off ch=3 n=75 v=64
98860 On ch=3 n=77 v=59
99000 Off ch=3 n=77 v=64
99317 On ch=3 n=79 v=63
99442 Off ch=3 n=79 v=64
99812 On ch=3 n=79 v=71
100022 On ch=3 n=77 v=51
100047 Off ch=3 n=79 v=64
100170 Off ch=3 n=77 v=64
100240 On ch=3 n=79 v=63
100452 On ch=3 n=80 v=45
100500 Off ch=3 n=79 v=64
100715 Off ch=3 n=80 v=64
100720 On ch=3 n=77 v=63
100840 Off ch=3 n=77 v=64
101252 On ch=3 n=77 v=68
101462 On ch=3 n=75 v=51
101487 Off ch=3 n=77 v=64
101610 Off ch=3 n=75 v=64
101680 On ch=3 n=77 v=63
101892 On ch=3 n=79 v=42
101940 Off ch=3 n=77 v=64
102155 Off ch=3 n=79 v=64
102160 On ch=3 n=75 v=63
102277 Off ch=3 n=75 v=64
103152 On ch=3 n=79 v=59
103247 Off ch=3 n=79 v=64
104145 On ch=3 n=75 v=59
104280 Off ch=3 n=75 v=64
104620 On ch=3 n=77 v=59
104760 Off ch=3 n=77 v=64
105077 On ch=3 n=79 v=63
105202 Off ch=3 n=79 v=64
105572 On ch=3 n=79 v=71
105782 On ch=3 n=77 v=51
105807 Off ch=3 n=79 v=64
105930 Off ch=3 n=77 v=64
106000 On ch=3 n=79 v=63
106212 On ch=3 n=80 v=45
106260 Off ch=3 n=79 v=64
106475 Off ch=3 n=80 v=64
106480 On ch=3 n=77 v=63
106600 Off ch=3 n=77 v=64
107012 On ch=3 n=77 v=68
107222 On ch=3 n=75 v=51
107247 Off ch=3 n=77 v=64
107370 Off ch=3 n=75 v=64
107440 On ch=3 n=77 v=63
107652 On ch=3 n=79 v=42
107700 Off ch=3 n=77 v=64
107915 Off ch=3 n=79 v=64
107920 On ch=3 n=75 v=63
108037 Off ch=3 n=75 v=64
108912 On ch=3 n=79 v=59
109007 Off ch=3 n=79 v=64
109895 On ch=3 n=84 v=47
109905 On ch=3 n=75 v=51
110015 Off ch=3 n=84 v=64
110040 Off ch=3 n=75 v=64
110370 On ch=3 n=86 v=51
110380 On ch=3 n=77 v=51
110482 Off ch=3 n=86 v=64
110520 Off ch=3 n=77 v=64
110837 On ch=3 n=79 v=55
110837 On ch=3 n=87 v=51
110952 Off ch=3 n=87 v=64
110962 Off ch=3 n=79 v=64
111320 On ch=3 n=87 v=51
111332 On ch=3 n=79 v=63
111542 On ch=3 n=77 v=43
111547 On ch=3 n=86 v=39
111567 Off ch=3 n=79 v=64
111570 Off ch=3 n=87 v=64
111690 Off ch=3 n=77 v=64
111740 Off ch=3 n=86 v=64
111750 On ch=3 n=87 v=47
111760 On ch=3 n=79 v=55
111967 On ch=3 n=89 v=31
111972 On ch=3 n=80 v=37
112010 Off ch=3 n=87 v=64
112020 Off ch=3 n=79 v=64
112205 On ch=3 n=86 v=55
112227 Off ch=3 n=89 v=64
112235 Off ch=3 n=80 v=64
112240 On ch=3 n=77 v=55
112332 Off ch=3 n=86 v=64
112360 Off ch=3 n=77 v=64
112760 On ch=3 n=86 v=64
112772 On ch=3 n=77 v=60
112975 On ch=3 n=84 v=43
112982 On ch=3 n=75 v=43
113007 Off ch=3 n=77 v=64
113025 Off ch=3 n=86 v=64
113130 Off ch=3 n=75 v=64
113187 On ch=3 n=86 v=51
113190 Off ch=3 n=84 v=64
113200 On ch=3 n=77 v=55
113412 On ch=3 n=87 v=37
113412 On ch=3 n=79 v=34
113457 Off ch=3 n=86 v=64
113460 Off ch=3 n=77 v=64
113632 Off ch=3 n=87 v=64
113670 On ch=3 n=84 v=54
113675 Off ch=3 n=79 v=64
113680 On ch=3 n=75 v=58
113817 Off ch=3 n=75 v=64
113822 Off ch=3 n=84 v=64
208782 On ch=3 n=87 v=48
208795 On ch=3 n=83 v=44
209685 On ch=3 n=86 v=48
209725 Off ch=3 n=87 v=64
210112 Off ch=3 n=86 v=64
210125 Off ch=3 n=83 v=64
249585 On ch=3 n=75 v=59
249720 Off ch=3 n=75 v=64
250060 On ch=3 n=77 v=59
250200 Off ch=3 n=77 v=64
250517 On ch=3 n=79 v=63
250642 Off ch=3 n=79 v=64
251012 On ch=3 n=79 v=71
251222 On ch=3 n=77 v=51
251247 Off ch=3 n=79 v=64
251370 Off ch=3 n=77 v=64
251440 On ch=3 n=79 v=63
251652 On ch=3 n=80 v=45
251700 Off ch=3 n=79 v=64
251915 Off ch=3 n=80 v=64
251920 On ch=3 n=77 v=63
252040 Off ch=3 n=77 v=64
252452 On ch=3 n=77 v=68
252662 On ch=3 n=75 v=51
252687 Off ch=3 n=77 v=64
252810 Off ch=3 n=75 v=64
252880 On ch=3 n=77 v=63
253092 On ch=3 n=79 v=42
253140 Off ch=3 n=77 v=64
253355 Off ch=3 n=79 v=64
253360 On ch=3 n=75 v=63
253477 Off ch=3 n=75 v=64
254352 On ch=3 n=79 v=59
254447 Off ch=3 n=79 v=64
255345 On ch=3 n=75 v=59
255480 Off ch=3 n=75 v=64
255820 On ch=3 n=77 v=59
255960 Off ch=3 n=77 v=64
256277 On ch=3 n=79 v=63
256402 Off ch=3 n=79 v=64
256772 On ch=3 n=79 v=71
256982 On ch=3 n=77 v=51
257007 Off ch=3 n=79 v=64
257130 Off ch=3 n=77 v=64
257200 On ch=3 n=79 v=63
257412 On ch=3 n=80 v=45
257460 Off ch=3 n=79 v=64
257675 Off ch=3 n=80 v=64
257680 On ch=3 n=77 v=63
257800 Off ch=3 n=77 v=64
258212 On ch=3 n=77 v=68
258422 On ch=3 n=75 v=51
258447 Off ch=3 n=77 v=64
258570 Off ch=3 n=75 v=64
258640 On ch=3 n=77 v=63
258852 On ch=3 n=79 v=42
258900 Off ch=3 n=77 v=64
259115 Off ch=3 n=79 v=64
259120 On ch=3 n=75 v=63
259237 Off ch=3 n=75 v=64
260112 On ch=3 n=79 v=59
260207 Off ch=3 n=79 v=64
261095 On ch=3 n=84 v=47
261105 On ch=3 n=75 v=51
261215 Off ch=3 n=84 v=64
261240 Off ch=3 n=75 v=64
261570 On ch=3 n=86 v=51
261580 On ch=3 n=77 v=51
261682 Off ch=3 n=86 v=64
261720 Off ch=3 n=77 v=64
262037 On ch=3 n=79 v=55
262037 On ch=3 n=87 v=51
262152 Off ch=3 n=87 v=64
262162 Off ch=3 n=79 v=64
262520 On ch=3 n=87 v=51
262532 On ch=3 n=79 v=63
262742 On ch=3 n=77 v=43
262747 On ch=3 n=86 v=39
262767 Off ch=3 n=79 v=64
262770 Off ch=3 n=87 v=64
262890 Off ch=3 n=77 v=64
262940 Off ch=3 n=86 v=64
262950 On ch=3 n=87 v=47
262960 On ch=3 n=79 v=55
263167 On ch=3 n=89 v=31
263172 On ch=3 n=80 v=37
263210 Off ch=3 n=87 v=64
263220 Off ch=3 n=79 v=64
263405 On ch=3 n=86 v=55
263427 Off ch=3 n=89 v=64
263435 Off ch=3 n=80 v=64
263440 On ch=3 n=77 v=55
263532 Off ch=3 n=86 v=64
263560 Off ch=3 n=77 v=64
263960 On ch=3 n=86 v=64
263972 On ch=3 n=77 v=60
264175 On ch=3 n=84 v=43
264182 On ch=3 n=75 v=43
264207 Off ch=3 n=77 v=64
264225 Off ch=3 n=86 v=64
264330 Off ch=3 n=75 v=64
264387 On ch=3 n=86 v=51
264390 Off ch=3 n=84 v=64
264400 On ch=3 n=77 v=55
264612 On ch=3 n=87 v=37
264612 On ch=3 n=79 v=34
264657 Off ch=3 n=86 v=64
264660 Off ch=3 n=77 v=64
264832 Off ch=3 n=87 v=64
264870 On ch=3 n=84 v=54
264875 Off ch=3 n=79 v=64
264880 On ch=3 n=75 v=58
265017 Off ch=3 n=75 v=64
265022 Off ch=3 n=84 v=64
268267 On ch=3 n=79 v=35
268272 On ch=3 n=86 v=35
268345 Off ch=3 n=86 v=64
268352 Off ch=3 n=79 v=64
268757 On ch=3 n=86 v=35
268770 On ch=3 n=79 v=35
268840 Off ch=3 n=86 v=64
268880 Off ch=3 n=79 v=64
269700 On ch=3 n=86 v=39
269707 On ch=3 n=79 v=35
269792 Off ch=3 n=86 v=64
269800 Off ch=3 n=79 v=64
270207 On ch=3 n=86 v=43
270215 On ch=3 n=79 v=39
270322 Off ch=3 n=86 v=64
270327 Off ch=3 n=79 v=64
271160 On ch=3 n=86 v=35
271160 On ch=3 n=79 v=35
271257 Off ch=3 n=86 v=64
271275 Off ch=3 n=79 v=64
271677 On ch=3 n=86 v=27
271687 On ch=3 n=79 v=31
271782 Off ch=3 n=86 v=64
271792 Off ch=3 n=79 v=64
272605 On ch=3 n=79 v=31
272605 On ch=3 n=86 v=35
272720 Off ch=3 n=86 v=64
272720 Off ch=3 n=79 v=64
273100 On ch=3 n=86 v=39
273110 On ch=3 n=79 v=35
273210 Off ch=3 n=86 v=64
273220 Off ch=3 n=79 v=64
274027 On ch=3 n=79 v=35
274032 On ch=3 n=86 v=35
274105 Off ch=3 n=86 v=64
274112 Off ch=3 n=79 v=64
274517 On ch=3 n=86 v=35
274530 On ch=3 n=79 v=35
274600 Off ch=3 n=86 v=64
274640 Off ch=3 n=79 v=64
275460 On ch=3 n=86 v=39
275467 On ch=3 n=79 v=35
275552 Off ch=3 n=86 v=64
275560 Off ch=3 n=79 v=64
275967 On ch=3 n=86 v=43
275975 On ch=3 n=79 v=39
276082 Off ch=3 n=86 v=64
276087 Off ch=3 n=79 v=64
276920 On ch=3 n=86 v=35
276920 On ch=3 n=80 v=35
277017 Off ch=3 n=86 v=64
277035 Off ch=3 n=80 v=64
277437 On ch=3 n=86 v=27
277447 On ch=3 n=80 v=31
277542 Off ch=3 n=86 v=64
277552 Off ch=3 n=80 v=64
278365 On ch=3 n=80 v=31
278365 On ch=3 n=86 v=35
278480 Off ch=3 n=86 v=64
278480 Off ch=3 n=80 v=64
278860 On ch=3 n=86 v=39
278870 On ch=3 n=80 v=35
278970 Off ch=3 n=86 v=64
278980 Off ch=3 n=80 v=64
279787 On ch=3 n=80 v=35
279792 On ch=3 n=86 v=35
279865 Off ch=3 n=86 v=64
279872 Off ch=3 n=80 v=64
280277 On ch=3 n=86 v=35
280290 On ch=3 n=80 v=35
280360 Off ch=3 n=86 v=64
280400 Off ch=3 n=80 v=64
281220 On ch=3 n=86 v=39
281227 On ch=3 n=80 v=35
281312 Off ch=3 n=86 v=64
281320 Off ch=3 n=80 v=64
281727 On ch=3 n=86 v=43
281735 On ch=3 n=80 v=39
281842 Off ch=3 n=86 v=64
281847 Off ch=3 n=80 v=64
282680 On ch=3 n=86 v=35
282680 On ch=3 n=79 v=35
282777 Off ch=3 n=86 v=64
282795 Off ch=3 n=79 v=64
283197 On ch=3 n=86 v=27
283207 On ch=3 n=79 v=31
283302 Off ch=3 n=86 v=64
283312 Off ch=3 n=79 v=64
284125 On ch=3 n=79 v=31
284125 On ch=3 n=86 v=35
284240 Off ch=3 n=86 v=64
284240 Off ch=3 n=79 v=64
284620 On ch=3 n=86 v=39
284630 On ch=3 n=79 v=35
284730 Off ch=3 n=86 v=64
284740 Off ch=3 n=79 v=64
285547 On ch=3 n=79 v=35
285552 On ch=3 n=86 v=35
285625 Off ch=3 n=86 v=64
285632 Off ch=3 n=79 v=64
286037 On ch=3 n=86 v=35
286050 On ch=3 n=79 v=35
286120 Off ch=3 n=86 v=64
286160 Off ch=3 n=79 v=64
286980 On ch=3 n=86 v=39
286987 On ch=3 n=79 v=35
287072 Off ch=3 n=86 v=64
287080 Off ch=3 n=79 v=64
287487 On ch=3 n=86 v=43
287495 On ch=3 n=79 v=39
287602 Off ch=3 n=86 v=64
287607 Off ch=3 n=79 v=64
288440 On ch=3 n=86 v=35
288440 On ch=3 n=79 v=35
288537 Off ch=3 n=86 v=64
288555 Off ch=3 n=79 v=64
288957 On ch=3 n=86 v=27
288967 On ch=3 n=79 v=31
289062 Off ch=3 n=86 v=64
289072 Off ch=3 n=79 v=64
289885 On ch=3 n=79 v=31
289885 On ch=3 n=86 v=35
290000 Off ch=3 n=86 v=64
290000 Off ch=3 n=79 v=64
290380 On ch=3 n=86 v=39
290390 On ch=3 n=79 v=35
290490 Off ch=3 n=86 v=64
290500 Off ch=3 n=79 v=64
291307 On ch=3 n=79 v=35
291312 On ch=3 n=86 v=35
291385 Off ch=3 n=86 v=64
291392 Off ch=3 n=79 v=64
291797 On ch=3 n=86 v=35
291810 On ch=3 n=79 v=35
291880 Off ch=3 n=86 v=64
291920 Off ch=3 n=79 v=64
292740 On ch=3 n=86 v=39
292747 On ch=3 n=79 v=35
292832 Off ch=3 n=86 v=64
292840 Off ch=3 n=79 v=64
293247 On ch=3 n=86 v=43
293255 On ch=3 n=79 v=39
293362 Off ch=3 n=86 v=64
293367 Off ch=3 n=79 v=64
294200 On ch=3 n=86 v=35
294200 On ch=3 n=80 v=35
294297 Off ch=3 n=86 v=64
294315 Off ch=3 n=80 v=64
294717 On ch=3 n=86 v=27
294727 On ch=3 n=80 v=31
294822 Off ch=3 n=86 v=64
294832 Off ch=3 n=80 v=64
295645 On ch=3 n=80 v=31
295645 On ch=3 n=86 v=35
295760 Off ch=3 n=86 v=64
295760 Off ch=3 n=80 v=64
296140 On ch=3 n=86 v=39
296150 On ch=3 n=80 v=35
296250 Off ch=3 n=86 v=64
296260 Off ch=3 n=80 v=64
297067 On ch=3 n=80 v=35
297072 On ch=3 n=86 v=35
297145 Off ch=3 n=86 v=64
297152 Off ch=3 n=80 v=64
297557 On ch=3 n=86 v=35
297570 On ch=3 n=80 v=35
297640 Off ch=3 n=86 v=64
297680 Off ch=3 n=80 v=64
298500 On ch=3 n=86 v=39
298507 On ch=3 n=80 v=35
298592 Off ch=3 n=86 v=64
298600 Off ch=3 n=80 v=64
299007 On ch=3 n=86 v=43
299015 On ch=3 n=80 v=39
299122 Off ch=3 n=86 v=64
299127 Off ch=3 n=80 v=64
299960 On ch=3 n=82 v=35
299960 On ch=3 n=77 v=32
300057 Off ch=3 n=82 v=64
300075 Off ch=3 n=77 v=64
300477 On ch=3 n=82 v=27
300487 On ch=3 n=77 v=30
300582 Off ch=3 n=82 v=64
300592 Off ch=3 n=77 v=64
301425 On ch=3 n=75 v=59
301560 Off ch=3 n=75 v=64
301900 On ch=3 n=77 v=59
302040 Off ch=3 n=77 v=64
302357 On ch=3 n=79 v=63
302482 Off ch=3 n=79 v=64
302852 On ch=3 n=79 v=71
303062 On ch=3 n=77 v=51
303087 Off ch=3 n=79 v=64
303210 Off ch=3 n=77 v=64
303280 On ch=3 n=79 v=63
303492 On ch=3 n=80 v=45
303540 Off ch=3 n=79 v=64
303755 Off ch=3 n=80 v=64
303760 On ch=3 n=77 v=63
303880 Off ch=3 n=77 v=64
304292 On ch=3 n=77 v=68
304502 On ch=3 n=75 v=51
304527 Off ch=3 n=77 v=64
304650 Off ch=3 n=75 v=64
304720 On ch=3 n=77 v=63
304932 On ch=3 n=79 v=42
304980 Off ch=3 n=77 v=64
305195 Off ch=3 n=79 v=64
305200 On ch=3 n=75 v=63
305317 Off ch=3 n=75 v=64
306192 On ch=3 n=79 v=59
306287 Off ch=3 n=79 v=64
307185 On ch=3 n=75 v=59
307320 Off ch=3 n=75 v=64
307660 On ch=3 n=77 v=59
307800 Off ch=3 n=77 v=64
308117 On ch=3 n=79 v=63
308242 Off ch=3 n=79 v=64
308612 On ch=3 n=79 v=71
308822 On ch=3 n=77 v=51
308847 Off ch=3 n=79 v=64
308970 Off ch=3 n=77 v=64
309040 On ch=3 n=79 v=63
309252 On ch=3 n=80 v=45
309300 Off ch=3 n=79 v=64
309515 Off ch=3 n=80 v=64
309520 On ch=3 n=77 v=63
309640 Off ch=3 n=77 v=64
310052 On ch=3 n=77 v=68
310262 On ch=3 n=75 v=51
310287 Off ch=3 n=77 v=64
310410 Off ch=3 n=75 v=64
310480 On ch=3 n=77 v=63
310692 On ch=3 n=79 v=42
310740 Off ch=3 n=77 v=64
310955 Off ch=3 n=79 v=64
310960 On ch=3 n=75 v=63
311077 Off ch=3 n=75 v=64
311952 On ch=3 n=79 v=59
312047 Off ch=3 n=79 v=64
312935 On ch=3 n=84 v=47
312945 On ch=3 n=75 v=51
313055 Off ch=3 n=84 v=64
313080 Off ch=3 n=75 v=64
313410 On ch=3 n=86 v=51
313420 On ch=3 n=77 v=51
313522 Off ch=3 n=86 v=64
313560 Off ch=3 n=77 v=64
313877 On ch=3 n=79 v=55
313877 On ch=3 n=87 v=51
313992 Off ch=3 n=87 v=64
314002 Off ch=3 n=79 v=64
314360 On ch=3 n=87 v=51
314372 On ch=3 n=79 v=63
314582 On ch=3 n=77 v=43
314587 On ch=3 n=86 v=39
314607 Off ch=3 n=79 v=64
314610 Off ch=3 n=87 v=64
314730 Off ch=3 n=77 v=64
314780 Off ch=3 n=86 v=64
314790 On ch=3 n=87 v=47
314800 On ch=3 n=79 v=55
315007 On ch=3 n=89 v=31
315012 On ch=3 n=80 v=37
315050 Off ch=3 n=87 v=64
315060 Off ch=3 n=79 v=64
315245 On ch=3 n=86 v=55
315267 Off ch=3 n=89 v=64
315275 Off ch=3 n=80 v=64
315280 On ch=3 n=77 v=55
315372 Off ch=3 n=86 v=64
315400 Off ch=3 n=77 v=64
315800 On ch=3 n=86 v=64
315812 On ch=3 n=77 v=60
316015 On ch=3 n=84 v=43
316022 On ch=3 n=75 v=43
316047 Off ch=3 n=77 v=64
316065 Off ch=3 n=86 v=64
316170 Off ch=3 n=75 v=64
316227 On ch=3 n=86 v=51
316230 Off ch=3 n=84 v=64
316240 On ch=3 n=77 v=55
316452 On ch=3 n=87 v=37
316452 On ch=3 n=79 v=34
316497 Off ch=3 n=86 v=64
316500 Off ch=3 n=77 v=64
316672 Off ch=3 n=87 v=64
316710 On ch=3 n=84 v=54
316715 Off ch=3 n=79 v=64
316720 On ch=3 n=75 v=58
316857 Off ch=3 n=75 v=64
316862 Off ch=3 n=84 v=64
317667 On ch=3 n=79 v=64
317677 On ch=3 n=77 v=64
317820 Off ch=3 n=79 v=64
317830 Off ch=3 n=77 v=64
318207 On ch=3 n=79 v=67
318227 On ch=3 n=75 v=64
318355 Off ch=3 n=75 v=64
318355 Off ch=3 n=79 v=64
318355 Meta TrkEnd
TrkEnd
MTrk
0 Meta TrkName "Clarinet  "
0 Meta 0x21 00
0 Meta 0x20 03
0 Par ch=4 c=10 v=64
43642 On ch=4 n=60 v=28
43762 Off ch=4 n=60 v=64
44132 On ch=4 n=62 v=37
44247 Off ch=4 n=62 v=64
44617 On ch=4 n=63 v=37
44720 Off ch=4 n=63 v=64
45090 On ch=4 n=63 v=28
45305 On ch=4 n=62 v=28
45330 Off ch=4 n=63 v=64
45455 Off ch=4 n=62 v=64
45542 On ch=4 n=63 v=37
45772 Off ch=4 n=63 v=64
45782 On ch=4 n=65 v=28
45932 Off ch=4 n=65 v=64
46015 On ch=4 n=62 v=37
46150 Off ch=4 n=62 v=64
46527 On ch=4 n=62 v=37
46772 Off ch=4 n=62 v=64
46772 On ch=4 n=60 v=20
46907 Off ch=4 n=60 v=64
47000 On ch=4 n=62 v=37
47202 Off ch=4 n=62 v=64
47250 On ch=4 n=63 v=24
47415 Off ch=4 n=63 v=64
47462 On ch=4 n=60 v=39
47610 Off ch=4 n=60 v=64
48477 On ch=4 n=63 v=28
48622 Off ch=4 n=63 v=64
49402 On ch=4 n=60 v=28
49522 Off ch=4 n=60 v=64
49892 On ch=4 n=62 v=37
50007 Off ch=4 n=62 v=64
50377 On ch=4 n=63 v=37
50480 Off ch=4 n=63 v=64
50850 On ch=4 n=63 v=28
51065 On ch=4 n=62 v=28
51090 Off ch=4 n=63 v=64
51215 Off ch=4 n=62 v=64
51302 On ch=4 n=63 v=37
51532 Off ch=4 n=63 v=64
51542 On ch=4 n=65 v=28
51692 Off ch=4 n=65 v=64
51775 On ch=4 n=62 v=37
51910 Off ch=4 n=62 v=64
52287 On ch=4 n=62 v=37
52532 Off ch=4 n=62 v=64
52532 On ch=4 n=60 v=20
52667 Off ch=4 n=60 v=64
52760 On ch=4 n=62 v=37
52962 Off ch=4 n=62 v=64
53002 On ch=4 n=63 v=28
53150 Off ch=4 n=63 v=64
53222 On ch=4 n=60 v=24
53370 Off ch=4 n=60 v=64
54237 On ch=4 n=63 v=28
54382 Off ch=4 n=63 v=64
55162 On ch=4 n=60 v=28
55282 Off ch=4 n=60 v=64
55652 On ch=4 n=62 v=37
55767 Off ch=4 n=62 v=64
56137 On ch=4 n=63 v=37
56240 Off ch=4 n=63 v=64
56610 On ch=4 n=63 v=28
56825 On ch=4 n=62 v=28
56850 Off ch=4 n=63 v=64
56975 Off ch=4 n=62 v=64
57062 On ch=4 n=63 v=37
57292 Off ch=4 n=63 v=64
57302 On ch=4 n=65 v=28
57452 Off ch=4 n=65 v=64
57535 On ch=4 n=62 v=37
57670 Off ch=4 n=62 v=64
58047 On ch=4 n=62 v=37
58292 Off ch=4 n=62 v=64
58292 On ch=4 n=60 v=20
58427 Off ch=4 n=60 v=64
58520 On ch=4 n=62 v=37
58722 Off ch=4 n=62 v=64
58762 On ch=4 n=63 v=28
58910 Off ch=4 n=63 v=64
58982 On ch=4 n=60 v=24
59130 Off ch=4 n=60 v=64
98362 On ch=4 n=60 v=28
98482 Off ch=4 n=60 v=64
98852 On ch=4 n=62 v=37
98967 Off ch=4 n=62 v=64
99337 On ch=4 n=63 v=37
99440 Off ch=4 n=63 v=64
99810 On ch=4 n=63 v=28
100025 On ch=4 n=62 v=28
100050 Off ch=4 n=63 v=64
100175 Off ch=4 n=62 v=64
100262 On ch=4 n=63 v=37
100492 Off ch=4 n=63 v=64
100502 On ch=4 n=65 v=28
100652 Off ch=4 n=65 v=64
100735 On ch=4 n=62 v=37
100870 Off ch=4 n=62 v=64
101247 On ch=4 n=62 v=37
101492 Off ch=4 n=62 v=64
101492 On ch=4 n=60 v=20
101627 Off ch=4 n=60 v=64
101720 On ch=4 n=62 v=37
101922 Off ch=4 n=62 v=64
101970 On ch=4 n=63 v=24
102135 Off ch=4 n=63 v=64
102182 On ch=4 n=60 v=39
102330 Off ch=4 n=60 v=64
103197 On ch=4 n=63 v=28
103342 Off ch=4 n=63 v=64
104122 On ch=4 n=60 v=28
104242 Off ch=4 n=60 v=64
104612 On ch=4 n=62 v=37
104727 Off ch=4 n=62 v=64
105097 On ch=4 n=63 v=37
105200 Off ch=4 n=63 v=64
105570 On ch=4 n=63 v=28
105785 On ch=4 n=62 v=28
105810 Off ch=4 n=63 v=64
105935 Off ch=4 n=62 v=64
106022 On ch=4 n=63 v=37
106252 Off ch=4 n=63 v=64
106262 On ch=4 n=65 v=28
106412 Off ch=4 n=65 v=64
106495 On ch=4 n=62 v=37
106630 Off ch=4 n=62 v=64
107007 On ch=4 n=62 v=37
107252 Off ch=4 n=62 v=64
107252 On ch=4 n=60 v=20
107387 Off ch=4 n=60 v=64
107480 On ch=4 n=62 v=37
107682 Off ch=4 n=62 v=64
107722 On ch=4 n=63 v=28
107870 Off ch=4 n=63 v=64
107942 On ch=4 n=60 v=24
108090 Off ch=4 n=60 v=64
108957 On ch=4 n=63 v=28
109102 Off ch=4 n=63 v=64
109882 On ch=4 n=60 v=28
110002 Off ch=4 n=60 v=64
110372 On ch=4 n=62 v=37
110487 Off ch=4 n=62 v=64
110857 On ch=4 n=63 v=37
110960 Off ch=4 n=63 v=64
111330 On ch=4 n=63 v=28
111545 On ch=4 n=62 v=28
111570 Off ch=4 n=63 v=64
111695 Off ch=4 n=62 v=64
111782 On ch=4 n=63 v=37
112012 Off ch=4 n=63 v=64
112022 On ch=4 n=65 v=28
112172 Off ch=4 n=65 v=64
112255 On ch=4 n=62 v=37
112390 Off ch=4 n=62 v=64
112767 On ch=4 n=62 v=37
113012 Off ch=4 n=62 v=64
113012 On ch=4 n=60 v=20
113147 Off ch=4 n=60 v=64
113240 On ch=4 n=62 v=37
113442 Off ch=4 n=62 v=64
113482 On ch=4 n=63 v=28
113630 Off ch=4 n=63 v=64
113702 On ch=4 n=60 v=24
113850 Off ch=4 n=60 v=64
116135 On ch=4 n=70 v=47
116150 On ch=4 n=74 v=42
116615 On ch=4 n=79 v=44
116615 On ch=4 n=75 v=43
116635 Off ch=4 n=70 v=64
116665 Off ch=4 n=74 v=64
117755 Off ch=4 n=79 v=64
117772 Off ch=4 n=75 v=64
118042 On ch=4 n=75 v=42
118047 On ch=4 n=79 v=48
119185 Off ch=4 n=75 v=64
119207 Off ch=4 n=79 v=64
119482 On ch=4 n=79 v=48
119487 On ch=4 n=75 v=51
119970 On ch=4 n=82 v=48
119975 On ch=4 n=74 v=43
119985 Off ch=4 n=75 v=64
120017 Off ch=4 n=79 v=64
120427 Off ch=4 n=82 v=64
120445 Off ch=4 n=74 v=64
120445 On ch=4 n=80 v=44
120447 On ch=4 n=72 v=43
120932 On ch=4 n=79 v=48
120935 On ch=4 n=70 v=43
120970 Off ch=4 n=72 v=64
120972 Off ch=4 n=80 v=64
121420 On ch=4 n=75 v=48
121422 On ch=4 n=67 v=43
121437 Off ch=4 n=79 v=64
121482 Off ch=4 n=70 v=64
121890 Off ch=4 n=67 v=64
121892 On ch=4 n=70 v=46
121900 On ch=4 n=79 v=48
121915 Off ch=4 n=75 v=64
122362 On ch=4 n=82 v=52
122370 On ch=4 n=74 v=47
122372 Off ch=4 n=79 v=64
122410 Off ch=4 n=70 v=64
123625 Off ch=4 n=82 v=64
123647 Off ch=4 n=74 v=64
123785 On ch=4 n=82 v=56
123830 On ch=4 n=74 v=51
125050 Off ch=4 n=74 v=64
125250 On ch=4 n=80 v=52
125255 On ch=4 n=72 v=51
125307 Off ch=4 n=82 v=64
125717 On ch=4 n=79 v=52
125745 Off ch=4 n=80 v=64
125747 On ch=4 n=70 v=39
125765 Off ch=4 n=72 v=64
126202 On ch=4 n=67 v=43
126210 On ch=4 n=75 v=47
126242 Off ch=4 n=70 v=64
126247 Off ch=4 n=79 v=64
126675 On ch=4 n=63 v=43
126687 On ch=4 n=72 v=52
126700 Off ch=4 n=67 v=64
126705 Off ch=4 n=75 v=64
127145 On ch=4 n=65 v=47
127155 Off ch=4 n=63 v=64
127182 On ch=4 n=74 v=44
127220 Off ch=4 n=72 v=64
127640 On ch=4 n=75 v=48
127642 On ch=4 n=67 v=51
127672 Off ch=4 n=65 v=64
127675 Off ch=4 n=74 v=64
128137 On ch=4 n=72 v=52
128145 On ch=4 n=80 v=48
128165 Off ch=4 n=75 v=64
128182 Off ch=4 n=67 v=64
129355 Off ch=4 n=72 v=64
129452 Off ch=4 n=80 v=64
129540 On ch=4 n=79 v=48
129557 On ch=4 n=70 v=43
130705 Off ch=4 n=70 v=64
130727 Off ch=4 n=79 v=64
130990 On ch=4 n=70 v=47
131010 On ch=4 n=79 v=52
131460 On ch=4 n=68 v=43
131507 On ch=4 n=77 v=46
131515 Off ch=4 n=79 v=64
131552 Off ch=4 n=70 v=64
131965 On ch=4 n=76 v=46
131965 On ch=4 n=67 v=47
131982 Off ch=4 n=77 v=64
132035 Off ch=4 n=68 v=64
132447 On ch=4 n=65 v=43
132467 On ch=4 n=77 v=52
132520 Off ch=4 n=67 v=64
132530 Off ch=4 n=76 v=64
132942 On ch=4 n=75 v=47
132950 On ch=4 n=63 v=40
132955 Off ch=4 n=65 v=64
132960 Off ch=4 n=77 v=64
133407 On ch=4 n=65 v=40
133417 Off ch=4 n=75 v=64
133417 On ch=4 n=77 v=48
133470 Off ch=4 n=63 v=64
133880 On ch=4 n=67 v=47
133905 On ch=4 n=75 v=44
133917 Off ch=4 n=65 v=64
133950 Off ch=4 n=77 v=64
134862 On ch=4 n=70 v=43
134865 On ch=4 n=79 v=40
134895 Off ch=4 n=75 v=64
134905 Off ch=4 n=67 v=64
135317 On ch=4 n=65 v=39
135327 On ch=4 n=74 v=40
135350 Off ch=4 n=79 v=64
135352 Off ch=4 n=70 v=64
136292 On ch=4 n=80 v=40
136300 On ch=4 n=70 v=39
136357 Off ch=4 n=74 v=64
136360 Off ch=4 n=65 v=64
136787 On ch=4 n=75 v=48
136800 On ch=4 n=67 v=47
136802 Off ch=4 n=80 v=64
136845 Off ch=4 n=70 v=64
137705 Off ch=4 n=67 v=64
137725 On ch=4 n=70 v=43
137732 On ch=4 n=79 v=48
137770 Off ch=4 n=75 v=64
138162 Off ch=4 n=79 v=64
138195 On ch=4 n=79 v=44
138220 Off ch=4 n=70 v=64
138222 On ch=4 n=75 v=46
139175 On ch=4 n=82 v=37
139185 On ch=4 n=77 v=31
139240 Off ch=4 n=79 v=64
139260 Off ch=4 n=75 v=64
139655 On ch=4 n=79 v=43
139655 On ch=4 n=87 v=44
139687 Off ch=4 n=77 v=64
139692 Off ch=4 n=82 v=64
140795 Off ch=4 n=87 v=64
140812 Off ch=4 n=79 v=64
141082 On ch=4 n=79 v=42
141087 On ch=4 n=87 v=48
142225 Off ch=4 n=79 v=64
142247 Off ch=4 n=87 v=64
142522 On ch=4 n=87 v=48
142527 On ch=4 n=79 v=51
143010 On ch=4 n=86 v=48
143015 On ch=4 n=77 v=43
143025 Off ch=4 n=79 v=64
143057 Off ch=4 n=87 v=64
143467 Off ch=4 n=86 v=64
143485 Off ch=4 n=77 v=64
143485 On ch=4 n=84 v=44
143487 On ch=4 n=75 v=43
143972 On ch=4 n=82 v=48
143975 On ch=4 n=74 v=43
144010 Off ch=4 n=75 v=64
144012 Off ch=4 n=84 v=64
144460 On ch=4 n=79 v=48
144462 On ch=4 n=70 v=43
144477 Off ch=4 n=82 v=64
144522 Off ch=4 n=74 v=64
144930 Off ch=4 n=70 v=64
144932 On ch=4 n=74 v=46
144940 On ch=4 n=82 v=48
144955 Off ch=4 n=79 v=64
145402 On ch=4 n=86 v=52
145410 On ch=4 n=77 v=47
145412 Off ch=4 n=82 v=64
145450 Off ch=4 n=74 v=64
146665 Off ch=4 n=86 v=64
146687 Off ch=4 n=77 v=64
146825 On ch=4 n=86 v=56
146870 On ch=4 n=77 v=51
148090 Off ch=4 n=77 v=64
148245 Off ch=4 n=86 v=64
148290 On ch=4 n=86 v=52
148295 On ch=4 n=77 v=51
148757 On ch=4 n=84 v=52
148785 Off ch=4 n=86 v=64
148787 On ch=4 n=75 v=39
148805 Off ch=4 n=77 v=64
149242 On ch=4 n=74 v=43
149250 On ch=4 n=82 v=47
149282 Off ch=4 n=75 v=64
149287 Off ch=4 n=84 v=64
149715 On ch=4 n=72 v=43
149727 On ch=4 n=80 v=52
149740 Off ch=4 n=74 v=64
149745 Off ch=4 n=82 v=64
150185 On ch=4 n=67 v=47
150195 Off ch=4 n=72 v=64
150222 On ch=4 n=75 v=44
150260 Off ch=4 n=80 v=64
150680 On ch=4 n=79 v=48
150682 On ch=4 n=70 v=51
150712 Off ch=4 n=67 v=64
150715 Off ch=4 n=75 v=64
151130 Off ch=4 n=79 v=64
151177 On ch=4 n=75 v=52
151185 On ch=4 n=79 v=48
151222 Off ch=4 n=70 v=64
152395 Off ch=4 n=75 v=64
152492 Off ch=4 n=79 v=64
152580 On ch=4 n=79 v=48
152597 On ch=4 n=75 v=43
153745 Off ch=4 n=75 v=64
153767 Off ch=4 n=79 v=64
154030 On ch=4 n=75 v=47
154050 On ch=4 n=80 v=52
155167 Off ch=4 n=75 v=64
155205 Off ch=4 n=80 v=64
155487 On ch=4 n=77 v=43
155507 On ch=4 n=80 v=52
155982 On ch=4 n=79 v=47
155990 On ch=4 n=75 v=40
155995 Off ch=4 n=77 v=64
156000 Off ch=4 n=80 v=64
156447 On ch=4 n=77 v=40
156457 Off ch=4 n=79 v=64
156457 On ch=4 n=80 v=48
156510 Off ch=4 n=75 v=64
156920 On ch=4 n=79 v=47
156945 On ch=4 n=82 v=44
156957 Off ch=4 n=77 v=64
156990 Off ch=4 n=80 v=64
157870 Off ch=4 n=79 v=64
157902 On ch=4 n=75 v=43
157905 On ch=4 n=79 v=40
157935 Off ch=4 n=82 v=64
158360 On ch=4 n=74 v=48
158370 On ch=4 n=70 v=48
158390 Off ch=4 n=79 v=64
158392 Off ch=4 n=75 v=64
158832 On ch=4 n=72 v=52
158842 On ch=4 n=75 v=52
158847 Off ch=4 n=74 v=64
158862 Off ch=4 n=70 v=64
159302 On ch=4 n=74 v=49
159310 On ch=4 n=77 v=44
159325 Off ch=4 n=72 v=64
159387 Off ch=4 n=75 v=64
159770 On ch=4 n=79 v=50
159812 On ch=4 n=75 v=50
159845 Off ch=4 n=77 v=64
159897 Off ch=4 n=74 v=64
159947 Off ch=4 n=79 v=64
160005 Off ch=4 n=75 v=64
161232 On ch=4 n=63 v=24
161242 On ch=4 n=70 v=27
162602 Off ch=4 n=63 v=64
162610 Off ch=4 n=70 v=64
249562 On ch=4 n=60 v=28
249682 Off ch=4 n=60 v=64
250052 On ch=4 n=62 v=37
250167 Off ch=4 n=62 v=64
250537 On ch=4 n=63 v=37
250640 Off ch=4 n=63 v=64
251010 On ch=4 n=63 v=28
251225 On ch=4 n=62 v=28
251250 Off ch=4 n=63 v=64
251375 Off ch=4 n=62 v=64
251462 On ch=4 n=63 v=37
251692 Off ch=4 n=63 v=64
251702 On ch=4 n=65 v=28
251852 Off ch=4 n=65 v=64
251935 On ch=4 n=62 v=37
252070 Off ch=4 n=62 v=64
252447 On ch=4 n=62 v=37
252692 Off ch=4 n=62 v=64
252692 On ch=4 n=60 v=20
252827 Off ch=4 n=60 v=64
252920 On ch=4 n=62 v=37
253122 Off ch=4 n=62 v=64
253170 On ch=4 n=63 v=24
253335 Off ch=4 n=63 v=64
253382 On ch=4 n=60 v=39
253530 Off ch=4 n=60 v=64
254397 On ch=4 n=63 v=28
254542 Off ch=4 n=63 v=64
255322 On ch=4 n=60 v=28
255442 Off ch=4 n=60 v=64
255812 On ch=4 n=62 v=37
255927 Off ch=4 n=62 v=64
256297 On ch=4 n=63 v=37
256400 Off ch=4 n=63 v=64
256770 On ch=4 n=63 v=28
256985 On ch=4 n=62 v=28
257010 Off ch=4 n=63 v=64
257135 Off ch=4 n=62 v=64
257222 On ch=4 n=63 v=37
257452 Off ch=4 n=63 v=64
257462 On ch=4 n=65 v=28
257612 Off ch=4 n=65 v=64
257695 On ch=4 n=62 v=37
257830 Off ch=4 n=62 v=64
258207 On ch=4 n=62 v=37
258452 Off ch=4 n=62 v=64
258452 On ch=4 n=60 v=20
258587 Off ch=4 n=60 v=64
258680 On ch=4 n=62 v=37
258882 Off ch=4 n=62 v=64
258922 On ch=4 n=63 v=28
259070 Off ch=4 n=63 v=64
259142 On ch=4 n=60 v=24
259290 Off ch=4 n=60 v=64
260157 On ch=4 n=63 v=28
260302 Off ch=4 n=63 v=64
261082 On ch=4 n=60 v=28
261202 Off ch=4 n=60 v=64
261572 On ch=4 n=62 v=37
261687 Off ch=4 n=62 v=64
262057 On ch=4 n=63 v=37
262160 Off ch=4 n=63 v=64
262530 On ch=4 n=63 v=28
262745 On ch=4 n=62 v=28
262770 Off ch=4 n=63 v=64
262895 Off ch=4 n=62 v=64
262982 On ch=4 n=63 v=37
263212 Off ch=4 n=63 v=64
263222 On ch=4 n=65 v=28
263372 Off ch=4 n=65 v=64
263455 On ch=4 n=62 v=37
263590 Off ch=4 n=62 v=64
263967 On ch=4 n=62 v=37
264212 Off ch=4 n=62 v=64
264212 On ch=4 n=60 v=20
264347 Off ch=4 n=60 v=64
264440 On ch=4 n=62 v=37
264642 Off ch=4 n=62 v=64
264682 On ch=4 n=63 v=28
264830 Off ch=4 n=63 v=64
264902 On ch=4 n=60 v=24
265050 Off ch=4 n=60 v=64
268292 On ch=4 n=72 v=48
268292 On ch=4 n=67 v=52
268387 Off ch=4 n=72 v=64
268397 Off ch=4 n=67 v=64
268780 On ch=4 n=67 v=48
268785 On ch=4 n=72 v=40
268935 Off ch=4 n=72 v=64
268940 Off ch=4 n=67 v=64
269742 On ch=4 n=67 v=48
269750 On ch=4 n=72 v=44
269860 Off ch=4 n=72 v=64
269880 Off ch=4 n=67 v=64
270235 On ch=4 n=67 v=48
270242 On ch=4 n=72 v=44
270377 Off ch=4 n=72 v=64
270385 Off ch=4 n=67 v=64
271167 On ch=4 n=67 v=44
271167 On ch=4 n=72 v=48
271307 Off ch=4 n=72 v=64
271317 Off ch=4 n=67 v=64
271667 On ch=4 n=67 v=48
271672 On ch=4 n=72 v=48
271812 Off ch=4 n=72 v=64
271830 Off ch=4 n=67 v=64
272622 On ch=4 n=67 v=48
272625 On ch=4 n=72 v=48
272755 Off ch=4 n=72 v=64
272762 Off ch=4 n=67 v=64
273110 On ch=4 n=67 v=52
273117 On ch=4 n=72 v=44
273270 Off ch=4 n=72 v=64
273282 Off ch=4 n=67 v=64
274052 On ch=4 n=72 v=48
274052 On ch=4 n=67 v=52
274147 Off ch=4 n=72 v=64
274157 Off ch=4 n=67 v=64
274540 On ch=4 n=67 v=48
274545 On ch=4 n=72 v=40
274695 Off ch=4 n=72 v=64
274700 Off ch=4 n=67 v=64
275502 On ch=4 n=67 v=48
275510 On ch=4 n=72 v=44
275620 Off ch=4 n=72 v=64
275640 Off ch=4 n=67 v=64
275995 On ch=4 n=67 v=48
276002 On ch=4 n=72 v=44
276137 Off ch=4 n=72 v=64
276145 Off ch=4 n=67 v=64
276927 On ch=4 n=68 v=44
276927 On ch=4 n=72 v=48
277067 Off ch=4 n=72 v=64
277077 Off ch=4 n=68 v=64
277427 On ch=4 n=68 v=48
277432 On ch=4 n=72 v=48
277572 Off ch=4 n=72 v=64
277590 Off ch=4 n=68 v=64
278382 On ch=4 n=68 v=48
278385 On ch=4 n=72 v=48
278515 Off ch=4 n=72 v=64
278522 Off ch=4 n=68 v=64
278870 On ch=4 n=68 v=52
278877 On ch=4 n=72 v=44
279030 Off ch=4 n=72 v=64
279042 Off ch=4 n=68 v=64
279812 On ch=4 n=72 v=48
279812 On ch=4 n=68 v=52
279907 Off ch=4 n=72 v=64
279917 Off ch=4 n=68 v=64
280300 On ch=4 n=68 v=48
280305 On ch=4 n=72 v=40
280455 Off ch=4 n=72 v=64
280460 Off ch=4 n=68 v=64
281262 On ch=4 n=68 v=48
281270 On ch=4 n=72 v=44
281380 Off ch=4 n=72 v=64
281400 Off ch=4 n=68 v=64
281755 On ch=4 n=68 v=48
281762 On ch=4 n=72 v=44
281897 Off ch=4 n=72 v=64
281905 Off ch=4 n=68 v=64
282687 On ch=4 n=67 v=44
282687 On ch=4 n=71 v=48
282827 Off ch=4 n=71 v=64
282837 Off ch=4 n=67 v=64
283187 On ch=4 n=67 v=48
283192 On ch=4 n=71 v=48
283332 Off ch=4 n=71 v=64
283350 Off ch=4 n=67 v=64
284142 On ch=4 n=67 v=48
284145 On ch=4 n=71 v=48
284275 Off ch=4 n=71 v=64
284282 Off ch=4 n=67 v=64
284630 On ch=4 n=67 v=52
284637 On ch=4 n=71 v=44
284790 Off ch=4 n=71 v=64
284802 Off ch=4 n=67 v=64
285572 On ch=4 n=71 v=48
285572 On ch=4 n=67 v=52
285667 Off ch=4 n=71 v=64
285677 Off ch=4 n=67 v=64
286060 On ch=4 n=67 v=48
286065 On ch=4 n=71 v=40
286215 Off ch=4 n=71 v=64
286220 Off ch=4 n=67 v=64
287022 On ch=4 n=67 v=48
287030 On ch=4 n=71 v=44
287140 Off ch=4 n=71 v=64
287160 Off ch=4 n=67 v=64
287515 On ch=4 n=67 v=48
287522 On ch=4 n=71 v=44
287657 Off ch=4 n=71 v=64
287665 Off ch=4 n=67 v=64
288447 On ch=4 n=67 v=44
288447 On ch=4 n=72 v=48
288587 Off ch=4 n=72 v=64
288597 Off ch=4 n=67 v=64
288947 On ch=4 n=67 v=48
288952 On ch=4 n=72 v=48
289092 Off ch=4 n=72 v=64
289110 Off ch=4 n=67 v=64
289902 On ch=4 n=67 v=48
289905 On ch=4 n=72 v=48
290035 Off ch=4 n=72 v=64
290042 Off ch=4 n=67 v=64
290390 On ch=4 n=67 v=52
290397 On ch=4 n=72 v=44
290550 Off ch=4 n=72 v=64
290562 Off ch=4 n=67 v=64
291332 On ch=4 n=72 v=48
291332 On ch=4 n=67 v=52
291427 Off ch=4 n=72 v=64
291437 Off ch=4 n=67 v=64
291820 On ch=4 n=67 v=48
291825 On ch=4 n=72 v=40
291975 Off ch=4 n=72 v=64
291980 Off ch=4 n=67 v=64
292782 On ch=4 n=67 v=48
292790 On ch=4 n=72 v=44
292900 Off ch=4 n=72 v=64
292920 Off ch=4 n=67 v=64
293275 On ch=4 n=67 v=48
293282 On ch=4 n=72 v=44
293417 Off ch=4 n=72 v=64
293425 Off ch=4 n=67 v=64
294207 On ch=4 n=68 v=44
294207 On ch=4 n=74 v=48
294347 Off ch=4 n=74 v=64
294357 Off ch=4 n=68 v=64
294707 On ch=4 n=68 v=48
294712 On ch=4 n=74 v=48
294852 Off ch=4 n=74 v=64
294870 Off ch=4 n=68 v=64
295662 On ch=4 n=68 v=48
295665 On ch=4 n=74 v=48
295795 Off ch=4 n=74 v=64
295802 Off ch=4 n=68 v=64
296150 On ch=4 n=68 v=52
296157 On ch=4 n=74 v=44
296310 Off ch=4 n=74 v=64
296322 Off ch=4 n=68 v=64
297087 On ch=4 n=68 v=44
297087 On ch=4 n=74 v=48
297227 Off ch=4 n=74 v=64
297237 Off ch=4 n=68 v=64
297587 On ch=4 n=68 v=48
297592 On ch=4 n=74 v=48
297732 Off ch=4 n=74 v=64
297750 Off ch=4 n=68 v=64
298542 On ch=4 n=68 v=48
298545 On ch=4 n=74 v=48
298675 Off ch=4 n=74 v=64
298682 Off ch=4 n=68 v=64
299030 On ch=4 n=68 v=52
299037 On ch=4 n=74 v=44
299190 Off ch=4 n=74 v=64
299202 Off ch=4 n=68 v=64
299967 On ch=4 n=67 v=44
299967 On ch=4 n=75 v=48
300107 Off ch=4 n=75 v=64
300117 Off ch=4 n=67 v=64
300467 On ch=4 n=67 v=48
300472 On ch=4 n=75 v=48
300612 Off ch=4 n=75 v=64
300630 Off ch=4 n=67 v=64
301402 On ch=4 n=60 v=28
301522 Off ch=4 n=60 v=64
301892 On ch=4 n=62 v=37
302007 Off ch=4 n=62 v=64
302377 On ch=4 n=63 v=37
302480 Off ch=4 n=63 v=64
302850 On ch=4 n=63 v=28
303065 On ch=4 n=62 v=28
303090 Off ch=4 n=63 v=64
303215 Off ch=4 n=62 v=64
303302 On ch=4 n=63 v=37
303532 Off ch=4 n=63 v=64
303542 On ch=4 n=65 v=28
303692 Off ch=4 n=65 v=64
303775 On ch=4 n=62 v=37
303910 Off ch=4 n=62 v=64
304287 On ch=4 n=62 v=37
304532 Off ch=4 n=62 v=64
304532 On ch=4 n=60 v=20
304667 Off ch=4 n=60 v=64
304760 On ch=4 n=62 v=37
304962 Off ch=4 n=62 v=64
305010 On ch=4 n=63 v=24
305175 Off ch=4 n=63 v=64
305222 On ch=4 n=60 v=39
305370 Off ch=4 n=60 v=64
306237 On ch=4 n=63 v=28
306382 Off ch=4 n=63 v=64
307162 On ch=4 n=60 v=28
307282 Off ch=4 n=60 v=64
307652 On ch=4 n=62 v=37
307767 Off ch=4 n=62 v=64
308137 On ch=4 n=63 v=37
308240 Off ch=4 n=63 v=64
308610 On ch=4 n=63 v=28
308825 On ch=4 n=62 v=28
308850 Off ch=4 n=63 v=64
308975 Off ch=4 n=62 v=64
309062 On ch=4 n=63 v=37
309292 Off ch=4 n=63 v=64
309302 On ch=4 n=65 v=28
309452 Off ch=4 n=65 v=64
309535 On ch=4 n=62 v=37
309670 Off ch=4 n=62 v=64
310047 On ch=4 n=62 v=37
310292 Off ch=4 n=62 v=64
310292 On ch=4 n=60 v=20
310427 Off ch=4 n=60 v=64
310520 On ch=4 n=62 v=37
310722 Off ch=4 n=62 v=64
310762 On ch=4 n=63 v=28
310910 Off ch=4 n=63 v=64
310982 On ch=4 n=60 v=24
311130 Off ch=4 n=60 v=64
311997 On ch=4 n=63 v=28
312142 Off ch=4 n=63 v=64
312922 On ch=4 n=60 v=28
313042 Off ch=4 n=60 v=64
313412 On ch=4 n=62 v=37
313527 Off ch=4 n=62 v=64
313897 On ch=4 n=63 v=37
314000 Off ch=4 n=63 v=64
314370 On ch=4 n=63 v=28
314585 On ch=4 n=62 v=28
314610 Off ch=4 n=63 v=64
314735 Off ch=4 n=62 v=64
314822 On ch=4 n=63 v=37
315052 Off ch=4 n=63 v=64
315062 On ch=4 n=65 v=28
315212 Off ch=4 n=65 v=64
315295 On ch=4 n=62 v=37
315430 Off ch=4 n=62 v=64
315807 On ch=4 n=62 v=37
316052 Off ch=4 n=62 v=64
316052 On ch=4 n=60 v=20
316187 Off ch=4 n=60 v=64
316280 On ch=4 n=62 v=37
316482 Off ch=4 n=62 v=64
316522 On ch=4 n=63 v=28
316670 Off ch=4 n=63 v=64
316742 On ch=4 n=60 v=24
316890 Off ch=4 n=60 v=64
317650 On ch=4 n=71 v=56
317662 On ch=4 n=65 v=56
317770 Off ch=4 n=65 v=64
317782 Off ch=4 n=71 v=64
318195 On ch=4 n=63 v=60
318200 On ch=4 n=72 v=63
318352 Off ch=4 n=72 v=64
318375 Off ch=4 n=63 v=64
318375 Meta TrkEnd
TrkEnd
MTrk
0 Meta TrkName "Bassoon   "
0 Meta 0x21 00
0 Meta 0x20 04
0 Par ch=5 c=10 v=64
4315 On ch=5 n=48 v=35
5352 Off ch=5 n=48 v=64
5755 On ch=5 n=43 v=35
6697 Off ch=5 n=43 v=64
7195 On ch=5 n=48 v=25
8232 Off ch=5 n=48 v=64
8635 On ch=5 n=43 v=25
9577 Off ch=5 n=43 v=64
10075 On ch=5 n=48 v=25
10692 Off ch=5 n=48 v=64
11515 On ch=5 n=43 v=25
12132 Off ch=5 n=43 v=64
12955 On ch=5 n=48 v=25
13572 Off ch=5 n=48 v=64
14395 On ch=5 n=43 v=25
15012 Off ch=5 n=43 v=64
15835 On ch=5 n=48 v=25
16452 Off ch=5 n=48 v=64
17275 On ch=5 n=43 v=25
17892 Off ch=5 n=43 v=64
18715 On ch=5 n=50 v=25
19332 Off ch=5 n=50 v=64
20155 On ch=5 n=43 v=25
20772 Off ch=5 n=43 v=64
21595 On ch=5 n=50 v=25
22212 Off ch=5 n=50 v=64
23035 On ch=5 n=43 v=25
23652 Off ch=5 n=43 v=64
24475 On ch=5 n=50 v=25
25092 Off ch=5 n=50 v=64
25915 On ch=5 n=43 v=25
26532 Off ch=5 n=43 v=64
27355 On ch=5 n=50 v=25
27972 Off ch=5 n=50 v=64
28795 On ch=5 n=43 v=25
29412 Off ch=5 n=43 v=64
30235 On ch=5 n=48 v=25
30852 Off ch=5 n=48 v=64
31675 On ch=5 n=43 v=25
32292 Off ch=5 n=43 v=64
33115 On ch=5 n=48 v=25
33732 Off ch=5 n=48 v=64
34555 On ch=5 n=43 v=25
35172 Off ch=5 n=43 v=64
35995 On ch=5 n=53 v=25
37282 Off ch=5 n=53 v=64
37435 On ch=5 n=53 v=25
38690 Off ch=5 n=53 v=64
38875 On ch=5 n=46 v=25
39492 Off ch=5 n=46 v=64
40315 On ch=5 n=46 v=25
40932 Off ch=5 n=46 v=64
41755 On ch=5 n=51 v=25
42372 Off ch=5 n=51 v=64
43195 On ch=5 n=44 v=25
43812 Off ch=5 n=44 v=64
44635 On ch=5 n=43 v=25
45252 Off ch=5 n=43 v=64
46075 On ch=5 n=44 v=25
46692 Off ch=5 n=44 v=64
47515 On ch=5 n=43 v=25
48132 Off ch=5 n=43 v=64
48955 On ch=5 n=44 v=25
49572 Off ch=5 n=44 v=64
50395 On ch=5 n=43 v=25
51012 Off ch=5 n=43 v=64
51835 On ch=5 n=44 v=25
52452 Off ch=5 n=44 v=64
53275 On ch=5 n=43 v=25
53892 Off ch=5 n=43 v=64
54715 On ch=5 n=44 v=25
55332 Off ch=5 n=44 v=64
56155 On ch=5 n=43 v=25
56772 Off ch=5 n=43 v=64
57595 On ch=5 n=43 v=25
58212 Off ch=5 n=43 v=64
59035 On ch=5 n=48 v=25
60072 Off ch=5 n=48 v=64
60475 On ch=5 n=43 v=25
61417 Off ch=5 n=43 v=64
61915 On ch=5 n=48 v=25
62952 Off ch=5 n=48 v=64
63355 On ch=5 n=43 v=25
64297 Off ch=5 n=43 v=64
64795 On ch=5 n=48 v=25
65412 Off ch=5 n=48 v=64
66235 On ch=5 n=43 v=25
66852 Off ch=5 n=43 v=64
67675 On ch=5 n=48 v=25
68292 Off ch=5 n=48 v=64
69115 On ch=5 n=43 v=25
69732 Off ch=5 n=43 v=64
70555 On ch=5 n=48 v=25
71172 Off ch=5 n=48 v=64
71995 On ch=5 n=43 v=25
72612 Off ch=5 n=43 v=64
73435 On ch=5 n=50 v=25
74052 Off ch=5 n=50 v=64
74875 On ch=5 n=43 v=25
75492 Off ch=5 n=43 v=64
76315 On ch=5 n=50 v=25
76932 Off ch=5 n=50 v=64
77755 On ch=5 n=43 v=25
78372 Off ch=5 n=43 v=64
79195 On ch=5 n=50 v=25
79812 Off ch=5 n=50 v=64
80635 On ch=5 n=43 v=25
81252 Off ch=5 n=43 v=64
82075 On ch=5 n=50 v=25
82692 Off ch=5 n=50 v=64
83515 On ch=5 n=43 v=25
84132 Off ch=5 n=43 v=64
84955 On ch=5 n=48 v=25
85572 Off ch=5 n=48 v=64
86395 On ch=5 n=43 v=25
87012 Off ch=5 n=43 v=64
87835 On ch=5 n=48 v=25
88452 Off ch=5 n=48 v=64
89275 On ch=5 n=43 v=25
89892 Off ch=5 n=43 v=64
90715 On ch=5 n=53 v=25
92002 Off ch=5 n=53 v=64
92155 On ch=5 n=53 v=25
93410 Off ch=5 n=53 v=64
93595 On ch=5 n=46 v=25
94212 Off ch=5 n=46 v=64
95035 On ch=5 n=46 v=25
95652 Off ch=5 n=46 v=64
96475 On ch=5 n=51 v=25
97092 Off ch=5 n=51 v=64
97915 On ch=5 n=44 v=25
98532 Off ch=5 n=44 v=64
99355 On ch=5 n=43 v=25
99972 Off ch=5 n=43 v=64
100795 On ch=5 n=44 v=25
101412 Off ch=5 n=44 v=64
102235 On ch=5 n=43 v=25
102852 Off ch=5 n=43 v=64
103675 On ch=5 n=44 v=25
104292 Off ch=5 n=44 v=64
105115 On ch=5 n=43 v=25
105732 Off ch=5 n=43 v=64
106555 On ch=5 n=44 v=25
107172 Off ch=5 n=44 v=64
107995 On ch=5 n=43 v=25
108612 Off ch=5 n=43 v=64
109435 On ch=5 n=44 v=25
110052 Off ch=5 n=44 v=64
110875 On ch=5 n=43 v=25
111492 Off ch=5 n=43 v=64
112315 On ch=5 n=43 v=25
112932 Off ch=5 n=43 v=64
113695 On ch=5 n=48 v=39
113852 Off ch=5 n=48 v=64
114172 On ch=5 n=43 v=39
114310 Off ch=5 n=43 v=64
114667 On ch=5 n=39 v=39
114825 Off ch=5 n=39 v=64
115182 On ch=5 n=36 v=39
115335 Off ch=5 n=36 v=64
117097 On ch=5 n=51 v=48
117102 On ch=5 n=58 v=36
117205 Off ch=5 n=58 v=64
117220 Off ch=5 n=51 v=64
117575 On ch=5 n=58 v=32
117580 On ch=5 n=51 v=48
117695 Off ch=5 n=51 v=64
117712 Off ch=5 n=58 v=64
118490 On ch=5 n=58 v=36
118497 On ch=5 n=51 v=45
118595 Off ch=5 n=51 v=64
118612 Off ch=5 n=58 v=64
118995 On ch=5 n=51 v=45
119005 On ch=5 n=58 v=37
119100 Off ch=5 n=51 v=64
119110 Off ch=5 n=58 v=64
119977 On ch=5 n=51 v=48
119982 On ch=5 n=58 v=32
120085 Off ch=5 n=58 v=64
120100 Off ch=5 n=51 v=64
120455 On ch=5 n=58 v=32
120460 On ch=5 n=51 v=48
120575 Off ch=5 n=51 v=64
120592 Off ch=5 n=58 v=64
121370 On ch=5 n=58 v=36
121377 On ch=5 n=51 v=45
121475 Off ch=5 n=51 v=64
121492 Off ch=5 n=58 v=64
121875 On ch=5 n=51 v=45
121885 On ch=5 n=58 v=36
121980 Off ch=5 n=51 v=64
121990 Off ch=5 n=58 v=64
122857 On ch=5 n=50 v=48
122862 On ch=5 n=56 v=36
122965 Off ch=5 n=56 v=64
122980 Off ch=5 n=50 v=64
123335 On ch=5 n=56 v=32
123340 On ch=5 n=50 v=48
123455 Off ch=5 n=50 v=64
123472 Off ch=5 n=56 v=64
124250 On ch=5 n=56 v=36
124257 On ch=5 n=50 v=45
124355 Off ch=5 n=50 v=64
124372 Off ch=5 n=56 v=64
124755 On ch=5 n=50 v=45
124765 On ch=5 n=56 v=37
124860 Off ch=5 n=50 v=64
124870 Off ch=5 n=56 v=64
125737 On ch=5 n=51 v=48
125742 On ch=5 n=55 v=32
125845 Off ch=5 n=55 v=64
125860 Off ch=5 n=51 v=64
126215 On ch=5 n=55 v=32
126220 On ch=5 n=51 v=48
126335 Off ch=5 n=51 v=64
126352 Off ch=5 n=55 v=64
127130 On ch=5 n=55 v=36
127137 On ch=5 n=51 v=45
127235 Off ch=5 n=51 v=64
127252 Off ch=5 n=55 v=64
127635 On ch=5 n=51 v=45
127645 On ch=5 n=55 v=36
127740 Off ch=5 n=51 v=64
127750 Off ch=5 n=55 v=64
128617 On ch=5 n=52 v=48
128622 On ch=5 n=58 v=36
128725 Off ch=5 n=58 v=64
128740 Off ch=5 n=52 v=64
129095 On ch=5 n=58 v=32
129100 On ch=5 n=52 v=48
129215 Off ch=5 n=52 v=64
129232 Off ch=5 n=58 v=64
130010 On ch=5 n=58 v=36
130017 On ch=5 n=52 v=45
130115 Off ch=5 n=52 v=64
130132 Off ch=5 n=58 v=64
130515 On ch=5 n=52 v=45
130525 On ch=5 n=58 v=37
130620 Off ch=5 n=52 v=64
130630 Off ch=5 n=58 v=64
131497 On ch=5 n=53 v=48
131502 On ch=5 n=60 v=32
131605 Off ch=5 n=60 v=64
131620 Off ch=5 n=53 v=64
131975 On ch=5 n=59 v=32
131980 On ch=5 n=51 v=48
132095 Off ch=5 n=51 v=64
132112 Off ch=5 n=59 v=64
132890 On ch=5 n=59 v=36
132897 On ch=5 n=51 v=45
132995 Off ch=5 n=51 v=64
133012 Off ch=5 n=59 v=64
133395 On ch=5 n=53 v=45
133405 On ch=5 n=59 v=36
133500 Off ch=5 n=53 v=64
133510 Off ch=5 n=59 v=64
134377 On ch=5 n=55 v=48
134382 On ch=5 n=58 v=36
134485 Off ch=5 n=58 v=64
134500 Off ch=5 n=55 v=64
134855 On ch=5 n=58 v=32
134860 On ch=5 n=55 v=48
134975 Off ch=5 n=55 v=64
134992 Off ch=5 n=58 v=64
135770 On ch=5 n=56 v=36
135777 On ch=5 n=53 v=45
135875 Off ch=5 n=53 v=64
135892 Off ch=5 n=56 v=64
136275 On ch=5 n=53 v=45
136285 On ch=5 n=56 v=37
136380 Off ch=5 n=53 v=64
136390 Off ch=5 n=56 v=64
137257 On ch=5 n=51 v=48
137262 On ch=5 n=55 v=32
137365 Off ch=5 n=55 v=64
137380 Off ch=5 n=51 v=64
137735 On ch=5 n=55 v=32
137740 On ch=5 n=51 v=48
137855 Off ch=5 n=51 v=64
137872 Off ch=5 n=55 v=64
138650 On ch=5 n=46 v=46
138657 On ch=5 n=51 v=45
138755 Off ch=5 n=51 v=64
138772 Off ch=5 n=46 v=64
139155 On ch=5 n=51 v=55
139165 On ch=5 n=46 v=36
139670 Off ch=5 n=46 v=64
139682 Off ch=5 n=51 v=64
140137 On ch=5 n=51 v=48
140142 On ch=5 n=58 v=36
140245 Off ch=5 n=58 v=64
140260 Off ch=5 n=51 v=64
140615 On ch=5 n=58 v=32
140620 On ch=5 n=51 v=48
140735 Off ch=5 n=51 v=64
140752 Off ch=5 n=58 v=64
141530 On ch=5 n=58 v=36
141537 On ch=5 n=51 v=45
141635 Off ch=5 n=51 v=64
141652 Off ch=5 n=58 v=64
142035 On ch=5 n=51 v=45
142045 On ch=5 n=58 v=37
142140 Off ch=5 n=51 v=64
142150 Off ch=5 n=58 v=64
143017 On ch=5 n=51 v=48
143022 On ch=5 n=58 v=32
143125 Off ch=5 n=58 v=64
143140 Off ch=5 n=51 v=64
143495 On ch=5 n=58 v=32
143500 On ch=5 n=51 v=48
143615 Off ch=5 n=51 v=64
143632 Off ch=5 n=58 v=64
144410 On ch=5 n=58 v=36
144417 On ch=5 n=51 v=45
144515 Off ch=5 n=51 v=64
144532 Off ch=5 n=58 v=64
144915 On ch=5 n=51 v=45
144925 On ch=5 n=58 v=36
145020 Off ch=5 n=51 v=64
145030 Off ch=5 n=58 v=64
145897 On ch=5 n=50 v=48
145902 On ch=5 n=56 v=36
146005 Off ch=5 n=56 v=64
146020 Off ch=5 n=50 v=64
146375 On ch=5 n=56 v=32
146380 On ch=5 n=50 v=48
146495 Off ch=5 n=50 v=64
146512 Off ch=5 n=56 v=64
147290 On ch=5 n=56 v=36
147297 On ch=5 n=50 v=45
147395 Off ch=5 n=50 v=64
147412 Off ch=5 n=56 v=64
147795 On ch=5 n=50 v=45
147805 On ch=5 n=56 v=37
147900 Off ch=5 n=50 v=64
147910 Off ch=5 n=56 v=64
148777 On ch=5 n=51 v=48
148782 On ch=5 n=55 v=32
148885 Off ch=5 n=55 v=64
148900 Off ch=5 n=51 v=64
149255 On ch=5 n=55 v=32
149260 On ch=5 n=51 v=48
149375 Off ch=5 n=51 v=64
149392 Off ch=5 n=55 v=64
150170 On ch=5 n=55 v=36
150177 On ch=5 n=51 v=45
150275 Off ch=5 n=51 v=64
150292 Off ch=5 n=55 v=64
150675 On ch=5 n=51 v=45
150685 On ch=5 n=55 v=36
150780 Off ch=5 n=51 v=64
150790 Off ch=5 n=55 v=64
151657 On ch=5 n=51 v=48
151662 On ch=5 n=58 v=36
151765 Off ch=5 n=58 v=64
151780 Off ch=5 n=51 v=64
152135 On ch=5 n=58 v=32
152140 On ch=5 n=51 v=48
152255 Off ch=5 n=51 v=64
152272 Off ch=5 n=58 v=64
153050 On ch=5 n=58 v=36
153057 On ch=5 n=51 v=45
153155 Off ch=5 n=51 v=64
153172 Off ch=5 n=58 v=64
153555 On ch=5 n=51 v=45
153565 On ch=5 n=58 v=37
153660 Off ch=5 n=51 v=64
153670 Off ch=5 n=58 v=64
154537 On ch=5 n=51 v=48
154542 On ch=5 n=60 v=32
154645 Off ch=5 n=60 v=64
154660 Off ch=5 n=51 v=64
155015 On ch=5 n=59 v=32
155020 On ch=5 n=51 v=48
155135 Off ch=5 n=51 v=64
155152 Off ch=5 n=59 v=64
155930 On ch=5 n=59 v=36
155937 On ch=5 n=51 v=45
156035 Off ch=5 n=51 v=64
156052 Off ch=5 n=59 v=64
156435 On ch=5 n=53 v=45
156445 On ch=5 n=59 v=36
156540 Off ch=5 n=53 v=64
156550 Off ch=5 n=59 v=64
157417 On ch=5 n=51 v=48
157422 On ch=5 n=58 v=36
157525 Off ch=5 n=58 v=64
157540 Off ch=5 n=51 v=64
157895 On ch=5 n=58 v=32
157900 On ch=5 n=51 v=48
158015 Off ch=5 n=51 v=64
158032 Off ch=5 n=58 v=64
158810 On ch=5 n=56 v=36
158817 On ch=5 n=48 v=45
158915 Off ch=5 n=48 v=64
158932 Off ch=5 n=56 v=64
159315 On ch=5 n=50 v=45
159325 On ch=5 n=56 v=37
159420 Off ch=5 n=50 v=64
159430 Off ch=5 n=56 v=64
160297 On ch=5 n=51 v=48
160302 On ch=5 n=58 v=32
160405 Off ch=5 n=58 v=64
160420 Off ch=5 n=51 v=64
160775 On ch=5 n=58 v=32
160780 On ch=5 n=51 v=48
160895 Off ch=5 n=51 v=64
160912 Off ch=5 n=58 v=64
161235 On ch=5 n=51 v=45
161245 On ch=5 n=58 v=36
162687 Off ch=5 n=51 v=64
162700 Off ch=5 n=58 v=64
163177 On ch=5 n=51 v=48
163182 On ch=5 n=56 v=36
163285 Off ch=5 n=56 v=64
163300 Off ch=5 n=51 v=64
163655 On ch=5 n=56 v=32
163660 On ch=5 n=51 v=48
163775 Off ch=5 n=51 v=64
163792 Off ch=5 n=56 v=64
164570 On ch=5 n=56 v=36
164577 On ch=5 n=51 v=45
164675 Off ch=5 n=51 v=64
164692 Off ch=5 n=56 v=64
165075 On ch=5 n=51 v=45
165085 On ch=5 n=56 v=37
165180 Off ch=5 n=51 v=64
165190 Off ch=5 n=56 v=64
166057 On ch=5 n=51 v=48
166062 On ch=5 n=56 v=32
166165 Off ch=5 n=56 v=64
166180 Off ch=5 n=51 v=64
166535 On ch=5 n=56 v=32
166540 On ch=5 n=51 v=48
166655 Off ch=5 n=51 v=64
166672 Off ch=5 n=56 v=64
167450 On ch=5 n=56 v=36
167457 On ch=5 n=51 v=45
167555 Off ch=5 n=51 v=64
167572 Off ch=5 n=56 v=64
167955 On ch=5 n=51 v=45
167965 On ch=5 n=56 v=36
168060 Off ch=5 n=51 v=64
168070 Off ch=5 n=56 v=64
168937 On ch=5 n=49 v=48
168942 On ch=5 n=55 v=36
169045 Off ch=5 n=55 v=64
169060 Off ch=5 n=49 v=64
169415 On ch=5 n=55 v=32
169420 On ch=5 n=49 v=48
169535 Off ch=5 n=49 v=64
169552 Off ch=5 n=55 v=64
170330 On ch=5 n=55 v=36
170337 On ch=5 n=49 v=45
170435 Off ch=5 n=49 v=64
170452 Off ch=5 n=55 v=64
170835 On ch=5 n=49 v=45
170845 On ch=5 n=55 v=37
170940 Off ch=5 n=49 v=64
170950 Off ch=5 n=55 v=64
171817 On ch=5 n=49 v=48
171822 On ch=5 n=55 v=32
171925 Off ch=5 n=55 v=64
171940 Off ch=5 n=49 v=64
172295 On ch=5 n=55 v=32
172300 On ch=5 n=49 v=48
172415 Off ch=5 n=49 v=64
172432 Off ch=5 n=55 v=64
173210 On ch=5 n=55 v=36
173217 On ch=5 n=49 v=45
173315 Off ch=5 n=49 v=64
173332 Off ch=5 n=55 v=64
173715 On ch=5 n=49 v=45
173725 On ch=5 n=55 v=36
173820 Off ch=5 n=49 v=64
173830 Off ch=5 n=55 v=64
174697 On ch=5 n=51 v=48
174702 On ch=5 n=56 v=36
174805 Off ch=5 n=56 v=64
174820 Off ch=5 n=51 v=64
175175 On ch=5 n=56 v=32
175180 On ch=5 n=51 v=48
175295 Off ch=5 n=51 v=64
175312 Off ch=5 n=56 v=64
176090 On ch=5 n=56 v=36
176097 On ch=5 n=51 v=45
176195 Off ch=5 n=51 v=64
176212 Off ch=5 n=56 v=64
176595 On ch=5 n=51 v=45
176605 On ch=5 n=56 v=37
176700 Off ch=5 n=51 v=64
176710 Off ch=5 n=56 v=64
177577 On ch=5 n=51 v=48
177582 On ch=5 n=56 v=32
177685 Off ch=5 n=56 v=64
177700 Off ch=5 n=51 v=64
178055 On ch=5 n=56 v=32
178060 On ch=5 n=51 v=48
178175 Off ch=5 n=51 v=64
178192 Off ch=5 n=56 v=64
178970 On ch=5 n=56 v=36
178977 On ch=5 n=51 v=45
179075 Off ch=5 n=51 v=64
179092 Off ch=5 n=56 v=64
179475 On ch=5 n=51 v=45
179485 On ch=5 n=56 v=36
179580 Off ch=5 n=51 v=64
179590 Off ch=5 n=56 v=64
180457 On ch=5 n=53 v=48
180462 On ch=5 n=56 v=36
180565 Off ch=5 n=56 v=64
180580 Off ch=5 n=53 v=64
180935 On ch=5 n=56 v=32
180940 On ch=5 n=51 v=48
181055 Off ch=5 n=51 v=64
181072 Off ch=5 n=56 v=64
181850 On ch=5 n=56 v=36
181857 On ch=5 n=51 v=45
181955 Off ch=5 n=51 v=64
181972 Off ch=5 n=56 v=64
182355 On ch=5 n=51 v=45
182365 On ch=5 n=56 v=37
182460 Off ch=5 n=51 v=64
182470 Off ch=5 n=56 v=64
183337 On ch=5 n=50 v=48
183342 On ch=5 n=56 v=32
183445 Off ch=5 n=56 v=64
183460 Off ch=5 n=50 v=64
183815 On ch=5 n=56 v=32
183820 On ch=5 n=50 v=48
183935 Off ch=5 n=50 v=64
183952 Off ch=5 n=56 v=64
184777 On ch=5 n=51 v=48
184782 On ch=5 n=58 v=32
184885 Off ch=5 n=58 v=64
184900 Off ch=5 n=51 v=64
185255 On ch=5 n=58 v=32
185260 On ch=5 n=51 v=48
185375 Off ch=5 n=51 v=64
185392 Off ch=5 n=58 v=64
186217 On ch=5 n=51 v=48
186222 On ch=5 n=56 v=36
186325 Off ch=5 n=56 v=64
186340 Off ch=5 n=51 v=64
186695 On ch=5 n=56 v=32
186700 On ch=5 n=51 v=48
186815 Off ch=5 n=51 v=64
186832 Off ch=5 n=56 v=64
187610 On ch=5 n=56 v=36
187617 On ch=5 n=51 v=45
187715 Off ch=5 n=51 v=64
187732 Off ch=5 n=56 v=64
188115 On ch=5 n=51 v=45
188125 On ch=5 n=56 v=37
188220 Off ch=5 n=51 v=64
188230 Off ch=5 n=56 v=64
189097 On ch=5 n=51 v=48
189102 On ch=5 n=56 v=32
189205 Off ch=5 n=56 v=64
189220 Off ch=5 n=51 v=64
189575 On ch=5 n=56 v=32
189580 On ch=5 n=51 v=48
189695 Off ch=5 n=51 v=64
189712 Off ch=5 n=56 v=64
190490 On ch=5 n=56 v=36
190497 On ch=5 n=51 v=45
190595 Off ch=5 n=51 v=64
190612 Off ch=5 n=56 v=64
190995 On ch=5 n=51 v=45
191005 On ch=5 n=56 v=36
191100 Off ch=5 n=51 v=64
191110 Off ch=5 n=56 v=64
191977 On ch=5 n=49 v=48
191982 On ch=5 n=55 v=36
192085 Off ch=5 n=55 v=64
192100 Off ch=5 n=49 v=64
192455 On ch=5 n=55 v=32
192460 On ch=5 n=49 v=48
192575 Off ch=5 n=49 v=64
192592 Off ch=5 n=55 v=64
193370 On ch=5 n=55 v=36
193377 On ch=5 n=49 v=45
193475 Off ch=5 n=49 v=64
193492 Off ch=5 n=55 v=64
193875 On ch=5 n=49 v=45
193885 On ch=5 n=55 v=37
193980 Off ch=5 n=49 v=64
193990 Off ch=5 n=55 v=64
194857 On ch=5 n=49 v=48
194862 On ch=5 n=55 v=32
194965 Off ch=5 n=55 v=64
194980 Off ch=5 n=49 v=64
195335 On ch=5 n=55 v=32
195340 On ch=5 n=49 v=48
195455 Off ch=5 n=49 v=64
195472 Off ch=5 n=55 v=64
196250 On ch=5 n=55 v=36
196257 On ch=5 n=49 v=45
196355 Off ch=5 n=49 v=64
196372 Off ch=5 n=55 v=64
196755 On ch=5 n=49 v=45
196765 On ch=5 n=55 v=36
196860 Off ch=5 n=49 v=64
196870 Off ch=5 n=55 v=64
197737 On ch=5 n=51 v=48
197742 On ch=5 n=56 v=36
197845 Off ch=5 n=56 v=64
197860 Off ch=5 n=51 v=64
198215 On ch=5 n=56 v=32
198220 On ch=5 n=51 v=48
198335 Off ch=5 n=51 v=64
198352 Off ch=5 n=56 v=64
199130 On ch=5 n=56 v=36
199137 On ch=5 n=51 v=45
199235 Off ch=5 n=51 v=64
199252 Off ch=5 n=56 v=64
199635 On ch=5 n=51 v=45
199645 On ch=5 n=56 v=37
199740 Off ch=5 n=51 v=64
199750 Off ch=5 n=56 v=64
200617 On ch=5 n=51 v=48
200622 On ch=5 n=56 v=32
200725 Off ch=5 n=56 v=64
200740 Off ch=5 n=51 v=64
201095 On ch=5 n=56 v=32
201100 On ch=5 n=51 v=48
201215 Off ch=5 n=51 v=64
201232 Off ch=5 n=56 v=64
202010 On ch=5 n=56 v=36
202017 On ch=5 n=51 v=45
202115 Off ch=5 n=51 v=64
202132 Off ch=5 n=56 v=64
202515 On ch=5 n=51 v=45
202525 On ch=5 n=56 v=36
202620 Off ch=5 n=51 v=64
202630 Off ch=5 n=56 v=64
203497 On ch=5 n=53 v=48
203502 On ch=5 n=56 v=36
203605 Off ch=5 n=56 v=64
203620 Off ch=5 n=53 v=64
203975 On ch=5 n=56 v=32
203980 On ch=5 n=51 v=48
204095 Off ch=5 n=51 v=64
204112 Off ch=5 n=56 v=64
204890 On ch=5 n=56 v=36
204897 On ch=5 n=51 v=45
204995 Off ch=5 n=51 v=64
205012 Off ch=5 n=56 v=64
205395 On ch=5 n=51 v=45
205405 On ch=5 n=56 v=37
205500 Off ch=5 n=51 v=64
205510 Off ch=5 n=56 v=64
206377 On ch=5 n=50 v=48
206382 On ch=5 n=56 v=32
206485 Off ch=5 n=56 v=64
206500 Off ch=5 n=50 v=64
206855 On ch=5 n=56 v=32
206860 On ch=5 n=50 v=48
206975 Off ch=5 n=50 v=64
206992 Off ch=5 n=56 v=64
207817 On ch=5 n=51 v=48
207822 On ch=5 n=58 v=32
207925 Off ch=5 n=58 v=64
207940 Off ch=5 n=51 v=64
208295 On ch=5 n=58 v=32
208300 On ch=5 n=51 v=48
208415 Off ch=5 n=51 v=64
208432 Off ch=5 n=58 v=64
208777 On ch=5 n=43 v=48
208782 On ch=5 n=51 v=32
210202 Off ch=5 n=43 v=64
210232 Off ch=5 n=51 v=64
210235 On ch=5 n=48 v=35
211272 Off ch=5 n=48 v=64
211675 On ch=5 n=43 v=35
212617 Off ch=5 n=43 v=64
213115 On ch=5 n=48 v=25
214152 Off ch=5 n=48 v=64
214555 On ch=5 n=43 v=25
215497 Off ch=5 n=43 v=64
215995 On ch=5 n=48 v=25
216612 Off ch=5 n=48 v=64
217435 On ch=5 n=43 v=25
218052 Off ch=5 n=43 v=64
218875 On ch=5 n=48 v=25
219492 Off ch=5 n=48 v=64
220315 On ch=5 n=43 v=25
220932 Off ch=5 n=43 v=64
221755 On ch=5 n=48 v=25
222372 Off ch=5 n=48 v=64
223195 On ch=5 n=43 v=25
223812 Off ch=5 n=43 v=64
224635 On ch=5 n=50 v=25
225252 Off ch=5 n=50 v=64
226075 On ch=5 n=43 v=25
226692 Off ch=5 n=43 v=64
227515 On ch=5 n=50 v=25
228132 Off ch=5 n=50 v=64
228955 On ch=5 n=43 v=25
229572 Off ch=5 n=43 v=64
230395 On ch=5 n=50 v=25
231012 Off ch=5 n=50 v=64
231835 On ch=5 n=43 v=25
232452 Off ch=5 n=43 v=64
233275 On ch=5 n=50 v=25
233892 Off ch=5 n=50 v=64
234715 On ch=5 n=43 v=25
235332 Off ch=5 n=43 v=64
236155 On ch=5 n=48 v=25
236772 Off ch=5 n=48 v=64
237595 On ch=5 n=43 v=25
238212 Off ch=5 n=43 v=64
239035 On ch=5 n=48 v=25
239652 Off ch=5 n=48 v=64
240475 On ch=5 n=48 v=25
241092 Off ch=5 n=48 v=64
241915 On ch=5 n=53 v=25
243202 Off ch=5 n=53 v=64
243355 On ch=5 n=53 v=25
244610 Off ch=5 n=53 v=64
244795 On ch=5 n=46 v=25
245412 Off ch=5 n=46 v=64
246235 On ch=5 n=46 v=25
246852 Off ch=5 n=46 v=64
247675 On ch=5 n=51 v=25
248292 Off ch=5 n=51 v=64
249115 On ch=5 n=44 v=25
249732 Off ch=5 n=44 v=64
250555 On ch=5 n=43 v=25
251172 Off ch=5 n=43 v=64
251995 On ch=5 n=44 v=25
252612 Off ch=5 n=44 v=64
253435 On ch=5 n=43 v=25
254052 Off ch=5 n=43 v=64
254875 On ch=5 n=44 v=25
255492 Off ch=5 n=44 v=64
256315 On ch=5 n=43 v=25
256932 Off ch=5 n=43 v=64
257755 On ch=5 n=44 v=25
258372 Off ch=5 n=44 v=64
259195 On ch=5 n=43 v=25
259812 Off ch=5 n=43 v=64
260635 On ch=5 n=44 v=25
261252 Off ch=5 n=44 v=64
262075 On ch=5 n=43 v=25
262692 Off ch=5 n=43 v=64
263515 On ch=5 n=43 v=25
264132 Off ch=5 n=43 v=64
264955 On ch=5 n=48 v=25
265992 Off ch=5 n=48 v=64
266395 On ch=5 n=43 v=25
267812 Off ch=5 n=43 v=64
267835 On ch=5 n=48 v=25
268812 Off ch=5 n=48 v=64
269275 On ch=5 n=43 v=25
270267 Off ch=5 n=43 v=64
270715 On ch=5 n=48 v=25
271707 Off ch=5 n=48 v=64
272155 On ch=5 n=43 v=25
273127 Off ch=5 n=43 v=64
273595 On ch=5 n=48 v=25
274587 Off ch=5 n=48 v=64
275035 On ch=5 n=43 v=25
276027 Off ch=5 n=43 v=64
276475 On ch=5 n=50 v=25
277467 Off ch=5 n=50 v=64
277915 On ch=5 n=43 v=25
278907 Off ch=5 n=43 v=64
279355 On ch=5 n=50 v=25
280347 Off ch=5 n=50 v=64
280795 On ch=5 n=43 v=25
281787 Off ch=5 n=43 v=64
282235 On ch=5 n=50 v=25
283252 Off ch=5 n=50 v=64
283675 On ch=5 n=43 v=25
284667 Off ch=5 n=43 v=64
285115 On ch=5 n=50 v=25
286107 Off ch=5 n=50 v=64
286555 On ch=5 n=43 v=25
287572 Off ch=5 n=43 v=64
287995 On ch=5 n=48 v=25
289012 Off ch=5 n=48 v=64
289435 On ch=5 n=43 v=25
290452 Off ch=5 n=43 v=64
290875 On ch=5 n=48 v=25
291870 Off ch=5 n=48 v=64
292315 On ch=5 n=48 v=25
293310 Off ch=5 n=48 v=64
293755 On ch=5 n=53 v=25
295042 Off ch=5 n=53 v=64
295195 On ch=5 n=53 v=25
296450 Off ch=5 n=53 v=64
296635 On ch=5 n=46 v=25
297627 Off ch=5 n=46 v=64
298075 On ch=5 n=46 v=25
299092 Off ch=5 n=46 v=64
299515 On ch=5 n=51 v=25
300507 Off ch=5 n=51 v=64
300955 On ch=5 n=44 v=25
301935 Off ch=5 n=44 v=64
302395 On ch=5 n=43 v=25
303012 Off ch=5 n=43 v=64
303835 On ch=5 n=44 v=25
304452 Off ch=5 n=44 v=64
305275 On ch=5 n=43 v=25
305892 Off ch=5 n=43 v=64
306715 On ch=5 n=44 v=25
307332 Off ch=5 n=44 v=64
308155 On ch=5 n=43 v=25
308772 Off ch=5 n=43 v=64
309595 On ch=5 n=44 v=25
310212 Off ch=5 n=44 v=64
311035 On ch=5 n=43 v=25
311652 Off ch=5 n=43 v=64
312475 On ch=5 n=44 v=25
313092 Off ch=5 n=44 v=64
313915 On ch=5 n=43 v=25
314532 Off ch=5 n=43 v=64
315355 On ch=5 n=43 v=25
315972 Off ch=5 n=43 v=64
316795 On ch=5 n=48 v=51
316982 Off ch=5 n=48 v=64
317755 On ch=5 n=53 v=65
317755 On ch=5 n=43 v=51
317892 Off ch=5 n=43 v=64
317907 Off ch=5 n=53 v=64
318227 On ch=5 n=51 v=64
318235 On ch=5 n=48 v=58
318407 Off ch=5 n=48 v=64
318420 Off ch=5 n=51 v=64
318420 Meta TrkEnd
TrkEnd
MTrk
0 Meta TrkName "Fr.Horns  "
0 Meta 0x21 00
0 Meta 0x20 05
0 Par ch=6 c=10 v=64
33095 On ch=6 n=67 v=26
33105 On ch=6 n=72 v=21
34477 On ch=6 n=63 v=16
34502 Off ch=6 n=67 v=64
34535 On ch=6 n=67 v=20
34545 Off ch=6 n=72 v=64
35960 On ch=6 n=70 v=25
35965 On ch=6 n=65 v=16
35985 Off ch=6 n=63 v=64
36002 Off ch=6 n=67 v=64
36912 On ch=6 n=68 v=16
36987 Off ch=6 n=70 v=64
37372 Off ch=6 n=65 v=64
37387 On ch=6 n=65 v=28
37397 On ch=6 n=60 v=16
37427 Off ch=6 n=68 v=64
38797 Off ch=6 n=65 v=64
38820 Off ch=6 n=60 v=64
38832 On ch=6 n=70 v=16
38835 On ch=6 n=65 v=16
40252 Off ch=6 n=65 v=64
40277 Off ch=6 n=70 v=64
40292 On ch=6 n=62 v=24
40297 On ch=6 n=65 v=25
41717 On ch=6 n=67 v=16
41750 On ch=6 n=63 v=16
41820 Off ch=6 n=65 v=64
41825 Off ch=6 n=62 v=64
42517 Off ch=6 n=67 v=64
42662 On ch=6 n=67 v=27
43095 Off ch=6 n=63 v=64
43112 Off ch=6 n=67 v=64
43132 On ch=6 n=63 v=29
43177 On ch=6 n=60 v=31
43260 Off ch=6 n=63 v=64
43327 Off ch=6 n=60 v=64
43645 On ch=6 n=60 v=22
43647 On ch=6 n=51 v=18
43747 Off ch=6 n=51 v=64
43757 Off ch=6 n=60 v=64
44102 On ch=6 n=62 v=34
44110 On ch=6 n=53 v=34
44212 Off ch=6 n=53 v=64
44230 Off ch=6 n=62 v=64
44572 On ch=6 n=55 v=31
44592 On ch=6 n=63 v=30
44682 Off ch=6 n=55 v=64
44687 Off ch=6 n=63 v=64
45560 On ch=6 n=63 v=34
45562 On ch=6 n=55 v=34
45675 Off ch=6 n=63 v=64
45680 Off ch=6 n=55 v=64
46027 On ch=6 n=53 v=37
46042 On ch=6 n=62 v=36
46117 Off ch=6 n=53 v=64
46172 Off ch=6 n=62 v=64
47002 On ch=6 n=53 v=37
47007 On ch=6 n=62 v=36
47107 Off ch=6 n=53 v=64
47130 Off ch=6 n=62 v=64
47470 On ch=6 n=60 v=36
47475 On ch=6 n=51 v=36
47585 Off ch=6 n=60 v=64
47615 Off ch=6 n=51 v=64
48430 On ch=6 n=63 v=38
48467 On ch=6 n=55 v=39
48540 Off ch=6 n=63 v=64
48600 Off ch=6 n=55 v=64
49405 On ch=6 n=60 v=22
49407 On ch=6 n=51 v=18
49507 Off ch=6 n=51 v=64
49517 Off ch=6 n=60 v=64
49862 On ch=6 n=62 v=34
49870 On ch=6 n=53 v=34
49972 Off ch=6 n=53 v=64
49990 Off ch=6 n=62 v=64
50332 On ch=6 n=55 v=31
50352 On ch=6 n=63 v=30
50442 Off ch=6 n=55 v=64
50447 Off ch=6 n=63 v=64
51320 On ch=6 n=63 v=34
51322 On ch=6 n=55 v=34
51435 Off ch=6 n=63 v=64
51440 Off ch=6 n=55 v=64
51787 On ch=6 n=53 v=37
51802 On ch=6 n=62 v=36
51877 Off ch=6 n=53 v=64
51932 Off ch=6 n=62 v=64
52762 On ch=6 n=53 v=37
52767 On ch=6 n=62 v=36
52867 Off ch=6 n=53 v=64
52890 Off ch=6 n=62 v=64
53230 On ch=6 n=60 v=36
53235 On ch=6 n=51 v=36
53345 Off ch=6 n=60 v=64
53375 Off ch=6 n=51 v=64
54190 On ch=6 n=63 v=38
54227 On ch=6 n=55 v=39
54300 Off ch=6 n=63 v=64
54360 Off ch=6 n=55 v=64
55165 On ch=6 n=60 v=22
55167 On ch=6 n=51 v=18
55267 Off ch=6 n=51 v=64
55277 Off ch=6 n=60 v=64
55622 On ch=6 n=62 v=34
55630 On ch=6 n=53 v=34
55732 Off ch=6 n=53 v=64
55750 Off ch=6 n=62 v=64
56092 On ch=6 n=55 v=31
56112 On ch=6 n=63 v=30
56202 Off ch=6 n=55 v=64
56207 Off ch=6 n=63 v=64
57080 On ch=6 n=63 v=34
57082 On ch=6 n=55 v=34
57195 Off ch=6 n=63 v=64
57200 Off ch=6 n=55 v=64
57547 On ch=6 n=53 v=37
57562 On ch=6 n=62 v=36
57637 Off ch=6 n=53 v=64
57692 Off ch=6 n=62 v=64
58522 On ch=6 n=53 v=37
58527 On ch=6 n=62 v=36
58627 Off ch=6 n=53 v=64
58650 Off ch=6 n=62 v=64
58990 On ch=6 n=60 v=36
58995 On ch=6 n=51 v=36
59105 Off ch=6 n=60 v=64
59135 Off ch=6 n=51 v=64
98365 On ch=6 n=60 v=22
98367 On ch=6 n=51 v=18
98467 Off ch=6 n=51 v=64
98477 Off ch=6 n=60 v=64
98822 On ch=6 n=62 v=34
98830 On ch=6 n=53 v=34
98932 Off ch=6 n=53 v=64
98950 Off ch=6 n=62 v=64
99292 On ch=6 n=55 v=31
99312 On ch=6 n=63 v=30
99402 Off ch=6 n=55 v=64
99407 Off ch=6 n=63 v=64
100280 On ch=6 n=63 v=34
100282 On ch=6 n=55 v=34
100395 Off ch=6 n=63 v=64
100400 Off ch=6 n=55 v=64
100747 On ch=6 n=53 v=37
100762 On ch=6 n=62 v=36
100837 Off ch=6 n=53 v=64
100892 Off ch=6 n=62 v=64
101722 On ch=6 n=53 v=37
101727 On ch=6 n=62 v=36
101827 Off ch=6 n=53 v=64
101850 Off ch=6 n=62 v=64
102190 On ch=6 n=60 v=36
102195 On ch=6 n=51 v=36
102305 Off ch=6 n=60 v=64
102335 Off ch=6 n=51 v=64
103150 On ch=6 n=63 v=38
103187 On ch=6 n=55 v=39
103260 Off ch=6 n=63 v=64
103320 Off ch=6 n=55 v=64
104125 On ch=6 n=60 v=22
104127 On ch=6 n=51 v=18
104227 Off ch=6 n=51 v=64
104237 Off ch=6 n=60 v=64
104582 On ch=6 n=62 v=34
104590 On ch=6 n=53 v=34
104692 Off ch=6 n=53 v=64
104710 Off ch=6 n=62 v=64
105052 On ch=6 n=55 v=31
105072 On ch=6 n=63 v=30
105162 Off ch=6 n=55 v=64
105167 Off ch=6 n=63 v=64
106040 On ch=6 n=63 v=34
106042 On ch=6 n=55 v=34
106155 Off ch=6 n=63 v=64
106160 Off ch=6 n=55 v=64
106507 On ch=6 n=53 v=37
106522 On ch=6 n=62 v=36
106597 Off ch=6 n=53 v=64
106652 Off ch=6 n=62 v=64
107482 On ch=6 n=53 v=37
107487 On ch=6 n=62 v=36
107587 Off ch=6 n=53 v=64
107610 Off ch=6 n=62 v=64
107950 On ch=6 n=60 v=36
107955 On ch=6 n=51 v=36
108065 Off ch=6 n=60 v=64
108095 Off ch=6 n=51 v=64
108910 On ch=6 n=63 v=38
108947 On ch=6 n=55 v=39
109020 Off ch=6 n=63 v=64
109080 Off ch=6 n=55 v=64
109885 On ch=6 n=60 v=22
109887 On ch=6 n=51 v=18
109987 Off ch=6 n=51 v=64
109997 Off ch=6 n=60 v=64
110342 On ch=6 n=62 v=34
110350 On ch=6 n=53 v=34
110452 Off ch=6 n=53 v=64
110470 Off ch=6 n=62 v=64
110812 On ch=6 n=55 v=31
110832 On ch=6 n=63 v=30
110922 Off ch=6 n=55 v=64
110927 Off ch=6 n=63 v=64
111800 On ch=6 n=63 v=34
111802 On ch=6 n=55 v=34
111915 Off ch=6 n=63 v=64
111920 Off ch=6 n=55 v=64
112267 On ch=6 n=53 v=37
112282 On ch=6 n=62 v=36
112357 Off ch=6 n=53 v=64
112412 Off ch=6 n=62 v=64
113242 On ch=6 n=53 v=37
113247 On ch=6 n=62 v=36
113347 Off ch=6 n=53 v=64
113370 Off ch=6 n=62 v=64
113710 On ch=6 n=60 v=36
113715 On ch=6 n=51 v=36
113825 Off ch=6 n=60 v=64
113855 Off ch=6 n=51 v=64
117065 On ch=6 n=55 v=46
117075 On ch=6 n=63 v=65
117177 Off ch=6 n=63 v=64
117192 Off ch=6 n=55 v=64
117555 On ch=6 n=55 v=42
117567 On ch=6 n=63 v=61
117677 Off ch=6 n=63 v=64
117685 Off ch=6 n=55 v=64
118507 On ch=6 n=55 v=46
118515 On ch=6 n=63 v=64
118615 Off ch=6 n=63 v=64
118630 Off ch=6 n=55 v=64
118987 On ch=6 n=55 v=42
119007 On ch=6 n=63 v=64
119115 Off ch=6 n=63 v=64
119122 Off ch=6 n=55 v=64
119945 On ch=6 n=55 v=46
119955 On ch=6 n=63 v=65
120057 Off ch=6 n=63 v=64
120072 Off ch=6 n=55 v=64
120435 On ch=6 n=55 v=42
120447 On ch=6 n=63 v=61
120557 Off ch=6 n=63 v=64
120565 Off ch=6 n=55 v=64
121387 On ch=6 n=55 v=46
121395 On ch=6 n=63 v=66
121495 Off ch=6 n=63 v=64
121510 Off ch=6 n=55 v=64
121867 On ch=6 n=55 v=42
121887 On ch=6 n=63 v=67
121995 Off ch=6 n=63 v=64
122002 Off ch=6 n=55 v=64
122825 On ch=6 n=53 v=46
122835 On ch=6 n=62 v=65
122937 Off ch=6 n=62 v=64
122952 Off ch=6 n=53 v=64
123315 On ch=6 n=53 v=42
123327 On ch=6 n=62 v=61
123437 Off ch=6 n=62 v=64
123445 Off ch=6 n=53 v=64
124267 On ch=6 n=53 v=46
124275 On ch=6 n=62 v=64
124375 Off ch=6 n=62 v=64
124390 Off ch=6 n=53 v=64
124747 On ch=6 n=53 v=42
124767 On ch=6 n=62 v=64
124875 Off ch=6 n=62 v=64
124882 Off ch=6 n=53 v=64
125705 On ch=6 n=58 v=46
125715 On ch=6 n=63 v=65
125817 Off ch=6 n=63 v=64
125832 Off ch=6 n=58 v=64
126195 On ch=6 n=58 v=42
126207 On ch=6 n=63 v=61
126317 Off ch=6 n=63 v=64
126325 Off ch=6 n=58 v=64
127147 On ch=6 n=58 v=46
127155 On ch=6 n=63 v=66
127255 Off ch=6 n=63 v=64
127270 Off ch=6 n=58 v=64
127627 On ch=6 n=58 v=42
127647 On ch=6 n=63 v=67
127755 Off ch=6 n=63 v=64
127762 Off ch=6 n=58 v=64
128585 On ch=6 n=55 v=46
128595 On ch=6 n=64 v=65
128697 Off ch=6 n=64 v=64
128712 Off ch=6 n=55 v=64
129075 On ch=6 n=55 v=42
129087 On ch=6 n=64 v=61
129197 Off ch=6 n=64 v=64
129205 Off ch=6 n=55 v=64
130027 On ch=6 n=55 v=46
130035 On ch=6 n=64 v=64
130135 Off ch=6 n=64 v=64
130150 Off ch=6 n=55 v=64
130507 On ch=6 n=55 v=42
130527 On ch=6 n=64 v=64
130635 Off ch=6 n=64 v=64
130642 Off ch=6 n=55 v=64
131465 On ch=6 n=56 v=46
131475 On ch=6 n=65 v=65
131577 Off ch=6 n=65 v=64
131592 Off ch=6 n=56 v=64
131955 On ch=6 n=56 v=42
131967 On ch=6 n=65 v=61
132077 Off ch=6 n=65 v=64
132085 Off ch=6 n=56 v=64
132907 On ch=6 n=56 v=46
132915 On ch=6 n=63 v=66
133015 Off ch=6 n=63 v=64
133030 Off ch=6 n=56 v=64
133387 On ch=6 n=56 v=42
133407 On ch=6 n=65 v=67
133515 Off ch=6 n=65 v=64
133522 Off ch=6 n=56 v=64
134345 On ch=6 n=63 v=46
134355 On ch=6 n=67 v=65
134457 Off ch=6 n=67 v=64
134472 Off ch=6 n=63 v=64
134835 On ch=6 n=63 v=42
134847 On ch=6 n=67 v=61
134957 Off ch=6 n=67 v=64
134965 Off ch=6 n=63 v=64
135787 On ch=6 n=62 v=46
135795 On ch=6 n=65 v=64
135895 Off ch=6 n=65 v=64
135910 Off ch=6 n=62 v=64
136267 On ch=6 n=62 v=42
136287 On ch=6 n=65 v=64
136395 Off ch=6 n=65 v=64
136402 Off ch=6 n=62 v=64
137225 On ch=6 n=58 v=46
137235 On ch=6 n=63 v=65
137337 Off ch=6 n=63 v=64
137352 Off ch=6 n=58 v=64
137715 On ch=6 n=58 v=42
137727 On ch=6 n=63 v=61
137837 Off ch=6 n=63 v=64
137845 Off ch=6 n=58 v=64
138667 On ch=6 n=55 v=46
138675 On ch=6 n=58 v=66
138775 Off ch=6 n=58 v=64
138790 Off ch=6 n=55 v=64
139147 On ch=6 n=55 v=42
139167 On ch=6 n=63 v=67
139657 Off ch=6 n=55 v=64
139675 Off ch=6 n=63 v=64
140105 On ch=6 n=55 v=46
140115 On ch=6 n=63 v=65
140217 Off ch=6 n=63 v=64
140232 Off ch=6 n=55 v=64
140595 On ch=6 n=55 v=42
140607 On ch=6 n=63 v=61
140717 Off ch=6 n=63 v=64
140725 Off ch=6 n=55 v=64
141547 On ch=6 n=55 v=46
141555 On ch=6 n=63 v=64
141655 Off ch=6 n=63 v=64
141670 Off ch=6 n=55 v=64
142027 On ch=6 n=55 v=42
142047 On ch=6 n=63 v=64
142155 Off ch=6 n=63 v=64
142162 Off ch=6 n=55 v=64
142985 On ch=6 n=55 v=46
142995 On ch=6 n=63 v=65
143097 Off ch=6 n=63 v=64
143112 Off ch=6 n=55 v=64
143475 On ch=6 n=55 v=42
143487 On ch=6 n=63 v=61
143597 Off ch=6 n=63 v=64
143605 Off ch=6 n=55 v=64
144427 On ch=6 n=55 v=46
144435 On ch=6 n=63 v=66
144535 Off ch=6 n=63 v=64
144550 Off ch=6 n=55 v=64
144907 On ch=6 n=55 v=42
144927 On ch=6 n=63 v=67
145035 Off ch=6 n=63 v=64
145042 Off ch=6 n=55 v=64
145865 On ch=6 n=53 v=46
145875 On ch=6 n=62 v=65
145977 Off ch=6 n=62 v=64
145992 Off ch=6 n=53 v=64
146355 On ch=6 n=53 v=42
146367 On ch=6 n=62 v=61
146477 Off ch=6 n=62 v=64
146485 Off ch=6 n=53 v=64
147307 On ch=6 n=53 v=46
147315 On ch=6 n=62 v=64
147415 Off ch=6 n=62 v=64
147430 Off ch=6 n=53 v=64
147787 On ch=6 n=53 v=42
147807 On ch=6 n=62 v=64
147915 Off ch=6 n=62 v=64
147922 Off ch=6 n=53 v=64
148745 On ch=6 n=58 v=46
148755 On ch=6 n=63 v=65
148857 Off ch=6 n=63 v=64
148872 Off ch=6 n=58 v=64
149235 On ch=6 n=58 v=42
149247 On ch=6 n=63 v=61
149357 Off ch=6 n=63 v=64
149365 Off ch=6 n=58 v=64
150187 On ch=6 n=58 v=46
150195 On ch=6 n=63 v=66
150295 Off ch=6 n=63 v=64
150310 Off ch=6 n=58 v=64
150667 On ch=6 n=58 v=42
150687 On ch=6 n=63 v=67
150795 Off ch=6 n=63 v=64
150802 Off ch=6 n=58 v=64
151625 On ch=6 n=55 v=46
151635 On ch=6 n=63 v=65
151737 Off ch=6 n=63 v=64
151752 Off ch=6 n=55 v=64
152115 On ch=6 n=55 v=42
152127 On ch=6 n=63 v=61
152237 Off ch=6 n=63 v=64
152245 Off ch=6 n=55 v=64
153067 On ch=6 n=55 v=46
153075 On ch=6 n=61 v=64
153175 Off ch=6 n=61 v=64
153190 Off ch=6 n=55 v=64
153547 On ch=6 n=55 v=42
153567 On ch=6 n=61 v=64
153675 Off ch=6 n=61 v=64
153682 Off ch=6 n=55 v=64
154505 On ch=6 n=56 v=46
154515 On ch=6 n=63 v=65
154617 Off ch=6 n=63 v=64
154632 Off ch=6 n=56 v=64
154995 On ch=6 n=56 v=42
155007 On ch=6 n=63 v=61
155117 Off ch=6 n=63 v=64
155125 Off ch=6 n=56 v=64
155947 On ch=6 n=56 v=46
155955 On ch=6 n=63 v=66
156055 Off ch=6 n=63 v=64
156070 Off ch=6 n=56 v=64
156427 On ch=6 n=56 v=42
156447 On ch=6 n=65 v=67
156555 Off ch=6 n=65 v=64
156562 Off ch=6 n=56 v=64
157385 On ch=6 n=63 v=46
157395 On ch=6 n=67 v=65
157497 Off ch=6 n=67 v=64
157512 Off ch=6 n=63 v=64
157875 On ch=6 n=63 v=42
157887 On ch=6 n=67 v=61
157997 Off ch=6 n=67 v=64
158005 Off ch=6 n=63 v=64
158827 On ch=6 n=60 v=46
158835 On ch=6 n=65 v=64
158935 Off ch=6 n=65 v=64
158950 Off ch=6 n=60 v=64
159307 On ch=6 n=62 v=42
159327 On ch=6 n=65 v=64
159435 Off ch=6 n=65 v=64
159442 Off ch=6 n=62 v=64
160265 On ch=6 n=55 v=46
160275 On ch=6 n=63 v=65
160377 Off ch=6 n=63 v=64
160392 Off ch=6 n=55 v=64
160755 On ch=6 n=55 v=42
160767 On ch=6 n=63 v=61
160877 Off ch=6 n=63 v=64
160885 Off ch=6 n=55 v=64
161250 On ch=6 n=63 v=82
161267 On ch=6 n=55 v=58
162665 On ch=6 n=63 v=57
162690 Off ch=6 n=63 v=64
162707 Off ch=6 n=55 v=64
163665 On ch=6 n=60 v=66
164080 Off ch=6 n=63 v=64
164615 Off ch=6 n=60 v=64
164615 On ch=6 n=59 v=57
165070 Off ch=6 n=59 v=64
165110 On ch=6 n=60 v=57
165532 Off ch=6 n=60 v=64
165572 On ch=6 n=63 v=66
166537 Off ch=6 n=63 v=64
166542 On ch=6 n=60 v=57
167437 On ch=6 n=65 v=66
167445 Off ch=6 n=60 v=64
167955 Off ch=6 n=65 v=64
167955 On ch=6 n=63 v=48
168357 Off ch=6 n=63 v=64
168432 On ch=6 n=63 v=57
169405 On ch=6 n=61 v=65
169467 Off ch=6 n=63 v=64
169912 On ch=6 n=60 v=57
169917 Off ch=6 n=61 v=64
170852 On ch=6 n=61 v=48
170880 Off ch=6 n=60 v=64
171342 Off ch=6 n=61 v=64
171342 On ch=6 n=67 v=56
172275 Off ch=6 n=67 v=64
172312 On ch=6 n=67 v=66
172765 Off ch=6 n=67 v=64
172782 On ch=6 n=65 v=66
173247 Off ch=6 n=65 v=64
173275 On ch=6 n=63 v=48
173730 On ch=6 n=62 v=66
173762 Off ch=6 n=63 v=64
174197 Off ch=6 n=62 v=64
174202 On ch=6 n=63 v=66
175117 On ch=6 n=60 v=57
175125 Off ch=6 n=63 v=64
176012 Off ch=6 n=60 v=64
176110 On ch=6 n=59 v=57
176550 Off ch=6 n=59 v=64
176580 On ch=6 n=60 v=57
177017 Off ch=6 n=60 v=64
177070 On ch=6 n=63 v=57
178002 Off ch=6 n=63 v=64
178037 On ch=6 n=60 v=40
178932 Off ch=6 n=60 v=64
178985 On ch=6 n=61 v=48
179407 Off ch=6 n=61 v=64
179455 On ch=6 n=63 v=57
179902 Off ch=6 n=63 v=64
179925 On ch=6 n=65 v=66
179925 On ch=6 n=68 v=52
180900 On ch=6 n=63 v=57
180915 On ch=6 n=67 v=48
180932 Off ch=6 n=65 v=64
180957 Off ch=6 n=68 v=64
181337 Off ch=6 n=63 v=64
181360 On ch=6 n=63 v=65
181370 Off ch=6 n=67 v=64
181370 On ch=6 n=68 v=50
182212 Off ch=6 n=68 v=64
182282 Off ch=6 n=63 v=64
182300 On ch=6 n=68 v=44
182360 On ch=6 n=63 v=66
182825 Off ch=6 n=68 v=64
182827 Off ch=6 n=63 v=64
182845 On ch=6 n=70 v=71
182850 On ch=6 n=65 v=66
183315 Off ch=6 n=70 v=64
183340 On ch=6 n=68 v=74
183775 Off ch=6 n=68 v=64
183810 Off ch=6 n=65 v=64
183815 On ch=6 n=70 v=70
183850 On ch=6 n=65 v=57
184257 Off ch=6 n=70 v=64
184300 On ch=6 n=70 v=67
184305 On ch=6 n=63 v=48
184325 Off ch=6 n=65 v=64
185177 Off ch=6 n=63 v=64
185220 On ch=6 n=55 v=37
185237 On ch=6 n=63 v=52
185272 Off ch=6 n=70 v=64
185565 Off ch=6 n=63 v=64
185587 Off ch=6 n=55 v=64
186185 On ch=6 n=60 v=46
186195 On ch=6 n=63 v=65
186297 Off ch=6 n=63 v=64
186312 Off ch=6 n=60 v=64
186675 On ch=6 n=60 v=42
186687 On ch=6 n=63 v=61
186797 Off ch=6 n=63 v=64
186805 Off ch=6 n=60 v=64
187627 On ch=6 n=60 v=46
187635 On ch=6 n=63 v=64
187735 Off ch=6 n=63 v=64
187750 Off ch=6 n=60 v=64
188107 On ch=6 n=60 v=42
188127 On ch=6 n=63 v=64
188235 Off ch=6 n=63 v=64
188242 Off ch=6 n=60 v=64
189065 On ch=6 n=60 v=46
189075 On ch=6 n=63 v=65
189177 Off ch=6 n=63 v=64
189192 Off ch=6 n=60 v=64
189555 On ch=6 n=60 v=42
189567 On ch=6 n=63 v=61
189677 Off ch=6 n=63 v=64
189685 Off ch=6 n=60 v=64
190507 On ch=6 n=60 v=46
190515 On ch=6 n=63 v=66
190615 Off ch=6 n=63 v=64
190630 Off ch=6 n=60 v=64
190987 On ch=6 n=60 v=42
191007 On ch=6 n=63 v=67
191115 Off ch=6 n=63 v=64
191122 Off ch=6 n=60 v=64
191945 On ch=6 n=58 v=46
191955 On ch=6 n=63 v=65
192057 Off ch=6 n=63 v=64
192072 Off ch=6 n=58 v=64
192435 On ch=6 n=58 v=42
192447 On ch=6 n=63 v=61
192557 Off ch=6 n=63 v=64
192565 Off ch=6 n=58 v=64
193387 On ch=6 n=58 v=46
193395 On ch=6 n=63 v=64
193495 Off ch=6 n=63 v=64
193510 Off ch=6 n=58 v=64
193867 On ch=6 n=58 v=42
193887 On ch=6 n=63 v=64
193995 Off ch=6 n=63 v=64
194002 Off ch=6 n=58 v=64
194825 On ch=6 n=58 v=46
194835 On ch=6 n=63 v=65
194937 Off ch=6 n=63 v=64
194952 Off ch=6 n=58 v=64
195315 On ch=6 n=58 v=42
195327 On ch=6 n=63 v=61
195437 Off ch=6 n=63 v=64
195445 Off ch=6 n=58 v=64
196267 On ch=6 n=58 v=46
196275 On ch=6 n=63 v=66
196375 Off ch=6 n=63 v=64
196390 Off ch=6 n=58 v=64
196747 On ch=6 n=58 v=42
196767 On ch=6 n=63 v=67
196875 Off ch=6 n=63 v=64
196882 Off ch=6 n=58 v=64
197705 On ch=6 n=60 v=46
197715 On ch=6 n=63 v=65
197817 Off ch=6 n=63 v=64
197832 Off ch=6 n=60 v=64
198195 On ch=6 n=60 v=42
198207 On ch=6 n=63 v=61
198317 Off ch=6 n=63 v=64
198325 Off ch=6 n=60 v=64
199147 On ch=6 n=60 v=46
199155 On ch=6 n=63 v=64
199255 Off ch=6 n=63 v=64
199270 Off ch=6 n=60 v=64
199627 On ch=6 n=60 v=42
199647 On ch=6 n=63 v=64
199755 Off ch=6 n=63 v=64
199762 Off ch=6 n=60 v=64
200585 On ch=6 n=60 v=46
200595 On ch=6 n=63 v=65
200697 Off ch=6 n=63 v=64
200712 Off ch=6 n=60 v=64
201075 On ch=6 n=60 v=42
201087 On ch=6 n=63 v=61
201197 Off ch=6 n=63 v=64
201205 Off ch=6 n=60 v=64
202027 On ch=6 n=60 v=46
202035 On ch=6 n=63 v=66
202135 Off ch=6 n=63 v=64
202150 Off ch=6 n=60 v=64
202507 On ch=6 n=60 v=42
202527 On ch=6 n=63 v=67
202635 Off ch=6 n=63 v=64
202642 Off ch=6 n=60 v=64
203465 On ch=6 n=61 v=46
203475 On ch=6 n=65 v=65
203577 Off ch=6 n=65 v=64
203592 Off ch=6 n=61 v=64
203955 On ch=6 n=61 v=42
203967 On ch=6 n=63 v=61
204077 Off ch=6 n=63 v=64
204085 Off ch=6 n=61 v=64
204907 On ch=6 n=60 v=46
204915 On ch=6 n=63 v=64
205015 Off ch=6 n=63 v=64
205030 Off ch=6 n=60 v=64
205387 On ch=6 n=60 v=42
205407 On ch=6 n=63 v=64
205515 Off ch=6 n=63 v=64
205522 Off ch=6 n=60 v=64
206345 On ch=6 n=62 v=46
206355 On ch=6 n=65 v=65
206457 Off ch=6 n=65 v=64
206472 Off ch=6 n=62 v=64
206835 On ch=6 n=62 v=42
206847 On ch=6 n=65 v=61
206957 Off ch=6 n=65 v=64
206965 Off ch=6 n=62 v=64
207787 On ch=6 n=55 v=46
207795 On ch=6 n=63 v=66
207895 Off ch=6 n=63 v=64
207910 Off ch=6 n=55 v=64
208267 On ch=6 n=55 v=42
208287 On ch=6 n=63 v=67
208395 Off ch=6 n=63 v=64
208402 Off ch=6 n=55 v=64
208757 On ch=6 n=63 v=73
208765 On ch=6 n=53 v=49
209732 On ch=6 n=62 v=73
209777 Off ch=6 n=63 v=64
210292 Off ch=6 n=53 v=64
210295 Off ch=6 n=62 v=64
266862 On ch=6 n=63 v=64
266865 On ch=6 n=59 v=56
266872 On ch=6 n=55 v=56
267345 On ch=6 n=53 v=60
267350 On ch=6 n=62 v=73
267435 Off ch=6 n=55 v=64
267440 Off ch=6 n=63 v=64
267867 Off ch=6 n=59 v=64
267887 Off ch=6 n=62 v=64
267902 Off ch=6 n=53 v=64
291340 On ch=6 n=55 v=46
291340 On ch=6 n=60 v=46
291350 On ch=6 n=63 v=46
291467 Off ch=6 n=60 v=64
291467 Off ch=6 n=55 v=64
291472 Off ch=6 n=63 v=64
291817 On ch=6 n=55 v=46
291817 On ch=6 n=60 v=46
291825 On ch=6 n=63 v=46
291960 Off ch=6 n=63 v=64
291965 Off ch=6 n=60 v=64
291965 Off ch=6 n=55 v=64
292785 On ch=6 n=67 v=46
292785 On ch=6 n=60 v=46
292790 On ch=6 n=63 v=46
292912 Off ch=6 n=63 v=64
292930 Off ch=6 n=60 v=64
292930 Off ch=6 n=67 v=64
293265 On ch=6 n=67 v=46
293265 On ch=6 n=60 v=46
293270 On ch=6 n=63 v=46
293405 Off ch=6 n=63 v=64
293410 Off ch=6 n=60 v=64
293410 Off ch=6 n=67 v=64
294220 On ch=6 n=68 v=46
294220 On ch=6 n=60 v=46
294222 On ch=6 n=65 v=46
294340 Off ch=6 n=60 v=64
294340 Off ch=6 n=68 v=64
294342 Off ch=6 n=65 v=64
294707 On ch=6 n=68 v=46
294707 On ch=6 n=60 v=46
294715 On ch=6 n=65 v=46
294835 Off ch=6 n=65 v=64
294845 Off ch=6 n=60 v=64
294845 Off ch=6 n=68 v=64
295665 On ch=6 n=68 v=46
295665 On ch=6 n=60 v=46
295667 On ch=6 n=65 v=46
295805 Off ch=6 n=65 v=64
295812 Off ch=6 n=60 v=64
295812 Off ch=6 n=68 v=64
296145 On ch=6 n=68 v=46
296145 On ch=6 n=60 v=46
296155 On ch=6 n=65 v=46
296267 Off ch=6 n=65 v=64
296295 Off ch=6 n=60 v=64
296295 Off ch=6 n=68 v=64
297100 On ch=6 n=56 v=46
297100 On ch=6 n=62 v=46
297110 On ch=6 n=65 v=46
297227 Off ch=6 n=62 v=64
297227 Off ch=6 n=56 v=64
297232 Off ch=6 n=65 v=64
297577 On ch=6 n=56 v=46
297577 On ch=6 n=62 v=46
297585 On ch=6 n=65 v=46
297720 Off ch=6 n=65 v=64
297725 Off ch=6 n=62 v=64
297725 Off ch=6 n=56 v=64
298545 On ch=6 n=56 v=46
298545 On ch=6 n=62 v=46
298550 On ch=6 n=65 v=46
298672 Off ch=6 n=65 v=64
298690 Off ch=6 n=62 v=64
298690 Off ch=6 n=56 v=64
299025 On ch=6 n=56 v=46
299025 On ch=6 n=62 v=46
299030 On ch=6 n=65 v=46
299165 Off ch=6 n=65 v=64
299170 Off ch=6 n=62 v=64
299170 Off ch=6 n=56 v=64
299980 On ch=6 n=67 v=46
299980 On ch=6 n=58 v=46
299982 On ch=6 n=63 v=46
300100 Off ch=6 n=58 v=64
300100 Off ch=6 n=67 v=64
300102 Off ch=6 n=63 v=64
300467 On ch=6 n=67 v=46
300467 On ch=6 n=58 v=46
300475 On ch=6 n=63 v=46
300595 Off ch=6 n=63 v=64
300605 Off ch=6 n=58 v=64
300605 Off ch=6 n=67 v=64
301405 On ch=6 n=60 v=22
301407 On ch=6 n=51 v=18
301507 Off ch=6 n=51 v=64
301517 Off ch=6 n=60 v=64
301862 On ch=6 n=62 v=34
301870 On ch=6 n=53 v=34
301972 Off ch=6 n=53 v=64
301990 Off ch=6 n=62 v=64
302332 On ch=6 n=55 v=31
302352 On ch=6 n=63 v=30
302442 Off ch=6 n=55 v=64
302447 Off ch=6 n=63 v=64
303320 On ch=6 n=63 v=34
303322 On ch=6 n=55 v=34
303435 Off ch=6 n=63 v=64
303440 Off ch=6 n=55 v=64
303787 On ch=6 n=53 v=37
303802 On ch=6 n=62 v=36
303877 Off ch=6 n=53 v=64
303932 Off ch=6 n=62 v=64
304762 On ch=6 n=53 v=37
304767 On ch=6 n=62 v=36
304867 Off ch=6 n=53 v=64
304890 Off ch=6 n=62 v=64
305230 On ch=6 n=60 v=36
305235 On ch=6 n=51 v=36
305345 Off ch=6 n=60 v=64
305375 Off ch=6 n=51 v=64
306190 On ch=6 n=63 v=38
306227 On ch=6 n=55 v=39
306300 Off ch=6 n=63 v=64
306360 Off ch=6 n=55 v=64
307165 On ch=6 n=60 v=22
307167 On ch=6 n=51 v=18
307267 Off ch=6 n=51 v=64
307277 Off ch=6 n=60 v=64
307622 On ch=6 n=62 v=34
307630 On ch=6 n=53 v=34
307732 Off ch=6 n=53 v=64
307750 Off ch=6 n=62 v=64
308092 On ch=6 n=55 v=31
308112 On ch=6 n=63 v=30
308202 Off ch=6 n=55 v=64
308207 Off ch=6 n=63 v=64
309080 On ch=6 n=63 v=34
309082 On ch=6 n=55 v=34
309195 Off ch=6 n=63 v=64
309200 Off ch=6 n=55 v=64
309547 On ch=6 n=53 v=37
309562 On ch=6 n=62 v=36
309637 Off ch=6 n=53 v=64
309692 Off ch=6 n=62 v=64
310522 On ch=6 n=53 v=37
310527 On ch=6 n=62 v=36
310627 Off ch=6 n=53 v=64
310650 Off ch=6 n=62 v=64
310990 On ch=6 n=60 v=36
310995 On ch=6 n=51 v=36
311105 Off ch=6 n=60 v=64
311135 Off ch=6 n=51 v=64
311950 On ch=6 n=63 v=38
311987 On ch=6 n=55 v=39
312060 Off ch=6 n=63 v=64
312120 Off ch=6 n=55 v=64
312925 On ch=6 n=60 v=22
312927 On ch=6 n=51 v=18
312935 On ch=6 n=63 v=60
313027 Off ch=6 n=51 v=64
313037 Off ch=6 n=60 v=64
313050 Off ch=6 n=63 v=64
313377 On ch=6 n=65 v=69
313382 On ch=6 n=62 v=34
313390 On ch=6 n=53 v=34
313492 Off ch=6 n=53 v=64
313495 Off ch=6 n=65 v=64
313510 Off ch=6 n=62 v=64
313852 On ch=6 n=55 v=31
313862 On ch=6 n=67 v=69
313872 On ch=6 n=63 v=30
313962 Off ch=6 n=55 v=64
313967 Off ch=6 n=63 v=64
314000 Off ch=6 n=67 v=64
314370 On ch=6 n=67 v=69
314600 Off ch=6 n=67 v=64
314615 On ch=6 n=65 v=51
314812 Off ch=6 n=65 v=64
314837 On ch=6 n=67 v=60
314840 On ch=6 n=63 v=34
314842 On ch=6 n=55 v=34
314955 Off ch=6 n=63 v=64
314960 Off ch=6 n=55 v=64
315050 Off ch=6 n=67 v=64
315067 On ch=6 n=68 v=60
315287 Off ch=6 n=68 v=64
315295 On ch=6 n=65 v=69
315307 On ch=6 n=53 v=37
315322 On ch=6 n=62 v=36
315397 Off ch=6 n=53 v=64
315425 Off ch=6 n=65 v=64
315452 Off ch=6 n=62 v=64
315810 On ch=6 n=65 v=69
316040 Off ch=6 n=65 v=64
316055 On ch=6 n=63 v=51
316252 Off ch=6 n=63 v=64
316277 On ch=6 n=65 v=60
316282 On ch=6 n=53 v=37
316287 On ch=6 n=62 v=36
316387 Off ch=6 n=53 v=64
316410 Off ch=6 n=62 v=64
316490 Off ch=6 n=65 v=64
316507 On ch=6 n=67 v=60
316727 Off ch=6 n=67 v=64
316735 On ch=6 n=63 v=82
316750 On ch=6 n=60 v=66
316755 On ch=6 n=51 v=66
316865 Off ch=6 n=60 v=64
316865 Off ch=6 n=63 v=64
316895 Off ch=6 n=51 v=64
317727 On ch=6 n=62 v=90
317730 On ch=6 n=59 v=82
317737 On ch=6 n=53 v=73
317887 Off ch=6 n=62 v=64
317892 Off ch=6 n=59 v=64
317892 Off ch=6 n=53 v=64
318200 On ch=6 n=63 v=90
318207 On ch=6 n=60 v=75
318207 On ch=6 n=55 v=73
318362 Off ch=6 n=63 v=64
318365 Off ch=6 n=55 v=64
318375 Off ch=6 n=60 v=64
318375 Meta TrkEnd
TrkEnd
MTrk
0 Meta TrkName "#Tenor Sax"
0 Meta 0x21 00
0 Meta 0x20 06
0 Par ch=7 c=10 v=64
10047 On ch=7 n=67 v=75
10702 Par ch=7 c=1 v=1
10807 Par ch=7 c=1 v=2
10827 Par ch=7 c=1 v=3
10840 Par ch=7 c=1 v=4
10857 Par ch=7 c=1 v=5
10865 Par ch=7 c=1 v=6
10872 Par ch=7 c=1 v=7
10882 Par ch=7 c=1 v=8
10900 Par ch=7 c=1 v=9
10912 Par ch=7 c=1 v=10
10920 Par ch=7 c=1 v=11
10927 Par ch=7 c=1 v=13
10935 Par ch=7 c=1 v=14
10945 Par ch=7 c=1 v=15
10960 Par ch=7 c=1 v=16
10980 Par ch=7 c=1 v=18
10980 Par ch=7 c=1 v=17
10997 Par ch=7 c=1 v=19
11007 Par ch=7 c=1 v=20
11027 Par ch=7 c=1 v=21
11037 Par ch=7 c=1 v=22
11060 Par ch=7 c=1 v=23
11080 Par ch=7 c=1 v=24
11145 Par ch=7 c=1 v=23
11167 Par ch=7 c=1 v=22
11187 Par ch=7 c=1 v=21
11205 Par ch=7 c=1 v=20
11217 Par ch=7 c=1 v=19
11245 Par ch=7 c=1 v=15
11245 Par ch=7 c=1 v=16
11245 Par ch=7 c=1 v=18
11260 Par ch=7 c=1 v=14
11265 Par ch=7 c=1 v=12
11280 Par ch=7 c=1 v=11
11290 Par ch=7 c=1 v=9
11302 Par ch=7 c=1 v=7
11302 Par ch=7 c=1 v=8
11315 Par ch=7 c=1 v=6
11322 Par ch=7 c=1 v=5
11327 Par ch=7 c=1 v=3
11337 Par ch=7 c=1 v=1
11397 Par ch=7 c=1 v=0
11455 On ch=7 n=63 v=73
11490 Off ch=7 n=67 v=64
12107 Par ch=7 c=1 v=1
12205 Par ch=7 c=1 v=2
12210 Par ch=7 c=1 v=3
12230 Par ch=7 c=1 v=4
12232 Par ch=7 c=1 v=5
12250 Par ch=7 c=1 v=7
12250 Par ch=7 c=1 v=6
12270 Par ch=7 c=1 v=8
12280 Par ch=7 c=1 v=9
12295 Par ch=7 c=1 v=10
12315 Par ch=7 c=1 v=11
12335 Par ch=7 c=1 v=13
12347 Par ch=7 c=1 v=14
12427 On ch=7 n=62 v=73
12467 Par ch=7 c=1 v=13
12477 Par ch=7 c=1 v=12
12495 Off ch=7 n=63 v=64
12497 Par ch=7 c=1 v=11
12507 Par ch=7 c=1 v=10
12520 Par ch=7 c=1 v=9
12530 Par ch=7 c=1 v=7
12552 Par ch=7 c=1 v=6
12555 Par ch=7 c=1 v=4
12565 Par ch=7 c=1 v=2
12572 Par ch=7 c=1 v=1
12652 Par ch=7 c=1 v=0
12937 On ch=7 n=60 v=64
12977 Off ch=7 n=62 v=64
13630 Par ch=7 c=1 v=1
13737 Par ch=7 c=1 v=2
13755 Par ch=7 c=1 v=3
13767 Par ch=7 c=1 v=4
13797 Par ch=7 c=1 v=5
13815 Par ch=7 c=1 v=6
13827 Par ch=7 c=1 v=7
13850 Par ch=7 c=1 v=8
13867 Par ch=7 c=1 v=9
13890 Par ch=7 c=1 v=10
13910 Par ch=7 c=1 v=11
13937 Par ch=7 c=1 v=12
13965 Par ch=7 c=1 v=13
13992 Par ch=7 c=1 v=14
14022 Par ch=7 c=1 v=15
14050 Par ch=7 c=1 v=16
14240 Par ch=7 c=1 v=15
14275 Par ch=7 c=1 v=14
14295 Par ch=7 c=1 v=13
14325 Par ch=7 c=1 v=12
14335 Par ch=7 c=1 v=11
14350 Par ch=7 c=1 v=10
14365 Par ch=7 c=1 v=9
14382 Par ch=7 c=1 v=8
14390 Par ch=7 c=1 v=7
14405 Par ch=7 c=1 v=5
14405 Par ch=7 c=1 v=6
14415 Par ch=7 c=1 v=3
14422 Par ch=7 c=1 v=1
14485 Par ch=7 c=1 v=0
14705 Off ch=7 n=60 v=64
14827 On ch=7 n=60 v=64
15290 On ch=7 n=62 v=73
15327 Off ch=7 n=60 v=64
15795 On ch=7 n=63 v=72
15830 Off ch=7 n=62 v=64
15877 Par ch=7 c=1 v=1
15982 Par ch=7 c=1 v=2
16015 Par ch=7 c=1 v=3
16025 Par ch=7 c=1 v=4
16042 Par ch=7 c=1 v=5
16055 Par ch=7 c=1 v=6
16070 Par ch=7 c=1 v=7
16087 Par ch=7 c=1 v=8
16107 Par ch=7 c=1 v=9
16145 Par ch=7 c=1 v=10
16247 Par ch=7 c=1 v=9
16265 On ch=7 n=60 v=64
16280 Par ch=7 c=1 v=8
16302 Par ch=7 c=1 v=7
16312 Par ch=7 c=1 v=6
16325 Par ch=7 c=1 v=5
16332 Par ch=7 c=1 v=2
16340 Off ch=7 n=63 v=64
16340 Par ch=7 c=1 v=1
16435 Par ch=7 c=1 v=0
16742 On ch=7 n=63 v=73
16815 Off ch=7 n=60 v=64
17250 On ch=7 n=67 v=78
17307 Off ch=7 n=63 v=64
17320 Par ch=7 c=1 v=1
17490 Par ch=7 c=1 v=2
17525 Par ch=7 c=1 v=3
17545 Par ch=7 c=1 v=4
17560 Par ch=7 c=1 v=5
17580 Par ch=7 c=1 v=7
17580 Par ch=7 c=1 v=6
17595 Par ch=7 c=1 v=8
17625 Par ch=7 c=1 v=9
17657 Par ch=7 c=1 v=10
17680 Par ch=7 c=1 v=11
17707 Par ch=7 c=1 v=12
17725 Par ch=7 c=1 v=13
17742 Par ch=7 c=1 v=14
17767 Par ch=7 c=1 v=15
17825 Par ch=7 c=1 v=16
17962 Par ch=7 c=1 v=15
17985 Par ch=7 c=1 v=14
18007 Par ch=7 c=1 v=12
18015 Par ch=7 c=1 v=11
18032 Par ch=7 c=1 v=10
18040 Par ch=7 c=1 v=9
18050 Par ch=7 c=1 v=8
18055 Par ch=7 c=1 v=7
18072 Par ch=7 c=1 v=6
18077 Par ch=7 c=1 v=5
18085 Par ch=7 c=1 v=4
18097 Par ch=7 c=1 v=3
18102 Par ch=7 c=1 v=1
18162 On ch=7 n=68 v=66
18220 Par ch=7 c=1 v=0
18260 Off ch=7 n=67 v=64
18675 On ch=7 n=67 v=72
18720 Off ch=7 n=68 v=64
19080 Par ch=7 c=1 v=1
19205 Par ch=7 c=1 v=2
19220 Par ch=7 c=1 v=3
19232 Par ch=7 c=1 v=4
19265 Par ch=7 c=1 v=5
19277 Par ch=7 c=1 v=6
19295 Par ch=7 c=1 v=7
19317 Par ch=7 c=1 v=8
19352 Par ch=7 c=1 v=9
19385 Par ch=7 c=1 v=10
19407 Par ch=7 c=1 v=11
19435 Par ch=7 c=1 v=12
19457 Par ch=7 c=1 v=13
19487 Par ch=7 c=1 v=14
19522 Par ch=7 c=1 v=15
19587 Par ch=7 c=1 v=16
19625 Par ch=7 c=1 v=17
19765 Par ch=7 c=1 v=16
19795 Par ch=7 c=1 v=15
19837 Par ch=7 c=1 v=14
19857 Par ch=7 c=1 v=13
19885 Par ch=7 c=1 v=12
19897 Par ch=7 c=1 v=11
19902 Par ch=7 c=1 v=10
19927 Par ch=7 c=1 v=9
19942 Par ch=7 c=1 v=8
19950 Par ch=7 c=1 v=7
19970 Par ch=7 c=1 v=5
19977 Par ch=7 c=1 v=4
19990 Par ch=7 c=1 v=3
19995 Par ch=7 c=1 v=1
20092 Par ch=7 c=1 v=0
20130 On ch=7 n=65 v=66
20182 Off ch=7 n=67 v=64
20517 Par ch=7 c=1 v=1
20570 Par ch=7 c=1 v=2
20585 Par ch=7 c=1 v=3
20597 Par ch=7 c=1 v=4
20612 Par ch=7 c=1 v=5
20630 Par ch=7 c=1 v=6
20640 Par ch=7 c=1 v=7
20655 Par ch=7 c=1 v=8
20680 Par ch=7 c=1 v=9
20700 Par ch=7 c=1 v=10
20725 Par ch=7 c=1 v=11
20745 Par ch=7 c=1 v=13
20762 Par ch=7 c=1 v=14
20772 Par ch=7 c=1 v=15
20780 Par ch=7 c=1 v=16
20790 Par ch=7 c=1 v=17
20797 Par ch=7 c=1 v=18
20812 Par ch=7 c=1 v=19
20827 Par ch=7 c=1 v=20
20842 Par ch=7 c=1 v=21
20865 Par ch=7 c=1 v=22
20885 Par ch=7 c=1 v=23
20902 Par ch=7 c=1 v=24
20912 Par ch=7 c=1 v=25
20930 Par ch=7 c=1 v=26
20955 Par ch=7 c=1 v=27
21047 Par ch=7 c=1 v=26
21067 Par ch=7 c=1 v=25
21087 Par ch=7 c=1 v=23
21102 Par ch=7 c=1 v=22
21120 Par ch=7 c=1 v=20
21127 Par ch=7 c=1 v=19
21135 Par ch=7 c=1 v=18
21147 Par ch=7 c=1 v=16
21152 Par ch=7 c=1 v=14
21155 Off ch=7 n=65 v=64
21165 Par ch=7 c=1 v=11
21165 Par ch=7 c=1 v=12
21177 Par ch=7 c=1 v=9
21182 Par ch=7 c=1 v=7
21197 Par ch=7 c=1 v=3
21197 Par ch=7 c=1 v=5
21210 Par ch=7 c=1 v=1
21252 Par ch=7 c=1 v=0
21445 Par ch=7 c=1 v=0
21567 On ch=7 n=65 v=69
22022 Par ch=7 c=1 v=1
22165 Par ch=7 c=1 v=2
22202 Par ch=7 c=1 v=3
22222 Par ch=7 c=1 v=4
22250 Par ch=7 c=1 v=5
22275 Par ch=7 c=1 v=6
22295 Par ch=7 c=1 v=7
22310 Par ch=7 c=1 v=8
22330 Par ch=7 c=1 v=9
22367 Par ch=7 c=1 v=10
22385 Par ch=7 c=1 v=11
22410 Par ch=7 c=1 v=12
22430 Par ch=7 c=1 v=13
22460 Par ch=7 c=1 v=14
22485 Par ch=7 c=1 v=15
22517 Par ch=7 c=1 v=16
22535 Par ch=7 c=1 v=17
22605 Par ch=7 c=1 v=18
22717 Par ch=7 c=1 v=17
22750 Par ch=7 c=1 v=16
22777 Par ch=7 c=1 v=14
22777 Par ch=7 c=1 v=15
22797 Par ch=7 c=1 v=13
22810 Par ch=7 c=1 v=12
22817 Par ch=7 c=1 v=10
22835 Par ch=7 c=1 v=9
22850 Par ch=7 c=1 v=8
22860 Par ch=7 c=1 v=7
22882 Par ch=7 c=1 v=5
22882 Par ch=7 c=1 v=6
22892 Par ch=7 c=1 v=4
22900 Par ch=7 c=1 v=3
22912 Par ch=7 c=1 v=1
22982 On ch=7 n=62 v=69
22995 Par ch=7 c=1 v=0
23015 Off ch=7 n=65 v=64
23955 On ch=7 n=60 v=61
24052 Off ch=7 n=62 v=64
24447 On ch=7 n=59 v=69
24525 Off ch=7 n=60 v=64
25002 Par ch=7 c=1 v=1
25055 Par ch=7 c=1 v=2
25075 Par ch=7 c=1 v=3
25085 Par ch=7 c=1 v=4
25112 Par ch=7 c=1 v=5
25130 Par ch=7 c=1 v=6
25150 Par ch=7 c=1 v=7
25200 Par ch=7 c=1 v=8
25257 Par ch=7 c=1 v=9
25567 Par ch=7 c=1 v=8
25642 Par ch=7 c=1 v=7
25665 Par ch=7 c=1 v=6
25685 Par ch=7 c=1 v=5
25700 Par ch=7 c=1 v=4
25712 Par ch=7 c=1 v=3
25722 Par ch=7 c=1 v=2
25727 Par ch=7 c=1 v=1
25925 Par ch=7 c=1 v=0
26367 On ch=7 n=55 v=56
26387 Off ch=7 n=59 v=64
26827 On ch=7 n=59 v=64
26890 Off ch=7 n=55 v=64
27335 On ch=7 n=62 v=64
27380 Off ch=7 n=59 v=64
27575 Par ch=7 c=1 v=1
27612 Par ch=7 c=1 v=2
27630 Par ch=7 c=1 v=3
27657 Par ch=7 c=1 v=4
27767 Par ch=7 c=1 v=3
27775 Par ch=7 c=1 v=2
27795 Par ch=7 c=1 v=1
27795 On ch=7 n=59 v=66
27827 Off ch=7 n=62 v=64
27895 Par ch=7 c=1 v=0
28290 On ch=7 n=62 v=64
28317 Off ch=7 n=59 v=64
28740 On ch=7 n=65 v=72
28822 Off ch=7 n=62 v=64
28947 Par ch=7 c=1 v=1
28987 Par ch=7 c=1 v=3
29002 Par ch=7 c=1 v=4
29017 Par ch=7 c=1 v=5
29035 Par ch=7 c=1 v=7
29047 Par ch=7 c=1 v=8
29190 Par ch=7 c=1 v=7
29205 Par ch=7 c=1 v=6
29212 Par ch=7 c=1 v=5
29225 On ch=7 n=67 v=64
29230 Par ch=7 c=1 v=3
29237 Par ch=7 c=1 v=1
29290 Off ch=7 n=65 v=64
29372 Par ch=7 c=1 v=0
29722 On ch=7 n=68 v=66
29765 Off ch=7 n=67 v=64
30235 On ch=7 n=66 v=64
30295 Off ch=7 n=68 v=64
30572 Par ch=7 c=1 v=1
30640 Par ch=7 c=1 v=2
30652 Par ch=7 c=1 v=3
30667 Par ch=7 c=1 v=4
30697 Par ch=7 c=1 v=5
30712 Par ch=7 c=1 v=6
30722 Par ch=7 c=1 v=7
30737 Par ch=7 c=1 v=8
30767 Par ch=7 c=1 v=9
30795 Par ch=7 c=1 v=10
30830 Par ch=7 c=1 v=11
30860 Par ch=7 c=1 v=12
30895 Par ch=7 c=1 v=13
30982 Par ch=7 c=1 v=14
31117 Par ch=7 c=1 v=13
31167 Par ch=7 c=1 v=12
31192 Par ch=7 c=1 v=11
31212 Par ch=7 c=1 v=10
31235 Par ch=7 c=1 v=9
31262 Par ch=7 c=1 v=8
31290 Par ch=7 c=1 v=7
31317 Par ch=7 c=1 v=6
31337 Par ch=7 c=1 v=5
31357 Par ch=7 c=1 v=4
31372 Par ch=7 c=1 v=3
31380 Par ch=7 c=1 v=2
31400 Par ch=7 c=1 v=1
31647 Par ch=7 c=1 v=0
31672 On ch=7 n=67 v=64
31730 Off ch=7 n=66 v=64
32287 Par ch=7 c=1 v=1
32362 Par ch=7 c=1 v=2
32377 Par ch=7 c=1 v=3
32385 Par ch=7 c=1 v=4
32402 Par ch=7 c=1 v=5
32407 Par ch=7 c=1 v=6
32417 Par ch=7 c=1 v=7
32435 Par ch=7 c=1 v=8
32450 Par ch=7 c=1 v=9
32547 Par ch=7 c=1 v=8
32572 Par ch=7 c=1 v=7
32585 Par ch=7 c=1 v=6
32590 Par ch=7 c=1 v=4
32600 Par ch=7 c=1 v=1
32677 Par ch=7 c=1 v=0
32740 Off ch=7 n=67 v=64
33052 On ch=7 n=72 v=52
33075 On ch=7 n=75 v=64
33077 On ch=7 n=67 v=56
33355 Par ch=7 c=1 v=1
33455 Par ch=7 c=1 v=2
33472 Par ch=7 c=1 v=3
33487 Par ch=7 c=1 v=4
33500 Par ch=7 c=1 v=5
33507 Par ch=7 c=1 v=6
33517 Par ch=7 c=1 v=7
33535 Par ch=7 c=1 v=8
33540 Par ch=7 c=1 v=9
33560 Par ch=7 c=1 v=10
33565 Par ch=7 c=1 v=11
33570 Par ch=7 c=1 v=12
33587 Par ch=7 c=1 v=13
33602 Par ch=7 c=1 v=15
33602 Par ch=7 c=1 v=14
33615 Par ch=7 c=1 v=16
33627 Par ch=7 c=1 v=18
33642 Par ch=7 c=1 v=19
33650 Par ch=7 c=1 v=20
33667 Par ch=7 c=1 v=21
33682 Par ch=7 c=1 v=22
33700 Par ch=7 c=1 v=23
33717 Par ch=7 c=1 v=24
33732 Par ch=7 c=1 v=25
33750 Par ch=7 c=1 v=26
33757 Par ch=7 c=1 v=27
33775 Par ch=7 c=1 v=28
33790 Par ch=7 c=1 v=29
33802 Par ch=7 c=1 v=30
33830 Par ch=7 c=1 v=31
33847 Par ch=7 c=1 v=32
33865 Par ch=7 c=1 v=33
33885 Par ch=7 c=1 v=34
33905 Par ch=7 c=1 v=35
34085 Par ch=7 c=1 v=34
34100 Par ch=7 c=1 v=33
34117 Par ch=7 c=1 v=32
34135 Par ch=7 c=1 v=31
34150 Par ch=7 c=1 v=29
34157 Par ch=7 c=1 v=28
34165 Par ch=7 c=1 v=27
34172 Par ch=7 c=1 v=26
34182 Par ch=7 c=1 v=25
34197 Par ch=7 c=1 v=23
34197 Par ch=7 c=1 v=24
34207 Par ch=7 c=1 v=22
34212 Par ch=7 c=1 v=21
34220 Par ch=7 c=1 v=20
34230 Par ch=7 c=1 v=19
34235 Par ch=7 c=1 v=18
34245 Par ch=7 c=1 v=16
34252 Par ch=7 c=1 v=15
34260 Par ch=7 c=1 v=14
34267 Par ch=7 c=1 v=12
34277 Par ch=7 c=1 v=11
34282 Par ch=7 c=1 v=10
34292 Par ch=7 c=1 v=9
34302 Par ch=7 c=1 v=7
34310 Par ch=7 c=1 v=6
34320 Par ch=7 c=1 v=5
34327 Par ch=7 c=1 v=4
34332 Par ch=7 c=1 v=1
34412 Par ch=7 c=1 v=0
34452 Off ch=7 n=67 v=64
34477 On ch=7 n=67 v=48
34517 On ch=7 n=63 v=56
34537 On ch=7 n=74 v=73
34587 Off ch=7 n=72 v=64
34595 Off ch=7 n=75 v=64
34752 Par ch=7 c=1 v=1
34772 Par ch=7 c=1 v=3
34780 Par ch=7 c=1 v=4
34790 Par ch=7 c=1 v=5
34797 Par ch=7 c=1 v=7
34807 Par ch=7 c=1 v=8
34815 Par ch=7 c=1 v=9
34825 Par ch=7 c=1 v=11
34830 Par ch=7 c=1 v=12
34840 Par ch=7 c=1 v=13
34850 Par ch=7 c=1 v=14
34857 Par ch=7 c=1 v=15
34867 Par ch=7 c=1 v=16
34885 Par ch=7 c=1 v=17
34892 Par ch=7 c=1 v=18
34912 Par ch=7 c=1 v=19
34937 Par ch=7 c=1 v=20
34967 Par ch=7 c=1 v=21
34995 Par ch=7 c=1 v=22
35015 Par ch=7 c=1 v=23
35037 Par ch=7 c=1 v=24
35057 Par ch=7 c=1 v=25
35085 Par ch=7 c=1 v=26
35112 Par ch=7 c=1 v=27
35142 Par ch=7 c=1 v=28
35172 Par ch=7 c=1 v=29
35197 Par ch=7 c=1 v=30
35242 Par ch=7 c=1 v=31
35330 Par ch=7 c=1 v=30
35352 Par ch=7 c=1 v=29
35375 Par ch=7 c=1 v=28
35385 Par ch=7 c=1 v=26
35405 Par ch=7 c=1 v=25
35410 Par ch=7 c=1 v=24
35427 Par ch=7 c=1 v=23
35440 Par ch=7 c=1 v=22
35447 Off ch=7 n=67 v=64
35447 Par ch=7 c=1 v=21
35457 Par ch=7 c=1 v=20
35465 Par ch=7 c=1 v=19
35467 On ch=7 n=67 v=52
35482 Par ch=7 c=1 v=17
35487 Par ch=7 c=1 v=16
35497 Par ch=7 c=1 v=14
35500 On ch=7 n=72 v=60
35512 Par ch=7 c=1 v=12
35512 Par ch=7 c=1 v=13
35525 Par ch=7 c=1 v=10
35530 Par ch=7 c=1 v=9
35537 Par ch=7 c=1 v=8
35540 Off ch=7 n=74 v=64
35547 Par ch=7 c=1 v=7
35555 Par ch=7 c=1 v=5
35562 Par ch=7 c=1 v=4
35572 Par ch=7 c=1 v=2
35577 Par ch=7 c=1 v=1
35655 Par ch=7 c=1 v=0
35980 On ch=7 n=60 v=58
35985 On ch=7 n=65 v=54
35992 On ch=7 n=70 v=64
35997 Off ch=7 n=63 v=64
36022 Off ch=7 n=67 v=64
36025 Off ch=7 n=72 v=64
36220 Par ch=7 c=1 v=1
36327 Par ch=7 c=1 v=2
36347 Par ch=7 c=1 v=3
36367 Par ch=7 c=1 v=4
36380 Par ch=7 c=1 v=5
36385 Par ch=7 c=1 v=6
36397 Par ch=7 c=1 v=7
36415 Par ch=7 c=1 v=8
36427 Par ch=7 c=1 v=9
36447 Par ch=7 c=1 v=10
36460 Par ch=7 c=1 v=11
36470 Par ch=7 c=1 v=12
36485 Par ch=7 c=1 v=13
36497 Par ch=7 c=1 v=14
36515 Par ch=7 c=1 v=15
36525 Par ch=7 c=1 v=16
36535 Par ch=7 c=1 v=17
36552 Par ch=7 c=1 v=18
36570 Par ch=7 c=1 v=19
36580 Par ch=7 c=1 v=20
36595 Par ch=7 c=1 v=21
36617 Par ch=7 c=1 v=22
36635 Par ch=7 c=1 v=23
36657 Par ch=7 c=1 v=24
36682 Par ch=7 c=1 v=25
36810 Par ch=7 c=1 v=24
36827 Par ch=7 c=1 v=23
36845 Par ch=7 c=1 v=22
36860 Par ch=7 c=1 v=21
36870 Par ch=7 c=1 v=20
36877 Par ch=7 c=1 v=19
36885 Par ch=7 c=1 v=18
36895 Par ch=7 c=1 v=17
36900 On ch=7 n=68 v=52
36905 Par ch=7 c=1 v=16
36912 Par ch=7 c=1 v=15
36922 Par ch=7 c=1 v=13
36930 Par ch=7 c=1 v=12
36940 Par ch=7 c=1 v=10
36947 Par ch=7 c=1 v=8
36955 Par ch=7 c=1 v=7
36960 Off ch=7 n=70 v=64
36965 Par ch=7 c=1 v=5
36972 Par ch=7 c=1 v=4
36982 Par ch=7 c=1 v=1
37040 Par ch=7 c=1 v=0
37355 Off ch=7 n=65 v=64
37357 Off ch=7 n=60 v=64
37370 On ch=7 n=56 v=38
37380 On ch=7 n=65 v=60
37397 On ch=7 n=60 v=48
37442 Off ch=7 n=68 v=64
37487 Par ch=7 c=1 v=1
37627 Par ch=7 c=1 v=2
37657 Par ch=7 c=1 v=3
37672 Par ch=7 c=1 v=4
37692 Par ch=7 c=1 v=5
37707 Par ch=7 c=1 v=6
37725 Par ch=7 c=1 v=7
37745 Par ch=7 c=1 v=8
37775 Par ch=7 c=1 v=9
37792 Par ch=7 c=1 v=10
37810 Par ch=7 c=1 v=11
37830 Par ch=7 c=1 v=12
37837 Par ch=7 c=1 v=13
37860 Par ch=7 c=1 v=14
37875 Par ch=7 c=1 v=15
37887 Par ch=7 c=1 v=16
37895 Par ch=7 c=1 v=17
37917 Par ch=7 c=1 v=18
37925 Par ch=7 c=1 v=19
37942 Par ch=7 c=1 v=20
37965 Par ch=7 c=1 v=21
37980 Par ch=7 c=1 v=22
37995 Par ch=7 c=1 v=23
38012 Par ch=7 c=1 v=24
38025 Par ch=7 c=1 v=25
38042 Par ch=7 c=1 v=26
38057 Par ch=7 c=1 v=27
38080 Par ch=7 c=1 v=28
38110 Par ch=7 c=1 v=29
38222 Par ch=7 c=1 v=28
38257 Par ch=7 c=1 v=27
38262 Par ch=7 c=1 v=26
38287 Par ch=7 c=1 v=25
38300 Par ch=7 c=1 v=24
38315 Par ch=7 c=1 v=23
38322 Par ch=7 c=1 v=22
38340 Par ch=7 c=1 v=21
38350 Par ch=7 c=1 v=20
38355 Par ch=7 c=1 v=19
38362 Par ch=7 c=1 v=18
38370 Par ch=7 c=1 v=16
38382 Par ch=7 c=1 v=15
38387 Par ch=7 c=1 v=13
38395 Par ch=7 c=1 v=12
38405 Par ch=7 c=1 v=10
38415 Off ch=7 n=65 v=64
38415 Par ch=7 c=1 v=8
38420 Par ch=7 c=1 v=7
38425 Par ch=7 c=1 v=5
38445 Par ch=7 c=1 v=2
38457 Par ch=7 c=1 v=1
38490 Par ch=7 c=1 v=0
38582 Off ch=7 n=60 v=64
38622 Off ch=7 n=56 v=64
38800 On ch=7 n=74 v=66
38820 On ch=7 n=65 v=52
38822 On ch=7 n=70 v=58
39280 Par ch=7 c=1 v=1
39357 Par ch=7 c=1 v=2
39380 Par ch=7 c=1 v=4
39380 Par ch=7 c=1 v=3
39390 Par ch=7 c=1 v=5
39397 Par ch=7 c=1 v=6
39405 Par ch=7 c=1 v=8
39422 Par ch=7 c=1 v=9
39432 Par ch=7 c=1 v=10
39437 Par ch=7 c=1 v=11
39450 Par ch=7 c=1 v=13
39452 Par ch=7 c=1 v=14
39465 Par ch=7 c=1 v=15
39470 Par ch=7 c=1 v=16
39477 Par ch=7 c=1 v=17
39485 Par ch=7 c=1 v=18
39492 Par ch=7 c=1 v=19
39510 Par ch=7 c=1 v=21
39527 Par ch=7 c=1 v=22
39542 Par ch=7 c=1 v=24
39552 Par ch=7 c=1 v=25
39567 Par ch=7 c=1 v=26
39575 Par ch=7 c=1 v=27
39582 Par ch=7 c=1 v=28
39592 Par ch=7 c=1 v=29
39597 Par ch=7 c=1 v=30
39615 Par ch=7 c=1 v=32
39627 Par ch=7 c=1 v=33
39637 Par ch=7 c=1 v=35
39637 Par ch=7 c=1 v=34
39645 Par ch=7 c=1 v=36
39655 Par ch=7 c=1 v=37
39665 Par ch=7 c=1 v=38
39670 Par ch=7 c=1 v=39
39680 Par ch=7 c=1 v=40
39685 Par ch=7 c=1 v=41
39705 Par ch=7 c=1 v=42
39710 Par ch=7 c=1 v=43
39715 Par ch=7 c=1 v=44
39735 Par ch=7 c=1 v=45
39747 Par ch=7 c=1 v=46
39760 Par ch=7 c=1 v=47
39772 Par ch=7 c=1 v=48
39855 Par ch=7 c=1 v=47
39877 Par ch=7 c=1 v=46
39895 Par ch=7 c=1 v=45
39915 Par ch=7 c=1 v=44
39940 Par ch=7 c=1 v=43
39952 Par ch=7 c=1 v=42
39960 Par ch=7 c=1 v=41
39975 Par ch=7 c=1 v=39
39975 Par ch=7 c=1 v=40
39990 Par ch=7 c=1 v=37
39990 Par ch=7 c=1 v=38
40002 Par ch=7 c=1 v=36
40022 Par ch=7 c=1 v=33
40022 Par ch=7 c=1 v=34
40022 Par ch=7 c=1 v=35
40032 Par ch=7 c=1 v=32
40040 Par ch=7 c=1 v=30
40055 Par ch=7 c=1 v=28
40055 Par ch=7 c=1 v=29
40067 Par ch=7 c=1 v=27
40072 Par ch=7 c=1 v=26
40077 Par ch=7 c=1 v=25
40090 Par ch=7 c=1 v=23
40097 Par ch=7 c=1 v=22
40105 Par ch=7 c=1 v=21
40110 Par ch=7 c=1 v=20
40120 Par ch=7 c=1 v=19
40132 Par ch=7 c=1 v=18
40137 Par ch=7 c=1 v=17
40152 Par ch=7 c=1 v=15
40152 Par ch=7 c=1 v=16
40162 Par ch=7 c=1 v=13
40170 Par ch=7 c=1 v=12
40177 Par ch=7 c=1 v=11
40185 Par ch=7 c=1 v=9
40192 Par ch=7 c=1 v=8
40200 Par ch=7 c=1 v=7
40210 Par ch=7 c=1 v=6
40217 Par ch=7 c=1 v=5
40225 Par ch=7 c=1 v=3
40232 Par ch=7 c=1 v=1
40257 On ch=7 n=62 v=56
40260 On ch=7 n=72 v=64
40275 Off ch=7 n=65 v=64
40292 Off ch=7 n=74 v=64
40300 Par ch=7 c=1 v=0
40302 On ch=7 n=65 v=52
40342 Off ch=7 n=70 v=64
40745 Par ch=7 c=1 v=1
40790 Par ch=7 c=1 v=3
40802 Par ch=7 c=1 v=4
40825 Par ch=7 c=1 v=7
40825 Par ch=7 c=1 v=6
40840 Par ch=7 c=1 v=8
40842 Par ch=7 c=1 v=9
40860 Par ch=7 c=1 v=10
40865 Par ch=7 c=1 v=11
40872 Par ch=7 c=1 v=13
40880 Par ch=7 c=1 v=14
40897 Par ch=7 c=1 v=16
40897 Par ch=7 c=1 v=15
40920 Par ch=7 c=1 v=17
40922 Par ch=7 c=1 v=18
40932 Par ch=7 c=1 v=19
40945 Par ch=7 c=1 v=20
40952 Par ch=7 c=1 v=21
40970 Par ch=7 c=1 v=22
40980 Par ch=7 c=1 v=23
40985 Par ch=7 c=1 v=24
40995 Par ch=7 c=1 v=25
41010 Par ch=7 c=1 v=27
41030 Par ch=7 c=1 v=28
41055 Par ch=7 c=1 v=29
41102 Par ch=7 c=1 v=28
41120 Par ch=7 c=1 v=27
41132 Par ch=7 c=1 v=26
41147 Par ch=7 c=1 v=25
41152 Par ch=7 c=1 v=24
41162 Par ch=7 c=1 v=23
41175 Par ch=7 c=1 v=22
41180 Par ch=7 c=1 v=21
41197 Par ch=7 c=1 v=19
41202 Par ch=7 c=1 v=18
41212 Par ch=7 c=1 v=17
41220 Par ch=7 c=1 v=16
41225 On ch=7 n=70 v=60
41230 Par ch=7 c=1 v=14
41235 Par ch=7 c=1 v=13
41245 Par ch=7 c=1 v=11
41250 Par ch=7 c=1 v=10
41257 Par ch=7 c=1 v=9
41262 Off ch=7 n=72 v=64
41267 Par ch=7 c=1 v=7
41282 Par ch=7 c=1 v=5
41282 Par ch=7 c=1 v=6
41295 Par ch=7 c=1 v=2
41300 Par ch=7 c=1 v=1
41367 Par ch=7 c=1 v=0
41677 Off ch=7 n=70 v=64
41712 On ch=7 n=70 v=60
41712 On ch=7 n=67 v=52
41725 On ch=7 n=63 v=48
41732 Off ch=7 n=62 v=64
41795 Off ch=7 n=65 v=64
42125 Par ch=7 c=1 v=1
42222 Par ch=7 c=1 v=2
42230 Par ch=7 c=1 v=3
42237 Par ch=7 c=1 v=4
42252 Par ch=7 c=1 v=5
42262 Par ch=7 c=1 v=6
42267 Par ch=7 c=1 v=7
42282 Par ch=7 c=1 v=8
42292 Par ch=7 c=1 v=9
42305 Par ch=7 c=1 v=10
42325 Par ch=7 c=1 v=11
42332 Par ch=7 c=1 v=12
42340 Par ch=7 c=1 v=13
42357 Par ch=7 c=1 v=14
42372 Par ch=7 c=1 v=15
42382 Par ch=7 c=1 v=16
42397 Par ch=7 c=1 v=17
42415 Par ch=7 c=1 v=18
42420 Par ch=7 c=1 v=19
42442 Par ch=7 c=1 v=20
42465 Par ch=7 c=1 v=21
42482 Par ch=7 c=1 v=22
42502 Par ch=7 c=1 v=23
42522 Par ch=7 c=1 v=24
42547 Par ch=7 c=1 v=25
42572 Par ch=7 c=1 v=26
42595 Par ch=7 c=1 v=27
42622 Par ch=7 c=1 v=28
42645 Par ch=7 c=1 v=29
42675 Par ch=7 c=1 v=30
42802 Par ch=7 c=1 v=29
42825 Par ch=7 c=1 v=28
42842 Par ch=7 c=1 v=27
42857 Par ch=7 c=1 v=25
42857 Par ch=7 c=1 v=26
42875 Par ch=7 c=1 v=24
42882 Par ch=7 c=1 v=23
42902 Par ch=7 c=1 v=22
42915 Par ch=7 c=1 v=21
42922 Par ch=7 c=1 v=20
42937 Par ch=7 c=1 v=19
42950 Par ch=7 c=1 v=18
42967 Par ch=7 c=1 v=16
42977 Par ch=7 c=1 v=14
42977 Par ch=7 c=1 v=15
42985 Par ch=7 c=1 v=13
43002 Par ch=7 c=1 v=12
43012 Par ch=7 c=1 v=11
43017 Par ch=7 c=1 v=9
43032 Par ch=7 c=1 v=8
43042 Par ch=7 c=1 v=7
43060 Par ch=7 c=1 v=5
43070 Par ch=7 c=1 v=4
43082 Par ch=7 c=1 v=1
43082 Par ch=7 c=1 v=3
43157 Par ch=7 c=1 v=0
43282 Off ch=7 n=67 v=64
43287 Off ch=7 n=63 v=64
43310 Off ch=7 n=70 v=64
117065 On ch=7 n=55 v=46
117075 On ch=7 n=63 v=65
117097 On ch=7 n=51 v=48
117102 On ch=7 n=58 v=36
117177 Off ch=7 n=63 v=64
117192 Off ch=7 n=55 v=64
117205 Off ch=7 n=58 v=64
117220 Off ch=7 n=51 v=64
117555 On ch=7 n=55 v=42
117567 On ch=7 n=63 v=61
117575 On ch=7 n=58 v=32
117580 On ch=7 n=51 v=48
117677 Off ch=7 n=63 v=64
117685 Off ch=7 n=55 v=64
117695 Off ch=7 n=51 v=64
117712 Off ch=7 n=58 v=64
118490 On ch=7 n=58 v=36
118497 On ch=7 n=51 v=45
118507 On ch=7 n=55 v=46
118515 On ch=7 n=63 v=64
118595 Off ch=7 n=51 v=64
118612 Off ch=7 n=58 v=64
118615 Off ch=7 n=63 v=64
118630 Off ch=7 n=55 v=64
118987 On ch=7 n=55 v=42
118995 On ch=7 n=51 v=45
119005 On ch=7 n=58 v=37
119007 On ch=7 n=63 v=64
119100 Off ch=7 n=51 v=64
119110 Off ch=7 n=58 v=64
119115 Off ch=7 n=63 v=64
119122 Off ch=7 n=55 v=64
119945 On ch=7 n=55 v=46
119955 On ch=7 n=63 v=65
119977 On ch=7 n=51 v=48
119982 On ch=7 n=58 v=32
120057 Off ch=7 n=63 v=64
120072 Off ch=7 n=55 v=64
120085 Off ch=7 n=58 v=64
120100 Off ch=7 n=51 v=64
120435 On ch=7 n=55 v=42
120447 On ch=7 n=63 v=61
120455 On ch=7 n=58 v=32
120460 On ch=7 n=51 v=48
120557 Off ch=7 n=63 v=64
120565 Off ch=7 n=55 v=64
120575 Off ch=7 n=51 v=64
120592 Off ch=7 n=58 v=64
121370 On ch=7 n=58 v=36
121377 On ch=7 n=51 v=45
121387 On ch=7 n=55 v=46
121395 On ch=7 n=63 v=66
121475 Off ch=7 n=51 v=64
121492 Off ch=7 n=58 v=64
121495 Off ch=7 n=63 v=64
121510 Off ch=7 n=55 v=64
121867 On ch=7 n=55 v=42
121875 On ch=7 n=51 v=45
121885 On ch=7 n=58 v=36
121887 On ch=7 n=63 v=67
121980 Off ch=7 n=51 v=64
121990 Off ch=7 n=58 v=64
121995 Off ch=7 n=63 v=64
122002 Off ch=7 n=55 v=64
122825 On ch=7 n=53 v=46
122835 On ch=7 n=62 v=65
122857 On ch=7 n=50 v=48
122862 On ch=7 n=56 v=36
122937 Off ch=7 n=62 v=64
122952 Off ch=7 n=53 v=64
122965 Off ch=7 n=56 v=64
122980 Off ch=7 n=50 v=64
123315 On ch=7 n=53 v=42
123327 On ch=7 n=62 v=61
123335 On ch=7 n=56 v=32
123340 On ch=7 n=50 v=48
123437 Off ch=7 n=62 v=64
123445 Off ch=7 n=53 v=64
123455 Off ch=7 n=50 v=64
123472 Off ch=7 n=56 v=64
124250 On ch=7 n=56 v=36
124257 On ch=7 n=50 v=45
124267 On ch=7 n=53 v=46
124275 On ch=7 n=62 v=64
124355 Off ch=7 n=50 v=64
124372 Off ch=7 n=56 v=64
124375 Off ch=7 n=62 v=64
124390 Off ch=7 n=53 v=64
124747 On ch=7 n=53 v=42
124755 On ch=7 n=50 v=45
124765 On ch=7 n=56 v=37
124767 On ch=7 n=62 v=64
124860 Off ch=7 n=50 v=64
124870 Off ch=7 n=56 v=64
124875 Off ch=7 n=62 v=64
124882 Off ch=7 n=53 v=64
125705 On ch=7 n=58 v=46
125715 On ch=7 n=63 v=65
125737 On ch=7 n=51 v=48
125742 On ch=7 n=55 v=32
125817 Off ch=7 n=63 v=64
125832 Off ch=7 n=58 v=64
125845 Off ch=7 n=55 v=64
125860 Off ch=7 n=51 v=64
126195 On ch=7 n=58 v=42
126207 On ch=7 n=63 v=61
126215 On ch=7 n=55 v=32
126220 On ch=7 n=51 v=48
126317 Off ch=7 n=63 v=64
126325 Off ch=7 n=58 v=64
126335 Off ch=7 n=51 v=64
126352 Off ch=7 n=55 v=64
127130 On ch=7 n=55 v=36
127137 On ch=7 n=51 v=45
127147 On ch=7 n=58 v=46
127155 On ch=7 n=63 v=66
127235 Off ch=7 n=51 v=64
127252 Off ch=7 n=55 v=64
127255 Off ch=7 n=63 v=64
127270 Off ch=7 n=58 v=64
127627 On ch=7 n=58 v=42
127635 On ch=7 n=51 v=45
127645 On ch=7 n=55 v=36
127647 On ch=7 n=63 v=67
127740 Off ch=7 n=51 v=64
127750 Off ch=7 n=55 v=64
127755 Off ch=7 n=63 v=64
127762 Off ch=7 n=58 v=64
128585 On ch=7 n=55 v=46
128595 On ch=7 n=64 v=65
128617 On ch=7 n=52 v=48
128622 On ch=7 n=58 v=36
128697 Off ch=7 n=64 v=64
128712 Off ch=7 n=55 v=64
128725 Off ch=7 n=58 v=64
128740 Off ch=7 n=52 v=64
129075 On ch=7 n=55 v=42
129087 On ch=7 n=64 v=61
129095 On ch=7 n=58 v=32
129100 On ch=7 n=52 v=48
129197 Off ch=7 n=64 v=64
129205 Off ch=7 n=55 v=64
129215 Off ch=7 n=52 v=64
129232 Off ch=7 n=58 v=64
130010 On ch=7 n=58 v=36
130017 On ch=7 n=52 v=45
130027 On ch=7 n=55 v=46
130035 On ch=7 n=64 v=64
130115 Off ch=7 n=52 v=64
130132 Off ch=7 n=58 v=64
130135 Off ch=7 n=64 v=64
130150 Off ch=7 n=55 v=64
130507 On ch=7 n=55 v=42
130515 On ch=7 n=52 v=45
130525 On ch=7 n=58 v=37
130527 On ch=7 n=64 v=64
130620 Off ch=7 n=52 v=64
130630 Off ch=7 n=58 v=64
130635 Off ch=7 n=64 v=64
130642 Off ch=7 n=55 v=64
131465 On ch=7 n=56 v=46
131475 On ch=7 n=65 v=65
131497 On ch=7 n=53 v=48
131502 On ch=7 n=60 v=32
131577 Off ch=7 n=65 v=64
131592 Off ch=7 n=56 v=64
131605 Off ch=7 n=60 v=64
131620 Off ch=7 n=53 v=64
131955 On ch=7 n=56 v=42
131967 On ch=7 n=65 v=61
131975 On ch=7 n=59 v=32
131980 On ch=7 n=51 v=48
132077 Off ch=7 n=65 v=64
132085 Off ch=7 n=56 v=64
132095 Off ch=7 n=51 v=64
132112 Off ch=7 n=59 v=64
132890 On ch=7 n=59 v=36
132897 On ch=7 n=51 v=45
132907 On ch=7 n=56 v=46
132915 On ch=7 n=63 v=66
132995 Off ch=7 n=51 v=64
133012 Off ch=7 n=59 v=64
133015 Off ch=7 n=63 v=64
133030 Off ch=7 n=56 v=64
133387 On ch=7 n=56 v=42
133395 On ch=7 n=53 v=45
133405 On ch=7 n=59 v=36
133407 On ch=7 n=65 v=67
133500 Off ch=7 n=53 v=64
133510 Off ch=7 n=59 v=64
133515 Off ch=7 n=65 v=64
133522 Off ch=7 n=56 v=64
134345 On ch=7 n=63 v=46
134355 On ch=7 n=67 v=65
134377 On ch=7 n=55 v=48
134382 On ch=7 n=58 v=36
134457 Off ch=7 n=67 v=64
134472 Off ch=7 n=63 v=64
134485 Off ch=7 n=58 v=64
134500 Off ch=7 n=55 v=64
134835 On ch=7 n=63 v=42
134847 On ch=7 n=67 v=61
134855 On ch=7 n=58 v=32
134860 On ch=7 n=55 v=48
134957 Off ch=7 n=67 v=64
134965 Off ch=7 n=63 v=64
134975 Off ch=7 n=55 v=64
134992 Off ch=7 n=58 v=64
135770 On ch=7 n=56 v=36
135777 On ch=7 n=53 v=45
135787 On ch=7 n=62 v=46
135795 On ch=7 n=65 v=64
135875 Off ch=7 n=53 v=64
135892 Off ch=7 n=56 v=64
135895 Off ch=7 n=65 v=64
135910 Off ch=7 n=62 v=64
136267 On ch=7 n=62 v=42
136275 On ch=7 n=53 v=45
136285 On ch=7 n=56 v=37
136287 On ch=7 n=65 v=64
136380 Off ch=7 n=53 v=64
136390 Off ch=7 n=56 v=64
136395 Off ch=7 n=65 v=64
136402 Off ch=7 n=62 v=64
137225 On ch=7 n=58 v=46
137235 On ch=7 n=63 v=65
137257 On ch=7 n=51 v=48
137262 On ch=7 n=55 v=32
137337 Off ch=7 n=63 v=64
137352 Off ch=7 n=58 v=64
137365 Off ch=7 n=55 v=64
137380 Off ch=7 n=51 v=64
137715 On ch=7 n=58 v=42
137727 On ch=7 n=63 v=61
137735 On ch=7 n=55 v=32
137740 On ch=7 n=51 v=48
137837 Off ch=7 n=63 v=64
137845 Off ch=7 n=58 v=64
137855 Off ch=7 n=51 v=64
137872 Off ch=7 n=55 v=64
138650 On ch=7 n=46 v=46
138657 On ch=7 n=51 v=45
138667 On ch=7 n=55 v=46
138675 On ch=7 n=58 v=66
138755 Off ch=7 n=51 v=64
138772 Off ch=7 n=46 v=64
138775 Off ch=7 n=58 v=64
138790 Off ch=7 n=55 v=64
139147 On ch=7 n=55 v=42
139155 On ch=7 n=51 v=55
139165 On ch=7 n=46 v=36
139167 On ch=7 n=63 v=67
139657 Off ch=7 n=55 v=64
139670 Off ch=7 n=46 v=64
139675 Off ch=7 n=63 v=64
139682 Off ch=7 n=51 v=64
140105 On ch=7 n=55 v=46
140115 On ch=7 n=63 v=65
140137 On ch=7 n=51 v=48
140142 On ch=7 n=58 v=36
140217 Off ch=7 n=63 v=64
140232 Off ch=7 n=55 v=64
140245 Off ch=7 n=58 v=64
140260 Off ch=7 n=51 v=64
140595 On ch=7 n=55 v=42
140607 On ch=7 n=63 v=61
140615 On ch=7 n=58 v=32
140620 On ch=7 n=51 v=48
140717 Off ch=7 n=63 v=64
140725 Off ch=7 n=55 v=64
140735 Off ch=7 n=51 v=64
140752 Off ch=7 n=58 v=64
141530 On ch=7 n=58 v=36
141537 On ch=7 n=51 v=45
141547 On ch=7 n=55 v=46
141555 On ch=7 n=63 v=64
141635 Off ch=7 n=51 v=64
141652 Off ch=7 n=58 v=64
141655 Off ch=7 n=63 v=64
141670 Off ch=7 n=55 v=64
142027 On ch=7 n=55 v=42
142035 On ch=7 n=51 v=45
142045 On ch=7 n=58 v=37
142047 On ch=7 n=63 v=64
142140 Off ch=7 n=51 v=64
142150 Off ch=7 n=58 v=64
142155 Off ch=7 n=63 v=64
142162 Off ch=7 n=55 v=64
142985 On ch=7 n=55 v=46
142995 On ch=7 n=63 v=65
143017 On ch=7 n=51 v=48
143022 On ch=7 n=58 v=32
143097 Off ch=7 n=63 v=64
143112 Off ch=7 n=55 v=64
143125 Off ch=7 n=58 v=64
143140 Off ch=7 n=51 v=64
143475 On ch=7 n=55 v=42
143487 On ch=7 n=63 v=61
143495 On ch=7 n=58 v=32
143500 On ch=7 n=51 v=48
143597 Off ch=7 n=63 v=64
143605 Off ch=7 n=55 v=64
143615 Off ch=7 n=51 v=64
143632 Off ch=7 n=58 v=64
144410 On ch=7 n=58 v=36
144417 On ch=7 n=51 v=45
144427 On ch=7 n=55 v=46
144435 On ch=7 n=63 v=66
144515 Off ch=7 n=51 v=64
144532 Off ch=7 n=58 v=64
144535 Off ch=7 n=63 v=64
144550 Off ch=7 n=55 v=64
144907 On ch=7 n=55 v=42
144915 On ch=7 n=51 v=45
144925 On ch=7 n=58 v=36
144927 On ch=7 n=63 v=67
145020 Off ch=7 n=51 v=64
145030 Off ch=7 n=58 v=64
145035 Off ch=7 n=63 v=64
145042 Off ch=7 n=55 v=64
145865 On ch=7 n=53 v=46
145875 On ch=7 n=62 v=65
145897 On ch=7 n=50 v=48
145902 On ch=7 n=56 v=36
145977 Off ch=7 n=62 v=64
145992 Off ch=7 n=53 v=64
146005 Off ch=7 n=56 v=64
146020 Off ch=7 n=50 v=64
146355 On ch=7 n=53 v=42
146367 On ch=7 n=62 v=61
146375 On ch=7 n=56 v=32
146380 On ch=7 n=50 v=48
146477 Off ch=7 n=62 v=64
146485 Off ch=7 n=53 v=64
146495 Off ch=7 n=50 v=64
146512 Off ch=7 n=56 v=64
147290 On ch=7 n=56 v=36
147297 On ch=7 n=50 v=45
147307 On ch=7 n=53 v=46
147315 On ch=7 n=62 v=64
147395 Off ch=7 n=50 v=64
147412 Off ch=7 n=56 v=64
147415 Off ch=7 n=62 v=64
147430 Off ch=7 n=53 v=64
147787 On ch=7 n=53 v=42
147795 On ch=7 n=50 v=45
147805 On ch=7 n=56 v=37
147807 On ch=7 n=62 v=64
147900 Off ch=7 n=50 v=64
147910 Off ch=7 n=56 v=64
147915 Off ch=7 n=62 v=64
147922 Off ch=7 n=53 v=64
148745 On ch=7 n=58 v=46
148755 On ch=7 n=63 v=65
148777 On ch=7 n=51 v=48
148782 On ch=7 n=55 v=32
148857 Off ch=7 n=63 v=64
148872 Off ch=7 n=58 v=64
148885 Off ch=7 n=55 v=64
148900 Off ch=7 n=51 v=64
149235 On ch=7 n=58 v=42
149247 On ch=7 n=63 v=61
149255 On ch=7 n=55 v=32
149260 On ch=7 n=51 v=48
149357 Off ch=7 n=63 v=64
149365 Off ch=7 n=58 v=64
149375 Off ch=7 n=51 v=64
149392 Off ch=7 n=55 v=64
150170 On ch=7 n=55 v=36
150177 On ch=7 n=51 v=45
150187 On ch=7 n=58 v=46
150195 On ch=7 n=63 v=66
150275 Off ch=7 n=51 v=64
150292 Off ch=7 n=55 v=64
150295 Off ch=7 n=63 v=64
150310 Off ch=7 n=58 v=64
150667 On ch=7 n=58 v=42
150675 On ch=7 n=51 v=45
150685 On ch=7 n=55 v=36
150687 On ch=7 n=63 v=67
150780 Off ch=7 n=51 v=64
150790 Off ch=7 n=55 v=64
150795 Off ch=7 n=63 v=64
150802 Off ch=7 n=58 v=64
151625 On ch=7 n=55 v=46
151635 On ch=7 n=63 v=65
151657 On ch=7 n=51 v=48
151662 On ch=7 n=58 v=36
151737 Off ch=7 n=63 v=64
151752 Off ch=7 n=55 v=64
151765 Off ch=7 n=58 v=64
151780 Off ch=7 n=51 v=64
152115 On ch=7 n=55 v=42
152127 On ch=7 n=63 v=61
152135 On ch=7 n=58 v=32
152140 On ch=7 n=51 v=48
152237 Off ch=7 n=63 v=64
152245 Off ch=7 n=55 v=64
152255 Off ch=7 n=51 v=64
152272 Off ch=7 n=58 v=64
153050 On ch=7 n=58 v=36
153057 On ch=7 n=51 v=45
153067 On ch=7 n=55 v=46
153075 On ch=7 n=61 v=64
153155 Off ch=7 n=51 v=64
153172 Off ch=7 n=58 v=64
153175 Off ch=7 n=61 v=64
153190 Off ch=7 n=55 v=64
153547 On ch=7 n=55 v=42
153555 On ch=7 n=51 v=45
153565 On ch=7 n=58 v=37
153567 On ch=7 n=61 v=64
153660 Off ch=7 n=51 v=64
153670 Off ch=7 n=58 v=64
153675 Off ch=7 n=61 v=64
153682 Off ch=7 n=55 v=64
154505 On ch=7 n=56 v=46
154515 On ch=7 n=63 v=65
154537 On ch=7 n=51 v=48
154542 On ch=7 n=60 v=32
154617 Off ch=7 n=63 v=64
154632 Off ch=7 n=56 v=64
154645 Off ch=7 n=60 v=64
154660 Off ch=7 n=51 v=64
154995 On ch=7 n=56 v=42
155007 On ch=7 n=63 v=61
155015 On ch=7 n=59 v=32
155020 On ch=7 n=51 v=48
155117 Off ch=7 n=63 v=64
155125 Off ch=7 n=56 v=64
155135 Off ch=7 n=51 v=64
155152 Off ch=7 n=59 v=64
155930 On ch=7 n=59 v=36
155937 On ch=7 n=51 v=45
155947 On ch=7 n=56 v=46
155955 On ch=7 n=63 v=66
156035 Off ch=7 n=51 v=64
156052 Off ch=7 n=59 v=64
156055 Off ch=7 n=63 v=64
156070 Off ch=7 n=56 v=64
156427 On ch=7 n=56 v=42
156435 On ch=7 n=53 v=45
156445 On ch=7 n=59 v=36
156447 On ch=7 n=65 v=67
156540 Off ch=7 n=53 v=64
156550 Off ch=7 n=59 v=64
156555 Off ch=7 n=65 v=64
156562 Off ch=7 n=56 v=64
157385 On ch=7 n=63 v=46
157395 On ch=7 n=67 v=65
157417 On ch=7 n=51 v=48
157422 On ch=7 n=58 v=36
157497 Off ch=7 n=67 v=64
157512 Off ch=7 n=63 v=64
157525 Off ch=7 n=58 v=64
157540 Off ch=7 n=51 v=64
157875 On ch=7 n=63 v=42
157887 On ch=7 n=67 v=61
157895 On ch=7 n=58 v=32
157900 On ch=7 n=51 v=48
157997 Off ch=7 n=67 v=64
158005 Off ch=7 n=63 v=64
158015 Off ch=7 n=51 v=64
158032 Off ch=7 n=58 v=64
158810 On ch=7 n=56 v=36
158817 On ch=7 n=48 v=45
158827 On ch=7 n=60 v=46
158835 On ch=7 n=65 v=64
158915 Off ch=7 n=48 v=64
158932 Off ch=7 n=56 v=64
158935 Off ch=7 n=65 v=64
158950 Off ch=7 n=60 v=64
159307 On ch=7 n=62 v=42
159315 On ch=7 n=50 v=45
159325 On ch=7 n=56 v=37
159327 On ch=7 n=65 v=64
159420 Off ch=7 n=50 v=64
159430 Off ch=7 n=56 v=64
159435 Off ch=7 n=65 v=64
159442 Off ch=7 n=62 v=64
160265 On ch=7 n=55 v=46
160275 On ch=7 n=63 v=65
160297 On ch=7 n=51 v=48
160302 On ch=7 n=58 v=32
160377 Off ch=7 n=63 v=64
160392 Off ch=7 n=55 v=64
160405 Off ch=7 n=58 v=64
160420 Off ch=7 n=51 v=64
160755 On ch=7 n=55 v=42
160767 On ch=7 n=63 v=61
160775 On ch=7 n=58 v=32
160780 On ch=7 n=51 v=48
160877 Off ch=7 n=63 v=64
160885 Off ch=7 n=55 v=64
160895 Off ch=7 n=51 v=64
160912 Off ch=7 n=58 v=64
161235 On ch=7 n=51 v=45
161245 On ch=7 n=58 v=36
161250 On ch=7 n=63 v=62
161267 On ch=7 n=55 v=58
162677 On ch=7 n=72 v=60
162680 On ch=7 n=63 v=73
162687 Off ch=7 n=51 v=64
162690 Off ch=7 n=63 v=64
162697 On ch=7 n=68 v=56
162700 Off ch=7 n=58 v=64
162707 Off ch=7 n=55 v=64
163587 Off ch=7 n=68 v=64
163647 On ch=7 n=68 v=52
163662 On ch=7 n=60 v=73
163667 On ch=7 n=63 v=44
163762 Off ch=7 n=72 v=64
164110 Off ch=7 n=63 v=64
164562 Off ch=7 n=68 v=64
164580 Off ch=7 n=63 v=64
164582 Off ch=7 n=60 v=64
164587 On ch=7 n=59 v=73
164592 On ch=7 n=62 v=52
164600 On ch=7 n=68 v=52
165047 Off ch=7 n=68 v=64
165050 Off ch=7 n=59 v=64
165070 On ch=7 n=60 v=82
165072 On ch=7 n=63 v=56
165075 Off ch=7 n=62 v=64
165097 On ch=7 n=68 v=56
165487 Off ch=7 n=68 v=64
165537 Off ch=7 n=60 v=64
165547 Off ch=7 n=63 v=64
165570 On ch=7 n=68 v=56
165570 On ch=7 n=63 v=82
165572 On ch=7 n=72 v=52
166420 Off ch=7 n=68 v=64
166487 Off ch=7 n=63 v=64
166517 On ch=7 n=68 v=52
166520 On ch=7 n=63 v=48
166520 On ch=7 n=60 v=73
166545 Off ch=7 n=72 v=64
167437 Off ch=7 n=68 v=64
167442 Off ch=7 n=60 v=64
167450 On ch=7 n=65 v=82
167482 On ch=7 n=68 v=52
167487 On ch=7 n=73 v=52
167515 Off ch=7 n=63 v=64
167885 Off ch=7 n=68 v=64
167942 Off ch=7 n=73 v=64
167952 On ch=7 n=63 v=64
167955 On ch=7 n=72 v=60
167957 Off ch=7 n=65 v=64
167957 On ch=7 n=68 v=56
168395 Off ch=7 n=72 v=64
168405 Off ch=7 n=63 v=64
168432 Off ch=7 n=68 v=64
168437 On ch=7 n=67 v=64
168437 On ch=7 n=63 v=91
168450 On ch=7 n=72 v=52
169330 Off ch=7 n=67 v=64
169380 On ch=7 n=67 v=56
169380 On ch=7 n=61 v=73
169382 On ch=7 n=70 v=44
169400 Off ch=7 n=63 v=64
169407 Off ch=7 n=72 v=64
169822 Off ch=7 n=67 v=64
169875 On ch=7 n=69 v=60
169875 On ch=7 n=67 v=64
169877 Off ch=7 n=61 v=64
169885 On ch=7 n=60 v=82
169907 Off ch=7 n=70 v=64
170807 Off ch=7 n=67 v=64
170817 Off ch=7 n=60 v=64
170825 Off ch=7 n=69 v=64
170825 On ch=7 n=70 v=52
170837 On ch=7 n=67 v=60
170840 On ch=7 n=61 v=73
171262 Off ch=7 n=67 v=64
171272 Off ch=7 n=70 v=64
171305 On ch=7 n=70 v=56
171307 On ch=7 n=67 v=82
171325 Off ch=7 n=61 v=64
171325 On ch=7 n=77 v=56
172225 Off ch=7 n=67 v=64
172265 On ch=7 n=67 v=79
172270 On ch=7 n=73 v=50
172287 On ch=7 n=75 v=61
172297 Off ch=7 n=70 v=64
172315 Off ch=7 n=77 v=64
172717 Off ch=7 n=73 v=64
172720 Off ch=7 n=67 v=64
172747 On ch=7 n=73 v=56
172750 On ch=7 n=65 v=73
172762 Off ch=7 n=75 v=64
172762 On ch=7 n=67 v=48
173215 Off ch=7 n=67 v=64
173227 On ch=7 n=72 v=52
173247 On ch=7 n=63 v=76
173250 On ch=7 n=67 v=64
173252 Off ch=7 n=73 v=64
173262 Off ch=7 n=65 v=64
173700 Off ch=7 n=67 v=64
173715 On ch=7 n=71 v=52
173727 On ch=7 n=62 v=73
173730 On ch=7 n=65 v=56
173757 Off ch=7 n=72 v=64
173757 Off ch=7 n=63 v=64
174167 Off ch=7 n=65 v=64
174177 Off ch=7 n=62 v=64
174190 On ch=7 n=68 v=56
174192 Off ch=7 n=71 v=64
174200 On ch=7 n=63 v=73
174205 On ch=7 n=72 v=53
175135 Off ch=7 n=63 v=64
175142 Off ch=7 n=68 v=64
175172 Off ch=7 n=72 v=64
175182 On ch=7 n=60 v=73
175187 On ch=7 n=68 v=48
175192 On ch=7 n=63 v=56
176080 Off ch=7 n=68 v=64
176102 Off ch=7 n=60 v=64
176107 On ch=7 n=59 v=73
176115 Off ch=7 n=63 v=64
176122 On ch=7 n=62 v=56
176130 On ch=7 n=68 v=56
176530 Off ch=7 n=68 v=64
176570 Off ch=7 n=59 v=64
176590 On ch=7 n=60 v=82
176597 Off ch=7 n=62 v=64
176610 On ch=7 n=68 v=52
176612 On ch=7 n=63 v=60
177035 Off ch=7 n=68 v=64
177057 Off ch=7 n=60 v=64
177065 Off ch=7 n=63 v=64
177080 On ch=7 n=68 v=44
177090 On ch=7 n=63 v=82
177107 On ch=7 n=72 v=64
177957 Off ch=7 n=63 v=64
178005 Off ch=7 n=68 v=64
178032 On ch=7 n=63 v=56
178040 On ch=7 n=68 v=52
178040 On ch=7 n=60 v=73
178070 Off ch=7 n=72 v=64
178940 Off ch=7 n=68 v=64
178962 Off ch=7 n=60 v=64
178970 On ch=7 n=61 v=82
179005 On ch=7 n=68 v=48
179012 On ch=7 n=65 v=48
179050 Off ch=7 n=63 v=64
179425 Off ch=7 n=68 v=64
179472 On ch=7 n=63 v=64
179477 Off ch=7 n=61 v=64
179482 On ch=7 n=67 v=60
179487 Off ch=7 n=65 v=64
179492 On ch=7 n=68 v=49
179910 Off ch=7 n=68 v=64
179925 Off ch=7 n=63 v=64
179957 Off ch=7 n=67 v=64
179957 On ch=7 n=65 v=91
179962 On ch=7 n=68 v=56
179967 On ch=7 n=61 v=55
180847 Off ch=7 n=68 v=64
180900 On ch=7 n=63 v=73
180917 Off ch=7 n=61 v=64
180917 On ch=7 n=70 v=52
180920 Off ch=7 n=65 v=64
180927 On ch=7 n=61 v=60
181372 Off ch=7 n=63 v=64
181380 Off ch=7 n=61 v=64
181395 Off ch=7 n=70 v=64
181405 On ch=7 n=63 v=82
181412 On ch=7 n=68 v=52
181417 On ch=7 n=72 v=64
182270 Off ch=7 n=72 v=64
182310 Off ch=7 n=68 v=64
182337 Off ch=7 n=63 v=64
182360 On ch=7 n=72 v=64
182360 On ch=7 n=63 v=73
182367 On ch=7 n=68 v=64
182827 Off ch=7 n=72 v=64
182827 On ch=7 n=65 v=82
182840 On ch=7 n=74 v=64
182845 Off ch=7 n=63 v=64
182857 On ch=7 n=70 v=60
182875 Off ch=7 n=68 v=64
183330 On ch=7 n=72 v=60
183342 On ch=7 n=68 v=56
183365 Off ch=7 n=74 v=64
183365 Off ch=7 n=70 v=64
183812 Off ch=7 n=68 v=64
183822 On ch=7 n=70 v=64
183825 Off ch=7 n=72 v=64
183865 On ch=7 n=74 v=56
184270 On ch=7 n=63 v=73
184277 On ch=7 n=75 v=56
184282 On ch=7 n=67 v=73
184295 Off ch=7 n=65 v=64
184302 Off ch=7 n=70 v=64
184352 Off ch=7 n=74 v=64
185182 Off ch=7 n=63 v=64
185192 Off ch=7 n=75 v=64
185217 Off ch=7 n=67 v=64
185247 On ch=7 n=63 v=73
185447 Off ch=7 n=63 v=64
186185 On ch=7 n=60 v=46
186195 On ch=7 n=63 v=65
186217 On ch=7 n=51 v=48
186222 On ch=7 n=56 v=36
186297 Off ch=7 n=63 v=64
186312 Off ch=7 n=60 v=64
186325 Off ch=7 n=56 v=64
186340 Off ch=7 n=51 v=64
186675 On ch=7 n=60 v=42
186687 On ch=7 n=63 v=61
186695 On ch=7 n=56 v=32
186700 On ch=7 n=51 v=48
186797 Off ch=7 n=63 v=64
186805 Off ch=7 n=60 v=64
186815 Off ch=7 n=51 v=64
186832 Off ch=7 n=56 v=64
187610 On ch=7 n=56 v=36
187617 On ch=7 n=51 v=45
187627 On ch=7 n=60 v=46
187635 On ch=7 n=63 v=64
187715 Off ch=7 n=51 v=64
187732 Off ch=7 n=56 v=64
187735 Off ch=7 n=63 v=64
187750 Off ch=7 n=60 v=64
188107 On ch=7 n=60 v=42
188115 On ch=7 n=51 v=45
188125 On ch=7 n=56 v=37
188127 On ch=7 n=63 v=64
188220 Off ch=7 n=51 v=64
188230 Off ch=7 n=56 v=64
188235 Off ch=7 n=63 v=64
188242 Off ch=7 n=60 v=64
189065 On ch=7 n=60 v=46
189075 On ch=7 n=63 v=65
189097 On ch=7 n=51 v=48
189102 On ch=7 n=56 v=32
189177 Off ch=7 n=63 v=64
189192 Off ch=7 n=60 v=64
189205 Off ch=7 n=56 v=64
189220 Off ch=7 n=51 v=64
189555 On ch=7 n=60 v=42
189567 On ch=7 n=63 v=61
189575 On ch=7 n=56 v=32
189580 On ch=7 n=51 v=48
189677 Off ch=7 n=63 v=64
189685 Off ch=7 n=60 v=64
189695 Off ch=7 n=51 v=64
189712 Off ch=7 n=56 v=64
190490 On ch=7 n=56 v=36
190497 On ch=7 n=51 v=45
190507 On ch=7 n=60 v=46
190515 On ch=7 n=63 v=66
190595 Off ch=7 n=51 v=64
190612 Off ch=7 n=56 v=64
190615 Off ch=7 n=63 v=64
190630 Off ch=7 n=60 v=64
190987 On ch=7 n=60 v=42
190995 On ch=7 n=51 v=45
191005 On ch=7 n=56 v=36
191007 On ch=7 n=63 v=67
191100 Off ch=7 n=51 v=64
191110 Off ch=7 n=56 v=64
191115 Off ch=7 n=63 v=64
191122 Off ch=7 n=60 v=64
191945 On ch=7 n=58 v=46
191955 On ch=7 n=63 v=65
191977 On ch=7 n=61 v=48
191982 On ch=7 n=55 v=36
192057 Off ch=7 n=63 v=64
192072 Off ch=7 n=58 v=64
192085 Off ch=7 n=55 v=64
192100 Off ch=7 n=61 v=64
192435 On ch=7 n=58 v=42
192447 On ch=7 n=63 v=61
192455 On ch=7 n=55 v=32
192460 On ch=7 n=61 v=48
192557 Off ch=7 n=63 v=64
192565 Off ch=7 n=58 v=64
192575 Off ch=7 n=61 v=64
192592 Off ch=7 n=55 v=64
193370 On ch=7 n=55 v=36
193377 On ch=7 n=61 v=45
193387 On ch=7 n=58 v=46
193395 On ch=7 n=63 v=64
193475 Off ch=7 n=61 v=64
193492 Off ch=7 n=55 v=64
193495 Off ch=7 n=63 v=64
193510 Off ch=7 n=58 v=64
193867 On ch=7 n=58 v=42
193875 On ch=7 n=61 v=45
193885 On ch=7 n=55 v=37
193887 On ch=7 n=63 v=64
193980 Off ch=7 n=61 v=64
193990 Off ch=7 n=55 v=64
193995 Off ch=7 n=63 v=64
194002 Off ch=7 n=58 v=64
194825 On ch=7 n=58 v=46
194835 On ch=7 n=63 v=65
194857 On ch=7 n=61 v=48
194862 On ch=7 n=55 v=32
194937 Off ch=7 n=63 v=64
194952 Off ch=7 n=58 v=64
194965 Off ch=7 n=55 v=64
194980 Off ch=7 n=61 v=64
195315 On ch=7 n=58 v=42
195327 On ch=7 n=63 v=61
195335 On ch=7 n=55 v=32
195340 On ch=7 n=61 v=48
195437 Off ch=7 n=63 v=64
195445 Off ch=7 n=58 v=64
195455 Off ch=7 n=61 v=64
195472 Off ch=7 n=55 v=64
196250 On ch=7 n=55 v=36
196257 On ch=7 n=61 v=45
196267 On ch=7 n=58 v=46
196275 On ch=7 n=63 v=66
196355 Off ch=7 n=61 v=64
196372 Off ch=7 n=55 v=64
196375 Off ch=7 n=63 v=64
196390 Off ch=7 n=58 v=64
196747 On ch=7 n=58 v=42
196755 On ch=7 n=61 v=45
196765 On ch=7 n=55 v=36
196767 On ch=7 n=63 v=67
196860 Off ch=7 n=61 v=64
196870 Off ch=7 n=55 v=64
196875 Off ch=7 n=63 v=64
196882 Off ch=7 n=58 v=64
197705 On ch=7 n=60 v=46
197715 On ch=7 n=63 v=65
197737 On ch=7 n=51 v=48
197742 On ch=7 n=56 v=36
197817 Off ch=7 n=63 v=64
197832 Off ch=7 n=60 v=64
197845 Off ch=7 n=56 v=64
197860 Off ch=7 n=51 v=64
198195 On ch=7 n=60 v=42
198207 On ch=7 n=63 v=61
198215 On ch=7 n=56 v=32
198220 On ch=7 n=51 v=48
198317 Off ch=7 n=63 v=64
198325 Off ch=7 n=60 v=64
198335 Off ch=7 n=51 v=64
198352 Off ch=7 n=56 v=64
199130 On ch=7 n=56 v=36
199137 On ch=7 n=51 v=45
199147 On ch=7 n=60 v=46
199155 On ch=7 n=63 v=64
199235 Off ch=7 n=51 v=64
199252 Off ch=7 n=56 v=64
199255 Off ch=7 n=63 v=64
199270 Off ch=7 n=60 v=64
199627 On ch=7 n=60 v=42
199635 On ch=7 n=51 v=45
199645 On ch=7 n=56 v=37
199647 On ch=7 n=63 v=64
199740 Off ch=7 n=51 v=64
199750 Off ch=7 n=56 v=64
199755 Off ch=7 n=63 v=64
199762 Off ch=7 n=60 v=64
200585 On ch=7 n=60 v=46
200595 On ch=7 n=63 v=65
200617 On ch=7 n=51 v=48
200622 On ch=7 n=56 v=32
200697 Off ch=7 n=63 v=64
200712 Off ch=7 n=60 v=64
200725 Off ch=7 n=56 v=64
200740 Off ch=7 n=51 v=64
201075 On ch=7 n=60 v=42
201087 On ch=7 n=63 v=61
201095 On ch=7 n=56 v=32
201100 On ch=7 n=51 v=48
201197 Off ch=7 n=63 v=64
201205 Off ch=7 n=60 v=64
201215 Off ch=7 n=51 v=64
201232 Off ch=7 n=56 v=64
202010 On ch=7 n=56 v=36
202017 On ch=7 n=51 v=45
202027 On ch=7 n=60 v=46
202035 On ch=7 n=63 v=66
202115 Off ch=7 n=51 v=64
202132 Off ch=7 n=56 v=64
202135 Off ch=7 n=63 v=64
202150 Off ch=7 n=60 v=64
202507 On ch=7 n=60 v=42
202515 On ch=7 n=51 v=45
202525 On ch=7 n=56 v=36
202527 On ch=7 n=63 v=67
202620 Off ch=7 n=51 v=64
202630 Off ch=7 n=56 v=64
202635 Off ch=7 n=63 v=64
202642 Off ch=7 n=60 v=64
203465 On ch=7 n=61 v=46
203475 On ch=7 n=65 v=65
203497 On ch=7 n=53 v=48
203502 On ch=7 n=56 v=36
203577 Off ch=7 n=65 v=64
203592 Off ch=7 n=61 v=64
203605 Off ch=7 n=56 v=64
203620 Off ch=7 n=53 v=64
203955 On ch=7 n=61 v=42
203967 On ch=7 n=63 v=61
203975 On ch=7 n=56 v=32
203980 On ch=7 n=51 v=48
204077 Off ch=7 n=63 v=64
204085 Off ch=7 n=61 v=64
204095 Off ch=7 n=51 v=64
204112 Off ch=7 n=56 v=64
204890 On ch=7 n=56 v=36
204897 On ch=7 n=51 v=45
204907 On ch=7 n=60 v=46
204915 On ch=7 n=63 v=64
204995 Off ch=7 n=51 v=64
205012 Off ch=7 n=56 v=64
205015 Off ch=7 n=63 v=64
205030 Off ch=7 n=60 v=64
205387 On ch=7 n=60 v=42
205395 On ch=7 n=51 v=45
205405 On ch=7 n=56 v=37
205407 On ch=7 n=63 v=64
205500 Off ch=7 n=51 v=64
205510 Off ch=7 n=56 v=64
205515 Off ch=7 n=63 v=64
205522 Off ch=7 n=60 v=64
206345 On ch=7 n=62 v=46
206355 On ch=7 n=65 v=65
206377 On ch=7 n=58 v=48
206382 On ch=7 n=56 v=32
206457 Off ch=7 n=65 v=64
206472 Off ch=7 n=62 v=64
206485 Off ch=7 n=56 v=64
206500 Off ch=7 n=58 v=64
206835 On ch=7 n=62 v=42
206847 On ch=7 n=65 v=61
206855 On ch=7 n=56 v=32
206860 On ch=7 n=53 v=48
206957 Off ch=7 n=65 v=64
206965 Off ch=7 n=62 v=64
206975 Off ch=7 n=53 v=64
206992 Off ch=7 n=56 v=64
207787 On ch=7 n=55 v=46
207795 On ch=7 n=63 v=66
207817 On ch=7 n=51 v=48
207822 On ch=7 n=58 v=32
207895 Off ch=7 n=63 v=64
207910 Off ch=7 n=55 v=64
207925 Off ch=7 n=58 v=64
207940 Off ch=7 n=51 v=64
208267 On ch=7 n=55 v=42
208287 On ch=7 n=63 v=67
208295 On ch=7 n=58 v=32
208300 On ch=7 n=51 v=48
208395 Off ch=7 n=63 v=64
208402 Off ch=7 n=55 v=64
208415 Off ch=7 n=51 v=64
208432 Off ch=7 n=58 v=64
208757 On ch=7 n=63 v=59
208765 On ch=7 n=59 v=49
208777 On ch=7 n=55 v=48
208782 On ch=7 n=53 v=32
209732 On ch=7 n=62 v=63
209777 Off ch=7 n=63 v=64
210202 Off ch=7 n=55 v=64
210232 Off ch=7 n=53 v=64
210292 Off ch=7 n=59 v=64
210295 Off ch=7 n=62 v=64
267775 On ch=7 n=72 v=56
267802 On ch=7 n=75 v=56
267830 On ch=7 n=79 v=36
269170 Off ch=7 n=75 v=64
269190 Off ch=7 n=72 v=64
269210 On ch=7 n=75 v=56
269225 On ch=7 n=67 v=56
269232 On ch=7 n=72 v=56
269265 Off ch=7 n=79 v=64
270175 Off ch=7 n=67 v=64
270197 On ch=7 n=63 v=52
270202 On ch=7 n=67 v=48
270225 Off ch=7 n=75 v=64
270237 Off ch=7 n=72 v=64
270237 On ch=7 n=74 v=48
270662 Off ch=7 n=67 v=64
270665 Off ch=7 n=63 v=64
270690 On ch=7 n=63 v=40
270697 On ch=7 n=72 v=44
270700 On ch=7 n=67 v=48
270737 Off ch=7 n=74 v=64
272220 Off ch=7 n=72 v=64
272402 Off ch=7 n=67 v=64
272440 Off ch=7 n=63 v=64
272585 On ch=7 n=67 v=52
272600 On ch=7 n=72 v=48
272610 On ch=7 n=63 v=44
273017 Off ch=7 n=67 v=64
273075 On ch=7 n=67 v=44
273100 On ch=7 n=74 v=52
273122 Off ch=7 n=72 v=64
273522 Off ch=7 n=67 v=64
273552 On ch=7 n=72 v=56
273555 On ch=7 n=67 v=56
273567 On ch=7 n=75 v=56
273585 Off ch=7 n=63 v=64
273610 Off ch=7 n=74 v=64
274015 Off ch=7 n=72 v=64
274027 Off ch=7 n=67 v=64
274055 On ch=7 n=67 v=56
274055 On ch=7 n=72 v=52
274057 On ch=7 n=63 v=48
274067 Off ch=7 n=75 v=64
274465 Off ch=7 n=67 v=64
274492 Off ch=7 n=72 v=64
274502 On ch=7 n=67 v=60
274527 On ch=7 n=75 v=60
274530 On ch=7 n=72 v=60
274610 Off ch=7 n=63 v=64
274975 Off ch=7 n=75 v=64
274980 Off ch=7 n=72 v=64
275007 On ch=7 n=72 v=60
275007 On ch=7 n=75 v=46
275040 On ch=7 n=79 v=52
275045 Off ch=7 n=67 v=64
275930 Off ch=7 n=75 v=64
275932 Off ch=7 n=72 v=64
275957 On ch=7 n=72 v=64
275962 On ch=7 n=75 v=52
275975 Off ch=7 n=79 v=64
275975 On ch=7 n=80 v=40
276387 Off ch=7 n=72 v=64
276425 On ch=7 n=74 v=56
276432 On ch=7 n=72 v=44
276445 On ch=7 n=79 v=48
276452 Off ch=7 n=75 v=64
276457 Off ch=7 n=80 v=64
277820 Off ch=7 n=72 v=64
277845 On ch=7 n=77 v=48
277847 Off ch=7 n=74 v=64
277877 Off ch=7 n=79 v=64
277885 On ch=7 n=74 v=48
277892 On ch=7 n=72 v=52
279092 Off ch=7 n=74 v=64
279095 Off ch=7 n=77 v=64
279237 Off ch=7 n=72 v=64
279330 On ch=7 n=74 v=56
279332 On ch=7 n=72 v=44
279342 On ch=7 n=77 v=60
280645 Off ch=7 n=74 v=64
280710 Off ch=7 n=72 v=64
280710 On ch=7 n=74 v=56
280720 Off ch=7 n=77 v=64
280737 On ch=7 n=72 v=52
280742 On ch=7 n=68 v=36
281657 Off ch=7 n=68 v=64
281675 Off ch=7 n=72 v=64
281697 On ch=7 n=68 v=44
281710 On ch=7 n=65 v=40
281710 On ch=7 n=72 v=52
281747 Off ch=7 n=74 v=64
282147 On ch=7 n=67 v=56
282167 Off ch=7 n=65 v=64
282195 On ch=7 n=65 v=36
282197 On ch=7 n=71 v=40
282210 Off ch=7 n=68 v=64
282242 Off ch=7 n=72 v=64
283687 Off ch=7 n=71 v=64
283697 Off ch=7 n=65 v=64
283730 Off ch=7 n=67 v=64
284090 On ch=7 n=67 v=48
284092 On ch=7 n=59 v=48
284107 On ch=7 n=62 v=64
284562 On ch=7 n=71 v=60
284565 Off ch=7 n=67 v=64
284572 Off ch=7 n=62 v=64
284595 On ch=7 n=62 v=56
284600 On ch=7 n=65 v=64
284610 Off ch=7 n=59 v=64
285030 Off ch=7 n=71 v=64
285042 On ch=7 n=74 v=52
285047 Off ch=7 n=65 v=64
285075 On ch=7 n=71 v=56
285080 Off ch=7 n=62 v=64
285085 On ch=7 n=65 v=64
285430 Off ch=7 n=71 v=64
285470 On ch=7 n=71 v=48
285540 On ch=7 n=67 v=48
285545 Off ch=7 n=74 v=64
285555 On ch=7 n=62 v=64
285585 Off ch=7 n=65 v=64
285980 On ch=7 n=65 v=64
285985 Off ch=7 n=71 v=64
286000 Off ch=7 n=67 v=64
286000 On ch=7 n=71 v=60
286012 On ch=7 n=74 v=60
286067 Off ch=7 n=62 v=64
286467 Off ch=7 n=71 v=64
286472 Off ch=7 n=74 v=64
286482 On ch=7 n=71 v=60
286482 On ch=7 n=77 v=52
286507 On ch=7 n=74 v=60
286520 Off ch=7 n=65 v=64
286957 Off ch=7 n=71 v=64
286980 On ch=7 n=79 v=56
286982 Off ch=7 n=74 v=64
286987 Off ch=7 n=77 v=64
287002 On ch=7 n=74 v=64
287012 On ch=7 n=71 v=48
287415 Off ch=7 n=74 v=64
287440 Off ch=7 n=71 v=64
287462 On ch=7 n=74 v=64
287477 On ch=7 n=71 v=56
287487 Off ch=7 n=79 v=64
287500 On ch=7 n=80 v=52
287957 Off ch=7 n=71 v=64
287975 On ch=7 n=78 v=52
287980 Off ch=7 n=80 v=64
287980 On ch=7 n=75 v=47
287990 Off ch=7 n=74 v=64
288002 On ch=7 n=72 v=50
289310 Off ch=7 n=75 v=64
289320 Off ch=7 n=72 v=64
289370 On ch=7 n=72 v=44
289370 On ch=7 n=75 v=50
289387 On ch=7 n=79 v=48
289422 Off ch=7 n=78 v=64
290550 Off ch=7 n=79 v=64
290632 Off ch=7 n=75 v=64
290662 Off ch=7 n=72 v=64
290842 On ch=7 n=67 v=48
290857 On ch=7 n=72 v=48
290865 On ch=7 n=75 v=64
292240 On ch=7 n=65 v=56
292250 Off ch=7 n=67 v=64
292265 On ch=7 n=74 v=64
292265 On ch=7 n=67 v=36
292295 Off ch=7 n=75 v=64
292297 Off ch=7 n=72 v=64
293180 Off ch=7 n=65 v=64
293192 Off ch=7 n=67 v=64
293225 On ch=7 n=63 v=60
293235 On ch=7 n=67 v=52
293237 On ch=7 n=72 v=64
293272 Off ch=7 n=74 v=64
293675 On ch=7 n=62 v=64
293727 Off ch=7 n=63 v=64
293732 On ch=7 n=65 v=48
293740 On ch=7 n=70 v=56
293762 Off ch=7 n=67 v=64
293782 Off ch=7 n=72 v=64
294650 On ch=7 n=60 v=52
294660 On ch=7 n=63 v=56
294660 On ch=7 n=68 v=52
294717 Off ch=7 n=62 v=64
294717 Off ch=7 n=65 v=64
294720 Off ch=7 n=70 v=64
295142 On ch=7 n=56 v=48
295147 Off ch=7 n=60 v=64
295150 On ch=7 n=65 v=56
295165 On ch=7 n=62 v=52
295180 Off ch=7 n=68 v=64
295182 Off ch=7 n=63 v=64
296300 Off ch=7 n=65 v=64
296310 Off ch=7 n=62 v=64
296337 Off ch=7 n=56 v=64
296615 On ch=7 n=65 v=52
296622 On ch=7 n=74 v=64
296625 On ch=7 n=70 v=36
298025 On ch=7 n=72 v=64
298030 Off ch=7 n=70 v=64
298035 On ch=7 n=63 v=60
298040 On ch=7 n=70 v=53
298092 Off ch=7 n=74 v=64
298092 Off ch=7 n=65 v=64
298910 Off ch=7 n=70 v=64
298915 On ch=7 n=62 v=56
298947 Off ch=7 n=63 v=64
298947 On ch=7 n=70 v=52
298960 On ch=7 n=68 v=56
298975 Off ch=7 n=72 v=64
299430 Off ch=7 n=68 v=64
299437 Off ch=7 n=70 v=64
299462 On ch=7 n=63 v=60
299485 Off ch=7 n=62 v=64
299485 On ch=7 n=70 v=56
299497 On ch=7 n=67 v=48
300482 Off ch=7 n=67 v=64
300505 Off ch=7 n=70 v=64
300522 Off ch=7 n=63 v=64
317735 On ch=7 n=59 v=73
317737 On ch=7 n=53 v=73
317742 On ch=7 n=67 v=64
317862 Off ch=7 n=67 v=64
317870 Off ch=7 n=59 v=64
317882 Off ch=7 n=53 v=64
318222 On ch=7 n=67 v=64
318230 On ch=7 n=60 v=73
318230 On ch=7 n=55 v=73
318375 Off ch=7 n=67 v=64
318425 Off ch=7 n=55 v=64
318437 Off ch=7 n=60 v=64
318437 Meta TrkEnd
TrkEnd
MTrk
0 Meta TrkName "#Trumpet  "
0 Meta 0x21 00
0 Meta 0x20 07
0 Par ch=8 c=10 v=64
65260 On ch=8 n=55 v=33
65260 On ch=8 n=60 v=33
65270 On ch=8 n=63 v=33
65387 Off ch=8 n=60 v=64
65387 Off ch=8 n=55 v=64
65392 Off ch=8 n=63 v=64
65737 On ch=8 n=55 v=33
65737 On ch=8 n=60 v=33
65745 On ch=8 n=63 v=33
65880 Off ch=8 n=63 v=64
65885 Off ch=8 n=60 v=64
65885 Off ch=8 n=55 v=64
66705 On ch=8 n=55 v=33
66705 On ch=8 n=60 v=33
66710 On ch=8 n=63 v=33
66832 Off ch=8 n=63 v=64
66850 Off ch=8 n=60 v=64
66850 Off ch=8 n=55 v=64
67185 On ch=8 n=55 v=33
67185 On ch=8 n=60 v=33
67190 On ch=8 n=63 v=33
67325 Off ch=8 n=63 v=64
67330 Off ch=8 n=60 v=64
67330 Off ch=8 n=55 v=64
68140 On ch=8 n=55 v=33
68140 On ch=8 n=60 v=33
68142 On ch=8 n=63 v=33
68260 Off ch=8 n=60 v=64
68260 Off ch=8 n=55 v=64
68262 Off ch=8 n=63 v=64
68627 On ch=8 n=55 v=33
68627 On ch=8 n=60 v=33
68635 On ch=8 n=63 v=33
68755 Off ch=8 n=63 v=64
68765 Off ch=8 n=60 v=64
68765 Off ch=8 n=55 v=64
69585 On ch=8 n=55 v=33
69585 On ch=8 n=60 v=33
69587 On ch=8 n=63 v=33
69725 Off ch=8 n=63 v=64
69732 Off ch=8 n=60 v=64
69732 Off ch=8 n=55 v=64
70065 On ch=8 n=55 v=33
70065 On ch=8 n=60 v=33
70075 On ch=8 n=63 v=33
70187 Off ch=8 n=63 v=64
70215 Off ch=8 n=60 v=64
70215 Off ch=8 n=55 v=64
71020 On ch=8 n=55 v=33
71020 On ch=8 n=60 v=33
71030 On ch=8 n=63 v=33
71147 Off ch=8 n=60 v=64
71147 Off ch=8 n=55 v=64
71152 Off ch=8 n=63 v=64
71497 On ch=8 n=55 v=33
71497 On ch=8 n=60 v=33
71505 On ch=8 n=63 v=33
71640 Off ch=8 n=63 v=64
71645 Off ch=8 n=60 v=64
71645 Off ch=8 n=55 v=64
72465 On ch=8 n=55 v=33
72465 On ch=8 n=60 v=33
72470 On ch=8 n=63 v=33
72592 Off ch=8 n=63 v=64
72610 Off ch=8 n=60 v=64
72610 Off ch=8 n=55 v=64
72945 On ch=8 n=55 v=33
72945 On ch=8 n=60 v=33
72950 On ch=8 n=63 v=33
73085 Off ch=8 n=63 v=64
73090 Off ch=8 n=60 v=64
73090 Off ch=8 n=55 v=64
73900 On ch=8 n=56 v=33
73900 On ch=8 n=60 v=33
73902 On ch=8 n=65 v=33
74020 Off ch=8 n=60 v=64
74020 Off ch=8 n=56 v=64
74022 Off ch=8 n=65 v=64
74387 On ch=8 n=56 v=33
74387 On ch=8 n=60 v=33
74395 On ch=8 n=65 v=33
74515 Off ch=8 n=65 v=64
74525 Off ch=8 n=60 v=64
74525 Off ch=8 n=56 v=64
75345 On ch=8 n=56 v=33
75345 On ch=8 n=60 v=33
75347 On ch=8 n=65 v=33
75485 Off ch=8 n=65 v=64
75492 Off ch=8 n=60 v=64
75492 Off ch=8 n=56 v=64
75825 On ch=8 n=56 v=33
75825 On ch=8 n=60 v=33
75835 On ch=8 n=65 v=33
75947 Off ch=8 n=65 v=64
75975 Off ch=8 n=60 v=64
75975 Off ch=8 n=56 v=64
76780 On ch=8 n=56 v=33
76780 On ch=8 n=60 v=33
76790 On ch=8 n=65 v=33
76907 Off ch=8 n=60 v=64
76907 Off ch=8 n=56 v=64
76912 Off ch=8 n=65 v=64
77257 On ch=8 n=56 v=33
77257 On ch=8 n=60 v=33
77265 On ch=8 n=65 v=33
77400 Off ch=8 n=65 v=64
77405 Off ch=8 n=60 v=64
77405 Off ch=8 n=56 v=64
78225 On ch=8 n=56 v=33
78225 On ch=8 n=60 v=33
78230 On ch=8 n=65 v=33
78352 Off ch=8 n=65 v=64
78370 Off ch=8 n=60 v=64
78370 Off ch=8 n=56 v=64
78705 On ch=8 n=56 v=33
78705 On ch=8 n=60 v=33
78710 On ch=8 n=65 v=33
78845 Off ch=8 n=65 v=64
78850 Off ch=8 n=60 v=64
78850 Off ch=8 n=56 v=64
79660 On ch=8 n=55 v=33
79660 On ch=8 n=59 v=33
79662 On ch=8 n=65 v=33
79780 Off ch=8 n=59 v=64
79780 Off ch=8 n=55 v=64
79782 Off ch=8 n=65 v=64
80147 On ch=8 n=55 v=33
80147 On ch=8 n=59 v=33
80155 On ch=8 n=65 v=33
80275 Off ch=8 n=65 v=64
80285 Off ch=8 n=59 v=64
80285 Off ch=8 n=55 v=64
81105 On ch=8 n=55 v=33
81105 On ch=8 n=59 v=33
81107 On ch=8 n=65 v=33
81245 Off ch=8 n=65 v=64
81252 Off ch=8 n=59 v=64
81252 Off ch=8 n=55 v=64
81585 On ch=8 n=55 v=33
81585 On ch=8 n=59 v=33
81595 On ch=8 n=65 v=33
81707 Off ch=8 n=65 v=64
81735 Off ch=8 n=59 v=64
81735 Off ch=8 n=55 v=64
82540 On ch=8 n=55 v=33
82540 On ch=8 n=59 v=33
82550 On ch=8 n=65 v=33
82667 Off ch=8 n=59 v=64
82667 Off ch=8 n=55 v=64
82672 Off ch=8 n=65 v=64
83017 On ch=8 n=55 v=33
83017 On ch=8 n=59 v=33
83025 On ch=8 n=65 v=33
83160 Off ch=8 n=65 v=64
83165 Off ch=8 n=59 v=64
83165 Off ch=8 n=55 v=64
83985 On ch=8 n=55 v=33
83985 On ch=8 n=59 v=33
83990 On ch=8 n=65 v=33
84112 Off ch=8 n=65 v=64
84130 Off ch=8 n=59 v=64
84130 Off ch=8 n=55 v=64
84465 On ch=8 n=55 v=33
84465 On ch=8 n=59 v=33
84470 On ch=8 n=65 v=33
84605 Off ch=8 n=65 v=64
84610 Off ch=8 n=59 v=64
84610 Off ch=8 n=55 v=64
85420 On ch=8 n=55 v=33
85420 On ch=8 n=60 v=33
85422 On ch=8 n=63 v=33
85540 Off ch=8 n=60 v=64
85540 Off ch=8 n=55 v=64
85542 Off ch=8 n=63 v=64
85907 On ch=8 n=55 v=33
85907 On ch=8 n=60 v=33
85915 On ch=8 n=63 v=33
86035 Off ch=8 n=63 v=64
86045 Off ch=8 n=60 v=64
86045 Off ch=8 n=55 v=64
86865 On ch=8 n=55 v=33
86865 On ch=8 n=60 v=33
86867 On ch=8 n=63 v=33
87005 Off ch=8 n=63 v=64
87012 Off ch=8 n=60 v=64
87012 Off ch=8 n=55 v=64
87345 On ch=8 n=55 v=33
87345 On ch=8 n=60 v=33
87355 On ch=8 n=63 v=33
87467 Off ch=8 n=63 v=64
87495 Off ch=8 n=60 v=64
87495 Off ch=8 n=55 v=64
88300 On ch=8 n=55 v=33
88300 On ch=8 n=60 v=33
88310 On ch=8 n=63 v=33
88427 Off ch=8 n=60 v=64
88427 Off ch=8 n=55 v=64
88432 Off ch=8 n=63 v=64
88777 On ch=8 n=55 v=33
88777 On ch=8 n=60 v=33
88785 On ch=8 n=63 v=33
88920 Off ch=8 n=63 v=64
88925 Off ch=8 n=60 v=64
88925 Off ch=8 n=55 v=64
89745 On ch=8 n=55 v=33
89745 On ch=8 n=60 v=33
89750 On ch=8 n=63 v=33
89872 Off ch=8 n=63 v=64
89890 Off ch=8 n=60 v=64
89890 Off ch=8 n=55 v=64
90225 On ch=8 n=55 v=33
90225 On ch=8 n=60 v=33
90230 On ch=8 n=63 v=33
90365 Off ch=8 n=63 v=64
90370 Off ch=8 n=60 v=64
90370 Off ch=8 n=55 v=64
91180 On ch=8 n=56 v=33
91180 On ch=8 n=60 v=33
91182 On ch=8 n=65 v=33
91300 Off ch=8 n=60 v=64
91300 Off ch=8 n=56 v=64
91302 Off ch=8 n=65 v=64
91667 On ch=8 n=56 v=33
91667 On ch=8 n=60 v=33
91675 On ch=8 n=65 v=33
91795 Off ch=8 n=65 v=64
91805 Off ch=8 n=60 v=64
91805 Off ch=8 n=56 v=64
92625 On ch=8 n=56 v=33
92625 On ch=8 n=60 v=33
92627 On ch=8 n=65 v=33
92765 Off ch=8 n=65 v=64
92772 Off ch=8 n=60 v=64
92772 Off ch=8 n=56 v=64
93105 On ch=8 n=56 v=33
93105 On ch=8 n=60 v=33
93115 On ch=8 n=65 v=33
93227 Off ch=8 n=65 v=64
93255 Off ch=8 n=60 v=64
93255 Off ch=8 n=56 v=64
94060 On ch=8 n=56 v=33
94060 On ch=8 n=62 v=33
94070 On ch=8 n=65 v=33
94187 Off ch=8 n=62 v=64
94187 Off ch=8 n=56 v=64
94192 Off ch=8 n=65 v=64
94537 On ch=8 n=56 v=33
94537 On ch=8 n=62 v=33
94545 On ch=8 n=65 v=33
94680 Off ch=8 n=65 v=64
94685 Off ch=8 n=62 v=64
94685 Off ch=8 n=56 v=64
95505 On ch=8 n=56 v=33
95505 On ch=8 n=62 v=33
95510 On ch=8 n=65 v=33
95632 Off ch=8 n=65 v=64
95650 Off ch=8 n=62 v=64
95650 Off ch=8 n=56 v=64
95985 On ch=8 n=56 v=33
95985 On ch=8 n=62 v=33
95990 On ch=8 n=65 v=33
96125 Off ch=8 n=65 v=64
96130 Off ch=8 n=62 v=64
96130 Off ch=8 n=56 v=64
96940 On ch=8 n=55 v=33
96940 On ch=8 n=58 v=33
96942 On ch=8 n=63 v=33
97060 Off ch=8 n=58 v=64
97060 Off ch=8 n=55 v=64
97062 Off ch=8 n=63 v=64
97427 On ch=8 n=55 v=33
97427 On ch=8 n=58 v=33
97435 On ch=8 n=63 v=33
97555 Off ch=8 n=63 v=64
97565 Off ch=8 n=58 v=64
97565 Off ch=8 n=55 v=64
98385 On ch=8 n=60 v=33
98387 On ch=8 n=63 v=33
98525 Off ch=8 n=63 v=64
98532 Off ch=8 n=60 v=64
98865 On ch=8 n=62 v=33
98875 On ch=8 n=65 v=33
98987 Off ch=8 n=65 v=64
99015 Off ch=8 n=62 v=64
99820 On ch=8 n=55 v=33
99820 On ch=8 n=63 v=33
99830 On ch=8 n=67 v=33
99947 Off ch=8 n=63 v=64
99947 Off ch=8 n=55 v=64
99952 Off ch=8 n=67 v=64
100297 On ch=8 n=55 v=33
100297 On ch=8 n=63 v=33
100305 On ch=8 n=67 v=33
100440 Off ch=8 n=67 v=64
100445 Off ch=8 n=63 v=64
100445 Off ch=8 n=55 v=64
101260 On ch=8 n=55 v=33
101265 On ch=8 n=62 v=33
101270 On ch=8 n=65 v=33
101387 Off ch=8 n=55 v=64
101392 Off ch=8 n=65 v=64
101410 Off ch=8 n=62 v=64
101737 On ch=8 n=55 v=33
101745 On ch=8 n=62 v=33
101750 On ch=8 n=65 v=33
101885 Off ch=8 n=65 v=64
101885 Off ch=8 n=55 v=64
101890 Off ch=8 n=62 v=64
102700 On ch=8 n=55 v=33
102700 On ch=8 n=63 v=33
102702 On ch=8 n=67 v=33
102820 Off ch=8 n=63 v=64
102820 Off ch=8 n=55 v=64
102822 Off ch=8 n=67 v=64
103187 On ch=8 n=55 v=33
103187 On ch=8 n=63 v=33
103195 On ch=8 n=67 v=33
103315 Off ch=8 n=67 v=64
103325 Off ch=8 n=63 v=64
103325 Off ch=8 n=55 v=64
104140 On ch=8 n=55 v=33
104145 On ch=8 n=60 v=33
104147 On ch=8 n=63 v=33
104260 Off ch=8 n=55 v=64
104285 Off ch=8 n=63 v=64
104292 Off ch=8 n=60 v=64
104625 On ch=8 n=62 v=33
104627 On ch=8 n=55 v=33
104635 On ch=8 n=65 v=33
104747 Off ch=8 n=65 v=64
104765 Off ch=8 n=55 v=64
104775 Off ch=8 n=62 v=64
105580 On ch=8 n=55 v=33
105580 On ch=8 n=63 v=33
105590 On ch=8 n=67 v=33
105707 Off ch=8 n=63 v=64
105707 Off ch=8 n=55 v=64
105712 Off ch=8 n=67 v=64
106057 On ch=8 n=55 v=33
106057 On ch=8 n=63 v=33
106065 On ch=8 n=67 v=33
106200 Off ch=8 n=67 v=64
106205 Off ch=8 n=63 v=64
106205 Off ch=8 n=55 v=64
107020 On ch=8 n=55 v=33
107025 On ch=8 n=62 v=33
107030 On ch=8 n=65 v=33
107147 Off ch=8 n=55 v=64
107152 Off ch=8 n=65 v=64
107170 Off ch=8 n=62 v=64
107497 On ch=8 n=55 v=33
107505 On ch=8 n=62 v=33
107510 On ch=8 n=65 v=33
107645 Off ch=8 n=65 v=64
107645 Off ch=8 n=55 v=64
107650 Off ch=8 n=62 v=64
108460 On ch=8 n=55 v=33
108460 On ch=8 n=63 v=33
108462 On ch=8 n=67 v=33
108580 Off ch=8 n=63 v=64
108580 Off ch=8 n=55 v=64
108582 Off ch=8 n=67 v=64
108947 On ch=8 n=55 v=33
108947 On ch=8 n=63 v=33
108955 On ch=8 n=67 v=33
109075 Off ch=8 n=67 v=64
109085 Off ch=8 n=63 v=64
109085 Off ch=8 n=55 v=64
109900 On ch=8 n=55 v=33
109905 On ch=8 n=60 v=33
109907 On ch=8 n=63 v=33
110020 Off ch=8 n=55 v=64
110045 Off ch=8 n=63 v=64
110052 Off ch=8 n=60 v=64
110385 On ch=8 n=62 v=33
110387 On ch=8 n=55 v=33
110395 On ch=8 n=65 v=33
110507 Off ch=8 n=65 v=64
110525 Off ch=8 n=55 v=64
110535 Off ch=8 n=62 v=64
111340 On ch=8 n=55 v=33
111340 On ch=8 n=63 v=33
111350 On ch=8 n=67 v=33
111467 Off ch=8 n=63 v=64
111467 Off ch=8 n=55 v=64
111472 Off ch=8 n=67 v=64
111817 On ch=8 n=55 v=33
111817 On ch=8 n=63 v=33
111825 On ch=8 n=67 v=33
111960 Off ch=8 n=67 v=64
111965 Off ch=8 n=63 v=64
111965 Off ch=8 n=55 v=64
112780 On ch=8 n=55 v=33
112785 On ch=8 n=62 v=33
112790 On ch=8 n=65 v=33
112907 Off ch=8 n=55 v=64
112912 Off ch=8 n=65 v=64
112930 Off ch=8 n=62 v=64
113257 On ch=8 n=55 v=33
113265 On ch=8 n=62 v=33
113270 On ch=8 n=65 v=33
113405 Off ch=8 n=65 v=64
113405 Off ch=8 n=55 v=64
113410 Off ch=8 n=62 v=64
113745 On ch=8 n=60 v=45
113745 On ch=8 n=55 v=45
113745 On ch=8 n=63 v=45
113747 On ch=8 n=67 v=45
113885 Off ch=8 n=67 v=64
113892 Off ch=8 n=63 v=64
113892 Off ch=8 n=55 v=64
113892 Off ch=8 n=60 v=64
114220 On ch=8 n=60 v=45
114220 On ch=8 n=55 v=45
114220 On ch=8 n=63 v=45
114222 On ch=8 n=67 v=45
114340 Off ch=8 n=63 v=64
114340 Off ch=8 n=55 v=64
114340 Off ch=8 n=60 v=64
114342 Off ch=8 n=67 v=64
114707 On ch=8 n=60 v=45
114707 On ch=8 n=55 v=45
114707 On ch=8 n=63 v=45
114715 On ch=8 n=67 v=45
114835 Off ch=8 n=67 v=64
114845 Off ch=8 n=63 v=64
114845 Off ch=8 n=55 v=64
114845 Off ch=8 n=60 v=64
115185 On ch=8 n=60 v=48
115185 On ch=8 n=55 v=45
115185 On ch=8 n=63 v=48
115187 On ch=8 n=67 v=55
115325 Off ch=8 n=67 v=64
115332 Off ch=8 n=63 v=64
115332 Off ch=8 n=55 v=64
115332 Off ch=8 n=60 v=64
116152 On ch=8 n=62 v=58
116597 Off ch=8 n=62 v=64
116625 On ch=8 n=67 v=69
117887 Off ch=8 n=67 v=64
118065 On ch=8 n=67 v=67
119332 Off ch=8 n=67 v=64
119485 On ch=8 n=67 v=69
119970 On ch=8 n=70 v=63
120010 Off ch=8 n=67 v=64
120390 Off ch=8 n=70 v=64
120440 On ch=8 n=68 v=63
120870 Off ch=8 n=68 v=64
120912 On ch=8 n=67 v=60
121400 Off ch=8 n=67 v=64
121405 On ch=8 n=63 v=58
121875 Off ch=8 n=63 v=64
121887 On ch=8 n=67 v=63
122347 Off ch=8 n=67 v=64
122377 On ch=8 n=70 v=66
123607 Off ch=8 n=70 v=64
123805 On ch=8 n=70 v=66
125022 Off ch=8 n=70 v=64
125255 On ch=8 n=68 v=69
125682 Off ch=8 n=68 v=64
125730 On ch=8 n=67 v=58
126205 Off ch=8 n=67 v=64
126212 On ch=8 n=63 v=55
126695 Off ch=8 n=63 v=64
126697 On ch=8 n=60 v=61
127182 On ch=8 n=62 v=58
127195 Off ch=8 n=60 v=64
127647 Off ch=8 n=62 v=64
127672 On ch=8 n=63 v=61
128097 Off ch=8 n=63 v=64
128147 On ch=8 n=68 v=67
129482 Off ch=8 n=68 v=64
129582 On ch=8 n=67 v=67
130812 Off ch=8 n=67 v=64
131000 On ch=8 n=67 v=58
131460 Off ch=8 n=67 v=64
131485 On ch=8 n=65 v=60
131932 Off ch=8 n=65 v=64
131977 On ch=8 n=64 v=58
132407 Off ch=8 n=64 v=64
132457 On ch=8 n=65 v=58
132925 Off ch=8 n=65 v=64
132947 On ch=8 n=63 v=58
133382 Off ch=8 n=63 v=64
133420 On ch=8 n=65 v=63
133885 Off ch=8 n=65 v=64
133907 On ch=8 n=63 v=58
134875 On ch=8 n=67 v=58
134885 Off ch=8 n=63 v=64
135305 Off ch=8 n=67 v=64
135350 On ch=8 n=62 v=58
136255 Off ch=8 n=62 v=64
136302 On ch=8 n=68 v=61
136762 Off ch=8 n=68 v=64
136790 On ch=8 n=63 v=72
137715 On ch=8 n=70 v=75
137717 Off ch=8 n=63 v=64
137727 On ch=8 n=67 v=63
138172 Off ch=8 n=67 v=64
138200 On ch=8 n=67 v=76
138220 On ch=8 n=75 v=88
138237 Off ch=8 n=70 v=64
138370 Par ch=8 c=1 v=1
138470 Par ch=8 c=1 v=2
138495 Par ch=8 c=1 v=3
138507 Par ch=8 c=1 v=4
138522 Par ch=8 c=1 v=5
138535 Par ch=8 c=1 v=6
138542 Par ch=8 c=1 v=7
138547 Par ch=8 c=1 v=8
138567 Par ch=8 c=1 v=9
138580 Par ch=8 c=1 v=10
138595 Par ch=8 c=1 v=11
138602 Par ch=8 c=1 v=13
138617 Par ch=8 c=1 v=14
138625 Par ch=8 c=1 v=15
138635 Par ch=8 c=1 v=16
138652 Par ch=8 c=1 v=17
138662 Par ch=8 c=1 v=18
138672 Par ch=8 c=1 v=19
138682 Par ch=8 c=1 v=20
138700 Par ch=8 c=1 v=21
138705 Par ch=8 c=1 v=22
138717 Par ch=8 c=1 v=23
138717 Par ch=8 c=1 v=24
138722 Par ch=8 c=1 v=25
138732 Par ch=8 c=1 v=26
138735 Par ch=8 c=1 v=27
138745 Par ch=8 c=1 v=28
138750 Par ch=8 c=1 v=29
138765 Par ch=8 c=1 v=30
138772 Par ch=8 c=1 v=32
138777 Par ch=8 c=1 v=33
138790 Par ch=8 c=1 v=34
138800 Par ch=8 c=1 v=35
138807 Par ch=8 c=1 v=36
138812 Par ch=8 c=1 v=37
138825 Par ch=8 c=1 v=39
138825 Par ch=8 c=1 v=38
138840 Par ch=8 c=1 v=40
138852 Par ch=8 c=1 v=41
138875 Par ch=8 c=1 v=42
138987 Par ch=8 c=1 v=41
139005 Par ch=8 c=1 v=40
139017 Par ch=8 c=1 v=39
139025 Par ch=8 c=1 v=38
139032 Par ch=8 c=1 v=37
139040 Par ch=8 c=1 v=36
139047 Par ch=8 c=1 v=34
139055 Par ch=8 c=1 v=33
139062 Par ch=8 c=1 v=32
139070 Par ch=8 c=1 v=31
139077 Par ch=8 c=1 v=29
139085 Par ch=8 c=1 v=28
139092 Par ch=8 c=1 v=26
139097 Off ch=8 n=67 v=64
139097 Par ch=8 c=1 v=25
139105 Par ch=8 c=1 v=23
139115 Par ch=8 c=1 v=21
139120 Par ch=8 c=1 v=20
139127 Par ch=8 c=1 v=18
139135 Par ch=8 c=1 v=16
139142 Par ch=8 c=1 v=13
139147 Par ch=8 c=1 v=10
139157 Par ch=8 c=1 v=8
139162 Par ch=8 c=1 v=5
139170 Par ch=8 c=1 v=1
139175 On ch=8 n=70 v=74
139187 Off ch=8 n=75 v=64
139192 On ch=8 n=77 v=83
139200 Par ch=8 c=1 v=0
139647 Off ch=8 n=70 v=64
139665 On ch=8 n=75 v=70
139677 On ch=8 n=79 v=68
139705 Off ch=8 n=77 v=64
140055 Par ch=8 c=1 v=1
140127 Par ch=8 c=1 v=2
140140 Par ch=8 c=1 v=3
140155 Par ch=8 c=1 v=4
140167 Par ch=8 c=1 v=6
140177 Par ch=8 c=1 v=7
140190 Par ch=8 c=1 v=8
140205 Par ch=8 c=1 v=9
140220 Par ch=8 c=1 v=10
140237 Par ch=8 c=1 v=11
140250 Par ch=8 c=1 v=12
140257 Par ch=8 c=1 v=13
140272 Par ch=8 c=1 v=14
140280 Par ch=8 c=1 v=15
140297 Par ch=8 c=1 v=16
140305 Par ch=8 c=1 v=17
140312 Par ch=8 c=1 v=18
140327 Par ch=8 c=1 v=19
140345 Par ch=8 c=1 v=20
140365 Par ch=8 c=1 v=21
140377 Par ch=8 c=1 v=22
140382 Par ch=8 c=1 v=24
140400 Par ch=8 c=1 v=25
140407 Par ch=8 c=1 v=26
140417 Par ch=8 c=1 v=27
140437 Par ch=8 c=1 v=28
140442 Par ch=8 c=1 v=29
140460 Par ch=8 c=1 v=31
140472 Par ch=8 c=1 v=32
140480 Par ch=8 c=1 v=33
140495 Par ch=8 c=1 v=34
140510 Par ch=8 c=1 v=35
140517 Par ch=8 c=1 v=36
140535 Par ch=8 c=1 v=37
140547 Par ch=8 c=1 v=38
140572 Par ch=8 c=1 v=39
140592 Par ch=8 c=1 v=40
140657 Par ch=8 c=1 v=41
140790 Par ch=8 c=1 v=40
140812 Par ch=8 c=1 v=39
140827 Par ch=8 c=1 v=38
140837 Par ch=8 c=1 v=37
140855 Par ch=8 c=1 v=36
140872 Par ch=8 c=1 v=35
140877 Par ch=8 c=1 v=34
140892 Par ch=8 c=1 v=32
140892 Par ch=8 c=1 v=33
140900 Par ch=8 c=1 v=31
140910 Par ch=8 c=1 v=30
140920 Par ch=8 c=1 v=29
140925 Par ch=8 c=1 v=27
140937 Par ch=8 c=1 v=26
140940 Par ch=8 c=1 v=24
140947 Off ch=8 n=79 v=64
140957 Par ch=8 c=1 v=21
140957 Par ch=8 c=1 v=23
140970 Par ch=8 c=1 v=20
140980 Par ch=8 c=1 v=18
140990 Par ch=8 c=1 v=14
140990 Par ch=8 c=1 v=16
140995 Par ch=8 c=1 v=12
141007 Par ch=8 c=1 v=10
141012 Off ch=8 n=75 v=64
141022 Par ch=8 c=1 v=6
141022 Par ch=8 c=1 v=8
141027 Par ch=8 c=1 v=4
141040 Par ch=8 c=1 v=1
141080 Par ch=8 c=1 v=0
141092 On ch=8 n=79 v=69
141102 On ch=8 n=75 v=65
141390 Par ch=8 c=1 v=1
141425 Par ch=8 c=1 v=2
141437 Par ch=8 c=1 v=3
141445 Par ch=8 c=1 v=4
141452 Par ch=8 c=1 v=6
141462 Par ch=8 c=1 v=7
141470 Par ch=8 c=1 v=8
141480 Par ch=8 c=1 v=9
141487 Par ch=8 c=1 v=10
141495 Par ch=8 c=1 v=11
141507 Par ch=8 c=1 v=13
141512 Par ch=8 c=1 v=14
141532 Par ch=8 c=1 v=15
141540 Par ch=8 c=1 v=16
141550 Par ch=8 c=1 v=17
141565 Par ch=8 c=1 v=18
141572 Par ch=8 c=1 v=19
141585 Par ch=8 c=1 v=20
141602 Par ch=8 c=1 v=22
141617 Par ch=8 c=1 v=23
141625 Par ch=8 c=1 v=24
141632 Par ch=8 c=1 v=26
141650 Par ch=8 c=1 v=27
141655 Par ch=8 c=1 v=28
141665 Par ch=8 c=1 v=29
141687 Par ch=8 c=1 v=31
141687 Par ch=8 c=1 v=30
141702 Par ch=8 c=1 v=32
141707 Par ch=8 c=1 v=33
141725 Par ch=8 c=1 v=35
141737 Par ch=8 c=1 v=36
141745 Par ch=8 c=1 v=37
141762 Par ch=8 c=1 v=39
141772 Par ch=8 c=1 v=40
141785 Par ch=8 c=1 v=41
141807 Par ch=8 c=1 v=42
141817 Par ch=8 c=1 v=43
141832 Par ch=8 c=1 v=44
141850 Par ch=8 c=1 v=46
141860 Par ch=8 c=1 v=47
141875 Par ch=8 c=1 v=48
141887 Par ch=8 c=1 v=49
141905 Par ch=8 c=1 v=50
141917 Par ch=8 c=1 v=51
141935 Par ch=8 c=1 v=52
141947 Par ch=8 c=1 v=53
141962 Par ch=8 c=1 v=54
141985 Par ch=8 c=1 v=55
142010 Par ch=8 c=1 v=56
142035 Par ch=8 c=1 v=57
142072 Par ch=8 c=1 v=58
142215 Par ch=8 c=1 v=57
142227 Par ch=8 c=1 v=56
142245 Par ch=8 c=1 v=54
142260 Par ch=8 c=1 v=53
142267 Par ch=8 c=1 v=52
142275 Par ch=8 c=1 v=51
142300 Par ch=8 c=1 v=48
142300 Par ch=8 c=1 v=49
142310 Par ch=8 c=1 v=47
142315 Par ch=8 c=1 v=46
142325 Par ch=8 c=1 v=45
142332 Par ch=8 c=1 v=44
142342 Par ch=8 c=1 v=42
142347 Par ch=8 c=1 v=41
142355 Par ch=8 c=1 v=39
142362 Par ch=8 c=1 v=37
142377 Par ch=8 c=1 v=33
142377 Par ch=8 c=1 v=35
142390 Par ch=8 c=1 v=31
142395 Par ch=8 c=1 v=29
142400 Off ch=8 n=79 v=64
142407 Par ch=8 c=1 v=26
142410 Par ch=8 c=1 v=23
142417 Par ch=8 c=1 v=21
142430 Par ch=8 c=1 v=19
142437 Par ch=8 c=1 v=15
142445 Par ch=8 c=1 v=12
142447 Off ch=8 n=75 v=64
142460 Par ch=8 c=1 v=6
142460 Par ch=8 c=1 v=9
142470 Par ch=8 c=1 v=2
142477 Par ch=8 c=1 v=1
142505 Par ch=8 c=1 v=0
142532 On ch=8 n=79 v=57
142545 On ch=8 n=75 v=74
142997 Off ch=8 n=79 v=64
143025 On ch=8 n=77 v=56
143030 Off ch=8 n=75 v=64
143037 On ch=8 n=74 v=67
143442 Off ch=8 n=77 v=64
143487 Off ch=8 n=74 v=64
143490 On ch=8 n=75 v=42
143495 On ch=8 n=72 v=65
143937 Off ch=8 n=75 v=64
143945 Off ch=8 n=72 v=64
143975 On ch=8 n=74 v=59
143977 On ch=8 n=70 v=70
144422 Off ch=8 n=70 v=64
144445 On ch=8 n=67 v=65
144450 Off ch=8 n=74 v=64
144457 On ch=8 n=70 v=54
144895 Off ch=8 n=67 v=64
144920 Off ch=8 n=70 v=64
144925 On ch=8 n=70 v=73
144950 On ch=8 n=74 v=46
145377 Off ch=8 n=70 v=64
145390 Off ch=8 n=74 v=64
145417 On ch=8 n=74 v=68
145442 On ch=8 n=77 v=53
146697 Off ch=8 n=77 v=64
146737 Off ch=8 n=74 v=64
146852 On ch=8 n=74 v=67
146857 On ch=8 n=77 v=56
148097 Off ch=8 n=77 v=64
148117 Off ch=8 n=74 v=64
148295 On ch=8 n=77 v=59
148305 On ch=8 n=74 v=70
148782 Off ch=8 n=74 v=64
148782 On ch=8 n=72 v=65
148792 Off ch=8 n=77 v=64
148800 On ch=8 n=75 v=60
149187 Off ch=8 n=75 v=64
149212 Off ch=8 n=72 v=64
149250 On ch=8 n=74 v=46
149257 On ch=8 n=70 v=64
149690 Off ch=8 n=70 v=64
149725 On ch=8 n=68 v=65
149745 Off ch=8 n=74 v=64
149747 On ch=8 n=72 v=58
150192 Off ch=8 n=72 v=64
150212 Off ch=8 n=68 v=64
150215 On ch=8 n=63 v=65
150225 On ch=8 n=67 v=55
150627 Off ch=8 n=67 v=64
150690 On ch=8 n=67 v=74
150692 On ch=8 n=70 v=47
150705 Off ch=8 n=63 v=64
151157 Off ch=8 n=67 v=64
151172 On ch=8 n=67 v=70
151175 Off ch=8 n=70 v=64
151190 On ch=8 n=75 v=46
152442 Off ch=8 n=75 v=64
152452 Off ch=8 n=67 v=64
152590 On ch=8 n=67 v=67
152607 On ch=8 n=75 v=46
153922 Off ch=8 n=75 v=64
153980 Off ch=8 n=67 v=64
154055 On ch=8 n=68 v=65
154065 On ch=8 n=75 v=46
155342 Off ch=8 n=68 v=64
155347 Off ch=8 n=75 v=64
155490 On ch=8 n=77 v=53
155497 On ch=8 n=68 v=67
155957 Off ch=8 n=77 v=64
155980 On ch=8 n=75 v=46
155987 Off ch=8 n=68 v=64
155987 On ch=8 n=67 v=65
156395 Off ch=8 n=75 v=64
156412 Off ch=8 n=67 v=64
156455 On ch=8 n=77 v=47
156455 On ch=8 n=68 v=64
156870 Off ch=8 n=68 v=64
156900 Off ch=8 n=77 v=64
156927 On ch=8 n=70 v=70
156940 On ch=8 n=79 v=48
157882 Off ch=8 n=79 v=64
157895 On ch=8 n=75 v=49
157905 Off ch=8 n=70 v=64
157905 On ch=8 n=67 v=65
158365 Off ch=8 n=75 v=64
158367 Off ch=8 n=67 v=64
158380 On ch=8 n=70 v=46
158392 On ch=8 n=62 v=65
158865 Off ch=8 n=62 v=64
158870 On ch=8 n=72 v=46
158870 On ch=8 n=63 v=56
158895 Off ch=8 n=70 v=64
159327 Off ch=8 n=72 v=64
159352 On ch=8 n=74 v=46
159357 On ch=8 n=65 v=64
159362 Off ch=8 n=63 v=64
159822 On ch=8 n=67 v=74
159822 On ch=8 n=75 v=65
159837 Off ch=8 n=65 v=64
159845 Off ch=8 n=74 v=64
159970 Off ch=8 n=67 v=64
159990 Off ch=8 n=75 v=64
161260 On ch=8 n=61 v=48
161265 On ch=8 n=58 v=48
161267 On ch=8 n=63 v=56
162655 Off ch=8 n=63 v=64
162690 Off ch=8 n=61 v=64
162735 Off ch=8 n=58 v=64
163145 On ch=8 n=60 v=46
163155 On ch=8 n=63 v=65
163257 Off ch=8 n=63 v=64
163272 Off ch=8 n=60 v=64
163635 On ch=8 n=60 v=42
163647 On ch=8 n=63 v=61
163757 Off ch=8 n=63 v=64
163765 Off ch=8 n=60 v=64
164587 On ch=8 n=60 v=46
164595 On ch=8 n=63 v=64
164695 Off ch=8 n=63 v=64
164710 Off ch=8 n=60 v=64
165067 On ch=8 n=60 v=42
165087 On ch=8 n=63 v=64
165195 Off ch=8 n=63 v=64
165202 Off ch=8 n=60 v=64
166025 On ch=8 n=60 v=46
166035 On ch=8 n=63 v=65
166137 Off ch=8 n=63 v=64
166152 Off ch=8 n=60 v=64
166515 On ch=8 n=60 v=42
166527 On ch=8 n=63 v=61
166637 Off ch=8 n=63 v=64
166645 Off ch=8 n=60 v=64
167467 On ch=8 n=60 v=46
167475 On ch=8 n=63 v=66
167575 Off ch=8 n=63 v=64
167590 Off ch=8 n=60 v=64
167947 On ch=8 n=60 v=42
167967 On ch=8 n=63 v=67
168075 Off ch=8 n=63 v=64
168082 Off ch=8 n=60 v=64
168905 On ch=8 n=58 v=46
168915 On ch=8 n=63 v=65
169017 Off ch=8 n=63 v=64
169032 Off ch=8 n=58 v=64
169395 On ch=8 n=58 v=42
169407 On ch=8 n=63 v=61
169517 Off ch=8 n=63 v=64
169525 Off ch=8 n=58 v=64
170347 On ch=8 n=58 v=46
170355 On ch=8 n=63 v=64
170455 Off ch=8 n=63 v=64
170470 Off ch=8 n=58 v=64
170827 On ch=8 n=58 v=42
170847 On ch=8 n=63 v=64
170955 Off ch=8 n=63 v=64
170962 Off ch=8 n=58 v=64
171785 On ch=8 n=58 v=46
171795 On ch=8 n=63 v=65
171897 Off ch=8 n=63 v=64
171912 Off ch=8 n=58 v=64
172275 On ch=8 n=58 v=42
172287 On ch=8 n=63 v=61
172397 Off ch=8 n=63 v=64
172405 Off ch=8 n=58 v=64
173227 On ch=8 n=58 v=46
173235 On ch=8 n=63 v=66
173335 Off ch=8 n=63 v=64
173350 Off ch=8 n=58 v=64
173707 On ch=8 n=58 v=42
173727 On ch=8 n=63 v=67
173835 Off ch=8 n=63 v=64
173842 Off ch=8 n=58 v=64
174665 On ch=8 n=60 v=46
174675 On ch=8 n=63 v=65
174777 Off ch=8 n=63 v=64
174792 Off ch=8 n=60 v=64
175155 On ch=8 n=60 v=42
175167 On ch=8 n=63 v=61
175277 Off ch=8 n=63 v=64
175285 Off ch=8 n=60 v=64
176107 On ch=8 n=60 v=46
176115 On ch=8 n=63 v=64
176215 Off ch=8 n=63 v=64
176230 Off ch=8 n=60 v=64
176587 On ch=8 n=60 v=42
176607 On ch=8 n=63 v=64
176715 Off ch=8 n=63 v=64
176722 Off ch=8 n=60 v=64
177545 On ch=8 n=60 v=46
177555 On ch=8 n=63 v=65
177657 Off ch=8 n=63 v=64
177672 Off ch=8 n=60 v=64
178035 On ch=8 n=60 v=42
178047 On ch=8 n=63 v=61
178157 Off ch=8 n=63 v=64
178165 Off ch=8 n=60 v=64
178987 On ch=8 n=60 v=46
178995 On ch=8 n=63 v=66
179095 Off ch=8 n=63 v=64
179110 Off ch=8 n=60 v=64
179467 On ch=8 n=60 v=42
179487 On ch=8 n=63 v=67
179595 Off ch=8 n=63 v=64
179602 Off ch=8 n=60 v=64
180425 On ch=8 n=61 v=46
180435 On ch=8 n=65 v=65
180537 Off ch=8 n=65 v=64
180552 Off ch=8 n=61 v=64
180915 On ch=8 n=61 v=42
180927 On ch=8 n=63 v=61
181037 Off ch=8 n=63 v=64
181045 Off ch=8 n=61 v=64
181867 On ch=8 n=60 v=46
181875 On ch=8 n=63 v=64
181975 Off ch=8 n=63 v=64
181990 Off ch=8 n=60 v=64
182347 On ch=8 n=60 v=42
182367 On ch=8 n=63 v=64
182475 Off ch=8 n=63 v=64
182482 Off ch=8 n=60 v=64
183305 On ch=8 n=62 v=46
183315 On ch=8 n=65 v=65
183417 Off ch=8 n=65 v=64
183432 Off ch=8 n=62 v=64
183795 On ch=8 n=62 v=42
183807 On ch=8 n=65 v=61
183917 Off ch=8 n=65 v=64
183925 Off ch=8 n=62 v=64
184747 On ch=8 n=55 v=46
184755 On ch=8 n=63 v=66
184855 Off ch=8 n=63 v=64
184870 Off ch=8 n=55 v=64
185227 On ch=8 n=55 v=42
185247 On ch=8 n=61 v=67
185355 Off ch=8 n=61 v=64
185362 Off ch=8 n=55 v=64
185732 On ch=8 n=63 v=73
185740 On ch=8 n=56 v=56
185742 On ch=8 n=72 v=82
185752 On ch=8 n=68 v=31
185900 Par ch=8 c=1 v=1
185970 Par ch=8 c=1 v=2
185985 Par ch=8 c=1 v=5
186010 Par ch=8 c=1 v=7
186035 Par ch=8 c=1 v=9
186055 Par ch=8 c=1 v=12
186077 Par ch=8 c=1 v=14
186102 Par ch=8 c=1 v=18
186132 Par ch=8 c=1 v=19
186142 Par ch=8 c=1 v=21
186175 Par ch=8 c=1 v=22
186190 Par ch=8 c=1 v=25
186225 Par ch=8 c=1 v=26
186237 Par ch=8 c=1 v=28
186260 Par ch=8 c=1 v=29
186282 Par ch=8 c=1 v=31
186315 Par ch=8 c=1 v=32
186330 Par ch=8 c=1 v=33
186385 Par ch=8 c=1 v=34
186492 Par ch=8 c=1 v=33
186507 Par ch=8 c=1 v=31
186525 Par ch=8 c=1 v=26
186550 Par ch=8 c=1 v=22
186575 Par ch=8 c=1 v=19
186592 Par ch=8 c=1 v=11
186625 Par ch=8 c=1 v=6
186632 Off ch=8 n=56 v=64
186642 Off ch=8 n=63 v=64
186642 Par ch=8 c=1 v=1
186662 Off ch=8 n=68 v=64
186670 On ch=8 n=60 v=73
186680 On ch=8 n=56 v=40
186690 Par ch=8 c=1 v=0
186702 On ch=8 n=68 v=31
186715 Off ch=8 n=72 v=64
186717 On ch=8 n=63 v=82
186952 Par ch=8 c=1 v=1
187007 Par ch=8 c=1 v=2
187025 Par ch=8 c=1 v=6
187050 Par ch=8 c=1 v=8
187075 Par ch=8 c=1 v=11
187092 Par ch=8 c=1 v=14
187112 Par ch=8 c=1 v=17
187135 Par ch=8 c=1 v=19
187160 Par ch=8 c=1 v=23
187185 Par ch=8 c=1 v=25
187200 Par ch=8 c=1 v=27
187225 Par ch=8 c=1 v=30
187250 Par ch=8 c=1 v=32
187272 Par ch=8 c=1 v=33
187292 Par ch=8 c=1 v=36
187332 Par ch=8 c=1 v=37
187390 Par ch=8 c=1 v=36
187415 Par ch=8 c=1 v=35
187427 Par ch=8 c=1 v=33
187450 Par ch=8 c=1 v=32
187470 Par ch=8 c=1 v=28
187500 Par ch=8 c=1 v=25
187515 Par ch=8 c=1 v=21
187547 Par ch=8 c=1 v=18
187562 Par ch=8 c=1 v=13
187582 Off ch=8 n=56 v=64
187590 Off ch=8 n=60 v=64
187590 Par ch=8 c=1 v=10
187597 Off ch=8 n=68 v=64
187610 Par ch=8 c=1 v=6
187627 Par ch=8 c=1 v=1
187627 On ch=8 n=59 v=64
187647 On ch=8 n=62 v=82
187655 On ch=8 n=68 v=44
187662 Off ch=8 n=63 v=64
187662 On ch=8 n=56 v=48
187712 Par ch=8 c=1 v=0
188080 Off ch=8 n=59 v=64
188085 Off ch=8 n=56 v=64
188107 Off ch=8 n=68 v=64
188122 Off ch=8 n=62 v=64
188125 On ch=8 n=63 v=91
188132 On ch=8 n=56 v=40
188137 On ch=8 n=60 v=73
188137 On ch=8 n=68 v=44
188542 Off ch=8 n=60 v=64
188557 Off ch=8 n=56 v=64
188560 Off ch=8 n=63 v=64
188585 Off ch=8 n=68 v=64
188592 On ch=8 n=72 v=82
188592 On ch=8 n=63 v=73
188600 On ch=8 n=56 v=44
188620 On ch=8 n=68 v=48
188825 Par ch=8 c=1 v=1
188895 Par ch=8 c=1 v=3
188915 Par ch=8 c=1 v=5
188932 Par ch=8 c=1 v=9
188962 Par ch=8 c=1 v=10
188977 Par ch=8 c=1 v=14
189000 Par ch=8 c=1 v=19
189027 Par ch=8 c=1 v=21
189047 Par ch=8 c=1 v=27
189080 Par ch=8 c=1 v=28
189097 Par ch=8 c=1 v=30
189112 Par ch=8 c=1 v=36
189135 Par ch=8 c=1 v=38
189157 Par ch=8 c=1 v=40
189180 Par ch=8 c=1 v=42
189247 Par ch=8 c=1 v=40
189272 Par ch=8 c=1 v=37
189297 Par ch=8 c=1 v=34
189315 Par ch=8 c=1 v=31
189337 Par ch=8 c=1 v=23
189362 Par ch=8 c=1 v=17
189387 Par ch=8 c=1 v=8
189412 Par ch=8 c=1 v=1
189455 Par ch=8 c=1 v=0
189477 Off ch=8 n=68 v=64
189502 Off ch=8 n=56 v=64
189517 Off ch=8 n=63 v=64
189527 On ch=8 n=60 v=64
189537 On ch=8 n=68 v=52
189550 On ch=8 n=63 v=82
189560 Off ch=8 n=72 v=64
189580 On ch=8 n=56 v=40
189760 Par ch=8 c=1 v=1
189807 Par ch=8 c=1 v=2
189817 Par ch=8 c=1 v=3
189832 Par ch=8 c=1 v=8
189870 Par ch=8 c=1 v=10
189892 Par ch=8 c=1 v=11
189900 Par ch=8 c=1 v=13
189922 Par ch=8 c=1 v=16
189962 Par ch=8 c=1 v=17
189980 Par ch=8 c=1 v=19
190000 Par ch=8 c=1 v=20
190012 Par ch=8 c=1 v=21
190035 Par ch=8 c=1 v=23
190065 Par ch=8 c=1 v=25
190087 Par ch=8 c=1 v=27
190112 Par ch=8 c=1 v=29
190137 Par ch=8 c=1 v=30
190152 Par ch=8 c=1 v=32
190182 Par ch=8 c=1 v=33
190212 Par ch=8 c=1 v=34
190325 Par ch=8 c=1 v=33
190337 Par ch=8 c=1 v=32
190365 Par ch=8 c=1 v=31
190372 Par ch=8 c=1 v=29
190400 Par ch=8 c=1 v=26
190420 Par ch=8 c=1 v=24
190455 Par ch=8 c=1 v=20
190470 Off ch=8 n=68 v=64
190472 Par ch=8 c=1 v=18
190480 Off ch=8 n=56 v=64
190497 Par ch=8 c=1 v=16
190510 Par ch=8 c=1 v=13
190520 On ch=8 n=73 v=82
190532 Par ch=8 c=1 v=8
190535 On ch=8 n=65 v=56
190535 On ch=8 n=68 v=48
190540 On ch=8 n=61 v=56
190557 Par ch=8 c=1 v=5
190577 Off ch=8 n=63 v=64
190580 Par ch=8 c=1 v=2
190595 Off ch=8 n=60 v=64
190597 Par ch=8 c=1 v=1
190672 Par ch=8 c=1 v=0
190972 Off ch=8 n=68 v=64
190980 Off ch=8 n=61 v=64
190990 On ch=8 n=60 v=56
190995 Off ch=8 n=65 v=64
190995 On ch=8 n=63 v=64
190997 On ch=8 n=72 v=81
191002 Off ch=8 n=73 v=64
191012 On ch=8 n=68 v=40
191387 Off ch=8 n=63 v=64
191407 Off ch=8 n=60 v=64
191457 Off ch=8 n=72 v=64
191470 Off ch=8 n=68 v=64
191480 On ch=8 n=60 v=56
191480 On ch=8 n=63 v=64
191487 On ch=8 n=67 v=56
191487 On ch=8 n=72 v=90
191675 Par ch=8 c=1 v=1
191762 Par ch=8 c=1 v=2
191782 Par ch=8 c=1 v=3
191790 Par ch=8 c=1 v=5
191812 Par ch=8 c=1 v=9
191847 Par ch=8 c=1 v=11
191870 Par ch=8 c=1 v=13
191887 Par ch=8 c=1 v=14
191902 Par ch=8 c=1 v=17
191927 Par ch=8 c=1 v=19
191955 Par ch=8 c=1 v=21
191985 Par ch=8 c=1 v=22
191995 Par ch=8 c=1 v=26
192027 Par ch=8 c=1 v=27
192045 Par ch=8 c=1 v=28
192072 Par ch=8 c=1 v=29
192117 Par ch=8 c=1 v=30
192177 Par ch=8 c=1 v=28
192207 Par ch=8 c=1 v=25
192225 Par ch=8 c=1 v=23
192245 Par ch=8 c=1 v=19
192267 Par ch=8 c=1 v=17
192285 Par ch=8 c=1 v=13
192307 Par ch=8 c=1 v=9
192335 Par ch=8 c=1 v=6
192342 Off ch=8 n=67 v=64
192352 Par ch=8 c=1 v=1
192395 On ch=8 n=70 v=81
192412 On ch=8 n=58 v=48
192412 Par ch=8 c=1 v=0
192425 Off ch=8 n=63 v=64
192425 Off ch=8 n=60 v=64
192432 Off ch=8 n=72 v=64
192452 On ch=8 n=61 v=64
192457 On ch=8 n=67 v=56
192837 Off ch=8 n=67 v=64
192872 On ch=8 n=57 v=56
192880 On ch=8 n=67 v=48
192885 Off ch=8 n=58 v=64
192892 Off ch=8 n=70 v=64
192892 Off ch=8 n=61 v=64
192905 On ch=8 n=69 v=90
192920 On ch=8 n=60 v=64
192992 Par ch=8 c=1 v=1
193057 Par ch=8 c=1 v=2
193075 Par ch=8 c=1 v=4
193097 Par ch=8 c=1 v=7
193135 Par ch=8 c=1 v=8
193147 Par ch=8 c=1 v=9
193167 Par ch=8 c=1 v=11
193187 Par ch=8 c=1 v=13
193212 Par ch=8 c=1 v=15
193230 Par ch=8 c=1 v=18
193257 Par ch=8 c=1 v=20
193280 Par ch=8 c=1 v=21
193302 Par ch=8 c=1 v=24
193327 Par ch=8 c=1 v=26
193347 Par ch=8 c=1 v=29
193375 Par ch=8 c=1 v=31
193397 Par ch=8 c=1 v=34
193412 Par ch=8 c=1 v=36
193445 Par ch=8 c=1 v=38
193460 Par ch=8 c=1 v=41
193480 Par ch=8 c=1 v=43
193510 Par ch=8 c=1 v=44
193587 Par ch=8 c=1 v=43
193617 Par ch=8 c=1 v=41
193642 Par ch=8 c=1 v=39
193662 Par ch=8 c=1 v=37
193692 Par ch=8 c=1 v=35
193710 Par ch=8 c=1 v=33
193732 Par ch=8 c=1 v=30
193752 Par ch=8 c=1 v=26
193755 Off ch=8 n=67 v=64
193777 Par ch=8 c=1 v=22
193792 Par ch=8 c=1 v=18
193817 Par ch=8 c=1 v=12
193842 Par ch=8 c=1 v=9
193847 Off ch=8 n=60 v=64
193850 On ch=8 n=58 v=48
193857 Off ch=8 n=69 v=64
193862 Par ch=8 c=1 v=4
193872 On ch=8 n=70 v=78
193875 Off ch=8 n=57 v=64
193877 On ch=8 n=61 v=56
193882 On ch=8 n=67 v=48
193887 Par ch=8 c=1 v=1
193942 Par ch=8 c=1 v=0
194285 Off ch=8 n=67 v=64
194330 Off ch=8 n=61 v=64
194330 On ch=8 n=67 v=73
194355 Off ch=8 n=70 v=64
194357 On ch=8 n=65 v=60
194360 On ch=8 n=77 v=90
194367 On ch=8 n=73 v=60
194415 Off ch=8 n=58 v=64
194525 Par ch=8 c=1 v=1
194590 Par ch=8 c=1 v=3
194610 Par ch=8 c=1 v=6
194627 Par ch=8 c=1 v=8
194655 Par ch=8 c=1 v=9
194670 Par ch=8 c=1 v=11
194692 Par ch=8 c=1 v=14
194717 Par ch=8 c=1 v=17
194745 Par ch=8 c=1 v=19
194775 Par ch=8 c=1 v=21
194787 Par ch=8 c=1 v=23
194820 Par ch=8 c=1 v=25
194832 Par ch=8 c=1 v=27
194850 Par ch=8 c=1 v=28
194880 Par ch=8 c=1 v=29
194955 Par ch=8 c=1 v=28
194975 Par ch=8 c=1 v=26
194997 Par ch=8 c=1 v=25
195007 Par ch=8 c=1 v=22
195042 Par ch=8 c=1 v=20
195057 Par ch=8 c=1 v=18
195087 Par ch=8 c=1 v=16
195102 Par ch=8 c=1 v=14
195122 Par ch=8 c=1 v=9
195142 Par ch=8 c=1 v=5
195175 Par ch=8 c=1 v=4
195190 Par ch=8 c=1 v=1
195227 Off ch=8 n=65 v=64
195240 Off ch=8 n=67 v=64
195245 Off ch=8 n=73 v=64
195262 Par ch=8 c=1 v=0
195285 On ch=8 n=63 v=56
195290 On ch=8 n=67 v=73
195310 On ch=8 n=73 v=60
195327 On ch=8 n=75 v=82
195360 Off ch=8 n=77 v=64
195717 Off ch=8 n=67 v=64
195740 On ch=8 n=61 v=64
195757 Off ch=8 n=63 v=64
195760 On ch=8 n=65 v=60
195782 Off ch=8 n=73 v=64
195787 On ch=8 n=67 v=56
195827 On ch=8 n=73 v=82
195835 Off ch=8 n=75 v=64
195892 Off ch=8 n=61 v=64
195897 Off ch=8 n=65 v=64
195902 Off ch=8 n=67 v=64
195940 Off ch=8 n=73 v=64
196230 On ch=8 n=60 v=64
196252 On ch=8 n=63 v=64
196270 On ch=8 n=67 v=73
196287 On ch=8 n=72 v=91
196370 Off ch=8 n=60 v=64
196390 Off ch=8 n=67 v=64
196410 Off ch=8 n=63 v=64
196445 Off ch=8 n=72 v=64
196747 On ch=8 n=59 v=64
196750 On ch=8 n=65 v=56
196760 On ch=8 n=62 v=73
196777 On ch=8 n=71 v=91
196890 Off ch=8 n=65 v=64
196922 Off ch=8 n=59 v=64
196922 Off ch=8 n=71 v=64
196930 Off ch=8 n=62 v=64
197247 On ch=8 n=72 v=91
197255 On ch=8 n=68 v=48
197267 On ch=8 n=63 v=73
197272 On ch=8 n=56 v=48
197480 Par ch=8 c=1 v=1
197535 Par ch=8 c=1 v=3
197560 Par ch=8 c=1 v=4
197577 Par ch=8 c=1 v=7
197607 Par ch=8 c=1 v=8
197620 Par ch=8 c=1 v=11
197652 Par ch=8 c=1 v=12
197667 Par ch=8 c=1 v=13
197692 Par ch=8 c=1 v=15
197710 Par ch=8 c=1 v=18
197735 Par ch=8 c=1 v=19
197755 Par ch=8 c=1 v=20
197777 Par ch=8 c=1 v=21
197802 Par ch=8 c=1 v=23
197835 Par ch=8 c=1 v=24
197842 Par ch=8 c=1 v=26
197875 Par ch=8 c=1 v=27
197895 Par ch=8 c=1 v=28
197952 Par ch=8 c=1 v=27
197967 Par ch=8 c=1 v=26
197982 Par ch=8 c=1 v=25
198000 Par ch=8 c=1 v=22
198035 Par ch=8 c=1 v=20
198055 Par ch=8 c=1 v=18
198062 Off ch=8 n=56 v=64
198070 Par ch=8 c=1 v=10
198090 Off ch=8 n=68 v=64
198097 Par ch=8 c=1 v=1
198150 Off ch=8 n=63 v=64
198155 Par ch=8 c=1 v=0
198187 Off ch=8 n=72 v=64
198187 On ch=8 n=60 v=82
198187 On ch=8 n=63 v=82
198205 On ch=8 n=56 v=52
198210 On ch=8 n=68 v=44
198417 Par ch=8 c=1 v=1
198442 Par ch=8 c=1 v=3
198457 Par ch=8 c=1 v=5
198472 Par ch=8 c=1 v=8
198505 Par ch=8 c=1 v=10
198530 Par ch=8 c=1 v=13
198550 Par ch=8 c=1 v=15
198575 Par ch=8 c=1 v=17
198595 Par ch=8 c=1 v=18
198610 Par ch=8 c=1 v=19
198630 Par ch=8 c=1 v=21
198660 Par ch=8 c=1 v=22
198675 Par ch=8 c=1 v=25
198707 Par ch=8 c=1 v=27
198732 Par ch=8 c=1 v=28
198740 Off ch=8 n=56 v=64
198747 Par ch=8 c=1 v=30
198777 Par ch=8 c=1 v=31
198785 Off ch=8 n=63 v=64
198787 Off ch=8 n=68 v=64
198795 Off ch=8 n=60 v=64
198807 Par ch=8 c=1 v=32
198990 Par ch=8 c=1 v=31
199015 Par ch=8 c=1 v=30
199050 Par ch=8 c=1 v=29
199060 Par ch=8 c=1 v=26
199090 Par ch=8 c=1 v=25
199107 Par ch=8 c=1 v=24
199125 Par ch=8 c=1 v=21
199127 On ch=8 n=62 v=73
199160 Par ch=8 c=1 v=19
199160 On ch=8 n=59 v=64
199175 Par ch=8 c=1 v=17
199182 On ch=8 n=56 v=52
199182 On ch=8 n=68 v=48
199192 Par ch=8 c=1 v=13
199222 Par ch=8 c=1 v=9
199237 Par ch=8 c=1 v=7
199265 Par ch=8 c=1 v=1
199317 Par ch=8 c=1 v=0
199567 Off ch=8 n=56 v=64
199570 Off ch=8 n=68 v=64
199592 Off ch=8 n=59 v=64
199630 On ch=8 n=60 v=64
199632 Off ch=8 n=62 v=64
199640 On ch=8 n=63 v=82
199642 On ch=8 n=56 v=48
199665 On ch=8 n=68 v=60
200045 Off ch=8 n=56 v=64
200072 Off ch=8 n=68 v=64
200082 Off ch=8 n=60 v=64
200115 Off ch=8 n=63 v=64
200125 On ch=8 n=72 v=83
200140 On ch=8 n=63 v=64
200157 On ch=8 n=56 v=52
200157 On ch=8 n=68 v=52
200515 Par ch=8 c=1 v=1
200535 Par ch=8 c=1 v=2
200545 Par ch=8 c=1 v=6
200575 Par ch=8 c=1 v=8
200595 Par ch=8 c=1 v=11
200625 Par ch=8 c=1 v=14
200647 Par ch=8 c=1 v=15
200657 Par ch=8 c=1 v=18
200687 Par ch=8 c=1 v=19
200707 Par ch=8 c=1 v=22
200727 Par ch=8 c=1 v=24
200755 Par ch=8 c=1 v=26
200787 Par ch=8 c=1 v=27
200832 Par ch=8 c=1 v=26
200852 Par ch=8 c=1 v=25
200875 Par ch=8 c=1 v=23
200882 Par ch=8 c=1 v=21
200907 Par ch=8 c=1 v=17
200930 Par ch=8 c=1 v=14
200945 Off ch=8 n=56 v=64
200947 Off ch=8 n=68 v=64
200950 Par ch=8 c=1 v=12
200972 Par ch=8 c=1 v=5
200992 Par ch=8 c=1 v=1
201010 Off ch=8 n=63 v=64
201050 Par ch=8 c=1 v=0
201057 On ch=8 n=68 v=52
201067 Off ch=8 n=72 v=64
201067 On ch=8 n=63 v=82
201082 On ch=8 n=56 v=44
201092 On ch=8 n=60 v=64
201470 Par ch=8 c=1 v=1
201492 Par ch=8 c=1 v=4
201522 Par ch=8 c=1 v=5
201537 Par ch=8 c=1 v=8
201562 Par ch=8 c=1 v=9
201577 Par ch=8 c=1 v=11
201607 Par ch=8 c=1 v=13
201632 Par ch=8 c=1 v=14
201647 Par ch=8 c=1 v=16
201667 Par ch=8 c=1 v=18
201692 Par ch=8 c=1 v=19
201712 Par ch=8 c=1 v=21
201745 Par ch=8 c=1 v=22
201757 Par ch=8 c=1 v=24
201780 Par ch=8 c=1 v=27
201802 Par ch=8 c=1 v=29
201837 Par ch=8 c=1 v=30
201872 Par ch=8 c=1 v=31
201992 Off ch=8 n=63 v=64
202010 Off ch=8 n=56 v=64
202012 Par ch=8 c=1 v=29
202027 Off ch=8 n=68 v=64
202032 Off ch=8 n=60 v=64
202040 Par ch=8 c=1 v=28
202040 On ch=8 n=61 v=64
202040 On ch=8 n=65 v=82
202040 On ch=8 n=58 v=48
202045 On ch=8 n=56 v=56
202060 Par ch=8 c=1 v=25
202085 Par ch=8 c=1 v=24
202095 Par ch=8 c=1 v=22
202117 Par ch=8 c=1 v=19
202150 Par ch=8 c=1 v=17
202162 Par ch=8 c=1 v=13
202187 Par ch=8 c=1 v=9
202215 Par ch=8 c=1 v=6
202230 Par ch=8 c=1 v=2
202297 Par ch=8 c=1 v=0
202440 Off ch=8 n=58 v=64
202455 Off ch=8 n=56 v=64
202492 Off ch=8 n=65 v=64
202492 Off ch=8 n=61 v=64
202515 On ch=8 n=67 v=91
202527 On ch=8 n=58 v=52
202532 On ch=8 n=56 v=64
202542 On ch=8 n=63 v=73
202977 Off ch=8 n=67 v=64
202980 Off ch=8 n=63 v=64
202985 Off ch=8 n=56 v=64
202992 On ch=8 n=68 v=91
203000 Off ch=8 n=58 v=64
203010 On ch=8 n=61 v=64
203012 On ch=8 n=65 v=73
203025 On ch=8 n=56 v=64
203185 Par ch=8 c=1 v=1
203257 Par ch=8 c=1 v=2
203272 Par ch=8 c=1 v=3
203287 Par ch=8 c=1 v=7
203312 Par ch=8 c=1 v=9
203337 Par ch=8 c=1 v=11
203360 Par ch=8 c=1 v=15
203382 Par ch=8 c=1 v=17
203400 Par ch=8 c=1 v=20
203427 Par ch=8 c=1 v=21
203445 Par ch=8 c=1 v=24
203467 Par ch=8 c=1 v=26
203497 Par ch=8 c=1 v=27
203515 Par ch=8 c=1 v=29
203547 Par ch=8 c=1 v=30
203577 Par ch=8 c=1 v=31
203612 Par ch=8 c=1 v=32
203737 Par ch=8 c=1 v=30
203775 Par ch=8 c=1 v=29
203782 Par ch=8 c=1 v=27
203810 Par ch=8 c=1 v=25
203842 Par ch=8 c=1 v=23
203860 Par ch=8 c=1 v=21
203870 Off ch=8 n=65 v=64
203877 Off ch=8 n=61 v=64
203885 Par ch=8 c=1 v=20
203895 Par ch=8 c=1 v=16
203910 Off ch=8 n=56 v=64
203922 Par ch=8 c=1 v=12
203937 On ch=8 n=63 v=64
203937 On ch=8 n=67 v=64
203942 Par ch=8 c=1 v=9
203945 On ch=8 n=70 v=78
203947 Off ch=8 n=68 v=64
203967 Par ch=8 c=1 v=3
203970 On ch=8 n=65 v=73
203992 Par ch=8 c=1 v=1
204045 Par ch=8 c=1 v=0
204392 Off ch=8 n=67 v=64
204400 Off ch=8 n=65 v=64
204420 Off ch=8 n=63 v=64
204420 On ch=8 n=68 v=73
204425 On ch=8 n=65 v=64
204425 On ch=8 n=72 v=91
204452 On ch=8 n=63 v=56
204480 Off ch=8 n=70 v=64
204487 Par ch=8 c=1 v=1
204545 Par ch=8 c=1 v=2
204560 Par ch=8 c=1 v=4
204585 Par ch=8 c=1 v=5
204595 Par ch=8 c=1 v=8
204615 Par ch=8 c=1 v=10
204642 Par ch=8 c=1 v=13
204672 Par ch=8 c=1 v=15
204687 Par ch=8 c=1 v=17
204712 Par ch=8 c=1 v=18
204727 Par ch=8 c=1 v=20
204755 Par ch=8 c=1 v=22
204787 Par ch=8 c=1 v=24
204800 Par ch=8 c=1 v=25
204817 Par ch=8 c=1 v=27
204850 Par ch=8 c=1 v=28
204870 Par ch=8 c=1 v=29
204885 Par ch=8 c=1 v=30
204915 Par ch=8 c=1 v=31
204930 Par ch=8 c=1 v=33
205000 Par ch=8 c=1 v=34
205110 Off ch=8 n=72 v=64
205150 Par ch=8 c=1 v=33
205187 Par ch=8 c=1 v=32
205205 Par ch=8 c=1 v=31
205212 Off ch=8 n=65 v=64
205225 Par ch=8 c=1 v=30
205230 Off ch=8 n=68 v=64
205247 Par ch=8 c=1 v=28
205262 Off ch=8 n=63 v=64
205277 Par ch=8 c=1 v=26
205302 Par ch=8 c=1 v=24
205317 Par ch=8 c=1 v=22
205342 Par ch=8 c=1 v=19
205365 Par ch=8 c=1 v=16
205370 On ch=8 n=65 v=64
205380 On ch=8 n=63 v=52
205382 On ch=8 n=68 v=73
205385 Par ch=8 c=1 v=14
205385 On ch=8 n=72 v=82
205407 Par ch=8 c=1 v=8
205427 Par ch=8 c=1 v=4
205450 Par ch=8 c=1 v=1
205522 Par ch=8 c=1 v=0
205795 Off ch=8 n=68 v=64
205842 Off ch=8 n=65 v=64
205852 Off ch=8 n=72 v=64
205855 Off ch=8 n=63 v=64
205882 On ch=8 n=65 v=60
205890 On ch=8 n=70 v=56
205892 On ch=8 n=74 v=100
205895 On ch=8 n=68 v=52
205965 Par ch=8 c=1 v=1
206015 Par ch=8 c=1 v=4
206035 Par ch=8 c=1 v=9
206057 Par ch=8 c=1 v=13
206082 Par ch=8 c=1 v=16
206105 Par ch=8 c=1 v=18
206125 Par ch=8 c=1 v=20
206145 Par ch=8 c=1 v=22
206180 Par ch=8 c=1 v=23
206232 Par ch=8 c=1 v=24
206292 Off ch=8 n=70 v=64
206300 Off ch=8 n=68 v=64
206322 Off ch=8 n=65 v=64
206332 Par ch=8 c=1 v=23
206355 Off ch=8 n=74 v=64
206362 Par ch=8 c=1 v=22
206372 On ch=8 n=70 v=56
206380 On ch=8 n=65 v=73
206380 On ch=8 n=72 v=87
206385 Par ch=8 c=1 v=21
206392 On ch=8 n=68 v=60
206395 Par ch=8 c=1 v=18
206425 Par ch=8 c=1 v=15
206437 Par ch=8 c=1 v=10
206460 Par ch=8 c=1 v=6
206492 Par ch=8 c=1 v=1
206555 Par ch=8 c=1 v=0
206722 Off ch=8 n=70 v=64
206805 Off ch=8 n=65 v=64
206805 Off ch=8 n=68 v=64
206822 Off ch=8 n=72 v=64
206850 On ch=8 n=74 v=91
206852 On ch=8 n=70 v=56
206867 On ch=8 n=65 v=60
206877 On ch=8 n=68 v=60
207207 Off ch=8 n=70 v=64
207245 Off ch=8 n=68 v=64
207267 Off ch=8 n=74 v=64
207287 Off ch=8 n=65 v=64
207287 On ch=8 n=75 v=91
207300 On ch=8 n=63 v=64
207310 On ch=8 n=67 v=73
207322 On ch=8 n=70 v=60
207667 Par ch=8 c=1 v=1
207695 Par ch=8 c=1 v=3
207700 Par ch=8 c=1 v=5
207730 Par ch=8 c=1 v=8
207745 Par ch=8 c=1 v=11
207770 Par ch=8 c=1 v=14
207795 Par ch=8 c=1 v=17
207812 Par ch=8 c=1 v=19
207842 Par ch=8 c=1 v=22
207855 Par ch=8 c=1 v=26
207885 Par ch=8 c=1 v=28
207900 Par ch=8 c=1 v=30
207927 Par ch=8 c=1 v=32
207952 Par ch=8 c=1 v=33
207967 Par ch=8 c=1 v=35
208060 Par ch=8 c=1 v=34
208085 Par ch=8 c=1 v=32
208107 Par ch=8 c=1 v=30
208127 Par ch=8 c=1 v=26
208150 Par ch=8 c=1 v=22
208172 Par ch=8 c=1 v=19
208195 Par ch=8 c=1 v=14
208217 Par ch=8 c=1 v=8
208235 Off ch=8 n=75 v=64
208237 Par ch=8 c=1 v=1
208252 On ch=8 n=75 v=84
208282 Par ch=8 c=1 v=0
208445 Off ch=8 n=75 v=64
208495 On ch=8 n=77 v=84
208720 Off ch=8 n=67 v=64
208727 Off ch=8 n=77 v=64
208765 On ch=8 n=67 v=77
208772 Off ch=8 n=70 v=64
208787 On ch=8 n=71 v=76
208792 On ch=8 n=75 v=100
208795 On ch=8 n=79 v=82
208815 Off ch=8 n=63 v=64
209137 Par ch=8 c=1 v=1
209215 Par ch=8 c=1 v=2
209227 Par ch=8 c=1 v=6
209250 Par ch=8 c=1 v=9
209275 Par ch=8 c=1 v=12
209295 Par ch=8 c=1 v=15
209320 Par ch=8 c=1 v=17
209345 Par ch=8 c=1 v=19
209375 Par ch=8 c=1 v=20
209395 Par ch=8 c=1 v=21
209440 Par ch=8 c=1 v=22
209480 Par ch=8 c=1 v=23
209500 Par ch=8 c=1 v=24
209520 Par ch=8 c=1 v=26
209577 Par ch=8 c=1 v=27
209660 Par ch=8 c=1 v=26
209697 Par ch=8 c=1 v=25
209712 Par ch=8 c=1 v=24
209727 Par ch=8 c=1 v=22
209742 On ch=8 n=74 v=69
209750 Par ch=8 c=1 v=18
209772 Par ch=8 c=1 v=12
209790 Par ch=8 c=1 v=2
209792 Off ch=8 n=75 v=64
209812 Par ch=8 c=1 v=1
209835 Par ch=8 c=1 v=0
209847 Off ch=8 n=67 v=64
209862 Off ch=8 n=74 v=64
209887 Off ch=8 n=71 v=64
209962 Off ch=8 n=79 v=64
239000 On ch=8 n=67 v=48
239067 On ch=8 n=75 v=59
239080 On ch=8 n=72 v=45
239275 Par ch=8 c=1 v=1
239375 Par ch=8 c=1 v=2
239392 Par ch=8 c=1 v=3
239407 Par ch=8 c=1 v=4
239420 Par ch=8 c=1 v=5
239427 Par ch=8 c=1 v=6
239437 Par ch=8 c=1 v=7
239455 Par ch=8 c=1 v=8
239460 Par ch=8 c=1 v=9
239480 Par ch=8 c=1 v=10
239485 Par ch=8 c=1 v=11
239490 Par ch=8 c=1 v=12
239507 Par ch=8 c=1 v=13
239522 Par ch=8 c=1 v=15
239522 Par ch=8 c=1 v=14
239535 Par ch=8 c=1 v=16
239547 Par ch=8 c=1 v=18
239562 Par ch=8 c=1 v=19
239570 Par ch=8 c=1 v=20
239587 Par ch=8 c=1 v=21
239602 Par ch=8 c=1 v=22
239620 Par ch=8 c=1 v=23
239637 Par ch=8 c=1 v=24
239652 Par ch=8 c=1 v=25
239670 Par ch=8 c=1 v=26
239677 Par ch=8 c=1 v=27
239695 Par ch=8 c=1 v=28
239710 Par ch=8 c=1 v=29
239722 Par ch=8 c=1 v=30
239750 Par ch=8 c=1 v=31
239767 Par ch=8 c=1 v=32
239785 Par ch=8 c=1 v=33
239805 Par ch=8 c=1 v=34
239825 Par ch=8 c=1 v=35
240005 Par ch=8 c=1 v=34
240020 Par ch=8 c=1 v=33
240037 Par ch=8 c=1 v=32
240055 Par ch=8 c=1 v=31
240070 Par ch=8 c=1 v=29
240077 Par ch=8 c=1 v=28
240085 Par ch=8 c=1 v=27
240092 Par ch=8 c=1 v=26
240102 Par ch=8 c=1 v=25
240117 Par ch=8 c=1 v=23
240117 Par ch=8 c=1 v=24
240127 Par ch=8 c=1 v=22
240132 Par ch=8 c=1 v=21
240140 Par ch=8 c=1 v=20
240150 Par ch=8 c=1 v=19
240155 Par ch=8 c=1 v=18
240165 Par ch=8 c=1 v=16
240172 Par ch=8 c=1 v=15
240180 Par ch=8 c=1 v=14
240187 Par ch=8 c=1 v=12
240197 Par ch=8 c=1 v=11
240202 Par ch=8 c=1 v=10
240212 Par ch=8 c=1 v=9
240222 Par ch=8 c=1 v=7
240230 Par ch=8 c=1 v=6
240240 Par ch=8 c=1 v=5
240247 Par ch=8 c=1 v=4
240252 Par ch=8 c=1 v=1
240332 Par ch=8 c=1 v=0
240362 Off ch=8 n=67 v=64
240397 On ch=8 n=67 v=48
240437 On ch=8 n=65 v=53
240457 On ch=8 n=74 v=62
240487 Off ch=8 n=75 v=64
240490 Off ch=8 n=72 v=64
240672 Par ch=8 c=1 v=1
240692 Par ch=8 c=1 v=3
240700 Par ch=8 c=1 v=4
240710 Par ch=8 c=1 v=5
240717 Par ch=8 c=1 v=7
240727 Par ch=8 c=1 v=8
240735 Par ch=8 c=1 v=9
240745 Par ch=8 c=1 v=11
240750 Par ch=8 c=1 v=12
240760 Par ch=8 c=1 v=13
240770 Par ch=8 c=1 v=14
240777 Par ch=8 c=1 v=15
240787 Par ch=8 c=1 v=16
240805 Par ch=8 c=1 v=17
240812 Par ch=8 c=1 v=18
240832 Par ch=8 c=1 v=19
240857 Par ch=8 c=1 v=20
240887 Par ch=8 c=1 v=21
240915 Par ch=8 c=1 v=22
240935 Par ch=8 c=1 v=23
240957 Par ch=8 c=1 v=24
240977 Par ch=8 c=1 v=25
241005 Par ch=8 c=1 v=26
241032 Par ch=8 c=1 v=27
241062 Par ch=8 c=1 v=28
241092 Par ch=8 c=1 v=29
241117 Par ch=8 c=1 v=30
241162 Par ch=8 c=1 v=31
241250 Par ch=8 c=1 v=30
241272 Par ch=8 c=1 v=29
241295 Par ch=8 c=1 v=28
241305 Par ch=8 c=1 v=26
241325 Par ch=8 c=1 v=25
241330 Par ch=8 c=1 v=24
241347 Par ch=8 c=1 v=23
241360 Par ch=8 c=1 v=22
241367 Off ch=8 n=67 v=64
241367 Par ch=8 c=1 v=21
241377 Par ch=8 c=1 v=20
241385 Par ch=8 c=1 v=19
241387 On ch=8 n=67 v=49
241392 On ch=8 n=63 v=55
241402 Par ch=8 c=1 v=17
241407 Par ch=8 c=1 v=16
241417 Off ch=8 n=65 v=64
241417 Par ch=8 c=1 v=14
241420 On ch=8 n=72 v=55
241432 Par ch=8 c=1 v=12
241432 Par ch=8 c=1 v=13
241445 Par ch=8 c=1 v=10
241450 Par ch=8 c=1 v=9
241457 Par ch=8 c=1 v=8
241460 Off ch=8 n=74 v=64
241467 Par ch=8 c=1 v=7
241475 Par ch=8 c=1 v=5
241482 Par ch=8 c=1 v=4
241492 Par ch=8 c=1 v=2
241497 Par ch=8 c=1 v=1
241575 Par ch=8 c=1 v=0
241900 On ch=8 n=62 v=58
241905 Off ch=8 n=63 v=64
241905 On ch=8 n=65 v=50
241912 On ch=8 n=70 v=60
241942 Off ch=8 n=67 v=64
241945 Off ch=8 n=72 v=64
242140 Par ch=8 c=1 v=1
242247 Par ch=8 c=1 v=2
242267 Par ch=8 c=1 v=3
242287 Par ch=8 c=1 v=4
242300 Par ch=8 c=1 v=5
242305 Par ch=8 c=1 v=6
242317 Par ch=8 c=1 v=7
242335 Par ch=8 c=1 v=8
242347 Par ch=8 c=1 v=9
242367 Par ch=8 c=1 v=10
242380 Par ch=8 c=1 v=11
242390 Par ch=8 c=1 v=12
242405 Par ch=8 c=1 v=13
242417 Par ch=8 c=1 v=14
242435 Par ch=8 c=1 v=15
242445 Par ch=8 c=1 v=16
242455 Par ch=8 c=1 v=17
242472 Par ch=8 c=1 v=18
242490 Par ch=8 c=1 v=19
242500 Par ch=8 c=1 v=20
242515 Par ch=8 c=1 v=21
242537 Par ch=8 c=1 v=22
242555 Par ch=8 c=1 v=23
242577 Par ch=8 c=1 v=24
242602 Par ch=8 c=1 v=25
242730 Par ch=8 c=1 v=24
242747 Par ch=8 c=1 v=23
242765 Par ch=8 c=1 v=22
242780 Par ch=8 c=1 v=21
242790 Par ch=8 c=1 v=20
242797 Par ch=8 c=1 v=19
242805 Par ch=8 c=1 v=18
242815 Par ch=8 c=1 v=17
242817 On ch=8 n=60 v=56
242820 On ch=8 n=68 v=52
242825 Par ch=8 c=1 v=16
242832 Par ch=8 c=1 v=15
242842 Par ch=8 c=1 v=13
242850 Par ch=8 c=1 v=12
242860 Par ch=8 c=1 v=10
242867 Par ch=8 c=1 v=8
242875 Par ch=8 c=1 v=7
242880 Off ch=8 n=70 v=64
242885 Par ch=8 c=1 v=5
242892 Par ch=8 c=1 v=4
242902 Off ch=8 n=62 v=64
242902 Par ch=8 c=1 v=1
242960 Par ch=8 c=1 v=0
243275 Off ch=8 n=65 v=64
243277 Off ch=8 n=60 v=64
243290 On ch=8 n=56 v=38
243300 On ch=8 n=65 v=60
243317 On ch=8 n=60 v=48
243362 Off ch=8 n=68 v=64
243407 Par ch=8 c=1 v=1
243547 Par ch=8 c=1 v=2
243577 Par ch=8 c=1 v=3
243592 Par ch=8 c=1 v=4
243612 Par ch=8 c=1 v=5
243627 Par ch=8 c=1 v=6
243645 Par ch=8 c=1 v=7
243665 Par ch=8 c=1 v=8
243695 Par ch=8 c=1 v=9
243712 Par ch=8 c=1 v=10
243730 Par ch=8 c=1 v=11
243750 Par ch=8 c=1 v=12
243757 Par ch=8 c=1 v=13
243780 Par ch=8 c=1 v=14
243795 Par ch=8 c=1 v=15
243807 Par ch=8 c=1 v=16
243815 Par ch=8 c=1 v=17
243837 Par ch=8 c=1 v=18
243845 Par ch=8 c=1 v=19
243862 Par ch=8 c=1 v=20
243885 Par ch=8 c=1 v=21
243900 Par ch=8 c=1 v=22
243915 Par ch=8 c=1 v=23
243932 Par ch=8 c=1 v=24
243945 Par ch=8 c=1 v=25
243962 Par ch=8 c=1 v=26
243977 Par ch=8 c=1 v=27
244000 Par ch=8 c=1 v=28
244030 Par ch=8 c=1 v=29
244142 Par ch=8 c=1 v=28
244177 Par ch=8 c=1 v=27
244182 Par ch=8 c=1 v=26
244207 Par ch=8 c=1 v=25
244220 Par ch=8 c=1 v=24
244235 Par ch=8 c=1 v=23
244242 Par ch=8 c=1 v=22
244260 Par ch=8 c=1 v=21
244270 Par ch=8 c=1 v=20
244275 Par ch=8 c=1 v=19
244282 Par ch=8 c=1 v=18
244290 Par ch=8 c=1 v=16
244302 Par ch=8 c=1 v=15
244307 Par ch=8 c=1 v=13
244315 Par ch=8 c=1 v=12
244325 Par ch=8 c=1 v=10
244335 Off ch=8 n=65 v=64
244335 Par ch=8 c=1 v=8
244340 Par ch=8 c=1 v=7
244345 Par ch=8 c=1 v=5
244365 Par ch=8 c=1 v=2
244377 Par ch=8 c=1 v=1
244410 Par ch=8 c=1 v=0
244502 Off ch=8 n=60 v=64
244542 Off ch=8 n=56 v=64
244720 On ch=8 n=74 v=66
244740 On ch=8 n=65 v=52
244742 On ch=8 n=68 v=58
245200 Par ch=8 c=1 v=1
245277 Par ch=8 c=1 v=2
245300 Par ch=8 c=1 v=4
245300 Par ch=8 c=1 v=3
245310 Par ch=8 c=1 v=5
245317 Par ch=8 c=1 v=6
245325 Par ch=8 c=1 v=8
245342 Par ch=8 c=1 v=9
245352 Par ch=8 c=1 v=10
245357 Par ch=8 c=1 v=11
245370 Par ch=8 c=1 v=13
245372 Par ch=8 c=1 v=14
245385 Par ch=8 c=1 v=15
245390 Par ch=8 c=1 v=16
245397 Par ch=8 c=1 v=17
245405 Par ch=8 c=1 v=18
245412 Par ch=8 c=1 v=19
245430 Par ch=8 c=1 v=21
245447 Par ch=8 c=1 v=22
245462 Par ch=8 c=1 v=24
245472 Par ch=8 c=1 v=25
245487 Par ch=8 c=1 v=26
245495 Par ch=8 c=1 v=27
245502 Par ch=8 c=1 v=28
245512 Par ch=8 c=1 v=29
245517 Par ch=8 c=1 v=30
245535 Par ch=8 c=1 v=32
245547 Par ch=8 c=1 v=33
245557 Par ch=8 c=1 v=35
245557 Par ch=8 c=1 v=34
245565 Par ch=8 c=1 v=36
245575 Par ch=8 c=1 v=37
245585 Par ch=8 c=1 v=38
245590 Par ch=8 c=1 v=39
245600 Par ch=8 c=1 v=40
245605 Par ch=8 c=1 v=41
245625 Par ch=8 c=1 v=42
245630 Par ch=8 c=1 v=43
245635 Par ch=8 c=1 v=44
245655 Par ch=8 c=1 v=45
245667 Par ch=8 c=1 v=46
245680 Par ch=8 c=1 v=47
245692 Par ch=8 c=1 v=48
245775 Par ch=8 c=1 v=47
245797 Par ch=8 c=1 v=46
245815 Par ch=8 c=1 v=45
245835 Par ch=8 c=1 v=44
245860 Par ch=8 c=1 v=43
245872 Par ch=8 c=1 v=42
245880 Par ch=8 c=1 v=41
245895 Par ch=8 c=1 v=39
245895 Par ch=8 c=1 v=40
245910 Par ch=8 c=1 v=37
245910 Par ch=8 c=1 v=38
245922 Par ch=8 c=1 v=36
245942 Par ch=8 c=1 v=33
245942 Par ch=8 c=1 v=34
245942 Par ch=8 c=1 v=35
245952 Par ch=8 c=1 v=32
245960 Par ch=8 c=1 v=30
245975 Par ch=8 c=1 v=28
245975 Par ch=8 c=1 v=29
245987 Par ch=8 c=1 v=27
245992 Par ch=8 c=1 v=26
245997 Par ch=8 c=1 v=25
246010 Par ch=8 c=1 v=23
246017 Par ch=8 c=1 v=22
246025 Par ch=8 c=1 v=21
246030 Par ch=8 c=1 v=20
246040 Par ch=8 c=1 v=19
246052 Par ch=8 c=1 v=18
246057 Par ch=8 c=1 v=17
246072 Par ch=8 c=1 v=15
246072 Par ch=8 c=1 v=16
246082 Par ch=8 c=1 v=13
246090 Par ch=8 c=1 v=12
246097 Par ch=8 c=1 v=11
246105 Par ch=8 c=1 v=9
246112 Par ch=8 c=1 v=8
246120 Par ch=8 c=1 v=7
246130 Par ch=8 c=1 v=6
246137 Par ch=8 c=1 v=5
246145 Par ch=8 c=1 v=3
246152 Par ch=8 c=1 v=1
246177 On ch=8 n=63 v=56
246180 On ch=8 n=72 v=64
246187 Off ch=8 n=68 v=64
246195 Off ch=8 n=65 v=64
246212 Off ch=8 n=74 v=64
246220 Par ch=8 c=1 v=0
246222 On ch=8 n=68 v=52
246665 Par ch=8 c=1 v=1
246710 Par ch=8 c=1 v=3
246722 Par ch=8 c=1 v=4
246745 Par ch=8 c=1 v=7
246745 Par ch=8 c=1 v=6
246760 Par ch=8 c=1 v=8
246762 Par ch=8 c=1 v=9
246780 Par ch=8 c=1 v=10
246785 Par ch=8 c=1 v=11
246792 Par ch=8 c=1 v=13
246800 Par ch=8 c=1 v=14
246817 Par ch=8 c=1 v=16
246817 Par ch=8 c=1 v=15
246840 Par ch=8 c=1 v=17
246842 Par ch=8 c=1 v=18
246852 Par ch=8 c=1 v=19
246865 Par ch=8 c=1 v=20
246872 Par ch=8 c=1 v=21
246890 Par ch=8 c=1 v=22
246900 Par ch=8 c=1 v=23
246905 Par ch=8 c=1 v=24
246915 Par ch=8 c=1 v=25
246930 Par ch=8 c=1 v=27
246950 Par ch=8 c=1 v=28
246975 Par ch=8 c=1 v=29
247022 Par ch=8 c=1 v=28
247040 Par ch=8 c=1 v=27
247052 Par ch=8 c=1 v=26
247062 Off ch=8 n=68 v=64
247067 Par ch=8 c=1 v=25
247072 Par ch=8 c=1 v=24
247082 Par ch=8 c=1 v=23
247095 Par ch=8 c=1 v=22
247100 Par ch=8 c=1 v=21
247117 Par ch=8 c=1 v=19
247122 Par ch=8 c=1 v=18
247127 Off ch=8 n=63 v=64
247132 Par ch=8 c=1 v=17
247135 On ch=8 n=68 v=48
247140 On ch=8 n=62 v=56
247140 Par ch=8 c=1 v=16
247145 On ch=8 n=70 v=60
247150 Par ch=8 c=1 v=14
247155 Par ch=8 c=1 v=13
247165 Par ch=8 c=1 v=11
247170 Par ch=8 c=1 v=10
247177 Par ch=8 c=1 v=9
247182 Off ch=8 n=72 v=64
247187 Par ch=8 c=1 v=7
247202 Par ch=8 c=1 v=5
247202 Par ch=8 c=1 v=6
247215 Par ch=8 c=1 v=2
247220 Par ch=8 c=1 v=1
247287 Par ch=8 c=1 v=0
247597 Off ch=8 n=70 v=64
247617 Off ch=8 n=68 v=64
247630 Off ch=8 n=62 v=64
247632 On ch=8 n=70 v=60
247632 On ch=8 n=67 v=52
247645 On ch=8 n=63 v=48
248045 Par ch=8 c=1 v=1
248142 Par ch=8 c=1 v=2
248150 Par ch=8 c=1 v=3
248157 Par ch=8 c=1 v=4
248172 Par ch=8 c=1 v=5
248182 Par ch=8 c=1 v=6
248187 Par ch=8 c=1 v=7
248202 Par ch=8 c=1 v=8
248212 Par ch=8 c=1 v=9
248225 Par ch=8 c=1 v=10
248245 Par ch=8 c=1 v=11
248252 Par ch=8 c=1 v=12
248260 Par ch=8 c=1 v=13
248277 Par ch=8 c=1 v=14
248292 Par ch=8 c=1 v=15
248302 Par ch=8 c=1 v=16
248317 Par ch=8 c=1 v=17
248335 Par ch=8 c=1 v=18
248340 Par ch=8 c=1 v=19
248362 Par ch=8 c=1 v=20
248385 Par ch=8 c=1 v=21
248402 Par ch=8 c=1 v=22
248422 Par ch=8 c=1 v=23
248442 Par ch=8 c=1 v=24
248467 Par ch=8 c=1 v=25
248492 Par ch=8 c=1 v=26
248515 Par ch=8 c=1 v=27
248542 Par ch=8 c=1 v=28
248565 Par ch=8 c=1 v=29
248595 Par ch=8 c=1 v=30
248722 Par ch=8 c=1 v=29
248745 Par ch=8 c=1 v=28
248762 Par ch=8 c=1 v=27
248777 Par ch=8 c=1 v=25
248777 Par ch=8 c=1 v=26
248795 Par ch=8 c=1 v=24
248802 Par ch=8 c=1 v=23
248822 Par ch=8 c=1 v=22
248835 Par ch=8 c=1 v=21
248842 Par ch=8 c=1 v=20
248857 Par ch=8 c=1 v=19
248870 Par ch=8 c=1 v=18
248887 Par ch=8 c=1 v=16
248897 Par ch=8 c=1 v=14
248897 Par ch=8 c=1 v=15
248905 Par ch=8 c=1 v=13
248922 Par ch=8 c=1 v=12
248932 Par ch=8 c=1 v=11
248937 Par ch=8 c=1 v=9
248952 Par ch=8 c=1 v=8
248962 Par ch=8 c=1 v=7
248980 Par ch=8 c=1 v=5
248990 Par ch=8 c=1 v=4
249002 Par ch=8 c=1 v=1
249002 Par ch=8 c=1 v=3
249077 Par ch=8 c=1 v=0
249202 Off ch=8 n=67 v=64
249207 Off ch=8 n=63 v=64
249230 Off ch=8 n=70 v=64
265385 On ch=8 n=60 v=54
265385 On ch=8 n=67 v=54
265395 On ch=8 n=63 v=50
265477 Off ch=8 n=60 v=64
265482 Off ch=8 n=67 v=64
265490 Off ch=8 n=63 v=64
265877 On ch=8 n=67 v=67
265892 On ch=8 n=60 v=67
265900 On ch=8 n=63 v=76
265980 Off ch=8 n=60 v=64
265990 Off ch=8 n=67 v=64
265992 Off ch=8 n=63 v=64
266832 On ch=8 n=63 v=71
266850 On ch=8 n=59 v=61
266870 On ch=8 n=67 v=76
267335 On ch=8 n=62 v=73
267495 Off ch=8 n=63 v=64
267837 Off ch=8 n=59 v=64
267840 Off ch=8 n=67 v=64
267885 Off ch=8 n=62 v=64
268300 On ch=8 n=67 v=48
268300 On ch=8 n=60 v=48
268310 On ch=8 n=63 v=48
268427 Off ch=8 n=60 v=64
268427 Off ch=8 n=67 v=64
268432 Off ch=8 n=63 v=64
268777 On ch=8 n=67 v=48
268777 On ch=8 n=60 v=48
268785 On ch=8 n=63 v=48
268920 Off ch=8 n=63 v=64
268925 Off ch=8 n=60 v=64
268925 Off ch=8 n=67 v=64
269745 On ch=8 n=67 v=48
269745 On ch=8 n=60 v=48
269750 On ch=8 n=63 v=48
269872 Off ch=8 n=63 v=64
269890 Off ch=8 n=60 v=64
269890 Off ch=8 n=67 v=64
270225 On ch=8 n=67 v=48
270225 On ch=8 n=60 v=48
270230 On ch=8 n=63 v=48
270365 Off ch=8 n=63 v=64
270370 Off ch=8 n=60 v=64
270370 Off ch=8 n=67 v=64
271180 On ch=8 n=67 v=48
271180 On ch=8 n=60 v=48
271182 On ch=8 n=63 v=48
271300 Off ch=8 n=60 v=64
271300 Off ch=8 n=67 v=64
271302 Off ch=8 n=63 v=64
271667 On ch=8 n=67 v=48
271667 On ch=8 n=60 v=48
271675 On ch=8 n=63 v=48
271795 Off ch=8 n=63 v=64
271805 Off ch=8 n=60 v=64
271805 Off ch=8 n=67 v=64
272625 On ch=8 n=67 v=48
272625 On ch=8 n=60 v=48
272627 On ch=8 n=63 v=48
272765 Off ch=8 n=63 v=64
272772 Off ch=8 n=60 v=64
272772 Off ch=8 n=67 v=64
273105 On ch=8 n=67 v=48
273105 On ch=8 n=60 v=48
273115 On ch=8 n=63 v=48
273227 Off ch=8 n=63 v=64
273255 Off ch=8 n=60 v=64
273255 Off ch=8 n=67 v=64
274060 On ch=8 n=67 v=48
274060 On ch=8 n=60 v=48
274070 On ch=8 n=63 v=48
274187 Off ch=8 n=60 v=64
274187 Off ch=8 n=67 v=64
274192 Off ch=8 n=63 v=64
274537 On ch=8 n=67 v=48
274537 On ch=8 n=60 v=48
274545 On ch=8 n=63 v=48
274680 Off ch=8 n=63 v=64
274685 Off ch=8 n=60 v=64
274685 Off ch=8 n=67 v=64
275505 On ch=8 n=67 v=48
275505 On ch=8 n=60 v=48
275510 On ch=8 n=63 v=48
275632 Off ch=8 n=63 v=64
275650 Off ch=8 n=60 v=64
275650 Off ch=8 n=67 v=64
275985 On ch=8 n=67 v=48
275985 On ch=8 n=60 v=48
275990 On ch=8 n=63 v=48
276125 Off ch=8 n=63 v=64
276130 Off ch=8 n=60 v=64
276130 Off ch=8 n=67 v=64
276940 On ch=8 n=68 v=48
276940 On ch=8 n=60 v=48
276942 On ch=8 n=65 v=48
277060 Off ch=8 n=60 v=64
277060 Off ch=8 n=68 v=64
277062 Off ch=8 n=65 v=64
277427 On ch=8 n=68 v=48
277427 On ch=8 n=60 v=48
277435 On ch=8 n=65 v=48
277555 Off ch=8 n=65 v=64
277565 Off ch=8 n=60 v=64
277565 Off ch=8 n=68 v=64
278385 On ch=8 n=68 v=48
278385 On ch=8 n=60 v=48
278387 On ch=8 n=65 v=48
278525 Off ch=8 n=65 v=64
278532 Off ch=8 n=60 v=64
278532 Off ch=8 n=68 v=64
278865 On ch=8 n=68 v=48
278865 On ch=8 n=60 v=48
278875 On ch=8 n=65 v=48
278987 Off ch=8 n=65 v=64
279015 Off ch=8 n=60 v=64
279015 Off ch=8 n=68 v=64
279820 On ch=8 n=68 v=48
279820 On ch=8 n=60 v=48
279830 On ch=8 n=65 v=48
279947 Off ch=8 n=60 v=64
279947 Off ch=8 n=68 v=64
279952 Off ch=8 n=65 v=64
280297 On ch=8 n=68 v=48
280297 On ch=8 n=60 v=48
280305 On ch=8 n=65 v=48
280440 Off ch=8 n=65 v=64
280445 Off ch=8 n=60 v=64
280445 Off ch=8 n=68 v=64
281265 On ch=8 n=68 v=48
281265 On ch=8 n=60 v=48
281270 On ch=8 n=65 v=48
281392 Off ch=8 n=65 v=64
281410 Off ch=8 n=60 v=64
281410 Off ch=8 n=68 v=64
281745 On ch=8 n=68 v=48
281745 On ch=8 n=60 v=48
281750 On ch=8 n=65 v=48
281885 Off ch=8 n=65 v=64
281890 Off ch=8 n=60 v=64
281890 Off ch=8 n=68 v=64
282700 On ch=8 n=67 v=48
282700 On ch=8 n=59 v=48
282702 On ch=8 n=65 v=48
282820 Off ch=8 n=59 v=64
282820 Off ch=8 n=67 v=64
282822 Off ch=8 n=65 v=64
283187 On ch=8 n=67 v=48
283187 On ch=8 n=59 v=48
283195 On ch=8 n=65 v=48
283315 Off ch=8 n=65 v=64
283325 Off ch=8 n=59 v=64
283325 Off ch=8 n=67 v=64
284145 On ch=8 n=67 v=48
284145 On ch=8 n=59 v=48
284147 On ch=8 n=65 v=48
284285 Off ch=8 n=65 v=64
284292 Off ch=8 n=59 v=64
284292 Off ch=8 n=67 v=64
284625 On ch=8 n=67 v=48
284625 On ch=8 n=59 v=48
284635 On ch=8 n=65 v=48
284747 Off ch=8 n=65 v=64
284775 Off ch=8 n=59 v=64
284775 Off ch=8 n=67 v=64
285580 On ch=8 n=67 v=48
285580 On ch=8 n=59 v=48
285590 On ch=8 n=65 v=48
285707 Off ch=8 n=59 v=64
285707 Off ch=8 n=67 v=64
285712 Off ch=8 n=65 v=64
286057 On ch=8 n=67 v=48
286057 On ch=8 n=59 v=48
286065 On ch=8 n=65 v=48
286200 Off ch=8 n=65 v=64
286205 Off ch=8 n=59 v=64
286205 Off ch=8 n=67 v=64
287025 On ch=8 n=67 v=48
287025 On ch=8 n=59 v=48
287030 On ch=8 n=65 v=48
287152 Off ch=8 n=65 v=64
287170 Off ch=8 n=59 v=64
287170 Off ch=8 n=67 v=64
287505 On ch=8 n=67 v=48
287505 On ch=8 n=59 v=48
287510 On ch=8 n=65 v=48
287645 Off ch=8 n=65 v=64
287650 Off ch=8 n=59 v=64
287650 Off ch=8 n=67 v=64
288460 On ch=8 n=67 v=48
288460 On ch=8 n=60 v=48
288462 On ch=8 n=63 v=48
288580 Off ch=8 n=60 v=64
288580 Off ch=8 n=67 v=64
288582 Off ch=8 n=63 v=64
288947 On ch=8 n=67 v=48
288947 On ch=8 n=60 v=48
288955 On ch=8 n=63 v=48
289075 Off ch=8 n=63 v=64
289085 Off ch=8 n=60 v=64
289085 Off ch=8 n=67 v=64
289905 On ch=8 n=67 v=48
289905 On ch=8 n=60 v=48
289907 On ch=8 n=63 v=48
290045 Off ch=8 n=63 v=64
290052 Off ch=8 n=60 v=64
290052 Off ch=8 n=67 v=64
290385 On ch=8 n=67 v=48
290385 On ch=8 n=60 v=48
290395 On ch=8 n=63 v=48
290507 Off ch=8 n=63 v=64
290535 Off ch=8 n=60 v=64
290535 Off ch=8 n=67 v=64
290835 On ch=8 n=75 v=73
290855 On ch=8 n=72 v=56
290877 On ch=8 n=67 v=73
291497 Par ch=8 c=1 v=1
291607 Par ch=8 c=1 v=2
291632 Par ch=8 c=1 v=3
291647 Par ch=8 c=1 v=4
291655 Par ch=8 c=1 v=5
291670 Par ch=8 c=1 v=6
291680 Par ch=8 c=1 v=7
291690 Par ch=8 c=1 v=8
291705 Par ch=8 c=1 v=9
291717 Par ch=8 c=1 v=10
291732 Par ch=8 c=1 v=11
291747 Par ch=8 c=1 v=13
291747 Par ch=8 c=1 v=12
291767 Par ch=8 c=1 v=14
291772 Par ch=8 c=1 v=15
291792 Par ch=8 c=1 v=16
291805 Par ch=8 c=1 v=17
291817 Par ch=8 c=1 v=18
291830 Par ch=8 c=1 v=19
291847 Par ch=8 c=1 v=20
291867 Par ch=8 c=1 v=21
291892 Par ch=8 c=1 v=22
291950 Par ch=8 c=1 v=23
292017 Par ch=8 c=1 v=22
292077 Par ch=8 c=1 v=21
292107 Par ch=8 c=1 v=20
292125 Par ch=8 c=1 v=19
292140 Par ch=8 c=1 v=18
292152 Par ch=8 c=1 v=16
292162 Par ch=8 c=1 v=15
292170 Par ch=8 c=1 v=14
292175 Par ch=8 c=1 v=13
292185 Par ch=8 c=1 v=12
292195 Par ch=8 c=1 v=11
292202 Par ch=8 c=1 v=10
292207 Par ch=8 c=1 v=8
292217 Par ch=8 c=1 v=7
292222 Par ch=8 c=1 v=6
292232 Par ch=8 c=1 v=5
292240 Par ch=8 c=1 v=3
292242 Off ch=8 n=67 v=64
292250 Par ch=8 c=1 v=1
292265 On ch=8 n=74 v=73
292270 On ch=8 n=65 v=73
292280 Off ch=8 n=72 v=64
292295 On ch=8 n=67 v=52
292307 Par ch=8 c=1 v=0
292335 Off ch=8 n=75 v=64
292862 Par ch=8 c=1 v=1
292897 Par ch=8 c=1 v=2
292915 Par ch=8 c=1 v=4
292930 Par ch=8 c=1 v=5
292937 Par ch=8 c=1 v=6
292952 Par ch=8 c=1 v=7
292962 Par ch=8 c=1 v=8
292970 Par ch=8 c=1 v=9
292985 Par ch=8 c=1 v=10
293000 Par ch=8 c=1 v=11
293007 Par ch=8 c=1 v=12
293017 Par ch=8 c=1 v=13
293025 Par ch=8 c=1 v=14
293037 Par ch=8 c=1 v=15
293047 Par ch=8 c=1 v=16
293060 Par ch=8 c=1 v=17
293070 Par ch=8 c=1 v=18
293080 Par ch=8 c=1 v=19
293092 Par ch=8 c=1 v=20
293107 Par ch=8 c=1 v=21
293132 Par ch=8 c=1 v=22
293150 Par ch=8 c=1 v=23
293195 Off ch=8 n=67 v=64
293212 On ch=8 n=63 v=73
293220 Off ch=8 n=65 v=64
293222 On ch=8 n=67 v=56
293240 Par ch=8 c=1 v=22
293245 On ch=8 n=72 v=73
293270 Par ch=8 c=1 v=21
293287 Par ch=8 c=1 v=20
293292 Off ch=8 n=74 v=64
293302 Par ch=8 c=1 v=19
293310 Par ch=8 c=1 v=18
293325 Par ch=8 c=1 v=17
293330 Par ch=8 c=1 v=15
293345 Par ch=8 c=1 v=12
293345 Par ch=8 c=1 v=14
293352 Par ch=8 c=1 v=11
293362 Par ch=8 c=1 v=9
293367 Par ch=8 c=1 v=8
293377 Par ch=8 c=1 v=6
293390 Par ch=8 c=1 v=4
293395 Par ch=8 c=1 v=1
293452 Par ch=8 c=1 v=0
293685 Off ch=8 n=63 v=64
293700 On ch=8 n=65 v=52
293710 On ch=8 n=62 v=82
293715 On ch=8 n=70 v=64
293722 Off ch=8 n=72 v=64
293737 Off ch=8 n=67 v=64
294047 Par ch=8 c=1 v=1
294090 Par ch=8 c=1 v=2
294105 Par ch=8 c=1 v=4
294117 Par ch=8 c=1 v=5
294125 Par ch=8 c=1 v=6
294137 Par ch=8 c=1 v=7
294142 Par ch=8 c=1 v=8
294162 Par ch=8 c=1 v=9
294172 Par ch=8 c=1 v=10
294185 Par ch=8 c=1 v=11
294197 Par ch=8 c=1 v=13
294202 Par ch=8 c=1 v=14
294220 Par ch=8 c=1 v=15
294240 Par ch=8 c=1 v=16
294255 Par ch=8 c=1 v=17
294265 Par ch=8 c=1 v=18
294287 Par ch=8 c=1 v=19
294297 Par ch=8 c=1 v=20
294315 Par ch=8 c=1 v=21
294327 Par ch=8 c=1 v=22
294342 Par ch=8 c=1 v=23
294365 Par ch=8 c=1 v=24
294375 Par ch=8 c=1 v=25
294532 Par ch=8 c=1 v=24
294557 Par ch=8 c=1 v=23
294570 Par ch=8 c=1 v=22
294585 Par ch=8 c=1 v=21
294602 Par ch=8 c=1 v=20
294605 Off ch=8 n=65 v=64
294610 Par ch=8 c=1 v=19
294617 Off ch=8 n=62 v=64
294617 Par ch=8 c=1 v=18
294622 On ch=8 n=60 v=64
294625 Par ch=8 c=1 v=16
294632 Par ch=8 c=1 v=15
294640 On ch=8 n=65 v=56
294642 Par ch=8 c=1 v=14
294647 Par ch=8 c=1 v=13
294650 On ch=8 n=68 v=60
294655 Par ch=8 c=1 v=12
294665 Par ch=8 c=1 v=11
294672 Par ch=8 c=1 v=9
294687 Par ch=8 c=1 v=7
294687 Par ch=8 c=1 v=8
294690 Off ch=8 n=70 v=64
294700 Par ch=8 c=1 v=6
294705 Par ch=8 c=1 v=5
294715 Par ch=8 c=1 v=3
294720 Par ch=8 c=1 v=2
294727 Par ch=8 c=1 v=1
294807 Par ch=8 c=1 v=0
295090 Off ch=8 n=65 v=64
295117 Off ch=8 n=60 v=64
295117 On ch=8 n=56 v=60
295132 On ch=8 n=65 v=73
295145 Off ch=8 n=68 v=64
295150 On ch=8 n=60 v=40
295492 Par ch=8 c=1 v=1
295660 Par ch=8 c=1 v=2
295695 Par ch=8 c=1 v=3
295717 Par ch=8 c=1 v=4
295742 Par ch=8 c=1 v=5
295760 Par ch=8 c=1 v=6
295767 Par ch=8 c=1 v=7
295787 Par ch=8 c=1 v=8
295797 Par ch=8 c=1 v=9
295830 Par ch=8 c=1 v=10
295842 Par ch=8 c=1 v=11
295862 Par ch=8 c=1 v=12
295875 Par ch=8 c=1 v=13
295887 Par ch=8 c=1 v=14
295907 Par ch=8 c=1 v=15
295920 Par ch=8 c=1 v=16
295930 Par ch=8 c=1 v=17
295940 Par ch=8 c=1 v=18
295955 Par ch=8 c=1 v=19
295972 Par ch=8 c=1 v=20
295997 Par ch=8 c=1 v=21
296030 Par ch=8 c=1 v=22
296067 Par ch=8 c=1 v=23
296215 Off ch=8 n=65 v=64
296222 Par ch=8 c=1 v=22
296242 Par ch=8 c=1 v=21
296265 Par ch=8 c=1 v=20
296280 Par ch=8 c=1 v=18
296287 Par ch=8 c=1 v=17
296295 Par ch=8 c=1 v=16
296305 Par ch=8 c=1 v=14
296312 Par ch=8 c=1 v=12
296322 Par ch=8 c=1 v=11
296330 Par ch=8 c=1 v=10
296340 Par ch=8 c=1 v=9
296347 Par ch=8 c=1 v=7
296355 Par ch=8 c=1 v=6
296365 Par ch=8 c=1 v=4
296370 Par ch=8 c=1 v=1
296395 Off ch=8 n=60 v=64
296412 Par ch=8 c=1 v=0
296500 Off ch=8 n=56 v=64
296612 On ch=8 n=65 v=64
296612 On ch=8 n=74 v=73
296620 On ch=8 n=70 v=60
297125 Par ch=8 c=1 v=1
297247 Par ch=8 c=1 v=2
297275 Par ch=8 c=1 v=3
297282 Par ch=8 c=1 v=4
297297 Par ch=8 c=1 v=5
297317 Par ch=8 c=1 v=6
297322 Par ch=8 c=1 v=7
297337 Par ch=8 c=1 v=8
297347 Par ch=8 c=1 v=9
297360 Par ch=8 c=1 v=10
297375 Par ch=8 c=1 v=12
297382 Par ch=8 c=1 v=13
297392 Par ch=8 c=1 v=14
297400 Par ch=8 c=1 v=15
297412 Par ch=8 c=1 v=16
297417 Par ch=8 c=1 v=17
297427 Par ch=8 c=1 v=18
297440 Par ch=8 c=1 v=19
297460 Par ch=8 c=1 v=20
297470 Par ch=8 c=1 v=21
297480 Par ch=8 c=1 v=22
297490 Par ch=8 c=1 v=24
297502 Par ch=8 c=1 v=25
297515 Par ch=8 c=1 v=26
297520 Par ch=8 c=1 v=27
297525 Par ch=8 c=1 v=28
297542 Par ch=8 c=1 v=29
297550 Par ch=8 c=1 v=30
297575 Par ch=8 c=1 v=31
297602 Par ch=8 c=1 v=32
297780 Par ch=8 c=1 v=31
297805 Par ch=8 c=1 v=30
297817 Par ch=8 c=1 v=29
297837 Par ch=8 c=1 v=28
297850 Par ch=8 c=1 v=27
297860 Par ch=8 c=1 v=26
297872 Par ch=8 c=1 v=25
297887 Par ch=8 c=1 v=24
297897 Par ch=8 c=1 v=23
297915 Par ch=8 c=1 v=22
297922 Par ch=8 c=1 v=21
297927 Par ch=8 c=1 v=20
297945 Par ch=8 c=1 v=18
297955 Par ch=8 c=1 v=17
297962 Par ch=8 c=1 v=15
297967 Par ch=8 c=1 v=14
297977 Par ch=8 c=1 v=12
297987 Par ch=8 c=1 v=11
297992 Par ch=8 c=1 v=9
298000 Par ch=8 c=1 v=8
298010 Par ch=8 c=1 v=6
298015 Par ch=8 c=1 v=4
298025 Par ch=8 c=1 v=1
298037 Off ch=8 n=65 v=64
298045 On ch=8 n=63 v=73
298060 On ch=8 n=68 v=44
298070 Par ch=8 c=1 v=0
298075 On ch=8 n=72 v=72
298077 Off ch=8 n=74 v=64
298077 Off ch=8 n=70 v=64
298547 Par ch=8 c=1 v=1
298582 Par ch=8 c=1 v=2
298600 Par ch=8 c=1 v=4
298612 Par ch=8 c=1 v=5
298625 Par ch=8 c=1 v=6
298635 Par ch=8 c=1 v=8
298635 Par ch=8 c=1 v=7
298647 Par ch=8 c=1 v=9
298657 Par ch=8 c=1 v=10
298672 Par ch=8 c=1 v=11
298680 Par ch=8 c=1 v=12
298690 Par ch=8 c=1 v=13
298697 Par ch=8 c=1 v=14
298707 Par ch=8 c=1 v=15
298725 Par ch=8 c=1 v=16
298730 Par ch=8 c=1 v=17
298745 Par ch=8 c=1 v=18
298765 Par ch=8 c=1 v=19
298782 Par ch=8 c=1 v=20
298827 Par ch=8 c=1 v=21
298932 Par ch=8 c=1 v=20
298940 Off ch=8 n=68 v=64
298947 Par ch=8 c=1 v=19
298965 Par ch=8 c=1 v=18
298975 Par ch=8 c=1 v=17
298980 Off ch=8 n=63 v=64
298982 Par ch=8 c=1 v=15
298990 Par ch=8 c=1 v=14
298990 On ch=8 n=68 v=52
298990 On ch=8 n=62 v=73
298997 Par ch=8 c=1 v=12
299012 Par ch=8 c=1 v=11
299017 On ch=8 n=70 v=64
299025 Par ch=8 c=1 v=10
299027 Off ch=8 n=72 v=64
299027 Par ch=8 c=1 v=9
299035 Par ch=8 c=1 v=8
299047 Par ch=8 c=1 v=7
299052 Par ch=8 c=1 v=6
299062 Par ch=8 c=1 v=5
299067 Par ch=8 c=1 v=3
299080 Par ch=8 c=1 v=1
299160 Par ch=8 c=1 v=0
299420 Off ch=8 n=62 v=64
299427 Off ch=8 n=70 v=64
299467 On ch=8 n=63 v=73
299477 On ch=8 n=70 v=61
299497 On ch=8 n=67 v=60
299507 Off ch=8 n=68 v=64
299922 Par ch=8 c=1 v=1
299980 Par ch=8 c=1 v=2
299992 Par ch=8 c=1 v=3
300007 Par ch=8 c=1 v=4
300027 Par ch=8 c=1 v=5
300042 Par ch=8 c=1 v=6
300052 Par ch=8 c=1 v=7
300072 Par ch=8 c=1 v=8
300092 Par ch=8 c=1 v=9
300117 Par ch=8 c=1 v=10
300137 Par ch=8 c=1 v=11
300162 Par ch=8 c=1 v=12
300180 Par ch=8 c=1 v=13
300195 Par ch=8 c=1 v=14
300212 Par ch=8 c=1 v=15
300227 Par ch=8 c=1 v=16
300240 Par ch=8 c=1 v=17
300257 Par ch=8 c=1 v=18
300285 Par ch=8 c=1 v=19
300315 Par ch=8 c=1 v=20
300430 Par ch=8 c=1 v=19
300440 Par ch=8 c=1 v=18
300450 Par ch=8 c=1 v=17
300457 Par ch=8 c=1 v=15
300467 Par ch=8 c=1 v=13
300470 Off ch=8 n=63 v=64
300475 Par ch=8 c=1 v=11
300477 Off ch=8 n=70 v=64
300480 Par ch=8 c=1 v=9
300490 Par ch=8 c=1 v=8
300495 Off ch=8 n=67 v=64
300500 Par ch=8 c=1 v=6
300507 Par ch=8 c=1 v=4
300520 Par ch=8 c=1 v=1
300550 Par ch=8 c=1 v=0
301420 On ch=8 n=55 v=33
301425 On ch=8 n=60 v=33
301427 On ch=8 n=63 v=33
301540 Off ch=8 n=55 v=64
301565 Off ch=8 n=63 v=64
301572 Off ch=8 n=60 v=64
301905 On ch=8 n=62 v=33
301907 On ch=8 n=55 v=33
301915 On ch=8 n=65 v=33
302027 Off ch=8 n=65 v=64
302045 Off ch=8 n=55 v=64
302055 Off ch=8 n=62 v=64
302860 On ch=8 n=55 v=33
302860 On ch=8 n=63 v=33
302870 On ch=8 n=67 v=33
302987 Off ch=8 n=63 v=64
302987 Off ch=8 n=55 v=64
302992 Off ch=8 n=67 v=64
303337 On ch=8 n=55 v=33
303337 On ch=8 n=63 v=33
303345 On ch=8 n=67 v=33
303480 Off ch=8 n=67 v=64
303485 Off ch=8 n=63 v=64
303485 Off ch=8 n=55 v=64
304300 On ch=8 n=55 v=33
304305 On ch=8 n=62 v=33
304310 On ch=8 n=65 v=33
304427 Off ch=8 n=55 v=64
304432 Off ch=8 n=65 v=64
304450 Off ch=8 n=62 v=64
304777 On ch=8 n=55 v=33
304785 On ch=8 n=62 v=33
304790 On ch=8 n=65 v=33
304925 Off ch=8 n=65 v=64
304925 Off ch=8 n=55 v=64
304930 Off ch=8 n=62 v=64
305740 On ch=8 n=55 v=33
305740 On ch=8 n=63 v=33
305742 On ch=8 n=67 v=33
305860 Off ch=8 n=63 v=64
305860 Off ch=8 n=55 v=64
305862 Off ch=8 n=67 v=64
306227 On ch=8 n=55 v=33
306227 On ch=8 n=63 v=33
306235 On ch=8 n=67 v=33
306355 Off ch=8 n=67 v=64
306365 Off ch=8 n=63 v=64
306365 Off ch=8 n=55 v=64
307180 On ch=8 n=55 v=33
307185 On ch=8 n=60 v=33
307187 On ch=8 n=63 v=33
307300 Off ch=8 n=55 v=64
307325 Off ch=8 n=63 v=64
307332 Off ch=8 n=60 v=64
307665 On ch=8 n=62 v=33
307667 On ch=8 n=55 v=33
307675 On ch=8 n=65 v=33
307787 Off ch=8 n=65 v=64
307805 Off ch=8 n=55 v=64
307815 Off ch=8 n=62 v=64
308620 On ch=8 n=55 v=33
308620 On ch=8 n=63 v=33
308630 On ch=8 n=67 v=33
308747 Off ch=8 n=63 v=64
308747 Off ch=8 n=55 v=64
308752 Off ch=8 n=67 v=64
309097 On ch=8 n=55 v=33
309097 On ch=8 n=63 v=33
309105 On ch=8 n=67 v=33
309240 Off ch=8 n=67 v=64
309245 Off ch=8 n=63 v=64
309245 Off ch=8 n=55 v=64
310060 On ch=8 n=55 v=33
310065 On ch=8 n=62 v=33
310070 On ch=8 n=65 v=33
310187 Off ch=8 n=55 v=64
310192 Off ch=8 n=65 v=64
310210 Off ch=8 n=62 v=64
310537 On ch=8 n=55 v=33
310545 On ch=8 n=62 v=33
310550 On ch=8 n=65 v=33
310685 Off ch=8 n=65 v=64
310685 Off ch=8 n=55 v=64
310690 Off ch=8 n=62 v=64
311500 On ch=8 n=55 v=33
311500 On ch=8 n=63 v=33
311502 On ch=8 n=67 v=33
311620 Off ch=8 n=63 v=64
311620 Off ch=8 n=55 v=64
311622 Off ch=8 n=67 v=64
311987 On ch=8 n=55 v=33
311987 On ch=8 n=63 v=33
311995 On ch=8 n=67 v=33
312115 Off ch=8 n=67 v=64
312125 Off ch=8 n=63 v=64
312125 Off ch=8 n=55 v=64
312940 On ch=8 n=55 v=33
312945 On ch=8 n=60 v=33
312947 On ch=8 n=63 v=33
313060 Off ch=8 n=55 v=64
313085 Off ch=8 n=63 v=64
313092 Off ch=8 n=60 v=64
313425 On ch=8 n=62 v=33
313427 On ch=8 n=55 v=33
313435 On ch=8 n=65 v=33
313547 Off ch=8 n=65 v=64
313565 Off ch=8 n=55 v=64
313575 Off ch=8 n=62 v=64
314380 On ch=8 n=55 v=33
314380 On ch=8 n=63 v=33
314390 On ch=8 n=67 v=33
314507 Off ch=8 n=63 v=64
314507 Off ch=8 n=55 v=64
314512 Off ch=8 n=67 v=64
314857 On ch=8 n=55 v=33
314857 On ch=8 n=63 v=33
314865 On ch=8 n=67 v=33
315000 Off ch=8 n=67 v=64
315005 Off ch=8 n=63 v=64
315005 Off ch=8 n=55 v=64
315820 On ch=8 n=55 v=33
315825 On ch=8 n=62 v=33
315830 On ch=8 n=65 v=33
315947 Off ch=8 n=55 v=64
315952 Off ch=8 n=65 v=64
315970 Off ch=8 n=62 v=64
316297 On ch=8 n=55 v=33
316305 On ch=8 n=62 v=33
316310 On ch=8 n=65 v=33
316445 Off ch=8 n=65 v=64
316445 Off ch=8 n=55 v=64
316450 Off ch=8 n=62 v=64
316785 On ch=8 n=60 v=64
316785 On ch=8 n=55 v=64
316785 On ch=8 n=63 v=64
316787 On ch=8 n=67 v=64
316925 Off ch=8 n=67 v=64
316932 Off ch=8 n=63 v=64
316932 Off ch=8 n=55 v=64
316932 Off ch=8 n=60 v=64
317722 On ch=8 n=62 v=64
317735 On ch=8 n=59 v=73
317747 On ch=8 n=65 v=98
317757 On ch=8 n=67 v=64
317880 Off ch=8 n=67 v=64
317897 Off ch=8 n=65 v=64
317927 Off ch=8 n=62 v=64
317935 Off ch=8 n=59 v=64
318205 On ch=8 n=60 v=64
318205 On ch=8 n=55 v=52
318222 On ch=8 n=63 v=97
318255 On ch=8 n=72 v=83
318405 Off ch=8 n=60 v=64
318417 Off ch=8 n=63 v=64
318422 Off ch=8 n=55 v=64
318427 Off ch=8 n=72 v=64
318427 Meta TrkEnd
TrkEnd
MTrk
0 Meta TrkName "#Trombone "
0 Meta 0x21 00
0 Meta 0x20 08
0 Par ch=9 c=10 v=64
113727 On ch=9 n=48 v=64
113855 Off ch=9 n=48 v=64
114185 On ch=9 n=43 v=64
114322 Off ch=9 n=43 v=64
114692 On ch=9 n=39 v=64
114827 Off ch=9 n=39 v=64
115185 On ch=9 n=36 v=64
115355 Off ch=9 n=36 v=64
116147 On ch=9 n=46 v=73
116592 On ch=9 n=51 v=64
116687 Off ch=9 n=46 v=64
116770 Off ch=9 n=51 v=64
118032 On ch=9 n=46 v=64
118195 Off ch=9 n=46 v=64
119472 On ch=9 n=51 v=64
119635 Off ch=9 n=51 v=64
120912 On ch=9 n=46 v=64
121072 Off ch=9 n=46 v=64
122352 On ch=9 n=53 v=64
122515 Off ch=9 n=53 v=64
123792 On ch=9 n=46 v=64
123952 Off ch=9 n=46 v=64
125232 On ch=9 n=51 v=64
125395 Off ch=9 n=51 v=64
126672 On ch=9 n=46 v=64
126832 Off ch=9 n=46 v=64
128112 On ch=9 n=48 v=64
128275 Off ch=9 n=48 v=64
129552 On ch=9 n=48 v=64
129712 Off ch=9 n=48 v=64
130992 On ch=9 n=53 v=64
131155 Off ch=9 n=53 v=64
132432 On ch=9 n=44 v=64
132592 Off ch=9 n=44 v=64
133872 On ch=9 n=51 v=64
134035 Off ch=9 n=51 v=64
135312 On ch=9 n=46 v=64
135472 Off ch=9 n=46 v=64
136752 On ch=9 n=51 v=64
136915 Off ch=9 n=51 v=64
138192 On ch=9 n=46 v=64
139477 Off ch=9 n=46 v=64
139632 On ch=9 n=51 v=73
139810 Off ch=9 n=51 v=64
141072 On ch=9 n=46 v=73
141235 Off ch=9 n=46 v=64
142512 On ch=9 n=51 v=73
142675 Off ch=9 n=51 v=64
143952 On ch=9 n=46 v=73
144112 Off ch=9 n=46 v=64
145392 On ch=9 n=53 v=73
145555 Off ch=9 n=53 v=64
146832 On ch=9 n=46 v=73
146992 Off ch=9 n=46 v=64
148272 On ch=9 n=51 v=73
148435 Off ch=9 n=51 v=64
149712 On ch=9 n=46 v=73
149872 Off ch=9 n=46 v=64
151152 On ch=9 n=51 v=73
151315 Off ch=9 n=51 v=64
152592 On ch=9 n=49 v=73
152752 Off ch=9 n=49 v=64
154032 On ch=9 n=48 v=73
154195 Off ch=9 n=48 v=64
155472 On ch=9 n=47 v=73
155632 Off ch=9 n=47 v=64
156912 On ch=9 n=46 v=73
157075 Off ch=9 n=46 v=64
158352 On ch=9 n=46 v=73
158512 Off ch=9 n=46 v=64
159792 On ch=9 n=51 v=73
159955 Off ch=9 n=51 v=64
161240 On ch=9 n=51 v=64
162662 Off ch=9 n=51 v=64
163177 On ch=9 n=51 v=48
163182 On ch=9 n=56 v=36
163285 Off ch=9 n=56 v=64
163300 Off ch=9 n=51 v=64
163655 On ch=9 n=56 v=32
163660 On ch=9 n=51 v=48
163775 Off ch=9 n=51 v=64
163792 Off ch=9 n=56 v=64
164570 On ch=9 n=56 v=36
164577 On ch=9 n=51 v=45
164675 Off ch=9 n=51 v=64
164692 Off ch=9 n=56 v=64
165075 On ch=9 n=51 v=45
165085 On ch=9 n=56 v=37
165180 Off ch=9 n=51 v=64
165190 Off ch=9 n=56 v=64
166057 On ch=9 n=51 v=48
166062 On ch=9 n=56 v=32
166165 Off ch=9 n=56 v=64
166180 Off ch=9 n=51 v=64
166535 On ch=9 n=56 v=32
166540 On ch=9 n=51 v=48
166655 Off ch=9 n=51 v=64
166672 Off ch=9 n=56 v=64
167450 On ch=9 n=56 v=36
167457 On ch=9 n=51 v=45
167555 Off ch=9 n=51 v=64
167572 Off ch=9 n=56 v=64
167955 On ch=9 n=51 v=45
167965 On ch=9 n=56 v=36
168060 Off ch=9 n=51 v=64
168070 Off ch=9 n=56 v=64
168937 On ch=9 n=49 v=48
168942 On ch=9 n=55 v=36
169045 Off ch=9 n=55 v=64
169060 Off ch=9 n=49 v=64
169415 On ch=9 n=55 v=32
169420 On ch=9 n=49 v=48
169535 Off ch=9 n=49 v=64
169552 Off ch=9 n=55 v=64
170330 On ch=9 n=55 v=36
170337 On ch=9 n=49 v=45
170435 Off ch=9 n=49 v=64
170452 Off ch=9 n=55 v=64
170835 On ch=9 n=49 v=45
170845 On ch=9 n=55 v=37
170940 Off ch=9 n=49 v=64
170950 Off ch=9 n=55 v=64
171817 On ch=9 n=49 v=48
171822 On ch=9 n=55 v=32
171925 Off ch=9 n=55 v=64
171940 Off ch=9 n=49 v=64
172295 On ch=9 n=55 v=32
172300 On ch=9 n=49 v=48
172415 Off ch=9 n=49 v=64
172432 Off ch=9 n=55 v=64
173210 On ch=9 n=55 v=36
173217 On ch=9 n=49 v=45
173315 Off ch=9 n=49 v=64
173332 Off ch=9 n=55 v=64
173715 On ch=9 n=49 v=45
173725 On ch=9 n=55 v=36
173820 Off ch=9 n=49 v=64
173830 Off ch=9 n=55 v=64
174697 On ch=9 n=51 v=48
174702 On ch=9 n=56 v=36
174805 Off ch=9 n=56 v=64
174820 Off ch=9 n=51 v=64
175175 On ch=9 n=56 v=32
175180 On ch=9 n=51 v=48
175295 Off ch=9 n=51 v=64
175312 Off ch=9 n=56 v=64
176090 On ch=9 n=56 v=36
176097 On ch=9 n=51 v=45
176195 Off ch=9 n=51 v=64
176212 Off ch=9 n=56 v=64
176595 On ch=9 n=51 v=45
176605 On ch=9 n=56 v=37
176700 Off ch=9 n=51 v=64
176710 Off ch=9 n=56 v=64
177577 On ch=9 n=51 v=48
177582 On ch=9 n=56 v=32
177685 Off ch=9 n=56 v=64
177700 Off ch=9 n=51 v=64
178055 On ch=9 n=56 v=32
178060 On ch=9 n=51 v=48
178175 Off ch=9 n=51 v=64
178192 Off ch=9 n=56 v=64
178970 On ch=9 n=56 v=36
178977 On ch=9 n=51 v=45
179075 Off ch=9 n=51 v=64
179092 Off ch=9 n=56 v=64
179475 On ch=9 n=51 v=45
179485 On ch=9 n=56 v=36
179580 Off ch=9 n=51 v=64
179590 Off ch=9 n=56 v=64
180457 On ch=9 n=53 v=48
180462 On ch=9 n=56 v=36
180565 Off ch=9 n=56 v=64
180580 Off ch=9 n=53 v=64
180935 On ch=9 n=56 v=32
180940 On ch=9 n=51 v=48
181055 Off ch=9 n=51 v=64
181072 Off ch=9 n=56 v=64
181850 On ch=9 n=56 v=36
181857 On ch=9 n=51 v=45
181955 Off ch=9 n=51 v=64
181972 Off ch=9 n=56 v=64
182355 On ch=9 n=51 v=45
182365 On ch=9 n=56 v=37
182460 Off ch=9 n=51 v=64
182470 Off ch=9 n=56 v=64
183337 On ch=9 n=50 v=48
183342 On ch=9 n=56 v=32
183445 Off ch=9 n=56 v=64
183460 Off ch=9 n=50 v=64
183815 On ch=9 n=56 v=32
183820 On ch=9 n=50 v=48
183935 Off ch=9 n=50 v=64
183952 Off ch=9 n=56 v=64
184777 On ch=9 n=51 v=48
184782 On ch=9 n=58 v=32
184885 Off ch=9 n=58 v=64
184900 Off ch=9 n=51 v=64
185255 On ch=9 n=58 v=32
185260 On ch=9 n=51 v=48
185375 Off ch=9 n=51 v=64
185392 Off ch=9 n=58 v=64
185717 On ch=9 n=60 v=84
185735 On ch=9 n=51 v=73
185740 On ch=9 n=56 v=64
185755 On ch=9 n=44 v=73
186605 Off ch=9 n=51 v=64
186632 Off ch=9 n=56 v=64
186637 Off ch=9 n=44 v=64
186690 On ch=9 n=48 v=73
186692 On ch=9 n=56 v=64
186705 On ch=9 n=51 v=73
186707 On ch=9 n=44 v=73
186752 Off ch=9 n=60 v=64
187610 Off ch=9 n=56 v=64
187610 Off ch=9 n=44 v=64
187617 Off ch=9 n=51 v=64
187627 On ch=9 n=47 v=73
187635 Off ch=9 n=48 v=64
187640 On ch=9 n=44 v=73
187642 On ch=9 n=50 v=73
187650 On ch=9 n=56 v=64
188010 Off ch=9 n=44 v=64
188060 Off ch=9 n=56 v=64
188072 Off ch=9 n=47 v=64
188105 Off ch=9 n=50 v=64
188117 On ch=9 n=48 v=73
188142 On ch=9 n=51 v=73
188150 On ch=9 n=56 v=73
188152 On ch=9 n=44 v=64
188492 Off ch=9 n=44 v=64
188515 Off ch=9 n=48 v=64
188520 Off ch=9 n=56 v=64
188560 Off ch=9 n=51 v=64
188580 On ch=9 n=60 v=81
188590 On ch=9 n=51 v=64
188622 On ch=9 n=44 v=82
188645 On ch=9 n=56 v=73
189440 Off ch=9 n=44 v=64
189450 Off ch=9 n=56 v=64
189505 Off ch=9 n=51 v=64
189532 On ch=9 n=48 v=73
189540 Off ch=9 n=60 v=64
189542 On ch=9 n=51 v=73
189542 On ch=9 n=56 v=73
189565 On ch=9 n=44 v=73
190500 Off ch=9 n=56 v=64
190507 Off ch=9 n=44 v=64
190520 On ch=9 n=53 v=73
190530 On ch=9 n=61 v=82
190540 On ch=9 n=44 v=64
190547 On ch=9 n=56 v=73
190565 Off ch=9 n=48 v=64
190572 Off ch=9 n=51 v=64
190932 Off ch=9 n=44 v=64
190952 Off ch=9 n=53 v=64
190975 Off ch=9 n=56 v=64
190995 On ch=9 n=51 v=73
191002 Off ch=9 n=61 v=64
191020 On ch=9 n=60 v=73
191022 On ch=9 n=44 v=73
191027 On ch=9 n=56 v=73
191377 Off ch=9 n=51 v=64
191390 Off ch=9 n=56 v=64
191415 Off ch=9 n=44 v=64
191432 Off ch=9 n=60 v=64
191477 On ch=9 n=51 v=73
191492 On ch=9 n=60 v=82
191500 On ch=9 n=55 v=73
191502 On ch=9 n=43 v=64
192362 Off ch=9 n=43 v=64
192392 Off ch=9 n=51 v=64
192402 Off ch=9 n=55 v=64
192420 On ch=9 n=49 v=73
192450 On ch=9 n=43 v=64
192450 On ch=9 n=55 v=73
192460 Off ch=9 n=60 v=64
192472 On ch=9 n=58 v=72
192850 Off ch=9 n=43 v=64
192877 Off ch=9 n=49 v=64
192890 Off ch=9 n=55 v=64
192902 On ch=9 n=48 v=64
192932 On ch=9 n=43 v=64
192935 On ch=9 n=55 v=73
192937 Off ch=9 n=58 v=64
192937 On ch=9 n=57 v=81
193720 Off ch=9 n=43 v=64
193787 Off ch=9 n=55 v=64
193790 Off ch=9 n=48 v=64
193840 On ch=9 n=49 v=73
193845 Off ch=9 n=57 v=64
193867 On ch=9 n=58 v=64
193877 On ch=9 n=55 v=82
193892 On ch=9 n=43 v=64
194270 Off ch=9 n=55 v=64
194302 Off ch=9 n=43 v=64
194310 Off ch=9 n=49 v=64
194335 On ch=9 n=55 v=73
194347 Off ch=9 n=58 v=64
194357 On ch=9 n=65 v=82
194372 On ch=9 n=46 v=84
194382 On ch=9 n=43 v=64
195132 Off ch=9 n=55 v=64
195140 Off ch=9 n=43 v=64
195162 Off ch=9 n=46 v=64
195282 Off ch=9 n=65 v=64
195297 On ch=9 n=55 v=73
195315 On ch=9 n=51 v=56
195322 On ch=9 n=43 v=64
195335 On ch=9 n=63 v=73
195772 Off ch=9 n=55 v=64
195772 On ch=9 n=53 v=73
195777 Off ch=9 n=43 v=64
195785 Off ch=9 n=51 v=64
195792 On ch=9 n=61 v=82
195802 Off ch=9 n=63 v=64
195897 Off ch=9 n=61 v=64
195930 Off ch=9 n=53 v=64
196257 On ch=9 n=51 v=64
196277 On ch=9 n=60 v=82
196395 Off ch=9 n=51 v=64
196410 Off ch=9 n=60 v=64
196732 On ch=9 n=50 v=73
196767 On ch=9 n=59 v=82
196930 Off ch=9 n=50 v=64
196942 Off ch=9 n=59 v=64
197257 On ch=9 n=44 v=60
197257 On ch=9 n=51 v=82
197260 On ch=9 n=56 v=56
197267 On ch=9 n=60 v=82
198110 Off ch=9 n=44 v=64
198115 Off ch=9 n=56 v=64
198152 Off ch=9 n=51 v=64
198185 Off ch=9 n=60 v=64
198200 On ch=9 n=51 v=73
198202 On ch=9 n=48 v=73
198222 On ch=9 n=44 v=60
198225 On ch=9 n=56 v=52
199062 Off ch=9 n=44 v=64
199120 Off ch=9 n=56 v=64
199132 Off ch=9 n=48 v=64
199147 On ch=9 n=50 v=73
199155 Off ch=9 n=51 v=64
199160 On ch=9 n=47 v=73
199175 On ch=9 n=44 v=60
199190 On ch=9 n=56 v=60
199535 Off ch=9 n=44 v=64
199545 Off ch=9 n=56 v=64
199607 Off ch=9 n=47 v=64
199637 On ch=9 n=44 v=56
199642 Off ch=9 n=50 v=64
199642 On ch=9 n=48 v=64
199650 On ch=9 n=51 v=73
199660 On ch=9 n=56 v=64
200027 Off ch=9 n=44 v=64
200032 Off ch=9 n=56 v=64
200070 Off ch=9 n=48 v=64
200082 Off ch=9 n=51 v=64
200115 On ch=9 n=51 v=73
200122 On ch=9 n=60 v=82
200137 On ch=9 n=44 v=64
200137 On ch=9 n=56 v=60
200985 Off ch=9 n=44 v=64
200992 Off ch=9 n=56 v=64
201032 Off ch=9 n=51 v=64
201055 Off ch=9 n=60 v=64
201072 On ch=9 n=48 v=73
201080 On ch=9 n=51 v=64
201095 On ch=9 n=56 v=60
201100 On ch=9 n=44 v=64
201882 Off ch=9 n=51 v=64
201947 Off ch=9 n=48 v=64
201985 Off ch=9 n=56 v=64
202025 On ch=9 n=49 v=73
202042 Off ch=9 n=44 v=64
202050 On ch=9 n=53 v=73
202065 On ch=9 n=56 v=52
202075 On ch=9 n=46 v=82
202425 Off ch=9 n=46 v=64
202437 Off ch=9 n=49 v=64
202480 On ch=9 n=51 v=64
202495 Off ch=9 n=56 v=64
202520 On ch=9 n=56 v=52
202522 Off ch=9 n=53 v=64
202530 On ch=9 n=55 v=73
202532 On ch=9 n=46 v=64
202950 Off ch=9 n=46 v=64
202972 Off ch=9 n=51 v=64
202977 Off ch=9 n=56 v=64
202977 Off ch=9 n=55 v=64
203002 On ch=9 n=56 v=80
203005 On ch=9 n=49 v=85
203025 On ch=9 n=53 v=64
203745 Off ch=9 n=53 v=64
203745 Off ch=9 n=49 v=64
203900 On ch=9 n=49 v=73
203942 On ch=9 n=58 v=64
203960 On ch=9 n=55 v=73
203962 Off ch=9 n=56 v=64
204270 Off ch=9 n=49 v=64
204390 Off ch=9 n=55 v=64
204410 On ch=9 n=48 v=73
204415 Off ch=9 n=58 v=64
204422 On ch=9 n=53 v=73
204430 On ch=9 n=60 v=73
205195 Off ch=9 n=53 v=64
205200 Off ch=9 n=60 v=64
205222 Off ch=9 n=48 v=64
205352 On ch=9 n=48 v=73
205362 On ch=9 n=53 v=73
205392 On ch=9 n=60 v=73
205820 Off ch=9 n=53 v=64
205852 Off ch=9 n=60 v=64
205885 On ch=9 n=46 v=56
205900 On ch=9 n=53 v=73
205910 On ch=9 n=62 v=82
205942 Off ch=9 n=48 v=64
206282 Off ch=9 n=46 v=64
206310 Off ch=9 n=53 v=64
206330 Off ch=9 n=62 v=64
206380 On ch=9 n=60 v=73
206382 On ch=9 n=46 v=64
206385 On ch=9 n=53 v=64
206742 Off ch=9 n=53 v=64
206757 Off ch=9 n=46 v=64
206792 Off ch=9 n=60 v=64
206850 On ch=9 n=53 v=64
206850 On ch=9 n=46 v=64
206857 On ch=9 n=62 v=80
207255 Off ch=9 n=46 v=64
207265 Off ch=9 n=62 v=64
207280 Off ch=9 n=53 v=64
207312 On ch=9 n=39 v=64
207332 On ch=9 n=63 v=82
207347 On ch=9 n=55 v=73
208735 Off ch=9 n=63 v=64
208745 Off ch=9 n=55 v=64
208777 Off ch=9 n=39 v=64
208777 On ch=9 n=59 v=72
208785 On ch=9 n=53 v=71
208787 On ch=9 n=43 v=100
209830 Off ch=9 n=59 v=64
209832 Off ch=9 n=53 v=64
209930 Off ch=9 n=43 v=64
215867 Pb ch=9 v=8452
215887 Pb ch=9 v=8582
215900 Pb ch=9 v=8842
215915 Pb ch=9 v=9232
215945 Pb ch=9 v=9622
215947 On ch=9 n=53 v=73
215960 Pb ch=9 v=9882
215975 Pb ch=9 v=10142
215997 Pb ch=9 v=10532
216002 Pb ch=9 v=10922
216025 Pb ch=9 v=11572
216047 Pb ch=9 v=11832
216055 Pb ch=9 v=12482
216080 Pb ch=9 v=13002
216095 Pb ch=9 v=13652
216117 Pb ch=9 v=13782
216127 Pb ch=9 v=14172
216145 Pb ch=9 v=14562
216167 Pb ch=9 v=14952
216177 Pb ch=9 v=15472
216200 Pb ch=9 v=15992
216225 Pb ch=9 v=16252
216232 Pb ch=9 v=16382
216510 Par ch=9 c=1 v=1
216587 Par ch=9 c=1 v=4
216622 Par ch=9 c=1 v=7
216637 Par ch=9 c=1 v=8
216652 Par ch=9 c=1 v=11
216680 Par ch=9 c=1 v=14
216697 Par ch=9 c=1 v=18
216732 Par ch=9 c=1 v=19
216752 Par ch=9 c=1 v=21
216765 Par ch=9 c=1 v=25
216792 Par ch=9 c=1 v=29
216820 Par ch=9 c=1 v=31
216835 Par ch=9 c=1 v=35
216862 Par ch=9 c=1 v=38
216885 Par ch=9 c=1 v=39
216900 Par ch=9 c=1 v=42
216930 Par ch=9 c=1 v=44
216955 Par ch=9 c=1 v=46
216970 Par ch=9 c=1 v=48
216992 Par ch=9 c=1 v=50
217027 Par ch=9 c=1 v=51
217045 Par ch=9 c=1 v=52
217065 Par ch=9 c=1 v=53
217122 Par ch=9 c=1 v=52
217150 Par ch=9 c=1 v=50
217167 Pb ch=9 v=16252
217175 Pb ch=9 v=15862
217177 Par ch=9 c=1 v=49
217195 Pb ch=9 v=15472
217197 Par ch=9 c=1 v=48
217210 Pb ch=9 v=14692
217215 Par ch=9 c=1 v=46
217235 Pb ch=9 v=14172
217237 Par ch=9 c=1 v=43
217252 Pb ch=9 v=13522
217265 Par ch=9 c=1 v=41
217267 Pb ch=9 v=12742
217282 Par ch=9 c=1 v=37
217285 Pb ch=9 v=12092
217302 Pb ch=9 v=11312
217310 Par ch=9 c=1 v=33
217322 Pb ch=9 v=10532
217337 Par ch=9 c=1 v=30
217347 Pb ch=9 v=10012
217347 On ch=9 n=51 v=64
217362 Par ch=9 c=1 v=29
217362 Pb ch=9 v=8842
217370 Pb ch=9 v=8322
217377 Off ch=9 n=53 v=64
217377 Par ch=9 c=1 v=23
217377 Pb ch=9 v=8192
217395 Par ch=9 c=1 v=19
217417 Par ch=9 c=1 v=14
217442 Par ch=9 c=1 v=8
217470 Par ch=9 c=1 v=4
217487 Par ch=9 c=1 v=1
217532 Par ch=9 c=1 v=0
218305 On ch=9 n=50 v=64
218325 Off ch=9 n=51 v=64
218802 On ch=9 n=48 v=66
218815 Off ch=9 n=50 v=64
219290 Par ch=9 c=1 v=1
219325 Par ch=9 c=1 v=2
219345 Par ch=9 c=1 v=3
219355 Par ch=9 c=1 v=4
219375 Par ch=9 c=1 v=7
219405 Par ch=9 c=1 v=8
219425 Par ch=9 c=1 v=9
219450 Par ch=9 c=1 v=10
219475 Par ch=9 c=1 v=11
219500 Par ch=9 c=1 v=12
219512 Par ch=9 c=1 v=13
219535 Par ch=9 c=1 v=15
219565 Par ch=9 c=1 v=16
219580 Par ch=9 c=1 v=18
219627 Par ch=9 c=1 v=20
219667 Par ch=9 c=1 v=21
219700 Par ch=9 c=1 v=22
219712 Par ch=9 c=1 v=24
219745 Par ch=9 c=1 v=26
219760 Par ch=9 c=1 v=28
219782 Par ch=9 c=1 v=30
219815 Par ch=9 c=1 v=31
219830 Par ch=9 c=1 v=32
219847 Par ch=9 c=1 v=34
219872 Par ch=9 c=1 v=36
219902 Par ch=9 c=1 v=37
219917 Par ch=9 c=1 v=40
219955 Par ch=9 c=1 v=41
219965 Par ch=9 c=1 v=42
219995 Par ch=9 c=1 v=43
220017 Par ch=9 c=1 v=44
220117 Par ch=9 c=1 v=43
220157 Par ch=9 c=1 v=42
220177 Par ch=9 c=1 v=41
220192 Par ch=9 c=1 v=40
220207 Par ch=9 c=1 v=36
220242 Par ch=9 c=1 v=33
220257 Par ch=9 c=1 v=30
220275 Par ch=9 c=1 v=24
220305 Par ch=9 c=1 v=21
220322 Par ch=9 c=1 v=15
220340 Off ch=9 n=48 v=64
220347 Par ch=9 c=1 v=8
220370 Par ch=9 c=1 v=1
220425 Par ch=9 c=1 v=0
220572 Pb ch=9 v=7552
220587 Pb ch=9 v=6528
220615 Pb ch=9 v=6144
220622 Pb ch=9 v=5120
220647 Pb ch=9 v=4480
220665 Pb ch=9 v=3968
220677 Pb ch=9 v=3584
220697 Pb ch=9 v=3200
220712 Pb ch=9 v=3072
220732 On ch=9 n=48 v=64
220772 Pb ch=9 v=3328
220780 Pb ch=9 v=3584
220802 Pb ch=9 v=3968
220820 Pb ch=9 v=4480
220852 Pb ch=9 v=4736
220872 Pb ch=9 v=5120
220900 Pb ch=9 v=5248
220907 Pb ch=9 v=5504
220922 Pb ch=9 v=5888
220947 Pb ch=9 v=6144
220955 Pb ch=9 v=6528
220972 Pb ch=9 v=6784
220995 Pb ch=9 v=7168
221020 Pb ch=9 v=7552
221027 Pb ch=9 v=7680
221045 Pb ch=9 v=7936
221060 Pb ch=9 v=8192
221217 Off ch=9 n=48 v=64
221217 On ch=9 n=50 v=73
221655 Off ch=9 n=50 v=64
221710 On ch=9 n=51 v=69
221902 Par ch=9 c=1 v=1
222020 Par ch=9 c=1 v=2
222057 Par ch=9 c=1 v=4
222097 Par ch=9 c=1 v=5
222120 Par ch=9 c=1 v=6
222147 Off ch=9 n=51 v=64
222175 Par ch=9 c=1 v=5
222190 Par ch=9 c=1 v=3
222195 On ch=9 n=48 v=64
222212 Par ch=9 c=1 v=1
222340 Par ch=9 c=1 v=0
222635 Off ch=9 n=48 v=64
222657 On ch=9 n=51 v=69
222962 Par ch=9 c=1 v=1
223057 Par ch=9 c=1 v=2
223075 Par ch=9 c=1 v=3
223087 Par ch=9 c=1 v=6
223110 Par ch=9 c=1 v=9
223137 Par ch=9 c=1 v=12
223147 Off ch=9 n=51 v=64
223157 On ch=9 n=55 v=78
223160 Par ch=9 c=1 v=14
223177 Par ch=9 c=1 v=18
223205 Par ch=9 c=1 v=19
223222 Par ch=9 c=1 v=22
223247 Par ch=9 c=1 v=27
223270 Par ch=9 c=1 v=29
223295 Par ch=9 c=1 v=30
223312 Par ch=9 c=1 v=33
223337 Par ch=9 c=1 v=35
223362 Par ch=9 c=1 v=37
223387 Par ch=9 c=1 v=38
223405 Par ch=9 c=1 v=39
223472 Par ch=9 c=1 v=40
223607 Par ch=9 c=1 v=41
223792 Par ch=9 c=1 v=39
223817 Par ch=9 c=1 v=37
223847 Par ch=9 c=1 v=36
223872 Par ch=9 c=1 v=35
223877 Par ch=9 c=1 v=34
223902 Par ch=9 c=1 v=32
223927 Par ch=9 c=1 v=30
223955 Par ch=9 c=1 v=29
223965 Par ch=9 c=1 v=26
223995 Par ch=9 c=1 v=24
224010 Par ch=9 c=1 v=20
224045 Par ch=9 c=1 v=18
224052 Off ch=9 n=55 v=64
224065 Par ch=9 c=1 v=15
224085 Par ch=9 c=1 v=14
224087 On ch=9 n=56 v=73
224100 Par ch=9 c=1 v=8
224130 Par ch=9 c=1 v=6
224150 Par ch=9 c=1 v=3
224167 Par ch=9 c=1 v=1
224242 Par ch=9 c=1 v=0
224510 Off ch=9 n=56 v=64
224555 On ch=9 n=55 v=81
224867 Par ch=9 c=1 v=1
224907 Par ch=9 c=1 v=2
224925 Par ch=9 c=1 v=3
224935 Par ch=9 c=1 v=5
224957 Par ch=9 c=1 v=8
224985 Par ch=9 c=1 v=9
225012 Par ch=9 c=1 v=10
225025 Par ch=9 c=1 v=12
225052 Par ch=9 c=1 v=13
225077 Par ch=9 c=1 v=14
225095 Par ch=9 c=1 v=17
225130 Par ch=9 c=1 v=18
225140 Par ch=9 c=1 v=19
225167 Par ch=9 c=1 v=20
225192 Par ch=9 c=1 v=21
225217 Par ch=9 c=1 v=22
225247 Par ch=9 c=1 v=24
225277 Par ch=9 c=1 v=26
225307 Par ch=9 c=1 v=27
225322 Par ch=9 c=1 v=28
225340 Par ch=9 c=1 v=30
225380 Par ch=9 c=1 v=31
225405 Par ch=9 c=1 v=33
225442 Par ch=9 c=1 v=34
225457 Par ch=9 c=1 v=35
225485 Par ch=9 c=1 v=36
225577 Par ch=9 c=1 v=35
225597 Par ch=9 c=1 v=34
225615 Par ch=9 c=1 v=32
225640 Par ch=9 c=1 v=30
225657 Par ch=9 c=1 v=26
225682 Par ch=9 c=1 v=25
225700 Par ch=9 c=1 v=22
225722 Par ch=9 c=1 v=19
225752 Par ch=9 c=1 v=18
225767 Par ch=9 c=1 v=11
225792 Par ch=9 c=1 v=6
225817 Par ch=9 c=1 v=3
225832 Par ch=9 c=1 v=1
225895 Par ch=9 c=1 v=0
226027 On ch=9 n=53 v=61
226035 Off ch=9 n=55 v=64
226302 Par ch=9 c=1 v=1
226427 Par ch=9 c=1 v=2
226457 Par ch=9 c=1 v=3
226467 Par ch=9 c=1 v=5
226502 Par ch=9 c=1 v=7
226507 Par ch=9 c=1 v=8
226535 Par ch=9 c=1 v=9
226552 Par ch=9 c=1 v=10
226577 Par ch=9 c=1 v=12
226602 Par ch=9 c=1 v=14
226635 Par ch=9 c=1 v=16
226655 Par ch=9 c=1 v=17
226670 Par ch=9 c=1 v=18
226692 Par ch=9 c=1 v=20
226720 Par ch=9 c=1 v=21
226740 Par ch=9 c=1 v=22
226755 Par ch=9 c=1 v=24
226785 Par ch=9 c=1 v=25
226800 Par ch=9 c=1 v=27
226840 Par ch=9 c=1 v=28
226870 Par ch=9 c=1 v=29
226892 Par ch=9 c=1 v=30
226932 Par ch=9 c=1 v=31
226977 Par ch=9 c=1 v=32
227077 Off ch=9 n=53 v=64
227142 Par ch=9 c=1 v=30
227162 Par ch=9 c=1 v=27
227185 Par ch=9 c=1 v=23
227210 Par ch=9 c=1 v=20
227232 Par ch=9 c=1 v=13
227265 Par ch=9 c=1 v=7
227277 Par ch=9 c=1 v=1
227302 Par ch=9 c=1 v=0
227327 Pb ch=9 v=7424
227345 Pb ch=9 v=6528
227365 Pb ch=9 v=5888
227380 Pb ch=9 v=5120
227400 Pb ch=9 v=4736
227415 Pb ch=9 v=4608
227427 On ch=9 n=53 v=69
227435 Pb ch=9 v=4480
227505 Pb ch=9 v=4608
227525 Pb ch=9 v=4864
227547 Pb ch=9 v=4992
227555 Pb ch=9 v=5248
227572 Pb ch=9 v=5504
227595 Pb ch=9 v=5760
227620 Pb ch=9 v=6016
227627 Pb ch=9 v=6272
227650 Pb ch=9 v=6400
227667 Pb ch=9 v=6528
227675 Pb ch=9 v=6784
227700 Pb ch=9 v=6912
227715 Pb ch=9 v=7168
227742 Pb ch=9 v=7296
227757 Pb ch=9 v=7424
227767 Pb ch=9 v=7552
227782 Pb ch=9 v=7808
227807 Pb ch=9 v=7936
227825 Pb ch=9 v=8192
228017 Par ch=9 c=1 v=1
228085 Par ch=9 c=1 v=2
228107 Par ch=9 c=1 v=6
228127 Par ch=9 c=1 v=9
228162 Par ch=9 c=1 v=11
228177 Par ch=9 c=1 v=14
228202 Par ch=9 c=1 v=16
228220 Par ch=9 c=1 v=19
228250 Par ch=9 c=1 v=20
228265 Par ch=9 c=1 v=22
228290 Par ch=9 c=1 v=24
228307 Par ch=9 c=1 v=26
228337 Par ch=9 c=1 v=29
228362 Par ch=9 c=1 v=31
228382 Par ch=9 c=1 v=32
228400 Par ch=9 c=1 v=34
228432 Par ch=9 c=1 v=35
228445 Par ch=9 c=1 v=37
228482 Par ch=9 c=1 v=38
228570 Par ch=9 c=1 v=37
228592 Par ch=9 c=1 v=36
228607 Par ch=9 c=1 v=35
228622 Par ch=9 c=1 v=33
228647 Par ch=9 c=1 v=31
228667 Par ch=9 c=1 v=26
228695 Par ch=9 c=1 v=22
228715 Off ch=9 n=53 v=64
228717 Par ch=9 c=1 v=20
228735 Par ch=9 c=1 v=14
228757 Par ch=9 c=1 v=11
228762 Pb ch=9 v=7424
228777 Pb ch=9 v=6272
228780 Par ch=9 c=1 v=7
228802 Pb ch=9 v=5888
228807 Par ch=9 c=1 v=1
228812 Pb ch=9 v=5248
228847 Pb ch=9 v=4736
228855 On ch=9 n=50 v=73
228867 Par ch=9 c=1 v=0
228870 Pb ch=9 v=4480
228920 Pb ch=9 v=4736
228942 Pb ch=9 v=4864
228957 Pb ch=9 v=4992
228975 Pb ch=9 v=5248
228990 Pb ch=9 v=5504
229017 Pb ch=9 v=5632
229025 Pb ch=9 v=5888
229042 Pb ch=9 v=6144
229065 Pb ch=9 v=6528
229090 Pb ch=9 v=6656
229095 Pb ch=9 v=6784
229117 Pb ch=9 v=7040
229140 Pb ch=9 v=7168
229147 Pb ch=9 v=7296
229165 Pb ch=9 v=7552
229187 Pb ch=9 v=7680
229207 Pb ch=9 v=7808
229227 Pb ch=9 v=7936
229230 Par ch=9 c=1 v=1
229245 Pb ch=9 v=8192
229315 Par ch=9 c=1 v=2
229335 Par ch=9 c=1 v=3
229350 Par ch=9 c=1 v=5
229377 Par ch=9 c=1 v=7
229400 Par ch=9 c=1 v=9
229422 Par ch=9 c=1 v=10
229432 Par ch=9 c=1 v=13
229455 Par ch=9 c=1 v=16
229480 Par ch=9 c=1 v=18
229515 Par ch=9 c=1 v=21
229525 Par ch=9 c=1 v=23
229547 Par ch=9 c=1 v=27
229575 Par ch=9 c=1 v=30
229600 Par ch=9 c=1 v=31
229612 Par ch=9 c=1 v=33
229642 Par ch=9 c=1 v=34
229680 Par ch=9 c=1 v=35
229725 Par ch=9 c=1 v=34
229752 Par ch=9 c=1 v=33
229772 Par ch=9 c=1 v=30
229802 Par ch=9 c=1 v=29
229815 Par ch=9 c=1 v=23
229842 Par ch=9 c=1 v=19
229845 Off ch=9 n=50 v=64
229865 Par ch=9 c=1 v=17
229865 On ch=9 n=48 v=64
229885 Par ch=9 c=1 v=12
229910 Par ch=9 c=1 v=9
229927 Par ch=9 c=1 v=5
229952 Par ch=9 c=1 v=1
230050 Par ch=9 c=1 v=0
230322 Off ch=9 n=48 v=64
230340 On ch=9 n=47 v=73
230965 Par ch=9 c=1 v=1
231095 Par ch=9 c=1 v=2
231120 Par ch=9 c=1 v=4
231142 Par ch=9 c=1 v=6
231175 Par ch=9 c=1 v=7
231197 Par ch=9 c=1 v=8
231220 Par ch=9 c=1 v=9
231235 Par ch=9 c=1 v=11
231260 Par ch=9 c=1 v=13
231285 Par ch=9 c=1 v=14
231300 Par ch=9 c=1 v=16
231322 Par ch=9 c=1 v=18
231352 Par ch=9 c=1 v=19
231375 Par ch=9 c=1 v=20
231392 Par ch=9 c=1 v=22
231420 Par ch=9 c=1 v=23
231435 Par ch=9 c=1 v=25
231462 Par ch=9 c=1 v=27
231495 Par ch=9 c=1 v=28
231510 Par ch=9 c=1 v=29
231527 Par ch=9 c=1 v=31
231562 Par ch=9 c=1 v=32
231572 Par ch=9 c=1 v=34
231602 Par ch=9 c=1 v=35
231635 Par ch=9 c=1 v=36
231790 Par ch=9 c=1 v=35
231807 Par ch=9 c=1 v=34
231832 Par ch=9 c=1 v=33
231842 Par ch=9 c=1 v=29
231870 Par ch=9 c=1 v=25
231885 Off ch=9 n=47 v=64
231885 Par ch=9 c=1 v=20
231912 Par ch=9 c=1 v=14
231930 Par ch=9 c=1 v=4
231957 Par ch=9 c=1 v=1
231987 Par ch=9 c=1 v=0
232100 Pb ch=9 v=7808
232107 Pb ch=9 v=6912
232122 Pb ch=9 v=6016
232140 Pb ch=9 v=5376
232155 Pb ch=9 v=4864
232172 Pb ch=9 v=4352
232190 Pb ch=9 v=4224
232207 Pb ch=9 v=4096
232227 On ch=9 n=43 v=78
232305 Pb ch=9 v=4224
232312 Pb ch=9 v=4352
232330 Pb ch=9 v=4736
232347 Pb ch=9 v=5120
232365 Pb ch=9 v=5376
232387 Pb ch=9 v=5632
232400 Pb ch=9 v=6016
232425 Pb ch=9 v=6400
232437 Pb ch=9 v=6528
232452 Pb ch=9 v=7168
232475 Pb ch=9 v=7552
232490 Pb ch=9 v=8064
232742 On ch=9 n=47 v=64
232752 Off ch=9 n=43 v=64
233165 Off ch=9 n=47 v=64
233175 On ch=9 n=50 v=64
233502 Par ch=9 c=1 v=1
233550 Par ch=9 c=1 v=4
233572 Pb ch=9 v=6784
233580 Par ch=9 c=1 v=9
233597 Pb ch=9 v=6400
233602 Par ch=9 c=1 v=10
233607 Pb ch=9 v=5504
233620 Par ch=9 c=1 v=13
233635 Pb ch=9 v=4864
233645 Par ch=9 c=1 v=14
233645 Pb ch=9 v=4480
233652 Off ch=9 n=50 v=64
233662 Par ch=9 c=1 v=15
233662 Pb ch=9 v=4352
233682 On ch=9 n=47 v=64
233687 Pb ch=9 v=4096
233722 Par ch=9 c=1 v=14
233740 Par ch=9 c=1 v=12
233762 Par ch=9 c=1 v=11
233762 Pb ch=9 v=4096
233772 Pb ch=9 v=4224
233775 Par ch=9 c=1 v=8
233787 Pb ch=9 v=4608
233802 Pb ch=9 v=4864
233805 Par ch=9 c=1 v=4
233820 Par ch=9 c=1 v=1
233822 Pb ch=9 v=5120
233835 Pb ch=9 v=5504
233857 Pb ch=9 v=5632
233875 Pb ch=9 v=6272
233887 Pb ch=9 v=6912
233905 Par ch=9 c=1 v=0
233905 Pb ch=9 v=7040
233922 Pb ch=9 v=7808
233942 Pb ch=9 v=7936
233947 Pb ch=9 v=8192
234177 Off ch=9 n=47 v=64
234182 On ch=9 n=50 v=64
234612 Off ch=9 n=50 v=64
234635 On ch=9 n=53 v=73
235115 Off ch=9 n=53 v=64
235137 On ch=9 n=55 v=69
235555 Off ch=9 n=55 v=64
235587 On ch=9 n=56 v=69
235987 Pb ch=9 v=7552
236005 Pb ch=9 v=6016
236030 Pb ch=9 v=5376
236047 Pb ch=9 v=4736
236062 Pb ch=9 v=4096
236080 Pb ch=9 v=3840
236082 Off ch=9 n=56 v=64
236095 Pb ch=9 v=3072
236100 On ch=9 n=54 v=64
236110 Pb ch=9 v=2688
236132 Pb ch=9 v=2304
236147 Pb ch=9 v=2176
236180 Pb ch=9 v=2432
236207 Pb ch=9 v=2560
236217 Pb ch=9 v=3072
236242 Pb ch=9 v=3328
236255 Pb ch=9 v=3456
236267 Pb ch=9 v=3840
236290 Pb ch=9 v=3968
236302 Pb ch=9 v=4352
236335 Pb ch=9 v=4480
236352 Pb ch=9 v=4608
236375 Pb ch=9 v=4736
236392 Pb ch=9 v=4864
236415 Pb ch=9 v=4992
236432 Pb ch=9 v=5120
236452 Pb ch=9 v=5248
236467 Pb ch=9 v=5376
236480 Pb ch=9 v=5504
236505 Pb ch=9 v=5632
236510 Par ch=9 c=1 v=1
236522 Pb ch=9 v=5760
236535 Pb ch=9 v=5888
236550 Pb ch=9 v=6144
236577 Pb ch=9 v=6272
236595 Pb ch=9 v=6400
236612 Par ch=9 c=1 v=2
236620 Pb ch=9 v=6528
236635 Par ch=9 c=1 v=4
236635 Pb ch=9 v=6656
236655 Pb ch=9 v=6784
236672 Par ch=9 c=1 v=6
236677 Par ch=9 c=1 v=8
236677 Pb ch=9 v=6912
236692 Pb ch=9 v=7040
236712 Par ch=9 c=1 v=9
236715 Pb ch=9 v=7168
236730 Par ch=9 c=1 v=10
236732 Pb ch=9 v=7296
236750 Par ch=9 c=1 v=11
236752 Pb ch=9 v=7424
236770 Par ch=9 c=1 v=13
236782 Pb ch=9 v=7552
236797 Pb ch=9 v=7680
236802 Par ch=9 c=1 v=15
236812 Pb ch=9 v=7808
236825 Par ch=9 c=1 v=16
236835 Pb ch=9 v=7936
236840 Par ch=9 c=1 v=18
236855 Pb ch=9 v=8192
236872 Par ch=9 c=1 v=19
236885 Par ch=9 c=1 v=20
236907 Par ch=9 c=1 v=21
236932 Par ch=9 c=1 v=23
236967 Par ch=9 c=1 v=24
236987 Par ch=9 c=1 v=26
237000 Par ch=9 c=1 v=27
237022 Par ch=9 c=1 v=28
237037 Par ch=9 c=1 v=30
237070 Par ch=9 c=1 v=31
237085 Par ch=9 c=1 v=32
237122 Par ch=9 c=1 v=33
237212 Par ch=9 c=1 v=32
237232 Par ch=9 c=1 v=31
237247 Par ch=9 c=1 v=30
237262 Par ch=9 c=1 v=28
237295 Par ch=9 c=1 v=24
237315 Par ch=9 c=1 v=23
237330 Par ch=9 c=1 v=21
237355 Par ch=9 c=1 v=18
237377 Par ch=9 c=1 v=16
237400 Par ch=9 c=1 v=13
237427 Par ch=9 c=1 v=9
237457 Par ch=9 c=1 v=8
237475 Par ch=9 c=1 v=4
237487 Par ch=9 c=1 v=1
237552 Off ch=9 n=54 v=64
237560 On ch=9 n=55 v=64
237582 Par ch=9 c=1 v=0
237942 Par ch=9 c=1 v=1
238022 Par ch=9 c=1 v=2
238027 Par ch=9 c=1 v=4
238052 Par ch=9 c=1 v=8
238087 Par ch=9 c=1 v=10
238107 Par ch=9 c=1 v=12
238122 Par ch=9 c=1 v=14
238150 Par ch=9 c=1 v=16
238167 Par ch=9 c=1 v=18
238190 Par ch=9 c=1 v=20
238212 Par ch=9 c=1 v=22
238237 Par ch=9 c=1 v=23
238252 Par ch=9 c=1 v=27
238280 Par ch=9 c=1 v=29
238315 Par ch=9 c=1 v=31
238325 Par ch=9 c=1 v=33
238350 Par ch=9 c=1 v=35
238365 Par ch=9 c=1 v=38
238400 Par ch=9 c=1 v=40
238425 Par ch=9 c=1 v=41
238450 Par ch=9 c=1 v=42
238467 Par ch=9 c=1 v=43
238495 Par ch=9 c=1 v=44
238522 Par ch=9 c=1 v=45
238610 Par ch=9 c=1 v=44
238635 Par ch=9 c=1 v=40
238662 Par ch=9 c=1 v=34
238690 Par ch=9 c=1 v=30
238705 Par ch=9 c=1 v=21
238727 Par ch=9 c=1 v=11
238752 Off ch=9 n=55 v=64
238757 Par ch=9 c=1 v=7
238772 Par ch=9 c=1 v=0
238965 On ch=9 n=63 v=46
239012 On ch=9 n=55 v=49
239027 On ch=9 n=67 v=69
240407 On ch=9 n=53 v=60
240410 On ch=9 n=62 v=52
240417 Off ch=9 n=67 v=64
240435 On ch=9 n=65 v=66
240437 Off ch=9 n=55 v=64
240517 Off ch=9 n=63 v=64
241370 Off ch=9 n=53 v=64
241380 On ch=9 n=60 v=56
241402 On ch=9 n=51 v=48
241425 On ch=9 n=63 v=61
241435 Off ch=9 n=62 v=64
241435 Off ch=9 n=65 v=64
241865 On ch=9 n=58 v=48
241897 Off ch=9 n=60 v=64
241907 On ch=9 n=62 v=64
241917 Off ch=9 n=63 v=64
241917 On ch=9 n=50 v=56
241925 Off ch=9 n=51 v=64
242855 On ch=9 n=60 v=64
242865 On ch=9 n=56 v=48
242875 Off ch=9 n=62 v=64
242887 Off ch=9 n=50 v=64
242887 On ch=9 n=48 v=56
242912 Off ch=9 n=58 v=64
243302 Off ch=9 n=56 v=64
243312 Off ch=9 n=60 v=64
243317 On ch=9 n=53 v=64
243332 On ch=9 n=56 v=61
243362 On ch=9 n=44 v=48
243392 Off ch=9 n=48 v=64
244355 Off ch=9 n=44 v=64
244500 Off ch=9 n=53 v=64
244605 Off ch=9 n=56 v=64
244757 On ch=9 n=65 v=68
244757 On ch=9 n=62 v=56
244802 On ch=9 n=53 v=52
246127 On ch=9 n=51 v=52
246140 Off ch=9 n=53 v=64
246140 Off ch=9 n=65 v=64
246150 On ch=9 n=63 v=60
246195 On ch=9 n=60 v=56
246210 Off ch=9 n=62 v=64
247077 Off ch=9 n=63 v=64
247127 On ch=9 n=62 v=64
247150 Off ch=9 n=51 v=64
247152 Off ch=9 n=60 v=64
247152 On ch=9 n=58 v=48
247162 On ch=9 n=50 v=52
247580 Off ch=9 n=50 v=64
247592 Off ch=9 n=62 v=64
247592 Off ch=9 n=58 v=64
247607 On ch=9 n=63 v=64
247650 On ch=9 n=58 v=56
247652 On ch=9 n=51 v=52
249035 Off ch=9 n=51 v=64
249120 Off ch=9 n=58 v=64
249122 Off ch=9 n=63 v=64
265410 On ch=9 n=48 v=64
265427 On ch=9 n=55 v=60
265555 Off ch=9 n=55 v=64
265570 Off ch=9 n=48 v=64
265897 On ch=9 n=48 v=64
265912 On ch=9 n=55 v=64
266067 Off ch=9 n=48 v=64
266072 Off ch=9 n=55 v=64
266375 On ch=9 n=43 v=72
266387 On ch=9 n=43 v=80
266860 On ch=9 n=55 v=83
267327 On ch=9 n=53 v=82
267385 Off ch=9 n=55 v=64
267792 On ch=9 n=48 v=64
267805 Off ch=9 n=43 v=64
267827 Off ch=9 n=43 v=64
267827 Off ch=9 n=53 v=64
267970 Off ch=9 n=48 v=64
268302 On ch=9 n=62 v=38
268305 On ch=9 n=55 v=63
268435 Off ch=9 n=55 v=64
268435 Off ch=9 n=62 v=64
268777 On ch=9 n=62 v=46
268780 On ch=9 n=55 v=63
268900 Off ch=9 n=62 v=64
268915 Off ch=9 n=55 v=64
269232 On ch=9 n=43 v=64
269395 Off ch=9 n=43 v=64
269745 On ch=9 n=62 v=46
269745 On ch=9 n=55 v=63
269870 Off ch=9 n=62 v=64
269875 Off ch=9 n=55 v=64
270232 On ch=9 n=62 v=46
270237 On ch=9 n=55 v=63
270370 Off ch=9 n=62 v=64
270382 Off ch=9 n=55 v=64
270672 On ch=9 n=48 v=64
270835 Off ch=9 n=48 v=64
271155 On ch=9 n=62 v=46
271157 On ch=9 n=55 v=63
271302 Off ch=9 n=62 v=64
271307 Off ch=9 n=55 v=64
271665 On ch=9 n=62 v=42
271667 On ch=9 n=55 v=63
271792 Off ch=9 n=62 v=64
271810 Off ch=9 n=55 v=64
272112 On ch=9 n=43 v=64
272272 Off ch=9 n=43 v=64
272607 On ch=9 n=55 v=63
272610 On ch=9 n=62 v=45
272740 Off ch=9 n=62 v=64
272742 Off ch=9 n=55 v=64
273105 On ch=9 n=62 v=46
273105 On ch=9 n=55 v=63
273247 Off ch=9 n=55 v=64
273252 Off ch=9 n=62 v=64
273552 On ch=9 n=48 v=64
273715 Off ch=9 n=48 v=64
274062 On ch=9 n=62 v=38
274065 On ch=9 n=55 v=63
274195 Off ch=9 n=55 v=64
274195 Off ch=9 n=62 v=64
274537 On ch=9 n=62 v=46
274540 On ch=9 n=55 v=63
274660 Off ch=9 n=62 v=64
274675 Off ch=9 n=55 v=64
274992 On ch=9 n=43 v=64
275152 Off ch=9 n=43 v=64
275505 On ch=9 n=62 v=46
275505 On ch=9 n=55 v=63
275630 Off ch=9 n=62 v=64
275635 Off ch=9 n=55 v=64
275992 On ch=9 n=62 v=46
275997 On ch=9 n=55 v=63
276130 Off ch=9 n=62 v=64
276142 Off ch=9 n=55 v=64
276432 On ch=9 n=50 v=64
276595 Off ch=9 n=50 v=64
276915 On ch=9 n=62 v=46
276917 On ch=9 n=55 v=63
277062 Off ch=9 n=62 v=64
277067 Off ch=9 n=55 v=64
277425 On ch=9 n=62 v=42
277427 On ch=9 n=55 v=63
277552 Off ch=9 n=62 v=64
277570 Off ch=9 n=55 v=64
277872 On ch=9 n=43 v=64
278032 Off ch=9 n=43 v=64
278367 On ch=9 n=55 v=63
278370 On ch=9 n=62 v=45
278500 Off ch=9 n=62 v=64
278502 Off ch=9 n=55 v=64
278865 On ch=9 n=62 v=46
278865 On ch=9 n=55 v=63
279007 Off ch=9 n=55 v=64
279012 Off ch=9 n=62 v=64
279312 On ch=9 n=50 v=64
279475 Off ch=9 n=50 v=64
279822 On ch=9 n=62 v=38
279825 On ch=9 n=55 v=63
279955 Off ch=9 n=55 v=64
279955 Off ch=9 n=62 v=64
280297 On ch=9 n=62 v=46
280300 On ch=9 n=55 v=63
280420 Off ch=9 n=62 v=64
280435 Off ch=9 n=55 v=64
280752 On ch=9 n=43 v=64
280912 Off ch=9 n=43 v=64
281265 On ch=9 n=62 v=46
281265 On ch=9 n=55 v=63
281390 Off ch=9 n=62 v=64
281395 Off ch=9 n=55 v=64
281752 On ch=9 n=62 v=46
281757 On ch=9 n=55 v=63
281890 Off ch=9 n=62 v=64
281902 Off ch=9 n=55 v=64
282192 On ch=9 n=50 v=64
282355 Off ch=9 n=50 v=64
282675 On ch=9 n=62 v=46
282677 On ch=9 n=55 v=63
282822 Off ch=9 n=62 v=64
282827 Off ch=9 n=55 v=64
283185 On ch=9 n=62 v=42
283187 On ch=9 n=55 v=63
283312 Off ch=9 n=62 v=64
283330 Off ch=9 n=55 v=64
283632 On ch=9 n=43 v=64
283792 Off ch=9 n=43 v=64
284127 On ch=9 n=55 v=63
284130 On ch=9 n=62 v=45
284260 Off ch=9 n=62 v=64
284262 Off ch=9 n=55 v=64
284625 On ch=9 n=62 v=46
284625 On ch=9 n=55 v=63
284767 Off ch=9 n=55 v=64
284772 Off ch=9 n=62 v=64
285072 On ch=9 n=50 v=64
285235 Off ch=9 n=50 v=64
285582 On ch=9 n=62 v=38
285585 On ch=9 n=55 v=63
285715 Off ch=9 n=55 v=64
285715 Off ch=9 n=62 v=64
286057 On ch=9 n=62 v=46
286060 On ch=9 n=55 v=63
286180 Off ch=9 n=62 v=64
286195 Off ch=9 n=55 v=64
286512 On ch=9 n=43 v=64
286672 Off ch=9 n=43 v=64
287025 On ch=9 n=62 v=46
287025 On ch=9 n=55 v=63
287150 Off ch=9 n=62 v=64
287155 Off ch=9 n=55 v=64
287512 On ch=9 n=62 v=46
287517 On ch=9 n=55 v=63
287650 Off ch=9 n=62 v=64
287662 Off ch=9 n=55 v=64
287952 On ch=9 n=48 v=64
288115 Off ch=9 n=48 v=64
288435 On ch=9 n=62 v=46
288437 On ch=9 n=55 v=63
288582 Off ch=9 n=62 v=64
288587 Off ch=9 n=55 v=64
288945 On ch=9 n=62 v=42
288947 On ch=9 n=55 v=63
289072 Off ch=9 n=62 v=64
289090 Off ch=9 n=55 v=64
289392 On ch=9 n=43 v=64
289552 Off ch=9 n=43 v=64
289887 On ch=9 n=55 v=63
289890 On ch=9 n=62 v=45
290020 Off ch=9 n=62 v=64
290022 Off ch=9 n=55 v=64
290385 On ch=9 n=62 v=46
290385 On ch=9 n=55 v=63
290527 Off ch=9 n=55 v=64
290532 Off ch=9 n=62 v=64
290832 On ch=9 n=48 v=64
290995 Off ch=9 n=48 v=64
291342 On ch=9 n=62 v=38
291345 On ch=9 n=55 v=63
291475 Off ch=9 n=55 v=64
291475 Off ch=9 n=62 v=64
291817 On ch=9 n=62 v=46
291820 On ch=9 n=55 v=63
291940 Off ch=9 n=62 v=64
291955 Off ch=9 n=55 v=64
292272 On ch=9 n=48 v=64
292432 Off ch=9 n=48 v=64
292785 On ch=9 n=62 v=46
292785 On ch=9 n=55 v=63
292910 Off ch=9 n=62 v=64
292915 Off ch=9 n=55 v=64
293272 On ch=9 n=62 v=46
293277 On ch=9 n=55 v=63
293410 Off ch=9 n=62 v=64
293422 Off ch=9 n=55 v=64
293712 On ch=9 n=41 v=64
293875 Off ch=9 n=41 v=64
294195 On ch=9 n=62 v=46
294197 On ch=9 n=56 v=63
294342 Off ch=9 n=62 v=64
294347 Off ch=9 n=56 v=64
294705 On ch=9 n=62 v=42
294707 On ch=9 n=56 v=63
294832 Off ch=9 n=62 v=64
294850 Off ch=9 n=56 v=64
295152 On ch=9 n=41 v=64
295315 Off ch=9 n=41 v=64
295647 On ch=9 n=56 v=63
295650 On ch=9 n=62 v=45
295780 Off ch=9 n=62 v=64
295782 Off ch=9 n=56 v=64
296145 On ch=9 n=62 v=46
296145 On ch=9 n=56 v=63
296287 Off ch=9 n=56 v=64
296292 Off ch=9 n=62 v=64
296592 On ch=9 n=46 v=64
296752 Off ch=9 n=46 v=64
297102 On ch=9 n=58 v=38
297105 On ch=9 n=53 v=63
297235 Off ch=9 n=53 v=64
297235 Off ch=9 n=58 v=64
297577 On ch=9 n=58 v=46
297580 On ch=9 n=53 v=63
297700 Off ch=9 n=58 v=64
297715 Off ch=9 n=53 v=64
298032 On ch=9 n=46 v=64
298195 Off ch=9 n=46 v=64
298545 On ch=9 n=58 v=46
298545 On ch=9 n=53 v=63
298670 Off ch=9 n=58 v=64
298675 Off ch=9 n=53 v=64
299032 On ch=9 n=58 v=46
299037 On ch=9 n=53 v=63
299170 Off ch=9 n=58 v=64
299182 Off ch=9 n=53 v=64
299472 On ch=9 n=51 v=64
299632 Off ch=9 n=51 v=64
299955 On ch=9 n=58 v=46
299957 On ch=9 n=55 v=63
300102 Off ch=9 n=58 v=64
300107 Off ch=9 n=55 v=64
300465 On ch=9 n=58 v=42
300467 On ch=9 n=55 v=63
300592 Off ch=9 n=58 v=64
300610 Off ch=9 n=55 v=64
316782 On ch=9 n=48 v=90
316960 Off ch=9 n=48 v=64
317722 On ch=9 n=55 v=82
317725 On ch=9 n=50 v=82
317797 On ch=9 n=43 v=104
317870 Off ch=9 n=50 v=64
317922 Off ch=9 n=55 v=64
317962 Off ch=9 n=43 v=64
318225 On ch=9 n=55 v=91
318235 On ch=9 n=60 v=99
318272 On ch=9 n=48 v=107
318432 Off ch=9 n=60 v=64
318440 Off ch=9 n=55 v=64
318465 Off ch=9 n=48 v=64
318465 Meta TrkEnd
TrkEnd
MTrk
0 Meta TrkName "Tuba      "
0 Meta 0x21 00
0 Meta 0x20 0a
0 Par ch=11 c=10 v=64
43167 On ch=11 n=44 v=75
43342 Off ch=11 n=44 v=64
44580 On ch=11 n=43 v=66
44772 Off ch=11 n=43 v=64
46015 On ch=11 n=44 v=66
46180 Off ch=11 n=44 v=64
47445 On ch=11 n=43 v=72
47610 Off ch=11 n=43 v=64
48895 On ch=11 n=44 v=72
49060 Off ch=11 n=44 v=64
50340 On ch=11 n=43 v=66
50532 Off ch=11 n=43 v=64
51775 On ch=11 n=44 v=66
51940 Off ch=11 n=44 v=64
53205 On ch=11 n=43 v=72
53370 Off ch=11 n=43 v=64
54655 On ch=11 n=44 v=72
54820 Off ch=11 n=44 v=64
56100 On ch=11 n=43 v=66
56292 Off ch=11 n=43 v=64
57535 On ch=11 n=43 v=66
57700 Off ch=11 n=43 v=64
58965 On ch=11 n=48 v=72
59130 Off ch=11 n=48 v=64
97887 On ch=11 n=44 v=75
98062 Off ch=11 n=44 v=64
99300 On ch=11 n=43 v=66
99492 Off ch=11 n=43 v=64
100735 On ch=11 n=44 v=66
100900 Off ch=11 n=44 v=64
102165 On ch=11 n=43 v=72
102330 Off ch=11 n=43 v=64
103615 On ch=11 n=44 v=72
103780 Off ch=11 n=44 v=64
105060 On ch=11 n=43 v=66
105252 Off ch=11 n=43 v=64
106495 On ch=11 n=44 v=66
106660 Off ch=11 n=44 v=64
107925 On ch=11 n=43 v=72
108090 Off ch=11 n=43 v=64
109375 On ch=11 n=44 v=72
109540 Off ch=11 n=44 v=64
110820 On ch=11 n=43 v=66
111012 Off ch=11 n=43 v=64
112255 On ch=11 n=43 v=66
112420 Off ch=11 n=43 v=64
113685 On ch=11 n=48 v=84
113850 Off ch=11 n=48 v=64
114197 On ch=11 n=43 v=84
114375 Off ch=11 n=43 v=64
114672 On ch=11 n=39 v=82
114845 Off ch=11 n=39 v=64
115162 On ch=11 n=36 v=82
115395 Off ch=11 n=36 v=64
116115 On ch=11 n=34 v=91
116510 Off ch=11 n=34 v=64
116595 On ch=11 n=39 v=91
116985 Off ch=11 n=39 v=64
118035 On ch=11 n=34 v=91
118425 Off ch=11 n=34 v=64
119475 On ch=11 n=39 v=91
119865 Off ch=11 n=39 v=64
120915 On ch=11 n=34 v=91
121305 Off ch=11 n=34 v=64
122355 On ch=11 n=41 v=91
122745 Off ch=11 n=41 v=64
123795 On ch=11 n=34 v=91
124185 Off ch=11 n=34 v=64
125235 On ch=11 n=39 v=91
125625 Off ch=11 n=39 v=64
126675 On ch=11 n=34 v=91
127065 Off ch=11 n=34 v=64
128107 On ch=11 n=36 v=91
128497 Off ch=11 n=36 v=64
129547 On ch=11 n=36 v=91
129937 Off ch=11 n=36 v=64
130987 On ch=11 n=41 v=91
131377 Off ch=11 n=41 v=64
132427 On ch=11 n=32 v=91
132817 Off ch=11 n=32 v=64
133867 On ch=11 n=39 v=91
134257 Off ch=11 n=39 v=64
135307 On ch=11 n=34 v=91
135697 Off ch=11 n=34 v=64
136747 On ch=11 n=39 v=91
137137 Off ch=11 n=39 v=64
138187 On ch=11 n=34 v=91
139452 Off ch=11 n=34 v=64
139627 On ch=11 n=39 v=91
140220 Off ch=11 n=39 v=64
141067 On ch=11 n=34 v=91
141457 Off ch=11 n=34 v=64
142507 On ch=11 n=39 v=91
142897 Off ch=11 n=39 v=64
143947 On ch=11 n=34 v=91
144337 Off ch=11 n=34 v=64
145387 On ch=11 n=41 v=91
145777 Off ch=11 n=41 v=64
146827 On ch=11 n=34 v=91
147217 Off ch=11 n=34 v=64
148267 On ch=11 n=39 v=91
148657 Off ch=11 n=39 v=64
149707 On ch=11 n=34 v=91
150097 Off ch=11 n=34 v=64
151140 On ch=11 n=39 v=91
151530 Off ch=11 n=39 v=64
152580 On ch=11 n=37 v=91
152970 Off ch=11 n=37 v=64
154020 On ch=11 n=36 v=91
154410 Off ch=11 n=36 v=64
155460 On ch=11 n=35 v=91
155850 Off ch=11 n=35 v=64
156900 On ch=11 n=34 v=91
157290 Off ch=11 n=34 v=64
158340 On ch=11 n=34 v=91
158730 Off ch=11 n=34 v=64
159780 On ch=11 n=39 v=91
160820 Off ch=11 n=39 v=64
161220 On ch=11 n=39 v=91
162485 Off ch=11 n=39 v=64
162667 On ch=11 n=32 v=91
163057 Off ch=11 n=32 v=64
164107 On ch=11 n=39 v=91
164497 Off ch=11 n=39 v=64
165547 On ch=11 n=32 v=91
165937 Off ch=11 n=32 v=64
166987 On ch=11 n=39 v=91
167377 Off ch=11 n=39 v=64
168427 On ch=11 n=34 v=91
168817 Off ch=11 n=34 v=64
169867 On ch=11 n=39 v=91
170257 Off ch=11 n=39 v=64
171307 On ch=11 n=34 v=91
171697 Off ch=11 n=34 v=64
172747 On ch=11 n=39 v=91
173137 Off ch=11 n=39 v=64
174180 On ch=11 n=32 v=91
174570 Off ch=11 n=32 v=64
175620 On ch=11 n=39 v=91
176010 Off ch=11 n=39 v=64
177060 On ch=11 n=32 v=91
177450 Off ch=11 n=32 v=64
178500 On ch=11 n=39 v=91
178890 Off ch=11 n=39 v=64
179940 On ch=11 n=37 v=91
180330 Off ch=11 n=37 v=64
181380 On ch=11 n=36 v=91
181770 Off ch=11 n=36 v=64
182820 On ch=11 n=34 v=91
183210 Off ch=11 n=34 v=64
184260 On ch=11 n=39 v=91
185525 Off ch=11 n=39 v=64
185707 On ch=11 n=32 v=91
186097 Off ch=11 n=32 v=64
187147 On ch=11 n=39 v=91
187537 Off ch=11 n=39 v=64
188587 On ch=11 n=32 v=91
188977 Off ch=11 n=32 v=64
190027 On ch=11 n=39 v=91
190417 Off ch=11 n=39 v=64
191467 On ch=11 n=34 v=91
191857 Off ch=11 n=34 v=64
192907 On ch=11 n=39 v=91
193297 Off ch=11 n=39 v=64
194347 On ch=11 n=34 v=91
194737 Off ch=11 n=34 v=64
195787 On ch=11 n=39 v=91
196177 Off ch=11 n=39 v=64
197220 On ch=11 n=32 v=91
197610 Off ch=11 n=32 v=64
198660 On ch=11 n=39 v=91
199050 Off ch=11 n=39 v=64
200100 On ch=11 n=32 v=91
200490 Off ch=11 n=32 v=64
201540 On ch=11 n=39 v=91
201930 Off ch=11 n=39 v=64
202980 On ch=11 n=37 v=91
203995 Off ch=11 n=37 v=64
204420 On ch=11 n=36 v=91
205460 Off ch=11 n=36 v=64
205860 On ch=11 n=34 v=91
206900 Off ch=11 n=34 v=64
207300 On ch=11 n=39 v=98
208565 Off ch=11 n=39 v=64
208740 On ch=11 n=31 v=116
210230 Off ch=11 n=31 v=64
266380 On ch=11 n=43 v=96
267787 On ch=11 n=36 v=91
267822 Off ch=11 n=43 v=64
268177 Off ch=11 n=36 v=64
269227 On ch=11 n=31 v=91
269617 Off ch=11 n=31 v=64
270667 On ch=11 n=36 v=91
271057 Off ch=11 n=36 v=64
272107 On ch=11 n=31 v=91
272497 Off ch=11 n=31 v=64
273547 On ch=11 n=36 v=91
273937 Off ch=11 n=36 v=64
274987 On ch=11 n=31 v=91
275377 Off ch=11 n=31 v=64
276427 On ch=11 n=38 v=91
276817 Off ch=11 n=38 v=64
277867 On ch=11 n=31 v=91
278257 Off ch=11 n=31 v=64
279300 On ch=11 n=38 v=91
279690 Off ch=11 n=38 v=64
280740 On ch=11 n=31 v=91
281130 Off ch=11 n=31 v=64
282180 On ch=11 n=38 v=91
282570 Off ch=11 n=38 v=64
283620 On ch=11 n=31 v=91
284010 Off ch=11 n=31 v=64
285060 On ch=11 n=38 v=91
285450 Off ch=11 n=38 v=64
286500 On ch=11 n=31 v=91
286890 Off ch=11 n=31 v=64
287940 On ch=11 n=36 v=91
288330 Off ch=11 n=36 v=64
289380 On ch=11 n=31 v=91
289770 Off ch=11 n=31 v=64
290820 On ch=11 n=36 v=91
291210 Off ch=11 n=36 v=64
292260 On ch=11 n=36 v=91
292650 Off ch=11 n=36 v=64
293700 On ch=11 n=41 v=91
294090 Off ch=11 n=41 v=64
295140 On ch=11 n=41 v=91
295530 Off ch=11 n=41 v=64
296580 On ch=11 n=34 v=91
296970 Off ch=11 n=34 v=64
298020 On ch=11 n=34 v=91
298410 Off ch=11 n=34 v=64
299460 On ch=11 n=39 v=91
299850 Off ch=11 n=39 v=64
300927 On ch=11 n=44 v=75
301102 Off ch=11 n=44 v=64
302340 On ch=11 n=43 v=66
302532 Off ch=11 n=43 v=64
303775 On ch=11 n=44 v=66
303940 Off ch=11 n=44 v=64
305205 On ch=11 n=43 v=72
305370 Off ch=11 n=43 v=64
306655 On ch=11 n=44 v=72
306820 Off ch=11 n=44 v=64
308100 On ch=11 n=43 v=66
308292 Off ch=11 n=43 v=64
309535 On ch=11 n=44 v=66
309700 Off ch=11 n=44 v=64
310965 On ch=11 n=43 v=72
311130 Off ch=11 n=43 v=64
312415 On ch=11 n=44 v=72
312580 Off ch=11 n=44 v=64
313860 On ch=11 n=43 v=66
314052 Off ch=11 n=43 v=64
315295 On ch=11 n=43 v=66
315460 Off ch=11 n=43 v=64
316725 On ch=11 n=48 v=84
316890 Off ch=11 n=48 v=64
317707 On ch=11 n=43 v=99
317882 Off ch=11 n=43 v=64
318190 On ch=11 n=36 v=99
318407 Off ch=11 n=36 v=64
318407 Meta TrkEnd
TrkEnd
MTrk
0 Meta TrkName "Harp      "
0 Meta 0x21 00
0 Meta 0x20 0b
0 Par ch=12 c=10 v=64
43642 On ch=12 n=75 v=56
43657 On ch=12 n=84 v=73
43662 On ch=12 n=72 v=49
43670 On ch=12 n=87 v=73
43725 Off ch=12 n=75 v=64
43737 Off ch=12 n=84 v=64
43745 Off ch=12 n=72 v=64
43760 Off ch=12 n=87 v=64
44135 On ch=12 n=77 v=56
44137 On ch=12 n=74 v=52
44142 On ch=12 n=86 v=60
44157 On ch=12 n=89 v=73
44215 Off ch=12 n=74 v=64
44237 Off ch=12 n=86 v=64
44260 Off ch=12 n=89 v=64
44267 Off ch=12 n=77 v=64
44622 On ch=12 n=79 v=40
44627 On ch=12 n=75 v=55
44627 On ch=12 n=87 v=73
44637 On ch=12 n=91 v=82
44707 Off ch=12 n=75 v=64
44710 Off ch=12 n=87 v=64
44712 Off ch=12 n=91 v=64
44727 Off ch=12 n=79 v=64
46040 On ch=12 n=77 v=40
46055 On ch=12 n=86 v=64
46062 On ch=12 n=89 v=82
46067 On ch=12 n=74 v=52
46127 Off ch=12 n=86 v=64
46137 Off ch=12 n=89 v=64
46155 Off ch=12 n=74 v=64
46180 Off ch=12 n=77 v=64
47482 On ch=12 n=84 v=69
47490 On ch=12 n=87 v=80
47502 On ch=12 n=75 v=40
47505 On ch=12 n=72 v=52
47567 Off ch=12 n=84 v=64
47590 Off ch=12 n=87 v=64
47610 Off ch=12 n=72 v=64
47655 Off ch=12 n=75 v=64
48442 On ch=12 n=79 v=40
48455 On ch=12 n=87 v=64
48462 On ch=12 n=91 v=82
48472 On ch=12 n=75 v=56
48542 Off ch=12 n=87 v=64
48552 Off ch=12 n=79 v=64
48555 Off ch=12 n=91 v=64
48560 Off ch=12 n=75 v=64
49402 On ch=12 n=75 v=56
49417 On ch=12 n=84 v=73
49422 On ch=12 n=72 v=49
49430 On ch=12 n=87 v=73
49485 Off ch=12 n=75 v=64
49497 Off ch=12 n=84 v=64
49505 Off ch=12 n=72 v=64
49520 Off ch=12 n=87 v=64
49895 On ch=12 n=77 v=56
49897 On ch=12 n=74 v=52
49902 On ch=12 n=86 v=60
49917 On ch=12 n=89 v=73
49975 Off ch=12 n=74 v=64
49997 Off ch=12 n=86 v=64
50020 Off ch=12 n=89 v=64
50027 Off ch=12 n=77 v=64
50382 On ch=12 n=79 v=40
50387 On ch=12 n=75 v=55
50387 On ch=12 n=87 v=73
50397 On ch=12 n=91 v=82
50467 Off ch=12 n=75 v=64
50470 Off ch=12 n=87 v=64
50472 Off ch=12 n=91 v=64
50487 Off ch=12 n=79 v=64
51800 On ch=12 n=77 v=40
51815 On ch=12 n=86 v=64
51822 On ch=12 n=89 v=82
51827 On ch=12 n=74 v=52
51887 Off ch=12 n=86 v=64
51897 Off ch=12 n=89 v=64
51915 Off ch=12 n=74 v=64
51940 Off ch=12 n=77 v=64
53242 On ch=12 n=84 v=69
53250 On ch=12 n=87 v=80
53262 On ch=12 n=75 v=40
53265 On ch=12 n=72 v=52
53327 Off ch=12 n=84 v=64
53350 Off ch=12 n=87 v=64
53370 Off ch=12 n=72 v=64
53415 Off ch=12 n=75 v=64
54202 On ch=12 n=79 v=40
54215 On ch=12 n=87 v=64
54222 On ch=12 n=91 v=82
54232 On ch=12 n=75 v=56
54302 Off ch=12 n=87 v=64
54312 Off ch=12 n=79 v=64
54315 Off ch=12 n=91 v=64
54320 Off ch=12 n=75 v=64
55155 On ch=12 n=84 v=61
55162 On ch=12 n=63 v=56
55177 On ch=12 n=87 v=73
55182 On ch=12 n=72 v=49
55190 On ch=12 n=96 v=73
55245 Off ch=12 n=63 v=64
55255 Off ch=12 n=84 v=64
55257 Off ch=12 n=87 v=64
55265 Off ch=12 n=72 v=64
55280 Off ch=12 n=96 v=64
55650 On ch=12 n=86 v=64
55655 On ch=12 n=65 v=56
55657 On ch=12 n=74 v=52
55662 On ch=12 n=89 v=60
55677 On ch=12 n=98 v=73
55735 Off ch=12 n=74 v=64
55747 Off ch=12 n=86 v=64
55757 Off ch=12 n=89 v=64
55780 Off ch=12 n=98 v=64
55787 Off ch=12 n=65 v=64
56142 On ch=12 n=67 v=40
56147 On ch=12 n=75 v=55
56147 On ch=12 n=91 v=73
56152 On ch=12 n=87 v=67
56157 On ch=12 n=99 v=82
56227 Off ch=12 n=75 v=64
56230 Off ch=12 n=91 v=64
56232 Off ch=12 n=99 v=64
56245 Off ch=12 n=87 v=64
56247 Off ch=12 n=67 v=64
57560 On ch=12 n=65 v=40
57575 On ch=12 n=89 v=64
57577 On ch=12 n=86 v=64
57582 On ch=12 n=98 v=82
57587 On ch=12 n=74 v=52
57647 Off ch=12 n=89 v=64
57657 Off ch=12 n=98 v=64
57675 Off ch=12 n=74 v=64
57700 Off ch=12 n=65 v=64
57700 Off ch=12 n=86 v=64
59002 On ch=12 n=87 v=69
59010 On ch=12 n=96 v=80
59010 On ch=12 n=84 v=64
59022 On ch=12 n=63 v=40
59025 On ch=12 n=72 v=52
59087 Off ch=12 n=87 v=64
59110 Off ch=12 n=96 v=64
59110 Off ch=12 n=84 v=64
59130 Off ch=12 n=72 v=64
59175 Off ch=12 n=63 v=64
98362 On ch=12 n=75 v=56
98377 On ch=12 n=84 v=73
98382 On ch=12 n=72 v=49
98390 On ch=12 n=87 v=73
98445 Off ch=12 n=75 v=64
98457 Off ch=12 n=84 v=64
98465 Off ch=12 n=72 v=64
98480 Off ch=12 n=87 v=64
98855 On ch=12 n=77 v=56
98857 On ch=12 n=74 v=52
98862 On ch=12 n=86 v=60
98877 On ch=12 n=89 v=73
98935 Off ch=12 n=74 v=64
98957 Off ch=12 n=86 v=64
98980 Off ch=12 n=89 v=64
98987 Off ch=12 n=77 v=64
99342 On ch=12 n=79 v=40
99347 On ch=12 n=75 v=55
99347 On ch=12 n=87 v=73
99357 On ch=12 n=91 v=82
99427 Off ch=12 n=75 v=64
99430 Off ch=12 n=87 v=64
99432 Off ch=12 n=91 v=64
99447 Off ch=12 n=79 v=64
100760 On ch=12 n=77 v=40
100775 On ch=12 n=86 v=64
100782 On ch=12 n=89 v=82
100787 On ch=12 n=74 v=52
100847 Off ch=12 n=86 v=64
100857 Off ch=12 n=89 v=64
100875 Off ch=12 n=74 v=64
100900 Off ch=12 n=77 v=64
102202 On ch=12 n=84 v=69
102210 On ch=12 n=87 v=80
102222 On ch=12 n=75 v=40
102225 On ch=12 n=72 v=52
102287 Off ch=12 n=84 v=64
102310 Off ch=12 n=87 v=64
102330 Off ch=12 n=72 v=64
102375 Off ch=12 n=75 v=64
103162 On ch=12 n=79 v=40
103175 On ch=12 n=87 v=64
103182 On ch=12 n=91 v=82
103192 On ch=12 n=75 v=56
103262 Off ch=12 n=87 v=64
103272 Off ch=12 n=79 v=64
103275 Off ch=12 n=91 v=64
103280 Off ch=12 n=75 v=64
104122 On ch=12 n=75 v=56
104137 On ch=12 n=84 v=73
104142 On ch=12 n=72 v=49
104150 On ch=12 n=87 v=73
104205 Off ch=12 n=75 v=64
104217 Off ch=12 n=84 v=64
104225 Off ch=12 n=72 v=64
104240 Off ch=12 n=87 v=64
104615 On ch=12 n=77 v=56
104617 On ch=12 n=74 v=52
104622 On ch=12 n=86 v=60
104637 On ch=12 n=89 v=73
104695 Off ch=12 n=74 v=64
104717 Off ch=12 n=86 v=64
104740 Off ch=12 n=89 v=64
104747 Off ch=12 n=77 v=64
105102 On ch=12 n=79 v=40
105107 On ch=12 n=75 v=55
105107 On ch=12 n=87 v=73
105117 On ch=12 n=91 v=82
105187 Off ch=12 n=75 v=64
105190 Off ch=12 n=87 v=64
105192 Off ch=12 n=91 v=64
105207 Off ch=12 n=79 v=64
106520 On ch=12 n=77 v=40
106535 On ch=12 n=86 v=64
106542 On ch=12 n=89 v=82
106547 On ch=12 n=74 v=52
106607 Off ch=12 n=86 v=64
106617 Off ch=12 n=89 v=64
106635 Off ch=12 n=74 v=64
106660 Off ch=12 n=77 v=64
107962 On ch=12 n=84 v=69
107970 On ch=12 n=87 v=80
107982 On ch=12 n=75 v=40
107985 On ch=12 n=72 v=52
108047 Off ch=12 n=84 v=64
108070 Off ch=12 n=87 v=64
108090 Off ch=12 n=72 v=64
108135 Off ch=12 n=75 v=64
108922 On ch=12 n=79 v=40
108935 On ch=12 n=87 v=64
108942 On ch=12 n=91 v=82
108952 On ch=12 n=75 v=56
109022 Off ch=12 n=87 v=64
109032 Off ch=12 n=79 v=64
109035 Off ch=12 n=91 v=64
109040 Off ch=12 n=75 v=64
109875 On ch=12 n=84 v=61
109882 On ch=12 n=63 v=56
109897 On ch=12 n=87 v=73
109902 On ch=12 n=72 v=49
109910 On ch=12 n=96 v=73
109965 Off ch=12 n=63 v=64
109975 Off ch=12 n=84 v=64
109977 Off ch=12 n=87 v=64
109985 Off ch=12 n=72 v=64
110000 Off ch=12 n=96 v=64
110370 On ch=12 n=86 v=64
110375 On ch=12 n=65 v=56
110377 On ch=12 n=74 v=52
110382 On ch=12 n=89 v=60
110397 On ch=12 n=98 v=73
110455 Off ch=12 n=74 v=64
110467 Off ch=12 n=86 v=64
110477 Off ch=12 n=89 v=64
110500 Off ch=12 n=98 v=64
110507 Off ch=12 n=65 v=64
110862 On ch=12 n=67 v=40
110867 On ch=12 n=75 v=55
110867 On ch=12 n=91 v=73
110872 On ch=12 n=87 v=67
110877 On ch=12 n=99 v=82
110947 Off ch=12 n=75 v=64
110950 Off ch=12 n=91 v=64
110952 Off ch=12 n=99 v=64
110965 Off ch=12 n=87 v=64
110967 Off ch=12 n=67 v=64
112280 On ch=12 n=65 v=40
112295 On ch=12 n=89 v=64
112297 On ch=12 n=86 v=64
112302 On ch=12 n=98 v=82
112307 On ch=12 n=74 v=52
112367 Off ch=12 n=89 v=64
112377 Off ch=12 n=98 v=64
112395 Off ch=12 n=74 v=64
112420 Off ch=12 n=65 v=64
112420 Off ch=12 n=86 v=64
113722 On ch=12 n=87 v=69
113730 On ch=12 n=96 v=80
113730 On ch=12 n=84 v=64
113742 On ch=12 n=63 v=40
113745 On ch=12 n=72 v=52
113807 Off ch=12 n=87 v=64
113830 Off ch=12 n=96 v=64
113830 Off ch=12 n=84 v=64
113850 Off ch=12 n=72 v=64
113895 Off ch=12 n=63 v=64
249562 On ch=12 n=75 v=56
249577 On ch=12 n=84 v=73
249582 On ch=12 n=72 v=49
249590 On ch=12 n=87 v=73
249645 Off ch=12 n=75 v=64
249657 Off ch=12 n=84 v=64
249665 Off ch=12 n=72 v=64
249680 Off ch=12 n=87 v=64
250055 On ch=12 n=77 v=56
250057 On ch=12 n=74 v=52
250062 On ch=12 n=86 v=60
250077 On ch=12 n=89 v=73
250135 Off ch=12 n=74 v=64
250157 Off ch=12 n=86 v=64
250180 Off ch=12 n=89 v=64
250187 Off ch=12 n=77 v=64
250542 On ch=12 n=79 v=40
250547 On ch=12 n=75 v=55
250547 On ch=12 n=87 v=73
250557 On ch=12 n=91 v=82
250627 Off ch=12 n=75 v=64
250630 Off ch=12 n=87 v=64
250632 Off ch=12 n=91 v=64
250647 Off ch=12 n=79 v=64
251960 On ch=12 n=77 v=40
251975 On ch=12 n=86 v=64
251982 On ch=12 n=89 v=82
251987 On ch=12 n=74 v=52
252047 Off ch=12 n=86 v=64
252057 Off ch=12 n=89 v=64
252075 Off ch=12 n=74 v=64
252100 Off ch=12 n=77 v=64
253402 On ch=12 n=84 v=69
253410 On ch=12 n=87 v=80
253422 On ch=12 n=75 v=40
253425 On ch=12 n=72 v=52
253487 Off ch=12 n=84 v=64
253510 Off ch=12 n=87 v=64
253530 Off ch=12 n=72 v=64
253575 Off ch=12 n=75 v=64
254362 On ch=12 n=79 v=40
254375 On ch=12 n=87 v=64
254382 On ch=12 n=91 v=82
254392 On ch=12 n=75 v=56
254462 Off ch=12 n=87 v=64
254472 Off ch=12 n=79 v=64
254475 Off ch=12 n=91 v=64
254480 Off ch=12 n=75 v=64
255322 On ch=12 n=75 v=56
255337 On ch=12 n=84 v=73
255342 On ch=12 n=72 v=49
255350 On ch=12 n=87 v=73
255405 Off ch=12 n=75 v=64
255417 Off ch=12 n=84 v=64
255425 Off ch=12 n=72 v=64
255440 Off ch=12 n=87 v=64
255815 On ch=12 n=77 v=56
255817 On ch=12 n=74 v=52
255822 On ch=12 n=86 v=60
255837 On ch=12 n=89 v=73
255895 Off ch=12 n=74 v=64
255917 Off ch=12 n=86 v=64
255940 Off ch=12 n=89 v=64
255947 Off ch=12 n=77 v=64
256302 On ch=12 n=79 v=40
256307 On ch=12 n=75 v=55
256307 On ch=12 n=87 v=73
256317 On ch=12 n=91 v=82
256387 Off ch=12 n=75 v=64
256390 Off ch=12 n=87 v=64
256392 Off ch=12 n=91 v=64
256407 Off ch=12 n=79 v=64
257720 On ch=12 n=77 v=40
257735 On ch=12 n=86 v=64
257742 On ch=12 n=89 v=82
257747 On ch=12 n=74 v=52
257807 Off ch=12 n=86 v=64
257817 Off ch=12 n=89 v=64
257835 Off ch=12 n=74 v=64
257860 Off ch=12 n=77 v=64
259162 On ch=12 n=84 v=69
259170 On ch=12 n=87 v=80
259182 On ch=12 n=75 v=40
259185 On ch=12 n=72 v=52
259247 Off ch=12 n=84 v=64
259270 Off ch=12 n=87 v=64
259290 Off ch=12 n=72 v=64
259335 Off ch=12 n=75 v=64
260122 On ch=12 n=79 v=40
260135 On ch=12 n=87 v=64
260142 On ch=12 n=91 v=82
260152 On ch=12 n=75 v=56
260222 Off ch=12 n=87 v=64
260232 Off ch=12 n=79 v=64
260235 Off ch=12 n=91 v=64
260240 Off ch=12 n=75 v=64
261075 On ch=12 n=84 v=61
261082 On ch=12 n=63 v=56
261097 On ch=12 n=87 v=73
261102 On ch=12 n=72 v=49
261110 On ch=12 n=96 v=73
261165 Off ch=12 n=63 v=64
261175 Off ch=12 n=84 v=64
261177 Off ch=12 n=87 v=64
261185 Off ch=12 n=72 v=64
261200 Off ch=12 n=96 v=64
261570 On ch=12 n=86 v=64
261575 On ch=12 n=65 v=56
261577 On ch=12 n=74 v=52
261582 On ch=12 n=89 v=60
261597 On ch=12 n=98 v=73
261655 Off ch=12 n=74 v=64
261667 Off ch=12 n=86 v=64
261677 Off ch=12 n=89 v=64
261700 Off ch=12 n=98 v=64
261707 Off ch=12 n=65 v=64
262062 On ch=12 n=67 v=40
262067 On ch=12 n=75 v=55
262067 On ch=12 n=91 v=73
262072 On ch=12 n=87 v=67
262077 On ch=12 n=99 v=82
262147 Off ch=12 n=75 v=64
262150 Off ch=12 n=91 v=64
262152 Off ch=12 n=99 v=64
262165 Off ch=12 n=87 v=64
262167 Off ch=12 n=67 v=64
263480 On ch=12 n=65 v=40
263495 On ch=12 n=89 v=64
263497 On ch=12 n=86 v=64
263502 On ch=12 n=98 v=82
263507 On ch=12 n=74 v=52
263567 Off ch=12 n=89 v=64
263577 Off ch=12 n=98 v=64
263595 Off ch=12 n=74 v=64
263620 Off ch=12 n=65 v=64
263620 Off ch=12 n=86 v=64
264922 On ch=12 n=87 v=69
264930 On ch=12 n=96 v=80
264930 On ch=12 n=84 v=64
264942 On ch=12 n=63 v=40
264945 On ch=12 n=72 v=52
265007 Off ch=12 n=87 v=64
265030 Off ch=12 n=96 v=64
265030 Off ch=12 n=84 v=64
265050 Off ch=12 n=72 v=64
265095 Off ch=12 n=63 v=64
301402 On ch=12 n=75 v=56
301417 On ch=12 n=84 v=73
301422 On ch=12 n=72 v=49
301430 On ch=12 n=87 v=73
301485 Off ch=12 n=75 v=64
301497 Off ch=12 n=84 v=64
301505 Off ch=12 n=72 v=64
301520 Off ch=12 n=87 v=64
301895 On ch=12 n=77 v=56
301897 On ch=12 n=74 v=52
301902 On ch=12 n=86 v=60
301917 On ch=12 n=89 v=73
301975 Off ch=12 n=74 v=64
301997 Off ch=12 n=86 v=64
302020 Off ch=12 n=89 v=64
302027 Off ch=12 n=77 v=64
302382 On ch=12 n=79 v=40
302387 On ch=12 n=75 v=55
302387 On ch=12 n=87 v=73
302397 On ch=12 n=91 v=82
302467 Off ch=12 n=75 v=64
302470 Off ch=12 n=87 v=64
302472 Off ch=12 n=91 v=64
302487 Off ch=12 n=79 v=64
303800 On ch=12 n=77 v=40
303815 On ch=12 n=86 v=64
303822 On ch=12 n=89 v=82
303827 On ch=12 n=74 v=52
303887 Off ch=12 n=86 v=64
303897 Off ch=12 n=89 v=64
303915 Off ch=12 n=74 v=64
303940 Off ch=12 n=77 v=64
305242 On ch=12 n=84 v=69
305250 On ch=12 n=87 v=80
305262 On ch=12 n=75 v=40
305265 On ch=12 n=72 v=52
305327 Off ch=12 n=84 v=64
305350 Off ch=12 n=87 v=64
305370 Off ch=12 n=72 v=64
305415 Off ch=12 n=75 v=64
306202 On ch=12 n=79 v=40
306215 On ch=12 n=87 v=64
306222 On ch=12 n=91 v=82
306232 On ch=12 n=75 v=56
306302 Off ch=12 n=87 v=64
306312 Off ch=12 n=79 v=64
306315 Off ch=12 n=91 v=64
306320 Off ch=12 n=75 v=64
307162 On ch=12 n=75 v=56
307177 On ch=12 n=84 v=73
307182 On ch=12 n=72 v=49
307190 On ch=12 n=87 v=73
307245 Off ch=12 n=75 v=64
307257 Off ch=12 n=84 v=64
307265 Off ch=12 n=72 v=64
307280 Off ch=12 n=87 v=64
307655 On ch=12 n=77 v=56
307657 On ch=12 n=74 v=52
307662 On ch=12 n=86 v=60
307677 On ch=12 n=89 v=73
307735 Off ch=12 n=74 v=64
307757 Off ch=12 n=86 v=64
307780 Off ch=12 n=89 v=64
307787 Off ch=12 n=77 v=64
308142 On ch=12 n=79 v=40
308147 On ch=12 n=75 v=55
308147 On ch=12 n=87 v=73
308157 On ch=12 n=91 v=82
308227 Off ch=12 n=75 v=64
308230 Off ch=12 n=87 v=64
308232 Off ch=12 n=91 v=64
308247 Off ch=12 n=79 v=64
309560 On ch=12 n=77 v=40
309575 On ch=12 n=86 v=64
309582 On ch=12 n=89 v=82
309587 On ch=12 n=74 v=52
309647 Off ch=12 n=86 v=64
309657 Off ch=12 n=89 v=64
309675 Off ch=12 n=74 v=64
309700 Off ch=12 n=77 v=64
311002 On ch=12 n=84 v=69
311010 On ch=12 n=87 v=80
311022 On ch=12 n=75 v=40
311025 On ch=12 n=72 v=52
311087 Off ch=12 n=84 v=64
311110 Off ch=12 n=87 v=64
311130 Off ch=12 n=72 v=64
311175 Off ch=12 n=75 v=64
311962 On ch=12 n=79 v=40
311975 On ch=12 n=87 v=64
311982 On ch=12 n=91 v=82
311992 On ch=12 n=75 v=56
312062 Off ch=12 n=87 v=64
312072 Off ch=12 n=79 v=64
312075 Off ch=12 n=91 v=64
312080 Off ch=12 n=75 v=64
312915 On ch=12 n=84 v=61
312922 On ch=12 n=63 v=56
312937 On ch=12 n=87 v=73
312942 On ch=12 n=72 v=49
312950 On ch=12 n=96 v=73
313005 Off ch=12 n=63 v=64
313015 Off ch=12 n=84 v=64
313017 Off ch=12 n=87 v=64
313025 Off ch=12 n=72 v=64
313040 Off ch=12 n=96 v=64
313410 On ch=12 n=86 v=64
313415 On ch=12 n=65 v=56
313417 On ch=12 n=74 v=52
313422 On ch=12 n=89 v=60
313437 On ch=12 n=98 v=73
313495 Off ch=12 n=74 v=64
313507 Off ch=12 n=86 v=64
313517 Off ch=12 n=89 v=64
313540 Off ch=12 n=98 v=64
313547 Off ch=12 n=65 v=64
313902 On ch=12 n=67 v=40
313907 On ch=12 n=75 v=55
313907 On ch=12 n=91 v=73
313912 On ch=12 n=87 v=67
313917 On ch=12 n=99 v=82
313987 Off ch=12 n=75 v=64
313990 Off ch=12 n=91 v=64
313992 Off ch=12 n=99 v=64
314005 Off ch=12 n=87 v=64
314007 Off ch=12 n=67 v=64
315320 On ch=12 n=65 v=40
315335 On ch=12 n=89 v=64
315337 On ch=12 n=86 v=64
315342 On ch=12 n=98 v=82
315347 On ch=12 n=74 v=52
315407 Off ch=12 n=89 v=64
315417 Off ch=12 n=98 v=64
315435 Off ch=12 n=74 v=64
315460 Off ch=12 n=65 v=64
315460 Off ch=12 n=86 v=64
316762 On ch=12 n=87 v=69
316770 On ch=12 n=96 v=80
316770 On ch=12 n=84 v=64
316782 On ch=12 n=63 v=40
316785 On ch=12 n=72 v=52
316847 Off ch=12 n=87 v=64
316870 Off ch=12 n=96 v=64
316870 Off ch=12 n=84 v=64
316890 Off ch=12 n=72 v=64
316935 Off ch=12 n=63 v=64
317692 On ch=12 n=60 v=78
317732 On ch=12 n=62 v=87
317777 On ch=12 n=63 v=95
317780 Off ch=12 n=60 v=64
317810 On ch=12 n=65 v=87
317835 Off ch=12 n=62 v=64
317852 On ch=12 n=67 v=87
317872 Off ch=12 n=63 v=64
317892 Off ch=12 n=65 v=64
317892 On ch=12 n=68 v=78
317930 Off ch=12 n=67 v=64
317935 On ch=12 n=70 v=72
317972 Off ch=12 n=68 v=64
317975 On ch=12 n=72 v=66
318012 Off ch=12 n=70 v=64
318015 On ch=12 n=74 v=66
318040 Off ch=12 n=72 v=64
318060 On ch=12 n=75 v=66
318072 Off ch=12 n=74 v=64
318102 On ch=12 n=77 v=66
318130 Off ch=12 n=75 v=64
318135 On ch=12 n=79 v=66
318155 On ch=12 n=80 v=66
318160 Off ch=12 n=77 v=64
318180 On ch=12 n=82 v=58
318185 Off ch=12 n=79 v=64
318192 Off ch=12 n=80 v=64
318217 On ch=12 n=84 v=93
318235 Off ch=12 n=82 v=64
318467 Off ch=12 n=84 v=64
318467 Meta TrkEnd
TrkEnd
MTrk
0 Meta TrkName "Glockenspl"
0 Meta 0x21 00
0 Meta 0x20 0c
0 Par ch=13 c=10 v=64
55190 On ch=13 n=96 v=69
55265 Off ch=13 n=96 v=64
55667 On ch=13 n=98 v=74
55772 Off ch=13 n=98 v=64
56150 On ch=13 n=99 v=78
56265 Off ch=13 n=99 v=64
57580 On ch=13 n=98 v=79
57685 Off ch=13 n=98 v=64
59005 On ch=13 n=96 v=84
59092 Off ch=13 n=96 v=64
109910 On ch=13 n=96 v=69
109985 Off ch=13 n=96 v=64
110387 On ch=13 n=98 v=74
110492 Off ch=13 n=98 v=64
110870 On ch=13 n=99 v=78
110985 Off ch=13 n=99 v=64
112300 On ch=13 n=98 v=79
112405 Off ch=13 n=98 v=64
113725 On ch=13 n=96 v=84
113812 Off ch=13 n=96 v=64
261110 On ch=13 n=96 v=69
261185 Off ch=13 n=96 v=64
261587 On ch=13 n=98 v=74
261692 Off ch=13 n=98 v=64
262070 On ch=13 n=99 v=78
262185 Off ch=13 n=99 v=64
263500 On ch=13 n=98 v=79
263605 Off ch=13 n=98 v=64
264925 On ch=13 n=96 v=84
265012 Off ch=13 n=96 v=64
312950 On ch=13 n=96 v=69
313025 Off ch=13 n=96 v=64
313427 On ch=13 n=98 v=74
313532 Off ch=13 n=98 v=64
313910 On ch=13 n=99 v=78
314025 Off ch=13 n=99 v=64
315340 On ch=13 n=98 v=79
315445 Off ch=13 n=98 v=64
316765 On ch=13 n=96 v=84
316852 Off ch=13 n=96 v=64
317742 On ch=13 n=91 v=87
317865 Off ch=13 n=91 v=64
318227 On ch=13 n=96 v=93
318357 Off ch=13 n=96 v=64
318357 Meta TrkEnd
TrkEnd
MTrk
0 Meta TrkName "#Sl.String"
0 Meta 0x21 00
0 Meta 0x20 0d
0 Par ch=14 c=10 v=64
64750 On ch=14 n=79 v=73
64780 On ch=14 n=67 v=73
66162 On ch=14 n=75 v=73
66170 On ch=14 n=63 v=64
66175 Off ch=14 n=79 v=64
66180 Off ch=14 n=67 v=64
67115 Off ch=14 n=75 v=64
67115 On ch=14 n=74 v=82
67122 Off ch=14 n=63 v=64
67145 On ch=14 n=62 v=73
67602 On ch=14 n=72 v=82
67625 On ch=14 n=60 v=73
67630 Off ch=14 n=62 v=64
67642 Off ch=14 n=74 v=64
69162 Off ch=14 n=72 v=64
69185 Off ch=14 n=60 v=64
69520 On ch=14 n=72 v=80
69535 On ch=14 n=60 v=72
70002 On ch=14 n=62 v=73
70007 On ch=14 n=74 v=85
70042 Off ch=14 n=72 v=64
70045 Off ch=14 n=60 v=64
70490 On ch=14 n=75 v=82
70492 Off ch=14 n=62 v=64
70495 On ch=14 n=63 v=64
70540 Off ch=14 n=74 v=64
70975 Off ch=14 n=75 v=64
70975 On ch=14 n=72 v=82
70997 On ch=14 n=60 v=73
71002 Off ch=14 n=63 v=64
71430 On ch=14 n=63 v=64
71437 Off ch=14 n=72 v=64
71437 On ch=14 n=75 v=82
71450 Off ch=14 n=60 v=64
71902 Off ch=14 n=63 v=64
71935 On ch=14 n=67 v=73
71940 On ch=14 n=79 v=91
71957 Off ch=14 n=75 v=64
72840 On ch=14 n=80 v=91
72857 On ch=14 n=68 v=64
72860 Off ch=14 n=79 v=64
72902 Off ch=14 n=67 v=64
73315 On ch=14 n=79 v=82
73337 On ch=14 n=67 v=73
73355 Off ch=14 n=80 v=64
73390 Off ch=14 n=68 v=64
74800 On ch=14 n=77 v=82
74825 Off ch=14 n=79 v=64
74832 On ch=14 n=65 v=79
74892 Off ch=14 n=67 v=64
76002 Off ch=14 n=77 v=64
76065 Off ch=14 n=65 v=64
76272 On ch=14 n=65 v=73
76275 On ch=14 n=77 v=91
77677 On ch=14 n=62 v=73
77682 On ch=14 n=74 v=82
77690 Off ch=14 n=65 v=64
77705 Off ch=14 n=77 v=64
78615 On ch=14 n=72 v=82
78617 On ch=14 n=60 v=64
78632 Off ch=14 n=62 v=64
78635 Off ch=14 n=74 v=64
79120 On ch=14 n=59 v=73
79127 On ch=14 n=71 v=82
79145 Off ch=14 n=60 v=64
79147 Off ch=14 n=72 v=64
80705 Off ch=14 n=71 v=64
80727 Off ch=14 n=59 v=64
81055 On ch=14 n=55 v=73
81080 On ch=14 n=67 v=82
81517 On ch=14 n=59 v=64
81542 On ch=14 n=71 v=82
81560 Off ch=14 n=55 v=64
81605 Off ch=14 n=67 v=64
82007 On ch=14 n=62 v=82
82020 On ch=14 n=74 v=82
82052 Off ch=14 n=59 v=64
82062 Off ch=14 n=71 v=64
82485 On ch=14 n=59 v=73
82492 Off ch=14 n=62 v=64
82500 On ch=14 n=71 v=82
82520 Off ch=14 n=74 v=64
82942 On ch=14 n=62 v=73
82970 On ch=14 n=74 v=82
83030 Off ch=14 n=59 v=64
83037 Off ch=14 n=71 v=64
83440 On ch=14 n=65 v=82
83450 On ch=14 n=77 v=82
83502 Off ch=14 n=62 v=64
83515 Off ch=14 n=74 v=64
83925 On ch=14 n=79 v=91
83932 On ch=14 n=67 v=73
83962 Off ch=14 n=77 v=64
83970 Off ch=14 n=65 v=64
84380 On ch=14 n=68 v=80
84405 On ch=14 n=80 v=75
84420 Off ch=14 n=67 v=64
84422 Off ch=14 n=79 v=64
84902 On ch=14 n=78 v=82
84930 On ch=14 n=66 v=73
84970 Off ch=14 n=80 v=64
84997 Off ch=14 n=68 v=64
86320 On ch=14 n=79 v=82
86330 Off ch=14 n=78 v=64
86345 On ch=14 n=67 v=82
86390 Off ch=14 n=66 v=64
87412 Off ch=14 n=79 v=64
87510 Off ch=14 n=67 v=64
87752 On ch=14 n=72 v=69
87757 On ch=14 n=67 v=64
87775 On ch=14 n=75 v=64
87787 On ch=14 n=84 v=75
87812 On ch=14 n=87 v=79
87825 On ch=14 n=79 v=71
89095 Off ch=14 n=67 v=64
89132 Off ch=14 n=72 v=64
89137 Off ch=14 n=79 v=64
89155 On ch=14 n=67 v=56
89165 On ch=14 n=77 v=64
89182 On ch=14 n=65 v=64
89192 Off ch=14 n=75 v=64
89197 On ch=14 n=79 v=64
89220 Off ch=14 n=87 v=64
89220 On ch=14 n=86 v=82
89247 Off ch=14 n=84 v=64
89257 On ch=14 n=74 v=64
90137 On ch=14 n=84 v=73
90142 On ch=14 n=63 v=64
90150 On ch=14 n=75 v=73
90155 Off ch=14 n=86 v=64
90157 On ch=14 n=72 v=64
90190 Off ch=14 n=65 v=64
90192 Off ch=14 n=74 v=64
90202 Off ch=14 n=77 v=64
90512 Off ch=14 n=67 v=64
90625 On ch=14 n=65 v=60
90625 On ch=14 n=82 v=73
90627 Off ch=14 n=72 v=64
90650 Off ch=14 n=75 v=64
90652 On ch=14 n=62 v=73
90655 On ch=14 n=74 v=73
90655 On ch=14 n=70 v=64
90657 Off ch=14 n=84 v=64
90662 Off ch=14 n=63 v=64
90682 On ch=14 n=77 v=56
90712 Off ch=14 n=79 v=64
91575 On ch=14 n=80 v=64
91592 On ch=14 n=60 v=64
91597 Off ch=14 n=82 v=64
91602 On ch=14 n=68 v=60
91610 Off ch=14 n=62 v=64
91625 On ch=14 n=72 v=64
91642 Off ch=14 n=74 v=64
91662 Off ch=14 n=70 v=64
91997 Off ch=14 n=77 v=64
92005 Off ch=14 n=68 v=64
92027 Off ch=14 n=72 v=64
92030 On ch=14 n=56 v=60
92042 Off ch=14 n=65 v=64
92080 On ch=14 n=77 v=72
92085 On ch=14 n=72 v=56
92087 Off ch=14 n=60 v=64
92097 Off ch=14 n=80 v=64
92102 On ch=14 n=65 v=73
92117 On ch=14 n=68 v=52
93200 Off ch=14 n=77 v=64
93212 Off ch=14 n=72 v=64
93240 Off ch=14 n=68 v=64
93255 Off ch=14 n=65 v=64
93287 Off ch=14 n=56 v=64
93515 On ch=14 n=68 v=62
93545 On ch=14 n=77 v=60
93560 On ch=14 n=65 v=60
93572 On ch=14 n=80 v=64
93577 On ch=14 n=74 v=82
93597 On ch=14 n=86 v=82
94825 Off ch=14 n=80 v=64
94887 Off ch=14 n=77 v=64
94887 Off ch=14 n=68 v=64
94945 Off ch=14 n=74 v=64
94947 On ch=14 n=68 v=60
94947 On ch=14 n=63 v=64
94952 On ch=14 n=72 v=73
94967 Off ch=14 n=65 v=64
94982 On ch=14 n=84 v=73
95002 On ch=14 n=80 v=64
95005 Off ch=14 n=86 v=64
95032 On ch=14 n=75 v=64
95832 Off ch=14 n=80 v=64
95860 Off ch=14 n=68 v=64
95927 On ch=14 n=62 v=64
95927 On ch=14 n=82 v=73
95930 Off ch=14 n=84 v=64
95930 On ch=14 n=68 v=56
95932 On ch=14 n=74 v=64
95937 On ch=14 n=80 v=60
95945 On ch=14 n=70 v=64
95960 Off ch=14 n=63 v=64
95962 Off ch=14 n=75 v=64
95967 Off ch=14 n=72 v=64
96362 Off ch=14 n=82 v=64
96375 Off ch=14 n=70 v=64
96417 On ch=14 n=67 v=64
96420 On ch=14 n=82 v=73
96425 On ch=14 n=75 v=64
96430 On ch=14 n=63 v=64
96452 On ch=14 n=79 v=56
96452 On ch=14 n=70 v=64
96465 Off ch=14 n=62 v=64
96467 Off ch=14 n=74 v=64
96472 Off ch=14 n=80 v=64
96495 Off ch=14 n=68 v=64
97297 Off ch=14 n=63 v=64
97510 Off ch=14 n=82 v=64
97520 Off ch=14 n=70 v=64
97545 Off ch=14 n=75 v=64
97560 Off ch=14 n=67 v=64
97592 Off ch=14 n=79 v=64
116112 On ch=14 n=82 v=89
116127 On ch=14 n=74 v=71
116142 On ch=14 n=62 v=62
116150 On ch=14 n=70 v=89
116592 Off ch=14 n=74 v=64
116607 Off ch=14 n=82 v=64
116627 On ch=14 n=79 v=80
116632 On ch=14 n=87 v=89
116637 Off ch=14 n=70 v=64
116645 On ch=14 n=67 v=89
116645 On ch=14 n=75 v=80
116657 Off ch=14 n=62 v=64
117855 Off ch=14 n=67 v=64
117867 Off ch=14 n=79 v=64
117875 Off ch=14 n=75 v=64
117907 Off ch=14 n=87 v=64
118010 On ch=14 n=79 v=80
118015 On ch=14 n=67 v=71
118047 On ch=14 n=87 v=89
118050 On ch=14 n=75 v=89
119275 Off ch=14 n=75 v=64
119282 Off ch=14 n=79 v=64
119292 Off ch=14 n=67 v=64
119342 Off ch=14 n=87 v=64
119400 On ch=14 n=79 v=80
119422 On ch=14 n=67 v=80
119430 On ch=14 n=75 v=80
119490 On ch=14 n=87 v=93
119927 On ch=14 n=70 v=62
119932 Off ch=14 n=75 v=64
119932 On ch=14 n=82 v=71
119942 Off ch=14 n=67 v=64
119942 Off ch=14 n=79 v=64
119962 On ch=14 n=86 v=89
119965 Off ch=14 n=87 v=64
119965 On ch=14 n=74 v=89
120382 Off ch=14 n=82 v=64
120387 On ch=14 n=68 v=58
120395 On ch=14 n=80 v=71
120405 Off ch=14 n=74 v=64
120415 On ch=14 n=84 v=82
120417 On ch=14 n=72 v=80
120427 Off ch=14 n=86 v=64
120445 Off ch=14 n=70 v=64
120870 On ch=14 n=67 v=71
120885 Off ch=14 n=72 v=64
120895 On ch=14 n=79 v=80
120905 On ch=14 n=70 v=89
120920 On ch=14 n=82 v=89
120930 Off ch=14 n=80 v=64
120935 Off ch=14 n=68 v=64
120945 Off ch=14 n=84 v=64
121377 On ch=14 n=63 v=62
121385 On ch=14 n=75 v=71
121402 Off ch=14 n=67 v=64
121410 Off ch=14 n=70 v=64
121410 On ch=14 n=67 v=80
121412 Off ch=14 n=82 v=64
121417 Off ch=14 n=79 v=64
121422 On ch=14 n=79 v=80
121817 Off ch=14 n=67 v=64
121825 Off ch=14 n=79 v=64
121847 On ch=14 n=67 v=71
121860 On ch=14 n=79 v=80
121860 On ch=14 n=70 v=89
121880 On ch=14 n=82 v=89
121887 Off ch=14 n=75 v=64
121890 Off ch=14 n=63 v=64
122305 Off ch=14 n=67 v=64
122325 Off ch=14 n=82 v=64
122335 Off ch=14 n=70 v=64
122350 Off ch=14 n=79 v=64
122355 On ch=14 n=82 v=71
122387 On ch=14 n=74 v=80
122392 On ch=14 n=70 v=62
122410 On ch=14 n=86 v=88
123585 Off ch=14 n=82 v=64
123590 Off ch=14 n=74 v=64
123607 Off ch=14 n=86 v=64
123627 Off ch=14 n=70 v=64
123760 On ch=14 n=70 v=62
123760 On ch=14 n=82 v=80
123765 On ch=14 n=74 v=80
123767 On ch=14 n=86 v=89
124910 Off ch=14 n=70 v=64
125005 Off ch=14 n=82 v=64
125015 Off ch=14 n=74 v=64
125090 Off ch=14 n=86 v=64
125147 On ch=14 n=68 v=62
125187 On ch=14 n=72 v=89
125205 On ch=14 n=80 v=80
125205 On ch=14 n=84 v=89
125642 Off ch=14 n=68 v=64
125660 Off ch=14 n=72 v=64
125672 On ch=14 n=67 v=62
125672 On ch=14 n=82 v=82
125675 Off ch=14 n=80 v=64
125675 On ch=14 n=79 v=80
125697 On ch=14 n=70 v=80
125705 Off ch=14 n=84 v=64
126112 On ch=14 n=63 v=71
126132 Off ch=14 n=67 v=64
126137 Off ch=14 n=79 v=64
126137 On ch=14 n=75 v=80
126140 Off ch=14 n=70 v=64
126147 On ch=14 n=67 v=80
126150 Off ch=14 n=82 v=64
126167 On ch=14 n=79 v=80
126597 Off ch=14 n=63 v=64
126612 On ch=14 n=60 v=71
126622 Off ch=14 n=75 v=64
126630 Off ch=14 n=67 v=64
126637 On ch=14 n=63 v=71
126640 Off ch=14 n=79 v=64
126640 On ch=14 n=75 v=91
126642 On ch=14 n=72 v=71
127105 Off ch=14 n=72 v=64
127120 Off ch=14 n=60 v=64
127120 Off ch=14 n=75 v=64
127122 On ch=14 n=62 v=71
127125 Off ch=14 n=63 v=64
127130 On ch=14 n=77 v=85
127132 On ch=14 n=74 v=80
127142 On ch=14 n=65 v=62
127550 Off ch=14 n=77 v=64
127572 Off ch=14 n=74 v=64
127577 Off ch=14 n=62 v=64
127590 On ch=14 n=79 v=82
127617 Off ch=14 n=65 v=64
127622 On ch=14 n=75 v=71
127630 On ch=14 n=63 v=62
127637 On ch=14 n=67 v=86
128075 Off ch=14 n=63 v=64
128105 Off ch=14 n=67 v=64
128115 On ch=14 n=80 v=71
128130 Off ch=14 n=75 v=64
128135 Off ch=14 n=79 v=64
128135 On ch=14 n=68 v=71
128140 On ch=14 n=84 v=91
128147 On ch=14 n=72 v=89
129335 Off ch=14 n=84 v=64
129345 Off ch=14 n=80 v=64
129375 Off ch=14 n=72 v=64
129402 Off ch=14 n=68 v=64
129482 On ch=14 n=79 v=71
129487 On ch=14 n=82 v=85
129530 On ch=14 n=70 v=62
129545 On ch=14 n=67 v=71
130682 Off ch=14 n=82 v=64
130732 Off ch=14 n=79 v=64
130767 Off ch=14 n=70 v=64
130805 Off ch=14 n=67 v=64
130897 On ch=14 n=79 v=71
130915 On ch=14 n=70 v=80
130937 On ch=14 n=82 v=87
130940 On ch=14 n=67 v=71
131400 Off ch=14 n=67 v=64
131405 Off ch=14 n=70 v=64
131427 On ch=14 n=80 v=87
131437 On ch=14 n=68 v=71
131442 On ch=14 n=65 v=71
131450 On ch=14 n=77 v=80
131472 Off ch=14 n=82 v=64
131495 Off ch=14 n=79 v=64
131890 Off ch=14 n=80 v=64
131900 On ch=14 n=79 v=87
131907 Off ch=14 n=68 v=64
131920 Off ch=14 n=65 v=64
131927 Off ch=14 n=77 v=64
131927 On ch=14 n=64 v=71
131942 On ch=14 n=67 v=80
131945 On ch=14 n=76 v=71
132382 On ch=14 n=77 v=88
132385 Off ch=14 n=79 v=64
132397 Off ch=14 n=67 v=64
132400 Off ch=14 n=64 v=64
132405 Off ch=14 n=76 v=64
132410 On ch=14 n=65 v=80
132902 Off ch=14 n=77 v=64
132910 On ch=14 n=75 v=87
132937 On ch=14 n=63 v=80
132980 Off ch=14 n=65 v=64
133360 Off ch=14 n=63 v=64
133367 On ch=14 n=77 v=89
133375 Off ch=14 n=75 v=64
133397 On ch=14 n=65 v=80
133822 Off ch=14 n=77 v=64
133845 Off ch=14 n=65 v=64
133857 On ch=14 n=67 v=80
133865 On ch=14 n=63 v=62
133887 On ch=14 n=75 v=71
133892 On ch=14 n=79 v=92
134805 Off ch=14 n=67 v=64
134825 On ch=14 n=67 v=71
134845 On ch=14 n=82 v=82
134847 Off ch=14 n=79 v=64
134860 On ch=14 n=70 v=80
134867 Off ch=14 n=63 v=64
134872 On ch=14 n=79 v=71
134917 Off ch=14 n=75 v=64
135305 Off ch=14 n=70 v=64
135317 Off ch=14 n=79 v=64
135325 Off ch=14 n=67 v=64
135325 On ch=14 n=62 v=62
135332 On ch=14 n=65 v=71
135332 On ch=14 n=74 v=71
135335 On ch=14 n=77 v=88
135340 Off ch=14 n=82 v=64
136267 Off ch=14 n=77 v=64
136267 On ch=14 n=82 v=85
136282 On ch=14 n=80 v=80
136287 On ch=14 n=68 v=71
136292 Off ch=14 n=74 v=64
136297 On ch=14 n=70 v=80
136302 Off ch=14 n=65 v=64
136312 Off ch=14 n=62 v=64
136732 Off ch=14 n=80 v=64
136745 Off ch=14 n=82 v=64
136745 On ch=14 n=79 v=88
136752 Off ch=14 n=70 v=64
136765 On ch=14 n=67 v=80
136772 On ch=14 n=75 v=80
136780 Off ch=14 n=68 v=64
137640 Off ch=14 n=79 v=64
137692 Off ch=14 n=75 v=64
137692 On ch=14 n=79 v=58
137707 On ch=14 n=82 v=82
137722 On ch=14 n=70 v=71
137732 Off ch=14 n=67 v=64
138070 Off ch=14 n=79 v=64
138132 On ch=14 n=75 v=80
138147 On ch=14 n=67 v=71
138150 On ch=14 n=79 v=80
138177 Off ch=14 n=82 v=64
138182 On ch=14 n=87 v=89
138185 Off ch=14 n=70 v=64
139102 Off ch=14 n=75 v=64
139115 Off ch=14 n=79 v=64
139115 Off ch=14 n=87 v=64
139145 On ch=14 n=89 v=85
139155 On ch=14 n=82 v=80
139160 Off ch=14 n=67 v=64
139172 On ch=14 n=70 v=62
139175 On ch=14 n=77 v=80
139590 On ch=14 n=75 v=80
139590 On ch=14 n=87 v=71
139642 On ch=14 n=91 v=93
139662 On ch=14 n=79 v=89
139685 Off ch=14 n=77 v=64
139692 Off ch=14 n=89 v=64
139727 Off ch=14 n=82 v=64
139735 Off ch=14 n=70 v=64
140900 Off ch=14 n=79 v=64
140915 Off ch=14 n=87 v=64
140940 Off ch=14 n=75 v=64
140960 Off ch=14 n=91 v=64
141007 On ch=14 n=87 v=71
141055 On ch=14 n=75 v=71
141060 On ch=14 n=79 v=89
141097 On ch=14 n=91 v=89
142297 Off ch=14 n=79 v=64
142342 Off ch=14 n=87 v=64
142352 Off ch=14 n=75 v=64
142372 Off ch=14 n=91 v=64
142497 On ch=14 n=75 v=71
142497 On ch=14 n=87 v=62
142497 On ch=14 n=91 v=91
142527 On ch=14 n=79 v=89
142960 On ch=14 n=89 v=85
142990 On ch=14 n=74 v=71
142992 Off ch=14 n=91 v=64
142997 Off ch=14 n=75 v=64
143005 On ch=14 n=86 v=71
143010 Off ch=14 n=87 v=64
143012 Off ch=14 n=79 v=64
143022 On ch=14 n=77 v=80
143410 On ch=14 n=87 v=80
143442 On ch=14 n=72 v=71
143450 Off ch=14 n=89 v=64
143462 On ch=14 n=75 v=80
143467 Off ch=14 n=77 v=64
143472 On ch=14 n=84 v=62
143480 Off ch=14 n=74 v=64
143512 Off ch=14 n=86 v=64
143917 On ch=14 n=86 v=91
143930 Off ch=14 n=87 v=64
143935 On ch=14 n=70 v=62
143937 Off ch=14 n=75 v=64
143947 On ch=14 n=74 v=80
143970 Off ch=14 n=72 v=64
143975 On ch=14 n=82 v=71
143977 Off ch=14 n=84 v=64
144382 Off ch=14 n=70 v=64
144405 Off ch=14 n=82 v=64
144405 On ch=14 n=79 v=62
144412 On ch=14 n=70 v=71
144427 On ch=14 n=82 v=80
144435 On ch=14 n=67 v=71
144450 Off ch=14 n=86 v=64
144467 Off ch=14 n=74 v=64
144835 Off ch=14 n=82 v=64
144857 Off ch=14 n=79 v=64
144867 On ch=14 n=82 v=62
144872 Off ch=14 n=70 v=64
144887 Off ch=14 n=67 v=64
144897 On ch=14 n=74 v=80
144902 On ch=14 n=70 v=71
144905 On ch=14 n=86 v=79
145317 Off ch=14 n=86 v=64
145365 Off ch=14 n=70 v=64
145380 Off ch=14 n=82 v=64
145400 Off ch=14 n=74 v=64
145410 On ch=14 n=89 v=88
145412 On ch=14 n=86 v=71
145422 On ch=14 n=77 v=71
145422 On ch=14 n=74 v=89
146627 Off ch=14 n=89 v=64
146652 Off ch=14 n=77 v=64
146665 Off ch=14 n=86 v=64
146670 Off ch=14 n=74 v=64
146777 On ch=14 n=77 v=89
146792 On ch=14 n=74 v=80
146805 On ch=14 n=86 v=80
146822 On ch=14 n=89 v=85
147970 Off ch=14 n=89 v=64
147982 Off ch=14 n=74 v=64
148052 Off ch=14 n=77 v=64
148130 Off ch=14 n=86 v=64
148235 On ch=14 n=74 v=80
148257 On ch=14 n=89 v=88
148270 On ch=14 n=77 v=71
148285 On ch=14 n=86 v=71
148722 On ch=14 n=72 v=80
148727 On ch=14 n=84 v=62
148735 Off ch=14 n=77 v=64
148747 Off ch=14 n=86 v=64
148750 On ch=14 n=87 v=73
148755 Off ch=14 n=74 v=64
148767 On ch=14 n=75 v=80
148787 Off ch=14 n=89 v=64
149170 Off ch=14 n=72 v=64
149175 Off ch=14 n=84 v=64
149177 On ch=14 n=70 v=58
149180 On ch=14 n=82 v=58
149192 Off ch=14 n=87 v=64
149192 On ch=14 n=86 v=82
149222 Off ch=14 n=75 v=64
149255 On ch=14 n=74 v=80
149630 Off ch=14 n=70 v=64
149652 On ch=14 n=68 v=71
149665 On ch=14 n=80 v=71
149672 Off ch=14 n=82 v=64
149690 On ch=14 n=84 v=88
149710 Off ch=14 n=74 v=64
149730 On ch=14 n=72 v=89
149740 Off ch=14 n=86 v=64
150152 On ch=14 n=63 v=58
150165 On ch=14 n=75 v=58
150175 Off ch=14 n=68 v=64
150180 Off ch=14 n=84 v=64
150180 On ch=14 n=79 v=80
150190 On ch=14 n=67 v=89
150200 Off ch=14 n=72 v=64
150202 Off ch=14 n=80 v=64
150615 Off ch=14 n=67 v=64
150622 Off ch=14 n=79 v=64
150635 On ch=14 n=82 v=80
150650 On ch=14 n=67 v=80
150650 On ch=14 n=79 v=80
150670 On ch=14 n=70 v=80
150672 Off ch=14 n=63 v=64
150690 Off ch=14 n=75 v=64
151095 Off ch=14 n=79 v=64
151112 Off ch=14 n=67 v=64
151122 Off ch=14 n=70 v=64
151135 Off ch=14 n=82 v=64
151140 On ch=14 n=67 v=71
151150 On ch=14 n=79 v=80
151155 On ch=14 n=87 v=91
151165 On ch=14 n=75 v=80
152370 Off ch=14 n=87 v=64
152410 Off ch=14 n=67 v=64
152440 Off ch=14 n=79 v=64
152447 Off ch=14 n=75 v=64
152530 On ch=14 n=67 v=71
152557 On ch=14 n=75 v=80
152567 On ch=14 n=79 v=71
152635 On ch=14 n=87 v=85
153400 Off ch=14 n=67 v=64
153402 Off ch=14 n=79 v=64
153472 Off ch=14 n=75 v=64
153527 On ch=14 n=67 v=76
153530 On ch=14 n=75 v=82
153532 On ch=14 n=79 v=73
153900 Off ch=14 n=87 v=64
153970 Off ch=14 n=75 v=64
154007 On ch=14 n=68 v=62
154007 On ch=14 n=80 v=71
154015 Off ch=14 n=79 v=64
154027 On ch=14 n=75 v=80
154030 Off ch=14 n=67 v=64
154070 On ch=14 n=87 v=88
155275 Off ch=14 n=80 v=64
155310 Off ch=14 n=68 v=64
155392 Off ch=14 n=75 v=64
155425 Off ch=14 n=87 v=64
155442 On ch=14 n=68 v=58
155447 On ch=14 n=77 v=80
155477 On ch=14 n=80 v=80
155490 On ch=14 n=89 v=89
155922 Off ch=14 n=77 v=64
155940 Off ch=14 n=89 v=64
155952 On ch=14 n=75 v=80
155960 On ch=14 n=87 v=84
155972 Off ch=14 n=80 v=64
155977 On ch=14 n=67 v=80
155980 On ch=14 n=79 v=75
155995 Off ch=14 n=68 v=64
156382 Off ch=14 n=75 v=64
156417 On ch=14 n=77 v=89
156422 Off ch=14 n=67 v=64
156422 On ch=14 n=89 v=89
156435 Off ch=14 n=79 v=64
156437 Off ch=14 n=87 v=64
156442 On ch=14 n=68 v=58
156455 On ch=14 n=80 v=77
156885 Off ch=14 n=77 v=64
156912 Off ch=14 n=68 v=64
156915 On ch=14 n=79 v=89
156920 Off ch=14 n=80 v=64
156927 On ch=14 n=70 v=62
156945 On ch=14 n=91 v=80
156950 Off ch=14 n=89 v=64
156950 On ch=14 n=82 v=71
157867 Off ch=14 n=79 v=64
157877 On ch=14 n=67 v=80
157892 Off ch=14 n=70 v=64
157897 Off ch=14 n=82 v=64
157902 On ch=14 n=87 v=80
157905 On ch=14 n=79 v=71
157910 On ch=14 n=75 v=58
157912 Off ch=14 n=91 v=64
158350 On ch=14 n=82 v=80
158352 Off ch=14 n=75 v=64
158355 Off ch=14 n=79 v=64
158357 Off ch=14 n=87 v=64
158357 On ch=14 n=70 v=71
158367 On ch=14 n=62 v=80
158370 Off ch=14 n=67 v=64
158370 On ch=14 n=74 v=89
158512 Off ch=14 n=74 v=64
158520 Off ch=14 n=70 v=64
158542 Off ch=14 n=62 v=64
158590 On ch=14 n=74 v=98
158597 On ch=14 n=70 v=89
158622 On ch=14 n=62 v=89
158627 Off ch=14 n=82 v=64
158645 On ch=14 n=82 v=89
158732 Off ch=14 n=74 v=64
158772 Off ch=14 n=70 v=64
158797 On ch=14 n=84 v=76
158810 Off ch=14 n=62 v=64
158810 Off ch=14 n=82 v=64
158820 On ch=14 n=75 v=80
158845 On ch=14 n=72 v=89
158865 On ch=14 n=63 v=80
158980 Off ch=14 n=75 v=64
159025 On ch=14 n=75 v=89
159030 Off ch=14 n=63 v=64
159032 Off ch=14 n=72 v=64
159055 Off ch=14 n=84 v=64
159067 On ch=14 n=84 v=80
159082 On ch=14 n=72 v=89
159092 On ch=14 n=63 v=80
159232 Off ch=14 n=75 v=64
159252 Off ch=14 n=84 v=64
159267 Off ch=14 n=72 v=64
159267 On ch=14 n=86 v=89
159277 Off ch=14 n=63 v=64
159295 On ch=14 n=77 v=89
159297 On ch=14 n=65 v=89
159307 On ch=14 n=74 v=80
159455 Off ch=14 n=77 v=64
159467 Off ch=14 n=65 v=64
159495 Off ch=14 n=74 v=64
159515 Off ch=14 n=86 v=64
159535 On ch=14 n=77 v=80
159545 On ch=14 n=86 v=89
159557 On ch=14 n=74 v=89
159577 On ch=14 n=65 v=80
159700 Off ch=14 n=77 v=64
159727 Off ch=14 n=74 v=64
159737 Off ch=14 n=65 v=64
159747 Off ch=14 n=86 v=64
159762 On ch=14 n=87 v=89
159790 On ch=14 n=67 v=79
159792 On ch=14 n=79 v=89
159797 On ch=14 n=75 v=80
159957 Off ch=14 n=67 v=64
159962 Off ch=14 n=79 v=64
159962 Off ch=14 n=75 v=64
160020 Off ch=14 n=87 v=64
160050 On ch=14 n=67 v=80
160050 On ch=14 n=75 v=80
160055 On ch=14 n=87 v=79
160282 On ch=14 n=65 v=80
160282 On ch=14 n=77 v=80
160285 On ch=14 n=89 v=89
160295 Off ch=14 n=75 v=64
160295 Off ch=14 n=67 v=64
160322 Off ch=14 n=87 v=64
160470 Off ch=14 n=65 v=64
160470 Off ch=14 n=77 v=64
160500 Off ch=14 n=89 v=64
160532 On ch=14 n=65 v=89
160532 On ch=14 n=77 v=89
160552 On ch=14 n=89 v=71
160692 Off ch=14 n=89 v=64
160725 Off ch=14 n=77 v=64
160725 Off ch=14 n=65 v=64
160727 On ch=14 n=87 v=82
160745 On ch=14 n=63 v=89
160745 On ch=14 n=75 v=89
160887 Off ch=14 n=75 v=64
160887 Off ch=14 n=63 v=64
160945 Off ch=14 n=87 v=64
161012 On ch=14 n=63 v=80
161012 On ch=14 n=75 v=80
161032 On ch=14 n=87 v=80
161212 Off ch=14 n=75 v=64
161212 Off ch=14 n=63 v=64
161222 On ch=14 n=85 v=80
161237 Off ch=14 n=87 v=64
161242 On ch=14 n=61 v=98
161242 On ch=14 n=73 v=98
161385 Off ch=14 n=73 v=64
161385 Off ch=14 n=61 v=64
161457 Off ch=14 n=85 v=64
161472 On ch=14 n=61 v=74
161472 On ch=14 n=73 v=74
161482 On ch=14 n=85 v=74
161667 Off ch=14 n=85 v=64
161667 Off ch=14 n=73 v=64
161667 Off ch=14 n=61 v=64
161692 On ch=14 n=84 v=79
161700 On ch=14 n=60 v=83
161700 On ch=14 n=72 v=83
161917 Off ch=14 n=72 v=64
161917 Off ch=14 n=60 v=64
161940 Off ch=14 n=84 v=64
161975 On ch=14 n=60 v=83
161975 On ch=14 n=72 v=83
161977 On ch=14 n=84 v=76
162170 Off ch=14 n=84 v=64
162190 On ch=14 n=83 v=83
162195 Off ch=14 n=72 v=64
162195 Off ch=14 n=60 v=64
162195 On ch=14 n=59 v=83
162195 On ch=14 n=71 v=83
162387 Off ch=14 n=71 v=64
162387 Off ch=14 n=59 v=64
162417 Off ch=14 n=83 v=64
162447 On ch=14 n=59 v=74
162447 On ch=14 n=71 v=74
162455 On ch=14 n=83 v=65
162652 On ch=14 n=68 v=55
162652 On ch=14 n=80 v=74
162660 Off ch=14 n=83 v=64
162672 Off ch=14 n=71 v=64
162672 Off ch=14 n=59 v=64
162692 On ch=14 n=63 v=55
162692 On ch=14 n=75 v=74
162715 On ch=14 n=72 v=64
162715 On ch=14 n=84 v=83
163597 Off ch=14 n=68 v=64
163597 Off ch=14 n=80 v=64
163615 Off ch=14 n=63 v=64
163615 Off ch=14 n=75 v=64
163647 Off ch=14 n=72 v=64
163650 On ch=14 n=56 v=42
163650 On ch=14 n=68 v=61
163657 Off ch=14 n=84 v=64
163660 On ch=14 n=60 v=55
163660 On ch=14 n=72 v=74
163662 On ch=14 n=63 v=63
163662 On ch=14 n=75 v=82
164532 Off ch=14 n=56 v=64
164532 Off ch=14 n=68 v=64
164572 Off ch=14 n=60 v=64
164572 Off ch=14 n=72 v=64
164582 Off ch=14 n=63 v=64
164582 Off ch=14 n=75 v=64
164592 On ch=14 n=62 v=64
164592 On ch=14 n=74 v=83
164605 On ch=14 n=59 v=55
164605 On ch=14 n=71 v=74
164632 On ch=14 n=56 v=46
164632 On ch=14 n=68 v=65
165002 Off ch=14 n=71 v=64
165002 Off ch=14 n=59 v=64
165012 Off ch=14 n=56 v=64
165012 Off ch=14 n=68 v=64
165025 Off ch=14 n=74 v=64
165025 Off ch=14 n=62 v=64
165065 On ch=14 n=63 v=64
165065 On ch=14 n=75 v=83
165070 On ch=14 n=60 v=64
165070 On ch=14 n=72 v=83
165080 On ch=14 n=56 v=38
165080 On ch=14 n=68 v=57
165480 Off ch=14 n=72 v=64
165480 Off ch=14 n=60 v=64
165502 Off ch=14 n=75 v=64
165502 Off ch=14 n=63 v=64
165545 On ch=14 n=63 v=55
165545 On ch=14 n=75 v=74
165547 On ch=14 n=72 v=73
165547 On ch=14 n=84 v=92
165562 Off ch=14 n=56 v=64
165562 Off ch=14 n=68 v=64
165585 On ch=14 n=68 v=55
165585 On ch=14 n=80 v=74
166397 Off ch=14 n=63 v=64
166397 Off ch=14 n=75 v=64
166452 Off ch=14 n=68 v=64
166452 Off ch=14 n=80 v=64
166457 Off ch=14 n=72 v=64
166457 Off ch=14 n=84 v=64
166470 On ch=14 n=63 v=64
166470 On ch=14 n=75 v=83
166472 On ch=14 n=60 v=55
166472 On ch=14 n=72 v=74
166535 On ch=14 n=56 v=46
166535 On ch=14 n=68 v=65
167472 Off ch=14 n=68 v=64
167472 Off ch=14 n=56 v=64
167477 Off ch=14 n=75 v=64
167477 Off ch=14 n=63 v=64
167482 On ch=14 n=65 v=64
167482 On ch=14 n=77 v=83
167485 On ch=14 n=73 v=73
167485 On ch=14 n=85 v=92
167487 On ch=14 n=68 v=55
167487 On ch=14 n=80 v=74
167527 Off ch=14 n=60 v=64
167527 Off ch=14 n=72 v=64
167847 Off ch=14 n=68 v=64
167847 Off ch=14 n=80 v=64
167922 Off ch=14 n=65 v=64
167922 Off ch=14 n=77 v=64
167937 On ch=14 n=68 v=55
167937 On ch=14 n=80 v=74
167942 On ch=14 n=63 v=55
167942 On ch=14 n=75 v=74
167945 Off ch=14 n=73 v=64
167945 Off ch=14 n=85 v=64
167950 On ch=14 n=72 v=64
167950 On ch=14 n=84 v=83
168300 Off ch=14 n=68 v=64
168300 Off ch=14 n=80 v=64
168332 Off ch=14 n=63 v=64
168332 Off ch=14 n=75 v=64
168397 On ch=14 n=67 v=64
168397 On ch=14 n=79 v=83
168405 Off ch=14 n=72 v=64
168405 Off ch=14 n=84 v=64
168422 On ch=14 n=63 v=64
168422 On ch=14 n=75 v=83
168432 On ch=14 n=72 v=73
168432 On ch=14 n=84 v=92
169287 Off ch=14 n=67 v=64
169287 Off ch=14 n=79 v=64
169345 Off ch=14 n=63 v=64
169345 Off ch=14 n=75 v=64
169350 Off ch=14 n=72 v=64
169350 Off ch=14 n=84 v=64
169362 On ch=14 n=70 v=64
169362 On ch=14 n=82 v=83
169370 On ch=14 n=67 v=46
169370 On ch=14 n=79 v=65
169380 On ch=14 n=61 v=46
169380 On ch=14 n=73 v=65
169750 Off ch=14 n=79 v=64
169750 Off ch=14 n=67 v=64
169837 Off ch=14 n=61 v=64
169837 Off ch=14 n=73 v=64
169840 Off ch=14 n=82 v=64
169840 Off ch=14 n=70 v=64
169847 On ch=14 n=67 v=64
169847 On ch=14 n=79 v=83
169852 On ch=14 n=60 v=64
169852 On ch=14 n=72 v=83
169857 On ch=14 n=69 v=73
169857 On ch=14 n=81 v=92
170765 Off ch=14 n=81 v=64
170765 Off ch=14 n=69 v=64
170770 On ch=14 n=70 v=55
170770 On ch=14 n=82 v=74
170777 Off ch=14 n=79 v=64
170777 Off ch=14 n=67 v=64
170787 Off ch=14 n=60 v=64
170787 Off ch=14 n=72 v=64
170815 On ch=14 n=67 v=55
170815 On ch=14 n=79 v=74
170835 On ch=14 n=61 v=55
170835 On ch=14 n=73 v=74
171257 Off ch=14 n=79 v=64
171257 Off ch=14 n=67 v=64
171280 Off ch=14 n=70 v=64
171280 Off ch=14 n=82 v=64
171287 On ch=14 n=77 v=73
171287 On ch=14 n=89 v=92
171300 Off ch=14 n=61 v=64
171300 Off ch=14 n=73 v=64
171315 On ch=14 n=67 v=55
171315 On ch=14 n=79 v=74
171322 On ch=14 n=70 v=46
171322 On ch=14 n=82 v=65
172140 Off ch=14 n=82 v=64
172140 Off ch=14 n=70 v=64
172157 Off ch=14 n=79 v=64
172157 Off ch=14 n=67 v=64
172222 On ch=14 n=75 v=64
172222 On ch=14 n=87 v=83
172227 Off ch=14 n=77 v=64
172227 Off ch=14 n=89 v=64
172230 On ch=14 n=73 v=55
172230 On ch=14 n=85 v=74
172247 On ch=14 n=67 v=53
172247 On ch=14 n=79 v=72
172722 Off ch=14 n=85 v=64
172722 Off ch=14 n=73 v=64
172732 On ch=14 n=65 v=55
172732 On ch=14 n=77 v=74
172750 Off ch=14 n=67 v=64
172750 Off ch=14 n=79 v=64
172757 On ch=14 n=73 v=73
172757 On ch=14 n=85 v=92
172760 On ch=14 n=67 v=55
172760 On ch=14 n=79 v=74
172762 Off ch=14 n=75 v=64
172762 Off ch=14 n=87 v=64
173200 Off ch=14 n=65 v=64
173200 Off ch=14 n=77 v=64
173205 Off ch=14 n=73 v=64
173205 Off ch=14 n=85 v=64
173205 Off ch=14 n=67 v=64
173205 Off ch=14 n=79 v=64
173207 On ch=14 n=63 v=49
173207 On ch=14 n=75 v=68
173215 On ch=14 n=72 v=62
173215 On ch=14 n=84 v=81
173255 On ch=14 n=67 v=55
173255 On ch=14 n=79 v=74
173632 Off ch=14 n=79 v=64
173632 Off ch=14 n=67 v=64
173692 On ch=14 n=71 v=64
173692 On ch=14 n=83 v=83
173697 Off ch=14 n=75 v=64
173697 Off ch=14 n=63 v=64
173697 On ch=14 n=62 v=54
173697 On ch=14 n=74 v=73
173700 On ch=14 n=67 v=55
173700 On ch=14 n=79 v=74
173745 Off ch=14 n=72 v=64
173745 Off ch=14 n=84 v=64
174112 Off ch=14 n=71 v=64
174112 Off ch=14 n=83 v=64
174145 Off ch=14 n=62 v=64
174145 Off ch=14 n=74 v=64
174145 Off ch=14 n=67 v=64
174145 Off ch=14 n=79 v=64
174180 On ch=14 n=68 v=55
174180 On ch=14 n=80 v=74
174202 On ch=14 n=72 v=64
174202 On ch=14 n=84 v=83
174210 On ch=14 n=63 v=55
174210 On ch=14 n=75 v=74
175075 Off ch=14 n=72 v=64
175097 Off ch=14 n=68 v=64
175105 Off ch=14 n=63 v=64
175105 Off ch=14 n=75 v=64
175122 Off ch=14 n=80 v=64
175125 Off ch=14 n=84 v=64
175127 On ch=14 n=56 v=34
175127 On ch=14 n=60 v=64
175127 On ch=14 n=72 v=83
175127 On ch=14 n=68 v=53
175135 On ch=14 n=63 v=64
175135 On ch=14 n=75 v=83
175980 Off ch=14 n=68 v=64
175980 Off ch=14 n=56 v=64
176032 Off ch=14 n=63 v=64
176032 Off ch=14 n=75 v=64
176032 On ch=14 n=62 v=64
176032 On ch=14 n=74 v=83
176070 Off ch=14 n=60 v=64
176070 Off ch=14 n=72 v=64
176092 On ch=14 n=59 v=46
176092 On ch=14 n=71 v=65
176095 On ch=14 n=56 v=38
176095 On ch=14 n=68 v=57
176455 Off ch=14 n=68 v=64
176455 Off ch=14 n=56 v=64
176520 On ch=14 n=63 v=64
176520 On ch=14 n=75 v=83
176537 Off ch=14 n=71 v=64
176537 Off ch=14 n=59 v=64
176547 Off ch=14 n=62 v=64
176547 Off ch=14 n=74 v=64
176550 On ch=14 n=56 v=34
176550 On ch=14 n=68 v=53
176587 On ch=14 n=60 v=64
176587 On ch=14 n=72 v=83
176975 Off ch=14 n=63 v=64
176975 Off ch=14 n=75 v=64
176982 Off ch=14 n=72 v=64
176997 On ch=14 n=72 v=64
176997 On ch=14 n=84 v=83
177007 Off ch=14 n=60 v=64
177017 Off ch=14 n=68 v=64
177042 Off ch=14 n=56 v=64
177047 On ch=14 n=68 v=55
177047 On ch=14 n=80 v=74
177057 On ch=14 n=63 v=55
177057 On ch=14 n=75 v=74
177902 Off ch=14 n=80 v=64
177902 Off ch=14 n=68 v=64
177930 Off ch=14 n=63 v=64
177930 Off ch=14 n=75 v=64
177965 Off ch=14 n=72 v=64
177967 On ch=14 n=56 v=42
177967 On ch=14 n=68 v=61
177975 On ch=14 n=60 v=64
177975 On ch=14 n=72 v=83
177990 Off ch=14 n=84 v=64
177995 On ch=14 n=63 v=64
177995 On ch=14 n=75 v=83
178915 Off ch=14 n=56 v=64
178915 Off ch=14 n=68 v=64
178942 Off ch=14 n=63 v=64
178942 Off ch=14 n=75 v=64
178970 On ch=14 n=65 v=73
178970 On ch=14 n=77 v=92
179005 On ch=14 n=61 v=46
179005 On ch=14 n=73 v=65
179027 On ch=14 n=56 v=46
179027 On ch=14 n=68 v=65
179030 Off ch=14 n=60 v=64
179030 Off ch=14 n=72 v=64
179390 Off ch=14 n=56 v=64
179390 Off ch=14 n=68 v=64
179400 Off ch=14 n=61 v=64
179400 Off ch=14 n=73 v=64
179422 Off ch=14 n=65 v=64
179422 Off ch=14 n=77 v=64
179442 On ch=14 n=67 v=64
179442 On ch=14 n=79 v=83
179452 On ch=14 n=63 v=55
179452 On ch=14 n=75 v=74
179475 On ch=14 n=56 v=38
179475 On ch=14 n=68 v=57
179857 Off ch=14 n=75 v=64
179857 Off ch=14 n=63 v=64
179902 On ch=14 n=65 v=55
179902 On ch=14 n=77 v=74
179915 Off ch=14 n=79 v=64
179915 Off ch=14 n=67 v=64
179925 Off ch=14 n=56 v=64
179925 Off ch=14 n=68 v=64
179957 On ch=14 n=61 v=46
179957 On ch=14 n=73 v=65
179985 On ch=14 n=68 v=73
179985 On ch=14 n=80 v=92
180760 Off ch=14 n=65 v=64
180760 Off ch=14 n=77 v=64
180825 Off ch=14 n=68 v=64
180825 Off ch=14 n=80 v=64
180837 Off ch=14 n=61 v=64
180837 Off ch=14 n=73 v=64
180857 On ch=14 n=70 v=60
180857 On ch=14 n=82 v=79
180872 On ch=14 n=63 v=55
180872 On ch=14 n=75 v=74
180920 On ch=14 n=61 v=55
180920 On ch=14 n=73 v=74
181325 Off ch=14 n=73 v=64
181325 Off ch=14 n=61 v=64
181330 Off ch=14 n=82 v=64
181330 Off ch=14 n=70 v=64
181340 Off ch=14 n=63 v=64
181340 Off ch=14 n=75 v=64
181340 On ch=14 n=72 v=64
181340 On ch=14 n=84 v=83
181372 On ch=14 n=63 v=55
181372 On ch=14 n=75 v=74
181392 On ch=14 n=68 v=42
181392 On ch=14 n=80 v=61
182180 Off ch=14 n=80 v=64
182180 Off ch=14 n=68 v=64
182207 Off ch=14 n=75 v=64
182207 Off ch=14 n=63 v=64
182210 Off ch=14 n=84 v=64
182210 Off ch=14 n=72 v=64
182292 On ch=14 n=63 v=55
182292 On ch=14 n=75 v=74
182310 On ch=14 n=72 v=64
182310 On ch=14 n=84 v=83
182332 On ch=14 n=68 v=55
182332 On ch=14 n=80 v=74
182800 Off ch=14 n=80 v=64
182800 Off ch=14 n=68 v=64
182802 Off ch=14 n=84 v=64
182802 Off ch=14 n=72 v=64
182810 Off ch=14 n=75 v=64
182810 Off ch=14 n=63 v=64
182817 On ch=14 n=65 v=55
182817 On ch=14 n=77 v=74
182840 On ch=14 n=74 v=64
182840 On ch=14 n=86 v=83
182842 On ch=14 n=70 v=55
182842 On ch=14 n=82 v=74
183210 Off ch=14 n=77 v=64
183210 Off ch=14 n=65 v=64
183295 Off ch=14 n=74 v=64
183295 Off ch=14 n=86 v=64
183302 Off ch=14 n=70 v=64
183302 Off ch=14 n=82 v=64
183315 On ch=14 n=72 v=55
183315 On ch=14 n=84 v=74
183325 On ch=14 n=68 v=64
183325 On ch=14 n=65 v=46
183325 On ch=14 n=77 v=65
183325 On ch=14 n=80 v=83
183685 Off ch=14 n=77 v=64
183685 Off ch=14 n=65 v=64
183782 Off ch=14 n=84 v=64
183782 Off ch=14 n=72 v=64
183787 Off ch=14 n=68 v=64
183787 Off ch=14 n=80 v=64
183790 On ch=14 n=65 v=55
183790 On ch=14 n=77 v=74
183792 On ch=14 n=74 v=64
183792 On ch=14 n=86 v=83
183797 On ch=14 n=70 v=55
183797 On ch=14 n=82 v=74
184212 Off ch=14 n=77 v=64
184212 Off ch=14 n=65 v=64
184250 Off ch=14 n=74 v=64
184250 Off ch=14 n=86 v=64
184252 Off ch=14 n=70 v=64
184252 Off ch=14 n=82 v=64
184267 On ch=14 n=58 v=42
184267 On ch=14 n=70 v=61
184272 On ch=14 n=67 v=55
184272 On ch=14 n=79 v=74
184292 On ch=14 n=75 v=66
184292 On ch=14 n=87 v=85
185130 Off ch=14 n=79 v=64
185130 Off ch=14 n=67 v=64
185147 Off ch=14 n=70 v=64
185147 Off ch=14 n=58 v=64
185220 On ch=14 n=73 v=59
185220 On ch=14 n=85 v=78
185230 Off ch=14 n=75 v=64
185230 Off ch=14 n=87 v=64
185235 On ch=14 n=67 v=63
185235 On ch=14 n=79 v=82
185257 On ch=14 n=58 v=46
185257 On ch=14 n=70 v=65
185357 Off ch=14 n=73 v=64
185357 Off ch=14 n=85 v=64
185455 Off ch=14 n=58 v=64
185455 Off ch=14 n=70 v=64
185500 Off ch=14 n=67 v=64
185500 Off ch=14 n=79 v=64
267790 On ch=14 n=79 v=81
267815 On ch=14 n=91 v=72
267820 On ch=14 n=67 v=81
269202 On ch=14 n=75 v=81
269207 On ch=14 n=87 v=68
269210 On ch=14 n=63 v=72
269215 Off ch=14 n=79 v=64
269220 Off ch=14 n=67 v=64
269250 Off ch=14 n=91 v=64
270155 Off ch=14 n=75 v=64
270155 On ch=14 n=74 v=90
270162 Off ch=14 n=63 v=64
270185 On ch=14 n=62 v=81
270227 On ch=14 n=86 v=60
270242 Off ch=14 n=87 v=64
270642 On ch=14 n=72 v=90
270665 On ch=14 n=60 v=81
270670 Off ch=14 n=62 v=64
270682 Off ch=14 n=74 v=64
270700 On ch=14 n=84 v=64
270732 Off ch=14 n=86 v=64
272202 Off ch=14 n=72 v=64
272225 Off ch=14 n=60 v=64
272275 Off ch=14 n=84 v=64
272560 On ch=14 n=72 v=88
272575 On ch=14 n=60 v=80
272597 On ch=14 n=84 v=72
273042 On ch=14 n=62 v=81
273047 On ch=14 n=74 v=93
273082 Off ch=14 n=72 v=64
273085 Off ch=14 n=60 v=64
273087 On ch=14 n=86 v=81
273117 Off ch=14 n=84 v=64
273530 On ch=14 n=75 v=90
273532 Off ch=14 n=62 v=64
273535 On ch=14 n=63 v=72
273545 On ch=14 n=87 v=68
273562 Off ch=14 n=86 v=64
273580 Off ch=14 n=74 v=64
274015 Off ch=14 n=75 v=64
274015 On ch=14 n=72 v=90
274037 On ch=14 n=60 v=81
274042 Off ch=14 n=63 v=64
274062 Off ch=14 n=87 v=64
274075 On ch=14 n=84 v=68
274470 On ch=14 n=63 v=72
274477 Off ch=14 n=72 v=64
274477 On ch=14 n=75 v=90
274490 Off ch=14 n=60 v=64
274537 On ch=14 n=87 v=68
274547 Off ch=14 n=84 v=64
274942 Off ch=14 n=63 v=64
274975 On ch=14 n=67 v=81
274980 On ch=14 n=79 v=99
274997 Off ch=14 n=75 v=64
275012 On ch=14 n=91 v=81
275032 Off ch=14 n=87 v=64
275880 On ch=14 n=80 v=99
275897 On ch=14 n=68 v=72
275900 Off ch=14 n=79 v=64
275942 Off ch=14 n=67 v=64
275967 Off ch=14 n=91 v=64
275967 On ch=14 n=92 v=72
276355 On ch=14 n=79 v=90
276377 On ch=14 n=67 v=81
276395 Off ch=14 n=80 v=64
276407 Off ch=14 n=92 v=64
276430 Off ch=14 n=68 v=64
276430 On ch=14 n=91 v=72
277840 On ch=14 n=77 v=90
277865 Off ch=14 n=79 v=64
277872 On ch=14 n=65 v=87
277877 Off ch=14 n=91 v=64
277887 On ch=14 n=89 v=64
277932 Off ch=14 n=67 v=64
279020 Off ch=14 n=89 v=64
279042 Off ch=14 n=77 v=64
279105 Off ch=14 n=65 v=64
279295 On ch=14 n=89 v=72
279312 On ch=14 n=65 v=81
279315 On ch=14 n=77 v=99
280710 Off ch=14 n=89 v=64
280710 On ch=14 n=86 v=72
280717 On ch=14 n=62 v=81
280722 On ch=14 n=74 v=90
280730 Off ch=14 n=65 v=64
280745 Off ch=14 n=77 v=64
281655 On ch=14 n=72 v=90
281657 On ch=14 n=60 v=72
281672 Off ch=14 n=62 v=64
281675 Off ch=14 n=74 v=64
281690 On ch=14 n=84 v=68
281715 Off ch=14 n=86 v=64
282155 Off ch=14 n=84 v=64
282160 On ch=14 n=59 v=81
282162 On ch=14 n=83 v=72
282167 On ch=14 n=71 v=90
282185 Off ch=14 n=60 v=64
282187 Off ch=14 n=72 v=64
283740 Off ch=14 n=83 v=64
283745 Off ch=14 n=71 v=64
283767 Off ch=14 n=59 v=64
284095 On ch=14 n=55 v=81
284120 On ch=14 n=67 v=90
284125 On ch=14 n=79 v=64
284557 On ch=14 n=59 v=72
284560 On ch=14 n=83 v=72
284575 Off ch=14 n=79 v=64
284582 On ch=14 n=71 v=90
284600 Off ch=14 n=55 v=64
284645 Off ch=14 n=67 v=64
285037 On ch=14 n=86 v=81
285047 On ch=14 n=62 v=90
285060 On ch=14 n=74 v=90
285062 Off ch=14 n=83 v=64
285092 Off ch=14 n=59 v=64
285102 Off ch=14 n=71 v=64
285525 On ch=14 n=59 v=81
285532 Off ch=14 n=86 v=64
285532 Off ch=14 n=62 v=64
285540 On ch=14 n=71 v=90
285560 Off ch=14 n=74 v=64
285562 On ch=14 n=83 v=64
285982 On ch=14 n=62 v=81
286005 On ch=14 n=86 v=72
286010 On ch=14 n=74 v=90
286022 Off ch=14 n=83 v=64
286070 Off ch=14 n=59 v=64
286077 Off ch=14 n=71 v=64
286480 On ch=14 n=65 v=90
286482 On ch=14 n=89 v=72
286490 On ch=14 n=77 v=90
286507 Off ch=14 n=86 v=64
286542 Off ch=14 n=62 v=64
286555 Off ch=14 n=74 v=64
286965 On ch=14 n=79 v=99
286972 On ch=14 n=67 v=81
286997 Off ch=14 n=89 v=64
287002 Off ch=14 n=77 v=64
287007 On ch=14 n=91 v=68
287010 Off ch=14 n=65 v=64
287420 On ch=14 n=68 v=88
287445 On ch=14 n=80 v=83
287452 On ch=14 n=92 v=68
287460 Off ch=14 n=67 v=64
287462 Off ch=14 n=79 v=64
287467 Off ch=14 n=91 v=64
287942 On ch=14 n=78 v=90
287960 On ch=14 n=90 v=68
287970 Off ch=14 n=92 v=64
287970 On ch=14 n=66 v=81
288010 Off ch=14 n=80 v=64
288037 Off ch=14 n=68 v=64
289360 On ch=14 n=79 v=90
289362 On ch=14 n=91 v=72
289370 Off ch=14 n=78 v=64
289385 On ch=14 n=67 v=90
289407 Off ch=14 n=90 v=64
289430 Off ch=14 n=66 v=64
290452 Off ch=14 n=79 v=64
290492 Off ch=14 n=91 v=64
290550 Off ch=14 n=67 v=64
290792 On ch=14 n=72 v=77
290797 On ch=14 n=67 v=72
290815 On ch=14 n=75 v=72
290827 On ch=14 n=84 v=83
290852 On ch=14 n=87 v=87
290865 On ch=14 n=79 v=79
292135 Off ch=14 n=67 v=64
292172 Off ch=14 n=72 v=64
292177 Off ch=14 n=79 v=64
292195 On ch=14 n=67 v=64
292205 On ch=14 n=77 v=72
292222 On ch=14 n=65 v=72
292232 Off ch=14 n=75 v=64
292237 On ch=14 n=79 v=72
292260 Off ch=14 n=87 v=64
292260 On ch=14 n=86 v=90
292287 Off ch=14 n=84 v=64
292297 On ch=14 n=74 v=72
293177 On ch=14 n=84 v=81
293182 On ch=14 n=63 v=72
293190 On ch=14 n=75 v=81
293195 Off ch=14 n=86 v=64
293197 On ch=14 n=72 v=72
293230 Off ch=14 n=65 v=64
293232 Off ch=14 n=74 v=64
293242 Off ch=14 n=77 v=64
293552 Off ch=14 n=67 v=64
293665 On ch=14 n=65 v=68
293665 On ch=14 n=82 v=81
293667 Off ch=14 n=72 v=64
293690 Off ch=14 n=75 v=64
293692 On ch=14 n=62 v=81
293695 On ch=14 n=74 v=81
293695 On ch=14 n=70 v=72
293697 Off ch=14 n=84 v=64
293702 Off ch=14 n=63 v=64
293722 On ch=14 n=77 v=64
293752 Off ch=14 n=79 v=64
294615 On ch=14 n=80 v=72
294632 On ch=14 n=60 v=72
294637 Off ch=14 n=82 v=64
294642 On ch=14 n=68 v=68
294650 Off ch=14 n=62 v=64
294665 On ch=14 n=72 v=72
294682 Off ch=14 n=74 v=64
294702 Off ch=14 n=70 v=64
295037 Off ch=14 n=77 v=64
295045 Off ch=14 n=68 v=64
295067 Off ch=14 n=72 v=64
295070 On ch=14 n=56 v=68
295082 Off ch=14 n=65 v=64
295120 On ch=14 n=77 v=80
295125 On ch=14 n=72 v=64
295127 Off ch=14 n=60 v=64
295132 On ch=14 n=62 v=56
295132 On ch=14 n=74 v=52
295137 Off ch=14 n=80 v=64
295142 On ch=14 n=65 v=81
295157 On ch=14 n=68 v=60
296240 Off ch=14 n=77 v=64
296242 Off ch=14 n=62 v=64
296252 Off ch=14 n=72 v=64
296262 Off ch=14 n=74 v=64
296280 Off ch=14 n=68 v=64
296295 Off ch=14 n=65 v=64
296327 Off ch=14 n=56 v=64
296555 On ch=14 n=68 v=70
296585 On ch=14 n=77 v=68
296600 On ch=14 n=65 v=68
296612 On ch=14 n=80 v=72
296617 On ch=14 n=74 v=90
296637 On ch=14 n=86 v=90
297865 Off ch=14 n=80 v=64
297927 Off ch=14 n=77 v=64
297927 Off ch=14 n=68 v=64
297985 Off ch=14 n=74 v=64
297987 On ch=14 n=68 v=68
297987 On ch=14 n=63 v=72
297992 On ch=14 n=72 v=81
298007 Off ch=14 n=65 v=64
298022 On ch=14 n=84 v=81
298042 On ch=14 n=80 v=72
298045 Off ch=14 n=86 v=64
298072 On ch=14 n=75 v=72
298872 Off ch=14 n=80 v=64
298900 Off ch=14 n=68 v=64
298967 On ch=14 n=62 v=72
298967 On ch=14 n=82 v=81
298970 Off ch=14 n=84 v=64
298970 On ch=14 n=68 v=64
298972 On ch=14 n=74 v=72
298977 On ch=14 n=80 v=68
298985 On ch=14 n=70 v=72
299000 Off ch=14 n=63 v=64
299002 Off ch=14 n=75 v=64
299007 Off ch=14 n=72 v=64
299402 Off ch=14 n=82 v=64
299415 Off ch=14 n=70 v=64
299457 On ch=14 n=67 v=72
299460 On ch=14 n=82 v=81
299465 On ch=14 n=75 v=72
299470 On ch=14 n=63 v=72
299492 On ch=14 n=79 v=64
299492 On ch=14 n=70 v=72
299505 Off ch=14 n=62 v=64
299507 Off ch=14 n=74 v=64
299512 Off ch=14 n=80 v=64
299535 Off ch=14 n=68 v=64
300337 Off ch=14 n=63 v=64
300550 Off ch=14 n=82 v=64
300560 Off ch=14 n=70 v=64
300585 Off ch=14 n=75 v=64
300600 Off ch=14 n=67 v=64
300632 Off ch=14 n=79 v=64
300632 Meta TrkEnd
TrkEnd
MTrk
0 Meta TrkName "#St.String"
0 Meta 0x21 00
0 Meta 0x20 0e
0 Par ch=15 c=10 v=64
4312 On ch=15 n=48 v=86
4452 Off ch=15 n=48 v=64
4787 On ch=15 n=67 v=46
4787 On ch=15 n=55 v=58
4790 On ch=15 n=60 v=62
4797 On ch=15 n=63 v=46
4855 Off ch=15 n=60 v=64
4855 Off ch=15 n=55 v=64
4865 Off ch=15 n=67 v=64
4865 Off ch=15 n=63 v=64
5270 On ch=15 n=55 v=58
5270 On ch=15 n=60 v=62
5275 On ch=15 n=63 v=56
5277 On ch=15 n=67 v=42
5342 Off ch=15 n=67 v=64
5357 Off ch=15 n=60 v=64
5360 Off ch=15 n=55 v=64
5365 Off ch=15 n=63 v=64
5735 On ch=15 n=43 v=86
5875 Off ch=15 n=43 v=64
6220 On ch=15 n=67 v=46
6230 On ch=15 n=55 v=58
6232 On ch=15 n=60 v=62
6242 On ch=15 n=63 v=46
6302 Off ch=15 n=60 v=64
6305 Off ch=15 n=63 v=64
6310 Off ch=15 n=55 v=64
6312 Off ch=15 n=67 v=64
6710 On ch=15 n=55 v=58
6715 On ch=15 n=60 v=62
6717 On ch=15 n=63 v=56
6735 On ch=15 n=67 v=42
6785 Off ch=15 n=63 v=64
6792 Off ch=15 n=67 v=64
6800 Off ch=15 n=60 v=64
6812 Off ch=15 n=55 v=64
7160 On ch=15 n=48 v=73
7300 Off ch=15 n=48 v=64
7662 On ch=15 n=55 v=39
7667 On ch=15 n=60 v=43
7672 On ch=15 n=63 v=27
7672 On ch=15 n=67 v=27
7727 Off ch=15 n=60 v=64
7740 Off ch=15 n=63 v=64
7747 Off ch=15 n=67 v=64
7765 Off ch=15 n=55 v=64
8140 On ch=15 n=55 v=39
8142 On ch=15 n=60 v=43
8145 On ch=15 n=63 v=37
8150 On ch=15 n=67 v=23
8220 Off ch=15 n=63 v=64
8225 Off ch=15 n=60 v=64
8227 Off ch=15 n=55 v=64
8230 Off ch=15 n=67 v=64
8600 On ch=15 n=43 v=64
8740 Off ch=15 n=43 v=64
9095 On ch=15 n=55 v=39
9102 On ch=15 n=67 v=27
9105 On ch=15 n=60 v=43
9112 On ch=15 n=63 v=27
9177 Off ch=15 n=60 v=64
9195 Off ch=15 n=63 v=64
9202 Off ch=15 n=67 v=64
9202 Off ch=15 n=55 v=64
9580 On ch=15 n=55 v=39
9582 On ch=15 n=60 v=43
9585 On ch=15 n=67 v=23
9587 On ch=15 n=63 v=37
9670 Off ch=15 n=60 v=64
9670 Off ch=15 n=55 v=64
9677 Off ch=15 n=67 v=64
9680 Off ch=15 n=63 v=64
10072 On ch=15 n=48 v=64
10212 Off ch=15 n=48 v=64
10547 On ch=15 n=55 v=40
10550 On ch=15 n=60 v=44
10557 On ch=15 n=63 v=28
10615 Off ch=15 n=60 v=64
10615 Off ch=15 n=55 v=64
10625 Off ch=15 n=63 v=64
11030 On ch=15 n=55 v=40
11030 On ch=15 n=60 v=44
11035 On ch=15 n=63 v=38
11117 Off ch=15 n=60 v=64
11120 Off ch=15 n=55 v=64
11125 Off ch=15 n=63 v=64
11495 On ch=15 n=43 v=64
11635 Off ch=15 n=43 v=64
11990 On ch=15 n=55 v=40
11992 On ch=15 n=60 v=44
12002 On ch=15 n=63 v=28
12062 Off ch=15 n=60 v=64
12065 Off ch=15 n=63 v=64
12070 Off ch=15 n=55 v=64
12470 On ch=15 n=55 v=40
12475 On ch=15 n=60 v=44
12477 On ch=15 n=63 v=38
12545 Off ch=15 n=63 v=64
12560 Off ch=15 n=60 v=64
12572 Off ch=15 n=55 v=64
12920 On ch=15 n=48 v=64
13060 Off ch=15 n=48 v=64
13422 On ch=15 n=55 v=40
13427 On ch=15 n=60 v=44
13432 On ch=15 n=63 v=28
13487 Off ch=15 n=60 v=64
13500 Off ch=15 n=63 v=64
13525 Off ch=15 n=55 v=64
13900 On ch=15 n=55 v=40
13902 On ch=15 n=60 v=44
13905 On ch=15 n=63 v=38
13980 Off ch=15 n=63 v=64
13985 Off ch=15 n=60 v=64
13987 Off ch=15 n=55 v=64
14360 On ch=15 n=43 v=64
14500 Off ch=15 n=43 v=64
14855 On ch=15 n=55 v=40
14865 On ch=15 n=60 v=44
14872 On ch=15 n=63 v=28
14937 Off ch=15 n=60 v=64
14955 Off ch=15 n=63 v=64
14962 Off ch=15 n=55 v=64
15340 On ch=15 n=55 v=40
15342 On ch=15 n=60 v=44
15347 On ch=15 n=63 v=38
15430 Off ch=15 n=60 v=64
15430 Off ch=15 n=55 v=64
15440 Off ch=15 n=63 v=64
15832 On ch=15 n=48 v=64
15972 Off ch=15 n=48 v=64
16307 On ch=15 n=55 v=40
16310 On ch=15 n=60 v=44
16317 On ch=15 n=63 v=28
16375 Off ch=15 n=60 v=64
16375 Off ch=15 n=55 v=64
16385 Off ch=15 n=63 v=64
16790 On ch=15 n=55 v=40
16790 On ch=15 n=60 v=44
16795 On ch=15 n=63 v=38
16877 Off ch=15 n=60 v=64
16880 Off ch=15 n=55 v=64
16885 Off ch=15 n=63 v=64
17255 On ch=15 n=43 v=64
17395 Off ch=15 n=43 v=64
17750 On ch=15 n=55 v=40
17752 On ch=15 n=60 v=44
17762 On ch=15 n=63 v=28
17822 Off ch=15 n=60 v=64
17825 Off ch=15 n=63 v=64
17830 Off ch=15 n=55 v=64
18230 On ch=15 n=55 v=40
18235 On ch=15 n=60 v=44
18237 On ch=15 n=63 v=38
18305 Off ch=15 n=63 v=64
18320 Off ch=15 n=60 v=64
18332 Off ch=15 n=55 v=64
18680 On ch=15 n=50 v=64
18845 Off ch=15 n=50 v=64
19182 On ch=15 n=56 v=40
19187 On ch=15 n=60 v=44
19192 On ch=15 n=65 v=28
19247 Off ch=15 n=60 v=64
19260 Off ch=15 n=65 v=64
19285 Off ch=15 n=56 v=64
19660 On ch=15 n=56 v=40
19662 On ch=15 n=60 v=44
19665 On ch=15 n=65 v=38
19740 Off ch=15 n=65 v=64
19745 Off ch=15 n=60 v=64
19747 Off ch=15 n=56 v=64
20120 On ch=15 n=43 v=64
20260 Off ch=15 n=43 v=64
20615 On ch=15 n=56 v=40
20625 On ch=15 n=60 v=44
20632 On ch=15 n=65 v=28
20697 Off ch=15 n=60 v=64
20715 Off ch=15 n=65 v=64
20722 Off ch=15 n=56 v=64
21100 On ch=15 n=56 v=40
21102 On ch=15 n=60 v=44
21107 On ch=15 n=65 v=38
21190 Off ch=15 n=60 v=64
21190 Off ch=15 n=56 v=64
21200 Off ch=15 n=65 v=64
21592 On ch=15 n=50 v=64
21757 Off ch=15 n=50 v=64
22067 On ch=15 n=56 v=40
22070 On ch=15 n=60 v=44
22077 On ch=15 n=65 v=28
22135 Off ch=15 n=60 v=64
22135 Off ch=15 n=56 v=64
22145 Off ch=15 n=65 v=64
22550 On ch=15 n=56 v=40
22550 On ch=15 n=60 v=44
22555 On ch=15 n=65 v=38
22637 Off ch=15 n=60 v=64
22640 Off ch=15 n=56 v=64
22645 Off ch=15 n=65 v=64
23015 On ch=15 n=43 v=64
23155 Off ch=15 n=43 v=64
23510 On ch=15 n=56 v=40
23512 On ch=15 n=60 v=44
23522 On ch=15 n=65 v=28
23582 Off ch=15 n=60 v=64
23585 Off ch=15 n=65 v=64
23590 Off ch=15 n=56 v=64
23990 On ch=15 n=56 v=40
23995 On ch=15 n=60 v=44
23997 On ch=15 n=65 v=38
24065 Off ch=15 n=65 v=64
24080 Off ch=15 n=60 v=64
24092 Off ch=15 n=56 v=64
24440 On ch=15 n=50 v=64
24605 Off ch=15 n=50 v=64
24942 On ch=15 n=55 v=40
24947 On ch=15 n=59 v=44
24952 On ch=15 n=65 v=28
24962 On ch=15 n=67 v=28
25007 Off ch=15 n=59 v=64
25020 Off ch=15 n=65 v=64
25025 Off ch=15 n=67 v=64
25045 Off ch=15 n=55 v=64
25420 On ch=15 n=55 v=40
25422 On ch=15 n=59 v=44
25425 On ch=15 n=65 v=38
25437 On ch=15 n=67 v=38
25500 Off ch=15 n=65 v=64
25505 Off ch=15 n=59 v=64
25505 Off ch=15 n=67 v=64
25507 Off ch=15 n=55 v=64
25880 On ch=15 n=43 v=64
26020 Off ch=15 n=43 v=64
26375 On ch=15 n=55 v=40
26385 On ch=15 n=59 v=44
26392 On ch=15 n=65 v=28
26402 On ch=15 n=67 v=28
26457 Off ch=15 n=59 v=64
26465 Off ch=15 n=67 v=64
26475 Off ch=15 n=65 v=64
26482 Off ch=15 n=55 v=64
26860 On ch=15 n=55 v=40
26862 On ch=15 n=59 v=44
26867 On ch=15 n=65 v=38
26877 On ch=15 n=67 v=38
26945 Off ch=15 n=67 v=64
26950 Off ch=15 n=59 v=64
26950 Off ch=15 n=55 v=64
26960 Off ch=15 n=65 v=64
27352 On ch=15 n=50 v=64
27517 Off ch=15 n=50 v=64
27827 On ch=15 n=55 v=40
27830 On ch=15 n=59 v=44
27837 On ch=15 n=65 v=28
27842 On ch=15 n=67 v=28
27895 Off ch=15 n=59 v=64
27895 Off ch=15 n=55 v=64
27905 Off ch=15 n=65 v=64
27905 Off ch=15 n=67 v=64
28310 On ch=15 n=55 v=40
28310 On ch=15 n=59 v=44
28315 On ch=15 n=65 v=38
28317 On ch=15 n=67 v=38
28385 Off ch=15 n=67 v=64
28397 Off ch=15 n=59 v=64
28400 Off ch=15 n=55 v=64
28405 Off ch=15 n=65 v=64
28775 On ch=15 n=43 v=64
28915 Off ch=15 n=43 v=64
29270 On ch=15 n=55 v=40
29272 On ch=15 n=59 v=44
29282 On ch=15 n=67 v=28
29282 On ch=15 n=65 v=28
29342 Off ch=15 n=59 v=64
29345 Off ch=15 n=67 v=64
29345 Off ch=15 n=65 v=64
29350 Off ch=15 n=55 v=64
29750 On ch=15 n=55 v=40
29755 On ch=15 n=59 v=44
29757 On ch=15 n=67 v=38
29757 On ch=15 n=65 v=38
29825 Off ch=15 n=65 v=64
29825 Off ch=15 n=67 v=64
29840 Off ch=15 n=59 v=64
29852 Off ch=15 n=55 v=64
30200 On ch=15 n=48 v=64
30340 Off ch=15 n=48 v=64
30702 On ch=15 n=55 v=40
30707 On ch=15 n=60 v=44
30712 On ch=15 n=63 v=28
30767 Off ch=15 n=60 v=64
30780 Off ch=15 n=63 v=64
30805 Off ch=15 n=55 v=64
31180 On ch=15 n=55 v=40
31182 On ch=15 n=60 v=44
31185 On ch=15 n=63 v=38
31260 Off ch=15 n=63 v=64
31265 Off ch=15 n=60 v=64
31267 Off ch=15 n=55 v=64
31640 On ch=15 n=43 v=64
31780 Off ch=15 n=43 v=64
32135 On ch=15 n=55 v=40
32145 On ch=15 n=60 v=44
32152 On ch=15 n=63 v=28
32217 Off ch=15 n=60 v=64
32235 Off ch=15 n=63 v=64
32242 Off ch=15 n=55 v=64
32620 On ch=15 n=55 v=40
32622 On ch=15 n=60 v=44
32627 On ch=15 n=63 v=38
32710 Off ch=15 n=60 v=64
32710 Off ch=15 n=55 v=64
32720 Off ch=15 n=63 v=64
33112 On ch=15 n=48 v=64
33252 Off ch=15 n=48 v=64
33587 On ch=15 n=55 v=40
33590 On ch=15 n=60 v=44
33597 On ch=15 n=63 v=28
33655 Off ch=15 n=60 v=64
33655 Off ch=15 n=55 v=64
33665 Off ch=15 n=63 v=64
34070 On ch=15 n=55 v=40
34070 On ch=15 n=60 v=44
34075 On ch=15 n=63 v=38
34157 Off ch=15 n=60 v=64
34160 Off ch=15 n=55 v=64
34165 Off ch=15 n=63 v=64
34535 On ch=15 n=43 v=64
34675 Off ch=15 n=43 v=64
35030 On ch=15 n=55 v=40
35032 On ch=15 n=60 v=44
35042 On ch=15 n=63 v=28
35102 Off ch=15 n=60 v=64
35105 Off ch=15 n=63 v=64
35110 Off ch=15 n=55 v=64
35510 On ch=15 n=55 v=40
35515 On ch=15 n=60 v=44
35517 On ch=15 n=63 v=38
35585 Off ch=15 n=63 v=64
35600 Off ch=15 n=60 v=64
35612 Off ch=15 n=55 v=64
35960 On ch=15 n=53 v=64
36100 Off ch=15 n=53 v=64
36462 On ch=15 n=56 v=40
36467 On ch=15 n=60 v=44
36472 On ch=15 n=65 v=28
36527 Off ch=15 n=60 v=64
36540 Off ch=15 n=65 v=64
36565 Off ch=15 n=56 v=64
36940 On ch=15 n=56 v=40
36942 On ch=15 n=60 v=44
36945 On ch=15 n=65 v=38
37020 Off ch=15 n=65 v=64
37025 Off ch=15 n=60 v=64
37027 Off ch=15 n=56 v=64
37400 On ch=15 n=53 v=64
37540 Off ch=15 n=53 v=64
37895 On ch=15 n=56 v=40
37905 On ch=15 n=60 v=44
37912 On ch=15 n=65 v=28
37977 Off ch=15 n=60 v=64
37995 Off ch=15 n=65 v=64
38002 Off ch=15 n=56 v=64
38380 On ch=15 n=56 v=40
38382 On ch=15 n=60 v=44
38387 On ch=15 n=65 v=38
38470 Off ch=15 n=60 v=64
38470 Off ch=15 n=56 v=64
38480 Off ch=15 n=65 v=64
38872 On ch=15 n=46 v=64
39012 Off ch=15 n=46 v=64
39347 On ch=15 n=56 v=40
39350 On ch=15 n=62 v=44
39357 On ch=15 n=65 v=28
39415 Off ch=15 n=62 v=64
39415 Off ch=15 n=56 v=64
39425 Off ch=15 n=65 v=64
39830 On ch=15 n=56 v=40
39830 On ch=15 n=62 v=44
39835 On ch=15 n=65 v=38
39917 Off ch=15 n=62 v=64
39920 Off ch=15 n=56 v=64
39925 Off ch=15 n=65 v=64
40295 On ch=15 n=46 v=64
40435 Off ch=15 n=46 v=64
40790 On ch=15 n=56 v=40
40792 On ch=15 n=62 v=44
40802 On ch=15 n=65 v=28
40862 Off ch=15 n=62 v=64
40865 Off ch=15 n=65 v=64
40870 Off ch=15 n=56 v=64
41270 On ch=15 n=56 v=40
41275 On ch=15 n=62 v=44
41277 On ch=15 n=65 v=38
41345 Off ch=15 n=65 v=64
41360 Off ch=15 n=62 v=64
41372 Off ch=15 n=56 v=64
41720 On ch=15 n=51 v=64
41860 Off ch=15 n=51 v=64
42222 On ch=15 n=55 v=40
42227 On ch=15 n=58 v=44
42232 On ch=15 n=67 v=28
42232 On ch=15 n=63 v=28
42287 Off ch=15 n=58 v=64
42300 Off ch=15 n=67 v=64
42300 Off ch=15 n=63 v=64
42325 Off ch=15 n=55 v=64
42700 On ch=15 n=55 v=40
42702 On ch=15 n=58 v=44
42705 On ch=15 n=67 v=38
42705 On ch=15 n=63 v=38
42780 Off ch=15 n=63 v=64
42780 Off ch=15 n=67 v=64
42785 Off ch=15 n=58 v=64
42787 Off ch=15 n=55 v=64
43160 On ch=15 n=44 v=64
43300 Off ch=15 n=44 v=64
43642 On ch=15 n=55 v=40
43652 On ch=15 n=60 v=44
43652 On ch=15 n=63 v=44
43725 Off ch=15 n=63 v=64
43725 Off ch=15 n=60 v=64
43750 Off ch=15 n=55 v=64
44127 On ch=15 n=55 v=40
44130 On ch=15 n=62 v=44
44130 On ch=15 n=65 v=44
44135 On ch=15 n=60 v=38
44217 Off ch=15 n=65 v=64
44217 Off ch=15 n=62 v=64
44217 Off ch=15 n=55 v=64
44227 Off ch=15 n=60 v=64
44632 On ch=15 n=43 v=64
44772 Off ch=15 n=43 v=64
45095 On ch=15 n=55 v=40
45097 On ch=15 n=63 v=44
45097 On ch=15 n=60 v=34
45105 On ch=15 n=67 v=44
45162 Off ch=15 n=60 v=64
45162 Off ch=15 n=63 v=64
45162 Off ch=15 n=55 v=64
45180 Off ch=15 n=67 v=64
45577 On ch=15 n=63 v=44
45577 On ch=15 n=55 v=40
45577 On ch=15 n=60 v=34
45582 On ch=15 n=67 v=44
45665 Off ch=15 n=60 v=64
45665 Off ch=15 n=63 v=64
45667 Off ch=15 n=55 v=64
45672 Off ch=15 n=67 v=64
46055 On ch=15 n=44 v=64
46195 Off ch=15 n=44 v=64
46537 On ch=15 n=62 v=44
46537 On ch=15 n=56 v=40
46540 On ch=15 n=60 v=34
46550 On ch=15 n=65 v=44
46602 Off ch=15 n=62 v=64
46610 Off ch=15 n=60 v=64
46617 Off ch=15 n=56 v=64
46620 Off ch=15 n=65 v=64
47017 On ch=15 n=62 v=44
47017 On ch=15 n=56 v=40
47022 On ch=15 n=60 v=34
47025 On ch=15 n=65 v=38
47092 Off ch=15 n=65 v=64
47105 Off ch=15 n=62 v=64
47107 Off ch=15 n=60 v=64
47120 Off ch=15 n=56 v=64
47480 On ch=15 n=43 v=64
47620 Off ch=15 n=43 v=64
47975 On ch=15 n=55 v=40
47977 On ch=15 n=63 v=44
47977 On ch=15 n=60 v=34
47985 On ch=15 n=67 v=44
48042 Off ch=15 n=60 v=64
48042 Off ch=15 n=63 v=64
48042 Off ch=15 n=55 v=64
48060 Off ch=15 n=67 v=64
48457 On ch=15 n=63 v=44
48457 On ch=15 n=55 v=40
48457 On ch=15 n=60 v=34
48462 On ch=15 n=67 v=44
48545 Off ch=15 n=60 v=64
48545 Off ch=15 n=63 v=64
48547 Off ch=15 n=55 v=64
48552 Off ch=15 n=67 v=64
48920 On ch=15 n=44 v=64
49060 Off ch=15 n=44 v=64
49402 On ch=15 n=55 v=40
49412 On ch=15 n=60 v=44
49412 On ch=15 n=63 v=44
49485 Off ch=15 n=63 v=64
49485 Off ch=15 n=60 v=64
49510 Off ch=15 n=55 v=64
49887 On ch=15 n=55 v=40
49890 On ch=15 n=62 v=44
49890 On ch=15 n=65 v=44
49895 On ch=15 n=60 v=38
49977 Off ch=15 n=65 v=64
49977 Off ch=15 n=62 v=64
49977 Off ch=15 n=55 v=64
49987 Off ch=15 n=60 v=64
50392 On ch=15 n=43 v=64
50532 Off ch=15 n=43 v=64
50855 On ch=15 n=55 v=40
50857 On ch=15 n=63 v=44
50857 On ch=15 n=60 v=34
50865 On ch=15 n=67 v=44
50922 Off ch=15 n=60 v=64
50922 Off ch=15 n=63 v=64
50922 Off ch=15 n=55 v=64
50940 Off ch=15 n=67 v=64
51337 On ch=15 n=63 v=44
51337 On ch=15 n=55 v=40
51337 On ch=15 n=60 v=34
51342 On ch=15 n=67 v=44
51425 Off ch=15 n=60 v=64
51425 Off ch=15 n=63 v=64
51427 Off ch=15 n=55 v=64
51432 Off ch=15 n=67 v=64
51815 On ch=15 n=44 v=64
51955 Off ch=15 n=44 v=64
52297 On ch=15 n=62 v=44
52297 On ch=15 n=56 v=40
52300 On ch=15 n=60 v=34
52310 On ch=15 n=65 v=44
52362 Off ch=15 n=62 v=64
52370 Off ch=15 n=60 v=64
52377 Off ch=15 n=56 v=64
52380 Off ch=15 n=65 v=64
52777 On ch=15 n=62 v=44
52777 On ch=15 n=56 v=40
52782 On ch=15 n=60 v=34
52785 On ch=15 n=65 v=38
52852 Off ch=15 n=65 v=64
52865 Off ch=15 n=62 v=64
52867 Off ch=15 n=60 v=64
52880 Off ch=15 n=56 v=64
53240 On ch=15 n=43 v=64
53380 Off ch=15 n=43 v=64
53735 On ch=15 n=55 v=40
53737 On ch=15 n=63 v=44
53737 On ch=15 n=60 v=34
53745 On ch=15 n=67 v=44
53802 Off ch=15 n=60 v=64
53802 Off ch=15 n=63 v=64
53802 Off ch=15 n=55 v=64
53820 Off ch=15 n=67 v=64
54217 On ch=15 n=63 v=44
54217 On ch=15 n=55 v=40
54217 On ch=15 n=60 v=34
54222 On ch=15 n=67 v=44
54305 Off ch=15 n=60 v=64
54305 Off ch=15 n=63 v=64
54307 Off ch=15 n=55 v=64
54312 Off ch=15 n=67 v=64
54680 On ch=15 n=44 v=64
54820 Off ch=15 n=44 v=64
55162 On ch=15 n=55 v=40
55172 On ch=15 n=60 v=44
55172 On ch=15 n=63 v=44
55245 Off ch=15 n=63 v=64
55245 Off ch=15 n=60 v=64
55270 Off ch=15 n=55 v=64
55647 On ch=15 n=55 v=40
55650 On ch=15 n=62 v=44
55650 On ch=15 n=65 v=44
55655 On ch=15 n=60 v=38
55737 Off ch=15 n=65 v=64
55737 Off ch=15 n=62 v=64
55737 Off ch=15 n=55 v=64
55747 Off ch=15 n=60 v=64
56152 On ch=15 n=43 v=64
56292 Off ch=15 n=43 v=64
56615 On ch=15 n=55 v=40
56617 On ch=15 n=63 v=44
56617 On ch=15 n=60 v=34
56625 On ch=15 n=67 v=44
56682 Off ch=15 n=60 v=64
56682 Off ch=15 n=63 v=64
56682 Off ch=15 n=55 v=64
56700 Off ch=15 n=67 v=64
57097 On ch=15 n=63 v=44
57097 On ch=15 n=55 v=40
57097 On ch=15 n=60 v=34
57102 On ch=15 n=67 v=44
57185 Off ch=15 n=60 v=64
57185 Off ch=15 n=63 v=64
57187 Off ch=15 n=55 v=64
57192 Off ch=15 n=67 v=64
57575 On ch=15 n=43 v=64
57715 Off ch=15 n=43 v=64
58057 On ch=15 n=62 v=44
58057 On ch=15 n=55 v=40
58060 On ch=15 n=59 v=34
58070 On ch=15 n=67 v=44
58070 On ch=15 n=65 v=44
58122 Off ch=15 n=62 v=64
58130 Off ch=15 n=59 v=64
58137 Off ch=15 n=55 v=64
58140 Off ch=15 n=67 v=64
58140 Off ch=15 n=65 v=64
58537 On ch=15 n=62 v=44
58537 On ch=15 n=55 v=40
58542 On ch=15 n=59 v=34
58545 On ch=15 n=67 v=38
58545 On ch=15 n=65 v=38
58612 Off ch=15 n=65 v=64
58612 Off ch=15 n=67 v=64
58625 Off ch=15 n=62 v=64
58627 Off ch=15 n=59 v=64
58640 Off ch=15 n=55 v=64
59017 On ch=15 n=63 v=44
59017 On ch=15 n=55 v=40
59022 On ch=15 n=60 v=44
59025 On ch=15 n=67 v=58
59032 On ch=15 n=48 v=73
59105 Off ch=15 n=63 v=64
59107 Off ch=15 n=60 v=64
59117 Off ch=15 n=67 v=64
59120 Off ch=15 n=55 v=64
59172 Off ch=15 n=48 v=64
60455 On ch=15 n=43 v=73
60595 Off ch=15 n=43 v=64
61880 On ch=15 n=48 v=73
62020 Off ch=15 n=48 v=64
63320 On ch=15 n=43 v=73
63460 Off ch=15 n=43 v=64
64792 On ch=15 n=48 v=73
64932 Off ch=15 n=48 v=64
66215 On ch=15 n=43 v=73
66355 Off ch=15 n=43 v=64
67640 On ch=15 n=48 v=73
67780 Off ch=15 n=48 v=64
69080 On ch=15 n=43 v=73
69220 Off ch=15 n=43 v=64
70552 On ch=15 n=48 v=73
70692 Off ch=15 n=48 v=64
71975 On ch=15 n=43 v=73
72115 Off ch=15 n=43 v=64
73400 On ch=15 n=50 v=73
73565 Off ch=15 n=50 v=64
74840 On ch=15 n=43 v=73
74980 Off ch=15 n=43 v=64
76312 On ch=15 n=50 v=73
76477 Off ch=15 n=50 v=64
77735 On ch=15 n=43 v=73
77875 Off ch=15 n=43 v=64
79160 On ch=15 n=50 v=73
79325 Off ch=15 n=50 v=64
80600 On ch=15 n=43 v=73
80740 Off ch=15 n=43 v=64
82072 On ch=15 n=50 v=73
82237 Off ch=15 n=50 v=64
83495 On ch=15 n=43 v=73
83635 Off ch=15 n=43 v=64
84920 On ch=15 n=48 v=73
85060 Off ch=15 n=48 v=64
86360 On ch=15 n=43 v=73
86500 Off ch=15 n=43 v=64
87832 On ch=15 n=48 v=73
87972 Off ch=15 n=48 v=64
89255 On ch=15 n=43 v=73
89395 Off ch=15 n=43 v=64
90680 On ch=15 n=53 v=73
90820 Off ch=15 n=53 v=64
92120 On ch=15 n=53 v=73
92260 Off ch=15 n=53 v=64
93592 On ch=15 n=46 v=73
93732 Off ch=15 n=46 v=64
95015 On ch=15 n=46 v=73
95155 Off ch=15 n=46 v=64
96440 On ch=15 n=51 v=73
96580 Off ch=15 n=51 v=64
97880 On ch=15 n=44 v=73
98020 Off ch=15 n=44 v=64
98360 On ch=15 n=72 v=60
98360 On ch=15 n=63 v=60
98430 Off ch=15 n=72 v=64
98462 Off ch=15 n=63 v=64
98802 On ch=15 n=65 v=56
98805 On ch=15 n=74 v=60
98902 Off ch=15 n=74 v=64
98907 Off ch=15 n=65 v=64
99300 On ch=15 n=67 v=73
99305 On ch=15 n=75 v=73
99352 On ch=15 n=43 v=64
99402 Off ch=15 n=75 v=64
99415 Off ch=15 n=67 v=64
99492 Off ch=15 n=43 v=64
99787 On ch=15 n=75 v=73
99790 On ch=15 n=67 v=73
99952 Off ch=15 n=67 v=64
99957 Off ch=15 n=75 v=64
100015 On ch=15 n=74 v=64
100017 On ch=15 n=65 v=52
100127 Off ch=15 n=65 v=64
100127 Off ch=15 n=74 v=64
100237 On ch=15 n=75 v=73
100250 On ch=15 n=67 v=73
100362 Off ch=15 n=75 v=64
100395 Off ch=15 n=67 v=64
100475 On ch=15 n=77 v=60
100485 On ch=15 n=68 v=52
100612 Off ch=15 n=77 v=64
100657 Off ch=15 n=68 v=64
100710 On ch=15 n=74 v=73
100712 On ch=15 n=65 v=64
100775 On ch=15 n=44 v=64
100820 Off ch=15 n=65 v=64
100825 Off ch=15 n=74 v=64
100915 Off ch=15 n=44 v=64
101205 On ch=15 n=65 v=73
101212 On ch=15 n=74 v=64
101352 Off ch=15 n=65 v=64
101385 Off ch=15 n=74 v=64
101422 On ch=15 n=72 v=60
101472 On ch=15 n=63 v=48
101545 Off ch=15 n=72 v=64
101570 Off ch=15 n=63 v=64
101660 On ch=15 n=74 v=73
101665 On ch=15 n=65 v=64
101800 Off ch=15 n=74 v=64
101805 Off ch=15 n=65 v=64
101895 On ch=15 n=75 v=56
101925 On ch=15 n=67 v=56
102025 Off ch=15 n=75 v=64
102070 Off ch=15 n=67 v=64
102115 On ch=15 n=72 v=82
102132 On ch=15 n=63 v=60
102200 On ch=15 n=43 v=64
102235 Off ch=15 n=72 v=64
102247 Off ch=15 n=63 v=64
102340 Off ch=15 n=43 v=64
103122 On ch=15 n=67 v=64
103135 On ch=15 n=75 v=73
103227 Off ch=15 n=67 v=64
103242 Off ch=15 n=75 v=64
103640 On ch=15 n=44 v=64
103780 Off ch=15 n=44 v=64
104062 On ch=15 n=63 v=64
104085 On ch=15 n=72 v=73
104167 Off ch=15 n=63 v=64
104172 Off ch=15 n=72 v=64
104562 On ch=15 n=65 v=64
104572 On ch=15 n=74 v=64
104672 Off ch=15 n=65 v=64
104687 Off ch=15 n=74 v=64
105065 On ch=15 n=67 v=64
105075 On ch=15 n=75 v=64
105112 On ch=15 n=43 v=64
105170 Off ch=15 n=75 v=64
105175 Off ch=15 n=67 v=64
105252 Off ch=15 n=43 v=64
105562 On ch=15 n=67 v=73
105582 On ch=15 n=75 v=73
105730 Off ch=15 n=75 v=64
105740 Off ch=15 n=67 v=64
105795 On ch=15 n=65 v=56
105805 On ch=15 n=74 v=52
105880 Off ch=15 n=74 v=64
105890 Off ch=15 n=65 v=64
106012 On ch=15 n=75 v=73
106032 On ch=15 n=67 v=73
106150 Off ch=15 n=75 v=64
106170 Off ch=15 n=67 v=64
106265 On ch=15 n=77 v=60
106265 On ch=15 n=68 v=64
106400 Off ch=15 n=77 v=64
106442 Off ch=15 n=68 v=64
106485 On ch=15 n=74 v=64
106487 On ch=15 n=65 v=64
106535 On ch=15 n=44 v=64
106587 Off ch=15 n=74 v=64
106597 Off ch=15 n=65 v=64
106675 Off ch=15 n=44 v=64
106975 On ch=15 n=74 v=73
106985 On ch=15 n=65 v=73
107120 Off ch=15 n=74 v=64
107157 Off ch=15 n=65 v=64
107217 On ch=15 n=72 v=52
107240 On ch=15 n=63 v=52
107335 Off ch=15 n=72 v=64
107360 Off ch=15 n=63 v=64
107437 On ch=15 n=74 v=64
107442 On ch=15 n=65 v=60
107565 Off ch=15 n=74 v=64
107612 Off ch=15 n=65 v=64
107655 On ch=15 n=75 v=64
107707 On ch=15 n=67 v=56
107795 Off ch=15 n=75 v=64
107890 Off ch=15 n=67 v=64
107892 On ch=15 n=72 v=73
107900 On ch=15 n=63 v=64
107960 On ch=15 n=43 v=64
108007 Off ch=15 n=72 v=64
108017 Off ch=15 n=63 v=64
108100 Off ch=15 n=43 v=64
108892 On ch=15 n=67 v=73
108897 On ch=15 n=75 v=73
108995 Off ch=15 n=75 v=64
109002 Off ch=15 n=67 v=64
109400 On ch=15 n=44 v=64
109540 Off ch=15 n=44 v=64
109845 On ch=15 n=63 v=73
109865 On ch=15 n=72 v=64
109912 On ch=15 n=84 v=60
109952 Off ch=15 n=72 v=64
109972 Off ch=15 n=63 v=64
109987 Off ch=15 n=84 v=64
110330 On ch=15 n=86 v=73
110347 On ch=15 n=74 v=73
110347 On ch=15 n=65 v=73
110432 Off ch=15 n=86 v=64
110445 Off ch=15 n=74 v=64
110465 Off ch=15 n=65 v=64
110820 On ch=15 n=87 v=64
110827 On ch=15 n=67 v=73
110847 On ch=15 n=75 v=73
110872 On ch=15 n=43 v=64
110930 Off ch=15 n=75 v=64
110935 Off ch=15 n=87 v=64
110950 Off ch=15 n=67 v=64
111012 Off ch=15 n=43 v=64
111320 On ch=15 n=87 v=73
111325 On ch=15 n=67 v=73
111345 On ch=15 n=75 v=64
111467 Off ch=15 n=75 v=64
111470 Off ch=15 n=87 v=64
111512 Off ch=15 n=67 v=64
111555 On ch=15 n=74 v=64
111557 On ch=15 n=86 v=64
111557 On ch=15 n=65 v=60
111670 Off ch=15 n=65 v=64
111670 Off ch=15 n=74 v=64
111675 Off ch=15 n=86 v=64
111757 On ch=15 n=87 v=73
111782 On ch=15 n=75 v=73
111785 On ch=15 n=67 v=73
111890 Off ch=15 n=87 v=64
111900 Off ch=15 n=75 v=64
111932 Off ch=15 n=67 v=64
111977 On ch=15 n=89 v=64
112010 On ch=15 n=68 v=56
112012 On ch=15 n=77 v=60
112120 Off ch=15 n=89 v=64
112150 Off ch=15 n=77 v=64
112200 Off ch=15 n=68 v=64
112205 On ch=15 n=86 v=73
112225 On ch=15 n=74 v=82
112232 On ch=15 n=65 v=60
112295 On ch=15 n=43 v=64
112312 Off ch=15 n=86 v=64
112345 Off ch=15 n=74 v=64
112355 Off ch=15 n=65 v=64
112435 Off ch=15 n=43 v=64
112707 On ch=15 n=74 v=82
112715 On ch=15 n=86 v=73
112732 On ch=15 n=65 v=79
112867 Off ch=15 n=74 v=64
112892 Off ch=15 n=86 v=64
112892 Off ch=15 n=65 v=64
112950 On ch=15 n=72 v=60
112952 On ch=15 n=84 v=56
112990 On ch=15 n=63 v=52
113072 Off ch=15 n=72 v=64
113087 Off ch=15 n=84 v=64
113112 Off ch=15 n=63 v=64
113177 On ch=15 n=74 v=73
113187 On ch=15 n=86 v=82
113215 On ch=15 n=65 v=64
113322 Off ch=15 n=74 v=64
113345 Off ch=15 n=86 v=64
113400 Off ch=15 n=65 v=64
113417 On ch=15 n=87 v=64
113420 On ch=15 n=75 v=73
113460 On ch=15 n=67 v=64
113580 Off ch=15 n=87 v=64
113582 Off ch=15 n=75 v=64
113617 Off ch=15 n=67 v=64
113640 On ch=15 n=84 v=91
113665 On ch=15 n=63 v=73
113672 On ch=15 n=72 v=82
113735 On ch=15 n=48 v=73
113742 Off ch=15 n=84 v=64
113792 Off ch=15 n=72 v=64
113800 Off ch=15 n=63 v=64
113927 Off ch=15 n=48 v=64
114212 On ch=15 n=43 v=73
114360 Off ch=15 n=43 v=64
114697 On ch=15 n=39 v=73
114897 Off ch=15 n=39 v=64
115172 On ch=15 n=36 v=82
115375 Off ch=15 n=36 v=64
116097 On ch=15 n=46 v=82
116102 On ch=15 n=34 v=80
116352 Off ch=15 n=46 v=64
116495 Off ch=15 n=34 v=64
116582 On ch=15 n=39 v=96
116585 On ch=15 n=51 v=91
116600 On ch=15 n=43 v=80
116840 Off ch=15 n=43 v=64
116855 Off ch=15 n=51 v=64
117125 Off ch=15 n=39 v=64
118022 On ch=15 n=34 v=80
118025 On ch=15 n=46 v=73
118295 Off ch=15 n=46 v=64
118415 Off ch=15 n=34 v=64
119462 On ch=15 n=39 v=80
119465 On ch=15 n=51 v=73
119735 Off ch=15 n=51 v=64
119847 Off ch=15 n=39 v=64
120902 On ch=15 n=34 v=80
120905 On ch=15 n=46 v=73
121175 Off ch=15 n=46 v=64
121292 Off ch=15 n=34 v=64
122342 On ch=15 n=41 v=80
122345 On ch=15 n=53 v=73
122615 Off ch=15 n=53 v=64
122727 Off ch=15 n=41 v=64
123782 On ch=15 n=34 v=80
123785 On ch=15 n=46 v=73
124055 Off ch=15 n=46 v=64
124172 Off ch=15 n=34 v=64
125222 On ch=15 n=39 v=80
125225 On ch=15 n=51 v=73
125495 Off ch=15 n=51 v=64
125607 Off ch=15 n=39 v=64
126662 On ch=15 n=34 v=80
126665 On ch=15 n=46 v=73
126935 Off ch=15 n=46 v=64
127052 Off ch=15 n=34 v=64
128102 On ch=15 n=36 v=80
128105 On ch=15 n=48 v=73
128375 Off ch=15 n=48 v=64
128487 Off ch=15 n=36 v=64
129542 On ch=15 n=36 v=80
129545 On ch=15 n=48 v=73
129815 Off ch=15 n=48 v=64
129932 Off ch=15 n=36 v=64
130982 On ch=15 n=41 v=80
130985 On ch=15 n=53 v=73
131255 Off ch=15 n=53 v=64
131367 Off ch=15 n=41 v=64
132422 On ch=15 n=32 v=80
132425 On ch=15 n=44 v=73
132695 Off ch=15 n=44 v=64
132812 Off ch=15 n=32 v=64
133862 On ch=15 n=39 v=80
133865 On ch=15 n=51 v=73
134135 Off ch=15 n=51 v=64
134247 Off ch=15 n=39 v=64
135302 On ch=15 n=34 v=80
135305 On ch=15 n=46 v=73
135575 Off ch=15 n=46 v=64
135692 Off ch=15 n=34 v=64
136742 On ch=15 n=39 v=80
136745 On ch=15 n=51 v=73
137015 Off ch=15 n=51 v=64
137127 Off ch=15 n=39 v=64
138182 On ch=15 n=34 v=80
138185 On ch=15 n=46 v=73
139187 Off ch=15 n=46 v=64
139225 Off ch=15 n=34 v=64
139622 On ch=15 n=39 v=80
139625 On ch=15 n=51 v=73
140170 Off ch=15 n=51 v=64
140217 Off ch=15 n=39 v=64
141062 On ch=15 n=34 v=80
141065 On ch=15 n=46 v=73
141335 Off ch=15 n=46 v=64
141455 Off ch=15 n=34 v=64
142502 On ch=15 n=39 v=80
142505 On ch=15 n=51 v=73
142775 Off ch=15 n=51 v=64
142887 Off ch=15 n=39 v=64
143942 On ch=15 n=34 v=80
143945 On ch=15 n=46 v=73
144215 Off ch=15 n=46 v=64
144332 Off ch=15 n=34 v=64
145382 On ch=15 n=41 v=80
145385 On ch=15 n=53 v=73
145655 Off ch=15 n=53 v=64
145767 Off ch=15 n=41 v=64
146822 On ch=15 n=34 v=80
146825 On ch=15 n=46 v=73
147095 Off ch=15 n=46 v=64
147212 Off ch=15 n=34 v=64
148262 On ch=15 n=39 v=80
148265 On ch=15 n=51 v=73
148535 Off ch=15 n=51 v=64
148647 Off ch=15 n=39 v=64
149702 On ch=15 n=34 v=80
149705 On ch=15 n=46 v=73
149975 Off ch=15 n=46 v=64
150092 Off ch=15 n=34 v=64
151142 On ch=15 n=39 v=80
151145 On ch=15 n=51 v=73
151415 Off ch=15 n=51 v=64
151527 Off ch=15 n=39 v=64
152582 On ch=15 n=37 v=80
152585 On ch=15 n=49 v=73
152855 Off ch=15 n=49 v=64
152972 Off ch=15 n=37 v=64
154022 On ch=15 n=36 v=80
154025 On ch=15 n=48 v=73
154295 Off ch=15 n=48 v=64
154407 Off ch=15 n=36 v=64
155462 On ch=15 n=35 v=80
155465 On ch=15 n=47 v=73
155735 Off ch=15 n=47 v=64
155852 Off ch=15 n=35 v=64
156902 On ch=15 n=34 v=80
156905 On ch=15 n=46 v=73
157175 Off ch=15 n=46 v=64
157287 Off ch=15 n=34 v=64
158342 On ch=15 n=34 v=80
158345 On ch=15 n=46 v=73
158615 Off ch=15 n=46 v=64
158732 Off ch=15 n=34 v=64
159782 On ch=15 n=39 v=80
159785 On ch=15 n=51 v=73
160602 Off ch=15 n=51 v=64
160617 Off ch=15 n=39 v=64
161222 On ch=15 n=39 v=80
161225 On ch=15 n=51 v=73
162227 Off ch=15 n=51 v=64
162237 Off ch=15 n=39 v=64
162662 On ch=15 n=32 v=80
162665 On ch=15 n=44 v=73
162935 Off ch=15 n=44 v=64
163055 Off ch=15 n=32 v=64
164102 On ch=15 n=39 v=80
164105 On ch=15 n=51 v=73
164375 Off ch=15 n=51 v=64
164495 Off ch=15 n=39 v=64
165542 On ch=15 n=32 v=80
165545 On ch=15 n=44 v=73
165815 Off ch=15 n=44 v=64
165927 Off ch=15 n=32 v=64
166982 On ch=15 n=39 v=80
166985 On ch=15 n=51 v=73
167255 Off ch=15 n=51 v=64
167372 Off ch=15 n=39 v=64
168422 On ch=15 n=34 v=80
168425 On ch=15 n=46 v=73
168695 Off ch=15 n=46 v=64
168807 Off ch=15 n=34 v=64
169862 On ch=15 n=39 v=80
169865 On ch=15 n=51 v=73
170135 Off ch=15 n=51 v=64
170252 Off ch=15 n=39 v=64
171302 On ch=15 n=34 v=80
171305 On ch=15 n=46 v=73
171575 Off ch=15 n=46 v=64
171687 Off ch=15 n=34 v=64
172742 On ch=15 n=39 v=80
172745 On ch=15 n=51 v=73
173015 Off ch=15 n=51 v=64
173132 Off ch=15 n=39 v=64
174182 On ch=15 n=32 v=80
174185 On ch=15 n=44 v=73
174455 Off ch=15 n=44 v=64
174567 Off ch=15 n=32 v=64
175622 On ch=15 n=39 v=80
175625 On ch=15 n=51 v=73
175895 Off ch=15 n=51 v=64
176012 Off ch=15 n=39 v=64
177062 On ch=15 n=32 v=80
177065 On ch=15 n=44 v=73
177335 Off ch=15 n=44 v=64
177447 Off ch=15 n=32 v=64
178502 On ch=15 n=39 v=80
178505 On ch=15 n=51 v=73
178775 Off ch=15 n=51 v=64
178892 Off ch=15 n=39 v=64
179942 On ch=15 n=37 v=80
179945 On ch=15 n=49 v=73
180215 Off ch=15 n=49 v=64
180327 Off ch=15 n=37 v=64
181382 On ch=15 n=36 v=80
181385 On ch=15 n=48 v=73
181655 Off ch=15 n=48 v=64
181772 Off ch=15 n=36 v=64
182822 On ch=15 n=34 v=80
182825 On ch=15 n=46 v=73
183095 Off ch=15 n=46 v=64
183207 Off ch=15 n=34 v=64
184262 On ch=15 n=39 v=80
184265 On ch=15 n=51 v=73
185267 Off ch=15 n=51 v=64
185277 Off ch=15 n=39 v=64
185702 On ch=15 n=32 v=80
185702 On ch=15 n=72 v=82
185702 On ch=15 n=84 v=82
185705 On ch=15 n=44 v=73
185705 On ch=15 n=51 v=72
185835 Off ch=15 n=84 v=64
185835 Off ch=15 n=72 v=64
185942 On ch=15 n=71 v=56
185942 On ch=15 n=83 v=56
186080 Off ch=15 n=83 v=64
186080 Off ch=15 n=71 v=64
186180 On ch=15 n=72 v=82
186180 On ch=15 n=84 v=82
186252 Off ch=15 n=32 v=64
186270 Off ch=15 n=51 v=64
186275 Off ch=15 n=44 v=64
186322 Off ch=15 n=72 v=64
186322 Off ch=15 n=84 v=64
186420 On ch=15 n=68 v=64
186420 On ch=15 n=80 v=64
186552 Off ch=15 n=80 v=64
186552 Off ch=15 n=68 v=64
186660 On ch=15 n=63 v=82
186660 On ch=15 n=75 v=82
186787 Off ch=15 n=75 v=64
186787 Off ch=15 n=63 v=64
186897 On ch=15 n=62 v=64
186897 On ch=15 n=74 v=64
187037 Off ch=15 n=74 v=64
187037 Off ch=15 n=62 v=64
187137 On ch=15 n=63 v=82
187137 On ch=15 n=75 v=82
187142 On ch=15 n=39 v=80
187145 On ch=15 n=51 v=73
187290 Off ch=15 n=75 v=64
187290 Off ch=15 n=63 v=64
187377 On ch=15 n=60 v=46
187377 On ch=15 n=72 v=46
187415 Off ch=15 n=51 v=64
187517 Off ch=15 n=60 v=64
187517 Off ch=15 n=72 v=64
187535 Off ch=15 n=39 v=64
187625 On ch=15 n=56 v=73
187625 On ch=15 n=68 v=73
187762 Off ch=15 n=68 v=64
187762 Off ch=15 n=56 v=64
187862 On ch=15 n=62 v=60
187862 On ch=15 n=74 v=60
187997 Off ch=15 n=74 v=64
187997 Off ch=15 n=62 v=64
188102 On ch=15 n=63 v=78
188102 On ch=15 n=75 v=78
188250 Off ch=15 n=75 v=64
188250 Off ch=15 n=63 v=64
188342 On ch=15 n=68 v=66
188342 On ch=15 n=80 v=66
188455 Off ch=15 n=80 v=64
188455 Off ch=15 n=68 v=64
188582 On ch=15 n=32 v=80
188582 On ch=15 n=72 v=82
188582 On ch=15 n=84 v=82
188585 On ch=15 n=44 v=73
188715 Off ch=15 n=84 v=64
188715 Off ch=15 n=72 v=64
188827 On ch=15 n=71 v=56
188827 On ch=15 n=83 v=56
188855 Off ch=15 n=44 v=64
188965 Off ch=15 n=71 v=64
188965 Off ch=15 n=83 v=64
188967 Off ch=15 n=32 v=64
189060 On ch=15 n=72 v=82
189060 On ch=15 n=84 v=82
189202 Off ch=15 n=84 v=64
189202 Off ch=15 n=72 v=64
189305 On ch=15 n=77 v=64
189305 On ch=15 n=89 v=64
189437 Off ch=15 n=89 v=64
189437 Off ch=15 n=77 v=64
189540 On ch=15 n=75 v=82
189540 On ch=15 n=87 v=82
189685 Off ch=15 n=87 v=64
189685 Off ch=15 n=75 v=64
189780 On ch=15 n=72 v=61
189780 On ch=15 n=84 v=61
189920 Off ch=15 n=84 v=64
189920 Off ch=15 n=72 v=64
190017 On ch=15 n=68 v=82
190017 On ch=15 n=80 v=82
190022 On ch=15 n=39 v=80
190025 On ch=15 n=51 v=73
190170 Off ch=15 n=80 v=64
190170 Off ch=15 n=68 v=64
190265 On ch=15 n=67 v=56
190265 On ch=15 n=79 v=56
190295 Off ch=15 n=51 v=64
190402 Off ch=15 n=67 v=64
190402 Off ch=15 n=79 v=64
190412 Off ch=15 n=39 v=64
190502 On ch=15 n=68 v=73
190502 On ch=15 n=80 v=73
190640 Off ch=15 n=80 v=64
190640 Off ch=15 n=68 v=64
190740 On ch=15 n=73 v=60
190740 On ch=15 n=85 v=60
190875 Off ch=15 n=85 v=64
190875 Off ch=15 n=73 v=64
190977 On ch=15 n=72 v=78
190977 On ch=15 n=84 v=78
191125 Off ch=15 n=84 v=64
191125 Off ch=15 n=72 v=64
191217 On ch=15 n=68 v=55
191217 On ch=15 n=80 v=55
191330 Off ch=15 n=80 v=64
191330 Off ch=15 n=68 v=64
191462 On ch=15 n=34 v=80
191462 On ch=15 n=63 v=82
191462 On ch=15 n=75 v=82
191465 On ch=15 n=46 v=73
191595 Off ch=15 n=75 v=64
191595 Off ch=15 n=63 v=64
191702 On ch=15 n=62 v=56
191702 On ch=15 n=74 v=56
191735 Off ch=15 n=46 v=64
191840 Off ch=15 n=62 v=64
191840 Off ch=15 n=74 v=64
191847 Off ch=15 n=34 v=64
191940 On ch=15 n=63 v=82
191940 On ch=15 n=75 v=82
192082 Off ch=15 n=75 v=64
192082 Off ch=15 n=63 v=64
192180 On ch=15 n=69 v=57
192180 On ch=15 n=81 v=57
192312 Off ch=15 n=81 v=64
192312 Off ch=15 n=69 v=64
192420 On ch=15 n=70 v=82
192420 On ch=15 n=82 v=82
192572 Off ch=15 n=82 v=64
192572 Off ch=15 n=70 v=64
192657 On ch=15 n=67 v=64
192657 On ch=15 n=79 v=64
192797 Off ch=15 n=79 v=64
192797 Off ch=15 n=67 v=64
192897 On ch=15 n=55 v=82
192897 On ch=15 n=67 v=82
192902 On ch=15 n=39 v=80
192905 On ch=15 n=51 v=73
193050 Off ch=15 n=67 v=64
193050 Off ch=15 n=55 v=64
193137 On ch=15 n=57 v=46
193137 On ch=15 n=69 v=46
193175 Off ch=15 n=51 v=64
193277 Off ch=15 n=57 v=64
193277 Off ch=15 n=69 v=64
193292 Off ch=15 n=39 v=64
193385 On ch=15 n=58 v=73
193385 On ch=15 n=70 v=73
193522 Off ch=15 n=70 v=64
193522 Off ch=15 n=58 v=64
193622 On ch=15 n=61 v=60
193622 On ch=15 n=73 v=60
193757 Off ch=15 n=73 v=64
193757 Off ch=15 n=61 v=64
193862 On ch=15 n=65 v=78
193862 On ch=15 n=77 v=78
194010 Off ch=15 n=77 v=64
194010 Off ch=15 n=65 v=64
194102 On ch=15 n=70 v=66
194102 On ch=15 n=82 v=66
194215 Off ch=15 n=82 v=64
194215 Off ch=15 n=70 v=64
194342 On ch=15 n=34 v=80
194342 On ch=15 n=65 v=82
194342 On ch=15 n=77 v=82
194345 On ch=15 n=46 v=73
194475 Off ch=15 n=77 v=64
194475 Off ch=15 n=65 v=64
194587 On ch=15 n=68 v=56
194587 On ch=15 n=80 v=56
194615 Off ch=15 n=46 v=64
194725 Off ch=15 n=68 v=64
194725 Off ch=15 n=80 v=64
194727 Off ch=15 n=34 v=64
194820 On ch=15 n=67 v=82
194820 On ch=15 n=79 v=82
194962 Off ch=15 n=79 v=64
194962 Off ch=15 n=67 v=64
195065 On ch=15 n=73 v=64
195065 On ch=15 n=85 v=64
195197 Off ch=15 n=85 v=64
195197 Off ch=15 n=73 v=64
195300 On ch=15 n=77 v=82
195300 On ch=15 n=89 v=82
195427 Off ch=15 n=89 v=64
195427 Off ch=15 n=77 v=64
195540 On ch=15 n=75 v=61
195540 On ch=15 n=87 v=61
195680 Off ch=15 n=87 v=64
195680 Off ch=15 n=75 v=64
195777 On ch=15 n=73 v=82
195777 On ch=15 n=85 v=82
195782 On ch=15 n=39 v=80
195785 On ch=15 n=51 v=73
195930 Off ch=15 n=85 v=64
195930 Off ch=15 n=73 v=64
196025 On ch=15 n=73 v=56
196025 On ch=15 n=85 v=56
196055 Off ch=15 n=51 v=64
196162 Off ch=15 n=73 v=64
196162 Off ch=15 n=85 v=64
196172 Off ch=15 n=39 v=64
196262 On ch=15 n=72 v=73
196262 On ch=15 n=84 v=73
196400 Off ch=15 n=84 v=64
196400 Off ch=15 n=72 v=64
196500 On ch=15 n=72 v=60
196500 On ch=15 n=84 v=60
196635 Off ch=15 n=84 v=64
196635 Off ch=15 n=72 v=64
196737 On ch=15 n=71 v=78
196737 On ch=15 n=83 v=78
196885 Off ch=15 n=83 v=64
196885 Off ch=15 n=71 v=64
196977 On ch=15 n=71 v=55
196977 On ch=15 n=83 v=55
197090 Off ch=15 n=83 v=64
197090 Off ch=15 n=71 v=64
197222 On ch=15 n=32 v=80
197222 On ch=15 n=72 v=82
197222 On ch=15 n=84 v=82
197225 On ch=15 n=44 v=73
197355 Off ch=15 n=84 v=64
197355 Off ch=15 n=72 v=64
197462 On ch=15 n=71 v=56
197462 On ch=15 n=83 v=56
197495 Off ch=15 n=44 v=64
197600 Off ch=15 n=71 v=64
197600 Off ch=15 n=83 v=64
197607 Off ch=15 n=32 v=64
197700 On ch=15 n=72 v=82
197700 On ch=15 n=84 v=82
197842 Off ch=15 n=84 v=64
197842 Off ch=15 n=72 v=64
197940 On ch=15 n=68 v=64
197940 On ch=15 n=80 v=64
198072 Off ch=15 n=80 v=64
198072 Off ch=15 n=68 v=64
198180 On ch=15 n=63 v=82
198180 On ch=15 n=75 v=82
198307 Off ch=15 n=75 v=64
198307 Off ch=15 n=63 v=64
198417 On ch=15 n=62 v=64
198417 On ch=15 n=74 v=64
198557 Off ch=15 n=74 v=64
198557 Off ch=15 n=62 v=64
198657 On ch=15 n=63 v=82
198657 On ch=15 n=75 v=82
198662 On ch=15 n=39 v=80
198665 On ch=15 n=51 v=73
198810 Off ch=15 n=75 v=64
198810 Off ch=15 n=63 v=64
198897 On ch=15 n=60 v=46
198897 On ch=15 n=72 v=46
198935 Off ch=15 n=51 v=64
199037 Off ch=15 n=60 v=64
199037 Off ch=15 n=72 v=64
199052 Off ch=15 n=39 v=64
199145 On ch=15 n=56 v=73
199145 On ch=15 n=68 v=73
199282 Off ch=15 n=68 v=64
199282 Off ch=15 n=56 v=64
199382 On ch=15 n=62 v=60
199382 On ch=15 n=74 v=60
199517 Off ch=15 n=74 v=64
199517 Off ch=15 n=62 v=64
199622 On ch=15 n=63 v=78
199622 On ch=15 n=75 v=78
199770 Off ch=15 n=75 v=64
199770 Off ch=15 n=63 v=64
199862 On ch=15 n=68 v=66
199862 On ch=15 n=80 v=66
199975 Off ch=15 n=80 v=64
199975 Off ch=15 n=68 v=64
200102 On ch=15 n=32 v=80
200102 On ch=15 n=72 v=82
200102 On ch=15 n=84 v=82
200105 On ch=15 n=44 v=73
200235 Off ch=15 n=84 v=64
200235 Off ch=15 n=72 v=64
200347 On ch=15 n=71 v=56
200347 On ch=15 n=83 v=56
200375 Off ch=15 n=44 v=64
200485 Off ch=15 n=71 v=64
200485 Off ch=15 n=83 v=64
200487 Off ch=15 n=32 v=64
200580 On ch=15 n=72 v=82
200580 On ch=15 n=84 v=82
200722 Off ch=15 n=84 v=64
200722 Off ch=15 n=72 v=64
200825 On ch=15 n=77 v=64
200825 On ch=15 n=89 v=64
200957 Off ch=15 n=89 v=64
200957 Off ch=15 n=77 v=64
201060 On ch=15 n=75 v=82
201060 On ch=15 n=87 v=82
201205 Off ch=15 n=87 v=64
201205 Off ch=15 n=75 v=64
201300 On ch=15 n=72 v=61
201300 On ch=15 n=84 v=61
201440 Off ch=15 n=84 v=64
201440 Off ch=15 n=72 v=64
201537 On ch=15 n=68 v=82
201537 On ch=15 n=80 v=82
201542 On ch=15 n=39 v=80
201545 On ch=15 n=51 v=73
201690 Off ch=15 n=80 v=64
201690 Off ch=15 n=68 v=64
201785 On ch=15 n=67 v=56
201785 On ch=15 n=79 v=56
201815 Off ch=15 n=51 v=64
201922 Off ch=15 n=67 v=64
201922 Off ch=15 n=79 v=64
201932 Off ch=15 n=39 v=64
202022 On ch=15 n=68 v=73
202022 On ch=15 n=80 v=73
202160 Off ch=15 n=80 v=64
202160 Off ch=15 n=68 v=64
202260 On ch=15 n=73 v=60
202260 On ch=15 n=85 v=60
202395 Off ch=15 n=85 v=64
202395 Off ch=15 n=73 v=64
202497 On ch=15 n=72 v=78
202497 On ch=15 n=84 v=78
202645 Off ch=15 n=84 v=64
202645 Off ch=15 n=72 v=64
202737 On ch=15 n=68 v=55
202737 On ch=15 n=80 v=55
202850 Off ch=15 n=80 v=64
202850 Off ch=15 n=68 v=64
202982 On ch=15 n=37 v=80
202982 On ch=15 n=56 v=82
202982 On ch=15 n=68 v=82
202985 On ch=15 n=49 v=73
203115 Off ch=15 n=68 v=64
203115 Off ch=15 n=56 v=64
203222 On ch=15 n=63 v=56
203222 On ch=15 n=75 v=56
203360 Off ch=15 n=75 v=64
203360 Off ch=15 n=63 v=64
203460 On ch=15 n=65 v=82
203460 On ch=15 n=77 v=82
203602 Off ch=15 n=77 v=64
203602 Off ch=15 n=65 v=64
203700 On ch=15 n=73 v=57
203700 On ch=15 n=85 v=57
203742 Off ch=15 n=49 v=64
203820 Off ch=15 n=37 v=64
203832 Off ch=15 n=73 v=64
203832 Off ch=15 n=85 v=64
203940 On ch=15 n=65 v=82
203940 On ch=15 n=77 v=82
204092 Off ch=15 n=77 v=64
204092 Off ch=15 n=65 v=64
204177 On ch=15 n=64 v=57
204177 On ch=15 n=76 v=57
204317 Off ch=15 n=76 v=64
204317 Off ch=15 n=64 v=64
204417 On ch=15 n=65 v=82
204417 On ch=15 n=77 v=82
204422 On ch=15 n=36 v=80
204425 On ch=15 n=48 v=73
204570 Off ch=15 n=77 v=64
204570 Off ch=15 n=65 v=64
204657 On ch=15 n=64 v=46
204657 On ch=15 n=76 v=46
204797 Off ch=15 n=76 v=64
204797 Off ch=15 n=64 v=64
204905 On ch=15 n=65 v=73
204905 On ch=15 n=77 v=73
205042 Off ch=15 n=77 v=64
205042 Off ch=15 n=65 v=64
205142 On ch=15 n=72 v=60
205142 On ch=15 n=84 v=60
205170 Off ch=15 n=48 v=64
205237 Off ch=15 n=36 v=64
205277 Off ch=15 n=72 v=64
205277 Off ch=15 n=84 v=64
205382 On ch=15 n=65 v=78
205382 On ch=15 n=77 v=78
205530 Off ch=15 n=77 v=64
205530 Off ch=15 n=65 v=64
205622 On ch=15 n=72 v=66
205622 On ch=15 n=84 v=66
205735 Off ch=15 n=84 v=64
205735 Off ch=15 n=72 v=64
205862 On ch=15 n=34 v=80
205862 On ch=15 n=62 v=82
205862 On ch=15 n=74 v=82
205865 On ch=15 n=46 v=73
205995 Off ch=15 n=74 v=64
205995 Off ch=15 n=62 v=64
206107 On ch=15 n=65 v=56
206107 On ch=15 n=77 v=56
206245 Off ch=15 n=77 v=64
206245 Off ch=15 n=65 v=64
206340 On ch=15 n=68 v=82
206340 On ch=15 n=80 v=82
206482 Off ch=15 n=80 v=64
206482 Off ch=15 n=68 v=64
206585 On ch=15 n=70 v=64
206585 On ch=15 n=82 v=64
206610 Off ch=15 n=46 v=64
206697 Off ch=15 n=34 v=64
206717 Off ch=15 n=70 v=64
206717 Off ch=15 n=82 v=64
206820 On ch=15 n=74 v=82
206820 On ch=15 n=86 v=82
206947 Off ch=15 n=86 v=64
206947 Off ch=15 n=74 v=64
207060 On ch=15 n=70 v=61
207060 On ch=15 n=82 v=61
207200 Off ch=15 n=82 v=64
207200 Off ch=15 n=70 v=64
207297 On ch=15 n=75 v=82
207297 On ch=15 n=87 v=82
207302 On ch=15 n=39 v=80
207305 On ch=15 n=51 v=73
207552 On ch=15 n=77 v=64
207552 On ch=15 n=89 v=64
207625 Off ch=15 n=87 v=64
207625 Off ch=15 n=75 v=64
207780 On ch=15 n=75 v=60
207780 On ch=15 n=87 v=60
207787 Off ch=15 n=77 v=64
207787 Off ch=15 n=89 v=64
208045 On ch=15 n=74 v=73
208045 On ch=15 n=86 v=73
208057 Off ch=15 n=75 v=64
208057 Off ch=15 n=87 v=64
208282 On ch=15 n=75 v=64
208282 On ch=15 n=87 v=64
208302 Off ch=15 n=74 v=64
208302 Off ch=15 n=86 v=64
208307 Off ch=15 n=51 v=64
208317 Off ch=15 n=39 v=64
208512 Off ch=15 n=75 v=64
208512 Off ch=15 n=87 v=64
208527 On ch=15 n=77 v=82
208527 On ch=15 n=89 v=82
208705 Off ch=15 n=89 v=64
208705 Off ch=15 n=77 v=64
208732 On ch=15 n=71 v=82
208740 On ch=15 n=79 v=82
208742 On ch=15 n=31 v=104
208745 On ch=15 n=43 v=95
208767 On ch=15 n=75 v=88
208767 On ch=15 n=87 v=82
209727 On ch=15 n=86 v=64
209732 On ch=15 n=74 v=52
209747 Off ch=15 n=43 v=64
209765 Off ch=15 n=75 v=64
209765 Off ch=15 n=87 v=64
209782 Off ch=15 n=31 v=64
209870 Off ch=15 n=86 v=64
209895 Off ch=15 n=74 v=64
209920 Off ch=15 n=71 v=64
209935 Off ch=15 n=79 v=64
210232 On ch=15 n=48 v=86
210372 Off ch=15 n=48 v=64
210707 On ch=15 n=67 v=46
210707 On ch=15 n=55 v=58
210710 On ch=15 n=60 v=62
210717 On ch=15 n=63 v=46
210775 Off ch=15 n=60 v=64
210775 Off ch=15 n=55 v=64
210785 Off ch=15 n=67 v=64
210785 Off ch=15 n=63 v=64
211190 On ch=15 n=55 v=58
211190 On ch=15 n=60 v=62
211195 On ch=15 n=63 v=56
211197 On ch=15 n=67 v=42
211262 Off ch=15 n=67 v=64
211277 Off ch=15 n=60 v=64
211280 Off ch=15 n=55 v=64
211285 Off ch=15 n=63 v=64
211655 On ch=15 n=43 v=86
211795 Off ch=15 n=43 v=64
212140 On ch=15 n=67 v=46
212150 On ch=15 n=55 v=58
212152 On ch=15 n=60 v=62
212162 On ch=15 n=63 v=46
212222 Off ch=15 n=60 v=64
212225 Off ch=15 n=63 v=64
212230 Off ch=15 n=55 v=64
212232 Off ch=15 n=67 v=64
212630 On ch=15 n=55 v=58
212635 On ch=15 n=60 v=62
212637 On ch=15 n=63 v=56
212655 On ch=15 n=67 v=42
212705 Off ch=15 n=63 v=64
212712 Off ch=15 n=67 v=64
212720 Off ch=15 n=60 v=64
212732 Off ch=15 n=55 v=64
213080 On ch=15 n=48 v=73
213220 Off ch=15 n=48 v=64
213582 On ch=15 n=55 v=39
213587 On ch=15 n=60 v=43
213592 On ch=15 n=63 v=27
213592 On ch=15 n=67 v=27
213647 Off ch=15 n=60 v=64
213660 Off ch=15 n=63 v=64
213667 Off ch=15 n=67 v=64
213685 Off ch=15 n=55 v=64
214060 On ch=15 n=55 v=39
214062 On ch=15 n=60 v=43
214065 On ch=15 n=63 v=37
214070 On ch=15 n=67 v=23
214140 Off ch=15 n=63 v=64
214145 Off ch=15 n=60 v=64
214147 Off ch=15 n=55 v=64
214150 Off ch=15 n=67 v=64
214520 On ch=15 n=43 v=64
214660 Off ch=15 n=43 v=64
215015 On ch=15 n=55 v=39
215022 On ch=15 n=67 v=27
215025 On ch=15 n=60 v=43
215032 On ch=15 n=63 v=27
215097 Off ch=15 n=60 v=64
215115 Off ch=15 n=63 v=64
215122 Off ch=15 n=67 v=64
215122 Off ch=15 n=55 v=64
215500 On ch=15 n=55 v=39
215502 On ch=15 n=60 v=43
215505 On ch=15 n=67 v=23
215507 On ch=15 n=63 v=37
215590 Off ch=15 n=60 v=64
215590 Off ch=15 n=55 v=64
215597 Off ch=15 n=67 v=64
215600 Off ch=15 n=63 v=64
215992 On ch=15 n=48 v=64
216132 Off ch=15 n=48 v=64
217415 On ch=15 n=43 v=64
217555 Off ch=15 n=43 v=64
218840 On ch=15 n=48 v=64
218980 Off ch=15 n=48 v=64
220280 On ch=15 n=43 v=64
220420 Off ch=15 n=43 v=64
221752 On ch=15 n=48 v=64
221892 Off ch=15 n=48 v=64
223175 On ch=15 n=43 v=64
223315 Off ch=15 n=43 v=64
224600 On ch=15 n=50 v=64
224765 Off ch=15 n=50 v=64
226040 On ch=15 n=43 v=64
226180 Off ch=15 n=43 v=64
227512 On ch=15 n=50 v=64
227677 Off ch=15 n=50 v=64
228935 On ch=15 n=43 v=64
229075 Off ch=15 n=43 v=64
230360 On ch=15 n=50 v=64
230525 Off ch=15 n=50 v=64
231800 On ch=15 n=43 v=64
231940 Off ch=15 n=43 v=64
233272 On ch=15 n=50 v=64
233437 Off ch=15 n=50 v=64
234695 On ch=15 n=43 v=64
234835 Off ch=15 n=43 v=64
236120 On ch=15 n=48 v=64
236260 Off ch=15 n=48 v=64
237560 On ch=15 n=43 v=64
237700 Off ch=15 n=43 v=64
239032 On ch=15 n=48 v=64
239172 Off ch=15 n=48 v=64
240455 On ch=15 n=43 v=64
240595 Off ch=15 n=43 v=64
241880 On ch=15 n=53 v=64
242020 Off ch=15 n=53 v=64
243320 On ch=15 n=53 v=64
243460 Off ch=15 n=53 v=64
244792 On ch=15 n=46 v=64
244932 Off ch=15 n=46 v=64
246215 On ch=15 n=46 v=64
246355 Off ch=15 n=46 v=64
247640 On ch=15 n=51 v=64
247780 Off ch=15 n=51 v=64
250552 On ch=15 n=43 v=64
250692 Off ch=15 n=43 v=64
251975 On ch=15 n=44 v=64
252115 Off ch=15 n=44 v=64
253400 On ch=15 n=43 v=64
253540 Off ch=15 n=43 v=64
254840 On ch=15 n=44 v=64
254980 Off ch=15 n=44 v=64
256312 On ch=15 n=43 v=64
256452 Off ch=15 n=43 v=64
257735 On ch=15 n=44 v=64
257875 Off ch=15 n=44 v=64
259160 On ch=15 n=43 v=64
259300 Off ch=15 n=43 v=64
260600 On ch=15 n=44 v=64
260740 Off ch=15 n=44 v=64
262072 On ch=15 n=43 v=64
262212 Off ch=15 n=43 v=64
263495 On ch=15 n=43 v=64
263635 Off ch=15 n=43 v=64
264952 On ch=15 n=48 v=73
265092 Off ch=15 n=48 v=64
266375 On ch=15 n=43 v=73
266757 On ch=15 n=31 v=64
267782 On ch=15 n=36 v=80
267817 Off ch=15 n=31 v=64
267825 Off ch=15 n=43 v=64
267832 On ch=15 n=48 v=73
267972 Off ch=15 n=48 v=64
268175 Off ch=15 n=36 v=64
269222 On ch=15 n=31 v=80
269255 On ch=15 n=43 v=73
269395 Off ch=15 n=43 v=64
269615 Off ch=15 n=31 v=64
270662 On ch=15 n=36 v=80
270680 On ch=15 n=48 v=73
270820 Off ch=15 n=48 v=64
271047 Off ch=15 n=36 v=64
272102 On ch=15 n=31 v=80
272120 On ch=15 n=43 v=73
272260 Off ch=15 n=43 v=64
272492 Off ch=15 n=31 v=64
273542 On ch=15 n=36 v=80
273592 On ch=15 n=48 v=73
273732 Off ch=15 n=48 v=64
273927 Off ch=15 n=36 v=64
274982 On ch=15 n=31 v=80
275015 On ch=15 n=43 v=73
275155 Off ch=15 n=43 v=64
275372 Off ch=15 n=31 v=64
276422 On ch=15 n=38 v=80
276440 On ch=15 n=50 v=73
276605 Off ch=15 n=50 v=64
276807 Off ch=15 n=38 v=64
277862 On ch=15 n=31 v=80
277880 On ch=15 n=43 v=73
278020 Off ch=15 n=43 v=64
278252 Off ch=15 n=31 v=64
279302 On ch=15 n=38 v=80
279352 On ch=15 n=50 v=73
279517 Off ch=15 n=50 v=64
279687 Off ch=15 n=38 v=64
280742 On ch=15 n=31 v=80
280775 On ch=15 n=43 v=73
280915 Off ch=15 n=43 v=64
281132 Off ch=15 n=31 v=64
282182 On ch=15 n=38 v=80
282200 On ch=15 n=50 v=73
282365 Off ch=15 n=50 v=64
282567 Off ch=15 n=38 v=64
283622 On ch=15 n=31 v=80
283640 On ch=15 n=43 v=73
283780 Off ch=15 n=43 v=64
284012 Off ch=15 n=31 v=64
285062 On ch=15 n=38 v=80
285112 On ch=15 n=50 v=73
285277 Off ch=15 n=50 v=64
285447 Off ch=15 n=38 v=64
286502 On ch=15 n=31 v=80
286535 On ch=15 n=43 v=73
286675 Off ch=15 n=43 v=64
286892 Off ch=15 n=31 v=64
287942 On ch=15 n=36 v=80
287960 On ch=15 n=48 v=73
288100 Off ch=15 n=48 v=64
288327 Off ch=15 n=36 v=64
289382 On ch=15 n=31 v=80
289400 On ch=15 n=43 v=73
289540 Off ch=15 n=43 v=64
289772 Off ch=15 n=31 v=64
290822 On ch=15 n=36 v=80
290872 On ch=15 n=48 v=73
291012 Off ch=15 n=48 v=64
291215 Off ch=15 n=36 v=64
292262 On ch=15 n=36 v=80
292295 On ch=15 n=48 v=73
292435 Off ch=15 n=48 v=64
292655 Off ch=15 n=36 v=64
293702 On ch=15 n=29 v=80
293720 On ch=15 n=53 v=73
293860 Off ch=15 n=53 v=64
294087 Off ch=15 n=29 v=64
295142 On ch=15 n=29 v=80
295160 On ch=15 n=53 v=73
295300 Off ch=15 n=53 v=64
295532 Off ch=15 n=29 v=64
296582 On ch=15 n=34 v=80
296632 On ch=15 n=46 v=73
296772 Off ch=15 n=46 v=64
296967 Off ch=15 n=34 v=64
298022 On ch=15 n=34 v=80
298055 On ch=15 n=46 v=73
298195 Off ch=15 n=46 v=64
298412 Off ch=15 n=34 v=64
299462 On ch=15 n=39 v=80
299480 On ch=15 n=51 v=73
299620 Off ch=15 n=51 v=64
299847 Off ch=15 n=39 v=64
300902 On ch=15 n=32 v=80
300920 On ch=15 n=44 v=73
301060 Off ch=15 n=44 v=64
301292 Off ch=15 n=32 v=64
301400 On ch=15 n=72 v=60
301400 On ch=15 n=63 v=60
301470 Off ch=15 n=72 v=64
301502 Off ch=15 n=63 v=64
301842 On ch=15 n=65 v=56
301845 On ch=15 n=74 v=60
301942 Off ch=15 n=74 v=64
301947 Off ch=15 n=65 v=64
302340 On ch=15 n=67 v=73
302345 On ch=15 n=75 v=73
302392 On ch=15 n=43 v=64
302442 Off ch=15 n=75 v=64
302455 Off ch=15 n=67 v=64
302532 Off ch=15 n=43 v=64
302827 On ch=15 n=75 v=73
302830 On ch=15 n=67 v=73
302992 Off ch=15 n=67 v=64
302997 Off ch=15 n=75 v=64
303055 On ch=15 n=74 v=64
303057 On ch=15 n=65 v=52
303167 Off ch=15 n=65 v=64
303167 Off ch=15 n=74 v=64
303277 On ch=15 n=75 v=73
303290 On ch=15 n=67 v=73
303402 Off ch=15 n=75 v=64
303435 Off ch=15 n=67 v=64
303515 On ch=15 n=77 v=60
303525 On ch=15 n=68 v=52
303652 Off ch=15 n=77 v=64
303697 Off ch=15 n=68 v=64
303750 On ch=15 n=74 v=73
303752 On ch=15 n=65 v=64
303815 On ch=15 n=44 v=64
303860 Off ch=15 n=65 v=64
303865 Off ch=15 n=74 v=64
303955 Off ch=15 n=44 v=64
304245 On ch=15 n=65 v=73
304252 On ch=15 n=74 v=64
304392 Off ch=15 n=65 v=64
304425 Off ch=15 n=74 v=64
304462 On ch=15 n=72 v=60
304512 On ch=15 n=63 v=48
304585 Off ch=15 n=72 v=64
304610 Off ch=15 n=63 v=64
304700 On ch=15 n=74 v=73
304705 On ch=15 n=65 v=64
304840 Off ch=15 n=74 v=64
304845 Off ch=15 n=65 v=64
304935 On ch=15 n=75 v=56
304965 On ch=15 n=67 v=56
305065 Off ch=15 n=75 v=64
305110 Off ch=15 n=67 v=64
305155 On ch=15 n=72 v=82
305172 On ch=15 n=63 v=60
305240 On ch=15 n=43 v=64
305275 Off ch=15 n=72 v=64
305287 Off ch=15 n=63 v=64
305380 Off ch=15 n=43 v=64
306162 On ch=15 n=67 v=64
306175 On ch=15 n=75 v=73
306267 Off ch=15 n=67 v=64
306282 Off ch=15 n=75 v=64
306680 On ch=15 n=44 v=64
306820 Off ch=15 n=44 v=64
307102 On ch=15 n=63 v=64
307125 On ch=15 n=72 v=73
307207 Off ch=15 n=63 v=64
307212 Off ch=15 n=72 v=64
307602 On ch=15 n=65 v=64
307612 On ch=15 n=74 v=64
307712 Off ch=15 n=65 v=64
307727 Off ch=15 n=74 v=64
308105 On ch=15 n=67 v=64
308115 On ch=15 n=75 v=64
308152 On ch=15 n=43 v=64
308210 Off ch=15 n=75 v=64
308215 Off ch=15 n=67 v=64
308292 Off ch=15 n=43 v=64
308602 On ch=15 n=67 v=73
308622 On ch=15 n=75 v=73
308770 Off ch=15 n=75 v=64
308780 Off ch=15 n=67 v=64
308835 On ch=15 n=65 v=56
308845 On ch=15 n=74 v=52
308920 Off ch=15 n=74 v=64
308930 Off ch=15 n=65 v=64
309052 On ch=15 n=75 v=73
309072 On ch=15 n=67 v=73
309190 Off ch=15 n=75 v=64
309210 Off ch=15 n=67 v=64
309305 On ch=15 n=77 v=60
309305 On ch=15 n=68 v=64
309440 Off ch=15 n=77 v=64
309482 Off ch=15 n=68 v=64
309525 On ch=15 n=74 v=64
309527 On ch=15 n=65 v=64
309575 On ch=15 n=44 v=64
309627 Off ch=15 n=74 v=64
309637 Off ch=15 n=65 v=64
309715 Off ch=15 n=44 v=64
310015 On ch=15 n=74 v=73
310025 On ch=15 n=65 v=73
310160 Off ch=15 n=74 v=64
310197 Off ch=15 n=65 v=64
310257 On ch=15 n=72 v=52
310280 On ch=15 n=63 v=52
310375 Off ch=15 n=72 v=64
310400 Off ch=15 n=63 v=64
310477 On ch=15 n=74 v=64
310482 On ch=15 n=65 v=60
310605 Off ch=15 n=74 v=64
310652 Off ch=15 n=65 v=64
310695 On ch=15 n=75 v=64
310747 On ch=15 n=67 v=56
310835 Off ch=15 n=75 v=64
310930 Off ch=15 n=67 v=64
310932 On ch=15 n=72 v=73
310940 On ch=15 n=63 v=64
311000 On ch=15 n=43 v=64
311047 Off ch=15 n=72 v=64
311057 Off ch=15 n=63 v=64
311140 Off ch=15 n=43 v=64
311932 On ch=15 n=67 v=73
311937 On ch=15 n=75 v=73
312035 Off ch=15 n=75 v=64
312042 Off ch=15 n=67 v=64
312440 On ch=15 n=44 v=64
312580 Off ch=15 n=44 v=64
312885 On ch=15 n=63 v=73
312905 On ch=15 n=72 v=64
312952 On ch=15 n=84 v=60
312992 Off ch=15 n=72 v=64
313012 Off ch=15 n=63 v=64
313027 Off ch=15 n=84 v=64
313370 On ch=15 n=86 v=73
313387 On ch=15 n=74 v=73
313387 On ch=15 n=65 v=73
313472 Off ch=15 n=86 v=64
313485 Off ch=15 n=74 v=64
313505 Off ch=15 n=65 v=64
313860 On ch=15 n=87 v=64
313867 On ch=15 n=67 v=73
313887 On ch=15 n=75 v=73
313912 On ch=15 n=43 v=64
313970 Off ch=15 n=75 v=64
313975 Off ch=15 n=87 v=64
313990 Off ch=15 n=67 v=64
314052 Off ch=15 n=43 v=64
314360 On ch=15 n=87 v=73
314365 On ch=15 n=67 v=73
314385 On ch=15 n=75 v=64
314507 Off ch=15 n=75 v=64
314510 Off ch=15 n=87 v=64
314552 Off ch=15 n=67 v=64
314595 On ch=15 n=74 v=64
314597 On ch=15 n=86 v=64
314597 On ch=15 n=65 v=60
314710 Off ch=15 n=65 v=64
314710 Off ch=15 n=74 v=64
314715 Off ch=15 n=86 v=64
314797 On ch=15 n=87 v=73
314822 On ch=15 n=75 v=73
314825 On ch=15 n=67 v=73
314930 Off ch=15 n=87 v=64
314940 Off ch=15 n=75 v=64
314972 Off ch=15 n=67 v=64
315017 On ch=15 n=89 v=64
315050 On ch=15 n=68 v=56
315052 On ch=15 n=77 v=60
315160 Off ch=15 n=89 v=64
315190 Off ch=15 n=77 v=64
315240 Off ch=15 n=68 v=64
315245 On ch=15 n=86 v=73
315265 On ch=15 n=74 v=82
315272 On ch=15 n=65 v=60
315335 On ch=15 n=43 v=64
315352 Off ch=15 n=86 v=64
315385 Off ch=15 n=74 v=64
315395 Off ch=15 n=65 v=64
315475 Off ch=15 n=43 v=64
315747 On ch=15 n=74 v=82
315755 On ch=15 n=86 v=73
315772 On ch=15 n=65 v=79
315907 Off ch=15 n=74 v=64
315932 Off ch=15 n=86 v=64
315932 Off ch=15 n=65 v=64
315990 On ch=15 n=72 v=60
315992 On ch=15 n=84 v=56
316030 On ch=15 n=63 v=52
316112 Off ch=15 n=72 v=64
316127 Off ch=15 n=84 v=64
316152 Off ch=15 n=63 v=64
316217 On ch=15 n=74 v=73
316227 On ch=15 n=86 v=82
316255 On ch=15 n=65 v=64
316362 Off ch=15 n=74 v=64
316385 Off ch=15 n=86 v=64
316440 Off ch=15 n=65 v=64
316457 On ch=15 n=87 v=64
316460 On ch=15 n=75 v=73
316500 On ch=15 n=67 v=64
316620 Off ch=15 n=87 v=64
316622 Off ch=15 n=75 v=64
316657 Off ch=15 n=67 v=64
316680 On ch=15 n=84 v=91
316705 On ch=15 n=63 v=73
316712 On ch=15 n=72 v=82
316740 On ch=15 n=36 v=90
316755 On ch=15 n=48 v=91
316782 Off ch=15 n=84 v=64
316832 Off ch=15 n=72 v=64
316840 Off ch=15 n=63 v=64
317007 Off ch=15 n=48 v=64
317020 Off ch=15 n=36 v=64
317702 On ch=15 n=31 v=100
317705 On ch=15 n=71 v=91
317707 On ch=15 n=79 v=91
317712 On ch=15 n=65 v=82
317720 On ch=15 n=59 v=100
317720 On ch=15 n=74 v=82
317722 On ch=15 n=43 v=100
317730 On ch=15 n=50 v=91
317737 On ch=15 n=55 v=91
317855 Off ch=15 n=79 v=64
317857 Off ch=15 n=65 v=64
317870 Off ch=15 n=59 v=64
317872 Off ch=15 n=74 v=64
317877 Off ch=15 n=43 v=64
317882 Off ch=15 n=71 v=64
317917 Off ch=15 n=50 v=64
317922 Off ch=15 n=55 v=64
317932 Off ch=15 n=31 v=64
318180 On ch=15 n=36 v=101
318182 On ch=15 n=24 v=100
318200 On ch=15 n=72 v=82
318207 On ch=15 n=48 v=100
318210 On ch=15 n=84 v=91
318210 On ch=15 n=75 v=91
318210 On ch=15 n=67 v=82
318210 On ch=15 n=63 v=91
318215 On ch=15 n=51 v=100
318217 On ch=15 n=60 v=91
318362 Off ch=15 n=84 v=64
318382 Off ch=15 n=51 v=64
318382 Off ch=15 n=60 v=64
318395 Off ch=15 n=67 v=64
318405 Off ch=15 n=48 v=64
318407 Off ch=15 n=75 v=64
318420 Off ch=15 n=36 v=64
318420 Off ch=15 n=63 v=64
318427 Off ch=15 n=72 v=64
318515 Off ch=15 n=24 v=64
318515 Meta TrkEnd
TrkEnd
MTrk
0 Meta TrkName "Pizzicato "
0 Meta 0x21 00
0 Meta 0x20 0f
0 Par ch=16 c=10 v=64
4305 On ch=16 n=36 v=82
5295 Off ch=16 n=36 v=64
5730 On ch=16 n=31 v=82
6722 Off ch=16 n=31 v=64
7165 On ch=16 n=36 v=68
8150 Off ch=16 n=36 v=64
8605 On ch=16 n=31 v=68
9587 Off ch=16 n=31 v=64
10065 On ch=16 n=36 v=68
11055 Off ch=16 n=36 v=64
11490 On ch=16 n=31 v=68
12482 Off ch=16 n=31 v=64
12925 On ch=16 n=36 v=68
13910 Off ch=16 n=36 v=64
14365 On ch=16 n=31 v=68
15347 Off ch=16 n=31 v=64
15825 On ch=16 n=36 v=68
16815 Off ch=16 n=36 v=64
17250 On ch=16 n=31 v=68
18242 Off ch=16 n=31 v=64
18685 On ch=16 n=38 v=68
19670 Off ch=16 n=38 v=64
20125 On ch=16 n=31 v=68
21107 Off ch=16 n=31 v=64
21585 On ch=16 n=38 v=68
22575 Off ch=16 n=38 v=64
23010 On ch=16 n=31 v=68
24002 Off ch=16 n=31 v=64
24445 On ch=16 n=38 v=68
25430 Off ch=16 n=38 v=64
25885 On ch=16 n=31 v=68
26867 Off ch=16 n=31 v=64
27345 On ch=16 n=38 v=68
28335 Off ch=16 n=38 v=64
28770 On ch=16 n=31 v=68
29762 Off ch=16 n=31 v=64
30205 On ch=16 n=36 v=68
31190 Off ch=16 n=36 v=64
31645 On ch=16 n=31 v=68
32627 Off ch=16 n=31 v=64
33105 On ch=16 n=36 v=68
34095 Off ch=16 n=36 v=64
34530 On ch=16 n=31 v=68
35522 Off ch=16 n=31 v=64
35965 On ch=16 n=41 v=68
36950 Off ch=16 n=41 v=64
37405 On ch=16 n=41 v=68
38387 Off ch=16 n=41 v=64
38865 On ch=16 n=34 v=68
39855 Off ch=16 n=34 v=64
40290 On ch=16 n=34 v=68
41282 Off ch=16 n=34 v=64
41725 On ch=16 n=39 v=68
42710 Off ch=16 n=39 v=64
43165 On ch=16 n=32 v=68
44147 Off ch=16 n=32 v=64
44625 On ch=16 n=31 v=68
45615 Off ch=16 n=31 v=64
46050 On ch=16 n=32 v=68
47042 Off ch=16 n=32 v=64
47485 On ch=16 n=31 v=68
48470 Off ch=16 n=31 v=64
48925 On ch=16 n=32 v=68
49907 Off ch=16 n=32 v=64
50385 On ch=16 n=31 v=68
51375 Off ch=16 n=31 v=64
51810 On ch=16 n=32 v=68
52802 Off ch=16 n=32 v=64
53245 On ch=16 n=31 v=68
54230 Off ch=16 n=31 v=64
54685 On ch=16 n=32 v=68
55667 Off ch=16 n=32 v=64
56145 On ch=16 n=31 v=68
57135 Off ch=16 n=31 v=64
57570 On ch=16 n=31 v=68
58562 Off ch=16 n=31 v=64
59005 On ch=16 n=36 v=68
59990 Off ch=16 n=36 v=64
60445 On ch=16 n=31 v=80
61427 Off ch=16 n=31 v=64
61905 On ch=16 n=36 v=80
62895 Off ch=16 n=36 v=64
63330 On ch=16 n=31 v=80
64322 Off ch=16 n=31 v=64
64785 On ch=16 n=36 v=80
65775 Off ch=16 n=36 v=64
66210 On ch=16 n=31 v=80
67202 Off ch=16 n=31 v=64
67645 On ch=16 n=36 v=80
68630 Off ch=16 n=36 v=64
69085 On ch=16 n=31 v=80
70067 Off ch=16 n=31 v=64
70545 On ch=16 n=36 v=80
71535 Off ch=16 n=36 v=64
71970 On ch=16 n=31 v=80
72962 Off ch=16 n=31 v=64
73405 On ch=16 n=38 v=80
74390 Off ch=16 n=38 v=64
74845 On ch=16 n=31 v=80
75827 Off ch=16 n=31 v=64
76305 On ch=16 n=38 v=80
77295 Off ch=16 n=38 v=64
77730 On ch=16 n=31 v=80
78722 Off ch=16 n=31 v=64
79165 On ch=16 n=38 v=80
80150 Off ch=16 n=38 v=64
80605 On ch=16 n=31 v=80
81587 Off ch=16 n=31 v=64
82065 On ch=16 n=38 v=80
83055 Off ch=16 n=38 v=64
83490 On ch=16 n=31 v=80
84482 Off ch=16 n=31 v=64
84925 On ch=16 n=36 v=80
85910 Off ch=16 n=36 v=64
86365 On ch=16 n=31 v=80
87347 Off ch=16 n=31 v=64
87825 On ch=16 n=36 v=80
88815 Off ch=16 n=36 v=64
89250 On ch=16 n=31 v=80
90242 Off ch=16 n=31 v=64
90685 On ch=16 n=41 v=80
91670 Off ch=16 n=41 v=64
92125 On ch=16 n=41 v=80
93107 Off ch=16 n=41 v=64
93585 On ch=16 n=34 v=80
94575 Off ch=16 n=34 v=64
95010 On ch=16 n=34 v=80
96002 Off ch=16 n=34 v=64
96445 On ch=16 n=39 v=80
97430 Off ch=16 n=39 v=64
97885 On ch=16 n=32 v=80
98867 Off ch=16 n=32 v=64
99345 On ch=16 n=31 v=68
100335 Off ch=16 n=31 v=64
100770 On ch=16 n=32 v=68
101762 Off ch=16 n=32 v=64
102205 On ch=16 n=31 v=68
103190 Off ch=16 n=31 v=64
103645 On ch=16 n=32 v=68
104627 Off ch=16 n=32 v=64
105105 On ch=16 n=31 v=68
106095 Off ch=16 n=31 v=64
106530 On ch=16 n=32 v=68
107522 Off ch=16 n=32 v=64
107965 On ch=16 n=31 v=68
108950 Off ch=16 n=31 v=64
109405 On ch=16 n=32 v=68
110387 Off ch=16 n=32 v=64
110865 On ch=16 n=31 v=68
111855 Off ch=16 n=31 v=64
112290 On ch=16 n=31 v=68
113282 Off ch=16 n=31 v=64
113725 On ch=16 n=36 v=81
114025 Off ch=16 n=36 v=64
114197 On ch=16 n=31 v=81
114567 Off ch=16 n=31 v=64
114697 On ch=16 n=27 v=81
115045 Off ch=16 n=27 v=64
115195 On ch=16 n=24 v=81
115952 Off ch=16 n=24 v=64
210225 On ch=16 n=36 v=82
211215 Off ch=16 n=36 v=64
211650 On ch=16 n=31 v=82
212642 Off ch=16 n=31 v=64
213085 On ch=16 n=36 v=68
214070 Off ch=16 n=36 v=64
214525 On ch=16 n=31 v=68
215507 Off ch=16 n=31 v=64
215985 On ch=16 n=36 v=68
216427 On ch=16 n=63 v=38
216432 On ch=16 n=55 v=48
216440 On ch=16 n=62 v=28
216450 On ch=16 n=67 v=38
216480 On ch=16 n=60 v=39
216557 Off ch=16 n=63 v=64
216562 Off ch=16 n=55 v=64
216570 Off ch=16 n=62 v=64
216582 Off ch=16 n=67 v=64
216590 Off ch=16 n=60 v=64
216920 On ch=16 n=62 v=28
216927 On ch=16 n=67 v=45
216942 On ch=16 n=63 v=38
216945 On ch=16 n=60 v=44
216960 On ch=16 n=55 v=52
216975 Off ch=16 n=36 v=64
217050 Off ch=16 n=62 v=64
217062 Off ch=16 n=67 v=64
217080 Off ch=16 n=63 v=64
217090 Off ch=16 n=55 v=64
217102 Off ch=16 n=60 v=64
217410 On ch=16 n=31 v=68
217867 On ch=16 n=63 v=42
217880 On ch=16 n=62 v=28
217890 On ch=16 n=55 v=44
217890 On ch=16 n=67 v=38
217920 On ch=16 n=60 v=44
217997 Off ch=16 n=63 v=64
218010 Off ch=16 n=62 v=64
218012 Off ch=16 n=55 v=64
218017 Off ch=16 n=67 v=64
218037 Off ch=16 n=60 v=64
218360 On ch=16 n=62 v=28
218367 On ch=16 n=67 v=39
218380 On ch=16 n=60 v=52
218380 On ch=16 n=63 v=46
218400 On ch=16 n=55 v=40
218402 Off ch=16 n=31 v=64
218480 Off ch=16 n=67 v=64
218490 Off ch=16 n=62 v=64
218502 Off ch=16 n=63 v=64
218515 Off ch=16 n=60 v=64
218557 Off ch=16 n=55 v=64
218845 On ch=16 n=36 v=68
219307 On ch=16 n=63 v=38
219312 On ch=16 n=55 v=48
219320 On ch=16 n=62 v=28
219330 On ch=16 n=67 v=38
219360 On ch=16 n=60 v=39
219437 Off ch=16 n=63 v=64
219442 Off ch=16 n=55 v=64
219450 Off ch=16 n=62 v=64
219462 Off ch=16 n=67 v=64
219470 Off ch=16 n=60 v=64
219800 On ch=16 n=62 v=28
219807 On ch=16 n=67 v=45
219822 On ch=16 n=63 v=38
219825 On ch=16 n=60 v=44
219830 Off ch=16 n=36 v=64
219840 On ch=16 n=55 v=52
219930 Off ch=16 n=62 v=64
219942 Off ch=16 n=67 v=64
219960 Off ch=16 n=63 v=64
219970 Off ch=16 n=55 v=64
219982 Off ch=16 n=60 v=64
220285 On ch=16 n=31 v=68
220747 On ch=16 n=63 v=42
220760 On ch=16 n=62 v=28
220770 On ch=16 n=55 v=44
220770 On ch=16 n=67 v=38
220800 On ch=16 n=60 v=44
220877 Off ch=16 n=63 v=64
220890 Off ch=16 n=62 v=64
220892 Off ch=16 n=55 v=64
220897 Off ch=16 n=67 v=64
220917 Off ch=16 n=60 v=64
221240 On ch=16 n=62 v=28
221247 On ch=16 n=67 v=39
221260 On ch=16 n=60 v=52
221260 On ch=16 n=63 v=46
221267 Off ch=16 n=31 v=64
221280 On ch=16 n=55 v=40
221360 Off ch=16 n=67 v=64
221370 Off ch=16 n=62 v=64
221382 Off ch=16 n=63 v=64
221395 Off ch=16 n=60 v=64
221437 Off ch=16 n=55 v=64
221745 On ch=16 n=36 v=68
222187 On ch=16 n=63 v=38
222192 On ch=16 n=55 v=48
222200 On ch=16 n=62 v=28
222210 On ch=16 n=67 v=38
222240 On ch=16 n=60 v=39
222317 Off ch=16 n=63 v=64
222322 Off ch=16 n=55 v=64
222330 Off ch=16 n=62 v=64
222342 Off ch=16 n=67 v=64
222350 Off ch=16 n=60 v=64
222680 On ch=16 n=62 v=28
222687 On ch=16 n=67 v=45
222702 On ch=16 n=63 v=38
222705 On ch=16 n=60 v=44
222720 On ch=16 n=55 v=52
222735 Off ch=16 n=36 v=64
222810 Off ch=16 n=62 v=64
222822 Off ch=16 n=67 v=64
222840 Off ch=16 n=63 v=64
222850 Off ch=16 n=55 v=64
222862 Off ch=16 n=60 v=64
223170 On ch=16 n=31 v=68
223627 On ch=16 n=63 v=42
223640 On ch=16 n=62 v=28
223650 On ch=16 n=55 v=44
223650 On ch=16 n=67 v=38
223680 On ch=16 n=60 v=44
223757 Off ch=16 n=63 v=64
223770 Off ch=16 n=62 v=64
223772 Off ch=16 n=55 v=64
223777 Off ch=16 n=67 v=64
223797 Off ch=16 n=60 v=64
224120 On ch=16 n=62 v=28
224127 On ch=16 n=67 v=39
224140 On ch=16 n=60 v=52
224140 On ch=16 n=63 v=46
224160 On ch=16 n=55 v=40
224162 Off ch=16 n=31 v=64
224240 Off ch=16 n=67 v=64
224250 Off ch=16 n=62 v=64
224262 Off ch=16 n=63 v=64
224275 Off ch=16 n=60 v=64
224317 Off ch=16 n=55 v=64
224605 On ch=16 n=38 v=68
225067 On ch=16 n=62 v=38
225072 On ch=16 n=56 v=48
225080 On ch=16 n=55 v=38
225090 On ch=16 n=65 v=38
225120 On ch=16 n=60 v=39
225197 Off ch=16 n=62 v=64
225202 Off ch=16 n=56 v=64
225210 Off ch=16 n=55 v=64
225222 Off ch=16 n=65 v=64
225230 Off ch=16 n=60 v=64
225560 On ch=16 n=55 v=38
225567 On ch=16 n=65 v=45
225582 On ch=16 n=62 v=38
225585 On ch=16 n=60 v=44
225590 Off ch=16 n=38 v=64
225600 On ch=16 n=56 v=52
225690 Off ch=16 n=55 v=64
225702 Off ch=16 n=65 v=64
225720 Off ch=16 n=62 v=64
225730 Off ch=16 n=56 v=64
225742 Off ch=16 n=60 v=64
226045 On ch=16 n=31 v=68
226507 On ch=16 n=62 v=42
226520 On ch=16 n=55 v=38
226530 On ch=16 n=56 v=44
226530 On ch=16 n=65 v=38
226560 On ch=16 n=60 v=44
226637 Off ch=16 n=62 v=64
226650 Off ch=16 n=55 v=64
226652 Off ch=16 n=56 v=64
226657 Off ch=16 n=65 v=64
226677 Off ch=16 n=60 v=64
227000 On ch=16 n=55 v=38
227007 On ch=16 n=65 v=39
227020 On ch=16 n=60 v=52
227020 On ch=16 n=62 v=46
227027 Off ch=16 n=31 v=64
227040 On ch=16 n=56 v=40
227120 Off ch=16 n=65 v=64
227130 Off ch=16 n=55 v=64
227142 Off ch=16 n=62 v=64
227155 Off ch=16 n=60 v=64
227197 Off ch=16 n=56 v=64
227505 On ch=16 n=38 v=68
227947 On ch=16 n=62 v=38
227952 On ch=16 n=56 v=48
227960 On ch=16 n=55 v=38
227970 On ch=16 n=65 v=38
228000 On ch=16 n=60 v=39
228077 Off ch=16 n=62 v=64
228082 Off ch=16 n=56 v=64
228090 Off ch=16 n=55 v=64
228102 Off ch=16 n=65 v=64
228110 Off ch=16 n=60 v=64
228440 On ch=16 n=55 v=38
228447 On ch=16 n=65 v=45
228462 On ch=16 n=62 v=38
228465 On ch=16 n=60 v=44
228480 On ch=16 n=56 v=52
228495 Off ch=16 n=38 v=64
228570 Off ch=16 n=55 v=64
228582 Off ch=16 n=65 v=64
228600 Off ch=16 n=62 v=64
228610 Off ch=16 n=56 v=64
228622 Off ch=16 n=60 v=64
228930 On ch=16 n=31 v=68
229387 On ch=16 n=62 v=42
229400 On ch=16 n=55 v=38
229410 On ch=16 n=56 v=44
229410 On ch=16 n=65 v=38
229440 On ch=16 n=60 v=44
229517 Off ch=16 n=62 v=64
229530 Off ch=16 n=55 v=64
229532 Off ch=16 n=56 v=64
229537 Off ch=16 n=65 v=64
229557 Off ch=16 n=60 v=64
229880 On ch=16 n=55 v=38
229887 On ch=16 n=65 v=39
229900 On ch=16 n=60 v=52
229900 On ch=16 n=62 v=46
229920 On ch=16 n=56 v=40
229922 Off ch=16 n=31 v=64
230000 Off ch=16 n=65 v=64
230010 Off ch=16 n=55 v=64
230022 Off ch=16 n=62 v=64
230035 Off ch=16 n=60 v=64
230077 Off ch=16 n=56 v=64
230365 On ch=16 n=38 v=68
230827 On ch=16 n=62 v=38
230832 On ch=16 n=55 v=48
230840 On ch=16 n=65 v=38
230850 On ch=16 n=67 v=38
230880 On ch=16 n=59 v=39
230957 Off ch=16 n=62 v=64
230962 Off ch=16 n=55 v=64
230970 Off ch=16 n=65 v=64
230982 Off ch=16 n=67 v=64
230990 Off ch=16 n=59 v=64
231320 On ch=16 n=65 v=38
231327 On ch=16 n=67 v=45
231342 On ch=16 n=62 v=38
231345 On ch=16 n=59 v=44
231350 Off ch=16 n=38 v=64
231360 On ch=16 n=55 v=52
231450 Off ch=16 n=65 v=64
231462 Off ch=16 n=67 v=64
231480 Off ch=16 n=62 v=64
231490 Off ch=16 n=55 v=64
231502 Off ch=16 n=59 v=64
231805 On ch=16 n=31 v=68
232267 On ch=16 n=62 v=42
232280 On ch=16 n=65 v=38
232290 On ch=16 n=67 v=38
232290 On ch=16 n=55 v=44
232320 On ch=16 n=59 v=44
232397 Off ch=16 n=62 v=64
232410 Off ch=16 n=65 v=64
232412 Off ch=16 n=55 v=64
232417 Off ch=16 n=67 v=64
232437 Off ch=16 n=59 v=64
232760 On ch=16 n=65 v=38
232767 On ch=16 n=67 v=39
232780 On ch=16 n=62 v=46
232780 On ch=16 n=59 v=52
232787 Off ch=16 n=31 v=64
232800 On ch=16 n=55 v=40
232880 Off ch=16 n=67 v=64
232890 Off ch=16 n=65 v=64
232902 Off ch=16 n=62 v=64
232915 Off ch=16 n=59 v=64
232957 Off ch=16 n=55 v=64
233265 On ch=16 n=38 v=68
233707 On ch=16 n=62 v=38
233712 On ch=16 n=55 v=48
233720 On ch=16 n=65 v=38
233730 On ch=16 n=67 v=38
233760 On ch=16 n=59 v=39
233837 Off ch=16 n=62 v=64
233842 Off ch=16 n=55 v=64
233850 Off ch=16 n=65 v=64
233862 Off ch=16 n=67 v=64
233870 Off ch=16 n=59 v=64
234200 On ch=16 n=65 v=38
234207 On ch=16 n=67 v=45
234222 On ch=16 n=62 v=38
234225 On ch=16 n=59 v=44
234240 On ch=16 n=55 v=52
234255 Off ch=16 n=38 v=64
234330 Off ch=16 n=65 v=64
234342 Off ch=16 n=67 v=64
234360 Off ch=16 n=62 v=64
234370 Off ch=16 n=55 v=64
234382 Off ch=16 n=59 v=64
234690 On ch=16 n=31 v=68
235147 On ch=16 n=62 v=42
235160 On ch=16 n=65 v=38
235170 On ch=16 n=67 v=38
235170 On ch=16 n=55 v=44
235200 On ch=16 n=59 v=44
235277 Off ch=16 n=62 v=64
235290 Off ch=16 n=65 v=64
235292 Off ch=16 n=55 v=64
235297 Off ch=16 n=67 v=64
235317 Off ch=16 n=59 v=64
235640 On ch=16 n=65 v=38
235647 On ch=16 n=67 v=39
235660 On ch=16 n=62 v=46
235660 On ch=16 n=59 v=52
235680 On ch=16 n=55 v=40
235682 Off ch=16 n=31 v=64
235760 Off ch=16 n=67 v=64
235770 Off ch=16 n=65 v=64
235782 Off ch=16 n=62 v=64
235795 Off ch=16 n=59 v=64
235837 Off ch=16 n=55 v=64
236125 On ch=16 n=36 v=68
236587 On ch=16 n=63 v=38
236592 On ch=16 n=55 v=48
236600 On ch=16 n=62 v=28
236610 On ch=16 n=67 v=38
236640 On ch=16 n=60 v=39
236717 Off ch=16 n=63 v=64
236722 Off ch=16 n=55 v=64
236730 Off ch=16 n=62 v=64
236742 Off ch=16 n=67 v=64
236750 Off ch=16 n=60 v=64
237080 On ch=16 n=62 v=28
237087 On ch=16 n=67 v=45
237102 On ch=16 n=63 v=38
237105 On ch=16 n=60 v=44
237110 Off ch=16 n=36 v=64
237120 On ch=16 n=55 v=52
237210 Off ch=16 n=62 v=64
237222 Off ch=16 n=67 v=64
237240 Off ch=16 n=63 v=64
237250 Off ch=16 n=55 v=64
237262 Off ch=16 n=60 v=64
237565 On ch=16 n=31 v=68
238027 On ch=16 n=63 v=42
238040 On ch=16 n=62 v=28
238050 On ch=16 n=55 v=44
238050 On ch=16 n=67 v=38
238080 On ch=16 n=60 v=44
238157 Off ch=16 n=63 v=64
238170 Off ch=16 n=62 v=64
238172 Off ch=16 n=55 v=64
238177 Off ch=16 n=67 v=64
238197 Off ch=16 n=60 v=64
238520 On ch=16 n=62 v=28
238527 On ch=16 n=67 v=39
238540 On ch=16 n=60 v=52
238540 On ch=16 n=63 v=46
238547 Off ch=16 n=31 v=64
238560 On ch=16 n=55 v=40
238640 Off ch=16 n=67 v=64
238650 Off ch=16 n=62 v=64
238662 Off ch=16 n=63 v=64
238675 Off ch=16 n=60 v=64
238717 Off ch=16 n=55 v=64
239025 On ch=16 n=36 v=68
239467 On ch=16 n=63 v=38
239472 On ch=16 n=55 v=48
239480 On ch=16 n=62 v=28
239490 On ch=16 n=67 v=38
239520 On ch=16 n=60 v=39
239597 Off ch=16 n=63 v=64
239602 Off ch=16 n=55 v=64
239610 Off ch=16 n=62 v=64
239622 Off ch=16 n=67 v=64
239630 Off ch=16 n=60 v=64
239960 On ch=16 n=62 v=28
239967 On ch=16 n=67 v=45
239982 On ch=16 n=63 v=38
239985 On ch=16 n=60 v=44
240000 On ch=16 n=55 v=52
240015 Off ch=16 n=36 v=64
240090 Off ch=16 n=62 v=64
240102 Off ch=16 n=67 v=64
240120 Off ch=16 n=63 v=64
240130 Off ch=16 n=55 v=64
240142 Off ch=16 n=60 v=64
240450 On ch=16 n=31 v=68
240907 On ch=16 n=63 v=42
240920 On ch=16 n=62 v=28
240930 On ch=16 n=55 v=44
240930 On ch=16 n=67 v=38
240960 On ch=16 n=60 v=44
241037 Off ch=16 n=63 v=64
241050 Off ch=16 n=62 v=64
241052 Off ch=16 n=55 v=64
241057 Off ch=16 n=67 v=64
241077 Off ch=16 n=60 v=64
241400 On ch=16 n=62 v=28
241407 On ch=16 n=67 v=39
241420 On ch=16 n=60 v=52
241420 On ch=16 n=63 v=46
241440 On ch=16 n=55 v=40
241442 Off ch=16 n=31 v=64
241520 Off ch=16 n=67 v=64
241530 Off ch=16 n=62 v=64
241542 Off ch=16 n=63 v=64
241555 Off ch=16 n=60 v=64
241597 Off ch=16 n=55 v=64
241885 On ch=16 n=41 v=68
242347 On ch=16 n=62 v=38
242352 On ch=16 n=56 v=48
242360 On ch=16 n=55 v=38
242370 On ch=16 n=65 v=38
242400 On ch=16 n=60 v=39
242477 Off ch=16 n=62 v=64
242482 Off ch=16 n=56 v=64
242490 Off ch=16 n=55 v=64
242502 Off ch=16 n=65 v=64
242510 Off ch=16 n=60 v=64
242840 On ch=16 n=55 v=38
242847 On ch=16 n=65 v=45
242862 On ch=16 n=62 v=38
242865 On ch=16 n=60 v=44
242870 Off ch=16 n=41 v=64
242880 On ch=16 n=56 v=52
242970 Off ch=16 n=55 v=64
242982 Off ch=16 n=65 v=64
243000 Off ch=16 n=62 v=64
243010 Off ch=16 n=56 v=64
243022 Off ch=16 n=60 v=64
243325 On ch=16 n=41 v=68
243787 On ch=16 n=62 v=42
243800 On ch=16 n=55 v=38
243810 On ch=16 n=56 v=44
243810 On ch=16 n=65 v=38
243840 On ch=16 n=60 v=44
243917 Off ch=16 n=62 v=64
243930 Off ch=16 n=55 v=64
243932 Off ch=16 n=56 v=64
243937 Off ch=16 n=65 v=64
243957 Off ch=16 n=60 v=64
244280 On ch=16 n=55 v=38
244287 On ch=16 n=65 v=39
244300 On ch=16 n=60 v=52
244300 On ch=16 n=62 v=46
244307 Off ch=16 n=41 v=64
244320 On ch=16 n=56 v=40
244400 Off ch=16 n=65 v=64
244410 Off ch=16 n=55 v=64
244422 Off ch=16 n=62 v=64
244435 Off ch=16 n=60 v=64
244477 Off ch=16 n=56 v=64
244785 On ch=16 n=34 v=68
245227 On ch=16 n=58 v=38
245232 On ch=16 n=53 v=48
245240 On ch=16 n=50 v=38
245250 On ch=16 n=62 v=48
245280 On ch=16 n=56 v=39
245357 Off ch=16 n=58 v=64
245362 Off ch=16 n=53 v=64
245370 Off ch=16 n=50 v=64
245382 Off ch=16 n=62 v=64
245390 Off ch=16 n=56 v=64
245720 On ch=16 n=50 v=38
245727 On ch=16 n=62 v=55
245742 On ch=16 n=58 v=38
245745 On ch=16 n=56 v=44
245760 On ch=16 n=53 v=52
245775 Off ch=16 n=34 v=64
245850 Off ch=16 n=50 v=64
245862 Off ch=16 n=62 v=64
245880 Off ch=16 n=58 v=64
245890 Off ch=16 n=53 v=64
245902 Off ch=16 n=56 v=64
246210 On ch=16 n=34 v=68
246667 On ch=16 n=58 v=42
246680 On ch=16 n=50 v=38
246690 On ch=16 n=62 v=48
246690 On ch=16 n=53 v=44
246720 On ch=16 n=56 v=44
246797 Off ch=16 n=58 v=64
246810 Off ch=16 n=50 v=64
246812 Off ch=16 n=53 v=64
246817 Off ch=16 n=62 v=64
246837 Off ch=16 n=56 v=64
247160 On ch=16 n=50 v=38
247167 On ch=16 n=62 v=49
247180 On ch=16 n=58 v=46
247180 On ch=16 n=56 v=52
247200 On ch=16 n=53 v=40
247202 Off ch=16 n=34 v=64
247280 Off ch=16 n=62 v=64
247290 Off ch=16 n=50 v=64
247302 Off ch=16 n=58 v=64
247315 Off ch=16 n=56 v=64
247357 Off ch=16 n=53 v=64
247645 On ch=16 n=39 v=68
248107 On ch=16 n=58 v=38
248112 On ch=16 n=55 v=48
248120 On ch=16 n=51 v=28
248130 On ch=16 n=63 v=48
248237 Off ch=16 n=58 v=64
248242 Off ch=16 n=55 v=64
248250 Off ch=16 n=51 v=64
248262 Off ch=16 n=63 v=64
248600 On ch=16 n=51 v=28
248607 On ch=16 n=63 v=55
248622 On ch=16 n=58 v=38
248630 Off ch=16 n=39 v=64
248640 On ch=16 n=55 v=52
248730 Off ch=16 n=51 v=64
248742 Off ch=16 n=63 v=64
248760 Off ch=16 n=58 v=64
248770 Off ch=16 n=55 v=64
249547 On ch=16 n=63 v=48
249570 On ch=16 n=55 v=44
249600 On ch=16 n=60 v=44
249677 Off ch=16 n=63 v=64
249692 Off ch=16 n=55 v=64
249717 Off ch=16 n=60 v=64
250040 On ch=16 n=62 v=28
250060 On ch=16 n=60 v=52
250060 On ch=16 n=65 v=56
250080 On ch=16 n=55 v=40
250170 Off ch=16 n=62 v=64
250182 Off ch=16 n=65 v=64
250195 Off ch=16 n=60 v=64
250237 Off ch=16 n=55 v=64
250545 On ch=16 n=31 v=68
250987 On ch=16 n=63 v=38
250992 On ch=16 n=55 v=48
251010 On ch=16 n=67 v=38
251040 On ch=16 n=60 v=39
251117 Off ch=16 n=63 v=64
251122 Off ch=16 n=55 v=64
251142 Off ch=16 n=67 v=64
251150 Off ch=16 n=60 v=64
251487 On ch=16 n=67 v=45
251502 On ch=16 n=63 v=38
251505 On ch=16 n=60 v=44
251520 On ch=16 n=55 v=52
251535 Off ch=16 n=31 v=64
251622 Off ch=16 n=67 v=64
251640 Off ch=16 n=63 v=64
251650 Off ch=16 n=55 v=64
251662 Off ch=16 n=60 v=64
251970 On ch=16 n=32 v=68
252427 On ch=16 n=62 v=42
252450 On ch=16 n=55 v=44
252450 On ch=16 n=65 v=38
252480 On ch=16 n=60 v=44
252557 Off ch=16 n=62 v=64
252572 Off ch=16 n=55 v=64
252577 Off ch=16 n=65 v=64
252597 Off ch=16 n=60 v=64
252927 On ch=16 n=65 v=39
252940 On ch=16 n=60 v=52
252940 On ch=16 n=62 v=46
252960 On ch=16 n=55 v=40
252962 Off ch=16 n=32 v=64
253040 Off ch=16 n=65 v=64
253062 Off ch=16 n=62 v=64
253075 Off ch=16 n=60 v=64
253117 Off ch=16 n=55 v=64
253405 On ch=16 n=31 v=68
253867 On ch=16 n=63 v=38
253872 On ch=16 n=55 v=48
253890 On ch=16 n=67 v=38
253920 On ch=16 n=60 v=39
253997 Off ch=16 n=63 v=64
254002 Off ch=16 n=55 v=64
254022 Off ch=16 n=67 v=64
254030 Off ch=16 n=60 v=64
254367 On ch=16 n=67 v=45
254382 On ch=16 n=63 v=38
254385 On ch=16 n=60 v=44
254390 Off ch=16 n=31 v=64
254400 On ch=16 n=55 v=52
254502 Off ch=16 n=67 v=64
254520 Off ch=16 n=63 v=64
254530 Off ch=16 n=55 v=64
254542 Off ch=16 n=60 v=64
254845 On ch=16 n=32 v=68
255307 On ch=16 n=63 v=42
255330 On ch=16 n=55 v=44
255330 On ch=16 n=67 v=38
255360 On ch=16 n=60 v=44
255437 Off ch=16 n=63 v=64
255452 Off ch=16 n=55 v=64
255457 Off ch=16 n=67 v=64
255477 Off ch=16 n=60 v=64
255800 On ch=16 n=60 v=28
255807 On ch=16 n=67 v=39
255820 On ch=16 n=62 v=52
255820 On ch=16 n=65 v=46
255827 Off ch=16 n=32 v=64
255840 On ch=16 n=55 v=40
255920 Off ch=16 n=67 v=64
255930 Off ch=16 n=60 v=64
255942 Off ch=16 n=65 v=64
255955 Off ch=16 n=62 v=64
255997 Off ch=16 n=55 v=64
256305 On ch=16 n=31 v=68
256747 On ch=16 n=63 v=38
256752 On ch=16 n=55 v=48
256770 On ch=16 n=67 v=38
256800 On ch=16 n=60 v=39
256877 Off ch=16 n=63 v=64
256882 Off ch=16 n=55 v=64
256902 Off ch=16 n=67 v=64
256910 Off ch=16 n=60 v=64
257247 On ch=16 n=67 v=45
257262 On ch=16 n=63 v=38
257265 On ch=16 n=60 v=44
257280 On ch=16 n=55 v=52
257295 Off ch=16 n=31 v=64
257382 Off ch=16 n=67 v=64
257400 Off ch=16 n=63 v=64
257410 Off ch=16 n=55 v=64
257422 Off ch=16 n=60 v=64
257730 On ch=16 n=32 v=68
258187 On ch=16 n=62 v=42
258210 On ch=16 n=55 v=44
258210 On ch=16 n=65 v=38
258240 On ch=16 n=60 v=44
258317 Off ch=16 n=62 v=64
258332 Off ch=16 n=55 v=64
258337 Off ch=16 n=65 v=64
258357 Off ch=16 n=60 v=64
258687 On ch=16 n=65 v=39
258700 On ch=16 n=60 v=52
258700 On ch=16 n=62 v=46
258720 On ch=16 n=55 v=40
258722 Off ch=16 n=32 v=64
258800 Off ch=16 n=65 v=64
258822 Off ch=16 n=62 v=64
258835 Off ch=16 n=60 v=64
258877 Off ch=16 n=55 v=64
259165 On ch=16 n=31 v=68
259627 On ch=16 n=63 v=38
259632 On ch=16 n=55 v=48
259650 On ch=16 n=67 v=38
259680 On ch=16 n=60 v=39
259757 Off ch=16 n=63 v=64
259762 Off ch=16 n=55 v=64
259782 Off ch=16 n=67 v=64
259790 Off ch=16 n=60 v=64
260127 On ch=16 n=67 v=45
260142 On ch=16 n=63 v=38
260145 On ch=16 n=60 v=44
260150 Off ch=16 n=31 v=64
260160 On ch=16 n=55 v=52
260262 Off ch=16 n=67 v=64
260280 Off ch=16 n=63 v=64
260290 Off ch=16 n=55 v=64
260302 Off ch=16 n=60 v=64
260605 On ch=16 n=32 v=68
261067 On ch=16 n=63 v=42
261090 On ch=16 n=55 v=44
261090 On ch=16 n=67 v=38
261120 On ch=16 n=60 v=44
261197 Off ch=16 n=63 v=64
261212 Off ch=16 n=55 v=64
261217 Off ch=16 n=67 v=64
261237 Off ch=16 n=60 v=64
261560 On ch=16 n=60 v=28
261567 On ch=16 n=67 v=39
261580 On ch=16 n=62 v=52
261580 On ch=16 n=65 v=46
261587 Off ch=16 n=32 v=64
261600 On ch=16 n=55 v=40
261680 Off ch=16 n=67 v=64
261690 Off ch=16 n=60 v=64
261702 Off ch=16 n=65 v=64
261715 Off ch=16 n=62 v=64
261757 Off ch=16 n=55 v=64
262065 On ch=16 n=31 v=68
262507 On ch=16 n=63 v=38
262512 On ch=16 n=55 v=48
262530 On ch=16 n=67 v=38
262560 On ch=16 n=60 v=39
262637 Off ch=16 n=63 v=64
262642 Off ch=16 n=55 v=64
262662 Off ch=16 n=67 v=64
262670 Off ch=16 n=60 v=64
263007 On ch=16 n=67 v=45
263022 On ch=16 n=63 v=38
263025 On ch=16 n=60 v=44
263040 On ch=16 n=55 v=52
263055 Off ch=16 n=31 v=64
263142 Off ch=16 n=67 v=64
263160 Off ch=16 n=63 v=64
263170 Off ch=16 n=55 v=64
263182 Off ch=16 n=60 v=64
263490 On ch=16 n=31 v=68
263947 On ch=16 n=62 v=42
263970 On ch=16 n=55 v=44
263970 On ch=16 n=65 v=38
263980 On ch=16 n=67 v=52
264000 On ch=16 n=59 v=44
264077 Off ch=16 n=62 v=64
264092 Off ch=16 n=55 v=64
264097 Off ch=16 n=65 v=64
264115 Off ch=16 n=67 v=64
264117 Off ch=16 n=59 v=64
264447 On ch=16 n=65 v=39
264460 On ch=16 n=67 v=52
264460 On ch=16 n=59 v=52
264460 On ch=16 n=62 v=46
264480 On ch=16 n=55 v=40
264482 Off ch=16 n=31 v=64
264560 Off ch=16 n=65 v=64
264582 Off ch=16 n=62 v=64
264595 Off ch=16 n=67 v=64
264595 Off ch=16 n=59 v=64
264637 Off ch=16 n=55 v=64
264907 On ch=16 n=63 v=38
264912 On ch=16 n=55 v=48
264925 On ch=16 n=36 v=68
264930 On ch=16 n=67 v=52
264960 On ch=16 n=60 v=39
265037 Off ch=16 n=63 v=64
265042 Off ch=16 n=55 v=64
265062 Off ch=16 n=67 v=64
265070 Off ch=16 n=60 v=64
265910 Off ch=16 n=36 v=64
266365 On ch=16 n=31 v=84
266825 Off ch=16 n=31 v=64
302385 On ch=16 n=31 v=68
303375 Off ch=16 n=31 v=64
303810 On ch=16 n=32 v=68
304802 Off ch=16 n=32 v=64
305245 On ch=16 n=31 v=68
306230 Off ch=16 n=31 v=64
306685 On ch=16 n=32 v=68
307667 Off ch=16 n=32 v=64
308145 On ch=16 n=31 v=68
309135 Off ch=16 n=31 v=64
309570 On ch=16 n=32 v=68
310562 Off ch=16 n=32 v=64
311005 On ch=16 n=31 v=68
311990 Off ch=16 n=31 v=64
312445 On ch=16 n=32 v=68
313427 Off ch=16 n=32 v=64
313905 On ch=16 n=31 v=68
314895 Off ch=16 n=31 v=64
315330 On ch=16 n=31 v=68
316322 Off ch=16 n=31 v=64
316765 On ch=16 n=36 v=68
317750 Off ch=16 n=36 v=64
317750 Meta TrkEnd
TrkEnd
