MFile 1 17 192
MTrk
0 Meta SeqName "siamo soli"
0 TimeSig 4/4 24 8
0 KeySig 0 major
0 Tempo 750000
16 Meta 0x21 0e
16 SysEx f0 7e 7f 09 01 f7
16 SysEx f0 41 10 42 12 40 00 7f 00 41 f7
16 SysEx f0 41 10 42 12 40 01 33 50 3c f7
16 SysEx f0 41 10 42 12 40 01 34 50 3b f7
16 Meta 0x21 0e
54912 Tempo 800000
54912 Meta TrkEnd
TrkEnd
MTrk
0 Meta TrkName "Soft karaoke"
0 Meta Text "@KMIDI KARAOKE FILE"
0 Meta TrkEnd
TrkEnd
MTrk
0 Meta TrkName "Words"
0 Meta Text "@LENGL"
0 Meta Text "@Tsiamo soli"
0 Meta Text "@Tvasco rossi"
8071 Meta Text "\\AH"
8444 Meta Text " NON"
8546 Meta Text " CI"
8600 Meta Text " POS"
8691 Meta Text "SO"
8788 Meta Text " CRE"
8878 Meta Text "DE"
8932 Meta Text "RE"
9409 Meta Text "/SEI"
9494 Meta Text " NER"
9547 Meta Text "VO"
9694 Meta Text "SA"
9750 Meta Text " E"
10083 Meta Text " E"
10126 Meta Text " NON"
10180 Meta Text " SAI"
10230 Meta Text " PER"
10331 Meta Text "CHE'"
11142 Meta Text "/E"
11518 Meta Text " NON"
11570 Meta Text " E'"
11662 Meta Text " MI"
11761 Meta Text "CA"
11862 Meta Text " FA"
11958 Meta Text "CI"
12006 Meta Text "LE"
12480 Meta Text "/FAI"
12531 Meta Text " L'A"
12624 Meta Text "MO"
12767 Meta Text "RE"
12822 Meta Text " E"
13156 Meta Text " E"
13200 Meta Text " NON"
13250 Meta Text " PEN"
13300 Meta Text "SI A"
13396 Meta Text " ME"
14158 Meta Text "/E"
14602 Meta Text " CO"
14694 Meta Text "SA"
14742 Meta Text " VUOI"
14832 Meta Text " RIS"
14926 Meta Text "PON"
15068 Meta Text "DE"
15120 Meta Text "RE"
15556 Meta Text "/SIA"
15650 Meta Text "MO"
15702 Meta Text " QUI"
16322 Meta Text " NON"
16422 Meta Text " MI"
16472 Meta Text " SEN"
16558 Meta Text "TI"
17288 Meta Text "/E"
17672 Meta Text " NOI"
17766 Meta Text " PAR"
17818 Meta Text "LIA"
17905 Meta Text "MO"
18004 Meta Text " SPES"
18148 Meta Text "SO"
18200 Meta Text " SI"
18631 Meta Text "/MA E'"
18729 Meta Text " CO"
18776 Meta Text "SI'"
19397 Meta Text " SIA"
19490 Meta Text "MO"
19542 Meta Text " SO"
19638 Meta Text "LI"
20262 Meta Text "\\E"
20744 Meta Text " TU"
20836 Meta Text " NON"
20888 Meta Text " PUOI"
21029 Meta Text " PRE"
21084 Meta Text "TEN"
21224 Meta Text "DE"
21279 Meta Text "RE"
21694 Meta Text "/SIA"
21794 Meta Text "MO"
21846 Meta Text " QUI"
22414 Meta Text " E"
22468 Meta Text " SIA"
22560 Meta Text "MO"
22610 Meta Text " VI"
22708 Meta Text "VI"
23339 Meta Text "/E"
23812 Meta Text " TUT"
23902 Meta Text "TO"
23955 Meta Text " PUO'"
24046 Meta Text " SUC"
24146 Meta Text "CE"
24246 Meta Text "DE"
24300 Meta Text "RE"
24776 Meta Text "/O"
24871 Meta Text "RA"
24922 Meta Text " QUI"
25534 Meta Text " SIA"
25634 Meta Text "MO"
25684 Meta Text " SO"
25782 Meta Text "LI"
26308 Meta Text "/SIA"
26403 Meta Text "MO"
26453 Meta Text " SO"
26549 Meta Text "LI"
27076 Meta Text " SIA"
27170 Meta Text "MO"
27222 Meta Text " SO"
27308 Meta Text "LI"
27848 Meta Text "/SIA"
27941 Meta Text "MO"
27991 Meta Text " SO"
28082 Meta Text "LI"
28810 Meta Text "\\VI"
28898 Meta Text "VERE IN"
28954 Meta Text "SIE"
29040 Meta Text "ME A"
29090 Meta Text " ME"
29480 Meta Text "/HAI"
29530 Meta Text " RA"
29576 Meta Text "GIO"
29622 Meta Text "NE HAI"
29666 Meta Text " RA"
29714 Meta Text "GIO"
29764 Meta Text "NE"
29812 Meta Text " TE"
30346 Meta Text "/NON"
30402 Meta Text " E'"
30486 Meta Text " MI"
30577 Meta Text "CA"
30677 Meta Text " SEM"
30774 Meta Text "PLI"
30822 Meta Text "CE"
31106 Meta Text "/NON"
31155 Meta Text " LO E'"
31246 Meta Text " STA"
31346 Meta Text "TO"
31444 Meta Text " MAI"
31532 Meta Text " PER"
31582 Meta Text " ME"
31874 Meta Text "/IO"
31923 Meta Text " CHE"
31969 Meta Text " CI"
32018 Meta Text " CRE"
32064 Meta Text "DE"
32159 Meta Text "VO"
32208 Meta Text " PIU'"
32298 Meta Text " DI"
32352 Meta Text " TE"
32644 Meta Text "/CHE"
32730 Meta Text " FOS"
32794 Meta Text "SE"
32872 Meta Text " POS"
32962 Meta Text "SI"
33074 Meta Text "BI"
33129 Meta Text "LE"
33462 Meta Text "/E"
33513 Meta Text " SMET"
33565 Meta Text "TI"
33614 Meta Text "LA"
33710 Meta Text " DI"
33758 Meta Text " PIAN"
33884 Meta Text "GE"
33936 Meta Text "RE"
41042 Meta Text "\\E"
41476 Meta Text " TU"
41566 Meta Text " NON"
41619 Meta Text " PUOI"
41710 Meta Text " RIS"
41810 Meta Text "PON"
41910 Meta Text "DER"
41964 Meta Text "MI"
42440 Meta Text "/SO"
42535 Meta Text "NO"
42586 Meta Text " QUI"
43155 Meta Text " E"
43211 Meta Text " NON"
43306 Meta Text " MI AS"
43358 Meta Text "COL"
43451 Meta Text "TI"
44060 Meta Text "/E"
44550 Meta Text " TUT"
44636 Meta Text "TO"
44687 Meta Text " PUO'"
44784 Meta Text " SUC"
44886 Meta Text "CE"
44983 Meta Text "DE"
45038 Meta Text "RE"
45510 Meta Text "/O"
45607 Meta Text "RA"
45658 Meta Text " QUI"
46278 Meta Text " SIA"
46372 Meta Text "MO"
46422 Meta Text " VI"
46516 Meta Text "VI"
47042 Meta Text "/SIA"
47146 Meta Text "MO"
47193 Meta Text " VI"
47288 Meta Text "VI"
47814 Meta Text " SIA"
47905 Meta Text "MO"
47956 Meta Text " VI"
48050 Meta Text "VI"
48778 Meta Text "/VI"
48866 Meta Text "VERE IN"
48922 Meta Text "SIE"
49008 Meta Text "ME A"
49058 Meta Text " ME"
49448 Meta Text "/HAI"
49498 Meta Text " RA"
49544 Meta Text "GIO"
49590 Meta Text "NE HAI"
49634 Meta Text " RA"
49682 Meta Text "GIO"
49732 Meta Text "NE"
49780 Meta Text " TE"
50314 Meta Text "/NON"
50370 Meta Text " E'"
50454 Meta Text " MI"
50545 Meta Text "CA"
50645 Meta Text " SEM"
50742 Meta Text "PLI"
50790 Meta Text "CE"
51074 Meta Text "/NON"
51123 Meta Text " LO E'"
51214 Meta Text " STA"
51314 Meta Text "TO"
51412 Meta Text " MAI"
51500 Meta Text " PER"
51550 Meta Text " ME"
51842 Meta Text "/IO"
51891 Meta Text " CHE"
51937 Meta Text " CI"
51986 Meta Text " CRE"
52032 Meta Text "DE"
52127 Meta Text "VO"
52176 Meta Text " PIU'"
52266 Meta Text " DI"
52320 Meta Text " TE"
52612 Meta Text "/CHE"
52698 Meta Text " FOS"
52762 Meta Text "SE"
52840 Meta Text " POS"
52930 Meta Text "SI"
53042 Meta Text "BI"
53097 Meta Text "LE"
53430 Meta Text "/E"
53474 Meta Text " SMET"
53526 Meta Text "TI"
53568 Meta Text "LA"
53618 Meta Text " DI"
53666 Meta Text " PIAN"
53844 Meta Text "GE"
53900 Meta Text "RE"
54714 Meta Text "/SIA"
54818 Meta Text "MO"
54869 Meta Text " SO"
54957 Meta Text "LI"
55542 Meta Text " SIA"
55622 Meta Text "MO"
55688 Meta Text " SO"
55800 Meta Text "LI"
56256 Meta Text "/SIA"
56354 Meta Text "MO"
56408 Meta Text " SO"
56501 Meta Text "LI"
56501 Meta TrkEnd
TrkEnd
MTrk
200 Par ch=2 c=121 v=0
242 Par ch=2 c=10 v=64
244 Par ch=2 c=93 v=39
246 Par ch=2 c=91 v=4
248 Par ch=2 c=11 v=127
250 Par ch=2 c=7 v=96
252 Pb ch=2 v=8192
256 Par ch=2 c=0 v=0
256 Par ch=2 c=32 v=0
256 PrCh ch=2 p=33
420 Par ch=2 c=99 v=1
420 Par ch=2 c=98 v=32
420 Par ch=2 c=6 v=27
420 Par ch=2 c=38 v=0
1920 On ch=2 n=23 v=101
2013 On ch=2 n=23 v=0
2016 On ch=2 n=35 v=98
2060 On ch=2 n=35 v=0
2064 On ch=2 n=23 v=100
2136 On ch=2 n=23 v=0
2160 On ch=2 n=23 v=99
2238 On ch=2 n=23 v=0
2256 On ch=2 n=23 v=101
2281 On ch=2 n=23 v=0
2304 On ch=2 n=23 v=103
2394 On ch=2 n=23 v=0
2400 On ch=2 n=35 v=98
2444 On ch=2 n=35 v=0
2448 On ch=2 n=23 v=101
2541 On ch=2 n=23 v=0
2544 On ch=2 n=35 v=98
2589 On ch=2 n=35 v=0
2592 On ch=2 n=23 v=101
2637 On ch=2 n=23 v=0
2640 On ch=2 n=35 v=98
2685 On ch=2 n=35 v=0
2688 On ch=2 n=23 v=101
2781 On ch=2 n=23 v=0
2784 On ch=2 n=35 v=98
2828 On ch=2 n=35 v=0
2832 On ch=2 n=23 v=100
2904 On ch=2 n=23 v=0
2928 On ch=2 n=23 v=99
3006 On ch=2 n=23 v=0
3024 On ch=2 n=23 v=101
3049 On ch=2 n=23 v=0
3072 On ch=2 n=23 v=103
3162 On ch=2 n=23 v=0
3168 On ch=2 n=35 v=98
3212 On ch=2 n=35 v=0
3216 On ch=2 n=23 v=101
3309 On ch=2 n=23 v=0
3312 On ch=2 n=35 v=98
3357 On ch=2 n=35 v=0
3360 On ch=2 n=23 v=101
3405 On ch=2 n=23 v=0
3408 On ch=2 n=35 v=98
3453 On ch=2 n=35 v=0
3456 On ch=2 n=23 v=102
3530 On ch=2 n=23 v=0
3552 On ch=2 n=23 v=100
3578 On ch=2 n=23 v=0
3600 On ch=2 n=23 v=103
3686 On ch=2 n=23 v=0
3696 On ch=2 n=35 v=97
3741 On ch=2 n=35 v=0
3744 On ch=2 n=23 v=102
3778 On ch=2 n=23 v=0
3792 On ch=2 n=23 v=99
3815 On ch=2 n=23 v=0
3840 On ch=2 n=23 v=102
3932 On ch=2 n=23 v=0
3936 On ch=2 n=35 v=99
3980 On ch=2 n=35 v=0
3984 On ch=2 n=23 v=100
4068 On ch=2 n=23 v=0
4080 On ch=2 n=35 v=98
4124 On ch=2 n=35 v=0
4128 On ch=2 n=23 v=100
4173 On ch=2 n=23 v=0
4176 On ch=2 n=35 v=100
4221 On ch=2 n=35 v=0
4224 On ch=2 n=23 v=103
4305 On ch=2 n=23 v=0
4320 On ch=2 n=23 v=101
4346 On ch=2 n=23 v=0
4368 On ch=2 n=23 v=103
4458 On ch=2 n=23 v=0
4464 On ch=2 n=35 v=98
4509 On ch=2 n=35 v=0
4512 On ch=2 n=23 v=101
4557 On ch=2 n=23 v=0
4560 On ch=2 n=35 v=98
4605 On ch=2 n=35 v=0
4608 On ch=2 n=23 v=102
4683 On ch=2 n=23 v=0
4704 On ch=2 n=23 v=100
4734 On ch=2 n=23 v=0
4752 On ch=2 n=23 v=102
4834 On ch=2 n=23 v=0
4848 On ch=2 n=35 v=98
4892 On ch=2 n=35 v=0
4896 On ch=2 n=23 v=102
4941 On ch=2 n=23 v=0
4944 On ch=2 n=35 v=101
4989 On ch=2 n=35 v=0
4992 On ch=2 n=23 v=103
5073 On ch=2 n=23 v=0
5088 On ch=2 n=23 v=101
5114 On ch=2 n=23 v=0
5136 On ch=2 n=23 v=103
5226 On ch=2 n=23 v=0
5232 On ch=2 n=35 v=98
5277 On ch=2 n=35 v=0
5280 On ch=2 n=23 v=101
5325 On ch=2 n=23 v=0
5328 On ch=2 n=35 v=98
5373 On ch=2 n=35 v=0
5376 On ch=2 n=23 v=102
5451 On ch=2 n=23 v=0
5472 On ch=2 n=23 v=100
5502 On ch=2 n=23 v=0
5520 On ch=2 n=23 v=102
5602 On ch=2 n=23 v=0
5616 On ch=2 n=35 v=98
5660 On ch=2 n=35 v=0
5664 On ch=2 n=23 v=102
5709 On ch=2 n=23 v=0
5712 On ch=2 n=35 v=101
5757 On ch=2 n=35 v=0
5760 On ch=2 n=23 v=101
5853 On ch=2 n=23 v=0
5856 On ch=2 n=35 v=98
5900 On ch=2 n=35 v=0
5904 On ch=2 n=23 v=100
5976 On ch=2 n=23 v=0
6000 On ch=2 n=23 v=99
6078 On ch=2 n=23 v=0
6096 On ch=2 n=23 v=101
6121 On ch=2 n=23 v=0
6144 On ch=2 n=23 v=103
6234 On ch=2 n=23 v=0
6240 On ch=2 n=35 v=98
6284 On ch=2 n=35 v=0
6288 On ch=2 n=23 v=101
6381 On ch=2 n=23 v=0
6384 On ch=2 n=35 v=98
6429 On ch=2 n=35 v=0
6432 On ch=2 n=23 v=101
6477 On ch=2 n=23 v=0
6480 On ch=2 n=35 v=98
6525 On ch=2 n=35 v=0
6528 On ch=2 n=23 v=102
6602 On ch=2 n=23 v=0
6624 On ch=2 n=23 v=100
6650 On ch=2 n=23 v=0
6672 On ch=2 n=23 v=103
6758 On ch=2 n=23 v=0
6768 On ch=2 n=35 v=97
6813 On ch=2 n=35 v=0
6816 On ch=2 n=23 v=102
6850 On ch=2 n=23 v=0
6864 On ch=2 n=23 v=99
6887 On ch=2 n=23 v=0
6912 On ch=2 n=23 v=102
7004 On ch=2 n=23 v=0
7008 On ch=2 n=35 v=99
7052 On ch=2 n=35 v=0
7056 On ch=2 n=23 v=100
7140 On ch=2 n=23 v=0
7152 On ch=2 n=35 v=98
7196 On ch=2 n=35 v=0
7200 On ch=2 n=23 v=100
7245 On ch=2 n=23 v=0
7248 On ch=2 n=35 v=100
7293 On ch=2 n=35 v=0
7296 On ch=2 n=23 v=103
7377 On ch=2 n=23 v=0
7392 On ch=2 n=23 v=101
7418 On ch=2 n=23 v=0
7440 On ch=2 n=23 v=103
7530 On ch=2 n=23 v=0
7536 On ch=2 n=35 v=98
7581 On ch=2 n=35 v=0
7584 On ch=2 n=23 v=101
7629 On ch=2 n=23 v=0
7632 On ch=2 n=35 v=98
7677 On ch=2 n=35 v=0
7680 On ch=2 n=23 v=102
7755 On ch=2 n=23 v=0
7776 On ch=2 n=23 v=100
7806 On ch=2 n=23 v=0
7824 On ch=2 n=23 v=102
7906 On ch=2 n=23 v=0
7920 On ch=2 n=35 v=98
7964 On ch=2 n=35 v=0
7968 On ch=2 n=23 v=102
8013 On ch=2 n=23 v=0
8016 On ch=2 n=35 v=101
8061 On ch=2 n=35 v=0
8064 On ch=2 n=35 v=122
8152 On ch=2 n=35 v=0
8160 On ch=2 n=35 v=113
8200 On ch=2 n=35 v=0
8208 On ch=2 n=35 v=118
8296 On ch=2 n=35 v=0
8304 On ch=2 n=35 v=114
8344 On ch=2 n=35 v=0
8352 On ch=2 n=35 v=112
8392 On ch=2 n=35 v=0
8400 On ch=2 n=35 v=119
8440 On ch=2 n=35 v=0
8448 On ch=2 n=35 v=119
8536 On ch=2 n=35 v=0
8544 On ch=2 n=35 v=116
8584 On ch=2 n=35 v=0
8592 On ch=2 n=35 v=118
8680 On ch=2 n=35 v=0
8688 On ch=2 n=35 v=116
8728 On ch=2 n=35 v=0
8736 On ch=2 n=35 v=115
8776 On ch=2 n=35 v=0
8784 On ch=2 n=35 v=115
8824 On ch=2 n=35 v=0
8832 On ch=2 n=35 v=120
8920 On ch=2 n=35 v=0
8928 On ch=2 n=35 v=116
8968 On ch=2 n=35 v=0
8976 On ch=2 n=35 v=119
9064 On ch=2 n=35 v=0
9072 On ch=2 n=35 v=116
9112 On ch=2 n=35 v=0
9120 On ch=2 n=35 v=114
9160 On ch=2 n=35 v=0
9168 On ch=2 n=35 v=116
9208 On ch=2 n=35 v=0
9216 On ch=2 n=35 v=119
9304 On ch=2 n=35 v=0
9312 On ch=2 n=35 v=115
9352 On ch=2 n=35 v=0
9360 On ch=2 n=35 v=118
9448 On ch=2 n=35 v=0
9456 On ch=2 n=35 v=116
9496 On ch=2 n=35 v=0
9504 On ch=2 n=35 v=116
9544 On ch=2 n=35 v=0
9552 On ch=2 n=35 v=116
9592 On ch=2 n=35 v=0
9600 On ch=2 n=33 v=117
9688 On ch=2 n=33 v=0
9696 On ch=2 n=33 v=114
9736 On ch=2 n=33 v=0
9744 On ch=2 n=33 v=118
9832 On ch=2 n=33 v=0
9840 On ch=2 n=33 v=117
9880 On ch=2 n=33 v=0
9888 On ch=2 n=33 v=115
9928 On ch=2 n=33 v=0
9936 On ch=2 n=33 v=118
9976 On ch=2 n=33 v=0
9984 On ch=2 n=33 v=121
10072 On ch=2 n=33 v=0
10080 On ch=2 n=33 v=114
10120 On ch=2 n=33 v=0
10128 On ch=2 n=33 v=119
10216 On ch=2 n=33 v=0
10224 On ch=2 n=33 v=118
10312 On ch=2 n=33 v=0
10320 On ch=2 n=33 v=119
10360 On ch=2 n=33 v=0
10368 On ch=2 n=28 v=118
10456 On ch=2 n=28 v=0
10464 On ch=2 n=28 v=114
10504 On ch=2 n=28 v=0
10512 On ch=2 n=28 v=118
10600 On ch=2 n=28 v=0
10608 On ch=2 n=28 v=118
10648 On ch=2 n=28 v=0
10656 On ch=2 n=28 v=117
10696 On ch=2 n=28 v=0
10704 On ch=2 n=28 v=118
10744 On ch=2 n=28 v=0
10752 On ch=2 n=28 v=121
10840 On ch=2 n=28 v=0
10848 On ch=2 n=28 v=115
10888 On ch=2 n=28 v=0
10896 On ch=2 n=28 v=118
10984 On ch=2 n=28 v=0
10992 On ch=2 n=28 v=116
11032 On ch=2 n=28 v=0
11040 On ch=2 n=28 v=118
11080 On ch=2 n=28 v=0
11088 On ch=2 n=28 v=121
11128 On ch=2 n=28 v=0
11136 On ch=2 n=35 v=122
11224 On ch=2 n=35 v=0
11232 On ch=2 n=35 v=113
11272 On ch=2 n=35 v=0
11280 On ch=2 n=35 v=118
11368 On ch=2 n=35 v=0
11376 On ch=2 n=35 v=114
11416 On ch=2 n=35 v=0
11424 On ch=2 n=35 v=112
11464 On ch=2 n=35 v=0
11472 On ch=2 n=35 v=119
11512 On ch=2 n=35 v=0
11520 On ch=2 n=35 v=119
11608 On ch=2 n=35 v=0
11616 On ch=2 n=35 v=116
11656 On ch=2 n=35 v=0
11664 On ch=2 n=35 v=118
11752 On ch=2 n=35 v=0
11760 On ch=2 n=35 v=116
11800 On ch=2 n=35 v=0
11808 On ch=2 n=35 v=115
11848 On ch=2 n=35 v=0
11856 On ch=2 n=35 v=115
11896 On ch=2 n=35 v=0
11904 On ch=2 n=35 v=120
11992 On ch=2 n=35 v=0
12000 On ch=2 n=35 v=116
12040 On ch=2 n=35 v=0
12048 On ch=2 n=35 v=119
12136 On ch=2 n=35 v=0
12144 On ch=2 n=35 v=116
12184 On ch=2 n=35 v=0
12192 On ch=2 n=35 v=114
12232 On ch=2 n=35 v=0
12240 On ch=2 n=35 v=116
12280 On ch=2 n=35 v=0
12288 On ch=2 n=35 v=119
12376 On ch=2 n=35 v=0
12384 On ch=2 n=35 v=115
12424 On ch=2 n=35 v=0
12432 On ch=2 n=35 v=118
12520 On ch=2 n=35 v=0
12528 On ch=2 n=35 v=116
12568 On ch=2 n=35 v=0
12576 On ch=2 n=35 v=116
12616 On ch=2 n=35 v=0
12624 On ch=2 n=35 v=116
12664 On ch=2 n=35 v=0
12672 On ch=2 n=33 v=117
12760 On ch=2 n=33 v=0
12768 On ch=2 n=33 v=114
12808 On ch=2 n=33 v=0
12816 On ch=2 n=33 v=118
12904 On ch=2 n=33 v=0
12912 On ch=2 n=33 v=117
12952 On ch=2 n=33 v=0
12960 On ch=2 n=33 v=115
13000 On ch=2 n=33 v=0
13008 On ch=2 n=33 v=118
13048 On ch=2 n=33 v=0
13056 On ch=2 n=33 v=121
13144 On ch=2 n=33 v=0
13152 On ch=2 n=33 v=114
13192 On ch=2 n=33 v=0
13200 On ch=2 n=33 v=119
13288 On ch=2 n=33 v=0
13296 On ch=2 n=33 v=118
13384 On ch=2 n=33 v=0
13392 On ch=2 n=33 v=119
13432 On ch=2 n=33 v=0
13440 On ch=2 n=28 v=118
13528 On ch=2 n=28 v=0
13536 On ch=2 n=28 v=114
13576 On ch=2 n=28 v=0
13584 On ch=2 n=28 v=118
13672 On ch=2 n=28 v=0
13680 On ch=2 n=28 v=118
13720 On ch=2 n=28 v=0
13728 On ch=2 n=28 v=117
13768 On ch=2 n=28 v=0
13776 On ch=2 n=28 v=118
13816 On ch=2 n=28 v=0
13824 On ch=2 n=28 v=121
13912 On ch=2 n=28 v=0
13920 On ch=2 n=28 v=115
13960 On ch=2 n=28 v=0
13968 On ch=2 n=28 v=118
14056 On ch=2 n=28 v=0
14064 On ch=2 n=28 v=116
14104 On ch=2 n=28 v=0
14112 On ch=2 n=28 v=118
14152 On ch=2 n=28 v=0
14160 On ch=2 n=28 v=121
14200 On ch=2 n=28 v=0
14208 On ch=2 n=35 v=122
14296 On ch=2 n=35 v=0
14304 On ch=2 n=35 v=113
14344 On ch=2 n=35 v=0
14352 On ch=2 n=35 v=118
14440 On ch=2 n=35 v=0
14448 On ch=2 n=35 v=114
14488 On ch=2 n=35 v=0
14496 On ch=2 n=35 v=112
14536 On ch=2 n=35 v=0
14544 On ch=2 n=35 v=119
14584 On ch=2 n=35 v=0
14592 On ch=2 n=35 v=119
14680 On ch=2 n=35 v=0
14688 On ch=2 n=35 v=116
14728 On ch=2 n=35 v=0
14736 On ch=2 n=35 v=118
14824 On ch=2 n=35 v=0
14832 On ch=2 n=35 v=116
14872 On ch=2 n=35 v=0
14880 On ch=2 n=35 v=115
14920 On ch=2 n=35 v=0
14928 On ch=2 n=35 v=115
14968 On ch=2 n=35 v=0
14976 On ch=2 n=35 v=120
15064 On ch=2 n=35 v=0
15072 On ch=2 n=35 v=116
15112 On ch=2 n=35 v=0
15120 On ch=2 n=35 v=119
15208 On ch=2 n=35 v=0
15216 On ch=2 n=35 v=116
15256 On ch=2 n=35 v=0
15264 On ch=2 n=35 v=114
15304 On ch=2 n=35 v=0
15312 On ch=2 n=35 v=116
15352 On ch=2 n=35 v=0
15360 On ch=2 n=35 v=119
15448 On ch=2 n=35 v=0
15456 On ch=2 n=35 v=115
15496 On ch=2 n=35 v=0
15504 On ch=2 n=35 v=118
15592 On ch=2 n=35 v=0
15600 On ch=2 n=35 v=116
15640 On ch=2 n=35 v=0
15648 On ch=2 n=35 v=116
15688 On ch=2 n=35 v=0
15696 On ch=2 n=35 v=116
15736 On ch=2 n=35 v=0
15744 On ch=2 n=33 v=117
15832 On ch=2 n=33 v=0
15840 On ch=2 n=33 v=114
15880 On ch=2 n=33 v=0
15888 On ch=2 n=33 v=118
15976 On ch=2 n=33 v=0
15984 On ch=2 n=33 v=117
16024 On ch=2 n=33 v=0
16032 On ch=2 n=33 v=115
16072 On ch=2 n=33 v=0
16080 On ch=2 n=33 v=118
16120 On ch=2 n=33 v=0
16128 On ch=2 n=33 v=121
16216 On ch=2 n=33 v=0
16224 On ch=2 n=33 v=114
16264 On ch=2 n=33 v=0
16272 On ch=2 n=33 v=119
16360 On ch=2 n=33 v=0
16368 On ch=2 n=33 v=118
16456 On ch=2 n=33 v=0
16464 On ch=2 n=33 v=119
16504 On ch=2 n=33 v=0
16512 On ch=2 n=28 v=118
16600 On ch=2 n=28 v=0
16608 On ch=2 n=28 v=114
16648 On ch=2 n=28 v=0
16656 On ch=2 n=28 v=118
16744 On ch=2 n=28 v=0
16752 On ch=2 n=28 v=118
16792 On ch=2 n=28 v=0
16800 On ch=2 n=28 v=117
16840 On ch=2 n=28 v=0
16848 On ch=2 n=28 v=118
16888 On ch=2 n=28 v=0
16896 On ch=2 n=28 v=121
16984 On ch=2 n=28 v=0
16992 On ch=2 n=28 v=115
17032 On ch=2 n=28 v=0
17040 On ch=2 n=28 v=118
17128 On ch=2 n=28 v=0
17136 On ch=2 n=28 v=116
17176 On ch=2 n=28 v=0
17184 On ch=2 n=28 v=118
17224 On ch=2 n=28 v=0
17232 On ch=2 n=28 v=121
17272 On ch=2 n=28 v=0
17280 On ch=2 n=35 v=122
17368 On ch=2 n=35 v=0
17376 On ch=2 n=35 v=113
17416 On ch=2 n=35 v=0
17424 On ch=2 n=35 v=118
17512 On ch=2 n=35 v=0
17520 On ch=2 n=35 v=114
17560 On ch=2 n=35 v=0
17568 On ch=2 n=35 v=112
17608 On ch=2 n=35 v=0
17616 On ch=2 n=35 v=119
17656 On ch=2 n=35 v=0
17664 On ch=2 n=35 v=119
17752 On ch=2 n=35 v=0
17760 On ch=2 n=35 v=116
17800 On ch=2 n=35 v=0
17808 On ch=2 n=35 v=118
17896 On ch=2 n=35 v=0
17904 On ch=2 n=35 v=116
17944 On ch=2 n=35 v=0
17952 On ch=2 n=35 v=115
17992 On ch=2 n=35 v=0
18000 On ch=2 n=35 v=115
18040 On ch=2 n=35 v=0
18048 On ch=2 n=35 v=120
18136 On ch=2 n=35 v=0
18144 On ch=2 n=35 v=116
18184 On ch=2 n=35 v=0
18192 On ch=2 n=35 v=119
18280 On ch=2 n=35 v=0
18288 On ch=2 n=35 v=116
18328 On ch=2 n=35 v=0
18336 On ch=2 n=35 v=114
18376 On ch=2 n=35 v=0
18384 On ch=2 n=35 v=116
18424 On ch=2 n=35 v=0
18432 On ch=2 n=35 v=119
18520 On ch=2 n=35 v=0
18528 On ch=2 n=35 v=115
18568 On ch=2 n=35 v=0
18576 On ch=2 n=35 v=118
18664 On ch=2 n=35 v=0
18672 On ch=2 n=35 v=116
18712 On ch=2 n=35 v=0
18720 On ch=2 n=35 v=116
18760 On ch=2 n=35 v=0
18768 On ch=2 n=35 v=116
18808 On ch=2 n=35 v=0
18816 On ch=2 n=33 v=117
18904 On ch=2 n=33 v=0
18912 On ch=2 n=33 v=114
18952 On ch=2 n=33 v=0
18960 On ch=2 n=33 v=118
19048 On ch=2 n=33 v=0
19056 On ch=2 n=33 v=117
19096 On ch=2 n=33 v=0
19104 On ch=2 n=33 v=115
19144 On ch=2 n=33 v=0
19152 On ch=2 n=33 v=118
19192 On ch=2 n=33 v=0
19200 On ch=2 n=33 v=121
19288 On ch=2 n=33 v=0
19296 On ch=2 n=33 v=114
19336 On ch=2 n=33 v=0
19344 On ch=2 n=33 v=119
19432 On ch=2 n=33 v=0
19440 On ch=2 n=33 v=118
19528 On ch=2 n=33 v=0
19536 On ch=2 n=33 v=119
19576 On ch=2 n=33 v=0
19584 On ch=2 n=28 v=118
19672 On ch=2 n=28 v=0
19680 On ch=2 n=28 v=114
19720 On ch=2 n=28 v=0
19728 On ch=2 n=28 v=118
19816 On ch=2 n=28 v=0
19824 On ch=2 n=28 v=118
19864 On ch=2 n=28 v=0
19872 On ch=2 n=28 v=117
19912 On ch=2 n=28 v=0
19920 On ch=2 n=28 v=118
19960 On ch=2 n=28 v=0
19968 On ch=2 n=28 v=121
20056 On ch=2 n=28 v=0
20064 On ch=2 n=28 v=115
20104 On ch=2 n=28 v=0
20112 On ch=2 n=28 v=118
20200 On ch=2 n=28 v=0
20208 On ch=2 n=28 v=116
20248 On ch=2 n=28 v=0
20256 On ch=2 n=28 v=118
20296 On ch=2 n=28 v=0
20304 On ch=2 n=28 v=121
20344 On ch=2 n=28 v=0
20352 On ch=2 n=35 v=124
20428 On ch=2 n=35 v=0
20448 On ch=2 n=35 v=123
20492 On ch=2 n=35 v=0
20496 On ch=2 n=33 v=121
20540 On ch=2 n=33 v=0
20544 On ch=2 n=35 v=123
20588 On ch=2 n=35 v=0
20592 On ch=2 n=33 v=119
20636 On ch=2 n=33 v=0
20640 On ch=2 n=35 v=123
20684 On ch=2 n=35 v=0
20688 On ch=2 n=33 v=118
20732 On ch=2 n=33 v=0
20736 On ch=2 n=35 v=124
20820 On ch=2 n=35 v=0
20832 On ch=2 n=35 v=124
20876 On ch=2 n=35 v=0
20880 On ch=2 n=33 v=115
20924 On ch=2 n=33 v=0
20928 On ch=2 n=35 v=119
20972 On ch=2 n=35 v=0
20976 On ch=2 n=33 v=118
21020 On ch=2 n=33 v=0
21024 On ch=2 n=35 v=121
21068 On ch=2 n=35 v=0
21072 On ch=2 n=33 v=118
21116 On ch=2 n=33 v=0
21120 On ch=2 n=35 v=123
21200 On ch=2 n=35 v=0
21216 On ch=2 n=35 v=121
21260 On ch=2 n=35 v=0
21264 On ch=2 n=33 v=118
21308 On ch=2 n=33 v=0
21312 On ch=2 n=35 v=121
21356 On ch=2 n=35 v=0
21360 On ch=2 n=33 v=118
21404 On ch=2 n=33 v=0
21408 On ch=2 n=35 v=121
21452 On ch=2 n=35 v=0
21456 On ch=2 n=33 v=117
21500 On ch=2 n=33 v=0
21504 On ch=2 n=35 v=122
21588 On ch=2 n=35 v=0
21600 On ch=2 n=35 v=120
21644 On ch=2 n=35 v=0
21648 On ch=2 n=33 v=117
21692 On ch=2 n=33 v=0
21696 On ch=2 n=35 v=120
21740 On ch=2 n=35 v=0
21744 On ch=2 n=33 v=119
21788 On ch=2 n=33 v=0
21792 On ch=2 n=35 v=121
21836 On ch=2 n=35 v=0
21840 On ch=2 n=33 v=121
21884 On ch=2 n=33 v=0
21888 On ch=2 n=33 v=123
21968 On ch=2 n=33 v=0
21984 On ch=2 n=33 v=121
22028 On ch=2 n=33 v=0
22032 On ch=2 n=31 v=118
22076 On ch=2 n=31 v=0
22080 On ch=2 n=33 v=121
22124 On ch=2 n=33 v=0
22128 On ch=2 n=31 v=118
22172 On ch=2 n=31 v=0
22176 On ch=2 n=33 v=121
22220 On ch=2 n=33 v=0
22224 On ch=2 n=31 v=117
22268 On ch=2 n=31 v=0
22272 On ch=2 n=33 v=122
22356 On ch=2 n=33 v=0
22368 On ch=2 n=33 v=120
22412 On ch=2 n=33 v=0
22416 On ch=2 n=31 v=117
22460 On ch=2 n=31 v=0
22464 On ch=2 n=33 v=120
22508 On ch=2 n=33 v=0
22512 On ch=2 n=31 v=119
22556 On ch=2 n=31 v=0
22560 On ch=2 n=33 v=121
22604 On ch=2 n=33 v=0
22608 On ch=2 n=31 v=121
22652 On ch=2 n=31 v=0
22656 On ch=2 n=28 v=123
22736 On ch=2 n=28 v=0
22752 On ch=2 n=28 v=121
22796 On ch=2 n=28 v=0
22800 On ch=2 n=26 v=118
22844 On ch=2 n=26 v=0
22848 On ch=2 n=28 v=121
22892 On ch=2 n=28 v=0
22896 On ch=2 n=26 v=118
22940 On ch=2 n=26 v=0
22944 On ch=2 n=28 v=121
22988 On ch=2 n=28 v=0
22992 On ch=2 n=26 v=117
23036 On ch=2 n=26 v=0
23040 On ch=2 n=28 v=122
23124 On ch=2 n=28 v=0
23136 On ch=2 n=28 v=120
23180 On ch=2 n=28 v=0
23184 On ch=2 n=26 v=117
23228 On ch=2 n=26 v=0
23232 On ch=2 n=28 v=120
23276 On ch=2 n=28 v=0
23280 On ch=2 n=26 v=119
23324 On ch=2 n=26 v=0
23328 On ch=2 n=28 v=121
23372 On ch=2 n=28 v=0
23376 On ch=2 n=26 v=121
23420 On ch=2 n=26 v=0
23424 On ch=2 n=35 v=123
23504 On ch=2 n=35 v=0
23520 On ch=2 n=35 v=121
23564 On ch=2 n=35 v=0
23568 On ch=2 n=33 v=118
23612 On ch=2 n=33 v=0
23616 On ch=2 n=35 v=121
23660 On ch=2 n=35 v=0
23664 On ch=2 n=33 v=118
23708 On ch=2 n=33 v=0
23712 On ch=2 n=35 v=121
23756 On ch=2 n=35 v=0
23760 On ch=2 n=33 v=117
23804 On ch=2 n=33 v=0
23808 On ch=2 n=35 v=122
23892 On ch=2 n=35 v=0
23904 On ch=2 n=35 v=120
23948 On ch=2 n=35 v=0
23952 On ch=2 n=33 v=117
23996 On ch=2 n=33 v=0
24000 On ch=2 n=35 v=120
24044 On ch=2 n=35 v=0
24048 On ch=2 n=33 v=119
24092 On ch=2 n=33 v=0
24096 On ch=2 n=35 v=121
24140 On ch=2 n=35 v=0
24144 On ch=2 n=33 v=121
24188 On ch=2 n=33 v=0
24192 On ch=2 n=35 v=123
24272 On ch=2 n=35 v=0
24288 On ch=2 n=35 v=121
24332 On ch=2 n=35 v=0
24336 On ch=2 n=33 v=118
24380 On ch=2 n=33 v=0
24384 On ch=2 n=35 v=121
24428 On ch=2 n=35 v=0
24432 On ch=2 n=33 v=118
24476 On ch=2 n=33 v=0
24480 On ch=2 n=35 v=121
24524 On ch=2 n=35 v=0
24528 On ch=2 n=33 v=117
24572 On ch=2 n=33 v=0
24576 On ch=2 n=35 v=122
24660 On ch=2 n=35 v=0
24672 On ch=2 n=35 v=120
24716 On ch=2 n=35 v=0
24720 On ch=2 n=33 v=117
24764 On ch=2 n=33 v=0
24768 On ch=2 n=35 v=120
24812 On ch=2 n=35 v=0
24816 On ch=2 n=33 v=119
24860 On ch=2 n=33 v=0
24864 On ch=2 n=35 v=121
24908 On ch=2 n=35 v=0
24912 On ch=2 n=33 v=121
24956 On ch=2 n=33 v=0
24960 On ch=2 n=33 v=123
25040 On ch=2 n=33 v=0
25056 On ch=2 n=33 v=121
25100 On ch=2 n=33 v=0
25104 On ch=2 n=31 v=118
25148 On ch=2 n=31 v=0
25152 On ch=2 n=33 v=121
25196 On ch=2 n=33 v=0
25200 On ch=2 n=31 v=118
25244 On ch=2 n=31 v=0
25248 On ch=2 n=33 v=121
25292 On ch=2 n=33 v=0
25296 On ch=2 n=31 v=117
25340 On ch=2 n=31 v=0
25344 On ch=2 n=33 v=122
25428 On ch=2 n=33 v=0
25440 On ch=2 n=33 v=120
25484 On ch=2 n=33 v=0
25488 On ch=2 n=31 v=117
25532 On ch=2 n=31 v=0
25536 On ch=2 n=33 v=120
25580 On ch=2 n=33 v=0
25584 On ch=2 n=31 v=119
25628 On ch=2 n=31 v=0
25632 On ch=2 n=33 v=121
25676 On ch=2 n=33 v=0
25680 On ch=2 n=31 v=121
25724 On ch=2 n=31 v=0
25728 On ch=2 n=28 v=123
25808 On ch=2 n=28 v=0
25824 On ch=2 n=28 v=121
25868 On ch=2 n=28 v=0
25872 On ch=2 n=26 v=118
25916 On ch=2 n=26 v=0
25920 On ch=2 n=28 v=121
25964 On ch=2 n=28 v=0
25968 On ch=2 n=26 v=118
26012 On ch=2 n=26 v=0
26016 On ch=2 n=28 v=121
26060 On ch=2 n=28 v=0
26064 On ch=2 n=26 v=117
26108 On ch=2 n=26 v=0
26112 On ch=2 n=28 v=122
26196 On ch=2 n=28 v=0
26208 On ch=2 n=28 v=120
26252 On ch=2 n=28 v=0
26256 On ch=2 n=26 v=117
26300 On ch=2 n=26 v=0
26304 On ch=2 n=28 v=120
26348 On ch=2 n=28 v=0
26352 On ch=2 n=26 v=119
26396 On ch=2 n=26 v=0
26400 On ch=2 n=28 v=121
26444 On ch=2 n=28 v=0
26448 On ch=2 n=26 v=121
26492 On ch=2 n=26 v=0
26496 On ch=2 n=35 v=123
26576 On ch=2 n=35 v=0
26592 On ch=2 n=35 v=121
26636 On ch=2 n=35 v=0
26640 On ch=2 n=33 v=118
26684 On ch=2 n=33 v=0
26688 On ch=2 n=35 v=121
26732 On ch=2 n=35 v=0
26736 On ch=2 n=33 v=118
26780 On ch=2 n=33 v=0
26784 On ch=2 n=35 v=121
26828 On ch=2 n=35 v=0
26832 On ch=2 n=33 v=117
26876 On ch=2 n=33 v=0
26880 On ch=2 n=35 v=122
26964 On ch=2 n=35 v=0
26976 On ch=2 n=35 v=120
27020 On ch=2 n=35 v=0
27024 On ch=2 n=33 v=117
27068 On ch=2 n=33 v=0
27072 On ch=2 n=35 v=120
27116 On ch=2 n=35 v=0
27120 On ch=2 n=33 v=119
27164 On ch=2 n=33 v=0
27168 On ch=2 n=35 v=121
27212 On ch=2 n=35 v=0
27216 On ch=2 n=33 v=121
27260 On ch=2 n=33 v=0
27264 On ch=2 n=31 v=123
27344 On ch=2 n=31 v=0
27360 On ch=2 n=31 v=121
27404 On ch=2 n=31 v=0
27408 On ch=2 n=29 v=118
27452 On ch=2 n=29 v=0
27456 On ch=2 n=31 v=121
27500 On ch=2 n=31 v=0
27504 On ch=2 n=29 v=118
27548 On ch=2 n=29 v=0
27552 On ch=2 n=31 v=121
27596 On ch=2 n=31 v=0
27600 On ch=2 n=29 v=117
27644 On ch=2 n=29 v=0
27648 On ch=2 n=31 v=122
27732 On ch=2 n=31 v=0
27744 On ch=2 n=31 v=120
27788 On ch=2 n=31 v=0
27792 On ch=2 n=29 v=117
27836 On ch=2 n=29 v=0
27840 On ch=2 n=31 v=120
27884 On ch=2 n=31 v=0
27888 On ch=2 n=29 v=119
27932 On ch=2 n=29 v=0
27936 On ch=2 n=31 v=121
27980 On ch=2 n=31 v=0
27984 On ch=2 n=29 v=121
28028 On ch=2 n=29 v=0
28032 On ch=2 n=28 v=123
28112 On ch=2 n=28 v=0
28128 On ch=2 n=28 v=121
28172 On ch=2 n=28 v=0
28176 On ch=2 n=26 v=118
28220 On ch=2 n=26 v=0
28224 On ch=2 n=28 v=121
28268 On ch=2 n=28 v=0
28272 On ch=2 n=26 v=118
28316 On ch=2 n=26 v=0
28320 On ch=2 n=28 v=121
28364 On ch=2 n=28 v=0
28368 On ch=2 n=26 v=117
28412 On ch=2 n=26 v=0
28416 On ch=2 n=28 v=123
28494 On ch=2 n=28 v=0
28512 On ch=2 n=28 v=123
28553 On ch=2 n=28 v=0
28556 On ch=2 n=35 v=122
28604 On ch=2 n=35 v=0
28610 On ch=2 n=40 v=123
28694 On ch=2 n=40 v=0
28699 On ch=2 n=35 v=122
28744 On ch=2 n=35 v=0
28749 On ch=2 n=28 v=123
28784 On ch=2 n=28 v=0
28800 On ch=2 n=28 v=124
28840 On ch=2 n=28 v=0
28848 On ch=2 n=28 v=124
28888 On ch=2 n=28 v=0
28896 On ch=2 n=28 v=125
28936 On ch=2 n=28 v=0
28944 On ch=2 n=28 v=122
28984 On ch=2 n=28 v=0
28992 On ch=2 n=28 v=127
29032 On ch=2 n=28 v=0
29040 On ch=2 n=28 v=123
29080 On ch=2 n=28 v=0
29088 On ch=2 n=28 v=124
29128 On ch=2 n=28 v=0
29136 On ch=2 n=28 v=123
29176 On ch=2 n=28 v=0
29184 On ch=2 n=28 v=126
29224 On ch=2 n=28 v=0
29232 On ch=2 n=28 v=124
29272 On ch=2 n=28 v=0
29280 On ch=2 n=28 v=124
29320 On ch=2 n=28 v=0
29328 On ch=2 n=28 v=123
29368 On ch=2 n=28 v=0
29376 On ch=2 n=28 v=125
29416 On ch=2 n=28 v=0
29424 On ch=2 n=28 v=124
29464 On ch=2 n=28 v=0
29472 On ch=2 n=28 v=124
29512 On ch=2 n=28 v=0
29520 On ch=2 n=28 v=124
29560 On ch=2 n=28 v=0
29568 On ch=2 n=35 v=123
29608 On ch=2 n=35 v=0
29616 On ch=2 n=35 v=117
29656 On ch=2 n=35 v=0
29664 On ch=2 n=35 v=123
29704 On ch=2 n=35 v=0
29712 On ch=2 n=35 v=121
29752 On ch=2 n=35 v=0
29760 On ch=2 n=35 v=124
29800 On ch=2 n=35 v=0
29808 On ch=2 n=35 v=117
29848 On ch=2 n=35 v=0
29856 On ch=2 n=35 v=120
29896 On ch=2 n=35 v=0
29904 On ch=2 n=35 v=121
29944 On ch=2 n=35 v=0
29952 On ch=2 n=35 v=124
29992 On ch=2 n=35 v=0
30000 On ch=2 n=35 v=111
30040 On ch=2 n=35 v=0
30048 On ch=2 n=35 v=121
30088 On ch=2 n=35 v=0
30096 On ch=2 n=35 v=120
30136 On ch=2 n=35 v=0
30144 On ch=2 n=35 v=123
30184 On ch=2 n=35 v=0
30192 On ch=2 n=35 v=121
30232 On ch=2 n=35 v=0
30240 On ch=2 n=35 v=123
30280 On ch=2 n=35 v=0
30288 On ch=2 n=35 v=121
30328 On ch=2 n=35 v=0
30336 On ch=2 n=33 v=124
30376 On ch=2 n=33 v=0
30384 On ch=2 n=33 v=118
30424 On ch=2 n=33 v=0
30432 On ch=2 n=33 v=121
30472 On ch=2 n=33 v=0
30480 On ch=2 n=33 v=121
30520 On ch=2 n=33 v=0
30528 On ch=2 n=33 v=124
30568 On ch=2 n=33 v=0
30576 On ch=2 n=33 v=119
30616 On ch=2 n=33 v=0
30624 On ch=2 n=33 v=121
30664 On ch=2 n=33 v=0
30672 On ch=2 n=33 v=119
30712 On ch=2 n=33 v=0
30720 On ch=2 n=33 v=124
30760 On ch=2 n=33 v=0
30768 On ch=2 n=33 v=119
30808 On ch=2 n=33 v=0
30816 On ch=2 n=33 v=123
30856 On ch=2 n=33 v=0
30864 On ch=2 n=33 v=119
30904 On ch=2 n=33 v=0
30912 On ch=2 n=33 v=124
30952 On ch=2 n=33 v=0
30960 On ch=2 n=33 v=122
31000 On ch=2 n=33 v=0
31008 On ch=2 n=33 v=123
31048 On ch=2 n=33 v=0
31056 On ch=2 n=33 v=120
31101 On ch=2 n=33 v=0
31104 On ch=2 n=35 v=124
31189 On ch=2 n=35 v=0
31200 On ch=2 n=35 v=122
31245 On ch=2 n=35 v=0
31248 On ch=2 n=35 v=118
31283 On ch=2 n=35 v=0
31296 On ch=2 n=35 v=124
31339 On ch=2 n=35 v=0
31344 On ch=2 n=35 v=122
31380 On ch=2 n=35 v=0
31392 On ch=2 n=35 v=123
31437 On ch=2 n=35 v=0
31440 On ch=2 n=35 v=123
31475 On ch=2 n=35 v=0
31488 On ch=2 n=35 v=125
31530 On ch=2 n=35 v=0
31536 On ch=2 n=35 v=119
31573 On ch=2 n=35 v=0
31584 On ch=2 n=35 v=122
31628 On ch=2 n=35 v=0
31632 On ch=2 n=35 v=122
31668 On ch=2 n=35 v=0
31680 On ch=2 n=35 v=124
31710 On ch=2 n=35 v=0
31728 On ch=2 n=33 v=119
31771 On ch=2 n=33 v=0
31776 On ch=2 n=35 v=124
31817 On ch=2 n=35 v=0
31824 On ch=2 n=35 v=118
31868 On ch=2 n=35 v=0
31872 On ch=2 n=31 v=126
31912 On ch=2 n=31 v=0
31920 On ch=2 n=31 v=118
31960 On ch=2 n=31 v=0
31968 On ch=2 n=31 v=123
32008 On ch=2 n=31 v=0
32016 On ch=2 n=31 v=121
32056 On ch=2 n=31 v=0
32064 On ch=2 n=31 v=126
32104 On ch=2 n=31 v=0
32112 On ch=2 n=31 v=121
32152 On ch=2 n=31 v=0
32160 On ch=2 n=31 v=122
32200 On ch=2 n=31 v=0
32208 On ch=2 n=31 v=123
32248 On ch=2 n=31 v=0
32256 On ch=2 n=31 v=114
32296 On ch=2 n=31 v=0
32304 On ch=2 n=31 v=121
32344 On ch=2 n=31 v=0
32352 On ch=2 n=31 v=112
32392 On ch=2 n=31 v=0
32400 On ch=2 n=31 v=123
32440 On ch=2 n=31 v=0
32448 On ch=2 n=31 v=124
32488 On ch=2 n=31 v=0
32496 On ch=2 n=31 v=122
32536 On ch=2 n=31 v=0
32544 On ch=2 n=31 v=124
32584 On ch=2 n=31 v=0
32592 On ch=2 n=31 v=121
32632 On ch=2 n=31 v=0
32640 On ch=2 n=38 v=123
32732 On ch=2 n=38 v=0
32736 On ch=2 n=38 v=116
32780 On ch=2 n=38 v=0
32784 On ch=2 n=26 v=118
32829 On ch=2 n=26 v=0
32832 On ch=2 n=38 v=118
32876 On ch=2 n=38 v=0
32880 On ch=2 n=38 v=121
32924 On ch=2 n=38 v=0
32928 On ch=2 n=26 v=122
32972 On ch=2 n=26 v=0
32976 On ch=2 n=38 v=120
33020 On ch=2 n=38 v=0
33024 On ch=2 n=38 v=121
33116 On ch=2 n=38 v=0
33120 On ch=2 n=38 v=119
33164 On ch=2 n=38 v=0
33168 On ch=2 n=26 v=121
33213 On ch=2 n=26 v=0
33216 On ch=2 n=38 v=113
33260 On ch=2 n=38 v=0
33264 On ch=2 n=38 v=119
33308 On ch=2 n=38 v=0
33312 On ch=2 n=26 v=121
33356 On ch=2 n=26 v=0
33360 On ch=2 n=38 v=121
33404 On ch=2 n=38 v=0
33408 On ch=2 n=33 v=124
33408 On ch=2 n=45 v=121
34504 On ch=2 n=45 v=0
34506 On ch=2 n=33 v=0
38016 On ch=2 n=35 v=123
38096 On ch=2 n=35 v=0
38112 On ch=2 n=35 v=121
38156 On ch=2 n=35 v=0
38160 On ch=2 n=33 v=118
38204 On ch=2 n=33 v=0
38208 On ch=2 n=35 v=121
38252 On ch=2 n=35 v=0
38256 On ch=2 n=33 v=118
38300 On ch=2 n=33 v=0
38304 On ch=2 n=35 v=121
38348 On ch=2 n=35 v=0
38352 On ch=2 n=33 v=117
38396 On ch=2 n=33 v=0
38400 On ch=2 n=35 v=122
38484 On ch=2 n=35 v=0
38496 On ch=2 n=35 v=120
38540 On ch=2 n=35 v=0
38544 On ch=2 n=33 v=117
38588 On ch=2 n=33 v=0
38592 On ch=2 n=35 v=120
38636 On ch=2 n=35 v=0
38640 On ch=2 n=33 v=119
38684 On ch=2 n=33 v=0
38688 On ch=2 n=35 v=121
38732 On ch=2 n=35 v=0
38736 On ch=2 n=33 v=121
38780 On ch=2 n=33 v=0
38784 On ch=2 n=35 v=123
38864 On ch=2 n=35 v=0
38880 On ch=2 n=35 v=121
38924 On ch=2 n=35 v=0
38928 On ch=2 n=33 v=118
38972 On ch=2 n=33 v=0
38976 On ch=2 n=35 v=121
39020 On ch=2 n=35 v=0
39024 On ch=2 n=33 v=118
39068 On ch=2 n=33 v=0
39072 On ch=2 n=35 v=121
39116 On ch=2 n=35 v=0
39120 On ch=2 n=33 v=117
39164 On ch=2 n=33 v=0
39168 On ch=2 n=35 v=122
39252 On ch=2 n=35 v=0
39264 On ch=2 n=35 v=120
39308 On ch=2 n=35 v=0
39312 On ch=2 n=33 v=117
39356 On ch=2 n=33 v=0
39360 On ch=2 n=35 v=120
39404 On ch=2 n=35 v=0
39408 On ch=2 n=33 v=119
39452 On ch=2 n=33 v=0
39456 On ch=2 n=35 v=121
39500 On ch=2 n=35 v=0
39504 On ch=2 n=33 v=121
39548 On ch=2 n=33 v=0
39552 On ch=2 n=33 v=123
39632 On ch=2 n=33 v=0
39648 On ch=2 n=33 v=121
39692 On ch=2 n=33 v=0
39696 On ch=2 n=31 v=118
39740 On ch=2 n=31 v=0
39744 On ch=2 n=33 v=121
39788 On ch=2 n=33 v=0
39792 On ch=2 n=31 v=118
39836 On ch=2 n=31 v=0
39840 On ch=2 n=33 v=121
39884 On ch=2 n=33 v=0
39888 On ch=2 n=31 v=117
39932 On ch=2 n=31 v=0
39936 On ch=2 n=33 v=122
40020 On ch=2 n=33 v=0
40032 On ch=2 n=33 v=120
40076 On ch=2 n=33 v=0
40080 On ch=2 n=31 v=117
40124 On ch=2 n=31 v=0
40128 On ch=2 n=33 v=120
40172 On ch=2 n=33 v=0
40176 On ch=2 n=31 v=119
40220 On ch=2 n=31 v=0
40224 On ch=2 n=33 v=121
40268 On ch=2 n=33 v=0
40272 On ch=2 n=31 v=121
40316 On ch=2 n=31 v=0
40320 On ch=2 n=28 v=123
40400 On ch=2 n=28 v=0
40416 On ch=2 n=28 v=121
40460 On ch=2 n=28 v=0
40464 On ch=2 n=26 v=118
40508 On ch=2 n=26 v=0
40512 On ch=2 n=28 v=121
40556 On ch=2 n=28 v=0
40560 On ch=2 n=26 v=118
40604 On ch=2 n=26 v=0
40608 On ch=2 n=28 v=121
40652 On ch=2 n=28 v=0
40656 On ch=2 n=26 v=117
40700 On ch=2 n=26 v=0
40704 On ch=2 n=28 v=122
40788 On ch=2 n=28 v=0
40800 On ch=2 n=28 v=120
40844 On ch=2 n=28 v=0
40848 On ch=2 n=26 v=117
40892 On ch=2 n=26 v=0
40896 On ch=2 n=28 v=120
40940 On ch=2 n=28 v=0
40944 On ch=2 n=26 v=119
40988 On ch=2 n=26 v=0
40992 On ch=2 n=28 v=121
41036 On ch=2 n=28 v=0
41040 On ch=2 n=26 v=121
41084 On ch=2 n=26 v=0
41088 On ch=2 n=35 v=123
41168 On ch=2 n=35 v=0
41184 On ch=2 n=35 v=121
41228 On ch=2 n=35 v=0
41232 On ch=2 n=33 v=118
41276 On ch=2 n=33 v=0
41280 On ch=2 n=35 v=121
41324 On ch=2 n=35 v=0
41328 On ch=2 n=33 v=118
41372 On ch=2 n=33 v=0
41376 On ch=2 n=35 v=121
41420 On ch=2 n=35 v=0
41424 On ch=2 n=33 v=117
41468 On ch=2 n=33 v=0
41472 On ch=2 n=35 v=122
41556 On ch=2 n=35 v=0
41568 On ch=2 n=35 v=120
41612 On ch=2 n=35 v=0
41616 On ch=2 n=33 v=117
41660 On ch=2 n=33 v=0
41664 On ch=2 n=35 v=120
41708 On ch=2 n=35 v=0
41712 On ch=2 n=33 v=119
41756 On ch=2 n=33 v=0
41760 On ch=2 n=35 v=121
41804 On ch=2 n=35 v=0
41808 On ch=2 n=33 v=121
41852 On ch=2 n=33 v=0
41856 On ch=2 n=35 v=123
41936 On ch=2 n=35 v=0
41952 On ch=2 n=35 v=121
41996 On ch=2 n=35 v=0
42000 On ch=2 n=33 v=118
42044 On ch=2 n=33 v=0
42048 On ch=2 n=35 v=121
42092 On ch=2 n=35 v=0
42096 On ch=2 n=33 v=118
42140 On ch=2 n=33 v=0
42144 On ch=2 n=35 v=121
42188 On ch=2 n=35 v=0
42192 On ch=2 n=33 v=117
42236 On ch=2 n=33 v=0
42240 On ch=2 n=35 v=122
42324 On ch=2 n=35 v=0
42336 On ch=2 n=35 v=120
42380 On ch=2 n=35 v=0
42384 On ch=2 n=33 v=117
42428 On ch=2 n=33 v=0
42432 On ch=2 n=35 v=120
42476 On ch=2 n=35 v=0
42480 On ch=2 n=33 v=119
42524 On ch=2 n=33 v=0
42528 On ch=2 n=35 v=121
42572 On ch=2 n=35 v=0
42576 On ch=2 n=33 v=121
42620 On ch=2 n=33 v=0
42624 On ch=2 n=33 v=123
42704 On ch=2 n=33 v=0
42720 On ch=2 n=33 v=121
42764 On ch=2 n=33 v=0
42768 On ch=2 n=31 v=118
42812 On ch=2 n=31 v=0
42816 On ch=2 n=33 v=121
42860 On ch=2 n=33 v=0
42864 On ch=2 n=31 v=118
42908 On ch=2 n=31 v=0
42912 On ch=2 n=33 v=121
42956 On ch=2 n=33 v=0
42960 On ch=2 n=31 v=117
43004 On ch=2 n=31 v=0
43008 On ch=2 n=33 v=122
43092 On ch=2 n=33 v=0
43104 On ch=2 n=33 v=120
43148 On ch=2 n=33 v=0
43152 On ch=2 n=31 v=117
43196 On ch=2 n=31 v=0
43200 On ch=2 n=33 v=120
43244 On ch=2 n=33 v=0
43248 On ch=2 n=31 v=119
43292 On ch=2 n=31 v=0
43296 On ch=2 n=33 v=121
43340 On ch=2 n=33 v=0
43344 On ch=2 n=31 v=121
43388 On ch=2 n=31 v=0
43392 On ch=2 n=28 v=123
43472 On ch=2 n=28 v=0
43488 On ch=2 n=28 v=121
43532 On ch=2 n=28 v=0
43536 On ch=2 n=26 v=118
43580 On ch=2 n=26 v=0
43584 On ch=2 n=28 v=121
43628 On ch=2 n=28 v=0
43632 On ch=2 n=26 v=118
43676 On ch=2 n=26 v=0
43680 On ch=2 n=28 v=121
43724 On ch=2 n=28 v=0
43728 On ch=2 n=26 v=117
43772 On ch=2 n=26 v=0
43776 On ch=2 n=28 v=122
43860 On ch=2 n=28 v=0
43872 On ch=2 n=28 v=120
43916 On ch=2 n=28 v=0
43920 On ch=2 n=26 v=117
43964 On ch=2 n=26 v=0
43968 On ch=2 n=28 v=120
44012 On ch=2 n=28 v=0
44016 On ch=2 n=26 v=119
44060 On ch=2 n=26 v=0
44064 On ch=2 n=28 v=121
44108 On ch=2 n=28 v=0
44112 On ch=2 n=26 v=121
44156 On ch=2 n=26 v=0
44160 On ch=2 n=35 v=123
44240 On ch=2 n=35 v=0
44256 On ch=2 n=35 v=121
44300 On ch=2 n=35 v=0
44304 On ch=2 n=33 v=118
44348 On ch=2 n=33 v=0
44352 On ch=2 n=35 v=121
44396 On ch=2 n=35 v=0
44400 On ch=2 n=33 v=118
44444 On ch=2 n=33 v=0
44448 On ch=2 n=35 v=121
44492 On ch=2 n=35 v=0
44496 On ch=2 n=33 v=117
44540 On ch=2 n=33 v=0
44544 On ch=2 n=35 v=122
44628 On ch=2 n=35 v=0
44640 On ch=2 n=35 v=120
44684 On ch=2 n=35 v=0
44688 On ch=2 n=33 v=117
44732 On ch=2 n=33 v=0
44736 On ch=2 n=35 v=120
44780 On ch=2 n=35 v=0
44784 On ch=2 n=33 v=119
44828 On ch=2 n=33 v=0
44832 On ch=2 n=35 v=121
44876 On ch=2 n=35 v=0
44880 On ch=2 n=33 v=121
44924 On ch=2 n=33 v=0
44928 On ch=2 n=35 v=123
45008 On ch=2 n=35 v=0
45024 On ch=2 n=35 v=121
45068 On ch=2 n=35 v=0
45072 On ch=2 n=33 v=118
45116 On ch=2 n=33 v=0
45120 On ch=2 n=35 v=121
45164 On ch=2 n=35 v=0
45168 On ch=2 n=33 v=118
45212 On ch=2 n=33 v=0
45216 On ch=2 n=35 v=121
45260 On ch=2 n=35 v=0
45264 On ch=2 n=33 v=117
45308 On ch=2 n=33 v=0
45312 On ch=2 n=35 v=122
45396 On ch=2 n=35 v=0
45408 On ch=2 n=35 v=120
45452 On ch=2 n=35 v=0
45456 On ch=2 n=33 v=117
45500 On ch=2 n=33 v=0
45504 On ch=2 n=35 v=120
45548 On ch=2 n=35 v=0
45552 On ch=2 n=33 v=119
45596 On ch=2 n=33 v=0
45600 On ch=2 n=35 v=121
45644 On ch=2 n=35 v=0
45648 On ch=2 n=33 v=121
45692 On ch=2 n=33 v=0
45696 On ch=2 n=33 v=123
45776 On ch=2 n=33 v=0
45792 On ch=2 n=33 v=121
45836 On ch=2 n=33 v=0
45840 On ch=2 n=31 v=118
45884 On ch=2 n=31 v=0
45888 On ch=2 n=33 v=121
45932 On ch=2 n=33 v=0
45936 On ch=2 n=31 v=118
45980 On ch=2 n=31 v=0
45984 On ch=2 n=33 v=121
46028 On ch=2 n=33 v=0
46032 On ch=2 n=31 v=117
46076 On ch=2 n=31 v=0
46080 On ch=2 n=33 v=122
46164 On ch=2 n=33 v=0
46176 On ch=2 n=33 v=120
46220 On ch=2 n=33 v=0
46224 On ch=2 n=31 v=117
46268 On ch=2 n=31 v=0
46272 On ch=2 n=33 v=120
46316 On ch=2 n=33 v=0
46320 On ch=2 n=31 v=119
46364 On ch=2 n=31 v=0
46368 On ch=2 n=33 v=121
46412 On ch=2 n=33 v=0
46416 On ch=2 n=31 v=121
46460 On ch=2 n=31 v=0
46464 On ch=2 n=28 v=123
46544 On ch=2 n=28 v=0
46560 On ch=2 n=28 v=121
46604 On ch=2 n=28 v=0
46608 On ch=2 n=26 v=118
46652 On ch=2 n=26 v=0
46656 On ch=2 n=28 v=121
46700 On ch=2 n=28 v=0
46704 On ch=2 n=26 v=118
46748 On ch=2 n=26 v=0
46752 On ch=2 n=28 v=121
46796 On ch=2 n=28 v=0
46800 On ch=2 n=26 v=117
46844 On ch=2 n=26 v=0
46848 On ch=2 n=28 v=122
46932 On ch=2 n=28 v=0
46944 On ch=2 n=28 v=120
46988 On ch=2 n=28 v=0
46992 On ch=2 n=26 v=117
47036 On ch=2 n=26 v=0
47040 On ch=2 n=28 v=120
47084 On ch=2 n=28 v=0
47088 On ch=2 n=26 v=119
47132 On ch=2 n=26 v=0
47136 On ch=2 n=28 v=121
47180 On ch=2 n=28 v=0
47184 On ch=2 n=26 v=121
47228 On ch=2 n=26 v=0
47232 On ch=2 n=35 v=123
47312 On ch=2 n=35 v=0
47328 On ch=2 n=35 v=121
47372 On ch=2 n=35 v=0
47376 On ch=2 n=33 v=118
47420 On ch=2 n=33 v=0
47424 On ch=2 n=35 v=121
47468 On ch=2 n=35 v=0
47472 On ch=2 n=33 v=118
47516 On ch=2 n=33 v=0
47520 On ch=2 n=35 v=121
47564 On ch=2 n=35 v=0
47568 On ch=2 n=33 v=117
47612 On ch=2 n=33 v=0
47616 On ch=2 n=35 v=122
47700 On ch=2 n=35 v=0
47712 On ch=2 n=35 v=120
47756 On ch=2 n=35 v=0
47760 On ch=2 n=33 v=117
47804 On ch=2 n=33 v=0
47808 On ch=2 n=35 v=120
47852 On ch=2 n=35 v=0
47856 On ch=2 n=33 v=119
47900 On ch=2 n=33 v=0
47904 On ch=2 n=35 v=121
47948 On ch=2 n=35 v=0
47952 On ch=2 n=33 v=121
47996 On ch=2 n=33 v=0
48000 On ch=2 n=28 v=123
48080 On ch=2 n=28 v=0
48096 On ch=2 n=28 v=121
48140 On ch=2 n=28 v=0
48144 On ch=2 n=26 v=118
48188 On ch=2 n=26 v=0
48192 On ch=2 n=28 v=121
48236 On ch=2 n=28 v=0
48240 On ch=2 n=26 v=118
48284 On ch=2 n=26 v=0
48288 On ch=2 n=28 v=121
48332 On ch=2 n=28 v=0
48336 On ch=2 n=26 v=117
48380 On ch=2 n=26 v=0
48384 On ch=2 n=28 v=123
48462 On ch=2 n=28 v=0
48480 On ch=2 n=28 v=123
48521 On ch=2 n=28 v=0
48524 On ch=2 n=35 v=122
48572 On ch=2 n=35 v=0
48576 On ch=2 n=40 v=123
48664 On ch=2 n=40 v=0
48672 On ch=2 n=35 v=122
48712 On ch=2 n=35 v=0
48720 On ch=2 n=28 v=123
48760 On ch=2 n=28 v=0
48768 On ch=2 n=28 v=124
48808 On ch=2 n=28 v=0
48816 On ch=2 n=28 v=124
48856 On ch=2 n=28 v=0
48864 On ch=2 n=28 v=125
48904 On ch=2 n=28 v=0
48912 On ch=2 n=28 v=122
48952 On ch=2 n=28 v=0
48960 On ch=2 n=28 v=127
49000 On ch=2 n=28 v=0
49008 On ch=2 n=28 v=123
49048 On ch=2 n=28 v=0
49056 On ch=2 n=28 v=124
49096 On ch=2 n=28 v=0
49104 On ch=2 n=28 v=123
49144 On ch=2 n=28 v=0
49152 On ch=2 n=28 v=126
49192 On ch=2 n=28 v=0
49200 On ch=2 n=28 v=124
49240 On ch=2 n=28 v=0
49248 On ch=2 n=28 v=124
49288 On ch=2 n=28 v=0
49296 On ch=2 n=28 v=123
49336 On ch=2 n=28 v=0
49344 On ch=2 n=28 v=125
49384 On ch=2 n=28 v=0
49392 On ch=2 n=28 v=124
49432 On ch=2 n=28 v=0
49440 On ch=2 n=28 v=124
49480 On ch=2 n=28 v=0
49488 On ch=2 n=28 v=124
49528 On ch=2 n=28 v=0
49536 On ch=2 n=35 v=123
49576 On ch=2 n=35 v=0
49584 On ch=2 n=35 v=117
49624 On ch=2 n=35 v=0
49632 On ch=2 n=35 v=123
49672 On ch=2 n=35 v=0
49680 On ch=2 n=35 v=121
49720 On ch=2 n=35 v=0
49728 On ch=2 n=35 v=124
49768 On ch=2 n=35 v=0
49776 On ch=2 n=35 v=117
49816 On ch=2 n=35 v=0
49824 On ch=2 n=35 v=120
49864 On ch=2 n=35 v=0
49872 On ch=2 n=35 v=121
49912 On ch=2 n=35 v=0
49920 On ch=2 n=35 v=124
49960 On ch=2 n=35 v=0
49968 On ch=2 n=35 v=111
50008 On ch=2 n=35 v=0
50016 On ch=2 n=35 v=121
50056 On ch=2 n=35 v=0
50064 On ch=2 n=35 v=120
50104 On ch=2 n=35 v=0
50112 On ch=2 n=35 v=123
50152 On ch=2 n=35 v=0
50160 On ch=2 n=35 v=121
50200 On ch=2 n=35 v=0
50208 On ch=2 n=35 v=123
50248 On ch=2 n=35 v=0
50256 On ch=2 n=35 v=121
50296 On ch=2 n=35 v=0
50304 On ch=2 n=33 v=124
50344 On ch=2 n=33 v=0
50352 On ch=2 n=33 v=118
50392 On ch=2 n=33 v=0
50400 On ch=2 n=33 v=121
50440 On ch=2 n=33 v=0
50448 On ch=2 n=33 v=121
50488 On ch=2 n=33 v=0
50496 On ch=2 n=33 v=124
50536 On ch=2 n=33 v=0
50544 On ch=2 n=33 v=119
50584 On ch=2 n=33 v=0
50592 On ch=2 n=33 v=121
50632 On ch=2 n=33 v=0
50640 On ch=2 n=33 v=119
50680 On ch=2 n=33 v=0
50688 On ch=2 n=33 v=124
50728 On ch=2 n=33 v=0
50736 On ch=2 n=33 v=119
50776 On ch=2 n=33 v=0
50784 On ch=2 n=33 v=123
50824 On ch=2 n=33 v=0
50832 On ch=2 n=33 v=119
50872 On ch=2 n=33 v=0
50880 On ch=2 n=33 v=124
50920 On ch=2 n=33 v=0
50928 On ch=2 n=33 v=122
50968 On ch=2 n=33 v=0
50976 On ch=2 n=33 v=123
51016 On ch=2 n=33 v=0
51024 On ch=2 n=33 v=120
51064 On ch=2 n=33 v=0
51072 On ch=2 n=35 v=124
51160 On ch=2 n=35 v=0
51168 On ch=2 n=35 v=122
51208 On ch=2 n=35 v=0
51216 On ch=2 n=35 v=118
51256 On ch=2 n=35 v=0
51264 On ch=2 n=35 v=124
51304 On ch=2 n=35 v=0
51312 On ch=2 n=35 v=122
51352 On ch=2 n=35 v=0
51360 On ch=2 n=35 v=123
51400 On ch=2 n=35 v=0
51408 On ch=2 n=35 v=123
51448 On ch=2 n=35 v=0
51456 On ch=2 n=35 v=125
51496 On ch=2 n=35 v=0
51504 On ch=2 n=35 v=119
51544 On ch=2 n=35 v=0
51552 On ch=2 n=35 v=122
51592 On ch=2 n=35 v=0
51600 On ch=2 n=35 v=122
51640 On ch=2 n=35 v=0
51648 On ch=2 n=35 v=124
51688 On ch=2 n=35 v=0
51696 On ch=2 n=33 v=119
51736 On ch=2 n=33 v=0
51744 On ch=2 n=35 v=124
51784 On ch=2 n=35 v=0
51792 On ch=2 n=35 v=118
51832 On ch=2 n=35 v=0
51840 On ch=2 n=31 v=126
51880 On ch=2 n=31 v=0
51888 On ch=2 n=31 v=118
51928 On ch=2 n=31 v=0
51936 On ch=2 n=31 v=123
51976 On ch=2 n=31 v=0
51984 On ch=2 n=31 v=121
52024 On ch=2 n=31 v=0
52032 On ch=2 n=31 v=126
52072 On ch=2 n=31 v=0
52080 On ch=2 n=31 v=121
52120 On ch=2 n=31 v=0
52128 On ch=2 n=31 v=122
52168 On ch=2 n=31 v=0
52176 On ch=2 n=31 v=123
52216 On ch=2 n=31 v=0
52224 On ch=2 n=31 v=114
52264 On ch=2 n=31 v=0
52272 On ch=2 n=31 v=121
52312 On ch=2 n=31 v=0
52320 On ch=2 n=31 v=112
52360 On ch=2 n=31 v=0
52368 On ch=2 n=31 v=123
52408 On ch=2 n=31 v=0
52416 On ch=2 n=31 v=124
52456 On ch=2 n=31 v=0
52464 On ch=2 n=31 v=122
52504 On ch=2 n=31 v=0
52512 On ch=2 n=31 v=124
52552 On ch=2 n=31 v=0
52560 On ch=2 n=31 v=121
52600 On ch=2 n=31 v=0
52608 On ch=2 n=38 v=123
52674 On ch=2 n=38 v=0
52704 On ch=2 n=38 v=116
52749 On ch=2 n=38 v=0
52752 On ch=2 n=26 v=118
52797 On ch=2 n=26 v=0
52800 On ch=2 n=38 v=118
52820 On ch=2 n=38 v=0
52848 On ch=2 n=38 v=121
52893 On ch=2 n=38 v=0
52896 On ch=2 n=26 v=122
52941 On ch=2 n=26 v=0
52944 On ch=2 n=38 v=120
52964 On ch=2 n=38 v=0
52992 On ch=2 n=38 v=121
53064 On ch=2 n=38 v=0
53088 On ch=2 n=38 v=119
53133 On ch=2 n=38 v=0
53136 On ch=2 n=26 v=121
53181 On ch=2 n=26 v=0
53184 On ch=2 n=38 v=113
53196 On ch=2 n=38 v=0
53232 On ch=2 n=38 v=119
53277 On ch=2 n=38 v=0
53280 On ch=2 n=26 v=121
53325 On ch=2 n=26 v=0
53328 On ch=2 n=38 v=121
53359 On ch=2 n=38 v=0
53377 On ch=2 n=33 v=122
54292 On ch=2 n=33 v=0
59808 Par ch=2 c=123 v=0
59856 Par ch=2 c=120 v=0
59856 Meta TrkEnd
TrkEnd
MTrk
210 Par ch=3 c=121 v=0
212 Par ch=3 c=10 v=63
214 Par ch=3 c=93 v=35
216 Par ch=3 c=91 v=123
218 Par ch=3 c=11 v=127
220 Par ch=3 c=7 v=93
222 Pb ch=3 v=8192
226 Par ch=3 c=0 v=0
226 Par ch=3 c=32 v=0
226 PrCh ch=3 p=30
438 Par ch=3 c=99 v=1
438 Par ch=3 c=98 v=33
438 Par ch=3 c=6 v=73
438 Par ch=3 c=38 v=0
20354 On ch=3 n=59 v=113
20355 On ch=3 n=47 v=114
20355 On ch=3 n=54 v=114
20734 Par ch=3 c=1 v=16
20756 Par ch=3 c=1 v=35
20777 Par ch=3 c=1 v=49
20798 Par ch=3 c=1 v=56
20824 Par ch=3 c=1 v=0
21032 On ch=3 n=59 v=0
21036 On ch=3 n=54 v=0
21037 On ch=3 n=47 v=0
21072 On ch=3 n=47 v=110
21072 On ch=3 n=54 v=110
21072 On ch=3 n=59 v=109
21086 On ch=3 n=47 v=0
21096 On ch=3 n=42 v=117
21096 On ch=3 n=47 v=110
21108 On ch=3 n=54 v=0
21109 On ch=3 n=59 v=0
21110 On ch=3 n=47 v=0
21114 On ch=3 n=42 v=0
21120 On ch=3 n=43 v=114
21120 On ch=3 n=50 v=115
21120 On ch=3 n=55 v=114
21510 Par ch=3 c=1 v=6
21549 Par ch=3 c=1 v=14
21574 Par ch=3 c=1 v=24
21592 Par ch=3 c=1 v=31
21634 Par ch=3 c=1 v=11
21649 Par ch=3 c=1 v=0
21799 On ch=3 n=55 v=0
21802 On ch=3 n=43 v=0
21802 On ch=3 n=50 v=0
21840 On ch=3 n=43 v=112
21840 On ch=3 n=50 v=113
21840 On ch=3 n=55 v=112
21852 On ch=3 n=43 v=0
21864 On ch=3 n=38 v=117
21864 On ch=3 n=43 v=112
21876 On ch=3 n=43 v=0
21878 On ch=3 n=50 v=0
21879 On ch=3 n=55 v=0
21884 On ch=3 n=38 v=0
21888 On ch=3 n=45 v=112
21888 On ch=3 n=52 v=115
21888 On ch=3 n=57 v=112
22323 Par ch=3 c=1 v=6
22340 Par ch=3 c=1 v=25
22366 Par ch=3 c=1 v=41
22382 Par ch=3 c=1 v=49
22408 Par ch=3 c=1 v=56
22430 Par ch=3 c=1 v=74
22446 Par ch=3 c=1 v=88
22466 Par ch=3 c=1 v=0
22574 On ch=3 n=57 v=0
22583 On ch=3 n=52 v=0
22584 On ch=3 n=45 v=0
22608 On ch=3 n=45 v=113
22608 On ch=3 n=52 v=113
22608 On ch=3 n=57 v=112
22620 On ch=3 n=45 v=0
22632 On ch=3 n=38 v=115
22632 On ch=3 n=45 v=113
22644 On ch=3 n=52 v=0
22644 On ch=3 n=45 v=0
22646 On ch=3 n=57 v=0
22646 On ch=3 n=38 v=0
22657 On ch=3 n=47 v=115
22657 On ch=3 n=52 v=114
22658 On ch=3 n=40 v=113
23134 Par ch=3 c=1 v=2
23203 Par ch=3 c=1 v=10
23229 Par ch=3 c=1 v=16
23284 Par ch=3 c=1 v=24
23306 Par ch=3 c=1 v=47
23349 Par ch=3 c=1 v=0
23406 On ch=3 n=47 v=0
23407 On ch=3 n=52 v=0
23410 On ch=3 n=40 v=0
23424 On ch=3 n=47 v=114
23424 On ch=3 n=54 v=114
23424 On ch=3 n=59 v=113
23806 Par ch=3 c=1 v=16
23828 Par ch=3 c=1 v=35
23849 Par ch=3 c=1 v=49
23870 Par ch=3 c=1 v=56
23896 Par ch=3 c=1 v=0
24125 On ch=3 n=59 v=0
24128 On ch=3 n=54 v=0
24130 On ch=3 n=47 v=0
24141 On ch=3 n=59 v=109
24142 On ch=3 n=47 v=110
24142 On ch=3 n=54 v=110
24156 On ch=3 n=47 v=0
24166 On ch=3 n=42 v=117
24166 On ch=3 n=47 v=117
24178 On ch=3 n=59 v=0
24179 On ch=3 n=54 v=0
24185 On ch=3 n=42 v=0
24185 On ch=3 n=47 v=0
24192 On ch=3 n=43 v=114
24192 On ch=3 n=50 v=115
24192 On ch=3 n=55 v=114
24582 Par ch=3 c=1 v=6
24621 Par ch=3 c=1 v=14
24646 Par ch=3 c=1 v=24
24664 Par ch=3 c=1 v=31
24706 Par ch=3 c=1 v=11
24721 Par ch=3 c=1 v=0
24871 On ch=3 n=55 v=0
24874 On ch=3 n=43 v=0
24874 On ch=3 n=50 v=0
24911 On ch=3 n=55 v=112
24912 On ch=3 n=43 v=112
24912 On ch=3 n=50 v=113
24925 On ch=3 n=43 v=0
24936 On ch=3 n=43 v=112
24941 On ch=3 n=38 v=117
24949 On ch=3 n=43 v=0
24950 On ch=3 n=55 v=0
24950 On ch=3 n=50 v=0
24960 On ch=3 n=45 v=112
24960 On ch=3 n=52 v=115
24960 On ch=3 n=57 v=112
24962 On ch=3 n=38 v=0
25395 Par ch=3 c=1 v=6
25412 Par ch=3 c=1 v=25
25438 Par ch=3 c=1 v=41
25454 Par ch=3 c=1 v=49
25480 Par ch=3 c=1 v=56
25502 Par ch=3 c=1 v=74
25518 Par ch=3 c=1 v=88
25538 Par ch=3 c=1 v=0
25646 On ch=3 n=57 v=0
25655 On ch=3 n=52 v=0
25656 On ch=3 n=45 v=0
25680 On ch=3 n=45 v=113
25680 On ch=3 n=52 v=113
25680 On ch=3 n=57 v=112
25692 On ch=3 n=45 v=0
25704 On ch=3 n=38 v=115
25704 On ch=3 n=45 v=113
25716 On ch=3 n=52 v=0
25716 On ch=3 n=45 v=0
25718 On ch=3 n=57 v=0
25718 On ch=3 n=38 v=0
25728 On ch=3 n=40 v=113
25728 On ch=3 n=47 v=115
25728 On ch=3 n=52 v=114
26206 Par ch=3 c=1 v=2
26275 Par ch=3 c=1 v=10
26301 Par ch=3 c=1 v=16
26356 Par ch=3 c=1 v=24
26378 Par ch=3 c=1 v=47
26421 Par ch=3 c=1 v=0
26472 On ch=3 n=47 v=0
26474 On ch=3 n=52 v=0
26476 On ch=3 n=40 v=0
26496 On ch=3 n=47 v=114
26496 On ch=3 n=54 v=114
26496 On ch=3 n=59 v=113
26878 Par ch=3 c=1 v=16
26900 Par ch=3 c=1 v=35
26921 Par ch=3 c=1 v=49
26942 Par ch=3 c=1 v=56
26968 Par ch=3 c=1 v=0
27173 On ch=3 n=59 v=0
27176 On ch=3 n=54 v=0
27178 On ch=3 n=47 v=0
27213 On ch=3 n=59 v=109
27214 On ch=3 n=47 v=110
27214 On ch=3 n=54 v=110
27228 On ch=3 n=47 v=0
27238 On ch=3 n=42 v=117
27238 On ch=3 n=47 v=117
27250 On ch=3 n=59 v=0
27251 On ch=3 n=54 v=0
27257 On ch=3 n=42 v=0
27257 On ch=3 n=47 v=0
27264 On ch=3 n=43 v=114
27264 On ch=3 n=50 v=115
27264 On ch=3 n=55 v=114
27654 Par ch=3 c=1 v=6
27693 Par ch=3 c=1 v=14
27718 Par ch=3 c=1 v=24
27736 Par ch=3 c=1 v=31
27778 Par ch=3 c=1 v=11
27793 Par ch=3 c=1 v=0
27967 On ch=3 n=55 v=0
27970 On ch=3 n=43 v=0
27970 On ch=3 n=50 v=0
27983 On ch=3 n=55 v=112
27984 On ch=3 n=43 v=112
27984 On ch=3 n=50 v=113
27997 On ch=3 n=43 v=0
27998 On ch=3 n=55 v=0
27998 On ch=3 n=50 v=0
28007 On ch=3 n=55 v=112
28008 On ch=3 n=43 v=112
28008 On ch=3 n=50 v=113
28021 On ch=3 n=43 v=0
28022 On ch=3 n=55 v=0
28022 On ch=3 n=50 v=0
28032 On ch=3 n=52 v=112
28032 On ch=3 n=59 v=114
28032 On ch=3 n=64 v=112
28036 Pb ch=3 v=5000
28044 Pb ch=3 v=4248
28057 Pb ch=3 v=5031
28066 Pb ch=3 v=6687
28074 Pb ch=3 v=8192
28570 Par ch=3 c=1 v=5
28588 Par ch=3 c=1 v=14
28682 Par ch=3 c=1 v=30
28705 Par ch=3 c=1 v=37
28729 Par ch=3 c=1 v=0
28792 On ch=3 n=52 v=0
28792 On ch=3 n=59 v=0
28792 On ch=3 n=64 v=0
28800 On ch=3 n=40 v=113
28800 On ch=3 n=47 v=112
28800 On ch=3 n=52 v=112
28800 On ch=3 n=59 v=113
29560 On ch=3 n=40 v=0
29560 On ch=3 n=47 v=0
29560 On ch=3 n=52 v=0
29560 On ch=3 n=59 v=0
29568 On ch=3 n=47 v=112
29568 On ch=3 n=54 v=112
30312 On ch=3 n=47 v=0
30312 On ch=3 n=54 v=0
30339 On ch=3 n=45 v=112
30341 On ch=3 n=57 v=113
30342 On ch=3 n=62 v=111
30342 On ch=3 n=64 v=112
30700 On ch=3 n=62 v=0
30706 On ch=3 n=45 v=0
30706 On ch=3 n=57 v=0
30708 On ch=3 n=64 v=0
30720 On ch=3 n=61 v=109
30721 On ch=3 n=45 v=107
30722 On ch=3 n=64 v=107
30724 On ch=3 n=57 v=109
31030 On ch=3 n=64 v=0
31034 On ch=3 n=61 v=0
31034 On ch=3 n=57 v=0
31054 On ch=3 n=59 v=108
31057 On ch=3 n=54 v=107
31058 On ch=3 n=45 v=0
31077 On ch=3 n=59 v=0
31078 On ch=3 n=59 v=108
31080 On ch=3 n=54 v=0
31081 On ch=3 n=59 v=0
31081 On ch=3 n=54 v=107
31083 On ch=3 n=47 v=113
31088 On ch=3 n=47 v=0
31103 On ch=3 n=54 v=0
31104 On ch=3 n=47 v=113
31104 On ch=3 n=54 v=109
31104 On ch=3 n=59 v=112
31104 On ch=3 n=62 v=110
31105 On ch=3 n=54 v=0
31105 On ch=3 n=59 v=0
31868 On ch=3 n=47 v=0
31868 On ch=3 n=62 v=0
31872 On ch=3 n=43 v=115
31872 On ch=3 n=50 v=113
31872 On ch=3 n=55 v=113
31876 Pb ch=3 v=3254
31884 Pb ch=3 v=2652
31892 Pb ch=3 v=3013
31901 Pb ch=3 v=3796
31910 Pb ch=3 v=5362
31918 Pb ch=3 v=6386
31926 Pb ch=3 v=7741
31935 Pb ch=3 v=8192
32264 Par ch=3 c=1 v=9
32290 Par ch=3 c=1 v=45
32312 Par ch=3 c=1 v=59
32338 Par ch=3 c=1 v=74
32359 Par ch=3 c=1 v=89
32376 Par ch=3 c=1 v=96
32410 Par ch=3 c=1 v=45
32427 Par ch=3 c=1 v=0
32620 Pb ch=3 v=7711
32630 Pb ch=3 v=5693
32632 On ch=3 n=43 v=0
32632 On ch=3 n=50 v=0
32632 On ch=3 n=55 v=0
32638 Pb ch=3 v=5241
32640 On ch=3 n=45 v=112
32640 On ch=3 n=50 v=109
32640 On ch=3 n=57 v=111
32648 Pb ch=3 v=8192
33033 Par ch=3 c=1 v=9
33054 Par ch=3 c=1 v=25
33076 Par ch=3 c=1 v=32
33092 Par ch=3 c=1 v=40
33118 Par ch=3 c=1 v=48
33140 Par ch=3 c=1 v=55
33178 Par ch=3 c=1 v=62
33238 Par ch=3 c=1 v=80
33294 Par ch=3 c=1 v=87
33344 Par ch=3 c=1 v=0
33400 On ch=3 n=45 v=0
33400 On ch=3 n=50 v=0
33400 On ch=3 n=57 v=0
33408 On ch=3 n=45 v=111
33408 On ch=3 n=52 v=111
33408 On ch=3 n=57 v=111
34504 On ch=3 n=52 v=0
34507 On ch=3 n=57 v=0
34514 On ch=3 n=45 v=0
38018 On ch=3 n=59 v=113
38019 On ch=3 n=47 v=114
38019 On ch=3 n=54 v=114
38398 Par ch=3 c=1 v=16
38420 Par ch=3 c=1 v=35
38441 Par ch=3 c=1 v=49
38462 Par ch=3 c=1 v=56
38488 Par ch=3 c=1 v=0
38720 On ch=3 n=59 v=0
38724 On ch=3 n=54 v=0
38725 On ch=3 n=47 v=0
38733 On ch=3 n=59 v=109
38734 On ch=3 n=47 v=110
38734 On ch=3 n=54 v=110
38748 On ch=3 n=47 v=0
38758 On ch=3 n=42 v=117
38758 On ch=3 n=47 v=117
38770 On ch=3 n=59 v=0
38771 On ch=3 n=54 v=0
38777 On ch=3 n=42 v=0
38777 On ch=3 n=47 v=0
38784 On ch=3 n=43 v=114
38784 On ch=3 n=50 v=115
38784 On ch=3 n=55 v=114
39174 Par ch=3 c=1 v=6
39213 Par ch=3 c=1 v=14
39238 Par ch=3 c=1 v=24
39256 Par ch=3 c=1 v=31
39298 Par ch=3 c=1 v=11
39313 Par ch=3 c=1 v=0
39487 On ch=3 n=55 v=0
39490 On ch=3 n=43 v=0
39490 On ch=3 n=50 v=0
39503 On ch=3 n=55 v=112
39504 On ch=3 n=43 v=112
39504 On ch=3 n=50 v=113
39517 On ch=3 n=43 v=0
39528 On ch=3 n=43 v=112
39533 On ch=3 n=38 v=117
39541 On ch=3 n=43 v=0
39542 On ch=3 n=55 v=0
39542 On ch=3 n=50 v=0
39552 On ch=3 n=45 v=112
39552 On ch=3 n=52 v=115
39552 On ch=3 n=57 v=112
39554 On ch=3 n=38 v=0
39987 Par ch=3 c=1 v=6
40004 Par ch=3 c=1 v=25
40030 Par ch=3 c=1 v=41
40046 Par ch=3 c=1 v=49
40072 Par ch=3 c=1 v=56
40094 Par ch=3 c=1 v=74
40110 Par ch=3 c=1 v=88
40130 Par ch=3 c=1 v=0
40238 On ch=3 n=57 v=0
40247 On ch=3 n=52 v=0
40248 On ch=3 n=45 v=0
40272 On ch=3 n=57 v=112
40274 On ch=3 n=45 v=113
40274 On ch=3 n=52 v=113
40286 On ch=3 n=45 v=0
40298 On ch=3 n=45 v=113
40301 On ch=3 n=38 v=115
40310 On ch=3 n=52 v=0
40310 On ch=3 n=45 v=0
40311 On ch=3 n=57 v=0
40316 On ch=3 n=38 v=0
40320 On ch=3 n=40 v=113
40320 On ch=3 n=47 v=115
40320 On ch=3 n=52 v=114
40798 Par ch=3 c=1 v=2
40867 Par ch=3 c=1 v=10
40893 Par ch=3 c=1 v=16
40948 Par ch=3 c=1 v=24
40970 Par ch=3 c=1 v=47
41013 Par ch=3 c=1 v=0
41076 On ch=3 n=47 v=0
41078 On ch=3 n=52 v=0
41080 On ch=3 n=40 v=0
41088 On ch=3 n=47 v=114
41088 On ch=3 n=54 v=114
41088 On ch=3 n=59 v=113
41470 Par ch=3 c=1 v=16
41492 Par ch=3 c=1 v=35
41513 Par ch=3 c=1 v=49
41534 Par ch=3 c=1 v=56
41560 Par ch=3 c=1 v=0
41765 On ch=3 n=59 v=0
41768 On ch=3 n=54 v=0
41770 On ch=3 n=47 v=0
41808 On ch=3 n=47 v=110
41808 On ch=3 n=54 v=110
41808 On ch=3 n=59 v=109
41822 On ch=3 n=47 v=0
41832 On ch=3 n=42 v=117
41832 On ch=3 n=47 v=110
41844 On ch=3 n=54 v=0
41845 On ch=3 n=59 v=0
41846 On ch=3 n=47 v=0
41850 On ch=3 n=42 v=0
41856 On ch=3 n=43 v=114
41856 On ch=3 n=50 v=115
41856 On ch=3 n=55 v=114
42246 Par ch=3 c=1 v=6
42285 Par ch=3 c=1 v=14
42310 Par ch=3 c=1 v=24
42328 Par ch=3 c=1 v=31
42370 Par ch=3 c=1 v=11
42385 Par ch=3 c=1 v=0
42535 On ch=3 n=55 v=0
42538 On ch=3 n=43 v=0
42538 On ch=3 n=50 v=0
42576 On ch=3 n=43 v=112
42576 On ch=3 n=50 v=113
42576 On ch=3 n=55 v=112
42588 On ch=3 n=43 v=0
42600 On ch=3 n=38 v=117
42600 On ch=3 n=43 v=112
42612 On ch=3 n=43 v=0
42614 On ch=3 n=50 v=0
42615 On ch=3 n=55 v=0
42620 On ch=3 n=38 v=0
42624 On ch=3 n=45 v=112
42624 On ch=3 n=52 v=115
42624 On ch=3 n=57 v=112
43059 Par ch=3 c=1 v=6
43076 Par ch=3 c=1 v=25
43102 Par ch=3 c=1 v=41
43118 Par ch=3 c=1 v=49
43144 Par ch=3 c=1 v=56
43166 Par ch=3 c=1 v=74
43182 Par ch=3 c=1 v=88
43202 Par ch=3 c=1 v=0
43310 On ch=3 n=57 v=0
43319 On ch=3 n=52 v=0
43320 On ch=3 n=45 v=0
43344 On ch=3 n=57 v=112
43346 On ch=3 n=45 v=113
43346 On ch=3 n=52 v=113
43358 On ch=3 n=45 v=0
43370 On ch=3 n=45 v=113
43373 On ch=3 n=38 v=115
43382 On ch=3 n=52 v=0
43382 On ch=3 n=45 v=0
43383 On ch=3 n=57 v=0
43388 On ch=3 n=38 v=0
43392 On ch=3 n=40 v=113
43392 On ch=3 n=47 v=115
43392 On ch=3 n=52 v=114
43870 Par ch=3 c=1 v=2
43939 Par ch=3 c=1 v=10
43965 Par ch=3 c=1 v=16
44020 Par ch=3 c=1 v=24
44042 Par ch=3 c=1 v=47
44085 Par ch=3 c=1 v=0
44144 On ch=3 n=47 v=0
44146 On ch=3 n=52 v=0
44148 On ch=3 n=40 v=0
44162 On ch=3 n=59 v=113
44163 On ch=3 n=47 v=114
44163 On ch=3 n=54 v=114
44542 Par ch=3 c=1 v=16
44564 Par ch=3 c=1 v=35
44585 Par ch=3 c=1 v=49
44606 Par ch=3 c=1 v=56
44632 Par ch=3 c=1 v=0
44840 On ch=3 n=59 v=0
44844 On ch=3 n=54 v=0
44845 On ch=3 n=47 v=0
44880 On ch=3 n=47 v=110
44880 On ch=3 n=54 v=110
44880 On ch=3 n=59 v=109
44894 On ch=3 n=47 v=0
44904 On ch=3 n=42 v=117
44904 On ch=3 n=47 v=110
44916 On ch=3 n=54 v=0
44917 On ch=3 n=59 v=0
44918 On ch=3 n=47 v=0
44922 On ch=3 n=42 v=0
44928 On ch=3 n=43 v=114
44928 On ch=3 n=50 v=115
44928 On ch=3 n=55 v=114
45318 Par ch=3 c=1 v=6
45357 Par ch=3 c=1 v=14
45382 Par ch=3 c=1 v=24
45400 Par ch=3 c=1 v=31
45442 Par ch=3 c=1 v=11
45457 Par ch=3 c=1 v=0
45607 On ch=3 n=55 v=0
45610 On ch=3 n=43 v=0
45610 On ch=3 n=50 v=0
45648 On ch=3 n=43 v=112
45648 On ch=3 n=50 v=113
45648 On ch=3 n=55 v=112
45660 On ch=3 n=43 v=0
45672 On ch=3 n=38 v=117
45672 On ch=3 n=43 v=112
45684 On ch=3 n=43 v=0
45686 On ch=3 n=50 v=0
45687 On ch=3 n=55 v=0
45692 On ch=3 n=38 v=0
45696 On ch=3 n=45 v=112
45696 On ch=3 n=52 v=115
45696 On ch=3 n=57 v=112
46131 Par ch=3 c=1 v=6
46148 Par ch=3 c=1 v=25
46174 Par ch=3 c=1 v=41
46190 Par ch=3 c=1 v=49
46216 Par ch=3 c=1 v=56
46238 Par ch=3 c=1 v=74
46254 Par ch=3 c=1 v=88
46274 Par ch=3 c=1 v=0
46358 On ch=3 n=57 v=0
46367 On ch=3 n=52 v=0
46368 On ch=3 n=45 v=0
46416 On ch=3 n=45 v=113
46416 On ch=3 n=52 v=113
46416 On ch=3 n=57 v=112
46428 On ch=3 n=45 v=0
46440 On ch=3 n=38 v=115
46440 On ch=3 n=45 v=113
46452 On ch=3 n=52 v=0
46452 On ch=3 n=45 v=0
46454 On ch=3 n=57 v=0
46454 On ch=3 n=38 v=0
46464 On ch=3 n=40 v=113
46464 On ch=3 n=47 v=115
46464 On ch=3 n=52 v=114
46942 Par ch=3 c=1 v=2
47011 Par ch=3 c=1 v=10
47037 Par ch=3 c=1 v=16
47092 Par ch=3 c=1 v=24
47114 Par ch=3 c=1 v=47
47157 Par ch=3 c=1 v=0
47216 On ch=3 n=40 v=0
47216 On ch=3 n=47 v=0
47216 On ch=3 n=52 v=0
47232 On ch=3 n=47 v=114
47232 On ch=3 n=54 v=114
47232 On ch=3 n=59 v=113
47614 Par ch=3 c=1 v=16
47636 Par ch=3 c=1 v=35
47657 Par ch=3 c=1 v=49
47678 Par ch=3 c=1 v=56
47704 Par ch=3 c=1 v=0
47934 On ch=3 n=47 v=0
47934 On ch=3 n=54 v=0
47934 On ch=3 n=59 v=0
47952 On ch=3 n=47 v=110
47952 On ch=3 n=54 v=110
47952 On ch=3 n=59 v=109
47966 On ch=3 n=47 v=0
47976 On ch=3 n=42 v=117
47976 On ch=3 n=47 v=110
47988 On ch=3 n=54 v=0
47989 On ch=3 n=59 v=0
47990 On ch=3 n=47 v=0
47994 On ch=3 n=42 v=0
48000 On ch=3 n=52 v=112
48000 On ch=3 n=59 v=114
48000 On ch=3 n=64 v=112
48004 Pb ch=3 v=5000
48012 Pb ch=3 v=4248
48025 Pb ch=3 v=5031
48034 Pb ch=3 v=6687
48042 Pb ch=3 v=8192
48538 Par ch=3 c=1 v=5
48556 Par ch=3 c=1 v=14
48650 Par ch=3 c=1 v=30
48673 Par ch=3 c=1 v=37
48697 Par ch=3 c=1 v=0
48745 On ch=3 n=59 v=0
48746 On ch=3 n=52 v=0
48746 On ch=3 n=64 v=0
48768 On ch=3 n=40 v=113
48768 On ch=3 n=47 v=112
48768 On ch=3 n=52 v=112
48768 On ch=3 n=59 v=113
49528 On ch=3 n=40 v=0
49528 On ch=3 n=47 v=0
49528 On ch=3 n=52 v=0
49528 On ch=3 n=59 v=0
49544 On ch=3 n=47 v=112
49544 On ch=3 n=54 v=112
50292 On ch=3 n=47 v=0
50292 On ch=3 n=54 v=0
50307 On ch=3 n=45 v=112
50309 On ch=3 n=57 v=113
50310 On ch=3 n=62 v=111
50310 On ch=3 n=64 v=112
50668 On ch=3 n=62 v=0
50674 On ch=3 n=45 v=0
50674 On ch=3 n=57 v=0
50676 On ch=3 n=64 v=0
50688 On ch=3 n=61 v=109
50689 On ch=3 n=45 v=107
50690 On ch=3 n=64 v=107
50692 On ch=3 n=57 v=109
51020 On ch=3 n=61 v=0
51020 On ch=3 n=45 v=0
51020 On ch=3 n=64 v=0
51020 On ch=3 n=57 v=0
51024 On ch=3 n=54 v=107
51024 On ch=3 n=59 v=108
51043 On ch=3 n=54 v=0
51046 On ch=3 n=59 v=0
51048 On ch=3 n=47 v=113
51048 On ch=3 n=54 v=107
51048 On ch=3 n=59 v=108
51067 On ch=3 n=54 v=0
51068 On ch=3 n=47 v=0
51070 On ch=3 n=59 v=0
51072 On ch=3 n=47 v=113
51072 On ch=3 n=54 v=109
51072 On ch=3 n=59 v=112
51072 On ch=3 n=62 v=110
51096 On ch=3 n=59 v=0
51832 On ch=3 n=47 v=0
51832 On ch=3 n=54 v=0
51832 On ch=3 n=62 v=0
51840 On ch=3 n=43 v=115
51840 On ch=3 n=50 v=113
51840 On ch=3 n=55 v=113
51844 Pb ch=3 v=3254
51852 Pb ch=3 v=2652
51860 Pb ch=3 v=3013
51869 Pb ch=3 v=3796
51878 Pb ch=3 v=5362
51886 Pb ch=3 v=6386
51894 Pb ch=3 v=7741
51903 Pb ch=3 v=8192
52232 Par ch=3 c=1 v=9
52258 Par ch=3 c=1 v=45
52280 Par ch=3 c=1 v=59
52306 Par ch=3 c=1 v=74
52327 Par ch=3 c=1 v=89
52344 Par ch=3 c=1 v=96
52378 Par ch=3 c=1 v=45
52395 Par ch=3 c=1 v=0
52588 Pb ch=3 v=7711
52598 Pb ch=3 v=5693
52600 On ch=3 n=43 v=0
52600 On ch=3 n=50 v=0
52600 On ch=3 n=55 v=0
52606 Pb ch=3 v=5241
52608 On ch=3 n=45 v=112
52608 On ch=3 n=50 v=109
52608 On ch=3 n=57 v=111
52616 Pb ch=3 v=8192
53001 Par ch=3 c=1 v=9
53022 Par ch=3 c=1 v=25
53044 Par ch=3 c=1 v=32
53060 Par ch=3 c=1 v=40
53086 Par ch=3 c=1 v=48
53108 Par ch=3 c=1 v=55
53146 Par ch=3 c=1 v=62
53206 Par ch=3 c=1 v=80
53262 Par ch=3 c=1 v=87
53312 Par ch=3 c=1 v=0
53364 On ch=3 n=45 v=0
53364 On ch=3 n=50 v=0
53364 On ch=3 n=57 v=0
53376 On ch=3 n=45 v=111
53376 On ch=3 n=52 v=111
53376 On ch=3 n=57 v=111
54000 Par ch=3 c=7 v=81
54048 Par ch=3 c=7 v=77
54096 Par ch=3 c=7 v=74
54144 Par ch=3 c=7 v=70
54192 Par ch=3 c=7 v=67
54240 Par ch=3 c=7 v=63
54288 Par ch=3 c=7 v=60
54336 Par ch=3 c=7 v=56
54384 Par ch=3 c=7 v=53
54432 Par ch=3 c=7 v=49
54480 Par ch=3 c=7 v=46
54528 Par ch=3 c=7 v=42
54576 Par ch=3 c=7 v=39
54624 Par ch=3 c=7 v=35
54672 Par ch=3 c=7 v=32
54720 Par ch=3 c=7 v=28
54768 Par ch=3 c=7 v=25
54816 Par ch=3 c=7 v=21
54856 On ch=3 n=52 v=0
54859 On ch=3 n=57 v=0
54864 Par ch=3 c=7 v=18
54866 On ch=3 n=45 v=0
54912 Par ch=3 c=7 v=14
54960 Par ch=3 c=7 v=11
55008 Par ch=3 c=7 v=7
55056 Par ch=3 c=7 v=4
56222 Par ch=3 c=7 v=7
56242 Par ch=3 c=7 v=10
56264 Par ch=3 c=7 v=13
56286 Par ch=3 c=7 v=16
56334 Par ch=3 c=7 v=19
56404 Par ch=3 c=7 v=17
56426 Par ch=3 c=7 v=0
56454 On ch=3 n=40 v=113
56454 On ch=3 n=47 v=113
56454 On ch=3 n=52 v=111
56498 Par ch=3 c=7 v=9
56519 Par ch=3 c=7 v=24
56540 Par ch=3 c=7 v=33
56564 Par ch=3 c=7 v=40
56596 Par ch=3 c=7 v=45
56614 Par ch=3 c=7 v=49
56650 Par ch=3 c=7 v=51
56676 Par ch=3 c=7 v=54
56706 Par ch=3 c=7 v=57
56732 Par ch=3 c=7 v=60
56760 Par ch=3 c=7 v=63
56786 Par ch=3 c=7 v=66
56821 Par ch=3 c=7 v=69
56856 Par ch=3 c=7 v=71
56896 Par ch=3 c=7 v=77
56922 Par ch=3 c=7 v=80
56948 Par ch=3 c=7 v=83
56974 Par ch=3 c=7 v=86
57022 Par ch=3 c=7 v=89
57058 Par ch=3 c=7 v=91
57110 Par ch=3 c=7 v=94
57162 Par ch=3 c=7 v=97
57226 Par ch=3 c=7 v=100
57341 Par ch=3 c=7 v=102
57600 Par ch=3 c=7 v=108
57648 Par ch=3 c=7 v=104
57696 Par ch=3 c=7 v=101
57744 Par ch=3 c=7 v=97
57792 Par ch=3 c=7 v=94
57840 Par ch=3 c=7 v=90
57888 Par ch=3 c=7 v=86
57936 Par ch=3 c=7 v=83
57984 Par ch=3 c=7 v=79
58032 Par ch=3 c=7 v=76
58080 Par ch=3 c=7 v=72
58128 Par ch=3 c=7 v=68
58176 Par ch=3 c=7 v=65
58224 Par ch=3 c=7 v=61
58272 Par ch=3 c=7 v=58
58320 Par ch=3 c=7 v=54
58368 Par ch=3 c=7 v=50
58416 Par ch=3 c=7 v=47
58464 Par ch=3 c=7 v=43
58512 Par ch=3 c=7 v=40
58560 Par ch=3 c=7 v=36
58608 Par ch=3 c=7 v=32
58656 Par ch=3 c=7 v=29
58704 Par ch=3 c=7 v=25
58752 Par ch=3 c=7 v=22
58800 Par ch=3 c=7 v=18
58848 Par ch=3 c=7 v=14
58896 Par ch=3 c=7 v=11
58944 Par ch=3 c=7 v=7
58992 Par ch=3 c=7 v=4
59142 On ch=3 n=40 v=0
59143 On ch=3 n=47 v=0
59145 On ch=3 n=52 v=0
59808 Par ch=3 c=123 v=0
59856 Par ch=3 c=120 v=0
59856 Meta TrkEnd
TrkEnd
MTrk
228 Par ch=4 c=121 v=0
230 Par ch=4 c=10 v=64
232 Par ch=4 c=93 v=13
234 Par ch=4 c=91 v=89
236 Par ch=4 c=11 v=127
238 Par ch=4 c=7 v=96
240 Pb ch=4 v=8192
244 Par ch=4 c=0 v=0
244 Par ch=4 c=32 v=0
244 PrCh ch=4 p=80
8071 On ch=4 n=59 v=106
8170 On ch=4 n=59 v=0
8421 Pb ch=4 v=7229
8430 Pb ch=4 v=5241
8438 Pb ch=4 v=3073
8444 On ch=4 n=62 v=97
8446 Pb ch=4 v=1688
8456 Pb ch=4 v=2892
8464 Pb ch=4 v=5813
8472 Pb ch=4 v=8192
8540 On ch=4 n=62 v=0
8546 On ch=4 n=64 v=94
8596 On ch=4 n=64 v=0
8600 On ch=4 n=62 v=106
8690 On ch=4 n=62 v=0
8691 On ch=4 n=61 v=103
8782 On ch=4 n=61 v=0
8788 On ch=4 n=59 v=112
8878 On ch=4 n=57 v=100
8879 On ch=4 n=59 v=0
8929 On ch=4 n=57 v=0
8932 On ch=4 n=55 v=100
9002 On ch=4 n=55 v=0
9387 Pb ch=4 v=7560
9396 Pb ch=4 v=2049
9404 Pb ch=4 v=0
9409 On ch=4 n=59 v=115
9424 Pb ch=4 v=1447
9433 Pb ch=4 v=6386
9442 Pb ch=4 v=8192
9477 On ch=4 n=59 v=0
9494 On ch=4 n=59 v=94
9546 On ch=4 n=59 v=0
9547 On ch=4 n=61 v=106
9688 On ch=4 n=61 v=0
9694 On ch=4 n=59 v=109
9743 On ch=4 n=59 v=0
9750 On ch=4 n=57 v=112
9804 On ch=4 n=57 v=0
10083 On ch=4 n=57 v=109
10106 On ch=4 n=57 v=0
10126 On ch=4 n=57 v=86
10174 On ch=4 n=57 v=0
10180 On ch=4 n=62 v=106
10222 On ch=4 n=62 v=0
10230 On ch=4 n=61 v=112
10321 On ch=4 n=61 v=0
10331 On ch=4 n=59 v=112
10416 On ch=4 n=59 v=0
11142 On ch=4 n=59 v=112
11235 On ch=4 n=59 v=0
11494 Pb ch=4 v=7289
11502 Pb ch=4 v=4970
11512 Pb ch=4 v=3013
11518 On ch=4 n=62 v=97
11522 Pb ch=4 v=2892
11529 Pb ch=4 v=6386
11537 Pb ch=4 v=8192
11560 On ch=4 n=62 v=0
11570 On ch=4 n=62 v=112
11653 On ch=4 n=62 v=0
11662 On ch=4 n=62 v=103
11761 On ch=4 n=62 v=0
11761 On ch=4 n=64 v=100
11855 On ch=4 n=64 v=0
11862 On ch=4 n=62 v=112
11958 On ch=4 n=61 v=115
11966 On ch=4 n=62 v=0
11998 On ch=4 n=61 v=0
12006 On ch=4 n=59 v=112
12083 On ch=4 n=59 v=0
12460 Pb ch=4 v=6566
12468 Pb ch=4 v=2892
12476 Pb ch=4 v=1146
12480 On ch=4 n=57 v=112
12485 Pb ch=4 v=1598
12494 Pb ch=4 v=6175
12502 Pb ch=4 v=8192
12526 On ch=4 n=57 v=0
12531 On ch=4 n=59 v=106
12619 On ch=4 n=59 v=0
12624 On ch=4 n=61 v=112
12760 On ch=4 n=61 v=0
12767 On ch=4 n=59 v=112
12817 On ch=4 n=59 v=0
12822 On ch=4 n=57 v=112
12900 On ch=4 n=57 v=0
13156 On ch=4 n=57 v=74
13180 On ch=4 n=57 v=0
13200 On ch=4 n=57 v=71
13248 On ch=4 n=57 v=0
13250 On ch=4 n=62 v=115
13296 On ch=4 n=62 v=0
13300 On ch=4 n=61 v=112
13390 On ch=4 n=61 v=0
13396 On ch=4 n=59 v=115
13562 On ch=4 n=59 v=0
14158 On ch=4 n=66 v=112
14357 On ch=4 n=66 v=0
14602 On ch=4 n=66 v=121
14678 On ch=4 n=66 v=0
14694 On ch=4 n=66 v=106
14723 On ch=4 n=66 v=0
14742 On ch=4 n=66 v=100
14832 On ch=4 n=69 v=109
14842 On ch=4 n=66 v=0
14921 On ch=4 n=69 v=0
14926 On ch=4 n=67 v=118
15068 On ch=4 n=66 v=115
15075 On ch=4 n=67 v=0
15118 On ch=4 n=66 v=0
15120 On ch=4 n=62 v=115
15187 On ch=4 n=62 v=0
15556 On ch=4 n=61 v=115
15644 On ch=4 n=61 v=0
15650 On ch=4 n=62 v=118
15696 On ch=4 n=62 v=0
15702 On ch=4 n=64 v=112
15818 On ch=4 n=64 v=0
16302 Pb ch=4 v=5542
16310 Pb ch=4 v=1567
16318 Pb ch=4 v=32
16322 On ch=4 n=69 v=118
16327 Pb ch=4 v=544
16336 Pb ch=4 v=4880
16344 Pb ch=4 v=8192
16414 On ch=4 n=69 v=0
16422 On ch=4 n=71 v=112
16469 On ch=4 n=71 v=0
16472 On ch=4 n=69 v=115
16552 On ch=4 n=69 v=0
16558 On ch=4 n=67 v=109
16626 On ch=4 n=67 v=0
17288 On ch=4 n=71 v=115
17419 Par ch=4 c=1 v=10
17440 Par ch=4 c=1 v=59
17457 Par ch=4 c=1 v=91
17484 Par ch=4 c=1 v=80
17486 On ch=4 n=71 v=0
17502 Par ch=4 c=1 v=0
17651 Pb ch=4 v=5693
17660 Pb ch=4 v=2381
17668 Pb ch=4 v=513
17672 On ch=4 n=71 v=109
17678 Pb ch=4 v=513
17686 Pb ch=4 v=3374
17694 Pb ch=4 v=8192
17748 On ch=4 n=71 v=0
17766 On ch=4 n=71 v=106
17796 On ch=4 n=71 v=0
17818 On ch=4 n=71 v=112
17899 On ch=4 n=71 v=0
17905 On ch=4 n=74 v=115
17995 On ch=4 n=74 v=0
18004 On ch=4 n=71 v=118
18140 On ch=4 n=71 v=0
18148 On ch=4 n=69 v=115
18194 On ch=4 n=69 v=0
18200 On ch=4 n=67 v=115
18340 On ch=4 n=67 v=0
18613 Pb ch=4 v=6627
18622 Pb ch=4 v=3856
18630 Pb ch=4 v=2260
18631 On ch=4 n=66 v=118
18644 Pb ch=4 v=5031
18652 Pb ch=4 v=8192
18720 On ch=4 n=66 v=0
18729 On ch=4 n=67 v=109
18771 On ch=4 n=67 v=0
18776 On ch=4 n=69 v=106
18916 On ch=4 n=69 v=0
19375 Pb ch=4 v=5271
19384 Pb ch=4 v=2019
19394 Pb ch=4 v=242
19397 On ch=4 n=73 v=118
19406 Pb ch=4 v=1748
19414 Pb ch=4 v=5603
19423 Pb ch=4 v=8192
19484 On ch=4 n=73 v=0
19490 On ch=4 n=74 v=100
19535 On ch=4 n=74 v=0
19542 On ch=4 n=73 v=118
19634 On ch=4 n=73 v=0
19638 On ch=4 n=71 v=100
19690 On ch=4 n=71 v=0
20234 Pb ch=4 v=5211
20242 Pb ch=4 v=1417
20251 Pb ch=4 v=242
20260 Pb ch=4 v=815
20262 On ch=4 n=78 v=124
20268 Pb ch=4 v=3766
20277 Pb ch=4 v=8192
20406 Pb ch=4 v=7319
20414 Pb ch=4 v=6085
20422 Pb ch=4 v=4850
20436 On ch=4 n=78 v=0
20436 Pb ch=4 v=4338
20444 Pb ch=4 v=2772
20454 Pb ch=4 v=3404
20462 Pb ch=4 v=8192
20732 Pb ch=4 v=3555
20741 Pb ch=4 v=0
20744 On ch=4 n=78 v=118
20758 Pb ch=4 v=1899
20767 Pb ch=4 v=8192
20816 On ch=4 n=78 v=0
20836 On ch=4 n=78 v=112
20865 On ch=4 n=78 v=0
20888 On ch=4 n=78 v=115
21022 On ch=4 n=78 v=0
21029 On ch=4 n=81 v=115
21084 On ch=4 n=79 v=118
21090 On ch=4 n=81 v=0
21220 On ch=4 n=79 v=0
21224 On ch=4 n=78 v=112
21269 On ch=4 n=78 v=0
21279 On ch=4 n=74 v=112
21384 On ch=4 n=74 v=0
21672 Pb ch=4 v=5302
21680 Pb ch=4 v=1357
21689 Pb ch=4 v=0
21694 On ch=4 n=78 v=121
21706 Pb ch=4 v=333
21715 Pb ch=4 v=3706
21724 Pb ch=4 v=8192
21774 On ch=4 n=78 v=0
21794 On ch=4 n=78 v=112
21834 On ch=4 n=78 v=0
21846 On ch=4 n=76 v=115
21968 On ch=4 n=76 v=0
22387 Pb ch=4 v=6085
22396 Pb ch=4 v=1838
22404 Pb ch=4 v=0
22414 On ch=4 n=73 v=121
22422 Pb ch=4 v=182
22430 Pb ch=4 v=4097
22438 Pb ch=4 v=8192
22440 On ch=4 n=73 v=0
22468 On ch=4 n=73 v=112
22552 On ch=4 n=73 v=0
22560 On ch=4 n=74 v=103
22601 On ch=4 n=74 v=0
22610 On ch=4 n=73 v=118
22703 On ch=4 n=73 v=0
22708 On ch=4 n=71 v=115
22766 On ch=4 n=71 v=0
23339 On ch=4 n=78 v=124
23478 Pb ch=4 v=7319
23486 Pb ch=4 v=6085
23494 Pb ch=4 v=4850
23508 Pb ch=4 v=4338
23516 Pb ch=4 v=2772
23526 Pb ch=4 v=3404
23534 Pb ch=4 v=8192
23544 On ch=4 n=78 v=0
23804 Pb ch=4 v=3555
23812 On ch=4 n=78 v=118
23814 Pb ch=4 v=1236
23828 Pb ch=4 v=2320
23836 Pb ch=4 v=5934
23844 Pb ch=4 v=8192
23894 On ch=4 n=78 v=0
23902 On ch=4 n=76 v=115
23950 On ch=4 n=76 v=0
23955 On ch=4 n=74 v=112
24034 On ch=4 n=74 v=0
24046 On ch=4 n=76 v=115
24136 On ch=4 n=76 v=0
24146 On ch=4 n=78 v=112
24244 On ch=4 n=78 v=0
24246 On ch=4 n=76 v=115
24297 On ch=4 n=76 v=0
24300 On ch=4 n=74 v=112
24363 On ch=4 n=74 v=0
24745 Pb ch=4 v=8102
24754 Pb ch=4 v=5603
24762 Pb ch=4 v=1959
24771 Pb ch=4 v=0
24776 On ch=4 n=73 v=118
24788 Pb ch=4 v=423
24796 Pb ch=4 v=4699
24805 Pb ch=4 v=8192
24866 On ch=4 n=73 v=0
24871 On ch=4 n=74 v=112
24914 On ch=4 n=74 v=0
24922 On ch=4 n=76 v=112
25071 On ch=4 n=76 v=0
25512 Pb ch=4 v=5302
25520 Pb ch=4 v=1266
25528 Pb ch=4 v=0
25534 On ch=4 n=73 v=121
25546 Pb ch=4 v=1447
25554 Pb ch=4 v=5783
25563 Pb ch=4 v=8192
25626 On ch=4 n=73 v=0
25634 On ch=4 n=74 v=112
25676 On ch=4 n=74 v=0
25684 On ch=4 n=73 v=118
25775 On ch=4 n=73 v=0
25782 On ch=4 n=71 v=112
25838 On ch=4 n=71 v=0
26282 Pb ch=4 v=6958
26290 Pb ch=4 v=2802
26298 Pb ch=4 v=1
26305 Pb ch=4 v=0
26308 On ch=4 n=73 v=127
26313 Pb ch=4 v=453
26322 Pb ch=4 v=3163
26330 Pb ch=4 v=8192
26396 On ch=4 n=73 v=0
26403 On ch=4 n=74 v=112
26444 On ch=4 n=74 v=0
26453 On ch=4 n=73 v=121
26542 On ch=4 n=73 v=0
26549 On ch=4 n=71 v=118
26623 On ch=4 n=71 v=0
27050 Pb ch=4 v=7831
27059 Pb ch=4 v=3133
27068 Pb ch=4 v=0
27076 On ch=4 n=73 v=121
27094 Pb ch=4 v=1718
27102 Pb ch=4 v=6115
27110 Pb ch=4 v=8192
27162 On ch=4 n=73 v=0
27170 On ch=4 n=74 v=109
27222 On ch=4 n=73 v=112
27224 On ch=4 n=74 v=0
27306 On ch=4 n=73 v=0
27308 On ch=4 n=70 v=97
27479 On ch=4 n=70 v=0
27827 Pb ch=4 v=5452
27836 Pb ch=4 v=1929
27844 Pb ch=4 v=182
27848 On ch=4 n=73 v=121
27853 Pb ch=4 v=152
27862 Pb ch=4 v=4067
27870 Pb ch=4 v=8192
27934 On ch=4 n=73 v=0
27941 On ch=4 n=74 v=109
27986 On ch=4 n=74 v=0
27991 On ch=4 n=73 v=115
28074 On ch=4 n=73 v=0
28082 On ch=4 n=71 v=112
28487 Par ch=4 c=1 v=1
28514 Par ch=4 c=1 v=10
28538 Par ch=4 c=1 v=24
28568 Par ch=4 c=1 v=35
28585 Par ch=4 c=1 v=42
28602 Par ch=4 c=1 v=49
28696 Par ch=4 c=1 v=0
28705 On ch=4 n=71 v=0
28806 Pb ch=4 v=694
28810 On ch=4 n=79 v=112
28815 Pb ch=4 v=1417
28824 Pb ch=4 v=3856
28832 Pb ch=4 v=6717
28840 Pb ch=4 v=8192
28878 On ch=4 n=79 v=0
28898 On ch=4 n=79 v=112
28942 On ch=4 n=79 v=0
28954 On ch=4 n=78 v=112
29030 On ch=4 n=78 v=0
29040 On ch=4 n=76 v=109
29070 On ch=4 n=76 v=0
29090 On ch=4 n=76 v=112
29336 On ch=4 n=76 v=0
29452 Pb ch=4 v=6627
29460 Pb ch=4 v=2471
29469 Pb ch=4 v=0
29480 On ch=4 n=76 v=112
29490 Pb ch=4 v=3886
29498 Pb ch=4 v=8192
29518 On ch=4 n=76 v=0
29530 On ch=4 n=76 v=121
29568 On ch=4 n=76 v=0
29576 On ch=4 n=78 v=115
29604 On ch=4 n=78 v=0
29622 On ch=4 n=78 v=100
29643 On ch=4 n=78 v=0
29666 On ch=4 n=78 v=118
29704 On ch=4 n=78 v=0
29714 On ch=4 n=76 v=118
29758 On ch=4 n=76 v=0
29764 On ch=4 n=74 v=112
29791 On ch=4 n=74 v=0
29812 On ch=4 n=74 v=112
29951 On ch=4 n=74 v=0
30336 Pb ch=4 v=5964
30344 Pb ch=4 v=3344
30346 On ch=4 n=76 v=118
30352 Pb ch=4 v=3736
30361 Pb ch=4 v=5542
30370 Pb ch=4 v=8192
30391 On ch=4 n=76 v=0
30402 On ch=4 n=74 v=115
30462 On ch=4 n=74 v=0
30486 On ch=4 n=74 v=118
30568 On ch=4 n=74 v=0
30577 On ch=4 n=73 v=115
30660 On ch=4 n=73 v=0
30677 On ch=4 n=73 v=109
30766 On ch=4 n=73 v=0
30774 On ch=4 n=71 v=109
30815 On ch=4 n=71 v=0
30822 On ch=4 n=69 v=109
30895 On ch=4 n=69 v=0
31106 On ch=4 n=71 v=109
31108 Pb ch=4 v=5512
31116 Pb ch=4 v=8192
31146 On ch=4 n=71 v=0
31155 On ch=4 n=71 v=115
31228 On ch=4 n=71 v=0
31246 On ch=4 n=71 v=118
31334 On ch=4 n=71 v=0
31346 On ch=4 n=73 v=118
31432 On ch=4 n=73 v=0
31444 On ch=4 n=71 v=115
31524 On ch=4 n=71 v=0
31532 On ch=4 n=73 v=115
31571 On ch=4 n=73 v=0
31582 On ch=4 n=74 v=115
31738 On ch=4 n=74 v=0
31872 Pb ch=4 v=2109
31874 On ch=4 n=79 v=118
31880 Pb ch=4 v=3766
31887 Pb ch=4 v=8192
31906 On ch=4 n=79 v=0
31923 On ch=4 n=79 v=94
31950 On ch=4 n=79 v=0
31969 On ch=4 n=79 v=103
31995 On ch=4 n=79 v=0
32018 On ch=4 n=79 v=109
32043 On ch=4 n=79 v=0
32064 On ch=4 n=79 v=115
32154 On ch=4 n=79 v=0
32159 On ch=4 n=78 v=103
32191 On ch=4 n=78 v=0
32208 On ch=4 n=78 v=106
32298 On ch=4 n=76 v=97
32302 On ch=4 n=78 v=0
32332 On ch=4 n=76 v=0
32352 On ch=4 n=76 v=100
32516 On ch=4 n=76 v=0
32640 Pb ch=4 v=2802
32644 On ch=4 n=78 v=109
32650 Pb ch=4 v=1176
32666 Pb ch=4 v=2742
32675 Pb ch=4 v=5783
32683 Pb ch=4 v=8192
32709 On ch=4 n=78 v=0
32730 On ch=4 n=78 v=109
32771 On ch=4 n=78 v=0
32794 On ch=4 n=78 v=112
32860 On ch=4 n=78 v=0
32872 On ch=4 n=76 v=112
32937 On ch=4 n=76 v=0
32962 On ch=4 n=76 v=106
33074 On ch=4 n=76 v=0
33074 On ch=4 n=74 v=103
33107 On ch=4 n=74 v=0
33129 On ch=4 n=74 v=103
33194 On ch=4 n=74 v=0
33462 On ch=4 n=69 v=109
33512 On ch=4 n=69 v=0
33513 On ch=4 n=76 v=109
33544 On ch=4 n=76 v=0
33565 On ch=4 n=76 v=115
33592 On ch=4 n=76 v=0
33614 On ch=4 n=76 v=109
33704 On ch=4 n=76 v=0
33710 On ch=4 n=74 v=86
33740 On ch=4 n=74 v=0
33758 On ch=4 n=74 v=109
33854 Pb ch=4 v=7650
33863 Pb ch=4 v=5633
33872 Pb ch=4 v=4127
33881 On ch=4 n=74 v=0
33884 On ch=4 n=73 v=88
33885 Pb ch=4 v=8192
33920 On ch=4 n=73 v=0
33936 On ch=4 n=73 v=94
34128 On ch=4 n=73 v=0
41042 On ch=4 n=78 v=124
41142 Pb ch=4 v=7319
41150 Pb ch=4 v=6085
41158 Pb ch=4 v=4850
41172 Pb ch=4 v=4338
41180 Pb ch=4 v=2772
41190 Pb ch=4 v=3404
41198 Pb ch=4 v=8192
41206 On ch=4 n=78 v=0
41468 Pb ch=4 v=3555
41476 On ch=4 n=78 v=118
41478 Pb ch=4 v=1236
41492 Pb ch=4 v=2320
41500 Pb ch=4 v=5934
41508 Pb ch=4 v=8192
41558 On ch=4 n=78 v=0
41566 On ch=4 n=76 v=115
41614 On ch=4 n=76 v=0
41619 On ch=4 n=74 v=112
41698 On ch=4 n=74 v=0
41710 On ch=4 n=76 v=115
41800 On ch=4 n=76 v=0
41810 On ch=4 n=78 v=112
41908 On ch=4 n=78 v=0
41910 On ch=4 n=76 v=115
41961 On ch=4 n=76 v=0
41964 On ch=4 n=74 v=112
42027 On ch=4 n=74 v=0
42409 Pb ch=4 v=8102
42418 Pb ch=4 v=5603
42426 Pb ch=4 v=1959
42435 Pb ch=4 v=0
42440 On ch=4 n=73 v=118
42452 Pb ch=4 v=423
42460 Pb ch=4 v=4699
42469 Pb ch=4 v=8192
42530 On ch=4 n=73 v=0
42535 On ch=4 n=74 v=112
42578 On ch=4 n=74 v=0
42586 On ch=4 n=76 v=112
42735 On ch=4 n=76 v=0
43134 Pb ch=4 v=8012
43142 Pb ch=4 v=2411
43151 Pb ch=4 v=0
43155 On ch=4 n=76 v=118
43174 Pb ch=4 v=2471
43182 Pb ch=4 v=8192
43190 On ch=4 n=76 v=0
43211 On ch=4 n=76 v=121
43292 On ch=4 n=76 v=0
43306 On ch=4 n=78 v=115
43356 On ch=4 n=78 v=0
43358 On ch=4 n=76 v=121
43443 On ch=4 n=76 v=0
43451 On ch=4 n=74 v=118
43494 On ch=4 n=74 v=0
44060 On ch=4 n=78 v=121
44158 On ch=4 n=78 v=0
44512 Pb ch=4 v=7229
44520 Pb ch=4 v=4278
44534 Pb ch=4 v=815
44542 Pb ch=4 v=0
44550 On ch=4 n=78 v=115
44560 Pb ch=4 v=273
44569 Pb ch=4 v=4609
44578 Pb ch=4 v=8192
44618 On ch=4 n=78 v=0
44636 On ch=4 n=78 v=121
44668 On ch=4 n=78 v=0
44687 On ch=4 n=78 v=97
44784 On ch=4 n=78 v=0
44784 On ch=4 n=81 v=112
44874 On ch=4 n=81 v=0
44886 On ch=4 n=79 v=115
44976 On ch=4 n=79 v=0
44983 On ch=4 n=78 v=118
45038 On ch=4 n=78 v=0
45038 On ch=4 n=74 v=112
45117 On ch=4 n=74 v=0
45484 Pb ch=4 v=7229
45493 Pb ch=4 v=3073
45502 Pb ch=4 v=544
45510 On ch=4 n=78 v=118
45512 Pb ch=4 v=363
45520 Pb ch=4 v=5512
45530 Pb ch=4 v=8192
45586 On ch=4 n=78 v=0
45607 On ch=4 n=78 v=112
45650 On ch=4 n=78 v=0
45658 On ch=4 n=76 v=112
45800 On ch=4 n=76 v=0
46252 Pb ch=4 v=6265
46260 Pb ch=4 v=2260
46269 Pb ch=4 v=0
46278 On ch=4 n=73 v=121
46290 Pb ch=4 v=3706
46299 Pb ch=4 v=8192
46364 On ch=4 n=73 v=0
46372 On ch=4 n=74 v=106
46414 On ch=4 n=74 v=0
46422 On ch=4 n=73 v=112
46510 On ch=4 n=73 v=0
46516 On ch=4 n=71 v=115
46580 On ch=4 n=71 v=0
47002 Pb ch=4 v=7891
47012 Pb ch=4 v=5603
47020 Pb ch=4 v=2170
47028 Pb ch=4 v=0
47042 On ch=4 n=73 v=118
47046 Pb ch=4 v=303
47054 Pb ch=4 v=4910
47063 Pb ch=4 v=8192
47136 On ch=4 n=73 v=0
47146 On ch=4 n=74 v=112
47184 On ch=4 n=74 v=0
47193 On ch=4 n=73 v=118
47283 On ch=4 n=73 v=0
47288 On ch=4 n=71 v=115
47403 On ch=4 n=71 v=0
47780 Pb ch=4 v=6867
47788 Pb ch=4 v=3856
47796 Pb ch=4 v=1176
47805 Pb ch=4 v=0
47814 Pb ch=4 v=182
47814 On ch=4 n=73 v=121
47822 Pb ch=4 v=4127
47831 Pb ch=4 v=8192
47896 On ch=4 n=73 v=0
47905 On ch=4 n=74 v=112
47946 On ch=4 n=74 v=0
47956 On ch=4 n=73 v=118
48042 On ch=4 n=73 v=0
48050 On ch=4 n=71 v=115
48380 On ch=4 n=71 v=0
48455 Par ch=4 c=1 v=1
48482 Par ch=4 c=1 v=10
48506 Par ch=4 c=1 v=24
48536 Par ch=4 c=1 v=35
48553 Par ch=4 c=1 v=42
48570 Par ch=4 c=1 v=49
48664 Par ch=4 c=1 v=0
48774 Pb ch=4 v=694
48778 On ch=4 n=79 v=112
48783 Pb ch=4 v=1417
48792 Pb ch=4 v=3856
48800 Pb ch=4 v=6717
48808 Pb ch=4 v=8192
48846 On ch=4 n=79 v=0
48866 On ch=4 n=79 v=112
48910 On ch=4 n=79 v=0
48922 On ch=4 n=78 v=112
48998 On ch=4 n=78 v=0
49008 On ch=4 n=76 v=109
49038 On ch=4 n=76 v=0
49058 On ch=4 n=76 v=112
49304 On ch=4 n=76 v=0
49420 Pb ch=4 v=6627
49428 Pb ch=4 v=2471
49437 Pb ch=4 v=0
49448 On ch=4 n=76 v=112
49458 Pb ch=4 v=3886
49466 Pb ch=4 v=8192
49486 On ch=4 n=76 v=0
49498 On ch=4 n=76 v=121
49536 On ch=4 n=76 v=0
49544 On ch=4 n=78 v=115
49572 On ch=4 n=78 v=0
49590 On ch=4 n=78 v=100
49611 On ch=4 n=78 v=0
49634 On ch=4 n=78 v=118
49672 On ch=4 n=78 v=0
49682 On ch=4 n=76 v=118
49726 On ch=4 n=76 v=0
49732 On ch=4 n=74 v=112
49759 On ch=4 n=74 v=0
49780 On ch=4 n=74 v=112
49919 On ch=4 n=74 v=0
50304 Pb ch=4 v=5964
50312 Pb ch=4 v=3344
50314 On ch=4 n=76 v=118
50320 Pb ch=4 v=3736
50329 Pb ch=4 v=5542
50338 Pb ch=4 v=8192
50359 On ch=4 n=76 v=0
50370 On ch=4 n=74 v=115
50430 On ch=4 n=74 v=0
50454 On ch=4 n=74 v=118
50536 On ch=4 n=74 v=0
50545 On ch=4 n=73 v=115
50628 On ch=4 n=73 v=0
50645 On ch=4 n=73 v=109
50734 On ch=4 n=73 v=0
50742 On ch=4 n=71 v=109
50783 On ch=4 n=71 v=0
50790 On ch=4 n=69 v=109
50863 On ch=4 n=69 v=0
51074 On ch=4 n=71 v=109
51076 Pb ch=4 v=5512
51084 Pb ch=4 v=8192
51114 On ch=4 n=71 v=0
51123 On ch=4 n=71 v=115
51196 On ch=4 n=71 v=0
51214 On ch=4 n=71 v=118
51302 On ch=4 n=71 v=0
51314 On ch=4 n=73 v=118
51400 On ch=4 n=73 v=0
51412 On ch=4 n=71 v=115
51492 On ch=4 n=71 v=0
51500 On ch=4 n=73 v=115
51539 On ch=4 n=73 v=0
51550 On ch=4 n=74 v=115
51706 On ch=4 n=74 v=0
51840 Pb ch=4 v=2109
51842 On ch=4 n=79 v=118
51848 Pb ch=4 v=3766
51855 Pb ch=4 v=8192
51874 On ch=4 n=79 v=0
51891 On ch=4 n=79 v=94
51918 On ch=4 n=79 v=0
51937 On ch=4 n=79 v=103
51963 On ch=4 n=79 v=0
51986 On ch=4 n=79 v=109
52011 On ch=4 n=79 v=0
52032 On ch=4 n=79 v=115
52122 On ch=4 n=79 v=0
52127 On ch=4 n=78 v=103
52159 On ch=4 n=78 v=0
52176 On ch=4 n=78 v=106
52266 On ch=4 n=76 v=97
52270 On ch=4 n=78 v=0
52300 On ch=4 n=76 v=0
52320 On ch=4 n=76 v=100
52484 On ch=4 n=76 v=0
52608 Pb ch=4 v=2802
52612 On ch=4 n=78 v=109
52618 Pb ch=4 v=1176
52634 Pb ch=4 v=2742
52643 Pb ch=4 v=5783
52651 Pb ch=4 v=8192
52677 On ch=4 n=78 v=0
52698 On ch=4 n=78 v=109
52739 On ch=4 n=78 v=0
52762 On ch=4 n=78 v=112
52828 On ch=4 n=78 v=0
52840 On ch=4 n=76 v=112
52905 On ch=4 n=76 v=0
52930 On ch=4 n=76 v=106
53042 On ch=4 n=76 v=0
53042 On ch=4 n=74 v=103
53075 On ch=4 n=74 v=0
53097 On ch=4 n=74 v=103
53162 On ch=4 n=74 v=0
53430 On ch=4 n=69 v=103
53470 On ch=4 n=69 v=0
53474 On ch=4 n=76 v=97
53507 On ch=4 n=76 v=0
53526 On ch=4 n=76 v=109
53550 On ch=4 n=76 v=0
53568 On ch=4 n=76 v=109
53616 On ch=4 n=76 v=0
53618 On ch=4 n=74 v=88
53650 On ch=4 n=74 v=0
53666 On ch=4 n=74 v=94
53836 On ch=4 n=74 v=0
53844 On ch=4 n=73 v=76
53884 On ch=4 n=73 v=0
53900 On ch=4 n=73 v=84
54106 On ch=4 n=73 v=0
54684 Pb ch=4 v=7952
54692 Pb ch=4 v=5723
54701 Pb ch=4 v=3434
54710 Pb ch=4 v=2170
54714 On ch=4 n=73 v=97
54724 Pb ch=4 v=2892
54732 Pb ch=4 v=6325
54740 Pb ch=4 v=8192
54818 On ch=4 n=73 v=0
54818 On ch=4 n=74 v=84
54858 On ch=4 n=74 v=0
54869 On ch=4 n=73 v=84
54952 On ch=4 n=73 v=0
54957 On ch=4 n=71 v=86
55066 On ch=4 n=71 v=0
55522 Pb ch=4 v=5573
55530 Pb ch=4 v=1869
55539 Pb ch=4 v=0
55542 On ch=4 n=73 v=94
55560 Pb ch=4 v=333
55570 Pb ch=4 v=3073
55578 Pb ch=4 v=5482
55587 Pb ch=4 v=8192
55618 On ch=4 n=73 v=0
55622 On ch=4 n=74 v=78
55679 On ch=4 n=74 v=0
55688 On ch=4 n=73 v=86
55798 On ch=4 n=73 v=0
55800 On ch=4 n=70 v=54
55920 On ch=4 n=70 v=0
56214 Pb ch=4 v=7711
56222 Pb ch=4 v=6356
56231 Pb ch=4 v=4519
56240 Pb ch=4 v=2411
56248 Pb ch=4 v=1266
56256 On ch=4 n=73 v=103
56258 Pb ch=4 v=513
56270 Pb ch=4 v=3675
56280 Pb ch=4 v=6205
56288 Pb ch=4 v=8192
56350 On ch=4 n=73 v=0
56354 On ch=4 n=74 v=92
56403 On ch=4 n=74 v=0
56408 On ch=4 n=73 v=100
56501 On ch=4 n=71 v=86
56506 On ch=4 n=73 v=0
57172 On ch=4 n=71 v=0
59808 Par ch=4 c=123 v=0
59856 Par ch=4 c=120 v=0
59856 Meta TrkEnd
TrkEnd
MTrk
354 Par ch=5 c=121 v=0
356 Par ch=5 c=10 v=74
358 Par ch=5 c=93 v=24
360 Par ch=5 c=91 v=90
362 Par ch=5 c=11 v=127
364 Par ch=5 c=7 v=98
366 Pb ch=5 v=8192
370 Par ch=5 c=0 v=0
370 Par ch=5 c=32 v=0
370 PrCh ch=5 p=52
31883 On ch=5 n=71 v=97
31910 On ch=5 n=71 v=0
31930 On ch=5 n=71 v=92
31955 On ch=5 n=71 v=0
31975 On ch=5 n=71 v=94
32002 On ch=5 n=71 v=0
32023 On ch=5 n=71 v=100
32046 On ch=5 n=71 v=0
32067 On ch=5 n=71 v=100
32143 On ch=5 n=71 v=0
32156 On ch=5 n=69 v=97
32184 On ch=5 n=69 v=0
32205 On ch=5 n=69 v=106
32289 On ch=5 n=69 v=0
32302 On ch=5 n=67 v=94
32330 On ch=5 n=67 v=0
32351 On ch=5 n=67 v=97
32556 On ch=5 n=67 v=0
32650 On ch=5 n=69 v=100
32715 On ch=5 n=69 v=0
32734 On ch=5 n=69 v=100
32773 On ch=5 n=69 v=0
32790 On ch=5 n=69 v=112
32855 On ch=5 n=69 v=0
32874 On ch=5 n=67 v=103
32936 On ch=5 n=67 v=0
32960 On ch=5 n=67 v=106
33057 On ch=5 n=66 v=100
33060 On ch=5 n=67 v=0
33102 On ch=5 n=66 v=0
33126 On ch=5 n=66 v=109
33224 On ch=5 n=66 v=0
51851 On ch=5 n=71 v=97
51878 On ch=5 n=71 v=0
51898 On ch=5 n=71 v=92
51923 On ch=5 n=71 v=0
51943 On ch=5 n=71 v=94
51970 On ch=5 n=71 v=0
51991 On ch=5 n=71 v=100
52014 On ch=5 n=71 v=0
52035 On ch=5 n=71 v=100
52111 On ch=5 n=71 v=0
52124 On ch=5 n=69 v=97
52152 On ch=5 n=69 v=0
52173 On ch=5 n=69 v=106
52257 On ch=5 n=69 v=0
52270 On ch=5 n=67 v=94
52298 On ch=5 n=67 v=0
52319 On ch=5 n=67 v=97
52524 On ch=5 n=67 v=0
52618 On ch=5 n=69 v=100
52683 On ch=5 n=69 v=0
52702 On ch=5 n=69 v=100
52741 On ch=5 n=69 v=0
52758 On ch=5 n=69 v=112
52823 On ch=5 n=69 v=0
52842 On ch=5 n=67 v=103
52904 On ch=5 n=67 v=0
52928 On ch=5 n=67 v=106
53025 On ch=5 n=66 v=100
53028 On ch=5 n=67 v=0
53070 On ch=5 n=66 v=0
53094 On ch=5 n=66 v=109
53192 On ch=5 n=66 v=0
59808 Par ch=5 c=123 v=0
59856 Par ch=5 c=120 v=0
59856 Meta TrkEnd
TrkEnd
MTrk
264 Par ch=6 c=121 v=0
266 Par ch=6 c=10 v=65
268 Par ch=6 c=93 v=13
270 Par ch=6 c=91 v=108
272 Par ch=6 c=11 v=127
274 Par ch=6 c=7 v=94
276 Pb ch=6 v=8192
280 Par ch=6 c=0 v=0
280 Par ch=6 c=32 v=0
280 PrCh ch=6 p=49
500 Par ch=6 c=99 v=1
500 Par ch=6 c=98 v=99
500 Par ch=6 c=6 v=53
500 Par ch=6 c=38 v=0
34948 On ch=6 n=47 v=84
34948 On ch=6 n=54 v=106
34955 On ch=6 n=71 v=109
34956 On ch=6 n=62 v=115
35131 On ch=6 n=71 v=0
35138 On ch=6 n=66 v=115
35320 On ch=6 n=54 v=0
35328 On ch=6 n=62 v=0
35328 On ch=6 n=61 v=115
35330 On ch=6 n=66 v=0
35330 On ch=6 n=64 v=115
35336 On ch=6 n=52 v=106
35656 On ch=6 n=64 v=0
35661 On ch=6 n=69 v=115
35692 On ch=6 n=52 v=0
35700 On ch=6 n=47 v=0
35710 On ch=6 n=61 v=0
35712 On ch=6 n=47 v=84
35712 On ch=6 n=59 v=112
35712 On ch=6 n=66 v=106
35716 On ch=6 n=54 v=106
35717 On ch=6 n=69 v=0
35892 On ch=6 n=47 v=0
35892 On ch=6 n=59 v=0
35892 On ch=6 n=66 v=0
35896 On ch=6 n=54 v=0
35904 On ch=6 n=47 v=84
35904 On ch=6 n=54 v=106
35904 On ch=6 n=59 v=112
35904 On ch=6 n=62 v=112
36084 On ch=6 n=47 v=0
36084 On ch=6 n=54 v=0
36084 On ch=6 n=59 v=0
36084 On ch=6 n=62 v=0
36096 On ch=6 n=47 v=100
36096 On ch=6 n=54 v=106
36096 On ch=6 n=57 v=106
36096 On ch=6 n=61 v=112
36096 On ch=6 n=64 v=112
36276 On ch=6 n=47 v=0
36276 On ch=6 n=54 v=0
36276 On ch=6 n=57 v=0
36276 On ch=6 n=61 v=0
36276 On ch=6 n=64 v=0
36288 On ch=6 n=47 v=100
36288 On ch=6 n=54 v=106
36288 On ch=6 n=57 v=112
36288 On ch=6 n=61 v=88
36474 On ch=6 n=47 v=0
36474 On ch=6 n=54 v=0
36474 On ch=6 n=57 v=0
36474 On ch=6 n=61 v=0
36486 On ch=6 n=47 v=85
36486 On ch=6 n=57 v=82
36486 On ch=6 n=62 v=87
36487 On ch=6 n=54 v=77
36487 On ch=6 n=59 v=77
37104 Par ch=6 c=7 v=68
37152 Par ch=6 c=7 v=63
37200 Par ch=6 c=7 v=59
37248 Par ch=6 c=7 v=54
37296 Par ch=6 c=7 v=50
37344 Par ch=6 c=7 v=45
37392 Par ch=6 c=7 v=41
37440 Par ch=6 c=7 v=36
37488 Par ch=6 c=7 v=32
37536 Par ch=6 c=7 v=27
37584 Par ch=6 c=7 v=23
37630 On ch=6 n=62 v=0
37630 On ch=6 n=54 v=0
37630 On ch=6 n=59 v=0
37632 On ch=6 n=47 v=0
37632 Par ch=6 c=7 v=18
37634 On ch=6 n=57 v=0
37680 Par ch=6 c=7 v=14
37728 Par ch=6 c=7 v=9
37776 Par ch=6 c=7 v=5
38016 Par ch=6 c=7 v=79
48768 On ch=6 n=76 v=97
48768 On ch=6 n=83 v=97
49510 On ch=6 n=76 v=0
49536 On ch=6 n=74 v=90
50288 On ch=6 n=74 v=0
50289 On ch=6 n=83 v=0
50304 On ch=6 n=74 v=86
50304 On ch=6 n=81 v=86
50666 On ch=6 n=74 v=0
50688 On ch=6 n=73 v=88
51049 On ch=6 n=73 v=0
51072 On ch=6 n=81 v=0
51840 On ch=6 n=83 v=80
51840 On ch=6 n=91 v=90
52605 On ch=6 n=91 v=0
52608 On ch=6 n=81 v=86
52608 On ch=6 n=93 v=91
52615 On ch=6 n=83 v=0
53358 On ch=6 n=81 v=0
53364 On ch=6 n=93 v=0
53376 On ch=6 n=93 v=85
54144 Par ch=6 c=7 v=72
54192 Par ch=6 c=7 v=68
54240 Par ch=6 c=7 v=65
54288 Par ch=6 c=7 v=61
54336 Par ch=6 c=7 v=58
54384 Par ch=6 c=7 v=54
54432 Par ch=6 c=7 v=50
54480 Par ch=6 c=7 v=47
54528 Par ch=6 c=7 v=43
54576 Par ch=6 c=7 v=40
54624 Par ch=6 c=7 v=36
54672 Par ch=6 c=7 v=32
54720 Par ch=6 c=7 v=29
54768 Par ch=6 c=7 v=25
54816 Par ch=6 c=7 v=22
54864 Par ch=6 c=7 v=18
54904 On ch=6 n=93 v=0
54912 Par ch=6 c=7 v=14
54960 Par ch=6 c=7 v=11
55008 Par ch=6 c=7 v=7
55056 Par ch=6 c=7 v=4
56166 Par ch=6 c=7 v=29
56191 Par ch=6 c=7 v=71
56206 Par ch=6 c=7 v=64
56230 Par ch=6 c=7 v=30
56253 Par ch=6 c=7 v=2
56642 On ch=6 n=52 v=80
56642 On ch=6 n=64 v=86
56643 On ch=6 n=59 v=88
56646 On ch=6 n=66 v=68
56673 Par ch=6 c=7 v=9
56695 Par ch=6 c=7 v=17
56718 Par ch=6 c=7 v=25
56741 Par ch=6 c=7 v=34
56756 Par ch=6 c=7 v=38
56778 Par ch=6 c=7 v=45
56794 Par ch=6 c=7 v=48
56812 Par ch=6 c=7 v=51
56830 Par ch=6 c=7 v=54
56862 Par ch=6 c=7 v=61
56883 Par ch=6 c=7 v=64
56910 Par ch=6 c=7 v=66
56934 Par ch=6 c=7 v=69
56954 Par ch=6 c=7 v=72
56980 Par ch=6 c=7 v=76
57060 Par ch=6 c=7 v=78
57146 Par ch=6 c=7 v=81
57168 Par ch=6 c=7 v=84
57234 Par ch=6 c=7 v=87
57744 Par ch=6 c=7 v=89
57792 Par ch=6 c=7 v=86
57840 Par ch=6 c=7 v=83
57888 Par ch=6 c=7 v=80
57936 Par ch=6 c=7 v=77
57984 Par ch=6 c=7 v=73
58032 Par ch=6 c=7 v=70
58080 Par ch=6 c=7 v=67
58128 Par ch=6 c=7 v=64
58176 Par ch=6 c=7 v=61
58224 Par ch=6 c=7 v=57
58272 Par ch=6 c=7 v=54
58320 Par ch=6 c=7 v=51
58368 Par ch=6 c=7 v=48
58416 Par ch=6 c=7 v=45
58464 Par ch=6 c=7 v=42
58512 Par ch=6 c=7 v=38
58560 Par ch=6 c=7 v=35
58608 Par ch=6 c=7 v=32
58656 Par ch=6 c=7 v=29
58704 Par ch=6 c=7 v=26
58752 Par ch=6 c=7 v=22
58800 Par ch=6 c=7 v=19
58848 Par ch=6 c=7 v=16
58896 Par ch=6 c=7 v=13
58944 Par ch=6 c=7 v=10
58992 Par ch=6 c=7 v=6
59040 Par ch=6 c=7 v=3
59145 On ch=6 n=59 v=0
59148 On ch=6 n=64 v=0
59148 On ch=6 n=66 v=0
59152 On ch=6 n=52 v=0
59808 Par ch=6 c=123 v=0
59856 Par ch=6 c=120 v=0
59856 Meta TrkEnd
TrkEnd
MTrk
282 Par ch=7 c=121 v=0
284 Par ch=7 c=10 v=34
286 Par ch=7 c=93 v=22
288 Par ch=7 c=91 v=111
290 Par ch=7 c=11 v=127
292 Par ch=7 c=7 v=100
294 Pb ch=7 v=8192
298 Par ch=7 c=0 v=0
298 Par ch=7 c=32 v=0
298 PrCh ch=7 p=50
486 Par ch=7 c=99 v=1
486 Par ch=7 c=98 v=99
486 Par ch=7 c=6 v=61
486 Par ch=7 c=38 v=0
594 Par ch=7 c=99 v=1
594 Par ch=7 c=98 v=33
594 Par ch=7 c=6 v=80
594 Par ch=7 c=38 v=0
690 Par ch=7 c=99 v=1
690 Par ch=7 c=98 v=32
690 Par ch=7 c=6 v=51
690 Par ch=7 c=38 v=0
4992 On ch=7 n=54 v=86
4992 On ch=7 n=59 v=92
4992 On ch=7 n=62 v=96
5754 On ch=7 n=54 v=0
5760 On ch=7 n=55 v=86
6518 On ch=7 n=62 v=0
6518 On ch=7 n=55 v=0
6520 On ch=7 n=59 v=0
6528 On ch=7 n=57 v=98
6528 On ch=7 n=61 v=90
6528 On ch=7 n=64 v=102
7292 On ch=7 n=57 v=0
7292 On ch=7 n=61 v=0
7292 On ch=7 n=64 v=0
7296 On ch=7 n=55 v=92
7296 On ch=7 n=59 v=94
7296 On ch=7 n=62 v=87
8060 On ch=7 n=55 v=0
8060 On ch=7 n=59 v=0
8060 On ch=7 n=62 v=0
8064 On ch=7 n=47 v=94
8072 On ch=7 n=59 v=94
8072 On ch=7 n=62 v=87
8076 On ch=7 n=54 v=94
8828 On ch=7 n=47 v=0
8832 On ch=7 n=43 v=92
8836 On ch=7 n=55 v=94
8840 On ch=7 n=54 v=0
9584 On ch=7 n=59 v=0
9584 On ch=7 n=62 v=0
9590 On ch=7 n=43 v=0
9600 On ch=7 n=55 v=0
9600 On ch=7 n=45 v=96
9600 On ch=7 n=57 v=92
9600 On ch=7 n=59 v=90
9600 On ch=7 n=61 v=79
9600 On ch=7 n=64 v=82
10356 On ch=7 n=59 v=0
10364 On ch=7 n=45 v=0
10364 On ch=7 n=57 v=0
10364 On ch=7 n=61 v=0
10364 On ch=7 n=64 v=0
10368 On ch=7 n=40 v=114
10368 On ch=7 n=55 v=86
10368 On ch=7 n=59 v=92
10368 On ch=7 n=62 v=94
11116 On ch=7 n=59 v=0
11116 On ch=7 n=62 v=0
11132 On ch=7 n=40 v=0
11132 On ch=7 n=55 v=0
11136 On ch=7 n=47 v=94
11136 On ch=7 n=54 v=86
11144 On ch=7 n=59 v=92
11144 On ch=7 n=62 v=94
11900 On ch=7 n=47 v=0
11900 On ch=7 n=54 v=0
11904 On ch=7 n=43 v=92
11904 On ch=7 n=55 v=84
12656 On ch=7 n=59 v=0
12656 On ch=7 n=62 v=0
12668 On ch=7 n=43 v=0
12668 On ch=7 n=55 v=0
12672 On ch=7 n=45 v=96
12672 On ch=7 n=57 v=92
12672 On ch=7 n=59 v=90
12672 On ch=7 n=61 v=79
12672 On ch=7 n=64 v=82
13436 On ch=7 n=45 v=0
13436 On ch=7 n=57 v=0
13436 On ch=7 n=61 v=0
13436 On ch=7 n=64 v=0
13440 On ch=7 n=40 v=114
13440 On ch=7 n=55 v=86
13440 On ch=7 n=62 v=94
14204 On ch=7 n=40 v=0
14204 On ch=7 n=55 v=0
14208 On ch=7 n=47 v=94
14208 On ch=7 n=54 v=86
14964 On ch=7 n=59 v=0
14968 On ch=7 n=62 v=0
14972 On ch=7 n=47 v=0
14972 On ch=7 n=54 v=0
14976 On ch=7 n=43 v=92
14976 On ch=7 n=55 v=84
14976 On ch=7 n=59 v=79
14976 On ch=7 n=62 v=84
15740 On ch=7 n=43 v=0
15740 On ch=7 n=55 v=0
15740 On ch=7 n=62 v=0
15744 On ch=7 n=45 v=96
15744 On ch=7 n=57 v=92
15744 On ch=7 n=61 v=79
15744 On ch=7 n=64 v=82
16508 On ch=7 n=45 v=0
16508 On ch=7 n=57 v=0
16508 On ch=7 n=61 v=0
16508 On ch=7 n=64 v=0
16512 On ch=7 n=40 v=114
16512 On ch=7 n=55 v=86
16512 On ch=7 n=62 v=94
17264 On ch=7 n=59 v=0
17268 On ch=7 n=62 v=0
17276 On ch=7 n=40 v=0
17276 On ch=7 n=55 v=0
17280 On ch=7 n=47 v=94
17280 On ch=7 n=54 v=86
17280 On ch=7 n=59 v=88
17280 On ch=7 n=62 v=92
18044 On ch=7 n=47 v=0
18044 On ch=7 n=54 v=0
18048 On ch=7 n=43 v=92
18048 On ch=7 n=55 v=84
18808 On ch=7 n=59 v=0
18808 On ch=7 n=62 v=0
18812 On ch=7 n=43 v=0
18812 On ch=7 n=55 v=0
18816 On ch=7 n=45 v=96
18816 On ch=7 n=57 v=92
18816 On ch=7 n=59 v=90
18816 On ch=7 n=61 v=79
18816 On ch=7 n=64 v=82
19564 On ch=7 n=59 v=0
19580 On ch=7 n=45 v=0
19580 On ch=7 n=57 v=0
19580 On ch=7 n=61 v=0
19580 On ch=7 n=64 v=0
19584 On ch=7 n=40 v=114
19584 On ch=7 n=55 v=86
19584 On ch=7 n=59 v=92
19584 On ch=7 n=62 v=94
20348 On ch=7 n=40 v=0
20348 On ch=7 n=55 v=0
20352 On ch=7 n=47 v=94
20352 On ch=7 n=54 v=86
21116 On ch=7 n=47 v=0
21116 On ch=7 n=54 v=0
21120 On ch=7 n=43 v=92
21120 On ch=7 n=55 v=84
21872 On ch=7 n=59 v=0
21872 On ch=7 n=62 v=0
21884 On ch=7 n=43 v=0
21884 On ch=7 n=55 v=0
21888 On ch=7 n=45 v=96
21888 On ch=7 n=57 v=92
21888 On ch=7 n=59 v=90
21888 On ch=7 n=61 v=79
21888 On ch=7 n=64 v=82
22652 On ch=7 n=45 v=0
22652 On ch=7 n=57 v=0
22652 On ch=7 n=59 v=0
22652 On ch=7 n=61 v=0
22652 On ch=7 n=64 v=0
22656 On ch=7 n=40 v=114
22656 On ch=7 n=55 v=86
22656 On ch=7 n=59 v=92
22656 On ch=7 n=62 v=94
23420 On ch=7 n=40 v=0
23420 On ch=7 n=55 v=0
23424 On ch=7 n=47 v=94
23424 On ch=7 n=54 v=86
24180 On ch=7 n=59 v=0
24180 On ch=7 n=62 v=0
24188 On ch=7 n=47 v=0
24188 On ch=7 n=54 v=0
24192 On ch=7 n=43 v=92
24192 On ch=7 n=55 v=84
24192 On ch=7 n=59 v=79
24192 On ch=7 n=62 v=84
24948 On ch=7 n=43 v=0
24948 On ch=7 n=55 v=0
24948 On ch=7 n=59 v=0
24948 On ch=7 n=62 v=0
24960 On ch=7 n=45 v=96
24960 On ch=7 n=57 v=92
24960 On ch=7 n=59 v=90
24960 On ch=7 n=61 v=79
24960 On ch=7 n=64 v=82
25716 On ch=7 n=45 v=0
25716 On ch=7 n=57 v=0
25716 On ch=7 n=59 v=0
25716 On ch=7 n=61 v=0
25716 On ch=7 n=64 v=0
25728 On ch=7 n=40 v=114
25728 On ch=7 n=55 v=86
25728 On ch=7 n=59 v=92
25728 On ch=7 n=62 v=94
26488 On ch=7 n=40 v=0
26488 On ch=7 n=55 v=0
26488 On ch=7 n=59 v=0
26488 On ch=7 n=62 v=0
26496 On ch=7 n=59 v=94
26496 On ch=7 n=62 v=94
26496 On ch=7 n=66 v=94
27256 On ch=7 n=59 v=0
27256 On ch=7 n=62 v=0
27256 On ch=7 n=66 v=0
27264 On ch=7 n=55 v=88
27264 On ch=7 n=58 v=111
27264 On ch=7 n=62 v=94
28020 On ch=7 n=55 v=0
28020 On ch=7 n=58 v=0
28020 On ch=7 n=62 v=0
28032 On ch=7 n=59 v=100
28032 On ch=7 n=64 v=86
28032 On ch=7 n=68 v=94
28788 On ch=7 n=59 v=0
28788 On ch=7 n=64 v=0
28788 On ch=7 n=68 v=0
28800 On ch=7 n=55 v=86
28800 On ch=7 n=59 v=92
28800 On ch=7 n=62 v=94
29554 On ch=7 n=62 v=0
29560 On ch=7 n=55 v=0
29560 On ch=7 n=59 v=0
29568 On ch=7 n=54 v=94
29568 On ch=7 n=59 v=94
29568 On ch=7 n=62 v=94
30326 On ch=7 n=54 v=0
30326 On ch=7 n=59 v=0
30326 On ch=7 n=62 v=0
30336 On ch=7 n=57 v=86
30336 On ch=7 n=62 v=86
30336 On ch=7 n=64 v=86
30704 On ch=7 n=62 v=0
30720 On ch=7 n=61 v=86
31096 On ch=7 n=61 v=0
31104 On ch=7 n=57 v=0
31104 On ch=7 n=64 v=0
31112 On ch=7 n=54 v=94
31112 On ch=7 n=59 v=94
31112 On ch=7 n=62 v=94
31870 On ch=7 n=54 v=0
31870 On ch=7 n=59 v=0
31870 On ch=7 n=62 v=0
31880 On ch=7 n=59 v=94
31880 On ch=7 n=62 v=94
31880 On ch=7 n=67 v=94
32638 On ch=7 n=59 v=0
32638 On ch=7 n=62 v=0
32638 On ch=7 n=67 v=0
32648 On ch=7 n=62 v=94
32648 On ch=7 n=66 v=94
32648 On ch=7 n=69 v=94
33406 On ch=7 n=62 v=0
33406 On ch=7 n=66 v=0
33406 On ch=7 n=69 v=0
34080 On ch=7 n=76 v=80
34128 On ch=7 n=81 v=73
34523 On ch=7 n=76 v=0
34526 On ch=7 n=81 v=0
38016 On ch=7 n=47 v=94
38016 On ch=7 n=54 v=86
38016 On ch=7 n=59 v=88
38016 On ch=7 n=62 v=92
38772 On ch=7 n=47 v=0
38772 On ch=7 n=54 v=0
38772 On ch=7 n=59 v=0
38772 On ch=7 n=62 v=0
38784 On ch=7 n=43 v=92
38784 On ch=7 n=55 v=84
38784 On ch=7 n=59 v=79
38784 On ch=7 n=62 v=84
39540 On ch=7 n=43 v=0
39540 On ch=7 n=55 v=0
39540 On ch=7 n=59 v=0
39540 On ch=7 n=62 v=0
39552 On ch=7 n=45 v=96
39552 On ch=7 n=57 v=92
39552 On ch=7 n=59 v=90
39552 On ch=7 n=61 v=79
39552 On ch=7 n=64 v=82
40308 On ch=7 n=45 v=0
40308 On ch=7 n=57 v=0
40308 On ch=7 n=59 v=0
40308 On ch=7 n=61 v=0
40308 On ch=7 n=64 v=0
40320 On ch=7 n=40 v=114
40320 On ch=7 n=55 v=86
40320 On ch=7 n=59 v=92
40320 On ch=7 n=62 v=94
41072 On ch=7 n=40 v=0
41072 On ch=7 n=55 v=0
41072 On ch=7 n=59 v=0
41072 On ch=7 n=62 v=0
41088 On ch=7 n=47 v=94
41088 On ch=7 n=54 v=86
41088 On ch=7 n=59 v=88
41088 On ch=7 n=62 v=92
41840 On ch=7 n=47 v=0
41840 On ch=7 n=54 v=0
41840 On ch=7 n=59 v=0
41840 On ch=7 n=62 v=0
41856 On ch=7 n=43 v=92
41856 On ch=7 n=55 v=84
41856 On ch=7 n=59 v=79
41856 On ch=7 n=62 v=84
42608 On ch=7 n=43 v=0
42608 On ch=7 n=55 v=0
42608 On ch=7 n=59 v=0
42608 On ch=7 n=62 v=0
42624 On ch=7 n=45 v=96
42624 On ch=7 n=57 v=92
42624 On ch=7 n=59 v=90
42624 On ch=7 n=61 v=79
42624 On ch=7 n=64 v=82
43376 On ch=7 n=45 v=0
43376 On ch=7 n=57 v=0
43376 On ch=7 n=59 v=0
43376 On ch=7 n=61 v=0
43376 On ch=7 n=64 v=0
43392 On ch=7 n=40 v=114
43392 On ch=7 n=55 v=86
43392 On ch=7 n=59 v=92
43392 On ch=7 n=62 v=94
44152 On ch=7 n=40 v=0
44152 On ch=7 n=55 v=0
44152 On ch=7 n=59 v=0
44152 On ch=7 n=62 v=0
44160 On ch=7 n=47 v=94
44160 On ch=7 n=54 v=86
44160 On ch=7 n=59 v=88
44160 On ch=7 n=62 v=92
44920 On ch=7 n=47 v=0
44920 On ch=7 n=54 v=0
44920 On ch=7 n=59 v=0
44920 On ch=7 n=62 v=0
44928 On ch=7 n=43 v=92
44928 On ch=7 n=55 v=84
44928 On ch=7 n=59 v=79
44928 On ch=7 n=62 v=84
45688 On ch=7 n=43 v=0
45688 On ch=7 n=55 v=0
45688 On ch=7 n=59 v=0
45688 On ch=7 n=62 v=0
45696 On ch=7 n=45 v=96
45696 On ch=7 n=57 v=92
45696 On ch=7 n=59 v=90
45696 On ch=7 n=61 v=79
45696 On ch=7 n=64 v=82
46456 On ch=7 n=45 v=0
46456 On ch=7 n=57 v=0
46456 On ch=7 n=59 v=0
46456 On ch=7 n=61 v=0
46456 On ch=7 n=64 v=0
46464 On ch=7 n=40 v=114
46464 On ch=7 n=55 v=86
46464 On ch=7 n=59 v=92
46464 On ch=7 n=62 v=94
47216 On ch=7 n=40 v=0
47216 On ch=7 n=55 v=0
47216 On ch=7 n=59 v=0
47216 On ch=7 n=62 v=0
47232 On ch=7 n=47 v=94
47232 On ch=7 n=54 v=86
47232 On ch=7 n=59 v=88
47232 On ch=7 n=62 v=92
47984 On ch=7 n=47 v=0
47984 On ch=7 n=54 v=0
47984 On ch=7 n=59 v=0
47984 On ch=7 n=62 v=0
48000 On ch=7 n=59 v=100
48000 On ch=7 n=64 v=86
48000 On ch=7 n=68 v=94
48752 On ch=7 n=59 v=0
48752 On ch=7 n=64 v=0
48752 On ch=7 n=68 v=0
48768 On ch=7 n=59 v=92
48771 On ch=7 n=55 v=86
48771 On ch=7 n=62 v=94
49521 On ch=7 n=62 v=0
49524 On ch=7 n=59 v=0
49527 On ch=7 n=55 v=0
49536 On ch=7 n=54 v=94
49536 On ch=7 n=59 v=94
49536 On ch=7 n=62 v=94
50294 On ch=7 n=54 v=0
50294 On ch=7 n=59 v=0
50294 On ch=7 n=62 v=0
50304 On ch=7 n=57 v=86
50304 On ch=7 n=62 v=86
50304 On ch=7 n=64 v=86
50684 On ch=7 n=62 v=0
50688 On ch=7 n=61 v=86
51064 On ch=7 n=61 v=0
51072 On ch=7 n=57 v=0
51072 On ch=7 n=64 v=0
51072 On ch=7 n=54 v=94
51072 On ch=7 n=59 v=94
51072 On ch=7 n=62 v=94
51830 On ch=7 n=54 v=0
51830 On ch=7 n=59 v=0
51830 On ch=7 n=62 v=0
51840 On ch=7 n=59 v=94
51840 On ch=7 n=62 v=94
52598 On ch=7 n=59 v=0
52598 On ch=7 n=62 v=0
52612 On ch=7 n=62 v=94
52616 On ch=7 n=57 v=94
53370 On ch=7 n=62 v=0
53374 On ch=7 n=57 v=0
54912 On ch=7 n=35 v=58
54912 On ch=7 n=54 v=58
54912 On ch=7 n=59 v=67
55668 On ch=7 n=35 v=0
55668 On ch=7 n=54 v=0
55668 On ch=7 n=59 v=0
55680 On ch=7 n=43 v=84
55680 On ch=7 n=50 v=64
55680 On ch=7 n=55 v=65
55680 On ch=7 n=58 v=69
56440 On ch=7 n=43 v=0
56440 On ch=7 n=50 v=0
56440 On ch=7 n=55 v=0
56440 On ch=7 n=58 v=0
59808 Par ch=7 c=123 v=0
59856 Par ch=7 c=120 v=0
59856 Meta TrkEnd
TrkEnd
MTrk
300 Par ch=8 c=121 v=0
302 Par ch=8 c=10 v=34
304 Par ch=8 c=93 v=33
306 Par ch=8 c=91 v=102
308 Par ch=8 c=11 v=127
310 Par ch=8 c=7 v=79
312 Pb ch=8 v=8192
316 Par ch=8 c=0 v=0
316 Par ch=8 c=32 v=0
316 PrCh ch=8 p=95
486 Par ch=8 c=99 v=1
486 Par ch=8 c=98 v=33
486 Par ch=8 c=6 v=70
486 Par ch=8 c=38 v=0
34752 On ch=8 n=50 v=90
34752 On ch=8 n=54 v=88
34752 On ch=8 n=59 v=103
34758 On ch=8 n=35 v=97
34758 On ch=8 n=47 v=100
35324 On ch=8 n=50 v=0
35324 On ch=8 n=54 v=0
35324 On ch=8 n=59 v=0
35328 On ch=8 n=49 v=78
35328 On ch=8 n=52 v=86
35328 On ch=8 n=57 v=97
35708 On ch=8 n=49 v=0
35708 On ch=8 n=52 v=0
35708 On ch=8 n=57 v=0
35712 On ch=8 n=50 v=86
35712 On ch=8 n=54 v=88
35712 On ch=8 n=59 v=97
36092 On ch=8 n=50 v=0
36092 On ch=8 n=54 v=0
36092 On ch=8 n=59 v=0
36096 On ch=8 n=49 v=86
36096 On ch=8 n=52 v=92
36096 On ch=8 n=57 v=100
36478 On ch=8 n=35 v=0
36478 On ch=8 n=47 v=0
36482 On ch=8 n=49 v=0
36482 On ch=8 n=52 v=0
36482 On ch=8 n=57 v=0
36486 On ch=8 n=55 v=76
36486 On ch=8 n=57 v=76
36486 On ch=8 n=59 v=76
36486 On ch=8 n=62 v=80
36488 On ch=8 n=47 v=88
37104 Par ch=8 c=7 v=68
37152 Par ch=8 c=7 v=64
37200 Par ch=8 c=7 v=60
37248 Par ch=8 c=7 v=56
37296 Par ch=8 c=7 v=52
37344 Par ch=8 c=7 v=48
37392 Par ch=8 c=7 v=44
37440 Par ch=8 c=7 v=40
37488 Par ch=8 c=7 v=36
37536 Par ch=8 c=7 v=32
37584 Par ch=8 c=7 v=28
37632 Par ch=8 c=7 v=24
37680 Par ch=8 c=7 v=20
37728 Par ch=8 c=7 v=16
37776 Par ch=8 c=7 v=12
37824 Par ch=8 c=7 v=8
37872 Par ch=8 c=7 v=4
38006 On ch=8 n=55 v=0
38006 On ch=8 n=57 v=0
38006 On ch=8 n=59 v=0
38006 On ch=8 n=62 v=0
38006 On ch=8 n=47 v=0
54346 Par ch=8 c=7 v=70
54912 On ch=8 n=35 v=94
54912 On ch=8 n=50 v=88
54912 On ch=8 n=54 v=88
54912 On ch=8 n=59 v=88
55676 On ch=8 n=35 v=0
55676 On ch=8 n=50 v=0
55676 On ch=8 n=54 v=0
55676 On ch=8 n=59 v=0
55680 On ch=8 n=43 v=92
55680 On ch=8 n=50 v=86
55680 On ch=8 n=55 v=90
55680 On ch=8 n=58 v=84
56449 On ch=8 n=43 v=0
56449 On ch=8 n=50 v=0
56449 On ch=8 n=55 v=0
56449 On ch=8 n=58 v=0
56452 On ch=8 n=40 v=97
56454 On ch=8 n=64 v=86
56456 On ch=8 n=59 v=80
56457 On ch=8 n=68 v=78
57552 Par ch=8 c=7 v=72
57600 Par ch=8 c=7 v=70
57648 Par ch=8 c=7 v=68
57696 Par ch=8 c=7 v=66
57744 Par ch=8 c=7 v=64
57792 Par ch=8 c=7 v=61
57840 Par ch=8 c=7 v=59
57888 Par ch=8 c=7 v=57
57936 Par ch=8 c=7 v=55
57984 Par ch=8 c=7 v=53
58032 Par ch=8 c=7 v=51
58080 Par ch=8 c=7 v=49
58128 Par ch=8 c=7 v=47
58176 Par ch=8 c=7 v=44
58224 Par ch=8 c=7 v=42
58272 Par ch=8 c=7 v=40
58320 Par ch=8 c=7 v=38
58368 Par ch=8 c=7 v=36
58416 Par ch=8 c=7 v=34
58464 Par ch=8 c=7 v=32
58512 Par ch=8 c=7 v=30
58560 Par ch=8 c=7 v=28
58608 Par ch=8 c=7 v=25
58656 Par ch=8 c=7 v=23
58704 Par ch=8 c=7 v=21
58752 Par ch=8 c=7 v=19
58800 Par ch=8 c=7 v=17
58848 Par ch=8 c=7 v=15
58896 Par ch=8 c=7 v=13
58944 Par ch=8 c=7 v=11
58992 Par ch=8 c=7 v=8
59040 Par ch=8 c=7 v=6
59088 Par ch=8 c=7 v=4
59127 On ch=8 n=59 v=0
59127 On ch=8 n=68 v=0
59132 On ch=8 n=40 v=0
59132 On ch=8 n=64 v=0
59136 Par ch=8 c=7 v=2
59808 Par ch=8 c=123 v=0
59856 Par ch=8 c=120 v=0
59856 Meta TrkEnd
TrkEnd
MTrk
318 Par ch=9 c=121 v=0
320 Par ch=9 c=10 v=73
322 Par ch=9 c=93 v=16
324 Par ch=9 c=91 v=105
326 Par ch=9 c=11 v=127
328 Par ch=9 c=7 v=117
330 Pb ch=9 v=8192
334 Par ch=9 c=0 v=0
334 Par ch=9 c=32 v=0
334 PrCh ch=9 p=1
1920 On ch=9 n=35 v=104
1920 On ch=9 n=47 v=104
1920 On ch=9 n=54 v=113
1920 On ch=9 n=59 v=113
1920 On ch=9 n=62 v=110
1995 On ch=9 n=62 v=0
1996 On ch=9 n=54 v=0
2007 On ch=9 n=59 v=0
2016 On ch=9 n=54 v=113
2016 On ch=9 n=59 v=104
2016 On ch=9 n=62 v=104
2053 On ch=9 n=62 v=0
2054 On ch=9 n=59 v=0
2064 On ch=9 n=61 v=116
2082 On ch=9 n=35 v=0
2082 On ch=9 n=47 v=0
2135 On ch=9 n=54 v=0
2141 On ch=9 n=61 v=0
2160 On ch=9 n=35 v=85
2160 On ch=9 n=47 v=85
2160 On ch=9 n=54 v=110
2160 On ch=9 n=59 v=125
2238 On ch=9 n=54 v=0
2241 On ch=9 n=59 v=0
2245 On ch=9 n=35 v=0
2245 On ch=9 n=47 v=0
2256 On ch=9 n=35 v=101
2256 On ch=9 n=47 v=101
2256 On ch=9 n=54 v=113
2256 On ch=9 n=59 v=122
2256 On ch=9 n=62 v=113
2504 On ch=9 n=35 v=0
2504 On ch=9 n=47 v=0
2544 On ch=9 n=35 v=97
2544 On ch=9 n=47 v=97
2560 On ch=9 n=54 v=0
2592 On ch=9 n=54 v=107
2624 On ch=9 n=59 v=0
2624 On ch=9 n=62 v=0
2638 On ch=9 n=35 v=0
2638 On ch=9 n=47 v=0
2640 On ch=9 n=62 v=106
2642 On ch=9 n=54 v=0
2672 On ch=9 n=62 v=0
2688 On ch=9 n=31 v=110
2688 On ch=9 n=43 v=119
2688 On ch=9 n=55 v=107
2688 On ch=9 n=59 v=107
2688 On ch=9 n=62 v=107
2754 On ch=9 n=55 v=0
2763 On ch=9 n=62 v=0
2766 On ch=9 n=59 v=0
2784 On ch=9 n=55 v=125
2784 On ch=9 n=59 v=116
2784 On ch=9 n=62 v=116
2818 On ch=9 n=59 v=0
2824 On ch=9 n=55 v=0
2831 On ch=9 n=62 v=0
2832 On ch=9 n=55 v=99
2832 On ch=9 n=59 v=63
2832 On ch=9 n=61 v=125
2867 On ch=9 n=43 v=0
2907 On ch=9 n=59 v=0
2908 On ch=9 n=55 v=0
2913 On ch=9 n=31 v=0
2914 On ch=9 n=61 v=0
2928 On ch=9 n=31 v=101
2928 On ch=9 n=43 v=89
2928 On ch=9 n=55 v=104
2928 On ch=9 n=59 v=113
3000 On ch=9 n=31 v=0
3000 On ch=9 n=43 v=0
3001 On ch=9 n=59 v=0
3002 On ch=9 n=55 v=0
3024 On ch=9 n=31 v=116
3024 On ch=9 n=43 v=97
3024 On ch=9 n=55 v=107
3024 On ch=9 n=59 v=113
3270 On ch=9 n=55 v=0
3294 On ch=9 n=59 v=0
3312 On ch=9 n=55 v=95
3360 On ch=9 n=59 v=97
3408 On ch=9 n=62 v=89
3432 On ch=9 n=55 v=0
3434 On ch=9 n=31 v=0
3434 On ch=9 n=59 v=0
3440 On ch=9 n=43 v=0
3452 On ch=9 n=62 v=0
3456 On ch=9 n=33 v=116
3456 On ch=9 n=45 v=104
3456 On ch=9 n=52 v=107
3456 On ch=9 n=57 v=113
3456 On ch=9 n=61 v=119
3516 On ch=9 n=61 v=0
3520 On ch=9 n=52 v=0
3524 On ch=9 n=57 v=0
3552 On ch=9 n=52 v=97
3552 On ch=9 n=57 v=104
3552 On ch=9 n=61 v=99
3594 On ch=9 n=61 v=0
3597 On ch=9 n=57 v=0
3600 On ch=9 n=59 v=125
3683 On ch=9 n=52 v=0
3684 On ch=9 n=59 v=0
3688 On ch=9 n=33 v=0
3696 On ch=9 n=33 v=95
3696 On ch=9 n=52 v=104
3696 On ch=9 n=57 v=119
3732 On ch=9 n=45 v=0
3767 On ch=9 n=33 v=0
3770 On ch=9 n=52 v=0
3774 On ch=9 n=57 v=0
3792 On ch=9 n=33 v=107
3792 On ch=9 n=45 v=97
3792 On ch=9 n=52 v=107
3792 On ch=9 n=57 v=116
3792 On ch=9 n=61 v=119
4056 On ch=9 n=57 v=0
4080 On ch=9 n=59 v=104
4084 On ch=9 n=61 v=0
4124 On ch=9 n=59 v=0
4128 On ch=9 n=61 v=97
4172 On ch=9 n=61 v=0
4176 On ch=9 n=59 v=104
4188 On ch=9 n=33 v=0
4192 On ch=9 n=52 v=0
4193 On ch=9 n=45 v=0
4212 On ch=9 n=59 v=0
4224 On ch=9 n=31 v=116
4224 On ch=9 n=55 v=107
4224 On ch=9 n=59 v=116
4224 On ch=9 n=62 v=107
4272 On ch=9 n=43 v=119
4283 On ch=9 n=55 v=0
4283 On ch=9 n=62 v=0
4288 On ch=9 n=59 v=0
4320 On ch=9 n=55 v=110
4320 On ch=9 n=59 v=119
4320 On ch=9 n=62 v=107
4322 On ch=9 n=43 v=0
4368 On ch=9 n=61 v=107
4369 On ch=9 n=59 v=0
4382 On ch=9 n=62 v=0
4451 On ch=9 n=55 v=0
4464 On ch=9 n=61 v=0
4464 On ch=9 n=43 v=122
4464 On ch=9 n=55 v=110
4464 On ch=9 n=59 v=110
4526 On ch=9 n=43 v=0
4535 On ch=9 n=59 v=0
4536 On ch=9 n=55 v=0
4560 On ch=9 n=43 v=119
4560 On ch=9 n=55 v=107
4560 On ch=9 n=59 v=119
4806 On ch=9 n=55 v=0
4838 On ch=9 n=59 v=0
4848 On ch=9 n=54 v=83
4896 On ch=9 n=59 v=93
4959 On ch=9 n=54 v=0
4960 On ch=9 n=31 v=0
4974 On ch=9 n=59 v=0
4975 On ch=9 n=43 v=0
4992 On ch=9 n=35 v=116
4992 On ch=9 n=54 v=113
4992 On ch=9 n=59 v=113
4992 On ch=9 n=62 v=110
5040 On ch=9 n=47 v=104
5067 On ch=9 n=62 v=0
5068 On ch=9 n=54 v=0
5079 On ch=9 n=59 v=0
5088 On ch=9 n=54 v=113
5088 On ch=9 n=59 v=104
5088 On ch=9 n=62 v=104
5125 On ch=9 n=62 v=0
5126 On ch=9 n=59 v=0
5136 On ch=9 n=61 v=116
5202 On ch=9 n=47 v=0
5207 On ch=9 n=54 v=0
5213 On ch=9 n=35 v=0
5213 On ch=9 n=61 v=0
5232 On ch=9 n=35 v=101
5232 On ch=9 n=47 v=85
5232 On ch=9 n=54 v=110
5232 On ch=9 n=59 v=125
5310 On ch=9 n=54 v=0
5313 On ch=9 n=59 v=0
5314 On ch=9 n=35 v=0
5317 On ch=9 n=47 v=0
5328 On ch=9 n=35 v=107
5328 On ch=9 n=47 v=101
5328 On ch=9 n=54 v=113
5328 On ch=9 n=59 v=122
5328 On ch=9 n=62 v=113
5576 On ch=9 n=47 v=0
5616 On ch=9 n=47 v=97
5632 On ch=9 n=54 v=0
5664 On ch=9 n=54 v=107
5696 On ch=9 n=59 v=0
5696 On ch=9 n=62 v=0
5710 On ch=9 n=47 v=0
5712 On ch=9 n=62 v=106
5714 On ch=9 n=35 v=0
5714 On ch=9 n=54 v=0
5744 On ch=9 n=62 v=0
5760 On ch=9 n=31 v=110
5760 On ch=9 n=55 v=107
5760 On ch=9 n=59 v=107
5760 On ch=9 n=62 v=107
5808 On ch=9 n=43 v=119
5826 On ch=9 n=55 v=0
5835 On ch=9 n=62 v=0
5838 On ch=9 n=59 v=0
5856 On ch=9 n=55 v=125
5856 On ch=9 n=59 v=116
5856 On ch=9 n=62 v=116
5894 On ch=9 n=59 v=0
5896 On ch=9 n=55 v=0
5903 On ch=9 n=62 v=0
5904 On ch=9 n=55 v=99
5904 On ch=9 n=59 v=63
5904 On ch=9 n=61 v=125
5979 On ch=9 n=59 v=0
5980 On ch=9 n=55 v=0
5985 On ch=9 n=31 v=0
5986 On ch=9 n=61 v=0
5987 On ch=9 n=43 v=0
6000 On ch=9 n=31 v=101
6000 On ch=9 n=43 v=89
6000 On ch=9 n=55 v=104
6000 On ch=9 n=59 v=113
6072 On ch=9 n=31 v=0
6072 On ch=9 n=43 v=0
6073 On ch=9 n=59 v=0
6074 On ch=9 n=55 v=0
6096 On ch=9 n=31 v=116
6096 On ch=9 n=43 v=97
6096 On ch=9 n=55 v=107
6096 On ch=9 n=59 v=113
6342 On ch=9 n=55 v=0
6366 On ch=9 n=59 v=0
6384 On ch=9 n=55 v=95
6432 On ch=9 n=59 v=97
6480 On ch=9 n=62 v=89
6504 On ch=9 n=55 v=0
6506 On ch=9 n=31 v=0
6506 On ch=9 n=59 v=0
6512 On ch=9 n=43 v=0
6524 On ch=9 n=62 v=0
6528 On ch=9 n=33 v=116
6528 On ch=9 n=52 v=107
6528 On ch=9 n=57 v=113
6528 On ch=9 n=61 v=119
6576 On ch=9 n=45 v=104
6588 On ch=9 n=61 v=0
6592 On ch=9 n=52 v=0
6596 On ch=9 n=57 v=0
6624 On ch=9 n=52 v=97
6624 On ch=9 n=57 v=104
6624 On ch=9 n=61 v=99
6666 On ch=9 n=61 v=0
6669 On ch=9 n=57 v=0
6672 On ch=9 n=59 v=125
6755 On ch=9 n=52 v=0
6756 On ch=9 n=59 v=0
6760 On ch=9 n=33 v=0
6768 On ch=9 n=33 v=95
6768 On ch=9 n=52 v=104
6768 On ch=9 n=57 v=119
6839 On ch=9 n=33 v=0
6842 On ch=9 n=52 v=0
6846 On ch=9 n=57 v=0
6852 On ch=9 n=45 v=0
6864 On ch=9 n=33 v=107
6864 On ch=9 n=45 v=97
6864 On ch=9 n=52 v=107
6864 On ch=9 n=57 v=116
6864 On ch=9 n=61 v=119
7128 On ch=9 n=57 v=0
7152 On ch=9 n=59 v=104
7156 On ch=9 n=61 v=0
7196 On ch=9 n=59 v=0
7200 On ch=9 n=61 v=97
7244 On ch=9 n=61 v=0
7248 On ch=9 n=59 v=104
7260 On ch=9 n=33 v=0
7264 On ch=9 n=52 v=0
7265 On ch=9 n=45 v=0
7284 On ch=9 n=59 v=0
7296 On ch=9 n=31 v=116
7296 On ch=9 n=55 v=107
7296 On ch=9 n=59 v=116
7296 On ch=9 n=62 v=107
7344 On ch=9 n=43 v=119
7355 On ch=9 n=55 v=0
7355 On ch=9 n=62 v=0
7360 On ch=9 n=59 v=0
7392 On ch=9 n=55 v=110
7392 On ch=9 n=59 v=119
7392 On ch=9 n=62 v=107
7394 On ch=9 n=43 v=0
7440 On ch=9 n=61 v=107
7441 On ch=9 n=59 v=0
7454 On ch=9 n=62 v=0
7523 On ch=9 n=55 v=0
7536 On ch=9 n=61 v=0
7536 On ch=9 n=43 v=122
7536 On ch=9 n=55 v=110
7536 On ch=9 n=59 v=110
7598 On ch=9 n=43 v=0
7607 On ch=9 n=59 v=0
7608 On ch=9 n=55 v=0
7632 On ch=9 n=43 v=119
7632 On ch=9 n=55 v=107
7632 On ch=9 n=59 v=119
7974 On ch=9 n=55 v=0
8006 On ch=9 n=59 v=0
8032 On ch=9 n=31 v=0
8047 On ch=9 n=43 v=0
14208 On ch=9 n=47 v=104
14208 On ch=9 n=54 v=113
14208 On ch=9 n=59 v=113
14208 On ch=9 n=62 v=110
14283 On ch=9 n=62 v=0
14284 On ch=9 n=54 v=0
14295 On ch=9 n=59 v=0
14304 On ch=9 n=54 v=113
14304 On ch=9 n=59 v=104
14304 On ch=9 n=62 v=104
14341 On ch=9 n=62 v=0
14342 On ch=9 n=59 v=0
14352 On ch=9 n=61 v=116
14370 On ch=9 n=47 v=0
14423 On ch=9 n=54 v=0
14429 On ch=9 n=61 v=0
14448 On ch=9 n=47 v=85
14448 On ch=9 n=54 v=110
14448 On ch=9 n=59 v=125
14526 On ch=9 n=54 v=0
14529 On ch=9 n=59 v=0
14533 On ch=9 n=47 v=0
14544 On ch=9 n=47 v=101
14544 On ch=9 n=54 v=113
14544 On ch=9 n=59 v=122
14544 On ch=9 n=62 v=113
14792 On ch=9 n=47 v=0
14832 On ch=9 n=47 v=97
14848 On ch=9 n=54 v=0
14880 On ch=9 n=54 v=107
14912 On ch=9 n=59 v=0
14912 On ch=9 n=62 v=0
14926 On ch=9 n=47 v=0
14928 On ch=9 n=62 v=106
14930 On ch=9 n=54 v=0
14960 On ch=9 n=62 v=0
14976 On ch=9 n=43 v=119
14976 On ch=9 n=55 v=107
14976 On ch=9 n=59 v=107
14976 On ch=9 n=62 v=107
15042 On ch=9 n=55 v=0
15051 On ch=9 n=62 v=0
15054 On ch=9 n=59 v=0
15072 On ch=9 n=55 v=125
15072 On ch=9 n=59 v=116
15072 On ch=9 n=62 v=116
15106 On ch=9 n=59 v=0
15112 On ch=9 n=55 v=0
15119 On ch=9 n=62 v=0
15120 On ch=9 n=55 v=99
15120 On ch=9 n=59 v=63
15120 On ch=9 n=61 v=125
15155 On ch=9 n=43 v=0
15196 On ch=9 n=55 v=0
15199 On ch=9 n=59 v=0
15202 On ch=9 n=61 v=0
15216 On ch=9 n=43 v=89
15216 On ch=9 n=55 v=104
15216 On ch=9 n=59 v=113
15288 On ch=9 n=43 v=0
15289 On ch=9 n=59 v=0
15290 On ch=9 n=55 v=0
15312 On ch=9 n=43 v=97
15312 On ch=9 n=55 v=107
15312 On ch=9 n=59 v=113
15558 On ch=9 n=55 v=0
15582 On ch=9 n=59 v=0
15600 On ch=9 n=55 v=95
15648 On ch=9 n=59 v=97
15696 On ch=9 n=62 v=89
15720 On ch=9 n=55 v=0
15722 On ch=9 n=59 v=0
15728 On ch=9 n=43 v=0
15740 On ch=9 n=62 v=0
15744 On ch=9 n=45 v=104
15744 On ch=9 n=52 v=107
15744 On ch=9 n=57 v=113
15744 On ch=9 n=61 v=119
15804 On ch=9 n=61 v=0
15808 On ch=9 n=52 v=0
15812 On ch=9 n=57 v=0
15840 On ch=9 n=52 v=97
15840 On ch=9 n=57 v=104
15840 On ch=9 n=61 v=99
15882 On ch=9 n=61 v=0
15885 On ch=9 n=57 v=0
15888 On ch=9 n=59 v=125
15971 On ch=9 n=52 v=0
15972 On ch=9 n=59 v=0
15984 On ch=9 n=52 v=104
15984 On ch=9 n=57 v=119
16020 On ch=9 n=45 v=0
16058 On ch=9 n=52 v=0
16062 On ch=9 n=57 v=0
16080 On ch=9 n=45 v=97
16080 On ch=9 n=52 v=107
16080 On ch=9 n=57 v=116
16080 On ch=9 n=61 v=119
16344 On ch=9 n=57 v=0
16368 On ch=9 n=59 v=102
16372 On ch=9 n=61 v=0
16412 On ch=9 n=59 v=0
16416 On ch=9 n=61 v=97
16460 On ch=9 n=61 v=0
16464 On ch=9 n=59 v=102
16480 On ch=9 n=52 v=0
16481 On ch=9 n=45 v=0
16496 On ch=9 n=59 v=0
16512 On ch=9 n=40 v=119
16512 On ch=9 n=55 v=107
16512 On ch=9 n=59 v=116
16512 On ch=9 n=62 v=107
16571 On ch=9 n=55 v=0
16571 On ch=9 n=62 v=0
16576 On ch=9 n=59 v=0
16608 On ch=9 n=55 v=110
16608 On ch=9 n=59 v=119
16608 On ch=9 n=62 v=107
16656 On ch=9 n=61 v=107
16657 On ch=9 n=59 v=0
16670 On ch=9 n=62 v=0
16706 On ch=9 n=40 v=0
16739 On ch=9 n=55 v=0
16752 On ch=9 n=61 v=0
16752 On ch=9 n=40 v=122
16752 On ch=9 n=55 v=110
16752 On ch=9 n=59 v=110
16814 On ch=9 n=40 v=0
16823 On ch=9 n=59 v=0
16824 On ch=9 n=55 v=0
16848 On ch=9 n=40 v=119
16848 On ch=9 n=55 v=107
16848 On ch=9 n=59 v=119
17094 On ch=9 n=55 v=0
17126 On ch=9 n=59 v=0
17136 On ch=9 n=54 v=83
17184 On ch=9 n=59 v=93
17247 On ch=9 n=54 v=0
17262 On ch=9 n=59 v=0
17263 On ch=9 n=40 v=0
17280 On ch=9 n=47 v=104
17280 On ch=9 n=54 v=113
17280 On ch=9 n=59 v=113
17280 On ch=9 n=62 v=110
17355 On ch=9 n=62 v=0
17356 On ch=9 n=54 v=0
17367 On ch=9 n=59 v=0
17376 On ch=9 n=54 v=113
17376 On ch=9 n=59 v=104
17376 On ch=9 n=62 v=104
17413 On ch=9 n=62 v=0
17414 On ch=9 n=59 v=0
17424 On ch=9 n=61 v=116
17442 On ch=9 n=47 v=0
17495 On ch=9 n=54 v=0
17501 On ch=9 n=61 v=0
17520 On ch=9 n=47 v=85
17520 On ch=9 n=54 v=110
17520 On ch=9 n=59 v=125
17598 On ch=9 n=54 v=0
17601 On ch=9 n=59 v=0
17605 On ch=9 n=47 v=0
17616 On ch=9 n=47 v=101
17616 On ch=9 n=54 v=113
17616 On ch=9 n=59 v=122
17616 On ch=9 n=62 v=113
17864 On ch=9 n=47 v=0
17904 On ch=9 n=47 v=97
17920 On ch=9 n=54 v=0
17952 On ch=9 n=54 v=107
17984 On ch=9 n=59 v=0
17984 On ch=9 n=62 v=0
17998 On ch=9 n=47 v=0
18000 On ch=9 n=62 v=106
18002 On ch=9 n=54 v=0
18032 On ch=9 n=62 v=0
18048 On ch=9 n=43 v=119
18048 On ch=9 n=55 v=107
18048 On ch=9 n=59 v=107
18048 On ch=9 n=62 v=107
18114 On ch=9 n=55 v=0
18123 On ch=9 n=62 v=0
18126 On ch=9 n=59 v=0
18144 On ch=9 n=55 v=125
18144 On ch=9 n=59 v=116
18144 On ch=9 n=62 v=116
18182 On ch=9 n=59 v=0
18184 On ch=9 n=55 v=0
18191 On ch=9 n=62 v=0
18192 On ch=9 n=55 v=99
18192 On ch=9 n=59 v=63
18192 On ch=9 n=61 v=125
18227 On ch=9 n=43 v=0
18259 On ch=9 n=59 v=0
18268 On ch=9 n=55 v=0
18274 On ch=9 n=61 v=0
18288 On ch=9 n=43 v=89
18288 On ch=9 n=55 v=104
18288 On ch=9 n=59 v=113
18360 On ch=9 n=43 v=0
18361 On ch=9 n=59 v=0
18362 On ch=9 n=55 v=0
18384 On ch=9 n=43 v=97
18384 On ch=9 n=55 v=107
18384 On ch=9 n=59 v=113
18630 On ch=9 n=55 v=0
18654 On ch=9 n=59 v=0
18672 On ch=9 n=55 v=95
18720 On ch=9 n=59 v=97
18768 On ch=9 n=62 v=89
18792 On ch=9 n=55 v=0
18794 On ch=9 n=59 v=0
18800 On ch=9 n=43 v=0
18812 On ch=9 n=62 v=0
18816 On ch=9 n=45 v=104
18816 On ch=9 n=52 v=107
18816 On ch=9 n=57 v=113
18816 On ch=9 n=61 v=119
18876 On ch=9 n=61 v=0
18880 On ch=9 n=52 v=0
18884 On ch=9 n=57 v=0
18912 On ch=9 n=52 v=97
18912 On ch=9 n=57 v=104
18912 On ch=9 n=61 v=99
18954 On ch=9 n=61 v=0
18957 On ch=9 n=57 v=0
18960 On ch=9 n=59 v=125
19043 On ch=9 n=52 v=0
19044 On ch=9 n=59 v=0
19056 On ch=9 n=52 v=104
19056 On ch=9 n=57 v=119
19092 On ch=9 n=45 v=0
19130 On ch=9 n=52 v=0
19134 On ch=9 n=57 v=0
19152 On ch=9 n=45 v=97
19152 On ch=9 n=52 v=107
19152 On ch=9 n=57 v=116
19152 On ch=9 n=61 v=119
19416 On ch=9 n=57 v=0
19440 On ch=9 n=59 v=107
19444 On ch=9 n=61 v=0
19484 On ch=9 n=59 v=0
19488 On ch=9 n=61 v=97
19532 On ch=9 n=61 v=0
19536 On ch=9 n=59 v=107
19552 On ch=9 n=52 v=0
19553 On ch=9 n=45 v=0
19572 On ch=9 n=59 v=0
19584 On ch=9 n=40 v=119
19584 On ch=9 n=55 v=107
19584 On ch=9 n=59 v=116
19584 On ch=9 n=62 v=107
19643 On ch=9 n=55 v=0
19643 On ch=9 n=62 v=0
19648 On ch=9 n=59 v=0
19680 On ch=9 n=55 v=110
19680 On ch=9 n=59 v=119
19680 On ch=9 n=62 v=107
19728 On ch=9 n=61 v=107
19729 On ch=9 n=59 v=0
19742 On ch=9 n=62 v=0
19778 On ch=9 n=40 v=0
19811 On ch=9 n=55 v=0
19824 On ch=9 n=61 v=0
19824 On ch=9 n=40 v=122
19824 On ch=9 n=55 v=110
19824 On ch=9 n=59 v=110
19886 On ch=9 n=40 v=0
19895 On ch=9 n=59 v=0
19896 On ch=9 n=55 v=0
19920 On ch=9 n=40 v=119
19920 On ch=9 n=55 v=107
19920 On ch=9 n=59 v=119
20166 On ch=9 n=55 v=0
20198 On ch=9 n=59 v=0
20208 On ch=9 n=54 v=83
20256 On ch=9 n=59 v=93
20319 On ch=9 n=54 v=0
20334 On ch=9 n=59 v=0
20335 On ch=9 n=40 v=0
20352 On ch=9 n=47 v=104
20352 On ch=9 n=54 v=113
20352 On ch=9 n=59 v=113
20352 On ch=9 n=62 v=110
20427 On ch=9 n=62 v=0
20428 On ch=9 n=54 v=0
20439 On ch=9 n=59 v=0
20448 On ch=9 n=54 v=113
20448 On ch=9 n=59 v=104
20448 On ch=9 n=62 v=104
20485 On ch=9 n=62 v=0
20486 On ch=9 n=59 v=0
20496 On ch=9 n=61 v=116
20514 On ch=9 n=47 v=0
20567 On ch=9 n=54 v=0
20573 On ch=9 n=61 v=0
20592 On ch=9 n=47 v=85
20592 On ch=9 n=54 v=110
20592 On ch=9 n=59 v=125
20670 On ch=9 n=54 v=0
20673 On ch=9 n=59 v=0
20677 On ch=9 n=47 v=0
20688 On ch=9 n=47 v=101
20688 On ch=9 n=54 v=113
20688 On ch=9 n=59 v=122
20688 On ch=9 n=62 v=113
20936 On ch=9 n=47 v=0
20976 On ch=9 n=47 v=97
20992 On ch=9 n=54 v=0
21024 On ch=9 n=54 v=107
21056 On ch=9 n=59 v=0
21056 On ch=9 n=62 v=0
21070 On ch=9 n=47 v=0
21072 On ch=9 n=62 v=106
21074 On ch=9 n=54 v=0
21104 On ch=9 n=62 v=0
21120 On ch=9 n=43 v=119
21120 On ch=9 n=55 v=107
21120 On ch=9 n=59 v=107
21120 On ch=9 n=62 v=107
21186 On ch=9 n=55 v=0
21195 On ch=9 n=62 v=0
21198 On ch=9 n=59 v=0
21216 On ch=9 n=55 v=125
21216 On ch=9 n=59 v=116
21216 On ch=9 n=62 v=116
21254 On ch=9 n=59 v=0
21256 On ch=9 n=55 v=0
21263 On ch=9 n=62 v=0
21264 On ch=9 n=55 v=99
21264 On ch=9 n=59 v=63
21264 On ch=9 n=61 v=125
21299 On ch=9 n=43 v=0
21339 On ch=9 n=59 v=0
21340 On ch=9 n=55 v=0
21346 On ch=9 n=61 v=0
21360 On ch=9 n=43 v=89
21360 On ch=9 n=55 v=104
21360 On ch=9 n=59 v=113
21432 On ch=9 n=43 v=0
21433 On ch=9 n=59 v=0
21434 On ch=9 n=55 v=0
21456 On ch=9 n=43 v=97
21456 On ch=9 n=55 v=107
21456 On ch=9 n=59 v=113
21702 On ch=9 n=55 v=0
21726 On ch=9 n=59 v=0
21744 On ch=9 n=55 v=95
21792 On ch=9 n=59 v=97
21840 On ch=9 n=62 v=89
21864 On ch=9 n=55 v=0
21866 On ch=9 n=59 v=0
21872 On ch=9 n=43 v=0
21884 On ch=9 n=62 v=0
21888 On ch=9 n=45 v=104
21888 On ch=9 n=52 v=107
21888 On ch=9 n=57 v=113
21888 On ch=9 n=61 v=119
21948 On ch=9 n=61 v=0
21952 On ch=9 n=52 v=0
21956 On ch=9 n=57 v=0
21984 On ch=9 n=52 v=97
21984 On ch=9 n=57 v=104
21984 On ch=9 n=61 v=99
22026 On ch=9 n=61 v=0
22029 On ch=9 n=57 v=0
22032 On ch=9 n=59 v=125
22115 On ch=9 n=52 v=0
22116 On ch=9 n=59 v=0
22128 On ch=9 n=52 v=104
22128 On ch=9 n=57 v=119
22164 On ch=9 n=45 v=0
22202 On ch=9 n=52 v=0
22206 On ch=9 n=57 v=0
22224 On ch=9 n=45 v=97
22224 On ch=9 n=52 v=107
22224 On ch=9 n=57 v=116
22224 On ch=9 n=61 v=119
22488 On ch=9 n=57 v=0
22512 On ch=9 n=59 v=106
22516 On ch=9 n=61 v=0
22556 On ch=9 n=59 v=0
22560 On ch=9 n=61 v=97
22604 On ch=9 n=61 v=0
22608 On ch=9 n=59 v=106
22624 On ch=9 n=52 v=0
22625 On ch=9 n=45 v=0
22640 On ch=9 n=59 v=0
22656 On ch=9 n=40 v=119
22656 On ch=9 n=55 v=107
22656 On ch=9 n=59 v=116
22656 On ch=9 n=62 v=107
22715 On ch=9 n=55 v=0
22715 On ch=9 n=62 v=0
22720 On ch=9 n=59 v=0
22752 On ch=9 n=55 v=110
22752 On ch=9 n=59 v=119
22752 On ch=9 n=62 v=107
22800 On ch=9 n=61 v=107
22801 On ch=9 n=59 v=0
22814 On ch=9 n=62 v=0
22850 On ch=9 n=40 v=0
22883 On ch=9 n=55 v=0
22896 On ch=9 n=61 v=0
22896 On ch=9 n=40 v=122
22896 On ch=9 n=55 v=110
22896 On ch=9 n=59 v=110
22958 On ch=9 n=40 v=0
22967 On ch=9 n=59 v=0
22968 On ch=9 n=55 v=0
22992 On ch=9 n=40 v=119
22992 On ch=9 n=55 v=107
22992 On ch=9 n=59 v=119
23238 On ch=9 n=55 v=0
23270 On ch=9 n=59 v=0
23280 On ch=9 n=54 v=83
23328 On ch=9 n=59 v=93
23391 On ch=9 n=54 v=0
23406 On ch=9 n=59 v=0
23407 On ch=9 n=40 v=0
23424 On ch=9 n=47 v=104
23424 On ch=9 n=54 v=113
23424 On ch=9 n=59 v=113
23424 On ch=9 n=62 v=110
23499 On ch=9 n=62 v=0
23500 On ch=9 n=54 v=0
23511 On ch=9 n=59 v=0
23520 On ch=9 n=54 v=113
23520 On ch=9 n=59 v=104
23520 On ch=9 n=62 v=104
23557 On ch=9 n=62 v=0
23558 On ch=9 n=59 v=0
23568 On ch=9 n=61 v=116
23586 On ch=9 n=47 v=0
23639 On ch=9 n=54 v=0
23645 On ch=9 n=61 v=0
23664 On ch=9 n=47 v=85
23664 On ch=9 n=54 v=110
23664 On ch=9 n=59 v=125
23742 On ch=9 n=54 v=0
23745 On ch=9 n=59 v=0
23749 On ch=9 n=47 v=0
23760 On ch=9 n=47 v=101
23760 On ch=9 n=54 v=113
23760 On ch=9 n=59 v=122
23760 On ch=9 n=62 v=113
24008 On ch=9 n=47 v=0
24048 On ch=9 n=47 v=97
24064 On ch=9 n=54 v=0
24096 On ch=9 n=54 v=107
24128 On ch=9 n=59 v=0
24128 On ch=9 n=62 v=0
24142 On ch=9 n=47 v=0
24144 On ch=9 n=62 v=106
24146 On ch=9 n=54 v=0
24176 On ch=9 n=62 v=0
24192 On ch=9 n=43 v=119
24192 On ch=9 n=55 v=107
24192 On ch=9 n=59 v=107
24192 On ch=9 n=62 v=107
24258 On ch=9 n=55 v=0
24267 On ch=9 n=62 v=0
24270 On ch=9 n=59 v=0
24288 On ch=9 n=55 v=125
24288 On ch=9 n=59 v=116
24288 On ch=9 n=62 v=116
24326 On ch=9 n=59 v=0
24328 On ch=9 n=55 v=0
24335 On ch=9 n=62 v=0
24336 On ch=9 n=55 v=99
24336 On ch=9 n=59 v=63
24336 On ch=9 n=61 v=125
24371 On ch=9 n=43 v=0
24411 On ch=9 n=59 v=0
24412 On ch=9 n=55 v=0
24418 On ch=9 n=61 v=0
24432 On ch=9 n=43 v=89
24432 On ch=9 n=55 v=104
24432 On ch=9 n=59 v=113
24504 On ch=9 n=43 v=0
24505 On ch=9 n=59 v=0
24506 On ch=9 n=55 v=0
24528 On ch=9 n=43 v=97
24528 On ch=9 n=55 v=107
24528 On ch=9 n=59 v=113
24774 On ch=9 n=55 v=0
24798 On ch=9 n=59 v=0
24816 On ch=9 n=55 v=95
24864 On ch=9 n=59 v=97
24912 On ch=9 n=62 v=89
24936 On ch=9 n=55 v=0
24938 On ch=9 n=59 v=0
24944 On ch=9 n=43 v=0
24956 On ch=9 n=62 v=0
24960 On ch=9 n=45 v=104
24960 On ch=9 n=52 v=107
24960 On ch=9 n=57 v=113
24960 On ch=9 n=61 v=119
25020 On ch=9 n=61 v=0
25024 On ch=9 n=52 v=0
25028 On ch=9 n=57 v=0
25056 On ch=9 n=52 v=97
25056 On ch=9 n=57 v=104
25056 On ch=9 n=61 v=99
25098 On ch=9 n=61 v=0
25101 On ch=9 n=57 v=0
25104 On ch=9 n=59 v=125
25187 On ch=9 n=52 v=0
25188 On ch=9 n=59 v=0
25200 On ch=9 n=52 v=104
25200 On ch=9 n=57 v=119
25236 On ch=9 n=45 v=0
25274 On ch=9 n=52 v=0
25278 On ch=9 n=57 v=0
25296 On ch=9 n=45 v=97
25296 On ch=9 n=52 v=107
25296 On ch=9 n=57 v=116
25296 On ch=9 n=61 v=119
25560 On ch=9 n=57 v=0
25584 On ch=9 n=59 v=102
25588 On ch=9 n=61 v=0
25628 On ch=9 n=59 v=0
25632 On ch=9 n=61 v=97
25676 On ch=9 n=61 v=0
25680 On ch=9 n=59 v=102
25696 On ch=9 n=52 v=0
25697 On ch=9 n=45 v=0
25716 On ch=9 n=59 v=0
25728 On ch=9 n=40 v=119
25728 On ch=9 n=55 v=107
25728 On ch=9 n=59 v=116
25728 On ch=9 n=62 v=107
25787 On ch=9 n=55 v=0
25787 On ch=9 n=62 v=0
25792 On ch=9 n=59 v=0
25824 On ch=9 n=55 v=110
25824 On ch=9 n=59 v=119
25824 On ch=9 n=62 v=107
25872 On ch=9 n=61 v=107
25873 On ch=9 n=59 v=0
25886 On ch=9 n=62 v=0
25922 On ch=9 n=40 v=0
25955 On ch=9 n=55 v=0
25968 On ch=9 n=61 v=0
25968 On ch=9 n=40 v=122
25968 On ch=9 n=55 v=110
25968 On ch=9 n=59 v=110
26030 On ch=9 n=40 v=0
26039 On ch=9 n=59 v=0
26040 On ch=9 n=55 v=0
26064 On ch=9 n=40 v=119
26064 On ch=9 n=55 v=107
26064 On ch=9 n=59 v=119
26310 On ch=9 n=55 v=0
26342 On ch=9 n=59 v=0
26352 On ch=9 n=54 v=83
26400 On ch=9 n=59 v=93
26463 On ch=9 n=54 v=0
26478 On ch=9 n=59 v=0
26479 On ch=9 n=40 v=0
26496 On ch=9 n=35 v=116
26496 On ch=9 n=47 v=122
26496 On ch=9 n=54 v=125
26496 On ch=9 n=62 v=116
27232 On ch=9 n=35 v=0
27232 On ch=9 n=47 v=0
27232 On ch=9 n=54 v=0
27232 On ch=9 n=62 v=0
27264 On ch=9 n=31 v=122
27264 On ch=9 n=43 v=127
27264 On ch=9 n=55 v=122
27264 On ch=9 n=58 v=127
27264 On ch=9 n=62 v=122
28000 On ch=9 n=31 v=0
28000 On ch=9 n=43 v=0
28000 On ch=9 n=55 v=0
28000 On ch=9 n=58 v=0
28000 On ch=9 n=62 v=0
28032 On ch=9 n=28 v=119
28032 On ch=9 n=40 v=122
28032 On ch=9 n=59 v=119
28032 On ch=9 n=64 v=122
28032 On ch=9 n=68 v=122
28768 On ch=9 n=28 v=0
28768 On ch=9 n=40 v=0
28768 On ch=9 n=59 v=0
28768 On ch=9 n=64 v=0
28768 On ch=9 n=68 v=0
28800 On ch=9 n=28 v=116
28800 On ch=9 n=40 v=127
28800 On ch=9 n=59 v=122
28800 On ch=9 n=64 v=127
28800 On ch=9 n=67 v=116
29478 On ch=9 n=64 v=0
29483 On ch=9 n=67 v=0
29487 On ch=9 n=28 v=0
29496 On ch=9 n=59 v=0
29500 On ch=9 n=40 v=0
29568 On ch=9 n=35 v=127
29568 On ch=9 n=59 v=119
29568 On ch=9 n=62 v=119
29568 On ch=9 n=66 v=113
30266 On ch=9 n=62 v=0
30274 On ch=9 n=66 v=0
30278 On ch=9 n=35 v=0
30280 On ch=9 n=59 v=0
30336 On ch=9 n=33 v=125
30336 On ch=9 n=57 v=122
30336 On ch=9 n=62 v=122
30336 On ch=9 n=64 v=119
30710 On ch=9 n=57 v=0
30713 On ch=9 n=62 v=0
30716 On ch=9 n=64 v=0
30724 On ch=9 n=57 v=122
30724 On ch=9 n=64 v=119
30728 On ch=9 n=61 v=122
30969 On ch=9 n=33 v=0
31098 On ch=9 n=57 v=0
31104 On ch=9 n=64 v=0
31105 On ch=9 n=61 v=0
31108 On ch=9 n=35 v=127
31108 On ch=9 n=59 v=119
31108 On ch=9 n=62 v=119
31108 On ch=9 n=66 v=113
31806 On ch=9 n=62 v=0
31814 On ch=9 n=66 v=0
31818 On ch=9 n=35 v=0
31820 On ch=9 n=59 v=0
31872 On ch=9 n=31 v=113
31872 On ch=9 n=43 v=122
31872 On ch=9 n=59 v=119
31872 On ch=9 n=62 v=125
31872 On ch=9 n=67 v=122
32594 On ch=9 n=67 v=0
32598 On ch=9 n=62 v=0
32599 On ch=9 n=31 v=0
32602 On ch=9 n=59 v=0
32608 On ch=9 n=43 v=0
32640 On ch=9 n=38 v=125
32640 On ch=9 n=57 v=116
32640 On ch=9 n=62 v=116
32640 On ch=9 n=66 v=113
33338 On ch=9 n=57 v=0
33338 On ch=9 n=66 v=0
33340 On ch=9 n=62 v=0
33344 On ch=9 n=38 v=0
38016 On ch=9 n=47 v=104
38016 On ch=9 n=54 v=113
38016 On ch=9 n=59 v=113
38016 On ch=9 n=62 v=110
38091 On ch=9 n=62 v=0
38092 On ch=9 n=54 v=0
38103 On ch=9 n=59 v=0
38112 On ch=9 n=54 v=113
38112 On ch=9 n=59 v=104
38112 On ch=9 n=62 v=104
38149 On ch=9 n=62 v=0
38150 On ch=9 n=59 v=0
38160 On ch=9 n=61 v=116
38178 On ch=9 n=47 v=0
38231 On ch=9 n=54 v=0
38237 On ch=9 n=61 v=0
38256 On ch=9 n=47 v=85
38256 On ch=9 n=54 v=110
38256 On ch=9 n=59 v=125
38334 On ch=9 n=54 v=0
38337 On ch=9 n=59 v=0
38341 On ch=9 n=47 v=0
38352 On ch=9 n=47 v=101
38352 On ch=9 n=54 v=113
38352 On ch=9 n=59 v=122
38352 On ch=9 n=62 v=113
38600 On ch=9 n=47 v=0
38640 On ch=9 n=47 v=97
38656 On ch=9 n=54 v=0
38688 On ch=9 n=54 v=107
38720 On ch=9 n=59 v=0
38720 On ch=9 n=62 v=0
38734 On ch=9 n=47 v=0
38736 On ch=9 n=62 v=106
38738 On ch=9 n=54 v=0
38768 On ch=9 n=62 v=0
38784 On ch=9 n=43 v=119
38784 On ch=9 n=55 v=107
38784 On ch=9 n=59 v=107
38784 On ch=9 n=62 v=107
38850 On ch=9 n=55 v=0
38859 On ch=9 n=62 v=0
38862 On ch=9 n=59 v=0
38880 On ch=9 n=55 v=125
38880 On ch=9 n=59 v=116
38880 On ch=9 n=62 v=116
38918 On ch=9 n=59 v=0
38920 On ch=9 n=55 v=0
38927 On ch=9 n=62 v=0
38928 On ch=9 n=55 v=99
38928 On ch=9 n=59 v=63
38928 On ch=9 n=61 v=125
38963 On ch=9 n=43 v=0
39004 On ch=9 n=55 v=0
39007 On ch=9 n=59 v=0
39010 On ch=9 n=61 v=0
39024 On ch=9 n=43 v=89
39024 On ch=9 n=55 v=104
39024 On ch=9 n=59 v=113
39096 On ch=9 n=43 v=0
39097 On ch=9 n=59 v=0
39098 On ch=9 n=55 v=0
39120 On ch=9 n=43 v=97
39120 On ch=9 n=55 v=107
39120 On ch=9 n=59 v=113
39366 On ch=9 n=55 v=0
39390 On ch=9 n=59 v=0
39408 On ch=9 n=55 v=95
39456 On ch=9 n=59 v=97
39504 On ch=9 n=62 v=89
39528 On ch=9 n=55 v=0
39530 On ch=9 n=59 v=0
39536 On ch=9 n=43 v=0
39548 On ch=9 n=62 v=0
39552 On ch=9 n=45 v=104
39552 On ch=9 n=52 v=107
39552 On ch=9 n=57 v=113
39552 On ch=9 n=61 v=119
39612 On ch=9 n=61 v=0
39616 On ch=9 n=52 v=0
39620 On ch=9 n=57 v=0
39648 On ch=9 n=52 v=97
39648 On ch=9 n=57 v=104
39648 On ch=9 n=61 v=99
39690 On ch=9 n=61 v=0
39693 On ch=9 n=57 v=0
39696 On ch=9 n=59 v=125
39779 On ch=9 n=52 v=0
39780 On ch=9 n=59 v=0
39792 On ch=9 n=52 v=104
39792 On ch=9 n=57 v=119
39828 On ch=9 n=45 v=0
39866 On ch=9 n=52 v=0
39870 On ch=9 n=57 v=0
39888 On ch=9 n=45 v=97
39888 On ch=9 n=52 v=107
39888 On ch=9 n=57 v=116
39888 On ch=9 n=61 v=119
40152 On ch=9 n=57 v=0
40176 On ch=9 n=59 v=103
40180 On ch=9 n=61 v=0
40220 On ch=9 n=59 v=0
40224 On ch=9 n=61 v=97
40268 On ch=9 n=61 v=0
40272 On ch=9 n=59 v=103
40288 On ch=9 n=52 v=0
40289 On ch=9 n=45 v=0
40312 On ch=9 n=59 v=0
40320 On ch=9 n=40 v=119
40320 On ch=9 n=55 v=107
40320 On ch=9 n=59 v=116
40320 On ch=9 n=62 v=107
40379 On ch=9 n=55 v=0
40379 On ch=9 n=62 v=0
40384 On ch=9 n=59 v=0
40416 On ch=9 n=55 v=110
40416 On ch=9 n=59 v=119
40416 On ch=9 n=62 v=107
40464 On ch=9 n=61 v=107
40465 On ch=9 n=59 v=0
40478 On ch=9 n=62 v=0
40514 On ch=9 n=40 v=0
40547 On ch=9 n=55 v=0
40560 On ch=9 n=61 v=0
40560 On ch=9 n=40 v=122
40560 On ch=9 n=55 v=110
40560 On ch=9 n=59 v=110
40622 On ch=9 n=40 v=0
40631 On ch=9 n=59 v=0
40632 On ch=9 n=55 v=0
40656 On ch=9 n=40 v=119
40656 On ch=9 n=55 v=107
40656 On ch=9 n=59 v=119
40902 On ch=9 n=55 v=0
40934 On ch=9 n=59 v=0
40944 On ch=9 n=54 v=83
40992 On ch=9 n=59 v=93
41055 On ch=9 n=54 v=0
41070 On ch=9 n=59 v=0
41071 On ch=9 n=40 v=0
41088 On ch=9 n=47 v=104
41088 On ch=9 n=54 v=113
41088 On ch=9 n=59 v=113
41088 On ch=9 n=62 v=110
41163 On ch=9 n=62 v=0
41164 On ch=9 n=54 v=0
41175 On ch=9 n=59 v=0
41184 On ch=9 n=54 v=113
41184 On ch=9 n=59 v=104
41184 On ch=9 n=62 v=104
41221 On ch=9 n=62 v=0
41222 On ch=9 n=59 v=0
41232 On ch=9 n=61 v=116
41250 On ch=9 n=47 v=0
41303 On ch=9 n=54 v=0
41309 On ch=9 n=61 v=0
41328 On ch=9 n=47 v=85
41328 On ch=9 n=54 v=110
41328 On ch=9 n=59 v=125
41406 On ch=9 n=54 v=0
41409 On ch=9 n=59 v=0
41413 On ch=9 n=47 v=0
41424 On ch=9 n=47 v=101
41424 On ch=9 n=54 v=113
41424 On ch=9 n=59 v=122
41424 On ch=9 n=62 v=113
41672 On ch=9 n=47 v=0
41712 On ch=9 n=47 v=97
41728 On ch=9 n=54 v=0
41760 On ch=9 n=54 v=107
41792 On ch=9 n=59 v=0
41792 On ch=9 n=62 v=0
41806 On ch=9 n=47 v=0
41808 On ch=9 n=62 v=106
41810 On ch=9 n=54 v=0
41840 On ch=9 n=62 v=0
41856 On ch=9 n=43 v=119
41856 On ch=9 n=55 v=107
41856 On ch=9 n=59 v=107
41856 On ch=9 n=62 v=107
41922 On ch=9 n=55 v=0
41931 On ch=9 n=62 v=0
41934 On ch=9 n=59 v=0
41952 On ch=9 n=55 v=125
41952 On ch=9 n=59 v=116
41952 On ch=9 n=62 v=116
41990 On ch=9 n=59 v=0
41992 On ch=9 n=55 v=0
41999 On ch=9 n=62 v=0
42000 On ch=9 n=55 v=99
42000 On ch=9 n=59 v=63
42000 On ch=9 n=61 v=125
42035 On ch=9 n=43 v=0
42076 On ch=9 n=55 v=0
42082 On ch=9 n=61 v=0
42083 On ch=9 n=59 v=0
42096 On ch=9 n=43 v=89
42096 On ch=9 n=55 v=104
42096 On ch=9 n=59 v=113
42168 On ch=9 n=43 v=0
42169 On ch=9 n=59 v=0
42170 On ch=9 n=55 v=0
42192 On ch=9 n=43 v=97
42192 On ch=9 n=55 v=107
42192 On ch=9 n=59 v=113
42438 On ch=9 n=55 v=0
42462 On ch=9 n=59 v=0
42480 On ch=9 n=55 v=95
42528 On ch=9 n=59 v=97
42576 On ch=9 n=62 v=89
42600 On ch=9 n=55 v=0
42602 On ch=9 n=59 v=0
42608 On ch=9 n=43 v=0
42620 On ch=9 n=62 v=0
42624 On ch=9 n=45 v=104
42624 On ch=9 n=52 v=107
42624 On ch=9 n=57 v=113
42624 On ch=9 n=61 v=119
42684 On ch=9 n=61 v=0
42688 On ch=9 n=52 v=0
42692 On ch=9 n=57 v=0
42720 On ch=9 n=52 v=97
42720 On ch=9 n=57 v=104
42720 On ch=9 n=61 v=99
42762 On ch=9 n=61 v=0
42765 On ch=9 n=57 v=0
42768 On ch=9 n=59 v=125
42851 On ch=9 n=52 v=0
42852 On ch=9 n=59 v=0
42864 On ch=9 n=52 v=104
42864 On ch=9 n=57 v=119
42900 On ch=9 n=45 v=0
42938 On ch=9 n=52 v=0
42942 On ch=9 n=57 v=0
42960 On ch=9 n=45 v=97
42960 On ch=9 n=52 v=107
42960 On ch=9 n=57 v=116
42960 On ch=9 n=61 v=119
43224 On ch=9 n=57 v=0
43248 On ch=9 n=59 v=102
43252 On ch=9 n=61 v=0
43292 On ch=9 n=59 v=0
43296 On ch=9 n=61 v=97
43340 On ch=9 n=61 v=0
43344 On ch=9 n=59 v=102
43360 On ch=9 n=52 v=0
43361 On ch=9 n=45 v=0
43380 On ch=9 n=59 v=0
43392 On ch=9 n=40 v=119
43392 On ch=9 n=55 v=107
43392 On ch=9 n=59 v=116
43392 On ch=9 n=62 v=107
43451 On ch=9 n=55 v=0
43451 On ch=9 n=62 v=0
43456 On ch=9 n=59 v=0
43488 On ch=9 n=55 v=110
43488 On ch=9 n=59 v=119
43488 On ch=9 n=62 v=107
43536 On ch=9 n=61 v=107
43537 On ch=9 n=59 v=0
43550 On ch=9 n=62 v=0
43586 On ch=9 n=40 v=0
43619 On ch=9 n=55 v=0
43632 On ch=9 n=61 v=0
43632 On ch=9 n=40 v=122
43632 On ch=9 n=55 v=110
43632 On ch=9 n=59 v=110
43694 On ch=9 n=40 v=0
43703 On ch=9 n=59 v=0
43704 On ch=9 n=55 v=0
43728 On ch=9 n=40 v=119
43728 On ch=9 n=55 v=107
43728 On ch=9 n=59 v=119
43974 On ch=9 n=55 v=0
44006 On ch=9 n=59 v=0
44016 On ch=9 n=54 v=83
44064 On ch=9 n=59 v=93
44127 On ch=9 n=54 v=0
44142 On ch=9 n=59 v=0
44143 On ch=9 n=40 v=0
44160 On ch=9 n=47 v=104
44160 On ch=9 n=54 v=113
44160 On ch=9 n=59 v=113
44160 On ch=9 n=62 v=110
44235 On ch=9 n=62 v=0
44236 On ch=9 n=54 v=0
44247 On ch=9 n=59 v=0
44256 On ch=9 n=54 v=113
44256 On ch=9 n=59 v=104
44256 On ch=9 n=62 v=104
44293 On ch=9 n=62 v=0
44294 On ch=9 n=59 v=0
44304 On ch=9 n=61 v=116
44322 On ch=9 n=47 v=0
44375 On ch=9 n=54 v=0
44381 On ch=9 n=61 v=0
44400 On ch=9 n=47 v=85
44400 On ch=9 n=54 v=110
44400 On ch=9 n=59 v=125
44478 On ch=9 n=54 v=0
44481 On ch=9 n=59 v=0
44485 On ch=9 n=47 v=0
44496 On ch=9 n=47 v=101
44496 On ch=9 n=54 v=113
44496 On ch=9 n=59 v=122
44496 On ch=9 n=62 v=113
44744 On ch=9 n=47 v=0
44784 On ch=9 n=47 v=97
44800 On ch=9 n=54 v=0
44832 On ch=9 n=54 v=107
44864 On ch=9 n=59 v=0
44864 On ch=9 n=62 v=0
44878 On ch=9 n=47 v=0
44880 On ch=9 n=62 v=106
44882 On ch=9 n=54 v=0
44912 On ch=9 n=62 v=0
44928 On ch=9 n=43 v=119
44928 On ch=9 n=55 v=107
44928 On ch=9 n=59 v=107
44928 On ch=9 n=62 v=107
44994 On ch=9 n=55 v=0
45003 On ch=9 n=62 v=0
45006 On ch=9 n=59 v=0
45024 On ch=9 n=55 v=125
45024 On ch=9 n=59 v=116
45024 On ch=9 n=62 v=116
45058 On ch=9 n=59 v=0
45064 On ch=9 n=55 v=0
45071 On ch=9 n=62 v=0
45072 On ch=9 n=55 v=99
45072 On ch=9 n=59 v=63
45072 On ch=9 n=61 v=125
45107 On ch=9 n=43 v=0
45131 On ch=9 n=59 v=0
45148 On ch=9 n=55 v=0
45154 On ch=9 n=61 v=0
45168 On ch=9 n=43 v=89
45168 On ch=9 n=55 v=104
45168 On ch=9 n=59 v=113
45240 On ch=9 n=43 v=0
45241 On ch=9 n=59 v=0
45242 On ch=9 n=55 v=0
45264 On ch=9 n=43 v=97
45264 On ch=9 n=55 v=107
45264 On ch=9 n=59 v=113
45510 On ch=9 n=55 v=0
45534 On ch=9 n=59 v=0
45552 On ch=9 n=55 v=95
45600 On ch=9 n=59 v=97
45648 On ch=9 n=62 v=89
45672 On ch=9 n=55 v=0
45674 On ch=9 n=59 v=0
45680 On ch=9 n=43 v=0
45692 On ch=9 n=62 v=0
45696 On ch=9 n=45 v=104
45696 On ch=9 n=52 v=107
45696 On ch=9 n=57 v=113
45696 On ch=9 n=61 v=119
45756 On ch=9 n=61 v=0
45760 On ch=9 n=52 v=0
45764 On ch=9 n=57 v=0
45792 On ch=9 n=52 v=97
45792 On ch=9 n=57 v=104
45792 On ch=9 n=61 v=99
45834 On ch=9 n=61 v=0
45837 On ch=9 n=57 v=0
45840 On ch=9 n=59 v=125
45923 On ch=9 n=52 v=0
45924 On ch=9 n=59 v=0
45936 On ch=9 n=52 v=104
45936 On ch=9 n=57 v=119
45972 On ch=9 n=45 v=0
46010 On ch=9 n=52 v=0
46014 On ch=9 n=57 v=0
46032 On ch=9 n=45 v=97
46032 On ch=9 n=52 v=107
46032 On ch=9 n=57 v=116
46032 On ch=9 n=61 v=119
46296 On ch=9 n=57 v=0
46320 On ch=9 n=59 v=104
46324 On ch=9 n=61 v=0
46364 On ch=9 n=59 v=0
46368 On ch=9 n=61 v=97
46412 On ch=9 n=61 v=0
46416 On ch=9 n=59 v=104
46432 On ch=9 n=52 v=0
46433 On ch=9 n=45 v=0
46452 On ch=9 n=59 v=0
46464 On ch=9 n=40 v=119
46464 On ch=9 n=55 v=107
46464 On ch=9 n=59 v=116
46464 On ch=9 n=62 v=107
46523 On ch=9 n=55 v=0
46523 On ch=9 n=62 v=0
46528 On ch=9 n=59 v=0
46560 On ch=9 n=55 v=110
46560 On ch=9 n=59 v=119
46560 On ch=9 n=62 v=107
46608 On ch=9 n=61 v=107
46609 On ch=9 n=59 v=0
46622 On ch=9 n=62 v=0
46658 On ch=9 n=40 v=0
46691 On ch=9 n=55 v=0
46704 On ch=9 n=61 v=0
46704 On ch=9 n=40 v=122
46704 On ch=9 n=55 v=110
46704 On ch=9 n=59 v=110
46766 On ch=9 n=40 v=0
46775 On ch=9 n=59 v=0
46776 On ch=9 n=55 v=0
46800 On ch=9 n=40 v=119
46800 On ch=9 n=55 v=107
46800 On ch=9 n=59 v=119
47046 On ch=9 n=55 v=0
47078 On ch=9 n=59 v=0
47088 On ch=9 n=54 v=83
47136 On ch=9 n=59 v=93
47199 On ch=9 n=54 v=0
47214 On ch=9 n=59 v=0
47215 On ch=9 n=40 v=0
47240 On ch=9 n=35 v=127
47241 On ch=9 n=59 v=122
47242 On ch=9 n=54 v=122
47242 On ch=9 n=62 v=116
47583 On ch=9 n=35 v=0
47622 On ch=9 n=35 v=127
47746 On ch=9 n=54 v=0
47782 On ch=9 n=62 v=0
47787 On ch=9 n=59 v=0
47816 On ch=9 n=62 v=91
47817 On ch=9 n=59 v=81
47818 On ch=9 n=54 v=101
47944 On ch=9 n=62 v=0
47944 On ch=9 n=54 v=0
47946 On ch=9 n=59 v=0
47960 On ch=9 n=35 v=0
48000 On ch=9 n=28 v=119
48000 On ch=9 n=40 v=122
48000 On ch=9 n=59 v=119
48000 On ch=9 n=64 v=122
48000 On ch=9 n=68 v=122
48738 On ch=9 n=68 v=0
48740 On ch=9 n=59 v=0
48740 On ch=9 n=64 v=0
48743 On ch=9 n=28 v=0
48745 On ch=9 n=40 v=0
48768 On ch=9 n=40 v=127
48768 On ch=9 n=59 v=122
48768 On ch=9 n=64 v=127
48768 On ch=9 n=67 v=116
49446 On ch=9 n=64 v=0
49451 On ch=9 n=67 v=0
49464 On ch=9 n=59 v=0
49468 On ch=9 n=40 v=0
49536 On ch=9 n=35 v=127
49536 On ch=9 n=59 v=119
49536 On ch=9 n=62 v=119
49536 On ch=9 n=66 v=113
50234 On ch=9 n=62 v=0
50242 On ch=9 n=66 v=0
50246 On ch=9 n=35 v=0
50248 On ch=9 n=59 v=0
50304 On ch=9 n=33 v=125
50304 On ch=9 n=57 v=122
50304 On ch=9 n=62 v=122
50304 On ch=9 n=64 v=119
50674 On ch=9 n=57 v=0
50676 On ch=9 n=64 v=0
50677 On ch=9 n=62 v=0
50684 On ch=9 n=61 v=122
50688 On ch=9 n=57 v=122
50688 On ch=9 n=64 v=119
50805 On ch=9 n=33 v=0
51057 On ch=9 n=61 v=0
51058 On ch=9 n=57 v=0
51060 On ch=9 n=64 v=0
51076 On ch=9 n=35 v=127
51076 On ch=9 n=59 v=119
51076 On ch=9 n=62 v=119
51076 On ch=9 n=66 v=113
51774 On ch=9 n=62 v=0
51782 On ch=9 n=66 v=0
51786 On ch=9 n=35 v=0
51788 On ch=9 n=59 v=0
51840 On ch=9 n=31 v=113
51840 On ch=9 n=43 v=122
51840 On ch=9 n=59 v=119
51840 On ch=9 n=62 v=125
51840 On ch=9 n=67 v=122
52562 On ch=9 n=67 v=0
52566 On ch=9 n=62 v=0
52567 On ch=9 n=31 v=0
52570 On ch=9 n=59 v=0
52576 On ch=9 n=43 v=0
52608 On ch=9 n=38 v=125
52608 On ch=9 n=57 v=116
52608 On ch=9 n=62 v=116
52608 On ch=9 n=66 v=113
53306 On ch=9 n=57 v=0
53306 On ch=9 n=66 v=0
53308 On ch=9 n=62 v=0
53312 On ch=9 n=38 v=0
59808 Par ch=9 c=123 v=0
59856 Par ch=9 c=120 v=0
59856 Meta TrkEnd
TrkEnd
MTrk
336 Par ch=10 c=121 v=0
340 Par ch=10 c=93 v=4
342 Par ch=10 c=91 v=90
344 Par ch=10 c=11 v=127
346 Par ch=10 c=7 v=123
348 Pb ch=10 v=8192
352 PrCh ch=10 p=32
500 Par ch=10 c=99 v=24
500 Par ch=10 c=98 v=27
500 Par ch=10 c=6 v=40
500 Par ch=10 c=38 v=0
609 Par ch=10 c=99 v=24
609 Par ch=10 c=98 v=39
609 Par ch=10 c=6 v=70
609 Par ch=10 c=38 v=0
768 On ch=10 n=35 v=118
768 On ch=10 n=42 v=112
772 On ch=10 n=35 v=0
772 On ch=10 n=42 v=0
864 On ch=10 n=35 v=121
864 On ch=10 n=42 v=86
868 On ch=10 n=35 v=0
868 On ch=10 n=42 v=0
912 On ch=10 n=27 v=100
916 On ch=10 n=27 v=0
960 On ch=10 n=39 v=112
960 On ch=10 n=40 v=112
960 On ch=10 n=42 v=118
964 On ch=10 n=39 v=0
964 On ch=10 n=40 v=0
964 On ch=10 n=42 v=0
1008 On ch=10 n=27 v=60
1012 On ch=10 n=27 v=0
1056 On ch=10 n=42 v=97
1060 On ch=10 n=42 v=0
1104 On ch=10 n=27 v=41
1104 On ch=10 n=35 v=80
1108 On ch=10 n=27 v=0
1108 On ch=10 n=35 v=0
1152 On ch=10 n=35 v=124
1152 On ch=10 n=42 v=115
1156 On ch=10 n=35 v=0
1156 On ch=10 n=42 v=0
1248 On ch=10 n=35 v=115
1248 On ch=10 n=42 v=109
1252 On ch=10 n=35 v=0
1252 On ch=10 n=42 v=0
1296 On ch=10 n=27 v=64
1300 On ch=10 n=27 v=0
1344 On ch=10 n=39 v=112
1344 On ch=10 n=40 v=112
1344 On ch=10 n=42 v=115
1348 On ch=10 n=39 v=0
1348 On ch=10 n=40 v=0
1348 On ch=10 n=42 v=0
1392 On ch=10 n=27 v=58
1396 On ch=10 n=27 v=0
1440 On ch=10 n=42 v=97
1444 On ch=10 n=42 v=0
1488 On ch=10 n=35 v=100
1492 On ch=10 n=35 v=0
1536 On ch=10 n=35 v=118
1536 On ch=10 n=42 v=112
1540 On ch=10 n=35 v=0
1540 On ch=10 n=42 v=0
1632 On ch=10 n=35 v=121
1632 On ch=10 n=42 v=86
1636 On ch=10 n=35 v=0
1636 On ch=10 n=42 v=0
1680 On ch=10 n=27 v=100
1684 On ch=10 n=27 v=0
1728 On ch=10 n=39 v=112
1728 On ch=10 n=40 v=112
1728 On ch=10 n=42 v=118
1732 On ch=10 n=39 v=0
1732 On ch=10 n=40 v=0
1732 On ch=10 n=42 v=0
1776 On ch=10 n=27 v=60
1776 On ch=10 n=82 v=86
1780 On ch=10 n=27 v=0
1780 On ch=10 n=82 v=0
1824 On ch=10 n=42 v=97
1824 On ch=10 n=70 v=106
1828 On ch=10 n=42 v=0
1828 On ch=10 n=70 v=0
1872 On ch=10 n=27 v=41
1872 On ch=10 n=35 v=80
1876 On ch=10 n=27 v=0
1876 On ch=10 n=35 v=0
1920 On ch=10 n=35 v=118
1920 On ch=10 n=42 v=112
1924 On ch=10 n=35 v=0
1924 On ch=10 n=42 v=0
2016 On ch=10 n=35 v=121
2016 On ch=10 n=42 v=86
2020 On ch=10 n=35 v=0
2020 On ch=10 n=42 v=0
2064 On ch=10 n=27 v=100
2068 On ch=10 n=27 v=0
2112 On ch=10 n=39 v=112
2112 On ch=10 n=40 v=112
2112 On ch=10 n=42 v=118
2116 On ch=10 n=39 v=0
2116 On ch=10 n=40 v=0
2116 On ch=10 n=42 v=0
2160 On ch=10 n=27 v=60
2164 On ch=10 n=27 v=0
2208 On ch=10 n=42 v=97
2212 On ch=10 n=42 v=0
2256 On ch=10 n=27 v=41
2256 On ch=10 n=35 v=80
2260 On ch=10 n=27 v=0
2260 On ch=10 n=35 v=0
2304 On ch=10 n=35 v=124
2304 On ch=10 n=42 v=115
2308 On ch=10 n=35 v=0
2308 On ch=10 n=42 v=0
2400 On ch=10 n=35 v=115
2400 On ch=10 n=42 v=109
2400 On ch=10 n=81 v=86
2404 On ch=10 n=35 v=0
2404 On ch=10 n=42 v=0
2404 On ch=10 n=81 v=0
2448 On ch=10 n=27 v=64
2452 On ch=10 n=27 v=0
2496 On ch=10 n=39 v=112
2496 On ch=10 n=40 v=112
2496 On ch=10 n=42 v=115
2500 On ch=10 n=39 v=0
2500 On ch=10 n=40 v=0
2500 On ch=10 n=42 v=0
2544 On ch=10 n=27 v=58
2544 On ch=10 n=70 v=64
2548 On ch=10 n=27 v=0
2548 On ch=10 n=70 v=0
2592 On ch=10 n=42 v=97
2592 On ch=10 n=82 v=67
2596 On ch=10 n=42 v=0
2596 On ch=10 n=82 v=0
2640 On ch=10 n=35 v=100
2640 On ch=10 n=70 v=94
2644 On ch=10 n=35 v=0
2644 On ch=10 n=70 v=0
2688 On ch=10 n=35 v=118
2688 On ch=10 n=42 v=112
2692 On ch=10 n=35 v=0
2692 On ch=10 n=42 v=0
2784 On ch=10 n=35 v=121
2784 On ch=10 n=42 v=86
2788 On ch=10 n=35 v=0
2788 On ch=10 n=42 v=0
2832 On ch=10 n=27 v=100
2836 On ch=10 n=27 v=0
2880 On ch=10 n=39 v=112
2880 On ch=10 n=40 v=112
2880 On ch=10 n=42 v=118
2884 On ch=10 n=39 v=0
2884 On ch=10 n=40 v=0
2884 On ch=10 n=42 v=0
2928 On ch=10 n=27 v=60
2932 On ch=10 n=27 v=0
2976 On ch=10 n=42 v=97
2980 On ch=10 n=42 v=0
3024 On ch=10 n=27 v=41
3024 On ch=10 n=35 v=80
3028 On ch=10 n=27 v=0
3028 On ch=10 n=35 v=0
3072 On ch=10 n=35 v=124
3072 On ch=10 n=42 v=115
3076 On ch=10 n=35 v=0
3076 On ch=10 n=42 v=0
3168 On ch=10 n=35 v=115
3168 On ch=10 n=42 v=109
3168 On ch=10 n=81 v=86
3172 On ch=10 n=35 v=0
3172 On ch=10 n=42 v=0
3172 On ch=10 n=81 v=0
3216 On ch=10 n=27 v=64
3220 On ch=10 n=27 v=0
3264 On ch=10 n=39 v=112
3264 On ch=10 n=40 v=112
3264 On ch=10 n=42 v=115
3268 On ch=10 n=39 v=0
3268 On ch=10 n=40 v=0
3268 On ch=10 n=42 v=0
3312 On ch=10 n=27 v=58
3312 On ch=10 n=70 v=64
3316 On ch=10 n=27 v=0
3316 On ch=10 n=70 v=0
3360 On ch=10 n=42 v=97
3360 On ch=10 n=82 v=67
3364 On ch=10 n=42 v=0
3364 On ch=10 n=82 v=0
3408 On ch=10 n=35 v=100
3408 On ch=10 n=70 v=94
3412 On ch=10 n=35 v=0
3412 On ch=10 n=70 v=0
3456 On ch=10 n=35 v=118
3456 On ch=10 n=42 v=112
3460 On ch=10 n=35 v=0
3460 On ch=10 n=42 v=0
3552 On ch=10 n=35 v=121
3552 On ch=10 n=42 v=86
3556 On ch=10 n=35 v=0
3556 On ch=10 n=42 v=0
3600 On ch=10 n=27 v=100
3604 On ch=10 n=27 v=0
3648 On ch=10 n=39 v=112
3648 On ch=10 n=40 v=112
3648 On ch=10 n=42 v=118
3652 On ch=10 n=39 v=0
3652 On ch=10 n=40 v=0
3652 On ch=10 n=42 v=0
3696 On ch=10 n=27 v=60
3700 On ch=10 n=27 v=0
3744 On ch=10 n=42 v=97
3748 On ch=10 n=42 v=0
3792 On ch=10 n=27 v=41
3792 On ch=10 n=35 v=80
3796 On ch=10 n=27 v=0
3796 On ch=10 n=35 v=0
3840 On ch=10 n=35 v=124
3840 On ch=10 n=42 v=115
3844 On ch=10 n=35 v=0
3844 On ch=10 n=42 v=0
3936 On ch=10 n=35 v=115
3936 On ch=10 n=42 v=109
3936 On ch=10 n=81 v=86
3940 On ch=10 n=35 v=0
3940 On ch=10 n=42 v=0
3940 On ch=10 n=81 v=0
3984 On ch=10 n=27 v=64
3988 On ch=10 n=27 v=0
4032 On ch=10 n=39 v=112
4032 On ch=10 n=40 v=112
4032 On ch=10 n=42 v=115
4036 On ch=10 n=39 v=0
4036 On ch=10 n=40 v=0
4036 On ch=10 n=42 v=0
4080 On ch=10 n=27 v=58
4080 On ch=10 n=70 v=64
4084 On ch=10 n=27 v=0
4084 On ch=10 n=70 v=0
4128 On ch=10 n=42 v=97
4128 On ch=10 n=82 v=67
4132 On ch=10 n=42 v=0
4132 On ch=10 n=82 v=0
4176 On ch=10 n=35 v=100
4176 On ch=10 n=70 v=94
4180 On ch=10 n=35 v=0
4180 On ch=10 n=70 v=0
4224 On ch=10 n=35 v=118
4224 On ch=10 n=42 v=112
4228 On ch=10 n=35 v=0
4228 On ch=10 n=42 v=0
4320 On ch=10 n=35 v=121
4320 On ch=10 n=42 v=86
4324 On ch=10 n=35 v=0
4324 On ch=10 n=42 v=0
4368 On ch=10 n=27 v=100
4372 On ch=10 n=27 v=0
4416 On ch=10 n=39 v=112
4416 On ch=10 n=40 v=112
4416 On ch=10 n=42 v=118
4420 On ch=10 n=39 v=0
4420 On ch=10 n=40 v=0
4420 On ch=10 n=42 v=0
4464 On ch=10 n=27 v=60
4468 On ch=10 n=27 v=0
4512 On ch=10 n=42 v=97
4516 On ch=10 n=42 v=0
4560 On ch=10 n=27 v=41
4560 On ch=10 n=35 v=80
4564 On ch=10 n=27 v=0
4564 On ch=10 n=35 v=0
4608 On ch=10 n=35 v=124
4608 On ch=10 n=42 v=115
4612 On ch=10 n=35 v=0
4612 On ch=10 n=42 v=0
4704 On ch=10 n=35 v=115
4704 On ch=10 n=42 v=109
4704 On ch=10 n=81 v=86
4708 On ch=10 n=35 v=0
4708 On ch=10 n=42 v=0
4708 On ch=10 n=81 v=0
4752 On ch=10 n=27 v=64
4756 On ch=10 n=27 v=0
4800 On ch=10 n=39 v=112
4800 On ch=10 n=40 v=112
4800 On ch=10 n=42 v=115
4804 On ch=10 n=39 v=0
4804 On ch=10 n=40 v=0
4804 On ch=10 n=42 v=0
4848 On ch=10 n=27 v=58
4848 On ch=10 n=70 v=64
4852 On ch=10 n=27 v=0
4852 On ch=10 n=70 v=0
4896 On ch=10 n=42 v=97
4896 On ch=10 n=82 v=67
4900 On ch=10 n=42 v=0
4900 On ch=10 n=82 v=0
4944 On ch=10 n=35 v=100
4944 On ch=10 n=70 v=94
4948 On ch=10 n=35 v=0
4948 On ch=10 n=70 v=0
4992 On ch=10 n=35 v=118
4992 On ch=10 n=42 v=112
4996 On ch=10 n=35 v=0
4996 On ch=10 n=42 v=0
5088 On ch=10 n=35 v=121
5088 On ch=10 n=42 v=86
5092 On ch=10 n=35 v=0
5092 On ch=10 n=42 v=0
5136 On ch=10 n=27 v=100
5140 On ch=10 n=27 v=0
5184 On ch=10 n=39 v=112
5184 On ch=10 n=40 v=112
5184 On ch=10 n=42 v=118
5188 On ch=10 n=39 v=0
5188 On ch=10 n=40 v=0
5188 On ch=10 n=42 v=0
5232 On ch=10 n=27 v=60
5236 On ch=10 n=27 v=0
5280 On ch=10 n=42 v=97
5284 On ch=10 n=42 v=0
5328 On ch=10 n=27 v=41
5328 On ch=10 n=35 v=80
5332 On ch=10 n=27 v=0
5332 On ch=10 n=35 v=0
5376 On ch=10 n=35 v=124
5376 On ch=10 n=42 v=115
5380 On ch=10 n=35 v=0
5380 On ch=10 n=42 v=0
5472 On ch=10 n=35 v=115
5472 On ch=10 n=42 v=109
5472 On ch=10 n=81 v=86
5476 On ch=10 n=35 v=0
5476 On ch=10 n=42 v=0
5476 On ch=10 n=81 v=0
5520 On ch=10 n=27 v=64
5524 On ch=10 n=27 v=0
5568 On ch=10 n=39 v=112
5568 On ch=10 n=40 v=112
5568 On ch=10 n=42 v=115
5572 On ch=10 n=39 v=0
5572 On ch=10 n=40 v=0
5572 On ch=10 n=42 v=0
5616 On ch=10 n=27 v=58
5616 On ch=10 n=70 v=64
5620 On ch=10 n=27 v=0
5620 On ch=10 n=70 v=0
5664 On ch=10 n=42 v=97
5664 On ch=10 n=82 v=67
5668 On ch=10 n=42 v=0
5668 On ch=10 n=82 v=0
5712 On ch=10 n=35 v=100
5712 On ch=10 n=70 v=94
5716 On ch=10 n=35 v=0
5716 On ch=10 n=70 v=0
5760 On ch=10 n=35 v=118
5760 On ch=10 n=42 v=112
5764 On ch=10 n=35 v=0
5764 On ch=10 n=42 v=0
5856 On ch=10 n=35 v=121
5856 On ch=10 n=42 v=86
5860 On ch=10 n=35 v=0
5860 On ch=10 n=42 v=0
5904 On ch=10 n=27 v=100
5908 On ch=10 n=27 v=0
5952 On ch=10 n=39 v=112
5952 On ch=10 n=40 v=112
5952 On ch=10 n=42 v=118
5956 On ch=10 n=39 v=0
5956 On ch=10 n=40 v=0
5956 On ch=10 n=42 v=0
6000 On ch=10 n=27 v=60
6004 On ch=10 n=27 v=0
6048 On ch=10 n=42 v=97
6052 On ch=10 n=42 v=0
6096 On ch=10 n=27 v=41
6096 On ch=10 n=35 v=80
6100 On ch=10 n=27 v=0
6100 On ch=10 n=35 v=0
6144 On ch=10 n=35 v=124
6144 On ch=10 n=42 v=115
6148 On ch=10 n=35 v=0
6148 On ch=10 n=42 v=0
6240 On ch=10 n=35 v=115
6240 On ch=10 n=42 v=109
6240 On ch=10 n=81 v=86
6244 On ch=10 n=35 v=0
6244 On ch=10 n=42 v=0
6244 On ch=10 n=81 v=0
6288 On ch=10 n=27 v=64
6292 On ch=10 n=27 v=0
6336 On ch=10 n=39 v=112
6336 On ch=10 n=40 v=112
6336 On ch=10 n=42 v=115
6340 On ch=10 n=39 v=0
6340 On ch=10 n=40 v=0
6340 On ch=10 n=42 v=0
6384 On ch=10 n=27 v=58
6384 On ch=10 n=70 v=64
6388 On ch=10 n=27 v=0
6388 On ch=10 n=70 v=0
6432 On ch=10 n=42 v=97
6432 On ch=10 n=82 v=67
6436 On ch=10 n=42 v=0
6436 On ch=10 n=82 v=0
6480 On ch=10 n=35 v=100
6480 On ch=10 n=70 v=94
6484 On ch=10 n=35 v=0
6484 On ch=10 n=70 v=0
6528 On ch=10 n=35 v=118
6528 On ch=10 n=42 v=112
6532 On ch=10 n=35 v=0
6532 On ch=10 n=42 v=0
6624 On ch=10 n=35 v=121
6624 On ch=10 n=42 v=86
6628 On ch=10 n=35 v=0
6628 On ch=10 n=42 v=0
6672 On ch=10 n=27 v=100
6676 On ch=10 n=27 v=0
6720 On ch=10 n=39 v=112
6720 On ch=10 n=40 v=112
6720 On ch=10 n=42 v=118
6724 On ch=10 n=39 v=0
6724 On ch=10 n=40 v=0
6724 On ch=10 n=42 v=0
6768 On ch=10 n=27 v=60
6772 On ch=10 n=27 v=0
6816 On ch=10 n=42 v=97
6820 On ch=10 n=42 v=0
6864 On ch=10 n=27 v=41
6864 On ch=10 n=35 v=80
6868 On ch=10 n=27 v=0
6868 On ch=10 n=35 v=0
6912 On ch=10 n=35 v=124
6912 On ch=10 n=42 v=115
6916 On ch=10 n=35 v=0
6916 On ch=10 n=42 v=0
7008 On ch=10 n=35 v=115
7008 On ch=10 n=42 v=109
7008 On ch=10 n=81 v=86
7012 On ch=10 n=35 v=0
7012 On ch=10 n=42 v=0
7012 On ch=10 n=81 v=0
7056 On ch=10 n=27 v=64
7060 On ch=10 n=27 v=0
7104 On ch=10 n=39 v=112
7104 On ch=10 n=40 v=112
7104 On ch=10 n=42 v=115
7108 On ch=10 n=39 v=0
7108 On ch=10 n=40 v=0
7108 On ch=10 n=42 v=0
7152 On ch=10 n=27 v=58
7152 On ch=10 n=70 v=64
7156 On ch=10 n=27 v=0
7156 On ch=10 n=70 v=0
7200 On ch=10 n=42 v=97
7200 On ch=10 n=82 v=67
7204 On ch=10 n=42 v=0
7204 On ch=10 n=82 v=0
7248 On ch=10 n=35 v=100
7248 On ch=10 n=70 v=94
7252 On ch=10 n=35 v=0
7252 On ch=10 n=70 v=0
7296 On ch=10 n=35 v=118
7296 On ch=10 n=42 v=112
7300 On ch=10 n=35 v=0
7300 On ch=10 n=42 v=0
7392 On ch=10 n=35 v=121
7392 On ch=10 n=42 v=86
7396 On ch=10 n=35 v=0
7396 On ch=10 n=42 v=0
7440 On ch=10 n=27 v=100
7444 On ch=10 n=27 v=0
7488 On ch=10 n=39 v=112
7488 On ch=10 n=40 v=112
7488 On ch=10 n=42 v=118
7492 On ch=10 n=39 v=0
7492 On ch=10 n=40 v=0
7492 On ch=10 n=42 v=0
7536 On ch=10 n=27 v=60
7540 On ch=10 n=27 v=0
7584 On ch=10 n=42 v=97
7588 On ch=10 n=42 v=0
7632 On ch=10 n=27 v=41
7632 On ch=10 n=35 v=80
7636 On ch=10 n=27 v=0
7636 On ch=10 n=35 v=0
7680 On ch=10 n=35 v=124
7680 On ch=10 n=42 v=115
7684 On ch=10 n=35 v=0
7684 On ch=10 n=42 v=0
7776 On ch=10 n=35 v=115
7776 On ch=10 n=42 v=109
7776 On ch=10 n=81 v=86
7780 On ch=10 n=35 v=0
7780 On ch=10 n=42 v=0
7780 On ch=10 n=81 v=0
7824 On ch=10 n=27 v=64
7828 On ch=10 n=27 v=0
7872 On ch=10 n=39 v=112
7872 On ch=10 n=40 v=112
7872 On ch=10 n=42 v=115
7876 On ch=10 n=39 v=0
7876 On ch=10 n=40 v=0
7876 On ch=10 n=42 v=0
7920 On ch=10 n=27 v=58
7920 On ch=10 n=70 v=64
7924 On ch=10 n=27 v=0
7924 On ch=10 n=70 v=0
7968 On ch=10 n=42 v=97
7968 On ch=10 n=82 v=67
7972 On ch=10 n=42 v=0
7972 On ch=10 n=82 v=0
8016 On ch=10 n=35 v=100
8016 On ch=10 n=70 v=94
8020 On ch=10 n=35 v=0
8020 On ch=10 n=70 v=0
8064 On ch=10 n=35 v=118
8064 On ch=10 n=42 v=112
8068 On ch=10 n=35 v=0
8068 On ch=10 n=42 v=0
8160 On ch=10 n=35 v=121
8160 On ch=10 n=42 v=86
8164 On ch=10 n=35 v=0
8164 On ch=10 n=42 v=0
8208 On ch=10 n=27 v=100
8212 On ch=10 n=27 v=0
8256 On ch=10 n=39 v=112
8256 On ch=10 n=40 v=112
8256 On ch=10 n=42 v=118
8260 On ch=10 n=39 v=0
8260 On ch=10 n=40 v=0
8260 On ch=10 n=42 v=0
8304 On ch=10 n=27 v=60
8308 On ch=10 n=27 v=0
8352 On ch=10 n=42 v=97
8356 On ch=10 n=42 v=0
8400 On ch=10 n=27 v=41
8400 On ch=10 n=35 v=80
8404 On ch=10 n=27 v=0
8404 On ch=10 n=35 v=0
8448 On ch=10 n=35 v=124
8448 On ch=10 n=42 v=115
8452 On ch=10 n=35 v=0
8452 On ch=10 n=42 v=0
8544 On ch=10 n=35 v=115
8544 On ch=10 n=42 v=109
8544 On ch=10 n=81 v=86
8548 On ch=10 n=35 v=0
8548 On ch=10 n=42 v=0
8548 On ch=10 n=81 v=0
8592 On ch=10 n=27 v=64
8596 On ch=10 n=27 v=0
8640 On ch=10 n=39 v=112
8640 On ch=10 n=40 v=112
8640 On ch=10 n=42 v=115
8644 On ch=10 n=39 v=0
8644 On ch=10 n=40 v=0
8644 On ch=10 n=42 v=0
8688 On ch=10 n=27 v=58
8688 On ch=10 n=70 v=64
8692 On ch=10 n=27 v=0
8692 On ch=10 n=70 v=0
8736 On ch=10 n=42 v=97
8736 On ch=10 n=82 v=67
8740 On ch=10 n=42 v=0
8740 On ch=10 n=82 v=0
8784 On ch=10 n=35 v=100
8784 On ch=10 n=70 v=94
8788 On ch=10 n=35 v=0
8788 On ch=10 n=70 v=0
8832 On ch=10 n=35 v=118
8832 On ch=10 n=42 v=112
8836 On ch=10 n=35 v=0
8836 On ch=10 n=42 v=0
8928 On ch=10 n=35 v=121
8928 On ch=10 n=42 v=86
8932 On ch=10 n=35 v=0
8932 On ch=10 n=42 v=0
8976 On ch=10 n=27 v=100
8980 On ch=10 n=27 v=0
9024 On ch=10 n=39 v=112
9024 On ch=10 n=40 v=112
9024 On ch=10 n=42 v=118
9028 On ch=10 n=39 v=0
9028 On ch=10 n=40 v=0
9028 On ch=10 n=42 v=0
9072 On ch=10 n=27 v=60
9076 On ch=10 n=27 v=0
9120 On ch=10 n=42 v=97
9124 On ch=10 n=42 v=0
9168 On ch=10 n=27 v=41
9168 On ch=10 n=35 v=80
9172 On ch=10 n=27 v=0
9172 On ch=10 n=35 v=0
9216 On ch=10 n=35 v=124
9216 On ch=10 n=42 v=115
9220 On ch=10 n=35 v=0
9220 On ch=10 n=42 v=0
9312 On ch=10 n=35 v=115
9312 On ch=10 n=42 v=109
9312 On ch=10 n=81 v=86
9316 On ch=10 n=35 v=0
9316 On ch=10 n=42 v=0
9316 On ch=10 n=81 v=0
9360 On ch=10 n=27 v=64
9364 On ch=10 n=27 v=0
9408 On ch=10 n=39 v=112
9408 On ch=10 n=40 v=112
9408 On ch=10 n=42 v=115
9412 On ch=10 n=39 v=0
9412 On ch=10 n=40 v=0
9412 On ch=10 n=42 v=0
9456 On ch=10 n=27 v=58
9456 On ch=10 n=70 v=64
9460 On ch=10 n=27 v=0
9460 On ch=10 n=70 v=0
9504 On ch=10 n=42 v=97
9504 On ch=10 n=82 v=67
9508 On ch=10 n=42 v=0
9508 On ch=10 n=82 v=0
9552 On ch=10 n=35 v=100
9552 On ch=10 n=70 v=94
9556 On ch=10 n=35 v=0
9556 On ch=10 n=70 v=0
9600 On ch=10 n=35 v=118
9600 On ch=10 n=42 v=112
9604 On ch=10 n=35 v=0
9604 On ch=10 n=42 v=0
9696 On ch=10 n=35 v=121
9696 On ch=10 n=42 v=86
9700 On ch=10 n=35 v=0
9700 On ch=10 n=42 v=0
9744 On ch=10 n=27 v=100
9748 On ch=10 n=27 v=0
9792 On ch=10 n=39 v=112
9792 On ch=10 n=40 v=112
9792 On ch=10 n=42 v=118
9796 On ch=10 n=39 v=0
9796 On ch=10 n=40 v=0
9796 On ch=10 n=42 v=0
9840 On ch=10 n=27 v=60
9844 On ch=10 n=27 v=0
9888 On ch=10 n=42 v=97
9892 On ch=10 n=42 v=0
9936 On ch=10 n=27 v=41
9936 On ch=10 n=35 v=80
9940 On ch=10 n=27 v=0
9940 On ch=10 n=35 v=0
9984 On ch=10 n=35 v=124
9984 On ch=10 n=42 v=115
9988 On ch=10 n=35 v=0
9988 On ch=10 n=42 v=0
10080 On ch=10 n=35 v=115
10080 On ch=10 n=42 v=109
10080 On ch=10 n=81 v=86
10084 On ch=10 n=35 v=0
10084 On ch=10 n=42 v=0
10084 On ch=10 n=81 v=0
10128 On ch=10 n=27 v=64
10132 On ch=10 n=27 v=0
10176 On ch=10 n=39 v=112
10176 On ch=10 n=40 v=112
10176 On ch=10 n=42 v=115
10180 On ch=10 n=39 v=0
10180 On ch=10 n=40 v=0
10180 On ch=10 n=42 v=0
10224 On ch=10 n=27 v=58
10224 On ch=10 n=70 v=64
10228 On ch=10 n=27 v=0
10228 On ch=10 n=70 v=0
10272 On ch=10 n=42 v=97
10272 On ch=10 n=82 v=67
10276 On ch=10 n=42 v=0
10276 On ch=10 n=82 v=0
10320 On ch=10 n=35 v=100
10320 On ch=10 n=70 v=94
10324 On ch=10 n=35 v=0
10324 On ch=10 n=70 v=0
10368 On ch=10 n=35 v=118
10368 On ch=10 n=42 v=112
10372 On ch=10 n=35 v=0
10372 On ch=10 n=42 v=0
10464 On ch=10 n=35 v=121
10464 On ch=10 n=42 v=86
10468 On ch=10 n=35 v=0
10468 On ch=10 n=42 v=0
10512 On ch=10 n=27 v=100
10516 On ch=10 n=27 v=0
10560 On ch=10 n=39 v=112
10560 On ch=10 n=40 v=112
10560 On ch=10 n=42 v=118
10564 On ch=10 n=39 v=0
10564 On ch=10 n=40 v=0
10564 On ch=10 n=42 v=0
10608 On ch=10 n=27 v=60
10612 On ch=10 n=27 v=0
10656 On ch=10 n=42 v=97
10660 On ch=10 n=42 v=0
10704 On ch=10 n=27 v=41
10704 On ch=10 n=35 v=80
10708 On ch=10 n=27 v=0
10708 On ch=10 n=35 v=0
10752 On ch=10 n=35 v=124
10752 On ch=10 n=42 v=115
10756 On ch=10 n=35 v=0
10756 On ch=10 n=42 v=0
10848 On ch=10 n=35 v=115
10848 On ch=10 n=42 v=109
10848 On ch=10 n=81 v=86
10852 On ch=10 n=35 v=0
10852 On ch=10 n=42 v=0
10852 On ch=10 n=81 v=0
10896 On ch=10 n=27 v=64
10900 On ch=10 n=27 v=0
10944 On ch=10 n=39 v=112
10944 On ch=10 n=40 v=112
10944 On ch=10 n=42 v=115
10948 On ch=10 n=39 v=0
10948 On ch=10 n=40 v=0
10948 On ch=10 n=42 v=0
10992 On ch=10 n=27 v=58
10992 On ch=10 n=70 v=64
10992 On ch=10 n=81 v=92
10996 On ch=10 n=27 v=0
10996 On ch=10 n=70 v=0
10996 On ch=10 n=81 v=0
11040 On ch=10 n=42 v=97
11040 On ch=10 n=82 v=67
11044 On ch=10 n=42 v=0
11044 On ch=10 n=82 v=0
11088 On ch=10 n=35 v=100
11088 On ch=10 n=70 v=94
11092 On ch=10 n=35 v=0
11092 On ch=10 n=70 v=0
11136 On ch=10 n=35 v=118
11136 On ch=10 n=42 v=112
11140 On ch=10 n=35 v=0
11140 On ch=10 n=42 v=0
11232 On ch=10 n=35 v=121
11232 On ch=10 n=42 v=86
11236 On ch=10 n=35 v=0
11236 On ch=10 n=42 v=0
11280 On ch=10 n=27 v=100
11284 On ch=10 n=27 v=0
11328 On ch=10 n=39 v=112
11328 On ch=10 n=40 v=112
11328 On ch=10 n=42 v=118
11332 On ch=10 n=39 v=0
11332 On ch=10 n=40 v=0
11332 On ch=10 n=42 v=0
11376 On ch=10 n=27 v=60
11380 On ch=10 n=27 v=0
11424 On ch=10 n=42 v=97
11428 On ch=10 n=42 v=0
11472 On ch=10 n=27 v=41
11472 On ch=10 n=35 v=80
11476 On ch=10 n=27 v=0
11476 On ch=10 n=35 v=0
11520 On ch=10 n=35 v=124
11520 On ch=10 n=42 v=115
11524 On ch=10 n=35 v=0
11524 On ch=10 n=42 v=0
11616 On ch=10 n=35 v=115
11616 On ch=10 n=42 v=109
11616 On ch=10 n=81 v=86
11620 On ch=10 n=35 v=0
11620 On ch=10 n=42 v=0
11620 On ch=10 n=81 v=0
11664 On ch=10 n=27 v=64
11668 On ch=10 n=27 v=0
11712 On ch=10 n=39 v=112
11712 On ch=10 n=40 v=112
11712 On ch=10 n=42 v=115
11716 On ch=10 n=39 v=0
11716 On ch=10 n=40 v=0
11716 On ch=10 n=42 v=0
11760 On ch=10 n=27 v=58
11760 On ch=10 n=70 v=64
11764 On ch=10 n=27 v=0
11764 On ch=10 n=70 v=0
11808 On ch=10 n=42 v=97
11808 On ch=10 n=82 v=67
11812 On ch=10 n=42 v=0
11812 On ch=10 n=82 v=0
11856 On ch=10 n=35 v=100
11856 On ch=10 n=70 v=94
11860 On ch=10 n=35 v=0
11860 On ch=10 n=70 v=0
11904 On ch=10 n=35 v=118
11904 On ch=10 n=42 v=112
11908 On ch=10 n=35 v=0
11908 On ch=10 n=42 v=0
12000 On ch=10 n=35 v=121
12000 On ch=10 n=42 v=86
12004 On ch=10 n=35 v=0
12004 On ch=10 n=42 v=0
12048 On ch=10 n=27 v=100
12052 On ch=10 n=27 v=0
12096 On ch=10 n=39 v=112
12096 On ch=10 n=40 v=112
12096 On ch=10 n=42 v=118
12100 On ch=10 n=39 v=0
12100 On ch=10 n=40 v=0
12100 On ch=10 n=42 v=0
12144 On ch=10 n=27 v=60
12148 On ch=10 n=27 v=0
12192 On ch=10 n=42 v=97
12196 On ch=10 n=42 v=0
12240 On ch=10 n=27 v=41
12240 On ch=10 n=35 v=80
12244 On ch=10 n=27 v=0
12244 On ch=10 n=35 v=0
12288 On ch=10 n=35 v=124
12288 On ch=10 n=42 v=115
12292 On ch=10 n=35 v=0
12292 On ch=10 n=42 v=0
12384 On ch=10 n=35 v=115
12384 On ch=10 n=42 v=109
12384 On ch=10 n=81 v=86
12388 On ch=10 n=35 v=0
12388 On ch=10 n=42 v=0
12388 On ch=10 n=81 v=0
12432 On ch=10 n=27 v=64
12436 On ch=10 n=27 v=0
12480 On ch=10 n=39 v=112
12480 On ch=10 n=40 v=112
12480 On ch=10 n=42 v=115
12484 On ch=10 n=39 v=0
12484 On ch=10 n=40 v=0
12484 On ch=10 n=42 v=0
12528 On ch=10 n=27 v=58
12528 On ch=10 n=70 v=64
12532 On ch=10 n=27 v=0
12532 On ch=10 n=70 v=0
12576 On ch=10 n=42 v=97
12576 On ch=10 n=82 v=67
12580 On ch=10 n=42 v=0
12580 On ch=10 n=82 v=0
12624 On ch=10 n=35 v=100
12624 On ch=10 n=70 v=94
12628 On ch=10 n=35 v=0
12628 On ch=10 n=70 v=0
12672 On ch=10 n=35 v=118
12672 On ch=10 n=42 v=112
12676 On ch=10 n=35 v=0
12676 On ch=10 n=42 v=0
12768 On ch=10 n=35 v=121
12768 On ch=10 n=42 v=86
12772 On ch=10 n=35 v=0
12772 On ch=10 n=42 v=0
12816 On ch=10 n=27 v=100
12820 On ch=10 n=27 v=0
12864 On ch=10 n=39 v=112
12864 On ch=10 n=40 v=112
12864 On ch=10 n=42 v=118
12868 On ch=10 n=39 v=0
12868 On ch=10 n=40 v=0
12868 On ch=10 n=42 v=0
12912 On ch=10 n=27 v=60
12916 On ch=10 n=27 v=0
12960 On ch=10 n=42 v=97
12964 On ch=10 n=42 v=0
13008 On ch=10 n=27 v=41
13008 On ch=10 n=35 v=80
13012 On ch=10 n=27 v=0
13012 On ch=10 n=35 v=0
13056 On ch=10 n=35 v=124
13056 On ch=10 n=42 v=115
13060 On ch=10 n=35 v=0
13060 On ch=10 n=42 v=0
13152 On ch=10 n=35 v=115
13152 On ch=10 n=42 v=109
13152 On ch=10 n=81 v=86
13156 On ch=10 n=35 v=0
13156 On ch=10 n=42 v=0
13156 On ch=10 n=81 v=0
13200 On ch=10 n=27 v=64
13204 On ch=10 n=27 v=0
13248 On ch=10 n=39 v=112
13248 On ch=10 n=40 v=112
13248 On ch=10 n=42 v=115
13252 On ch=10 n=39 v=0
13252 On ch=10 n=40 v=0
13252 On ch=10 n=42 v=0
13296 On ch=10 n=27 v=58
13296 On ch=10 n=70 v=64
13300 On ch=10 n=27 v=0
13300 On ch=10 n=70 v=0
13344 On ch=10 n=42 v=97
13344 On ch=10 n=82 v=67
13348 On ch=10 n=42 v=0
13348 On ch=10 n=82 v=0
13392 On ch=10 n=35 v=100
13392 On ch=10 n=70 v=94
13396 On ch=10 n=35 v=0
13396 On ch=10 n=70 v=0
13440 On ch=10 n=35 v=118
13440 On ch=10 n=42 v=112
13444 On ch=10 n=35 v=0
13444 On ch=10 n=42 v=0
13536 On ch=10 n=35 v=121
13536 On ch=10 n=42 v=86
13540 On ch=10 n=35 v=0
13540 On ch=10 n=42 v=0
13584 On ch=10 n=27 v=100
13588 On ch=10 n=27 v=0
13632 On ch=10 n=39 v=112
13632 On ch=10 n=40 v=112
13632 On ch=10 n=42 v=118
13636 On ch=10 n=39 v=0
13636 On ch=10 n=40 v=0
13636 On ch=10 n=42 v=0
13680 On ch=10 n=27 v=60
13684 On ch=10 n=27 v=0
13728 On ch=10 n=42 v=97
13732 On ch=10 n=42 v=0
13776 On ch=10 n=27 v=41
13776 On ch=10 n=35 v=80
13780 On ch=10 n=27 v=0
13780 On ch=10 n=35 v=0
13824 On ch=10 n=35 v=124
13824 On ch=10 n=42 v=115
13828 On ch=10 n=35 v=0
13828 On ch=10 n=42 v=0
13920 On ch=10 n=35 v=115
13920 On ch=10 n=42 v=109
13920 On ch=10 n=81 v=86
13924 On ch=10 n=35 v=0
13924 On ch=10 n=42 v=0
13924 On ch=10 n=81 v=0
13968 On ch=10 n=27 v=64
13972 On ch=10 n=27 v=0
14016 On ch=10 n=39 v=112
14016 On ch=10 n=40 v=112
14016 On ch=10 n=42 v=115
14020 On ch=10 n=39 v=0
14020 On ch=10 n=40 v=0
14020 On ch=10 n=42 v=0
14064 On ch=10 n=27 v=58
14064 On ch=10 n=70 v=64
14064 On ch=10 n=81 v=92
14068 On ch=10 n=27 v=0
14068 On ch=10 n=70 v=0
14068 On ch=10 n=81 v=0
14112 On ch=10 n=42 v=97
14112 On ch=10 n=82 v=67
14116 On ch=10 n=42 v=0
14116 On ch=10 n=82 v=0
14160 On ch=10 n=35 v=100
14160 On ch=10 n=70 v=94
14164 On ch=10 n=35 v=0
14164 On ch=10 n=70 v=0
14208 On ch=10 n=35 v=118
14208 On ch=10 n=42 v=112
14212 On ch=10 n=35 v=0
14212 On ch=10 n=42 v=0
14304 On ch=10 n=35 v=121
14304 On ch=10 n=42 v=86
14308 On ch=10 n=35 v=0
14308 On ch=10 n=42 v=0
14352 On ch=10 n=27 v=100
14356 On ch=10 n=27 v=0
14400 On ch=10 n=39 v=112
14400 On ch=10 n=40 v=112
14400 On ch=10 n=42 v=118
14404 On ch=10 n=39 v=0
14404 On ch=10 n=40 v=0
14404 On ch=10 n=42 v=0
14448 On ch=10 n=27 v=60
14452 On ch=10 n=27 v=0
14496 On ch=10 n=42 v=97
14500 On ch=10 n=42 v=0
14544 On ch=10 n=27 v=41
14544 On ch=10 n=35 v=80
14548 On ch=10 n=27 v=0
14548 On ch=10 n=35 v=0
14592 On ch=10 n=35 v=124
14592 On ch=10 n=42 v=115
14596 On ch=10 n=35 v=0
14596 On ch=10 n=42 v=0
14688 On ch=10 n=35 v=115
14688 On ch=10 n=42 v=109
14688 On ch=10 n=81 v=86
14692 On ch=10 n=35 v=0
14692 On ch=10 n=42 v=0
14692 On ch=10 n=81 v=0
14736 On ch=10 n=27 v=64
14740 On ch=10 n=27 v=0
14784 On ch=10 n=39 v=112
14784 On ch=10 n=40 v=112
14784 On ch=10 n=42 v=115
14788 On ch=10 n=39 v=0
14788 On ch=10 n=40 v=0
14788 On ch=10 n=42 v=0
14832 On ch=10 n=27 v=58
14832 On ch=10 n=70 v=64
14836 On ch=10 n=27 v=0
14836 On ch=10 n=70 v=0
14880 On ch=10 n=42 v=97
14880 On ch=10 n=82 v=67
14884 On ch=10 n=42 v=0
14884 On ch=10 n=82 v=0
14928 On ch=10 n=35 v=100
14928 On ch=10 n=70 v=94
14932 On ch=10 n=35 v=0
14932 On ch=10 n=70 v=0
14976 On ch=10 n=35 v=118
14976 On ch=10 n=42 v=112
14980 On ch=10 n=35 v=0
14980 On ch=10 n=42 v=0
15072 On ch=10 n=35 v=121
15072 On ch=10 n=42 v=86
15076 On ch=10 n=35 v=0
15076 On ch=10 n=42 v=0
15120 On ch=10 n=27 v=100
15124 On ch=10 n=27 v=0
15168 On ch=10 n=39 v=112
15168 On ch=10 n=40 v=112
15168 On ch=10 n=42 v=118
15172 On ch=10 n=39 v=0
15172 On ch=10 n=40 v=0
15172 On ch=10 n=42 v=0
15216 On ch=10 n=27 v=60
15220 On ch=10 n=27 v=0
15264 On ch=10 n=42 v=97
15268 On ch=10 n=42 v=0
15312 On ch=10 n=27 v=41
15312 On ch=10 n=35 v=80
15316 On ch=10 n=27 v=0
15316 On ch=10 n=35 v=0
15360 On ch=10 n=35 v=124
15360 On ch=10 n=42 v=115
15364 On ch=10 n=35 v=0
15364 On ch=10 n=42 v=0
15456 On ch=10 n=35 v=115
15456 On ch=10 n=42 v=109
15456 On ch=10 n=81 v=86
15460 On ch=10 n=35 v=0
15460 On ch=10 n=42 v=0
15460 On ch=10 n=81 v=0
15504 On ch=10 n=27 v=64
15508 On ch=10 n=27 v=0
15552 On ch=10 n=39 v=112
15552 On ch=10 n=40 v=112
15552 On ch=10 n=42 v=115
15556 On ch=10 n=39 v=0
15556 On ch=10 n=40 v=0
15556 On ch=10 n=42 v=0
15600 On ch=10 n=27 v=58
15600 On ch=10 n=70 v=64
15604 On ch=10 n=27 v=0
15604 On ch=10 n=70 v=0
15648 On ch=10 n=42 v=97
15648 On ch=10 n=82 v=67
15652 On ch=10 n=42 v=0
15652 On ch=10 n=82 v=0
15696 On ch=10 n=35 v=100
15696 On ch=10 n=70 v=94
15700 On ch=10 n=35 v=0
15700 On ch=10 n=70 v=0
15744 On ch=10 n=35 v=118
15744 On ch=10 n=42 v=112
15748 On ch=10 n=35 v=0
15748 On ch=10 n=42 v=0
15840 On ch=10 n=35 v=121
15840 On ch=10 n=42 v=86
15844 On ch=10 n=35 v=0
15844 On ch=10 n=42 v=0
15888 On ch=10 n=27 v=100
15892 On ch=10 n=27 v=0
15936 On ch=10 n=39 v=112
15936 On ch=10 n=40 v=112
15936 On ch=10 n=42 v=118
15940 On ch=10 n=39 v=0
15940 On ch=10 n=40 v=0
15940 On ch=10 n=42 v=0
15984 On ch=10 n=27 v=60
15988 On ch=10 n=27 v=0
16032 On ch=10 n=42 v=97
16036 On ch=10 n=42 v=0
16080 On ch=10 n=27 v=41
16080 On ch=10 n=35 v=80
16084 On ch=10 n=27 v=0
16084 On ch=10 n=35 v=0
16128 On ch=10 n=35 v=124
16128 On ch=10 n=42 v=115
16132 On ch=10 n=35 v=0
16132 On ch=10 n=42 v=0
16224 On ch=10 n=35 v=115
16224 On ch=10 n=42 v=109
16224 On ch=10 n=81 v=86
16228 On ch=10 n=35 v=0
16228 On ch=10 n=42 v=0
16228 On ch=10 n=81 v=0
16272 On ch=10 n=27 v=64
16276 On ch=10 n=27 v=0
16320 On ch=10 n=39 v=112
16320 On ch=10 n=40 v=112
16320 On ch=10 n=42 v=115
16324 On ch=10 n=39 v=0
16324 On ch=10 n=40 v=0
16324 On ch=10 n=42 v=0
16368 On ch=10 n=27 v=58
16368 On ch=10 n=70 v=64
16372 On ch=10 n=27 v=0
16372 On ch=10 n=70 v=0
16416 On ch=10 n=42 v=97
16416 On ch=10 n=82 v=67
16420 On ch=10 n=42 v=0
16420 On ch=10 n=82 v=0
16464 On ch=10 n=35 v=100
16464 On ch=10 n=70 v=94
16468 On ch=10 n=35 v=0
16468 On ch=10 n=70 v=0
16512 On ch=10 n=35 v=118
16512 On ch=10 n=42 v=112
16516 On ch=10 n=35 v=0
16516 On ch=10 n=42 v=0
16608 On ch=10 n=35 v=121
16608 On ch=10 n=42 v=86
16612 On ch=10 n=35 v=0
16612 On ch=10 n=42 v=0
16656 On ch=10 n=27 v=100
16660 On ch=10 n=27 v=0
16704 On ch=10 n=39 v=112
16704 On ch=10 n=40 v=112
16704 On ch=10 n=42 v=118
16708 On ch=10 n=39 v=0
16708 On ch=10 n=40 v=0
16708 On ch=10 n=42 v=0
16752 On ch=10 n=27 v=60
16756 On ch=10 n=27 v=0
16800 On ch=10 n=42 v=97
16804 On ch=10 n=42 v=0
16848 On ch=10 n=27 v=41
16848 On ch=10 n=35 v=80
16852 On ch=10 n=27 v=0
16852 On ch=10 n=35 v=0
16896 On ch=10 n=35 v=124
16896 On ch=10 n=42 v=115
16900 On ch=10 n=35 v=0
16900 On ch=10 n=42 v=0
16992 On ch=10 n=35 v=115
16992 On ch=10 n=42 v=109
16992 On ch=10 n=81 v=86
16996 On ch=10 n=35 v=0
16996 On ch=10 n=42 v=0
16996 On ch=10 n=81 v=0
17040 On ch=10 n=27 v=64
17044 On ch=10 n=27 v=0
17088 On ch=10 n=39 v=112
17088 On ch=10 n=40 v=112
17088 On ch=10 n=42 v=115
17092 On ch=10 n=39 v=0
17092 On ch=10 n=40 v=0
17092 On ch=10 n=42 v=0
17136 On ch=10 n=27 v=58
17136 On ch=10 n=70 v=64
17136 On ch=10 n=81 v=92
17140 On ch=10 n=27 v=0
17140 On ch=10 n=70 v=0
17140 On ch=10 n=81 v=0
17184 On ch=10 n=42 v=97
17184 On ch=10 n=82 v=67
17188 On ch=10 n=42 v=0
17188 On ch=10 n=82 v=0
17232 On ch=10 n=35 v=100
17232 On ch=10 n=70 v=94
17236 On ch=10 n=35 v=0
17236 On ch=10 n=70 v=0
17280 On ch=10 n=35 v=118
17280 On ch=10 n=42 v=112
17284 On ch=10 n=35 v=0
17284 On ch=10 n=42 v=0
17376 On ch=10 n=35 v=121
17376 On ch=10 n=42 v=86
17380 On ch=10 n=35 v=0
17380 On ch=10 n=42 v=0
17424 On ch=10 n=27 v=100
17428 On ch=10 n=27 v=0
17472 On ch=10 n=39 v=112
17472 On ch=10 n=40 v=112
17472 On ch=10 n=42 v=118
17476 On ch=10 n=39 v=0
17476 On ch=10 n=40 v=0
17476 On ch=10 n=42 v=0
17520 On ch=10 n=27 v=60
17524 On ch=10 n=27 v=0
17568 On ch=10 n=42 v=97
17572 On ch=10 n=42 v=0
17616 On ch=10 n=27 v=41
17616 On ch=10 n=35 v=80
17620 On ch=10 n=27 v=0
17620 On ch=10 n=35 v=0
17664 On ch=10 n=35 v=124
17664 On ch=10 n=42 v=115
17668 On ch=10 n=35 v=0
17668 On ch=10 n=42 v=0
17760 On ch=10 n=35 v=115
17760 On ch=10 n=42 v=109
17760 On ch=10 n=81 v=86
17764 On ch=10 n=35 v=0
17764 On ch=10 n=42 v=0
17764 On ch=10 n=81 v=0
17808 On ch=10 n=27 v=64
17812 On ch=10 n=27 v=0
17856 On ch=10 n=39 v=112
17856 On ch=10 n=40 v=112
17856 On ch=10 n=42 v=115
17860 On ch=10 n=39 v=0
17860 On ch=10 n=40 v=0
17860 On ch=10 n=42 v=0
17904 On ch=10 n=27 v=58
17904 On ch=10 n=70 v=64
17908 On ch=10 n=27 v=0
17908 On ch=10 n=70 v=0
17952 On ch=10 n=42 v=97
17952 On ch=10 n=82 v=67
17956 On ch=10 n=42 v=0
17956 On ch=10 n=82 v=0
18000 On ch=10 n=35 v=100
18000 On ch=10 n=70 v=94
18004 On ch=10 n=35 v=0
18004 On ch=10 n=70 v=0
18048 On ch=10 n=35 v=118
18048 On ch=10 n=42 v=112
18052 On ch=10 n=35 v=0
18052 On ch=10 n=42 v=0
18144 On ch=10 n=35 v=121
18144 On ch=10 n=42 v=86
18148 On ch=10 n=35 v=0
18148 On ch=10 n=42 v=0
18192 On ch=10 n=27 v=100
18196 On ch=10 n=27 v=0
18240 On ch=10 n=39 v=112
18240 On ch=10 n=40 v=112
18240 On ch=10 n=42 v=118
18244 On ch=10 n=39 v=0
18244 On ch=10 n=40 v=0
18244 On ch=10 n=42 v=0
18288 On ch=10 n=27 v=60
18292 On ch=10 n=27 v=0
18336 On ch=10 n=42 v=97
18340 On ch=10 n=42 v=0
18384 On ch=10 n=27 v=41
18384 On ch=10 n=35 v=80
18388 On ch=10 n=27 v=0
18388 On ch=10 n=35 v=0
18432 On ch=10 n=35 v=124
18432 On ch=10 n=42 v=115
18436 On ch=10 n=35 v=0
18436 On ch=10 n=42 v=0
18528 On ch=10 n=35 v=115
18528 On ch=10 n=42 v=109
18528 On ch=10 n=81 v=86
18532 On ch=10 n=35 v=0
18532 On ch=10 n=42 v=0
18532 On ch=10 n=81 v=0
18576 On ch=10 n=27 v=64
18580 On ch=10 n=27 v=0
18624 On ch=10 n=39 v=112
18624 On ch=10 n=40 v=112
18624 On ch=10 n=42 v=115
18628 On ch=10 n=39 v=0
18628 On ch=10 n=40 v=0
18628 On ch=10 n=42 v=0
18672 On ch=10 n=27 v=58
18672 On ch=10 n=70 v=64
18676 On ch=10 n=27 v=0
18676 On ch=10 n=70 v=0
18720 On ch=10 n=42 v=97
18720 On ch=10 n=82 v=67
18724 On ch=10 n=42 v=0
18724 On ch=10 n=82 v=0
18768 On ch=10 n=35 v=100
18768 On ch=10 n=70 v=94
18772 On ch=10 n=35 v=0
18772 On ch=10 n=70 v=0
18816 On ch=10 n=35 v=118
18816 On ch=10 n=42 v=112
18820 On ch=10 n=35 v=0
18820 On ch=10 n=42 v=0
18912 On ch=10 n=35 v=121
18912 On ch=10 n=42 v=86
18916 On ch=10 n=35 v=0
18916 On ch=10 n=42 v=0
18960 On ch=10 n=27 v=100
18964 On ch=10 n=27 v=0
19008 On ch=10 n=39 v=112
19008 On ch=10 n=40 v=112
19008 On ch=10 n=42 v=118
19012 On ch=10 n=39 v=0
19012 On ch=10 n=40 v=0
19012 On ch=10 n=42 v=0
19056 On ch=10 n=27 v=60
19060 On ch=10 n=27 v=0
19104 On ch=10 n=42 v=97
19108 On ch=10 n=42 v=0
19152 On ch=10 n=27 v=41
19152 On ch=10 n=35 v=80
19156 On ch=10 n=27 v=0
19156 On ch=10 n=35 v=0
19200 On ch=10 n=35 v=124
19200 On ch=10 n=42 v=115
19204 On ch=10 n=35 v=0
19204 On ch=10 n=42 v=0
19296 On ch=10 n=35 v=115
19296 On ch=10 n=42 v=109
19296 On ch=10 n=81 v=86
19300 On ch=10 n=35 v=0
19300 On ch=10 n=42 v=0
19300 On ch=10 n=81 v=0
19344 On ch=10 n=27 v=64
19348 On ch=10 n=27 v=0
19392 On ch=10 n=39 v=112
19392 On ch=10 n=40 v=112
19392 On ch=10 n=42 v=115
19396 On ch=10 n=39 v=0
19396 On ch=10 n=40 v=0
19396 On ch=10 n=42 v=0
19440 On ch=10 n=27 v=58
19440 On ch=10 n=70 v=64
19444 On ch=10 n=27 v=0
19444 On ch=10 n=70 v=0
19488 On ch=10 n=42 v=97
19488 On ch=10 n=82 v=67
19492 On ch=10 n=42 v=0
19492 On ch=10 n=82 v=0
19536 On ch=10 n=35 v=100
19536 On ch=10 n=70 v=94
19540 On ch=10 n=35 v=0
19540 On ch=10 n=70 v=0
19584 On ch=10 n=35 v=118
19584 On ch=10 n=42 v=112
19588 On ch=10 n=35 v=0
19588 On ch=10 n=42 v=0
19680 On ch=10 n=35 v=121
19680 On ch=10 n=42 v=86
19684 On ch=10 n=35 v=0
19684 On ch=10 n=42 v=0
19728 On ch=10 n=27 v=100
19732 On ch=10 n=27 v=0
19776 On ch=10 n=39 v=112
19776 On ch=10 n=40 v=112
19776 On ch=10 n=42 v=118
19780 On ch=10 n=39 v=0
19780 On ch=10 n=40 v=0
19780 On ch=10 n=42 v=0
19824 On ch=10 n=27 v=60
19828 On ch=10 n=27 v=0
19872 On ch=10 n=42 v=97
19876 On ch=10 n=42 v=0
19920 On ch=10 n=27 v=41
19920 On ch=10 n=35 v=80
19924 On ch=10 n=27 v=0
19924 On ch=10 n=35 v=0
19968 On ch=10 n=35 v=124
19968 On ch=10 n=42 v=115
19972 On ch=10 n=35 v=0
19972 On ch=10 n=42 v=0
20064 On ch=10 n=35 v=115
20064 On ch=10 n=42 v=109
20064 On ch=10 n=81 v=86
20068 On ch=10 n=35 v=0
20068 On ch=10 n=42 v=0
20068 On ch=10 n=81 v=0
20112 On ch=10 n=27 v=64
20116 On ch=10 n=27 v=0
20160 On ch=10 n=39 v=112
20160 On ch=10 n=40 v=112
20160 On ch=10 n=42 v=115
20164 On ch=10 n=39 v=0
20164 On ch=10 n=40 v=0
20164 On ch=10 n=42 v=0
20208 On ch=10 n=27 v=58
20208 On ch=10 n=70 v=64
20208 On ch=10 n=81 v=92
20212 On ch=10 n=27 v=0
20212 On ch=10 n=70 v=0
20212 On ch=10 n=81 v=0
20256 On ch=10 n=42 v=97
20256 On ch=10 n=82 v=67
20260 On ch=10 n=42 v=0
20260 On ch=10 n=82 v=0
20304 On ch=10 n=35 v=100
20304 On ch=10 n=70 v=94
20308 On ch=10 n=35 v=0
20308 On ch=10 n=70 v=0
20352 On ch=10 n=35 v=118
20352 On ch=10 n=42 v=121
20352 On ch=10 n=49 v=100
20356 On ch=10 n=35 v=0
20356 On ch=10 n=42 v=0
20356 On ch=10 n=49 v=0
20400 On ch=10 n=42 v=69
20404 On ch=10 n=42 v=0
20448 On ch=10 n=35 v=121
20448 On ch=10 n=42 v=118
20452 On ch=10 n=35 v=0
20452 On ch=10 n=42 v=0
20496 On ch=10 n=27 v=100
20496 On ch=10 n=42 v=62
20500 On ch=10 n=27 v=0
20500 On ch=10 n=42 v=0
20544 On ch=10 n=40 v=118
20544 On ch=10 n=42 v=121
20548 On ch=10 n=40 v=0
20548 On ch=10 n=42 v=0
20592 On ch=10 n=27 v=60
20592 On ch=10 n=42 v=62
20596 On ch=10 n=27 v=0
20596 On ch=10 n=42 v=0
20640 On ch=10 n=42 v=124
20644 On ch=10 n=42 v=0
20688 On ch=10 n=27 v=41
20688 On ch=10 n=35 v=80
20688 On ch=10 n=42 v=59
20692 On ch=10 n=27 v=0
20692 On ch=10 n=35 v=0
20692 On ch=10 n=42 v=0
20736 On ch=10 n=35 v=124
20736 On ch=10 n=42 v=118
20740 On ch=10 n=35 v=0
20740 On ch=10 n=42 v=0
20784 On ch=10 n=42 v=62
20788 On ch=10 n=42 v=0
20832 On ch=10 n=35 v=115
20832 On ch=10 n=42 v=118
20832 On ch=10 n=81 v=86
20836 On ch=10 n=35 v=0
20836 On ch=10 n=42 v=0
20836 On ch=10 n=81 v=0
20880 On ch=10 n=27 v=64
20880 On ch=10 n=42 v=64
20884 On ch=10 n=27 v=0
20884 On ch=10 n=42 v=0
20928 On ch=10 n=40 v=121
20928 On ch=10 n=42 v=118
20932 On ch=10 n=40 v=0
20932 On ch=10 n=42 v=0
20976 On ch=10 n=27 v=58
20976 On ch=10 n=42 v=72
20976 On ch=10 n=70 v=64
20980 On ch=10 n=27 v=0
20980 On ch=10 n=42 v=0
20980 On ch=10 n=70 v=0
21024 On ch=10 n=42 v=118
21024 On ch=10 n=82 v=67
21028 On ch=10 n=42 v=0
21028 On ch=10 n=82 v=0
21072 On ch=10 n=35 v=100
21072 On ch=10 n=42 v=74
21072 On ch=10 n=70 v=94
21076 On ch=10 n=35 v=0
21076 On ch=10 n=42 v=0
21076 On ch=10 n=70 v=0
21120 On ch=10 n=35 v=118
21120 On ch=10 n=42 v=121
21124 On ch=10 n=35 v=0
21124 On ch=10 n=42 v=0
21168 On ch=10 n=42 v=69
21172 On ch=10 n=42 v=0
21216 On ch=10 n=35 v=121
21216 On ch=10 n=42 v=118
21220 On ch=10 n=35 v=0
21220 On ch=10 n=42 v=0
21264 On ch=10 n=27 v=100
21264 On ch=10 n=42 v=62
21268 On ch=10 n=27 v=0
21268 On ch=10 n=42 v=0
21312 On ch=10 n=40 v=118
21312 On ch=10 n=42 v=121
21316 On ch=10 n=40 v=0
21316 On ch=10 n=42 v=0
21360 On ch=10 n=27 v=60
21360 On ch=10 n=42 v=62
21364 On ch=10 n=27 v=0
21364 On ch=10 n=42 v=0
21408 On ch=10 n=42 v=124
21412 On ch=10 n=42 v=0
21456 On ch=10 n=27 v=41
21456 On ch=10 n=35 v=80
21456 On ch=10 n=42 v=59
21460 On ch=10 n=27 v=0
21460 On ch=10 n=35 v=0
21460 On ch=10 n=42 v=0
21504 On ch=10 n=35 v=124
21504 On ch=10 n=42 v=118
21508 On ch=10 n=35 v=0
21508 On ch=10 n=42 v=0
21552 On ch=10 n=42 v=62
21556 On ch=10 n=42 v=0
21600 On ch=10 n=35 v=115
21600 On ch=10 n=42 v=118
21600 On ch=10 n=81 v=86
21604 On ch=10 n=35 v=0
21604 On ch=10 n=42 v=0
21604 On ch=10 n=81 v=0
21648 On ch=10 n=27 v=64
21648 On ch=10 n=42 v=64
21652 On ch=10 n=27 v=0
21652 On ch=10 n=42 v=0
21696 On ch=10 n=40 v=121
21696 On ch=10 n=42 v=118
21700 On ch=10 n=40 v=0
21700 On ch=10 n=42 v=0
21744 On ch=10 n=27 v=58
21744 On ch=10 n=42 v=72
21744 On ch=10 n=70 v=64
21748 On ch=10 n=27 v=0
21748 On ch=10 n=42 v=0
21748 On ch=10 n=70 v=0
21792 On ch=10 n=42 v=118
21792 On ch=10 n=82 v=67
21796 On ch=10 n=42 v=0
21796 On ch=10 n=82 v=0
21840 On ch=10 n=35 v=100
21840 On ch=10 n=42 v=74
21840 On ch=10 n=70 v=94
21844 On ch=10 n=35 v=0
21844 On ch=10 n=42 v=0
21844 On ch=10 n=70 v=0
21888 On ch=10 n=35 v=118
21888 On ch=10 n=42 v=121
21892 On ch=10 n=35 v=0
21892 On ch=10 n=42 v=0
21936 On ch=10 n=42 v=69
21940 On ch=10 n=42 v=0
21984 On ch=10 n=35 v=121
21984 On ch=10 n=42 v=118
21988 On ch=10 n=35 v=0
21988 On ch=10 n=42 v=0
22032 On ch=10 n=27 v=100
22032 On ch=10 n=42 v=62
22036 On ch=10 n=27 v=0
22036 On ch=10 n=42 v=0
22080 On ch=10 n=40 v=118
22080 On ch=10 n=42 v=121
22084 On ch=10 n=40 v=0
22084 On ch=10 n=42 v=0
22128 On ch=10 n=27 v=60
22128 On ch=10 n=42 v=62
22132 On ch=10 n=27 v=0
22132 On ch=10 n=42 v=0
22176 On ch=10 n=42 v=124
22180 On ch=10 n=42 v=0
22224 On ch=10 n=27 v=41
22224 On ch=10 n=35 v=80
22224 On ch=10 n=42 v=59
22228 On ch=10 n=27 v=0
22228 On ch=10 n=35 v=0
22228 On ch=10 n=42 v=0
22272 On ch=10 n=35 v=124
22272 On ch=10 n=42 v=118
22276 On ch=10 n=35 v=0
22276 On ch=10 n=42 v=0
22320 On ch=10 n=42 v=62
22324 On ch=10 n=42 v=0
22368 On ch=10 n=35 v=115
22368 On ch=10 n=42 v=118
22368 On ch=10 n=81 v=86
22372 On ch=10 n=35 v=0
22372 On ch=10 n=42 v=0
22372 On ch=10 n=81 v=0
22416 On ch=10 n=27 v=64
22416 On ch=10 n=42 v=64
22420 On ch=10 n=27 v=0
22420 On ch=10 n=42 v=0
22464 On ch=10 n=40 v=121
22464 On ch=10 n=42 v=118
22468 On ch=10 n=40 v=0
22468 On ch=10 n=42 v=0
22512 On ch=10 n=27 v=58
22512 On ch=10 n=42 v=72
22512 On ch=10 n=70 v=64
22516 On ch=10 n=27 v=0
22516 On ch=10 n=42 v=0
22516 On ch=10 n=70 v=0
22560 On ch=10 n=42 v=118
22560 On ch=10 n=82 v=67
22564 On ch=10 n=42 v=0
22564 On ch=10 n=82 v=0
22608 On ch=10 n=35 v=100
22608 On ch=10 n=42 v=74
22608 On ch=10 n=70 v=94
22612 On ch=10 n=35 v=0
22612 On ch=10 n=42 v=0
22612 On ch=10 n=70 v=0
22656 On ch=10 n=35 v=118
22656 On ch=10 n=42 v=121
22660 On ch=10 n=35 v=0
22660 On ch=10 n=42 v=0
22704 On ch=10 n=42 v=69
22708 On ch=10 n=42 v=0
22752 On ch=10 n=35 v=121
22752 On ch=10 n=42 v=118
22756 On ch=10 n=35 v=0
22756 On ch=10 n=42 v=0
22800 On ch=10 n=27 v=100
22800 On ch=10 n=42 v=62
22804 On ch=10 n=27 v=0
22804 On ch=10 n=42 v=0
22848 On ch=10 n=40 v=118
22848 On ch=10 n=42 v=121
22852 On ch=10 n=40 v=0
22852 On ch=10 n=42 v=0
22896 On ch=10 n=27 v=60
22896 On ch=10 n=42 v=62
22900 On ch=10 n=27 v=0
22900 On ch=10 n=42 v=0
22944 On ch=10 n=42 v=124
22948 On ch=10 n=42 v=0
22992 On ch=10 n=27 v=41
22992 On ch=10 n=35 v=80
22992 On ch=10 n=42 v=59
22996 On ch=10 n=27 v=0
22996 On ch=10 n=35 v=0
22996 On ch=10 n=42 v=0
23040 On ch=10 n=35 v=124
23040 On ch=10 n=42 v=118
23044 On ch=10 n=35 v=0
23044 On ch=10 n=42 v=0
23088 On ch=10 n=42 v=62
23092 On ch=10 n=42 v=0
23136 On ch=10 n=35 v=115
23136 On ch=10 n=42 v=118
23136 On ch=10 n=81 v=86
23140 On ch=10 n=35 v=0
23140 On ch=10 n=42 v=0
23140 On ch=10 n=81 v=0
23184 On ch=10 n=27 v=64
23184 On ch=10 n=42 v=64
23184 On ch=10 n=43 v=112
23188 On ch=10 n=27 v=0
23188 On ch=10 n=42 v=0
23188 On ch=10 n=43 v=0
23232 On ch=10 n=40 v=124
23232 On ch=10 n=42 v=118
23236 On ch=10 n=40 v=0
23236 On ch=10 n=42 v=0
23280 On ch=10 n=27 v=58
23280 On ch=10 n=42 v=72
23280 On ch=10 n=70 v=64
23284 On ch=10 n=27 v=0
23284 On ch=10 n=42 v=0
23284 On ch=10 n=70 v=0
23328 On ch=10 n=35 v=121
23328 On ch=10 n=42 v=118
23328 On ch=10 n=82 v=67
23332 On ch=10 n=35 v=0
23332 On ch=10 n=42 v=0
23332 On ch=10 n=82 v=0
23376 On ch=10 n=35 v=100
23376 On ch=10 n=42 v=74
23376 On ch=10 n=70 v=94
23380 On ch=10 n=35 v=0
23380 On ch=10 n=42 v=0
23380 On ch=10 n=70 v=0
23424 On ch=10 n=35 v=118
23424 On ch=10 n=42 v=121
23424 On ch=10 n=49 v=100
23428 On ch=10 n=35 v=0
23428 On ch=10 n=42 v=0
23428 On ch=10 n=49 v=0
23472 On ch=10 n=42 v=69
23476 On ch=10 n=42 v=0
23520 On ch=10 n=35 v=121
23520 On ch=10 n=42 v=118
23524 On ch=10 n=35 v=0
23524 On ch=10 n=42 v=0
23568 On ch=10 n=27 v=100
23568 On ch=10 n=42 v=62
23572 On ch=10 n=27 v=0
23572 On ch=10 n=42 v=0
23616 On ch=10 n=40 v=118
23616 On ch=10 n=42 v=121
23620 On ch=10 n=40 v=0
23620 On ch=10 n=42 v=0
23664 On ch=10 n=27 v=60
23664 On ch=10 n=42 v=62
23668 On ch=10 n=27 v=0
23668 On ch=10 n=42 v=0
23712 On ch=10 n=42 v=124
23716 On ch=10 n=42 v=0
23760 On ch=10 n=27 v=41
23760 On ch=10 n=35 v=80
23760 On ch=10 n=42 v=59
23764 On ch=10 n=27 v=0
23764 On ch=10 n=35 v=0
23764 On ch=10 n=42 v=0
23808 On ch=10 n=35 v=124
23808 On ch=10 n=42 v=118
23812 On ch=10 n=35 v=0
23812 On ch=10 n=42 v=0
23856 On ch=10 n=42 v=62
23860 On ch=10 n=42 v=0
23904 On ch=10 n=35 v=115
23904 On ch=10 n=42 v=118
23904 On ch=10 n=81 v=86
23908 On ch=10 n=35 v=0
23908 On ch=10 n=42 v=0
23908 On ch=10 n=81 v=0
23952 On ch=10 n=27 v=64
23952 On ch=10 n=42 v=64
23956 On ch=10 n=27 v=0
23956 On ch=10 n=42 v=0
24000 On ch=10 n=40 v=121
24000 On ch=10 n=42 v=118
24004 On ch=10 n=40 v=0
24004 On ch=10 n=42 v=0
24048 On ch=10 n=27 v=58
24048 On ch=10 n=42 v=72
24048 On ch=10 n=70 v=64
24052 On ch=10 n=27 v=0
24052 On ch=10 n=42 v=0
24052 On ch=10 n=70 v=0
24096 On ch=10 n=42 v=118
24096 On ch=10 n=82 v=67
24100 On ch=10 n=42 v=0
24100 On ch=10 n=82 v=0
24144 On ch=10 n=35 v=100
24144 On ch=10 n=42 v=74
24144 On ch=10 n=70 v=94
24148 On ch=10 n=35 v=0
24148 On ch=10 n=42 v=0
24148 On ch=10 n=70 v=0
24192 On ch=10 n=35 v=118
24192 On ch=10 n=42 v=121
24196 On ch=10 n=35 v=0
24196 On ch=10 n=42 v=0
24240 On ch=10 n=42 v=69
24244 On ch=10 n=42 v=0
24288 On ch=10 n=35 v=121
24288 On ch=10 n=42 v=118
24292 On ch=10 n=35 v=0
24292 On ch=10 n=42 v=0
24336 On ch=10 n=27 v=100
24336 On ch=10 n=42 v=62
24340 On ch=10 n=27 v=0
24340 On ch=10 n=42 v=0
24384 On ch=10 n=40 v=118
24384 On ch=10 n=42 v=121
24388 On ch=10 n=40 v=0
24388 On ch=10 n=42 v=0
24432 On ch=10 n=27 v=60
24432 On ch=10 n=42 v=62
24436 On ch=10 n=27 v=0
24436 On ch=10 n=42 v=0
24480 On ch=10 n=42 v=124
24484 On ch=10 n=42 v=0
24528 On ch=10 n=27 v=41
24528 On ch=10 n=35 v=80
24528 On ch=10 n=42 v=59
24532 On ch=10 n=27 v=0
24532 On ch=10 n=35 v=0
24532 On ch=10 n=42 v=0
24576 On ch=10 n=35 v=124
24576 On ch=10 n=42 v=118
24580 On ch=10 n=35 v=0
24580 On ch=10 n=42 v=0
24624 On ch=10 n=42 v=62
24628 On ch=10 n=42 v=0
24672 On ch=10 n=35 v=115
24672 On ch=10 n=42 v=118
24672 On ch=10 n=81 v=86
24676 On ch=10 n=35 v=0
24676 On ch=10 n=42 v=0
24676 On ch=10 n=81 v=0
24720 On ch=10 n=27 v=64
24720 On ch=10 n=42 v=64
24724 On ch=10 n=27 v=0
24724 On ch=10 n=42 v=0
24768 On ch=10 n=40 v=121
24768 On ch=10 n=42 v=118
24772 On ch=10 n=40 v=0
24772 On ch=10 n=42 v=0
24816 On ch=10 n=27 v=58
24816 On ch=10 n=42 v=72
24816 On ch=10 n=70 v=64
24820 On ch=10 n=27 v=0
24820 On ch=10 n=42 v=0
24820 On ch=10 n=70 v=0
24864 On ch=10 n=42 v=118
24864 On ch=10 n=82 v=67
24868 On ch=10 n=42 v=0
24868 On ch=10 n=82 v=0
24912 On ch=10 n=35 v=100
24912 On ch=10 n=42 v=74
24912 On ch=10 n=70 v=94
24916 On ch=10 n=35 v=0
24916 On ch=10 n=42 v=0
24916 On ch=10 n=70 v=0
24960 On ch=10 n=35 v=118
24960 On ch=10 n=42 v=121
24964 On ch=10 n=35 v=0
24964 On ch=10 n=42 v=0
25008 On ch=10 n=42 v=69
25012 On ch=10 n=42 v=0
25056 On ch=10 n=35 v=121
25056 On ch=10 n=42 v=118
25060 On ch=10 n=35 v=0
25060 On ch=10 n=42 v=0
25104 On ch=10 n=27 v=100
25104 On ch=10 n=42 v=62
25108 On ch=10 n=27 v=0
25108 On ch=10 n=42 v=0
25152 On ch=10 n=40 v=118
25152 On ch=10 n=42 v=121
25156 On ch=10 n=40 v=0
25156 On ch=10 n=42 v=0
25200 On ch=10 n=27 v=60
25200 On ch=10 n=42 v=62
25204 On ch=10 n=27 v=0
25204 On ch=10 n=42 v=0
25248 On ch=10 n=42 v=124
25252 On ch=10 n=42 v=0
25296 On ch=10 n=27 v=41
25296 On ch=10 n=35 v=80
25296 On ch=10 n=42 v=59
25300 On ch=10 n=27 v=0
25300 On ch=10 n=35 v=0
25300 On ch=10 n=42 v=0
25344 On ch=10 n=35 v=124
25344 On ch=10 n=42 v=118
25348 On ch=10 n=35 v=0
25348 On ch=10 n=42 v=0
25392 On ch=10 n=42 v=62
25396 On ch=10 n=42 v=0
25440 On ch=10 n=35 v=115
25440 On ch=10 n=42 v=118
25440 On ch=10 n=81 v=86
25444 On ch=10 n=35 v=0
25444 On ch=10 n=42 v=0
25444 On ch=10 n=81 v=0
25488 On ch=10 n=27 v=64
25488 On ch=10 n=42 v=64
25492 On ch=10 n=27 v=0
25492 On ch=10 n=42 v=0
25536 On ch=10 n=40 v=121
25536 On ch=10 n=42 v=118
25540 On ch=10 n=40 v=0
25540 On ch=10 n=42 v=0
25584 On ch=10 n=27 v=58
25584 On ch=10 n=42 v=72
25584 On ch=10 n=70 v=64
25588 On ch=10 n=27 v=0
25588 On ch=10 n=42 v=0
25588 On ch=10 n=70 v=0
25632 On ch=10 n=42 v=118
25632 On ch=10 n=82 v=67
25636 On ch=10 n=42 v=0
25636 On ch=10 n=82 v=0
25680 On ch=10 n=35 v=100
25680 On ch=10 n=42 v=74
25680 On ch=10 n=70 v=94
25684 On ch=10 n=35 v=0
25684 On ch=10 n=42 v=0
25684 On ch=10 n=70 v=0
25728 On ch=10 n=35 v=118
25728 On ch=10 n=42 v=121
25732 On ch=10 n=35 v=0
25732 On ch=10 n=42 v=0
25776 On ch=10 n=42 v=69
25780 On ch=10 n=42 v=0
25824 On ch=10 n=35 v=121
25824 On ch=10 n=42 v=118
25828 On ch=10 n=35 v=0
25828 On ch=10 n=42 v=0
25872 On ch=10 n=27 v=100
25872 On ch=10 n=42 v=62
25876 On ch=10 n=27 v=0
25876 On ch=10 n=42 v=0
25920 On ch=10 n=40 v=118
25920 On ch=10 n=42 v=121
25924 On ch=10 n=40 v=0
25924 On ch=10 n=42 v=0
25968 On ch=10 n=27 v=60
25968 On ch=10 n=42 v=62
25972 On ch=10 n=27 v=0
25972 On ch=10 n=42 v=0
26016 On ch=10 n=42 v=124
26020 On ch=10 n=42 v=0
26064 On ch=10 n=27 v=41
26064 On ch=10 n=35 v=80
26064 On ch=10 n=42 v=59
26068 On ch=10 n=27 v=0
26068 On ch=10 n=35 v=0
26068 On ch=10 n=42 v=0
26112 On ch=10 n=35 v=124
26112 On ch=10 n=42 v=118
26116 On ch=10 n=35 v=0
26116 On ch=10 n=42 v=0
26160 On ch=10 n=42 v=62
26164 On ch=10 n=42 v=0
26208 On ch=10 n=35 v=115
26208 On ch=10 n=42 v=118
26208 On ch=10 n=81 v=86
26212 On ch=10 n=35 v=0
26212 On ch=10 n=42 v=0
26212 On ch=10 n=81 v=0
26256 On ch=10 n=27 v=64
26256 On ch=10 n=42 v=64
26256 On ch=10 n=43 v=112
26260 On ch=10 n=27 v=0
26260 On ch=10 n=42 v=0
26260 On ch=10 n=43 v=0
26304 On ch=10 n=40 v=124
26304 On ch=10 n=42 v=118
26308 On ch=10 n=40 v=0
26308 On ch=10 n=42 v=0
26352 On ch=10 n=27 v=58
26352 On ch=10 n=42 v=72
26352 On ch=10 n=70 v=64
26356 On ch=10 n=27 v=0
26356 On ch=10 n=42 v=0
26356 On ch=10 n=70 v=0
26400 On ch=10 n=35 v=121
26400 On ch=10 n=42 v=118
26400 On ch=10 n=82 v=67
26404 On ch=10 n=35 v=0
26404 On ch=10 n=42 v=0
26404 On ch=10 n=82 v=0
26448 On ch=10 n=35 v=100
26448 On ch=10 n=42 v=74
26448 On ch=10 n=70 v=94
26452 On ch=10 n=35 v=0
26452 On ch=10 n=42 v=0
26452 On ch=10 n=70 v=0
26496 On ch=10 n=35 v=118
26496 On ch=10 n=42 v=121
26496 On ch=10 n=49 v=100
26500 On ch=10 n=35 v=0
26500 On ch=10 n=42 v=0
26500 On ch=10 n=49 v=0
26544 On ch=10 n=42 v=69
26548 On ch=10 n=42 v=0
26592 On ch=10 n=35 v=121
26592 On ch=10 n=42 v=118
26596 On ch=10 n=35 v=0
26596 On ch=10 n=42 v=0
26640 On ch=10 n=27 v=100
26640 On ch=10 n=42 v=62
26644 On ch=10 n=27 v=0
26644 On ch=10 n=42 v=0
26688 On ch=10 n=40 v=118
26688 On ch=10 n=42 v=121
26692 On ch=10 n=40 v=0
26692 On ch=10 n=42 v=0
26736 On ch=10 n=27 v=60
26736 On ch=10 n=42 v=62
26740 On ch=10 n=27 v=0
26740 On ch=10 n=42 v=0
26784 On ch=10 n=42 v=124
26788 On ch=10 n=42 v=0
26832 On ch=10 n=27 v=41
26832 On ch=10 n=35 v=80
26832 On ch=10 n=42 v=59
26836 On ch=10 n=27 v=0
26836 On ch=10 n=35 v=0
26836 On ch=10 n=42 v=0
26880 On ch=10 n=35 v=124
26880 On ch=10 n=42 v=118
26884 On ch=10 n=35 v=0
26884 On ch=10 n=42 v=0
26928 On ch=10 n=42 v=62
26932 On ch=10 n=42 v=0
26976 On ch=10 n=35 v=115
26976 On ch=10 n=42 v=118
26976 On ch=10 n=81 v=86
26980 On ch=10 n=35 v=0
26980 On ch=10 n=42 v=0
26980 On ch=10 n=81 v=0
27024 On ch=10 n=27 v=64
27024 On ch=10 n=42 v=64
27028 On ch=10 n=27 v=0
27028 On ch=10 n=42 v=0
27072 On ch=10 n=40 v=121
27072 On ch=10 n=42 v=118
27076 On ch=10 n=40 v=0
27076 On ch=10 n=42 v=0
27120 On ch=10 n=27 v=58
27120 On ch=10 n=42 v=72
27120 On ch=10 n=70 v=64
27124 On ch=10 n=27 v=0
27124 On ch=10 n=42 v=0
27124 On ch=10 n=70 v=0
27168 On ch=10 n=42 v=118
27168 On ch=10 n=82 v=67
27172 On ch=10 n=42 v=0
27172 On ch=10 n=82 v=0
27216 On ch=10 n=35 v=100
27216 On ch=10 n=42 v=74
27216 On ch=10 n=70 v=94
27220 On ch=10 n=35 v=0
27220 On ch=10 n=42 v=0
27220 On ch=10 n=70 v=0
27264 On ch=10 n=35 v=118
27264 On ch=10 n=42 v=121
27264 On ch=10 n=57 v=97
27268 On ch=10 n=35 v=0
27268 On ch=10 n=42 v=0
27268 On ch=10 n=57 v=0
27312 On ch=10 n=42 v=69
27316 On ch=10 n=42 v=0
27360 On ch=10 n=35 v=121
27360 On ch=10 n=42 v=118
27364 On ch=10 n=35 v=0
27364 On ch=10 n=42 v=0
27408 On ch=10 n=27 v=100
27408 On ch=10 n=42 v=62
27412 On ch=10 n=27 v=0
27412 On ch=10 n=42 v=0
27456 On ch=10 n=40 v=118
27456 On ch=10 n=42 v=121
27460 On ch=10 n=40 v=0
27460 On ch=10 n=42 v=0
27504 On ch=10 n=27 v=60
27504 On ch=10 n=42 v=62
27508 On ch=10 n=27 v=0
27508 On ch=10 n=42 v=0
27552 On ch=10 n=42 v=124
27556 On ch=10 n=42 v=0
27600 On ch=10 n=27 v=41
27600 On ch=10 n=35 v=80
27600 On ch=10 n=42 v=59
27604 On ch=10 n=27 v=0
27604 On ch=10 n=35 v=0
27604 On ch=10 n=42 v=0
27648 On ch=10 n=35 v=124
27648 On ch=10 n=42 v=118
27652 On ch=10 n=35 v=0
27652 On ch=10 n=42 v=0
27696 On ch=10 n=42 v=62
27700 On ch=10 n=42 v=0
27744 On ch=10 n=35 v=115
27744 On ch=10 n=42 v=118
27744 On ch=10 n=81 v=86
27748 On ch=10 n=35 v=0
27748 On ch=10 n=42 v=0
27748 On ch=10 n=81 v=0
27792 On ch=10 n=27 v=64
27792 On ch=10 n=42 v=64
27796 On ch=10 n=27 v=0
27796 On ch=10 n=42 v=0
27840 On ch=10 n=40 v=121
27840 On ch=10 n=42 v=118
27844 On ch=10 n=40 v=0
27844 On ch=10 n=42 v=0
27888 On ch=10 n=27 v=58
27888 On ch=10 n=42 v=72
27888 On ch=10 n=70 v=64
27892 On ch=10 n=27 v=0
27892 On ch=10 n=42 v=0
27892 On ch=10 n=70 v=0
27936 On ch=10 n=42 v=118
27936 On ch=10 n=82 v=67
27940 On ch=10 n=42 v=0
27940 On ch=10 n=82 v=0
27984 On ch=10 n=35 v=100
27984 On ch=10 n=42 v=74
27984 On ch=10 n=70 v=94
27988 On ch=10 n=35 v=0
27988 On ch=10 n=42 v=0
27988 On ch=10 n=70 v=0
28032 On ch=10 n=35 v=118
28032 On ch=10 n=42 v=121
28036 On ch=10 n=35 v=0
28036 On ch=10 n=42 v=0
28080 On ch=10 n=42 v=69
28084 On ch=10 n=42 v=0
28128 On ch=10 n=35 v=121
28128 On ch=10 n=42 v=118
28132 On ch=10 n=35 v=0
28132 On ch=10 n=42 v=0
28176 On ch=10 n=27 v=100
28176 On ch=10 n=42 v=62
28180 On ch=10 n=27 v=0
28180 On ch=10 n=42 v=0
28224 On ch=10 n=40 v=118
28224 On ch=10 n=42 v=121
28228 On ch=10 n=40 v=0
28228 On ch=10 n=42 v=0
28272 On ch=10 n=27 v=60
28272 On ch=10 n=42 v=62
28276 On ch=10 n=27 v=0
28276 On ch=10 n=42 v=0
28320 On ch=10 n=42 v=124
28324 On ch=10 n=42 v=0
28368 On ch=10 n=27 v=41
28368 On ch=10 n=35 v=80
28368 On ch=10 n=42 v=59
28372 On ch=10 n=27 v=0
28372 On ch=10 n=35 v=0
28372 On ch=10 n=42 v=0
28416 On ch=10 n=35 v=124
28416 On ch=10 n=42 v=118
28420 On ch=10 n=35 v=0
28420 On ch=10 n=42 v=0
28464 On ch=10 n=42 v=62
28468 On ch=10 n=42 v=0
28512 On ch=10 n=35 v=115
28512 On ch=10 n=40 v=84
28512 On ch=10 n=42 v=118
28512 On ch=10 n=81 v=86
28516 On ch=10 n=35 v=0
28516 On ch=10 n=40 v=0
28516 On ch=10 n=42 v=0
28516 On ch=10 n=81 v=0
28560 On ch=10 n=27 v=64
28560 On ch=10 n=40 v=90
28560 On ch=10 n=42 v=64
28564 On ch=10 n=27 v=0
28564 On ch=10 n=40 v=0
28564 On ch=10 n=42 v=0
28608 On ch=10 n=40 v=124
28608 On ch=10 n=42 v=118
28612 On ch=10 n=40 v=0
28612 On ch=10 n=42 v=0
28656 On ch=10 n=27 v=58
28656 On ch=10 n=40 v=94
28656 On ch=10 n=42 v=72
28656 On ch=10 n=70 v=64
28660 On ch=10 n=27 v=0
28660 On ch=10 n=40 v=0
28660 On ch=10 n=42 v=0
28660 On ch=10 n=70 v=0
28704 On ch=10 n=40 v=112
28704 On ch=10 n=42 v=118
28704 On ch=10 n=82 v=67
28708 On ch=10 n=40 v=0
28708 On ch=10 n=42 v=0
28708 On ch=10 n=82 v=0
28752 On ch=10 n=35 v=100
28752 On ch=10 n=40 v=115
28752 On ch=10 n=42 v=74
28752 On ch=10 n=70 v=94
28756 On ch=10 n=35 v=0
28756 On ch=10 n=40 v=0
28756 On ch=10 n=42 v=0
28756 On ch=10 n=70 v=0
28800 On ch=10 n=35 v=118
28800 On ch=10 n=42 v=121
28800 On ch=10 n=49 v=100
28804 On ch=10 n=35 v=0
28804 On ch=10 n=42 v=0
28804 On ch=10 n=49 v=0
28848 On ch=10 n=42 v=69
28852 On ch=10 n=42 v=0
28896 On ch=10 n=35 v=121
28896 On ch=10 n=42 v=118
28900 On ch=10 n=35 v=0
28900 On ch=10 n=42 v=0
28944 On ch=10 n=27 v=100
28944 On ch=10 n=42 v=62
28948 On ch=10 n=27 v=0
28948 On ch=10 n=42 v=0
28992 On ch=10 n=40 v=118
28992 On ch=10 n=42 v=121
28996 On ch=10 n=40 v=0
28996 On ch=10 n=42 v=0
29040 On ch=10 n=27 v=60
29040 On ch=10 n=42 v=62
29044 On ch=10 n=27 v=0
29044 On ch=10 n=42 v=0
29088 On ch=10 n=42 v=124
29092 On ch=10 n=42 v=0
29136 On ch=10 n=27 v=41
29136 On ch=10 n=35 v=80
29136 On ch=10 n=42 v=59
29140 On ch=10 n=27 v=0
29140 On ch=10 n=35 v=0
29140 On ch=10 n=42 v=0
29184 On ch=10 n=35 v=124
29184 On ch=10 n=42 v=118
29188 On ch=10 n=35 v=0
29188 On ch=10 n=42 v=0
29232 On ch=10 n=42 v=62
29236 On ch=10 n=42 v=0
29280 On ch=10 n=35 v=115
29280 On ch=10 n=42 v=118
29280 On ch=10 n=81 v=86
29284 On ch=10 n=35 v=0
29284 On ch=10 n=42 v=0
29284 On ch=10 n=81 v=0
29328 On ch=10 n=27 v=64
29328 On ch=10 n=42 v=64
29332 On ch=10 n=27 v=0
29332 On ch=10 n=42 v=0
29376 On ch=10 n=40 v=121
29376 On ch=10 n=42 v=118
29380 On ch=10 n=40 v=0
29380 On ch=10 n=42 v=0
29424 On ch=10 n=27 v=58
29424 On ch=10 n=42 v=72
29424 On ch=10 n=70 v=64
29428 On ch=10 n=27 v=0
29428 On ch=10 n=42 v=0
29428 On ch=10 n=70 v=0
29472 On ch=10 n=42 v=118
29472 On ch=10 n=82 v=67
29476 On ch=10 n=42 v=0
29476 On ch=10 n=82 v=0
29520 On ch=10 n=35 v=100
29520 On ch=10 n=42 v=74
29520 On ch=10 n=70 v=94
29524 On ch=10 n=35 v=0
29524 On ch=10 n=42 v=0
29524 On ch=10 n=70 v=0
29568 On ch=10 n=35 v=118
29568 On ch=10 n=42 v=121
29572 On ch=10 n=35 v=0
29572 On ch=10 n=42 v=0
29616 On ch=10 n=42 v=69
29620 On ch=10 n=42 v=0
29664 On ch=10 n=35 v=121
29664 On ch=10 n=42 v=118
29668 On ch=10 n=35 v=0
29668 On ch=10 n=42 v=0
29712 On ch=10 n=27 v=100
29712 On ch=10 n=42 v=62
29716 On ch=10 n=27 v=0
29716 On ch=10 n=42 v=0
29760 On ch=10 n=40 v=118
29760 On ch=10 n=42 v=121
29764 On ch=10 n=40 v=0
29764 On ch=10 n=42 v=0
29808 On ch=10 n=27 v=60
29808 On ch=10 n=42 v=62
29812 On ch=10 n=27 v=0
29812 On ch=10 n=42 v=0
29856 On ch=10 n=42 v=124
29860 On ch=10 n=42 v=0
29904 On ch=10 n=27 v=41
29904 On ch=10 n=35 v=80
29904 On ch=10 n=42 v=59
29908 On ch=10 n=27 v=0
29908 On ch=10 n=35 v=0
29908 On ch=10 n=42 v=0
29952 On ch=10 n=35 v=124
29952 On ch=10 n=42 v=118
29956 On ch=10 n=35 v=0
29956 On ch=10 n=42 v=0
30000 On ch=10 n=42 v=62
30004 On ch=10 n=42 v=0
30048 On ch=10 n=35 v=115
30048 On ch=10 n=42 v=118
30048 On ch=10 n=81 v=86
30052 On ch=10 n=35 v=0
30052 On ch=10 n=42 v=0
30052 On ch=10 n=81 v=0
30096 On ch=10 n=27 v=64
30096 On ch=10 n=42 v=64
30100 On ch=10 n=27 v=0
30100 On ch=10 n=42 v=0
30144 On ch=10 n=40 v=121
30144 On ch=10 n=42 v=118
30148 On ch=10 n=40 v=0
30148 On ch=10 n=42 v=0
30192 On ch=10 n=27 v=58
30192 On ch=10 n=42 v=72
30192 On ch=10 n=70 v=64
30196 On ch=10 n=27 v=0
30196 On ch=10 n=42 v=0
30196 On ch=10 n=70 v=0
30240 On ch=10 n=42 v=118
30240 On ch=10 n=82 v=67
30244 On ch=10 n=42 v=0
30244 On ch=10 n=82 v=0
30288 On ch=10 n=35 v=100
30288 On ch=10 n=42 v=74
30288 On ch=10 n=70 v=94
30292 On ch=10 n=35 v=0
30292 On ch=10 n=42 v=0
30292 On ch=10 n=70 v=0
30336 On ch=10 n=35 v=118
30336 On ch=10 n=42 v=121
30340 On ch=10 n=35 v=0
30340 On ch=10 n=42 v=0
30384 On ch=10 n=42 v=69
30388 On ch=10 n=42 v=0
30432 On ch=10 n=35 v=121
30432 On ch=10 n=42 v=118
30436 On ch=10 n=35 v=0
30436 On ch=10 n=42 v=0
30480 On ch=10 n=27 v=100
30480 On ch=10 n=42 v=62
30484 On ch=10 n=27 v=0
30484 On ch=10 n=42 v=0
30528 On ch=10 n=40 v=118
30528 On ch=10 n=42 v=121
30532 On ch=10 n=40 v=0
30532 On ch=10 n=42 v=0
30576 On ch=10 n=27 v=60
30576 On ch=10 n=42 v=62
30580 On ch=10 n=27 v=0
30580 On ch=10 n=42 v=0
30624 On ch=10 n=42 v=124
30628 On ch=10 n=42 v=0
30672 On ch=10 n=27 v=41
30672 On ch=10 n=35 v=80
30672 On ch=10 n=42 v=59
30676 On ch=10 n=27 v=0
30676 On ch=10 n=35 v=0
30676 On ch=10 n=42 v=0
30720 On ch=10 n=35 v=124
30720 On ch=10 n=42 v=118
30724 On ch=10 n=35 v=0
30724 On ch=10 n=42 v=0
30768 On ch=10 n=42 v=62
30772 On ch=10 n=42 v=0
30816 On ch=10 n=35 v=115
30816 On ch=10 n=42 v=118
30816 On ch=10 n=81 v=86
30820 On ch=10 n=35 v=0
30820 On ch=10 n=42 v=0
30820 On ch=10 n=81 v=0
30864 On ch=10 n=27 v=64
30864 On ch=10 n=42 v=64
30868 On ch=10 n=27 v=0
30868 On ch=10 n=42 v=0
30912 On ch=10 n=40 v=121
30912 On ch=10 n=42 v=118
30916 On ch=10 n=40 v=0
30916 On ch=10 n=42 v=0
30960 On ch=10 n=27 v=58
30960 On ch=10 n=42 v=72
30960 On ch=10 n=70 v=64
30964 On ch=10 n=27 v=0
30964 On ch=10 n=42 v=0
30964 On ch=10 n=70 v=0
31008 On ch=10 n=42 v=118
31008 On ch=10 n=82 v=67
31012 On ch=10 n=42 v=0
31012 On ch=10 n=82 v=0
31056 On ch=10 n=35 v=100
31056 On ch=10 n=42 v=74
31056 On ch=10 n=70 v=94
31060 On ch=10 n=35 v=0
31060 On ch=10 n=42 v=0
31060 On ch=10 n=70 v=0
31104 On ch=10 n=35 v=118
31104 On ch=10 n=42 v=121
31108 On ch=10 n=35 v=0
31108 On ch=10 n=42 v=0
31152 On ch=10 n=42 v=69
31156 On ch=10 n=42 v=0
31200 On ch=10 n=35 v=121
31200 On ch=10 n=42 v=118
31204 On ch=10 n=35 v=0
31204 On ch=10 n=42 v=0
31248 On ch=10 n=27 v=100
31248 On ch=10 n=42 v=62
31252 On ch=10 n=27 v=0
31252 On ch=10 n=42 v=0
31296 On ch=10 n=40 v=118
31296 On ch=10 n=42 v=121
31300 On ch=10 n=40 v=0
31300 On ch=10 n=42 v=0
31344 On ch=10 n=27 v=60
31344 On ch=10 n=42 v=62
31348 On ch=10 n=27 v=0
31348 On ch=10 n=42 v=0
31392 On ch=10 n=42 v=124
31396 On ch=10 n=42 v=0
31440 On ch=10 n=27 v=41
31440 On ch=10 n=35 v=80
31440 On ch=10 n=42 v=59
31444 On ch=10 n=27 v=0
31444 On ch=10 n=35 v=0
31444 On ch=10 n=42 v=0
31488 On ch=10 n=35 v=124
31488 On ch=10 n=42 v=118
31492 On ch=10 n=35 v=0
31492 On ch=10 n=42 v=0
31536 On ch=10 n=42 v=62
31540 On ch=10 n=42 v=0
31584 On ch=10 n=35 v=115
31584 On ch=10 n=42 v=118
31584 On ch=10 n=81 v=86
31588 On ch=10 n=35 v=0
31588 On ch=10 n=42 v=0
31588 On ch=10 n=81 v=0
31632 On ch=10 n=27 v=64
31632 On ch=10 n=35 v=100
31632 On ch=10 n=42 v=64
31636 On ch=10 n=27 v=0
31636 On ch=10 n=35 v=0
31636 On ch=10 n=42 v=0
31680 On ch=10 n=40 v=100
31680 On ch=10 n=42 v=118
31680 On ch=10 n=57 v=109
31684 On ch=10 n=40 v=0
31684 On ch=10 n=42 v=0
31684 On ch=10 n=57 v=0
31728 On ch=10 n=27 v=58
31728 On ch=10 n=42 v=72
31728 On ch=10 n=70 v=64
31732 On ch=10 n=27 v=0
31732 On ch=10 n=42 v=0
31732 On ch=10 n=70 v=0
31776 On ch=10 n=35 v=112
31776 On ch=10 n=42 v=118
31776 On ch=10 n=82 v=67
31780 On ch=10 n=35 v=0
31780 On ch=10 n=42 v=0
31780 On ch=10 n=82 v=0
31824 On ch=10 n=35 v=100
31824 On ch=10 n=42 v=74
31824 On ch=10 n=70 v=94
31828 On ch=10 n=35 v=0
31828 On ch=10 n=42 v=0
31828 On ch=10 n=70 v=0
31872 On ch=10 n=35 v=118
31872 On ch=10 n=42 v=121
31872 On ch=10 n=49 v=100
31876 On ch=10 n=35 v=0
31876 On ch=10 n=42 v=0
31876 On ch=10 n=49 v=0
31920 On ch=10 n=42 v=69
31924 On ch=10 n=42 v=0
31968 On ch=10 n=35 v=121
31968 On ch=10 n=42 v=118
31972 On ch=10 n=35 v=0
31972 On ch=10 n=42 v=0
32016 On ch=10 n=27 v=100
32016 On ch=10 n=42 v=62
32020 On ch=10 n=27 v=0
32020 On ch=10 n=42 v=0
32064 On ch=10 n=40 v=118
32064 On ch=10 n=42 v=121
32068 On ch=10 n=40 v=0
32068 On ch=10 n=42 v=0
32112 On ch=10 n=27 v=60
32112 On ch=10 n=42 v=62
32116 On ch=10 n=27 v=0
32116 On ch=10 n=42 v=0
32160 On ch=10 n=42 v=124
32164 On ch=10 n=42 v=0
32208 On ch=10 n=27 v=41
32208 On ch=10 n=35 v=80
32208 On ch=10 n=42 v=59
32212 On ch=10 n=27 v=0
32212 On ch=10 n=35 v=0
32212 On ch=10 n=42 v=0
32256 On ch=10 n=35 v=124
32256 On ch=10 n=42 v=118
32260 On ch=10 n=35 v=0
32260 On ch=10 n=42 v=0
32304 On ch=10 n=42 v=62
32308 On ch=10 n=42 v=0
32352 On ch=10 n=35 v=115
32352 On ch=10 n=42 v=118
32352 On ch=10 n=81 v=86
32356 On ch=10 n=35 v=0
32356 On ch=10 n=42 v=0
32356 On ch=10 n=81 v=0
32400 On ch=10 n=27 v=64
32400 On ch=10 n=42 v=64
32404 On ch=10 n=27 v=0
32404 On ch=10 n=42 v=0
32448 On ch=10 n=40 v=121
32448 On ch=10 n=42 v=118
32452 On ch=10 n=40 v=0
32452 On ch=10 n=42 v=0
32496 On ch=10 n=27 v=58
32496 On ch=10 n=42 v=72
32496 On ch=10 n=70 v=64
32500 On ch=10 n=27 v=0
32500 On ch=10 n=42 v=0
32500 On ch=10 n=70 v=0
32544 On ch=10 n=42 v=118
32544 On ch=10 n=82 v=67
32548 On ch=10 n=42 v=0
32548 On ch=10 n=82 v=0
32592 On ch=10 n=35 v=100
32592 On ch=10 n=42 v=74
32592 On ch=10 n=70 v=94
32596 On ch=10 n=35 v=0
32596 On ch=10 n=42 v=0
32596 On ch=10 n=70 v=0
32640 On ch=10 n=35 v=118
32640 On ch=10 n=42 v=121
32644 On ch=10 n=35 v=0
32644 On ch=10 n=42 v=0
32688 On ch=10 n=42 v=69
32692 On ch=10 n=42 v=0
32736 On ch=10 n=35 v=121
32736 On ch=10 n=42 v=118
32740 On ch=10 n=35 v=0
32740 On ch=10 n=42 v=0
32784 On ch=10 n=27 v=100
32784 On ch=10 n=42 v=62
32788 On ch=10 n=27 v=0
32788 On ch=10 n=42 v=0
32832 On ch=10 n=40 v=118
32832 On ch=10 n=42 v=121
32836 On ch=10 n=40 v=0
32836 On ch=10 n=42 v=0
32880 On ch=10 n=27 v=60
32880 On ch=10 n=42 v=62
32884 On ch=10 n=27 v=0
32884 On ch=10 n=42 v=0
32928 On ch=10 n=42 v=124
32932 On ch=10 n=42 v=0
32976 On ch=10 n=27 v=41
32976 On ch=10 n=35 v=80
32976 On ch=10 n=42 v=59
32980 On ch=10 n=27 v=0
32980 On ch=10 n=35 v=0
32980 On ch=10 n=42 v=0
33024 On ch=10 n=35 v=124
33024 On ch=10 n=42 v=118
33028 On ch=10 n=35 v=0
33028 On ch=10 n=42 v=0
33072 On ch=10 n=42 v=62
33076 On ch=10 n=42 v=0
33120 On ch=10 n=35 v=115
33120 On ch=10 n=42 v=118
33120 On ch=10 n=81 v=86
33124 On ch=10 n=35 v=0
33124 On ch=10 n=42 v=0
33124 On ch=10 n=81 v=0
33168 On ch=10 n=27 v=64
33168 On ch=10 n=42 v=64
33172 On ch=10 n=27 v=0
33172 On ch=10 n=42 v=0
33191 On ch=10 n=59 v=48
33195 On ch=10 n=59 v=0
33212 On ch=10 n=51 v=57
33216 On ch=10 n=51 v=0
33216 On ch=10 n=40 v=121
33216 On ch=10 n=42 v=118
33220 On ch=10 n=40 v=0
33220 On ch=10 n=42 v=0
33232 On ch=10 n=59 v=61
33236 On ch=10 n=59 v=0
33256 On ch=10 n=51 v=67
33260 On ch=10 n=51 v=0
33264 On ch=10 n=27 v=58
33264 On ch=10 n=42 v=72
33264 On ch=10 n=70 v=64
33268 On ch=10 n=27 v=0
33268 On ch=10 n=42 v=0
33268 On ch=10 n=70 v=0
33274 On ch=10 n=59 v=74
33278 On ch=10 n=59 v=0
33298 On ch=10 n=51 v=82
33302 On ch=10 n=51 v=0
33312 On ch=10 n=42 v=118
33312 On ch=10 n=82 v=67
33314 On ch=10 n=59 v=84
33316 On ch=10 n=42 v=0
33316 On ch=10 n=82 v=0
33318 On ch=10 n=59 v=0
33336 On ch=10 n=51 v=97
33340 On ch=10 n=51 v=0
33357 On ch=10 n=59 v=100
33360 On ch=10 n=35 v=100
33360 On ch=10 n=42 v=74
33360 On ch=10 n=70 v=94
33361 On ch=10 n=59 v=0
33364 On ch=10 n=35 v=0
33364 On ch=10 n=42 v=0
33364 On ch=10 n=70 v=0
33376 On ch=10 n=51 v=109
33380 On ch=10 n=51 v=0
33408 On ch=10 n=35 v=90
33408 On ch=10 n=49 v=94
33412 On ch=10 n=35 v=0
33412 On ch=10 n=49 v=0
33961 On ch=10 n=59 v=29
33962 On ch=10 n=51 v=36
33965 On ch=10 n=59 v=0
33966 On ch=10 n=51 v=0
33978 On ch=10 n=46 v=41
33982 On ch=10 n=46 v=0
34005 On ch=10 n=59 v=33
34006 On ch=10 n=51 v=44
34009 On ch=10 n=59 v=0
34010 On ch=10 n=51 v=0
34024 On ch=10 n=46 v=42
34028 On ch=10 n=46 v=0
34047 On ch=10 n=51 v=54
34051 On ch=10 n=51 v=0
34066 On ch=10 n=46 v=65
34070 On ch=10 n=46 v=0
34089 On ch=10 n=51 v=67
34093 On ch=10 n=51 v=0
34108 On ch=10 n=46 v=80
34112 On ch=10 n=46 v=0
34130 On ch=10 n=59 v=58
34132 On ch=10 n=51 v=76
34134 On ch=10 n=59 v=0
34136 On ch=10 n=51 v=0
34146 On ch=10 n=46 v=94
34150 On ch=10 n=46 v=0
34176 On ch=10 n=59 v=94
34177 On ch=10 n=51 v=103
34180 On ch=10 n=59 v=0
34181 On ch=10 n=51 v=0
34368 On ch=10 n=27 v=94
34372 On ch=10 n=27 v=0
34512 On ch=10 n=27 v=74
34516 On ch=10 n=27 v=0
34608 On ch=10 n=27 v=54
34612 On ch=10 n=27 v=0
34656 On ch=10 n=27 v=86
34660 On ch=10 n=27 v=0
34752 On ch=10 n=82 v=54
34756 On ch=10 n=82 v=0
34800 On ch=10 n=70 v=36
34804 On ch=10 n=70 v=0
34848 On ch=10 n=63 v=40
34848 On ch=10 n=82 v=38
34852 On ch=10 n=63 v=0
34852 On ch=10 n=82 v=0
34872 On ch=10 n=61 v=37
34876 On ch=10 n=61 v=0
34896 On ch=10 n=27 v=72
34896 On ch=10 n=63 v=38
34896 On ch=10 n=70 v=35
34900 On ch=10 n=27 v=0
34900 On ch=10 n=63 v=0
34900 On ch=10 n=70 v=0
34920 On ch=10 n=61 v=48
34924 On ch=10 n=61 v=0
34944 On ch=10 n=63 v=72
34944 On ch=10 n=82 v=58
34948 On ch=10 n=63 v=0
34948 On ch=10 n=82 v=0
34992 On ch=10 n=62 v=43
34992 On ch=10 n=70 v=41
34996 On ch=10 n=62 v=0
34996 On ch=10 n=70 v=0
35040 On ch=10 n=27 v=50
35040 On ch=10 n=82 v=37
35044 On ch=10 n=27 v=0
35044 On ch=10 n=82 v=0
35088 On ch=10 n=70 v=31
35092 On ch=10 n=70 v=0
35136 On ch=10 n=82 v=54
35140 On ch=10 n=82 v=0
35184 On ch=10 n=70 v=43
35188 On ch=10 n=70 v=0
35232 On ch=10 n=82 v=35
35236 On ch=10 n=82 v=0
35280 On ch=10 n=27 v=62
35280 On ch=10 n=70 v=40
35284 On ch=10 n=27 v=0
35284 On ch=10 n=70 v=0
35328 On ch=10 n=82 v=58
35332 On ch=10 n=82 v=0
35376 On ch=10 n=62 v=48
35376 On ch=10 n=70 v=42
35380 On ch=10 n=62 v=0
35380 On ch=10 n=70 v=0
35424 On ch=10 n=27 v=47
35424 On ch=10 n=82 v=42
35428 On ch=10 n=27 v=0
35428 On ch=10 n=82 v=0
35472 On ch=10 n=62 v=47
35472 On ch=10 n=70 v=41
35476 On ch=10 n=62 v=0
35476 On ch=10 n=70 v=0
35520 On ch=10 n=82 v=54
35524 On ch=10 n=82 v=0
35568 On ch=10 n=70 v=36
35572 On ch=10 n=70 v=0
35616 On ch=10 n=82 v=38
35620 On ch=10 n=82 v=0
35664 On ch=10 n=27 v=72
35664 On ch=10 n=70 v=35
35668 On ch=10 n=27 v=0
35668 On ch=10 n=70 v=0
35712 On ch=10 n=82 v=58
35716 On ch=10 n=82 v=0
35760 On ch=10 n=62 v=43
35760 On ch=10 n=70 v=41
35764 On ch=10 n=62 v=0
35764 On ch=10 n=70 v=0
35808 On ch=10 n=27 v=50
35808 On ch=10 n=82 v=37
35812 On ch=10 n=27 v=0
35812 On ch=10 n=82 v=0
35856 On ch=10 n=70 v=31
35860 On ch=10 n=70 v=0
35904 On ch=10 n=82 v=54
35908 On ch=10 n=82 v=0
35952 On ch=10 n=70 v=43
35956 On ch=10 n=70 v=0
36000 On ch=10 n=82 v=35
36004 On ch=10 n=82 v=0
36048 On ch=10 n=27 v=62
36048 On ch=10 n=70 v=40
36052 On ch=10 n=27 v=0
36052 On ch=10 n=70 v=0
36096 On ch=10 n=82 v=58
36100 On ch=10 n=82 v=0
36144 On ch=10 n=62 v=48
36144 On ch=10 n=70 v=42
36148 On ch=10 n=62 v=0
36148 On ch=10 n=70 v=0
36192 On ch=10 n=27 v=47
36192 On ch=10 n=82 v=42
36196 On ch=10 n=27 v=0
36196 On ch=10 n=82 v=0
36240 On ch=10 n=62 v=47
36240 On ch=10 n=70 v=41
36244 On ch=10 n=62 v=0
36244 On ch=10 n=70 v=0
36288 On ch=10 n=82 v=58
36292 On ch=10 n=82 v=0
36336 On ch=10 n=70 v=42
36340 On ch=10 n=70 v=0
36384 On ch=10 n=82 v=42
36388 On ch=10 n=82 v=0
36432 On ch=10 n=27 v=72
36432 On ch=10 n=70 v=41
36436 On ch=10 n=27 v=0
36436 On ch=10 n=70 v=0
36480 On ch=10 n=82 v=54
36484 On ch=10 n=82 v=0
36528 On ch=10 n=70 v=36
36532 On ch=10 n=70 v=0
36576 On ch=10 n=82 v=38
36580 On ch=10 n=82 v=0
36624 On ch=10 n=27 v=72
36624 On ch=10 n=70 v=35
36628 On ch=10 n=27 v=0
36628 On ch=10 n=70 v=0
36672 On ch=10 n=82 v=58
36676 On ch=10 n=82 v=0
36720 On ch=10 n=62 v=43
36720 On ch=10 n=70 v=41
36724 On ch=10 n=62 v=0
36724 On ch=10 n=70 v=0
36768 On ch=10 n=27 v=50
36768 On ch=10 n=82 v=37
36772 On ch=10 n=27 v=0
36772 On ch=10 n=82 v=0
36816 On ch=10 n=70 v=31
36820 On ch=10 n=70 v=0
36864 On ch=10 n=82 v=54
36868 On ch=10 n=82 v=0
36912 On ch=10 n=70 v=43
36916 On ch=10 n=70 v=0
36960 On ch=10 n=82 v=35
36964 On ch=10 n=82 v=0
37008 On ch=10 n=27 v=62
37008 On ch=10 n=70 v=40
37012 On ch=10 n=27 v=0
37012 On ch=10 n=70 v=0
37056 On ch=10 n=82 v=58
37060 On ch=10 n=82 v=0
37104 On ch=10 n=62 v=48
37104 On ch=10 n=70 v=42
37108 On ch=10 n=62 v=0
37108 On ch=10 n=70 v=0
37152 On ch=10 n=27 v=47
37152 On ch=10 n=82 v=42
37156 On ch=10 n=27 v=0
37156 On ch=10 n=82 v=0
37200 On ch=10 n=62 v=47
37200 On ch=10 n=70 v=41
37204 On ch=10 n=62 v=0
37204 On ch=10 n=70 v=0
37248 On ch=10 n=82 v=54
37252 On ch=10 n=82 v=0
37296 On ch=10 n=70 v=36
37300 On ch=10 n=70 v=0
37344 On ch=10 n=82 v=38
37348 On ch=10 n=82 v=0
37392 On ch=10 n=27 v=72
37392 On ch=10 n=70 v=35
37396 On ch=10 n=27 v=0
37396 On ch=10 n=70 v=0
37440 On ch=10 n=82 v=58
37444 On ch=10 n=82 v=0
37488 On ch=10 n=70 v=41
37492 On ch=10 n=70 v=0
37536 On ch=10 n=27 v=50
37536 On ch=10 n=82 v=37
37540 On ch=10 n=27 v=0
37540 On ch=10 n=82 v=0
37584 On ch=10 n=70 v=31
37588 On ch=10 n=70 v=0
37632 On ch=10 n=82 v=54
37636 On ch=10 n=82 v=0
37680 On ch=10 n=70 v=43
37684 On ch=10 n=70 v=0
37728 On ch=10 n=82 v=35
37732 On ch=10 n=82 v=0
37776 On ch=10 n=27 v=62
37776 On ch=10 n=70 v=40
37780 On ch=10 n=27 v=0
37780 On ch=10 n=70 v=0
37824 On ch=10 n=82 v=58
37828 On ch=10 n=82 v=0
37872 On ch=10 n=62 v=48
37872 On ch=10 n=70 v=42
37876 On ch=10 n=62 v=0
37876 On ch=10 n=70 v=0
37920 On ch=10 n=27 v=47
37920 On ch=10 n=82 v=42
37924 On ch=10 n=27 v=0
37924 On ch=10 n=82 v=0
37968 On ch=10 n=62 v=47
37968 On ch=10 n=70 v=41
37972 On ch=10 n=62 v=0
37972 On ch=10 n=70 v=0
38016 On ch=10 n=35 v=118
38016 On ch=10 n=42 v=121
38016 On ch=10 n=49 v=100
38020 On ch=10 n=35 v=0
38020 On ch=10 n=42 v=0
38020 On ch=10 n=49 v=0
38064 On ch=10 n=42 v=69
38068 On ch=10 n=42 v=0
38112 On ch=10 n=35 v=121
38112 On ch=10 n=42 v=118
38116 On ch=10 n=35 v=0
38116 On ch=10 n=42 v=0
38160 On ch=10 n=27 v=100
38160 On ch=10 n=42 v=62
38164 On ch=10 n=27 v=0
38164 On ch=10 n=42 v=0
38208 On ch=10 n=40 v=118
38208 On ch=10 n=42 v=121
38212 On ch=10 n=40 v=0
38212 On ch=10 n=42 v=0
38256 On ch=10 n=27 v=60
38256 On ch=10 n=42 v=62
38260 On ch=10 n=27 v=0
38260 On ch=10 n=42 v=0
38304 On ch=10 n=42 v=124
38308 On ch=10 n=42 v=0
38352 On ch=10 n=27 v=41
38352 On ch=10 n=35 v=80
38352 On ch=10 n=42 v=59
38356 On ch=10 n=27 v=0
38356 On ch=10 n=35 v=0
38356 On ch=10 n=42 v=0
38400 On ch=10 n=35 v=124
38400 On ch=10 n=42 v=118
38404 On ch=10 n=35 v=0
38404 On ch=10 n=42 v=0
38448 On ch=10 n=42 v=62
38452 On ch=10 n=42 v=0
38496 On ch=10 n=35 v=115
38496 On ch=10 n=42 v=118
38500 On ch=10 n=35 v=0
38500 On ch=10 n=42 v=0
38544 On ch=10 n=27 v=64
38544 On ch=10 n=42 v=64
38548 On ch=10 n=27 v=0
38548 On ch=10 n=42 v=0
38592 On ch=10 n=40 v=121
38592 On ch=10 n=42 v=118
38596 On ch=10 n=40 v=0
38596 On ch=10 n=42 v=0
38640 On ch=10 n=27 v=58
38640 On ch=10 n=42 v=72
38640 On ch=10 n=70 v=64
38644 On ch=10 n=27 v=0
38644 On ch=10 n=42 v=0
38644 On ch=10 n=70 v=0
38688 On ch=10 n=42 v=118
38688 On ch=10 n=82 v=67
38692 On ch=10 n=42 v=0
38692 On ch=10 n=82 v=0
38736 On ch=10 n=35 v=100
38736 On ch=10 n=42 v=74
38736 On ch=10 n=70 v=94
38740 On ch=10 n=35 v=0
38740 On ch=10 n=42 v=0
38740 On ch=10 n=70 v=0
38784 On ch=10 n=35 v=118
38784 On ch=10 n=42 v=121
38788 On ch=10 n=35 v=0
38788 On ch=10 n=42 v=0
38832 On ch=10 n=42 v=69
38836 On ch=10 n=42 v=0
38880 On ch=10 n=35 v=121
38880 On ch=10 n=42 v=118
38884 On ch=10 n=35 v=0
38884 On ch=10 n=42 v=0
38928 On ch=10 n=27 v=100
38928 On ch=10 n=42 v=62
38932 On ch=10 n=27 v=0
38932 On ch=10 n=42 v=0
38976 On ch=10 n=40 v=118
38976 On ch=10 n=42 v=121
38980 On ch=10 n=40 v=0
38980 On ch=10 n=42 v=0
39024 On ch=10 n=27 v=60
39024 On ch=10 n=42 v=62
39028 On ch=10 n=27 v=0
39028 On ch=10 n=42 v=0
39072 On ch=10 n=42 v=124
39076 On ch=10 n=42 v=0
39120 On ch=10 n=27 v=41
39120 On ch=10 n=35 v=80
39120 On ch=10 n=42 v=59
39124 On ch=10 n=27 v=0
39124 On ch=10 n=35 v=0
39124 On ch=10 n=42 v=0
39168 On ch=10 n=35 v=124
39168 On ch=10 n=42 v=118
39172 On ch=10 n=35 v=0
39172 On ch=10 n=42 v=0
39216 On ch=10 n=42 v=62
39220 On ch=10 n=42 v=0
39264 On ch=10 n=35 v=115
39264 On ch=10 n=42 v=118
39268 On ch=10 n=35 v=0
39268 On ch=10 n=42 v=0
39312 On ch=10 n=27 v=64
39312 On ch=10 n=42 v=64
39316 On ch=10 n=27 v=0
39316 On ch=10 n=42 v=0
39360 On ch=10 n=40 v=121
39360 On ch=10 n=42 v=118
39364 On ch=10 n=40 v=0
39364 On ch=10 n=42 v=0
39408 On ch=10 n=27 v=58
39408 On ch=10 n=42 v=72
39408 On ch=10 n=70 v=64
39412 On ch=10 n=27 v=0
39412 On ch=10 n=42 v=0
39412 On ch=10 n=70 v=0
39456 On ch=10 n=42 v=118
39456 On ch=10 n=82 v=67
39460 On ch=10 n=42 v=0
39460 On ch=10 n=82 v=0
39504 On ch=10 n=35 v=100
39504 On ch=10 n=42 v=74
39504 On ch=10 n=70 v=94
39508 On ch=10 n=35 v=0
39508 On ch=10 n=42 v=0
39508 On ch=10 n=70 v=0
39552 On ch=10 n=35 v=118
39552 On ch=10 n=42 v=121
39556 On ch=10 n=35 v=0
39556 On ch=10 n=42 v=0
39600 On ch=10 n=42 v=69
39604 On ch=10 n=42 v=0
39648 On ch=10 n=35 v=121
39648 On ch=10 n=42 v=118
39652 On ch=10 n=35 v=0
39652 On ch=10 n=42 v=0
39696 On ch=10 n=27 v=100
39696 On ch=10 n=42 v=62
39700 On ch=10 n=27 v=0
39700 On ch=10 n=42 v=0
39744 On ch=10 n=40 v=118
39744 On ch=10 n=42 v=121
39748 On ch=10 n=40 v=0
39748 On ch=10 n=42 v=0
39792 On ch=10 n=27 v=60
39792 On ch=10 n=42 v=62
39796 On ch=10 n=27 v=0
39796 On ch=10 n=42 v=0
39840 On ch=10 n=42 v=124
39844 On ch=10 n=42 v=0
39888 On ch=10 n=27 v=41
39888 On ch=10 n=35 v=80
39888 On ch=10 n=42 v=59
39892 On ch=10 n=27 v=0
39892 On ch=10 n=35 v=0
39892 On ch=10 n=42 v=0
39936 On ch=10 n=35 v=124
39936 On ch=10 n=42 v=118
39940 On ch=10 n=35 v=0
39940 On ch=10 n=42 v=0
39984 On ch=10 n=42 v=62
39988 On ch=10 n=42 v=0
40032 On ch=10 n=35 v=115
40032 On ch=10 n=42 v=118
40036 On ch=10 n=35 v=0
40036 On ch=10 n=42 v=0
40080 On ch=10 n=27 v=64
40080 On ch=10 n=42 v=64
40084 On ch=10 n=27 v=0
40084 On ch=10 n=42 v=0
40128 On ch=10 n=40 v=121
40128 On ch=10 n=42 v=118
40132 On ch=10 n=40 v=0
40132 On ch=10 n=42 v=0
40176 On ch=10 n=27 v=58
40176 On ch=10 n=42 v=72
40176 On ch=10 n=70 v=64
40180 On ch=10 n=27 v=0
40180 On ch=10 n=42 v=0
40180 On ch=10 n=70 v=0
40224 On ch=10 n=42 v=118
40224 On ch=10 n=82 v=67
40228 On ch=10 n=42 v=0
40228 On ch=10 n=82 v=0
40272 On ch=10 n=35 v=100
40272 On ch=10 n=42 v=74
40272 On ch=10 n=70 v=94
40276 On ch=10 n=35 v=0
40276 On ch=10 n=42 v=0
40276 On ch=10 n=70 v=0
40320 On ch=10 n=35 v=118
40320 On ch=10 n=42 v=121
40324 On ch=10 n=35 v=0
40324 On ch=10 n=42 v=0
40368 On ch=10 n=42 v=69
40372 On ch=10 n=42 v=0
40416 On ch=10 n=35 v=121
40416 On ch=10 n=42 v=118
40420 On ch=10 n=35 v=0
40420 On ch=10 n=42 v=0
40464 On ch=10 n=27 v=100
40464 On ch=10 n=42 v=62
40468 On ch=10 n=27 v=0
40468 On ch=10 n=42 v=0
40512 On ch=10 n=40 v=118
40512 On ch=10 n=42 v=121
40516 On ch=10 n=40 v=0
40516 On ch=10 n=42 v=0
40560 On ch=10 n=27 v=60
40560 On ch=10 n=42 v=62
40564 On ch=10 n=27 v=0
40564 On ch=10 n=42 v=0
40608 On ch=10 n=42 v=124
40612 On ch=10 n=42 v=0
40656 On ch=10 n=27 v=41
40656 On ch=10 n=35 v=80
40656 On ch=10 n=42 v=59
40660 On ch=10 n=27 v=0
40660 On ch=10 n=35 v=0
40660 On ch=10 n=42 v=0
40704 On ch=10 n=35 v=124
40704 On ch=10 n=42 v=118
40708 On ch=10 n=35 v=0
40708 On ch=10 n=42 v=0
40752 On ch=10 n=42 v=62
40756 On ch=10 n=42 v=0
40800 On ch=10 n=35 v=115
40800 On ch=10 n=42 v=118
40804 On ch=10 n=35 v=0
40804 On ch=10 n=42 v=0
40848 On ch=10 n=27 v=64
40848 On ch=10 n=42 v=64
40848 On ch=10 n=43 v=112
40852 On ch=10 n=27 v=0
40852 On ch=10 n=42 v=0
40852 On ch=10 n=43 v=0
40896 On ch=10 n=40 v=124
40896 On ch=10 n=42 v=118
40900 On ch=10 n=40 v=0
40900 On ch=10 n=42 v=0
40944 On ch=10 n=27 v=58
40944 On ch=10 n=42 v=72
40944 On ch=10 n=70 v=64
40948 On ch=10 n=27 v=0
40948 On ch=10 n=42 v=0
40948 On ch=10 n=70 v=0
40992 On ch=10 n=35 v=121
40992 On ch=10 n=42 v=118
40992 On ch=10 n=82 v=67
40996 On ch=10 n=35 v=0
40996 On ch=10 n=42 v=0
40996 On ch=10 n=82 v=0
41040 On ch=10 n=35 v=100
41040 On ch=10 n=42 v=74
41040 On ch=10 n=70 v=94
41044 On ch=10 n=35 v=0
41044 On ch=10 n=42 v=0
41044 On ch=10 n=70 v=0
41088 On ch=10 n=35 v=118
41088 On ch=10 n=42 v=121
41088 On ch=10 n=49 v=100
41092 On ch=10 n=35 v=0
41092 On ch=10 n=42 v=0
41092 On ch=10 n=49 v=0
41136 On ch=10 n=42 v=69
41140 On ch=10 n=42 v=0
41184 On ch=10 n=35 v=121
41184 On ch=10 n=42 v=118
41188 On ch=10 n=35 v=0
41188 On ch=10 n=42 v=0
41232 On ch=10 n=27 v=100
41232 On ch=10 n=42 v=62
41236 On ch=10 n=27 v=0
41236 On ch=10 n=42 v=0
41280 On ch=10 n=40 v=118
41280 On ch=10 n=42 v=121
41284 On ch=10 n=40 v=0
41284 On ch=10 n=42 v=0
41328 On ch=10 n=27 v=60
41328 On ch=10 n=42 v=62
41332 On ch=10 n=27 v=0
41332 On ch=10 n=42 v=0
41376 On ch=10 n=42 v=124
41380 On ch=10 n=42 v=0
41424 On ch=10 n=27 v=41
41424 On ch=10 n=35 v=80
41424 On ch=10 n=42 v=59
41428 On ch=10 n=27 v=0
41428 On ch=10 n=35 v=0
41428 On ch=10 n=42 v=0
41472 On ch=10 n=35 v=124
41472 On ch=10 n=42 v=118
41476 On ch=10 n=35 v=0
41476 On ch=10 n=42 v=0
41520 On ch=10 n=42 v=62
41524 On ch=10 n=42 v=0
41568 On ch=10 n=35 v=115
41568 On ch=10 n=42 v=118
41572 On ch=10 n=35 v=0
41572 On ch=10 n=42 v=0
41616 On ch=10 n=27 v=64
41616 On ch=10 n=42 v=64
41620 On ch=10 n=27 v=0
41620 On ch=10 n=42 v=0
41664 On ch=10 n=40 v=121
41664 On ch=10 n=42 v=118
41668 On ch=10 n=40 v=0
41668 On ch=10 n=42 v=0
41712 On ch=10 n=27 v=58
41712 On ch=10 n=42 v=72
41712 On ch=10 n=70 v=64
41716 On ch=10 n=27 v=0
41716 On ch=10 n=42 v=0
41716 On ch=10 n=70 v=0
41760 On ch=10 n=42 v=118
41760 On ch=10 n=82 v=67
41764 On ch=10 n=42 v=0
41764 On ch=10 n=82 v=0
41808 On ch=10 n=35 v=100
41808 On ch=10 n=42 v=74
41808 On ch=10 n=70 v=94
41812 On ch=10 n=35 v=0
41812 On ch=10 n=42 v=0
41812 On ch=10 n=70 v=0
41856 On ch=10 n=35 v=118
41856 On ch=10 n=42 v=121
41860 On ch=10 n=35 v=0
41860 On ch=10 n=42 v=0
41904 On ch=10 n=42 v=69
41908 On ch=10 n=42 v=0
41952 On ch=10 n=35 v=121
41952 On ch=10 n=42 v=118
41956 On ch=10 n=35 v=0
41956 On ch=10 n=42 v=0
42000 On ch=10 n=27 v=100
42000 On ch=10 n=42 v=62
42004 On ch=10 n=27 v=0
42004 On ch=10 n=42 v=0
42048 On ch=10 n=40 v=118
42048 On ch=10 n=42 v=121
42052 On ch=10 n=40 v=0
42052 On ch=10 n=42 v=0
42096 On ch=10 n=27 v=60
42096 On ch=10 n=42 v=62
42100 On ch=10 n=27 v=0
42100 On ch=10 n=42 v=0
42144 On ch=10 n=42 v=124
42148 On ch=10 n=42 v=0
42192 On ch=10 n=27 v=41
42192 On ch=10 n=35 v=80
42192 On ch=10 n=42 v=59
42196 On ch=10 n=27 v=0
42196 On ch=10 n=35 v=0
42196 On ch=10 n=42 v=0
42240 On ch=10 n=35 v=124
42240 On ch=10 n=42 v=118
42244 On ch=10 n=35 v=0
42244 On ch=10 n=42 v=0
42288 On ch=10 n=42 v=62
42292 On ch=10 n=42 v=0
42336 On ch=10 n=35 v=115
42336 On ch=10 n=42 v=118
42340 On ch=10 n=35 v=0
42340 On ch=10 n=42 v=0
42384 On ch=10 n=27 v=64
42384 On ch=10 n=42 v=64
42388 On ch=10 n=27 v=0
42388 On ch=10 n=42 v=0
42432 On ch=10 n=40 v=121
42432 On ch=10 n=42 v=118
42436 On ch=10 n=40 v=0
42436 On ch=10 n=42 v=0
42480 On ch=10 n=27 v=58
42480 On ch=10 n=42 v=72
42480 On ch=10 n=70 v=64
42484 On ch=10 n=27 v=0
42484 On ch=10 n=42 v=0
42484 On ch=10 n=70 v=0
42528 On ch=10 n=42 v=118
42528 On ch=10 n=82 v=67
42532 On ch=10 n=42 v=0
42532 On ch=10 n=82 v=0
42576 On ch=10 n=35 v=100
42576 On ch=10 n=42 v=74
42576 On ch=10 n=70 v=94
42580 On ch=10 n=35 v=0
42580 On ch=10 n=42 v=0
42580 On ch=10 n=70 v=0
42624 On ch=10 n=35 v=118
42624 On ch=10 n=42 v=121
42628 On ch=10 n=35 v=0
42628 On ch=10 n=42 v=0
42672 On ch=10 n=42 v=69
42676 On ch=10 n=42 v=0
42720 On ch=10 n=35 v=121
42720 On ch=10 n=42 v=118
42724 On ch=10 n=35 v=0
42724 On ch=10 n=42 v=0
42768 On ch=10 n=27 v=100
42768 On ch=10 n=42 v=62
42772 On ch=10 n=27 v=0
42772 On ch=10 n=42 v=0
42816 On ch=10 n=40 v=118
42816 On ch=10 n=42 v=121
42820 On ch=10 n=40 v=0
42820 On ch=10 n=42 v=0
42864 On ch=10 n=27 v=60
42864 On ch=10 n=42 v=62
42868 On ch=10 n=27 v=0
42868 On ch=10 n=42 v=0
42912 On ch=10 n=42 v=124
42916 On ch=10 n=42 v=0
42960 On ch=10 n=27 v=41
42960 On ch=10 n=35 v=80
42960 On ch=10 n=42 v=59
42964 On ch=10 n=27 v=0
42964 On ch=10 n=35 v=0
42964 On ch=10 n=42 v=0
43008 On ch=10 n=35 v=124
43008 On ch=10 n=42 v=118
43012 On ch=10 n=35 v=0
43012 On ch=10 n=42 v=0
43056 On ch=10 n=42 v=62
43060 On ch=10 n=42 v=0
43104 On ch=10 n=35 v=115
43104 On ch=10 n=42 v=118
43108 On ch=10 n=35 v=0
43108 On ch=10 n=42 v=0
43152 On ch=10 n=27 v=64
43152 On ch=10 n=42 v=64
43156 On ch=10 n=27 v=0
43156 On ch=10 n=42 v=0
43200 On ch=10 n=40 v=121
43200 On ch=10 n=42 v=118
43204 On ch=10 n=40 v=0
43204 On ch=10 n=42 v=0
43248 On ch=10 n=27 v=58
43248 On ch=10 n=42 v=72
43248 On ch=10 n=70 v=64
43252 On ch=10 n=27 v=0
43252 On ch=10 n=42 v=0
43252 On ch=10 n=70 v=0
43296 On ch=10 n=42 v=118
43296 On ch=10 n=82 v=67
43300 On ch=10 n=42 v=0
43300 On ch=10 n=82 v=0
43344 On ch=10 n=35 v=100
43344 On ch=10 n=42 v=74
43344 On ch=10 n=70 v=94
43348 On ch=10 n=35 v=0
43348 On ch=10 n=42 v=0
43348 On ch=10 n=70 v=0
43392 On ch=10 n=35 v=118
43392 On ch=10 n=42 v=121
43396 On ch=10 n=35 v=0
43396 On ch=10 n=42 v=0
43440 On ch=10 n=42 v=69
43444 On ch=10 n=42 v=0
43488 On ch=10 n=35 v=121
43488 On ch=10 n=42 v=118
43492 On ch=10 n=35 v=0
43492 On ch=10 n=42 v=0
43536 On ch=10 n=27 v=100
43536 On ch=10 n=42 v=62
43540 On ch=10 n=27 v=0
43540 On ch=10 n=42 v=0
43584 On ch=10 n=40 v=118
43584 On ch=10 n=42 v=121
43588 On ch=10 n=40 v=0
43588 On ch=10 n=42 v=0
43632 On ch=10 n=27 v=60
43632 On ch=10 n=42 v=62
43636 On ch=10 n=27 v=0
43636 On ch=10 n=42 v=0
43680 On ch=10 n=42 v=124
43684 On ch=10 n=42 v=0
43728 On ch=10 n=27 v=41
43728 On ch=10 n=35 v=80
43728 On ch=10 n=42 v=59
43732 On ch=10 n=27 v=0
43732 On ch=10 n=35 v=0
43732 On ch=10 n=42 v=0
43776 On ch=10 n=35 v=124
43776 On ch=10 n=42 v=118
43780 On ch=10 n=35 v=0
43780 On ch=10 n=42 v=0
43824 On ch=10 n=42 v=62
43828 On ch=10 n=42 v=0
43872 On ch=10 n=35 v=115
43872 On ch=10 n=42 v=118
43876 On ch=10 n=35 v=0
43876 On ch=10 n=42 v=0
43920 On ch=10 n=27 v=64
43920 On ch=10 n=42 v=64
43920 On ch=10 n=43 v=112
43924 On ch=10 n=27 v=0
43924 On ch=10 n=42 v=0
43924 On ch=10 n=43 v=0
43968 On ch=10 n=40 v=124
43968 On ch=10 n=42 v=118
43972 On ch=10 n=40 v=0
43972 On ch=10 n=42 v=0
44016 On ch=10 n=27 v=58
44016 On ch=10 n=42 v=72
44016 On ch=10 n=70 v=64
44020 On ch=10 n=27 v=0
44020 On ch=10 n=42 v=0
44020 On ch=10 n=70 v=0
44064 On ch=10 n=35 v=121
44064 On ch=10 n=42 v=118
44064 On ch=10 n=82 v=67
44068 On ch=10 n=35 v=0
44068 On ch=10 n=42 v=0
44068 On ch=10 n=82 v=0
44112 On ch=10 n=35 v=100
44112 On ch=10 n=42 v=74
44112 On ch=10 n=70 v=94
44116 On ch=10 n=35 v=0
44116 On ch=10 n=42 v=0
44116 On ch=10 n=70 v=0
44160 On ch=10 n=35 v=118
44160 On ch=10 n=42 v=121
44160 On ch=10 n=49 v=100
44164 On ch=10 n=35 v=0
44164 On ch=10 n=42 v=0
44164 On ch=10 n=49 v=0
44208 On ch=10 n=42 v=69
44212 On ch=10 n=42 v=0
44256 On ch=10 n=35 v=121
44256 On ch=10 n=42 v=118
44260 On ch=10 n=35 v=0
44260 On ch=10 n=42 v=0
44304 On ch=10 n=27 v=100
44304 On ch=10 n=42 v=62
44308 On ch=10 n=27 v=0
44308 On ch=10 n=42 v=0
44352 On ch=10 n=40 v=118
44352 On ch=10 n=42 v=121
44356 On ch=10 n=40 v=0
44356 On ch=10 n=42 v=0
44400 On ch=10 n=27 v=60
44400 On ch=10 n=42 v=62
44404 On ch=10 n=27 v=0
44404 On ch=10 n=42 v=0
44448 On ch=10 n=42 v=124
44452 On ch=10 n=42 v=0
44496 On ch=10 n=27 v=41
44496 On ch=10 n=35 v=80
44496 On ch=10 n=42 v=59
44500 On ch=10 n=27 v=0
44500 On ch=10 n=35 v=0
44500 On ch=10 n=42 v=0
44544 On ch=10 n=35 v=124
44544 On ch=10 n=42 v=118
44548 On ch=10 n=35 v=0
44548 On ch=10 n=42 v=0
44592 On ch=10 n=42 v=62
44596 On ch=10 n=42 v=0
44640 On ch=10 n=35 v=115
44640 On ch=10 n=42 v=118
44644 On ch=10 n=35 v=0
44644 On ch=10 n=42 v=0
44688 On ch=10 n=27 v=64
44688 On ch=10 n=42 v=64
44692 On ch=10 n=27 v=0
44692 On ch=10 n=42 v=0
44736 On ch=10 n=40 v=121
44736 On ch=10 n=42 v=118
44740 On ch=10 n=40 v=0
44740 On ch=10 n=42 v=0
44784 On ch=10 n=27 v=58
44784 On ch=10 n=42 v=72
44784 On ch=10 n=70 v=64
44788 On ch=10 n=27 v=0
44788 On ch=10 n=42 v=0
44788 On ch=10 n=70 v=0
44832 On ch=10 n=42 v=118
44832 On ch=10 n=82 v=67
44836 On ch=10 n=42 v=0
44836 On ch=10 n=82 v=0
44880 On ch=10 n=35 v=100
44880 On ch=10 n=42 v=74
44880 On ch=10 n=70 v=94
44884 On ch=10 n=35 v=0
44884 On ch=10 n=42 v=0
44884 On ch=10 n=70 v=0
44928 On ch=10 n=35 v=118
44928 On ch=10 n=42 v=121
44932 On ch=10 n=35 v=0
44932 On ch=10 n=42 v=0
44976 On ch=10 n=42 v=69
44980 On ch=10 n=42 v=0
45024 On ch=10 n=35 v=121
45024 On ch=10 n=42 v=118
45028 On ch=10 n=35 v=0
45028 On ch=10 n=42 v=0
45072 On ch=10 n=27 v=100
45072 On ch=10 n=42 v=62
45076 On ch=10 n=27 v=0
45076 On ch=10 n=42 v=0
45120 On ch=10 n=40 v=118
45120 On ch=10 n=42 v=121
45124 On ch=10 n=40 v=0
45124 On ch=10 n=42 v=0
45168 On ch=10 n=27 v=60
45168 On ch=10 n=42 v=62
45172 On ch=10 n=27 v=0
45172 On ch=10 n=42 v=0
45216 On ch=10 n=42 v=124
45220 On ch=10 n=42 v=0
45264 On ch=10 n=27 v=41
45264 On ch=10 n=35 v=80
45264 On ch=10 n=42 v=59
45268 On ch=10 n=27 v=0
45268 On ch=10 n=35 v=0
45268 On ch=10 n=42 v=0
45312 On ch=10 n=35 v=124
45312 On ch=10 n=42 v=118
45316 On ch=10 n=35 v=0
45316 On ch=10 n=42 v=0
45360 On ch=10 n=42 v=62
45364 On ch=10 n=42 v=0
45408 On ch=10 n=35 v=115
45408 On ch=10 n=42 v=118
45412 On ch=10 n=35 v=0
45412 On ch=10 n=42 v=0
45456 On ch=10 n=27 v=64
45456 On ch=10 n=42 v=64
45460 On ch=10 n=27 v=0
45460 On ch=10 n=42 v=0
45504 On ch=10 n=40 v=121
45504 On ch=10 n=42 v=118
45508 On ch=10 n=40 v=0
45508 On ch=10 n=42 v=0
45552 On ch=10 n=27 v=58
45552 On ch=10 n=42 v=72
45552 On ch=10 n=70 v=64
45556 On ch=10 n=27 v=0
45556 On ch=10 n=42 v=0
45556 On ch=10 n=70 v=0
45600 On ch=10 n=42 v=118
45600 On ch=10 n=82 v=67
45604 On ch=10 n=42 v=0
45604 On ch=10 n=82 v=0
45648 On ch=10 n=35 v=100
45648 On ch=10 n=42 v=74
45648 On ch=10 n=70 v=94
45652 On ch=10 n=35 v=0
45652 On ch=10 n=42 v=0
45652 On ch=10 n=70 v=0
45696 On ch=10 n=35 v=118
45696 On ch=10 n=42 v=121
45700 On ch=10 n=35 v=0
45700 On ch=10 n=42 v=0
45744 On ch=10 n=42 v=69
45748 On ch=10 n=42 v=0
45792 On ch=10 n=35 v=121
45792 On ch=10 n=42 v=118
45796 On ch=10 n=35 v=0
45796 On ch=10 n=42 v=0
45840 On ch=10 n=27 v=100
45840 On ch=10 n=42 v=62
45844 On ch=10 n=27 v=0
45844 On ch=10 n=42 v=0
45888 On ch=10 n=40 v=118
45888 On ch=10 n=42 v=121
45892 On ch=10 n=40 v=0
45892 On ch=10 n=42 v=0
45936 On ch=10 n=27 v=60
45936 On ch=10 n=42 v=62
45940 On ch=10 n=27 v=0
45940 On ch=10 n=42 v=0
45984 On ch=10 n=42 v=124
45988 On ch=10 n=42 v=0
46032 On ch=10 n=27 v=41
46032 On ch=10 n=35 v=80
46032 On ch=10 n=42 v=59
46036 On ch=10 n=27 v=0
46036 On ch=10 n=35 v=0
46036 On ch=10 n=42 v=0
46080 On ch=10 n=35 v=124
46080 On ch=10 n=42 v=118
46084 On ch=10 n=35 v=0
46084 On ch=10 n=42 v=0
46128 On ch=10 n=42 v=62
46132 On ch=10 n=42 v=0
46176 On ch=10 n=35 v=115
46176 On ch=10 n=42 v=118
46180 On ch=10 n=35 v=0
46180 On ch=10 n=42 v=0
46224 On ch=10 n=27 v=64
46224 On ch=10 n=42 v=64
46228 On ch=10 n=27 v=0
46228 On ch=10 n=42 v=0
46272 On ch=10 n=40 v=121
46272 On ch=10 n=42 v=118
46276 On ch=10 n=40 v=0
46276 On ch=10 n=42 v=0
46320 On ch=10 n=27 v=58
46320 On ch=10 n=42 v=72
46320 On ch=10 n=70 v=64
46324 On ch=10 n=27 v=0
46324 On ch=10 n=42 v=0
46324 On ch=10 n=70 v=0
46368 On ch=10 n=42 v=118
46368 On ch=10 n=82 v=67
46372 On ch=10 n=42 v=0
46372 On ch=10 n=82 v=0
46416 On ch=10 n=35 v=100
46416 On ch=10 n=42 v=74
46416 On ch=10 n=70 v=94
46420 On ch=10 n=35 v=0
46420 On ch=10 n=42 v=0
46420 On ch=10 n=70 v=0
46464 On ch=10 n=35 v=118
46464 On ch=10 n=42 v=121
46468 On ch=10 n=35 v=0
46468 On ch=10 n=42 v=0
46512 On ch=10 n=42 v=69
46516 On ch=10 n=42 v=0
46560 On ch=10 n=35 v=121
46560 On ch=10 n=42 v=118
46564 On ch=10 n=35 v=0
46564 On ch=10 n=42 v=0
46608 On ch=10 n=27 v=100
46608 On ch=10 n=42 v=62
46612 On ch=10 n=27 v=0
46612 On ch=10 n=42 v=0
46656 On ch=10 n=40 v=118
46656 On ch=10 n=42 v=121
46660 On ch=10 n=40 v=0
46660 On ch=10 n=42 v=0
46704 On ch=10 n=27 v=60
46704 On ch=10 n=42 v=62
46708 On ch=10 n=27 v=0
46708 On ch=10 n=42 v=0
46752 On ch=10 n=42 v=124
46756 On ch=10 n=42 v=0
46800 On ch=10 n=27 v=41
46800 On ch=10 n=35 v=80
46800 On ch=10 n=42 v=59
46804 On ch=10 n=27 v=0
46804 On ch=10 n=35 v=0
46804 On ch=10 n=42 v=0
46848 On ch=10 n=35 v=124
46848 On ch=10 n=42 v=118
46852 On ch=10 n=35 v=0
46852 On ch=10 n=42 v=0
46896 On ch=10 n=42 v=62
46900 On ch=10 n=42 v=0
46944 On ch=10 n=35 v=115
46944 On ch=10 n=42 v=118
46948 On ch=10 n=35 v=0
46948 On ch=10 n=42 v=0
46992 On ch=10 n=27 v=64
46992 On ch=10 n=42 v=64
46992 On ch=10 n=43 v=112
46996 On ch=10 n=27 v=0
46996 On ch=10 n=42 v=0
46996 On ch=10 n=43 v=0
47040 On ch=10 n=40 v=124
47040 On ch=10 n=42 v=118
47044 On ch=10 n=40 v=0
47044 On ch=10 n=42 v=0
47088 On ch=10 n=27 v=58
47088 On ch=10 n=42 v=72
47088 On ch=10 n=70 v=64
47092 On ch=10 n=27 v=0
47092 On ch=10 n=42 v=0
47092 On ch=10 n=70 v=0
47136 On ch=10 n=35 v=121
47136 On ch=10 n=42 v=118
47136 On ch=10 n=82 v=67
47140 On ch=10 n=35 v=0
47140 On ch=10 n=42 v=0
47140 On ch=10 n=82 v=0
47184 On ch=10 n=35 v=100
47184 On ch=10 n=42 v=74
47184 On ch=10 n=70 v=94
47188 On ch=10 n=35 v=0
47188 On ch=10 n=42 v=0
47188 On ch=10 n=70 v=0
47232 On ch=10 n=35 v=118
47232 On ch=10 n=42 v=121
47232 On ch=10 n=49 v=100
47236 On ch=10 n=35 v=0
47236 On ch=10 n=42 v=0
47236 On ch=10 n=49 v=0
47280 On ch=10 n=42 v=69
47284 On ch=10 n=42 v=0
47328 On ch=10 n=35 v=121
47328 On ch=10 n=42 v=118
47332 On ch=10 n=35 v=0
47332 On ch=10 n=42 v=0
47376 On ch=10 n=27 v=100
47376 On ch=10 n=42 v=62
47380 On ch=10 n=27 v=0
47380 On ch=10 n=42 v=0
47424 On ch=10 n=40 v=118
47424 On ch=10 n=42 v=121
47428 On ch=10 n=40 v=0
47428 On ch=10 n=42 v=0
47472 On ch=10 n=27 v=60
47472 On ch=10 n=42 v=62
47476 On ch=10 n=27 v=0
47476 On ch=10 n=42 v=0
47520 On ch=10 n=42 v=124
47524 On ch=10 n=42 v=0
47568 On ch=10 n=27 v=41
47568 On ch=10 n=35 v=80
47568 On ch=10 n=42 v=59
47572 On ch=10 n=27 v=0
47572 On ch=10 n=35 v=0
47572 On ch=10 n=42 v=0
47616 On ch=10 n=35 v=124
47616 On ch=10 n=42 v=118
47620 On ch=10 n=35 v=0
47620 On ch=10 n=42 v=0
47664 On ch=10 n=42 v=62
47668 On ch=10 n=42 v=0
47712 On ch=10 n=35 v=115
47712 On ch=10 n=42 v=118
47716 On ch=10 n=35 v=0
47716 On ch=10 n=42 v=0
47760 On ch=10 n=27 v=64
47760 On ch=10 n=42 v=64
47764 On ch=10 n=27 v=0
47764 On ch=10 n=42 v=0
47808 On ch=10 n=40 v=121
47808 On ch=10 n=42 v=118
47812 On ch=10 n=40 v=0
47812 On ch=10 n=42 v=0
47856 On ch=10 n=27 v=58
47856 On ch=10 n=42 v=72
47856 On ch=10 n=70 v=64
47860 On ch=10 n=27 v=0
47860 On ch=10 n=42 v=0
47860 On ch=10 n=70 v=0
47904 On ch=10 n=42 v=118
47904 On ch=10 n=82 v=67
47908 On ch=10 n=42 v=0
47908 On ch=10 n=82 v=0
47952 On ch=10 n=35 v=100
47952 On ch=10 n=42 v=74
47952 On ch=10 n=70 v=94
47956 On ch=10 n=35 v=0
47956 On ch=10 n=42 v=0
47956 On ch=10 n=70 v=0
48000 On ch=10 n=35 v=118
48000 On ch=10 n=42 v=121
48004 On ch=10 n=35 v=0
48004 On ch=10 n=42 v=0
48048 On ch=10 n=42 v=69
48052 On ch=10 n=42 v=0
48096 On ch=10 n=35 v=121
48096 On ch=10 n=42 v=118
48100 On ch=10 n=35 v=0
48100 On ch=10 n=42 v=0
48144 On ch=10 n=27 v=100
48144 On ch=10 n=42 v=62
48148 On ch=10 n=27 v=0
48148 On ch=10 n=42 v=0
48192 On ch=10 n=40 v=118
48192 On ch=10 n=42 v=121
48196 On ch=10 n=40 v=0
48196 On ch=10 n=42 v=0
48240 On ch=10 n=27 v=60
48240 On ch=10 n=42 v=62
48244 On ch=10 n=27 v=0
48244 On ch=10 n=42 v=0
48288 On ch=10 n=40 v=118
48288 On ch=10 n=42 v=124
48292 On ch=10 n=40 v=0
48292 On ch=10 n=42 v=0
48336 On ch=10 n=27 v=41
48336 On ch=10 n=35 v=80
48336 On ch=10 n=42 v=59
48340 On ch=10 n=27 v=0
48340 On ch=10 n=35 v=0
48340 On ch=10 n=42 v=0
48384 On ch=10 n=35 v=124
48384 On ch=10 n=40 v=118
48384 On ch=10 n=42 v=118
48388 On ch=10 n=35 v=0
48388 On ch=10 n=40 v=0
48388 On ch=10 n=42 v=0
48432 On ch=10 n=42 v=62
48436 On ch=10 n=42 v=0
48480 On ch=10 n=35 v=115
48480 On ch=10 n=40 v=118
48480 On ch=10 n=42 v=118
48484 On ch=10 n=35 v=0
48484 On ch=10 n=40 v=0
48484 On ch=10 n=42 v=0
48528 On ch=10 n=27 v=64
48528 On ch=10 n=40 v=90
48528 On ch=10 n=42 v=64
48532 On ch=10 n=27 v=0
48532 On ch=10 n=40 v=0
48532 On ch=10 n=42 v=0
48576 On ch=10 n=40 v=124
48576 On ch=10 n=42 v=118
48580 On ch=10 n=40 v=0
48580 On ch=10 n=42 v=0
48624 On ch=10 n=27 v=58
48624 On ch=10 n=40 v=94
48624 On ch=10 n=42 v=72
48624 On ch=10 n=70 v=64
48628 On ch=10 n=27 v=0
48628 On ch=10 n=40 v=0
48628 On ch=10 n=42 v=0
48628 On ch=10 n=70 v=0
48672 On ch=10 n=40 v=112
48672 On ch=10 n=42 v=118
48672 On ch=10 n=82 v=67
48676 On ch=10 n=40 v=0
48676 On ch=10 n=42 v=0
48676 On ch=10 n=82 v=0
48720 On ch=10 n=35 v=100
48720 On ch=10 n=40 v=115
48720 On ch=10 n=42 v=74
48720 On ch=10 n=70 v=94
48724 On ch=10 n=35 v=0
48724 On ch=10 n=40 v=0
48724 On ch=10 n=42 v=0
48724 On ch=10 n=70 v=0
48768 On ch=10 n=35 v=118
48768 On ch=10 n=42 v=121
48768 On ch=10 n=49 v=100
48772 On ch=10 n=35 v=0
48772 On ch=10 n=42 v=0
48772 On ch=10 n=49 v=0
48816 On ch=10 n=42 v=69
48820 On ch=10 n=42 v=0
48864 On ch=10 n=35 v=121
48864 On ch=10 n=42 v=118
48868 On ch=10 n=35 v=0
48868 On ch=10 n=42 v=0
48912 On ch=10 n=27 v=100
48912 On ch=10 n=42 v=62
48916 On ch=10 n=27 v=0
48916 On ch=10 n=42 v=0
48960 On ch=10 n=40 v=118
48960 On ch=10 n=42 v=121
48964 On ch=10 n=40 v=0
48964 On ch=10 n=42 v=0
49008 On ch=10 n=27 v=60
49008 On ch=10 n=42 v=62
49012 On ch=10 n=27 v=0
49012 On ch=10 n=42 v=0
49056 On ch=10 n=42 v=124
49060 On ch=10 n=42 v=0
49104 On ch=10 n=27 v=41
49104 On ch=10 n=35 v=80
49104 On ch=10 n=42 v=59
49108 On ch=10 n=27 v=0
49108 On ch=10 n=35 v=0
49108 On ch=10 n=42 v=0
49152 On ch=10 n=35 v=124
49152 On ch=10 n=42 v=118
49156 On ch=10 n=35 v=0
49156 On ch=10 n=42 v=0
49200 On ch=10 n=42 v=62
49204 On ch=10 n=42 v=0
49248 On ch=10 n=35 v=115
49248 On ch=10 n=42 v=118
49252 On ch=10 n=35 v=0
49252 On ch=10 n=42 v=0
49296 On ch=10 n=27 v=64
49296 On ch=10 n=42 v=64
49300 On ch=10 n=27 v=0
49300 On ch=10 n=42 v=0
49344 On ch=10 n=40 v=121
49344 On ch=10 n=42 v=118
49348 On ch=10 n=40 v=0
49348 On ch=10 n=42 v=0
49392 On ch=10 n=27 v=58
49392 On ch=10 n=42 v=72
49392 On ch=10 n=70 v=64
49396 On ch=10 n=27 v=0
49396 On ch=10 n=42 v=0
49396 On ch=10 n=70 v=0
49440 On ch=10 n=42 v=118
49440 On ch=10 n=82 v=67
49444 On ch=10 n=42 v=0
49444 On ch=10 n=82 v=0
49488 On ch=10 n=35 v=100
49488 On ch=10 n=42 v=74
49488 On ch=10 n=70 v=94
49492 On ch=10 n=35 v=0
49492 On ch=10 n=42 v=0
49492 On ch=10 n=70 v=0
49536 On ch=10 n=35 v=118
49536 On ch=10 n=42 v=121
49540 On ch=10 n=35 v=0
49540 On ch=10 n=42 v=0
49584 On ch=10 n=42 v=69
49588 On ch=10 n=42 v=0
49632 On ch=10 n=35 v=121
49632 On ch=10 n=42 v=118
49636 On ch=10 n=35 v=0
49636 On ch=10 n=42 v=0
49680 On ch=10 n=27 v=100
49680 On ch=10 n=42 v=62
49684 On ch=10 n=27 v=0
49684 On ch=10 n=42 v=0
49728 On ch=10 n=40 v=118
49728 On ch=10 n=42 v=121
49732 On ch=10 n=40 v=0
49732 On ch=10 n=42 v=0
49776 On ch=10 n=27 v=60
49776 On ch=10 n=42 v=62
49780 On ch=10 n=27 v=0
49780 On ch=10 n=42 v=0
49824 On ch=10 n=42 v=124
49828 On ch=10 n=42 v=0
49872 On ch=10 n=27 v=41
49872 On ch=10 n=35 v=80
49872 On ch=10 n=42 v=59
49876 On ch=10 n=27 v=0
49876 On ch=10 n=35 v=0
49876 On ch=10 n=42 v=0
49920 On ch=10 n=35 v=124
49920 On ch=10 n=42 v=118
49924 On ch=10 n=35 v=0
49924 On ch=10 n=42 v=0
49968 On ch=10 n=42 v=62
49972 On ch=10 n=42 v=0
50016 On ch=10 n=35 v=115
50016 On ch=10 n=42 v=118
50020 On ch=10 n=35 v=0
50020 On ch=10 n=42 v=0
50064 On ch=10 n=27 v=64
50064 On ch=10 n=42 v=64
50068 On ch=10 n=27 v=0
50068 On ch=10 n=42 v=0
50112 On ch=10 n=40 v=121
50112 On ch=10 n=42 v=118
50116 On ch=10 n=40 v=0
50116 On ch=10 n=42 v=0
50160 On ch=10 n=27 v=58
50160 On ch=10 n=42 v=72
50160 On ch=10 n=70 v=64
50164 On ch=10 n=27 v=0
50164 On ch=10 n=42 v=0
50164 On ch=10 n=70 v=0
50208 On ch=10 n=42 v=118
50208 On ch=10 n=82 v=67
50212 On ch=10 n=42 v=0
50212 On ch=10 n=82 v=0
50256 On ch=10 n=35 v=100
50256 On ch=10 n=42 v=74
50256 On ch=10 n=70 v=94
50260 On ch=10 n=35 v=0
50260 On ch=10 n=42 v=0
50260 On ch=10 n=70 v=0
50304 On ch=10 n=35 v=118
50304 On ch=10 n=42 v=121
50308 On ch=10 n=35 v=0
50308 On ch=10 n=42 v=0
50352 On ch=10 n=42 v=69
50356 On ch=10 n=42 v=0
50400 On ch=10 n=35 v=121
50400 On ch=10 n=42 v=118
50404 On ch=10 n=35 v=0
50404 On ch=10 n=42 v=0
50448 On ch=10 n=27 v=100
50448 On ch=10 n=42 v=62
50452 On ch=10 n=27 v=0
50452 On ch=10 n=42 v=0
50496 On ch=10 n=40 v=118
50496 On ch=10 n=42 v=121
50500 On ch=10 n=40 v=0
50500 On ch=10 n=42 v=0
50544 On ch=10 n=27 v=60
50544 On ch=10 n=42 v=62
50548 On ch=10 n=27 v=0
50548 On ch=10 n=42 v=0
50592 On ch=10 n=42 v=124
50596 On ch=10 n=42 v=0
50640 On ch=10 n=27 v=41
50640 On ch=10 n=35 v=80
50640 On ch=10 n=42 v=59
50644 On ch=10 n=27 v=0
50644 On ch=10 n=35 v=0
50644 On ch=10 n=42 v=0
50688 On ch=10 n=35 v=124
50688 On ch=10 n=42 v=118
50692 On ch=10 n=35 v=0
50692 On ch=10 n=42 v=0
50736 On ch=10 n=42 v=62
50740 On ch=10 n=42 v=0
50784 On ch=10 n=35 v=115
50784 On ch=10 n=42 v=118
50788 On ch=10 n=35 v=0
50788 On ch=10 n=42 v=0
50832 On ch=10 n=27 v=64
50832 On ch=10 n=42 v=64
50836 On ch=10 n=27 v=0
50836 On ch=10 n=42 v=0
50880 On ch=10 n=40 v=121
50880 On ch=10 n=42 v=118
50884 On ch=10 n=40 v=0
50884 On ch=10 n=42 v=0
50928 On ch=10 n=27 v=58
50928 On ch=10 n=42 v=72
50928 On ch=10 n=70 v=64
50932 On ch=10 n=27 v=0
50932 On ch=10 n=42 v=0
50932 On ch=10 n=70 v=0
50976 On ch=10 n=42 v=118
50976 On ch=10 n=82 v=67
50980 On ch=10 n=42 v=0
50980 On ch=10 n=82 v=0
51024 On ch=10 n=35 v=100
51024 On ch=10 n=42 v=74
51024 On ch=10 n=70 v=94
51028 On ch=10 n=35 v=0
51028 On ch=10 n=42 v=0
51028 On ch=10 n=70 v=0
51072 On ch=10 n=35 v=118
51072 On ch=10 n=42 v=121
51076 On ch=10 n=35 v=0
51076 On ch=10 n=42 v=0
51120 On ch=10 n=42 v=69
51124 On ch=10 n=42 v=0
51168 On ch=10 n=35 v=121
51168 On ch=10 n=42 v=118
51172 On ch=10 n=35 v=0
51172 On ch=10 n=42 v=0
51216 On ch=10 n=27 v=100
51216 On ch=10 n=42 v=62
51220 On ch=10 n=27 v=0
51220 On ch=10 n=42 v=0
51264 On ch=10 n=40 v=118
51264 On ch=10 n=42 v=121
51268 On ch=10 n=40 v=0
51268 On ch=10 n=42 v=0
51312 On ch=10 n=27 v=60
51312 On ch=10 n=42 v=62
51316 On ch=10 n=27 v=0
51316 On ch=10 n=42 v=0
51360 On ch=10 n=42 v=124
51364 On ch=10 n=42 v=0
51408 On ch=10 n=27 v=41
51408 On ch=10 n=35 v=80
51408 On ch=10 n=42 v=59
51412 On ch=10 n=27 v=0
51412 On ch=10 n=35 v=0
51412 On ch=10 n=42 v=0
51456 On ch=10 n=35 v=124
51456 On ch=10 n=42 v=118
51460 On ch=10 n=35 v=0
51460 On ch=10 n=42 v=0
51504 On ch=10 n=42 v=62
51508 On ch=10 n=42 v=0
51552 On ch=10 n=35 v=115
51552 On ch=10 n=42 v=118
51556 On ch=10 n=35 v=0
51556 On ch=10 n=42 v=0
51600 On ch=10 n=27 v=64
51600 On ch=10 n=35 v=100
51600 On ch=10 n=42 v=64
51604 On ch=10 n=27 v=0
51604 On ch=10 n=35 v=0
51604 On ch=10 n=42 v=0
51648 On ch=10 n=40 v=100
51648 On ch=10 n=42 v=118
51648 On ch=10 n=57 v=109
51652 On ch=10 n=40 v=0
51652 On ch=10 n=42 v=0
51652 On ch=10 n=57 v=0
51696 On ch=10 n=27 v=58
51696 On ch=10 n=42 v=72
51696 On ch=10 n=70 v=64
51700 On ch=10 n=27 v=0
51700 On ch=10 n=42 v=0
51700 On ch=10 n=70 v=0
51744 On ch=10 n=35 v=112
51744 On ch=10 n=42 v=118
51744 On ch=10 n=82 v=67
51748 On ch=10 n=35 v=0
51748 On ch=10 n=42 v=0
51748 On ch=10 n=82 v=0
51792 On ch=10 n=35 v=100
51792 On ch=10 n=42 v=74
51792 On ch=10 n=70 v=94
51796 On ch=10 n=35 v=0
51796 On ch=10 n=42 v=0
51796 On ch=10 n=70 v=0
51840 On ch=10 n=35 v=118
51840 On ch=10 n=42 v=121
51840 On ch=10 n=49 v=100
51844 On ch=10 n=35 v=0
51844 On ch=10 n=42 v=0
51844 On ch=10 n=49 v=0
51888 On ch=10 n=42 v=69
51892 On ch=10 n=42 v=0
51936 On ch=10 n=35 v=121
51936 On ch=10 n=42 v=118
51940 On ch=10 n=35 v=0
51940 On ch=10 n=42 v=0
51984 On ch=10 n=27 v=100
51984 On ch=10 n=42 v=62
51988 On ch=10 n=27 v=0
51988 On ch=10 n=42 v=0
52032 On ch=10 n=40 v=118
52032 On ch=10 n=42 v=121
52036 On ch=10 n=40 v=0
52036 On ch=10 n=42 v=0
52080 On ch=10 n=27 v=60
52080 On ch=10 n=42 v=62
52084 On ch=10 n=27 v=0
52084 On ch=10 n=42 v=0
52128 On ch=10 n=42 v=124
52132 On ch=10 n=42 v=0
52176 On ch=10 n=27 v=41
52176 On ch=10 n=35 v=80
52176 On ch=10 n=42 v=59
52180 On ch=10 n=27 v=0
52180 On ch=10 n=35 v=0
52180 On ch=10 n=42 v=0
52224 On ch=10 n=35 v=124
52224 On ch=10 n=42 v=118
52228 On ch=10 n=35 v=0
52228 On ch=10 n=42 v=0
52272 On ch=10 n=42 v=62
52276 On ch=10 n=42 v=0
52320 On ch=10 n=35 v=115
52320 On ch=10 n=42 v=118
52324 On ch=10 n=35 v=0
52324 On ch=10 n=42 v=0
52368 On ch=10 n=27 v=64
52368 On ch=10 n=42 v=64
52372 On ch=10 n=27 v=0
52372 On ch=10 n=42 v=0
52416 On ch=10 n=40 v=121
52416 On ch=10 n=42 v=118
52420 On ch=10 n=40 v=0
52420 On ch=10 n=42 v=0
52464 On ch=10 n=27 v=58
52464 On ch=10 n=42 v=72
52464 On ch=10 n=70 v=64
52468 On ch=10 n=27 v=0
52468 On ch=10 n=42 v=0
52468 On ch=10 n=70 v=0
52512 On ch=10 n=42 v=118
52512 On ch=10 n=82 v=67
52516 On ch=10 n=42 v=0
52516 On ch=10 n=82 v=0
52560 On ch=10 n=35 v=100
52560 On ch=10 n=42 v=74
52560 On ch=10 n=70 v=94
52564 On ch=10 n=35 v=0
52564 On ch=10 n=42 v=0
52564 On ch=10 n=70 v=0
52608 On ch=10 n=35 v=118
52608 On ch=10 n=42 v=121
52612 On ch=10 n=35 v=0
52612 On ch=10 n=42 v=0
52656 On ch=10 n=42 v=69
52660 On ch=10 n=42 v=0
52704 On ch=10 n=35 v=121
52704 On ch=10 n=42 v=118
52708 On ch=10 n=35 v=0
52708 On ch=10 n=42 v=0
52752 On ch=10 n=27 v=100
52752 On ch=10 n=42 v=62
52756 On ch=10 n=27 v=0
52756 On ch=10 n=42 v=0
52800 On ch=10 n=40 v=118
52800 On ch=10 n=42 v=121
52804 On ch=10 n=40 v=0
52804 On ch=10 n=42 v=0
52848 On ch=10 n=27 v=60
52848 On ch=10 n=42 v=62
52852 On ch=10 n=27 v=0
52852 On ch=10 n=42 v=0
52896 On ch=10 n=42 v=124
52900 On ch=10 n=42 v=0
52944 On ch=10 n=27 v=41
52944 On ch=10 n=35 v=80
52944 On ch=10 n=42 v=59
52948 On ch=10 n=27 v=0
52948 On ch=10 n=35 v=0
52948 On ch=10 n=42 v=0
52992 On ch=10 n=35 v=124
52992 On ch=10 n=42 v=118
52996 On ch=10 n=35 v=0
52996 On ch=10 n=42 v=0
53040 On ch=10 n=42 v=62
53044 On ch=10 n=42 v=0
53088 On ch=10 n=35 v=115
53088 On ch=10 n=42 v=118
53092 On ch=10 n=35 v=0
53092 On ch=10 n=42 v=0
53136 On ch=10 n=27 v=64
53136 On ch=10 n=42 v=64
53140 On ch=10 n=27 v=0
53140 On ch=10 n=42 v=0
53159 On ch=10 n=59 v=48
53163 On ch=10 n=59 v=0
53180 On ch=10 n=51 v=57
53184 On ch=10 n=51 v=0
53184 On ch=10 n=40 v=121
53184 On ch=10 n=42 v=118
53188 On ch=10 n=40 v=0
53188 On ch=10 n=42 v=0
53200 On ch=10 n=59 v=61
53204 On ch=10 n=59 v=0
53224 On ch=10 n=51 v=67
53228 On ch=10 n=51 v=0
53232 On ch=10 n=27 v=58
53232 On ch=10 n=42 v=72
53232 On ch=10 n=70 v=64
53236 On ch=10 n=27 v=0
53236 On ch=10 n=42 v=0
53236 On ch=10 n=70 v=0
53242 On ch=10 n=59 v=74
53246 On ch=10 n=59 v=0
53266 On ch=10 n=51 v=82
53270 On ch=10 n=51 v=0
53280 On ch=10 n=42 v=118
53280 On ch=10 n=82 v=67
53282 On ch=10 n=59 v=84
53284 On ch=10 n=42 v=0
53284 On ch=10 n=82 v=0
53286 On ch=10 n=59 v=0
53304 On ch=10 n=51 v=97
53308 On ch=10 n=51 v=0
53325 On ch=10 n=59 v=100
53328 On ch=10 n=35 v=100
53328 On ch=10 n=42 v=74
53328 On ch=10 n=70 v=94
53329 On ch=10 n=59 v=0
53332 On ch=10 n=35 v=0
53332 On ch=10 n=42 v=0
53332 On ch=10 n=70 v=0
53344 On ch=10 n=51 v=109
53348 On ch=10 n=51 v=0
53384 On ch=10 n=35 v=97
53384 On ch=10 n=49 v=100
53388 On ch=10 n=35 v=0
53388 On ch=10 n=49 v=0
53929 On ch=10 n=59 v=29
53930 On ch=10 n=51 v=36
53933 On ch=10 n=59 v=0
53934 On ch=10 n=51 v=0
53946 On ch=10 n=46 v=41
53950 On ch=10 n=46 v=0
53973 On ch=10 n=59 v=33
53974 On ch=10 n=51 v=44
53977 On ch=10 n=59 v=0
53978 On ch=10 n=51 v=0
53992 On ch=10 n=46 v=42
53996 On ch=10 n=46 v=0
54015 On ch=10 n=51 v=54
54019 On ch=10 n=51 v=0
54034 On ch=10 n=46 v=65
54038 On ch=10 n=46 v=0
54057 On ch=10 n=51 v=67
54061 On ch=10 n=51 v=0
54076 On ch=10 n=46 v=80
54080 On ch=10 n=46 v=0
54098 On ch=10 n=59 v=58
54100 On ch=10 n=51 v=76
54102 On ch=10 n=59 v=0
54104 On ch=10 n=51 v=0
54114 On ch=10 n=46 v=94
54118 On ch=10 n=46 v=0
54144 On ch=10 n=59 v=94
54145 On ch=10 n=51 v=103
54148 On ch=10 n=59 v=0
54149 On ch=10 n=51 v=0
59856 Par ch=10 c=120 v=0
59856 Meta TrkEnd
TrkEnd
MTrk
246 Par ch=11 c=121 v=0
248 Par ch=11 c=10 v=37
250 Par ch=11 c=93 v=30
252 Par ch=11 c=91 v=96
254 Par ch=11 c=11 v=127
256 Par ch=11 c=7 v=102
258 Pb ch=11 v=8192
262 Par ch=11 c=0 v=0
262 Par ch=11 c=32 v=0
262 PrCh ch=11 p=29
29978 Pb ch=11 v=5542
29986 Pb ch=11 v=0
30006 On ch=11 n=59 v=100
30008 On ch=11 n=54 v=88
30054 Pb ch=11 v=1266
30063 Pb ch=11 v=8192
30097 Pb ch=11 v=5844
30106 Pb ch=11 v=0
30166 Pb ch=11 v=3706
30174 Pb ch=11 v=8192
30266 On ch=11 n=59 v=0
30286 On ch=11 n=54 v=0
30290 On ch=11 n=59 v=82
30294 On ch=11 n=54 v=76
30312 On ch=11 n=43 v=94
30313 On ch=11 n=59 v=0
30316 On ch=11 n=54 v=0
30338 On ch=11 n=43 v=0
30338 On ch=11 n=57 v=97
30340 On ch=11 n=52 v=88
30892 On ch=11 n=52 v=0
30894 On ch=11 n=57 v=0
31108 Pb ch=11 v=4760
31112 On ch=11 n=66 v=90
31115 On ch=11 n=62 v=76
31118 Pb ch=11 v=3434
31126 Pb ch=11 v=4127
31134 Pb ch=11 v=5121
31142 Pb ch=11 v=7108
31152 Pb ch=11 v=8192
31352 Par ch=11 c=1 v=1
31382 Par ch=11 c=1 v=19
31400 Par ch=11 c=1 v=42
31416 Par ch=11 c=1 v=62
31454 Par ch=11 c=1 v=0
31512 On ch=11 n=66 v=0
31535 On ch=11 n=66 v=90
31593 On ch=11 n=64 v=92
31605 On ch=11 n=66 v=0
31667 On ch=11 n=62 v=0
31688 On ch=11 n=62 v=97
31694 On ch=11 n=64 v=0
31867 On ch=11 n=62 v=0
31874 On ch=11 n=62 v=86
31874 On ch=11 n=71 v=90
32248 Par ch=11 c=1 v=6
32270 Par ch=11 c=1 v=15
32296 Par ch=11 c=1 v=22
32312 Par ch=11 c=1 v=32
32342 Par ch=11 c=1 v=40
32368 Par ch=11 c=1 v=57
32406 Par ch=11 c=1 v=75
32428 Par ch=11 c=1 v=82
32454 Par ch=11 c=1 v=75
32470 Par ch=11 c=1 v=0
32621 On ch=11 n=62 v=0
32623 On ch=11 n=71 v=0
32640 On ch=11 n=62 v=78
32640 On ch=11 n=69 v=82
33006 Par ch=11 c=1 v=3
33168 On ch=11 n=62 v=0
33173 On ch=11 n=69 v=0
33196 Pb ch=11 v=7349
33204 Pb ch=11 v=5753
33214 Pb ch=11 v=3555
33216 On ch=11 n=50 v=85
33216 On ch=11 n=57 v=79
33222 Pb ch=11 v=1688
33232 Pb ch=11 v=273
33240 Pb ch=11 v=0
33253 Pb ch=11 v=1
33262 Pb ch=11 v=393
33270 Pb ch=11 v=1176
33279 Pb ch=11 v=1598
33288 Pb ch=11 v=1929
33296 Pb ch=11 v=2290
33305 Pb ch=11 v=3284
33315 Pb ch=11 v=4820
33324 Pb ch=11 v=5663
33332 Pb ch=11 v=6898
33340 Pb ch=11 v=7831
33350 Pb ch=11 v=8192
33396 On ch=11 n=57 v=0
33404 On ch=11 n=50 v=0
33410 On ch=11 n=57 v=88
33412 On ch=11 n=52 v=74
33990 Par ch=11 c=1 v=2
34010 Par ch=11 c=1 v=9
34028 Par ch=11 c=1 v=16
34049 Par ch=11 c=1 v=24
34083 Par ch=11 c=1 v=0
34136 On ch=11 n=57 v=0
34150 On ch=11 n=52 v=0
37677 On ch=11 n=59 v=112
37690 On ch=11 n=59 v=0
37702 On ch=11 n=59 v=90
37714 On ch=11 n=59 v=0
37722 On ch=11 n=59 v=109
37734 On ch=11 n=59 v=0
37744 On ch=11 n=59 v=103
37764 On ch=11 n=59 v=0
37772 On ch=11 n=59 v=121
37816 On ch=11 n=59 v=0
37826 On ch=11 n=59 v=106
37862 On ch=11 n=59 v=0
37874 On ch=11 n=59 v=86
37886 On ch=11 n=59 v=0
37894 On ch=11 n=59 v=86
37904 On ch=11 n=59 v=0
37914 On ch=11 n=59 v=109
37927 On ch=11 n=59 v=0
37936 On ch=11 n=59 v=88
37952 On ch=11 n=59 v=0
37965 On ch=11 n=59 v=121
38008 On ch=11 n=59 v=0
38020 On ch=11 n=59 v=112
38022 Pb ch=11 v=3013
38029 Pb ch=11 v=8192
38053 On ch=11 n=59 v=0
38061 On ch=11 n=59 v=112
38074 On ch=11 n=59 v=0
38086 On ch=11 n=59 v=90
38098 On ch=11 n=59 v=0
38106 On ch=11 n=59 v=109
38118 On ch=11 n=59 v=0
38128 On ch=11 n=59 v=103
38148 On ch=11 n=59 v=0
38156 On ch=11 n=59 v=121
38200 On ch=11 n=59 v=0
38210 On ch=11 n=59 v=106
38246 On ch=11 n=59 v=0
38258 On ch=11 n=59 v=86
38270 On ch=11 n=59 v=0
38278 On ch=11 n=59 v=86
38288 On ch=11 n=59 v=0
38298 On ch=11 n=59 v=109
38311 On ch=11 n=59 v=0
38320 On ch=11 n=59 v=88
38336 On ch=11 n=59 v=0
38349 On ch=11 n=59 v=121
38392 On ch=11 n=59 v=0
38403 On ch=11 n=59 v=112
38442 On ch=11 n=59 v=0
38451 On ch=11 n=59 v=84
38464 On ch=11 n=59 v=0
38473 On ch=11 n=59 v=90
38486 On ch=11 n=59 v=0
38495 On ch=11 n=59 v=109
38509 On ch=11 n=59 v=0
38522 On ch=11 n=59 v=90
38544 On ch=11 n=59 v=0
38551 On ch=11 n=59 v=109
38582 On ch=11 n=59 v=0
38592 On ch=11 n=59 v=118
38630 On ch=11 n=59 v=0
38638 On ch=11 n=59 v=88
38654 On ch=11 n=59 v=0
38662 On ch=11 n=59 v=96
38679 On ch=11 n=59 v=0
38688 On ch=11 n=59 v=100
38702 On ch=11 n=59 v=0
38712 On ch=11 n=59 v=84
38730 On ch=11 n=59 v=0
38736 On ch=11 n=59 v=109
38769 On ch=11 n=59 v=0
38778 Pb ch=11 v=6476
38785 Pb ch=11 v=1296
38787 On ch=11 n=59 v=112
38792 Pb ch=11 v=1507
38800 Pb ch=11 v=8192
38824 On ch=11 n=59 v=0
38833 On ch=11 n=59 v=100
38848 On ch=11 n=59 v=0
38858 On ch=11 n=59 v=94
38871 On ch=11 n=59 v=0
38880 On ch=11 n=59 v=106
38894 On ch=11 n=59 v=0
38904 On ch=11 n=59 v=88
38919 On ch=11 n=59 v=0
38928 On ch=11 n=59 v=115
38963 On ch=11 n=59 v=0
38974 On ch=11 n=59 v=109
39017 On ch=11 n=59 v=0
39024 On ch=11 n=59 v=88
39040 On ch=11 n=59 v=0
39050 On ch=11 n=59 v=88
39062 On ch=11 n=59 v=0
39071 On ch=11 n=59 v=92
39087 On ch=11 n=59 v=0
39094 On ch=11 n=59 v=86
39112 On ch=11 n=59 v=0
39122 On ch=11 n=59 v=115
39152 On ch=11 n=59 v=0
39167 On ch=11 n=59 v=112
39210 On ch=11 n=59 v=0
39214 On ch=11 n=59 v=103
39230 On ch=11 n=59 v=0
39239 On ch=11 n=59 v=94
39251 On ch=11 n=59 v=0
39259 On ch=11 n=59 v=90
39276 On ch=11 n=59 v=0
39283 On ch=11 n=59 v=84
39302 On ch=11 n=59 v=0
39312 On ch=11 n=59 v=112
39350 On ch=11 n=59 v=0
39362 On ch=11 n=59 v=109
39401 On ch=11 n=59 v=0
39408 On ch=11 n=59 v=88
39423 On ch=11 n=59 v=0
39432 On ch=11 n=59 v=86
39446 On ch=11 n=59 v=0
39452 On ch=11 n=59 v=103
39471 On ch=11 n=59 v=0
39483 On ch=11 n=59 v=106
39500 On ch=11 n=59 v=0
39509 On ch=11 n=59 v=115
39550 On ch=11 n=59 v=0
39556 On ch=11 n=57 v=109
39588 On ch=11 n=57 v=0
39596 On ch=11 n=57 v=100
39612 On ch=11 n=57 v=0
39623 On ch=11 n=57 v=88
39639 On ch=11 n=57 v=0
39646 On ch=11 n=57 v=100
39658 On ch=11 n=57 v=0
39672 On ch=11 n=57 v=90
39692 On ch=11 n=57 v=0
39699 On ch=11 n=57 v=109
39730 On ch=11 n=57 v=0
39742 On ch=11 n=57 v=112
39780 On ch=11 n=57 v=0
39788 On ch=11 n=57 v=83
39802 On ch=11 n=57 v=0
39810 On ch=11 n=57 v=86
39826 On ch=11 n=57 v=0
39832 On ch=11 n=57 v=97
39848 On ch=11 n=57 v=0
39858 On ch=11 n=57 v=84
39874 On ch=11 n=57 v=0
39884 On ch=11 n=57 v=109
39924 On ch=11 n=57 v=0
39936 On ch=11 n=57 v=112
39975 On ch=11 n=57 v=0
39980 On ch=11 n=57 v=97
39995 On ch=11 n=57 v=0
40006 On ch=11 n=57 v=100
40020 On ch=11 n=57 v=0
40028 On ch=11 n=57 v=106
40042 On ch=11 n=57 v=0
40053 On ch=11 n=57 v=100
40068 On ch=11 n=57 v=0
40078 On ch=11 n=57 v=112
40112 On ch=11 n=57 v=0
40128 On ch=11 n=57 v=112
40166 On ch=11 n=57 v=0
40174 On ch=11 n=57 v=86
40188 On ch=11 n=57 v=0
40198 On ch=11 n=57 v=97
40212 On ch=11 n=57 v=0
40220 On ch=11 n=57 v=94
40234 On ch=11 n=57 v=0
40244 On ch=11 n=57 v=97
40258 On ch=11 n=57 v=0
40270 On ch=11 n=57 v=112
40312 On ch=11 n=57 v=0
40320 Pb ch=11 v=0
40324 On ch=11 n=59 v=109
40344 Pb ch=11 v=122
40352 Pb ch=11 v=8192
40356 On ch=11 n=59 v=0
40364 On ch=11 n=59 v=100
40380 On ch=11 n=59 v=0
40391 On ch=11 n=59 v=88
40407 On ch=11 n=59 v=0
40414 On ch=11 n=59 v=100
40426 On ch=11 n=59 v=0
40440 On ch=11 n=59 v=90
40460 On ch=11 n=59 v=0
40467 On ch=11 n=59 v=109
40498 On ch=11 n=59 v=0
40510 On ch=11 n=59 v=112
40548 On ch=11 n=59 v=0
40556 On ch=11 n=59 v=83
40570 On ch=11 n=59 v=0
40578 On ch=11 n=59 v=86
40594 On ch=11 n=59 v=0
40600 On ch=11 n=59 v=97
40616 On ch=11 n=59 v=0
40626 On ch=11 n=59 v=84
40642 On ch=11 n=59 v=0
40652 On ch=11 n=59 v=109
40692 On ch=11 n=59 v=0
40704 On ch=11 n=59 v=112
40743 On ch=11 n=59 v=0
40748 On ch=11 n=59 v=97
40763 On ch=11 n=59 v=0
40774 On ch=11 n=59 v=100
40788 On ch=11 n=59 v=0
40796 On ch=11 n=59 v=106
40810 On ch=11 n=59 v=0
40821 On ch=11 n=59 v=100
40836 On ch=11 n=59 v=0
40846 On ch=11 n=59 v=112
40880 On ch=11 n=59 v=0
40896 On ch=11 n=59 v=112
40934 On ch=11 n=59 v=0
40942 On ch=11 n=59 v=86
40956 On ch=11 n=59 v=0
40966 On ch=11 n=59 v=97
40980 On ch=11 n=59 v=0
40988 On ch=11 n=59 v=94
41002 On ch=11 n=59 v=0
41012 On ch=11 n=59 v=97
41026 On ch=11 n=59 v=0
41038 On ch=11 n=59 v=112
41080 On ch=11 n=59 v=0
41092 On ch=11 n=59 v=112
41094 Pb ch=11 v=3013
41101 Pb ch=11 v=8192
41125 On ch=11 n=59 v=0
41133 On ch=11 n=59 v=112
41146 On ch=11 n=59 v=0
41158 On ch=11 n=59 v=90
41170 On ch=11 n=59 v=0
41178 On ch=11 n=59 v=109
41190 On ch=11 n=59 v=0
41200 On ch=11 n=59 v=103
41220 On ch=11 n=59 v=0
41228 On ch=11 n=59 v=121
41272 On ch=11 n=59 v=0
41282 On ch=11 n=59 v=106
41318 On ch=11 n=59 v=0
41330 On ch=11 n=59 v=86
41342 On ch=11 n=59 v=0
41350 On ch=11 n=59 v=86
41360 On ch=11 n=59 v=0
41370 On ch=11 n=59 v=109
41383 On ch=11 n=59 v=0
41392 On ch=11 n=59 v=88
41408 On ch=11 n=59 v=0
41421 On ch=11 n=59 v=121
41464 On ch=11 n=59 v=0
41475 On ch=11 n=59 v=112
41514 On ch=11 n=59 v=0
41523 On ch=11 n=59 v=84
41536 On ch=11 n=59 v=0
41545 On ch=11 n=59 v=90
41558 On ch=11 n=59 v=0
41567 On ch=11 n=59 v=109
41581 On ch=11 n=59 v=0
41594 On ch=11 n=59 v=90
41616 On ch=11 n=59 v=0
41623 On ch=11 n=59 v=109
41654 On ch=11 n=59 v=0
41664 On ch=11 n=59 v=118
41702 On ch=11 n=59 v=0
41710 On ch=11 n=59 v=88
41726 On ch=11 n=59 v=0
41734 On ch=11 n=59 v=96
41751 On ch=11 n=59 v=0
41760 On ch=11 n=59 v=100
41774 On ch=11 n=59 v=0
41784 On ch=11 n=59 v=84
41802 On ch=11 n=59 v=0
41808 On ch=11 n=59 v=109
41841 On ch=11 n=59 v=0
41850 Pb ch=11 v=6476
41857 Pb ch=11 v=1296
41859 On ch=11 n=59 v=112
41864 Pb ch=11 v=1507
41872 Pb ch=11 v=8192
41896 On ch=11 n=59 v=0
41905 On ch=11 n=59 v=100
41920 On ch=11 n=59 v=0
41930 On ch=11 n=59 v=94
41943 On ch=11 n=59 v=0
41952 On ch=11 n=59 v=106
41966 On ch=11 n=59 v=0
41976 On ch=11 n=59 v=88
41991 On ch=11 n=59 v=0
42000 On ch=11 n=59 v=115
42035 On ch=11 n=59 v=0
42046 On ch=11 n=59 v=109
42089 On ch=11 n=59 v=0
42096 On ch=11 n=59 v=88
42112 On ch=11 n=59 v=0
42122 On ch=11 n=59 v=88
42134 On ch=11 n=59 v=0
42143 On ch=11 n=59 v=92
42159 On ch=11 n=59 v=0
42166 On ch=11 n=59 v=86
42184 On ch=11 n=59 v=0
42194 On ch=11 n=59 v=115
42224 On ch=11 n=59 v=0
42239 On ch=11 n=59 v=112
42282 On ch=11 n=59 v=0
42286 On ch=11 n=59 v=103
42302 On ch=11 n=59 v=0
42311 On ch=11 n=59 v=94
42323 On ch=11 n=59 v=0
42331 On ch=11 n=59 v=90
42348 On ch=11 n=59 v=0
42355 On ch=11 n=59 v=84
42374 On ch=11 n=59 v=0
42384 On ch=11 n=59 v=112
42422 On ch=11 n=59 v=0
42434 On ch=11 n=59 v=109
42473 On ch=11 n=59 v=0
42480 On ch=11 n=59 v=88
42495 On ch=11 n=59 v=0
42504 On ch=11 n=59 v=86
42518 On ch=11 n=59 v=0
42524 On ch=11 n=59 v=103
42543 On ch=11 n=59 v=0
42555 On ch=11 n=59 v=106
42572 On ch=11 n=59 v=0
42581 On ch=11 n=59 v=115
42622 On ch=11 n=59 v=0
42628 On ch=11 n=57 v=109
42660 On ch=11 n=57 v=0
42668 On ch=11 n=57 v=100
42684 On ch=11 n=57 v=0
42695 On ch=11 n=57 v=88
42711 On ch=11 n=57 v=0
42718 On ch=11 n=57 v=100
42730 On ch=11 n=57 v=0
42744 On ch=11 n=57 v=90
42764 On ch=11 n=57 v=0
42771 On ch=11 n=57 v=109
42802 On ch=11 n=57 v=0
42814 On ch=11 n=57 v=112
42852 On ch=11 n=57 v=0
42860 On ch=11 n=57 v=83
42874 On ch=11 n=57 v=0
42882 On ch=11 n=57 v=86
42898 On ch=11 n=57 v=0
42904 On ch=11 n=57 v=97
42920 On ch=11 n=57 v=0
42930 On ch=11 n=57 v=84
42946 On ch=11 n=57 v=0
42956 On ch=11 n=57 v=109
42996 On ch=11 n=57 v=0
43008 On ch=11 n=57 v=112
43047 On ch=11 n=57 v=0
43052 On ch=11 n=57 v=97
43067 On ch=11 n=57 v=0
43078 On ch=11 n=57 v=100
43092 On ch=11 n=57 v=0
43100 On ch=11 n=57 v=106
43114 On ch=11 n=57 v=0
43125 On ch=11 n=57 v=100
43140 On ch=11 n=57 v=0
43150 On ch=11 n=57 v=112
43184 On ch=11 n=57 v=0
43200 On ch=11 n=57 v=112
43238 On ch=11 n=57 v=0
43246 On ch=11 n=57 v=86
43260 On ch=11 n=57 v=0
43270 On ch=11 n=57 v=97
43284 On ch=11 n=57 v=0
43292 On ch=11 n=57 v=94
43306 On ch=11 n=57 v=0
43316 On ch=11 n=57 v=97
43330 On ch=11 n=57 v=0
43342 On ch=11 n=57 v=112
43384 On ch=11 n=57 v=0
43392 Pb ch=11 v=0
43396 On ch=11 n=59 v=109
43416 Pb ch=11 v=122
43424 Pb ch=11 v=8192
43428 On ch=11 n=59 v=0
43436 On ch=11 n=59 v=100
43452 On ch=11 n=59 v=0
43463 On ch=11 n=59 v=88
43479 On ch=11 n=59 v=0
43486 On ch=11 n=59 v=100
43498 On ch=11 n=59 v=0
43512 On ch=11 n=59 v=90
43532 On ch=11 n=59 v=0
43539 On ch=11 n=59 v=109
43570 On ch=11 n=59 v=0
43582 On ch=11 n=59 v=112
43620 On ch=11 n=59 v=0
43628 On ch=11 n=59 v=83
43642 On ch=11 n=59 v=0
43650 On ch=11 n=59 v=86
43666 On ch=11 n=59 v=0
43672 On ch=11 n=59 v=97
43688 On ch=11 n=59 v=0
43698 On ch=11 n=59 v=84
43714 On ch=11 n=59 v=0
43724 On ch=11 n=59 v=109
43764 On ch=11 n=59 v=0
43776 On ch=11 n=59 v=112
43815 On ch=11 n=59 v=0
43820 On ch=11 n=59 v=97
43835 On ch=11 n=59 v=0
43846 On ch=11 n=59 v=100
43860 On ch=11 n=59 v=0
43868 On ch=11 n=59 v=106
43882 On ch=11 n=59 v=0
43893 On ch=11 n=59 v=100
43908 On ch=11 n=59 v=0
43918 On ch=11 n=59 v=112
43952 On ch=11 n=59 v=0
43968 On ch=11 n=59 v=112
44006 On ch=11 n=59 v=0
44014 On ch=11 n=59 v=86
44028 On ch=11 n=59 v=0
44038 On ch=11 n=59 v=97
44052 On ch=11 n=59 v=0
44060 On ch=11 n=59 v=94
44074 On ch=11 n=59 v=0
44084 On ch=11 n=59 v=97
44098 On ch=11 n=59 v=0
44110 On ch=11 n=59 v=112
44152 On ch=11 n=59 v=0
44164 On ch=11 n=59 v=112
44166 Pb ch=11 v=3013
44173 Pb ch=11 v=8192
44197 On ch=11 n=59 v=0
44205 On ch=11 n=59 v=112
44218 On ch=11 n=59 v=0
44230 On ch=11 n=59 v=90
44242 On ch=11 n=59 v=0
44250 On ch=11 n=59 v=109
44262 On ch=11 n=59 v=0
44272 On ch=11 n=59 v=103
44292 On ch=11 n=59 v=0
44300 On ch=11 n=59 v=121
44344 On ch=11 n=59 v=0
44354 On ch=11 n=59 v=106
44390 On ch=11 n=59 v=0
44402 On ch=11 n=59 v=86
44414 On ch=11 n=59 v=0
44422 On ch=11 n=59 v=86
44432 On ch=11 n=59 v=0
44442 On ch=11 n=59 v=109
44455 On ch=11 n=59 v=0
44464 On ch=11 n=59 v=88
44480 On ch=11 n=59 v=0
44493 On ch=11 n=59 v=121
44536 On ch=11 n=59 v=0
44547 On ch=11 n=59 v=112
44586 On ch=11 n=59 v=0
44595 On ch=11 n=59 v=84
44608 On ch=11 n=59 v=0
44617 On ch=11 n=59 v=90
44630 On ch=11 n=59 v=0
44639 On ch=11 n=59 v=109
44653 On ch=11 n=59 v=0
44666 On ch=11 n=59 v=90
44688 On ch=11 n=59 v=0
44695 On ch=11 n=59 v=109
44726 On ch=11 n=59 v=0
44736 On ch=11 n=59 v=118
44774 On ch=11 n=59 v=0
44782 On ch=11 n=59 v=88
44798 On ch=11 n=59 v=0
44806 On ch=11 n=59 v=96
44823 On ch=11 n=59 v=0
44832 On ch=11 n=59 v=100
44846 On ch=11 n=59 v=0
44856 On ch=11 n=59 v=84
44874 On ch=11 n=59 v=0
44880 On ch=11 n=59 v=109
44913 On ch=11 n=59 v=0
44922 Pb ch=11 v=6476
44929 Pb ch=11 v=1296
44931 On ch=11 n=59 v=112
44936 Pb ch=11 v=1507
44944 Pb ch=11 v=8192
44968 On ch=11 n=59 v=0
44977 On ch=11 n=59 v=100
44992 On ch=11 n=59 v=0
45002 On ch=11 n=59 v=94
45015 On ch=11 n=59 v=0
45024 On ch=11 n=59 v=106
45038 On ch=11 n=59 v=0
45048 On ch=11 n=59 v=88
45063 On ch=11 n=59 v=0
45072 On ch=11 n=59 v=115
45107 On ch=11 n=59 v=0
45118 On ch=11 n=59 v=109
45161 On ch=11 n=59 v=0
45168 On ch=11 n=59 v=88
45184 On ch=11 n=59 v=0
45194 On ch=11 n=59 v=88
45206 On ch=11 n=59 v=0
45215 On ch=11 n=59 v=92
45231 On ch=11 n=59 v=0
45238 On ch=11 n=59 v=86
45256 On ch=11 n=59 v=0
45266 On ch=11 n=59 v=115
45296 On ch=11 n=59 v=0
45311 On ch=11 n=59 v=112
45354 On ch=11 n=59 v=0
45358 On ch=11 n=59 v=103
45374 On ch=11 n=59 v=0
45383 On ch=11 n=59 v=94
45395 On ch=11 n=59 v=0
45403 On ch=11 n=59 v=90
45420 On ch=11 n=59 v=0
45427 On ch=11 n=59 v=84
45446 On ch=11 n=59 v=0
45456 On ch=11 n=59 v=112
45494 On ch=11 n=59 v=0
45506 On ch=11 n=59 v=109
45545 On ch=11 n=59 v=0
45552 On ch=11 n=59 v=88
45567 On ch=11 n=59 v=0
45576 On ch=11 n=59 v=86
45590 On ch=11 n=59 v=0
45596 On ch=11 n=59 v=103
45615 On ch=11 n=59 v=0
45627 On ch=11 n=59 v=106
45644 On ch=11 n=59 v=0
45653 On ch=11 n=59 v=115
45694 On ch=11 n=59 v=0
45700 On ch=11 n=57 v=109
45732 On ch=11 n=57 v=0
45740 On ch=11 n=57 v=100
45756 On ch=11 n=57 v=0
45767 On ch=11 n=57 v=88
45783 On ch=11 n=57 v=0
45790 On ch=11 n=57 v=100
45802 On ch=11 n=57 v=0
45816 On ch=11 n=57 v=90
45836 On ch=11 n=57 v=0
45843 On ch=11 n=57 v=109
45874 On ch=11 n=57 v=0
45886 On ch=11 n=57 v=112
45924 On ch=11 n=57 v=0
45932 On ch=11 n=57 v=83
45946 On ch=11 n=57 v=0
45954 On ch=11 n=57 v=86
45970 On ch=11 n=57 v=0
45976 On ch=11 n=57 v=97
45992 On ch=11 n=57 v=0
46002 On ch=11 n=57 v=84
46018 On ch=11 n=57 v=0
46028 On ch=11 n=57 v=109
46068 On ch=11 n=57 v=0
46080 On ch=11 n=57 v=112
46119 On ch=11 n=57 v=0
46124 On ch=11 n=57 v=97
46139 On ch=11 n=57 v=0
46150 On ch=11 n=57 v=100
46164 On ch=11 n=57 v=0
46172 On ch=11 n=57 v=106
46186 On ch=11 n=57 v=0
46197 On ch=11 n=57 v=100
46212 On ch=11 n=57 v=0
46222 On ch=11 n=57 v=112
46256 On ch=11 n=57 v=0
46272 On ch=11 n=57 v=112
46310 On ch=11 n=57 v=0
46318 On ch=11 n=57 v=86
46332 On ch=11 n=57 v=0
46342 On ch=11 n=57 v=97
46356 On ch=11 n=57 v=0
46364 On ch=11 n=57 v=94
46378 On ch=11 n=57 v=0
46388 On ch=11 n=57 v=97
46402 On ch=11 n=57 v=0
46414 On ch=11 n=57 v=112
46456 On ch=11 n=57 v=0
46464 Pb ch=11 v=0
46468 On ch=11 n=59 v=109
46488 Pb ch=11 v=122
46496 Pb ch=11 v=8192
46500 On ch=11 n=59 v=0
46508 On ch=11 n=59 v=100
46524 On ch=11 n=59 v=0
46535 On ch=11 n=59 v=88
46551 On ch=11 n=59 v=0
46558 On ch=11 n=59 v=100
46570 On ch=11 n=59 v=0
46584 On ch=11 n=59 v=90
46604 On ch=11 n=59 v=0
46611 On ch=11 n=59 v=109
46642 On ch=11 n=59 v=0
46654 On ch=11 n=59 v=112
46692 On ch=11 n=59 v=0
46700 On ch=11 n=59 v=83
46714 On ch=11 n=59 v=0
46722 On ch=11 n=59 v=86
46738 On ch=11 n=59 v=0
46744 On ch=11 n=59 v=97
46760 On ch=11 n=59 v=0
46770 On ch=11 n=59 v=84
46786 On ch=11 n=59 v=0
46796 On ch=11 n=59 v=109
46836 On ch=11 n=59 v=0
46848 On ch=11 n=59 v=112
46887 On ch=11 n=59 v=0
46892 On ch=11 n=59 v=97
46907 On ch=11 n=59 v=0
46918 On ch=11 n=59 v=100
46932 On ch=11 n=59 v=0
46940 On ch=11 n=59 v=106
46954 On ch=11 n=59 v=0
46965 On ch=11 n=59 v=100
46980 On ch=11 n=59 v=0
46990 On ch=11 n=59 v=112
47024 On ch=11 n=59 v=0
47040 On ch=11 n=59 v=112
47078 On ch=11 n=59 v=0
47086 On ch=11 n=59 v=86
47100 On ch=11 n=59 v=0
47110 On ch=11 n=59 v=97
47124 On ch=11 n=59 v=0
47132 On ch=11 n=59 v=94
47146 On ch=11 n=59 v=0
47156 On ch=11 n=59 v=97
47170 On ch=11 n=59 v=0
47182 On ch=11 n=59 v=112
47224 On ch=11 n=59 v=0
47236 On ch=11 n=59 v=112
47238 Pb ch=11 v=3013
47245 Pb ch=11 v=8192
47269 On ch=11 n=59 v=0
47277 On ch=11 n=59 v=112
47290 On ch=11 n=59 v=0
47302 On ch=11 n=59 v=90
47314 On ch=11 n=59 v=0
47322 On ch=11 n=59 v=109
47334 On ch=11 n=59 v=0
47344 On ch=11 n=59 v=103
47364 On ch=11 n=59 v=0
47372 On ch=11 n=59 v=121
47416 On ch=11 n=59 v=0
47426 On ch=11 n=59 v=106
47462 On ch=11 n=59 v=0
47474 On ch=11 n=59 v=86
47486 On ch=11 n=59 v=0
47494 On ch=11 n=59 v=86
47504 On ch=11 n=59 v=0
47514 On ch=11 n=59 v=109
47527 On ch=11 n=59 v=0
47536 On ch=11 n=59 v=88
47552 On ch=11 n=59 v=0
47565 On ch=11 n=59 v=121
47608 On ch=11 n=59 v=0
47619 On ch=11 n=59 v=112
47658 On ch=11 n=59 v=0
47667 On ch=11 n=59 v=84
47680 On ch=11 n=59 v=0
47689 On ch=11 n=59 v=90
47702 On ch=11 n=59 v=0
47711 On ch=11 n=59 v=109
47725 On ch=11 n=59 v=0
47738 On ch=11 n=59 v=90
47760 On ch=11 n=59 v=0
47767 On ch=11 n=59 v=109
47798 On ch=11 n=59 v=0
47808 On ch=11 n=59 v=118
47846 On ch=11 n=59 v=0
47854 On ch=11 n=59 v=88
47870 On ch=11 n=59 v=0
47878 On ch=11 n=59 v=96
47895 On ch=11 n=59 v=0
47904 On ch=11 n=59 v=100
47918 On ch=11 n=59 v=0
47928 On ch=11 n=59 v=84
47946 On ch=11 n=59 v=0
47952 On ch=11 n=59 v=109
47985 On ch=11 n=59 v=0
47994 Pb ch=11 v=6476
48001 Pb ch=11 v=1296
48003 On ch=11 n=59 v=112
48008 Pb ch=11 v=1507
48016 Pb ch=11 v=8192
48040 On ch=11 n=59 v=0
48049 On ch=11 n=59 v=100
48064 On ch=11 n=59 v=0
48074 On ch=11 n=59 v=94
48087 On ch=11 n=59 v=0
48096 On ch=11 n=59 v=106
48110 On ch=11 n=59 v=0
48120 On ch=11 n=59 v=88
48135 On ch=11 n=59 v=0
48144 On ch=11 n=59 v=115
48179 On ch=11 n=59 v=0
48190 On ch=11 n=59 v=109
48233 On ch=11 n=59 v=0
48240 On ch=11 n=59 v=88
48256 On ch=11 n=59 v=0
48266 On ch=11 n=59 v=88
48278 On ch=11 n=59 v=0
48287 On ch=11 n=59 v=92
48303 On ch=11 n=59 v=0
48310 On ch=11 n=59 v=86
48328 On ch=11 n=59 v=0
48338 On ch=11 n=59 v=115
48368 On ch=11 n=59 v=0
48383 On ch=11 n=59 v=112
48426 On ch=11 n=59 v=0
48430 On ch=11 n=59 v=103
48446 On ch=11 n=59 v=0
48455 On ch=11 n=59 v=94
48467 On ch=11 n=59 v=0
48475 On ch=11 n=59 v=90
48492 On ch=11 n=59 v=0
48499 On ch=11 n=59 v=84
48518 On ch=11 n=59 v=0
48528 On ch=11 n=59 v=112
48566 On ch=11 n=59 v=0
48578 On ch=11 n=59 v=109
48617 On ch=11 n=59 v=0
48624 On ch=11 n=59 v=88
48639 On ch=11 n=59 v=0
48648 On ch=11 n=59 v=86
48662 On ch=11 n=59 v=0
48668 On ch=11 n=59 v=103
48687 On ch=11 n=59 v=0
48699 On ch=11 n=59 v=106
48716 On ch=11 n=59 v=0
48725 On ch=11 n=59 v=115
48766 On ch=11 n=59 v=0
49946 Pb ch=11 v=5542
49954 Pb ch=11 v=0
49974 On ch=11 n=59 v=100
49976 On ch=11 n=54 v=88
50022 Pb ch=11 v=1266
50031 Pb ch=11 v=8192
50065 Pb ch=11 v=5844
50074 Pb ch=11 v=0
50134 Pb ch=11 v=3706
50142 Pb ch=11 v=8192
50238 On ch=11 n=59 v=0
50238 On ch=11 n=54 v=0
50254 On ch=11 n=59 v=82
50258 On ch=11 n=54 v=76
50276 On ch=11 n=43 v=94
50277 On ch=11 n=59 v=0
50280 On ch=11 n=54 v=0
50302 On ch=11 n=43 v=0
50302 On ch=11 n=57 v=97
50304 On ch=11 n=52 v=88
50888 On ch=11 n=52 v=0
50890 On ch=11 n=57 v=0
51076 Pb ch=11 v=4760
51080 On ch=11 n=66 v=90
51083 On ch=11 n=62 v=76
51086 Pb ch=11 v=3434
51094 Pb ch=11 v=4127
51102 Pb ch=11 v=5121
51110 Pb ch=11 v=7108
51120 Pb ch=11 v=8192
51320 Par ch=11 c=1 v=1
51350 Par ch=11 c=1 v=19
51368 Par ch=11 c=1 v=42
51384 Par ch=11 c=1 v=62
51422 Par ch=11 c=1 v=0
51480 On ch=11 n=66 v=0
51503 On ch=11 n=66 v=90
51561 On ch=11 n=64 v=92
51573 On ch=11 n=66 v=0
51635 On ch=11 n=62 v=0
51656 On ch=11 n=62 v=97
51662 On ch=11 n=64 v=0
51835 On ch=11 n=62 v=0
51842 On ch=11 n=62 v=86
51842 On ch=11 n=71 v=90
52216 Par ch=11 c=1 v=6
52238 Par ch=11 c=1 v=15
52264 Par ch=11 c=1 v=22
52280 Par ch=11 c=1 v=32
52310 Par ch=11 c=1 v=40
52336 Par ch=11 c=1 v=57
52374 Par ch=11 c=1 v=75
52396 Par ch=11 c=1 v=82
52422 Par ch=11 c=1 v=75
52438 Par ch=11 c=1 v=0
52589 On ch=11 n=62 v=0
52591 On ch=11 n=71 v=0
52606 On ch=11 n=69 v=82
52610 On ch=11 n=62 v=78
52974 Par ch=11 c=1 v=3
53004 Par ch=11 c=1 v=11
53030 Par ch=11 c=1 v=30
53050 Par ch=11 c=1 v=45
53068 Par ch=11 c=1 v=52
53094 Par ch=11 c=1 v=59
53110 Par ch=11 c=1 v=66
53144 Par ch=11 c=1 v=73
53213 Par ch=11 c=1 v=66
53294 Par ch=11 c=1 v=57
53318 On ch=11 n=62 v=0
53319 On ch=11 n=69 v=0
53325 Par ch=11 c=1 v=0
53379 Pb ch=11 v=3374
53380 On ch=11 n=57 v=71
53380 On ch=11 n=62 v=74
53382 On ch=11 n=64 v=72
53388 Pb ch=11 v=3284
53397 Pb ch=11 v=4308
53406 Pb ch=11 v=5452
53414 Pb ch=11 v=6777
53422 Pb ch=11 v=8192
53958 Par ch=11 c=1 v=2
53978 Par ch=11 c=1 v=9
53996 Par ch=11 c=1 v=16
54017 Par ch=11 c=1 v=24
54051 Par ch=11 c=1 v=0
54458 On ch=11 n=57 v=0
54461 On ch=11 n=64 v=0
54463 On ch=11 n=62 v=0
56176 Par ch=11 c=7 v=31
56197 Par ch=11 c=7 v=61
56220 Par ch=11 c=7 v=86
56243 Par ch=11 c=7 v=91
56268 Par ch=11 c=7 v=57
56295 Par ch=11 c=7 v=1
56424 Par ch=11 c=7 v=0
56496 On ch=11 n=59 v=88
56497 On ch=11 n=64 v=92
56498 On ch=11 n=71 v=106
56518 Par ch=11 c=7 v=3
56539 Par ch=11 c=7 v=11
56566 Par ch=11 c=7 v=18
56584 Par ch=11 c=7 v=21
56610 Par ch=11 c=7 v=28
56632 Par ch=11 c=7 v=31
56664 Par ch=11 c=7 v=33
56703 Par ch=11 c=7 v=40
56734 Par ch=11 c=7 v=45
56769 Par ch=11 c=7 v=51
56795 Par ch=11 c=7 v=55
56812 Par ch=11 c=7 v=58
56830 Par ch=11 c=7 v=60
56908 Par ch=11 c=7 v=63
57126 Par ch=11 c=7 v=66
57204 Par ch=11 c=7 v=69
57552 Par ch=11 c=7 v=77
57600 Par ch=11 c=7 v=75
57648 Par ch=11 c=7 v=72
57696 Par ch=11 c=7 v=70
57744 Par ch=11 c=7 v=68
57792 Par ch=11 c=7 v=66
57840 Par ch=11 c=7 v=63
57888 Par ch=11 c=7 v=61
57936 Par ch=11 c=7 v=59
57984 Par ch=11 c=7 v=57
58032 Par ch=11 c=7 v=54
58080 Par ch=11 c=7 v=52
58128 Par ch=11 c=7 v=50
58176 Par ch=11 c=7 v=48
58224 Par ch=11 c=7 v=45
58272 Par ch=11 c=7 v=43
58320 Par ch=11 c=7 v=41
58368 Par ch=11 c=7 v=38
58416 Par ch=11 c=7 v=36
58464 Par ch=11 c=7 v=34
58512 Par ch=11 c=7 v=32
58560 Par ch=11 c=7 v=29
58608 Par ch=11 c=7 v=27
58656 Par ch=11 c=7 v=25
58704 Par ch=11 c=7 v=23
58752 Par ch=11 c=7 v=20
58800 Par ch=11 c=7 v=18
58848 Par ch=11 c=7 v=16
58896 Par ch=11 c=7 v=14
58944 Par ch=11 c=7 v=11
58992 Par ch=11 c=7 v=9
59040 Par ch=11 c=7 v=7
59088 Par ch=11 c=7 v=5
59136 Par ch=11 c=7 v=2
59143 On ch=11 n=71 v=0
59146 On ch=11 n=64 v=0
59147 On ch=11 n=59 v=0
59808 Par ch=11 c=123 v=0
59856 Par ch=11 c=120 v=0
59856 Meta TrkEnd
TrkEnd
MTrk
372 Par ch=12 c=121 v=0
374 Par ch=12 c=10 v=34
376 Par ch=12 c=93 v=44
378 Par ch=12 c=91 v=66
380 Par ch=12 c=11 v=127
382 Par ch=12 c=7 v=112
384 Pb ch=12 v=8192
388 Par ch=12 c=0 v=0
388 Par ch=12 c=32 v=0
388 PrCh ch=12 p=80
548 Par ch=12 c=99 v=1
548 Par ch=12 c=98 v=99
548 Par ch=12 c=6 v=30
548 Par ch=12 c=38 v=0
674 Par ch=12 c=99 v=1
674 Par ch=12 c=98 v=32
674 Par ch=12 c=6 v=34
674 Par ch=12 c=38 v=0
768 On ch=12 n=35 v=107
829 On ch=12 n=35 v=0
864 On ch=12 n=35 v=106
892 On ch=12 n=35 v=0
912 On ch=12 n=33 v=107
932 On ch=12 n=33 v=0
1008 On ch=12 n=35 v=106
1020 On ch=12 n=35 v=0
1056 On ch=12 n=35 v=95
1058 On ch=12 n=35 v=0
1104 On ch=12 n=35 v=101
1110 On ch=12 n=35 v=0
1152 On ch=12 n=35 v=106
1214 On ch=12 n=35 v=0
1248 On ch=12 n=35 v=102
1289 On ch=12 n=35 v=0
1296 On ch=12 n=33 v=104
1323 On ch=12 n=33 v=0
1392 On ch=12 n=35 v=101
1398 On ch=12 n=35 v=0
1440 On ch=12 n=35 v=99
1445 On ch=12 n=35 v=0
1488 On ch=12 n=35 v=102
1494 On ch=12 n=35 v=0
1536 On ch=12 n=35 v=107
1630 On ch=12 n=35 v=0
1680 On ch=12 n=35 v=105
1690 On ch=12 n=35 v=0
1728 On ch=12 n=35 v=107
1794 On ch=12 n=35 v=0
1824 On ch=12 n=35 v=106
1888 On ch=12 n=35 v=0
34224 On ch=12 n=59 v=101
34270 On ch=12 n=59 v=0
34272 On ch=12 n=54 v=95
34290 On ch=12 n=54 v=0
34320 On ch=12 n=59 v=99
34363 On ch=12 n=59 v=0
34368 On ch=12 n=54 v=96
34386 On ch=12 n=54 v=0
34416 On ch=12 n=59 v=102
34456 On ch=12 n=59 v=0
34464 On ch=12 n=57 v=95
34508 On ch=12 n=57 v=0
34512 On ch=12 n=59 v=98
34536 On ch=12 n=59 v=0
34608 On ch=12 n=59 v=99
34656 On ch=12 n=57 v=96
34662 On ch=12 n=59 v=0
34700 On ch=12 n=57 v=0
34704 On ch=12 n=59 v=97
34742 On ch=12 n=59 v=0
59808 Par ch=12 c=123 v=0
59856 Par ch=12 c=120 v=0
59856 Meta TrkEnd
TrkEnd
MTrk
390 Par ch=13 c=121 v=0
392 Par ch=13 c=10 v=84
394 Par ch=13 c=93 v=20
396 Par ch=13 c=91 v=103
398 Par ch=13 c=11 v=127
400 Par ch=13 c=7 v=101
402 Pb ch=13 v=8192
406 Par ch=13 c=0 v=0
406 Par ch=13 c=32 v=0
406 PrCh ch=13 p=25
582 Par ch=13 c=99 v=1
582 Par ch=13 c=98 v=33
582 Par ch=13 c=6 v=100
582 Par ch=13 c=38 v=0
700 Par ch=13 c=99 v=1
700 Par ch=13 c=98 v=32
700 Par ch=13 c=6 v=36
700 Par ch=13 c=38 v=0
1536 On ch=13 n=66 v=115
1536 On ch=13 n=71 v=124
1664 Par ch=13 c=1 v=16
1680 Par ch=13 c=1 v=66
1701 Par ch=13 c=1 v=95
1734 Par ch=13 c=1 v=110
1804 On ch=13 n=66 v=0
1814 On ch=13 n=71 v=0
1822 Par ch=13 c=1 v=0
9216 On ch=13 n=66 v=124
9216 On ch=13 n=71 v=118
9404 On ch=13 n=66 v=0
9409 On ch=13 n=71 v=0
10752 On ch=13 n=66 v=118
10752 On ch=13 n=71 v=118
10858 Par ch=13 c=1 v=61
10876 Par ch=13 c=1 v=99
10896 Par ch=13 c=1 v=127
10910 On ch=13 n=66 v=0
10916 On ch=13 n=71 v=0
10922 Par ch=13 c=1 v=0
12288 On ch=13 n=66 v=124
12288 On ch=13 n=71 v=118
12476 On ch=13 n=66 v=0
12481 On ch=13 n=71 v=0
13824 On ch=13 n=66 v=118
13824 On ch=13 n=71 v=118
13930 Par ch=13 c=1 v=61
13948 Par ch=13 c=1 v=99
13968 Par ch=13 c=1 v=127
13982 On ch=13 n=66 v=0
13988 On ch=13 n=71 v=0
13994 Par ch=13 c=1 v=0
15360 On ch=13 n=66 v=124
15360 On ch=13 n=71 v=118
15548 On ch=13 n=66 v=0
15553 On ch=13 n=71 v=0
16896 On ch=13 n=66 v=118
16896 On ch=13 n=71 v=118
17002 Par ch=13 c=1 v=61
17020 Par ch=13 c=1 v=99
17040 Par ch=13 c=1 v=127
17054 On ch=13 n=66 v=0
17060 On ch=13 n=71 v=0
17066 Par ch=13 c=1 v=0
18432 On ch=13 n=66 v=124
18432 On ch=13 n=71 v=118
18620 On ch=13 n=66 v=0
18625 On ch=13 n=71 v=0
59808 Par ch=13 c=123 v=0
59856 Par ch=13 c=120 v=0
59856 Meta TrkEnd
TrkEnd
MTrk
408 Par ch=14 c=121 v=0
410 Par ch=14 c=10 v=90
412 Par ch=14 c=93 v=20
414 Par ch=14 c=91 v=110
416 Par ch=14 c=11 v=127
418 Par ch=14 c=7 v=99
420 Pb ch=14 v=8192
424 Par ch=14 c=0 v=0
424 Par ch=14 c=32 v=0
424 PrCh ch=14 p=27
4964 On ch=14 n=54 v=103
4980 On ch=14 n=59 v=94
4991 On ch=14 n=62 v=100
5094 Pb ch=14 v=6476
5103 Pb ch=14 v=5452
5111 Pb ch=14 v=5271
5120 Pb ch=14 v=5573
5128 Pb ch=14 v=5783
5136 Pb ch=14 v=6958
5144 Pb ch=14 v=8192
5626 On ch=14 n=54 v=0
5642 On ch=14 n=59 v=0
5653 On ch=14 n=62 v=0
5866 On ch=14 n=55 v=112
5913 On ch=14 n=62 v=112
6354 On ch=14 n=55 v=0
6369 On ch=14 n=62 v=0
6624 On ch=14 n=52 v=109
6672 On ch=14 n=59 v=112
6768 On ch=14 n=57 v=109
7202 On ch=14 n=59 v=0
7204 On ch=14 n=57 v=0
7206 On ch=14 n=52 v=0
7392 On ch=14 n=55 v=112
7428 On ch=14 n=55 v=0
7440 On ch=14 n=55 v=100
7536 On ch=14 n=62 v=109
7632 On ch=14 n=59 v=74
7914 On ch=14 n=55 v=0
7914 On ch=14 n=59 v=0
7916 On ch=14 n=62 v=0
11904 On ch=14 n=47 v=109
11926 On ch=14 n=47 v=0
12000 On ch=14 n=52 v=58
12018 On ch=14 n=52 v=0
12072 On ch=14 n=55 v=92
12086 On ch=14 n=55 v=0
12144 On ch=14 n=54 v=124
12172 On ch=14 n=54 v=0
12192 On ch=14 n=52 v=92
12221 On ch=14 n=52 v=0
12240 On ch=14 n=47 v=97
12254 On ch=14 n=47 v=0
13536 On ch=14 n=54 v=118
13584 On ch=14 n=55 v=100
13586 On ch=14 n=54 v=0
13616 On ch=14 n=55 v=0
13680 On ch=14 n=52 v=109
13719 On ch=14 n=52 v=0
13728 On ch=14 n=54 v=109
13765 On ch=14 n=54 v=0
18048 On ch=14 n=47 v=109
18070 On ch=14 n=47 v=0
18144 On ch=14 n=52 v=58
18162 On ch=14 n=52 v=0
18216 On ch=14 n=55 v=92
18230 On ch=14 n=55 v=0
18288 On ch=14 n=54 v=124
18316 On ch=14 n=54 v=0
18336 On ch=14 n=52 v=92
18365 On ch=14 n=52 v=0
18384 On ch=14 n=47 v=97
18398 On ch=14 n=47 v=0
34032 On ch=14 n=52 v=74
34080 On ch=14 n=62 v=97
34128 On ch=14 n=61 v=109
34176 On ch=14 n=57 v=97
34728 On ch=14 n=57 v=0
34738 On ch=14 n=62 v=0
34739 On ch=14 n=61 v=0
34742 On ch=14 n=52 v=0
54000 On ch=14 n=52 v=74
54048 On ch=14 n=62 v=97
54096 On ch=14 n=61 v=109
54144 On ch=14 n=57 v=97
54684 On ch=14 n=57 v=0
54694 On ch=14 n=62 v=0
54695 On ch=14 n=61 v=0
54698 On ch=14 n=52 v=0
55104 Par ch=14 c=64 v=64
55139 On ch=14 n=54 v=54
55161 On ch=14 n=59 v=76
55176 On ch=14 n=54 v=0
55180 On ch=14 n=62 v=45
55186 On ch=14 n=66 v=71
55195 On ch=14 n=54 v=54
55200 On ch=14 n=59 v=0
55217 On ch=14 n=59 v=76
55226 On ch=14 n=62 v=0
55232 On ch=14 n=54 v=0
55235 On ch=14 n=66 v=0
55236 On ch=14 n=62 v=45
55242 On ch=14 n=66 v=71
55256 On ch=14 n=59 v=0
55270 On ch=14 n=54 v=57
55282 On ch=14 n=62 v=0
55284 On ch=14 n=59 v=63
55295 On ch=14 n=66 v=0
55304 On ch=14 n=62 v=64
55314 On ch=14 n=54 v=0
55319 On ch=14 n=59 v=0
55319 On ch=14 n=66 v=61
55336 On ch=14 n=59 v=54
55342 On ch=14 n=59 v=0
55350 On ch=14 n=54 v=50
55360 On ch=14 n=62 v=0
55365 On ch=14 n=59 v=69
55372 On ch=14 n=66 v=0
55380 On ch=14 n=54 v=0
55383 On ch=14 n=62 v=61
55396 On ch=14 n=59 v=0
55397 On ch=14 n=66 v=61
55406 On ch=14 n=62 v=0
55414 On ch=14 n=54 v=57
55418 On ch=14 n=62 v=53
55434 On ch=14 n=59 v=78
55435 On ch=14 n=62 v=0
55442 On ch=14 n=66 v=0
55446 On ch=14 n=54 v=0
55450 On ch=14 n=62 v=65
55458 On ch=14 n=59 v=0
55464 On ch=14 n=66 v=71
55486 On ch=14 n=54 v=44
55491 On ch=14 n=66 v=0
55496 On ch=14 n=59 v=49
55597 On ch=14 n=62 v=0
55598 On ch=14 n=59 v=0
55602 On ch=14 n=54 v=0
55632 Par ch=14 c=64 v=0
55872 Par ch=14 c=64 v=64
55919 On ch=14 n=55 v=54
55941 On ch=14 n=58 v=76
55956 On ch=14 n=55 v=0
55960 On ch=14 n=62 v=45
55966 On ch=14 n=67 v=71
55979 On ch=14 n=55 v=54
55980 On ch=14 n=58 v=0
56001 On ch=14 n=58 v=76
56006 On ch=14 n=62 v=0
56016 On ch=14 n=55 v=0
56019 On ch=14 n=67 v=0
56020 On ch=14 n=62 v=45
56026 On ch=14 n=67 v=71
56040 On ch=14 n=58 v=0
56054 On ch=14 n=55 v=60
56066 On ch=14 n=62 v=0
56068 On ch=14 n=58 v=66
56079 On ch=14 n=67 v=0
56088 On ch=14 n=62 v=67
56098 On ch=14 n=55 v=0
56103 On ch=14 n=58 v=0
56103 On ch=14 n=67 v=64
56120 On ch=14 n=58 v=40
56126 On ch=14 n=58 v=0
56134 On ch=14 n=55 v=39
56144 On ch=14 n=62 v=0
56149 On ch=14 n=58 v=69
56156 On ch=14 n=67 v=0
56164 On ch=14 n=55 v=0
56167 On ch=14 n=62 v=61
56180 On ch=14 n=58 v=0
56181 On ch=14 n=67 v=61
56190 On ch=14 n=62 v=0
56198 On ch=14 n=55 v=57
56202 On ch=14 n=62 v=53
56218 On ch=14 n=58 v=78
56219 On ch=14 n=62 v=0
56226 On ch=14 n=67 v=0
56230 On ch=14 n=55 v=0
56234 On ch=14 n=62 v=65
56242 On ch=14 n=58 v=0
56248 On ch=14 n=67 v=71
56270 On ch=14 n=55 v=44
56275 On ch=14 n=67 v=0
56280 On ch=14 n=58 v=37
56381 On ch=14 n=62 v=0
56382 On ch=14 n=58 v=0
56386 On ch=14 n=55 v=0
56448 Par ch=14 c=64 v=0
59808 Par ch=14 c=123 v=0
59856 Par ch=14 c=120 v=0
59856 Meta TrkEnd
TrkEnd
MTrk
426 Par ch=15 c=121 v=0
428 Par ch=15 c=10 v=24
430 Par ch=15 c=93 v=22
432 Par ch=15 c=91 v=89
434 Par ch=15 c=11 v=127
436 Par ch=15 c=7 v=92
438 Pb ch=15 v=8192
490 Par ch=15 c=0 v=0
490 Par ch=15 c=32 v=0
490 PrCh ch=15 p=28
11136 On ch=15 n=59 v=92
11152 On ch=15 n=59 v=0
11232 On ch=15 n=54 v=92
11245 On ch=15 n=54 v=0
11280 On ch=15 n=59 v=94
11300 On ch=15 n=59 v=0
11424 On ch=15 n=54 v=88
11440 On ch=15 n=54 v=0
11472 On ch=15 n=59 v=86
11492 On ch=15 n=59 v=0
11520 On ch=15 n=54 v=94
11538 On ch=15 n=54 v=0
11568 On ch=15 n=59 v=92
11591 On ch=15 n=59 v=0
11664 On ch=15 n=54 v=97
11679 On ch=15 n=54 v=0
11760 On ch=15 n=59 v=88
11778 On ch=15 n=59 v=0
12288 On ch=15 n=47 v=115
12297 On ch=15 n=47 v=0
12384 On ch=15 n=42 v=94
12390 On ch=15 n=42 v=0
12432 On ch=15 n=47 v=118
12442 On ch=15 n=47 v=0
12528 On ch=15 n=42 v=112
12534 On ch=15 n=42 v=0
12576 On ch=15 n=47 v=64
12578 On ch=15 n=47 v=0
12624 On ch=15 n=47 v=115
12642 On ch=15 n=47 v=0
12672 On ch=15 n=45 v=118
12684 On ch=15 n=45 v=0
12816 On ch=15 n=45 v=92
12824 On ch=15 n=45 v=0
12912 On ch=15 n=52 v=97
12924 On ch=15 n=52 v=0
13008 On ch=15 n=45 v=97
13014 On ch=15 n=45 v=0
13056 On ch=15 n=45 v=118
13072 On ch=15 n=45 v=0
13200 On ch=15 n=45 v=92
13208 On ch=15 n=45 v=0
13248 On ch=15 n=45 v=97
13255 On ch=15 n=45 v=0
13296 On ch=15 n=45 v=121
13332 On ch=15 n=45 v=0
13392 On ch=15 n=45 v=97
13398 On ch=15 n=45 v=0
13872 On ch=15 n=40 v=109
13884 On ch=15 n=40 v=0
13968 On ch=15 n=40 v=57
13972 On ch=15 n=40 v=0
14016 On ch=15 n=40 v=115
14044 On ch=15 n=40 v=0
14064 On ch=15 n=40 v=109
14106 On ch=15 n=40 v=0
14112 On ch=15 n=52 v=94
14130 On ch=15 n=52 v=0
14160 On ch=15 n=40 v=94
14176 On ch=15 n=40 v=0
14208 On ch=15 n=59 v=92
14224 On ch=15 n=59 v=0
14304 On ch=15 n=54 v=92
14317 On ch=15 n=54 v=0
14352 On ch=15 n=59 v=94
14372 On ch=15 n=59 v=0
14496 On ch=15 n=54 v=88
14512 On ch=15 n=54 v=0
14544 On ch=15 n=59 v=86
14564 On ch=15 n=59 v=0
14592 On ch=15 n=54 v=94
14610 On ch=15 n=54 v=0
14640 On ch=15 n=59 v=92
14663 On ch=15 n=59 v=0
14736 On ch=15 n=54 v=97
14751 On ch=15 n=54 v=0
14832 On ch=15 n=59 v=88
14850 On ch=15 n=59 v=0
15360 On ch=15 n=47 v=115
15369 On ch=15 n=47 v=0
15456 On ch=15 n=42 v=94
15462 On ch=15 n=42 v=0
15504 On ch=15 n=47 v=118
15514 On ch=15 n=47 v=0
15600 On ch=15 n=42 v=112
15606 On ch=15 n=42 v=0
15648 On ch=15 n=47 v=64
15650 On ch=15 n=47 v=0
15696 On ch=15 n=47 v=115
15714 On ch=15 n=47 v=0
15744 On ch=15 n=45 v=118
15756 On ch=15 n=45 v=0
15888 On ch=15 n=45 v=92
15896 On ch=15 n=45 v=0
15984 On ch=15 n=52 v=97
15996 On ch=15 n=52 v=0
16080 On ch=15 n=45 v=97
16086 On ch=15 n=45 v=0
16128 On ch=15 n=45 v=118
16144 On ch=15 n=45 v=0
16272 On ch=15 n=45 v=92
16280 On ch=15 n=45 v=0
16320 On ch=15 n=45 v=97
16327 On ch=15 n=45 v=0
16368 On ch=15 n=45 v=121
16404 On ch=15 n=45 v=0
16464 On ch=15 n=45 v=97
16470 On ch=15 n=45 v=0
16944 On ch=15 n=40 v=109
16956 On ch=15 n=40 v=0
17040 On ch=15 n=40 v=57
17044 On ch=15 n=40 v=0
17088 On ch=15 n=40 v=115
17116 On ch=15 n=40 v=0
17136 On ch=15 n=40 v=109
17178 On ch=15 n=40 v=0
17184 On ch=15 n=52 v=94
17202 On ch=15 n=52 v=0
17232 On ch=15 n=40 v=94
17248 On ch=15 n=40 v=0
17280 On ch=15 n=59 v=92
17296 On ch=15 n=59 v=0
17376 On ch=15 n=54 v=92
17389 On ch=15 n=54 v=0
17424 On ch=15 n=59 v=94
17444 On ch=15 n=59 v=0
17568 On ch=15 n=54 v=88
17584 On ch=15 n=54 v=0
17616 On ch=15 n=59 v=86
17636 On ch=15 n=59 v=0
17664 On ch=15 n=54 v=94
17682 On ch=15 n=54 v=0
17712 On ch=15 n=59 v=92
17735 On ch=15 n=59 v=0
17808 On ch=15 n=54 v=97
17823 On ch=15 n=54 v=0
17904 On ch=15 n=59 v=88
17922 On ch=15 n=59 v=0
18432 On ch=15 n=47 v=115
18441 On ch=15 n=47 v=0
18528 On ch=15 n=42 v=94
18534 On ch=15 n=42 v=0
18576 On ch=15 n=47 v=118
18586 On ch=15 n=47 v=0
18672 On ch=15 n=42 v=112
18678 On ch=15 n=42 v=0
18720 On ch=15 n=47 v=64
18722 On ch=15 n=47 v=0
18768 On ch=15 n=47 v=115
18786 On ch=15 n=47 v=0
18816 On ch=15 n=45 v=118
18828 On ch=15 n=45 v=0
18960 On ch=15 n=45 v=92
18968 On ch=15 n=45 v=0
19056 On ch=15 n=52 v=97
19068 On ch=15 n=52 v=0
19152 On ch=15 n=45 v=97
19158 On ch=15 n=45 v=0
19200 On ch=15 n=45 v=118
19216 On ch=15 n=45 v=0
19344 On ch=15 n=45 v=92
19352 On ch=15 n=45 v=0
19392 On ch=15 n=45 v=97
19399 On ch=15 n=45 v=0
19440 On ch=15 n=45 v=121
19476 On ch=15 n=45 v=0
19536 On ch=15 n=45 v=97
19542 On ch=15 n=45 v=0
19608 On ch=15 n=40 v=94
19659 On ch=15 n=40 v=0
19680 On ch=15 n=47 v=82
19686 On ch=15 n=47 v=0
19728 On ch=15 n=40 v=71
19737 On ch=15 n=40 v=0
19776 On ch=15 n=47 v=86
19785 On ch=15 n=47 v=0
19824 On ch=15 n=47 v=97
19846 On ch=15 n=47 v=0
19872 On ch=15 n=47 v=72
19888 On ch=15 n=47 v=0
19920 On ch=15 n=40 v=92
19960 On ch=15 n=40 v=0
19968 On ch=15 n=47 v=109
19982 On ch=15 n=47 v=0
20016 On ch=15 n=47 v=94
20034 On ch=15 n=47 v=0
20064 On ch=15 n=47 v=59
20082 On ch=15 n=47 v=0
20112 On ch=15 n=40 v=97
20146 On ch=15 n=40 v=0
20160 On ch=15 n=47 v=97
20171 On ch=15 n=47 v=0
20208 On ch=15 n=47 v=109
20236 On ch=15 n=47 v=0
20256 On ch=15 n=40 v=100
20310 On ch=15 n=40 v=0
59808 Par ch=15 c=123 v=0
59856 Par ch=15 c=120 v=0
59856 Meta TrkEnd
TrkEnd
