MFile 1 13 480
MTrk
0 Meta SeqName "White Car / YES"
0 TimeSig 4/4 24 8
0 Tempo 500000
55680 Tempo 1132075
56640 Tempo 500000
61440 Tempo 740740
69120 Meta TrkEnd
TrkEnd
MTrk
0 Meta TrkName "Piano 3"
0 Meta 0x20 00
0 Meta InstrName "Piano 3"
0 KeySig 0 major
5 SysEx f0 41 10 42 12 40 00 7f 00 41 f7
15 SysEx f0 41 10 42 12 40 01 34 64 27 f7
25 SysEx f0 41 10 42 12 40 01 33 7f 0d f7
35 SysEx f0 41 10 42 12 40 12 1c 00 12 f7
45 SysEx f0 41 10 42 12 40 1b 16 4c 43 f7
60 Par ch=1 c=0 v=0
65 Par ch=1 c=32 v=0
70 PrCh ch=1 p=2
75 Par ch=1 c=7 v=100
80 Par ch=1 c=10 v=64
85 Par ch=1 c=91 v=40
90 Par ch=1 c=93 v=0
95 Par ch=1 c=99 v=1
95 Par ch=1 c=98 v=8
95 Par ch=1 c=6 v=64
100 Par ch=1 c=99 v=1
100 Par ch=1 c=98 v=9
100 Par ch=1 c=6 v=64
105 Par ch=1 c=99 v=1
105 Par ch=1 c=98 v=10
105 Par ch=1 c=6 v=64
110 Par ch=1 c=99 v=1
110 Par ch=1 c=98 v=32
110 Par ch=1 c=6 v=64
115 Par ch=1 c=99 v=1
115 Par ch=1 c=98 v=33
115 Par ch=1 c=6 v=64
120 Par ch=1 c=99 v=1
120 Par ch=1 c=98 v=99
120 Par ch=1 c=6 v=64
125 Par ch=1 c=99 v=1
125 Par ch=1 c=98 v=100
125 Par ch=1 c=6 v=64
130 Par ch=1 c=99 v=1
130 Par ch=1 c=98 v=102
130 Par ch=1 c=6 v=64
3160 On ch=1 n=76 v=88
3160 On ch=1 n=71 v=88
3160 On ch=1 n=69 v=88
3280 Off ch=1 n=76 v=88
3280 Off ch=1 n=71 v=88
3280 Off ch=1 n=69 v=88
3400 On ch=1 n=76 v=88
3400 On ch=1 n=71 v=88
3400 On ch=1 n=69 v=88
3520 Off ch=1 n=76 v=88
3520 Off ch=1 n=71 v=88
3520 Off ch=1 n=69 v=88
3880 On ch=1 n=64 v=88
3880 On ch=1 n=59 v=88
3880 On ch=1 n=57 v=88
4080 Off ch=1 n=64 v=88
4080 Off ch=1 n=59 v=88
4080 Off ch=1 n=57 v=88
5080 On ch=1 n=74 v=88
5080 On ch=1 n=69 v=88
5080 On ch=1 n=66 v=88
5200 Off ch=1 n=74 v=88
5200 Off ch=1 n=69 v=88
5200 Off ch=1 n=66 v=88
5320 On ch=1 n=74 v=88
5320 On ch=1 n=69 v=88
5320 On ch=1 n=66 v=88
5440 Off ch=1 n=74 v=88
5440 Off ch=1 n=69 v=88
5440 Off ch=1 n=66 v=88
5800 On ch=1 n=62 v=88
5800 On ch=1 n=57 v=88
5800 On ch=1 n=54 v=88
6000 Off ch=1 n=62 v=88
6000 Off ch=1 n=57 v=88
6000 Off ch=1 n=54 v=88
7000 On ch=1 n=73 v=88
7000 On ch=1 n=69 v=88
7000 On ch=1 n=64 v=88
7120 Off ch=1 n=73 v=88
7120 Off ch=1 n=69 v=88
7120 Off ch=1 n=64 v=88
7240 On ch=1 n=73 v=88
7240 On ch=1 n=69 v=88
7240 On ch=1 n=64 v=88
7360 Off ch=1 n=73 v=88
7360 Off ch=1 n=69 v=88
7360 Off ch=1 n=64 v=88
7720 On ch=1 n=61 v=88
7720 On ch=1 n=57 v=88
7720 On ch=1 n=52 v=88
7920 Off ch=1 n=61 v=88
7920 Off ch=1 n=57 v=88
7920 Off ch=1 n=52 v=88
8920 On ch=1 n=74 v=88
8920 On ch=1 n=69 v=88
8920 On ch=1 n=66 v=88
9040 Off ch=1 n=74 v=88
9040 Off ch=1 n=69 v=88
9040 Off ch=1 n=66 v=88
9160 On ch=1 n=74 v=88
9160 On ch=1 n=69 v=88
9160 On ch=1 n=66 v=88
9280 Off ch=1 n=74 v=88
9280 Off ch=1 n=69 v=88
9280 Off ch=1 n=66 v=88
9640 On ch=1 n=62 v=88
9640 On ch=1 n=57 v=88
9640 On ch=1 n=54 v=88
9840 Off ch=1 n=62 v=88
9840 Off ch=1 n=57 v=88
9840 Off ch=1 n=54 v=88
10840 On ch=1 n=76 v=88
10840 On ch=1 n=71 v=88
10840 On ch=1 n=69 v=88
10960 Off ch=1 n=76 v=88
10960 Off ch=1 n=71 v=88
10960 Off ch=1 n=69 v=88
11080 On ch=1 n=76 v=88
11080 On ch=1 n=71 v=88
11080 On ch=1 n=69 v=88
11200 Off ch=1 n=76 v=88
11200 Off ch=1 n=71 v=88
11200 Off ch=1 n=69 v=88
11560 On ch=1 n=64 v=88
11560 On ch=1 n=59 v=88
11560 On ch=1 n=57 v=88
11760 Off ch=1 n=64 v=88
11760 Off ch=1 n=59 v=88
11760 Off ch=1 n=57 v=88
12760 On ch=1 n=74 v=88
12760 On ch=1 n=69 v=88
12760 On ch=1 n=66 v=88
12880 Off ch=1 n=74 v=88
12880 Off ch=1 n=69 v=88
12880 Off ch=1 n=66 v=88
13000 On ch=1 n=74 v=88
13000 On ch=1 n=69 v=88
13000 On ch=1 n=66 v=88
13120 Off ch=1 n=74 v=88
13120 Off ch=1 n=69 v=88
13120 Off ch=1 n=66 v=88
13480 On ch=1 n=62 v=88
13480 On ch=1 n=57 v=88
13480 On ch=1 n=54 v=88
13680 Off ch=1 n=62 v=88
13680 Off ch=1 n=57 v=88
13680 Off ch=1 n=54 v=88
14680 On ch=1 n=73 v=88
14680 On ch=1 n=69 v=88
14680 On ch=1 n=64 v=88
14800 Off ch=1 n=73 v=88
14800 Off ch=1 n=69 v=88
14800 Off ch=1 n=64 v=88
14920 On ch=1 n=73 v=88
14920 On ch=1 n=69 v=88
14920 On ch=1 n=64 v=88
15040 Off ch=1 n=73 v=88
15040 Off ch=1 n=69 v=88
15040 Off ch=1 n=64 v=88
15400 On ch=1 n=61 v=88
15400 On ch=1 n=57 v=88
15400 On ch=1 n=52 v=88
15600 Off ch=1 n=61 v=88
15600 Off ch=1 n=57 v=88
15600 Off ch=1 n=52 v=88
16600 On ch=1 n=74 v=88
16600 On ch=1 n=69 v=88
16600 On ch=1 n=66 v=88
16720 Off ch=1 n=74 v=88
16720 Off ch=1 n=69 v=88
16720 Off ch=1 n=66 v=88
16840 On ch=1 n=74 v=88
16840 On ch=1 n=69 v=88
16840 On ch=1 n=66 v=88
16960 Off ch=1 n=74 v=88
16960 Off ch=1 n=69 v=88
16960 Off ch=1 n=66 v=88
17320 On ch=1 n=62 v=88
17320 On ch=1 n=57 v=88
17320 On ch=1 n=54 v=88
17520 Off ch=1 n=62 v=88
17520 Off ch=1 n=57 v=88
17520 Off ch=1 n=54 v=88
18520 On ch=1 n=76 v=88
18520 On ch=1 n=71 v=88
18520 On ch=1 n=69 v=88
18640 Off ch=1 n=76 v=88
18640 Off ch=1 n=71 v=88
18640 Off ch=1 n=69 v=88
18760 On ch=1 n=76 v=88
18760 On ch=1 n=71 v=88
18760 On ch=1 n=69 v=88
18880 Off ch=1 n=76 v=88
18880 Off ch=1 n=71 v=88
18880 Off ch=1 n=69 v=88
19240 On ch=1 n=64 v=88
19240 On ch=1 n=59 v=88
19240 On ch=1 n=57 v=88
19440 Off ch=1 n=64 v=88
19440 Off ch=1 n=59 v=88
19440 Off ch=1 n=57 v=88
20440 On ch=1 n=74 v=88
20440 On ch=1 n=69 v=88
20440 On ch=1 n=66 v=88
20560 Off ch=1 n=74 v=88
20560 Off ch=1 n=69 v=88
20560 Off ch=1 n=66 v=88
20680 On ch=1 n=74 v=88
20680 On ch=1 n=69 v=88
20680 On ch=1 n=66 v=88
20800 Off ch=1 n=74 v=88
20800 Off ch=1 n=69 v=88
20800 Off ch=1 n=66 v=88
21160 On ch=1 n=62 v=88
21160 On ch=1 n=57 v=88
21160 On ch=1 n=54 v=88
21360 Off ch=1 n=62 v=88
21360 Off ch=1 n=57 v=88
21360 Off ch=1 n=54 v=88
22360 On ch=1 n=73 v=88
22360 On ch=1 n=69 v=88
22360 On ch=1 n=64 v=88
22480 Off ch=1 n=73 v=88
22480 Off ch=1 n=69 v=88
22480 Off ch=1 n=64 v=88
22600 On ch=1 n=73 v=88
22600 On ch=1 n=69 v=88
22600 On ch=1 n=64 v=88
22720 Off ch=1 n=73 v=88
22720 Off ch=1 n=69 v=88
22720 Off ch=1 n=64 v=88
23080 On ch=1 n=61 v=88
23080 On ch=1 n=57 v=88
23080 On ch=1 n=52 v=88
23280 Off ch=1 n=61 v=88
23280 Off ch=1 n=57 v=88
23280 Off ch=1 n=52 v=88
24280 On ch=1 n=74 v=88
24280 On ch=1 n=69 v=88
24280 On ch=1 n=66 v=88
24400 Off ch=1 n=74 v=88
24400 Off ch=1 n=69 v=88
24400 Off ch=1 n=66 v=88
24520 On ch=1 n=74 v=88
24520 On ch=1 n=69 v=88
24520 On ch=1 n=66 v=88
24640 Off ch=1 n=74 v=88
24640 Off ch=1 n=69 v=88
24640 Off ch=1 n=66 v=88
25000 On ch=1 n=62 v=88
25000 On ch=1 n=57 v=88
25000 On ch=1 n=54 v=88
25200 Off ch=1 n=62 v=88
25200 Off ch=1 n=57 v=88
25200 Off ch=1 n=54 v=88
26200 On ch=1 n=76 v=88
26200 On ch=1 n=71 v=88
26200 On ch=1 n=69 v=88
26320 Off ch=1 n=76 v=88
26320 Off ch=1 n=71 v=88
26320 Off ch=1 n=69 v=88
26440 On ch=1 n=76 v=88
26440 On ch=1 n=71 v=88
26440 On ch=1 n=69 v=88
26560 Off ch=1 n=76 v=88
26560 Off ch=1 n=71 v=88
26560 Off ch=1 n=69 v=88
26920 On ch=1 n=64 v=88
26920 On ch=1 n=59 v=88
26920 On ch=1 n=57 v=88
27120 Off ch=1 n=64 v=88
27120 Off ch=1 n=59 v=88
27120 Off ch=1 n=57 v=88
28120 On ch=1 n=74 v=88
28120 On ch=1 n=69 v=88
28120 On ch=1 n=66 v=88
28240 Off ch=1 n=74 v=88
28240 Off ch=1 n=69 v=88
28240 Off ch=1 n=66 v=88
28360 On ch=1 n=74 v=88
28360 On ch=1 n=69 v=88
28360 On ch=1 n=66 v=88
28480 Off ch=1 n=74 v=88
28480 Off ch=1 n=69 v=88
28480 Off ch=1 n=66 v=88
28840 On ch=1 n=62 v=88
28840 On ch=1 n=57 v=88
28840 On ch=1 n=54 v=88
29040 Off ch=1 n=62 v=88
29040 Off ch=1 n=57 v=88
29040 Off ch=1 n=54 v=88
30040 On ch=1 n=73 v=88
30040 On ch=1 n=69 v=88
30040 On ch=1 n=64 v=88
30160 Off ch=1 n=73 v=88
30160 Off ch=1 n=69 v=88
30160 Off ch=1 n=64 v=88
30280 On ch=1 n=73 v=88
30280 On ch=1 n=69 v=88
30280 On ch=1 n=64 v=88
30400 Off ch=1 n=73 v=88
30400 Off ch=1 n=69 v=88
30400 Off ch=1 n=64 v=88
30760 On ch=1 n=61 v=88
30760 On ch=1 n=57 v=88
30760 On ch=1 n=52 v=88
30960 Off ch=1 n=61 v=88
30960 Off ch=1 n=57 v=88
30960 Off ch=1 n=52 v=88
31960 On ch=1 n=74 v=88
31960 On ch=1 n=69 v=88
31960 On ch=1 n=66 v=88
32080 Off ch=1 n=74 v=88
32080 Off ch=1 n=69 v=88
32080 Off ch=1 n=66 v=88
32200 On ch=1 n=74 v=88
32200 On ch=1 n=69 v=88
32200 On ch=1 n=66 v=88
32320 Off ch=1 n=74 v=88
32320 Off ch=1 n=69 v=88
32320 Off ch=1 n=66 v=88
32680 On ch=1 n=62 v=88
32680 On ch=1 n=57 v=88
32680 On ch=1 n=54 v=88
32880 Off ch=1 n=62 v=88
32880 Off ch=1 n=57 v=88
32880 Off ch=1 n=54 v=88
33640 PrCh ch=1 p=1
33640 On ch=1 n=89 v=80
33860 Off ch=1 n=89 v=80
33880 On ch=1 n=86 v=80
34100 Off ch=1 n=86 v=80
34120 On ch=1 n=81 v=80
34340 Off ch=1 n=81 v=80
34360 On ch=1 n=91 v=80
34560 Off ch=1 n=91 v=80
34600 On ch=1 n=88 v=80
34820 Off ch=1 n=88 v=80
34840 On ch=1 n=83 v=80
35060 Off ch=1 n=83 v=80
35080 On ch=1 n=89 v=80
35300 Off ch=1 n=89 v=80
35320 On ch=1 n=86 v=80
35540 Off ch=1 n=86 v=80
35560 On ch=1 n=88 v=80
35780 Off ch=1 n=88 v=80
35800 On ch=1 n=84 v=80
36020 Off ch=1 n=84 v=80
36040 On ch=1 n=79 v=80
36260 Off ch=1 n=79 v=80
36280 On ch=1 n=89 v=80
36480 Off ch=1 n=89 v=80
36520 On ch=1 n=86 v=80
36740 Off ch=1 n=86 v=80
36760 On ch=1 n=81 v=80
36980 Off ch=1 n=81 v=80
37000 On ch=1 n=88 v=80
37220 Off ch=1 n=88 v=80
37240 On ch=1 n=84 v=80
37460 Off ch=1 n=84 v=80
37480 On ch=1 n=84 v=80
37700 Off ch=1 n=84 v=80
37720 On ch=1 n=81 v=80
37940 Off ch=1 n=81 v=80
37960 On ch=1 n=77 v=80
38180 Off ch=1 n=77 v=80
38200 On ch=1 n=86 v=80
38400 Off ch=1 n=86 v=80
38440 On ch=1 n=82 v=80
38660 Off ch=1 n=82 v=80
38680 On ch=1 n=77 v=80
38900 Off ch=1 n=77 v=80
38920 On ch=1 n=86 v=80
39140 Off ch=1 n=86 v=80
39160 On ch=1 n=82 v=80
39380 Off ch=1 n=82 v=80
39400 On ch=1 n=77 v=80
39700 Off ch=1 n=77 v=80
39720 On ch=1 n=84 v=80
40020 Off ch=1 n=84 v=80
40040 On ch=1 n=86 v=80
40320 Off ch=1 n=86 v=80
40360 On ch=1 n=89 v=80
40660 Off ch=1 n=89 v=80
40680 On ch=1 n=86 v=80
40980 Off ch=1 n=86 v=80
41000 On ch=1 n=82 v=80
41300 Off ch=1 n=82 v=80
41320 On ch=1 n=89 v=80
41540 Off ch=1 n=89 v=80
41560 On ch=1 n=86 v=80
41780 Off ch=1 n=86 v=80
41800 On ch=1 n=81 v=80
42020 Off ch=1 n=81 v=80
42040 On ch=1 n=91 v=80
42240 Off ch=1 n=91 v=80
42280 On ch=1 n=88 v=80
42500 Off ch=1 n=88 v=80
42520 On ch=1 n=83 v=80
42740 Off ch=1 n=83 v=80
42760 On ch=1 n=89 v=80
42980 Off ch=1 n=89 v=80
43000 On ch=1 n=86 v=80
43220 Off ch=1 n=86 v=80
43240 On ch=1 n=88 v=80
43460 Off ch=1 n=88 v=80
43480 On ch=1 n=84 v=80
43700 Off ch=1 n=84 v=80
43720 On ch=1 n=79 v=80
43940 Off ch=1 n=79 v=80
43960 On ch=1 n=89 v=80
44160 Off ch=1 n=89 v=80
44200 On ch=1 n=86 v=80
44420 Off ch=1 n=86 v=80
44440 On ch=1 n=81 v=80
44660 Off ch=1 n=81 v=80
44680 On ch=1 n=88 v=80
44900 Off ch=1 n=88 v=80
44920 On ch=1 n=84 v=80
45140 Off ch=1 n=84 v=80
45160 On ch=1 n=84 v=80
45380 Off ch=1 n=84 v=80
45400 On ch=1 n=81 v=80
45620 Off ch=1 n=81 v=80
45640 On ch=1 n=77 v=80
45860 Off ch=1 n=77 v=80
45880 On ch=1 n=86 v=80
46080 Off ch=1 n=86 v=80
46120 On ch=1 n=82 v=80
46340 Off ch=1 n=82 v=80
46360 On ch=1 n=77 v=80
46580 Off ch=1 n=77 v=80
46600 On ch=1 n=86 v=80
46820 Off ch=1 n=86 v=80
46840 On ch=1 n=82 v=80
47060 Off ch=1 n=82 v=80
47080 On ch=1 n=77 v=80
47380 Off ch=1 n=77 v=80
47400 On ch=1 n=84 v=80
47700 Off ch=1 n=84 v=80
47720 On ch=1 n=86 v=80
48000 Off ch=1 n=86 v=80
48040 On ch=1 n=77 v=80
48340 Off ch=1 n=77 v=80
48360 On ch=1 n=82 v=80
48660 Off ch=1 n=82 v=80
48680 On ch=1 n=84 v=80
48980 Off ch=1 n=84 v=80
49000 On ch=1 n=89 v=80
49220 Off ch=1 n=89 v=80
49240 On ch=1 n=86 v=80
49460 Off ch=1 n=86 v=80
49480 On ch=1 n=81 v=80
49700 Off ch=1 n=81 v=80
49720 On ch=1 n=91 v=80
49920 Off ch=1 n=91 v=80
49960 On ch=1 n=88 v=80
50180 Off ch=1 n=88 v=80
50200 On ch=1 n=83 v=80
50420 Off ch=1 n=83 v=80
50440 On ch=1 n=89 v=80
50660 Off ch=1 n=89 v=80
50680 On ch=1 n=86 v=80
50900 Off ch=1 n=86 v=80
50920 On ch=1 n=88 v=80
51140 Off ch=1 n=88 v=80
51160 On ch=1 n=84 v=80
51380 Off ch=1 n=84 v=80
51400 On ch=1 n=79 v=80
51620 Off ch=1 n=79 v=80
51640 On ch=1 n=89 v=80
51840 Off ch=1 n=89 v=80
51880 On ch=1 n=86 v=80
52100 Off ch=1 n=86 v=80
52120 On ch=1 n=81 v=80
52340 Off ch=1 n=81 v=80
52360 On ch=1 n=88 v=80
52580 Off ch=1 n=88 v=80
52600 On ch=1 n=84 v=80
52820 Off ch=1 n=84 v=80
52840 On ch=1 n=93 v=80
53060 Off ch=1 n=93 v=80
53080 On ch=1 n=89 v=80
53300 Off ch=1 n=89 v=80
53320 On ch=1 n=84 v=80
53540 Off ch=1 n=84 v=80
53560 On ch=1 n=94 v=80
53760 Off ch=1 n=94 v=80
53800 On ch=1 n=91 v=80
54020 Off ch=1 n=91 v=80
54040 On ch=1 n=86 v=80
54260 Off ch=1 n=86 v=80
54280 On ch=1 n=93 v=80
54500 Off ch=1 n=93 v=80
54520 On ch=1 n=89 v=80
54740 Off ch=1 n=89 v=80
54760 On ch=1 n=89 v=80
54980 Off ch=1 n=89 v=80
55000 On ch=1 n=86 v=70
55220 Off ch=1 n=86 v=70
55240 On ch=1 n=82 v=60
55460 Off ch=1 n=82 v=60
55480 On ch=1 n=89 v=50
55680 Off ch=1 n=89 v=50
55720 On ch=1 n=86 v=40
55940 Off ch=1 n=86 v=40
55960 On ch=1 n=82 v=30
56180 Off ch=1 n=82 v=30
56200 On ch=1 n=89 v=20
56420 Off ch=1 n=89 v=20
56440 On ch=1 n=86 v=10
56660 Off ch=1 n=86 v=10
56680 Par ch=1 c=7 v=100
56680 On ch=1 n=65 v=88
56680 On ch=1 n=62 v=88
56680 On ch=1 n=57 v=88
56860 Off ch=1 n=65 v=88
56860 Off ch=1 n=62 v=88
56860 Off ch=1 n=57 v=88
56920 On ch=1 n=65 v=88
56920 On ch=1 n=62 v=88
56920 On ch=1 n=57 v=88
57100 Off ch=1 n=65 v=88
57100 Off ch=1 n=62 v=88
57100 Off ch=1 n=57 v=88
57160 On ch=1 n=64 v=88
57160 On ch=1 n=60 v=88
57160 On ch=1 n=55 v=88
57340 Off ch=1 n=64 v=88
57340 Off ch=1 n=60 v=88
57340 Off ch=1 n=55 v=88
57400 On ch=1 n=65 v=88
57400 On ch=1 n=62 v=88
57400 On ch=1 n=57 v=88
57580 Off ch=1 n=65 v=88
57580 Off ch=1 n=62 v=88
57580 Off ch=1 n=57 v=88
57880 On ch=1 n=62 v=88
57880 On ch=1 n=57 v=88
57880 On ch=1 n=53 v=88
60500 Off ch=1 n=62 v=88
60500 Off ch=1 n=57 v=88
60500 Off ch=1 n=53 v=88
65320 On ch=1 n=93 v=64
65540 Off ch=1 n=93 v=64
65800 On ch=1 n=86 v=64
66020 Off ch=1 n=86 v=64
66040 On ch=1 n=88 v=64
66260 Off ch=1 n=88 v=64
66280 On ch=1 n=81 v=64
66500 Off ch=1 n=81 v=64
66520 On ch=1 n=86 v=64
66740 Off ch=1 n=86 v=64
66760 On ch=1 n=93 v=80
66980 Off ch=1 n=93 v=80
69120 Meta TrkEnd
TrkEnd
MTrk
0 Meta TrkName "Xylophone"
0 Meta 0x20 01
0 Meta InstrName "Xylophone"
0 KeySig 0 major
135 Par ch=2 c=0 v=0
140 Par ch=2 c=32 v=0
145 PrCh ch=2 p=13
150 Par ch=2 c=7 v=100
155 Par ch=2 c=10 v=64
160 Par ch=2 c=91 v=40
165 Par ch=2 c=93 v=0
170 Par ch=2 c=99 v=1
170 Par ch=2 c=98 v=8
170 Par ch=2 c=6 v=64
175 Par ch=2 c=99 v=1
175 Par ch=2 c=98 v=9
175 Par ch=2 c=6 v=64
180 Par ch=2 c=99 v=1
180 Par ch=2 c=98 v=10
180 Par ch=2 c=6 v=64
185 Par ch=2 c=99 v=1
185 Par ch=2 c=98 v=32
185 Par ch=2 c=6 v=64
190 Par ch=2 c=99 v=1
190 Par ch=2 c=98 v=33
190 Par ch=2 c=6 v=64
195 Par ch=2 c=99 v=1
195 Par ch=2 c=98 v=99
195 Par ch=2 c=6 v=64
200 Par ch=2 c=99 v=1
200 Par ch=2 c=98 v=100
200 Par ch=2 c=6 v=64
205 Par ch=2 c=99 v=1
205 Par ch=2 c=98 v=102
205 Par ch=2 c=6 v=64
2920 On ch=2 n=76 v=64
3140 Off ch=2 n=76 v=64
3160 On ch=2 n=88 v=64
3380 Off ch=2 n=88 v=64
3400 On ch=2 n=87 v=64
3620 Off ch=2 n=87 v=64
3640 On ch=2 n=85 v=64
3840 Off ch=2 n=85 v=64
3880 On ch=2 n=83 v=64
4100 Off ch=2 n=83 v=64
4120 On ch=2 n=81 v=64
4340 Off ch=2 n=81 v=64
4360 On ch=2 n=80 v=64
4580 Off ch=2 n=80 v=64
4600 On ch=2 n=78 v=64
4820 Off ch=2 n=78 v=64
4840 On ch=2 n=74 v=64
5060 Off ch=2 n=74 v=64
5080 On ch=2 n=86 v=64
5300 Off ch=2 n=86 v=64
5320 On ch=2 n=85 v=64
5540 Off ch=2 n=85 v=64
5560 On ch=2 n=83 v=64
5760 Off ch=2 n=83 v=64
5800 On ch=2 n=81 v=64
6020 Off ch=2 n=81 v=64
6040 On ch=2 n=80 v=64
6260 Off ch=2 n=80 v=64
6280 On ch=2 n=78 v=64
6500 Off ch=2 n=78 v=64
6520 On ch=2 n=76 v=64
6740 Off ch=2 n=76 v=64
6760 On ch=2 n=73 v=64
6980 Off ch=2 n=73 v=64
7000 On ch=2 n=81 v=64
7220 Off ch=2 n=81 v=64
7240 On ch=2 n=80 v=64
7460 Off ch=2 n=80 v=64
7480 On ch=2 n=78 v=64
7680 Off ch=2 n=78 v=64
7720 On ch=2 n=76 v=64
7940 Off ch=2 n=76 v=64
7960 On ch=2 n=74 v=64
8180 Off ch=2 n=74 v=64
10600 On ch=2 n=76 v=64
10820 Off ch=2 n=76 v=64
10840 On ch=2 n=88 v=64
11060 Off ch=2 n=88 v=64
11080 On ch=2 n=87 v=64
11300 Off ch=2 n=87 v=64
11320 On ch=2 n=85 v=64
11520 Off ch=2 n=85 v=64
11560 On ch=2 n=83 v=64
11780 Off ch=2 n=83 v=64
11800 On ch=2 n=81 v=64
12020 Off ch=2 n=81 v=64
12040 On ch=2 n=80 v=64
12260 Off ch=2 n=80 v=64
12280 On ch=2 n=78 v=64
12500 Off ch=2 n=78 v=64
12520 On ch=2 n=74 v=64
12740 Off ch=2 n=74 v=64
12760 On ch=2 n=86 v=64
12980 Off ch=2 n=86 v=64
13000 On ch=2 n=85 v=64
13220 Off ch=2 n=85 v=64
13240 On ch=2 n=83 v=64
13440 Off ch=2 n=83 v=64
13480 On ch=2 n=81 v=64
13700 Off ch=2 n=81 v=64
13720 On ch=2 n=80 v=64
13940 Off ch=2 n=80 v=64
13960 On ch=2 n=78 v=64
14180 Off ch=2 n=78 v=64
14200 On ch=2 n=76 v=64
14420 Off ch=2 n=76 v=64
14440 On ch=2 n=73 v=64
14660 Off ch=2 n=73 v=64
14680 On ch=2 n=81 v=64
14900 Off ch=2 n=81 v=64
14920 On ch=2 n=80 v=64
15140 Off ch=2 n=80 v=64
15160 On ch=2 n=78 v=64
15360 Off ch=2 n=78 v=64
15400 On ch=2 n=76 v=64
15620 Off ch=2 n=76 v=64
15640 On ch=2 n=74 v=64
15860 Off ch=2 n=74 v=64
18280 On ch=2 n=76 v=64
18500 Off ch=2 n=76 v=64
18520 On ch=2 n=88 v=64
18740 Off ch=2 n=88 v=64
18760 On ch=2 n=87 v=64
18980 Off ch=2 n=87 v=64
19000 On ch=2 n=85 v=64
19200 Off ch=2 n=85 v=64
19240 On ch=2 n=83 v=64
19460 Off ch=2 n=83 v=64
19480 On ch=2 n=81 v=64
19700 Off ch=2 n=81 v=64
19720 On ch=2 n=80 v=64
19940 Off ch=2 n=80 v=64
19960 On ch=2 n=78 v=64
20180 Off ch=2 n=78 v=64
20200 On ch=2 n=74 v=64
20420 Off ch=2 n=74 v=64
20440 On ch=2 n=86 v=64
20660 Off ch=2 n=86 v=64
20680 On ch=2 n=85 v=64
20900 Off ch=2 n=85 v=64
20920 On ch=2 n=83 v=64
21120 Off ch=2 n=83 v=64
21160 On ch=2 n=81 v=64
21380 Off ch=2 n=81 v=64
21400 On ch=2 n=80 v=64
21620 Off ch=2 n=80 v=64
21640 On ch=2 n=78 v=64
21860 Off ch=2 n=78 v=64
21880 On ch=2 n=76 v=64
22100 Off ch=2 n=76 v=64
22120 On ch=2 n=73 v=64
22340 Off ch=2 n=73 v=64
22360 On ch=2 n=81 v=64
22580 Off ch=2 n=81 v=64
22600 On ch=2 n=80 v=64
22820 Off ch=2 n=80 v=64
22840 On ch=2 n=78 v=64
23040 Off ch=2 n=78 v=64
23080 On ch=2 n=76 v=64
23300 Off ch=2 n=76 v=64
23320 On ch=2 n=74 v=64
23540 Off ch=2 n=74 v=64
25960 On ch=2 n=76 v=64
26180 Off ch=2 n=76 v=64
26200 On ch=2 n=88 v=64
26420 Off ch=2 n=88 v=64
26440 On ch=2 n=87 v=64
26660 Off ch=2 n=87 v=64
26680 On ch=2 n=85 v=64
26880 Off ch=2 n=85 v=64
26920 On ch=2 n=83 v=64
27140 Off ch=2 n=83 v=64
27160 On ch=2 n=81 v=64
27380 Off ch=2 n=81 v=64
27400 On ch=2 n=80 v=64
27620 Off ch=2 n=80 v=64
27640 On ch=2 n=78 v=64
27860 Off ch=2 n=78 v=64
27880 On ch=2 n=74 v=64
28100 Off ch=2 n=74 v=64
28120 On ch=2 n=86 v=64
28340 Off ch=2 n=86 v=64
28360 On ch=2 n=85 v=64
28580 Off ch=2 n=85 v=64
28600 On ch=2 n=83 v=64
28800 Off ch=2 n=83 v=64
28840 On ch=2 n=81 v=64
29060 Off ch=2 n=81 v=64
29080 On ch=2 n=80 v=64
29300 Off ch=2 n=80 v=64
29320 On ch=2 n=78 v=64
29540 Off ch=2 n=78 v=64
29560 On ch=2 n=76 v=64
29780 Off ch=2 n=76 v=64
29800 On ch=2 n=73 v=64
30020 Off ch=2 n=73 v=64
30040 On ch=2 n=81 v=64
30260 Off ch=2 n=81 v=64
30280 On ch=2 n=80 v=64
30500 Off ch=2 n=80 v=64
30520 On ch=2 n=78 v=64
30720 Off ch=2 n=78 v=64
30760 On ch=2 n=76 v=64
30980 Off ch=2 n=76 v=64
31000 On ch=2 n=74 v=64
31220 Off ch=2 n=74 v=64
69120 Meta TrkEnd
TrkEnd
MTrk
0 Meta TrkName "Strings"
0 Meta 0x20 02
0 Meta InstrName "Strings"
0 KeySig 0 major
210 Par ch=3 c=0 v=0
215 Par ch=3 c=32 v=0
220 PrCh ch=3 p=48
225 Par ch=3 c=7 v=100
230 Par ch=3 c=10 v=64
235 Par ch=3 c=91 v=40
240 Par ch=3 c=93 v=0
245 Par ch=3 c=99 v=1
245 Par ch=3 c=98 v=8
245 Par ch=3 c=6 v=64
250 Par ch=3 c=99 v=1
250 Par ch=3 c=98 v=9
250 Par ch=3 c=6 v=64
255 Par ch=3 c=99 v=1
255 Par ch=3 c=98 v=10
255 Par ch=3 c=6 v=64
260 Par ch=3 c=99 v=1
260 Par ch=3 c=98 v=32
260 Par ch=3 c=6 v=64
265 Par ch=3 c=99 v=1
265 Par ch=3 c=98 v=33
265 Par ch=3 c=6 v=64
270 Par ch=3 c=99 v=1
270 Par ch=3 c=98 v=99
270 Par ch=3 c=6 v=64
275 Par ch=3 c=99 v=1
275 Par ch=3 c=98 v=100
275 Par ch=3 c=6 v=64
280 Par ch=3 c=99 v=1
280 Par ch=3 c=98 v=102
280 Par ch=3 c=6 v=64
2880 On ch=3 n=71 v=72
2880 On ch=3 n=68 v=72
3060 Off ch=3 n=71 v=72
3060 Off ch=3 n=68 v=72
3600 On ch=3 n=73 v=72
3600 On ch=3 n=69 v=72
3780 Off ch=3 n=73 v=72
3780 Off ch=3 n=69 v=72
4320 On ch=3 n=71 v=72
4320 On ch=3 n=68 v=72
4500 Off ch=3 n=71 v=72
4500 Off ch=3 n=68 v=72
4800 On ch=3 n=69 v=72
4800 On ch=3 n=66 v=72
4980 Off ch=3 n=69 v=72
4980 Off ch=3 n=66 v=72
5520 On ch=3 n=71 v=72
5520 On ch=3 n=68 v=72
5700 Off ch=3 n=71 v=72
5700 Off ch=3 n=68 v=72
6240 On ch=3 n=69 v=72
6240 On ch=3 n=66 v=72
6420 Off ch=3 n=69 v=72
6420 Off ch=3 n=66 v=72
6720 On ch=3 n=69 v=72
6720 On ch=3 n=64 v=72
7360 Off ch=3 n=69 v=72
7360 Off ch=3 n=64 v=72
7440 On ch=3 n=69 v=72
7440 On ch=3 n=66 v=72
7620 Off ch=3 n=69 v=72
7620 Off ch=3 n=66 v=72
7680 On ch=3 n=69 v=72
7680 On ch=3 n=66 v=72
10540 Off ch=3 n=69 v=72
10540 Off ch=3 n=66 v=72
10560 On ch=3 n=71 v=72
10560 On ch=3 n=68 v=72
10740 Off ch=3 n=71 v=72
10740 Off ch=3 n=68 v=72
11280 On ch=3 n=73 v=72
11280 On ch=3 n=69 v=72
11460 Off ch=3 n=73 v=72
11460 Off ch=3 n=69 v=72
12000 On ch=3 n=71 v=72
12000 On ch=3 n=68 v=72
12180 Off ch=3 n=71 v=72
12180 Off ch=3 n=68 v=72
12480 On ch=3 n=69 v=72
12480 On ch=3 n=66 v=72
12660 Off ch=3 n=69 v=72
12660 Off ch=3 n=66 v=72
13200 On ch=3 n=71 v=72
13200 On ch=3 n=68 v=72
13380 Off ch=3 n=71 v=72
13380 Off ch=3 n=68 v=72
13920 On ch=3 n=69 v=72
13920 On ch=3 n=66 v=72
14100 Off ch=3 n=69 v=72
14100 Off ch=3 n=66 v=72
14400 On ch=3 n=69 v=72
14400 On ch=3 n=64 v=72
15040 Off ch=3 n=69 v=72
15040 Off ch=3 n=64 v=72
15120 On ch=3 n=69 v=72
15120 On ch=3 n=66 v=72
15300 Off ch=3 n=69 v=72
15300 Off ch=3 n=66 v=72
15360 On ch=3 n=69 v=72
15360 On ch=3 n=66 v=72
18220 Off ch=3 n=69 v=72
18220 Off ch=3 n=66 v=72
18240 On ch=3 n=71 v=72
18240 On ch=3 n=68 v=72
18420 Off ch=3 n=71 v=72
18420 Off ch=3 n=68 v=72
18960 On ch=3 n=73 v=72
18960 On ch=3 n=69 v=72
19140 Off ch=3 n=73 v=72
19140 Off ch=3 n=69 v=72
19680 On ch=3 n=71 v=72
19680 On ch=3 n=68 v=72
19860 Off ch=3 n=71 v=72
19860 Off ch=3 n=68 v=72
20160 On ch=3 n=69 v=72
20160 On ch=3 n=66 v=72
20340 Off ch=3 n=69 v=72
20340 Off ch=3 n=66 v=72
20880 On ch=3 n=71 v=72
20880 On ch=3 n=68 v=72
21060 Off ch=3 n=71 v=72
21060 Off ch=3 n=68 v=72
21600 On ch=3 n=69 v=72
21600 On ch=3 n=66 v=72
21780 Off ch=3 n=69 v=72
21780 Off ch=3 n=66 v=72
22080 On ch=3 n=69 v=72
22080 On ch=3 n=64 v=72
22720 Off ch=3 n=69 v=72
22720 Off ch=3 n=64 v=72
22800 On ch=3 n=69 v=72
22800 On ch=3 n=66 v=72
22980 Off ch=3 n=69 v=72
22980 Off ch=3 n=66 v=72
23040 On ch=3 n=69 v=72
23040 On ch=3 n=66 v=72
25900 Off ch=3 n=69 v=72
25900 Off ch=3 n=66 v=72
25920 On ch=3 n=71 v=72
25920 On ch=3 n=68 v=72
26100 Off ch=3 n=71 v=72
26100 Off ch=3 n=68 v=72
26640 On ch=3 n=73 v=72
26640 On ch=3 n=69 v=72
26820 Off ch=3 n=73 v=72
26820 Off ch=3 n=69 v=72
27360 On ch=3 n=71 v=72
27360 On ch=3 n=68 v=72
27540 Off ch=3 n=71 v=72
27540 Off ch=3 n=68 v=72
27840 On ch=3 n=69 v=72
27840 On ch=3 n=66 v=72
28020 Off ch=3 n=69 v=72
28020 Off ch=3 n=66 v=72
28560 On ch=3 n=71 v=72
28560 On ch=3 n=68 v=72
28740 Off ch=3 n=71 v=72
28740 Off ch=3 n=68 v=72
29280 On ch=3 n=69 v=72
29280 On ch=3 n=66 v=72
29460 Off ch=3 n=69 v=72
29460 Off ch=3 n=66 v=72
29760 On ch=3 n=69 v=72
29760 On ch=3 n=64 v=72
30400 Off ch=3 n=69 v=72
30400 Off ch=3 n=64 v=72
30480 On ch=3 n=69 v=72
30480 On ch=3 n=66 v=72
30660 Off ch=3 n=69 v=72
30660 Off ch=3 n=66 v=72
30720 On ch=3 n=69 v=72
30720 On ch=3 n=66 v=72
33580 Off ch=3 n=69 v=72
33580 Off ch=3 n=66 v=72
33600 Par ch=3 c=10 v=40
33600 Par ch=3 c=7 v=75
33600 On ch=3 n=65 v=72
33600 On ch=3 n=62 v=72
33600 On ch=3 n=57 v=72
34280 Off ch=3 n=65 v=72
34280 Off ch=3 n=62 v=72
34280 Off ch=3 n=57 v=72
34320 On ch=3 n=67 v=72
34320 On ch=3 n=64 v=72
34320 On ch=3 n=59 v=72
35000 Off ch=3 n=67 v=72
35000 Off ch=3 n=64 v=72
35000 Off ch=3 n=59 v=72
35040 On ch=3 n=65 v=72
35040 On ch=3 n=62 v=72
35040 On ch=3 n=57 v=72
35490 Off ch=3 n=65 v=72
35490 Off ch=3 n=62 v=72
35490 Off ch=3 n=57 v=72
35520 On ch=3 n=64 v=72
35520 On ch=3 n=60 v=72
35520 On ch=3 n=55 v=72
36200 Off ch=3 n=64 v=72
36200 Off ch=3 n=60 v=72
36200 Off ch=3 n=55 v=72
36240 On ch=3 n=65 v=72
36240 On ch=3 n=62 v=72
36240 On ch=3 n=57 v=72
36920 Off ch=3 n=65 v=72
36920 Off ch=3 n=62 v=72
36920 Off ch=3 n=57 v=72
36960 On ch=3 n=64 v=72
36960 On ch=3 n=60 v=72
36960 On ch=3 n=55 v=72
37410 Off ch=3 n=64 v=72
37410 Off ch=3 n=60 v=72
37410 Off ch=3 n=55 v=72
37440 On ch=3 n=60 v=72
37440 On ch=3 n=57 v=72
37440 On ch=3 n=52 v=72
38120 Off ch=3 n=60 v=72
38120 Off ch=3 n=57 v=72
38120 Off ch=3 n=52 v=72
38160 On ch=3 n=62 v=72
38160 On ch=3 n=58 v=72
38160 On ch=3 n=53 v=72
38380 Off ch=3 n=62 v=72
38380 Off ch=3 n=58 v=72
38380 Off ch=3 n=53 v=72
38400 On ch=3 n=62 v=72
38400 On ch=3 n=58 v=72
38400 On ch=3 n=53 v=72
41260 Off ch=3 n=62 v=72
41260 Off ch=3 n=58 v=72
41260 Off ch=3 n=53 v=72
41280 On ch=3 n=65 v=72
41280 On ch=3 n=62 v=72
41280 On ch=3 n=57 v=72
41960 Off ch=3 n=65 v=72
41960 Off ch=3 n=62 v=72
41960 Off ch=3 n=57 v=72
42000 On ch=3 n=67 v=72
42000 On ch=3 n=64 v=72
42000 On ch=3 n=59 v=72
42680 Off ch=3 n=67 v=72
42680 Off ch=3 n=64 v=72
42680 Off ch=3 n=59 v=72
42720 On ch=3 n=65 v=72
42720 On ch=3 n=62 v=72
42720 On ch=3 n=57 v=72
43170 Off ch=3 n=65 v=72
43170 Off ch=3 n=62 v=72
43170 Off ch=3 n=57 v=72
43200 On ch=3 n=64 v=72
43200 On ch=3 n=60 v=72
43200 On ch=3 n=55 v=72
43880 Off ch=3 n=64 v=72
43880 Off ch=3 n=60 v=72
43880 Off ch=3 n=55 v=72
43920 On ch=3 n=65 v=72
43920 On ch=3 n=62 v=72
43920 On ch=3 n=57 v=72
44600 Off ch=3 n=65 v=72
44600 Off ch=3 n=62 v=72
44600 Off ch=3 n=57 v=72
44640 On ch=3 n=64 v=72
44640 On ch=3 n=60 v=72
44640 On ch=3 n=55 v=72
45090 Off ch=3 n=64 v=72
45090 Off ch=3 n=60 v=72
45090 Off ch=3 n=55 v=72
45120 On ch=3 n=60 v=72
45120 On ch=3 n=57 v=72
45120 On ch=3 n=52 v=72
45800 Off ch=3 n=60 v=72
45800 Off ch=3 n=57 v=72
45800 Off ch=3 n=52 v=72
45840 On ch=3 n=62 v=72
45840 On ch=3 n=58 v=72
45840 On ch=3 n=53 v=72
46060 Off ch=3 n=62 v=72
46060 Off ch=3 n=58 v=72
46060 Off ch=3 n=53 v=72
46080 On ch=3 n=62 v=72
46080 On ch=3 n=58 v=72
46080 On ch=3 n=53 v=72
48940 Off ch=3 n=62 v=72
48940 Off ch=3 n=58 v=72
48940 Off ch=3 n=53 v=72
48960 On ch=3 n=65 v=72
48960 On ch=3 n=62 v=72
48960 On ch=3 n=57 v=72
49640 Off ch=3 n=65 v=72
49640 Off ch=3 n=62 v=72
49640 Off ch=3 n=57 v=72
49680 On ch=3 n=67 v=72
49680 On ch=3 n=64 v=72
49680 On ch=3 n=59 v=72
50360 Off ch=3 n=67 v=72
50360 Off ch=3 n=64 v=72
50360 Off ch=3 n=59 v=72
50400 On ch=3 n=65 v=72
50400 On ch=3 n=62 v=72
50400 On ch=3 n=57 v=72
50850 Off ch=3 n=65 v=72
50850 Off ch=3 n=62 v=72
50850 Off ch=3 n=57 v=72
50880 On ch=3 n=64 v=72
50880 On ch=3 n=60 v=72
50880 On ch=3 n=55 v=72
51560 Off ch=3 n=64 v=72
51560 Off ch=3 n=60 v=72
51560 Off ch=3 n=55 v=72
51600 On ch=3 n=65 v=72
51600 On ch=3 n=62 v=72
51600 On ch=3 n=57 v=72
52280 Off ch=3 n=65 v=72
52280 Off ch=3 n=62 v=72
52280 Off ch=3 n=57 v=72
52320 On ch=3 n=67 v=72
52320 On ch=3 n=64 v=72
52320 On ch=3 n=60 v=72
52770 Off ch=3 n=67 v=72
52770 Off ch=3 n=64 v=72
52770 Off ch=3 n=60 v=72
52800 On ch=3 n=60 v=72
52800 On ch=3 n=69 v=72
52800 On ch=3 n=65 v=72
53480 Off ch=3 n=69 v=72
53480 Off ch=3 n=65 v=72
53520 On ch=3 n=70 v=72
53520 On ch=3 n=67 v=72
54200 Off ch=3 n=70 v=72
54200 Off ch=3 n=67 v=72
54240 On ch=3 n=69 v=72
54240 On ch=3 n=65 v=72
54690 Off ch=3 n=60 v=72
54690 Off ch=3 n=69 v=72
54690 Off ch=3 n=65 v=72
54720 On ch=3 n=65 v=72
54720 On ch=3 n=62 v=72
54720 On ch=3 n=58 v=72
56620 Off ch=3 n=65 v=72
56620 Off ch=3 n=62 v=72
56620 Off ch=3 n=58 v=72
56640 On ch=3 n=65 v=72
56640 On ch=3 n=62 v=72
56860 Off ch=3 n=65 v=72
56860 Off ch=3 n=62 v=72
56880 On ch=3 n=65 v=72
56880 On ch=3 n=62 v=72
57100 Off ch=3 n=65 v=72
57100 Off ch=3 n=62 v=72
57120 On ch=3 n=64 v=72
57120 On ch=3 n=60 v=72
57340 Off ch=3 n=64 v=72
57340 Off ch=3 n=60 v=72
57360 On ch=3 n=65 v=72
57360 On ch=3 n=62 v=72
57580 Off ch=3 n=65 v=72
57580 Off ch=3 n=62 v=72
57840 On ch=3 n=62 v=72
57840 On ch=3 n=57 v=72
60460 Off ch=3 n=62 v=72
60460 Off ch=3 n=57 v=72
60480 On ch=3 n=60 v=72
60480 On ch=3 n=58 v=72
62380 Off ch=3 n=60 v=72
62380 Off ch=3 n=58 v=72
62400 On ch=3 n=62 v=72
62400 On ch=3 n=57 v=72
66240 Par ch=3 c=11 v=127
66740 Par ch=3 c=11 v=126
66750 Par ch=3 c=11 v=125
66760 Par ch=3 c=11 v=124
66770 Par ch=3 c=11 v=123
66780 Par ch=3 c=11 v=122
66790 Par ch=3 c=11 v=121
66800 Par ch=3 c=11 v=120
66820 Par ch=3 c=11 v=119
66830 Par ch=3 c=11 v=118
66840 Par ch=3 c=11 v=117
66850 Par ch=3 c=11 v=116
66860 Par ch=3 c=11 v=115
66870 Par ch=3 c=11 v=114
66880 Par ch=3 c=11 v=113
66890 Par ch=3 c=11 v=112
66910 Par ch=3 c=11 v=111
66920 Par ch=3 c=11 v=110
66930 Par ch=3 c=11 v=109
66940 Par ch=3 c=11 v=108
66950 Par ch=3 c=11 v=107
66960 Par ch=3 c=11 v=106
66970 Par ch=3 c=11 v=105
66980 Par ch=3 c=11 v=104
67000 Par ch=3 c=11 v=103
67010 Par ch=3 c=11 v=102
67020 Par ch=3 c=11 v=101
67030 Par ch=3 c=11 v=100
67040 Par ch=3 c=11 v=99
67050 Par ch=3 c=11 v=98
67060 Par ch=3 c=11 v=97
67070 Par ch=3 c=11 v=96
67090 Par ch=3 c=11 v=95
67100 Par ch=3 c=11 v=94
67110 Par ch=3 c=11 v=93
67120 Par ch=3 c=11 v=92
67130 Par ch=3 c=11 v=91
67140 Par ch=3 c=11 v=90
67150 Par ch=3 c=11 v=89
67160 Par ch=3 c=11 v=88
67180 Par ch=3 c=11 v=87
67190 Par ch=3 c=11 v=86
67200 Par ch=3 c=11 v=85
67210 Par ch=3 c=11 v=84
67220 Par ch=3 c=11 v=83
67230 Par ch=3 c=11 v=82
67240 Par ch=3 c=11 v=81
67250 Par ch=3 c=11 v=80
67270 Par ch=3 c=11 v=79
67280 Par ch=3 c=11 v=78
67290 Par ch=3 c=11 v=77
67300 Par ch=3 c=11 v=76
67310 Par ch=3 c=11 v=75
67320 Par ch=3 c=11 v=74
67330 Par ch=3 c=11 v=73
67340 Par ch=3 c=11 v=72
67360 Par ch=3 c=11 v=71
67370 Par ch=3 c=11 v=70
67380 Par ch=3 c=11 v=69
67390 Par ch=3 c=11 v=68
67400 Par ch=3 c=11 v=67
67410 Par ch=3 c=11 v=66
67420 Par ch=3 c=11 v=65
67430 Par ch=3 c=11 v=64
67450 Par ch=3 c=11 v=63
67460 Par ch=3 c=11 v=62
67470 Par ch=3 c=11 v=61
67480 Par ch=3 c=11 v=60
67490 Par ch=3 c=11 v=59
67500 Par ch=3 c=11 v=58
67510 Par ch=3 c=11 v=57
67520 Par ch=3 c=11 v=56
67540 Par ch=3 c=11 v=55
67550 Par ch=3 c=11 v=54
67560 Par ch=3 c=11 v=53
67570 Par ch=3 c=11 v=52
67580 Par ch=3 c=11 v=51
67590 Par ch=3 c=11 v=50
67600 Par ch=3 c=11 v=49
67610 Par ch=3 c=11 v=48
67630 Par ch=3 c=11 v=47
67640 Par ch=3 c=11 v=46
67650 Par ch=3 c=11 v=45
67660 Par ch=3 c=11 v=44
67670 Par ch=3 c=11 v=43
67680 Par ch=3 c=11 v=42
67690 Par ch=3 c=11 v=41
67700 Par ch=3 c=11 v=40
67720 Par ch=3 c=11 v=39
67730 Par ch=3 c=11 v=38
67740 Par ch=3 c=11 v=37
67750 Par ch=3 c=11 v=36
67760 Par ch=3 c=11 v=35
67770 Par ch=3 c=11 v=34
67780 Par ch=3 c=11 v=33
67790 Par ch=3 c=11 v=32
67810 Par ch=3 c=11 v=31
67820 Par ch=3 c=11 v=30
67830 Par ch=3 c=11 v=29
67840 Par ch=3 c=11 v=28
67850 Par ch=3 c=11 v=27
67860 Par ch=3 c=11 v=26
67870 Par ch=3 c=11 v=25
67880 Par ch=3 c=11 v=24
67900 Par ch=3 c=11 v=23
67910 Par ch=3 c=11 v=22
67920 Par ch=3 c=11 v=21
67930 Par ch=3 c=11 v=20
67940 Par ch=3 c=11 v=19
67950 Par ch=3 c=11 v=18
67960 Par ch=3 c=11 v=17
67970 Par ch=3 c=11 v=16
67990 Par ch=3 c=11 v=15
68000 Par ch=3 c=11 v=14
68010 Par ch=3 c=11 v=13
68020 Par ch=3 c=11 v=12
68030 Par ch=3 c=11 v=11
68040 Par ch=3 c=11 v=10
68050 Par ch=3 c=11 v=9
68060 Par ch=3 c=11 v=8
68080 Par ch=3 c=11 v=7
68090 Par ch=3 c=11 v=6
68100 Par ch=3 c=11 v=5
68110 Par ch=3 c=11 v=4
68120 Par ch=3 c=11 v=3
68130 Par ch=3 c=11 v=2
68140 Par ch=3 c=11 v=1
68140 Off ch=3 n=62 v=72
68140 Off ch=3 n=57 v=72
68150 Par ch=3 c=11 v=0
69120 Meta TrkEnd
TrkEnd
MTrk
0 Meta TrkName "Strings"
0 Meta 0x20 03
0 Meta InstrName "Strings"
0 KeySig 0 major
285 Par ch=4 c=0 v=0
290 Par ch=4 c=32 v=0
295 PrCh ch=4 p=48
300 Par ch=4 c=7 v=100
305 Par ch=4 c=10 v=64
310 Par ch=4 c=91 v=40
315 Par ch=4 c=93 v=0
320 Par ch=4 c=99 v=1
320 Par ch=4 c=98 v=8
320 Par ch=4 c=6 v=64
325 Par ch=4 c=99 v=1
325 Par ch=4 c=98 v=9
325 Par ch=4 c=6 v=64
330 Par ch=4 c=99 v=1
330 Par ch=4 c=98 v=10
330 Par ch=4 c=6 v=64
335 Par ch=4 c=99 v=1
335 Par ch=4 c=98 v=32
335 Par ch=4 c=6 v=64
340 Par ch=4 c=99 v=1
340 Par ch=4 c=98 v=33
340 Par ch=4 c=6 v=64
345 Par ch=4 c=99 v=1
345 Par ch=4 c=98 v=99
345 Par ch=4 c=6 v=64
350 Par ch=4 c=99 v=1
350 Par ch=4 c=98 v=100
350 Par ch=4 c=6 v=64
355 Par ch=4 c=99 v=1
355 Par ch=4 c=98 v=102
355 Par ch=4 c=6 v=64
2880 On ch=4 n=40 v=80
2880 On ch=4 n=28 v=80
3000 Off ch=4 n=40 v=80
3000 Off ch=4 n=28 v=80
3120 On ch=4 n=40 v=80
3120 On ch=4 n=28 v=80
3240 Off ch=4 n=40 v=80
3240 Off ch=4 n=28 v=80
3360 On ch=4 n=40 v=80
3360 On ch=4 n=28 v=80
3480 Off ch=4 n=40 v=80
3480 Off ch=4 n=28 v=80
3600 On ch=4 n=40 v=80
3600 On ch=4 n=28 v=80
3720 Off ch=4 n=40 v=80
3720 Off ch=4 n=28 v=80
3840 On ch=4 n=40 v=80
3840 On ch=4 n=28 v=80
3960 Off ch=4 n=40 v=80
3960 Off ch=4 n=28 v=80
4080 On ch=4 n=40 v=80
4080 On ch=4 n=28 v=80
4200 Off ch=4 n=40 v=80
4200 Off ch=4 n=28 v=80
4320 On ch=4 n=40 v=80
4320 On ch=4 n=28 v=80
4440 Off ch=4 n=40 v=80
4440 Off ch=4 n=28 v=80
4560 On ch=4 n=40 v=80
4560 On ch=4 n=28 v=80
4680 Off ch=4 n=40 v=80
4680 Off ch=4 n=28 v=80
4800 On ch=4 n=40 v=80
4800 On ch=4 n=28 v=80
4920 Off ch=4 n=40 v=80
4920 Off ch=4 n=28 v=80
5040 On ch=4 n=40 v=80
5040 On ch=4 n=28 v=80
5160 Off ch=4 n=40 v=80
5160 Off ch=4 n=28 v=80
5280 On ch=4 n=40 v=80
5280 On ch=4 n=28 v=80
5400 Off ch=4 n=40 v=80
5400 Off ch=4 n=28 v=80
5520 On ch=4 n=40 v=80
5520 On ch=4 n=28 v=80
5640 Off ch=4 n=40 v=80
5640 Off ch=4 n=28 v=80
5760 On ch=4 n=40 v=80
5760 On ch=4 n=28 v=80
5880 Off ch=4 n=40 v=80
5880 Off ch=4 n=28 v=80
6000 On ch=4 n=40 v=80
6000 On ch=4 n=28 v=80
6120 Off ch=4 n=40 v=80
6120 Off ch=4 n=28 v=80
6240 On ch=4 n=40 v=80
6240 On ch=4 n=28 v=80
6360 Off ch=4 n=40 v=80
6360 Off ch=4 n=28 v=80
6480 On ch=4 n=40 v=80
6480 On ch=4 n=28 v=80
6600 Off ch=4 n=40 v=80
6600 Off ch=4 n=28 v=80
6720 On ch=4 n=40 v=80
6720 On ch=4 n=28 v=80
6840 Off ch=4 n=40 v=80
6840 Off ch=4 n=28 v=80
6960 On ch=4 n=40 v=80
6960 On ch=4 n=28 v=80
7080 Off ch=4 n=40 v=80
7080 Off ch=4 n=28 v=80
7200 On ch=4 n=40 v=80
7200 On ch=4 n=28 v=80
7320 Off ch=4 n=40 v=80
7320 Off ch=4 n=28 v=80
7440 On ch=4 n=40 v=80
7440 On ch=4 n=28 v=80
7560 Off ch=4 n=40 v=80
7560 Off ch=4 n=28 v=80
7680 On ch=4 n=40 v=80
7680 On ch=4 n=28 v=80
7800 Off ch=4 n=40 v=80
7800 Off ch=4 n=28 v=80
7920 On ch=4 n=40 v=80
7920 On ch=4 n=28 v=80
8040 Off ch=4 n=40 v=80
8040 Off ch=4 n=28 v=80
8400 On ch=4 n=40 v=80
8400 On ch=4 n=28 v=80
8520 Off ch=4 n=40 v=80
8520 Off ch=4 n=28 v=80
8640 On ch=4 n=40 v=80
8640 On ch=4 n=28 v=80
8760 Off ch=4 n=40 v=80
8760 Off ch=4 n=28 v=80
8880 On ch=4 n=40 v=80
8880 On ch=4 n=28 v=80
9000 Off ch=4 n=40 v=80
9000 Off ch=4 n=28 v=80
9120 On ch=4 n=40 v=80
9120 On ch=4 n=28 v=80
9240 Off ch=4 n=40 v=80
9240 Off ch=4 n=28 v=80
9360 On ch=4 n=40 v=80
9360 On ch=4 n=28 v=80
9480 Off ch=4 n=40 v=80
9480 Off ch=4 n=28 v=80
9600 On ch=4 n=40 v=80
9600 On ch=4 n=28 v=80
9720 Off ch=4 n=40 v=80
9720 Off ch=4 n=28 v=80
9840 On ch=4 n=40 v=80
9840 On ch=4 n=28 v=80
9960 Off ch=4 n=40 v=80
9960 Off ch=4 n=28 v=80
10080 On ch=4 n=40 v=80
10080 On ch=4 n=28 v=80
10300 Off ch=4 n=40 v=80
10300 Off ch=4 n=28 v=80
10320 On ch=4 n=40 v=80
10320 On ch=4 n=28 v=80
10440 Off ch=4 n=40 v=80
10440 Off ch=4 n=28 v=80
10560 On ch=4 n=40 v=80
10560 On ch=4 n=28 v=80
10680 Off ch=4 n=40 v=80
10680 Off ch=4 n=28 v=80
10800 On ch=4 n=40 v=80
10800 On ch=4 n=28 v=80
10920 Off ch=4 n=40 v=80
10920 Off ch=4 n=28 v=80
11040 On ch=4 n=40 v=80
11040 On ch=4 n=28 v=80
11160 Off ch=4 n=40 v=80
11160 Off ch=4 n=28 v=80
11280 On ch=4 n=40 v=80
11280 On ch=4 n=28 v=80
11400 Off ch=4 n=40 v=80
11400 Off ch=4 n=28 v=80
11520 On ch=4 n=40 v=80
11520 On ch=4 n=28 v=80
11640 Off ch=4 n=40 v=80
11640 Off ch=4 n=28 v=80
11760 On ch=4 n=40 v=80
11760 On ch=4 n=28 v=80
11880 Off ch=4 n=40 v=80
11880 Off ch=4 n=28 v=80
12000 On ch=4 n=40 v=80
12000 On ch=4 n=28 v=80
12120 Off ch=4 n=40 v=80
12120 Off ch=4 n=28 v=80
12240 On ch=4 n=40 v=80
12240 On ch=4 n=28 v=80
12360 Off ch=4 n=40 v=80
12360 Off ch=4 n=28 v=80
12480 On ch=4 n=40 v=80
12480 On ch=4 n=28 v=80
12600 Off ch=4 n=40 v=80
12600 Off ch=4 n=28 v=80
12720 On ch=4 n=40 v=80
12720 On ch=4 n=28 v=80
12840 Off ch=4 n=40 v=80
12840 Off ch=4 n=28 v=80
12960 On ch=4 n=40 v=80
12960 On ch=4 n=28 v=80
13080 Off ch=4 n=40 v=80
13080 Off ch=4 n=28 v=80
13200 On ch=4 n=40 v=80
13200 On ch=4 n=28 v=80
13320 Off ch=4 n=40 v=80
13320 Off ch=4 n=28 v=80
13440 On ch=4 n=40 v=80
13440 On ch=4 n=28 v=80
13560 Off ch=4 n=40 v=80
13560 Off ch=4 n=28 v=80
13680 On ch=4 n=40 v=80
13680 On ch=4 n=28 v=80
13800 Off ch=4 n=40 v=80
13800 Off ch=4 n=28 v=80
13920 On ch=4 n=40 v=80
13920 On ch=4 n=28 v=80
14040 Off ch=4 n=40 v=80
14040 Off ch=4 n=28 v=80
14160 On ch=4 n=40 v=80
14160 On ch=4 n=28 v=80
14280 Off ch=4 n=40 v=80
14280 Off ch=4 n=28 v=80
14400 On ch=4 n=40 v=80
14400 On ch=4 n=28 v=80
14520 Off ch=4 n=40 v=80
14520 Off ch=4 n=28 v=80
14640 On ch=4 n=40 v=80
14640 On ch=4 n=28 v=80
14760 Off ch=4 n=40 v=80
14760 Off ch=4 n=28 v=80
14880 On ch=4 n=40 v=80
14880 On ch=4 n=28 v=80
15000 Off ch=4 n=40 v=80
15000 Off ch=4 n=28 v=80
15120 On ch=4 n=40 v=80
15120 On ch=4 n=28 v=80
15240 Off ch=4 n=40 v=80
15240 Off ch=4 n=28 v=80
15360 On ch=4 n=40 v=80
15360 On ch=4 n=28 v=80
15480 Off ch=4 n=40 v=80
15480 Off ch=4 n=28 v=80
15600 On ch=4 n=40 v=80
15600 On ch=4 n=28 v=80
15720 Off ch=4 n=40 v=80
15720 Off ch=4 n=28 v=80
16080 On ch=4 n=40 v=80
16080 On ch=4 n=28 v=80
16200 Off ch=4 n=40 v=80
16200 Off ch=4 n=28 v=80
16320 On ch=4 n=40 v=80
16320 On ch=4 n=28 v=80
16440 Off ch=4 n=40 v=80
16440 Off ch=4 n=28 v=80
16560 On ch=4 n=40 v=80
16560 On ch=4 n=28 v=80
16680 Off ch=4 n=40 v=80
16680 Off ch=4 n=28 v=80
16800 On ch=4 n=40 v=80
16800 On ch=4 n=28 v=80
16920 Off ch=4 n=40 v=80
16920 Off ch=4 n=28 v=80
17040 On ch=4 n=40 v=80
17040 On ch=4 n=28 v=80
17160 Off ch=4 n=40 v=80
17160 Off ch=4 n=28 v=80
17280 On ch=4 n=40 v=80
17280 On ch=4 n=28 v=80
17400 Off ch=4 n=40 v=80
17400 Off ch=4 n=28 v=80
17520 On ch=4 n=40 v=80
17520 On ch=4 n=28 v=80
17640 Off ch=4 n=40 v=80
17640 Off ch=4 n=28 v=80
17760 On ch=4 n=40 v=80
17760 On ch=4 n=28 v=80
17980 Off ch=4 n=40 v=80
17980 Off ch=4 n=28 v=80
18000 On ch=4 n=40 v=80
18000 On ch=4 n=28 v=80
18120 Off ch=4 n=40 v=80
18120 Off ch=4 n=28 v=80
18240 On ch=4 n=40 v=80
18240 On ch=4 n=28 v=80
18360 Off ch=4 n=40 v=80
18360 Off ch=4 n=28 v=80
18480 On ch=4 n=40 v=80
18480 On ch=4 n=28 v=80
18600 Off ch=4 n=40 v=80
18600 Off ch=4 n=28 v=80
18720 On ch=4 n=40 v=80
18720 On ch=4 n=28 v=80
18840 Off ch=4 n=40 v=80
18840 Off ch=4 n=28 v=80
18960 On ch=4 n=40 v=80
18960 On ch=4 n=28 v=80
19080 Off ch=4 n=40 v=80
19080 Off ch=4 n=28 v=80
19200 On ch=4 n=40 v=80
19200 On ch=4 n=28 v=80
19320 Off ch=4 n=40 v=80
19320 Off ch=4 n=28 v=80
19440 On ch=4 n=40 v=80
19440 On ch=4 n=28 v=80
19560 Off ch=4 n=40 v=80
19560 Off ch=4 n=28 v=80
19680 On ch=4 n=40 v=80
19680 On ch=4 n=28 v=80
19800 Off ch=4 n=40 v=80
19800 Off ch=4 n=28 v=80
19920 On ch=4 n=40 v=80
19920 On ch=4 n=28 v=80
20040 Off ch=4 n=40 v=80
20040 Off ch=4 n=28 v=80
20160 On ch=4 n=40 v=80
20160 On ch=4 n=28 v=80
20280 Off ch=4 n=40 v=80
20280 Off ch=4 n=28 v=80
20400 On ch=4 n=40 v=80
20400 On ch=4 n=28 v=80
20520 Off ch=4 n=40 v=80
20520 Off ch=4 n=28 v=80
20640 On ch=4 n=40 v=80
20640 On ch=4 n=28 v=80
20760 Off ch=4 n=40 v=80
20760 Off ch=4 n=28 v=80
20880 On ch=4 n=40 v=80
20880 On ch=4 n=28 v=80
21000 Off ch=4 n=40 v=80
21000 Off ch=4 n=28 v=80
21120 On ch=4 n=40 v=80
21120 On ch=4 n=28 v=80
21240 Off ch=4 n=40 v=80
21240 Off ch=4 n=28 v=80
21360 On ch=4 n=40 v=80
21360 On ch=4 n=28 v=80
21480 Off ch=4 n=40 v=80
21480 Off ch=4 n=28 v=80
21600 On ch=4 n=40 v=80
21600 On ch=4 n=28 v=80
21720 Off ch=4 n=40 v=80
21720 Off ch=4 n=28 v=80
21840 On ch=4 n=40 v=80
21840 On ch=4 n=28 v=80
21960 Off ch=4 n=40 v=80
21960 Off ch=4 n=28 v=80
22080 On ch=4 n=40 v=80
22080 On ch=4 n=28 v=80
22200 Off ch=4 n=40 v=80
22200 Off ch=4 n=28 v=80
22320 On ch=4 n=40 v=80
22320 On ch=4 n=28 v=80
22440 Off ch=4 n=40 v=80
22440 Off ch=4 n=28 v=80
22560 On ch=4 n=40 v=80
22560 On ch=4 n=28 v=80
22680 Off ch=4 n=40 v=80
22680 Off ch=4 n=28 v=80
22800 On ch=4 n=40 v=80
22800 On ch=4 n=28 v=80
22920 Off ch=4 n=40 v=80
22920 Off ch=4 n=28 v=80
23040 On ch=4 n=40 v=80
23040 On ch=4 n=28 v=80
23160 Off ch=4 n=40 v=80
23160 Off ch=4 n=28 v=80
23280 On ch=4 n=40 v=80
23280 On ch=4 n=28 v=80
23400 Off ch=4 n=40 v=80
23400 Off ch=4 n=28 v=80
23760 On ch=4 n=40 v=80
23760 On ch=4 n=28 v=80
23880 Off ch=4 n=40 v=80
23880 Off ch=4 n=28 v=80
24000 On ch=4 n=40 v=80
24000 On ch=4 n=28 v=80
24120 Off ch=4 n=40 v=80
24120 Off ch=4 n=28 v=80
24240 On ch=4 n=40 v=80
24240 On ch=4 n=28 v=80
24360 Off ch=4 n=40 v=80
24360 Off ch=4 n=28 v=80
24480 On ch=4 n=40 v=80
24480 On ch=4 n=28 v=80
24600 Off ch=4 n=40 v=80
24600 Off ch=4 n=28 v=80
24720 On ch=4 n=40 v=80
24720 On ch=4 n=28 v=80
24840 Off ch=4 n=40 v=80
24840 Off ch=4 n=28 v=80
24960 On ch=4 n=40 v=80
24960 On ch=4 n=28 v=80
25080 Off ch=4 n=40 v=80
25080 Off ch=4 n=28 v=80
25200 On ch=4 n=40 v=80
25200 On ch=4 n=28 v=80
25320 Off ch=4 n=40 v=80
25320 Off ch=4 n=28 v=80
25440 On ch=4 n=40 v=80
25440 On ch=4 n=28 v=80
25660 Off ch=4 n=40 v=80
25660 Off ch=4 n=28 v=80
25680 On ch=4 n=40 v=80
25680 On ch=4 n=28 v=80
25800 Off ch=4 n=40 v=80
25800 Off ch=4 n=28 v=80
25920 On ch=4 n=40 v=80
25920 On ch=4 n=28 v=80
26040 Off ch=4 n=40 v=80
26040 Off ch=4 n=28 v=80
26160 On ch=4 n=40 v=80
26160 On ch=4 n=28 v=80
26280 Off ch=4 n=40 v=80
26280 Off ch=4 n=28 v=80
26400 On ch=4 n=40 v=80
26400 On ch=4 n=28 v=80
26520 Off ch=4 n=40 v=80
26520 Off ch=4 n=28 v=80
26640 On ch=4 n=40 v=80
26640 On ch=4 n=28 v=80
26760 Off ch=4 n=40 v=80
26760 Off ch=4 n=28 v=80
26880 On ch=4 n=40 v=80
26880 On ch=4 n=28 v=80
27000 Off ch=4 n=40 v=80
27000 Off ch=4 n=28 v=80
27120 On ch=4 n=40 v=80
27120 On ch=4 n=28 v=80
27240 Off ch=4 n=40 v=80
27240 Off ch=4 n=28 v=80
27360 On ch=4 n=40 v=80
27360 On ch=4 n=28 v=80
27480 Off ch=4 n=40 v=80
27480 Off ch=4 n=28 v=80
27600 On ch=4 n=40 v=80
27600 On ch=4 n=28 v=80
27720 Off ch=4 n=40 v=80
27720 Off ch=4 n=28 v=80
27840 On ch=4 n=40 v=80
27840 On ch=4 n=28 v=80
27960 Off ch=4 n=40 v=80
27960 Off ch=4 n=28 v=80
28080 On ch=4 n=40 v=80
28080 On ch=4 n=28 v=80
28200 Off ch=4 n=40 v=80
28200 Off ch=4 n=28 v=80
28320 On ch=4 n=40 v=80
28320 On ch=4 n=28 v=80
28440 Off ch=4 n=40 v=80
28440 Off ch=4 n=28 v=80
28560 On ch=4 n=40 v=80
28560 On ch=4 n=28 v=80
28680 Off ch=4 n=40 v=80
28680 Off ch=4 n=28 v=80
28800 On ch=4 n=40 v=80
28800 On ch=4 n=28 v=80
28920 Off ch=4 n=40 v=80
28920 Off ch=4 n=28 v=80
29040 On ch=4 n=40 v=80
29040 On ch=4 n=28 v=80
29160 Off ch=4 n=40 v=80
29160 Off ch=4 n=28 v=80
29280 On ch=4 n=40 v=80
29280 On ch=4 n=28 v=80
29400 Off ch=4 n=40 v=80
29400 Off ch=4 n=28 v=80
29520 On ch=4 n=40 v=80
29520 On ch=4 n=28 v=80
29640 Off ch=4 n=40 v=80
29640 Off ch=4 n=28 v=80
29760 On ch=4 n=40 v=80
29760 On ch=4 n=28 v=80
29880 Off ch=4 n=40 v=80
29880 Off ch=4 n=28 v=80
30000 On ch=4 n=40 v=80
30000 On ch=4 n=28 v=80
30120 Off ch=4 n=40 v=80
30120 Off ch=4 n=28 v=80
30240 On ch=4 n=40 v=80
30240 On ch=4 n=28 v=80
30360 Off ch=4 n=40 v=80
30360 Off ch=4 n=28 v=80
30480 On ch=4 n=40 v=80
30480 On ch=4 n=28 v=80
30600 Off ch=4 n=40 v=80
30600 Off ch=4 n=28 v=80
30720 On ch=4 n=40 v=80
30720 On ch=4 n=28 v=80
30840 Off ch=4 n=40 v=80
30840 Off ch=4 n=28 v=80
30960 On ch=4 n=40 v=80
30960 On ch=4 n=28 v=80
31080 Off ch=4 n=40 v=80
31080 Off ch=4 n=28 v=80
31440 On ch=4 n=40 v=80
31440 On ch=4 n=28 v=80
31560 Off ch=4 n=40 v=80
31560 Off ch=4 n=28 v=80
31680 On ch=4 n=40 v=80
31680 On ch=4 n=28 v=80
31800 Off ch=4 n=40 v=80
31800 Off ch=4 n=28 v=80
31920 On ch=4 n=40 v=80
31920 On ch=4 n=28 v=80
32040 Off ch=4 n=40 v=80
32040 Off ch=4 n=28 v=80
32400 On ch=4 n=40 v=80
32400 On ch=4 n=28 v=80
32520 Off ch=4 n=40 v=80
32520 Off ch=4 n=28 v=80
32640 On ch=4 n=40 v=80
32640 On ch=4 n=28 v=80
32760 Off ch=4 n=40 v=80
32760 Off ch=4 n=28 v=80
32880 On ch=4 n=40 v=80
32880 On ch=4 n=28 v=80
33000 Off ch=4 n=40 v=80
33000 Off ch=4 n=28 v=80
33360 On ch=4 n=40 v=80
33360 On ch=4 n=28 v=80
33480 Off ch=4 n=40 v=80
33480 Off ch=4 n=28 v=80
33600 Par ch=4 c=10 v=88
33600 Par ch=4 c=7 v=75
33600 On ch=4 n=50 v=80
34280 Off ch=4 n=50 v=80
34320 On ch=4 n=52 v=80
35000 Off ch=4 n=52 v=80
35040 On ch=4 n=50 v=80
35490 Off ch=4 n=50 v=80
35520 On ch=4 n=48 v=80
36200 Off ch=4 n=48 v=80
36240 On ch=4 n=50 v=80
36920 Off ch=4 n=50 v=80
36960 On ch=4 n=48 v=80
37410 Off ch=4 n=48 v=80
37440 On ch=4 n=45 v=80
38120 Off ch=4 n=45 v=80
38160 On ch=4 n=46 v=80
38380 Off ch=4 n=46 v=80
38400 On ch=4 n=46 v=80
41260 Off ch=4 n=46 v=80
41280 On ch=4 n=50 v=80
41960 Off ch=4 n=50 v=80
42000 On ch=4 n=52 v=80
42680 Off ch=4 n=52 v=80
42720 On ch=4 n=50 v=80
43170 Off ch=4 n=50 v=80
43200 On ch=4 n=48 v=80
43880 Off ch=4 n=48 v=80
43920 On ch=4 n=50 v=80
44600 Off ch=4 n=50 v=80
44640 On ch=4 n=48 v=80
45090 Off ch=4 n=48 v=80
45120 On ch=4 n=45 v=80
45800 Off ch=4 n=45 v=80
45840 On ch=4 n=46 v=80
46060 Off ch=4 n=46 v=80
46080 On ch=4 n=46 v=80
48940 Off ch=4 n=46 v=80
48960 On ch=4 n=50 v=80
49640 Off ch=4 n=50 v=80
49680 On ch=4 n=52 v=80
50360 Off ch=4 n=52 v=80
50400 On ch=4 n=50 v=80
50850 Off ch=4 n=50 v=80
50880 On ch=4 n=48 v=80
51560 Off ch=4 n=48 v=80
51600 On ch=4 n=50 v=80
52280 Off ch=4 n=50 v=80
52320 On ch=4 n=48 v=80
52770 Off ch=4 n=48 v=80
52800 On ch=4 n=45 v=80
54700 Off ch=4 n=45 v=80
54720 On ch=4 n=46 v=80
56620 Off ch=4 n=46 v=80
56640 On ch=4 n=38 v=80
56860 Off ch=4 n=38 v=80
56880 On ch=4 n=38 v=80
57100 Off ch=4 n=38 v=80
57120 On ch=4 n=36 v=80
57340 Off ch=4 n=36 v=80
57360 On ch=4 n=38 v=80
57580 Off ch=4 n=38 v=80
57840 On ch=4 n=26 v=80
66240 Par ch=4 c=11 v=127
66740 Par ch=4 c=11 v=126
66750 Par ch=4 c=11 v=125
66760 Par ch=4 c=11 v=124
66770 Par ch=4 c=11 v=123
66780 Par ch=4 c=11 v=122
66790 Par ch=4 c=11 v=121
66800 Par ch=4 c=11 v=120
66820 Par ch=4 c=11 v=119
66830 Par ch=4 c=11 v=118
66840 Par ch=4 c=11 v=117
66850 Par ch=4 c=11 v=116
66860 Par ch=4 c=11 v=115
66870 Par ch=4 c=11 v=114
66880 Par ch=4 c=11 v=113
66890 Par ch=4 c=11 v=112
66910 Par ch=4 c=11 v=111
66920 Par ch=4 c=11 v=110
66930 Par ch=4 c=11 v=109
66940 Par ch=4 c=11 v=108
66950 Par ch=4 c=11 v=107
66960 Par ch=4 c=11 v=106
66970 Par ch=4 c=11 v=105
66980 Par ch=4 c=11 v=104
67000 Par ch=4 c=11 v=103
67010 Par ch=4 c=11 v=102
67020 Par ch=4 c=11 v=101
67030 Par ch=4 c=11 v=100
67040 Par ch=4 c=11 v=99
67050 Par ch=4 c=11 v=98
67060 Par ch=4 c=11 v=97
67070 Par ch=4 c=11 v=96
67090 Par ch=4 c=11 v=95
67100 Par ch=4 c=11 v=94
67110 Par ch=4 c=11 v=93
67120 Par ch=4 c=11 v=92
67130 Par ch=4 c=11 v=91
67140 Par ch=4 c=11 v=90
67150 Par ch=4 c=11 v=89
67160 Par ch=4 c=11 v=88
67180 Par ch=4 c=11 v=87
67190 Par ch=4 c=11 v=86
67200 Par ch=4 c=11 v=85
67210 Par ch=4 c=11 v=84
67220 Par ch=4 c=11 v=83
67230 Par ch=4 c=11 v=82
67240 Par ch=4 c=11 v=81
67250 Par ch=4 c=11 v=80
67270 Par ch=4 c=11 v=79
67280 Par ch=4 c=11 v=78
67290 Par ch=4 c=11 v=77
67300 Par ch=4 c=11 v=76
67310 Par ch=4 c=11 v=75
67320 Par ch=4 c=11 v=74
67330 Par ch=4 c=11 v=73
67340 Par ch=4 c=11 v=72
67360 Par ch=4 c=11 v=71
67370 Par ch=4 c=11 v=70
67380 Par ch=4 c=11 v=69
67390 Par ch=4 c=11 v=68
67400 Par ch=4 c=11 v=67
67410 Par ch=4 c=11 v=66
67420 Par ch=4 c=11 v=65
67430 Par ch=4 c=11 v=64
67450 Par ch=4 c=11 v=63
67460 Par ch=4 c=11 v=62
67470 Par ch=4 c=11 v=61
67480 Par ch=4 c=11 v=60
67490 Par ch=4 c=11 v=59
67500 Par ch=4 c=11 v=58
67510 Par ch=4 c=11 v=57
67520 Par ch=4 c=11 v=56
67540 Par ch=4 c=11 v=55
67550 Par ch=4 c=11 v=54
67560 Par ch=4 c=11 v=53
67570 Par ch=4 c=11 v=52
67580 Par ch=4 c=11 v=51
67590 Par ch=4 c=11 v=50
67600 Par ch=4 c=11 v=49
67610 Par ch=4 c=11 v=48
67630 Par ch=4 c=11 v=47
67640 Par ch=4 c=11 v=46
67650 Par ch=4 c=11 v=45
67660 Par ch=4 c=11 v=44
67670 Par ch=4 c=11 v=43
67680 Par ch=4 c=11 v=42
67690 Par ch=4 c=11 v=41
67700 Par ch=4 c=11 v=40
67720 Par ch=4 c=11 v=39
67730 Par ch=4 c=11 v=38
67740 Par ch=4 c=11 v=37
67750 Par ch=4 c=11 v=36
67760 Par ch=4 c=11 v=35
67770 Par ch=4 c=11 v=34
67780 Par ch=4 c=11 v=33
67790 Par ch=4 c=11 v=32
67810 Par ch=4 c=11 v=31
67820 Par ch=4 c=11 v=30
67830 Par ch=4 c=11 v=29
67840 Par ch=4 c=11 v=28
67850 Par ch=4 c=11 v=27
67860 Par ch=4 c=11 v=26
67870 Par ch=4 c=11 v=25
67880 Par ch=4 c=11 v=24
67900 Par ch=4 c=11 v=23
67910 Par ch=4 c=11 v=22
67920 Par ch=4 c=11 v=21
67930 Par ch=4 c=11 v=20
67940 Par ch=4 c=11 v=19
67950 Par ch=4 c=11 v=18
67960 Par ch=4 c=11 v=17
67970 Par ch=4 c=11 v=16
67990 Par ch=4 c=11 v=15
68000 Par ch=4 c=11 v=14
68010 Par ch=4 c=11 v=13
68020 Par ch=4 c=11 v=12
68030 Par ch=4 c=11 v=11
68040 Par ch=4 c=11 v=10
68050 Par ch=4 c=11 v=9
68060 Par ch=4 c=11 v=8
68080 Par ch=4 c=11 v=7
68090 Par ch=4 c=11 v=6
68100 Par ch=4 c=11 v=5
68110 Par ch=4 c=11 v=4
68120 Par ch=4 c=11 v=3
68130 Par ch=4 c=11 v=2
68140 Par ch=4 c=11 v=1
68140 Off ch=4 n=26 v=80
68150 Par ch=4 c=11 v=0
69120 Meta TrkEnd
TrkEnd
MTrk
0 Meta TrkName "Nylon-str Gt"
0 Meta 0x20 04
0 Meta InstrName "Nylon-str Gt"
0 KeySig 0 major
360 Par ch=5 c=0 v=0
365 Par ch=5 c=32 v=0
370 PrCh ch=5 p=24
375 Par ch=5 c=7 v=100
380 Par ch=5 c=10 v=64
385 Par ch=5 c=91 v=40
390 Par ch=5 c=93 v=0
395 Par ch=5 c=99 v=1
395 Par ch=5 c=98 v=8
395 Par ch=5 c=6 v=64
400 Par ch=5 c=99 v=1
400 Par ch=5 c=98 v=9
400 Par ch=5 c=6 v=64
405 Par ch=5 c=99 v=1
405 Par ch=5 c=98 v=10
405 Par ch=5 c=6 v=64
410 Par ch=5 c=99 v=1
410 Par ch=5 c=98 v=32
410 Par ch=5 c=6 v=64
415 Par ch=5 c=99 v=1
415 Par ch=5 c=98 v=33
415 Par ch=5 c=6 v=64
420 Par ch=5 c=99 v=1
420 Par ch=5 c=98 v=99
420 Par ch=5 c=6 v=64
425 Par ch=5 c=99 v=1
425 Par ch=5 c=98 v=100
425 Par ch=5 c=6 v=64
430 Par ch=5 c=99 v=1
430 Par ch=5 c=98 v=102
430 Par ch=5 c=6 v=64
18280 On ch=5 n=71 v=100
18520 Off ch=5 n=71 v=100
19000 PrCh ch=5 p=25
19000 On ch=5 n=76 v=127
19120 Off ch=5 n=76 v=127
19480 PrCh ch=5 p=24
19480 On ch=5 n=71 v=120
19640 Off ch=5 n=71 v=120
19960 On ch=5 n=52 v=64
20180 Off ch=5 n=52 v=64
20200 On ch=5 n=71 v=100
20440 Off ch=5 n=71 v=100
20920 PrCh ch=5 p=25
20920 On ch=5 n=76 v=127
21040 Off ch=5 n=76 v=127
21400 PrCh ch=5 p=24
21400 On ch=5 n=71 v=120
21560 Off ch=5 n=71 v=120
21880 On ch=5 n=52 v=64
22100 Off ch=5 n=52 v=64
22120 On ch=5 n=71 v=110
22340 Off ch=5 n=71 v=110
22600 PrCh ch=5 p=25
22600 On ch=5 n=61 v=100
23040 Off ch=5 n=61 v=100
25960 PrCh ch=5 p=24
25960 On ch=5 n=71 v=100
26200 Off ch=5 n=71 v=100
26680 PrCh ch=5 p=25
26680 On ch=5 n=76 v=127
26800 Off ch=5 n=76 v=127
27160 PrCh ch=5 p=24
27160 On ch=5 n=71 v=120
27320 Off ch=5 n=71 v=120
27640 On ch=5 n=52 v=64
27860 Off ch=5 n=52 v=64
27880 On ch=5 n=71 v=100
28120 Off ch=5 n=71 v=100
28600 PrCh ch=5 p=25
28600 On ch=5 n=76 v=127
28720 Off ch=5 n=76 v=127
29080 PrCh ch=5 p=24
29080 On ch=5 n=71 v=120
29240 Off ch=5 n=71 v=120
29560 On ch=5 n=52 v=64
29780 Off ch=5 n=52 v=64
29800 On ch=5 n=71 v=110
30020 Off ch=5 n=71 v=110
30280 PrCh ch=5 p=25
30280 On ch=5 n=61 v=100
30720 Off ch=5 n=61 v=100
69120 Meta TrkEnd
TrkEnd
MTrk
0 Meta TrkName "Strings"
0 Meta 0x20 05
0 Meta InstrName "Strings"
0 KeySig 0 major
435 Par ch=6 c=0 v=0
440 Par ch=6 c=32 v=0
445 PrCh ch=6 p=48
450 Par ch=6 c=7 v=100
455 Par ch=6 c=10 v=64
460 Par ch=6 c=91 v=40
465 Par ch=6 c=93 v=0
470 Par ch=6 c=99 v=1
470 Par ch=6 c=98 v=8
470 Par ch=6 c=6 v=64
475 Par ch=6 c=99 v=1
475 Par ch=6 c=98 v=9
475 Par ch=6 c=6 v=64
480 Par ch=6 c=99 v=1
480 Par ch=6 c=98 v=10
480 Par ch=6 c=6 v=64
485 Par ch=6 c=99 v=1
485 Par ch=6 c=98 v=32
485 Par ch=6 c=6 v=64
490 Par ch=6 c=99 v=1
490 Par ch=6 c=98 v=33
490 Par ch=6 c=6 v=64
495 Par ch=6 c=99 v=1
495 Par ch=6 c=98 v=99
495 Par ch=6 c=6 v=64
500 Par ch=6 c=99 v=1
500 Par ch=6 c=98 v=100
500 Par ch=6 c=6 v=64
505 Par ch=6 c=99 v=1
505 Par ch=6 c=98 v=102
505 Par ch=6 c=6 v=64
2880 On ch=6 n=52 v=72
2880 On ch=6 n=64 v=64
3060 Off ch=6 n=52 v=72
3060 Off ch=6 n=64 v=64
3600 On ch=6 n=54 v=72
3600 On ch=6 n=66 v=72
3780 Off ch=6 n=54 v=72
3780 Off ch=6 n=66 v=72
4320 On ch=6 n=52 v=72
4320 On ch=6 n=64 v=72
4500 Off ch=6 n=52 v=72
4500 Off ch=6 n=64 v=72
4800 On ch=6 n=50 v=72
4800 On ch=6 n=62 v=72
4980 Off ch=6 n=50 v=72
4980 Off ch=6 n=62 v=72
5520 On ch=6 n=52 v=72
5520 On ch=6 n=64 v=72
5700 Off ch=6 n=52 v=72
5700 Off ch=6 n=64 v=72
6240 On ch=6 n=50 v=72
6240 On ch=6 n=62 v=72
6420 Off ch=6 n=50 v=72
6420 Off ch=6 n=62 v=72
6720 On ch=6 n=49 v=72
6720 On ch=6 n=61 v=72
7360 Off ch=6 n=49 v=72
7360 Off ch=6 n=61 v=72
7440 On ch=6 n=50 v=72
7440 On ch=6 n=62 v=72
7620 Off ch=6 n=50 v=72
7620 Off ch=6 n=62 v=72
7680 On ch=6 n=50 v=72
7680 On ch=6 n=62 v=72
10540 Off ch=6 n=50 v=72
10540 Off ch=6 n=62 v=72
10560 On ch=6 n=52 v=72
10560 On ch=6 n=64 v=64
10740 Off ch=6 n=52 v=72
10740 Off ch=6 n=64 v=64
11280 On ch=6 n=54 v=72
11280 On ch=6 n=66 v=72
11460 Off ch=6 n=54 v=72
11460 Off ch=6 n=66 v=72
12000 On ch=6 n=52 v=72
12000 On ch=6 n=64 v=72
12180 Off ch=6 n=52 v=72
12180 Off ch=6 n=64 v=72
12480 On ch=6 n=50 v=72
12480 On ch=6 n=62 v=72
12660 Off ch=6 n=50 v=72
12660 Off ch=6 n=62 v=72
13200 On ch=6 n=52 v=72
13200 On ch=6 n=64 v=72
13380 Off ch=6 n=52 v=72
13380 Off ch=6 n=64 v=72
13920 On ch=6 n=50 v=72
13920 On ch=6 n=62 v=72
14100 Off ch=6 n=50 v=72
14100 Off ch=6 n=62 v=72
14400 On ch=6 n=49 v=72
14400 On ch=6 n=61 v=72
15040 Off ch=6 n=49 v=72
15040 Off ch=6 n=61 v=72
15120 On ch=6 n=50 v=72
15120 On ch=6 n=62 v=72
15300 Off ch=6 n=50 v=72
15300 Off ch=6 n=62 v=72
15360 On ch=6 n=50 v=72
15360 On ch=6 n=62 v=72
18220 Off ch=6 n=50 v=72
18220 Off ch=6 n=62 v=72
18240 On ch=6 n=52 v=72
18240 On ch=6 n=64 v=64
18420 Off ch=6 n=52 v=72
18420 Off ch=6 n=64 v=64
18960 On ch=6 n=54 v=72
18960 On ch=6 n=66 v=72
19140 Off ch=6 n=54 v=72
19140 Off ch=6 n=66 v=72
19680 On ch=6 n=52 v=72
19680 On ch=6 n=64 v=72
19860 Off ch=6 n=52 v=72
19860 Off ch=6 n=64 v=72
20160 On ch=6 n=50 v=72
20160 On ch=6 n=62 v=72
20340 Off ch=6 n=50 v=72
20340 Off ch=6 n=62 v=72
20880 On ch=6 n=52 v=72
20880 On ch=6 n=64 v=72
21060 Off ch=6 n=52 v=72
21060 Off ch=6 n=64 v=72
21600 On ch=6 n=50 v=72
21600 On ch=6 n=62 v=72
21780 Off ch=6 n=50 v=72
21780 Off ch=6 n=62 v=72
22080 On ch=6 n=49 v=72
22080 On ch=6 n=61 v=72
22720 Off ch=6 n=49 v=72
22720 Off ch=6 n=61 v=72
22800 On ch=6 n=50 v=72
22800 On ch=6 n=62 v=72
22980 Off ch=6 n=50 v=72
22980 Off ch=6 n=62 v=72
23040 On ch=6 n=50 v=72
23040 On ch=6 n=62 v=72
25900 Off ch=6 n=50 v=72
25900 Off ch=6 n=62 v=72
25920 On ch=6 n=52 v=72
25920 On ch=6 n=64 v=64
26100 Off ch=6 n=52 v=72
26100 Off ch=6 n=64 v=64
26640 On ch=6 n=54 v=72
26640 On ch=6 n=66 v=72
26820 Off ch=6 n=54 v=72
26820 Off ch=6 n=66 v=72
27360 On ch=6 n=52 v=72
27360 On ch=6 n=64 v=72
27540 Off ch=6 n=52 v=72
27540 Off ch=6 n=64 v=72
27840 On ch=6 n=50 v=72
27840 On ch=6 n=62 v=72
28020 Off ch=6 n=50 v=72
28020 Off ch=6 n=62 v=72
28560 On ch=6 n=52 v=72
28560 On ch=6 n=64 v=72
28740 Off ch=6 n=52 v=72
28740 Off ch=6 n=64 v=72
29280 On ch=6 n=50 v=72
29280 On ch=6 n=62 v=72
29460 Off ch=6 n=50 v=72
29460 Off ch=6 n=62 v=72
29760 On ch=6 n=49 v=72
29760 On ch=6 n=61 v=72
30400 Off ch=6 n=49 v=72
30400 Off ch=6 n=61 v=72
30480 On ch=6 n=50 v=72
30480 On ch=6 n=62 v=72
30660 Off ch=6 n=50 v=72
30660 Off ch=6 n=62 v=72
30720 On ch=6 n=50 v=72
30720 On ch=6 n=62 v=72
33580 Off ch=6 n=50 v=72
33580 Off ch=6 n=62 v=72
56640 On ch=6 n=57 v=72
56640 On ch=6 n=50 v=72
56860 Off ch=6 n=57 v=72
56860 Off ch=6 n=50 v=72
56880 On ch=6 n=57 v=72
56880 On ch=6 n=50 v=72
57100 Off ch=6 n=57 v=72
57100 Off ch=6 n=50 v=72
57120 On ch=6 n=55 v=72
57120 On ch=6 n=48 v=72
57340 Off ch=6 n=55 v=72
57340 Off ch=6 n=48 v=72
57360 On ch=6 n=57 v=72
57360 On ch=6 n=50 v=72
57580 Off ch=6 n=57 v=72
57580 Off ch=6 n=50 v=72
57840 On ch=6 n=50 v=72
66240 Par ch=6 c=11 v=127
66740 Par ch=6 c=11 v=126
66750 Par ch=6 c=11 v=125
66760 Par ch=6 c=11 v=124
66770 Par ch=6 c=11 v=123
66780 Par ch=6 c=11 v=122
66790 Par ch=6 c=11 v=121
66800 Par ch=6 c=11 v=120
66820 Par ch=6 c=11 v=119
66830 Par ch=6 c=11 v=118
66840 Par ch=6 c=11 v=117
66850 Par ch=6 c=11 v=116
66860 Par ch=6 c=11 v=115
66870 Par ch=6 c=11 v=114
66880 Par ch=6 c=11 v=113
66890 Par ch=6 c=11 v=112
66910 Par ch=6 c=11 v=111
66920 Par ch=6 c=11 v=110
66930 Par ch=6 c=11 v=109
66940 Par ch=6 c=11 v=108
66950 Par ch=6 c=11 v=107
66960 Par ch=6 c=11 v=106
66970 Par ch=6 c=11 v=105
66980 Par ch=6 c=11 v=104
67000 Par ch=6 c=11 v=103
67010 Par ch=6 c=11 v=102
67020 Par ch=6 c=11 v=101
67030 Par ch=6 c=11 v=100
67040 Par ch=6 c=11 v=99
67050 Par ch=6 c=11 v=98
67060 Par ch=6 c=11 v=97
67070 Par ch=6 c=11 v=96
67090 Par ch=6 c=11 v=95
67100 Par ch=6 c=11 v=94
67110 Par ch=6 c=11 v=93
67120 Par ch=6 c=11 v=92
67130 Par ch=6 c=11 v=91
67140 Par ch=6 c=11 v=90
67150 Par ch=6 c=11 v=89
67160 Par ch=6 c=11 v=88
67180 Par ch=6 c=11 v=87
67190 Par ch=6 c=11 v=86
67200 Par ch=6 c=11 v=85
67210 Par ch=6 c=11 v=84
67220 Par ch=6 c=11 v=83
67230 Par ch=6 c=11 v=82
67240 Par ch=6 c=11 v=81
67250 Par ch=6 c=11 v=80
67270 Par ch=6 c=11 v=79
67280 Par ch=6 c=11 v=78
67290 Par ch=6 c=11 v=77
67300 Par ch=6 c=11 v=76
67310 Par ch=6 c=11 v=75
67320 Par ch=6 c=11 v=74
67330 Par ch=6 c=11 v=73
67340 Par ch=6 c=11 v=72
67360 Par ch=6 c=11 v=71
67370 Par ch=6 c=11 v=70
67380 Par ch=6 c=11 v=69
67390 Par ch=6 c=11 v=68
67400 Par ch=6 c=11 v=67
67410 Par ch=6 c=11 v=66
67420 Par ch=6 c=11 v=65
67430 Par ch=6 c=11 v=64
67450 Par ch=6 c=11 v=63
67460 Par ch=6 c=11 v=62
67470 Par ch=6 c=11 v=61
67480 Par ch=6 c=11 v=60
67490 Par ch=6 c=11 v=59
67500 Par ch=6 c=11 v=58
67510 Par ch=6 c=11 v=57
67520 Par ch=6 c=11 v=56
67540 Par ch=6 c=11 v=55
67550 Par ch=6 c=11 v=54
67560 Par ch=6 c=11 v=53
67570 Par ch=6 c=11 v=52
67580 Par ch=6 c=11 v=51
67590 Par ch=6 c=11 v=50
67600 Par ch=6 c=11 v=49
67610 Par ch=6 c=11 v=48
67630 Par ch=6 c=11 v=47
67640 Par ch=6 c=11 v=46
67650 Par ch=6 c=11 v=45
67660 Par ch=6 c=11 v=44
67670 Par ch=6 c=11 v=43
67680 Par ch=6 c=11 v=42
67690 Par ch=6 c=11 v=41
67700 Par ch=6 c=11 v=40
67720 Par ch=6 c=11 v=39
67730 Par ch=6 c=11 v=38
67740 Par ch=6 c=11 v=37
67750 Par ch=6 c=11 v=36
67760 Par ch=6 c=11 v=35
67770 Par ch=6 c=11 v=34
67780 Par ch=6 c=11 v=33
67790 Par ch=6 c=11 v=32
67810 Par ch=6 c=11 v=31
67820 Par ch=6 c=11 v=30
67830 Par ch=6 c=11 v=29
67840 Par ch=6 c=11 v=28
67850 Par ch=6 c=11 v=27
67860 Par ch=6 c=11 v=26
67870 Par ch=6 c=11 v=25
67880 Par ch=6 c=11 v=24
67900 Par ch=6 c=11 v=23
67910 Par ch=6 c=11 v=22
67920 Par ch=6 c=11 v=21
67930 Par ch=6 c=11 v=20
67940 Par ch=6 c=11 v=19
67950 Par ch=6 c=11 v=18
67960 Par ch=6 c=11 v=17
67970 Par ch=6 c=11 v=16
67990 Par ch=6 c=11 v=15
68000 Par ch=6 c=11 v=14
68010 Par ch=6 c=11 v=13
68020 Par ch=6 c=11 v=12
68030 Par ch=6 c=11 v=11
68040 Par ch=6 c=11 v=10
68050 Par ch=6 c=11 v=9
68060 Par ch=6 c=11 v=8
68080 Par ch=6 c=11 v=7
68090 Par ch=6 c=11 v=6
68100 Par ch=6 c=11 v=5
68110 Par ch=6 c=11 v=4
68120 Par ch=6 c=11 v=3
68130 Par ch=6 c=11 v=2
68140 Par ch=6 c=11 v=1
68140 Off ch=6 n=50 v=72
68150 Par ch=6 c=11 v=0
69120 Meta TrkEnd
TrkEnd
MTrk
0 Meta TrkName "Flute"
0 Meta 0x20 06
0 Meta InstrName "Flute"
0 KeySig 0 major
510 Par ch=7 c=0 v=0
515 Par ch=7 c=32 v=0
520 PrCh ch=7 p=73
525 Par ch=7 c=7 v=100
530 Par ch=7 c=10 v=64
535 Par ch=7 c=91 v=40
540 Par ch=7 c=93 v=0
545 Par ch=7 c=99 v=1
545 Par ch=7 c=98 v=8
545 Par ch=7 c=6 v=64
550 Par ch=7 c=99 v=1
550 Par ch=7 c=98 v=9
550 Par ch=7 c=6 v=64
555 Par ch=7 c=99 v=1
555 Par ch=7 c=98 v=10
555 Par ch=7 c=6 v=64
560 Par ch=7 c=99 v=1
560 Par ch=7 c=98 v=32
560 Par ch=7 c=6 v=64
565 Par ch=7 c=99 v=1
565 Par ch=7 c=98 v=33
565 Par ch=7 c=6 v=64
570 Par ch=7 c=99 v=1
570 Par ch=7 c=98 v=99
570 Par ch=7 c=6 v=64
575 Par ch=7 c=99 v=1
575 Par ch=7 c=98 v=100
575 Par ch=7 c=6 v=64
580 Par ch=7 c=99 v=1
580 Par ch=7 c=98 v=102
580 Par ch=7 c=6 v=64
33630 On ch=7 n=77 v=80
34310 Off ch=7 n=77 v=80
34350 On ch=7 n=79 v=80
35030 Off ch=7 n=79 v=80
35070 On ch=7 n=77 v=80
35520 Off ch=7 n=77 v=80
35550 On ch=7 n=76 v=80
36230 Off ch=7 n=76 v=80
36270 On ch=7 n=77 v=80
36950 Off ch=7 n=77 v=80
36990 On ch=7 n=76 v=80
37440 Off ch=7 n=76 v=80
37470 On ch=7 n=72 v=80
38150 Off ch=7 n=72 v=80
38190 On ch=7 n=74 v=80
38400 Off ch=7 n=74 v=80
38430 On ch=7 n=74 v=80
41290 Off ch=7 n=74 v=80
41310 On ch=7 n=77 v=80
41990 Off ch=7 n=77 v=80
42030 On ch=7 n=79 v=80
42710 Off ch=7 n=79 v=80
42750 On ch=7 n=77 v=80
43200 Off ch=7 n=77 v=80
43230 On ch=7 n=76 v=80
43910 Off ch=7 n=76 v=80
43950 On ch=7 n=77 v=80
44630 Off ch=7 n=77 v=80
44670 On ch=7 n=76 v=80
45120 Off ch=7 n=76 v=80
45150 On ch=7 n=72 v=80
45830 Off ch=7 n=72 v=80
45870 On ch=7 n=74 v=80
46080 Off ch=7 n=74 v=80
46110 On ch=7 n=74 v=80
48970 Off ch=7 n=74 v=80
48990 On ch=7 n=77 v=80
49670 Off ch=7 n=77 v=80
49710 On ch=7 n=79 v=80
50390 Off ch=7 n=79 v=80
50430 On ch=7 n=77 v=80
50880 Off ch=7 n=77 v=80
50910 On ch=7 n=76 v=80
51590 Off ch=7 n=76 v=80
51630 On ch=7 n=77 v=80
52310 Off ch=7 n=77 v=80
52350 On ch=7 n=79 v=80
52800 Off ch=7 n=79 v=80
52830 On ch=7 n=81 v=80
53510 Off ch=7 n=81 v=80
53550 On ch=7 n=82 v=80
54230 Off ch=7 n=82 v=80
54270 On ch=7 n=81 v=80
54720 Off ch=7 n=81 v=80
54750 On ch=7 n=77 v=80
56650 Off ch=7 n=77 v=80
56670 On ch=7 n=77 v=64
56890 Off ch=7 n=77 v=64
56910 On ch=7 n=77 v=64
57130 Off ch=7 n=77 v=64
57150 On ch=7 n=76 v=64
57370 Off ch=7 n=76 v=64
57390 On ch=7 n=77 v=64
57600 Off ch=7 n=77 v=64
57870 On ch=7 n=74 v=64
60490 Off ch=7 n=74 v=64
69120 Meta TrkEnd
TrkEnd
MTrk
0 Meta TrkName "Voice Oohs"
0 Meta 0x20 07
0 Meta InstrName "Voice Oohs"
0 KeySig 0 major
585 Par ch=8 c=0 v=0
590 Par ch=8 c=32 v=0
595 PrCh ch=8 p=53
600 Par ch=8 c=7 v=100
605 Par ch=8 c=10 v=64
610 Par ch=8 c=91 v=40
615 Par ch=8 c=93 v=0
620 Par ch=8 c=99 v=1
620 Par ch=8 c=98 v=8
620 Par ch=8 c=6 v=64
625 Par ch=8 c=99 v=1
625 Par ch=8 c=98 v=9
625 Par ch=8 c=6 v=64
630 Par ch=8 c=99 v=1
630 Par ch=8 c=98 v=10
630 Par ch=8 c=6 v=64
635 Par ch=8 c=99 v=1
635 Par ch=8 c=98 v=32
635 Par ch=8 c=6 v=64
640 Par ch=8 c=99 v=1
640 Par ch=8 c=98 v=33
640 Par ch=8 c=6 v=64
645 Par ch=8 c=99 v=1
645 Par ch=8 c=98 v=99
645 Par ch=8 c=6 v=64
650 Par ch=8 c=99 v=1
650 Par ch=8 c=98 v=100
650 Par ch=8 c=6 v=64
655 Par ch=8 c=99 v=1
655 Par ch=8 c=98 v=102
655 Par ch=8 c=6 v=64
33640 On ch=8 n=65 v=96
34240 Off ch=8 n=65 v=96
34360 On ch=8 n=67 v=96
35040 Off ch=8 n=67 v=96
35080 On ch=8 n=65 v=80
35480 Off ch=8 n=65 v=80
35560 On ch=8 n=64 v=96
36160 Off ch=8 n=64 v=96
36280 On ch=8 n=65 v=96
36960 Off ch=8 n=65 v=96
37000 On ch=8 n=64 v=80
37400 Off ch=8 n=64 v=80
37480 On ch=8 n=60 v=86
38080 Off ch=8 n=60 v=86
38200 On ch=8 n=62 v=96
38320 Off ch=8 n=62 v=96
38440 On ch=8 n=62 v=96
41300 Off ch=8 n=62 v=96
41320 On ch=8 n=65 v=96
41920 Off ch=8 n=65 v=96
42040 On ch=8 n=67 v=96
42720 Off ch=8 n=67 v=96
42760 On ch=8 n=65 v=80
43160 Off ch=8 n=65 v=80
43240 On ch=8 n=64 v=96
43840 Off ch=8 n=64 v=96
43960 On ch=8 n=65 v=96
44640 Off ch=8 n=65 v=96
44680 On ch=8 n=64 v=80
45080 Off ch=8 n=64 v=80
45160 On ch=8 n=60 v=86
45760 Off ch=8 n=60 v=86
45880 On ch=8 n=62 v=96
46000 Off ch=8 n=62 v=96
46120 On ch=8 n=62 v=96
48980 Off ch=8 n=62 v=96
49000 On ch=8 n=65 v=96
49600 Off ch=8 n=65 v=96
49720 On ch=8 n=67 v=96
50400 Off ch=8 n=67 v=96
50440 On ch=8 n=65 v=80
50840 Off ch=8 n=65 v=80
50920 On ch=8 n=64 v=96
51520 Off ch=8 n=64 v=96
51640 On ch=8 n=65 v=96
52320 Off ch=8 n=65 v=96
52360 On ch=8 n=67 v=80
52760 Off ch=8 n=67 v=80
52840 On ch=8 n=69 v=86
53440 Off ch=8 n=69 v=86
53560 On ch=8 n=70 v=96
54240 Off ch=8 n=70 v=96
54280 On ch=8 n=69 v=86
54680 Off ch=8 n=69 v=86
54760 On ch=8 n=65 v=96
56660 Off ch=8 n=65 v=96
56680 On ch=8 n=65 v=96
56820 Off ch=8 n=65 v=96
56920 On ch=8 n=65 v=96
57060 Off ch=8 n=65 v=96
57160 On ch=8 n=64 v=86
57300 Off ch=8 n=64 v=86
57400 On ch=8 n=65 v=96
57520 Off ch=8 n=65 v=96
57880 On ch=8 n=62 v=96
60500 Off ch=8 n=62 v=96
69120 Meta TrkEnd
TrkEnd
MTrk
0 Meta TrkName "Timpani"
0 Meta 0x20 08
0 Meta InstrName "Timpani"
0 KeySig 0 major
660 Par ch=9 c=0 v=0
665 Par ch=9 c=32 v=0
670 PrCh ch=9 p=47
675 Par ch=9 c=7 v=100
680 Par ch=9 c=10 v=64
685 Par ch=9 c=91 v=40
690 Par ch=9 c=93 v=0
695 Par ch=9 c=99 v=1
695 Par ch=9 c=98 v=8
695 Par ch=9 c=6 v=64
700 Par ch=9 c=99 v=1
700 Par ch=9 c=98 v=9
700 Par ch=9 c=6 v=64
705 Par ch=9 c=99 v=1
705 Par ch=9 c=98 v=10
705 Par ch=9 c=6 v=64
710 Par ch=9 c=99 v=1
710 Par ch=9 c=98 v=32
710 Par ch=9 c=6 v=64
715 Par ch=9 c=99 v=1
715 Par ch=9 c=98 v=33
715 Par ch=9 c=6 v=64
720 Par ch=9 c=99 v=1
720 Par ch=9 c=98 v=99
720 Par ch=9 c=6 v=64
725 Par ch=9 c=99 v=1
725 Par ch=9 c=98 v=100
725 Par ch=9 c=6 v=64
730 Par ch=9 c=99 v=1
730 Par ch=9 c=98 v=102
730 Par ch=9 c=6 v=64
2450 On ch=9 n=47 v=96
2670 Off ch=9 n=47 v=96
2690 On ch=9 n=40 v=96
2910 Off ch=9 n=40 v=96
10130 On ch=9 n=47 v=96
10350 Off ch=9 n=47 v=96
10370 On ch=9 n=40 v=96
10590 Off ch=9 n=40 v=96
17810 On ch=9 n=47 v=96
18030 Off ch=9 n=47 v=96
18050 On ch=9 n=40 v=96
18270 Off ch=9 n=40 v=96
25490 On ch=9 n=47 v=96
25710 Off ch=9 n=47 v=96
25730 On ch=9 n=40 v=96
25950 Off ch=9 n=40 v=96
60530 Par ch=9 c=7 v=127
60530 Par ch=9 c=99 v=1
60530 Par ch=9 c=98 v=100
60530 Par ch=9 c=6 v=80
62410 On ch=9 n=38 v=96
66270 Off ch=9 n=38 v=96
69120 Meta TrkEnd
TrkEnd
MTrk
0 Meta TrkName "M #10"
0 Meta 0x20 09
0 Meta InstrName "M #10"
0 KeySig 0 major
735 PrCh ch=10 p=48
740 Par ch=10 c=91 v=100
8440 On ch=10 n=38 v=50
8450 Off ch=10 n=38 v=50
8520 On ch=10 n=38 v=64
8530 Off ch=10 n=38 v=64
8600 On ch=10 n=38 v=64
8610 Off ch=10 n=38 v=64
8680 On ch=10 n=38 v=64
8690 Off ch=10 n=38 v=64
16120 On ch=10 n=38 v=50
16130 Off ch=10 n=38 v=50
16200 On ch=10 n=38 v=64
16210 Off ch=10 n=38 v=64
16280 On ch=10 n=38 v=64
16290 Off ch=10 n=38 v=64
16360 On ch=10 n=38 v=64
16370 Off ch=10 n=38 v=64
23800 On ch=10 n=38 v=50
23810 Off ch=10 n=38 v=50
23880 On ch=10 n=38 v=64
23890 Off ch=10 n=38 v=64
23960 On ch=10 n=38 v=64
23970 Off ch=10 n=38 v=64
24040 On ch=10 n=38 v=64
24050 Off ch=10 n=38 v=64
31480 On ch=10 n=38 v=50
31490 Off ch=10 n=38 v=50
31560 On ch=10 n=38 v=64
31570 Off ch=10 n=38 v=64
31640 On ch=10 n=38 v=64
31650 Off ch=10 n=38 v=64
31720 On ch=10 n=38 v=64
31730 Off ch=10 n=38 v=64
69120 Meta TrkEnd
TrkEnd
MTrk
0 Meta TrkName "Piano 3"
0 Meta 0x20 0a
0 Meta InstrName "Piano 3"
0 KeySig 0 major
745 Par ch=11 c=0 v=0
750 Par ch=11 c=32 v=0
755 PrCh ch=11 p=2
760 Par ch=11 c=7 v=100
765 Par ch=11 c=10 v=64
770 Par ch=11 c=91 v=40
775 Par ch=11 c=93 v=0
780 Par ch=11 c=99 v=1
780 Par ch=11 c=98 v=8
780 Par ch=11 c=6 v=64
785 Par ch=11 c=99 v=1
785 Par ch=11 c=98 v=9
785 Par ch=11 c=6 v=64
790 Par ch=11 c=99 v=1
790 Par ch=11 c=98 v=10
790 Par ch=11 c=6 v=64
795 Par ch=11 c=99 v=1
795 Par ch=11 c=98 v=32
795 Par ch=11 c=6 v=64
800 Par ch=11 c=99 v=1
800 Par ch=11 c=98 v=33
800 Par ch=11 c=6 v=64
805 Par ch=11 c=99 v=1
805 Par ch=11 c=98 v=99
805 Par ch=11 c=6 v=64
810 Par ch=11 c=99 v=1
810 Par ch=11 c=98 v=100
810 Par ch=11 c=6 v=64
815 Par ch=11 c=99 v=1
815 Par ch=11 c=98 v=102
815 Par ch=11 c=6 v=64
2920 On ch=11 n=52 v=80
2920 On ch=11 n=40 v=80
3140 Off ch=11 n=52 v=80
3140 Off ch=11 n=40 v=80
3880 On ch=11 n=52 v=80
3880 On ch=11 n=40 v=80
4330 Off ch=11 n=52 v=80
4330 Off ch=11 n=40 v=80
4840 On ch=11 n=52 v=80
4840 On ch=11 n=40 v=80
5060 Off ch=11 n=52 v=80
5060 Off ch=11 n=40 v=80
5800 On ch=11 n=52 v=80
5800 On ch=11 n=40 v=80
6250 Off ch=11 n=52 v=80
6250 Off ch=11 n=40 v=80
6760 On ch=11 n=52 v=80
6760 On ch=11 n=40 v=80
6980 Off ch=11 n=52 v=80
6980 Off ch=11 n=40 v=80
7720 On ch=11 n=52 v=80
7720 On ch=11 n=40 v=80
8170 Off ch=11 n=52 v=80
8170 Off ch=11 n=40 v=80
8680 On ch=11 n=52 v=80
8680 On ch=11 n=40 v=80
8900 Off ch=11 n=52 v=80
8900 Off ch=11 n=40 v=80
9640 On ch=11 n=52 v=80
9640 On ch=11 n=40 v=80
10090 Off ch=11 n=52 v=80
10090 Off ch=11 n=40 v=80
10600 On ch=11 n=52 v=80
10600 On ch=11 n=40 v=80
10820 Off ch=11 n=52 v=80
10820 Off ch=11 n=40 v=80
11560 On ch=11 n=52 v=80
11560 On ch=11 n=40 v=80
12010 Off ch=11 n=52 v=80
12010 Off ch=11 n=40 v=80
12520 On ch=11 n=52 v=80
12520 On ch=11 n=40 v=80
12740 Off ch=11 n=52 v=80
12740 Off ch=11 n=40 v=80
13480 On ch=11 n=52 v=80
13480 On ch=11 n=40 v=80
13930 Off ch=11 n=52 v=80
13930 Off ch=11 n=40 v=80
14440 On ch=11 n=52 v=80
14440 On ch=11 n=40 v=80
14660 Off ch=11 n=52 v=80
14660 Off ch=11 n=40 v=80
15400 On ch=11 n=52 v=80
15400 On ch=11 n=40 v=80
15850 Off ch=11 n=52 v=80
15850 Off ch=11 n=40 v=80
16360 On ch=11 n=52 v=80
16360 On ch=11 n=40 v=80
16580 Off ch=11 n=52 v=80
16580 Off ch=11 n=40 v=80
17320 On ch=11 n=52 v=80
17320 On ch=11 n=40 v=80
17770 Off ch=11 n=52 v=80
17770 Off ch=11 n=40 v=80
18280 On ch=11 n=52 v=80
18280 On ch=11 n=40 v=80
18500 Off ch=11 n=52 v=80
18500 Off ch=11 n=40 v=80
19240 On ch=11 n=52 v=80
19240 On ch=11 n=40 v=80
19690 Off ch=11 n=52 v=80
19690 Off ch=11 n=40 v=80
20200 On ch=11 n=52 v=80
20200 On ch=11 n=40 v=80
20420 Off ch=11 n=52 v=80
20420 Off ch=11 n=40 v=80
21160 On ch=11 n=52 v=80
21160 On ch=11 n=40 v=80
21610 Off ch=11 n=52 v=80
21610 Off ch=11 n=40 v=80
22120 On ch=11 n=52 v=80
22120 On ch=11 n=40 v=80
22340 Off ch=11 n=52 v=80
22340 Off ch=11 n=40 v=80
23080 On ch=11 n=52 v=80
23080 On ch=11 n=40 v=80
23530 Off ch=11 n=52 v=80
23530 Off ch=11 n=40 v=80
24040 On ch=11 n=52 v=80
24040 On ch=11 n=40 v=80
24260 Off ch=11 n=52 v=80
24260 Off ch=11 n=40 v=80
25000 On ch=11 n=52 v=80
25000 On ch=11 n=40 v=80
25450 Off ch=11 n=52 v=80
25450 Off ch=11 n=40 v=80
25960 On ch=11 n=52 v=80
25960 On ch=11 n=40 v=80
26180 Off ch=11 n=52 v=80
26180 Off ch=11 n=40 v=80
26920 On ch=11 n=52 v=80
26920 On ch=11 n=40 v=80
27370 Off ch=11 n=52 v=80
27370 Off ch=11 n=40 v=80
27880 On ch=11 n=52 v=80
27880 On ch=11 n=40 v=80
28100 Off ch=11 n=52 v=80
28100 Off ch=11 n=40 v=80
28840 On ch=11 n=52 v=80
28840 On ch=11 n=40 v=80
29290 Off ch=11 n=52 v=80
29290 Off ch=11 n=40 v=80
29800 On ch=11 n=52 v=80
29800 On ch=11 n=40 v=80
30020 Off ch=11 n=52 v=80
30020 Off ch=11 n=40 v=80
30760 On ch=11 n=52 v=80
30760 On ch=11 n=40 v=80
31210 Off ch=11 n=52 v=80
31210 Off ch=11 n=40 v=80
31720 On ch=11 n=52 v=80
31720 On ch=11 n=40 v=80
31940 Off ch=11 n=52 v=80
31940 Off ch=11 n=40 v=80
32680 On ch=11 n=52 v=80
32680 On ch=11 n=40 v=80
33130 Off ch=11 n=52 v=80
33130 Off ch=11 n=40 v=80
56680 PrCh ch=11 p=1
56680 On ch=11 n=50 v=80
56680 On ch=11 n=38 v=80
56900 Off ch=11 n=50 v=80
56900 Off ch=11 n=38 v=80
56920 On ch=11 n=50 v=80
56920 On ch=11 n=38 v=80
57140 Off ch=11 n=50 v=80
57140 Off ch=11 n=38 v=80
57160 On ch=11 n=48 v=80
57160 On ch=11 n=36 v=80
57380 Off ch=11 n=48 v=80
57380 Off ch=11 n=36 v=80
57400 On ch=11 n=50 v=80
57400 On ch=11 n=38 v=80
57600 Off ch=11 n=50 v=80
57600 Off ch=11 n=38 v=80
57880 On ch=11 n=38 v=80
57880 On ch=11 n=26 v=80
60500 Off ch=11 n=38 v=80
60500 Off ch=11 n=26 v=80
69120 Meta TrkEnd
TrkEnd
MTrk
0 Meta TrkName "Cello"
0 Meta 0x20 0b
0 Meta InstrName "Cello"
0 KeySig 0 major
820 Par ch=12 c=0 v=0
825 Par ch=12 c=32 v=0
830 PrCh ch=12 p=42
835 Par ch=12 c=7 v=100
840 Par ch=12 c=10 v=64
845 Par ch=12 c=91 v=40
850 Par ch=12 c=93 v=0
855 Par ch=12 c=99 v=1
855 Par ch=12 c=98 v=8
855 Par ch=12 c=6 v=64
860 Par ch=12 c=99 v=1
860 Par ch=12 c=98 v=9
860 Par ch=12 c=6 v=64
865 Par ch=12 c=99 v=1
865 Par ch=12 c=98 v=10
865 Par ch=12 c=6 v=64
870 Par ch=12 c=99 v=1
870 Par ch=12 c=98 v=32
870 Par ch=12 c=6 v=64
875 Par ch=12 c=99 v=1
875 Par ch=12 c=98 v=33
875 Par ch=12 c=6 v=64
880 Par ch=12 c=99 v=1
880 Par ch=12 c=98 v=99
880 Par ch=12 c=6 v=64
885 Par ch=12 c=99 v=1
885 Par ch=12 c=98 v=100
885 Par ch=12 c=6 v=64
890 Par ch=12 c=99 v=1
890 Par ch=12 c=98 v=102
890 Par ch=12 c=6 v=64
60720 On ch=12 n=81 v=80
61660 Off ch=12 n=81 v=80
61680 On ch=12 n=74 v=64
61900 Off ch=12 n=74 v=64
61920 On ch=12 n=77 v=72
62140 Off ch=12 n=77 v=72
62160 On ch=12 n=72 v=64
62380 Off ch=12 n=72 v=64
62400 On ch=12 n=74 v=64
62620 Off ch=12 n=74 v=64
62640 On ch=12 n=69 v=64
62860 Off ch=12 n=69 v=64
62880 On ch=12 n=72 v=64
63100 Off ch=12 n=72 v=64
63120 On ch=12 n=67 v=64
63340 Off ch=12 n=67 v=64
63360 On ch=12 n=69 v=64
63580 Off ch=12 n=69 v=64
63600 On ch=12 n=62 v=64
63820 Off ch=12 n=62 v=64
63840 On ch=12 n=64 v=64
64000 Off ch=12 n=64 v=64
64010 On ch=12 n=62 v=64
64095 Off ch=12 n=62 v=64
64105 On ch=12 n=64 v=60
64195 Off ch=12 n=64 v=60
64200 On ch=12 n=62 v=64
64250 Off ch=12 n=62 v=64
64260 On ch=12 n=64 v=60
64310 Off ch=12 n=64 v=60
64320 On ch=12 n=62 v=64
64350 Off ch=12 n=62 v=64
64360 On ch=12 n=64 v=60
64390 Off ch=12 n=64 v=60
64400 On ch=12 n=62 v=64
64430 Off ch=12 n=62 v=64
64440 On ch=12 n=64 v=60
64470 Off ch=12 n=64 v=60
64480 On ch=12 n=62 v=64
64510 Off ch=12 n=62 v=64
64520 On ch=12 n=64 v=60
64550 Off ch=12 n=64 v=60
64560 On ch=12 n=62 v=64
64590 Off ch=12 n=62 v=64
64600 On ch=12 n=64 v=60
64630 Off ch=12 n=64 v=60
64640 On ch=12 n=62 v=64
64670 Off ch=12 n=62 v=64
64680 On ch=12 n=64 v=60
64710 Off ch=12 n=64 v=60
64720 On ch=12 n=62 v=64
64750 Off ch=12 n=62 v=64
64760 On ch=12 n=64 v=60
64790 Off ch=12 n=64 v=60
64800 On ch=12 n=62 v=64
65020 Off ch=12 n=62 v=64
65040 On ch=12 n=57 v=64
66237 On ch=12 n=50 v=67
66240 Par ch=12 c=11 v=127
66740 Par ch=12 c=11 v=126
66750 Par ch=12 c=11 v=125
66760 Par ch=12 c=11 v=124
66770 Par ch=12 c=11 v=123
66780 Par ch=12 c=11 v=122
66790 Par ch=12 c=11 v=121
66800 Par ch=12 c=11 v=120
66820 Par ch=12 c=11 v=119
66830 Par ch=12 c=11 v=118
66840 Par ch=12 c=11 v=117
66850 Par ch=12 c=11 v=116
66860 Par ch=12 c=11 v=115
66870 Par ch=12 c=11 v=114
66880 Par ch=12 c=11 v=113
66890 Par ch=12 c=11 v=112
66910 Par ch=12 c=11 v=111
66920 Par ch=12 c=11 v=110
66930 Par ch=12 c=11 v=109
66940 Par ch=12 c=11 v=108
66950 Par ch=12 c=11 v=107
66960 Par ch=12 c=11 v=106
66970 Par ch=12 c=11 v=105
66980 Par ch=12 c=11 v=104
67000 Par ch=12 c=11 v=103
67010 Par ch=12 c=11 v=102
67020 Par ch=12 c=11 v=101
67030 Par ch=12 c=11 v=100
67040 Par ch=12 c=11 v=99
67050 Par ch=12 c=11 v=98
67060 Par ch=12 c=11 v=97
67070 Par ch=12 c=11 v=96
67090 Par ch=12 c=11 v=95
67100 Par ch=12 c=11 v=94
67110 Par ch=12 c=11 v=93
67120 Par ch=12 c=11 v=92
67130 Par ch=12 c=11 v=91
67140 Par ch=12 c=11 v=90
67150 Par ch=12 c=11 v=89
67160 Par ch=12 c=11 v=88
67180 Par ch=12 c=11 v=87
67190 Par ch=12 c=11 v=86
67200 Par ch=12 c=11 v=85
67210 Par ch=12 c=11 v=84
67220 Par ch=12 c=11 v=83
67230 Par ch=12 c=11 v=82
67240 Par ch=12 c=11 v=81
67250 Par ch=12 c=11 v=80
67270 Par ch=12 c=11 v=79
67280 Par ch=12 c=11 v=78
67290 Par ch=12 c=11 v=77
67300 Par ch=12 c=11 v=76
67310 Par ch=12 c=11 v=75
67320 Par ch=12 c=11 v=74
67330 Par ch=12 c=11 v=73
67340 Par ch=12 c=11 v=72
67360 Par ch=12 c=11 v=71
67370 Par ch=12 c=11 v=70
67380 Par ch=12 c=11 v=69
67390 Par ch=12 c=11 v=68
67400 Par ch=12 c=11 v=67
67410 Par ch=12 c=11 v=66
67420 Par ch=12 c=11 v=65
67430 Par ch=12 c=11 v=64
67450 Par ch=12 c=11 v=63
67460 Par ch=12 c=11 v=62
67470 Par ch=12 c=11 v=61
67480 Par ch=12 c=11 v=60
67490 Par ch=12 c=11 v=59
67500 Par ch=12 c=11 v=58
67510 Par ch=12 c=11 v=57
67520 Par ch=12 c=11 v=56
67540 Par ch=12 c=11 v=55
67550 Par ch=12 c=11 v=54
67560 Par ch=12 c=11 v=53
67570 Par ch=12 c=11 v=52
67580 Par ch=12 c=11 v=51
67590 Par ch=12 c=11 v=50
67600 Par ch=12 c=11 v=49
67610 Par ch=12 c=11 v=48
67630 Par ch=12 c=11 v=47
67640 Par ch=12 c=11 v=46
67650 Par ch=12 c=11 v=45
67660 Par ch=12 c=11 v=44
67670 Par ch=12 c=11 v=43
67680 Par ch=12 c=11 v=42
67690 Par ch=12 c=11 v=41
67700 Par ch=12 c=11 v=40
67720 Par ch=12 c=11 v=39
67730 Par ch=12 c=11 v=38
67740 Par ch=12 c=11 v=37
67750 Par ch=12 c=11 v=36
67760 Par ch=12 c=11 v=35
67770 Par ch=12 c=11 v=34
67780 Par ch=12 c=11 v=33
67790 Par ch=12 c=11 v=32
67810 Par ch=12 c=11 v=31
67820 Par ch=12 c=11 v=30
67830 Par ch=12 c=11 v=29
67840 Par ch=12 c=11 v=28
67850 Par ch=12 c=11 v=27
67860 Par ch=12 c=11 v=26
67870 Par ch=12 c=11 v=25
67880 Par ch=12 c=11 v=24
67900 Par ch=12 c=11 v=23
67910 Par ch=12 c=11 v=22
67920 Par ch=12 c=11 v=21
67930 Par ch=12 c=11 v=20
67940 Par ch=12 c=11 v=19
67950 Par ch=12 c=11 v=18
67960 Par ch=12 c=11 v=17
67970 Par ch=12 c=11 v=16
67990 Par ch=12 c=11 v=15
68000 Par ch=12 c=11 v=14
68010 Par ch=12 c=11 v=13
68020 Par ch=12 c=11 v=12
68030 Par ch=12 c=11 v=11
68040 Par ch=12 c=11 v=10
68050 Par ch=12 c=11 v=9
68060 Par ch=12 c=11 v=8
68080 Par ch=12 c=11 v=7
68090 Par ch=12 c=11 v=6
68100 Par ch=12 c=11 v=5
68110 Par ch=12 c=11 v=4
68120 Par ch=12 c=11 v=3
68130 Par ch=12 c=11 v=2
68132 Off ch=12 n=50 v=67
68140 Par ch=12 c=11 v=1
68140 Off ch=12 n=57 v=64
68150 Par ch=12 c=11 v=0
69120 Meta TrkEnd
TrkEnd
