MFile 1 11 96
MTrk
0 Meta SeqName "All Good People-Your Move"
0 TimeSig 4/4 24 8
0 Tempo 500000
0 SysEx f0 41 10 16 12 7f 00 00 00 01 f7
0 SysEx f0 41 10 42 12 40 00 7f 00 41 f7
96 SysEx f0 41 10 16 12 10 00 16 4b 0f f7
96 SysEx f0 41 10 16 12 52 00 10 4b 53 f7
96 SysEx f0 41 10 42 12 40 00 04 5f 5d f7
97 SysEx f0 41 10 16 12 10 00 00 40 30 f7
97 SysEx f0 41 10 16 12 52 00 00 38 40 f7
97 SysEx f0 41 10 42 12 40 00 00 00 04 00 00 3c f7
98 SysEx f0 41 10 42 12 40 11 02 00 2d f7
99 SysEx f0 41 10 16 12 10 00 0d 10 53 f7
99 SysEx f0 41 10 42 12 40 12 02 01 2b f7
100 SysEx f0 41 10 16 12 10 00 0e 10 52 f7
100 SysEx f0 41 10 42 12 40 13 02 02 29 f7
101 SysEx f0 41 10 16 12 10 00 0f 10 51 f7
101 SysEx f0 41 10 16 12 52 00 0f 10 0f f7
101 SysEx f0 41 10 42 12 40 14 02 03 27 f7
102 SysEx f0 41 10 16 12 10 00 10 10 50 f7
102 SysEx f0 41 10 16 12 52 00 0e 10 10 f7
102 SysEx f0 41 10 42 12 40 15 02 04 25 f7
103 SysEx f0 41 10 16 12 10 00 11 10 4f f7
103 SysEx f0 41 10 16 12 52 00 0d 10 11 f7
103 SysEx f0 41 10 42 12 40 16 02 05 23 f7
104 SysEx f0 41 10 16 12 10 00 12 10 4e f7
104 SysEx f0 41 10 16 12 52 00 0c 10 12 f7
104 SysEx f0 41 10 42 12 40 17 02 06 21 f7
105 SysEx f0 41 10 16 12 10 00 13 10 4d f7
105 SysEx f0 41 10 16 12 52 00 0b 10 13 f7
105 SysEx f0 41 10 42 12 40 18 02 07 1f f7
106 SysEx f0 41 10 16 12 10 00 14 10 4c f7
106 SysEx f0 41 10 16 12 52 00 0a 10 14 f7
106 SysEx f0 41 10 42 12 40 19 02 08 1d f7
107 SysEx f0 41 10 16 12 10 00 15 10 4b f7
107 SysEx f0 41 10 42 12 40 10 02 09 25 f7
108 SysEx f0 41 10 42 12 40 01 30 03 0c f7
109 SysEx f0 41 10 42 12 40 01 33 5a 32 f7
110 SysEx f0 41 10 42 12 40 01 34 36 55 f7
111 SysEx f0 41 10 42 12 40 01 38 00 07 f7
112 SysEx f0 41 10 42 12 40 01 3e 18 69 f7
113 SysEx f0 41 10 42 12 40 01 3d 03 7f f7
114 SysEx f0 41 10 16 12 10 00 01 00 6f f7
115 SysEx f0 41 10 16 12 10 00 03 05 68 f7
116 SysEx f0 41 10 16 12 10 00 02 03 6b f7
117 SysEx f0 41 10 16 12 52 00 01 00 2d f7
118 SysEx f0 41 10 16 12 52 00 03 05 26 f7
119 SysEx f0 41 10 16 12 52 00 02 03 29 f7
120 SysEx f0 41 10 42 12 40 20 10 4c 44 f7
121 SysEx f0 41 10 42 12 40 21 10 4c 43 f7
122 SysEx f0 41 10 42 12 40 22 10 4c 42 f7
123 SysEx f0 41 10 42 12 40 23 10 4c 41 f7
124 SysEx f0 41 10 42 12 40 24 10 4c 40 f7
125 SysEx f0 41 10 42 12 40 25 10 4c 3f f7
126 SysEx f0 41 10 42 12 40 26 10 4c 3e f7
127 SysEx f0 41 10 42 12 40 27 10 4c 3d f7
128 SysEx f0 41 10 42 12 40 28 10 4c 3c f7
129 SysEx f0 41 10 42 12 40 29 10 4c 3b f7
130 SysEx f0 41 10 42 12 40 2a 10 4c 3a f7
131 SysEx f0 41 10 42 12 40 2b 10 4c 39 f7
132 SysEx f0 41 10 42 12 40 2c 10 4c 38 f7
133 SysEx f0 41 10 42 12 40 2d 10 4c 37 f7
134 SysEx f0 41 10 42 12 40 2e 10 4c 36 f7
135 SysEx f0 41 10 42 12 40 2f 10 4c 35 f7
252 SysEx f0 41 10 16 12 03 00 06 01 76 f7
253 SysEx f0 41 10 16 12 03 00 16 01 66 f7
254 SysEx f0 41 10 16 12 03 00 26 01 56 f7
255 SysEx f0 41 10 16 12 03 00 36 01 46 f7
256 SysEx f0 41 10 16 12 03 00 46 01 36 f7
257 SysEx f0 41 10 16 12 03 00 56 01 26 f7
258 SysEx f0 41 10 16 12 03 00 66 01 16 f7
259 SysEx f0 41 10 16 12 03 00 76 01 06 f7
260 SysEx f0 41 10 16 12 03 01 10 7f 00 07 00 7f 00 07 00 7f 00 07 00 7f 00 07 00 7f 00 07 00 7f 00 07 00 7f 00 07 00 7f 00 07 00 7f 00 07 00 7f 00 07 00 7f 00 07 00 40 64 07 01 40 64 07 01 4a 64 06 01 41 64 07 01 4b 64 08 01 45 64 06 01 44 64 0b 01 46 64 06 01 44 64 0b 01 5d 64 06 01 43 64 08 01 47 64 06 01 43 64 08 01 42 64 03 01 48 64 06 01 42 64 03 01 49 64 08 01 7f 00 07 00 7f 00 07 00 56 64 09 01 7f 00 07 00 4c 64 07 01 7f 00 07 00 7f 00 07 00 7f 00 07 00 52 64 02 01 53 64 04 01 4d 64 08 01 4e 64 09 01 4f 64 0a 01 50 64 07 01 51 64 05 01 54 64 02 01 55 64 02 01 5b 64 09 01 58 64 04 01 5a 64 09 01 59 64 09 01 5c 64 0a 01 7f 00 07 00 57 64 0c 01 5e 64 07 01 5f 64 07 01 60 64 07 01 61 64 07 01 62 64 07 01 63 64 07 01 64 64 07 01 65 64 07 01 66 64 07 01 67 64 07 01 68 64 07 01 69 64 07 01 35 f7
261 SysEx f0 41 10 16 12 03 03 10 6a 64 07 01 6b 64 07 01 6c 64 07 01 6d 64 07 01 6e 64 07 01 6f 64 07 01 70 64 07 01 71 64 07 01 72 64 07 01 73 64 07 01 74 64 07 01 75 64 07 01 76 64 07 01 77 64 07 01 78 64 07 01 79 64 07 01 7a 64 07 01 7b 64 07 01 7c 64 07 01 7d 64 07 01 7e 64 07 01 0a f7
262 SysEx f0 41 10 16 12 50 00 71 01 3e f7
263 SysEx f0 41 10 16 12 50 00 5c 01 53 f7
264 SysEx f0 41 10 16 12 50 00 47 01 68 f7
265 SysEx f0 41 10 16 12 50 00 32 01 7d f7
266 SysEx f0 41 10 16 12 50 00 1d 01 12 f7
267 SysEx f0 41 10 16 12 50 00 08 01 27 f7
42288 Tempo 508474
42312 Tempo 517241
42336 Tempo 526315
42360 Tempo 535714
42384 Tempo 545454
42408 Tempo 555555
42432 Tempo 566037
42456 Tempo 571428
42480 Tempo 582524
42504 Tempo 594059
42528 Tempo 606060
42552 Tempo 618556
42576 Tempo 631578
42600 Tempo 645161
42624 Tempo 659340
42648 Tempo 666666
42672 Tempo 681818
42720 Tempo 697674
42744 Tempo 714285
42768 Tempo 731707
42792 Tempo 750000
42816 Tempo 769230
42840 Tempo 789473
42864 Tempo 800000
42888 Tempo 821917
42912 Tempo 845070
42936 Tempo 869565
42960 Tempo 895522
42984 Tempo 923076
43008 Tempo 952380
43032 Tempo 983606
43056 Tempo 1000000
43080 Tempo 1034482
43104 Tempo 1071428
43104 Meta TrkEnd
TrkEnd
MTrk
0 Meta TrkName "Other Unit"
192 Par ch=1 c=0 v=0
194 Par ch=1 c=32 v=0
196 PrCh ch=1 p=0
198 Par ch=1 c=1 v=0
200 Par ch=1 c=7 v=96
202 Par ch=1 c=10 v=64
204 Par ch=1 c=11 v=127
206 Par ch=1 c=64 v=0
208 Par ch=1 c=91 v=64
210 Par ch=1 c=93 v=64
212 Pb ch=1 v=8192
212 Meta TrkEnd
TrkEnd
MTrk
0 Meta TrkName "Vocal 1"
192 Par ch=2 c=0 v=0
194 Par ch=2 c=32 v=0
196 PrCh ch=2 p=82
198 Par ch=2 c=1 v=47
200 Par ch=2 c=7 v=109
202 Par ch=2 c=10 v=64
204 Par ch=2 c=11 v=127
206 Par ch=2 c=64 v=0
208 Par ch=2 c=91 v=64
210 Par ch=2 c=93 v=127
212 Pb ch=2 v=8192
432 On ch=2 n=76 v=63
464 On ch=2 n=76 v=0
480 Par ch=2 c=7 v=109
480 Par ch=2 c=93 v=127
480 Par ch=2 c=1 v=47
480 On ch=2 n=79 v=63
512 On ch=2 n=79 v=0
528 On ch=2 n=80 v=63
608 On ch=2 n=80 v=0
624 On ch=2 n=80 v=63
704 On ch=2 n=80 v=0
720 On ch=2 n=80 v=63
784 On ch=2 n=80 v=0
784 On ch=2 n=81 v=63
800 On ch=2 n=81 v=0
800 On ch=2 n=80 v=63
810 On ch=2 n=80 v=0
816 On ch=2 n=78 v=63
896 On ch=2 n=78 v=0
912 On ch=2 n=78 v=63
992 On ch=2 n=78 v=0
1008 On ch=2 n=78 v=63
1088 On ch=2 n=78 v=0
1104 On ch=2 n=78 v=63
1184 On ch=2 n=78 v=0
1200 On ch=2 n=76 v=63
1280 On ch=2 n=76 v=0
1296 On ch=2 n=76 v=63
1376 On ch=2 n=76 v=0
1392 On ch=2 n=76 v=63
1472 On ch=2 n=76 v=0
1488 On ch=2 n=78 v=63
1568 On ch=2 n=78 v=0
1584 On ch=2 n=78 v=63
1664 On ch=2 n=78 v=0
1680 On ch=2 n=78 v=63
1760 On ch=2 n=78 v=0
1776 On ch=2 n=78 v=63
1856 On ch=2 n=78 v=0
1872 On ch=2 n=76 v=63
1952 On ch=2 n=76 v=0
1968 On ch=2 n=76 v=63
2048 On ch=2 n=76 v=0
2064 On ch=2 n=76 v=63
2112 Par ch=2 c=1 v=0
2124 Par ch=2 c=1 v=4
2136 Par ch=2 c=1 v=8
2148 Par ch=2 c=1 v=12
2160 Par ch=2 c=1 v=16
2172 Par ch=2 c=1 v=20
2176 On ch=2 n=76 v=0
2184 Par ch=2 c=1 v=24
2196 Par ch=2 c=1 v=28
2208 Par ch=2 c=1 v=0
2232 Par ch=2 c=1 v=0
2688 Pb ch=2 v=8192
2688 Par ch=2 c=1 v=0
2688 Par ch=2 c=64 v=0
2688 Par ch=2 c=11 v=127
2688 Par ch=2 c=91 v=64
2688 Par ch=2 c=93 v=64
2736 On ch=2 n=76 v=63
2768 On ch=2 n=76 v=0
2784 On ch=2 n=79 v=63
2816 On ch=2 n=79 v=0
2832 On ch=2 n=80 v=63
2912 On ch=2 n=80 v=0
2928 On ch=2 n=80 v=63
3008 On ch=2 n=80 v=0
3024 On ch=2 n=80 v=63
3088 On ch=2 n=80 v=0
3088 On ch=2 n=81 v=63
3104 On ch=2 n=81 v=0
3104 On ch=2 n=80 v=63
3114 On ch=2 n=80 v=0
3120 On ch=2 n=78 v=63
3200 On ch=2 n=78 v=0
3216 On ch=2 n=78 v=63
3296 On ch=2 n=78 v=0
3312 On ch=2 n=78 v=63
3392 On ch=2 n=78 v=0
3408 On ch=2 n=78 v=63
3488 On ch=2 n=78 v=0
3504 On ch=2 n=76 v=63
3584 On ch=2 n=76 v=0
3600 On ch=2 n=76 v=63
3680 On ch=2 n=76 v=0
3696 On ch=2 n=76 v=63
3776 On ch=2 n=76 v=0
3792 On ch=2 n=78 v=63
3872 On ch=2 n=78 v=0
3888 On ch=2 n=78 v=63
3968 On ch=2 n=78 v=0
3984 On ch=2 n=78 v=63
4064 On ch=2 n=78 v=0
4080 On ch=2 n=78 v=63
4160 On ch=2 n=78 v=0
4176 On ch=2 n=76 v=63
4256 On ch=2 n=76 v=0
4272 On ch=2 n=76 v=63
4352 On ch=2 n=76 v=0
4368 On ch=2 n=76 v=63
4416 Par ch=2 c=1 v=65
4480 On ch=2 n=76 v=0
4512 Par ch=2 c=1 v=0
4536 Par ch=2 c=1 v=0
4536 Par ch=2 c=1 v=0
5424 On ch=2 n=76 v=79
5504 On ch=2 n=76 v=0
5520 On ch=2 n=78 v=79
5600 On ch=2 n=78 v=0
5616 On ch=2 n=78 v=79
5696 On ch=2 n=78 v=0
5712 On ch=2 n=76 v=79
5792 On ch=2 n=76 v=0
5808 On ch=2 n=76 v=79
5888 On ch=2 n=76 v=0
5904 On ch=2 n=78 v=79
5936 On ch=2 n=78 v=0
5952 On ch=2 n=76 v=79
6048 On ch=2 n=76 v=0
6096 On ch=2 n=76 v=79
6112 On ch=2 n=76 v=0
6120 On ch=2 n=76 v=79
6136 On ch=2 n=76 v=0
6144 On ch=2 n=76 v=79
6208 On ch=2 n=76 v=0
6240 On ch=2 n=78 v=79
6272 On ch=2 n=78 v=0
6288 On ch=2 n=76 v=79
6400 On ch=2 n=76 v=0
6432 On ch=2 n=73 v=79
6464 On ch=2 n=73 v=0
6480 On ch=2 n=73 v=79
6576 On ch=2 n=73 v=0
6576 On ch=2 n=71 v=79
6688 On ch=2 n=71 v=0
6960 On ch=2 n=78 v=79
7040 On ch=2 n=78 v=0
7056 On ch=2 n=78 v=79
7088 On ch=2 n=78 v=0
7104 On ch=2 n=76 v=79
7168 On ch=2 n=76 v=0
7200 On ch=2 n=78 v=79
7232 On ch=2 n=78 v=0
7248 On ch=2 n=76 v=79
7328 On ch=2 n=76 v=0
7344 On ch=2 n=78 v=79
7424 On ch=2 n=78 v=0
7440 On ch=2 n=78 v=79
7552 On ch=2 n=78 v=0
7824 On ch=2 n=73 v=79
7856 On ch=2 n=73 v=0
7872 On ch=2 n=76 v=79
7904 On ch=2 n=76 v=0
7920 On ch=2 n=73 v=79
7952 On ch=2 n=73 v=0
7968 On ch=2 n=76 v=79
8032 On ch=2 n=76 v=0
8064 On ch=2 n=80 v=79
8288 On ch=2 n=80 v=0
8304 On ch=2 n=78 v=79
8336 On ch=2 n=78 v=0
8352 On ch=2 n=76 v=79
8384 On ch=2 n=76 v=0
8400 On ch=2 n=76 v=79
8448 On ch=2 n=76 v=0
8448 On ch=2 n=73 v=79
8480 On ch=2 n=73 v=0
8496 On ch=2 n=76 v=79
8592 On ch=2 n=76 v=0
8592 On ch=2 n=73 v=79
8640 On ch=2 n=73 v=0
8640 On ch=2 n=71 v=79
8784 On ch=2 n=71 v=0
8784 On ch=2 n=73 v=79
8832 On ch=2 n=73 v=0
8832 On ch=2 n=68 v=79
9086 On ch=2 n=68 v=0
9984 On ch=2 n=80 v=79
10048 On ch=2 n=80 v=0
10080 On ch=2 n=81 v=79
10112 On ch=2 n=81 v=0
10128 On ch=2 n=80 v=79
10208 On ch=2 n=80 v=0
10224 On ch=2 n=81 v=79
10256 On ch=2 n=81 v=0
10272 On ch=2 n=80 v=79
10336 On ch=2 n=80 v=0
10368 On ch=2 n=81 v=79
10400 On ch=2 n=81 v=0
10416 On ch=2 n=80 v=79
10496 On ch=2 n=80 v=0
10512 On ch=2 n=81 v=79
10544 On ch=2 n=81 v=0
10560 On ch=2 n=80 v=79
10624 On ch=2 n=80 v=0
10656 On ch=2 n=81 v=79
10688 On ch=2 n=81 v=0
10704 On ch=2 n=80 v=79
10784 On ch=2 n=80 v=0
10800 On ch=2 n=81 v=79
10832 On ch=2 n=81 v=0
10848 On ch=2 n=80 v=79
10976 On ch=2 n=80 v=0
11040 On ch=2 n=80 v=79
11104 On ch=2 n=80 v=0
11136 On ch=2 n=81 v=79
11200 On ch=2 n=81 v=0
11232 On ch=2 n=81 v=79
11774 On ch=2 n=81 v=0
12000 On ch=2 n=81 v=79
12128 On ch=2 n=81 v=0
12144 On ch=2 n=83 v=79
12224 On ch=2 n=83 v=0
12240 On ch=2 n=80 v=79
12384 On ch=2 n=80 v=0
12432 On ch=2 n=78 v=79
12464 On ch=2 n=78 v=0
12480 On ch=2 n=76 v=79
12576 On ch=2 n=76 v=0
12672 On ch=2 n=76 v=79
12736 On ch=2 n=76 v=0
12768 On ch=2 n=78 v=79
12800 On ch=2 n=78 v=0
12816 On ch=2 n=76 v=79
12928 On ch=2 n=76 v=0
12960 On ch=2 n=78 v=79
12992 On ch=2 n=78 v=0
13008 On ch=2 n=78 v=79
13088 On ch=2 n=78 v=0
13104 On ch=2 n=76 v=79
13136 On ch=2 n=76 v=0
13152 On ch=2 n=78 v=79
13216 On ch=2 n=78 v=0
13248 On ch=2 n=78 v=79
13344 On ch=2 n=78 v=0
13488 On ch=2 n=76 v=79
13568 On ch=2 n=76 v=0
13584 On ch=2 n=78 v=79
13616 On ch=2 n=78 v=0
13632 On ch=2 n=76 v=79
13664 On ch=2 n=76 v=0
13680 On ch=2 n=73 v=79
13760 On ch=2 n=73 v=0
13776 On ch=2 n=73 v=79
13872 On ch=2 n=73 v=0
13872 On ch=2 n=71 v=79
13904 On ch=2 n=71 v=0
13920 On ch=2 n=71 v=79
13984 On ch=2 n=71 v=0
14016 On ch=2 n=71 v=79
14112 On ch=2 n=71 v=0
14256 On ch=2 n=76 v=79
14336 On ch=2 n=76 v=0
14352 On ch=2 n=78 v=79
14384 On ch=2 n=78 v=0
14400 On ch=2 n=76 v=79
14464 On ch=2 n=76 v=0
14496 On ch=2 n=78 v=79
14528 On ch=2 n=78 v=0
14544 On ch=2 n=76 v=79
14624 On ch=2 n=76 v=0
14640 On ch=2 n=78 v=79
14656 On ch=2 n=78 v=0
14664 On ch=2 n=76 v=79
14688 On ch=2 n=76 v=0
14688 On ch=2 n=78 v=79
14848 On ch=2 n=78 v=0
15072 On ch=2 n=76 v=79
15104 On ch=2 n=76 v=0
15120 On ch=2 n=78 v=79
15152 On ch=2 n=78 v=0
15168 On ch=2 n=76 v=79
15232 On ch=2 n=76 v=0
15264 On ch=2 n=78 v=79
15296 On ch=2 n=78 v=0
15312 On ch=2 n=80 v=79
15392 On ch=2 n=80 v=0
15408 On ch=2 n=78 v=79
15488 On ch=2 n=78 v=0
15600 On ch=2 n=76 v=79
15632 On ch=2 n=76 v=0
15648 On ch=2 n=73 v=79
15680 On ch=2 n=73 v=0
15696 On ch=2 n=76 v=79
15840 On ch=2 n=76 v=0
15840 On ch=2 n=73 v=79
15888 On ch=2 n=73 v=0
15888 On ch=2 n=71 v=79
16000 On ch=2 n=71 v=0
16128 On ch=2 n=76 v=79
16192 On ch=2 n=76 v=0
16224 On ch=2 n=73 v=79
16256 On ch=2 n=73 v=0
16272 On ch=2 n=71 v=79
16384 On ch=2 n=71 v=0
16512 On ch=2 n=80 v=79
16800 On ch=2 n=80 v=0
16848 On ch=2 n=81 v=79
16928 On ch=2 n=81 v=0
16944 On ch=2 n=80 v=79
17024 On ch=2 n=80 v=0
17040 On ch=2 n=76 v=79
17072 On ch=2 n=76 v=0
17280 On ch=2 n=76 v=79
17344 On ch=2 n=76 v=0
17376 On ch=2 n=78 v=79
17408 On ch=2 n=78 v=0
17424 On ch=2 n=78 v=79
17472 On ch=2 n=78 v=0
17472 On ch=2 n=76 v=79
17536 On ch=2 n=76 v=0
17568 On ch=2 n=76 v=79
17600 On ch=2 n=76 v=0
17616 On ch=2 n=76 v=79
17696 On ch=2 n=76 v=0
17712 On ch=2 n=78 v=79
17744 On ch=2 n=78 v=0
17760 On ch=2 n=78 v=79
17792 On ch=2 n=78 v=0
17808 On ch=2 n=78 v=79
17856 On ch=2 n=78 v=0
17856 On ch=2 n=76 v=79
17920 On ch=2 n=76 v=0
18096 On ch=2 n=76 v=79
18128 On ch=2 n=76 v=0
18144 On ch=2 n=78 v=79
18208 On ch=2 n=78 v=0
18240 On ch=2 n=76 v=79
18272 On ch=2 n=76 v=0
18288 On ch=2 n=73 v=79
18368 On ch=2 n=73 v=0
18384 On ch=2 n=73 v=79
18686 On ch=2 n=73 v=0
18864 On ch=2 n=76 v=79
18944 On ch=2 n=76 v=0
18960 On ch=2 n=78 v=79
18992 On ch=2 n=78 v=0
19008 On ch=2 n=76 v=79
19072 On ch=2 n=76 v=0
19104 On ch=2 n=78 v=79
19136 On ch=2 n=78 v=0
19152 On ch=2 n=76 v=79
19232 On ch=2 n=76 v=0
19248 On ch=2 n=78 v=79
19280 On ch=2 n=78 v=0
19296 On ch=2 n=78 v=79
19328 On ch=2 n=78 v=0
19344 On ch=2 n=78 v=79
19518 On ch=2 n=78 v=0
19728 On ch=2 n=73 v=79
19760 On ch=2 n=73 v=0
19776 On ch=2 n=76 v=79
19808 On ch=2 n=76 v=0
19824 On ch=2 n=76 v=79
19856 On ch=2 n=76 v=0
19872 On ch=2 n=76 v=79
19934 On ch=2 n=76 v=0
20064 On ch=2 n=76 v=79
20096 On ch=2 n=76 v=0
20112 On ch=2 n=76 v=79
20144 On ch=2 n=76 v=0
20160 On ch=2 n=76 v=79
20192 On ch=2 n=76 v=0
20208 On ch=2 n=76 v=79
20320 On ch=2 n=76 v=0
20352 On ch=2 n=80 v=79
20862 On ch=2 n=80 v=0
20928 On ch=2 n=81 v=79
20992 On ch=2 n=81 v=0
21024 On ch=2 n=83 v=79
21374 On ch=2 n=83 v=0
21888 On ch=2 n=80 v=79
21952 On ch=2 n=80 v=0
21984 On ch=2 n=81 v=79
22016 On ch=2 n=81 v=0
22032 On ch=2 n=80 v=79
22112 On ch=2 n=80 v=0
22128 On ch=2 n=81 v=79
22160 On ch=2 n=81 v=0
22176 On ch=2 n=80 v=79
22240 On ch=2 n=80 v=0
22272 On ch=2 n=81 v=79
22304 On ch=2 n=81 v=0
22320 On ch=2 n=80 v=79
22400 On ch=2 n=80 v=0
22416 On ch=2 n=81 v=79
22448 On ch=2 n=81 v=0
22464 On ch=2 n=80 v=79
22528 On ch=2 n=80 v=0
22560 On ch=2 n=81 v=79
22592 On ch=2 n=81 v=0
22608 On ch=2 n=80 v=79
22688 On ch=2 n=80 v=0
22704 On ch=2 n=81 v=79
22736 On ch=2 n=81 v=0
22752 On ch=2 n=80 v=79
22880 On ch=2 n=80 v=0
22944 On ch=2 n=80 v=79
23008 On ch=2 n=80 v=0
23040 On ch=2 n=81 v=79
23104 On ch=2 n=81 v=0
23136 On ch=2 n=81 v=79
23678 On ch=2 n=81 v=0
23904 On ch=2 n=81 v=79
24032 On ch=2 n=81 v=0
24048 On ch=2 n=83 v=79
24128 On ch=2 n=83 v=0
24144 On ch=2 n=83 v=79
24254 On ch=2 n=83 v=0
24288 On ch=2 n=83 v=79
24352 On ch=2 n=83 v=0
24384 On ch=2 n=80 v=79
24408 On ch=2 n=80 v=0
24408 On ch=2 n=78 v=79
24432 On ch=2 n=78 v=0
24432 On ch=2 n=76 v=79
24544 On ch=2 n=76 v=0
24576 On ch=2 n=83 v=79
24592 On ch=2 n=83 v=0
24600 On ch=2 n=83 v=79
24616 On ch=2 n=83 v=0
24672 On ch=2 n=80 v=79
24688 On ch=2 n=80 v=0
24696 On ch=2 n=80 v=79
24712 On ch=2 n=80 v=0
24768 On ch=2 n=81 v=79
24784 On ch=2 n=81 v=0
24792 On ch=2 n=81 v=79
24808 On ch=2 n=81 v=0
24864 On ch=2 n=78 v=79
24880 On ch=2 n=78 v=0
24888 On ch=2 n=78 v=79
24904 On ch=2 n=78 v=0
24960 On ch=2 n=80 v=79
24976 On ch=2 n=80 v=0
24984 On ch=2 n=80 v=79
25000 On ch=2 n=80 v=0
25056 On ch=2 n=76 v=79
25072 On ch=2 n=76 v=0
25080 On ch=2 n=76 v=79
25096 On ch=2 n=76 v=0
25152 On ch=2 n=78 v=79
25168 On ch=2 n=78 v=0
25176 On ch=2 n=78 v=79
25192 On ch=2 n=78 v=0
25248 On ch=2 n=73 v=79
25288 On ch=2 n=73 v=0
25296 On ch=2 n=71 v=79
25312 On ch=2 n=71 v=0
25344 On ch=2 n=75 v=79
25470 On ch=2 n=75 v=0
25536 On ch=2 n=76 v=79
25600 On ch=2 n=76 v=0
25632 On ch=2 n=80 v=79
25792 On ch=2 n=80 v=0
25824 On ch=2 n=73 v=79
25984 On ch=2 n=73 v=0
26112 On ch=2 n=83 v=79
26128 On ch=2 n=83 v=0
26136 On ch=2 n=83 v=79
26152 On ch=2 n=83 v=0
26208 On ch=2 n=80 v=79
26224 On ch=2 n=80 v=0
26232 On ch=2 n=80 v=79
26248 On ch=2 n=80 v=0
26304 On ch=2 n=81 v=79
26320 On ch=2 n=81 v=0
26328 On ch=2 n=81 v=79
26344 On ch=2 n=81 v=0
26400 On ch=2 n=78 v=79
26416 On ch=2 n=78 v=0
26424 On ch=2 n=78 v=79
26440 On ch=2 n=78 v=0
26496 On ch=2 n=80 v=79
26512 On ch=2 n=80 v=0
26520 On ch=2 n=80 v=79
26536 On ch=2 n=80 v=0
26592 On ch=2 n=76 v=79
26608 On ch=2 n=76 v=0
26616 On ch=2 n=76 v=79
26632 On ch=2 n=76 v=0
26688 On ch=2 n=78 v=79
26704 On ch=2 n=78 v=0
26712 On ch=2 n=78 v=79
26728 On ch=2 n=78 v=0
26784 On ch=2 n=73 v=79
26824 On ch=2 n=73 v=0
26832 On ch=2 n=71 v=79
26848 On ch=2 n=71 v=0
26880 On ch=2 n=75 v=79
27006 On ch=2 n=75 v=0
27072 On ch=2 n=76 v=79
27136 On ch=2 n=76 v=0
27168 On ch=2 n=80 v=79
27328 On ch=2 n=80 v=0
27360 On ch=2 n=73 v=79
27520 On ch=2 n=73 v=0
27648 On ch=2 n=76 v=79
27712 On ch=2 n=76 v=0
27744 On ch=2 n=78 v=79
27776 On ch=2 n=78 v=0
27792 On ch=2 n=78 v=79
27904 On ch=2 n=78 v=0
27936 On ch=2 n=76 v=79
27968 On ch=2 n=76 v=0
27984 On ch=2 n=76 v=79
28064 On ch=2 n=76 v=0
28080 On ch=2 n=78 v=79
28112 On ch=2 n=78 v=0
28128 On ch=2 n=78 v=79
28160 On ch=2 n=78 v=0
28176 On ch=2 n=78 v=79
28272 On ch=2 n=78 v=0
28272 On ch=2 n=80 v=79
28304 On ch=2 n=80 v=0
28464 On ch=2 n=81 v=79
28496 On ch=2 n=81 v=0
28512 On ch=2 n=81 v=79
28576 On ch=2 n=81 v=0
28608 On ch=2 n=76 v=79
28672 On ch=2 n=76 v=0
28704 On ch=2 n=73 v=79
28736 On ch=2 n=73 v=0
28752 On ch=2 n=73 v=79
28848 On ch=2 n=73 v=0
28848 On ch=2 n=71 v=79
28960 On ch=2 n=71 v=0
29248 On ch=2 n=76 v=79
29290 On ch=2 n=76 v=0
29312 On ch=2 n=78 v=79
29354 On ch=2 n=78 v=0
29376 On ch=2 n=76 v=79
29418 On ch=2 n=76 v=0
29440 On ch=2 n=78 v=79
29482 On ch=2 n=78 v=0
29504 On ch=2 n=78 v=79
29600 On ch=2 n=78 v=0
29616 On ch=2 n=78 v=79
29648 On ch=2 n=78 v=0
29664 On ch=2 n=78 v=79
29696 On ch=2 n=78 v=0
29712 On ch=2 n=78 v=79
29760 On ch=2 n=78 v=0
29760 On ch=2 n=80 v=79
29856 On ch=2 n=80 v=0
30096 On ch=2 n=80 v=79
30128 On ch=2 n=80 v=0
30144 On ch=2 n=81 v=79
30176 On ch=2 n=81 v=0
30192 On ch=2 n=81 v=79
30224 On ch=2 n=81 v=0
30240 On ch=2 n=80 v=79
30304 On ch=2 n=80 v=0
30432 On ch=2 n=80 v=79
30496 On ch=2 n=80 v=0
30528 On ch=2 n=80 v=79
30576 On ch=2 n=80 v=0
30576 On ch=2 n=78 v=79
30608 On ch=2 n=78 v=0
30624 On ch=2 n=76 v=79
30688 On ch=2 n=76 v=0
30720 On ch=2 n=83 v=79
31230 On ch=2 n=83 v=0
31296 On ch=2 n=76 v=79
31358 On ch=2 n=76 v=0
31392 On ch=2 n=83 v=79
31738 On ch=2 n=83 v=0
32256 On ch=2 n=80 v=79
32320 On ch=2 n=80 v=0
32352 On ch=2 n=81 v=79
32384 On ch=2 n=81 v=0
32400 On ch=2 n=80 v=79
32480 On ch=2 n=80 v=0
32496 On ch=2 n=81 v=79
32528 On ch=2 n=81 v=0
32544 On ch=2 n=80 v=79
32608 On ch=2 n=80 v=0
32640 On ch=2 n=81 v=79
32672 On ch=2 n=81 v=0
32688 On ch=2 n=80 v=79
32768 On ch=2 n=80 v=0
32784 On ch=2 n=81 v=79
32816 On ch=2 n=81 v=0
32832 On ch=2 n=81 v=79
32896 On ch=2 n=81 v=0
32928 On ch=2 n=81 v=79
32960 On ch=2 n=81 v=0
32976 On ch=2 n=80 v=79
33056 On ch=2 n=80 v=0
33072 On ch=2 n=81 v=79
33104 On ch=2 n=81 v=0
33120 On ch=2 n=80 v=79
33248 On ch=2 n=80 v=0
33312 On ch=2 n=80 v=79
33376 On ch=2 n=80 v=0
33408 On ch=2 n=81 v=79
33472 On ch=2 n=81 v=0
33504 On ch=2 n=81 v=79
34046 On ch=2 n=81 v=0
34272 On ch=2 n=83 v=79
34432 On ch=2 n=83 v=0
34464 On ch=2 n=80 v=79
34496 On ch=2 n=80 v=0
34512 On ch=2 n=83 v=79
34624 On ch=2 n=83 v=0
34656 On ch=2 n=85 v=79
34720 On ch=2 n=85 v=0
34752 On ch=2 n=80 v=79
34776 On ch=2 n=80 v=0
34776 On ch=2 n=78 v=79
34800 On ch=2 n=78 v=0
34800 On ch=2 n=76 v=79
34912 On ch=2 n=76 v=0
34944 On ch=2 n=83 v=95
34960 On ch=2 n=83 v=0
34968 On ch=2 n=83 v=95
34984 On ch=2 n=83 v=0
35040 On ch=2 n=80 v=95
35056 On ch=2 n=80 v=0
35064 On ch=2 n=80 v=95
35080 On ch=2 n=80 v=0
35136 On ch=2 n=81 v=95
35152 On ch=2 n=81 v=0
35160 On ch=2 n=81 v=95
35176 On ch=2 n=81 v=0
35232 On ch=2 n=78 v=95
35248 On ch=2 n=78 v=0
35256 On ch=2 n=78 v=95
35272 On ch=2 n=78 v=0
35328 On ch=2 n=80 v=95
35344 On ch=2 n=80 v=0
35352 On ch=2 n=80 v=95
35368 On ch=2 n=80 v=0
35424 On ch=2 n=76 v=95
35440 On ch=2 n=76 v=0
35448 On ch=2 n=76 v=95
35464 On ch=2 n=76 v=0
35520 On ch=2 n=78 v=95
35536 On ch=2 n=78 v=0
35544 On ch=2 n=78 v=95
35560 On ch=2 n=78 v=0
35616 On ch=2 n=75 v=95
35648 On ch=2 n=75 v=0
35664 On ch=2 n=71 v=95
35696 On ch=2 n=71 v=0
36480 On ch=2 n=83 v=95
36496 On ch=2 n=83 v=0
36504 On ch=2 n=83 v=95
36520 On ch=2 n=83 v=0
36576 On ch=2 n=80 v=95
36592 On ch=2 n=80 v=0
36600 On ch=2 n=80 v=95
36616 On ch=2 n=80 v=0
36672 On ch=2 n=81 v=95
36688 On ch=2 n=81 v=0
36696 On ch=2 n=81 v=95
36712 On ch=2 n=81 v=0
36768 On ch=2 n=78 v=95
36784 On ch=2 n=78 v=0
36792 On ch=2 n=78 v=95
36808 On ch=2 n=78 v=0
36864 On ch=2 n=80 v=95
36880 On ch=2 n=80 v=0
36888 On ch=2 n=80 v=95
36904 On ch=2 n=80 v=0
36960 On ch=2 n=76 v=95
36976 On ch=2 n=76 v=0
36984 On ch=2 n=76 v=95
37000 On ch=2 n=76 v=0
37056 On ch=2 n=78 v=95
37072 On ch=2 n=78 v=0
37080 On ch=2 n=78 v=95
37096 On ch=2 n=78 v=0
37152 On ch=2 n=73 v=95
37184 On ch=2 n=73 v=0
37200 On ch=2 n=71 v=95
37232 On ch=2 n=71 v=0
38016 On ch=2 n=83 v=111
38032 On ch=2 n=83 v=0
38040 On ch=2 n=83 v=111
38056 On ch=2 n=83 v=0
38112 On ch=2 n=80 v=111
38128 On ch=2 n=80 v=0
38136 On ch=2 n=80 v=111
38152 On ch=2 n=80 v=0
38208 On ch=2 n=81 v=111
38224 On ch=2 n=81 v=0
38232 On ch=2 n=81 v=111
38248 On ch=2 n=81 v=0
38304 On ch=2 n=78 v=111
38320 On ch=2 n=78 v=0
38328 On ch=2 n=78 v=111
38344 On ch=2 n=78 v=0
38400 On ch=2 n=80 v=111
38416 On ch=2 n=80 v=0
38424 On ch=2 n=80 v=111
38440 On ch=2 n=80 v=0
38496 On ch=2 n=76 v=111
38512 On ch=2 n=76 v=0
38520 On ch=2 n=76 v=111
38536 On ch=2 n=76 v=0
38592 On ch=2 n=78 v=111
38608 On ch=2 n=78 v=0
38616 On ch=2 n=78 v=111
38632 On ch=2 n=78 v=0
38688 On ch=2 n=75 v=111
38720 On ch=2 n=75 v=0
38736 On ch=2 n=71 v=111
38768 On ch=2 n=71 v=0
39552 On ch=2 n=83 v=111
39568 On ch=2 n=83 v=0
39576 On ch=2 n=83 v=111
39592 On ch=2 n=83 v=0
39648 On ch=2 n=80 v=111
39664 On ch=2 n=80 v=0
39672 On ch=2 n=80 v=111
39688 On ch=2 n=80 v=0
39744 On ch=2 n=81 v=111
39760 On ch=2 n=81 v=0
39768 On ch=2 n=81 v=111
39784 On ch=2 n=81 v=0
39840 On ch=2 n=78 v=111
39856 On ch=2 n=78 v=0
39864 On ch=2 n=78 v=111
39880 On ch=2 n=78 v=0
39936 On ch=2 n=80 v=111
39952 On ch=2 n=80 v=0
39960 On ch=2 n=80 v=111
39976 On ch=2 n=80 v=0
40032 On ch=2 n=76 v=111
40048 On ch=2 n=76 v=0
40056 On ch=2 n=76 v=111
40072 On ch=2 n=76 v=0
40128 On ch=2 n=78 v=111
40144 On ch=2 n=78 v=0
40152 On ch=2 n=78 v=111
40168 On ch=2 n=78 v=0
40224 On ch=2 n=73 v=111
40256 On ch=2 n=73 v=0
40272 On ch=2 n=71 v=111
40304 On ch=2 n=71 v=0
41088 On ch=2 n=80 v=127
41152 On ch=2 n=80 v=0
41184 On ch=2 n=81 v=127
41216 On ch=2 n=81 v=0
41232 On ch=2 n=80 v=127
41312 On ch=2 n=80 v=0
41328 On ch=2 n=81 v=127
41360 On ch=2 n=81 v=0
41376 On ch=2 n=80 v=127
41440 On ch=2 n=80 v=0
41472 On ch=2 n=81 v=127
41504 On ch=2 n=81 v=0
41520 On ch=2 n=80 v=127
41600 On ch=2 n=80 v=0
41616 On ch=2 n=81 v=127
41648 On ch=2 n=81 v=0
41664 On ch=2 n=80 v=127
41728 On ch=2 n=80 v=0
41760 On ch=2 n=81 v=127
41792 On ch=2 n=81 v=0
41808 On ch=2 n=80 v=127
41888 On ch=2 n=80 v=0
41904 On ch=2 n=81 v=127
41936 On ch=2 n=81 v=0
41952 On ch=2 n=80 v=127
42112 On ch=2 n=80 v=0
42144 On ch=2 n=80 v=127
42208 On ch=2 n=80 v=0
42240 On ch=2 n=81 v=127
42304 On ch=2 n=81 v=0
42336 On ch=2 n=81 v=127
43072 On ch=2 n=81 v=0
43072 Meta TrkEnd
TrkEnd
MTrk
0 Meta TrkName "Vocal 2"
192 Par ch=3 c=0 v=0
194 Par ch=3 c=32 v=0
196 PrCh ch=3 p=82
198 Par ch=3 c=1 v=0
200 Par ch=3 c=7 v=108
202 Par ch=3 c=10 v=64
204 Par ch=3 c=11 v=127
206 Par ch=3 c=64 v=0
208 Par ch=3 c=91 v=64
210 Par ch=3 c=93 v=64
212 Pb ch=3 v=8192
432 On ch=3 n=76 v=63
464 On ch=3 n=76 v=0
480 Par ch=3 c=7 v=108
480 On ch=3 n=81 v=63
512 On ch=3 n=81 v=0
528 On ch=3 n=83 v=63
608 On ch=3 n=83 v=0
624 On ch=3 n=83 v=63
704 On ch=3 n=83 v=0
720 On ch=3 n=83 v=63
784 On ch=3 n=83 v=0
784 On ch=3 n=85 v=63
800 On ch=3 n=85 v=0
800 On ch=3 n=83 v=63
810 On ch=3 n=83 v=0
816 On ch=3 n=81 v=63
896 On ch=3 n=81 v=0
912 On ch=3 n=81 v=63
992 On ch=3 n=81 v=0
1008 On ch=3 n=81 v=63
1088 On ch=3 n=81 v=0
1104 On ch=3 n=81 v=63
1184 On ch=3 n=81 v=0
1200 On ch=3 n=79 v=63
1280 On ch=3 n=79 v=0
1296 On ch=3 n=79 v=63
1376 On ch=3 n=79 v=0
1392 On ch=3 n=79 v=63
1472 On ch=3 n=79 v=0
1488 On ch=3 n=83 v=63
1568 On ch=3 n=83 v=0
1584 On ch=3 n=83 v=63
1664 On ch=3 n=83 v=0
1680 On ch=3 n=83 v=63
1760 On ch=3 n=83 v=0
1776 On ch=3 n=83 v=63
1856 On ch=3 n=83 v=0
1872 On ch=3 n=81 v=63
1952 On ch=3 n=81 v=0
1968 On ch=3 n=81 v=63
2048 On ch=3 n=81 v=0
2064 On ch=3 n=81 v=63
2112 Par ch=3 c=1 v=57
2176 On ch=3 n=81 v=0
2208 Par ch=3 c=1 v=0
2232 Par ch=3 c=1 v=0
2688 Pb ch=3 v=8192
2688 Par ch=3 c=1 v=0
2688 Par ch=3 c=64 v=0
2688 Par ch=3 c=11 v=127
2688 Par ch=3 c=91 v=64
2688 Par ch=3 c=93 v=64
2736 On ch=3 n=76 v=63
2768 On ch=3 n=76 v=0
2784 On ch=3 n=81 v=63
2816 On ch=3 n=81 v=0
2832 On ch=3 n=83 v=63
2912 On ch=3 n=83 v=0
2928 On ch=3 n=83 v=63
3008 On ch=3 n=83 v=0
3024 On ch=3 n=83 v=63
3088 On ch=3 n=83 v=0
3088 On ch=3 n=85 v=63
3104 On ch=3 n=85 v=0
3104 On ch=3 n=83 v=63
3114 On ch=3 n=83 v=0
3120 On ch=3 n=81 v=63
3200 On ch=3 n=81 v=0
3216 On ch=3 n=81 v=63
3296 On ch=3 n=81 v=0
3312 On ch=3 n=81 v=63
3392 On ch=3 n=81 v=0
3408 On ch=3 n=81 v=63
3488 On ch=3 n=81 v=0
3504 On ch=3 n=79 v=63
3584 On ch=3 n=79 v=0
3600 On ch=3 n=79 v=63
3680 On ch=3 n=79 v=0
3696 On ch=3 n=79 v=63
3776 On ch=3 n=79 v=0
3792 On ch=3 n=83 v=63
3872 On ch=3 n=83 v=0
3888 On ch=3 n=83 v=63
3968 On ch=3 n=83 v=0
3984 On ch=3 n=83 v=63
4064 On ch=3 n=83 v=0
4080 On ch=3 n=83 v=63
4160 On ch=3 n=83 v=0
4176 On ch=3 n=81 v=63
4256 On ch=3 n=81 v=0
4272 On ch=3 n=81 v=63
4352 On ch=3 n=81 v=0
4368 On ch=3 n=81 v=63
4416 Par ch=3 c=1 v=65
4480 On ch=3 n=81 v=0
4512 Par ch=3 c=1 v=0
4536 Par ch=3 c=1 v=0
20352 On ch=3 n=71 v=79
20542 On ch=3 n=71 v=0
20640 On ch=3 n=73 v=79
20672 On ch=3 n=73 v=0
20688 On ch=3 n=71 v=79
20862 On ch=3 n=71 v=0
20928 On ch=3 n=73 v=79
20992 On ch=3 n=73 v=0
21024 On ch=3 n=75 v=79
21374 On ch=3 n=75 v=0
24576 On ch=3 n=71 v=79
24672 On ch=3 n=71 v=0
24864 On ch=3 n=73 v=79
24896 On ch=3 n=73 v=0
24912 On ch=3 n=71 v=79
25056 On ch=3 n=71 v=0
25248 On ch=3 n=73 v=79
25312 On ch=3 n=73 v=0
25344 On ch=3 n=71 v=79
25470 On ch=3 n=71 v=0
25536 On ch=3 n=71 v=79
25600 On ch=3 n=71 v=0
25632 On ch=3 n=76 v=79
25792 On ch=3 n=76 v=0
25824 On ch=3 n=69 v=79
25984 On ch=3 n=69 v=0
26112 On ch=3 n=71 v=79
26208 On ch=3 n=71 v=0
26400 On ch=3 n=73 v=79
26432 On ch=3 n=73 v=0
26448 On ch=3 n=71 v=79
26592 On ch=3 n=71 v=0
26784 On ch=3 n=73 v=79
26848 On ch=3 n=73 v=0
26880 On ch=3 n=71 v=79
27006 On ch=3 n=71 v=0
27072 On ch=3 n=71 v=79
27136 On ch=3 n=71 v=0
27168 On ch=3 n=76 v=79
27328 On ch=3 n=76 v=0
27360 On ch=3 n=69 v=79
27520 On ch=3 n=69 v=0
27648 On ch=3 n=71 v=79
27744 On ch=3 n=71 v=0
27936 On ch=3 n=73 v=79
27968 On ch=3 n=73 v=0
27984 On ch=3 n=71 v=79
28158 On ch=3 n=71 v=0
28224 On ch=3 n=68 v=79
28288 On ch=3 n=68 v=0
28320 On ch=3 n=71 v=79
28480 On ch=3 n=71 v=0
29184 On ch=3 n=71 v=79
29374 On ch=3 n=71 v=0
29472 On ch=3 n=73 v=79
29504 On ch=3 n=73 v=0
29520 On ch=3 n=71 v=79
29758 On ch=3 n=71 v=0
29856 On ch=3 n=73 v=79
29920 On ch=3 n=73 v=0
29952 On ch=3 n=71 v=79
30078 On ch=3 n=71 v=0
30144 On ch=3 n=71 v=79
30208 On ch=3 n=71 v=0
30240 On ch=3 n=64 v=79
30304 On ch=3 n=64 v=0
30432 On ch=3 n=73 v=79
30432 On ch=3 n=76 v=79
30654 On ch=3 n=73 v=0
30654 On ch=3 n=76 v=0
30720 On ch=3 n=71 v=79
30910 On ch=3 n=71 v=0
31008 On ch=3 n=73 v=79
31040 On ch=3 n=73 v=0
31056 On ch=3 n=71 v=79
31230 On ch=3 n=71 v=0
31296 On ch=3 n=73 v=79
31360 On ch=3 n=73 v=0
31392 On ch=3 n=75 v=79
31742 On ch=3 n=75 v=0
31742 Meta TrkEnd
TrkEnd
MTrk
0 Meta TrkName "Piano"
192 Par ch=4 c=0 v=0
194 Par ch=4 c=32 v=0
196 PrCh ch=4 p=1
198 Par ch=4 c=1 v=0
200 Par ch=4 c=7 v=96
202 Par ch=4 c=10 v=36
204 Par ch=4 c=11 v=127
206 Par ch=4 c=64 v=0
208 Par ch=4 c=91 v=64
210 Par ch=4 c=93 v=64
212 Pb ch=4 v=8192
480 Par ch=4 c=7 v=96
2688 Pb ch=4 v=8192
2688 Par ch=4 c=1 v=0
2688 Par ch=4 c=64 v=0
2688 Par ch=4 c=11 v=127
2688 Par ch=4 c=91 v=64
2688 Par ch=4 c=93 v=64
4656 On ch=4 n=68 v=79
4656 On ch=4 n=71 v=79
4672 On ch=4 n=68 v=0
4672 On ch=4 n=71 v=0
4704 On ch=4 n=68 v=79
4704 On ch=4 n=71 v=79
4728 On ch=4 n=68 v=0
4728 On ch=4 n=71 v=0
4728 On ch=4 n=69 v=79
4728 On ch=4 n=73 v=79
4752 On ch=4 n=69 v=0
4752 On ch=4 n=73 v=0
4752 On ch=4 n=68 v=79
4752 On ch=4 n=71 v=79
4768 On ch=4 n=68 v=0
4768 On ch=4 n=71 v=0
4800 On ch=4 n=68 v=79
4800 On ch=4 n=71 v=79
4832 On ch=4 n=68 v=0
4832 On ch=4 n=71 v=0
4848 On ch=4 n=69 v=79
4848 On ch=4 n=73 v=79
4880 On ch=4 n=69 v=0
4880 On ch=4 n=73 v=0
4896 On ch=4 n=68 v=79
4896 On ch=4 n=71 v=79
4928 On ch=4 n=68 v=0
4928 On ch=4 n=71 v=0
4944 On ch=4 n=73 v=79
4944 On ch=4 n=76 v=79
5024 On ch=4 n=73 v=0
5024 On ch=4 n=76 v=0
5040 On ch=4 n=71 v=79
5040 On ch=4 n=75 v=79
5120 On ch=4 n=71 v=0
5120 On ch=4 n=75 v=0
5136 On ch=4 n=68 v=79
5136 On ch=4 n=71 v=79
5310 On ch=4 n=68 v=0
5310 On ch=4 n=71 v=0
5376 On ch=4 n=64 v=79
5376 On ch=4 n=68 v=79
5408 On ch=4 n=64 v=0
5408 On ch=4 n=68 v=0
5424 On ch=4 n=59 v=79
5456 On ch=4 n=59 v=0
5472 On ch=4 n=64 v=79
5472 On ch=4 n=68 v=79
5504 On ch=4 n=64 v=0
5504 On ch=4 n=68 v=0
5520 On ch=4 n=64 v=79
5520 On ch=4 n=68 v=79
5600 On ch=4 n=64 v=0
5600 On ch=4 n=68 v=0
5616 On ch=4 n=59 v=79
5648 On ch=4 n=59 v=0
5664 On ch=4 n=64 v=79
5664 On ch=4 n=68 v=79
5696 On ch=4 n=64 v=0
5696 On ch=4 n=68 v=0
5712 On ch=4 n=64 v=79
5712 On ch=4 n=68 v=79
5744 On ch=4 n=64 v=0
5744 On ch=4 n=68 v=0
5760 On ch=4 n=66 v=79
5760 On ch=4 n=69 v=79
5792 On ch=4 n=66 v=0
5792 On ch=4 n=69 v=0
5808 On ch=4 n=61 v=79
5840 On ch=4 n=61 v=0
5856 On ch=4 n=66 v=79
5856 On ch=4 n=69 v=79
5888 On ch=4 n=66 v=0
5888 On ch=4 n=69 v=0
5904 On ch=4 n=66 v=79
5904 On ch=4 n=69 v=79
5984 On ch=4 n=66 v=0
5984 On ch=4 n=69 v=0
6000 On ch=4 n=61 v=79
6032 On ch=4 n=61 v=0
6048 On ch=4 n=66 v=79
6048 On ch=4 n=69 v=79
6080 On ch=4 n=66 v=0
6080 On ch=4 n=69 v=0
6096 On ch=4 n=66 v=79
6096 On ch=4 n=69 v=79
6128 On ch=4 n=66 v=0
6128 On ch=4 n=69 v=0
6144 On ch=4 n=68 v=79
6144 On ch=4 n=71 v=79
6176 On ch=4 n=68 v=0
6176 On ch=4 n=71 v=0
6192 On ch=4 n=63 v=79
6224 On ch=4 n=63 v=0
6240 On ch=4 n=68 v=79
6240 On ch=4 n=71 v=79
6272 On ch=4 n=68 v=0
6272 On ch=4 n=71 v=0
6288 On ch=4 n=68 v=79
6288 On ch=4 n=71 v=79
6368 On ch=4 n=68 v=0
6368 On ch=4 n=71 v=0
6384 On ch=4 n=63 v=79
6416 On ch=4 n=63 v=0
6432 On ch=4 n=68 v=79
6432 On ch=4 n=71 v=79
6464 On ch=4 n=68 v=0
6464 On ch=4 n=71 v=0
6480 On ch=4 n=68 v=79
6480 On ch=4 n=71 v=79
6512 On ch=4 n=68 v=0
6512 On ch=4 n=71 v=0
6528 On ch=4 n=66 v=79
6528 On ch=4 n=69 v=79
6560 On ch=4 n=66 v=0
6560 On ch=4 n=69 v=0
6576 On ch=4 n=61 v=79
6608 On ch=4 n=61 v=0
6624 On ch=4 n=66 v=79
6624 On ch=4 n=69 v=79
6656 On ch=4 n=66 v=0
6656 On ch=4 n=69 v=0
6672 On ch=4 n=66 v=79
6672 On ch=4 n=69 v=79
6752 On ch=4 n=66 v=0
6752 On ch=4 n=69 v=0
6768 On ch=4 n=61 v=79
6800 On ch=4 n=61 v=0
6816 On ch=4 n=66 v=79
6816 On ch=4 n=69 v=79
6848 On ch=4 n=66 v=0
6848 On ch=4 n=69 v=0
6864 On ch=4 n=66 v=79
6864 On ch=4 n=69 v=79
6896 On ch=4 n=66 v=0
6896 On ch=4 n=69 v=0
6912 On ch=4 n=64 v=79
6912 On ch=4 n=68 v=79
6944 On ch=4 n=64 v=0
6944 On ch=4 n=68 v=0
6960 On ch=4 n=59 v=79
6992 On ch=4 n=59 v=0
7008 On ch=4 n=64 v=79
7008 On ch=4 n=68 v=79
7040 On ch=4 n=64 v=0
7040 On ch=4 n=68 v=0
7056 On ch=4 n=64 v=79
7056 On ch=4 n=68 v=79
7136 On ch=4 n=64 v=0
7136 On ch=4 n=68 v=0
7152 On ch=4 n=59 v=79
7184 On ch=4 n=59 v=0
7200 On ch=4 n=64 v=79
7200 On ch=4 n=68 v=79
7232 On ch=4 n=64 v=0
7232 On ch=4 n=68 v=0
7248 On ch=4 n=64 v=79
7248 On ch=4 n=68 v=79
7280 On ch=4 n=64 v=0
7280 On ch=4 n=68 v=0
7296 On ch=4 n=66 v=79
7296 On ch=4 n=69 v=79
7328 On ch=4 n=66 v=0
7328 On ch=4 n=69 v=0
7344 On ch=4 n=61 v=79
7376 On ch=4 n=61 v=0
7392 On ch=4 n=66 v=79
7392 On ch=4 n=69 v=79
7424 On ch=4 n=66 v=0
7424 On ch=4 n=69 v=0
7440 On ch=4 n=66 v=79
7440 On ch=4 n=69 v=79
7520 On ch=4 n=66 v=0
7520 On ch=4 n=69 v=0
7536 On ch=4 n=61 v=79
7568 On ch=4 n=61 v=0
7584 On ch=4 n=66 v=79
7584 On ch=4 n=69 v=79
7616 On ch=4 n=66 v=0
7616 On ch=4 n=69 v=0
7632 On ch=4 n=66 v=79
7632 On ch=4 n=69 v=79
7664 On ch=4 n=66 v=0
7664 On ch=4 n=69 v=0
7680 On ch=4 n=68 v=79
7680 On ch=4 n=71 v=79
7712 On ch=4 n=68 v=0
7712 On ch=4 n=71 v=0
7728 On ch=4 n=63 v=79
7760 On ch=4 n=63 v=0
7776 On ch=4 n=68 v=79
7776 On ch=4 n=71 v=79
7808 On ch=4 n=68 v=0
7808 On ch=4 n=71 v=0
7824 On ch=4 n=68 v=79
7824 On ch=4 n=71 v=79
7904 On ch=4 n=68 v=0
7904 On ch=4 n=71 v=0
7920 On ch=4 n=63 v=79
7952 On ch=4 n=63 v=0
7968 On ch=4 n=68 v=79
7968 On ch=4 n=71 v=79
8000 On ch=4 n=68 v=0
8000 On ch=4 n=71 v=0
8016 On ch=4 n=68 v=79
8016 On ch=4 n=71 v=79
8048 On ch=4 n=68 v=0
8048 On ch=4 n=71 v=0
8064 On ch=4 n=66 v=79
8064 On ch=4 n=69 v=79
8096 On ch=4 n=66 v=0
8096 On ch=4 n=69 v=0
8112 On ch=4 n=61 v=79
8144 On ch=4 n=61 v=0
8160 On ch=4 n=66 v=79
8160 On ch=4 n=69 v=79
8192 On ch=4 n=66 v=0
8192 On ch=4 n=69 v=0
8208 On ch=4 n=66 v=79
8208 On ch=4 n=69 v=79
8288 On ch=4 n=66 v=0
8288 On ch=4 n=69 v=0
8304 On ch=4 n=61 v=79
8336 On ch=4 n=61 v=0
8352 On ch=4 n=66 v=79
8352 On ch=4 n=69 v=79
8384 On ch=4 n=66 v=0
8384 On ch=4 n=69 v=0
8400 On ch=4 n=66 v=79
8400 On ch=4 n=69 v=79
8432 On ch=4 n=66 v=0
8432 On ch=4 n=69 v=0
8448 On ch=4 n=64 v=79
8448 On ch=4 n=68 v=79
8480 On ch=4 n=64 v=0
8480 On ch=4 n=68 v=0
8496 On ch=4 n=59 v=79
8528 On ch=4 n=59 v=0
8544 On ch=4 n=64 v=79
8544 On ch=4 n=68 v=79
8576 On ch=4 n=64 v=0
8576 On ch=4 n=68 v=0
8592 On ch=4 n=64 v=79
8592 On ch=4 n=68 v=79
8672 On ch=4 n=64 v=0
8672 On ch=4 n=68 v=0
8688 On ch=4 n=59 v=79
8720 On ch=4 n=59 v=0
8736 On ch=4 n=64 v=79
8736 On ch=4 n=68 v=79
8768 On ch=4 n=64 v=0
8768 On ch=4 n=68 v=0
8784 On ch=4 n=64 v=79
8784 On ch=4 n=68 v=79
8816 On ch=4 n=64 v=0
8816 On ch=4 n=68 v=0
8832 On ch=4 n=66 v=79
8832 On ch=4 n=69 v=79
8864 On ch=4 n=66 v=0
8864 On ch=4 n=69 v=0
8880 On ch=4 n=61 v=79
8912 On ch=4 n=61 v=0
8928 On ch=4 n=66 v=79
8928 On ch=4 n=69 v=79
8960 On ch=4 n=66 v=0
8960 On ch=4 n=69 v=0
8976 On ch=4 n=66 v=79
8976 On ch=4 n=69 v=79
9056 On ch=4 n=66 v=0
9056 On ch=4 n=69 v=0
9072 On ch=4 n=61 v=79
9104 On ch=4 n=61 v=0
9120 On ch=4 n=66 v=79
9120 On ch=4 n=69 v=79
9152 On ch=4 n=66 v=0
9152 On ch=4 n=69 v=0
9168 On ch=4 n=66 v=79
9168 On ch=4 n=69 v=79
9200 On ch=4 n=66 v=0
9200 On ch=4 n=69 v=0
9216 On ch=4 n=68 v=79
9216 On ch=4 n=71 v=79
9248 On ch=4 n=68 v=0
9248 On ch=4 n=71 v=0
9264 On ch=4 n=63 v=79
9296 On ch=4 n=63 v=0
9312 On ch=4 n=68 v=79
9312 On ch=4 n=71 v=79
9344 On ch=4 n=68 v=0
9344 On ch=4 n=71 v=0
9360 On ch=4 n=68 v=79
9360 On ch=4 n=71 v=79
9440 On ch=4 n=68 v=0
9440 On ch=4 n=71 v=0
9456 On ch=4 n=63 v=79
9488 On ch=4 n=63 v=0
9504 On ch=4 n=68 v=79
9504 On ch=4 n=71 v=79
9536 On ch=4 n=68 v=0
9536 On ch=4 n=71 v=0
9552 On ch=4 n=68 v=79
9552 On ch=4 n=71 v=79
9584 On ch=4 n=68 v=0
9584 On ch=4 n=71 v=0
9600 On ch=4 n=66 v=79
9600 On ch=4 n=69 v=79
9632 On ch=4 n=66 v=0
9632 On ch=4 n=69 v=0
9648 On ch=4 n=61 v=79
9680 On ch=4 n=61 v=0
9696 On ch=4 n=66 v=79
9696 On ch=4 n=69 v=79
9728 On ch=4 n=66 v=0
9728 On ch=4 n=69 v=0
9744 On ch=4 n=66 v=79
9744 On ch=4 n=69 v=79
9824 On ch=4 n=66 v=0
9824 On ch=4 n=69 v=0
9840 On ch=4 n=61 v=79
9872 On ch=4 n=61 v=0
9888 On ch=4 n=66 v=79
9888 On ch=4 n=69 v=79
9920 On ch=4 n=66 v=0
9920 On ch=4 n=69 v=0
9936 On ch=4 n=66 v=79
9936 On ch=4 n=69 v=79
9968 On ch=4 n=66 v=0
9968 On ch=4 n=69 v=0
9984 On ch=4 n=64 v=79
9984 On ch=4 n=68 v=79
10016 On ch=4 n=64 v=0
10016 On ch=4 n=68 v=0
10032 On ch=4 n=59 v=79
10064 On ch=4 n=59 v=0
10080 On ch=4 n=64 v=79
10080 On ch=4 n=68 v=79
10112 On ch=4 n=64 v=0
10112 On ch=4 n=68 v=0
10128 On ch=4 n=64 v=79
10128 On ch=4 n=68 v=79
10208 On ch=4 n=64 v=0
10208 On ch=4 n=68 v=0
10224 On ch=4 n=59 v=79
10256 On ch=4 n=59 v=0
10272 On ch=4 n=64 v=79
10272 On ch=4 n=68 v=79
10304 On ch=4 n=64 v=0
10304 On ch=4 n=68 v=0
10320 On ch=4 n=64 v=79
10320 On ch=4 n=68 v=79
10352 On ch=4 n=64 v=0
10352 On ch=4 n=68 v=0
10368 On ch=4 n=66 v=79
10368 On ch=4 n=69 v=79
10400 On ch=4 n=66 v=0
10400 On ch=4 n=69 v=0
10416 On ch=4 n=61 v=79
10448 On ch=4 n=61 v=0
10464 On ch=4 n=66 v=79
10464 On ch=4 n=69 v=79
10496 On ch=4 n=66 v=0
10496 On ch=4 n=69 v=0
10512 On ch=4 n=66 v=79
10512 On ch=4 n=69 v=79
10592 On ch=4 n=66 v=0
10592 On ch=4 n=69 v=0
10608 On ch=4 n=61 v=79
10640 On ch=4 n=61 v=0
10656 On ch=4 n=66 v=79
10656 On ch=4 n=69 v=79
10688 On ch=4 n=66 v=0
10688 On ch=4 n=69 v=0
10704 On ch=4 n=66 v=79
10704 On ch=4 n=69 v=79
10736 On ch=4 n=66 v=0
10736 On ch=4 n=69 v=0
10752 On ch=4 n=68 v=79
10752 On ch=4 n=71 v=79
10784 On ch=4 n=68 v=0
10784 On ch=4 n=71 v=0
10800 On ch=4 n=63 v=79
10832 On ch=4 n=63 v=0
10848 On ch=4 n=68 v=79
10848 On ch=4 n=71 v=79
10880 On ch=4 n=68 v=0
10880 On ch=4 n=71 v=0
10896 On ch=4 n=68 v=79
10896 On ch=4 n=71 v=79
10976 On ch=4 n=68 v=0
10976 On ch=4 n=71 v=0
10992 On ch=4 n=63 v=79
11024 On ch=4 n=63 v=0
11040 On ch=4 n=68 v=79
11040 On ch=4 n=71 v=79
11072 On ch=4 n=68 v=0
11072 On ch=4 n=71 v=0
11088 On ch=4 n=68 v=79
11088 On ch=4 n=71 v=79
11120 On ch=4 n=68 v=0
11120 On ch=4 n=71 v=0
11136 On ch=4 n=66 v=79
11136 On ch=4 n=69 v=79
11168 On ch=4 n=66 v=0
11168 On ch=4 n=69 v=0
11184 On ch=4 n=61 v=79
11216 On ch=4 n=61 v=0
11232 On ch=4 n=66 v=79
11232 On ch=4 n=69 v=79
11264 On ch=4 n=66 v=0
11264 On ch=4 n=69 v=0
11280 On ch=4 n=66 v=79
11280 On ch=4 n=69 v=79
11360 On ch=4 n=66 v=0
11360 On ch=4 n=69 v=0
11376 On ch=4 n=61 v=79
11408 On ch=4 n=61 v=0
11424 On ch=4 n=66 v=79
11424 On ch=4 n=69 v=79
11456 On ch=4 n=66 v=0
11456 On ch=4 n=69 v=0
11472 On ch=4 n=66 v=79
11472 On ch=4 n=69 v=79
11504 On ch=4 n=66 v=0
11504 On ch=4 n=69 v=0
11520 On ch=4 n=66 v=79
11520 On ch=4 n=69 v=79
11552 On ch=4 n=66 v=0
11552 On ch=4 n=69 v=0
11568 On ch=4 n=61 v=79
11600 On ch=4 n=61 v=0
11616 On ch=4 n=66 v=79
11616 On ch=4 n=69 v=79
11648 On ch=4 n=66 v=0
11648 On ch=4 n=69 v=0
11664 On ch=4 n=66 v=79
11664 On ch=4 n=69 v=79
11744 On ch=4 n=66 v=0
11744 On ch=4 n=69 v=0
11760 On ch=4 n=61 v=79
11792 On ch=4 n=61 v=0
11808 On ch=4 n=66 v=79
11808 On ch=4 n=69 v=79
11840 On ch=4 n=66 v=0
11840 On ch=4 n=69 v=0
11856 On ch=4 n=66 v=79
11856 On ch=4 n=69 v=79
11888 On ch=4 n=66 v=0
11888 On ch=4 n=69 v=0
11904 On ch=4 n=66 v=79
11904 On ch=4 n=69 v=79
11936 On ch=4 n=66 v=0
11936 On ch=4 n=69 v=0
11952 On ch=4 n=61 v=79
11984 On ch=4 n=61 v=0
12000 On ch=4 n=66 v=79
12000 On ch=4 n=69 v=79
12032 On ch=4 n=66 v=0
12032 On ch=4 n=69 v=0
12048 On ch=4 n=66 v=79
12048 On ch=4 n=69 v=79
12128 On ch=4 n=66 v=0
12128 On ch=4 n=69 v=0
12144 On ch=4 n=61 v=79
12176 On ch=4 n=61 v=0
12192 On ch=4 n=66 v=79
12192 On ch=4 n=69 v=79
12224 On ch=4 n=66 v=0
12224 On ch=4 n=69 v=0
12240 On ch=4 n=66 v=79
12240 On ch=4 n=69 v=79
12272 On ch=4 n=66 v=0
12272 On ch=4 n=69 v=0
12288 On ch=4 n=66 v=79
12288 On ch=4 n=69 v=79
12320 On ch=4 n=66 v=0
12320 On ch=4 n=69 v=0
12336 On ch=4 n=61 v=79
12368 On ch=4 n=61 v=0
12384 On ch=4 n=66 v=79
12384 On ch=4 n=69 v=79
12416 On ch=4 n=66 v=0
12416 On ch=4 n=69 v=0
12432 On ch=4 n=66 v=79
12432 On ch=4 n=69 v=79
12512 On ch=4 n=66 v=0
12512 On ch=4 n=69 v=0
12528 On ch=4 n=61 v=79
12560 On ch=4 n=61 v=0
12576 On ch=4 n=66 v=79
12576 On ch=4 n=69 v=79
12608 On ch=4 n=66 v=0
12608 On ch=4 n=69 v=0
12624 On ch=4 n=66 v=79
12624 On ch=4 n=69 v=79
12656 On ch=4 n=66 v=0
12656 On ch=4 n=69 v=0
12672 On ch=4 n=64 v=79
12672 On ch=4 n=68 v=79
12704 On ch=4 n=64 v=0
12704 On ch=4 n=68 v=0
12720 On ch=4 n=59 v=79
12752 On ch=4 n=59 v=0
12768 On ch=4 n=64 v=79
12768 On ch=4 n=68 v=79
12800 On ch=4 n=64 v=0
12800 On ch=4 n=68 v=0
12816 On ch=4 n=64 v=79
12816 On ch=4 n=68 v=79
12896 On ch=4 n=64 v=0
12896 On ch=4 n=68 v=0
12912 On ch=4 n=59 v=79
12944 On ch=4 n=59 v=0
12960 On ch=4 n=64 v=79
12960 On ch=4 n=68 v=79
12992 On ch=4 n=64 v=0
12992 On ch=4 n=68 v=0
13008 On ch=4 n=64 v=79
13008 On ch=4 n=68 v=79
13040 On ch=4 n=64 v=0
13040 On ch=4 n=68 v=0
13056 On ch=4 n=66 v=79
13056 On ch=4 n=69 v=79
13088 On ch=4 n=66 v=0
13088 On ch=4 n=69 v=0
13104 On ch=4 n=61 v=79
13136 On ch=4 n=61 v=0
13152 On ch=4 n=66 v=79
13152 On ch=4 n=69 v=79
13184 On ch=4 n=66 v=0
13184 On ch=4 n=69 v=0
13200 On ch=4 n=66 v=79
13200 On ch=4 n=69 v=79
13280 On ch=4 n=66 v=0
13280 On ch=4 n=69 v=0
13296 On ch=4 n=61 v=79
13328 On ch=4 n=61 v=0
13344 On ch=4 n=66 v=79
13344 On ch=4 n=69 v=79
13376 On ch=4 n=66 v=0
13376 On ch=4 n=69 v=0
13392 On ch=4 n=66 v=79
13392 On ch=4 n=69 v=79
13424 On ch=4 n=66 v=0
13424 On ch=4 n=69 v=0
13440 On ch=4 n=68 v=79
13440 On ch=4 n=71 v=79
13472 On ch=4 n=68 v=0
13472 On ch=4 n=71 v=0
13488 On ch=4 n=63 v=79
13520 On ch=4 n=63 v=0
13536 On ch=4 n=68 v=79
13536 On ch=4 n=71 v=79
13568 On ch=4 n=68 v=0
13568 On ch=4 n=71 v=0
13584 On ch=4 n=68 v=79
13584 On ch=4 n=71 v=79
13616 On ch=4 n=68 v=0
13616 On ch=4 n=71 v=0
13632 On ch=4 n=68 v=79
13632 On ch=4 n=71 v=79
13664 On ch=4 n=68 v=0
13664 On ch=4 n=71 v=0
13680 On ch=4 n=63 v=79
13712 On ch=4 n=63 v=0
13728 On ch=4 n=68 v=79
13728 On ch=4 n=71 v=79
13760 On ch=4 n=68 v=0
13760 On ch=4 n=71 v=0
13776 On ch=4 n=68 v=79
13776 On ch=4 n=71 v=79
13808 On ch=4 n=68 v=0
13808 On ch=4 n=71 v=0
13824 On ch=4 n=66 v=79
13824 On ch=4 n=69 v=79
13856 On ch=4 n=66 v=0
13856 On ch=4 n=69 v=0
13872 On ch=4 n=61 v=79
13904 On ch=4 n=61 v=0
13920 On ch=4 n=66 v=79
13920 On ch=4 n=69 v=79
13952 On ch=4 n=66 v=0
13952 On ch=4 n=69 v=0
13968 On ch=4 n=66 v=79
13968 On ch=4 n=69 v=79
14048 On ch=4 n=66 v=0
14048 On ch=4 n=69 v=0
14064 On ch=4 n=61 v=79
14096 On ch=4 n=61 v=0
14112 On ch=4 n=66 v=79
14112 On ch=4 n=69 v=79
14144 On ch=4 n=66 v=0
14144 On ch=4 n=69 v=0
14160 On ch=4 n=66 v=79
14160 On ch=4 n=69 v=79
14192 On ch=4 n=66 v=0
14192 On ch=4 n=69 v=0
14208 On ch=4 n=64 v=79
14208 On ch=4 n=68 v=79
14240 On ch=4 n=64 v=0
14240 On ch=4 n=68 v=0
14256 On ch=4 n=59 v=79
14288 On ch=4 n=59 v=0
14304 On ch=4 n=64 v=79
14304 On ch=4 n=68 v=79
14336 On ch=4 n=64 v=0
14336 On ch=4 n=68 v=0
14352 On ch=4 n=64 v=79
14352 On ch=4 n=68 v=79
14432 On ch=4 n=64 v=0
14432 On ch=4 n=68 v=0
14448 On ch=4 n=59 v=79
14480 On ch=4 n=59 v=0
14496 On ch=4 n=64 v=79
14496 On ch=4 n=68 v=79
14528 On ch=4 n=64 v=0
14528 On ch=4 n=68 v=0
14544 On ch=4 n=64 v=79
14544 On ch=4 n=68 v=79
14576 On ch=4 n=64 v=0
14576 On ch=4 n=68 v=0
14592 On ch=4 n=66 v=79
14592 On ch=4 n=69 v=79
14624 On ch=4 n=66 v=0
14624 On ch=4 n=69 v=0
14640 On ch=4 n=61 v=79
14672 On ch=4 n=61 v=0
14688 On ch=4 n=66 v=79
14688 On ch=4 n=69 v=79
14720 On ch=4 n=66 v=0
14720 On ch=4 n=69 v=0
14736 On ch=4 n=66 v=79
14736 On ch=4 n=69 v=79
14816 On ch=4 n=66 v=0
14816 On ch=4 n=69 v=0
14832 On ch=4 n=61 v=79
14864 On ch=4 n=61 v=0
14880 On ch=4 n=66 v=79
14880 On ch=4 n=69 v=79
14912 On ch=4 n=66 v=0
14912 On ch=4 n=69 v=0
14928 On ch=4 n=66 v=79
14928 On ch=4 n=69 v=79
14960 On ch=4 n=66 v=0
14960 On ch=4 n=69 v=0
14976 On ch=4 n=68 v=79
14976 On ch=4 n=71 v=79
15008 On ch=4 n=68 v=0
15008 On ch=4 n=71 v=0
15024 On ch=4 n=63 v=79
15056 On ch=4 n=63 v=0
15072 On ch=4 n=68 v=79
15072 On ch=4 n=71 v=79
15104 On ch=4 n=68 v=0
15104 On ch=4 n=71 v=0
15120 On ch=4 n=68 v=79
15120 On ch=4 n=71 v=79
15200 On ch=4 n=68 v=0
15200 On ch=4 n=71 v=0
15216 On ch=4 n=63 v=79
15248 On ch=4 n=63 v=0
15264 On ch=4 n=68 v=79
15264 On ch=4 n=71 v=79
15296 On ch=4 n=68 v=0
15296 On ch=4 n=71 v=0
15312 On ch=4 n=68 v=79
15312 On ch=4 n=71 v=79
15344 On ch=4 n=68 v=0
15344 On ch=4 n=71 v=0
15360 On ch=4 n=66 v=79
15360 On ch=4 n=69 v=79
15392 On ch=4 n=66 v=0
15392 On ch=4 n=69 v=0
15408 On ch=4 n=61 v=79
15440 On ch=4 n=61 v=0
15456 On ch=4 n=66 v=79
15456 On ch=4 n=69 v=79
15488 On ch=4 n=66 v=0
15488 On ch=4 n=69 v=0
15504 On ch=4 n=66 v=79
15504 On ch=4 n=69 v=79
15584 On ch=4 n=66 v=0
15584 On ch=4 n=69 v=0
15600 On ch=4 n=61 v=79
15632 On ch=4 n=61 v=0
15648 On ch=4 n=66 v=79
15648 On ch=4 n=69 v=79
15680 On ch=4 n=66 v=0
15680 On ch=4 n=69 v=0
15696 On ch=4 n=68 v=79
15696 On ch=4 n=69 v=79
15728 On ch=4 n=68 v=0
15728 On ch=4 n=69 v=0
15744 On ch=4 n=64 v=79
15744 On ch=4 n=68 v=79
15776 On ch=4 n=64 v=0
15776 On ch=4 n=68 v=0
15792 On ch=4 n=59 v=79
15824 On ch=4 n=59 v=0
15840 On ch=4 n=64 v=79
15840 On ch=4 n=68 v=79
15872 On ch=4 n=64 v=0
15872 On ch=4 n=68 v=0
15888 On ch=4 n=64 v=79
15888 On ch=4 n=68 v=79
15968 On ch=4 n=64 v=0
15968 On ch=4 n=68 v=0
15984 On ch=4 n=59 v=79
16016 On ch=4 n=59 v=0
16032 On ch=4 n=64 v=79
16032 On ch=4 n=68 v=79
16064 On ch=4 n=64 v=0
16064 On ch=4 n=68 v=0
16080 On ch=4 n=64 v=79
16080 On ch=4 n=68 v=79
16112 On ch=4 n=64 v=0
16112 On ch=4 n=68 v=0
16128 On ch=4 n=66 v=79
16128 On ch=4 n=69 v=79
16160 On ch=4 n=66 v=0
16160 On ch=4 n=69 v=0
16176 On ch=4 n=61 v=79
16208 On ch=4 n=61 v=0
16224 On ch=4 n=66 v=79
16224 On ch=4 n=69 v=79
16256 On ch=4 n=66 v=0
16256 On ch=4 n=69 v=0
16272 On ch=4 n=66 v=79
16272 On ch=4 n=69 v=79
16352 On ch=4 n=66 v=0
16352 On ch=4 n=69 v=0
16368 On ch=4 n=61 v=79
16400 On ch=4 n=61 v=0
16416 On ch=4 n=66 v=79
16416 On ch=4 n=69 v=79
16448 On ch=4 n=66 v=0
16448 On ch=4 n=69 v=0
16464 On ch=4 n=66 v=79
16464 On ch=4 n=69 v=79
16496 On ch=4 n=66 v=0
16496 On ch=4 n=69 v=0
16512 On ch=4 n=68 v=79
16512 On ch=4 n=71 v=79
16544 On ch=4 n=68 v=0
16544 On ch=4 n=71 v=0
16560 On ch=4 n=63 v=79
16592 On ch=4 n=63 v=0
16608 On ch=4 n=68 v=79
16608 On ch=4 n=71 v=79
16640 On ch=4 n=68 v=0
16640 On ch=4 n=71 v=0
16656 On ch=4 n=68 v=79
16656 On ch=4 n=71 v=79
16736 On ch=4 n=68 v=0
16736 On ch=4 n=71 v=0
16752 On ch=4 n=63 v=79
16784 On ch=4 n=63 v=0
16800 On ch=4 n=68 v=79
16800 On ch=4 n=71 v=79
16832 On ch=4 n=68 v=0
16832 On ch=4 n=71 v=0
16848 On ch=4 n=68 v=79
16848 On ch=4 n=71 v=79
16880 On ch=4 n=68 v=0
16880 On ch=4 n=71 v=0
16896 On ch=4 n=66 v=79
16896 On ch=4 n=69 v=79
16928 On ch=4 n=66 v=0
16928 On ch=4 n=69 v=0
16944 On ch=4 n=61 v=79
16976 On ch=4 n=61 v=0
16992 On ch=4 n=66 v=79
16992 On ch=4 n=69 v=79
17024 On ch=4 n=66 v=0
17024 On ch=4 n=69 v=0
17040 On ch=4 n=66 v=79
17040 On ch=4 n=69 v=79
17120 On ch=4 n=66 v=0
17120 On ch=4 n=69 v=0
17136 On ch=4 n=61 v=79
17168 On ch=4 n=61 v=0
17184 On ch=4 n=66 v=79
17184 On ch=4 n=69 v=79
17248 On ch=4 n=66 v=0
17248 On ch=4 n=69 v=0
17376 On ch=4 n=80 v=79
17376 On ch=4 n=76 v=79
17376 On ch=4 n=83 v=79
17598 On ch=4 n=76 v=0
17598 On ch=4 n=80 v=0
17598 On ch=4 n=83 v=0
17760 On ch=4 n=78 v=79
17760 On ch=4 n=73 v=79
17760 On ch=4 n=81 v=79
17982 On ch=4 n=73 v=0
17982 On ch=4 n=78 v=0
17982 On ch=4 n=81 v=0
18048 On ch=4 n=75 v=79
18048 On ch=4 n=71 v=79
18048 On ch=4 n=80 v=79
18302 On ch=4 n=71 v=0
18302 On ch=4 n=75 v=0
18302 On ch=4 n=80 v=0
18528 On ch=4 n=78 v=79
18528 On ch=4 n=73 v=79
18528 On ch=4 n=81 v=79
18560 On ch=4 n=73 v=0
18560 On ch=4 n=78 v=0
18576 On ch=4 n=81 v=0
18576 On ch=4 n=80 v=79
18608 On ch=4 n=80 v=0
18624 On ch=4 n=78 v=79
18624 On ch=4 n=73 v=79
18624 On ch=4 n=81 v=79
18656 On ch=4 n=73 v=0
18656 On ch=4 n=78 v=0
18656 On ch=4 n=81 v=0
18672 On ch=4 n=81 v=79
18672 On ch=4 n=76 v=79
18672 On ch=4 n=85 v=79
18784 On ch=4 n=76 v=0
18784 On ch=4 n=81 v=0
18784 On ch=4 n=85 v=0
18912 On ch=4 n=80 v=79
18912 On ch=4 n=76 v=79
18912 On ch=4 n=83 v=79
19134 On ch=4 n=76 v=0
19134 On ch=4 n=80 v=0
19134 On ch=4 n=83 v=0
19296 On ch=4 n=78 v=79
19296 On ch=4 n=73 v=79
19296 On ch=4 n=81 v=79
19518 On ch=4 n=73 v=0
19518 On ch=4 n=78 v=0
19518 On ch=4 n=81 v=0
19584 On ch=4 n=75 v=79
19584 On ch=4 n=71 v=79
19584 On ch=4 n=80 v=79
19838 On ch=4 n=71 v=0
19838 On ch=4 n=75 v=0
19838 On ch=4 n=80 v=0
20064 On ch=4 n=78 v=79
20064 On ch=4 n=73 v=79
20064 On ch=4 n=81 v=79
20096 On ch=4 n=73 v=0
20096 On ch=4 n=78 v=0
20112 On ch=4 n=81 v=0
20112 On ch=4 n=80 v=79
20144 On ch=4 n=80 v=0
20160 On ch=4 n=78 v=79
20160 On ch=4 n=73 v=79
20160 On ch=4 n=81 v=79
20192 On ch=4 n=73 v=0
20192 On ch=4 n=78 v=0
20192 On ch=4 n=81 v=0
20208 On ch=4 n=81 v=79
20208 On ch=4 n=76 v=79
20208 On ch=4 n=85 v=79
20320 On ch=4 n=76 v=0
20320 On ch=4 n=81 v=0
20320 On ch=4 n=85 v=0
20448 On ch=4 n=80 v=79
20448 On ch=4 n=76 v=79
20448 On ch=4 n=83 v=79
20670 On ch=4 n=76 v=0
20670 On ch=4 n=80 v=0
20670 On ch=4 n=83 v=0
20832 On ch=4 n=78 v=79
20832 On ch=4 n=73 v=79
20832 On ch=4 n=81 v=79
21054 On ch=4 n=73 v=0
21054 On ch=4 n=78 v=0
21054 On ch=4 n=81 v=0
21120 On ch=4 n=75 v=79
21120 On ch=4 n=71 v=79
21120 On ch=4 n=80 v=79
21374 On ch=4 n=71 v=0
21374 On ch=4 n=75 v=0
21374 On ch=4 n=80 v=0
21600 On ch=4 n=78 v=79
21600 On ch=4 n=73 v=79
21600 On ch=4 n=81 v=79
21632 On ch=4 n=73 v=0
21632 On ch=4 n=78 v=0
21648 On ch=4 n=81 v=0
21648 On ch=4 n=80 v=79
21680 On ch=4 n=80 v=0
21696 On ch=4 n=78 v=79
21696 On ch=4 n=73 v=79
21696 On ch=4 n=81 v=79
21728 On ch=4 n=73 v=0
21728 On ch=4 n=78 v=0
21728 On ch=4 n=81 v=0
21744 On ch=4 n=81 v=79
21744 On ch=4 n=76 v=79
21744 On ch=4 n=85 v=79
21856 On ch=4 n=76 v=0
21856 On ch=4 n=81 v=0
21856 On ch=4 n=85 v=0
21984 On ch=4 n=80 v=79
21984 On ch=4 n=76 v=79
21984 On ch=4 n=83 v=79
22206 On ch=4 n=76 v=0
22206 On ch=4 n=80 v=0
22206 On ch=4 n=83 v=0
22368 On ch=4 n=78 v=79
22368 On ch=4 n=73 v=79
22368 On ch=4 n=81 v=79
22590 On ch=4 n=73 v=0
22590 On ch=4 n=78 v=0
22590 On ch=4 n=81 v=0
22656 On ch=4 n=75 v=79
22656 On ch=4 n=71 v=79
22656 On ch=4 n=80 v=79
22910 On ch=4 n=71 v=0
22910 On ch=4 n=75 v=0
22910 On ch=4 n=80 v=0
23136 On ch=4 n=78 v=79
23136 On ch=4 n=73 v=79
23136 On ch=4 n=81 v=79
23168 On ch=4 n=73 v=0
23168 On ch=4 n=78 v=0
23184 On ch=4 n=81 v=0
23184 On ch=4 n=80 v=79
23216 On ch=4 n=80 v=0
23232 On ch=4 n=78 v=79
23232 On ch=4 n=73 v=79
23232 On ch=4 n=81 v=79
23264 On ch=4 n=73 v=0
23264 On ch=4 n=78 v=0
23264 On ch=4 n=81 v=0
23280 On ch=4 n=81 v=79
23280 On ch=4 n=76 v=79
23280 On ch=4 n=85 v=79
23392 On ch=4 n=76 v=0
23392 On ch=4 n=81 v=0
23392 On ch=4 n=85 v=0
23424 On ch=4 n=78 v=79
23424 On ch=4 n=73 v=79
23424 On ch=4 n=81 v=79
23456 On ch=4 n=73 v=0
23456 On ch=4 n=78 v=0
23472 On ch=4 n=81 v=0
23472 On ch=4 n=80 v=79
23504 On ch=4 n=80 v=0
23520 On ch=4 n=78 v=79
23520 On ch=4 n=73 v=79
23520 On ch=4 n=81 v=79
23552 On ch=4 n=73 v=0
23552 On ch=4 n=78 v=0
23552 On ch=4 n=81 v=0
23568 On ch=4 n=81 v=79
23568 On ch=4 n=76 v=79
23568 On ch=4 n=85 v=79
23600 On ch=4 n=76 v=0
23616 On ch=4 n=76 v=79
23742 On ch=4 n=76 v=0
23742 On ch=4 n=81 v=0
23742 On ch=4 n=85 v=0
23808 On ch=4 n=66 v=79
23808 On ch=4 n=69 v=79
23840 On ch=4 n=66 v=0
23840 On ch=4 n=69 v=0
23856 On ch=4 n=61 v=79
23888 On ch=4 n=61 v=0
23904 On ch=4 n=66 v=79
23904 On ch=4 n=69 v=79
23936 On ch=4 n=66 v=0
23936 On ch=4 n=69 v=0
23952 On ch=4 n=66 v=79
23952 On ch=4 n=69 v=79
24032 On ch=4 n=66 v=0
24032 On ch=4 n=69 v=0
24048 On ch=4 n=61 v=79
24080 On ch=4 n=61 v=0
24096 On ch=4 n=66 v=79
24096 On ch=4 n=69 v=79
24128 On ch=4 n=66 v=0
24128 On ch=4 n=69 v=0
24144 On ch=4 n=66 v=79
24144 On ch=4 n=69 v=79
24176 On ch=4 n=66 v=0
24176 On ch=4 n=69 v=0
24192 On ch=4 n=66 v=79
24192 On ch=4 n=69 v=79
24224 On ch=4 n=66 v=0
24224 On ch=4 n=69 v=0
24240 On ch=4 n=61 v=79
24272 On ch=4 n=61 v=0
24288 On ch=4 n=66 v=79
24288 On ch=4 n=69 v=79
24320 On ch=4 n=66 v=0
24320 On ch=4 n=69 v=0
24336 On ch=4 n=66 v=79
24336 On ch=4 n=69 v=79
24416 On ch=4 n=66 v=0
24416 On ch=4 n=69 v=0
24432 On ch=4 n=61 v=79
24464 On ch=4 n=61 v=0
24480 On ch=4 n=66 v=79
24480 On ch=4 n=69 v=79
24512 On ch=4 n=66 v=0
24512 On ch=4 n=69 v=0
24528 On ch=4 n=66 v=79
24528 On ch=4 n=69 v=79
24560 On ch=4 n=66 v=0
24560 On ch=4 n=69 v=0
24576 On ch=4 n=64 v=79
24576 On ch=4 n=68 v=79
24608 On ch=4 n=64 v=0
24608 On ch=4 n=68 v=0
24624 On ch=4 n=59 v=79
24656 On ch=4 n=59 v=0
24672 On ch=4 n=64 v=79
24672 On ch=4 n=68 v=79
24704 On ch=4 n=64 v=0
24704 On ch=4 n=68 v=0
24720 On ch=4 n=64 v=79
24720 On ch=4 n=68 v=79
24800 On ch=4 n=64 v=0
24800 On ch=4 n=68 v=0
24816 On ch=4 n=59 v=79
24848 On ch=4 n=59 v=0
24864 On ch=4 n=64 v=79
24864 On ch=4 n=68 v=79
24896 On ch=4 n=64 v=0
24896 On ch=4 n=68 v=0
24912 On ch=4 n=64 v=79
24912 On ch=4 n=68 v=79
24944 On ch=4 n=64 v=0
24944 On ch=4 n=68 v=0
24960 On ch=4 n=66 v=79
24960 On ch=4 n=69 v=79
24992 On ch=4 n=66 v=0
24992 On ch=4 n=69 v=0
25008 On ch=4 n=61 v=79
25040 On ch=4 n=61 v=0
25056 On ch=4 n=66 v=79
25056 On ch=4 n=69 v=79
25088 On ch=4 n=66 v=0
25088 On ch=4 n=69 v=0
25104 On ch=4 n=66 v=79
25104 On ch=4 n=69 v=79
25184 On ch=4 n=66 v=0
25184 On ch=4 n=69 v=0
25200 On ch=4 n=61 v=79
25232 On ch=4 n=61 v=0
25248 On ch=4 n=66 v=79
25248 On ch=4 n=69 v=79
25280 On ch=4 n=66 v=0
25280 On ch=4 n=69 v=0
25296 On ch=4 n=66 v=79
25296 On ch=4 n=69 v=79
25328 On ch=4 n=66 v=0
25328 On ch=4 n=69 v=0
25344 On ch=4 n=68 v=79
25344 On ch=4 n=71 v=79
25376 On ch=4 n=68 v=0
25376 On ch=4 n=71 v=0
25392 On ch=4 n=64 v=79
25424 On ch=4 n=64 v=0
25440 On ch=4 n=68 v=79
25440 On ch=4 n=71 v=79
25472 On ch=4 n=68 v=0
25472 On ch=4 n=71 v=0
25488 On ch=4 n=68 v=79
25488 On ch=4 n=71 v=79
25568 On ch=4 n=68 v=0
25568 On ch=4 n=71 v=0
25584 On ch=4 n=63 v=79
25616 On ch=4 n=63 v=0
25632 On ch=4 n=68 v=79
25632 On ch=4 n=71 v=79
25664 On ch=4 n=68 v=0
25664 On ch=4 n=71 v=0
25680 On ch=4 n=68 v=79
25680 On ch=4 n=71 v=79
25712 On ch=4 n=68 v=0
25712 On ch=4 n=71 v=0
25728 On ch=4 n=66 v=79
25728 On ch=4 n=69 v=79
25760 On ch=4 n=66 v=0
25760 On ch=4 n=69 v=0
25776 On ch=4 n=61 v=79
25808 On ch=4 n=61 v=0
25824 On ch=4 n=66 v=79
25824 On ch=4 n=69 v=79
25856 On ch=4 n=66 v=0
25856 On ch=4 n=69 v=0
25872 On ch=4 n=66 v=79
25872 On ch=4 n=69 v=79
25952 On ch=4 n=66 v=0
25952 On ch=4 n=69 v=0
25968 On ch=4 n=61 v=79
26000 On ch=4 n=61 v=0
26016 On ch=4 n=66 v=79
26016 On ch=4 n=69 v=79
26080 On ch=4 n=66 v=0
26080 On ch=4 n=69 v=0
26112 On ch=4 n=64 v=79
26112 On ch=4 n=68 v=79
26144 On ch=4 n=64 v=0
26144 On ch=4 n=68 v=0
26160 On ch=4 n=59 v=79
26192 On ch=4 n=59 v=0
26208 On ch=4 n=64 v=79
26208 On ch=4 n=68 v=79
26240 On ch=4 n=64 v=0
26240 On ch=4 n=68 v=0
26256 On ch=4 n=64 v=79
26256 On ch=4 n=68 v=79
26336 On ch=4 n=64 v=0
26336 On ch=4 n=68 v=0
26352 On ch=4 n=59 v=79
26384 On ch=4 n=59 v=0
26400 On ch=4 n=64 v=79
26400 On ch=4 n=68 v=79
26432 On ch=4 n=64 v=0
26432 On ch=4 n=68 v=0
26448 On ch=4 n=64 v=79
26448 On ch=4 n=68 v=79
26480 On ch=4 n=64 v=0
26480 On ch=4 n=68 v=0
26496 On ch=4 n=66 v=79
26496 On ch=4 n=69 v=79
26528 On ch=4 n=66 v=0
26528 On ch=4 n=69 v=0
26544 On ch=4 n=61 v=79
26576 On ch=4 n=61 v=0
26592 On ch=4 n=66 v=79
26592 On ch=4 n=69 v=79
26624 On ch=4 n=66 v=0
26624 On ch=4 n=69 v=0
26640 On ch=4 n=66 v=79
26640 On ch=4 n=69 v=79
26720 On ch=4 n=66 v=0
26720 On ch=4 n=69 v=0
26736 On ch=4 n=61 v=79
26768 On ch=4 n=61 v=0
26784 On ch=4 n=66 v=79
26784 On ch=4 n=69 v=79
26816 On ch=4 n=66 v=0
26816 On ch=4 n=69 v=0
26832 On ch=4 n=66 v=79
26832 On ch=4 n=69 v=79
26864 On ch=4 n=66 v=0
26864 On ch=4 n=69 v=0
26880 On ch=4 n=68 v=79
26880 On ch=4 n=71 v=79
26912 On ch=4 n=68 v=0
26912 On ch=4 n=71 v=0
26928 On ch=4 n=64 v=79
26960 On ch=4 n=64 v=0
26976 On ch=4 n=68 v=79
26976 On ch=4 n=71 v=79
27008 On ch=4 n=68 v=0
27008 On ch=4 n=71 v=0
27024 On ch=4 n=68 v=79
27024 On ch=4 n=71 v=79
27104 On ch=4 n=68 v=0
27104 On ch=4 n=71 v=0
27120 On ch=4 n=63 v=79
27152 On ch=4 n=63 v=0
27168 On ch=4 n=68 v=79
27168 On ch=4 n=71 v=79
27200 On ch=4 n=68 v=0
27200 On ch=4 n=71 v=0
27216 On ch=4 n=68 v=79
27216 On ch=4 n=71 v=79
27248 On ch=4 n=68 v=0
27248 On ch=4 n=71 v=0
27264 On ch=4 n=66 v=79
27264 On ch=4 n=69 v=79
27296 On ch=4 n=66 v=0
27296 On ch=4 n=69 v=0
27312 On ch=4 n=61 v=79
27344 On ch=4 n=61 v=0
27360 On ch=4 n=66 v=79
27360 On ch=4 n=69 v=79
27392 On ch=4 n=66 v=0
27392 On ch=4 n=69 v=0
27408 On ch=4 n=66 v=79
27408 On ch=4 n=69 v=79
27488 On ch=4 n=66 v=0
27488 On ch=4 n=69 v=0
27504 On ch=4 n=61 v=79
27536 On ch=4 n=61 v=0
27552 On ch=4 n=66 v=79
27552 On ch=4 n=69 v=79
27616 On ch=4 n=66 v=0
27616 On ch=4 n=69 v=0
27744 On ch=4 n=80 v=79
27744 On ch=4 n=76 v=79
27744 On ch=4 n=83 v=79
27966 On ch=4 n=76 v=0
27966 On ch=4 n=80 v=0
27966 On ch=4 n=83 v=0
28128 On ch=4 n=81 v=79
28128 On ch=4 n=73 v=79
28128 On ch=4 n=85 v=79
28350 On ch=4 n=73 v=0
28350 On ch=4 n=81 v=0
28350 On ch=4 n=85 v=0
28416 On ch=4 n=71 v=79
28416 On ch=4 n=75 v=79
28416 On ch=4 n=80 v=79
28670 On ch=4 n=71 v=0
28670 On ch=4 n=75 v=0
28670 On ch=4 n=80 v=0
28896 On ch=4 n=78 v=79
28896 On ch=4 n=73 v=79
28896 On ch=4 n=81 v=79
28928 On ch=4 n=73 v=0
28928 On ch=4 n=78 v=0
28944 On ch=4 n=81 v=0
28944 On ch=4 n=80 v=79
28976 On ch=4 n=80 v=0
28992 On ch=4 n=78 v=79
28992 On ch=4 n=73 v=79
28992 On ch=4 n=81 v=79
29024 On ch=4 n=73 v=0
29024 On ch=4 n=78 v=0
29024 On ch=4 n=81 v=0
29040 On ch=4 n=81 v=79
29040 On ch=4 n=76 v=79
29040 On ch=4 n=85 v=79
29152 On ch=4 n=76 v=0
29152 On ch=4 n=81 v=0
29152 On ch=4 n=85 v=0
29280 On ch=4 n=80 v=79
29280 On ch=4 n=76 v=79
29280 On ch=4 n=83 v=79
29502 On ch=4 n=76 v=0
29502 On ch=4 n=80 v=0
29502 On ch=4 n=83 v=0
29664 On ch=4 n=80 v=79
29664 On ch=4 n=76 v=79
29664 On ch=4 n=83 v=79
29886 On ch=4 n=76 v=0
29886 On ch=4 n=80 v=0
29886 On ch=4 n=83 v=0
29952 On ch=4 n=75 v=79
29952 On ch=4 n=71 v=79
29952 On ch=4 n=80 v=79
30206 On ch=4 n=71 v=0
30206 On ch=4 n=75 v=0
30206 On ch=4 n=80 v=0
30432 On ch=4 n=78 v=79
30432 On ch=4 n=73 v=79
30432 On ch=4 n=81 v=79
30464 On ch=4 n=73 v=0
30464 On ch=4 n=78 v=0
30480 On ch=4 n=81 v=0
30480 On ch=4 n=80 v=79
30512 On ch=4 n=80 v=0
30528 On ch=4 n=78 v=79
30528 On ch=4 n=73 v=79
30528 On ch=4 n=81 v=79
30560 On ch=4 n=73 v=0
30560 On ch=4 n=78 v=0
30560 On ch=4 n=81 v=0
30576 On ch=4 n=81 v=79
30576 On ch=4 n=76 v=79
30576 On ch=4 n=85 v=79
30688 On ch=4 n=76 v=0
30688 On ch=4 n=81 v=0
30688 On ch=4 n=85 v=0
30816 On ch=4 n=80 v=79
30816 On ch=4 n=76 v=79
30816 On ch=4 n=83 v=79
31038 On ch=4 n=76 v=0
31038 On ch=4 n=80 v=0
31038 On ch=4 n=83 v=0
31200 On ch=4 n=78 v=79
31200 On ch=4 n=73 v=79
31200 On ch=4 n=81 v=79
31390 On ch=4 n=73 v=0
31390 On ch=4 n=78 v=0
31390 On ch=4 n=81 v=0
31488 On ch=4 n=75 v=79
31488 On ch=4 n=71 v=79
31488 On ch=4 n=80 v=79
31742 On ch=4 n=71 v=0
31742 On ch=4 n=75 v=0
31742 On ch=4 n=80 v=0
31968 On ch=4 n=78 v=79
31968 On ch=4 n=73 v=79
31968 On ch=4 n=81 v=79
32000 On ch=4 n=73 v=0
32000 On ch=4 n=78 v=0
32016 On ch=4 n=81 v=0
32016 On ch=4 n=80 v=79
32048 On ch=4 n=80 v=0
32064 On ch=4 n=78 v=79
32064 On ch=4 n=73 v=79
32064 On ch=4 n=81 v=79
32096 On ch=4 n=73 v=0
32096 On ch=4 n=78 v=0
32096 On ch=4 n=81 v=0
32112 On ch=4 n=81 v=79
32112 On ch=4 n=76 v=79
32112 On ch=4 n=85 v=79
32224 On ch=4 n=76 v=0
32224 On ch=4 n=81 v=0
32224 On ch=4 n=85 v=0
32352 On ch=4 n=80 v=79
32352 On ch=4 n=76 v=79
32352 On ch=4 n=83 v=79
32542 On ch=4 n=76 v=0
32542 On ch=4 n=80 v=0
32542 On ch=4 n=83 v=0
32736 On ch=4 n=78 v=79
32736 On ch=4 n=73 v=79
32736 On ch=4 n=81 v=79
32958 On ch=4 n=73 v=0
32958 On ch=4 n=78 v=0
32958 On ch=4 n=81 v=0
33024 On ch=4 n=75 v=79
33024 On ch=4 n=71 v=79
33024 On ch=4 n=80 v=79
33278 On ch=4 n=71 v=0
33278 On ch=4 n=75 v=0
33278 On ch=4 n=80 v=0
33504 On ch=4 n=78 v=79
33504 On ch=4 n=73 v=79
33504 On ch=4 n=81 v=79
33536 On ch=4 n=73 v=0
33536 On ch=4 n=78 v=0
33552 On ch=4 n=81 v=0
33552 On ch=4 n=80 v=79
33584 On ch=4 n=80 v=0
33600 On ch=4 n=78 v=79
33600 On ch=4 n=73 v=79
33600 On ch=4 n=81 v=79
33632 On ch=4 n=73 v=0
33632 On ch=4 n=78 v=0
33632 On ch=4 n=81 v=0
33648 On ch=4 n=81 v=79
33648 On ch=4 n=76 v=79
33648 On ch=4 n=85 v=79
33760 On ch=4 n=76 v=0
33760 On ch=4 n=81 v=0
33760 On ch=4 n=85 v=0
33792 On ch=4 n=78 v=79
33792 On ch=4 n=73 v=79
33792 On ch=4 n=81 v=79
33824 On ch=4 n=73 v=0
33824 On ch=4 n=78 v=0
33840 On ch=4 n=81 v=0
33840 On ch=4 n=80 v=79
33872 On ch=4 n=80 v=0
33888 On ch=4 n=78 v=79
33888 On ch=4 n=73 v=79
33888 On ch=4 n=81 v=79
33920 On ch=4 n=73 v=0
33920 On ch=4 n=78 v=0
33920 On ch=4 n=81 v=0
33936 On ch=4 n=81 v=79
33936 On ch=4 n=76 v=79
33936 On ch=4 n=85 v=79
34110 On ch=4 n=76 v=0
34110 On ch=4 n=81 v=0
34110 On ch=4 n=85 v=0
34176 On ch=4 n=69 v=79
34176 On ch=4 n=66 v=79
34208 On ch=4 n=66 v=0
34208 On ch=4 n=69 v=0
34224 On ch=4 n=61 v=79
34256 On ch=4 n=61 v=0
34272 On ch=4 n=66 v=79
34272 On ch=4 n=69 v=79
34304 On ch=4 n=66 v=0
34304 On ch=4 n=69 v=0
34320 On ch=4 n=66 v=79
34320 On ch=4 n=69 v=79
34352 On ch=4 n=66 v=0
34352 On ch=4 n=69 v=0
34368 On ch=4 n=66 v=79
34368 On ch=4 n=69 v=79
34400 On ch=4 n=66 v=0
34400 On ch=4 n=69 v=0
34416 On ch=4 n=61 v=79
34448 On ch=4 n=61 v=0
34464 On ch=4 n=66 v=79
34464 On ch=4 n=69 v=79
34496 On ch=4 n=66 v=0
34496 On ch=4 n=69 v=0
34512 On ch=4 n=66 v=79
34512 On ch=4 n=69 v=79
34544 On ch=4 n=66 v=0
34544 On ch=4 n=69 v=0
34560 On ch=4 n=66 v=79
34560 On ch=4 n=69 v=79
34592 On ch=4 n=66 v=0
34592 On ch=4 n=69 v=0
34608 On ch=4 n=61 v=79
34640 On ch=4 n=61 v=0
34656 On ch=4 n=66 v=79
34656 On ch=4 n=69 v=79
34688 On ch=4 n=66 v=0
34688 On ch=4 n=69 v=0
34704 On ch=4 n=66 v=79
34704 On ch=4 n=69 v=79
34784 On ch=4 n=66 v=0
34784 On ch=4 n=69 v=0
34800 On ch=4 n=61 v=79
34832 On ch=4 n=61 v=0
34848 On ch=4 n=66 v=79
34848 On ch=4 n=69 v=79
34912 On ch=4 n=66 v=0
34912 On ch=4 n=69 v=0
34944 On ch=4 n=80 v=95
34944 On ch=4 n=83 v=95
35198 On ch=4 n=80 v=0
35198 On ch=4 n=83 v=0
35328 On ch=4 n=76 v=95
35328 On ch=4 n=81 v=95
35582 On ch=4 n=76 v=0
35582 On ch=4 n=81 v=0
35712 On ch=4 n=80 v=95
35712 On ch=4 n=83 v=95
35966 On ch=4 n=80 v=0
35966 On ch=4 n=83 v=0
36096 On ch=4 n=76 v=95
36096 On ch=4 n=81 v=95
36350 On ch=4 n=76 v=0
36350 On ch=4 n=81 v=0
36480 On ch=4 n=80 v=95
36480 On ch=4 n=83 v=95
36734 On ch=4 n=80 v=0
36734 On ch=4 n=83 v=0
36864 On ch=4 n=78 v=95
36864 On ch=4 n=81 v=95
37118 On ch=4 n=78 v=0
37118 On ch=4 n=81 v=0
37248 On ch=4 n=80 v=95
37248 On ch=4 n=83 v=95
37502 On ch=4 n=80 v=0
37502 On ch=4 n=83 v=0
37632 On ch=4 n=81 v=95
37758 On ch=4 n=81 v=0
37824 On ch=4 n=78 v=95
37824 On ch=4 n=83 v=95
37950 On ch=4 n=78 v=0
37950 On ch=4 n=83 v=0
38016 On ch=4 n=80 v=111
38016 On ch=4 n=83 v=111
38270 On ch=4 n=80 v=0
38270 On ch=4 n=83 v=0
38400 On ch=4 n=76 v=111
38400 On ch=4 n=81 v=111
38654 On ch=4 n=76 v=0
38654 On ch=4 n=81 v=0
38784 On ch=4 n=80 v=111
38784 On ch=4 n=83 v=111
39038 On ch=4 n=80 v=0
39038 On ch=4 n=83 v=0
39168 On ch=4 n=76 v=111
39168 On ch=4 n=81 v=111
39422 On ch=4 n=76 v=0
39422 On ch=4 n=81 v=0
39552 On ch=4 n=80 v=111
39552 On ch=4 n=83 v=111
39806 On ch=4 n=80 v=0
39806 On ch=4 n=83 v=0
39936 On ch=4 n=78 v=111
39936 On ch=4 n=81 v=111
40190 On ch=4 n=78 v=0
40190 On ch=4 n=81 v=0
40320 On ch=4 n=80 v=111
40320 On ch=4 n=83 v=111
40574 On ch=4 n=80 v=0
40574 On ch=4 n=83 v=0
40704 On ch=4 n=81 v=111
40830 On ch=4 n=81 v=0
40896 On ch=4 n=78 v=111
40896 On ch=4 n=83 v=111
41022 On ch=4 n=78 v=0
41022 On ch=4 n=83 v=0
41088 On ch=4 n=80 v=127
41088 On ch=4 n=83 v=127
41342 On ch=4 n=80 v=0
41342 On ch=4 n=83 v=0
41472 On ch=4 n=76 v=127
41472 On ch=4 n=81 v=127
41726 On ch=4 n=76 v=0
41726 On ch=4 n=81 v=0
41856 On ch=4 n=80 v=127
41856 On ch=4 n=83 v=127
42110 On ch=4 n=80 v=0
42110 On ch=4 n=83 v=0
42240 On ch=4 n=76 v=127
42240 On ch=4 n=73 v=127
42240 On ch=4 n=81 v=127
42494 On ch=4 n=73 v=0
42494 On ch=4 n=76 v=0
42494 On ch=4 n=81 v=0
42624 On ch=4 n=76 v=127
42624 On ch=4 n=73 v=127
42624 On ch=4 n=81 v=127
42878 On ch=4 n=73 v=0
42878 On ch=4 n=76 v=0
42878 On ch=4 n=81 v=0
43008 On ch=4 n=76 v=127
43008 On ch=4 n=73 v=127
43008 On ch=4 n=81 v=127
43104 On ch=4 n=73 v=0
43104 On ch=4 n=76 v=0
43104 On ch=4 n=81 v=0
43104 Meta TrkEnd
TrkEnd
MTrk
0 Meta TrkName "Bass"
192 Par ch=5 c=0 v=0
194 Par ch=5 c=32 v=0
196 PrCh ch=5 p=39
198 Par ch=5 c=1 v=0
200 Par ch=5 c=7 v=96
202 Par ch=5 c=10 v=90
204 Par ch=5 c=11 v=127
206 Par ch=5 c=64 v=0
208 Par ch=5 c=91 v=64
210 Par ch=5 c=93 v=64
212 Pb ch=5 v=8192
2688 Pb ch=5 v=8192
2688 Par ch=5 c=1 v=0
2688 Par ch=5 c=64 v=0
2688 Par ch=5 c=11 v=127
2688 Par ch=5 c=91 v=64
2688 Par ch=5 c=93 v=64
4800 On ch=5 n=59 v=79
4832 On ch=5 n=59 v=0
4848 On ch=5 n=61 v=79
4880 On ch=5 n=61 v=0
4896 On ch=5 n=59 v=79
4928 On ch=5 n=59 v=0
4944 On ch=5 n=64 v=79
5024 On ch=5 n=64 v=0
5040 On ch=5 n=63 v=79
5120 On ch=5 n=63 v=0
5136 On ch=5 n=59 v=79
5248 On ch=5 n=59 v=0
5280 On ch=5 n=47 v=79
5344 On ch=5 n=47 v=0
5376 On ch=5 n=40 v=79
5376 On ch=5 n=52 v=79
5630 On ch=5 n=40 v=0
5630 On ch=5 n=52 v=0
5760 On ch=5 n=42 v=79
6014 On ch=5 n=42 v=0
6144 On ch=5 n=40 v=79
6398 On ch=5 n=40 v=0
6528 On ch=5 n=40 v=79
6782 On ch=5 n=40 v=0
6912 On ch=5 n=40 v=79
7166 On ch=5 n=40 v=0
7296 On ch=5 n=40 v=79
7550 On ch=5 n=40 v=0
7680 On ch=5 n=40 v=79
7934 On ch=5 n=40 v=0
8064 On ch=5 n=40 v=79
8318 On ch=5 n=40 v=0
8448 On ch=5 n=40 v=79
8702 On ch=5 n=40 v=0
8832 On ch=5 n=40 v=79
9086 On ch=5 n=40 v=0
9216 On ch=5 n=40 v=79
9470 On ch=5 n=40 v=0
9600 On ch=5 n=40 v=79
9854 On ch=5 n=40 v=0
9984 On ch=5 n=40 v=79
10238 On ch=5 n=40 v=0
10368 On ch=5 n=40 v=79
10622 On ch=5 n=40 v=0
10752 On ch=5 n=40 v=79
11006 On ch=5 n=40 v=0
11136 On ch=5 n=40 v=79
11390 On ch=5 n=40 v=0
11520 On ch=5 n=40 v=79
11774 On ch=5 n=40 v=0
11904 On ch=5 n=40 v=79
12158 On ch=5 n=40 v=0
12288 On ch=5 n=40 v=79
12542 On ch=5 n=40 v=0
12672 On ch=5 n=40 v=79
12926 On ch=5 n=40 v=0
13056 On ch=5 n=40 v=79
13310 On ch=5 n=40 v=0
13440 On ch=5 n=40 v=79
13694 On ch=5 n=40 v=0
13824 On ch=5 n=40 v=79
14078 On ch=5 n=40 v=0
14208 On ch=5 n=40 v=79
14462 On ch=5 n=40 v=0
14592 On ch=5 n=40 v=79
14846 On ch=5 n=40 v=0
14976 On ch=5 n=40 v=79
15230 On ch=5 n=40 v=0
15360 On ch=5 n=40 v=79
15614 On ch=5 n=40 v=0
15744 On ch=5 n=40 v=79
15998 On ch=5 n=40 v=0
16128 On ch=5 n=40 v=79
16382 On ch=5 n=40 v=0
16512 On ch=5 n=40 v=79
16766 On ch=5 n=40 v=0
16896 On ch=5 n=40 v=79
17150 On ch=5 n=40 v=0
17280 On ch=5 n=40 v=79
17534 On ch=5 n=40 v=0
17664 On ch=5 n=40 v=79
17918 On ch=5 n=40 v=0
18048 On ch=5 n=40 v=79
18302 On ch=5 n=40 v=0
18432 On ch=5 n=40 v=79
18686 On ch=5 n=40 v=0
18816 On ch=5 n=40 v=79
19070 On ch=5 n=40 v=0
19200 On ch=5 n=40 v=79
19454 On ch=5 n=40 v=0
19584 On ch=5 n=40 v=79
19838 On ch=5 n=40 v=0
19968 On ch=5 n=40 v=79
20222 On ch=5 n=40 v=0
20352 On ch=5 n=40 v=79
20606 On ch=5 n=40 v=0
20736 On ch=5 n=40 v=79
20990 On ch=5 n=40 v=0
21120 On ch=5 n=40 v=79
21374 On ch=5 n=40 v=0
21504 On ch=5 n=40 v=79
21758 On ch=5 n=40 v=0
21888 On ch=5 n=40 v=79
22142 On ch=5 n=40 v=0
22272 On ch=5 n=40 v=79
22526 On ch=5 n=40 v=0
22656 On ch=5 n=40 v=79
22910 On ch=5 n=40 v=0
23040 On ch=5 n=40 v=79
23294 On ch=5 n=40 v=0
23424 On ch=5 n=40 v=79
23678 On ch=5 n=40 v=0
23808 On ch=5 n=40 v=79
24062 On ch=5 n=40 v=0
24192 On ch=5 n=40 v=79
24446 On ch=5 n=40 v=0
24576 On ch=5 n=40 v=79
24830 On ch=5 n=40 v=0
24960 On ch=5 n=40 v=79
25214 On ch=5 n=40 v=0
25344 On ch=5 n=40 v=79
25598 On ch=5 n=40 v=0
25728 On ch=5 n=40 v=79
25982 On ch=5 n=40 v=0
26112 On ch=5 n=40 v=79
26366 On ch=5 n=40 v=0
26496 On ch=5 n=40 v=79
26750 On ch=5 n=40 v=0
26880 On ch=5 n=40 v=79
27134 On ch=5 n=40 v=0
27264 On ch=5 n=40 v=79
27518 On ch=5 n=40 v=0
27648 On ch=5 n=40 v=79
27902 On ch=5 n=40 v=0
28032 On ch=5 n=40 v=79
28286 On ch=5 n=40 v=0
28416 On ch=5 n=40 v=79
28670 On ch=5 n=40 v=0
28800 On ch=5 n=40 v=79
29054 On ch=5 n=40 v=0
29184 On ch=5 n=40 v=79
29438 On ch=5 n=40 v=0
29568 On ch=5 n=40 v=79
29822 On ch=5 n=40 v=0
29952 On ch=5 n=40 v=79
30206 On ch=5 n=40 v=0
30336 On ch=5 n=40 v=79
30590 On ch=5 n=40 v=0
30720 On ch=5 n=40 v=79
30974 On ch=5 n=40 v=0
31104 On ch=5 n=40 v=79
31358 On ch=5 n=40 v=0
31872 On ch=5 n=40 v=79
32126 On ch=5 n=40 v=0
32256 On ch=5 n=40 v=79
32510 On ch=5 n=40 v=0
32640 On ch=5 n=40 v=79
32894 On ch=5 n=40 v=0
33024 On ch=5 n=40 v=79
33278 On ch=5 n=40 v=0
33408 On ch=5 n=40 v=79
33662 On ch=5 n=40 v=0
33792 On ch=5 n=40 v=79
34046 On ch=5 n=40 v=0
34176 On ch=5 n=40 v=79
34430 On ch=5 n=40 v=0
34560 On ch=5 n=40 v=79
34814 On ch=5 n=40 v=0
34944 On ch=5 n=47 v=95
34944 On ch=5 n=40 v=95
34944 On ch=5 n=52 v=95
35198 On ch=5 n=40 v=0
35198 On ch=5 n=47 v=0
35198 On ch=5 n=52 v=0
35328 On ch=5 n=49 v=95
35328 On ch=5 n=52 v=95
35582 On ch=5 n=49 v=0
35582 On ch=5 n=52 v=0
35712 On ch=5 n=47 v=95
35712 On ch=5 n=52 v=95
35966 On ch=5 n=47 v=0
35966 On ch=5 n=52 v=0
36096 On ch=5 n=45 v=95
36096 On ch=5 n=49 v=95
36350 On ch=5 n=45 v=0
36350 On ch=5 n=49 v=0
36480 On ch=5 n=44 v=95
36734 On ch=5 n=44 v=0
36864 On ch=5 n=42 v=95
37118 On ch=5 n=42 v=0
37248 On ch=5 n=44 v=95
37502 On ch=5 n=44 v=0
37632 On ch=5 n=45 v=95
37758 On ch=5 n=45 v=0
37824 On ch=5 n=47 v=95
37950 On ch=5 n=47 v=0
38016 On ch=5 n=47 v=111
38016 On ch=5 n=40 v=111
38016 On ch=5 n=52 v=111
38270 On ch=5 n=40 v=0
38270 On ch=5 n=47 v=0
38270 On ch=5 n=52 v=0
38400 On ch=5 n=49 v=111
38400 On ch=5 n=52 v=111
38654 On ch=5 n=49 v=0
38654 On ch=5 n=52 v=0
38784 On ch=5 n=47 v=111
38784 On ch=5 n=52 v=111
39038 On ch=5 n=47 v=0
39038 On ch=5 n=52 v=0
39168 On ch=5 n=45 v=111
39168 On ch=5 n=49 v=111
39422 On ch=5 n=45 v=0
39422 On ch=5 n=49 v=0
39552 On ch=5 n=44 v=111
39806 On ch=5 n=44 v=0
39936 On ch=5 n=42 v=111
40190 On ch=5 n=42 v=0
40320 On ch=5 n=44 v=111
40574 On ch=5 n=44 v=0
40704 On ch=5 n=45 v=111
40830 On ch=5 n=45 v=0
40896 On ch=5 n=47 v=111
41022 On ch=5 n=47 v=0
41088 On ch=5 n=40 v=127
41342 On ch=5 n=40 v=0
41472 On ch=5 n=42 v=127
41726 On ch=5 n=42 v=0
41856 On ch=5 n=44 v=127
42110 On ch=5 n=44 v=0
42240 On ch=5 n=49 v=127
42240 On ch=5 n=45 v=127
42240 On ch=5 n=52 v=127
42494 On ch=5 n=45 v=0
42494 On ch=5 n=49 v=0
42494 On ch=5 n=52 v=0
42624 On ch=5 n=49 v=127
42624 On ch=5 n=45 v=127
42624 On ch=5 n=52 v=127
42878 On ch=5 n=45 v=0
42878 On ch=5 n=49 v=0
42878 On ch=5 n=52 v=0
43008 On ch=5 n=57 v=127
43104 On ch=5 n=57 v=0
43104 Meta TrkEnd
TrkEnd
MTrk
0 Meta TrkName "Organ"
193 Par ch=6 c=0 v=0
195 Par ch=6 c=32 v=0
197 PrCh ch=6 p=16
199 Par ch=6 c=1 v=0
201 Par ch=6 c=7 v=83
203 Par ch=6 c=10 v=64
205 Par ch=6 c=11 v=127
207 Par ch=6 c=64 v=0
209 Par ch=6 c=91 v=64
211 Par ch=6 c=93 v=64
213 Pb ch=6 v=8192
213 Par ch=6 c=10 v=64
480 Par ch=6 c=7 v=83
17328 On ch=6 n=47 v=79
17360 On ch=6 n=47 v=0
17376 On ch=6 n=52 v=79
17408 On ch=6 n=52 v=0
17424 On ch=6 n=47 v=79
17456 On ch=6 n=47 v=0
17472 On ch=6 n=52 v=79
17504 On ch=6 n=52 v=0
17520 On ch=6 n=47 v=79
17552 On ch=6 n=47 v=0
17568 On ch=6 n=52 v=79
17600 On ch=6 n=52 v=0
17616 On ch=6 n=47 v=79
17648 On ch=6 n=47 v=0
17712 On ch=6 n=47 v=79
17744 On ch=6 n=47 v=0
17760 On ch=6 n=52 v=79
17792 On ch=6 n=52 v=0
17808 On ch=6 n=47 v=79
17840 On ch=6 n=47 v=0
17856 On ch=6 n=52 v=79
17888 On ch=6 n=52 v=0
17904 On ch=6 n=47 v=79
17936 On ch=6 n=47 v=0
17952 On ch=6 n=52 v=79
17984 On ch=6 n=52 v=0
18000 On ch=6 n=47 v=79
18032 On ch=6 n=47 v=0
18096 On ch=6 n=47 v=79
18128 On ch=6 n=47 v=0
18144 On ch=6 n=52 v=79
18176 On ch=6 n=52 v=0
18192 On ch=6 n=47 v=79
18224 On ch=6 n=47 v=0
18240 On ch=6 n=52 v=79
18272 On ch=6 n=52 v=0
18288 On ch=6 n=47 v=79
18320 On ch=6 n=47 v=0
18336 On ch=6 n=52 v=79
18368 On ch=6 n=52 v=0
18384 On ch=6 n=47 v=79
18416 On ch=6 n=47 v=0
18480 On ch=6 n=47 v=79
18512 On ch=6 n=47 v=0
18528 On ch=6 n=52 v=79
18560 On ch=6 n=52 v=0
18576 On ch=6 n=47 v=79
18608 On ch=6 n=47 v=0
18624 On ch=6 n=52 v=79
18656 On ch=6 n=52 v=0
18672 On ch=6 n=47 v=79
18704 On ch=6 n=47 v=0
18720 On ch=6 n=52 v=79
18752 On ch=6 n=52 v=0
18768 On ch=6 n=47 v=79
18800 On ch=6 n=47 v=0
18864 On ch=6 n=47 v=79
18896 On ch=6 n=47 v=0
18912 On ch=6 n=52 v=79
18944 On ch=6 n=52 v=0
18960 On ch=6 n=47 v=79
18992 On ch=6 n=47 v=0
19008 On ch=6 n=52 v=79
19040 On ch=6 n=52 v=0
19056 On ch=6 n=47 v=79
19088 On ch=6 n=47 v=0
19104 On ch=6 n=52 v=79
19136 On ch=6 n=52 v=0
19152 On ch=6 n=47 v=79
19184 On ch=6 n=47 v=0
19248 On ch=6 n=47 v=79
19280 On ch=6 n=47 v=0
19296 On ch=6 n=52 v=79
19328 On ch=6 n=52 v=0
19344 On ch=6 n=47 v=79
19376 On ch=6 n=47 v=0
19392 On ch=6 n=52 v=79
19424 On ch=6 n=52 v=0
19440 On ch=6 n=47 v=79
19472 On ch=6 n=47 v=0
19488 On ch=6 n=52 v=79
19520 On ch=6 n=52 v=0
19536 On ch=6 n=47 v=79
19568 On ch=6 n=47 v=0
19632 On ch=6 n=47 v=79
19664 On ch=6 n=47 v=0
19680 On ch=6 n=52 v=79
19712 On ch=6 n=52 v=0
19728 On ch=6 n=47 v=79
19760 On ch=6 n=47 v=0
19776 On ch=6 n=52 v=79
19808 On ch=6 n=52 v=0
19824 On ch=6 n=47 v=79
19856 On ch=6 n=47 v=0
19872 On ch=6 n=52 v=79
19904 On ch=6 n=52 v=0
19920 On ch=6 n=47 v=79
19952 On ch=6 n=47 v=0
20016 On ch=6 n=47 v=79
20048 On ch=6 n=47 v=0
20064 On ch=6 n=52 v=79
20096 On ch=6 n=52 v=0
20112 On ch=6 n=47 v=79
20144 On ch=6 n=47 v=0
20160 On ch=6 n=52 v=79
20192 On ch=6 n=52 v=0
20208 On ch=6 n=47 v=79
20240 On ch=6 n=47 v=0
20256 On ch=6 n=52 v=79
20288 On ch=6 n=52 v=0
20304 On ch=6 n=47 v=79
20336 On ch=6 n=47 v=0
20400 On ch=6 n=47 v=79
20432 On ch=6 n=47 v=0
20448 On ch=6 n=52 v=79
20480 On ch=6 n=52 v=0
20496 On ch=6 n=47 v=79
20528 On ch=6 n=47 v=0
20544 On ch=6 n=52 v=79
20576 On ch=6 n=52 v=0
20592 On ch=6 n=47 v=79
20624 On ch=6 n=47 v=0
20640 On ch=6 n=52 v=79
20672 On ch=6 n=52 v=0
20688 On ch=6 n=47 v=79
20720 On ch=6 n=47 v=0
20784 On ch=6 n=47 v=79
20816 On ch=6 n=47 v=0
20832 On ch=6 n=52 v=79
20864 On ch=6 n=52 v=0
20880 On ch=6 n=47 v=79
20912 On ch=6 n=47 v=0
20928 On ch=6 n=52 v=79
20960 On ch=6 n=52 v=0
20976 On ch=6 n=47 v=79
21008 On ch=6 n=47 v=0
21024 On ch=6 n=52 v=79
21056 On ch=6 n=52 v=0
21072 On ch=6 n=47 v=79
21104 On ch=6 n=47 v=0
21168 On ch=6 n=47 v=79
21200 On ch=6 n=47 v=0
21216 On ch=6 n=52 v=79
21248 On ch=6 n=52 v=0
21264 On ch=6 n=47 v=79
21296 On ch=6 n=47 v=0
21312 On ch=6 n=52 v=79
21344 On ch=6 n=52 v=0
21360 On ch=6 n=47 v=79
21392 On ch=6 n=47 v=0
21408 On ch=6 n=52 v=79
21440 On ch=6 n=52 v=0
21456 On ch=6 n=47 v=79
21488 On ch=6 n=47 v=0
21552 On ch=6 n=47 v=79
21584 On ch=6 n=47 v=0
21600 On ch=6 n=52 v=79
21632 On ch=6 n=52 v=0
21648 On ch=6 n=47 v=79
21680 On ch=6 n=47 v=0
21696 On ch=6 n=52 v=79
21728 On ch=6 n=52 v=0
21744 On ch=6 n=47 v=79
21776 On ch=6 n=47 v=0
21792 On ch=6 n=52 v=79
21824 On ch=6 n=52 v=0
21840 On ch=6 n=47 v=79
21872 On ch=6 n=47 v=0
21936 On ch=6 n=47 v=79
21968 On ch=6 n=47 v=0
21984 On ch=6 n=52 v=79
22016 On ch=6 n=52 v=0
22032 On ch=6 n=47 v=79
22064 On ch=6 n=47 v=0
22080 On ch=6 n=52 v=79
22112 On ch=6 n=52 v=0
22128 On ch=6 n=47 v=79
22160 On ch=6 n=47 v=0
22176 On ch=6 n=52 v=79
22208 On ch=6 n=52 v=0
22224 On ch=6 n=47 v=79
22256 On ch=6 n=47 v=0
22320 On ch=6 n=47 v=79
22352 On ch=6 n=47 v=0
22368 On ch=6 n=52 v=79
22400 On ch=6 n=52 v=0
22416 On ch=6 n=47 v=79
22448 On ch=6 n=47 v=0
22464 On ch=6 n=52 v=79
22496 On ch=6 n=52 v=0
22512 On ch=6 n=47 v=79
22544 On ch=6 n=47 v=0
22560 On ch=6 n=52 v=79
22592 On ch=6 n=52 v=0
22608 On ch=6 n=47 v=79
22640 On ch=6 n=47 v=0
22704 On ch=6 n=47 v=79
22736 On ch=6 n=47 v=0
22752 On ch=6 n=52 v=79
22784 On ch=6 n=52 v=0
22800 On ch=6 n=47 v=79
22832 On ch=6 n=47 v=0
22848 On ch=6 n=52 v=79
22880 On ch=6 n=52 v=0
22896 On ch=6 n=47 v=79
22928 On ch=6 n=47 v=0
22944 On ch=6 n=52 v=79
22976 On ch=6 n=52 v=0
22992 On ch=6 n=47 v=79
23024 On ch=6 n=47 v=0
23088 On ch=6 n=47 v=79
23120 On ch=6 n=47 v=0
23136 On ch=6 n=52 v=79
23168 On ch=6 n=52 v=0
23184 On ch=6 n=47 v=79
23216 On ch=6 n=47 v=0
23232 On ch=6 n=52 v=79
23264 On ch=6 n=52 v=0
23280 On ch=6 n=47 v=79
23312 On ch=6 n=47 v=0
23328 On ch=6 n=52 v=79
23360 On ch=6 n=52 v=0
23376 On ch=6 n=47 v=79
23408 On ch=6 n=47 v=0
23472 On ch=6 n=47 v=79
23504 On ch=6 n=47 v=0
23520 On ch=6 n=52 v=79
23552 On ch=6 n=52 v=0
23568 On ch=6 n=47 v=79
23600 On ch=6 n=47 v=0
23616 On ch=6 n=52 v=79
23648 On ch=6 n=52 v=0
23664 On ch=6 n=47 v=79
23696 On ch=6 n=47 v=0
23712 On ch=6 n=52 v=79
23744 On ch=6 n=52 v=0
23760 On ch=6 n=47 v=79
23792 On ch=6 n=47 v=0
27696 On ch=6 n=47 v=79
27728 On ch=6 n=47 v=0
27744 On ch=6 n=52 v=79
27776 On ch=6 n=52 v=0
27792 On ch=6 n=47 v=79
27824 On ch=6 n=47 v=0
27840 On ch=6 n=52 v=79
27872 On ch=6 n=52 v=0
27888 On ch=6 n=47 v=79
27920 On ch=6 n=47 v=0
27936 On ch=6 n=52 v=79
27968 On ch=6 n=52 v=0
27984 On ch=6 n=47 v=79
28016 On ch=6 n=47 v=0
28080 On ch=6 n=47 v=79
28112 On ch=6 n=47 v=0
28128 On ch=6 n=52 v=79
28160 On ch=6 n=52 v=0
28176 On ch=6 n=47 v=79
28208 On ch=6 n=47 v=0
28224 On ch=6 n=52 v=79
28256 On ch=6 n=52 v=0
28272 On ch=6 n=47 v=79
28304 On ch=6 n=47 v=0
28320 On ch=6 n=52 v=79
28352 On ch=6 n=52 v=0
28368 On ch=6 n=47 v=79
28400 On ch=6 n=47 v=0
28464 On ch=6 n=47 v=79
28496 On ch=6 n=47 v=0
28512 On ch=6 n=52 v=79
28544 On ch=6 n=52 v=0
28560 On ch=6 n=47 v=79
28592 On ch=6 n=47 v=0
28608 On ch=6 n=52 v=79
28640 On ch=6 n=52 v=0
28656 On ch=6 n=47 v=79
28688 On ch=6 n=47 v=0
28704 On ch=6 n=52 v=79
28736 On ch=6 n=52 v=0
28752 On ch=6 n=47 v=79
28784 On ch=6 n=47 v=0
28848 On ch=6 n=47 v=79
28880 On ch=6 n=47 v=0
28896 On ch=6 n=52 v=79
28928 On ch=6 n=52 v=0
28944 On ch=6 n=47 v=79
28976 On ch=6 n=47 v=0
28992 On ch=6 n=52 v=79
29024 On ch=6 n=52 v=0
29040 On ch=6 n=47 v=79
29072 On ch=6 n=47 v=0
29088 On ch=6 n=52 v=79
29120 On ch=6 n=52 v=0
29136 On ch=6 n=47 v=79
29168 On ch=6 n=47 v=0
29232 On ch=6 n=47 v=79
29264 On ch=6 n=47 v=0
29280 On ch=6 n=52 v=79
29312 On ch=6 n=52 v=0
29328 On ch=6 n=47 v=79
29360 On ch=6 n=47 v=0
29376 On ch=6 n=52 v=79
29408 On ch=6 n=52 v=0
29424 On ch=6 n=47 v=79
29456 On ch=6 n=47 v=0
29472 On ch=6 n=52 v=79
29504 On ch=6 n=52 v=0
29520 On ch=6 n=47 v=79
29552 On ch=6 n=47 v=0
29616 On ch=6 n=47 v=79
29648 On ch=6 n=47 v=0
29664 On ch=6 n=52 v=79
29696 On ch=6 n=52 v=0
29712 On ch=6 n=47 v=79
29744 On ch=6 n=47 v=0
29760 On ch=6 n=52 v=79
29792 On ch=6 n=52 v=0
29808 On ch=6 n=47 v=79
29840 On ch=6 n=47 v=0
29856 On ch=6 n=52 v=79
29888 On ch=6 n=52 v=0
29904 On ch=6 n=47 v=79
29936 On ch=6 n=47 v=0
30000 On ch=6 n=47 v=79
30032 On ch=6 n=47 v=0
30048 On ch=6 n=52 v=79
30080 On ch=6 n=52 v=0
30096 On ch=6 n=47 v=79
30128 On ch=6 n=47 v=0
30144 On ch=6 n=52 v=79
30176 On ch=6 n=52 v=0
30192 On ch=6 n=47 v=79
30224 On ch=6 n=47 v=0
30240 On ch=6 n=52 v=79
30272 On ch=6 n=52 v=0
30288 On ch=6 n=47 v=79
30320 On ch=6 n=47 v=0
30384 On ch=6 n=47 v=79
30416 On ch=6 n=47 v=0
30432 On ch=6 n=52 v=79
30464 On ch=6 n=52 v=0
30480 On ch=6 n=47 v=79
30512 On ch=6 n=47 v=0
30528 On ch=6 n=52 v=79
30560 On ch=6 n=52 v=0
30576 On ch=6 n=47 v=79
30608 On ch=6 n=47 v=0
30624 On ch=6 n=52 v=79
30656 On ch=6 n=52 v=0
30672 On ch=6 n=47 v=79
30704 On ch=6 n=47 v=0
30768 On ch=6 n=47 v=79
30800 On ch=6 n=47 v=0
30816 On ch=6 n=52 v=79
30848 On ch=6 n=52 v=0
30864 On ch=6 n=47 v=79
30896 On ch=6 n=47 v=0
30912 On ch=6 n=52 v=79
30944 On ch=6 n=52 v=0
30960 On ch=6 n=47 v=79
30992 On ch=6 n=47 v=0
31008 On ch=6 n=52 v=79
31040 On ch=6 n=52 v=0
31056 On ch=6 n=47 v=79
31088 On ch=6 n=47 v=0
31152 On ch=6 n=47 v=79
31184 On ch=6 n=47 v=0
31200 On ch=6 n=52 v=79
31232 On ch=6 n=52 v=0
31248 On ch=6 n=47 v=79
31280 On ch=6 n=47 v=0
31296 On ch=6 n=52 v=79
31328 On ch=6 n=52 v=0
31344 On ch=6 n=47 v=79
31376 On ch=6 n=47 v=0
31392 On ch=6 n=52 v=79
31424 On ch=6 n=52 v=0
31440 On ch=6 n=47 v=79
31472 On ch=6 n=47 v=0
31536 On ch=6 n=47 v=79
31568 On ch=6 n=47 v=0
31584 On ch=6 n=52 v=79
31616 On ch=6 n=52 v=0
31632 On ch=6 n=47 v=79
31664 On ch=6 n=47 v=0
31680 On ch=6 n=52 v=79
31712 On ch=6 n=52 v=0
31728 On ch=6 n=47 v=79
31760 On ch=6 n=47 v=0
31776 On ch=6 n=52 v=79
31808 On ch=6 n=52 v=0
31824 On ch=6 n=47 v=79
31856 On ch=6 n=47 v=0
31920 On ch=6 n=47 v=79
31952 On ch=6 n=47 v=0
31968 On ch=6 n=52 v=79
32000 On ch=6 n=52 v=0
32016 On ch=6 n=47 v=79
32048 On ch=6 n=47 v=0
32064 On ch=6 n=52 v=79
32096 On ch=6 n=52 v=0
32112 On ch=6 n=47 v=79
32144 On ch=6 n=47 v=0
32160 On ch=6 n=52 v=79
32192 On ch=6 n=52 v=0
32208 On ch=6 n=47 v=79
32240 On ch=6 n=47 v=0
32304 On ch=6 n=47 v=79
32336 On ch=6 n=47 v=0
32352 On ch=6 n=52 v=79
32384 On ch=6 n=52 v=0
32400 On ch=6 n=47 v=79
32432 On ch=6 n=47 v=0
32448 On ch=6 n=52 v=79
32480 On ch=6 n=52 v=0
32496 On ch=6 n=47 v=79
32528 On ch=6 n=47 v=0
32544 On ch=6 n=52 v=79
32576 On ch=6 n=52 v=0
32592 On ch=6 n=47 v=79
32624 On ch=6 n=47 v=0
32688 On ch=6 n=47 v=79
32720 On ch=6 n=47 v=0
32736 On ch=6 n=52 v=79
32768 On ch=6 n=52 v=0
32784 On ch=6 n=47 v=79
32816 On ch=6 n=47 v=0
32832 On ch=6 n=52 v=79
32864 On ch=6 n=52 v=0
32880 On ch=6 n=47 v=79
32912 On ch=6 n=47 v=0
32928 On ch=6 n=52 v=79
32960 On ch=6 n=52 v=0
32976 On ch=6 n=47 v=79
33008 On ch=6 n=47 v=0
33072 On ch=6 n=47 v=79
33104 On ch=6 n=47 v=0
33120 On ch=6 n=52 v=79
33152 On ch=6 n=52 v=0
33168 On ch=6 n=47 v=79
33200 On ch=6 n=47 v=0
33216 On ch=6 n=52 v=79
33248 On ch=6 n=52 v=0
33264 On ch=6 n=47 v=79
33296 On ch=6 n=47 v=0
33312 On ch=6 n=52 v=79
33344 On ch=6 n=52 v=0
33360 On ch=6 n=47 v=79
33392 On ch=6 n=47 v=0
33456 On ch=6 n=47 v=79
33488 On ch=6 n=47 v=0
33504 On ch=6 n=52 v=79
33536 On ch=6 n=52 v=0
33552 On ch=6 n=47 v=79
33584 On ch=6 n=47 v=0
33600 On ch=6 n=52 v=79
33632 On ch=6 n=52 v=0
33648 On ch=6 n=47 v=79
33680 On ch=6 n=47 v=0
33696 On ch=6 n=52 v=79
33728 On ch=6 n=52 v=0
33744 On ch=6 n=47 v=79
33776 On ch=6 n=47 v=0
33840 On ch=6 n=47 v=79
33872 On ch=6 n=47 v=0
33888 On ch=6 n=52 v=79
33920 On ch=6 n=52 v=0
33936 On ch=6 n=47 v=79
33968 On ch=6 n=47 v=0
33984 On ch=6 n=52 v=79
34016 On ch=6 n=52 v=0
34032 On ch=6 n=47 v=79
34064 On ch=6 n=47 v=0
34080 On ch=6 n=52 v=79
34112 On ch=6 n=52 v=0
34128 On ch=6 n=47 v=79
34160 On ch=6 n=47 v=0
34992 On ch=6 n=56 v=95
35024 On ch=6 n=56 v=0
35040 On ch=6 n=59 v=95
35072 On ch=6 n=59 v=0
35088 On ch=6 n=56 v=95
35120 On ch=6 n=56 v=0
35136 On ch=6 n=59 v=95
35168 On ch=6 n=59 v=0
35184 On ch=6 n=56 v=95
35216 On ch=6 n=56 v=0
35232 On ch=6 n=59 v=95
35264 On ch=6 n=59 v=0
35280 On ch=6 n=56 v=95
35312 On ch=6 n=56 v=0
35376 On ch=6 n=57 v=95
35408 On ch=6 n=57 v=0
35424 On ch=6 n=61 v=95
35456 On ch=6 n=61 v=0
35472 On ch=6 n=57 v=95
35504 On ch=6 n=57 v=0
35520 On ch=6 n=61 v=95
35552 On ch=6 n=61 v=0
35568 On ch=6 n=57 v=95
35600 On ch=6 n=57 v=0
35616 On ch=6 n=61 v=95
35648 On ch=6 n=61 v=0
35664 On ch=6 n=57 v=95
35696 On ch=6 n=57 v=0
35760 On ch=6 n=56 v=95
35792 On ch=6 n=56 v=0
35808 On ch=6 n=59 v=95
35840 On ch=6 n=59 v=0
35856 On ch=6 n=56 v=95
35888 On ch=6 n=56 v=0
35904 On ch=6 n=59 v=95
35936 On ch=6 n=59 v=0
35952 On ch=6 n=56 v=95
35984 On ch=6 n=56 v=0
36000 On ch=6 n=59 v=95
36032 On ch=6 n=59 v=0
36048 On ch=6 n=56 v=95
36080 On ch=6 n=56 v=0
36144 On ch=6 n=52 v=95
36176 On ch=6 n=52 v=0
36192 On ch=6 n=57 v=95
36224 On ch=6 n=57 v=0
36240 On ch=6 n=52 v=95
36272 On ch=6 n=52 v=0
36288 On ch=6 n=57 v=95
36320 On ch=6 n=57 v=0
36336 On ch=6 n=52 v=95
36368 On ch=6 n=52 v=0
36384 On ch=6 n=57 v=95
36416 On ch=6 n=57 v=0
36432 On ch=6 n=52 v=95
36464 On ch=6 n=52 v=0
36480 On ch=6 n=56 v=95
36512 On ch=6 n=56 v=0
36528 On ch=6 n=52 v=95
36560 On ch=6 n=52 v=0
36576 On ch=6 n=56 v=95
36608 On ch=6 n=56 v=0
36624 On ch=6 n=52 v=95
36656 On ch=6 n=52 v=0
36672 On ch=6 n=56 v=95
36704 On ch=6 n=56 v=0
36720 On ch=6 n=52 v=95
36752 On ch=6 n=52 v=0
36768 On ch=6 n=56 v=95
36800 On ch=6 n=56 v=0
36816 On ch=6 n=52 v=95
36848 On ch=6 n=52 v=0
36864 On ch=6 n=54 v=95
36896 On ch=6 n=54 v=0
36912 On ch=6 n=49 v=95
36944 On ch=6 n=49 v=0
36960 On ch=6 n=52 v=95
36992 On ch=6 n=52 v=0
37008 On ch=6 n=49 v=95
37040 On ch=6 n=49 v=0
37056 On ch=6 n=52 v=95
37088 On ch=6 n=52 v=0
37104 On ch=6 n=49 v=95
37136 On ch=6 n=49 v=0
37152 On ch=6 n=52 v=95
37184 On ch=6 n=52 v=0
37200 On ch=6 n=49 v=95
37232 On ch=6 n=49 v=0
37248 On ch=6 n=56 v=95
37280 On ch=6 n=56 v=0
37296 On ch=6 n=52 v=95
37328 On ch=6 n=52 v=0
37344 On ch=6 n=56 v=95
37376 On ch=6 n=56 v=0
37392 On ch=6 n=52 v=95
37424 On ch=6 n=52 v=0
37440 On ch=6 n=56 v=95
37472 On ch=6 n=56 v=0
37488 On ch=6 n=52 v=95
37520 On ch=6 n=52 v=0
37536 On ch=6 n=56 v=95
37568 On ch=6 n=56 v=0
37584 On ch=6 n=52 v=95
37616 On ch=6 n=52 v=0
37632 On ch=6 n=57 v=95
37664 On ch=6 n=57 v=0
37680 On ch=6 n=52 v=95
37712 On ch=6 n=52 v=0
37728 On ch=6 n=59 v=95
37760 On ch=6 n=59 v=0
37776 On ch=6 n=52 v=95
37808 On ch=6 n=52 v=0
37824 On ch=6 n=59 v=95
37856 On ch=6 n=59 v=0
37872 On ch=6 n=54 v=95
37904 On ch=6 n=54 v=0
37920 On ch=6 n=59 v=95
37952 On ch=6 n=59 v=0
37968 On ch=6 n=54 v=95
38000 On ch=6 n=54 v=0
38064 On ch=6 n=56 v=111
38096 On ch=6 n=56 v=0
38112 On ch=6 n=59 v=111
38144 On ch=6 n=59 v=0
38160 On ch=6 n=56 v=111
38192 On ch=6 n=56 v=0
38208 On ch=6 n=59 v=111
38240 On ch=6 n=59 v=0
38256 On ch=6 n=56 v=111
38288 On ch=6 n=56 v=0
38304 On ch=6 n=59 v=111
38336 On ch=6 n=59 v=0
38352 On ch=6 n=56 v=111
38384 On ch=6 n=56 v=0
38448 On ch=6 n=57 v=111
38480 On ch=6 n=57 v=0
38496 On ch=6 n=61 v=111
38528 On ch=6 n=61 v=0
38544 On ch=6 n=57 v=111
38576 On ch=6 n=57 v=0
38592 On ch=6 n=61 v=111
38624 On ch=6 n=61 v=0
38640 On ch=6 n=57 v=111
38672 On ch=6 n=57 v=0
38688 On ch=6 n=61 v=111
38720 On ch=6 n=61 v=0
38736 On ch=6 n=57 v=111
38768 On ch=6 n=57 v=0
38832 On ch=6 n=56 v=111
38864 On ch=6 n=56 v=0
38880 On ch=6 n=59 v=111
38912 On ch=6 n=59 v=0
38928 On ch=6 n=56 v=111
38960 On ch=6 n=56 v=0
38976 On ch=6 n=59 v=111
39008 On ch=6 n=59 v=0
39024 On ch=6 n=56 v=111
39056 On ch=6 n=56 v=0
39072 On ch=6 n=59 v=111
39104 On ch=6 n=59 v=0
39120 On ch=6 n=56 v=111
39152 On ch=6 n=56 v=0
39216 On ch=6 n=52 v=111
39248 On ch=6 n=52 v=0
39264 On ch=6 n=57 v=111
39296 On ch=6 n=57 v=0
39312 On ch=6 n=52 v=111
39344 On ch=6 n=52 v=0
39360 On ch=6 n=57 v=111
39392 On ch=6 n=57 v=0
39408 On ch=6 n=52 v=111
39440 On ch=6 n=52 v=0
39456 On ch=6 n=57 v=111
39488 On ch=6 n=57 v=0
39504 On ch=6 n=52 v=111
39536 On ch=6 n=52 v=0
39552 On ch=6 n=56 v=111
39584 On ch=6 n=56 v=0
39600 On ch=6 n=52 v=111
39632 On ch=6 n=52 v=0
39648 On ch=6 n=56 v=111
39680 On ch=6 n=56 v=0
39696 On ch=6 n=52 v=111
39728 On ch=6 n=52 v=0
39744 On ch=6 n=56 v=111
39776 On ch=6 n=56 v=0
39792 On ch=6 n=52 v=111
39824 On ch=6 n=52 v=0
39840 On ch=6 n=56 v=111
39872 On ch=6 n=56 v=0
39888 On ch=6 n=52 v=111
39920 On ch=6 n=52 v=0
39936 On ch=6 n=54 v=111
39968 On ch=6 n=54 v=0
39984 On ch=6 n=49 v=111
40016 On ch=6 n=49 v=0
40032 On ch=6 n=52 v=111
40064 On ch=6 n=52 v=0
40080 On ch=6 n=49 v=111
40112 On ch=6 n=49 v=0
40128 On ch=6 n=52 v=111
40160 On ch=6 n=52 v=0
40176 On ch=6 n=49 v=111
40208 On ch=6 n=49 v=0
40224 On ch=6 n=52 v=111
40256 On ch=6 n=52 v=0
40272 On ch=6 n=49 v=111
40304 On ch=6 n=49 v=0
40320 On ch=6 n=56 v=111
40352 On ch=6 n=56 v=0
40368 On ch=6 n=52 v=111
40400 On ch=6 n=52 v=0
40416 On ch=6 n=56 v=111
40448 On ch=6 n=56 v=0
40464 On ch=6 n=52 v=111
40496 On ch=6 n=52 v=0
40512 On ch=6 n=56 v=111
40544 On ch=6 n=56 v=0
40560 On ch=6 n=52 v=111
40592 On ch=6 n=52 v=0
40608 On ch=6 n=56 v=111
40640 On ch=6 n=56 v=0
40656 On ch=6 n=52 v=111
40688 On ch=6 n=52 v=0
40704 On ch=6 n=57 v=111
40736 On ch=6 n=57 v=0
40752 On ch=6 n=52 v=111
40784 On ch=6 n=52 v=0
40800 On ch=6 n=59 v=111
40832 On ch=6 n=59 v=0
40848 On ch=6 n=52 v=111
40880 On ch=6 n=52 v=0
40896 On ch=6 n=59 v=111
40928 On ch=6 n=59 v=0
40944 On ch=6 n=54 v=111
40976 On ch=6 n=54 v=0
40992 On ch=6 n=59 v=111
41024 On ch=6 n=59 v=0
41040 On ch=6 n=54 v=111
41072 On ch=6 n=54 v=0
41088 On ch=6 n=52 v=127
41120 On ch=6 n=52 v=0
41136 On ch=6 n=47 v=127
41168 On ch=6 n=47 v=0
41184 On ch=6 n=52 v=127
41216 On ch=6 n=52 v=0
41232 On ch=6 n=47 v=127
41264 On ch=6 n=47 v=0
41280 On ch=6 n=52 v=127
41312 On ch=6 n=52 v=0
41328 On ch=6 n=47 v=127
41360 On ch=6 n=47 v=0
41376 On ch=6 n=52 v=127
41408 On ch=6 n=52 v=0
41424 On ch=6 n=47 v=127
41456 On ch=6 n=47 v=0
41472 On ch=6 n=52 v=127
41504 On ch=6 n=52 v=0
41520 On ch=6 n=49 v=127
41552 On ch=6 n=49 v=0
41568 On ch=6 n=52 v=127
41600 On ch=6 n=52 v=0
41616 On ch=6 n=49 v=127
41648 On ch=6 n=49 v=0
41664 On ch=6 n=52 v=127
41696 On ch=6 n=52 v=0
41712 On ch=6 n=49 v=127
41744 On ch=6 n=49 v=0
41760 On ch=6 n=52 v=127
41792 On ch=6 n=52 v=0
41808 On ch=6 n=49 v=127
41840 On ch=6 n=49 v=0
41856 On ch=6 n=56 v=127
41888 On ch=6 n=56 v=0
41904 On ch=6 n=52 v=127
41936 On ch=6 n=52 v=0
41952 On ch=6 n=56 v=127
41984 On ch=6 n=56 v=0
42000 On ch=6 n=52 v=127
42032 On ch=6 n=52 v=0
42048 On ch=6 n=56 v=127
42080 On ch=6 n=56 v=0
42096 On ch=6 n=52 v=127
42128 On ch=6 n=52 v=0
42144 On ch=6 n=56 v=127
42208 On ch=6 n=56 v=0
42240 On ch=6 n=45 v=111
42366 On ch=6 n=45 v=0
42432 On ch=6 n=49 v=111
42558 On ch=6 n=49 v=0
42624 On ch=6 n=52 v=111
42750 On ch=6 n=52 v=0
42816 On ch=6 n=57 v=111
42942 On ch=6 n=57 v=0
43008 On ch=6 n=52 v=111
43008 On ch=6 n=49 v=111
43008 On ch=6 n=45 v=111
43008 On ch=6 n=57 v=127
43072 On ch=6 n=45 v=0
43072 On ch=6 n=49 v=0
43072 On ch=6 n=52 v=0
43104 On ch=6 n=57 v=0
43104 Meta TrkEnd
TrkEnd
MTrk
0 Meta TrkName "Brass"
193 Par ch=7 c=0 v=0
195 Par ch=7 c=32 v=0
197 PrCh ch=7 p=61
199 Par ch=7 c=1 v=0
201 Par ch=7 c=7 v=90
203 Par ch=7 c=10 v=90
205 Par ch=7 c=11 v=127
207 Par ch=7 c=64 v=0
209 Par ch=7 c=91 v=64
211 Par ch=7 c=93 v=64
213 Pb ch=7 v=8192
480 Par ch=7 c=7 v=89
2688 Pb ch=7 v=8192
2688 Par ch=7 c=1 v=0
2688 Par ch=7 c=64 v=0
2688 Par ch=7 c=11 v=127
2688 Par ch=7 c=91 v=64
2688 Par ch=7 c=93 v=64
17376 On ch=7 n=80 v=79
17376 On ch=7 n=76 v=79
17376 On ch=7 n=83 v=79
17598 On ch=7 n=76 v=0
17598 On ch=7 n=80 v=0
17598 On ch=7 n=83 v=0
17760 On ch=7 n=78 v=79
17760 On ch=7 n=73 v=79
17760 On ch=7 n=81 v=79
17982 On ch=7 n=73 v=0
17982 On ch=7 n=78 v=0
17982 On ch=7 n=81 v=0
18048 On ch=7 n=75 v=79
18048 On ch=7 n=71 v=79
18048 On ch=7 n=80 v=79
18302 On ch=7 n=71 v=0
18302 On ch=7 n=75 v=0
18302 On ch=7 n=80 v=0
18528 On ch=7 n=78 v=79
18528 On ch=7 n=73 v=79
18528 On ch=7 n=81 v=79
18560 On ch=7 n=73 v=0
18560 On ch=7 n=78 v=0
18576 On ch=7 n=81 v=0
18576 On ch=7 n=80 v=79
18608 On ch=7 n=80 v=0
18624 On ch=7 n=78 v=79
18624 On ch=7 n=73 v=79
18624 On ch=7 n=81 v=79
18656 On ch=7 n=73 v=0
18656 On ch=7 n=78 v=0
18656 On ch=7 n=81 v=0
18672 On ch=7 n=81 v=79
18672 On ch=7 n=76 v=79
18672 On ch=7 n=85 v=79
18720 On ch=7 n=76 v=0
18720 On ch=7 n=81 v=0
18720 On ch=7 n=85 v=0
18720 On ch=7 n=81 v=79
18720 On ch=7 n=76 v=79
18720 On ch=7 n=85 v=79
18784 On ch=7 n=76 v=0
18784 On ch=7 n=81 v=0
18784 On ch=7 n=85 v=0
18912 On ch=7 n=80 v=79
18912 On ch=7 n=76 v=79
18912 On ch=7 n=83 v=79
19134 On ch=7 n=76 v=0
19134 On ch=7 n=80 v=0
19134 On ch=7 n=83 v=0
19296 On ch=7 n=78 v=79
19296 On ch=7 n=73 v=79
19296 On ch=7 n=81 v=79
19518 On ch=7 n=73 v=0
19518 On ch=7 n=78 v=0
19518 On ch=7 n=81 v=0
19584 On ch=7 n=75 v=79
19584 On ch=7 n=71 v=79
19584 On ch=7 n=80 v=79
19838 On ch=7 n=71 v=0
19838 On ch=7 n=75 v=0
19838 On ch=7 n=80 v=0
20064 On ch=7 n=81 v=79
20112 On ch=7 n=81 v=0
20112 On ch=7 n=80 v=79
20144 On ch=7 n=80 v=0
20160 On ch=7 n=78 v=79
20192 On ch=7 n=78 v=0
20208 On ch=7 n=85 v=79
20320 On ch=7 n=85 v=0
20448 On ch=7 n=80 v=79
20448 On ch=7 n=76 v=79
20448 On ch=7 n=83 v=79
20670 On ch=7 n=76 v=0
20670 On ch=7 n=80 v=0
20670 On ch=7 n=83 v=0
20832 On ch=7 n=78 v=79
20832 On ch=7 n=73 v=79
20832 On ch=7 n=81 v=79
21054 On ch=7 n=73 v=0
21054 On ch=7 n=78 v=0
21054 On ch=7 n=81 v=0
21120 On ch=7 n=75 v=79
21120 On ch=7 n=71 v=79
21120 On ch=7 n=80 v=79
21374 On ch=7 n=71 v=0
21374 On ch=7 n=75 v=0
21374 On ch=7 n=80 v=0
21600 On ch=7 n=78 v=79
21600 On ch=7 n=81 v=79
21632 On ch=7 n=78 v=0
21648 On ch=7 n=81 v=0
21648 On ch=7 n=80 v=79
21680 On ch=7 n=80 v=0
21696 On ch=7 n=78 v=79
21696 On ch=7 n=81 v=79
21728 On ch=7 n=78 v=0
21728 On ch=7 n=81 v=0
21744 On ch=7 n=76 v=79
21744 On ch=7 n=85 v=79
21856 On ch=7 n=76 v=0
21856 On ch=7 n=85 v=0
21984 On ch=7 n=80 v=79
21984 On ch=7 n=76 v=79
21984 On ch=7 n=83 v=79
22206 On ch=7 n=76 v=0
22206 On ch=7 n=80 v=0
22206 On ch=7 n=83 v=0
22368 On ch=7 n=78 v=79
22368 On ch=7 n=73 v=79
22368 On ch=7 n=81 v=79
22590 On ch=7 n=73 v=0
22590 On ch=7 n=78 v=0
22590 On ch=7 n=81 v=0
22656 On ch=7 n=75 v=79
22656 On ch=7 n=71 v=79
22656 On ch=7 n=80 v=79
22910 On ch=7 n=71 v=0
22910 On ch=7 n=75 v=0
22910 On ch=7 n=80 v=0
23136 On ch=7 n=81 v=79
23184 On ch=7 n=81 v=0
23184 On ch=7 n=80 v=79
23216 On ch=7 n=80 v=0
23232 On ch=7 n=81 v=79
23264 On ch=7 n=81 v=0
23280 On ch=7 n=85 v=79
23392 On ch=7 n=85 v=0
23424 On ch=7 n=81 v=79
23472 On ch=7 n=81 v=0
23472 On ch=7 n=80 v=79
23504 On ch=7 n=80 v=0
23520 On ch=7 n=81 v=79
23552 On ch=7 n=81 v=0
23568 On ch=7 n=85 v=79
23742 On ch=7 n=85 v=0
27744 On ch=7 n=80 v=79
27744 On ch=7 n=76 v=79
27744 On ch=7 n=83 v=79
27966 On ch=7 n=76 v=0
27966 On ch=7 n=80 v=0
27966 On ch=7 n=83 v=0
28128 On ch=7 n=81 v=79
28128 On ch=7 n=73 v=79
28128 On ch=7 n=85 v=79
28350 On ch=7 n=73 v=0
28350 On ch=7 n=81 v=0
28350 On ch=7 n=85 v=0
28416 On ch=7 n=71 v=79
28416 On ch=7 n=75 v=79
28416 On ch=7 n=80 v=79
28670 On ch=7 n=71 v=0
28670 On ch=7 n=75 v=0
28670 On ch=7 n=80 v=0
28896 On ch=7 n=78 v=79
28896 On ch=7 n=73 v=79
28896 On ch=7 n=81 v=79
28928 On ch=7 n=73 v=0
28928 On ch=7 n=78 v=0
28944 On ch=7 n=81 v=0
28944 On ch=7 n=80 v=79
28976 On ch=7 n=80 v=0
28992 On ch=7 n=78 v=79
28992 On ch=7 n=73 v=79
28992 On ch=7 n=81 v=79
29024 On ch=7 n=73 v=0
29024 On ch=7 n=78 v=0
29024 On ch=7 n=81 v=0
29040 On ch=7 n=81 v=79
29040 On ch=7 n=76 v=79
29040 On ch=7 n=85 v=79
29152 On ch=7 n=76 v=0
29152 On ch=7 n=81 v=0
29152 On ch=7 n=85 v=0
29280 On ch=7 n=80 v=79
29280 On ch=7 n=76 v=79
29280 On ch=7 n=83 v=79
29502 On ch=7 n=76 v=0
29502 On ch=7 n=80 v=0
29502 On ch=7 n=83 v=0
29664 On ch=7 n=80 v=79
29664 On ch=7 n=76 v=79
29664 On ch=7 n=83 v=79
29886 On ch=7 n=76 v=0
29886 On ch=7 n=80 v=0
29886 On ch=7 n=83 v=0
29952 On ch=7 n=75 v=79
29952 On ch=7 n=71 v=79
29952 On ch=7 n=80 v=79
30206 On ch=7 n=71 v=0
30206 On ch=7 n=75 v=0
30206 On ch=7 n=80 v=0
30432 On ch=7 n=78 v=79
30432 On ch=7 n=73 v=79
30432 On ch=7 n=81 v=79
30464 On ch=7 n=73 v=0
30464 On ch=7 n=78 v=0
30480 On ch=7 n=81 v=0
30480 On ch=7 n=80 v=79
30512 On ch=7 n=80 v=0
30528 On ch=7 n=78 v=79
30528 On ch=7 n=73 v=79
30528 On ch=7 n=81 v=79
30560 On ch=7 n=73 v=0
30560 On ch=7 n=78 v=0
30560 On ch=7 n=81 v=0
30576 On ch=7 n=81 v=79
30576 On ch=7 n=76 v=79
30576 On ch=7 n=85 v=79
30688 On ch=7 n=76 v=0
30688 On ch=7 n=81 v=0
30688 On ch=7 n=85 v=0
30816 On ch=7 n=80 v=79
30816 On ch=7 n=76 v=79
30816 On ch=7 n=83 v=79
31038 On ch=7 n=76 v=0
31038 On ch=7 n=80 v=0
31038 On ch=7 n=83 v=0
31200 On ch=7 n=78 v=79
31200 On ch=7 n=73 v=79
31200 On ch=7 n=81 v=79
31390 On ch=7 n=73 v=0
31390 On ch=7 n=78 v=0
31390 On ch=7 n=81 v=0
31488 On ch=7 n=75 v=79
31488 On ch=7 n=71 v=79
31488 On ch=7 n=80 v=79
31742 On ch=7 n=71 v=0
31742 On ch=7 n=75 v=0
31742 On ch=7 n=80 v=0
31968 On ch=7 n=78 v=79
31968 On ch=7 n=73 v=79
31968 On ch=7 n=81 v=79
32000 On ch=7 n=73 v=0
32000 On ch=7 n=78 v=0
32016 On ch=7 n=81 v=0
32016 On ch=7 n=80 v=79
32048 On ch=7 n=80 v=0
32064 On ch=7 n=78 v=79
32064 On ch=7 n=73 v=79
32064 On ch=7 n=81 v=79
32096 On ch=7 n=73 v=0
32096 On ch=7 n=78 v=0
32096 On ch=7 n=81 v=0
32112 On ch=7 n=81 v=79
32112 On ch=7 n=76 v=79
32112 On ch=7 n=85 v=79
32224 On ch=7 n=76 v=0
32224 On ch=7 n=81 v=0
32224 On ch=7 n=85 v=0
32352 On ch=7 n=80 v=79
32352 On ch=7 n=76 v=79
32352 On ch=7 n=83 v=79
32542 On ch=7 n=76 v=0
32542 On ch=7 n=80 v=0
32542 On ch=7 n=83 v=0
32736 On ch=7 n=78 v=79
32736 On ch=7 n=73 v=79
32736 On ch=7 n=81 v=79
32958 On ch=7 n=73 v=0
32958 On ch=7 n=78 v=0
32958 On ch=7 n=81 v=0
33024 On ch=7 n=75 v=79
33024 On ch=7 n=71 v=79
33024 On ch=7 n=80 v=79
33278 On ch=7 n=71 v=0
33278 On ch=7 n=75 v=0
33278 On ch=7 n=80 v=0
33504 On ch=7 n=78 v=79
33504 On ch=7 n=73 v=79
33504 On ch=7 n=81 v=79
33536 On ch=7 n=73 v=0
33536 On ch=7 n=78 v=0
33552 On ch=7 n=81 v=0
33552 On ch=7 n=80 v=79
33584 On ch=7 n=80 v=0
33600 On ch=7 n=78 v=79
33600 On ch=7 n=73 v=79
33600 On ch=7 n=81 v=79
33632 On ch=7 n=73 v=0
33632 On ch=7 n=78 v=0
33632 On ch=7 n=81 v=0
33648 On ch=7 n=81 v=79
33648 On ch=7 n=76 v=79
33648 On ch=7 n=85 v=79
33760 On ch=7 n=76 v=0
33760 On ch=7 n=81 v=0
33760 On ch=7 n=85 v=0
33792 On ch=7 n=78 v=79
33792 On ch=7 n=73 v=79
33792 On ch=7 n=81 v=79
33824 On ch=7 n=73 v=0
33824 On ch=7 n=78 v=0
33840 On ch=7 n=81 v=0
33840 On ch=7 n=80 v=79
33872 On ch=7 n=80 v=0
33888 On ch=7 n=78 v=79
33888 On ch=7 n=73 v=79
33888 On ch=7 n=81 v=79
33920 On ch=7 n=73 v=0
33920 On ch=7 n=78 v=0
33920 On ch=7 n=81 v=0
33936 On ch=7 n=81 v=79
33936 On ch=7 n=76 v=79
33936 On ch=7 n=85 v=79
34110 On ch=7 n=76 v=0
34110 On ch=7 n=81 v=0
34110 On ch=7 n=85 v=0
34992 On ch=7 n=76 v=95
35024 On ch=7 n=76 v=0
35040 On ch=7 n=71 v=95
35072 On ch=7 n=71 v=0
35088 On ch=7 n=76 v=95
35120 On ch=7 n=76 v=0
35136 On ch=7 n=71 v=95
35168 On ch=7 n=71 v=0
35184 On ch=7 n=78 v=95
35216 On ch=7 n=78 v=0
35232 On ch=7 n=71 v=95
35264 On ch=7 n=71 v=0
35280 On ch=7 n=76 v=95
35312 On ch=7 n=76 v=0
35376 On ch=7 n=73 v=95
35408 On ch=7 n=73 v=0
35424 On ch=7 n=69 v=95
35456 On ch=7 n=69 v=0
35472 On ch=7 n=73 v=95
35504 On ch=7 n=73 v=0
35520 On ch=7 n=69 v=95
35552 On ch=7 n=69 v=0
35568 On ch=7 n=73 v=95
35600 On ch=7 n=73 v=0
35616 On ch=7 n=69 v=95
35648 On ch=7 n=69 v=0
35664 On ch=7 n=73 v=95
35696 On ch=7 n=73 v=0
35760 On ch=7 n=76 v=95
35792 On ch=7 n=76 v=0
35808 On ch=7 n=71 v=95
35840 On ch=7 n=71 v=0
35856 On ch=7 n=76 v=95
35888 On ch=7 n=76 v=0
35904 On ch=7 n=71 v=95
35936 On ch=7 n=71 v=0
35952 On ch=7 n=76 v=95
35984 On ch=7 n=76 v=0
36000 On ch=7 n=71 v=95
36032 On ch=7 n=71 v=0
36048 On ch=7 n=76 v=95
36080 On ch=7 n=76 v=0
36144 On ch=7 n=73 v=95
36176 On ch=7 n=73 v=0
36192 On ch=7 n=69 v=95
36224 On ch=7 n=69 v=0
36240 On ch=7 n=73 v=95
36272 On ch=7 n=73 v=0
36288 On ch=7 n=69 v=95
36320 On ch=7 n=69 v=0
36336 On ch=7 n=75 v=95
36368 On ch=7 n=75 v=0
36384 On ch=7 n=69 v=95
36416 On ch=7 n=69 v=0
36432 On ch=7 n=73 v=95
36464 On ch=7 n=73 v=0
36480 On ch=7 n=71 v=95
36512 On ch=7 n=71 v=0
36528 On ch=7 n=76 v=95
36560 On ch=7 n=76 v=0
36576 On ch=7 n=71 v=95
36608 On ch=7 n=71 v=0
36624 On ch=7 n=76 v=95
36656 On ch=7 n=76 v=0
36672 On ch=7 n=71 v=95
36704 On ch=7 n=71 v=0
36720 On ch=7 n=76 v=95
36752 On ch=7 n=76 v=0
36768 On ch=7 n=71 v=95
36800 On ch=7 n=71 v=0
36816 On ch=7 n=76 v=95
36848 On ch=7 n=76 v=0
36864 On ch=7 n=69 v=95
36896 On ch=7 n=69 v=0
36912 On ch=7 n=73 v=95
36944 On ch=7 n=73 v=0
36960 On ch=7 n=69 v=95
36992 On ch=7 n=69 v=0
37008 On ch=7 n=73 v=95
37040 On ch=7 n=73 v=0
37056 On ch=7 n=69 v=95
37088 On ch=7 n=69 v=0
37104 On ch=7 n=73 v=95
37136 On ch=7 n=73 v=0
37152 On ch=7 n=69 v=95
37184 On ch=7 n=69 v=0
37200 On ch=7 n=73 v=95
37232 On ch=7 n=73 v=0
37248 On ch=7 n=71 v=95
37280 On ch=7 n=71 v=0
37296 On ch=7 n=76 v=95
37328 On ch=7 n=76 v=0
37344 On ch=7 n=71 v=95
37376 On ch=7 n=71 v=0
37392 On ch=7 n=76 v=95
37424 On ch=7 n=76 v=0
37440 On ch=7 n=71 v=95
37472 On ch=7 n=71 v=0
37488 On ch=7 n=76 v=95
37520 On ch=7 n=76 v=0
37536 On ch=7 n=71 v=95
37568 On ch=7 n=71 v=0
37584 On ch=7 n=76 v=95
37616 On ch=7 n=76 v=0
37632 On ch=7 n=73 v=95
37664 On ch=7 n=73 v=0
37680 On ch=7 n=76 v=95
37712 On ch=7 n=76 v=0
37728 On ch=7 n=73 v=95
37760 On ch=7 n=73 v=0
37776 On ch=7 n=76 v=95
37808 On ch=7 n=76 v=0
37824 On ch=7 n=71 v=95
37856 On ch=7 n=71 v=0
37872 On ch=7 n=76 v=95
37904 On ch=7 n=76 v=0
37920 On ch=7 n=71 v=95
37952 On ch=7 n=71 v=0
37968 On ch=7 n=76 v=95
38000 On ch=7 n=76 v=0
38064 On ch=7 n=76 v=111
38096 On ch=7 n=76 v=0
38112 On ch=7 n=71 v=111
38144 On ch=7 n=71 v=0
38160 On ch=7 n=76 v=111
38192 On ch=7 n=76 v=0
38208 On ch=7 n=71 v=111
38240 On ch=7 n=71 v=0
38256 On ch=7 n=78 v=111
38288 On ch=7 n=78 v=0
38304 On ch=7 n=71 v=111
38336 On ch=7 n=71 v=0
38352 On ch=7 n=76 v=111
38384 On ch=7 n=76 v=0
38448 On ch=7 n=73 v=111
38480 On ch=7 n=73 v=0
38496 On ch=7 n=69 v=111
38528 On ch=7 n=69 v=0
38544 On ch=7 n=73 v=111
38576 On ch=7 n=73 v=0
38592 On ch=7 n=69 v=111
38624 On ch=7 n=69 v=0
38640 On ch=7 n=73 v=111
38672 On ch=7 n=73 v=0
38688 On ch=7 n=69 v=111
38720 On ch=7 n=69 v=0
38736 On ch=7 n=73 v=111
38768 On ch=7 n=73 v=0
38832 On ch=7 n=76 v=111
38864 On ch=7 n=76 v=0
38880 On ch=7 n=71 v=111
38912 On ch=7 n=71 v=0
38928 On ch=7 n=76 v=111
38960 On ch=7 n=76 v=0
38976 On ch=7 n=71 v=111
39008 On ch=7 n=71 v=0
39024 On ch=7 n=76 v=111
39056 On ch=7 n=76 v=0
39072 On ch=7 n=71 v=111
39104 On ch=7 n=71 v=0
39120 On ch=7 n=76 v=111
39152 On ch=7 n=76 v=0
39216 On ch=7 n=73 v=111
39248 On ch=7 n=73 v=0
39264 On ch=7 n=69 v=111
39296 On ch=7 n=69 v=0
39312 On ch=7 n=73 v=111
39344 On ch=7 n=73 v=0
39360 On ch=7 n=69 v=111
39392 On ch=7 n=69 v=0
39408 On ch=7 n=75 v=111
39440 On ch=7 n=75 v=0
39456 On ch=7 n=69 v=111
39488 On ch=7 n=69 v=0
39504 On ch=7 n=73 v=111
39536 On ch=7 n=73 v=0
39552 On ch=7 n=71 v=111
39584 On ch=7 n=71 v=0
39600 On ch=7 n=76 v=111
39632 On ch=7 n=76 v=0
39648 On ch=7 n=71 v=111
39680 On ch=7 n=71 v=0
39696 On ch=7 n=76 v=111
39728 On ch=7 n=76 v=0
39744 On ch=7 n=71 v=111
39776 On ch=7 n=71 v=0
39792 On ch=7 n=76 v=111
39824 On ch=7 n=76 v=0
39840 On ch=7 n=71 v=111
39872 On ch=7 n=71 v=0
39888 On ch=7 n=76 v=111
39920 On ch=7 n=76 v=0
39936 On ch=7 n=69 v=111
39968 On ch=7 n=69 v=0
39984 On ch=7 n=73 v=111
40016 On ch=7 n=73 v=0
40032 On ch=7 n=69 v=111
40064 On ch=7 n=69 v=0
40080 On ch=7 n=73 v=111
40112 On ch=7 n=73 v=0
40128 On ch=7 n=69 v=111
40160 On ch=7 n=69 v=0
40176 On ch=7 n=73 v=111
40208 On ch=7 n=73 v=0
40224 On ch=7 n=69 v=111
40256 On ch=7 n=69 v=0
40272 On ch=7 n=73 v=111
40304 On ch=7 n=73 v=0
40320 On ch=7 n=71 v=111
40352 On ch=7 n=71 v=0
40368 On ch=7 n=76 v=111
40400 On ch=7 n=76 v=0
40416 On ch=7 n=71 v=111
40448 On ch=7 n=71 v=0
40464 On ch=7 n=76 v=111
40496 On ch=7 n=76 v=0
40512 On ch=7 n=71 v=111
40544 On ch=7 n=71 v=0
40560 On ch=7 n=76 v=111
40592 On ch=7 n=76 v=0
40608 On ch=7 n=71 v=111
40640 On ch=7 n=71 v=0
40656 On ch=7 n=76 v=111
40688 On ch=7 n=76 v=0
40704 On ch=7 n=73 v=111
40736 On ch=7 n=73 v=0
40752 On ch=7 n=76 v=111
40784 On ch=7 n=76 v=0
40800 On ch=7 n=73 v=111
40832 On ch=7 n=73 v=0
40848 On ch=7 n=76 v=111
40880 On ch=7 n=76 v=0
40896 On ch=7 n=71 v=111
40928 On ch=7 n=71 v=0
40944 On ch=7 n=76 v=111
40976 On ch=7 n=76 v=0
40992 On ch=7 n=71 v=111
41024 On ch=7 n=71 v=0
41040 On ch=7 n=76 v=111
41072 On ch=7 n=76 v=0
41088 On ch=7 n=71 v=127
41120 On ch=7 n=71 v=0
41136 On ch=7 n=76 v=127
41168 On ch=7 n=76 v=0
41184 On ch=7 n=71 v=127
41216 On ch=7 n=71 v=0
41232 On ch=7 n=76 v=127
41264 On ch=7 n=76 v=0
41280 On ch=7 n=71 v=127
41312 On ch=7 n=71 v=0
41328 On ch=7 n=76 v=127
41360 On ch=7 n=76 v=0
41376 On ch=7 n=71 v=127
41408 On ch=7 n=71 v=0
41424 On ch=7 n=76 v=127
41456 On ch=7 n=76 v=0
41472 On ch=7 n=69 v=127
41504 On ch=7 n=69 v=0
41520 On ch=7 n=73 v=127
41552 On ch=7 n=73 v=0
41568 On ch=7 n=69 v=127
41600 On ch=7 n=69 v=0
41616 On ch=7 n=73 v=127
41648 On ch=7 n=73 v=0
41664 On ch=7 n=69 v=127
41696 On ch=7 n=69 v=0
41712 On ch=7 n=73 v=127
41744 On ch=7 n=73 v=0
41760 On ch=7 n=69 v=127
41792 On ch=7 n=69 v=0
41808 On ch=7 n=73 v=127
41840 On ch=7 n=73 v=0
41856 On ch=7 n=71 v=127
41888 On ch=7 n=71 v=0
41904 On ch=7 n=76 v=127
41936 On ch=7 n=76 v=0
41952 On ch=7 n=71 v=127
41984 On ch=7 n=71 v=0
42000 On ch=7 n=76 v=127
42032 On ch=7 n=76 v=0
42048 On ch=7 n=71 v=127
42080 On ch=7 n=71 v=0
42096 On ch=7 n=76 v=127
42128 On ch=7 n=76 v=0
42144 On ch=7 n=71 v=127
42208 On ch=7 n=71 v=0
42240 On ch=7 n=81 v=111
42252 On ch=7 n=81 v=0
42252 On ch=7 n=81 v=111
42264 On ch=7 n=81 v=0
42264 On ch=7 n=81 v=111
42276 On ch=7 n=81 v=0
42276 On ch=7 n=81 v=111
42288 On ch=7 n=81 v=0
42288 On ch=7 n=81 v=111
42300 On ch=7 n=81 v=0
42300 On ch=7 n=81 v=111
42312 On ch=7 n=81 v=0
42312 On ch=7 n=81 v=111
42324 On ch=7 n=81 v=0
42324 On ch=7 n=81 v=111
42336 On ch=7 n=81 v=0
42336 On ch=7 n=81 v=111
42348 On ch=7 n=81 v=0
42348 On ch=7 n=81 v=111
42360 On ch=7 n=81 v=0
42360 On ch=7 n=81 v=111
42372 On ch=7 n=81 v=0
42372 On ch=7 n=81 v=111
42384 On ch=7 n=81 v=0
42384 On ch=7 n=81 v=111
42396 On ch=7 n=81 v=0
42396 On ch=7 n=81 v=111
42408 On ch=7 n=81 v=0
42408 On ch=7 n=81 v=111
42420 On ch=7 n=81 v=0
42420 On ch=7 n=81 v=111
42432 On ch=7 n=81 v=0
42432 On ch=7 n=76 v=111
42444 On ch=7 n=76 v=0
42444 On ch=7 n=76 v=111
42456 On ch=7 n=76 v=0
42456 On ch=7 n=76 v=111
42468 On ch=7 n=76 v=0
42468 On ch=7 n=76 v=111
42480 On ch=7 n=76 v=0
42480 On ch=7 n=76 v=111
42492 On ch=7 n=76 v=0
42492 On ch=7 n=76 v=111
42504 On ch=7 n=76 v=0
42504 On ch=7 n=76 v=111
42516 On ch=7 n=76 v=0
42516 On ch=7 n=76 v=111
42528 On ch=7 n=76 v=0
42528 On ch=7 n=76 v=111
42540 On ch=7 n=76 v=0
42540 On ch=7 n=76 v=111
42552 On ch=7 n=76 v=0
42552 On ch=7 n=76 v=111
42564 On ch=7 n=76 v=0
42564 On ch=7 n=76 v=111
42576 On ch=7 n=76 v=0
42576 On ch=7 n=76 v=111
42588 On ch=7 n=76 v=0
42588 On ch=7 n=76 v=111
42600 On ch=7 n=76 v=0
42600 On ch=7 n=76 v=111
42612 On ch=7 n=76 v=0
42612 On ch=7 n=76 v=111
42624 On ch=7 n=76 v=0
42624 On ch=7 n=73 v=111
42636 On ch=7 n=73 v=0
42636 On ch=7 n=73 v=111
42648 On ch=7 n=73 v=0
42648 On ch=7 n=73 v=111
42660 On ch=7 n=73 v=0
42660 On ch=7 n=73 v=111
42672 On ch=7 n=73 v=0
42672 On ch=7 n=73 v=111
42684 On ch=7 n=73 v=0
42684 On ch=7 n=73 v=111
42696 On ch=7 n=73 v=0
42696 On ch=7 n=73 v=111
42708 On ch=7 n=73 v=0
42708 On ch=7 n=73 v=111
42720 On ch=7 n=73 v=0
42720 On ch=7 n=73 v=111
42732 On ch=7 n=73 v=0
42732 On ch=7 n=73 v=111
42744 On ch=7 n=73 v=0
42744 On ch=7 n=73 v=111
42756 On ch=7 n=73 v=0
42756 On ch=7 n=73 v=111
42768 On ch=7 n=73 v=0
42768 On ch=7 n=73 v=111
42780 On ch=7 n=73 v=0
42780 On ch=7 n=73 v=111
42792 On ch=7 n=73 v=0
42792 On ch=7 n=73 v=111
42804 On ch=7 n=73 v=0
42804 On ch=7 n=73 v=111
42816 On ch=7 n=73 v=0
42816 On ch=7 n=69 v=111
42828 On ch=7 n=69 v=0
42828 On ch=7 n=69 v=111
42840 On ch=7 n=69 v=0
42840 On ch=7 n=69 v=111
42852 On ch=7 n=69 v=0
42852 On ch=7 n=69 v=111
42864 On ch=7 n=69 v=0
42864 On ch=7 n=69 v=111
42876 On ch=7 n=69 v=0
42876 On ch=7 n=69 v=111
42888 On ch=7 n=69 v=0
42888 On ch=7 n=69 v=111
42900 On ch=7 n=69 v=0
42900 On ch=7 n=69 v=111
42912 On ch=7 n=69 v=0
42912 On ch=7 n=69 v=111
42924 On ch=7 n=69 v=0
42924 On ch=7 n=69 v=111
42936 On ch=7 n=69 v=0
42936 On ch=7 n=69 v=111
42948 On ch=7 n=69 v=0
42948 On ch=7 n=69 v=111
42960 On ch=7 n=69 v=0
42960 On ch=7 n=69 v=111
42972 On ch=7 n=69 v=0
42972 On ch=7 n=69 v=111
42984 On ch=7 n=69 v=0
42984 On ch=7 n=69 v=111
42996 On ch=7 n=69 v=0
42996 On ch=7 n=69 v=111
43008 On ch=7 n=69 v=0
43008 On ch=7 n=69 v=127
43072 On ch=7 n=69 v=0
43072 Meta TrkEnd
TrkEnd
MTrk
0 Meta TrkName "Unnamed"
193 Par ch=8 c=0 v=0
195 Par ch=8 c=32 v=0
197 PrCh ch=8 p=0
199 Par ch=8 c=1 v=0
201 Par ch=8 c=7 v=96
203 Par ch=8 c=10 v=64
205 Par ch=8 c=11 v=127
207 Par ch=8 c=64 v=0
209 Par ch=8 c=91 v=64
211 Par ch=8 c=93 v=64
213 Pb ch=8 v=8192
213 Meta TrkEnd
TrkEnd
MTrk
0 Meta TrkName "Norma Wms."
193 Par ch=9 c=0 v=0
195 Par ch=9 c=32 v=0
197 PrCh ch=9 p=0
199 Par ch=9 c=1 v=0
201 Par ch=9 c=7 v=96
203 Par ch=9 c=10 v=64
205 Par ch=9 c=11 v=127
207 Par ch=9 c=64 v=0
209 Par ch=9 c=91 v=64
211 Par ch=9 c=93 v=64
213 Pb ch=9 v=8192
213 Meta TrkEnd
TrkEnd
MTrk
0 Meta TrkName "Rhythm&SE"
193 Par ch=10 c=0 v=0
195 Par ch=10 c=32 v=0
197 PrCh ch=10 p=0
199 Par ch=10 c=1 v=0
201 Par ch=10 c=7 v=89
203 Par ch=10 c=10 v=64
205 Par ch=10 c=11 v=127
207 Par ch=10 c=64 v=0
209 Par ch=10 c=91 v=64
211 Par ch=10 c=93 v=64
213 Pb ch=10 v=8192
480 Par ch=10 c=7 v=90
2688 Pb ch=10 v=8192
2688 Par ch=10 c=1 v=0
2688 Par ch=10 c=0 v=0
2688 Par ch=10 c=32 v=0
2688 PrCh ch=10 p=0
2688 Par ch=10 c=64 v=0
2688 Par ch=10 c=10 v=64
2688 Par ch=10 c=11 v=127
2688 Par ch=10 c=91 v=64
2688 Par ch=10 c=93 v=64
5280 On ch=10 n=38 v=84
5328 On ch=10 n=43 v=84
5344 On ch=10 n=38 v=0
5376 On ch=10 n=36 v=106
5376 On ch=10 n=49 v=63
5376 On ch=10 n=59 v=106
5378 On ch=10 n=36 v=0
5378 On ch=10 n=49 v=0
5378 On ch=10 n=59 v=0
5392 On ch=10 n=43 v=0
5424 On ch=10 n=59 v=106
5426 On ch=10 n=59 v=0
5472 On ch=10 n=38 v=106
5472 On ch=10 n=59 v=106
5474 On ch=10 n=38 v=0
5474 On ch=10 n=59 v=0
5520 On ch=10 n=59 v=106
5522 On ch=10 n=59 v=0
5568 On ch=10 n=36 v=106
5568 On ch=10 n=59 v=106
5570 On ch=10 n=36 v=0
5570 On ch=10 n=59 v=0
5616 On ch=10 n=59 v=106
5618 On ch=10 n=59 v=0
5664 On ch=10 n=38 v=106
5664 On ch=10 n=59 v=106
5666 On ch=10 n=38 v=0
5666 On ch=10 n=59 v=0
5712 On ch=10 n=59 v=106
5714 On ch=10 n=59 v=0
5760 On ch=10 n=36 v=106
5760 On ch=10 n=59 v=106
5762 On ch=10 n=36 v=0
5762 On ch=10 n=59 v=0
5808 On ch=10 n=59 v=106
5810 On ch=10 n=59 v=0
5856 On ch=10 n=38 v=106
5856 On ch=10 n=59 v=106
5858 On ch=10 n=38 v=0
5858 On ch=10 n=59 v=0
5904 On ch=10 n=59 v=106
5906 On ch=10 n=59 v=0
5952 On ch=10 n=36 v=106
5952 On ch=10 n=59 v=106
5954 On ch=10 n=36 v=0
5954 On ch=10 n=59 v=0
6000 On ch=10 n=59 v=106
6002 On ch=10 n=59 v=0
6048 On ch=10 n=38 v=106
6048 On ch=10 n=59 v=106
6050 On ch=10 n=38 v=0
6050 On ch=10 n=59 v=0
6096 On ch=10 n=59 v=106
6098 On ch=10 n=59 v=0
6144 On ch=10 n=36 v=106
6144 On ch=10 n=59 v=106
6146 On ch=10 n=36 v=0
6146 On ch=10 n=59 v=0
6192 On ch=10 n=59 v=106
6194 On ch=10 n=59 v=0
6240 On ch=10 n=38 v=106
6240 On ch=10 n=59 v=106
6242 On ch=10 n=38 v=0
6242 On ch=10 n=59 v=0
6288 On ch=10 n=59 v=106
6290 On ch=10 n=59 v=0
6336 On ch=10 n=36 v=106
6336 On ch=10 n=59 v=106
6338 On ch=10 n=36 v=0
6338 On ch=10 n=59 v=0
6384 On ch=10 n=59 v=106
6386 On ch=10 n=59 v=0
6432 On ch=10 n=38 v=106
6432 On ch=10 n=59 v=106
6434 On ch=10 n=38 v=0
6434 On ch=10 n=59 v=0
6480 On ch=10 n=59 v=106
6482 On ch=10 n=59 v=0
6528 On ch=10 n=36 v=106
6528 On ch=10 n=59 v=106
6530 On ch=10 n=36 v=0
6530 On ch=10 n=59 v=0
6576 On ch=10 n=59 v=106
6578 On ch=10 n=59 v=0
6624 On ch=10 n=38 v=106
6624 On ch=10 n=59 v=106
6626 On ch=10 n=38 v=0
6626 On ch=10 n=59 v=0
6672 On ch=10 n=59 v=106
6674 On ch=10 n=59 v=0
6720 On ch=10 n=36 v=106
6720 On ch=10 n=59 v=106
6722 On ch=10 n=36 v=0
6722 On ch=10 n=59 v=0
6768 On ch=10 n=59 v=106
6770 On ch=10 n=59 v=0
6816 On ch=10 n=38 v=106
6816 On ch=10 n=59 v=106
6818 On ch=10 n=38 v=0
6818 On ch=10 n=59 v=0
6864 On ch=10 n=36 v=106
6864 On ch=10 n=59 v=106
6866 On ch=10 n=59 v=0
6912 On ch=10 n=36 v=0
6912 On ch=10 n=36 v=106
6912 On ch=10 n=49 v=84
6912 On ch=10 n=59 v=106
6914 On ch=10 n=36 v=0
6914 On ch=10 n=49 v=0
6914 On ch=10 n=59 v=0
6960 On ch=10 n=59 v=106
6962 On ch=10 n=59 v=0
7008 On ch=10 n=38 v=106
7008 On ch=10 n=59 v=106
7010 On ch=10 n=38 v=0
7010 On ch=10 n=59 v=0
7056 On ch=10 n=59 v=106
7058 On ch=10 n=59 v=0
7104 On ch=10 n=36 v=106
7104 On ch=10 n=59 v=106
7106 On ch=10 n=36 v=0
7106 On ch=10 n=59 v=0
7152 On ch=10 n=59 v=106
7154 On ch=10 n=59 v=0
7200 On ch=10 n=38 v=106
7200 On ch=10 n=59 v=106
7202 On ch=10 n=38 v=0
7202 On ch=10 n=59 v=0
7248 On ch=10 n=59 v=106
7250 On ch=10 n=59 v=0
7296 On ch=10 n=36 v=106
7296 On ch=10 n=59 v=106
7298 On ch=10 n=36 v=0
7298 On ch=10 n=59 v=0
7344 On ch=10 n=59 v=106
7346 On ch=10 n=59 v=0
7392 On ch=10 n=38 v=106
7392 On ch=10 n=59 v=106
7394 On ch=10 n=38 v=0
7394 On ch=10 n=59 v=0
7440 On ch=10 n=59 v=106
7442 On ch=10 n=59 v=0
7488 On ch=10 n=36 v=106
7488 On ch=10 n=59 v=106
7490 On ch=10 n=36 v=0
7490 On ch=10 n=59 v=0
7536 On ch=10 n=59 v=106
7538 On ch=10 n=59 v=0
7584 On ch=10 n=38 v=106
7584 On ch=10 n=59 v=106
7586 On ch=10 n=38 v=0
7586 On ch=10 n=59 v=0
7632 On ch=10 n=59 v=106
7634 On ch=10 n=59 v=0
7680 On ch=10 n=36 v=106
7680 On ch=10 n=59 v=106
7682 On ch=10 n=36 v=0
7682 On ch=10 n=59 v=0
7728 On ch=10 n=59 v=106
7730 On ch=10 n=59 v=0
7776 On ch=10 n=38 v=106
7776 On ch=10 n=59 v=106
7778 On ch=10 n=38 v=0
7778 On ch=10 n=59 v=0
7824 On ch=10 n=59 v=106
7826 On ch=10 n=59 v=0
7872 On ch=10 n=36 v=106
7872 On ch=10 n=59 v=106
7874 On ch=10 n=36 v=0
7874 On ch=10 n=59 v=0
7920 On ch=10 n=59 v=106
7922 On ch=10 n=59 v=0
7968 On ch=10 n=38 v=106
7968 On ch=10 n=59 v=106
7970 On ch=10 n=38 v=0
7970 On ch=10 n=59 v=0
8016 On ch=10 n=59 v=106
8018 On ch=10 n=59 v=0
8064 On ch=10 n=36 v=106
8064 On ch=10 n=59 v=106
8066 On ch=10 n=36 v=0
8066 On ch=10 n=59 v=0
8112 On ch=10 n=59 v=106
8114 On ch=10 n=59 v=0
8160 On ch=10 n=38 v=106
8160 On ch=10 n=59 v=106
8162 On ch=10 n=38 v=0
8162 On ch=10 n=59 v=0
8208 On ch=10 n=59 v=106
8210 On ch=10 n=59 v=0
8256 On ch=10 n=36 v=106
8256 On ch=10 n=59 v=106
8258 On ch=10 n=36 v=0
8258 On ch=10 n=59 v=0
8304 On ch=10 n=59 v=106
8306 On ch=10 n=59 v=0
8352 On ch=10 n=38 v=106
8352 On ch=10 n=59 v=106
8354 On ch=10 n=38 v=0
8354 On ch=10 n=59 v=0
8400 On ch=10 n=59 v=106
8402 On ch=10 n=59 v=0
8448 On ch=10 n=36 v=106
8448 On ch=10 n=59 v=106
8450 On ch=10 n=36 v=0
8450 On ch=10 n=59 v=0
8496 On ch=10 n=59 v=106
8498 On ch=10 n=59 v=0
8544 On ch=10 n=38 v=106
8544 On ch=10 n=59 v=106
8546 On ch=10 n=38 v=0
8546 On ch=10 n=59 v=0
8592 On ch=10 n=59 v=106
8594 On ch=10 n=59 v=0
8640 On ch=10 n=36 v=106
8640 On ch=10 n=59 v=106
8642 On ch=10 n=36 v=0
8642 On ch=10 n=59 v=0
8688 On ch=10 n=59 v=106
8690 On ch=10 n=59 v=0
8736 On ch=10 n=38 v=106
8736 On ch=10 n=59 v=106
8738 On ch=10 n=38 v=0
8738 On ch=10 n=59 v=0
8784 On ch=10 n=59 v=106
8786 On ch=10 n=59 v=0
8832 On ch=10 n=36 v=106
8832 On ch=10 n=59 v=106
8834 On ch=10 n=36 v=0
8834 On ch=10 n=59 v=0
8880 On ch=10 n=59 v=106
8882 On ch=10 n=59 v=0
8928 On ch=10 n=38 v=106
8928 On ch=10 n=59 v=106
8930 On ch=10 n=38 v=0
8930 On ch=10 n=59 v=0
8976 On ch=10 n=59 v=106
8978 On ch=10 n=59 v=0
9024 On ch=10 n=36 v=106
9024 On ch=10 n=59 v=106
9026 On ch=10 n=36 v=0
9026 On ch=10 n=59 v=0
9072 On ch=10 n=59 v=106
9074 On ch=10 n=59 v=0
9120 On ch=10 n=38 v=106
9120 On ch=10 n=59 v=106
9122 On ch=10 n=38 v=0
9122 On ch=10 n=59 v=0
9168 On ch=10 n=59 v=106
9170 On ch=10 n=59 v=0
9216 On ch=10 n=36 v=106
9216 On ch=10 n=59 v=106
9218 On ch=10 n=36 v=0
9218 On ch=10 n=59 v=0
9264 On ch=10 n=59 v=106
9266 On ch=10 n=59 v=0
9312 On ch=10 n=38 v=106
9312 On ch=10 n=59 v=106
9314 On ch=10 n=38 v=0
9314 On ch=10 n=59 v=0
9360 On ch=10 n=59 v=106
9362 On ch=10 n=59 v=0
9408 On ch=10 n=36 v=106
9408 On ch=10 n=59 v=106
9410 On ch=10 n=36 v=0
9410 On ch=10 n=59 v=0
9456 On ch=10 n=59 v=106
9458 On ch=10 n=59 v=0
9504 On ch=10 n=38 v=106
9504 On ch=10 n=59 v=106
9506 On ch=10 n=38 v=0
9506 On ch=10 n=59 v=0
9552 On ch=10 n=59 v=106
9554 On ch=10 n=59 v=0
9600 On ch=10 n=36 v=106
9600 On ch=10 n=59 v=106
9602 On ch=10 n=36 v=0
9602 On ch=10 n=59 v=0
9648 On ch=10 n=59 v=106
9650 On ch=10 n=59 v=0
9696 On ch=10 n=38 v=106
9696 On ch=10 n=59 v=106
9698 On ch=10 n=38 v=0
9698 On ch=10 n=59 v=0
9744 On ch=10 n=59 v=106
9746 On ch=10 n=59 v=0
9792 On ch=10 n=36 v=106
9792 On ch=10 n=59 v=106
9794 On ch=10 n=36 v=0
9794 On ch=10 n=59 v=0
9840 On ch=10 n=59 v=106
9842 On ch=10 n=59 v=0
9888 On ch=10 n=38 v=106
9888 On ch=10 n=59 v=106
9890 On ch=10 n=38 v=0
9890 On ch=10 n=59 v=0
9936 On ch=10 n=36 v=106
9936 On ch=10 n=59 v=106
9938 On ch=10 n=36 v=0
9984 On ch=10 n=36 v=106
9984 On ch=10 n=49 v=84
9984 On ch=10 n=59 v=0
9984 On ch=10 n=59 v=106
9986 On ch=10 n=36 v=0
9986 On ch=10 n=49 v=0
9986 On ch=10 n=59 v=0
10032 On ch=10 n=59 v=106
10034 On ch=10 n=59 v=0
10080 On ch=10 n=38 v=106
10080 On ch=10 n=59 v=106
10082 On ch=10 n=38 v=0
10082 On ch=10 n=59 v=0
10128 On ch=10 n=59 v=106
10130 On ch=10 n=59 v=0
10176 On ch=10 n=36 v=106
10176 On ch=10 n=59 v=106
10178 On ch=10 n=36 v=0
10178 On ch=10 n=59 v=0
10224 On ch=10 n=59 v=106
10226 On ch=10 n=59 v=0
10272 On ch=10 n=38 v=106
10272 On ch=10 n=59 v=106
10274 On ch=10 n=38 v=0
10274 On ch=10 n=59 v=0
10320 On ch=10 n=59 v=106
10322 On ch=10 n=59 v=0
10368 On ch=10 n=36 v=106
10368 On ch=10 n=59 v=106
10370 On ch=10 n=36 v=0
10370 On ch=10 n=59 v=0
10416 On ch=10 n=59 v=106
10418 On ch=10 n=59 v=0
10464 On ch=10 n=38 v=106
10464 On ch=10 n=59 v=106
10466 On ch=10 n=38 v=0
10466 On ch=10 n=59 v=0
10512 On ch=10 n=59 v=106
10514 On ch=10 n=59 v=0
10560 On ch=10 n=36 v=106
10560 On ch=10 n=59 v=106
10562 On ch=10 n=36 v=0
10562 On ch=10 n=59 v=0
10608 On ch=10 n=59 v=106
10610 On ch=10 n=59 v=0
10656 On ch=10 n=38 v=106
10656 On ch=10 n=59 v=106
10658 On ch=10 n=38 v=0
10658 On ch=10 n=59 v=0
10704 On ch=10 n=59 v=106
10706 On ch=10 n=59 v=0
10752 On ch=10 n=36 v=106
10752 On ch=10 n=59 v=106
10754 On ch=10 n=36 v=0
10754 On ch=10 n=59 v=0
10800 On ch=10 n=59 v=106
10802 On ch=10 n=59 v=0
10848 On ch=10 n=38 v=106
10848 On ch=10 n=59 v=106
10850 On ch=10 n=38 v=0
10850 On ch=10 n=59 v=0
10896 On ch=10 n=59 v=106
10898 On ch=10 n=59 v=0
10944 On ch=10 n=36 v=106
10944 On ch=10 n=59 v=106
10946 On ch=10 n=36 v=0
10946 On ch=10 n=59 v=0
10992 On ch=10 n=59 v=106
10994 On ch=10 n=59 v=0
11040 On ch=10 n=38 v=106
11040 On ch=10 n=59 v=106
11042 On ch=10 n=38 v=0
11042 On ch=10 n=59 v=0
11088 On ch=10 n=59 v=106
11090 On ch=10 n=59 v=0
11136 On ch=10 n=36 v=106
11136 On ch=10 n=59 v=106
11138 On ch=10 n=36 v=0
11138 On ch=10 n=59 v=0
11184 On ch=10 n=59 v=106
11186 On ch=10 n=59 v=0
11232 On ch=10 n=38 v=106
11232 On ch=10 n=59 v=106
11234 On ch=10 n=38 v=0
11234 On ch=10 n=59 v=0
11280 On ch=10 n=59 v=106
11282 On ch=10 n=59 v=0
11328 On ch=10 n=36 v=106
11328 On ch=10 n=59 v=106
11330 On ch=10 n=36 v=0
11330 On ch=10 n=59 v=0
11376 On ch=10 n=59 v=106
11378 On ch=10 n=59 v=0
11424 On ch=10 n=38 v=106
11424 On ch=10 n=59 v=106
11426 On ch=10 n=38 v=0
11426 On ch=10 n=59 v=0
11472 On ch=10 n=59 v=106
11474 On ch=10 n=59 v=0
11520 On ch=10 n=36 v=106
11520 On ch=10 n=59 v=106
11522 On ch=10 n=36 v=0
11522 On ch=10 n=59 v=0
11568 On ch=10 n=59 v=106
11570 On ch=10 n=59 v=0
11616 On ch=10 n=38 v=106
11616 On ch=10 n=59 v=106
11618 On ch=10 n=38 v=0
11618 On ch=10 n=59 v=0
11664 On ch=10 n=59 v=106
11666 On ch=10 n=59 v=0
11712 On ch=10 n=36 v=106
11712 On ch=10 n=59 v=106
11714 On ch=10 n=36 v=0
11714 On ch=10 n=59 v=0
11760 On ch=10 n=59 v=106
11762 On ch=10 n=59 v=0
11808 On ch=10 n=38 v=106
11808 On ch=10 n=59 v=106
11810 On ch=10 n=38 v=0
11810 On ch=10 n=59 v=0
11856 On ch=10 n=59 v=106
11858 On ch=10 n=59 v=0
11904 On ch=10 n=36 v=106
11904 On ch=10 n=59 v=106
11906 On ch=10 n=36 v=0
11906 On ch=10 n=59 v=0
11952 On ch=10 n=59 v=106
11954 On ch=10 n=59 v=0
12000 On ch=10 n=38 v=106
12000 On ch=10 n=59 v=106
12002 On ch=10 n=38 v=0
12002 On ch=10 n=59 v=0
12048 On ch=10 n=59 v=106
12050 On ch=10 n=59 v=0
12096 On ch=10 n=36 v=106
12096 On ch=10 n=59 v=106
12098 On ch=10 n=36 v=0
12098 On ch=10 n=59 v=0
12144 On ch=10 n=59 v=106
12146 On ch=10 n=59 v=0
12192 On ch=10 n=38 v=106
12192 On ch=10 n=59 v=106
12194 On ch=10 n=38 v=0
12194 On ch=10 n=59 v=0
12240 On ch=10 n=59 v=106
12242 On ch=10 n=59 v=0
12288 On ch=10 n=36 v=106
12288 On ch=10 n=59 v=106
12290 On ch=10 n=36 v=0
12290 On ch=10 n=59 v=0
12336 On ch=10 n=59 v=106
12338 On ch=10 n=59 v=0
12384 On ch=10 n=38 v=106
12384 On ch=10 n=59 v=106
12386 On ch=10 n=38 v=0
12386 On ch=10 n=59 v=0
12432 On ch=10 n=59 v=106
12434 On ch=10 n=59 v=0
12480 On ch=10 n=36 v=106
12480 On ch=10 n=59 v=106
12482 On ch=10 n=36 v=0
12482 On ch=10 n=59 v=0
12528 On ch=10 n=59 v=106
12530 On ch=10 n=59 v=0
12576 On ch=10 n=38 v=106
12576 On ch=10 n=59 v=106
12578 On ch=10 n=38 v=0
12578 On ch=10 n=59 v=0
12624 On ch=10 n=36 v=106
12624 On ch=10 n=59 v=106
12626 On ch=10 n=36 v=0
12626 On ch=10 n=59 v=0
12672 On ch=10 n=36 v=106
12672 On ch=10 n=49 v=84
12672 On ch=10 n=59 v=106
12674 On ch=10 n=36 v=0
12674 On ch=10 n=49 v=0
12674 On ch=10 n=59 v=0
12720 On ch=10 n=59 v=106
12722 On ch=10 n=59 v=0
12768 On ch=10 n=38 v=106
12768 On ch=10 n=59 v=106
12770 On ch=10 n=38 v=0
12770 On ch=10 n=59 v=0
12816 On ch=10 n=59 v=106
12818 On ch=10 n=59 v=0
12864 On ch=10 n=36 v=106
12864 On ch=10 n=59 v=106
12866 On ch=10 n=36 v=0
12866 On ch=10 n=59 v=0
12912 On ch=10 n=59 v=106
12914 On ch=10 n=59 v=0
12960 On ch=10 n=38 v=106
12960 On ch=10 n=59 v=106
12962 On ch=10 n=38 v=0
12962 On ch=10 n=59 v=0
13008 On ch=10 n=59 v=106
13010 On ch=10 n=59 v=0
13056 On ch=10 n=36 v=106
13056 On ch=10 n=59 v=106
13058 On ch=10 n=36 v=0
13058 On ch=10 n=59 v=0
13104 On ch=10 n=59 v=106
13106 On ch=10 n=59 v=0
13152 On ch=10 n=38 v=106
13152 On ch=10 n=59 v=106
13154 On ch=10 n=38 v=0
13154 On ch=10 n=59 v=0
13200 On ch=10 n=59 v=106
13202 On ch=10 n=59 v=0
13248 On ch=10 n=36 v=106
13248 On ch=10 n=59 v=106
13250 On ch=10 n=36 v=0
13250 On ch=10 n=59 v=0
13296 On ch=10 n=59 v=106
13298 On ch=10 n=59 v=0
13344 On ch=10 n=38 v=106
13344 On ch=10 n=59 v=106
13346 On ch=10 n=38 v=0
13346 On ch=10 n=59 v=0
13392 On ch=10 n=59 v=106
13394 On ch=10 n=59 v=0
13440 On ch=10 n=36 v=106
13440 On ch=10 n=59 v=106
13442 On ch=10 n=36 v=0
13442 On ch=10 n=59 v=0
13488 On ch=10 n=59 v=106
13490 On ch=10 n=59 v=0
13536 On ch=10 n=38 v=106
13536 On ch=10 n=59 v=106
13538 On ch=10 n=38 v=0
13538 On ch=10 n=59 v=0
13584 On ch=10 n=59 v=106
13586 On ch=10 n=59 v=0
13632 On ch=10 n=36 v=106
13632 On ch=10 n=59 v=106
13634 On ch=10 n=36 v=0
13634 On ch=10 n=59 v=0
13680 On ch=10 n=59 v=106
13682 On ch=10 n=59 v=0
13728 On ch=10 n=38 v=106
13728 On ch=10 n=59 v=106
13730 On ch=10 n=38 v=0
13730 On ch=10 n=59 v=0
13776 On ch=10 n=59 v=106
13778 On ch=10 n=59 v=0
13824 On ch=10 n=36 v=106
13824 On ch=10 n=59 v=106
13826 On ch=10 n=36 v=0
13826 On ch=10 n=59 v=0
13872 On ch=10 n=59 v=106
13874 On ch=10 n=59 v=0
13920 On ch=10 n=38 v=106
13920 On ch=10 n=59 v=106
13922 On ch=10 n=38 v=0
13922 On ch=10 n=59 v=0
13968 On ch=10 n=59 v=106
13970 On ch=10 n=59 v=0
14016 On ch=10 n=36 v=106
14016 On ch=10 n=59 v=106
14018 On ch=10 n=36 v=0
14018 On ch=10 n=59 v=0
14064 On ch=10 n=59 v=106
14066 On ch=10 n=59 v=0
14112 On ch=10 n=38 v=106
14112 On ch=10 n=59 v=106
14114 On ch=10 n=38 v=0
14114 On ch=10 n=59 v=0
14160 On ch=10 n=36 v=106
14160 On ch=10 n=59 v=106
14162 On ch=10 n=36 v=0
14162 On ch=10 n=59 v=0
14208 On ch=10 n=36 v=106
14208 On ch=10 n=49 v=84
14208 On ch=10 n=59 v=106
14210 On ch=10 n=36 v=0
14210 On ch=10 n=49 v=0
14210 On ch=10 n=59 v=0
14256 On ch=10 n=59 v=106
14258 On ch=10 n=59 v=0
14304 On ch=10 n=38 v=106
14304 On ch=10 n=59 v=106
14306 On ch=10 n=38 v=0
14306 On ch=10 n=59 v=0
14352 On ch=10 n=59 v=106
14354 On ch=10 n=59 v=0
14400 On ch=10 n=36 v=106
14400 On ch=10 n=59 v=106
14402 On ch=10 n=36 v=0
14402 On ch=10 n=59 v=0
14448 On ch=10 n=59 v=106
14450 On ch=10 n=59 v=0
14496 On ch=10 n=38 v=106
14496 On ch=10 n=59 v=106
14498 On ch=10 n=38 v=0
14498 On ch=10 n=59 v=0
14544 On ch=10 n=59 v=106
14546 On ch=10 n=59 v=0
14592 On ch=10 n=36 v=106
14592 On ch=10 n=59 v=106
14594 On ch=10 n=36 v=0
14594 On ch=10 n=59 v=0
14640 On ch=10 n=59 v=106
14642 On ch=10 n=59 v=0
14688 On ch=10 n=38 v=106
14688 On ch=10 n=59 v=106
14690 On ch=10 n=38 v=0
14690 On ch=10 n=59 v=0
14736 On ch=10 n=59 v=106
14738 On ch=10 n=59 v=0
14784 On ch=10 n=36 v=106
14784 On ch=10 n=59 v=106
14786 On ch=10 n=36 v=0
14786 On ch=10 n=59 v=0
14832 On ch=10 n=59 v=106
14834 On ch=10 n=59 v=0
14880 On ch=10 n=38 v=106
14880 On ch=10 n=59 v=106
14882 On ch=10 n=38 v=0
14882 On ch=10 n=59 v=0
14928 On ch=10 n=59 v=106
14930 On ch=10 n=59 v=0
14976 On ch=10 n=36 v=106
14976 On ch=10 n=59 v=106
14978 On ch=10 n=36 v=0
14978 On ch=10 n=59 v=0
15024 On ch=10 n=59 v=106
15026 On ch=10 n=59 v=0
15072 On ch=10 n=38 v=106
15072 On ch=10 n=59 v=106
15074 On ch=10 n=38 v=0
15074 On ch=10 n=59 v=0
15120 On ch=10 n=59 v=106
15122 On ch=10 n=59 v=0
15168 On ch=10 n=36 v=106
15168 On ch=10 n=59 v=106
15170 On ch=10 n=36 v=0
15170 On ch=10 n=59 v=0
15216 On ch=10 n=59 v=106
15218 On ch=10 n=59 v=0
15264 On ch=10 n=38 v=106
15264 On ch=10 n=59 v=106
15266 On ch=10 n=38 v=0
15266 On ch=10 n=59 v=0
15312 On ch=10 n=59 v=106
15314 On ch=10 n=59 v=0
15360 On ch=10 n=36 v=106
15360 On ch=10 n=59 v=106
15362 On ch=10 n=36 v=0
15362 On ch=10 n=59 v=0
15408 On ch=10 n=59 v=106
15410 On ch=10 n=59 v=0
15456 On ch=10 n=38 v=106
15456 On ch=10 n=59 v=106
15458 On ch=10 n=38 v=0
15458 On ch=10 n=59 v=0
15504 On ch=10 n=59 v=106
15506 On ch=10 n=59 v=0
15552 On ch=10 n=36 v=106
15552 On ch=10 n=59 v=106
15554 On ch=10 n=36 v=0
15554 On ch=10 n=59 v=0
15600 On ch=10 n=59 v=106
15602 On ch=10 n=59 v=0
15648 On ch=10 n=38 v=106
15648 On ch=10 n=59 v=106
15650 On ch=10 n=38 v=0
15650 On ch=10 n=59 v=0
15696 On ch=10 n=59 v=106
15698 On ch=10 n=59 v=0
15744 On ch=10 n=36 v=106
15744 On ch=10 n=59 v=106
15746 On ch=10 n=36 v=0
15746 On ch=10 n=59 v=0
15792 On ch=10 n=59 v=106
15794 On ch=10 n=59 v=0
15840 On ch=10 n=38 v=106
15840 On ch=10 n=59 v=106
15842 On ch=10 n=38 v=0
15842 On ch=10 n=59 v=0
15888 On ch=10 n=59 v=106
15890 On ch=10 n=59 v=0
15936 On ch=10 n=36 v=106
15936 On ch=10 n=59 v=106
15938 On ch=10 n=36 v=0
15938 On ch=10 n=59 v=0
15984 On ch=10 n=59 v=106
15986 On ch=10 n=59 v=0
16032 On ch=10 n=38 v=106
16032 On ch=10 n=59 v=106
16034 On ch=10 n=38 v=0
16034 On ch=10 n=59 v=0
16080 On ch=10 n=59 v=106
16082 On ch=10 n=59 v=0
16128 On ch=10 n=36 v=106
16128 On ch=10 n=59 v=106
16130 On ch=10 n=36 v=0
16130 On ch=10 n=59 v=0
16176 On ch=10 n=59 v=106
16178 On ch=10 n=59 v=0
16224 On ch=10 n=38 v=106
16224 On ch=10 n=59 v=106
16226 On ch=10 n=38 v=0
16226 On ch=10 n=59 v=0
16272 On ch=10 n=59 v=106
16274 On ch=10 n=59 v=0
16320 On ch=10 n=36 v=106
16320 On ch=10 n=59 v=106
16322 On ch=10 n=36 v=0
16322 On ch=10 n=59 v=0
16368 On ch=10 n=59 v=106
16370 On ch=10 n=59 v=0
16416 On ch=10 n=38 v=106
16416 On ch=10 n=59 v=106
16418 On ch=10 n=38 v=0
16418 On ch=10 n=59 v=0
16464 On ch=10 n=59 v=106
16466 On ch=10 n=59 v=0
16512 On ch=10 n=36 v=106
16512 On ch=10 n=59 v=106
16514 On ch=10 n=36 v=0
16514 On ch=10 n=59 v=0
16560 On ch=10 n=59 v=106
16562 On ch=10 n=59 v=0
16608 On ch=10 n=38 v=106
16608 On ch=10 n=59 v=106
16610 On ch=10 n=38 v=0
16610 On ch=10 n=59 v=0
16656 On ch=10 n=59 v=106
16658 On ch=10 n=59 v=0
16704 On ch=10 n=36 v=106
16704 On ch=10 n=59 v=106
16706 On ch=10 n=36 v=0
16706 On ch=10 n=59 v=0
16752 On ch=10 n=59 v=106
16754 On ch=10 n=59 v=0
16800 On ch=10 n=38 v=106
16800 On ch=10 n=59 v=106
16802 On ch=10 n=38 v=0
16802 On ch=10 n=59 v=0
16848 On ch=10 n=59 v=106
16850 On ch=10 n=59 v=0
16896 On ch=10 n=36 v=106
16896 On ch=10 n=59 v=106
16898 On ch=10 n=36 v=0
16898 On ch=10 n=59 v=0
16944 On ch=10 n=59 v=106
16946 On ch=10 n=59 v=0
16992 On ch=10 n=38 v=106
16992 On ch=10 n=59 v=106
16994 On ch=10 n=38 v=0
16994 On ch=10 n=59 v=0
17040 On ch=10 n=59 v=106
17042 On ch=10 n=59 v=0
17088 On ch=10 n=36 v=106
17088 On ch=10 n=59 v=106
17090 On ch=10 n=36 v=0
17090 On ch=10 n=59 v=0
17136 On ch=10 n=59 v=106
17138 On ch=10 n=59 v=0
17184 On ch=10 n=38 v=106
17184 On ch=10 n=59 v=106
17186 On ch=10 n=38 v=0
17186 On ch=10 n=59 v=0
17232 On ch=10 n=36 v=106
17232 On ch=10 n=59 v=106
17234 On ch=10 n=36 v=0
17234 On ch=10 n=59 v=0
17280 On ch=10 n=36 v=106
17280 On ch=10 n=49 v=84
17280 On ch=10 n=59 v=106
17282 On ch=10 n=36 v=0
17282 On ch=10 n=49 v=0
17282 On ch=10 n=59 v=0
17328 On ch=10 n=59 v=106
17330 On ch=10 n=59 v=0
17376 On ch=10 n=38 v=106
17376 On ch=10 n=59 v=106
17378 On ch=10 n=38 v=0
17378 On ch=10 n=59 v=0
17424 On ch=10 n=59 v=106
17426 On ch=10 n=59 v=0
17472 On ch=10 n=36 v=106
17472 On ch=10 n=59 v=106
17474 On ch=10 n=36 v=0
17474 On ch=10 n=59 v=0
17520 On ch=10 n=59 v=106
17522 On ch=10 n=59 v=0
17568 On ch=10 n=38 v=106
17568 On ch=10 n=59 v=106
17570 On ch=10 n=38 v=0
17570 On ch=10 n=59 v=0
17616 On ch=10 n=59 v=106
17618 On ch=10 n=59 v=0
17664 On ch=10 n=36 v=106
17664 On ch=10 n=59 v=106
17666 On ch=10 n=36 v=0
17666 On ch=10 n=59 v=0
17712 On ch=10 n=59 v=106
17714 On ch=10 n=59 v=0
17760 On ch=10 n=38 v=106
17760 On ch=10 n=59 v=106
17762 On ch=10 n=38 v=0
17762 On ch=10 n=59 v=0
17808 On ch=10 n=59 v=106
17810 On ch=10 n=59 v=0
17856 On ch=10 n=36 v=106
17856 On ch=10 n=59 v=106
17858 On ch=10 n=36 v=0
17858 On ch=10 n=59 v=0
17904 On ch=10 n=59 v=106
17906 On ch=10 n=59 v=0
17952 On ch=10 n=38 v=106
17952 On ch=10 n=59 v=106
17954 On ch=10 n=38 v=0
17954 On ch=10 n=59 v=0
18000 On ch=10 n=59 v=106
18002 On ch=10 n=59 v=0
18048 On ch=10 n=36 v=106
18048 On ch=10 n=59 v=106
18050 On ch=10 n=36 v=0
18050 On ch=10 n=59 v=0
18096 On ch=10 n=59 v=106
18098 On ch=10 n=59 v=0
18144 On ch=10 n=38 v=106
18144 On ch=10 n=59 v=106
18146 On ch=10 n=38 v=0
18146 On ch=10 n=59 v=0
18192 On ch=10 n=59 v=106
18194 On ch=10 n=59 v=0
18240 On ch=10 n=36 v=106
18240 On ch=10 n=59 v=106
18242 On ch=10 n=36 v=0
18242 On ch=10 n=59 v=0
18288 On ch=10 n=59 v=106
18290 On ch=10 n=59 v=0
18336 On ch=10 n=38 v=106
18336 On ch=10 n=59 v=106
18338 On ch=10 n=38 v=0
18338 On ch=10 n=59 v=0
18384 On ch=10 n=59 v=106
18386 On ch=10 n=59 v=0
18432 On ch=10 n=36 v=106
18432 On ch=10 n=59 v=106
18434 On ch=10 n=36 v=0
18434 On ch=10 n=59 v=0
18480 On ch=10 n=59 v=106
18482 On ch=10 n=59 v=0
18528 On ch=10 n=38 v=106
18528 On ch=10 n=59 v=106
18530 On ch=10 n=38 v=0
18530 On ch=10 n=59 v=0
18576 On ch=10 n=59 v=106
18578 On ch=10 n=59 v=0
18624 On ch=10 n=36 v=106
18624 On ch=10 n=59 v=106
18626 On ch=10 n=36 v=0
18626 On ch=10 n=59 v=0
18672 On ch=10 n=59 v=106
18674 On ch=10 n=59 v=0
18720 On ch=10 n=38 v=106
18720 On ch=10 n=59 v=106
18722 On ch=10 n=38 v=0
18722 On ch=10 n=59 v=0
18768 On ch=10 n=36 v=106
18768 On ch=10 n=59 v=106
18770 On ch=10 n=36 v=0
18770 On ch=10 n=59 v=0
18816 On ch=10 n=36 v=106
18816 On ch=10 n=49 v=84
18816 On ch=10 n=59 v=106
18818 On ch=10 n=36 v=0
18818 On ch=10 n=49 v=0
18818 On ch=10 n=59 v=0
18864 On ch=10 n=59 v=106
18866 On ch=10 n=59 v=0
18912 On ch=10 n=38 v=106
18912 On ch=10 n=59 v=106
18914 On ch=10 n=38 v=0
18914 On ch=10 n=59 v=0
18960 On ch=10 n=59 v=106
18962 On ch=10 n=59 v=0
19008 On ch=10 n=36 v=106
19008 On ch=10 n=59 v=106
19010 On ch=10 n=36 v=0
19010 On ch=10 n=59 v=0
19056 On ch=10 n=59 v=106
19058 On ch=10 n=59 v=0
19104 On ch=10 n=38 v=106
19104 On ch=10 n=59 v=106
19106 On ch=10 n=38 v=0
19106 On ch=10 n=59 v=0
19152 On ch=10 n=59 v=106
19154 On ch=10 n=59 v=0
19200 On ch=10 n=36 v=106
19200 On ch=10 n=59 v=106
19202 On ch=10 n=36 v=0
19202 On ch=10 n=59 v=0
19248 On ch=10 n=59 v=106
19250 On ch=10 n=59 v=0
19296 On ch=10 n=38 v=106
19296 On ch=10 n=59 v=106
19298 On ch=10 n=38 v=0
19298 On ch=10 n=59 v=0
19344 On ch=10 n=59 v=106
19346 On ch=10 n=59 v=0
19392 On ch=10 n=36 v=106
19392 On ch=10 n=59 v=106
19394 On ch=10 n=36 v=0
19394 On ch=10 n=59 v=0
19440 On ch=10 n=59 v=106
19442 On ch=10 n=59 v=0
19488 On ch=10 n=38 v=106
19488 On ch=10 n=59 v=106
19490 On ch=10 n=38 v=0
19490 On ch=10 n=59 v=0
19536 On ch=10 n=59 v=106
19538 On ch=10 n=59 v=0
19584 On ch=10 n=36 v=106
19584 On ch=10 n=59 v=106
19586 On ch=10 n=36 v=0
19586 On ch=10 n=59 v=0
19632 On ch=10 n=59 v=106
19634 On ch=10 n=59 v=0
19680 On ch=10 n=38 v=106
19680 On ch=10 n=59 v=106
19682 On ch=10 n=38 v=0
19682 On ch=10 n=59 v=0
19728 On ch=10 n=59 v=106
19730 On ch=10 n=59 v=0
19776 On ch=10 n=36 v=106
19776 On ch=10 n=59 v=106
19778 On ch=10 n=36 v=0
19778 On ch=10 n=59 v=0
19824 On ch=10 n=59 v=106
19826 On ch=10 n=59 v=0
19872 On ch=10 n=38 v=106
19872 On ch=10 n=59 v=106
19874 On ch=10 n=38 v=0
19874 On ch=10 n=59 v=0
19920 On ch=10 n=59 v=106
19922 On ch=10 n=59 v=0
19968 On ch=10 n=36 v=106
19968 On ch=10 n=59 v=106
19970 On ch=10 n=36 v=0
19970 On ch=10 n=59 v=0
20016 On ch=10 n=59 v=106
20018 On ch=10 n=59 v=0
20064 On ch=10 n=38 v=106
20064 On ch=10 n=59 v=106
20066 On ch=10 n=38 v=0
20066 On ch=10 n=59 v=0
20112 On ch=10 n=59 v=106
20114 On ch=10 n=59 v=0
20160 On ch=10 n=36 v=106
20160 On ch=10 n=59 v=106
20162 On ch=10 n=36 v=0
20162 On ch=10 n=59 v=0
20208 On ch=10 n=59 v=106
20210 On ch=10 n=59 v=0
20256 On ch=10 n=38 v=106
20256 On ch=10 n=59 v=106
20258 On ch=10 n=38 v=0
20258 On ch=10 n=59 v=0
20304 On ch=10 n=59 v=106
20306 On ch=10 n=59 v=0
20352 On ch=10 n=36 v=106
20352 On ch=10 n=59 v=106
20354 On ch=10 n=36 v=0
20354 On ch=10 n=59 v=0
20400 On ch=10 n=59 v=106
20402 On ch=10 n=59 v=0
20448 On ch=10 n=38 v=106
20448 On ch=10 n=59 v=106
20450 On ch=10 n=38 v=0
20450 On ch=10 n=59 v=0
20496 On ch=10 n=59 v=106
20498 On ch=10 n=59 v=0
20544 On ch=10 n=36 v=106
20544 On ch=10 n=59 v=106
20546 On ch=10 n=36 v=0
20546 On ch=10 n=59 v=0
20592 On ch=10 n=59 v=106
20594 On ch=10 n=59 v=0
20640 On ch=10 n=38 v=106
20640 On ch=10 n=59 v=106
20642 On ch=10 n=38 v=0
20642 On ch=10 n=59 v=0
20688 On ch=10 n=59 v=106
20690 On ch=10 n=59 v=0
20736 On ch=10 n=36 v=106
20736 On ch=10 n=59 v=106
20738 On ch=10 n=36 v=0
20738 On ch=10 n=59 v=0
20784 On ch=10 n=59 v=106
20786 On ch=10 n=59 v=0
20832 On ch=10 n=38 v=106
20832 On ch=10 n=59 v=106
20834 On ch=10 n=38 v=0
20834 On ch=10 n=59 v=0
20880 On ch=10 n=59 v=106
20882 On ch=10 n=59 v=0
20928 On ch=10 n=36 v=106
20928 On ch=10 n=59 v=106
20930 On ch=10 n=36 v=0
20930 On ch=10 n=59 v=0
20976 On ch=10 n=59 v=106
20978 On ch=10 n=59 v=0
21024 On ch=10 n=38 v=106
21024 On ch=10 n=59 v=106
21026 On ch=10 n=38 v=0
21026 On ch=10 n=59 v=0
21072 On ch=10 n=59 v=106
21074 On ch=10 n=59 v=0
21120 On ch=10 n=36 v=106
21120 On ch=10 n=59 v=106
21122 On ch=10 n=36 v=0
21122 On ch=10 n=59 v=0
21168 On ch=10 n=59 v=106
21170 On ch=10 n=59 v=0
21216 On ch=10 n=38 v=106
21216 On ch=10 n=59 v=106
21218 On ch=10 n=38 v=0
21218 On ch=10 n=59 v=0
21264 On ch=10 n=59 v=106
21266 On ch=10 n=59 v=0
21312 On ch=10 n=36 v=106
21312 On ch=10 n=59 v=106
21314 On ch=10 n=36 v=0
21314 On ch=10 n=59 v=0
21360 On ch=10 n=59 v=106
21362 On ch=10 n=59 v=0
21408 On ch=10 n=38 v=106
21408 On ch=10 n=59 v=106
21410 On ch=10 n=38 v=0
21410 On ch=10 n=59 v=0
21456 On ch=10 n=59 v=106
21458 On ch=10 n=59 v=0
21504 On ch=10 n=36 v=106
21504 On ch=10 n=59 v=106
21506 On ch=10 n=36 v=0
21506 On ch=10 n=59 v=0
21552 On ch=10 n=59 v=106
21554 On ch=10 n=59 v=0
21600 On ch=10 n=38 v=106
21600 On ch=10 n=59 v=106
21602 On ch=10 n=38 v=0
21602 On ch=10 n=59 v=0
21648 On ch=10 n=59 v=106
21650 On ch=10 n=59 v=0
21696 On ch=10 n=36 v=106
21696 On ch=10 n=59 v=106
21698 On ch=10 n=36 v=0
21698 On ch=10 n=59 v=0
21744 On ch=10 n=59 v=106
21746 On ch=10 n=59 v=0
21792 On ch=10 n=38 v=106
21792 On ch=10 n=59 v=106
21794 On ch=10 n=38 v=0
21794 On ch=10 n=59 v=0
21840 On ch=10 n=36 v=106
21840 On ch=10 n=59 v=106
21842 On ch=10 n=36 v=0
21842 On ch=10 n=59 v=0
21888 On ch=10 n=36 v=106
21888 On ch=10 n=49 v=84
21888 On ch=10 n=59 v=106
21890 On ch=10 n=36 v=0
21890 On ch=10 n=49 v=0
21890 On ch=10 n=59 v=0
21936 On ch=10 n=59 v=106
21938 On ch=10 n=59 v=0
21984 On ch=10 n=38 v=106
21984 On ch=10 n=59 v=106
21986 On ch=10 n=38 v=0
21986 On ch=10 n=59 v=0
22032 On ch=10 n=59 v=106
22034 On ch=10 n=59 v=0
22080 On ch=10 n=36 v=106
22080 On ch=10 n=59 v=106
22082 On ch=10 n=36 v=0
22082 On ch=10 n=59 v=0
22128 On ch=10 n=59 v=106
22130 On ch=10 n=59 v=0
22176 On ch=10 n=38 v=106
22176 On ch=10 n=59 v=106
22178 On ch=10 n=38 v=0
22178 On ch=10 n=59 v=0
22224 On ch=10 n=59 v=106
22226 On ch=10 n=59 v=0
22272 On ch=10 n=36 v=106
22272 On ch=10 n=59 v=106
22274 On ch=10 n=36 v=0
22274 On ch=10 n=59 v=0
22320 On ch=10 n=59 v=106
22322 On ch=10 n=59 v=0
22368 On ch=10 n=38 v=106
22368 On ch=10 n=59 v=106
22370 On ch=10 n=38 v=0
22370 On ch=10 n=59 v=0
22416 On ch=10 n=59 v=106
22418 On ch=10 n=59 v=0
22464 On ch=10 n=36 v=106
22464 On ch=10 n=59 v=106
22466 On ch=10 n=36 v=0
22466 On ch=10 n=59 v=0
22512 On ch=10 n=59 v=106
22514 On ch=10 n=59 v=0
22560 On ch=10 n=38 v=106
22560 On ch=10 n=59 v=106
22562 On ch=10 n=38 v=0
22562 On ch=10 n=59 v=0
22608 On ch=10 n=59 v=106
22610 On ch=10 n=59 v=0
22656 On ch=10 n=36 v=106
22656 On ch=10 n=59 v=106
22658 On ch=10 n=36 v=0
22658 On ch=10 n=59 v=0
22704 On ch=10 n=59 v=106
22706 On ch=10 n=59 v=0
22752 On ch=10 n=38 v=106
22752 On ch=10 n=59 v=106
22754 On ch=10 n=38 v=0
22754 On ch=10 n=59 v=0
22800 On ch=10 n=59 v=106
22802 On ch=10 n=59 v=0
22848 On ch=10 n=36 v=106
22848 On ch=10 n=59 v=106
22850 On ch=10 n=36 v=0
22850 On ch=10 n=59 v=0
22896 On ch=10 n=59 v=106
22898 On ch=10 n=59 v=0
22944 On ch=10 n=38 v=106
22944 On ch=10 n=59 v=106
22946 On ch=10 n=38 v=0
22946 On ch=10 n=59 v=0
22992 On ch=10 n=59 v=106
22994 On ch=10 n=59 v=0
23040 On ch=10 n=36 v=106
23040 On ch=10 n=59 v=106
23042 On ch=10 n=36 v=0
23042 On ch=10 n=59 v=0
23088 On ch=10 n=59 v=106
23090 On ch=10 n=59 v=0
23136 On ch=10 n=38 v=106
23136 On ch=10 n=59 v=106
23138 On ch=10 n=38 v=0
23138 On ch=10 n=59 v=0
23184 On ch=10 n=59 v=106
23186 On ch=10 n=59 v=0
23232 On ch=10 n=36 v=106
23232 On ch=10 n=59 v=106
23234 On ch=10 n=36 v=0
23234 On ch=10 n=59 v=0
23280 On ch=10 n=59 v=106
23282 On ch=10 n=59 v=0
23328 On ch=10 n=38 v=106
23328 On ch=10 n=59 v=106
23330 On ch=10 n=38 v=0
23330 On ch=10 n=59 v=0
23376 On ch=10 n=59 v=106
23378 On ch=10 n=59 v=0
23424 On ch=10 n=36 v=106
23424 On ch=10 n=59 v=106
23426 On ch=10 n=36 v=0
23426 On ch=10 n=59 v=0
23472 On ch=10 n=59 v=106
23474 On ch=10 n=59 v=0
23520 On ch=10 n=38 v=106
23520 On ch=10 n=59 v=106
23522 On ch=10 n=38 v=0
23522 On ch=10 n=59 v=0
23568 On ch=10 n=59 v=106
23570 On ch=10 n=59 v=0
23616 On ch=10 n=36 v=106
23616 On ch=10 n=59 v=106
23618 On ch=10 n=36 v=0
23618 On ch=10 n=59 v=0
23664 On ch=10 n=59 v=106
23666 On ch=10 n=59 v=0
23712 On ch=10 n=38 v=106
23712 On ch=10 n=59 v=106
23714 On ch=10 n=38 v=0
23714 On ch=10 n=59 v=0
23760 On ch=10 n=59 v=106
23762 On ch=10 n=59 v=0
23808 On ch=10 n=36 v=106
23808 On ch=10 n=59 v=106
23810 On ch=10 n=36 v=0
23810 On ch=10 n=59 v=0
23856 On ch=10 n=59 v=106
23858 On ch=10 n=59 v=0
23904 On ch=10 n=38 v=106
23904 On ch=10 n=59 v=106
23906 On ch=10 n=38 v=0
23906 On ch=10 n=59 v=0
23952 On ch=10 n=59 v=106
23954 On ch=10 n=59 v=0
24000 On ch=10 n=36 v=106
24000 On ch=10 n=59 v=106
24002 On ch=10 n=36 v=0
24002 On ch=10 n=59 v=0
24048 On ch=10 n=59 v=106
24050 On ch=10 n=59 v=0
24096 On ch=10 n=38 v=106
24096 On ch=10 n=59 v=106
24098 On ch=10 n=38 v=0
24098 On ch=10 n=59 v=0
24144 On ch=10 n=59 v=106
24146 On ch=10 n=59 v=0
24192 On ch=10 n=36 v=106
24192 On ch=10 n=59 v=106
24194 On ch=10 n=36 v=0
24194 On ch=10 n=59 v=0
24240 On ch=10 n=59 v=106
24242 On ch=10 n=59 v=0
24288 On ch=10 n=38 v=106
24288 On ch=10 n=59 v=106
24290 On ch=10 n=38 v=0
24290 On ch=10 n=59 v=0
24336 On ch=10 n=59 v=106
24338 On ch=10 n=59 v=0
24384 On ch=10 n=36 v=106
24384 On ch=10 n=59 v=106
24386 On ch=10 n=36 v=0
24386 On ch=10 n=59 v=0
24432 On ch=10 n=59 v=106
24434 On ch=10 n=59 v=0
24480 On ch=10 n=38 v=106
24480 On ch=10 n=59 v=106
24482 On ch=10 n=38 v=0
24482 On ch=10 n=59 v=0
24528 On ch=10 n=36 v=106
24528 On ch=10 n=59 v=106
24530 On ch=10 n=36 v=0
24530 On ch=10 n=59 v=0
24576 On ch=10 n=36 v=106
24576 On ch=10 n=49 v=84
24576 On ch=10 n=59 v=106
24578 On ch=10 n=36 v=0
24578 On ch=10 n=49 v=0
24578 On ch=10 n=59 v=0
24624 On ch=10 n=59 v=106
24626 On ch=10 n=59 v=0
24672 On ch=10 n=38 v=106
24672 On ch=10 n=59 v=106
24674 On ch=10 n=38 v=0
24674 On ch=10 n=59 v=0
24720 On ch=10 n=59 v=106
24722 On ch=10 n=59 v=0
24768 On ch=10 n=36 v=106
24768 On ch=10 n=59 v=106
24770 On ch=10 n=36 v=0
24770 On ch=10 n=59 v=0
24816 On ch=10 n=59 v=106
24818 On ch=10 n=59 v=0
24864 On ch=10 n=38 v=106
24864 On ch=10 n=59 v=106
24866 On ch=10 n=38 v=0
24866 On ch=10 n=59 v=0
24912 On ch=10 n=59 v=106
24914 On ch=10 n=59 v=0
24960 On ch=10 n=36 v=106
24960 On ch=10 n=49 v=84
24960 On ch=10 n=59 v=106
24962 On ch=10 n=36 v=0
24962 On ch=10 n=49 v=0
24962 On ch=10 n=59 v=0
25008 On ch=10 n=59 v=106
25010 On ch=10 n=59 v=0
25056 On ch=10 n=38 v=106
25056 On ch=10 n=59 v=106
25058 On ch=10 n=38 v=0
25058 On ch=10 n=59 v=0
25104 On ch=10 n=59 v=106
25106 On ch=10 n=59 v=0
25152 On ch=10 n=36 v=106
25152 On ch=10 n=59 v=106
25154 On ch=10 n=36 v=0
25154 On ch=10 n=59 v=0
25200 On ch=10 n=59 v=106
25202 On ch=10 n=59 v=0
25248 On ch=10 n=38 v=106
25248 On ch=10 n=59 v=106
25250 On ch=10 n=38 v=0
25250 On ch=10 n=59 v=0
25296 On ch=10 n=59 v=106
25298 On ch=10 n=59 v=0
25344 On ch=10 n=36 v=106
25344 On ch=10 n=59 v=106
25346 On ch=10 n=36 v=0
25346 On ch=10 n=59 v=0
25392 On ch=10 n=59 v=106
25394 On ch=10 n=59 v=0
25440 On ch=10 n=38 v=106
25440 On ch=10 n=59 v=106
25442 On ch=10 n=38 v=0
25442 On ch=10 n=59 v=0
25488 On ch=10 n=59 v=106
25490 On ch=10 n=59 v=0
25536 On ch=10 n=36 v=106
25536 On ch=10 n=59 v=106
25538 On ch=10 n=36 v=0
25538 On ch=10 n=59 v=0
25584 On ch=10 n=59 v=106
25586 On ch=10 n=59 v=0
25632 On ch=10 n=38 v=106
25632 On ch=10 n=59 v=106
25634 On ch=10 n=38 v=0
25634 On ch=10 n=59 v=0
25680 On ch=10 n=59 v=106
25682 On ch=10 n=59 v=0
25728 On ch=10 n=36 v=106
25728 On ch=10 n=59 v=106
25730 On ch=10 n=36 v=0
25730 On ch=10 n=59 v=0
25776 On ch=10 n=59 v=106
25778 On ch=10 n=59 v=0
25824 On ch=10 n=38 v=106
25824 On ch=10 n=59 v=106
25826 On ch=10 n=38 v=0
25826 On ch=10 n=59 v=0
25872 On ch=10 n=59 v=106
25874 On ch=10 n=59 v=0
25920 On ch=10 n=36 v=106
25920 On ch=10 n=59 v=106
25922 On ch=10 n=36 v=0
25922 On ch=10 n=59 v=0
25968 On ch=10 n=59 v=106
25970 On ch=10 n=59 v=0
26016 On ch=10 n=38 v=106
26016 On ch=10 n=59 v=106
26018 On ch=10 n=38 v=0
26018 On ch=10 n=59 v=0
26064 On ch=10 n=36 v=106
26064 On ch=10 n=59 v=106
26066 On ch=10 n=36 v=0
26066 On ch=10 n=59 v=0
26112 On ch=10 n=36 v=106
26112 On ch=10 n=49 v=84
26112 On ch=10 n=59 v=106
26114 On ch=10 n=36 v=0
26114 On ch=10 n=49 v=0
26114 On ch=10 n=59 v=0
26160 On ch=10 n=59 v=106
26162 On ch=10 n=59 v=0
26208 On ch=10 n=38 v=106
26208 On ch=10 n=59 v=106
26210 On ch=10 n=38 v=0
26210 On ch=10 n=59 v=0
26256 On ch=10 n=59 v=106
26258 On ch=10 n=59 v=0
26304 On ch=10 n=36 v=106
26304 On ch=10 n=59 v=106
26306 On ch=10 n=36 v=0
26306 On ch=10 n=59 v=0
26352 On ch=10 n=59 v=106
26354 On ch=10 n=59 v=0
26400 On ch=10 n=38 v=106
26400 On ch=10 n=59 v=106
26402 On ch=10 n=38 v=0
26402 On ch=10 n=59 v=0
26448 On ch=10 n=59 v=106
26450 On ch=10 n=59 v=0
26496 On ch=10 n=36 v=106
26496 On ch=10 n=49 v=84
26496 On ch=10 n=59 v=106
26498 On ch=10 n=36 v=0
26498 On ch=10 n=49 v=0
26498 On ch=10 n=59 v=0
26544 On ch=10 n=59 v=106
26546 On ch=10 n=59 v=0
26592 On ch=10 n=38 v=106
26592 On ch=10 n=59 v=106
26594 On ch=10 n=38 v=0
26594 On ch=10 n=59 v=0
26640 On ch=10 n=59 v=106
26642 On ch=10 n=59 v=0
26688 On ch=10 n=36 v=106
26688 On ch=10 n=59 v=106
26690 On ch=10 n=36 v=0
26690 On ch=10 n=59 v=0
26736 On ch=10 n=59 v=106
26738 On ch=10 n=59 v=0
26784 On ch=10 n=38 v=106
26784 On ch=10 n=59 v=106
26786 On ch=10 n=38 v=0
26786 On ch=10 n=59 v=0
26832 On ch=10 n=59 v=106
26834 On ch=10 n=59 v=0
26880 On ch=10 n=36 v=106
26880 On ch=10 n=59 v=106
26882 On ch=10 n=36 v=0
26882 On ch=10 n=59 v=0
26928 On ch=10 n=59 v=106
26930 On ch=10 n=59 v=0
26976 On ch=10 n=38 v=106
26976 On ch=10 n=59 v=106
26978 On ch=10 n=38 v=0
26978 On ch=10 n=59 v=0
27024 On ch=10 n=59 v=106
27026 On ch=10 n=59 v=0
27072 On ch=10 n=36 v=106
27072 On ch=10 n=59 v=106
27074 On ch=10 n=36 v=0
27074 On ch=10 n=59 v=0
27120 On ch=10 n=59 v=106
27122 On ch=10 n=59 v=0
27168 On ch=10 n=38 v=106
27168 On ch=10 n=59 v=106
27170 On ch=10 n=38 v=0
27170 On ch=10 n=59 v=0
27216 On ch=10 n=59 v=106
27218 On ch=10 n=59 v=0
27264 On ch=10 n=36 v=106
27264 On ch=10 n=59 v=106
27266 On ch=10 n=36 v=0
27266 On ch=10 n=59 v=0
27312 On ch=10 n=59 v=106
27314 On ch=10 n=59 v=0
27360 On ch=10 n=38 v=106
27360 On ch=10 n=59 v=106
27362 On ch=10 n=38 v=0
27362 On ch=10 n=59 v=0
27408 On ch=10 n=59 v=106
27410 On ch=10 n=59 v=0
27456 On ch=10 n=36 v=106
27456 On ch=10 n=59 v=106
27458 On ch=10 n=36 v=0
27458 On ch=10 n=59 v=0
27504 On ch=10 n=59 v=106
27506 On ch=10 n=59 v=0
27552 On ch=10 n=38 v=106
27552 On ch=10 n=59 v=106
27554 On ch=10 n=38 v=0
27554 On ch=10 n=59 v=0
27600 On ch=10 n=36 v=106
27600 On ch=10 n=59 v=106
27602 On ch=10 n=36 v=0
27602 On ch=10 n=59 v=0
27648 On ch=10 n=36 v=106
27648 On ch=10 n=49 v=84
27648 On ch=10 n=59 v=106
27650 On ch=10 n=36 v=0
27650 On ch=10 n=49 v=0
27650 On ch=10 n=59 v=0
27696 On ch=10 n=59 v=106
27698 On ch=10 n=59 v=0
27744 On ch=10 n=38 v=106
27744 On ch=10 n=59 v=106
27746 On ch=10 n=38 v=0
27746 On ch=10 n=59 v=0
27792 On ch=10 n=59 v=106
27794 On ch=10 n=59 v=0
27840 On ch=10 n=36 v=106
27840 On ch=10 n=59 v=106
27842 On ch=10 n=36 v=0
27842 On ch=10 n=59 v=0
27888 On ch=10 n=59 v=106
27890 On ch=10 n=59 v=0
27936 On ch=10 n=38 v=106
27936 On ch=10 n=59 v=106
27938 On ch=10 n=38 v=0
27938 On ch=10 n=59 v=0
27984 On ch=10 n=59 v=106
27986 On ch=10 n=59 v=0
28032 On ch=10 n=36 v=106
28032 On ch=10 n=59 v=106
28034 On ch=10 n=36 v=0
28034 On ch=10 n=59 v=0
28080 On ch=10 n=59 v=106
28082 On ch=10 n=59 v=0
28128 On ch=10 n=38 v=106
28128 On ch=10 n=59 v=106
28130 On ch=10 n=38 v=0
28130 On ch=10 n=59 v=0
28176 On ch=10 n=59 v=106
28178 On ch=10 n=59 v=0
28224 On ch=10 n=36 v=106
28224 On ch=10 n=59 v=106
28226 On ch=10 n=36 v=0
28226 On ch=10 n=59 v=0
28272 On ch=10 n=59 v=106
28274 On ch=10 n=59 v=0
28320 On ch=10 n=38 v=106
28320 On ch=10 n=59 v=106
28322 On ch=10 n=38 v=0
28322 On ch=10 n=59 v=0
28368 On ch=10 n=59 v=106
28370 On ch=10 n=59 v=0
28416 On ch=10 n=36 v=106
28416 On ch=10 n=59 v=106
28418 On ch=10 n=36 v=0
28418 On ch=10 n=59 v=0
28464 On ch=10 n=59 v=106
28466 On ch=10 n=59 v=0
28512 On ch=10 n=38 v=106
28512 On ch=10 n=59 v=106
28514 On ch=10 n=38 v=0
28514 On ch=10 n=59 v=0
28560 On ch=10 n=59 v=106
28562 On ch=10 n=59 v=0
28608 On ch=10 n=36 v=106
28608 On ch=10 n=59 v=106
28610 On ch=10 n=36 v=0
28610 On ch=10 n=59 v=0
28656 On ch=10 n=59 v=106
28658 On ch=10 n=59 v=0
28704 On ch=10 n=38 v=106
28704 On ch=10 n=59 v=106
28706 On ch=10 n=38 v=0
28706 On ch=10 n=59 v=0
28752 On ch=10 n=59 v=106
28754 On ch=10 n=59 v=0
28800 On ch=10 n=36 v=106
28800 On ch=10 n=59 v=106
28802 On ch=10 n=36 v=0
28802 On ch=10 n=59 v=0
28848 On ch=10 n=59 v=106
28850 On ch=10 n=59 v=0
28896 On ch=10 n=38 v=106
28896 On ch=10 n=59 v=106
28898 On ch=10 n=38 v=0
28898 On ch=10 n=59 v=0
28944 On ch=10 n=59 v=106
28946 On ch=10 n=59 v=0
28992 On ch=10 n=36 v=106
28992 On ch=10 n=59 v=106
28994 On ch=10 n=36 v=0
28994 On ch=10 n=59 v=0
29040 On ch=10 n=59 v=106
29042 On ch=10 n=59 v=0
29088 On ch=10 n=38 v=106
29088 On ch=10 n=59 v=106
29090 On ch=10 n=38 v=0
29090 On ch=10 n=59 v=0
29136 On ch=10 n=36 v=106
29136 On ch=10 n=59 v=106
29138 On ch=10 n=36 v=0
29138 On ch=10 n=59 v=0
29184 On ch=10 n=36 v=106
29184 On ch=10 n=49 v=84
29184 On ch=10 n=59 v=106
29186 On ch=10 n=36 v=0
29186 On ch=10 n=49 v=0
29186 On ch=10 n=59 v=0
29232 On ch=10 n=59 v=106
29234 On ch=10 n=59 v=0
29280 On ch=10 n=38 v=106
29280 On ch=10 n=59 v=106
29282 On ch=10 n=38 v=0
29282 On ch=10 n=59 v=0
29328 On ch=10 n=59 v=106
29330 On ch=10 n=59 v=0
29376 On ch=10 n=36 v=106
29376 On ch=10 n=59 v=106
29378 On ch=10 n=36 v=0
29378 On ch=10 n=59 v=0
29424 On ch=10 n=59 v=106
29426 On ch=10 n=59 v=0
29472 On ch=10 n=38 v=106
29472 On ch=10 n=59 v=106
29474 On ch=10 n=38 v=0
29474 On ch=10 n=59 v=0
29520 On ch=10 n=59 v=106
29522 On ch=10 n=59 v=0
29568 On ch=10 n=36 v=106
29568 On ch=10 n=59 v=106
29570 On ch=10 n=36 v=0
29570 On ch=10 n=59 v=0
29616 On ch=10 n=59 v=106
29618 On ch=10 n=59 v=0
29664 On ch=10 n=38 v=106
29664 On ch=10 n=59 v=106
29666 On ch=10 n=38 v=0
29666 On ch=10 n=59 v=0
29712 On ch=10 n=59 v=106
29714 On ch=10 n=59 v=0
29760 On ch=10 n=36 v=106
29760 On ch=10 n=59 v=106
29762 On ch=10 n=36 v=0
29762 On ch=10 n=59 v=0
29808 On ch=10 n=59 v=106
29810 On ch=10 n=59 v=0
29856 On ch=10 n=38 v=106
29856 On ch=10 n=59 v=106
29858 On ch=10 n=38 v=0
29858 On ch=10 n=59 v=0
29904 On ch=10 n=59 v=106
29906 On ch=10 n=59 v=0
29952 On ch=10 n=36 v=106
29952 On ch=10 n=59 v=106
29954 On ch=10 n=36 v=0
29954 On ch=10 n=59 v=0
30000 On ch=10 n=59 v=106
30002 On ch=10 n=59 v=0
30048 On ch=10 n=38 v=106
30048 On ch=10 n=59 v=106
30050 On ch=10 n=38 v=0
30050 On ch=10 n=59 v=0
30096 On ch=10 n=59 v=106
30098 On ch=10 n=59 v=0
30144 On ch=10 n=36 v=106
30144 On ch=10 n=59 v=106
30146 On ch=10 n=36 v=0
30146 On ch=10 n=59 v=0
30192 On ch=10 n=59 v=106
30194 On ch=10 n=59 v=0
30240 On ch=10 n=38 v=106
30240 On ch=10 n=59 v=106
30242 On ch=10 n=38 v=0
30242 On ch=10 n=59 v=0
30288 On ch=10 n=59 v=106
30290 On ch=10 n=59 v=0
30336 On ch=10 n=36 v=106
30336 On ch=10 n=59 v=106
30338 On ch=10 n=36 v=0
30338 On ch=10 n=59 v=0
30384 On ch=10 n=59 v=106
30386 On ch=10 n=59 v=0
30432 On ch=10 n=38 v=106
30432 On ch=10 n=59 v=106
30434 On ch=10 n=38 v=0
30434 On ch=10 n=59 v=0
30480 On ch=10 n=59 v=106
30482 On ch=10 n=59 v=0
30528 On ch=10 n=36 v=106
30528 On ch=10 n=59 v=106
30530 On ch=10 n=36 v=0
30530 On ch=10 n=59 v=0
30576 On ch=10 n=59 v=106
30578 On ch=10 n=59 v=0
30624 On ch=10 n=38 v=106
30624 On ch=10 n=59 v=106
30626 On ch=10 n=38 v=0
30626 On ch=10 n=59 v=0
30672 On ch=10 n=59 v=106
30674 On ch=10 n=59 v=0
30720 On ch=10 n=36 v=106
30720 On ch=10 n=59 v=106
30722 On ch=10 n=36 v=0
30722 On ch=10 n=59 v=0
30768 On ch=10 n=59 v=106
30770 On ch=10 n=59 v=0
30816 On ch=10 n=38 v=106
30816 On ch=10 n=59 v=106
30818 On ch=10 n=38 v=0
30818 On ch=10 n=59 v=0
30864 On ch=10 n=59 v=106
30866 On ch=10 n=59 v=0
30912 On ch=10 n=36 v=106
30912 On ch=10 n=59 v=106
30914 On ch=10 n=36 v=0
30914 On ch=10 n=59 v=0
30960 On ch=10 n=59 v=106
30962 On ch=10 n=59 v=0
31008 On ch=10 n=38 v=106
31008 On ch=10 n=59 v=106
31010 On ch=10 n=38 v=0
31010 On ch=10 n=59 v=0
31056 On ch=10 n=59 v=106
31058 On ch=10 n=59 v=0
31104 On ch=10 n=36 v=106
31104 On ch=10 n=59 v=106
31106 On ch=10 n=36 v=0
31106 On ch=10 n=59 v=0
31152 On ch=10 n=59 v=106
31154 On ch=10 n=59 v=0
31200 On ch=10 n=38 v=106
31200 On ch=10 n=59 v=106
31202 On ch=10 n=38 v=0
31202 On ch=10 n=59 v=0
31248 On ch=10 n=59 v=106
31250 On ch=10 n=59 v=0
31296 On ch=10 n=36 v=106
31296 On ch=10 n=59 v=106
31298 On ch=10 n=36 v=0
31298 On ch=10 n=59 v=0
31344 On ch=10 n=59 v=106
31346 On ch=10 n=59 v=0
31392 On ch=10 n=38 v=106
31392 On ch=10 n=59 v=106
31394 On ch=10 n=38 v=0
31394 On ch=10 n=59 v=0
31440 On ch=10 n=59 v=106
31442 On ch=10 n=59 v=0
31488 On ch=10 n=36 v=106
31488 On ch=10 n=59 v=106
31490 On ch=10 n=36 v=0
31490 On ch=10 n=59 v=0
31536 On ch=10 n=59 v=106
31538 On ch=10 n=59 v=0
31584 On ch=10 n=38 v=106
31584 On ch=10 n=59 v=106
31586 On ch=10 n=38 v=0
31586 On ch=10 n=59 v=0
31632 On ch=10 n=59 v=106
31634 On ch=10 n=59 v=0
31680 On ch=10 n=36 v=106
31680 On ch=10 n=59 v=106
31682 On ch=10 n=36 v=0
31682 On ch=10 n=59 v=0
31728 On ch=10 n=59 v=106
31730 On ch=10 n=59 v=0
31776 On ch=10 n=38 v=106
31776 On ch=10 n=59 v=106
31778 On ch=10 n=38 v=0
31778 On ch=10 n=59 v=0
31824 On ch=10 n=59 v=106
31826 On ch=10 n=59 v=0
31872 On ch=10 n=36 v=106
31872 On ch=10 n=59 v=106
31874 On ch=10 n=36 v=0
31874 On ch=10 n=59 v=0
31920 On ch=10 n=59 v=106
31922 On ch=10 n=59 v=0
31968 On ch=10 n=38 v=106
31968 On ch=10 n=59 v=106
31970 On ch=10 n=38 v=0
31970 On ch=10 n=59 v=0
32016 On ch=10 n=59 v=106
32018 On ch=10 n=59 v=0
32064 On ch=10 n=36 v=106
32064 On ch=10 n=59 v=106
32066 On ch=10 n=36 v=0
32066 On ch=10 n=59 v=0
32112 On ch=10 n=59 v=106
32114 On ch=10 n=59 v=0
32160 On ch=10 n=38 v=106
32160 On ch=10 n=59 v=106
32162 On ch=10 n=38 v=0
32162 On ch=10 n=59 v=0
32208 On ch=10 n=36 v=106
32208 On ch=10 n=59 v=106
32210 On ch=10 n=36 v=0
32210 On ch=10 n=59 v=0
32256 On ch=10 n=36 v=106
32256 On ch=10 n=49 v=84
32256 On ch=10 n=59 v=106
32258 On ch=10 n=36 v=0
32258 On ch=10 n=49 v=0
32258 On ch=10 n=59 v=0
32304 On ch=10 n=59 v=106
32306 On ch=10 n=59 v=0
32352 On ch=10 n=38 v=106
32352 On ch=10 n=59 v=106
32354 On ch=10 n=38 v=0
32354 On ch=10 n=59 v=0
32400 On ch=10 n=59 v=106
32402 On ch=10 n=59 v=0
32448 On ch=10 n=36 v=106
32448 On ch=10 n=59 v=106
32450 On ch=10 n=36 v=0
32450 On ch=10 n=59 v=0
32496 On ch=10 n=59 v=106
32498 On ch=10 n=59 v=0
32544 On ch=10 n=38 v=106
32544 On ch=10 n=59 v=106
32546 On ch=10 n=38 v=0
32546 On ch=10 n=59 v=0
32592 On ch=10 n=59 v=106
32594 On ch=10 n=59 v=0
32640 On ch=10 n=36 v=106
32640 On ch=10 n=59 v=106
32642 On ch=10 n=36 v=0
32642 On ch=10 n=59 v=0
32688 On ch=10 n=59 v=106
32690 On ch=10 n=59 v=0
32736 On ch=10 n=38 v=106
32736 On ch=10 n=59 v=106
32738 On ch=10 n=38 v=0
32738 On ch=10 n=59 v=0
32784 On ch=10 n=59 v=106
32786 On ch=10 n=59 v=0
32832 On ch=10 n=36 v=106
32832 On ch=10 n=59 v=106
32834 On ch=10 n=36 v=0
32834 On ch=10 n=59 v=0
32880 On ch=10 n=59 v=106
32882 On ch=10 n=59 v=0
32928 On ch=10 n=38 v=106
32928 On ch=10 n=59 v=106
32930 On ch=10 n=38 v=0
32930 On ch=10 n=59 v=0
32976 On ch=10 n=59 v=106
32978 On ch=10 n=59 v=0
33024 On ch=10 n=36 v=106
33024 On ch=10 n=59 v=106
33026 On ch=10 n=36 v=0
33026 On ch=10 n=59 v=0
33072 On ch=10 n=59 v=106
33074 On ch=10 n=59 v=0
33120 On ch=10 n=38 v=106
33120 On ch=10 n=59 v=106
33122 On ch=10 n=38 v=0
33122 On ch=10 n=59 v=0
33168 On ch=10 n=59 v=106
33170 On ch=10 n=59 v=0
33216 On ch=10 n=36 v=106
33216 On ch=10 n=59 v=106
33218 On ch=10 n=36 v=0
33218 On ch=10 n=59 v=0
33264 On ch=10 n=59 v=106
33266 On ch=10 n=59 v=0
33312 On ch=10 n=38 v=106
33312 On ch=10 n=59 v=106
33314 On ch=10 n=38 v=0
33314 On ch=10 n=59 v=0
33360 On ch=10 n=59 v=106
33362 On ch=10 n=59 v=0
33408 On ch=10 n=36 v=106
33408 On ch=10 n=59 v=106
33410 On ch=10 n=36 v=0
33410 On ch=10 n=59 v=0
33456 On ch=10 n=59 v=106
33458 On ch=10 n=59 v=0
33504 On ch=10 n=38 v=106
33504 On ch=10 n=59 v=106
33506 On ch=10 n=38 v=0
33506 On ch=10 n=59 v=0
33552 On ch=10 n=59 v=106
33554 On ch=10 n=59 v=0
33600 On ch=10 n=36 v=106
33600 On ch=10 n=59 v=106
33602 On ch=10 n=36 v=0
33602 On ch=10 n=59 v=0
33648 On ch=10 n=59 v=106
33650 On ch=10 n=59 v=0
33696 On ch=10 n=38 v=106
33696 On ch=10 n=59 v=106
33698 On ch=10 n=38 v=0
33698 On ch=10 n=59 v=0
33744 On ch=10 n=59 v=106
33746 On ch=10 n=59 v=0
33792 On ch=10 n=36 v=106
33792 On ch=10 n=59 v=106
33794 On ch=10 n=36 v=0
33794 On ch=10 n=59 v=0
33840 On ch=10 n=59 v=106
33842 On ch=10 n=59 v=0
33888 On ch=10 n=38 v=106
33888 On ch=10 n=59 v=106
33890 On ch=10 n=38 v=0
33890 On ch=10 n=59 v=0
33936 On ch=10 n=59 v=106
33938 On ch=10 n=59 v=0
33984 On ch=10 n=36 v=106
33984 On ch=10 n=59 v=106
33986 On ch=10 n=36 v=0
33986 On ch=10 n=59 v=0
34032 On ch=10 n=59 v=106
34034 On ch=10 n=59 v=0
34080 On ch=10 n=38 v=106
34080 On ch=10 n=59 v=106
34082 On ch=10 n=38 v=0
34082 On ch=10 n=59 v=0
34128 On ch=10 n=59 v=106
34130 On ch=10 n=59 v=0
34176 On ch=10 n=36 v=106
34176 On ch=10 n=59 v=106
34178 On ch=10 n=36 v=0
34178 On ch=10 n=59 v=0
34224 On ch=10 n=59 v=106
34226 On ch=10 n=59 v=0
34272 On ch=10 n=38 v=106
34272 On ch=10 n=59 v=106
34274 On ch=10 n=38 v=0
34274 On ch=10 n=59 v=0
34320 On ch=10 n=59 v=106
34322 On ch=10 n=59 v=0
34368 On ch=10 n=36 v=106
34368 On ch=10 n=59 v=106
34370 On ch=10 n=36 v=0
34370 On ch=10 n=59 v=0
34416 On ch=10 n=59 v=106
34418 On ch=10 n=59 v=0
34464 On ch=10 n=38 v=106
34464 On ch=10 n=59 v=106
34466 On ch=10 n=38 v=0
34466 On ch=10 n=59 v=0
34512 On ch=10 n=59 v=106
34514 On ch=10 n=59 v=0
34560 On ch=10 n=36 v=106
34560 On ch=10 n=59 v=106
34562 On ch=10 n=36 v=0
34562 On ch=10 n=59 v=0
34608 On ch=10 n=59 v=106
34610 On ch=10 n=59 v=0
34656 On ch=10 n=38 v=106
34656 On ch=10 n=59 v=106
34658 On ch=10 n=38 v=0
34658 On ch=10 n=59 v=0
34704 On ch=10 n=59 v=106
34706 On ch=10 n=59 v=0
34752 On ch=10 n=47 v=106
34752 On ch=10 n=59 v=106
34754 On ch=10 n=47 v=0
34754 On ch=10 n=59 v=0
34800 On ch=10 n=47 v=106
34800 On ch=10 n=59 v=106
34802 On ch=10 n=47 v=0
34802 On ch=10 n=59 v=0
34824 On ch=10 n=47 v=106
34826 On ch=10 n=47 v=0
34848 On ch=10 n=38 v=106
34848 On ch=10 n=59 v=106
34850 On ch=10 n=38 v=0
34850 On ch=10 n=59 v=0
34896 On ch=10 n=43 v=106
34896 On ch=10 n=59 v=106
34898 On ch=10 n=43 v=0
34898 On ch=10 n=59 v=0
34920 On ch=10 n=43 v=106
34922 On ch=10 n=43 v=0
34944 Par ch=10 c=7 v=102
34944 On ch=10 n=36 v=95
34944 On ch=10 n=49 v=106
34944 On ch=10 n=59 v=95
34946 On ch=10 n=36 v=0
34946 On ch=10 n=49 v=0
34946 On ch=10 n=59 v=0
34992 On ch=10 n=59 v=95
34994 On ch=10 n=59 v=0
35040 Par ch=10 c=7 v=102
35040 On ch=10 n=38 v=95
35040 On ch=10 n=59 v=95
35042 On ch=10 n=38 v=0
35042 On ch=10 n=59 v=0
35088 On ch=10 n=59 v=95
35090 On ch=10 n=59 v=0
35136 On ch=10 n=36 v=95
35136 On ch=10 n=59 v=95
35138 On ch=10 n=36 v=0
35138 On ch=10 n=59 v=0
35184 On ch=10 n=59 v=95
35186 On ch=10 n=59 v=0
35232 On ch=10 n=38 v=95
35232 On ch=10 n=59 v=95
35234 On ch=10 n=38 v=0
35234 On ch=10 n=59 v=0
35280 On ch=10 n=59 v=95
35282 On ch=10 n=59 v=0
35328 On ch=10 n=36 v=95
35328 On ch=10 n=49 v=84
35328 On ch=10 n=59 v=95
35330 On ch=10 n=36 v=0
35330 On ch=10 n=49 v=0
35330 On ch=10 n=59 v=0
35376 On ch=10 n=59 v=95
35378 On ch=10 n=59 v=0
35424 On ch=10 n=38 v=95
35424 On ch=10 n=59 v=95
35426 On ch=10 n=38 v=0
35426 On ch=10 n=59 v=0
35472 On ch=10 n=59 v=95
35474 On ch=10 n=59 v=0
35520 On ch=10 n=36 v=95
35520 On ch=10 n=59 v=95
35522 On ch=10 n=36 v=0
35522 On ch=10 n=59 v=0
35568 On ch=10 n=59 v=95
35570 On ch=10 n=59 v=0
35616 On ch=10 n=38 v=95
35616 On ch=10 n=59 v=95
35618 On ch=10 n=38 v=0
35618 On ch=10 n=59 v=0
35664 On ch=10 n=59 v=95
35666 On ch=10 n=59 v=0
35712 On ch=10 n=36 v=95
35712 On ch=10 n=59 v=95
35714 On ch=10 n=36 v=0
35714 On ch=10 n=59 v=0
35760 On ch=10 n=59 v=95
35762 On ch=10 n=59 v=0
35808 On ch=10 n=38 v=95
35808 On ch=10 n=59 v=95
35810 On ch=10 n=38 v=0
35810 On ch=10 n=59 v=0
35856 On ch=10 n=59 v=95
35858 On ch=10 n=59 v=0
35904 On ch=10 n=36 v=95
35904 On ch=10 n=59 v=95
35906 On ch=10 n=36 v=0
35906 On ch=10 n=59 v=0
35952 On ch=10 n=59 v=95
35954 On ch=10 n=59 v=0
36000 On ch=10 n=38 v=95
36000 On ch=10 n=59 v=95
36002 On ch=10 n=38 v=0
36002 On ch=10 n=59 v=0
36048 On ch=10 n=59 v=95
36050 On ch=10 n=59 v=0
36096 On ch=10 n=36 v=95
36096 On ch=10 n=59 v=95
36098 On ch=10 n=36 v=0
36098 On ch=10 n=59 v=0
36144 On ch=10 n=59 v=95
36146 On ch=10 n=59 v=0
36192 On ch=10 n=38 v=95
36192 On ch=10 n=59 v=95
36194 On ch=10 n=38 v=0
36194 On ch=10 n=59 v=0
36240 On ch=10 n=59 v=95
36242 On ch=10 n=59 v=0
36288 On ch=10 n=38 v=106
36288 On ch=10 n=59 v=95
36290 On ch=10 n=38 v=0
36290 On ch=10 n=59 v=0
36336 On ch=10 n=47 v=106
36336 On ch=10 n=59 v=106
36338 On ch=10 n=47 v=0
36338 On ch=10 n=59 v=0
36360 On ch=10 n=47 v=106
36362 On ch=10 n=47 v=0
36384 On ch=10 n=38 v=106
36384 On ch=10 n=59 v=106
36386 On ch=10 n=38 v=0
36386 On ch=10 n=59 v=0
36432 On ch=10 n=43 v=106
36432 On ch=10 n=59 v=106
36434 On ch=10 n=43 v=0
36434 On ch=10 n=59 v=0
36456 On ch=10 n=43 v=106
36458 On ch=10 n=43 v=0
36480 On ch=10 n=36 v=95
36480 On ch=10 n=49 v=106
36480 On ch=10 n=59 v=95
36482 On ch=10 n=36 v=0
36482 On ch=10 n=49 v=0
36482 On ch=10 n=59 v=0
36528 On ch=10 n=59 v=95
36530 On ch=10 n=59 v=0
36576 On ch=10 n=38 v=95
36576 On ch=10 n=59 v=95
36578 On ch=10 n=38 v=0
36578 On ch=10 n=59 v=0
36624 On ch=10 n=59 v=95
36626 On ch=10 n=59 v=0
36672 On ch=10 n=36 v=95
36672 On ch=10 n=59 v=95
36674 On ch=10 n=36 v=0
36674 On ch=10 n=59 v=0
36720 On ch=10 n=59 v=95
36722 On ch=10 n=59 v=0
36768 On ch=10 n=38 v=95
36768 On ch=10 n=59 v=95
36770 On ch=10 n=38 v=0
36770 On ch=10 n=59 v=0
36816 On ch=10 n=59 v=95
36818 On ch=10 n=59 v=0
36864 On ch=10 n=36 v=95
36864 On ch=10 n=49 v=84
36864 On ch=10 n=59 v=95
36866 On ch=10 n=36 v=0
36866 On ch=10 n=49 v=0
36866 On ch=10 n=59 v=0
36912 On ch=10 n=59 v=95
36914 On ch=10 n=59 v=0
36960 On ch=10 n=38 v=95
36960 On ch=10 n=59 v=95
36962 On ch=10 n=38 v=0
36962 On ch=10 n=59 v=0
37008 On ch=10 n=59 v=95
37010 On ch=10 n=59 v=0
37056 On ch=10 n=36 v=95
37056 On ch=10 n=59 v=95
37058 On ch=10 n=36 v=0
37058 On ch=10 n=59 v=0
37104 On ch=10 n=59 v=95
37106 On ch=10 n=59 v=0
37152 On ch=10 n=38 v=95
37152 On ch=10 n=59 v=95
37154 On ch=10 n=38 v=0
37154 On ch=10 n=59 v=0
37200 On ch=10 n=59 v=95
37202 On ch=10 n=59 v=0
37248 On ch=10 n=36 v=95
37248 On ch=10 n=59 v=95
37250 On ch=10 n=36 v=0
37250 On ch=10 n=59 v=0
37296 On ch=10 n=59 v=95
37298 On ch=10 n=59 v=0
37344 On ch=10 n=38 v=95
37344 On ch=10 n=59 v=95
37346 On ch=10 n=38 v=0
37346 On ch=10 n=59 v=0
37392 On ch=10 n=59 v=95
37394 On ch=10 n=59 v=0
37440 On ch=10 n=36 v=95
37440 On ch=10 n=59 v=95
37442 On ch=10 n=36 v=0
37442 On ch=10 n=59 v=0
37488 On ch=10 n=59 v=95
37490 On ch=10 n=59 v=0
37536 On ch=10 n=38 v=95
37536 On ch=10 n=59 v=95
37538 On ch=10 n=38 v=0
37538 On ch=10 n=59 v=0
37584 On ch=10 n=59 v=95
37586 On ch=10 n=59 v=0
37632 On ch=10 n=36 v=95
37632 On ch=10 n=59 v=95
37634 On ch=10 n=36 v=0
37634 On ch=10 n=59 v=0
37680 On ch=10 n=59 v=95
37682 On ch=10 n=59 v=0
37728 On ch=10 n=38 v=95
37728 On ch=10 n=59 v=95
37730 On ch=10 n=38 v=0
37730 On ch=10 n=59 v=0
37776 On ch=10 n=59 v=95
37778 On ch=10 n=59 v=0
37824 On ch=10 n=38 v=95
37824 On ch=10 n=59 v=95
37826 On ch=10 n=38 v=0
37826 On ch=10 n=59 v=0
37872 On ch=10 n=38 v=106
37872 On ch=10 n=59 v=106
37874 On ch=10 n=38 v=0
37874 On ch=10 n=59 v=0
37896 On ch=10 n=38 v=106
37898 On ch=10 n=38 v=0
37920 On ch=10 n=38 v=106
37920 On ch=10 n=59 v=106
37922 On ch=10 n=38 v=0
37922 On ch=10 n=59 v=0
37968 On ch=10 n=43 v=106
37968 On ch=10 n=59 v=106
37970 On ch=10 n=43 v=0
37970 On ch=10 n=59 v=0
37992 On ch=10 n=43 v=106
37994 On ch=10 n=43 v=0
38016 Par ch=10 c=7 v=115
38016 On ch=10 n=36 v=95
38016 On ch=10 n=49 v=106
38016 On ch=10 n=59 v=95
38018 On ch=10 n=36 v=0
38018 On ch=10 n=49 v=0
38018 On ch=10 n=59 v=0
38064 On ch=10 n=59 v=95
38066 On ch=10 n=59 v=0
38112 Par ch=10 c=7 v=115
38112 On ch=10 n=38 v=95
38112 On ch=10 n=59 v=95
38114 On ch=10 n=38 v=0
38114 On ch=10 n=59 v=0
38160 On ch=10 n=59 v=95
38162 On ch=10 n=59 v=0
38208 On ch=10 n=36 v=95
38208 On ch=10 n=59 v=95
38210 On ch=10 n=36 v=0
38210 On ch=10 n=59 v=0
38256 On ch=10 n=59 v=95
38258 On ch=10 n=59 v=0
38304 On ch=10 n=38 v=95
38304 On ch=10 n=59 v=95
38306 On ch=10 n=38 v=0
38306 On ch=10 n=59 v=0
38352 On ch=10 n=59 v=95
38354 On ch=10 n=59 v=0
38400 On ch=10 n=36 v=95
38400 On ch=10 n=49 v=84
38400 On ch=10 n=59 v=95
38402 On ch=10 n=36 v=0
38402 On ch=10 n=49 v=0
38402 On ch=10 n=59 v=0
38448 On ch=10 n=59 v=95
38450 On ch=10 n=59 v=0
38496 On ch=10 n=38 v=95
38496 On ch=10 n=59 v=95
38498 On ch=10 n=38 v=0
38498 On ch=10 n=59 v=0
38544 On ch=10 n=59 v=95
38546 On ch=10 n=59 v=0
38592 On ch=10 n=36 v=95
38592 On ch=10 n=59 v=95
38594 On ch=10 n=36 v=0
38594 On ch=10 n=59 v=0
38640 On ch=10 n=59 v=95
38642 On ch=10 n=59 v=0
38688 On ch=10 n=38 v=95
38688 On ch=10 n=59 v=95
38690 On ch=10 n=38 v=0
38690 On ch=10 n=59 v=0
38736 On ch=10 n=59 v=95
38738 On ch=10 n=59 v=0
38784 On ch=10 n=36 v=95
38784 On ch=10 n=59 v=95
38786 On ch=10 n=36 v=0
38786 On ch=10 n=59 v=0
38832 On ch=10 n=59 v=95
38834 On ch=10 n=59 v=0
38880 On ch=10 n=38 v=95
38880 On ch=10 n=59 v=95
38882 On ch=10 n=38 v=0
38882 On ch=10 n=59 v=0
38928 On ch=10 n=59 v=95
38930 On ch=10 n=59 v=0
38976 On ch=10 n=36 v=95
38976 On ch=10 n=59 v=95
38978 On ch=10 n=36 v=0
38978 On ch=10 n=59 v=0
39024 On ch=10 n=59 v=95
39026 On ch=10 n=59 v=0
39072 On ch=10 n=38 v=95
39072 On ch=10 n=59 v=95
39074 On ch=10 n=38 v=0
39074 On ch=10 n=59 v=0
39120 On ch=10 n=59 v=95
39122 On ch=10 n=59 v=0
39168 On ch=10 n=36 v=95
39168 On ch=10 n=59 v=95
39170 On ch=10 n=36 v=0
39170 On ch=10 n=59 v=0
39216 On ch=10 n=59 v=95
39218 On ch=10 n=59 v=0
39264 On ch=10 n=38 v=95
39264 On ch=10 n=59 v=95
39266 On ch=10 n=38 v=0
39266 On ch=10 n=59 v=0
39312 On ch=10 n=59 v=95
39314 On ch=10 n=59 v=0
39360 On ch=10 n=38 v=106
39360 On ch=10 n=59 v=106
39362 On ch=10 n=38 v=0
39362 On ch=10 n=59 v=0
39408 On ch=10 n=47 v=106
39408 On ch=10 n=59 v=106
39410 On ch=10 n=47 v=0
39410 On ch=10 n=59 v=0
39432 On ch=10 n=47 v=106
39434 On ch=10 n=47 v=0
39456 On ch=10 n=38 v=106
39456 On ch=10 n=59 v=106
39458 On ch=10 n=38 v=0
39458 On ch=10 n=59 v=0
39504 On ch=10 n=43 v=106
39504 On ch=10 n=59 v=106
39506 On ch=10 n=43 v=0
39506 On ch=10 n=59 v=0
39528 On ch=10 n=43 v=106
39530 On ch=10 n=43 v=0
39552 On ch=10 n=36 v=95
39552 On ch=10 n=49 v=106
39552 On ch=10 n=59 v=95
39554 On ch=10 n=36 v=0
39554 On ch=10 n=49 v=0
39554 On ch=10 n=59 v=0
39600 On ch=10 n=59 v=95
39602 On ch=10 n=59 v=0
39648 On ch=10 n=38 v=95
39648 On ch=10 n=59 v=95
39650 On ch=10 n=38 v=0
39650 On ch=10 n=59 v=0
39696 On ch=10 n=59 v=95
39698 On ch=10 n=59 v=0
39744 On ch=10 n=36 v=95
39744 On ch=10 n=59 v=95
39746 On ch=10 n=36 v=0
39746 On ch=10 n=59 v=0
39792 On ch=10 n=59 v=95
39794 On ch=10 n=59 v=0
39840 On ch=10 n=38 v=95
39840 On ch=10 n=59 v=95
39842 On ch=10 n=38 v=0
39842 On ch=10 n=59 v=0
39888 On ch=10 n=59 v=95
39890 On ch=10 n=59 v=0
39936 On ch=10 n=36 v=95
39936 On ch=10 n=49 v=84
39936 On ch=10 n=59 v=95
39938 On ch=10 n=36 v=0
39938 On ch=10 n=49 v=0
39938 On ch=10 n=59 v=0
39984 On ch=10 n=59 v=95
39986 On ch=10 n=59 v=0
40032 On ch=10 n=38 v=95
40032 On ch=10 n=59 v=95
40034 On ch=10 n=38 v=0
40034 On ch=10 n=59 v=0
40080 On ch=10 n=59 v=95
40082 On ch=10 n=59 v=0
40128 On ch=10 n=36 v=95
40128 On ch=10 n=59 v=95
40130 On ch=10 n=36 v=0
40130 On ch=10 n=59 v=0
40176 On ch=10 n=59 v=95
40178 On ch=10 n=59 v=0
40224 On ch=10 n=38 v=95
40224 On ch=10 n=59 v=95
40226 On ch=10 n=38 v=0
40226 On ch=10 n=59 v=0
40272 On ch=10 n=59 v=95
40274 On ch=10 n=59 v=0
40320 On ch=10 n=36 v=95
40320 On ch=10 n=59 v=95
40322 On ch=10 n=36 v=0
40322 On ch=10 n=59 v=0
40368 On ch=10 n=59 v=95
40370 On ch=10 n=59 v=0
40416 On ch=10 n=38 v=95
40416 On ch=10 n=59 v=95
40418 On ch=10 n=38 v=0
40418 On ch=10 n=59 v=0
40464 On ch=10 n=59 v=95
40466 On ch=10 n=59 v=0
40512 On ch=10 n=36 v=95
40512 On ch=10 n=59 v=95
40514 On ch=10 n=36 v=0
40514 On ch=10 n=59 v=0
40560 On ch=10 n=59 v=95
40562 On ch=10 n=59 v=0
40608 On ch=10 n=38 v=95
40608 On ch=10 n=59 v=95
40610 On ch=10 n=38 v=0
40610 On ch=10 n=59 v=0
40656 On ch=10 n=59 v=95
40658 On ch=10 n=59 v=0
40704 On ch=10 n=36 v=95
40704 On ch=10 n=59 v=95
40706 On ch=10 n=36 v=0
40706 On ch=10 n=59 v=0
40752 On ch=10 n=59 v=95
40754 On ch=10 n=59 v=0
40800 On ch=10 n=38 v=95
40800 On ch=10 n=59 v=95
40802 On ch=10 n=38 v=0
40802 On ch=10 n=59 v=0
40848 On ch=10 n=59 v=95
40850 On ch=10 n=59 v=0
40896 On ch=10 n=38 v=95
40896 On ch=10 n=59 v=95
40898 On ch=10 n=38 v=0
40898 On ch=10 n=59 v=0
40944 On ch=10 n=47 v=106
40944 On ch=10 n=59 v=106
40946 On ch=10 n=47 v=0
40946 On ch=10 n=59 v=0
40968 On ch=10 n=47 v=106
40970 On ch=10 n=47 v=0
40992 On ch=10 n=38 v=95
40992 On ch=10 n=59 v=95
40994 On ch=10 n=38 v=0
40994 On ch=10 n=59 v=0
41040 On ch=10 n=43 v=106
41040 On ch=10 n=59 v=106
41042 On ch=10 n=43 v=0
41042 On ch=10 n=59 v=0
41064 On ch=10 n=43 v=106
41066 On ch=10 n=43 v=0
41088 Par ch=10 c=7 v=127
41088 On ch=10 n=36 v=95
41088 On ch=10 n=49 v=106
41088 On ch=10 n=59 v=95
41090 On ch=10 n=36 v=0
41090 On ch=10 n=49 v=0
41090 On ch=10 n=59 v=0
41112 Par ch=10 c=7 v=127
41136 On ch=10 n=59 v=95
41138 On ch=10 n=59 v=0
41184 On ch=10 n=38 v=95
41184 On ch=10 n=59 v=95
41186 On ch=10 n=38 v=0
41186 On ch=10 n=59 v=0
41232 On ch=10 n=59 v=95
41234 On ch=10 n=59 v=0
41280 On ch=10 n=36 v=95
41280 On ch=10 n=59 v=95
41282 On ch=10 n=36 v=0
41282 On ch=10 n=59 v=0
41328 On ch=10 n=59 v=95
41330 On ch=10 n=59 v=0
41376 On ch=10 n=38 v=95
41376 On ch=10 n=59 v=95
41378 On ch=10 n=38 v=0
41378 On ch=10 n=59 v=0
41424 On ch=10 n=59 v=95
41426 On ch=10 n=59 v=0
41472 On ch=10 n=36 v=95
41472 On ch=10 n=49 v=106
41472 On ch=10 n=59 v=95
41474 On ch=10 n=36 v=0
41474 On ch=10 n=49 v=0
41474 On ch=10 n=59 v=0
41520 On ch=10 n=59 v=95
41522 On ch=10 n=59 v=0
41568 On ch=10 n=38 v=95
41568 On ch=10 n=59 v=95
41570 On ch=10 n=38 v=0
41570 On ch=10 n=59 v=0
41616 On ch=10 n=59 v=95
41618 On ch=10 n=59 v=0
41664 On ch=10 n=36 v=95
41664 On ch=10 n=59 v=95
41666 On ch=10 n=36 v=0
41666 On ch=10 n=59 v=0
41712 On ch=10 n=59 v=95
41714 On ch=10 n=59 v=0
41760 On ch=10 n=38 v=95
41760 On ch=10 n=59 v=95
41762 On ch=10 n=38 v=0
41762 On ch=10 n=59 v=0
41808 On ch=10 n=59 v=95
41810 On ch=10 n=59 v=0
41856 On ch=10 n=36 v=95
41856 On ch=10 n=49 v=106
41856 On ch=10 n=59 v=95
41858 On ch=10 n=36 v=0
41858 On ch=10 n=49 v=0
41858 On ch=10 n=59 v=0
41904 On ch=10 n=59 v=95
41906 On ch=10 n=59 v=0
41952 On ch=10 n=38 v=95
41952 On ch=10 n=59 v=95
41954 On ch=10 n=38 v=0
41954 On ch=10 n=59 v=0
42000 On ch=10 n=36 v=106
42000 On ch=10 n=59 v=95
42002 On ch=10 n=59 v=0
42012 On ch=10 n=36 v=0
42048 On ch=10 n=36 v=95
42048 On ch=10 n=59 v=95
42050 On ch=10 n=36 v=0
42050 On ch=10 n=59 v=0
42096 On ch=10 n=38 v=84
42096 On ch=10 n=59 v=95
42098 On ch=10 n=59 v=0
42108 On ch=10 n=38 v=0
42120 On ch=10 n=38 v=84
42132 On ch=10 n=38 v=0
42144 On ch=10 n=38 v=95
42144 On ch=10 n=59 v=95
42146 On ch=10 n=38 v=0
42146 On ch=10 n=59 v=0
42192 On ch=10 n=43 v=84
42192 On ch=10 n=59 v=95
42194 On ch=10 n=59 v=0
42204 On ch=10 n=43 v=0
42216 On ch=10 n=43 v=84
42228 On ch=10 n=43 v=0
42240 On ch=10 n=36 v=106
42240 On ch=10 n=49 v=106
42240 On ch=10 n=59 v=106
42242 On ch=10 n=36 v=0
42242 On ch=10 n=59 v=0
42288 On ch=10 n=59 v=106
42290 On ch=10 n=59 v=0
42494 On ch=10 n=49 v=0
43008 On ch=10 n=36 v=106
43008 On ch=10 n=49 v=106
43072 On ch=10 n=36 v=0
43072 On ch=10 n=49 v=0
43072 Meta TrkEnd
TrkEnd
