MFile 1 11 480
MTrk
0 Meta SeqName "Silent Spring / YES"
0 TimeSig 5/4 24 8
0 Tempo 895522
28320 Tempo 731707
28800 Tempo 447761
98400 TimeSig 4/4 24 8
104160 Meta TrkEnd
TrkEnd
MTrk
0 Meta TrkName "Anderson (Rest)"
0 Meta 0x20 00
0 Meta InstrName "Anderson (Rest)"
0 KeySig 0 major
10 Par ch=1 c=7 v=107
15 Par ch=1 c=10 v=64
20 Par ch=1 c=91 v=40
25 Par ch=1 c=93 v=0
30 Par ch=1 c=101 v=0
30 Par ch=1 c=100 v=0
30 Par ch=1 c=6 v=2
35 Par ch=1 c=99 v=1
35 Par ch=1 c=98 v=8
35 Par ch=1 c=6 v=64
40 Par ch=1 c=99 v=1
40 Par ch=1 c=98 v=9
40 Par ch=1 c=6 v=64
45 Par ch=1 c=99 v=1
45 Par ch=1 c=98 v=10
45 Par ch=1 c=6 v=64
50 Par ch=1 c=99 v=1
50 Par ch=1 c=98 v=32
50 Par ch=1 c=6 v=64
55 Par ch=1 c=99 v=1
55 Par ch=1 c=98 v=33
55 Par ch=1 c=6 v=64
60 Par ch=1 c=99 v=1
60 Par ch=1 c=98 v=99
60 Par ch=1 c=6 v=64
65 Par ch=1 c=99 v=1
65 Par ch=1 c=98 v=100
65 Par ch=1 c=6 v=64
70 Par ch=1 c=99 v=1
70 Par ch=1 c=98 v=102
70 Par ch=1 c=6 v=64
104160 Meta TrkEnd
TrkEnd
MTrk
0 Meta TrkName "Squire"
0 Meta 0x20 01
0 Meta InstrName "Squire"
0 KeySig 0 major
75 Par ch=2 c=0 v=0
80 Par ch=2 c=32 v=0
85 PrCh ch=2 p=33
90 Par ch=2 c=7 v=110
95 Par ch=2 c=10 v=64
100 Par ch=2 c=91 v=55
105 Par ch=2 c=93 v=46
110 Par ch=2 c=101 v=0
110 Par ch=2 c=100 v=0
110 Par ch=2 c=6 v=2
115 Par ch=2 c=99 v=1
115 Par ch=2 c=98 v=8
115 Par ch=2 c=6 v=64
120 Par ch=2 c=99 v=1
120 Par ch=2 c=98 v=9
120 Par ch=2 c=6 v=64
125 Par ch=2 c=99 v=1
125 Par ch=2 c=98 v=10
125 Par ch=2 c=6 v=64
130 Par ch=2 c=99 v=1
130 Par ch=2 c=98 v=32
130 Par ch=2 c=6 v=64
135 Par ch=2 c=99 v=1
135 Par ch=2 c=98 v=33
135 Par ch=2 c=6 v=64
140 Par ch=2 c=99 v=1
140 Par ch=2 c=98 v=99
140 Par ch=2 c=6 v=64
145 Par ch=2 c=99 v=1
145 Par ch=2 c=98 v=100
145 Par ch=2 c=6 v=64
150 Par ch=2 c=99 v=1
150 Par ch=2 c=98 v=102
150 Par ch=2 c=6 v=64
5999 On ch=2 n=28 v=127
6000 Pb ch=2 v=737
6029 Pb ch=2 v=4465
6067 Pb ch=2 v=8192
9508 Off ch=2 n=28 v=127
9600 On ch=2 n=28 v=126
13150 Off ch=2 n=28 v=126
13200 On ch=2 n=26 v=127
16775 Off ch=2 n=26 v=127
17277 On ch=2 n=28 v=125
20327 Off ch=2 n=28 v=125
20399 On ch=2 n=28 v=127
23984 Off ch=2 n=28 v=127
24000 On ch=2 n=26 v=126
28307 Off ch=2 n=26 v=126
28807 On ch=2 n=28 v=117
28975 Off ch=2 n=28 v=117
29056 On ch=2 n=28 v=110
29159 Off ch=2 n=28 v=110
29174 On ch=2 n=30 v=113
29344 Off ch=2 n=30 v=113
29403 On ch=2 n=30 v=104
29518 Off ch=2 n=30 v=104
29521 On ch=2 n=31 v=111
29691 Off ch=2 n=31 v=111
29759 On ch=2 n=31 v=110
29873 Off ch=2 n=31 v=110
29878 On ch=2 n=33 v=127
30044 Off ch=2 n=33 v=127
30120 On ch=2 n=33 v=112
30236 Off ch=2 n=33 v=112
30247 On ch=2 n=35 v=101
30475 Off ch=2 n=35 v=101
30481 On ch=2 n=33 v=127
30601 Off ch=2 n=33 v=127
30605 On ch=2 n=31 v=98
30729 Off ch=2 n=31 v=98
30730 On ch=2 n=26 v=59
31184 Off ch=2 n=26 v=59
31201 On ch=2 n=24 v=102
31587 Off ch=2 n=24 v=102
31686 On ch=2 n=24 v=114
31826 Off ch=2 n=24 v=114
31918 On ch=2 n=24 v=108
32019 Off ch=2 n=24 v=108
32041 On ch=2 n=24 v=114
32166 Off ch=2 n=24 v=114
32405 On ch=2 n=24 v=97
32506 Off ch=2 n=24 v=97
32520 On ch=2 n=24 v=90
32607 Off ch=2 n=24 v=90
32642 On ch=2 n=24 v=87
32762 Off ch=2 n=24 v=87
32884 On ch=2 n=24 v=110
32992 Off ch=2 n=24 v=110
33123 On ch=2 n=24 v=102
33249 Off ch=2 n=24 v=102
33363 On ch=2 n=24 v=94
33462 Off ch=2 n=24 v=94
33601 On ch=2 n=24 v=102
33987 Off ch=2 n=24 v=102
34086 On ch=2 n=24 v=114
34226 Off ch=2 n=24 v=114
34318 On ch=2 n=24 v=108
34419 Off ch=2 n=24 v=108
34441 On ch=2 n=24 v=114
34566 Off ch=2 n=24 v=114
34805 On ch=2 n=24 v=97
34906 Off ch=2 n=24 v=97
34920 On ch=2 n=24 v=90
35007 Off ch=2 n=24 v=90
35042 On ch=2 n=24 v=87
35162 Off ch=2 n=24 v=87
35284 On ch=2 n=24 v=110
35392 Off ch=2 n=24 v=110
35523 On ch=2 n=24 v=102
35649 Off ch=2 n=24 v=102
35763 On ch=2 n=24 v=94
35862 Off ch=2 n=24 v=94
36000 On ch=2 n=26 v=120
36463 Off ch=2 n=26 v=120
36483 On ch=2 n=28 v=127
36945 Off ch=2 n=28 v=127
36976 On ch=2 n=31 v=120
37312 Off ch=2 n=31 v=120
37313 On ch=2 n=30 v=127
37920 Off ch=2 n=30 v=127
37927 On ch=2 n=28 v=127
38368 Off ch=2 n=28 v=127
38417 On ch=2 n=26 v=110
38872 Off ch=2 n=26 v=110
38898 On ch=2 n=28 v=127
39337 Off ch=2 n=28 v=127
39360 On ch=2 n=31 v=117
39704 Off ch=2 n=31 v=117
39709 On ch=2 n=30 v=127
40332 Off ch=2 n=30 v=127
40334 On ch=2 n=28 v=125
40728 Off ch=2 n=28 v=125
40804 On ch=2 n=26 v=125
41265 Off ch=2 n=26 v=125
41295 On ch=2 n=28 v=127
41731 Off ch=2 n=28 v=127
41758 On ch=2 n=33 v=118
42122 Off ch=2 n=33 v=118
42126 On ch=2 n=31 v=120
42478 On ch=2 n=35 v=117
42480 Off ch=2 n=31 v=120
42946 Off ch=2 n=35 v=117
42957 On ch=2 n=33 v=110
43077 On ch=2 n=31 v=98
43089 Off ch=2 n=33 v=110
43187 Off ch=2 n=31 v=98
43204 On ch=2 n=26 v=108
43674 On ch=2 n=28 v=127
43679 Off ch=2 n=26 v=108
44143 Off ch=2 n=28 v=127
44154 On ch=2 n=31 v=114
44510 Off ch=2 n=31 v=114
44517 On ch=2 n=30 v=123
45126 On ch=2 n=28 v=127
45132 Off ch=2 n=30 v=123
45581 Off ch=2 n=28 v=127
45604 On ch=2 n=26 v=108
46074 On ch=2 n=28 v=127
46079 Off ch=2 n=26 v=108
46543 Off ch=2 n=28 v=127
46554 On ch=2 n=31 v=114
46910 Off ch=2 n=31 v=114
46917 On ch=2 n=30 v=123
47526 On ch=2 n=28 v=127
47532 Off ch=2 n=30 v=123
47981 Off ch=2 n=28 v=127
48007 On ch=2 n=28 v=117
48175 Off ch=2 n=28 v=117
48256 On ch=2 n=28 v=110
48359 Off ch=2 n=28 v=110
48374 On ch=2 n=30 v=113
48544 Off ch=2 n=30 v=113
48603 On ch=2 n=30 v=104
48718 Off ch=2 n=30 v=104
48721 On ch=2 n=31 v=111
48891 Off ch=2 n=31 v=111
48959 On ch=2 n=31 v=110
49073 Off ch=2 n=31 v=110
49078 On ch=2 n=33 v=127
49244 Off ch=2 n=33 v=127
49320 On ch=2 n=33 v=112
49436 Off ch=2 n=33 v=112
49447 On ch=2 n=35 v=101
49675 Off ch=2 n=35 v=101
49681 On ch=2 n=33 v=127
49801 Off ch=2 n=33 v=127
49805 On ch=2 n=31 v=98
49929 Off ch=2 n=31 v=98
49930 On ch=2 n=26 v=59
50384 Off ch=2 n=26 v=59
50401 On ch=2 n=24 v=102
50787 Off ch=2 n=24 v=102
50886 On ch=2 n=24 v=114
51026 Off ch=2 n=24 v=114
51118 On ch=2 n=24 v=108
51219 Off ch=2 n=24 v=108
51241 On ch=2 n=24 v=114
51366 Off ch=2 n=24 v=114
51605 On ch=2 n=24 v=97
51706 Off ch=2 n=24 v=97
51720 On ch=2 n=24 v=90
51807 Off ch=2 n=24 v=90
51842 On ch=2 n=24 v=87
51962 Off ch=2 n=24 v=87
52084 On ch=2 n=24 v=110
52192 Off ch=2 n=24 v=110
52323 On ch=2 n=24 v=102
52449 Off ch=2 n=24 v=102
52563 On ch=2 n=24 v=94
52662 Off ch=2 n=24 v=94
52801 On ch=2 n=24 v=102
53187 Off ch=2 n=24 v=102
53286 On ch=2 n=24 v=114
53426 Off ch=2 n=24 v=114
53518 On ch=2 n=24 v=108
53619 Off ch=2 n=24 v=108
53641 On ch=2 n=24 v=114
53766 Off ch=2 n=24 v=114
54005 On ch=2 n=24 v=97
54106 Off ch=2 n=24 v=97
54120 On ch=2 n=24 v=90
54207 Off ch=2 n=24 v=90
54242 On ch=2 n=24 v=87
54362 Off ch=2 n=24 v=87
54484 On ch=2 n=24 v=110
54592 Off ch=2 n=24 v=110
54723 On ch=2 n=24 v=102
54849 Off ch=2 n=24 v=102
54963 On ch=2 n=24 v=94
55062 Off ch=2 n=24 v=94
55200 On ch=2 n=26 v=112
55674 Off ch=2 n=26 v=112
55680 On ch=2 n=28 v=127
56153 Off ch=2 n=28 v=127
56153 On ch=2 n=31 v=117
56493 Off ch=2 n=31 v=117
56498 On ch=2 n=30 v=119
56887 Off ch=2 n=30 v=119
56889 On ch=2 n=28 v=122
57107 Off ch=2 n=28 v=122
57120 On ch=2 n=26 v=127
57554 Off ch=2 n=26 v=127
57600 On ch=2 n=26 v=112
58074 Off ch=2 n=26 v=112
58080 On ch=2 n=28 v=127
58553 Off ch=2 n=28 v=127
58553 On ch=2 n=31 v=117
58893 Off ch=2 n=31 v=117
58898 On ch=2 n=30 v=119
59287 Off ch=2 n=30 v=119
59289 On ch=2 n=28 v=122
59507 Off ch=2 n=28 v=122
59520 On ch=2 n=26 v=127
59954 Off ch=2 n=26 v=127
60004 On ch=2 n=26 v=125
60465 Off ch=2 n=26 v=125
60495 On ch=2 n=28 v=127
60931 Off ch=2 n=28 v=127
60958 On ch=2 n=33 v=118
61322 Off ch=2 n=33 v=118
61326 On ch=2 n=31 v=120
61678 On ch=2 n=35 v=117
61680 Off ch=2 n=31 v=120
62146 Off ch=2 n=35 v=117
62157 On ch=2 n=33 v=110
62277 On ch=2 n=31 v=98
62289 Off ch=2 n=33 v=110
62387 Off ch=2 n=31 v=98
62400 On ch=2 n=26 v=112
62874 Off ch=2 n=26 v=112
62880 On ch=2 n=28 v=127
63353 Off ch=2 n=28 v=127
63353 On ch=2 n=31 v=117
63693 Off ch=2 n=31 v=117
63698 On ch=2 n=30 v=119
64319 Off ch=2 n=30 v=119
64321 On ch=2 n=28 v=122
64778 Off ch=2 n=28 v=122
64807 On ch=2 n=28 v=117
64975 Off ch=2 n=28 v=117
65056 On ch=2 n=28 v=110
65159 Off ch=2 n=28 v=110
65174 On ch=2 n=30 v=113
65344 Off ch=2 n=30 v=113
65403 On ch=2 n=30 v=104
65518 Off ch=2 n=30 v=104
65521 On ch=2 n=31 v=111
65691 Off ch=2 n=31 v=111
65759 On ch=2 n=31 v=110
65873 Off ch=2 n=31 v=110
65878 On ch=2 n=33 v=127
66044 Off ch=2 n=33 v=127
66120 On ch=2 n=33 v=112
66236 Off ch=2 n=33 v=112
66247 On ch=2 n=35 v=101
66475 Off ch=2 n=35 v=101
66481 On ch=2 n=33 v=127
66601 Off ch=2 n=33 v=127
66605 On ch=2 n=31 v=98
66729 Off ch=2 n=31 v=98
66730 On ch=2 n=26 v=59
67184 Off ch=2 n=26 v=59
67201 On ch=2 n=24 v=102
67587 Off ch=2 n=24 v=102
67686 On ch=2 n=24 v=114
67826 Off ch=2 n=24 v=114
67918 On ch=2 n=24 v=108
68019 Off ch=2 n=24 v=108
68041 On ch=2 n=24 v=114
68166 Off ch=2 n=24 v=114
68405 On ch=2 n=24 v=97
68506 Off ch=2 n=24 v=97
68520 On ch=2 n=24 v=90
68607 Off ch=2 n=24 v=90
68642 On ch=2 n=24 v=87
68762 Off ch=2 n=24 v=87
68884 On ch=2 n=24 v=110
68992 Off ch=2 n=24 v=110
69123 On ch=2 n=24 v=102
69249 Off ch=2 n=24 v=102
69363 On ch=2 n=24 v=94
69462 Off ch=2 n=24 v=94
69601 On ch=2 n=24 v=102
69987 Off ch=2 n=24 v=102
70086 On ch=2 n=24 v=114
70226 Off ch=2 n=24 v=114
70318 On ch=2 n=24 v=108
70419 Off ch=2 n=24 v=108
70441 On ch=2 n=24 v=114
70566 Off ch=2 n=24 v=114
70805 On ch=2 n=24 v=97
70906 Off ch=2 n=24 v=97
70920 On ch=2 n=24 v=90
71007 Off ch=2 n=24 v=90
71042 On ch=2 n=24 v=87
71162 Off ch=2 n=24 v=87
71284 On ch=2 n=24 v=110
71392 Off ch=2 n=24 v=110
71523 On ch=2 n=24 v=102
71649 Off ch=2 n=24 v=102
71763 On ch=2 n=24 v=94
71862 Off ch=2 n=24 v=94
81600 On ch=2 n=26 v=112
82074 Off ch=2 n=26 v=112
82080 On ch=2 n=28 v=127
82553 Off ch=2 n=28 v=127
82553 On ch=2 n=31 v=117
82893 Off ch=2 n=31 v=117
82898 On ch=2 n=30 v=119
83287 Off ch=2 n=30 v=119
83289 On ch=2 n=28 v=122
83507 Off ch=2 n=28 v=122
83520 On ch=2 n=26 v=127
83954 Off ch=2 n=26 v=127
84000 On ch=2 n=26 v=112
84474 Off ch=2 n=26 v=112
84480 On ch=2 n=28 v=127
84953 Off ch=2 n=28 v=127
84953 On ch=2 n=31 v=117
85293 Off ch=2 n=31 v=117
85298 On ch=2 n=30 v=119
85687 Off ch=2 n=30 v=119
85689 On ch=2 n=28 v=122
85907 Off ch=2 n=28 v=122
85920 On ch=2 n=26 v=127
86354 Off ch=2 n=26 v=127
86404 On ch=2 n=26 v=125
86865 Off ch=2 n=26 v=125
86895 On ch=2 n=28 v=127
87331 Off ch=2 n=28 v=127
87358 On ch=2 n=33 v=118
87722 Off ch=2 n=33 v=118
87726 On ch=2 n=31 v=120
88078 On ch=2 n=35 v=117
88080 Off ch=2 n=31 v=120
88546 Off ch=2 n=35 v=117
88557 On ch=2 n=33 v=110
88677 On ch=2 n=31 v=98
88689 Off ch=2 n=33 v=110
88787 Off ch=2 n=31 v=98
88800 On ch=2 n=26 v=112
89274 Off ch=2 n=26 v=112
89280 On ch=2 n=28 v=127
89753 Off ch=2 n=28 v=127
89753 On ch=2 n=31 v=117
90093 Off ch=2 n=31 v=117
90098 On ch=2 n=30 v=119
90719 Off ch=2 n=30 v=119
90721 On ch=2 n=28 v=122
91178 Off ch=2 n=28 v=122
91207 On ch=2 n=28 v=117
91375 Off ch=2 n=28 v=117
91456 On ch=2 n=28 v=110
91559 Off ch=2 n=28 v=110
91574 On ch=2 n=30 v=113
91744 Off ch=2 n=30 v=113
91803 On ch=2 n=30 v=104
91918 Off ch=2 n=30 v=104
91921 On ch=2 n=31 v=111
92091 Off ch=2 n=31 v=111
92159 On ch=2 n=31 v=110
92273 Off ch=2 n=31 v=110
92278 On ch=2 n=33 v=127
92444 Off ch=2 n=33 v=127
92520 On ch=2 n=33 v=112
92636 Off ch=2 n=33 v=112
92647 On ch=2 n=35 v=101
92875 Off ch=2 n=35 v=101
92881 On ch=2 n=33 v=127
93001 Off ch=2 n=33 v=127
93005 On ch=2 n=31 v=98
93129 Off ch=2 n=31 v=98
93130 On ch=2 n=26 v=59
93584 Off ch=2 n=26 v=59
93601 On ch=2 n=24 v=102
93987 Off ch=2 n=24 v=102
94086 On ch=2 n=24 v=114
94226 Off ch=2 n=24 v=114
94318 On ch=2 n=24 v=108
94419 Off ch=2 n=24 v=108
94441 On ch=2 n=24 v=114
94566 Off ch=2 n=24 v=114
94805 On ch=2 n=24 v=97
94906 Off ch=2 n=24 v=97
94920 On ch=2 n=24 v=90
95007 Off ch=2 n=24 v=90
95042 On ch=2 n=24 v=87
95162 Off ch=2 n=24 v=87
95284 On ch=2 n=24 v=110
95392 Off ch=2 n=24 v=110
95523 On ch=2 n=24 v=102
95649 Off ch=2 n=24 v=102
95763 On ch=2 n=24 v=94
95862 Off ch=2 n=24 v=94
96001 On ch=2 n=24 v=102
96387 Off ch=2 n=24 v=102
96486 On ch=2 n=24 v=114
96626 Off ch=2 n=24 v=114
96718 On ch=2 n=24 v=108
96819 Off ch=2 n=24 v=108
96841 On ch=2 n=24 v=114
96966 Off ch=2 n=24 v=114
97205 On ch=2 n=24 v=97
97306 Off ch=2 n=24 v=97
97320 On ch=2 n=24 v=90
97407 Off ch=2 n=24 v=90
97442 On ch=2 n=24 v=87
97562 Off ch=2 n=24 v=87
97684 On ch=2 n=24 v=110
97792 Off ch=2 n=24 v=110
97923 On ch=2 n=24 v=102
98049 Off ch=2 n=24 v=102
98163 On ch=2 n=24 v=94
98262 Off ch=2 n=24 v=94
104160 Meta TrkEnd
TrkEnd
MTrk
0 Meta TrkName "Seq. Rabin"
0 Meta 0x20 02
0 Meta InstrName "Seq. Rabin"
0 KeySig 0 major
155 Par ch=3 c=0 v=0
160 Par ch=3 c=32 v=0
165 PrCh ch=3 p=2
170 Par ch=3 c=7 v=100
175 Par ch=3 c=10 v=64
180 Par ch=3 c=91 v=78
185 Par ch=3 c=93 v=25
190 Par ch=3 c=101 v=0
190 Par ch=3 c=100 v=0
190 Par ch=3 c=6 v=2
195 Par ch=3 c=99 v=1
195 Par ch=3 c=98 v=8
195 Par ch=3 c=6 v=64
200 Par ch=3 c=99 v=1
200 Par ch=3 c=98 v=9
200 Par ch=3 c=6 v=64
205 Par ch=3 c=99 v=1
205 Par ch=3 c=98 v=10
205 Par ch=3 c=6 v=64
210 Par ch=3 c=99 v=1
210 Par ch=3 c=98 v=32
210 Par ch=3 c=6 v=64
215 Par ch=3 c=99 v=1
215 Par ch=3 c=98 v=33
215 Par ch=3 c=6 v=64
220 Par ch=3 c=99 v=1
220 Par ch=3 c=98 v=99
220 Par ch=3 c=6 v=64
225 Par ch=3 c=99 v=1
225 Par ch=3 c=98 v=100
225 Par ch=3 c=6 v=64
230 Par ch=3 c=99 v=1
230 Par ch=3 c=98 v=102
230 Par ch=3 c=6 v=64
2400 On ch=3 n=86 v=80
2400 On ch=3 n=83 v=77
2458 Off ch=3 n=86 v=80
2458 Off ch=3 n=83 v=77
2460 On ch=3 n=86 v=72
2460 On ch=3 n=83 v=79
2518 Off ch=3 n=86 v=72
2518 Off ch=3 n=83 v=79
2520 On ch=3 n=78 v=77
2578 Off ch=3 n=78 v=77
2580 On ch=3 n=86 v=77
2580 On ch=3 n=81 v=75
2638 Off ch=3 n=86 v=77
2638 Off ch=3 n=81 v=75
2640 On ch=3 n=79 v=75
2698 Off ch=3 n=79 v=75
2700 On ch=3 n=86 v=76
2700 On ch=3 n=81 v=77
2758 Off ch=3 n=86 v=76
2758 Off ch=3 n=81 v=77
2760 On ch=3 n=79 v=75
2818 Off ch=3 n=79 v=75
2820 On ch=3 n=86 v=73
2820 On ch=3 n=81 v=79
2878 Off ch=3 n=86 v=73
2878 Off ch=3 n=81 v=79
2880 On ch=3 n=86 v=76
2880 On ch=3 n=83 v=77
2938 Off ch=3 n=86 v=76
2938 Off ch=3 n=83 v=77
2940 On ch=3 n=78 v=73
2998 Off ch=3 n=78 v=73
3000 On ch=3 n=86 v=74
3000 On ch=3 n=81 v=78
3058 Off ch=3 n=86 v=74
3058 Off ch=3 n=81 v=78
3060 On ch=3 n=78 v=78
3118 Off ch=3 n=78 v=78
3119 On ch=3 n=86 v=73
3120 On ch=3 n=79 v=77
3178 Off ch=3 n=79 v=77
3180 On ch=3 n=81 v=74
3238 Off ch=3 n=81 v=74
3240 On ch=3 n=76 v=78
3242 Off ch=3 n=86 v=73
3298 Off ch=3 n=76 v=78
3300 On ch=3 n=81 v=77
3300 On ch=3 n=86 v=73
3358 Off ch=3 n=81 v=77
3358 Off ch=3 n=86 v=73
3360 On ch=3 n=79 v=77
3418 Off ch=3 n=79 v=77
3420 On ch=3 n=86 v=71
3420 On ch=3 n=81 v=75
3478 Off ch=3 n=86 v=71
3478 Off ch=3 n=81 v=75
3480 On ch=3 n=79 v=75
3538 Off ch=3 n=79 v=75
3539 On ch=3 n=86 v=75
3540 On ch=3 n=81 v=77
3597 Off ch=3 n=86 v=75
3598 Off ch=3 n=81 v=77
3600 On ch=3 n=83 v=77
3600 On ch=3 n=86 v=80
3658 Off ch=3 n=83 v=77
3658 Off ch=3 n=86 v=80
3660 On ch=3 n=83 v=79
3660 On ch=3 n=86 v=72
3718 Off ch=3 n=83 v=79
3718 Off ch=3 n=86 v=72
3720 On ch=3 n=78 v=77
3778 Off ch=3 n=78 v=77
3780 On ch=3 n=81 v=75
3780 On ch=3 n=86 v=77
3838 Off ch=3 n=81 v=75
3838 Off ch=3 n=86 v=77
3840 On ch=3 n=79 v=75
3898 Off ch=3 n=79 v=75
3900 On ch=3 n=81 v=77
3900 On ch=3 n=86 v=76
3958 Off ch=3 n=81 v=77
3958 Off ch=3 n=86 v=76
3960 On ch=3 n=79 v=75
4018 Off ch=3 n=79 v=75
4020 On ch=3 n=81 v=79
4020 On ch=3 n=86 v=73
4078 Off ch=3 n=81 v=79
4078 Off ch=3 n=86 v=73
4080 On ch=3 n=83 v=77
4080 On ch=3 n=86 v=76
4138 Off ch=3 n=83 v=77
4138 Off ch=3 n=86 v=76
4140 On ch=3 n=78 v=73
4198 Off ch=3 n=78 v=73
4200 On ch=3 n=81 v=78
4200 On ch=3 n=86 v=74
4258 Off ch=3 n=81 v=78
4258 Off ch=3 n=86 v=74
4260 On ch=3 n=78 v=78
4318 Off ch=3 n=78 v=78
4319 On ch=3 n=86 v=73
4320 On ch=3 n=79 v=77
4378 Off ch=3 n=79 v=77
4380 On ch=3 n=81 v=74
4438 Off ch=3 n=81 v=74
4440 On ch=3 n=76 v=78
4442 Off ch=3 n=86 v=73
4498 Off ch=3 n=76 v=78
4500 On ch=3 n=86 v=73
4500 On ch=3 n=81 v=77
4558 Off ch=3 n=86 v=73
4558 Off ch=3 n=81 v=77
4560 On ch=3 n=79 v=77
4618 Off ch=3 n=79 v=77
4620 On ch=3 n=81 v=75
4620 On ch=3 n=86 v=71
4678 Off ch=3 n=81 v=75
4678 Off ch=3 n=86 v=71
4680 On ch=3 n=79 v=75
4738 Off ch=3 n=79 v=75
4739 On ch=3 n=86 v=75
4740 On ch=3 n=81 v=77
4797 Off ch=3 n=86 v=75
4798 Off ch=3 n=81 v=77
4800 On ch=3 n=86 v=80
4800 On ch=3 n=83 v=77
4858 Off ch=3 n=86 v=80
4858 Off ch=3 n=83 v=77
4860 On ch=3 n=86 v=72
4860 On ch=3 n=83 v=79
4918 Off ch=3 n=86 v=72
4918 Off ch=3 n=83 v=79
4920 On ch=3 n=78 v=77
4978 Off ch=3 n=78 v=77
4980 On ch=3 n=86 v=77
4980 On ch=3 n=81 v=75
5038 Off ch=3 n=86 v=77
5038 Off ch=3 n=81 v=75
5040 On ch=3 n=79 v=75
5098 Off ch=3 n=79 v=75
5100 On ch=3 n=86 v=76
5100 On ch=3 n=81 v=77
5158 Off ch=3 n=86 v=76
5158 Off ch=3 n=81 v=77
5160 On ch=3 n=79 v=75
5218 Off ch=3 n=79 v=75
5220 On ch=3 n=86 v=73
5220 On ch=3 n=81 v=79
5278 Off ch=3 n=86 v=73
5278 Off ch=3 n=81 v=79
5280 On ch=3 n=86 v=76
5280 On ch=3 n=83 v=77
5338 Off ch=3 n=86 v=76
5338 Off ch=3 n=83 v=77
5340 On ch=3 n=78 v=73
5398 Off ch=3 n=78 v=73
5400 On ch=3 n=86 v=74
5400 On ch=3 n=81 v=78
5458 Off ch=3 n=86 v=74
5458 Off ch=3 n=81 v=78
5460 On ch=3 n=78 v=78
5518 Off ch=3 n=78 v=78
5519 On ch=3 n=86 v=73
5520 On ch=3 n=79 v=77
5578 Off ch=3 n=79 v=77
5580 On ch=3 n=81 v=74
5638 Off ch=3 n=81 v=74
5640 On ch=3 n=76 v=78
5642 Off ch=3 n=86 v=73
5698 Off ch=3 n=76 v=78
5700 On ch=3 n=81 v=77
5700 On ch=3 n=86 v=73
5758 Off ch=3 n=81 v=77
5758 Off ch=3 n=86 v=73
5760 On ch=3 n=79 v=77
5818 Off ch=3 n=79 v=77
5820 On ch=3 n=86 v=71
5820 On ch=3 n=81 v=75
5878 Off ch=3 n=86 v=71
5878 Off ch=3 n=81 v=75
5880 On ch=3 n=79 v=75
5938 Off ch=3 n=79 v=75
5939 On ch=3 n=86 v=75
5940 On ch=3 n=81 v=77
5997 Off ch=3 n=86 v=75
5998 Off ch=3 n=81 v=77
6000 On ch=3 n=83 v=77
6000 On ch=3 n=86 v=80
6058 Off ch=3 n=83 v=77
6058 Off ch=3 n=86 v=80
6060 On ch=3 n=83 v=79
6060 On ch=3 n=86 v=72
6118 Off ch=3 n=83 v=79
6118 Off ch=3 n=86 v=72
6120 On ch=3 n=78 v=77
6178 Off ch=3 n=78 v=77
6180 On ch=3 n=81 v=75
6180 On ch=3 n=86 v=77
6238 Off ch=3 n=81 v=75
6238 Off ch=3 n=86 v=77
6240 On ch=3 n=79 v=75
6298 Off ch=3 n=79 v=75
6300 On ch=3 n=81 v=77
6300 On ch=3 n=86 v=76
6358 Off ch=3 n=81 v=77
6358 Off ch=3 n=86 v=76
6360 On ch=3 n=79 v=75
6418 Off ch=3 n=79 v=75
6420 On ch=3 n=81 v=79
6420 On ch=3 n=86 v=73
6478 Off ch=3 n=81 v=79
6478 Off ch=3 n=86 v=73
6480 On ch=3 n=83 v=77
6480 On ch=3 n=86 v=76
6538 Off ch=3 n=83 v=77
6538 Off ch=3 n=86 v=76
6540 On ch=3 n=78 v=73
6598 Off ch=3 n=78 v=73
6600 On ch=3 n=81 v=78
6600 On ch=3 n=86 v=74
6658 Off ch=3 n=81 v=78
6658 Off ch=3 n=86 v=74
6660 On ch=3 n=78 v=78
6718 Off ch=3 n=78 v=78
6719 On ch=3 n=86 v=73
6720 On ch=3 n=79 v=77
6778 Off ch=3 n=79 v=77
6780 On ch=3 n=81 v=74
6838 Off ch=3 n=81 v=74
6840 On ch=3 n=76 v=78
6842 Off ch=3 n=86 v=73
6898 Off ch=3 n=76 v=78
6900 On ch=3 n=86 v=73
6900 On ch=3 n=81 v=77
6958 Off ch=3 n=86 v=73
6958 Off ch=3 n=81 v=77
6960 On ch=3 n=79 v=77
7018 Off ch=3 n=79 v=77
7020 On ch=3 n=81 v=75
7020 On ch=3 n=86 v=71
7078 Off ch=3 n=81 v=75
7078 Off ch=3 n=86 v=71
7080 On ch=3 n=79 v=75
7138 Off ch=3 n=79 v=75
7139 On ch=3 n=86 v=75
7140 On ch=3 n=81 v=77
7197 Off ch=3 n=86 v=75
7198 Off ch=3 n=81 v=77
7200 On ch=3 n=86 v=80
7200 On ch=3 n=83 v=77
7258 Off ch=3 n=86 v=80
7258 Off ch=3 n=83 v=77
7260 On ch=3 n=86 v=72
7260 On ch=3 n=83 v=79
7318 Off ch=3 n=86 v=72
7318 Off ch=3 n=83 v=79
7320 On ch=3 n=78 v=77
7378 Off ch=3 n=78 v=77
7380 On ch=3 n=86 v=77
7380 On ch=3 n=81 v=75
7438 Off ch=3 n=86 v=77
7438 Off ch=3 n=81 v=75
7440 On ch=3 n=79 v=75
7498 Off ch=3 n=79 v=75
7500 On ch=3 n=86 v=76
7500 On ch=3 n=81 v=77
7558 Off ch=3 n=86 v=76
7558 Off ch=3 n=81 v=77
7560 On ch=3 n=79 v=75
7618 Off ch=3 n=79 v=75
7620 On ch=3 n=86 v=73
7620 On ch=3 n=81 v=79
7678 Off ch=3 n=86 v=73
7678 Off ch=3 n=81 v=79
7680 On ch=3 n=86 v=76
7680 On ch=3 n=83 v=77
7738 Off ch=3 n=86 v=76
7738 Off ch=3 n=83 v=77
7740 On ch=3 n=78 v=73
7798 Off ch=3 n=78 v=73
7800 On ch=3 n=86 v=74
7800 On ch=3 n=81 v=78
7858 Off ch=3 n=86 v=74
7858 Off ch=3 n=81 v=78
7860 On ch=3 n=78 v=78
7918 Off ch=3 n=78 v=78
7919 On ch=3 n=86 v=73
7920 On ch=3 n=79 v=77
7978 Off ch=3 n=79 v=77
7980 On ch=3 n=81 v=74
8038 Off ch=3 n=81 v=74
8040 On ch=3 n=76 v=78
8042 Off ch=3 n=86 v=73
8098 Off ch=3 n=76 v=78
8100 On ch=3 n=81 v=77
8100 On ch=3 n=86 v=73
8158 Off ch=3 n=81 v=77
8158 Off ch=3 n=86 v=73
8160 On ch=3 n=79 v=77
8218 Off ch=3 n=79 v=77
8220 On ch=3 n=86 v=71
8220 On ch=3 n=81 v=75
8278 Off ch=3 n=86 v=71
8278 Off ch=3 n=81 v=75
8280 On ch=3 n=79 v=75
8338 Off ch=3 n=79 v=75
8339 On ch=3 n=86 v=75
8340 On ch=3 n=81 v=77
8397 Off ch=3 n=86 v=75
8398 Off ch=3 n=81 v=77
8400 On ch=3 n=83 v=77
8400 On ch=3 n=86 v=80
8458 Off ch=3 n=83 v=77
8458 Off ch=3 n=86 v=80
8460 On ch=3 n=83 v=79
8460 On ch=3 n=86 v=72
8518 Off ch=3 n=83 v=79
8518 Off ch=3 n=86 v=72
8520 On ch=3 n=78 v=77
8578 Off ch=3 n=78 v=77
8580 On ch=3 n=81 v=75
8580 On ch=3 n=86 v=77
8638 Off ch=3 n=81 v=75
8638 Off ch=3 n=86 v=77
8640 On ch=3 n=79 v=75
8698 Off ch=3 n=79 v=75
8700 On ch=3 n=81 v=77
8700 On ch=3 n=86 v=76
8758 Off ch=3 n=81 v=77
8758 Off ch=3 n=86 v=76
8760 On ch=3 n=79 v=75
8818 Off ch=3 n=79 v=75
8820 On ch=3 n=81 v=79
8820 On ch=3 n=86 v=73
8878 Off ch=3 n=81 v=79
8878 Off ch=3 n=86 v=73
8880 On ch=3 n=83 v=77
8880 On ch=3 n=86 v=76
8938 Off ch=3 n=83 v=77
8938 Off ch=3 n=86 v=76
8940 On ch=3 n=78 v=73
8998 Off ch=3 n=78 v=73
9000 On ch=3 n=81 v=78
9000 On ch=3 n=86 v=74
9058 Off ch=3 n=81 v=78
9058 Off ch=3 n=86 v=74
9060 On ch=3 n=78 v=78
9118 Off ch=3 n=78 v=78
9119 On ch=3 n=86 v=73
9120 On ch=3 n=79 v=77
9178 Off ch=3 n=79 v=77
9180 On ch=3 n=81 v=74
9238 Off ch=3 n=81 v=74
9240 On ch=3 n=76 v=78
9242 Off ch=3 n=86 v=73
9298 Off ch=3 n=76 v=78
9300 On ch=3 n=86 v=73
9300 On ch=3 n=81 v=77
9358 Off ch=3 n=86 v=73
9358 Off ch=3 n=81 v=77
9360 On ch=3 n=79 v=77
9418 Off ch=3 n=79 v=77
9420 On ch=3 n=81 v=75
9420 On ch=3 n=86 v=71
9478 Off ch=3 n=81 v=75
9478 Off ch=3 n=86 v=71
9480 On ch=3 n=79 v=75
9538 Off ch=3 n=79 v=75
9539 On ch=3 n=86 v=75
9540 On ch=3 n=81 v=77
9597 Off ch=3 n=86 v=75
9598 Off ch=3 n=81 v=77
9600 On ch=3 n=86 v=80
9600 On ch=3 n=83 v=77
9658 Off ch=3 n=86 v=80
9658 Off ch=3 n=83 v=77
9660 On ch=3 n=86 v=72
9660 On ch=3 n=83 v=79
9718 Off ch=3 n=86 v=72
9718 Off ch=3 n=83 v=79
9720 On ch=3 n=78 v=77
9778 Off ch=3 n=78 v=77
9780 On ch=3 n=86 v=77
9780 On ch=3 n=81 v=75
9838 Off ch=3 n=86 v=77
9838 Off ch=3 n=81 v=75
9840 On ch=3 n=79 v=75
9898 Off ch=3 n=79 v=75
9900 On ch=3 n=86 v=76
9900 On ch=3 n=81 v=77
9958 Off ch=3 n=86 v=76
9958 Off ch=3 n=81 v=77
9960 On ch=3 n=79 v=75
10018 Off ch=3 n=79 v=75
10020 On ch=3 n=86 v=73
10020 On ch=3 n=81 v=79
10078 Off ch=3 n=86 v=73
10078 Off ch=3 n=81 v=79
10080 On ch=3 n=86 v=76
10080 On ch=3 n=83 v=77
10138 Off ch=3 n=86 v=76
10138 Off ch=3 n=83 v=77
10140 On ch=3 n=78 v=73
10198 Off ch=3 n=78 v=73
10200 On ch=3 n=86 v=74
10200 On ch=3 n=81 v=78
10258 Off ch=3 n=86 v=74
10258 Off ch=3 n=81 v=78
10260 On ch=3 n=78 v=78
10318 Off ch=3 n=78 v=78
10319 On ch=3 n=86 v=73
10320 On ch=3 n=79 v=77
10378 Off ch=3 n=79 v=77
10380 On ch=3 n=81 v=74
10438 Off ch=3 n=81 v=74
10440 On ch=3 n=76 v=78
10442 Off ch=3 n=86 v=73
10498 Off ch=3 n=76 v=78
10500 On ch=3 n=81 v=77
10500 On ch=3 n=86 v=73
10558 Off ch=3 n=81 v=77
10558 Off ch=3 n=86 v=73
10560 On ch=3 n=79 v=77
10618 Off ch=3 n=79 v=77
10620 On ch=3 n=86 v=71
10620 On ch=3 n=81 v=75
10678 Off ch=3 n=86 v=71
10678 Off ch=3 n=81 v=75
10680 On ch=3 n=79 v=75
10738 Off ch=3 n=79 v=75
10739 On ch=3 n=86 v=75
10740 On ch=3 n=81 v=77
10797 Off ch=3 n=86 v=75
10798 Off ch=3 n=81 v=77
10800 On ch=3 n=83 v=77
10800 On ch=3 n=86 v=80
10858 Off ch=3 n=83 v=77
10858 Off ch=3 n=86 v=80
10860 On ch=3 n=83 v=79
10860 On ch=3 n=86 v=72
10918 Off ch=3 n=83 v=79
10918 Off ch=3 n=86 v=72
10920 On ch=3 n=78 v=77
10978 Off ch=3 n=78 v=77
10980 On ch=3 n=81 v=75
10980 On ch=3 n=86 v=77
11038 Off ch=3 n=81 v=75
11038 Off ch=3 n=86 v=77
11040 On ch=3 n=79 v=75
11098 Off ch=3 n=79 v=75
11100 On ch=3 n=81 v=77
11100 On ch=3 n=86 v=76
11158 Off ch=3 n=81 v=77
11158 Off ch=3 n=86 v=76
11160 On ch=3 n=79 v=75
11218 Off ch=3 n=79 v=75
11220 On ch=3 n=81 v=79
11220 On ch=3 n=86 v=73
11278 Off ch=3 n=81 v=79
11278 Off ch=3 n=86 v=73
11280 On ch=3 n=83 v=77
11280 On ch=3 n=86 v=76
11338 Off ch=3 n=83 v=77
11338 Off ch=3 n=86 v=76
11340 On ch=3 n=78 v=73
11398 Off ch=3 n=78 v=73
11400 On ch=3 n=81 v=78
11400 On ch=3 n=86 v=74
11458 Off ch=3 n=81 v=78
11458 Off ch=3 n=86 v=74
11460 On ch=3 n=78 v=78
11518 Off ch=3 n=78 v=78
11519 On ch=3 n=86 v=73
11520 On ch=3 n=79 v=77
11578 Off ch=3 n=79 v=77
11580 On ch=3 n=81 v=74
11638 Off ch=3 n=81 v=74
11640 On ch=3 n=76 v=78
11642 Off ch=3 n=86 v=73
11698 Off ch=3 n=76 v=78
11700 On ch=3 n=86 v=73
11700 On ch=3 n=81 v=77
11758 Off ch=3 n=86 v=73
11758 Off ch=3 n=81 v=77
11760 On ch=3 n=79 v=77
11818 Off ch=3 n=79 v=77
11820 On ch=3 n=81 v=75
11820 On ch=3 n=86 v=71
11878 Off ch=3 n=81 v=75
11878 Off ch=3 n=86 v=71
11880 On ch=3 n=79 v=75
11938 Off ch=3 n=79 v=75
11939 On ch=3 n=86 v=75
11940 On ch=3 n=81 v=77
11997 Off ch=3 n=86 v=75
11998 Off ch=3 n=81 v=77
12000 On ch=3 n=86 v=80
12000 On ch=3 n=83 v=77
12058 Off ch=3 n=86 v=80
12058 Off ch=3 n=83 v=77
12060 On ch=3 n=86 v=72
12060 On ch=3 n=83 v=79
12118 Off ch=3 n=86 v=72
12118 Off ch=3 n=83 v=79
12120 On ch=3 n=78 v=77
12178 Off ch=3 n=78 v=77
12180 On ch=3 n=86 v=77
12180 On ch=3 n=81 v=75
12238 Off ch=3 n=86 v=77
12238 Off ch=3 n=81 v=75
12240 On ch=3 n=79 v=75
12298 Off ch=3 n=79 v=75
12300 On ch=3 n=86 v=76
12300 On ch=3 n=81 v=77
12358 Off ch=3 n=86 v=76
12358 Off ch=3 n=81 v=77
12360 On ch=3 n=79 v=75
12418 Off ch=3 n=79 v=75
12420 On ch=3 n=86 v=73
12420 On ch=3 n=81 v=79
12478 Off ch=3 n=86 v=73
12478 Off ch=3 n=81 v=79
12480 On ch=3 n=86 v=76
12480 On ch=3 n=83 v=77
12538 Off ch=3 n=86 v=76
12538 Off ch=3 n=83 v=77
12540 On ch=3 n=78 v=73
12598 Off ch=3 n=78 v=73
12600 On ch=3 n=86 v=74
12600 On ch=3 n=81 v=78
12658 Off ch=3 n=86 v=74
12658 Off ch=3 n=81 v=78
12660 On ch=3 n=78 v=78
12718 Off ch=3 n=78 v=78
12719 On ch=3 n=86 v=73
12720 On ch=3 n=79 v=77
12778 Off ch=3 n=79 v=77
12780 On ch=3 n=81 v=74
12838 Off ch=3 n=81 v=74
12840 On ch=3 n=76 v=78
12842 Off ch=3 n=86 v=73
12898 Off ch=3 n=76 v=78
12900 On ch=3 n=81 v=77
12900 On ch=3 n=86 v=73
12958 Off ch=3 n=81 v=77
12958 Off ch=3 n=86 v=73
12960 On ch=3 n=79 v=77
13018 Off ch=3 n=79 v=77
13020 On ch=3 n=86 v=71
13020 On ch=3 n=81 v=75
13078 Off ch=3 n=86 v=71
13078 Off ch=3 n=81 v=75
13080 On ch=3 n=79 v=75
13138 Off ch=3 n=79 v=75
13139 On ch=3 n=86 v=75
13140 On ch=3 n=81 v=77
13197 Off ch=3 n=86 v=75
13198 Off ch=3 n=81 v=77
13200 On ch=3 n=83 v=77
13200 On ch=3 n=86 v=80
13258 Off ch=3 n=83 v=77
13258 Off ch=3 n=86 v=80
13260 On ch=3 n=83 v=79
13260 On ch=3 n=86 v=72
13318 Off ch=3 n=83 v=79
13318 Off ch=3 n=86 v=72
13320 On ch=3 n=78 v=77
13378 Off ch=3 n=78 v=77
13380 On ch=3 n=81 v=75
13380 On ch=3 n=86 v=77
13438 Off ch=3 n=81 v=75
13438 Off ch=3 n=86 v=77
13440 On ch=3 n=79 v=75
13498 Off ch=3 n=79 v=75
13500 On ch=3 n=81 v=77
13500 On ch=3 n=86 v=76
13558 Off ch=3 n=81 v=77
13558 Off ch=3 n=86 v=76
13560 On ch=3 n=79 v=75
13618 Off ch=3 n=79 v=75
13620 On ch=3 n=81 v=79
13620 On ch=3 n=86 v=73
13678 Off ch=3 n=81 v=79
13678 Off ch=3 n=86 v=73
13680 On ch=3 n=83 v=77
13680 On ch=3 n=86 v=76
13738 Off ch=3 n=83 v=77
13738 Off ch=3 n=86 v=76
13740 On ch=3 n=78 v=73
13798 Off ch=3 n=78 v=73
13800 On ch=3 n=81 v=78
13800 On ch=3 n=86 v=74
13858 Off ch=3 n=81 v=78
13858 Off ch=3 n=86 v=74
13860 On ch=3 n=78 v=78
13918 Off ch=3 n=78 v=78
13919 On ch=3 n=86 v=73
13920 On ch=3 n=79 v=77
13978 Off ch=3 n=79 v=77
13980 On ch=3 n=81 v=74
14038 Off ch=3 n=81 v=74
14040 On ch=3 n=76 v=78
14042 Off ch=3 n=86 v=73
14098 Off ch=3 n=76 v=78
14100 On ch=3 n=86 v=73
14100 On ch=3 n=81 v=77
14158 Off ch=3 n=86 v=73
14158 Off ch=3 n=81 v=77
14160 On ch=3 n=79 v=77
14218 Off ch=3 n=79 v=77
14220 On ch=3 n=81 v=75
14220 On ch=3 n=86 v=71
14278 Off ch=3 n=81 v=75
14278 Off ch=3 n=86 v=71
14280 On ch=3 n=79 v=75
14338 Off ch=3 n=79 v=75
14339 On ch=3 n=86 v=75
14340 On ch=3 n=81 v=77
14397 Off ch=3 n=86 v=75
14398 Off ch=3 n=81 v=77
14400 On ch=3 n=86 v=80
14400 On ch=3 n=83 v=77
14458 Off ch=3 n=86 v=80
14458 Off ch=3 n=83 v=77
14460 On ch=3 n=86 v=72
14460 On ch=3 n=83 v=79
14518 Off ch=3 n=86 v=72
14518 Off ch=3 n=83 v=79
14520 On ch=3 n=78 v=77
14578 Off ch=3 n=78 v=77
14580 On ch=3 n=86 v=77
14580 On ch=3 n=81 v=75
14638 Off ch=3 n=86 v=77
14638 Off ch=3 n=81 v=75
14640 On ch=3 n=79 v=75
14698 Off ch=3 n=79 v=75
14700 On ch=3 n=86 v=76
14700 On ch=3 n=81 v=77
14758 Off ch=3 n=86 v=76
14758 Off ch=3 n=81 v=77
14760 On ch=3 n=79 v=75
14818 Off ch=3 n=79 v=75
14820 On ch=3 n=86 v=73
14820 On ch=3 n=81 v=79
14878 Off ch=3 n=86 v=73
14878 Off ch=3 n=81 v=79
14880 On ch=3 n=86 v=76
14880 On ch=3 n=83 v=77
14938 Off ch=3 n=86 v=76
14938 Off ch=3 n=83 v=77
14940 On ch=3 n=78 v=73
14998 Off ch=3 n=78 v=73
15000 On ch=3 n=86 v=74
15000 On ch=3 n=81 v=78
15058 Off ch=3 n=86 v=74
15058 Off ch=3 n=81 v=78
15060 On ch=3 n=78 v=78
15118 Off ch=3 n=78 v=78
15119 On ch=3 n=86 v=73
15120 On ch=3 n=79 v=77
15178 Off ch=3 n=79 v=77
15180 On ch=3 n=81 v=74
15238 Off ch=3 n=81 v=74
15240 On ch=3 n=76 v=78
15242 Off ch=3 n=86 v=73
15298 Off ch=3 n=76 v=78
15300 On ch=3 n=81 v=77
15300 On ch=3 n=86 v=73
15358 Off ch=3 n=81 v=77
15358 Off ch=3 n=86 v=73
15360 On ch=3 n=79 v=77
15418 Off ch=3 n=79 v=77
15420 On ch=3 n=86 v=71
15420 On ch=3 n=81 v=75
15478 Off ch=3 n=86 v=71
15478 Off ch=3 n=81 v=75
15480 On ch=3 n=79 v=75
15538 Off ch=3 n=79 v=75
15539 On ch=3 n=86 v=75
15540 On ch=3 n=81 v=77
15597 Off ch=3 n=86 v=75
15598 Off ch=3 n=81 v=77
15600 On ch=3 n=83 v=77
15600 On ch=3 n=86 v=80
15658 Off ch=3 n=83 v=77
15658 Off ch=3 n=86 v=80
15660 On ch=3 n=83 v=79
15660 On ch=3 n=86 v=72
15718 Off ch=3 n=83 v=79
15718 Off ch=3 n=86 v=72
15720 On ch=3 n=78 v=77
15778 Off ch=3 n=78 v=77
15780 On ch=3 n=81 v=75
15780 On ch=3 n=86 v=77
15838 Off ch=3 n=81 v=75
15838 Off ch=3 n=86 v=77
15840 On ch=3 n=79 v=75
15898 Off ch=3 n=79 v=75
15900 On ch=3 n=81 v=77
15900 On ch=3 n=86 v=76
15958 Off ch=3 n=81 v=77
15958 Off ch=3 n=86 v=76
15960 On ch=3 n=79 v=75
16018 Off ch=3 n=79 v=75
16020 On ch=3 n=81 v=79
16020 On ch=3 n=86 v=73
16078 Off ch=3 n=81 v=79
16078 Off ch=3 n=86 v=73
16080 On ch=3 n=83 v=77
16080 On ch=3 n=86 v=76
16138 Off ch=3 n=83 v=77
16138 Off ch=3 n=86 v=76
16140 On ch=3 n=78 v=73
16198 Off ch=3 n=78 v=73
16200 On ch=3 n=81 v=78
16200 On ch=3 n=86 v=74
16258 Off ch=3 n=81 v=78
16258 Off ch=3 n=86 v=74
16260 On ch=3 n=78 v=78
16318 Off ch=3 n=78 v=78
16319 On ch=3 n=86 v=73
16320 On ch=3 n=79 v=77
16378 Off ch=3 n=79 v=77
16380 On ch=3 n=81 v=74
16438 Off ch=3 n=81 v=74
16440 On ch=3 n=76 v=78
16442 Off ch=3 n=86 v=73
16498 Off ch=3 n=76 v=78
16500 On ch=3 n=86 v=73
16500 On ch=3 n=81 v=77
16558 Off ch=3 n=86 v=73
16558 Off ch=3 n=81 v=77
16560 On ch=3 n=79 v=77
16618 Off ch=3 n=79 v=77
16620 On ch=3 n=81 v=75
16620 On ch=3 n=86 v=71
16678 Off ch=3 n=81 v=75
16678 Off ch=3 n=86 v=71
16680 On ch=3 n=79 v=75
16738 Off ch=3 n=79 v=75
16739 On ch=3 n=86 v=75
16740 On ch=3 n=81 v=77
16797 Off ch=3 n=86 v=75
16798 Off ch=3 n=81 v=77
16800 On ch=3 n=86 v=80
16800 On ch=3 n=83 v=77
16858 Off ch=3 n=86 v=80
16858 Off ch=3 n=83 v=77
16860 On ch=3 n=86 v=72
16860 On ch=3 n=83 v=79
16918 Off ch=3 n=86 v=72
16918 Off ch=3 n=83 v=79
16920 On ch=3 n=78 v=77
16978 Off ch=3 n=78 v=77
16980 On ch=3 n=86 v=77
16980 On ch=3 n=81 v=75
17038 Off ch=3 n=86 v=77
17038 Off ch=3 n=81 v=75
17040 On ch=3 n=79 v=75
17098 Off ch=3 n=79 v=75
17100 On ch=3 n=86 v=76
17100 On ch=3 n=81 v=77
17158 Off ch=3 n=86 v=76
17158 Off ch=3 n=81 v=77
17160 On ch=3 n=79 v=75
17218 Off ch=3 n=79 v=75
17220 On ch=3 n=86 v=73
17220 On ch=3 n=81 v=79
17278 Off ch=3 n=86 v=73
17278 Off ch=3 n=81 v=79
17280 On ch=3 n=86 v=76
17280 On ch=3 n=83 v=77
17338 Off ch=3 n=86 v=76
17338 Off ch=3 n=83 v=77
17340 On ch=3 n=78 v=73
17398 Off ch=3 n=78 v=73
17400 On ch=3 n=86 v=74
17400 On ch=3 n=81 v=78
17458 Off ch=3 n=86 v=74
17458 Off ch=3 n=81 v=78
17460 On ch=3 n=78 v=78
17518 Off ch=3 n=78 v=78
17519 On ch=3 n=86 v=73
17520 On ch=3 n=79 v=77
17578 Off ch=3 n=79 v=77
17580 On ch=3 n=81 v=74
17638 Off ch=3 n=81 v=74
17640 On ch=3 n=76 v=78
17642 Off ch=3 n=86 v=73
17698 Off ch=3 n=76 v=78
17700 On ch=3 n=81 v=77
17700 On ch=3 n=86 v=73
17758 Off ch=3 n=81 v=77
17758 Off ch=3 n=86 v=73
17760 On ch=3 n=79 v=77
17818 Off ch=3 n=79 v=77
17820 On ch=3 n=86 v=71
17820 On ch=3 n=81 v=75
17878 Off ch=3 n=86 v=71
17878 Off ch=3 n=81 v=75
17880 On ch=3 n=79 v=75
17938 Off ch=3 n=79 v=75
17939 On ch=3 n=86 v=75
17940 On ch=3 n=81 v=77
17997 Off ch=3 n=86 v=75
17998 Off ch=3 n=81 v=77
18000 On ch=3 n=83 v=77
18000 On ch=3 n=86 v=80
18058 Off ch=3 n=83 v=77
18058 Off ch=3 n=86 v=80
18060 On ch=3 n=83 v=79
18060 On ch=3 n=86 v=72
18118 Off ch=3 n=83 v=79
18118 Off ch=3 n=86 v=72
18120 On ch=3 n=78 v=77
18178 Off ch=3 n=78 v=77
18180 On ch=3 n=81 v=75
18180 On ch=3 n=86 v=77
18238 Off ch=3 n=81 v=75
18238 Off ch=3 n=86 v=77
18240 On ch=3 n=79 v=75
18298 Off ch=3 n=79 v=75
18300 On ch=3 n=81 v=77
18300 On ch=3 n=86 v=76
18358 Off ch=3 n=81 v=77
18358 Off ch=3 n=86 v=76
18360 On ch=3 n=79 v=75
18418 Off ch=3 n=79 v=75
18420 On ch=3 n=81 v=79
18420 On ch=3 n=86 v=73
18478 Off ch=3 n=81 v=79
18478 Off ch=3 n=86 v=73
18480 On ch=3 n=83 v=77
18480 On ch=3 n=86 v=76
18538 Off ch=3 n=83 v=77
18538 Off ch=3 n=86 v=76
18540 On ch=3 n=78 v=73
18598 Off ch=3 n=78 v=73
18600 On ch=3 n=81 v=78
18600 On ch=3 n=86 v=74
18658 Off ch=3 n=81 v=78
18658 Off ch=3 n=86 v=74
18660 On ch=3 n=78 v=78
18718 Off ch=3 n=78 v=78
18719 On ch=3 n=86 v=73
18720 On ch=3 n=79 v=77
18778 Off ch=3 n=79 v=77
18780 On ch=3 n=81 v=74
18838 Off ch=3 n=81 v=74
18840 On ch=3 n=76 v=78
18842 Off ch=3 n=86 v=73
18898 Off ch=3 n=76 v=78
18900 On ch=3 n=86 v=73
18900 On ch=3 n=81 v=77
18958 Off ch=3 n=86 v=73
18958 Off ch=3 n=81 v=77
18960 On ch=3 n=79 v=77
19018 Off ch=3 n=79 v=77
19020 On ch=3 n=81 v=75
19020 On ch=3 n=86 v=71
19078 Off ch=3 n=81 v=75
19078 Off ch=3 n=86 v=71
19080 On ch=3 n=79 v=75
19138 Off ch=3 n=79 v=75
19139 On ch=3 n=86 v=75
19140 On ch=3 n=81 v=77
19197 Off ch=3 n=86 v=75
19198 Off ch=3 n=81 v=77
19200 On ch=3 n=86 v=80
19200 On ch=3 n=83 v=77
19258 Off ch=3 n=86 v=80
19258 Off ch=3 n=83 v=77
19260 On ch=3 n=86 v=72
19260 On ch=3 n=83 v=79
19318 Off ch=3 n=86 v=72
19318 Off ch=3 n=83 v=79
19320 On ch=3 n=78 v=77
19378 Off ch=3 n=78 v=77
19380 On ch=3 n=86 v=77
19380 On ch=3 n=81 v=75
19438 Off ch=3 n=86 v=77
19438 Off ch=3 n=81 v=75
19440 On ch=3 n=79 v=75
19498 Off ch=3 n=79 v=75
19500 On ch=3 n=86 v=76
19500 On ch=3 n=81 v=77
19558 Off ch=3 n=86 v=76
19558 Off ch=3 n=81 v=77
19560 On ch=3 n=79 v=75
19618 Off ch=3 n=79 v=75
19620 On ch=3 n=86 v=73
19620 On ch=3 n=81 v=79
19678 Off ch=3 n=86 v=73
19678 Off ch=3 n=81 v=79
19680 On ch=3 n=86 v=76
19680 On ch=3 n=83 v=77
19738 Off ch=3 n=86 v=76
19738 Off ch=3 n=83 v=77
19740 On ch=3 n=78 v=73
19798 Off ch=3 n=78 v=73
19800 On ch=3 n=86 v=74
19800 On ch=3 n=81 v=78
19858 Off ch=3 n=86 v=74
19858 Off ch=3 n=81 v=78
19860 On ch=3 n=78 v=78
19918 Off ch=3 n=78 v=78
19919 On ch=3 n=86 v=73
19920 On ch=3 n=79 v=77
19978 Off ch=3 n=79 v=77
19980 On ch=3 n=81 v=74
20038 Off ch=3 n=81 v=74
20040 On ch=3 n=76 v=78
20042 Off ch=3 n=86 v=73
20098 Off ch=3 n=76 v=78
20100 On ch=3 n=81 v=77
20100 On ch=3 n=86 v=73
20158 Off ch=3 n=81 v=77
20158 Off ch=3 n=86 v=73
20160 On ch=3 n=79 v=77
20218 Off ch=3 n=79 v=77
20220 On ch=3 n=86 v=71
20220 On ch=3 n=81 v=75
20278 Off ch=3 n=86 v=71
20278 Off ch=3 n=81 v=75
20280 On ch=3 n=79 v=75
20338 Off ch=3 n=79 v=75
20339 On ch=3 n=86 v=75
20340 On ch=3 n=81 v=77
20397 Off ch=3 n=86 v=75
20398 Off ch=3 n=81 v=77
20400 On ch=3 n=83 v=77
20400 On ch=3 n=86 v=80
20458 Off ch=3 n=83 v=77
20458 Off ch=3 n=86 v=80
20460 On ch=3 n=83 v=79
20460 On ch=3 n=86 v=72
20518 Off ch=3 n=83 v=79
20518 Off ch=3 n=86 v=72
20520 On ch=3 n=78 v=77
20578 Off ch=3 n=78 v=77
20580 On ch=3 n=81 v=75
20580 On ch=3 n=86 v=77
20638 Off ch=3 n=81 v=75
20638 Off ch=3 n=86 v=77
20640 On ch=3 n=79 v=75
20698 Off ch=3 n=79 v=75
20700 On ch=3 n=81 v=77
20700 On ch=3 n=86 v=76
20758 Off ch=3 n=81 v=77
20758 Off ch=3 n=86 v=76
20760 On ch=3 n=79 v=75
20818 Off ch=3 n=79 v=75
20820 On ch=3 n=81 v=79
20820 On ch=3 n=86 v=73
20878 Off ch=3 n=81 v=79
20878 Off ch=3 n=86 v=73
20880 On ch=3 n=83 v=77
20880 On ch=3 n=86 v=76
20938 Off ch=3 n=83 v=77
20938 Off ch=3 n=86 v=76
20940 On ch=3 n=78 v=73
20998 Off ch=3 n=78 v=73
21000 On ch=3 n=81 v=78
21000 On ch=3 n=86 v=74
21058 Off ch=3 n=81 v=78
21058 Off ch=3 n=86 v=74
21060 On ch=3 n=78 v=78
21118 Off ch=3 n=78 v=78
21119 On ch=3 n=86 v=73
21120 On ch=3 n=79 v=77
21178 Off ch=3 n=79 v=77
21180 On ch=3 n=81 v=74
21238 Off ch=3 n=81 v=74
21240 On ch=3 n=76 v=78
21242 Off ch=3 n=86 v=73
21298 Off ch=3 n=76 v=78
21300 On ch=3 n=86 v=73
21300 On ch=3 n=81 v=77
21358 Off ch=3 n=86 v=73
21358 Off ch=3 n=81 v=77
21360 On ch=3 n=79 v=77
21418 Off ch=3 n=79 v=77
21420 On ch=3 n=81 v=75
21420 On ch=3 n=86 v=71
21478 Off ch=3 n=81 v=75
21478 Off ch=3 n=86 v=71
21480 On ch=3 n=79 v=75
21538 Off ch=3 n=79 v=75
21539 On ch=3 n=86 v=75
21540 On ch=3 n=81 v=77
21597 Off ch=3 n=86 v=75
21598 Off ch=3 n=81 v=77
21600 On ch=3 n=86 v=80
21600 On ch=3 n=83 v=77
21658 Off ch=3 n=86 v=80
21658 Off ch=3 n=83 v=77
21660 On ch=3 n=86 v=72
21660 On ch=3 n=83 v=79
21718 Off ch=3 n=86 v=72
21718 Off ch=3 n=83 v=79
21720 On ch=3 n=78 v=77
21778 Off ch=3 n=78 v=77
21780 On ch=3 n=86 v=77
21780 On ch=3 n=81 v=75
21838 Off ch=3 n=86 v=77
21838 Off ch=3 n=81 v=75
21840 On ch=3 n=79 v=75
21898 Off ch=3 n=79 v=75
21900 On ch=3 n=86 v=76
21900 On ch=3 n=81 v=77
21958 Off ch=3 n=86 v=76
21958 Off ch=3 n=81 v=77
21960 On ch=3 n=79 v=75
22018 Off ch=3 n=79 v=75
22020 On ch=3 n=86 v=73
22020 On ch=3 n=81 v=79
22078 Off ch=3 n=86 v=73
22078 Off ch=3 n=81 v=79
22080 On ch=3 n=86 v=76
22080 On ch=3 n=83 v=77
22138 Off ch=3 n=86 v=76
22138 Off ch=3 n=83 v=77
22140 On ch=3 n=78 v=73
22198 Off ch=3 n=78 v=73
22200 On ch=3 n=86 v=74
22200 On ch=3 n=81 v=78
22258 Off ch=3 n=86 v=74
22258 Off ch=3 n=81 v=78
22260 On ch=3 n=78 v=78
22318 Off ch=3 n=78 v=78
22319 On ch=3 n=86 v=73
22320 On ch=3 n=79 v=77
22378 Off ch=3 n=79 v=77
22380 On ch=3 n=81 v=74
22438 Off ch=3 n=81 v=74
22440 On ch=3 n=76 v=78
22442 Off ch=3 n=86 v=73
22498 Off ch=3 n=76 v=78
22500 On ch=3 n=81 v=77
22500 On ch=3 n=86 v=73
22558 Off ch=3 n=81 v=77
22558 Off ch=3 n=86 v=73
22560 On ch=3 n=79 v=77
22618 Off ch=3 n=79 v=77
22620 On ch=3 n=86 v=71
22620 On ch=3 n=81 v=75
22678 Off ch=3 n=86 v=71
22678 Off ch=3 n=81 v=75
22680 On ch=3 n=79 v=75
22738 Off ch=3 n=79 v=75
22739 On ch=3 n=86 v=75
22740 On ch=3 n=81 v=77
22797 Off ch=3 n=86 v=75
22798 Off ch=3 n=81 v=77
22800 On ch=3 n=83 v=77
22800 On ch=3 n=86 v=80
22858 Off ch=3 n=83 v=77
22858 Off ch=3 n=86 v=80
22860 On ch=3 n=83 v=79
22860 On ch=3 n=86 v=72
22918 Off ch=3 n=83 v=79
22918 Off ch=3 n=86 v=72
22920 On ch=3 n=78 v=77
22978 Off ch=3 n=78 v=77
22980 On ch=3 n=81 v=75
22980 On ch=3 n=86 v=77
23038 Off ch=3 n=81 v=75
23038 Off ch=3 n=86 v=77
23040 On ch=3 n=79 v=75
23098 Off ch=3 n=79 v=75
23100 On ch=3 n=81 v=77
23100 On ch=3 n=86 v=76
23158 Off ch=3 n=81 v=77
23158 Off ch=3 n=86 v=76
23160 On ch=3 n=79 v=75
23218 Off ch=3 n=79 v=75
23220 On ch=3 n=81 v=79
23220 On ch=3 n=86 v=73
23278 Off ch=3 n=81 v=79
23278 Off ch=3 n=86 v=73
23280 On ch=3 n=83 v=77
23280 On ch=3 n=86 v=76
23338 Off ch=3 n=83 v=77
23338 Off ch=3 n=86 v=76
23340 On ch=3 n=78 v=73
23398 Off ch=3 n=78 v=73
23400 On ch=3 n=81 v=78
23400 On ch=3 n=86 v=74
23458 Off ch=3 n=81 v=78
23458 Off ch=3 n=86 v=74
23460 On ch=3 n=78 v=78
23518 Off ch=3 n=78 v=78
23519 On ch=3 n=86 v=73
23520 On ch=3 n=79 v=77
23578 Off ch=3 n=79 v=77
23580 On ch=3 n=81 v=74
23638 Off ch=3 n=81 v=74
23640 On ch=3 n=76 v=78
23642 Off ch=3 n=86 v=73
23698 Off ch=3 n=76 v=78
23700 On ch=3 n=86 v=73
23700 On ch=3 n=81 v=77
23758 Off ch=3 n=86 v=73
23758 Off ch=3 n=81 v=77
23760 On ch=3 n=79 v=77
23818 Off ch=3 n=79 v=77
23820 On ch=3 n=81 v=75
23820 On ch=3 n=86 v=71
23878 Off ch=3 n=81 v=75
23878 Off ch=3 n=86 v=71
23880 On ch=3 n=79 v=75
23938 Off ch=3 n=79 v=75
23939 On ch=3 n=86 v=75
23940 On ch=3 n=81 v=77
23997 Off ch=3 n=86 v=75
23998 Off ch=3 n=81 v=77
24000 On ch=3 n=86 v=80
24000 On ch=3 n=83 v=77
24058 Off ch=3 n=86 v=80
24058 Off ch=3 n=83 v=77
24060 On ch=3 n=86 v=72
24060 On ch=3 n=83 v=79
24118 Off ch=3 n=86 v=72
24118 Off ch=3 n=83 v=79
24120 On ch=3 n=78 v=77
24178 Off ch=3 n=78 v=77
24180 On ch=3 n=86 v=77
24180 On ch=3 n=81 v=75
24238 Off ch=3 n=86 v=77
24238 Off ch=3 n=81 v=75
24240 On ch=3 n=79 v=75
24298 Off ch=3 n=79 v=75
24300 On ch=3 n=86 v=76
24300 On ch=3 n=81 v=77
24358 Off ch=3 n=86 v=76
24358 Off ch=3 n=81 v=77
24360 On ch=3 n=79 v=75
24418 Off ch=3 n=79 v=75
24420 On ch=3 n=86 v=73
24420 On ch=3 n=81 v=79
24478 Off ch=3 n=86 v=73
24478 Off ch=3 n=81 v=79
24480 On ch=3 n=86 v=76
24480 On ch=3 n=83 v=77
24538 Off ch=3 n=86 v=76
24538 Off ch=3 n=83 v=77
24540 On ch=3 n=78 v=73
24598 Off ch=3 n=78 v=73
24600 On ch=3 n=86 v=74
24600 On ch=3 n=81 v=78
24658 Off ch=3 n=86 v=74
24658 Off ch=3 n=81 v=78
24660 On ch=3 n=78 v=78
24718 Off ch=3 n=78 v=78
24719 On ch=3 n=86 v=73
24720 On ch=3 n=79 v=77
24778 Off ch=3 n=79 v=77
24780 On ch=3 n=81 v=74
24838 Off ch=3 n=81 v=74
24840 On ch=3 n=76 v=78
24842 Off ch=3 n=86 v=73
24898 Off ch=3 n=76 v=78
24900 On ch=3 n=81 v=77
24900 On ch=3 n=86 v=73
24958 Off ch=3 n=81 v=77
24958 Off ch=3 n=86 v=73
24960 On ch=3 n=79 v=77
25018 Off ch=3 n=79 v=77
25020 On ch=3 n=86 v=71
25020 On ch=3 n=81 v=75
25078 Off ch=3 n=86 v=71
25078 Off ch=3 n=81 v=75
25080 On ch=3 n=79 v=75
25138 Off ch=3 n=79 v=75
25139 On ch=3 n=86 v=75
25140 On ch=3 n=81 v=77
25197 Off ch=3 n=86 v=75
25198 Off ch=3 n=81 v=77
25200 On ch=3 n=83 v=77
25200 On ch=3 n=86 v=80
25258 Off ch=3 n=83 v=77
25258 Off ch=3 n=86 v=80
25260 On ch=3 n=83 v=79
25260 On ch=3 n=86 v=72
25318 Off ch=3 n=83 v=79
25318 Off ch=3 n=86 v=72
25320 On ch=3 n=78 v=77
25378 Off ch=3 n=78 v=77
25380 On ch=3 n=81 v=75
25380 On ch=3 n=86 v=77
25438 Off ch=3 n=81 v=75
25438 Off ch=3 n=86 v=77
25440 On ch=3 n=79 v=75
25498 Off ch=3 n=79 v=75
25500 On ch=3 n=81 v=77
25500 On ch=3 n=86 v=76
25558 Off ch=3 n=81 v=77
25558 Off ch=3 n=86 v=76
25560 On ch=3 n=79 v=75
25618 Off ch=3 n=79 v=75
25620 On ch=3 n=81 v=79
25620 On ch=3 n=86 v=73
25678 Off ch=3 n=81 v=79
25678 Off ch=3 n=86 v=73
25680 On ch=3 n=83 v=77
25680 On ch=3 n=86 v=76
25738 Off ch=3 n=83 v=77
25738 Off ch=3 n=86 v=76
25740 On ch=3 n=78 v=73
25798 Off ch=3 n=78 v=73
25800 On ch=3 n=81 v=78
25800 On ch=3 n=86 v=74
25858 Off ch=3 n=81 v=78
25858 Off ch=3 n=86 v=74
25860 On ch=3 n=78 v=78
25918 Off ch=3 n=78 v=78
25919 On ch=3 n=86 v=73
25920 On ch=3 n=79 v=77
25978 Off ch=3 n=79 v=77
25980 On ch=3 n=81 v=74
26038 Off ch=3 n=81 v=74
26040 On ch=3 n=76 v=78
26042 Off ch=3 n=86 v=73
26098 Off ch=3 n=76 v=78
26100 On ch=3 n=86 v=73
26100 On ch=3 n=81 v=77
26158 Off ch=3 n=86 v=73
26158 Off ch=3 n=81 v=77
26160 On ch=3 n=79 v=77
26218 Off ch=3 n=79 v=77
26220 On ch=3 n=81 v=75
26220 On ch=3 n=86 v=71
26278 Off ch=3 n=81 v=75
26278 Off ch=3 n=86 v=71
26280 On ch=3 n=79 v=75
26338 Off ch=3 n=79 v=75
26339 On ch=3 n=86 v=75
26340 On ch=3 n=81 v=77
26397 Off ch=3 n=86 v=75
26398 Off ch=3 n=81 v=77
26400 On ch=3 n=86 v=80
26400 On ch=3 n=83 v=77
26458 Off ch=3 n=86 v=80
26458 Off ch=3 n=83 v=77
26460 On ch=3 n=86 v=72
26460 On ch=3 n=83 v=79
26518 Off ch=3 n=86 v=72
26518 Off ch=3 n=83 v=79
26520 On ch=3 n=78 v=77
26578 Off ch=3 n=78 v=77
26580 On ch=3 n=86 v=77
26580 On ch=3 n=81 v=75
26638 Off ch=3 n=86 v=77
26638 Off ch=3 n=81 v=75
26640 On ch=3 n=79 v=75
26698 Off ch=3 n=79 v=75
26700 On ch=3 n=86 v=76
26700 On ch=3 n=81 v=77
26758 Off ch=3 n=86 v=76
26758 Off ch=3 n=81 v=77
26760 On ch=3 n=79 v=75
26818 Off ch=3 n=79 v=75
26820 On ch=3 n=86 v=73
26820 On ch=3 n=81 v=79
26878 Off ch=3 n=86 v=73
26878 Off ch=3 n=81 v=79
26880 On ch=3 n=86 v=76
26880 On ch=3 n=83 v=77
26938 Off ch=3 n=86 v=76
26938 Off ch=3 n=83 v=77
26940 On ch=3 n=78 v=73
26998 Off ch=3 n=78 v=73
27000 On ch=3 n=86 v=74
27000 On ch=3 n=81 v=78
27058 Off ch=3 n=86 v=74
27058 Off ch=3 n=81 v=78
27060 On ch=3 n=78 v=78
27118 Off ch=3 n=78 v=78
27119 On ch=3 n=86 v=73
27120 On ch=3 n=79 v=77
27178 Off ch=3 n=79 v=77
27180 On ch=3 n=81 v=74
27238 Off ch=3 n=81 v=74
27240 On ch=3 n=76 v=78
27242 Off ch=3 n=86 v=73
27298 Off ch=3 n=76 v=78
27300 On ch=3 n=81 v=77
27300 On ch=3 n=86 v=73
27358 Off ch=3 n=81 v=77
27358 Off ch=3 n=86 v=73
27360 On ch=3 n=79 v=77
27418 Off ch=3 n=79 v=77
27420 On ch=3 n=86 v=71
27420 On ch=3 n=81 v=75
27478 Off ch=3 n=86 v=71
27478 Off ch=3 n=81 v=75
27480 On ch=3 n=79 v=75
27538 Off ch=3 n=79 v=75
27539 On ch=3 n=86 v=75
27540 On ch=3 n=81 v=77
27597 Off ch=3 n=86 v=75
27598 Off ch=3 n=81 v=77
27600 On ch=3 n=83 v=77
27600 On ch=3 n=86 v=80
27658 Off ch=3 n=83 v=77
27658 Off ch=3 n=86 v=80
27660 On ch=3 n=83 v=79
27660 On ch=3 n=86 v=72
27718 Off ch=3 n=83 v=79
27718 Off ch=3 n=86 v=72
27720 On ch=3 n=78 v=77
27778 Off ch=3 n=78 v=77
27780 On ch=3 n=81 v=75
27780 On ch=3 n=86 v=77
27838 Off ch=3 n=81 v=75
27838 Off ch=3 n=86 v=77
27840 On ch=3 n=79 v=75
27898 Off ch=3 n=79 v=75
27900 On ch=3 n=81 v=77
27900 On ch=3 n=86 v=76
27958 Off ch=3 n=81 v=77
27958 Off ch=3 n=86 v=76
27960 On ch=3 n=79 v=75
28018 Off ch=3 n=79 v=75
28020 On ch=3 n=81 v=79
28020 On ch=3 n=86 v=73
28078 Off ch=3 n=81 v=79
28078 Off ch=3 n=86 v=73
28080 On ch=3 n=83 v=77
28080 On ch=3 n=86 v=76
28138 Off ch=3 n=83 v=77
28138 Off ch=3 n=86 v=76
28140 On ch=3 n=78 v=73
28198 Off ch=3 n=78 v=73
28200 On ch=3 n=81 v=78
28200 On ch=3 n=86 v=74
28258 Off ch=3 n=81 v=78
28258 Off ch=3 n=86 v=74
28260 On ch=3 n=78 v=78
28318 Off ch=3 n=78 v=78
28319 On ch=3 n=86 v=73
28320 On ch=3 n=79 v=77
28378 Off ch=3 n=79 v=77
28380 On ch=3 n=81 v=74
28438 Off ch=3 n=81 v=74
28440 On ch=3 n=76 v=78
28442 Off ch=3 n=86 v=73
28498 Off ch=3 n=76 v=78
28500 On ch=3 n=86 v=73
28500 On ch=3 n=81 v=77
28558 Off ch=3 n=86 v=73
28558 Off ch=3 n=81 v=77
28560 On ch=3 n=79 v=77
28618 Off ch=3 n=79 v=77
28620 On ch=3 n=81 v=75
28620 On ch=3 n=86 v=71
28678 Off ch=3 n=81 v=75
28678 Off ch=3 n=86 v=71
28680 On ch=3 n=79 v=75
28738 Off ch=3 n=79 v=75
28739 On ch=3 n=86 v=75
28740 On ch=3 n=81 v=77
28797 Off ch=3 n=86 v=75
28798 Off ch=3 n=81 v=77
36000 On ch=3 n=86 v=80
36000 On ch=3 n=83 v=77
36095 Off ch=3 n=86 v=80
36095 Off ch=3 n=83 v=77
36120 On ch=3 n=83 v=79
36120 On ch=3 n=86 v=72
36214 Off ch=3 n=83 v=79
36214 Off ch=3 n=86 v=72
36240 On ch=3 n=78 v=77
36334 Off ch=3 n=78 v=77
36360 On ch=3 n=81 v=75
36360 On ch=3 n=86 v=77
36454 Off ch=3 n=81 v=75
36454 Off ch=3 n=86 v=77
36480 On ch=3 n=79 v=75
36574 Off ch=3 n=79 v=75
36600 On ch=3 n=81 v=77
36600 On ch=3 n=86 v=76
36694 Off ch=3 n=81 v=77
36694 Off ch=3 n=86 v=76
36720 On ch=3 n=79 v=75
36814 Off ch=3 n=79 v=75
36840 On ch=3 n=81 v=79
36840 On ch=3 n=86 v=73
36934 Off ch=3 n=81 v=79
36934 Off ch=3 n=86 v=73
36960 On ch=3 n=83 v=77
36960 On ch=3 n=86 v=76
37054 Off ch=3 n=83 v=77
37054 Off ch=3 n=86 v=76
37080 On ch=3 n=78 v=73
37174 Off ch=3 n=78 v=73
37200 On ch=3 n=86 v=74
37200 On ch=3 n=81 v=78
37294 Off ch=3 n=86 v=74
37294 Off ch=3 n=81 v=78
37320 On ch=3 n=78 v=78
37414 Off ch=3 n=78 v=78
37440 On ch=3 n=79 v=77
37440 On ch=3 n=86 v=74
37534 Off ch=3 n=79 v=77
37560 On ch=3 n=81 v=74
37654 Off ch=3 n=81 v=74
37674 Off ch=3 n=86 v=74
37680 On ch=3 n=76 v=78
37774 Off ch=3 n=76 v=78
37800 On ch=3 n=81 v=77
37800 On ch=3 n=86 v=73
37894 Off ch=3 n=81 v=77
37894 Off ch=3 n=86 v=73
37920 On ch=3 n=79 v=77
38015 Off ch=3 n=79 v=77
38040 On ch=3 n=81 v=75
38040 On ch=3 n=86 v=71
38134 Off ch=3 n=81 v=75
38134 Off ch=3 n=86 v=71
38160 On ch=3 n=79 v=75
38254 Off ch=3 n=79 v=75
38280 On ch=3 n=81 v=77
38280 On ch=3 n=86 v=75
38374 Off ch=3 n=81 v=77
38374 Off ch=3 n=86 v=75
38400 On ch=3 n=86 v=80
38400 On ch=3 n=83 v=77
38495 Off ch=3 n=86 v=80
38495 Off ch=3 n=83 v=77
38520 On ch=3 n=83 v=79
38520 On ch=3 n=86 v=72
38614 Off ch=3 n=83 v=79
38614 Off ch=3 n=86 v=72
38640 On ch=3 n=78 v=77
38734 Off ch=3 n=78 v=77
38760 On ch=3 n=81 v=75
38760 On ch=3 n=86 v=77
38854 Off ch=3 n=81 v=75
38854 Off ch=3 n=86 v=77
38880 On ch=3 n=79 v=75
38974 Off ch=3 n=79 v=75
39000 On ch=3 n=81 v=77
39000 On ch=3 n=86 v=76
39094 Off ch=3 n=81 v=77
39094 Off ch=3 n=86 v=76
39120 On ch=3 n=79 v=75
39214 Off ch=3 n=79 v=75
39240 On ch=3 n=81 v=79
39240 On ch=3 n=86 v=73
39334 Off ch=3 n=81 v=79
39334 Off ch=3 n=86 v=73
39360 On ch=3 n=83 v=77
39360 On ch=3 n=86 v=76
39454 Off ch=3 n=83 v=77
39454 Off ch=3 n=86 v=76
39480 On ch=3 n=78 v=73
39574 Off ch=3 n=78 v=73
39600 On ch=3 n=86 v=74
39600 On ch=3 n=81 v=78
39694 Off ch=3 n=86 v=74
39694 Off ch=3 n=81 v=78
39720 On ch=3 n=78 v=78
39814 Off ch=3 n=78 v=78
39840 On ch=3 n=79 v=77
39840 On ch=3 n=86 v=74
39934 Off ch=3 n=79 v=77
39960 On ch=3 n=81 v=74
40054 Off ch=3 n=81 v=74
40074 Off ch=3 n=86 v=74
40080 On ch=3 n=76 v=78
40174 Off ch=3 n=76 v=78
40200 On ch=3 n=81 v=77
40200 On ch=3 n=86 v=73
40294 Off ch=3 n=81 v=77
40294 Off ch=3 n=86 v=73
40320 On ch=3 n=79 v=77
40415 Off ch=3 n=79 v=77
40440 On ch=3 n=81 v=75
40440 On ch=3 n=86 v=71
40534 Off ch=3 n=81 v=75
40534 Off ch=3 n=86 v=71
40560 On ch=3 n=79 v=75
40654 Off ch=3 n=79 v=75
40680 On ch=3 n=81 v=77
40680 On ch=3 n=86 v=75
40774 Off ch=3 n=81 v=77
40774 Off ch=3 n=86 v=75
40800 On ch=3 n=86 v=80
40800 On ch=3 n=83 v=77
40895 Off ch=3 n=86 v=80
40895 Off ch=3 n=83 v=77
40920 On ch=3 n=83 v=79
40920 On ch=3 n=86 v=72
41014 Off ch=3 n=83 v=79
41014 Off ch=3 n=86 v=72
41040 On ch=3 n=78 v=77
41134 Off ch=3 n=78 v=77
41160 On ch=3 n=81 v=75
41160 On ch=3 n=86 v=77
41254 Off ch=3 n=81 v=75
41254 Off ch=3 n=86 v=77
41280 On ch=3 n=79 v=75
41374 Off ch=3 n=79 v=75
41400 On ch=3 n=81 v=77
41400 On ch=3 n=86 v=76
41494 Off ch=3 n=81 v=77
41494 Off ch=3 n=86 v=76
41520 On ch=3 n=79 v=75
41614 Off ch=3 n=79 v=75
41640 On ch=3 n=81 v=79
41640 On ch=3 n=86 v=73
41734 Off ch=3 n=81 v=79
41734 Off ch=3 n=86 v=73
41760 On ch=3 n=83 v=77
41760 On ch=3 n=86 v=76
41854 Off ch=3 n=83 v=77
41854 Off ch=3 n=86 v=76
41880 On ch=3 n=78 v=73
41974 Off ch=3 n=78 v=73
42000 On ch=3 n=86 v=74
42000 On ch=3 n=81 v=78
42094 Off ch=3 n=86 v=74
42094 Off ch=3 n=81 v=78
42120 On ch=3 n=78 v=78
42214 Off ch=3 n=78 v=78
42240 On ch=3 n=79 v=77
42240 On ch=3 n=86 v=74
42334 Off ch=3 n=79 v=77
42360 On ch=3 n=81 v=74
42454 Off ch=3 n=81 v=74
42474 Off ch=3 n=86 v=74
42480 On ch=3 n=76 v=78
42574 Off ch=3 n=76 v=78
42600 On ch=3 n=81 v=77
42600 On ch=3 n=86 v=73
42694 Off ch=3 n=81 v=77
42694 Off ch=3 n=86 v=73
42720 On ch=3 n=79 v=77
42815 Off ch=3 n=79 v=77
42840 On ch=3 n=81 v=75
42840 On ch=3 n=86 v=71
42934 Off ch=3 n=81 v=75
42934 Off ch=3 n=86 v=71
42960 On ch=3 n=79 v=75
43054 Off ch=3 n=79 v=75
43080 On ch=3 n=81 v=77
43080 On ch=3 n=86 v=75
43174 Off ch=3 n=81 v=77
43174 Off ch=3 n=86 v=75
43200 On ch=3 n=86 v=80
43200 On ch=3 n=83 v=77
43295 Off ch=3 n=86 v=80
43295 Off ch=3 n=83 v=77
43320 On ch=3 n=83 v=79
43320 On ch=3 n=86 v=72
43414 Off ch=3 n=83 v=79
43414 Off ch=3 n=86 v=72
43440 On ch=3 n=78 v=77
43534 Off ch=3 n=78 v=77
43560 On ch=3 n=81 v=75
43560 On ch=3 n=86 v=77
43654 Off ch=3 n=81 v=75
43654 Off ch=3 n=86 v=77
43680 On ch=3 n=79 v=75
43774 Off ch=3 n=79 v=75
43800 On ch=3 n=81 v=77
43800 On ch=3 n=86 v=76
43894 Off ch=3 n=81 v=77
43894 Off ch=3 n=86 v=76
43920 On ch=3 n=79 v=75
44014 Off ch=3 n=79 v=75
44040 On ch=3 n=81 v=79
44040 On ch=3 n=86 v=73
44134 Off ch=3 n=81 v=79
44134 Off ch=3 n=86 v=73
44160 On ch=3 n=83 v=77
44160 On ch=3 n=86 v=76
44254 Off ch=3 n=83 v=77
44254 Off ch=3 n=86 v=76
44280 On ch=3 n=78 v=73
44374 Off ch=3 n=78 v=73
44400 On ch=3 n=86 v=74
44400 On ch=3 n=81 v=78
44494 Off ch=3 n=86 v=74
44494 Off ch=3 n=81 v=78
44520 On ch=3 n=78 v=78
44614 Off ch=3 n=78 v=78
44640 On ch=3 n=79 v=77
44640 On ch=3 n=86 v=74
44734 Off ch=3 n=79 v=77
44760 On ch=3 n=81 v=74
44854 Off ch=3 n=81 v=74
44874 Off ch=3 n=86 v=74
44880 On ch=3 n=76 v=78
44974 Off ch=3 n=76 v=78
45000 On ch=3 n=81 v=77
45000 On ch=3 n=86 v=73
45094 Off ch=3 n=81 v=77
45094 Off ch=3 n=86 v=73
45120 On ch=3 n=79 v=77
45215 Off ch=3 n=79 v=77
45240 On ch=3 n=81 v=75
45240 On ch=3 n=86 v=71
45334 Off ch=3 n=81 v=75
45334 Off ch=3 n=86 v=71
45360 On ch=3 n=79 v=75
45454 Off ch=3 n=79 v=75
45480 On ch=3 n=81 v=77
45480 On ch=3 n=86 v=75
45574 Off ch=3 n=81 v=77
45574 Off ch=3 n=86 v=75
45600 On ch=3 n=86 v=80
45600 On ch=3 n=83 v=77
45695 Off ch=3 n=86 v=80
45695 Off ch=3 n=83 v=77
45720 On ch=3 n=83 v=79
45720 On ch=3 n=86 v=72
45814 Off ch=3 n=83 v=79
45814 Off ch=3 n=86 v=72
45840 On ch=3 n=78 v=77
45934 Off ch=3 n=78 v=77
45960 On ch=3 n=81 v=75
45960 On ch=3 n=86 v=77
46054 Off ch=3 n=81 v=75
46054 Off ch=3 n=86 v=77
46080 On ch=3 n=79 v=75
46174 Off ch=3 n=79 v=75
46200 On ch=3 n=81 v=77
46200 On ch=3 n=86 v=76
46294 Off ch=3 n=81 v=77
46294 Off ch=3 n=86 v=76
46320 On ch=3 n=79 v=75
46414 Off ch=3 n=79 v=75
46440 On ch=3 n=81 v=79
46440 On ch=3 n=86 v=73
46534 Off ch=3 n=81 v=79
46534 Off ch=3 n=86 v=73
46560 On ch=3 n=83 v=77
46560 On ch=3 n=86 v=76
46654 Off ch=3 n=83 v=77
46654 Off ch=3 n=86 v=76
46680 On ch=3 n=78 v=73
46774 Off ch=3 n=78 v=73
46800 On ch=3 n=86 v=74
46800 On ch=3 n=81 v=78
46894 Off ch=3 n=86 v=74
46894 Off ch=3 n=81 v=78
46920 On ch=3 n=78 v=78
47014 Off ch=3 n=78 v=78
47040 On ch=3 n=79 v=77
47040 On ch=3 n=86 v=74
47134 Off ch=3 n=79 v=77
47160 On ch=3 n=81 v=74
47254 Off ch=3 n=81 v=74
47274 Off ch=3 n=86 v=74
47280 On ch=3 n=76 v=78
47374 Off ch=3 n=76 v=78
47400 On ch=3 n=81 v=77
47400 On ch=3 n=86 v=73
47494 Off ch=3 n=81 v=77
47494 Off ch=3 n=86 v=73
47520 On ch=3 n=79 v=77
47615 Off ch=3 n=79 v=77
47640 On ch=3 n=81 v=75
47640 On ch=3 n=86 v=71
47734 Off ch=3 n=81 v=75
47734 Off ch=3 n=86 v=71
47760 On ch=3 n=79 v=75
47854 Off ch=3 n=79 v=75
47880 On ch=3 n=81 v=77
47880 On ch=3 n=86 v=75
47974 Off ch=3 n=81 v=77
47974 Off ch=3 n=86 v=75
48000 On ch=3 n=86 v=80
48000 On ch=3 n=83 v=77
48095 Off ch=3 n=86 v=80
48095 Off ch=3 n=83 v=77
48120 On ch=3 n=83 v=79
48120 On ch=3 n=86 v=72
48214 Off ch=3 n=83 v=79
48214 Off ch=3 n=86 v=72
48240 On ch=3 n=78 v=77
48334 Off ch=3 n=78 v=77
48360 On ch=3 n=81 v=75
48360 On ch=3 n=86 v=77
48454 Off ch=3 n=81 v=75
48454 Off ch=3 n=86 v=77
48480 On ch=3 n=79 v=75
48574 Off ch=3 n=79 v=75
48600 On ch=3 n=81 v=77
48600 On ch=3 n=86 v=76
48694 Off ch=3 n=81 v=77
48694 Off ch=3 n=86 v=76
48720 On ch=3 n=79 v=75
48814 Off ch=3 n=79 v=75
48840 On ch=3 n=81 v=79
48840 On ch=3 n=86 v=73
48934 Off ch=3 n=81 v=79
48934 Off ch=3 n=86 v=73
48960 On ch=3 n=83 v=77
48960 On ch=3 n=86 v=76
49054 Off ch=3 n=83 v=77
49054 Off ch=3 n=86 v=76
49080 On ch=3 n=78 v=73
49174 Off ch=3 n=78 v=73
49200 On ch=3 n=86 v=74
49200 On ch=3 n=81 v=78
49294 Off ch=3 n=86 v=74
49294 Off ch=3 n=81 v=78
49320 On ch=3 n=78 v=78
49414 Off ch=3 n=78 v=78
49440 On ch=3 n=79 v=77
49440 On ch=3 n=86 v=74
49534 Off ch=3 n=79 v=77
49560 On ch=3 n=81 v=74
49654 Off ch=3 n=81 v=74
49674 Off ch=3 n=86 v=74
49680 On ch=3 n=76 v=78
49774 Off ch=3 n=76 v=78
49800 On ch=3 n=81 v=77
49800 On ch=3 n=86 v=73
49894 Off ch=3 n=81 v=77
49894 Off ch=3 n=86 v=73
49920 On ch=3 n=79 v=77
50015 Off ch=3 n=79 v=77
50040 On ch=3 n=81 v=75
50040 On ch=3 n=86 v=71
50134 Off ch=3 n=81 v=75
50134 Off ch=3 n=86 v=71
50160 On ch=3 n=79 v=75
50254 Off ch=3 n=79 v=75
50280 On ch=3 n=81 v=77
50280 On ch=3 n=86 v=75
50374 Off ch=3 n=81 v=77
50374 Off ch=3 n=86 v=75
50400 On ch=3 n=86 v=80
50400 On ch=3 n=83 v=77
50495 Off ch=3 n=86 v=80
50495 Off ch=3 n=83 v=77
50520 On ch=3 n=83 v=79
50520 On ch=3 n=86 v=72
50614 Off ch=3 n=83 v=79
50614 Off ch=3 n=86 v=72
50640 On ch=3 n=78 v=77
50734 Off ch=3 n=78 v=77
50760 On ch=3 n=81 v=75
50760 On ch=3 n=86 v=77
50854 Off ch=3 n=81 v=75
50854 Off ch=3 n=86 v=77
50880 On ch=3 n=79 v=75
50974 Off ch=3 n=79 v=75
51000 On ch=3 n=81 v=77
51000 On ch=3 n=86 v=76
51094 Off ch=3 n=81 v=77
51094 Off ch=3 n=86 v=76
51120 On ch=3 n=79 v=75
51214 Off ch=3 n=79 v=75
51240 On ch=3 n=81 v=79
51240 On ch=3 n=86 v=73
51334 Off ch=3 n=81 v=79
51334 Off ch=3 n=86 v=73
51360 On ch=3 n=83 v=77
51360 On ch=3 n=86 v=76
51454 Off ch=3 n=83 v=77
51454 Off ch=3 n=86 v=76
51480 On ch=3 n=78 v=73
51574 Off ch=3 n=78 v=73
51600 On ch=3 n=86 v=74
51600 On ch=3 n=81 v=78
51694 Off ch=3 n=86 v=74
51694 Off ch=3 n=81 v=78
51720 On ch=3 n=78 v=78
51814 Off ch=3 n=78 v=78
51840 On ch=3 n=79 v=77
51840 On ch=3 n=86 v=74
51934 Off ch=3 n=79 v=77
51960 On ch=3 n=81 v=74
52054 Off ch=3 n=81 v=74
52074 Off ch=3 n=86 v=74
52080 On ch=3 n=76 v=78
52174 Off ch=3 n=76 v=78
52200 On ch=3 n=81 v=77
52200 On ch=3 n=86 v=73
52294 Off ch=3 n=81 v=77
52294 Off ch=3 n=86 v=73
52320 On ch=3 n=79 v=77
52415 Off ch=3 n=79 v=77
52440 On ch=3 n=81 v=75
52440 On ch=3 n=86 v=71
52534 Off ch=3 n=81 v=75
52534 Off ch=3 n=86 v=71
52560 On ch=3 n=79 v=75
52654 Off ch=3 n=79 v=75
52680 On ch=3 n=81 v=77
52680 On ch=3 n=86 v=75
52774 Off ch=3 n=81 v=77
52774 Off ch=3 n=86 v=75
52800 On ch=3 n=86 v=80
52800 On ch=3 n=83 v=77
52895 Off ch=3 n=86 v=80
52895 Off ch=3 n=83 v=77
52920 On ch=3 n=83 v=79
52920 On ch=3 n=86 v=72
53014 Off ch=3 n=83 v=79
53014 Off ch=3 n=86 v=72
53040 On ch=3 n=78 v=77
53134 Off ch=3 n=78 v=77
53160 On ch=3 n=81 v=75
53160 On ch=3 n=86 v=77
53254 Off ch=3 n=81 v=75
53254 Off ch=3 n=86 v=77
53280 On ch=3 n=79 v=75
53374 Off ch=3 n=79 v=75
53400 On ch=3 n=81 v=77
53400 On ch=3 n=86 v=76
53494 Off ch=3 n=81 v=77
53494 Off ch=3 n=86 v=76
53520 On ch=3 n=79 v=75
53614 Off ch=3 n=79 v=75
53640 On ch=3 n=81 v=79
53640 On ch=3 n=86 v=73
53734 Off ch=3 n=81 v=79
53734 Off ch=3 n=86 v=73
53760 On ch=3 n=83 v=77
53760 On ch=3 n=86 v=76
53854 Off ch=3 n=83 v=77
53854 Off ch=3 n=86 v=76
53880 On ch=3 n=78 v=73
53974 Off ch=3 n=78 v=73
54000 On ch=3 n=86 v=74
54000 On ch=3 n=81 v=78
54094 Off ch=3 n=86 v=74
54094 Off ch=3 n=81 v=78
54120 On ch=3 n=78 v=78
54214 Off ch=3 n=78 v=78
54240 On ch=3 n=79 v=77
54240 On ch=3 n=86 v=74
54334 Off ch=3 n=79 v=77
54360 On ch=3 n=81 v=74
54454 Off ch=3 n=81 v=74
54474 Off ch=3 n=86 v=74
54480 On ch=3 n=76 v=78
54574 Off ch=3 n=76 v=78
54600 On ch=3 n=81 v=77
54600 On ch=3 n=86 v=73
54694 Off ch=3 n=81 v=77
54694 Off ch=3 n=86 v=73
54720 On ch=3 n=79 v=77
54815 Off ch=3 n=79 v=77
54840 On ch=3 n=81 v=75
54840 On ch=3 n=86 v=71
54934 Off ch=3 n=81 v=75
54934 Off ch=3 n=86 v=71
54960 On ch=3 n=79 v=75
55054 Off ch=3 n=79 v=75
55080 On ch=3 n=81 v=77
55080 On ch=3 n=86 v=75
55174 Off ch=3 n=81 v=77
55174 Off ch=3 n=86 v=75
55200 On ch=3 n=86 v=80
55200 On ch=3 n=83 v=77
55295 Off ch=3 n=86 v=80
55295 Off ch=3 n=83 v=77
55320 On ch=3 n=83 v=79
55320 On ch=3 n=86 v=72
55414 Off ch=3 n=83 v=79
55414 Off ch=3 n=86 v=72
55440 On ch=3 n=78 v=77
55534 Off ch=3 n=78 v=77
55560 On ch=3 n=81 v=75
55560 On ch=3 n=86 v=77
55654 Off ch=3 n=81 v=75
55654 Off ch=3 n=86 v=77
55680 On ch=3 n=79 v=75
55774 Off ch=3 n=79 v=75
55800 On ch=3 n=81 v=77
55800 On ch=3 n=86 v=76
55894 Off ch=3 n=81 v=77
55894 Off ch=3 n=86 v=76
55920 On ch=3 n=79 v=75
56014 Off ch=3 n=79 v=75
56040 On ch=3 n=81 v=79
56040 On ch=3 n=86 v=73
56134 Off ch=3 n=81 v=79
56134 Off ch=3 n=86 v=73
56160 On ch=3 n=83 v=77
56160 On ch=3 n=86 v=76
56254 Off ch=3 n=83 v=77
56254 Off ch=3 n=86 v=76
56280 On ch=3 n=78 v=73
56374 Off ch=3 n=78 v=73
56400 On ch=3 n=86 v=74
56400 On ch=3 n=81 v=78
56494 Off ch=3 n=86 v=74
56494 Off ch=3 n=81 v=78
56520 On ch=3 n=78 v=78
56614 Off ch=3 n=78 v=78
56640 On ch=3 n=79 v=77
56640 On ch=3 n=86 v=74
56734 Off ch=3 n=79 v=77
56760 On ch=3 n=81 v=74
56854 Off ch=3 n=81 v=74
56874 Off ch=3 n=86 v=74
56880 On ch=3 n=76 v=78
56974 Off ch=3 n=76 v=78
57000 On ch=3 n=81 v=77
57000 On ch=3 n=86 v=73
57094 Off ch=3 n=81 v=77
57094 Off ch=3 n=86 v=73
57120 On ch=3 n=79 v=77
57215 Off ch=3 n=79 v=77
57240 On ch=3 n=81 v=75
57240 On ch=3 n=86 v=71
57334 Off ch=3 n=81 v=75
57334 Off ch=3 n=86 v=71
57360 On ch=3 n=79 v=75
57454 Off ch=3 n=79 v=75
57480 On ch=3 n=81 v=77
57480 On ch=3 n=86 v=75
57574 Off ch=3 n=81 v=77
57574 Off ch=3 n=86 v=75
57600 On ch=3 n=86 v=80
57600 On ch=3 n=83 v=77
57695 Off ch=3 n=86 v=80
57695 Off ch=3 n=83 v=77
57720 On ch=3 n=83 v=79
57720 On ch=3 n=86 v=72
57814 Off ch=3 n=83 v=79
57814 Off ch=3 n=86 v=72
57840 On ch=3 n=78 v=77
57934 Off ch=3 n=78 v=77
57960 On ch=3 n=81 v=75
57960 On ch=3 n=86 v=77
58054 Off ch=3 n=81 v=75
58054 Off ch=3 n=86 v=77
58080 On ch=3 n=79 v=75
58174 Off ch=3 n=79 v=75
58200 On ch=3 n=81 v=77
58200 On ch=3 n=86 v=76
58294 Off ch=3 n=81 v=77
58294 Off ch=3 n=86 v=76
58320 On ch=3 n=79 v=75
58414 Off ch=3 n=79 v=75
58440 On ch=3 n=81 v=79
58440 On ch=3 n=86 v=73
58534 Off ch=3 n=81 v=79
58534 Off ch=3 n=86 v=73
58560 On ch=3 n=83 v=77
58560 On ch=3 n=86 v=76
58654 Off ch=3 n=83 v=77
58654 Off ch=3 n=86 v=76
58680 On ch=3 n=78 v=73
58774 Off ch=3 n=78 v=73
58800 On ch=3 n=86 v=74
58800 On ch=3 n=81 v=78
58894 Off ch=3 n=86 v=74
58894 Off ch=3 n=81 v=78
58920 On ch=3 n=78 v=78
59014 Off ch=3 n=78 v=78
59040 On ch=3 n=79 v=77
59040 On ch=3 n=86 v=74
59134 Off ch=3 n=79 v=77
59160 On ch=3 n=81 v=74
59254 Off ch=3 n=81 v=74
59274 Off ch=3 n=86 v=74
59280 On ch=3 n=76 v=78
59374 Off ch=3 n=76 v=78
59400 On ch=3 n=81 v=77
59400 On ch=3 n=86 v=73
59494 Off ch=3 n=81 v=77
59494 Off ch=3 n=86 v=73
59520 On ch=3 n=79 v=77
59615 Off ch=3 n=79 v=77
59640 On ch=3 n=81 v=75
59640 On ch=3 n=86 v=71
59734 Off ch=3 n=81 v=75
59734 Off ch=3 n=86 v=71
59760 On ch=3 n=79 v=75
59854 Off ch=3 n=79 v=75
59880 On ch=3 n=81 v=77
59880 On ch=3 n=86 v=75
59974 Off ch=3 n=81 v=77
59974 Off ch=3 n=86 v=75
60000 On ch=3 n=86 v=80
60000 On ch=3 n=83 v=77
60095 Off ch=3 n=86 v=80
60095 Off ch=3 n=83 v=77
60120 On ch=3 n=83 v=79
60120 On ch=3 n=86 v=72
60214 Off ch=3 n=83 v=79
60214 Off ch=3 n=86 v=72
60240 On ch=3 n=78 v=77
60334 Off ch=3 n=78 v=77
60360 On ch=3 n=81 v=75
60360 On ch=3 n=86 v=77
60454 Off ch=3 n=81 v=75
60454 Off ch=3 n=86 v=77
60480 On ch=3 n=79 v=75
60574 Off ch=3 n=79 v=75
60600 On ch=3 n=81 v=77
60600 On ch=3 n=86 v=76
60694 Off ch=3 n=81 v=77
60694 Off ch=3 n=86 v=76
60720 On ch=3 n=79 v=75
60814 Off ch=3 n=79 v=75
60840 On ch=3 n=81 v=79
60840 On ch=3 n=86 v=73
60934 Off ch=3 n=81 v=79
60934 Off ch=3 n=86 v=73
60960 On ch=3 n=83 v=77
60960 On ch=3 n=86 v=76
61054 Off ch=3 n=83 v=77
61054 Off ch=3 n=86 v=76
61080 On ch=3 n=78 v=73
61174 Off ch=3 n=78 v=73
61200 On ch=3 n=86 v=74
61200 On ch=3 n=81 v=78
61294 Off ch=3 n=86 v=74
61294 Off ch=3 n=81 v=78
61320 On ch=3 n=78 v=78
61414 Off ch=3 n=78 v=78
61440 On ch=3 n=79 v=77
61440 On ch=3 n=86 v=74
61534 Off ch=3 n=79 v=77
61560 On ch=3 n=81 v=74
61654 Off ch=3 n=81 v=74
61674 Off ch=3 n=86 v=74
61680 On ch=3 n=76 v=78
61774 Off ch=3 n=76 v=78
61800 On ch=3 n=81 v=77
61800 On ch=3 n=86 v=73
61894 Off ch=3 n=81 v=77
61894 Off ch=3 n=86 v=73
61920 On ch=3 n=79 v=77
62015 Off ch=3 n=79 v=77
62040 On ch=3 n=81 v=75
62040 On ch=3 n=86 v=71
62134 Off ch=3 n=81 v=75
62134 Off ch=3 n=86 v=71
62160 On ch=3 n=79 v=75
62254 Off ch=3 n=79 v=75
62280 On ch=3 n=81 v=77
62280 On ch=3 n=86 v=75
62374 Off ch=3 n=81 v=77
62374 Off ch=3 n=86 v=75
62400 On ch=3 n=86 v=80
62400 On ch=3 n=83 v=77
62495 Off ch=3 n=86 v=80
62495 Off ch=3 n=83 v=77
62520 On ch=3 n=83 v=79
62520 On ch=3 n=86 v=72
62614 Off ch=3 n=83 v=79
62614 Off ch=3 n=86 v=72
62640 On ch=3 n=78 v=77
62734 Off ch=3 n=78 v=77
62760 On ch=3 n=81 v=75
62760 On ch=3 n=86 v=77
62854 Off ch=3 n=81 v=75
62854 Off ch=3 n=86 v=77
62880 On ch=3 n=79 v=75
62974 Off ch=3 n=79 v=75
63000 On ch=3 n=81 v=77
63000 On ch=3 n=86 v=76
63094 Off ch=3 n=81 v=77
63094 Off ch=3 n=86 v=76
63120 On ch=3 n=79 v=75
63214 Off ch=3 n=79 v=75
63240 On ch=3 n=81 v=79
63240 On ch=3 n=86 v=73
63334 Off ch=3 n=81 v=79
63334 Off ch=3 n=86 v=73
63360 On ch=3 n=83 v=77
63360 On ch=3 n=86 v=76
63454 Off ch=3 n=83 v=77
63454 Off ch=3 n=86 v=76
63480 On ch=3 n=78 v=73
63574 Off ch=3 n=78 v=73
63600 On ch=3 n=86 v=74
63600 On ch=3 n=81 v=78
63694 Off ch=3 n=86 v=74
63694 Off ch=3 n=81 v=78
63720 On ch=3 n=78 v=78
63814 Off ch=3 n=78 v=78
63840 On ch=3 n=79 v=77
63840 On ch=3 n=86 v=74
63934 Off ch=3 n=79 v=77
63960 On ch=3 n=81 v=74
64054 Off ch=3 n=81 v=74
64074 Off ch=3 n=86 v=74
64080 On ch=3 n=76 v=78
64174 Off ch=3 n=76 v=78
64200 On ch=3 n=81 v=77
64200 On ch=3 n=86 v=73
64294 Off ch=3 n=81 v=77
64294 Off ch=3 n=86 v=73
64320 On ch=3 n=79 v=77
64415 Off ch=3 n=79 v=77
64440 On ch=3 n=81 v=75
64440 On ch=3 n=86 v=71
64534 Off ch=3 n=81 v=75
64534 Off ch=3 n=86 v=71
64560 On ch=3 n=79 v=75
64654 Off ch=3 n=79 v=75
64680 On ch=3 n=81 v=77
64680 On ch=3 n=86 v=75
64774 Off ch=3 n=81 v=77
64774 Off ch=3 n=86 v=75
64800 On ch=3 n=86 v=80
64800 On ch=3 n=83 v=77
64895 Off ch=3 n=86 v=80
64895 Off ch=3 n=83 v=77
64920 On ch=3 n=83 v=79
64920 On ch=3 n=86 v=72
65014 Off ch=3 n=83 v=79
65014 Off ch=3 n=86 v=72
65040 On ch=3 n=78 v=77
65134 Off ch=3 n=78 v=77
65160 On ch=3 n=81 v=75
65160 On ch=3 n=86 v=77
65254 Off ch=3 n=81 v=75
65254 Off ch=3 n=86 v=77
65280 On ch=3 n=79 v=75
65374 Off ch=3 n=79 v=75
65400 On ch=3 n=81 v=77
65400 On ch=3 n=86 v=76
65494 Off ch=3 n=81 v=77
65494 Off ch=3 n=86 v=76
65520 On ch=3 n=79 v=75
65614 Off ch=3 n=79 v=75
65640 On ch=3 n=81 v=79
65640 On ch=3 n=86 v=73
65734 Off ch=3 n=81 v=79
65734 Off ch=3 n=86 v=73
65760 On ch=3 n=83 v=77
65760 On ch=3 n=86 v=76
65854 Off ch=3 n=83 v=77
65854 Off ch=3 n=86 v=76
65880 On ch=3 n=78 v=73
65974 Off ch=3 n=78 v=73
66000 On ch=3 n=86 v=74
66000 On ch=3 n=81 v=78
66094 Off ch=3 n=86 v=74
66094 Off ch=3 n=81 v=78
66120 On ch=3 n=78 v=78
66214 Off ch=3 n=78 v=78
66240 On ch=3 n=79 v=77
66240 On ch=3 n=86 v=74
66334 Off ch=3 n=79 v=77
66360 On ch=3 n=81 v=74
66454 Off ch=3 n=81 v=74
66474 Off ch=3 n=86 v=74
66480 On ch=3 n=76 v=78
66574 Off ch=3 n=76 v=78
66600 On ch=3 n=81 v=77
66600 On ch=3 n=86 v=73
66694 Off ch=3 n=81 v=77
66694 Off ch=3 n=86 v=73
66720 On ch=3 n=79 v=77
66815 Off ch=3 n=79 v=77
66840 On ch=3 n=81 v=75
66840 On ch=3 n=86 v=71
66934 Off ch=3 n=81 v=75
66934 Off ch=3 n=86 v=71
66960 On ch=3 n=79 v=75
67054 Off ch=3 n=79 v=75
67080 On ch=3 n=81 v=77
67080 On ch=3 n=86 v=75
67174 Off ch=3 n=81 v=77
67174 Off ch=3 n=86 v=75
67200 On ch=3 n=86 v=80
67200 On ch=3 n=83 v=77
67295 Off ch=3 n=86 v=80
67295 Off ch=3 n=83 v=77
67320 On ch=3 n=83 v=79
67320 On ch=3 n=86 v=72
67414 Off ch=3 n=83 v=79
67414 Off ch=3 n=86 v=72
67440 On ch=3 n=78 v=77
67534 Off ch=3 n=78 v=77
67560 On ch=3 n=81 v=75
67560 On ch=3 n=86 v=77
67654 Off ch=3 n=81 v=75
67654 Off ch=3 n=86 v=77
67680 On ch=3 n=79 v=75
67774 Off ch=3 n=79 v=75
67800 On ch=3 n=81 v=77
67800 On ch=3 n=86 v=76
67894 Off ch=3 n=81 v=77
67894 Off ch=3 n=86 v=76
67920 On ch=3 n=79 v=75
68014 Off ch=3 n=79 v=75
68040 On ch=3 n=81 v=79
68040 On ch=3 n=86 v=73
68134 Off ch=3 n=81 v=79
68134 Off ch=3 n=86 v=73
68160 On ch=3 n=83 v=77
68160 On ch=3 n=86 v=76
68254 Off ch=3 n=83 v=77
68254 Off ch=3 n=86 v=76
68280 On ch=3 n=78 v=73
68374 Off ch=3 n=78 v=73
68400 On ch=3 n=86 v=74
68400 On ch=3 n=81 v=78
68494 Off ch=3 n=86 v=74
68494 Off ch=3 n=81 v=78
68520 On ch=3 n=78 v=78
68614 Off ch=3 n=78 v=78
68640 On ch=3 n=79 v=77
68640 On ch=3 n=86 v=74
68734 Off ch=3 n=79 v=77
68760 On ch=3 n=81 v=74
68854 Off ch=3 n=81 v=74
68874 Off ch=3 n=86 v=74
68880 On ch=3 n=76 v=78
68974 Off ch=3 n=76 v=78
69000 On ch=3 n=81 v=77
69000 On ch=3 n=86 v=73
69094 Off ch=3 n=81 v=77
69094 Off ch=3 n=86 v=73
69120 On ch=3 n=79 v=77
69215 Off ch=3 n=79 v=77
69240 On ch=3 n=81 v=75
69240 On ch=3 n=86 v=71
69334 Off ch=3 n=81 v=75
69334 Off ch=3 n=86 v=71
69360 On ch=3 n=79 v=75
69454 Off ch=3 n=79 v=75
69480 On ch=3 n=81 v=77
69480 On ch=3 n=86 v=75
69574 Off ch=3 n=81 v=77
69574 Off ch=3 n=86 v=75
69600 On ch=3 n=86 v=80
69600 On ch=3 n=83 v=77
69695 Off ch=3 n=86 v=80
69695 Off ch=3 n=83 v=77
69720 On ch=3 n=83 v=79
69720 On ch=3 n=86 v=72
69814 Off ch=3 n=83 v=79
69814 Off ch=3 n=86 v=72
69840 On ch=3 n=78 v=77
69934 Off ch=3 n=78 v=77
69960 On ch=3 n=81 v=75
69960 On ch=3 n=86 v=77
70054 Off ch=3 n=81 v=75
70054 Off ch=3 n=86 v=77
70080 On ch=3 n=79 v=75
70174 Off ch=3 n=79 v=75
70200 On ch=3 n=81 v=77
70200 On ch=3 n=86 v=76
70294 Off ch=3 n=81 v=77
70294 Off ch=3 n=86 v=76
70320 On ch=3 n=79 v=75
70414 Off ch=3 n=79 v=75
70440 On ch=3 n=81 v=79
70440 On ch=3 n=86 v=73
70534 Off ch=3 n=81 v=79
70534 Off ch=3 n=86 v=73
70560 On ch=3 n=83 v=77
70560 On ch=3 n=86 v=76
70654 Off ch=3 n=83 v=77
70654 Off ch=3 n=86 v=76
70680 On ch=3 n=78 v=73
70774 Off ch=3 n=78 v=73
70800 On ch=3 n=86 v=74
70800 On ch=3 n=81 v=78
70894 Off ch=3 n=86 v=74
70894 Off ch=3 n=81 v=78
70920 On ch=3 n=78 v=78
71014 Off ch=3 n=78 v=78
71040 On ch=3 n=79 v=77
71040 On ch=3 n=86 v=74
71134 Off ch=3 n=79 v=77
71160 On ch=3 n=81 v=74
71254 Off ch=3 n=81 v=74
71274 Off ch=3 n=86 v=74
71280 On ch=3 n=76 v=78
71374 Off ch=3 n=76 v=78
71400 On ch=3 n=81 v=77
71400 On ch=3 n=86 v=73
71494 Off ch=3 n=81 v=77
71494 Off ch=3 n=86 v=73
71520 On ch=3 n=79 v=77
71615 Off ch=3 n=79 v=77
71640 On ch=3 n=81 v=75
71640 On ch=3 n=86 v=71
71734 Off ch=3 n=81 v=75
71734 Off ch=3 n=86 v=71
71760 On ch=3 n=79 v=75
71854 Off ch=3 n=79 v=75
71880 On ch=3 n=81 v=77
71880 On ch=3 n=86 v=75
71974 Off ch=3 n=81 v=77
71974 Off ch=3 n=86 v=75
81600 Par ch=3 c=65 v=114
81600 On ch=3 n=86 v=80
81600 On ch=3 n=83 v=77
81695 Off ch=3 n=86 v=80
81695 Off ch=3 n=83 v=77
81720 On ch=3 n=83 v=79
81720 On ch=3 n=86 v=72
81814 Off ch=3 n=83 v=79
81814 Off ch=3 n=86 v=72
81840 On ch=3 n=78 v=77
81934 Off ch=3 n=78 v=77
81960 On ch=3 n=81 v=75
81960 On ch=3 n=86 v=77
82054 Off ch=3 n=81 v=75
82054 Off ch=3 n=86 v=77
82080 On ch=3 n=79 v=75
82174 Off ch=3 n=79 v=75
82200 On ch=3 n=81 v=77
82200 On ch=3 n=86 v=76
82294 Off ch=3 n=81 v=77
82294 Off ch=3 n=86 v=76
82320 On ch=3 n=79 v=75
82414 Off ch=3 n=79 v=75
82440 On ch=3 n=81 v=79
82440 On ch=3 n=86 v=73
82534 Off ch=3 n=81 v=79
82534 Off ch=3 n=86 v=73
82560 On ch=3 n=83 v=77
82560 On ch=3 n=86 v=76
82654 Off ch=3 n=83 v=77
82654 Off ch=3 n=86 v=76
82680 On ch=3 n=78 v=73
82774 Off ch=3 n=78 v=73
82800 On ch=3 n=86 v=74
82800 On ch=3 n=81 v=78
82894 Off ch=3 n=86 v=74
82894 Off ch=3 n=81 v=78
82920 On ch=3 n=78 v=78
83014 Off ch=3 n=78 v=78
83040 On ch=3 n=79 v=77
83040 On ch=3 n=86 v=74
83134 Off ch=3 n=79 v=77
83160 On ch=3 n=81 v=74
83254 Off ch=3 n=81 v=74
83274 Off ch=3 n=86 v=74
83280 On ch=3 n=76 v=78
83374 Off ch=3 n=76 v=78
83400 On ch=3 n=81 v=77
83400 On ch=3 n=86 v=73
83494 Off ch=3 n=81 v=77
83494 Off ch=3 n=86 v=73
83520 On ch=3 n=79 v=77
83615 Off ch=3 n=79 v=77
83640 On ch=3 n=81 v=75
83640 On ch=3 n=86 v=71
83734 Off ch=3 n=81 v=75
83734 Off ch=3 n=86 v=71
83760 On ch=3 n=79 v=75
83854 Off ch=3 n=79 v=75
83880 On ch=3 n=81 v=77
83880 On ch=3 n=86 v=75
83974 Off ch=3 n=81 v=77
83974 Off ch=3 n=86 v=75
84000 On ch=3 n=86 v=80
84000 On ch=3 n=83 v=77
84095 Off ch=3 n=86 v=80
84095 Off ch=3 n=83 v=77
84120 On ch=3 n=83 v=79
84120 On ch=3 n=86 v=72
84214 Off ch=3 n=83 v=79
84214 Off ch=3 n=86 v=72
84240 On ch=3 n=78 v=77
84334 Off ch=3 n=78 v=77
84360 On ch=3 n=81 v=75
84360 On ch=3 n=86 v=77
84454 Off ch=3 n=81 v=75
84454 Off ch=3 n=86 v=77
84480 On ch=3 n=79 v=75
84574 Off ch=3 n=79 v=75
84600 On ch=3 n=81 v=77
84600 On ch=3 n=86 v=76
84694 Off ch=3 n=81 v=77
84694 Off ch=3 n=86 v=76
84720 On ch=3 n=79 v=75
84814 Off ch=3 n=79 v=75
84840 On ch=3 n=81 v=79
84840 On ch=3 n=86 v=73
84934 Off ch=3 n=81 v=79
84934 Off ch=3 n=86 v=73
84960 On ch=3 n=83 v=77
84960 On ch=3 n=86 v=76
85054 Off ch=3 n=83 v=77
85054 Off ch=3 n=86 v=76
85080 On ch=3 n=78 v=73
85174 Off ch=3 n=78 v=73
85200 On ch=3 n=86 v=74
85200 On ch=3 n=81 v=78
85294 Off ch=3 n=86 v=74
85294 Off ch=3 n=81 v=78
85320 On ch=3 n=78 v=78
85414 Off ch=3 n=78 v=78
85440 On ch=3 n=79 v=77
85440 On ch=3 n=86 v=74
85534 Off ch=3 n=79 v=77
85560 On ch=3 n=81 v=74
85654 Off ch=3 n=81 v=74
85674 Off ch=3 n=86 v=74
85680 On ch=3 n=76 v=78
85774 Off ch=3 n=76 v=78
85800 On ch=3 n=81 v=77
85800 On ch=3 n=86 v=73
85894 Off ch=3 n=81 v=77
85894 Off ch=3 n=86 v=73
85920 On ch=3 n=79 v=77
86015 Off ch=3 n=79 v=77
86040 On ch=3 n=81 v=75
86040 On ch=3 n=86 v=71
86134 Off ch=3 n=81 v=75
86134 Off ch=3 n=86 v=71
86160 On ch=3 n=79 v=75
86254 Off ch=3 n=79 v=75
86280 On ch=3 n=81 v=77
86280 On ch=3 n=86 v=75
86374 Off ch=3 n=81 v=77
86374 Off ch=3 n=86 v=75
86400 On ch=3 n=86 v=80
86400 On ch=3 n=83 v=77
86495 Off ch=3 n=86 v=80
86495 Off ch=3 n=83 v=77
86520 On ch=3 n=83 v=79
86520 On ch=3 n=86 v=72
86614 Off ch=3 n=83 v=79
86614 Off ch=3 n=86 v=72
86640 On ch=3 n=78 v=77
86734 Off ch=3 n=78 v=77
86760 On ch=3 n=81 v=75
86760 On ch=3 n=86 v=77
86854 Off ch=3 n=81 v=75
86854 Off ch=3 n=86 v=77
86880 On ch=3 n=79 v=75
86974 Off ch=3 n=79 v=75
87000 On ch=3 n=81 v=77
87000 On ch=3 n=86 v=76
87094 Off ch=3 n=81 v=77
87094 Off ch=3 n=86 v=76
87120 On ch=3 n=79 v=75
87214 Off ch=3 n=79 v=75
87240 On ch=3 n=81 v=79
87240 On ch=3 n=86 v=73
87334 Off ch=3 n=81 v=79
87334 Off ch=3 n=86 v=73
87360 On ch=3 n=83 v=77
87360 On ch=3 n=86 v=76
87454 Off ch=3 n=83 v=77
87454 Off ch=3 n=86 v=76
87480 On ch=3 n=78 v=73
87574 Off ch=3 n=78 v=73
87600 On ch=3 n=86 v=74
87600 On ch=3 n=81 v=78
87694 Off ch=3 n=86 v=74
87694 Off ch=3 n=81 v=78
87720 On ch=3 n=78 v=78
87814 Off ch=3 n=78 v=78
87840 On ch=3 n=79 v=77
87840 On ch=3 n=86 v=74
87934 Off ch=3 n=79 v=77
87960 On ch=3 n=81 v=74
88054 Off ch=3 n=81 v=74
88074 Off ch=3 n=86 v=74
88080 On ch=3 n=76 v=78
88174 Off ch=3 n=76 v=78
88200 On ch=3 n=81 v=77
88200 On ch=3 n=86 v=73
88294 Off ch=3 n=81 v=77
88294 Off ch=3 n=86 v=73
88320 On ch=3 n=79 v=77
88415 Off ch=3 n=79 v=77
88440 On ch=3 n=81 v=75
88440 On ch=3 n=86 v=71
88534 Off ch=3 n=81 v=75
88534 Off ch=3 n=86 v=71
88560 On ch=3 n=79 v=75
88654 Off ch=3 n=79 v=75
88680 On ch=3 n=81 v=77
88680 On ch=3 n=86 v=75
88774 Off ch=3 n=81 v=77
88774 Off ch=3 n=86 v=75
88800 On ch=3 n=86 v=80
88800 On ch=3 n=83 v=77
88895 Off ch=3 n=86 v=80
88895 Off ch=3 n=83 v=77
88920 On ch=3 n=83 v=79
88920 On ch=3 n=86 v=72
89014 Off ch=3 n=83 v=79
89014 Off ch=3 n=86 v=72
89040 On ch=3 n=78 v=77
89134 Off ch=3 n=78 v=77
89160 On ch=3 n=81 v=75
89160 On ch=3 n=86 v=77
89254 Off ch=3 n=81 v=75
89254 Off ch=3 n=86 v=77
89280 On ch=3 n=79 v=75
89374 Off ch=3 n=79 v=75
89400 On ch=3 n=81 v=77
89400 On ch=3 n=86 v=76
89494 Off ch=3 n=81 v=77
89494 Off ch=3 n=86 v=76
89520 On ch=3 n=79 v=75
89614 Off ch=3 n=79 v=75
89640 On ch=3 n=81 v=79
89640 On ch=3 n=86 v=73
89734 Off ch=3 n=81 v=79
89734 Off ch=3 n=86 v=73
89760 On ch=3 n=83 v=77
89760 On ch=3 n=86 v=76
89854 Off ch=3 n=83 v=77
89854 Off ch=3 n=86 v=76
89880 On ch=3 n=78 v=73
89974 Off ch=3 n=78 v=73
90000 On ch=3 n=86 v=74
90000 On ch=3 n=81 v=78
90094 Off ch=3 n=86 v=74
90094 Off ch=3 n=81 v=78
90120 On ch=3 n=78 v=78
90214 Off ch=3 n=78 v=78
90240 On ch=3 n=79 v=77
90240 On ch=3 n=86 v=74
90334 Off ch=3 n=79 v=77
90360 On ch=3 n=81 v=74
90454 Off ch=3 n=81 v=74
90474 Off ch=3 n=86 v=74
90480 On ch=3 n=76 v=78
90574 Off ch=3 n=76 v=78
90600 On ch=3 n=81 v=77
90600 On ch=3 n=86 v=73
90694 Off ch=3 n=81 v=77
90694 Off ch=3 n=86 v=73
90720 On ch=3 n=79 v=77
90815 Off ch=3 n=79 v=77
90840 On ch=3 n=81 v=75
90840 On ch=3 n=86 v=71
90934 Off ch=3 n=81 v=75
90934 Off ch=3 n=86 v=71
90960 On ch=3 n=79 v=75
91054 Off ch=3 n=79 v=75
91080 On ch=3 n=81 v=77
91080 On ch=3 n=86 v=75
91174 Off ch=3 n=81 v=77
91174 Off ch=3 n=86 v=75
91200 On ch=3 n=86 v=80
91200 On ch=3 n=83 v=77
91295 Off ch=3 n=86 v=80
91295 Off ch=3 n=83 v=77
91320 On ch=3 n=83 v=79
91320 On ch=3 n=86 v=72
91414 Off ch=3 n=83 v=79
91414 Off ch=3 n=86 v=72
91440 On ch=3 n=78 v=77
91534 Off ch=3 n=78 v=77
91560 On ch=3 n=81 v=75
91560 On ch=3 n=86 v=77
91654 Off ch=3 n=81 v=75
91654 Off ch=3 n=86 v=77
91680 On ch=3 n=79 v=75
91774 Off ch=3 n=79 v=75
91800 On ch=3 n=81 v=77
91800 On ch=3 n=86 v=76
91894 Off ch=3 n=81 v=77
91894 Off ch=3 n=86 v=76
91920 On ch=3 n=79 v=75
92014 Off ch=3 n=79 v=75
92040 On ch=3 n=81 v=79
92040 On ch=3 n=86 v=73
92134 Off ch=3 n=81 v=79
92134 Off ch=3 n=86 v=73
92160 On ch=3 n=83 v=77
92160 On ch=3 n=86 v=76
92254 Off ch=3 n=83 v=77
92254 Off ch=3 n=86 v=76
92280 On ch=3 n=78 v=73
92374 Off ch=3 n=78 v=73
92400 On ch=3 n=86 v=74
92400 On ch=3 n=81 v=78
92494 Off ch=3 n=86 v=74
92494 Off ch=3 n=81 v=78
92520 On ch=3 n=78 v=78
92614 Off ch=3 n=78 v=78
92640 On ch=3 n=79 v=77
92640 On ch=3 n=86 v=74
92734 Off ch=3 n=79 v=77
92760 On ch=3 n=81 v=74
92854 Off ch=3 n=81 v=74
92874 Off ch=3 n=86 v=74
92880 On ch=3 n=76 v=78
92974 Off ch=3 n=76 v=78
93000 On ch=3 n=81 v=77
93000 On ch=3 n=86 v=73
93094 Off ch=3 n=81 v=77
93094 Off ch=3 n=86 v=73
93120 On ch=3 n=79 v=77
93215 Off ch=3 n=79 v=77
93240 On ch=3 n=81 v=75
93240 On ch=3 n=86 v=71
93334 Off ch=3 n=81 v=75
93334 Off ch=3 n=86 v=71
93360 On ch=3 n=79 v=75
93454 Off ch=3 n=79 v=75
93480 On ch=3 n=81 v=77
93480 On ch=3 n=86 v=75
93574 Off ch=3 n=81 v=77
93574 Off ch=3 n=86 v=75
93600 On ch=3 n=86 v=80
93600 On ch=3 n=83 v=77
93695 Off ch=3 n=86 v=80
93695 Off ch=3 n=83 v=77
93720 On ch=3 n=83 v=79
93720 On ch=3 n=86 v=72
93814 Off ch=3 n=83 v=79
93814 Off ch=3 n=86 v=72
93840 On ch=3 n=78 v=77
93934 Off ch=3 n=78 v=77
93960 On ch=3 n=81 v=75
93960 On ch=3 n=86 v=77
94054 Off ch=3 n=81 v=75
94054 Off ch=3 n=86 v=77
94080 On ch=3 n=79 v=75
94174 Off ch=3 n=79 v=75
94200 On ch=3 n=81 v=77
94200 On ch=3 n=86 v=76
94294 Off ch=3 n=81 v=77
94294 Off ch=3 n=86 v=76
94320 On ch=3 n=79 v=75
94414 Off ch=3 n=79 v=75
94440 On ch=3 n=81 v=79
94440 On ch=3 n=86 v=73
94534 Off ch=3 n=81 v=79
94534 Off ch=3 n=86 v=73
94560 On ch=3 n=83 v=77
94560 On ch=3 n=86 v=76
94654 Off ch=3 n=83 v=77
94654 Off ch=3 n=86 v=76
94680 On ch=3 n=78 v=73
94774 Off ch=3 n=78 v=73
94800 On ch=3 n=86 v=74
94800 On ch=3 n=81 v=78
94894 Off ch=3 n=86 v=74
94894 Off ch=3 n=81 v=78
94920 On ch=3 n=78 v=78
95014 Off ch=3 n=78 v=78
95040 On ch=3 n=79 v=77
95040 On ch=3 n=86 v=74
95134 Off ch=3 n=79 v=77
95160 On ch=3 n=81 v=74
95254 Off ch=3 n=81 v=74
95274 Off ch=3 n=86 v=74
95280 On ch=3 n=76 v=78
95374 Off ch=3 n=76 v=78
95400 On ch=3 n=81 v=77
95400 On ch=3 n=86 v=73
95494 Off ch=3 n=81 v=77
95494 Off ch=3 n=86 v=73
95520 On ch=3 n=79 v=77
95615 Off ch=3 n=79 v=77
95640 On ch=3 n=81 v=75
95640 On ch=3 n=86 v=71
95734 Off ch=3 n=81 v=75
95734 Off ch=3 n=86 v=71
95760 On ch=3 n=79 v=75
95854 Off ch=3 n=79 v=75
95880 On ch=3 n=81 v=77
95880 On ch=3 n=86 v=75
95974 Off ch=3 n=81 v=77
95974 Off ch=3 n=86 v=75
96000 On ch=3 n=86 v=80
96000 On ch=3 n=83 v=77
96095 Off ch=3 n=86 v=80
96095 Off ch=3 n=83 v=77
96120 On ch=3 n=83 v=79
96120 On ch=3 n=86 v=72
96214 Off ch=3 n=83 v=79
96214 Off ch=3 n=86 v=72
96240 On ch=3 n=78 v=77
96334 Off ch=3 n=78 v=77
96360 On ch=3 n=81 v=75
96360 On ch=3 n=86 v=77
96454 Off ch=3 n=81 v=75
96454 Off ch=3 n=86 v=77
96480 On ch=3 n=79 v=75
96574 Off ch=3 n=79 v=75
96600 On ch=3 n=81 v=77
96600 On ch=3 n=86 v=76
96694 Off ch=3 n=81 v=77
96694 Off ch=3 n=86 v=76
96720 On ch=3 n=79 v=75
96814 Off ch=3 n=79 v=75
96840 On ch=3 n=81 v=79
96840 On ch=3 n=86 v=73
96934 Off ch=3 n=81 v=79
96934 Off ch=3 n=86 v=73
96960 On ch=3 n=83 v=77
96960 On ch=3 n=86 v=76
97054 Off ch=3 n=83 v=77
97054 Off ch=3 n=86 v=76
97080 On ch=3 n=78 v=73
97174 Off ch=3 n=78 v=73
97200 On ch=3 n=86 v=74
97200 On ch=3 n=81 v=78
97294 Off ch=3 n=86 v=74
97294 Off ch=3 n=81 v=78
97320 On ch=3 n=78 v=78
97414 Off ch=3 n=78 v=78
97440 On ch=3 n=79 v=77
97440 On ch=3 n=86 v=74
97534 Off ch=3 n=79 v=77
97560 On ch=3 n=81 v=74
97654 Off ch=3 n=81 v=74
97674 Off ch=3 n=86 v=74
97680 On ch=3 n=76 v=78
97774 Off ch=3 n=76 v=78
97800 On ch=3 n=81 v=77
97800 On ch=3 n=86 v=73
97894 Off ch=3 n=81 v=77
97894 Off ch=3 n=86 v=73
97920 On ch=3 n=79 v=77
98015 Off ch=3 n=79 v=77
98040 On ch=3 n=81 v=75
98040 On ch=3 n=86 v=71
98134 Off ch=3 n=81 v=75
98134 Off ch=3 n=86 v=71
98160 On ch=3 n=79 v=75
98254 Off ch=3 n=79 v=75
98280 On ch=3 n=81 v=77
98280 On ch=3 n=86 v=75
98374 Off ch=3 n=81 v=77
98374 Off ch=3 n=86 v=75
104160 Meta TrkEnd
TrkEnd
MTrk
0 Meta TrkName "Rabin1"
0 Meta 0x20 03
0 Meta InstrName "Rabin1"
0 KeySig 0 major
235 Par ch=4 c=0 v=0
240 Par ch=4 c=32 v=0
245 PrCh ch=4 p=29
250 Par ch=4 c=7 v=100
255 Par ch=4 c=10 v=64
260 Par ch=4 c=91 v=40
265 Par ch=4 c=93 v=0
270 Par ch=4 c=101 v=0
270 Par ch=4 c=100 v=0
270 Par ch=4 c=6 v=2
275 Par ch=4 c=99 v=1
275 Par ch=4 c=98 v=8
275 Par ch=4 c=6 v=64
280 Par ch=4 c=99 v=1
280 Par ch=4 c=98 v=9
280 Par ch=4 c=6 v=64
285 Par ch=4 c=99 v=1
285 Par ch=4 c=98 v=10
285 Par ch=4 c=6 v=64
290 Par ch=4 c=99 v=1
290 Par ch=4 c=98 v=32
290 Par ch=4 c=6 v=64
295 Par ch=4 c=99 v=1
295 Par ch=4 c=98 v=33
295 Par ch=4 c=6 v=64
300 Par ch=4 c=99 v=1
300 Par ch=4 c=98 v=99
300 Par ch=4 c=6 v=64
305 Par ch=4 c=99 v=1
305 Par ch=4 c=98 v=100
305 Par ch=4 c=6 v=64
310 Par ch=4 c=99 v=1
310 Par ch=4 c=98 v=102
310 Par ch=4 c=6 v=64
5999 On ch=4 n=64 v=99
6000 Pb ch=4 v=737
6029 Pb ch=4 v=4465
6067 Pb ch=4 v=8192
9524 Off ch=4 n=64 v=99
9600 On ch=4 n=64 v=99
13099 Off ch=4 n=64 v=99
13200 On ch=4 n=64 v=98
16630 Off ch=4 n=64 v=98
16761 Pb ch=4 v=1054
16770 Pb ch=4 v=820
16795 Pb ch=4 v=1171
16804 Pb ch=4 v=1756
16810 On ch=4 n=64 v=114
16813 Pb ch=4 v=2341
16821 Pb ch=4 v=3160
16829 Pb ch=4 v=4213
16838 Pb ch=4 v=5500
16847 Pb ch=4 v=7021
16855 Pb ch=4 v=8192
17002 Off ch=4 n=64 v=114
17034 Pb ch=4 v=0
17036 On ch=4 n=64 v=122
17068 Pb ch=4 v=586
17076 Pb ch=4 v=1990
17085 Pb ch=4 v=3511
17094 Pb ch=4 v=5266
17102 Pb ch=4 v=7021
17110 Pb ch=4 v=8192
17227 Off ch=4 n=64 v=122
17280 On ch=4 n=64 v=99
20168 Off ch=4 n=64 v=99
20406 On ch=4 n=64 v=98
23704 Off ch=4 n=64 v=98
24000 On ch=4 n=64 v=97
28234 Off ch=4 n=64 v=97
28281 Pb ch=4 v=1054
28290 Pb ch=4 v=820
28315 Pb ch=4 v=1171
28324 Pb ch=4 v=1756
28330 On ch=4 n=64 v=114
28333 Pb ch=4 v=2341
28341 Pb ch=4 v=3160
28349 Pb ch=4 v=4213
28358 Pb ch=4 v=5500
28367 Pb ch=4 v=7021
28375 Pb ch=4 v=8192
28522 Off ch=4 n=64 v=114
28554 Pb ch=4 v=0
28556 On ch=4 n=64 v=122
28588 Pb ch=4 v=586
28596 Pb ch=4 v=1990
28605 Pb ch=4 v=3511
28614 Pb ch=4 v=5266
28622 Pb ch=4 v=7021
28630 Pb ch=4 v=8192
28747 Off ch=4 n=64 v=122
28807 On ch=4 n=52 v=112
28973 Off ch=4 n=52 v=112
29050 On ch=4 n=52 v=98
29164 On ch=4 n=54 v=113
29169 Off ch=4 n=52 v=98
29338 Off ch=4 n=54 v=113
29399 On ch=4 n=54 v=85
29502 Off ch=4 n=54 v=85
29528 On ch=4 n=55 v=114
29695 Off ch=4 n=55 v=114
29759 On ch=4 n=55 v=90
29879 Off ch=4 n=55 v=90
29884 On ch=4 n=57 v=98
30040 Off ch=4 n=57 v=98
30123 On ch=4 n=57 v=97
30222 Off ch=4 n=57 v=97
30240 On ch=4 n=59 v=94
30459 Off ch=4 n=59 v=94
30488 On ch=4 n=57 v=104
30590 Off ch=4 n=57 v=104
30606 On ch=4 n=55 v=85
30721 Off ch=4 n=55 v=85
30722 On ch=4 n=50 v=81
31187 Off ch=4 n=50 v=81
36001 On ch=4 n=50 v=112
36475 Off ch=4 n=50 v=112
36484 On ch=4 n=52 v=112
36945 Off ch=4 n=52 v=112
36960 On ch=4 n=55 v=111
37316 Off ch=4 n=55 v=111
37327 On ch=4 n=54 v=112
37907 Off ch=4 n=54 v=112
37920 On ch=4 n=52 v=112
38373 Off ch=4 n=52 v=112
38401 On ch=4 n=50 v=112
38875 Off ch=4 n=50 v=112
38884 On ch=4 n=52 v=112
39345 Off ch=4 n=52 v=112
39360 On ch=4 n=55 v=111
39716 Off ch=4 n=55 v=111
39727 On ch=4 n=54 v=112
40307 Off ch=4 n=54 v=112
40320 On ch=4 n=52 v=112
40773 Off ch=4 n=52 v=112
40800 On ch=4 n=50 v=116
41265 Off ch=4 n=50 v=116
41283 On ch=4 n=52 v=113
41750 Off ch=4 n=52 v=113
41760 On ch=4 n=57 v=114
42106 Off ch=4 n=57 v=114
42125 On ch=4 n=55 v=110
42464 Off ch=4 n=55 v=110
42485 On ch=4 n=59 v=113
42950 Off ch=4 n=59 v=113
42964 On ch=4 n=57 v=111
43080 Off ch=4 n=57 v=111
43082 On ch=4 n=55 v=114
43200 Off ch=4 n=55 v=114
43201 On ch=4 n=50 v=112
43675 Off ch=4 n=50 v=112
43684 On ch=4 n=52 v=112
44145 Off ch=4 n=52 v=112
44160 On ch=4 n=55 v=111
44516 Off ch=4 n=55 v=111
44527 On ch=4 n=54 v=112
45107 Off ch=4 n=54 v=112
45120 On ch=4 n=52 v=112
45573 Off ch=4 n=52 v=112
45601 On ch=4 n=50 v=112
46075 Off ch=4 n=50 v=112
46084 On ch=4 n=52 v=112
46545 Off ch=4 n=52 v=112
46560 On ch=4 n=55 v=111
46916 Off ch=4 n=55 v=111
46927 On ch=4 n=54 v=112
47507 Off ch=4 n=54 v=112
47520 On ch=4 n=52 v=112
47973 Off ch=4 n=52 v=112
48000 On ch=4 n=59 v=106
48000 On ch=4 n=62 v=106
48118 Off ch=4 n=59 v=106
48118 Off ch=4 n=62 v=106
48120 On ch=4 n=60 v=110
48120 On ch=4 n=64 v=110
48238 Off ch=4 n=60 v=110
48238 Off ch=4 n=64 v=110
48240 On ch=4 n=62 v=116
48240 On ch=4 n=66 v=116
48358 Off ch=4 n=62 v=116
48358 Off ch=4 n=66 v=116
48360 On ch=4 n=64 v=104
48360 On ch=4 n=67 v=104
48478 Off ch=4 n=64 v=104
48478 Off ch=4 n=67 v=104
48480 On ch=4 n=66 v=106
48480 On ch=4 n=69 v=106
48598 Off ch=4 n=66 v=106
48598 Off ch=4 n=69 v=106
48600 On ch=4 n=67 v=106
48600 On ch=4 n=71 v=106
48718 Off ch=4 n=67 v=106
48718 Off ch=4 n=71 v=106
48720 On ch=4 n=69 v=106
48720 On ch=4 n=72 v=106
48838 Off ch=4 n=69 v=106
48838 Off ch=4 n=72 v=106
48840 On ch=4 n=71 v=110
48840 On ch=4 n=74 v=110
48958 Off ch=4 n=71 v=110
48958 Off ch=4 n=74 v=110
48960 On ch=4 n=72 v=104
48960 On ch=4 n=76 v=104
49078 Off ch=4 n=72 v=104
49078 Off ch=4 n=76 v=104
49080 On ch=4 n=74 v=107
49080 On ch=4 n=78 v=107
49198 Off ch=4 n=74 v=107
49198 Off ch=4 n=78 v=107
49200 On ch=4 n=76 v=104
49200 On ch=4 n=79 v=104
49318 Off ch=4 n=76 v=104
49318 Off ch=4 n=79 v=104
49320 On ch=4 n=78 v=110
49320 On ch=4 n=81 v=110
49438 Off ch=4 n=78 v=110
49438 Off ch=4 n=81 v=110
49440 On ch=4 n=83 v=120
49446 On ch=4 n=79 v=120
49558 Off ch=4 n=83 v=120
49560 On ch=4 n=81 v=110
49560 On ch=4 n=84 v=110
49564 Off ch=4 n=79 v=120
49678 Off ch=4 n=81 v=110
49678 Off ch=4 n=84 v=110
49680 On ch=4 n=83 v=108
49680 On ch=4 n=86 v=108
49798 Off ch=4 n=83 v=108
49798 Off ch=4 n=86 v=108
49800 On ch=4 n=84 v=106
49800 On ch=4 n=88 v=106
49918 Off ch=4 n=84 v=106
49918 Off ch=4 n=88 v=106
49920 On ch=4 n=83 v=112
49920 On ch=4 n=86 v=112
50038 Off ch=4 n=83 v=112
50038 Off ch=4 n=86 v=112
50040 On ch=4 n=81 v=114
50040 On ch=4 n=84 v=114
50158 Off ch=4 n=81 v=114
50158 Off ch=4 n=84 v=114
50160 On ch=4 n=79 v=108
50160 On ch=4 n=83 v=108
50278 Off ch=4 n=79 v=108
50278 Off ch=4 n=83 v=108
50280 On ch=4 n=78 v=90
50280 On ch=4 n=81 v=91
50562 Par ch=4 c=1 v=3
50579 Par ch=4 c=1 v=125
50593 Pb ch=4 v=7957
50596 Par ch=4 c=1 v=127
50609 Pb ch=4 v=6904
50627 Pb ch=4 v=6085
50644 Pb ch=4 v=5500
50662 Pb ch=4 v=5383
50678 Pb ch=4 v=5500
50695 Pb ch=4 v=5968
50712 Pb ch=4 v=6670
50729 Pb ch=4 v=7489
50746 Pb ch=4 v=8192
50952 Pb ch=4 v=7489
50968 Pb ch=4 v=4213
50986 Pb ch=4 v=937
51002 Pb ch=4 v=0
51088 Pb ch=4 v=1639
51106 Pb ch=4 v=4330
51122 Pb ch=4 v=6436
51139 Pb ch=4 v=7723
51156 Pb ch=4 v=8192
51192 Par ch=4 c=1 v=48
51207 Pb ch=4 v=7957
51209 Par ch=4 c=1 v=2
51225 Pb ch=4 v=6436
51226 Par ch=4 c=1 v=0
51241 Pb ch=4 v=3511
51259 Pb ch=4 v=0
51261 Par ch=4 c=1 v=21
51278 Par ch=4 c=1 v=127
51353 Off ch=4 n=81 v=91
51359 Off ch=4 n=78 v=90
51380 Par ch=4 c=1 v=64
51395 Pb ch=4 v=586
51397 Par ch=4 c=1 v=3
51411 Pb ch=4 v=3277
51412 Par ch=4 c=1 v=0
51428 Pb ch=4 v=6670
51446 Pb ch=4 v=8192
51500 Par ch=4 c=1 v=45
51516 Par ch=4 c=1 v=121
51532 Par ch=4 c=1 v=127
51567 Par ch=4 c=1 v=101
51585 Par ch=4 c=1 v=62
51602 Par ch=4 c=1 v=7
51619 Par ch=4 c=1 v=0
55219 On ch=4 n=50 v=125
55675 Off ch=4 n=50 v=125
55681 On ch=4 n=52 v=112
56137 Off ch=4 n=52 v=112
56163 On ch=4 n=55 v=120
56521 On ch=4 n=54 v=119
56523 Off ch=4 n=55 v=120
56882 Off ch=4 n=54 v=119
56882 On ch=4 n=52 v=114
57115 On ch=4 n=50 v=121
57123 Off ch=4 n=52 v=114
57561 Off ch=4 n=50 v=121
57619 On ch=4 n=50 v=125
58075 Off ch=4 n=50 v=125
58081 On ch=4 n=52 v=112
58537 Off ch=4 n=52 v=112
58563 On ch=4 n=55 v=120
58921 On ch=4 n=54 v=119
58923 Off ch=4 n=55 v=120
59282 Off ch=4 n=54 v=119
59282 On ch=4 n=52 v=114
59515 On ch=4 n=50 v=121
59523 Off ch=4 n=52 v=114
59961 Off ch=4 n=50 v=121
60000 On ch=4 n=50 v=116
60465 Off ch=4 n=50 v=116
60483 On ch=4 n=52 v=113
60950 Off ch=4 n=52 v=113
60960 On ch=4 n=57 v=114
61306 Off ch=4 n=57 v=114
61325 On ch=4 n=55 v=110
61664 Off ch=4 n=55 v=110
61685 On ch=4 n=59 v=113
62150 Off ch=4 n=59 v=113
62164 On ch=4 n=57 v=111
62280 Off ch=4 n=57 v=111
62282 On ch=4 n=55 v=114
62400 Off ch=4 n=55 v=114
62419 On ch=4 n=50 v=125
62875 Off ch=4 n=50 v=125
62881 On ch=4 n=52 v=112
63337 Off ch=4 n=52 v=112
63363 On ch=4 n=55 v=120
63721 On ch=4 n=54 v=118
63723 Off ch=4 n=55 v=120
64315 On ch=4 n=52 v=121
64333 Off ch=4 n=54 v=118
64761 Off ch=4 n=52 v=121
64800 On ch=4 n=59 v=106
64800 On ch=4 n=62 v=106
64918 Off ch=4 n=59 v=106
64918 Off ch=4 n=62 v=106
64920 On ch=4 n=60 v=110
64920 On ch=4 n=64 v=110
65038 Off ch=4 n=60 v=110
65038 Off ch=4 n=64 v=110
65040 On ch=4 n=62 v=116
65040 On ch=4 n=66 v=116
65158 Off ch=4 n=62 v=116
65158 Off ch=4 n=66 v=116
65160 On ch=4 n=64 v=104
65160 On ch=4 n=67 v=104
65278 Off ch=4 n=64 v=104
65278 Off ch=4 n=67 v=104
65280 On ch=4 n=66 v=106
65280 On ch=4 n=69 v=106
65398 Off ch=4 n=66 v=106
65398 Off ch=4 n=69 v=106
65400 On ch=4 n=67 v=106
65400 On ch=4 n=71 v=106
65518 Off ch=4 n=67 v=106
65518 Off ch=4 n=71 v=106
65520 On ch=4 n=69 v=106
65520 On ch=4 n=72 v=106
65638 Off ch=4 n=69 v=106
65638 Off ch=4 n=72 v=106
65640 On ch=4 n=71 v=110
65640 On ch=4 n=74 v=110
65758 Off ch=4 n=71 v=110
65758 Off ch=4 n=74 v=110
65760 On ch=4 n=72 v=104
65760 On ch=4 n=76 v=104
65878 Off ch=4 n=72 v=104
65878 Off ch=4 n=76 v=104
65880 On ch=4 n=74 v=107
65880 On ch=4 n=78 v=107
65998 Off ch=4 n=74 v=107
65998 Off ch=4 n=78 v=107
66000 On ch=4 n=76 v=104
66000 On ch=4 n=79 v=104
66118 Off ch=4 n=76 v=104
66118 Off ch=4 n=79 v=104
66120 On ch=4 n=78 v=110
66120 On ch=4 n=81 v=110
66238 Off ch=4 n=78 v=110
66238 Off ch=4 n=81 v=110
66240 On ch=4 n=83 v=120
66246 On ch=4 n=79 v=120
66358 Off ch=4 n=83 v=120
66360 On ch=4 n=81 v=110
66360 On ch=4 n=84 v=110
66364 Off ch=4 n=79 v=120
66478 Off ch=4 n=81 v=110
66478 Off ch=4 n=84 v=110
66480 On ch=4 n=83 v=108
66480 On ch=4 n=86 v=108
66598 Off ch=4 n=83 v=108
66598 Off ch=4 n=86 v=108
66600 On ch=4 n=84 v=106
66600 On ch=4 n=88 v=106
66718 Off ch=4 n=84 v=106
66718 Off ch=4 n=88 v=106
66720 On ch=4 n=83 v=112
66720 On ch=4 n=86 v=112
66838 Off ch=4 n=83 v=112
66838 Off ch=4 n=86 v=112
66840 On ch=4 n=81 v=114
66840 On ch=4 n=84 v=114
66958 Off ch=4 n=81 v=114
66958 Off ch=4 n=84 v=114
66960 On ch=4 n=79 v=108
66960 On ch=4 n=83 v=108
67078 Off ch=4 n=79 v=108
67078 Off ch=4 n=83 v=108
67080 On ch=4 n=81 v=92
67080 On ch=4 n=78 v=90
67362 Par ch=4 c=1 v=3
67379 Par ch=4 c=1 v=125
67396 Par ch=4 c=1 v=127
67509 Pb ch=4 v=9596
67526 Pb ch=4 v=11592
67543 Pb ch=4 v=13066
67559 Pb ch=4 v=14336
67577 Pb ch=4 v=15155
67595 Pb ch=4 v=15933
67611 Pb ch=4 v=0
67644 Off ch=4 n=81 v=92
67651 Off ch=4 n=78 v=90
67992 Par ch=4 c=1 v=48
68009 Par ch=4 c=1 v=2
68026 Par ch=4 c=1 v=0
68061 Par ch=4 c=1 v=21
68078 Par ch=4 c=1 v=127
68160 Pb ch=4 v=8192
68180 Par ch=4 c=1 v=64
68197 Par ch=4 c=1 v=3
68212 Par ch=4 c=1 v=0
68300 Par ch=4 c=1 v=45
68316 Par ch=4 c=1 v=121
68332 Par ch=4 c=1 v=127
68367 Par ch=4 c=1 v=101
68385 Par ch=4 c=1 v=62
68402 Par ch=4 c=1 v=7
68419 Par ch=4 c=1 v=0
81619 On ch=4 n=50 v=125
82075 Off ch=4 n=50 v=125
82081 On ch=4 n=52 v=112
82537 Off ch=4 n=52 v=112
82563 On ch=4 n=55 v=120
82921 On ch=4 n=54 v=119
82923 Off ch=4 n=55 v=120
83282 Off ch=4 n=54 v=119
83282 On ch=4 n=52 v=114
83515 On ch=4 n=50 v=121
83523 Off ch=4 n=52 v=114
83961 Off ch=4 n=50 v=121
84019 On ch=4 n=50 v=125
84475 Off ch=4 n=50 v=125
84481 On ch=4 n=52 v=112
84937 Off ch=4 n=52 v=112
84963 On ch=4 n=55 v=120
85321 On ch=4 n=54 v=119
85323 Off ch=4 n=55 v=120
85682 Off ch=4 n=54 v=119
85682 On ch=4 n=52 v=114
85915 On ch=4 n=50 v=121
85923 Off ch=4 n=52 v=114
86361 Off ch=4 n=50 v=121
86400 On ch=4 n=50 v=116
86865 Off ch=4 n=50 v=116
86883 On ch=4 n=52 v=113
87350 Off ch=4 n=52 v=113
87360 On ch=4 n=57 v=114
87706 Off ch=4 n=57 v=114
87725 On ch=4 n=55 v=110
88064 Off ch=4 n=55 v=110
88085 On ch=4 n=59 v=113
88550 Off ch=4 n=59 v=113
88564 On ch=4 n=57 v=111
88680 Off ch=4 n=57 v=111
88682 On ch=4 n=55 v=114
88800 Off ch=4 n=55 v=114
88819 On ch=4 n=50 v=125
89275 Off ch=4 n=50 v=125
89281 On ch=4 n=52 v=112
89737 Off ch=4 n=52 v=112
89763 On ch=4 n=55 v=120
90121 On ch=4 n=54 v=118
90123 Off ch=4 n=55 v=120
90715 On ch=4 n=52 v=121
90733 Off ch=4 n=54 v=118
91161 Off ch=4 n=52 v=121
91200 On ch=4 n=59 v=106
91200 On ch=4 n=62 v=106
91318 Off ch=4 n=59 v=106
91318 Off ch=4 n=62 v=106
91320 On ch=4 n=60 v=110
91320 On ch=4 n=64 v=110
91438 Off ch=4 n=60 v=110
91438 Off ch=4 n=64 v=110
91440 On ch=4 n=62 v=116
91440 On ch=4 n=66 v=116
91558 Off ch=4 n=62 v=116
91558 Off ch=4 n=66 v=116
91560 On ch=4 n=64 v=104
91560 On ch=4 n=67 v=104
91678 Off ch=4 n=64 v=104
91678 Off ch=4 n=67 v=104
91680 On ch=4 n=66 v=106
91680 On ch=4 n=69 v=106
91798 Off ch=4 n=66 v=106
91798 Off ch=4 n=69 v=106
91800 On ch=4 n=67 v=106
91800 On ch=4 n=71 v=106
91918 Off ch=4 n=67 v=106
91918 Off ch=4 n=71 v=106
91920 On ch=4 n=69 v=106
91920 On ch=4 n=72 v=106
92038 Off ch=4 n=69 v=106
92038 Off ch=4 n=72 v=106
92040 On ch=4 n=71 v=110
92040 On ch=4 n=74 v=110
92158 Off ch=4 n=71 v=110
92158 Off ch=4 n=74 v=110
92160 On ch=4 n=72 v=104
92160 On ch=4 n=76 v=104
92278 Off ch=4 n=72 v=104
92278 Off ch=4 n=76 v=104
92280 On ch=4 n=74 v=107
92280 On ch=4 n=78 v=107
92398 Off ch=4 n=74 v=107
92398 Off ch=4 n=78 v=107
92400 On ch=4 n=76 v=104
92400 On ch=4 n=79 v=104
92518 Off ch=4 n=76 v=104
92518 Off ch=4 n=79 v=104
92520 On ch=4 n=78 v=110
92520 On ch=4 n=81 v=110
92638 Off ch=4 n=78 v=110
92638 Off ch=4 n=81 v=110
92640 On ch=4 n=83 v=120
92646 On ch=4 n=79 v=120
92758 Off ch=4 n=83 v=120
92760 On ch=4 n=81 v=110
92760 On ch=4 n=84 v=110
92764 Off ch=4 n=79 v=120
92878 Off ch=4 n=81 v=110
92878 Off ch=4 n=84 v=110
92880 On ch=4 n=83 v=108
92880 On ch=4 n=86 v=108
92998 Off ch=4 n=83 v=108
92998 Off ch=4 n=86 v=108
93000 On ch=4 n=84 v=106
93000 On ch=4 n=88 v=106
93118 Off ch=4 n=84 v=106
93118 Off ch=4 n=88 v=106
93120 On ch=4 n=83 v=112
93120 On ch=4 n=86 v=112
93238 Off ch=4 n=83 v=112
93238 Off ch=4 n=86 v=112
93240 On ch=4 n=81 v=114
93240 On ch=4 n=84 v=114
93358 Off ch=4 n=81 v=114
93358 Off ch=4 n=84 v=114
93360 On ch=4 n=79 v=108
93360 On ch=4 n=83 v=108
93478 Off ch=4 n=79 v=108
93478 Off ch=4 n=83 v=108
93480 On ch=4 n=81 v=92
93480 On ch=4 n=78 v=90
93762 Par ch=4 c=1 v=3
93779 Par ch=4 c=1 v=125
93796 Par ch=4 c=1 v=127
93909 Pb ch=4 v=9596
93926 Pb ch=4 v=11592
93943 Pb ch=4 v=13066
93959 Pb ch=4 v=14336
93977 Pb ch=4 v=15155
93995 Pb ch=4 v=15933
94011 Pb ch=4 v=0
94044 Off ch=4 n=81 v=92
94051 Off ch=4 n=78 v=90
94392 Par ch=4 c=1 v=48
94409 Par ch=4 c=1 v=2
94426 Par ch=4 c=1 v=0
94461 Par ch=4 c=1 v=21
94478 Par ch=4 c=1 v=127
94560 Pb ch=4 v=8192
94580 Par ch=4 c=1 v=64
94597 Par ch=4 c=1 v=3
94612 Par ch=4 c=1 v=0
94700 Par ch=4 c=1 v=45
94716 Par ch=4 c=1 v=121
94732 Par ch=4 c=1 v=127
94767 Par ch=4 c=1 v=101
94785 Par ch=4 c=1 v=62
94802 Par ch=4 c=1 v=7
94819 Par ch=4 c=1 v=0
104160 Meta TrkEnd
TrkEnd
MTrk
0 Meta TrkName "Rabin2"
0 Meta 0x20 04
0 Meta InstrName "Rabin2"
0 KeySig 0 major
315 Par ch=5 c=0 v=0
320 Par ch=5 c=32 v=0
325 PrCh ch=5 p=29
330 Par ch=5 c=7 v=100
335 Par ch=5 c=10 v=64
340 Par ch=5 c=91 v=40
345 Par ch=5 c=93 v=0
350 Par ch=5 c=65 v=0
355 Par ch=5 c=101 v=0
355 Par ch=5 c=100 v=0
355 Par ch=5 c=6 v=12
360 Par ch=5 c=99 v=1
360 Par ch=5 c=98 v=8
360 Par ch=5 c=6 v=64
365 Par ch=5 c=99 v=1
365 Par ch=5 c=98 v=9
365 Par ch=5 c=6 v=64
370 Par ch=5 c=99 v=1
370 Par ch=5 c=98 v=10
370 Par ch=5 c=6 v=64
375 Par ch=5 c=99 v=1
375 Par ch=5 c=98 v=32
375 Par ch=5 c=6 v=64
380 Par ch=5 c=99 v=1
380 Par ch=5 c=98 v=33
380 Par ch=5 c=6 v=64
385 Par ch=5 c=99 v=1
385 Par ch=5 c=98 v=99
385 Par ch=5 c=6 v=64
390 Par ch=5 c=99 v=1
390 Par ch=5 c=98 v=100
390 Par ch=5 c=6 v=64
395 Par ch=5 c=99 v=1
395 Par ch=5 c=98 v=102
395 Par ch=5 c=6 v=64
19320 Par ch=5 c=65 v=127
19320 On ch=5 n=64 v=1
19350 Off ch=5 n=64 v=1
20640 Par ch=5 c=5 v=52
20892 On ch=5 n=64 v=110
21367 On ch=5 n=71 v=122
21377 Off ch=5 n=64 v=110
21480 Par ch=5 c=5 v=64
21876 On ch=5 n=67 v=127
21881 Off ch=5 n=71 v=122
22370 On ch=5 n=69 v=125
22378 Off ch=5 n=67 v=127
23019 Off ch=5 n=69 v=125
23028 On ch=5 n=64 v=122
23969 Off ch=5 n=64 v=122
24480 On ch=5 n=64 v=112
24999 On ch=5 n=71 v=125
25002 Off ch=5 n=64 v=112
25200 Par ch=5 c=5 v=52
25505 Off ch=5 n=71 v=125
25515 On ch=5 n=67 v=125
25680 Par ch=5 c=5 v=64
25976 Off ch=5 n=67 v=125
25977 On ch=5 n=69 v=126
26688 Off ch=5 n=69 v=126
26698 On ch=5 n=62 v=127
27360 Par ch=5 c=5 v=70
27576 On ch=5 n=91 v=123
27589 Off ch=5 n=62 v=127
28786 Off ch=5 n=91 v=123
29280 Par ch=5 c=65 v=0
31200 On ch=5 n=66 v=120
31200 On ch=5 n=62 v=97
31299 Off ch=5 n=62 v=97
31300 Off ch=5 n=66 v=120
31303 On ch=5 n=62 v=93
31307 On ch=5 n=66 v=92
31405 Off ch=5 n=62 v=93
31408 Off ch=5 n=66 v=92
31408 On ch=5 n=62 v=97
31417 On ch=5 n=66 v=110
31614 Off ch=5 n=62 v=97
31619 Off ch=5 n=66 v=110
31674 On ch=5 n=64 v=113
31680 On ch=5 n=60 v=110
31869 Off ch=5 n=60 v=110
31886 Off ch=5 n=64 v=113
31919 On ch=5 n=66 v=110
31921 On ch=5 n=62 v=98
32025 Off ch=5 n=66 v=110
32029 Off ch=5 n=62 v=98
32039 On ch=5 n=64 v=111
32046 On ch=5 n=67 v=113
32164 Off ch=5 n=67 v=113
32171 Off ch=5 n=64 v=111
32282 On ch=5 n=64 v=113
32282 On ch=5 n=67 v=113
32400 Off ch=5 n=67 v=113
32401 Off ch=5 n=64 v=113
32401 On ch=5 n=62 v=101
32402 On ch=5 n=66 v=103
32585 Off ch=5 n=62 v=101
32593 Off ch=5 n=66 v=103
32639 On ch=5 n=67 v=105
32645 On ch=5 n=64 v=102
32785 Off ch=5 n=64 v=102
32790 Off ch=5 n=67 v=105
32880 On ch=5 n=62 v=84
32882 On ch=5 n=66 v=113
33064 Off ch=5 n=62 v=84
33064 Off ch=5 n=66 v=113
33120 On ch=5 n=64 v=120
33121 On ch=5 n=60 v=120
33300 Off ch=5 n=60 v=120
33303 Off ch=5 n=64 v=120
33359 On ch=5 n=62 v=112
33365 On ch=5 n=66 v=119
33543 Off ch=5 n=62 v=112
33549 Off ch=5 n=66 v=119
33600 On ch=5 n=62 v=94
33600 On ch=5 n=66 v=117
33699 Off ch=5 n=62 v=94
33700 Off ch=5 n=66 v=117
33703 On ch=5 n=62 v=90
33707 On ch=5 n=66 v=89
33805 Off ch=5 n=62 v=90
33808 Off ch=5 n=66 v=89
33808 On ch=5 n=62 v=94
33817 On ch=5 n=66 v=107
34014 Off ch=5 n=62 v=94
34019 Off ch=5 n=66 v=107
34074 On ch=5 n=64 v=110
34080 On ch=5 n=60 v=107
34269 Off ch=5 n=60 v=107
34286 Off ch=5 n=64 v=110
34319 On ch=5 n=66 v=107
34321 On ch=5 n=62 v=95
34425 Off ch=5 n=66 v=107
34429 Off ch=5 n=62 v=95
34439 On ch=5 n=64 v=108
34446 On ch=5 n=67 v=110
34564 Off ch=5 n=67 v=110
34571 Off ch=5 n=64 v=108
34682 On ch=5 n=67 v=111
34682 On ch=5 n=64 v=110
34905 Off ch=5 n=67 v=111
34906 Off ch=5 n=64 v=110
34920 On ch=5 n=67 v=101
34925 On ch=5 n=64 v=98
35039 On ch=5 n=66 v=81
35041 Off ch=5 n=64 v=98
35043 Off ch=5 n=67 v=101
35045 On ch=5 n=62 v=78
35185 Off ch=5 n=62 v=78
35190 Off ch=5 n=66 v=81
35280 On ch=5 n=60 v=81
35282 On ch=5 n=64 v=110
35458 Off ch=5 n=60 v=81
35464 Off ch=5 n=64 v=110
35520 On ch=5 n=66 v=117
35521 On ch=5 n=62 v=117
35700 Off ch=5 n=62 v=117
35703 Off ch=5 n=66 v=117
35759 On ch=5 n=60 v=109
35759 On ch=5 n=64 v=116
35943 Off ch=5 n=60 v=109
35943 Off ch=5 n=64 v=116
48000 KeySig 3 major
50400 KeySig 0 major
50400 On ch=5 n=62 v=96
50400 On ch=5 n=66 v=96
50400 On ch=5 n=69 v=120
50499 Off ch=5 n=62 v=96
50499 Off ch=5 n=66 v=96
50500 Off ch=5 n=69 v=120
50520 On ch=5 n=69 v=93
50522 On ch=5 n=62 v=93
50522 On ch=5 n=66 v=93
50630 Off ch=5 n=62 v=93
50630 Off ch=5 n=66 v=93
50634 Off ch=5 n=69 v=93
50639 On ch=5 n=62 v=97
50639 On ch=5 n=66 v=97
50642 On ch=5 n=69 v=110
50748 Off ch=5 n=62 v=97
50748 Off ch=5 n=66 v=97
50748 Off ch=5 n=69 v=110
50760 On ch=5 n=66 v=97
50760 On ch=5 n=62 v=97
50760 On ch=5 n=69 v=110
50869 Off ch=5 n=69 v=110
50870 Off ch=5 n=66 v=97
50870 Off ch=5 n=62 v=97
50874 On ch=5 n=60 v=108
50880 On ch=5 n=66 v=80
50880 On ch=5 n=69 v=113
51092 Off ch=5 n=66 v=80
51092 Off ch=5 n=69 v=113
51094 Off ch=5 n=60 v=108
51119 On ch=5 n=66 v=84
51119 On ch=5 n=71 v=110
51121 On ch=5 n=62 v=95
51225 Off ch=5 n=66 v=84
51225 Off ch=5 n=71 v=110
51229 Off ch=5 n=62 v=95
51239 On ch=5 n=64 v=108
51246 On ch=5 n=72 v=113
51246 On ch=5 n=67 v=110
51364 Off ch=5 n=72 v=113
51364 Off ch=5 n=67 v=110
51371 Off ch=5 n=64 v=108
51482 On ch=5 n=64 v=110
51482 On ch=5 n=67 v=111
51482 On ch=5 n=72 v=113
51598 Off ch=5 n=67 v=111
51599 Off ch=5 n=64 v=110
51599 On ch=5 n=62 v=98
51600 Off ch=5 n=72 v=113
51601 On ch=5 n=66 v=68
51602 On ch=5 n=71 v=103
51793 Off ch=5 n=66 v=68
51793 Off ch=5 n=71 v=103
51803 Off ch=5 n=62 v=98
51839 On ch=5 n=69 v=105
51839 On ch=5 n=64 v=81
51845 On ch=5 n=60 v=78
51985 Off ch=5 n=60 v=78
51990 Off ch=5 n=69 v=105
51990 Off ch=5 n=64 v=81
52080 On ch=5 n=62 v=81
52082 On ch=5 n=66 v=77
52082 On ch=5 n=71 v=113
52258 Off ch=5 n=62 v=81
52264 Off ch=5 n=71 v=113
52270 Off ch=5 n=66 v=77
52320 On ch=5 n=72 v=120
52320 On ch=5 n=67 v=117
52321 On ch=5 n=64 v=117
52500 Off ch=5 n=64 v=117
52503 Off ch=5 n=72 v=120
52503 Off ch=5 n=67 v=117
52553 On ch=5 n=62 v=109
52559 On ch=5 n=66 v=77
52559 On ch=5 n=71 v=119
52737 Off ch=5 n=62 v=109
52743 Off ch=5 n=66 v=77
52743 Off ch=5 n=71 v=119
52800 On ch=5 n=62 v=96
52800 On ch=5 n=66 v=96
52800 On ch=5 n=69 v=120
52899 Off ch=5 n=62 v=96
52899 Off ch=5 n=66 v=96
52900 Off ch=5 n=69 v=120
52920 On ch=5 n=69 v=93
52922 On ch=5 n=62 v=93
52922 On ch=5 n=66 v=93
53030 Off ch=5 n=62 v=93
53030 Off ch=5 n=66 v=93
53034 Off ch=5 n=69 v=93
53039 On ch=5 n=62 v=97
53039 On ch=5 n=66 v=97
53042 On ch=5 n=69 v=110
53148 Off ch=5 n=62 v=97
53148 Off ch=5 n=66 v=97
53148 Off ch=5 n=69 v=110
53160 On ch=5 n=66 v=97
53160 On ch=5 n=62 v=97
53160 On ch=5 n=69 v=110
53269 Off ch=5 n=69 v=110
53270 Off ch=5 n=66 v=97
53270 Off ch=5 n=62 v=97
53274 On ch=5 n=60 v=108
53280 On ch=5 n=66 v=80
53280 On ch=5 n=69 v=113
53492 Off ch=5 n=66 v=80
53492 Off ch=5 n=69 v=113
53494 Off ch=5 n=60 v=108
53519 On ch=5 n=66 v=84
53519 On ch=5 n=71 v=110
53521 On ch=5 n=62 v=95
53625 Off ch=5 n=66 v=84
53625 Off ch=5 n=71 v=110
53629 Off ch=5 n=62 v=95
53639 On ch=5 n=64 v=108
53646 On ch=5 n=72 v=113
53646 On ch=5 n=67 v=110
53764 Off ch=5 n=72 v=113
53764 Off ch=5 n=67 v=110
53771 Off ch=5 n=64 v=108
53882 On ch=5 n=64 v=110
53882 On ch=5 n=67 v=111
53882 On ch=5 n=72 v=113
53998 Off ch=5 n=67 v=111
53999 Off ch=5 n=64 v=110
53999 On ch=5 n=62 v=98
54000 Off ch=5 n=72 v=113
54001 On ch=5 n=66 v=68
54002 On ch=5 n=71 v=103
54193 Off ch=5 n=66 v=68
54193 Off ch=5 n=71 v=103
54203 Off ch=5 n=62 v=98
54239 On ch=5 n=69 v=105
54239 On ch=5 n=64 v=81
54245 On ch=5 n=60 v=78
54385 Off ch=5 n=60 v=78
54390 Off ch=5 n=69 v=105
54390 Off ch=5 n=64 v=81
54480 On ch=5 n=62 v=81
54482 On ch=5 n=66 v=77
54482 On ch=5 n=71 v=113
54658 Off ch=5 n=62 v=81
54664 Off ch=5 n=71 v=113
54670 Off ch=5 n=66 v=77
54720 On ch=5 n=72 v=120
54720 On ch=5 n=67 v=117
54721 On ch=5 n=64 v=117
54900 Off ch=5 n=64 v=117
54903 Off ch=5 n=72 v=120
54903 Off ch=5 n=67 v=117
54953 On ch=5 n=62 v=109
54959 On ch=5 n=66 v=77
54959 On ch=5 n=71 v=119
55137 Off ch=5 n=62 v=109
55143 Off ch=5 n=66 v=77
55143 Off ch=5 n=71 v=119
67200 On ch=5 n=62 v=96
67200 On ch=5 n=66 v=96
67200 On ch=5 n=69 v=120
67299 Off ch=5 n=62 v=96
67299 Off ch=5 n=66 v=96
67300 Off ch=5 n=69 v=120
67320 On ch=5 n=69 v=93
67322 On ch=5 n=62 v=93
67322 On ch=5 n=66 v=93
67430 Off ch=5 n=62 v=93
67430 Off ch=5 n=66 v=93
67434 Off ch=5 n=69 v=93
67439 On ch=5 n=62 v=97
67439 On ch=5 n=66 v=97
67442 On ch=5 n=69 v=110
67548 Off ch=5 n=62 v=97
67548 Off ch=5 n=66 v=97
67548 Off ch=5 n=69 v=110
67560 On ch=5 n=66 v=97
67560 On ch=5 n=62 v=97
67560 On ch=5 n=69 v=110
67669 Off ch=5 n=69 v=110
67670 Off ch=5 n=66 v=97
67670 Off ch=5 n=62 v=97
67674 On ch=5 n=60 v=108
67680 On ch=5 n=66 v=80
67680 On ch=5 n=69 v=113
67892 Off ch=5 n=66 v=80
67892 Off ch=5 n=69 v=113
67894 Off ch=5 n=60 v=108
67919 On ch=5 n=66 v=84
67919 On ch=5 n=71 v=110
67921 On ch=5 n=62 v=95
68025 Off ch=5 n=66 v=84
68025 Off ch=5 n=71 v=110
68029 Off ch=5 n=62 v=95
68039 On ch=5 n=64 v=108
68046 On ch=5 n=72 v=113
68046 On ch=5 n=67 v=110
68164 Off ch=5 n=72 v=113
68164 Off ch=5 n=67 v=110
68171 Off ch=5 n=64 v=108
68282 On ch=5 n=64 v=110
68282 On ch=5 n=67 v=111
68282 On ch=5 n=72 v=113
68398 Off ch=5 n=67 v=111
68399 Off ch=5 n=64 v=110
68399 On ch=5 n=62 v=98
68400 Off ch=5 n=72 v=113
68401 On ch=5 n=66 v=68
68402 On ch=5 n=71 v=103
68593 Off ch=5 n=66 v=68
68593 Off ch=5 n=71 v=103
68603 Off ch=5 n=62 v=98
68639 On ch=5 n=69 v=105
68639 On ch=5 n=64 v=81
68645 On ch=5 n=60 v=78
68785 Off ch=5 n=60 v=78
68790 Off ch=5 n=69 v=105
68790 Off ch=5 n=64 v=81
68880 On ch=5 n=62 v=81
68882 On ch=5 n=66 v=77
68882 On ch=5 n=71 v=113
69058 Off ch=5 n=62 v=81
69064 Off ch=5 n=71 v=113
69070 Off ch=5 n=66 v=77
69120 On ch=5 n=72 v=120
69120 On ch=5 n=67 v=117
69121 On ch=5 n=64 v=117
69300 Off ch=5 n=64 v=117
69303 Off ch=5 n=72 v=120
69303 Off ch=5 n=67 v=117
69353 On ch=5 n=62 v=109
69359 On ch=5 n=66 v=77
69359 On ch=5 n=71 v=119
69537 Off ch=5 n=62 v=109
69543 Off ch=5 n=66 v=77
69543 Off ch=5 n=71 v=119
69600 On ch=5 n=62 v=96
69600 On ch=5 n=66 v=96
69600 On ch=5 n=69 v=120
69699 Off ch=5 n=62 v=96
69699 Off ch=5 n=66 v=96
69700 Off ch=5 n=69 v=120
69720 On ch=5 n=69 v=93
69722 On ch=5 n=62 v=93
69722 On ch=5 n=66 v=93
69830 Off ch=5 n=62 v=93
69830 Off ch=5 n=66 v=93
69834 Off ch=5 n=69 v=93
69839 On ch=5 n=62 v=97
69839 On ch=5 n=66 v=97
69842 On ch=5 n=69 v=110
69948 Off ch=5 n=62 v=97
69948 Off ch=5 n=66 v=97
69948 Off ch=5 n=69 v=110
69960 On ch=5 n=66 v=97
69960 On ch=5 n=62 v=97
69960 On ch=5 n=69 v=110
70069 Off ch=5 n=69 v=110
70070 Off ch=5 n=66 v=97
70070 Off ch=5 n=62 v=97
70074 On ch=5 n=60 v=108
70080 On ch=5 n=66 v=80
70080 On ch=5 n=69 v=113
70292 Off ch=5 n=66 v=80
70292 Off ch=5 n=69 v=113
70294 Off ch=5 n=60 v=108
70319 On ch=5 n=66 v=84
70319 On ch=5 n=71 v=110
70321 On ch=5 n=62 v=95
70425 Off ch=5 n=66 v=84
70425 Off ch=5 n=71 v=110
70429 Off ch=5 n=62 v=95
70439 On ch=5 n=64 v=108
70446 On ch=5 n=72 v=113
70446 On ch=5 n=67 v=110
70564 Off ch=5 n=72 v=113
70564 Off ch=5 n=67 v=110
70571 Off ch=5 n=64 v=108
70682 On ch=5 n=64 v=110
70682 On ch=5 n=67 v=111
70682 On ch=5 n=72 v=113
70798 Off ch=5 n=67 v=111
70799 Off ch=5 n=64 v=110
70799 On ch=5 n=62 v=98
70800 Off ch=5 n=72 v=113
70801 On ch=5 n=66 v=68
70802 On ch=5 n=71 v=103
70993 Off ch=5 n=66 v=68
70993 Off ch=5 n=71 v=103
71003 Off ch=5 n=62 v=98
71039 On ch=5 n=69 v=105
71039 On ch=5 n=64 v=81
71045 On ch=5 n=60 v=78
71185 Off ch=5 n=60 v=78
71190 Off ch=5 n=69 v=105
71190 Off ch=5 n=64 v=81
71280 On ch=5 n=62 v=81
71282 On ch=5 n=66 v=77
71282 On ch=5 n=71 v=113
71458 Off ch=5 n=62 v=81
71464 Off ch=5 n=71 v=113
71470 Off ch=5 n=66 v=77
71520 On ch=5 n=72 v=120
71520 On ch=5 n=67 v=117
71521 On ch=5 n=64 v=117
71700 Off ch=5 n=64 v=117
71703 Off ch=5 n=72 v=120
71703 Off ch=5 n=67 v=117
71753 On ch=5 n=62 v=109
71759 On ch=5 n=66 v=77
71759 On ch=5 n=71 v=119
71937 Off ch=5 n=62 v=109
71943 Off ch=5 n=66 v=77
71943 Off ch=5 n=71 v=119
93600 On ch=5 n=62 v=96
93600 On ch=5 n=66 v=96
93600 On ch=5 n=69 v=120
93699 Off ch=5 n=62 v=96
93699 Off ch=5 n=66 v=96
93700 Off ch=5 n=69 v=120
93720 On ch=5 n=69 v=93
93722 On ch=5 n=62 v=93
93722 On ch=5 n=66 v=93
93830 Off ch=5 n=62 v=93
93830 Off ch=5 n=66 v=93
93834 Off ch=5 n=69 v=93
93839 On ch=5 n=62 v=97
93839 On ch=5 n=66 v=97
93842 On ch=5 n=69 v=110
93948 Off ch=5 n=62 v=97
93948 Off ch=5 n=66 v=97
93948 Off ch=5 n=69 v=110
93960 On ch=5 n=66 v=97
93960 On ch=5 n=62 v=97
93960 On ch=5 n=69 v=110
94069 Off ch=5 n=69 v=110
94070 Off ch=5 n=66 v=97
94070 Off ch=5 n=62 v=97
94074 On ch=5 n=60 v=108
94080 On ch=5 n=66 v=80
94080 On ch=5 n=69 v=113
94292 Off ch=5 n=66 v=80
94292 Off ch=5 n=69 v=113
94294 Off ch=5 n=60 v=108
94319 On ch=5 n=66 v=84
94319 On ch=5 n=71 v=110
94321 On ch=5 n=62 v=95
94425 Off ch=5 n=66 v=84
94425 Off ch=5 n=71 v=110
94429 Off ch=5 n=62 v=95
94439 On ch=5 n=64 v=108
94446 On ch=5 n=72 v=113
94446 On ch=5 n=67 v=110
94564 Off ch=5 n=72 v=113
94564 Off ch=5 n=67 v=110
94571 Off ch=5 n=64 v=108
94682 On ch=5 n=64 v=110
94682 On ch=5 n=67 v=111
94682 On ch=5 n=72 v=113
94798 Off ch=5 n=67 v=111
94799 Off ch=5 n=64 v=110
94799 On ch=5 n=62 v=98
94800 Off ch=5 n=72 v=113
94801 On ch=5 n=66 v=68
94802 On ch=5 n=71 v=103
94993 Off ch=5 n=66 v=68
94993 Off ch=5 n=71 v=103
95003 Off ch=5 n=62 v=98
95039 On ch=5 n=69 v=105
95039 On ch=5 n=64 v=81
95045 On ch=5 n=60 v=78
95185 Off ch=5 n=60 v=78
95190 Off ch=5 n=69 v=105
95190 Off ch=5 n=64 v=81
95280 On ch=5 n=62 v=81
95282 On ch=5 n=66 v=77
95282 On ch=5 n=71 v=113
95458 Off ch=5 n=62 v=81
95464 Off ch=5 n=71 v=113
95470 Off ch=5 n=66 v=77
95520 On ch=5 n=72 v=120
95520 On ch=5 n=67 v=117
95521 On ch=5 n=64 v=117
95700 Off ch=5 n=64 v=117
95703 Off ch=5 n=72 v=120
95703 Off ch=5 n=67 v=117
95753 On ch=5 n=62 v=109
95759 On ch=5 n=66 v=77
95759 On ch=5 n=71 v=119
95937 Off ch=5 n=62 v=109
95943 Off ch=5 n=66 v=77
95943 Off ch=5 n=71 v=119
96000 On ch=5 n=62 v=96
96000 On ch=5 n=66 v=96
96000 On ch=5 n=69 v=120
96099 Off ch=5 n=62 v=96
96099 Off ch=5 n=66 v=96
96100 Off ch=5 n=69 v=120
96120 On ch=5 n=69 v=93
96122 On ch=5 n=62 v=93
96122 On ch=5 n=66 v=93
96230 Off ch=5 n=62 v=93
96230 Off ch=5 n=66 v=93
96234 Off ch=5 n=69 v=93
96239 On ch=5 n=62 v=97
96239 On ch=5 n=66 v=97
96242 On ch=5 n=69 v=110
96348 Off ch=5 n=62 v=97
96348 Off ch=5 n=66 v=97
96348 Off ch=5 n=69 v=110
96360 On ch=5 n=66 v=97
96360 On ch=5 n=62 v=97
96360 On ch=5 n=69 v=110
96469 Off ch=5 n=69 v=110
96470 Off ch=5 n=66 v=97
96470 Off ch=5 n=62 v=97
96474 On ch=5 n=60 v=108
96480 On ch=5 n=66 v=80
96480 On ch=5 n=69 v=113
96692 Off ch=5 n=66 v=80
96692 Off ch=5 n=69 v=113
96694 Off ch=5 n=60 v=108
96719 On ch=5 n=66 v=84
96719 On ch=5 n=71 v=110
96721 On ch=5 n=62 v=95
96825 Off ch=5 n=66 v=84
96825 Off ch=5 n=71 v=110
96829 Off ch=5 n=62 v=95
96839 On ch=5 n=64 v=108
96846 On ch=5 n=72 v=113
96846 On ch=5 n=67 v=110
96964 Off ch=5 n=72 v=113
96964 Off ch=5 n=67 v=110
96971 Off ch=5 n=64 v=108
97082 On ch=5 n=64 v=110
97082 On ch=5 n=67 v=111
97082 On ch=5 n=72 v=113
97198 Off ch=5 n=67 v=111
97199 Off ch=5 n=64 v=110
97199 On ch=5 n=62 v=98
97200 Off ch=5 n=72 v=113
97201 On ch=5 n=66 v=68
97202 On ch=5 n=71 v=103
97393 Off ch=5 n=66 v=68
97393 Off ch=5 n=71 v=103
97403 Off ch=5 n=62 v=98
97439 On ch=5 n=69 v=105
97439 On ch=5 n=64 v=81
97445 On ch=5 n=60 v=78
97585 Off ch=5 n=60 v=78
97590 Off ch=5 n=69 v=105
97590 Off ch=5 n=64 v=81
97680 On ch=5 n=62 v=81
97682 On ch=5 n=66 v=77
97682 On ch=5 n=71 v=113
97858 Off ch=5 n=62 v=81
97864 Off ch=5 n=71 v=113
97870 Off ch=5 n=66 v=77
97920 On ch=5 n=72 v=120
97920 On ch=5 n=67 v=117
97921 On ch=5 n=64 v=117
98100 Off ch=5 n=64 v=117
98103 Off ch=5 n=72 v=120
98103 Off ch=5 n=67 v=117
98153 On ch=5 n=62 v=109
98159 On ch=5 n=66 v=77
98159 On ch=5 n=71 v=119
98337 Off ch=5 n=62 v=109
98343 Off ch=5 n=66 v=77
98343 Off ch=5 n=71 v=119
104160 Meta TrkEnd
TrkEnd
MTrk
0 Meta TrkName "Rabin3"
0 Meta 0x20 05
0 Meta InstrName "Rabin3"
0 KeySig 0 major
400 Par ch=6 c=0 v=16
405 Par ch=6 c=32 v=0
410 PrCh ch=6 p=25
415 Par ch=6 c=7 v=100
420 Par ch=6 c=10 v=64
425 Par ch=6 c=91 v=114
430 Par ch=6 c=93 v=81
435 Par ch=6 c=101 v=0
435 Par ch=6 c=100 v=0
435 Par ch=6 c=6 v=2
440 Par ch=6 c=99 v=1
440 Par ch=6 c=98 v=8
440 Par ch=6 c=6 v=64
445 Par ch=6 c=99 v=1
445 Par ch=6 c=98 v=9
445 Par ch=6 c=6 v=64
450 Par ch=6 c=99 v=1
450 Par ch=6 c=98 v=10
450 Par ch=6 c=6 v=64
455 Par ch=6 c=99 v=1
455 Par ch=6 c=98 v=32
455 Par ch=6 c=6 v=64
460 Par ch=6 c=99 v=1
460 Par ch=6 c=98 v=33
460 Par ch=6 c=6 v=64
465 Par ch=6 c=99 v=1
465 Par ch=6 c=98 v=99
465 Par ch=6 c=6 v=64
470 Par ch=6 c=99 v=1
470 Par ch=6 c=98 v=100
470 Par ch=6 c=6 v=64
475 Par ch=6 c=99 v=1
475 Par ch=6 c=98 v=102
475 Par ch=6 c=6 v=64
72000 On ch=6 n=71 v=110
72118 Off ch=6 n=71 v=110
72120 On ch=6 n=74 v=117
72238 Off ch=6 n=74 v=117
72240 On ch=6 n=79 v=114
72358 Off ch=6 n=79 v=114
72360 On ch=6 n=74 v=108
72478 Off ch=6 n=74 v=108
72480 On ch=6 n=76 v=106
72598 Off ch=6 n=76 v=106
72600 On ch=6 n=71 v=100
72718 Off ch=6 n=71 v=100
72840 On ch=6 n=74 v=97
73078 Off ch=6 n=74 v=97
73080 On ch=6 n=71 v=94
73198 Off ch=6 n=71 v=94
73200 On ch=6 n=67 v=95
73318 Off ch=6 n=67 v=95
73320 On ch=6 n=69 v=87
73438 Off ch=6 n=69 v=87
73440 On ch=6 n=74 v=98
73558 Off ch=6 n=74 v=98
73560 On ch=6 n=69 v=81
73678 Off ch=6 n=69 v=81
73680 On ch=6 n=71 v=81
73798 Off ch=6 n=71 v=81
73800 On ch=6 n=62 v=85
73918 Off ch=6 n=62 v=85
73920 On ch=6 n=64 v=95
74038 Off ch=6 n=64 v=95
74040 On ch=6 n=69 v=86
74158 Off ch=6 n=69 v=86
74160 On ch=6 n=62 v=84
74278 Off ch=6 n=62 v=84
74280 On ch=6 n=67 v=80
74398 Off ch=6 n=67 v=80
74400 On ch=6 n=71 v=110
74518 Off ch=6 n=71 v=110
74520 On ch=6 n=74 v=117
74638 Off ch=6 n=74 v=117
74640 On ch=6 n=79 v=114
74758 Off ch=6 n=79 v=114
74760 On ch=6 n=74 v=108
74878 Off ch=6 n=74 v=108
74880 On ch=6 n=76 v=106
74998 Off ch=6 n=76 v=106
75000 On ch=6 n=71 v=100
75118 Off ch=6 n=71 v=100
75240 On ch=6 n=74 v=97
75478 Off ch=6 n=74 v=97
75480 On ch=6 n=71 v=94
75598 Off ch=6 n=71 v=94
75600 On ch=6 n=67 v=95
75718 Off ch=6 n=67 v=95
75720 On ch=6 n=69 v=87
75838 Off ch=6 n=69 v=87
75840 On ch=6 n=74 v=98
75958 Off ch=6 n=74 v=98
75960 On ch=6 n=69 v=81
76078 Off ch=6 n=69 v=81
76080 On ch=6 n=71 v=81
76198 Off ch=6 n=71 v=81
76200 On ch=6 n=62 v=85
76318 Off ch=6 n=62 v=85
76320 On ch=6 n=64 v=95
76438 Off ch=6 n=64 v=95
76440 On ch=6 n=69 v=86
76558 Off ch=6 n=69 v=86
76560 On ch=6 n=62 v=84
76678 Off ch=6 n=62 v=84
76680 On ch=6 n=67 v=80
76798 Off ch=6 n=67 v=80
76800 On ch=6 n=71 v=110
76918 Off ch=6 n=71 v=110
76920 On ch=6 n=74 v=117
77038 Off ch=6 n=74 v=117
77040 On ch=6 n=79 v=114
77158 Off ch=6 n=79 v=114
77160 On ch=6 n=74 v=108
77278 Off ch=6 n=74 v=108
77280 On ch=6 n=76 v=106
77398 Off ch=6 n=76 v=106
77400 On ch=6 n=71 v=100
77518 Off ch=6 n=71 v=100
77640 On ch=6 n=74 v=97
77878 Off ch=6 n=74 v=97
77880 On ch=6 n=71 v=94
77998 Off ch=6 n=71 v=94
78000 On ch=6 n=67 v=95
78118 Off ch=6 n=67 v=95
78120 On ch=6 n=69 v=87
78238 Off ch=6 n=69 v=87
78240 On ch=6 n=74 v=98
78358 Off ch=6 n=74 v=98
78360 On ch=6 n=69 v=81
78478 Off ch=6 n=69 v=81
78480 On ch=6 n=71 v=81
78598 Off ch=6 n=71 v=81
78600 On ch=6 n=62 v=85
78718 Off ch=6 n=62 v=85
78720 On ch=6 n=64 v=95
78838 Off ch=6 n=64 v=95
78840 On ch=6 n=69 v=86
78958 Off ch=6 n=69 v=86
78960 On ch=6 n=62 v=84
79078 Off ch=6 n=62 v=84
79080 On ch=6 n=67 v=80
79198 Off ch=6 n=67 v=80
79200 On ch=6 n=71 v=110
79318 Off ch=6 n=71 v=110
79320 On ch=6 n=74 v=117
79438 Off ch=6 n=74 v=117
79440 On ch=6 n=79 v=114
79558 Off ch=6 n=79 v=114
79560 On ch=6 n=74 v=108
79678 Off ch=6 n=74 v=108
79680 On ch=6 n=76 v=106
79798 Off ch=6 n=76 v=106
79800 On ch=6 n=71 v=100
79918 Off ch=6 n=71 v=100
80040 On ch=6 n=74 v=97
80278 Off ch=6 n=74 v=97
80280 On ch=6 n=71 v=94
80398 Off ch=6 n=71 v=94
80400 On ch=6 n=67 v=95
80518 Off ch=6 n=67 v=95
80520 On ch=6 n=69 v=87
80638 Off ch=6 n=69 v=87
80640 On ch=6 n=74 v=98
80758 Off ch=6 n=74 v=98
80760 On ch=6 n=69 v=81
80878 Off ch=6 n=69 v=81
80880 On ch=6 n=71 v=81
80998 Off ch=6 n=71 v=81
81000 On ch=6 n=62 v=85
81118 Off ch=6 n=62 v=85
81120 On ch=6 n=64 v=95
81238 Off ch=6 n=64 v=95
81240 On ch=6 n=69 v=86
81358 Off ch=6 n=69 v=86
81360 On ch=6 n=62 v=84
81478 Off ch=6 n=62 v=84
81480 On ch=6 n=67 v=80
81598 Off ch=6 n=67 v=80
104160 Meta TrkEnd
TrkEnd
MTrk
0 Meta TrkName "Rabin4"
0 Meta 0x20 06
0 Meta InstrName "Rabin4"
0 KeySig 0 major
480 Par ch=7 c=0 v=0
485 Par ch=7 c=32 v=0
490 PrCh ch=7 p=30
495 Par ch=7 c=7 v=110
500 Par ch=7 c=10 v=64
505 Par ch=7 c=91 v=64
510 Par ch=7 c=93 v=8
515 Par ch=7 c=101 v=0
515 Par ch=7 c=100 v=0
515 Par ch=7 c=6 v=2
520 Par ch=7 c=99 v=1
520 Par ch=7 c=98 v=8
520 Par ch=7 c=6 v=64
525 Par ch=7 c=99 v=1
525 Par ch=7 c=98 v=9
525 Par ch=7 c=6 v=64
530 Par ch=7 c=99 v=1
530 Par ch=7 c=98 v=10
530 Par ch=7 c=6 v=64
535 Par ch=7 c=99 v=1
535 Par ch=7 c=98 v=32
535 Par ch=7 c=6 v=64
540 Par ch=7 c=99 v=1
540 Par ch=7 c=98 v=33
540 Par ch=7 c=6 v=64
545 Par ch=7 c=99 v=1
545 Par ch=7 c=98 v=99
545 Par ch=7 c=6 v=64
550 Par ch=7 c=99 v=1
550 Par ch=7 c=98 v=100
550 Par ch=7 c=6 v=64
555 Par ch=7 c=99 v=1
555 Par ch=7 c=98 v=102
555 Par ch=7 c=6 v=64
5994 Pb ch=7 v=1147
6000 On ch=7 n=40 v=107
6000 On ch=7 n=47 v=106
6000 On ch=7 n=52 v=90
6029 Pb ch=7 v=4342
6072 Pb ch=7 v=8192
9315 Pb ch=7 v=7021
9324 Pb ch=7 v=6085
9332 Pb ch=7 v=5032
9341 Pb ch=7 v=4096
9349 Pb ch=7 v=3277
9357 Pb ch=7 v=2575
9367 Pb ch=7 v=2224
9375 Pb ch=7 v=1990
9383 Pb ch=7 v=1639
9392 Pb ch=7 v=1288
9393 Off ch=7 n=52 v=90
9401 Pb ch=7 v=1171
9412 Off ch=7 n=47 v=106
9417 Off ch=7 n=40 v=107
9533 Pb ch=7 v=8192
9600 On ch=7 n=40 v=112
9600 On ch=7 n=47 v=110
9600 On ch=7 n=52 v=108
13065 Pb ch=7 v=7021
13074 Pb ch=7 v=6085
13082 Pb ch=7 v=5032
13091 Pb ch=7 v=4096
13099 Pb ch=7 v=3277
13107 Pb ch=7 v=2575
13117 Pb ch=7 v=2224
13125 Pb ch=7 v=1990
13133 Pb ch=7 v=1639
13136 Off ch=7 n=52 v=108
13142 Pb ch=7 v=1288
13142 Off ch=7 n=47 v=110
13146 Off ch=7 n=40 v=112
13151 Pb ch=7 v=1171
13193 Pb ch=7 v=8192
13200 On ch=7 n=38 v=115
13200 On ch=7 n=52 v=95
13200 On ch=7 n=50 v=108
13200 On ch=7 n=45 v=112
16515 Pb ch=7 v=7021
16524 Pb ch=7 v=6085
16532 Pb ch=7 v=5032
16541 Pb ch=7 v=4096
16549 Pb ch=7 v=3277
16557 Pb ch=7 v=2575
16567 Pb ch=7 v=2224
16575 Pb ch=7 v=1990
16583 Pb ch=7 v=1639
16592 Pb ch=7 v=1288
16601 Pb ch=7 v=1171
16645 Off ch=7 n=38 v=115
16648 Off ch=7 n=50 v=108
16652 Off ch=7 n=52 v=95
16661 Off ch=7 n=45 v=112
16761 Pb ch=7 v=1054
16770 Pb ch=7 v=820
16795 Pb ch=7 v=1171
16804 Pb ch=7 v=1756
16810 On ch=7 n=52 v=114
16813 Pb ch=7 v=2341
16821 Pb ch=7 v=3160
16829 Pb ch=7 v=4213
16838 Pb ch=7 v=5500
16847 Pb ch=7 v=7021
16855 Pb ch=7 v=8192
17002 Off ch=7 n=52 v=114
17034 Pb ch=7 v=0
17036 On ch=7 n=52 v=122
17068 Pb ch=7 v=586
17076 Pb ch=7 v=1990
17085 Pb ch=7 v=3511
17094 Pb ch=7 v=5266
17102 Pb ch=7 v=7021
17110 Pb ch=7 v=8192
17227 Off ch=7 n=52 v=122
17280 On ch=7 n=40 v=107
17280 On ch=7 n=47 v=102
17280 On ch=7 n=52 v=94
20176 Off ch=7 n=52 v=94
20177 Off ch=7 n=47 v=102
20182 Off ch=7 n=40 v=107
20400 On ch=7 n=47 v=110
20400 On ch=7 n=52 v=108
20400 On ch=7 n=40 v=112
23732 Off ch=7 n=40 v=112
23735 Off ch=7 n=47 v=110
23735 Off ch=7 n=52 v=108
24000 On ch=7 n=52 v=95
24000 On ch=7 n=50 v=110
24000 On ch=7 n=45 v=111
24000 On ch=7 n=38 v=112
28281 Pb ch=7 v=1054
28281 Off ch=7 n=52 v=95
28290 Pb ch=7 v=820
28290 Off ch=7 n=50 v=110
28297 Off ch=7 n=45 v=111
28300 Off ch=7 n=38 v=112
28315 Pb ch=7 v=1171
28324 Pb ch=7 v=1756
28330 On ch=7 n=52 v=114
28333 Pb ch=7 v=2341
28341 Pb ch=7 v=3160
28349 Pb ch=7 v=4213
28358 Pb ch=7 v=5500
28367 Pb ch=7 v=7021
28375 Pb ch=7 v=8192
28522 Off ch=7 n=52 v=114
28554 Pb ch=7 v=0
28556 On ch=7 n=52 v=122
28588 Pb ch=7 v=586
28596 Pb ch=7 v=1990
28605 Pb ch=7 v=3511
28614 Pb ch=7 v=5266
28622 Pb ch=7 v=7021
28630 Pb ch=7 v=8192
28747 Off ch=7 n=52 v=122
28800 On ch=7 n=40 v=104
28811 On ch=7 n=47 v=108
29141 Off ch=7 n=47 v=108
29143 Off ch=7 n=40 v=104
29159 On ch=7 n=49 v=107
29164 On ch=7 n=42 v=113
29492 Off ch=7 n=42 v=113
29496 Off ch=7 n=49 v=107
29514 On ch=7 n=43 v=100
29517 On ch=7 n=50 v=108
29868 Off ch=7 n=43 v=100
29872 Off ch=7 n=50 v=108
29881 On ch=7 n=45 v=108
29883 On ch=7 n=52 v=100
30223 Off ch=7 n=45 v=108
30223 Off ch=7 n=52 v=100
30246 On ch=7 n=47 v=117
30248 On ch=7 n=54 v=105
30474 Off ch=7 n=54 v=105
30474 Off ch=7 n=47 v=117
30480 On ch=7 n=52 v=96
30484 On ch=7 n=45 v=114
30707 Off ch=7 n=45 v=114
30723 Off ch=7 n=52 v=96
30729 On ch=7 n=45 v=106
30730 On ch=7 n=38 v=84
31172 Off ch=7 n=45 v=106
31176 Off ch=7 n=38 v=84
31202 On ch=7 n=62 v=105
31314 Off ch=7 n=62 v=105
31326 On ch=7 n=60 v=70
31441 Off ch=7 n=60 v=70
31447 On ch=7 n=66 v=95
31561 Off ch=7 n=66 v=95
31566 On ch=7 n=60 v=71
31685 Off ch=7 n=60 v=71
33610 On ch=7 n=62 v=117
33726 Off ch=7 n=62 v=117
33739 On ch=7 n=60 v=102
33832 Off ch=7 n=60 v=102
33863 On ch=7 n=66 v=97
33942 Off ch=7 n=66 v=97
33956 On ch=7 n=60 v=112
34077 Off ch=7 n=60 v=112
36000 On ch=7 n=38 v=125
36480 Off ch=7 n=38 v=125
36483 On ch=7 n=40 v=112
36908 Off ch=7 n=40 v=112
36954 On ch=7 n=43 v=114
37301 Off ch=7 n=43 v=114
37312 On ch=7 n=42 v=113
37893 Off ch=7 n=42 v=113
37917 On ch=7 n=40 v=117
38353 Off ch=7 n=40 v=117
38403 On ch=7 n=38 v=110
38887 Off ch=7 n=38 v=110
38890 On ch=7 n=40 v=122
39300 Off ch=7 n=40 v=122
39361 On ch=7 n=43 v=112
39679 Off ch=7 n=43 v=112
39714 On ch=7 n=42 v=116
40276 Off ch=7 n=42 v=116
40320 On ch=7 n=40 v=122
40682 Off ch=7 n=40 v=122
40803 On ch=7 n=38 v=120
41267 Off ch=7 n=38 v=120
41281 On ch=7 n=40 v=120
41728 Off ch=7 n=40 v=120
41760 On ch=7 n=45 v=114
42125 Off ch=7 n=45 v=114
42128 On ch=7 n=43 v=108
42473 Off ch=7 n=43 v=108
42481 On ch=7 n=47 v=108
42929 Off ch=7 n=47 v=108
42961 On ch=7 n=45 v=91
43081 On ch=7 n=43 v=100
43084 Off ch=7 n=45 v=91
43190 Off ch=7 n=43 v=100
43206 On ch=7 n=38 v=85
43653 Off ch=7 n=38 v=85
43685 On ch=7 n=40 v=122
44118 Off ch=7 n=40 v=122
44161 On ch=7 n=43 v=114
44502 Off ch=7 n=43 v=114
44526 On ch=7 n=42 v=116
45057 Off ch=7 n=42 v=116
45125 On ch=7 n=40 v=122
45477 Off ch=7 n=40 v=122
45602 On ch=7 n=38 v=117
46088 On ch=7 n=40 v=120
46109 Off ch=7 n=38 v=117
46548 Off ch=7 n=40 v=120
46569 On ch=7 n=43 v=112
46912 Off ch=7 n=43 v=112
46927 On ch=7 n=42 v=113
47469 Off ch=7 n=42 v=113
47517 On ch=7 n=40 v=110
47867 Off ch=7 n=40 v=110
50401 On ch=7 n=62 v=105
50513 Off ch=7 n=62 v=105
50522 On ch=7 n=60 v=70
50637 Off ch=7 n=60 v=70
50642 On ch=7 n=66 v=95
50756 Off ch=7 n=66 v=95
50762 On ch=7 n=60 v=71
50881 Off ch=7 n=60 v=71
52803 On ch=7 n=62 v=117
52919 Off ch=7 n=62 v=117
52925 On ch=7 n=60 v=102
53018 Off ch=7 n=60 v=102
53046 On ch=7 n=66 v=97
53125 Off ch=7 n=66 v=97
53159 On ch=7 n=60 v=112
53280 Off ch=7 n=60 v=112
55203 On ch=7 n=38 v=127
55637 Off ch=7 n=38 v=127
55682 On ch=7 n=40 v=117
56103 Off ch=7 n=40 v=117
56152 On ch=7 n=43 v=120
56473 Off ch=7 n=43 v=120
56509 On ch=7 n=42 v=123
56816 Off ch=7 n=42 v=123
56871 On ch=7 n=40 v=120
57110 On ch=7 n=38 v=127
57111 Off ch=7 n=40 v=120
57491 Off ch=7 n=38 v=127
57601 On ch=7 n=38 v=127
58045 Off ch=7 n=38 v=127
58082 On ch=7 n=40 v=127
58500 Off ch=7 n=40 v=127
58557 On ch=7 n=43 v=117
58923 On ch=7 n=42 v=123
58929 Off ch=7 n=43 v=117
59289 Off ch=7 n=42 v=123
59294 On ch=7 n=40 v=122
59513 Off ch=7 n=40 v=122
59528 On ch=7 n=38 v=125
59875 Off ch=7 n=38 v=125
60003 On ch=7 n=38 v=120
60442 Off ch=7 n=38 v=120
60481 On ch=7 n=40 v=120
60928 Off ch=7 n=40 v=120
60960 On ch=7 n=45 v=114
61328 On ch=7 n=43 v=108
61350 Off ch=7 n=45 v=114
61673 Off ch=7 n=43 v=108
61681 On ch=7 n=47 v=108
62129 Off ch=7 n=47 v=108
62161 On ch=7 n=45 v=91
62281 On ch=7 n=43 v=100
62284 Off ch=7 n=45 v=91
62390 Off ch=7 n=43 v=100
62392 On ch=7 n=38 v=127
62869 Off ch=7 n=38 v=127
62883 On ch=7 n=40 v=127
63293 Off ch=7 n=40 v=127
63355 On ch=7 n=43 v=125
63680 Off ch=7 n=43 v=125
63712 On ch=7 n=42 v=127
64318 Off ch=7 n=42 v=127
64323 On ch=7 n=40 v=127
64775 Off ch=7 n=40 v=127
67202 On ch=7 n=62 v=105
67314 Off ch=7 n=62 v=105
67326 On ch=7 n=60 v=70
67441 Off ch=7 n=60 v=70
67447 On ch=7 n=66 v=95
67561 Off ch=7 n=66 v=95
67566 On ch=7 n=60 v=71
67685 Off ch=7 n=60 v=71
69610 On ch=7 n=62 v=117
69726 Off ch=7 n=62 v=117
69739 On ch=7 n=60 v=102
69832 Off ch=7 n=60 v=102
69863 On ch=7 n=66 v=97
69942 Off ch=7 n=66 v=97
69956 On ch=7 n=60 v=112
70077 Off ch=7 n=60 v=112
81603 On ch=7 n=38 v=127
82037 Off ch=7 n=38 v=127
82082 On ch=7 n=40 v=117
82503 Off ch=7 n=40 v=117
82552 On ch=7 n=43 v=120
82873 Off ch=7 n=43 v=120
82909 On ch=7 n=42 v=123
83216 Off ch=7 n=42 v=123
83271 On ch=7 n=40 v=120
83510 On ch=7 n=38 v=127
83511 Off ch=7 n=40 v=120
83891 Off ch=7 n=38 v=127
84001 On ch=7 n=38 v=127
84445 Off ch=7 n=38 v=127
84482 On ch=7 n=40 v=127
84900 Off ch=7 n=40 v=127
84957 On ch=7 n=43 v=117
85323 On ch=7 n=42 v=123
85329 Off ch=7 n=43 v=117
85689 Off ch=7 n=42 v=123
85694 On ch=7 n=40 v=122
85913 Off ch=7 n=40 v=122
85928 On ch=7 n=38 v=125
86275 Off ch=7 n=38 v=125
86403 On ch=7 n=38 v=120
86842 Off ch=7 n=38 v=120
86881 On ch=7 n=40 v=120
87328 Off ch=7 n=40 v=120
87360 On ch=7 n=45 v=114
87728 On ch=7 n=43 v=108
87750 Off ch=7 n=45 v=114
88073 Off ch=7 n=43 v=108
88081 On ch=7 n=47 v=108
88529 Off ch=7 n=47 v=108
88561 On ch=7 n=45 v=91
88681 On ch=7 n=43 v=100
88684 Off ch=7 n=45 v=91
88790 Off ch=7 n=43 v=100
88792 On ch=7 n=38 v=127
89269 Off ch=7 n=38 v=127
89283 On ch=7 n=40 v=127
89693 Off ch=7 n=40 v=127
89755 On ch=7 n=43 v=125
90080 Off ch=7 n=43 v=125
90112 On ch=7 n=42 v=127
90718 Off ch=7 n=42 v=127
90723 On ch=7 n=40 v=127
91175 Off ch=7 n=40 v=127
93602 On ch=7 n=62 v=105
93714 Off ch=7 n=62 v=105
93726 On ch=7 n=60 v=70
93841 Off ch=7 n=60 v=70
93847 On ch=7 n=66 v=95
93961 Off ch=7 n=66 v=95
93966 On ch=7 n=60 v=71
94085 Off ch=7 n=60 v=71
96010 On ch=7 n=62 v=117
96126 Off ch=7 n=62 v=117
96139 On ch=7 n=60 v=102
96232 Off ch=7 n=60 v=102
96263 On ch=7 n=66 v=97
96342 Off ch=7 n=66 v=97
96356 On ch=7 n=60 v=112
96477 Off ch=7 n=60 v=112
104160 Meta TrkEnd
TrkEnd
MTrk
0 Meta TrkName "Kaye"
0 Meta 0x20 07
0 Meta InstrName "Kaye"
0 KeySig 0 major
560 Par ch=8 c=0 v=0
565 Par ch=8 c=32 v=0
570 PrCh ch=8 p=18
575 Par ch=8 c=7 v=70
580 Par ch=8 c=10 v=64
585 Par ch=8 c=91 v=40
590 Par ch=8 c=93 v=19
595 Par ch=8 c=101 v=0
595 Par ch=8 c=100 v=0
595 Par ch=8 c=6 v=2
600 Par ch=8 c=99 v=1
600 Par ch=8 c=98 v=8
600 Par ch=8 c=6 v=64
605 Par ch=8 c=99 v=1
605 Par ch=8 c=98 v=9
605 Par ch=8 c=6 v=64
610 Par ch=8 c=99 v=1
610 Par ch=8 c=98 v=10
610 Par ch=8 c=6 v=64
615 Par ch=8 c=99 v=1
615 Par ch=8 c=98 v=32
615 Par ch=8 c=6 v=64
620 Par ch=8 c=99 v=1
620 Par ch=8 c=98 v=33
620 Par ch=8 c=6 v=64
625 Par ch=8 c=99 v=1
625 Par ch=8 c=98 v=99
625 Par ch=8 c=6 v=64
630 Par ch=8 c=99 v=1
630 Par ch=8 c=98 v=100
630 Par ch=8 c=6 v=64
635 Par ch=8 c=99 v=1
635 Par ch=8 c=98 v=102
635 Par ch=8 c=6 v=64
9600 On ch=8 n=86 v=80
9600 On ch=8 n=83 v=77
9658 Off ch=8 n=86 v=80
9658 Off ch=8 n=83 v=77
9660 On ch=8 n=86 v=72
9660 On ch=8 n=83 v=79
9718 Off ch=8 n=86 v=72
9718 Off ch=8 n=83 v=79
9720 On ch=8 n=78 v=77
9778 Off ch=8 n=78 v=77
9780 On ch=8 n=86 v=77
9780 On ch=8 n=81 v=115
9838 Off ch=8 n=86 v=77
9838 Off ch=8 n=81 v=115
9840 On ch=8 n=79 v=75
9898 Off ch=8 n=79 v=75
9900 On ch=8 n=86 v=76
9900 On ch=8 n=81 v=117
9958 Off ch=8 n=86 v=76
9958 Off ch=8 n=81 v=117
9960 On ch=8 n=79 v=75
10018 Off ch=8 n=79 v=75
10020 On ch=8 n=86 v=73
10020 On ch=8 n=81 v=119
10078 Off ch=8 n=86 v=73
10078 Off ch=8 n=81 v=119
10080 On ch=8 n=86 v=76
10080 On ch=8 n=83 v=77
10138 Off ch=8 n=86 v=76
10138 Off ch=8 n=83 v=77
10140 On ch=8 n=78 v=73
10198 Off ch=8 n=78 v=73
10200 On ch=8 n=86 v=74
10200 On ch=8 n=81 v=118
10258 Off ch=8 n=86 v=74
10258 Off ch=8 n=81 v=118
10260 On ch=8 n=78 v=78
10318 Off ch=8 n=78 v=78
10319 On ch=8 n=86 v=73
10320 On ch=8 n=79 v=77
10378 Off ch=8 n=79 v=77
10380 On ch=8 n=81 v=114
10438 Off ch=8 n=81 v=114
10440 On ch=8 n=76 v=78
10442 Off ch=8 n=86 v=73
10498 Off ch=8 n=76 v=78
10500 On ch=8 n=81 v=117
10500 On ch=8 n=86 v=73
10558 Off ch=8 n=81 v=117
10558 Off ch=8 n=86 v=73
10560 On ch=8 n=79 v=77
10618 Off ch=8 n=79 v=77
10620 On ch=8 n=86 v=71
10620 On ch=8 n=81 v=115
10678 Off ch=8 n=86 v=71
10678 Off ch=8 n=81 v=115
10680 On ch=8 n=79 v=75
10738 Off ch=8 n=79 v=75
10739 On ch=8 n=86 v=75
10740 On ch=8 n=81 v=117
10797 Off ch=8 n=86 v=75
10798 Off ch=8 n=81 v=117
10800 On ch=8 n=83 v=77
10800 On ch=8 n=86 v=80
10858 Off ch=8 n=83 v=77
10858 Off ch=8 n=86 v=80
10860 On ch=8 n=83 v=79
10860 On ch=8 n=86 v=72
10918 Off ch=8 n=83 v=79
10918 Off ch=8 n=86 v=72
10920 On ch=8 n=78 v=77
10978 Off ch=8 n=78 v=77
10980 On ch=8 n=81 v=115
10980 On ch=8 n=86 v=77
11038 Off ch=8 n=81 v=115
11038 Off ch=8 n=86 v=77
11040 On ch=8 n=79 v=75
11098 Off ch=8 n=79 v=75
11100 On ch=8 n=81 v=117
11100 On ch=8 n=86 v=76
11158 Off ch=8 n=81 v=117
11158 Off ch=8 n=86 v=76
11160 On ch=8 n=79 v=75
11218 Off ch=8 n=79 v=75
11220 On ch=8 n=81 v=119
11220 On ch=8 n=86 v=73
11278 Off ch=8 n=81 v=119
11278 Off ch=8 n=86 v=73
11280 On ch=8 n=83 v=77
11280 On ch=8 n=86 v=76
11338 Off ch=8 n=83 v=77
11338 Off ch=8 n=86 v=76
11340 On ch=8 n=78 v=73
11398 Off ch=8 n=78 v=73
11400 On ch=8 n=81 v=118
11400 On ch=8 n=86 v=74
11458 Off ch=8 n=81 v=118
11458 Off ch=8 n=86 v=74
11460 On ch=8 n=78 v=78
11518 Off ch=8 n=78 v=78
11519 On ch=8 n=86 v=73
11520 On ch=8 n=79 v=77
11578 Off ch=8 n=79 v=77
11580 On ch=8 n=81 v=114
11638 Off ch=8 n=81 v=114
11640 On ch=8 n=76 v=78
11642 Off ch=8 n=86 v=73
11698 Off ch=8 n=76 v=78
11700 On ch=8 n=86 v=73
11700 On ch=8 n=81 v=117
11758 Off ch=8 n=86 v=73
11758 Off ch=8 n=81 v=117
11760 On ch=8 n=79 v=77
11818 Off ch=8 n=79 v=77
11820 On ch=8 n=81 v=115
11820 On ch=8 n=86 v=71
11878 Off ch=8 n=81 v=115
11878 Off ch=8 n=86 v=71
11880 On ch=8 n=79 v=75
11938 Off ch=8 n=79 v=75
11939 On ch=8 n=86 v=75
11940 On ch=8 n=81 v=117
11997 Off ch=8 n=86 v=75
11998 Off ch=8 n=81 v=117
12000 On ch=8 n=86 v=80
12000 On ch=8 n=83 v=77
12058 Off ch=8 n=86 v=80
12058 Off ch=8 n=83 v=77
12060 On ch=8 n=86 v=72
12060 On ch=8 n=83 v=79
12118 Off ch=8 n=86 v=72
12118 Off ch=8 n=83 v=79
12120 On ch=8 n=78 v=77
12178 Off ch=8 n=78 v=77
12180 On ch=8 n=86 v=77
12180 On ch=8 n=81 v=115
12238 Off ch=8 n=86 v=77
12238 Off ch=8 n=81 v=115
12240 On ch=8 n=79 v=75
12298 Off ch=8 n=79 v=75
12300 On ch=8 n=86 v=76
12300 On ch=8 n=81 v=117
12358 Off ch=8 n=86 v=76
12358 Off ch=8 n=81 v=117
12360 On ch=8 n=79 v=75
12418 Off ch=8 n=79 v=75
12420 On ch=8 n=86 v=73
12420 On ch=8 n=81 v=119
12478 Off ch=8 n=86 v=73
12478 Off ch=8 n=81 v=119
12480 On ch=8 n=86 v=76
12480 On ch=8 n=83 v=77
12538 Off ch=8 n=86 v=76
12538 Off ch=8 n=83 v=77
12540 On ch=8 n=78 v=73
12598 Off ch=8 n=78 v=73
12600 On ch=8 n=86 v=74
12600 On ch=8 n=81 v=118
12658 Off ch=8 n=86 v=74
12658 Off ch=8 n=81 v=118
12660 On ch=8 n=78 v=78
12718 Off ch=8 n=78 v=78
12719 On ch=8 n=86 v=73
12720 On ch=8 n=79 v=77
12778 Off ch=8 n=79 v=77
12780 On ch=8 n=81 v=114
12838 Off ch=8 n=81 v=114
12840 On ch=8 n=76 v=78
12842 Off ch=8 n=86 v=73
12898 Off ch=8 n=76 v=78
12900 On ch=8 n=81 v=117
12900 On ch=8 n=86 v=73
12958 Off ch=8 n=81 v=117
12958 Off ch=8 n=86 v=73
12960 On ch=8 n=79 v=77
13018 Off ch=8 n=79 v=77
13020 On ch=8 n=86 v=71
13020 On ch=8 n=81 v=115
13078 Off ch=8 n=86 v=71
13078 Off ch=8 n=81 v=115
13080 On ch=8 n=79 v=75
13138 Off ch=8 n=79 v=75
13139 On ch=8 n=86 v=75
13140 On ch=8 n=81 v=117
13197 Off ch=8 n=86 v=75
13198 Off ch=8 n=81 v=117
13200 On ch=8 n=83 v=77
13200 On ch=8 n=86 v=80
13258 Off ch=8 n=83 v=77
13258 Off ch=8 n=86 v=80
13260 On ch=8 n=83 v=79
13260 On ch=8 n=86 v=72
13318 Off ch=8 n=83 v=79
13318 Off ch=8 n=86 v=72
13320 On ch=8 n=78 v=77
13378 Off ch=8 n=78 v=77
13380 On ch=8 n=81 v=115
13380 On ch=8 n=86 v=77
13438 Off ch=8 n=81 v=115
13438 Off ch=8 n=86 v=77
13440 On ch=8 n=79 v=75
13498 Off ch=8 n=79 v=75
13500 On ch=8 n=81 v=117
13500 On ch=8 n=86 v=76
13558 Off ch=8 n=81 v=117
13558 Off ch=8 n=86 v=76
13560 On ch=8 n=79 v=75
13618 Off ch=8 n=79 v=75
13620 On ch=8 n=81 v=119
13620 On ch=8 n=86 v=73
13678 Off ch=8 n=81 v=119
13678 Off ch=8 n=86 v=73
13680 On ch=8 n=83 v=77
13680 On ch=8 n=86 v=76
13738 Off ch=8 n=83 v=77
13738 Off ch=8 n=86 v=76
13740 On ch=8 n=78 v=73
13798 Off ch=8 n=78 v=73
13800 On ch=8 n=81 v=118
13800 On ch=8 n=86 v=74
13858 Off ch=8 n=81 v=118
13858 Off ch=8 n=86 v=74
13860 On ch=8 n=78 v=78
13918 Off ch=8 n=78 v=78
13919 On ch=8 n=86 v=73
13920 On ch=8 n=79 v=77
13978 Off ch=8 n=79 v=77
13980 On ch=8 n=81 v=114
14038 Off ch=8 n=81 v=114
14040 On ch=8 n=76 v=78
14042 Off ch=8 n=86 v=73
14098 Off ch=8 n=76 v=78
14100 On ch=8 n=86 v=73
14100 On ch=8 n=81 v=117
14158 Off ch=8 n=86 v=73
14158 Off ch=8 n=81 v=117
14160 On ch=8 n=79 v=77
14218 Off ch=8 n=79 v=77
14220 On ch=8 n=81 v=115
14220 On ch=8 n=86 v=71
14278 Off ch=8 n=81 v=115
14278 Off ch=8 n=86 v=71
14280 On ch=8 n=79 v=75
14338 Off ch=8 n=79 v=75
14339 On ch=8 n=86 v=75
14340 On ch=8 n=81 v=117
14397 Off ch=8 n=86 v=75
14398 Off ch=8 n=81 v=117
14400 On ch=8 n=86 v=80
14400 On ch=8 n=83 v=77
14458 Off ch=8 n=86 v=80
14458 Off ch=8 n=83 v=77
14460 On ch=8 n=86 v=72
14460 On ch=8 n=83 v=79
14518 Off ch=8 n=86 v=72
14518 Off ch=8 n=83 v=79
14520 On ch=8 n=78 v=77
14578 Off ch=8 n=78 v=77
14580 On ch=8 n=86 v=77
14580 On ch=8 n=81 v=115
14638 Off ch=8 n=86 v=77
14638 Off ch=8 n=81 v=115
14640 On ch=8 n=79 v=75
14698 Off ch=8 n=79 v=75
14700 On ch=8 n=86 v=76
14700 On ch=8 n=81 v=117
14758 Off ch=8 n=86 v=76
14758 Off ch=8 n=81 v=117
14760 On ch=8 n=79 v=75
14818 Off ch=8 n=79 v=75
14820 On ch=8 n=86 v=73
14820 On ch=8 n=81 v=119
14878 Off ch=8 n=86 v=73
14878 Off ch=8 n=81 v=119
14880 On ch=8 n=86 v=76
14880 On ch=8 n=83 v=77
14938 Off ch=8 n=86 v=76
14938 Off ch=8 n=83 v=77
14940 On ch=8 n=78 v=73
14998 Off ch=8 n=78 v=73
15000 On ch=8 n=86 v=74
15000 On ch=8 n=81 v=118
15058 Off ch=8 n=86 v=74
15058 Off ch=8 n=81 v=118
15060 On ch=8 n=78 v=78
15118 Off ch=8 n=78 v=78
15119 On ch=8 n=86 v=73
15120 On ch=8 n=79 v=77
15178 Off ch=8 n=79 v=77
15180 On ch=8 n=81 v=114
15238 Off ch=8 n=81 v=114
15240 On ch=8 n=76 v=78
15242 Off ch=8 n=86 v=73
15298 Off ch=8 n=76 v=78
15300 On ch=8 n=81 v=117
15300 On ch=8 n=86 v=73
15358 Off ch=8 n=81 v=117
15358 Off ch=8 n=86 v=73
15360 On ch=8 n=79 v=77
15418 Off ch=8 n=79 v=77
15420 On ch=8 n=86 v=71
15420 On ch=8 n=81 v=115
15478 Off ch=8 n=86 v=71
15478 Off ch=8 n=81 v=115
15480 On ch=8 n=79 v=75
15538 Off ch=8 n=79 v=75
15539 On ch=8 n=86 v=75
15540 On ch=8 n=81 v=117
15597 Off ch=8 n=86 v=75
15598 Off ch=8 n=81 v=117
15600 On ch=8 n=83 v=77
15600 On ch=8 n=86 v=80
15658 Off ch=8 n=83 v=77
15658 Off ch=8 n=86 v=80
15660 On ch=8 n=83 v=79
15660 On ch=8 n=86 v=72
15718 Off ch=8 n=83 v=79
15718 Off ch=8 n=86 v=72
15720 On ch=8 n=78 v=77
15778 Off ch=8 n=78 v=77
15780 On ch=8 n=81 v=115
15780 On ch=8 n=86 v=77
15838 Off ch=8 n=81 v=115
15838 Off ch=8 n=86 v=77
15840 On ch=8 n=79 v=75
15898 Off ch=8 n=79 v=75
15900 On ch=8 n=81 v=117
15900 On ch=8 n=86 v=76
15958 Off ch=8 n=81 v=117
15958 Off ch=8 n=86 v=76
15960 On ch=8 n=79 v=75
16018 Off ch=8 n=79 v=75
16020 On ch=8 n=81 v=119
16020 On ch=8 n=86 v=73
16078 Off ch=8 n=81 v=119
16078 Off ch=8 n=86 v=73
16080 On ch=8 n=83 v=77
16080 On ch=8 n=86 v=76
16138 Off ch=8 n=83 v=77
16138 Off ch=8 n=86 v=76
16140 On ch=8 n=78 v=73
16198 Off ch=8 n=78 v=73
16200 On ch=8 n=81 v=118
16200 On ch=8 n=86 v=74
16258 Off ch=8 n=81 v=118
16258 Off ch=8 n=86 v=74
16260 On ch=8 n=78 v=78
16318 Off ch=8 n=78 v=78
16319 On ch=8 n=86 v=73
16320 On ch=8 n=79 v=77
16378 Off ch=8 n=79 v=77
16380 On ch=8 n=81 v=114
16438 Off ch=8 n=81 v=114
16440 On ch=8 n=76 v=78
16442 Off ch=8 n=86 v=73
16498 Off ch=8 n=76 v=78
16500 On ch=8 n=86 v=73
16500 On ch=8 n=81 v=117
16558 Off ch=8 n=86 v=73
16558 Off ch=8 n=81 v=117
16560 On ch=8 n=79 v=77
16618 Off ch=8 n=79 v=77
16620 On ch=8 n=81 v=115
16620 On ch=8 n=86 v=71
16678 Off ch=8 n=81 v=115
16678 Off ch=8 n=86 v=71
16680 On ch=8 n=79 v=75
16738 Off ch=8 n=79 v=75
16739 On ch=8 n=86 v=75
16740 On ch=8 n=81 v=117
16797 Off ch=8 n=86 v=75
16798 Off ch=8 n=81 v=117
16800 On ch=8 n=86 v=80
16800 On ch=8 n=83 v=77
16858 Off ch=8 n=86 v=80
16858 Off ch=8 n=83 v=77
16860 On ch=8 n=86 v=72
16860 On ch=8 n=83 v=79
16918 Off ch=8 n=86 v=72
16918 Off ch=8 n=83 v=79
16920 On ch=8 n=78 v=77
16978 Off ch=8 n=78 v=77
16980 On ch=8 n=86 v=77
16980 On ch=8 n=81 v=115
17038 Off ch=8 n=86 v=77
17038 Off ch=8 n=81 v=115
17040 On ch=8 n=79 v=75
17098 Off ch=8 n=79 v=75
17100 On ch=8 n=86 v=76
17100 On ch=8 n=81 v=117
17158 Off ch=8 n=86 v=76
17158 Off ch=8 n=81 v=117
17160 On ch=8 n=79 v=75
17218 Off ch=8 n=79 v=75
17220 On ch=8 n=86 v=73
17220 On ch=8 n=81 v=119
17275 PrCh ch=8 p=50
17278 Off ch=8 n=86 v=73
17278 Off ch=8 n=81 v=119
17280 On ch=8 n=86 v=76
17280 On ch=8 n=83 v=77
17338 Off ch=8 n=86 v=76
17338 Off ch=8 n=83 v=77
17340 On ch=8 n=78 v=73
17398 Off ch=8 n=78 v=73
17400 On ch=8 n=86 v=74
17400 On ch=8 n=81 v=118
17458 Off ch=8 n=86 v=74
17458 Off ch=8 n=81 v=118
17460 On ch=8 n=78 v=78
17518 Off ch=8 n=78 v=78
17519 On ch=8 n=86 v=73
17520 On ch=8 n=79 v=77
17578 Off ch=8 n=79 v=77
17580 On ch=8 n=81 v=114
17638 Off ch=8 n=81 v=114
17640 On ch=8 n=76 v=78
17642 Off ch=8 n=86 v=73
17698 Off ch=8 n=76 v=78
17700 On ch=8 n=81 v=117
17700 On ch=8 n=86 v=73
17758 Off ch=8 n=81 v=117
17758 Off ch=8 n=86 v=73
17760 On ch=8 n=79 v=77
17818 Off ch=8 n=79 v=77
17820 On ch=8 n=86 v=71
17820 On ch=8 n=81 v=115
17878 Off ch=8 n=86 v=71
17878 Off ch=8 n=81 v=115
17880 On ch=8 n=79 v=75
17938 Off ch=8 n=79 v=75
17939 On ch=8 n=86 v=75
17940 On ch=8 n=81 v=117
17997 Off ch=8 n=86 v=75
17998 Off ch=8 n=81 v=117
18000 On ch=8 n=83 v=77
18000 On ch=8 n=86 v=80
18058 Off ch=8 n=83 v=77
18058 Off ch=8 n=86 v=80
18060 On ch=8 n=83 v=79
18060 On ch=8 n=86 v=72
18118 Off ch=8 n=83 v=79
18118 Off ch=8 n=86 v=72
18120 On ch=8 n=78 v=77
18178 Off ch=8 n=78 v=77
18180 On ch=8 n=81 v=115
18180 On ch=8 n=86 v=77
18238 Off ch=8 n=81 v=115
18238 Off ch=8 n=86 v=77
18240 On ch=8 n=79 v=75
18298 Off ch=8 n=79 v=75
18300 On ch=8 n=81 v=117
18300 On ch=8 n=86 v=76
18358 Off ch=8 n=81 v=117
18358 Off ch=8 n=86 v=76
18360 On ch=8 n=79 v=75
18418 Off ch=8 n=79 v=75
18420 On ch=8 n=81 v=119
18420 On ch=8 n=86 v=73
18478 Off ch=8 n=81 v=119
18478 Off ch=8 n=86 v=73
18480 On ch=8 n=83 v=77
18480 On ch=8 n=86 v=76
18538 Off ch=8 n=83 v=77
18538 Off ch=8 n=86 v=76
18540 On ch=8 n=78 v=73
18598 Off ch=8 n=78 v=73
18600 On ch=8 n=81 v=118
18600 On ch=8 n=86 v=74
18658 Off ch=8 n=81 v=118
18658 Off ch=8 n=86 v=74
18660 On ch=8 n=78 v=78
18718 Off ch=8 n=78 v=78
18719 On ch=8 n=86 v=73
18720 On ch=8 n=79 v=77
18778 Off ch=8 n=79 v=77
18780 On ch=8 n=81 v=114
18838 Off ch=8 n=81 v=114
18840 On ch=8 n=76 v=78
18842 Off ch=8 n=86 v=73
18898 Off ch=8 n=76 v=78
18900 On ch=8 n=86 v=73
18900 On ch=8 n=81 v=117
18958 Off ch=8 n=86 v=73
18958 Off ch=8 n=81 v=117
18960 On ch=8 n=79 v=77
19018 Off ch=8 n=79 v=77
19020 On ch=8 n=81 v=115
19020 On ch=8 n=86 v=71
19078 Off ch=8 n=81 v=115
19078 Off ch=8 n=86 v=71
19080 On ch=8 n=79 v=75
19138 Off ch=8 n=79 v=75
19139 On ch=8 n=86 v=75
19140 On ch=8 n=81 v=117
19197 Off ch=8 n=86 v=75
19198 Off ch=8 n=81 v=117
19200 On ch=8 n=86 v=80
19200 On ch=8 n=83 v=77
19258 Off ch=8 n=86 v=80
19258 Off ch=8 n=83 v=77
19260 On ch=8 n=86 v=72
19260 On ch=8 n=83 v=79
19318 Off ch=8 n=86 v=72
19318 Off ch=8 n=83 v=79
19320 On ch=8 n=78 v=77
19378 Off ch=8 n=78 v=77
19380 On ch=8 n=86 v=77
19380 On ch=8 n=81 v=115
19438 Off ch=8 n=86 v=77
19438 Off ch=8 n=81 v=115
19440 On ch=8 n=79 v=75
19498 Off ch=8 n=79 v=75
19500 On ch=8 n=86 v=76
19500 On ch=8 n=81 v=117
19558 Off ch=8 n=86 v=76
19558 Off ch=8 n=81 v=117
19560 On ch=8 n=79 v=75
19618 Off ch=8 n=79 v=75
19620 On ch=8 n=86 v=73
19620 On ch=8 n=81 v=119
19678 Off ch=8 n=86 v=73
19678 Off ch=8 n=81 v=119
19680 On ch=8 n=86 v=76
19680 On ch=8 n=83 v=77
19738 Off ch=8 n=86 v=76
19738 Off ch=8 n=83 v=77
19740 On ch=8 n=78 v=73
19798 Off ch=8 n=78 v=73
19800 On ch=8 n=86 v=74
19800 On ch=8 n=81 v=118
19858 Off ch=8 n=86 v=74
19858 Off ch=8 n=81 v=118
19860 On ch=8 n=78 v=78
19918 Off ch=8 n=78 v=78
19919 On ch=8 n=86 v=73
19920 On ch=8 n=79 v=77
19978 Off ch=8 n=79 v=77
19980 On ch=8 n=81 v=114
20038 Off ch=8 n=81 v=114
20040 On ch=8 n=76 v=78
20042 Off ch=8 n=86 v=73
20098 Off ch=8 n=76 v=78
20100 On ch=8 n=81 v=117
20100 On ch=8 n=86 v=73
20158 Off ch=8 n=81 v=117
20158 Off ch=8 n=86 v=73
20160 On ch=8 n=79 v=77
20218 Off ch=8 n=79 v=77
20220 On ch=8 n=86 v=71
20220 On ch=8 n=81 v=115
20278 Off ch=8 n=86 v=71
20278 Off ch=8 n=81 v=115
20280 On ch=8 n=79 v=75
20338 Off ch=8 n=79 v=75
20339 On ch=8 n=86 v=75
20340 On ch=8 n=81 v=117
20397 Off ch=8 n=86 v=75
20398 Off ch=8 n=81 v=117
20400 On ch=8 n=83 v=77
20400 On ch=8 n=86 v=80
20458 Off ch=8 n=83 v=77
20458 Off ch=8 n=86 v=80
20460 On ch=8 n=83 v=79
20460 On ch=8 n=86 v=72
20518 Off ch=8 n=83 v=79
20518 Off ch=8 n=86 v=72
20520 On ch=8 n=78 v=77
20578 Off ch=8 n=78 v=77
20580 On ch=8 n=81 v=115
20580 On ch=8 n=86 v=77
20638 Off ch=8 n=81 v=115
20638 Off ch=8 n=86 v=77
20640 On ch=8 n=79 v=75
20698 Off ch=8 n=79 v=75
20700 On ch=8 n=81 v=117
20700 On ch=8 n=86 v=76
20758 Off ch=8 n=81 v=117
20758 Off ch=8 n=86 v=76
20760 On ch=8 n=79 v=75
20818 Off ch=8 n=79 v=75
20820 On ch=8 n=81 v=119
20820 On ch=8 n=86 v=73
20878 Off ch=8 n=81 v=119
20878 Off ch=8 n=86 v=73
20880 On ch=8 n=83 v=77
20880 On ch=8 n=86 v=76
20938 Off ch=8 n=83 v=77
20938 Off ch=8 n=86 v=76
20940 On ch=8 n=78 v=73
20998 Off ch=8 n=78 v=73
21000 On ch=8 n=81 v=118
21000 On ch=8 n=86 v=74
21058 Off ch=8 n=81 v=118
21058 Off ch=8 n=86 v=74
21060 On ch=8 n=78 v=78
21118 Off ch=8 n=78 v=78
21119 On ch=8 n=86 v=73
21120 On ch=8 n=79 v=77
21178 Off ch=8 n=79 v=77
21180 On ch=8 n=81 v=114
21238 Off ch=8 n=81 v=114
21240 On ch=8 n=76 v=78
21242 Off ch=8 n=86 v=73
21298 Off ch=8 n=76 v=78
21300 On ch=8 n=86 v=73
21300 On ch=8 n=81 v=117
21358 Off ch=8 n=86 v=73
21358 Off ch=8 n=81 v=117
21360 On ch=8 n=79 v=77
21418 Off ch=8 n=79 v=77
21420 On ch=8 n=81 v=115
21420 On ch=8 n=86 v=71
21478 Off ch=8 n=81 v=115
21478 Off ch=8 n=86 v=71
21480 On ch=8 n=79 v=75
21538 Off ch=8 n=79 v=75
21539 On ch=8 n=86 v=75
21540 On ch=8 n=81 v=117
21597 Off ch=8 n=86 v=75
21598 Off ch=8 n=81 v=117
21600 On ch=8 n=86 v=80
21600 On ch=8 n=83 v=77
21658 Off ch=8 n=86 v=80
21658 Off ch=8 n=83 v=77
21660 On ch=8 n=86 v=72
21660 On ch=8 n=83 v=79
21718 Off ch=8 n=86 v=72
21718 Off ch=8 n=83 v=79
21720 On ch=8 n=78 v=77
21778 Off ch=8 n=78 v=77
21780 On ch=8 n=86 v=77
21780 On ch=8 n=81 v=115
21838 Off ch=8 n=86 v=77
21838 Off ch=8 n=81 v=115
21840 On ch=8 n=79 v=75
21898 Off ch=8 n=79 v=75
21900 On ch=8 n=86 v=76
21900 On ch=8 n=81 v=117
21958 Off ch=8 n=86 v=76
21958 Off ch=8 n=81 v=117
21960 On ch=8 n=79 v=75
22018 Off ch=8 n=79 v=75
22020 On ch=8 n=86 v=73
22020 On ch=8 n=81 v=119
22078 Off ch=8 n=86 v=73
22078 Off ch=8 n=81 v=119
22080 On ch=8 n=86 v=76
22080 On ch=8 n=83 v=77
22138 Off ch=8 n=86 v=76
22138 Off ch=8 n=83 v=77
22140 On ch=8 n=78 v=73
22198 Off ch=8 n=78 v=73
22200 On ch=8 n=86 v=74
22200 On ch=8 n=81 v=118
22258 Off ch=8 n=86 v=74
22258 Off ch=8 n=81 v=118
22260 On ch=8 n=78 v=78
22318 Off ch=8 n=78 v=78
22319 On ch=8 n=86 v=73
22320 On ch=8 n=79 v=77
22378 Off ch=8 n=79 v=77
22380 On ch=8 n=81 v=114
22438 Off ch=8 n=81 v=114
22440 On ch=8 n=76 v=78
22442 Off ch=8 n=86 v=73
22498 Off ch=8 n=76 v=78
22500 On ch=8 n=81 v=117
22500 On ch=8 n=86 v=73
22558 Off ch=8 n=81 v=117
22558 Off ch=8 n=86 v=73
22560 On ch=8 n=79 v=77
22618 Off ch=8 n=79 v=77
22620 On ch=8 n=86 v=71
22620 On ch=8 n=81 v=115
22678 Off ch=8 n=86 v=71
22678 Off ch=8 n=81 v=115
22680 On ch=8 n=79 v=75
22738 Off ch=8 n=79 v=75
22739 On ch=8 n=86 v=75
22740 On ch=8 n=81 v=117
22797 Off ch=8 n=86 v=75
22798 Off ch=8 n=81 v=117
22800 On ch=8 n=83 v=77
22800 On ch=8 n=86 v=80
22858 Off ch=8 n=83 v=77
22858 Off ch=8 n=86 v=80
22860 On ch=8 n=83 v=79
22860 On ch=8 n=86 v=72
22918 Off ch=8 n=83 v=79
22918 Off ch=8 n=86 v=72
22920 On ch=8 n=78 v=77
22978 Off ch=8 n=78 v=77
22980 On ch=8 n=81 v=115
22980 On ch=8 n=86 v=77
23038 Off ch=8 n=81 v=115
23038 Off ch=8 n=86 v=77
23040 On ch=8 n=79 v=75
23098 Off ch=8 n=79 v=75
23100 On ch=8 n=81 v=117
23100 On ch=8 n=86 v=76
23158 Off ch=8 n=81 v=117
23158 Off ch=8 n=86 v=76
23160 On ch=8 n=79 v=75
23218 Off ch=8 n=79 v=75
23220 On ch=8 n=81 v=119
23220 On ch=8 n=86 v=73
23278 Off ch=8 n=81 v=119
23278 Off ch=8 n=86 v=73
23280 On ch=8 n=83 v=77
23280 On ch=8 n=86 v=76
23338 Off ch=8 n=83 v=77
23338 Off ch=8 n=86 v=76
23340 On ch=8 n=78 v=73
23398 Off ch=8 n=78 v=73
23400 On ch=8 n=81 v=118
23400 On ch=8 n=86 v=74
23458 Off ch=8 n=81 v=118
23458 Off ch=8 n=86 v=74
23460 On ch=8 n=78 v=78
23518 Off ch=8 n=78 v=78
23519 On ch=8 n=86 v=73
23520 On ch=8 n=79 v=77
23578 Off ch=8 n=79 v=77
23580 On ch=8 n=81 v=114
23638 Off ch=8 n=81 v=114
23640 On ch=8 n=76 v=78
23642 Off ch=8 n=86 v=73
23698 Off ch=8 n=76 v=78
23700 On ch=8 n=86 v=73
23700 On ch=8 n=81 v=117
23758 Off ch=8 n=86 v=73
23758 Off ch=8 n=81 v=117
23760 On ch=8 n=79 v=77
23818 Off ch=8 n=79 v=77
23820 On ch=8 n=81 v=115
23820 On ch=8 n=86 v=71
23878 Off ch=8 n=81 v=115
23878 Off ch=8 n=86 v=71
23880 On ch=8 n=79 v=75
23938 Off ch=8 n=79 v=75
23939 On ch=8 n=86 v=75
23940 On ch=8 n=81 v=117
23997 Off ch=8 n=86 v=75
23998 Off ch=8 n=81 v=117
24000 On ch=8 n=86 v=80
24000 On ch=8 n=83 v=77
24058 Off ch=8 n=86 v=80
24058 Off ch=8 n=83 v=77
24060 On ch=8 n=86 v=72
24060 On ch=8 n=83 v=79
24118 Off ch=8 n=86 v=72
24118 Off ch=8 n=83 v=79
24120 On ch=8 n=78 v=77
24178 Off ch=8 n=78 v=77
24180 On ch=8 n=86 v=77
24180 On ch=8 n=81 v=115
24238 Off ch=8 n=86 v=77
24238 Off ch=8 n=81 v=115
24240 On ch=8 n=79 v=75
24298 Off ch=8 n=79 v=75
24300 On ch=8 n=86 v=76
24300 On ch=8 n=81 v=117
24358 Off ch=8 n=86 v=76
24358 Off ch=8 n=81 v=117
24360 On ch=8 n=79 v=75
24418 Off ch=8 n=79 v=75
24420 On ch=8 n=86 v=73
24420 On ch=8 n=81 v=119
24478 Off ch=8 n=86 v=73
24478 Off ch=8 n=81 v=119
24480 On ch=8 n=86 v=76
24480 On ch=8 n=83 v=77
24538 Off ch=8 n=86 v=76
24538 Off ch=8 n=83 v=77
24540 On ch=8 n=78 v=73
24598 Off ch=8 n=78 v=73
24600 On ch=8 n=86 v=74
24600 On ch=8 n=81 v=118
24658 Off ch=8 n=86 v=74
24658 Off ch=8 n=81 v=118
24660 On ch=8 n=78 v=78
24718 Off ch=8 n=78 v=78
24719 On ch=8 n=86 v=73
24720 On ch=8 n=79 v=77
24778 Off ch=8 n=79 v=77
24780 On ch=8 n=81 v=114
24838 Off ch=8 n=81 v=114
24840 On ch=8 n=76 v=78
24842 Off ch=8 n=86 v=73
24898 Off ch=8 n=76 v=78
24900 On ch=8 n=81 v=117
24900 On ch=8 n=86 v=73
24958 Off ch=8 n=81 v=117
24958 Off ch=8 n=86 v=73
24960 On ch=8 n=79 v=77
25018 Off ch=8 n=79 v=77
25020 On ch=8 n=86 v=71
25020 On ch=8 n=81 v=115
25078 Off ch=8 n=86 v=71
25078 Off ch=8 n=81 v=115
25080 On ch=8 n=79 v=75
25138 Off ch=8 n=79 v=75
25139 On ch=8 n=86 v=75
25140 On ch=8 n=81 v=117
25197 Off ch=8 n=86 v=75
25198 Off ch=8 n=81 v=117
25200 On ch=8 n=83 v=77
25200 On ch=8 n=86 v=80
25258 Off ch=8 n=83 v=77
25258 Off ch=8 n=86 v=80
25260 On ch=8 n=83 v=79
25260 On ch=8 n=86 v=72
25318 Off ch=8 n=83 v=79
25318 Off ch=8 n=86 v=72
25320 On ch=8 n=78 v=77
25378 Off ch=8 n=78 v=77
25380 On ch=8 n=81 v=115
25380 On ch=8 n=86 v=77
25438 Off ch=8 n=81 v=115
25438 Off ch=8 n=86 v=77
25440 On ch=8 n=79 v=75
25498 Off ch=8 n=79 v=75
25500 On ch=8 n=81 v=117
25500 On ch=8 n=86 v=76
25558 Off ch=8 n=81 v=117
25558 Off ch=8 n=86 v=76
25560 On ch=8 n=79 v=75
25618 Off ch=8 n=79 v=75
25620 On ch=8 n=81 v=119
25620 On ch=8 n=86 v=73
25678 Off ch=8 n=81 v=119
25678 Off ch=8 n=86 v=73
25680 On ch=8 n=83 v=77
25680 On ch=8 n=86 v=76
25738 Off ch=8 n=83 v=77
25738 Off ch=8 n=86 v=76
25740 On ch=8 n=78 v=73
25798 Off ch=8 n=78 v=73
25800 On ch=8 n=81 v=118
25800 On ch=8 n=86 v=74
25858 Off ch=8 n=81 v=118
25858 Off ch=8 n=86 v=74
25860 On ch=8 n=78 v=78
25918 Off ch=8 n=78 v=78
25919 On ch=8 n=86 v=73
25920 On ch=8 n=79 v=77
25978 Off ch=8 n=79 v=77
25980 On ch=8 n=81 v=114
26038 Off ch=8 n=81 v=114
26040 On ch=8 n=76 v=78
26042 Off ch=8 n=86 v=73
26098 Off ch=8 n=76 v=78
26100 On ch=8 n=86 v=73
26100 On ch=8 n=81 v=117
26158 Off ch=8 n=86 v=73
26158 Off ch=8 n=81 v=117
26160 On ch=8 n=79 v=77
26218 Off ch=8 n=79 v=77
26220 On ch=8 n=81 v=115
26220 On ch=8 n=86 v=71
26278 Off ch=8 n=81 v=115
26278 Off ch=8 n=86 v=71
26280 On ch=8 n=79 v=75
26338 Off ch=8 n=79 v=75
26339 On ch=8 n=86 v=75
26340 On ch=8 n=81 v=117
26397 Off ch=8 n=86 v=75
26398 Off ch=8 n=81 v=117
26400 On ch=8 n=86 v=80
26400 On ch=8 n=83 v=77
26458 Off ch=8 n=86 v=80
26458 Off ch=8 n=83 v=77
26460 On ch=8 n=86 v=72
26460 On ch=8 n=83 v=79
26518 Off ch=8 n=86 v=72
26518 Off ch=8 n=83 v=79
26520 On ch=8 n=78 v=77
26578 Off ch=8 n=78 v=77
26580 On ch=8 n=86 v=77
26580 On ch=8 n=81 v=115
26638 Off ch=8 n=86 v=77
26638 Off ch=8 n=81 v=115
26640 On ch=8 n=79 v=75
26698 Off ch=8 n=79 v=75
26700 On ch=8 n=86 v=76
26700 On ch=8 n=81 v=117
26758 Off ch=8 n=86 v=76
26758 Off ch=8 n=81 v=117
26760 On ch=8 n=79 v=75
26818 Off ch=8 n=79 v=75
26820 On ch=8 n=86 v=73
26820 On ch=8 n=81 v=119
26878 Off ch=8 n=86 v=73
26878 Off ch=8 n=81 v=119
26880 On ch=8 n=86 v=76
26880 On ch=8 n=83 v=77
26938 Off ch=8 n=86 v=76
26938 Off ch=8 n=83 v=77
26940 On ch=8 n=78 v=73
26998 Off ch=8 n=78 v=73
27000 On ch=8 n=86 v=74
27000 On ch=8 n=81 v=118
27058 Off ch=8 n=86 v=74
27058 Off ch=8 n=81 v=118
27060 On ch=8 n=78 v=78
27118 Off ch=8 n=78 v=78
27119 On ch=8 n=86 v=73
27120 On ch=8 n=79 v=77
27178 Off ch=8 n=79 v=77
27180 On ch=8 n=81 v=114
27238 Off ch=8 n=81 v=114
27240 On ch=8 n=76 v=78
27242 Off ch=8 n=86 v=73
27298 Off ch=8 n=76 v=78
27300 On ch=8 n=81 v=117
27300 On ch=8 n=86 v=73
27358 Off ch=8 n=81 v=117
27358 Off ch=8 n=86 v=73
27360 On ch=8 n=79 v=77
27418 Off ch=8 n=79 v=77
27420 On ch=8 n=86 v=71
27420 On ch=8 n=81 v=115
27478 Off ch=8 n=86 v=71
27478 Off ch=8 n=81 v=115
27480 On ch=8 n=79 v=75
27538 Off ch=8 n=79 v=75
27539 On ch=8 n=86 v=75
27540 On ch=8 n=81 v=117
27597 Off ch=8 n=86 v=75
27598 Off ch=8 n=81 v=117
27600 On ch=8 n=83 v=77
27600 On ch=8 n=86 v=80
27658 Off ch=8 n=83 v=77
27658 Off ch=8 n=86 v=80
27660 On ch=8 n=83 v=79
27660 On ch=8 n=86 v=72
27718 Off ch=8 n=83 v=79
27718 Off ch=8 n=86 v=72
27720 On ch=8 n=78 v=77
27778 Off ch=8 n=78 v=77
27780 On ch=8 n=81 v=115
27780 On ch=8 n=86 v=77
27838 Off ch=8 n=81 v=115
27838 Off ch=8 n=86 v=77
27840 On ch=8 n=79 v=75
27898 Off ch=8 n=79 v=75
27900 On ch=8 n=81 v=117
27900 On ch=8 n=86 v=76
27958 Off ch=8 n=81 v=117
27958 Off ch=8 n=86 v=76
27960 On ch=8 n=79 v=75
28018 Off ch=8 n=79 v=75
28020 On ch=8 n=81 v=119
28020 On ch=8 n=86 v=73
28078 Off ch=8 n=81 v=119
28078 Off ch=8 n=86 v=73
28080 On ch=8 n=83 v=77
28080 On ch=8 n=86 v=76
28138 Off ch=8 n=83 v=77
28138 Off ch=8 n=86 v=76
28140 On ch=8 n=78 v=73
28198 Off ch=8 n=78 v=73
28200 On ch=8 n=81 v=118
28200 On ch=8 n=86 v=74
28258 Off ch=8 n=81 v=118
28258 Off ch=8 n=86 v=74
28260 On ch=8 n=78 v=78
28318 Off ch=8 n=78 v=78
28319 On ch=8 n=86 v=73
28320 On ch=8 n=79 v=77
28378 Off ch=8 n=79 v=77
28380 On ch=8 n=81 v=114
28438 Off ch=8 n=81 v=114
28440 On ch=8 n=76 v=78
28442 Off ch=8 n=86 v=73
28498 Off ch=8 n=76 v=78
28500 On ch=8 n=86 v=73
28500 On ch=8 n=81 v=117
28558 Off ch=8 n=86 v=73
28558 Off ch=8 n=81 v=117
28560 On ch=8 n=79 v=77
28618 Off ch=8 n=79 v=77
28620 On ch=8 n=81 v=115
28620 On ch=8 n=86 v=71
28678 Off ch=8 n=81 v=115
28678 Off ch=8 n=86 v=71
28680 On ch=8 n=79 v=75
28738 Off ch=8 n=79 v=75
28739 On ch=8 n=86 v=75
28740 On ch=8 n=81 v=117
28797 Off ch=8 n=86 v=75
28798 Off ch=8 n=81 v=117
28800 On ch=8 n=62 v=106
28918 Off ch=8 n=62 v=106
28920 On ch=8 n=64 v=110
29038 Off ch=8 n=64 v=110
29040 On ch=8 n=66 v=116
29158 Off ch=8 n=66 v=116
29160 On ch=8 n=67 v=104
29278 Off ch=8 n=67 v=104
29280 On ch=8 n=69 v=106
29398 Off ch=8 n=69 v=106
29400 On ch=8 n=71 v=106
29518 Off ch=8 n=71 v=106
29520 On ch=8 n=72 v=106
29638 Off ch=8 n=72 v=106
29640 On ch=8 n=74 v=110
29758 Off ch=8 n=74 v=110
29760 On ch=8 n=76 v=104
29878 Off ch=8 n=76 v=104
29880 On ch=8 n=78 v=107
29998 Off ch=8 n=78 v=107
30000 On ch=8 n=79 v=104
30118 Off ch=8 n=79 v=104
30120 On ch=8 n=81 v=110
30238 Off ch=8 n=81 v=110
30240 On ch=8 n=83 v=120
30358 Off ch=8 n=83 v=120
30360 On ch=8 n=84 v=110
30478 Off ch=8 n=84 v=110
30480 On ch=8 n=86 v=108
30598 Off ch=8 n=86 v=108
30600 On ch=8 n=88 v=106
30718 Off ch=8 n=88 v=106
30720 On ch=8 n=86 v=112
30838 Off ch=8 n=86 v=112
30840 On ch=8 n=84 v=114
30958 Off ch=8 n=84 v=114
30960 On ch=8 n=83 v=108
31078 Off ch=8 n=83 v=108
31080 On ch=8 n=81 v=90
31595 Off ch=8 n=81 v=90
35520 PrCh ch=8 p=18
36000 On ch=8 n=86 v=80
36000 On ch=8 n=83 v=77
36095 Off ch=8 n=86 v=80
36095 Off ch=8 n=83 v=77
36120 On ch=8 n=83 v=79
36120 On ch=8 n=86 v=72
36214 Off ch=8 n=83 v=79
36214 Off ch=8 n=86 v=72
36240 On ch=8 n=78 v=77
36334 Off ch=8 n=78 v=77
36360 On ch=8 n=81 v=75
36360 On ch=8 n=86 v=77
36454 Off ch=8 n=81 v=75
36454 Off ch=8 n=86 v=77
36480 On ch=8 n=79 v=75
36574 Off ch=8 n=79 v=75
36600 On ch=8 n=81 v=77
36600 On ch=8 n=86 v=76
36694 Off ch=8 n=81 v=77
36694 Off ch=8 n=86 v=76
36720 On ch=8 n=79 v=75
36814 Off ch=8 n=79 v=75
36840 On ch=8 n=81 v=79
36840 On ch=8 n=86 v=73
36934 Off ch=8 n=81 v=79
36934 Off ch=8 n=86 v=73
36960 On ch=8 n=83 v=77
36960 On ch=8 n=86 v=76
37054 Off ch=8 n=83 v=77
37054 Off ch=8 n=86 v=76
37080 On ch=8 n=78 v=73
37174 Off ch=8 n=78 v=73
37200 On ch=8 n=86 v=74
37200 On ch=8 n=81 v=78
37294 Off ch=8 n=86 v=74
37294 Off ch=8 n=81 v=78
37320 On ch=8 n=78 v=78
37414 Off ch=8 n=78 v=78
37440 On ch=8 n=79 v=77
37440 On ch=8 n=86 v=74
37534 Off ch=8 n=79 v=77
37560 On ch=8 n=81 v=74
37654 Off ch=8 n=81 v=74
37674 Off ch=8 n=86 v=74
37680 On ch=8 n=76 v=78
37774 Off ch=8 n=76 v=78
37800 On ch=8 n=81 v=77
37800 On ch=8 n=86 v=73
37894 Off ch=8 n=81 v=77
37894 Off ch=8 n=86 v=73
37920 On ch=8 n=79 v=77
38015 Off ch=8 n=79 v=77
38040 On ch=8 n=81 v=75
38040 On ch=8 n=86 v=71
38134 Off ch=8 n=81 v=75
38134 Off ch=8 n=86 v=71
38160 On ch=8 n=79 v=75
38254 Off ch=8 n=79 v=75
38280 On ch=8 n=81 v=77
38280 On ch=8 n=86 v=75
38374 Off ch=8 n=81 v=77
38374 Off ch=8 n=86 v=75
38400 On ch=8 n=86 v=80
38400 On ch=8 n=83 v=77
38495 Off ch=8 n=86 v=80
38495 Off ch=8 n=83 v=77
38520 On ch=8 n=83 v=79
38520 On ch=8 n=86 v=72
38614 Off ch=8 n=83 v=79
38614 Off ch=8 n=86 v=72
38640 On ch=8 n=78 v=77
38734 Off ch=8 n=78 v=77
38760 On ch=8 n=81 v=75
38760 On ch=8 n=86 v=77
38854 Off ch=8 n=81 v=75
38854 Off ch=8 n=86 v=77
38880 On ch=8 n=79 v=75
38974 Off ch=8 n=79 v=75
39000 On ch=8 n=81 v=77
39000 On ch=8 n=86 v=76
39094 Off ch=8 n=81 v=77
39094 Off ch=8 n=86 v=76
39120 On ch=8 n=79 v=75
39214 Off ch=8 n=79 v=75
39240 On ch=8 n=81 v=79
39240 On ch=8 n=86 v=73
39334 Off ch=8 n=81 v=79
39334 Off ch=8 n=86 v=73
39360 On ch=8 n=83 v=77
39360 On ch=8 n=86 v=76
39454 Off ch=8 n=83 v=77
39454 Off ch=8 n=86 v=76
39480 On ch=8 n=78 v=73
39574 Off ch=8 n=78 v=73
39600 On ch=8 n=86 v=74
39600 On ch=8 n=81 v=78
39694 Off ch=8 n=86 v=74
39694 Off ch=8 n=81 v=78
39720 On ch=8 n=78 v=78
39814 Off ch=8 n=78 v=78
39840 On ch=8 n=79 v=77
39840 On ch=8 n=86 v=74
39934 Off ch=8 n=79 v=77
39960 On ch=8 n=81 v=74
40054 Off ch=8 n=81 v=74
40074 Off ch=8 n=86 v=74
40080 On ch=8 n=76 v=78
40174 Off ch=8 n=76 v=78
40200 On ch=8 n=81 v=77
40200 On ch=8 n=86 v=73
40294 Off ch=8 n=81 v=77
40294 Off ch=8 n=86 v=73
40320 On ch=8 n=79 v=77
40415 Off ch=8 n=79 v=77
40440 On ch=8 n=81 v=75
40440 On ch=8 n=86 v=71
40534 Off ch=8 n=81 v=75
40534 Off ch=8 n=86 v=71
40560 On ch=8 n=79 v=75
40654 Off ch=8 n=79 v=75
40680 On ch=8 n=81 v=77
40680 On ch=8 n=86 v=75
40774 Off ch=8 n=81 v=77
40774 Off ch=8 n=86 v=75
40800 On ch=8 n=86 v=80
40800 On ch=8 n=83 v=77
40895 Off ch=8 n=86 v=80
40895 Off ch=8 n=83 v=77
40920 On ch=8 n=83 v=79
40920 On ch=8 n=86 v=72
41014 Off ch=8 n=83 v=79
41014 Off ch=8 n=86 v=72
41040 On ch=8 n=78 v=77
41134 Off ch=8 n=78 v=77
41160 On ch=8 n=81 v=75
41160 On ch=8 n=86 v=77
41254 Off ch=8 n=81 v=75
41254 Off ch=8 n=86 v=77
41280 On ch=8 n=79 v=75
41374 Off ch=8 n=79 v=75
41400 On ch=8 n=81 v=77
41400 On ch=8 n=86 v=76
41494 Off ch=8 n=81 v=77
41494 Off ch=8 n=86 v=76
41520 On ch=8 n=79 v=75
41614 Off ch=8 n=79 v=75
41640 On ch=8 n=81 v=79
41640 On ch=8 n=86 v=73
41734 Off ch=8 n=81 v=79
41734 Off ch=8 n=86 v=73
41760 On ch=8 n=83 v=77
41760 On ch=8 n=86 v=76
41854 Off ch=8 n=83 v=77
41854 Off ch=8 n=86 v=76
41880 On ch=8 n=78 v=73
41974 Off ch=8 n=78 v=73
42000 On ch=8 n=86 v=74
42000 On ch=8 n=81 v=78
42094 Off ch=8 n=86 v=74
42094 Off ch=8 n=81 v=78
42120 On ch=8 n=78 v=78
42214 Off ch=8 n=78 v=78
42240 On ch=8 n=79 v=77
42240 On ch=8 n=86 v=74
42334 Off ch=8 n=79 v=77
42360 On ch=8 n=81 v=74
42454 Off ch=8 n=81 v=74
42474 Off ch=8 n=86 v=74
42480 On ch=8 n=76 v=78
42574 Off ch=8 n=76 v=78
42600 On ch=8 n=81 v=77
42600 On ch=8 n=86 v=73
42694 Off ch=8 n=81 v=77
42694 Off ch=8 n=86 v=73
42720 On ch=8 n=79 v=77
42815 Off ch=8 n=79 v=77
42840 On ch=8 n=81 v=75
42840 On ch=8 n=86 v=71
42934 Off ch=8 n=81 v=75
42934 Off ch=8 n=86 v=71
42960 On ch=8 n=79 v=75
43054 Off ch=8 n=79 v=75
43080 On ch=8 n=81 v=77
43080 On ch=8 n=86 v=75
43174 Off ch=8 n=81 v=77
43174 Off ch=8 n=86 v=75
43200 On ch=8 n=86 v=80
43200 On ch=8 n=83 v=77
43295 Off ch=8 n=86 v=80
43295 Off ch=8 n=83 v=77
43320 On ch=8 n=83 v=79
43320 On ch=8 n=86 v=72
43414 Off ch=8 n=83 v=79
43414 Off ch=8 n=86 v=72
43440 On ch=8 n=78 v=77
43534 Off ch=8 n=78 v=77
43560 On ch=8 n=81 v=75
43560 On ch=8 n=86 v=77
43654 Off ch=8 n=81 v=75
43654 Off ch=8 n=86 v=77
43680 On ch=8 n=79 v=75
43774 Off ch=8 n=79 v=75
43800 On ch=8 n=81 v=77
43800 On ch=8 n=86 v=76
43894 Off ch=8 n=81 v=77
43894 Off ch=8 n=86 v=76
43920 On ch=8 n=79 v=75
44014 Off ch=8 n=79 v=75
44040 On ch=8 n=81 v=79
44040 On ch=8 n=86 v=73
44134 Off ch=8 n=81 v=79
44134 Off ch=8 n=86 v=73
44160 On ch=8 n=83 v=77
44160 On ch=8 n=86 v=76
44254 Off ch=8 n=83 v=77
44254 Off ch=8 n=86 v=76
44280 On ch=8 n=78 v=73
44374 Off ch=8 n=78 v=73
44400 On ch=8 n=86 v=74
44400 On ch=8 n=81 v=78
44494 Off ch=8 n=86 v=74
44494 Off ch=8 n=81 v=78
44520 On ch=8 n=78 v=78
44614 Off ch=8 n=78 v=78
44640 On ch=8 n=79 v=77
44640 On ch=8 n=86 v=74
44734 Off ch=8 n=79 v=77
44760 On ch=8 n=81 v=74
44854 Off ch=8 n=81 v=74
44874 Off ch=8 n=86 v=74
44880 On ch=8 n=76 v=78
44974 Off ch=8 n=76 v=78
45000 On ch=8 n=81 v=77
45000 On ch=8 n=86 v=73
45094 Off ch=8 n=81 v=77
45094 Off ch=8 n=86 v=73
45120 On ch=8 n=79 v=77
45215 Off ch=8 n=79 v=77
45240 On ch=8 n=81 v=75
45240 On ch=8 n=86 v=71
45334 Off ch=8 n=81 v=75
45334 Off ch=8 n=86 v=71
45360 On ch=8 n=79 v=75
45454 Off ch=8 n=79 v=75
45480 On ch=8 n=81 v=77
45480 On ch=8 n=86 v=75
45574 Off ch=8 n=81 v=77
45574 Off ch=8 n=86 v=75
45600 On ch=8 n=86 v=80
45600 On ch=8 n=83 v=77
45695 Off ch=8 n=86 v=80
45695 Off ch=8 n=83 v=77
45720 On ch=8 n=83 v=79
45720 On ch=8 n=86 v=72
45814 Off ch=8 n=83 v=79
45814 Off ch=8 n=86 v=72
45840 On ch=8 n=78 v=77
45934 Off ch=8 n=78 v=77
45960 On ch=8 n=81 v=75
45960 On ch=8 n=86 v=77
46054 Off ch=8 n=81 v=75
46054 Off ch=8 n=86 v=77
46080 On ch=8 n=79 v=75
46174 Off ch=8 n=79 v=75
46200 On ch=8 n=81 v=77
46200 On ch=8 n=86 v=76
46294 Off ch=8 n=81 v=77
46294 Off ch=8 n=86 v=76
46320 On ch=8 n=79 v=75
46414 Off ch=8 n=79 v=75
46440 On ch=8 n=81 v=79
46440 On ch=8 n=86 v=73
46534 Off ch=8 n=81 v=79
46534 Off ch=8 n=86 v=73
46560 On ch=8 n=83 v=77
46560 On ch=8 n=86 v=76
46654 Off ch=8 n=83 v=77
46654 Off ch=8 n=86 v=76
46680 On ch=8 n=78 v=73
46774 Off ch=8 n=78 v=73
46800 On ch=8 n=86 v=74
46800 On ch=8 n=81 v=78
46894 Off ch=8 n=86 v=74
46894 Off ch=8 n=81 v=78
46920 On ch=8 n=78 v=78
47014 Off ch=8 n=78 v=78
47040 On ch=8 n=79 v=77
47040 On ch=8 n=86 v=74
47134 Off ch=8 n=79 v=77
47160 On ch=8 n=81 v=74
47254 Off ch=8 n=81 v=74
47274 Off ch=8 n=86 v=74
47280 On ch=8 n=76 v=78
47374 Off ch=8 n=76 v=78
47400 On ch=8 n=81 v=77
47400 On ch=8 n=86 v=73
47494 Off ch=8 n=81 v=77
47494 Off ch=8 n=86 v=73
47520 On ch=8 n=79 v=77
47615 Off ch=8 n=79 v=77
47640 On ch=8 n=81 v=75
47640 On ch=8 n=86 v=71
47734 Off ch=8 n=81 v=75
47734 Off ch=8 n=86 v=71
47760 On ch=8 n=79 v=75
47854 Off ch=8 n=79 v=75
47880 On ch=8 n=81 v=77
47880 On ch=8 n=86 v=75
47974 Off ch=8 n=81 v=77
47974 Off ch=8 n=86 v=75
55200 On ch=8 n=86 v=80
55200 On ch=8 n=83 v=77
55295 Off ch=8 n=86 v=80
55295 Off ch=8 n=83 v=77
55320 On ch=8 n=83 v=79
55320 On ch=8 n=86 v=72
55414 Off ch=8 n=83 v=79
55414 Off ch=8 n=86 v=72
55440 On ch=8 n=78 v=77
55534 Off ch=8 n=78 v=77
55560 On ch=8 n=81 v=75
55560 On ch=8 n=86 v=77
55654 Off ch=8 n=81 v=75
55654 Off ch=8 n=86 v=77
55680 On ch=8 n=79 v=75
55774 Off ch=8 n=79 v=75
55800 On ch=8 n=81 v=77
55800 On ch=8 n=86 v=76
55894 Off ch=8 n=81 v=77
55894 Off ch=8 n=86 v=76
55920 On ch=8 n=79 v=75
56014 Off ch=8 n=79 v=75
56040 On ch=8 n=81 v=79
56040 On ch=8 n=86 v=73
56134 Off ch=8 n=81 v=79
56134 Off ch=8 n=86 v=73
56160 On ch=8 n=83 v=77
56160 On ch=8 n=86 v=76
56254 Off ch=8 n=83 v=77
56254 Off ch=8 n=86 v=76
56280 On ch=8 n=78 v=73
56374 Off ch=8 n=78 v=73
56400 On ch=8 n=86 v=74
56400 On ch=8 n=81 v=78
56494 Off ch=8 n=86 v=74
56494 Off ch=8 n=81 v=78
56520 On ch=8 n=78 v=78
56614 Off ch=8 n=78 v=78
56640 On ch=8 n=79 v=77
56640 On ch=8 n=86 v=74
56734 Off ch=8 n=79 v=77
56760 On ch=8 n=81 v=74
56854 Off ch=8 n=81 v=74
56874 Off ch=8 n=86 v=74
56880 On ch=8 n=76 v=78
56974 Off ch=8 n=76 v=78
57000 On ch=8 n=81 v=77
57000 On ch=8 n=86 v=73
57094 Off ch=8 n=81 v=77
57094 Off ch=8 n=86 v=73
57120 On ch=8 n=79 v=77
57215 Off ch=8 n=79 v=77
57240 On ch=8 n=81 v=75
57240 On ch=8 n=86 v=71
57334 Off ch=8 n=81 v=75
57334 Off ch=8 n=86 v=71
57360 On ch=8 n=79 v=75
57454 Off ch=8 n=79 v=75
57480 On ch=8 n=81 v=77
57480 On ch=8 n=86 v=75
57574 Off ch=8 n=81 v=77
57574 Off ch=8 n=86 v=75
57600 On ch=8 n=86 v=80
57600 On ch=8 n=83 v=77
57695 Off ch=8 n=86 v=80
57695 Off ch=8 n=83 v=77
57720 On ch=8 n=83 v=79
57720 On ch=8 n=86 v=72
57814 Off ch=8 n=83 v=79
57814 Off ch=8 n=86 v=72
57840 On ch=8 n=78 v=77
57934 Off ch=8 n=78 v=77
57960 On ch=8 n=81 v=75
57960 On ch=8 n=86 v=77
58054 Off ch=8 n=81 v=75
58054 Off ch=8 n=86 v=77
58080 On ch=8 n=79 v=75
58174 Off ch=8 n=79 v=75
58200 On ch=8 n=81 v=77
58200 On ch=8 n=86 v=76
58294 Off ch=8 n=81 v=77
58294 Off ch=8 n=86 v=76
58320 On ch=8 n=79 v=75
58414 Off ch=8 n=79 v=75
58440 On ch=8 n=81 v=79
58440 On ch=8 n=86 v=73
58534 Off ch=8 n=81 v=79
58534 Off ch=8 n=86 v=73
58560 On ch=8 n=83 v=77
58560 On ch=8 n=86 v=76
58654 Off ch=8 n=83 v=77
58654 Off ch=8 n=86 v=76
58680 On ch=8 n=78 v=73
58774 Off ch=8 n=78 v=73
58800 On ch=8 n=86 v=74
58800 On ch=8 n=81 v=78
58894 Off ch=8 n=86 v=74
58894 Off ch=8 n=81 v=78
58920 On ch=8 n=78 v=78
59014 Off ch=8 n=78 v=78
59040 On ch=8 n=79 v=77
59040 On ch=8 n=86 v=74
59134 Off ch=8 n=79 v=77
59160 On ch=8 n=81 v=74
59254 Off ch=8 n=81 v=74
59274 Off ch=8 n=86 v=74
59280 On ch=8 n=76 v=78
59374 Off ch=8 n=76 v=78
59400 On ch=8 n=81 v=77
59400 On ch=8 n=86 v=73
59494 Off ch=8 n=81 v=77
59494 Off ch=8 n=86 v=73
59520 On ch=8 n=79 v=77
59615 Off ch=8 n=79 v=77
59640 On ch=8 n=81 v=75
59640 On ch=8 n=86 v=71
59734 Off ch=8 n=81 v=75
59734 Off ch=8 n=86 v=71
59760 On ch=8 n=79 v=75
59854 Off ch=8 n=79 v=75
59880 On ch=8 n=81 v=77
59880 On ch=8 n=86 v=75
59974 Off ch=8 n=81 v=77
59974 Off ch=8 n=86 v=75
60000 On ch=8 n=86 v=80
60000 On ch=8 n=83 v=77
60095 Off ch=8 n=86 v=80
60095 Off ch=8 n=83 v=77
60120 On ch=8 n=83 v=79
60120 On ch=8 n=86 v=72
60214 Off ch=8 n=83 v=79
60214 Off ch=8 n=86 v=72
60240 On ch=8 n=78 v=77
60334 Off ch=8 n=78 v=77
60360 On ch=8 n=81 v=75
60360 On ch=8 n=86 v=77
60454 Off ch=8 n=81 v=75
60454 Off ch=8 n=86 v=77
60480 On ch=8 n=79 v=75
60574 Off ch=8 n=79 v=75
60600 On ch=8 n=81 v=77
60600 On ch=8 n=86 v=76
60694 Off ch=8 n=81 v=77
60694 Off ch=8 n=86 v=76
60720 On ch=8 n=79 v=75
60814 Off ch=8 n=79 v=75
60840 On ch=8 n=81 v=79
60840 On ch=8 n=86 v=73
60934 Off ch=8 n=81 v=79
60934 Off ch=8 n=86 v=73
60960 On ch=8 n=83 v=77
60960 On ch=8 n=86 v=76
61054 Off ch=8 n=83 v=77
61054 Off ch=8 n=86 v=76
61080 On ch=8 n=78 v=73
61174 Off ch=8 n=78 v=73
61200 On ch=8 n=86 v=74
61200 On ch=8 n=81 v=78
61294 Off ch=8 n=86 v=74
61294 Off ch=8 n=81 v=78
61320 On ch=8 n=78 v=78
61414 Off ch=8 n=78 v=78
61440 On ch=8 n=79 v=77
61440 On ch=8 n=86 v=74
61534 Off ch=8 n=79 v=77
61560 On ch=8 n=81 v=74
61654 Off ch=8 n=81 v=74
61674 Off ch=8 n=86 v=74
61680 On ch=8 n=76 v=78
61774 Off ch=8 n=76 v=78
61800 On ch=8 n=81 v=77
61800 On ch=8 n=86 v=73
61894 Off ch=8 n=81 v=77
61894 Off ch=8 n=86 v=73
61920 On ch=8 n=79 v=77
62015 Off ch=8 n=79 v=77
62040 On ch=8 n=81 v=75
62040 On ch=8 n=86 v=71
62134 Off ch=8 n=81 v=75
62134 Off ch=8 n=86 v=71
62160 On ch=8 n=79 v=75
62254 Off ch=8 n=79 v=75
62280 On ch=8 n=81 v=77
62280 On ch=8 n=86 v=75
62374 Off ch=8 n=81 v=77
62374 Off ch=8 n=86 v=75
62400 On ch=8 n=86 v=80
62400 On ch=8 n=83 v=77
62495 Off ch=8 n=86 v=80
62495 Off ch=8 n=83 v=77
62520 On ch=8 n=83 v=79
62520 On ch=8 n=86 v=72
62614 Off ch=8 n=83 v=79
62614 Off ch=8 n=86 v=72
62640 On ch=8 n=78 v=77
62734 Off ch=8 n=78 v=77
62760 On ch=8 n=81 v=75
62760 On ch=8 n=86 v=77
62854 Off ch=8 n=81 v=75
62854 Off ch=8 n=86 v=77
62880 On ch=8 n=79 v=75
62974 Off ch=8 n=79 v=75
63000 On ch=8 n=81 v=77
63000 On ch=8 n=86 v=76
63094 Off ch=8 n=81 v=77
63094 Off ch=8 n=86 v=76
63120 On ch=8 n=79 v=75
63214 Off ch=8 n=79 v=75
63240 On ch=8 n=81 v=79
63240 On ch=8 n=86 v=73
63334 Off ch=8 n=81 v=79
63334 Off ch=8 n=86 v=73
63360 On ch=8 n=83 v=77
63360 On ch=8 n=86 v=76
63454 Off ch=8 n=83 v=77
63454 Off ch=8 n=86 v=76
63480 On ch=8 n=78 v=73
63574 Off ch=8 n=78 v=73
63600 On ch=8 n=86 v=74
63600 On ch=8 n=81 v=78
63694 Off ch=8 n=86 v=74
63694 Off ch=8 n=81 v=78
63720 On ch=8 n=78 v=78
63814 Off ch=8 n=78 v=78
63840 On ch=8 n=79 v=77
63840 On ch=8 n=86 v=74
63934 Off ch=8 n=79 v=77
63960 On ch=8 n=81 v=74
64054 Off ch=8 n=81 v=74
64074 Off ch=8 n=86 v=74
64080 On ch=8 n=76 v=78
64174 Off ch=8 n=76 v=78
64200 On ch=8 n=81 v=77
64200 On ch=8 n=86 v=73
64294 Off ch=8 n=81 v=77
64294 Off ch=8 n=86 v=73
64320 On ch=8 n=79 v=77
64415 Off ch=8 n=79 v=77
64440 On ch=8 n=81 v=75
64440 On ch=8 n=86 v=71
64534 Off ch=8 n=81 v=75
64534 Off ch=8 n=86 v=71
64560 On ch=8 n=79 v=75
64654 Off ch=8 n=79 v=75
64680 On ch=8 n=81 v=77
64680 On ch=8 n=86 v=75
64774 Off ch=8 n=81 v=77
64774 Off ch=8 n=86 v=75
64800 On ch=8 n=86 v=80
64800 On ch=8 n=83 v=77
64895 Off ch=8 n=86 v=80
64895 Off ch=8 n=83 v=77
64920 On ch=8 n=83 v=79
64920 On ch=8 n=86 v=72
65014 Off ch=8 n=83 v=79
65014 Off ch=8 n=86 v=72
65040 On ch=8 n=78 v=77
65134 Off ch=8 n=78 v=77
65160 On ch=8 n=81 v=75
65160 On ch=8 n=86 v=77
65254 Off ch=8 n=81 v=75
65254 Off ch=8 n=86 v=77
65280 On ch=8 n=79 v=75
65374 Off ch=8 n=79 v=75
65400 On ch=8 n=81 v=77
65400 On ch=8 n=86 v=76
65494 Off ch=8 n=81 v=77
65494 Off ch=8 n=86 v=76
65520 On ch=8 n=79 v=75
65614 Off ch=8 n=79 v=75
65640 On ch=8 n=81 v=79
65640 On ch=8 n=86 v=73
65734 Off ch=8 n=81 v=79
65734 Off ch=8 n=86 v=73
65760 On ch=8 n=83 v=77
65760 On ch=8 n=86 v=76
65854 Off ch=8 n=83 v=77
65854 Off ch=8 n=86 v=76
65880 On ch=8 n=78 v=73
65974 Off ch=8 n=78 v=73
66000 On ch=8 n=86 v=74
66000 On ch=8 n=81 v=78
66094 Off ch=8 n=86 v=74
66094 Off ch=8 n=81 v=78
66120 On ch=8 n=78 v=78
66214 Off ch=8 n=78 v=78
66240 On ch=8 n=79 v=77
66240 On ch=8 n=86 v=74
66334 Off ch=8 n=79 v=77
66360 On ch=8 n=81 v=74
66454 Off ch=8 n=81 v=74
66474 Off ch=8 n=86 v=74
66480 On ch=8 n=76 v=78
66574 Off ch=8 n=76 v=78
66600 On ch=8 n=81 v=77
66600 On ch=8 n=86 v=73
66694 Off ch=8 n=81 v=77
66694 Off ch=8 n=86 v=73
66720 On ch=8 n=79 v=77
66815 Off ch=8 n=79 v=77
66840 On ch=8 n=81 v=75
66840 On ch=8 n=86 v=71
66934 Off ch=8 n=81 v=75
66934 Off ch=8 n=86 v=71
66960 On ch=8 n=79 v=75
67054 Off ch=8 n=79 v=75
67080 On ch=8 n=81 v=77
67080 On ch=8 n=86 v=75
67174 Off ch=8 n=81 v=77
67174 Off ch=8 n=86 v=75
76800 Par ch=8 c=99 v=1
76800 Par ch=8 c=98 v=8
76800 Par ch=8 c=6 v=64
76800 Par ch=8 c=38 v=0
76800 Par ch=8 c=99 v=1
76800 Par ch=8 c=98 v=9
76800 Par ch=8 c=6 v=83
76800 Par ch=8 c=38 v=0
76807 On ch=8 n=91 v=90
76808 On ch=8 n=88 v=91
77048 Off ch=8 n=91 v=90
77057 Off ch=8 n=88 v=91
77176 On ch=8 n=88 v=88
77179 On ch=8 n=91 v=88
77410 Off ch=8 n=91 v=88
77418 Off ch=8 n=88 v=88
77548 On ch=8 n=90 v=106
77551 On ch=8 n=91 v=106
77807 Off ch=8 n=91 v=106
77809 Off ch=8 n=90 v=106
77885 On ch=8 n=91 v=100
77900 On ch=8 n=90 v=116
78140 Off ch=8 n=90 v=116
78146 Off ch=8 n=91 v=100
78250 On ch=8 n=86 v=77
78252 On ch=8 n=91 v=112
78470 Off ch=8 n=86 v=77
78487 Off ch=8 n=91 v=112
78611 On ch=8 n=91 v=110
78618 On ch=8 n=86 v=73
78872 Off ch=8 n=91 v=110
78876 Off ch=8 n=86 v=73
78983 On ch=8 n=90 v=94
78983 On ch=8 n=91 v=114
79200 Off ch=8 n=90 v=94
79200 Off ch=8 n=91 v=114
79324 On ch=8 n=91 v=110
79327 On ch=8 n=90 v=123
79566 Off ch=8 n=90 v=123
79576 Off ch=8 n=91 v=110
79684 On ch=8 n=88 v=123
79686 On ch=8 n=91 v=108
79878 Off ch=8 n=88 v=123
79907 Off ch=8 n=91 v=108
80047 On ch=8 n=91 v=106
80051 On ch=8 n=88 v=110
80287 Off ch=8 n=88 v=110
80307 Off ch=8 n=91 v=106
80394 On ch=8 n=91 v=85
80414 On ch=8 n=90 v=87
80624 Off ch=8 n=91 v=85
80636 Off ch=8 n=90 v=87
80761 On ch=8 n=91 v=85
80761 On ch=8 n=90 v=74
80980 Off ch=8 n=90 v=74
81013 Off ch=8 n=91 v=85
81126 On ch=8 n=88 v=113
81129 On ch=8 n=91 v=84
81494 Off ch=8 n=88 v=113
81509 Off ch=8 n=91 v=84
81600 Par ch=8 c=10 v=0
83305 On ch=8 n=95 v=85
83432 Par ch=8 c=10 v=1
83767 Par ch=8 c=7 v=65
83777 Par ch=8 c=7 v=60
83787 Par ch=8 c=7 v=57
83796 Par ch=8 c=7 v=56
83797 On ch=8 n=95 v=114
83801 On ch=8 n=88 v=108
83835 Par ch=8 c=7 v=61
83844 Par ch=8 c=7 v=68
83855 Par ch=8 c=7 v=78
83863 Par ch=8 c=7 v=6
83864 Par ch=8 c=7 v=90
83874 Par ch=8 c=7 v=98
83883 Par ch=8 c=7 v=101
83902 Par ch=8 c=7 v=96
83912 Par ch=8 c=7 v=89
83922 Par ch=8 c=7 v=79
83931 Par ch=8 c=7 v=70
83941 Par ch=8 c=7 v=63
83951 Par ch=8 c=7 v=58
83961 Par ch=8 c=7 v=55
83970 Par ch=8 c=7 v=54
83999 Par ch=8 c=7 v=59
84009 Par ch=8 c=7 v=61
84018 Par ch=8 c=7 v=72
84028 Par ch=8 c=7 v=82
84038 Par ch=8 c=7 v=87
84048 Par ch=8 c=7 v=90
84058 Par ch=8 c=7 v=87
84067 Par ch=8 c=7 v=80
84077 Par ch=8 c=7 v=69
84086 Par ch=8 c=7 v=60
84096 Par ch=8 c=7 v=54
84105 Par ch=8 c=7 v=50
84115 Par ch=8 c=7 v=53
84119 Par ch=8 c=7 v=8
84144 Par ch=8 c=7 v=55
84154 Par ch=8 c=7 v=64
84163 Par ch=8 c=7 v=76
84173 Par ch=8 c=7 v=86
84183 Par ch=8 c=7 v=90
84186 Par ch=8 c=7 v=11
84192 Par ch=8 c=7 v=87
84202 Par ch=8 c=7 v=77
84212 Par ch=8 c=7 v=68
84222 Par ch=8 c=7 v=60
84231 Par ch=8 c=7 v=56
84241 Par ch=8 c=7 v=54
84260 Par ch=8 c=7 v=60
84270 Par ch=8 c=7 v=73
84280 Par ch=8 c=7 v=88
84289 Par ch=8 c=7 v=94
84299 Par ch=8 c=7 v=91
84308 Par ch=8 c=7 v=79
84318 Par ch=8 c=7 v=67
84328 Par ch=8 c=7 v=60
84338 Par ch=8 c=7 v=55
84356 Par ch=8 c=7 v=69
84357 Par ch=8 c=7 v=23
84367 Par ch=8 c=7 v=81
84376 Par ch=8 c=7 v=91
84385 Par ch=8 c=7 v=94
84395 Par ch=8 c=7 v=87
84405 Par ch=8 c=7 v=76
84415 Par ch=8 c=7 v=68
84425 Par ch=8 c=7 v=63
84435 Par ch=8 c=7 v=61
84444 Par ch=8 c=7 v=63
84453 Par ch=8 c=7 v=73
84463 Par ch=8 c=7 v=90
84473 Par ch=8 c=7 v=98
84493 Par ch=8 c=7 v=89
84502 Par ch=8 c=7 v=78
84510 Par ch=8 c=7 v=26
84511 Par ch=8 c=7 v=71
84521 Par ch=8 c=7 v=67
84541 Par ch=8 c=7 v=74
84550 Par ch=8 c=7 v=88
84560 Par ch=8 c=7 v=97
84569 Par ch=8 c=7 v=98
84579 Par ch=8 c=7 v=93
84589 Par ch=8 c=7 v=84
84592 Par ch=8 c=10 v=3
84595 Par ch=8 c=7 v=29
84599 Par ch=8 c=7 v=75
84608 Par ch=8 c=7 v=70
84618 Par ch=8 c=7 v=68
84628 Par ch=8 c=7 v=72
84638 Par ch=8 c=7 v=84
84647 Par ch=8 c=7 v=99
84656 Par ch=8 c=7 v=107
84676 Par ch=8 c=7 v=102
84681 Par ch=8 c=7 v=31
84685 Par ch=8 c=7 v=91
84696 Par ch=8 c=7 v=80
84705 Par ch=8 c=7 v=72
84714 Par ch=8 c=7 v=67
84734 Par ch=8 c=7 v=72
84743 Par ch=8 c=7 v=93
84753 Par ch=8 c=7 v=112
84763 Par ch=8 c=7 v=118
84765 Par ch=8 c=7 v=34
84772 Par ch=8 c=7 v=115
84782 Par ch=8 c=7 v=104
84792 Par ch=8 c=7 v=87
84802 Par ch=8 c=7 v=73
84812 Par ch=8 c=7 v=65
84821 Par ch=8 c=7 v=60
84831 Par ch=8 c=7 v=72
84834 Par ch=8 c=7 v=51
84840 Par ch=8 c=7 v=76
84850 Par ch=8 c=7 v=89
84859 Par ch=8 c=7 v=110
84869 Par ch=8 c=7 v=121
84879 Par ch=8 c=7 v=123
84888 Par ch=8 c=7 v=117
84898 Par ch=8 c=7 v=105
84902 Par ch=8 c=7 v=53
84908 Par ch=8 c=7 v=91
84918 Par ch=8 c=7 v=82
84927 Par ch=8 c=7 v=77
84936 Par ch=8 c=7 v=75
84946 Par ch=8 c=7 v=78
84956 Par ch=8 c=7 v=91
84965 Par ch=8 c=10 v=6
84966 Par ch=8 c=7 v=108
84976 Par ch=8 c=7 v=116
84985 Par ch=8 c=7 v=115
84987 Par ch=8 c=7 v=56
84995 Par ch=8 c=7 v=104
85005 Par ch=8 c=7 v=90
85015 Par ch=8 c=7 v=80
85024 Par ch=8 c=7 v=75
85034 Par ch=8 c=7 v=73
85043 Par ch=8 c=7 v=77
85053 Par ch=8 c=7 v=90
85055 Par ch=8 c=7 v=58
85062 Par ch=8 c=7 v=110
85072 Par ch=8 c=7 v=119
85082 Par ch=8 c=7 v=116
85091 Par ch=8 c=7 v=103
85101 Par ch=8 c=7 v=89
85111 Par ch=8 c=7 v=78
85121 Par ch=8 c=7 v=73
85123 Par ch=8 c=7 v=61
85130 Par ch=8 c=7 v=71
85137 Par ch=8 c=10 v=9
85139 Par ch=8 c=7 v=74
85149 Par ch=8 c=7 v=86
85159 Par ch=8 c=7 v=108
85169 Par ch=8 c=7 v=119
85175 Par ch=8 c=7 v=64
85188 Par ch=8 c=10 v=11
85188 Par ch=8 c=7 v=106
85198 Par ch=8 c=7 v=90
85208 Par ch=8 c=7 v=79
85209 Par ch=8 c=7 v=66
85218 Par ch=8 c=7 v=73
85227 Par ch=8 c=7 v=72
85237 Par ch=8 c=7 v=77
85246 Par ch=8 c=7 v=95
85256 Par ch=8 c=10 v=14
85256 Par ch=8 c=7 v=117
85261 Par ch=8 c=7 v=70
85265 Par ch=8 c=7 v=124
85275 Par ch=8 c=7 v=119
85285 Par ch=8 c=7 v=104
85294 Par ch=8 c=7 v=89
85305 Par ch=8 c=7 v=79
85310 Par ch=8 c=7 v=73
85314 Par ch=8 c=7 v=73
85323 Par ch=8 c=7 v=75
85333 Par ch=8 c=7 v=89
85340 Off ch=8 n=95 v=85
85341 Par ch=8 c=10 v=17
85343 Par ch=8 c=7 v=117
85345 Par ch=8 c=7 v=75
85353 Par ch=8 c=7 v=127
85362 Par ch=8 c=7 v=126
85372 Par ch=8 c=7 v=115
85382 Par ch=8 c=7 v=98
85391 Par ch=8 c=7 v=84
85397 Par ch=8 c=7 v=78
85401 Par ch=8 c=7 v=76
85411 Par ch=8 c=7 v=73
85420 Par ch=8 c=7 v=80
85427 Par ch=8 c=10 v=19
85429 Par ch=8 c=7 v=102
85440 Par ch=8 c=7 v=122
85449 Par ch=8 c=7 v=127
85459 Par ch=8 c=7 v=122
85464 Par ch=8 c=7 v=81
85468 Par ch=8 c=7 v=109
85478 Par ch=8 c=7 v=93
85487 Par ch=8 c=7 v=81
85494 Par ch=8 c=10 v=22
85497 Par ch=8 c=7 v=76
85516 Par ch=8 c=7 v=88
85526 Par ch=8 c=7 v=110
85533 Par ch=8 c=7 v=84
85536 Par ch=8 c=7 v=122
85545 Par ch=8 c=10 v=25
85556 Par ch=8 c=7 v=113
85563 Par ch=8 c=10 v=27
85565 Par ch=8 c=7 v=98
85575 Par ch=8 c=7 v=85
85583 Par ch=8 c=7 v=87
85585 Par ch=8 c=7 v=77
85594 Par ch=8 c=7 v=74
85601 Par ch=8 c=7 v=101
85604 Par ch=8 c=7 v=90
85613 Par ch=8 c=7 v=102
85623 Par ch=8 c=7 v=115
85631 Par ch=8 c=10 v=30
85633 Par ch=8 c=7 v=120
85642 Par ch=8 c=7 v=114
85652 Par ch=8 c=7 v=101
85652 Par ch=8 c=7 v=105
85662 Par ch=8 c=7 v=92
85672 Par ch=8 c=7 v=86
85681 Par ch=8 c=7 v=83
85690 Par ch=8 c=7 v=85
85700 Par ch=8 c=7 v=96
85710 Par ch=8 c=7 v=114
85716 Par ch=8 c=10 v=32
85719 Par ch=8 c=7 v=123
85721 Par ch=8 c=7 v=107
85730 Par ch=8 c=7 v=121
85739 Par ch=8 c=7 v=108
85749 Par ch=8 c=7 v=96
85759 Par ch=8 c=7 v=88
85769 Par ch=8 c=7 v=84
85784 Par ch=8 c=10 v=35
85788 Par ch=8 c=7 v=94
85797 Par ch=8 c=7 v=113
85801 Par ch=8 c=10 v=36
85807 Par ch=8 c=7 v=125
85822 Par ch=8 c=7 v=110
85826 Par ch=8 c=7 v=116
85835 Par ch=8 c=10 v=39
85836 Par ch=8 c=7 v=101
85846 Par ch=8 c=7 v=90
85855 Par ch=8 c=7 v=84
85856 Par ch=8 c=7 v=113
85865 Par ch=8 c=7 v=82
85874 Par ch=8 c=7 v=86
85884 Par ch=8 c=7 v=91
85887 Par ch=8 c=10 v=42
85890 Par ch=8 c=7 v=103
85893 Par ch=8 c=7 v=113
85903 Par ch=8 c=7 v=122
85907 Par ch=8 c=7 v=104
85913 Par ch=8 c=7 v=118
85923 Par ch=8 c=7 v=106
85924 Par ch=8 c=7 v=106
85933 Par ch=8 c=7 v=89
85937 Par ch=8 c=10 v=45
85941 Par ch=8 c=7 v=78
85942 Par ch=8 c=7 v=108
85952 Par ch=8 c=7 v=72
85959 Par ch=8 c=7 v=109
85961 Par ch=8 c=7 v=69
85971 Par ch=8 c=7 v=74
85976 Par ch=8 c=7 v=111
85980 Par ch=8 c=7 v=92
85989 Par ch=8 c=10 v=49
85991 Par ch=8 c=7 v=114
85993 Par ch=8 c=7 v=112
86000 Par ch=8 c=7 v=122
86010 Par ch=8 c=7 v=117
86019 Par ch=8 c=7 v=103
86023 Par ch=8 c=10 v=51
86026 Par ch=8 c=7 v=115
86029 Par ch=8 c=7 v=86
86038 Par ch=8 c=7 v=75
86048 Par ch=8 c=7 v=69
86068 Par ch=8 c=7 v=76
86074 Par ch=8 c=10 v=55
86077 Par ch=8 c=7 v=99
86078 Par ch=8 c=7 v=118
86087 Par ch=8 c=7 v=118
86096 Par ch=8 c=7 v=124
86107 Par ch=8 c=7 v=118
86108 Par ch=8 c=10 v=57
86116 Par ch=8 c=7 v=102
86126 Par ch=8 c=7 v=83
86129 Par ch=8 c=7 v=121
86136 Par ch=8 c=7 v=72
86142 Par ch=8 c=10 v=60
86145 Par ch=8 c=7 v=86
86155 Par ch=8 c=7 v=70
86164 Par ch=8 c=7 v=74
86174 Par ch=8 c=7 v=88
86176 Par ch=8 c=10 v=62
86180 Par ch=8 c=7 v=127
86184 Par ch=8 c=7 v=110
86193 Par ch=8 c=7 v=120
86194 Par ch=8 c=10 v=64
86203 Par ch=8 c=7 v=106
86210 Par ch=8 c=10 v=65
86213 Par ch=8 c=7 v=91
86222 Par ch=8 c=7 v=77
86228 Par ch=8 c=10 v=67
86231 Par ch=8 c=7 v=123
86232 Par ch=8 c=7 v=68
86242 Par ch=8 c=7 v=64
86244 Par ch=8 c=10 v=69
86252 Par ch=8 c=7 v=62
86261 Par ch=8 c=10 v=70
86261 Par ch=8 c=7 v=67
86271 Par ch=8 c=7 v=77
86278 Par ch=8 c=10 v=72
86280 Par ch=8 c=7 v=87
86282 Par ch=8 c=7 v=126
86290 Par ch=8 c=7 v=89
86295 Par ch=8 c=10 v=73
86299 Par ch=8 c=7 v=68
86310 Par ch=8 c=7 v=59
86314 Par ch=8 c=10 v=75
86319 Par ch=8 c=7 v=52
86329 Par ch=8 c=10 v=76
86329 Par ch=8 c=7 v=49
86334 Par ch=8 c=7 v=115
86347 Par ch=8 c=10 v=78
86349 Par ch=8 c=7 v=52
86358 Par ch=8 c=7 v=63
86363 Par ch=8 c=10 v=79
86367 Par ch=8 c=7 v=82
86377 Par ch=8 c=7 v=95
86380 Par ch=8 c=10 v=81
86385 Par ch=8 c=7 v=118
86386 Par ch=8 c=7 v=99
86396 Par ch=8 c=7 v=95
86398 Par ch=8 c=10 v=83
86406 Par ch=8 c=7 v=82
86416 Par ch=8 c=10 v=84
86416 Par ch=8 c=7 v=65
86425 Par ch=8 c=7 v=54
86431 Par ch=8 c=10 v=86
86435 Par ch=8 c=7 v=49
86444 Par ch=8 c=7 v=46
86449 Par ch=8 c=10 v=87
86452 Par ch=8 c=7 v=102
86454 Par ch=8 c=7 v=48
86464 Par ch=8 c=7 v=56
86467 Par ch=8 c=10 v=89
86473 Par ch=8 c=7 v=70
86483 Par ch=8 c=10 v=90
86483 Par ch=8 c=7 v=81
86493 Par ch=8 c=7 v=87
86499 Par ch=8 c=10 v=92
86503 Par ch=8 c=7 v=85
86504 Par ch=8 c=7 v=108
86512 Par ch=8 c=7 v=77
86517 Par ch=8 c=10 v=94
86522 Par ch=8 c=7 v=66
86531 Par ch=8 c=7 v=58
86534 Par ch=8 c=10 v=96
86541 Par ch=8 c=7 v=55
86551 Par ch=8 c=10 v=97
86555 Par ch=8 c=7 v=108
86561 Par ch=8 c=7 v=62
86569 Par ch=8 c=10 v=99
86570 Par ch=8 c=7 v=79
86580 Par ch=8 c=7 v=115
86586 Par ch=8 c=10 v=101
86589 Par ch=8 c=7 v=123
86590 Par ch=8 c=7 v=120
86609 Par ch=8 c=7 v=123
86611 Par ch=8 c=10 v=102
86618 Par ch=8 c=7 v=119
86624 Par ch=8 c=7 v=109
86628 Par ch=8 c=7 v=62
86638 Par ch=8 c=7 v=52
86642 Par ch=8 c=7 v=111
86647 Par ch=8 c=7 v=47
86653 Par ch=8 c=10 v=105
86657 Par ch=8 c=7 v=45
86667 Par ch=8 c=7 v=48
86676 Par ch=8 c=7 v=60
86687 Par ch=8 c=7 v=94
86696 Par ch=8 c=7 v=116
86705 Par ch=8 c=10 v=108
86706 Par ch=8 c=7 v=122
86715 Par ch=8 c=7 v=121
86725 Par ch=8 c=7 v=113
86735 Par ch=8 c=7 v=99
86744 Par ch=8 c=7 v=85
86754 Par ch=8 c=7 v=77
86756 Par ch=8 c=10 v=111
86764 Par ch=8 c=7 v=73
86773 Par ch=8 c=7 v=75
86783 Par ch=8 c=7 v=86
86793 Par ch=8 c=7 v=106
86802 Par ch=8 c=7 v=120
86807 Par ch=8 c=10 v=114
86811 Par ch=8 c=7 v=125
86821 Par ch=8 c=7 v=121
86831 Par ch=8 c=7 v=99
86841 Par ch=8 c=10 v=117
86841 Par ch=8 c=7 v=80
86850 Par ch=8 c=7 v=67
86858 Par ch=8 c=10 v=119
86860 Par ch=8 c=7 v=61
86870 Par ch=8 c=7 v=58
86875 Par ch=8 c=10 v=120
86880 Par ch=8 c=7 v=61
86890 Par ch=8 c=7 v=74
86891 Par ch=8 c=10 v=122
86899 Par ch=8 c=7 v=99
86908 Par ch=8 c=10 v=124
86908 Par ch=8 c=7 v=117
86918 Par ch=8 c=7 v=122
86927 Par ch=8 c=10 v=125
86928 Par ch=8 c=7 v=118
86938 Par ch=8 c=7 v=105
86947 Par ch=8 c=7 v=85
86957 Par ch=8 c=7 v=71
86967 Par ch=8 c=7 v=64
86976 Par ch=8 c=7 v=62
86985 Par ch=8 c=7 v=67
86996 Par ch=8 c=7 v=80
87005 Par ch=8 c=7 v=96
87015 Par ch=8 c=7 v=104
87024 Par ch=8 c=7 v=103
87035 Par ch=8 c=7 v=92
87044 Par ch=8 c=7 v=77
87053 Par ch=8 c=7 v=67
87064 Par ch=8 c=7 v=62
87083 Par ch=8 c=7 v=66
87093 Par ch=8 c=7 v=83
87101 Par ch=8 c=7 v=106
87111 Par ch=8 c=7 v=115
87121 Par ch=8 c=7 v=114
87131 Par ch=8 c=7 v=104
87141 Par ch=8 c=7 v=77
87150 Par ch=8 c=7 v=64
87160 Par ch=8 c=7 v=58
87170 Par ch=8 c=7 v=56
87179 Par ch=8 c=7 v=62
87189 Par ch=8 c=7 v=80
87198 Par ch=8 c=7 v=99
87208 Par ch=8 c=7 v=105
87218 Par ch=8 c=7 v=103
87227 Par ch=8 c=7 v=92
87237 Par ch=8 c=7 v=78
87247 Par ch=8 c=7 v=67
87257 Par ch=8 c=7 v=61
87266 Par ch=8 c=7 v=59
87276 Par ch=8 c=7 v=65
87286 Par ch=8 c=7 v=83
87295 Par ch=8 c=7 v=103
87305 Par ch=8 c=7 v=111
87324 Par ch=8 c=7 v=101
87334 Par ch=8 c=7 v=87
87343 Par ch=8 c=7 v=74
87353 Par ch=8 c=7 v=67
87362 Par ch=8 c=7 v=63
87373 Par ch=8 c=7 v=66
87382 Par ch=8 c=7 v=79
87391 Par ch=8 c=7 v=100
87401 Par ch=8 c=7 v=111
87421 Par ch=8 c=7 v=102
87430 Par ch=8 c=7 v=91
87440 Par ch=8 c=7 v=80
87450 Par ch=8 c=7 v=73
87459 Par ch=8 c=7 v=70
87469 Par ch=8 c=7 v=55
87479 Par ch=8 c=7 v=74
87488 Par ch=8 c=7 v=103
87498 Par ch=8 c=7 v=109
87518 Par ch=8 c=7 v=102
87527 Par ch=8 c=7 v=86
87537 Par ch=8 c=7 v=78
87547 Par ch=8 c=7 v=71
87556 Par ch=8 c=7 v=68
87575 Par ch=8 c=7 v=76
87585 Par ch=8 c=7 v=95
87595 Par ch=8 c=7 v=101
87604 Par ch=8 c=7 v=96
87614 Par ch=8 c=7 v=84
87624 Par ch=8 c=7 v=70
87634 Par ch=8 c=7 v=57
87644 Par ch=8 c=7 v=48
87653 Par ch=8 c=7 v=44
87662 Par ch=8 c=7 v=46
87672 Par ch=8 c=7 v=59
87682 Par ch=8 c=7 v=105
87692 Par ch=8 c=7 v=107
87721 Par ch=8 c=7 v=92
87730 Par ch=8 c=7 v=83
87740 Par ch=8 c=7 v=75
87749 Par ch=8 c=7 v=68
87759 Par ch=8 c=7 v=65
87778 Par ch=8 c=7 v=82
87788 Par ch=8 c=7 v=97
87827 Par ch=8 c=7 v=90
87837 Par ch=8 c=7 v=83
87846 Par ch=8 c=7 v=77
87856 Par ch=8 c=7 v=75
87875 Par ch=8 c=7 v=92
87885 Par ch=8 c=7 v=97
87933 Par ch=8 c=7 v=79
87942 Par ch=8 c=7 v=67
87952 Par ch=8 c=7 v=55
87962 Par ch=8 c=7 v=46
87971 Par ch=8 c=7 v=43
87981 Par ch=8 c=7 v=53
87991 Par ch=8 c=7 v=87
88040 Par ch=8 c=7 v=85
88049 Par ch=8 c=7 v=75
88059 Par ch=8 c=7 v=62
88069 Par ch=8 c=7 v=49
88078 Par ch=8 c=7 v=40
88088 Par ch=8 c=7 v=37
88098 Par ch=8 c=7 v=45
88107 Par ch=8 c=7 v=87
88145 Par ch=8 c=7 v=74
88155 Par ch=8 c=7 v=64
88165 Par ch=8 c=7 v=50
88175 Par ch=8 c=7 v=37
88185 Par ch=8 c=7 v=29
88194 Par ch=8 c=7 v=27
88204 Par ch=8 c=7 v=39
88213 Par ch=8 c=7 v=77
88253 Par ch=8 c=7 v=69
88262 Par ch=8 c=7 v=56
88271 Par ch=8 c=7 v=42
88281 Par ch=8 c=7 v=31
88291 Par ch=8 c=7 v=25
88309 Par ch=8 c=7 v=40
88320 Par ch=8 c=7 v=77
88348 Par ch=8 c=7 v=69
88358 Par ch=8 c=7 v=56
88368 Par ch=8 c=7 v=39
88378 Par ch=8 c=7 v=27
88388 Par ch=8 c=7 v=20
88397 Par ch=8 c=7 v=18
88406 Par ch=8 c=7 v=26
88416 Par ch=8 c=7 v=76
88426 Par ch=8 c=7 v=77
88455 Par ch=8 c=7 v=69
88465 Par ch=8 c=7 v=55
88475 Par ch=8 c=7 v=40
88484 Par ch=8 c=7 v=28
88493 Par ch=8 c=7 v=21
88503 Par ch=8 c=7 v=20
88513 Par ch=8 c=7 v=20
88522 Par ch=8 c=7 v=64
88532 Par ch=8 c=7 v=67
88542 Par ch=8 c=7 v=66
88552 Par ch=8 c=7 v=56
88562 Par ch=8 c=7 v=43
88571 Par ch=8 c=7 v=28
88581 Par ch=8 c=7 v=16
88591 Par ch=8 c=7 v=9
88600 Par ch=8 c=7 v=6
88610 Par ch=8 c=7 v=11
88619 Par ch=8 c=7 v=39
88629 Par ch=8 c=7 v=67
88649 Par ch=8 c=7 v=59
88658 Par ch=8 c=7 v=48
88668 Par ch=8 c=7 v=36
88677 Par ch=8 c=7 v=23
88686 Par ch=8 c=7 v=13
88696 Par ch=8 c=7 v=8
88716 Par ch=8 c=7 v=18
88725 Par ch=8 c=7 v=33
88735 Par ch=8 c=7 v=40
88745 Par ch=8 c=7 v=39
88755 Par ch=8 c=7 v=31
88764 Par ch=8 c=7 v=19
88775 Par ch=8 c=7 v=8
88783 Par ch=8 c=7 v=2
88793 Par ch=8 c=7 v=8
88812 Par ch=8 c=7 v=47
88822 Par ch=8 c=7 v=59
88832 Par ch=8 c=7 v=67
88842 Par ch=8 c=7 v=68
88851 Par ch=8 c=7 v=63
88861 Par ch=8 c=7 v=53
88871 Par ch=8 c=7 v=44
88880 Par ch=8 c=7 v=38
88890 Par ch=8 c=7 v=35
88909 Par ch=8 c=7 v=38
88919 Par ch=8 c=7 v=45
88929 Par ch=8 c=7 v=50
88938 Par ch=8 c=7 v=52
88947 Par ch=8 c=7 v=47
88958 Par ch=8 c=7 v=39
88968 Par ch=8 c=7 v=33
88977 Par ch=8 c=7 v=28
88987 Par ch=8 c=7 v=26
89006 Par ch=8 c=7 v=32
89016 Par ch=8 c=7 v=40
89025 Par ch=8 c=7 v=45
89044 Par ch=8 c=7 v=42
89054 Par ch=8 c=7 v=34
89064 Par ch=8 c=7 v=27
89074 Par ch=8 c=7 v=23
89083 Par ch=8 c=7 v=21
89102 Par ch=8 c=7 v=14
89112 Par ch=8 c=7 v=18
89122 Par ch=8 c=7 v=20
89142 Par ch=8 c=7 v=15
89151 Par ch=8 c=7 v=11
89161 Par ch=8 c=7 v=8
89170 Par ch=8 c=7 v=7
89190 Par ch=8 c=7 v=13
89199 Par ch=8 c=7 v=21
89209 Par ch=8 c=7 v=31
89219 Par ch=8 c=7 v=37
89238 Par ch=8 c=7 v=32
89247 Par ch=8 c=7 v=22
89257 Par ch=8 c=7 v=13
89267 Par ch=8 c=7 v=8
89277 Par ch=8 c=7 v=6
89296 Par ch=8 c=7 v=9
89305 Par ch=8 c=7 v=15
89315 Par ch=8 c=7 v=20
89325 Par ch=8 c=7 v=22
89334 Par ch=8 c=7 v=15
89345 Par ch=8 c=7 v=9
89354 Par ch=8 c=7 v=4
89364 Par ch=8 c=7 v=1
89393 Par ch=8 c=7 v=0
89402 Par ch=8 c=7 v=1
89412 Par ch=8 c=7 v=14
89422 Par ch=8 c=7 v=21
89431 Par ch=8 c=7 v=23
89441 Par ch=8 c=7 v=16
89450 Par ch=8 c=7 v=3
89460 Par ch=8 c=7 v=0
89470 Par ch=8 c=7 v=0
89479 Par ch=8 c=7 v=0
89499 Par ch=8 c=7 v=0
89509 Par ch=8 c=7 v=0
89518 Par ch=8 c=7 v=5
89528 Par ch=8 c=7 v=11
89548 Par ch=8 c=7 v=2
89557 Par ch=8 c=7 v=0
89567 Par ch=8 c=7 v=0
89576 Par ch=8 c=7 v=0
89596 Par ch=8 c=7 v=0
89605 Par ch=8 c=7 v=2
89615 Par ch=8 c=7 v=9
89624 Par ch=8 c=7 v=12
89634 Par ch=8 c=7 v=9
89644 Par ch=8 c=7 v=0
89653 Par ch=8 c=7 v=0
89663 Par ch=8 c=7 v=0
89673 Par ch=8 c=7 v=0
89692 Off ch=8 n=95 v=114
89698 Off ch=8 n=88 v=108
91200 Par ch=8 c=10 v=64
104160 Meta TrkEnd
TrkEnd
MTrk
0 Meta TrkName "Starship"
0 Meta 0x20 08
0 Meta InstrName "Starship"
0 KeySig 0 major
640 Par ch=9 c=0 v=8
645 Par ch=9 c=32 v=0
650 PrCh ch=9 p=125
655 Par ch=9 c=7 v=100
660 Par ch=9 c=10 v=64
665 Par ch=9 c=91 v=40
670 Par ch=9 c=93 v=0
675 Par ch=9 c=101 v=0
675 Par ch=9 c=100 v=0
675 Par ch=9 c=6 v=2
680 Par ch=9 c=99 v=1
680 Par ch=9 c=98 v=8
680 Par ch=9 c=6 v=64
685 Par ch=9 c=99 v=1
685 Par ch=9 c=98 v=9
685 Par ch=9 c=6 v=64
690 Par ch=9 c=99 v=1
690 Par ch=9 c=98 v=10
690 Par ch=9 c=6 v=64
695 Par ch=9 c=99 v=1
695 Par ch=9 c=98 v=32
695 Par ch=9 c=6 v=64
700 Par ch=9 c=99 v=1
700 Par ch=9 c=98 v=33
700 Par ch=9 c=6 v=64
705 Par ch=9 c=99 v=1
705 Par ch=9 c=98 v=99
705 Par ch=9 c=6 v=64
710 Par ch=9 c=99 v=1
710 Par ch=9 c=98 v=100
710 Par ch=9 c=6 v=64
715 Par ch=9 c=99 v=1
715 Par ch=9 c=98 v=102
715 Par ch=9 c=6 v=80
4549 On ch=9 n=16 v=104
6001 Off ch=9 n=16 v=104
96828 Par ch=9 c=0 v=3
96829 Par ch=9 c=32 v=0
96830 PrCh ch=9 p=127
98155 On ch=9 n=60 v=127
104128 Off ch=9 n=60 v=127
104160 Meta TrkEnd
TrkEnd
MTrk
0 Meta TrkName "White"
0 Meta 0x20 09
0 Meta InstrName "White"
0 KeySig 0 major
720 PrCh ch=10 p=16
725 Par ch=10 c=7 v=100
730 Par ch=10 c=10 v=64
735 Par ch=10 c=91 v=40
740 Par ch=10 c=93 v=0
745 Par ch=10 c=101 v=0
745 Par ch=10 c=100 v=0
745 Par ch=10 c=6 v=2
750 Par ch=10 c=99 v=1
750 Par ch=10 c=98 v=8
750 Par ch=10 c=6 v=64
755 Par ch=10 c=99 v=1
755 Par ch=10 c=98 v=9
755 Par ch=10 c=6 v=64
760 Par ch=10 c=99 v=1
760 Par ch=10 c=98 v=10
760 Par ch=10 c=6 v=64
765 Par ch=10 c=99 v=1
765 Par ch=10 c=98 v=32
765 Par ch=10 c=6 v=64
770 Par ch=10 c=99 v=1
770 Par ch=10 c=98 v=33
770 Par ch=10 c=6 v=64
775 Par ch=10 c=99 v=1
775 Par ch=10 c=98 v=99
775 Par ch=10 c=6 v=64
780 Par ch=10 c=99 v=1
780 Par ch=10 c=98 v=100
780 Par ch=10 c=6 v=64
785 Par ch=10 c=99 v=1
785 Par ch=10 c=98 v=102
785 Par ch=10 c=6 v=64
790 Par ch=10 c=99 v=24
790 Par ch=10 c=98 v=38
790 Par ch=10 c=6 v=65
795 Par ch=10 c=99 v=26
795 Par ch=10 c=98 v=38
795 Par ch=10 c=6 v=108
800 Par ch=10 c=99 v=29
800 Par ch=10 c=98 v=38
800 Par ch=10 c=6 v=112
805 Par ch=10 c=99 v=24
805 Par ch=10 c=98 v=40
805 Par ch=10 c=6 v=60
810 Par ch=10 c=99 v=24
810 Par ch=10 c=98 v=51
810 Par ch=10 c=6 v=63
815 Par ch=10 c=99 v=26
815 Par ch=10 c=98 v=51
815 Par ch=10 c=6 v=127
820 Par ch=10 c=99 v=24
820 Par ch=10 c=98 v=55
820 Par ch=10 c=6 v=69
5999 On ch=10 n=36 v=120
6001 On ch=10 n=49 v=116
6057 Off ch=10 n=36 v=120
6059 Off ch=10 n=49 v=116
7752 On ch=10 n=40 v=68
7753 On ch=10 n=82 v=61
7754 On ch=10 n=43 v=98
7854 Off ch=10 n=43 v=98
7856 Off ch=10 n=40 v=68
7871 Off ch=10 n=82 v=61
8186 On ch=10 n=40 v=70
8187 On ch=10 n=43 v=100
8187 On ch=10 n=82 v=64
8290 Off ch=10 n=43 v=100
8297 Off ch=10 n=40 v=70
8305 Off ch=10 n=82 v=64
9601 On ch=10 n=49 v=127
9603 On ch=10 n=36 v=127
9778 Off ch=10 n=49 v=127
9780 Off ch=10 n=36 v=127
11295 On ch=10 n=40 v=68
11296 On ch=10 n=82 v=61
11297 On ch=10 n=43 v=98
11397 Off ch=10 n=43 v=98
11399 Off ch=10 n=40 v=68
11414 Off ch=10 n=82 v=61
11729 On ch=10 n=40 v=70
11730 On ch=10 n=43 v=100
11730 On ch=10 n=82 v=64
11833 Off ch=10 n=43 v=100
11840 Off ch=10 n=40 v=70
11848 Off ch=10 n=82 v=64
13200 On ch=10 n=36 v=120
13201 On ch=10 n=49 v=116
13258 Off ch=10 n=36 v=120
13259 Off ch=10 n=49 v=116
15486 On ch=10 n=40 v=68
15487 On ch=10 n=82 v=61
15488 On ch=10 n=43 v=98
15588 Off ch=10 n=43 v=98
15590 Off ch=10 n=40 v=68
15605 Off ch=10 n=82 v=61
15920 On ch=10 n=40 v=70
15921 On ch=10 n=43 v=100
15921 On ch=10 n=82 v=64
16024 Off ch=10 n=43 v=100
16031 Off ch=10 n=40 v=70
16039 Off ch=10 n=82 v=64
16801 On ch=10 n=47 v=127
16803 On ch=10 n=36 v=127
16978 Off ch=10 n=47 v=127
16980 Off ch=10 n=36 v=127
17041 On ch=10 n=36 v=120
17048 On ch=10 n=47 v=116
17099 Off ch=10 n=36 v=120
17106 Off ch=10 n=47 v=116
17280 On ch=10 n=36 v=120
17280 On ch=10 n=49 v=116
17338 Off ch=10 n=36 v=120
17338 Off ch=10 n=49 v=116
20401 On ch=10 n=49 v=127
20403 On ch=10 n=36 v=127
20578 Off ch=10 n=49 v=127
20580 Off ch=10 n=36 v=127
24001 On ch=10 n=49 v=127
24003 On ch=10 n=36 v=127
24178 Off ch=10 n=49 v=127
24180 Off ch=10 n=36 v=127
28321 On ch=10 n=47 v=127
28323 On ch=10 n=36 v=127
28498 Off ch=10 n=47 v=127
28500 Off ch=10 n=36 v=127
28561 On ch=10 n=36 v=120
28568 On ch=10 n=47 v=116
28619 Off ch=10 n=36 v=120
28626 Off ch=10 n=47 v=116
28800 On ch=10 n=41 v=108
28800 On ch=10 n=49 v=107
28800 On ch=10 n=36 v=94
28918 Off ch=10 n=41 v=108
28918 Off ch=10 n=49 v=107
28918 Off ch=10 n=36 v=94
29040 On ch=10 n=38 v=95
29158 Off ch=10 n=38 v=95
29160 On ch=10 n=41 v=104
29160 On ch=10 n=49 v=107
29160 On ch=10 n=36 v=108
29278 Off ch=10 n=41 v=104
29278 Off ch=10 n=49 v=107
29278 Off ch=10 n=36 v=108
29400 On ch=10 n=38 v=85
29518 Off ch=10 n=38 v=85
29520 On ch=10 n=41 v=102
29520 On ch=10 n=49 v=89
29520 On ch=10 n=36 v=104
29638 Off ch=10 n=41 v=102
29638 Off ch=10 n=49 v=89
29638 Off ch=10 n=36 v=104
29760 On ch=10 n=38 v=104
29878 Off ch=10 n=38 v=104
29880 On ch=10 n=41 v=102
29880 On ch=10 n=49 v=107
29880 On ch=10 n=36 v=92
29998 Off ch=10 n=41 v=102
29998 Off ch=10 n=49 v=107
29998 Off ch=10 n=36 v=92
30120 On ch=10 n=38 v=104
30238 Off ch=10 n=38 v=104
30240 On ch=10 n=41 v=94
30240 On ch=10 n=49 v=84
30240 On ch=10 n=36 v=97
30358 Off ch=10 n=41 v=94
30358 Off ch=10 n=49 v=84
30358 Off ch=10 n=36 v=97
30480 On ch=10 n=38 v=97
30598 Off ch=10 n=38 v=97
30720 On ch=10 n=41 v=95
30720 On ch=10 n=49 v=101
30720 On ch=10 n=36 v=102
30838 Off ch=10 n=41 v=95
30838 Off ch=10 n=49 v=101
30838 Off ch=10 n=36 v=102
30960 On ch=10 n=38 v=112
31078 Off ch=10 n=38 v=112
31200 On ch=10 n=49 v=101
31200 On ch=10 n=36 v=110
31200 On ch=10 n=41 v=114
31318 Off ch=10 n=49 v=101
31333 Off ch=10 n=36 v=110
31341 Off ch=10 n=41 v=114
31444 On ch=10 n=51 v=104
31562 Off ch=10 n=51 v=104
31680 On ch=10 n=51 v=73
31680 On ch=10 n=38 v=112
31798 Off ch=10 n=51 v=73
31798 Off ch=10 n=38 v=112
31928 On ch=10 n=51 v=67
32041 On ch=10 n=36 v=102
32041 On ch=10 n=41 v=97
32046 Off ch=10 n=51 v=67
32167 Off ch=10 n=36 v=102
32170 Off ch=10 n=41 v=97
32279 On ch=10 n=41 v=80
32280 On ch=10 n=51 v=87
32281 On ch=10 n=36 v=102
32333 Off ch=10 n=41 v=80
32354 Off ch=10 n=36 v=102
32398 Off ch=10 n=51 v=87
32399 On ch=10 n=41 v=86
32401 On ch=10 n=36 v=100
32486 Off ch=10 n=41 v=86
32493 Off ch=10 n=36 v=100
32640 On ch=10 n=51 v=73
32640 On ch=10 n=38 v=106
32758 Off ch=10 n=51 v=73
32758 Off ch=10 n=38 v=106
32880 On ch=10 n=51 v=93
32881 On ch=10 n=41 v=92
32882 On ch=10 n=36 v=102
32954 Off ch=10 n=41 v=92
32972 Off ch=10 n=36 v=102
32998 Off ch=10 n=51 v=93
33000 On ch=10 n=51 v=74
33118 Off ch=10 n=51 v=74
33120 On ch=10 n=51 v=93
33120 On ch=10 n=41 v=105
33121 On ch=10 n=36 v=94
33197 Off ch=10 n=36 v=94
33211 Off ch=10 n=41 v=105
33238 Off ch=10 n=51 v=93
33241 On ch=10 n=36 v=108
33241 On ch=10 n=41 v=110
33316 Off ch=10 n=41 v=110
33328 Off ch=10 n=36 v=108
33360 On ch=10 n=51 v=81
33361 On ch=10 n=38 v=106
33478 Off ch=10 n=51 v=81
33479 Off ch=10 n=38 v=106
33480 On ch=10 n=51 v=67
33598 Off ch=10 n=51 v=67
33600 On ch=10 n=49 v=101
33600 On ch=10 n=36 v=110
33600 On ch=10 n=41 v=114
33718 Off ch=10 n=49 v=101
33733 Off ch=10 n=36 v=110
33741 Off ch=10 n=41 v=114
33844 On ch=10 n=51 v=104
33962 Off ch=10 n=51 v=104
34080 On ch=10 n=51 v=73
34080 On ch=10 n=38 v=112
34198 Off ch=10 n=51 v=73
34198 Off ch=10 n=38 v=112
34328 On ch=10 n=51 v=67
34441 On ch=10 n=36 v=102
34441 On ch=10 n=41 v=97
34446 Off ch=10 n=51 v=67
34567 Off ch=10 n=36 v=102
34570 Off ch=10 n=41 v=97
34679 On ch=10 n=41 v=80
34680 On ch=10 n=51 v=87
34681 On ch=10 n=36 v=102
34733 Off ch=10 n=41 v=80
34754 Off ch=10 n=36 v=102
34798 Off ch=10 n=51 v=87
34799 On ch=10 n=41 v=86
34801 On ch=10 n=36 v=100
34886 Off ch=10 n=41 v=86
34893 Off ch=10 n=36 v=100
35040 On ch=10 n=51 v=73
35040 On ch=10 n=38 v=106
35158 Off ch=10 n=51 v=73
35158 Off ch=10 n=38 v=106
35280 On ch=10 n=51 v=93
35281 On ch=10 n=41 v=92
35282 On ch=10 n=36 v=102
35354 Off ch=10 n=41 v=92
35372 Off ch=10 n=36 v=102
35398 Off ch=10 n=51 v=93
35400 On ch=10 n=51 v=74
35518 Off ch=10 n=51 v=74
35520 On ch=10 n=51 v=93
35520 On ch=10 n=41 v=105
35521 On ch=10 n=36 v=94
35597 Off ch=10 n=36 v=94
35611 Off ch=10 n=41 v=105
35638 Off ch=10 n=51 v=93
35760 On ch=10 n=51 v=81
35761 On ch=10 n=38 v=106
35878 Off ch=10 n=51 v=81
35879 Off ch=10 n=38 v=106
35880 On ch=10 n=51 v=67
35998 Off ch=10 n=51 v=67
36000 On ch=10 n=49 v=101
36000 On ch=10 n=36 v=110
36000 On ch=10 n=41 v=114
36118 Off ch=10 n=49 v=101
36133 Off ch=10 n=36 v=110
36141 Off ch=10 n=41 v=114
36240 On ch=10 n=51 v=85
36358 Off ch=10 n=51 v=85
36480 On ch=10 n=51 v=73
36480 On ch=10 n=38 v=112
36598 Off ch=10 n=51 v=73
36598 Off ch=10 n=38 v=112
36600 On ch=10 n=51 v=70
36718 Off ch=10 n=51 v=70
36720 On ch=10 n=51 v=104
36838 Off ch=10 n=51 v=104
36960 On ch=10 n=51 v=67
36960 On ch=10 n=36 v=102
36960 On ch=10 n=41 v=97
37078 Off ch=10 n=51 v=67
37086 Off ch=10 n=36 v=102
37089 Off ch=10 n=41 v=97
37200 On ch=10 n=51 v=87
37318 Off ch=10 n=51 v=87
37320 On ch=10 n=51 v=70
37438 Off ch=10 n=51 v=70
37440 On ch=10 n=51 v=73
37440 On ch=10 n=38 v=106
37558 Off ch=10 n=51 v=73
37558 Off ch=10 n=38 v=106
37680 On ch=10 n=51 v=93
37798 Off ch=10 n=51 v=93
37920 On ch=10 n=51 v=93
37922 On ch=10 n=41 v=92
37922 On ch=10 n=36 v=102
37995 Off ch=10 n=41 v=92
38012 Off ch=10 n=36 v=102
38038 Off ch=10 n=51 v=93
38160 On ch=10 n=51 v=81
38160 On ch=10 n=38 v=106
38278 Off ch=10 n=51 v=81
38278 Off ch=10 n=38 v=106
38279 On ch=10 n=41 v=110
38280 On ch=10 n=51 v=67
38282 On ch=10 n=36 v=108
38354 Off ch=10 n=41 v=110
38369 Off ch=10 n=36 v=108
38398 Off ch=10 n=51 v=67
38400 On ch=10 n=49 v=101
38400 On ch=10 n=36 v=110
38400 On ch=10 n=41 v=114
38518 Off ch=10 n=49 v=101
38533 Off ch=10 n=36 v=110
38541 Off ch=10 n=41 v=114
38640 On ch=10 n=51 v=85
38758 Off ch=10 n=51 v=85
38880 On ch=10 n=51 v=73
38880 On ch=10 n=38 v=112
38998 Off ch=10 n=51 v=73
38998 Off ch=10 n=38 v=112
39120 On ch=10 n=51 v=104
39238 Off ch=10 n=51 v=104
39240 On ch=10 n=51 v=97
39358 Off ch=10 n=51 v=97
39360 On ch=10 n=51 v=67
39360 On ch=10 n=41 v=97
39360 On ch=10 n=36 v=102
39478 Off ch=10 n=51 v=67
39486 Off ch=10 n=36 v=102
39489 Off ch=10 n=41 v=97
39600 On ch=10 n=51 v=87
39718 Off ch=10 n=51 v=87
39840 On ch=10 n=51 v=73
39840 On ch=10 n=38 v=106
39958 Off ch=10 n=51 v=73
39958 Off ch=10 n=38 v=106
40080 On ch=10 n=51 v=93
40198 Off ch=10 n=51 v=93
40201 On ch=10 n=51 v=70
40319 Off ch=10 n=51 v=70
40320 On ch=10 n=51 v=93
40320 On ch=10 n=41 v=105
40321 On ch=10 n=36 v=94
40397 Off ch=10 n=36 v=94
40411 Off ch=10 n=41 v=105
40438 Off ch=10 n=51 v=93
40560 On ch=10 n=51 v=81
40678 Off ch=10 n=51 v=81
40800 On ch=10 n=38 v=117
40918 Off ch=10 n=38 v=117
40919 On ch=10 n=36 v=110
40919 On ch=10 n=41 v=114
40920 On ch=10 n=49 v=101
41038 Off ch=10 n=49 v=101
41052 Off ch=10 n=36 v=110
41060 Off ch=10 n=41 v=114
41280 On ch=10 n=51 v=73
41280 On ch=10 n=38 v=112
41398 Off ch=10 n=51 v=73
41398 Off ch=10 n=38 v=112
41519 On ch=10 n=51 v=104
41637 Off ch=10 n=51 v=104
41759 On ch=10 n=51 v=67
41760 On ch=10 n=41 v=97
41760 On ch=10 n=36 v=102
41877 Off ch=10 n=51 v=67
41880 On ch=10 n=51 v=74
41886 Off ch=10 n=36 v=102
41889 Off ch=10 n=41 v=97
41998 Off ch=10 n=51 v=74
41999 On ch=10 n=51 v=87
42117 Off ch=10 n=51 v=87
42240 On ch=10 n=51 v=73
42240 On ch=10 n=38 v=106
42358 Off ch=10 n=51 v=73
42358 Off ch=10 n=38 v=106
42480 On ch=10 n=51 v=93
42481 On ch=10 n=41 v=92
42482 On ch=10 n=36 v=102
42554 Off ch=10 n=41 v=92
42572 Off ch=10 n=36 v=102
42598 Off ch=10 n=51 v=93
42600 On ch=10 n=51 v=74
42718 Off ch=10 n=51 v=74
42720 On ch=10 n=51 v=93
42838 Off ch=10 n=51 v=93
42841 On ch=10 n=36 v=108
42841 On ch=10 n=41 v=110
42916 Off ch=10 n=41 v=110
42928 Off ch=10 n=36 v=108
42957 On ch=10 n=41 v=105
42958 On ch=10 n=36 v=94
42960 On ch=10 n=51 v=81
42961 On ch=10 n=38 v=106
43034 Off ch=10 n=36 v=94
43048 Off ch=10 n=41 v=105
43078 Off ch=10 n=51 v=81
43079 Off ch=10 n=38 v=106
43080 On ch=10 n=41 v=86
43080 On ch=10 n=51 v=67
43082 On ch=10 n=36 v=100
43167 Off ch=10 n=41 v=86
43174 Off ch=10 n=36 v=100
43198 Off ch=10 n=51 v=67
43200 On ch=10 n=49 v=101
43200 On ch=10 n=36 v=110
43200 On ch=10 n=41 v=114
43318 Off ch=10 n=49 v=101
43333 Off ch=10 n=36 v=110
43341 Off ch=10 n=41 v=114
43440 On ch=10 n=51 v=85
43558 Off ch=10 n=51 v=85
43680 On ch=10 n=51 v=73
43680 On ch=10 n=38 v=112
43798 Off ch=10 n=51 v=73
43798 Off ch=10 n=38 v=112
43919 On ch=10 n=51 v=104
44037 Off ch=10 n=51 v=104
44040 On ch=10 n=51 v=67
44041 On ch=10 n=36 v=102
44041 On ch=10 n=41 v=97
44146 Off ch=10 n=36 v=102
44158 Off ch=10 n=51 v=67
44160 On ch=10 n=41 v=80
44161 On ch=10 n=51 v=87
44162 On ch=10 n=36 v=102
44163 Off ch=10 n=41 v=97
44214 Off ch=10 n=41 v=80
44235 Off ch=10 n=36 v=102
44279 Off ch=10 n=51 v=87
44400 On ch=10 n=51 v=104
44518 Off ch=10 n=51 v=104
44640 On ch=10 n=51 v=73
44640 On ch=10 n=38 v=106
44758 Off ch=10 n=51 v=73
44758 Off ch=10 n=38 v=106
44763 On ch=10 n=51 v=74
44880 On ch=10 n=51 v=93
44881 Off ch=10 n=51 v=74
44998 Off ch=10 n=51 v=93
45120 On ch=10 n=51 v=93
45120 On ch=10 n=41 v=105
45121 On ch=10 n=36 v=94
45197 Off ch=10 n=36 v=94
45211 Off ch=10 n=41 v=105
45238 Off ch=10 n=51 v=93
45360 On ch=10 n=51 v=81
45478 Off ch=10 n=51 v=81
45599 On ch=10 n=38 v=112
45600 On ch=10 n=51 v=101
45717 Off ch=10 n=38 v=112
45718 Off ch=10 n=51 v=101
45840 On ch=10 n=51 v=101
45958 Off ch=10 n=51 v=101
46080 On ch=10 n=51 v=73
46081 On ch=10 n=36 v=110
46081 On ch=10 n=41 v=114
46198 Off ch=10 n=51 v=73
46214 Off ch=10 n=36 v=110
46222 Off ch=10 n=41 v=114
46319 On ch=10 n=51 v=104
46437 Off ch=10 n=51 v=104
46440 On ch=10 n=51 v=67
46558 Off ch=10 n=51 v=67
46559 On ch=10 n=38 v=106
46560 On ch=10 n=51 v=79
46677 Off ch=10 n=38 v=106
46678 Off ch=10 n=51 v=79
46680 On ch=10 n=51 v=87
46798 Off ch=10 n=51 v=87
46799 On ch=10 n=41 v=86
46800 On ch=10 n=51 v=81
46801 On ch=10 n=36 v=100
46886 Off ch=10 n=41 v=86
46893 Off ch=10 n=36 v=100
46918 Off ch=10 n=51 v=81
47040 On ch=10 n=51 v=73
47158 Off ch=10 n=51 v=73
47280 On ch=10 n=51 v=93
47281 On ch=10 n=41 v=92
47282 On ch=10 n=36 v=102
47354 Off ch=10 n=41 v=92
47372 Off ch=10 n=36 v=102
47398 Off ch=10 n=51 v=93
47400 On ch=10 n=51 v=74
47517 On ch=10 n=38 v=106
47518 Off ch=10 n=51 v=74
47520 On ch=10 n=51 v=93
47635 Off ch=10 n=38 v=106
47638 Off ch=10 n=51 v=93
47760 On ch=10 n=36 v=108
47760 On ch=10 n=41 v=110
47760 On ch=10 n=51 v=81
47835 Off ch=10 n=41 v=110
47847 Off ch=10 n=36 v=108
47878 Off ch=10 n=51 v=81
47880 On ch=10 n=51 v=67
47998 Off ch=10 n=51 v=67
48000 On ch=10 n=41 v=108
48000 On ch=10 n=49 v=107
48000 On ch=10 n=36 v=94
48118 Off ch=10 n=41 v=108
48118 Off ch=10 n=49 v=107
48118 Off ch=10 n=36 v=94
48240 On ch=10 n=38 v=95
48358 Off ch=10 n=38 v=95
48360 On ch=10 n=41 v=104
48360 On ch=10 n=49 v=107
48360 On ch=10 n=36 v=108
48478 Off ch=10 n=41 v=104
48478 Off ch=10 n=49 v=107
48478 Off ch=10 n=36 v=108
48600 On ch=10 n=38 v=85
48718 Off ch=10 n=38 v=85
48720 On ch=10 n=41 v=102
48720 On ch=10 n=49 v=89
48720 On ch=10 n=36 v=104
48838 Off ch=10 n=41 v=102
48838 Off ch=10 n=49 v=89
48838 Off ch=10 n=36 v=104
48960 On ch=10 n=38 v=104
49078 Off ch=10 n=38 v=104
49080 On ch=10 n=41 v=102
49080 On ch=10 n=49 v=107
49080 On ch=10 n=36 v=92
49198 Off ch=10 n=41 v=102
49198 Off ch=10 n=49 v=107
49198 Off ch=10 n=36 v=92
49320 On ch=10 n=38 v=104
49438 Off ch=10 n=38 v=104
49440 On ch=10 n=41 v=94
49440 On ch=10 n=49 v=84
49440 On ch=10 n=36 v=97
49558 Off ch=10 n=41 v=94
49558 Off ch=10 n=49 v=84
49558 Off ch=10 n=36 v=97
49680 On ch=10 n=38 v=97
49798 Off ch=10 n=38 v=97
49920 On ch=10 n=41 v=95
49920 On ch=10 n=49 v=101
49920 On ch=10 n=36 v=102
50038 Off ch=10 n=41 v=95
50038 Off ch=10 n=49 v=101
50038 Off ch=10 n=36 v=102
50160 On ch=10 n=38 v=112
50278 Off ch=10 n=38 v=112
50400 On ch=10 n=49 v=101
50400 On ch=10 n=36 v=110
50400 On ch=10 n=41 v=114
50518 Off ch=10 n=49 v=101
50533 Off ch=10 n=36 v=110
50541 Off ch=10 n=41 v=114
50880 On ch=10 n=51 v=73
50880 On ch=10 n=38 v=112
50998 Off ch=10 n=51 v=73
50998 Off ch=10 n=38 v=112
51000 On ch=10 n=51 v=104
51118 Off ch=10 n=51 v=104
51240 On ch=10 n=51 v=67
51241 On ch=10 n=36 v=102
51241 On ch=10 n=41 v=97
51358 Off ch=10 n=51 v=67
51367 Off ch=10 n=36 v=102
51370 Off ch=10 n=41 v=97
51479 On ch=10 n=41 v=80
51480 On ch=10 n=51 v=87
51481 On ch=10 n=36 v=102
51533 Off ch=10 n=41 v=80
51554 Off ch=10 n=36 v=102
51598 Off ch=10 n=51 v=87
51599 On ch=10 n=41 v=86
51601 On ch=10 n=36 v=100
51686 Off ch=10 n=41 v=86
51693 Off ch=10 n=36 v=100
51840 On ch=10 n=51 v=73
51840 On ch=10 n=38 v=106
51958 Off ch=10 n=51 v=73
51958 Off ch=10 n=38 v=106
52080 On ch=10 n=51 v=93
52081 On ch=10 n=41 v=92
52082 On ch=10 n=36 v=102
52154 Off ch=10 n=41 v=92
52172 Off ch=10 n=36 v=102
52198 Off ch=10 n=51 v=93
52200 On ch=10 n=51 v=74
52318 Off ch=10 n=51 v=74
52320 On ch=10 n=51 v=93
52320 On ch=10 n=41 v=105
52321 On ch=10 n=36 v=94
52397 Off ch=10 n=36 v=94
52411 Off ch=10 n=41 v=105
52438 Off ch=10 n=51 v=93
52441 On ch=10 n=36 v=108
52441 On ch=10 n=41 v=110
52516 Off ch=10 n=41 v=110
52528 Off ch=10 n=36 v=108
52560 On ch=10 n=51 v=81
52561 On ch=10 n=38 v=106
52678 Off ch=10 n=51 v=81
52679 Off ch=10 n=38 v=106
52680 On ch=10 n=51 v=67
52798 Off ch=10 n=51 v=67
52800 On ch=10 n=49 v=101
52800 On ch=10 n=36 v=110
52800 On ch=10 n=41 v=114
52918 Off ch=10 n=49 v=101
52933 Off ch=10 n=36 v=110
52941 Off ch=10 n=41 v=114
53280 On ch=10 n=51 v=73
53280 On ch=10 n=38 v=112
53398 Off ch=10 n=51 v=73
53398 Off ch=10 n=38 v=112
53400 On ch=10 n=51 v=104
53518 Off ch=10 n=51 v=104
53640 On ch=10 n=51 v=67
53641 On ch=10 n=36 v=102
53641 On ch=10 n=41 v=97
53758 Off ch=10 n=51 v=67
53767 Off ch=10 n=36 v=102
53770 Off ch=10 n=41 v=97
53879 On ch=10 n=41 v=80
53880 On ch=10 n=51 v=87
53881 On ch=10 n=36 v=102
53933 Off ch=10 n=41 v=80
53954 Off ch=10 n=36 v=102
53998 Off ch=10 n=51 v=87
53999 On ch=10 n=41 v=86
54001 On ch=10 n=36 v=100
54086 Off ch=10 n=41 v=86
54093 Off ch=10 n=36 v=100
54240 On ch=10 n=51 v=73
54240 On ch=10 n=38 v=106
54358 Off ch=10 n=51 v=73
54358 Off ch=10 n=38 v=106
54480 On ch=10 n=51 v=93
54481 On ch=10 n=41 v=92
54482 On ch=10 n=36 v=102
54554 Off ch=10 n=41 v=92
54572 Off ch=10 n=36 v=102
54598 Off ch=10 n=51 v=93
54600 On ch=10 n=51 v=74
54718 Off ch=10 n=51 v=74
54720 On ch=10 n=51 v=93
54720 On ch=10 n=41 v=105
54721 On ch=10 n=36 v=94
54797 Off ch=10 n=36 v=94
54811 Off ch=10 n=41 v=105
54838 Off ch=10 n=51 v=93
54841 On ch=10 n=36 v=108
54841 On ch=10 n=41 v=110
54916 Off ch=10 n=41 v=110
54928 Off ch=10 n=36 v=108
54960 On ch=10 n=51 v=81
54961 On ch=10 n=38 v=106
55078 Off ch=10 n=51 v=81
55079 Off ch=10 n=38 v=106
55080 On ch=10 n=51 v=67
55198 Off ch=10 n=51 v=67
55200 On ch=10 n=49 v=101
55200 On ch=10 n=36 v=110
55200 On ch=10 n=41 v=114
55318 Off ch=10 n=49 v=101
55333 Off ch=10 n=36 v=110
55341 Off ch=10 n=41 v=114
55440 On ch=10 n=51 v=85
55558 Off ch=10 n=51 v=85
55680 On ch=10 n=51 v=73
55680 On ch=10 n=38 v=112
55798 Off ch=10 n=51 v=73
55798 Off ch=10 n=38 v=112
55800 On ch=10 n=51 v=70
55918 Off ch=10 n=51 v=70
55920 On ch=10 n=51 v=104
56038 Off ch=10 n=51 v=104
56160 On ch=10 n=51 v=67
56160 On ch=10 n=36 v=102
56160 On ch=10 n=41 v=97
56278 Off ch=10 n=51 v=67
56286 Off ch=10 n=36 v=102
56289 Off ch=10 n=41 v=97
56400 On ch=10 n=51 v=87
56518 Off ch=10 n=51 v=87
56520 On ch=10 n=51 v=70
56638 Off ch=10 n=51 v=70
56640 On ch=10 n=51 v=73
56640 On ch=10 n=38 v=106
56758 Off ch=10 n=51 v=73
56758 Off ch=10 n=38 v=106
56880 On ch=10 n=51 v=93
56998 Off ch=10 n=51 v=93
57120 On ch=10 n=51 v=93
57122 On ch=10 n=41 v=92
57122 On ch=10 n=36 v=102
57195 Off ch=10 n=41 v=92
57212 Off ch=10 n=36 v=102
57238 Off ch=10 n=51 v=93
57360 On ch=10 n=51 v=81
57360 On ch=10 n=38 v=106
57478 Off ch=10 n=51 v=81
57478 Off ch=10 n=38 v=106
57479 On ch=10 n=41 v=110
57480 On ch=10 n=51 v=67
57482 On ch=10 n=36 v=108
57554 Off ch=10 n=41 v=110
57569 Off ch=10 n=36 v=108
57598 Off ch=10 n=51 v=67
57600 On ch=10 n=49 v=101
57600 On ch=10 n=36 v=110
57600 On ch=10 n=41 v=114
57718 Off ch=10 n=49 v=101
57733 Off ch=10 n=36 v=110
57741 Off ch=10 n=41 v=114
57840 On ch=10 n=51 v=85
57958 Off ch=10 n=51 v=85
58080 On ch=10 n=51 v=73
58080 On ch=10 n=38 v=112
58198 Off ch=10 n=51 v=73
58198 Off ch=10 n=38 v=112
58200 On ch=10 n=51 v=70
58318 Off ch=10 n=51 v=70
58320 On ch=10 n=51 v=104
58438 Off ch=10 n=51 v=104
58560 On ch=10 n=51 v=67
58560 On ch=10 n=36 v=102
58560 On ch=10 n=41 v=97
58678 Off ch=10 n=51 v=67
58686 Off ch=10 n=36 v=102
58689 Off ch=10 n=41 v=97
58800 On ch=10 n=51 v=87
58918 Off ch=10 n=51 v=87
58920 On ch=10 n=51 v=70
59038 Off ch=10 n=51 v=70
59040 On ch=10 n=51 v=73
59040 On ch=10 n=38 v=106
59158 Off ch=10 n=51 v=73
59158 Off ch=10 n=38 v=106
59280 On ch=10 n=51 v=93
59398 Off ch=10 n=51 v=93
59520 On ch=10 n=51 v=93
59522 On ch=10 n=41 v=92
59522 On ch=10 n=36 v=102
59595 Off ch=10 n=41 v=92
59612 Off ch=10 n=36 v=102
59638 Off ch=10 n=51 v=93
59760 On ch=10 n=51 v=81
59760 On ch=10 n=38 v=106
59878 Off ch=10 n=51 v=81
59878 Off ch=10 n=38 v=106
59879 On ch=10 n=41 v=110
59880 On ch=10 n=51 v=67
59882 On ch=10 n=36 v=108
59954 Off ch=10 n=41 v=110
59969 Off ch=10 n=36 v=108
59998 Off ch=10 n=51 v=67
60000 On ch=10 n=41 v=114
60000 On ch=10 n=36 v=110
60001 On ch=10 n=49 v=101
60119 Off ch=10 n=49 v=101
60133 Off ch=10 n=36 v=110
60141 Off ch=10 n=41 v=114
60240 On ch=10 n=51 v=84
60358 Off ch=10 n=51 v=84
60480 On ch=10 n=51 v=73
60480 On ch=10 n=38 v=112
60598 Off ch=10 n=51 v=73
60598 Off ch=10 n=38 v=112
60719 On ch=10 n=51 v=104
60837 Off ch=10 n=51 v=104
60959 On ch=10 n=51 v=67
60960 On ch=10 n=41 v=97
60960 On ch=10 n=36 v=102
61077 Off ch=10 n=51 v=67
61080 On ch=10 n=51 v=74
61086 Off ch=10 n=36 v=102
61089 Off ch=10 n=41 v=97
61198 Off ch=10 n=51 v=74
61199 On ch=10 n=51 v=87
61317 Off ch=10 n=51 v=87
61440 On ch=10 n=51 v=73
61440 On ch=10 n=38 v=106
61558 Off ch=10 n=51 v=73
61558 Off ch=10 n=38 v=106
61680 On ch=10 n=51 v=93
61681 On ch=10 n=41 v=92
61682 On ch=10 n=36 v=102
61754 Off ch=10 n=41 v=92
61772 Off ch=10 n=36 v=102
61798 Off ch=10 n=51 v=93
61800 On ch=10 n=51 v=74
61918 Off ch=10 n=51 v=74
61920 On ch=10 n=51 v=93
62038 Off ch=10 n=51 v=93
62157 On ch=10 n=41 v=105
62158 On ch=10 n=36 v=94
62160 On ch=10 n=51 v=81
62234 Off ch=10 n=36 v=94
62248 Off ch=10 n=41 v=105
62278 Off ch=10 n=51 v=81
62280 On ch=10 n=38 v=106
62280 On ch=10 n=51 v=67
62398 Off ch=10 n=38 v=106
62398 Off ch=10 n=51 v=67
62400 On ch=10 n=49 v=101
62400 On ch=10 n=36 v=110
62400 On ch=10 n=41 v=114
62518 Off ch=10 n=49 v=101
62533 Off ch=10 n=36 v=110
62541 Off ch=10 n=41 v=114
62640 On ch=10 n=51 v=85
62758 Off ch=10 n=51 v=85
62880 On ch=10 n=51 v=73
62880 On ch=10 n=38 v=112
62998 Off ch=10 n=51 v=73
62998 Off ch=10 n=38 v=112
63000 On ch=10 n=51 v=70
63118 Off ch=10 n=51 v=70
63120 On ch=10 n=51 v=104
63238 Off ch=10 n=51 v=104
63360 On ch=10 n=51 v=67
63360 On ch=10 n=36 v=102
63360 On ch=10 n=41 v=97
63478 Off ch=10 n=51 v=67
63486 Off ch=10 n=36 v=102
63489 Off ch=10 n=41 v=97
63600 On ch=10 n=51 v=87
63718 Off ch=10 n=51 v=87
63720 On ch=10 n=51 v=70
63838 Off ch=10 n=51 v=70
63840 On ch=10 n=51 v=73
63840 On ch=10 n=38 v=106
63958 Off ch=10 n=51 v=73
63958 Off ch=10 n=38 v=106
64080 On ch=10 n=51 v=93
64198 Off ch=10 n=51 v=93
64320 On ch=10 n=51 v=93
64322 On ch=10 n=41 v=92
64322 On ch=10 n=36 v=102
64395 Off ch=10 n=41 v=92
64412 Off ch=10 n=36 v=102
64438 Off ch=10 n=51 v=93
64560 On ch=10 n=51 v=81
64678 Off ch=10 n=51 v=81
64680 On ch=10 n=51 v=67
64798 Off ch=10 n=51 v=67
64800 On ch=10 n=41 v=108
64800 On ch=10 n=49 v=107
64800 On ch=10 n=36 v=94
64918 Off ch=10 n=41 v=108
64918 Off ch=10 n=49 v=107
64918 Off ch=10 n=36 v=94
65040 On ch=10 n=38 v=95
65158 Off ch=10 n=38 v=95
65160 On ch=10 n=41 v=104
65160 On ch=10 n=49 v=107
65160 On ch=10 n=36 v=108
65278 Off ch=10 n=41 v=104
65278 Off ch=10 n=49 v=107
65278 Off ch=10 n=36 v=108
65400 On ch=10 n=38 v=85
65518 Off ch=10 n=38 v=85
65520 On ch=10 n=41 v=102
65520 On ch=10 n=49 v=89
65520 On ch=10 n=36 v=104
65638 Off ch=10 n=41 v=102
65638 Off ch=10 n=49 v=89
65638 Off ch=10 n=36 v=104
65760 On ch=10 n=38 v=104
65878 Off ch=10 n=38 v=104
65880 On ch=10 n=41 v=102
65880 On ch=10 n=49 v=107
65880 On ch=10 n=36 v=92
65998 Off ch=10 n=41 v=102
65998 Off ch=10 n=49 v=107
65998 Off ch=10 n=36 v=92
66120 On ch=10 n=38 v=104
66238 Off ch=10 n=38 v=104
66240 On ch=10 n=41 v=94
66240 On ch=10 n=49 v=84
66240 On ch=10 n=36 v=97
66358 Off ch=10 n=41 v=94
66358 Off ch=10 n=49 v=84
66358 Off ch=10 n=36 v=97
66480 On ch=10 n=38 v=97
66598 Off ch=10 n=38 v=97
66720 On ch=10 n=41 v=95
66720 On ch=10 n=49 v=101
66720 On ch=10 n=36 v=102
66838 Off ch=10 n=41 v=95
66838 Off ch=10 n=49 v=101
66838 Off ch=10 n=36 v=102
66960 On ch=10 n=38 v=112
67078 Off ch=10 n=38 v=112
67200 On ch=10 n=49 v=101
67200 On ch=10 n=36 v=110
67200 On ch=10 n=41 v=114
67318 Off ch=10 n=49 v=101
67333 Off ch=10 n=36 v=110
67341 Off ch=10 n=41 v=114
67680 On ch=10 n=51 v=73
67680 On ch=10 n=38 v=112
67798 Off ch=10 n=51 v=73
67798 Off ch=10 n=38 v=112
67800 On ch=10 n=51 v=104
67918 Off ch=10 n=51 v=104
68040 On ch=10 n=51 v=67
68041 On ch=10 n=36 v=102
68041 On ch=10 n=41 v=97
68158 Off ch=10 n=51 v=67
68167 Off ch=10 n=36 v=102
68170 Off ch=10 n=41 v=97
68279 On ch=10 n=41 v=80
68280 On ch=10 n=51 v=87
68281 On ch=10 n=36 v=102
68333 Off ch=10 n=41 v=80
68354 Off ch=10 n=36 v=102
68398 Off ch=10 n=51 v=87
68399 On ch=10 n=41 v=86
68401 On ch=10 n=36 v=100
68486 Off ch=10 n=41 v=86
68493 Off ch=10 n=36 v=100
68640 On ch=10 n=51 v=73
68640 On ch=10 n=38 v=106
68758 Off ch=10 n=51 v=73
68758 Off ch=10 n=38 v=106
68880 On ch=10 n=51 v=93
68881 On ch=10 n=41 v=92
68882 On ch=10 n=36 v=102
68954 Off ch=10 n=41 v=92
68972 Off ch=10 n=36 v=102
68998 Off ch=10 n=51 v=93
69000 On ch=10 n=51 v=74
69118 Off ch=10 n=51 v=74
69120 On ch=10 n=51 v=93
69120 On ch=10 n=41 v=105
69121 On ch=10 n=36 v=94
69197 Off ch=10 n=36 v=94
69211 Off ch=10 n=41 v=105
69238 Off ch=10 n=51 v=93
69241 On ch=10 n=36 v=108
69241 On ch=10 n=41 v=110
69316 Off ch=10 n=41 v=110
69328 Off ch=10 n=36 v=108
69360 On ch=10 n=51 v=81
69361 On ch=10 n=38 v=106
69478 Off ch=10 n=51 v=81
69479 Off ch=10 n=38 v=106
69480 On ch=10 n=51 v=67
69598 Off ch=10 n=51 v=67
69600 On ch=10 n=49 v=101
69600 On ch=10 n=36 v=110
69600 On ch=10 n=41 v=114
69718 Off ch=10 n=49 v=101
69733 Off ch=10 n=36 v=110
69741 Off ch=10 n=41 v=114
70080 On ch=10 n=51 v=73
70080 On ch=10 n=38 v=112
70198 Off ch=10 n=51 v=73
70198 Off ch=10 n=38 v=112
70200 On ch=10 n=51 v=104
70318 Off ch=10 n=51 v=104
70440 On ch=10 n=51 v=67
70441 On ch=10 n=36 v=102
70441 On ch=10 n=41 v=97
70558 Off ch=10 n=51 v=67
70567 Off ch=10 n=36 v=102
70570 Off ch=10 n=41 v=97
70679 On ch=10 n=41 v=80
70680 On ch=10 n=51 v=87
70681 On ch=10 n=36 v=102
70733 Off ch=10 n=41 v=80
70754 Off ch=10 n=36 v=102
70798 Off ch=10 n=51 v=87
70799 On ch=10 n=41 v=86
70801 On ch=10 n=36 v=100
70886 Off ch=10 n=41 v=86
70893 Off ch=10 n=36 v=100
71040 On ch=10 n=51 v=73
71040 On ch=10 n=38 v=106
71158 Off ch=10 n=51 v=73
71158 Off ch=10 n=38 v=106
71280 On ch=10 n=51 v=93
71281 On ch=10 n=41 v=92
71282 On ch=10 n=36 v=102
71354 Off ch=10 n=41 v=92
71372 Off ch=10 n=36 v=102
71398 Off ch=10 n=51 v=93
71400 On ch=10 n=51 v=74
71518 Off ch=10 n=51 v=74
71520 On ch=10 n=51 v=93
71520 On ch=10 n=41 v=105
71521 On ch=10 n=36 v=94
71597 Off ch=10 n=36 v=94
71611 Off ch=10 n=41 v=105
71638 Off ch=10 n=51 v=93
71641 On ch=10 n=36 v=108
71641 On ch=10 n=41 v=110
71716 Off ch=10 n=41 v=110
71728 Off ch=10 n=36 v=108
71760 On ch=10 n=51 v=81
71761 On ch=10 n=38 v=106
71878 Off ch=10 n=51 v=81
71879 Off ch=10 n=38 v=106
71880 On ch=10 n=51 v=67
71998 Off ch=10 n=51 v=67
72000 On ch=10 n=55 v=91
72000 On ch=10 n=36 v=97
72000 On ch=10 n=41 v=90
72118 Off ch=10 n=55 v=91
72118 Off ch=10 n=36 v=97
72118 Off ch=10 n=41 v=90
72240 On ch=10 n=55 v=80
72240 On ch=10 n=38 v=78
72351 Off ch=10 n=38 v=78
72358 Off ch=10 n=55 v=80
72360 On ch=10 n=36 v=98
72360 On ch=10 n=41 v=88
72478 Off ch=10 n=36 v=98
72478 Off ch=10 n=41 v=88
72480 On ch=10 n=55 v=80
72598 Off ch=10 n=55 v=80
72600 On ch=10 n=38 v=70
72718 Off ch=10 n=38 v=70
72720 On ch=10 n=55 v=59
72720 On ch=10 n=36 v=95
72720 On ch=10 n=41 v=91
72838 Off ch=10 n=55 v=59
72838 Off ch=10 n=36 v=95
72838 Off ch=10 n=41 v=91
72960 On ch=10 n=55 v=87
72960 On ch=10 n=38 v=72
73078 Off ch=10 n=55 v=87
73078 Off ch=10 n=38 v=72
73080 On ch=10 n=36 v=104
73080 On ch=10 n=41 v=94
73198 Off ch=10 n=36 v=104
73198 Off ch=10 n=41 v=94
73200 On ch=10 n=55 v=75
73318 Off ch=10 n=55 v=75
73320 On ch=10 n=36 v=102
73320 On ch=10 n=41 v=91
73438 Off ch=10 n=36 v=102
73438 Off ch=10 n=41 v=91
73440 On ch=10 n=55 v=86
73440 On ch=10 n=36 v=104
73440 On ch=10 n=41 v=100
73558 Off ch=10 n=55 v=86
73558 Off ch=10 n=36 v=104
73558 Off ch=10 n=41 v=100
73680 On ch=10 n=55 v=66
73680 On ch=10 n=38 v=110
73798 Off ch=10 n=55 v=66
73798 Off ch=10 n=38 v=110
73920 On ch=10 n=55 v=79
73920 On ch=10 n=41 v=86
73920 On ch=10 n=36 v=100
74038 Off ch=10 n=55 v=79
74038 Off ch=10 n=41 v=86
74038 Off ch=10 n=36 v=100
74160 On ch=10 n=55 v=78
74160 On ch=10 n=38 v=94
74278 Off ch=10 n=55 v=78
74278 Off ch=10 n=38 v=94
74280 On ch=10 n=41 v=90
74280 On ch=10 n=36 v=98
74398 Off ch=10 n=41 v=90
74398 Off ch=10 n=36 v=98
74400 On ch=10 n=55 v=91
74400 On ch=10 n=36 v=97
74400 On ch=10 n=41 v=90
74518 Off ch=10 n=55 v=91
74518 Off ch=10 n=36 v=97
74518 Off ch=10 n=41 v=90
74640 On ch=10 n=55 v=80
74758 Off ch=10 n=55 v=80
74880 On ch=10 n=55 v=80
74881 On ch=10 n=38 v=70
74998 Off ch=10 n=55 v=80
74999 Off ch=10 n=38 v=70
75120 On ch=10 n=55 v=59
75238 Off ch=10 n=55 v=59
75239 On ch=10 n=41 v=91
75246 On ch=10 n=36 v=95
75357 Off ch=10 n=41 v=91
75360 On ch=10 n=55 v=87
75364 Off ch=10 n=36 v=95
75478 Off ch=10 n=55 v=87
75480 On ch=10 n=36 v=104
75480 On ch=10 n=41 v=94
75598 Off ch=10 n=36 v=104
75598 Off ch=10 n=41 v=94
75600 On ch=10 n=55 v=75
75601 On ch=10 n=41 v=91
75601 On ch=10 n=36 v=102
75718 Off ch=10 n=55 v=75
75719 Off ch=10 n=41 v=91
75719 Off ch=10 n=36 v=102
75838 On ch=10 n=38 v=110
75840 On ch=10 n=55 v=86
75956 Off ch=10 n=38 v=110
75958 Off ch=10 n=55 v=86
76080 On ch=10 n=55 v=66
76082 On ch=10 n=41 v=100
76082 On ch=10 n=36 v=104
76198 Off ch=10 n=55 v=66
76200 Off ch=10 n=41 v=100
76200 Off ch=10 n=36 v=104
76320 On ch=10 n=55 v=79
76438 Off ch=10 n=55 v=79
76439 On ch=10 n=41 v=86
76439 On ch=10 n=36 v=100
76557 Off ch=10 n=41 v=86
76557 Off ch=10 n=36 v=100
76560 On ch=10 n=36 v=94
76560 On ch=10 n=41 v=100
76560 On ch=10 n=55 v=78
76560 On ch=10 n=38 v=94
76678 Off ch=10 n=36 v=94
76678 Off ch=10 n=41 v=100
76678 Off ch=10 n=55 v=78
76678 Off ch=10 n=38 v=94
76680 On ch=10 n=41 v=90
76680 On ch=10 n=36 v=98
76798 Off ch=10 n=41 v=90
76798 Off ch=10 n=36 v=98
76800 On ch=10 n=55 v=91
76800 On ch=10 n=36 v=97
76800 On ch=10 n=41 v=90
76918 Off ch=10 n=55 v=91
76918 Off ch=10 n=36 v=97
76918 Off ch=10 n=41 v=90
77040 On ch=10 n=55 v=80
77158 Off ch=10 n=55 v=80
77280 On ch=10 n=55 v=80
77281 On ch=10 n=38 v=70
77398 Off ch=10 n=55 v=80
77399 Off ch=10 n=38 v=70
77520 On ch=10 n=55 v=59
77638 Off ch=10 n=55 v=59
77639 On ch=10 n=41 v=91
77646 On ch=10 n=36 v=95
77757 Off ch=10 n=41 v=91
77760 On ch=10 n=55 v=87
77764 Off ch=10 n=36 v=95
77878 Off ch=10 n=55 v=87
77880 On ch=10 n=36 v=104
77880 On ch=10 n=41 v=94
77998 Off ch=10 n=36 v=104
77998 Off ch=10 n=41 v=94
78000 On ch=10 n=55 v=75
78001 On ch=10 n=41 v=91
78001 On ch=10 n=36 v=102
78118 Off ch=10 n=55 v=75
78119 Off ch=10 n=41 v=91
78119 Off ch=10 n=36 v=102
78238 On ch=10 n=38 v=110
78240 On ch=10 n=55 v=86
78356 Off ch=10 n=38 v=110
78358 Off ch=10 n=55 v=86
78480 On ch=10 n=55 v=66
78482 On ch=10 n=41 v=100
78482 On ch=10 n=36 v=104
78598 Off ch=10 n=55 v=66
78600 Off ch=10 n=41 v=100
78600 Off ch=10 n=36 v=104
78718 On ch=10 n=41 v=100
78718 On ch=10 n=36 v=94
78720 On ch=10 n=55 v=79
78836 Off ch=10 n=41 v=100
78836 Off ch=10 n=36 v=94
78838 Off ch=10 n=55 v=79
78839 On ch=10 n=41 v=86
78839 On ch=10 n=36 v=100
78957 Off ch=10 n=41 v=86
78957 Off ch=10 n=36 v=100
78960 On ch=10 n=55 v=78
78960 On ch=10 n=38 v=94
79078 Off ch=10 n=55 v=78
79078 Off ch=10 n=38 v=94
79200 On ch=10 n=55 v=91
79200 On ch=10 n=36 v=97
79200 On ch=10 n=41 v=90
79318 Off ch=10 n=55 v=91
79318 Off ch=10 n=36 v=97
79318 Off ch=10 n=41 v=90
79321 On ch=10 n=38 v=78
79432 Off ch=10 n=38 v=78
79439 On ch=10 n=36 v=95
79439 On ch=10 n=41 v=91
79440 On ch=10 n=55 v=80
79557 Off ch=10 n=36 v=95
79557 Off ch=10 n=41 v=91
79558 Off ch=10 n=55 v=80
79560 On ch=10 n=36 v=98
79560 On ch=10 n=41 v=88
79678 Off ch=10 n=36 v=98
79678 Off ch=10 n=41 v=88
79680 On ch=10 n=55 v=80
79681 On ch=10 n=38 v=70
79798 Off ch=10 n=55 v=80
79799 Off ch=10 n=38 v=70
79920 On ch=10 n=55 v=59
80038 Off ch=10 n=55 v=59
80040 On ch=10 n=41 v=100
80040 On ch=10 n=36 v=104
80158 Off ch=10 n=41 v=100
80158 Off ch=10 n=36 v=104
80160 On ch=10 n=55 v=87
80161 On ch=10 n=41 v=94
80168 On ch=10 n=36 v=104
80278 Off ch=10 n=55 v=87
80279 Off ch=10 n=41 v=94
80286 Off ch=10 n=36 v=104
80400 On ch=10 n=55 v=75
80516 On ch=10 n=38 v=72
80518 Off ch=10 n=55 v=75
80634 Off ch=10 n=38 v=72
80640 On ch=10 n=55 v=86
80646 On ch=10 n=38 v=102
80758 Off ch=10 n=55 v=86
80764 Off ch=10 n=38 v=102
80764 On ch=10 n=38 v=91
80880 On ch=10 n=55 v=66
80880 On ch=10 n=38 v=110
80882 Off ch=10 n=38 v=91
80998 Off ch=10 n=55 v=66
80998 Off ch=10 n=38 v=110
81006 On ch=10 n=38 v=90
81120 On ch=10 n=38 v=97
81120 On ch=10 n=55 v=79
81120 On ch=10 n=41 v=86
81120 On ch=10 n=36 v=100
81124 Off ch=10 n=38 v=90
81238 Off ch=10 n=38 v=97
81238 Off ch=10 n=55 v=79
81238 Off ch=10 n=41 v=86
81238 Off ch=10 n=36 v=100
81240 On ch=10 n=38 v=106
81358 Off ch=10 n=38 v=106
81360 On ch=10 n=55 v=78
81360 On ch=10 n=38 v=94
81478 Off ch=10 n=55 v=78
81478 Off ch=10 n=38 v=94
81480 On ch=10 n=38 v=98
81598 Off ch=10 n=38 v=98
81600 On ch=10 n=49 v=101
81600 On ch=10 n=36 v=110
81600 On ch=10 n=41 v=114
81718 Off ch=10 n=49 v=101
81733 Off ch=10 n=36 v=110
81741 Off ch=10 n=41 v=114
81840 On ch=10 n=51 v=85
81958 Off ch=10 n=51 v=85
82080 On ch=10 n=51 v=73
82080 On ch=10 n=38 v=112
82198 Off ch=10 n=51 v=73
82198 Off ch=10 n=38 v=112
82200 On ch=10 n=51 v=70
82318 Off ch=10 n=51 v=70
82320 On ch=10 n=51 v=104
82438 Off ch=10 n=51 v=104
82560 On ch=10 n=51 v=67
82560 On ch=10 n=36 v=102
82560 On ch=10 n=41 v=97
82678 Off ch=10 n=51 v=67
82686 Off ch=10 n=36 v=102
82689 Off ch=10 n=41 v=97
82800 On ch=10 n=51 v=87
82918 Off ch=10 n=51 v=87
82920 On ch=10 n=51 v=70
83038 Off ch=10 n=51 v=70
83040 On ch=10 n=51 v=73
83040 On ch=10 n=38 v=106
83158 Off ch=10 n=51 v=73
83158 Off ch=10 n=38 v=106
83280 On ch=10 n=51 v=93
83398 Off ch=10 n=51 v=93
83520 On ch=10 n=51 v=93
83522 On ch=10 n=41 v=92
83522 On ch=10 n=36 v=102
83595 Off ch=10 n=41 v=92
83612 Off ch=10 n=36 v=102
83638 Off ch=10 n=51 v=93
83760 On ch=10 n=51 v=81
83760 On ch=10 n=38 v=106
83878 Off ch=10 n=51 v=81
83878 Off ch=10 n=38 v=106
83879 On ch=10 n=41 v=110
83880 On ch=10 n=51 v=67
83882 On ch=10 n=36 v=108
83954 Off ch=10 n=41 v=110
83969 Off ch=10 n=36 v=108
83998 Off ch=10 n=51 v=67
84000 On ch=10 n=49 v=101
84000 On ch=10 n=36 v=110
84000 On ch=10 n=41 v=114
84118 Off ch=10 n=49 v=101
84133 Off ch=10 n=36 v=110
84141 Off ch=10 n=41 v=114
84240 On ch=10 n=51 v=85
84358 Off ch=10 n=51 v=85
84480 On ch=10 n=51 v=73
84480 On ch=10 n=38 v=112
84598 Off ch=10 n=51 v=73
84598 Off ch=10 n=38 v=112
84600 On ch=10 n=51 v=70
84718 Off ch=10 n=51 v=70
84720 On ch=10 n=51 v=104
84838 Off ch=10 n=51 v=104
84960 On ch=10 n=51 v=67
84960 On ch=10 n=36 v=102
84960 On ch=10 n=41 v=97
85078 Off ch=10 n=51 v=67
85086 Off ch=10 n=36 v=102
85089 Off ch=10 n=41 v=97
85200 On ch=10 n=51 v=87
85318 Off ch=10 n=51 v=87
85320 On ch=10 n=51 v=70
85438 Off ch=10 n=51 v=70
85440 On ch=10 n=51 v=73
85440 On ch=10 n=38 v=106
85558 Off ch=10 n=51 v=73
85558 Off ch=10 n=38 v=106
85680 On ch=10 n=51 v=93
85798 Off ch=10 n=51 v=93
85920 On ch=10 n=51 v=93
85922 On ch=10 n=41 v=92
85922 On ch=10 n=36 v=102
85995 Off ch=10 n=41 v=92
86012 Off ch=10 n=36 v=102
86038 Off ch=10 n=51 v=93
86038 On ch=10 n=38 v=96
86125 Off ch=10 n=38 v=96
86160 On ch=10 n=38 v=106
86160 On ch=10 n=51 v=81
86271 Off ch=10 n=38 v=106
86278 Off ch=10 n=51 v=81
86279 On ch=10 n=38 v=116
86280 On ch=10 n=51 v=67
86354 Off ch=10 n=38 v=116
86398 Off ch=10 n=51 v=67
86401 On ch=10 n=38 v=127
86519 Off ch=10 n=38 v=127
86519 On ch=10 n=41 v=114
86526 On ch=10 n=36 v=110
86640 On ch=10 n=49 v=96
86659 Off ch=10 n=36 v=110
86660 Off ch=10 n=41 v=114
86758 Off ch=10 n=49 v=96
86880 On ch=10 n=51 v=73
86880 On ch=10 n=38 v=112
86998 Off ch=10 n=51 v=73
86998 Off ch=10 n=38 v=112
87119 On ch=10 n=51 v=104
87237 Off ch=10 n=51 v=104
87359 On ch=10 n=51 v=67
87360 On ch=10 n=41 v=97
87360 On ch=10 n=36 v=102
87477 Off ch=10 n=51 v=67
87480 On ch=10 n=51 v=74
87486 Off ch=10 n=36 v=102
87489 Off ch=10 n=41 v=97
87598 Off ch=10 n=51 v=74
87599 On ch=10 n=51 v=87
87717 Off ch=10 n=51 v=87
87840 On ch=10 n=51 v=73
87840 On ch=10 n=38 v=106
87958 Off ch=10 n=51 v=73
87958 Off ch=10 n=38 v=106
88080 On ch=10 n=51 v=93
88081 On ch=10 n=41 v=92
88082 On ch=10 n=36 v=102
88154 Off ch=10 n=41 v=92
88172 Off ch=10 n=36 v=102
88198 Off ch=10 n=51 v=93
88200 On ch=10 n=51 v=74
88318 Off ch=10 n=51 v=74
88320 On ch=10 n=51 v=93
88438 Off ch=10 n=51 v=93
88557 On ch=10 n=41 v=105
88558 On ch=10 n=36 v=94
88560 On ch=10 n=51 v=81
88634 Off ch=10 n=36 v=94
88648 Off ch=10 n=41 v=105
88678 Off ch=10 n=51 v=81
88680 On ch=10 n=38 v=106
88680 On ch=10 n=51 v=67
88798 Off ch=10 n=38 v=106
88798 Off ch=10 n=51 v=67
88800 On ch=10 n=49 v=101
88800 On ch=10 n=36 v=110
88800 On ch=10 n=41 v=114
88918 Off ch=10 n=49 v=101
88933 Off ch=10 n=36 v=110
88941 Off ch=10 n=41 v=114
89040 On ch=10 n=51 v=85
89158 Off ch=10 n=51 v=85
89280 On ch=10 n=51 v=73
89280 On ch=10 n=38 v=112
89398 Off ch=10 n=51 v=73
89398 Off ch=10 n=38 v=112
89400 On ch=10 n=51 v=70
89518 Off ch=10 n=51 v=70
89520 On ch=10 n=51 v=104
89638 Off ch=10 n=51 v=104
89760 On ch=10 n=51 v=67
89760 On ch=10 n=36 v=102
89760 On ch=10 n=41 v=97
89878 Off ch=10 n=51 v=67
89886 Off ch=10 n=36 v=102
89889 Off ch=10 n=41 v=97
90000 On ch=10 n=51 v=87
90118 Off ch=10 n=51 v=87
90120 On ch=10 n=51 v=70
90238 Off ch=10 n=51 v=70
90240 On ch=10 n=51 v=73
90240 On ch=10 n=38 v=106
90358 Off ch=10 n=51 v=73
90358 Off ch=10 n=38 v=106
90480 On ch=10 n=51 v=93
90598 Off ch=10 n=51 v=93
90720 On ch=10 n=51 v=93
90722 On ch=10 n=41 v=92
90722 On ch=10 n=36 v=102
90795 Off ch=10 n=41 v=92
90812 Off ch=10 n=36 v=102
90838 Off ch=10 n=51 v=93
90960 On ch=10 n=51 v=81
91078 Off ch=10 n=51 v=81
91080 On ch=10 n=51 v=67
91198 Off ch=10 n=51 v=67
91200 On ch=10 n=41 v=108
91200 On ch=10 n=49 v=107
91200 On ch=10 n=36 v=94
91318 Off ch=10 n=41 v=108
91318 Off ch=10 n=49 v=107
91318 Off ch=10 n=36 v=94
91440 On ch=10 n=38 v=95
91558 Off ch=10 n=38 v=95
91560 On ch=10 n=41 v=104
91560 On ch=10 n=49 v=107
91560 On ch=10 n=36 v=108
91678 Off ch=10 n=41 v=104
91678 Off ch=10 n=49 v=107
91678 Off ch=10 n=36 v=108
91800 On ch=10 n=38 v=85
91918 Off ch=10 n=38 v=85
91920 On ch=10 n=41 v=102
91920 On ch=10 n=49 v=89
91920 On ch=10 n=36 v=104
92038 Off ch=10 n=41 v=102
92038 Off ch=10 n=49 v=89
92038 Off ch=10 n=36 v=104
92160 On ch=10 n=38 v=104
92278 Off ch=10 n=38 v=104
92280 On ch=10 n=41 v=102
92280 On ch=10 n=49 v=107
92280 On ch=10 n=36 v=92
92398 Off ch=10 n=41 v=102
92398 Off ch=10 n=49 v=107
92398 Off ch=10 n=36 v=92
92520 On ch=10 n=38 v=104
92638 Off ch=10 n=38 v=104
92640 On ch=10 n=41 v=94
92640 On ch=10 n=49 v=84
92640 On ch=10 n=36 v=97
92758 Off ch=10 n=41 v=94
92758 Off ch=10 n=49 v=84
92758 Off ch=10 n=36 v=97
92880 On ch=10 n=38 v=97
92998 Off ch=10 n=38 v=97
93120 On ch=10 n=41 v=95
93120 On ch=10 n=49 v=101
93120 On ch=10 n=36 v=102
93238 Off ch=10 n=41 v=95
93238 Off ch=10 n=49 v=101
93238 Off ch=10 n=36 v=102
93360 On ch=10 n=38 v=112
93478 Off ch=10 n=38 v=112
93600 On ch=10 n=49 v=101
93600 On ch=10 n=36 v=110
93600 On ch=10 n=41 v=114
93718 Off ch=10 n=49 v=101
93733 Off ch=10 n=36 v=110
93741 Off ch=10 n=41 v=114
94080 On ch=10 n=51 v=73
94080 On ch=10 n=38 v=112
94198 Off ch=10 n=51 v=73
94198 Off ch=10 n=38 v=112
94200 On ch=10 n=51 v=104
94318 Off ch=10 n=51 v=104
94440 On ch=10 n=51 v=67
94441 On ch=10 n=36 v=102
94441 On ch=10 n=41 v=97
94558 Off ch=10 n=51 v=67
94567 Off ch=10 n=36 v=102
94570 Off ch=10 n=41 v=97
94679 On ch=10 n=41 v=80
94680 On ch=10 n=51 v=87
94681 On ch=10 n=36 v=102
94733 Off ch=10 n=41 v=80
94754 Off ch=10 n=36 v=102
94798 Off ch=10 n=51 v=87
94799 On ch=10 n=41 v=86
94801 On ch=10 n=36 v=100
94886 Off ch=10 n=41 v=86
94893 Off ch=10 n=36 v=100
95040 On ch=10 n=51 v=73
95040 On ch=10 n=38 v=106
95158 Off ch=10 n=51 v=73
95158 Off ch=10 n=38 v=106
95280 On ch=10 n=51 v=93
95281 On ch=10 n=41 v=92
95282 On ch=10 n=36 v=102
95354 Off ch=10 n=41 v=92
95372 Off ch=10 n=36 v=102
95398 Off ch=10 n=51 v=93
95400 On ch=10 n=51 v=74
95518 Off ch=10 n=51 v=74
95520 On ch=10 n=51 v=93
95520 On ch=10 n=41 v=105
95521 On ch=10 n=36 v=94
95597 Off ch=10 n=36 v=94
95611 Off ch=10 n=41 v=105
95638 Off ch=10 n=51 v=93
95641 On ch=10 n=36 v=108
95641 On ch=10 n=41 v=110
95716 Off ch=10 n=41 v=110
95728 Off ch=10 n=36 v=108
95760 On ch=10 n=51 v=81
95761 On ch=10 n=38 v=106
95878 Off ch=10 n=51 v=81
95879 Off ch=10 n=38 v=106
95880 On ch=10 n=51 v=67
95998 Off ch=10 n=51 v=67
96000 On ch=10 n=49 v=101
96000 On ch=10 n=36 v=110
96000 On ch=10 n=41 v=114
96118 Off ch=10 n=49 v=101
96133 Off ch=10 n=36 v=110
96141 Off ch=10 n=41 v=114
96480 On ch=10 n=51 v=73
96480 On ch=10 n=38 v=112
96598 Off ch=10 n=51 v=73
96598 Off ch=10 n=38 v=112
96600 On ch=10 n=51 v=104
96718 Off ch=10 n=51 v=104
96840 On ch=10 n=51 v=67
96841 On ch=10 n=36 v=102
96841 On ch=10 n=41 v=97
96958 Off ch=10 n=51 v=67
96967 Off ch=10 n=36 v=102
96970 Off ch=10 n=41 v=97
97079 On ch=10 n=41 v=80
97080 On ch=10 n=51 v=87
97081 On ch=10 n=36 v=102
97133 Off ch=10 n=41 v=80
97154 Off ch=10 n=36 v=102
97198 Off ch=10 n=51 v=87
97199 On ch=10 n=41 v=86
97201 On ch=10 n=36 v=100
97286 Off ch=10 n=41 v=86
97293 Off ch=10 n=36 v=100
97440 On ch=10 n=51 v=73
97440 On ch=10 n=38 v=106
97558 Off ch=10 n=51 v=73
97558 Off ch=10 n=38 v=106
97680 On ch=10 n=51 v=93
97681 On ch=10 n=41 v=92
97682 On ch=10 n=36 v=102
97754 Off ch=10 n=41 v=92
97772 Off ch=10 n=36 v=102
97798 Off ch=10 n=51 v=93
97800 On ch=10 n=51 v=74
97918 Off ch=10 n=51 v=74
97920 On ch=10 n=51 v=93
97920 On ch=10 n=41 v=105
97921 On ch=10 n=36 v=94
97997 Off ch=10 n=36 v=94
98011 Off ch=10 n=41 v=105
98038 Off ch=10 n=51 v=93
98160 On ch=10 n=36 v=110
98160 On ch=10 n=41 v=112
98160 On ch=10 n=51 v=81
98161 On ch=10 n=38 v=106
98278 Off ch=10 n=36 v=110
98278 Off ch=10 n=41 v=112
98278 Off ch=10 n=51 v=81
98279 Off ch=10 n=38 v=106
104160 Meta TrkEnd
TrkEnd
